0, 0, Header, 0, 1, 384
1, 0, Start_track
1, 0, Title_t, "Sonata in F--Edisher Savitski   "
1, 0, Text_t, "2006 International Piano-e-Competition Recital Round"
1, 0, Text_t, "St. Paul, Minnesota, July 2006"
1, 0, Text_t, "http://www.piano-e-competition.com/"
1, 0, Instrument_name_t, "Yamaha Disklavier Pro Mark IV concert grand piano"
1, 0, Sequencer_specific, 39, 67, 113, 0, 1, 0, 1, 0, 83, 111, 110, 97, 116, 97, 32, 105, 110, 32, 70, 32, 32, 32, 32, 32, 69, 100, 105, 115, 104, 101, 114, 32, 83, 97, 118, 105, 116, 115, 107, 105
1, 0, Sequencer_specific, 6, 67, 113, 0, 0, 0, 69
1, 0, System_exclusive, 21, 67, 113, 126, 21, 0, 2, 2, 0, 14, 5, 1, 4, 4, 10, 10, 14, 11, 9, 4, 0, 247
1, 0, Sequencer_specific, 5, 67, 123, 12, 2, 1
1, 0, Tempo, 512820
1, 0, Time_signature, 4, 2, 24, 8
1, 0, System_exclusive, 5, 126, 127, 9, 1, 247
1, 1, System_exclusive, 8, 67, 16, 76, 0, 0, 126, 0, 247
1, 2, System_exclusive, 8, 67, 16, 76, 8, 9, 7, 1, 247
1, 3, Control_c, 0, 0, 0
1, 4, Control_c, 0, 32, 0
1, 5, Program_c, 0, 0
1, 6, Control_c, 0, 7, 100
1, 95, Control_c, 0, 64, 10
1, 184, Control_c, 0, 64, 21
1, 273, Control_c, 0, 64, 31
1, 362, Control_c, 0, 64, 42
1, 452, Control_c, 0, 64, 52
1, 541, Control_c, 0, 64, 63
1, 630, Control_c, 0, 64, 73
1, 719, Control_c, 0, 64, 85
1, 904, Note_on_c, 0, 72, 85
1, 912, Control_c, 0, 64, 93
1, 926, Control_c, 0, 64, 110
1, 941, Control_c, 0, 64, 127
1, 947, Note_off_c, 0, 72, 64
1, 1171, Note_on_c, 0, 70, 85
1, 1287, Note_on_c, 0, 69, 81
1, 1320, Control_c, 0, 64, 107
1, 1335, Control_c, 0, 64, 98
1, 1349, Control_c, 0, 64, 91
1, 1354, Note_off_c, 0, 70, 57
1, 1364, Control_c, 0, 64, 84
1, 1379, Control_c, 0, 64, 78
1, 1394, Control_c, 0, 64, 70
1, 1409, Control_c, 0, 64, 63
1, 1411, Note_on_c, 0, 67, 76
1, 1424, Control_c, 0, 64, 56
1, 1438, Control_c, 0, 64, 50
1, 1453, Control_c, 0, 64, 45
1, 1468, Control_c, 0, 64, 41
1, 1482, Note_off_c, 0, 69, 55
1, 1482, Control_c, 0, 64, 38
1, 1497, Control_c, 0, 64, 34
1, 1512, Control_c, 0, 64, 31
1, 1524, Note_on_c, 0, 65, 76
1, 1527, Control_c, 0, 64, 0
1, 1555, Note_off_c, 0, 67, 60
1, 1644, Note_on_c, 0, 69, 80
1, 1680, Note_off_c, 0, 65, 59
1, 1758, Note_on_c, 0, 67, 80
1, 1817, Note_off_c, 0, 69, 53
1, 1873, Note_on_c, 0, 70, 82
1, 1897, Note_off_c, 0, 67, 57
1, 1980, Note_on_c, 0, 64, 75
1, 1984, Note_off_c, 0, 70, 61
1, 2111, Note_on_c, 0, 65, 79
1, 2114, Note_off_c, 0, 64, 56
1, 2149, Note_off_c, 0, 65, 66
1, 2351, Control_c, 0, 64, 38
1, 2358, Note_on_c, 0, 60, 79
1, 2366, Control_c, 0, 64, 53
1, 2380, Control_c, 0, 64, 60
1, 2394, Note_off_c, 0, 60, 65
1, 2395, Control_c, 0, 64, 63
1, 2410, Control_c, 0, 64, 65
1, 2424, Control_c, 0, 64, 68
1, 2439, Control_c, 0, 64, 70
1, 2454, Control_c, 0, 64, 72
1, 2469, Control_c, 0, 64, 73
1, 2484, Control_c, 0, 64, 75
1, 2499, Control_c, 0, 64, 76
1, 2514, Control_c, 0, 64, 77
1, 2528, Control_c, 0, 64, 78
1, 2630, Note_on_c, 0, 72, 82
1, 2632, Control_c, 0, 64, 77
1, 2647, Control_c, 0, 64, 75
1, 2662, Control_c, 0, 64, 70
1, 2677, Control_c, 0, 64, 64
1, 2691, Control_c, 0, 64, 52
1, 2706, Control_c, 0, 64, 29
1, 2722, Control_c, 0, 64, 0
1, 2782, Control_c, 0, 67, 38
1, 2803, Control_c, 0, 67, 54
1, 2818, Control_c, 0, 67, 70
1, 2833, Control_c, 0, 67, 85
1, 2848, Control_c, 0, 67, 99
1, 2863, Control_c, 0, 67, 115
1, 2877, Control_c, 0, 67, 127
1, 3236, Note_on_c, 0, 70, 60
1, 3353, Note_on_c, 0, 69, 65
1, 3396, Note_off_c, 0, 72, 56
1, 3417, Note_off_c, 0, 70, 56
1, 3476, Note_on_c, 0, 67, 69
1, 3533, Note_off_c, 0, 69, 58
1, 3613, Note_on_c, 0, 65, 63
1, 3628, Note_off_c, 0, 67, 59
1, 3726, Note_on_c, 0, 69, 66
1, 3742, Note_off_c, 0, 65, 54
1, 3848, Note_on_c, 0, 67, 66
1, 3864, Note_off_c, 0, 69, 57
1, 3923, Control_c, 0, 67, 119
1, 3938, Control_c, 0, 67, 108
1, 3952, Control_c, 0, 67, 106
1, 3964, Note_on_c, 0, 70, 65
1, 3966, Note_off_c, 0, 67, 58
1, 3982, Control_c, 0, 67, 109
1, 3997, Control_c, 0, 67, 112
1, 4012, Control_c, 0, 67, 114
1, 4026, Control_c, 0, 67, 118
1, 4041, Control_c, 0, 67, 121
1, 4056, Control_c, 0, 67, 125
1, 4070, Note_off_c, 0, 70, 60
1, 4070, Control_c, 0, 67, 127
1, 4089, Note_on_c, 0, 64, 52
1, 4206, Note_off_c, 0, 64, 56
1, 4211, Note_on_c, 0, 65, 56
1, 4214, Note_on_c, 0, 57, 42
1, 4228, Note_on_c, 0, 53, 40
1, 4313, Note_off_c, 0, 57, 61
1, 4357, Note_on_c, 0, 60, 40
1, 4457, Note_off_c, 0, 60, 57
1, 4487, Note_on_c, 0, 57, 33
1, 4572, Note_off_c, 0, 57, 60
1, 4608, Note_on_c, 0, 60, 39
1, 4711, Note_off_c, 0, 60, 58
1, 4731, Note_on_c, 0, 57, 39
1, 4830, Note_off_c, 0, 57, 60
1, 4857, Note_on_c, 0, 60, 44
1, 4864, Control_c, 0, 64, 33
1, 4879, Control_c, 0, 64, 45
1, 4893, Control_c, 0, 64, 54
1, 4908, Control_c, 0, 64, 59
1, 4923, Control_c, 0, 64, 61
1, 4938, Control_c, 0, 64, 63
1, 4953, Control_c, 0, 64, 65
1, 4962, Note_off_c, 0, 65, 61
1, 4966, Note_off_c, 0, 60, 58
1, 4967, Control_c, 0, 64, 67
1, 4982, Note_on_c, 0, 57, 37
1, 4982, Control_c, 0, 64, 68
1, 4997, Control_c, 0, 64, 70
1, 5012, Control_c, 0, 64, 72
1, 5026, Control_c, 0, 64, 73
1, 5049, Control_c, 0, 64, 74
1, 5064, Control_c, 0, 64, 75
1, 5071, Note_off_c, 0, 53, 55
1, 5075, Note_off_c, 0, 57, 63
1, 5079, Control_c, 0, 64, 76
1, 5094, Control_c, 0, 64, 76
1, 5109, Note_on_c, 0, 60, 51
1, 5220, Note_on_c, 0, 66, 58
1, 5220, Note_off_c, 0, 60, 57
1, 5228, Control_c, 0, 64, 76
1, 5229, Note_on_c, 0, 58, 53
1, 5230, Note_on_c, 0, 53, 37
1, 5242, Control_c, 0, 64, 75
1, 5257, Control_c, 0, 64, 75
1, 5272, Control_c, 0, 64, 73
1, 5287, Control_c, 0, 64, 71
1, 5302, Control_c, 0, 64, 69
1, 5316, Note_off_c, 0, 58, 57
1, 5316, Control_c, 0, 64, 66
1, 5331, Note_off_c, 0, 66, 63
1, 5331, Control_c, 0, 64, 62
1, 5339, Note_on_c, 0, 67, 63
1, 5346, Control_c, 0, 64, 55
1, 5351, Note_on_c, 0, 60, 49
1, 5361, Control_c, 0, 64, 48
1, 5376, Control_c, 0, 64, 41
1, 5390, Control_c, 0, 64, 36
1, 5405, Control_c, 0, 64, 32
1, 5420, Control_c, 0, 64, 29
1, 5435, Control_c, 0, 64, 0
1, 5456, Note_on_c, 0, 58, 56
1, 5460, Note_on_c, 0, 69, 72
1, 5462, Note_off_c, 0, 60, 57
1, 5479, Note_off_c, 0, 67, 54
1, 5480, Control_c, 0, 67, 118
1, 5494, Control_c, 0, 67, 99
1, 5509, Control_c, 0, 67, 81
1, 5524, Control_c, 0, 67, 65
1, 5539, Control_c, 0, 67, 45
1, 5554, Control_c, 0, 67, 0
1, 5566, Note_off_c, 0, 69, 62
1, 5569, Note_on_c, 0, 70, 76
1, 5573, Note_off_c, 0, 58, 58
1, 5584, Note_on_c, 0, 60, 56
1, 5686, Note_off_c, 0, 70, 66
1, 5690, Note_on_c, 0, 72, 79
1, 5693, Note_off_c, 0, 60, 54
1, 5694, Note_on_c, 0, 58, 64
1, 5812, Note_off_c, 0, 58, 58
1, 5816, Note_on_c, 0, 73, 79
1, 5822, Note_off_c, 0, 72, 60
1, 5823, Note_on_c, 0, 60, 62
1, 5932, Note_off_c, 0, 73, 61
1, 5933, Note_on_c, 0, 74, 83
1, 5936, Note_on_c, 0, 58, 64
1, 5936, Note_off_c, 0, 60, 59
1, 5962, Control_c, 0, 64, 35
1, 5977, Control_c, 0, 64, 50
1, 5992, Control_c, 0, 64, 61
1, 6007, Control_c, 0, 64, 63
1, 6021, Control_c, 0, 64, 64
1, 6036, Note_off_c, 0, 58, 61
1, 6036, Control_c, 0, 64, 65
1, 6043, Note_on_c, 0, 76, 83
1, 6044, Note_off_c, 0, 53, 59
1, 6051, Control_c, 0, 64, 65
1, 6053, Note_on_c, 0, 60, 61
1, 6065, Note_off_c, 0, 74, 57
1, 6089, Note_off_c, 0, 76, 64
1, 6140, Control_c, 0, 64, 65
1, 6141, Note_off_c, 0, 60, 55
1, 6154, Control_c, 0, 64, 64
1, 6164, Note_on_c, 0, 79, 75
1, 6169, Control_c, 0, 64, 61
1, 6170, Note_on_c, 0, 57, 53
1, 6179, Note_on_c, 0, 53, 46
1, 6184, Control_c, 0, 64, 54
1, 6199, Control_c, 0, 64, 43
1, 6213, Control_c, 0, 64, 0
1, 6258, Note_off_c, 0, 57, 61
1, 6275, Note_on_c, 0, 60, 55
1, 6281, Note_on_c, 0, 77, 80
1, 6386, Note_off_c, 0, 60, 59
1, 6398, Note_off_c, 0, 79, 58
1, 6399, Note_on_c, 0, 57, 50
1, 6399, Note_on_c, 0, 76, 75
1, 6449, Note_off_c, 0, 77, 60
1, 6451, Control_c, 0, 67, 36
1, 6465, Control_c, 0, 67, 47
1, 6480, Control_c, 0, 67, 60
1, 6489, Note_off_c, 0, 57, 60
1, 6493, Note_off_c, 0, 76, 62
1, 6495, Control_c, 0, 67, 72
1, 6510, Control_c, 0, 67, 85
1, 6516, Note_on_c, 0, 60, 54
1, 6518, Note_on_c, 0, 74, 73
1, 6525, Control_c, 0, 67, 95
1, 6547, Control_c, 0, 67, 106
1, 6562, Control_c, 0, 67, 114
1, 6572, Note_off_c, 0, 74, 60
1, 6577, Control_c, 0, 67, 121
1, 6591, Control_c, 0, 67, 127
1, 6638, Note_off_c, 0, 60, 59
1, 6640, Note_on_c, 0, 74, 65
1, 6642, Note_on_c, 0, 57, 47
1, 6743, Note_off_c, 0, 57, 60
1, 6755, Note_on_c, 0, 72, 67
1, 6765, Note_on_c, 0, 60, 54
1, 6803, Note_off_c, 0, 74, 57
1, 6844, Control_c, 0, 64, 35
1, 6846, Note_off_c, 0, 60, 59
1, 6859, Control_c, 0, 64, 48
1, 6865, Note_on_c, 0, 70, 70
1, 6869, Note_on_c, 0, 57, 55
1, 6874, Control_c, 0, 64, 58
1, 6883, Note_off_c, 0, 72, 58
1, 6889, Control_c, 0, 64, 62
1, 6903, Control_c, 0, 64, 64
1, 6918, Control_c, 0, 64, 65
1, 6933, Control_c, 0, 64, 65
1, 6936, Note_off_c, 0, 57, 60
1, 6948, Control_c, 0, 64, 66
1, 6950, Note_off_c, 0, 53, 55
1, 6958, Note_off_c, 0, 70, 61
1, 6962, Control_c, 0, 64, 66
1, 6978, Note_on_c, 0, 60, 48
1, 6988, Note_on_c, 0, 69, 63
1, 7051, Control_c, 0, 64, 66
1, 7053, Note_off_c, 0, 69, 56
1, 7066, Control_c, 0, 64, 65
1, 7081, Control_c, 0, 64, 63
1, 7089, Note_off_c, 0, 60, 58
1, 7095, Control_c, 0, 64, 59
1, 7098, Note_on_c, 0, 67, 55
1, 7104, Note_on_c, 0, 53, 41
1, 7104, Note_on_c, 0, 58, 50
1, 7109, Note_on_c, 0, 64, 60
1, 7110, Control_c, 0, 64, 47
1, 7125, Control_c, 0, 64, 0
1, 7164, Note_off_c, 0, 67, 63
1, 7188, Note_off_c, 0, 64, 0
1, 7199, Note_off_c, 0, 58, 59
1, 7224, Poly_aftertouch_c, 0, 64, 127
1, 7229, Note_on_c, 0, 60, 46
1, 7259, Note_on_c, 0, 64, 3
1, 7340, Note_on_c, 0, 69, 57
1, 7357, Note_off_c, 0, 60, 59
1, 7369, Note_on_c, 0, 58, 41
1, 7384, Note_on_c, 0, 67, 57
1, 7424, Note_off_c, 0, 69, 60
1, 7445, Note_off_c, 0, 58, 58
1, 7470, Note_off_c, 0, 67, 61
1, 7479, Note_on_c, 0, 66, 59
1, 7493, Note_on_c, 0, 60, 50
1, 7590, Note_off_c, 0, 66, 57
1, 7592, Note_off_c, 0, 60, 59
1, 7599, Note_on_c, 0, 67, 59
1, 7606, Note_on_c, 0, 58, 38
1, 7695, Note_off_c, 0, 58, 58
1, 7733, Note_on_c, 0, 60, 42
1, 7829, Note_off_c, 0, 60, 58
1, 7831, Note_on_c, 0, 72, 44
1, 7837, Note_off_c, 0, 67, 53
1, 7841, Note_on_c, 0, 58, 45
1, 7917, Note_off_c, 0, 58, 55
1, 7972, Note_on_c, 0, 60, 41
1, 8142, Note_on_c, 0, 65, 46
1, 8148, Note_on_c, 0, 57, 32
1, 8149, Note_off_c, 0, 60, 37
1, 8225, Note_off_c, 0, 64, 47
1, 8247, Note_off_c, 0, 72, 37
1, 8648, Note_off_c, 0, 65, 63
1, 8654, Note_off_c, 0, 53, 62
1, 8656, Note_off_c, 0, 57, 61
1, 8741, Control_c, 0, 67, 88
1, 8756, Control_c, 0, 67, 49
1, 8771, Control_c, 0, 67, 0
1, 8923, Note_on_c, 0, 60, 76
1, 8977, Note_off_c, 0, 60, 64
1, 9000, Control_c, 0, 64, 36
1, 9015, Control_c, 0, 64, 55
1, 9030, Control_c, 0, 64, 64
1, 9045, Control_c, 0, 64, 68
1, 9060, Control_c, 0, 64, 74
1, 9075, Control_c, 0, 64, 82
1, 9089, Control_c, 0, 64, 95
1, 9104, Control_c, 0, 64, 124
1, 9120, Control_c, 0, 64, 127
1, 9165, Note_on_c, 0, 58, 74
1, 9268, Control_c, 0, 64, 102
1, 9280, Note_on_c, 0, 57, 74
1, 9283, Control_c, 0, 64, 89
1, 9289, Note_off_c, 0, 58, 59
1, 9298, Control_c, 0, 64, 80
1, 9313, Control_c, 0, 64, 73
1, 9328, Control_c, 0, 64, 66
1, 9343, Control_c, 0, 64, 57
1, 9357, Control_c, 0, 64, 49
1, 9372, Control_c, 0, 64, 42
1, 9387, Control_c, 0, 64, 36
1, 9392, Note_on_c, 0, 55, 69
1, 9402, Control_c, 0, 64, 30
1, 9416, Control_c, 0, 64, 0
1, 9423, Note_off_c, 0, 57, 62
1, 9513, Note_on_c, 0, 53, 75
1, 9550, Note_off_c, 0, 55, 61
1, 9647, Note_on_c, 0, 57, 72
1, 9650, Note_off_c, 0, 53, 61
1, 9759, Note_on_c, 0, 55, 74
1, 9765, Note_off_c, 0, 57, 64
1, 9875, Note_off_c, 0, 55, 60
1, 9883, Note_on_c, 0, 58, 76
1, 9964, Note_off_c, 0, 58, 62
1, 9986, Note_on_c, 0, 52, 69
1, 10089, Note_off_c, 0, 52, 59
1, 10105, Note_on_c, 0, 53, 67
1, 10142, Note_off_c, 0, 53, 65
1, 10350, Note_on_c, 0, 48, 89
1, 10380, Note_off_c, 0, 48, 66
1, 10614, Note_on_c, 0, 60, 82
1, 11141, Note_on_c, 0, 58, 55
1, 11183, Note_off_c, 0, 60, 56
1, 11253, Note_on_c, 0, 57, 62
1, 11261, Note_off_c, 0, 58, 61
1, 11374, Note_on_c, 0, 55, 68
1, 11379, Note_off_c, 0, 57, 62
1, 11492, Note_on_c, 0, 53, 68
1, 11505, Note_off_c, 0, 55, 59
1, 11610, Note_on_c, 0, 57, 68
1, 11611, Note_off_c, 0, 53, 62
1, 11716, Note_off_c, 0, 57, 62
1, 11718, Note_on_c, 0, 55, 69
1, 11737, Control_c, 0, 67, 37
1, 11752, Control_c, 0, 67, 50
1, 11766, Control_c, 0, 67, 65
1, 11789, Control_c, 0, 67, 81
1, 11804, Control_c, 0, 67, 96
1, 11818, Control_c, 0, 67, 112
1, 11833, Control_c, 0, 67, 124
1, 11843, Note_off_c, 0, 55, 62
1, 11848, Control_c, 0, 67, 127
1, 11856, Note_on_c, 0, 58, 70
1, 11954, Note_off_c, 0, 58, 63
1, 11964, Note_on_c, 0, 52, 56
1, 12091, Note_off_c, 0, 52, 54
1, 12096, Note_on_c, 0, 53, 46
1, 12108, Note_on_c, 0, 72, 42
1, 12229, Note_on_c, 0, 84, 53
1, 12338, Control_c, 0, 64, 37
1, 12345, Note_on_c, 0, 81, 49
1, 12349, Note_off_c, 0, 84, 37
1, 12353, Control_c, 0, 64, 46
1, 12354, Note_off_c, 0, 72, 26
1, 12368, Control_c, 0, 64, 53
1, 12382, Control_c, 0, 64, 57
1, 12397, Control_c, 0, 64, 58
1, 12412, Control_c, 0, 64, 59
1, 12426, Control_c, 0, 64, 60
1, 12441, Control_c, 0, 64, 61
1, 12446, Note_off_c, 0, 81, 52
1, 12461, Note_on_c, 0, 84, 45
1, 12471, Control_c, 0, 64, 61
1, 12538, Control_c, 0, 64, 61
1, 12553, Control_c, 0, 64, 59
1, 12568, Control_c, 0, 64, 54
1, 12574, Note_off_c, 0, 84, 49
1, 12583, Control_c, 0, 64, 46
1, 12597, Note_on_c, 0, 72, 42
1, 12597, Control_c, 0, 64, 35
1, 12612, Control_c, 0, 64, 0
1, 12671, Control_c, 0, 64, 31
1, 12686, Control_c, 0, 64, 39
1, 12701, Control_c, 0, 64, 46
1, 12702, Note_on_c, 0, 84, 53
1, 12715, Control_c, 0, 64, 52
1, 12730, Control_c, 0, 64, 56
1, 12745, Control_c, 0, 64, 58
1, 12759, Control_c, 0, 64, 58
1, 12774, Control_c, 0, 64, 59
1, 12804, Control_c, 0, 64, 59
1, 12827, Note_off_c, 0, 84, 52
1, 12836, Note_on_c, 0, 81, 51
1, 12851, Note_off_c, 0, 72, 25
1, 12923, Control_c, 0, 64, 59
1, 12926, Note_off_c, 0, 81, 60
1, 12945, Note_on_c, 0, 84, 54
1, 12967, Control_c, 0, 64, 58
1, 12982, Control_c, 0, 64, 58
1, 12997, Control_c, 0, 64, 57
1, 13012, Control_c, 0, 64, 57
1, 13026, Control_c, 0, 64, 56
1, 13041, Control_c, 0, 64, 55
1, 13052, Note_off_c, 0, 84, 54
1, 13056, Control_c, 0, 64, 54
1, 13066, Note_off_c, 0, 53, 38
1, 13071, Control_c, 0, 64, 52
1, 13072, Note_on_c, 0, 54, 36
1, 13072, Note_on_c, 0, 72, 51
1, 13086, Control_c, 0, 64, 51
1, 13102, Control_c, 0, 64, 49
1, 13117, Control_c, 0, 64, 47
1, 13131, Control_c, 0, 64, 45
1, 13146, Control_c, 0, 64, 43
1, 13161, Control_c, 0, 64, 42
1, 13165, Note_off_c, 0, 54, 59
1, 13170, Note_on_c, 0, 84, 62
1, 13176, Control_c, 0, 64, 41
1, 13191, Control_c, 0, 64, 41
1, 13205, Control_c, 0, 64, 40
1, 13208, Note_on_c, 0, 55, 47
1, 13220, Control_c, 0, 64, 40
1, 13235, Control_c, 0, 64, 39
1, 13264, Control_c, 0, 64, 39
1, 13287, Control_c, 0, 64, 38
1, 13301, Control_c, 0, 64, 37
1, 13308, Note_on_c, 0, 82, 64
1, 13316, Note_off_c, 0, 55, 61
1, 13316, Note_on_c, 0, 57, 62
1, 13316, Control_c, 0, 64, 35
1, 13327, Note_off_c, 0, 84, 57
1, 13331, Control_c, 0, 64, 34
1, 13346, Control_c, 0, 64, 33
1, 13361, Control_c, 0, 64, 32
1, 13373, Note_off_c, 0, 72, 36
1, 13390, Control_c, 0, 64, 30
1, 13418, Note_off_c, 0, 57, 63
1, 13425, Note_on_c, 0, 84, 76
1, 13429, Note_off_c, 0, 82, 51
1, 13434, Note_on_c, 0, 58, 64
1, 13435, Control_c, 0, 64, 0
1, 13528, Note_off_c, 0, 58, 63
1, 13549, Note_on_c, 0, 72, 67
1, 13550, Note_on_c, 0, 60, 65
1, 13557, Note_off_c, 0, 84, 59
1, 13656, Control_c, 0, 67, 124
1, 13658, Note_on_c, 0, 84, 77
1, 13666, Note_on_c, 0, 61, 61
1, 13671, Control_c, 0, 67, 110
1, 13675, Note_off_c, 0, 60, 58
1, 13686, Control_c, 0, 67, 93
1, 13701, Control_c, 0, 67, 70
1, 13716, Control_c, 0, 67, 48
1, 13731, Control_c, 0, 67, 0
1, 13772, Note_on_c, 0, 82, 70
1, 13774, Note_on_c, 0, 62, 69
1, 13778, Note_off_c, 0, 61, 61
1, 13802, Note_off_c, 0, 84, 61
1, 13812, Note_off_c, 0, 72, 24
1, 13873, Note_off_c, 0, 62, 60
1, 13887, Note_on_c, 0, 64, 75
1, 13890, Note_on_c, 0, 84, 77
1, 13919, Note_off_c, 0, 82, 47
1, 13941, Note_off_c, 0, 64, 63
1, 14011, Note_on_c, 0, 67, 69
1, 14014, Note_on_c, 0, 72, 68
1, 14038, Note_off_c, 0, 84, 59
1, 14123, Note_on_c, 0, 84, 70
1, 14136, Note_off_c, 0, 67, 60
1, 14137, Note_on_c, 0, 65, 67
1, 14210, Note_off_c, 0, 72, 38
1, 14223, Note_off_c, 0, 65, 57
1, 14232, Note_on_c, 0, 64, 71
1, 14246, Note_on_c, 0, 81, 69
1, 14279, Note_off_c, 0, 84, 63
1, 14307, Note_off_c, 0, 64, 63
1, 14348, Note_on_c, 0, 62, 66
1, 14349, Note_on_c, 0, 84, 79
1, 14354, Note_off_c, 0, 81, 63
1, 14392, Note_off_c, 0, 62, 61
1, 14461, Note_on_c, 0, 72, 72
1, 14470, Note_on_c, 0, 62, 52
1, 14507, Note_off_c, 0, 84, 62
1, 14582, Note_on_c, 0, 60, 63
1, 14583, Note_on_c, 0, 84, 81
1, 14586, Note_off_c, 0, 62, 54
1, 14633, Note_off_c, 0, 72, 56
1, 14682, Note_off_c, 0, 60, 60
1, 14684, Note_on_c, 0, 58, 67
1, 14700, Note_on_c, 0, 81, 80
1, 14736, Note_off_c, 0, 84, 63
1, 14799, Note_off_c, 0, 58, 59
1, 14807, Note_on_c, 0, 57, 60
1, 14811, Note_on_c, 0, 84, 78
1, 14813, Note_off_c, 0, 81, 65
1, 14919, Note_on_c, 0, 58, 62
1, 14922, Note_off_c, 0, 57, 61
1, 14926, Note_on_c, 0, 78, 75
1, 15022, Control_c, 0, 64, 38
1, 15036, Control_c, 0, 64, 50
1, 15039, Note_on_c, 0, 79, 73
1, 15040, Note_off_c, 0, 78, 58
1, 15044, Note_on_c, 0, 64, 61
1, 15051, Control_c, 0, 64, 58
1, 15066, Control_c, 0, 64, 62
1, 15081, Control_c, 0, 64, 63
1, 15096, Control_c, 0, 64, 63
1, 15111, Control_c, 0, 64, 64
1, 15121, Note_off_c, 0, 58, 52
1, 15126, Control_c, 0, 64, 65
1, 15141, Control_c, 0, 64, 66
1, 15147, Note_on_c, 0, 81, 83
1, 15148, Note_on_c, 0, 60, 64
1, 15164, Note_off_c, 0, 64, 58
1, 15168, Note_off_c, 0, 79, 54
1, 15170, Control_c, 0, 64, 66
1, 15173, Note_off_c, 0, 84, 65
1, 15259, Note_off_c, 0, 60, 59
1, 15263, Note_on_c, 0, 82, 83
1, 15264, Note_on_c, 0, 64, 67
1, 15272, Note_off_c, 0, 81, 63
1, 15303, Control_c, 0, 64, 66
1, 15333, Control_c, 0, 64, 65
1, 15348, Control_c, 0, 64, 64
1, 15362, Control_c, 0, 64, 63
1, 15369, Note_off_c, 0, 64, 59
1, 15373, Note_on_c, 0, 58, 73
1, 15377, Control_c, 0, 64, 61
1, 15380, Note_on_c, 0, 84, 87
1, 15381, Note_off_c, 0, 82, 64
1, 15392, Control_c, 0, 64, 58
1, 15407, Control_c, 0, 64, 54
1, 15422, Control_c, 0, 64, 50
1, 15436, Control_c, 0, 64, 45
1, 15451, Control_c, 0, 64, 40
1, 15466, Control_c, 0, 64, 34
1, 15481, Control_c, 0, 64, 0
1, 15492, Note_on_c, 0, 67, 74
1, 15492, Note_on_c, 0, 85, 88
1, 15501, Note_off_c, 0, 58, 60
1, 15530, Note_off_c, 0, 84, 63
1, 15605, Note_on_c, 0, 60, 70
1, 15609, Note_on_c, 0, 86, 87
1, 15612, Note_off_c, 0, 67, 60
1, 15659, Note_off_c, 0, 85, 60
1, 15688, Note_off_c, 0, 60, 62
1, 15704, Note_on_c, 0, 67, 70
1, 15723, Note_on_c, 0, 88, 86
1, 15759, Note_off_c, 0, 86, 63
1, 15770, Note_off_c, 0, 67, 59
1, 15825, Note_on_c, 0, 57, 70
1, 15829, Note_on_c, 0, 89, 83
1, 15835, Note_off_c, 0, 88, 63
1, 15851, Note_off_c, 0, 57, 66
1, 15897, Note_off_c, 0, 89, 59
1, 15945, Note_on_c, 0, 77, 78
1, 16032, Note_off_c, 0, 77, 46
1, 16059, Note_on_c, 0, 89, 84
1, 16061, Note_on_c, 0, 72, 73
1, 16070, Note_on_c, 0, 69, 63
1, 16172, Note_on_c, 0, 88, 86
1, 16174, Note_on_c, 0, 67, 77
1, 16177, Note_on_c, 0, 70, 74
1, 16180, Note_off_c, 0, 72, 62
1, 16189, Note_off_c, 0, 69, 60
1, 16205, Note_off_c, 0, 89, 62
1, 16226, Note_off_c, 0, 70, 62
1, 16260, Note_off_c, 0, 67, 0
1, 16280, Note_on_c, 0, 86, 86
1, 16293, Note_on_c, 0, 69, 73
1, 16295, Note_on_c, 0, 65, 68
1, 16297, Note_off_c, 0, 88, 65
1, 16306, Poly_aftertouch_c, 0, 67, 127
1, 16317, Note_off_c, 0, 69, 70
1, 16321, Note_off_c, 0, 86, 66
1, 16322, Note_off_c, 0, 65, 68
1, 16348, Poly_aftertouch_c, 0, 67, 0
1, 16405, Note_on_c, 0, 74, 76
1, 16458, Note_off_c, 0, 74, 60
1, 16509, Note_on_c, 0, 86, 77
1, 16511, Note_on_c, 0, 69, 65
1, 16512, Note_on_c, 0, 65, 60
1, 16519, Control_c, 0, 67, 49
1, 16534, Control_c, 0, 67, 68
1, 16548, Control_c, 0, 67, 88
1, 16563, Control_c, 0, 67, 107
1, 16569, Note_off_c, 0, 65, 58
1, 16578, Control_c, 0, 67, 127
1, 16580, Note_off_c, 0, 69, 58
1, 16614, Note_on_c, 0, 64, 68
1, 16616, Note_on_c, 0, 84, 79
1, 16634, Note_on_c, 0, 67, 52
1, 16640, Note_off_c, 0, 86, 63
1, 16668, Note_off_c, 0, 67, 65
1, 16679, Note_off_c, 0, 64, 61
1, 16724, Note_on_c, 0, 82, 74
1, 16724, Note_off_c, 0, 84, 63
1, 16732, Note_on_c, 0, 65, 65
1, 16740, Note_on_c, 0, 62, 62
1, 16751, Note_off_c, 0, 82, 59
1, 16759, Note_off_c, 0, 65, 67
1, 16772, Note_off_c, 0, 62, 65
1, 16849, Note_on_c, 0, 70, 64
1, 16905, Note_off_c, 0, 70, 53
1, 16955, Note_on_c, 0, 82, 72
1, 16957, Note_on_c, 0, 65, 60
1, 16965, Note_on_c, 0, 62, 59
1, 17004, Note_off_c, 0, 62, 61
1, 17039, Note_off_c, 0, 65, 48
1, 17071, Note_on_c, 0, 81, 67
1, 17081, Note_on_c, 0, 60, 53
1, 17090, Note_on_c, 0, 64, 42
1, 17108, Note_off_c, 0, 82, 57
1, 17118, Note_off_c, 0, 64, 57
1, 17134, Note_off_c, 0, 60, 57
1, 17176, Note_off_c, 0, 81, 62
1, 17180, Note_on_c, 0, 79, 68
1, 17187, Note_on_c, 0, 58, 64
1, 17215, Note_off_c, 0, 79, 62
1, 17224, Note_off_c, 0, 58, 61
1, 17308, Note_on_c, 0, 67, 51
1, 17350, Note_off_c, 0, 67, 47
1, 17405, Note_on_c, 0, 62, 47
1, 17406, Note_on_c, 0, 79, 65
1, 17407, Note_on_c, 0, 58, 57
1, 17454, Note_off_c, 0, 58, 59
1, 17457, Note_off_c, 0, 62, 61
1, 17522, Note_on_c, 0, 77, 68
1, 17523, Note_on_c, 0, 57, 51
1, 17555, Note_on_c, 0, 60, 12
1, 17555, Note_off_c, 0, 57, 65
1, 17603, Note_off_c, 0, 60, 28
1, 17673, Note_on_c, 0, 58, 49
1, 17674, Note_off_c, 0, 79, 23
1, 17707, Note_on_c, 0, 55, 36
1, 18223, Note_on_c, 0, 76, 43
1, 18303, Note_off_c, 0, 77, 59
1, 18494, Note_off_c, 0, 58, 64
1, 18500, Note_off_c, 0, 55, 63
1, 18590, Note_off_c, 0, 76, 65
1, 18733, Note_on_c, 0, 58, 50
1, 18759, Note_on_c, 0, 52, 42
1, 18974, Note_on_c, 0, 81, 58
1, 18989, Control_c, 0, 64, 32
1, 19003, Control_c, 0, 64, 38
1, 19018, Control_c, 0, 64, 44
1, 19033, Control_c, 0, 64, 49
1, 19048, Control_c, 0, 64, 52
1, 19063, Control_c, 0, 64, 54
1, 19077, Control_c, 0, 64, 56
1, 19085, Note_on_c, 0, 79, 60
1, 19092, Control_c, 0, 64, 57
1, 19107, Control_c, 0, 64, 58
1, 19121, Control_c, 0, 64, 58
1, 19136, Control_c, 0, 64, 59
1, 19151, Control_c, 0, 64, 60
1, 19166, Control_c, 0, 64, 60
1, 19181, Control_c, 0, 64, 61
1, 19195, Control_c, 0, 64, 62
1, 19198, Note_on_c, 0, 77, 73
1, 19210, Control_c, 0, 64, 63
1, 19225, Control_c, 0, 64, 63
1, 19240, Control_c, 0, 64, 64
1, 19255, Control_c, 0, 64, 66
1, 19277, Control_c, 0, 64, 67
1, 19292, Control_c, 0, 64, 68
1, 19307, Control_c, 0, 64, 70
1, 19314, Note_off_c, 0, 81, 32
1, 19321, Note_off_c, 0, 79, 60
1, 19321, Control_c, 0, 64, 71
1, 19323, Note_on_c, 0, 76, 74
1, 19335, Control_c, 0, 64, 72
1, 19350, Control_c, 0, 64, 73
1, 19362, Note_off_c, 0, 77, 63
1, 19365, Control_c, 0, 64, 74
1, 19366, Note_off_c, 0, 58, 62
1, 19380, Control_c, 0, 64, 75
1, 19395, Control_c, 0, 64, 77
1, 19409, Control_c, 0, 64, 78
1, 19424, Control_c, 0, 64, 80
1, 19429, Note_off_c, 0, 76, 62
1, 19432, Note_on_c, 0, 74, 78
1, 19439, Control_c, 0, 64, 82
1, 19454, Control_c, 0, 64, 85
1, 19462, Note_off_c, 0, 52, 53
1, 19469, Control_c, 0, 64, 87
1, 19484, Control_c, 0, 64, 90
1, 19499, Control_c, 0, 64, 93
1, 19514, Control_c, 0, 64, 95
1, 19529, Control_c, 0, 64, 97
1, 19538, Note_on_c, 0, 72, 74
1, 19538, Note_off_c, 0, 74, 58
1, 19544, Control_c, 0, 64, 99
1, 19585, Note_off_c, 0, 72, 60
1, 19653, Note_on_c, 0, 72, 68
1, 19663, Control_c, 0, 64, 97
1, 19667, Note_on_c, 0, 57, 51
1, 19672, Note_on_c, 0, 53, 45
1, 19678, Control_c, 0, 64, 88
1, 19692, Control_c, 0, 64, 79
1, 19707, Control_c, 0, 64, 69
1, 19722, Control_c, 0, 64, 60
1, 19737, Control_c, 0, 64, 48
1, 19751, Control_c, 0, 64, 40
1, 19766, Control_c, 0, 64, 39
1, 19776, Note_on_c, 0, 77, 78
1, 19781, Control_c, 0, 64, 43
1, 19796, Control_c, 0, 64, 49
1, 19811, Control_c, 0, 64, 57
1, 19825, Control_c, 0, 64, 62
1, 19840, Control_c, 0, 64, 67
1, 19855, Control_c, 0, 64, 72
1, 19870, Control_c, 0, 64, 79
1, 19885, Control_c, 0, 64, 84
1, 19887, Note_on_c, 0, 76, 77
1, 19899, Control_c, 0, 64, 89
1, 19902, Note_off_c, 0, 53, 54
1, 19905, Note_off_c, 0, 72, 36
1, 19914, Control_c, 0, 64, 94
1, 19929, Control_c, 0, 64, 99
1, 19943, Control_c, 0, 64, 104
1, 19958, Control_c, 0, 64, 107
1, 19958, Control_c, 0, 67, 122
1, 19973, Control_c, 0, 67, 116
1, 19983, Note_off_c, 0, 57, 43
1, 19984, Note_on_c, 0, 75, 79
1, 19988, Control_c, 0, 64, 109
1, 19995, Note_off_c, 0, 77, 36
1, 20026, Note_off_c, 0, 76, 62
1, 20040, Control_c, 0, 64, 107
1, 20040, Control_c, 0, 67, 119
1, 20055, Control_c, 0, 64, 96
1, 20069, Control_c, 0, 64, 78
1, 20084, Control_c, 0, 64, 63
1, 20092, Note_on_c, 0, 55, 54
1, 20093, Note_on_c, 0, 46, 53
1, 20098, Control_c, 0, 64, 42
1, 20109, Note_on_c, 0, 73, 74
1, 20113, Control_c, 0, 64, 0
1, 20119, Note_off_c, 0, 75, 62
1, 20172, Control_c, 0, 67, 116
1, 20187, Control_c, 0, 67, 112
1, 20202, Control_c, 0, 67, 107
1, 20208, Note_on_c, 0, 74, 79
1, 20217, Control_c, 0, 67, 89
1, 20220, Note_off_c, 0, 73, 57
1, 20232, Control_c, 0, 67, 52
1, 20247, Control_c, 0, 67, 0
1, 20321, Control_c, 0, 64, 37
1, 20330, Note_on_c, 0, 70, 76
1, 20336, Control_c, 0, 64, 52
1, 20348, Note_off_c, 0, 74, 60
1, 20351, Control_c, 0, 64, 62
1, 20366, Control_c, 0, 64, 66
1, 20381, Control_c, 0, 64, 71
1, 20396, Control_c, 0, 64, 74
1, 20401, Note_off_c, 0, 70, 63
1, 20410, Note_off_c, 0, 55, 61
1, 20411, Control_c, 0, 64, 76
1, 20424, Note_off_c, 0, 46, 60
1, 20426, Control_c, 0, 64, 77
1, 20435, Note_on_c, 0, 67, 77
1, 20440, Control_c, 0, 64, 78
1, 20455, Control_c, 0, 64, 78
1, 20544, Control_c, 0, 64, 78
1, 20559, Note_on_c, 0, 65, 81
1, 20559, Control_c, 0, 64, 76
1, 20573, Control_c, 0, 64, 68
1, 20588, Control_c, 0, 64, 54
1, 20592, Note_off_c, 0, 67, 45
1, 20603, Control_c, 0, 64, 0
1, 20802, Note_on_c, 0, 57, 68
1, 20825, Note_on_c, 0, 48, 56
1, 20862, Control_c, 0, 64, 40
1, 20877, Control_c, 0, 64, 56
1, 20892, Control_c, 0, 64, 65
1, 20907, Control_c, 0, 64, 71
1, 20921, Control_c, 0, 64, 77
1, 20936, Control_c, 0, 64, 84
1, 20951, Control_c, 0, 64, 91
1, 20966, Control_c, 0, 64, 97
1, 20969, Note_off_c, 0, 65, 64
1, 20980, Control_c, 0, 64, 101
1, 20995, Control_c, 0, 64, 103
1, 21037, Note_off_c, 0, 57, 62
1, 21041, Note_on_c, 0, 58, 68
1, 21084, Note_on_c, 0, 67, 65
1, 21085, Control_c, 0, 64, 101
1, 21100, Control_c, 0, 64, 96
1, 21115, Control_c, 0, 64, 88
1, 21130, Control_c, 0, 64, 78
1, 21138, Note_off_c, 0, 67, 56
1, 21144, Control_c, 0, 64, 68
1, 21145, Note_on_c, 0, 65, 67
1, 21159, Control_c, 0, 64, 55
1, 21172, Note_off_c, 0, 65, 67
1, 21174, Control_c, 0, 64, 32
1, 21189, Control_c, 0, 64, 0
1, 21196, Note_on_c, 0, 64, 77
1, 21240, Note_off_c, 0, 64, 60
1, 21242, Note_on_c, 0, 65, 66
1, 21290, Note_on_c, 0, 69, 78
1, 21296, Note_off_c, 0, 65, 61
1, 21302, Note_on_c, 0, 64, 48
1, 21323, Control_c, 0, 64, 33
1, 21337, Control_c, 0, 64, 44
1, 21347, Note_off_c, 0, 64, 60
1, 21352, Control_c, 0, 64, 55
1, 21367, Control_c, 0, 64, 62
1, 21368, Note_off_c, 0, 48, 57
1, 21371, Note_off_c, 0, 58, 63
1, 21382, Control_c, 0, 64, 66
1, 21396, Control_c, 0, 64, 72
1, 21407, Note_on_c, 0, 67, 73
1, 21411, Control_c, 0, 64, 77
1, 21422, Note_off_c, 0, 69, 57
1, 21426, Control_c, 0, 64, 81
1, 21441, Control_c, 0, 64, 84
1, 21456, Control_c, 0, 64, 86
1, 21470, Control_c, 0, 64, 87
1, 21550, Note_on_c, 0, 65, 61
1, 21555, Note_on_c, 0, 59, 65
1, 21564, Note_on_c, 0, 53, 56
1, 21567, Note_off_c, 0, 67, 63
1, 21567, Control_c, 0, 64, 86
1, 21580, Note_off_c, 0, 65, 64
1, 21582, Control_c, 0, 64, 83
1, 21582, Note_on_c, 0, 50, 56
1, 21596, Control_c, 0, 64, 76
1, 21611, Control_c, 0, 64, 68
1, 21626, Control_c, 0, 64, 59
1, 21641, Control_c, 0, 64, 44
1, 21656, Control_c, 0, 64, 0
1, 21723, Note_on_c, 0, 81, 57
1, 21846, Note_on_c, 0, 79, 57
1, 21863, Control_c, 0, 67, 52
1, 21878, Control_c, 0, 67, 77
1, 21893, Control_c, 0, 67, 103
1, 21908, Control_c, 0, 67, 127
1, 21954, Note_on_c, 0, 77, 65
1, 22016, Note_off_c, 0, 81, 48
1, 22065, Note_off_c, 0, 79, 39
1, 22072, Note_on_c, 0, 76, 68
1, 22095, Note_off_c, 0, 77, 62
1, 22176, Note_off_c, 0, 76, 63
1, 22188, Note_on_c, 0, 74, 69
1, 22234, Control_c, 0, 64, 37
1, 22249, Control_c, 0, 64, 48
1, 22271, Control_c, 0, 64, 57
1, 22286, Control_c, 0, 64, 61
1, 22298, Note_off_c, 0, 74, 55
1, 22301, Control_c, 0, 64, 63
1, 22310, Note_on_c, 0, 72, 66
1, 22316, Control_c, 0, 64, 65
1, 22331, Control_c, 0, 64, 67
1, 22345, Control_c, 0, 64, 67
1, 22354, Note_off_c, 0, 53, 58
1, 22360, Control_c, 0, 64, 68
1, 22374, Note_off_c, 0, 72, 61
1, 22446, Note_on_c, 0, 71, 61
1, 22479, Control_c, 0, 64, 67
1, 22490, Note_off_c, 0, 59, 59
1, 22493, Control_c, 0, 64, 66
1, 22508, Control_c, 0, 64, 65
1, 22523, Control_c, 0, 64, 63
1, 22533, Note_off_c, 0, 71, 59
1, 22537, Control_c, 0, 64, 60
1, 22552, Control_c, 0, 64, 55
1, 22558, Note_on_c, 0, 70, 54
1, 22560, Note_on_c, 0, 54, 38
1, 22567, Control_c, 0, 64, 48
1, 22582, Control_c, 0, 64, 41
1, 22597, Control_c, 0, 64, 33
1, 22611, Control_c, 0, 64, 0
1, 22617, Note_off_c, 0, 50, 52
1, 22649, Note_off_c, 0, 54, 61
1, 22670, Note_on_c, 0, 76, 61
1, 22691, Note_on_c, 0, 55, 52
1, 22709, Note_off_c, 0, 70, 57
1, 22786, Note_off_c, 0, 55, 61
1, 22788, Note_on_c, 0, 57, 65
1, 22793, Note_on_c, 0, 72, 63
1, 22834, Note_off_c, 0, 76, 43
1, 22886, Note_off_c, 0, 57, 62
1, 22909, Note_on_c, 0, 58, 68
1, 22912, Note_on_c, 0, 76, 64
1, 22950, Note_off_c, 0, 72, 56
1, 23001, Note_off_c, 0, 58, 63
1, 23032, Note_on_c, 0, 70, 74
1, 23037, Note_on_c, 0, 60, 66
1, 23141, Note_on_c, 0, 61, 64
1, 23143, Note_off_c, 0, 60, 63
1, 23146, Note_on_c, 0, 79, 70
1, 23150, Note_off_c, 0, 70, 62
1, 23193, Note_off_c, 0, 76, 37
1, 23247, Note_off_c, 0, 61, 61
1, 23249, Note_on_c, 0, 62, 65
1, 23263, Note_on_c, 0, 72, 70
1, 23264, Note_off_c, 0, 79, 45
1, 23323, Note_off_c, 0, 62, 62
1, 23373, Note_on_c, 0, 79, 70
1, 23376, Note_on_c, 0, 64, 66
1, 23450, Note_off_c, 0, 64, 64
1, 23493, Note_off_c, 0, 79, 63
1, 23493, Note_on_c, 0, 65, 68
1, 23495, Note_on_c, 0, 69, 62
1, 23503, Note_off_c, 0, 72, 28
1, 23523, Note_off_c, 0, 69, 67
1, 23525, Note_off_c, 0, 65, 61
1, 23606, Note_on_c, 0, 53, 72
1, 23632, Note_off_c, 0, 53, 68
1, 23726, Note_on_c, 0, 65, 69
1, 23738, Note_on_c, 0, 72, 68
1, 23764, Note_on_c, 0, 69, 54
1, 23813, Note_off_c, 0, 65, 58
1, 23844, Note_on_c, 0, 64, 70
1, 23908, Note_off_c, 0, 64, 65
1, 23961, Note_on_c, 0, 62, 68
1, 23966, Note_off_c, 0, 69, 53
1, 23983, Note_off_c, 0, 72, 64
1, 23994, Note_off_c, 0, 62, 63
1, 24083, Note_on_c, 0, 50, 63
1, 24112, Note_off_c, 0, 50, 64
1, 24204, Note_on_c, 0, 77, 57
1, 24210, Note_on_c, 0, 62, 53
1, 24215, Note_on_c, 0, 69, 54
1, 24266, Note_off_c, 0, 62, 53
1, 24309, Note_on_c, 0, 60, 63
1, 24363, Note_off_c, 0, 60, 63
1, 24393, Note_off_c, 0, 69, 57
1, 24438, Note_on_c, 0, 58, 59
1, 24446, Note_off_c, 0, 77, 63
1, 24477, Note_off_c, 0, 58, 64
1, 24539, Note_on_c, 0, 46, 70
1, 24569, Note_off_c, 0, 46, 65
1, 24660, Note_on_c, 0, 77, 63
1, 24674, Note_on_c, 0, 58, 54
1, 24683, Note_on_c, 0, 74, 59
1, 24764, Note_off_c, 0, 58, 47
1, 24773, Note_on_c, 0, 57, 60
1, 24818, Note_off_c, 0, 57, 62
1, 24882, Note_off_c, 0, 74, 62
1, 24890, Note_off_c, 0, 77, 64
1, 24893, Note_on_c, 0, 55, 42
1, 24951, Note_off_c, 0, 55, 61
1, 24997, Note_on_c, 0, 43, 58
1, 25022, Note_off_c, 0, 43, 61
1, 25120, Note_on_c, 0, 82, 66
1, 25138, Note_on_c, 0, 74, 54
1, 25142, Note_on_c, 0, 55, 50
1, 25252, Note_off_c, 0, 55, 59
1, 25279, Note_on_c, 0, 53, 47
1, 25382, Note_on_c, 0, 73, 57
1, 25414, Note_off_c, 0, 74, 55
1, 25923, Note_on_c, 0, 52, 37
1, 25929, Note_on_c, 0, 72, 42
1, 25993, Note_off_c, 0, 73, 60
1, 25999, Note_off_c, 0, 53, 42
1, 26211, Note_off_c, 0, 82, 61
1, 26238, Note_off_c, 0, 52, 64
1, 26242, Note_off_c, 0, 72, 62
1, 26267, Control_c, 0, 67, 91
1, 26282, Control_c, 0, 67, 0
1, 26465, Note_on_c, 0, 76, 64
1, 26491, Note_on_c, 0, 70, 53
1, 26794, Control_c, 0, 67, 41
1, 26808, Control_c, 0, 67, 45
1, 26818, Note_on_c, 0, 69, 20
1, 26823, Control_c, 0, 67, 52
1, 26838, Control_c, 0, 67, 59
1, 26853, Control_c, 0, 67, 67
1, 26868, Control_c, 0, 67, 73
1, 26882, Note_on_c, 0, 67, 53
1, 26882, Control_c, 0, 67, 79
1, 26887, Note_off_c, 0, 69, 58
1, 26897, Control_c, 0, 67, 85
1, 26912, Control_c, 0, 67, 90
1, 26927, Control_c, 0, 67, 95
1, 26942, Control_c, 0, 67, 99
1, 26957, Control_c, 0, 67, 104
1, 26972, Control_c, 0, 67, 106
1, 26984, Note_off_c, 0, 67, 58
1, 27000, Note_on_c, 0, 65, 54
1, 27087, Note_off_c, 0, 65, 63
1, 27090, Control_c, 0, 67, 108
1, 27106, Note_on_c, 0, 64, 66
1, 27164, Control_c, 0, 67, 106
1, 27179, Control_c, 0, 67, 104
1, 27194, Control_c, 0, 67, 101
1, 27208, Control_c, 0, 67, 98
1, 27210, Note_off_c, 0, 64, 62
1, 27218, Note_on_c, 0, 62, 66
1, 27223, Control_c, 0, 67, 95
1, 27238, Control_c, 0, 67, 92
1, 27252, Control_c, 0, 67, 87
1, 27267, Control_c, 0, 67, 82
1, 27282, Control_c, 0, 67, 76
1, 27295, Note_off_c, 0, 62, 58
1, 27297, Control_c, 0, 67, 70
1, 27312, Control_c, 0, 67, 60
1, 27323, Note_on_c, 0, 60, 67
1, 27327, Control_c, 0, 67, 41
1, 27342, Control_c, 0, 67, 0
1, 27353, Note_off_c, 0, 60, 66
1, 27386, Note_off_c, 0, 76, 37
1, 27422, Note_off_c, 0, 70, 61
1, 27438, Note_on_c, 0, 77, 66
1, 27446, Control_c, 0, 64, 37
1, 27458, Note_on_c, 0, 69, 43
1, 27460, Note_on_c, 0, 60, 55
1, 27460, Control_c, 0, 64, 50
1, 27475, Control_c, 0, 64, 58
1, 27491, Control_c, 0, 64, 61
1, 27497, Note_off_c, 0, 69, 62
1, 27513, Control_c, 0, 64, 62
1, 27527, Note_off_c, 0, 77, 63
1, 27528, Control_c, 0, 64, 64
1, 27543, Control_c, 0, 64, 65
1, 27559, Control_c, 0, 64, 65
1, 27647, Control_c, 0, 67, 48
1, 27662, Control_c, 0, 64, 65
1, 27662, Control_c, 0, 67, 64
1, 27677, Control_c, 0, 64, 64
1, 27677, Control_c, 0, 67, 81
1, 27692, Control_c, 0, 64, 62
1, 27692, Control_c, 0, 67, 97
1, 27704, Note_on_c, 0, 70, 75
1, 27706, Control_c, 0, 64, 59
1, 27706, Control_c, 0, 67, 111
1, 27721, Control_c, 0, 64, 52
1, 27721, Control_c, 0, 67, 123
1, 27726, Note_on_c, 0, 81, 60
1, 27736, Control_c, 0, 64, 44
1, 27736, Control_c, 0, 67, 127
1, 27751, Control_c, 0, 64, 34
1, 27765, Control_c, 0, 64, 0
1, 27821, Note_on_c, 0, 79, 67
1, 27828, Note_off_c, 0, 81, 64
1, 27839, Control_c, 0, 64, 30
1, 27854, Control_c, 0, 64, 37
1, 27869, Control_c, 0, 64, 44
1, 27884, Control_c, 0, 64, 51
1, 27899, Control_c, 0, 64, 54
1, 27914, Control_c, 0, 64, 56
1, 27929, Control_c, 0, 64, 58
1, 27944, Note_off_c, 0, 79, 61
1, 27944, Control_c, 0, 64, 60
1, 27946, Note_on_c, 0, 77, 66
1, 27958, Control_c, 0, 64, 60
1, 27973, Control_c, 0, 64, 61
1, 27997, Note_off_c, 0, 77, 61
1, 28065, Note_on_c, 0, 76, 63
1, 28106, Control_c, 0, 64, 60
1, 28108, Note_off_c, 0, 70, 62
1, 28136, Control_c, 0, 64, 60
1, 28165, Control_c, 0, 64, 59
1, 28176, Note_on_c, 0, 74, 65
1, 28192, Note_on_c, 0, 62, 51
1, 28195, Control_c, 0, 64, 59
1, 28199, Note_off_c, 0, 76, 51
1, 28210, Control_c, 0, 64, 58
1, 28239, Control_c, 0, 64, 58
1, 28260, Note_off_c, 0, 60, 36
1, 28262, Control_c, 0, 64, 57
1, 28277, Control_c, 0, 64, 57
1, 28289, Note_on_c, 0, 72, 68
1, 28292, Note_off_c, 0, 74, 59
1, 28292, Control_c, 0, 64, 56
1, 28295, Note_off_c, 0, 62, 63
1, 28307, Control_c, 0, 64, 55
1, 28312, Note_on_c, 0, 64, 53
1, 28322, Control_c, 0, 64, 54
1, 28328, Note_off_c, 0, 72, 58
1, 28337, Control_c, 0, 64, 52
1, 28352, Control_c, 0, 64, 49
1, 28367, Control_c, 0, 64, 46
1, 28372, Note_off_c, 0, 64, 62
1, 28382, Control_c, 0, 64, 42
1, 28396, Control_c, 0, 64, 37
1, 28411, Control_c, 0, 64, 0
1, 28420, Note_on_c, 0, 65, 56
1, 28421, Note_on_c, 0, 69, 51
1, 28421, Note_on_c, 0, 72, 62
1, 28462, Note_off_c, 0, 69, 60
1, 28500, Control_c, 0, 67, 119
1, 28507, Note_off_c, 0, 65, 56
1, 28514, Control_c, 0, 67, 110
1, 28523, Note_on_c, 0, 66, 63
1, 28529, Control_c, 0, 67, 105
1, 28574, Control_c, 0, 67, 107
1, 28603, Control_c, 0, 67, 111
1, 28618, Control_c, 0, 67, 113
1, 28638, Note_off_c, 0, 66, 58
1, 28639, Note_on_c, 0, 70, 71
1, 28648, Control_c, 0, 67, 117
1, 28662, Control_c, 0, 67, 119
1, 28668, Note_on_c, 0, 69, 58
1, 28692, Control_c, 0, 67, 122
1, 28707, Control_c, 0, 67, 124
1, 28737, Control_c, 0, 67, 127
1, 28755, Note_off_c, 0, 69, 59
1, 28774, Note_on_c, 0, 67, 53
1, 28860, Note_off_c, 0, 67, 60
1, 28886, Note_on_c, 0, 65, 55
1, 28954, Note_off_c, 0, 65, 61
1, 28992, Note_on_c, 0, 64, 61
1, 29094, Note_off_c, 0, 64, 59
1, 29128, Note_on_c, 0, 62, 57
1, 29130, Note_on_c, 0, 74, 65
1, 29157, Note_off_c, 0, 70, 60
1, 29175, Control_c, 0, 64, 34
1, 29189, Note_off_c, 0, 72, 57
1, 29190, Control_c, 0, 64, 48
1, 29203, Note_off_c, 0, 62, 58
1, 29205, Control_c, 0, 64, 59
1, 29219, Control_c, 0, 64, 61
1, 29227, Note_off_c, 0, 74, 63
1, 29233, Note_on_c, 0, 60, 59
1, 29233, Note_on_c, 0, 76, 65
1, 29234, Control_c, 0, 64, 62
1, 29249, Control_c, 0, 64, 63
1, 29249, Control_c, 0, 67, 110
1, 29253, Note_off_c, 0, 60, 63
1, 29262, Note_off_c, 0, 76, 68
1, 29264, Control_c, 0, 64, 64
1, 29264, Control_c, 0, 67, 74
1, 29279, Control_c, 0, 64, 65
1, 29279, Control_c, 0, 67, 0
1, 29337, Control_c, 0, 64, 64
1, 29343, Note_on_c, 0, 60, 57
1, 29345, Note_on_c, 0, 77, 77
1, 29351, Note_on_c, 0, 69, 64
1, 29352, Control_c, 0, 64, 58
1, 29367, Control_c, 0, 64, 43
1, 29382, Control_c, 0, 64, 0
1, 29401, Note_off_c, 0, 69, 59
1, 29454, Note_on_c, 0, 78, 80
1, 29455, Note_off_c, 0, 77, 62
1, 29584, Note_on_c, 0, 81, 87
1, 29585, Note_on_c, 0, 70, 75
1, 29592, Note_off_c, 0, 78, 56
1, 29649, Control_c, 0, 64, 30
1, 29663, Control_c, 0, 64, 45
1, 29678, Control_c, 0, 64, 55
1, 29693, Control_c, 0, 64, 60
1, 29696, Note_on_c, 0, 79, 75
1, 29708, Control_c, 0, 64, 62
1, 29710, Note_off_c, 0, 81, 63
1, 29723, Control_c, 0, 64, 64
1, 29737, Control_c, 0, 64, 66
1, 29759, Control_c, 0, 64, 68
1, 29774, Control_c, 0, 64, 71
1, 29789, Control_c, 0, 64, 73
1, 29803, Control_c, 0, 64, 74
1, 29815, Note_on_c, 0, 77, 79
1, 29818, Control_c, 0, 64, 76
1, 29833, Control_c, 0, 64, 79
1, 29835, Note_off_c, 0, 79, 60
1, 29848, Control_c, 0, 64, 82
1, 29862, Control_c, 0, 64, 86
1, 29873, Note_off_c, 0, 77, 62
1, 29878, Control_c, 0, 64, 88
1, 29893, Control_c, 0, 64, 91
1, 29908, Control_c, 0, 64, 92
1, 29923, Control_c, 0, 64, 94
1, 29931, Note_on_c, 0, 76, 80
1, 29938, Control_c, 0, 64, 95
1, 29946, Note_off_c, 0, 70, 63
1, 29967, Control_c, 0, 64, 98
1, 29997, Control_c, 0, 64, 100
1, 30024, Note_on_c, 0, 62, 69
1, 30036, Note_on_c, 0, 74, 81
1, 30052, Note_off_c, 0, 60, 59
1, 30064, Note_off_c, 0, 76, 61
1, 30132, Note_off_c, 0, 62, 63
1, 30139, Note_on_c, 0, 72, 82
1, 30147, Note_on_c, 0, 64, 72
1, 30154, Note_off_c, 0, 74, 61
1, 30182, Note_off_c, 0, 72, 60
1, 30204, Control_c, 0, 64, 89
1, 30205, Note_off_c, 0, 64, 65
1, 30219, Control_c, 0, 64, 75
1, 30233, Control_c, 0, 64, 61
1, 30248, Control_c, 0, 64, 40
1, 30252, Note_on_c, 0, 65, 64
1, 30262, Note_on_c, 0, 69, 76
1, 30263, Control_c, 0, 64, 0
1, 30264, Note_on_c, 0, 72, 77
1, 30308, Control_c, 0, 64, 34
1, 30322, Control_c, 0, 64, 49
1, 30337, Control_c, 0, 64, 61
1, 30352, Control_c, 0, 64, 67
1, 30367, Control_c, 0, 64, 71
1, 30379, Note_on_c, 0, 77, 83
1, 30382, Control_c, 0, 64, 73
1, 30396, Note_off_c, 0, 65, 63
1, 30397, Note_off_c, 0, 72, 63
1, 30399, Note_off_c, 0, 69, 61
1, 30411, Note_off_c, 0, 77, 60
1, 30426, Control_c, 0, 64, 72
1, 30441, Control_c, 0, 64, 65
1, 30456, Control_c, 0, 64, 50
1, 30471, Control_c, 0, 64, 0
1, 30492, Note_on_c, 0, 69, 92
1, 30567, Control_c, 0, 64, 30
1, 30582, Control_c, 0, 64, 46
1, 30597, Control_c, 0, 64, 52
1, 30605, Note_on_c, 0, 72, 82
1, 30612, Control_c, 0, 64, 52
1, 30626, Control_c, 0, 64, 51
1, 30629, Note_off_c, 0, 69, 63
1, 30641, Control_c, 0, 64, 45
1, 30656, Control_c, 0, 64, 0
1, 30656, Note_off_c, 0, 72, 62
1, 30721, Note_on_c, 0, 65, 86
1, 30746, Control_c, 0, 64, 43
1, 30761, Control_c, 0, 64, 59
1, 30775, Control_c, 0, 64, 65
1, 30790, Control_c, 0, 64, 67
1, 30805, Control_c, 0, 64, 68
1, 30829, Note_on_c, 0, 69, 83
1, 30860, Note_off_c, 0, 65, 63
1, 30869, Note_off_c, 0, 69, 64
1, 30879, Control_c, 0, 64, 66
1, 30894, Control_c, 0, 64, 60
1, 30908, Control_c, 0, 64, 48
1, 30923, Control_c, 0, 64, 32
1, 30938, Control_c, 0, 64, 0
1, 30953, Note_on_c, 0, 60, 86
1, 30953, Control_c, 0, 64, 30
1, 30968, Control_c, 0, 64, 42
1, 30982, Control_c, 0, 64, 59
1, 30997, Control_c, 0, 64, 67
1, 31012, Control_c, 0, 64, 71
1, 31027, Control_c, 0, 64, 72
1, 31038, Note_off_c, 0, 60, 50
1, 31056, Control_c, 0, 64, 71
1, 31062, Note_on_c, 0, 64, 85
1, 31071, Control_c, 0, 64, 67
1, 31086, Control_c, 0, 64, 57
1, 31100, Control_c, 0, 64, 34
1, 31103, Note_off_c, 0, 64, 62
1, 31115, Control_c, 0, 64, 0
1, 31170, Note_on_c, 0, 65, 83
1, 31172, Note_on_c, 0, 53, 78
1, 31220, Control_c, 0, 64, 47
1, 31235, Control_c, 0, 64, 61
1, 31256, Control_c, 0, 64, 66
1, 31271, Control_c, 0, 64, 67
1, 31286, Control_c, 0, 64, 68
1, 31290, Note_on_c, 0, 57, 70
1, 31303, Note_off_c, 0, 53, 61
1, 31336, Note_off_c, 0, 57, 62
1, 31346, Control_c, 0, 64, 67
1, 31361, Control_c, 0, 64, 63
1, 31376, Control_c, 0, 64, 52
1, 31390, Control_c, 0, 64, 0
1, 31402, Note_off_c, 0, 65, 60
1, 31404, Note_on_c, 0, 50, 80
1, 31495, Control_c, 0, 64, 52
1, 31508, Note_off_c, 0, 50, 63
1, 31510, Control_c, 0, 64, 64
1, 31524, Control_c, 0, 64, 66
1, 31539, Note_on_c, 0, 53, 57
1, 31545, Note_on_c, 0, 52, 60
1, 31554, Control_c, 0, 64, 64
1, 31569, Control_c, 0, 64, 57
1, 31584, Control_c, 0, 64, 30
1, 31598, Control_c, 0, 64, 0
1, 31599, Note_off_c, 0, 52, 47
1, 31608, Note_off_c, 0, 53, 47
1, 31638, Note_on_c, 0, 49, 76
1, 31688, Control_c, 0, 64, 31
1, 31703, Control_c, 0, 64, 53
1, 31717, Control_c, 0, 64, 63
1, 31732, Control_c, 0, 64, 63
1, 31747, Control_c, 0, 64, 62
1, 31759, Note_off_c, 0, 49, 63
1, 31762, Control_c, 0, 64, 58
1, 31774, Note_on_c, 0, 52, 58
1, 31777, Control_c, 0, 64, 46
1, 31792, Control_c, 0, 64, 0
1, 31832, Note_off_c, 0, 52, 56
1, 31865, Control_c, 0, 64, 30
1, 31867, Note_on_c, 0, 81, 85
1, 31871, Note_on_c, 0, 45, 67
1, 31880, Control_c, 0, 64, 52
1, 31895, Control_c, 0, 64, 65
1, 31910, Control_c, 0, 64, 72
1, 31923, Note_off_c, 0, 81, 65
1, 31924, Control_c, 0, 64, 75
1, 31939, Control_c, 0, 64, 76
1, 31954, Control_c, 0, 64, 78
1, 31969, Control_c, 0, 64, 80
1, 31983, Note_on_c, 0, 49, 66
1, 31984, Control_c, 0, 64, 82
1, 32006, Control_c, 0, 64, 83
1, 32013, Note_off_c, 0, 45, 59
1, 32051, Control_c, 0, 64, 83
1, 32080, Control_c, 0, 64, 83
1, 32093, Note_off_c, 0, 49, 58
1, 32110, Control_c, 0, 64, 82
1, 32115, Note_on_c, 0, 50, 61
1, 32123, Note_on_c, 0, 79, 81
1, 32125, Control_c, 0, 64, 80
1, 32139, Control_c, 0, 64, 76
1, 32154, Control_c, 0, 64, 70
1, 32169, Control_c, 0, 64, 63
1, 32184, Control_c, 0, 64, 52
1, 32199, Control_c, 0, 64, 39
1, 32213, Control_c, 0, 64, 0
1, 32237, Note_on_c, 0, 77, 82
1, 32354, Note_on_c, 0, 76, 82
1, 32356, Note_off_c, 0, 50, 59
1, 32378, Note_off_c, 0, 79, 59
1, 32451, Note_off_c, 0, 77, 59
1, 32462, Note_on_c, 0, 74, 82
1, 32488, Note_off_c, 0, 76, 64
1, 32573, Note_on_c, 0, 77, 86
1, 32604, Note_off_c, 0, 74, 62
1, 32684, Note_on_c, 0, 76, 84
1, 32733, Note_off_c, 0, 77, 63
1, 32810, Note_on_c, 0, 79, 78
1, 32814, Note_on_c, 0, 69, 91
1, 32822, Note_off_c, 0, 76, 60
1, 32860, Note_off_c, 0, 69, 66
1, 32922, Note_on_c, 0, 73, 82
1, 33041, Note_on_c, 0, 74, 87
1, 33049, Note_on_c, 0, 67, 84
1, 33056, Note_off_c, 0, 79, 65
1, 33061, Note_off_c, 0, 73, 62
1, 33071, Note_off_c, 0, 74, 66
1, 33161, Note_on_c, 0, 65, 79
1, 33167, Note_off_c, 0, 67, 62
1, 33271, Note_on_c, 0, 64, 78
1, 33273, Note_on_c, 0, 69, 84
1, 33288, Note_off_c, 0, 65, 59
1, 33305, Note_off_c, 0, 69, 65
1, 33387, Note_on_c, 0, 62, 74
1, 33395, Note_off_c, 0, 64, 60
1, 33483, Note_off_c, 0, 62, 62
1, 33519, Note_on_c, 0, 79, 77
1, 33521, Note_on_c, 0, 64, 52
1, 33610, Note_off_c, 0, 64, 65
1, 33617, Note_on_c, 0, 62, 65
1, 33650, Control_c, 0, 67, 44
1, 33665, Control_c, 0, 67, 54
1, 33680, Control_c, 0, 67, 62
1, 33694, Control_c, 0, 67, 70
1, 33700, Note_off_c, 0, 62, 61
1, 33709, Control_c, 0, 67, 80
1, 33724, Control_c, 0, 67, 92
1, 33736, Note_on_c, 0, 65, 55
1, 33739, Control_c, 0, 67, 103
1, 33754, Control_c, 0, 67, 114
1, 33769, Control_c, 0, 67, 122
1, 33783, Control_c, 0, 67, 127
1, 33816, Note_off_c, 0, 65, 54
1, 33847, Note_on_c, 0, 59, 48
1, 33910, Note_off_c, 0, 59, 55
1, 33962, Note_on_c, 0, 60, 60
1, 33963, Note_on_c, 0, 77, 59
1, 33990, Note_off_c, 0, 60, 64
1, 34060, Note_off_c, 0, 79, 37
1, 34077, Note_off_c, 0, 77, 57
1, 34081, Note_on_c, 0, 76, 60
1, 34186, Note_on_c, 0, 55, 58
1, 34207, Note_on_c, 0, 74, 64
1, 34209, Note_off_c, 0, 55, 59
1, 34221, Note_off_c, 0, 76, 59
1, 34284, Note_off_c, 0, 74, 59
1, 34323, Note_on_c, 0, 72, 57
1, 34450, Note_off_c, 0, 72, 53
1, 34453, Note_on_c, 0, 67, 66
1, 34454, Note_on_c, 0, 76, 50
1, 34569, Note_on_c, 0, 74, 62
1, 34581, Note_off_c, 0, 76, 57
1, 34661, Note_off_c, 0, 74, 55
1, 34677, Note_on_c, 0, 77, 65
1, 34787, Note_on_c, 0, 71, 58
1, 34898, Note_off_c, 0, 67, 56
1, 34905, Note_on_c, 0, 72, 69
1, 34908, Note_off_c, 0, 71, 53
1, 34915, Note_on_c, 0, 65, 54
1, 34916, Note_off_c, 0, 77, 63
1, 34928, Note_off_c, 0, 72, 68
1, 35008, Note_off_c, 0, 65, 60
1, 35028, Note_on_c, 0, 63, 63
1, 35144, Note_off_c, 0, 63, 59
1, 35147, Note_on_c, 0, 67, 60
1, 35150, Note_on_c, 0, 62, 60
1, 35168, Note_off_c, 0, 67, 63
1, 35232, Note_off_c, 0, 62, 52
1, 35263, Note_on_c, 0, 60, 60
1, 35335, Note_off_c, 0, 60, 58
1, 35378, Note_on_c, 0, 63, 55
1, 35389, Note_on_c, 0, 79, 61
1, 35494, Note_off_c, 0, 63, 59
1, 35505, Note_on_c, 0, 62, 57
1, 35567, Note_off_c, 0, 62, 62
1, 35613, Note_on_c, 0, 65, 56
1, 35707, Note_off_c, 0, 65, 54
1, 35724, Note_on_c, 0, 59, 57
1, 35827, Note_off_c, 0, 59, 64
1, 35848, Note_on_c, 0, 77, 57
1, 35861, Note_on_c, 0, 60, 54
1, 35970, Note_on_c, 0, 75, 56
1, 35984, Note_off_c, 0, 77, 55
1, 35986, Control_c, 0, 64, 32
1, 35987, Note_off_c, 0, 79, 35
1, 36001, Control_c, 0, 64, 40
1, 36016, Control_c, 0, 64, 48
1, 36031, Control_c, 0, 64, 54
1, 36046, Control_c, 0, 64, 58
1, 36061, Control_c, 0, 64, 60
1, 36076, Control_c, 0, 64, 62
1, 36084, Note_on_c, 0, 63, 49
1, 36090, Note_on_c, 0, 74, 60
1, 36090, Control_c, 0, 64, 64
1, 36092, Note_on_c, 0, 67, 52
1, 36105, Control_c, 0, 64, 65
1, 36120, Control_c, 0, 64, 66
1, 36123, Note_off_c, 0, 75, 54
1, 36135, Control_c, 0, 64, 67
1, 36150, Control_c, 0, 64, 68
1, 36165, Control_c, 0, 64, 70
1, 36165, Control_c, 0, 67, 114
1, 36179, Control_c, 0, 64, 72
1, 36179, Control_c, 0, 67, 99
1, 36192, Note_off_c, 0, 74, 61
1, 36194, Control_c, 0, 64, 73
1, 36194, Control_c, 0, 67, 83
1, 36202, Note_on_c, 0, 72, 69
1, 36209, Control_c, 0, 64, 74
1, 36209, Control_c, 0, 67, 67
1, 36214, Note_off_c, 0, 67, 48
1, 36223, Control_c, 0, 64, 75
1, 36223, Control_c, 0, 67, 53
1, 36238, Control_c, 0, 67, 39
1, 36253, Control_c, 0, 67, 0
1, 36313, Control_c, 0, 64, 74
1, 36316, Note_on_c, 0, 58, 77
1, 36323, Note_on_c, 0, 77, 73
1, 36328, Control_c, 0, 64, 72
1, 36343, Control_c, 0, 64, 67
1, 36348, Note_off_c, 0, 72, 52
1, 36358, Control_c, 0, 64, 58
1, 36373, Control_c, 0, 64, 39
1, 36375, Note_off_c, 0, 63, 37
1, 36387, Control_c, 0, 64, 0
1, 36400, Note_off_c, 0, 60, 62
1, 36428, Note_on_c, 0, 75, 71
1, 36461, Control_c, 0, 64, 38
1, 36476, Control_c, 0, 64, 49
1, 36497, Note_off_c, 0, 77, 51
1, 36499, Control_c, 0, 64, 58
1, 36514, Control_c, 0, 64, 62
1, 36528, Control_c, 0, 64, 63
1, 36542, Control_c, 0, 64, 64
1, 36557, Control_c, 0, 64, 65
1, 36565, Note_on_c, 0, 74, 72
1, 36572, Control_c, 0, 64, 66
1, 36573, Note_on_c, 0, 60, 53
1, 36587, Control_c, 0, 64, 68
1, 36596, Note_on_c, 0, 63, 49
1, 36601, Control_c, 0, 64, 69
1, 36607, Note_off_c, 0, 75, 60
1, 36616, Control_c, 0, 64, 70
1, 36652, Note_off_c, 0, 63, 51
1, 36657, Note_off_c, 0, 74, 62
1, 36681, Note_on_c, 0, 72, 64
1, 36749, Control_c, 0, 64, 69
1, 36749, Control_c, 0, 67, 43
1, 36764, Control_c, 0, 64, 67
1, 36764, Control_c, 0, 67, 59
1, 36779, Control_c, 0, 64, 64
1, 36779, Control_c, 0, 67, 76
1, 36794, Control_c, 0, 64, 57
1, 36794, Control_c, 0, 67, 94
1, 36804, Note_off_c, 0, 72, 52
1, 36807, Note_on_c, 0, 77, 60
1, 36809, Control_c, 0, 64, 42
1, 36809, Control_c, 0, 67, 116
1, 36809, Note_on_c, 0, 56, 61
1, 36824, Control_c, 0, 64, 0
1, 36824, Control_c, 0, 67, 127
1, 36834, Note_off_c, 0, 58, 51
1, 36863, Note_off_c, 0, 60, 41
1, 36918, Note_on_c, 0, 75, 61
1, 36925, Note_off_c, 0, 77, 58
1, 36957, Control_c, 0, 64, 34
1, 36972, Control_c, 0, 64, 41
1, 36987, Control_c, 0, 64, 49
1, 37001, Control_c, 0, 64, 57
1, 37016, Control_c, 0, 64, 61
1, 37031, Control_c, 0, 64, 63
1, 37034, Note_on_c, 0, 60, 39
1, 37039, Note_on_c, 0, 63, 47
1, 37040, Note_on_c, 0, 74, 60
1, 37043, Note_off_c, 0, 75, 56
1, 37045, Control_c, 0, 64, 63
1, 37060, Control_c, 0, 64, 64
1, 37076, Control_c, 0, 64, 65
1, 37091, Control_c, 0, 64, 66
1, 37106, Control_c, 0, 64, 67
1, 37119, Note_off_c, 0, 74, 62
1, 37121, Control_c, 0, 64, 67
1, 37126, Note_off_c, 0, 56, 60
1, 37135, Control_c, 0, 64, 68
1, 37154, Note_on_c, 0, 72, 57
1, 37165, Control_c, 0, 64, 68
1, 37224, Control_c, 0, 64, 68
1, 37227, Note_off_c, 0, 63, 31
1, 37262, Control_c, 0, 64, 67
1, 37276, Control_c, 0, 64, 65
1, 37292, Control_c, 0, 64, 61
1, 37294, Note_off_c, 0, 72, 38
1, 37296, Note_off_c, 0, 60, 34
1, 37298, Note_on_c, 0, 77, 45
1, 37301, Note_on_c, 0, 55, 42
1, 37307, Control_c, 0, 64, 52
1, 37322, Control_c, 0, 64, 33
1, 37336, Control_c, 0, 64, 0
1, 37403, Note_off_c, 0, 77, 59
1, 37408, Note_on_c, 0, 75, 53
1, 37440, Control_c, 0, 64, 36
1, 37455, Control_c, 0, 64, 43
1, 37469, Control_c, 0, 64, 49
1, 37484, Control_c, 0, 64, 55
1, 37499, Control_c, 0, 64, 59
1, 37514, Control_c, 0, 64, 61
1, 37516, Note_on_c, 0, 63, 39
1, 37518, Note_off_c, 0, 75, 61
1, 37529, Control_c, 0, 64, 63
1, 37542, Note_on_c, 0, 60, 27
1, 37543, Control_c, 0, 64, 63
1, 37546, Note_on_c, 0, 74, 45
1, 37558, Control_c, 0, 64, 64
1, 37573, Control_c, 0, 64, 65
1, 37588, Control_c, 0, 64, 66
1, 37603, Control_c, 0, 64, 67
1, 37608, Note_off_c, 0, 55, 59
1, 37611, Note_off_c, 0, 74, 61
1, 37614, Note_off_c, 0, 63, 45
1, 37617, Control_c, 0, 64, 68
1, 37632, Control_c, 0, 64, 69
1, 37647, Control_c, 0, 64, 70
1, 37662, Control_c, 0, 64, 70
1, 37671, Note_on_c, 0, 72, 45
1, 37673, Note_off_c, 0, 60, 35
1, 37676, Control_c, 0, 64, 71
1, 37706, Control_c, 0, 64, 72
1, 37870, Control_c, 0, 64, 71
1, 37885, Control_c, 0, 64, 71
1, 37900, Control_c, 0, 64, 69
1, 37902, Note_on_c, 0, 84, 47
1, 37915, Control_c, 0, 64, 67
1, 37927, Note_on_c, 0, 63, 27
1, 37930, Control_c, 0, 64, 62
1, 37930, Note_on_c, 0, 60, 26
1, 37936, Note_on_c, 0, 54, 22
1, 37945, Control_c, 0, 64, 54
1, 37959, Control_c, 0, 64, 43
1, 37974, Control_c, 0, 64, 31
1, 37984, Note_off_c, 0, 72, 29
1, 37996, Control_c, 0, 64, 0
1, 38070, Control_c, 0, 64, 29
1, 38085, Control_c, 0, 64, 37
1, 38100, Control_c, 0, 64, 44
1, 38115, Control_c, 0, 64, 51
1, 38129, Control_c, 0, 64, 57
1, 38144, Control_c, 0, 64, 61
1, 38159, Control_c, 0, 64, 62
1, 38174, Control_c, 0, 64, 63
1, 38189, Control_c, 0, 64, 64
1, 38218, Control_c, 0, 64, 64
1, 38275, Note_off_c, 0, 84, 63
1, 38292, Control_c, 0, 67, 114
1, 38307, Control_c, 0, 67, 89
1, 38315, Note_off_c, 0, 63, 51
1, 38317, Note_off_c, 0, 54, 52
1, 38322, Control_c, 0, 67, 62
1, 38326, Note_off_c, 0, 60, 40
1, 38337, Control_c, 0, 64, 64
1, 38337, Control_c, 0, 67, 0
1, 38352, Control_c, 0, 64, 62
1, 38366, Control_c, 0, 64, 58
1, 38381, Control_c, 0, 64, 52
1, 38396, Control_c, 0, 64, 42
1, 38411, Control_c, 0, 64, 0
1, 38595, Note_on_c, 0, 77, 86
1, 38663, Control_c, 0, 64, 31
1, 38678, Control_c, 0, 64, 46
1, 38693, Control_c, 0, 64, 57
1, 38706, Note_on_c, 0, 75, 82
1, 38708, Control_c, 0, 64, 62
1, 38723, Control_c, 0, 64, 64
1, 38745, Control_c, 0, 64, 67
1, 38760, Control_c, 0, 64, 69
1, 38775, Control_c, 0, 64, 71
1, 38790, Control_c, 0, 64, 73
1, 38804, Control_c, 0, 64, 75
1, 38819, Control_c, 0, 64, 76
1, 38824, Note_on_c, 0, 63, 70
1, 38825, Note_on_c, 0, 55, 67
1, 38830, Note_off_c, 0, 77, 61
1, 38834, Note_on_c, 0, 60, 62
1, 38834, Control_c, 0, 64, 77
1, 38835, Note_on_c, 0, 74, 88
1, 38861, Note_off_c, 0, 63, 59
1, 38865, Note_off_c, 0, 60, 66
1, 38869, Note_off_c, 0, 55, 61
1, 38872, Note_off_c, 0, 75, 64
1, 38893, Control_c, 0, 64, 76
1, 38908, Control_c, 0, 64, 74
1, 38921, Note_off_c, 0, 74, 65
1, 38922, Control_c, 0, 64, 67
1, 38937, Control_c, 0, 64, 54
1, 38952, Control_c, 0, 64, 0
1, 38953, Note_on_c, 0, 72, 82
1, 39096, Note_on_c, 0, 87, 88
1, 39099, Note_on_c, 0, 63, 75
1, 39102, Note_on_c, 0, 60, 69
1, 39106, Note_on_c, 0, 56, 72
1, 39157, Note_off_c, 0, 72, 53
1, 39173, Note_off_c, 0, 87, 66
1, 39178, Note_off_c, 0, 63, 63
1, 39181, Note_off_c, 0, 60, 65
1, 39195, Note_off_c, 0, 56, 63
1, 39612, Note_on_c, 0, 78, 64
1, 39616, Note_on_c, 0, 56, 57
1, 39622, Note_on_c, 0, 44, 52
1, 39625, Note_on_c, 0, 72, 56
1, 39678, Note_off_c, 0, 72, 62
1, 39678, Note_off_c, 0, 78, 61
1, 39696, Note_off_c, 0, 44, 54
1, 39697, Note_off_c, 0, 56, 56
1, 40088, Note_on_c, 0, 79, 57
1, 40112, Note_on_c, 0, 71, 54
1, 40114, Note_on_c, 0, 55, 37
1, 40116, Control_c, 0, 64, 30
1, 40118, Note_on_c, 0, 43, 44
1, 40130, Control_c, 0, 64, 35
1, 40145, Control_c, 0, 64, 42
1, 40160, Control_c, 0, 64, 51
1, 40163, Note_off_c, 0, 71, 59
1, 40165, Note_off_c, 0, 79, 62
1, 40175, Control_c, 0, 64, 58
1, 40189, Control_c, 0, 64, 59
1, 40269, Note_off_c, 0, 55, 61
1, 40273, Control_c, 0, 64, 59
1, 40279, Note_off_c, 0, 43, 56
1, 40286, Control_c, 0, 64, 52
1, 40301, Control_c, 0, 64, 39
1, 40316, Control_c, 0, 64, 0
1, 40633, Note_on_c, 0, 79, 75
1, 41140, Control_c, 0, 67, 42
1, 41155, Control_c, 0, 67, 57
1, 41170, Control_c, 0, 67, 75
1, 41184, Control_c, 0, 67, 96
1, 41199, Control_c, 0, 67, 120
1, 41214, Control_c, 0, 67, 127
1, 41308, Note_off_c, 0, 79, 60
1, 41321, Note_on_c, 0, 81, 53
1, 41415, Note_on_c, 0, 79, 60
1, 41447, Note_off_c, 0, 81, 47
1, 41476, Note_off_c, 0, 79, 62
1, 41484, Note_on_c, 0, 77, 60
1, 41549, Note_off_c, 0, 77, 57
1, 41558, Note_on_c, 0, 79, 58
1, 41621, Note_on_c, 0, 77, 68
1, 41644, Note_off_c, 0, 79, 60
1, 41684, Note_off_c, 0, 77, 65
1, 41689, Note_on_c, 0, 76, 66
1, 41753, Note_off_c, 0, 76, 59
1, 41765, Note_on_c, 0, 77, 67
1, 41832, Note_on_c, 0, 76, 67
1, 41847, Note_off_c, 0, 77, 64
1, 41893, Note_off_c, 0, 76, 64
1, 41901, Note_on_c, 0, 74, 70
1, 41951, Note_off_c, 0, 74, 56
1, 41973, Note_on_c, 0, 76, 51
1, 42037, Note_on_c, 0, 74, 70
1, 42048, Note_off_c, 0, 76, 56
1, 42119, Note_on_c, 0, 72, 72
1, 42128, Note_off_c, 0, 74, 62
1, 42142, Note_on_c, 0, 64, 52
1, 42144, Note_off_c, 0, 72, 66
1, 42243, Note_on_c, 0, 67, 51
1, 42304, Note_off_c, 0, 64, 58
1, 42338, Note_off_c, 0, 67, 59
1, 42360, Note_on_c, 0, 65, 45
1, 42364, Note_on_c, 0, 72, 62
1, 42413, Note_off_c, 0, 72, 63
1, 42416, Note_off_c, 0, 65, 58
1, 42424, Note_on_c, 0, 71, 54
1, 42449, Note_off_c, 0, 71, 62
1, 42466, Note_on_c, 0, 67, 45
1, 42476, Note_on_c, 0, 69, 63
1, 42532, Note_off_c, 0, 67, 53
1, 42534, Note_on_c, 0, 71, 62
1, 42535, Note_off_c, 0, 69, 42
1, 42580, Note_on_c, 0, 64, 47
1, 42587, Note_on_c, 0, 72, 65
1, 42588, Note_off_c, 0, 71, 62
1, 42617, Note_off_c, 0, 72, 65
1, 42628, Note_off_c, 0, 64, 64
1, 42676, Note_on_c, 0, 67, 55
1, 42803, Note_off_c, 0, 67, 53
1, 42830, Note_on_c, 0, 76, 58
1, 42830, Note_on_c, 0, 59, 48
1, 42862, Note_off_c, 0, 76, 67
1, 42883, Note_on_c, 0, 74, 58
1, 42902, Note_off_c, 0, 59, 58
1, 42905, Note_off_c, 0, 74, 62
1, 42929, Note_on_c, 0, 67, 48
1, 42931, Note_on_c, 0, 72, 66
1, 42975, Note_off_c, 0, 72, 47
1, 42979, Note_on_c, 0, 74, 64
1, 42991, Note_off_c, 0, 67, 52
1, 43024, Note_on_c, 0, 76, 71
1, 43032, Note_off_c, 0, 74, 64
1, 43040, Note_on_c, 0, 60, 50
1, 43060, Note_off_c, 0, 76, 60
1, 43150, Note_on_c, 0, 67, 51
1, 43183, Note_off_c, 0, 67, 64
1, 43257, Note_off_c, 0, 60, 58
1, 43282, Note_on_c, 0, 79, 58
1, 43283, Note_on_c, 0, 57, 45
1, 43325, Note_off_c, 0, 79, 65
1, 43349, Note_on_c, 0, 77, 52
1, 43349, Note_off_c, 0, 57, 62
1, 43370, Note_off_c, 0, 77, 59
1, 43392, Note_on_c, 0, 76, 61
1, 43396, Note_on_c, 0, 60, 45
1, 43426, Note_off_c, 0, 76, 57
1, 43443, Note_on_c, 0, 77, 60
1, 43491, Note_off_c, 0, 60, 55
1, 43498, Note_off_c, 0, 77, 63
1, 43501, Note_on_c, 0, 79, 58
1, 43526, Note_on_c, 0, 52, 44
1, 43526, Note_off_c, 0, 79, 69
1, 43605, Note_off_c, 0, 52, 59
1, 43629, Note_on_c, 0, 60, 49
1, 43701, Note_off_c, 0, 60, 53
1, 43745, Note_on_c, 0, 81, 64
1, 43750, Note_on_c, 0, 53, 43
1, 43772, Note_off_c, 0, 81, 66
1, 43877, Note_on_c, 0, 65, 48
1, 43877, Note_off_c, 0, 53, 58
1, 43901, Note_off_c, 0, 65, 58
1, 44021, Note_on_c, 0, 72, 53
1, 44032, Note_on_c, 0, 64, 34
1, 44042, Note_on_c, 0, 55, 31
1, 44231, Note_off_c, 0, 64, 49
1, 44272, Note_on_c, 0, 71, 53
1, 44282, Note_on_c, 0, 62, 42
1, 44296, Note_off_c, 0, 72, 51
1, 44299, Control_c, 0, 67, 113
1, 44314, Control_c, 0, 67, 65
1, 44322, Note_off_c, 0, 71, 61
1, 44329, Control_c, 0, 67, 0
1, 44341, Note_off_c, 0, 55, 57
1, 44347, Note_off_c, 0, 62, 63
1, 44538, Note_on_c, 0, 81, 74
1, 44794, Note_on_c, 0, 57, 60
1, 44795, Note_on_c, 0, 61, 67
1, 44958, Note_off_c, 0, 57, 57
1, 44974, Note_off_c, 0, 61, 61
1, 45049, Note_on_c, 0, 59, 61
1, 45052, Note_on_c, 0, 62, 57
1, 45078, Note_off_c, 0, 59, 66
1, 45087, Note_off_c, 0, 62, 64
1, 45121, Note_off_c, 0, 81, 58
1, 45136, Note_on_c, 0, 82, 60
1, 45218, Note_on_c, 0, 81, 62
1, 45248, Note_off_c, 0, 82, 48
1, 45281, Note_on_c, 0, 61, 59
1, 45287, Note_on_c, 0, 79, 65
1, 45288, Note_on_c, 0, 64, 58
1, 45304, Note_off_c, 0, 81, 61
1, 45313, Note_off_c, 0, 61, 62
1, 45318, Note_off_c, 0, 64, 67
1, 45362, Note_on_c, 0, 81, 66
1, 45367, Note_off_c, 0, 79, 49
1, 45451, Note_on_c, 0, 79, 70
1, 45491, Note_off_c, 0, 81, 63
1, 45531, Note_on_c, 0, 62, 65
1, 45531, Note_on_c, 0, 77, 80
1, 45536, Note_on_c, 0, 65, 60
1, 45541, Note_off_c, 0, 79, 64
1, 45555, Note_off_c, 0, 62, 64
1, 45567, Note_off_c, 0, 65, 64
1, 45606, Note_on_c, 0, 79, 74
1, 45613, Note_off_c, 0, 77, 62
1, 45688, Note_on_c, 0, 77, 74
1, 45724, Note_off_c, 0, 79, 61
1, 45753, Note_on_c, 0, 64, 68
1, 45758, Note_on_c, 0, 67, 63
1, 45767, Note_on_c, 0, 76, 79
1, 45773, Note_off_c, 0, 77, 65
1, 45784, Note_off_c, 0, 64, 65
1, 45786, Note_off_c, 0, 67, 67
1, 45843, Note_on_c, 0, 77, 85
1, 45847, Note_off_c, 0, 76, 63
1, 45903, Note_off_c, 0, 77, 60
1, 45919, Note_on_c, 0, 76, 79
1, 45974, Note_off_c, 0, 76, 63
1, 46002, Note_on_c, 0, 69, 66
1, 46003, Note_on_c, 0, 65, 54
1, 46005, Note_on_c, 0, 74, 85
1, 46017, Control_c, 0, 64, 36
1, 46032, Control_c, 0, 64, 52
1, 46047, Control_c, 0, 64, 60
1, 46050, Note_off_c, 0, 69, 58
1, 46062, Control_c, 0, 64, 63
1, 46072, Note_off_c, 0, 65, 61
1, 46076, Control_c, 0, 64, 64
1, 46091, Control_c, 0, 64, 66
1, 46106, Control_c, 0, 64, 68
1, 46121, Control_c, 0, 64, 70
1, 46126, Note_off_c, 0, 74, 51
1, 46136, Control_c, 0, 64, 72
1, 46150, Control_c, 0, 64, 72
1, 46232, Control_c, 0, 64, 71
1, 46246, Control_c, 0, 64, 68
1, 46261, Control_c, 0, 64, 61
1, 46276, Control_c, 0, 64, 44
1, 46279, Note_on_c, 0, 86, 85
1, 46291, Control_c, 0, 64, 0
1, 46395, Control_c, 0, 64, 45
1, 46410, Control_c, 0, 64, 58
1, 46425, Control_c, 0, 64, 63
1, 46439, Control_c, 0, 64, 65
1, 46454, Control_c, 0, 64, 65
1, 46484, Control_c, 0, 64, 66
1, 46499, Control_c, 0, 64, 68
1, 46513, Control_c, 0, 64, 69
1, 46528, Control_c, 0, 64, 71
1, 46537, Note_on_c, 0, 81, 88
1, 46543, Control_c, 0, 64, 73
1, 46557, Control_c, 0, 64, 77
1, 46572, Control_c, 0, 64, 84
1, 46587, Control_c, 0, 64, 95
1, 46602, Control_c, 0, 64, 127
1, 46643, Note_off_c, 0, 86, 59
1, 46761, Note_off_c, 0, 81, 60
1, 46801, Note_on_c, 0, 84, 75
1, 46804, Note_on_c, 0, 55, 61
1, 46810, Note_on_c, 0, 53, 60
1, 46825, Control_c, 0, 64, 95
1, 46840, Control_c, 0, 64, 77
1, 46855, Control_c, 0, 64, 63
1, 46863, Note_on_c, 0, 83, 80
1, 46866, Note_off_c, 0, 84, 64
1, 46869, Control_c, 0, 64, 36
1, 46884, Control_c, 0, 64, 0
1, 46914, Control_c, 0, 67, 37
1, 46915, Note_off_c, 0, 83, 64
1, 46928, Note_on_c, 0, 81, 73
1, 46929, Control_c, 0, 67, 48
1, 46944, Control_c, 0, 67, 62
1, 46959, Control_c, 0, 67, 83
1, 46979, Note_on_c, 0, 83, 75
1, 46980, Control_c, 0, 67, 103
1, 46991, Note_off_c, 0, 53, 56
1, 46995, Control_c, 0, 67, 122
1, 46999, Note_off_c, 0, 81, 60
1, 47010, Control_c, 0, 64, 35
1, 47010, Control_c, 0, 67, 127
1, 47025, Control_c, 0, 64, 50
1, 47040, Control_c, 0, 64, 62
1, 47043, Note_on_c, 0, 84, 84
1, 47046, Note_on_c, 0, 52, 56
1, 47054, Control_c, 0, 64, 69
1, 47061, Note_off_c, 0, 83, 62
1, 47069, Control_c, 0, 64, 75
1, 47079, Note_off_c, 0, 55, 59
1, 47084, Control_c, 0, 64, 81
1, 47093, Note_off_c, 0, 84, 66
1, 47099, Control_c, 0, 64, 86
1, 47105, Note_off_c, 0, 52, 60
1, 47114, Control_c, 0, 64, 91
1, 47129, Control_c, 0, 64, 94
1, 47144, Control_c, 0, 64, 95
1, 47218, Control_c, 0, 64, 94
1, 47233, Control_c, 0, 64, 93
1, 47248, Control_c, 0, 64, 89
1, 47262, Control_c, 0, 64, 82
1, 47277, Control_c, 0, 64, 73
1, 47292, Control_c, 0, 64, 61
1, 47303, Note_on_c, 0, 54, 44
1, 47303, Note_on_c, 0, 74, 65
1, 47307, Control_c, 0, 64, 35
1, 47309, Note_on_c, 0, 57, 45
1, 47322, Control_c, 0, 64, 0
1, 47363, Note_off_c, 0, 74, 61
1, 47366, Note_on_c, 0, 72, 69
1, 47409, Note_off_c, 0, 72, 63
1, 47434, Note_on_c, 0, 71, 64
1, 47478, Note_off_c, 0, 71, 56
1, 47487, Note_on_c, 0, 72, 51
1, 47528, Note_off_c, 0, 57, 49
1, 47556, Note_off_c, 0, 54, 57
1, 47576, Note_on_c, 0, 76, 59
1, 47576, Note_on_c, 0, 60, 44
1, 47582, Note_on_c, 0, 55, 41
1, 47582, Note_off_c, 0, 72, 53
1, 47834, Note_off_c, 0, 60, 56
1, 47835, Note_on_c, 0, 74, 56
1, 47847, Note_on_c, 0, 59, 49
1, 47944, Note_off_c, 0, 76, 53
1, 48017, Note_off_c, 0, 59, 36
1, 48076, Note_off_c, 0, 55, 52
1, 48109, Note_on_c, 0, 72, 53
1, 48114, Note_on_c, 0, 60, 48
1, 48138, Note_off_c, 0, 74, 61
1, 48174, Control_c, 0, 67, 93
1, 48189, Control_c, 0, 67, 53
1, 48203, Control_c, 0, 67, 0
1, 48351, Note_on_c, 0, 48, 76
1, 48375, Note_off_c, 0, 72, 62
1, 48377, Note_off_c, 0, 60, 41
1, 48378, Note_off_c, 0, 48, 63
1, 48626, Note_on_c, 0, 55, 89
1, 48882, Note_on_c, 0, 67, 85
1, 48914, Note_off_c, 0, 67, 66
1, 49158, Note_on_c, 0, 79, 87
1, 49240, Note_off_c, 0, 55, 59
1, 49247, Note_on_c, 0, 57, 58
1, 49287, Control_c, 0, 64, 30
1, 49302, Control_c, 0, 64, 36
1, 49317, Control_c, 0, 64, 37
1, 49323, Note_off_c, 0, 57, 62
1, 49346, Note_on_c, 0, 55, 54
1, 49346, Control_c, 0, 64, 36
1, 49361, Control_c, 0, 64, 35
1, 49375, Control_c, 0, 64, 32
1, 49390, Control_c, 0, 64, 0
1, 49397, Note_off_c, 0, 55, 58
1, 49414, Note_on_c, 0, 53, 64
1, 49457, Note_off_c, 0, 53, 62
1, 49505, Note_on_c, 0, 55, 69
1, 49561, Note_off_c, 0, 55, 54
1, 49573, Note_on_c, 0, 53, 60
1, 49630, Note_off_c, 0, 53, 58
1, 49652, Note_on_c, 0, 52, 60
1, 49690, Note_off_c, 0, 52, 62
1, 49712, Note_off_c, 0, 79, 62
1, 49716, Note_on_c, 0, 81, 55
1, 49740, Note_on_c, 0, 53, 59
1, 49746, Control_c, 0, 67, 41
1, 49761, Control_c, 0, 67, 49
1, 49775, Control_c, 0, 67, 55
1, 49779, Note_off_c, 0, 53, 59
1, 49790, Control_c, 0, 67, 58
1, 49801, Note_on_c, 0, 52, 60
1, 49808, Note_on_c, 0, 79, 62
1, 49830, Note_off_c, 0, 81, 50
1, 49842, Note_off_c, 0, 52, 59
1, 49865, Control_c, 0, 67, 57
1, 49870, Note_on_c, 0, 77, 75
1, 49880, Control_c, 0, 67, 57
1, 49882, Note_on_c, 0, 50, 57
1, 49892, Note_off_c, 0, 79, 63
1, 49910, Control_c, 0, 67, 56
1, 49914, Note_off_c, 0, 50, 65
1, 49925, Control_c, 0, 67, 55
1, 49945, Note_on_c, 0, 79, 62
1, 49945, Note_off_c, 0, 77, 50
1, 49950, Note_on_c, 0, 52, 63
1, 49976, Control_c, 0, 67, 55
1, 49991, Control_c, 0, 67, 54
1, 50001, Note_off_c, 0, 52, 55
1, 50005, Control_c, 0, 67, 54
1, 50020, Control_c, 0, 67, 53
1, 50021, Note_on_c, 0, 50, 65
1, 50029, Note_on_c, 0, 77, 80
1, 50035, Control_c, 0, 67, 52
1, 50050, Control_c, 0, 67, 50
1, 50065, Note_off_c, 0, 79, 60
1, 50065, Control_c, 0, 67, 49
1, 50080, Control_c, 0, 67, 49
1, 50081, Note_off_c, 0, 50, 58
1, 50095, Control_c, 0, 67, 48
1, 50101, Note_on_c, 0, 48, 78
1, 50103, Note_on_c, 0, 76, 81
1, 50110, Control_c, 0, 67, 47
1, 50125, Control_c, 0, 67, 46
1, 50131, Note_off_c, 0, 77, 63
1, 50136, Note_off_c, 0, 48, 67
1, 50139, Control_c, 0, 67, 45
1, 50154, Control_c, 0, 67, 44
1, 50169, Control_c, 0, 67, 44
1, 50178, Note_on_c, 0, 77, 75
1, 50183, Note_off_c, 0, 76, 60
1, 50184, Control_c, 0, 67, 43
1, 50198, Control_c, 0, 67, 42
1, 50257, Note_on_c, 0, 76, 73
1, 50272, Control_c, 0, 67, 42
1, 50301, Note_off_c, 0, 77, 58
1, 50316, Control_c, 0, 67, 41
1, 50330, Note_on_c, 0, 52, 63
1, 50331, Control_c, 0, 67, 41
1, 50342, Note_on_c, 0, 74, 80
1, 50356, Note_off_c, 0, 76, 59
1, 50361, Control_c, 0, 67, 40
1, 50371, Note_off_c, 0, 52, 65
1, 50375, Note_on_c, 0, 50, 60
1, 50376, Control_c, 0, 67, 39
1, 50398, Note_off_c, 0, 74, 65
1, 50405, Control_c, 0, 67, 39
1, 50419, Note_off_c, 0, 50, 61
1, 50420, Note_on_c, 0, 72, 67
1, 50420, Control_c, 0, 67, 38
1, 50444, Note_on_c, 0, 48, 68
1, 50464, Control_c, 0, 67, 37
1, 50485, Note_on_c, 0, 71, 71
1, 50485, Note_off_c, 0, 48, 64
1, 50492, Note_on_c, 0, 50, 69
1, 50495, Note_off_c, 0, 72, 53
1, 50539, Note_off_c, 0, 50, 64
1, 50554, Note_on_c, 0, 72, 64
1, 50555, Note_off_c, 0, 71, 57
1, 50573, Note_on_c, 0, 52, 73
1, 50584, Control_c, 0, 67, 38
1, 50628, Control_c, 0, 67, 39
1, 50629, Note_off_c, 0, 72, 61
1, 50635, Note_on_c, 0, 74, 76
1, 50673, Control_c, 0, 67, 39
1, 50703, Control_c, 0, 67, 40
1, 50724, Note_on_c, 0, 72, 69
1, 50725, Control_c, 0, 67, 41
1, 50740, Control_c, 0, 67, 41
1, 50748, Note_off_c, 0, 74, 57
1, 50758, Note_off_c, 0, 52, 49
1, 50770, Control_c, 0, 67, 42
1, 50784, Control_c, 0, 67, 43
1, 50799, Control_c, 0, 67, 44
1, 50801, Note_on_c, 0, 70, 76
1, 50803, Note_off_c, 0, 72, 62
1, 50804, Note_on_c, 0, 40, 65
1, 50814, Control_c, 0, 67, 45
1, 50828, Control_c, 0, 67, 47
1, 50843, Control_c, 0, 67, 48
1, 50858, Control_c, 0, 67, 50
1, 50860, Note_off_c, 0, 70, 63
1, 50873, Control_c, 0, 67, 52
1, 50882, Note_on_c, 0, 69, 71
1, 50888, Control_c, 0, 67, 55
1, 50903, Control_c, 0, 67, 56
1, 50917, Control_c, 0, 67, 57
1, 50929, Note_off_c, 0, 69, 51
1, 50947, Control_c, 0, 67, 58
1, 50951, Note_on_c, 0, 68, 69
1, 50991, Note_off_c, 0, 68, 64
1, 51007, Control_c, 0, 67, 57
1, 51021, Control_c, 0, 67, 57
1, 51026, Note_on_c, 0, 69, 71
1, 51043, Note_on_c, 0, 41, 49
1, 51068, Note_off_c, 0, 40, 55
1, 51081, Control_c, 0, 67, 57
1, 51102, Note_off_c, 0, 69, 60
1, 51105, Note_on_c, 0, 74, 64
1, 51125, Control_c, 0, 67, 58
1, 51154, Control_c, 0, 67, 58
1, 51177, Note_off_c, 0, 74, 61
1, 51179, Note_on_c, 0, 73, 72
1, 51228, Control_c, 0, 67, 58
1, 51243, Control_c, 0, 67, 57
1, 51245, Note_off_c, 0, 73, 62
1, 51258, Control_c, 0, 67, 56
1, 51266, Note_on_c, 0, 74, 65
1, 51273, Control_c, 0, 67, 55
1, 51287, Control_c, 0, 67, 55
1, 51302, Control_c, 0, 67, 54
1, 51317, Control_c, 0, 67, 54
1, 51329, Note_on_c, 0, 77, 73
1, 51332, Note_off_c, 0, 74, 62
1, 51332, Control_c, 0, 67, 53
1, 51339, Note_off_c, 0, 41, 59
1, 51347, Control_c, 0, 67, 52
1, 51362, Control_c, 0, 67, 51
1, 51377, Control_c, 0, 67, 50
1, 51391, Control_c, 0, 67, 50
1, 51406, Note_on_c, 0, 76, 78
1, 51406, Control_c, 0, 67, 49
1, 51421, Control_c, 0, 67, 49
1, 51433, Note_off_c, 0, 77, 62
1, 51436, Control_c, 0, 67, 47
1, 51451, Control_c, 0, 67, 47
1, 51474, Note_off_c, 0, 76, 63
1, 51474, Control_c, 0, 67, 45
1, 51496, Note_on_c, 0, 77, 67
1, 51504, Control_c, 0, 67, 45
1, 51563, Control_c, 0, 67, 45
1, 51565, Note_on_c, 0, 81, 70
1, 51573, Note_off_c, 0, 77, 62
1, 51577, Control_c, 0, 67, 47
1, 51592, Control_c, 0, 67, 48
1, 51607, Control_c, 0, 67, 49
1, 51622, Control_c, 0, 67, 50
1, 51637, Control_c, 0, 67, 52
1, 51639, Note_off_c, 0, 81, 61
1, 51645, Note_on_c, 0, 80, 74
1, 51651, Control_c, 0, 67, 52
1, 51666, Control_c, 0, 67, 53
1, 51722, Note_on_c, 0, 81, 70
1, 51723, Note_on_c, 0, 53, 56
1, 51725, Control_c, 0, 67, 52
1, 51735, Note_off_c, 0, 80, 56
1, 51740, Control_c, 0, 67, 52
1, 51755, Control_c, 0, 67, 51
1, 51785, Control_c, 0, 67, 50
1, 51786, Note_off_c, 0, 81, 62
1, 51797, Note_on_c, 0, 77, 77
1, 51800, Control_c, 0, 67, 50
1, 51815, Control_c, 0, 67, 49
1, 51830, Control_c, 0, 67, 49
1, 51835, Note_off_c, 0, 77, 62
1, 51844, Control_c, 0, 67, 47
1, 51856, Note_off_c, 0, 53, 63
1, 51882, Note_on_c, 0, 74, 63
1, 51948, Control_c, 0, 67, 47
1, 51963, Control_c, 0, 67, 46
1, 51965, Note_off_c, 0, 74, 60
1, 51970, Note_on_c, 0, 55, 49
1, 51977, Control_c, 0, 67, 45
1, 51979, Note_on_c, 0, 72, 52
1, 51992, Control_c, 0, 67, 45
1, 52007, Control_c, 0, 67, 44
1, 52022, Control_c, 0, 67, 43
1, 52037, Control_c, 0, 67, 41
1, 52051, Control_c, 0, 67, 37
1, 52066, Control_c, 0, 67, 0
1, 52087, Note_off_c, 0, 55, 63
1, 52236, Note_on_c, 0, 43, 85
1, 52252, Note_on_c, 0, 71, 62
1, 52289, Note_off_c, 0, 43, 62
1, 52322, Note_off_c, 0, 72, 62
1, 52512, Note_on_c, 0, 57, 83
1, 52544, Note_off_c, 0, 71, 64
1, 52766, Note_on_c, 0, 60, 71
1, 52845, Control_c, 0, 64, 32
1, 52860, Control_c, 0, 64, 41
1, 52874, Control_c, 0, 64, 51
1, 52889, Control_c, 0, 64, 59
1, 52904, Control_c, 0, 64, 62
1, 52918, Control_c, 0, 64, 64
1, 52933, Control_c, 0, 64, 65
1, 52948, Control_c, 0, 64, 67
1, 52971, Control_c, 0, 64, 68
1, 52986, Control_c, 0, 64, 69
1, 53035, Note_on_c, 0, 72, 69
1, 53091, Note_off_c, 0, 60, 35
1, 53095, Note_off_c, 0, 57, 62
1, 53111, Note_on_c, 0, 58, 67
1, 53120, Control_c, 0, 64, 69
1, 53135, Control_c, 0, 64, 68
1, 53149, Control_c, 0, 64, 67
1, 53164, Control_c, 0, 64, 67
1, 53168, Note_off_c, 0, 58, 56
1, 53179, Control_c, 0, 64, 66
1, 53194, Note_on_c, 0, 57, 56
1, 53194, Control_c, 0, 64, 64
1, 53209, Control_c, 0, 64, 62
1, 53223, Control_c, 0, 64, 59
1, 53238, Control_c, 0, 64, 54
1, 53253, Control_c, 0, 64, 50
1, 53254, Note_off_c, 0, 57, 56
1, 53268, Control_c, 0, 64, 47
1, 53272, Note_on_c, 0, 55, 67
1, 53272, Note_on_c, 0, 73, 75
1, 53278, Note_on_c, 0, 70, 67
1, 53283, Control_c, 0, 64, 43
1, 53297, Control_c, 0, 64, 37
1, 53301, Note_off_c, 0, 72, 62
1, 53312, Control_c, 0, 64, 0
1, 53325, Note_off_c, 0, 55, 59
1, 53351, Note_on_c, 0, 57, 72
1, 53424, Note_on_c, 0, 55, 58
1, 53430, Note_off_c, 0, 57, 62
1, 53455, Note_off_c, 0, 70, 54
1, 53511, Note_off_c, 0, 55, 60
1, 53515, Note_on_c, 0, 53, 73
1, 53523, Note_on_c, 0, 74, 82
1, 53525, Note_on_c, 0, 69, 76
1, 53568, Note_off_c, 0, 73, 62
1, 53572, Note_off_c, 0, 53, 61
1, 53603, Note_on_c, 0, 55, 72
1, 53672, Note_off_c, 0, 55, 61
1, 53673, Note_on_c, 0, 53, 76
1, 53696, Note_off_c, 0, 69, 52
1, 53764, Note_off_c, 0, 53, 58
1, 53766, Note_on_c, 0, 52, 76
1, 53779, Note_on_c, 0, 76, 85
1, 53787, Note_on_c, 0, 73, 76
1, 53806, Note_off_c, 0, 74, 62
1, 53809, Control_c, 0, 64, 36
1, 53822, Note_off_c, 0, 52, 62
1, 53824, Control_c, 0, 64, 55
1, 53833, Note_off_c, 0, 73, 62
1, 53839, Control_c, 0, 64, 65
1, 53854, Control_c, 0, 64, 70
1, 53857, Note_on_c, 0, 53, 75
1, 53869, Control_c, 0, 64, 74
1, 53872, Note_off_c, 0, 76, 66
1, 53884, Control_c, 0, 64, 76
1, 53899, Control_c, 0, 64, 78
1, 53914, Control_c, 0, 64, 79
1, 53923, Note_on_c, 0, 52, 82
1, 53925, Note_off_c, 0, 53, 60
1, 53928, Control_c, 0, 64, 79
1, 53958, Control_c, 0, 64, 79
1, 53988, Control_c, 0, 64, 78
1, 54003, Control_c, 0, 64, 76
1, 54008, Note_on_c, 0, 50, 83
1, 54016, Note_off_c, 0, 52, 59
1, 54018, Control_c, 0, 64, 72
1, 54024, Note_on_c, 0, 74, 81
1, 54033, Control_c, 0, 64, 66
1, 54035, Note_on_c, 0, 77, 78
1, 54046, Note_off_c, 0, 50, 61
1, 54047, Control_c, 0, 64, 56
1, 54062, Control_c, 0, 64, 30
1, 54077, Control_c, 0, 64, 0
1, 54089, Note_off_c, 0, 74, 53
1, 54107, Note_on_c, 0, 76, 85
1, 54113, Note_off_c, 0, 77, 66
1, 54189, Note_on_c, 0, 77, 75
1, 54221, Note_off_c, 0, 76, 58
1, 54250, Note_on_c, 0, 78, 80
1, 54254, Note_on_c, 0, 50, 76
1, 54259, Note_off_c, 0, 77, 62
1, 54299, Note_off_c, 0, 78, 66
1, 54300, Note_on_c, 0, 48, 79
1, 54311, Note_off_c, 0, 50, 64
1, 54328, Note_on_c, 0, 76, 77
1, 54365, Note_off_c, 0, 48, 63
1, 54369, Note_on_c, 0, 47, 80
1, 54405, Note_on_c, 0, 78, 67
1, 54412, Note_off_c, 0, 76, 59
1, 54419, Note_off_c, 0, 47, 63
1, 54426, Note_on_c, 0, 48, 73
1, 54447, Control_c, 0, 64, 41
1, 54469, Control_c, 0, 64, 55
1, 54482, Note_on_c, 0, 79, 63
1, 54484, Control_c, 0, 64, 62
1, 54486, Note_on_c, 0, 47, 80
1, 54494, Note_off_c, 0, 48, 62
1, 54497, Note_off_c, 0, 78, 60
1, 54498, Control_c, 0, 64, 63
1, 54509, Note_off_c, 0, 47, 67
1, 54528, Control_c, 0, 64, 62
1, 54543, Control_c, 0, 64, 58
1, 54558, Control_c, 0, 64, 39
1, 54566, Note_off_c, 0, 79, 63
1, 54572, Control_c, 0, 64, 0
1, 54576, Note_on_c, 0, 78, 74
1, 54632, Note_off_c, 0, 78, 61
1, 54658, Note_on_c, 0, 79, 76
1, 54716, Note_on_c, 0, 55, 77
1, 54728, Note_on_c, 0, 83, 79
1, 54740, Note_off_c, 0, 79, 58
1, 54766, Note_on_c, 0, 53, 67
1, 54775, Note_off_c, 0, 55, 63
1, 54793, Note_off_c, 0, 83, 63
1, 54800, Note_on_c, 0, 81, 80
1, 54824, Note_off_c, 0, 53, 60
1, 54834, Note_on_c, 0, 52, 78
1, 54871, Note_off_c, 0, 81, 62
1, 54875, Note_on_c, 0, 83, 77
1, 54887, Note_off_c, 0, 52, 60
1, 54905, Note_on_c, 0, 53, 58
1, 54939, Note_off_c, 0, 83, 57
1, 54949, Note_on_c, 0, 84, 83
1, 54962, Note_off_c, 0, 53, 60
1, 54973, Note_on_c, 0, 52, 65
1, 55034, Note_on_c, 0, 79, 70
1, 55092, Note_off_c, 0, 79, 65
1, 55115, Note_on_c, 0, 76, 73
1, 55165, Note_off_c, 0, 84, 50
1, 55189, Note_on_c, 0, 81, 74
1, 55192, Note_off_c, 0, 52, 57
1, 55203, Note_on_c, 0, 53, 52
1, 55227, Note_off_c, 0, 76, 59
1, 55277, Note_on_c, 0, 77, 77
1, 55293, Note_off_c, 0, 81, 62
1, 55335, Note_off_c, 0, 77, 63
1, 55360, Note_on_c, 0, 74, 76
1, 55416, Note_off_c, 0, 53, 62
1, 55440, Note_on_c, 0, 55, 46
1, 55440, Note_on_c, 0, 79, 70
1, 55440, Note_off_c, 0, 74, 58
1, 55523, Note_on_c, 0, 76, 68
1, 55538, Note_off_c, 0, 79, 53
1, 55574, Control_c, 0, 67, 37
1, 55579, Note_off_c, 0, 76, 63
1, 55589, Control_c, 0, 67, 44
1, 55603, Control_c, 0, 67, 52
1, 55610, Note_on_c, 0, 72, 59
1, 55618, Control_c, 0, 67, 61
1, 55633, Control_c, 0, 67, 73
1, 55648, Control_c, 0, 67, 86
1, 55653, Note_off_c, 0, 72, 55
1, 55663, Control_c, 0, 67, 102
1, 55678, Control_c, 0, 67, 118
1, 55684, Note_on_c, 0, 77, 63
1, 55686, Note_off_c, 0, 55, 34
1, 55692, Control_c, 0, 67, 127
1, 55702, Note_on_c, 0, 43, 41
1, 55758, Note_off_c, 0, 77, 61
1, 55765, Note_on_c, 0, 74, 71
1, 55802, Note_off_c, 0, 74, 58
1, 55857, Note_on_c, 0, 71, 56
1, 55895, Note_off_c, 0, 71, 55
1, 55947, Note_on_c, 0, 72, 50
1, 55964, Note_on_c, 0, 48, 39
1, 55978, Note_off_c, 0, 43, 36
1, 56040, Control_c, 0, 64, 34
1, 56055, Control_c, 0, 64, 51
1, 56069, Control_c, 0, 64, 62
1, 56084, Control_c, 0, 64, 67
1, 56091, Note_off_c, 0, 72, 62
1, 56099, Control_c, 0, 64, 72
1, 56114, Control_c, 0, 64, 78
1, 56129, Control_c, 0, 64, 86
1, 56137, Note_off_c, 0, 48, 54
1, 56143, Control_c, 0, 64, 100
1, 56158, Control_c, 0, 64, 127
1, 56390, Note_on_c, 0, 88, 39
1, 56472, Note_on_c, 0, 86, 50
1, 56550, Note_off_c, 0, 88, 42
1, 56557, Note_on_c, 0, 84, 57
1, 56587, Note_off_c, 0, 86, 53
1, 56631, Note_on_c, 0, 83, 54
1, 56642, Note_off_c, 0, 84, 54
1, 56656, Note_off_c, 0, 83, 55
1, 56714, Note_on_c, 0, 81, 56
1, 56757, Note_off_c, 0, 81, 49
1, 56790, Note_on_c, 0, 79, 56
1, 56849, Note_off_c, 0, 79, 62
1, 56857, Note_on_c, 0, 75, 51
1, 56865, Note_on_c, 0, 72, 38
1, 56879, Control_c, 0, 64, 113
1, 56880, Note_on_c, 0, 78, 50
1, 56893, Control_c, 0, 64, 95
1, 56908, Control_c, 0, 64, 82
1, 56921, Note_off_c, 0, 78, 57
1, 56923, Control_c, 0, 64, 75
1, 56938, Control_c, 0, 64, 70
1, 56953, Control_c, 0, 64, 67
1, 56962, Note_on_c, 0, 81, 38
1, 56967, Control_c, 0, 64, 64
1, 56979, Note_off_c, 0, 75, 61
1, 56982, Control_c, 0, 64, 63
1, 56997, Control_c, 0, 64, 62
1, 57004, Note_off_c, 0, 81, 59
1, 57018, Note_on_c, 0, 78, 52
1, 57043, Control_c, 0, 64, 63
1, 57102, Control_c, 0, 64, 62
1, 57105, Note_on_c, 0, 81, 49
1, 57108, Note_on_c, 0, 74, 43
1, 57114, Note_off_c, 0, 78, 36
1, 57119, Note_on_c, 0, 71, 42
1, 57176, Control_c, 0, 64, 62
1, 57178, Note_on_c, 0, 79, 53
1, 57183, Note_off_c, 0, 81, 56
1, 57195, Note_off_c, 0, 72, 19
1, 57205, Control_c, 0, 64, 61
1, 57220, Control_c, 0, 64, 61
1, 57231, Note_off_c, 0, 79, 55
1, 57263, Note_on_c, 0, 76, 61
1, 57267, Note_off_c, 0, 74, 59
1, 57299, Note_off_c, 0, 71, 33
1, 57309, Control_c, 0, 64, 60
1, 57320, Note_off_c, 0, 76, 44
1, 57332, Note_on_c, 0, 72, 29
1, 57338, Control_c, 0, 64, 60
1, 57342, Note_on_c, 0, 79, 60
1, 57350, Note_on_c, 0, 69, 45
1, 57368, Control_c, 0, 64, 59
1, 57383, Control_c, 0, 64, 58
1, 57398, Control_c, 0, 64, 58
1, 57422, Note_on_c, 0, 77, 67
1, 57428, Control_c, 0, 64, 57
1, 57443, Control_c, 0, 64, 57
1, 57443, Note_off_c, 0, 79, 48
1, 57479, Control_c, 0, 64, 56
1, 57481, Note_off_c, 0, 72, 35
1, 57496, Note_off_c, 0, 77, 62
1, 57514, Note_on_c, 0, 74, 64
1, 57540, Note_off_c, 0, 69, 55
1, 57578, Note_on_c, 0, 71, 61
1, 57581, Note_off_c, 0, 74, 46
1, 57596, Note_on_c, 0, 67, 32
1, 57598, Note_on_c, 0, 77, 63
1, 57644, Note_off_c, 0, 71, 60
1, 57657, Control_c, 0, 64, 57
1, 57672, Note_on_c, 0, 76, 65
1, 57693, Note_off_c, 0, 77, 56
1, 57702, Note_off_c, 0, 67, 58
1, 57726, Note_off_c, 0, 76, 62
1, 57751, Note_on_c, 0, 72, 59
1, 57776, Control_c, 0, 64, 56
1, 57804, Note_off_c, 0, 72, 49
1, 57805, Control_c, 0, 64, 56
1, 57820, Control_c, 0, 64, 55
1, 57823, Note_on_c, 0, 69, 53
1, 57834, Note_on_c, 0, 76, 52
1, 57836, Control_c, 0, 64, 54
1, 57845, Note_on_c, 0, 65, 40
1, 57851, Control_c, 0, 64, 52
1, 57866, Control_c, 0, 64, 51
1, 57880, Control_c, 0, 64, 49
1, 57887, Note_off_c, 0, 69, 50
1, 57890, Note_off_c, 0, 76, 60
1, 57895, Control_c, 0, 64, 47
1, 57905, Note_on_c, 0, 74, 58
1, 57909, Note_off_c, 0, 65, 51
1, 57910, Control_c, 0, 64, 45
1, 57925, Control_c, 0, 64, 43
1, 57938, Note_off_c, 0, 74, 66
1, 57939, Control_c, 0, 64, 41
1, 57954, Control_c, 0, 64, 40
1, 57969, Control_c, 0, 64, 39
1, 57973, Note_on_c, 0, 71, 58
1, 57984, Control_c, 0, 64, 37
1, 57999, Control_c, 0, 64, 36
1, 58013, Control_c, 0, 64, 34
1, 58028, Control_c, 0, 64, 32
1, 58045, Note_off_c, 0, 71, 50
1, 58075, Note_on_c, 0, 72, 49
1, 58090, Note_on_c, 0, 67, 42
1, 58093, Note_on_c, 0, 64, 43
1, 58146, Control_c, 0, 64, 33
1, 58161, Control_c, 0, 64, 37
1, 58176, Control_c, 0, 64, 44
1, 58191, Control_c, 0, 64, 50
1, 58213, Control_c, 0, 64, 55
1, 58227, Note_off_c, 0, 67, 63
1, 58228, Control_c, 0, 64, 59
1, 58243, Control_c, 0, 64, 62
1, 58250, Note_off_c, 0, 64, 65
1, 58256, Control_c, 0, 64, 64
1, 58271, Control_c, 0, 64, 65
1, 58286, Control_c, 0, 64, 66
1, 58301, Control_c, 0, 64, 66
1, 58360, Control_c, 0, 64, 66
1, 58368, Note_on_c, 0, 63, 62
1, 58375, Control_c, 0, 64, 65
1, 58390, Control_c, 0, 64, 64
1, 58405, Control_c, 0, 64, 63
1, 58414, Note_off_c, 0, 63, 57
1, 58419, Control_c, 0, 64, 60
1, 58434, Control_c, 0, 64, 56
1, 58435, Note_off_c, 0, 72, 60
1, 58449, Control_c, 0, 64, 51
1, 58450, Note_on_c, 0, 62, 56
1, 58463, Control_c, 0, 64, 46
1, 58478, Control_c, 0, 64, 39
1, 58493, Control_c, 0, 64, 0
1, 58516, Note_on_c, 0, 60, 67
1, 58518, Note_off_c, 0, 62, 60
1, 58586, Note_off_c, 0, 60, 61
1, 58599, Note_on_c, 0, 58, 66
1, 58661, Note_off_c, 0, 58, 62
1, 58663, Note_on_c, 0, 56, 67
1, 58719, Note_off_c, 0, 56, 63
1, 58744, Note_on_c, 0, 55, 71
1, 58807, Note_off_c, 0, 55, 60
1, 58820, Note_on_c, 0, 54, 65
1, 58829, Note_on_c, 0, 84, 81
1, 58857, Note_on_c, 0, 75, 61
1, 58884, Note_off_c, 0, 54, 62
1, 58901, Note_on_c, 0, 57, 64
1, 58951, Note_off_c, 0, 57, 58
1, 58999, Note_on_c, 0, 54, 59
1, 59035, Note_off_c, 0, 54, 60
1, 59068, Note_on_c, 0, 57, 60
1, 59085, Note_on_c, 0, 74, 66
1, 59100, Note_off_c, 0, 75, 65
1, 59108, Note_off_c, 0, 57, 62
1, 59152, Note_on_c, 0, 55, 59
1, 59201, Note_off_c, 0, 55, 60
1, 59234, Note_on_c, 0, 52, 64
1, 59271, Note_off_c, 0, 52, 59
1, 59318, Note_on_c, 0, 55, 57
1, 59324, Note_off_c, 0, 74, 35
1, 59328, Note_on_c, 0, 83, 65
1, 59368, Note_off_c, 0, 55, 57
1, 59388, Note_off_c, 0, 84, 52
1, 59392, Note_on_c, 0, 53, 58
1, 59447, Note_off_c, 0, 53, 57
1, 59485, Note_on_c, 0, 50, 52
1, 59526, Note_off_c, 0, 50, 62
1, 59565, Note_on_c, 0, 53, 57
1, 59570, Note_on_c, 0, 84, 61
1, 59580, Note_on_c, 0, 79, 40
1, 59614, Note_off_c, 0, 83, 58
1, 59625, Note_off_c, 0, 53, 58
1, 59643, Note_on_c, 0, 52, 55
1, 59688, Note_off_c, 0, 52, 59
1, 59734, Note_on_c, 0, 48, 56
1, 59779, Note_off_c, 0, 48, 62
1, 59808, Note_on_c, 0, 52, 57
1, 59808, Note_on_c, 0, 86, 58
1, 59813, Note_off_c, 0, 84, 49
1, 59814, Note_on_c, 0, 77, 52
1, 59857, Note_off_c, 0, 52, 56
1, 59867, Note_off_c, 0, 79, 54
1, 59887, Note_on_c, 0, 50, 44
1, 59898, Note_off_c, 0, 86, 60
1, 59917, Note_off_c, 0, 77, 58
1, 59930, Note_off_c, 0, 50, 63
1, 59962, Note_on_c, 0, 47, 49
1, 60059, Note_off_c, 0, 47, 59
1, 60067, Note_on_c, 0, 88, 53
1, 60080, Note_on_c, 0, 79, 37
1, 60081, Note_on_c, 0, 48, 47
1, 60102, Note_on_c, 0, 76, 48
1, 60109, Control_c, 0, 64, 37
1, 60124, Control_c, 0, 64, 48
1, 60136, Note_off_c, 0, 88, 62
1, 60139, Control_c, 0, 64, 57
1, 60154, Control_c, 0, 64, 61
1, 60154, Control_c, 0, 67, 119
1, 60169, Control_c, 0, 64, 63
1, 60169, Control_c, 0, 67, 85
1, 60183, Control_c, 0, 64, 65
1, 60183, Control_c, 0, 67, 41
1, 60198, Control_c, 0, 64, 66
1, 60198, Control_c, 0, 67, 0
1, 60199, Note_off_c, 0, 79, 63
1, 60213, Control_c, 0, 64, 67
1, 60218, Note_off_c, 0, 48, 62
1, 60229, Control_c, 0, 64, 68
1, 60244, Control_c, 0, 64, 68
1, 60259, Control_c, 0, 64, 69
1, 60332, Control_c, 0, 64, 68
1, 60334, Note_on_c, 0, 79, 60
1, 60342, Note_off_c, 0, 76, 54
1, 60347, Control_c, 0, 64, 66
1, 60362, Control_c, 0, 64, 63
1, 60377, Control_c, 0, 64, 57
1, 60392, Control_c, 0, 64, 47
1, 60406, Control_c, 0, 64, 32
1, 60412, Note_on_c, 0, 77, 70
1, 60421, Control_c, 0, 64, 0
1, 60497, Note_on_c, 0, 76, 75
1, 60501, Note_off_c, 0, 79, 37
1, 60548, Note_off_c, 0, 77, 61
1, 60570, Note_on_c, 0, 74, 78
1, 60601, Note_off_c, 0, 76, 63
1, 60630, Note_off_c, 0, 74, 64
1, 60646, Note_on_c, 0, 72, 67
1, 60715, Note_on_c, 0, 71, 80
1, 60716, Note_off_c, 0, 72, 0
1, 60754, Poly_aftertouch_c, 0, 72, 127
1, 60775, Poly_aftertouch_c, 0, 72, 0
1, 60787, Note_off_c, 0, 71, 61
1, 60791, Note_on_c, 0, 60, 78
1, 60800, Note_on_c, 0, 72, 11
1, 60805, Note_on_c, 0, 52, 61
1, 60891, Note_on_c, 0, 70, 70
1, 60902, Note_off_c, 0, 72, 60
1, 60965, Note_off_c, 0, 52, 54
1, 60969, Note_on_c, 0, 68, 63
1, 60969, Note_off_c, 0, 70, 64
1, 61044, Note_off_c, 0, 68, 62
1, 61053, Note_on_c, 0, 53, 51
1, 61062, Note_on_c, 0, 69, 59
1, 61067, Control_c, 0, 64, 31
1, 61082, Control_c, 0, 64, 41
1, 61082, Control_c, 0, 67, 44
1, 61097, Control_c, 0, 64, 55
1, 61097, Control_c, 0, 67, 70
1, 61112, Control_c, 0, 64, 63
1, 61112, Control_c, 0, 67, 94
1, 61124, Note_off_c, 0, 53, 62
1, 61127, Control_c, 0, 64, 67
1, 61127, Control_c, 0, 67, 119
1, 61142, Control_c, 0, 64, 70
1, 61142, Control_c, 0, 67, 127
1, 61153, Note_off_c, 0, 60, 62
1, 61156, Control_c, 0, 64, 73
1, 61171, Control_c, 0, 64, 76
1, 61186, Control_c, 0, 64, 80
1, 61208, Control_c, 0, 64, 83
1, 61217, Note_off_c, 0, 69, 60
1, 61223, Control_c, 0, 64, 84
1, 61281, Control_c, 0, 64, 83
1, 61296, Control_c, 0, 64, 82
1, 61311, Control_c, 0, 64, 79
1, 61326, Control_c, 0, 64, 72
1, 61327, Note_on_c, 0, 69, 62
1, 61341, Control_c, 0, 64, 64
1, 61355, Control_c, 0, 64, 50
1, 61370, Control_c, 0, 64, 0
1, 61377, Note_off_c, 0, 69, 51
1, 61392, Note_on_c, 0, 67, 63
1, 61447, Note_off_c, 0, 67, 53
1, 61465, Note_on_c, 0, 65, 67
1, 61500, Note_off_c, 0, 65, 61
1, 61546, Note_on_c, 0, 64, 64
1, 61597, Note_off_c, 0, 64, 57
1, 61622, Note_on_c, 0, 62, 59
1, 61677, Note_off_c, 0, 62, 60
1, 61690, Note_on_c, 0, 61, 64
1, 61747, Note_off_c, 0, 61, 62
1, 61783, Note_on_c, 0, 62, 63
1, 61800, Note_on_c, 0, 78, 60
1, 61830, Note_on_c, 0, 74, 45
1, 61840, Note_off_c, 0, 62, 57
1, 61878, Note_on_c, 0, 60, 44
1, 61911, Note_off_c, 0, 60, 62
1, 61938, Note_on_c, 0, 58, 50
1, 61980, Note_off_c, 0, 78, 53
1, 62001, Note_off_c, 0, 58, 56
1, 62059, Note_on_c, 0, 59, 49
1, 62066, Note_off_c, 0, 74, 64
1, 62069, Note_on_c, 0, 79, 54
1, 62075, Control_c, 0, 64, 40
1, 62090, Control_c, 0, 64, 49
1, 62104, Control_c, 0, 64, 55
1, 62104, Control_c, 0, 67, 104
1, 62119, Control_c, 0, 64, 59
1, 62119, Control_c, 0, 67, 83
1, 62134, Control_c, 0, 64, 62
1, 62134, Control_c, 0, 67, 62
1, 62149, Control_c, 0, 64, 65
1, 62149, Control_c, 0, 67, 38
1, 62164, Control_c, 0, 64, 68
1, 62164, Control_c, 0, 67, 0
1, 62172, Note_off_c, 0, 59, 60
1, 62178, Control_c, 0, 64, 71
1, 62191, Note_off_c, 0, 79, 63
1, 62193, Control_c, 0, 64, 73
1, 62208, Control_c, 0, 64, 75
1, 62223, Control_c, 0, 64, 76
1, 62238, Control_c, 0, 64, 77
1, 62311, Control_c, 0, 64, 76
1, 62321, Note_on_c, 0, 67, 58
1, 62326, Control_c, 0, 64, 74
1, 62341, Control_c, 0, 64, 70
1, 62356, Control_c, 0, 64, 63
1, 62361, Note_off_c, 0, 67, 63
1, 62370, Control_c, 0, 64, 51
1, 62385, Control_c, 0, 64, 30
1, 62400, Note_on_c, 0, 71, 63
1, 62400, Control_c, 0, 64, 0
1, 62415, Control_c, 0, 67, 37
1, 62419, Note_off_c, 0, 71, 60
1, 62430, Control_c, 0, 67, 47
1, 62445, Control_c, 0, 67, 56
1, 62460, Control_c, 0, 67, 67
1, 62474, Control_c, 0, 67, 76
1, 62483, Note_on_c, 0, 74, 77
1, 62489, Control_c, 0, 67, 86
1, 62504, Control_c, 0, 67, 95
1, 62519, Control_c, 0, 67, 107
1, 62534, Control_c, 0, 67, 124
1, 62547, Note_off_c, 0, 74, 59
1, 62549, Control_c, 0, 67, 127
1, 62568, Note_on_c, 0, 79, 52
1, 62629, Note_off_c, 0, 79, 63
1, 62629, Note_on_c, 0, 83, 73
1, 62704, Note_off_c, 0, 83, 62
1, 62720, Note_on_c, 0, 86, 66
1, 62793, Note_off_c, 0, 86, 63
1, 62802, Note_on_c, 0, 84, 62
1, 62811, Note_on_c, 0, 60, 53
1, 62825, Note_on_c, 0, 62, 34
1, 62846, Note_off_c, 0, 60, 65
1, 62856, Note_off_c, 0, 62, 52
1, 62862, Note_on_c, 0, 81, 69
1, 62868, Note_off_c, 0, 84, 63
1, 62910, Note_off_c, 0, 81, 62
1, 62946, Note_on_c, 0, 78, 61
1, 63026, Note_off_c, 0, 78, 58
1, 63047, Note_on_c, 0, 62, 19
1, 63053, Note_on_c, 0, 59, 36
1, 63053, Note_on_c, 0, 79, 48
1, 63134, Control_c, 0, 64, 38
1, 63149, Control_c, 0, 64, 48
1, 63164, Control_c, 0, 64, 57
1, 63179, Control_c, 0, 64, 61
1, 63193, Note_off_c, 0, 79, 65
1, 63194, Control_c, 0, 64, 65
1, 63208, Control_c, 0, 64, 68
1, 63208, Control_c, 0, 67, 99
1, 63223, Control_c, 0, 64, 71
1, 63223, Control_c, 0, 67, 50
1, 63226, Note_off_c, 0, 59, 59
1, 63229, Note_off_c, 0, 62, 58
1, 63238, Control_c, 0, 64, 75
1, 63238, Control_c, 0, 67, 0
1, 63252, Control_c, 0, 64, 79
1, 63267, Control_c, 0, 64, 81
1, 63282, Control_c, 0, 64, 81
1, 63297, Control_c, 0, 64, 82
1, 63342, Control_c, 0, 64, 81
1, 63353, Note_on_c, 0, 67, 78
1, 63387, Control_c, 0, 64, 81
1, 63416, Control_c, 0, 64, 81
1, 63423, Note_off_c, 0, 67, 61
1, 63431, Control_c, 0, 64, 82
1, 63436, Note_on_c, 0, 71, 79
1, 63454, Control_c, 0, 64, 84
1, 63467, Note_off_c, 0, 71, 65
1, 63469, Control_c, 0, 64, 88
1, 63483, Control_c, 0, 64, 93
1, 63499, Control_c, 0, 64, 102
1, 63512, Note_on_c, 0, 74, 91
1, 63514, Control_c, 0, 64, 127
1, 63595, Note_on_c, 0, 79, 79
1, 63597, Note_off_c, 0, 74, 59
1, 63663, Note_on_c, 0, 83, 89
1, 63708, Note_off_c, 0, 79, 59
1, 63735, Note_on_c, 0, 86, 89
1, 63745, Note_off_c, 0, 83, 63
1, 63804, Note_on_c, 0, 62, 87
1, 63810, Note_on_c, 0, 84, 87
1, 63821, Note_on_c, 0, 57, 66
1, 63821, Note_on_c, 0, 60, 71
1, 63850, Note_off_c, 0, 86, 56
1, 63885, Note_on_c, 0, 81, 81
1, 63938, Note_off_c, 0, 84, 62
1, 63964, Note_on_c, 0, 78, 81
1, 63980, Note_off_c, 0, 81, 59
1, 63983, Note_off_c, 0, 62, 59
1, 64039, Note_on_c, 0, 79, 79
1, 64039, Note_off_c, 0, 78, 58
1, 64048, Note_on_c, 0, 62, 84
1, 64057, Note_off_c, 0, 57, 62
1, 64064, Note_on_c, 0, 59, 78
1, 64069, Note_on_c, 0, 55, 69
1, 64076, Control_c, 0, 64, 101
1, 64087, Note_off_c, 0, 60, 62
1, 64091, Control_c, 0, 64, 81
1, 64106, Control_c, 0, 64, 66
1, 64121, Control_c, 0, 64, 50
1, 64136, Control_c, 0, 64, 0
1, 64142, Note_on_c, 0, 83, 71
1, 64215, Note_off_c, 0, 79, 38
1, 64238, Note_on_c, 0, 86, 75
1, 64241, Note_off_c, 0, 83, 60
1, 64293, Note_off_c, 0, 59, 57
1, 64306, Note_on_c, 0, 60, 60
1, 64313, Note_on_c, 0, 57, 54
1, 64317, Note_off_c, 0, 55, 57
1, 64322, Note_on_c, 0, 84, 66
1, 64343, Note_off_c, 0, 86, 58
1, 64400, Note_on_c, 0, 81, 67
1, 64420, Note_off_c, 0, 84, 62
1, 64487, Note_on_c, 0, 78, 75
1, 64496, Note_off_c, 0, 81, 62
1, 64507, Note_off_c, 0, 62, 59
1, 64549, Note_off_c, 0, 78, 58
1, 64553, Note_off_c, 0, 57, 61
1, 64569, Note_on_c, 0, 59, 61
1, 64569, Note_on_c, 0, 79, 68
1, 64581, Note_on_c, 0, 55, 54
1, 64582, Note_on_c, 0, 62, 55
1, 64592, Note_off_c, 0, 60, 57
1, 64673, Note_on_c, 0, 83, 66
1, 64711, Note_off_c, 0, 79, 48
1, 64742, Note_off_c, 0, 83, 63
1, 64759, Note_on_c, 0, 86, 60
1, 64800, Note_off_c, 0, 59, 58
1, 64808, Note_on_c, 0, 60, 50
1, 64815, Note_off_c, 0, 55, 62
1, 64831, Note_on_c, 0, 57, 41
1, 64837, Note_on_c, 0, 84, 63
1, 64845, Note_off_c, 0, 86, 54
1, 64905, Note_on_c, 0, 81, 65
1, 64912, Note_off_c, 0, 62, 58
1, 64935, Note_off_c, 0, 84, 61
1, 64975, Note_off_c, 0, 81, 63
1, 64990, Note_on_c, 0, 78, 66
1, 64996, Note_off_c, 0, 57, 59
1, 65003, Note_off_c, 0, 60, 61
1, 65050, Note_off_c, 0, 78, 57
1, 65056, Control_c, 0, 64, 42
1, 65061, Note_on_c, 0, 62, 44
1, 65063, Note_on_c, 0, 59, 49
1, 65069, Note_on_c, 0, 79, 62
1, 65071, Control_c, 0, 64, 58
1, 65072, Note_on_c, 0, 55, 51
1, 65086, Control_c, 0, 64, 62
1, 65101, Control_c, 0, 64, 63
1, 65104, Note_off_c, 0, 62, 62
1, 65109, Note_off_c, 0, 59, 65
1, 65115, Note_off_c, 0, 55, 63
1, 65116, Control_c, 0, 64, 64
1, 65130, Control_c, 0, 64, 65
1, 65145, Control_c, 0, 64, 66
1, 65160, Control_c, 0, 64, 67
1, 65175, Control_c, 0, 64, 67
1, 65204, Control_c, 0, 64, 68
1, 65263, Control_c, 0, 64, 67
1, 65278, Control_c, 0, 64, 67
1, 65288, Note_off_c, 0, 79, 65
1, 65293, Control_c, 0, 64, 65
1, 65308, Control_c, 0, 64, 57
1, 65322, Control_c, 0, 64, 29
1, 65325, Note_on_c, 0, 43, 73
1, 65337, Control_c, 0, 64, 0
1, 65387, Note_off_c, 0, 43, 59
1, 65573, Note_on_c, 0, 45, 80
1, 65629, Note_off_c, 0, 45, 63
1, 65837, Note_on_c, 0, 47, 85
1, 65939, Note_off_c, 0, 47, 53
1, 66106, Note_on_c, 0, 48, 90
1, 66176, Note_off_c, 0, 48, 59
1, 66356, Note_on_c, 0, 52, 85
1, 66409, Note_off_c, 0, 52, 63
1, 66610, Note_on_c, 0, 53, 83
1, 66691, Note_off_c, 0, 53, 57
1, 66869, Note_on_c, 0, 56, 87
1, 66880, Control_c, 0, 64, 42
1, 66894, Control_c, 0, 64, 58
1, 66909, Control_c, 0, 64, 66
1, 66913, Note_off_c, 0, 56, 63
1, 66924, Control_c, 0, 64, 70
1, 66939, Control_c, 0, 64, 73
1, 66954, Control_c, 0, 64, 75
1, 66968, Control_c, 0, 64, 77
1, 66983, Control_c, 0, 64, 79
1, 66998, Control_c, 0, 64, 80
1, 67013, Control_c, 0, 64, 81
1, 67027, Control_c, 0, 64, 82
1, 67131, Control_c, 0, 64, 81
1, 67138, Note_on_c, 0, 57, 80
1, 67146, Control_c, 0, 64, 80
1, 67160, Control_c, 0, 64, 77
1, 67175, Control_c, 0, 64, 72
1, 67198, Control_c, 0, 64, 65
1, 67213, Control_c, 0, 64, 56
1, 67227, Control_c, 0, 64, 39
1, 67242, Control_c, 0, 64, 0
1, 67270, Note_on_c, 0, 60, 74
1, 67295, Note_off_c, 0, 57, 58
1, 67393, Note_on_c, 0, 59, 78
1, 67419, Note_off_c, 0, 60, 58
1, 67510, Note_on_c, 0, 57, 79
1, 67536, Note_off_c, 0, 59, 58
1, 67638, Note_on_c, 0, 59, 83
1, 67654, Note_off_c, 0, 57, 60
1, 67753, Note_on_c, 0, 60, 78
1, 67754, Note_off_c, 0, 59, 56
1, 67878, Note_on_c, 0, 57, 82
1, 67906, Note_off_c, 0, 60, 59
1, 67986, Note_off_c, 0, 57, 61
1, 68007, Note_on_c, 0, 59, 88
1, 68096, Note_off_c, 0, 59, 64
1, 68136, Note_on_c, 0, 60, 82
1, 68218, Note_off_c, 0, 60, 55
1, 68384, Note_on_c, 0, 57, 81
1, 68434, Note_off_c, 0, 57, 65
1, 68615, Note_on_c, 0, 52, 81
1, 68629, Control_c, 0, 64, 31
1, 68644, Control_c, 0, 64, 54
1, 68650, Note_off_c, 0, 52, 65
1, 68659, Control_c, 0, 64, 64
1, 68673, Control_c, 0, 64, 68
1, 68696, Control_c, 0, 64, 71
1, 68710, Control_c, 0, 64, 73
1, 68725, Control_c, 0, 64, 76
1, 68740, Control_c, 0, 64, 78
1, 68755, Control_c, 0, 64, 81
1, 68770, Control_c, 0, 64, 82
1, 68785, Control_c, 0, 64, 83
1, 68800, Control_c, 0, 64, 84
1, 68829, Control_c, 0, 64, 84
1, 68871, Note_on_c, 0, 55, 73
1, 68903, Control_c, 0, 64, 84
1, 68923, Note_on_c, 0, 54, 61
1, 68929, Note_off_c, 0, 55, 61
1, 68947, Control_c, 0, 64, 83
1, 68962, Control_c, 0, 64, 82
1, 68963, Note_off_c, 0, 54, 58
1, 68977, Control_c, 0, 64, 80
1, 68980, Note_on_c, 0, 52, 72
1, 68991, Control_c, 0, 64, 78
1, 69006, Control_c, 0, 64, 75
1, 69023, Control_c, 0, 64, 72
1, 69025, Note_on_c, 0, 54, 71
1, 69037, Control_c, 0, 64, 68
1, 69046, Note_off_c, 0, 52, 61
1, 69052, Control_c, 0, 64, 63
1, 69067, Control_c, 0, 64, 56
1, 69082, Control_c, 0, 64, 41
1, 69086, Note_on_c, 0, 55, 84
1, 69089, Note_off_c, 0, 54, 63
1, 69096, Control_c, 0, 64, 0
1, 69274, Control_c, 0, 67, 45
1, 69289, Control_c, 0, 67, 58
1, 69304, Control_c, 0, 67, 75
1, 69319, Control_c, 0, 67, 94
1, 69334, Control_c, 0, 67, 112
1, 69348, Control_c, 0, 67, 127
1, 69366, Note_on_c, 0, 67, 57
1, 69378, Note_on_c, 0, 64, 44
1, 69390, Note_off_c, 0, 67, 61
1, 69626, Note_on_c, 0, 69, 61
1, 69629, Note_on_c, 0, 65, 43
1, 69655, Note_off_c, 0, 69, 66
1, 69668, Note_off_c, 0, 64, 57
1, 69879, Note_on_c, 0, 62, 45
1, 69879, Note_on_c, 0, 71, 63
1, 69906, Note_off_c, 0, 71, 66
1, 69930, Note_off_c, 0, 65, 57
1, 70124, Note_on_c, 0, 64, 49
1, 70126, Note_on_c, 0, 72, 58
1, 70151, Note_off_c, 0, 72, 60
1, 70200, Note_off_c, 0, 62, 58
1, 70383, Note_on_c, 0, 76, 67
1, 70397, Note_on_c, 0, 61, 54
1, 70413, Note_off_c, 0, 76, 63
1, 70529, Note_off_c, 0, 64, 56
1, 70621, Note_on_c, 0, 77, 76
1, 70635, Note_on_c, 0, 62, 65
1, 70654, Note_off_c, 0, 77, 66
1, 70699, Note_off_c, 0, 61, 56
1, 70860, Note_on_c, 0, 80, 78
1, 70874, Note_off_c, 0, 62, 63
1, 70875, Note_on_c, 0, 64, 66
1, 70886, Note_off_c, 0, 80, 65
1, 71114, Note_on_c, 0, 81, 68
1, 71119, Note_on_c, 0, 65, 69
1, 71149, Control_c, 0, 67, 125
1, 71162, Note_off_c, 0, 64, 59
1, 71164, Control_c, 0, 67, 123
1, 71194, Control_c, 0, 67, 118
1, 71208, Control_c, 0, 67, 114
1, 71223, Control_c, 0, 67, 110
1, 71238, Note_on_c, 0, 84, 73
1, 71261, Note_off_c, 0, 81, 49
1, 71358, Note_on_c, 0, 83, 77
1, 71372, Control_c, 0, 67, 112
1, 71408, Note_off_c, 0, 84, 60
1, 71432, Control_c, 0, 67, 114
1, 71447, Control_c, 0, 67, 116
1, 71480, Note_on_c, 0, 81, 77
1, 71496, Note_off_c, 0, 83, 59
1, 71506, Control_c, 0, 67, 113
1, 71536, Control_c, 0, 67, 111
1, 71551, Control_c, 0, 67, 108
1, 71565, Control_c, 0, 67, 106
1, 71580, Control_c, 0, 67, 103
1, 71595, Control_c, 0, 67, 94
1, 71597, Note_on_c, 0, 83, 87
1, 71609, Control_c, 0, 67, 63
1, 71624, Control_c, 0, 67, 0
1, 71629, Note_off_c, 0, 81, 62
1, 71718, Note_on_c, 0, 84, 79
1, 71748, Note_off_c, 0, 83, 63
1, 71839, Note_on_c, 0, 81, 74
1, 71852, Note_off_c, 0, 84, 64
1, 71960, Note_on_c, 0, 83, 81
1, 72007, Note_off_c, 0, 81, 58
1, 72082, Note_on_c, 0, 84, 82
1, 72134, Note_off_c, 0, 83, 57
1, 72196, Note_on_c, 0, 62, 51
1, 72261, Note_off_c, 0, 65, 52
1, 72320, Note_on_c, 0, 64, 60
1, 72348, Note_off_c, 0, 62, 63
1, 72447, Note_on_c, 0, 65, 60
1, 72453, Note_off_c, 0, 64, 60
1, 72574, Note_on_c, 0, 64, 73
1, 72592, Note_off_c, 0, 65, 54
1, 72659, Note_off_c, 0, 64, 66
1, 72673, Note_on_c, 0, 60, 68
1, 72805, Note_on_c, 0, 66, 77
1, 72861, Note_off_c, 0, 60, 63
1, 72868, Control_c, 0, 64, 39
1, 72883, Control_c, 0, 64, 53
1, 72898, Control_c, 0, 64, 61
1, 72904, Note_off_c, 0, 66, 62
1, 72912, Control_c, 0, 64, 64
1, 72920, Note_on_c, 0, 62, 78
1, 72927, Control_c, 0, 64, 65
1, 72942, Control_c, 0, 64, 66
1, 72946, Note_off_c, 0, 55, 61
1, 72950, Note_off_c, 0, 84, 66
1, 72956, Control_c, 0, 64, 67
1, 72971, Control_c, 0, 64, 67
1, 73046, Note_on_c, 0, 67, 86
1, 73058, Note_on_c, 0, 55, 69
1, 73076, Note_off_c, 0, 62, 62
1, 73076, Control_c, 0, 64, 66
1, 73091, Control_c, 0, 64, 63
1, 73106, Control_c, 0, 64, 58
1, 73121, Control_c, 0, 64, 47
1, 73135, Control_c, 0, 64, 0
1, 73185, Note_on_c, 0, 82, 76
1, 73205, Note_off_c, 0, 82, 72
1, 73304, Note_on_c, 0, 83, 84
1, 73393, Note_off_c, 0, 67, 59
1, 73423, Note_on_c, 0, 64, 62
1, 73514, Control_c, 0, 64, 41
1, 73529, Control_c, 0, 64, 51
1, 73535, Note_off_c, 0, 64, 65
1, 73543, Control_c, 0, 64, 58
1, 73544, Note_on_c, 0, 65, 74
1, 73558, Control_c, 0, 64, 59
1, 73563, Note_off_c, 0, 83, 65
1, 73602, Control_c, 0, 64, 59
1, 73617, Control_c, 0, 64, 58
1, 73632, Control_c, 0, 64, 55
1, 73647, Control_c, 0, 64, 50
1, 73662, Control_c, 0, 64, 42
1, 73663, Note_on_c, 0, 80, 73
1, 73677, Control_c, 0, 64, 32
1, 73688, Note_off_c, 0, 80, 65
1, 73692, Control_c, 0, 64, 0
1, 73791, Note_on_c, 0, 81, 83
1, 73879, Note_off_c, 0, 65, 60
1, 73885, Control_c, 0, 67, 41
1, 73899, Note_on_c, 0, 63, 63
1, 73900, Control_c, 0, 67, 50
1, 73915, Control_c, 0, 67, 60
1, 73937, Control_c, 0, 67, 70
1, 73952, Control_c, 0, 67, 83
1, 73966, Control_c, 0, 64, 41
1, 73966, Control_c, 0, 67, 96
1, 73981, Control_c, 0, 64, 53
1, 73981, Control_c, 0, 67, 110
1, 73996, Control_c, 0, 64, 60
1, 73996, Control_c, 0, 67, 122
1, 74011, Control_c, 0, 64, 61
1, 74011, Control_c, 0, 67, 127
1, 74018, Note_off_c, 0, 63, 62
1, 74025, Control_c, 0, 64, 62
1, 74028, Note_on_c, 0, 64, 64
1, 74044, Note_off_c, 0, 81, 65
1, 74070, Control_c, 0, 64, 61
1, 74115, Control_c, 0, 64, 60
1, 74130, Control_c, 0, 64, 59
1, 74145, Control_c, 0, 64, 57
1, 74150, Note_on_c, 0, 78, 79
1, 74159, Control_c, 0, 64, 53
1, 74174, Control_c, 0, 64, 48
1, 74189, Control_c, 0, 64, 41
1, 74190, Note_off_c, 0, 78, 56
1, 74204, Control_c, 0, 64, 33
1, 74218, Control_c, 0, 64, 0
1, 74283, Note_on_c, 0, 79, 75
1, 74372, Note_off_c, 0, 64, 62
1, 74389, Note_on_c, 0, 61, 57
1, 74485, Note_off_c, 0, 61, 62
1, 74517, Note_on_c, 0, 62, 56
1, 74634, Note_on_c, 0, 76, 78
1, 74728, Note_off_c, 0, 79, 60
1, 74775, Note_on_c, 0, 77, 84
1, 74789, Control_c, 0, 64, 38
1, 74804, Control_c, 0, 64, 52
1, 74812, Note_off_c, 0, 76, 62
1, 74819, Control_c, 0, 64, 61
1, 74833, Control_c, 0, 64, 64
1, 74835, Note_off_c, 0, 77, 61
1, 74848, Control_c, 0, 64, 65
1, 74863, Control_c, 0, 64, 66
1, 74878, Control_c, 0, 64, 68
1, 74893, Control_c, 0, 64, 70
1, 74908, Control_c, 0, 64, 73
1, 74911, Note_on_c, 0, 77, 88
1, 74916, Note_on_c, 0, 56, 59
1, 74923, Control_c, 0, 64, 76
1, 74938, Control_c, 0, 64, 79
1, 74942, Note_off_c, 0, 55, 52
1, 74951, Note_off_c, 0, 77, 64
1, 74953, Control_c, 0, 64, 82
1, 74967, Control_c, 0, 64, 85
1, 74982, Control_c, 0, 64, 89
1, 74997, Control_c, 0, 64, 91
1, 75012, Control_c, 0, 64, 92
1, 75027, Control_c, 0, 64, 93
1, 75101, Control_c, 0, 64, 92
1, 75130, Control_c, 0, 64, 92
1, 75145, Control_c, 0, 64, 90
1, 75159, Control_c, 0, 64, 85
1, 75174, Control_c, 0, 64, 78
1, 75175, Note_on_c, 0, 77, 73
1, 75182, Note_off_c, 0, 56, 55
1, 75189, Control_c, 0, 64, 69
1, 75195, Note_on_c, 0, 57, 44
1, 75204, Control_c, 0, 64, 58
1, 75219, Control_c, 0, 64, 39
1, 75233, Control_c, 0, 64, 0
1, 75352, Control_c, 0, 64, 30
1, 75367, Control_c, 0, 64, 43
1, 75382, Control_c, 0, 64, 57
1, 75397, Control_c, 0, 64, 63
1, 75412, Control_c, 0, 64, 66
1, 75435, Control_c, 0, 64, 67
1, 75450, Control_c, 0, 64, 67
1, 75464, Control_c, 0, 64, 68
1, 75472, Note_off_c, 0, 77, 49
1, 75504, Note_on_c, 0, 79, 49
1, 75547, Note_off_c, 0, 79, 63
1, 75558, Note_on_c, 0, 77, 62
1, 75582, Control_c, 0, 64, 67
1, 75591, Note_off_c, 0, 77, 63
1, 75597, Control_c, 0, 64, 67
1, 75612, Control_c, 0, 64, 66
1, 75615, Note_on_c, 0, 76, 66
1, 75627, Control_c, 0, 64, 65
1, 75642, Control_c, 0, 64, 62
1, 75643, Note_off_c, 0, 76, 66
1, 75653, Note_on_c, 0, 77, 62
1, 75656, Control_c, 0, 64, 59
1, 75671, Control_c, 0, 64, 53
1, 75686, Control_c, 0, 64, 46
1, 75701, Control_c, 0, 64, 40
1, 75716, Control_c, 0, 64, 32
1, 75725, Note_on_c, 0, 79, 66
1, 75731, Control_c, 0, 64, 0
1, 75734, Note_off_c, 0, 77, 53
1, 75794, Note_on_c, 0, 81, 75
1, 75826, Note_off_c, 0, 79, 63
1, 75953, Control_c, 0, 67, 123
1, 75968, Control_c, 0, 67, 117
1, 75997, Control_c, 0, 67, 114
1, 76012, Control_c, 0, 67, 111
1, 76027, Control_c, 0, 67, 106
1, 76042, Control_c, 0, 67, 96
1, 76056, Control_c, 0, 67, 91
1, 76067, Note_on_c, 0, 79, 60
1, 76071, Control_c, 0, 67, 89
1, 76086, Control_c, 0, 67, 86
1, 76101, Control_c, 0, 67, 76
1, 76116, Note_off_c, 0, 81, 59
1, 76116, Control_c, 0, 67, 57
1, 76130, Control_c, 0, 67, 0
1, 76188, Note_on_c, 0, 77, 65
1, 76191, Note_off_c, 0, 79, 63
1, 76296, Note_off_c, 0, 77, 63
1, 76330, Note_on_c, 0, 76, 62
1, 76332, Control_c, 0, 64, 30
1, 76347, Control_c, 0, 64, 44
1, 76361, Control_c, 0, 64, 56
1, 76376, Control_c, 0, 64, 61
1, 76391, Control_c, 0, 64, 64
1, 76405, Control_c, 0, 64, 67
1, 76420, Control_c, 0, 64, 71
1, 76435, Control_c, 0, 64, 74
1, 76437, Note_off_c, 0, 76, 64
1, 76450, Control_c, 0, 64, 77
1, 76465, Control_c, 0, 64, 80
1, 76479, Control_c, 0, 64, 83
1, 76494, Control_c, 0, 64, 87
1, 76509, Control_c, 0, 64, 90
1, 76509, Control_c, 0, 67, 37
1, 76524, Control_c, 0, 64, 91
1, 76524, Control_c, 0, 67, 63
1, 76539, Control_c, 0, 64, 92
1, 76539, Control_c, 0, 67, 100
1, 76553, Control_c, 0, 64, 93
1, 76553, Control_c, 0, 67, 127
1, 76672, Control_c, 0, 64, 92
1, 76702, Control_c, 0, 64, 92
1, 76717, Control_c, 0, 64, 91
1, 76732, Control_c, 0, 64, 90
1, 76741, Note_on_c, 0, 82, 54
1, 76747, Control_c, 0, 64, 87
1, 76761, Control_c, 0, 64, 85
1, 76776, Control_c, 0, 64, 83
1, 76791, Control_c, 0, 64, 81
1, 76805, Control_c, 0, 64, 77
1, 76820, Control_c, 0, 64, 73
1, 76835, Control_c, 0, 64, 70
1, 76850, Control_c, 0, 64, 66
1, 76865, Control_c, 0, 64, 62
1, 76879, Control_c, 0, 64, 59
1, 76894, Control_c, 0, 64, 56
1, 76909, Control_c, 0, 64, 56
1, 76976, Control_c, 0, 64, 56
1, 77096, Control_c, 0, 64, 56
1, 77109, Note_off_c, 0, 62, 30
1, 77117, Note_on_c, 0, 61, 36
1, 77125, Control_c, 0, 64, 55
1, 77140, Control_c, 0, 64, 55
1, 77170, Control_c, 0, 64, 54
1, 77228, Control_c, 0, 64, 54
1, 77399, Note_on_c, 0, 81, 45
1, 77406, Control_c, 0, 64, 53
1, 77480, Control_c, 0, 64, 53
1, 77510, Control_c, 0, 64, 52
1, 77511, Note_off_c, 0, 82, 46
1, 77526, Note_on_c, 0, 79, 54
1, 77540, Control_c, 0, 64, 52
1, 77546, Note_off_c, 0, 81, 57
1, 77554, Control_c, 0, 64, 51
1, 77584, Control_c, 0, 64, 51
1, 77599, Control_c, 0, 64, 50
1, 77614, Control_c, 0, 64, 50
1, 77628, Control_c, 0, 64, 49
1, 77632, Note_off_c, 0, 79, 61
1, 77643, Control_c, 0, 64, 49
1, 77651, Note_on_c, 0, 62, 42
1, 77653, Note_on_c, 0, 77, 49
1, 77658, Control_c, 0, 64, 48
1, 77680, Control_c, 0, 64, 48
1, 77684, Note_off_c, 0, 61, 43
1, 77686, Note_off_c, 0, 57, 41
1, 77695, Control_c, 0, 64, 47
1, 77710, Control_c, 0, 64, 47
1, 77725, Control_c, 0, 64, 46
1, 77740, Control_c, 0, 64, 45
1, 77754, Control_c, 0, 64, 44
1, 77769, Control_c, 0, 64, 43
1, 77784, Control_c, 0, 64, 43
1, 77787, Note_on_c, 0, 82, 53
1, 77799, Control_c, 0, 64, 42
1, 77829, Control_c, 0, 64, 42
1, 77850, Note_off_c, 0, 77, 33
1, 77910, Note_on_c, 0, 81, 57
1, 77928, Note_off_c, 0, 82, 49
1, 77944, Note_off_c, 0, 62, 56
1, 78011, Note_off_c, 0, 81, 62
1, 78037, Control_c, 0, 64, 41
1, 78038, Note_on_c, 0, 80, 58
1, 78051, Control_c, 0, 64, 41
1, 78066, Control_c, 0, 64, 40
1, 78081, Control_c, 0, 64, 39
1, 78096, Control_c, 0, 64, 37
1, 78111, Control_c, 0, 64, 36
1, 78125, Control_c, 0, 64, 34
1, 78140, Control_c, 0, 64, 31
1, 78151, Note_on_c, 0, 81, 59
1, 78166, Note_off_c, 0, 80, 57
1, 78170, Control_c, 0, 64, 0
1, 78265, Note_off_c, 0, 81, 62
1, 78273, Note_on_c, 0, 76, 61
1, 78387, Note_off_c, 0, 76, 51
1, 78388, Note_on_c, 0, 81, 63
1, 78395, Note_on_c, 0, 69, 59
1, 78431, Note_on_c, 0, 61, 46
1, 78543, Note_on_c, 0, 79, 50
1, 78544, Note_off_c, 0, 81, 59
1, 78598, Note_off_c, 0, 61, 45
1, 78641, Note_on_c, 0, 62, 48
1, 78649, Note_on_c, 0, 77, 56
1, 78650, Note_off_c, 0, 79, 58
1, 78688, Note_off_c, 0, 77, 61
1, 78783, Note_on_c, 0, 81, 56
1, 78908, Note_on_c, 0, 79, 56
1, 78923, Note_off_c, 0, 81, 54
1, 78927, Note_off_c, 0, 69, 61
1, 78947, Note_off_c, 0, 62, 40
1, 78986, Note_off_c, 0, 79, 60
1, 79015, Note_on_c, 0, 78, 55
1, 79130, Note_on_c, 0, 79, 45
1, 79156, Note_off_c, 0, 78, 37
1, 79245, Note_off_c, 0, 79, 55
1, 79275, Note_on_c, 0, 74, 43
1, 79370, Note_off_c, 0, 74, 43
1, 79382, Note_on_c, 0, 79, 45
1, 79384, Note_on_c, 0, 67, 47
1, 79409, Note_on_c, 0, 59, 39
1, 79516, Note_on_c, 0, 77, 53
1, 79521, Note_off_c, 0, 79, 54
1, 79534, Note_off_c, 0, 59, 56
1, 79599, Note_off_c, 0, 77, 61
1, 79626, Note_on_c, 0, 60, 45
1, 79764, Note_on_c, 0, 75, 58
1, 79874, Note_off_c, 0, 60, 65
1, 79875, Control_c, 0, 64, 38
1, 79883, Note_on_c, 0, 77, 73
1, 79890, Control_c, 0, 64, 51
1, 79904, Control_c, 0, 64, 59
1, 79927, Control_c, 0, 64, 61
1, 79942, Control_c, 0, 64, 62
1, 79950, Note_off_c, 0, 75, 60
1, 79956, Control_c, 0, 64, 63
1, 79970, Note_off_c, 0, 67, 37
1, 79971, Control_c, 0, 64, 63
1, 79986, Control_c, 0, 64, 64
1, 80014, Note_on_c, 0, 76, 65
1, 80067, Note_off_c, 0, 77, 59
1, 80104, Control_c, 0, 64, 62
1, 80119, Control_c, 0, 64, 58
1, 80134, Control_c, 0, 64, 49
1, 80138, Note_on_c, 0, 65, 46
1, 80148, Control_c, 0, 64, 31
1, 80156, Note_on_c, 0, 53, 28
1, 80163, Control_c, 0, 64, 0
1, 80224, Control_c, 0, 64, 37
1, 80239, Control_c, 0, 64, 50
1, 80253, Control_c, 0, 64, 60
1, 80257, Note_on_c, 0, 69, 52
1, 80268, Control_c, 0, 64, 63
1, 80273, Note_off_c, 0, 76, 61
1, 80283, Control_c, 0, 64, 64
1, 80298, Control_c, 0, 64, 65
1, 80313, Control_c, 0, 64, 66
1, 80327, Control_c, 0, 64, 67
1, 80342, Control_c, 0, 64, 67
1, 80357, Control_c, 0, 64, 68
1, 80390, Note_on_c, 0, 76, 61
1, 80428, Note_off_c, 0, 69, 38
1, 80429, Note_off_c, 0, 53, 37
1, 80450, Note_off_c, 0, 65, 38
1, 80461, Control_c, 0, 64, 67
1, 80476, Control_c, 0, 64, 66
1, 80491, Control_c, 0, 64, 64
1, 80505, Note_on_c, 0, 74, 52
1, 80506, Control_c, 0, 64, 61
1, 80520, Control_c, 0, 64, 57
1, 80531, Note_off_c, 0, 76, 53
1, 80535, Control_c, 0, 64, 53
1, 80550, Control_c, 0, 64, 49
1, 80565, Control_c, 0, 64, 43
1, 80579, Control_c, 0, 64, 33
1, 80594, Control_c, 0, 64, 0
1, 80610, Note_on_c, 0, 64, 46
1, 80619, Note_on_c, 0, 55, 33
1, 80676, Control_c, 0, 64, 31
1, 80691, Control_c, 0, 64, 40
1, 80706, Control_c, 0, 64, 49
1, 80721, Control_c, 0, 64, 57
1, 80735, Control_c, 0, 64, 60
1, 80745, Note_on_c, 0, 67, 50
1, 80750, Control_c, 0, 64, 61
1, 80751, Note_off_c, 0, 74, 59
1, 80824, Control_c, 0, 64, 61
1, 80839, Control_c, 0, 64, 60
1, 80853, Control_c, 0, 64, 60
1, 80861, Note_off_c, 0, 67, 50
1, 80868, Control_c, 0, 64, 59
1, 80874, Note_on_c, 0, 74, 56
1, 80883, Control_c, 0, 64, 59
1, 80897, Control_c, 0, 64, 57
1, 80912, Control_c, 0, 64, 56
1, 80927, Control_c, 0, 64, 55
1, 80942, Control_c, 0, 64, 53
1, 80957, Control_c, 0, 64, 52
1, 80971, Control_c, 0, 64, 50
1, 80986, Control_c, 0, 64, 48
1, 80987, Note_off_c, 0, 74, 55
1, 80991, Note_on_c, 0, 72, 52
1, 81002, Control_c, 0, 64, 46
1, 81017, Control_c, 0, 64, 43
1, 81032, Control_c, 0, 64, 41
1, 81047, Control_c, 0, 64, 36
1, 81062, Control_c, 0, 64, 0
1, 81094, Note_off_c, 0, 64, 44
1, 81102, Note_on_c, 0, 62, 43
1, 81165, Control_c, 0, 64, 35
1, 81180, Control_c, 0, 64, 44
1, 81195, Control_c, 0, 64, 53
1, 81209, Control_c, 0, 64, 57
1, 81223, Note_on_c, 0, 65, 46
1, 81224, Control_c, 0, 64, 59
1, 81239, Control_c, 0, 64, 60
1, 81254, Control_c, 0, 64, 61
1, 81260, Note_off_c, 0, 72, 44
1, 81269, Control_c, 0, 64, 62
1, 81284, Control_c, 0, 64, 62
1, 81299, Control_c, 0, 64, 63
1, 81314, Control_c, 0, 64, 64
1, 81329, Control_c, 0, 64, 64
1, 81343, Control_c, 0, 64, 66
1, 81343, Control_c, 0, 67, 106
1, 81357, Note_off_c, 0, 65, 36
1, 81358, Control_c, 0, 64, 67
1, 81358, Control_c, 0, 67, 73
1, 81361, Note_on_c, 0, 72, 53
1, 81373, Control_c, 0, 64, 70
1, 81373, Control_c, 0, 67, 0
1, 81376, Note_off_c, 0, 55, 55
1, 81388, Control_c, 0, 64, 72
1, 81402, Control_c, 0, 64, 74
1, 81424, Control_c, 0, 64, 76
1, 81439, Control_c, 0, 64, 79
1, 81454, Note_off_c, 0, 62, 62
1, 81454, Control_c, 0, 64, 81
1, 81469, Control_c, 0, 64, 84
1, 81484, Control_c, 0, 64, 87
1, 81485, Note_on_c, 0, 71, 65
1, 81499, Control_c, 0, 64, 88
1, 81507, Note_off_c, 0, 72, 35
1, 81513, Control_c, 0, 64, 90
1, 81528, Control_c, 0, 64, 90
1, 81543, Control_c, 0, 64, 91
1, 81546, Note_off_c, 0, 71, 54
1, 81600, Note_on_c, 0, 60, 65
1, 81603, Note_on_c, 0, 66, 79
1, 81620, Note_on_c, 0, 57, 60
1, 81647, Control_c, 0, 64, 90
1, 81662, Control_c, 0, 64, 87
1, 81676, Control_c, 0, 64, 83
1, 81691, Control_c, 0, 64, 78
1, 81692, Note_on_c, 0, 72, 71
1, 81706, Control_c, 0, 64, 70
1, 81720, Control_c, 0, 64, 63
1, 81731, Note_off_c, 0, 72, 59
1, 81735, Control_c, 0, 64, 53
1, 81750, Control_c, 0, 64, 41
1, 81763, Note_on_c, 0, 74, 79
1, 81765, Control_c, 0, 64, 0
1, 81800, Note_off_c, 0, 74, 53
1, 81847, Note_on_c, 0, 76, 72
1, 81898, Note_off_c, 0, 76, 54
1, 81922, Note_on_c, 0, 78, 77
1, 81958, Note_off_c, 0, 78, 64
1, 82002, Note_on_c, 0, 79, 77
1, 82060, Note_off_c, 0, 60, 55
1, 82066, Note_off_c, 0, 57, 62
1, 82070, Note_on_c, 0, 81, 84
1, 82074, Note_off_c, 0, 79, 60
1, 82088, Note_off_c, 0, 66, 50
1, 82116, Note_off_c, 0, 81, 63
1, 82151, Note_on_c, 0, 83, 87
1, 82200, Note_off_c, 0, 83, 64
1, 82234, Note_on_c, 0, 84, 82
1, 82262, Control_c, 0, 67, 44
1, 82277, Control_c, 0, 67, 57
1, 82291, Note_on_c, 0, 66, 75
1, 82292, Control_c, 0, 67, 76
1, 82294, Note_on_c, 0, 60, 61
1, 82295, Note_on_c, 0, 57, 59
1, 82300, Note_on_c, 0, 86, 83
1, 82306, Control_c, 0, 67, 111
1, 82307, Note_off_c, 0, 84, 64
1, 82321, Control_c, 0, 67, 127
1, 82333, Note_off_c, 0, 57, 64
1, 82336, Note_off_c, 0, 66, 60
1, 82336, Note_off_c, 0, 60, 62
1, 82354, Note_off_c, 0, 86, 60
1, 82378, Note_on_c, 0, 88, 79
1, 82420, Note_off_c, 0, 88, 66
1, 82467, Note_on_c, 0, 84, 60
1, 82486, Note_off_c, 0, 84, 65
1, 82554, Note_on_c, 0, 55, 41
1, 82556, Note_on_c, 0, 64, 39
1, 82559, Note_on_c, 0, 67, 32
1, 82562, Note_on_c, 0, 60, 14
1, 82637, Note_on_c, 0, 88, 52
1, 82717, Note_on_c, 0, 86, 54
1, 82764, Note_off_c, 0, 88, 41
1, 82792, Note_on_c, 0, 84, 57
1, 82810, Note_off_c, 0, 86, 51
1, 82868, Note_on_c, 0, 83, 63
1, 82878, Note_off_c, 0, 84, 59
1, 82906, Note_off_c, 0, 83, 60
1, 82954, Note_on_c, 0, 81, 57
1, 82986, Note_off_c, 0, 81, 61
1, 82988, Note_off_c, 0, 64, 62
1, 83004, Note_off_c, 0, 60, 60
1, 83004, Note_off_c, 0, 67, 56
1, 83008, Note_off_c, 0, 55, 61
1, 83024, Note_on_c, 0, 79, 59
1, 83090, Note_off_c, 0, 79, 62
1, 83107, Note_on_c, 0, 77, 62
1, 83147, Note_off_c, 0, 77, 60
1, 83178, Note_on_c, 0, 76, 63
1, 83213, Note_off_c, 0, 76, 56
1, 83248, Note_on_c, 0, 74, 64
1, 83256, Note_on_c, 0, 64, 51
1, 83259, Note_on_c, 0, 55, 49
1, 83259, Note_on_c, 0, 60, 50
1, 83279, Note_off_c, 0, 64, 60
1, 83284, Note_off_c, 0, 60, 57
1, 83285, Note_off_c, 0, 55, 55
1, 83297, Note_off_c, 0, 74, 59
1, 83311, Note_on_c, 0, 76, 65
1, 83338, Control_c, 0, 67, 122
1, 83349, Note_off_c, 0, 76, 66
1, 83353, Control_c, 0, 67, 98
1, 83367, Control_c, 0, 67, 68
1, 83382, Control_c, 0, 67, 0
1, 83397, Note_on_c, 0, 72, 70
1, 83458, Note_off_c, 0, 72, 61
1, 83481, Note_on_c, 0, 64, 90
1, 83484, Note_on_c, 0, 54, 77
1, 83488, Note_on_c, 0, 60, 79
1, 83489, Note_on_c, 0, 57, 71
1, 83570, Note_on_c, 0, 72, 81
1, 83642, Note_off_c, 0, 72, 38
1, 83642, Note_on_c, 0, 74, 86
1, 83709, Note_off_c, 0, 74, 0
1, 83731, Note_on_c, 0, 76, 84
1, 83740, Poly_aftertouch_c, 0, 74, 0
1, 83785, Note_off_c, 0, 76, 60
1, 83810, Note_on_c, 0, 78, 85
1, 83842, Note_off_c, 0, 78, 66
1, 83884, Note_on_c, 0, 79, 82
1, 83955, Note_off_c, 0, 79, 42
1, 83956, Note_on_c, 0, 81, 92
1, 83989, Note_off_c, 0, 60, 59
1, 83990, Note_off_c, 0, 57, 60
1, 84000, Note_off_c, 0, 54, 57
1, 84002, Note_off_c, 0, 81, 65
1, 84006, Note_off_c, 0, 64, 54
1, 84033, Note_on_c, 0, 83, 95
1, 84083, Note_off_c, 0, 83, 65
1, 84105, Note_on_c, 0, 84, 90
1, 84177, Note_on_c, 0, 86, 97
1, 84189, Note_on_c, 0, 64, 74
1, 84190, Note_off_c, 0, 84, 59
1, 84192, Note_on_c, 0, 54, 71
1, 84192, Note_on_c, 0, 60, 71
1, 84214, Note_off_c, 0, 64, 68
1, 84218, Note_off_c, 0, 60, 68
1, 84232, Note_off_c, 0, 54, 61
1, 84255, Note_on_c, 0, 88, 90
1, 84256, Note_off_c, 0, 86, 54
1, 84280, Control_c, 0, 67, 52
1, 84295, Control_c, 0, 67, 88
1, 84307, Note_off_c, 0, 88, 67
1, 84310, Control_c, 0, 67, 119
1, 84324, Control_c, 0, 67, 127
1, 84331, Note_on_c, 0, 84, 77
1, 84366, Note_off_c, 0, 84, 66
1, 84435, Note_on_c, 0, 64, 52
1, 84437, Note_on_c, 0, 60, 44
1, 84469, Note_on_c, 0, 55, 30
1, 84530, Note_on_c, 0, 88, 59
1, 84613, Note_on_c, 0, 86, 61
1, 84678, Note_off_c, 0, 88, 38
1, 84682, Note_on_c, 0, 84, 68
1, 84739, Note_off_c, 0, 86, 52
1, 84769, Note_on_c, 0, 83, 74
1, 84805, Note_off_c, 0, 84, 62
1, 84819, Control_c, 0, 64, 31
1, 84831, Note_off_c, 0, 83, 58
1, 84834, Control_c, 0, 64, 39
1, 84845, Note_on_c, 0, 81, 70
1, 84849, Control_c, 0, 64, 47
1, 84864, Control_c, 0, 64, 56
1, 84879, Control_c, 0, 64, 59
1, 84893, Control_c, 0, 64, 60
1, 84908, Note_off_c, 0, 60, 64
1, 84908, Note_off_c, 0, 81, 40
1, 84908, Control_c, 0, 64, 61
1, 84914, Note_on_c, 0, 79, 76
1, 84914, Note_off_c, 0, 64, 65
1, 84918, Note_off_c, 0, 55, 57
1, 84937, Control_c, 0, 64, 61
1, 84967, Control_c, 0, 67, 112
1, 84982, Control_c, 0, 67, 72
1, 84997, Note_on_c, 0, 77, 78
1, 84998, Note_off_c, 0, 79, 63
1, 84998, Control_c, 0, 67, 0
1, 85051, Note_off_c, 0, 77, 63
1, 85064, Note_on_c, 0, 76, 73
1, 85116, Control_c, 0, 64, 62
1, 85131, Control_c, 0, 64, 64
1, 85132, Note_on_c, 0, 64, 75
1, 85138, Note_on_c, 0, 74, 80
1, 85143, Note_on_c, 0, 55, 63
1, 85144, Note_on_c, 0, 60, 63
1, 85146, Control_c, 0, 64, 66
1, 85147, Note_off_c, 0, 76, 55
1, 85168, Control_c, 0, 64, 69
1, 85183, Control_c, 0, 64, 74
1, 85198, Control_c, 0, 64, 79
1, 85213, Control_c, 0, 64, 84
1, 85219, Note_off_c, 0, 60, 63
1, 85228, Note_on_c, 0, 76, 80
1, 85228, Control_c, 0, 64, 93
1, 85232, Note_off_c, 0, 74, 63
1, 85242, Control_c, 0, 64, 115
1, 85253, Note_off_c, 0, 55, 61
1, 85257, Control_c, 0, 64, 127
1, 85278, Note_off_c, 0, 76, 65
1, 85311, Note_on_c, 0, 72, 83
1, 85311, Note_off_c, 0, 64, 55
1, 85441, Note_off_c, 0, 72, 38
1, 85469, Note_on_c, 0, 66, 95
1, 85472, Note_on_c, 0, 63, 88
1, 85483, Note_on_c, 0, 60, 69
1, 85490, Note_on_c, 0, 56, 76
1, 85553, Control_c, 0, 64, 97
1, 85568, Control_c, 0, 64, 81
1, 85582, Control_c, 0, 64, 67
1, 85593, Note_on_c, 0, 72, 76
1, 85597, Control_c, 0, 64, 53
1, 85612, Control_c, 0, 64, 31
1, 85627, Control_c, 0, 64, 0
1, 85669, Note_on_c, 0, 74, 83
1, 85682, Note_off_c, 0, 72, 63
1, 85748, Note_on_c, 0, 75, 80
1, 85762, Note_off_c, 0, 74, 63
1, 85806, Control_c, 0, 64, 39
1, 85820, Note_on_c, 0, 78, 83
1, 85820, Note_off_c, 0, 75, 62
1, 85821, Control_c, 0, 64, 53
1, 85836, Control_c, 0, 64, 62
1, 85851, Control_c, 0, 64, 67
1, 85864, Note_off_c, 0, 78, 66
1, 85865, Control_c, 0, 64, 71
1, 85880, Control_c, 0, 64, 76
1, 85895, Control_c, 0, 64, 81
1, 85895, Note_on_c, 0, 79, 86
1, 85916, Control_c, 0, 64, 87
1, 85931, Control_c, 0, 64, 93
1, 85946, Control_c, 0, 64, 99
1, 85962, Control_c, 0, 64, 104
1, 85970, Note_off_c, 0, 79, 54
1, 85970, Note_on_c, 0, 80, 89
1, 85977, Control_c, 0, 64, 110
1, 85991, Control_c, 0, 64, 115
1, 86006, Control_c, 0, 64, 118
1, 86009, Note_off_c, 0, 56, 57
1, 86009, Note_off_c, 0, 63, 56
1, 86019, Note_off_c, 0, 66, 54
1, 86021, Control_c, 0, 64, 120
1, 86025, Note_off_c, 0, 80, 61
1, 86030, Note_off_c, 0, 60, 39
1, 86038, Note_on_c, 0, 83, 95
1, 86086, Note_off_c, 0, 83, 64
1, 86110, Control_c, 0, 64, 115
1, 86115, Note_on_c, 0, 84, 91
1, 86125, Control_c, 0, 64, 103
1, 86140, Control_c, 0, 64, 87
1, 86155, Control_c, 0, 64, 70
1, 86170, Control_c, 0, 64, 51
1, 86184, Note_on_c, 0, 86, 90
1, 86185, Control_c, 0, 64, 0
1, 86189, Note_on_c, 0, 63, 64
1, 86190, Note_on_c, 0, 66, 79
1, 86202, Note_on_c, 0, 56, 67
1, 86202, Note_off_c, 0, 84, 57
1, 86204, Note_on_c, 0, 60, 57
1, 86228, Note_off_c, 0, 63, 63
1, 86244, Control_c, 0, 64, 32
1, 86249, Note_off_c, 0, 60, 58
1, 86252, Note_on_c, 0, 87, 85
1, 86259, Control_c, 0, 64, 52
1, 86268, Note_off_c, 0, 86, 60
1, 86273, Control_c, 0, 64, 65
1, 86275, Note_off_c, 0, 66, 62
1, 86282, Note_on_c, 0, 88, 62
1, 86288, Control_c, 0, 64, 78
1, 86303, Control_c, 0, 64, 103
1, 86304, Note_off_c, 0, 88, 61
1, 86317, Control_c, 0, 64, 127
1, 86318, Note_off_c, 0, 87, 65
1, 86322, Note_on_c, 0, 84, 81
1, 86337, Note_off_c, 0, 56, 54
1, 86365, Note_off_c, 0, 84, 67
1, 86451, Control_c, 0, 64, 98
1, 86462, Note_on_c, 0, 88, 74
1, 86465, Control_c, 0, 64, 73
1, 86467, Note_on_c, 0, 64, 54
1, 86468, Note_on_c, 0, 60, 41
1, 86468, Note_on_c, 0, 67, 53
1, 86474, Note_on_c, 0, 55, 54
1, 86480, Control_c, 0, 64, 53
1, 86495, Control_c, 0, 64, 0
1, 86539, Note_on_c, 0, 86, 75
1, 86600, Control_c, 0, 64, 42
1, 86608, Note_on_c, 0, 84, 81
1, 86614, Control_c, 0, 64, 56
1, 86623, Note_off_c, 0, 88, 60
1, 86629, Control_c, 0, 64, 63
1, 86644, Control_c, 0, 64, 68
1, 86667, Control_c, 0, 64, 74
1, 86672, Note_off_c, 0, 86, 63
1, 86676, Note_on_c, 0, 83, 82
1, 86682, Control_c, 0, 64, 80
1, 86682, Note_off_c, 0, 55, 55
1, 86696, Control_c, 0, 64, 87
1, 86705, Note_off_c, 0, 64, 59
1, 86710, Control_c, 0, 64, 92
1, 86712, Note_off_c, 0, 67, 38
1, 86712, Note_off_c, 0, 84, 64
1, 86725, Control_c, 0, 64, 94
1, 86736, Note_on_c, 0, 81, 77
1, 86739, Note_off_c, 0, 83, 65
1, 86739, Control_c, 0, 64, 95
1, 86758, Note_off_c, 0, 60, 35
1, 86763, Note_off_c, 0, 81, 62
1, 86784, Control_c, 0, 64, 94
1, 86792, Note_on_c, 0, 79, 79
1, 86799, Control_c, 0, 64, 94
1, 86814, Control_c, 0, 64, 91
1, 86828, Control_c, 0, 64, 85
1, 86843, Control_c, 0, 64, 78
1, 86855, Note_on_c, 0, 77, 80
1, 86858, Control_c, 0, 64, 69
1, 86871, Note_off_c, 0, 79, 64
1, 86873, Control_c, 0, 64, 58
1, 86888, Control_c, 0, 64, 38
1, 86903, Control_c, 0, 64, 0
1, 86903, Note_off_c, 0, 77, 65
1, 86913, Note_on_c, 0, 76, 75
1, 86969, Note_off_c, 0, 76, 62
1, 86970, Note_on_c, 0, 84, 78
1, 86977, Control_c, 0, 64, 30
1, 86992, Control_c, 0, 64, 44
1, 87007, Control_c, 0, 64, 56
1, 87021, Control_c, 0, 64, 62
1, 87032, Note_on_c, 0, 83, 79
1, 87036, Control_c, 0, 64, 65
1, 87051, Control_c, 0, 64, 67
1, 87066, Control_c, 0, 64, 70
1, 87081, Control_c, 0, 64, 74
1, 87083, Note_on_c, 0, 81, 83
1, 87095, Control_c, 0, 64, 77
1, 87101, Note_off_c, 0, 84, 51
1, 87110, Control_c, 0, 64, 80
1, 87125, Control_c, 0, 64, 84
1, 87132, Note_off_c, 0, 83, 63
1, 87139, Control_c, 0, 64, 88
1, 87140, Note_on_c, 0, 79, 74
1, 87154, Control_c, 0, 64, 93
1, 87159, Note_off_c, 0, 81, 65
1, 87169, Control_c, 0, 64, 100
1, 87184, Control_c, 0, 64, 108
1, 87186, Note_on_c, 0, 77, 79
1, 87186, Note_off_c, 0, 79, 65
1, 87199, Control_c, 0, 64, 120
1, 87207, Note_off_c, 0, 77, 72
1, 87213, Control_c, 0, 64, 127
1, 87236, Note_on_c, 0, 76, 84
1, 87294, Note_on_c, 0, 74, 88
1, 87317, Note_off_c, 0, 76, 62
1, 87349, Note_off_c, 0, 74, 62
1, 87350, Note_on_c, 0, 72, 74
1, 87400, Note_on_c, 0, 60, 85
1, 87420, Note_on_c, 0, 55, 74
1, 87424, Note_off_c, 0, 72, 60
1, 87425, Note_on_c, 0, 76, 80
1, 87474, Control_c, 0, 64, 90
1, 87489, Control_c, 0, 64, 69
1, 87498, Note_off_c, 0, 76, 61
1, 87504, Control_c, 0, 64, 46
1, 87508, Note_on_c, 0, 74, 71
1, 87518, Control_c, 0, 64, 0
1, 87547, Note_off_c, 0, 74, 59
1, 87553, Note_on_c, 0, 76, 66
1, 87593, Note_off_c, 0, 76, 63
1, 87606, Note_on_c, 0, 74, 58
1, 87607, Control_c, 0, 64, 43
1, 87622, Control_c, 0, 64, 57
1, 87630, Note_off_c, 0, 74, 61
1, 87636, Control_c, 0, 64, 62
1, 87642, Note_on_c, 0, 76, 65
1, 87651, Control_c, 0, 64, 64
1, 87666, Control_c, 0, 64, 64
1, 87677, Note_off_c, 0, 76, 63
1, 87681, Control_c, 0, 64, 65
1, 87691, Note_on_c, 0, 74, 72
1, 87696, Control_c, 0, 64, 66
1, 87711, Control_c, 0, 64, 68
1, 87716, Note_off_c, 0, 74, 63
1, 87726, Note_on_c, 0, 76, 59
1, 87726, Control_c, 0, 64, 70
1, 87741, Control_c, 0, 64, 71
1, 87755, Note_off_c, 0, 76, 65
1, 87755, Control_c, 0, 64, 72
1, 87770, Control_c, 0, 64, 73
1, 87772, Note_on_c, 0, 74, 74
1, 87785, Control_c, 0, 64, 73
1, 87789, Note_off_c, 0, 74, 62
1, 87800, Control_c, 0, 64, 75
1, 87815, Control_c, 0, 64, 76
1, 87815, Note_on_c, 0, 76, 64
1, 87830, Control_c, 0, 64, 78
1, 87836, Note_off_c, 0, 76, 57
1, 87844, Control_c, 0, 64, 78
1, 87856, Note_on_c, 0, 74, 73
1, 87859, Control_c, 0, 64, 79
1, 87887, Note_off_c, 0, 74, 60
1, 87899, Note_on_c, 0, 76, 74
1, 87903, Control_c, 0, 64, 79
1, 87918, Control_c, 0, 64, 80
1, 87926, Note_off_c, 0, 76, 60
1, 87933, Control_c, 0, 64, 83
1, 87948, Control_c, 0, 64, 88
1, 87950, Note_off_c, 0, 60, 58
1, 87954, Note_on_c, 0, 74, 72
1, 87962, Control_c, 0, 64, 93
1, 87964, Note_on_c, 0, 59, 55
1, 87977, Control_c, 0, 64, 100
1, 87982, Note_off_c, 0, 74, 60
1, 87992, Control_c, 0, 64, 107
1, 87996, Note_on_c, 0, 76, 73
1, 88007, Control_c, 0, 64, 120
1, 88021, Note_off_c, 0, 76, 63
1, 88022, Control_c, 0, 64, 127
1, 88054, Note_on_c, 0, 74, 56
1, 88076, Note_off_c, 0, 74, 58
1, 88108, Note_on_c, 0, 76, 53
1, 88114, Note_off_c, 0, 59, 63
1, 88140, Note_on_c, 0, 74, 74
1, 88171, Note_off_c, 0, 55, 61
1, 88175, Note_off_c, 0, 74, 0
1, 88197, Note_off_c, 0, 76, 65
1, 88220, Poly_aftertouch_c, 0, 74, 0
1, 88262, Note_on_c, 0, 72, 68
1, 88289, Note_off_c, 0, 72, 68
1, 88345, Note_on_c, 0, 74, 64
1, 88403, Note_off_c, 0, 74, 60
1, 88445, Control_c, 0, 67, 49
1, 88459, Control_c, 0, 67, 67
1, 88472, Note_on_c, 0, 60, 69
1, 88474, Control_c, 0, 67, 89
1, 88489, Control_c, 0, 67, 116
1, 88491, Note_on_c, 0, 48, 55
1, 88495, Note_on_c, 0, 36, 58
1, 88504, Control_c, 0, 64, 103
1, 88504, Control_c, 0, 67, 127
1, 88519, Control_c, 0, 64, 81
1, 88534, Control_c, 0, 64, 65
1, 88537, Note_off_c, 0, 60, 59
1, 88548, Control_c, 0, 64, 48
1, 88563, Control_c, 0, 64, 37
1, 88576, Note_on_c, 0, 64, 69
1, 88578, Control_c, 0, 64, 37
1, 88593, Control_c, 0, 64, 41
1, 88608, Control_c, 0, 64, 48
1, 88622, Note_off_c, 0, 64, 65
1, 88623, Control_c, 0, 64, 56
1, 88638, Control_c, 0, 64, 61
1, 88653, Control_c, 0, 64, 65
1, 88656, Note_on_c, 0, 67, 77
1, 88667, Control_c, 0, 64, 67
1, 88678, Note_off_c, 0, 67, 70
1, 88682, Control_c, 0, 64, 68
1, 88739, Note_on_c, 0, 72, 77
1, 88797, Note_off_c, 0, 72, 58
1, 88814, Note_on_c, 0, 76, 66
1, 88830, Control_c, 0, 64, 67
1, 88844, Control_c, 0, 64, 67
1, 88849, Note_off_c, 0, 76, 56
1, 88859, Control_c, 0, 64, 66
1, 88874, Control_c, 0, 64, 66
1, 88883, Note_on_c, 0, 79, 67
1, 88889, Control_c, 0, 64, 64
1, 88911, Control_c, 0, 64, 63
1, 88925, Note_off_c, 0, 79, 53
1, 88926, Control_c, 0, 64, 60
1, 88941, Control_c, 0, 64, 58
1, 88956, Control_c, 0, 64, 55
1, 88969, Note_on_c, 0, 84, 76
1, 88971, Control_c, 0, 64, 53
1, 88987, Control_c, 0, 64, 52
1, 89002, Control_c, 0, 64, 51
1, 89046, Control_c, 0, 64, 51
1, 89060, Note_on_c, 0, 79, 54
1, 89094, Note_off_c, 0, 84, 60
1, 89125, Note_off_c, 0, 79, 63
1, 89133, Note_on_c, 0, 76, 63
1, 89207, Note_on_c, 0, 83, 77
1, 89219, Note_off_c, 0, 76, 50
1, 89223, Control_c, 0, 64, 52
1, 89238, Control_c, 0, 64, 52
1, 89253, Control_c, 0, 64, 53
1, 89268, Control_c, 0, 64, 54
1, 89282, Control_c, 0, 64, 56
1, 89297, Note_on_c, 0, 77, 59
1, 89297, Control_c, 0, 64, 57
1, 89312, Control_c, 0, 64, 58
1, 89327, Control_c, 0, 64, 59
1, 89335, Note_off_c, 0, 83, 61
1, 89356, Control_c, 0, 64, 59
1, 89360, Note_off_c, 0, 77, 64
1, 89368, Note_on_c, 0, 74, 63
1, 89401, Control_c, 0, 64, 59
1, 89416, Control_c, 0, 64, 58
1, 89431, Control_c, 0, 64, 57
1, 89445, Note_on_c, 0, 81, 76
1, 89446, Control_c, 0, 64, 56
1, 89448, Note_off_c, 0, 74, 52
1, 89458, Note_off_c, 0, 48, 54
1, 89460, Control_c, 0, 64, 54
1, 89475, Control_c, 0, 64, 50
1, 89488, Note_off_c, 0, 36, 58
1, 89490, Control_c, 0, 64, 46
1, 89505, Control_c, 0, 64, 42
1, 89520, Control_c, 0, 64, 40
1, 89533, Note_on_c, 0, 76, 63
1, 89534, Control_c, 0, 64, 39
1, 89549, Control_c, 0, 64, 39
1, 89564, Control_c, 0, 64, 38
1, 89571, Note_off_c, 0, 81, 63
1, 89579, Control_c, 0, 64, 37
1, 89594, Control_c, 0, 64, 36
1, 89606, Note_off_c, 0, 76, 61
1, 89608, Control_c, 0, 64, 35
1, 89622, Note_on_c, 0, 72, 52
1, 89623, Control_c, 0, 64, 34
1, 89660, Control_c, 0, 64, 34
1, 89698, Note_on_c, 0, 79, 70
1, 89707, Note_off_c, 0, 72, 54
1, 89786, Note_on_c, 0, 74, 71
1, 89803, Note_off_c, 0, 79, 58
1, 89844, Note_off_c, 0, 74, 64
1, 89863, Note_on_c, 0, 71, 57
1, 89914, Control_c, 0, 64, 34
1, 89934, Note_on_c, 0, 77, 76
1, 89949, Note_off_c, 0, 71, 51
1, 89988, Control_c, 0, 64, 35
1, 90028, Note_on_c, 0, 72, 65
1, 90042, Note_off_c, 0, 77, 56
1, 90077, Note_off_c, 0, 72, 61
1, 90102, Note_on_c, 0, 69, 68
1, 90170, Note_off_c, 0, 69, 58
1, 90176, Note_on_c, 0, 76, 71
1, 90180, Control_c, 0, 64, 34
1, 90225, Control_c, 0, 64, 34
1, 90232, Note_off_c, 0, 76, 63
1, 90239, Control_c, 0, 64, 32
1, 90242, Note_on_c, 0, 71, 71
1, 90269, Control_c, 0, 64, 29
1, 90283, Control_c, 0, 64, 0
1, 90306, Note_off_c, 0, 71, 62
1, 90322, Note_on_c, 0, 67, 72
1, 90347, Note_off_c, 0, 67, 68
1, 90391, Note_on_c, 0, 64, 72
1, 90473, Note_off_c, 0, 64, 61
1, 90474, Note_on_c, 0, 70, 71
1, 90548, Note_on_c, 0, 73, 76
1, 90587, Note_off_c, 0, 70, 44
1, 90623, Note_on_c, 0, 65, 67
1, 90626, Note_on_c, 0, 53, 84
1, 90658, Note_off_c, 0, 53, 66
1, 90695, Note_off_c, 0, 73, 60
1, 90704, Note_on_c, 0, 69, 66
1, 90751, Note_off_c, 0, 65, 36
1, 90762, Note_off_c, 0, 69, 63
1, 90784, Note_on_c, 0, 74, 64
1, 90865, Note_on_c, 0, 64, 72
1, 90866, Note_on_c, 0, 55, 76
1, 90879, Note_off_c, 0, 74, 56
1, 90893, Note_off_c, 0, 55, 68
1, 90954, Note_on_c, 0, 67, 62
1, 90961, Note_off_c, 0, 64, 52
1, 91007, Note_off_c, 0, 67, 59
1, 91037, Note_on_c, 0, 72, 57
1, 91091, Note_on_c, 0, 62, 53
1, 91095, Note_on_c, 0, 43, 57
1, 91101, Note_off_c, 0, 72, 59
1, 91120, Note_off_c, 0, 43, 58
1, 91174, Note_off_c, 0, 62, 49
1, 91192, Note_on_c, 0, 65, 58
1, 91237, Note_off_c, 0, 65, 58
1, 91274, Note_on_c, 0, 71, 46
1, 91325, Note_on_c, 0, 60, 55
1, 91353, Note_on_c, 0, 36, 48
1, 91362, Note_on_c, 0, 48, 40
1, 91368, Note_off_c, 0, 60, 62
1, 91376, Note_off_c, 0, 71, 58
1, 91401, Note_on_c, 0, 64, 62
1, 91439, Note_off_c, 0, 64, 63
1, 91482, Note_on_c, 0, 67, 61
1, 91504, Note_off_c, 0, 67, 64
1, 91559, Note_on_c, 0, 72, 68
1, 91602, Note_off_c, 0, 72, 54
1, 91637, Note_on_c, 0, 76, 52
1, 91672, Note_off_c, 0, 76, 49
1, 91710, Note_on_c, 0, 79, 47
1, 91737, Note_off_c, 0, 79, 54
1, 91785, Note_on_c, 0, 84, 53
1, 91864, Note_on_c, 0, 79, 48
1, 91865, Note_off_c, 0, 84, 56
1, 91914, Note_off_c, 0, 79, 60
1, 91941, Note_on_c, 0, 76, 52
1, 92007, Note_off_c, 0, 76, 53
1, 92021, Note_on_c, 0, 83, 49
1, 92100, Note_on_c, 0, 77, 54
1, 92120, Note_off_c, 0, 83, 47
1, 92159, Note_off_c, 0, 77, 61
1, 92181, Note_on_c, 0, 74, 57
1, 92216, Note_off_c, 0, 36, 60
1, 92226, Note_off_c, 0, 48, 46
1, 92233, Note_off_c, 0, 74, 54
1, 92247, Note_on_c, 0, 81, 49
1, 92325, Note_on_c, 0, 76, 55
1, 92335, Note_off_c, 0, 81, 46
1, 92380, Note_off_c, 0, 76, 56
1, 92404, Note_on_c, 0, 72, 50
1, 92450, Note_off_c, 0, 72, 55
1, 92481, Note_on_c, 0, 79, 45
1, 92561, Note_off_c, 0, 79, 54
1, 92564, Note_on_c, 0, 74, 54
1, 92614, Note_off_c, 0, 74, 56
1, 92642, Note_on_c, 0, 71, 48
1, 92702, Note_off_c, 0, 71, 55
1, 92725, Note_on_c, 0, 77, 53
1, 92784, Note_on_c, 0, 72, 57
1, 92802, Note_off_c, 0, 77, 54
1, 92835, Note_off_c, 0, 72, 57
1, 92875, Note_on_c, 0, 69, 54
1, 92916, Note_off_c, 0, 69, 62
1, 92941, Note_on_c, 0, 76, 50
1, 92972, Note_off_c, 0, 76, 55
1, 93011, Note_on_c, 0, 71, 60
1, 93059, Note_off_c, 0, 71, 60
1, 93106, Note_on_c, 0, 67, 49
1, 93130, Note_off_c, 0, 67, 58
1, 93171, Note_on_c, 0, 64, 60
1, 93236, Note_off_c, 0, 64, 61
1, 93248, Note_on_c, 0, 70, 55
1, 93299, Note_off_c, 0, 70, 52
1, 93324, Note_on_c, 0, 73, 59
1, 93379, Note_on_c, 0, 53, 61
1, 93392, Note_on_c, 0, 65, 55
1, 93416, Note_off_c, 0, 53, 65
1, 93460, Note_off_c, 0, 65, 49
1, 93464, Note_off_c, 0, 73, 60
1, 93484, Note_on_c, 0, 69, 55
1, 93518, Note_off_c, 0, 69, 63
1, 93545, Note_on_c, 0, 74, 53
1, 93617, Note_off_c, 0, 74, 54
1, 93623, Note_on_c, 0, 64, 57
1, 93631, Note_on_c, 0, 55, 58
1, 93661, Note_off_c, 0, 55, 65
1, 93691, Note_off_c, 0, 64, 52
1, 93702, Note_on_c, 0, 67, 57
1, 93751, Note_off_c, 0, 67, 58
1, 93777, Note_on_c, 0, 72, 55
1, 93844, Note_on_c, 0, 62, 51
1, 93864, Note_on_c, 0, 43, 62
1, 93895, Note_off_c, 0, 43, 64
1, 93902, Note_off_c, 0, 62, 53
1, 93929, Note_on_c, 0, 65, 44
1, 93935, Note_off_c, 0, 72, 35
1, 93962, Note_off_c, 0, 65, 56
1, 94016, Note_on_c, 0, 71, 53
1, 94096, Note_on_c, 0, 64, 55
1, 94108, Note_on_c, 0, 48, 70
1, 94113, Note_off_c, 0, 71, 59
1, 94180, Note_off_c, 0, 64, 60
1, 94194, Note_on_c, 0, 67, 54
1, 94263, Note_off_c, 0, 67, 60
1, 94272, Note_on_c, 0, 72, 47
1, 94355, Note_on_c, 0, 63, 57
1, 94400, Note_off_c, 0, 72, 36
1, 94434, Note_on_c, 0, 66, 62
1, 94456, Note_off_c, 0, 63, 56
1, 94511, Note_on_c, 0, 72, 61
1, 94513, Note_off_c, 0, 66, 57
1, 94599, Note_on_c, 0, 64, 60
1, 94615, Note_off_c, 0, 72, 38
1, 94683, Note_on_c, 0, 67, 59
1, 94698, Note_off_c, 0, 64, 60
1, 94756, Note_off_c, 0, 67, 59
1, 94766, Note_on_c, 0, 72, 48
1, 94855, Note_on_c, 0, 63, 57
1, 94869, Note_off_c, 0, 72, 56
1, 94944, Note_on_c, 0, 66, 57
1, 94954, Note_off_c, 0, 63, 56
1, 95033, Note_off_c, 0, 66, 54
1, 95035, Note_on_c, 0, 72, 50
1, 95097, Note_off_c, 0, 72, 57
1, 95100, Note_off_c, 0, 48, 64
1, 95100, Note_on_c, 0, 64, 60
1, 95189, Note_on_c, 0, 67, 54
1, 95199, Note_off_c, 0, 64, 58
1, 95221, Note_off_c, 0, 67, 65
1, 95244, Note_on_c, 0, 72, 48
1, 95318, Note_on_c, 0, 53, 66
1, 95318, Note_off_c, 0, 72, 56
1, 95325, Note_on_c, 0, 69, 65
1, 95342, Note_off_c, 0, 53, 66
1, 95405, Note_on_c, 0, 65, 62
1, 95407, Note_off_c, 0, 69, 57
1, 95447, Note_off_c, 0, 65, 58
1, 95488, Note_on_c, 0, 62, 62
1, 95554, Note_on_c, 0, 67, 67
1, 95556, Note_off_c, 0, 62, 53
1, 95557, Note_on_c, 0, 55, 68
1, 95607, Note_off_c, 0, 55, 61
1, 95619, Note_off_c, 0, 67, 63
1, 95634, Note_on_c, 0, 64, 67
1, 95668, Note_off_c, 0, 64, 68
1, 95715, Note_on_c, 0, 60, 65
1, 95780, Note_off_c, 0, 60, 58
1, 95789, Note_on_c, 0, 65, 61
1, 95795, Note_on_c, 0, 43, 56
1, 95824, Note_off_c, 0, 43, 62
1, 95844, Control_c, 0, 67, 107
1, 95859, Control_c, 0, 67, 70
1, 95861, Note_on_c, 0, 62, 63
1, 95866, Note_off_c, 0, 65, 55
1, 95874, Control_c, 0, 67, 37
1, 95889, Control_c, 0, 67, 0
1, 95920, Note_off_c, 0, 62, 61
1, 95953, Note_on_c, 0, 59, 56
1, 95983, Note_off_c, 0, 59, 62
1, 96021, Note_on_c, 0, 55, 58
1, 96029, Note_on_c, 0, 48, 70
1, 96039, Note_on_c, 0, 36, 55
1, 96101, Note_on_c, 0, 60, 54
1, 96102, Note_off_c, 0, 55, 58
1, 96185, Note_on_c, 0, 64, 55
1, 96203, Note_off_c, 0, 60, 50
1, 96276, Note_on_c, 0, 54, 60
1, 96343, Note_on_c, 0, 60, 59
1, 96343, Note_off_c, 0, 64, 54
1, 96381, Note_off_c, 0, 54, 52
1, 96445, Note_on_c, 0, 63, 66
1, 96463, Note_off_c, 0, 60, 57
1, 96522, Note_on_c, 0, 55, 67
1, 96528, Note_off_c, 0, 63, 58
1, 96602, Note_on_c, 0, 60, 61
1, 96602, Note_off_c, 0, 55, 60
1, 96678, Note_on_c, 0, 64, 53
1, 96686, Note_off_c, 0, 60, 55
1, 96750, Note_on_c, 0, 54, 69
1, 96788, Note_off_c, 0, 64, 49
1, 96831, Note_on_c, 0, 60, 62
1, 96841, Note_off_c, 0, 54, 59
1, 96910, Note_on_c, 0, 63, 72
1, 96938, Note_off_c, 0, 60, 60
1, 96980, Note_off_c, 0, 48, 43
1, 96993, Note_on_c, 0, 55, 70
1, 97023, Note_off_c, 0, 63, 52
1, 97026, Note_off_c, 0, 36, 62
1, 97064, Note_on_c, 0, 60, 71
1, 97092, Note_off_c, 0, 55, 56
1, 97150, Note_off_c, 0, 60, 63
1, 97163, Note_on_c, 0, 64, 69
1, 97220, Note_on_c, 0, 41, 79
1, 97228, Note_on_c, 0, 62, 69
1, 97250, Note_off_c, 0, 41, 66
1, 97256, Note_off_c, 0, 64, 59
1, 97303, Note_on_c, 0, 57, 66
1, 97309, Note_off_c, 0, 62, 63
1, 97356, Note_off_c, 0, 57, 59
1, 97380, Note_on_c, 0, 53, 67
1, 97449, Note_on_c, 0, 43, 84
1, 97462, Note_on_c, 0, 60, 73
1, 97469, Note_off_c, 0, 53, 55
1, 97494, Note_off_c, 0, 43, 63
1, 97546, Note_on_c, 0, 55, 69
1, 97561, Note_off_c, 0, 60, 57
1, 97599, Note_off_c, 0, 55, 60
1, 97619, Note_on_c, 0, 52, 66
1, 97691, Note_on_c, 0, 31, 76
1, 97700, Note_off_c, 0, 52, 61
1, 97701, Note_on_c, 0, 59, 65
1, 97713, Note_off_c, 0, 31, 67
1, 97769, Note_on_c, 0, 53, 66
1, 97769, Note_off_c, 0, 59, 63
1, 97833, Note_off_c, 0, 53, 61
1, 97855, Note_on_c, 0, 50, 76
1, 97906, Note_off_c, 0, 50, 61
1, 97951, Note_on_c, 0, 48, 72
1, 97959, Note_on_c, 0, 36, 52
1, 97987, Note_on_c, 0, 35, 25
1, 98008, Note_off_c, 0, 48, 49
1, 98017, Note_on_c, 0, 52, 65
1, 98031, Note_off_c, 0, 35, 37
1, 98041, Note_on_c, 0, 40, 60
1, 98060, Control_c, 0, 64, 31
1, 98075, Control_c, 0, 64, 40
1, 98090, Control_c, 0, 64, 47
1, 98098, Note_on_c, 0, 55, 70
1, 98104, Control_c, 0, 64, 52
1, 98111, Note_on_c, 0, 43, 69
1, 98112, Note_off_c, 0, 52, 57
1, 98119, Control_c, 0, 64, 54
1, 98134, Control_c, 0, 64, 54
1, 98137, Note_off_c, 0, 40, 62
1, 98149, Control_c, 0, 64, 55
1, 98165, Note_on_c, 0, 60, 74
1, 98171, Note_off_c, 0, 55, 63
1, 98189, Note_off_c, 0, 43, 61
1, 98203, Note_on_c, 0, 48, 67
1, 98222, Control_c, 0, 64, 55
1, 98235, Note_on_c, 0, 55, 68
1, 98237, Control_c, 0, 64, 56
1, 98248, Note_off_c, 0, 48, 59
1, 98252, Control_c, 0, 64, 56
1, 98254, Note_on_c, 0, 43, 65
1, 98276, Note_off_c, 0, 36, 36
1, 98296, Control_c, 0, 64, 56
1, 98311, Control_c, 0, 64, 55
1, 98317, Note_on_c, 0, 52, 75
1, 98326, Control_c, 0, 64, 55
1, 98339, Note_off_c, 0, 43, 61
1, 98340, Note_on_c, 0, 40, 69
1, 98341, Control_c, 0, 64, 54
1, 98349, Note_off_c, 0, 55, 60
1, 98356, Control_c, 0, 64, 52
1, 98370, Control_c, 0, 64, 50
1, 98385, Control_c, 0, 64, 49
1, 98389, Note_on_c, 0, 48, 80
1, 98390, Note_off_c, 0, 52, 62
1, 98406, Note_on_c, 0, 36, 74
1, 98413, Note_off_c, 0, 40, 61
1, 98460, Control_c, 0, 64, 50
1, 98472, Note_on_c, 0, 52, 72
1, 98472, Note_off_c, 0, 48, 59
1, 98475, Control_c, 0, 64, 50
1, 98489, Control_c, 0, 64, 51
1, 98490, Note_on_c, 0, 40, 70
1, 98504, Control_c, 0, 64, 52
1, 98519, Control_c, 0, 64, 54
1, 98534, Control_c, 0, 64, 56
1, 98546, Note_off_c, 0, 60, 36
1, 98549, Control_c, 0, 64, 57
1, 98551, Note_on_c, 0, 55, 77
1, 98558, Note_on_c, 0, 43, 75
1, 98564, Control_c, 0, 64, 58
1, 98573, Note_off_c, 0, 52, 58
1, 98579, Control_c, 0, 64, 59
1, 98582, Note_off_c, 0, 40, 58
1, 98594, Control_c, 0, 64, 59
1, 98632, Note_on_c, 0, 60, 85
1, 98644, Note_off_c, 0, 55, 64
1, 98645, Note_off_c, 0, 43, 63
1, 98649, Note_on_c, 0, 48, 82
1, 98710, Note_on_c, 0, 55, 78
1, 98718, Note_on_c, 0, 43, 76
1, 98725, Note_off_c, 0, 36, 46
1, 98730, Note_off_c, 0, 48, 61
1, 98734, Control_c, 0, 64, 59
1, 98749, Control_c, 0, 64, 58
1, 98764, Control_c, 0, 64, 57
1, 98779, Control_c, 0, 64, 53
1, 98789, Note_on_c, 0, 52, 82
1, 98793, Note_on_c, 0, 40, 77
1, 98794, Control_c, 0, 64, 42
1, 98808, Note_off_c, 0, 43, 61
1, 98809, Control_c, 0, 64, 0
1, 98810, Note_off_c, 0, 55, 62
1, 98859, Note_on_c, 0, 48, 86
1, 98862, Note_off_c, 0, 52, 61
1, 98869, Note_on_c, 0, 36, 79
1, 98880, Note_off_c, 0, 40, 62
1, 98919, Note_off_c, 0, 48, 63
1, 98927, Control_c, 0, 64, 39
1, 98933, Note_on_c, 0, 52, 76
1, 98940, Note_off_c, 0, 60, 62
1, 98942, Control_c, 0, 64, 48
1, 98949, Note_on_c, 0, 40, 70
1, 98955, Note_off_c, 0, 36, 61
1, 98957, Control_c, 0, 64, 57
1, 98972, Control_c, 0, 64, 61
1, 98987, Control_c, 0, 64, 62
1, 98990, Note_off_c, 0, 52, 63
1, 99001, Control_c, 0, 64, 64
1, 99008, Note_on_c, 0, 55, 78
1, 99016, Control_c, 0, 64, 68
1, 99018, Note_off_c, 0, 40, 62
1, 99023, Note_on_c, 0, 43, 76
1, 99031, Control_c, 0, 64, 73
1, 99033, Note_off_c, 0, 55, 68
1, 99045, Control_c, 0, 64, 79
1, 99060, Control_c, 0, 64, 88
1, 99062, Note_off_c, 0, 43, 62
1, 99075, Control_c, 0, 64, 94
1, 99086, Note_on_c, 0, 60, 85
1, 99090, Control_c, 0, 64, 100
1, 99094, Note_on_c, 0, 48, 71
1, 99105, Control_c, 0, 64, 104
1, 99119, Control_c, 0, 64, 107
1, 99120, Note_off_c, 0, 48, 65
1, 99160, Note_off_c, 0, 60, 59
1, 99163, Note_on_c, 0, 64, 80
1, 99171, Note_on_c, 0, 52, 79
1, 99223, Control_c, 0, 64, 104
1, 99233, Note_on_c, 0, 67, 87
1, 99238, Control_c, 0, 64, 99
1, 99243, Note_on_c, 0, 55, 83
1, 99253, Control_c, 0, 64, 91
1, 99259, Note_off_c, 0, 52, 62
1, 99262, Note_off_c, 0, 64, 61
1, 99268, Control_c, 0, 64, 84
1, 99283, Control_c, 0, 64, 77
1, 99298, Control_c, 0, 64, 69
1, 99311, Note_on_c, 0, 72, 88
1, 99312, Control_c, 0, 64, 60
1, 99315, Note_off_c, 0, 55, 58
1, 99317, Note_off_c, 0, 67, 65
1, 99327, Control_c, 0, 64, 47
1, 99329, Note_on_c, 0, 60, 75
1, 99342, Control_c, 0, 64, 29
1, 99357, Control_c, 0, 64, 0
1, 99397, Note_on_c, 0, 67, 84
1, 99410, Note_on_c, 0, 55, 80
1, 99411, Note_off_c, 0, 60, 62
1, 99472, Note_on_c, 0, 64, 86
1, 99485, Note_on_c, 0, 52, 81
1, 99490, Note_off_c, 0, 67, 61
1, 99494, Note_off_c, 0, 55, 62
1, 99546, Note_on_c, 0, 60, 85
1, 99551, Note_off_c, 0, 64, 64
1, 99563, Note_on_c, 0, 48, 85
1, 99563, Note_off_c, 0, 52, 62
1, 99619, Note_off_c, 0, 60, 59
1, 99626, Note_on_c, 0, 64, 83
1, 99632, Note_on_c, 0, 52, 82
1, 99646, Note_off_c, 0, 48, 60
1, 99697, Note_on_c, 0, 67, 83
1, 99718, Note_on_c, 0, 55, 79
1, 99727, Note_off_c, 0, 64, 64
1, 99736, Note_off_c, 0, 72, 0
1, 99739, Note_off_c, 0, 52, 58
1, 99762, Note_on_c, 0, 60, 82
1, 99772, Poly_aftertouch_c, 0, 72, 127
1, 99773, Note_off_c, 0, 67, 64
1, 99774, Note_on_c, 0, 48, 77
1, 99789, Note_off_c, 0, 55, 61
1, 99795, Control_c, 0, 64, 42
1, 99810, Control_c, 0, 64, 54
1, 99818, Note_off_c, 0, 60, 61
1, 99825, Control_c, 0, 64, 61
1, 99834, Note_on_c, 0, 64, 83
1, 99840, Control_c, 0, 64, 64
1, 99844, Poly_aftertouch_c, 0, 72, 0
1, 99845, Note_on_c, 0, 52, 81
1, 99855, Control_c, 0, 64, 66
1, 99858, Note_off_c, 0, 48, 62
1, 99869, Control_c, 0, 64, 68
1, 99884, Control_c, 0, 64, 70
1, 99894, Note_off_c, 0, 64, 64
1, 99899, Control_c, 0, 64, 73
1, 99912, Note_on_c, 0, 67, 81
1, 99914, Control_c, 0, 64, 76
1, 99925, Note_on_c, 0, 55, 76
1, 99926, Note_off_c, 0, 52, 61
1, 99929, Control_c, 0, 64, 79
1, 99935, Note_off_c, 0, 67, 67
1, 99943, Control_c, 0, 64, 81
1, 99958, Control_c, 0, 64, 84
1, 99959, Note_off_c, 0, 55, 64
1, 99973, Control_c, 0, 64, 86
1, 99988, Control_c, 0, 64, 87
1, 99989, Note_on_c, 0, 72, 84
1, 100003, Note_on_c, 0, 60, 60
1, 100030, Note_off_c, 0, 60, 69
1, 100055, Note_off_c, 0, 72, 57
1, 100061, Note_on_c, 0, 76, 89
1, 100067, Note_on_c, 0, 64, 87
1, 100134, Note_on_c, 0, 79, 90
1, 100136, Control_c, 0, 64, 86
1, 100138, Note_on_c, 0, 67, 84
1, 100150, Note_off_c, 0, 64, 65
1, 100158, Control_c, 0, 64, 84
1, 100164, Note_off_c, 0, 76, 62
1, 100174, Control_c, 0, 64, 81
1, 100189, Control_c, 0, 64, 74
1, 100204, Control_c, 0, 64, 66
1, 100205, Note_off_c, 0, 67, 62
1, 100216, Note_on_c, 0, 84, 102
1, 100219, Control_c, 0, 64, 53
1, 100223, Note_off_c, 0, 79, 65
1, 100224, Note_on_c, 0, 72, 85
1, 100234, Control_c, 0, 64, 0
1, 100280, Note_off_c, 0, 72, 65
1, 100290, Note_on_c, 0, 79, 91
1, 100292, Note_on_c, 0, 67, 87
1, 100337, Control_c, 0, 64, 37
1, 100343, Note_off_c, 0, 84, 0
1, 100352, Control_c, 0, 64, 57
1, 100360, Note_on_c, 0, 64, 85
1, 100362, Note_on_c, 0, 76, 95
1, 100366, Note_off_c, 0, 67, 62
1, 100366, Control_c, 0, 64, 69
1, 100380, Poly_aftertouch_c, 0, 84, 127
1, 100381, Control_c, 0, 64, 86
1, 100389, Note_off_c, 0, 79, 62
1, 100396, Control_c, 0, 64, 111
1, 100411, Control_c, 0, 64, 127
1, 100433, Note_on_c, 0, 60, 85
1, 100439, Note_on_c, 0, 72, 90
1, 100440, Note_off_c, 0, 64, 65
1, 100448, Note_off_c, 0, 76, 62
1, 100481, Poly_aftertouch_c, 0, 84, 0
1, 100485, Control_c, 0, 64, 103
1, 100499, Control_c, 0, 64, 73
1, 100500, Note_on_c, 0, 64, 81
1, 100502, Note_on_c, 0, 76, 85
1, 100508, Note_off_c, 0, 60, 62
1, 100514, Control_c, 0, 64, 55
1, 100529, Control_c, 0, 64, 39
1, 100535, Note_off_c, 0, 72, 63
1, 100544, Control_c, 0, 64, 37
1, 100559, Control_c, 0, 64, 47
1, 100573, Control_c, 0, 64, 62
1, 100578, Note_on_c, 0, 79, 83
1, 100588, Control_c, 0, 64, 74
1, 100594, Note_on_c, 0, 67, 89
1, 100594, Note_off_c, 0, 64, 65
1, 100603, Control_c, 0, 64, 85
1, 100609, Note_off_c, 0, 76, 63
1, 100618, Control_c, 0, 64, 97
1, 100633, Control_c, 0, 64, 113
1, 100644, Note_off_c, 0, 67, 65
1, 100648, Control_c, 0, 64, 127
1, 100678, Note_off_c, 0, 79, 60
1, 100679, Note_on_c, 0, 84, 100
1, 100687, Note_on_c, 0, 72, 91
1, 100704, Note_off_c, 0, 72, 75
1, 100708, Note_off_c, 0, 84, 70
1, 101076, Note_on_c, 0, 72, 86
1, 101088, Note_on_c, 0, 60, 71
1, 101101, Note_on_c, 0, 48, 75
1, 101129, Control_c, 0, 64, 96
1, 101144, Control_c, 0, 64, 71
1, 101159, Control_c, 0, 64, 52
1, 101174, Control_c, 0, 64, 0
1, 101233, Control_c, 0, 64, 31
1, 101247, Control_c, 0, 64, 45
1, 101262, Control_c, 0, 64, 56
1, 101277, Control_c, 0, 64, 62
1, 101292, Control_c, 0, 64, 66
1, 101307, Control_c, 0, 64, 69
1, 101322, Control_c, 0, 64, 73
1, 101336, Control_c, 0, 64, 77
1, 101351, Control_c, 0, 64, 81
1, 101366, Control_c, 0, 64, 85
1, 101381, Control_c, 0, 64, 90
1, 101396, Control_c, 0, 64, 100
1, 101411, Control_c, 0, 64, 112
1, 101426, Control_c, 0, 64, 127
1, 101518, Note_off_c, 0, 48, 62
1, 101534, Note_off_c, 0, 60, 61
1, 101574, Control_c, 0, 64, 95
1, 101578, Note_off_c, 0, 72, 58
1, 101588, Control_c, 0, 64, 70
1, 101603, Control_c, 0, 64, 41
1, 101618, Control_c, 0, 64, 0
1, 101655, Control_c, 0, 67, 45
1, 101670, Control_c, 0, 67, 68
1, 101685, Control_c, 0, 67, 99
1, 101700, Control_c, 0, 67, 127
1, 102085, Note_on_c, 0, 79, 45
1, 102204, Control_c, 0, 64, 33
1, 102219, Control_c, 0, 64, 39
1, 102234, Control_c, 0, 64, 44
1, 102249, Control_c, 0, 64, 48
1, 102263, Control_c, 0, 64, 52
1, 102278, Control_c, 0, 64, 55
1, 102293, Control_c, 0, 64, 56
1, 102308, Control_c, 0, 64, 56
1, 102323, Control_c, 0, 64, 57
1, 102337, Control_c, 0, 64, 58
1, 102352, Control_c, 0, 64, 58
1, 102367, Control_c, 0, 64, 59
1, 102463, Control_c, 0, 64, 58
1, 102491, Note_on_c, 0, 77, 51
1, 102493, Control_c, 0, 64, 58
1, 102598, Control_c, 0, 64, 57
1, 102637, Note_on_c, 0, 75, 51
1, 102672, Control_c, 0, 64, 57
1, 102687, Control_c, 0, 64, 56
1, 102701, Note_off_c, 0, 77, 53
1, 102702, Control_c, 0, 64, 56
1, 102717, Control_c, 0, 64, 55
1, 102732, Control_c, 0, 64, 55
1, 102746, Control_c, 0, 64, 54
1, 102761, Control_c, 0, 64, 54
1, 102776, Control_c, 0, 64, 53
1, 102779, Note_on_c, 0, 74, 57
1, 102791, Control_c, 0, 64, 52
1, 102806, Note_off_c, 0, 75, 59
1, 102806, Control_c, 0, 64, 52
1, 102807, Note_off_c, 0, 79, 20
1, 102820, Control_c, 0, 64, 51
1, 102835, Control_c, 0, 64, 50
1, 102850, Control_c, 0, 64, 50
1, 102865, Control_c, 0, 64, 49
1, 102880, Control_c, 0, 64, 48
1, 102894, Control_c, 0, 64, 47
1, 102909, Control_c, 0, 64, 47
1, 102911, Note_on_c, 0, 72, 58
1, 102924, Control_c, 0, 64, 46
1, 102930, Note_off_c, 0, 74, 56
1, 102954, Control_c, 0, 64, 46
1, 102968, Control_c, 0, 64, 44
1, 102983, Control_c, 0, 64, 43
1, 102998, Control_c, 0, 64, 42
1, 103012, Control_c, 0, 64, 40
1, 103027, Control_c, 0, 64, 37
1, 103042, Control_c, 0, 64, 34
1, 103045, Note_on_c, 0, 75, 54
1, 103057, Control_c, 0, 64, 30
1, 103072, Control_c, 0, 64, 0
1, 103080, Note_off_c, 0, 72, 39
1, 103189, Note_on_c, 0, 74, 58
1, 103198, Note_off_c, 0, 75, 59
1, 103319, Note_on_c, 0, 77, 51
1, 103319, Note_off_c, 0, 74, 54
1, 103446, Note_off_c, 0, 77, 59
1, 103459, Note_on_c, 0, 71, 42
1, 103590, Note_off_c, 0, 71, 54
1, 103595, Note_on_c, 0, 72, 50
1, 103614, Note_on_c, 0, 36, 41
1, 103709, Note_on_c, 0, 39, 48
1, 103785, Note_off_c, 0, 36, 29
1, 103799, Note_on_c, 0, 43, 46
1, 103802, Note_off_c, 0, 39, 53
1, 103860, Note_off_c, 0, 43, 59
1, 103900, Note_on_c, 0, 48, 40
1, 103904, Note_on_c, 0, 67, 46
1, 103956, Note_off_c, 0, 48, 54
1, 103984, Note_on_c, 0, 43, 48
1, 103989, Note_off_c, 0, 72, 37
1, 104032, Note_off_c, 0, 43, 59
1, 104079, Note_on_c, 0, 39, 47
1, 104127, Note_off_c, 0, 39, 62
1, 104131, Note_off_c, 0, 67, 61
1, 104156, Note_on_c, 0, 36, 50
1, 104227, Note_off_c, 0, 36, 56
1, 104240, Note_on_c, 0, 39, 54
1, 104303, Note_off_c, 0, 39, 62
1, 104330, Note_on_c, 0, 43, 56
1, 104389, Note_off_c, 0, 43, 57
1, 104399, Note_on_c, 0, 75, 68
1, 104415, Note_on_c, 0, 67, 58
1, 104425, Note_on_c, 0, 48, 55
1, 104434, Note_off_c, 0, 75, 62
1, 104446, Note_off_c, 0, 67, 65
1, 104482, Note_off_c, 0, 48, 58
1, 104508, Note_on_c, 0, 43, 55
1, 104553, Note_off_c, 0, 43, 60
1, 104581, Note_on_c, 0, 39, 55
1, 104646, Note_off_c, 0, 39, 61
1, 104668, Note_on_c, 0, 36, 61
1, 104678, Note_on_c, 0, 74, 70
1, 104686, Note_on_c, 0, 65, 52
1, 104740, Control_c, 0, 64, 31
1, 104748, Note_off_c, 0, 36, 59
1, 104755, Control_c, 0, 64, 44
1, 104760, Note_on_c, 0, 39, 60
1, 104770, Control_c, 0, 64, 55
1, 104784, Control_c, 0, 64, 59
1, 104799, Control_c, 0, 64, 61
1, 104814, Control_c, 0, 64, 62
1, 104822, Note_off_c, 0, 74, 64
1, 104824, Note_off_c, 0, 39, 62
1, 104829, Control_c, 0, 64, 63
1, 104836, Note_on_c, 0, 43, 61
1, 104866, Note_off_c, 0, 43, 65
1, 104918, Control_c, 0, 64, 62
1, 104925, Note_on_c, 0, 48, 56
1, 104932, Control_c, 0, 64, 60
1, 104946, Note_on_c, 0, 72, 64
1, 104947, Control_c, 0, 64, 57
1, 104963, Control_c, 0, 64, 52
1, 104967, Note_on_c, 0, 63, 53
1, 104972, Note_off_c, 0, 48, 64
1, 104978, Control_c, 0, 64, 45
1, 104993, Control_c, 0, 64, 36
1, 105007, Control_c, 0, 64, 0
1, 105009, Note_on_c, 0, 51, 66
1, 105032, Note_off_c, 0, 65, 60
1, 105060, Note_off_c, 0, 63, 63
1, 105071, Note_off_c, 0, 72, 63
1, 105082, Note_off_c, 0, 51, 60
1, 105091, Note_on_c, 0, 55, 65
1, 105154, Note_off_c, 0, 55, 60
1, 105174, Note_on_c, 0, 60, 69
1, 105253, Note_off_c, 0, 60, 62
1, 105259, Note_on_c, 0, 55, 66
1, 105274, Control_c, 0, 67, 112
1, 105289, Control_c, 0, 67, 102
1, 105304, Control_c, 0, 67, 97
1, 105316, Note_off_c, 0, 55, 58
1, 105327, Note_on_c, 0, 51, 68
1, 105334, Control_c, 0, 67, 96
1, 105349, Control_c, 0, 67, 95
1, 105363, Control_c, 0, 67, 94
1, 105400, Control_c, 0, 67, 94
1, 105407, Note_off_c, 0, 51, 61
1, 105418, Note_on_c, 0, 48, 76
1, 105418, Note_on_c, 0, 79, 68
1, 105428, Note_on_c, 0, 75, 66
1, 105429, Control_c, 0, 67, 93
1, 105444, Control_c, 0, 67, 91
1, 105457, Note_off_c, 0, 75, 67
1, 105459, Control_c, 0, 67, 81
1, 105468, Note_off_c, 0, 79, 64
1, 105474, Control_c, 0, 67, 68
1, 105489, Note_off_c, 0, 48, 60
1, 105489, Control_c, 0, 67, 55
1, 105504, Control_c, 0, 67, 44
1, 105507, Note_on_c, 0, 51, 68
1, 105519, Control_c, 0, 67, 40
1, 105534, Control_c, 0, 67, 39
1, 105549, Control_c, 0, 67, 41
1, 105563, Control_c, 0, 67, 42
1, 105578, Control_c, 0, 67, 45
1, 105584, Note_on_c, 0, 55, 71
1, 105585, Note_off_c, 0, 51, 58
1, 105593, Control_c, 0, 67, 47
1, 105608, Control_c, 0, 67, 49
1, 105622, Control_c, 0, 67, 50
1, 105637, Control_c, 0, 67, 52
1, 105652, Control_c, 0, 67, 53
1, 105664, Note_off_c, 0, 55, 55
1, 105667, Control_c, 0, 67, 54
1, 105674, Note_on_c, 0, 77, 81
1, 105678, Note_on_c, 0, 48, 70
1, 105682, Control_c, 0, 67, 55
1, 105684, Note_on_c, 0, 74, 74
1, 105726, Control_c, 0, 67, 54
1, 105740, Control_c, 0, 67, 52
1, 105754, Note_on_c, 0, 51, 68
1, 105757, Control_c, 0, 67, 51
1, 105757, Note_off_c, 0, 48, 62
1, 105772, Control_c, 0, 67, 49
1, 105786, Control_c, 0, 67, 45
1, 105801, Control_c, 0, 64, 30
1, 105801, Control_c, 0, 67, 40
1, 105816, Control_c, 0, 64, 45
1, 105816, Control_c, 0, 67, 0
1, 105830, Control_c, 0, 64, 57
1, 105844, Note_on_c, 0, 55, 68
1, 105845, Note_off_c, 0, 51, 62
1, 105845, Control_c, 0, 64, 62
1, 105860, Control_c, 0, 64, 63
1, 105885, Note_off_c, 0, 55, 61
1, 105919, Control_c, 0, 64, 61
1, 105929, Note_on_c, 0, 60, 63
1, 105934, Control_c, 0, 64, 58
1, 105942, Note_on_c, 0, 75, 70
1, 105949, Control_c, 0, 64, 49
1, 105951, Note_on_c, 0, 72, 53
1, 105964, Control_c, 0, 64, 35
1, 105978, Control_c, 0, 64, 0
1, 105990, Note_off_c, 0, 74, 50
1, 105998, Note_off_c, 0, 60, 64
1, 106016, Note_on_c, 0, 63, 69
1, 106022, Note_off_c, 0, 72, 62
1, 106023, Control_c, 0, 64, 31
1, 106037, Control_c, 0, 64, 46
1, 106043, Note_off_c, 0, 77, 63
1, 106052, Control_c, 0, 64, 59
1, 106062, Note_off_c, 0, 75, 65
1, 106067, Control_c, 0, 64, 65
1, 106082, Control_c, 0, 64, 67
1, 106089, Note_on_c, 0, 67, 72
1, 106097, Control_c, 0, 64, 68
1, 106102, Note_off_c, 0, 63, 56
1, 106160, Note_off_c, 0, 67, 57
1, 106163, Control_c, 0, 64, 67
1, 106173, Note_on_c, 0, 72, 75
1, 106178, Control_c, 0, 64, 66
1, 106193, Control_c, 0, 64, 63
1, 106208, Control_c, 0, 64, 54
1, 106223, Control_c, 0, 64, 42
1, 106237, Control_c, 0, 64, 0
1, 106246, Note_off_c, 0, 72, 62
1, 106250, Note_on_c, 0, 67, 78
1, 106329, Note_off_c, 0, 67, 59
1, 106338, Note_on_c, 0, 63, 71
1, 106409, Note_off_c, 0, 63, 63
1, 106416, Control_c, 0, 64, 39
1, 106418, Note_on_c, 0, 79, 73
1, 106422, Note_on_c, 0, 60, 58
1, 106430, Control_c, 0, 64, 54
1, 106445, Control_c, 0, 64, 64
1, 106460, Control_c, 0, 64, 69
1, 106471, Note_off_c, 0, 79, 66
1, 106475, Control_c, 0, 64, 72
1, 106487, Note_off_c, 0, 60, 64
1, 106487, Note_on_c, 0, 63, 74
1, 106490, Control_c, 0, 64, 75
1, 106505, Control_c, 0, 64, 78
1, 106519, Control_c, 0, 64, 80
1, 106534, Control_c, 0, 64, 82
1, 106549, Control_c, 0, 64, 83
1, 106563, Note_on_c, 0, 67, 68
1, 106586, Note_off_c, 0, 63, 58
1, 106624, Control_c, 0, 64, 82
1, 106639, Control_c, 0, 64, 79
1, 106653, Control_c, 0, 64, 72
1, 106668, Control_c, 0, 64, 62
1, 106675, Note_on_c, 0, 72, 54
1, 106677, Note_on_c, 0, 87, 70
1, 106679, Note_off_c, 0, 67, 62
1, 106683, Control_c, 0, 64, 44
1, 106698, Control_c, 0, 64, 0
1, 106768, Note_on_c, 0, 89, 76
1, 106772, Note_off_c, 0, 87, 63
1, 106772, Control_c, 0, 64, 42
1, 106786, Control_c, 0, 64, 54
1, 106801, Control_c, 0, 64, 62
1, 106816, Control_c, 0, 64, 66
1, 106831, Control_c, 0, 64, 67
1, 106846, Control_c, 0, 64, 68
1, 106848, Note_on_c, 0, 87, 81
1, 106860, Control_c, 0, 64, 69
1, 106883, Control_c, 0, 64, 71
1, 106894, Note_off_c, 0, 72, 62
1, 106894, Note_off_c, 0, 89, 61
1, 106898, Control_c, 0, 64, 73
1, 106913, Control_c, 0, 64, 74
1, 106935, Note_on_c, 0, 86, 85
1, 106942, Control_c, 0, 64, 75
1, 106964, Note_off_c, 0, 87, 64
1, 107006, Note_off_c, 0, 86, 66
1, 107008, Note_on_c, 0, 84, 82
1, 107060, Control_c, 0, 64, 74
1, 107084, Note_on_c, 0, 83, 89
1, 107090, Control_c, 0, 64, 73
1, 107105, Control_c, 0, 64, 72
1, 107113, Note_off_c, 0, 84, 64
1, 107120, Control_c, 0, 64, 70
1, 107134, Control_c, 0, 64, 67
1, 107149, Control_c, 0, 64, 64
1, 107152, Note_on_c, 0, 84, 71
1, 107164, Control_c, 0, 64, 59
1, 107178, Note_off_c, 0, 83, 64
1, 107179, Control_c, 0, 64, 55
1, 107194, Control_c, 0, 64, 52
1, 107209, Control_c, 0, 64, 51
1, 107224, Control_c, 0, 64, 50
1, 107233, Note_on_c, 0, 86, 86
1, 107239, Control_c, 0, 64, 50
1, 107239, Note_off_c, 0, 84, 66
1, 107268, Control_c, 0, 64, 49
1, 107283, Control_c, 0, 64, 49
1, 107298, Control_c, 0, 64, 48
1, 107313, Control_c, 0, 64, 47
1, 107314, Note_on_c, 0, 84, 83
1, 107328, Control_c, 0, 64, 45
1, 107342, Control_c, 0, 64, 43
1, 107347, Note_off_c, 0, 86, 58
1, 107358, Control_c, 0, 64, 42
1, 107373, Control_c, 0, 64, 41
1, 107388, Note_on_c, 0, 82, 80
1, 107388, Control_c, 0, 64, 41
1, 107397, Note_on_c, 0, 60, 61
1, 107417, Control_c, 0, 64, 40
1, 107435, Note_off_c, 0, 84, 63
1, 107447, Control_c, 0, 64, 40
1, 107464, Note_on_c, 0, 81, 85
1, 107498, Note_off_c, 0, 82, 61
1, 107520, Note_off_c, 0, 81, 63
1, 107543, Note_on_c, 0, 79, 72
1, 107618, Note_on_c, 0, 62, 64
1, 107620, Note_on_c, 0, 78, 80
1, 107621, Note_off_c, 0, 60, 63
1, 107633, Note_off_c, 0, 79, 63
1, 107647, Control_c, 0, 64, 39
1, 107662, Control_c, 0, 64, 39
1, 107677, Control_c, 0, 64, 38
1, 107691, Control_c, 0, 64, 37
1, 107706, Control_c, 0, 64, 37
1, 107710, Note_on_c, 0, 79, 72
1, 107721, Control_c, 0, 64, 36
1, 107736, Control_c, 0, 64, 35
1, 107751, Control_c, 0, 64, 34
1, 107765, Control_c, 0, 64, 34
1, 107778, Note_off_c, 0, 78, 50
1, 107780, Control_c, 0, 64, 33
1, 107787, Note_on_c, 0, 81, 84
1, 107788, Note_off_c, 0, 79, 65
1, 107809, Control_c, 0, 64, 32
1, 107846, Note_off_c, 0, 62, 62
1, 107869, Note_on_c, 0, 79, 77
1, 107869, Control_c, 0, 64, 32
1, 107915, Note_off_c, 0, 81, 49
1, 107936, Note_on_c, 0, 78, 75
1, 107979, Note_off_c, 0, 79, 62
1, 108013, Note_on_c, 0, 75, 75
1, 108061, Note_off_c, 0, 78, 60
1, 108078, Note_off_c, 0, 75, 63
1, 108088, Note_on_c, 0, 74, 78
1, 108160, Note_off_c, 0, 74, 54
1, 108166, Note_on_c, 0, 72, 72
1, 108196, Control_c, 0, 64, 30
1, 108225, Control_c, 0, 64, 0
1, 108243, Note_on_c, 0, 70, 72
1, 108270, Note_off_c, 0, 72, 61
1, 108327, Note_on_c, 0, 69, 71
1, 108331, Note_on_c, 0, 50, 63
1, 108352, Note_off_c, 0, 70, 62
1, 108374, Note_off_c, 0, 69, 62
1, 108398, Note_off_c, 0, 50, 61
1, 108400, Note_on_c, 0, 67, 69
1, 108480, Note_off_c, 0, 67, 57
1, 108485, Control_c, 0, 67, 42
1, 108488, Note_on_c, 0, 66, 69
1, 108500, Control_c, 0, 67, 52
1, 108514, Control_c, 0, 67, 60
1, 108529, Control_c, 0, 67, 67
1, 108544, Control_c, 0, 67, 75
1, 108558, Control_c, 0, 67, 81
1, 108573, Control_c, 0, 67, 89
1, 108579, Note_on_c, 0, 67, 71
1, 108588, Control_c, 0, 67, 97
1, 108592, Note_on_c, 0, 48, 65
1, 108603, Control_c, 0, 67, 104
1, 108618, Control_c, 0, 67, 109
1, 108632, Control_c, 0, 67, 111
1, 108662, Control_c, 0, 67, 114
1, 108692, Control_c, 0, 67, 116
1, 108723, Note_on_c, 0, 46, 75
1, 108773, Note_off_c, 0, 66, 24
1, 108774, Note_off_c, 0, 48, 60
1, 108780, Control_c, 0, 67, 118
1, 108856, Note_on_c, 0, 45, 74
1, 108856, Note_off_c, 0, 67, 58
1, 108899, Note_off_c, 0, 46, 61
1, 108986, Note_on_c, 0, 43, 73
1, 109037, Note_off_c, 0, 45, 58
1, 109115, Note_on_c, 0, 46, 74
1, 109159, Control_c, 0, 67, 116
1, 109175, Note_off_c, 0, 43, 61
1, 109252, Note_on_c, 0, 45, 72
1, 109273, Note_off_c, 0, 46, 59
1, 109370, Note_off_c, 0, 45, 63
1, 109388, Note_on_c, 0, 48, 70
1, 109470, Control_c, 0, 67, 118
1, 109508, Note_on_c, 0, 42, 66
1, 109544, Control_c, 0, 67, 120
1, 109549, Note_off_c, 0, 48, 48
1, 109588, Control_c, 0, 67, 122
1, 109647, Control_c, 0, 67, 127
1, 109659, Note_on_c, 0, 43, 65
1, 109670, Note_on_c, 0, 55, 54
1, 109703, Note_off_c, 0, 42, 55
1, 109763, Note_on_c, 0, 58, 64
1, 109770, Note_off_c, 0, 55, 37
1, 109838, Note_off_c, 0, 58, 61
1, 109839, Note_on_c, 0, 62, 64
1, 109937, Note_on_c, 0, 67, 62
1, 109939, Note_off_c, 0, 62, 60
1, 109946, Note_on_c, 0, 38, 49
1, 109977, Note_off_c, 0, 43, 57
1, 110028, Note_on_c, 0, 62, 60
1, 110035, Note_off_c, 0, 67, 49
1, 110085, Control_c, 0, 67, 124
1, 110094, Note_on_c, 0, 58, 71
1, 110100, Control_c, 0, 67, 120
1, 110115, Control_c, 0, 67, 118
1, 110117, Note_off_c, 0, 38, 54
1, 110130, Control_c, 0, 67, 115
1, 110145, Control_c, 0, 67, 112
1, 110159, Control_c, 0, 67, 110
1, 110167, Note_off_c, 0, 58, 63
1, 110169, Note_on_c, 0, 55, 69
1, 110174, Control_c, 0, 67, 104
1, 110189, Control_c, 0, 67, 93
1, 110203, Control_c, 0, 67, 75
1, 110218, Control_c, 0, 67, 54
1, 110233, Control_c, 0, 67, 0
1, 110258, Note_on_c, 0, 58, 68
1, 110258, Note_off_c, 0, 62, 35
1, 110267, Note_off_c, 0, 55, 57
1, 110343, Note_on_c, 0, 62, 72
1, 110345, Note_off_c, 0, 58, 62
1, 110408, Note_off_c, 0, 62, 62
1, 110409, Note_on_c, 0, 50, 72
1, 110414, Note_on_c, 0, 67, 67
1, 110416, Note_on_c, 0, 46, 68
1, 110449, Note_off_c, 0, 46, 67
1, 110452, Note_off_c, 0, 50, 63
1, 110486, Note_on_c, 0, 62, 67
1, 110577, Note_on_c, 0, 58, 67
1, 110596, Note_off_c, 0, 62, 61
1, 110662, Note_off_c, 0, 58, 62
1, 110675, Note_on_c, 0, 55, 60
1, 110676, Note_on_c, 0, 48, 79
1, 110682, Note_on_c, 0, 45, 69
1, 110745, Control_c, 0, 64, 31
1, 110751, Note_off_c, 0, 55, 60
1, 110753, Note_on_c, 0, 58, 68
1, 110759, Control_c, 0, 64, 48
1, 110766, Note_off_c, 0, 67, 44
1, 110774, Control_c, 0, 64, 60
1, 110789, Control_c, 0, 64, 65
1, 110804, Control_c, 0, 64, 69
1, 110807, Note_off_c, 0, 58, 64
1, 110819, Control_c, 0, 64, 71
1, 110834, Control_c, 0, 64, 73
1, 110846, Note_on_c, 0, 62, 72
1, 110849, Control_c, 0, 64, 74
1, 110863, Control_c, 0, 64, 75
1, 110872, Note_off_c, 0, 62, 66
1, 110878, Control_c, 0, 64, 76
1, 110923, Note_on_c, 0, 46, 65
1, 110926, Note_off_c, 0, 45, 61
1, 110931, Note_off_c, 0, 48, 61
1, 110943, Note_on_c, 0, 67, 70
1, 110950, Note_on_c, 0, 43, 60
1, 110982, Control_c, 0, 64, 75
1, 110997, Control_c, 0, 64, 74
1, 111012, Control_c, 0, 64, 71
1, 111022, Note_on_c, 0, 70, 74
1, 111026, Control_c, 0, 64, 67
1, 111030, Note_off_c, 0, 67, 54
1, 111041, Control_c, 0, 64, 62
1, 111051, Note_off_c, 0, 43, 63
1, 111056, Control_c, 0, 64, 53
1, 111060, Note_off_c, 0, 46, 63
1, 111071, Control_c, 0, 64, 42
1, 111086, Control_c, 0, 64, 30
1, 111096, Note_on_c, 0, 74, 80
1, 111100, Control_c, 0, 64, 0
1, 111101, Note_off_c, 0, 70, 62
1, 111179, Note_off_c, 0, 74, 64
1, 111182, Note_on_c, 0, 79, 72
1, 111254, Note_on_c, 0, 74, 77
1, 111340, Note_on_c, 0, 70, 76
1, 111348, Note_off_c, 0, 74, 63
1, 111413, Note_off_c, 0, 70, 63
1, 111428, Note_on_c, 0, 58, 83
1, 111429, Note_on_c, 0, 67, 73
1, 111434, Control_c, 0, 64, 32
1, 111439, Note_on_c, 0, 50, 71
1, 111448, Control_c, 0, 64, 51
1, 111463, Control_c, 0, 64, 64
1, 111474, Note_off_c, 0, 58, 65
1, 111476, Note_off_c, 0, 50, 65
1, 111478, Control_c, 0, 64, 72
1, 111493, Control_c, 0, 64, 79
1, 111506, Note_off_c, 0, 67, 60
1, 111507, Note_on_c, 0, 70, 76
1, 111508, Control_c, 0, 64, 88
1, 111522, Control_c, 0, 64, 94
1, 111537, Control_c, 0, 64, 101
1, 111552, Control_c, 0, 64, 107
1, 111567, Control_c, 0, 64, 109
1, 111591, Note_on_c, 0, 74, 81
1, 111597, Control_c, 0, 64, 105
1, 111602, Note_off_c, 0, 70, 60
1, 111612, Control_c, 0, 64, 87
1, 111618, Note_off_c, 0, 79, 58
1, 111627, Control_c, 0, 64, 70
1, 111641, Control_c, 0, 64, 51
1, 111656, Control_c, 0, 64, 0
1, 111668, Note_on_c, 0, 57, 86
1, 111674, Note_on_c, 0, 67, 76
1, 111681, Note_on_c, 0, 48, 85
1, 111687, Note_off_c, 0, 74, 62
1, 111730, Control_c, 0, 64, 33
1, 111736, Note_on_c, 0, 70, 72
1, 111738, Note_off_c, 0, 67, 61
1, 111745, Control_c, 0, 64, 52
1, 111760, Control_c, 0, 64, 65
1, 111774, Control_c, 0, 64, 75
1, 111789, Control_c, 0, 64, 87
1, 111790, Note_off_c, 0, 70, 66
1, 111804, Control_c, 0, 64, 98
1, 111814, Note_off_c, 0, 57, 54
1, 111819, Control_c, 0, 64, 107
1, 111820, Note_on_c, 0, 74, 79
1, 111834, Control_c, 0, 64, 116
1, 111848, Control_c, 0, 64, 119
1, 111850, Note_off_c, 0, 74, 60
1, 111863, Control_c, 0, 64, 117
1, 111878, Control_c, 0, 64, 104
1, 111893, Control_c, 0, 64, 83
1, 111908, Control_c, 0, 64, 62
1, 111909, Note_off_c, 0, 48, 62
1, 111917, Note_on_c, 0, 46, 65
1, 111918, Note_on_c, 0, 79, 78
1, 111922, Control_c, 0, 64, 37
1, 111924, Note_on_c, 0, 55, 69
1, 111937, Control_c, 0, 64, 0
1, 111981, Control_c, 0, 64, 36
1, 111990, Note_on_c, 0, 82, 79
1, 111996, Control_c, 0, 64, 55
1, 112011, Control_c, 0, 64, 69
1, 112020, Note_off_c, 0, 46, 62
1, 112026, Note_off_c, 0, 55, 61
1, 112026, Note_off_c, 0, 79, 50
1, 112026, Control_c, 0, 64, 79
1, 112041, Control_c, 0, 64, 88
1, 112056, Control_c, 0, 64, 91
1, 112071, Control_c, 0, 64, 92
1, 112077, Note_on_c, 0, 84, 85
1, 112115, Control_c, 0, 64, 91
1, 112137, Control_c, 0, 64, 82
1, 112144, Note_off_c, 0, 82, 52
1, 112153, Control_c, 0, 64, 67
1, 112163, Note_on_c, 0, 86, 88
1, 112169, Control_c, 0, 64, 44
1, 112173, Note_off_c, 0, 84, 65
1, 112184, Control_c, 0, 64, 0
1, 112242, Note_on_c, 0, 84, 82
1, 112318, Note_on_c, 0, 82, 87
1, 112360, Note_off_c, 0, 86, 54
1, 112391, Control_c, 0, 64, 51
1, 112405, Control_c, 0, 64, 64
1, 112406, Note_on_c, 0, 81, 84
1, 112407, Note_on_c, 0, 62, 81
1, 112420, Control_c, 0, 64, 74
1, 112428, Note_off_c, 0, 62, 70
1, 112429, Note_on_c, 0, 86, 16
1, 112430, Note_off_c, 0, 84, 48
1, 112435, Control_c, 0, 64, 84
1, 112450, Control_c, 0, 64, 93
1, 112452, Note_off_c, 0, 82, 58
1, 112465, Control_c, 0, 64, 102
1, 112471, Note_off_c, 0, 81, 65
1, 112476, Note_on_c, 0, 79, 80
1, 112479, Control_c, 0, 64, 111
1, 112494, Control_c, 0, 64, 116
1, 112539, Control_c, 0, 64, 103
1, 112554, Control_c, 0, 64, 81
1, 112556, Note_on_c, 0, 78, 84
1, 112557, Note_off_c, 0, 79, 63
1, 112569, Control_c, 0, 64, 62
1, 112583, Control_c, 0, 64, 0
1, 112642, Note_on_c, 0, 79, 86
1, 112654, Note_on_c, 0, 70, 77
1, 112666, Note_off_c, 0, 78, 60
1, 112668, Note_off_c, 0, 86, 61
1, 112672, Control_c, 0, 64, 43
1, 112682, Note_off_c, 0, 79, 65
1, 112687, Control_c, 0, 64, 63
1, 112702, Control_c, 0, 64, 75
1, 112716, Control_c, 0, 64, 92
1, 112726, Note_off_c, 0, 70, 63
1, 112731, Control_c, 0, 64, 117
1, 112734, Note_on_c, 0, 72, 75
1, 112746, Control_c, 0, 64, 127
1, 112786, Note_off_c, 0, 72, 60
1, 112815, Note_on_c, 0, 70, 79
1, 112862, Note_off_c, 0, 70, 63
1, 112899, Note_on_c, 0, 69, 68
1, 112912, Note_on_c, 0, 82, 78
1, 112931, Control_c, 0, 64, 108
1, 112936, Note_off_c, 0, 69, 55
1, 112946, Control_c, 0, 64, 90
1, 112959, Note_on_c, 0, 81, 72
1, 112962, Control_c, 0, 64, 77
1, 112965, Note_on_c, 0, 67, 66
1, 112970, Note_off_c, 0, 82, 64
1, 112977, Control_c, 0, 64, 66
1, 112992, Control_c, 0, 64, 54
1, 113007, Control_c, 0, 64, 39
1, 113007, Note_off_c, 0, 81, 62
1, 113014, Note_on_c, 0, 79, 77
1, 113022, Control_c, 0, 64, 0
1, 113046, Note_off_c, 0, 67, 58
1, 113051, Note_on_c, 0, 66, 69
1, 113059, Note_on_c, 0, 81, 80
1, 113075, Note_off_c, 0, 79, 63
1, 113132, Note_off_c, 0, 66, 60
1, 113134, Note_on_c, 0, 67, 68
1, 113135, Note_on_c, 0, 82, 89
1, 113148, Note_off_c, 0, 81, 66
1, 113154, Control_c, 0, 64, 45
1, 113169, Control_c, 0, 64, 61
1, 113180, Note_off_c, 0, 67, 64
1, 113184, Control_c, 0, 64, 70
1, 113199, Control_c, 0, 64, 77
1, 113209, Note_on_c, 0, 69, 67
1, 113214, Control_c, 0, 64, 81
1, 113280, Note_off_c, 0, 69, 59
1, 113288, Control_c, 0, 64, 80
1, 113291, Note_on_c, 0, 67, 63
1, 113302, Control_c, 0, 64, 78
1, 113317, Control_c, 0, 64, 73
1, 113332, Control_c, 0, 64, 66
1, 113336, Note_off_c, 0, 67, 49
1, 113347, Control_c, 0, 64, 54
1, 113361, Control_c, 0, 64, 36
1, 113370, Note_on_c, 0, 65, 60
1, 113376, Control_c, 0, 64, 0
1, 113406, Note_on_c, 0, 74, 55
1, 113406, Control_c, 0, 67, 42
1, 113415, Note_off_c, 0, 65, 63
1, 113421, Control_c, 0, 67, 52
1, 113436, Control_c, 0, 67, 64
1, 113451, Control_c, 0, 67, 78
1, 113452, Note_on_c, 0, 64, 65
1, 113466, Control_c, 0, 67, 94
1, 113481, Control_c, 0, 64, 43
1, 113481, Control_c, 0, 67, 107
1, 113495, Control_c, 0, 64, 56
1, 113495, Control_c, 0, 67, 119
1, 113510, Control_c, 0, 64, 62
1, 113510, Control_c, 0, 67, 127
1, 113513, Note_off_c, 0, 64, 59
1, 113525, Control_c, 0, 64, 64
1, 113535, Note_on_c, 0, 62, 61
1, 113569, Control_c, 0, 64, 62
1, 113584, Control_c, 0, 64, 57
1, 113599, Control_c, 0, 64, 49
1, 113603, Note_off_c, 0, 62, 61
1, 113621, Control_c, 0, 64, 34
1, 113633, Note_on_c, 0, 61, 51
1, 113636, Control_c, 0, 64, 0
1, 113644, Note_on_c, 0, 76, 63
1, 113671, Note_off_c, 0, 74, 59
1, 113711, Note_off_c, 0, 61, 62
1, 113718, Note_on_c, 0, 62, 65
1, 113740, Control_c, 0, 64, 41
1, 113755, Control_c, 0, 64, 60
1, 113766, Note_off_c, 0, 62, 60
1, 113770, Control_c, 0, 64, 67
1, 113785, Control_c, 0, 64, 71
1, 113797, Note_on_c, 0, 64, 63
1, 113800, Control_c, 0, 64, 72
1, 113829, Control_c, 0, 64, 71
1, 113838, Note_off_c, 0, 64, 58
1, 113844, Control_c, 0, 64, 69
1, 113859, Control_c, 0, 64, 61
1, 113873, Note_on_c, 0, 80, 74
1, 113874, Control_c, 0, 64, 42
1, 113874, Note_on_c, 0, 62, 58
1, 113889, Control_c, 0, 64, 0
1, 113924, Note_off_c, 0, 62, 56
1, 113937, Note_off_c, 0, 76, 65
1, 113952, Note_on_c, 0, 61, 56
1, 113963, Control_c, 0, 64, 39
1, 113970, Note_off_c, 0, 82, 54
1, 113977, Control_c, 0, 64, 56
1, 113992, Control_c, 0, 64, 66
1, 114007, Control_c, 0, 64, 71
1, 114015, Note_off_c, 0, 61, 62
1, 114022, Control_c, 0, 64, 74
1, 114030, Note_on_c, 0, 58, 70
1, 114051, Note_on_c, 0, 74, 57
1, 114081, Control_c, 0, 64, 71
1, 114085, Note_off_c, 0, 58, 62
1, 114096, Control_c, 0, 64, 63
1, 114111, Control_c, 0, 64, 43
1, 114119, Note_on_c, 0, 57, 69
1, 114125, Control_c, 0, 64, 0
1, 114133, Note_on_c, 0, 81, 83
1, 114154, Note_on_c, 0, 73, 73
1, 114169, Control_c, 0, 67, 123
1, 114176, Note_off_c, 0, 74, 63
1, 114184, Control_c, 0, 64, 43
1, 114184, Control_c, 0, 67, 101
1, 114185, Note_off_c, 0, 57, 60
1, 114199, Control_c, 0, 64, 59
1, 114199, Control_c, 0, 67, 71
1, 114204, Note_on_c, 0, 55, 68
1, 114214, Control_c, 0, 64, 68
1, 114214, Control_c, 0, 67, 37
1, 114229, Control_c, 0, 64, 75
1, 114229, Control_c, 0, 67, 0
1, 114244, Control_c, 0, 64, 80
1, 114259, Control_c, 0, 64, 82
1, 114274, Control_c, 0, 64, 82
1, 114287, Note_off_c, 0, 81, 59
1, 114287, Note_off_c, 0, 55, 51
1, 114297, Note_off_c, 0, 80, 59
1, 114303, Note_on_c, 0, 53, 68
1, 114303, Control_c, 0, 64, 82
1, 114318, Control_c, 0, 64, 81
1, 114333, Control_c, 0, 64, 75
1, 114348, Control_c, 0, 64, 65
1, 114348, Note_off_c, 0, 53, 60
1, 114369, Control_c, 0, 64, 45
1, 114384, Control_c, 0, 64, 0
1, 114398, Note_on_c, 0, 79, 74
1, 114399, Note_on_c, 0, 52, 65
1, 114403, Note_on_c, 0, 69, 68
1, 114405, Note_on_c, 0, 76, 56
1, 114437, Note_off_c, 0, 76, 66
1, 114445, Note_off_c, 0, 73, 63
1, 114458, Note_off_c, 0, 52, 56
1, 114458, Control_c, 0, 64, 42
1, 114473, Control_c, 0, 64, 60
1, 114479, Note_on_c, 0, 50, 64
1, 114488, Control_c, 0, 64, 68
1, 114503, Control_c, 0, 64, 74
1, 114518, Control_c, 0, 64, 77
1, 114533, Control_c, 0, 64, 79
1, 114538, Note_off_c, 0, 50, 62
1, 114545, Note_on_c, 0, 49, 68
1, 114548, Control_c, 0, 64, 79
1, 114563, Note_off_c, 0, 69, 37
1, 114581, Note_off_c, 0, 49, 65
1, 114593, Control_c, 0, 64, 77
1, 114607, Control_c, 0, 64, 69
1, 114622, Control_c, 0, 64, 55
1, 114637, Control_c, 0, 64, 0
1, 114646, Note_on_c, 0, 77, 83
1, 114656, Note_on_c, 0, 50, 64
1, 114665, Note_on_c, 0, 69, 70
1, 114697, Control_c, 0, 64, 36
1, 114712, Control_c, 0, 64, 53
1, 114718, Note_off_c, 0, 79, 61
1, 114727, Control_c, 0, 64, 65
1, 114742, Control_c, 0, 64, 72
1, 114745, Note_on_c, 0, 53, 70
1, 114756, Control_c, 0, 64, 79
1, 114765, Note_off_c, 0, 50, 59
1, 114771, Control_c, 0, 64, 83
1, 114786, Control_c, 0, 64, 85
1, 114800, Control_c, 0, 64, 85
1, 114810, Note_off_c, 0, 53, 62
1, 114810, Note_off_c, 0, 77, 67
1, 114820, Note_on_c, 0, 57, 70
1, 114830, Control_c, 0, 64, 85
1, 114845, Control_c, 0, 64, 78
1, 114860, Control_c, 0, 64, 65
1, 114874, Control_c, 0, 64, 36
1, 114889, Control_c, 0, 64, 0
1, 114895, Note_on_c, 0, 48, 86
1, 114895, Note_off_c, 0, 57, 56
1, 114903, Note_on_c, 0, 76, 90
1, 114948, Control_c, 0, 64, 40
1, 114963, Control_c, 0, 64, 57
1, 114974, Note_on_c, 0, 52, 79
1, 114978, Control_c, 0, 64, 70
1, 114992, Control_c, 0, 64, 81
1, 115007, Control_c, 0, 64, 93
1, 115022, Note_off_c, 0, 76, 56
1, 115022, Control_c, 0, 64, 102
1, 115037, Control_c, 0, 64, 111
1, 115052, Control_c, 0, 64, 124
1, 115055, Note_on_c, 0, 57, 75
1, 115062, Note_off_c, 0, 48, 35
1, 115067, Control_c, 0, 64, 127
1, 115072, Note_off_c, 0, 52, 60
1, 115111, Control_c, 0, 64, 112
1, 115133, Control_c, 0, 64, 82
1, 115148, Control_c, 0, 64, 60
1, 115150, Note_on_c, 0, 47, 84
1, 115157, Note_on_c, 0, 74, 88
1, 115159, Note_off_c, 0, 57, 57
1, 115163, Control_c, 0, 64, 0
1, 115180, Note_on_c, 0, 65, 63
1, 115206, Note_off_c, 0, 69, 59
1, 115222, Control_c, 0, 64, 30
1, 115236, Note_on_c, 0, 50, 75
1, 115237, Control_c, 0, 64, 53
1, 115252, Control_c, 0, 64, 67
1, 115266, Control_c, 0, 64, 80
1, 115281, Control_c, 0, 64, 104
1, 115296, Control_c, 0, 64, 127
1, 115300, Note_off_c, 0, 50, 64
1, 115326, Note_on_c, 0, 57, 70
1, 115335, Note_off_c, 0, 65, 61
1, 115351, Note_on_c, 0, 55, 50
1, 115356, Control_c, 0, 64, 108
1, 115371, Control_c, 0, 64, 78
1, 115380, Note_off_c, 0, 55, 35
1, 115386, Control_c, 0, 64, 50
1, 115401, Control_c, 0, 64, 0
1, 115403, Note_on_c, 0, 46, 80
1, 115403, Note_off_c, 0, 47, 38
1, 115404, Note_on_c, 0, 62, 84
1, 115419, Note_off_c, 0, 57, 65
1, 115469, Note_off_c, 0, 62, 62
1, 115475, Control_c, 0, 64, 46
1, 115490, Control_c, 0, 64, 64
1, 115505, Control_c, 0, 64, 75
1, 115511, Note_on_c, 0, 50, 73
1, 115520, Note_on_c, 0, 51, 65
1, 115520, Control_c, 0, 64, 91
1, 115535, Control_c, 0, 64, 110
1, 115549, Control_c, 0, 64, 127
1, 115592, Note_on_c, 0, 56, 82
1, 115642, Note_off_c, 0, 56, 61
1, 115683, Control_c, 0, 64, 99
1, 115697, Control_c, 0, 64, 69
1, 115712, Control_c, 0, 64, 45
1, 115717, Note_off_c, 0, 51, 17
1, 115721, Note_on_c, 0, 73, 77
1, 115722, Note_off_c, 0, 74, 36
1, 115725, Note_on_c, 0, 57, 85
1, 115727, Note_off_c, 0, 46, 40
1, 115727, Control_c, 0, 64, 0
1, 115736, Note_on_c, 0, 45, 75
1, 115736, Note_off_c, 0, 50, 63
1, 115815, Control_c, 0, 64, 48
1, 115817, Note_on_c, 0, 69, 79
1, 115827, Note_off_c, 0, 73, 62
1, 115830, Control_c, 0, 64, 63
1, 115845, Control_c, 0, 64, 73
1, 115860, Control_c, 0, 64, 84
1, 115878, Note_off_c, 0, 69, 63
1, 115882, Control_c, 0, 64, 94
1, 115897, Control_c, 0, 64, 99
1, 115911, Note_on_c, 0, 73, 78
1, 115912, Control_c, 0, 64, 104
1, 115927, Control_c, 0, 64, 112
1, 115934, Note_off_c, 0, 73, 70
1, 115942, Control_c, 0, 64, 127
1, 115985, Note_on_c, 0, 76, 81
1, 116063, Note_on_c, 0, 81, 82
1, 116065, Note_off_c, 0, 76, 58
1, 116071, Note_off_c, 0, 45, 60
1, 116085, Note_off_c, 0, 57, 61
1, 116133, Note_on_c, 0, 85, 85
1, 116155, Note_off_c, 0, 81, 57
1, 116179, Control_c, 0, 64, 101
1, 116194, Control_c, 0, 64, 82
1, 116209, Control_c, 0, 64, 66
1, 116213, Note_on_c, 0, 88, 85
1, 116224, Control_c, 0, 64, 52
1, 116227, Note_off_c, 0, 85, 63
1, 116238, Control_c, 0, 64, 29
1, 116253, Control_c, 0, 64, 0
1, 116288, Note_on_c, 0, 86, 82
1, 116356, Note_on_c, 0, 85, 84
1, 116373, Note_off_c, 0, 88, 58
1, 116417, Note_off_c, 0, 86, 59
1, 116438, Note_on_c, 0, 82, 88
1, 116480, Note_off_c, 0, 85, 64
1, 116511, Note_off_c, 0, 82, 62
1, 116514, Note_on_c, 0, 81, 79
1, 116591, Note_on_c, 0, 79, 82
1, 116596, Note_off_c, 0, 81, 63
1, 116675, Note_on_c, 0, 77, 90
1, 116730, Note_off_c, 0, 79, 60
1, 116766, Note_on_c, 0, 50, 75
1, 116842, Note_on_c, 0, 53, 77
1, 116857, Note_off_c, 0, 50, 60
1, 116930, Note_on_c, 0, 57, 78
1, 116930, Note_off_c, 0, 53, 61
1, 116983, Note_off_c, 0, 57, 62
1, 117015, Note_on_c, 0, 62, 68
1, 117017, Control_c, 0, 64, 34
1, 117032, Control_c, 0, 64, 44
1, 117043, Note_off_c, 0, 62, 66
1, 117047, Control_c, 0, 64, 54
1, 117061, Control_c, 0, 64, 61
1, 117076, Control_c, 0, 64, 63
1, 117081, Note_off_c, 0, 77, 65
1, 117088, Note_on_c, 0, 65, 82
1, 117091, Control_c, 0, 64, 64
1, 117143, Note_off_c, 0, 65, 63
1, 117150, Control_c, 0, 64, 64
1, 117165, Control_c, 0, 64, 63
1, 117168, Note_on_c, 0, 69, 82
1, 117180, Control_c, 0, 64, 60
1, 117195, Control_c, 0, 64, 54
1, 117210, Control_c, 0, 64, 47
1, 117225, Control_c, 0, 64, 37
1, 117240, Control_c, 0, 64, 0
1, 117244, Note_on_c, 0, 67, 82
1, 117255, Note_off_c, 0, 69, 61
1, 117317, Note_on_c, 0, 65, 77
1, 117320, Note_off_c, 0, 67, 61
1, 117398, Note_on_c, 0, 86, 93
1, 117399, Note_on_c, 0, 64, 79
1, 117405, Note_off_c, 0, 65, 61
1, 117415, Note_on_c, 0, 77, 71
1, 117441, Note_off_c, 0, 77, 68
1, 117444, Note_off_c, 0, 64, 64
1, 117454, Control_c, 0, 64, 34
1, 117469, Control_c, 0, 64, 52
1, 117476, Note_on_c, 0, 65, 73
1, 117484, Control_c, 0, 64, 64
1, 117499, Control_c, 0, 64, 70
1, 117513, Control_c, 0, 64, 74
1, 117528, Control_c, 0, 64, 76
1, 117538, Note_off_c, 0, 65, 61
1, 117556, Note_on_c, 0, 62, 73
1, 117573, Control_c, 0, 64, 76
1, 117588, Control_c, 0, 64, 73
1, 117602, Control_c, 0, 64, 65
1, 117617, Control_c, 0, 64, 52
1, 117631, Note_off_c, 0, 62, 61
1, 117632, Control_c, 0, 64, 0
1, 117647, Control_c, 0, 67, 57
1, 117662, Control_c, 0, 67, 81
1, 117665, Note_on_c, 0, 85, 77
1, 117675, Note_on_c, 0, 57, 58
1, 117676, Control_c, 0, 67, 110
1, 117687, Note_on_c, 0, 76, 75
1, 117691, Control_c, 0, 67, 127
1, 117699, Note_off_c, 0, 86, 64
1, 117706, Control_c, 0, 64, 47
1, 117720, Control_c, 0, 64, 62
1, 117726, Note_off_c, 0, 85, 66
1, 117736, Control_c, 0, 64, 70
1, 117751, Control_c, 0, 64, 74
1, 117761, Note_off_c, 0, 76, 65
1, 117766, Control_c, 0, 64, 75
1, 117840, Control_c, 0, 64, 74
1, 117855, Control_c, 0, 64, 71
1, 117863, Note_on_c, 0, 69, 59
1, 117870, Control_c, 0, 64, 67
1, 117881, Note_off_c, 0, 57, 62
1, 117884, Control_c, 0, 64, 61
1, 117899, Control_c, 0, 64, 50
1, 117913, Note_off_c, 0, 69, 61
1, 117914, Control_c, 0, 64, 35
1, 117929, Control_c, 0, 64, 0
1, 117941, Note_on_c, 0, 73, 66
1, 117968, Note_off_c, 0, 73, 68
1, 118021, Note_on_c, 0, 76, 76
1, 118058, Note_off_c, 0, 76, 57
1, 118112, Note_on_c, 0, 81, 66
1, 118168, Note_off_c, 0, 81, 62
1, 118174, Note_on_c, 0, 85, 66
1, 118247, Note_on_c, 0, 88, 67
1, 118253, Note_off_c, 0, 85, 60
1, 118325, Note_on_c, 0, 86, 71
1, 118345, Note_off_c, 0, 88, 54
1, 118401, Note_on_c, 0, 85, 70
1, 118427, Note_off_c, 0, 86, 58
1, 118475, Note_on_c, 0, 82, 72
1, 118493, Note_off_c, 0, 85, 64
1, 118522, Note_off_c, 0, 82, 61
1, 118554, Note_on_c, 0, 81, 65
1, 118614, Note_off_c, 0, 81, 59
1, 118621, Note_on_c, 0, 79, 71
1, 118701, Note_on_c, 0, 77, 74
1, 118787, Note_on_c, 0, 50, 62
1, 118867, Note_on_c, 0, 53, 66
1, 118870, Note_off_c, 0, 50, 60
1, 118939, Note_off_c, 0, 53, 60
1, 118944, Note_on_c, 0, 57, 73
1, 118978, Note_off_c, 0, 57, 63
1, 119028, Note_on_c, 0, 62, 62
1, 119057, Note_off_c, 0, 62, 65
1, 119070, Note_off_c, 0, 77, 65
1, 119073, Note_off_c, 0, 79, 63
1, 119112, Note_on_c, 0, 65, 75
1, 119159, Control_c, 0, 67, 112
1, 119164, Note_off_c, 0, 65, 62
1, 119174, Control_c, 0, 67, 94
1, 119189, Control_c, 0, 67, 73
1, 119190, Note_on_c, 0, 69, 79
1, 119204, Control_c, 0, 67, 52
1, 119219, Control_c, 0, 67, 0
1, 119266, Note_on_c, 0, 67, 82
1, 119271, Note_off_c, 0, 69, 63
1, 119343, Note_on_c, 0, 65, 80
1, 119348, Note_off_c, 0, 67, 62
1, 119413, Control_c, 0, 64, 36
1, 119422, Note_on_c, 0, 86, 97
1, 119423, Note_on_c, 0, 64, 79
1, 119428, Control_c, 0, 64, 47
1, 119430, Note_off_c, 0, 65, 63
1, 119442, Note_on_c, 0, 77, 69
1, 119442, Control_c, 0, 64, 57
1, 119457, Control_c, 0, 64, 62
1, 119467, Note_off_c, 0, 77, 67
1, 119472, Control_c, 0, 64, 66
1, 119476, Note_off_c, 0, 64, 66
1, 119487, Control_c, 0, 64, 70
1, 119502, Control_c, 0, 64, 77
1, 119510, Note_on_c, 0, 65, 83
1, 119516, Control_c, 0, 64, 86
1, 119531, Control_c, 0, 64, 98
1, 119546, Control_c, 0, 64, 127
1, 119592, Note_off_c, 0, 65, 61
1, 119596, Note_on_c, 0, 62, 79
1, 119735, Note_on_c, 0, 85, 92
1, 119749, Note_on_c, 0, 76, 83
1, 119753, Note_on_c, 0, 57, 85
1, 119755, Note_off_c, 0, 62, 61
1, 119760, Control_c, 0, 64, 117
1, 119773, Note_off_c, 0, 86, 64
1, 119775, Control_c, 0, 64, 74
1, 119789, Control_c, 0, 64, 51
1, 119804, Control_c, 0, 64, 0
1, 119909, Note_on_c, 0, 81, 86
1, 119922, Note_off_c, 0, 76, 32
1, 119922, Control_c, 0, 64, 45
1, 119937, Control_c, 0, 64, 57
1, 119938, Note_off_c, 0, 85, 61
1, 119952, Control_c, 0, 64, 64
1, 119967, Control_c, 0, 64, 69
1, 119982, Control_c, 0, 64, 75
1, 119997, Control_c, 0, 64, 79
1, 119997, Note_off_c, 0, 81, 62
1, 120012, Control_c, 0, 64, 82
1, 120021, Note_on_c, 0, 76, 88
1, 120027, Control_c, 0, 64, 84
1, 120042, Control_c, 0, 64, 85
1, 120056, Control_c, 0, 64, 87
1, 120071, Control_c, 0, 64, 89
1, 120072, Note_off_c, 0, 76, 61
1, 120086, Control_c, 0, 64, 90
1, 120101, Control_c, 0, 64, 91
1, 120111, Note_on_c, 0, 73, 84
1, 120115, Control_c, 0, 64, 92
1, 120131, Control_c, 0, 64, 92
1, 120161, Control_c, 0, 64, 93
1, 120200, Note_on_c, 0, 76, 86
1, 120203, Note_off_c, 0, 73, 64
1, 120205, Control_c, 0, 64, 93
1, 120250, Note_off_c, 0, 57, 59
1, 120286, Note_on_c, 0, 73, 84
1, 120306, Note_off_c, 0, 76, 58
1, 120353, Note_off_c, 0, 73, 61
1, 120354, Note_on_c, 0, 69, 80
1, 120429, Note_on_c, 0, 73, 79
1, 120441, Note_off_c, 0, 69, 57
1, 120465, Control_c, 0, 64, 93
1, 120508, Note_on_c, 0, 69, 74
1, 120516, Note_off_c, 0, 73, 63
1, 120568, Note_off_c, 0, 69, 60
1, 120578, Note_on_c, 0, 64, 80
1, 120598, Control_c, 0, 64, 92
1, 120612, Control_c, 0, 64, 92
1, 120627, Control_c, 0, 64, 90
1, 120641, Note_off_c, 0, 64, 56
1, 120642, Control_c, 0, 64, 89
1, 120657, Control_c, 0, 64, 87
1, 120658, Note_on_c, 0, 69, 81
1, 120671, Control_c, 0, 64, 84
1, 120686, Control_c, 0, 64, 82
1, 120701, Control_c, 0, 64, 80
1, 120716, Control_c, 0, 64, 77
1, 120731, Control_c, 0, 64, 73
1, 120733, Note_off_c, 0, 69, 63
1, 120734, Note_on_c, 0, 64, 78
1, 120745, Control_c, 0, 64, 69
1, 120760, Control_c, 0, 64, 64
1, 120775, Control_c, 0, 64, 60
1, 120790, Control_c, 0, 64, 57
1, 120797, Note_off_c, 0, 64, 65
1, 120805, Control_c, 0, 64, 55
1, 120809, Note_on_c, 0, 61, 76
1, 120820, Control_c, 0, 64, 53
1, 120835, Control_c, 0, 64, 53
1, 120864, Control_c, 0, 64, 52
1, 120879, Note_on_c, 0, 64, 71
1, 120894, Note_off_c, 0, 61, 60
1, 120965, Note_on_c, 0, 61, 75
1, 120984, Note_off_c, 0, 64, 64
1, 121025, Note_off_c, 0, 61, 63
1, 121037, Note_on_c, 0, 57, 74
1, 121073, Control_c, 0, 64, 53
1, 121096, Note_on_c, 0, 61, 77
1, 121109, Control_c, 0, 64, 53
1, 121112, Note_off_c, 0, 57, 62
1, 121175, Note_on_c, 0, 57, 71
1, 121184, Note_off_c, 0, 61, 64
1, 121228, Control_c, 0, 64, 54
1, 121234, Note_off_c, 0, 57, 64
1, 121243, Control_c, 0, 64, 55
1, 121245, Note_on_c, 0, 52, 70
1, 121258, Control_c, 0, 64, 56
1, 121273, Control_c, 0, 64, 57
1, 121287, Control_c, 0, 64, 59
1, 121302, Control_c, 0, 64, 60
1, 121317, Note_off_c, 0, 52, 54
1, 121317, Control_c, 0, 64, 61
1, 121326, Note_on_c, 0, 57, 78
1, 121332, Control_c, 0, 64, 62
1, 121347, Control_c, 0, 64, 64
1, 121361, Control_c, 0, 64, 65
1, 121376, Control_c, 0, 64, 66
1, 121391, Control_c, 0, 64, 67
1, 121395, Note_on_c, 0, 52, 70
1, 121395, Note_off_c, 0, 57, 64
1, 121406, Control_c, 0, 64, 69
1, 121421, Control_c, 0, 64, 70
1, 121435, Control_c, 0, 64, 71
1, 121450, Control_c, 0, 64, 72
1, 121462, Note_off_c, 0, 52, 63
1, 121465, Control_c, 0, 64, 73
1, 121472, Note_on_c, 0, 49, 80
1, 121494, Control_c, 0, 64, 73
1, 121546, Note_on_c, 0, 52, 68
1, 121550, Note_off_c, 0, 49, 60
1, 121640, Note_on_c, 0, 49, 73
1, 121672, Control_c, 0, 64, 72
1, 121687, Control_c, 0, 64, 71
1, 121695, Note_off_c, 0, 49, 61
1, 121701, Note_on_c, 0, 33, 72
1, 121702, Control_c, 0, 64, 67
1, 121710, Note_on_c, 0, 45, 73
1, 121717, Control_c, 0, 64, 61
1, 121732, Control_c, 0, 64, 54
1, 121747, Control_c, 0, 64, 47
1, 121762, Control_c, 0, 64, 38
1, 121777, Control_c, 0, 64, 0
1, 121785, Note_off_c, 0, 45, 54
1, 121794, Note_on_c, 0, 49, 72
1, 121800, Note_on_c, 0, 37, 59
1, 121807, Note_off_c, 0, 52, 41
1, 121881, Note_on_c, 0, 52, 60
1, 121895, Note_on_c, 0, 40, 59
1, 121904, Note_off_c, 0, 49, 56
1, 121904, Control_c, 0, 64, 30
1, 121918, Control_c, 0, 64, 34
1, 121933, Control_c, 0, 64, 36
1, 121938, Note_off_c, 0, 37, 45
1, 121948, Control_c, 0, 64, 38
1, 121954, Note_off_c, 0, 40, 60
1, 121960, Note_on_c, 0, 57, 69
1, 121963, Control_c, 0, 64, 40
1, 121967, Note_on_c, 0, 45, 51
1, 121967, Note_off_c, 0, 52, 63
1, 121978, Control_c, 0, 64, 42
1, 121992, Control_c, 0, 64, 45
1, 122007, Control_c, 0, 64, 48
1, 122022, Control_c, 0, 64, 53
1, 122031, Note_on_c, 0, 52, 60
1, 122037, Note_on_c, 0, 40, 57
1, 122037, Control_c, 0, 64, 57
1, 122040, Note_off_c, 0, 45, 55
1, 122052, Control_c, 0, 64, 59
1, 122066, Control_c, 0, 64, 61
1, 122081, Control_c, 0, 64, 63
1, 122096, Control_c, 0, 64, 64
1, 122109, Note_on_c, 0, 49, 71
1, 122110, Control_c, 0, 64, 64
1, 122111, Note_off_c, 0, 33, 41
1, 122116, Note_on_c, 0, 37, 70
1, 122125, Control_c, 0, 64, 65
1, 122170, Control_c, 0, 64, 64
1, 122177, Note_off_c, 0, 40, 35
1, 122178, Note_off_c, 0, 49, 64
1, 122179, Note_on_c, 0, 45, 74
1, 122185, Control_c, 0, 64, 62
1, 122194, Note_on_c, 0, 33, 82
1, 122196, Note_off_c, 0, 37, 63
1, 122200, Control_c, 0, 64, 57
1, 122215, Control_c, 0, 64, 46
1, 122230, Control_c, 0, 64, 0
1, 122258, Note_on_c, 0, 49, 75
1, 122260, Note_off_c, 0, 57, 46
1, 122268, Note_on_c, 0, 37, 69
1, 122268, Note_off_c, 0, 45, 58
1, 122310, Note_off_c, 0, 52, 36
1, 122318, Control_c, 0, 64, 38
1, 122333, Control_c, 0, 64, 50
1, 122342, Note_on_c, 0, 52, 63
1, 122347, Note_on_c, 0, 40, 73
1, 122348, Control_c, 0, 64, 57
1, 122363, Note_off_c, 0, 49, 58
1, 122363, Control_c, 0, 64, 62
1, 122378, Control_c, 0, 64, 64
1, 122381, Note_off_c, 0, 37, 57
1, 122392, Control_c, 0, 64, 66
1, 122407, Control_c, 0, 64, 67
1, 122415, Note_on_c, 0, 45, 70
1, 122416, Note_on_c, 0, 57, 72
1, 122420, Note_off_c, 0, 40, 62
1, 122422, Control_c, 0, 64, 68
1, 122429, Note_off_c, 0, 52, 63
1, 122481, Control_c, 0, 64, 69
1, 122489, Note_on_c, 0, 52, 70
1, 122492, Note_on_c, 0, 40, 66
1, 122509, Note_off_c, 0, 45, 59
1, 122525, Note_off_c, 0, 33, 40
1, 122556, Control_c, 0, 64, 68
1, 122571, Control_c, 0, 64, 66
1, 122576, Note_on_c, 0, 49, 80
1, 122578, Note_on_c, 0, 37, 79
1, 122586, Control_c, 0, 64, 61
1, 122606, Note_off_c, 0, 40, 54
1, 122608, Control_c, 0, 64, 47
1, 122623, Control_c, 0, 64, 0
1, 122646, Note_on_c, 0, 45, 78
1, 122649, Note_off_c, 0, 49, 64
1, 122659, Note_on_c, 0, 33, 74
1, 122664, Note_off_c, 0, 37, 63
1, 122703, Note_on_c, 0, 54, 7
1, 122713, Note_off_c, 0, 45, 60
1, 122721, Note_on_c, 0, 49, 76
1, 122721, Note_off_c, 0, 57, 57
1, 122725, Control_c, 0, 64, 40
1, 122732, Note_off_c, 0, 54, 50
1, 122736, Note_on_c, 0, 37, 75
1, 122739, Control_c, 0, 64, 55
1, 122745, Note_off_c, 0, 33, 62
1, 122754, Note_off_c, 0, 52, 36
1, 122754, Control_c, 0, 64, 62
1, 122769, Control_c, 0, 64, 65
1, 122784, Control_c, 0, 64, 67
1, 122786, Note_off_c, 0, 49, 64
1, 122799, Control_c, 0, 64, 69
1, 122812, Note_on_c, 0, 52, 67
1, 122813, Note_on_c, 0, 40, 73
1, 122814, Control_c, 0, 64, 73
1, 122820, Note_off_c, 0, 37, 62
1, 122829, Control_c, 0, 64, 77
1, 122837, Note_off_c, 0, 52, 68
1, 122844, Control_c, 0, 64, 79
1, 122855, Note_off_c, 0, 40, 60
1, 122858, Control_c, 0, 64, 80
1, 122873, Control_c, 0, 64, 82
1, 122878, Note_on_c, 0, 57, 77
1, 122881, Note_on_c, 0, 45, 72
1, 122888, Control_c, 0, 64, 83
1, 122903, Control_c, 0, 64, 83
1, 122919, Note_off_c, 0, 45, 65
1, 122963, Note_off_c, 0, 57, 54
1, 122964, Note_on_c, 0, 61, 77
1, 122969, Note_on_c, 0, 49, 75
1, 122992, Control_c, 0, 64, 83
1, 123021, Control_c, 0, 64, 82
1, 123030, Note_on_c, 0, 64, 84
1, 123032, Note_on_c, 0, 52, 81
1, 123036, Control_c, 0, 64, 81
1, 123050, Control_c, 0, 64, 78
1, 123052, Note_off_c, 0, 49, 49
1, 123055, Note_off_c, 0, 61, 61
1, 123065, Control_c, 0, 64, 75
1, 123080, Control_c, 0, 64, 70
1, 123095, Control_c, 0, 64, 65
1, 123103, Note_off_c, 0, 52, 61
1, 123107, Note_on_c, 0, 69, 86
1, 123110, Control_c, 0, 64, 55
1, 123112, Note_on_c, 0, 57, 75
1, 123119, Note_off_c, 0, 64, 65
1, 123124, Control_c, 0, 64, 37
1, 123139, Control_c, 0, 64, 0
1, 123181, Note_on_c, 0, 52, 73
1, 123184, Note_on_c, 0, 64, 80
1, 123191, Note_off_c, 0, 57, 63
1, 123215, Note_on_c, 0, 66, 8
1, 123258, Note_on_c, 0, 49, 79
1, 123261, Note_on_c, 0, 61, 82
1, 123277, Note_off_c, 0, 66, 46
1, 123281, Note_off_c, 0, 52, 58
1, 123288, Control_c, 0, 64, 32
1, 123303, Control_c, 0, 64, 43
1, 123318, Control_c, 0, 64, 53
1, 123330, Note_on_c, 0, 57, 81
1, 123331, Note_off_c, 0, 61, 65
1, 123333, Control_c, 0, 64, 58
1, 123336, Note_on_c, 0, 45, 79
1, 123341, Note_off_c, 0, 49, 63
1, 123355, Control_c, 0, 64, 59
1, 123356, Note_off_c, 0, 64, 55
1, 123370, Control_c, 0, 64, 58
1, 123385, Control_c, 0, 64, 56
1, 123400, Control_c, 0, 64, 50
1, 123414, Note_on_c, 0, 49, 78
1, 123414, Note_on_c, 0, 61, 81
1, 123415, Control_c, 0, 64, 36
1, 123426, Note_off_c, 0, 57, 57
1, 123430, Control_c, 0, 64, 0
1, 123438, Note_off_c, 0, 45, 59
1, 123487, Note_on_c, 0, 64, 80
1, 123497, Note_on_c, 0, 52, 80
1, 123520, Note_off_c, 0, 61, 63
1, 123526, Note_off_c, 0, 49, 58
1, 123551, Note_off_c, 0, 69, 0
1, 123560, Note_on_c, 0, 45, 73
1, 123563, Note_on_c, 0, 57, 79
1, 123571, Note_on_c, 0, 69, 28
1, 123583, Note_off_c, 0, 52, 59
1, 123598, Note_off_c, 0, 64, 61
1, 123634, Note_on_c, 0, 61, 82
1, 123637, Control_c, 0, 64, 48
1, 123637, Note_on_c, 0, 49, 79
1, 123643, Note_off_c, 0, 57, 62
1, 123645, Note_off_c, 0, 69, 50
1, 123649, Note_off_c, 0, 45, 63
1, 123652, Control_c, 0, 64, 63
1, 123666, Control_c, 0, 64, 68
1, 123681, Control_c, 0, 64, 71
1, 123696, Control_c, 0, 64, 72
1, 123699, Note_off_c, 0, 61, 64
1, 123711, Control_c, 0, 64, 73
1, 123714, Note_on_c, 0, 64, 83
1, 123718, Note_on_c, 0, 52, 82
1, 123726, Control_c, 0, 64, 74
1, 123732, Note_off_c, 0, 49, 62
1, 123741, Control_c, 0, 64, 75
1, 123744, Note_off_c, 0, 64, 66
1, 123755, Control_c, 0, 64, 77
1, 123770, Control_c, 0, 64, 78
1, 123771, Note_off_c, 0, 52, 60
1, 123785, Control_c, 0, 64, 78
1, 123793, Note_on_c, 0, 57, 71
1, 123794, Note_on_c, 0, 69, 87
1, 123800, Control_c, 0, 64, 79
1, 123815, Control_c, 0, 64, 80
1, 123818, Note_off_c, 0, 57, 69
1, 123829, Control_c, 0, 64, 80
1, 123866, Note_on_c, 0, 73, 87
1, 123871, Note_on_c, 0, 61, 78
1, 123874, Note_off_c, 0, 69, 57
1, 123933, Control_c, 0, 64, 80
1, 123936, Note_on_c, 0, 64, 86
1, 123939, Note_off_c, 0, 61, 63
1, 123940, Note_on_c, 0, 76, 90
1, 123947, Control_c, 0, 64, 78
1, 123962, Control_c, 0, 64, 72
1, 123963, Note_off_c, 0, 73, 61
1, 123977, Control_c, 0, 64, 64
1, 123992, Control_c, 0, 64, 51
1, 124005, Note_off_c, 0, 64, 64
1, 124007, Control_c, 0, 64, 32
1, 124015, Note_on_c, 0, 69, 80
1, 124015, Note_on_c, 0, 81, 86
1, 124021, Control_c, 0, 64, 0
1, 124030, Note_off_c, 0, 76, 63
1, 124084, Note_off_c, 0, 69, 63
1, 124085, Note_on_c, 0, 76, 84
1, 124086, Note_on_c, 0, 64, 80
1, 124123, Note_on_c, 0, 78, 11
1, 124133, Note_off_c, 0, 81, 55
1, 124169, Note_on_c, 0, 61, 86
1, 124176, Note_on_c, 0, 73, 89
1, 124185, Note_off_c, 0, 64, 58
1, 124199, Note_off_c, 0, 78, 39
1, 124239, Note_on_c, 0, 57, 80
1, 124243, Note_off_c, 0, 73, 64
1, 124243, Note_off_c, 0, 61, 65
1, 124244, Note_on_c, 0, 69, 85
1, 124269, Note_off_c, 0, 76, 60
1, 124304, Note_on_c, 0, 61, 78
1, 124310, Note_on_c, 0, 73, 84
1, 124322, Note_off_c, 0, 57, 61
1, 124336, Note_on_c, 0, 71, 13
1, 124337, Note_off_c, 0, 69, 60
1, 124372, Note_on_c, 0, 64, 83
1, 124383, Note_off_c, 0, 71, 29
1, 124383, Note_off_c, 0, 61, 62
1, 124385, Note_on_c, 0, 76, 84
1, 124415, Note_off_c, 0, 73, 62
1, 124430, Control_c, 0, 64, 46
1, 124443, Note_off_c, 0, 64, 64
1, 124445, Control_c, 0, 64, 61
1, 124459, Control_c, 0, 64, 68
1, 124470, Note_on_c, 0, 69, 82
1, 124474, Control_c, 0, 64, 75
1, 124481, Note_on_c, 0, 81, 99
1, 124489, Control_c, 0, 64, 82
1, 124496, Note_off_c, 0, 76, 64
1, 124501, Note_off_c, 0, 69, 63
1, 124504, Control_c, 0, 64, 92
1, 124519, Note_on_c, 0, 78, 33
1, 124519, Control_c, 0, 64, 127
1, 124527, Note_off_c, 0, 81, 66
1, 124555, Note_off_c, 0, 78, 50
1, 124711, Control_c, 0, 64, 108
1, 124726, Control_c, 0, 64, 81
1, 124741, Control_c, 0, 64, 65
1, 124756, Control_c, 0, 64, 54
1, 124770, Control_c, 0, 64, 52
1, 124776, Note_on_c, 0, 57, 66
1, 124785, Control_c, 0, 64, 55
1, 124787, Note_on_c, 0, 45, 68
1, 124799, Note_on_c, 0, 67, 67
1, 124800, Control_c, 0, 64, 61
1, 124804, Note_on_c, 0, 69, 63
1, 124815, Control_c, 0, 64, 67
1, 124819, Note_off_c, 0, 67, 65
1, 124823, Note_off_c, 0, 69, 63
1, 124829, Control_c, 0, 64, 74
1, 124852, Control_c, 0, 64, 81
1, 124867, Control_c, 0, 64, 89
1, 124882, Control_c, 0, 64, 98
1, 124886, Note_off_c, 0, 57, 62
1, 124897, Note_off_c, 0, 45, 56
1, 124898, Control_c, 0, 64, 107
1, 124912, Control_c, 0, 64, 127
1, 125193, Note_on_c, 0, 81, 81
1, 125224, Control_c, 0, 64, 105
1, 125231, Note_on_c, 0, 79, 29
1, 125231, Note_off_c, 0, 79, 127
1, 125239, Control_c, 0, 64, 88
1, 125253, Control_c, 0, 64, 75
1, 125253, Control_c, 0, 67, 45
1, 125268, Control_c, 0, 64, 64
1, 125268, Control_c, 0, 67, 72
1, 125283, Control_c, 0, 64, 51
1, 125283, Control_c, 0, 67, 102
1, 125298, Control_c, 0, 64, 38
1, 125298, Control_c, 0, 67, 127
1, 125313, Control_c, 0, 64, 0
1, 125557, Note_on_c, 0, 64, 58
1, 125568, Note_on_c, 0, 61, 50
1, 125852, Note_off_c, 0, 61, 36
1, 125861, Note_on_c, 0, 65, 56
1, 125864, Note_off_c, 0, 64, 63
1, 125869, Note_on_c, 0, 62, 45
1, 125892, Note_off_c, 0, 65, 65
1, 125897, Note_off_c, 0, 62, 54
1, 125923, Note_off_c, 0, 81, 56
1, 125944, Note_on_c, 0, 82, 52
1, 126031, Note_on_c, 0, 81, 57
1, 126040, Note_off_c, 0, 82, 50
1, 126093, Note_on_c, 0, 79, 61
1, 126102, Note_on_c, 0, 64, 66
1, 126105, Note_off_c, 0, 81, 58
1, 126105, Note_on_c, 0, 67, 64
1, 126132, Note_off_c, 0, 67, 68
1, 126135, Note_off_c, 0, 64, 64
1, 126158, Note_off_c, 0, 79, 42
1, 126175, Note_on_c, 0, 81, 65
1, 126259, Note_on_c, 0, 79, 70
1, 126266, Note_off_c, 0, 81, 62
1, 126332, Note_on_c, 0, 65, 66
1, 126337, Note_on_c, 0, 77, 72
1, 126339, Note_on_c, 0, 69, 59
1, 126339, Note_off_c, 0, 79, 63
1, 126367, Note_off_c, 0, 65, 66
1, 126374, Note_off_c, 0, 69, 68
1, 126414, Note_off_c, 0, 77, 57
1, 126425, Note_on_c, 0, 79, 63
1, 126508, Note_on_c, 0, 77, 69
1, 126515, Note_off_c, 0, 79, 56
1, 126573, Note_on_c, 0, 67, 59
1, 126573, Note_on_c, 0, 70, 59
1, 126579, Note_off_c, 0, 77, 62
1, 126586, Note_on_c, 0, 76, 66
1, 126610, Note_off_c, 0, 70, 59
1, 126618, Note_off_c, 0, 67, 59
1, 126646, Note_off_c, 0, 76, 61
1, 126662, Note_on_c, 0, 77, 66
1, 126723, Note_off_c, 0, 77, 64
1, 126749, Note_on_c, 0, 76, 54
1, 126766, Control_c, 0, 64, 36
1, 126780, Control_c, 0, 64, 50
1, 126795, Control_c, 0, 64, 59
1, 126802, Note_off_c, 0, 76, 60
1, 126805, Note_on_c, 0, 65, 51
1, 126810, Control_c, 0, 64, 64
1, 126813, Note_on_c, 0, 69, 53
1, 126818, Note_on_c, 0, 74, 64
1, 126825, Control_c, 0, 64, 66
1, 126825, Control_c, 0, 67, 117
1, 126840, Control_c, 0, 64, 68
1, 126840, Control_c, 0, 67, 83
1, 126852, Note_off_c, 0, 69, 65
1, 126853, Note_off_c, 0, 65, 63
1, 126854, Control_c, 0, 64, 70
1, 126854, Control_c, 0, 67, 44
1, 126869, Control_c, 0, 64, 73
1, 126869, Control_c, 0, 67, 0
1, 126884, Control_c, 0, 64, 76
1, 126898, Control_c, 0, 64, 80
1, 126912, Note_off_c, 0, 74, 54
1, 126913, Control_c, 0, 64, 85
1, 126928, Control_c, 0, 64, 89
1, 126943, Control_c, 0, 64, 95
1, 126958, Control_c, 0, 64, 102
1, 126972, Control_c, 0, 64, 110
1, 126987, Control_c, 0, 64, 127
1, 127080, Note_on_c, 0, 50, 75
1, 127083, Note_on_c, 0, 74, 72
1, 127112, Note_off_c, 0, 50, 66
1, 127369, Note_on_c, 0, 76, 70
1, 127379, Note_on_c, 0, 62, 82
1, 127381, Note_on_c, 0, 73, 69
1, 127440, Control_c, 0, 64, 102
1, 127455, Control_c, 0, 64, 87
1, 127470, Control_c, 0, 64, 75
1, 127485, Control_c, 0, 64, 65
1, 127493, Note_off_c, 0, 74, 48
1, 127500, Control_c, 0, 64, 53
1, 127515, Control_c, 0, 64, 39
1, 127529, Control_c, 0, 64, 0
1, 127647, Note_on_c, 0, 78, 75
1, 127649, Note_on_c, 0, 72, 65
1, 127679, Note_off_c, 0, 73, 61
1, 127685, Note_off_c, 0, 76, 62
1, 127909, Note_on_c, 0, 79, 66
1, 127911, Note_off_c, 0, 72, 62
1, 127912, Note_on_c, 0, 70, 63
1, 127914, Note_off_c, 0, 78, 60
1, 127935, Note_off_c, 0, 79, 66
1, 127937, Note_off_c, 0, 70, 65
1, 127973, Note_off_c, 0, 62, 63
1, 127992, Note_on_c, 0, 63, 63
1, 128043, Note_off_c, 0, 63, 52
1, 128063, Note_on_c, 0, 62, 64
1, 128135, Note_off_c, 0, 62, 62
1, 128143, Note_on_c, 0, 60, 67
1, 128147, Note_on_c, 0, 81, 67
1, 128147, Note_on_c, 0, 78, 69
1, 128172, Note_off_c, 0, 81, 69
1, 128173, Note_off_c, 0, 78, 68
1, 128202, Note_off_c, 0, 60, 63
1, 128233, Note_on_c, 0, 62, 67
1, 128296, Note_off_c, 0, 62, 57
1, 128310, Note_on_c, 0, 60, 67
1, 128368, Note_off_c, 0, 60, 59
1, 128379, Note_on_c, 0, 82, 68
1, 128384, Note_on_c, 0, 79, 64
1, 128386, Note_on_c, 0, 58, 68
1, 128409, Note_off_c, 0, 79, 68
1, 128411, Note_off_c, 0, 82, 61
1, 128446, Note_off_c, 0, 58, 61
1, 128478, Note_on_c, 0, 60, 59
1, 128530, Note_off_c, 0, 60, 60
1, 128550, Note_on_c, 0, 58, 62
1, 128608, Note_off_c, 0, 58, 58
1, 128636, Note_on_c, 0, 57, 66
1, 128639, Note_on_c, 0, 84, 53
1, 128646, Note_on_c, 0, 78, 44
1, 128660, Note_off_c, 0, 84, 61
1, 128674, Note_off_c, 0, 78, 48
1, 128686, Note_off_c, 0, 57, 61
1, 128719, Note_on_c, 0, 58, 65
1, 128757, Note_off_c, 0, 58, 61
1, 128790, Control_c, 0, 67, 41
1, 128797, Note_on_c, 0, 57, 60
1, 128805, Control_c, 0, 67, 54
1, 128820, Control_c, 0, 67, 73
1, 128834, Control_c, 0, 67, 94
1, 128849, Control_c, 0, 67, 116
1, 128862, Note_off_c, 0, 57, 62
1, 128864, Control_c, 0, 67, 127
1, 128871, Note_on_c, 0, 82, 49
1, 128876, Note_on_c, 0, 79, 53
1, 128922, Note_on_c, 0, 55, 32
1, 128926, Note_off_c, 0, 79, 64
1, 128939, Control_c, 0, 64, 45
1, 128954, Control_c, 0, 64, 59
1, 128968, Control_c, 0, 64, 63
1, 128983, Control_c, 0, 64, 64
1, 128998, Control_c, 0, 64, 65
1, 129008, Note_off_c, 0, 82, 63
1, 129013, Control_c, 0, 64, 65
1, 129028, Control_c, 0, 64, 66
1, 129101, Control_c, 0, 64, 65
1, 129116, Control_c, 0, 64, 64
1, 129130, Note_on_c, 0, 67, 62
1, 129131, Control_c, 0, 64, 60
1, 129146, Control_c, 0, 64, 51
1, 129148, Note_off_c, 0, 55, 41
1, 129157, Note_off_c, 0, 67, 66
1, 129161, Control_c, 0, 64, 0
1, 129396, Note_on_c, 0, 79, 60
1, 129651, Note_on_c, 0, 62, 50
1, 129668, Note_on_c, 0, 59, 47
1, 129799, Note_off_c, 0, 59, 46
1, 129869, Note_off_c, 0, 62, 60
1, 129904, Note_on_c, 0, 60, 49
1, 129904, Note_on_c, 0, 64, 53
1, 129926, Note_off_c, 0, 64, 61
1, 129929, Note_off_c, 0, 60, 56
1, 129957, Note_off_c, 0, 79, 60
1, 129974, Note_on_c, 0, 81, 58
1, 130066, Note_on_c, 0, 79, 59
1, 130078, Note_off_c, 0, 81, 49
1, 130132, Note_on_c, 0, 77, 62
1, 130141, Note_off_c, 0, 79, 56
1, 130143, Note_on_c, 0, 62, 49
1, 130146, Note_on_c, 0, 65, 51
1, 130167, Note_off_c, 0, 62, 61
1, 130168, Note_off_c, 0, 65, 60
1, 130186, Note_off_c, 0, 77, 45
1, 130210, Note_on_c, 0, 79, 55
1, 130296, Note_on_c, 0, 77, 72
1, 130328, Note_off_c, 0, 79, 61
1, 130363, Note_on_c, 0, 64, 65
1, 130373, Note_on_c, 0, 76, 68
1, 130377, Note_off_c, 0, 77, 62
1, 130378, Note_on_c, 0, 67, 46
1, 130389, Note_off_c, 0, 64, 67
1, 130403, Note_off_c, 0, 67, 56
1, 130438, Note_off_c, 0, 76, 50
1, 130460, Note_on_c, 0, 77, 61
1, 130545, Note_on_c, 0, 76, 68
1, 130547, Note_off_c, 0, 77, 58
1, 130600, Note_on_c, 0, 65, 55
1, 130603, Note_off_c, 0, 76, 63
1, 130604, Note_on_c, 0, 69, 53
1, 130622, Note_on_c, 0, 74, 63
1, 130628, Note_off_c, 0, 69, 60
1, 130632, Note_off_c, 0, 65, 63
1, 130666, Note_off_c, 0, 74, 59
1, 130683, Note_on_c, 0, 76, 61
1, 130749, Note_off_c, 0, 76, 63
1, 130762, Note_on_c, 0, 74, 67
1, 130806, Control_c, 0, 64, 33
1, 130811, Note_off_c, 0, 74, 60
1, 130821, Control_c, 0, 64, 47
1, 130825, Note_on_c, 0, 67, 47
1, 130827, Note_on_c, 0, 64, 46
1, 130836, Control_c, 0, 64, 58
1, 130851, Note_on_c, 0, 72, 62
1, 130858, Control_c, 0, 64, 63
1, 130869, Note_off_c, 0, 67, 65
1, 130872, Control_c, 0, 64, 65
1, 130879, Note_off_c, 0, 64, 64
1, 130887, Control_c, 0, 64, 67
1, 130887, Control_c, 0, 67, 112
1, 130902, Control_c, 0, 64, 69
1, 130902, Control_c, 0, 67, 67
1, 130917, Control_c, 0, 64, 72
1, 130917, Control_c, 0, 67, 0
1, 130932, Control_c, 0, 64, 76
1, 130946, Control_c, 0, 64, 79
1, 130952, Note_off_c, 0, 72, 63
1, 130961, Control_c, 0, 64, 81
1, 130976, Control_c, 0, 64, 83
1, 130991, Control_c, 0, 64, 85
1, 131005, Control_c, 0, 64, 87
1, 131020, Control_c, 0, 64, 87
1, 131095, Control_c, 0, 64, 87
1, 131108, Note_on_c, 0, 72, 72
1, 131116, Note_on_c, 0, 48, 59
1, 131125, Control_c, 0, 64, 86
1, 131139, Control_c, 0, 64, 84
1, 131154, Control_c, 0, 64, 80
1, 131169, Control_c, 0, 64, 74
1, 131184, Control_c, 0, 64, 68
1, 131198, Control_c, 0, 64, 61
1, 131213, Control_c, 0, 64, 54
1, 131228, Control_c, 0, 64, 47
1, 131228, Control_c, 0, 67, 39
1, 131243, Control_c, 0, 64, 39
1, 131243, Control_c, 0, 67, 51
1, 131258, Control_c, 0, 64, 29
1, 131258, Control_c, 0, 67, 64
1, 131272, Control_c, 0, 64, 0
1, 131272, Control_c, 0, 67, 80
1, 131287, Control_c, 0, 67, 98
1, 131302, Control_c, 0, 67, 117
1, 131318, Control_c, 0, 67, 127
1, 131388, Note_on_c, 0, 74, 60
1, 131409, Note_on_c, 0, 71, 62
1, 131420, Note_on_c, 0, 60, 41
1, 131426, Note_off_c, 0, 48, 56
1, 131475, Note_off_c, 0, 72, 63
1, 131688, Note_on_c, 0, 70, 57
1, 131694, Note_on_c, 0, 76, 57
1, 131748, Note_off_c, 0, 71, 59
1, 131829, Note_off_c, 0, 74, 35
1, 131936, Note_on_c, 0, 77, 64
1, 131948, Note_on_c, 0, 69, 48
1, 131953, Note_off_c, 0, 70, 63
1, 131956, Note_off_c, 0, 76, 63
1, 131971, Note_off_c, 0, 69, 57
1, 131975, Note_off_c, 0, 77, 63
1, 131998, Note_off_c, 0, 60, 60
1, 132026, Note_on_c, 0, 62, 47
1, 132072, Note_off_c, 0, 62, 60
1, 132108, Note_on_c, 0, 60, 44
1, 132147, Note_off_c, 0, 60, 57
1, 132167, Note_on_c, 0, 58, 61
1, 132168, Note_on_c, 0, 79, 60
1, 132180, Note_on_c, 0, 76, 50
1, 132192, Note_off_c, 0, 79, 68
1, 132199, Note_off_c, 0, 76, 60
1, 132217, Note_off_c, 0, 58, 60
1, 132248, Note_on_c, 0, 60, 50
1, 132298, Note_off_c, 0, 60, 58
1, 132333, Note_on_c, 0, 58, 48
1, 132384, Note_off_c, 0, 58, 61
1, 132402, Note_on_c, 0, 81, 61
1, 132405, Note_on_c, 0, 57, 55
1, 132418, Note_on_c, 0, 77, 54
1, 132431, Note_off_c, 0, 81, 66
1, 132438, Note_off_c, 0, 77, 62
1, 132440, Note_off_c, 0, 57, 61
1, 132479, Note_on_c, 0, 58, 59
1, 132511, Note_off_c, 0, 58, 61
1, 132538, Note_on_c, 0, 57, 51
1, 132612, Note_off_c, 0, 57, 60
1, 132629, Note_on_c, 0, 82, 47
1, 132632, Note_on_c, 0, 76, 51
1, 132640, Note_on_c, 0, 55, 48
1, 132653, Note_off_c, 0, 76, 61
1, 132664, Note_off_c, 0, 82, 62
1, 132679, Note_off_c, 0, 55, 63
1, 132722, Note_on_c, 0, 57, 51
1, 132758, Note_off_c, 0, 57, 60
1, 132794, Note_on_c, 0, 55, 30
1, 132841, Note_off_c, 0, 55, 51
1, 132878, Note_on_c, 0, 81, 50
1, 132883, Note_on_c, 0, 53, 39
1, 132883, Note_on_c, 0, 77, 39
1, 132986, Note_off_c, 0, 81, 64
1, 133006, Note_off_c, 0, 77, 65
1, 133112, Note_off_c, 0, 53, 63
1, 133118, Note_on_c, 0, 65, 64
1, 133145, Note_off_c, 0, 65, 68
1, 133149, Control_c, 0, 67, 125
1, 133164, Control_c, 0, 67, 68
1, 133179, Control_c, 0, 67, 0
1, 133414, Note_on_c, 0, 77, 51
1, 133645, Note_on_c, 0, 46, 58
1, 133670, Note_off_c, 0, 46, 59
1, 133916, Note_on_c, 0, 58, 58
1, 134004, Note_off_c, 0, 77, 58
1, 134013, Note_on_c, 0, 79, 46
1, 134085, Note_on_c, 0, 77, 54
1, 134108, Note_off_c, 0, 79, 53
1, 134156, Note_off_c, 0, 77, 64
1, 134157, Note_on_c, 0, 75, 66
1, 134241, Note_off_c, 0, 75, 59
1, 134249, Note_on_c, 0, 77, 65
1, 134320, Note_on_c, 0, 75, 69
1, 134349, Note_off_c, 0, 77, 60
1, 134398, Note_on_c, 0, 74, 73
1, 134402, Note_off_c, 0, 75, 63
1, 134445, Note_off_c, 0, 58, 62
1, 134457, Note_on_c, 0, 60, 54
1, 134464, Note_off_c, 0, 74, 58
1, 134475, Note_on_c, 0, 75, 66
1, 134493, Note_off_c, 0, 60, 58
1, 134549, Note_on_c, 0, 58, 48
1, 134555, Note_on_c, 0, 74, 78
1, 134597, Note_off_c, 0, 58, 60
1, 134599, Note_off_c, 0, 75, 55
1, 134620, Note_on_c, 0, 57, 63
1, 134639, Note_on_c, 0, 72, 71
1, 134645, Note_off_c, 0, 74, 63
1, 134672, Note_off_c, 0, 57, 62
1, 134698, Note_off_c, 0, 72, 57
1, 134700, Note_on_c, 0, 58, 67
1, 134708, Note_on_c, 0, 74, 67
1, 134733, Note_off_c, 0, 58, 66
1, 134779, Note_on_c, 0, 72, 74
1, 134782, Note_on_c, 0, 57, 64
1, 134800, Note_off_c, 0, 74, 58
1, 134847, Note_off_c, 0, 57, 63
1, 134854, Note_on_c, 0, 70, 85
1, 134857, Note_off_c, 0, 72, 61
1, 134867, Note_on_c, 0, 55, 57
1, 134883, Note_off_c, 0, 70, 64
1, 134909, Note_off_c, 0, 55, 63
1, 134943, Note_on_c, 0, 57, 60
1, 134998, Note_off_c, 0, 57, 56
1, 135013, Note_on_c, 0, 55, 65
1, 135074, Note_off_c, 0, 55, 58
1, 135096, Note_on_c, 0, 53, 58
1, 135096, Note_on_c, 0, 70, 83
1, 135115, Note_off_c, 0, 70, 71
1, 135133, Note_off_c, 0, 53, 64
1, 135176, Note_on_c, 0, 55, 58
1, 135223, Note_off_c, 0, 55, 57
1, 135239, Note_on_c, 0, 53, 62
1, 135309, Note_off_c, 0, 53, 62
1, 135350, Note_on_c, 0, 52, 66
1, 135354, Note_on_c, 0, 82, 94
1, 135411, Control_c, 0, 64, 35
1, 135425, Control_c, 0, 64, 40
1, 135435, Note_off_c, 0, 52, 55
1, 135440, Control_c, 0, 64, 41
1, 135455, Control_c, 0, 64, 41
1, 135469, Control_c, 0, 64, 39
1, 135484, Control_c, 0, 64, 0
1, 135558, Control_c, 0, 64, 31
1, 135573, Control_c, 0, 64, 50
1, 135587, Control_c, 0, 64, 62
1, 135594, Note_on_c, 0, 48, 86
1, 135602, Control_c, 0, 64, 69
1, 135617, Control_c, 0, 64, 78
1, 135620, Note_off_c, 0, 48, 68
1, 135632, Control_c, 0, 64, 95
1, 135647, Control_c, 0, 64, 127
1, 135916, Note_on_c, 0, 70, 91
1, 135958, Control_c, 0, 64, 95
1, 135973, Control_c, 0, 64, 76
1, 135987, Control_c, 0, 64, 63
1, 136002, Control_c, 0, 64, 44
1, 136011, Note_off_c, 0, 82, 58
1, 136017, Control_c, 0, 64, 0
1, 136031, Note_on_c, 0, 84, 67
1, 136121, Note_on_c, 0, 82, 71
1, 136162, Note_off_c, 0, 84, 61
1, 136198, Note_on_c, 0, 81, 78
1, 136207, Note_off_c, 0, 82, 62
1, 136280, Note_on_c, 0, 82, 77
1, 136282, Note_off_c, 0, 81, 61
1, 136355, Note_on_c, 0, 81, 73
1, 136401, Note_off_c, 0, 82, 55
1, 136436, Note_on_c, 0, 79, 67
1, 136450, Note_off_c, 0, 81, 59
1, 136478, Note_off_c, 0, 70, 58
1, 136499, Note_off_c, 0, 79, 49
1, 136503, Note_on_c, 0, 72, 46
1, 136516, Note_on_c, 0, 81, 67
1, 136553, Note_off_c, 0, 72, 60
1, 136585, Note_on_c, 0, 70, 64
1, 136595, Note_on_c, 0, 79, 72
1, 136627, Note_off_c, 0, 81, 62
1, 136637, Note_off_c, 0, 70, 56
1, 136662, Note_on_c, 0, 69, 59
1, 136667, Note_on_c, 0, 77, 71
1, 136676, Note_off_c, 0, 79, 64
1, 136708, Note_off_c, 0, 69, 63
1, 136720, Note_on_c, 0, 70, 59
1, 136726, Note_off_c, 0, 77, 61
1, 136732, Note_on_c, 0, 79, 63
1, 136776, Note_off_c, 0, 70, 64
1, 136807, Note_on_c, 0, 77, 74
1, 136833, Note_on_c, 0, 69, 62
1, 136850, Note_off_c, 0, 79, 59
1, 136882, Note_on_c, 0, 76, 78
1, 136906, Note_off_c, 0, 77, 64
1, 136907, Note_off_c, 0, 69, 58
1, 136908, Note_on_c, 0, 67, 66
1, 136949, Note_off_c, 0, 76, 63
1, 136949, Note_off_c, 0, 67, 64
1, 136965, Note_on_c, 0, 74, 73
1, 136970, Note_on_c, 0, 69, 55
1, 137038, Note_on_c, 0, 76, 77
1, 137042, Note_off_c, 0, 74, 59
1, 137052, Note_off_c, 0, 69, 62
1, 137054, Note_on_c, 0, 67, 73
1, 137114, Note_on_c, 0, 77, 83
1, 137122, Note_off_c, 0, 67, 61
1, 137123, Note_on_c, 0, 65, 77
1, 137123, Note_off_c, 0, 76, 63
1, 137177, Note_off_c, 0, 65, 62
1, 137185, Note_off_c, 0, 77, 62
1, 137199, Note_on_c, 0, 76, 79
1, 137200, Note_on_c, 0, 67, 76
1, 137269, Note_off_c, 0, 76, 54
1, 137270, Note_on_c, 0, 65, 78
1, 137270, Note_off_c, 0, 67, 61
1, 137271, Note_on_c, 0, 77, 89
1, 137346, Note_off_c, 0, 65, 61
1, 137348, Note_on_c, 0, 64, 74
1, 137354, Note_on_c, 0, 79, 79
1, 137368, Note_off_c, 0, 77, 58
1, 137405, Note_off_c, 0, 64, 62
1, 137409, Note_off_c, 0, 79, 65
1, 137415, Note_on_c, 0, 65, 74
1, 137423, Note_on_c, 0, 77, 77
1, 137491, Note_on_c, 0, 64, 75
1, 137491, Note_off_c, 0, 65, 59
1, 137497, Note_off_c, 0, 77, 50
1, 137499, Control_c, 0, 64, 36
1, 137501, Note_on_c, 0, 79, 80
1, 137514, Control_c, 0, 64, 47
1, 137529, Control_c, 0, 64, 59
1, 137544, Control_c, 0, 64, 64
1, 137558, Control_c, 0, 64, 66
1, 137563, Note_off_c, 0, 64, 63
1, 137566, Note_off_c, 0, 79, 58
1, 137567, Note_on_c, 0, 62, 72
1, 137572, Note_on_c, 0, 81, 85
1, 137581, Control_c, 0, 64, 70
1, 137596, Control_c, 0, 64, 76
1, 137611, Control_c, 0, 64, 85
1, 137626, Control_c, 0, 64, 100
1, 137626, Note_off_c, 0, 81, 66
1, 137630, Note_off_c, 0, 62, 62
1, 137640, Control_c, 0, 64, 127
1, 137648, Note_on_c, 0, 64, 75
1, 137653, Note_on_c, 0, 79, 65
1, 137704, Note_on_c, 0, 62, 63
1, 137715, Note_off_c, 0, 64, 58
1, 137724, Note_on_c, 0, 81, 73
1, 137731, Note_off_c, 0, 79, 61
1, 137790, Control_c, 0, 64, 88
1, 137796, Note_on_c, 0, 60, 78
1, 137804, Note_off_c, 0, 62, 64
1, 137804, Control_c, 0, 64, 68
1, 137809, Note_on_c, 0, 64, 68
1, 137809, Note_on_c, 0, 82, 72
1, 137811, Note_off_c, 0, 81, 62
1, 137819, Control_c, 0, 64, 47
1, 137834, Control_c, 0, 64, 0
1, 137891, Note_off_c, 0, 82, 59
1, 137894, Note_on_c, 0, 84, 73
1, 137977, Note_on_c, 0, 82, 76
1, 137996, Control_c, 0, 64, 32
1, 138007, Note_off_c, 0, 84, 62
1, 138011, Control_c, 0, 64, 42
1, 138026, Control_c, 0, 64, 48
1, 138041, Control_c, 0, 64, 54
1, 138046, Note_on_c, 0, 81, 79
1, 138054, Note_on_c, 0, 65, 73
1, 138055, Control_c, 0, 64, 57
1, 138061, Note_off_c, 0, 82, 62
1, 138070, Control_c, 0, 64, 61
1, 138085, Control_c, 0, 64, 63
1, 138100, Control_c, 0, 64, 64
1, 138111, Note_off_c, 0, 64, 64
1, 138115, Control_c, 0, 64, 64
1, 138130, Control_c, 0, 64, 65
1, 138130, Note_on_c, 0, 82, 79
1, 138136, Note_off_c, 0, 81, 62
1, 138145, Control_c, 0, 64, 65
1, 138160, Control_c, 0, 64, 66
1, 138174, Control_c, 0, 64, 67
1, 138189, Control_c, 0, 64, 68
1, 138204, Control_c, 0, 64, 69
1, 138206, Note_on_c, 0, 81, 75
1, 138219, Control_c, 0, 64, 69
1, 138234, Control_c, 0, 64, 70
1, 138263, Note_off_c, 0, 82, 59
1, 138263, Control_c, 0, 64, 69
1, 138270, Note_on_c, 0, 79, 82
1, 138274, Note_on_c, 0, 67, 81
1, 138278, Control_c, 0, 64, 66
1, 138292, Note_off_c, 0, 81, 63
1, 138293, Control_c, 0, 64, 60
1, 138308, Control_c, 0, 64, 50
1, 138309, Note_off_c, 0, 65, 58
1, 138323, Control_c, 0, 64, 42
1, 138344, Control_c, 0, 64, 41
1, 138359, Control_c, 0, 64, 47
1, 138362, Note_on_c, 0, 81, 81
1, 138375, Control_c, 0, 64, 58
1, 138379, Note_off_c, 0, 79, 64
1, 138389, Control_c, 0, 64, 65
1, 138404, Control_c, 0, 64, 70
1, 138419, Control_c, 0, 64, 75
1, 138434, Control_c, 0, 64, 80
1, 138442, Note_on_c, 0, 79, 78
1, 138449, Control_c, 0, 64, 87
1, 138464, Control_c, 0, 64, 95
1, 138478, Note_off_c, 0, 81, 64
1, 138479, Control_c, 0, 64, 105
1, 138493, Control_c, 0, 64, 127
1, 138511, Note_on_c, 0, 77, 86
1, 138521, Note_on_c, 0, 69, 88
1, 138532, Note_off_c, 0, 79, 62
1, 138577, Note_off_c, 0, 67, 56
1, 138583, Note_on_c, 0, 79, 71
1, 138599, Note_off_c, 0, 77, 62
1, 138667, Note_on_c, 0, 77, 81
1, 138684, Note_off_c, 0, 60, 60
1, 138732, Note_off_c, 0, 79, 46
1, 138775, Note_on_c, 0, 70, 90
1, 138781, Note_on_c, 0, 76, 77
1, 138785, Note_on_c, 0, 60, 62
1, 138803, Note_off_c, 0, 77, 61
1, 138835, Control_c, 0, 64, 81
1, 138845, Note_off_c, 0, 69, 42
1, 138850, Control_c, 0, 64, 60
1, 138865, Control_c, 0, 64, 0
1, 138888, Note_off_c, 0, 76, 64
1, 138894, Note_on_c, 0, 74, 75
1, 138968, Note_on_c, 0, 76, 80
1, 138970, Note_off_c, 0, 74, 62
1, 138983, Control_c, 0, 64, 42
1, 138998, Control_c, 0, 64, 55
1, 139012, Control_c, 0, 64, 63
1, 139027, Control_c, 0, 64, 68
1, 139032, Note_on_c, 0, 69, 75
1, 139038, Note_off_c, 0, 70, 61
1, 139040, Note_on_c, 0, 77, 89
1, 139042, Control_c, 0, 64, 72
1, 139048, Note_off_c, 0, 76, 61
1, 139057, Control_c, 0, 64, 75
1, 139072, Control_c, 0, 64, 75
1, 139094, Control_c, 0, 64, 76
1, 139099, Note_off_c, 0, 77, 65
1, 139119, Note_on_c, 0, 76, 77
1, 139124, Control_c, 0, 64, 76
1, 139139, Control_c, 0, 64, 77
1, 139154, Control_c, 0, 64, 78
1, 139168, Control_c, 0, 64, 81
1, 139183, Control_c, 0, 64, 83
1, 139186, Note_on_c, 0, 77, 91
1, 139197, Note_off_c, 0, 76, 59
1, 139198, Control_c, 0, 64, 85
1, 139212, Control_c, 0, 64, 87
1, 139227, Control_c, 0, 64, 88
1, 139242, Control_c, 0, 64, 88
1, 139257, Control_c, 0, 64, 82
1, 139261, Note_on_c, 0, 79, 85
1, 139270, Note_off_c, 0, 77, 63
1, 139271, Note_on_c, 0, 67, 72
1, 139272, Control_c, 0, 64, 68
1, 139286, Control_c, 0, 64, 48
1, 139302, Control_c, 0, 64, 0
1, 139303, Note_off_c, 0, 69, 60
1, 139313, Note_off_c, 0, 79, 67
1, 139340, Note_on_c, 0, 77, 88
1, 139362, Control_c, 0, 64, 39
1, 139376, Control_c, 0, 64, 57
1, 139391, Control_c, 0, 64, 67
1, 139405, Note_on_c, 0, 79, 89
1, 139406, Control_c, 0, 64, 75
1, 139415, Note_off_c, 0, 77, 60
1, 139421, Control_c, 0, 64, 82
1, 139435, Control_c, 0, 64, 88
1, 139450, Control_c, 0, 64, 95
1, 139465, Control_c, 0, 64, 118
1, 139471, Note_off_c, 0, 67, 63
1, 139480, Control_c, 0, 64, 127
1, 139482, Note_on_c, 0, 81, 90
1, 139486, Note_off_c, 0, 79, 61
1, 139488, Note_on_c, 0, 65, 74
1, 139528, Note_off_c, 0, 81, 66
1, 139548, Note_on_c, 0, 79, 84
1, 139551, Note_off_c, 0, 60, 58
1, 139624, Note_on_c, 0, 81, 90
1, 139647, Note_off_c, 0, 79, 62
1, 139688, Control_c, 0, 64, 89
1, 139702, Control_c, 0, 64, 60
1, 139717, Control_c, 0, 64, 0
1, 139722, Note_on_c, 0, 82, 91
1, 139728, Note_on_c, 0, 64, 82
1, 139729, Note_off_c, 0, 81, 63
1, 139736, Note_on_c, 0, 60, 71
1, 139739, Note_off_c, 0, 65, 60
1, 139776, Control_c, 0, 64, 41
1, 139790, Note_off_c, 0, 82, 63
1, 139791, Control_c, 0, 64, 63
1, 139806, Control_c, 0, 64, 79
1, 139828, Control_c, 0, 64, 112
1, 139843, Control_c, 0, 64, 127
1, 139850, Note_on_c, 0, 82, 92
1, 139903, Control_c, 0, 64, 108
1, 139917, Control_c, 0, 64, 75
1, 139932, Control_c, 0, 64, 54
1, 139933, Note_off_c, 0, 82, 60
1, 139934, Note_on_c, 0, 79, 78
1, 139947, Control_c, 0, 64, 0
1, 139990, Note_off_c, 0, 79, 64
1, 139991, Control_c, 0, 64, 33
1, 140006, Control_c, 0, 64, 52
1, 140007, Note_on_c, 0, 76, 84
1, 140021, Control_c, 0, 64, 64
1, 140035, Control_c, 0, 64, 71
1, 140050, Note_off_c, 0, 76, 66
1, 140050, Control_c, 0, 64, 78
1, 140065, Control_c, 0, 64, 81
1, 140080, Note_on_c, 0, 79, 83
1, 140080, Control_c, 0, 64, 83
1, 140095, Control_c, 0, 64, 84
1, 140111, Control_c, 0, 64, 85
1, 140126, Control_c, 0, 64, 86
1, 140140, Control_c, 0, 64, 88
1, 140154, Note_on_c, 0, 76, 83
1, 140155, Control_c, 0, 64, 91
1, 140170, Note_off_c, 0, 79, 64
1, 140170, Control_c, 0, 64, 94
1, 140184, Control_c, 0, 64, 98
1, 140199, Control_c, 0, 64, 102
1, 140214, Control_c, 0, 64, 105
1, 140223, Note_off_c, 0, 76, 63
1, 140224, Note_on_c, 0, 70, 79
1, 140227, Note_off_c, 0, 64, 57
1, 140229, Control_c, 0, 64, 108
1, 140244, Control_c, 0, 64, 110
1, 140260, Note_off_c, 0, 60, 59
1, 140275, Note_off_c, 0, 70, 63
1, 140291, Note_on_c, 0, 76, 82
1, 140365, Note_on_c, 0, 70, 88
1, 140384, Note_off_c, 0, 76, 61
1, 140437, Note_on_c, 0, 67, 80
1, 140437, Note_off_c, 0, 70, 63
1, 140451, Control_c, 0, 64, 107
1, 140466, Control_c, 0, 64, 104
1, 140481, Control_c, 0, 64, 99
1, 140496, Control_c, 0, 64, 93
1, 140503, Note_on_c, 0, 70, 79
1, 140511, Control_c, 0, 64, 86
1, 140516, Note_off_c, 0, 67, 60
1, 140525, Control_c, 0, 64, 77
1, 140540, Control_c, 0, 64, 66
1, 140555, Control_c, 0, 64, 55
1, 140570, Control_c, 0, 64, 41
1, 140580, Note_on_c, 0, 67, 69
1, 140592, Note_off_c, 0, 70, 63
1, 140592, Control_c, 0, 64, 0
1, 140645, Note_off_c, 0, 67, 63
1, 140654, Note_on_c, 0, 64, 78
1, 140665, Control_c, 0, 64, 34
1, 140680, Control_c, 0, 64, 46
1, 140695, Control_c, 0, 64, 57
1, 140710, Control_c, 0, 64, 62
1, 140715, Note_off_c, 0, 64, 56
1, 140725, Control_c, 0, 64, 64
1, 140727, Note_on_c, 0, 67, 81
1, 140739, Control_c, 0, 64, 65
1, 140769, Control_c, 0, 64, 66
1, 140798, Control_c, 0, 64, 67
1, 140807, Note_on_c, 0, 64, 80
1, 140813, Control_c, 0, 64, 67
1, 140816, Note_off_c, 0, 67, 63
1, 140828, Control_c, 0, 64, 68
1, 140843, Control_c, 0, 64, 68
1, 140857, Control_c, 0, 64, 69
1, 140867, Note_off_c, 0, 64, 64
1, 140887, Note_on_c, 0, 58, 43
1, 140887, Note_off_c, 0, 58, 127
1, 140914, Note_on_c, 0, 59, 43
1, 140918, Control_c, 0, 64, 69
1, 140943, Note_off_c, 0, 59, 54
1, 140946, Note_on_c, 0, 64, 77
1, 141021, Note_on_c, 0, 58, 77
1, 141052, Note_off_c, 0, 64, 64
1, 141081, Control_c, 0, 64, 70
1, 141093, Note_off_c, 0, 58, 60
1, 141094, Note_on_c, 0, 55, 78
1, 141096, Control_c, 0, 64, 70
1, 141111, Control_c, 0, 64, 71
1, 141126, Control_c, 0, 64, 72
1, 141140, Control_c, 0, 64, 72
1, 141155, Control_c, 0, 64, 73
1, 141161, Note_on_c, 0, 58, 69
1, 141164, Note_off_c, 0, 55, 56
1, 141185, Control_c, 0, 64, 73
1, 141229, Control_c, 0, 64, 74
1, 141233, Note_on_c, 0, 55, 72
1, 141245, Note_off_c, 0, 58, 60
1, 141288, Control_c, 0, 64, 74
1, 141291, Note_off_c, 0, 55, 63
1, 141298, Note_on_c, 0, 52, 79
1, 141325, Control_c, 0, 64, 75
1, 141340, Control_c, 0, 64, 75
1, 141375, Note_off_c, 0, 52, 53
1, 141380, Note_on_c, 0, 55, 78
1, 141385, Control_c, 0, 64, 76
1, 141454, Note_off_c, 0, 55, 63
1, 141464, Note_on_c, 0, 52, 71
1, 141518, Note_off_c, 0, 52, 62
1, 141531, Note_on_c, 0, 48, 80
1, 141533, Control_c, 0, 64, 73
1, 141535, Note_on_c, 0, 36, 71
1, 141548, Control_c, 0, 64, 68
1, 141563, Control_c, 0, 64, 58
1, 141578, Control_c, 0, 64, 37
1, 141593, Control_c, 0, 64, 0
1, 141596, Note_off_c, 0, 48, 58
1, 141605, Note_on_c, 0, 52, 73
1, 141611, Note_on_c, 0, 40, 62
1, 141683, Note_on_c, 0, 55, 77
1, 141686, Note_on_c, 0, 43, 69
1, 141687, Note_off_c, 0, 40, 63
1, 141697, Control_c, 0, 64, 35
1, 141712, Control_c, 0, 64, 49
1, 141715, Note_off_c, 0, 52, 56
1, 141727, Control_c, 0, 64, 58
1, 141742, Control_c, 0, 64, 62
1, 141756, Note_off_c, 0, 43, 62
1, 141757, Control_c, 0, 64, 63
1, 141763, Note_on_c, 0, 46, 67
1, 141766, Note_on_c, 0, 58, 74
1, 141772, Note_off_c, 0, 55, 64
1, 141790, Note_off_c, 0, 46, 64
1, 141801, Control_c, 0, 64, 64
1, 141816, Control_c, 0, 64, 65
1, 141823, Note_on_c, 0, 43, 70
1, 141830, Control_c, 0, 64, 66
1, 141835, Note_off_c, 0, 36, 44
1, 141839, Note_on_c, 0, 55, 72
1, 141860, Control_c, 0, 64, 66
1, 141875, Control_c, 0, 64, 65
1, 141880, Note_off_c, 0, 58, 62
1, 141890, Control_c, 0, 64, 64
1, 141910, Note_on_c, 0, 40, 75
1, 141911, Note_on_c, 0, 52, 74
1, 141919, Control_c, 0, 64, 65
1, 141934, Control_c, 0, 64, 66
1, 141948, Control_c, 0, 64, 70
1, 141963, Control_c, 0, 64, 74
1, 141969, Note_off_c, 0, 43, 36
1, 141973, Note_on_c, 0, 36, 81
1, 141976, Note_on_c, 0, 48, 84
1, 141978, Control_c, 0, 64, 80
1, 141989, Note_off_c, 0, 52, 63
1, 141992, Note_off_c, 0, 40, 60
1, 141993, Control_c, 0, 64, 84
1, 142008, Control_c, 0, 64, 86
1, 142020, Note_off_c, 0, 55, 57
1, 142023, Control_c, 0, 64, 87
1, 142038, Control_c, 0, 64, 85
1, 142050, Note_on_c, 0, 40, 72
1, 142052, Note_on_c, 0, 52, 74
1, 142053, Control_c, 0, 64, 78
1, 142062, Note_off_c, 0, 48, 60
1, 142068, Control_c, 0, 64, 66
1, 142088, Note_off_c, 0, 36, 58
1, 142090, Control_c, 0, 64, 50
1, 142104, Control_c, 0, 64, 31
1, 142119, Control_c, 0, 64, 0
1, 142127, Note_on_c, 0, 43, 74
1, 142139, Note_on_c, 0, 55, 82
1, 142148, Control_c, 0, 64, 39
1, 142151, Note_off_c, 0, 40, 62
1, 142163, Control_c, 0, 64, 54
1, 142173, Note_off_c, 0, 52, 60
1, 142178, Control_c, 0, 64, 64
1, 142193, Control_c, 0, 64, 69
1, 142202, Note_on_c, 0, 46, 76
1, 142207, Note_off_c, 0, 43, 63
1, 142208, Control_c, 0, 64, 71
1, 142223, Control_c, 0, 64, 72
1, 142225, Note_on_c, 0, 58, 85
1, 142234, Note_off_c, 0, 46, 62
1, 142234, Note_off_c, 0, 55, 61
1, 142264, Note_on_c, 0, 43, 70
1, 142294, Note_on_c, 0, 55, 66
1, 142297, Control_c, 0, 64, 71
1, 142312, Control_c, 0, 64, 66
1, 142327, Control_c, 0, 64, 48
1, 142332, Note_off_c, 0, 58, 63
1, 142342, Control_c, 0, 64, 0
1, 142357, Note_on_c, 0, 40, 76
1, 142365, Note_on_c, 0, 52, 78
1, 142385, Note_off_c, 0, 43, 56
1, 142431, Note_on_c, 0, 36, 83
1, 142439, Note_on_c, 0, 48, 89
1, 142443, Note_off_c, 0, 40, 62
1, 142450, Note_off_c, 0, 52, 63
1, 142473, Note_off_c, 0, 55, 62
1, 142490, Control_c, 0, 64, 41
1, 142506, Control_c, 0, 64, 56
1, 142515, Note_off_c, 0, 48, 60
1, 142516, Note_on_c, 0, 40, 76
1, 142521, Control_c, 0, 64, 63
1, 142521, Note_on_c, 0, 52, 77
1, 142527, Note_off_c, 0, 36, 61
1, 142536, Control_c, 0, 64, 68
1, 142550, Control_c, 0, 64, 71
1, 142565, Control_c, 0, 64, 73
1, 142577, Note_off_c, 0, 52, 63
1, 142580, Control_c, 0, 64, 75
1, 142583, Note_off_c, 0, 40, 63
1, 142593, Note_on_c, 0, 43, 74
1, 142595, Control_c, 0, 64, 77
1, 142606, Note_on_c, 0, 55, 77
1, 142610, Control_c, 0, 64, 81
1, 142625, Control_c, 0, 64, 86
1, 142627, Note_off_c, 0, 43, 65
1, 142633, Note_off_c, 0, 55, 68
1, 142640, Control_c, 0, 64, 91
1, 142654, Control_c, 0, 64, 96
1, 142669, Control_c, 0, 64, 101
1, 142673, Note_on_c, 0, 48, 66
1, 142682, Note_on_c, 0, 60, 86
1, 142684, Control_c, 0, 64, 105
1, 142699, Control_c, 0, 64, 109
1, 142701, Note_off_c, 0, 48, 63
1, 142714, Control_c, 0, 64, 112
1, 142728, Control_c, 0, 64, 115
1, 142744, Note_off_c, 0, 60, 57
1, 142745, Note_on_c, 0, 52, 75
1, 142756, Note_on_c, 0, 64, 83
1, 142795, Note_off_c, 0, 52, 57
1, 142804, Note_on_c, 0, 55, 76
1, 142826, Note_on_c, 0, 67, 93
1, 142840, Control_c, 0, 64, 102
1, 142854, Control_c, 0, 64, 87
1, 142868, Note_off_c, 0, 64, 56
1, 142869, Control_c, 0, 64, 71
1, 142872, Note_off_c, 0, 55, 57
1, 142884, Control_c, 0, 64, 55
1, 142889, Note_on_c, 0, 58, 83
1, 142899, Control_c, 0, 64, 0
1, 142900, Note_on_c, 0, 70, 84
1, 142905, Note_off_c, 0, 67, 64
1, 142941, Note_off_c, 0, 58, 64
1, 142960, Note_on_c, 0, 55, 80
1, 142965, Note_on_c, 0, 67, 87
1, 142973, Control_c, 0, 64, 33
1, 142987, Control_c, 0, 64, 50
1, 143002, Control_c, 0, 64, 63
1, 143006, Note_off_c, 0, 70, 64
1, 143017, Control_c, 0, 64, 71
1, 143032, Control_c, 0, 64, 80
1, 143036, Note_on_c, 0, 52, 79
1, 143043, Note_off_c, 0, 55, 60
1, 143046, Note_on_c, 0, 64, 87
1, 143047, Control_c, 0, 64, 92
1, 143061, Control_c, 0, 64, 103
1, 143076, Control_c, 0, 64, 124
1, 143091, Control_c, 0, 64, 127
1, 143105, Note_on_c, 0, 48, 90
1, 143107, Note_on_c, 0, 60, 87
1, 143112, Note_off_c, 0, 52, 63
1, 143120, Note_off_c, 0, 64, 65
1, 143142, Note_off_c, 0, 67, 61
1, 143178, Note_on_c, 0, 52, 82
1, 143180, Note_off_c, 0, 60, 60
1, 143181, Note_on_c, 0, 64, 88
1, 143192, Note_off_c, 0, 48, 58
1, 143194, Control_c, 0, 64, 108
1, 143209, Control_c, 0, 64, 78
1, 143224, Control_c, 0, 64, 58
1, 143239, Control_c, 0, 64, 0
1, 143254, Note_on_c, 0, 67, 89
1, 143266, Note_on_c, 0, 55, 84
1, 143287, Note_off_c, 0, 64, 64
1, 143295, Note_off_c, 0, 52, 58
1, 143319, Note_on_c, 0, 48, 76
1, 143321, Note_on_c, 0, 60, 88
1, 143329, Control_c, 0, 64, 43
1, 143339, Note_off_c, 0, 67, 64
1, 143343, Control_c, 0, 64, 59
1, 143349, Note_off_c, 0, 55, 60
1, 143358, Control_c, 0, 64, 67
1, 143373, Control_c, 0, 64, 75
1, 143386, Note_off_c, 0, 60, 58
1, 143388, Control_c, 0, 64, 82
1, 143391, Note_on_c, 0, 52, 85
1, 143395, Note_on_c, 0, 64, 89
1, 143400, Note_off_c, 0, 48, 61
1, 143403, Control_c, 0, 64, 86
1, 143418, Control_c, 0, 64, 92
1, 143433, Control_c, 0, 64, 99
1, 143448, Control_c, 0, 64, 120
1, 143453, Note_off_c, 0, 64, 64
1, 143459, Note_on_c, 0, 55, 77
1, 143463, Control_c, 0, 64, 127
1, 143463, Note_off_c, 0, 52, 63
1, 143472, Note_on_c, 0, 67, 81
1, 143498, Note_off_c, 0, 67, 67
1, 143504, Note_off_c, 0, 55, 62
1, 143543, Note_on_c, 0, 72, 93
1, 143558, Note_on_c, 0, 60, 44
1, 143589, Note_off_c, 0, 60, 59
1, 143615, Note_on_c, 0, 64, 81
1, 143621, Note_off_c, 0, 72, 58
1, 143624, Note_on_c, 0, 76, 87
1, 143671, Note_off_c, 0, 64, 65
1, 143681, Note_on_c, 0, 67, 83
1, 143685, Note_on_c, 0, 79, 92
1, 143731, Note_off_c, 0, 76, 62
1, 143748, Note_off_c, 0, 67, 61
1, 143751, Control_c, 0, 64, 71
1, 143755, Note_on_c, 0, 82, 89
1, 143758, Note_on_c, 0, 70, 90
1, 143766, Control_c, 0, 64, 43
1, 143767, Note_off_c, 0, 79, 62
1, 143781, Control_c, 0, 64, 0
1, 143803, Note_off_c, 0, 70, 65
1, 143825, Control_c, 0, 64, 39
1, 143829, Note_on_c, 0, 67, 85
1, 143829, Note_on_c, 0, 79, 85
1, 143840, Control_c, 0, 64, 64
1, 143855, Control_c, 0, 64, 91
1, 143870, Control_c, 0, 64, 127
1, 143874, Note_off_c, 0, 82, 61
1, 143901, Note_on_c, 0, 76, 93
1, 143915, Note_on_c, 0, 64, 86
1, 143949, Note_off_c, 0, 79, 64
1, 143951, Note_off_c, 0, 67, 59
1, 143970, Note_on_c, 0, 72, 90
1, 143978, Note_on_c, 0, 60, 82
1, 143979, Note_off_c, 0, 76, 61
1, 143990, Note_off_c, 0, 64, 56
1, 144032, Note_on_c, 0, 64, 77
1, 144046, Note_on_c, 0, 76, 89
1, 144047, Control_c, 0, 64, 83
1, 144053, Note_off_c, 0, 60, 62
1, 144062, Control_c, 0, 64, 63
1, 144074, Note_off_c, 0, 72, 61
1, 144077, Control_c, 0, 64, 61
1, 144092, Control_c, 0, 64, 65
1, 144107, Control_c, 0, 64, 75
1, 144115, Note_on_c, 0, 67, 83
1, 144115, Note_off_c, 0, 64, 67
1, 144120, Note_on_c, 0, 79, 90
1, 144122, Control_c, 0, 64, 101
1, 144137, Control_c, 0, 64, 127
1, 144154, Note_off_c, 0, 76, 63
1, 144185, Note_off_c, 0, 67, 64
1, 144206, Note_on_c, 0, 70, 100
1, 144207, Note_on_c, 0, 82, 105
1, 144216, Note_off_c, 0, 79, 65
1, 144232, Note_off_c, 0, 82, 70
1, 144242, Note_off_c, 0, 70, 67
1, 144640, Note_on_c, 0, 70, 91
1, 144642, Note_on_c, 0, 64, 83
1, 144643, Note_on_c, 0, 67, 85
1, 144655, Note_on_c, 0, 48, 90
1, 144707, Control_c, 0, 64, 99
1, 144722, Control_c, 0, 64, 69
1, 144737, Control_c, 0, 64, 45
1, 144751, Control_c, 0, 64, 0
1, 145101, Control_c, 0, 64, 30
1, 145145, Control_c, 0, 64, 32
1, 145160, Control_c, 0, 64, 35
1, 145174, Control_c, 0, 64, 39
1, 145189, Control_c, 0, 64, 42
1, 145204, Control_c, 0, 64, 44
1, 145219, Control_c, 0, 64, 46
1, 145234, Control_c, 0, 64, 48
1, 145248, Control_c, 0, 64, 51
1, 145263, Control_c, 0, 64, 53
1, 145278, Control_c, 0, 64, 54
1, 145293, Control_c, 0, 64, 55
1, 145367, Control_c, 0, 64, 56
1, 145382, Control_c, 0, 64, 57
1, 145397, Control_c, 0, 64, 58
1, 145412, Control_c, 0, 64, 59
1, 145427, Control_c, 0, 64, 60
1, 145471, Control_c, 0, 64, 60
1, 145486, Control_c, 0, 64, 61
1, 145500, Control_c, 0, 64, 62
1, 145515, Control_c, 0, 64, 63
1, 145530, Control_c, 0, 64, 64
1, 145545, Control_c, 0, 64, 66
1, 145560, Control_c, 0, 64, 67
1, 145574, Control_c, 0, 64, 68
1, 145589, Control_c, 0, 64, 68
1, 145648, Control_c, 0, 64, 67
1, 145663, Control_c, 0, 64, 63
1, 145666, Note_off_c, 0, 48, 62
1, 145678, Control_c, 0, 64, 53
1, 145683, Note_off_c, 0, 70, 63
1, 145686, Note_off_c, 0, 64, 64
1, 145693, Note_off_c, 0, 67, 64
1, 145694, Control_c, 0, 64, 0
1, 146517, Control_c, 0, 64, 41
1, 146532, Control_c, 0, 64, 53
1, 146546, Control_c, 0, 64, 60
1, 146561, Control_c, 0, 64, 62
1, 146584, Control_c, 0, 64, 64
1, 146599, Control_c, 0, 64, 67
1, 146613, Control_c, 0, 64, 70
1, 146622, Note_on_c, 0, 72, 67
1, 146628, Control_c, 0, 64, 73
1, 146643, Control_c, 0, 64, 78
1, 146658, Control_c, 0, 64, 82
1, 146673, Control_c, 0, 64, 87
1, 146686, Note_off_c, 0, 72, 62
1, 146688, Control_c, 0, 64, 92
1, 146702, Control_c, 0, 64, 97
1, 146717, Control_c, 0, 64, 102
1, 146732, Control_c, 0, 64, 107
1, 146746, Control_c, 0, 64, 111
1, 146761, Control_c, 0, 64, 113
1, 146888, Note_on_c, 0, 70, 72
1, 146894, Control_c, 0, 64, 110
1, 146909, Control_c, 0, 64, 105
1, 146924, Control_c, 0, 64, 98
1, 146938, Control_c, 0, 64, 91
1, 146953, Control_c, 0, 64, 84
1, 146968, Control_c, 0, 64, 78
1, 146983, Control_c, 0, 64, 71
1, 146998, Control_c, 0, 64, 65
1, 147013, Control_c, 0, 64, 59
1, 147013, Note_on_c, 0, 69, 68
1, 147028, Control_c, 0, 64, 54
1, 147043, Control_c, 0, 64, 51
1, 147058, Control_c, 0, 64, 49
1, 147072, Control_c, 0, 64, 49
1, 147087, Control_c, 0, 64, 48
1, 147102, Control_c, 0, 64, 47
1, 147117, Control_c, 0, 64, 45
1, 147132, Control_c, 0, 64, 42
1, 147141, Note_on_c, 0, 67, 71
1, 147146, Control_c, 0, 64, 39
1, 147161, Control_c, 0, 64, 36
1, 147176, Control_c, 0, 64, 33
1, 147179, Note_off_c, 0, 70, 25
1, 147191, Control_c, 0, 64, 30
1, 147201, Note_off_c, 0, 69, 60
1, 147206, Control_c, 0, 64, 0
1, 147272, Note_on_c, 0, 65, 69
1, 147284, Note_off_c, 0, 67, 59
1, 147407, Note_on_c, 0, 69, 66
1, 147408, Note_off_c, 0, 65, 57
1, 147526, Note_on_c, 0, 67, 68
1, 147535, Note_off_c, 0, 69, 60
1, 147637, Note_off_c, 0, 67, 60
1, 147644, Note_on_c, 0, 70, 66
1, 147726, Note_off_c, 0, 70, 60
1, 147764, Note_on_c, 0, 64, 59
1, 147865, Note_off_c, 0, 64, 58
1, 147886, Note_on_c, 0, 65, 60
1, 147921, Note_off_c, 0, 65, 64
1, 148155, Control_c, 0, 64, 41
1, 148164, Note_on_c, 0, 60, 67
1, 148169, Control_c, 0, 64, 55
1, 148184, Control_c, 0, 64, 63
1, 148199, Control_c, 0, 64, 66
1, 148199, Control_c, 0, 67, 41
1, 148214, Control_c, 0, 64, 68
1, 148214, Control_c, 0, 67, 59
1, 148215, Note_off_c, 0, 60, 60
1, 148229, Control_c, 0, 64, 70
1, 148229, Control_c, 0, 67, 83
1, 148244, Control_c, 0, 64, 72
1, 148244, Control_c, 0, 67, 117
1, 148259, Control_c, 0, 64, 73
1, 148259, Control_c, 0, 67, 127
1, 148273, Control_c, 0, 64, 74
1, 148288, Control_c, 0, 64, 74
1, 148436, Control_c, 0, 64, 74
1, 148451, Control_c, 0, 64, 73
1, 148465, Control_c, 0, 64, 70
1, 148480, Control_c, 0, 64, 66
1, 148495, Note_on_c, 0, 72, 69
1, 148495, Control_c, 0, 64, 62
1, 148510, Control_c, 0, 64, 56
1, 148524, Control_c, 0, 64, 51
1, 148539, Control_c, 0, 64, 45
1, 148554, Control_c, 0, 64, 38
1, 148569, Control_c, 0, 64, 31
1, 148584, Control_c, 0, 64, 0
1, 149119, Note_on_c, 0, 70, 54
1, 149258, Note_on_c, 0, 69, 60
1, 149303, Note_off_c, 0, 70, 53
1, 149309, Note_off_c, 0, 72, 54
1, 149390, Note_on_c, 0, 67, 57
1, 149415, Note_off_c, 0, 69, 58
1, 149501, Note_off_c, 0, 67, 63
1, 149513, Note_on_c, 0, 65, 52
1, 149628, Note_off_c, 0, 65, 50
1, 149635, Note_on_c, 0, 69, 63
1, 149772, Note_on_c, 0, 67, 62
1, 149789, Note_off_c, 0, 69, 57
1, 149883, Note_off_c, 0, 67, 58
1, 149892, Note_on_c, 0, 70, 63
1, 150003, Note_off_c, 0, 70, 59
1, 150024, Note_on_c, 0, 64, 50
1, 150155, Note_on_c, 0, 65, 50
1, 150161, Note_off_c, 0, 64, 37
1, 150163, Note_on_c, 0, 57, 44
1, 150171, Note_on_c, 0, 53, 40
1, 150244, Note_off_c, 0, 57, 53
1, 150286, Note_on_c, 0, 60, 40
1, 150399, Note_off_c, 0, 60, 59
1, 150423, Note_on_c, 0, 57, 34
1, 150527, Note_off_c, 0, 57, 57
1, 150557, Note_on_c, 0, 60, 36
1, 150667, Note_off_c, 0, 60, 54
1, 150679, Note_on_c, 0, 57, 40
1, 150784, Note_off_c, 0, 57, 60
1, 150814, Note_on_c, 0, 60, 42
1, 150816, Control_c, 0, 64, 39
1, 150831, Control_c, 0, 64, 49
1, 150846, Control_c, 0, 64, 57
1, 150860, Control_c, 0, 64, 61
1, 150875, Control_c, 0, 64, 63
1, 150890, Control_c, 0, 64, 64
1, 150904, Control_c, 0, 64, 65
1, 150909, Note_off_c, 0, 60, 55
1, 150919, Control_c, 0, 64, 66
1, 150934, Control_c, 0, 64, 67
1, 150939, Note_on_c, 0, 57, 36
1, 150949, Control_c, 0, 64, 68
1, 150951, Note_off_c, 0, 65, 54
1, 150964, Control_c, 0, 64, 69
1, 150978, Control_c, 0, 64, 70
1, 150993, Control_c, 0, 64, 70
1, 151008, Control_c, 0, 64, 71
1, 151013, Note_off_c, 0, 53, 58
1, 151021, Note_off_c, 0, 57, 60
1, 151064, Note_on_c, 0, 60, 45
1, 151149, Control_c, 0, 64, 70
1, 151164, Control_c, 0, 64, 69
1, 151176, Note_off_c, 0, 60, 58
1, 151179, Control_c, 0, 64, 67
1, 151183, Note_on_c, 0, 58, 52
1, 151188, Note_on_c, 0, 53, 31
1, 151192, Note_on_c, 0, 66, 45
1, 151193, Control_c, 0, 64, 65
1, 151208, Control_c, 0, 64, 62
1, 151223, Control_c, 0, 64, 58
1, 151238, Control_c, 0, 64, 55
1, 151253, Control_c, 0, 64, 52
1, 151267, Control_c, 0, 64, 50
1, 151282, Control_c, 0, 64, 49
1, 151284, Note_off_c, 0, 58, 58
1, 151298, Control_c, 0, 64, 48
1, 151300, Note_off_c, 0, 66, 63
1, 151313, Control_c, 0, 64, 47
1, 151316, Note_on_c, 0, 67, 51
1, 151319, Note_on_c, 0, 60, 49
1, 151328, Control_c, 0, 64, 46
1, 151342, Control_c, 0, 64, 45
1, 151357, Control_c, 0, 64, 44
1, 151372, Control_c, 0, 64, 42
1, 151387, Control_c, 0, 64, 41
1, 151402, Control_c, 0, 64, 39
1, 151416, Control_c, 0, 64, 38
1, 151427, Note_off_c, 0, 60, 57
1, 151428, Note_on_c, 0, 58, 51
1, 151431, Control_c, 0, 64, 38
1, 151435, Note_on_c, 0, 69, 69
1, 151447, Note_off_c, 0, 67, 57
1, 151461, Control_c, 0, 64, 37
1, 151543, Note_off_c, 0, 58, 58
1, 151546, Note_off_c, 0, 69, 60
1, 151555, Note_on_c, 0, 70, 75
1, 151556, Note_on_c, 0, 60, 57
1, 151665, Note_off_c, 0, 70, 65
1, 151669, Control_c, 0, 64, 37
1, 151675, Note_on_c, 0, 72, 78
1, 151678, Note_on_c, 0, 58, 61
1, 151684, Note_off_c, 0, 60, 56
1, 151713, Control_c, 0, 64, 36
1, 151727, Control_c, 0, 64, 36
1, 151742, Control_c, 0, 64, 35
1, 151757, Control_c, 0, 64, 34
1, 151794, Note_on_c, 0, 73, 78
1, 151794, Note_off_c, 0, 58, 59
1, 151797, Note_off_c, 0, 72, 60
1, 151817, Note_on_c, 0, 60, 58
1, 151824, Control_c, 0, 64, 34
1, 151868, Control_c, 0, 64, 33
1, 151920, Note_off_c, 0, 73, 62
1, 151924, Note_off_c, 0, 60, 56
1, 151925, Note_on_c, 0, 74, 82
1, 151926, Note_on_c, 0, 58, 63
1, 151928, Control_c, 0, 64, 33
1, 151942, Control_c, 0, 64, 32
1, 151957, Control_c, 0, 67, 122
1, 151987, Control_c, 0, 67, 125
1, 152002, Control_c, 0, 64, 30
1, 152002, Control_c, 0, 67, 127
1, 152016, Control_c, 0, 64, 0
1, 152018, Note_off_c, 0, 53, 52
1, 152027, Note_off_c, 0, 58, 60
1, 152047, Note_on_c, 0, 76, 76
1, 152052, Note_on_c, 0, 60, 55
1, 152064, Note_off_c, 0, 74, 53
1, 152100, Note_off_c, 0, 76, 63
1, 152149, Note_off_c, 0, 60, 57
1, 152164, Note_on_c, 0, 79, 67
1, 152170, Note_on_c, 0, 53, 40
1, 152178, Note_on_c, 0, 57, 43
1, 152253, Note_off_c, 0, 57, 61
1, 152291, Note_on_c, 0, 77, 68
1, 152293, Note_on_c, 0, 60, 46
1, 152332, Note_off_c, 0, 79, 60
1, 152400, Note_off_c, 0, 60, 59
1, 152415, Note_on_c, 0, 76, 67
1, 152419, Note_on_c, 0, 57, 43
1, 152428, Note_off_c, 0, 77, 58
1, 152490, Note_off_c, 0, 76, 61
1, 152506, Note_off_c, 0, 57, 60
1, 152536, Note_on_c, 0, 60, 47
1, 152539, Note_on_c, 0, 74, 64
1, 152579, Note_off_c, 0, 74, 61
1, 152646, Note_off_c, 0, 60, 57
1, 152659, Note_on_c, 0, 74, 67
1, 152668, Note_on_c, 0, 57, 43
1, 152762, Note_off_c, 0, 57, 60
1, 152783, Note_on_c, 0, 72, 61
1, 152785, Note_on_c, 0, 60, 48
1, 152817, Note_off_c, 0, 74, 55
1, 152872, Note_off_c, 0, 60, 60
1, 152900, Note_on_c, 0, 57, 41
1, 152906, Note_on_c, 0, 70, 60
1, 152907, Note_off_c, 0, 72, 58
1, 152944, Control_c, 0, 64, 30
1, 152959, Control_c, 0, 64, 43
1, 152974, Control_c, 0, 64, 51
1, 152981, Note_off_c, 0, 57, 61
1, 152988, Control_c, 0, 64, 55
1, 152990, Note_off_c, 0, 53, 57
1, 152998, Note_off_c, 0, 70, 63
1, 153003, Control_c, 0, 64, 56
1, 153015, Note_on_c, 0, 60, 47
1, 153018, Control_c, 0, 64, 57
1, 153020, Note_on_c, 0, 69, 63
1, 153062, Control_c, 0, 64, 56
1, 153077, Control_c, 0, 64, 55
1, 153086, Note_off_c, 0, 69, 59
1, 153092, Control_c, 0, 64, 52
1, 153106, Control_c, 0, 64, 47
1, 153121, Control_c, 0, 64, 41
1, 153136, Control_c, 0, 64, 0
1, 153138, Note_off_c, 0, 60, 57
1, 153139, Note_on_c, 0, 67, 53
1, 153142, Note_on_c, 0, 58, 51
1, 153145, Note_on_c, 0, 64, 59
1, 153148, Note_on_c, 0, 53, 41
1, 153204, Note_off_c, 0, 67, 63
1, 153249, Note_off_c, 0, 58, 59
1, 153282, Note_on_c, 0, 60, 44
1, 153385, Note_on_c, 0, 69, 59
1, 153417, Note_off_c, 0, 60, 51
1, 153423, Note_on_c, 0, 67, 52
1, 153425, Note_on_c, 0, 58, 37
1, 153483, Note_off_c, 0, 69, 52
1, 153513, Note_off_c, 0, 58, 56
1, 153534, Note_off_c, 0, 67, 57
1, 153538, Note_on_c, 0, 66, 57
1, 153559, Note_on_c, 0, 60, 48
1, 153656, Note_off_c, 0, 60, 55
1, 153666, Note_on_c, 0, 67, 59
1, 153670, Note_on_c, 0, 58, 42
1, 153684, Note_off_c, 0, 66, 52
1, 153778, Note_off_c, 0, 58, 54
1, 153805, Note_on_c, 0, 60, 43
1, 153928, Note_on_c, 0, 58, 43
1, 153929, Note_on_c, 0, 72, 46
1, 153932, Note_off_c, 0, 60, 41
1, 153966, Note_off_c, 0, 67, 55
1, 154018, Note_off_c, 0, 58, 58
1, 154078, Note_on_c, 0, 60, 38
1, 154257, Note_on_c, 0, 65, 40
1, 154260, Note_on_c, 0, 57, 35
1, 154298, Note_off_c, 0, 60, 39
1, 154310, Note_off_c, 0, 64, 53
1, 154383, Note_off_c, 0, 72, 51
1, 154817, Note_off_c, 0, 65, 50
1, 154829, Note_off_c, 0, 57, 42
1, 154833, Note_off_c, 0, 53, 37
1, 155381, Note_on_c, 0, 60, 44
1, 155383, Control_c, 0, 64, 29
1, 155398, Control_c, 0, 64, 40
1, 155413, Control_c, 0, 64, 51
1, 155428, Control_c, 0, 64, 58
1, 155443, Control_c, 0, 64, 60
1, 155458, Control_c, 0, 64, 61
1, 155473, Control_c, 0, 64, 62
1, 155488, Control_c, 0, 64, 63
1, 155502, Control_c, 0, 64, 64
1, 155512, Note_off_c, 0, 60, 50
1, 155517, Control_c, 0, 64, 65
1, 155532, Control_c, 0, 64, 66
1, 155554, Control_c, 0, 64, 66
1, 155569, Control_c, 0, 64, 67
1, 155656, Note_on_c, 0, 58, 51
1, 155687, Control_c, 0, 64, 66
1, 155701, Control_c, 0, 64, 65
1, 155716, Control_c, 0, 64, 63
1, 155731, Control_c, 0, 64, 61
1, 155746, Control_c, 0, 64, 58
1, 155761, Control_c, 0, 64, 55
1, 155776, Control_c, 0, 64, 51
1, 155790, Control_c, 0, 64, 46
1, 155794, Note_on_c, 0, 56, 59
1, 155805, Control_c, 0, 64, 42
1, 155820, Control_c, 0, 64, 40
1, 155835, Control_c, 0, 64, 36
1, 155836, Note_off_c, 0, 58, 57
1, 155850, Control_c, 0, 64, 31
1, 155864, Control_c, 0, 64, 0
1, 155920, Note_on_c, 0, 55, 53
1, 155947, Note_off_c, 0, 56, 54
1, 156045, Note_on_c, 0, 53, 58
1, 156084, Note_off_c, 0, 55, 37
1, 156170, Note_on_c, 0, 56, 59
1, 156185, Note_off_c, 0, 53, 59
1, 156307, Note_on_c, 0, 55, 58
1, 156403, Note_off_c, 0, 56, 44
1, 156420, Note_off_c, 0, 55, 60
1, 156444, Note_on_c, 0, 58, 51
1, 156512, Note_off_c, 0, 58, 57
1, 156546, Note_on_c, 0, 52, 48
1, 156647, Note_off_c, 0, 52, 54
1, 156698, Note_on_c, 0, 53, 43
1, 156751, Note_off_c, 0, 53, 60
1, 156940, Control_c, 0, 67, 120
1, 156954, Control_c, 0, 67, 112
1, 156969, Control_c, 0, 67, 107
1, 156984, Control_c, 0, 67, 104
1, 156986, Note_on_c, 0, 48, 41
1, 156999, Control_c, 0, 67, 100
1, 157014, Control_c, 0, 67, 94
1, 157029, Control_c, 0, 67, 85
1, 157051, Control_c, 0, 67, 73
1, 157066, Control_c, 0, 67, 60
1, 157080, Control_c, 0, 67, 47
1, 157088, Note_off_c, 0, 48, 58
1, 157095, Control_c, 0, 67, 0
1, 157345, Note_on_c, 0, 80, 74
1, 157383, Note_on_c, 0, 68, 47
1, 157525, Control_c, 0, 67, 38
1, 157540, Control_c, 0, 67, 59
1, 157554, Control_c, 0, 67, 85
1, 157569, Control_c, 0, 67, 112
1, 157584, Control_c, 0, 67, 127
1, 157696, Note_on_c, 0, 60, 50
1, 157710, Note_on_c, 0, 63, 40
1, 157991, Note_on_c, 0, 78, 51
1, 157992, Note_off_c, 0, 60, 29
1, 157994, Note_on_c, 0, 65, 38
1, 158003, Note_off_c, 0, 63, 42
1, 158009, Note_on_c, 0, 61, 39
1, 158070, Note_off_c, 0, 68, 37
1, 158123, Note_on_c, 0, 77, 58
1, 158174, Note_off_c, 0, 80, 50
1, 158207, Note_off_c, 0, 78, 34
1, 158253, Note_on_c, 0, 75, 54
1, 158271, Note_off_c, 0, 77, 56
1, 158330, Note_off_c, 0, 65, 37
1, 158349, Note_off_c, 0, 61, 58
1, 158379, Note_on_c, 0, 73, 54
1, 158381, Note_off_c, 0, 75, 59
1, 158525, Note_on_c, 0, 77, 52
1, 158637, Note_off_c, 0, 73, 39
1, 158658, Note_on_c, 0, 75, 57
1, 158662, Note_off_c, 0, 77, 58
1, 158782, Note_on_c, 0, 66, 48
1, 158783, Note_on_c, 0, 78, 57
1, 158790, Note_on_c, 0, 68, 44
1, 158798, Note_off_c, 0, 75, 56
1, 158906, Note_on_c, 0, 72, 51
1, 158909, Note_off_c, 0, 66, 61
1, 159005, Note_off_c, 0, 72, 46
1, 159017, Note_off_c, 0, 68, 60
1, 159041, Note_on_c, 0, 65, 36
1, 159044, Note_on_c, 0, 73, 53
1, 159068, Note_off_c, 0, 78, 53
1, 159111, Note_off_c, 0, 73, 61
1, 159154, Note_off_c, 0, 65, 41
1, 159231, Control_c, 0, 67, 114
1, 159245, Control_c, 0, 67, 109
1, 159313, Control_c, 0, 67, 111
1, 159327, Note_on_c, 0, 68, 35
1, 159342, Control_c, 0, 67, 114
1, 159372, Control_c, 0, 67, 116
1, 159399, Note_off_c, 0, 68, 61
1, 159416, Control_c, 0, 67, 119
1, 159505, Control_c, 0, 67, 117
1, 159520, Control_c, 0, 67, 114
1, 159535, Control_c, 0, 67, 108
1, 159549, Control_c, 0, 67, 99
1, 159564, Control_c, 0, 67, 71
1, 159579, Control_c, 0, 67, 0
1, 159591, Note_on_c, 0, 53, 70
1, 159879, Note_on_c, 0, 81, 61
1, 159908, Note_on_c, 0, 72, 46
1, 159993, Control_c, 0, 64, 39
1, 159998, Note_off_c, 0, 72, 63
1, 160008, Control_c, 0, 64, 49
1, 160023, Control_c, 0, 64, 54
1, 160038, Control_c, 0, 64, 58
1, 160060, Control_c, 0, 64, 61
1, 160076, Control_c, 0, 64, 62
1, 160091, Control_c, 0, 64, 63
1, 160165, Control_c, 0, 64, 62
1, 160167, Note_off_c, 0, 53, 52
1, 160172, Note_on_c, 0, 51, 51
1, 160172, Note_on_c, 0, 82, 49
1, 160180, Control_c, 0, 64, 62
1, 160183, Note_on_c, 0, 73, 31
1, 160194, Control_c, 0, 64, 61
1, 160209, Control_c, 0, 64, 60
1, 160224, Control_c, 0, 64, 58
1, 160235, Note_off_c, 0, 81, 55
1, 160239, Control_c, 0, 64, 54
1, 160254, Control_c, 0, 64, 51
1, 160269, Control_c, 0, 64, 48
1, 160284, Control_c, 0, 64, 47
1, 160296, Note_on_c, 0, 49, 56
1, 160305, Note_off_c, 0, 51, 57
1, 160328, Control_c, 0, 64, 47
1, 160398, Note_off_c, 0, 73, 43
1, 160402, Control_c, 0, 64, 46
1, 160417, Control_c, 0, 64, 46
1, 160431, Note_on_c, 0, 48, 64
1, 160431, Control_c, 0, 64, 45
1, 160446, Control_c, 0, 64, 43
1, 160454, Note_off_c, 0, 82, 58
1, 160461, Control_c, 0, 64, 39
1, 160465, Note_off_c, 0, 49, 57
1, 160476, Control_c, 0, 64, 33
1, 160491, Control_c, 0, 64, 0
1, 160552, Note_on_c, 0, 46, 64
1, 160566, Note_off_c, 0, 48, 58
1, 160688, Note_on_c, 0, 49, 68
1, 160718, Note_off_c, 0, 46, 61
1, 160814, Note_on_c, 0, 48, 73
1, 160930, Note_off_c, 0, 49, 36
1, 160946, Note_on_c, 0, 84, 77
1, 160951, Note_off_c, 0, 48, 60
1, 160955, Note_on_c, 0, 51, 67
1, 160968, Note_on_c, 0, 77, 59
1, 161080, Note_off_c, 0, 51, 58
1, 161089, Note_on_c, 0, 45, 59
1, 161184, Note_off_c, 0, 45, 60
1, 161217, Note_on_c, 0, 48, 60
1, 161217, Note_on_c, 0, 85, 77
1, 161283, Note_off_c, 0, 84, 64
1, 161339, Note_off_c, 0, 48, 62
1, 161348, Note_on_c, 0, 46, 58
1, 161480, Note_on_c, 0, 49, 61
1, 161482, Note_on_c, 0, 82, 68
1, 161485, Note_off_c, 0, 46, 49
1, 161559, Control_c, 0, 64, 29
1, 161574, Control_c, 0, 64, 39
1, 161587, Control_c, 0, 64, 48
1, 161601, Control_c, 0, 64, 55
1, 161616, Control_c, 0, 64, 58
1, 161619, Note_on_c, 0, 43, 66
1, 161631, Control_c, 0, 64, 60
1, 161643, Note_off_c, 0, 49, 56
1, 161646, Control_c, 0, 64, 61
1, 161676, Control_c, 0, 64, 61
1, 161747, Note_on_c, 0, 84, 82
1, 161756, Note_on_c, 0, 46, 70
1, 161765, Control_c, 0, 64, 60
1, 161780, Control_c, 0, 64, 59
1, 161795, Control_c, 0, 64, 56
1, 161810, Control_c, 0, 64, 52
1, 161825, Control_c, 0, 64, 51
1, 161838, Note_off_c, 0, 43, 56
1, 161840, Control_c, 0, 64, 51
1, 161855, Control_c, 0, 64, 52
1, 161869, Control_c, 0, 64, 54
1, 161884, Control_c, 0, 64, 56
1, 161889, Note_on_c, 0, 44, 65
1, 161899, Control_c, 0, 64, 58
1, 161914, Control_c, 0, 64, 59
1, 161929, Control_c, 0, 64, 60
1, 161939, Note_off_c, 0, 82, 51
1, 161943, Note_off_c, 0, 46, 54
1, 161973, Control_c, 0, 64, 60
1, 161988, Control_c, 0, 64, 59
1, 162003, Control_c, 0, 64, 55
1, 162004, Note_on_c, 0, 48, 68
1, 162017, Control_c, 0, 64, 45
1, 162019, Note_on_c, 0, 80, 78
1, 162032, Control_c, 0, 64, 33
1, 162044, Note_off_c, 0, 44, 52
1, 162047, Control_c, 0, 64, 0
1, 162091, Control_c, 0, 64, 31
1, 162106, Control_c, 0, 64, 43
1, 162121, Control_c, 0, 64, 54
1, 162127, Note_on_c, 0, 41, 63
1, 162135, Control_c, 0, 64, 59
1, 162150, Control_c, 0, 64, 60
1, 162158, Note_off_c, 0, 48, 60
1, 162165, Control_c, 0, 64, 61
1, 162180, Control_c, 0, 64, 62
1, 162195, Control_c, 0, 64, 63
1, 162210, Control_c, 0, 64, 64
1, 162224, Control_c, 0, 64, 64
1, 162239, Control_c, 0, 64, 64
1, 162269, Note_on_c, 0, 44, 68
1, 162269, Control_c, 0, 64, 63
1, 162277, Note_on_c, 0, 82, 83
1, 162284, Control_c, 0, 64, 61
1, 162300, Note_off_c, 0, 77, 52
1, 162306, Control_c, 0, 64, 54
1, 162321, Control_c, 0, 64, 42
1, 162322, Note_off_c, 0, 41, 62
1, 162336, Control_c, 0, 64, 0
1, 162403, Note_on_c, 0, 43, 65
1, 162504, Note_off_c, 0, 85, 30
1, 162532, Note_off_c, 0, 44, 37
1, 162535, Note_on_c, 0, 46, 66
1, 162544, Control_c, 0, 64, 37
1, 162552, Note_on_c, 0, 79, 76
1, 162559, Control_c, 0, 64, 53
1, 162564, Note_off_c, 0, 43, 54
1, 162573, Control_c, 0, 64, 64
1, 162588, Control_c, 0, 64, 69
1, 162603, Control_c, 0, 64, 75
1, 162618, Control_c, 0, 64, 82
1, 162630, Note_off_c, 0, 82, 57
1, 162633, Control_c, 0, 64, 93
1, 162637, Note_off_c, 0, 80, 38
1, 162648, Control_c, 0, 64, 113
1, 162662, Note_off_c, 0, 46, 60
1, 162663, Control_c, 0, 64, 127
1, 162667, Note_off_c, 0, 84, 45
1, 162671, Note_on_c, 0, 40, 60
1, 162796, Control_c, 0, 64, 105
1, 162810, Control_c, 0, 64, 80
1, 162825, Control_c, 0, 64, 63
1, 162840, Control_c, 0, 64, 32
1, 162855, Control_c, 0, 64, 0
1, 162858, Note_on_c, 0, 41, 74
1, 162883, Note_off_c, 0, 40, 57
1, 162929, Control_c, 0, 64, 33
1, 162944, Control_c, 0, 64, 54
1, 162958, Control_c, 0, 64, 67
1, 162973, Control_c, 0, 64, 78
1, 162988, Control_c, 0, 64, 96
1, 163003, Control_c, 0, 64, 127
1, 163011, Note_off_c, 0, 41, 59
1, 163148, Note_on_c, 0, 80, 79
1, 163305, Note_off_c, 0, 79, 40
1, 163357, Note_on_c, 0, 84, 69
1, 163371, Note_on_c, 0, 56, 74
1, 163529, Note_on_c, 0, 77, 75
1, 163533, Note_off_c, 0, 80, 54
1, 163662, Note_on_c, 0, 80, 73
1, 163668, Note_on_c, 0, 58, 76
1, 163720, Note_off_c, 0, 77, 59
1, 163730, Note_off_c, 0, 84, 59
1, 163789, Control_c, 0, 64, 109
1, 163804, Control_c, 0, 64, 102
1, 163806, Note_on_c, 0, 78, 76
1, 163819, Control_c, 0, 64, 96
1, 163834, Control_c, 0, 64, 89
1, 163848, Note_off_c, 0, 56, 47
1, 163848, Control_c, 0, 64, 82
1, 163863, Control_c, 0, 64, 75
1, 163878, Control_c, 0, 64, 69
1, 163893, Control_c, 0, 64, 64
1, 163908, Control_c, 0, 64, 60
1, 163922, Control_c, 0, 64, 56
1, 163930, Note_on_c, 0, 82, 73
1, 163932, Note_on_c, 0, 60, 71
1, 163937, Control_c, 0, 64, 52
1, 163952, Control_c, 0, 64, 48
1, 163964, Note_off_c, 0, 80, 54
1, 163966, Control_c, 0, 64, 43
1, 163981, Control_c, 0, 64, 37
1, 163996, Control_c, 0, 64, 0
1, 164008, Note_off_c, 0, 78, 50
1, 164049, Note_off_c, 0, 58, 57
1, 164057, Note_on_c, 0, 75, 75
1, 164083, Note_off_c, 0, 82, 58
1, 164183, Note_on_c, 0, 78, 78
1, 164195, Note_on_c, 0, 61, 67
1, 164212, Note_off_c, 0, 60, 64
1, 164231, Note_off_c, 0, 75, 56
1, 164249, Control_c, 0, 64, 30
1, 164263, Control_c, 0, 64, 33
1, 164278, Control_c, 0, 64, 36
1, 164293, Control_c, 0, 64, 38
1, 164307, Note_on_c, 0, 77, 77
1, 164308, Control_c, 0, 64, 40
1, 164323, Control_c, 0, 64, 42
1, 164338, Control_c, 0, 64, 43
1, 164353, Control_c, 0, 64, 43
1, 164433, Note_off_c, 0, 78, 36
1, 164437, Note_on_c, 0, 53, 62
1, 164438, Note_on_c, 0, 80, 72
1, 164492, Note_off_c, 0, 77, 62
1, 164521, Note_off_c, 0, 61, 57
1, 164561, Note_on_c, 0, 73, 75
1, 164612, Control_c, 0, 64, 43
1, 164642, Control_c, 0, 64, 42
1, 164657, Control_c, 0, 64, 42
1, 164684, Note_on_c, 0, 55, 72
1, 164684, Note_on_c, 0, 77, 68
1, 164687, Control_c, 0, 64, 41
1, 164702, Control_c, 0, 64, 39
1, 164716, Control_c, 0, 64, 34
1, 164728, Note_off_c, 0, 80, 62
1, 164731, Control_c, 0, 64, 0
1, 164746, Note_off_c, 0, 53, 52
1, 164809, Note_on_c, 0, 75, 72
1, 164850, Note_off_c, 0, 73, 53
1, 164854, Note_off_c, 0, 77, 63
1, 164937, Note_on_c, 0, 57, 68
1, 164946, Note_on_c, 0, 78, 70
1, 164979, Note_off_c, 0, 55, 62
1, 164996, Note_off_c, 0, 75, 58
1, 165067, Note_on_c, 0, 72, 64
1, 165087, Control_c, 0, 64, 32
1, 165102, Control_c, 0, 64, 46
1, 165110, Note_off_c, 0, 78, 46
1, 165117, Control_c, 0, 64, 59
1, 165132, Control_c, 0, 64, 65
1, 165147, Control_c, 0, 64, 68
1, 165161, Control_c, 0, 64, 69
1, 165167, Note_off_c, 0, 57, 64
1, 165176, Control_c, 0, 64, 72
1, 165191, Control_c, 0, 64, 76
1, 165194, Note_on_c, 0, 58, 70
1, 165194, Note_on_c, 0, 75, 71
1, 165206, Control_c, 0, 64, 81
1, 165208, Note_off_c, 0, 72, 56
1, 165220, Control_c, 0, 64, 87
1, 165235, Control_c, 0, 64, 93
1, 165250, Control_c, 0, 64, 99
1, 165265, Control_c, 0, 64, 107
1, 165271, Note_off_c, 0, 58, 61
1, 165280, Control_c, 0, 64, 119
1, 165302, Control_c, 0, 64, 127
1, 165327, Note_on_c, 0, 73, 67
1, 165388, Note_off_c, 0, 75, 55
1, 165447, Note_on_c, 0, 63, 81
1, 165450, Control_c, 0, 64, 115
1, 165461, Note_on_c, 0, 77, 67
1, 165465, Control_c, 0, 64, 103
1, 165476, Note_on_c, 0, 55, 51
1, 165480, Control_c, 0, 64, 92
1, 165494, Control_c, 0, 64, 79
1, 165509, Control_c, 0, 64, 68
1, 165515, Note_off_c, 0, 73, 55
1, 165524, Control_c, 0, 64, 55
1, 165539, Control_c, 0, 64, 35
1, 165554, Control_c, 0, 64, 0
1, 165594, Note_on_c, 0, 70, 62
1, 165718, Note_on_c, 0, 73, 66
1, 165722, Note_on_c, 0, 56, 58
1, 165792, Control_c, 0, 64, 42
1, 165807, Control_c, 0, 64, 56
1, 165822, Control_c, 0, 64, 64
1, 165836, Control_c, 0, 64, 68
1, 165837, Note_on_c, 0, 72, 73
1, 165851, Control_c, 0, 64, 69
1, 165863, Note_off_c, 0, 77, 61
1, 165866, Control_c, 0, 64, 70
1, 165873, Note_off_c, 0, 63, 61
1, 165875, Note_off_c, 0, 70, 58
1, 165881, Control_c, 0, 64, 71
1, 165896, Control_c, 0, 64, 71
1, 165897, Note_off_c, 0, 73, 58
1, 165910, Control_c, 0, 64, 72
1, 165911, Note_off_c, 0, 55, 35
1, 165940, Control_c, 0, 64, 71
1, 165955, Control_c, 0, 64, 71
1, 165968, Note_on_c, 0, 75, 75
1, 165969, Note_on_c, 0, 61, 81
1, 165970, Control_c, 0, 64, 68
1, 165984, Control_c, 0, 64, 62
1, 165991, Note_on_c, 0, 53, 61
1, 165999, Control_c, 0, 64, 48
1, 166004, Note_off_c, 0, 72, 62
1, 166014, Control_c, 0, 64, 0
1, 166064, Note_off_c, 0, 56, 57
1, 166103, Note_on_c, 0, 68, 71
1, 166154, Control_c, 0, 64, 40
1, 166169, Control_c, 0, 64, 55
1, 166184, Control_c, 0, 64, 64
1, 166198, Control_c, 0, 64, 68
1, 166213, Control_c, 0, 64, 70
1, 166231, Note_on_c, 0, 72, 80
1, 166243, Control_c, 0, 64, 69
1, 166251, Note_on_c, 0, 55, 71
1, 166258, Control_c, 0, 64, 65
1, 166261, Note_off_c, 0, 75, 62
1, 166272, Control_c, 0, 64, 56
1, 166281, Note_off_c, 0, 53, 58
1, 166287, Control_c, 0, 64, 42
1, 166302, Control_c, 0, 64, 35
1, 166317, Control_c, 0, 64, 40
1, 166332, Control_c, 0, 64, 52
1, 166347, Control_c, 0, 64, 64
1, 166358, Note_on_c, 0, 70, 81
1, 166361, Control_c, 0, 64, 71
1, 166376, Control_c, 0, 64, 78
1, 166391, Control_c, 0, 64, 84
1, 166404, Note_off_c, 0, 72, 61
1, 166406, Control_c, 0, 64, 88
1, 166421, Control_c, 0, 64, 91
1, 166422, Note_off_c, 0, 61, 61
1, 166435, Control_c, 0, 64, 92
1, 166450, Control_c, 0, 64, 92
1, 166478, Note_off_c, 0, 68, 37
1, 166481, Control_c, 0, 64, 91
1, 166493, Note_on_c, 0, 73, 80
1, 166496, Control_c, 0, 64, 82
1, 166498, Note_on_c, 0, 60, 81
1, 166511, Control_c, 0, 64, 68
1, 166513, Note_on_c, 0, 52, 65
1, 166526, Control_c, 0, 64, 54
1, 166527, Note_off_c, 0, 55, 48
1, 166537, Note_off_c, 0, 70, 54
1, 166540, Control_c, 0, 64, 35
1, 166555, Control_c, 0, 64, 0
1, 166600, Control_c, 0, 64, 39
1, 166614, Control_c, 0, 64, 56
1, 166620, Note_on_c, 0, 67, 79
1, 166629, Control_c, 0, 64, 65
1, 166636, Note_off_c, 0, 73, 60
1, 166644, Control_c, 0, 64, 72
1, 166658, Control_c, 0, 64, 77
1, 166673, Control_c, 0, 64, 80
1, 166688, Control_c, 0, 64, 81
1, 166703, Control_c, 0, 64, 83
1, 166710, Note_off_c, 0, 60, 53
1, 166718, Control_c, 0, 64, 84
1, 166732, Control_c, 0, 64, 84
1, 166747, Control_c, 0, 64, 85
1, 166786, Note_off_c, 0, 52, 61
1, 166790, Note_on_c, 0, 70, 77
1, 166793, Note_on_c, 0, 53, 81
1, 166799, Control_c, 0, 64, 84
1, 166814, Control_c, 0, 64, 84
1, 166829, Control_c, 0, 64, 80
1, 166834, Note_off_c, 0, 67, 54
1, 166844, Control_c, 0, 64, 72
1, 166858, Control_c, 0, 64, 61
1, 166873, Control_c, 0, 64, 37
1, 166888, Control_c, 0, 64, 0
1, 166955, Note_on_c, 0, 68, 65
1, 167006, Control_c, 0, 64, 31
1, 167021, Control_c, 0, 64, 43
1, 167036, Control_c, 0, 64, 53
1, 167051, Control_c, 0, 64, 60
1, 167065, Control_c, 0, 64, 64
1, 167080, Control_c, 0, 64, 66
1, 167095, Control_c, 0, 64, 66
1, 167101, Note_on_c, 0, 67, 80
1, 167109, Note_on_c, 0, 60, 74
1, 167110, Control_c, 0, 64, 67
1, 167119, Note_on_c, 0, 56, 62
1, 167122, Note_off_c, 0, 70, 29
1, 167125, Control_c, 0, 64, 69
1, 167140, Control_c, 0, 64, 72
1, 167155, Control_c, 0, 64, 74
1, 167170, Control_c, 0, 64, 77
1, 167184, Control_c, 0, 64, 79
1, 167199, Control_c, 0, 64, 83
1, 167214, Control_c, 0, 64, 87
1, 167229, Control_c, 0, 64, 94
1, 167229, Note_on_c, 0, 65, 82
1, 167244, Control_c, 0, 64, 101
1, 167250, Note_off_c, 0, 68, 26
1, 167259, Control_c, 0, 64, 109
1, 167266, Note_off_c, 0, 67, 62
1, 167274, Control_c, 0, 64, 127
1, 167325, Note_off_c, 0, 60, 37
1, 167355, Note_on_c, 0, 51, 94
1, 167358, Note_on_c, 0, 70, 89
1, 167361, Note_off_c, 0, 56, 56
1, 167378, Control_c, 0, 64, 113
1, 167393, Control_c, 0, 64, 81
1, 167405, Note_off_c, 0, 65, 60
1, 167407, Control_c, 0, 64, 62
1, 167422, Control_c, 0, 64, 37
1, 167424, Note_off_c, 0, 53, 61
1, 167437, Control_c, 0, 64, 0
1, 167483, Note_on_c, 0, 68, 81
1, 167496, Control_c, 0, 64, 42
1, 167511, Control_c, 0, 64, 57
1, 167533, Control_c, 0, 64, 67
1, 167548, Control_c, 0, 64, 72
1, 167563, Control_c, 0, 64, 76
1, 167578, Control_c, 0, 64, 78
1, 167593, Control_c, 0, 64, 80
1, 167608, Control_c, 0, 64, 83
1, 167620, Note_on_c, 0, 67, 80
1, 167623, Control_c, 0, 64, 86
1, 167638, Control_c, 0, 64, 92
1, 167640, Note_on_c, 0, 56, 66
1, 167642, Note_on_c, 0, 53, 63
1, 167653, Control_c, 0, 64, 98
1, 167668, Control_c, 0, 64, 110
1, 167679, Note_off_c, 0, 70, 52
1, 167682, Control_c, 0, 64, 127
1, 167735, Note_on_c, 0, 65, 79
1, 167778, Note_off_c, 0, 68, 58
1, 167796, Note_off_c, 0, 67, 62
1, 167837, Note_off_c, 0, 56, 55
1, 167845, Note_off_c, 0, 51, 58
1, 167861, Note_on_c, 0, 49, 93
1, 167863, Note_on_c, 0, 70, 90
1, 167875, Control_c, 0, 64, 81
1, 167889, Control_c, 0, 64, 57
1, 167891, Note_off_c, 0, 53, 62
1, 167904, Control_c, 0, 64, 0
1, 167908, Note_off_c, 0, 65, 57
1, 167963, Control_c, 0, 64, 34
1, 167978, Control_c, 0, 64, 51
1, 167990, Note_on_c, 0, 68, 81
1, 167993, Control_c, 0, 64, 64
1, 168007, Control_c, 0, 64, 74
1, 168022, Control_c, 0, 64, 85
1, 168037, Control_c, 0, 64, 97
1, 168052, Control_c, 0, 64, 104
1, 168068, Control_c, 0, 64, 117
1, 168083, Control_c, 0, 64, 127
1, 168126, Note_on_c, 0, 67, 85
1, 168139, Note_on_c, 0, 53, 62
1, 168139, Note_on_c, 0, 56, 61
1, 168164, Note_off_c, 0, 70, 54
1, 168246, Note_on_c, 0, 65, 80
1, 168267, Note_off_c, 0, 68, 57
1, 168308, Note_off_c, 0, 67, 65
1, 168314, Note_off_c, 0, 49, 60
1, 168368, Note_on_c, 0, 48, 97
1, 168371, Note_on_c, 0, 70, 94
1, 168386, Control_c, 0, 64, 81
1, 168398, Note_off_c, 0, 56, 61
1, 168401, Note_off_c, 0, 53, 63
1, 168401, Control_c, 0, 64, 57
1, 168416, Control_c, 0, 64, 0
1, 168436, Note_off_c, 0, 65, 55
1, 168488, Note_on_c, 0, 68, 81
1, 168535, Control_c, 0, 64, 36
1, 168550, Control_c, 0, 64, 47
1, 168564, Control_c, 0, 64, 57
1, 168579, Control_c, 0, 64, 63
1, 168594, Control_c, 0, 64, 68
1, 168609, Control_c, 0, 64, 74
1, 168612, Note_on_c, 0, 53, 63
1, 168612, Note_on_c, 0, 56, 75
1, 168621, Note_on_c, 0, 67, 90
1, 168624, Control_c, 0, 64, 82
1, 168638, Control_c, 0, 64, 90
1, 168648, Note_off_c, 0, 70, 55
1, 168653, Control_c, 0, 64, 107
1, 168668, Control_c, 0, 64, 127
1, 168724, Note_off_c, 0, 68, 59
1, 168744, Note_off_c, 0, 67, 64
1, 168746, Note_off_c, 0, 56, 51
1, 168750, Note_off_c, 0, 48, 62
1, 168752, Note_on_c, 0, 65, 82
1, 168758, Note_off_c, 0, 53, 52
1, 168965, Control_c, 0, 64, 115
1, 168973, Note_on_c, 0, 77, 94
1, 168979, Control_c, 0, 64, 76
1, 168985, Note_on_c, 0, 56, 85
1, 168988, Note_on_c, 0, 47, 81
1, 168990, Note_on_c, 0, 53, 73
1, 168994, Control_c, 0, 64, 55
1, 169009, Control_c, 0, 64, 0
1, 169086, Note_off_c, 0, 65, 52
1, 169121, Control_c, 0, 64, 34
1, 169135, Control_c, 0, 64, 51
1, 169150, Control_c, 0, 64, 63
1, 169165, Control_c, 0, 64, 73
1, 169180, Control_c, 0, 64, 83
1, 169194, Control_c, 0, 64, 92
1, 169209, Control_c, 0, 64, 97
1, 169218, Note_off_c, 0, 77, 65
1, 169224, Control_c, 0, 64, 104
1, 169239, Control_c, 0, 64, 113
1, 169254, Control_c, 0, 64, 127
1, 169263, Note_off_c, 0, 53, 61
1, 169265, Note_off_c, 0, 56, 61
1, 169277, Note_off_c, 0, 47, 62
1, 169313, Control_c, 0, 64, 90
1, 169328, Control_c, 0, 64, 63
1, 169343, Control_c, 0, 64, 0
1, 169573, Note_on_c, 0, 70, 89
1, 169624, Control_c, 0, 64, 42
1, 169639, Control_c, 0, 64, 60
1, 169655, Control_c, 0, 64, 71
1, 169670, Control_c, 0, 64, 84
1, 169684, Control_c, 0, 64, 94
1, 169694, Note_on_c, 0, 68, 87
1, 169699, Control_c, 0, 64, 97
1, 169729, Control_c, 0, 64, 93
1, 169744, Control_c, 0, 64, 81
1, 169751, Note_off_c, 0, 70, 59
1, 169758, Control_c, 0, 64, 67
1, 169773, Control_c, 0, 64, 44
1, 169796, Control_c, 0, 64, 0
1, 169810, Note_on_c, 0, 48, 81
1, 169812, Note_on_c, 0, 56, 81
1, 169818, Note_on_c, 0, 53, 70
1, 169826, Note_on_c, 0, 67, 88
1, 169855, Control_c, 0, 64, 36
1, 169857, Note_off_c, 0, 68, 62
1, 169860, Note_off_c, 0, 53, 61
1, 169870, Control_c, 0, 64, 48
1, 169876, Note_off_c, 0, 56, 60
1, 169877, Note_off_c, 0, 48, 60
1, 169884, Control_c, 0, 64, 55
1, 169899, Control_c, 0, 64, 56
1, 169912, Note_off_c, 0, 67, 64
1, 169914, Control_c, 0, 64, 53
1, 169929, Control_c, 0, 64, 48
1, 169944, Control_c, 0, 64, 39
1, 169945, Note_on_c, 0, 65, 83
1, 169958, Control_c, 0, 64, 0
1, 170077, Control_c, 0, 64, 48
1, 170082, Note_on_c, 0, 80, 91
1, 170085, Note_on_c, 0, 59, 83
1, 170090, Note_on_c, 0, 49, 77
1, 170090, Note_on_c, 0, 53, 72
1, 170091, Control_c, 0, 64, 66
1, 170106, Control_c, 0, 64, 75
1, 170121, Control_c, 0, 64, 82
1, 170123, Note_off_c, 0, 65, 58
1, 170136, Control_c, 0, 64, 83
1, 170160, Note_off_c, 0, 80, 65
1, 170166, Control_c, 0, 64, 82
1, 170171, Note_off_c, 0, 59, 63
1, 170180, Control_c, 0, 64, 76
1, 170186, Note_off_c, 0, 53, 63
1, 170195, Control_c, 0, 64, 66
1, 170202, Note_off_c, 0, 49, 62
1, 170210, Control_c, 0, 64, 51
1, 170225, Control_c, 0, 64, 0
1, 170615, Note_on_c, 0, 71, 70
1, 170619, Note_on_c, 0, 49, 53
1, 170621, Note_on_c, 0, 65, 65
1, 170629, Note_on_c, 0, 37, 52
1, 170669, Note_off_c, 0, 65, 62
1, 170678, Note_off_c, 0, 49, 57
1, 170678, Note_off_c, 0, 71, 62
1, 170693, Note_off_c, 0, 37, 60
1, 171151, Note_on_c, 0, 72, 54
1, 171167, Control_c, 0, 64, 29
1, 171170, Note_on_c, 0, 64, 51
1, 171175, Note_on_c, 0, 48, 43
1, 171182, Control_c, 0, 64, 46
1, 171187, Note_on_c, 0, 36, 38
1, 171197, Control_c, 0, 64, 59
1, 171212, Control_c, 0, 64, 66
1, 171226, Control_c, 0, 64, 72
1, 171228, Note_off_c, 0, 72, 61
1, 171233, Note_off_c, 0, 64, 64
1, 171241, Control_c, 0, 64, 77
1, 171257, Control_c, 0, 64, 83
1, 171279, Control_c, 0, 64, 91
1, 171294, Control_c, 0, 64, 100
1, 171309, Control_c, 0, 64, 114
1, 171324, Control_c, 0, 64, 127
1, 171333, Note_off_c, 0, 48, 50
1, 171376, Note_off_c, 0, 36, 42
1, 171620, Control_c, 0, 64, 90
1, 171635, Control_c, 0, 64, 74
1, 171650, Control_c, 0, 64, 61
1, 171664, Control_c, 0, 64, 46
1, 171679, Control_c, 0, 64, 0
1, 171748, Note_on_c, 0, 72, 81
1, 172087, Control_c, 0, 67, 41
1, 172102, Control_c, 0, 67, 57
1, 172117, Control_c, 0, 67, 76
1, 172132, Control_c, 0, 67, 102
1, 172147, Control_c, 0, 67, 125
1, 172161, Control_c, 0, 67, 127
1, 172464, Note_off_c, 0, 72, 61
1, 172478, Note_on_c, 0, 74, 59
1, 172564, Note_on_c, 0, 72, 69
1, 172578, Note_off_c, 0, 74, 55
1, 172636, Note_off_c, 0, 72, 62
1, 172640, Note_on_c, 0, 70, 73
1, 172711, Note_off_c, 0, 70, 62
1, 172718, Note_on_c, 0, 72, 62
1, 172789, Note_on_c, 0, 70, 71
1, 172821, Note_off_c, 0, 72, 60
1, 172866, Note_on_c, 0, 69, 76
1, 172870, Note_off_c, 0, 70, 65
1, 172937, Note_off_c, 0, 69, 62
1, 172938, Note_on_c, 0, 70, 70
1, 173011, Note_on_c, 0, 69, 69
1, 173034, Note_off_c, 0, 70, 58
1, 173074, Note_on_c, 0, 67, 66
1, 173077, Note_off_c, 0, 69, 61
1, 173129, Note_off_c, 0, 67, 56
1, 173159, Note_on_c, 0, 69, 47
1, 173245, Note_on_c, 0, 67, 64
1, 173249, Note_off_c, 0, 69, 57
1, 173333, Note_on_c, 0, 65, 53
1, 173337, Note_on_c, 0, 57, 60
1, 173337, Note_off_c, 0, 67, 62
1, 173355, Note_off_c, 0, 65, 61
1, 173465, Note_on_c, 0, 60, 43
1, 173487, Note_off_c, 0, 57, 54
1, 173588, Note_off_c, 0, 60, 60
1, 173591, Note_on_c, 0, 65, 60
1, 173601, Note_on_c, 0, 58, 48
1, 173639, Note_off_c, 0, 65, 62
1, 173650, Note_on_c, 0, 64, 58
1, 173660, Note_off_c, 0, 58, 57
1, 173680, Note_off_c, 0, 64, 65
1, 173698, Note_on_c, 0, 62, 65
1, 173721, Note_on_c, 0, 60, 28
1, 173728, Note_off_c, 0, 62, 64
1, 173752, Note_on_c, 0, 64, 61
1, 173785, Note_off_c, 0, 60, 45
1, 173802, Note_on_c, 0, 65, 63
1, 173803, Note_off_c, 0, 64, 63
1, 173817, Note_on_c, 0, 57, 47
1, 173838, Note_off_c, 0, 65, 62
1, 173882, Note_off_c, 0, 57, 62
1, 173930, Note_on_c, 0, 60, 52
1, 174041, Note_off_c, 0, 60, 59
1, 174055, Note_on_c, 0, 69, 57
1, 174065, Note_on_c, 0, 52, 43
1, 174104, Note_off_c, 0, 69, 59
1, 174121, Note_on_c, 0, 67, 53
1, 174121, Note_off_c, 0, 52, 54
1, 174144, Note_off_c, 0, 67, 60
1, 174169, Note_on_c, 0, 65, 57
1, 174175, Note_on_c, 0, 60, 28
1, 174192, Note_off_c, 0, 65, 58
1, 174212, Note_on_c, 0, 67, 63
1, 174231, Note_off_c, 0, 60, 45
1, 174264, Note_on_c, 0, 69, 64
1, 174265, Note_off_c, 0, 67, 62
1, 174277, Note_on_c, 0, 53, 43
1, 174297, Note_off_c, 0, 69, 69
1, 174378, Note_on_c, 0, 60, 50
1, 174411, Note_off_c, 0, 60, 65
1, 174483, Note_off_c, 0, 53, 57
1, 174515, Note_on_c, 0, 50, 47
1, 174527, Note_on_c, 0, 72, 55
1, 174565, Note_off_c, 0, 72, 62
1, 174576, Note_on_c, 0, 70, 65
1, 174583, Note_off_c, 0, 50, 62
1, 174605, Note_off_c, 0, 70, 64
1, 174631, Note_on_c, 0, 53, 40
1, 174638, Note_on_c, 0, 69, 61
1, 174670, Note_off_c, 0, 69, 59
1, 174687, Note_on_c, 0, 70, 60
1, 174713, Note_off_c, 0, 53, 55
1, 174735, Note_off_c, 0, 70, 64
1, 174738, Note_on_c, 0, 72, 63
1, 174746, Note_on_c, 0, 45, 46
1, 174764, Note_off_c, 0, 72, 66
1, 174849, Note_on_c, 0, 53, 45
1, 174890, Note_off_c, 0, 53, 62
1, 174925, Note_off_c, 0, 45, 36
1, 174959, Note_on_c, 0, 46, 48
1, 174968, Note_on_c, 0, 74, 67
1, 174995, Note_off_c, 0, 74, 69
1, 175058, Note_off_c, 0, 46, 61
1, 175101, Note_on_c, 0, 58, 47
1, 175126, Note_off_c, 0, 58, 59
1, 175226, Note_on_c, 0, 65, 55
1, 175248, Note_on_c, 0, 57, 36
1, 175260, Note_on_c, 0, 48, 44
1, 175448, Note_off_c, 0, 57, 59
1, 175495, Note_on_c, 0, 64, 54
1, 175500, Note_on_c, 0, 55, 37
1, 175504, Note_off_c, 0, 65, 51
1, 175533, Note_off_c, 0, 64, 66
1, 175555, Note_off_c, 0, 48, 62
1, 175566, Note_off_c, 0, 55, 62
1, 175600, Control_c, 0, 67, 111
1, 175615, Control_c, 0, 67, 70
1, 175630, Control_c, 0, 67, 36
1, 175644, Control_c, 0, 67, 0
1, 175753, Note_on_c, 0, 74, 77
1, 176023, Note_on_c, 0, 54, 68
1, 176030, Note_on_c, 0, 50, 61
1, 176139, Note_off_c, 0, 50, 62
1, 176165, Note_off_c, 0, 54, 59
1, 176290, Note_on_c, 0, 55, 58
1, 176297, Note_on_c, 0, 52, 60
1, 176323, Note_off_c, 0, 55, 64
1, 176325, Note_off_c, 0, 52, 63
1, 176349, Note_off_c, 0, 74, 60
1, 176368, Note_on_c, 0, 75, 58
1, 176459, Note_on_c, 0, 74, 67
1, 176464, Note_off_c, 0, 75, 55
1, 176536, Note_off_c, 0, 74, 63
1, 176537, Note_on_c, 0, 72, 65
1, 176538, Note_on_c, 0, 57, 60
1, 176539, Note_on_c, 0, 54, 59
1, 176569, Note_off_c, 0, 57, 65
1, 176569, Note_off_c, 0, 54, 63
1, 176605, Note_off_c, 0, 72, 60
1, 176616, Note_on_c, 0, 74, 64
1, 176691, Note_on_c, 0, 72, 71
1, 176708, Note_off_c, 0, 74, 59
1, 176768, Note_on_c, 0, 70, 79
1, 176773, Note_off_c, 0, 72, 62
1, 176782, Note_on_c, 0, 55, 66
1, 176792, Note_on_c, 0, 58, 60
1, 176813, Note_off_c, 0, 55, 64
1, 176820, Note_off_c, 0, 58, 64
1, 176857, Note_on_c, 0, 72, 75
1, 176868, Note_off_c, 0, 70, 61
1, 176942, Note_on_c, 0, 70, 74
1, 176992, Note_off_c, 0, 72, 56
1, 177017, Note_on_c, 0, 57, 69
1, 177022, Note_on_c, 0, 60, 65
1, 177025, Note_on_c, 0, 69, 78
1, 177034, Note_off_c, 0, 70, 64
1, 177051, Note_off_c, 0, 60, 67
1, 177054, Note_off_c, 0, 57, 64
1, 177105, Note_on_c, 0, 70, 79
1, 177111, Note_off_c, 0, 69, 61
1, 177182, Note_off_c, 0, 70, 64
1, 177183, Note_on_c, 0, 69, 69
1, 177231, Note_off_c, 0, 69, 63
1, 177257, Note_on_c, 0, 58, 63
1, 177260, Control_c, 0, 64, 29
1, 177272, Note_on_c, 0, 67, 81
1, 177273, Note_on_c, 0, 62, 59
1, 177282, Control_c, 0, 64, 49
1, 177297, Control_c, 0, 64, 62
1, 177308, Note_off_c, 0, 62, 63
1, 177313, Control_c, 0, 64, 68
1, 177324, Note_off_c, 0, 58, 61
1, 177327, Control_c, 0, 64, 73
1, 177342, Control_c, 0, 64, 75
1, 177343, Note_off_c, 0, 67, 61
1, 177357, Control_c, 0, 64, 78
1, 177372, Control_c, 0, 64, 81
1, 177387, Control_c, 0, 64, 85
1, 177401, Control_c, 0, 64, 88
1, 177416, Control_c, 0, 64, 89
1, 177431, Control_c, 0, 64, 90
1, 177505, Control_c, 0, 64, 90
1, 177519, Control_c, 0, 64, 87
1, 177534, Control_c, 0, 64, 78
1, 177540, Note_on_c, 0, 79, 85
1, 177549, Control_c, 0, 64, 66
1, 177564, Control_c, 0, 64, 48
1, 177579, Control_c, 0, 64, 0
1, 177639, Control_c, 0, 64, 36
1, 177654, Control_c, 0, 64, 50
1, 177669, Control_c, 0, 64, 60
1, 177684, Control_c, 0, 64, 65
1, 177698, Control_c, 0, 64, 68
1, 177713, Control_c, 0, 64, 69
1, 177728, Control_c, 0, 64, 70
1, 177743, Control_c, 0, 64, 72
1, 177758, Control_c, 0, 64, 76
1, 177773, Control_c, 0, 64, 82
1, 177788, Control_c, 0, 64, 90
1, 177803, Control_c, 0, 64, 100
1, 177805, Note_on_c, 0, 74, 90
1, 177817, Control_c, 0, 64, 127
1, 177868, Note_off_c, 0, 79, 63
1, 177907, Note_off_c, 0, 74, 63
1, 178098, Note_on_c, 0, 77, 78
1, 178104, Note_on_c, 0, 46, 57
1, 178106, Control_c, 0, 64, 91
1, 178111, Note_on_c, 0, 48, 58
1, 178121, Control_c, 0, 64, 72
1, 178136, Control_c, 0, 64, 55
1, 178150, Control_c, 0, 64, 0
1, 178151, Note_off_c, 0, 77, 65
1, 178157, Note_on_c, 0, 76, 75
1, 178180, Control_c, 0, 67, 42
1, 178195, Control_c, 0, 67, 63
1, 178198, Note_off_c, 0, 76, 63
1, 178210, Control_c, 0, 67, 89
1, 178216, Note_on_c, 0, 74, 79
1, 178224, Control_c, 0, 67, 124
1, 178239, Control_c, 0, 67, 127
1, 178259, Note_on_c, 0, 76, 72
1, 178268, Note_off_c, 0, 74, 60
1, 178299, Note_off_c, 0, 46, 59
1, 178335, Note_on_c, 0, 77, 74
1, 178336, Note_on_c, 0, 45, 51
1, 178337, Note_off_c, 0, 76, 64
1, 178342, Control_c, 0, 64, 38
1, 178357, Control_c, 0, 64, 55
1, 178372, Control_c, 0, 64, 63
1, 178387, Control_c, 0, 64, 68
1, 178402, Control_c, 0, 64, 74
1, 178408, Note_off_c, 0, 48, 61
1, 178417, Control_c, 0, 64, 79
1, 178421, Note_off_c, 0, 77, 65
1, 178432, Control_c, 0, 64, 83
1, 178441, Note_off_c, 0, 45, 63
1, 178447, Control_c, 0, 64, 85
1, 178462, Control_c, 0, 64, 87
1, 178477, Control_c, 0, 64, 88
1, 178492, Control_c, 0, 64, 88
1, 178507, Control_c, 0, 64, 89
1, 178610, Control_c, 0, 64, 88
1, 178625, Control_c, 0, 64, 86
1, 178640, Control_c, 0, 64, 82
1, 178655, Control_c, 0, 64, 74
1, 178657, Note_on_c, 0, 47, 45
1, 178658, Note_on_c, 0, 50, 44
1, 178670, Control_c, 0, 64, 64
1, 178679, Note_on_c, 0, 67, 40
1, 178685, Control_c, 0, 64, 48
1, 178700, Control_c, 0, 64, 0
1, 178709, Note_off_c, 0, 67, 53
1, 178722, Note_on_c, 0, 65, 67
1, 178774, Note_off_c, 0, 65, 62
1, 178800, Note_on_c, 0, 64, 66
1, 178842, Note_off_c, 0, 64, 62
1, 178850, Note_on_c, 0, 65, 52
1, 178885, Note_off_c, 0, 50, 63
1, 178913, Note_off_c, 0, 47, 56
1, 178917, Note_off_c, 0, 65, 59
1, 178926, Note_on_c, 0, 69, 57
1, 178935, Note_on_c, 0, 48, 44
1, 178951, Note_on_c, 0, 53, 29
1, 179175, Note_off_c, 0, 53, 51
1, 179205, Note_on_c, 0, 67, 57
1, 179213, Note_on_c, 0, 52, 42
1, 179254, Note_off_c, 0, 69, 59
1, 179433, Note_off_c, 0, 52, 60
1, 179434, Note_off_c, 0, 48, 63
1, 179472, Note_on_c, 0, 65, 53
1, 179476, Note_on_c, 0, 53, 42
1, 179484, Note_off_c, 0, 67, 60
1, 179559, Control_c, 0, 67, 122
1, 179574, Control_c, 0, 67, 86
1, 179589, Control_c, 0, 67, 47
1, 179603, Control_c, 0, 67, 0
1, 179636, Note_off_c, 0, 53, 33
1, 179732, Note_on_c, 0, 41, 62
1, 179772, Note_off_c, 0, 41, 65
1, 179782, Control_c, 0, 64, 45
1, 179796, Control_c, 0, 64, 62
1, 179811, Control_c, 0, 64, 70
1, 179826, Control_c, 0, 64, 77
1, 179841, Control_c, 0, 64, 82
1, 179856, Control_c, 0, 64, 87
1, 179870, Control_c, 0, 64, 91
1, 179885, Control_c, 0, 64, 96
1, 179900, Control_c, 0, 64, 101
1, 179901, Note_off_c, 0, 65, 63
1, 179914, Control_c, 0, 64, 106
1, 179929, Control_c, 0, 64, 109
1, 180003, Control_c, 0, 64, 98
1, 180008, Note_on_c, 0, 60, 87
1, 180018, Control_c, 0, 64, 80
1, 180033, Control_c, 0, 64, 61
1, 180049, Control_c, 0, 64, 0
1, 180211, Control_c, 0, 64, 41
1, 180226, Control_c, 0, 64, 54
1, 180241, Control_c, 0, 64, 63
1, 180256, Control_c, 0, 64, 68
1, 180277, Note_on_c, 0, 72, 82
1, 180279, Control_c, 0, 64, 73
1, 180293, Control_c, 0, 64, 80
1, 180302, Note_off_c, 0, 72, 66
1, 180308, Control_c, 0, 64, 87
1, 180323, Control_c, 0, 64, 97
1, 180338, Control_c, 0, 64, 112
1, 180352, Control_c, 0, 64, 127
1, 180562, Note_on_c, 0, 84, 94
1, 180619, Note_off_c, 0, 60, 59
1, 180619, Control_c, 0, 64, 117
1, 180630, Note_on_c, 0, 62, 59
1, 180634, Control_c, 0, 64, 98
1, 180649, Control_c, 0, 64, 87
1, 180663, Control_c, 0, 64, 79
1, 180678, Control_c, 0, 64, 71
1, 180693, Control_c, 0, 64, 63
1, 180705, Note_off_c, 0, 62, 62
1, 180708, Control_c, 0, 64, 56
1, 180721, Note_on_c, 0, 60, 58
1, 180723, Control_c, 0, 64, 50
1, 180737, Control_c, 0, 64, 46
1, 180752, Control_c, 0, 64, 43
1, 180767, Control_c, 0, 64, 39
1, 180782, Control_c, 0, 64, 35
1, 180785, Note_off_c, 0, 60, 61
1, 180790, Note_on_c, 0, 58, 66
1, 180797, Control_c, 0, 64, 0
1, 180861, Note_off_c, 0, 58, 62
1, 180872, Control_c, 0, 67, 50
1, 180880, Note_on_c, 0, 60, 63
1, 180887, Control_c, 0, 67, 80
1, 180902, Control_c, 0, 67, 111
1, 180916, Control_c, 0, 67, 127
1, 180946, Note_off_c, 0, 60, 60
1, 180967, Note_on_c, 0, 58, 59
1, 181021, Note_off_c, 0, 58, 62
1, 181040, Note_on_c, 0, 57, 61
1, 181081, Note_off_c, 0, 57, 65
1, 181126, Note_off_c, 0, 84, 63
1, 181134, Note_on_c, 0, 86, 63
1, 181137, Note_on_c, 0, 58, 62
1, 181168, Note_off_c, 0, 58, 65
1, 181192, Note_on_c, 0, 57, 58
1, 181216, Note_on_c, 0, 84, 74
1, 181248, Note_off_c, 0, 86, 58
1, 181250, Note_off_c, 0, 57, 59
1, 181272, Note_on_c, 0, 55, 60
1, 181284, Note_on_c, 0, 82, 80
1, 181287, Note_off_c, 0, 84, 63
1, 181316, Note_off_c, 0, 55, 63
1, 181351, Note_on_c, 0, 57, 66
1, 181357, Note_on_c, 0, 84, 80
1, 181359, Note_off_c, 0, 82, 56
1, 181390, Note_off_c, 0, 57, 59
1, 181429, Note_on_c, 0, 55, 66
1, 181437, Note_on_c, 0, 82, 82
1, 181472, Note_off_c, 0, 84, 63
1, 181485, Note_off_c, 0, 55, 57
1, 181495, Note_on_c, 0, 53, 77
1, 181512, Note_on_c, 0, 81, 84
1, 181528, Note_off_c, 0, 82, 61
1, 181529, Note_off_c, 0, 53, 66
1, 181531, Control_c, 0, 64, 43
1, 181546, Control_c, 0, 64, 55
1, 181546, Control_c, 0, 67, 103
1, 181560, Control_c, 0, 64, 62
1, 181560, Control_c, 0, 67, 68
1, 181575, Control_c, 0, 64, 65
1, 181575, Control_c, 0, 67, 0
1, 181589, Note_on_c, 0, 82, 81
1, 181590, Control_c, 0, 64, 65
1, 181604, Note_off_c, 0, 81, 63
1, 181605, Control_c, 0, 64, 66
1, 181620, Control_c, 0, 64, 67
1, 181636, Control_c, 0, 64, 67
1, 181665, Note_on_c, 0, 81, 70
1, 181665, Control_c, 0, 64, 68
1, 181712, Note_off_c, 0, 82, 57
1, 181732, Note_on_c, 0, 57, 63
1, 181745, Note_on_c, 0, 79, 72
1, 181752, Note_off_c, 0, 81, 63
1, 181754, Control_c, 0, 64, 67
1, 181778, Note_off_c, 0, 57, 64
1, 181795, Note_on_c, 0, 55, 62
1, 181806, Control_c, 0, 64, 67
1, 181807, Note_off_c, 0, 79, 65
1, 181812, Note_on_c, 0, 77, 77
1, 181821, Control_c, 0, 64, 66
1, 181836, Control_c, 0, 64, 64
1, 181838, Note_off_c, 0, 55, 63
1, 181851, Control_c, 0, 64, 62
1, 181858, Note_on_c, 0, 53, 59
1, 181865, Control_c, 0, 64, 57
1, 181880, Control_c, 0, 64, 51
1, 181889, Note_on_c, 0, 76, 74
1, 181895, Control_c, 0, 64, 42
1, 181898, Note_off_c, 0, 77, 56
1, 181900, Note_off_c, 0, 53, 63
1, 181901, Note_on_c, 0, 55, 68
1, 181910, Control_c, 0, 64, 30
1, 181924, Control_c, 0, 64, 0
1, 181954, Note_off_c, 0, 55, 62
1, 181962, Note_on_c, 0, 77, 70
1, 181966, Note_off_c, 0, 76, 62
1, 181975, Note_on_c, 0, 57, 76
1, 182046, Note_off_c, 0, 77, 64
1, 182050, Note_on_c, 0, 79, 72
1, 182116, Control_c, 0, 64, 44
1, 182122, Note_on_c, 0, 77, 75
1, 182131, Control_c, 0, 64, 61
1, 182146, Control_c, 0, 64, 67
1, 182149, Note_off_c, 0, 57, 56
1, 182153, Note_off_c, 0, 79, 61
1, 182161, Control_c, 0, 64, 70
1, 182176, Control_c, 0, 64, 72
1, 182191, Control_c, 0, 64, 73
1, 182199, Note_on_c, 0, 75, 80
1, 182205, Note_off_c, 0, 77, 64
1, 182206, Note_on_c, 0, 45, 66
1, 182220, Control_c, 0, 64, 72
1, 182235, Control_c, 0, 64, 71
1, 182250, Control_c, 0, 64, 67
1, 182265, Control_c, 0, 64, 63
1, 182267, Note_off_c, 0, 75, 64
1, 182277, Note_on_c, 0, 74, 80
1, 182280, Control_c, 0, 64, 62
1, 182295, Control_c, 0, 64, 63
1, 182309, Control_c, 0, 64, 65
1, 182324, Control_c, 0, 64, 69
1, 182339, Control_c, 0, 64, 73
1, 182349, Note_off_c, 0, 74, 60
1, 182354, Control_c, 0, 64, 75
1, 182357, Note_on_c, 0, 73, 73
1, 182394, Note_off_c, 0, 73, 62
1, 182398, Control_c, 0, 64, 75
1, 182413, Control_c, 0, 64, 72
1, 182420, Note_off_c, 0, 45, 59
1, 182424, Note_on_c, 0, 74, 78
1, 182427, Note_on_c, 0, 46, 51
1, 182429, Control_c, 0, 64, 64
1, 182444, Control_c, 0, 64, 51
1, 182459, Control_c, 0, 64, 0
1, 182495, Note_off_c, 0, 74, 58
1, 182517, Note_on_c, 0, 79, 70
1, 182584, Note_off_c, 0, 79, 64
1, 182589, Note_on_c, 0, 78, 77
1, 182653, Note_off_c, 0, 78, 60
1, 182666, Note_on_c, 0, 79, 77
1, 182723, Note_off_c, 0, 46, 62
1, 182740, Note_on_c, 0, 82, 83
1, 182767, Note_off_c, 0, 79, 55
1, 182814, Note_on_c, 0, 81, 82
1, 182814, Note_off_c, 0, 82, 63
1, 182884, Note_on_c, 0, 82, 86
1, 182894, Note_off_c, 0, 81, 62
1, 182960, Note_off_c, 0, 82, 61
1, 182961, Note_on_c, 0, 86, 81
1, 183034, Note_on_c, 0, 85, 83
1, 183049, Note_off_c, 0, 86, 66
1, 183109, Note_on_c, 0, 86, 83
1, 183117, Note_on_c, 0, 58, 85
1, 183162, Control_c, 0, 64, 37
1, 183177, Control_c, 0, 64, 54
1, 183190, Note_on_c, 0, 82, 79
1, 183192, Control_c, 0, 64, 65
1, 183192, Note_off_c, 0, 85, 52
1, 183206, Control_c, 0, 64, 71
1, 183221, Control_c, 0, 64, 75
1, 183225, Note_off_c, 0, 86, 60
1, 183235, Note_off_c, 0, 58, 63
1, 183237, Control_c, 0, 64, 76
1, 183250, Note_off_c, 0, 82, 62
1, 183252, Control_c, 0, 64, 76
1, 183281, Note_on_c, 0, 79, 73
1, 183289, Control_c, 0, 64, 76
1, 183304, Control_c, 0, 64, 75
1, 183318, Control_c, 0, 64, 72
1, 183333, Control_c, 0, 64, 64
1, 183348, Control_c, 0, 64, 48
1, 183362, Control_c, 0, 64, 0
1, 183368, Note_on_c, 0, 77, 77
1, 183369, Note_off_c, 0, 79, 60
1, 183377, Note_on_c, 0, 60, 71
1, 183463, Note_off_c, 0, 60, 64
1, 183619, Note_on_c, 0, 48, 97
1, 183631, Note_on_c, 0, 76, 65
1, 183659, Control_c, 0, 64, 44
1, 183663, Note_off_c, 0, 48, 61
1, 183674, Control_c, 0, 64, 61
1, 183688, Control_c, 0, 64, 71
1, 183703, Control_c, 0, 64, 83
1, 183718, Control_c, 0, 64, 97
1, 183733, Control_c, 0, 64, 111
1, 183748, Control_c, 0, 64, 127
1, 183938, Note_on_c, 0, 62, 90
1, 183955, Control_c, 0, 64, 90
1, 183970, Control_c, 0, 64, 75
1, 183985, Control_c, 0, 64, 62
1, 183987, Note_off_c, 0, 76, 65
1, 183988, Note_off_c, 0, 77, 57
1, 184000, Control_c, 0, 64, 45
1, 184022, Control_c, 0, 64, 0
1, 184213, Note_on_c, 0, 65, 80
1, 184216, Control_c, 0, 64, 30
1, 184231, Control_c, 0, 64, 45
1, 184246, Control_c, 0, 64, 58
1, 184260, Control_c, 0, 64, 65
1, 184275, Control_c, 0, 64, 70
1, 184290, Control_c, 0, 64, 74
1, 184304, Control_c, 0, 64, 77
1, 184319, Control_c, 0, 64, 80
1, 184334, Control_c, 0, 64, 84
1, 184349, Control_c, 0, 64, 86
1, 184364, Control_c, 0, 64, 88
1, 184379, Control_c, 0, 64, 90
1, 184393, Control_c, 0, 64, 90
1, 184464, Note_on_c, 0, 77, 73
1, 184498, Control_c, 0, 64, 90
1, 184519, Note_off_c, 0, 62, 60
1, 184526, Note_off_c, 0, 65, 49
1, 184542, Control_c, 0, 64, 89
1, 184544, Note_on_c, 0, 63, 66
1, 184557, Control_c, 0, 64, 88
1, 184572, Control_c, 0, 64, 86
1, 184586, Control_c, 0, 64, 84
1, 184601, Control_c, 0, 64, 82
1, 184604, Note_off_c, 0, 63, 52
1, 184616, Control_c, 0, 64, 79
1, 184623, Note_on_c, 0, 62, 69
1, 184630, Control_c, 0, 64, 75
1, 184645, Control_c, 0, 64, 71
1, 184660, Control_c, 0, 64, 67
1, 184675, Control_c, 0, 64, 60
1, 184690, Note_off_c, 0, 62, 61
1, 184690, Control_c, 0, 64, 55
1, 184701, Note_on_c, 0, 78, 71
1, 184704, Control_c, 0, 64, 49
1, 184711, Note_on_c, 0, 60, 66
1, 184712, Note_on_c, 0, 75, 63
1, 184719, Control_c, 0, 64, 44
1, 184734, Control_c, 0, 64, 39
1, 184741, Note_off_c, 0, 77, 65
1, 184749, Control_c, 0, 64, 32
1, 184772, Control_c, 0, 64, 0
1, 184774, Note_off_c, 0, 60, 62
1, 184793, Note_on_c, 0, 62, 68
1, 184852, Note_off_c, 0, 75, 57
1, 184861, Note_off_c, 0, 62, 59
1, 184872, Note_on_c, 0, 60, 76
1, 184941, Note_off_c, 0, 60, 61
1, 184952, Note_on_c, 0, 58, 74
1, 184964, Note_on_c, 0, 79, 75
1, 184967, Note_on_c, 0, 74, 77
1, 185007, Note_off_c, 0, 78, 59
1, 185022, Note_off_c, 0, 58, 61
1, 185031, Note_on_c, 0, 60, 71
1, 185109, Note_off_c, 0, 60, 61
1, 185113, Note_on_c, 0, 58, 79
1, 185142, Note_off_c, 0, 74, 55
1, 185187, Note_off_c, 0, 58, 58
1, 185198, Note_on_c, 0, 57, 77
1, 185210, Note_on_c, 0, 81, 82
1, 185217, Note_on_c, 0, 78, 77
1, 185242, Note_off_c, 0, 79, 64
1, 185244, Note_off_c, 0, 78, 63
1, 185246, Control_c, 0, 64, 35
1, 185260, Control_c, 0, 64, 58
1, 185266, Note_off_c, 0, 57, 63
1, 185270, Note_off_c, 0, 81, 66
1, 185275, Control_c, 0, 64, 69
1, 185287, Note_on_c, 0, 58, 84
1, 185290, Control_c, 0, 64, 80
1, 185305, Control_c, 0, 64, 88
1, 185320, Control_c, 0, 64, 91
1, 185334, Control_c, 0, 64, 91
1, 185336, Note_off_c, 0, 58, 58
1, 185362, Note_on_c, 0, 57, 81
1, 185394, Control_c, 0, 64, 91
1, 185408, Control_c, 0, 64, 90
1, 185423, Control_c, 0, 64, 87
1, 185438, Control_c, 0, 64, 81
1, 185445, Note_on_c, 0, 55, 85
1, 185453, Control_c, 0, 64, 74
1, 185455, Note_on_c, 0, 82, 84
1, 185457, Note_on_c, 0, 79, 71
1, 185467, Control_c, 0, 64, 66
1, 185470, Note_off_c, 0, 57, 54
1, 185472, Note_off_c, 0, 55, 69
1, 185482, Control_c, 0, 64, 56
1, 185497, Control_c, 0, 64, 41
1, 185520, Control_c, 0, 64, 0
1, 185521, Note_off_c, 0, 79, 64
1, 185541, Note_on_c, 0, 81, 87
1, 185550, Note_off_c, 0, 82, 62
1, 185618, Note_on_c, 0, 82, 82
1, 185627, Note_off_c, 0, 81, 60
1, 185692, Note_on_c, 0, 83, 83
1, 185693, Note_on_c, 0, 55, 75
1, 185709, Note_off_c, 0, 82, 60
1, 185738, Note_on_c, 0, 53, 79
1, 185746, Note_off_c, 0, 55, 62
1, 185747, Note_off_c, 0, 83, 65
1, 185766, Note_on_c, 0, 81, 81
1, 185804, Note_off_c, 0, 53, 61
1, 185818, Note_on_c, 0, 52, 68
1, 185836, Note_on_c, 0, 83, 81
1, 185853, Note_off_c, 0, 52, 64
1, 185854, Note_on_c, 0, 53, 66
1, 185854, Note_off_c, 0, 81, 50
1, 185905, Control_c, 0, 64, 38
1, 185911, Note_on_c, 0, 84, 80
1, 185914, Note_off_c, 0, 83, 63
1, 185920, Note_on_c, 0, 52, 78
1, 185920, Control_c, 0, 64, 58
1, 185923, Note_off_c, 0, 53, 61
1, 185935, Control_c, 0, 64, 69
1, 185943, Note_off_c, 0, 52, 70
1, 185950, Control_c, 0, 64, 77
1, 185964, Control_c, 0, 64, 82
1, 185976, Note_off_c, 0, 84, 65
1, 185979, Control_c, 0, 64, 84
1, 185998, Note_on_c, 0, 83, 81
1, 186039, Control_c, 0, 64, 83
1, 186054, Control_c, 0, 64, 79
1, 186069, Control_c, 0, 64, 73
1, 186069, Note_on_c, 0, 84, 87
1, 186081, Note_off_c, 0, 83, 35
1, 186083, Control_c, 0, 64, 65
1, 186098, Control_c, 0, 64, 56
1, 186113, Control_c, 0, 64, 41
1, 186128, Control_c, 0, 64, 0
1, 186146, Note_on_c, 0, 60, 72
1, 186162, Note_on_c, 0, 88, 81
1, 186183, Note_off_c, 0, 84, 63
1, 186195, Note_on_c, 0, 58, 76
1, 186209, Note_off_c, 0, 60, 61
1, 186240, Note_on_c, 0, 86, 79
1, 186245, Note_off_c, 0, 88, 65
1, 186265, Note_off_c, 0, 58, 61
1, 186284, Note_on_c, 0, 57, 64
1, 186322, Note_on_c, 0, 88, 83
1, 186327, Note_off_c, 0, 57, 64
1, 186344, Note_on_c, 0, 58, 55
1, 186390, Note_off_c, 0, 86, 34
1, 186406, Note_on_c, 0, 89, 83
1, 186410, Note_off_c, 0, 58, 62
1, 186420, Note_off_c, 0, 88, 56
1, 186423, Note_on_c, 0, 57, 61
1, 186477, Control_c, 0, 64, 30
1, 186491, Note_on_c, 0, 84, 80
1, 186492, Control_c, 0, 64, 45
1, 186506, Control_c, 0, 64, 58
1, 186521, Control_c, 0, 64, 65
1, 186536, Control_c, 0, 64, 68
1, 186551, Control_c, 0, 64, 69
1, 186558, Note_off_c, 0, 84, 66
1, 186566, Control_c, 0, 64, 70
1, 186571, Note_on_c, 0, 81, 80
1, 186610, Control_c, 0, 64, 68
1, 186613, Note_off_c, 0, 89, 53
1, 186614, Note_off_c, 0, 57, 56
1, 186625, Control_c, 0, 64, 63
1, 186640, Control_c, 0, 64, 49
1, 186646, Note_on_c, 0, 86, 81
1, 186654, Control_c, 0, 64, 0
1, 186661, Note_on_c, 0, 58, 61
1, 186673, Note_off_c, 0, 81, 60
1, 186728, Control_c, 0, 64, 38
1, 186731, Note_on_c, 0, 82, 76
1, 186740, Note_off_c, 0, 86, 62
1, 186743, Control_c, 0, 64, 54
1, 186758, Control_c, 0, 64, 65
1, 186773, Control_c, 0, 64, 69
1, 186787, Note_off_c, 0, 82, 63
1, 186787, Control_c, 0, 64, 71
1, 186809, Note_on_c, 0, 79, 73
1, 186832, Control_c, 0, 64, 71
1, 186847, Control_c, 0, 64, 68
1, 186862, Control_c, 0, 64, 62
1, 186874, Note_off_c, 0, 58, 36
1, 186876, Control_c, 0, 64, 49
1, 186891, Control_c, 0, 64, 0
1, 186895, Note_on_c, 0, 84, 77
1, 186898, Note_on_c, 0, 60, 53
1, 186906, Control_c, 0, 67, 44
1, 186907, Note_off_c, 0, 79, 36
1, 186921, Control_c, 0, 67, 66
1, 186936, Control_c, 0, 67, 91
1, 186951, Control_c, 0, 67, 116
1, 186966, Control_c, 0, 67, 127
1, 186976, Note_on_c, 0, 81, 70
1, 186995, Control_c, 0, 64, 42
1, 187017, Control_c, 0, 64, 56
1, 187032, Control_c, 0, 64, 65
1, 187040, Note_off_c, 0, 84, 53
1, 187040, Note_off_c, 0, 81, 65
1, 187046, Control_c, 0, 64, 69
1, 187061, Control_c, 0, 64, 70
1, 187070, Note_on_c, 0, 77, 65
1, 187091, Control_c, 0, 64, 68
1, 187105, Control_c, 0, 64, 63
1, 187120, Control_c, 0, 64, 52
1, 187128, Note_off_c, 0, 60, 31
1, 187135, Control_c, 0, 64, 0
1, 187139, Note_off_c, 0, 77, 56
1, 187142, Note_on_c, 0, 82, 70
1, 187157, Note_on_c, 0, 48, 48
1, 187224, Control_c, 0, 64, 43
1, 187232, Note_on_c, 0, 79, 64
1, 187235, Note_off_c, 0, 82, 60
1, 187240, Control_c, 0, 64, 59
1, 187255, Control_c, 0, 64, 66
1, 187270, Control_c, 0, 64, 68
1, 187276, Note_off_c, 0, 79, 58
1, 187299, Control_c, 0, 64, 69
1, 187321, Note_on_c, 0, 76, 56
1, 187373, Control_c, 0, 64, 68
1, 187388, Control_c, 0, 64, 67
1, 187402, Control_c, 0, 64, 65
1, 187417, Control_c, 0, 64, 60
1, 187432, Control_c, 0, 64, 45
1, 187435, Note_off_c, 0, 76, 58
1, 187447, Control_c, 0, 64, 0
1, 187450, Note_on_c, 0, 77, 60
1, 187470, Note_on_c, 0, 53, 37
1, 187486, Note_off_c, 0, 48, 35
1, 187550, Control_c, 0, 64, 43
1, 187565, Control_c, 0, 64, 58
1, 187580, Control_c, 0, 64, 66
1, 187595, Control_c, 0, 64, 71
1, 187610, Control_c, 0, 64, 75
1, 187625, Control_c, 0, 64, 78
1, 187631, Note_off_c, 0, 77, 53
1, 187640, Control_c, 0, 64, 83
1, 187654, Control_c, 0, 64, 89
1, 187667, Note_off_c, 0, 53, 36
1, 187669, Control_c, 0, 64, 95
1, 187684, Control_c, 0, 64, 102
1, 187699, Control_c, 0, 64, 110
1, 187714, Control_c, 0, 64, 124
1, 187728, Control_c, 0, 64, 127
1, 187874, Note_on_c, 0, 81, 48
1, 187965, Note_on_c, 0, 79, 50
1, 188016, Note_off_c, 0, 81, 44
1, 188033, Note_on_c, 0, 77, 60
1, 188107, Note_off_c, 0, 79, 37
1, 188116, Note_on_c, 0, 76, 62
1, 188141, Note_off_c, 0, 77, 54
1, 188155, Note_off_c, 0, 76, 59
1, 188198, Note_on_c, 0, 74, 64
1, 188236, Note_off_c, 0, 74, 54
1, 188286, Note_on_c, 0, 72, 60
1, 188314, Control_c, 0, 64, 111
1, 188329, Control_c, 0, 64, 103
1, 188344, Control_c, 0, 64, 97
1, 188352, Note_off_c, 0, 72, 58
1, 188354, Note_on_c, 0, 71, 62
1, 188358, Note_on_c, 0, 68, 47
1, 188358, Control_c, 0, 64, 90
1, 188368, Note_on_c, 0, 65, 46
1, 188373, Control_c, 0, 64, 84
1, 188388, Control_c, 0, 64, 79
1, 188403, Control_c, 0, 64, 73
1, 188412, Note_off_c, 0, 71, 56
1, 188418, Control_c, 0, 64, 67
1, 188433, Control_c, 0, 64, 62
1, 188443, Note_on_c, 0, 74, 59
1, 188447, Control_c, 0, 64, 57
1, 188462, Control_c, 0, 64, 54
1, 188477, Control_c, 0, 64, 53
1, 188482, Note_off_c, 0, 68, 52
1, 188514, Control_c, 0, 64, 53
1, 188538, Note_off_c, 0, 74, 60
1, 188543, Note_on_c, 0, 71, 56
1, 188544, Control_c, 0, 64, 52
1, 188553, Note_off_c, 0, 65, 46
1, 188558, Control_c, 0, 64, 51
1, 188573, Control_c, 0, 64, 50
1, 188588, Control_c, 0, 64, 49
1, 188603, Control_c, 0, 64, 48
1, 188613, Note_on_c, 0, 64, 44
1, 188614, Note_on_c, 0, 67, 50
1, 188617, Note_on_c, 0, 74, 55
1, 188617, Note_off_c, 0, 71, 58
1, 188618, Control_c, 0, 64, 47
1, 188647, Control_c, 0, 64, 46
1, 188677, Control_c, 0, 64, 46
1, 188700, Note_on_c, 0, 72, 65
1, 188710, Note_off_c, 0, 74, 56
1, 188722, Control_c, 0, 64, 45
1, 188751, Control_c, 0, 64, 45
1, 188766, Note_off_c, 0, 67, 61
1, 188766, Note_off_c, 0, 72, 58
1, 188784, Note_on_c, 0, 69, 65
1, 188797, Note_off_c, 0, 64, 30
1, 188840, Note_on_c, 0, 62, 47
1, 188844, Note_on_c, 0, 65, 31
1, 188853, Note_off_c, 0, 69, 56
1, 188866, Note_on_c, 0, 72, 59
1, 188918, Note_off_c, 0, 65, 39
1, 188948, Note_on_c, 0, 70, 67
1, 188957, Note_off_c, 0, 72, 60
1, 189002, Note_off_c, 0, 70, 54
1, 189034, Note_on_c, 0, 67, 59
1, 189093, Note_off_c, 0, 67, 47
1, 189103, Note_on_c, 0, 60, 37
1, 189108, Note_on_c, 0, 70, 62
1, 189115, Note_on_c, 0, 64, 21
1, 189124, Note_off_c, 0, 62, 32
1, 189152, Control_c, 0, 64, 44
1, 189154, Note_off_c, 0, 64, 49
1, 189167, Control_c, 0, 64, 43
1, 189181, Control_c, 0, 64, 43
1, 189190, Note_on_c, 0, 69, 59
1, 189196, Control_c, 0, 64, 42
1, 189200, Note_off_c, 0, 60, 65
1, 189211, Control_c, 0, 64, 41
1, 189214, Note_off_c, 0, 70, 54
1, 189225, Control_c, 0, 64, 40
1, 189229, Note_off_c, 0, 69, 64
1, 189240, Control_c, 0, 64, 38
1, 189263, Control_c, 0, 64, 37
1, 189265, Note_on_c, 0, 65, 52
1, 189278, Control_c, 0, 64, 36
1, 189293, Control_c, 0, 64, 35
1, 189307, Control_c, 0, 64, 33
1, 189315, Note_off_c, 0, 65, 53
1, 189322, Control_c, 0, 64, 31
1, 189330, Note_on_c, 0, 62, 34
1, 189337, Control_c, 0, 64, 0
1, 189351, Note_on_c, 0, 69, 53
1, 189353, Note_on_c, 0, 58, 53
1, 189398, Note_off_c, 0, 62, 58
1, 189416, Note_off_c, 0, 69, 61
1, 189431, Note_off_c, 0, 58, 48
1, 189434, Note_on_c, 0, 67, 49
1, 189470, Note_off_c, 0, 67, 64
1, 189494, Note_on_c, 0, 64, 52
1, 189580, Note_off_c, 0, 64, 52
1, 189605, Note_on_c, 0, 57, 32
1, 189607, Note_on_c, 0, 65, 42
1, 189610, Note_on_c, 0, 60, 37
1, 189619, Control_c, 0, 64, 39
1, 189634, Control_c, 0, 64, 51
1, 189649, Control_c, 0, 64, 59
1, 189664, Control_c, 0, 64, 63
1, 189679, Control_c, 0, 64, 65
1, 189693, Control_c, 0, 64, 68
1, 189708, Control_c, 0, 64, 71
1, 189720, Note_off_c, 0, 57, 57
1, 189723, Control_c, 0, 64, 74
1, 189733, Note_off_c, 0, 60, 63
1, 189738, Control_c, 0, 64, 78
1, 189753, Control_c, 0, 64, 80
1, 189768, Control_c, 0, 64, 84
1, 189783, Control_c, 0, 64, 88
1, 189797, Control_c, 0, 64, 92
1, 189812, Control_c, 0, 64, 95
1, 189827, Control_c, 0, 64, 97
1, 189856, Control_c, 0, 64, 99
1, 189917, Note_off_c, 0, 65, 49
1, 189979, Note_on_c, 0, 68, 12
1, 190012, Control_c, 0, 64, 96
1, 190027, Control_c, 0, 64, 93
1, 190028, Note_off_c, 0, 68, 39
1, 190033, Note_on_c, 0, 67, 58
1, 190042, Control_c, 0, 64, 91
1, 190057, Control_c, 0, 64, 89
1, 190072, Control_c, 0, 64, 87
1, 190087, Control_c, 0, 64, 84
1, 190095, Note_off_c, 0, 67, 58
1, 190102, Control_c, 0, 64, 81
1, 190105, Note_on_c, 0, 65, 57
1, 190117, Control_c, 0, 64, 77
1, 190131, Control_c, 0, 64, 73
1, 190146, Control_c, 0, 64, 69
1, 190158, Note_off_c, 0, 65, 58
1, 190161, Control_c, 0, 64, 65
1, 190176, Note_on_c, 0, 63, 61
1, 190176, Control_c, 0, 64, 59
1, 190191, Control_c, 0, 64, 54
1, 190205, Control_c, 0, 64, 52
1, 190218, Note_off_c, 0, 63, 56
1, 190220, Control_c, 0, 64, 52
1, 190235, Control_c, 0, 64, 51
1, 190243, Note_on_c, 0, 61, 63
1, 190264, Control_c, 0, 64, 50
1, 190279, Control_c, 0, 64, 49
1, 190294, Control_c, 0, 64, 48
1, 190304, Note_off_c, 0, 61, 64
1, 190309, Control_c, 0, 64, 46
1, 190323, Control_c, 0, 64, 44
1, 190332, Note_on_c, 0, 60, 52
1, 190338, Control_c, 0, 64, 40
1, 190353, Control_c, 0, 64, 35
1, 190368, Control_c, 0, 64, 29
1, 190383, Note_off_c, 0, 60, 60
1, 190383, Control_c, 0, 64, 0
1, 190402, Note_on_c, 0, 77, 73
1, 190404, Note_on_c, 0, 59, 57
1, 190411, Note_on_c, 0, 68, 55
1, 190466, Note_off_c, 0, 59, 61
1, 190485, Note_on_c, 0, 62, 58
1, 190525, Note_off_c, 0, 62, 62
1, 190569, Note_on_c, 0, 59, 61
1, 190609, Note_off_c, 0, 59, 63
1, 190640, Note_on_c, 0, 62, 54
1, 190641, Note_on_c, 0, 67, 67
1, 190659, Note_off_c, 0, 68, 63
1, 190685, Note_off_c, 0, 62, 59
1, 190728, Note_on_c, 0, 60, 57
1, 190779, Note_off_c, 0, 60, 60
1, 190814, Note_on_c, 0, 57, 64
1, 190847, Note_off_c, 0, 57, 63
1, 190891, Note_on_c, 0, 76, 69
1, 190892, Note_on_c, 0, 60, 61
1, 190926, Note_off_c, 0, 67, 35
1, 190936, Note_off_c, 0, 60, 61
1, 190948, Note_off_c, 0, 77, 59
1, 190968, Note_on_c, 0, 58, 62
1, 191017, Note_off_c, 0, 58, 62
1, 191048, Note_on_c, 0, 55, 58
1, 191079, Note_off_c, 0, 55, 64
1, 191127, Note_on_c, 0, 58, 66
1, 191128, Note_on_c, 0, 72, 54
1, 191132, Note_on_c, 0, 77, 65
1, 191154, Note_off_c, 0, 58, 66
1, 191171, Note_off_c, 0, 76, 61
1, 191193, Note_on_c, 0, 57, 55
1, 191257, Note_off_c, 0, 57, 60
1, 191284, Note_on_c, 0, 53, 61
1, 191336, Note_off_c, 0, 53, 58
1, 191368, Note_on_c, 0, 57, 58
1, 191381, Note_off_c, 0, 77, 54
1, 191388, Note_on_c, 0, 70, 53
1, 191388, Note_on_c, 0, 79, 53
1, 191411, Note_off_c, 0, 57, 59
1, 191440, Note_on_c, 0, 55, 57
1, 191467, Note_off_c, 0, 72, 46
1, 191470, Note_off_c, 0, 79, 59
1, 191473, Note_off_c, 0, 70, 63
1, 191489, Note_off_c, 0, 55, 60
1, 191541, Note_on_c, 0, 52, 46
1, 191613, Control_c, 0, 64, 38
1, 191621, Note_off_c, 0, 52, 61
1, 191628, Control_c, 0, 64, 51
1, 191643, Control_c, 0, 64, 57
1, 191649, Note_on_c, 0, 81, 56
1, 191658, Control_c, 0, 64, 60
1, 191661, Note_on_c, 0, 53, 36
1, 191673, Control_c, 0, 64, 63
1, 191673, Control_c, 0, 67, 103
1, 191679, Note_on_c, 0, 69, 24
1, 191688, Control_c, 0, 64, 65
1, 191688, Control_c, 0, 67, 72
1, 191702, Control_c, 0, 64, 66
1, 191702, Control_c, 0, 67, 37
1, 191716, Note_off_c, 0, 69, 42
1, 191717, Control_c, 0, 64, 68
1, 191717, Control_c, 0, 67, 0
1, 191732, Control_c, 0, 64, 69
1, 191744, Note_off_c, 0, 53, 63
1, 191747, Control_c, 0, 64, 71
1, 191758, Note_off_c, 0, 81, 65
1, 191762, Control_c, 0, 64, 72
1, 191776, Control_c, 0, 64, 73
1, 191791, Control_c, 0, 64, 74
1, 191806, Control_c, 0, 64, 74
1, 191820, Control_c, 0, 64, 75
1, 191894, Control_c, 0, 64, 74
1, 191903, Note_on_c, 0, 84, 73
1, 191939, Control_c, 0, 64, 73
1, 191954, Control_c, 0, 64, 71
1, 191968, Control_c, 0, 64, 68
1, 191979, Note_on_c, 0, 82, 79
1, 191983, Control_c, 0, 64, 64
1, 191998, Control_c, 0, 64, 59
1, 192013, Control_c, 0, 64, 52
1, 192029, Control_c, 0, 64, 46
1, 192043, Control_c, 0, 64, 44
1, 192058, Control_c, 0, 64, 43
1, 192059, Note_on_c, 0, 81, 75
1, 192088, Control_c, 0, 64, 44
1, 192109, Note_off_c, 0, 84, 52
1, 192117, Control_c, 0, 64, 45
1, 192132, Control_c, 0, 64, 45
1, 192139, Note_on_c, 0, 79, 81
1, 192148, Note_off_c, 0, 82, 58
1, 192162, Control_c, 0, 64, 46
1, 192180, Note_off_c, 0, 81, 61
1, 192191, Control_c, 0, 64, 46
1, 192206, Control_c, 0, 64, 47
1, 192213, Note_on_c, 0, 77, 79
1, 192214, Note_off_c, 0, 79, 65
1, 192221, Control_c, 0, 64, 48
1, 192298, Note_on_c, 0, 76, 79
1, 192311, Note_off_c, 0, 77, 58
1, 192332, Control_c, 0, 64, 47
1, 192362, Control_c, 0, 64, 46
1, 192377, Control_c, 0, 64, 43
1, 192378, Note_off_c, 0, 76, 63
1, 192384, Note_on_c, 0, 65, 76
1, 192384, Note_on_c, 0, 77, 75
1, 192392, Control_c, 0, 64, 38
1, 192406, Control_c, 0, 64, 30
1, 192412, Note_on_c, 0, 57, 59
1, 192421, Control_c, 0, 64, 0
1, 192436, Control_c, 0, 67, 41
1, 192451, Control_c, 0, 67, 55
1, 192466, Control_c, 0, 67, 70
1, 192468, Note_on_c, 0, 75, 72
1, 192479, Note_off_c, 0, 77, 62
1, 192481, Control_c, 0, 67, 90
1, 192496, Control_c, 0, 67, 109
1, 192510, Control_c, 0, 67, 124
1, 192525, Control_c, 0, 67, 127
1, 192543, Note_on_c, 0, 73, 72
1, 192546, Note_off_c, 0, 75, 63
1, 192595, Note_off_c, 0, 57, 54
1, 192612, Note_off_c, 0, 73, 60
1, 192639, Note_on_c, 0, 58, 58
1, 192642, Note_on_c, 0, 74, 76
1, 192673, Control_c, 0, 64, 47
1, 192688, Control_c, 0, 64, 62
1, 192696, Note_off_c, 0, 65, 41
1, 192703, Control_c, 0, 64, 68
1, 192712, Note_off_c, 0, 58, 63
1, 192717, Control_c, 0, 64, 72
1, 192732, Control_c, 0, 64, 74
1, 192741, Note_off_c, 0, 74, 62
1, 192747, Control_c, 0, 64, 79
1, 192762, Control_c, 0, 64, 84
1, 192777, Control_c, 0, 64, 89
1, 192791, Control_c, 0, 64, 91
1, 192806, Control_c, 0, 64, 92
1, 192896, Control_c, 0, 64, 91
1, 192908, Note_on_c, 0, 74, 72
1, 192911, Control_c, 0, 64, 89
1, 192926, Control_c, 0, 64, 84
1, 192940, Control_c, 0, 64, 77
1, 192955, Control_c, 0, 64, 69
1, 192970, Control_c, 0, 64, 60
1, 192984, Note_off_c, 0, 74, 62
1, 192984, Note_on_c, 0, 72, 68
1, 192985, Control_c, 0, 64, 46
1, 193008, Control_c, 0, 64, 0
1, 193049, Note_off_c, 0, 72, 54
1, 193064, Note_on_c, 0, 70, 76
1, 193121, Note_off_c, 0, 70, 63
1, 193143, Note_on_c, 0, 69, 69
1, 193211, Note_off_c, 0, 69, 62
1, 193217, Note_on_c, 0, 67, 72
1, 193288, Note_off_c, 0, 67, 61
1, 193295, Note_on_c, 0, 66, 69
1, 193362, Note_off_c, 0, 66, 63
1, 193381, Note_on_c, 0, 67, 67
1, 193384, Note_on_c, 0, 83, 72
1, 193399, Note_on_c, 0, 79, 57
1, 193450, Note_off_c, 0, 67, 60
1, 193465, Note_on_c, 0, 65, 59
1, 193520, Note_off_c, 0, 65, 62
1, 193541, Note_on_c, 0, 63, 57
1, 193598, Note_off_c, 0, 63, 54
1, 193616, Control_c, 0, 64, 40
1, 193631, Control_c, 0, 64, 54
1, 193639, Note_on_c, 0, 84, 65
1, 193639, Note_off_c, 0, 83, 62
1, 193640, Note_off_c, 0, 79, 63
1, 193641, Note_on_c, 0, 64, 58
1, 193645, Control_c, 0, 64, 62
1, 193660, Control_c, 0, 64, 66
1, 193675, Control_c, 0, 64, 70
1, 193689, Control_c, 0, 64, 73
1, 193704, Control_c, 0, 64, 76
1, 193704, Control_c, 0, 67, 117
1, 193709, Note_off_c, 0, 64, 62
1, 193719, Control_c, 0, 64, 79
1, 193719, Control_c, 0, 67, 111
1, 193724, Note_off_c, 0, 84, 65
1, 193742, Control_c, 0, 64, 81
1, 193756, Control_c, 0, 64, 84
1, 193756, Control_c, 0, 67, 116
1, 193771, Control_c, 0, 64, 85
1, 193771, Control_c, 0, 67, 118
1, 193786, Control_c, 0, 64, 86
1, 193801, Control_c, 0, 64, 87
1, 193801, Control_c, 0, 67, 121
1, 193831, Control_c, 0, 67, 126
1, 193876, Control_c, 0, 64, 86
1, 193905, Control_c, 0, 64, 86
1, 193920, Control_c, 0, 64, 84
1, 193932, Note_on_c, 0, 60, 42
1, 193935, Control_c, 0, 64, 81
1, 193950, Control_c, 0, 64, 78
1, 193965, Control_c, 0, 64, 72
1, 193975, Note_off_c, 0, 60, 52
1, 193979, Control_c, 0, 64, 66
1, 193994, Control_c, 0, 64, 61
1, 194002, Note_on_c, 0, 64, 60
1, 194009, Control_c, 0, 64, 56
1, 194021, Note_off_c, 0, 64, 64
1, 194023, Control_c, 0, 64, 53
1, 194038, Control_c, 0, 64, 52
1, 194068, Control_c, 0, 64, 52
1, 194083, Control_c, 0, 64, 51
1, 194087, Note_on_c, 0, 67, 65
1, 194097, Control_c, 0, 64, 50
1, 194112, Control_c, 0, 64, 48
1, 194127, Control_c, 0, 64, 44
1, 194138, Note_off_c, 0, 67, 45
1, 194142, Control_c, 0, 64, 39
1, 194157, Control_c, 0, 64, 30
1, 194161, Note_on_c, 0, 72, 62
1, 194171, Control_c, 0, 64, 0
1, 194232, Note_off_c, 0, 72, 61
1, 194254, Note_on_c, 0, 76, 53
1, 194262, Note_on_c, 0, 75, 35
1, 194290, Note_off_c, 0, 75, 52
1, 194296, Note_off_c, 0, 76, 63
1, 194321, Note_on_c, 0, 79, 53
1, 194391, Note_on_c, 0, 53, 48
1, 194395, Note_on_c, 0, 55, 36
1, 194399, Note_on_c, 0, 77, 59
1, 194403, Note_off_c, 0, 79, 54
1, 194441, Note_off_c, 0, 53, 62
1, 194445, Note_off_c, 0, 55, 63
1, 194458, Note_off_c, 0, 77, 63
1, 194469, Note_on_c, 0, 74, 69
1, 194508, Note_off_c, 0, 74, 61
1, 194570, Note_on_c, 0, 71, 57
1, 194639, Note_off_c, 0, 71, 53
1, 194648, Note_on_c, 0, 55, 23
1, 194654, Note_on_c, 0, 72, 53
1, 194657, Note_on_c, 0, 52, 41
1, 194728, Control_c, 0, 64, 32
1, 194743, Control_c, 0, 64, 43
1, 194758, Control_c, 0, 64, 54
1, 194773, Control_c, 0, 64, 61
1, 194788, Control_c, 0, 64, 65
1, 194802, Control_c, 0, 64, 68
1, 194805, Note_off_c, 0, 72, 63
1, 194817, Control_c, 0, 64, 72
1, 194817, Control_c, 0, 67, 93
1, 194819, Note_off_c, 0, 52, 63
1, 194832, Note_off_c, 0, 55, 57
1, 194832, Control_c, 0, 64, 75
1, 194832, Control_c, 0, 67, 0
1, 194846, Control_c, 0, 64, 78
1, 194861, Control_c, 0, 64, 80
1, 194876, Control_c, 0, 64, 81
1, 194906, Control_c, 0, 64, 80
1, 194920, Control_c, 0, 64, 79
1, 194935, Control_c, 0, 64, 73
1, 194950, Control_c, 0, 64, 66
1, 194965, Control_c, 0, 64, 59
1, 194980, Control_c, 0, 64, 56
1, 194994, Control_c, 0, 64, 58
1, 195007, Note_on_c, 0, 60, 71
1, 195009, Control_c, 0, 64, 61
1, 195024, Control_c, 0, 64, 64
1, 195038, Control_c, 0, 64, 68
1, 195053, Control_c, 0, 64, 73
1, 195066, Note_off_c, 0, 60, 64
1, 195068, Control_c, 0, 64, 77
1, 195077, Note_on_c, 0, 64, 77
1, 195083, Control_c, 0, 64, 83
1, 195098, Control_c, 0, 64, 87
1, 195113, Control_c, 0, 64, 92
1, 195125, Note_off_c, 0, 64, 63
1, 195128, Control_c, 0, 64, 98
1, 195136, Note_on_c, 0, 65, 33
1, 195143, Control_c, 0, 64, 109
1, 195157, Control_c, 0, 64, 127
1, 195161, Note_on_c, 0, 67, 81
1, 195167, Note_off_c, 0, 65, 54
1, 195235, Note_on_c, 0, 72, 80
1, 195245, Note_off_c, 0, 67, 59
1, 195314, Note_on_c, 0, 76, 84
1, 195357, Note_off_c, 0, 72, 60
1, 195386, Note_on_c, 0, 79, 77
1, 195415, Note_off_c, 0, 76, 61
1, 195466, Note_on_c, 0, 77, 85
1, 195468, Note_on_c, 0, 55, 87
1, 195474, Note_on_c, 0, 53, 78
1, 195478, Note_on_c, 0, 50, 74
1, 195491, Control_c, 0, 64, 95
1, 195506, Control_c, 0, 64, 77
1, 195521, Control_c, 0, 64, 65
1, 195535, Control_c, 0, 64, 53
1, 195549, Note_on_c, 0, 74, 80
1, 195550, Control_c, 0, 64, 42
1, 195565, Control_c, 0, 64, 40
1, 195580, Control_c, 0, 64, 45
1, 195595, Control_c, 0, 64, 53
1, 195610, Control_c, 0, 64, 59
1, 195624, Control_c, 0, 64, 63
1, 195630, Note_off_c, 0, 55, 58
1, 195633, Note_on_c, 0, 71, 76
1, 195639, Control_c, 0, 64, 65
1, 195640, Note_off_c, 0, 74, 64
1, 195654, Control_c, 0, 64, 66
1, 195683, Control_c, 0, 64, 65
1, 195698, Control_c, 0, 64, 61
1, 195711, Note_on_c, 0, 55, 79
1, 195713, Control_c, 0, 64, 54
1, 195718, Note_on_c, 0, 52, 69
1, 195718, Note_off_c, 0, 77, 63
1, 195719, Note_on_c, 0, 72, 75
1, 195722, Note_on_c, 0, 48, 72
1, 195728, Note_off_c, 0, 79, 44
1, 195728, Control_c, 0, 64, 46
1, 195732, Note_off_c, 0, 50, 51
1, 195740, Note_off_c, 0, 53, 60
1, 195742, Note_off_c, 0, 71, 46
1, 195742, Control_c, 0, 64, 35
1, 195757, Control_c, 0, 64, 0
1, 195807, Note_off_c, 0, 72, 58
1, 195809, Note_on_c, 0, 76, 69
1, 195903, Note_off_c, 0, 76, 61
1, 195909, Note_on_c, 0, 79, 60
1, 195944, Note_off_c, 0, 48, 60
1, 195952, Note_off_c, 0, 52, 58
1, 195964, Note_on_c, 0, 53, 48
1, 195971, Note_on_c, 0, 50, 45
1, 196001, Note_on_c, 0, 77, 60
1, 196087, Note_on_c, 0, 74, 61
1, 196123, Note_off_c, 0, 79, 34
1, 196135, Note_off_c, 0, 55, 55
1, 196155, Note_off_c, 0, 74, 63
1, 196170, Note_on_c, 0, 71, 61
1, 196198, Note_off_c, 0, 77, 30
1, 196208, Note_off_c, 0, 50, 58
1, 196227, Note_off_c, 0, 53, 55
1, 196237, Note_on_c, 0, 48, 52
1, 196240, Note_on_c, 0, 52, 42
1, 196245, Note_on_c, 0, 55, 39
1, 196250, Note_on_c, 0, 72, 58
1, 196260, Note_off_c, 0, 71, 45
1, 196299, Note_off_c, 0, 72, 48
1, 196331, Note_on_c, 0, 76, 65
1, 196415, Note_off_c, 0, 76, 60
1, 196421, Note_on_c, 0, 79, 58
1, 196450, Note_off_c, 0, 52, 53
1, 196483, Note_on_c, 0, 53, 39
1, 196484, Note_off_c, 0, 48, 60
1, 196501, Note_on_c, 0, 50, 43
1, 196504, Note_on_c, 0, 77, 63
1, 196580, Note_on_c, 0, 74, 66
1, 196581, Note_off_c, 0, 79, 35
1, 196589, Note_off_c, 0, 77, 61
1, 196595, Note_off_c, 0, 55, 53
1, 196620, Note_off_c, 0, 74, 59
1, 196664, Note_on_c, 0, 71, 61
1, 196670, Note_off_c, 0, 53, 57
1, 196674, Note_off_c, 0, 50, 58
1, 196684, Control_c, 0, 67, 41
1, 196699, Control_c, 0, 67, 52
1, 196713, Control_c, 0, 67, 56
1, 196728, Control_c, 0, 67, 55
1, 196751, Note_off_c, 0, 71, 52
1, 196751, Control_c, 0, 67, 54
1, 196752, Note_on_c, 0, 55, 42
1, 196752, Note_on_c, 0, 48, 47
1, 196752, Note_on_c, 0, 72, 63
1, 196759, Note_on_c, 0, 52, 41
1, 196765, Control_c, 0, 64, 33
1, 196765, Control_c, 0, 67, 50
1, 196781, Control_c, 0, 64, 48
1, 196781, Control_c, 0, 67, 47
1, 196796, Control_c, 0, 64, 57
1, 196796, Control_c, 0, 67, 44
1, 196808, Note_off_c, 0, 55, 62
1, 196811, Control_c, 0, 64, 61
1, 196811, Control_c, 0, 67, 42
1, 196813, Note_off_c, 0, 52, 62
1, 196827, Control_c, 0, 64, 63
1, 196827, Control_c, 0, 67, 41
1, 196828, Note_off_c, 0, 48, 63
1, 196841, Control_c, 0, 64, 64
1, 196841, Control_c, 0, 67, 41
1, 196856, Control_c, 0, 64, 65
1, 196856, Control_c, 0, 67, 40
1, 196871, Control_c, 0, 64, 65
1, 196871, Control_c, 0, 67, 39
1, 196886, Control_c, 0, 64, 66
1, 196886, Control_c, 0, 67, 39
1, 196901, Control_c, 0, 67, 37
1, 196915, Control_c, 0, 67, 36
1, 196930, Control_c, 0, 67, 36
1, 196960, Control_c, 0, 64, 65
1, 196960, Control_c, 0, 67, 0
1, 196975, Control_c, 0, 64, 63
1, 196989, Control_c, 0, 64, 59
1, 196993, Note_off_c, 0, 72, 62
1, 197004, Control_c, 0, 64, 51
1, 197019, Note_on_c, 0, 36, 71
1, 197019, Control_c, 0, 64, 34
1, 197034, Control_c, 0, 64, 0
1, 197063, Note_off_c, 0, 36, 58
1, 197285, Note_on_c, 0, 38, 79
1, 197325, Note_off_c, 0, 38, 60
1, 197557, Note_on_c, 0, 40, 76
1, 197611, Note_off_c, 0, 40, 58
1, 197819, Note_on_c, 0, 41, 87
1, 197888, Note_off_c, 0, 41, 61
1, 198082, Note_on_c, 0, 45, 86
1, 198126, Note_off_c, 0, 45, 61
1, 198332, Note_on_c, 0, 46, 85
1, 198383, Control_c, 0, 64, 37
1, 198397, Note_off_c, 0, 46, 61
1, 198397, Control_c, 0, 64, 54
1, 198413, Control_c, 0, 64, 64
1, 198427, Control_c, 0, 64, 67
1, 198442, Control_c, 0, 64, 69
1, 198472, Control_c, 0, 64, 68
1, 198487, Control_c, 0, 64, 64
1, 198502, Control_c, 0, 64, 54
1, 198517, Control_c, 0, 64, 0
1, 198595, Note_on_c, 0, 49, 86
1, 198606, Control_c, 0, 64, 34
1, 198620, Control_c, 0, 64, 52
1, 198635, Control_c, 0, 64, 64
1, 198646, Note_off_c, 0, 49, 64
1, 198650, Control_c, 0, 64, 69
1, 198665, Control_c, 0, 64, 72
1, 198680, Control_c, 0, 64, 73
1, 198694, Control_c, 0, 64, 74
1, 198709, Control_c, 0, 64, 74
1, 198724, Control_c, 0, 64, 75
1, 198812, Control_c, 0, 64, 74
1, 198827, Control_c, 0, 64, 72
1, 198842, Control_c, 0, 64, 67
1, 198857, Control_c, 0, 64, 61
1, 198861, Note_on_c, 0, 50, 77
1, 198872, Control_c, 0, 64, 48
1, 198887, Control_c, 0, 64, 36
1, 198901, Control_c, 0, 64, 0
1, 198994, Note_on_c, 0, 53, 76
1, 199026, Note_off_c, 0, 50, 62
1, 199122, Note_on_c, 0, 52, 79
1, 199144, Note_off_c, 0, 53, 59
1, 199244, Note_on_c, 0, 50, 77
1, 199269, Note_off_c, 0, 52, 56
1, 199372, Note_on_c, 0, 52, 83
1, 199381, Note_off_c, 0, 50, 60
1, 199490, Note_on_c, 0, 53, 79
1, 199495, Note_off_c, 0, 52, 57
1, 199608, Note_on_c, 0, 50, 81
1, 199624, Note_off_c, 0, 53, 57
1, 199721, Note_off_c, 0, 50, 55
1, 199738, Note_on_c, 0, 52, 83
1, 199850, Note_off_c, 0, 52, 61
1, 199876, Note_on_c, 0, 53, 86
1, 199966, Note_off_c, 0, 53, 51
1, 200146, Note_on_c, 0, 50, 84
1, 200176, Control_c, 0, 64, 34
1, 200189, Note_off_c, 0, 50, 64
1, 200191, Control_c, 0, 64, 55
1, 200206, Control_c, 0, 64, 64
1, 200221, Control_c, 0, 64, 66
1, 200236, Control_c, 0, 64, 67
1, 200251, Control_c, 0, 64, 68
1, 200265, Control_c, 0, 64, 68
1, 200383, Control_c, 0, 64, 67
1, 200398, Control_c, 0, 64, 65
1, 200401, Note_on_c, 0, 45, 83
1, 200413, Control_c, 0, 64, 61
1, 200428, Control_c, 0, 64, 52
1, 200430, Note_off_c, 0, 45, 67
1, 200443, Control_c, 0, 64, 39
1, 200457, Control_c, 0, 64, 0
1, 200495, Control_c, 0, 64, 35
1, 200510, Control_c, 0, 64, 56
1, 200525, Control_c, 0, 64, 68
1, 200539, Control_c, 0, 64, 76
1, 200554, Control_c, 0, 64, 85
1, 200569, Control_c, 0, 64, 92
1, 200583, Control_c, 0, 64, 98
1, 200598, Control_c, 0, 64, 103
1, 200628, Control_c, 0, 64, 105
1, 200652, Note_on_c, 0, 48, 72
1, 200691, Note_off_c, 0, 48, 61
1, 200702, Control_c, 0, 64, 102
1, 200714, Note_on_c, 0, 47, 64
1, 200717, Control_c, 0, 64, 97
1, 200732, Control_c, 0, 64, 91
1, 200747, Control_c, 0, 64, 85
1, 200757, Note_off_c, 0, 47, 58
1, 200762, Control_c, 0, 64, 79
1, 200776, Control_c, 0, 64, 75
1, 200780, Note_on_c, 0, 45, 69
1, 200791, Control_c, 0, 64, 70
1, 200806, Control_c, 0, 64, 65
1, 200812, Note_on_c, 0, 47, 73
1, 200821, Control_c, 0, 64, 60
1, 200836, Control_c, 0, 64, 54
1, 200851, Note_off_c, 0, 45, 62
1, 200851, Control_c, 0, 64, 49
1, 200866, Control_c, 0, 64, 44
1, 200875, Note_off_c, 0, 47, 64
1, 200881, Note_on_c, 0, 48, 84
1, 200881, Control_c, 0, 64, 37
1, 200896, Control_c, 0, 64, 0
1, 201088, Control_c, 0, 67, 36
1, 201103, Control_c, 0, 67, 44
1, 201118, Control_c, 0, 67, 54
1, 201133, Control_c, 0, 67, 63
1, 201147, Control_c, 0, 67, 70
1, 201149, Note_on_c, 0, 57, 45
1, 201157, Note_on_c, 0, 60, 60
1, 201162, Control_c, 0, 67, 77
1, 201177, Control_c, 0, 67, 86
1, 201189, Note_off_c, 0, 60, 65
1, 201192, Control_c, 0, 67, 96
1, 201206, Control_c, 0, 67, 107
1, 201221, Control_c, 0, 67, 119
1, 201244, Control_c, 0, 67, 127
1, 201412, Note_on_c, 0, 58, 58
1, 201417, Note_on_c, 0, 62, 62
1, 201450, Note_off_c, 0, 62, 64
1, 201525, Note_off_c, 0, 57, 57
1, 201692, Note_on_c, 0, 64, 58
1, 201717, Note_on_c, 0, 55, 45
1, 201721, Note_off_c, 0, 64, 66
1, 201773, Note_off_c, 0, 58, 50
1, 201945, Note_on_c, 0, 65, 58
1, 201955, Note_on_c, 0, 57, 43
1, 201989, Note_off_c, 0, 65, 60
1, 202028, Note_off_c, 0, 55, 41
1, 202214, Note_on_c, 0, 69, 57
1, 202227, Note_on_c, 0, 54, 54
1, 202243, Note_off_c, 0, 69, 65
1, 202365, Note_off_c, 0, 57, 50
1, 202476, Note_on_c, 0, 70, 70
1, 202489, Note_on_c, 0, 55, 62
1, 202514, Note_off_c, 0, 70, 66
1, 202596, Note_off_c, 0, 54, 60
1, 202738, Note_on_c, 0, 73, 65
1, 202741, Control_c, 0, 67, 119
1, 202744, Note_on_c, 0, 57, 66
1, 202756, Control_c, 0, 67, 103
1, 202771, Control_c, 0, 67, 82
1, 202777, Note_off_c, 0, 73, 58
1, 202785, Control_c, 0, 67, 60
1, 202789, Note_off_c, 0, 55, 62
1, 202800, Control_c, 0, 67, 36
1, 202815, Control_c, 0, 67, 0
1, 202997, Note_on_c, 0, 74, 56
1, 203003, Note_on_c, 0, 58, 72
1, 203090, Note_off_c, 0, 57, 57
1, 203130, Note_on_c, 0, 77, 63
1, 203131, Note_off_c, 0, 74, 51
1, 203253, Note_on_c, 0, 76, 64
1, 203297, Note_off_c, 0, 77, 58
1, 203374, Note_on_c, 0, 74, 63
1, 203379, Note_off_c, 0, 76, 56
1, 203505, Note_on_c, 0, 76, 70
1, 203537, Note_off_c, 0, 74, 47
1, 203627, Note_on_c, 0, 77, 77
1, 203673, Note_off_c, 0, 76, 58
1, 203747, Note_off_c, 0, 77, 62
1, 203753, Note_on_c, 0, 74, 75
1, 203869, Note_on_c, 0, 76, 72
1, 203880, Note_off_c, 0, 74, 53
1, 203993, Note_on_c, 0, 77, 70
1, 204004, Note_on_c, 0, 57, 54
1, 204005, Note_off_c, 0, 76, 61
1, 204007, Note_off_c, 0, 58, 62
1, 204020, Note_off_c, 0, 77, 67
1, 204113, Control_c, 0, 67, 37
1, 204128, Control_c, 0, 67, 47
1, 204134, Note_on_c, 0, 55, 62
1, 204139, Note_off_c, 0, 57, 62
1, 204143, Control_c, 0, 67, 56
1, 204157, Control_c, 0, 67, 63
1, 204172, Control_c, 0, 67, 67
1, 204187, Control_c, 0, 67, 70
1, 204202, Control_c, 0, 67, 70
1, 204217, Control_c, 0, 67, 71
1, 204246, Note_off_c, 0, 55, 60
1, 204249, Note_on_c, 0, 53, 64
1, 204269, Note_on_c, 0, 74, 41
1, 204279, Note_on_c, 0, 72, 36
1, 204297, Note_off_c, 0, 74, 47
1, 204311, Note_off_c, 0, 72, 49
1, 204368, Note_off_c, 0, 53, 60
1, 204374, Note_on_c, 0, 52, 64
1, 204461, Control_c, 0, 67, 70
1, 204483, Note_off_c, 0, 52, 59
1, 204498, Note_on_c, 0, 69, 67
1, 204502, Note_on_c, 0, 53, 58
1, 204529, Note_off_c, 0, 69, 63
1, 204601, Note_off_c, 0, 53, 62
1, 204624, Control_c, 0, 67, 71
1, 204626, Note_on_c, 0, 50, 57
1, 204669, Control_c, 0, 67, 72
1, 204684, Control_c, 0, 67, 72
1, 204698, Control_c, 0, 67, 73
1, 204703, Note_off_c, 0, 50, 61
1, 204713, Control_c, 0, 67, 74
1, 204728, Control_c, 0, 67, 75
1, 204734, Note_on_c, 0, 55, 52
1, 204743, Control_c, 0, 67, 75
1, 204747, Note_on_c, 0, 72, 60
1, 204757, Control_c, 0, 67, 77
1, 204772, Control_c, 0, 67, 90
1, 204787, Control_c, 0, 67, 107
1, 204789, Note_off_c, 0, 72, 63
1, 204803, Control_c, 0, 67, 119
1, 204805, Note_on_c, 0, 71, 59
1, 204809, Note_off_c, 0, 55, 52
1, 204818, Control_c, 0, 67, 127
1, 204834, Note_off_c, 0, 71, 66
1, 204850, Note_on_c, 0, 53, 43
1, 204862, Note_on_c, 0, 69, 66
1, 204893, Note_off_c, 0, 69, 61
1, 204906, Note_on_c, 0, 71, 63
1, 204918, Note_off_c, 0, 53, 62
1, 204966, Control_c, 0, 67, 124
1, 204975, Note_off_c, 0, 71, 62
1, 204982, Note_on_c, 0, 72, 72
1, 204985, Note_on_c, 0, 52, 51
1, 204988, Control_c, 0, 67, 120
1, 205003, Control_c, 0, 67, 115
1, 205018, Control_c, 0, 67, 111
1, 205033, Control_c, 0, 67, 107
1, 205048, Control_c, 0, 67, 101
1, 205051, Note_off_c, 0, 52, 64
1, 205062, Control_c, 0, 67, 89
1, 205065, Note_off_c, 0, 48, 63
1, 205077, Control_c, 0, 64, 45
1, 205077, Control_c, 0, 67, 61
1, 205092, Control_c, 0, 64, 61
1, 205092, Control_c, 0, 67, 0
1, 205107, Control_c, 0, 64, 66
1, 205122, Control_c, 0, 64, 70
1, 205136, Control_c, 0, 64, 75
1, 205151, Control_c, 0, 64, 82
1, 205166, Control_c, 0, 64, 93
1, 205172, Note_off_c, 0, 72, 65
1, 205180, Control_c, 0, 64, 116
1, 205195, Control_c, 0, 64, 127
1, 205254, Note_on_c, 0, 36, 70
1, 205316, Note_off_c, 0, 36, 61
1, 205512, Note_on_c, 0, 72, 89
1, 205521, Control_c, 0, 64, 94
1, 205525, Note_on_c, 0, 38, 68
1, 205536, Control_c, 0, 64, 74
1, 205551, Control_c, 0, 64, 59
1, 205566, Control_c, 0, 64, 33
1, 205580, Control_c, 0, 64, 0
1, 205596, Note_off_c, 0, 38, 57
1, 205781, Control_c, 0, 64, 34
1, 205787, Note_on_c, 0, 40, 67
1, 205795, Control_c, 0, 64, 50
1, 205810, Control_c, 0, 64, 63
1, 205819, Note_off_c, 0, 72, 70
1, 205825, Control_c, 0, 64, 68
1, 205840, Control_c, 0, 64, 72
1, 205855, Control_c, 0, 64, 74
1, 205870, Control_c, 0, 64, 76
1, 205884, Control_c, 0, 64, 79
1, 205890, Note_off_c, 0, 40, 38
1, 205899, Control_c, 0, 64, 81
1, 205914, Control_c, 0, 64, 84
1, 205928, Control_c, 0, 64, 86
1, 205943, Control_c, 0, 64, 87
1, 205958, Control_c, 0, 64, 87
1, 206032, Control_c, 0, 64, 85
1, 206047, Control_c, 0, 64, 79
1, 206059, Note_on_c, 0, 41, 64
1, 206059, Note_on_c, 0, 70, 79
1, 206062, Control_c, 0, 64, 69
1, 206076, Control_c, 0, 64, 56
1, 206091, Control_c, 0, 64, 32
1, 206106, Control_c, 0, 64, 0
1, 206161, Note_off_c, 0, 41, 52
1, 206179, Note_on_c, 0, 69, 79
1, 206311, Note_on_c, 0, 67, 78
1, 206312, Note_on_c, 0, 45, 57
1, 206357, Note_off_c, 0, 45, 60
1, 206393, Note_off_c, 0, 70, 38
1, 206399, Note_off_c, 0, 69, 54
1, 206430, Note_on_c, 0, 65, 80
1, 206459, Note_off_c, 0, 67, 62
1, 206562, Note_on_c, 0, 69, 82
1, 206571, Note_on_c, 0, 46, 62
1, 206613, Note_off_c, 0, 65, 60
1, 206639, Note_off_c, 0, 46, 52
1, 206682, Note_on_c, 0, 67, 85
1, 206760, Note_off_c, 0, 69, 54
1, 206808, Note_on_c, 0, 70, 83
1, 206815, Note_on_c, 0, 49, 76
1, 206853, Note_off_c, 0, 49, 60
1, 206856, Note_off_c, 0, 67, 59
1, 206923, Note_on_c, 0, 64, 79
1, 207048, Note_on_c, 0, 65, 82
1, 207056, Note_on_c, 0, 50, 74
1, 207058, Note_off_c, 0, 64, 61
1, 207079, Note_off_c, 0, 70, 30
1, 207084, Note_off_c, 0, 65, 66
1, 207173, Note_on_c, 0, 53, 73
1, 207194, Note_off_c, 0, 50, 55
1, 207313, Note_on_c, 0, 52, 74
1, 207317, Note_on_c, 0, 60, 77
1, 207322, Note_off_c, 0, 53, 60
1, 207340, Note_off_c, 0, 60, 68
1, 207439, Note_on_c, 0, 50, 74
1, 207448, Note_off_c, 0, 52, 58
1, 207563, Note_on_c, 0, 84, 96
1, 207567, Note_on_c, 0, 52, 75
1, 207572, Note_off_c, 0, 50, 63
1, 207662, Note_off_c, 0, 52, 60
1, 207672, Note_on_c, 0, 53, 76
1, 207799, Note_off_c, 0, 53, 55
1, 207805, Note_on_c, 0, 50, 74
1, 207841, Control_c, 0, 64, 41
1, 207856, Control_c, 0, 64, 56
1, 207871, Note_off_c, 0, 84, 67
1, 207871, Control_c, 0, 64, 63
1, 207886, Control_c, 0, 64, 65
1, 207901, Control_c, 0, 64, 66
1, 207916, Control_c, 0, 64, 66
1, 207928, Note_on_c, 0, 52, 82
1, 207941, Note_off_c, 0, 50, 62
1, 208043, Control_c, 0, 64, 65
1, 208058, Control_c, 0, 64, 64
1, 208061, Note_off_c, 0, 52, 61
1, 208067, Note_on_c, 0, 53, 75
1, 208071, Note_on_c, 0, 82, 88
1, 208072, Control_c, 0, 64, 61
1, 208087, Control_c, 0, 64, 56
1, 208102, Control_c, 0, 64, 49
1, 208117, Control_c, 0, 64, 42
1, 208131, Note_off_c, 0, 53, 59
1, 208131, Control_c, 0, 64, 35
1, 208146, Control_c, 0, 64, 0
1, 208193, Note_on_c, 0, 81, 87
1, 208313, Note_on_c, 0, 57, 73
1, 208316, Note_on_c, 0, 79, 83
1, 208375, Note_off_c, 0, 57, 64
1, 208389, Note_off_c, 0, 81, 59
1, 208437, Note_on_c, 0, 77, 86
1, 208493, Note_off_c, 0, 79, 62
1, 208498, Note_off_c, 0, 82, 59
1, 208563, Note_on_c, 0, 81, 89
1, 208566, Note_on_c, 0, 58, 83
1, 208619, Note_off_c, 0, 77, 60
1, 208656, Note_off_c, 0, 58, 57
1, 208678, Note_on_c, 0, 79, 77
1, 208807, Note_on_c, 0, 61, 84
1, 208807, Note_on_c, 0, 82, 84
1, 208864, Note_off_c, 0, 61, 62
1, 208875, Note_off_c, 0, 81, 56
1, 208876, Note_off_c, 0, 79, 62
1, 208925, Note_on_c, 0, 76, 84
1, 209040, Note_on_c, 0, 77, 95
1, 209052, Note_on_c, 0, 62, 81
1, 209056, Note_off_c, 0, 76, 64
1, 209066, Note_off_c, 0, 82, 60
1, 209082, Note_off_c, 0, 77, 68
1, 209162, Note_on_c, 0, 65, 79
1, 209189, Note_off_c, 0, 62, 58
1, 209290, Note_on_c, 0, 64, 85
1, 209295, Note_on_c, 0, 72, 89
1, 209312, Note_off_c, 0, 65, 57
1, 209332, Note_off_c, 0, 72, 67
1, 209415, Note_on_c, 0, 62, 82
1, 209436, Note_off_c, 0, 64, 60
1, 209546, Note_on_c, 0, 64, 87
1, 209553, Note_on_c, 0, 84, 96
1, 209560, Note_off_c, 0, 62, 60
1, 209653, Note_on_c, 0, 65, 79
1, 209657, Note_off_c, 0, 64, 62
1, 209777, Control_c, 0, 64, 37
1, 209779, Note_on_c, 0, 62, 82
1, 209792, Control_c, 0, 64, 53
1, 209807, Control_c, 0, 64, 62
1, 209808, Note_off_c, 0, 65, 54
1, 209822, Control_c, 0, 64, 67
1, 209823, Note_off_c, 0, 84, 67
1, 209837, Control_c, 0, 64, 72
1, 209851, Control_c, 0, 64, 76
1, 209866, Control_c, 0, 64, 81
1, 209881, Control_c, 0, 64, 86
1, 209894, Note_on_c, 0, 64, 87
1, 209896, Control_c, 0, 64, 89
1, 209911, Control_c, 0, 64, 91
1, 209925, Control_c, 0, 64, 92
1, 209933, Note_off_c, 0, 62, 61
1, 209955, Control_c, 0, 64, 91
1, 209970, Control_c, 0, 64, 88
1, 209980, Note_off_c, 0, 64, 64
1, 209984, Control_c, 0, 64, 78
1, 209999, Control_c, 0, 64, 66
1, 210014, Control_c, 0, 64, 47
1, 210029, Note_on_c, 0, 65, 79
1, 210029, Control_c, 0, 64, 0
1, 210030, Note_on_c, 0, 82, 97
1, 210074, Control_c, 0, 64, 34
1, 210088, Control_c, 0, 64, 56
1, 210103, Control_c, 0, 64, 68
1, 210118, Control_c, 0, 64, 80
1, 210133, Control_c, 0, 64, 94
1, 210146, Note_on_c, 0, 81, 96
1, 210148, Control_c, 0, 64, 103
1, 210159, Note_off_c, 0, 65, 56
1, 210162, Control_c, 0, 64, 105
1, 210187, Note_off_c, 0, 82, 61
1, 210207, Control_c, 0, 64, 91
1, 210229, Control_c, 0, 64, 74
1, 210244, Control_c, 0, 64, 58
1, 210259, Control_c, 0, 64, 0
1, 210271, Note_on_c, 0, 62, 81
1, 210279, Note_on_c, 0, 79, 91
1, 210299, Note_off_c, 0, 81, 61
1, 210318, Control_c, 0, 64, 35
1, 210333, Control_c, 0, 64, 54
1, 210344, Note_off_c, 0, 62, 60
1, 210348, Control_c, 0, 64, 66
1, 210354, Note_off_c, 0, 79, 65
1, 210363, Control_c, 0, 64, 77
1, 210377, Control_c, 0, 64, 88
1, 210393, Control_c, 0, 64, 96
1, 210398, Note_on_c, 0, 77, 95
1, 210408, Control_c, 0, 64, 99
1, 210423, Control_c, 0, 64, 101
1, 210467, Control_c, 0, 64, 98
1, 210482, Control_c, 0, 64, 83
1, 210497, Control_c, 0, 64, 62
1, 210512, Control_c, 0, 64, 0
1, 210529, Note_on_c, 0, 89, 101
1, 210536, Note_on_c, 0, 57, 85
1, 210652, Note_off_c, 0, 77, 53
1, 210674, Control_c, 0, 64, 36
1, 210689, Control_c, 0, 64, 54
1, 210704, Control_c, 0, 64, 67
1, 210715, Note_off_c, 0, 57, 59
1, 210718, Control_c, 0, 64, 74
1, 210733, Control_c, 0, 64, 78
1, 210748, Control_c, 0, 64, 79
1, 210763, Control_c, 0, 64, 81
1, 210778, Control_c, 0, 64, 86
1, 210784, Note_on_c, 0, 59, 93
1, 210792, Control_c, 0, 64, 104
1, 210807, Control_c, 0, 64, 127
1, 210820, Note_off_c, 0, 59, 69
1, 211053, Note_on_c, 0, 60, 90
1, 211096, Control_c, 0, 64, 118
1, 211111, Control_c, 0, 64, 78
1, 211126, Control_c, 0, 64, 61
1, 211141, Control_c, 0, 64, 41
1, 211156, Control_c, 0, 64, 0
1, 211180, Note_on_c, 0, 87, 83
1, 211221, Note_off_c, 0, 89, 60
1, 211240, Note_off_c, 0, 87, 63
1, 211302, Note_on_c, 0, 88, 88
1, 211423, Control_c, 0, 64, 32
1, 211424, Note_on_c, 0, 69, 83
1, 211438, Control_c, 0, 64, 41
1, 211453, Control_c, 0, 64, 50
1, 211468, Control_c, 0, 64, 56
1, 211483, Control_c, 0, 64, 60
1, 211497, Control_c, 0, 64, 61
1, 211512, Control_c, 0, 64, 62
1, 211527, Control_c, 0, 64, 62
1, 211541, Control_c, 0, 64, 63
1, 211556, Control_c, 0, 64, 64
1, 211557, Note_on_c, 0, 70, 78
1, 211597, Note_off_c, 0, 88, 62
1, 211615, Note_off_c, 0, 69, 58
1, 211660, Control_c, 0, 64, 63
1, 211673, Note_on_c, 0, 85, 88
1, 211675, Control_c, 0, 64, 62
1, 211690, Control_c, 0, 64, 62
1, 211704, Control_c, 0, 64, 61
1, 211727, Control_c, 0, 64, 58
1, 211741, Control_c, 0, 64, 55
1, 211752, Note_off_c, 0, 85, 64
1, 211756, Control_c, 0, 64, 52
1, 211771, Control_c, 0, 64, 50
1, 211786, Control_c, 0, 64, 47
1, 211801, Note_on_c, 0, 86, 91
1, 211801, Control_c, 0, 64, 42
1, 211815, Control_c, 0, 64, 33
1, 211830, Control_c, 0, 64, 0
1, 211922, Note_on_c, 0, 68, 71
1, 211937, Note_off_c, 0, 70, 58
1, 212056, Note_on_c, 0, 69, 76
1, 212104, Note_off_c, 0, 68, 55
1, 212164, Note_on_c, 0, 83, 79
1, 212302, Note_on_c, 0, 84, 78
1, 212369, Note_off_c, 0, 83, 38
1, 212412, Note_on_c, 0, 66, 71
1, 212419, Note_off_c, 0, 69, 58
1, 212505, Note_off_c, 0, 86, 40
1, 212547, Note_on_c, 0, 67, 75
1, 212581, Note_off_c, 0, 66, 59
1, 212647, Note_off_c, 0, 84, 66
1, 212655, Note_on_c, 0, 81, 81
1, 212787, Note_on_c, 0, 82, 87
1, 212831, Control_c, 0, 64, 42
1, 212846, Control_c, 0, 64, 58
1, 212852, Note_off_c, 0, 82, 64
1, 212860, Control_c, 0, 64, 65
1, 212875, Control_c, 0, 64, 68
1, 212890, Control_c, 0, 64, 71
1, 212905, Control_c, 0, 64, 73
1, 212919, Control_c, 0, 64, 76
1, 212934, Control_c, 0, 64, 79
1, 212938, Note_on_c, 0, 82, 94
1, 212949, Control_c, 0, 64, 83
1, 212954, Note_on_c, 0, 61, 67
1, 212964, Control_c, 0, 64, 89
1, 212979, Control_c, 0, 64, 95
1, 212993, Control_c, 0, 64, 104
1, 212998, Note_off_c, 0, 60, 59
1, 213003, Note_off_c, 0, 82, 62
1, 213008, Control_c, 0, 64, 117
1, 213023, Control_c, 0, 64, 127
1, 213198, Note_on_c, 0, 82, 86
1, 213201, Note_off_c, 0, 61, 59
1, 213221, Note_on_c, 0, 62, 62
1, 213223, Control_c, 0, 64, 104
1, 213238, Control_c, 0, 64, 91
1, 213254, Control_c, 0, 64, 79
1, 213268, Control_c, 0, 64, 64
1, 213269, Note_off_c, 0, 81, 61
1, 213283, Control_c, 0, 64, 45
1, 213298, Control_c, 0, 64, 0
1, 213401, Control_c, 0, 64, 32
1, 213416, Control_c, 0, 64, 47
1, 213431, Control_c, 0, 64, 59
1, 213446, Control_c, 0, 64, 65
1, 213460, Control_c, 0, 64, 70
1, 213475, Control_c, 0, 64, 72
1, 213482, Note_off_c, 0, 82, 56
1, 213490, Control_c, 0, 64, 73
1, 213505, Control_c, 0, 64, 74
1, 213535, Control_c, 0, 64, 75
1, 213538, Note_on_c, 0, 84, 69
1, 213598, Note_on_c, 0, 82, 76
1, 213614, Note_off_c, 0, 84, 64
1, 213644, Note_off_c, 0, 82, 63
1, 213656, Note_on_c, 0, 81, 74
1, 213699, Control_c, 0, 64, 74
1, 213706, Note_on_c, 0, 82, 74
1, 213714, Control_c, 0, 64, 74
1, 213720, Note_off_c, 0, 81, 56
1, 213728, Control_c, 0, 64, 73
1, 213743, Control_c, 0, 64, 71
1, 213758, Control_c, 0, 64, 68
1, 213769, Note_on_c, 0, 84, 83
1, 213773, Control_c, 0, 64, 63
1, 213788, Control_c, 0, 64, 56
1, 213803, Control_c, 0, 64, 48
1, 213809, Note_off_c, 0, 82, 60
1, 213817, Control_c, 0, 64, 38
1, 213832, Control_c, 0, 64, 0
1, 213858, Note_on_c, 0, 86, 84
1, 213895, Note_off_c, 0, 84, 65
1, 214136, Note_on_c, 0, 84, 67
1, 214220, Note_off_c, 0, 86, 62
1, 214256, Note_on_c, 0, 82, 71
1, 214266, Note_off_c, 0, 84, 64
1, 214349, Note_off_c, 0, 82, 62
1, 214372, Control_c, 0, 64, 31
1, 214384, Note_on_c, 0, 81, 68
1, 214388, Control_c, 0, 64, 46
1, 214403, Control_c, 0, 64, 58
1, 214418, Control_c, 0, 64, 63
1, 214432, Control_c, 0, 64, 66
1, 214447, Control_c, 0, 64, 71
1, 214452, Note_off_c, 0, 81, 65
1, 214462, Control_c, 0, 64, 76
1, 214477, Control_c, 0, 64, 83
1, 214492, Control_c, 0, 64, 90
1, 214506, Control_c, 0, 64, 97
1, 214521, Control_c, 0, 64, 109
1, 214536, Control_c, 0, 64, 127
1, 214761, Note_on_c, 0, 87, 76
1, 214914, Control_c, 0, 64, 122
1, 214929, Control_c, 0, 64, 112
1, 214944, Control_c, 0, 64, 106
1, 214958, Control_c, 0, 64, 102
1, 214973, Control_c, 0, 64, 98
1, 214988, Control_c, 0, 64, 95
1, 215003, Control_c, 0, 64, 93
1, 215018, Control_c, 0, 64, 90
1, 215032, Control_c, 0, 64, 86
1, 215047, Control_c, 0, 64, 81
1, 215062, Control_c, 0, 64, 76
1, 215077, Control_c, 0, 64, 71
1, 215088, Note_on_c, 0, 66, 46
1, 215091, Control_c, 0, 64, 65
1, 215106, Control_c, 0, 64, 59
1, 215121, Control_c, 0, 64, 54
1, 215136, Control_c, 0, 64, 50
1, 215151, Control_c, 0, 64, 47
1, 215165, Control_c, 0, 64, 47
1, 215181, Control_c, 0, 64, 46
1, 215196, Control_c, 0, 64, 47
1, 215200, Note_off_c, 0, 67, 38
1, 215226, Control_c, 0, 64, 47
1, 215241, Control_c, 0, 64, 48
1, 215255, Control_c, 0, 64, 49
1, 215270, Control_c, 0, 64, 50
1, 215285, Control_c, 0, 64, 53
1, 215300, Control_c, 0, 64, 56
1, 215314, Control_c, 0, 64, 59
1, 215329, Control_c, 0, 64, 62
1, 215344, Control_c, 0, 64, 64
1, 215359, Control_c, 0, 64, 67
1, 215374, Control_c, 0, 64, 71
1, 215389, Control_c, 0, 64, 75
1, 215404, Control_c, 0, 64, 77
1, 215419, Control_c, 0, 64, 79
1, 215434, Control_c, 0, 64, 81
1, 215448, Control_c, 0, 64, 83
1, 215470, Control_c, 0, 64, 84
1, 215485, Control_c, 0, 64, 86
1, 215500, Control_c, 0, 64, 87
1, 215514, Control_c, 0, 64, 88
1, 215526, Note_on_c, 0, 86, 55
1, 215529, Control_c, 0, 64, 89
1, 215544, Control_c, 0, 64, 90
1, 215559, Control_c, 0, 64, 91
1, 215574, Control_c, 0, 64, 93
1, 215589, Control_c, 0, 64, 95
1, 215603, Control_c, 0, 64, 97
1, 215618, Control_c, 0, 64, 101
1, 215633, Control_c, 0, 64, 105
1, 215648, Control_c, 0, 64, 112
1, 215663, Control_c, 0, 64, 127
1, 215663, Note_on_c, 0, 84, 63
1, 215697, Note_off_c, 0, 87, 58
1, 215711, Note_off_c, 0, 86, 61
1, 215797, Note_off_c, 0, 84, 59
1, 215799, Note_on_c, 0, 82, 56
1, 215804, Note_on_c, 0, 67, 47
1, 215811, Control_c, 0, 64, 116
1, 215826, Control_c, 0, 64, 97
1, 215840, Control_c, 0, 64, 84
1, 215855, Control_c, 0, 64, 71
1, 215867, Note_off_c, 0, 62, 36
1, 215870, Control_c, 0, 64, 58
1, 215881, Note_off_c, 0, 66, 38
1, 215885, Control_c, 0, 64, 39
1, 215900, Control_c, 0, 64, 0
1, 215929, Note_on_c, 0, 87, 65
1, 215959, Control_c, 0, 64, 34
1, 215974, Control_c, 0, 64, 45
1, 215990, Control_c, 0, 64, 56
1, 216004, Control_c, 0, 64, 62
1, 216019, Control_c, 0, 64, 64
1, 216034, Control_c, 0, 64, 66
1, 216049, Control_c, 0, 64, 67
1, 216051, Note_on_c, 0, 86, 69
1, 216064, Control_c, 0, 64, 69
1, 216078, Control_c, 0, 64, 71
1, 216093, Control_c, 0, 64, 73
1, 216097, Note_off_c, 0, 87, 51
1, 216098, Note_off_c, 0, 67, 62
1, 216108, Control_c, 0, 64, 74
1, 216113, Note_off_c, 0, 82, 54
1, 216123, Control_c, 0, 64, 75
1, 216137, Control_c, 0, 64, 76
1, 216152, Control_c, 0, 64, 76
1, 216167, Note_on_c, 0, 85, 75
1, 216167, Control_c, 0, 64, 77
1, 216182, Note_off_c, 0, 86, 60
1, 216304, Note_on_c, 0, 86, 77
1, 216323, Control_c, 0, 64, 76
1, 216331, Note_off_c, 0, 85, 59
1, 216337, Control_c, 0, 64, 76
1, 216352, Control_c, 0, 64, 75
1, 216367, Control_c, 0, 64, 75
1, 216382, Control_c, 0, 64, 74
1, 216397, Control_c, 0, 64, 74
1, 216411, Control_c, 0, 64, 73
1, 216417, Note_on_c, 0, 81, 76
1, 216426, Control_c, 0, 64, 72
1, 216434, Note_off_c, 0, 86, 62
1, 216441, Control_c, 0, 64, 70
1, 216456, Control_c, 0, 64, 67
1, 216471, Control_c, 0, 64, 65
1, 216486, Control_c, 0, 64, 62
1, 216501, Control_c, 0, 64, 59
1, 216516, Control_c, 0, 64, 56
1, 216530, Control_c, 0, 64, 54
1, 216545, Control_c, 0, 64, 53
1, 216550, Note_on_c, 0, 86, 72
1, 216560, Control_c, 0, 64, 51
1, 216570, Note_on_c, 0, 74, 59
1, 216575, Control_c, 0, 64, 49
1, 216587, Note_on_c, 0, 66, 47
1, 216589, Note_off_c, 0, 81, 56
1, 216590, Control_c, 0, 64, 45
1, 216604, Control_c, 0, 64, 41
1, 216619, Control_c, 0, 64, 35
1, 216634, Control_c, 0, 64, 0
1, 216689, Note_on_c, 0, 84, 67
1, 216712, Note_off_c, 0, 86, 60
1, 216752, Control_c, 0, 67, 37
1, 216767, Control_c, 0, 67, 48
1, 216768, Note_off_c, 0, 66, 51
1, 216783, Control_c, 0, 67, 58
1, 216798, Control_c, 0, 67, 66
1, 216802, Note_off_c, 0, 84, 60
1, 216811, Note_on_c, 0, 82, 63
1, 216813, Control_c, 0, 67, 72
1, 216827, Control_c, 0, 67, 74
1, 216829, Note_on_c, 0, 67, 47
1, 216842, Control_c, 0, 67, 75
1, 216901, Control_c, 0, 67, 75
1, 216943, Note_on_c, 0, 86, 74
1, 216983, Control_c, 0, 64, 29
1, 216983, Control_c, 0, 67, 73
1, 216984, Note_off_c, 0, 82, 60
1, 216998, Control_c, 0, 64, 41
1, 216998, Control_c, 0, 67, 71
1, 217013, Control_c, 0, 64, 52
1, 217013, Control_c, 0, 67, 68
1, 217028, Control_c, 0, 64, 61
1, 217028, Control_c, 0, 67, 66
1, 217042, Control_c, 0, 64, 64
1, 217042, Control_c, 0, 67, 63
1, 217057, Control_c, 0, 64, 65
1, 217057, Control_c, 0, 67, 62
1, 217072, Control_c, 0, 64, 66
1, 217072, Control_c, 0, 67, 60
1, 217074, Note_on_c, 0, 84, 78
1, 217086, Control_c, 0, 64, 67
1, 217086, Control_c, 0, 67, 58
1, 217087, Note_off_c, 0, 74, 61
1, 217101, Control_c, 0, 64, 68
1, 217101, Control_c, 0, 67, 58
1, 217131, Control_c, 0, 64, 68
1, 217146, Control_c, 0, 67, 58
1, 217148, Note_off_c, 0, 67, 38
1, 217154, Note_off_c, 0, 86, 52
1, 217160, Control_c, 0, 67, 59
1, 217175, Control_c, 0, 67, 60
1, 217192, Note_on_c, 0, 83, 81
1, 217205, Control_c, 0, 67, 60
1, 217220, Control_c, 0, 64, 68
1, 217220, Control_c, 0, 67, 61
1, 217234, Control_c, 0, 67, 62
1, 217238, Note_off_c, 0, 84, 61
1, 217249, Control_c, 0, 64, 67
1, 217249, Control_c, 0, 67, 62
1, 217264, Control_c, 0, 67, 63
1, 217279, Control_c, 0, 64, 67
1, 217294, Control_c, 0, 64, 66
1, 217309, Control_c, 0, 64, 66
1, 217320, Note_on_c, 0, 84, 87
1, 217323, Control_c, 0, 64, 65
1, 217338, Control_c, 0, 64, 64
1, 217353, Control_c, 0, 64, 62
1, 217358, Note_off_c, 0, 83, 62
1, 217368, Control_c, 0, 64, 58
1, 217383, Control_c, 0, 64, 53
1, 217383, Control_c, 0, 67, 63
1, 217398, Control_c, 0, 64, 46
1, 217398, Control_c, 0, 67, 64
1, 217413, Control_c, 0, 64, 37
1, 217413, Control_c, 0, 67, 65
1, 217427, Control_c, 0, 64, 0
1, 217427, Control_c, 0, 67, 65
1, 217434, Note_on_c, 0, 79, 77
1, 217442, Control_c, 0, 67, 66
1, 217452, Note_off_c, 0, 84, 63
1, 217457, Control_c, 0, 67, 67
1, 217472, Control_c, 0, 67, 68
1, 217486, Control_c, 0, 67, 69
1, 217501, Control_c, 0, 67, 70
1, 217516, Control_c, 0, 67, 71
1, 217531, Control_c, 0, 67, 73
1, 217546, Control_c, 0, 67, 75
1, 217555, Note_on_c, 0, 84, 80
1, 217558, Note_on_c, 0, 72, 70
1, 217560, Control_c, 0, 67, 76
1, 217576, Control_c, 0, 67, 78
1, 217589, Note_on_c, 0, 64, 52
1, 217591, Control_c, 0, 67, 80
1, 217606, Control_c, 0, 67, 91
1, 217611, Note_off_c, 0, 79, 57
1, 217621, Control_c, 0, 67, 112
1, 217636, Control_c, 0, 67, 127
1, 217684, Note_on_c, 0, 82, 74
1, 217695, Control_c, 0, 64, 38
1, 217717, Control_c, 0, 64, 54
1, 217722, Note_off_c, 0, 64, 61
1, 217732, Control_c, 0, 64, 64
1, 217732, Note_off_c, 0, 84, 62
1, 217747, Control_c, 0, 64, 68
1, 217762, Control_c, 0, 64, 69
1, 217771, Note_off_c, 0, 82, 63
1, 217777, Control_c, 0, 64, 70
1, 217791, Control_c, 0, 64, 71
1, 217806, Control_c, 0, 64, 71
1, 217821, Control_c, 0, 64, 72
1, 217824, Note_on_c, 0, 65, 69
1, 217880, Control_c, 0, 64, 71
1, 217895, Control_c, 0, 64, 68
1, 217909, Control_c, 0, 64, 62
1, 217924, Control_c, 0, 64, 51
1, 217939, Control_c, 0, 64, 43
1, 217951, Note_on_c, 0, 80, 73
1, 217954, Control_c, 0, 64, 43
1, 217969, Control_c, 0, 64, 47
1, 217983, Control_c, 0, 64, 54
1, 217998, Control_c, 0, 64, 61
1, 218013, Control_c, 0, 64, 65
1, 218028, Control_c, 0, 64, 69
1, 218034, Note_off_c, 0, 72, 55
1, 218043, Control_c, 0, 64, 72
1, 218057, Control_c, 0, 64, 74
1, 218072, Control_c, 0, 64, 76
1, 218076, Note_on_c, 0, 82, 82
1, 218087, Control_c, 0, 64, 77
1, 218102, Control_c, 0, 64, 79
1, 218113, Note_off_c, 0, 65, 58
1, 218116, Control_c, 0, 64, 81
1, 218128, Note_off_c, 0, 80, 61
1, 218131, Control_c, 0, 64, 85
1, 218146, Control_c, 0, 64, 89
1, 218161, Control_c, 0, 64, 93
1, 218176, Control_c, 0, 64, 96
1, 218191, Control_c, 0, 64, 99
1, 218195, Note_on_c, 0, 81, 78
1, 218221, Control_c, 0, 64, 101
1, 218309, Control_c, 0, 64, 97
1, 218320, Note_on_c, 0, 70, 77
1, 218324, Control_c, 0, 64, 90
1, 218339, Control_c, 0, 64, 79
1, 218343, Note_on_c, 0, 58, 61
1, 218354, Control_c, 0, 64, 65
1, 218369, Control_c, 0, 64, 52
1, 218385, Control_c, 0, 64, 35
1, 218390, Note_off_c, 0, 82, 35
1, 218399, Control_c, 0, 64, 0
1, 218414, Control_c, 0, 64, 30
1, 218429, Control_c, 0, 64, 37
1, 218433, Note_off_c, 0, 81, 53
1, 218444, Control_c, 0, 64, 46
1, 218446, Note_on_c, 0, 74, 72
1, 218466, Control_c, 0, 64, 57
1, 218480, Control_c, 0, 64, 63
1, 218495, Control_c, 0, 64, 67
1, 218495, Control_c, 0, 67, 125
1, 218510, Control_c, 0, 64, 69
1, 218510, Control_c, 0, 67, 118
1, 218525, Control_c, 0, 64, 71
1, 218525, Control_c, 0, 67, 112
1, 218540, Control_c, 0, 64, 72
1, 218540, Control_c, 0, 67, 106
1, 218555, Control_c, 0, 64, 74
1, 218555, Control_c, 0, 67, 99
1, 218569, Control_c, 0, 64, 77
1, 218569, Control_c, 0, 67, 96
1, 218581, Note_on_c, 0, 81, 68
1, 218584, Control_c, 0, 64, 80
1, 218599, Control_c, 0, 64, 84
1, 218599, Control_c, 0, 67, 102
1, 218604, Note_off_c, 0, 58, 61
1, 218614, Control_c, 0, 64, 88
1, 218614, Control_c, 0, 67, 107
1, 218629, Control_c, 0, 64, 91
1, 218629, Control_c, 0, 67, 111
1, 218644, Control_c, 0, 64, 94
1, 218644, Control_c, 0, 67, 115
1, 218658, Control_c, 0, 64, 96
1, 218658, Control_c, 0, 67, 120
1, 218673, Control_c, 0, 67, 124
1, 218681, Note_off_c, 0, 70, 37
1, 218688, Control_c, 0, 67, 127
1, 218714, Note_on_c, 0, 79, 68
1, 218751, Note_off_c, 0, 74, 36
1, 218781, Note_off_c, 0, 81, 51
1, 218806, Control_c, 0, 64, 95
1, 218821, Control_c, 0, 64, 91
1, 218830, Note_on_c, 0, 69, 60
1, 218836, Control_c, 0, 64, 85
1, 218850, Control_c, 0, 64, 77
1, 218854, Note_on_c, 0, 60, 48
1, 218865, Control_c, 0, 64, 65
1, 218880, Control_c, 0, 64, 54
1, 218895, Control_c, 0, 64, 46
1, 218910, Control_c, 0, 64, 42
1, 218939, Control_c, 0, 64, 44
1, 218951, Note_on_c, 0, 72, 59
1, 218954, Control_c, 0, 64, 47
1, 218969, Control_c, 0, 64, 54
1, 218970, Note_off_c, 0, 79, 58
1, 218984, Control_c, 0, 64, 59
1, 218999, Control_c, 0, 64, 62
1, 219014, Control_c, 0, 64, 65
1, 219029, Control_c, 0, 64, 67
1, 219043, Control_c, 0, 64, 69
1, 219058, Control_c, 0, 64, 71
1, 219073, Control_c, 0, 64, 72
1, 219088, Control_c, 0, 64, 73
1, 219093, Note_on_c, 0, 79, 57
1, 219103, Control_c, 0, 64, 73
1, 219132, Control_c, 0, 64, 74
1, 219178, Note_off_c, 0, 72, 36
1, 219233, Note_on_c, 0, 77, 63
1, 219233, Note_off_c, 0, 79, 55
1, 219319, Control_c, 0, 64, 73
1, 219334, Control_c, 0, 64, 71
1, 219349, Note_off_c, 0, 69, 41
1, 219349, Control_c, 0, 64, 67
1, 219352, Note_on_c, 0, 67, 51
1, 219363, Control_c, 0, 64, 62
1, 219378, Control_c, 0, 64, 52
1, 219393, Control_c, 0, 64, 42
1, 219408, Control_c, 0, 64, 37
1, 219423, Control_c, 0, 64, 37
1, 219437, Control_c, 0, 64, 40
1, 219452, Control_c, 0, 64, 45
1, 219467, Control_c, 0, 64, 52
1, 219468, Note_off_c, 0, 77, 34
1, 219481, Note_on_c, 0, 70, 52
1, 219482, Control_c, 0, 64, 59
1, 219497, Control_c, 0, 64, 63
1, 219511, Control_c, 0, 64, 66
1, 219526, Control_c, 0, 64, 67
1, 219541, Control_c, 0, 64, 68
1, 219554, Note_off_c, 0, 67, 53
1, 219556, Control_c, 0, 64, 69
1, 219571, Control_c, 0, 64, 70
1, 219586, Control_c, 0, 64, 72
1, 219601, Control_c, 0, 64, 73
1, 219616, Control_c, 0, 64, 75
1, 219624, Note_on_c, 0, 77, 52
1, 219630, Control_c, 0, 64, 76
1, 219645, Control_c, 0, 64, 77
1, 219660, Control_c, 0, 64, 77
1, 219674, Control_c, 0, 64, 78
1, 219689, Control_c, 0, 64, 79
1, 219713, Note_off_c, 0, 60, 52
1, 219719, Control_c, 0, 64, 79
1, 219734, Control_c, 0, 64, 80
1, 219774, Note_on_c, 0, 76, 50
1, 219804, Note_off_c, 0, 77, 37
1, 219815, Note_off_c, 0, 70, 38
1, 219911, Control_c, 0, 64, 79
1, 219926, Note_on_c, 0, 66, 47
1, 219926, Control_c, 0, 64, 78
1, 219941, Control_c, 0, 64, 74
1, 219952, Note_on_c, 0, 60, 42
1, 219963, Control_c, 0, 64, 69
1, 219979, Control_c, 0, 64, 62
1, 219993, Control_c, 0, 64, 51
1, 220008, Control_c, 0, 64, 43
1, 220023, Control_c, 0, 64, 40
1, 220038, Control_c, 0, 64, 40
1, 220052, Control_c, 0, 64, 42
1, 220067, Control_c, 0, 64, 46
1, 220069, Note_on_c, 0, 69, 43
1, 220069, Note_off_c, 0, 76, 45
1, 220082, Control_c, 0, 64, 52
1, 220097, Control_c, 0, 64, 59
1, 220111, Control_c, 0, 64, 63
1, 220126, Control_c, 0, 64, 65
1, 220141, Control_c, 0, 64, 66
1, 220156, Control_c, 0, 64, 67
1, 220171, Control_c, 0, 64, 69
1, 220173, Note_off_c, 0, 66, 62
1, 220185, Control_c, 0, 64, 70
1, 220200, Control_c, 0, 64, 70
1, 220203, Note_on_c, 0, 77, 49
1, 220245, Control_c, 0, 64, 71
1, 220276, Note_off_c, 0, 69, 30
1, 220334, Control_c, 0, 64, 70
1, 220337, Note_on_c, 0, 75, 54
1, 220351, Note_off_c, 0, 60, 30
1, 220355, Note_off_c, 0, 77, 46
1, 220364, Control_c, 0, 64, 70
1, 220378, Control_c, 0, 64, 69
1, 220393, Control_c, 0, 64, 68
1, 220408, Control_c, 0, 64, 66
1, 220422, Control_c, 0, 64, 63
1, 220437, Control_c, 0, 64, 61
1, 220452, Control_c, 0, 64, 58
1, 220467, Control_c, 0, 64, 56
1, 220468, Note_on_c, 0, 59, 34
1, 220468, Note_on_c, 0, 65, 39
1, 220482, Control_c, 0, 64, 54
1, 220496, Control_c, 0, 64, 50
1, 220511, Control_c, 0, 64, 46
1, 220526, Control_c, 0, 64, 39
1, 220541, Control_c, 0, 64, 33
1, 220556, Control_c, 0, 64, 0
1, 220571, Note_off_c, 0, 75, 63
1, 220592, Note_on_c, 0, 68, 33
1, 220725, Note_on_c, 0, 75, 42
1, 220775, Note_off_c, 0, 65, 44
1, 220801, Control_c, 0, 64, 32
1, 220816, Control_c, 0, 64, 37
1, 220831, Control_c, 0, 64, 41
1, 220846, Control_c, 0, 64, 45
1, 220850, Note_on_c, 0, 74, 50
1, 220860, Control_c, 0, 64, 47
1, 220875, Control_c, 0, 64, 48
1, 220877, Note_off_c, 0, 75, 37
1, 220890, Control_c, 0, 64, 49
1, 220929, Note_off_c, 0, 68, 44
1, 220934, Control_c, 0, 64, 48
1, 220949, Control_c, 0, 64, 48
1, 220964, Control_c, 0, 64, 47
1, 220979, Control_c, 0, 64, 47
1, 220982, Note_on_c, 0, 64, 34
1, 220990, Note_on_c, 0, 58, 41
1, 220994, Control_c, 0, 64, 45
1, 221008, Control_c, 0, 64, 42
1, 221023, Control_c, 0, 64, 39
1, 221038, Control_c, 0, 64, 33
1, 221053, Control_c, 0, 64, 0
1, 221060, Note_off_c, 0, 59, 43
1, 221088, Note_off_c, 0, 74, 36
1, 221099, Note_on_c, 0, 67, 40
1, 221230, Note_on_c, 0, 75, 49
1, 221269, Note_off_c, 0, 67, 35
1, 221380, Note_on_c, 0, 73, 39
1, 221387, Note_off_c, 0, 75, 52
1, 221483, Note_on_c, 0, 63, 36
1, 221503, Note_on_c, 0, 57, 38
1, 221567, Note_off_c, 0, 64, 39
1, 221597, Note_off_c, 0, 58, 40
1, 221619, Note_off_c, 0, 73, 61
1, 221635, Note_on_c, 0, 66, 40
1, 221762, Note_on_c, 0, 73, 43
1, 221885, Note_on_c, 0, 72, 43
1, 221909, Note_off_c, 0, 66, 36
1, 221964, Note_off_c, 0, 73, 37
1, 222001, Note_on_c, 0, 62, 32
1, 222019, Note_off_c, 0, 63, 42
1, 222027, Note_on_c, 0, 58, 35
1, 222060, Note_off_c, 0, 57, 36
1, 222120, Note_off_c, 0, 72, 48
1, 222138, Note_on_c, 0, 67, 47
1, 222269, Note_off_c, 0, 67, 49
1, 222269, Control_c, 0, 64, 31
1, 222270, Note_on_c, 0, 72, 43
1, 222283, Control_c, 0, 64, 44
1, 222298, Control_c, 0, 64, 55
1, 222313, Control_c, 0, 64, 59
1, 222325, Note_off_c, 0, 62, 54
1, 222328, Control_c, 0, 64, 61
1, 222343, Control_c, 0, 64, 63
1, 222348, Note_off_c, 0, 58, 59
1, 222357, Control_c, 0, 64, 64
1, 222373, Control_c, 0, 64, 65
1, 222388, Control_c, 0, 64, 65
1, 222391, Note_on_c, 0, 70, 53
1, 222403, Control_c, 0, 64, 66
1, 222446, Note_off_c, 0, 72, 36
1, 222477, Control_c, 0, 64, 65
1, 222492, Control_c, 0, 64, 64
1, 222506, Control_c, 0, 64, 62
1, 222513, Note_on_c, 0, 58, 45
1, 222521, Control_c, 0, 64, 58
1, 222536, Control_c, 0, 64, 49
1, 222551, Control_c, 0, 64, 43
1, 222563, Note_on_c, 0, 46, 33
1, 222566, Control_c, 0, 64, 39
1, 222580, Control_c, 0, 64, 35
1, 222595, Control_c, 0, 64, 30
1, 222610, Control_c, 0, 64, 0
1, 222624, Note_off_c, 0, 70, 59
1, 222646, Note_on_c, 0, 62, 44
1, 222789, Note_on_c, 0, 69, 46
1, 222862, Control_c, 0, 64, 35
1, 222877, Control_c, 0, 64, 44
1, 222891, Control_c, 0, 64, 51
1, 222897, Note_on_c, 0, 67, 53
1, 222898, Note_off_c, 0, 62, 48
1, 222906, Control_c, 0, 64, 58
1, 222907, Note_off_c, 0, 58, 59
1, 222912, Note_off_c, 0, 46, 62
1, 222921, Control_c, 0, 64, 61
1, 222934, Note_off_c, 0, 69, 45
1, 222936, Control_c, 0, 64, 62
1, 222988, Control_c, 0, 64, 62
1, 223003, Control_c, 0, 64, 60
1, 223018, Control_c, 0, 64, 56
1, 223024, Note_on_c, 0, 57, 48
1, 223032, Control_c, 0, 64, 47
1, 223047, Control_c, 0, 64, 32
1, 223048, Note_on_c, 0, 48, 45
1, 223062, Control_c, 0, 64, 0
1, 223157, Note_on_c, 0, 60, 50
1, 223173, Note_off_c, 0, 67, 55
1, 223270, Note_off_c, 0, 60, 52
1, 223286, Note_on_c, 0, 67, 49
1, 223404, Note_off_c, 0, 67, 58
1, 223413, Note_on_c, 0, 65, 56
1, 223534, Note_on_c, 0, 55, 45
1, 223548, Note_off_c, 0, 57, 60
1, 223664, Note_on_c, 0, 58, 54
1, 223695, Note_off_c, 0, 65, 35
1, 223794, Note_on_c, 0, 65, 61
1, 223797, Control_c, 0, 64, 33
1, 223798, Note_off_c, 0, 58, 59
1, 223811, Control_c, 0, 64, 47
1, 223826, Control_c, 0, 64, 58
1, 223841, Control_c, 0, 64, 62
1, 223855, Control_c, 0, 64, 65
1, 223870, Note_off_c, 0, 65, 54
1, 223870, Control_c, 0, 64, 67
1, 223885, Control_c, 0, 64, 70
1, 223900, Control_c, 0, 64, 72
1, 223905, Note_off_c, 0, 48, 62
1, 223915, Control_c, 0, 64, 74
1, 223918, Note_on_c, 0, 64, 65
1, 223929, Control_c, 0, 64, 76
1, 223944, Control_c, 0, 64, 77
1, 223959, Control_c, 0, 64, 78
1, 223959, Control_c, 0, 67, 112
1, 223975, Control_c, 0, 67, 104
1, 223998, Note_off_c, 0, 64, 61
1, 224005, Control_c, 0, 67, 109
1, 224019, Control_c, 0, 64, 77
1, 224019, Control_c, 0, 67, 111
1, 224022, Note_off_c, 0, 55, 61
1, 224034, Control_c, 0, 64, 76
1, 224038, Note_on_c, 0, 53, 61
1, 224038, Note_on_c, 0, 59, 76
1, 224049, Control_c, 0, 64, 73
1, 224049, Control_c, 0, 67, 114
1, 224054, Note_on_c, 0, 50, 59
1, 224064, Control_c, 0, 64, 67
1, 224064, Control_c, 0, 67, 124
1, 224078, Control_c, 0, 64, 57
1, 224078, Control_c, 0, 67, 127
1, 224093, Control_c, 0, 64, 44
1, 224108, Control_c, 0, 64, 0
1, 224132, Note_on_c, 0, 65, 67
1, 224165, Note_off_c, 0, 65, 60
1, 224208, Note_on_c, 0, 67, 71
1, 224237, Note_off_c, 0, 67, 63
1, 224293, Note_on_c, 0, 69, 71
1, 224320, Note_off_c, 0, 69, 64
1, 224366, Note_on_c, 0, 71, 76
1, 224406, Note_off_c, 0, 71, 62
1, 224449, Note_on_c, 0, 72, 75
1, 224481, Note_off_c, 0, 72, 59
1, 224534, Note_on_c, 0, 74, 75
1, 224558, Note_off_c, 0, 74, 67
1, 224574, Note_off_c, 0, 53, 51
1, 224585, Note_off_c, 0, 59, 55
1, 224599, Note_off_c, 0, 50, 57
1, 224603, Note_on_c, 0, 76, 73
1, 224635, Note_off_c, 0, 76, 60
1, 224678, Note_on_c, 0, 77, 67
1, 224744, Note_on_c, 0, 59, 53
1, 224746, Note_on_c, 0, 53, 49
1, 224747, Note_off_c, 0, 77, 56
1, 224749, Note_on_c, 0, 50, 44
1, 224755, Note_on_c, 0, 79, 65
1, 224773, Note_off_c, 0, 53, 60
1, 224776, Note_off_c, 0, 59, 65
1, 224779, Note_off_c, 0, 50, 58
1, 224837, Note_off_c, 0, 79, 61
1, 224843, Note_on_c, 0, 81, 57
1, 224892, Note_off_c, 0, 81, 59
1, 224927, Note_on_c, 0, 77, 38
1, 224956, Note_off_c, 0, 77, 34
1, 225008, Note_on_c, 0, 60, 39
1, 225009, Note_on_c, 0, 57, 40
1, 225019, Note_on_c, 0, 53, 33
1, 225029, Note_on_c, 0, 48, 40
1, 225094, Note_on_c, 0, 81, 50
1, 225166, Note_on_c, 0, 79, 47
1, 225199, Note_off_c, 0, 81, 49
1, 225246, Note_on_c, 0, 77, 69
1, 225276, Note_off_c, 0, 79, 54
1, 225333, Note_on_c, 0, 76, 66
1, 225349, Note_off_c, 0, 77, 56
1, 225374, Note_off_c, 0, 76, 64
1, 225405, Note_on_c, 0, 74, 65
1, 225465, Note_off_c, 0, 74, 52
1, 225478, Note_on_c, 0, 72, 72
1, 225508, Note_off_c, 0, 57, 65
1, 225508, Note_off_c, 0, 60, 64
1, 225511, Note_off_c, 0, 53, 63
1, 225512, Note_off_c, 0, 48, 64
1, 225554, Note_off_c, 0, 72, 61
1, 225560, Note_on_c, 0, 70, 74
1, 225602, Note_off_c, 0, 70, 62
1, 225640, Note_on_c, 0, 69, 67
1, 225690, Note_off_c, 0, 69, 52
1, 225705, Note_on_c, 0, 57, 57
1, 225707, Note_on_c, 0, 67, 65
1, 225709, Note_on_c, 0, 48, 61
1, 225709, Control_c, 0, 67, 111
1, 225712, Note_on_c, 0, 53, 44
1, 225723, Control_c, 0, 67, 90
1, 225726, Note_off_c, 0, 57, 63
1, 225734, Note_off_c, 0, 48, 56
1, 225738, Control_c, 0, 67, 65
1, 225742, Note_off_c, 0, 53, 35
1, 225753, Control_c, 0, 67, 37
1, 225757, Note_off_c, 0, 67, 57
1, 225768, Control_c, 0, 67, 0
1, 225785, Note_on_c, 0, 69, 69
1, 225816, Note_off_c, 0, 69, 64
1, 225854, Note_on_c, 0, 65, 70
1, 225907, Note_off_c, 0, 65, 54
1, 225925, Note_on_c, 0, 53, 76
1, 225926, Note_on_c, 0, 57, 80
1, 225931, Note_on_c, 0, 50, 72
1, 225932, Note_on_c, 0, 47, 71
1, 226028, Note_on_c, 0, 65, 76
1, 226068, Note_off_c, 0, 65, 60
1, 226099, Note_on_c, 0, 67, 83
1, 226138, Note_off_c, 0, 67, 62
1, 226184, Note_on_c, 0, 69, 84
1, 226229, Note_off_c, 0, 69, 61
1, 226259, Note_on_c, 0, 71, 84
1, 226331, Note_on_c, 0, 72, 88
1, 226338, Note_off_c, 0, 71, 57
1, 226382, Note_off_c, 0, 72, 62
1, 226409, Note_on_c, 0, 74, 95
1, 226459, Note_off_c, 0, 74, 64
1, 226485, Note_on_c, 0, 76, 86
1, 226512, Note_off_c, 0, 53, 58
1, 226517, Note_off_c, 0, 47, 55
1, 226517, Note_off_c, 0, 57, 57
1, 226521, Note_off_c, 0, 50, 57
1, 226557, Note_on_c, 0, 77, 92
1, 226562, Note_off_c, 0, 76, 63
1, 226633, Note_on_c, 0, 79, 80
1, 226646, Note_on_c, 0, 57, 70
1, 226646, Note_off_c, 0, 77, 60
1, 226650, Note_on_c, 0, 47, 65
1, 226654, Note_on_c, 0, 53, 60
1, 226657, Note_on_c, 0, 50, 58
1, 226682, Note_off_c, 0, 53, 66
1, 226682, Note_off_c, 0, 57, 63
1, 226692, Note_off_c, 0, 50, 66
1, 226704, Note_off_c, 0, 47, 61
1, 226710, Note_on_c, 0, 81, 77
1, 226731, Control_c, 0, 67, 48
1, 226738, Note_off_c, 0, 79, 57
1, 226746, Control_c, 0, 67, 78
1, 226761, Control_c, 0, 67, 117
1, 226776, Control_c, 0, 67, 127
1, 226781, Note_off_c, 0, 81, 63
1, 226797, Note_on_c, 0, 77, 73
1, 226820, Note_off_c, 0, 77, 71
1, 226904, Note_on_c, 0, 53, 42
1, 226909, Note_on_c, 0, 57, 44
1, 226919, Note_on_c, 0, 48, 40
1, 226993, Note_on_c, 0, 81, 59
1, 227076, Note_on_c, 0, 79, 62
1, 227145, Note_off_c, 0, 81, 51
1, 227151, Note_on_c, 0, 77, 69
1, 227211, Note_off_c, 0, 79, 58
1, 227219, Note_on_c, 0, 76, 73
1, 227257, Note_off_c, 0, 77, 63
1, 227274, Note_off_c, 0, 76, 63
1, 227293, Note_on_c, 0, 74, 74
1, 227295, Control_c, 0, 64, 35
1, 227309, Control_c, 0, 64, 42
1, 227324, Control_c, 0, 64, 49
1, 227339, Control_c, 0, 64, 55
1, 227354, Control_c, 0, 64, 59
1, 227366, Note_off_c, 0, 74, 62
1, 227367, Note_on_c, 0, 72, 76
1, 227369, Control_c, 0, 64, 61
1, 227384, Control_c, 0, 64, 62
1, 227399, Control_c, 0, 64, 64
1, 227413, Control_c, 0, 64, 65
1, 227428, Control_c, 0, 64, 66
1, 227449, Note_on_c, 0, 70, 79
1, 227450, Control_c, 0, 64, 67
1, 227450, Control_c, 0, 67, 103
1, 227459, Note_off_c, 0, 72, 61
1, 227465, Control_c, 0, 64, 68
1, 227465, Control_c, 0, 67, 75
1, 227470, Note_off_c, 0, 53, 62
1, 227476, Note_off_c, 0, 48, 62
1, 227476, Note_off_c, 0, 57, 63
1, 227480, Control_c, 0, 64, 69
1, 227480, Control_c, 0, 67, 43
1, 227494, Control_c, 0, 67, 0
1, 227503, Note_off_c, 0, 70, 63
1, 227518, Note_on_c, 0, 69, 78
1, 227554, Control_c, 0, 64, 69
1, 227593, Note_on_c, 0, 57, 81
1, 227594, Note_on_c, 0, 48, 83
1, 227594, Note_on_c, 0, 67, 80
1, 227596, Note_off_c, 0, 69, 58
1, 227599, Control_c, 0, 64, 69
1, 227604, Note_on_c, 0, 53, 68
1, 227614, Control_c, 0, 64, 71
1, 227628, Control_c, 0, 64, 74
1, 227640, Note_off_c, 0, 53, 62
1, 227643, Control_c, 0, 64, 79
1, 227658, Control_c, 0, 64, 85
1, 227658, Note_off_c, 0, 48, 61
1, 227665, Note_on_c, 0, 69, 84
1, 227665, Note_off_c, 0, 67, 56
1, 227671, Note_off_c, 0, 57, 59
1, 227673, Control_c, 0, 64, 92
1, 227687, Control_c, 0, 64, 104
1, 227702, Control_c, 0, 64, 127
1, 227735, Note_off_c, 0, 69, 64
1, 227757, Note_on_c, 0, 65, 87
1, 227832, Note_off_c, 0, 65, 55
1, 227897, Note_on_c, 0, 59, 102
1, 227898, Note_on_c, 0, 56, 89
1, 227908, Note_on_c, 0, 53, 77
1, 227909, Note_on_c, 0, 49, 86
1, 227939, Control_c, 0, 64, 82
1, 227954, Control_c, 0, 64, 59
1, 227970, Control_c, 0, 64, 0
1, 228007, Note_on_c, 0, 65, 84
1, 228060, Note_off_c, 0, 65, 55
1, 228080, Note_on_c, 0, 67, 86
1, 228128, Note_off_c, 0, 67, 62
1, 228162, Note_on_c, 0, 68, 87
1, 228218, Note_off_c, 0, 68, 67
1, 228245, Note_on_c, 0, 71, 86
1, 228311, Note_on_c, 0, 72, 89
1, 228323, Note_off_c, 0, 71, 56
1, 228332, Control_c, 0, 64, 37
1, 228347, Control_c, 0, 64, 52
1, 228362, Control_c, 0, 64, 63
1, 228377, Control_c, 0, 64, 69
1, 228386, Note_on_c, 0, 73, 92
1, 228386, Note_off_c, 0, 72, 61
1, 228392, Control_c, 0, 64, 76
1, 228406, Control_c, 0, 64, 82
1, 228421, Control_c, 0, 64, 88
1, 228436, Control_c, 0, 64, 94
1, 228444, Note_off_c, 0, 73, 65
1, 228451, Control_c, 0, 64, 99
1, 228463, Note_on_c, 0, 76, 88
1, 228466, Control_c, 0, 64, 103
1, 228481, Note_off_c, 0, 56, 56
1, 228481, Control_c, 0, 64, 105
1, 228483, Note_off_c, 0, 59, 50
1, 228496, Note_off_c, 0, 49, 50
1, 228505, Note_off_c, 0, 53, 27
1, 228532, Note_on_c, 0, 77, 98
1, 228545, Note_off_c, 0, 76, 62
1, 228555, Control_c, 0, 64, 101
1, 228569, Control_c, 0, 64, 86
1, 228584, Control_c, 0, 64, 70
1, 228599, Control_c, 0, 64, 54
1, 228606, Note_on_c, 0, 79, 87
1, 228609, Note_on_c, 0, 59, 83
1, 228614, Note_on_c, 0, 49, 75
1, 228614, Control_c, 0, 64, 0
1, 228615, Note_on_c, 0, 53, 66
1, 228615, Note_on_c, 0, 56, 65
1, 228639, Note_off_c, 0, 77, 59
1, 228645, Note_off_c, 0, 56, 65
1, 228658, Control_c, 0, 64, 39
1, 228666, Note_off_c, 0, 53, 62
1, 228673, Control_c, 0, 64, 57
1, 228675, Note_on_c, 0, 80, 95
1, 228675, Note_off_c, 0, 59, 61
1, 228688, Control_c, 0, 64, 69
1, 228695, Note_off_c, 0, 49, 61
1, 228703, Control_c, 0, 64, 84
1, 228706, Note_off_c, 0, 79, 65
1, 228717, Control_c, 0, 64, 118
1, 228732, Control_c, 0, 64, 127
1, 228750, Note_on_c, 0, 77, 94
1, 228764, Note_off_c, 0, 80, 64
1, 228794, Note_off_c, 0, 77, 67
1, 228818, Poly_aftertouch_c, 0, 81, 0
1, 228886, Note_on_c, 0, 53, 59
1, 228895, Note_on_c, 0, 57, 62
1, 228896, Control_c, 0, 64, 122
1, 228898, Note_on_c, 0, 81, 85
1, 228899, Note_on_c, 0, 60, 69
1, 228911, Control_c, 0, 64, 83
1, 228913, Note_on_c, 0, 48, 61
1, 228926, Control_c, 0, 64, 64
1, 228948, Control_c, 0, 64, 38
1, 228963, Control_c, 0, 64, 0
1, 228974, Note_on_c, 0, 79, 75
1, 229038, Note_on_c, 0, 77, 86
1, 229067, Control_c, 0, 64, 42
1, 229070, Note_off_c, 0, 81, 57
1, 229082, Note_off_c, 0, 79, 64
1, 229082, Control_c, 0, 64, 59
1, 229083, Note_on_c, 0, 76, 76
1, 229097, Control_c, 0, 64, 69
1, 229112, Control_c, 0, 64, 80
1, 229127, Control_c, 0, 64, 92
1, 229128, Note_off_c, 0, 77, 62
1, 229135, Note_on_c, 0, 74, 84
1, 229141, Control_c, 0, 64, 104
1, 229142, Note_off_c, 0, 76, 67
1, 229156, Control_c, 0, 64, 124
1, 229171, Control_c, 0, 64, 127
1, 229174, Note_off_c, 0, 74, 62
1, 229181, Note_off_c, 0, 48, 60
1, 229182, Note_off_c, 0, 57, 61
1, 229189, Note_off_c, 0, 53, 60
1, 229199, Note_on_c, 0, 72, 78
1, 229220, Note_off_c, 0, 60, 60
1, 229255, Note_on_c, 0, 70, 87
1, 229262, Note_off_c, 0, 72, 63
1, 229298, Note_off_c, 0, 70, 64
1, 229304, Note_on_c, 0, 69, 83
1, 229334, Control_c, 0, 64, 111
1, 229348, Control_c, 0, 64, 91
1, 229359, Note_off_c, 0, 69, 61
1, 229363, Control_c, 0, 64, 74
1, 229378, Note_on_c, 0, 77, 80
1, 229378, Control_c, 0, 64, 56
1, 229393, Control_c, 0, 64, 30
1, 229408, Control_c, 0, 64, 0
1, 229439, Note_on_c, 0, 76, 82
1, 229453, Control_c, 0, 64, 30
1, 229467, Control_c, 0, 64, 47
1, 229482, Control_c, 0, 64, 63
1, 229483, Note_on_c, 0, 74, 88
1, 229486, Note_off_c, 0, 77, 65
1, 229497, Control_c, 0, 64, 71
1, 229509, Note_off_c, 0, 76, 65
1, 229512, Control_c, 0, 64, 77
1, 229527, Control_c, 0, 64, 82
1, 229530, Note_off_c, 0, 74, 66
1, 229540, Note_on_c, 0, 72, 74
1, 229541, Control_c, 0, 64, 86
1, 229557, Control_c, 0, 64, 91
1, 229563, Note_off_c, 0, 72, 69
1, 229572, Control_c, 0, 64, 98
1, 229587, Control_c, 0, 64, 105
1, 229591, Note_on_c, 0, 70, 87
1, 229602, Control_c, 0, 64, 113
1, 229616, Control_c, 0, 64, 127
1, 229620, Note_on_c, 0, 71, 31
1, 229644, Note_on_c, 0, 69, 86
1, 229659, Note_off_c, 0, 71, 44
1, 229691, Note_off_c, 0, 70, 65
1, 229707, Note_on_c, 0, 67, 93
1, 229733, Note_off_c, 0, 69, 63
1, 229764, Note_on_c, 0, 65, 85
1, 229770, Note_off_c, 0, 67, 61
1, 229834, Note_off_c, 0, 65, 54
1, 229856, Note_on_c, 0, 53, 94
1, 229858, Note_on_c, 0, 69, 86
1, 229863, Note_on_c, 0, 48, 86
1, 229873, Note_off_c, 0, 69, 76
1, 229905, Control_c, 0, 64, 85
1, 229920, Control_c, 0, 64, 62
1, 229935, Control_c, 0, 64, 0
1, 229945, Note_on_c, 0, 67, 67
1, 230023, Control_c, 0, 64, 38
1, 230038, Control_c, 0, 64, 56
1, 230053, Control_c, 0, 64, 67
1, 230068, Control_c, 0, 64, 78
1, 230077, Note_off_c, 0, 67, 60
1, 230082, Control_c, 0, 64, 94
1, 230097, Control_c, 0, 64, 113
1, 230112, Control_c, 0, 64, 127
1, 230123, Note_on_c, 0, 69, 75
1, 230156, Note_off_c, 0, 69, 60
1, 230189, Note_on_c, 0, 67, 56
1, 230210, Note_off_c, 0, 67, 63
1, 230220, Note_on_c, 0, 69, 66
1, 230243, Note_off_c, 0, 69, 68
1, 230303, Note_on_c, 0, 67, 10
1, 230310, Note_on_c, 0, 69, 54
1, 230332, Note_off_c, 0, 69, 60
1, 230383, Note_off_c, 0, 67, 60
1, 230387, Note_on_c, 0, 69, 66
1, 230413, Note_off_c, 0, 53, 59
1, 230414, Note_off_c, 0, 69, 68
1, 230427, Note_on_c, 0, 52, 68
1, 230428, Note_on_c, 0, 67, 39
1, 230470, Note_off_c, 0, 67, 54
1, 230484, Note_on_c, 0, 69, 69
1, 230490, Control_c, 0, 64, 86
1, 230505, Note_off_c, 0, 69, 69
1, 230505, Control_c, 0, 64, 63
1, 230515, Note_on_c, 0, 67, 62
1, 230520, Control_c, 0, 64, 46
1, 230535, Control_c, 0, 64, 33
1, 230547, Note_off_c, 0, 67, 63
1, 230550, Control_c, 0, 64, 31
1, 230576, Note_on_c, 0, 69, 57
1, 230580, Control_c, 0, 64, 37
1, 230594, Control_c, 0, 64, 51
1, 230596, Note_off_c, 0, 69, 62
1, 230602, Note_on_c, 0, 67, 75
1, 230609, Control_c, 0, 64, 68
1, 230624, Control_c, 0, 64, 83
1, 230638, Control_c, 0, 64, 127
1, 230639, Note_off_c, 0, 67, 54
1, 230657, Note_on_c, 0, 69, 76
1, 230705, Note_off_c, 0, 52, 62
1, 230711, Note_on_c, 0, 67, 76
1, 230714, Note_off_c, 0, 69, 65
1, 230719, Note_off_c, 0, 48, 64
1, 230749, Note_off_c, 0, 67, 63
1, 230774, Note_on_c, 0, 65, 74
1, 230809, Note_off_c, 0, 65, 63
1, 230866, Note_on_c, 0, 67, 71
1, 230925, Note_off_c, 0, 67, 56
1, 230977, Note_on_c, 0, 41, 74
1, 230985, Note_on_c, 0, 53, 84
1, 230994, Control_c, 0, 64, 83
1, 231009, Control_c, 0, 64, 59
1, 231024, Control_c, 0, 64, 35
1, 231038, Control_c, 0, 64, 0
1, 231052, Note_off_c, 0, 53, 59
1, 231068, Control_c, 0, 64, 30
1, 231080, Note_on_c, 0, 57, 70
1, 231083, Control_c, 0, 64, 44
1, 231098, Control_c, 0, 64, 57
1, 231112, Control_c, 0, 64, 68
1, 231127, Control_c, 0, 64, 78
1, 231131, Note_off_c, 0, 57, 63
1, 231142, Control_c, 0, 64, 88
1, 231158, Control_c, 0, 64, 94
1, 231163, Note_on_c, 0, 60, 73
1, 231173, Control_c, 0, 64, 97
1, 231194, Note_off_c, 0, 60, 69
1, 231194, Control_c, 0, 64, 100
1, 231209, Control_c, 0, 64, 104
1, 231224, Control_c, 0, 64, 110
1, 231239, Control_c, 0, 64, 116
1, 231247, Note_on_c, 0, 65, 81
1, 231254, Control_c, 0, 64, 127
1, 231323, Note_off_c, 0, 65, 59
1, 231325, Note_on_c, 0, 69, 74
1, 231387, Note_off_c, 0, 69, 61
1, 231397, Note_on_c, 0, 72, 70
1, 231436, Note_off_c, 0, 72, 50
1, 231461, Control_c, 0, 64, 113
1, 231474, Note_on_c, 0, 77, 86
1, 231476, Control_c, 0, 64, 91
1, 231491, Control_c, 0, 64, 73
1, 231506, Control_c, 0, 64, 56
1, 231521, Control_c, 0, 64, 0
1, 231552, Note_on_c, 0, 72, 68
1, 231579, Control_c, 0, 64, 30
1, 231594, Control_c, 0, 64, 46
1, 231597, Note_off_c, 0, 77, 61
1, 231609, Control_c, 0, 64, 59
1, 231624, Control_c, 0, 64, 66
1, 231634, Note_off_c, 0, 72, 64
1, 231638, Note_on_c, 0, 69, 73
1, 231639, Control_c, 0, 64, 68
1, 231653, Control_c, 0, 64, 69
1, 231668, Control_c, 0, 64, 68
1, 231683, Control_c, 0, 64, 66
1, 231698, Control_c, 0, 64, 62
1, 231713, Control_c, 0, 64, 59
1, 231720, Note_on_c, 0, 76, 85
1, 231727, Control_c, 0, 64, 58
1, 231742, Control_c, 0, 64, 60
1, 231751, Note_off_c, 0, 69, 50
1, 231757, Control_c, 0, 64, 64
1, 231772, Control_c, 0, 64, 68
1, 231787, Control_c, 0, 64, 73
1, 231802, Control_c, 0, 64, 77
1, 231803, Note_on_c, 0, 70, 70
1, 231817, Control_c, 0, 64, 79
1, 231832, Control_c, 0, 64, 82
1, 231844, Note_off_c, 0, 76, 61
1, 231846, Control_c, 0, 64, 83
1, 231867, Note_off_c, 0, 70, 63
1, 231877, Note_on_c, 0, 67, 66
1, 231890, Note_off_c, 0, 41, 56
1, 231921, Control_c, 0, 64, 83
1, 231942, Control_c, 0, 64, 80
1, 231958, Control_c, 0, 64, 74
1, 231958, Control_c, 0, 67, 49
1, 231967, Note_on_c, 0, 74, 81
1, 231973, Control_c, 0, 64, 66
1, 231973, Control_c, 0, 67, 75
1, 231988, Control_c, 0, 64, 56
1, 231988, Control_c, 0, 67, 99
1, 231999, Note_off_c, 0, 67, 43
1, 232003, Control_c, 0, 64, 47
1, 232003, Control_c, 0, 67, 119
1, 232017, Control_c, 0, 64, 40
1, 232017, Control_c, 0, 67, 127
1, 232032, Control_c, 0, 64, 36
1, 232047, Control_c, 0, 64, 35
1, 232051, Note_on_c, 0, 69, 66
1, 232077, Control_c, 0, 64, 35
1, 232086, Note_off_c, 0, 74, 62
1, 232127, Note_off_c, 0, 69, 61
1, 232128, Note_on_c, 0, 65, 63
1, 232151, Control_c, 0, 64, 35
1, 232204, Note_on_c, 0, 72, 73
1, 232226, Note_off_c, 0, 65, 53
1, 232287, Note_on_c, 0, 67, 65
1, 232329, Control_c, 0, 64, 35
1, 232338, Note_off_c, 0, 67, 61
1, 232353, Note_off_c, 0, 72, 56
1, 232362, Note_on_c, 0, 64, 64
1, 232388, Control_c, 0, 67, 124
1, 232402, Control_c, 0, 67, 120
1, 232417, Control_c, 0, 67, 112
1, 232428, Note_off_c, 0, 64, 54
1, 232432, Control_c, 0, 64, 34
1, 232432, Control_c, 0, 67, 101
1, 232434, Note_on_c, 0, 70, 74
1, 232447, Control_c, 0, 67, 85
1, 232462, Control_c, 0, 64, 34
1, 232462, Control_c, 0, 67, 63
1, 232476, Control_c, 0, 67, 42
1, 232491, Control_c, 0, 67, 0
1, 232517, Note_on_c, 0, 65, 73
1, 232523, Note_off_c, 0, 70, 63
1, 232572, Note_off_c, 0, 65, 62
1, 232591, Note_on_c, 0, 62, 73
1, 232675, Note_off_c, 0, 62, 58
1, 232683, Note_on_c, 0, 69, 76
1, 232745, Note_off_c, 0, 69, 61
1, 232758, Note_on_c, 0, 64, 73
1, 232832, Note_off_c, 0, 64, 64
1, 232839, Note_on_c, 0, 60, 70
1, 232841, Control_c, 0, 64, 34
1, 232866, Note_off_c, 0, 60, 68
1, 232911, Note_on_c, 0, 57, 72
1, 232983, Note_off_c, 0, 57, 62
1, 232990, Note_on_c, 0, 63, 74
1, 233062, Note_off_c, 0, 63, 60
1, 233068, Note_on_c, 0, 66, 70
1, 233134, Note_on_c, 0, 46, 83
1, 233138, Note_on_c, 0, 58, 74
1, 233164, Note_off_c, 0, 46, 67
1, 233193, Note_off_c, 0, 66, 58
1, 233227, Note_off_c, 0, 58, 62
1, 233228, Note_on_c, 0, 62, 66
1, 233300, Control_c, 0, 64, 35
1, 233303, Note_off_c, 0, 62, 62
1, 233309, Note_on_c, 0, 67, 64
1, 233330, Control_c, 0, 64, 35
1, 233359, Control_c, 0, 64, 36
1, 233372, Note_on_c, 0, 48, 84
1, 233374, Control_c, 0, 64, 36
1, 233385, Note_on_c, 0, 57, 68
1, 233387, Note_off_c, 0, 67, 60
1, 233389, Control_c, 0, 64, 37
1, 233402, Note_off_c, 0, 48, 65
1, 233404, Control_c, 0, 64, 38
1, 233419, Control_c, 0, 64, 39
1, 233441, Control_c, 0, 64, 40
1, 233468, Note_on_c, 0, 60, 62
1, 233471, Note_off_c, 0, 57, 55
1, 233471, Control_c, 0, 64, 40
1, 233530, Control_c, 0, 64, 40
1, 233538, Note_off_c, 0, 60, 61
1, 233545, Control_c, 0, 64, 38
1, 233560, Control_c, 0, 64, 35
1, 233561, Note_on_c, 0, 65, 48
1, 233575, Control_c, 0, 64, 0
1, 233619, Note_on_c, 0, 36, 66
1, 233626, Note_on_c, 0, 55, 58
1, 233648, Note_off_c, 0, 36, 64
1, 233650, Control_c, 0, 64, 31
1, 233664, Control_c, 0, 64, 46
1, 233672, Note_off_c, 0, 55, 58
1, 233679, Control_c, 0, 64, 56
1, 233694, Control_c, 0, 64, 62
1, 233701, Note_off_c, 0, 65, 60
1, 233701, Note_on_c, 0, 58, 61
1, 233709, Control_c, 0, 64, 64
1, 233724, Control_c, 0, 64, 65
1, 233727, Note_off_c, 0, 58, 66
1, 233738, Control_c, 0, 64, 66
1, 233768, Control_c, 0, 64, 67
1, 233768, Control_c, 0, 67, 46
1, 233782, Control_c, 0, 67, 70
1, 233783, Note_on_c, 0, 64, 57
1, 233797, Control_c, 0, 67, 101
1, 233804, Note_off_c, 0, 64, 62
1, 233812, Control_c, 0, 67, 127
1, 233842, Control_c, 0, 64, 66
1, 233855, Note_on_c, 0, 65, 53
1, 233856, Control_c, 0, 64, 65
1, 233860, Note_on_c, 0, 41, 30
1, 233864, Note_on_c, 0, 53, 31
1, 233871, Control_c, 0, 64, 60
1, 233886, Control_c, 0, 64, 51
1, 233901, Control_c, 0, 64, 35
1, 233908, Note_off_c, 0, 65, 57
1, 233916, Control_c, 0, 64, 0
1, 233943, Note_on_c, 0, 69, 64
1, 233969, Note_off_c, 0, 69, 67
1, 233990, Control_c, 0, 64, 31
1, 234005, Control_c, 0, 64, 41
1, 234019, Note_on_c, 0, 72, 64
1, 234019, Control_c, 0, 64, 48
1, 234034, Control_c, 0, 64, 52
1, 234045, Note_off_c, 0, 72, 65
1, 234049, Control_c, 0, 64, 55
1, 234064, Control_c, 0, 64, 58
1, 234079, Control_c, 0, 64, 59
1, 234100, Note_on_c, 0, 77, 69
1, 234150, Note_off_c, 0, 77, 54
1, 234153, Control_c, 0, 64, 58
1, 234189, Note_on_c, 0, 81, 52
1, 234189, Control_c, 0, 64, 58
1, 234219, Control_c, 0, 64, 57
1, 234225, Note_off_c, 0, 81, 58
1, 234234, Control_c, 0, 64, 57
1, 234249, Control_c, 0, 64, 56
1, 234254, Note_on_c, 0, 84, 58
1, 234264, Control_c, 0, 64, 56
1, 234279, Control_c, 0, 64, 55
1, 234294, Control_c, 0, 64, 54
1, 234305, Note_off_c, 0, 84, 47
1, 234309, Control_c, 0, 64, 53
1, 234324, Control_c, 0, 64, 52
1, 234338, Control_c, 0, 64, 51
1, 234341, Note_on_c, 0, 89, 40
1, 234353, Control_c, 0, 64, 51
1, 234365, Note_on_c, 0, 88, 38
1, 234383, Control_c, 0, 64, 50
1, 234402, Note_off_c, 0, 88, 50
1, 234407, Note_on_c, 0, 84, 63
1, 234431, Note_off_c, 0, 89, 40
1, 234443, Control_c, 0, 64, 51
1, 234469, Note_off_c, 0, 84, 62
1, 234487, Note_on_c, 0, 81, 62
1, 234502, Control_c, 0, 64, 51
1, 234547, Control_c, 0, 64, 52
1, 234565, Note_off_c, 0, 81, 57
1, 234579, Note_on_c, 0, 88, 48
1, 234591, Control_c, 0, 64, 52
1, 234637, Note_on_c, 0, 82, 58
1, 234666, Note_off_c, 0, 88, 58
1, 234696, Note_off_c, 0, 82, 60
1, 234729, Note_on_c, 0, 79, 52
1, 234753, Control_c, 0, 64, 52
1, 234768, Control_c, 0, 64, 51
1, 234777, Note_off_c, 0, 79, 54
1, 234783, Control_c, 0, 64, 50
1, 234790, Note_off_c, 0, 53, 40
1, 234795, Note_on_c, 0, 86, 60
1, 234798, Control_c, 0, 64, 48
1, 234801, Note_off_c, 0, 41, 60
1, 234812, Control_c, 0, 64, 46
1, 234827, Control_c, 0, 64, 45
1, 234842, Control_c, 0, 64, 43
1, 234857, Control_c, 0, 64, 42
1, 234872, Control_c, 0, 64, 40
1, 234884, Note_on_c, 0, 81, 51
1, 234887, Control_c, 0, 64, 40
1, 234896, Note_off_c, 0, 86, 57
1, 234917, Control_c, 0, 64, 39
1, 234931, Note_off_c, 0, 81, 63
1, 234954, Note_on_c, 0, 77, 57
1, 235026, Note_off_c, 0, 77, 48
1, 235027, Note_on_c, 0, 84, 66
1, 235112, Note_on_c, 0, 79, 58
1, 235147, Note_off_c, 0, 79, 60
1, 235171, Note_off_c, 0, 84, 52
1, 235187, Note_on_c, 0, 76, 55
1, 235237, Note_off_c, 0, 76, 54
1, 235254, Note_on_c, 0, 82, 61
1, 235309, Control_c, 0, 64, 39
1, 235328, Note_off_c, 0, 82, 61
1, 235338, Note_on_c, 0, 77, 67
1, 235339, Control_c, 0, 64, 38
1, 235353, Control_c, 0, 64, 37
1, 235368, Control_c, 0, 64, 36
1, 235379, Note_off_c, 0, 77, 61
1, 235383, Control_c, 0, 64, 35
1, 235413, Control_c, 0, 64, 34
1, 235414, Note_on_c, 0, 74, 65
1, 235427, Control_c, 0, 64, 34
1, 235442, Control_c, 0, 64, 33
1, 235457, Control_c, 0, 64, 33
1, 235472, Control_c, 0, 64, 32
1, 235487, Control_c, 0, 64, 32
1, 235489, Note_off_c, 0, 74, 57
1, 235495, Note_on_c, 0, 81, 60
1, 235516, Control_c, 0, 64, 0
1, 235540, Note_off_c, 0, 81, 64
1, 235558, Note_on_c, 0, 76, 68
1, 235629, Note_off_c, 0, 76, 62
1, 235650, Note_on_c, 0, 72, 65
1, 235683, Note_off_c, 0, 72, 68
1, 235728, Note_on_c, 0, 69, 71
1, 235782, Note_off_c, 0, 69, 56
1, 235814, Note_on_c, 0, 75, 53
1, 235842, Note_off_c, 0, 75, 66
1, 235885, Note_on_c, 0, 78, 58
1, 235954, Note_on_c, 0, 58, 68
1, 235954, Note_on_c, 0, 70, 67
1, 235982, Note_off_c, 0, 58, 65
1, 236017, Note_off_c, 0, 78, 55
1, 236044, Note_on_c, 0, 74, 63
1, 236050, Note_off_c, 0, 70, 61
1, 236116, Note_off_c, 0, 74, 60
1, 236131, Note_on_c, 0, 79, 62
1, 236200, Note_on_c, 0, 60, 70
1, 236207, Note_on_c, 0, 69, 64
1, 236207, Note_off_c, 0, 79, 54
1, 236225, Note_off_c, 0, 60, 69
1, 236286, Note_on_c, 0, 72, 62
1, 236290, Note_off_c, 0, 69, 55
1, 236347, Note_off_c, 0, 72, 56
1, 236369, Note_on_c, 0, 77, 52
1, 236455, Note_on_c, 0, 48, 56
1, 236455, Note_on_c, 0, 67, 60
1, 236485, Note_off_c, 0, 48, 55
1, 236526, Note_off_c, 0, 67, 49
1, 236535, Note_on_c, 0, 70, 60
1, 236547, Note_off_c, 0, 77, 51
1, 236591, Note_off_c, 0, 70, 51
1, 236626, Note_on_c, 0, 76, 61
1, 236693, Note_off_c, 0, 76, 58
1, 236699, Note_on_c, 0, 53, 60
1, 236709, Note_on_c, 0, 69, 64
1, 236789, Note_off_c, 0, 69, 59
1, 236809, Note_on_c, 0, 72, 54
1, 236874, Note_off_c, 0, 72, 59
1, 236875, Note_on_c, 0, 77, 59
1, 236965, Note_on_c, 0, 68, 57
1, 237033, Note_off_c, 0, 77, 57
1, 237048, Note_on_c, 0, 71, 58
1, 237054, Note_off_c, 0, 68, 59
1, 237122, Note_off_c, 0, 71, 59
1, 237135, Note_on_c, 0, 77, 63
1, 237211, Note_on_c, 0, 69, 62
1, 237231, Note_off_c, 0, 77, 54
1, 237284, Note_off_c, 0, 69, 58
1, 237299, Note_on_c, 0, 72, 61
1, 237371, Note_on_c, 0, 77, 52
1, 237375, Note_off_c, 0, 72, 55
1, 237449, Note_on_c, 0, 68, 58
1, 237482, Note_off_c, 0, 77, 58
1, 237526, Note_on_c, 0, 71, 60
1, 237526, Note_off_c, 0, 68, 59
1, 237603, Note_on_c, 0, 77, 62
1, 237606, Note_off_c, 0, 71, 51
1, 237680, Note_on_c, 0, 69, 65
1, 237688, Note_off_c, 0, 77, 58
1, 237715, Note_off_c, 0, 53, 64
1, 237755, Note_on_c, 0, 72, 66
1, 237763, Note_off_c, 0, 69, 51
1, 237805, Note_off_c, 0, 72, 62
1, 237835, Note_on_c, 0, 77, 55
1, 237910, Note_on_c, 0, 74, 72
1, 237914, Note_off_c, 0, 77, 56
1, 237931, Note_on_c, 0, 58, 63
1, 237951, Note_off_c, 0, 58, 62
1, 238003, Note_off_c, 0, 74, 59
1, 238009, Note_on_c, 0, 70, 64
1, 238055, Note_off_c, 0, 70, 60
1, 238094, Note_on_c, 0, 67, 59
1, 238146, Note_off_c, 0, 67, 49
1, 238149, Note_on_c, 0, 60, 60
1, 238151, Note_on_c, 0, 72, 71
1, 238181, Note_off_c, 0, 60, 67
1, 238220, Note_off_c, 0, 72, 60
1, 238250, Note_on_c, 0, 69, 48
1, 238276, Note_off_c, 0, 69, 58
1, 238304, Note_on_c, 0, 65, 62
1, 238348, Note_off_c, 0, 65, 58
1, 238348, Control_c, 0, 64, 33
1, 238363, Note_on_c, 0, 48, 56
1, 238363, Control_c, 0, 64, 44
1, 238378, Control_c, 0, 64, 52
1, 238389, Note_on_c, 0, 70, 51
1, 238390, Note_off_c, 0, 48, 60
1, 238392, Control_c, 0, 64, 57
1, 238407, Control_c, 0, 64, 59
1, 238422, Control_c, 0, 64, 60
1, 238423, Note_on_c, 0, 68, 58
1, 238477, Note_off_c, 0, 68, 59
1, 238479, Note_off_c, 0, 70, 54
1, 238502, Note_on_c, 0, 67, 35
1, 238512, Control_c, 0, 64, 59
1, 238526, Control_c, 0, 64, 58
1, 238541, Control_c, 0, 64, 57
1, 238547, Note_on_c, 0, 64, 56
1, 238556, Control_c, 0, 64, 56
1, 238570, Control_c, 0, 64, 53
1, 238585, Control_c, 0, 64, 49
1, 238597, Note_off_c, 0, 64, 59
1, 238600, Control_c, 0, 64, 43
1, 238615, Control_c, 0, 64, 36
1, 238619, Note_on_c, 0, 60, 64
1, 238624, Note_off_c, 0, 67, 42
1, 238630, Control_c, 0, 64, 0
1, 238638, Note_on_c, 0, 53, 37
1, 238643, Note_on_c, 0, 41, 45
1, 238700, Note_off_c, 0, 60, 55
1, 238717, Note_on_c, 0, 65, 57
1, 238807, Note_on_c, 0, 69, 55
1, 238817, Note_off_c, 0, 65, 57
1, 238872, Note_on_c, 0, 59, 57
1, 238929, Note_off_c, 0, 59, 43
1, 238945, Note_on_c, 0, 65, 53
1, 238982, Note_off_c, 0, 69, 57
1, 239033, Note_off_c, 0, 65, 57
1, 239042, Note_on_c, 0, 68, 55
1, 239111, Note_on_c, 0, 60, 49
1, 239117, Note_off_c, 0, 68, 55
1, 239171, Note_off_c, 0, 60, 47
1, 239185, Note_on_c, 0, 65, 54
1, 239260, Note_off_c, 0, 65, 60
1, 239273, Note_on_c, 0, 69, 62
1, 239354, Note_on_c, 0, 59, 50
1, 239399, Note_off_c, 0, 59, 47
1, 239432, Note_on_c, 0, 65, 52
1, 239460, Note_off_c, 0, 69, 39
1, 239517, Note_on_c, 0, 68, 56
1, 239536, Note_off_c, 0, 65, 43
1, 239589, Note_off_c, 0, 53, 61
1, 239594, Note_on_c, 0, 60, 54
1, 239595, Note_off_c, 0, 68, 59
1, 239607, Note_off_c, 0, 41, 64
1, 239659, Note_off_c, 0, 60, 44
1, 239665, Note_on_c, 0, 65, 57
1, 239726, Note_off_c, 0, 65, 59
1, 239751, Note_on_c, 0, 69, 69
1, 239820, Note_on_c, 0, 46, 61
1, 239826, Note_off_c, 0, 69, 62
1, 239835, Note_on_c, 0, 67, 65
1, 239850, Note_off_c, 0, 46, 64
1, 239866, Note_off_c, 0, 67, 63
1, 239919, Note_on_c, 0, 62, 51
1, 239957, Note_off_c, 0, 62, 63
1, 239979, Note_on_c, 0, 58, 60
1, 240031, Note_off_c, 0, 58, 61
1, 240068, Note_on_c, 0, 48, 64
1, 240072, Note_on_c, 0, 65, 60
1, 240096, Note_off_c, 0, 48, 65
1, 240154, Note_on_c, 0, 60, 55
1, 240212, Note_off_c, 0, 60, 61
1, 240220, Note_off_c, 0, 65, 36
1, 240229, Note_on_c, 0, 57, 66
1, 240306, Note_off_c, 0, 57, 60
1, 240321, Note_on_c, 0, 36, 54
1, 240326, Note_on_c, 0, 64, 50
1, 240342, Control_c, 0, 64, 31
1, 240351, Note_off_c, 0, 36, 54
1, 240357, Control_c, 0, 64, 41
1, 240370, Note_off_c, 0, 64, 60
1, 240372, Note_on_c, 0, 58, 62
1, 240372, Control_c, 0, 64, 49
1, 240387, Control_c, 0, 64, 53
1, 240402, Control_c, 0, 64, 56
1, 240417, Control_c, 0, 64, 56
1, 240460, Note_off_c, 0, 58, 59
1, 240461, Control_c, 0, 64, 56
1, 240469, Note_on_c, 0, 55, 56
1, 240491, Control_c, 0, 64, 55
1, 240506, Control_c, 0, 64, 54
1, 240511, Note_off_c, 0, 55, 63
1, 240521, Control_c, 0, 64, 51
1, 240536, Control_c, 0, 64, 49
1, 240547, Note_on_c, 0, 53, 55
1, 240550, Control_c, 0, 64, 48
1, 240560, Note_on_c, 0, 41, 44
1, 240592, Note_off_c, 0, 53, 56
1, 240595, Control_c, 0, 64, 48
1, 240610, Control_c, 0, 64, 49
1, 240637, Note_on_c, 0, 45, 45
1, 240637, Note_on_c, 0, 57, 40
1, 240654, Control_c, 0, 64, 48
1, 240689, Note_off_c, 0, 57, 57
1, 240696, Note_off_c, 0, 45, 59
1, 240700, Note_off_c, 0, 41, 29
1, 240705, Note_on_c, 0, 48, 59
1, 240714, Note_on_c, 0, 60, 55
1, 240744, Control_c, 0, 64, 48
1, 240753, Note_off_c, 0, 48, 61
1, 240759, Note_off_c, 0, 60, 62
1, 240773, Control_c, 0, 64, 47
1, 240788, Control_c, 0, 64, 47
1, 240790, Note_on_c, 0, 65, 48
1, 240801, Note_on_c, 0, 53, 37
1, 240803, Control_c, 0, 64, 46
1, 240818, Control_c, 0, 64, 45
1, 240833, Control_c, 0, 64, 45
1, 240840, Note_off_c, 0, 53, 56
1, 240847, Control_c, 0, 64, 44
1, 240852, Note_on_c, 0, 60, 61
1, 240862, Control_c, 0, 64, 43
1, 240863, Note_on_c, 0, 48, 56
1, 240877, Control_c, 0, 64, 42
1, 240892, Control_c, 0, 64, 41
1, 240907, Control_c, 0, 64, 40
1, 240920, Note_off_c, 0, 48, 62
1, 240929, Control_c, 0, 64, 39
1, 240935, Note_on_c, 0, 57, 63
1, 240938, Note_off_c, 0, 60, 61
1, 240944, Control_c, 0, 64, 37
1, 240954, Note_on_c, 0, 45, 47
1, 240958, Control_c, 0, 64, 34
1, 240972, Control_c, 0, 64, 31
1, 240984, Note_off_c, 0, 65, 32
1, 240987, Control_c, 0, 64, 29
1, 241001, Note_off_c, 0, 45, 62
1, 241002, Note_off_c, 0, 57, 60
1, 241002, Control_c, 0, 64, 0
1, 241011, Note_on_c, 0, 53, 64
1, 241019, Note_on_c, 0, 41, 61
1, 241071, Note_off_c, 0, 41, 59
1, 241084, Note_off_c, 0, 53, 58
1, 241093, Note_on_c, 0, 45, 63
1, 241095, Note_on_c, 0, 57, 60
1, 241163, Note_off_c, 0, 57, 55
1, 241165, Note_off_c, 0, 45, 61
1, 241180, Note_on_c, 0, 60, 68
1, 241185, Note_on_c, 0, 48, 63
1, 241239, Note_off_c, 0, 48, 61
1, 241256, Note_off_c, 0, 60, 63
1, 241259, Note_on_c, 0, 65, 69
1, 241270, Note_on_c, 0, 53, 57
1, 241311, Note_off_c, 0, 53, 59
1, 241328, Note_on_c, 0, 60, 67
1, 241339, Note_on_c, 0, 48, 66
1, 241379, Note_off_c, 0, 65, 0
1, 241384, Note_off_c, 0, 48, 61
1, 241405, Note_off_c, 0, 60, 63
1, 241406, Note_on_c, 0, 57, 70
1, 241417, Note_on_c, 0, 45, 62
1, 241417, Poly_aftertouch_c, 0, 65, 127
1, 241457, Note_off_c, 0, 57, 62
1, 241462, Note_off_c, 0, 45, 62
1, 241479, Poly_aftertouch_c, 0, 65, 0
1, 241480, Note_on_c, 0, 53, 74
1, 241482, Note_on_c, 0, 41, 61
1, 241526, Note_off_c, 0, 53, 57
1, 241535, Control_c, 0, 64, 33
1, 241543, Note_off_c, 0, 41, 61
1, 241551, Control_c, 0, 64, 44
1, 241562, Note_on_c, 0, 45, 65
1, 241563, Note_on_c, 0, 57, 69
1, 241566, Control_c, 0, 64, 54
1, 241581, Control_c, 0, 64, 59
1, 241595, Control_c, 0, 64, 62
1, 241600, Note_off_c, 0, 57, 62
1, 241609, Note_off_c, 0, 45, 61
1, 241610, Control_c, 0, 64, 63
1, 241625, Control_c, 0, 64, 64
1, 241636, Note_on_c, 0, 60, 72
1, 241637, Note_on_c, 0, 48, 69
1, 241640, Control_c, 0, 64, 65
1, 241655, Control_c, 0, 64, 65
1, 241668, Note_off_c, 0, 60, 69
1, 241677, Control_c, 0, 64, 66
1, 241677, Note_off_c, 0, 48, 65
1, 241721, Note_on_c, 0, 53, 53
1, 241722, Note_on_c, 0, 65, 75
1, 241749, Note_off_c, 0, 53, 63
1, 241766, Control_c, 0, 64, 65
1, 241781, Control_c, 0, 64, 64
1, 241785, Note_off_c, 0, 65, 59
1, 241794, Note_on_c, 0, 57, 62
1, 241795, Control_c, 0, 64, 62
1, 241805, Note_on_c, 0, 69, 63
1, 241810, Control_c, 0, 64, 60
1, 241825, Control_c, 0, 64, 58
1, 241840, Control_c, 0, 64, 53
1, 241855, Control_c, 0, 64, 48
1, 241861, Note_off_c, 0, 69, 56
1, 241862, Note_off_c, 0, 57, 63
1, 241865, Note_on_c, 0, 60, 61
1, 241869, Control_c, 0, 64, 42
1, 241870, Note_on_c, 0, 72, 69
1, 241884, Control_c, 0, 64, 34
1, 241899, Note_off_c, 0, 60, 64
1, 241899, Control_c, 0, 64, 0
1, 241937, Note_off_c, 0, 72, 61
1, 241940, Note_on_c, 0, 77, 68
1, 241943, Note_on_c, 0, 65, 54
1, 241980, Note_off_c, 0, 65, 61
1, 242020, Note_on_c, 0, 72, 60
1, 242020, Note_on_c, 0, 60, 54
1, 242063, Note_off_c, 0, 60, 60
1, 242090, Note_off_c, 0, 72, 61
1, 242095, Note_on_c, 0, 69, 69
1, 242116, Note_on_c, 0, 57, 42
1, 242142, Note_off_c, 0, 57, 60
1, 242151, Note_off_c, 0, 69, 57
1, 242163, Note_on_c, 0, 53, 55
1, 242170, Note_on_c, 0, 65, 63
1, 242201, Note_off_c, 0, 53, 62
1, 242213, Note_off_c, 0, 65, 55
1, 242232, Note_on_c, 0, 57, 58
1, 242256, Note_on_c, 0, 69, 65
1, 242291, Note_off_c, 0, 69, 58
1, 242314, Note_off_c, 0, 57, 50
1, 242320, Note_on_c, 0, 72, 72
1, 242334, Note_on_c, 0, 60, 52
1, 242350, Note_off_c, 0, 77, 41
1, 242374, Note_off_c, 0, 72, 62
1, 242378, Note_off_c, 0, 60, 59
1, 242402, Note_on_c, 0, 53, 46
1, 242404, Note_on_c, 0, 65, 62
1, 242440, Note_off_c, 0, 65, 65
1, 242454, Note_off_c, 0, 53, 61
1, 242456, Control_c, 0, 64, 29
1, 242471, Control_c, 0, 64, 39
1, 242475, Note_on_c, 0, 57, 57
1, 242486, Note_on_c, 0, 69, 66
1, 242486, Control_c, 0, 64, 50
1, 242500, Control_c, 0, 64, 58
1, 242515, Note_off_c, 0, 69, 64
1, 242515, Control_c, 0, 64, 61
1, 242523, Note_off_c, 0, 57, 61
1, 242530, Control_c, 0, 64, 62
1, 242545, Control_c, 0, 64, 63
1, 242557, Note_on_c, 0, 72, 65
1, 242560, Note_on_c, 0, 60, 36
1, 242560, Control_c, 0, 64, 64
1, 242575, Control_c, 0, 64, 65
1, 242581, Note_off_c, 0, 72, 68
1, 242590, Note_off_c, 0, 60, 53
1, 242590, Control_c, 0, 64, 65
1, 242628, Note_on_c, 0, 65, 50
1, 242640, Note_on_c, 0, 77, 60
1, 242652, Note_off_c, 0, 65, 58
1, 242679, Control_c, 0, 64, 65
1, 242686, Note_off_c, 0, 77, 54
1, 242693, Control_c, 0, 64, 64
1, 242706, Note_on_c, 0, 69, 58
1, 242708, Control_c, 0, 64, 62
1, 242715, Note_on_c, 0, 81, 59
1, 242723, Control_c, 0, 64, 61
1, 242737, Control_c, 0, 64, 58
1, 242752, Control_c, 0, 64, 54
1, 242756, Note_off_c, 0, 69, 54
1, 242766, Note_on_c, 0, 72, 57
1, 242767, Control_c, 0, 64, 49
1, 242773, Note_off_c, 0, 81, 60
1, 242777, Note_on_c, 0, 84, 70
1, 242782, Control_c, 0, 64, 43
1, 242797, Control_c, 0, 64, 37
1, 242802, Note_off_c, 0, 72, 59
1, 242811, Control_c, 0, 64, 31
1, 242826, Control_c, 0, 64, 0
1, 242852, Note_on_c, 0, 77, 44
1, 242854, Note_off_c, 0, 84, 59
1, 242860, Note_on_c, 0, 89, 59
1, 242885, Note_off_c, 0, 77, 64
1, 242917, Note_on_c, 0, 72, 59
1, 242925, Note_on_c, 0, 84, 59
1, 242977, Note_off_c, 0, 89, 0
1, 242980, Note_off_c, 0, 72, 59
1, 242998, Note_on_c, 0, 81, 64
1, 243001, Note_off_c, 0, 84, 60
1, 243013, Poly_aftertouch_c, 0, 89, 127
1, 243014, Note_on_c, 0, 69, 38
1, 243042, Note_off_c, 0, 69, 56
1, 243060, Note_on_c, 0, 65, 47
1, 243065, Poly_aftertouch_c, 0, 89, 0
1, 243066, Note_off_c, 0, 81, 62
1, 243078, Note_on_c, 0, 77, 56
1, 243105, Note_off_c, 0, 65, 58
1, 243132, Note_on_c, 0, 69, 53
1, 243149, Note_off_c, 0, 77, 59
1, 243153, Control_c, 0, 64, 36
1, 243156, Note_on_c, 0, 81, 50
1, 243175, Control_c, 0, 64, 47
1, 243190, Control_c, 0, 64, 57
1, 243205, Control_c, 0, 64, 61
1, 243219, Note_off_c, 0, 69, 53
1, 243220, Control_c, 0, 64, 64
1, 243224, Note_on_c, 0, 72, 47
1, 243235, Control_c, 0, 64, 67
1, 243247, Note_off_c, 0, 72, 60
1, 243249, Control_c, 0, 64, 70
1, 243254, Note_off_c, 0, 81, 50
1, 243264, Control_c, 0, 64, 74
1, 243269, Note_on_c, 0, 84, 59
1, 243279, Control_c, 0, 64, 77
1, 243294, Control_c, 0, 64, 80
1, 243309, Control_c, 0, 64, 82
1, 243323, Control_c, 0, 64, 85
1, 243334, Note_off_c, 0, 84, 63
1, 243338, Control_c, 0, 64, 87
1, 243353, Control_c, 0, 64, 90
1, 243362, Note_on_c, 0, 89, 58
1, 243368, Control_c, 0, 64, 91
1, 243371, Note_on_c, 0, 77, 53
1, 243383, Control_c, 0, 64, 93
1, 243389, Note_off_c, 0, 89, 62
1, 243397, Control_c, 0, 64, 95
1, 243412, Note_off_c, 0, 77, 62
1, 243412, Control_c, 0, 64, 97
1, 243442, Control_c, 0, 64, 100
1, 243575, Control_c, 0, 64, 97
1, 243590, Control_c, 0, 64, 96
1, 243605, Control_c, 0, 64, 94
1, 243620, Control_c, 0, 64, 91
1, 243634, Control_c, 0, 64, 87
1, 243649, Control_c, 0, 64, 84
1, 243664, Control_c, 0, 64, 80
1, 243679, Control_c, 0, 64, 77
1, 243693, Control_c, 0, 64, 73
1, 243708, Control_c, 0, 64, 68
1, 243723, Control_c, 0, 64, 64
1, 243738, Control_c, 0, 64, 59
1, 243753, Control_c, 0, 64, 56
1, 243767, Control_c, 0, 64, 52
1, 243782, Control_c, 0, 64, 50
1, 243790, Note_on_c, 0, 65, 40
1, 243792, Note_on_c, 0, 53, 21
1, 243797, Control_c, 0, 64, 48
1, 243812, Control_c, 0, 64, 45
1, 243821, Note_on_c, 0, 41, 32
1, 243827, Control_c, 0, 64, 40
1, 243842, Control_c, 0, 64, 35
1, 243856, Control_c, 0, 64, 31
1, 243871, Control_c, 0, 64, 0
1, 243984, Control_c, 0, 64, 34
1, 243998, Control_c, 0, 64, 41
1, 244013, Control_c, 0, 64, 48
1, 244028, Control_c, 0, 64, 55
1, 244043, Control_c, 0, 64, 59
1, 244058, Control_c, 0, 64, 61
1, 244072, Control_c, 0, 64, 62
1, 244102, Control_c, 0, 64, 63
1, 244161, Control_c, 0, 64, 62
1, 244190, Control_c, 0, 64, 62
1, 244205, Control_c, 0, 64, 61
1, 244217, Note_off_c, 0, 53, 40
1, 244220, Control_c, 0, 64, 59
1, 244224, Note_off_c, 0, 41, 35
1, 244224, Note_off_c, 0, 65, 53
1, 244235, Control_c, 0, 64, 56
1, 244250, Control_c, 0, 64, 54
1, 244265, Control_c, 0, 64, 51
1, 244280, Control_c, 0, 64, 47
1, 244295, Control_c, 0, 64, 40
1, 244310, Control_c, 0, 64, 32
1, 244324, Control_c, 0, 64, 0
1, 248565, Control_c, 0, 67, 106
1, 248580, Control_c, 0, 67, 79
1, 248595, Control_c, 0, 67, 41
1, 248610, Control_c, 0, 67, 0
1, 248966, Control_c, 0, 64, 29
1, 249114, Control_c, 0, 64, 0
1, 250048, Control_c, 0, 64, 30
1, 250092, Control_c, 0, 64, 32
1, 250107, Control_c, 0, 64, 32
1, 250136, Control_c, 0, 64, 33
1, 250151, Control_c, 0, 64, 35
1, 250166, Control_c, 0, 64, 36
1, 250181, Control_c, 0, 64, 39
1, 250196, Control_c, 0, 64, 40
1, 250210, Control_c, 0, 64, 41
1, 250225, Control_c, 0, 64, 42
1, 250254, Control_c, 0, 64, 42
1, 250345, Control_c, 0, 64, 43
1, 250389, Control_c, 0, 64, 43
1, 250707, Control_c, 0, 64, 44
1, 250737, Control_c, 0, 64, 44
1, 250841, Control_c, 0, 64, 44
1, 250871, Control_c, 0, 64, 43
1, 250885, Control_c, 0, 64, 43
1, 250900, Control_c, 0, 64, 41
1, 250915, Control_c, 0, 64, 38
1, 250930, Control_c, 0, 64, 36
1, 250945, Control_c, 0, 64, 34
1, 250959, Control_c, 0, 64, 33
1, 250974, Control_c, 0, 64, 32
1, 251004, Control_c, 0, 64, 29
1, 251019, Control_c, 0, 64, 0
1, 251212, Control_c, 0, 64, 29
1, 251470, Control_c, 0, 64, 0
1, 252137, Control_c, 0, 64, 30
1, 252190, Control_c, 0, 64, 32
1, 252204, Control_c, 0, 64, 32
1, 252219, Control_c, 0, 64, 33
1, 252234, Control_c, 0, 64, 33
1, 252263, Control_c, 0, 64, 34
1, 252278, Control_c, 0, 64, 34
1, 252308, Control_c, 0, 64, 35
1, 252322, Control_c, 0, 64, 35
1, 252352, Control_c, 0, 64, 36
1, 252367, Control_c, 0, 64, 36
1, 252382, Control_c, 0, 64, 37
1, 252412, Control_c, 0, 64, 37
1, 252427, Control_c, 0, 64, 38
1, 252441, Control_c, 0, 64, 38
1, 252471, Control_c, 0, 64, 39
1, 252486, Control_c, 0, 64, 39
1, 252501, Control_c, 0, 64, 40
1, 252516, Control_c, 0, 64, 41
1, 252530, Control_c, 0, 64, 42
1, 252545, Control_c, 0, 64, 43
1, 252560, Control_c, 0, 64, 45
1, 252575, Control_c, 0, 64, 48
1, 252590, Control_c, 0, 64, 50
1, 252604, Control_c, 0, 64, 52
1, 252619, Control_c, 0, 64, 54
1, 252634, Control_c, 0, 64, 54
1, 252648, Control_c, 0, 64, 55
1, 252663, Control_c, 0, 64, 55
1, 252724, Control_c, 0, 64, 56
1, 252753, Control_c, 0, 64, 56
1, 252783, Control_c, 0, 64, 57
1, 252798, Control_c, 0, 64, 57
1, 252813, Control_c, 0, 64, 58
1, 252827, Control_c, 0, 64, 58
1, 252842, Control_c, 0, 64, 59
1, 252857, Control_c, 0, 64, 60
1, 252871, Control_c, 0, 64, 61
1, 252871, Control_c, 0, 67, 36
1, 252886, Control_c, 0, 64, 61
1, 252886, Control_c, 0, 67, 52
1, 252909, Control_c, 0, 64, 62
1, 252909, Control_c, 0, 67, 69
1, 252924, Control_c, 0, 64, 63
1, 252924, Control_c, 0, 67, 89
1, 252939, Control_c, 0, 64, 64
1, 252939, Control_c, 0, 67, 114
1, 252953, Control_c, 0, 64, 65
1, 252953, Control_c, 0, 67, 127
1, 252968, Control_c, 0, 64, 65
1, 252983, Control_c, 0, 64, 66
1, 252998, Control_c, 0, 64, 67
1, 253013, Control_c, 0, 64, 68
1, 253027, Control_c, 0, 64, 70
1, 253042, Control_c, 0, 64, 71
1, 253057, Control_c, 0, 64, 73
1, 253071, Control_c, 0, 64, 75
1, 253086, Control_c, 0, 64, 77
1, 253101, Control_c, 0, 64, 79
1, 253116, Control_c, 0, 64, 81
1, 253131, Control_c, 0, 64, 84
1, 253145, Control_c, 0, 64, 86
1, 253160, Control_c, 0, 64, 88
1, 253175, Control_c, 0, 64, 90
1, 253190, Control_c, 0, 64, 93
1, 253205, Control_c, 0, 64, 96
1, 253219, Control_c, 0, 64, 100
1, 253234, Control_c, 0, 64, 105
1, 253249, Control_c, 0, 64, 114
1, 253264, Control_c, 0, 64, 127
1, 253763, Note_on_c, 0, 70, 47
1, 253796, Note_on_c, 0, 62, 34
1, 253797, Note_on_c, 0, 58, 38
1, 253850, Control_c, 0, 64, 112
1, 253865, Control_c, 0, 64, 99
1, 253880, Control_c, 0, 64, 90
1, 253894, Control_c, 0, 64, 82
1, 253909, Control_c, 0, 64, 77
1, 253924, Control_c, 0, 64, 73
1, 253939, Control_c, 0, 64, 69
1, 253954, Control_c, 0, 64, 65
1, 253968, Control_c, 0, 64, 64
1, 253998, Control_c, 0, 64, 64
1, 254013, Control_c, 0, 64, 65
1, 254027, Control_c, 0, 64, 67
1, 254042, Control_c, 0, 64, 69
1, 254057, Control_c, 0, 64, 71
1, 254072, Control_c, 0, 64, 74
1, 254087, Control_c, 0, 64, 76
1, 254102, Control_c, 0, 64, 78
1, 254117, Control_c, 0, 64, 79
1, 254132, Control_c, 0, 64, 81
1, 254147, Control_c, 0, 64, 83
1, 254161, Control_c, 0, 64, 85
1, 254176, Control_c, 0, 64, 88
1, 254191, Control_c, 0, 64, 91
1, 254197, Note_off_c, 0, 62, 40
1, 254206, Control_c, 0, 64, 94
1, 254220, Control_c, 0, 64, 96
1, 254250, Control_c, 0, 64, 98
1, 254451, Control_c, 0, 64, 96
1, 254466, Control_c, 0, 64, 94
1, 254480, Control_c, 0, 64, 91
1, 254495, Control_c, 0, 64, 87
1, 254502, Note_on_c, 0, 69, 50
1, 254510, Control_c, 0, 64, 83
1, 254516, Note_on_c, 0, 63, 45
1, 254525, Control_c, 0, 64, 78
1, 254525, Note_on_c, 0, 60, 42
1, 254540, Control_c, 0, 64, 73
1, 254555, Control_c, 0, 64, 66
1, 254570, Control_c, 0, 64, 59
1, 254585, Control_c, 0, 64, 50
1, 254599, Control_c, 0, 64, 44
1, 254614, Control_c, 0, 64, 40
1, 254626, Note_off_c, 0, 58, 34
1, 254629, Control_c, 0, 64, 39
1, 254675, Note_off_c, 0, 70, 58
1, 254688, Control_c, 0, 64, 41
1, 254703, Control_c, 0, 64, 43
1, 254718, Control_c, 0, 64, 46
1, 254732, Control_c, 0, 64, 50
1, 254747, Control_c, 0, 64, 54
1, 254762, Control_c, 0, 64, 57
1, 254777, Control_c, 0, 64, 59
1, 254791, Control_c, 0, 64, 61
1, 254806, Control_c, 0, 64, 62
1, 254821, Control_c, 0, 64, 63
1, 254836, Control_c, 0, 64, 65
1, 254850, Control_c, 0, 64, 67
1, 254865, Control_c, 0, 64, 69
1, 254880, Control_c, 0, 64, 71
1, 254895, Control_c, 0, 64, 73
1, 254910, Control_c, 0, 64, 74
1, 254925, Control_c, 0, 64, 77
1, 254939, Control_c, 0, 64, 79
1, 254954, Control_c, 0, 64, 82
1, 254969, Control_c, 0, 64, 85
1, 254978, Note_off_c, 0, 60, 33
1, 254984, Control_c, 0, 64, 87
1, 254984, Control_c, 0, 67, 108
1, 254999, Control_c, 0, 64, 90
1, 254999, Control_c, 0, 67, 89
1, 255014, Control_c, 0, 64, 92
1, 255014, Control_c, 0, 67, 76
1, 255029, Control_c, 0, 64, 93
1, 255029, Control_c, 0, 67, 68
1, 255036, Note_off_c, 0, 63, 29
1, 255043, Control_c, 0, 64, 94
1, 255043, Control_c, 0, 67, 63
1, 255058, Control_c, 0, 64, 95
1, 255058, Control_c, 0, 67, 55
1, 255073, Control_c, 0, 64, 95
1, 255073, Control_c, 0, 67, 47
1, 255088, Control_c, 0, 67, 44
1, 255118, Control_c, 0, 67, 44
1, 255133, Control_c, 0, 67, 45
1, 255155, Control_c, 0, 67, 45
1, 255170, Control_c, 0, 67, 46
1, 255186, Control_c, 0, 67, 47
1, 255201, Control_c, 0, 64, 95
1, 255201, Control_c, 0, 67, 49
1, 255216, Control_c, 0, 64, 93
1, 255216, Control_c, 0, 67, 50
1, 255230, Control_c, 0, 64, 90
1, 255230, Control_c, 0, 67, 51
1, 255234, Note_on_c, 0, 70, 64
1, 255245, Control_c, 0, 64, 85
1, 255245, Control_c, 0, 67, 52
1, 255260, Control_c, 0, 64, 79
1, 255267, Note_on_c, 0, 65, 40
1, 255269, Note_on_c, 0, 62, 45
1, 255274, Control_c, 0, 64, 71
1, 255289, Control_c, 0, 64, 62
1, 255304, Control_c, 0, 64, 51
1, 255319, Control_c, 0, 64, 42
1, 255334, Control_c, 0, 64, 34
1, 255348, Control_c, 0, 64, 32
1, 255363, Control_c, 0, 64, 33
1, 255375, Note_off_c, 0, 69, 48
1, 255378, Control_c, 0, 64, 37
1, 255393, Control_c, 0, 64, 44
1, 255393, Control_c, 0, 67, 52
1, 255408, Control_c, 0, 64, 55
1, 255408, Control_c, 0, 67, 51
1, 255422, Control_c, 0, 64, 62
1, 255437, Control_c, 0, 64, 66
1, 255452, Control_c, 0, 64, 70
1, 255467, Control_c, 0, 64, 73
1, 255482, Control_c, 0, 64, 75
1, 255497, Control_c, 0, 64, 77
1, 255512, Control_c, 0, 64, 81
1, 255527, Control_c, 0, 64, 85
1, 255542, Control_c, 0, 64, 91
1, 255556, Control_c, 0, 64, 98
1, 255556, Control_c, 0, 67, 52
1, 255562, Note_off_c, 0, 62, 50
1, 255564, Note_off_c, 0, 70, 56
1, 255571, Control_c, 0, 64, 109
1, 255586, Control_c, 0, 64, 127
1, 255586, Control_c, 0, 67, 52
1, 255593, Note_off_c, 0, 65, 29
1, 255615, Control_c, 0, 67, 53
1, 255660, Control_c, 0, 67, 54
1, 255689, Control_c, 0, 67, 54
1, 255704, Control_c, 0, 67, 55
1, 255719, Control_c, 0, 67, 55
1, 255734, Control_c, 0, 67, 56
1, 255748, Control_c, 0, 67, 57
1, 255763, Control_c, 0, 67, 59
1, 255778, Control_c, 0, 67, 60
1, 255792, Control_c, 0, 67, 61
1, 255807, Control_c, 0, 67, 62
1, 255822, Control_c, 0, 67, 62
1, 255837, Control_c, 0, 67, 63
1, 255852, Control_c, 0, 67, 65
1, 255867, Control_c, 0, 67, 66
1, 255881, Control_c, 0, 67, 67
1, 255904, Control_c, 0, 67, 67
1, 255920, Control_c, 0, 67, 68
1, 255949, Control_c, 0, 67, 68
1, 255964, Control_c, 0, 67, 70
1, 255978, Control_c, 0, 67, 71
1, 256008, Control_c, 0, 67, 72
1, 256067, Note_on_c, 0, 64, 73
1, 256100, Note_on_c, 0, 61, 52
1, 256111, Control_c, 0, 64, 119
1, 256111, Control_c, 0, 67, 71
1, 256116, Note_on_c, 0, 55, 41
1, 256126, Control_c, 0, 64, 106
1, 256141, Control_c, 0, 64, 98
1, 256156, Control_c, 0, 64, 91
1, 256171, Control_c, 0, 64, 85
1, 256185, Control_c, 0, 64, 79
1, 256200, Control_c, 0, 64, 73
1, 256200, Control_c, 0, 67, 72
1, 256215, Control_c, 0, 64, 65
1, 256230, Control_c, 0, 64, 60
1, 256245, Control_c, 0, 64, 55
1, 256260, Control_c, 0, 64, 53
1, 256260, Control_c, 0, 67, 72
1, 256275, Control_c, 0, 64, 51
1, 256290, Control_c, 0, 64, 50
1, 256290, Control_c, 0, 67, 73
1, 256304, Control_c, 0, 64, 49
1, 256319, Control_c, 0, 64, 46
1, 256319, Control_c, 0, 67, 73
1, 256334, Control_c, 0, 64, 43
1, 256334, Control_c, 0, 67, 74
1, 256349, Control_c, 0, 64, 40
1, 256349, Control_c, 0, 67, 75
1, 256364, Control_c, 0, 64, 36
1, 256364, Control_c, 0, 67, 75
1, 256378, Control_c, 0, 64, 0
1, 256378, Control_c, 0, 67, 77
1, 256393, Control_c, 0, 67, 80
1, 256408, Control_c, 0, 67, 81
1, 256422, Control_c, 0, 67, 83
1, 256437, Control_c, 0, 67, 84
1, 256452, Control_c, 0, 67, 86
1, 256467, Control_c, 0, 67, 94
1, 256482, Control_c, 0, 67, 100
1, 256496, Control_c, 0, 67, 103
1, 256511, Control_c, 0, 67, 107
1, 256526, Control_c, 0, 67, 112
1, 256541, Control_c, 0, 67, 120
1, 256556, Control_c, 0, 67, 127
1, 256851, Note_on_c, 0, 60, 41
1, 256959, Note_off_c, 0, 61, 53
1, 257626, Note_on_c, 0, 72, 55
1, 257664, Note_on_c, 0, 58, 34
1, 257757, Control_c, 0, 64, 32
1, 257772, Control_c, 0, 64, 42
1, 257787, Control_c, 0, 64, 51
1, 257797, Note_off_c, 0, 64, 34
1, 257802, Control_c, 0, 64, 58
1, 257816, Control_c, 0, 64, 62
1, 257831, Control_c, 0, 64, 63
1, 257834, Note_off_c, 0, 60, 35
1, 257846, Control_c, 0, 64, 64
1, 257861, Control_c, 0, 64, 65
1, 257876, Control_c, 0, 64, 65
1, 257891, Control_c, 0, 64, 66
1, 257905, Control_c, 0, 64, 67
1, 257920, Control_c, 0, 64, 69
1, 257935, Control_c, 0, 64, 71
1, 257950, Control_c, 0, 64, 73
1, 257965, Control_c, 0, 64, 76
1, 257980, Control_c, 0, 64, 78
1, 257994, Control_c, 0, 64, 81
1, 258009, Control_c, 0, 64, 84
1, 258024, Control_c, 0, 64, 87
1, 258039, Control_c, 0, 64, 91
1, 258054, Control_c, 0, 64, 95
1, 258068, Control_c, 0, 64, 98
1, 258083, Control_c, 0, 64, 101
1, 258098, Control_c, 0, 64, 104
1, 258113, Control_c, 0, 64, 107
1, 258128, Control_c, 0, 64, 110
1, 258129, Note_off_c, 0, 55, 37
1, 258165, Control_c, 0, 64, 112
1, 258448, Control_c, 0, 64, 109
1, 258463, Control_c, 0, 64, 106
1, 258478, Control_c, 0, 64, 103
1, 258492, Control_c, 0, 64, 99
1, 258499, Note_on_c, 0, 71, 45
1, 258507, Control_c, 0, 64, 96
1, 258508, Note_on_c, 0, 53, 39
1, 258510, Note_off_c, 0, 72, 42
1, 258522, Control_c, 0, 64, 92
1, 258537, Control_c, 0, 64, 89
1, 258552, Control_c, 0, 64, 85
1, 258566, Control_c, 0, 64, 80
1, 258581, Control_c, 0, 64, 76
1, 258590, Note_off_c, 0, 71, 58
1, 258596, Control_c, 0, 64, 72
1, 258604, Note_on_c, 0, 72, 61
1, 258610, Control_c, 0, 64, 67
1, 258625, Control_c, 0, 64, 62
1, 258640, Control_c, 0, 64, 58
1, 258655, Control_c, 0, 64, 54
1, 258670, Control_c, 0, 64, 53
1, 258672, Note_off_c, 0, 72, 58
1, 258684, Control_c, 0, 64, 52
1, 258698, Note_on_c, 0, 74, 59
1, 258699, Control_c, 0, 64, 52
1, 258714, Control_c, 0, 64, 51
1, 258729, Control_c, 0, 64, 50
1, 258744, Control_c, 0, 64, 49
1, 258758, Control_c, 0, 64, 48
1, 258773, Control_c, 0, 64, 46
1, 258788, Control_c, 0, 64, 43
1, 258791, Note_on_c, 0, 72, 59
1, 258803, Control_c, 0, 64, 40
1, 258818, Control_c, 0, 64, 37
1, 258833, Control_c, 0, 64, 34
1, 258847, Control_c, 0, 64, 32
1, 258862, Control_c, 0, 64, 29
1, 258877, Control_c, 0, 64, 0
1, 258878, Note_off_c, 0, 74, 56
1, 259254, Note_on_c, 0, 57, 35
1, 259357, Note_off_c, 0, 58, 40
1, 259448, Control_c, 0, 64, 31
1, 259463, Control_c, 0, 64, 41
1, 259478, Control_c, 0, 64, 53
1, 259493, Control_c, 0, 64, 60
1, 259507, Control_c, 0, 64, 63
1, 259522, Control_c, 0, 64, 64
1, 259537, Control_c, 0, 64, 65
1, 259552, Control_c, 0, 64, 65
1, 259567, Control_c, 0, 64, 66
1, 259581, Control_c, 0, 64, 67
1, 259596, Control_c, 0, 64, 68
1, 259611, Control_c, 0, 64, 69
1, 259626, Control_c, 0, 64, 70
1, 259648, Control_c, 0, 64, 71
1, 259663, Control_c, 0, 64, 73
1, 259667, Note_on_c, 0, 70, 49
1, 259677, Control_c, 0, 64, 74
1, 259692, Control_c, 0, 64, 76
1, 259707, Control_c, 0, 64, 78
1, 259721, Control_c, 0, 64, 80
1, 259736, Control_c, 0, 64, 82
1, 259751, Control_c, 0, 64, 84
1, 259763, Note_off_c, 0, 72, 55
1, 259766, Control_c, 0, 64, 87
1, 259780, Control_c, 0, 64, 90
1, 259795, Control_c, 0, 64, 93
1, 259810, Control_c, 0, 64, 97
1, 259825, Control_c, 0, 64, 100
1, 259840, Control_c, 0, 64, 104
1, 259855, Control_c, 0, 64, 107
1, 259857, Note_off_c, 0, 70, 62
1, 259864, Note_on_c, 0, 69, 59
1, 259870, Control_c, 0, 64, 110
1, 259885, Control_c, 0, 64, 112
1, 259900, Control_c, 0, 64, 114
1, 259930, Control_c, 0, 64, 116
1, 259959, Control_c, 0, 64, 118
1, 260035, Note_on_c, 0, 67, 69
1, 260043, Note_off_c, 0, 69, 59
1, 260049, Control_c, 0, 64, 120
1, 260114, Note_off_c, 0, 57, 34
1, 260148, Note_off_c, 0, 53, 33
1, 260208, Note_on_c, 0, 65, 70
1, 260251, Note_off_c, 0, 67, 60
1, 260270, Control_c, 0, 64, 118
1, 260300, Control_c, 0, 64, 115
1, 260315, Control_c, 0, 64, 112
1, 260330, Control_c, 0, 64, 108
1, 260344, Control_c, 0, 64, 103
1, 260359, Control_c, 0, 64, 97
1, 260374, Control_c, 0, 64, 91
1, 260392, Note_on_c, 0, 63, 68
1, 260396, Control_c, 0, 64, 84
1, 260404, Note_on_c, 0, 58, 46
1, 260411, Control_c, 0, 64, 75
1, 260422, Note_on_c, 0, 55, 42
1, 260426, Control_c, 0, 64, 67
1, 260441, Control_c, 0, 64, 58
1, 260445, Note_off_c, 0, 65, 58
1, 260456, Control_c, 0, 64, 46
1, 260470, Control_c, 0, 64, 31
1, 260485, Control_c, 0, 64, 0
1, 260570, Note_on_c, 0, 67, 64
1, 260574, Control_c, 0, 64, 31
1, 260588, Control_c, 0, 64, 47
1, 260602, Note_off_c, 0, 58, 57
1, 260603, Note_off_c, 0, 63, 60
1, 260603, Control_c, 0, 64, 62
1, 260618, Control_c, 0, 64, 69
1, 260627, Note_off_c, 0, 55, 35
1, 260633, Control_c, 0, 64, 73
1, 260648, Control_c, 0, 64, 76
1, 260663, Control_c, 0, 64, 77
1, 260678, Control_c, 0, 64, 78
1, 260693, Control_c, 0, 64, 79
1, 260782, Control_c, 0, 64, 77
1, 260793, Note_on_c, 0, 65, 56
1, 260797, Control_c, 0, 64, 71
1, 260812, Note_on_c, 0, 57, 39
1, 260812, Control_c, 0, 64, 62
1, 260819, Note_on_c, 0, 60, 39
1, 260827, Control_c, 0, 64, 48
1, 260832, Note_off_c, 0, 67, 57
1, 260842, Control_c, 0, 64, 0
1, 260901, Control_c, 0, 64, 29
1, 260916, Control_c, 0, 64, 47
1, 260931, Control_c, 0, 64, 61
1, 260946, Control_c, 0, 64, 69
1, 260960, Control_c, 0, 64, 76
1, 260975, Control_c, 0, 64, 82
1, 260982, Note_off_c, 0, 65, 60
1, 260990, Control_c, 0, 64, 85
1, 261005, Control_c, 0, 64, 88
1, 261019, Control_c, 0, 64, 93
1, 261034, Control_c, 0, 64, 96
1, 261049, Control_c, 0, 64, 98
1, 261217, Note_on_c, 0, 63, 41
1, 261234, Control_c, 0, 64, 95
1, 261249, Control_c, 0, 64, 93
1, 261252, Note_off_c, 0, 63, 53
1, 261264, Control_c, 0, 64, 91
1, 261273, Note_on_c, 0, 65, 54
1, 261279, Control_c, 0, 64, 88
1, 261293, Control_c, 0, 64, 86
1, 261308, Control_c, 0, 64, 85
1, 261318, Note_off_c, 0, 65, 60
1, 261323, Control_c, 0, 64, 83
1, 261338, Control_c, 0, 64, 82
1, 261348, Note_on_c, 0, 63, 55
1, 261353, Control_c, 0, 64, 82
1, 261377, Note_off_c, 0, 63, 60
1, 261382, Control_c, 0, 64, 81
1, 261392, Note_on_c, 0, 65, 53
1, 261455, Note_off_c, 0, 65, 55
1, 261456, Control_c, 0, 64, 81
1, 261465, Note_on_c, 0, 63, 58
1, 261500, Control_c, 0, 64, 80
1, 261516, Control_c, 0, 64, 79
1, 261517, Note_off_c, 0, 63, 55
1, 261531, Control_c, 0, 64, 78
1, 261544, Note_on_c, 0, 62, 53
1, 261546, Control_c, 0, 64, 77
1, 261561, Control_c, 0, 64, 75
1, 261576, Control_c, 0, 64, 72
1, 261590, Control_c, 0, 64, 68
1, 261601, Note_off_c, 0, 62, 59
1, 261605, Control_c, 0, 64, 64
1, 261620, Control_c, 0, 64, 60
1, 261632, Note_on_c, 0, 63, 48
1, 261635, Control_c, 0, 64, 56
1, 261649, Control_c, 0, 64, 54
1, 261664, Control_c, 0, 64, 53
1, 261679, Control_c, 0, 64, 53
1, 261695, Note_off_c, 0, 57, 32
1, 261709, Control_c, 0, 64, 52
1, 261724, Control_c, 0, 64, 50
1, 261739, Control_c, 0, 64, 47
1, 261754, Control_c, 0, 64, 44
1, 261764, Note_on_c, 0, 62, 42
1, 261769, Control_c, 0, 64, 38
1, 261783, Note_on_c, 0, 58, 38
1, 261783, Control_c, 0, 64, 30
1, 261798, Control_c, 0, 64, 0
1, 261804, Note_off_c, 0, 63, 36
1, 261867, Note_off_c, 0, 60, 42
1, 261939, Control_c, 0, 64, 38
1, 261954, Control_c, 0, 64, 50
1, 261968, Control_c, 0, 64, 60
1, 261983, Control_c, 0, 64, 66
1, 261998, Control_c, 0, 64, 70
1, 262013, Control_c, 0, 64, 72
1, 262028, Control_c, 0, 64, 74
1, 262043, Control_c, 0, 64, 76
1, 262058, Control_c, 0, 64, 78
1, 262073, Control_c, 0, 64, 81
1, 262088, Control_c, 0, 64, 85
1, 262103, Control_c, 0, 64, 89
1, 262117, Control_c, 0, 64, 94
1, 262132, Control_c, 0, 64, 101
1, 262147, Control_c, 0, 64, 108
1, 262161, Control_c, 0, 64, 118
1, 262173, Note_off_c, 0, 62, 33
1, 262176, Control_c, 0, 64, 127
1, 262204, Note_off_c, 0, 58, 35
1, 262644, Control_c, 0, 64, 113
1, 262648, Note_on_c, 0, 74, 51
1, 262659, Control_c, 0, 64, 105
1, 262673, Control_c, 0, 64, 100
1, 262676, Note_on_c, 0, 65, 38
1, 262688, Control_c, 0, 64, 95
1, 262703, Control_c, 0, 64, 91
1, 262718, Control_c, 0, 64, 85
1, 262733, Control_c, 0, 64, 79
1, 262747, Control_c, 0, 64, 72
1, 262762, Control_c, 0, 64, 66
1, 262777, Control_c, 0, 64, 59
1, 262791, Control_c, 0, 64, 53
1, 262806, Control_c, 0, 64, 48
1, 262821, Control_c, 0, 64, 45
1, 262836, Control_c, 0, 64, 43
1, 262851, Control_c, 0, 64, 42
1, 262866, Control_c, 0, 64, 41
1, 262881, Control_c, 0, 64, 41
1, 262910, Control_c, 0, 64, 40
1, 262925, Control_c, 0, 64, 40
1, 262940, Control_c, 0, 64, 39
1, 262970, Control_c, 0, 64, 39
1, 263014, Control_c, 0, 64, 38
1, 263370, Control_c, 0, 64, 39
1, 263481, Control_c, 0, 64, 39
1, 263496, Control_c, 0, 64, 40
1, 263499, Note_on_c, 0, 36, 32
1, 263503, Note_on_c, 0, 48, 35
1, 263511, Control_c, 0, 64, 41
1, 263526, Control_c, 0, 64, 43
1, 263541, Control_c, 0, 64, 46
1, 263555, Control_c, 0, 64, 50
1, 263570, Control_c, 0, 64, 56
1, 263585, Control_c, 0, 64, 60
1, 263600, Control_c, 0, 64, 63
1, 263614, Control_c, 0, 64, 66
1, 263629, Control_c, 0, 64, 68
1, 263644, Control_c, 0, 64, 71
1, 263659, Control_c, 0, 64, 73
1, 263666, Note_off_c, 0, 65, 34
1, 263674, Control_c, 0, 64, 76
1, 263688, Control_c, 0, 64, 78
1, 263703, Control_c, 0, 64, 81
1, 263718, Control_c, 0, 64, 84
1, 263733, Control_c, 0, 64, 88
1, 263739, Note_off_c, 0, 74, 31
1, 263748, Control_c, 0, 64, 91
1, 263763, Control_c, 0, 64, 96
1, 263778, Control_c, 0, 64, 100
1, 263793, Control_c, 0, 64, 103
1, 263807, Control_c, 0, 64, 105
1, 263837, Control_c, 0, 64, 107
1, 263939, Note_on_c, 0, 71, 53
1, 263953, Note_on_c, 0, 62, 35
1, 264060, Control_c, 0, 64, 109
1, 264075, Control_c, 0, 64, 111
1, 264089, Note_off_c, 0, 71, 60
1, 264090, Control_c, 0, 64, 115
1, 264104, Control_c, 0, 64, 122
1, 264119, Control_c, 0, 64, 127
1, 264214, Control_c, 0, 67, 117
1, 264228, Control_c, 0, 67, 108
1, 264243, Control_c, 0, 67, 104
1, 264288, Control_c, 0, 67, 102
1, 264332, Control_c, 0, 64, 104
1, 264347, Control_c, 0, 64, 90
1, 264350, Note_on_c, 0, 72, 57
1, 264362, Control_c, 0, 64, 80
1, 264377, Control_c, 0, 64, 72
1, 264392, Control_c, 0, 64, 67
1, 264395, Note_on_c, 0, 63, 44
1, 264407, Control_c, 0, 64, 65
1, 264422, Control_c, 0, 67, 99
1, 264436, Control_c, 0, 64, 66
1, 264451, Control_c, 0, 64, 68
1, 264451, Control_c, 0, 67, 97
1, 264460, Note_off_c, 0, 62, 53
1, 264466, Control_c, 0, 64, 72
1, 264481, Control_c, 0, 64, 77
1, 264481, Control_c, 0, 67, 94
1, 264496, Control_c, 0, 64, 81
1, 264496, Control_c, 0, 67, 86
1, 264498, Note_off_c, 0, 63, 63
1, 264510, Control_c, 0, 64, 86
1, 264510, Control_c, 0, 67, 59
1, 264525, Control_c, 0, 64, 93
1, 264525, Control_c, 0, 67, 0
1, 264540, Control_c, 0, 64, 101
1, 264554, Control_c, 0, 64, 115
1, 264569, Control_c, 0, 64, 127
1, 264601, Note_off_c, 0, 72, 62
1, 264749, Note_on_c, 0, 74, 69
1, 264770, Note_on_c, 0, 65, 48
1, 264777, Control_c, 0, 64, 102
1, 264792, Control_c, 0, 64, 84
1, 264807, Control_c, 0, 64, 73
1, 264822, Control_c, 0, 64, 64
1, 264837, Control_c, 0, 64, 56
1, 264851, Control_c, 0, 64, 53
1, 264866, Control_c, 0, 64, 54
1, 264889, Control_c, 0, 64, 57
1, 264904, Control_c, 0, 64, 60
1, 264920, Control_c, 0, 64, 64
1, 264934, Control_c, 0, 64, 69
1, 264946, Note_off_c, 0, 74, 57
1, 264949, Control_c, 0, 64, 75
1, 264964, Control_c, 0, 64, 81
1, 264979, Control_c, 0, 64, 85
1, 264993, Control_c, 0, 64, 89
1, 265008, Control_c, 0, 64, 93
1, 265023, Control_c, 0, 64, 96
1, 265038, Control_c, 0, 64, 100
1, 265067, Control_c, 0, 64, 102
1, 265141, Control_c, 0, 64, 96
1, 265156, Control_c, 0, 64, 88
1, 265158, Note_on_c, 0, 75, 69
1, 265171, Control_c, 0, 64, 78
1, 265185, Note_on_c, 0, 67, 49
1, 265185, Control_c, 0, 64, 65
1, 265200, Control_c, 0, 64, 53
1, 265215, Control_c, 0, 64, 40
1, 265230, Control_c, 0, 64, 31
1, 265259, Control_c, 0, 64, 36
1, 265274, Control_c, 0, 64, 45
1, 265289, Control_c, 0, 64, 57
1, 265294, Note_off_c, 0, 65, 33
1, 265304, Control_c, 0, 64, 68
1, 265319, Control_c, 0, 64, 78
1, 265334, Control_c, 0, 64, 88
1, 265349, Control_c, 0, 64, 93
1, 265361, Note_off_c, 0, 67, 59
1, 265364, Control_c, 0, 64, 97
1, 265378, Control_c, 0, 64, 103
1, 265390, Note_off_c, 0, 36, 39
1, 265393, Control_c, 0, 64, 111
1, 265408, Control_c, 0, 64, 127
1, 265447, Note_off_c, 0, 48, 50
1, 265557, Note_on_c, 0, 72, 66
1, 265675, Note_off_c, 0, 72, 59
1, 265978, Note_on_c, 0, 70, 61
1, 266000, Note_on_c, 0, 63, 46
1, 266008, Control_c, 0, 64, 109
1, 266023, Control_c, 0, 64, 95
1, 266025, Note_on_c, 0, 60, 34
1, 266038, Control_c, 0, 64, 83
1, 266053, Control_c, 0, 64, 72
1, 266068, Control_c, 0, 64, 61
1, 266082, Control_c, 0, 64, 48
1, 266097, Control_c, 0, 64, 0
1, 266261, Control_c, 0, 64, 30
1, 266275, Control_c, 0, 64, 41
1, 266290, Control_c, 0, 64, 52
1, 266306, Control_c, 0, 64, 60
1, 266321, Control_c, 0, 64, 65
1, 266335, Control_c, 0, 64, 67
1, 266350, Control_c, 0, 64, 68
1, 266365, Control_c, 0, 64, 69
1, 266387, Control_c, 0, 64, 70
1, 266402, Control_c, 0, 64, 71
1, 266408, Note_on_c, 0, 69, 56
1, 266416, Control_c, 0, 64, 73
1, 266431, Control_c, 0, 64, 75
1, 266446, Control_c, 0, 64, 77
1, 266461, Control_c, 0, 64, 80
1, 266467, Note_off_c, 0, 70, 59
1, 266476, Control_c, 0, 64, 82
1, 266490, Control_c, 0, 64, 85
1, 266505, Control_c, 0, 64, 87
1, 266520, Control_c, 0, 64, 90
1, 266520, Control_c, 0, 67, 37
1, 266535, Control_c, 0, 64, 91
1, 266535, Control_c, 0, 67, 54
1, 266550, Control_c, 0, 64, 93
1, 266550, Control_c, 0, 67, 77
1, 266551, Note_off_c, 0, 75, 36
1, 266564, Control_c, 0, 64, 94
1, 266564, Control_c, 0, 67, 106
1, 266579, Control_c, 0, 64, 94
1, 266579, Control_c, 0, 67, 127
1, 266594, Control_c, 0, 64, 95
1, 266598, Note_off_c, 0, 63, 36
1, 266684, Note_off_c, 0, 60, 35
1, 266742, Control_c, 0, 64, 94
1, 266771, Control_c, 0, 64, 94
1, 266786, Control_c, 0, 64, 92
1, 266789, Note_on_c, 0, 72, 58
1, 266801, Control_c, 0, 64, 90
1, 266816, Control_c, 0, 64, 87
1, 266824, Note_on_c, 0, 65, 40
1, 266830, Control_c, 0, 64, 83
1, 266841, Note_on_c, 0, 62, 37
1, 266845, Control_c, 0, 64, 79
1, 266860, Control_c, 0, 64, 73
1, 266875, Control_c, 0, 64, 67
1, 266890, Control_c, 0, 64, 59
1, 266905, Control_c, 0, 64, 50
1, 266920, Control_c, 0, 64, 38
1, 266929, Note_off_c, 0, 69, 42
1, 266935, Control_c, 0, 64, 0
1, 267099, Control_c, 0, 64, 30
1, 267113, Control_c, 0, 64, 41
1, 267135, Control_c, 0, 64, 53
1, 267150, Control_c, 0, 64, 60
1, 267165, Control_c, 0, 64, 63
1, 267179, Control_c, 0, 64, 65
1, 267194, Control_c, 0, 64, 65
1, 267224, Note_on_c, 0, 70, 45
1, 267224, Control_c, 0, 64, 66
1, 267230, Note_off_c, 0, 72, 47
1, 267239, Control_c, 0, 64, 67
1, 267254, Control_c, 0, 64, 68
1, 267254, Control_c, 0, 67, 125
1, 267268, Control_c, 0, 64, 70
1, 267268, Control_c, 0, 67, 114
1, 267283, Control_c, 0, 64, 71
1, 267283, Control_c, 0, 67, 101
1, 267298, Control_c, 0, 64, 74
1, 267298, Control_c, 0, 67, 88
1, 267313, Control_c, 0, 64, 76
1, 267313, Control_c, 0, 67, 68
1, 267328, Control_c, 0, 64, 80
1, 267328, Control_c, 0, 67, 45
1, 267343, Control_c, 0, 64, 85
1, 267343, Control_c, 0, 67, 0
1, 267348, Note_off_c, 0, 70, 62
1, 267358, Control_c, 0, 64, 88
1, 267373, Control_c, 0, 64, 95
1, 267387, Control_c, 0, 64, 101
1, 267402, Control_c, 0, 64, 109
1, 267417, Control_c, 0, 64, 127
1, 267718, Note_on_c, 0, 77, 74
1, 267748, Note_on_c, 0, 74, 61
1, 267755, Note_off_c, 0, 65, 30
1, 267784, Note_off_c, 0, 62, 36
1, 267787, Control_c, 0, 64, 111
1, 267802, Control_c, 0, 64, 103
1, 267817, Control_c, 0, 64, 96
1, 267832, Control_c, 0, 64, 90
1, 267846, Control_c, 0, 64, 83
1, 267861, Control_c, 0, 64, 78
1, 267883, Control_c, 0, 64, 72
1, 267899, Control_c, 0, 64, 65
1, 267915, Control_c, 0, 64, 58
1, 267930, Control_c, 0, 64, 52
1, 267945, Control_c, 0, 64, 48
1, 267959, Control_c, 0, 64, 44
1, 267974, Control_c, 0, 64, 42
1, 267989, Control_c, 0, 64, 40
1, 268003, Control_c, 0, 64, 37
1, 268018, Control_c, 0, 64, 33
1, 268033, Control_c, 0, 64, 30
1, 268048, Control_c, 0, 64, 0
1, 268477, Control_c, 0, 64, 34
1, 268492, Control_c, 0, 64, 39
1, 268507, Control_c, 0, 64, 44
1, 268521, Control_c, 0, 64, 49
1, 268536, Control_c, 0, 64, 54
1, 268551, Control_c, 0, 64, 57
1, 268566, Control_c, 0, 64, 60
1, 268581, Control_c, 0, 64, 61
1, 268595, Control_c, 0, 64, 62
1, 268610, Control_c, 0, 64, 64
1, 268633, Control_c, 0, 64, 65
1, 268648, Control_c, 0, 64, 66
1, 268663, Control_c, 0, 64, 67
1, 268677, Control_c, 0, 64, 69
1, 268692, Control_c, 0, 64, 70
1, 268708, Control_c, 0, 64, 72
1, 268723, Control_c, 0, 64, 74
1, 268738, Note_on_c, 0, 39, 46
1, 268738, Control_c, 0, 64, 75
1, 268752, Control_c, 0, 64, 78
1, 268753, Note_on_c, 0, 51, 39
1, 268767, Control_c, 0, 64, 80
1, 268782, Control_c, 0, 64, 82
1, 268797, Control_c, 0, 64, 85
1, 268812, Control_c, 0, 64, 87
1, 268826, Control_c, 0, 64, 90
1, 268841, Control_c, 0, 64, 93
1, 268856, Control_c, 0, 64, 97
1, 268871, Control_c, 0, 64, 102
1, 268880, Note_off_c, 0, 74, 52
1, 268886, Control_c, 0, 64, 108
1, 268900, Control_c, 0, 64, 119
1, 268915, Control_c, 0, 64, 127
1, 269221, Note_on_c, 0, 74, 47
1, 269237, Note_on_c, 0, 71, 39
1, 269315, Control_c, 0, 64, 107
1, 269330, Control_c, 0, 64, 95
1, 269344, Control_c, 0, 64, 88
1, 269353, Note_off_c, 0, 77, 59
1, 269359, Control_c, 0, 64, 85
1, 269382, Control_c, 0, 64, 85
1, 269441, Control_c, 0, 64, 86
1, 269456, Control_c, 0, 64, 88
1, 269462, Note_off_c, 0, 71, 35
1, 269471, Control_c, 0, 64, 90
1, 269486, Control_c, 0, 64, 93
1, 269501, Control_c, 0, 64, 95
1, 269516, Control_c, 0, 64, 97
1, 269546, Control_c, 0, 64, 99
1, 269632, Note_on_c, 0, 75, 61
1, 269659, Note_on_c, 0, 72, 49
1, 269664, Control_c, 0, 64, 97
1, 269679, Control_c, 0, 64, 93
1, 269694, Control_c, 0, 64, 85
1, 269709, Control_c, 0, 64, 76
1, 269723, Control_c, 0, 64, 65
1, 269738, Control_c, 0, 64, 53
1, 269753, Control_c, 0, 64, 37
1, 269767, Control_c, 0, 64, 0
1, 269784, Note_off_c, 0, 74, 39
1, 269827, Control_c, 0, 64, 39
1, 269841, Control_c, 0, 64, 53
1, 269856, Control_c, 0, 64, 63
1, 269871, Control_c, 0, 64, 70
1, 269886, Control_c, 0, 64, 75
1, 269901, Control_c, 0, 64, 76
1, 269916, Control_c, 0, 64, 78
1, 269930, Control_c, 0, 64, 79
1, 269945, Control_c, 0, 64, 81
1, 269960, Control_c, 0, 64, 82
1, 269975, Control_c, 0, 64, 83
1, 270005, Control_c, 0, 64, 84
1, 270035, Note_on_c, 0, 77, 70
1, 270049, Control_c, 0, 64, 83
1, 270060, Note_on_c, 0, 74, 58
1, 270079, Control_c, 0, 64, 82
1, 270093, Control_c, 0, 64, 76
1, 270108, Control_c, 0, 64, 68
1, 270130, Control_c, 0, 64, 59
1, 270145, Control_c, 0, 64, 48
1, 270154, Note_off_c, 0, 75, 60
1, 270160, Control_c, 0, 64, 42
1, 270174, Control_c, 0, 64, 43
1, 270189, Control_c, 0, 64, 48
1, 270204, Control_c, 0, 64, 59
1, 270219, Control_c, 0, 64, 67
1, 270234, Control_c, 0, 64, 76
1, 270248, Control_c, 0, 64, 86
1, 270263, Control_c, 0, 64, 93
1, 270278, Control_c, 0, 64, 98
1, 270281, Note_off_c, 0, 72, 24
1, 270293, Control_c, 0, 64, 103
1, 270309, Control_c, 0, 64, 107
1, 270324, Control_c, 0, 64, 110
1, 270326, Note_off_c, 0, 74, 32
1, 270339, Control_c, 0, 64, 112
1, 270397, Control_c, 0, 64, 110
1, 270412, Control_c, 0, 64, 96
1, 270427, Control_c, 0, 64, 80
1, 270429, Note_on_c, 0, 79, 71
1, 270442, Control_c, 0, 64, 66
1, 270456, Note_on_c, 0, 75, 59
1, 270457, Control_c, 0, 64, 54
1, 270471, Control_c, 0, 64, 44
1, 270486, Control_c, 0, 64, 41
1, 270501, Control_c, 0, 64, 46
1, 270516, Control_c, 0, 64, 56
1, 270520, Note_off_c, 0, 77, 57
1, 270531, Control_c, 0, 64, 66
1, 270545, Control_c, 0, 64, 76
1, 270560, Control_c, 0, 64, 89
1, 270575, Control_c, 0, 64, 101
1, 270590, Control_c, 0, 64, 113
1, 270604, Note_off_c, 0, 75, 56
1, 270604, Control_c, 0, 64, 127
1, 270726, Note_off_c, 0, 39, 41
1, 270743, Note_off_c, 0, 51, 42
1, 270824, Note_on_c, 0, 75, 77
1, 270855, Note_on_c, 0, 72, 54
1, 271047, Note_off_c, 0, 72, 41
1, 271316, Note_on_c, 0, 74, 78
1, 271337, Note_on_c, 0, 63, 56
1, 271345, Note_on_c, 0, 53, 48
1, 271368, Control_c, 0, 64, 98
1, 271383, Control_c, 0, 64, 82
1, 271389, Note_on_c, 0, 69, 33
1, 271398, Control_c, 0, 64, 69
1, 271413, Control_c, 0, 64, 56
1, 271427, Control_c, 0, 64, 31
1, 271442, Control_c, 0, 64, 0
1, 271531, Control_c, 0, 64, 36
1, 271542, Note_off_c, 0, 79, 31
1, 271546, Control_c, 0, 64, 53
1, 271561, Control_c, 0, 64, 63
1, 271576, Control_c, 0, 64, 70
1, 271591, Control_c, 0, 64, 75
1, 271606, Control_c, 0, 64, 80
1, 271627, Control_c, 0, 64, 85
1, 271642, Control_c, 0, 64, 92
1, 271658, Control_c, 0, 64, 100
1, 271673, Control_c, 0, 64, 115
1, 271674, Note_off_c, 0, 75, 39
1, 271688, Control_c, 0, 64, 127
1, 271704, Note_off_c, 0, 69, 35
1, 271761, Note_off_c, 0, 53, 30
1, 271779, Note_on_c, 0, 72, 71
1, 271868, Note_off_c, 0, 74, 57
1, 271907, Note_off_c, 0, 72, 61
1, 272011, Note_off_c, 0, 63, 53
1, 272165, Note_on_c, 0, 75, 83
1, 272196, Note_on_c, 0, 62, 56
1, 272207, Control_c, 0, 64, 117
1, 272208, Note_on_c, 0, 58, 51
1, 272209, Note_on_c, 0, 70, 54
1, 272222, Control_c, 0, 64, 90
1, 272237, Control_c, 0, 64, 72
1, 272251, Control_c, 0, 64, 59
1, 272266, Control_c, 0, 64, 45
1, 272281, Control_c, 0, 64, 34
1, 272295, Control_c, 0, 64, 33
1, 272310, Control_c, 0, 64, 37
1, 272325, Control_c, 0, 64, 45
1, 272340, Control_c, 0, 64, 58
1, 272355, Control_c, 0, 64, 65
1, 272377, Control_c, 0, 64, 72
1, 272392, Control_c, 0, 64, 80
1, 272407, Control_c, 0, 64, 87
1, 272422, Control_c, 0, 64, 93
1, 272437, Control_c, 0, 64, 101
1, 272451, Control_c, 0, 64, 124
1, 272466, Control_c, 0, 64, 127
1, 272469, Note_off_c, 0, 62, 54
1, 272555, Note_off_c, 0, 58, 63
1, 272582, Note_on_c, 0, 74, 79
1, 272681, Note_off_c, 0, 70, 57
1, 272786, Note_off_c, 0, 75, 58
1, 272789, Note_off_c, 0, 74, 59
1, 272989, Note_on_c, 0, 79, 77
1, 273022, Note_on_c, 0, 57, 51
1, 273028, Note_on_c, 0, 45, 52
1, 273035, Note_on_c, 0, 72, 49
1, 273060, Control_c, 0, 64, 111
1, 273074, Control_c, 0, 64, 82
1, 273089, Control_c, 0, 64, 64
1, 273104, Control_c, 0, 64, 46
1, 273126, Control_c, 0, 64, 0
1, 273200, Control_c, 0, 64, 44
1, 273215, Control_c, 0, 64, 57
1, 273230, Control_c, 0, 64, 66
1, 273245, Control_c, 0, 64, 75
1, 273260, Control_c, 0, 64, 85
1, 273274, Control_c, 0, 64, 92
1, 273289, Control_c, 0, 64, 103
1, 273304, Control_c, 0, 64, 127
1, 273426, Note_off_c, 0, 57, 34
1, 273456, Note_on_c, 0, 77, 71
1, 273476, Note_off_c, 0, 72, 55
1, 273548, Note_off_c, 0, 79, 47
1, 273593, Note_off_c, 0, 77, 60
1, 273775, Note_off_c, 0, 45, 22
1, 273794, Control_c, 0, 67, 40
1, 273809, Control_c, 0, 67, 66
1, 273823, Control_c, 0, 67, 105
1, 273838, Control_c, 0, 67, 127
1, 274006, Note_on_c, 0, 84, 66
1, 274051, Note_on_c, 0, 74, 43
1, 274064, Note_on_c, 0, 43, 36
1, 274071, Note_on_c, 0, 55, 23
1, 274097, Control_c, 0, 64, 103
1, 274112, Control_c, 0, 64, 87
1, 274127, Control_c, 0, 64, 73
1, 274141, Control_c, 0, 64, 61
1, 274156, Control_c, 0, 64, 49
1, 274171, Control_c, 0, 64, 38
1, 274186, Control_c, 0, 64, 32
1, 274201, Control_c, 0, 64, 34
1, 274215, Control_c, 0, 64, 40
1, 274230, Control_c, 0, 64, 50
1, 274245, Control_c, 0, 64, 60
1, 274260, Control_c, 0, 64, 66
1, 274274, Control_c, 0, 64, 74
1, 274291, Control_c, 0, 64, 81
1, 274306, Control_c, 0, 64, 85
1, 274320, Control_c, 0, 64, 90
1, 274335, Control_c, 0, 64, 96
1, 274350, Control_c, 0, 64, 103
1, 274364, Control_c, 0, 64, 117
1, 274379, Control_c, 0, 64, 127
1, 274479, Note_on_c, 0, 82, 59
1, 274556, Note_off_c, 0, 84, 60
1, 274559, Note_off_c, 0, 74, 63
1, 274870, Note_on_c, 0, 81, 63
1, 274906, Note_on_c, 0, 70, 42
1, 274935, Poly_aftertouch_c, 0, 80, 127
1, 274953, Note_off_c, 0, 82, 61
1, 274968, Poly_aftertouch_c, 0, 80, 0
1, 275058, Note_off_c, 0, 43, 54
1, 275131, Note_off_c, 0, 55, 33
1, 275254, Note_on_c, 0, 79, 63
1, 275325, Note_off_c, 0, 81, 54
1, 275645, Note_on_c, 0, 77, 61
1, 275672, Note_on_c, 0, 60, 38
1, 275693, Note_on_c, 0, 55, 35
1, 275708, Note_off_c, 0, 79, 60
1, 275728, Control_c, 0, 64, 107
1, 275743, Control_c, 0, 64, 94
1, 275758, Control_c, 0, 64, 83
1, 275773, Control_c, 0, 64, 71
1, 275787, Control_c, 0, 64, 60
1, 275802, Control_c, 0, 64, 48
1, 275817, Control_c, 0, 64, 34
1, 275832, Control_c, 0, 64, 32
1, 275847, Control_c, 0, 64, 34
1, 275861, Control_c, 0, 64, 41
1, 275876, Control_c, 0, 64, 51
1, 275892, Control_c, 0, 64, 61
1, 275907, Control_c, 0, 64, 70
1, 275922, Control_c, 0, 64, 78
1, 275936, Control_c, 0, 64, 85
1, 275951, Control_c, 0, 64, 89
1, 275957, Note_off_c, 0, 77, 49
1, 275966, Control_c, 0, 64, 93
1, 275981, Control_c, 0, 64, 98
1, 275996, Control_c, 0, 64, 105
1, 276010, Control_c, 0, 64, 124
1, 276025, Control_c, 0, 64, 127
1, 276077, Note_on_c, 0, 76, 59
1, 276140, Note_off_c, 0, 55, 52
1, 276266, Note_off_c, 0, 70, 37
1, 276294, Note_off_c, 0, 76, 32
1, 276309, Note_off_c, 0, 60, 36
1, 276575, Note_on_c, 0, 79, 54
1, 276601, Note_on_c, 0, 70, 37
1, 276605, Note_on_c, 0, 64, 41
1, 276623, Note_on_c, 0, 53, 28
1, 276640, Control_c, 0, 64, 103
1, 276655, Control_c, 0, 64, 87
1, 276669, Control_c, 0, 64, 74
1, 276685, Control_c, 0, 64, 62
1, 276700, Control_c, 0, 64, 50
1, 276715, Control_c, 0, 64, 39
1, 276730, Control_c, 0, 64, 34
1, 276745, Control_c, 0, 64, 36
1, 276759, Control_c, 0, 64, 40
1, 276774, Control_c, 0, 64, 49
1, 276789, Control_c, 0, 64, 57
1, 276804, Control_c, 0, 64, 63
1, 276819, Control_c, 0, 64, 68
1, 276833, Control_c, 0, 64, 74
1, 276848, Control_c, 0, 64, 78
1, 276870, Control_c, 0, 64, 81
1, 276885, Control_c, 0, 64, 85
1, 276898, Control_c, 0, 64, 89
1, 276913, Control_c, 0, 64, 93
1, 276928, Control_c, 0, 64, 100
1, 276943, Control_c, 0, 64, 108
1, 276958, Control_c, 0, 64, 127
1, 277094, Note_off_c, 0, 70, 62
1, 277631, Note_on_c, 0, 77, 47
1, 277667, Note_on_c, 0, 65, 36
1, 277669, Note_on_c, 0, 69, 35
1, 277708, Control_c, 0, 64, 111
1, 277722, Control_c, 0, 64, 98
1, 277737, Control_c, 0, 64, 87
1, 277752, Control_c, 0, 64, 75
1, 277767, Control_c, 0, 64, 65
1, 277773, Note_off_c, 0, 79, 43
1, 277782, Control_c, 0, 64, 55
1, 277796, Control_c, 0, 64, 43
1, 277807, Note_off_c, 0, 64, 44
1, 277811, Control_c, 0, 64, 0
1, 277929, Control_c, 0, 64, 31
1, 277944, Control_c, 0, 64, 39
1, 277959, Control_c, 0, 64, 45
1, 277974, Control_c, 0, 64, 52
1, 277988, Control_c, 0, 64, 57
1, 278003, Control_c, 0, 64, 60
1, 278018, Control_c, 0, 64, 62
1, 278033, Control_c, 0, 64, 63
1, 278048, Control_c, 0, 64, 64
1, 278062, Control_c, 0, 64, 66
1, 278077, Control_c, 0, 64, 67
1, 278092, Control_c, 0, 64, 68
1, 278107, Control_c, 0, 64, 69
1, 278122, Control_c, 0, 64, 70
1, 278137, Control_c, 0, 64, 71
1, 278152, Control_c, 0, 64, 73
1, 278167, Control_c, 0, 64, 74
1, 278181, Control_c, 0, 64, 76
1, 278196, Control_c, 0, 64, 77
1, 278211, Control_c, 0, 64, 79
1, 278225, Control_c, 0, 64, 80
1, 278240, Control_c, 0, 64, 81
1, 278255, Control_c, 0, 64, 83
1, 278270, Control_c, 0, 64, 85
1, 278286, Control_c, 0, 64, 87
1, 278301, Control_c, 0, 64, 89
1, 278316, Control_c, 0, 64, 91
1, 278330, Control_c, 0, 64, 92
1, 278345, Control_c, 0, 64, 94
1, 278367, Control_c, 0, 64, 95
1, 278397, Control_c, 0, 64, 97
1, 278454, Note_off_c, 0, 65, 37
1, 278509, Note_off_c, 0, 69, 33
1, 278628, Note_off_c, 0, 53, 37
1, 278737, Control_c, 0, 64, 92
1, 278752, Control_c, 0, 64, 85
1, 278767, Control_c, 0, 64, 74
1, 278782, Control_c, 0, 64, 64
1, 278797, Control_c, 0, 64, 53
1, 278811, Control_c, 0, 64, 45
1, 278826, Control_c, 0, 64, 44
1, 278841, Control_c, 0, 64, 45
1, 278855, Control_c, 0, 64, 50
1, 278870, Control_c, 0, 64, 57
1, 278885, Control_c, 0, 64, 63
1, 278900, Control_c, 0, 64, 67
1, 278915, Control_c, 0, 64, 71
1, 278930, Control_c, 0, 64, 74
1, 278945, Control_c, 0, 64, 76
1, 278960, Control_c, 0, 64, 77
1, 278974, Control_c, 0, 64, 78
1, 278986, Note_on_c, 0, 79, 38
1, 278989, Control_c, 0, 64, 80
1, 279004, Control_c, 0, 64, 81
1, 279019, Control_c, 0, 64, 82
1, 279034, Control_c, 0, 64, 84
1, 279049, Control_c, 0, 64, 85
1, 279063, Control_c, 0, 64, 87
1, 279079, Control_c, 0, 64, 89
1, 279094, Control_c, 0, 64, 92
1, 279116, Control_c, 0, 64, 94
1, 279131, Control_c, 0, 64, 95
1, 279146, Control_c, 0, 64, 97
1, 279175, Control_c, 0, 64, 100
1, 279192, Note_on_c, 0, 75, 49
1, 279205, Control_c, 0, 64, 102
1, 279234, Control_c, 0, 64, 104
1, 279265, Note_off_c, 0, 79, 45
1, 279290, Note_off_c, 0, 77, 37
1, 279293, Control_c, 0, 64, 106
1, 279345, Note_off_c, 0, 75, 57
1, 279376, Note_on_c, 0, 72, 36
1, 279586, Note_on_c, 0, 70, 49
1, 279590, Control_c, 0, 64, 104
1, 279605, Control_c, 0, 64, 102
1, 279615, Note_on_c, 0, 62, 39
1, 279620, Control_c, 0, 64, 99
1, 279627, Note_on_c, 0, 58, 34
1, 279634, Control_c, 0, 64, 95
1, 279649, Control_c, 0, 64, 90
1, 279664, Control_c, 0, 64, 84
1, 279677, Note_off_c, 0, 72, 47
1, 279678, Control_c, 0, 64, 76
1, 279693, Control_c, 0, 64, 66
1, 279708, Control_c, 0, 64, 56
1, 279723, Control_c, 0, 64, 46
1, 279738, Control_c, 0, 64, 37
1, 279753, Control_c, 0, 64, 31
1, 279797, Control_c, 0, 64, 34
1, 279812, Control_c, 0, 64, 38
1, 279827, Control_c, 0, 64, 44
1, 279842, Control_c, 0, 64, 51
1, 279864, Control_c, 0, 64, 56
1, 279879, Control_c, 0, 64, 60
1, 279895, Control_c, 0, 64, 63
1, 279909, Control_c, 0, 64, 64
1, 279924, Control_c, 0, 64, 66
1, 279939, Control_c, 0, 64, 67
1, 279954, Control_c, 0, 64, 69
1, 279969, Control_c, 0, 64, 70
1, 279983, Control_c, 0, 64, 71
1, 279998, Control_c, 0, 64, 72
1, 280013, Control_c, 0, 64, 74
1, 280028, Control_c, 0, 64, 76
1, 280043, Control_c, 0, 64, 77
1, 280057, Control_c, 0, 64, 78
1, 280072, Control_c, 0, 64, 79
1, 280087, Control_c, 0, 64, 81
1, 280101, Control_c, 0, 64, 83
1, 280109, Note_off_c, 0, 62, 47
1, 280116, Control_c, 0, 64, 84
1, 280131, Control_c, 0, 64, 86
1, 280146, Control_c, 0, 64, 87
1, 280161, Control_c, 0, 64, 89
1, 280176, Control_c, 0, 64, 90
1, 280191, Control_c, 0, 64, 91
1, 280206, Control_c, 0, 64, 93
1, 280221, Control_c, 0, 64, 94
1, 280235, Control_c, 0, 64, 95
1, 280250, Control_c, 0, 64, 96
1, 280359, Note_on_c, 0, 69, 55
1, 280376, Note_on_c, 0, 63, 48
1, 280377, Note_on_c, 0, 60, 46
1, 280398, Control_c, 0, 64, 95
1, 280413, Control_c, 0, 64, 94
1, 280428, Control_c, 0, 64, 92
1, 280443, Control_c, 0, 64, 88
1, 280457, Control_c, 0, 64, 83
1, 280472, Control_c, 0, 64, 77
1, 280487, Control_c, 0, 64, 68
1, 280501, Control_c, 0, 64, 58
1, 280516, Control_c, 0, 64, 47
1, 280525, Note_off_c, 0, 58, 38
1, 280531, Control_c, 0, 64, 34
1, 280546, Control_c, 0, 64, 0
1, 280569, Note_off_c, 0, 70, 36
1, 280717, Control_c, 0, 64, 32
1, 280717, Control_c, 0, 67, 122
1, 280731, Control_c, 0, 64, 45
1, 280731, Control_c, 0, 67, 102
1, 280746, Control_c, 0, 64, 56
1, 280746, Control_c, 0, 67, 78
1, 280761, Control_c, 0, 64, 63
1, 280761, Control_c, 0, 67, 45
1, 280776, Control_c, 0, 64, 67
1, 280776, Control_c, 0, 67, 0
1, 280791, Control_c, 0, 64, 69
1, 280805, Control_c, 0, 64, 72
1, 280820, Control_c, 0, 64, 74
1, 280835, Control_c, 0, 64, 77
1, 280850, Control_c, 0, 64, 81
1, 280865, Control_c, 0, 64, 84
1, 280879, Control_c, 0, 64, 89
1, 280894, Control_c, 0, 64, 93
1, 280909, Control_c, 0, 64, 100
1, 280924, Control_c, 0, 64, 106
1, 280939, Control_c, 0, 64, 115
1, 280954, Control_c, 0, 64, 127
1, 281008, Note_off_c, 0, 63, 30
1, 281147, Note_on_c, 0, 70, 67
1, 281158, Note_on_c, 0, 65, 48
1, 281159, Note_on_c, 0, 62, 51
1, 281176, Control_c, 0, 64, 105
1, 281191, Control_c, 0, 64, 91
1, 281205, Control_c, 0, 64, 77
1, 281220, Control_c, 0, 64, 63
1, 281235, Control_c, 0, 64, 50
1, 281237, Note_off_c, 0, 60, 42
1, 281249, Control_c, 0, 64, 40
1, 281255, Note_off_c, 0, 69, 39
1, 281264, Control_c, 0, 64, 37
1, 281279, Control_c, 0, 64, 39
1, 281294, Control_c, 0, 64, 46
1, 281309, Control_c, 0, 64, 56
1, 281323, Control_c, 0, 64, 62
1, 281338, Control_c, 0, 64, 67
1, 281361, Control_c, 0, 64, 72
1, 281376, Control_c, 0, 64, 76
1, 281392, Control_c, 0, 64, 79
1, 281406, Control_c, 0, 64, 81
1, 281421, Control_c, 0, 64, 85
1, 281436, Control_c, 0, 64, 89
1, 281451, Control_c, 0, 64, 95
1, 281464, Note_off_c, 0, 70, 34
1, 281465, Control_c, 0, 64, 102
1, 281472, Note_off_c, 0, 62, 31
1, 281481, Note_off_c, 0, 65, 28
1, 281481, Control_c, 0, 64, 114
1, 281496, Control_c, 0, 64, 127
1, 282066, Note_on_c, 0, 64, 71
1, 282087, Note_on_c, 0, 61, 59
1, 282111, Note_on_c, 0, 55, 53
1, 282274, Control_c, 0, 64, 112
1, 282289, Control_c, 0, 64, 104
1, 282304, Control_c, 0, 64, 99
1, 282319, Control_c, 0, 64, 95
1, 282334, Control_c, 0, 64, 93
1, 282349, Control_c, 0, 64, 90
1, 282364, Control_c, 0, 64, 87
1, 282378, Control_c, 0, 64, 84
1, 282393, Control_c, 0, 64, 81
1, 282408, Control_c, 0, 64, 79
1, 282423, Control_c, 0, 64, 76
1, 282438, Control_c, 0, 64, 73
1, 282452, Control_c, 0, 64, 70
1, 282467, Control_c, 0, 64, 67
1, 282482, Control_c, 0, 64, 65
1, 282497, Control_c, 0, 64, 64
1, 282511, Control_c, 0, 64, 63
1, 282526, Control_c, 0, 64, 62
1, 282556, Control_c, 0, 64, 61
1, 282571, Control_c, 0, 67, 39
1, 282585, Control_c, 0, 67, 51
1, 282600, Control_c, 0, 64, 61
1, 282600, Control_c, 0, 67, 68
1, 282615, Control_c, 0, 64, 60
1, 282615, Control_c, 0, 67, 88
1, 282630, Control_c, 0, 64, 60
1, 282630, Control_c, 0, 67, 109
1, 282645, Control_c, 0, 67, 127
1, 282659, Control_c, 0, 64, 59
1, 282689, Control_c, 0, 64, 59
1, 282704, Control_c, 0, 64, 58
1, 282719, Control_c, 0, 64, 58
1, 282733, Control_c, 0, 64, 57
1, 282748, Control_c, 0, 64, 56
1, 282763, Control_c, 0, 64, 55
1, 282778, Control_c, 0, 64, 54
1, 282793, Control_c, 0, 64, 52
1, 282808, Control_c, 0, 64, 50
1, 282822, Control_c, 0, 64, 48
1, 282837, Control_c, 0, 64, 46
1, 282859, Control_c, 0, 64, 42
1, 282874, Control_c, 0, 64, 38
1, 282889, Control_c, 0, 64, 34
1, 282903, Control_c, 0, 64, 30
1, 282918, Control_c, 0, 64, 0
1, 282923, Note_on_c, 0, 60, 39
1, 283019, Note_off_c, 0, 61, 32
1, 283723, Note_on_c, 0, 72, 57
1, 283744, Note_on_c, 0, 58, 40
1, 283909, Note_off_c, 0, 64, 43
1, 283920, Note_off_c, 0, 60, 35
1, 283935, Control_c, 0, 64, 31
1, 283950, Control_c, 0, 64, 42
1, 283965, Control_c, 0, 64, 54
1, 283979, Control_c, 0, 64, 62
1, 283994, Control_c, 0, 64, 65
1, 284009, Control_c, 0, 64, 67
1, 284024, Control_c, 0, 64, 68
1, 284039, Control_c, 0, 64, 69
1, 284054, Control_c, 0, 64, 71
1, 284069, Control_c, 0, 64, 73
1, 284083, Control_c, 0, 64, 76
1, 284098, Control_c, 0, 64, 79
1, 284113, Control_c, 0, 64, 82
1, 284128, Control_c, 0, 64, 85
1, 284143, Control_c, 0, 64, 89
1, 284157, Control_c, 0, 64, 91
1, 284172, Control_c, 0, 64, 94
1, 284187, Control_c, 0, 64, 97
1, 284202, Control_c, 0, 64, 100
1, 284217, Control_c, 0, 64, 102
1, 284231, Control_c, 0, 64, 104
1, 284261, Control_c, 0, 64, 107
1, 284266, Note_off_c, 0, 55, 36
1, 284335, Control_c, 0, 64, 109
1, 284580, Control_c, 0, 64, 107
1, 284609, Control_c, 0, 64, 105
1, 284624, Control_c, 0, 64, 103
1, 284639, Control_c, 0, 64, 100
1, 284641, Note_off_c, 0, 72, 53
1, 284654, Control_c, 0, 64, 96
1, 284658, Note_on_c, 0, 71, 43
1, 284663, Note_on_c, 0, 53, 33
1, 284670, Control_c, 0, 64, 92
1, 284685, Control_c, 0, 64, 87
1, 284699, Control_c, 0, 64, 82
1, 284714, Control_c, 0, 64, 76
1, 284729, Control_c, 0, 64, 70
1, 284732, Note_off_c, 0, 71, 54
1, 284744, Control_c, 0, 64, 63
1, 284751, Note_on_c, 0, 72, 45
1, 284759, Control_c, 0, 64, 56
1, 284773, Control_c, 0, 64, 50
1, 284788, Control_c, 0, 64, 43
1, 284802, Note_off_c, 0, 72, 57
1, 284803, Control_c, 0, 64, 36
1, 284818, Control_c, 0, 64, 30
1, 284829, Note_on_c, 0, 74, 50
1, 284833, Control_c, 0, 64, 0
1, 284926, Note_on_c, 0, 72, 55
1, 284987, Note_off_c, 0, 74, 56
1, 285463, Note_on_c, 0, 57, 21
1, 285572, Note_off_c, 0, 58, 41
1, 285854, Control_c, 0, 64, 32
1, 285869, Control_c, 0, 64, 43
1, 285884, Control_c, 0, 64, 52
1, 285892, Note_on_c, 0, 70, 44
1, 285899, Control_c, 0, 64, 58
1, 285914, Control_c, 0, 64, 61
1, 285929, Control_c, 0, 64, 63
1, 285944, Control_c, 0, 64, 65
1, 285959, Control_c, 0, 64, 67
1, 285974, Control_c, 0, 64, 68
1, 285989, Control_c, 0, 64, 70
1, 286003, Control_c, 0, 64, 72
1, 286003, Note_off_c, 0, 72, 39
1, 286018, Control_c, 0, 64, 74
1, 286033, Control_c, 0, 64, 75
1, 286047, Control_c, 0, 64, 77
1, 286062, Control_c, 0, 64, 79
1, 286072, Note_off_c, 0, 70, 55
1, 286077, Control_c, 0, 64, 80
1, 286083, Note_on_c, 0, 69, 42
1, 286092, Control_c, 0, 64, 80
1, 286107, Control_c, 0, 64, 81
1, 286121, Control_c, 0, 64, 82
1, 286136, Control_c, 0, 64, 82
1, 286166, Control_c, 0, 64, 83
1, 286195, Control_c, 0, 64, 83
1, 286257, Note_on_c, 0, 67, 56
1, 286300, Note_off_c, 0, 69, 38
1, 286322, Note_off_c, 0, 57, 41
1, 286400, Note_off_c, 0, 53, 31
1, 286426, Note_on_c, 0, 65, 58
1, 286471, Note_off_c, 0, 67, 57
1, 286537, Control_c, 0, 64, 83
1, 286552, Control_c, 0, 64, 82
1, 286567, Control_c, 0, 64, 81
1, 286582, Control_c, 0, 64, 78
1, 286596, Note_on_c, 0, 63, 60
1, 286600, Note_on_c, 0, 58, 43
1, 286604, Control_c, 0, 64, 75
1, 286618, Control_c, 0, 64, 70
1, 286631, Note_on_c, 0, 55, 36
1, 286633, Control_c, 0, 64, 62
1, 286648, Control_c, 0, 64, 51
1, 286652, Note_off_c, 0, 65, 56
1, 286663, Control_c, 0, 64, 39
1, 286677, Control_c, 0, 64, 0
1, 286752, Control_c, 0, 64, 37
1, 286767, Control_c, 0, 64, 49
1, 286781, Control_c, 0, 64, 59
1, 286787, Note_on_c, 0, 67, 64
1, 286796, Control_c, 0, 64, 64
1, 286811, Control_c, 0, 64, 67
1, 286826, Control_c, 0, 64, 70
1, 286826, Note_off_c, 0, 63, 58
1, 286836, Note_off_c, 0, 58, 51
1, 286841, Control_c, 0, 64, 72
1, 286856, Note_off_c, 0, 55, 47
1, 286856, Control_c, 0, 64, 74
1, 286870, Control_c, 0, 64, 76
1, 286885, Control_c, 0, 64, 76
1, 286900, Control_c, 0, 64, 77
1, 286959, Control_c, 0, 64, 76
1, 286974, Control_c, 0, 64, 75
1, 286980, Note_on_c, 0, 65, 60
1, 286989, Control_c, 0, 64, 70
1, 287003, Control_c, 0, 64, 61
1, 287006, Note_off_c, 0, 67, 54
1, 287009, Note_on_c, 0, 60, 41
1, 287018, Control_c, 0, 64, 46
1, 287020, Note_on_c, 0, 57, 36
1, 287033, Control_c, 0, 64, 0
1, 287079, Control_c, 0, 64, 29
1, 287093, Control_c, 0, 64, 41
1, 287108, Control_c, 0, 64, 54
1, 287123, Control_c, 0, 64, 63
1, 287138, Control_c, 0, 64, 71
1, 287153, Control_c, 0, 64, 77
1, 287167, Control_c, 0, 64, 80
1, 287182, Control_c, 0, 64, 82
1, 287197, Control_c, 0, 64, 84
1, 287204, Note_off_c, 0, 65, 57
1, 287212, Control_c, 0, 64, 86
1, 287227, Control_c, 0, 64, 87
1, 287241, Control_c, 0, 64, 89
1, 287256, Control_c, 0, 64, 90
1, 287271, Control_c, 0, 64, 90
1, 287300, Control_c, 0, 64, 91
1, 287368, Control_c, 0, 64, 90
1, 287390, Note_on_c, 0, 63, 56
1, 287432, Note_off_c, 0, 63, 60
1, 287442, Control_c, 0, 64, 90
1, 287457, Note_on_c, 0, 65, 51
1, 287457, Control_c, 0, 64, 89
1, 287472, Control_c, 0, 64, 88
1, 287487, Control_c, 0, 64, 88
1, 287493, Note_off_c, 0, 65, 63
1, 287501, Control_c, 0, 64, 87
1, 287516, Control_c, 0, 64, 87
1, 287517, Note_on_c, 0, 63, 60
1, 287531, Control_c, 0, 64, 86
1, 287545, Note_off_c, 0, 63, 63
1, 287546, Control_c, 0, 64, 85
1, 287561, Control_c, 0, 64, 84
1, 287574, Note_on_c, 0, 65, 53
1, 287575, Control_c, 0, 64, 83
1, 287590, Control_c, 0, 64, 81
1, 287605, Control_c, 0, 64, 79
1, 287616, Note_off_c, 0, 65, 59
1, 287619, Note_on_c, 0, 63, 57
1, 287619, Control_c, 0, 64, 76
1, 287634, Control_c, 0, 64, 73
1, 287649, Control_c, 0, 64, 69
1, 287664, Control_c, 0, 64, 65
1, 287667, Note_off_c, 0, 63, 63
1, 287679, Control_c, 0, 64, 62
1, 287689, Note_on_c, 0, 62, 53
1, 287694, Control_c, 0, 64, 58
1, 287709, Control_c, 0, 64, 56
1, 287723, Control_c, 0, 64, 55
1, 287738, Note_off_c, 0, 62, 57
1, 287738, Control_c, 0, 64, 54
1, 287759, Note_on_c, 0, 63, 46
1, 287768, Control_c, 0, 64, 54
1, 287783, Control_c, 0, 64, 52
1, 287788, Note_off_c, 0, 57, 40
1, 287798, Control_c, 0, 64, 50
1, 287813, Control_c, 0, 64, 46
1, 287827, Control_c, 0, 64, 38
1, 287842, Control_c, 0, 64, 0
1, 287866, Note_on_c, 0, 62, 51
1, 287896, Note_on_c, 0, 58, 45
1, 287902, Note_off_c, 0, 63, 37
1, 287904, Note_off_c, 0, 60, 35
1, 287991, Control_c, 0, 64, 30
1, 288006, Control_c, 0, 64, 43
1, 288021, Control_c, 0, 64, 55
1, 288036, Control_c, 0, 64, 63
1, 288050, Control_c, 0, 64, 67
1, 288065, Control_c, 0, 64, 70
1, 288080, Control_c, 0, 64, 73
1, 288102, Control_c, 0, 64, 75
1, 288102, Control_c, 0, 67, 105
1, 288117, Control_c, 0, 64, 79
1, 288117, Control_c, 0, 67, 79
1, 288132, Control_c, 0, 64, 83
1, 288132, Control_c, 0, 67, 49
1, 288147, Control_c, 0, 64, 87
1, 288147, Control_c, 0, 67, 0
1, 288162, Control_c, 0, 64, 92
1, 288177, Control_c, 0, 64, 97
1, 288191, Control_c, 0, 64, 106
1, 288206, Control_c, 0, 64, 127
1, 288209, Note_off_c, 0, 62, 28
1, 288212, Note_off_c, 0, 58, 32
1, 288725, Control_c, 0, 64, 109
1, 288729, Note_on_c, 0, 74, 57
1, 288740, Control_c, 0, 64, 99
1, 288749, Note_on_c, 0, 65, 38
1, 288755, Control_c, 0, 64, 90
1, 288770, Control_c, 0, 64, 80
1, 288785, Control_c, 0, 64, 72
1, 288800, Control_c, 0, 64, 65
1, 288814, Control_c, 0, 64, 57
1, 288829, Control_c, 0, 64, 50
1, 288851, Control_c, 0, 64, 43
1, 288851, Control_c, 0, 67, 36
1, 288866, Control_c, 0, 64, 39
1, 288866, Control_c, 0, 67, 37
1, 288880, Control_c, 0, 64, 37
1, 288880, Control_c, 0, 67, 41
1, 288895, Control_c, 0, 64, 36
1, 288895, Control_c, 0, 67, 43
1, 288910, Control_c, 0, 64, 36
1, 288910, Control_c, 0, 67, 44
1, 288925, Control_c, 0, 67, 45
1, 288940, Control_c, 0, 64, 35
1, 288940, Control_c, 0, 67, 46
1, 288954, Control_c, 0, 67, 50
1, 288969, Control_c, 0, 64, 35
1, 288969, Control_c, 0, 67, 60
1, 288984, Control_c, 0, 64, 34
1, 288984, Control_c, 0, 67, 67
1, 288998, Control_c, 0, 64, 34
1, 288998, Control_c, 0, 67, 69
1, 289013, Control_c, 0, 67, 70
1, 289028, Control_c, 0, 67, 70
1, 289132, Control_c, 0, 67, 70
1, 289190, Control_c, 0, 67, 69
1, 289250, Control_c, 0, 67, 70
1, 289265, Control_c, 0, 64, 34
1, 289265, Control_c, 0, 67, 70
1, 289279, Control_c, 0, 67, 71
1, 289294, Control_c, 0, 67, 72
1, 289309, Control_c, 0, 67, 73
1, 289324, Control_c, 0, 64, 35
1, 289324, Control_c, 0, 67, 74
1, 289339, Control_c, 0, 64, 35
1, 289339, Control_c, 0, 67, 76
1, 289354, Control_c, 0, 67, 93
1, 289369, Control_c, 0, 67, 124
1, 289384, Control_c, 0, 67, 127
1, 289562, Control_c, 0, 64, 36
1, 289567, Note_on_c, 0, 48, 48
1, 289577, Control_c, 0, 64, 37
1, 289581, Note_on_c, 0, 36, 41
1, 289599, Control_c, 0, 64, 40
1, 289614, Control_c, 0, 64, 45
1, 289628, Control_c, 0, 64, 50
1, 289643, Control_c, 0, 64, 55
1, 289658, Control_c, 0, 64, 59
1, 289663, Note_off_c, 0, 65, 49
1, 289673, Control_c, 0, 64, 63
1, 289688, Control_c, 0, 64, 66
1, 289702, Control_c, 0, 64, 68
1, 289717, Control_c, 0, 64, 71
1, 289732, Control_c, 0, 64, 73
1, 289747, Control_c, 0, 64, 76
1, 289762, Control_c, 0, 64, 78
1, 289776, Control_c, 0, 64, 81
1, 289791, Control_c, 0, 64, 84
1, 289806, Control_c, 0, 64, 87
1, 289820, Control_c, 0, 64, 89
1, 289835, Control_c, 0, 64, 92
1, 289850, Control_c, 0, 64, 94
1, 289865, Control_c, 0, 64, 96
1, 289880, Control_c, 0, 64, 98
1, 289893, Note_off_c, 0, 74, 38
1, 289894, Control_c, 0, 64, 100
1, 289924, Control_c, 0, 64, 103
1, 289939, Control_c, 0, 64, 105
1, 289968, Control_c, 0, 64, 109
1, 289983, Control_c, 0, 64, 111
1, 289998, Control_c, 0, 64, 114
1, 290007, Note_on_c, 0, 71, 43
1, 290013, Control_c, 0, 64, 120
1, 290013, Note_on_c, 0, 62, 33
1, 290028, Control_c, 0, 64, 127
1, 290138, Note_off_c, 0, 71, 59
1, 290391, Note_on_c, 0, 72, 63
1, 290421, Control_c, 0, 64, 103
1, 290423, Note_on_c, 0, 63, 62
1, 290436, Control_c, 0, 64, 90
1, 290451, Control_c, 0, 64, 85
1, 290466, Control_c, 0, 64, 84
1, 290507, Note_off_c, 0, 62, 43
1, 290525, Control_c, 0, 64, 85
1, 290537, Note_off_c, 0, 63, 59
1, 290540, Control_c, 0, 64, 89
1, 290555, Control_c, 0, 64, 94
1, 290570, Control_c, 0, 64, 101
1, 290585, Control_c, 0, 64, 112
1, 290599, Control_c, 0, 64, 127
1, 290660, Note_off_c, 0, 72, 62
1, 290790, Note_on_c, 0, 74, 70
1, 290810, Note_on_c, 0, 65, 51
1, 290836, Control_c, 0, 64, 104
1, 290850, Control_c, 0, 64, 85
1, 290865, Control_c, 0, 64, 71
1, 290865, Control_c, 0, 67, 125
1, 290880, Control_c, 0, 64, 61
1, 290880, Control_c, 0, 67, 107
1, 290895, Control_c, 0, 64, 55
1, 290895, Control_c, 0, 67, 86
1, 290910, Control_c, 0, 64, 54
1, 290910, Control_c, 0, 67, 58
1, 290925, Control_c, 0, 64, 56
1, 290925, Control_c, 0, 67, 0
1, 290940, Control_c, 0, 64, 60
1, 290955, Control_c, 0, 64, 64
1, 290960, Note_off_c, 0, 74, 58
1, 290969, Control_c, 0, 64, 70
1, 290984, Control_c, 0, 64, 78
1, 290999, Control_c, 0, 64, 86
1, 291014, Control_c, 0, 64, 94
1, 291029, Control_c, 0, 64, 100
1, 291043, Control_c, 0, 64, 109
1, 291059, Control_c, 0, 64, 127
1, 291160, Note_on_c, 0, 75, 70
1, 291188, Note_on_c, 0, 67, 53
1, 291199, Control_c, 0, 64, 104
1, 291214, Control_c, 0, 64, 86
1, 291229, Control_c, 0, 64, 69
1, 291244, Control_c, 0, 64, 57
1, 291259, Control_c, 0, 64, 47
1, 291274, Control_c, 0, 64, 42
1, 291289, Control_c, 0, 64, 43
1, 291304, Control_c, 0, 64, 50
1, 291318, Control_c, 0, 64, 61
1, 291333, Control_c, 0, 64, 69
1, 291348, Control_c, 0, 64, 78
1, 291352, Note_off_c, 0, 67, 61
1, 291363, Control_c, 0, 64, 88
1, 291378, Control_c, 0, 64, 94
1, 291392, Control_c, 0, 64, 100
1, 291399, Note_off_c, 0, 48, 39
1, 291407, Control_c, 0, 64, 109
1, 291411, Note_off_c, 0, 36, 36
1, 291422, Control_c, 0, 64, 127
1, 291442, Note_off_c, 0, 65, 35
1, 291557, Note_on_c, 0, 72, 71
1, 291665, Note_off_c, 0, 72, 58
1, 291956, Note_on_c, 0, 70, 68
1, 291989, Note_on_c, 0, 63, 50
1, 292003, Note_on_c, 0, 60, 45
1, 292037, Control_c, 0, 64, 102
1, 292052, Control_c, 0, 64, 87
1, 292067, Control_c, 0, 64, 74
1, 292082, Control_c, 0, 64, 63
1, 292096, Control_c, 0, 64, 52
1, 292111, Control_c, 0, 64, 37
1, 292126, Control_c, 0, 64, 0
1, 292304, Control_c, 0, 64, 34
1, 292319, Control_c, 0, 64, 43
1, 292334, Control_c, 0, 64, 52
1, 292349, Note_on_c, 0, 69, 63
1, 292349, Control_c, 0, 64, 59
1, 292363, Control_c, 0, 64, 62
1, 292378, Control_c, 0, 64, 65
1, 292393, Control_c, 0, 64, 66
1, 292407, Control_c, 0, 64, 69
1, 292420, Note_off_c, 0, 70, 63
1, 292422, Control_c, 0, 64, 71
1, 292437, Control_c, 0, 64, 75
1, 292452, Control_c, 0, 64, 80
1, 292467, Control_c, 0, 64, 86
1, 292476, Note_off_c, 0, 75, 34
1, 292481, Control_c, 0, 64, 93
1, 292496, Control_c, 0, 64, 103
1, 292511, Control_c, 0, 64, 122
1, 292526, Control_c, 0, 64, 127
1, 292558, Note_off_c, 0, 63, 55
1, 292726, Note_on_c, 0, 72, 58
1, 292757, Control_c, 0, 64, 112
1, 292758, Note_on_c, 0, 62, 37
1, 292767, Note_on_c, 0, 65, 38
1, 292772, Control_c, 0, 64, 99
1, 292786, Control_c, 0, 64, 89
1, 292801, Control_c, 0, 64, 80
1, 292816, Control_c, 0, 64, 70
1, 292831, Control_c, 0, 64, 60
1, 292845, Note_off_c, 0, 69, 38
1, 292845, Control_c, 0, 64, 44
1, 292860, Control_c, 0, 64, 0
1, 292868, Note_off_c, 0, 60, 36
1, 293083, Control_c, 0, 64, 36
1, 293098, Control_c, 0, 64, 48
1, 293111, Note_on_c, 0, 70, 55
1, 293112, Control_c, 0, 64, 58
1, 293127, Control_c, 0, 64, 64
1, 293142, Control_c, 0, 64, 66
1, 293146, Note_off_c, 0, 72, 59
1, 293156, Control_c, 0, 64, 69
1, 293171, Control_c, 0, 64, 73
1, 293186, Control_c, 0, 64, 78
1, 293193, Note_off_c, 0, 70, 65
1, 293201, Control_c, 0, 64, 82
1, 293216, Control_c, 0, 64, 87
1, 293230, Control_c, 0, 64, 90
1, 293245, Control_c, 0, 64, 94
1, 293260, Control_c, 0, 64, 100
1, 293275, Control_c, 0, 64, 106
1, 293290, Control_c, 0, 64, 114
1, 293304, Control_c, 0, 64, 127
1, 293574, Note_on_c, 0, 77, 80
1, 293594, Control_c, 0, 64, 119
1, 293609, Control_c, 0, 64, 109
1, 293615, Note_on_c, 0, 74, 46
1, 293624, Control_c, 0, 64, 101
1, 293639, Control_c, 0, 64, 94
1, 293654, Control_c, 0, 64, 86
1, 293668, Control_c, 0, 64, 77
1, 293683, Control_c, 0, 64, 70
1, 293694, Note_off_c, 0, 65, 37
1, 293698, Control_c, 0, 64, 63
1, 293700, Note_off_c, 0, 62, 53
1, 293713, Control_c, 0, 64, 55
1, 293728, Control_c, 0, 64, 48
1, 293742, Control_c, 0, 64, 41
1, 293757, Control_c, 0, 64, 34
1, 293772, Control_c, 0, 64, 0
1, 294284, Control_c, 0, 64, 30
1, 294299, Control_c, 0, 64, 35
1, 294314, Control_c, 0, 64, 40
1, 294329, Control_c, 0, 64, 46
1, 294344, Control_c, 0, 64, 51
1, 294359, Control_c, 0, 64, 55
1, 294374, Control_c, 0, 64, 58
1, 294389, Control_c, 0, 64, 59
1, 294404, Control_c, 0, 64, 61
1, 294418, Control_c, 0, 64, 61
1, 294433, Control_c, 0, 64, 62
1, 294448, Control_c, 0, 64, 63
1, 294455, Note_on_c, 0, 51, 52
1, 294462, Note_on_c, 0, 39, 49
1, 294463, Control_c, 0, 64, 64
1, 294478, Control_c, 0, 64, 64
1, 294492, Control_c, 0, 64, 66
1, 294507, Control_c, 0, 64, 67
1, 294522, Control_c, 0, 64, 69
1, 294537, Control_c, 0, 64, 71
1, 294552, Control_c, 0, 64, 74
1, 294566, Control_c, 0, 64, 77
1, 294581, Control_c, 0, 64, 81
1, 294596, Control_c, 0, 64, 86
1, 294610, Control_c, 0, 64, 92
1, 294625, Control_c, 0, 64, 100
1, 294640, Control_c, 0, 64, 113
1, 294655, Control_c, 0, 64, 127
1, 294683, Note_off_c, 0, 74, 59
1, 294903, Note_on_c, 0, 74, 60
1, 294954, Note_on_c, 0, 71, 37
1, 295083, Note_off_c, 0, 77, 61
1, 295176, Note_off_c, 0, 71, 40
1, 295281, Note_on_c, 0, 75, 73
1, 295320, Note_on_c, 0, 72, 50
1, 295419, Control_c, 0, 64, 106
1, 295433, Control_c, 0, 64, 89
1, 295448, Control_c, 0, 64, 75
1, 295463, Control_c, 0, 64, 63
1, 295478, Control_c, 0, 64, 50
1, 295493, Control_c, 0, 64, 40
1, 295495, Note_off_c, 0, 74, 56
1, 295507, Control_c, 0, 64, 35
1, 295522, Control_c, 0, 64, 37
1, 295537, Control_c, 0, 64, 42
1, 295551, Control_c, 0, 64, 51
1, 295566, Control_c, 0, 64, 60
1, 295589, Control_c, 0, 64, 66
1, 295604, Control_c, 0, 64, 72
1, 295618, Control_c, 0, 64, 78
1, 295632, Control_c, 0, 64, 81
1, 295647, Control_c, 0, 64, 84
1, 295654, Note_on_c, 0, 77, 75
1, 295662, Control_c, 0, 64, 88
1, 295677, Control_c, 0, 64, 93
1, 295692, Control_c, 0, 64, 100
1, 295693, Note_on_c, 0, 74, 64
1, 295706, Control_c, 0, 64, 115
1, 295721, Control_c, 0, 64, 127
1, 295793, Note_off_c, 0, 75, 57
1, 295821, Note_off_c, 0, 72, 29
1, 295943, Note_off_c, 0, 74, 39
1, 296023, Note_on_c, 0, 79, 75
1, 296039, Note_on_c, 0, 75, 67
1, 296048, Control_c, 0, 64, 120
1, 296063, Control_c, 0, 64, 93
1, 296078, Control_c, 0, 64, 81
1, 296093, Control_c, 0, 64, 75
1, 296108, Control_c, 0, 64, 74
1, 296137, Control_c, 0, 64, 76
1, 296152, Control_c, 0, 64, 80
1, 296167, Control_c, 0, 64, 85
1, 296178, Note_off_c, 0, 77, 58
1, 296181, Control_c, 0, 64, 92
1, 296196, Control_c, 0, 64, 100
1, 296211, Note_off_c, 0, 75, 61
1, 296211, Control_c, 0, 64, 115
1, 296226, Control_c, 0, 64, 127
1, 296230, Note_off_c, 0, 51, 48
1, 296276, Note_off_c, 0, 39, 35
1, 296407, Note_on_c, 0, 75, 79
1, 296457, Note_on_c, 0, 72, 44
1, 296533, Note_off_c, 0, 72, 56
1, 296850, Note_on_c, 0, 74, 80
1, 296878, Note_on_c, 0, 63, 66
1, 296878, Note_on_c, 0, 53, 55
1, 296904, Note_on_c, 0, 69, 37
1, 296916, Control_c, 0, 64, 104
1, 296931, Control_c, 0, 64, 81
1, 296945, Control_c, 0, 64, 66
1, 296960, Control_c, 0, 64, 50
1, 296975, Control_c, 0, 64, 0
1, 297086, Control_c, 0, 64, 43
1, 297101, Control_c, 0, 64, 57
1, 297101, Note_off_c, 0, 69, 43
1, 297116, Control_c, 0, 64, 65
1, 297120, Note_off_c, 0, 79, 35
1, 297131, Control_c, 0, 64, 72
1, 297146, Control_c, 0, 64, 79
1, 297161, Control_c, 0, 64, 84
1, 297176, Control_c, 0, 64, 91
1, 297191, Control_c, 0, 64, 100
1, 297205, Control_c, 0, 64, 117
1, 297220, Control_c, 0, 64, 127
1, 297265, Note_off_c, 0, 75, 22
1, 297269, Note_on_c, 0, 72, 72
1, 297289, Note_off_c, 0, 53, 33
1, 297340, Note_off_c, 0, 74, 51
1, 297367, Note_off_c, 0, 72, 60
1, 297633, Note_on_c, 0, 75, 83
1, 297656, Note_on_c, 0, 62, 66
1, 297668, Note_on_c, 0, 58, 65
1, 297671, Note_on_c, 0, 70, 57
1, 297709, Control_c, 0, 64, 97
1, 297724, Control_c, 0, 64, 75
1, 297739, Control_c, 0, 64, 59
1, 297754, Control_c, 0, 64, 32
1, 297769, Control_c, 0, 64, 0
1, 297814, Control_c, 0, 64, 34
1, 297835, Control_c, 0, 64, 50
1, 297850, Control_c, 0, 64, 62
1, 297865, Control_c, 0, 64, 70
1, 297880, Control_c, 0, 64, 78
1, 297895, Control_c, 0, 64, 84
1, 297909, Note_off_c, 0, 63, 33
1, 297909, Control_c, 0, 64, 90
1, 297924, Control_c, 0, 64, 96
1, 297939, Control_c, 0, 64, 105
1, 297954, Control_c, 0, 64, 127
1, 298040, Note_on_c, 0, 74, 86
1, 298079, Note_off_c, 0, 70, 57
1, 298132, Note_off_c, 0, 62, 38
1, 298304, Note_off_c, 0, 74, 55
1, 298321, Note_off_c, 0, 75, 61
1, 298423, Note_on_c, 0, 79, 85
1, 298434, Note_on_c, 0, 60, 73
1, 298441, Note_on_c, 0, 72, 74
1, 298445, Note_on_c, 0, 57, 67
1, 298503, Control_c, 0, 64, 108
1, 298518, Control_c, 0, 64, 81
1, 298532, Note_off_c, 0, 58, 54
1, 298532, Control_c, 0, 64, 62
1, 298547, Control_c, 0, 64, 36
1, 298562, Control_c, 0, 64, 0
1, 298644, Control_c, 0, 64, 42
1, 298658, Control_c, 0, 64, 58
1, 298663, Note_off_c, 0, 72, 61
1, 298673, Control_c, 0, 64, 70
1, 298688, Control_c, 0, 64, 81
1, 298703, Control_c, 0, 64, 96
1, 298718, Control_c, 0, 64, 115
1, 298732, Control_c, 0, 64, 127
1, 298842, Note_on_c, 0, 77, 84
1, 298882, Note_off_c, 0, 60, 59
1, 298888, Note_off_c, 0, 79, 56
1, 298918, Note_off_c, 0, 77, 61
1, 299299, Note_on_c, 0, 84, 92
1, 299305, Note_on_c, 0, 64, 63
1, 299324, Note_on_c, 0, 58, 60
1, 299325, Note_on_c, 0, 60, 57
1, 299337, Note_on_c, 0, 55, 52
1, 299405, Note_off_c, 0, 57, 59
1, 299406, Control_c, 0, 64, 116
1, 299421, Control_c, 0, 64, 101
1, 299436, Control_c, 0, 64, 91
1, 299451, Control_c, 0, 64, 82
1, 299466, Control_c, 0, 64, 75
1, 299480, Control_c, 0, 64, 67
1, 299495, Control_c, 0, 64, 59
1, 299510, Control_c, 0, 64, 53
1, 299525, Control_c, 0, 64, 47
1, 299540, Control_c, 0, 64, 42
1, 299555, Control_c, 0, 64, 35
1, 299570, Control_c, 0, 64, 0
1, 299749, Note_on_c, 0, 82, 66
1, 300002, Note_off_c, 0, 84, 37
1, 300059, Control_c, 0, 67, 39
1, 300082, Control_c, 0, 67, 48
1, 300097, Control_c, 0, 67, 57
1, 300111, Control_c, 0, 67, 67
1, 300118, Note_on_c, 0, 81, 58
1, 300126, Control_c, 0, 67, 76
1, 300141, Control_c, 0, 67, 86
1, 300155, Control_c, 0, 67, 96
1, 300170, Control_c, 0, 67, 109
1, 300185, Control_c, 0, 67, 122
1, 300200, Control_c, 0, 67, 127
1, 300209, Note_off_c, 0, 82, 50
1, 300306, Note_on_c, 0, 79, 53
1, 300341, Note_off_c, 0, 81, 62
1, 300482, Note_on_c, 0, 77, 49
1, 300483, Note_off_c, 0, 79, 62
1, 300652, Note_on_c, 0, 76, 52
1, 300677, Note_off_c, 0, 77, 53
1, 300860, Note_on_c, 0, 74, 56
1, 300944, Note_off_c, 0, 76, 57
1, 301186, Control_c, 0, 64, 32
1, 301201, Control_c, 0, 64, 43
1, 301216, Control_c, 0, 64, 55
1, 301231, Control_c, 0, 64, 61
1, 301245, Control_c, 0, 64, 64
1, 301245, Control_c, 0, 67, 103
1, 301256, Note_on_c, 0, 72, 54
1, 301260, Control_c, 0, 64, 66
1, 301260, Control_c, 0, 67, 66
1, 301275, Control_c, 0, 64, 69
1, 301275, Control_c, 0, 67, 0
1, 301287, Note_off_c, 0, 74, 61
1, 301290, Control_c, 0, 64, 72
1, 301291, Note_off_c, 0, 60, 57
1, 301304, Control_c, 0, 64, 75
1, 301319, Note_off_c, 0, 58, 52
1, 301319, Control_c, 0, 64, 80
1, 301334, Control_c, 0, 64, 85
1, 301346, Note_off_c, 0, 55, 60
1, 301349, Control_c, 0, 64, 92
1, 301364, Control_c, 0, 64, 105
1, 301379, Control_c, 0, 64, 127
1, 301429, Note_off_c, 0, 64, 59
1, 301687, Note_on_c, 0, 86, 87
1, 301695, Note_on_c, 0, 66, 68
1, 301698, Note_on_c, 0, 62, 63
1, 301710, Note_on_c, 0, 60, 55
1, 301723, Note_on_c, 0, 57, 53
1, 301758, Control_c, 0, 64, 104
1, 301772, Control_c, 0, 64, 88
1, 301787, Control_c, 0, 64, 76
1, 301802, Control_c, 0, 64, 66
1, 301817, Control_c, 0, 64, 55
1, 301832, Control_c, 0, 64, 44
1, 301847, Control_c, 0, 64, 33
1, 301862, Control_c, 0, 64, 0
1, 301871, Note_off_c, 0, 72, 42
1, 302111, Note_on_c, 0, 84, 64
1, 302506, Note_on_c, 0, 82, 56
1, 302603, Note_off_c, 0, 86, 14
1, 302697, Note_on_c, 0, 81, 52
1, 302718, Note_off_c, 0, 84, 38
1, 302760, Note_off_c, 0, 82, 52
1, 302861, Note_off_c, 0, 81, 62
1, 302866, Note_on_c, 0, 79, 44
1, 303038, Note_on_c, 0, 78, 57
1, 303078, Note_off_c, 0, 79, 58
1, 303240, Note_on_c, 0, 75, 56
1, 303358, Note_off_c, 0, 78, 53
1, 303652, Note_on_c, 0, 74, 45
1, 303683, Control_c, 0, 64, 33
1, 303688, Note_off_c, 0, 75, 58
1, 303698, Control_c, 0, 64, 47
1, 303713, Control_c, 0, 64, 58
1, 303728, Control_c, 0, 64, 63
1, 303743, Control_c, 0, 64, 67
1, 303758, Control_c, 0, 64, 72
1, 303772, Control_c, 0, 64, 79
1, 303787, Control_c, 0, 64, 88
1, 303802, Control_c, 0, 64, 102
1, 303824, Control_c, 0, 64, 127
1, 303842, Note_off_c, 0, 62, 37
1, 303863, Note_off_c, 0, 57, 57
1, 303889, Note_off_c, 0, 66, 59
1, 303898, Note_off_c, 0, 60, 37
1, 304148, Note_on_c, 0, 87, 80
1, 304182, Note_on_c, 0, 67, 60
1, 304183, Note_on_c, 0, 62, 52
1, 304186, Note_on_c, 0, 58, 57
1, 304196, Control_c, 0, 64, 111
1, 304211, Control_c, 0, 64, 89
1, 304226, Control_c, 0, 64, 75
1, 304241, Control_c, 0, 64, 62
1, 304256, Control_c, 0, 64, 47
1, 304270, Control_c, 0, 64, 0
1, 304487, Note_off_c, 0, 74, 38
1, 304551, Control_c, 0, 64, 29
1, 304574, Control_c, 0, 64, 31
1, 304589, Control_c, 0, 64, 32
1, 304603, Control_c, 0, 64, 32
1, 304618, Control_c, 0, 64, 33
1, 304633, Control_c, 0, 64, 34
1, 304644, Note_on_c, 0, 86, 68
1, 304649, Control_c, 0, 64, 35
1, 304664, Control_c, 0, 64, 36
1, 304693, Control_c, 0, 64, 36
1, 304723, Control_c, 0, 64, 37
1, 304738, Control_c, 0, 64, 37
1, 304747, Note_off_c, 0, 87, 60
1, 304752, Control_c, 0, 64, 38
1, 304767, Control_c, 0, 64, 40
1, 304782, Control_c, 0, 64, 41
1, 304797, Control_c, 0, 64, 44
1, 304812, Control_c, 0, 64, 46
1, 304826, Control_c, 0, 64, 48
1, 304841, Control_c, 0, 64, 49
1, 304856, Control_c, 0, 64, 50
1, 304871, Control_c, 0, 64, 51
1, 304886, Control_c, 0, 64, 51
1, 304915, Control_c, 0, 64, 52
1, 304944, Control_c, 0, 64, 52
1, 304959, Control_c, 0, 64, 53
1, 304989, Control_c, 0, 64, 53
1, 305004, Control_c, 0, 64, 54
1, 305013, Note_on_c, 0, 84, 62
1, 305019, Control_c, 0, 64, 54
1, 305078, Control_c, 0, 64, 55
1, 305108, Control_c, 0, 64, 55
1, 305137, Control_c, 0, 64, 56
1, 305152, Control_c, 0, 64, 56
1, 305167, Control_c, 0, 64, 57
1, 305182, Control_c, 0, 64, 57
1, 305197, Note_on_c, 0, 82, 64
1, 305197, Control_c, 0, 64, 58
1, 305211, Control_c, 0, 64, 58
1, 305226, Control_c, 0, 64, 59
1, 305241, Control_c, 0, 64, 59
1, 305256, Control_c, 0, 64, 60
1, 305270, Control_c, 0, 64, 60
1, 305285, Control_c, 0, 64, 61
1, 305337, Control_c, 0, 64, 61
1, 305367, Note_on_c, 0, 81, 67
1, 305417, Note_off_c, 0, 84, 56
1, 305427, Note_off_c, 0, 86, 54
1, 305479, Note_off_c, 0, 82, 44
1, 305540, Note_on_c, 0, 79, 65
1, 305546, Control_c, 0, 64, 61
1, 305572, Note_off_c, 0, 81, 63
1, 305575, Control_c, 0, 64, 60
1, 305590, Control_c, 0, 64, 60
1, 305605, Control_c, 0, 64, 59
1, 305620, Control_c, 0, 64, 58
1, 305635, Control_c, 0, 64, 57
1, 305649, Control_c, 0, 64, 54
1, 305664, Control_c, 0, 64, 50
1, 305679, Control_c, 0, 64, 45
1, 305694, Control_c, 0, 64, 38
1, 305709, Control_c, 0, 64, 0
1, 305711, Note_on_c, 0, 78, 74
1, 305755, Note_off_c, 0, 79, 60
1, 305871, Note_on_c, 0, 79, 68
1, 305917, Note_off_c, 0, 78, 60
1, 306036, Note_on_c, 0, 81, 71
1, 306092, Note_off_c, 0, 79, 61
1, 306226, Note_on_c, 0, 82, 70
1, 306235, Control_c, 0, 64, 33
1, 306244, Note_off_c, 0, 81, 62
1, 306250, Control_c, 0, 64, 47
1, 306250, Control_c, 0, 67, 37
1, 306264, Control_c, 0, 64, 59
1, 306264, Control_c, 0, 67, 65
1, 306275, Note_off_c, 0, 62, 62
1, 306279, Control_c, 0, 64, 64
1, 306279, Control_c, 0, 67, 103
1, 306294, Control_c, 0, 64, 67
1, 306294, Control_c, 0, 67, 127
1, 306298, Note_off_c, 0, 58, 61
1, 306309, Control_c, 0, 64, 71
1, 306323, Control_c, 0, 64, 77
1, 306326, Note_off_c, 0, 67, 61
1, 306338, Control_c, 0, 64, 82
1, 306353, Control_c, 0, 64, 86
1, 306368, Control_c, 0, 64, 89
1, 306383, Control_c, 0, 64, 92
1, 306397, Control_c, 0, 64, 94
1, 306412, Control_c, 0, 64, 95
1, 306471, Control_c, 0, 64, 95
1, 306486, Control_c, 0, 64, 94
1, 306501, Control_c, 0, 64, 92
1, 306503, Note_on_c, 0, 77, 71
1, 306515, Control_c, 0, 64, 88
1, 306530, Control_c, 0, 64, 82
1, 306532, Note_on_c, 0, 60, 45
1, 306539, Note_on_c, 0, 69, 45
1, 306545, Control_c, 0, 64, 75
1, 306560, Control_c, 0, 64, 68
1, 306566, Note_off_c, 0, 82, 58
1, 306575, Control_c, 0, 64, 60
1, 306590, Control_c, 0, 64, 50
1, 306604, Control_c, 0, 64, 40
1, 306619, Control_c, 0, 64, 30
1, 306634, Control_c, 0, 64, 0
1, 306834, Control_c, 0, 64, 34
1, 306850, Control_c, 0, 64, 41
1, 306864, Control_c, 0, 64, 49
1, 306879, Control_c, 0, 64, 56
1, 306894, Control_c, 0, 64, 62
1, 306909, Control_c, 0, 64, 64
1, 306923, Control_c, 0, 64, 65
1, 306938, Control_c, 0, 64, 65
1, 306953, Control_c, 0, 64, 66
1, 306968, Control_c, 0, 64, 67
1, 306983, Control_c, 0, 64, 68
1, 306998, Control_c, 0, 64, 68
1, 307013, Control_c, 0, 64, 69
1, 307028, Control_c, 0, 64, 69
1, 307216, Note_off_c, 0, 77, 20
1, 307236, Control_c, 0, 64, 69
1, 307251, Control_c, 0, 64, 68
1, 307255, Note_on_c, 0, 79, 44
1, 307266, Control_c, 0, 64, 68
1, 307281, Control_c, 0, 64, 67
1, 307295, Control_c, 0, 64, 66
1, 307310, Control_c, 0, 64, 64
1, 307325, Control_c, 0, 64, 62
1, 307339, Control_c, 0, 64, 58
1, 307354, Control_c, 0, 64, 56
1, 307356, Note_off_c, 0, 79, 52
1, 307357, Note_on_c, 0, 77, 45
1, 307369, Control_c, 0, 64, 53
1, 307384, Control_c, 0, 64, 52
1, 307399, Control_c, 0, 64, 50
1, 307413, Control_c, 0, 64, 48
1, 307428, Control_c, 0, 64, 47
1, 307443, Control_c, 0, 64, 44
1, 307457, Control_c, 0, 64, 41
1, 307472, Control_c, 0, 64, 36
1, 307473, Note_on_c, 0, 76, 44
1, 307482, Note_on_c, 0, 67, 35
1, 307483, Note_off_c, 0, 77, 38
1, 307487, Control_c, 0, 64, 31
1, 307502, Control_c, 0, 64, 0
1, 307554, Note_off_c, 0, 69, 40
1, 307970, Control_c, 0, 64, 30
1, 307985, Control_c, 0, 64, 35
1, 308000, Control_c, 0, 64, 40
1, 308014, Control_c, 0, 64, 45
1, 308029, Control_c, 0, 64, 50
1, 308044, Control_c, 0, 64, 53
1, 308059, Control_c, 0, 64, 56
1, 308074, Control_c, 0, 64, 57
1, 308074, Control_c, 0, 67, 112
1, 308088, Control_c, 0, 67, 91
1, 308103, Control_c, 0, 67, 73
1, 308118, Control_c, 0, 67, 54
1, 308133, Control_c, 0, 67, 0
1, 308207, Control_c, 0, 64, 56
1, 308233, Note_off_c, 0, 67, 39
1, 308236, Control_c, 0, 64, 55
1, 308251, Control_c, 0, 64, 55
1, 308266, Control_c, 0, 64, 54
1, 308280, Control_c, 0, 64, 53
1, 308283, Note_off_c, 0, 76, 38
1, 308291, Note_off_c, 0, 60, 55
1, 308295, Control_c, 0, 64, 51
1, 308318, Control_c, 0, 64, 50
1, 308333, Control_c, 0, 64, 49
1, 308348, Control_c, 0, 64, 47
1, 308362, Control_c, 0, 64, 46
1, 308377, Control_c, 0, 64, 44
1, 308392, Control_c, 0, 64, 43
1, 308407, Control_c, 0, 64, 42
1, 308422, Control_c, 0, 64, 41
1, 308436, Control_c, 0, 64, 40
1, 308451, Control_c, 0, 64, 40
1, 308763, Control_c, 0, 67, 36
1, 308778, Control_c, 0, 67, 37
1, 308792, Control_c, 0, 67, 37
1, 308807, Control_c, 0, 67, 39
1, 308822, Control_c, 0, 67, 39
1, 308837, Control_c, 0, 64, 39
1, 308837, Control_c, 0, 67, 40
1, 308897, Control_c, 0, 64, 39
1, 308911, Control_c, 0, 67, 39
1, 309121, Note_on_c, 0, 53, 40
1, 309126, Control_c, 0, 64, 38
1, 309171, Control_c, 0, 67, 39
1, 309185, Control_c, 0, 64, 38
1, 309215, Control_c, 0, 64, 37
1, 309244, Control_c, 0, 64, 37
1, 309274, Control_c, 0, 64, 36
1, 309318, Control_c, 0, 67, 38
1, 309333, Control_c, 0, 64, 36
1, 309392, Control_c, 0, 64, 35
1, 309392, Control_c, 0, 67, 37
1, 309453, Control_c, 0, 67, 37
1, 309468, Control_c, 0, 64, 35
1, 309512, Control_c, 0, 64, 34
1, 309615, Control_c, 0, 64, 34
1, 309734, Control_c, 0, 64, 33
1, 309898, Note_on_c, 0, 52, 44
1, 309992, Note_off_c, 0, 53, 39
1, 310007, Control_c, 0, 64, 33
1, 310096, Control_c, 0, 64, 32
1, 310170, Control_c, 0, 67, 36
1, 310185, Control_c, 0, 64, 32
1, 310200, Control_c, 0, 67, 36
1, 310214, Control_c, 0, 67, 0
1, 310319, Control_c, 0, 64, 30
1, 310408, Control_c, 0, 64, 0
1, 310689, Note_on_c, 0, 53, 35
1, 310774, Note_off_c, 0, 52, 40
1, 311024, Control_c, 0, 64, 36
1, 311040, Control_c, 0, 64, 43
1, 311054, Control_c, 0, 64, 50
1, 311069, Control_c, 0, 64, 56
1, 311084, Control_c, 0, 64, 59
1, 311099, Control_c, 0, 64, 61
1, 311113, Control_c, 0, 64, 62
1, 311128, Control_c, 0, 64, 63
1, 311143, Control_c, 0, 64, 64
1, 311158, Control_c, 0, 64, 65
1, 311173, Control_c, 0, 64, 66
1, 311187, Control_c, 0, 64, 67
1, 311202, Control_c, 0, 64, 69
1, 311217, Control_c, 0, 64, 72
1, 311232, Control_c, 0, 64, 74
1, 311247, Control_c, 0, 64, 76
1, 311261, Control_c, 0, 64, 78
1, 311276, Control_c, 0, 64, 80
1, 311291, Control_c, 0, 64, 83
1, 311313, Control_c, 0, 64, 87
1, 311328, Control_c, 0, 64, 91
1, 311343, Control_c, 0, 64, 93
1, 311358, Control_c, 0, 64, 95
1, 311387, Control_c, 0, 64, 98
1, 311565, Control_c, 0, 64, 95
1, 311580, Control_c, 0, 64, 92
1, 311581, Note_on_c, 0, 48, 68
1, 311595, Control_c, 0, 64, 89
1, 311595, Control_c, 0, 67, 37
1, 311609, Control_c, 0, 64, 85
1, 311609, Control_c, 0, 67, 49
1, 311624, Control_c, 0, 64, 81
1, 311624, Control_c, 0, 67, 66
1, 311639, Control_c, 0, 64, 76
1, 311639, Control_c, 0, 67, 81
1, 311654, Control_c, 0, 64, 71
1, 311654, Control_c, 0, 67, 97
1, 311669, Control_c, 0, 64, 66
1, 311669, Control_c, 0, 67, 111
1, 311684, Control_c, 0, 64, 60
1, 311684, Control_c, 0, 67, 124
1, 311699, Control_c, 0, 64, 54
1, 311699, Control_c, 0, 67, 127
1, 311713, Control_c, 0, 64, 50
1, 311728, Control_c, 0, 64, 45
1, 311743, Control_c, 0, 64, 41
1, 311752, Note_off_c, 0, 53, 57
1, 311758, Control_c, 0, 64, 36
1, 311773, Control_c, 0, 64, 0
1, 311818, Note_on_c, 0, 83, 51
1, 312000, Note_on_c, 0, 84, 53
1, 312038, Note_off_c, 0, 83, 57
1, 312186, Note_on_c, 0, 80, 51
1, 312222, Note_off_c, 0, 84, 54
1, 312355, Note_on_c, 0, 81, 52
1, 312366, Note_off_c, 0, 80, 54
1, 312485, Note_off_c, 0, 81, 58
1, 312533, Note_on_c, 0, 76, 42
1, 312678, Note_off_c, 0, 76, 59
1, 312701, Note_on_c, 0, 77, 50
1, 312858, Note_off_c, 0, 77, 53
1, 312872, Note_on_c, 0, 71, 53
1, 313053, Note_on_c, 0, 72, 40
1, 313083, Note_off_c, 0, 71, 54
1, 313222, Note_on_c, 0, 68, 38
1, 313341, Note_off_c, 0, 72, 37
1, 313394, Note_on_c, 0, 69, 46
1, 313448, Note_off_c, 0, 68, 37
1, 313575, Note_off_c, 0, 69, 52
1, 313592, Note_on_c, 0, 65, 33
1, 313782, Note_on_c, 0, 55, 47
1, 313855, Note_off_c, 0, 48, 62
1, 314189, Note_on_c, 0, 64, 44
1, 314314, Note_off_c, 0, 65, 37
1, 314519, Note_on_c, 0, 54, 37
1, 314645, Note_off_c, 0, 55, 47
1, 314709, Control_c, 0, 67, 120
1, 314723, Control_c, 0, 67, 107
1, 314738, Control_c, 0, 67, 94
1, 314753, Control_c, 0, 67, 80
1, 314768, Control_c, 0, 67, 63
1, 314783, Control_c, 0, 67, 46
1, 314798, Control_c, 0, 67, 0
1, 314884, Note_on_c, 0, 63, 51
1, 315011, Note_off_c, 0, 64, 33
1, 315231, Note_on_c, 0, 55, 39
1, 315317, Note_off_c, 0, 54, 54
1, 315624, Note_on_c, 0, 64, 47
1, 315655, Note_off_c, 0, 63, 36
1, 315753, Control_c, 0, 64, 32
1, 315768, Control_c, 0, 64, 45
1, 315783, Control_c, 0, 64, 57
1, 315804, Control_c, 0, 64, 62
1, 315819, Control_c, 0, 64, 66
1, 315836, Control_c, 0, 64, 70
1, 315850, Control_c, 0, 64, 74
1, 315865, Control_c, 0, 64, 78
1, 315880, Control_c, 0, 64, 83
1, 315895, Control_c, 0, 64, 88
1, 315909, Control_c, 0, 64, 96
1, 315912, Note_off_c, 0, 64, 60
1, 315924, Control_c, 0, 64, 110
1, 315939, Control_c, 0, 64, 127
1, 316079, Note_on_c, 0, 48, 71
1, 316235, Control_c, 0, 64, 122
1, 316250, Control_c, 0, 64, 107
1, 316265, Control_c, 0, 64, 100
1, 316280, Control_c, 0, 64, 93
1, 316292, Note_on_c, 0, 85, 59
1, 316294, Control_c, 0, 64, 86
1, 316309, Control_c, 0, 64, 81
1, 316324, Control_c, 0, 64, 75
1, 316339, Control_c, 0, 64, 69
1, 316354, Control_c, 0, 64, 64
1, 316368, Control_c, 0, 64, 59
1, 316370, Note_off_c, 0, 55, 35
1, 316383, Control_c, 0, 64, 55
1, 316398, Control_c, 0, 64, 52
1, 316413, Control_c, 0, 64, 50
1, 316427, Control_c, 0, 64, 48
1, 316442, Control_c, 0, 64, 46
1, 316457, Control_c, 0, 64, 44
1, 316472, Note_on_c, 0, 86, 69
1, 316472, Control_c, 0, 64, 41
1, 316487, Control_c, 0, 64, 39
1, 316501, Control_c, 0, 64, 37
1, 316516, Control_c, 0, 64, 35
1, 316531, Control_c, 0, 64, 34
1, 316554, Control_c, 0, 64, 32
1, 316569, Control_c, 0, 64, 32
1, 316633, Note_on_c, 0, 81, 68
1, 316703, Control_c, 0, 64, 33
1, 316716, Note_off_c, 0, 85, 56
1, 316718, Control_c, 0, 64, 34
1, 316732, Control_c, 0, 64, 39
1, 316747, Control_c, 0, 64, 45
1, 316762, Control_c, 0, 64, 52
1, 316777, Control_c, 0, 64, 59
1, 316780, Note_off_c, 0, 86, 57
1, 316788, Note_on_c, 0, 82, 72
1, 316792, Control_c, 0, 64, 63
1, 316806, Control_c, 0, 64, 67
1, 316821, Control_c, 0, 64, 70
1, 316836, Control_c, 0, 64, 72
1, 316847, Note_off_c, 0, 81, 50
1, 316850, Control_c, 0, 64, 73
1, 316865, Control_c, 0, 64, 73
1, 316910, Control_c, 0, 64, 74
1, 316948, Note_off_c, 0, 82, 62
1, 316953, Note_on_c, 0, 78, 73
1, 317088, Note_off_c, 0, 78, 57
1, 317113, Note_on_c, 0, 79, 72
1, 317177, Control_c, 0, 64, 73
1, 317191, Control_c, 0, 64, 73
1, 317206, Control_c, 0, 64, 72
1, 317221, Control_c, 0, 64, 71
1, 317236, Control_c, 0, 64, 70
1, 317250, Control_c, 0, 64, 68
1, 317265, Control_c, 0, 64, 66
1, 317276, Note_on_c, 0, 75, 66
1, 317280, Control_c, 0, 64, 63
1, 317303, Control_c, 0, 64, 60
1, 317318, Control_c, 0, 64, 57
1, 317332, Control_c, 0, 64, 55
1, 317347, Control_c, 0, 64, 53
1, 317362, Control_c, 0, 64, 51
1, 317377, Control_c, 0, 64, 50
1, 317392, Control_c, 0, 64, 47
1, 317406, Control_c, 0, 64, 44
1, 317422, Control_c, 0, 64, 41
1, 317437, Control_c, 0, 64, 37
1, 317442, Note_off_c, 0, 79, 35
1, 317443, Note_on_c, 0, 76, 73
1, 317452, Control_c, 0, 64, 31
1, 317467, Control_c, 0, 64, 0
1, 317482, Note_off_c, 0, 75, 62
1, 317595, Note_off_c, 0, 76, 61
1, 317598, Note_on_c, 0, 69, 68
1, 317756, Note_on_c, 0, 70, 69
1, 317804, Note_off_c, 0, 69, 57
1, 317926, Note_on_c, 0, 67, 66
1, 317956, Note_off_c, 0, 70, 59
1, 318144, Note_on_c, 0, 57, 53
1, 318242, Note_off_c, 0, 48, 60
1, 318576, Note_on_c, 0, 66, 54
1, 318698, Note_off_c, 0, 67, 38
1, 318940, Note_on_c, 0, 56, 49
1, 319062, Note_off_c, 0, 57, 57
1, 319291, Note_on_c, 0, 65, 46
1, 319369, Note_off_c, 0, 66, 58
1, 319638, Note_on_c, 0, 57, 38
1, 319670, Note_off_c, 0, 56, 46
1, 319935, Control_c, 0, 64, 32
1, 319950, Control_c, 0, 64, 41
1, 319965, Control_c, 0, 64, 48
1, 319980, Control_c, 0, 64, 54
1, 319995, Control_c, 0, 64, 57
1, 320010, Control_c, 0, 64, 58
1, 320024, Control_c, 0, 64, 58
1, 320026, Note_on_c, 0, 66, 48
1, 320039, Control_c, 0, 64, 59
1, 320054, Control_c, 0, 64, 60
1, 320068, Control_c, 0, 64, 61
1, 320083, Control_c, 0, 64, 61
1, 320098, Control_c, 0, 64, 62
1, 320113, Control_c, 0, 64, 63
1, 320128, Control_c, 0, 64, 64
1, 320142, Control_c, 0, 64, 65
1, 320147, Note_off_c, 0, 65, 36
1, 320157, Control_c, 0, 64, 67
1, 320172, Control_c, 0, 64, 69
1, 320186, Control_c, 0, 64, 72
1, 320201, Control_c, 0, 64, 77
1, 320216, Control_c, 0, 64, 82
1, 320231, Control_c, 0, 64, 91
1, 320246, Control_c, 0, 64, 107
1, 320260, Control_c, 0, 64, 127
1, 320293, Note_off_c, 0, 57, 26
1, 320302, Note_off_c, 0, 66, 61
1, 320436, Note_on_c, 0, 57, 79
1, 320453, Note_on_c, 0, 48, 74
1, 320454, Note_on_c, 0, 51, 67
1, 320456, Note_on_c, 0, 54, 67
1, 320535, Control_c, 0, 64, 97
1, 320549, Control_c, 0, 64, 83
1, 320564, Control_c, 0, 64, 73
1, 320579, Control_c, 0, 64, 64
1, 320594, Control_c, 0, 64, 56
1, 320609, Control_c, 0, 64, 48
1, 320624, Control_c, 0, 64, 42
1, 320639, Control_c, 0, 64, 37
1, 320654, Control_c, 0, 64, 35
1, 320669, Control_c, 0, 64, 35
1, 320684, Control_c, 0, 64, 34
1, 320713, Control_c, 0, 64, 34
1, 320728, Control_c, 0, 64, 36
1, 320737, Note_on_c, 0, 84, 60
1, 320743, Control_c, 0, 64, 39
1, 320758, Control_c, 0, 64, 45
1, 320773, Control_c, 0, 64, 51
1, 320788, Control_c, 0, 64, 56
1, 320803, Control_c, 0, 64, 61
1, 320817, Control_c, 0, 64, 64
1, 320832, Control_c, 0, 64, 67
1, 320847, Control_c, 0, 64, 70
1, 320862, Control_c, 0, 64, 72
1, 320877, Control_c, 0, 64, 74
1, 320891, Control_c, 0, 64, 75
1, 320906, Control_c, 0, 64, 78
1, 320921, Control_c, 0, 64, 81
1, 320936, Note_on_c, 0, 87, 57
1, 320936, Control_c, 0, 64, 85
1, 320951, Control_c, 0, 64, 89
1, 320965, Control_c, 0, 64, 93
1, 320980, Control_c, 0, 64, 98
1, 320995, Control_c, 0, 64, 104
1, 321009, Control_c, 0, 64, 122
1, 321024, Control_c, 0, 64, 127
1, 321088, Note_off_c, 0, 84, 34
1, 321114, Note_on_c, 0, 81, 54
1, 321122, Note_off_c, 0, 87, 61
1, 321277, Note_on_c, 0, 84, 61
1, 321333, Note_off_c, 0, 81, 58
1, 321440, Note_on_c, 0, 78, 60
1, 321501, Note_off_c, 0, 84, 58
1, 321602, Note_on_c, 0, 81, 52
1, 321625, Note_off_c, 0, 78, 55
1, 321709, Note_off_c, 0, 81, 62
1, 321761, Note_on_c, 0, 75, 53
1, 321925, Note_on_c, 0, 78, 68
1, 321989, Note_off_c, 0, 75, 37
1, 322103, Note_on_c, 0, 72, 69
1, 322195, Note_off_c, 0, 78, 38
1, 322260, Note_on_c, 0, 75, 70
1, 322351, Note_off_c, 0, 48, 60
1, 322405, Note_off_c, 0, 57, 60
1, 322422, Note_off_c, 0, 51, 51
1, 322430, Note_off_c, 0, 54, 55
1, 322431, Note_on_c, 0, 69, 80
1, 322475, Note_off_c, 0, 72, 51
1, 322493, Note_off_c, 0, 69, 60
1, 322508, Note_off_c, 0, 75, 59
1, 322609, Note_on_c, 0, 58, 84
1, 322618, Note_on_c, 0, 51, 74
1, 322621, Note_on_c, 0, 54, 77
1, 322624, Note_on_c, 0, 46, 68
1, 322678, Control_c, 0, 64, 90
1, 322692, Control_c, 0, 64, 71
1, 322707, Control_c, 0, 64, 58
1, 322722, Control_c, 0, 64, 41
1, 322737, Control_c, 0, 64, 0
1, 322800, Note_on_c, 0, 82, 79
1, 322870, Control_c, 0, 64, 41
1, 322885, Control_c, 0, 64, 53
1, 322900, Control_c, 0, 64, 60
1, 322915, Control_c, 0, 64, 64
1, 322930, Control_c, 0, 64, 68
1, 322944, Control_c, 0, 64, 72
1, 322959, Control_c, 0, 64, 79
1, 322966, Note_on_c, 0, 87, 80
1, 322974, Control_c, 0, 64, 89
1, 322988, Control_c, 0, 64, 105
1, 323003, Control_c, 0, 64, 127
1, 323126, Note_on_c, 0, 78, 73
1, 323137, Note_off_c, 0, 87, 61
1, 323154, Note_off_c, 0, 82, 59
1, 323299, Note_on_c, 0, 82, 74
1, 323369, Note_off_c, 0, 78, 50
1, 323467, Note_on_c, 0, 75, 77
1, 323622, Note_on_c, 0, 78, 75
1, 323655, Note_off_c, 0, 82, 51
1, 323778, Note_on_c, 0, 70, 73
1, 323796, Note_off_c, 0, 78, 60
1, 323798, Note_off_c, 0, 75, 61
1, 323935, Note_on_c, 0, 75, 73
1, 323969, Note_on_c, 0, 76, 57
1, 324001, Note_off_c, 0, 76, 49
1, 324025, Note_off_c, 0, 70, 53
1, 324105, Note_on_c, 0, 66, 83
1, 324111, Note_off_c, 0, 58, 56
1, 324126, Note_off_c, 0, 75, 48
1, 324261, Note_on_c, 0, 70, 90
1, 324276, Note_off_c, 0, 54, 57
1, 324299, Note_off_c, 0, 51, 57
1, 324359, Note_off_c, 0, 46, 54
1, 324375, Note_off_c, 0, 66, 55
1, 324433, Note_on_c, 0, 63, 85
1, 324497, Note_off_c, 0, 63, 62
1, 324499, Note_off_c, 0, 70, 60
1, 324691, Note_on_c, 0, 53, 87
1, 324698, Note_on_c, 0, 50, 76
1, 324706, Note_on_c, 0, 44, 78
1, 324706, Note_on_c, 0, 47, 71
1, 324791, Control_c, 0, 64, 97
1, 324806, Control_c, 0, 64, 71
1, 324821, Control_c, 0, 64, 55
1, 324836, Control_c, 0, 64, 0
1, 325010, Note_on_c, 0, 86, 83
1, 325013, Control_c, 0, 64, 31
1, 325028, Control_c, 0, 64, 41
1, 325043, Control_c, 0, 64, 49
1, 325058, Control_c, 0, 64, 54
1, 325072, Control_c, 0, 64, 59
1, 325087, Control_c, 0, 64, 62
1, 325102, Control_c, 0, 64, 65
1, 325117, Control_c, 0, 64, 67
1, 325131, Control_c, 0, 64, 70
1, 325146, Control_c, 0, 64, 73
1, 325161, Control_c, 0, 64, 77
1, 325176, Control_c, 0, 64, 83
1, 325190, Control_c, 0, 64, 90
1, 325205, Control_c, 0, 64, 104
1, 325220, Control_c, 0, 64, 127
1, 325286, Note_on_c, 0, 89, 84
1, 325491, Note_off_c, 0, 89, 58
1, 325494, Note_on_c, 0, 83, 77
1, 325517, Note_off_c, 0, 86, 63
1, 325679, Note_on_c, 0, 86, 72
1, 325749, Note_off_c, 0, 83, 59
1, 325843, Note_on_c, 0, 77, 79
1, 325883, Note_off_c, 0, 86, 58
1, 326005, Note_on_c, 0, 83, 73
1, 326113, Note_off_c, 0, 83, 63
1, 326142, Note_off_c, 0, 77, 57
1, 326180, Note_on_c, 0, 74, 66
1, 326355, Note_on_c, 0, 77, 60
1, 326439, Note_off_c, 0, 74, 37
1, 326481, Control_c, 0, 67, 39
1, 326496, Control_c, 0, 67, 52
1, 326511, Control_c, 0, 67, 65
1, 326523, Note_on_c, 0, 71, 58
1, 326526, Control_c, 0, 67, 78
1, 326541, Control_c, 0, 67, 94
1, 326555, Control_c, 0, 67, 120
1, 326570, Control_c, 0, 67, 127
1, 326583, Note_off_c, 0, 50, 59
1, 326628, Note_off_c, 0, 47, 36
1, 326662, Note_off_c, 0, 44, 51
1, 326672, Note_on_c, 0, 74, 57
1, 326727, Note_off_c, 0, 77, 38
1, 326733, Note_off_c, 0, 53, 38
1, 326822, Control_c, 0, 64, 124
1, 326836, Control_c, 0, 64, 113
1, 326847, Note_on_c, 0, 65, 45
1, 326851, Control_c, 0, 64, 107
1, 326866, Control_c, 0, 64, 104
1, 326881, Control_c, 0, 64, 100
1, 326896, Control_c, 0, 64, 96
1, 326910, Control_c, 0, 64, 92
1, 326925, Control_c, 0, 64, 88
1, 326939, Note_off_c, 0, 74, 37
1, 326940, Control_c, 0, 64, 85
1, 326955, Control_c, 0, 64, 81
1, 326970, Control_c, 0, 64, 77
1, 326985, Control_c, 0, 64, 72
1, 327000, Control_c, 0, 64, 68
1, 327005, Note_off_c, 0, 71, 39
1, 327015, Control_c, 0, 64, 65
1, 327038, Control_c, 0, 64, 62
1, 327053, Control_c, 0, 64, 60
1, 327054, Note_on_c, 0, 45, 38
1, 327068, Control_c, 0, 64, 59
1, 327098, Control_c, 0, 64, 59
1, 327145, Note_off_c, 0, 65, 37
1, 327172, Control_c, 0, 64, 58
1, 327216, Control_c, 0, 64, 59
1, 327226, Note_on_c, 0, 48, 52
1, 327231, Control_c, 0, 64, 59
1, 327246, Control_c, 0, 64, 60
1, 327275, Control_c, 0, 64, 60
1, 327334, Control_c, 0, 64, 61
1, 327349, Control_c, 0, 64, 61
1, 327378, Control_c, 0, 64, 62
1, 327382, Note_on_c, 0, 53, 42
1, 327423, Note_off_c, 0, 45, 37
1, 327457, Note_off_c, 0, 48, 38
1, 327483, Control_c, 0, 64, 61
1, 327541, Note_on_c, 0, 57, 43
1, 327542, Control_c, 0, 64, 61
1, 327548, Note_off_c, 0, 53, 59
1, 327586, Control_c, 0, 64, 60
1, 327631, Control_c, 0, 64, 60
1, 327716, Note_on_c, 0, 60, 36
1, 327720, Control_c, 0, 64, 59
1, 327729, Note_off_c, 0, 57, 60
1, 327815, Control_c, 0, 64, 59
1, 327860, Control_c, 0, 64, 58
1, 327909, Note_on_c, 0, 65, 39
1, 327918, Note_off_c, 0, 60, 37
1, 328063, Note_on_c, 0, 69, 42
1, 328231, Note_on_c, 0, 72, 42
1, 328248, Note_off_c, 0, 65, 28
1, 328368, Note_off_c, 0, 72, 46
1, 328401, Note_on_c, 0, 46, 37
1, 328425, Note_off_c, 0, 69, 39
1, 328584, Note_on_c, 0, 62, 30
1, 328624, Control_c, 0, 64, 58
1, 328684, Note_off_c, 0, 46, 37
1, 328712, Control_c, 0, 64, 57
1, 328715, Note_off_c, 0, 62, 44
1, 328750, Note_on_c, 0, 65, 33
1, 328917, Note_on_c, 0, 74, 48
1, 329048, Note_off_c, 0, 74, 55
1, 329052, Note_off_c, 0, 65, 26
1, 329083, Control_c, 0, 64, 57
1, 329097, Note_on_c, 0, 36, 36
1, 329242, Note_on_c, 0, 41, 50
1, 329325, Note_off_c, 0, 36, 38
1, 329327, Control_c, 0, 64, 56
1, 329416, Note_on_c, 0, 45, 45
1, 329461, Control_c, 0, 64, 56
1, 329535, Control_c, 0, 64, 55
1, 329554, Note_off_c, 0, 41, 37
1, 329592, Note_on_c, 0, 48, 52
1, 329599, Note_off_c, 0, 45, 53
1, 329624, Control_c, 0, 64, 55
1, 329668, Control_c, 0, 64, 54
1, 329698, Control_c, 0, 64, 54
1, 329713, Control_c, 0, 64, 53
1, 329727, Control_c, 0, 64, 52
1, 329742, Control_c, 0, 64, 51
1, 329750, Note_on_c, 0, 57, 40
1, 329757, Control_c, 0, 64, 49
1, 329772, Control_c, 0, 64, 47
1, 329775, Note_off_c, 0, 48, 54
1, 329787, Control_c, 0, 64, 44
1, 329802, Control_c, 0, 64, 39
1, 329817, Control_c, 0, 64, 33
1, 329832, Control_c, 0, 64, 0
1, 329932, Note_on_c, 0, 60, 35
1, 329964, Note_off_c, 0, 57, 37
1, 330104, Note_on_c, 0, 65, 41
1, 330128, Note_off_c, 0, 60, 50
1, 330259, Note_on_c, 0, 69, 47
1, 330297, Note_off_c, 0, 65, 35
1, 330401, Note_off_c, 0, 69, 54
1, 330431, Note_on_c, 0, 36, 32
1, 330463, Control_c, 0, 64, 34
1, 330477, Control_c, 0, 64, 42
1, 330492, Control_c, 0, 64, 51
1, 330507, Control_c, 0, 64, 58
1, 330521, Control_c, 0, 64, 61
1, 330536, Control_c, 0, 64, 63
1, 330551, Control_c, 0, 64, 65
1, 330566, Control_c, 0, 64, 66
1, 330581, Control_c, 0, 64, 68
1, 330595, Control_c, 0, 64, 69
1, 330610, Control_c, 0, 64, 71
1, 330623, Note_on_c, 0, 55, 20
1, 330625, Control_c, 0, 64, 73
1, 330640, Control_c, 0, 64, 75
1, 330655, Control_c, 0, 64, 77
1, 330657, Note_off_c, 0, 36, 49
1, 330670, Control_c, 0, 64, 79
1, 330684, Control_c, 0, 64, 82
1, 330699, Control_c, 0, 64, 85
1, 330714, Control_c, 0, 64, 88
1, 330729, Control_c, 0, 64, 90
1, 330744, Control_c, 0, 64, 92
1, 330759, Control_c, 0, 64, 95
1, 330781, Control_c, 0, 64, 98
1, 330796, Control_c, 0, 64, 102
1, 330799, Note_on_c, 0, 58, 42
1, 330809, Control_c, 0, 64, 106
1, 330824, Control_c, 0, 64, 111
1, 330839, Control_c, 0, 64, 115
1, 330850, Note_off_c, 0, 55, 37
1, 330854, Control_c, 0, 64, 120
1, 330869, Control_c, 0, 64, 127
1, 330938, Note_off_c, 0, 58, 54
1, 330980, Note_on_c, 0, 64, 47
1, 331211, Control_c, 0, 64, 124
1, 331225, Control_c, 0, 64, 111
1, 331231, Note_on_c, 0, 65, 43
1, 331240, Control_c, 0, 64, 103
1, 331248, Note_on_c, 0, 53, 31
1, 331250, Note_on_c, 0, 57, 32
1, 331255, Control_c, 0, 64, 95
1, 331270, Control_c, 0, 64, 86
1, 331285, Control_c, 0, 64, 77
1, 331299, Note_off_c, 0, 64, 47
1, 331299, Control_c, 0, 64, 67
1, 331314, Control_c, 0, 64, 53
1, 331329, Control_c, 0, 64, 40
1, 331343, Control_c, 0, 64, 0
1, 331403, Control_c, 0, 64, 32
1, 331418, Control_c, 0, 64, 43
1, 331432, Control_c, 0, 64, 55
1, 331447, Control_c, 0, 64, 61
1, 331462, Control_c, 0, 64, 66
1, 331477, Control_c, 0, 64, 69
1, 331492, Control_c, 0, 64, 71
1, 331507, Control_c, 0, 64, 73
1, 331529, Control_c, 0, 64, 76
1, 331544, Control_c, 0, 64, 78
1, 331558, Control_c, 0, 64, 81
1, 331573, Control_c, 0, 64, 84
1, 331588, Control_c, 0, 64, 89
1, 331603, Control_c, 0, 64, 94
1, 331618, Control_c, 0, 64, 101
1, 331621, Note_off_c, 0, 65, 37
1, 331632, Control_c, 0, 64, 112
1, 331647, Control_c, 0, 64, 127
1, 331649, Note_on_c, 0, 60, 32
1, 331751, Control_c, 0, 67, 119
1, 331756, Note_off_c, 0, 57, 41
1, 331766, Control_c, 0, 67, 109
1, 331781, Control_c, 0, 67, 99
1, 331796, Control_c, 0, 67, 88
1, 331811, Control_c, 0, 67, 77
1, 331826, Control_c, 0, 67, 65
1, 331841, Control_c, 0, 67, 58
1, 331856, Control_c, 0, 67, 55
1, 331886, Control_c, 0, 67, 58
1, 331900, Control_c, 0, 67, 62
1, 331915, Control_c, 0, 67, 67
1, 331930, Control_c, 0, 67, 72
1, 331945, Control_c, 0, 67, 76
1, 331960, Control_c, 0, 67, 81
1, 331974, Control_c, 0, 67, 88
1, 331989, Control_c, 0, 67, 95
1, 331996, Note_on_c, 0, 57, 36
1, 332004, Control_c, 0, 67, 105
1, 332019, Control_c, 0, 67, 115
1, 332034, Control_c, 0, 67, 125
1, 332048, Control_c, 0, 67, 127
1, 332063, Control_c, 0, 64, 112
1, 332078, Control_c, 0, 64, 101
1, 332093, Control_c, 0, 64, 94
1, 332108, Control_c, 0, 64, 89
1, 332122, Control_c, 0, 64, 87
1, 332129, Note_off_c, 0, 60, 40
1, 332293, Control_c, 0, 64, 87
1, 332322, Control_c, 0, 64, 88
1, 332337, Control_c, 0, 64, 90
1, 332352, Control_c, 0, 64, 94
1, 332364, Note_on_c, 0, 60, 39
1, 332367, Control_c, 0, 64, 98
1, 332381, Control_c, 0, 64, 105
1, 332396, Control_c, 0, 64, 119
1, 332411, Control_c, 0, 64, 127
1, 332426, Control_c, 0, 67, 125
1, 332441, Control_c, 0, 67, 104
1, 332455, Control_c, 0, 67, 78
1, 332460, Note_off_c, 0, 57, 41
1, 332470, Control_c, 0, 67, 49
1, 332485, Control_c, 0, 67, 0
1, 332768, Note_on_c, 0, 77, 62
1, 332797, Note_on_c, 0, 58, 38
1, 332812, Control_c, 0, 64, 97
1, 332819, Note_on_c, 0, 55, 35
1, 332827, Control_c, 0, 64, 84
1, 332842, Control_c, 0, 64, 73
1, 332857, Control_c, 0, 64, 63
1, 332871, Control_c, 0, 64, 58
1, 332886, Control_c, 0, 64, 57
1, 332901, Control_c, 0, 64, 58
1, 332903, Note_on_c, 0, 76, 63
1, 332915, Control_c, 0, 64, 61
1, 332923, Note_off_c, 0, 60, 40
1, 332930, Control_c, 0, 64, 64
1, 332941, Note_off_c, 0, 77, 61
1, 332945, Control_c, 0, 64, 68
1, 332960, Control_c, 0, 64, 74
1, 332975, Control_c, 0, 64, 78
1, 332989, Control_c, 0, 64, 81
1, 333004, Control_c, 0, 64, 82
1, 333021, Note_on_c, 0, 79, 65
1, 333027, Control_c, 0, 64, 83
1, 333042, Control_c, 0, 64, 84
1, 333051, Note_off_c, 0, 76, 57
1, 333057, Control_c, 0, 64, 85
1, 333072, Control_c, 0, 64, 88
1, 333087, Control_c, 0, 64, 90
1, 333102, Control_c, 0, 64, 91
1, 333117, Control_c, 0, 64, 94
1, 333130, Note_on_c, 0, 77, 76
1, 333131, Control_c, 0, 64, 96
1, 333146, Control_c, 0, 64, 99
1, 333157, Note_on_c, 0, 60, 43
1, 333161, Control_c, 0, 64, 103
1, 333176, Control_c, 0, 64, 108
1, 333191, Control_c, 0, 64, 113
1, 333205, Control_c, 0, 64, 122
1, 333218, Note_off_c, 0, 79, 53
1, 333220, Control_c, 0, 64, 127
1, 333242, Note_on_c, 0, 76, 78
1, 333284, Note_off_c, 0, 55, 35
1, 333287, Note_off_c, 0, 77, 60
1, 333312, Note_off_c, 0, 58, 36
1, 333314, Note_off_c, 0, 53, 33
1, 333349, Note_off_c, 0, 76, 65
1, 333354, Note_on_c, 0, 74, 80
1, 333368, Control_c, 0, 67, 39
1, 333383, Control_c, 0, 67, 44
1, 333399, Control_c, 0, 67, 47
1, 333414, Control_c, 0, 67, 52
1, 333428, Control_c, 0, 67, 59
1, 333443, Control_c, 0, 64, 124
1, 333443, Control_c, 0, 67, 67
1, 333458, Control_c, 0, 64, 112
1, 333458, Control_c, 0, 67, 76
1, 333473, Control_c, 0, 64, 104
1, 333473, Control_c, 0, 67, 86
1, 333488, Control_c, 0, 64, 97
1, 333488, Control_c, 0, 67, 93
1, 333501, Note_on_c, 0, 72, 75
1, 333502, Control_c, 0, 64, 91
1, 333502, Control_c, 0, 67, 99
1, 333517, Control_c, 0, 64, 85
1, 333517, Control_c, 0, 67, 104
1, 333531, Note_on_c, 0, 57, 36
1, 333532, Control_c, 0, 64, 79
1, 333532, Control_c, 0, 67, 110
1, 333538, Note_on_c, 0, 53, 36
1, 333538, Note_off_c, 0, 74, 59
1, 333546, Control_c, 0, 64, 73
1, 333546, Control_c, 0, 67, 116
1, 333561, Control_c, 0, 64, 67
1, 333561, Control_c, 0, 67, 122
1, 333576, Control_c, 0, 64, 61
1, 333576, Control_c, 0, 67, 127
1, 333591, Control_c, 0, 64, 56
1, 333606, Control_c, 0, 64, 53
1, 333620, Control_c, 0, 64, 50
1, 333635, Control_c, 0, 64, 49
1, 333650, Control_c, 0, 64, 47
1, 333662, Note_off_c, 0, 60, 41
1, 333665, Control_c, 0, 64, 45
1, 333680, Control_c, 0, 64, 43
1, 333695, Control_c, 0, 64, 42
1, 333739, Control_c, 0, 64, 43
1, 333754, Control_c, 0, 64, 44
1, 333776, Control_c, 0, 64, 47
1, 333791, Control_c, 0, 64, 51
1, 333806, Control_c, 0, 64, 55
1, 333820, Control_c, 0, 64, 59
1, 333835, Control_c, 0, 64, 63
1, 333850, Control_c, 0, 64, 65
1, 333865, Control_c, 0, 64, 68
1, 333880, Control_c, 0, 64, 72
1, 333895, Control_c, 0, 64, 74
1, 333910, Control_c, 0, 64, 75
1, 333924, Control_c, 0, 64, 75
1, 333929, Note_on_c, 0, 60, 36
1, 333939, Control_c, 0, 64, 76
1, 333954, Control_c, 0, 64, 76
1, 333969, Control_c, 0, 64, 77
1, 333984, Control_c, 0, 64, 77
1, 333999, Control_c, 0, 64, 78
1, 334014, Control_c, 0, 64, 79
1, 334026, Note_off_c, 0, 57, 41
1, 334028, Control_c, 0, 64, 80
1, 334043, Control_c, 0, 64, 81
1, 334058, Control_c, 0, 64, 83
1, 334073, Control_c, 0, 64, 85
1, 334088, Control_c, 0, 64, 88
1, 334102, Control_c, 0, 64, 91
1, 334117, Control_c, 0, 64, 94
1, 334132, Control_c, 0, 64, 96
1, 334161, Control_c, 0, 64, 98
1, 334263, Note_on_c, 0, 57, 40
1, 334400, Note_off_c, 0, 60, 38
1, 334401, Note_on_c, 0, 71, 51
1, 334417, Note_off_c, 0, 72, 55
1, 334429, Control_c, 0, 64, 96
1, 334443, Control_c, 0, 64, 96
1, 334458, Control_c, 0, 64, 95
1, 334473, Control_c, 0, 64, 95
1, 334488, Control_c, 0, 64, 94
1, 334503, Note_off_c, 0, 71, 57
1, 334503, Control_c, 0, 64, 94
1, 334506, Note_on_c, 0, 74, 59
1, 334525, Control_c, 0, 64, 93
1, 334555, Control_c, 0, 64, 92
1, 334569, Control_c, 0, 64, 91
1, 334584, Control_c, 0, 64, 91
1, 334599, Control_c, 0, 64, 90
1, 334614, Control_c, 0, 64, 90
1, 334632, Note_on_c, 0, 72, 64
1, 334647, Note_on_c, 0, 60, 41
1, 334658, Control_c, 0, 64, 89
1, 334661, Note_off_c, 0, 74, 54
1, 334717, Control_c, 0, 64, 89
1, 334744, Note_on_c, 0, 70, 69
1, 334754, Note_off_c, 0, 57, 34
1, 334759, Note_off_c, 0, 72, 57
1, 334807, Control_c, 0, 64, 88
1, 334841, Note_off_c, 0, 70, 63
1, 334858, Note_on_c, 0, 69, 66
1, 334866, Control_c, 0, 64, 88
1, 334881, Control_c, 0, 64, 87
1, 334895, Control_c, 0, 64, 86
1, 334910, Control_c, 0, 64, 85
1, 334925, Control_c, 0, 64, 83
1, 334940, Control_c, 0, 64, 82
1, 334955, Control_c, 0, 64, 79
1, 334969, Control_c, 0, 64, 76
1, 334971, Note_off_c, 0, 69, 55
1, 334974, Note_on_c, 0, 67, 64
1, 334985, Control_c, 0, 64, 71
1, 334987, Note_on_c, 0, 58, 48
1, 335000, Control_c, 0, 64, 66
1, 335015, Control_c, 0, 64, 62
1, 335030, Control_c, 0, 64, 58
1, 335045, Control_c, 0, 64, 56
1, 335056, Note_off_c, 0, 60, 34
1, 335060, Control_c, 0, 64, 54
1, 335074, Control_c, 0, 64, 52
1, 335081, Note_on_c, 0, 66, 67
1, 335089, Control_c, 0, 64, 51
1, 335091, Note_off_c, 0, 67, 57
1, 335104, Control_c, 0, 64, 47
1, 335118, Control_c, 0, 64, 43
1, 335133, Control_c, 0, 64, 37
1, 335148, Control_c, 0, 64, 29
1, 335163, Control_c, 0, 64, 0
1, 335200, Note_on_c, 0, 69, 66
1, 335213, Note_off_c, 0, 66, 58
1, 335324, Note_on_c, 0, 60, 39
1, 335328, Note_on_c, 0, 67, 61
1, 335355, Note_off_c, 0, 69, 56
1, 335367, Note_off_c, 0, 58, 56
1, 335434, Note_off_c, 0, 67, 64
1, 335448, Note_on_c, 0, 65, 56
1, 335451, Control_c, 0, 64, 37
1, 335466, Control_c, 0, 64, 49
1, 335481, Control_c, 0, 64, 58
1, 335495, Control_c, 0, 64, 63
1, 335508, Note_off_c, 0, 60, 59
1, 335510, Control_c, 0, 64, 67
1, 335522, Note_off_c, 0, 65, 63
1, 335525, Control_c, 0, 64, 70
1, 335540, Control_c, 0, 64, 73
1, 335553, Note_off_c, 0, 53, 37
1, 335555, Control_c, 0, 64, 75
1, 335562, Note_on_c, 0, 64, 55
1, 335570, Control_c, 0, 64, 78
1, 335585, Control_c, 0, 64, 81
1, 335599, Control_c, 0, 64, 85
1, 335614, Control_c, 0, 64, 89
1, 335629, Control_c, 0, 64, 92
1, 335633, Note_off_c, 0, 64, 63
1, 335644, Control_c, 0, 64, 94
1, 335659, Control_c, 0, 64, 95
1, 335673, Control_c, 0, 64, 96
1, 335747, Control_c, 0, 64, 95
1, 335777, Note_on_c, 0, 70, 58
1, 335777, Control_c, 0, 64, 94
1, 335793, Control_c, 0, 64, 92
1, 335807, Note_on_c, 0, 64, 37
1, 335808, Control_c, 0, 64, 87
1, 335822, Control_c, 0, 64, 78
1, 335826, Note_on_c, 0, 55, 37
1, 335827, Note_on_c, 0, 53, 29
1, 335837, Control_c, 0, 64, 70
1, 335852, Control_c, 0, 64, 61
1, 335867, Control_c, 0, 64, 49
1, 335882, Control_c, 0, 64, 36
1, 335896, Control_c, 0, 64, 29
1, 335926, Control_c, 0, 64, 36
1, 335940, Control_c, 0, 64, 45
1, 335955, Control_c, 0, 64, 55
1, 335970, Control_c, 0, 64, 62
1, 335985, Control_c, 0, 64, 66
1, 336000, Control_c, 0, 64, 69
1, 336017, Note_off_c, 0, 55, 58
1, 336022, Control_c, 0, 64, 73
1, 336037, Control_c, 0, 64, 75
1, 336052, Control_c, 0, 64, 77
1, 336067, Control_c, 0, 64, 79
1, 336082, Control_c, 0, 64, 82
1, 336096, Control_c, 0, 64, 85
1, 336111, Control_c, 0, 64, 88
1, 336126, Control_c, 0, 64, 93
1, 336140, Control_c, 0, 64, 97
1, 336155, Control_c, 0, 64, 101
1, 336170, Control_c, 0, 64, 103
1, 336184, Note_on_c, 0, 60, 34
1, 336200, Control_c, 0, 64, 105
1, 336224, Note_off_c, 0, 64, 41
1, 336229, Control_c, 0, 64, 107
1, 336274, Control_c, 0, 64, 109
1, 336308, Note_off_c, 0, 60, 58
1, 336526, Control_c, 0, 64, 106
1, 336540, Control_c, 0, 64, 103
1, 336555, Control_c, 0, 64, 101
1, 336570, Control_c, 0, 64, 97
1, 336576, Note_on_c, 0, 69, 40
1, 336586, Control_c, 0, 64, 93
1, 336601, Control_c, 0, 64, 87
1, 336605, Note_on_c, 0, 65, 32
1, 336610, Note_on_c, 0, 57, 35
1, 336616, Control_c, 0, 64, 80
1, 336631, Control_c, 0, 64, 71
1, 336645, Control_c, 0, 64, 62
1, 336660, Control_c, 0, 64, 52
1, 336671, Note_off_c, 0, 70, 58
1, 336675, Control_c, 0, 64, 43
1, 336690, Control_c, 0, 64, 38
1, 336705, Control_c, 0, 64, 39
1, 336719, Control_c, 0, 64, 43
1, 336734, Control_c, 0, 64, 52
1, 336749, Control_c, 0, 64, 59
1, 336771, Control_c, 0, 64, 63
1, 336786, Control_c, 0, 64, 67
1, 336801, Control_c, 0, 64, 70
1, 336816, Control_c, 0, 64, 72
1, 336831, Control_c, 0, 64, 74
1, 336846, Control_c, 0, 64, 75
1, 336861, Control_c, 0, 64, 77
1, 336876, Control_c, 0, 64, 80
1, 336890, Control_c, 0, 64, 83
1, 336905, Control_c, 0, 64, 86
1, 336906, Note_off_c, 0, 65, 30
1, 336916, Note_off_c, 0, 57, 34
1, 336920, Control_c, 0, 64, 90
1, 336931, Note_off_c, 0, 69, 35
1, 336935, Control_c, 0, 64, 93
1, 336950, Control_c, 0, 64, 97
1, 336964, Control_c, 0, 64, 101
1, 336979, Control_c, 0, 64, 104
1, 336994, Control_c, 0, 64, 107
1, 337002, Note_on_c, 0, 60, 34
1, 337009, Control_c, 0, 64, 110
1, 337024, Control_c, 0, 64, 115
1, 337038, Control_c, 0, 64, 127
1, 337166, Note_off_c, 0, 60, 36
1, 337469, Control_c, 0, 64, 117
1, 337478, Note_on_c, 0, 77, 50
1, 337484, Control_c, 0, 64, 108
1, 337490, Note_on_c, 0, 58, 36
1, 337499, Control_c, 0, 64, 99
1, 337520, Control_c, 0, 64, 90
1, 337526, Note_on_c, 0, 55, 27
1, 337535, Control_c, 0, 64, 81
1, 337550, Control_c, 0, 64, 71
1, 337565, Control_c, 0, 64, 63
1, 337580, Control_c, 0, 64, 56
1, 337594, Control_c, 0, 64, 52
1, 337609, Control_c, 0, 64, 52
1, 337621, Note_off_c, 0, 77, 58
1, 337624, Control_c, 0, 64, 54
1, 337634, Note_on_c, 0, 76, 48
1, 337639, Control_c, 0, 64, 57
1, 337654, Control_c, 0, 64, 61
1, 337668, Control_c, 0, 64, 64
1, 337683, Control_c, 0, 64, 68
1, 337698, Control_c, 0, 64, 71
1, 337713, Control_c, 0, 64, 74
1, 337726, Note_off_c, 0, 76, 51
1, 337728, Control_c, 0, 64, 75
1, 337743, Control_c, 0, 64, 77
1, 337755, Note_on_c, 0, 79, 46
1, 337758, Control_c, 0, 64, 78
1, 337773, Control_c, 0, 64, 80
1, 337787, Control_c, 0, 64, 80
1, 337802, Control_c, 0, 64, 81
1, 337817, Control_c, 0, 64, 81
1, 337861, Control_c, 0, 64, 82
1, 337874, Note_on_c, 0, 77, 56
1, 337876, Control_c, 0, 64, 82
1, 337884, Note_off_c, 0, 79, 49
1, 337891, Control_c, 0, 64, 83
1, 337895, Note_on_c, 0, 60, 35
1, 337906, Control_c, 0, 64, 83
1, 337920, Control_c, 0, 64, 84
1, 337935, Control_c, 0, 64, 85
1, 337950, Control_c, 0, 64, 86
1, 337965, Control_c, 0, 64, 87
1, 337980, Control_c, 0, 64, 88
1, 337990, Note_off_c, 0, 77, 59
1, 337994, Control_c, 0, 64, 89
1, 338005, Note_on_c, 0, 76, 53
1, 338009, Control_c, 0, 64, 90
1, 338017, Note_off_c, 0, 55, 43
1, 338024, Control_c, 0, 64, 90
1, 338047, Note_off_c, 0, 53, 33
1, 338054, Control_c, 0, 64, 91
1, 338060, Note_off_c, 0, 76, 54
1, 338096, Note_off_c, 0, 58, 34
1, 338119, Note_on_c, 0, 74, 46
1, 338217, Control_c, 0, 64, 90
1, 338232, Control_c, 0, 64, 90
1, 338247, Control_c, 0, 64, 89
1, 338270, Control_c, 0, 64, 86
1, 338271, Note_on_c, 0, 72, 62
1, 338285, Control_c, 0, 64, 83
1, 338292, Note_on_c, 0, 57, 36
1, 338299, Note_on_c, 0, 53, 37
1, 338299, Control_c, 0, 64, 79
1, 338311, Note_off_c, 0, 74, 53
1, 338314, Control_c, 0, 64, 74
1, 338329, Control_c, 0, 64, 68
1, 338343, Control_c, 0, 64, 61
1, 338358, Control_c, 0, 64, 53
1, 338373, Control_c, 0, 64, 46
1, 338388, Control_c, 0, 64, 42
1, 338403, Control_c, 0, 64, 42
1, 338417, Control_c, 0, 64, 42
1, 338425, Note_off_c, 0, 60, 41
1, 338432, Control_c, 0, 64, 44
1, 338447, Control_c, 0, 64, 47
1, 338462, Control_c, 0, 64, 52
1, 338477, Control_c, 0, 64, 58
1, 338491, Control_c, 0, 64, 61
1, 338506, Control_c, 0, 64, 64
1, 338521, Control_c, 0, 64, 67
1, 338536, Control_c, 0, 64, 72
1, 338551, Control_c, 0, 64, 75
1, 338566, Control_c, 0, 64, 78
1, 338581, Control_c, 0, 64, 79
1, 338596, Control_c, 0, 64, 80
1, 338610, Control_c, 0, 64, 81
1, 338625, Control_c, 0, 64, 82
1, 338640, Control_c, 0, 64, 83
1, 338655, Control_c, 0, 64, 84
1, 338668, Note_on_c, 0, 60, 34
1, 338669, Control_c, 0, 64, 85
1, 338684, Control_c, 0, 64, 85
1, 338699, Control_c, 0, 64, 86
1, 338714, Control_c, 0, 64, 86
1, 338729, Control_c, 0, 64, 87
1, 338753, Note_off_c, 0, 57, 40
1, 338758, Control_c, 0, 64, 87
1, 338788, Control_c, 0, 64, 88
1, 338817, Control_c, 0, 64, 88
1, 338832, Control_c, 0, 64, 89
1, 338891, Control_c, 0, 64, 89
1, 339028, Note_on_c, 0, 57, 34
1, 339166, Note_on_c, 0, 71, 47
1, 339171, Note_off_c, 0, 60, 39
1, 339189, Note_off_c, 0, 72, 47
1, 339270, Note_off_c, 0, 71, 59
1, 339287, Note_on_c, 0, 74, 57
1, 339401, Note_on_c, 0, 60, 41
1, 339408, Note_on_c, 0, 72, 58
1, 339421, Note_off_c, 0, 74, 52
1, 339478, Note_off_c, 0, 57, 42
1, 339528, Note_on_c, 0, 70, 64
1, 339529, Note_off_c, 0, 72, 59
1, 339595, Control_c, 0, 64, 89
1, 339624, Note_off_c, 0, 70, 62
1, 339625, Control_c, 0, 64, 88
1, 339639, Control_c, 0, 64, 88
1, 339645, Note_on_c, 0, 69, 62
1, 339654, Control_c, 0, 64, 87
1, 339669, Control_c, 0, 64, 86
1, 339684, Control_c, 0, 64, 84
1, 339698, Control_c, 0, 64, 82
1, 339713, Control_c, 0, 64, 80
1, 339728, Control_c, 0, 64, 78
1, 339743, Control_c, 0, 64, 75
1, 339763, Note_off_c, 0, 69, 61
1, 339765, Control_c, 0, 64, 70
1, 339769, Note_on_c, 0, 58, 47
1, 339780, Control_c, 0, 64, 66
1, 339782, Note_on_c, 0, 67, 58
1, 339797, Control_c, 0, 64, 62
1, 339812, Control_c, 0, 64, 58
1, 339827, Control_c, 0, 64, 56
1, 339837, Note_off_c, 0, 60, 48
1, 339842, Control_c, 0, 64, 55
1, 339856, Control_c, 0, 64, 54
1, 339871, Control_c, 0, 64, 53
1, 339886, Control_c, 0, 64, 51
1, 339897, Note_on_c, 0, 66, 63
1, 339901, Control_c, 0, 64, 48
1, 339907, Note_off_c, 0, 67, 56
1, 339915, Control_c, 0, 64, 45
1, 339930, Control_c, 0, 64, 42
1, 339945, Control_c, 0, 64, 38
1, 339960, Control_c, 0, 64, 34
1, 339975, Control_c, 0, 64, 31
1, 340004, Control_c, 0, 64, 0
1, 340020, Note_off_c, 0, 66, 59
1, 340028, Note_on_c, 0, 69, 57
1, 340152, Note_on_c, 0, 60, 38
1, 340152, Note_on_c, 0, 67, 55
1, 340165, Note_off_c, 0, 69, 59
1, 340232, Note_off_c, 0, 58, 56
1, 340259, Note_off_c, 0, 67, 63
1, 340277, Note_on_c, 0, 65, 53
1, 340301, Control_c, 0, 64, 36
1, 340315, Control_c, 0, 64, 47
1, 340330, Control_c, 0, 64, 57
1, 340339, Note_off_c, 0, 65, 63
1, 340345, Control_c, 0, 64, 62
1, 340360, Control_c, 0, 64, 65
1, 340375, Control_c, 0, 64, 68
1, 340389, Control_c, 0, 64, 70
1, 340402, Note_on_c, 0, 64, 52
1, 340404, Control_c, 0, 64, 74
1, 340406, Note_off_c, 0, 60, 62
1, 340419, Control_c, 0, 64, 78
1, 340433, Control_c, 0, 64, 82
1, 340444, Note_off_c, 0, 64, 64
1, 340448, Control_c, 0, 64, 87
1, 340456, Note_off_c, 0, 53, 59
1, 340463, Control_c, 0, 64, 93
1, 340478, Control_c, 0, 64, 100
1, 340493, Control_c, 0, 64, 108
1, 340515, Control_c, 0, 64, 119
1, 340530, Control_c, 0, 64, 127
1, 340709, Note_on_c, 0, 74, 71
1, 340724, Control_c, 0, 64, 117
1, 340736, Note_on_c, 0, 64, 49
1, 340738, Control_c, 0, 64, 108
1, 340751, Note_on_c, 0, 53, 41
1, 340753, Control_c, 0, 64, 100
1, 340760, Note_on_c, 0, 58, 43
1, 340768, Control_c, 0, 64, 93
1, 340783, Control_c, 0, 64, 86
1, 340798, Control_c, 0, 64, 79
1, 340812, Control_c, 0, 64, 71
1, 340827, Control_c, 0, 64, 64
1, 340842, Control_c, 0, 64, 57
1, 340857, Control_c, 0, 64, 51
1, 340871, Control_c, 0, 64, 46
1, 340886, Control_c, 0, 64, 44
1, 340901, Control_c, 0, 64, 44
1, 340931, Control_c, 0, 64, 44
1, 340945, Control_c, 0, 64, 45
1, 340960, Control_c, 0, 64, 46
1, 340975, Control_c, 0, 64, 47
1, 340990, Control_c, 0, 64, 49
1, 341004, Control_c, 0, 64, 52
1, 341019, Control_c, 0, 64, 55
1, 341034, Control_c, 0, 64, 59
1, 341049, Control_c, 0, 64, 61
1, 341064, Control_c, 0, 64, 63
1, 341079, Control_c, 0, 64, 65
1, 341094, Control_c, 0, 64, 67
1, 341108, Control_c, 0, 64, 69
1, 341123, Control_c, 0, 64, 72
1, 341138, Control_c, 0, 64, 75
1, 341153, Control_c, 0, 64, 77
1, 341168, Control_c, 0, 64, 79
1, 341183, Control_c, 0, 64, 82
1, 341198, Control_c, 0, 64, 86
1, 341212, Control_c, 0, 64, 92
1, 341227, Control_c, 0, 64, 102
1, 341242, Control_c, 0, 64, 113
1, 341263, Control_c, 0, 64, 127
1, 341266, Note_off_c, 0, 64, 39
1, 341338, Note_off_c, 0, 58, 36
1, 341604, Control_c, 0, 64, 122
1, 341619, Control_c, 0, 64, 108
1, 341633, Control_c, 0, 64, 97
1, 341648, Control_c, 0, 64, 89
1, 341653, Note_on_c, 0, 72, 47
1, 341663, Control_c, 0, 64, 82
1, 341676, Note_on_c, 0, 57, 39
1, 341676, Note_on_c, 0, 65, 34
1, 341678, Control_c, 0, 64, 74
1, 341693, Control_c, 0, 64, 65
1, 341708, Control_c, 0, 64, 57
1, 341723, Control_c, 0, 64, 50
1, 341737, Control_c, 0, 64, 45
1, 341752, Control_c, 0, 64, 45
1, 341761, Note_off_c, 0, 74, 48
1, 341767, Control_c, 0, 64, 46
1, 341782, Control_c, 0, 64, 48
1, 341797, Control_c, 0, 64, 52
1, 341803, Note_on_c, 0, 71, 53
1, 341810, Note_off_c, 0, 72, 56
1, 341812, Control_c, 0, 64, 58
1, 341827, Control_c, 0, 64, 62
1, 341841, Control_c, 0, 64, 66
1, 341856, Control_c, 0, 64, 69
1, 341871, Control_c, 0, 64, 72
1, 341885, Control_c, 0, 64, 74
1, 341900, Control_c, 0, 64, 75
1, 341916, Note_off_c, 0, 71, 54
1, 341922, Note_on_c, 0, 74, 51
1, 342011, Note_off_c, 0, 53, 37
1, 342041, Control_c, 0, 64, 75
1, 342053, Note_off_c, 0, 74, 54
1, 342059, Note_on_c, 0, 72, 55
1, 342071, Control_c, 0, 64, 74
1, 342082, Note_off_c, 0, 57, 34
1, 342085, Control_c, 0, 64, 73
1, 342098, Note_off_c, 0, 65, 37
1, 342100, Control_c, 0, 64, 72
1, 342115, Control_c, 0, 64, 70
1, 342130, Control_c, 0, 64, 68
1, 342145, Control_c, 0, 64, 65
1, 342159, Control_c, 0, 64, 63
1, 342164, Note_off_c, 0, 72, 59
1, 342173, Note_on_c, 0, 70, 55
1, 342174, Control_c, 0, 64, 61
1, 342190, Control_c, 0, 64, 60
1, 342205, Control_c, 0, 64, 60
1, 342220, Control_c, 0, 64, 59
1, 342235, Control_c, 0, 64, 58
1, 342250, Control_c, 0, 64, 58
1, 342262, Note_off_c, 0, 70, 62
1, 342264, Control_c, 0, 64, 57
1, 342279, Control_c, 0, 64, 57
1, 342289, Note_on_c, 0, 69, 51
1, 342294, Control_c, 0, 64, 56
1, 342308, Control_c, 0, 64, 56
1, 342323, Control_c, 0, 64, 55
1, 342338, Control_c, 0, 64, 54
1, 342353, Control_c, 0, 64, 53
1, 342368, Control_c, 0, 64, 52
1, 342382, Control_c, 0, 64, 51
1, 342397, Control_c, 0, 64, 49
1, 342399, Note_off_c, 0, 69, 60
1, 342409, Note_on_c, 0, 67, 54
1, 342412, Control_c, 0, 64, 48
1, 342427, Control_c, 0, 64, 47
1, 342442, Control_c, 0, 64, 45
1, 342456, Control_c, 0, 64, 44
1, 342471, Control_c, 0, 64, 42
1, 342486, Control_c, 0, 64, 40
1, 342501, Control_c, 0, 64, 39
1, 342510, Note_off_c, 0, 67, 60
1, 342515, Control_c, 0, 64, 37
1, 342529, Note_on_c, 0, 66, 53
1, 342530, Control_c, 0, 64, 36
1, 342545, Control_c, 0, 64, 35
1, 342560, Control_c, 0, 64, 33
1, 342575, Control_c, 0, 64, 32
1, 342592, Note_off_c, 0, 66, 58
1, 342605, Control_c, 0, 64, 30
1, 342635, Control_c, 0, 64, 0
1, 342641, Note_on_c, 0, 69, 44
1, 342777, Note_off_c, 0, 69, 55
1, 342784, Note_on_c, 0, 67, 50
1, 342880, Note_off_c, 0, 67, 62
1, 342903, Note_on_c, 0, 65, 47
1, 342980, Note_off_c, 0, 65, 60
1, 343036, Note_on_c, 0, 64, 44
1, 343043, Control_c, 0, 64, 40
1, 343058, Control_c, 0, 64, 53
1, 343073, Control_c, 0, 64, 61
1, 343088, Control_c, 0, 64, 65
1, 343103, Control_c, 0, 64, 68
1, 343118, Control_c, 0, 64, 71
1, 343132, Control_c, 0, 64, 73
1, 343147, Control_c, 0, 64, 75
1, 343162, Control_c, 0, 64, 78
1, 343168, Note_off_c, 0, 64, 39
1, 343177, Control_c, 0, 64, 80
1, 343192, Control_c, 0, 64, 82
1, 343206, Control_c, 0, 64, 85
1, 343221, Control_c, 0, 64, 86
1, 343236, Control_c, 0, 64, 86
1, 343311, Note_on_c, 0, 73, 50
1, 343338, Note_on_c, 0, 64, 35
1, 343348, Note_on_c, 0, 58, 36
1, 343354, Control_c, 0, 64, 85
1, 343369, Control_c, 0, 64, 83
1, 343374, Note_on_c, 0, 53, 26
1, 343384, Control_c, 0, 64, 80
1, 343398, Control_c, 0, 64, 76
1, 343413, Control_c, 0, 64, 71
1, 343428, Control_c, 0, 64, 66
1, 343443, Control_c, 0, 64, 60
1, 343457, Control_c, 0, 64, 55
1, 343472, Control_c, 0, 64, 54
1, 343510, Control_c, 0, 64, 55
1, 343525, Control_c, 0, 64, 57
1, 343539, Control_c, 0, 64, 59
1, 343554, Control_c, 0, 64, 61
1, 343569, Control_c, 0, 64, 64
1, 343584, Control_c, 0, 64, 66
1, 343599, Control_c, 0, 64, 68
1, 343613, Control_c, 0, 64, 69
1, 343628, Control_c, 0, 64, 71
1, 343643, Control_c, 0, 64, 73
1, 343657, Control_c, 0, 64, 75
1, 343672, Control_c, 0, 64, 77
1, 343687, Control_c, 0, 64, 79
1, 343702, Control_c, 0, 64, 81
1, 343717, Control_c, 0, 64, 84
1, 343732, Control_c, 0, 64, 87
1, 343747, Control_c, 0, 64, 91
1, 343761, Control_c, 0, 64, 95
1, 343777, Control_c, 0, 64, 100
1, 343792, Control_c, 0, 64, 105
1, 343807, Control_c, 0, 64, 111
1, 343822, Control_c, 0, 64, 120
1, 343836, Control_c, 0, 64, 127
1, 343894, Note_off_c, 0, 64, 43
1, 343979, Note_off_c, 0, 58, 40
1, 344192, Control_c, 0, 64, 112
1, 344207, Control_c, 0, 64, 103
1, 344208, Note_on_c, 0, 72, 45
1, 344221, Control_c, 0, 64, 96
1, 344230, Note_on_c, 0, 56, 38
1, 344232, Note_on_c, 0, 65, 33
1, 344236, Control_c, 0, 64, 89
1, 344259, Control_c, 0, 64, 81
1, 344274, Control_c, 0, 64, 73
1, 344288, Control_c, 0, 64, 64
1, 344297, Note_off_c, 0, 73, 38
1, 344303, Control_c, 0, 64, 55
1, 344318, Control_c, 0, 64, 46
1, 344333, Control_c, 0, 64, 40
1, 344348, Control_c, 0, 64, 39
1, 344362, Control_c, 0, 64, 40
1, 344371, Note_off_c, 0, 72, 58
1, 344377, Control_c, 0, 64, 43
1, 344383, Note_on_c, 0, 71, 41
1, 344392, Control_c, 0, 64, 51
1, 344407, Control_c, 0, 64, 58
1, 344422, Control_c, 0, 64, 64
1, 344436, Control_c, 0, 64, 68
1, 344451, Control_c, 0, 64, 73
1, 344466, Control_c, 0, 64, 77
1, 344480, Control_c, 0, 64, 79
1, 344481, Note_off_c, 0, 71, 52
1, 344495, Control_c, 0, 64, 81
1, 344501, Note_on_c, 0, 73, 51
1, 344510, Control_c, 0, 64, 82
1, 344525, Control_c, 0, 64, 83
1, 344540, Control_c, 0, 64, 83
1, 344540, Control_c, 0, 67, 123
1, 344554, Control_c, 0, 64, 84
1, 344554, Control_c, 0, 67, 103
1, 344569, Control_c, 0, 67, 76
1, 344585, Control_c, 0, 67, 54
1, 344600, Control_c, 0, 67, 0
1, 344602, Note_off_c, 0, 73, 60
1, 344613, Note_off_c, 0, 53, 33
1, 344620, Note_on_c, 0, 72, 52
1, 344647, Note_off_c, 0, 65, 33
1, 344671, Note_off_c, 0, 56, 35
1, 344718, Control_c, 0, 64, 83
1, 344733, Note_on_c, 0, 70, 62
1, 344737, Note_off_c, 0, 72, 55
1, 344748, Control_c, 0, 64, 83
1, 344763, Control_c, 0, 64, 82
1, 344778, Control_c, 0, 64, 81
1, 344793, Control_c, 0, 64, 81
1, 344808, Control_c, 0, 64, 80
1, 344823, Control_c, 0, 64, 79
1, 344838, Control_c, 0, 64, 78
1, 344852, Control_c, 0, 64, 77
1, 344852, Note_on_c, 0, 68, 63
1, 344867, Control_c, 0, 64, 76
1, 344882, Control_c, 0, 64, 75
1, 344896, Control_c, 0, 64, 74
1, 344911, Control_c, 0, 64, 72
1, 344926, Control_c, 0, 64, 71
1, 344941, Control_c, 0, 64, 68
1, 344943, Note_off_c, 0, 70, 38
1, 344956, Control_c, 0, 64, 66
1, 344968, Note_on_c, 0, 67, 67
1, 344970, Control_c, 0, 64, 64
1, 344985, Control_c, 0, 64, 62
1, 345007, Control_c, 0, 64, 60
1, 345020, Note_off_c, 0, 68, 58
1, 345022, Control_c, 0, 64, 59
1, 345037, Control_c, 0, 64, 59
1, 345052, Control_c, 0, 64, 58
1, 345067, Control_c, 0, 64, 58
1, 345082, Control_c, 0, 64, 57
1, 345092, Note_on_c, 0, 65, 59
1, 345097, Control_c, 0, 64, 56
1, 345097, Note_off_c, 0, 67, 62
1, 345111, Control_c, 0, 64, 55
1, 345126, Control_c, 0, 64, 54
1, 345141, Control_c, 0, 64, 53
1, 345156, Control_c, 0, 64, 51
1, 345171, Control_c, 0, 64, 49
1, 345185, Control_c, 0, 64, 47
1, 345200, Control_c, 0, 64, 44
1, 345208, Note_on_c, 0, 68, 69
1, 345215, Note_off_c, 0, 65, 58
1, 345215, Control_c, 0, 64, 41
1, 345229, Control_c, 0, 64, 37
1, 345244, Control_c, 0, 64, 30
1, 345259, Control_c, 0, 64, 0
1, 345326, Note_on_c, 0, 67, 70
1, 345430, Note_off_c, 0, 68, 54
1, 345441, Note_on_c, 0, 65, 67
1, 345446, Note_off_c, 0, 67, 64
1, 345526, Control_c, 0, 64, 41
1, 345541, Control_c, 0, 64, 54
1, 345548, Note_off_c, 0, 65, 62
1, 345556, Control_c, 0, 64, 62
1, 345570, Note_on_c, 0, 63, 71
1, 345571, Control_c, 0, 64, 67
1, 345586, Control_c, 0, 64, 72
1, 345601, Control_c, 0, 64, 77
1, 345616, Control_c, 0, 64, 83
1, 345630, Control_c, 0, 64, 89
1, 345645, Control_c, 0, 64, 97
1, 345660, Control_c, 0, 64, 111
1, 345675, Control_c, 0, 64, 127
1, 345693, Note_off_c, 0, 63, 61
1, 345867, Note_on_c, 0, 77, 80
1, 345893, Note_on_c, 0, 61, 56
1, 345896, Note_on_c, 0, 58, 54
1, 345896, Note_on_c, 0, 55, 54
1, 345963, Control_c, 0, 64, 111
1, 345978, Control_c, 0, 64, 98
1, 345993, Control_c, 0, 64, 90
1, 346007, Control_c, 0, 64, 82
1, 346022, Control_c, 0, 64, 74
1, 346037, Control_c, 0, 64, 66
1, 346051, Control_c, 0, 64, 59
1, 346066, Control_c, 0, 64, 52
1, 346081, Control_c, 0, 64, 46
1, 346096, Control_c, 0, 64, 39
1, 346111, Control_c, 0, 64, 32
1, 346125, Control_c, 0, 64, 0
1, 346668, Control_c, 0, 64, 33
1, 346683, Control_c, 0, 64, 40
1, 346698, Control_c, 0, 64, 47
1, 346713, Control_c, 0, 64, 55
1, 346727, Control_c, 0, 64, 60
1, 346742, Control_c, 0, 64, 62
1, 346757, Control_c, 0, 64, 64
1, 346766, Note_on_c, 0, 75, 57
1, 346772, Control_c, 0, 64, 65
1, 346787, Control_c, 0, 64, 66
1, 346801, Control_c, 0, 64, 68
1, 346816, Control_c, 0, 64, 71
1, 346831, Control_c, 0, 64, 74
1, 346846, Note_off_c, 0, 77, 46
1, 346846, Control_c, 0, 64, 80
1, 346861, Control_c, 0, 64, 86
1, 346875, Control_c, 0, 64, 94
1, 346890, Control_c, 0, 64, 104
1, 346905, Control_c, 0, 64, 127
1, 346930, Note_off_c, 0, 75, 53
1, 347233, Note_on_c, 0, 75, 72
1, 347361, Note_off_c, 0, 75, 56
1, 347617, Note_on_c, 0, 75, 78
1, 347727, Note_off_c, 0, 75, 58
1, 347894, Note_off_c, 0, 61, 37
1, 347982, Note_on_c, 0, 75, 88
1, 348067, Note_off_c, 0, 75, 63
1, 348217, Note_off_c, 0, 55, 17
1, 348511, Note_on_c, 0, 75, 81
1, 348530, Note_on_c, 0, 60, 58
1, 348555, Note_on_c, 0, 56, 50
1, 348641, Control_c, 0, 64, 120
1, 348656, Control_c, 0, 64, 98
1, 348670, Control_c, 0, 64, 86
1, 348685, Control_c, 0, 64, 77
1, 348700, Control_c, 0, 64, 69
1, 348701, Note_off_c, 0, 58, 37
1, 348715, Control_c, 0, 64, 62
1, 348730, Control_c, 0, 64, 55
1, 348751, Control_c, 0, 64, 50
1, 348766, Control_c, 0, 64, 45
1, 348781, Control_c, 0, 64, 39
1, 348796, Control_c, 0, 64, 32
1, 348811, Control_c, 0, 64, 0
1, 348989, Control_c, 0, 64, 39
1, 349004, Control_c, 0, 64, 53
1, 349018, Control_c, 0, 64, 64
1, 349033, Control_c, 0, 64, 70
1, 349048, Control_c, 0, 64, 76
1, 349063, Control_c, 0, 64, 81
1, 349077, Control_c, 0, 64, 87
1, 349092, Control_c, 0, 64, 94
1, 349107, Control_c, 0, 64, 104
1, 349122, Control_c, 0, 64, 127
1, 349142, Note_off_c, 0, 75, 49
1, 349300, Control_c, 0, 67, 41
1, 349315, Control_c, 0, 67, 50
1, 349330, Control_c, 0, 67, 60
1, 349344, Control_c, 0, 67, 78
1, 349359, Control_c, 0, 67, 96
1, 349374, Control_c, 0, 67, 114
1, 349389, Control_c, 0, 67, 127
1, 349544, Note_on_c, 0, 77, 54
1, 349625, Note_off_c, 0, 77, 59
1, 349630, Note_on_c, 0, 75, 64
1, 349664, Control_c, 0, 64, 117
1, 349679, Control_c, 0, 64, 109
1, 349693, Control_c, 0, 64, 103
1, 349708, Control_c, 0, 64, 99
1, 349711, Note_on_c, 0, 73, 59
1, 349718, Note_off_c, 0, 75, 56
1, 349723, Control_c, 0, 64, 96
1, 349738, Control_c, 0, 64, 93
1, 349753, Control_c, 0, 64, 91
1, 349765, Note_off_c, 0, 73, 58
1, 349767, Control_c, 0, 64, 88
1, 349782, Control_c, 0, 64, 84
1, 349791, Note_on_c, 0, 72, 60
1, 349797, Control_c, 0, 64, 80
1, 349812, Control_c, 0, 64, 76
1, 349826, Control_c, 0, 64, 72
1, 349841, Control_c, 0, 64, 68
1, 349853, Note_off_c, 0, 72, 56
1, 349856, Control_c, 0, 64, 63
1, 349871, Control_c, 0, 64, 60
1, 349875, Note_on_c, 0, 70, 62
1, 349886, Control_c, 0, 64, 57
1, 349900, Control_c, 0, 64, 54
1, 349915, Control_c, 0, 64, 51
1, 349930, Control_c, 0, 64, 46
1, 349945, Control_c, 0, 64, 37
1, 349950, Note_off_c, 0, 70, 62
1, 349956, Note_on_c, 0, 68, 58
1, 349960, Control_c, 0, 64, 0
1, 350045, Note_off_c, 0, 68, 63
1, 350055, Note_on_c, 0, 66, 58
1, 350082, Note_on_c, 0, 61, 32
1, 350083, Note_on_c, 0, 58, 33
1, 350117, Note_off_c, 0, 60, 54
1, 350138, Note_off_c, 0, 56, 56
1, 350220, Note_off_c, 0, 66, 35
1, 350266, Note_on_c, 0, 68, 49
1, 350304, Note_off_c, 0, 68, 64
1, 350331, Note_on_c, 0, 66, 57
1, 350363, Note_off_c, 0, 66, 59
1, 350395, Note_on_c, 0, 65, 56
1, 350457, Note_on_c, 0, 66, 46
1, 350465, Note_off_c, 0, 65, 48
1, 350521, Note_off_c, 0, 66, 60
1, 350534, Note_on_c, 0, 70, 49
1, 350605, Control_c, 0, 64, 38
1, 350620, Control_c, 0, 64, 51
1, 350635, Control_c, 0, 64, 58
1, 350649, Control_c, 0, 64, 61
1, 350664, Control_c, 0, 64, 64
1, 350671, Note_off_c, 0, 61, 43
1, 350679, Control_c, 0, 64, 66
1, 350694, Control_c, 0, 64, 69
1, 350700, Note_off_c, 0, 58, 55
1, 350709, Control_c, 0, 64, 71
1, 350723, Control_c, 0, 64, 73
1, 350738, Control_c, 0, 64, 74
1, 350745, Note_on_c, 0, 73, 46
1, 350753, Control_c, 0, 64, 76
1, 350767, Control_c, 0, 64, 79
1, 350782, Control_c, 0, 64, 81
1, 350797, Control_c, 0, 64, 83
1, 350810, Note_off_c, 0, 70, 38
1, 350812, Control_c, 0, 64, 84
1, 350856, Control_c, 0, 64, 84
1, 350916, Control_c, 0, 64, 84
1, 350945, Control_c, 0, 64, 83
1, 350961, Control_c, 0, 64, 82
1, 350976, Control_c, 0, 64, 78
1, 350996, Note_on_c, 0, 65, 54
1, 350999, Control_c, 0, 64, 73
1, 351008, Note_on_c, 0, 56, 39
1, 351014, Control_c, 0, 64, 65
1, 351014, Note_on_c, 0, 48, 39
1, 351028, Control_c, 0, 64, 55
1, 351043, Control_c, 0, 64, 47
1, 351058, Control_c, 0, 64, 37
1, 351072, Control_c, 0, 64, 0
1, 351108, Note_off_c, 0, 73, 55
1, 351404, Note_on_c, 0, 57, 53
1, 351578, Note_off_c, 0, 56, 63
1, 351620, Control_c, 0, 64, 32
1, 351635, Control_c, 0, 64, 41
1, 351650, Control_c, 0, 64, 48
1, 351664, Control_c, 0, 64, 54
1, 351679, Control_c, 0, 64, 57
1, 351694, Control_c, 0, 64, 58
1, 351709, Control_c, 0, 64, 59
1, 351746, Control_c, 0, 64, 58
1, 351761, Control_c, 0, 64, 57
1, 351777, Control_c, 0, 64, 55
1, 351792, Control_c, 0, 64, 51
1, 351792, Control_c, 0, 67, 119
1, 351796, Note_on_c, 0, 58, 65
1, 351807, Control_c, 0, 64, 46
1, 351807, Control_c, 0, 67, 104
1, 351821, Control_c, 0, 64, 41
1, 351821, Control_c, 0, 67, 89
1, 351836, Control_c, 0, 64, 35
1, 351836, Control_c, 0, 67, 73
1, 351851, Control_c, 0, 64, 34
1, 351851, Control_c, 0, 67, 51
1, 351866, Control_c, 0, 64, 36
1, 351866, Control_c, 0, 67, 0
1, 351881, Control_c, 0, 64, 40
1, 351895, Control_c, 0, 64, 47
1, 351910, Control_c, 0, 64, 56
1, 351925, Control_c, 0, 64, 61
1, 351933, Note_off_c, 0, 57, 55
1, 351940, Control_c, 0, 64, 65
1, 351955, Control_c, 0, 64, 68
1, 351969, Control_c, 0, 64, 71
1, 351984, Control_c, 0, 64, 74
1, 351999, Control_c, 0, 64, 78
1, 352014, Control_c, 0, 64, 81
1, 352028, Control_c, 0, 64, 85
1, 352043, Control_c, 0, 64, 90
1, 352058, Control_c, 0, 64, 94
1, 352073, Control_c, 0, 64, 96
1, 352206, Note_off_c, 0, 65, 51
1, 352208, Note_on_c, 0, 67, 56
1, 352221, Note_on_c, 0, 59, 48
1, 352221, Control_c, 0, 64, 95
1, 352236, Control_c, 0, 64, 94
1, 352251, Control_c, 0, 64, 90
1, 352266, Control_c, 0, 64, 85
1, 352281, Control_c, 0, 64, 78
1, 352295, Control_c, 0, 64, 70
1, 352299, Note_off_c, 0, 58, 58
1, 352310, Control_c, 0, 64, 62
1, 352317, Note_on_c, 0, 65, 66
1, 352322, Note_off_c, 0, 67, 61
1, 352325, Control_c, 0, 64, 53
1, 352340, Control_c, 0, 64, 46
1, 352355, Control_c, 0, 64, 45
1, 352369, Control_c, 0, 64, 47
1, 352384, Control_c, 0, 64, 52
1, 352399, Control_c, 0, 64, 58
1, 352411, Note_off_c, 0, 65, 61
1, 352413, Control_c, 0, 64, 62
1, 352416, Note_on_c, 0, 64, 68
1, 352428, Control_c, 0, 64, 64
1, 352443, Control_c, 0, 64, 65
1, 352473, Control_c, 0, 64, 65
1, 352510, Control_c, 0, 64, 64
1, 352522, Note_on_c, 0, 65, 76
1, 352525, Control_c, 0, 64, 64
1, 352540, Control_c, 0, 64, 63
1, 352546, Note_off_c, 0, 64, 56
1, 352555, Control_c, 0, 64, 61
1, 352571, Control_c, 0, 64, 60
1, 352586, Control_c, 0, 64, 57
1, 352600, Control_c, 0, 64, 54
1, 352615, Control_c, 0, 64, 51
1, 352630, Control_c, 0, 64, 47
1, 352645, Control_c, 0, 64, 42
1, 352655, Note_on_c, 0, 68, 69
1, 352659, Control_c, 0, 64, 33
1, 352674, Control_c, 0, 64, 0
1, 352689, Note_on_c, 0, 60, 48
1, 352713, Note_off_c, 0, 65, 58
1, 352746, Note_off_c, 0, 59, 61
1, 352852, Control_c, 0, 64, 39
1, 352867, Control_c, 0, 64, 54
1, 352882, Control_c, 0, 64, 63
1, 352897, Control_c, 0, 64, 67
1, 352912, Control_c, 0, 64, 71
1, 352926, Control_c, 0, 64, 73
1, 352941, Control_c, 0, 64, 74
1, 352956, Control_c, 0, 64, 76
1, 352971, Control_c, 0, 64, 78
1, 352986, Control_c, 0, 64, 79
1, 353000, Control_c, 0, 64, 80
1, 353074, Control_c, 0, 64, 79
1, 353089, Control_c, 0, 64, 78
1, 353104, Control_c, 0, 64, 76
1, 353119, Control_c, 0, 64, 72
1, 353121, Note_on_c, 0, 67, 62
1, 353133, Control_c, 0, 64, 65
1, 353148, Control_c, 0, 64, 57
1, 353163, Control_c, 0, 64, 43
1, 353163, Note_on_c, 0, 58, 39
1, 353178, Control_c, 0, 64, 0
1, 353220, Note_off_c, 0, 60, 47
1, 353256, Note_off_c, 0, 68, 56
1, 353289, Control_c, 0, 64, 36
1, 353304, Control_c, 0, 64, 48
1, 353318, Control_c, 0, 64, 57
1, 353333, Control_c, 0, 64, 63
1, 353348, Control_c, 0, 64, 68
1, 353364, Control_c, 0, 64, 72
1, 353379, Control_c, 0, 64, 77
1, 353394, Control_c, 0, 64, 81
1, 353400, Note_off_c, 0, 48, 54
1, 353409, Control_c, 0, 64, 85
1, 353423, Control_c, 0, 64, 92
1, 353438, Control_c, 0, 64, 102
1, 353453, Control_c, 0, 64, 127
1, 353578, Note_off_c, 0, 58, 49
1, 353628, Note_off_c, 0, 67, 38
1, 353718, Note_on_c, 0, 65, 53
1, 353747, Note_on_c, 0, 57, 40
1, 353749, Control_c, 0, 64, 97
1, 353758, Note_on_c, 0, 53, 40
1, 353764, Control_c, 0, 64, 76
1, 353779, Control_c, 0, 64, 60
1, 353793, Control_c, 0, 64, 46
1, 353808, Control_c, 0, 64, 36
1, 353838, Control_c, 0, 64, 41
1, 353853, Control_c, 0, 64, 50
1, 353867, Control_c, 0, 64, 59
1, 353882, Control_c, 0, 64, 67
1, 353897, Control_c, 0, 64, 73
1, 353912, Control_c, 0, 64, 78
1, 353927, Control_c, 0, 64, 82
1, 353941, Control_c, 0, 64, 85
1, 353947, Note_off_c, 0, 65, 54
1, 353956, Control_c, 0, 64, 91
1, 353971, Control_c, 0, 64, 97
1, 353993, Control_c, 0, 64, 117
1, 354008, Control_c, 0, 64, 127
1, 354283, Note_on_c, 0, 81, 74
1, 354544, Note_on_c, 0, 60, 30
1, 354636, Note_off_c, 0, 57, 37
1, 354930, Note_on_c, 0, 57, 33
1, 355074, Note_off_c, 0, 60, 40
1, 355192, Note_off_c, 0, 57, 41
1, 355358, Note_on_c, 0, 60, 35
1, 355406, Note_off_c, 0, 53, 53
1, 355614, Note_off_c, 0, 60, 41
1, 355795, Note_on_c, 0, 55, 41
1, 355813, Note_on_c, 0, 46, 42
1, 355816, Control_c, 0, 64, 97
1, 355831, Control_c, 0, 64, 80
1, 355846, Control_c, 0, 64, 67
1, 355861, Control_c, 0, 64, 56
1, 355876, Control_c, 0, 64, 47
1, 355891, Control_c, 0, 64, 45
1, 355906, Control_c, 0, 64, 46
1, 355921, Control_c, 0, 64, 52
1, 355935, Control_c, 0, 64, 57
1, 355946, Note_on_c, 0, 79, 55
1, 355950, Control_c, 0, 64, 62
1, 355965, Control_c, 0, 64, 66
1, 355979, Control_c, 0, 64, 71
1, 355994, Control_c, 0, 64, 76
1, 356002, Note_off_c, 0, 81, 52
1, 356009, Control_c, 0, 64, 80
1, 356024, Control_c, 0, 64, 83
1, 356039, Control_c, 0, 64, 86
1, 356053, Control_c, 0, 64, 89
1, 356068, Control_c, 0, 64, 93
1, 356069, Note_on_c, 0, 82, 70
1, 356083, Control_c, 0, 64, 97
1, 356096, Note_off_c, 0, 79, 56
1, 356098, Control_c, 0, 64, 102
1, 356113, Control_c, 0, 64, 107
1, 356127, Control_c, 0, 64, 114
1, 356142, Control_c, 0, 64, 124
1, 356157, Control_c, 0, 64, 127
1, 356168, Note_on_c, 0, 81, 74
1, 356259, Note_on_c, 0, 58, 51
1, 356262, Note_off_c, 0, 82, 39
1, 356279, Note_on_c, 0, 79, 74
1, 356318, Note_off_c, 0, 81, 59
1, 356338, Note_off_c, 0, 46, 49
1, 356375, Note_off_c, 0, 58, 54
1, 356375, Note_off_c, 0, 79, 63
1, 356377, Note_on_c, 0, 77, 76
1, 356436, Note_off_c, 0, 55, 34
1, 356477, Note_on_c, 0, 76, 76
1, 356490, Note_off_c, 0, 77, 57
1, 356583, Note_on_c, 0, 74, 77
1, 356641, Note_off_c, 0, 76, 60
1, 356713, Control_c, 0, 64, 112
1, 356721, Note_on_c, 0, 72, 72
1, 356728, Control_c, 0, 64, 96
1, 356743, Control_c, 0, 64, 85
1, 356747, Note_on_c, 0, 53, 37
1, 356755, Note_on_c, 0, 48, 44
1, 356758, Control_c, 0, 64, 74
1, 356770, Note_off_c, 0, 74, 61
1, 356773, Control_c, 0, 64, 64
1, 356788, Control_c, 0, 64, 55
1, 356803, Control_c, 0, 64, 44
1, 356817, Control_c, 0, 64, 0
1, 356921, Control_c, 0, 64, 39
1, 356936, Control_c, 0, 64, 52
1, 356950, Control_c, 0, 64, 60
1, 356965, Control_c, 0, 64, 65
1, 356988, Control_c, 0, 64, 70
1, 357003, Control_c, 0, 64, 74
1, 357017, Control_c, 0, 64, 76
1, 357032, Control_c, 0, 64, 78
1, 357047, Control_c, 0, 64, 81
1, 357062, Control_c, 0, 64, 82
1, 357077, Control_c, 0, 64, 84
1, 357091, Control_c, 0, 64, 86
1, 357106, Control_c, 0, 64, 89
1, 357121, Control_c, 0, 64, 91
1, 357135, Control_c, 0, 64, 93
1, 357150, Control_c, 0, 64, 95
1, 357150, Control_c, 0, 67, 37
1, 357164, Note_on_c, 0, 57, 38
1, 357165, Control_c, 0, 67, 52
1, 357180, Control_c, 0, 64, 98
1, 357180, Control_c, 0, 67, 70
1, 357195, Control_c, 0, 67, 92
1, 357209, Control_c, 0, 64, 100
1, 357209, Control_c, 0, 67, 117
1, 357224, Control_c, 0, 67, 127
1, 357254, Control_c, 0, 64, 102
1, 357301, Note_off_c, 0, 53, 35
1, 357559, Note_on_c, 0, 53, 38
1, 357655, Control_c, 0, 64, 100
1, 357670, Control_c, 0, 64, 98
1, 357673, Note_off_c, 0, 57, 38
1, 357685, Control_c, 0, 64, 94
1, 357700, Control_c, 0, 64, 90
1, 357714, Control_c, 0, 64, 83
1, 357736, Control_c, 0, 64, 76
1, 357751, Control_c, 0, 64, 67
1, 357766, Control_c, 0, 64, 59
1, 357768, Note_on_c, 0, 77, 52
1, 357781, Control_c, 0, 64, 52
1, 357796, Control_c, 0, 64, 49
1, 357810, Control_c, 0, 64, 48
1, 357825, Control_c, 0, 64, 49
1, 357840, Control_c, 0, 64, 52
1, 357855, Control_c, 0, 64, 57
1, 357870, Control_c, 0, 64, 61
1, 357885, Control_c, 0, 64, 64
1, 357900, Control_c, 0, 64, 68
1, 357914, Control_c, 0, 64, 71
1, 357929, Control_c, 0, 64, 73
1, 357930, Note_off_c, 0, 72, 28
1, 357943, Note_off_c, 0, 77, 57
1, 357944, Control_c, 0, 64, 74
1, 357958, Control_c, 0, 64, 75
1, 357965, Note_on_c, 0, 69, 54
1, 357988, Note_on_c, 0, 57, 37
1, 358018, Control_c, 0, 64, 75
1, 358099, Note_off_c, 0, 53, 38
1, 358160, Note_on_c, 0, 74, 60
1, 358172, Note_off_c, 0, 48, 36
1, 358315, Control_c, 0, 64, 75
1, 358344, Control_c, 0, 64, 74
1, 358359, Control_c, 0, 64, 73
1, 358373, Note_on_c, 0, 72, 52
1, 358374, Control_c, 0, 64, 70
1, 358389, Control_c, 0, 64, 66
1, 358393, Note_on_c, 0, 48, 38
1, 358394, Note_on_c, 0, 52, 37
1, 358404, Control_c, 0, 64, 62
1, 358419, Control_c, 0, 64, 57
1, 358433, Control_c, 0, 64, 53
1, 358438, Note_off_c, 0, 69, 40
1, 358448, Control_c, 0, 64, 48
1, 358463, Control_c, 0, 64, 41
1, 358485, Control_c, 0, 64, 32
1, 358498, Note_off_c, 0, 57, 43
1, 358500, Control_c, 0, 64, 0
1, 358517, Note_off_c, 0, 74, 29
1, 358571, Note_on_c, 0, 70, 54
1, 358651, Note_off_c, 0, 72, 53
1, 358770, Note_on_c, 0, 67, 56
1, 358775, Note_on_c, 0, 55, 32
1, 358781, Control_c, 0, 64, 35
1, 358796, Control_c, 0, 64, 45
1, 358811, Control_c, 0, 64, 54
1, 358811, Control_c, 0, 67, 117
1, 358825, Note_off_c, 0, 70, 58
1, 358826, Control_c, 0, 64, 60
1, 358826, Control_c, 0, 67, 93
1, 358841, Control_c, 0, 64, 63
1, 358841, Control_c, 0, 67, 66
1, 358855, Control_c, 0, 64, 65
1, 358855, Control_c, 0, 67, 42
1, 358870, Control_c, 0, 64, 67
1, 358870, Control_c, 0, 67, 0
1, 358885, Control_c, 0, 64, 69
1, 358892, Note_off_c, 0, 67, 61
1, 358900, Control_c, 0, 64, 71
1, 358915, Control_c, 0, 64, 73
1, 358929, Control_c, 0, 64, 75
1, 358944, Control_c, 0, 64, 78
1, 358953, Note_off_c, 0, 52, 33
1, 358960, Control_c, 0, 64, 81
1, 358975, Control_c, 0, 64, 86
1, 358984, Note_on_c, 0, 64, 47
1, 358990, Control_c, 0, 64, 90
1, 359004, Control_c, 0, 64, 95
1, 359006, Note_off_c, 0, 48, 40
1, 359019, Control_c, 0, 64, 100
1, 359034, Control_c, 0, 64, 108
1, 359049, Control_c, 0, 64, 127
1, 359062, Note_off_c, 0, 64, 61
1, 359130, Note_off_c, 0, 55, 38
1, 359310, Note_on_c, 0, 81, 81
1, 359346, Note_on_c, 0, 57, 53
1, 359357, Note_on_c, 0, 53, 38
1, 359398, Control_c, 0, 64, 103
1, 359412, Control_c, 0, 64, 90
1, 359427, Control_c, 0, 64, 79
1, 359442, Control_c, 0, 64, 69
1, 359457, Control_c, 0, 64, 59
1, 359472, Control_c, 0, 64, 45
1, 359486, Control_c, 0, 64, 0
1, 359575, Control_c, 0, 64, 34
1, 359590, Control_c, 0, 64, 45
1, 359605, Control_c, 0, 64, 54
1, 359620, Control_c, 0, 64, 60
1, 359635, Control_c, 0, 64, 64
1, 359650, Control_c, 0, 64, 66
1, 359665, Control_c, 0, 64, 69
1, 359679, Control_c, 0, 64, 71
1, 359694, Control_c, 0, 64, 73
1, 359709, Control_c, 0, 64, 75
1, 359724, Control_c, 0, 64, 77
1, 359738, Control_c, 0, 64, 79
1, 359753, Note_on_c, 0, 60, 43
1, 359754, Control_c, 0, 64, 83
1, 359769, Control_c, 0, 64, 88
1, 359784, Control_c, 0, 64, 95
1, 359799, Control_c, 0, 64, 103
1, 359814, Control_c, 0, 64, 113
1, 359828, Control_c, 0, 64, 127
1, 359876, Note_off_c, 0, 57, 64
1, 360114, Note_off_c, 0, 60, 29
1, 360125, Note_on_c, 0, 55, 62
1, 360162, Note_on_c, 0, 49, 47
1, 360205, Control_c, 0, 64, 96
1, 360220, Control_c, 0, 64, 80
1, 360234, Control_c, 0, 64, 66
1, 360249, Control_c, 0, 64, 51
1, 360264, Control_c, 0, 64, 0
1, 360342, Note_off_c, 0, 53, 57
1, 360353, Control_c, 0, 64, 42
1, 360368, Control_c, 0, 64, 54
1, 360383, Control_c, 0, 64, 63
1, 360398, Control_c, 0, 64, 67
1, 360413, Control_c, 0, 64, 71
1, 360427, Control_c, 0, 64, 73
1, 360442, Control_c, 0, 64, 76
1, 360457, Control_c, 0, 64, 79
1, 360472, Control_c, 0, 64, 83
1, 360487, Control_c, 0, 64, 87
1, 360501, Control_c, 0, 64, 92
1, 360516, Control_c, 0, 64, 97
1, 360531, Control_c, 0, 64, 106
1, 360544, Note_on_c, 0, 57, 44
1, 360547, Control_c, 0, 64, 127
1, 360553, Note_off_c, 0, 55, 35
1, 360679, Note_off_c, 0, 49, 62
1, 360980, Note_on_c, 0, 53, 49
1, 360983, Control_c, 0, 64, 115
1, 360992, Note_on_c, 0, 50, 46
1, 360998, Control_c, 0, 64, 92
1, 361013, Control_c, 0, 64, 77
1, 361028, Control_c, 0, 64, 61
1, 361043, Control_c, 0, 64, 46
1, 361057, Control_c, 0, 64, 0
1, 361101, Control_c, 0, 64, 30
1, 361107, Note_on_c, 0, 79, 56
1, 361116, Control_c, 0, 64, 41
1, 361119, Note_off_c, 0, 57, 43
1, 361131, Control_c, 0, 64, 55
1, 361146, Control_c, 0, 64, 63
1, 361156, Note_off_c, 0, 81, 59
1, 361161, Control_c, 0, 64, 71
1, 361176, Control_c, 0, 64, 78
1, 361191, Control_c, 0, 64, 84
1, 361191, Control_c, 0, 67, 36
1, 361206, Control_c, 0, 64, 88
1, 361206, Control_c, 0, 67, 44
1, 361221, Control_c, 0, 64, 93
1, 361221, Control_c, 0, 67, 54
1, 361226, Note_on_c, 0, 82, 73
1, 361236, Control_c, 0, 64, 96
1, 361236, Control_c, 0, 67, 70
1, 361250, Control_c, 0, 64, 100
1, 361250, Control_c, 0, 67, 89
1, 361251, Note_off_c, 0, 79, 60
1, 361265, Control_c, 0, 64, 104
1, 361265, Control_c, 0, 67, 109
1, 361280, Control_c, 0, 64, 107
1, 361280, Control_c, 0, 67, 126
1, 361294, Control_c, 0, 64, 109
1, 361307, Note_off_c, 0, 50, 32
1, 361309, Control_c, 0, 64, 111
1, 361328, Note_on_c, 0, 81, 75
1, 361399, Control_c, 0, 64, 108
1, 361414, Control_c, 0, 64, 99
1, 361414, Note_off_c, 0, 82, 40
1, 361429, Control_c, 0, 64, 83
1, 361438, Note_on_c, 0, 79, 72
1, 361442, Note_on_c, 0, 56, 50
1, 361444, Control_c, 0, 64, 70
1, 361447, Note_on_c, 0, 47, 48
1, 361459, Control_c, 0, 64, 59
1, 361477, Note_off_c, 0, 53, 42
1, 361479, Note_off_c, 0, 81, 60
1, 361480, Control_c, 0, 64, 48
1, 361495, Control_c, 0, 64, 43
1, 361525, Control_c, 0, 64, 47
1, 361540, Control_c, 0, 64, 55
1, 361543, Note_on_c, 0, 77, 74
1, 361545, Note_off_c, 0, 79, 62
1, 361554, Control_c, 0, 64, 62
1, 361569, Control_c, 0, 64, 67
1, 361584, Control_c, 0, 64, 73
1, 361599, Control_c, 0, 64, 79
1, 361614, Control_c, 0, 64, 83
1, 361626, Note_off_c, 0, 47, 33
1, 361629, Control_c, 0, 64, 86
1, 361644, Control_c, 0, 64, 89
1, 361650, Note_on_c, 0, 76, 75
1, 361657, Note_off_c, 0, 56, 61
1, 361659, Control_c, 0, 64, 91
1, 361670, Note_off_c, 0, 77, 48
1, 361673, Control_c, 0, 64, 94
1, 361688, Control_c, 0, 64, 97
1, 361703, Control_c, 0, 64, 100
1, 361733, Control_c, 0, 64, 103
1, 361755, Note_on_c, 0, 74, 80
1, 361762, Control_c, 0, 64, 105
1, 361808, Note_off_c, 0, 76, 58
1, 361895, Control_c, 0, 64, 103
1, 361910, Control_c, 0, 64, 99
1, 361914, Note_on_c, 0, 72, 72
1, 361924, Control_c, 0, 64, 92
1, 361934, Note_on_c, 0, 57, 47
1, 361939, Control_c, 0, 64, 83
1, 361948, Note_on_c, 0, 48, 47
1, 361954, Control_c, 0, 64, 74
1, 361969, Control_c, 0, 64, 65
1, 361973, Note_off_c, 0, 74, 62
1, 361984, Control_c, 0, 64, 56
1, 361999, Control_c, 0, 64, 46
1, 362014, Control_c, 0, 64, 0
1, 362177, Control_c, 0, 64, 36
1, 362192, Control_c, 0, 64, 47
1, 362207, Control_c, 0, 64, 57
1, 362229, Control_c, 0, 64, 64
1, 362244, Control_c, 0, 64, 67
1, 362260, Control_c, 0, 64, 69
1, 362275, Control_c, 0, 64, 70
1, 362290, Control_c, 0, 64, 71
1, 362304, Control_c, 0, 64, 72
1, 362319, Control_c, 0, 64, 73
1, 362334, Control_c, 0, 64, 74
1, 362349, Control_c, 0, 64, 75
1, 362363, Control_c, 0, 64, 76
1, 362371, Note_on_c, 0, 60, 41
1, 362378, Control_c, 0, 64, 77
1, 362393, Control_c, 0, 64, 78
1, 362408, Control_c, 0, 64, 79
1, 362423, Control_c, 0, 64, 80
1, 362437, Control_c, 0, 64, 80
1, 362446, Note_off_c, 0, 57, 59
1, 362598, Note_off_c, 0, 60, 33
1, 362778, Control_c, 0, 64, 80
1, 362808, Control_c, 0, 64, 79
1, 362822, Control_c, 0, 64, 79
1, 362837, Control_c, 0, 64, 78
1, 362852, Control_c, 0, 64, 77
1, 362866, Control_c, 0, 64, 76
1, 362881, Control_c, 0, 64, 75
1, 362896, Control_c, 0, 64, 73
1, 362897, Note_on_c, 0, 53, 36
1, 362911, Control_c, 0, 64, 70
1, 362926, Control_c, 0, 64, 66
1, 362942, Control_c, 0, 64, 61
1, 362957, Control_c, 0, 64, 56
1, 362979, Control_c, 0, 64, 53
1, 362994, Control_c, 0, 64, 51
1, 363040, Note_on_c, 0, 73, 46
1, 363051, Note_off_c, 0, 72, 52
1, 363137, Note_off_c, 0, 73, 61
1, 363158, Note_on_c, 0, 76, 49
1, 363265, Note_on_c, 0, 74, 54
1, 363361, Note_off_c, 0, 74, 58
1, 363375, Note_off_c, 0, 76, 40
1, 363376, Note_on_c, 0, 72, 53
1, 363384, Note_on_c, 0, 57, 38
1, 363459, Note_off_c, 0, 72, 60
1, 363471, Note_off_c, 0, 53, 54
1, 363475, Note_on_c, 0, 70, 51
1, 363512, Control_c, 0, 64, 52
1, 363537, Note_off_c, 0, 70, 61
1, 363557, Control_c, 0, 64, 53
1, 363571, Control_c, 0, 64, 53
1, 363581, Note_on_c, 0, 69, 50
1, 363586, Control_c, 0, 64, 54
1, 363602, Note_off_c, 0, 48, 54
1, 363616, Control_c, 0, 64, 54
1, 363650, Note_off_c, 0, 69, 62
1, 363678, Note_on_c, 0, 67, 51
1, 363704, Control_c, 0, 64, 54
1, 363742, Control_c, 0, 64, 53
1, 363772, Control_c, 0, 64, 53
1, 363773, Note_off_c, 0, 67, 62
1, 363787, Control_c, 0, 64, 52
1, 363799, Note_on_c, 0, 65, 44
1, 363802, Control_c, 0, 64, 50
1, 363802, Note_on_c, 0, 55, 25
1, 363809, Note_on_c, 0, 48, 13
1, 363817, Control_c, 0, 64, 48
1, 363832, Control_c, 0, 64, 44
1, 363844, Note_off_c, 0, 57, 51
1, 363847, Control_c, 0, 64, 37
1, 363855, Note_off_c, 0, 65, 61
1, 363862, Control_c, 0, 64, 0
1, 363892, Note_on_c, 0, 64, 53
1, 364009, Note_off_c, 0, 64, 46
1, 364012, Note_on_c, 0, 70, 50
1, 364111, Note_off_c, 0, 70, 61
1, 364139, Note_on_c, 0, 69, 45
1, 364211, Note_off_c, 0, 69, 52
1, 364243, Note_on_c, 0, 58, 41
1, 364249, Note_on_c, 0, 72, 46
1, 364315, Note_off_c, 0, 55, 47
1, 364367, Note_on_c, 0, 70, 57
1, 364404, Note_off_c, 0, 72, 38
1, 364409, Control_c, 0, 64, 37
1, 364424, Control_c, 0, 64, 46
1, 364439, Control_c, 0, 64, 54
1, 364454, Control_c, 0, 64, 59
1, 364474, Note_off_c, 0, 70, 62
1, 364476, Control_c, 0, 64, 62
1, 364491, Control_c, 0, 64, 64
1, 364495, Note_on_c, 0, 67, 41
1, 364505, Control_c, 0, 64, 65
1, 364520, Control_c, 0, 64, 66
1, 364534, Control_c, 0, 64, 68
1, 364541, Note_off_c, 0, 67, 61
1, 364550, Control_c, 0, 64, 69
1, 364565, Control_c, 0, 64, 71
1, 364580, Control_c, 0, 64, 72
1, 364595, Control_c, 0, 64, 75
1, 364610, Control_c, 0, 64, 77
1, 364613, Note_off_c, 0, 58, 34
1, 364624, Control_c, 0, 64, 80
1, 364627, Note_on_c, 0, 64, 55
1, 364634, Note_off_c, 0, 48, 41
1, 364639, Control_c, 0, 64, 82
1, 364654, Control_c, 0, 64, 84
1, 364669, Control_c, 0, 64, 85
1, 364684, Control_c, 0, 64, 86
1, 364689, Note_off_c, 0, 64, 51
1, 364698, Control_c, 0, 64, 87
1, 364831, Control_c, 0, 64, 86
1, 364846, Control_c, 0, 64, 86
1, 364861, Control_c, 0, 64, 85
1, 364876, Control_c, 0, 64, 82
1, 364889, Note_on_c, 0, 67, 51
1, 364891, Control_c, 0, 64, 78
1, 364905, Control_c, 0, 64, 74
1, 364908, Note_on_c, 0, 60, 37
1, 364912, Note_on_c, 0, 64, 44
1, 364920, Control_c, 0, 64, 70
1, 364921, Note_on_c, 0, 58, 33
1, 364935, Control_c, 0, 64, 66
1, 364946, Note_on_c, 0, 53, 7
1, 364950, Control_c, 0, 64, 60
1, 364965, Control_c, 0, 64, 54
1, 364980, Control_c, 0, 64, 47
1, 364994, Control_c, 0, 64, 41
1, 365009, Control_c, 0, 64, 34
1, 365024, Control_c, 0, 64, 0
1, 365128, Control_c, 0, 64, 32
1, 365142, Control_c, 0, 64, 40
1, 365157, Control_c, 0, 64, 48
1, 365172, Control_c, 0, 64, 55
1, 365187, Control_c, 0, 64, 60
1, 365202, Control_c, 0, 64, 64
1, 365224, Control_c, 0, 64, 66
1, 365239, Control_c, 0, 64, 68
1, 365254, Control_c, 0, 64, 69
1, 365269, Control_c, 0, 64, 71
1, 365283, Control_c, 0, 64, 73
1, 365298, Control_c, 0, 64, 75
1, 365313, Control_c, 0, 64, 77
1, 365328, Control_c, 0, 64, 80
1, 365343, Control_c, 0, 64, 83
1, 365358, Control_c, 0, 64, 87
1, 365373, Control_c, 0, 64, 91
1, 365388, Control_c, 0, 64, 94
1, 365403, Control_c, 0, 64, 97
1, 365418, Control_c, 0, 64, 102
1, 365424, Note_off_c, 0, 67, 50
1, 365433, Control_c, 0, 64, 107
1, 365447, Control_c, 0, 64, 115
1, 365462, Control_c, 0, 64, 127
1, 365588, Note_off_c, 0, 58, 61
1, 366033, Control_c, 0, 64, 119
1, 366047, Control_c, 0, 64, 111
1, 366062, Control_c, 0, 64, 105
1, 366077, Control_c, 0, 64, 101
1, 366092, Control_c, 0, 64, 97
1, 366106, Control_c, 0, 64, 94
1, 366121, Control_c, 0, 64, 92
1, 366136, Control_c, 0, 64, 90
1, 366149, Note_on_c, 0, 65, 38
1, 366152, Control_c, 0, 64, 88
1, 366166, Note_on_c, 0, 57, 30
1, 366167, Control_c, 0, 64, 86
1, 366182, Control_c, 0, 64, 83
1, 366196, Control_c, 0, 64, 81
1, 366211, Control_c, 0, 64, 77
1, 366226, Control_c, 0, 64, 71
1, 366241, Control_c, 0, 64, 65
1, 366256, Control_c, 0, 64, 60
1, 366270, Control_c, 0, 64, 54
1, 366278, Note_off_c, 0, 64, 55
1, 366285, Control_c, 0, 64, 50
1, 366300, Control_c, 0, 64, 45
1, 366315, Control_c, 0, 64, 40
1, 366330, Control_c, 0, 64, 34
1, 366345, Control_c, 0, 64, 30
1, 366360, Control_c, 0, 64, 0
1, 366493, Control_c, 0, 64, 29
1, 366522, Control_c, 0, 64, 33
1, 366537, Control_c, 0, 64, 36
1, 366552, Control_c, 0, 64, 40
1, 366567, Control_c, 0, 64, 43
1, 366582, Control_c, 0, 64, 48
1, 366596, Control_c, 0, 64, 53
1, 366611, Control_c, 0, 64, 57
1, 366626, Control_c, 0, 64, 60
1, 366641, Control_c, 0, 64, 61
1, 366656, Control_c, 0, 64, 63
1, 366670, Control_c, 0, 64, 64
1, 366685, Control_c, 0, 64, 65
1, 366700, Control_c, 0, 64, 66
1, 366722, Control_c, 0, 64, 68
1, 366737, Control_c, 0, 64, 69
1, 366750, Control_c, 0, 64, 70
1, 366765, Control_c, 0, 64, 70
1, 366780, Control_c, 0, 64, 71
1, 366795, Control_c, 0, 64, 71
1, 366810, Control_c, 0, 64, 72
1, 366840, Control_c, 0, 64, 72
1, 366855, Control_c, 0, 64, 73
1, 367048, Control_c, 0, 64, 72
1, 367071, Note_off_c, 0, 60, 40
1, 367074, Note_off_c, 0, 57, 41
1, 367074, Note_off_c, 0, 65, 53
1, 367078, Control_c, 0, 64, 72
1, 367092, Control_c, 0, 64, 71
1, 367092, Control_c, 0, 67, 118
1, 367107, Control_c, 0, 64, 70
1, 367107, Control_c, 0, 67, 101
1, 367111, Note_off_c, 0, 53, 36
1, 367122, Control_c, 0, 64, 69
1, 367122, Control_c, 0, 67, 81
1, 367136, Control_c, 0, 64, 67
1, 367136, Control_c, 0, 67, 60
1, 367151, Control_c, 0, 64, 65
1, 367151, Control_c, 0, 67, 42
1, 367166, Control_c, 0, 64, 62
1, 367166, Control_c, 0, 67, 0
1, 367181, Control_c, 0, 64, 59
1, 367196, Control_c, 0, 64, 57
1, 367211, Control_c, 0, 64, 55
1, 367225, Control_c, 0, 64, 54
1, 367240, Control_c, 0, 64, 53
1, 367255, Control_c, 0, 64, 52
1, 367270, Control_c, 0, 64, 51
1, 367284, Control_c, 0, 64, 50
1, 367299, Control_c, 0, 64, 49
1, 367314, Control_c, 0, 64, 48
1, 367329, Control_c, 0, 64, 47
1, 367343, Control_c, 0, 64, 46
1, 367358, Control_c, 0, 64, 45
1, 367373, Control_c, 0, 64, 44
1, 367388, Control_c, 0, 64, 43
1, 367403, Control_c, 0, 64, 42
1, 367418, Control_c, 0, 64, 42
1, 367433, Control_c, 0, 64, 41
1, 367448, Control_c, 0, 64, 40
1, 367469, Control_c, 0, 64, 39
1, 367484, Control_c, 0, 64, 39
1, 367499, Control_c, 0, 64, 38
1, 367514, Control_c, 0, 64, 37
1, 367529, Control_c, 0, 64, 37
1, 367543, Control_c, 0, 64, 36
1, 367558, Control_c, 0, 64, 36
1, 367573, Control_c, 0, 64, 34
1, 367588, Control_c, 0, 64, 32
1, 367603, Control_c, 0, 64, 29
1, 367618, Control_c, 0, 64, 0
1, 367883, Note_on_c, 0, 53, 77
1, 367897, Note_on_c, 0, 41, 67
1, 367960, Control_c, 0, 64, 30
1, 367974, Control_c, 0, 64, 38
1, 367989, Control_c, 0, 64, 46
1, 368004, Control_c, 0, 64, 53
1, 368019, Control_c, 0, 64, 58
1, 368034, Control_c, 0, 64, 61
1, 368048, Control_c, 0, 64, 62
1, 368063, Control_c, 0, 64, 63
1, 368078, Control_c, 0, 64, 64
1, 368092, Control_c, 0, 64, 65
1, 368107, Control_c, 0, 64, 66
1, 368122, Control_c, 0, 64, 68
1, 368137, Control_c, 0, 64, 70
1, 368152, Control_c, 0, 64, 72
1, 368166, Control_c, 0, 64, 75
1, 368181, Control_c, 0, 64, 77
1, 368196, Control_c, 0, 64, 80
1, 368219, Control_c, 0, 64, 82
1, 368234, Control_c, 0, 64, 85
1, 368248, Control_c, 0, 64, 89
1, 368263, Control_c, 0, 64, 94
1, 368278, Control_c, 0, 64, 100
1, 368292, Control_c, 0, 64, 106
1, 368307, Control_c, 0, 64, 113
1, 368322, Control_c, 0, 64, 127
1, 368649, Note_off_c, 0, 53, 35
1, 368712, Note_on_c, 0, 52, 88
1, 368721, Note_on_c, 0, 40, 81
1, 368739, Note_off_c, 0, 41, 60
1, 368768, Control_c, 0, 64, 104
1, 368783, Control_c, 0, 64, 78
1, 368797, Control_c, 0, 64, 65
1, 368812, Control_c, 0, 64, 52
1, 368827, Control_c, 0, 64, 41
1, 368842, Control_c, 0, 64, 35
1, 368857, Control_c, 0, 64, 35
1, 368871, Control_c, 0, 64, 38
1, 368886, Control_c, 0, 64, 46
1, 368901, Control_c, 0, 64, 54
1, 368915, Control_c, 0, 64, 61
1, 368930, Control_c, 0, 64, 65
1, 368945, Control_c, 0, 64, 68
1, 368968, Control_c, 0, 64, 72
1, 368983, Control_c, 0, 64, 77
1, 368998, Control_c, 0, 64, 83
1, 369013, Control_c, 0, 64, 95
1, 369028, Control_c, 0, 64, 127
1, 369329, Note_off_c, 0, 40, 34
1, 369376, Note_off_c, 0, 52, 36
1, 369548, Note_on_c, 0, 81, 95
1, 369557, Note_on_c, 0, 53, 83
1, 369563, Note_on_c, 0, 41, 77
1, 369636, Control_c, 0, 64, 82
1, 369651, Control_c, 0, 64, 64
1, 369666, Control_c, 0, 64, 45
1, 369680, Control_c, 0, 64, 0
1, 369746, Control_c, 0, 64, 30
1, 369761, Control_c, 0, 64, 45
1, 369776, Control_c, 0, 64, 57
1, 369791, Control_c, 0, 64, 65
1, 369806, Control_c, 0, 64, 72
1, 369821, Control_c, 0, 64, 77
1, 369835, Control_c, 0, 64, 82
1, 369850, Control_c, 0, 64, 91
1, 369865, Control_c, 0, 64, 108
1, 369880, Control_c, 0, 64, 127
1, 369964, Note_off_c, 0, 53, 49
1, 370040, Note_off_c, 0, 41, 45
1, 370384, Note_on_c, 0, 49, 80
1, 370394, Note_on_c, 0, 37, 70
1, 370466, Control_c, 0, 64, 100
1, 370481, Control_c, 0, 64, 77
1, 370494, Control_c, 0, 64, 61
1, 370509, Control_c, 0, 64, 43
1, 370524, Control_c, 0, 64, 0
1, 370569, Control_c, 0, 64, 34
1, 370571, Note_on_c, 0, 79, 53
1, 370584, Control_c, 0, 64, 47
1, 370599, Control_c, 0, 64, 58
1, 370610, Note_off_c, 0, 81, 55
1, 370613, Control_c, 0, 64, 65
1, 370628, Control_c, 0, 64, 69
1, 370643, Control_c, 0, 64, 73
1, 370658, Control_c, 0, 64, 76
1, 370673, Control_c, 0, 64, 79
1, 370687, Control_c, 0, 64, 84
1, 370702, Control_c, 0, 64, 91
1, 370717, Control_c, 0, 64, 103
1, 370724, Note_on_c, 0, 82, 61
1, 370732, Control_c, 0, 64, 127
1, 370782, Note_off_c, 0, 79, 38
1, 370859, Note_on_c, 0, 81, 67
1, 370902, Note_off_c, 0, 82, 55
1, 370991, Note_off_c, 0, 81, 62
1, 370992, Note_on_c, 0, 79, 66
1, 371118, Note_on_c, 0, 77, 72
1, 371132, Note_off_c, 0, 79, 57
1, 371261, Note_on_c, 0, 76, 72
1, 371315, Note_off_c, 0, 77, 58
1, 371347, Control_c, 0, 64, 101
1, 371362, Control_c, 0, 64, 83
1, 371377, Control_c, 0, 64, 70
1, 371391, Control_c, 0, 64, 61
1, 371399, Note_on_c, 0, 74, 73
1, 371406, Control_c, 0, 64, 54
1, 371421, Control_c, 0, 64, 51
1, 371433, Note_off_c, 0, 76, 62
1, 371436, Control_c, 0, 64, 52
1, 371451, Control_c, 0, 64, 55
1, 371466, Control_c, 0, 64, 58
1, 371481, Control_c, 0, 64, 61
1, 371496, Control_c, 0, 64, 64
1, 371510, Control_c, 0, 64, 67
1, 371525, Control_c, 0, 64, 69
1, 371527, Note_on_c, 0, 77, 72
1, 371540, Control_c, 0, 64, 72
1, 371555, Control_c, 0, 64, 74
1, 371560, Note_off_c, 0, 74, 54
1, 371570, Control_c, 0, 64, 75
1, 371584, Control_c, 0, 64, 77
1, 371599, Control_c, 0, 64, 79
1, 371614, Control_c, 0, 64, 80
1, 371629, Control_c, 0, 64, 82
1, 371643, Control_c, 0, 64, 84
1, 371655, Note_on_c, 0, 76, 74
1, 371658, Control_c, 0, 64, 87
1, 371673, Control_c, 0, 64, 92
1, 371688, Control_c, 0, 64, 98
1, 371693, Note_off_c, 0, 77, 60
1, 371703, Control_c, 0, 64, 105
1, 371717, Control_c, 0, 64, 113
1, 371733, Control_c, 0, 64, 127
1, 371785, Note_off_c, 0, 76, 63
1, 371786, Note_on_c, 0, 74, 74
1, 371916, Note_on_c, 0, 73, 78
1, 371928, Note_off_c, 0, 74, 52
1, 372047, Note_on_c, 0, 70, 78
1, 372088, Note_off_c, 0, 73, 62
1, 372112, Control_c, 0, 64, 94
1, 372127, Control_c, 0, 64, 76
1, 372141, Control_c, 0, 64, 64
1, 372156, Control_c, 0, 64, 54
1, 372168, Note_on_c, 0, 69, 73
1, 372171, Control_c, 0, 64, 50
1, 372186, Control_c, 0, 64, 49
1, 372199, Note_off_c, 0, 70, 60
1, 372201, Control_c, 0, 64, 52
1, 372215, Control_c, 0, 64, 57
1, 372230, Control_c, 0, 64, 61
1, 372245, Control_c, 0, 64, 66
1, 372259, Control_c, 0, 64, 71
1, 372274, Control_c, 0, 64, 77
1, 372289, Note_on_c, 0, 72, 77
1, 372289, Control_c, 0, 64, 80
1, 372304, Control_c, 0, 64, 83
1, 372319, Control_c, 0, 64, 86
1, 372326, Note_off_c, 0, 69, 57
1, 372333, Control_c, 0, 64, 91
1, 372348, Control_c, 0, 64, 99
1, 372363, Control_c, 0, 64, 108
1, 372378, Control_c, 0, 64, 127
1, 372405, Note_on_c, 0, 70, 79
1, 372507, Note_off_c, 0, 49, 53
1, 372530, Note_on_c, 0, 69, 82
1, 372532, Note_off_c, 0, 72, 49
1, 372599, Note_off_c, 0, 70, 55
1, 372620, Note_off_c, 0, 37, 37
1, 372655, Note_on_c, 0, 67, 79
1, 372661, Note_off_c, 0, 69, 61
1, 372801, Note_on_c, 0, 65, 83
1, 372803, Note_on_c, 0, 50, 89
1, 372818, Note_on_c, 0, 38, 72
1, 372828, Note_off_c, 0, 67, 59
1, 372861, Control_c, 0, 64, 106
1, 372876, Control_c, 0, 64, 80
1, 372890, Control_c, 0, 64, 63
1, 372905, Control_c, 0, 64, 44
1, 372920, Control_c, 0, 64, 0
1, 373068, Control_c, 0, 64, 42
1, 373082, Control_c, 0, 64, 53
1, 373097, Control_c, 0, 64, 61
1, 373112, Control_c, 0, 64, 65
1, 373127, Control_c, 0, 64, 68
1, 373142, Control_c, 0, 64, 70
1, 373156, Control_c, 0, 64, 73
1, 373171, Control_c, 0, 64, 77
1, 373186, Control_c, 0, 64, 81
1, 373201, Control_c, 0, 64, 87
1, 373216, Control_c, 0, 64, 93
1, 373231, Control_c, 0, 64, 99
1, 373246, Control_c, 0, 64, 107
1, 373260, Control_c, 0, 64, 127
1, 373317, Note_off_c, 0, 65, 32
1, 373528, Note_off_c, 0, 50, 60
1, 373624, Note_on_c, 0, 49, 93
1, 373633, Note_on_c, 0, 37, 84
1, 373663, Note_off_c, 0, 38, 59
1, 373699, Control_c, 0, 64, 98
1, 373713, Control_c, 0, 64, 75
1, 373728, Control_c, 0, 64, 58
1, 373743, Control_c, 0, 64, 34
1, 373758, Control_c, 0, 64, 0
1, 373831, Control_c, 0, 64, 38
1, 373846, Control_c, 0, 64, 50
1, 373861, Control_c, 0, 64, 59
1, 373876, Control_c, 0, 64, 64
1, 373891, Control_c, 0, 64, 67
1, 373905, Control_c, 0, 64, 69
1, 373920, Control_c, 0, 64, 73
1, 373935, Control_c, 0, 64, 77
1, 373950, Control_c, 0, 64, 81
1, 373965, Control_c, 0, 64, 84
1, 373979, Control_c, 0, 64, 89
1, 373994, Control_c, 0, 64, 94
1, 374009, Control_c, 0, 64, 102
1, 374024, Control_c, 0, 64, 116
1, 374038, Control_c, 0, 64, 127
1, 374175, Note_off_c, 0, 49, 52
1, 374230, Note_off_c, 0, 37, 34
1, 374458, Note_on_c, 0, 77, 103
1, 374464, Note_on_c, 0, 50, 91
1, 374474, Note_on_c, 0, 38, 80
1, 374546, Poly_aftertouch_c, 0, 39, 127
1, 374551, Control_c, 0, 64, 86
1, 374566, Control_c, 0, 64, 68
1, 374581, Control_c, 0, 64, 52
1, 374596, Control_c, 0, 64, 0
1, 374653, Poly_aftertouch_c, 0, 39, 0
1, 374684, Control_c, 0, 64, 41
1, 374699, Control_c, 0, 64, 54
1, 374714, Control_c, 0, 64, 61
1, 374728, Control_c, 0, 64, 64
1, 374743, Control_c, 0, 64, 67
1, 374758, Control_c, 0, 64, 69
1, 374773, Control_c, 0, 64, 72
1, 374788, Control_c, 0, 64, 76
1, 374802, Control_c, 0, 64, 80
1, 374817, Control_c, 0, 64, 83
1, 374832, Control_c, 0, 64, 87
1, 374846, Control_c, 0, 64, 92
1, 374861, Control_c, 0, 64, 101
1, 374876, Control_c, 0, 64, 118
1, 374891, Control_c, 0, 64, 127
1, 374943, Note_off_c, 0, 50, 33
1, 375188, Note_off_c, 0, 38, 58
1, 375312, Note_on_c, 0, 45, 84
1, 375316, Note_on_c, 0, 33, 88
1, 375418, Control_c, 0, 64, 107
1, 375432, Control_c, 0, 64, 82
1, 375447, Control_c, 0, 64, 65
1, 375462, Control_c, 0, 64, 49
1, 375476, Control_c, 0, 64, 0
1, 375493, Note_on_c, 0, 76, 61
1, 375536, Control_c, 0, 64, 31
1, 375537, Note_off_c, 0, 77, 56
1, 375550, Control_c, 0, 64, 43
1, 375565, Control_c, 0, 64, 53
1, 375580, Control_c, 0, 64, 60
1, 375595, Control_c, 0, 64, 64
1, 375610, Control_c, 0, 64, 66
1, 375624, Control_c, 0, 64, 68
1, 375630, Note_on_c, 0, 79, 62
1, 375639, Control_c, 0, 64, 70
1, 375654, Control_c, 0, 64, 72
1, 375660, Note_off_c, 0, 76, 61
1, 375669, Control_c, 0, 64, 74
1, 375684, Control_c, 0, 64, 76
1, 375706, Control_c, 0, 64, 78
1, 375721, Control_c, 0, 64, 81
1, 375738, Control_c, 0, 64, 83
1, 375753, Control_c, 0, 64, 86
1, 375761, Note_on_c, 0, 77, 70
1, 375767, Control_c, 0, 64, 89
1, 375782, Control_c, 0, 64, 91
1, 375797, Control_c, 0, 64, 94
1, 375812, Control_c, 0, 64, 97
1, 375815, Note_off_c, 0, 79, 53
1, 375827, Control_c, 0, 64, 103
1, 375842, Control_c, 0, 64, 108
1, 375856, Control_c, 0, 64, 116
1, 375871, Control_c, 0, 64, 127
1, 375881, Note_on_c, 0, 75, 72
1, 375911, Note_off_c, 0, 77, 62
1, 376015, Note_on_c, 0, 74, 72
1, 376017, Note_off_c, 0, 75, 63
1, 376141, Note_on_c, 0, 72, 78
1, 376165, Note_off_c, 0, 74, 58
1, 376262, Note_on_c, 0, 71, 74
1, 376297, Note_off_c, 0, 72, 60
1, 376387, Note_on_c, 0, 74, 78
1, 376430, Note_off_c, 0, 71, 59
1, 376517, Note_on_c, 0, 72, 74
1, 376590, Note_off_c, 0, 74, 52
1, 376633, Note_on_c, 0, 70, 80
1, 376671, Note_off_c, 0, 72, 62
1, 376679, Control_c, 0, 64, 111
1, 376694, Control_c, 0, 64, 102
1, 376709, Control_c, 0, 64, 96
1, 376723, Control_c, 0, 64, 92
1, 376738, Control_c, 0, 64, 89
1, 376753, Control_c, 0, 64, 88
1, 376764, Note_on_c, 0, 69, 77
1, 376768, Control_c, 0, 64, 88
1, 376778, Note_off_c, 0, 70, 63
1, 376783, Control_c, 0, 64, 87
1, 376812, Control_c, 0, 64, 86
1, 376827, Control_c, 0, 64, 85
1, 376842, Control_c, 0, 64, 84
1, 376856, Control_c, 0, 64, 82
1, 376871, Control_c, 0, 64, 78
1, 376886, Control_c, 0, 64, 73
1, 376891, Note_on_c, 0, 67, 83
1, 376901, Control_c, 0, 64, 66
1, 376916, Control_c, 0, 64, 60
1, 376921, Note_off_c, 0, 69, 62
1, 376930, Control_c, 0, 64, 52
1, 376945, Control_c, 0, 64, 38
1, 376960, Control_c, 0, 64, 0
1, 377013, Note_on_c, 0, 66, 79
1, 377034, Control_c, 0, 64, 32
1, 377049, Control_c, 0, 64, 46
1, 377052, Note_off_c, 0, 67, 60
1, 377064, Control_c, 0, 64, 56
1, 377079, Control_c, 0, 64, 62
1, 377094, Control_c, 0, 64, 66
1, 377109, Control_c, 0, 64, 68
1, 377123, Control_c, 0, 64, 71
1, 377133, Note_on_c, 0, 69, 75
1, 377138, Control_c, 0, 64, 73
1, 377153, Control_c, 0, 64, 74
1, 377168, Control_c, 0, 64, 75
1, 377174, Note_off_c, 0, 66, 59
1, 377183, Control_c, 0, 64, 76
1, 377204, Control_c, 0, 64, 76
1, 377219, Control_c, 0, 64, 77
1, 377234, Control_c, 0, 64, 79
1, 377249, Control_c, 0, 64, 81
1, 377264, Control_c, 0, 64, 82
1, 377270, Note_on_c, 0, 67, 78
1, 377279, Control_c, 0, 64, 83
1, 377294, Control_c, 0, 64, 84
1, 377309, Control_c, 0, 64, 85
1, 377314, Note_off_c, 0, 69, 60
1, 377323, Control_c, 0, 64, 87
1, 377339, Control_c, 0, 64, 88
1, 377353, Control_c, 0, 64, 90
1, 377368, Control_c, 0, 64, 92
1, 377374, Note_on_c, 0, 65, 77
1, 377383, Control_c, 0, 64, 96
1, 377385, Note_off_c, 0, 67, 62
1, 377398, Control_c, 0, 64, 102
1, 377413, Control_c, 0, 64, 110
1, 377428, Control_c, 0, 64, 127
1, 377459, Note_off_c, 0, 45, 57
1, 377488, Note_on_c, 0, 63, 82
1, 377494, Note_off_c, 0, 65, 59
1, 377532, Note_off_c, 0, 63, 60
1, 377627, Note_on_c, 0, 74, 97
1, 377639, Note_on_c, 0, 46, 75
1, 377645, Note_on_c, 0, 34, 72
1, 377645, Note_on_c, 0, 62, 75
1, 377665, Control_c, 0, 64, 89
1, 377679, Control_c, 0, 64, 68
1, 377681, Note_off_c, 0, 33, 58
1, 377694, Control_c, 0, 64, 48
1, 377709, Control_c, 0, 64, 0
1, 377827, Control_c, 0, 64, 34
1, 377842, Control_c, 0, 64, 42
1, 377857, Control_c, 0, 64, 53
1, 377872, Control_c, 0, 64, 60
1, 377887, Control_c, 0, 64, 64
1, 377902, Control_c, 0, 64, 67
1, 377917, Control_c, 0, 64, 69
1, 377932, Control_c, 0, 64, 71
1, 377953, Control_c, 0, 64, 73
1, 377968, Control_c, 0, 64, 76
1, 377983, Control_c, 0, 64, 78
1, 377997, Control_c, 0, 64, 80
1, 378012, Control_c, 0, 64, 82
1, 378027, Control_c, 0, 64, 86
1, 378042, Control_c, 0, 64, 90
1, 378057, Control_c, 0, 64, 95
1, 378072, Control_c, 0, 64, 100
1, 378087, Control_c, 0, 64, 107
1, 378101, Control_c, 0, 64, 115
1, 378116, Control_c, 0, 64, 127
1, 378248, Note_off_c, 0, 46, 36
1, 378271, Note_off_c, 0, 34, 38
1, 378314, Note_off_c, 0, 62, 62
1, 378383, Note_on_c, 0, 73, 90
1, 378408, Note_off_c, 0, 74, 66
1, 378408, Note_on_c, 0, 61, 74
1, 378443, Control_c, 0, 64, 112
1, 378458, Control_c, 0, 64, 83
1, 378473, Control_c, 0, 64, 64
1, 378488, Control_c, 0, 64, 47
1, 378502, Control_c, 0, 64, 32
1, 378517, Control_c, 0, 64, 0
1, 378532, Control_c, 0, 64, 30
1, 378547, Control_c, 0, 64, 38
1, 378562, Control_c, 0, 64, 50
1, 378576, Control_c, 0, 64, 61
1, 378591, Control_c, 0, 64, 67
1, 378606, Control_c, 0, 64, 72
1, 378620, Control_c, 0, 64, 76
1, 378635, Control_c, 0, 64, 77
1, 378650, Control_c, 0, 64, 78
1, 378665, Control_c, 0, 64, 80
1, 378680, Control_c, 0, 64, 83
1, 378702, Control_c, 0, 64, 87
1, 378717, Control_c, 0, 64, 90
1, 378732, Control_c, 0, 64, 94
1, 378747, Control_c, 0, 64, 100
1, 378762, Control_c, 0, 64, 107
1, 378776, Control_c, 0, 64, 127
1, 378900, Note_off_c, 0, 61, 32
1, 379135, Note_on_c, 0, 74, 89
1, 379144, Note_on_c, 0, 53, 92
1, 379151, Note_on_c, 0, 62, 72
1, 379170, Note_off_c, 0, 73, 60
1, 379192, Control_c, 0, 64, 107
1, 379207, Control_c, 0, 64, 77
1, 379222, Control_c, 0, 64, 58
1, 379237, Control_c, 0, 64, 0
1, 379325, Control_c, 0, 64, 42
1, 379340, Control_c, 0, 64, 56
1, 379355, Control_c, 0, 64, 65
1, 379360, Note_off_c, 0, 74, 50
1, 379370, Control_c, 0, 64, 73
1, 379385, Control_c, 0, 64, 81
1, 379399, Control_c, 0, 64, 86
1, 379404, Note_off_c, 0, 62, 40
1, 379414, Control_c, 0, 64, 90
1, 379429, Control_c, 0, 64, 95
1, 379451, Control_c, 0, 64, 101
1, 379466, Control_c, 0, 64, 113
1, 379480, Control_c, 0, 64, 127
1, 379950, Note_on_c, 0, 69, 87
1, 379973, Note_on_c, 0, 57, 71
1, 380015, Control_c, 0, 64, 89
1, 380029, Control_c, 0, 64, 71
1, 380044, Control_c, 0, 64, 60
1, 380059, Control_c, 0, 64, 54
1, 380088, Control_c, 0, 64, 55
1, 380100, Note_on_c, 0, 52, 57
1, 380103, Control_c, 0, 64, 59
1, 380118, Control_c, 0, 64, 63
1, 380133, Control_c, 0, 64, 67
1, 380136, Note_off_c, 0, 53, 58
1, 380147, Control_c, 0, 64, 71
1, 380162, Control_c, 0, 64, 74
1, 380177, Control_c, 0, 64, 75
1, 380225, Note_off_c, 0, 52, 60
1, 380230, Note_on_c, 0, 55, 62
1, 380244, Control_c, 0, 64, 75
1, 380259, Control_c, 0, 64, 74
1, 380273, Control_c, 0, 64, 73
1, 380288, Control_c, 0, 64, 72
1, 380303, Control_c, 0, 64, 70
1, 380318, Control_c, 0, 64, 68
1, 380333, Control_c, 0, 64, 66
1, 380347, Control_c, 0, 64, 64
1, 380355, Note_on_c, 0, 53, 67
1, 380362, Control_c, 0, 64, 62
1, 380364, Note_off_c, 0, 55, 59
1, 380377, Control_c, 0, 64, 61
1, 380392, Control_c, 0, 64, 61
1, 380463, Note_on_c, 0, 51, 71
1, 380465, Note_off_c, 0, 53, 60
1, 380570, Control_c, 0, 64, 60
1, 380586, Note_off_c, 0, 51, 63
1, 380593, Note_on_c, 0, 50, 74
1, 380615, Control_c, 0, 64, 60
1, 380704, Control_c, 0, 64, 59
1, 380710, Note_on_c, 0, 48, 82
1, 380730, Note_off_c, 0, 50, 59
1, 380822, Control_c, 0, 64, 59
1, 380830, Note_on_c, 0, 47, 77
1, 380855, Note_off_c, 0, 48, 61
1, 380882, Control_c, 0, 64, 58
1, 380953, Note_on_c, 0, 50, 73
1, 380960, Note_off_c, 0, 47, 61
1, 381064, Note_on_c, 0, 48, 78
1, 381073, Note_off_c, 0, 50, 59
1, 381095, Control_c, 0, 64, 59
1, 381176, Note_on_c, 0, 46, 75
1, 381188, Note_off_c, 0, 48, 60
1, 381300, Note_on_c, 0, 45, 79
1, 381302, Note_off_c, 0, 46, 62
1, 381348, Control_c, 0, 64, 58
1, 381417, Note_on_c, 0, 43, 82
1, 381430, Note_off_c, 0, 45, 59
1, 381452, Control_c, 0, 64, 58
1, 381482, Control_c, 0, 64, 57
1, 381511, Control_c, 0, 64, 57
1, 381526, Control_c, 0, 64, 56
1, 381536, Note_on_c, 0, 42, 82
1, 381541, Control_c, 0, 64, 55
1, 381556, Control_c, 0, 64, 54
1, 381571, Control_c, 0, 64, 53
1, 381574, Note_off_c, 0, 43, 59
1, 381585, Control_c, 0, 64, 51
1, 381600, Control_c, 0, 64, 47
1, 381615, Control_c, 0, 64, 41
1, 381630, Control_c, 0, 64, 0
1, 381649, Note_on_c, 0, 45, 76
1, 381675, Note_off_c, 0, 42, 62
1, 381701, Note_off_c, 0, 57, 53
1, 381772, Note_on_c, 0, 43, 81
1, 381797, Note_off_c, 0, 45, 61
1, 381842, Note_off_c, 0, 69, 55
1, 381860, Control_c, 0, 64, 32
1, 381875, Control_c, 0, 64, 48
1, 381883, Note_on_c, 0, 41, 87
1, 381890, Control_c, 0, 64, 61
1, 381905, Control_c, 0, 64, 68
1, 381914, Note_off_c, 0, 43, 63
1, 381919, Control_c, 0, 64, 72
1, 381934, Control_c, 0, 64, 76
1, 381949, Control_c, 0, 64, 78
1, 381964, Control_c, 0, 64, 80
1, 381978, Control_c, 0, 64, 84
1, 381993, Control_c, 0, 64, 88
1, 381995, Note_on_c, 0, 39, 84
1, 382008, Control_c, 0, 64, 92
1, 382023, Control_c, 0, 64, 97
1, 382030, Note_off_c, 0, 41, 64
1, 382038, Control_c, 0, 64, 101
1, 382052, Control_c, 0, 64, 103
1, 382125, Note_on_c, 0, 82, 100
1, 382128, Control_c, 0, 64, 98
1, 382132, Note_on_c, 0, 38, 87
1, 382135, Note_on_c, 0, 70, 84
1, 382142, Control_c, 0, 64, 84
1, 382157, Control_c, 0, 64, 69
1, 382158, Note_off_c, 0, 39, 37
1, 382172, Control_c, 0, 64, 54
1, 382187, Control_c, 0, 64, 0
1, 382320, Control_c, 0, 64, 41
1, 382334, Control_c, 0, 64, 53
1, 382349, Control_c, 0, 64, 63
1, 382364, Control_c, 0, 64, 68
1, 382379, Control_c, 0, 64, 72
1, 382394, Control_c, 0, 64, 76
1, 382409, Control_c, 0, 64, 80
1, 382424, Control_c, 0, 64, 84
1, 382446, Control_c, 0, 64, 90
1, 382461, Control_c, 0, 64, 99
1, 382475, Control_c, 0, 64, 111
1, 382490, Control_c, 0, 64, 127
1, 382549, Note_off_c, 0, 38, 59
1, 382738, Note_off_c, 0, 70, 56
1, 382856, Note_on_c, 0, 81, 90
1, 382874, Note_on_c, 0, 69, 77
1, 382875, Control_c, 0, 64, 100
1, 382890, Control_c, 0, 64, 78
1, 382905, Control_c, 0, 64, 62
1, 382921, Control_c, 0, 64, 38
1, 382936, Control_c, 0, 64, 0
1, 382939, Poly_aftertouch_c, 0, 80, 0
1, 383039, Control_c, 0, 64, 32
1, 383054, Control_c, 0, 64, 43
1, 383069, Control_c, 0, 64, 53
1, 383084, Control_c, 0, 64, 60
1, 383095, Note_off_c, 0, 82, 30
1, 383098, Control_c, 0, 64, 63
1, 383113, Control_c, 0, 64, 66
1, 383128, Control_c, 0, 64, 68
1, 383143, Control_c, 0, 64, 71
1, 383157, Control_c, 0, 64, 74
1, 383172, Control_c, 0, 64, 77
1, 383195, Control_c, 0, 64, 80
1, 383210, Control_c, 0, 64, 83
1, 383224, Control_c, 0, 64, 88
1, 383239, Control_c, 0, 64, 94
1, 383254, Control_c, 0, 64, 101
1, 383269, Control_c, 0, 64, 113
1, 383284, Control_c, 0, 64, 127
1, 383458, Note_off_c, 0, 69, 56
1, 383577, Note_on_c, 0, 82, 90
1, 383583, Note_on_c, 0, 62, 95
1, 383587, Note_on_c, 0, 70, 78
1, 383601, Note_off_c, 0, 81, 65
1, 383654, Control_c, 0, 64, 85
1, 383669, Control_c, 0, 64, 62
1, 383684, Control_c, 0, 64, 39
1, 383698, Control_c, 0, 64, 0
1, 383788, Control_c, 0, 64, 30
1, 383803, Control_c, 0, 64, 46
1, 383818, Control_c, 0, 64, 58
1, 383833, Control_c, 0, 64, 65
1, 383847, Control_c, 0, 64, 71
1, 383862, Control_c, 0, 64, 77
1, 383877, Control_c, 0, 64, 86
1, 383884, Note_off_c, 0, 70, 56
1, 383892, Control_c, 0, 64, 96
1, 383901, Note_off_c, 0, 82, 54
1, 383907, Control_c, 0, 64, 111
1, 383921, Control_c, 0, 64, 127
1, 384357, Note_on_c, 0, 78, 94
1, 384373, Note_on_c, 0, 66, 80
1, 384418, Control_c, 0, 64, 96
1, 384432, Control_c, 0, 64, 74
1, 384447, Control_c, 0, 64, 60
1, 384462, Control_c, 0, 64, 42
1, 384477, Control_c, 0, 64, 0
1, 384482, Note_on_c, 0, 61, 60
1, 384511, Note_off_c, 0, 62, 57
1, 384552, Control_c, 0, 64, 35
1, 384567, Control_c, 0, 64, 44
1, 384582, Control_c, 0, 64, 51
1, 384597, Control_c, 0, 64, 58
1, 384611, Control_c, 0, 64, 61
1, 384613, Note_on_c, 0, 63, 68
1, 384626, Control_c, 0, 64, 64
1, 384640, Note_off_c, 0, 61, 59
1, 384641, Control_c, 0, 64, 65
1, 384656, Control_c, 0, 64, 66
1, 384670, Control_c, 0, 64, 67
1, 384692, Control_c, 0, 64, 67
1, 384722, Control_c, 0, 64, 68
1, 384737, Note_on_c, 0, 62, 67
1, 384737, Control_c, 0, 64, 68
1, 384738, Note_off_c, 0, 63, 61
1, 384752, Control_c, 0, 64, 69
1, 384829, Note_off_c, 0, 62, 63
1, 384858, Note_on_c, 0, 60, 68
1, 384885, Control_c, 0, 64, 68
1, 384930, Control_c, 0, 64, 68
1, 384944, Control_c, 0, 64, 67
1, 384959, Control_c, 0, 64, 66
1, 384968, Note_on_c, 0, 58, 73
1, 384974, Control_c, 0, 64, 65
1, 384988, Control_c, 0, 64, 64
1, 384993, Note_off_c, 0, 60, 55
1, 385003, Control_c, 0, 64, 62
1, 385018, Control_c, 0, 64, 60
1, 385033, Control_c, 0, 64, 57
1, 385048, Control_c, 0, 64, 54
1, 385062, Control_c, 0, 64, 50
1, 385077, Control_c, 0, 64, 44
1, 385087, Note_on_c, 0, 57, 74
1, 385092, Control_c, 0, 64, 33
1, 385107, Control_c, 0, 64, 0
1, 385182, Note_off_c, 0, 58, 32
1, 385209, Note_on_c, 0, 56, 76
1, 385233, Note_off_c, 0, 57, 62
1, 385322, Note_on_c, 0, 58, 75
1, 385356, Note_off_c, 0, 56, 61
1, 385445, Note_off_c, 0, 58, 63
1, 385449, Note_on_c, 0, 57, 73
1, 385534, Note_off_c, 0, 57, 62
1, 385560, Note_on_c, 0, 55, 72
1, 385676, Note_on_c, 0, 54, 76
1, 385695, Note_off_c, 0, 55, 54
1, 385791, Note_on_c, 0, 51, 78
1, 385829, Note_off_c, 0, 54, 56
1, 385902, Note_on_c, 0, 50, 71
1, 385926, Note_off_c, 0, 66, 59
1, 385934, Note_off_c, 0, 51, 59
1, 385945, Control_c, 0, 64, 32
1, 385959, Control_c, 0, 64, 39
1, 385974, Control_c, 0, 64, 47
1, 385989, Control_c, 0, 64, 54
1, 386004, Control_c, 0, 64, 58
1, 386017, Note_on_c, 0, 53, 73
1, 386019, Control_c, 0, 64, 60
1, 386030, Note_off_c, 0, 50, 62
1, 386034, Control_c, 0, 64, 61
1, 386049, Control_c, 0, 64, 62
1, 386063, Control_c, 0, 64, 62
1, 386120, Note_on_c, 0, 51, 77
1, 386123, Note_off_c, 0, 53, 62
1, 386130, Note_off_c, 0, 78, 49
1, 386226, Note_off_c, 0, 51, 63
1, 386242, Note_on_c, 0, 50, 73
1, 386309, Control_c, 0, 64, 62
1, 386338, Control_c, 0, 64, 61
1, 386354, Note_on_c, 0, 48, 83
1, 386361, Note_off_c, 0, 50, 63
1, 386368, Control_c, 0, 64, 61
1, 386382, Control_c, 0, 64, 60
1, 386397, Control_c, 0, 64, 59
1, 386412, Control_c, 0, 64, 58
1, 386427, Control_c, 0, 64, 57
1, 386442, Control_c, 0, 64, 54
1, 386457, Control_c, 0, 64, 52
1, 386460, Note_on_c, 0, 79, 62
1, 386472, Note_on_c, 0, 46, 78
1, 386472, Control_c, 0, 64, 50
1, 386487, Control_c, 0, 64, 47
1, 386502, Control_c, 0, 64, 43
1, 386505, Note_off_c, 0, 48, 60
1, 386516, Control_c, 0, 64, 39
1, 386531, Control_c, 0, 64, 33
1, 386546, Control_c, 0, 64, 0
1, 386581, Note_on_c, 0, 78, 64
1, 386587, Note_off_c, 0, 79, 59
1, 386713, Note_on_c, 0, 81, 56
1, 386758, Note_off_c, 0, 78, 50
1, 386767, Control_c, 0, 64, 30
1, 386782, Control_c, 0, 64, 32
1, 386797, Control_c, 0, 64, 34
1, 386812, Control_c, 0, 64, 37
1, 386827, Note_on_c, 0, 79, 60
1, 386827, Control_c, 0, 64, 39
1, 386830, Note_off_c, 0, 81, 56
1, 386841, Control_c, 0, 64, 42
1, 386856, Control_c, 0, 64, 43
1, 386871, Control_c, 0, 64, 45
1, 386886, Control_c, 0, 64, 46
1, 386902, Control_c, 0, 64, 47
1, 386917, Control_c, 0, 64, 48
1, 386919, Note_off_c, 0, 79, 62
1, 386939, Control_c, 0, 64, 49
1, 386950, Note_on_c, 0, 77, 65
1, 386954, Control_c, 0, 64, 49
1, 386983, Control_c, 0, 64, 50
1, 387043, Control_c, 0, 64, 50
1, 387066, Note_on_c, 0, 75, 66
1, 387075, Note_off_c, 0, 77, 61
1, 387173, Note_on_c, 0, 74, 73
1, 387205, Control_c, 0, 64, 51
1, 387220, Control_c, 0, 64, 51
1, 387225, Note_off_c, 0, 75, 57
1, 387235, Control_c, 0, 64, 52
1, 387250, Control_c, 0, 64, 52
1, 387265, Control_c, 0, 64, 53
1, 387286, Note_on_c, 0, 73, 65
1, 387295, Control_c, 0, 64, 53
1, 387321, Note_off_c, 0, 74, 62
1, 387339, Control_c, 0, 64, 54
1, 387383, Control_c, 0, 64, 54
1, 387404, Note_on_c, 0, 75, 75
1, 387428, Control_c, 0, 64, 55
1, 387443, Control_c, 0, 64, 55
1, 387457, Control_c, 0, 64, 56
1, 387472, Control_c, 0, 64, 56
1, 387487, Control_c, 0, 64, 57
1, 387511, Note_on_c, 0, 74, 79
1, 387517, Control_c, 0, 64, 57
1, 387531, Control_c, 0, 64, 58
1, 387536, Note_off_c, 0, 73, 27
1, 387561, Control_c, 0, 64, 58
1, 387563, Note_off_c, 0, 75, 56
1, 387576, Control_c, 0, 64, 59
1, 387590, Control_c, 0, 64, 59
1, 387605, Control_c, 0, 64, 60
1, 387607, Note_off_c, 0, 74, 62
1, 387620, Control_c, 0, 64, 60
1, 387639, Note_on_c, 0, 72, 71
1, 387664, Control_c, 0, 64, 61
1, 387766, Note_on_c, 0, 70, 69
1, 387777, Note_off_c, 0, 72, 57
1, 387792, Control_c, 0, 64, 61
1, 387865, Note_on_c, 0, 47, 82
1, 387866, Control_c, 0, 64, 61
1, 387875, Note_on_c, 0, 68, 69
1, 387910, Control_c, 0, 64, 60
1, 387927, Note_off_c, 0, 70, 53
1, 387954, Control_c, 0, 64, 60
1, 388001, Note_on_c, 0, 67, 65
1, 388046, Note_off_c, 0, 68, 57
1, 388073, Control_c, 0, 64, 60
1, 388102, Control_c, 0, 64, 61
1, 388117, Note_on_c, 0, 70, 72
1, 388132, Control_c, 0, 64, 61
1, 388147, Control_c, 0, 64, 62
1, 388152, Note_off_c, 0, 67, 59
1, 388162, Control_c, 0, 64, 62
1, 388177, Control_c, 0, 64, 63
1, 388192, Control_c, 0, 64, 64
1, 388206, Control_c, 0, 64, 65
1, 388221, Control_c, 0, 64, 66
1, 388229, Note_on_c, 0, 68, 74
1, 388236, Control_c, 0, 64, 67
1, 388251, Control_c, 0, 64, 68
1, 388266, Control_c, 0, 64, 68
1, 388280, Control_c, 0, 64, 69
1, 388295, Control_c, 0, 64, 70
1, 388310, Control_c, 0, 64, 71
1, 388325, Control_c, 0, 64, 71
1, 388339, Control_c, 0, 64, 72
1, 388347, Note_on_c, 0, 67, 77
1, 388349, Note_off_c, 0, 70, 33
1, 388354, Control_c, 0, 64, 73
1, 388369, Control_c, 0, 64, 74
1, 388384, Control_c, 0, 64, 75
1, 388394, Note_off_c, 0, 68, 61
1, 388399, Control_c, 0, 64, 76
1, 388410, Note_off_c, 0, 46, 0
1, 388413, Control_c, 0, 64, 77
1, 388436, Control_c, 0, 64, 78
1, 388451, Control_c, 0, 64, 80
1, 388455, Poly_aftertouch_c, 0, 46, 127
1, 388463, Note_on_c, 0, 65, 78
1, 388466, Control_c, 0, 64, 81
1, 388469, Note_off_c, 0, 67, 62
1, 388481, Control_c, 0, 64, 83
1, 388496, Control_c, 0, 64, 85
1, 388511, Control_c, 0, 64, 87
1, 388526, Control_c, 0, 64, 89
1, 388541, Control_c, 0, 64, 90
1, 388572, Note_on_c, 0, 48, 97
1, 388573, Note_on_c, 0, 63, 82
1, 388585, Control_c, 0, 64, 88
1, 388591, Poly_aftertouch_c, 0, 46, 0
1, 388595, Note_off_c, 0, 65, 57
1, 388600, Control_c, 0, 64, 80
1, 388615, Control_c, 0, 64, 69
1, 388630, Control_c, 0, 64, 56
1, 388645, Control_c, 0, 64, 35
1, 388660, Control_c, 0, 64, 0
1, 388698, Note_on_c, 0, 62, 76
1, 388746, Note_off_c, 0, 63, 57
1, 388806, Note_off_c, 0, 47, 24
1, 388810, Note_on_c, 0, 65, 74
1, 388823, Control_c, 0, 64, 34
1, 388837, Control_c, 0, 64, 41
1, 388847, Note_off_c, 0, 62, 61
1, 388852, Control_c, 0, 64, 48
1, 388867, Control_c, 0, 64, 54
1, 388882, Control_c, 0, 64, 58
1, 388897, Control_c, 0, 64, 61
1, 388911, Control_c, 0, 64, 63
1, 388926, Control_c, 0, 64, 65
1, 388932, Note_on_c, 0, 63, 83
1, 388941, Control_c, 0, 64, 66
1, 388955, Control_c, 0, 64, 69
1, 388970, Control_c, 0, 64, 72
1, 388985, Control_c, 0, 64, 76
1, 389000, Control_c, 0, 64, 82
1, 389007, Note_off_c, 0, 65, 49
1, 389015, Control_c, 0, 64, 88
1, 389029, Control_c, 0, 64, 97
1, 389044, Control_c, 0, 64, 117
1, 389053, Note_on_c, 0, 62, 80
1, 389059, Control_c, 0, 64, 127
1, 389098, Note_off_c, 0, 63, 64
1, 389153, Note_on_c, 0, 60, 83
1, 389158, Note_off_c, 0, 62, 62
1, 389230, Note_off_c, 0, 60, 65
1, 389272, Note_on_c, 0, 49, 85
1, 389277, Note_on_c, 0, 58, 86
1, 389310, Note_off_c, 0, 48, 59
1, 389334, Control_c, 0, 64, 94
1, 389348, Control_c, 0, 64, 69
1, 389363, Control_c, 0, 64, 48
1, 389378, Control_c, 0, 64, 0
1, 389384, Note_off_c, 0, 58, 64
1, 389387, Note_on_c, 0, 60, 71
1, 389447, Note_off_c, 0, 60, 63
1, 389450, Note_on_c, 0, 58, 76
1, 389453, Control_c, 0, 64, 44
1, 389467, Control_c, 0, 64, 58
1, 389482, Control_c, 0, 64, 67
1, 389497, Control_c, 0, 64, 77
1, 389503, Note_off_c, 0, 58, 62
1, 389506, Note_on_c, 0, 60, 68
1, 389512, Control_c, 0, 64, 85
1, 389527, Control_c, 0, 64, 91
1, 389541, Control_c, 0, 64, 95
1, 389555, Note_on_c, 0, 58, 75
1, 389556, Control_c, 0, 64, 98
1, 389560, Note_off_c, 0, 60, 66
1, 389605, Note_off_c, 0, 58, 63
1, 389614, Note_on_c, 0, 57, 76
1, 389659, Control_c, 0, 64, 89
1, 389666, Note_on_c, 0, 58, 82
1, 389674, Control_c, 0, 64, 79
1, 389679, Note_off_c, 0, 57, 59
1, 389689, Control_c, 0, 64, 65
1, 389704, Control_c, 0, 64, 53
1, 389719, Control_c, 0, 64, 36
1, 389733, Control_c, 0, 64, 0
1, 389740, Note_on_c, 0, 60, 82
1, 389746, Note_off_c, 0, 58, 64
1, 389816, Note_on_c, 0, 58, 84
1, 389838, Note_off_c, 0, 60, 64
1, 389902, Note_on_c, 0, 57, 91
1, 389924, Note_off_c, 0, 58, 60
1, 389948, Control_c, 0, 64, 37
1, 389963, Control_c, 0, 64, 61
1, 389977, Control_c, 0, 64, 74
1, 389992, Control_c, 0, 64, 94
1, 390007, Control_c, 0, 64, 127
1, 390043, Note_off_c, 0, 57, 62
1, 390201, Control_c, 0, 64, 124
1, 390216, Control_c, 0, 64, 77
1, 390231, Control_c, 0, 64, 54
1, 390246, Control_c, 0, 64, 0
1, 390266, Note_on_c, 0, 55, 87
1, 390320, Control_c, 0, 64, 32
1, 390335, Control_c, 0, 64, 55
1, 390350, Control_c, 0, 64, 69
1, 390364, Control_c, 0, 64, 81
1, 390379, Control_c, 0, 64, 101
1, 390389, Note_off_c, 0, 49, 63
1, 390394, Control_c, 0, 64, 127
1, 390461, Note_off_c, 0, 55, 53
1, 390634, Note_on_c, 0, 53, 84
1, 390645, Control_c, 0, 64, 113
1, 390655, Note_on_c, 0, 62, 64
1, 390660, Control_c, 0, 64, 77
1, 390682, Control_c, 0, 64, 57
1, 390697, Control_c, 0, 64, 0
1, 390783, Note_on_c, 0, 61, 71
1, 390800, Control_c, 0, 64, 30
1, 390803, Note_off_c, 0, 62, 56
1, 390815, Control_c, 0, 64, 46
1, 390830, Control_c, 0, 64, 62
1, 390845, Control_c, 0, 64, 70
1, 390860, Control_c, 0, 64, 77
1, 390874, Note_off_c, 0, 53, 63
1, 390875, Control_c, 0, 64, 83
1, 390890, Control_c, 0, 64, 91
1, 390904, Note_on_c, 0, 64, 77
1, 390905, Control_c, 0, 64, 104
1, 390920, Control_c, 0, 64, 127
1, 390930, Note_off_c, 0, 61, 59
1, 391021, Note_on_c, 0, 62, 79
1, 391037, Note_off_c, 0, 64, 62
1, 391107, Note_off_c, 0, 62, 63
1, 391126, Note_on_c, 0, 60, 74
1, 391231, Note_on_c, 0, 58, 82
1, 391260, Note_off_c, 0, 60, 59
1, 391358, Note_on_c, 0, 77, 97
1, 391366, Note_on_c, 0, 57, 70
1, 391375, Note_on_c, 0, 65, 69
1, 391394, Control_c, 0, 64, 94
1, 391409, Control_c, 0, 64, 69
1, 391431, Control_c, 0, 64, 42
1, 391446, Control_c, 0, 64, 0
1, 391472, Note_off_c, 0, 58, 52
1, 391488, Note_on_c, 0, 56, 75
1, 391512, Note_off_c, 0, 57, 60
1, 391536, Control_c, 0, 64, 35
1, 391551, Control_c, 0, 64, 48
1, 391565, Control_c, 0, 64, 57
1, 391580, Control_c, 0, 64, 62
1, 391593, Note_on_c, 0, 58, 77
1, 391595, Control_c, 0, 64, 65
1, 391610, Control_c, 0, 64, 69
1, 391625, Control_c, 0, 64, 73
1, 391629, Note_off_c, 0, 56, 61
1, 391639, Control_c, 0, 64, 80
1, 391654, Control_c, 0, 64, 88
1, 391669, Control_c, 0, 64, 101
1, 391684, Control_c, 0, 64, 127
1, 391715, Note_on_c, 0, 57, 76
1, 391725, Note_off_c, 0, 58, 60
1, 391806, Note_off_c, 0, 57, 62
1, 391826, Note_on_c, 0, 55, 81
1, 391927, Note_on_c, 0, 53, 86
1, 391946, Note_off_c, 0, 55, 59
1, 391966, Note_off_c, 0, 65, 61
1, 392043, Note_on_c, 0, 78, 100
1, 392048, Note_on_c, 0, 51, 90
1, 392048, Note_on_c, 0, 66, 89
1, 392070, Control_c, 0, 64, 85
1, 392074, Note_off_c, 0, 53, 60
1, 392075, Note_off_c, 0, 77, 65
1, 392085, Control_c, 0, 64, 62
1, 392100, Control_c, 0, 64, 0
1, 392159, Note_on_c, 0, 50, 76
1, 392180, Control_c, 0, 64, 32
1, 392195, Control_c, 0, 64, 47
1, 392201, Note_off_c, 0, 51, 61
1, 392210, Control_c, 0, 64, 59
1, 392224, Control_c, 0, 64, 66
1, 392239, Control_c, 0, 64, 73
1, 392253, Control_c, 0, 64, 78
1, 392268, Control_c, 0, 64, 82
1, 392270, Note_on_c, 0, 53, 83
1, 392283, Control_c, 0, 64, 88
1, 392298, Control_c, 0, 64, 104
1, 392301, Note_off_c, 0, 50, 62
1, 392312, Control_c, 0, 64, 127
1, 392379, Note_on_c, 0, 51, 85
1, 392394, Note_off_c, 0, 53, 62
1, 392475, Note_off_c, 0, 66, 51
1, 392476, Note_off_c, 0, 51, 62
1, 392486, Note_on_c, 0, 50, 81
1, 392601, Note_on_c, 0, 48, 94
1, 392615, Note_off_c, 0, 50, 61
1, 392684, Control_c, 0, 64, 89
1, 392699, Control_c, 0, 64, 63
1, 392713, Note_on_c, 0, 79, 93
1, 392714, Control_c, 0, 64, 0
1, 392717, Note_on_c, 0, 67, 91
1, 392721, Note_on_c, 0, 46, 89
1, 392744, Note_off_c, 0, 48, 63
1, 392759, Note_off_c, 0, 78, 56
1, 392817, Control_c, 0, 64, 40
1, 392824, Note_on_c, 0, 45, 79
1, 392832, Control_c, 0, 64, 56
1, 392847, Control_c, 0, 64, 68
1, 392862, Control_c, 0, 64, 86
1, 392866, Note_off_c, 0, 46, 57
1, 392876, Control_c, 0, 64, 127
1, 392941, Note_on_c, 0, 48, 93
1, 392958, Control_c, 0, 64, 83
1, 392973, Note_off_c, 0, 45, 63
1, 392973, Control_c, 0, 64, 53
1, 392988, Control_c, 0, 64, 0
1, 393047, Control_c, 0, 64, 43
1, 393052, Note_on_c, 0, 46, 88
1, 393062, Control_c, 0, 64, 66
1, 393072, Note_off_c, 0, 48, 62
1, 393076, Control_c, 0, 64, 88
1, 393091, Control_c, 0, 64, 127
1, 393146, Note_off_c, 0, 46, 62
1, 393160, Note_on_c, 0, 45, 84
1, 393268, Note_on_c, 0, 43, 94
1, 393286, Note_off_c, 0, 45, 59
1, 393319, Note_off_c, 0, 67, 59
1, 393386, Note_on_c, 0, 41, 92
1, 393402, Note_off_c, 0, 43, 60
1, 393404, Note_on_c, 0, 80, 102
1, 393411, Note_on_c, 0, 68, 82
1, 393426, Note_off_c, 0, 79, 67
1, 393432, Control_c, 0, 64, 92
1, 393447, Control_c, 0, 64, 70
1, 393461, Note_off_c, 0, 41, 65
1, 393462, Control_c, 0, 64, 53
1, 393477, Control_c, 0, 64, 0
1, 393489, Note_on_c, 0, 43, 83
1, 393563, Note_off_c, 0, 43, 57
1, 393563, Note_on_c, 0, 41, 84
1, 393566, Control_c, 0, 64, 37
1, 393581, Control_c, 0, 64, 47
1, 393596, Control_c, 0, 64, 54
1, 393611, Control_c, 0, 64, 57
1, 393624, Note_off_c, 0, 41, 66
1, 393625, Control_c, 0, 64, 58
1, 393631, Note_on_c, 0, 43, 73
1, 393640, Control_c, 0, 64, 59
1, 393677, Control_c, 0, 64, 58
1, 393692, Note_on_c, 0, 41, 79
1, 393692, Control_c, 0, 64, 58
1, 393706, Control_c, 0, 64, 57
1, 393708, Note_off_c, 0, 43, 62
1, 393721, Control_c, 0, 64, 57
1, 393736, Control_c, 0, 64, 56
1, 393751, Control_c, 0, 64, 55
1, 393766, Control_c, 0, 64, 54
1, 393771, Note_on_c, 0, 40, 86
1, 393779, Note_off_c, 0, 41, 64
1, 393781, Control_c, 0, 64, 53
1, 393796, Control_c, 0, 64, 53
1, 393811, Control_c, 0, 64, 52
1, 393825, Control_c, 0, 64, 52
1, 393840, Note_on_c, 0, 41, 78
1, 393840, Control_c, 0, 64, 51
1, 393847, Note_off_c, 0, 40, 62
1, 393855, Control_c, 0, 64, 50
1, 393870, Control_c, 0, 64, 49
1, 393885, Control_c, 0, 64, 46
1, 393899, Control_c, 0, 64, 43
1, 393914, Control_c, 0, 64, 38
1, 393925, Note_on_c, 0, 43, 84
1, 393929, Note_off_c, 0, 41, 65
1, 393929, Control_c, 0, 64, 32
1, 393944, Control_c, 0, 64, 0
1, 394011, Note_on_c, 0, 41, 92
1, 394022, Note_off_c, 0, 43, 61
1, 394098, Note_on_c, 0, 40, 91
1, 394118, Note_off_c, 0, 41, 63
1, 394211, Control_c, 0, 64, 45
1, 394223, Note_off_c, 0, 68, 53
1, 394226, Control_c, 0, 64, 64
1, 394241, Control_c, 0, 64, 78
1, 394255, Control_c, 0, 64, 99
1, 394270, Control_c, 0, 64, 127
1, 394347, Note_off_c, 0, 40, 37
1, 394470, Control_c, 0, 64, 85
1, 394478, Note_on_c, 0, 38, 94
1, 394485, Control_c, 0, 64, 61
1, 394499, Control_c, 0, 64, 0
1, 394589, Control_c, 0, 64, 41
1, 394604, Control_c, 0, 64, 62
1, 394619, Control_c, 0, 64, 73
1, 394634, Control_c, 0, 64, 84
1, 394648, Control_c, 0, 64, 97
1, 394663, Note_off_c, 0, 38, 46
1, 394663, Control_c, 0, 64, 127
1, 394756, Note_off_c, 0, 80, 45
1, 394941, Note_on_c, 0, 81, 95
1, 394945, Control_c, 0, 64, 80
1, 394950, Note_on_c, 0, 37, 97
1, 394950, Note_on_c, 0, 69, 90
1, 394960, Control_c, 0, 64, 60
1, 394975, Control_c, 0, 64, 0
1, 395108, Control_c, 0, 64, 43
1, 395123, Control_c, 0, 64, 54
1, 395138, Control_c, 0, 64, 62
1, 395152, Control_c, 0, 64, 67
1, 395175, Control_c, 0, 64, 72
1, 395190, Control_c, 0, 64, 79
1, 395205, Control_c, 0, 64, 86
1, 395220, Control_c, 0, 64, 97
1, 395235, Control_c, 0, 64, 127
1, 395283, Note_off_c, 0, 37, 56
1, 395287, Note_off_c, 0, 81, 61
1, 395370, Note_off_c, 0, 69, 39
1, 395665, Control_c, 0, 64, 97
1, 395665, Control_c, 0, 67, 64
1, 395679, Control_c, 0, 64, 68
1, 395679, Control_c, 0, 67, 114
1, 395695, Control_c, 0, 64, 45
1, 395695, Control_c, 0, 67, 127
1, 395710, Control_c, 0, 64, 0
1, 396482, Note_on_c, 0, 53, 43
1, 396515, Note_on_c, 0, 41, 30
1, 397013, Control_c, 0, 64, 33
1, 397028, Control_c, 0, 64, 40
1, 397042, Control_c, 0, 64, 47
1, 397057, Control_c, 0, 64, 51
1, 397072, Control_c, 0, 64, 54
1, 397087, Control_c, 0, 64, 57
1, 397102, Control_c, 0, 64, 60
1, 397117, Control_c, 0, 64, 61
1, 397132, Control_c, 0, 64, 62
1, 397146, Control_c, 0, 64, 62
1, 397161, Control_c, 0, 64, 63
1, 397176, Control_c, 0, 64, 64
1, 397191, Control_c, 0, 64, 65
1, 397206, Control_c, 0, 64, 65
1, 397221, Control_c, 0, 64, 66
1, 397235, Control_c, 0, 64, 67
1, 397238, Note_on_c, 0, 79, 43
1, 397250, Control_c, 0, 64, 68
1, 397265, Control_c, 0, 64, 70
1, 397272, Note_on_c, 0, 71, 38
1, 397280, Control_c, 0, 64, 72
1, 397296, Control_c, 0, 64, 75
1, 397310, Control_c, 0, 64, 77
1, 397325, Control_c, 0, 64, 80
1, 397340, Control_c, 0, 64, 83
1, 397352, Note_off_c, 0, 53, 50
1, 397355, Control_c, 0, 64, 89
1, 397370, Control_c, 0, 64, 95
1, 397371, Note_off_c, 0, 41, 48
1, 397384, Control_c, 0, 64, 104
1, 397399, Control_c, 0, 64, 127
1, 397585, Control_c, 0, 64, 98
1, 397599, Control_c, 0, 64, 83
1, 397614, Note_on_c, 0, 50, 38
1, 397614, Control_c, 0, 64, 72
1, 397629, Control_c, 0, 64, 65
1, 397634, Note_on_c, 0, 38, 17
1, 397644, Control_c, 0, 64, 62
1, 397659, Control_c, 0, 64, 63
1, 397673, Control_c, 0, 64, 66
1, 397688, Control_c, 0, 64, 71
1, 397703, Control_c, 0, 64, 77
1, 397717, Control_c, 0, 64, 81
1, 397732, Control_c, 0, 64, 84
1, 397747, Control_c, 0, 64, 87
1, 397758, Note_off_c, 0, 50, 55
1, 397762, Control_c, 0, 64, 91
1, 397774, Note_off_c, 0, 38, 43
1, 397777, Control_c, 0, 64, 94
1, 397791, Control_c, 0, 64, 96
1, 397895, Control_c, 0, 64, 95
1, 397910, Control_c, 0, 64, 87
1, 397924, Control_c, 0, 64, 76
1, 397939, Control_c, 0, 64, 65
1, 397954, Control_c, 0, 64, 53
1, 397967, Note_on_c, 0, 52, 37
1, 397969, Control_c, 0, 64, 46
1, 397973, Note_on_c, 0, 40, 39
1, 397984, Control_c, 0, 64, 48
1, 397999, Control_c, 0, 64, 52
1, 398014, Control_c, 0, 64, 58
1, 398029, Control_c, 0, 64, 64
1, 398044, Control_c, 0, 64, 71
1, 398059, Control_c, 0, 64, 80
1, 398073, Control_c, 0, 64, 85
1, 398088, Control_c, 0, 64, 90
1, 398103, Control_c, 0, 64, 94
1, 398118, Control_c, 0, 64, 97
1, 398120, Note_off_c, 0, 52, 55
1, 398133, Control_c, 0, 64, 101
1, 398135, Note_off_c, 0, 40, 31
1, 398148, Control_c, 0, 64, 104
1, 398170, Control_c, 0, 64, 106
1, 398215, Control_c, 0, 64, 103
1, 398230, Control_c, 0, 64, 94
1, 398245, Control_c, 0, 64, 84
1, 398260, Control_c, 0, 64, 79
1, 398275, Control_c, 0, 64, 77
1, 398304, Control_c, 0, 64, 78
1, 398310, Note_on_c, 0, 53, 45
1, 398319, Control_c, 0, 64, 79
1, 398321, Note_on_c, 0, 41, 43
1, 398334, Control_c, 0, 64, 81
1, 398348, Control_c, 0, 64, 83
1, 398363, Control_c, 0, 64, 85
1, 398378, Control_c, 0, 64, 88
1, 398378, Control_c, 0, 67, 104
1, 398393, Control_c, 0, 64, 90
1, 398393, Control_c, 0, 67, 73
1, 398408, Control_c, 0, 64, 92
1, 398408, Control_c, 0, 67, 41
1, 398422, Control_c, 0, 64, 94
1, 398422, Control_c, 0, 67, 0
1, 398435, Note_off_c, 0, 53, 58
1, 398437, Control_c, 0, 64, 96
1, 398462, Note_off_c, 0, 41, 37
1, 398601, Control_c, 0, 64, 95
1, 398615, Control_c, 0, 64, 91
1, 398630, Control_c, 0, 64, 85
1, 398645, Control_c, 0, 64, 78
1, 398660, Control_c, 0, 64, 70
1, 398663, Note_on_c, 0, 55, 66
1, 398674, Control_c, 0, 64, 61
1, 398674, Control_c, 0, 67, 47
1, 398689, Control_c, 0, 64, 55
1, 398689, Control_c, 0, 67, 67
1, 398698, Note_on_c, 0, 43, 48
1, 398704, Control_c, 0, 64, 51
1, 398704, Control_c, 0, 67, 89
1, 398719, Control_c, 0, 64, 46
1, 398719, Control_c, 0, 67, 111
1, 398734, Control_c, 0, 64, 41
1, 398734, Control_c, 0, 67, 127
1, 398748, Control_c, 0, 64, 34
1, 398763, Control_c, 0, 64, 0
1, 398778, Note_off_c, 0, 71, 50
1, 399051, Note_on_c, 0, 76, 51
1, 399075, Note_on_c, 0, 67, 44
1, 399098, Control_c, 0, 64, 33
1, 399112, Control_c, 0, 64, 40
1, 399127, Control_c, 0, 64, 47
1, 399142, Control_c, 0, 64, 55
1, 399157, Control_c, 0, 64, 60
1, 399171, Control_c, 0, 64, 63
1, 399186, Control_c, 0, 64, 66
1, 399191, Note_off_c, 0, 79, 62
1, 399201, Control_c, 0, 64, 68
1, 399216, Control_c, 0, 64, 71
1, 399231, Control_c, 0, 64, 75
1, 399245, Control_c, 0, 64, 78
1, 399260, Control_c, 0, 64, 82
1, 399275, Control_c, 0, 64, 85
1, 399290, Control_c, 0, 64, 90
1, 399305, Control_c, 0, 64, 94
1, 399320, Control_c, 0, 64, 98
1, 399334, Control_c, 0, 64, 100
1, 399364, Control_c, 0, 64, 102
1, 399436, Note_on_c, 0, 81, 71
1, 399461, Note_on_c, 0, 72, 53
1, 399509, Note_off_c, 0, 43, 58
1, 399516, Note_off_c, 0, 55, 37
1, 399527, Control_c, 0, 64, 104
1, 399557, Control_c, 0, 64, 109
1, 399571, Control_c, 0, 64, 115
1, 399586, Control_c, 0, 64, 127
1, 399711, Note_off_c, 0, 67, 28
1, 399772, Control_c, 0, 64, 107
1, 399787, Control_c, 0, 64, 87
1, 399790, Note_on_c, 0, 52, 38
1, 399791, Note_on_c, 0, 40, 40
1, 399801, Control_c, 0, 64, 69
1, 399816, Control_c, 0, 64, 57
1, 399831, Control_c, 0, 64, 46
1, 399846, Control_c, 0, 64, 39
1, 399861, Control_c, 0, 64, 40
1, 399875, Control_c, 0, 64, 45
1, 399890, Control_c, 0, 64, 56
1, 399905, Control_c, 0, 64, 67
1, 399907, Note_off_c, 0, 52, 61
1, 399919, Control_c, 0, 64, 75
1, 399934, Control_c, 0, 64, 83
1, 399949, Control_c, 0, 64, 88
1, 399964, Control_c, 0, 64, 93
1, 399979, Control_c, 0, 64, 97
1, 399993, Control_c, 0, 64, 103
1, 400008, Control_c, 0, 64, 112
1, 400023, Control_c, 0, 64, 122
1, 400038, Control_c, 0, 64, 127
1, 400068, Note_off_c, 0, 40, 33
1, 400112, Control_c, 0, 64, 101
1, 400127, Control_c, 0, 64, 83
1, 400136, Note_on_c, 0, 54, 46
1, 400142, Control_c, 0, 64, 68
1, 400151, Note_on_c, 0, 42, 44
1, 400157, Control_c, 0, 64, 57
1, 400172, Control_c, 0, 64, 47
1, 400186, Control_c, 0, 64, 41
1, 400201, Control_c, 0, 64, 41
1, 400216, Control_c, 0, 64, 47
1, 400231, Control_c, 0, 64, 57
1, 400246, Control_c, 0, 64, 65
1, 400260, Control_c, 0, 64, 73
1, 400275, Control_c, 0, 64, 84
1, 400290, Control_c, 0, 64, 93
1, 400297, Note_off_c, 0, 54, 60
1, 400305, Control_c, 0, 64, 99
1, 400310, Note_off_c, 0, 42, 37
1, 400319, Control_c, 0, 64, 104
1, 400334, Control_c, 0, 64, 110
1, 400349, Control_c, 0, 64, 116
1, 400364, Control_c, 0, 64, 122
1, 400416, Control_c, 0, 64, 115
1, 400431, Control_c, 0, 64, 102
1, 400445, Control_c, 0, 64, 93
1, 400460, Control_c, 0, 64, 90
1, 400475, Control_c, 0, 67, 121
1, 400491, Control_c, 0, 67, 102
1, 400496, Note_on_c, 0, 43, 48
1, 400496, Note_on_c, 0, 55, 47
1, 400506, Control_c, 0, 67, 81
1, 400521, Control_c, 0, 64, 90
1, 400521, Control_c, 0, 67, 60
1, 400536, Control_c, 0, 64, 91
1, 400536, Control_c, 0, 67, 0
1, 400550, Control_c, 0, 64, 94
1, 400557, Note_off_c, 0, 43, 59
1, 400561, Note_off_c, 0, 55, 59
1, 400565, Control_c, 0, 64, 96
1, 400580, Control_c, 0, 64, 98
1, 400610, Control_c, 0, 64, 101
1, 400654, Control_c, 0, 64, 103
1, 400658, Note_off_c, 0, 76, 41
1, 400846, Control_c, 0, 64, 100
1, 400861, Control_c, 0, 64, 97
1, 400862, Note_on_c, 0, 57, 73
1, 400876, Control_c, 0, 64, 92
1, 400890, Control_c, 0, 64, 85
1, 400896, Note_on_c, 0, 45, 53
1, 400905, Control_c, 0, 64, 79
1, 400920, Control_c, 0, 64, 72
1, 400935, Control_c, 0, 64, 64
1, 400950, Control_c, 0, 64, 58
1, 400959, Note_off_c, 0, 72, 47
1, 400965, Control_c, 0, 64, 54
1, 400965, Control_c, 0, 67, 37
1, 400980, Control_c, 0, 64, 50
1, 400980, Control_c, 0, 67, 48
1, 400995, Control_c, 0, 64, 48
1, 400995, Control_c, 0, 67, 62
1, 401009, Control_c, 0, 64, 45
1, 401009, Control_c, 0, 67, 78
1, 401024, Control_c, 0, 64, 40
1, 401024, Control_c, 0, 67, 101
1, 401039, Control_c, 0, 64, 34
1, 401039, Control_c, 0, 67, 121
1, 401053, Control_c, 0, 64, 0
1, 401053, Control_c, 0, 67, 127
1, 401239, Note_on_c, 0, 78, 65
1, 401260, Note_on_c, 0, 69, 45
1, 401333, Note_off_c, 0, 81, 62
1, 401344, Control_c, 0, 64, 31
1, 401359, Control_c, 0, 64, 43
1, 401373, Control_c, 0, 64, 55
1, 401388, Control_c, 0, 64, 63
1, 401403, Control_c, 0, 64, 67
1, 401418, Control_c, 0, 64, 71
1, 401433, Control_c, 0, 64, 76
1, 401448, Control_c, 0, 64, 80
1, 401463, Control_c, 0, 64, 84
1, 401478, Control_c, 0, 64, 88
1, 401492, Control_c, 0, 64, 92
1, 401507, Control_c, 0, 64, 95
1, 401522, Control_c, 0, 64, 97
1, 401596, Note_on_c, 0, 82, 75
1, 401611, Control_c, 0, 64, 94
1, 401614, Note_on_c, 0, 74, 59
1, 401626, Control_c, 0, 64, 89
1, 401640, Control_c, 0, 64, 86
1, 401655, Control_c, 0, 64, 85
1, 401657, Note_off_c, 0, 57, 54
1, 401692, Note_off_c, 0, 45, 61
1, 401699, Control_c, 0, 64, 87
1, 401714, Control_c, 0, 64, 92
1, 401729, Control_c, 0, 64, 102
1, 401744, Control_c, 0, 64, 127
1, 401914, Control_c, 0, 64, 99
1, 401929, Control_c, 0, 64, 79
1, 401931, Note_on_c, 0, 42, 54
1, 401934, Note_on_c, 0, 54, 44
1, 401944, Control_c, 0, 64, 61
1, 401958, Control_c, 0, 64, 42
1, 401973, Control_c, 0, 64, 0
1, 402018, Control_c, 0, 64, 30
1, 402032, Control_c, 0, 64, 46
1, 402047, Control_c, 0, 64, 62
1, 402062, Control_c, 0, 64, 73
1, 402077, Control_c, 0, 64, 87
1, 402083, Note_off_c, 0, 54, 60
1, 402093, Control_c, 0, 64, 106
1, 402107, Note_off_c, 0, 42, 52
1, 402108, Control_c, 0, 64, 127
1, 402271, Control_c, 0, 64, 91
1, 402283, Note_on_c, 0, 55, 49
1, 402286, Control_c, 0, 64, 70
1, 402291, Note_on_c, 0, 43, 43
1, 402300, Control_c, 0, 64, 54
1, 402315, Control_c, 0, 64, 0
1, 402360, Control_c, 0, 64, 30
1, 402375, Control_c, 0, 64, 50
1, 402389, Control_c, 0, 64, 66
1, 402404, Control_c, 0, 64, 82
1, 402410, Note_off_c, 0, 43, 58
1, 402419, Control_c, 0, 64, 117
1, 402434, Control_c, 0, 64, 127
1, 402438, Note_off_c, 0, 55, 59
1, 402537, Control_c, 0, 64, 91
1, 402552, Control_c, 0, 64, 69
1, 402567, Control_c, 0, 64, 57
1, 402581, Control_c, 0, 64, 47
1, 402590, Note_off_c, 0, 69, 37
1, 402596, Control_c, 0, 64, 44
1, 402608, Note_off_c, 0, 74, 62
1, 402611, Control_c, 0, 64, 47
1, 402618, Note_off_c, 0, 78, 60
1, 402626, Control_c, 0, 64, 54
1, 402628, Note_off_c, 0, 82, 60
1, 402641, Control_c, 0, 64, 63
1, 402645, Note_on_c, 0, 45, 54
1, 402650, Note_on_c, 0, 57, 49
1, 402663, Control_c, 0, 64, 73
1, 402678, Control_c, 0, 64, 85
1, 402693, Control_c, 0, 64, 98
1, 402693, Control_c, 0, 67, 99
1, 402708, Control_c, 0, 64, 106
1, 402708, Control_c, 0, 67, 64
1, 402722, Control_c, 0, 64, 112
1, 402722, Control_c, 0, 67, 0
1, 402734, Note_off_c, 0, 57, 63
1, 402737, Control_c, 0, 64, 119
1, 402739, Note_off_c, 0, 45, 60
1, 402752, Control_c, 0, 64, 127
1, 403000, Note_on_c, 0, 74, 76
1, 403019, Control_c, 0, 64, 95
1, 403022, Note_on_c, 0, 58, 55
1, 403025, Note_on_c, 0, 70, 58
1, 403026, Note_on_c, 0, 46, 54
1, 403034, Control_c, 0, 64, 73
1, 403049, Control_c, 0, 64, 57
1, 403064, Control_c, 0, 64, 41
1, 403079, Control_c, 0, 64, 37
1, 403093, Control_c, 0, 64, 40
1, 403108, Control_c, 0, 64, 49
1, 403123, Control_c, 0, 64, 60
1, 403136, Note_off_c, 0, 46, 60
1, 403138, Control_c, 0, 64, 70
1, 403153, Control_c, 0, 64, 83
1, 403168, Control_c, 0, 64, 119
1, 403183, Control_c, 0, 64, 127
1, 403183, Control_c, 0, 67, 39
1, 403198, Control_c, 0, 67, 47
1, 403212, Control_c, 0, 67, 58
1, 403223, Note_off_c, 0, 58, 55
1, 403227, Control_c, 0, 67, 71
1, 403242, Control_c, 0, 67, 88
1, 403256, Control_c, 0, 67, 107
1, 403271, Control_c, 0, 67, 127
1, 403377, Note_on_c, 0, 55, 50
1, 403398, Note_on_c, 0, 52, 49
1, 403412, Control_c, 0, 64, 91
1, 403427, Control_c, 0, 64, 71
1, 403442, Control_c, 0, 64, 57
1, 403457, Control_c, 0, 64, 43
1, 403471, Control_c, 0, 64, 36
1, 403486, Control_c, 0, 64, 37
1, 403501, Control_c, 0, 64, 44
1, 403516, Control_c, 0, 64, 54
1, 403531, Control_c, 0, 64, 63
1, 403543, Note_off_c, 0, 55, 62
1, 403545, Control_c, 0, 64, 71
1, 403556, Note_off_c, 0, 52, 62
1, 403560, Control_c, 0, 64, 81
1, 403575, Control_c, 0, 64, 92
1, 403590, Control_c, 0, 64, 98
1, 403605, Control_c, 0, 64, 108
1, 403619, Control_c, 0, 64, 127
1, 403814, Note_on_c, 0, 63, 47
1, 403834, Note_on_c, 0, 53, 40
1, 403857, Control_c, 0, 64, 100
1, 403872, Control_c, 0, 64, 83
1, 403886, Control_c, 0, 64, 67
1, 403901, Control_c, 0, 64, 54
1, 403916, Control_c, 0, 64, 37
1, 403929, Note_off_c, 0, 70, 49
1, 403931, Control_c, 0, 64, 0
1, 404020, Control_c, 0, 64, 34
1, 404035, Control_c, 0, 64, 47
1, 404050, Control_c, 0, 64, 57
1, 404065, Control_c, 0, 64, 63
1, 404079, Control_c, 0, 64, 67
1, 404094, Control_c, 0, 64, 69
1, 404109, Control_c, 0, 64, 71
1, 404124, Control_c, 0, 64, 73
1, 404139, Control_c, 0, 64, 75
1, 404161, Control_c, 0, 64, 76
1, 404172, Note_on_c, 0, 71, 51
1, 404175, Control_c, 0, 64, 78
1, 404190, Control_c, 0, 64, 81
1, 404198, Note_on_c, 0, 68, 42
1, 404205, Control_c, 0, 64, 85
1, 404220, Control_c, 0, 64, 89
1, 404234, Control_c, 0, 64, 93
1, 404249, Control_c, 0, 64, 96
1, 404264, Control_c, 0, 64, 98
1, 404279, Control_c, 0, 64, 101
1, 404293, Control_c, 0, 64, 105
1, 404308, Control_c, 0, 64, 108
1, 404323, Control_c, 0, 64, 110
1, 404338, Control_c, 0, 64, 113
1, 404340, Note_off_c, 0, 74, 38
1, 404353, Control_c, 0, 64, 116
1, 404354, Note_off_c, 0, 68, 37
1, 404367, Control_c, 0, 64, 120
1, 404382, Control_c, 0, 64, 127
1, 404492, Note_off_c, 0, 71, 25
1, 404516, Control_c, 0, 64, 120
1, 404527, Note_on_c, 0, 72, 53
1, 404531, Control_c, 0, 64, 102
1, 404546, Note_on_c, 0, 69, 48
1, 404546, Control_c, 0, 64, 84
1, 404561, Control_c, 0, 64, 68
1, 404576, Control_c, 0, 64, 55
1, 404590, Control_c, 0, 64, 37
1, 404605, Control_c, 0, 64, 0
1, 404649, Control_c, 0, 64, 38
1, 404664, Control_c, 0, 64, 52
1, 404679, Control_c, 0, 64, 63
1, 404694, Control_c, 0, 64, 72
1, 404709, Control_c, 0, 64, 82
1, 404724, Control_c, 0, 64, 87
1, 404739, Control_c, 0, 64, 89
1, 404754, Control_c, 0, 64, 90
1, 404778, Note_off_c, 0, 72, 52
1, 404798, Control_c, 0, 64, 89
1, 404813, Control_c, 0, 64, 85
1, 404828, Control_c, 0, 64, 78
1, 404843, Control_c, 0, 64, 69
1, 404857, Control_c, 0, 64, 60
1, 404868, Note_on_c, 0, 74, 56
1, 404872, Control_c, 0, 64, 48
1, 404887, Control_c, 0, 64, 40
1, 404894, Note_on_c, 0, 71, 40
1, 404909, Control_c, 0, 64, 39
1, 404924, Control_c, 0, 64, 43
1, 404939, Control_c, 0, 64, 51
1, 404953, Control_c, 0, 64, 59
1, 404968, Control_c, 0, 64, 66
1, 404983, Control_c, 0, 64, 72
1, 404994, Note_off_c, 0, 69, 36
1, 404998, Control_c, 0, 64, 78
1, 405013, Control_c, 0, 64, 83
1, 405019, Note_off_c, 0, 71, 57
1, 405019, Note_off_c, 0, 74, 60
1, 405028, Control_c, 0, 64, 86
1, 405028, Control_c, 0, 67, 113
1, 405042, Control_c, 0, 64, 90
1, 405042, Control_c, 0, 67, 84
1, 405057, Control_c, 0, 64, 94
1, 405057, Control_c, 0, 67, 55
1, 405072, Control_c, 0, 64, 100
1, 405072, Control_c, 0, 67, 0
1, 405087, Control_c, 0, 64, 107
1, 405102, Control_c, 0, 64, 115
1, 405116, Control_c, 0, 64, 127
1, 405260, Note_on_c, 0, 75, 70
1, 405264, Control_c, 0, 64, 114
1, 405280, Control_c, 0, 64, 97
1, 405295, Control_c, 0, 64, 82
1, 405310, Control_c, 0, 64, 67
1, 405313, Note_on_c, 0, 72, 47
1, 405325, Control_c, 0, 64, 57
1, 405339, Control_c, 0, 64, 49
1, 405354, Control_c, 0, 64, 47
1, 405369, Control_c, 0, 64, 49
1, 405384, Control_c, 0, 64, 55
1, 405399, Control_c, 0, 64, 61
1, 405408, Note_off_c, 0, 53, 59
1, 405413, Control_c, 0, 64, 67
1, 405428, Control_c, 0, 64, 74
1, 405443, Control_c, 0, 64, 81
1, 405458, Control_c, 0, 64, 88
1, 405473, Control_c, 0, 64, 95
1, 405487, Control_c, 0, 64, 103
1, 405502, Control_c, 0, 64, 114
1, 405517, Control_c, 0, 64, 127
1, 405532, Control_c, 0, 67, 58
1, 405547, Control_c, 0, 67, 89
1, 405562, Control_c, 0, 67, 121
1, 405576, Control_c, 0, 67, 127
1, 405603, Note_on_c, 0, 57, 46
1, 405609, Note_on_c, 0, 54, 49
1, 405621, Control_c, 0, 64, 101
1, 405636, Control_c, 0, 64, 84
1, 405657, Control_c, 0, 64, 76
1, 405672, Control_c, 0, 64, 73
1, 405695, Note_off_c, 0, 63, 39
1, 405702, Control_c, 0, 64, 74
1, 405717, Control_c, 0, 64, 78
1, 405731, Note_off_c, 0, 57, 59
1, 405731, Control_c, 0, 64, 87
1, 405746, Control_c, 0, 64, 97
1, 405761, Control_c, 0, 64, 110
1, 405776, Control_c, 0, 64, 127
1, 405784, Note_off_c, 0, 54, 55
1, 405999, Control_c, 0, 64, 114
1, 406011, Note_on_c, 0, 65, 49
1, 406013, Control_c, 0, 64, 92
1, 406028, Control_c, 0, 64, 76
1, 406043, Control_c, 0, 64, 63
1, 406048, Note_on_c, 0, 55, 41
1, 406057, Control_c, 0, 64, 49
1, 406072, Control_c, 0, 64, 0
1, 406148, Control_c, 0, 64, 34
1, 406162, Control_c, 0, 64, 48
1, 406177, Control_c, 0, 64, 60
1, 406178, Note_off_c, 0, 72, 59
1, 406192, Control_c, 0, 64, 67
1, 406207, Control_c, 0, 64, 72
1, 406222, Control_c, 0, 64, 76
1, 406236, Control_c, 0, 64, 79
1, 406251, Control_c, 0, 64, 80
1, 406266, Control_c, 0, 64, 81
1, 406280, Control_c, 0, 64, 82
1, 406295, Control_c, 0, 64, 82
1, 406354, Control_c, 0, 64, 83
1, 406390, Note_on_c, 0, 73, 51
1, 406426, Note_on_c, 0, 70, 50
1, 406450, Control_c, 0, 64, 83
1, 406480, Control_c, 0, 64, 84
1, 406484, Note_off_c, 0, 75, 64
1, 406495, Control_c, 0, 64, 85
1, 406509, Control_c, 0, 64, 85
1, 406524, Control_c, 0, 64, 86
1, 406554, Control_c, 0, 64, 86
1, 406624, Note_off_c, 0, 70, 30
1, 406628, Control_c, 0, 64, 86
1, 406643, Control_c, 0, 64, 85
1, 406658, Control_c, 0, 64, 80
1, 406672, Control_c, 0, 64, 73
1, 406687, Control_c, 0, 64, 67
1, 406702, Control_c, 0, 64, 63
1, 406717, Control_c, 0, 64, 62
1, 406732, Control_c, 0, 64, 62
1, 406736, Note_on_c, 0, 74, 57
1, 406746, Control_c, 0, 64, 64
1, 406758, Note_on_c, 0, 71, 50
1, 406761, Control_c, 0, 64, 67
1, 406776, Control_c, 0, 64, 70
1, 406791, Control_c, 0, 64, 74
1, 406805, Control_c, 0, 64, 77
1, 406820, Control_c, 0, 64, 80
1, 406832, Note_off_c, 0, 73, 56
1, 406835, Control_c, 0, 64, 83
1, 406846, Note_off_c, 0, 65, 56
1, 406850, Control_c, 0, 64, 85
1, 406865, Control_c, 0, 64, 88
1, 406881, Control_c, 0, 64, 92
1, 406896, Control_c, 0, 64, 96
1, 406910, Control_c, 0, 64, 101
1, 406910, Control_c, 0, 67, 110
1, 406925, Control_c, 0, 64, 106
1, 406925, Control_c, 0, 67, 89
1, 406940, Control_c, 0, 64, 115
1, 406940, Control_c, 0, 67, 71
1, 406955, Control_c, 0, 64, 127
1, 406955, Control_c, 0, 67, 57
1, 406970, Control_c, 0, 67, 47
1, 406984, Control_c, 0, 67, 37
1, 406999, Control_c, 0, 67, 0
1, 407081, Note_on_c, 0, 76, 56
1, 407083, Note_on_c, 0, 73, 46
1, 407109, Note_off_c, 0, 55, 60
1, 407138, Note_off_c, 0, 74, 56
1, 407319, Note_off_c, 0, 73, 38
1, 407442, Note_on_c, 0, 53, 72
1, 407451, Control_c, 0, 64, 106
1, 407454, Note_on_c, 0, 50, 58
1, 407455, Note_on_c, 0, 77, 47
1, 407466, Control_c, 0, 64, 92
1, 407481, Control_c, 0, 64, 81
1, 407489, Note_off_c, 0, 71, 34
1, 407496, Control_c, 0, 64, 71
1, 407501, Note_off_c, 0, 76, 55
1, 407510, Control_c, 0, 64, 63
1, 407525, Control_c, 0, 64, 56
1, 407540, Control_c, 0, 64, 51
1, 407555, Control_c, 0, 64, 47
1, 407569, Control_c, 0, 64, 44
1, 407584, Control_c, 0, 64, 42
1, 407599, Control_c, 0, 64, 41
1, 407614, Control_c, 0, 64, 40
1, 407628, Control_c, 0, 64, 40
1, 407643, Control_c, 0, 64, 39
1, 407658, Control_c, 0, 64, 39
1, 407704, Control_c, 0, 64, 38
1, 407719, Control_c, 0, 64, 37
1, 407733, Control_c, 0, 64, 36
1, 407748, Control_c, 0, 64, 35
1, 407763, Control_c, 0, 64, 33
1, 407793, Control_c, 0, 64, 30
1, 407807, Control_c, 0, 64, 0
1, 407814, Note_on_c, 0, 71, 56
1, 407833, Note_on_c, 0, 67, 46
1, 407844, Note_off_c, 0, 77, 30
1, 407979, Control_c, 0, 67, 36
1, 407994, Control_c, 0, 67, 47
1, 408008, Control_c, 0, 67, 55
1, 408023, Control_c, 0, 67, 64
1, 408038, Control_c, 0, 67, 75
1, 408052, Control_c, 0, 67, 88
1, 408067, Control_c, 0, 67, 101
1, 408082, Control_c, 0, 67, 114
1, 408097, Control_c, 0, 67, 127
1, 408176, Note_on_c, 0, 79, 62
1, 408206, Note_on_c, 0, 75, 44
1, 408319, Note_off_c, 0, 50, 55
1, 408393, Control_c, 0, 64, 30
1, 408423, Control_c, 0, 64, 32
1, 408468, Control_c, 0, 64, 32
1, 408513, Control_c, 0, 64, 32
1, 408523, Note_on_c, 0, 50, 45
1, 408530, Note_on_c, 0, 47, 40
1, 408556, Note_off_c, 0, 67, 45
1, 408585, Note_off_c, 0, 71, 53
1, 408587, Control_c, 0, 64, 29
1, 408616, Control_c, 0, 64, 0
1, 408619, Note_off_c, 0, 53, 51
1, 408873, Note_on_c, 0, 51, 40
1, 408896, Note_on_c, 0, 48, 48
1, 408906, Note_off_c, 0, 50, 37
1, 408933, Note_off_c, 0, 47, 50
1, 409219, Note_on_c, 0, 53, 45
1, 409243, Note_on_c, 0, 50, 43
1, 409260, Note_off_c, 0, 48, 55
1, 409276, Control_c, 0, 64, 41
1, 409282, Note_off_c, 0, 51, 42
1, 409291, Control_c, 0, 64, 57
1, 409291, Control_c, 0, 67, 118
1, 409306, Control_c, 0, 64, 64
1, 409306, Control_c, 0, 67, 109
1, 409320, Control_c, 0, 64, 69
1, 409320, Control_c, 0, 67, 88
1, 409335, Control_c, 0, 64, 74
1, 409335, Control_c, 0, 67, 49
1, 409350, Control_c, 0, 64, 79
1, 409350, Control_c, 0, 67, 0
1, 409356, Note_off_c, 0, 53, 58
1, 409365, Control_c, 0, 64, 84
1, 409380, Control_c, 0, 64, 90
1, 409402, Control_c, 0, 64, 97
1, 409417, Control_c, 0, 64, 107
1, 409432, Control_c, 0, 64, 127
1, 409522, Note_off_c, 0, 50, 37
1, 409589, Note_on_c, 0, 55, 72
1, 409615, Note_on_c, 0, 51, 49
1, 409632, Note_off_c, 0, 79, 61
1, 409718, Note_off_c, 0, 75, 52
1, 409802, Control_c, 0, 64, 105
1, 409817, Control_c, 0, 64, 96
1, 409831, Control_c, 0, 64, 87
1, 409846, Control_c, 0, 64, 79
1, 409861, Control_c, 0, 64, 70
1, 409876, Control_c, 0, 64, 61
1, 409891, Control_c, 0, 64, 53
1, 409905, Control_c, 0, 64, 46
1, 409920, Control_c, 0, 64, 39
1, 409935, Control_c, 0, 64, 30
1, 409937, Note_on_c, 0, 72, 68
1, 409950, Control_c, 0, 64, 0
1, 409976, Note_on_c, 0, 68, 47
1, 410054, Control_c, 0, 64, 35
1, 410069, Control_c, 0, 64, 47
1, 410084, Control_c, 0, 64, 55
1, 410099, Control_c, 0, 64, 60
1, 410114, Control_c, 0, 64, 63
1, 410128, Control_c, 0, 64, 64
1, 410151, Control_c, 0, 64, 65
1, 410166, Control_c, 0, 64, 65
1, 410181, Control_c, 0, 64, 67
1, 410195, Control_c, 0, 64, 68
1, 410209, Control_c, 0, 64, 69
1, 410224, Control_c, 0, 64, 70
1, 410239, Control_c, 0, 64, 71
1, 410253, Control_c, 0, 64, 73
1, 410268, Control_c, 0, 64, 74
1, 410283, Control_c, 0, 64, 74
1, 410298, Control_c, 0, 64, 75
1, 410313, Control_c, 0, 64, 77
1, 410328, Control_c, 0, 64, 79
1, 410331, Note_on_c, 0, 80, 83
1, 410343, Control_c, 0, 64, 81
1, 410353, Note_on_c, 0, 77, 63
1, 410358, Control_c, 0, 64, 83
1, 410373, Control_c, 0, 64, 85
1, 410388, Control_c, 0, 64, 89
1, 410402, Control_c, 0, 64, 93
1, 410417, Control_c, 0, 64, 100
1, 410432, Control_c, 0, 64, 109
1, 410446, Control_c, 0, 64, 127
1, 410478, Note_off_c, 0, 51, 61
1, 410683, Control_c, 0, 64, 97
1, 410694, Note_on_c, 0, 52, 51
1, 410698, Control_c, 0, 64, 79
1, 410712, Note_on_c, 0, 49, 46
1, 410713, Control_c, 0, 64, 63
1, 410727, Control_c, 0, 64, 46
1, 410742, Control_c, 0, 64, 0
1, 410766, Note_off_c, 0, 55, 33
1, 410817, Control_c, 0, 64, 36
1, 410832, Control_c, 0, 64, 53
1, 410846, Control_c, 0, 64, 65
1, 410861, Control_c, 0, 64, 75
1, 410876, Control_c, 0, 64, 85
1, 410899, Control_c, 0, 64, 94
1, 410914, Control_c, 0, 64, 102
1, 410929, Control_c, 0, 64, 124
1, 410945, Control_c, 0, 64, 127
1, 410965, Note_off_c, 0, 49, 59
1, 411039, Note_on_c, 0, 53, 65
1, 411052, Note_on_c, 0, 50, 59
1, 411063, Control_c, 0, 64, 93
1, 411077, Control_c, 0, 64, 75
1, 411085, Note_off_c, 0, 52, 46
1, 411092, Control_c, 0, 64, 62
1, 411107, Control_c, 0, 64, 49
1, 411122, Control_c, 0, 64, 44
1, 411137, Control_c, 0, 64, 48
1, 411151, Control_c, 0, 64, 57
1, 411166, Control_c, 0, 64, 67
1, 411181, Control_c, 0, 64, 80
1, 411196, Control_c, 0, 64, 100
1, 411211, Control_c, 0, 64, 127
1, 411285, Control_c, 0, 64, 115
1, 411300, Control_c, 0, 64, 96
1, 411315, Control_c, 0, 64, 82
1, 411320, Note_off_c, 0, 53, 37
1, 411330, Control_c, 0, 64, 67
1, 411344, Control_c, 0, 64, 54
1, 411359, Control_c, 0, 64, 39
1, 411371, Note_on_c, 0, 55, 61
1, 411374, Control_c, 0, 64, 0
1, 411377, Note_on_c, 0, 52, 58
1, 411388, Note_off_c, 0, 50, 53
1, 411403, Control_c, 0, 64, 34
1, 411418, Control_c, 0, 64, 47
1, 411433, Control_c, 0, 64, 61
1, 411448, Control_c, 0, 64, 69
1, 411463, Control_c, 0, 64, 77
1, 411477, Control_c, 0, 64, 84
1, 411485, Note_off_c, 0, 55, 61
1, 411486, Note_off_c, 0, 52, 62
1, 411492, Control_c, 0, 64, 87
1, 411507, Control_c, 0, 64, 90
1, 411522, Control_c, 0, 64, 94
1, 411537, Control_c, 0, 64, 102
1, 411551, Control_c, 0, 64, 112
1, 411566, Control_c, 0, 64, 127
1, 411775, Note_on_c, 0, 56, 81
1, 411788, Note_on_c, 0, 53, 67
1, 411812, Control_c, 0, 64, 101
1, 411826, Control_c, 0, 64, 78
1, 411841, Control_c, 0, 64, 60
1, 411845, Note_off_c, 0, 68, 48
1, 411856, Control_c, 0, 64, 39
1, 411870, Note_off_c, 0, 72, 53
1, 411871, Control_c, 0, 64, 0
1, 411937, Note_off_c, 0, 77, 61
1, 411945, Control_c, 0, 64, 39
1, 411947, Note_off_c, 0, 80, 53
1, 411960, Control_c, 0, 64, 56
1, 411974, Control_c, 0, 64, 67
1, 411989, Control_c, 0, 64, 75
1, 412004, Control_c, 0, 64, 82
1, 412018, Control_c, 0, 64, 88
1, 412033, Control_c, 0, 64, 96
1, 412048, Control_c, 0, 64, 115
1, 412063, Control_c, 0, 64, 127
1, 412150, Note_on_c, 0, 74, 70
1, 412152, Control_c, 0, 64, 101
1, 412167, Control_c, 0, 64, 81
1, 412181, Note_on_c, 0, 70, 56
1, 412182, Control_c, 0, 64, 68
1, 412197, Control_c, 0, 64, 58
1, 412211, Control_c, 0, 64, 52
1, 412226, Control_c, 0, 64, 52
1, 412241, Control_c, 0, 64, 55
1, 412256, Control_c, 0, 64, 61
1, 412271, Control_c, 0, 64, 66
1, 412285, Control_c, 0, 64, 72
1, 412300, Control_c, 0, 64, 79
1, 412315, Control_c, 0, 64, 86
1, 412330, Control_c, 0, 64, 93
1, 412345, Control_c, 0, 64, 105
1, 412359, Control_c, 0, 64, 127
1, 412539, Note_on_c, 0, 82, 83
1, 412562, Note_on_c, 0, 79, 58
1, 412638, Note_off_c, 0, 53, 60
1, 412734, Note_off_c, 0, 56, 58
1, 412869, Note_on_c, 0, 54, 62
1, 412883, Note_on_c, 0, 51, 61
1, 412915, Control_c, 0, 64, 97
1, 412930, Control_c, 0, 64, 72
1, 412945, Control_c, 0, 64, 54
1, 412960, Control_c, 0, 64, 0
1, 413020, Control_c, 0, 64, 29
1, 413035, Control_c, 0, 64, 50
1, 413049, Control_c, 0, 64, 67
1, 413064, Control_c, 0, 64, 90
1, 413079, Control_c, 0, 64, 127
1, 413128, Note_off_c, 0, 54, 56
1, 413205, Control_c, 0, 64, 97
1, 413214, Note_on_c, 0, 55, 67
1, 413219, Control_c, 0, 64, 78
1, 413224, Note_on_c, 0, 52, 63
1, 413234, Control_c, 0, 64, 62
1, 413249, Control_c, 0, 64, 38
1, 413264, Control_c, 0, 64, 0
1, 413309, Control_c, 0, 64, 34
1, 413324, Control_c, 0, 64, 56
1, 413339, Control_c, 0, 64, 74
1, 413354, Control_c, 0, 64, 119
1, 413369, Control_c, 0, 64, 127
1, 413374, Note_off_c, 0, 51, 26
1, 413458, Control_c, 0, 64, 83
1, 413472, Control_c, 0, 64, 61
1, 413487, Control_c, 0, 64, 46
1, 413502, Control_c, 0, 64, 39
1, 413508, Note_off_c, 0, 70, 57
1, 413517, Control_c, 0, 64, 41
1, 413526, Note_off_c, 0, 74, 59
1, 413532, Control_c, 0, 64, 52
1, 413546, Control_c, 0, 64, 65
1, 413550, Note_on_c, 0, 57, 76
1, 413559, Note_on_c, 0, 54, 69
1, 413561, Control_c, 0, 64, 80
1, 413562, Note_off_c, 0, 79, 58
1, 413576, Control_c, 0, 64, 127
1, 413590, Note_off_c, 0, 82, 60
1, 413618, Note_off_c, 0, 55, 33
1, 413636, Note_off_c, 0, 52, 60
1, 413661, Note_off_c, 0, 57, 61
1, 413757, Note_off_c, 0, 54, 53
1, 413881, Note_on_c, 0, 82, 96
1, 413894, Control_c, 0, 64, 96
1, 413895, Note_on_c, 0, 79, 72
1, 413898, Note_on_c, 0, 55, 71
1, 413898, Note_on_c, 0, 58, 78
1, 413909, Control_c, 0, 64, 70
1, 413924, Control_c, 0, 64, 52
1, 413939, Control_c, 0, 64, 0
1, 413998, Control_c, 0, 64, 48
1, 414012, Control_c, 0, 64, 63
1, 414027, Control_c, 0, 64, 76
1, 414042, Control_c, 0, 64, 105
1, 414057, Control_c, 0, 64, 127
1, 414060, Note_off_c, 0, 55, 58
1, 414074, Note_off_c, 0, 58, 61
1, 414213, Note_on_c, 0, 48, 79
1, 414215, Note_on_c, 0, 52, 74
1, 414236, Control_c, 0, 64, 90
1, 414251, Control_c, 0, 64, 69
1, 414266, Control_c, 0, 64, 53
1, 414281, Control_c, 0, 64, 34
1, 414295, Control_c, 0, 64, 0
1, 414310, Control_c, 0, 64, 29
1, 414325, Control_c, 0, 64, 41
1, 414340, Control_c, 0, 64, 55
1, 414355, Control_c, 0, 64, 65
1, 414369, Control_c, 0, 64, 74
1, 414384, Control_c, 0, 64, 88
1, 414399, Control_c, 0, 64, 127
1, 414419, Note_off_c, 0, 48, 55
1, 414434, Note_off_c, 0, 52, 60
1, 414626, Note_on_c, 0, 60, 80
1, 414650, Note_on_c, 0, 57, 65
1, 414673, Control_c, 0, 64, 87
1, 414688, Control_c, 0, 64, 66
1, 414702, Control_c, 0, 64, 41
1, 414717, Control_c, 0, 64, 0
1, 414727, Note_off_c, 0, 79, 52
1, 414835, Control_c, 0, 64, 41
1, 414850, Control_c, 0, 64, 57
1, 414866, Control_c, 0, 64, 67
1, 414881, Control_c, 0, 64, 75
1, 414896, Control_c, 0, 64, 84
1, 414910, Control_c, 0, 64, 91
1, 414925, Control_c, 0, 64, 98
1, 414940, Control_c, 0, 64, 108
1, 414955, Control_c, 0, 64, 127
1, 415008, Note_on_c, 0, 80, 65
1, 415019, Note_on_c, 0, 76, 46
1, 415131, Note_off_c, 0, 76, 59
1, 415210, Note_off_c, 0, 82, 55
1, 415334, Note_on_c, 0, 81, 75
1, 415354, Note_on_c, 0, 78, 61
1, 415500, Note_off_c, 0, 78, 37
1, 415506, Poly_aftertouch_c, 0, 54, 127
1, 415512, Note_off_c, 0, 81, 56
1, 415524, Note_off_c, 0, 80, 12
1, 415664, Note_on_c, 0, 83, 81
1, 415671, Note_on_c, 0, 80, 72
1, 415715, Note_off_c, 0, 80, 61
1, 415723, Note_off_c, 0, 83, 65
1, 415795, Poly_aftertouch_c, 0, 54, 0
1, 416003, Note_on_c, 0, 84, 93
1, 416023, Note_on_c, 0, 81, 65
1, 416165, Note_off_c, 0, 57, 58
1, 416208, Note_off_c, 0, 60, 56
1, 416330, Note_on_c, 0, 54, 75
1, 416340, Note_on_c, 0, 50, 72
1, 416378, Control_c, 0, 64, 81
1, 416392, Control_c, 0, 64, 66
1, 416407, Control_c, 0, 64, 60
1, 416422, Control_c, 0, 64, 61
1, 416437, Control_c, 0, 64, 64
1, 416452, Control_c, 0, 64, 67
1, 416468, Control_c, 0, 64, 74
1, 416483, Control_c, 0, 64, 87
1, 416497, Control_c, 0, 64, 118
1, 416512, Control_c, 0, 64, 127
1, 416604, Note_off_c, 0, 50, 61
1, 416739, Note_on_c, 0, 62, 82
1, 416740, Note_off_c, 0, 81, 54
1, 416755, Note_on_c, 0, 58, 71
1, 416823, Control_c, 0, 64, 86
1, 416838, Control_c, 0, 64, 60
1, 416843, Note_off_c, 0, 54, 55
1, 416853, Control_c, 0, 64, 0
1, 416949, Control_c, 0, 64, 31
1, 416964, Control_c, 0, 64, 49
1, 416978, Control_c, 0, 64, 62
1, 416993, Control_c, 0, 64, 70
1, 417008, Control_c, 0, 64, 78
1, 417023, Control_c, 0, 64, 85
1, 417038, Control_c, 0, 64, 93
1, 417053, Control_c, 0, 64, 111
1, 417068, Control_c, 0, 64, 127
1, 417095, Note_on_c, 0, 81, 73
1, 417125, Note_on_c, 0, 78, 55
1, 417211, Note_off_c, 0, 84, 58
1, 417273, Note_off_c, 0, 78, 48
1, 417412, Note_off_c, 0, 81, 0
1, 417420, Note_on_c, 0, 82, 81
1, 417430, Note_on_c, 0, 81, 29
1, 417441, Note_on_c, 0, 79, 66
1, 417497, Note_off_c, 0, 81, 61
1, 417652, Note_off_c, 0, 79, 55
1, 417746, Note_on_c, 0, 84, 85
1, 417759, Note_on_c, 0, 81, 71
1, 417783, Note_off_c, 0, 82, 59
1, 417801, Note_off_c, 0, 81, 59
1, 417822, Note_off_c, 0, 84, 65
1, 418086, Note_on_c, 0, 86, 99
1, 418101, Note_on_c, 0, 82, 77
1, 418172, Control_c, 0, 64, 96
1, 418187, Control_c, 0, 64, 80
1, 418202, Control_c, 0, 64, 74
1, 418216, Control_c, 0, 64, 73
1, 418231, Control_c, 0, 64, 74
1, 418246, Control_c, 0, 64, 80
1, 418260, Control_c, 0, 64, 105
1, 418275, Control_c, 0, 64, 127
1, 418295, Note_off_c, 0, 62, 57
1, 418296, Note_off_c, 0, 58, 60
1, 418414, Note_on_c, 0, 55, 80
1, 418424, Note_on_c, 0, 51, 81
1, 418621, Note_off_c, 0, 55, 50
1, 418645, Note_off_c, 0, 51, 57
1, 418838, Note_on_c, 0, 63, 95
1, 418840, Note_on_c, 0, 60, 79
1, 418857, Note_off_c, 0, 82, 53
1, 418876, Control_c, 0, 64, 106
1, 418891, Control_c, 0, 64, 69
1, 418906, Control_c, 0, 64, 44
1, 418921, Control_c, 0, 64, 0
1, 418980, Control_c, 0, 64, 34
1, 418995, Control_c, 0, 64, 51
1, 419009, Control_c, 0, 64, 64
1, 419024, Control_c, 0, 64, 75
1, 419039, Control_c, 0, 64, 93
1, 419054, Control_c, 0, 64, 127
1, 419274, Note_on_c, 0, 83, 91
1, 419289, Note_on_c, 0, 80, 79
1, 419354, Note_off_c, 0, 86, 54
1, 419426, Note_off_c, 0, 80, 43
1, 419596, Note_off_c, 0, 63, 55
1, 419666, Note_on_c, 0, 84, 98
1, 419684, Note_on_c, 0, 81, 78
1, 419730, Note_off_c, 0, 83, 55
1, 420007, Note_on_c, 0, 86, 97
1, 420023, Note_on_c, 0, 62, 86
1, 420026, Note_on_c, 0, 58, 83
1, 420034, Note_on_c, 0, 82, 73
1, 420062, Control_c, 0, 64, 77
1, 420077, Control_c, 0, 64, 55
1, 420092, Control_c, 0, 64, 39
1, 420095, Note_off_c, 0, 60, 60
1, 420106, Control_c, 0, 64, 41
1, 420121, Control_c, 0, 64, 51
1, 420136, Control_c, 0, 64, 63
1, 420151, Control_c, 0, 64, 75
1, 420165, Control_c, 0, 64, 97
1, 420180, Control_c, 0, 64, 127
1, 420195, Note_off_c, 0, 81, 34
1, 420252, Note_off_c, 0, 84, 23
1, 420326, Note_off_c, 0, 58, 55
1, 420368, Note_off_c, 0, 62, 56
1, 420406, Note_on_c, 0, 87, 95
1, 420408, Note_off_c, 0, 86, 65
1, 420413, Note_on_c, 0, 60, 87
1, 420413, Note_on_c, 0, 84, 88
1, 420416, Note_on_c, 0, 57, 87
1, 420418, Control_c, 0, 64, 104
1, 420432, Control_c, 0, 64, 68
1, 420447, Control_c, 0, 64, 40
1, 420452, Note_off_c, 0, 82, 54
1, 420463, Control_c, 0, 64, 0
1, 420522, Control_c, 0, 64, 38
1, 420537, Control_c, 0, 64, 57
1, 420552, Control_c, 0, 64, 71
1, 420567, Control_c, 0, 64, 92
1, 420581, Control_c, 0, 64, 127
1, 420640, Note_off_c, 0, 57, 50
1, 420712, Note_off_c, 0, 84, 31
1, 420747, Note_off_c, 0, 60, 56
1, 420779, Note_off_c, 0, 87, 54
1, 420861, Note_on_c, 0, 58, 88
1, 420863, Note_on_c, 0, 87, 97
1, 420868, Note_on_c, 0, 54, 83
1, 420871, Note_on_c, 0, 84, 83
1, 420885, Control_c, 0, 64, 81
1, 420900, Control_c, 0, 64, 59
1, 420915, Control_c, 0, 64, 37
1, 420929, Control_c, 0, 64, 0
1, 420944, Control_c, 0, 64, 32
1, 420959, Control_c, 0, 64, 43
1, 420974, Control_c, 0, 64, 56
1, 420988, Control_c, 0, 64, 65
1, 421003, Control_c, 0, 64, 74
1, 421009, Note_off_c, 0, 84, 46
1, 421018, Control_c, 0, 64, 86
1, 421033, Control_c, 0, 64, 105
1, 421048, Control_c, 0, 64, 127
1, 421107, Note_off_c, 0, 58, 45
1, 421230, Note_off_c, 0, 54, 36
1, 421239, Note_off_c, 0, 87, 48
1, 421470, Note_on_c, 0, 87, 93
1, 421477, Note_on_c, 0, 84, 86
1, 421479, Note_on_c, 0, 63, 90
1, 421486, Note_on_c, 0, 60, 79
1, 421491, Note_on_c, 0, 53, 72
1, 421491, Note_on_c, 0, 57, 71
1, 421560, Control_c, 0, 64, 89
1, 421575, Control_c, 0, 64, 70
1, 421590, Control_c, 0, 64, 58
1, 421604, Control_c, 0, 64, 45
1, 421619, Control_c, 0, 64, 0
1, 422094, Control_c, 0, 64, 35
1, 422109, Control_c, 0, 64, 39
1, 422131, Control_c, 0, 64, 42
1, 422133, Note_off_c, 0, 84, 44
1, 422146, Control_c, 0, 64, 43
1, 422161, Control_c, 0, 64, 45
1, 422176, Control_c, 0, 64, 47
1, 422190, Control_c, 0, 64, 50
1, 422205, Control_c, 0, 64, 51
1, 422234, Control_c, 0, 64, 52
1, 422264, Control_c, 0, 64, 52
1, 422294, Control_c, 0, 64, 53
1, 422323, Control_c, 0, 64, 53
1, 422323, Control_c, 0, 67, 47
1, 422338, Control_c, 0, 67, 76
1, 422353, Control_c, 0, 67, 109
1, 422368, Control_c, 0, 67, 127
1, 422398, Control_c, 0, 64, 53
1, 422501, Control_c, 0, 64, 53
1, 422516, Control_c, 0, 64, 54
1, 422531, Control_c, 0, 64, 55
1, 422546, Control_c, 0, 64, 57
1, 422560, Control_c, 0, 64, 59
1, 422575, Control_c, 0, 64, 61
1, 422590, Control_c, 0, 64, 63
1, 422591, Note_on_c, 0, 84, 46
1, 422605, Control_c, 0, 64, 64
1, 422613, Note_off_c, 0, 87, 48
1, 422619, Control_c, 0, 64, 66
1, 422634, Control_c, 0, 64, 69
1, 422649, Control_c, 0, 64, 72
1, 422664, Control_c, 0, 64, 76
1, 422679, Control_c, 0, 64, 80
1, 422694, Control_c, 0, 64, 86
1, 422708, Control_c, 0, 64, 92
1, 422723, Control_c, 0, 64, 99
1, 422732, Note_off_c, 0, 84, 60
1, 422734, Note_on_c, 0, 81, 56
1, 422738, Control_c, 0, 64, 109
1, 422752, Control_c, 0, 64, 127
1, 422808, Note_off_c, 0, 81, 61
1, 422861, Note_on_c, 0, 77, 59
1, 422866, Note_off_c, 0, 63, 53
1, 422928, Note_off_c, 0, 77, 63
1, 422981, Note_on_c, 0, 75, 60
1, 422997, Note_off_c, 0, 60, 39
1, 423004, Note_off_c, 0, 57, 33
1, 423017, Note_off_c, 0, 53, 34
1, 423079, Note_off_c, 0, 75, 61
1, 423092, Note_on_c, 0, 72, 58
1, 423170, Note_off_c, 0, 72, 61
1, 423194, Note_on_c, 0, 69, 52
1, 423239, Note_off_c, 0, 69, 57
1, 423250, Control_c, 0, 64, 119
1, 423265, Control_c, 0, 64, 113
1, 423280, Control_c, 0, 64, 108
1, 423287, Note_on_c, 0, 65, 56
1, 423295, Control_c, 0, 64, 104
1, 423310, Control_c, 0, 64, 101
1, 423324, Control_c, 0, 64, 98
1, 423339, Control_c, 0, 64, 96
1, 423347, Note_off_c, 0, 65, 60
1, 423354, Control_c, 0, 64, 95
1, 423369, Control_c, 0, 64, 92
1, 423383, Control_c, 0, 64, 90
1, 423398, Control_c, 0, 64, 87
1, 423403, Note_on_c, 0, 63, 56
1, 423413, Control_c, 0, 64, 84
1, 423428, Control_c, 0, 64, 82
1, 423442, Control_c, 0, 64, 80
1, 423457, Control_c, 0, 64, 78
1, 423472, Control_c, 0, 64, 75
1, 423487, Control_c, 0, 64, 72
1, 423501, Control_c, 0, 64, 68
1, 423502, Note_off_c, 0, 63, 59
1, 423513, Note_on_c, 0, 60, 50
1, 423516, Control_c, 0, 64, 65
1, 423531, Control_c, 0, 64, 63
1, 423546, Control_c, 0, 64, 63
1, 423575, Control_c, 0, 64, 62
1, 423601, Note_on_c, 0, 57, 41
1, 423605, Note_off_c, 0, 60, 60
1, 423756, Note_on_c, 0, 53, 30
1, 423792, Control_c, 0, 64, 62
1, 423795, Note_off_c, 0, 57, 37
1, 423836, Control_c, 0, 64, 61
1, 423851, Control_c, 0, 64, 61
1, 423880, Control_c, 0, 64, 60
1, 423895, Control_c, 0, 64, 60
1, 423909, Note_on_c, 0, 29, 40
1, 423910, Control_c, 0, 64, 59
1, 423924, Control_c, 0, 64, 59
1, 423939, Control_c, 0, 64, 58
1, 423946, Note_off_c, 0, 53, 38
1, 423954, Control_c, 0, 64, 58
1, 423969, Control_c, 0, 64, 57
1, 424073, Control_c, 0, 64, 58
1, 424088, Control_c, 0, 64, 59
1, 424103, Control_c, 0, 64, 60
1, 424118, Control_c, 0, 64, 61
1, 424132, Control_c, 0, 64, 63
1, 424147, Control_c, 0, 64, 64
1, 424162, Control_c, 0, 64, 66
1, 424177, Control_c, 0, 64, 68
1, 424182, Note_off_c, 0, 29, 37
1, 424192, Control_c, 0, 64, 72
1, 424206, Control_c, 0, 64, 75
1, 424221, Control_c, 0, 64, 78
1, 424236, Control_c, 0, 64, 81
1, 424251, Control_c, 0, 64, 83
1, 424266, Control_c, 0, 64, 85
1, 424280, Control_c, 0, 64, 87
1, 424295, Control_c, 0, 64, 88
1, 424310, Control_c, 0, 64, 89
1, 424324, Control_c, 0, 64, 90
1, 424511, Control_c, 0, 64, 89
1, 424541, Control_c, 0, 64, 89
1, 424556, Control_c, 0, 64, 88
1, 424571, Control_c, 0, 64, 87
1, 424586, Control_c, 0, 64, 86
1, 424601, Control_c, 0, 64, 85
1, 424615, Control_c, 0, 64, 83
1, 424630, Control_c, 0, 64, 82
1, 424645, Control_c, 0, 64, 80
1, 424660, Control_c, 0, 64, 78
1, 424675, Control_c, 0, 64, 76
1, 424690, Control_c, 0, 64, 73
1, 424704, Control_c, 0, 64, 70
1, 424719, Control_c, 0, 64, 67
1, 424734, Control_c, 0, 64, 64
1, 424748, Control_c, 0, 64, 63
1, 424763, Control_c, 0, 64, 62
1, 424778, Control_c, 0, 64, 61
1, 424793, Control_c, 0, 64, 61
1, 424822, Control_c, 0, 64, 60
1, 424852, Control_c, 0, 64, 59
1, 424867, Control_c, 0, 64, 59
1, 424882, Control_c, 0, 64, 58
1, 424896, Control_c, 0, 64, 58
1, 424911, Control_c, 0, 64, 57
1, 424926, Control_c, 0, 64, 57
1, 424941, Control_c, 0, 64, 56
1, 424955, Control_c, 0, 64, 55
1, 424970, Control_c, 0, 64, 55
1, 424985, Control_c, 0, 64, 54
1, 425015, Control_c, 0, 64, 54
1, 425030, Control_c, 0, 64, 53
1, 425060, Control_c, 0, 64, 53
1, 425089, Control_c, 0, 64, 52
1, 425155, Control_c, 0, 64, 52
1, 425274, Control_c, 0, 64, 51
1, 425319, Control_c, 0, 64, 51
1, 425349, Control_c, 0, 64, 50
1, 425364, Control_c, 0, 64, 50
1, 425393, Control_c, 0, 64, 49
1, 425408, Control_c, 0, 64, 48
1, 425423, Control_c, 0, 64, 46
1, 425438, Control_c, 0, 64, 45
1, 425452, Control_c, 0, 64, 43
1, 425467, Control_c, 0, 64, 41
1, 425482, Control_c, 0, 64, 41
1, 425526, Control_c, 0, 64, 42
1, 425541, Control_c, 0, 64, 45
1, 425556, Control_c, 0, 64, 49
1, 425570, Control_c, 0, 64, 54
1, 425585, Control_c, 0, 64, 59
1, 425600, Control_c, 0, 64, 62
1, 425615, Control_c, 0, 64, 65
1, 425630, Control_c, 0, 64, 67
1, 425644, Control_c, 0, 64, 68
1, 425659, Control_c, 0, 64, 71
1, 425674, Control_c, 0, 64, 74
1, 425689, Control_c, 0, 64, 77
1, 425704, Control_c, 0, 64, 79
1, 425718, Control_c, 0, 64, 82
1, 425733, Control_c, 0, 64, 85
1, 425748, Control_c, 0, 64, 87
1, 425763, Control_c, 0, 64, 91
1, 425778, Control_c, 0, 64, 94
1, 425793, Control_c, 0, 64, 97
1, 425808, Control_c, 0, 64, 101
1, 425823, Control_c, 0, 64, 109
1, 425838, Control_c, 0, 64, 124
1, 425852, Control_c, 0, 64, 127
1, 426490, Note_on_c, 0, 70, 41
1, 426515, Note_on_c, 0, 62, 31
1, 426536, Note_on_c, 0, 58, 28
1, 426653, Control_c, 0, 64, 111
1, 426668, Control_c, 0, 64, 100
1, 426682, Control_c, 0, 64, 93
1, 426697, Control_c, 0, 64, 87
1, 426712, Control_c, 0, 64, 81
1, 426726, Control_c, 0, 64, 77
1, 426741, Control_c, 0, 64, 72
1, 426756, Control_c, 0, 64, 69
1, 426771, Control_c, 0, 64, 67
1, 426786, Control_c, 0, 64, 66
1, 426800, Control_c, 0, 64, 67
1, 426815, Control_c, 0, 64, 67
1, 426830, Control_c, 0, 64, 68
1, 426846, Control_c, 0, 64, 69
1, 426861, Control_c, 0, 64, 71
1, 426876, Control_c, 0, 64, 73
1, 426891, Control_c, 0, 64, 76
1, 426905, Control_c, 0, 64, 78
1, 426920, Control_c, 0, 64, 79
1, 426935, Control_c, 0, 64, 81
1, 426950, Control_c, 0, 64, 83
1, 426964, Control_c, 0, 64, 84
1, 426979, Control_c, 0, 64, 84
1, 426994, Control_c, 0, 64, 85
1, 427009, Control_c, 0, 64, 85
1, 427024, Control_c, 0, 64, 86
1, 427088, Note_off_c, 0, 62, 40
1, 427172, Control_c, 0, 64, 85
1, 427202, Control_c, 0, 64, 85
1, 427216, Control_c, 0, 64, 84
1, 427231, Control_c, 0, 64, 82
1, 427233, Note_on_c, 0, 69, 48
1, 427246, Control_c, 0, 64, 80
1, 427257, Note_on_c, 0, 63, 39
1, 427261, Note_on_c, 0, 60, 41
1, 427261, Control_c, 0, 64, 77
1, 427276, Control_c, 0, 64, 73
1, 427290, Control_c, 0, 64, 68
1, 427305, Control_c, 0, 64, 63
1, 427320, Control_c, 0, 64, 59
1, 427335, Control_c, 0, 64, 56
1, 427349, Control_c, 0, 64, 54
1, 427372, Control_c, 0, 64, 53
1, 427376, Note_off_c, 0, 58, 29
1, 427387, Control_c, 0, 64, 51
1, 427402, Control_c, 0, 64, 50
1, 427418, Control_c, 0, 64, 47
1, 427432, Control_c, 0, 64, 45
1, 427447, Control_c, 0, 64, 41
1, 427454, Note_off_c, 0, 70, 37
1, 427462, Control_c, 0, 64, 34
1, 427476, Control_c, 0, 64, 0
1, 427773, Control_c, 0, 67, 115
1, 427788, Control_c, 0, 67, 103
1, 427803, Control_c, 0, 67, 90
1, 427818, Control_c, 0, 67, 80
1, 427833, Control_c, 0, 67, 70
1, 427847, Control_c, 0, 67, 60
1, 427862, Control_c, 0, 67, 49
1, 427877, Control_c, 0, 67, 38
1, 427892, Control_c, 0, 67, 0
1, 428028, Note_on_c, 0, 70, 55
1, 428035, Note_on_c, 0, 65, 39
1, 428055, Note_on_c, 0, 62, 32
1, 428131, Note_off_c, 0, 69, 49
1, 428134, Note_off_c, 0, 60, 32
1, 428142, Note_off_c, 0, 63, 41
1, 428196, Control_c, 0, 64, 33
1, 428210, Control_c, 0, 64, 45
1, 428225, Control_c, 0, 64, 55
1, 428240, Control_c, 0, 64, 61
1, 428255, Control_c, 0, 64, 63
1, 428270, Control_c, 0, 64, 65
1, 428285, Control_c, 0, 64, 67
1, 428299, Control_c, 0, 64, 70
1, 428314, Control_c, 0, 64, 72
1, 428329, Control_c, 0, 64, 75
1, 428344, Control_c, 0, 64, 78
1, 428359, Control_c, 0, 64, 82
1, 428373, Control_c, 0, 64, 88
1, 428381, Note_off_c, 0, 70, 36
1, 428388, Note_off_c, 0, 62, 40
1, 428388, Control_c, 0, 64, 94
1, 428403, Control_c, 0, 64, 103
1, 428418, Control_c, 0, 64, 120
1, 428433, Control_c, 0, 64, 127
1, 428539, Note_off_c, 0, 65, 38
1, 428857, Note_on_c, 0, 64, 66
1, 428884, Note_on_c, 0, 61, 47
1, 428901, Note_on_c, 0, 55, 39
1, 428974, Control_c, 0, 64, 119
1, 428988, Control_c, 0, 64, 104
1, 429003, Control_c, 0, 64, 96
1, 429018, Control_c, 0, 64, 89
1, 429033, Control_c, 0, 64, 83
1, 429048, Control_c, 0, 64, 77
1, 429062, Control_c, 0, 64, 71
1, 429077, Control_c, 0, 64, 64
1, 429092, Control_c, 0, 64, 58
1, 429107, Control_c, 0, 64, 53
1, 429121, Control_c, 0, 64, 50
1, 429136, Control_c, 0, 64, 48
1, 429151, Control_c, 0, 64, 48
1, 429166, Control_c, 0, 64, 47
1, 429181, Control_c, 0, 64, 47
1, 429195, Control_c, 0, 64, 46
1, 429225, Control_c, 0, 64, 47
1, 429241, Control_c, 0, 64, 49
1, 429256, Control_c, 0, 64, 52
1, 429271, Control_c, 0, 64, 56
1, 429286, Control_c, 0, 64, 61
1, 429300, Control_c, 0, 64, 66
1, 429315, Control_c, 0, 64, 71
1, 429330, Control_c, 0, 64, 76
1, 429344, Control_c, 0, 64, 80
1, 429359, Control_c, 0, 64, 84
1, 429374, Control_c, 0, 64, 88
1, 429389, Control_c, 0, 64, 92
1, 429404, Control_c, 0, 64, 98
1, 429418, Control_c, 0, 64, 105
1, 429433, Control_c, 0, 64, 115
1, 429448, Control_c, 0, 64, 127
1, 429638, Note_on_c, 0, 60, 57
1, 429707, Control_c, 0, 64, 117
1, 429722, Control_c, 0, 64, 96
1, 429737, Control_c, 0, 64, 83
1, 429752, Control_c, 0, 64, 71
1, 429766, Control_c, 0, 64, 60
1, 429781, Control_c, 0, 64, 48
1, 429796, Control_c, 0, 64, 35
1, 429811, Control_c, 0, 64, 0
1, 429900, Control_c, 0, 64, 31
1, 429915, Control_c, 0, 64, 41
1, 429930, Control_c, 0, 64, 50
1, 429944, Control_c, 0, 64, 57
1, 429951, Note_off_c, 0, 61, 38
1, 429959, Control_c, 0, 64, 62
1, 429974, Control_c, 0, 64, 66
1, 429989, Control_c, 0, 64, 70
1, 430004, Control_c, 0, 64, 73
1, 430018, Control_c, 0, 64, 76
1, 430034, Control_c, 0, 64, 79
1, 430049, Control_c, 0, 64, 83
1, 430064, Control_c, 0, 64, 88
1, 430079, Control_c, 0, 64, 95
1, 430094, Control_c, 0, 64, 105
1, 430109, Control_c, 0, 64, 127
1, 430403, Note_on_c, 0, 72, 70
1, 430441, Note_on_c, 0, 58, 50
1, 430472, Control_c, 0, 64, 96
1, 430487, Control_c, 0, 64, 81
1, 430501, Control_c, 0, 64, 69
1, 430516, Control_c, 0, 64, 56
1, 430531, Control_c, 0, 64, 44
1, 430546, Control_c, 0, 64, 34
1, 430551, Note_off_c, 0, 64, 35
1, 430561, Control_c, 0, 64, 31
1, 430575, Control_c, 0, 64, 32
1, 430590, Control_c, 0, 64, 36
1, 430605, Control_c, 0, 64, 44
1, 430620, Control_c, 0, 64, 56
1, 430635, Control_c, 0, 64, 63
1, 430649, Control_c, 0, 64, 67
1, 430664, Control_c, 0, 64, 72
1, 430672, Note_off_c, 0, 60, 47
1, 430679, Control_c, 0, 64, 75
1, 430694, Control_c, 0, 64, 78
1, 430708, Control_c, 0, 64, 81
1, 430723, Control_c, 0, 64, 86
1, 430738, Control_c, 0, 64, 90
1, 430753, Control_c, 0, 64, 96
1, 430768, Control_c, 0, 64, 105
1, 430783, Control_c, 0, 64, 127
1, 430902, Control_c, 0, 67, 43
1, 430917, Control_c, 0, 67, 55
1, 430932, Control_c, 0, 67, 72
1, 430944, Note_off_c, 0, 55, 49
1, 430947, Control_c, 0, 67, 93
1, 430962, Control_c, 0, 67, 116
1, 430977, Control_c, 0, 67, 127
1, 431257, Note_on_c, 0, 71, 54
1, 431266, Note_on_c, 0, 53, 39
1, 431278, Note_off_c, 0, 72, 42
1, 431293, Control_c, 0, 64, 112
1, 431308, Control_c, 0, 64, 104
1, 431323, Control_c, 0, 64, 98
1, 431337, Control_c, 0, 64, 92
1, 431349, Note_off_c, 0, 71, 58
1, 431352, Control_c, 0, 64, 87
1, 431361, Note_on_c, 0, 72, 61
1, 431367, Control_c, 0, 64, 82
1, 431382, Control_c, 0, 64, 77
1, 431397, Control_c, 0, 64, 72
1, 431412, Control_c, 0, 64, 67
1, 431427, Control_c, 0, 64, 62
1, 431434, Note_off_c, 0, 72, 61
1, 431442, Control_c, 0, 64, 58
1, 431445, Note_on_c, 0, 74, 64
1, 431457, Control_c, 0, 64, 56
1, 431471, Control_c, 0, 64, 55
1, 431486, Control_c, 0, 64, 54
1, 431501, Control_c, 0, 64, 54
1, 431515, Control_c, 0, 64, 53
1, 431530, Control_c, 0, 64, 52
1, 431545, Control_c, 0, 64, 51
1, 431553, Note_on_c, 0, 72, 65
1, 431560, Control_c, 0, 64, 49
1, 431575, Control_c, 0, 64, 47
1, 431589, Control_c, 0, 64, 43
1, 431591, Note_off_c, 0, 74, 59
1, 431604, Control_c, 0, 64, 40
1, 431619, Control_c, 0, 64, 36
1, 431635, Control_c, 0, 64, 31
1, 431650, Control_c, 0, 64, 0
1, 432044, Note_on_c, 0, 57, 32
1, 432131, Note_off_c, 0, 58, 48
1, 432398, Control_c, 0, 64, 31
1, 432411, Note_on_c, 0, 70, 50
1, 432412, Control_c, 0, 64, 41
1, 432427, Control_c, 0, 64, 50
1, 432443, Control_c, 0, 64, 58
1, 432458, Control_c, 0, 64, 63
1, 432473, Control_c, 0, 64, 64
1, 432488, Control_c, 0, 64, 66
1, 432500, Note_off_c, 0, 72, 52
1, 432503, Control_c, 0, 64, 67
1, 432517, Control_c, 0, 64, 69
1, 432532, Control_c, 0, 64, 70
1, 432547, Control_c, 0, 64, 72
1, 432561, Control_c, 0, 64, 73
1, 432576, Control_c, 0, 64, 74
1, 432589, Note_off_c, 0, 70, 62
1, 432591, Control_c, 0, 64, 75
1, 432600, Note_on_c, 0, 69, 57
1, 432613, Control_c, 0, 64, 76
1, 432628, Control_c, 0, 64, 77
1, 432643, Control_c, 0, 64, 77
1, 432658, Control_c, 0, 64, 78
1, 432673, Control_c, 0, 64, 78
1, 432687, Control_c, 0, 64, 79
1, 432702, Control_c, 0, 64, 79
1, 432717, Control_c, 0, 64, 80
1, 432732, Control_c, 0, 64, 80
1, 432747, Control_c, 0, 64, 81
1, 432761, Control_c, 0, 64, 82
1, 432772, Note_on_c, 0, 67, 65
1, 432772, Note_off_c, 0, 69, 55
1, 432776, Control_c, 0, 64, 82
1, 432806, Control_c, 0, 64, 83
1, 432835, Control_c, 0, 64, 83
1, 432886, Note_off_c, 0, 57, 41
1, 432894, Control_c, 0, 64, 84
1, 432938, Note_on_c, 0, 65, 69
1, 432959, Note_off_c, 0, 67, 57
1, 432972, Note_off_c, 0, 53, 33
1, 433102, Control_c, 0, 64, 83
1, 433105, Note_on_c, 0, 63, 61
1, 433117, Control_c, 0, 64, 83
1, 433132, Control_c, 0, 64, 80
1, 433135, Note_on_c, 0, 55, 40
1, 433141, Note_on_c, 0, 58, 41
1, 433144, Note_off_c, 0, 65, 58
1, 433147, Control_c, 0, 64, 76
1, 433161, Control_c, 0, 64, 69
1, 433176, Control_c, 0, 64, 58
1, 433191, Control_c, 0, 64, 44
1, 433206, Control_c, 0, 64, 0
1, 433267, Note_on_c, 0, 67, 60
1, 433287, Note_off_c, 0, 63, 58
1, 433296, Control_c, 0, 64, 38
1, 433310, Control_c, 0, 64, 51
1, 433325, Control_c, 0, 64, 62
1, 433340, Control_c, 0, 64, 68
1, 433362, Control_c, 0, 64, 72
1, 433363, Note_off_c, 0, 58, 49
1, 433377, Control_c, 0, 64, 75
1, 433391, Control_c, 0, 64, 76
1, 433406, Control_c, 0, 64, 76
1, 433481, Control_c, 0, 64, 75
1, 433485, Note_on_c, 0, 65, 54
1, 433487, Note_off_c, 0, 67, 50
1, 433496, Control_c, 0, 64, 71
1, 433504, Note_off_c, 0, 55, 19
1, 433507, Note_on_c, 0, 57, 42
1, 433510, Note_on_c, 0, 60, 40
1, 433510, Control_c, 0, 64, 65
1, 433525, Control_c, 0, 64, 54
1, 433540, Control_c, 0, 64, 37
1, 433555, Control_c, 0, 64, 0
1, 433599, Control_c, 0, 64, 32
1, 433614, Control_c, 0, 64, 47
1, 433629, Control_c, 0, 64, 60
1, 433644, Control_c, 0, 64, 68
1, 433658, Control_c, 0, 64, 76
1, 433673, Control_c, 0, 64, 82
1, 433674, Note_off_c, 0, 65, 60
1, 433688, Control_c, 0, 64, 84
1, 433702, Control_c, 0, 64, 85
1, 433717, Control_c, 0, 64, 86
1, 433732, Control_c, 0, 64, 87
1, 433850, Control_c, 0, 64, 86
1, 433865, Control_c, 0, 64, 86
1, 433873, Note_on_c, 0, 63, 48
1, 433880, Control_c, 0, 64, 85
1, 433895, Control_c, 0, 64, 84
1, 433902, Note_off_c, 0, 63, 54
1, 433910, Control_c, 0, 64, 82
1, 433925, Control_c, 0, 64, 80
1, 433937, Note_on_c, 0, 65, 48
1, 433940, Control_c, 0, 64, 78
1, 433955, Control_c, 0, 64, 75
1, 433964, Note_off_c, 0, 65, 60
1, 433970, Control_c, 0, 64, 71
1, 433984, Control_c, 0, 64, 67
1, 433987, Note_on_c, 0, 63, 54
1, 433999, Control_c, 0, 64, 63
1, 434014, Control_c, 0, 64, 59
1, 434024, Note_off_c, 0, 63, 64
1, 434029, Control_c, 0, 64, 57
1, 434044, Control_c, 0, 64, 56
1, 434054, Note_on_c, 0, 65, 50
1, 434059, Control_c, 0, 64, 55
1, 434089, Control_c, 0, 64, 55
1, 434089, Note_off_c, 0, 65, 62
1, 434111, Control_c, 0, 64, 54
1, 434116, Note_on_c, 0, 63, 59
1, 434126, Control_c, 0, 64, 54
1, 434140, Control_c, 0, 64, 53
1, 434156, Control_c, 0, 64, 52
1, 434157, Note_off_c, 0, 63, 62
1, 434171, Control_c, 0, 64, 51
1, 434178, Note_on_c, 0, 62, 53
1, 434186, Control_c, 0, 64, 50
1, 434201, Control_c, 0, 64, 48
1, 434215, Control_c, 0, 64, 47
1, 434227, Note_off_c, 0, 62, 59
1, 434230, Control_c, 0, 64, 45
1, 434245, Control_c, 0, 64, 43
1, 434252, Note_on_c, 0, 63, 44
1, 434260, Control_c, 0, 64, 39
1, 434275, Control_c, 0, 64, 35
1, 434289, Control_c, 0, 64, 30
1, 434304, Control_c, 0, 64, 0
1, 434323, Note_off_c, 0, 57, 38
1, 434355, Note_on_c, 0, 62, 41
1, 434359, Note_on_c, 0, 58, 34
1, 434396, Note_off_c, 0, 63, 26
1, 434407, Note_off_c, 0, 60, 38
1, 434512, Control_c, 0, 64, 32
1, 434527, Control_c, 0, 64, 44
1, 434541, Control_c, 0, 64, 54
1, 434556, Control_c, 0, 64, 61
1, 434571, Control_c, 0, 64, 65
1, 434586, Control_c, 0, 64, 68
1, 434601, Control_c, 0, 64, 71
1, 434615, Control_c, 0, 64, 73
1, 434630, Control_c, 0, 64, 76
1, 434645, Control_c, 0, 64, 79
1, 434659, Control_c, 0, 64, 83
1, 434674, Control_c, 0, 64, 87
1, 434689, Control_c, 0, 64, 92
1, 434704, Control_c, 0, 64, 98
1, 434706, Note_off_c, 0, 58, 34
1, 434719, Control_c, 0, 64, 107
1, 434733, Control_c, 0, 64, 118
1, 434748, Control_c, 0, 64, 127
1, 434793, Note_off_c, 0, 62, 19
1, 435150, Note_on_c, 0, 74, 47
1, 435156, Control_c, 0, 64, 119
1, 435171, Control_c, 0, 64, 107
1, 435177, Note_on_c, 0, 65, 38
1, 435186, Control_c, 0, 64, 98
1, 435201, Control_c, 0, 64, 91
1, 435216, Control_c, 0, 64, 82
1, 435230, Control_c, 0, 64, 75
1, 435245, Control_c, 0, 64, 68
1, 435260, Control_c, 0, 64, 61
1, 435275, Control_c, 0, 64, 55
1, 435290, Control_c, 0, 64, 51
1, 435305, Control_c, 0, 64, 49
1, 435320, Control_c, 0, 64, 47
1, 435335, Control_c, 0, 64, 46
1, 435350, Control_c, 0, 64, 45
1, 435364, Control_c, 0, 64, 45
1, 435379, Control_c, 0, 64, 44
1, 435394, Control_c, 0, 64, 44
1, 435409, Control_c, 0, 64, 43
1, 435424, Control_c, 0, 64, 42
1, 435438, Control_c, 0, 64, 42
1, 435453, Control_c, 0, 64, 41
1, 435497, Control_c, 0, 64, 41
1, 435512, Control_c, 0, 64, 40
1, 435542, Control_c, 0, 64, 40
1, 435639, Control_c, 0, 64, 39
1, 435801, Control_c, 0, 64, 39
1, 435972, Note_on_c, 0, 48, 37
1, 435979, Note_on_c, 0, 36, 33
1, 436068, Control_c, 0, 64, 39
1, 436083, Control_c, 0, 64, 41
1, 436098, Control_c, 0, 64, 43
1, 436112, Control_c, 0, 64, 47
1, 436127, Control_c, 0, 64, 54
1, 436142, Control_c, 0, 64, 59
1, 436157, Control_c, 0, 64, 64
1, 436172, Control_c, 0, 64, 67
1, 436186, Control_c, 0, 64, 71
1, 436201, Control_c, 0, 64, 73
1, 436216, Control_c, 0, 64, 74
1, 436230, Control_c, 0, 64, 75
1, 436245, Control_c, 0, 64, 76
1, 436260, Control_c, 0, 64, 77
1, 436275, Control_c, 0, 64, 77
1, 436289, Note_off_c, 0, 65, 29
1, 436369, Note_on_c, 0, 71, 43
1, 436372, Control_c, 0, 64, 78
1, 436377, Note_on_c, 0, 62, 37
1, 436432, Control_c, 0, 64, 78
1, 436447, Control_c, 0, 64, 79
1, 436462, Control_c, 0, 64, 80
1, 436476, Control_c, 0, 64, 81
1, 436478, Note_off_c, 0, 74, 37
1, 436491, Control_c, 0, 64, 82
1, 436506, Control_c, 0, 64, 84
1, 436521, Control_c, 0, 64, 87
1, 436535, Control_c, 0, 64, 90
1, 436550, Control_c, 0, 64, 94
1, 436560, Note_off_c, 0, 71, 49
1, 436565, Control_c, 0, 64, 97
1, 436580, Control_c, 0, 64, 101
1, 436595, Control_c, 0, 64, 104
1, 436609, Control_c, 0, 64, 106
1, 436639, Control_c, 0, 64, 108
1, 436713, Control_c, 0, 64, 103
1, 436727, Control_c, 0, 64, 94
1, 436729, Note_on_c, 0, 72, 57
1, 436742, Control_c, 0, 64, 81
1, 436757, Control_c, 0, 64, 71
1, 436769, Note_on_c, 0, 63, 45
1, 436772, Control_c, 0, 64, 63
1, 436787, Control_c, 0, 64, 59
1, 436801, Control_c, 0, 64, 59
1, 436816, Control_c, 0, 64, 60
1, 436831, Control_c, 0, 64, 62
1, 436832, Note_off_c, 0, 62, 49
1, 436846, Control_c, 0, 64, 66
1, 436858, Note_off_c, 0, 63, 63
1, 436861, Control_c, 0, 64, 72
1, 436876, Control_c, 0, 64, 77
1, 436891, Control_c, 0, 64, 82
1, 436906, Control_c, 0, 64, 87
1, 436921, Control_c, 0, 64, 92
1, 436935, Control_c, 0, 64, 98
1, 436950, Control_c, 0, 64, 106
1, 436965, Control_c, 0, 64, 117
1, 436965, Control_c, 0, 67, 123
1, 436980, Control_c, 0, 64, 127
1, 436980, Control_c, 0, 67, 120
1, 436986, Note_off_c, 0, 72, 58
1, 436995, Control_c, 0, 67, 117
1, 437009, Control_c, 0, 67, 114
1, 437024, Control_c, 0, 67, 107
1, 437039, Control_c, 0, 67, 99
1, 437053, Control_c, 0, 67, 93
1, 437068, Control_c, 0, 64, 111
1, 437068, Control_c, 0, 67, 91
1, 437083, Control_c, 0, 64, 95
1, 437083, Control_c, 0, 67, 89
1, 437093, Note_on_c, 0, 74, 63
1, 437105, Control_c, 0, 64, 82
1, 437105, Control_c, 0, 67, 89
1, 437120, Control_c, 0, 64, 72
1, 437120, Control_c, 0, 67, 87
1, 437125, Note_on_c, 0, 65, 49
1, 437135, Control_c, 0, 64, 65
1, 437135, Control_c, 0, 67, 86
1, 437150, Control_c, 0, 64, 62
1, 437150, Control_c, 0, 67, 85
1, 437165, Control_c, 0, 64, 61
1, 437165, Control_c, 0, 67, 82
1, 437180, Control_c, 0, 64, 63
1, 437180, Control_c, 0, 67, 70
1, 437195, Control_c, 0, 64, 65
1, 437195, Control_c, 0, 67, 52
1, 437210, Control_c, 0, 64, 71
1, 437210, Control_c, 0, 67, 0
1, 437225, Control_c, 0, 64, 79
1, 437240, Control_c, 0, 64, 87
1, 437255, Control_c, 0, 64, 95
1, 437270, Note_off_c, 0, 74, 49
1, 437270, Control_c, 0, 64, 104
1, 437284, Control_c, 0, 64, 118
1, 437299, Control_c, 0, 64, 127
1, 437433, Control_c, 0, 64, 100
1, 437448, Control_c, 0, 64, 83
1, 437463, Control_c, 0, 64, 70
1, 437465, Note_on_c, 0, 75, 64
1, 437477, Control_c, 0, 64, 64
1, 437492, Control_c, 0, 64, 62
1, 437507, Control_c, 0, 64, 62
1, 437510, Note_on_c, 0, 67, 44
1, 437522, Control_c, 0, 64, 64
1, 437537, Control_c, 0, 64, 66
1, 437551, Control_c, 0, 64, 70
1, 437566, Control_c, 0, 64, 77
1, 437581, Control_c, 0, 64, 83
1, 437596, Control_c, 0, 64, 88
1, 437600, Note_off_c, 0, 36, 40
1, 437611, Control_c, 0, 64, 94
1, 437625, Control_c, 0, 64, 101
1, 437634, Note_off_c, 0, 65, 32
1, 437637, Note_off_c, 0, 67, 56
1, 437640, Control_c, 0, 64, 113
1, 437655, Control_c, 0, 64, 127
1, 437660, Note_off_c, 0, 48, 42
1, 437818, Note_on_c, 0, 72, 66
1, 437907, Note_off_c, 0, 72, 60
1, 438209, Note_on_c, 0, 70, 64
1, 438239, Note_on_c, 0, 63, 45
1, 438241, Control_c, 0, 64, 104
1, 438242, Note_on_c, 0, 60, 41
1, 438256, Control_c, 0, 64, 90
1, 438271, Control_c, 0, 64, 76
1, 438286, Control_c, 0, 64, 66
1, 438300, Control_c, 0, 64, 56
1, 438315, Control_c, 0, 64, 44
1, 438330, Control_c, 0, 64, 0
1, 438507, Control_c, 0, 64, 36
1, 438522, Control_c, 0, 64, 46
1, 438537, Control_c, 0, 64, 55
1, 438552, Control_c, 0, 64, 61
1, 438567, Control_c, 0, 64, 64
1, 438581, Control_c, 0, 64, 67
1, 438590, Note_on_c, 0, 69, 65
1, 438604, Control_c, 0, 64, 70
1, 438619, Control_c, 0, 64, 72
1, 438633, Control_c, 0, 64, 75
1, 438648, Control_c, 0, 64, 79
1, 438663, Control_c, 0, 64, 84
1, 438678, Control_c, 0, 64, 88
1, 438693, Control_c, 0, 64, 95
1, 438707, Control_c, 0, 64, 101
1, 438712, Note_off_c, 0, 70, 61
1, 438722, Control_c, 0, 64, 110
1, 438737, Control_c, 0, 64, 127
1, 438775, Note_off_c, 0, 75, 38
1, 438916, Control_c, 0, 64, 117
1, 438930, Control_c, 0, 64, 105
1, 438945, Control_c, 0, 64, 96
1, 438956, Note_on_c, 0, 72, 57
1, 438960, Control_c, 0, 64, 88
1, 438975, Control_c, 0, 64, 79
1, 438987, Note_on_c, 0, 65, 40
1, 438990, Control_c, 0, 64, 69
1, 438999, Note_on_c, 0, 62, 33
1, 439004, Control_c, 0, 64, 61
1, 439019, Control_c, 0, 64, 51
1, 439034, Control_c, 0, 64, 40
1, 439049, Control_c, 0, 64, 0
1, 439072, Note_off_c, 0, 63, 36
1, 439075, Note_off_c, 0, 69, 49
1, 439091, Note_off_c, 0, 60, 36
1, 439271, Control_c, 0, 64, 31
1, 439286, Control_c, 0, 64, 44
1, 439301, Control_c, 0, 64, 55
1, 439316, Control_c, 0, 64, 63
1, 439330, Control_c, 0, 64, 67
1, 439332, Note_off_c, 0, 72, 54
1, 439333, Note_on_c, 0, 70, 47
1, 439353, Control_c, 0, 64, 70
1, 439368, Control_c, 0, 64, 72
1, 439383, Control_c, 0, 64, 76
1, 439397, Control_c, 0, 64, 81
1, 439411, Control_c, 0, 64, 86
1, 439424, Note_off_c, 0, 70, 64
1, 439426, Control_c, 0, 64, 92
1, 439441, Control_c, 0, 64, 99
1, 439455, Control_c, 0, 64, 109
1, 439470, Control_c, 0, 64, 127
1, 439761, Note_on_c, 0, 77, 73
1, 439794, Note_on_c, 0, 74, 52
1, 439812, Control_c, 0, 64, 109
1, 439827, Control_c, 0, 64, 97
1, 439842, Control_c, 0, 64, 89
1, 439857, Control_c, 0, 64, 80
1, 439871, Control_c, 0, 64, 72
1, 439872, Note_off_c, 0, 65, 37
1, 439886, Control_c, 0, 64, 63
1, 439893, Note_off_c, 0, 62, 44
1, 439901, Control_c, 0, 64, 54
1, 439916, Control_c, 0, 64, 47
1, 439931, Control_c, 0, 64, 39
1, 439945, Control_c, 0, 64, 32
1, 439960, Control_c, 0, 64, 0
1, 440383, Control_c, 0, 64, 30
1, 440397, Control_c, 0, 64, 35
1, 440412, Control_c, 0, 64, 41
1, 440429, Control_c, 0, 64, 47
1, 440444, Control_c, 0, 64, 52
1, 440458, Control_c, 0, 64, 57
1, 440473, Control_c, 0, 64, 60
1, 440488, Control_c, 0, 64, 62
1, 440502, Control_c, 0, 64, 63
1, 440517, Control_c, 0, 64, 64
1, 440532, Control_c, 0, 64, 65
1, 440547, Control_c, 0, 64, 65
1, 440562, Control_c, 0, 64, 66
1, 440576, Control_c, 0, 64, 67
1, 440591, Control_c, 0, 64, 69
1, 440603, Note_on_c, 0, 51, 42
1, 440606, Control_c, 0, 64, 70
1, 440611, Note_on_c, 0, 39, 43
1, 440621, Control_c, 0, 64, 72
1, 440636, Control_c, 0, 64, 74
1, 440650, Control_c, 0, 64, 76
1, 440665, Control_c, 0, 64, 78
1, 440680, Control_c, 0, 64, 80
1, 440694, Control_c, 0, 64, 83
1, 440709, Control_c, 0, 64, 86
1, 440724, Control_c, 0, 64, 91
1, 440739, Control_c, 0, 64, 97
1, 440754, Control_c, 0, 64, 104
1, 440769, Note_off_c, 0, 74, 52
1, 440769, Control_c, 0, 64, 115
1, 440784, Control_c, 0, 64, 127
1, 441016, Note_on_c, 0, 74, 58
1, 441064, Note_on_c, 0, 71, 35
1, 441189, Note_off_c, 0, 77, 57
1, 441258, Note_off_c, 0, 71, 39
1, 441395, Note_on_c, 0, 75, 69
1, 441426, Note_on_c, 0, 72, 48
1, 441517, Control_c, 0, 64, 101
1, 441532, Control_c, 0, 64, 76
1, 441547, Control_c, 0, 64, 61
1, 441562, Control_c, 0, 64, 46
1, 441577, Control_c, 0, 64, 30
1, 441585, Note_off_c, 0, 74, 58
1, 441599, Control_c, 0, 64, 0
1, 441644, Control_c, 0, 64, 34
1, 441658, Control_c, 0, 64, 47
1, 441673, Control_c, 0, 64, 58
1, 441688, Control_c, 0, 64, 64
1, 441703, Control_c, 0, 64, 69
1, 441718, Control_c, 0, 64, 73
1, 441732, Control_c, 0, 64, 76
1, 441747, Control_c, 0, 64, 79
1, 441755, Note_on_c, 0, 77, 74
1, 441762, Control_c, 0, 64, 81
1, 441777, Control_c, 0, 64, 83
1, 441792, Control_c, 0, 64, 84
1, 441806, Control_c, 0, 64, 85
1, 441813, Note_on_c, 0, 74, 48
1, 441821, Control_c, 0, 64, 87
1, 441833, Note_off_c, 0, 72, 38
1, 441836, Control_c, 0, 64, 87
1, 441851, Control_c, 0, 64, 89
1, 441866, Control_c, 0, 64, 90
1, 441881, Control_c, 0, 64, 93
1, 441896, Control_c, 0, 64, 97
1, 441896, Note_off_c, 0, 75, 57
1, 441911, Control_c, 0, 64, 103
1, 441925, Control_c, 0, 64, 115
1, 441940, Control_c, 0, 64, 127
1, 441980, Note_off_c, 0, 74, 57
1, 442112, Note_on_c, 0, 79, 75
1, 442143, Note_on_c, 0, 75, 59
1, 442232, Note_off_c, 0, 77, 60
1, 442299, Note_off_c, 0, 75, 60
1, 442386, Note_off_c, 0, 51, 36
1, 442392, Note_off_c, 0, 39, 41
1, 442494, Note_on_c, 0, 75, 81
1, 442549, Note_on_c, 0, 72, 43
1, 442648, Note_off_c, 0, 72, 60
1, 442921, Note_on_c, 0, 74, 78
1, 442945, Note_on_c, 0, 63, 57
1, 442958, Note_on_c, 0, 53, 41
1, 442972, Note_on_c, 0, 69, 44
1, 443015, Control_c, 0, 64, 92
1, 443030, Control_c, 0, 64, 70
1, 443045, Control_c, 0, 64, 51
1, 443060, Control_c, 0, 64, 0
1, 443133, Note_off_c, 0, 79, 37
1, 443142, Control_c, 0, 64, 42
1, 443157, Control_c, 0, 64, 58
1, 443171, Control_c, 0, 64, 71
1, 443186, Control_c, 0, 64, 82
1, 443201, Control_c, 0, 64, 98
1, 443216, Control_c, 0, 64, 127
1, 443236, Note_off_c, 0, 75, 52
1, 443239, Note_off_c, 0, 69, 36
1, 443336, Note_off_c, 0, 53, 32
1, 443372, Note_on_c, 0, 72, 69
1, 443446, Note_off_c, 0, 74, 59
1, 443491, Note_off_c, 0, 63, 52
1, 443493, Note_off_c, 0, 72, 62
1, 443710, Note_on_c, 0, 75, 82
1, 443743, Note_on_c, 0, 62, 58
1, 443750, Note_on_c, 0, 58, 52
1, 443758, Note_on_c, 0, 70, 56
1, 443780, Control_c, 0, 64, 87
1, 443794, Control_c, 0, 64, 67
1, 443809, Control_c, 0, 64, 52
1, 443824, Control_c, 0, 64, 38
1, 443845, Control_c, 0, 64, 34
1, 443860, Control_c, 0, 64, 36
1, 443875, Control_c, 0, 64, 43
1, 443890, Control_c, 0, 64, 56
1, 443905, Control_c, 0, 64, 65
1, 443919, Control_c, 0, 64, 76
1, 443934, Control_c, 0, 64, 94
1, 443949, Control_c, 0, 64, 127
1, 443978, Note_off_c, 0, 62, 53
1, 444012, Note_off_c, 0, 58, 62
1, 444080, Note_off_c, 0, 70, 60
1, 444095, Note_on_c, 0, 74, 81
1, 444231, Note_off_c, 0, 74, 58
1, 444250, Note_off_c, 0, 75, 60
1, 444461, Note_on_c, 0, 79, 77
1, 444477, Note_on_c, 0, 57, 54
1, 444495, Note_on_c, 0, 72, 53
1, 444496, Note_on_c, 0, 45, 50
1, 444513, Control_c, 0, 64, 97
1, 444528, Control_c, 0, 64, 72
1, 444542, Control_c, 0, 64, 55
1, 444557, Control_c, 0, 64, 0
1, 444623, Control_c, 0, 64, 34
1, 444638, Control_c, 0, 64, 51
1, 444653, Control_c, 0, 64, 63
1, 444668, Control_c, 0, 64, 71
1, 444683, Control_c, 0, 64, 80
1, 444698, Control_c, 0, 64, 88
1, 444713, Control_c, 0, 64, 111
1, 444728, Control_c, 0, 64, 127
1, 444776, Note_off_c, 0, 72, 55
1, 444823, Note_off_c, 0, 57, 37
1, 444900, Note_on_c, 0, 77, 70
1, 445003, Note_off_c, 0, 79, 58
1, 445020, Note_off_c, 0, 77, 61
1, 445392, Note_on_c, 0, 84, 69
1, 445424, Note_on_c, 0, 74, 41
1, 445435, Note_on_c, 0, 55, 29
1, 445441, Note_on_c, 0, 43, 33
1, 445476, Control_c, 0, 64, 105
1, 445491, Control_c, 0, 64, 87
1, 445506, Control_c, 0, 64, 73
1, 445521, Control_c, 0, 64, 59
1, 445535, Control_c, 0, 64, 46
1, 445550, Control_c, 0, 64, 34
1, 445565, Control_c, 0, 64, 29
1, 445595, Control_c, 0, 64, 34
1, 445598, Note_off_c, 0, 45, 29
1, 445610, Control_c, 0, 64, 42
1, 445624, Control_c, 0, 64, 55
1, 445639, Control_c, 0, 64, 64
1, 445654, Control_c, 0, 64, 70
1, 445669, Control_c, 0, 64, 75
1, 445684, Control_c, 0, 64, 80
1, 445698, Control_c, 0, 64, 85
1, 445713, Control_c, 0, 64, 90
1, 445728, Control_c, 0, 64, 97
1, 445743, Control_c, 0, 64, 104
1, 445758, Control_c, 0, 64, 113
1, 445772, Control_c, 0, 64, 127
1, 445802, Control_c, 0, 67, 36
1, 445810, Note_on_c, 0, 82, 68
1, 445816, Control_c, 0, 67, 39
1, 445831, Control_c, 0, 67, 45
1, 445846, Control_c, 0, 67, 52
1, 445861, Control_c, 0, 67, 60
1, 445876, Control_c, 0, 67, 69
1, 445886, Note_off_c, 0, 84, 63
1, 445890, Control_c, 0, 67, 82
1, 445905, Control_c, 0, 67, 97
1, 445920, Control_c, 0, 67, 116
1, 445931, Note_off_c, 0, 74, 55
1, 445935, Control_c, 0, 67, 127
1, 446154, Note_on_c, 0, 81, 69
1, 446184, Note_on_c, 0, 70, 57
1, 446228, Note_off_c, 0, 82, 63
1, 446264, Note_off_c, 0, 43, 40
1, 446386, Note_off_c, 0, 55, 37
1, 446513, Note_on_c, 0, 79, 69
1, 446592, Note_off_c, 0, 81, 59
1, 446865, Note_on_c, 0, 77, 65
1, 446873, Note_on_c, 0, 60, 51
1, 446892, Note_on_c, 0, 55, 41
1, 446900, Control_c, 0, 64, 106
1, 446915, Control_c, 0, 64, 80
1, 446930, Control_c, 0, 64, 65
1, 446944, Control_c, 0, 64, 53
1, 446954, Note_off_c, 0, 79, 63
1, 446959, Control_c, 0, 64, 47
1, 446974, Control_c, 0, 64, 47
1, 446988, Control_c, 0, 64, 50
1, 447003, Control_c, 0, 64, 56
1, 447018, Control_c, 0, 64, 62
1, 447033, Control_c, 0, 64, 68
1, 447048, Control_c, 0, 64, 79
1, 447062, Control_c, 0, 64, 90
1, 447077, Control_c, 0, 64, 96
1, 447092, Control_c, 0, 64, 102
1, 447107, Control_c, 0, 64, 109
1, 447122, Control_c, 0, 64, 127
1, 447159, Note_off_c, 0, 77, 60
1, 447249, Note_on_c, 0, 76, 67
1, 447294, Note_off_c, 0, 55, 54
1, 447343, Note_off_c, 0, 70, 51
1, 447488, Note_off_c, 0, 60, 25
1, 447551, Note_off_c, 0, 76, 21
1, 447702, Note_on_c, 0, 79, 57
1, 447722, Note_on_c, 0, 70, 49
1, 447726, Note_on_c, 0, 64, 47
1, 447738, Control_c, 0, 64, 115
1, 447744, Note_on_c, 0, 53, 34
1, 447753, Control_c, 0, 64, 92
1, 447767, Control_c, 0, 64, 74
1, 447782, Control_c, 0, 64, 61
1, 447797, Control_c, 0, 64, 47
1, 447811, Control_c, 0, 64, 0
1, 447915, Control_c, 0, 64, 34
1, 447930, Control_c, 0, 64, 44
1, 447945, Control_c, 0, 64, 54
1, 447959, Control_c, 0, 64, 60
1, 447974, Control_c, 0, 64, 65
1, 447989, Control_c, 0, 64, 68
1, 448004, Control_c, 0, 64, 71
1, 448019, Control_c, 0, 64, 73
1, 448033, Control_c, 0, 64, 75
1, 448048, Control_c, 0, 64, 77
1, 448063, Control_c, 0, 64, 79
1, 448078, Control_c, 0, 64, 82
1, 448093, Control_c, 0, 64, 85
1, 448108, Control_c, 0, 64, 88
1, 448123, Control_c, 0, 64, 91
1, 448138, Control_c, 0, 64, 94
1, 448153, Control_c, 0, 64, 96
1, 448167, Control_c, 0, 64, 98
1, 448188, Note_off_c, 0, 70, 61
1, 448271, Control_c, 0, 64, 100
1, 448516, Control_c, 0, 64, 98
1, 448576, Control_c, 0, 64, 95
1, 448590, Control_c, 0, 64, 94
1, 448605, Control_c, 0, 64, 93
1, 448620, Control_c, 0, 64, 92
1, 448634, Control_c, 0, 64, 90
1, 448649, Control_c, 0, 64, 87
1, 448653, Note_on_c, 0, 77, 48
1, 448664, Control_c, 0, 64, 85
1, 448679, Control_c, 0, 64, 81
1, 448686, Note_on_c, 0, 65, 35
1, 448693, Note_on_c, 0, 69, 35
1, 448694, Control_c, 0, 64, 77
1, 448708, Control_c, 0, 64, 72
1, 448723, Control_c, 0, 64, 66
1, 448738, Control_c, 0, 64, 59
1, 448753, Control_c, 0, 64, 52
1, 448768, Control_c, 0, 64, 44
1, 448782, Control_c, 0, 64, 34
1, 448797, Control_c, 0, 64, 0
1, 448806, Note_off_c, 0, 64, 49
1, 448809, Note_off_c, 0, 79, 46
1, 448931, Control_c, 0, 64, 33
1, 448946, Control_c, 0, 64, 38
1, 448960, Control_c, 0, 64, 45
1, 448975, Control_c, 0, 64, 51
1, 448990, Control_c, 0, 64, 57
1, 449005, Control_c, 0, 64, 61
1, 449020, Control_c, 0, 64, 63
1, 449034, Control_c, 0, 64, 64
1, 449049, Control_c, 0, 64, 65
1, 449064, Control_c, 0, 64, 66
1, 449086, Control_c, 0, 64, 66
1, 449101, Control_c, 0, 64, 68
1, 449116, Control_c, 0, 64, 69
1, 449130, Control_c, 0, 64, 70
1, 449145, Control_c, 0, 64, 71
1, 449160, Control_c, 0, 64, 73
1, 449175, Control_c, 0, 64, 74
1, 449190, Control_c, 0, 64, 76
1, 449205, Control_c, 0, 64, 77
1, 449220, Control_c, 0, 64, 78
1, 449235, Control_c, 0, 64, 79
1, 449250, Control_c, 0, 64, 80
1, 449265, Control_c, 0, 64, 81
1, 449279, Control_c, 0, 64, 83
1, 449294, Control_c, 0, 64, 84
1, 449309, Control_c, 0, 64, 85
1, 449318, Note_off_c, 0, 69, 36
1, 449324, Control_c, 0, 64, 85
1, 449331, Note_off_c, 0, 77, 50
1, 449339, Control_c, 0, 64, 86
1, 449354, Control_c, 0, 64, 87
1, 449369, Control_c, 0, 64, 87
1, 449383, Control_c, 0, 64, 88
1, 449398, Control_c, 0, 64, 88
1, 449428, Control_c, 0, 64, 89
1, 449473, Note_off_c, 0, 53, 34
1, 449502, Control_c, 0, 64, 89
1, 449620, Control_c, 0, 64, 89
1, 449650, Control_c, 0, 64, 87
1, 449664, Control_c, 0, 64, 83
1, 449679, Control_c, 0, 64, 75
1, 449694, Control_c, 0, 64, 66
1, 449709, Control_c, 0, 64, 55
1, 449724, Control_c, 0, 64, 49
1, 449739, Control_c, 0, 64, 48
1, 449753, Control_c, 0, 64, 49
1, 449768, Control_c, 0, 64, 52
1, 449783, Control_c, 0, 64, 56
1, 449798, Control_c, 0, 64, 62
1, 449813, Control_c, 0, 64, 66
1, 449835, Control_c, 0, 64, 69
1, 449850, Control_c, 0, 64, 73
1, 449864, Control_c, 0, 64, 75
1, 449879, Control_c, 0, 64, 77
1, 449894, Control_c, 0, 64, 79
1, 449909, Control_c, 0, 64, 81
1, 449924, Control_c, 0, 64, 83
1, 449938, Control_c, 0, 64, 85
1, 449953, Control_c, 0, 64, 87
1, 449968, Control_c, 0, 64, 88
1, 449981, Note_on_c, 0, 67, 33
1, 449983, Control_c, 0, 64, 89
1, 449998, Control_c, 0, 64, 90
1, 450013, Control_c, 0, 64, 91
1, 450028, Control_c, 0, 64, 92
1, 450043, Control_c, 0, 64, 93
1, 450058, Control_c, 0, 64, 95
1, 450073, Control_c, 0, 64, 97
1, 450081, Note_off_c, 0, 65, 34
1, 450102, Control_c, 0, 64, 99
1, 450162, Note_off_c, 0, 67, 45
1, 450162, Control_c, 0, 64, 101
1, 450183, Note_on_c, 0, 63, 36
1, 450296, Note_off_c, 0, 63, 62
1, 450360, Note_on_c, 0, 60, 47
1, 450487, Control_c, 0, 64, 98
1, 450502, Control_c, 0, 64, 95
1, 450517, Control_c, 0, 64, 91
1, 450531, Control_c, 0, 64, 88
1, 450546, Control_c, 0, 64, 83
1, 450550, Note_on_c, 0, 58, 46
1, 450561, Control_c, 0, 64, 78
1, 450574, Note_off_c, 0, 60, 38
1, 450576, Control_c, 0, 64, 73
1, 450599, Control_c, 0, 64, 66
1, 450613, Control_c, 0, 64, 60
1, 450628, Control_c, 0, 64, 55
1, 450643, Control_c, 0, 64, 53
1, 450658, Control_c, 0, 64, 52
1, 450673, Control_c, 0, 64, 51
1, 451299, Note_on_c, 0, 57, 38
1, 451362, Control_c, 0, 64, 51
1, 451367, Note_off_c, 0, 58, 35
1, 451704, Control_c, 0, 64, 51
1, 452225, Note_on_c, 0, 85, 63
1, 452245, Control_c, 0, 64, 51
1, 452259, Control_c, 0, 64, 50
1, 452270, Note_on_c, 0, 58, 27
1, 452274, Control_c, 0, 64, 49
1, 452289, Control_c, 0, 64, 47
1, 452303, Control_c, 0, 64, 46
1, 452318, Control_c, 0, 64, 45
1, 452333, Control_c, 0, 64, 44
1, 452348, Control_c, 0, 64, 43
1, 452363, Control_c, 0, 64, 43
1, 452368, Note_off_c, 0, 57, 36
1, 452377, Control_c, 0, 64, 42
1, 452586, Control_c, 0, 64, 43
1, 452675, Control_c, 0, 64, 43
1, 452749, Control_c, 0, 64, 44
1, 452889, Control_c, 0, 64, 44
1, 453285, Note_on_c, 0, 52, 37
1, 453341, Note_off_c, 0, 58, 40
1, 453472, Note_on_c, 0, 83, 42
1, 453490, Note_off_c, 0, 85, 55
1, 453512, Control_c, 0, 64, 45
1, 453527, Control_c, 0, 64, 46
1, 453542, Control_c, 0, 64, 47
1, 453557, Control_c, 0, 64, 51
1, 453579, Control_c, 0, 64, 55
1, 453594, Control_c, 0, 64, 59
1, 453609, Control_c, 0, 64, 63
1, 453622, Note_off_c, 0, 83, 58
1, 453625, Control_c, 0, 64, 65
1, 453626, Note_on_c, 0, 85, 50
1, 453639, Control_c, 0, 64, 67
1, 453654, Control_c, 0, 64, 69
1, 453669, Control_c, 0, 64, 70
1, 453684, Control_c, 0, 64, 71
1, 453699, Control_c, 0, 64, 71
1, 453713, Control_c, 0, 64, 72
1, 453728, Control_c, 0, 64, 72
1, 453743, Control_c, 0, 64, 73
1, 453756, Note_off_c, 0, 85, 54
1, 453757, Note_on_c, 0, 84, 54
1, 453757, Control_c, 0, 64, 73
1, 453802, Control_c, 0, 64, 74
1, 453885, Note_off_c, 0, 84, 56
1, 453886, Note_on_c, 0, 82, 58
1, 453992, Note_off_c, 0, 82, 61
1, 454008, Note_on_c, 0, 81, 59
1, 454132, Note_on_c, 0, 79, 58
1, 454161, Note_off_c, 0, 81, 39
1, 454255, Note_on_c, 0, 78, 67
1, 454266, Note_off_c, 0, 79, 51
1, 454377, Note_on_c, 0, 81, 69
1, 454430, Note_off_c, 0, 78, 47
1, 454432, Control_c, 0, 64, 74
1, 454447, Control_c, 0, 64, 75
1, 454461, Control_c, 0, 64, 75
1, 454491, Control_c, 0, 64, 76
1, 454498, Note_on_c, 0, 79, 66
1, 454506, Control_c, 0, 64, 76
1, 454521, Control_c, 0, 64, 77
1, 454535, Control_c, 0, 64, 77
1, 454538, Note_off_c, 0, 81, 59
1, 454599, Note_off_c, 0, 79, 61
1, 454611, Note_on_c, 0, 77, 66
1, 454725, Note_off_c, 0, 77, 60
1, 454730, Note_on_c, 0, 76, 73
1, 454847, Note_on_c, 0, 64, 66
1, 454848, Control_c, 0, 64, 76
1, 454849, Note_on_c, 0, 73, 70
1, 454856, Note_off_c, 0, 76, 59
1, 454863, Control_c, 0, 64, 74
1, 454864, Note_on_c, 0, 60, 53
1, 454877, Control_c, 0, 64, 69
1, 454892, Control_c, 0, 64, 61
1, 454907, Control_c, 0, 64, 49
1, 454922, Control_c, 0, 64, 41
1, 454937, Control_c, 0, 64, 40
1, 454951, Control_c, 0, 64, 42
1, 454966, Control_c, 0, 64, 48
1, 454976, Note_on_c, 0, 72, 69
1, 454981, Control_c, 0, 64, 56
1, 454994, Note_off_c, 0, 73, 55
1, 454995, Control_c, 0, 64, 62
1, 455010, Control_c, 0, 64, 69
1, 455025, Control_c, 0, 64, 74
1, 455040, Control_c, 0, 64, 77
1, 455055, Control_c, 0, 64, 79
1, 455077, Control_c, 0, 64, 82
1, 455092, Control_c, 0, 64, 85
1, 455092, Control_c, 0, 67, 117
1, 455099, Note_on_c, 0, 75, 74
1, 455107, Control_c, 0, 64, 90
1, 455107, Control_c, 0, 67, 93
1, 455122, Note_off_c, 0, 52, 38
1, 455122, Control_c, 0, 64, 98
1, 455122, Control_c, 0, 67, 65
1, 455125, Note_off_c, 0, 72, 50
1, 455136, Control_c, 0, 64, 111
1, 455136, Control_c, 0, 67, 38
1, 455151, Control_c, 0, 64, 127
1, 455151, Control_c, 0, 67, 0
1, 455173, Note_off_c, 0, 64, 40
1, 455220, Note_on_c, 0, 73, 70
1, 455267, Note_off_c, 0, 60, 37
1, 455268, Note_off_c, 0, 75, 59
1, 455342, Note_on_c, 0, 72, 62
1, 455346, Note_off_c, 0, 73, 63
1, 455439, Note_off_c, 0, 72, 62
1, 455444, Note_on_c, 0, 70, 75
1, 455524, Note_on_c, 0, 59, 49
1, 455550, Note_off_c, 0, 70, 57
1, 455563, Note_off_c, 0, 59, 63
1, 455575, Note_on_c, 0, 60, 59
1, 455650, Note_off_c, 0, 60, 62
1, 455665, Note_on_c, 0, 62, 57
1, 455724, Note_on_c, 0, 70, 67
1, 455730, Control_c, 0, 64, 104
1, 455743, Note_off_c, 0, 62, 56
1, 455744, Control_c, 0, 64, 93
1, 455745, Note_on_c, 0, 60, 48
1, 455751, Note_on_c, 0, 63, 53
1, 455759, Control_c, 0, 64, 83
1, 455774, Control_c, 0, 64, 74
1, 455789, Control_c, 0, 64, 65
1, 455804, Control_c, 0, 64, 55
1, 455826, Control_c, 0, 64, 42
1, 455840, Control_c, 0, 64, 0
1, 455945, Control_c, 0, 64, 40
1, 455959, Control_c, 0, 64, 54
1, 455974, Control_c, 0, 64, 64
1, 455989, Control_c, 0, 64, 71
1, 456004, Control_c, 0, 64, 77
1, 456014, Note_off_c, 0, 63, 63
1, 456019, Control_c, 0, 64, 83
1, 456033, Control_c, 0, 64, 88
1, 456048, Control_c, 0, 64, 91
1, 456063, Control_c, 0, 64, 94
1, 456078, Control_c, 0, 64, 96
1, 456093, Control_c, 0, 64, 98
1, 456107, Control_c, 0, 64, 100
1, 456137, Control_c, 0, 64, 103
1, 456163, Note_on_c, 0, 69, 62
1, 456166, Control_c, 0, 64, 107
1, 456181, Control_c, 0, 64, 111
1, 456196, Control_c, 0, 64, 122
1, 456211, Control_c, 0, 64, 127
1, 456218, Note_off_c, 0, 70, 37
1, 456247, Note_off_c, 0, 69, 61
1, 456354, Note_on_c, 0, 70, 59
1, 456413, Note_off_c, 0, 70, 65
1, 456426, Note_on_c, 0, 69, 57
1, 456455, Note_off_c, 0, 69, 66
1, 456478, Control_c, 0, 64, 112
1, 456481, Note_on_c, 0, 67, 62
1, 456493, Control_c, 0, 64, 101
1, 456508, Control_c, 0, 64, 93
1, 456523, Control_c, 0, 64, 85
1, 456538, Control_c, 0, 64, 77
1, 456547, Note_on_c, 0, 69, 54
1, 456551, Note_off_c, 0, 67, 50
1, 456553, Control_c, 0, 64, 71
1, 456574, Control_c, 0, 64, 64
1, 456589, Control_c, 0, 64, 57
1, 456604, Control_c, 0, 64, 51
1, 456618, Control_c, 0, 64, 45
1, 456633, Control_c, 0, 64, 37
1, 456636, Note_on_c, 0, 70, 67
1, 456648, Control_c, 0, 64, 0
1, 456706, Note_off_c, 0, 69, 37
1, 456732, Note_on_c, 0, 74, 70
1, 456771, Note_off_c, 0, 70, 62
1, 456796, Control_c, 0, 64, 29
1, 456811, Control_c, 0, 64, 41
1, 456826, Control_c, 0, 64, 53
1, 456841, Control_c, 0, 64, 63
1, 456855, Control_c, 0, 64, 69
1, 456870, Control_c, 0, 64, 74
1, 456885, Control_c, 0, 64, 78
1, 456900, Control_c, 0, 64, 82
1, 456915, Control_c, 0, 64, 86
1, 456929, Control_c, 0, 64, 91
1, 456935, Note_off_c, 0, 74, 62
1, 456944, Control_c, 0, 64, 97
1, 456945, Note_on_c, 0, 72, 69
1, 456959, Control_c, 0, 64, 104
1, 456959, Control_c, 0, 67, 42
1, 456973, Control_c, 0, 64, 117
1, 456973, Control_c, 0, 67, 45
1, 456988, Control_c, 0, 64, 127
1, 456988, Control_c, 0, 67, 47
1, 457003, Control_c, 0, 67, 54
1, 457018, Control_c, 0, 67, 62
1, 457024, Note_off_c, 0, 72, 60
1, 457033, Control_c, 0, 67, 69
1, 457048, Control_c, 0, 67, 75
1, 457063, Control_c, 0, 67, 81
1, 457078, Control_c, 0, 67, 90
1, 457092, Control_c, 0, 67, 98
1, 457107, Control_c, 0, 67, 104
1, 457110, Note_off_c, 0, 60, 32
1, 457122, Control_c, 0, 67, 110
1, 457137, Control_c, 0, 67, 114
1, 457152, Control_c, 0, 67, 117
1, 457152, Note_on_c, 0, 72, 64
1, 457167, Control_c, 0, 64, 107
1, 457167, Control_c, 0, 67, 120
1, 457174, Note_on_c, 0, 58, 42
1, 457181, Control_c, 0, 64, 87
1, 457181, Control_c, 0, 67, 124
1, 457182, Note_on_c, 0, 63, 46
1, 457197, Control_c, 0, 64, 73
1, 457197, Control_c, 0, 67, 127
1, 457212, Control_c, 0, 64, 62
1, 457227, Control_c, 0, 64, 50
1, 457241, Control_c, 0, 64, 42
1, 457256, Control_c, 0, 64, 40
1, 457271, Control_c, 0, 64, 42
1, 457286, Control_c, 0, 64, 48
1, 457301, Control_c, 0, 64, 56
1, 457322, Control_c, 0, 64, 62
1, 457337, Control_c, 0, 64, 68
1, 457348, Note_off_c, 0, 58, 62
1, 457352, Control_c, 0, 64, 75
1, 457357, Note_on_c, 0, 57, 55
1, 457367, Control_c, 0, 64, 82
1, 457382, Control_c, 0, 64, 86
1, 457396, Control_c, 0, 64, 90
1, 457411, Control_c, 0, 64, 94
1, 457426, Control_c, 0, 64, 100
1, 457441, Control_c, 0, 64, 107
1, 457456, Control_c, 0, 64, 116
1, 457471, Control_c, 0, 64, 127
1, 457485, Note_off_c, 0, 63, 54
1, 457528, Note_on_c, 0, 55, 74
1, 457556, Note_off_c, 0, 57, 60
1, 457575, Control_c, 0, 64, 124
1, 457590, Control_c, 0, 64, 112
1, 457604, Control_c, 0, 64, 109
1, 457634, Control_c, 0, 64, 107
1, 457697, Note_on_c, 0, 53, 70
1, 457727, Note_off_c, 0, 55, 59
1, 457786, Note_off_c, 0, 72, 28
1, 457856, Control_c, 0, 64, 104
1, 457870, Control_c, 0, 64, 97
1, 457880, Note_off_c, 0, 53, 60
1, 457885, Control_c, 0, 64, 89
1, 457891, Note_on_c, 0, 72, 69
1, 457900, Control_c, 0, 64, 80
1, 457905, Note_on_c, 0, 55, 50
1, 457915, Control_c, 0, 64, 71
1, 457930, Control_c, 0, 64, 61
1, 457942, Note_on_c, 0, 69, 39
1, 457945, Control_c, 0, 64, 51
1, 457960, Control_c, 0, 64, 37
1, 457975, Control_c, 0, 64, 0
1, 458111, Note_on_c, 0, 51, 46
1, 458111, Note_off_c, 0, 55, 55
1, 458116, Control_c, 0, 64, 41
1, 458131, Control_c, 0, 64, 54
1, 458145, Control_c, 0, 64, 63
1, 458160, Control_c, 0, 64, 69
1, 458175, Control_c, 0, 64, 74
1, 458190, Control_c, 0, 64, 77
1, 458205, Control_c, 0, 64, 80
1, 458219, Control_c, 0, 64, 83
1, 458234, Control_c, 0, 64, 85
1, 458249, Control_c, 0, 64, 87
1, 458262, Note_off_c, 0, 72, 56
1, 458264, Control_c, 0, 64, 88
1, 458275, Note_off_c, 0, 69, 37
1, 458279, Control_c, 0, 64, 88
1, 458368, Control_c, 0, 64, 88
1, 458383, Control_c, 0, 64, 87
1, 458395, Note_on_c, 0, 69, 51
1, 458397, Note_on_c, 0, 72, 50
1, 458398, Control_c, 0, 64, 85
1, 458400, Note_on_c, 0, 53, 42
1, 458413, Control_c, 0, 64, 81
1, 458427, Control_c, 0, 64, 74
1, 458442, Control_c, 0, 64, 65
1, 458457, Control_c, 0, 64, 52
1, 458472, Control_c, 0, 64, 39
1, 458482, Note_off_c, 0, 51, 33
1, 458487, Control_c, 0, 64, 30
1, 458501, Control_c, 0, 64, 32
1, 458516, Control_c, 0, 64, 37
1, 458531, Control_c, 0, 64, 45
1, 458545, Control_c, 0, 64, 55
1, 458560, Control_c, 0, 64, 62
1, 458575, Control_c, 0, 64, 69
1, 458590, Control_c, 0, 64, 74
1, 458605, Control_c, 0, 64, 76
1, 458619, Control_c, 0, 64, 78
1, 458634, Control_c, 0, 64, 79
1, 458649, Control_c, 0, 64, 80
1, 458663, Control_c, 0, 64, 81
1, 458678, Control_c, 0, 64, 82
1, 458693, Control_c, 0, 64, 82
1, 458821, Control_c, 0, 64, 81
1, 458836, Control_c, 0, 64, 80
1, 458850, Control_c, 0, 64, 78
1, 458862, Note_off_c, 0, 53, 50
1, 458865, Control_c, 0, 64, 76
1, 458872, Note_on_c, 0, 51, 46
1, 458880, Control_c, 0, 64, 73
1, 458895, Control_c, 0, 64, 69
1, 458910, Control_c, 0, 64, 65
1, 458924, Control_c, 0, 64, 62
1, 458939, Control_c, 0, 64, 59
1, 458954, Control_c, 0, 64, 58
1, 458967, Note_off_c, 0, 51, 58
1, 458969, Control_c, 0, 64, 57
1, 458998, Control_c, 0, 64, 57
1, 459006, Note_on_c, 0, 53, 41
1, 459013, Control_c, 0, 64, 56
1, 459028, Control_c, 0, 64, 56
1, 459043, Control_c, 0, 64, 55
1, 459057, Control_c, 0, 64, 54
1, 459065, Note_off_c, 0, 53, 57
1, 459072, Control_c, 0, 64, 52
1, 459087, Control_c, 0, 64, 51
1, 459102, Control_c, 0, 64, 50
1, 459103, Note_on_c, 0, 51, 42
1, 459116, Control_c, 0, 64, 49
1, 459131, Control_c, 0, 64, 47
1, 459146, Control_c, 0, 64, 45
1, 459158, Note_off_c, 0, 51, 56
1, 459161, Control_c, 0, 64, 42
1, 459176, Control_c, 0, 64, 39
1, 459191, Control_c, 0, 64, 35
1, 459196, Note_on_c, 0, 74, 43
1, 459202, Note_off_c, 0, 72, 38
1, 459203, Note_on_c, 0, 53, 42
1, 459206, Control_c, 0, 64, 30
1, 459221, Control_c, 0, 64, 0
1, 459271, Note_off_c, 0, 53, 50
1, 459287, Note_on_c, 0, 51, 39
1, 459292, Note_off_c, 0, 74, 55
1, 459307, Note_on_c, 0, 72, 47
1, 459349, Note_off_c, 0, 51, 55
1, 459385, Note_off_c, 0, 72, 56
1, 459401, Note_on_c, 0, 50, 27
1, 459402, Note_on_c, 0, 71, 42
1, 459479, Note_off_c, 0, 71, 62
1, 459484, Note_off_c, 0, 50, 41
1, 459501, Note_on_c, 0, 51, 25
1, 459531, Note_on_c, 0, 72, 26
1, 459728, Note_on_c, 0, 77, 41
1, 459750, Note_on_c, 0, 70, 34
1, 459774, Note_on_c, 0, 50, 26
1, 459804, Note_off_c, 0, 51, 37
1, 459831, Note_off_c, 0, 69, 43
1, 459880, Note_off_c, 0, 72, 30
1, 460063, Note_off_c, 0, 70, 35
1, 460073, Control_c, 0, 64, 33
1, 460088, Control_c, 0, 64, 45
1, 460103, Control_c, 0, 64, 56
1, 460118, Control_c, 0, 64, 61
1, 460133, Control_c, 0, 64, 63
1, 460148, Control_c, 0, 64, 65
1, 460163, Control_c, 0, 64, 67
1, 460178, Control_c, 0, 64, 68
1, 460187, Note_off_c, 0, 50, 41
1, 460192, Control_c, 0, 64, 69
1, 460207, Control_c, 0, 64, 70
1, 460280, Note_on_c, 0, 65, 35
1, 460281, Control_c, 0, 64, 69
1, 460296, Control_c, 0, 64, 67
1, 460318, Control_c, 0, 64, 61
1, 460333, Control_c, 0, 64, 55
1, 460348, Control_c, 0, 64, 52
1, 460362, Control_c, 0, 64, 50
1, 460377, Control_c, 0, 64, 46
1, 460392, Control_c, 0, 64, 40
1, 460407, Control_c, 0, 64, 0
1, 460570, Control_c, 0, 67, 115
1, 460585, Control_c, 0, 67, 98
1, 460600, Control_c, 0, 67, 84
1, 460614, Control_c, 0, 67, 69
1, 460629, Control_c, 0, 67, 50
1, 460644, Control_c, 0, 67, 0
1, 460665, Note_on_c, 0, 70, 59
1, 460703, Control_c, 0, 64, 31
1, 460718, Control_c, 0, 64, 36
1, 460733, Control_c, 0, 64, 42
1, 460747, Control_c, 0, 64, 47
1, 460762, Control_c, 0, 64, 53
1, 460777, Control_c, 0, 64, 56
1, 460792, Control_c, 0, 64, 59
1, 460807, Control_c, 0, 64, 61
1, 460822, Control_c, 0, 64, 62
1, 460836, Control_c, 0, 64, 63
1, 460845, Note_off_c, 0, 77, 34
1, 460851, Control_c, 0, 64, 64
1, 460866, Control_c, 0, 64, 65
1, 460881, Control_c, 0, 64, 67
1, 460896, Control_c, 0, 64, 68
1, 460911, Control_c, 0, 64, 69
1, 460926, Control_c, 0, 64, 70
1, 460940, Control_c, 0, 64, 72
1, 460955, Control_c, 0, 64, 73
1, 460970, Control_c, 0, 64, 75
1, 460985, Control_c, 0, 64, 77
1, 461000, Control_c, 0, 64, 79
1, 461014, Control_c, 0, 64, 82
1, 461021, Note_on_c, 0, 74, 76
1, 461029, Control_c, 0, 64, 86
1, 461044, Control_c, 0, 64, 91
1, 461066, Control_c, 0, 64, 96
1, 461081, Control_c, 0, 64, 105
1, 461096, Control_c, 0, 64, 127
1, 461183, Note_off_c, 0, 65, 37
1, 461313, Note_off_c, 0, 70, 52
1, 461425, Note_on_c, 0, 77, 73
1, 461433, Note_on_c, 0, 57, 54
1, 461448, Note_on_c, 0, 53, 46
1, 461462, Note_on_c, 0, 51, 42
1, 461466, Note_on_c, 0, 48, 51
1, 461467, Control_c, 0, 64, 109
1, 461482, Control_c, 0, 64, 95
1, 461496, Control_c, 0, 64, 85
1, 461511, Control_c, 0, 64, 76
1, 461526, Control_c, 0, 64, 68
1, 461541, Control_c, 0, 64, 58
1, 461556, Control_c, 0, 64, 49
1, 461570, Control_c, 0, 64, 37
1, 461585, Control_c, 0, 64, 0
1, 461594, Note_off_c, 0, 74, 53
1, 461888, Note_on_c, 0, 75, 48
1, 462014, Note_off_c, 0, 77, 60
1, 462237, Note_on_c, 0, 74, 50
1, 462300, Note_off_c, 0, 75, 49
1, 462380, Note_off_c, 0, 74, 61
1, 462408, Note_on_c, 0, 72, 36
1, 462584, Note_on_c, 0, 70, 52
1, 462590, Note_off_c, 0, 72, 37
1, 462742, Note_on_c, 0, 69, 53
1, 462780, Note_off_c, 0, 70, 47
1, 462930, Note_on_c, 0, 67, 55
1, 463007, Note_off_c, 0, 69, 59
1, 463142, Control_c, 0, 64, 38
1, 463157, Control_c, 0, 64, 52
1, 463172, Control_c, 0, 64, 61
1, 463187, Control_c, 0, 64, 64
1, 463202, Control_c, 0, 64, 66
1, 463216, Control_c, 0, 64, 68
1, 463231, Control_c, 0, 64, 71
1, 463246, Control_c, 0, 64, 74
1, 463260, Control_c, 0, 64, 78
1, 463275, Control_c, 0, 64, 84
1, 463280, Note_on_c, 0, 65, 58
1, 463290, Control_c, 0, 64, 91
1, 463311, Note_off_c, 0, 53, 40
1, 463313, Control_c, 0, 64, 101
1, 463317, Note_off_c, 0, 67, 36
1, 463328, Control_c, 0, 64, 127
1, 463333, Note_off_c, 0, 51, 53
1, 463392, Note_off_c, 0, 48, 59
1, 463451, Note_off_c, 0, 57, 56
1, 463665, Note_on_c, 0, 79, 78
1, 463685, Note_on_c, 0, 59, 65
1, 463699, Control_c, 0, 64, 104
1, 463700, Note_on_c, 0, 55, 51
1, 463704, Note_on_c, 0, 50, 56
1, 463706, Note_on_c, 0, 53, 53
1, 463714, Control_c, 0, 64, 88
1, 463729, Control_c, 0, 64, 76
1, 463744, Control_c, 0, 64, 66
1, 463758, Control_c, 0, 64, 55
1, 463773, Control_c, 0, 64, 43
1, 463788, Control_c, 0, 64, 0
1, 463873, Note_off_c, 0, 65, 42
1, 464142, Note_on_c, 0, 77, 58
1, 464196, Control_c, 0, 64, 29
1, 464211, Control_c, 0, 64, 34
1, 464226, Control_c, 0, 64, 41
1, 464240, Control_c, 0, 64, 47
1, 464255, Control_c, 0, 64, 53
1, 464270, Control_c, 0, 64, 58
1, 464284, Control_c, 0, 64, 61
1, 464299, Control_c, 0, 64, 62
1, 464314, Control_c, 0, 64, 63
1, 464329, Control_c, 0, 64, 64
1, 464358, Control_c, 0, 64, 64
1, 464373, Control_c, 0, 64, 65
1, 464389, Control_c, 0, 64, 66
1, 464404, Control_c, 0, 64, 66
1, 464419, Control_c, 0, 64, 67
1, 464434, Control_c, 0, 64, 67
1, 464481, Note_on_c, 0, 75, 60
1, 464493, Control_c, 0, 64, 68
1, 464522, Control_c, 0, 64, 69
1, 464537, Control_c, 0, 64, 69
1, 464552, Control_c, 0, 64, 71
1, 464567, Control_c, 0, 64, 72
1, 464581, Control_c, 0, 64, 73
1, 464596, Control_c, 0, 64, 75
1, 464611, Control_c, 0, 64, 77
1, 464626, Control_c, 0, 64, 78
1, 464641, Control_c, 0, 64, 79
1, 464644, Note_on_c, 0, 74, 67
1, 464656, Control_c, 0, 64, 80
1, 464670, Control_c, 0, 64, 81
1, 464721, Note_off_c, 0, 77, 62
1, 464741, Note_off_c, 0, 79, 54
1, 464748, Note_off_c, 0, 75, 62
1, 464798, Note_on_c, 0, 72, 65
1, 464818, Note_off_c, 0, 74, 60
1, 464855, Control_c, 0, 64, 80
1, 464870, Control_c, 0, 64, 80
1, 464885, Control_c, 0, 64, 79
1, 464899, Control_c, 0, 64, 78
1, 464914, Control_c, 0, 64, 76
1, 464929, Control_c, 0, 64, 73
1, 464944, Control_c, 0, 64, 70
1, 464959, Control_c, 0, 64, 66
1, 464961, Note_on_c, 0, 71, 75
1, 464974, Control_c, 0, 64, 61
1, 464988, Control_c, 0, 64, 54
1, 464990, Note_off_c, 0, 72, 57
1, 465003, Control_c, 0, 64, 48
1, 465018, Control_c, 0, 64, 42
1, 465033, Control_c, 0, 64, 34
1, 465048, Control_c, 0, 64, 0
1, 465132, Note_on_c, 0, 68, 69
1, 465215, Note_off_c, 0, 71, 56
1, 465389, Control_c, 0, 64, 33
1, 465403, Control_c, 0, 64, 45
1, 465418, Control_c, 0, 64, 56
1, 465433, Control_c, 0, 64, 62
1, 465448, Control_c, 0, 64, 65
1, 465463, Control_c, 0, 64, 68
1, 465466, Note_on_c, 0, 67, 75
1, 465478, Control_c, 0, 64, 71
1, 465493, Control_c, 0, 64, 75
1, 465498, Note_off_c, 0, 68, 60
1, 465508, Control_c, 0, 64, 81
1, 465522, Control_c, 0, 64, 89
1, 465537, Control_c, 0, 64, 104
1, 465552, Control_c, 0, 64, 127
1, 465660, Note_off_c, 0, 53, 54
1, 465660, Note_off_c, 0, 59, 55
1, 465677, Note_off_c, 0, 55, 49
1, 465759, Note_off_c, 0, 50, 52
1, 465915, Note_on_c, 0, 80, 87
1, 465934, Note_on_c, 0, 60, 64
1, 465946, Note_on_c, 0, 55, 52
1, 465955, Note_on_c, 0, 51, 52
1, 465974, Control_c, 0, 64, 115
1, 465990, Control_c, 0, 64, 90
1, 466005, Control_c, 0, 64, 75
1, 466020, Control_c, 0, 64, 63
1, 466034, Control_c, 0, 64, 47
1, 466049, Control_c, 0, 64, 0
1, 466212, Control_c, 0, 64, 30
1, 466226, Control_c, 0, 64, 39
1, 466241, Control_c, 0, 64, 50
1, 466256, Control_c, 0, 64, 57
1, 466271, Control_c, 0, 64, 60
1, 466286, Control_c, 0, 64, 61
1, 466308, Control_c, 0, 64, 62
1, 466336, Note_off_c, 0, 67, 25
1, 466354, Control_c, 0, 64, 61
1, 466394, Note_on_c, 0, 79, 68
1, 466494, Note_off_c, 0, 80, 55
1, 466516, Control_c, 0, 64, 62
1, 466546, Control_c, 0, 64, 62
1, 466575, Control_c, 0, 64, 63
1, 466724, Control_c, 0, 64, 62
1, 466762, Note_on_c, 0, 77, 70
1, 466813, Control_c, 0, 64, 62
1, 466858, Control_c, 0, 64, 61
1, 466888, Control_c, 0, 64, 61
1, 466902, Control_c, 0, 64, 59
1, 466917, Control_c, 0, 64, 58
1, 466932, Control_c, 0, 64, 56
1, 466947, Control_c, 0, 64, 53
1, 466962, Control_c, 0, 64, 50
1, 466976, Control_c, 0, 64, 47
1, 466986, Note_on_c, 0, 75, 71
1, 466991, Control_c, 0, 64, 45
1, 467006, Control_c, 0, 64, 41
1, 467021, Control_c, 0, 64, 35
1, 467036, Control_c, 0, 64, 0
1, 467173, Note_on_c, 0, 74, 74
1, 467297, Note_off_c, 0, 77, 52
1, 467309, Note_off_c, 0, 79, 48
1, 467322, Note_on_c, 0, 72, 72
1, 467329, Note_off_c, 0, 75, 61
1, 467354, Control_c, 0, 64, 30
1, 467360, Note_off_c, 0, 74, 64
1, 467442, Control_c, 0, 64, 0
1, 467481, Note_on_c, 0, 71, 75
1, 467526, Note_off_c, 0, 72, 59
1, 467639, Note_on_c, 0, 72, 76
1, 467696, Note_off_c, 0, 71, 58
1, 467806, Note_on_c, 0, 74, 79
1, 467806, Control_c, 0, 64, 32
1, 467821, Control_c, 0, 64, 45
1, 467836, Control_c, 0, 64, 53
1, 467851, Note_off_c, 0, 72, 61
1, 467851, Control_c, 0, 64, 55
1, 467865, Control_c, 0, 64, 53
1, 467880, Control_c, 0, 64, 45
1, 467895, Control_c, 0, 64, 33
1, 467910, Control_c, 0, 64, 0
1, 467940, Control_c, 0, 64, 36
1, 467940, Control_c, 0, 67, 38
1, 467955, Control_c, 0, 64, 51
1, 467955, Control_c, 0, 67, 54
1, 467970, Control_c, 0, 64, 63
1, 467970, Control_c, 0, 67, 72
1, 467971, Note_on_c, 0, 75, 72
1, 467981, Note_off_c, 0, 74, 57
1, 467985, Control_c, 0, 64, 67
1, 467985, Control_c, 0, 67, 94
1, 467997, Note_off_c, 0, 55, 58
1, 468000, Control_c, 0, 64, 69
1, 468000, Control_c, 0, 67, 116
1, 468013, Note_off_c, 0, 51, 55
1, 468014, Control_c, 0, 64, 72
1, 468014, Control_c, 0, 67, 127
1, 468029, Control_c, 0, 64, 74
1, 468044, Control_c, 0, 64, 77
1, 468057, Note_off_c, 0, 60, 60
1, 468058, Control_c, 0, 64, 79
1, 468073, Control_c, 0, 64, 81
1, 468088, Control_c, 0, 64, 81
1, 468162, Control_c, 0, 64, 81
1, 468177, Control_c, 0, 64, 80
1, 468192, Control_c, 0, 64, 79
1, 468206, Control_c, 0, 64, 76
1, 468211, Note_on_c, 0, 70, 62
1, 468221, Control_c, 0, 64, 73
1, 468234, Note_on_c, 0, 53, 42
1, 468236, Control_c, 0, 64, 67
1, 468250, Control_c, 0, 64, 60
1, 468251, Note_on_c, 0, 62, 47
1, 468265, Control_c, 0, 64, 51
1, 468280, Control_c, 0, 64, 40
1, 468295, Control_c, 0, 64, 29
1, 468303, Note_off_c, 0, 75, 60
1, 468310, Control_c, 0, 64, 0
1, 468585, Control_c, 0, 64, 34
1, 468599, Control_c, 0, 64, 48
1, 468614, Control_c, 0, 64, 60
1, 468629, Control_c, 0, 64, 65
1, 468643, Control_c, 0, 64, 68
1, 468658, Control_c, 0, 64, 70
1, 468673, Control_c, 0, 64, 71
1, 468680, Note_off_c, 0, 70, 59
1, 468688, Control_c, 0, 64, 75
1, 468703, Control_c, 0, 64, 78
1, 468718, Control_c, 0, 64, 80
1, 468733, Control_c, 0, 64, 82
1, 468748, Control_c, 0, 64, 84
1, 468762, Control_c, 0, 64, 85
1, 468910, Note_on_c, 0, 72, 45
1, 468940, Control_c, 0, 64, 84
1, 468954, Control_c, 0, 64, 83
1, 468969, Control_c, 0, 64, 82
1, 468984, Control_c, 0, 64, 80
1, 468999, Control_c, 0, 64, 77
1, 469002, Note_on_c, 0, 70, 50
1, 469014, Control_c, 0, 64, 74
1, 469028, Control_c, 0, 64, 70
1, 469043, Note_off_c, 0, 72, 35
1, 469043, Control_c, 0, 64, 64
1, 469058, Control_c, 0, 64, 58
1, 469073, Control_c, 0, 64, 52
1, 469088, Control_c, 0, 64, 47
1, 469089, Note_on_c, 0, 60, 30
1, 469102, Note_off_c, 0, 62, 33
1, 469102, Control_c, 0, 64, 42
1, 469106, Note_on_c, 0, 69, 41
1, 469117, Control_c, 0, 64, 38
1, 469128, Note_off_c, 0, 70, 52
1, 469132, Control_c, 0, 64, 33
1, 469147, Control_c, 0, 64, 0
1, 469526, Control_c, 0, 64, 36
1, 469541, Control_c, 0, 64, 47
1, 469556, Control_c, 0, 64, 56
1, 469570, Control_c, 0, 64, 62
1, 469570, Control_c, 0, 67, 111
1, 469585, Control_c, 0, 64, 64
1, 469585, Control_c, 0, 67, 91
1, 469600, Control_c, 0, 64, 66
1, 469600, Control_c, 0, 67, 69
1, 469615, Control_c, 0, 64, 67
1, 469615, Control_c, 0, 67, 39
1, 469629, Control_c, 0, 64, 69
1, 469629, Control_c, 0, 67, 0
1, 469636, Note_off_c, 0, 60, 30
1, 469644, Control_c, 0, 64, 70
1, 469659, Control_c, 0, 64, 72
1, 469674, Control_c, 0, 64, 74
1, 469689, Control_c, 0, 64, 76
1, 469703, Control_c, 0, 64, 78
1, 469705, Note_off_c, 0, 69, 23
1, 469718, Control_c, 0, 64, 80
1, 469733, Control_c, 0, 64, 81
1, 469763, Control_c, 0, 64, 81
1, 469781, Note_off_c, 0, 53, 27
1, 469807, Control_c, 0, 64, 81
1, 469836, Control_c, 0, 64, 79
1, 469851, Control_c, 0, 64, 77
1, 469866, Control_c, 0, 64, 73
1, 469881, Control_c, 0, 64, 67
1, 469895, Control_c, 0, 64, 61
1, 469910, Control_c, 0, 64, 52
1, 469925, Control_c, 0, 64, 47
1, 469940, Control_c, 0, 64, 43
1, 469955, Control_c, 0, 64, 41
1, 470171, Control_c, 0, 64, 41
1, 470514, Note_on_c, 0, 70, 49
1, 470551, Note_off_c, 0, 70, 58
1, 470556, Control_c, 0, 64, 40
1, 470571, Control_c, 0, 64, 40
1, 470586, Control_c, 0, 64, 39
1, 470600, Control_c, 0, 64, 38
1, 470609, Note_on_c, 0, 82, 55
1, 470615, Control_c, 0, 64, 37
1, 470630, Control_c, 0, 64, 36
1, 470659, Control_c, 0, 64, 36
1, 470674, Control_c, 0, 64, 35
1, 471351, Note_on_c, 0, 81, 50
1, 471453, Note_off_c, 0, 82, 56
1, 471496, Control_c, 0, 64, 35
1, 471816, Control_c, 0, 64, 34
1, 472045, Note_on_c, 0, 82, 42
1, 472053, Control_c, 0, 64, 34
1, 472083, Control_c, 0, 64, 33
1, 472127, Control_c, 0, 64, 33
1, 472151, Note_off_c, 0, 81, 49
1, 472157, Control_c, 0, 64, 32
1, 472565, Control_c, 0, 64, 32
1, 472639, Control_c, 0, 67, 41
1, 472653, Control_c, 0, 67, 63
1, 472668, Control_c, 0, 67, 83
1, 472683, Control_c, 0, 67, 100
1, 472698, Control_c, 0, 64, 30
1, 472698, Control_c, 0, 67, 116
1, 472713, Control_c, 0, 67, 127
1, 472770, Note_on_c, 0, 77, 69
1, 472787, Control_c, 0, 64, 0
1, 472954, Note_on_c, 0, 64, 43
1, 473085, Note_off_c, 0, 64, 52
1, 473130, Note_on_c, 0, 65, 36
1, 473251, Note_off_c, 0, 65, 56
1, 473285, Note_on_c, 0, 61, 41
1, 473411, Note_off_c, 0, 61, 61
1, 473463, Note_on_c, 0, 62, 40
1, 473616, Note_on_c, 0, 57, 49
1, 473661, Note_off_c, 0, 62, 36
1, 473690, Note_off_c, 0, 82, 32
1, 473759, Note_off_c, 0, 57, 60
1, 473780, Note_on_c, 0, 58, 53
1, 473928, Note_off_c, 0, 58, 62
1, 473963, Note_on_c, 0, 52, 36
1, 474121, Note_off_c, 0, 52, 62
1, 474134, Note_on_c, 0, 53, 36
1, 474284, Note_on_c, 0, 49, 44
1, 474298, Note_off_c, 0, 53, 37
1, 474432, Note_off_c, 0, 49, 51
1, 474438, Note_on_c, 0, 50, 41
1, 474604, Note_off_c, 0, 50, 46
1, 474615, Note_on_c, 0, 46, 45
1, 474801, Note_on_c, 0, 84, 51
1, 474893, Note_off_c, 0, 77, 49
1, 475157, Note_on_c, 0, 45, 34
1, 475223, Note_off_c, 0, 46, 36
1, 475523, Note_on_c, 0, 83, 50
1, 475621, Note_off_c, 0, 84, 51
1, 475857, Note_on_c, 0, 44, 36
1, 475911, Note_off_c, 0, 45, 34
1, 476216, Note_on_c, 0, 84, 52
1, 476316, Note_off_c, 0, 83, 58
1, 476546, Note_on_c, 0, 45, 39
1, 476585, Note_off_c, 0, 44, 41
1, 476635, Control_c, 0, 64, 34
1, 476650, Control_c, 0, 64, 51
1, 476665, Control_c, 0, 64, 61
1, 476680, Control_c, 0, 64, 65
1, 476680, Control_c, 0, 67, 96
1, 476695, Control_c, 0, 64, 67
1, 476695, Control_c, 0, 67, 59
1, 476710, Control_c, 0, 64, 71
1, 476710, Control_c, 0, 67, 0
1, 476715, Note_off_c, 0, 45, 56
1, 476725, Control_c, 0, 64, 76
1, 476740, Control_c, 0, 64, 85
1, 476754, Control_c, 0, 64, 94
1, 476769, Control_c, 0, 64, 108
1, 476784, Control_c, 0, 64, 127
1, 476985, Note_on_c, 0, 77, 72
1, 477170, Note_on_c, 0, 71, 43
1, 477281, Control_c, 0, 64, 111
1, 477296, Control_c, 0, 64, 102
1, 477310, Control_c, 0, 64, 95
1, 477325, Control_c, 0, 64, 90
1, 477326, Note_on_c, 0, 72, 55
1, 477340, Control_c, 0, 64, 85
1, 477355, Control_c, 0, 64, 81
1, 477355, Control_c, 0, 67, 36
1, 477370, Control_c, 0, 64, 78
1, 477370, Control_c, 0, 67, 47
1, 477377, Note_off_c, 0, 71, 35
1, 477384, Control_c, 0, 64, 74
1, 477384, Control_c, 0, 67, 62
1, 477399, Control_c, 0, 64, 71
1, 477399, Control_c, 0, 67, 75
1, 477414, Control_c, 0, 64, 68
1, 477414, Control_c, 0, 67, 88
1, 477429, Control_c, 0, 64, 65
1, 477429, Control_c, 0, 67, 103
1, 477443, Control_c, 0, 64, 63
1, 477443, Control_c, 0, 67, 116
1, 477458, Control_c, 0, 64, 61
1, 477458, Control_c, 0, 67, 127
1, 477477, Note_off_c, 0, 72, 58
1, 477479, Note_on_c, 0, 68, 56
1, 477488, Control_c, 0, 64, 61
1, 477518, Control_c, 0, 64, 60
1, 477555, Control_c, 0, 64, 60
1, 477569, Control_c, 0, 64, 59
1, 477584, Control_c, 0, 64, 59
1, 477614, Control_c, 0, 64, 58
1, 477622, Note_off_c, 0, 68, 62
1, 477629, Control_c, 0, 64, 58
1, 477643, Note_on_c, 0, 69, 65
1, 477643, Control_c, 0, 64, 57
1, 477658, Control_c, 0, 64, 57
1, 477673, Control_c, 0, 64, 56
1, 477688, Control_c, 0, 64, 55
1, 477703, Control_c, 0, 64, 55
1, 477717, Control_c, 0, 64, 54
1, 477732, Control_c, 0, 64, 54
1, 477747, Control_c, 0, 64, 53
1, 477762, Control_c, 0, 64, 51
1, 477777, Control_c, 0, 64, 49
1, 477792, Control_c, 0, 64, 47
1, 477807, Control_c, 0, 64, 45
1, 477809, Note_on_c, 0, 62, 53
1, 477822, Control_c, 0, 64, 42
1, 477837, Control_c, 0, 64, 37
1, 477851, Control_c, 0, 64, 32
1, 477866, Control_c, 0, 64, 0
1, 477866, Note_off_c, 0, 69, 38
1, 477951, Note_off_c, 0, 62, 62
1, 477961, Note_on_c, 0, 63, 62
1, 478129, Note_off_c, 0, 63, 61
1, 478131, Note_on_c, 0, 59, 53
1, 478201, Note_off_c, 0, 84, 48
1, 478269, Note_off_c, 0, 59, 64
1, 478296, Note_on_c, 0, 60, 56
1, 478451, Note_on_c, 0, 56, 50
1, 478460, Note_off_c, 0, 60, 53
1, 478612, Note_on_c, 0, 84, 71
1, 478618, Note_off_c, 0, 56, 56
1, 478623, Note_on_c, 0, 57, 48
1, 478779, Note_off_c, 0, 57, 57
1, 478783, Note_on_c, 0, 51, 53
1, 478995, Note_on_c, 0, 50, 48
1, 479021, Note_off_c, 0, 51, 37
1, 479393, Note_on_c, 0, 83, 67
1, 479499, Note_off_c, 0, 84, 35
1, 479722, Note_on_c, 0, 49, 46
1, 479755, Note_off_c, 0, 50, 56
1, 479950, Control_c, 0, 67, 121
1, 479964, Control_c, 0, 67, 107
1, 479979, Control_c, 0, 67, 94
1, 479994, Control_c, 0, 67, 84
1, 480009, Control_c, 0, 67, 75
1, 480024, Control_c, 0, 67, 67
1, 480038, Control_c, 0, 67, 61
1, 480053, Control_c, 0, 67, 55
1, 480068, Control_c, 0, 67, 50
1, 480072, Note_on_c, 0, 82, 61
1, 480083, Control_c, 0, 67, 42
1, 480098, Control_c, 0, 67, 37
1, 480112, Control_c, 0, 67, 0
1, 480203, Note_off_c, 0, 83, 56
1, 480402, Note_off_c, 0, 77, 18
1, 480415, Note_on_c, 0, 50, 38
1, 480445, Note_off_c, 0, 49, 52
1, 480484, Control_c, 0, 64, 38
1, 480498, Control_c, 0, 64, 47
1, 480513, Control_c, 0, 64, 54
1, 480528, Control_c, 0, 64, 60
1, 480550, Control_c, 0, 64, 61
1, 480565, Control_c, 0, 64, 63
1, 480580, Control_c, 0, 64, 64
1, 480594, Control_c, 0, 64, 65
1, 480609, Control_c, 0, 64, 66
1, 480624, Control_c, 0, 64, 68
1, 480639, Control_c, 0, 64, 70
1, 480654, Control_c, 0, 64, 71
1, 480668, Control_c, 0, 64, 73
1, 480683, Control_c, 0, 64, 76
1, 480698, Control_c, 0, 64, 79
1, 480713, Control_c, 0, 64, 82
1, 480728, Control_c, 0, 64, 85
1, 480743, Control_c, 0, 64, 89
1, 480758, Control_c, 0, 64, 93
1, 480773, Control_c, 0, 64, 98
1, 480787, Control_c, 0, 64, 105
1, 480791, Note_on_c, 0, 83, 56
1, 480802, Control_c, 0, 64, 117
1, 480817, Control_c, 0, 64, 127
1, 480857, Note_off_c, 0, 50, 43
1, 480913, Note_off_c, 0, 82, 62
1, 481223, Note_on_c, 0, 50, 76
1, 481236, Note_on_c, 0, 44, 64
1, 481236, Note_on_c, 0, 47, 70
1, 481239, Note_on_c, 0, 41, 65
1, 481277, Control_c, 0, 64, 117
1, 481299, Control_c, 0, 64, 101
1, 481314, Control_c, 0, 64, 91
1, 481329, Control_c, 0, 64, 83
1, 481344, Control_c, 0, 64, 74
1, 481359, Control_c, 0, 64, 67
1, 481373, Control_c, 0, 64, 61
1, 481388, Control_c, 0, 64, 54
1, 481403, Control_c, 0, 64, 49
1, 481417, Control_c, 0, 64, 46
1, 481432, Control_c, 0, 64, 43
1, 481447, Control_c, 0, 64, 41
1, 481462, Control_c, 0, 64, 40
1, 481477, Control_c, 0, 64, 38
1, 481491, Control_c, 0, 64, 38
1, 481496, Note_on_c, 0, 77, 59
1, 481551, Control_c, 0, 64, 40
1, 481566, Control_c, 0, 64, 42
1, 481581, Control_c, 0, 64, 47
1, 481595, Control_c, 0, 64, 52
1, 481609, Note_off_c, 0, 83, 60
1, 481610, Control_c, 0, 64, 58
1, 481625, Control_c, 0, 64, 62
1, 481640, Control_c, 0, 64, 64
1, 481655, Control_c, 0, 64, 66
1, 481670, Control_c, 0, 64, 68
1, 481675, Note_on_c, 0, 80, 59
1, 481684, Control_c, 0, 64, 69
1, 481699, Note_off_c, 0, 77, 61
1, 481699, Control_c, 0, 64, 69
1, 481714, Control_c, 0, 64, 70
1, 481728, Control_c, 0, 64, 71
1, 481743, Control_c, 0, 64, 72
1, 481758, Control_c, 0, 64, 73
1, 481773, Control_c, 0, 64, 74
1, 481788, Control_c, 0, 64, 75
1, 481802, Control_c, 0, 64, 75
1, 481817, Control_c, 0, 64, 76
1, 481831, Note_on_c, 0, 74, 62
1, 481832, Control_c, 0, 64, 77
1, 481841, Note_off_c, 0, 80, 63
1, 481847, Control_c, 0, 64, 78
1, 481862, Control_c, 0, 64, 80
1, 481876, Control_c, 0, 64, 81
1, 481891, Control_c, 0, 64, 82
1, 481906, Control_c, 0, 64, 83
1, 481921, Control_c, 0, 64, 85
1, 481935, Control_c, 0, 64, 86
1, 481952, Control_c, 0, 64, 88
1, 481967, Control_c, 0, 64, 89
1, 481981, Control_c, 0, 64, 91
1, 481995, Note_on_c, 0, 77, 61
1, 481996, Control_c, 0, 64, 92
1, 482011, Control_c, 0, 64, 93
1, 482033, Control_c, 0, 64, 94
1, 482048, Control_c, 0, 64, 95
1, 482060, Note_off_c, 0, 74, 53
1, 482076, Control_c, 0, 64, 98
1, 482105, Control_c, 0, 64, 100
1, 482135, Control_c, 0, 64, 103
1, 482165, Control_c, 0, 64, 107
1, 482170, Note_on_c, 0, 71, 53
1, 482180, Control_c, 0, 64, 110
1, 482195, Control_c, 0, 64, 114
1, 482210, Control_c, 0, 64, 120
1, 482223, Note_off_c, 0, 77, 59
1, 482224, Control_c, 0, 64, 127
1, 482320, Note_on_c, 0, 74, 66
1, 482366, Note_off_c, 0, 71, 54
1, 482439, Note_off_c, 0, 74, 57
1, 482476, Note_on_c, 0, 68, 59
1, 482580, Note_off_c, 0, 68, 57
1, 482629, Note_on_c, 0, 71, 65
1, 482798, Note_on_c, 0, 65, 63
1, 482960, Note_on_c, 0, 68, 61
1, 483065, Note_off_c, 0, 41, 56
1, 483088, Note_off_c, 0, 71, 36
1, 483108, Note_off_c, 0, 50, 52
1, 483121, Note_off_c, 0, 44, 59
1, 483123, Note_on_c, 0, 62, 57
1, 483149, Note_off_c, 0, 47, 40
1, 483161, Note_off_c, 0, 62, 63
1, 483161, Note_off_c, 0, 68, 54
1, 483163, Note_off_c, 0, 65, 51
1, 483309, Note_on_c, 0, 51, 93
1, 483318, Note_on_c, 0, 44, 77
1, 483319, Note_on_c, 0, 47, 75
1, 483324, Note_on_c, 0, 39, 79
1, 483344, Control_c, 0, 64, 96
1, 483359, Control_c, 0, 64, 73
1, 483374, Control_c, 0, 64, 53
1, 483388, Control_c, 0, 64, 0
1, 483505, Note_on_c, 0, 80, 73
1, 483506, Control_c, 0, 64, 31
1, 483521, Control_c, 0, 64, 46
1, 483544, Control_c, 0, 64, 59
1, 483560, Control_c, 0, 64, 65
1, 483575, Control_c, 0, 64, 71
1, 483590, Control_c, 0, 64, 78
1, 483604, Control_c, 0, 64, 84
1, 483619, Control_c, 0, 64, 95
1, 483634, Control_c, 0, 64, 127
1, 483675, Note_on_c, 0, 83, 78
1, 483833, Note_on_c, 0, 75, 76
1, 483844, Note_off_c, 0, 80, 59
1, 483853, Note_off_c, 0, 83, 58
1, 483994, Note_on_c, 0, 80, 75
1, 484052, Note_off_c, 0, 75, 61
1, 484146, Note_on_c, 0, 71, 83
1, 484163, Note_off_c, 0, 80, 56
1, 484314, Note_on_c, 0, 75, 79
1, 484481, Note_on_c, 0, 68, 74
1, 484486, Note_off_c, 0, 75, 62
1, 484487, Note_off_c, 0, 71, 58
1, 484618, Note_off_c, 0, 68, 61
1, 484636, Note_on_c, 0, 71, 79
1, 484794, Note_on_c, 0, 63, 83
1, 484951, Note_on_c, 0, 68, 78
1, 484976, Note_off_c, 0, 51, 53
1, 484993, Note_off_c, 0, 47, 56
1, 485065, Note_off_c, 0, 71, 59
1, 485073, Note_off_c, 0, 44, 60
1, 485123, Note_on_c, 0, 59, 80
1, 485137, Note_off_c, 0, 39, 62
1, 485183, Note_off_c, 0, 63, 54
1, 485189, Note_off_c, 0, 68, 61
1, 485206, Note_off_c, 0, 59, 64
1, 485361, Note_on_c, 0, 46, 90
1, 485372, Note_on_c, 0, 43, 73
1, 485373, Note_on_c, 0, 37, 82
1, 485374, Note_on_c, 0, 40, 77
1, 485398, Control_c, 0, 64, 77
1, 485413, Control_c, 0, 64, 47
1, 485428, Control_c, 0, 64, 0
1, 485517, Control_c, 0, 64, 45
1, 485531, Control_c, 0, 64, 56
1, 485546, Control_c, 0, 64, 63
1, 485561, Control_c, 0, 64, 69
1, 485575, Control_c, 0, 64, 77
1, 485590, Control_c, 0, 64, 89
1, 485605, Control_c, 0, 64, 107
1, 485620, Control_c, 0, 64, 127
1, 485678, Note_on_c, 0, 82, 91
1, 485949, Note_on_c, 0, 88, 83
1, 486150, Note_on_c, 0, 79, 80
1, 486231, Note_off_c, 0, 82, 58
1, 486322, Note_on_c, 0, 82, 88
1, 486347, Note_off_c, 0, 79, 62
1, 486364, Note_off_c, 0, 88, 62
1, 486476, Note_on_c, 0, 76, 80
1, 486482, Note_off_c, 0, 82, 61
1, 486645, Note_on_c, 0, 79, 69
1, 486715, Note_off_c, 0, 76, 58
1, 486808, Note_on_c, 0, 70, 68
1, 486964, Note_on_c, 0, 76, 62
1, 487074, Control_c, 0, 67, 44
1, 487089, Note_off_c, 0, 79, 42
1, 487089, Control_c, 0, 67, 73
1, 487103, Control_c, 0, 67, 106
1, 487117, Note_on_c, 0, 67, 65
1, 487118, Control_c, 0, 67, 127
1, 487178, Note_off_c, 0, 70, 47
1, 487207, Control_c, 0, 64, 120
1, 487221, Control_c, 0, 64, 114
1, 487236, Control_c, 0, 64, 109
1, 487247, Note_off_c, 0, 67, 60
1, 487251, Control_c, 0, 64, 104
1, 487266, Control_c, 0, 64, 101
1, 487293, Note_on_c, 0, 70, 61
1, 487336, Note_off_c, 0, 76, 60
1, 487369, Note_off_c, 0, 43, 34
1, 487384, Note_off_c, 0, 40, 33
1, 487428, Note_off_c, 0, 37, 38
1, 487492, Note_off_c, 0, 46, 55
1, 487504, Note_on_c, 0, 64, 50
1, 487674, Control_c, 0, 64, 96
1, 487689, Control_c, 0, 64, 93
1, 487704, Control_c, 0, 64, 89
1, 487718, Control_c, 0, 64, 85
1, 487733, Control_c, 0, 64, 82
1, 487748, Control_c, 0, 64, 78
1, 487763, Control_c, 0, 64, 73
1, 487769, Note_on_c, 0, 38, 46
1, 487772, Note_off_c, 0, 70, 29
1, 487778, Control_c, 0, 64, 68
1, 487793, Control_c, 0, 64, 65
1, 487808, Control_c, 0, 64, 63
1, 487823, Control_c, 0, 64, 61
1, 487837, Control_c, 0, 64, 61
1, 487852, Control_c, 0, 64, 60
1, 487867, Control_c, 0, 64, 59
1, 487882, Control_c, 0, 64, 59
1, 487882, Note_off_c, 0, 64, 41
1, 487897, Control_c, 0, 64, 58
1, 487912, Control_c, 0, 64, 56
1, 487926, Control_c, 0, 64, 55
1, 487941, Control_c, 0, 64, 53
1, 487954, Note_on_c, 0, 41, 62
1, 487956, Control_c, 0, 64, 51
1, 487970, Control_c, 0, 64, 47
1, 487985, Control_c, 0, 64, 43
1, 488000, Control_c, 0, 64, 39
1, 488015, Control_c, 0, 64, 33
1, 488025, Note_off_c, 0, 38, 39
1, 488027, Note_off_c, 0, 41, 54
1, 488037, Control_c, 0, 64, 0
1, 488116, Note_on_c, 0, 46, 68
1, 488200, Note_off_c, 0, 46, 55
1, 488281, Note_on_c, 0, 50, 63
1, 488365, Note_off_c, 0, 50, 56
1, 488432, Note_on_c, 0, 65, 57
1, 488539, Note_off_c, 0, 65, 39
1, 488603, Note_on_c, 0, 70, 58
1, 488669, Note_off_c, 0, 70, 52
1, 488762, Note_on_c, 0, 74, 54
1, 488869, Note_off_c, 0, 74, 46
1, 488952, Note_on_c, 0, 77, 39
1, 489015, Note_off_c, 0, 77, 42
1, 489110, Note_on_c, 0, 39, 40
1, 489197, Note_off_c, 0, 39, 56
1, 489267, Note_on_c, 0, 67, 49
1, 489408, Note_off_c, 0, 67, 30
1, 489443, Note_on_c, 0, 70, 44
1, 489549, Note_off_c, 0, 70, 38
1, 489610, Note_on_c, 0, 79, 45
1, 489720, Note_off_c, 0, 79, 59
1, 489764, Note_on_c, 0, 41, 40
1, 489899, Note_off_c, 0, 41, 37
1, 489930, Note_on_c, 0, 46, 47
1, 490097, Note_off_c, 0, 46, 35
1, 490101, Note_on_c, 0, 50, 51
1, 490183, Note_off_c, 0, 50, 56
1, 490255, Note_on_c, 0, 53, 51
1, 490374, Note_off_c, 0, 53, 59
1, 490435, Note_on_c, 0, 62, 45
1, 490598, Note_on_c, 0, 65, 50
1, 490642, Note_off_c, 0, 62, 34
1, 490702, Note_off_c, 0, 65, 53
1, 490761, Note_on_c, 0, 70, 52
1, 490908, Note_on_c, 0, 74, 59
1, 490941, Note_off_c, 0, 70, 38
1, 491027, Note_off_c, 0, 74, 51
1, 491063, Control_c, 0, 64, 35
1, 491077, Control_c, 0, 64, 45
1, 491083, Note_on_c, 0, 29, 39
1, 491092, Control_c, 0, 64, 55
1, 491107, Control_c, 0, 64, 61
1, 491121, Control_c, 0, 64, 63
1, 491136, Control_c, 0, 64, 66
1, 491151, Control_c, 0, 64, 68
1, 491166, Control_c, 0, 64, 71
1, 491181, Control_c, 0, 64, 73
1, 491195, Control_c, 0, 64, 75
1, 491210, Control_c, 0, 64, 78
1, 491225, Control_c, 0, 64, 81
1, 491240, Control_c, 0, 64, 85
1, 491246, Note_off_c, 0, 29, 40
1, 491254, Note_on_c, 0, 60, 39
1, 491255, Control_c, 0, 64, 89
1, 491269, Control_c, 0, 64, 94
1, 491284, Control_c, 0, 64, 99
1, 491299, Control_c, 0, 64, 104
1, 491313, Control_c, 0, 64, 112
1, 491328, Control_c, 0, 64, 127
1, 491463, Note_on_c, 0, 63, 38
1, 491484, Note_off_c, 0, 60, 36
1, 491555, Note_off_c, 0, 63, 53
1, 491653, Note_on_c, 0, 69, 50
1, 491823, Note_off_c, 0, 69, 31
1, 491921, Note_on_c, 0, 70, 47
1, 491944, Control_c, 0, 64, 106
1, 491959, Control_c, 0, 64, 91
1, 491966, Note_on_c, 0, 58, 41
1, 491968, Note_on_c, 0, 62, 28
1, 491974, Control_c, 0, 64, 81
1, 491989, Control_c, 0, 64, 71
1, 492004, Control_c, 0, 64, 62
1, 492018, Control_c, 0, 64, 50
1, 492033, Control_c, 0, 64, 38
1, 492048, Control_c, 0, 64, 0
1, 492092, Control_c, 0, 64, 33
1, 492107, Control_c, 0, 64, 41
1, 492122, Control_c, 0, 64, 52
1, 492136, Control_c, 0, 64, 61
1, 492151, Control_c, 0, 64, 67
1, 492166, Control_c, 0, 64, 71
1, 492181, Control_c, 0, 64, 74
1, 492196, Control_c, 0, 64, 77
1, 492210, Control_c, 0, 64, 81
1, 492225, Control_c, 0, 64, 86
1, 492240, Control_c, 0, 64, 92
1, 492240, Control_c, 0, 67, 120
1, 492255, Control_c, 0, 64, 99
1, 492255, Control_c, 0, 67, 104
1, 492270, Control_c, 0, 64, 108
1, 492270, Control_c, 0, 67, 89
1, 492285, Control_c, 0, 64, 127
1, 492285, Control_c, 0, 67, 78
1, 492300, Control_c, 0, 67, 72
1, 492315, Control_c, 0, 67, 69
1, 492330, Control_c, 0, 67, 68
1, 492345, Control_c, 0, 67, 67
1, 492350, Note_on_c, 0, 65, 35
1, 492354, Note_off_c, 0, 70, 49
1, 492359, Control_c, 0, 67, 65
1, 492374, Control_c, 0, 67, 65
1, 492389, Control_c, 0, 67, 63
1, 492404, Control_c, 0, 67, 63
1, 492419, Control_c, 0, 67, 62
1, 492434, Control_c, 0, 67, 50
1, 492449, Control_c, 0, 67, 37
1, 492464, Control_c, 0, 67, 0
1, 492483, Note_off_c, 0, 62, 40
1, 492689, Note_on_c, 0, 62, 32
1, 492832, Note_off_c, 0, 65, 39
1, 493045, Note_on_c, 0, 65, 36
1, 493115, Note_off_c, 0, 62, 34
1, 493415, Note_on_c, 0, 82, 61
1, 493428, Control_c, 0, 64, 111
1, 493440, Note_on_c, 0, 63, 41
1, 493443, Control_c, 0, 64, 95
1, 493458, Control_c, 0, 64, 85
1, 493465, Note_on_c, 0, 60, 39
1, 493472, Control_c, 0, 64, 77
1, 493487, Control_c, 0, 64, 69
1, 493502, Control_c, 0, 64, 65
1, 493516, Control_c, 0, 64, 65
1, 493531, Control_c, 0, 64, 65
1, 493546, Note_on_c, 0, 81, 64
1, 493546, Control_c, 0, 64, 67
1, 493548, Note_off_c, 0, 65, 38
1, 493561, Control_c, 0, 64, 69
1, 493576, Control_c, 0, 64, 72
1, 493588, Note_off_c, 0, 82, 57
1, 493591, Control_c, 0, 64, 75
1, 493606, Control_c, 0, 64, 78
1, 493620, Control_c, 0, 64, 81
1, 493635, Control_c, 0, 64, 82
1, 493650, Control_c, 0, 64, 84
1, 493659, Note_on_c, 0, 84, 75
1, 493665, Control_c, 0, 64, 85
1, 493680, Control_c, 0, 64, 87
1, 493695, Control_c, 0, 64, 90
1, 493702, Note_off_c, 0, 81, 60
1, 493710, Control_c, 0, 64, 92
1, 493724, Control_c, 0, 64, 95
1, 493739, Control_c, 0, 64, 98
1, 493754, Control_c, 0, 64, 101
1, 493769, Control_c, 0, 64, 104
1, 493769, Note_on_c, 0, 82, 76
1, 493784, Control_c, 0, 64, 108
1, 493798, Note_on_c, 0, 65, 40
1, 493798, Control_c, 0, 64, 114
1, 493813, Control_c, 0, 64, 127
1, 493871, Note_on_c, 0, 81, 81
1, 493875, Note_off_c, 0, 84, 62
1, 493901, Note_off_c, 0, 60, 34
1, 493936, Note_off_c, 0, 82, 59
1, 493939, Note_off_c, 0, 58, 37
1, 493965, Note_off_c, 0, 63, 37
1, 493975, Note_off_c, 0, 81, 62
1, 493978, Note_on_c, 0, 79, 74
1, 494127, Note_on_c, 0, 77, 81
1, 494132, Control_c, 0, 64, 114
1, 494146, Control_c, 0, 64, 100
1, 494161, Control_c, 0, 64, 91
1, 494163, Note_off_c, 0, 79, 61
1, 494168, Note_on_c, 0, 58, 41
1, 494168, Note_on_c, 0, 62, 37
1, 494176, Control_c, 0, 64, 81
1, 494191, Control_c, 0, 64, 71
1, 494206, Control_c, 0, 64, 61
1, 494220, Control_c, 0, 64, 52
1, 494235, Control_c, 0, 64, 43
1, 494250, Control_c, 0, 64, 31
1, 494265, Note_off_c, 0, 65, 29
1, 494265, Control_c, 0, 64, 0
1, 494369, Control_c, 0, 64, 34
1, 494384, Control_c, 0, 64, 45
1, 494398, Control_c, 0, 64, 57
1, 494413, Control_c, 0, 64, 64
1, 494428, Control_c, 0, 64, 68
1, 494443, Control_c, 0, 64, 71
1, 494458, Control_c, 0, 64, 73
1, 494472, Control_c, 0, 64, 75
1, 494487, Control_c, 0, 64, 77
1, 494502, Control_c, 0, 64, 79
1, 494517, Control_c, 0, 64, 82
1, 494521, Note_on_c, 0, 65, 34
1, 494532, Control_c, 0, 64, 84
1, 494546, Control_c, 0, 64, 88
1, 494561, Control_c, 0, 64, 91
1, 494576, Control_c, 0, 64, 94
1, 494591, Control_c, 0, 64, 97
1, 494606, Control_c, 0, 64, 101
1, 494620, Control_c, 0, 64, 103
1, 494635, Control_c, 0, 67, 39
1, 494644, Note_off_c, 0, 62, 41
1, 494650, Control_c, 0, 64, 105
1, 494650, Control_c, 0, 67, 44
1, 494664, Control_c, 0, 67, 48
1, 494679, Control_c, 0, 67, 54
1, 494694, Control_c, 0, 64, 107
1, 494694, Control_c, 0, 67, 61
1, 494709, Control_c, 0, 67, 71
1, 494724, Control_c, 0, 67, 84
1, 494740, Control_c, 0, 67, 104
1, 494762, Control_c, 0, 67, 127
1, 494879, Note_on_c, 0, 62, 37
1, 494988, Note_on_c, 0, 76, 53
1, 495005, Note_off_c, 0, 65, 38
1, 495015, Note_off_c, 0, 77, 45
1, 495104, Note_on_c, 0, 79, 56
1, 495113, Note_off_c, 0, 76, 60
1, 495220, Note_on_c, 0, 77, 68
1, 495245, Note_on_c, 0, 65, 37
1, 495314, Note_off_c, 0, 79, 40
1, 495322, Note_on_c, 0, 75, 69
1, 495325, Note_off_c, 0, 62, 42
1, 495352, Note_off_c, 0, 77, 62
1, 495420, Note_off_c, 0, 75, 62
1, 495442, Note_on_c, 0, 74, 67
1, 495472, Control_c, 0, 64, 105
1, 495486, Control_c, 0, 64, 103
1, 495501, Control_c, 0, 64, 101
1, 495524, Control_c, 0, 64, 98
1, 495540, Control_c, 0, 64, 96
1, 495555, Control_c, 0, 64, 92
1, 495560, Note_on_c, 0, 72, 71
1, 495570, Control_c, 0, 64, 88
1, 495579, Note_on_c, 0, 63, 47
1, 495585, Control_c, 0, 64, 83
1, 495595, Note_off_c, 0, 74, 58
1, 495600, Control_c, 0, 64, 77
1, 495615, Control_c, 0, 64, 70
1, 495630, Control_c, 0, 64, 62
1, 495644, Control_c, 0, 64, 56
1, 495658, Note_off_c, 0, 65, 36
1, 495659, Control_c, 0, 64, 50
1, 495672, Note_on_c, 0, 71, 73
1, 495674, Control_c, 0, 64, 44
1, 495689, Control_c, 0, 64, 37
1, 495704, Control_c, 0, 64, 31
1, 495710, Note_off_c, 0, 72, 59
1, 495718, Control_c, 0, 64, 0
1, 495791, Note_on_c, 0, 74, 75
1, 495812, Note_off_c, 0, 71, 58
1, 495897, Note_on_c, 0, 72, 71
1, 495900, Note_on_c, 0, 65, 42
1, 495934, Note_off_c, 0, 74, 61
1, 495955, Control_c, 0, 64, 37
1, 495970, Control_c, 0, 64, 48
1, 495984, Control_c, 0, 64, 57
1, 495999, Control_c, 0, 64, 63
1, 496010, Note_off_c, 0, 72, 62
1, 496011, Note_off_c, 0, 65, 59
1, 496014, Note_on_c, 0, 70, 70
1, 496014, Control_c, 0, 64, 66
1, 496015, Note_off_c, 0, 63, 51
1, 496029, Control_c, 0, 64, 69
1, 496044, Control_c, 0, 64, 72
1, 496059, Control_c, 0, 64, 75
1, 496074, Note_off_c, 0, 58, 37
1, 496074, Control_c, 0, 64, 78
1, 496089, Control_c, 0, 64, 81
1, 496093, Note_off_c, 0, 70, 61
1, 496104, Control_c, 0, 64, 83
1, 496118, Control_c, 0, 64, 86
1, 496124, Note_on_c, 0, 69, 62
1, 496133, Control_c, 0, 64, 90
1, 496148, Control_c, 0, 64, 93
1, 496158, Note_off_c, 0, 69, 62
1, 496163, Control_c, 0, 64, 95
1, 496178, Control_c, 0, 64, 97
1, 496317, Control_c, 0, 64, 92
1, 496319, Note_on_c, 0, 75, 63
1, 496332, Control_c, 0, 64, 85
1, 496343, Note_on_c, 0, 69, 47
1, 496345, Note_on_c, 0, 60, 39
1, 496348, Control_c, 0, 64, 73
1, 496357, Note_on_c, 0, 58, 36
1, 496363, Control_c, 0, 64, 62
1, 496378, Control_c, 0, 64, 49
1, 496393, Control_c, 0, 64, 33
1, 496408, Control_c, 0, 64, 0
1, 496467, Control_c, 0, 64, 31
1, 496481, Control_c, 0, 64, 40
1, 496496, Control_c, 0, 64, 51
1, 496511, Control_c, 0, 64, 60
1, 496526, Control_c, 0, 64, 65
1, 496540, Control_c, 0, 64, 69
1, 496555, Control_c, 0, 64, 72
1, 496570, Control_c, 0, 64, 75
1, 496585, Control_c, 0, 64, 78
1, 496600, Control_c, 0, 64, 80
1, 496614, Control_c, 0, 64, 83
1, 496629, Control_c, 0, 64, 85
1, 496644, Control_c, 0, 64, 87
1, 496658, Control_c, 0, 64, 88
1, 496673, Control_c, 0, 64, 90
1, 496688, Note_on_c, 0, 65, 38
1, 496688, Control_c, 0, 64, 91
1, 496696, Note_off_c, 0, 69, 49
1, 496703, Control_c, 0, 64, 91
1, 496718, Control_c, 0, 64, 92
1, 496732, Control_c, 0, 64, 92
1, 496747, Control_c, 0, 64, 93
1, 496786, Note_off_c, 0, 60, 39
1, 496843, Note_off_c, 0, 65, 56
1, 496970, Control_c, 0, 64, 92
1, 496985, Control_c, 0, 64, 91
1, 497007, Control_c, 0, 64, 89
1, 497022, Control_c, 0, 64, 86
1, 497037, Control_c, 0, 64, 82
1, 497051, Note_on_c, 0, 74, 49
1, 497051, Control_c, 0, 64, 75
1, 497066, Control_c, 0, 64, 67
1, 497081, Control_c, 0, 64, 58
1, 497096, Control_c, 0, 64, 48
1, 497096, Note_on_c, 0, 62, 33
1, 497107, Note_on_c, 0, 70, 31
1, 497111, Control_c, 0, 64, 35
1, 497126, Control_c, 0, 64, 0
1, 497128, Note_off_c, 0, 75, 54
1, 497171, Control_c, 0, 64, 30
1, 497186, Control_c, 0, 64, 39
1, 497200, Control_c, 0, 64, 50
1, 497215, Control_c, 0, 64, 60
1, 497230, Control_c, 0, 64, 65
1, 497245, Control_c, 0, 64, 69
1, 497260, Control_c, 0, 64, 72
1, 497275, Control_c, 0, 64, 75
1, 497289, Control_c, 0, 64, 78
1, 497304, Control_c, 0, 64, 81
1, 497319, Control_c, 0, 64, 84
1, 497334, Control_c, 0, 64, 87
1, 497345, Note_off_c, 0, 74, 38
1, 497349, Control_c, 0, 64, 90
1, 497363, Control_c, 0, 64, 94
1, 497378, Control_c, 0, 64, 99
1, 497393, Control_c, 0, 64, 104
1, 497394, Note_off_c, 0, 70, 35
1, 497408, Control_c, 0, 64, 112
1, 497422, Note_off_c, 0, 62, 28
1, 497423, Control_c, 0, 64, 124
1, 497437, Control_c, 0, 64, 127
1, 497451, Note_on_c, 0, 65, 27
1, 497585, Note_off_c, 0, 65, 40
1, 497874, Control_c, 0, 64, 112
1, 497877, Note_on_c, 0, 82, 46
1, 497889, Control_c, 0, 64, 97
1, 497898, Note_on_c, 0, 63, 36
1, 497904, Control_c, 0, 64, 86
1, 497906, Note_on_c, 0, 60, 26
1, 497919, Control_c, 0, 64, 76
1, 497934, Control_c, 0, 64, 67
1, 497949, Control_c, 0, 64, 60
1, 497964, Control_c, 0, 64, 56
1, 497979, Control_c, 0, 64, 56
1, 497993, Control_c, 0, 64, 58
1, 498008, Control_c, 0, 64, 61
1, 498023, Control_c, 0, 64, 64
1, 498035, Note_off_c, 0, 82, 58
1, 498038, Control_c, 0, 64, 68
1, 498040, Note_on_c, 0, 81, 41
1, 498053, Control_c, 0, 64, 73
1, 498068, Control_c, 0, 64, 78
1, 498083, Control_c, 0, 64, 81
1, 498098, Control_c, 0, 64, 82
1, 498112, Control_c, 0, 64, 83
1, 498127, Control_c, 0, 64, 85
1, 498134, Note_off_c, 0, 81, 55
1, 498142, Control_c, 0, 64, 86
1, 498156, Note_on_c, 0, 84, 50
1, 498157, Control_c, 0, 64, 88
1, 498172, Control_c, 0, 64, 90
1, 498186, Control_c, 0, 64, 91
1, 498201, Control_c, 0, 64, 92
1, 498216, Control_c, 0, 64, 93
1, 498231, Control_c, 0, 64, 94
1, 498246, Control_c, 0, 64, 95
1, 498271, Note_on_c, 0, 82, 52
1, 498275, Control_c, 0, 64, 97
1, 498277, Note_on_c, 0, 65, 34
1, 498296, Note_off_c, 0, 84, 39
1, 498304, Control_c, 0, 64, 100
1, 498363, Note_off_c, 0, 60, 40
1, 498380, Note_on_c, 0, 81, 56
1, 498390, Note_off_c, 0, 82, 48
1, 498393, Note_off_c, 0, 58, 40
1, 498449, Note_off_c, 0, 81, 60
1, 498458, Note_off_c, 0, 63, 38
1, 498511, Note_on_c, 0, 79, 43
1, 498593, Control_c, 0, 64, 96
1, 498608, Control_c, 0, 64, 93
1, 498623, Control_c, 0, 64, 89
1, 498637, Control_c, 0, 64, 83
1, 498644, Note_on_c, 0, 77, 64
1, 498652, Control_c, 0, 64, 76
1, 498661, Note_on_c, 0, 58, 40
1, 498667, Control_c, 0, 64, 69
1, 498676, Note_off_c, 0, 79, 51
1, 498680, Note_on_c, 0, 62, 33
1, 498682, Control_c, 0, 64, 61
1, 498697, Control_c, 0, 64, 53
1, 498712, Control_c, 0, 64, 47
1, 498727, Control_c, 0, 64, 42
1, 498742, Control_c, 0, 64, 40
1, 498757, Control_c, 0, 64, 39
1, 498772, Control_c, 0, 64, 40
1, 498787, Control_c, 0, 64, 42
1, 498801, Control_c, 0, 64, 45
1, 498816, Control_c, 0, 64, 50
1, 498825, Note_off_c, 0, 65, 42
1, 498831, Control_c, 0, 64, 55
1, 498846, Control_c, 0, 64, 59
1, 498861, Control_c, 0, 64, 63
1, 498876, Control_c, 0, 64, 66
1, 498891, Control_c, 0, 64, 71
1, 498906, Control_c, 0, 64, 74
1, 498920, Control_c, 0, 64, 77
1, 498935, Control_c, 0, 64, 78
1, 498950, Control_c, 0, 64, 79
1, 498965, Control_c, 0, 64, 80
1, 498980, Control_c, 0, 64, 82
1, 498995, Control_c, 0, 64, 84
1, 499009, Control_c, 0, 64, 86
1, 499024, Control_c, 0, 64, 87
1, 499039, Control_c, 0, 64, 89
1, 499043, Note_on_c, 0, 65, 34
1, 499053, Control_c, 0, 64, 90
1, 499068, Control_c, 0, 64, 91
1, 499083, Control_c, 0, 64, 93
1, 499098, Control_c, 0, 64, 94
1, 499113, Control_c, 0, 64, 95
1, 499142, Control_c, 0, 64, 98
1, 499146, Note_off_c, 0, 62, 42
1, 499157, Control_c, 0, 64, 100
1, 499187, Control_c, 0, 64, 102
1, 499246, Control_c, 0, 64, 104
1, 499399, Note_on_c, 0, 62, 33
1, 499517, Note_on_c, 0, 76, 44
1, 499521, Control_c, 0, 64, 102
1, 499522, Note_off_c, 0, 77, 37
1, 499531, Note_off_c, 0, 65, 38
1, 499581, Control_c, 0, 64, 100
1, 499599, Note_off_c, 0, 76, 58
1, 499636, Note_on_c, 0, 79, 46
1, 499749, Note_on_c, 0, 77, 57
1, 499749, Note_off_c, 0, 79, 53
1, 499772, Note_on_c, 0, 65, 32
1, 499818, Control_c, 0, 64, 98
1, 499853, Note_off_c, 0, 77, 58
1, 499863, Note_on_c, 0, 75, 57
1, 499870, Note_off_c, 0, 62, 41
1, 499937, Control_c, 0, 64, 96
1, 499937, Note_off_c, 0, 75, 61
1, 499951, Control_c, 0, 64, 95
1, 499966, Control_c, 0, 64, 94
1, 499969, Note_on_c, 0, 74, 62
1, 499981, Control_c, 0, 64, 93
1, 499996, Control_c, 0, 64, 92
1, 500018, Control_c, 0, 64, 90
1, 500032, Control_c, 0, 64, 89
1, 500047, Control_c, 0, 64, 87
1, 500062, Control_c, 0, 64, 86
1, 500077, Control_c, 0, 64, 84
1, 500086, Note_off_c, 0, 74, 53
1, 500091, Control_c, 0, 64, 81
1, 500093, Note_on_c, 0, 72, 58
1, 500106, Control_c, 0, 64, 78
1, 500114, Note_on_c, 0, 63, 46
1, 500121, Control_c, 0, 64, 74
1, 500136, Control_c, 0, 64, 70
1, 500151, Control_c, 0, 64, 66
1, 500165, Control_c, 0, 64, 62
1, 500180, Control_c, 0, 64, 58
1, 500190, Note_off_c, 0, 65, 40
1, 500195, Control_c, 0, 64, 56
1, 500210, Control_c, 0, 64, 54
1, 500211, Note_on_c, 0, 71, 59
1, 500225, Control_c, 0, 64, 52
1, 500226, Note_off_c, 0, 72, 57
1, 500239, Control_c, 0, 64, 50
1, 500254, Control_c, 0, 64, 47
1, 500269, Control_c, 0, 64, 43
1, 500283, Control_c, 0, 64, 38
1, 500298, Control_c, 0, 64, 31
1, 500313, Control_c, 0, 64, 0
1, 500318, Note_off_c, 0, 71, 59
1, 500333, Note_on_c, 0, 74, 62
1, 500446, Note_on_c, 0, 72, 58
1, 500455, Note_off_c, 0, 74, 56
1, 500473, Note_on_c, 0, 65, 37
1, 500492, Control_c, 0, 67, 118
1, 500506, Control_c, 0, 64, 39
1, 500506, Control_c, 0, 67, 105
1, 500521, Control_c, 0, 64, 51
1, 500521, Control_c, 0, 67, 91
1, 500533, Note_off_c, 0, 72, 62
1, 500536, Control_c, 0, 64, 59
1, 500536, Control_c, 0, 67, 76
1, 500540, Note_off_c, 0, 63, 58
1, 500551, Control_c, 0, 64, 63
1, 500551, Control_c, 0, 67, 60
1, 500554, Note_on_c, 0, 70, 63
1, 500566, Control_c, 0, 64, 65
1, 500566, Control_c, 0, 67, 42
1, 500581, Control_c, 0, 64, 67
1, 500581, Control_c, 0, 67, 0
1, 500596, Control_c, 0, 64, 69
1, 500611, Control_c, 0, 64, 71
1, 500626, Control_c, 0, 64, 74
1, 500630, Note_off_c, 0, 70, 60
1, 500640, Control_c, 0, 64, 77
1, 500649, Note_off_c, 0, 65, 57
1, 500655, Control_c, 0, 64, 80
1, 500670, Control_c, 0, 64, 83
1, 500681, Note_on_c, 0, 69, 61
1, 500685, Control_c, 0, 64, 88
1, 500699, Control_c, 0, 64, 94
1, 500714, Control_c, 0, 64, 101
1, 500727, Note_off_c, 0, 58, 36
1, 500729, Control_c, 0, 64, 109
1, 500736, Note_off_c, 0, 69, 58
1, 500744, Control_c, 0, 64, 119
1, 500766, Control_c, 0, 64, 127
1, 500942, Note_on_c, 0, 79, 71
1, 500974, Control_c, 0, 64, 113
1, 500975, Note_on_c, 0, 69, 39
1, 500978, Note_on_c, 0, 63, 41
1, 500983, Note_on_c, 0, 58, 41
1, 500988, Control_c, 0, 64, 102
1, 501003, Control_c, 0, 64, 93
1, 501018, Control_c, 0, 64, 84
1, 501032, Control_c, 0, 64, 74
1, 501047, Control_c, 0, 64, 65
1, 501062, Control_c, 0, 64, 56
1, 501077, Control_c, 0, 64, 47
1, 501092, Control_c, 0, 64, 39
1, 501106, Control_c, 0, 64, 36
1, 501122, Control_c, 0, 64, 36
1, 501137, Control_c, 0, 64, 38
1, 501152, Control_c, 0, 64, 42
1, 501167, Control_c, 0, 64, 48
1, 501182, Control_c, 0, 64, 54
1, 501196, Control_c, 0, 64, 59
1, 501211, Control_c, 0, 64, 62
1, 501226, Control_c, 0, 64, 65
1, 501241, Control_c, 0, 64, 68
1, 501255, Control_c, 0, 64, 71
1, 501255, Control_c, 0, 67, 37
1, 501270, Control_c, 0, 64, 74
1, 501270, Control_c, 0, 67, 47
1, 501285, Control_c, 0, 64, 77
1, 501285, Control_c, 0, 67, 60
1, 501300, Control_c, 0, 64, 80
1, 501300, Control_c, 0, 67, 79
1, 501315, Control_c, 0, 64, 83
1, 501315, Control_c, 0, 67, 111
1, 501329, Control_c, 0, 64, 85
1, 501329, Control_c, 0, 67, 127
1, 501344, Control_c, 0, 64, 89
1, 501359, Control_c, 0, 64, 92
1, 501374, Control_c, 0, 64, 95
1, 501386, Note_off_c, 0, 69, 54
1, 501389, Control_c, 0, 64, 97
1, 501398, Note_off_c, 0, 63, 32
1, 501404, Control_c, 0, 64, 100
1, 501433, Control_c, 0, 64, 102
1, 501633, Control_c, 0, 64, 100
1, 501648, Control_c, 0, 64, 98
1, 501663, Control_c, 0, 64, 95
1, 501678, Control_c, 0, 64, 93
1, 501693, Control_c, 0, 64, 89
1, 501708, Control_c, 0, 64, 85
1, 501723, Control_c, 0, 64, 81
1, 501737, Control_c, 0, 64, 77
1, 501752, Control_c, 0, 64, 72
1, 501756, Note_on_c, 0, 77, 50
1, 501764, Note_on_c, 0, 70, 35
1, 501767, Control_c, 0, 64, 65
1, 501782, Control_c, 0, 64, 59
1, 501789, Note_on_c, 0, 62, 38
1, 501797, Control_c, 0, 64, 53
1, 501811, Control_c, 0, 64, 48
1, 501826, Control_c, 0, 64, 43
1, 501841, Control_c, 0, 64, 40
1, 501855, Control_c, 0, 64, 39
1, 501885, Control_c, 0, 64, 42
1, 501894, Note_off_c, 0, 79, 41
1, 501900, Control_c, 0, 64, 47
1, 501915, Control_c, 0, 64, 55
1, 501919, Note_on_c, 0, 76, 53
1, 501930, Note_off_c, 0, 77, 60
1, 501931, Control_c, 0, 64, 61
1, 501946, Control_c, 0, 64, 65
1, 501960, Control_c, 0, 64, 69
1, 501975, Control_c, 0, 64, 71
1, 501990, Control_c, 0, 64, 73
1, 502016, Note_off_c, 0, 76, 58
1, 502031, Note_on_c, 0, 79, 47
1, 502049, Note_off_c, 0, 58, 33
1, 502093, Control_c, 0, 64, 72
1, 502108, Control_c, 0, 64, 72
1, 502111, Note_off_c, 0, 70, 37
1, 502115, Note_off_c, 0, 62, 30
1, 502123, Control_c, 0, 64, 71
1, 502138, Control_c, 0, 64, 70
1, 502152, Note_off_c, 0, 79, 53
1, 502152, Control_c, 0, 64, 67
1, 502155, Note_on_c, 0, 77, 59
1, 502167, Control_c, 0, 64, 65
1, 502182, Control_c, 0, 64, 63
1, 502197, Control_c, 0, 64, 62
1, 502212, Control_c, 0, 64, 60
1, 502226, Control_c, 0, 64, 59
1, 502249, Control_c, 0, 64, 58
1, 502264, Control_c, 0, 64, 57
1, 502265, Note_off_c, 0, 77, 61
1, 502274, Note_on_c, 0, 75, 57
1, 502278, Control_c, 0, 64, 56
1, 502294, Control_c, 0, 64, 55
1, 502309, Control_c, 0, 64, 55
1, 502324, Control_c, 0, 64, 54
1, 502339, Control_c, 0, 64, 54
1, 502345, Note_off_c, 0, 75, 62
1, 502353, Control_c, 0, 64, 53
1, 502368, Control_c, 0, 64, 52
1, 502381, Note_on_c, 0, 74, 59
1, 502383, Control_c, 0, 64, 52
1, 502398, Control_c, 0, 64, 51
1, 502413, Control_c, 0, 64, 50
1, 502427, Control_c, 0, 64, 50
1, 502442, Control_c, 0, 64, 49
1, 502457, Control_c, 0, 64, 48
1, 502471, Control_c, 0, 64, 46
1, 502483, Note_off_c, 0, 74, 57
1, 502486, Control_c, 0, 64, 45
1, 502501, Control_c, 0, 64, 44
1, 502504, Note_on_c, 0, 72, 51
1, 502516, Control_c, 0, 64, 41
1, 502531, Control_c, 0, 64, 38
1, 502545, Control_c, 0, 64, 35
1, 502560, Control_c, 0, 64, 32
1, 502575, Control_c, 0, 64, 0
1, 502598, Note_off_c, 0, 72, 59
1, 502612, Note_on_c, 0, 71, 51
1, 502682, Note_off_c, 0, 71, 53
1, 502730, Note_on_c, 0, 74, 45
1, 502826, Note_off_c, 0, 74, 60
1, 502840, Note_on_c, 0, 72, 51
1, 502927, Note_off_c, 0, 72, 62
1, 502957, Note_on_c, 0, 70, 48
1, 502976, Control_c, 0, 64, 35
1, 502991, Control_c, 0, 64, 44
1, 503013, Control_c, 0, 64, 53
1, 503027, Note_off_c, 0, 70, 54
1, 503028, Control_c, 0, 64, 59
1, 503043, Control_c, 0, 64, 63
1, 503058, Control_c, 0, 64, 65
1, 503073, Control_c, 0, 64, 67
1, 503088, Control_c, 0, 64, 69
1, 503102, Control_c, 0, 64, 71
1, 503103, Note_on_c, 0, 69, 38
1, 503117, Control_c, 0, 64, 73
1, 503132, Control_c, 0, 64, 75
1, 503137, Note_off_c, 0, 69, 52
1, 503147, Control_c, 0, 64, 77
1, 503162, Control_c, 0, 64, 79
1, 503176, Control_c, 0, 64, 81
1, 503191, Control_c, 0, 64, 82
1, 503206, Control_c, 0, 64, 83
1, 503220, Control_c, 0, 64, 83
1, 503235, Control_c, 0, 64, 84
1, 503354, Control_c, 0, 64, 83
1, 503358, Note_on_c, 0, 78, 48
1, 503368, Control_c, 0, 64, 82
1, 503380, Note_on_c, 0, 58, 36
1, 503383, Control_c, 0, 64, 79
1, 503386, Note_on_c, 0, 63, 24
1, 503388, Note_on_c, 0, 69, 35
1, 503398, Control_c, 0, 64, 75
1, 503413, Control_c, 0, 64, 70
1, 503428, Control_c, 0, 64, 64
1, 503442, Control_c, 0, 64, 57
1, 503457, Control_c, 0, 64, 51
1, 503472, Control_c, 0, 64, 47
1, 503487, Control_c, 0, 64, 46
1, 503502, Control_c, 0, 64, 47
1, 503517, Control_c, 0, 64, 48
1, 503532, Control_c, 0, 64, 50
1, 503547, Control_c, 0, 64, 53
1, 503562, Control_c, 0, 64, 57
1, 503577, Control_c, 0, 64, 59
1, 503592, Control_c, 0, 64, 61
1, 503606, Control_c, 0, 64, 63
1, 503621, Control_c, 0, 64, 64
1, 503636, Control_c, 0, 64, 67
1, 503651, Control_c, 0, 64, 69
1, 503666, Control_c, 0, 64, 71
1, 503681, Control_c, 0, 64, 73
1, 503696, Control_c, 0, 64, 75
1, 503711, Control_c, 0, 64, 77
1, 503725, Control_c, 0, 64, 79
1, 503740, Control_c, 0, 64, 81
1, 503762, Control_c, 0, 64, 84
1, 503777, Control_c, 0, 64, 87
1, 503792, Control_c, 0, 64, 91
1, 503806, Control_c, 0, 64, 95
1, 503821, Control_c, 0, 64, 101
1, 503835, Note_off_c, 0, 69, 50
1, 503836, Control_c, 0, 64, 109
1, 503851, Control_c, 0, 64, 127
1, 503953, Note_off_c, 0, 63, 40
1, 504132, Control_c, 0, 64, 119
1, 504147, Control_c, 0, 64, 103
1, 504151, Note_on_c, 0, 77, 50
1, 504162, Control_c, 0, 64, 93
1, 504176, Control_c, 0, 64, 84
1, 504186, Note_on_c, 0, 70, 34
1, 504188, Note_on_c, 0, 61, 41
1, 504191, Control_c, 0, 64, 74
1, 504206, Control_c, 0, 64, 65
1, 504221, Control_c, 0, 64, 56
1, 504235, Note_off_c, 0, 78, 38
1, 504236, Control_c, 0, 64, 47
1, 504250, Control_c, 0, 64, 41
1, 504265, Control_c, 0, 64, 40
1, 504280, Control_c, 0, 64, 41
1, 504295, Control_c, 0, 64, 44
1, 504307, Note_on_c, 0, 76, 51
1, 504308, Note_off_c, 0, 77, 59
1, 504310, Control_c, 0, 64, 49
1, 504326, Control_c, 0, 64, 56
1, 504340, Control_c, 0, 64, 62
1, 504355, Control_c, 0, 64, 66
1, 504370, Control_c, 0, 64, 70
1, 504385, Control_c, 0, 64, 74
1, 504385, Control_c, 0, 67, 125
1, 504400, Control_c, 0, 64, 77
1, 504400, Control_c, 0, 67, 103
1, 504414, Note_off_c, 0, 76, 57
1, 504415, Control_c, 0, 64, 80
1, 504415, Control_c, 0, 67, 79
1, 504426, Note_on_c, 0, 78, 53
1, 504429, Control_c, 0, 64, 82
1, 504429, Control_c, 0, 67, 52
1, 504444, Control_c, 0, 64, 85
1, 504444, Control_c, 0, 67, 0
1, 504459, Control_c, 0, 64, 87
1, 504474, Control_c, 0, 64, 88
1, 504489, Control_c, 0, 64, 89
1, 504511, Control_c, 0, 64, 91
1, 504526, Control_c, 0, 64, 91
1, 504547, Note_on_c, 0, 77, 60
1, 504626, Note_off_c, 0, 58, 37
1, 504634, Note_off_c, 0, 70, 42
1, 504654, Note_on_c, 0, 75, 65
1, 504655, Note_off_c, 0, 77, 59
1, 504664, Note_off_c, 0, 78, 37
1, 504690, Note_off_c, 0, 61, 36
1, 504747, Control_c, 0, 64, 91
1, 504762, Control_c, 0, 64, 90
1, 504769, Note_on_c, 0, 73, 68
1, 504777, Control_c, 0, 64, 90
1, 504792, Control_c, 0, 64, 89
1, 504795, Note_off_c, 0, 75, 60
1, 504806, Control_c, 0, 64, 88
1, 504821, Control_c, 0, 64, 87
1, 504836, Control_c, 0, 64, 86
1, 504851, Control_c, 0, 64, 85
1, 504866, Control_c, 0, 64, 83
1, 504871, Note_on_c, 0, 72, 67
1, 504871, Note_off_c, 0, 73, 62
1, 504880, Control_c, 0, 64, 81
1, 504895, Control_c, 0, 64, 79
1, 504910, Control_c, 0, 64, 76
1, 504925, Control_c, 0, 64, 73
1, 504940, Control_c, 0, 64, 70
1, 504954, Control_c, 0, 64, 66
1, 504969, Control_c, 0, 64, 63
1, 504983, Note_off_c, 0, 72, 60
1, 504984, Control_c, 0, 64, 59
1, 504990, Note_on_c, 0, 70, 69
1, 504999, Control_c, 0, 64, 57
1, 505013, Control_c, 0, 64, 56
1, 505028, Control_c, 0, 64, 55
1, 505043, Control_c, 0, 64, 55
1, 505058, Control_c, 0, 64, 54
1, 505073, Control_c, 0, 64, 52
1, 505088, Control_c, 0, 64, 51
1, 505100, Note_on_c, 0, 73, 64
1, 505103, Control_c, 0, 64, 48
1, 505113, Note_off_c, 0, 70, 60
1, 505118, Control_c, 0, 64, 45
1, 505133, Control_c, 0, 64, 41
1, 505148, Control_c, 0, 64, 35
1, 505162, Control_c, 0, 64, 0
1, 505210, Note_on_c, 0, 72, 68
1, 505333, Note_off_c, 0, 73, 38
1, 505339, Note_on_c, 0, 70, 72
1, 505342, Note_off_c, 0, 72, 62
1, 505393, Control_c, 0, 64, 33
1, 505408, Control_c, 0, 64, 46
1, 505422, Control_c, 0, 64, 58
1, 505437, Control_c, 0, 64, 64
1, 505438, Note_off_c, 0, 70, 63
1, 505452, Control_c, 0, 64, 67
1, 505467, Control_c, 0, 64, 70
1, 505471, Note_on_c, 0, 68, 64
1, 505482, Control_c, 0, 64, 73
1, 505496, Control_c, 0, 64, 77
1, 505511, Control_c, 0, 64, 81
1, 505526, Control_c, 0, 64, 86
1, 505541, Control_c, 0, 64, 91
1, 505556, Control_c, 0, 64, 97
1, 505571, Control_c, 0, 64, 105
1, 505586, Control_c, 0, 64, 115
1, 505601, Control_c, 0, 64, 127
1, 505740, Note_on_c, 0, 82, 82
1, 505769, Note_on_c, 0, 66, 61
1, 505773, Note_on_c, 0, 60, 52
1, 505779, Note_on_c, 0, 63, 51
1, 505793, Control_c, 0, 64, 110
1, 505797, Poly_aftertouch_c, 0, 70, 127
1, 505808, Control_c, 0, 64, 98
1, 505822, Control_c, 0, 64, 88
1, 505827, Note_off_c, 0, 68, 54
1, 505834, Poly_aftertouch_c, 0, 70, 0
1, 505837, Control_c, 0, 64, 79
1, 505852, Control_c, 0, 64, 70
1, 505867, Control_c, 0, 64, 62
1, 505882, Control_c, 0, 64, 53
1, 505896, Control_c, 0, 64, 46
1, 505912, Control_c, 0, 64, 38
1, 505927, Control_c, 0, 64, 0
1, 506542, Control_c, 0, 64, 31
1, 506557, Control_c, 0, 64, 37
1, 506564, Note_on_c, 0, 80, 53
1, 506571, Control_c, 0, 64, 43
1, 506586, Control_c, 0, 64, 50
1, 506601, Control_c, 0, 64, 56
1, 506616, Control_c, 0, 64, 60
1, 506629, Note_off_c, 0, 82, 45
1, 506631, Control_c, 0, 64, 62
1, 506645, Control_c, 0, 64, 65
1, 506660, Control_c, 0, 64, 68
1, 506675, Control_c, 0, 64, 71
1, 506690, Control_c, 0, 64, 75
1, 506705, Control_c, 0, 64, 79
1, 506721, Control_c, 0, 64, 84
1, 506742, Control_c, 0, 64, 90
1, 506753, Note_off_c, 0, 80, 38
1, 506757, Control_c, 0, 64, 101
1, 506772, Control_c, 0, 64, 120
1, 506787, Control_c, 0, 64, 127
1, 507011, Note_on_c, 0, 80, 70
1, 507122, Note_off_c, 0, 80, 58
1, 507356, Note_on_c, 0, 80, 79
1, 507432, Note_off_c, 0, 80, 62
1, 507709, Note_on_c, 0, 80, 83
1, 507717, Note_off_c, 0, 66, 29
1, 507858, Note_off_c, 0, 80, 46
1, 507996, Note_off_c, 0, 60, 34
1, 508203, Note_on_c, 0, 80, 78
1, 508212, Note_on_c, 0, 65, 53
1, 508250, Note_on_c, 0, 61, 44
1, 508312, Control_c, 0, 64, 107
1, 508328, Control_c, 0, 64, 94
1, 508343, Control_c, 0, 64, 85
1, 508358, Control_c, 0, 64, 76
1, 508372, Note_off_c, 0, 63, 35
1, 508373, Control_c, 0, 64, 67
1, 508388, Control_c, 0, 64, 59
1, 508402, Control_c, 0, 64, 53
1, 508417, Control_c, 0, 64, 49
1, 508432, Control_c, 0, 64, 46
1, 508446, Control_c, 0, 64, 44
1, 508461, Control_c, 0, 64, 41
1, 508476, Control_c, 0, 64, 39
1, 508491, Control_c, 0, 64, 37
1, 508506, Control_c, 0, 64, 35
1, 508520, Control_c, 0, 64, 33
1, 508535, Control_c, 0, 64, 29
1, 508550, Control_c, 0, 64, 0
1, 508580, Control_c, 0, 67, 42
1, 508594, Control_c, 0, 67, 53
1, 508609, Control_c, 0, 67, 65
1, 508624, Control_c, 0, 67, 78
1, 508638, Control_c, 0, 67, 93
1, 508653, Control_c, 0, 67, 111
1, 508668, Control_c, 0, 67, 127
1, 508743, Control_c, 0, 64, 31
1, 508757, Control_c, 0, 64, 42
1, 508772, Control_c, 0, 64, 54
1, 508787, Control_c, 0, 64, 64
1, 508802, Control_c, 0, 64, 70
1, 508817, Control_c, 0, 64, 76
1, 508831, Control_c, 0, 64, 82
1, 508846, Control_c, 0, 64, 86
1, 508861, Control_c, 0, 64, 91
1, 508875, Note_off_c, 0, 80, 37
1, 508876, Control_c, 0, 64, 95
1, 508891, Control_c, 0, 64, 100
1, 508905, Control_c, 0, 64, 104
1, 508920, Control_c, 0, 64, 109
1, 508935, Control_c, 0, 64, 115
1, 508950, Control_c, 0, 64, 127
1, 509206, Note_on_c, 0, 82, 53
1, 509240, Control_c, 0, 64, 122
1, 509255, Control_c, 0, 64, 117
1, 509270, Control_c, 0, 64, 113
1, 509285, Control_c, 0, 64, 111
1, 509296, Note_on_c, 0, 80, 60
1, 509300, Control_c, 0, 64, 108
1, 509303, Note_off_c, 0, 82, 55
1, 509315, Control_c, 0, 64, 106
1, 509330, Control_c, 0, 64, 104
1, 509359, Control_c, 0, 64, 101
1, 509383, Note_off_c, 0, 80, 63
1, 509388, Control_c, 0, 64, 99
1, 509389, Note_on_c, 0, 78, 59
1, 509418, Control_c, 0, 64, 97
1, 509433, Control_c, 0, 64, 95
1, 509448, Note_off_c, 0, 78, 60
1, 509448, Control_c, 0, 64, 95
1, 509459, Note_on_c, 0, 77, 66
1, 509462, Control_c, 0, 64, 94
1, 509477, Control_c, 0, 64, 93
1, 509492, Control_c, 0, 64, 93
1, 509507, Control_c, 0, 64, 92
1, 509522, Control_c, 0, 64, 91
1, 509531, Note_off_c, 0, 77, 58
1, 509536, Control_c, 0, 64, 90
1, 509549, Note_on_c, 0, 75, 68
1, 509551, Control_c, 0, 64, 89
1, 509566, Control_c, 0, 64, 87
1, 509581, Control_c, 0, 64, 86
1, 509595, Control_c, 0, 64, 85
1, 509610, Control_c, 0, 64, 84
1, 509625, Note_off_c, 0, 75, 62
1, 509625, Control_c, 0, 64, 82
1, 509638, Note_on_c, 0, 73, 60
1, 509640, Control_c, 0, 64, 81
1, 509655, Control_c, 0, 64, 78
1, 509670, Control_c, 0, 64, 75
1, 509685, Control_c, 0, 64, 72
1, 509699, Control_c, 0, 64, 66
1, 509714, Control_c, 0, 64, 62
1, 509719, Note_off_c, 0, 73, 61
1, 509725, Note_off_c, 0, 61, 34
1, 509736, Control_c, 0, 64, 58
1, 509751, Note_on_c, 0, 71, 55
1, 509751, Control_c, 0, 64, 54
1, 509755, Note_on_c, 0, 66, 41
1, 509764, Note_on_c, 0, 63, 35
1, 509766, Control_c, 0, 64, 50
1, 509781, Control_c, 0, 64, 46
1, 509786, Note_off_c, 0, 65, 44
1, 509795, Control_c, 0, 64, 40
1, 509810, Control_c, 0, 64, 33
1, 509825, Control_c, 0, 64, 29
1, 509840, Control_c, 0, 64, 0
1, 509855, Control_c, 0, 64, 29
1, 509873, Note_off_c, 0, 71, 58
1, 509919, Note_on_c, 0, 73, 57
1, 509974, Control_c, 0, 64, 0
1, 509998, Note_on_c, 0, 71, 58
1, 510000, Note_off_c, 0, 73, 61
1, 510027, Note_off_c, 0, 71, 65
1, 510043, Note_on_c, 0, 70, 63
1, 510090, Note_off_c, 0, 70, 64
1, 510114, Note_on_c, 0, 71, 61
1, 510167, Control_c, 0, 64, 39
1, 510182, Control_c, 0, 64, 49
1, 510197, Control_c, 0, 64, 59
1, 510198, Note_off_c, 0, 71, 59
1, 510206, Note_on_c, 0, 75, 54
1, 510211, Control_c, 0, 64, 65
1, 510226, Control_c, 0, 64, 68
1, 510241, Control_c, 0, 64, 72
1, 510256, Control_c, 0, 64, 75
1, 510271, Control_c, 0, 64, 78
1, 510285, Control_c, 0, 64, 81
1, 510291, Note_off_c, 0, 66, 60
1, 510300, Control_c, 0, 64, 84
1, 510315, Control_c, 0, 64, 88
1, 510316, Note_off_c, 0, 63, 61
1, 510330, Control_c, 0, 64, 93
1, 510345, Control_c, 0, 64, 97
1, 510359, Control_c, 0, 64, 101
1, 510374, Control_c, 0, 64, 104
1, 510389, Control_c, 0, 64, 106
1, 510397, Note_on_c, 0, 78, 56
1, 510421, Note_off_c, 0, 75, 60
1, 510618, Control_c, 0, 64, 101
1, 510618, Note_on_c, 0, 70, 64
1, 510632, Control_c, 0, 64, 96
1, 510647, Control_c, 0, 64, 90
1, 510656, Note_on_c, 0, 61, 38
1, 510662, Control_c, 0, 64, 84
1, 510666, Note_on_c, 0, 53, 40
1, 510677, Control_c, 0, 64, 76
1, 510692, Control_c, 0, 64, 68
1, 510707, Control_c, 0, 64, 60
1, 510722, Control_c, 0, 64, 50
1, 510737, Control_c, 0, 64, 37
1, 510752, Control_c, 0, 64, 0
1, 510826, Control_c, 0, 64, 39
1, 510841, Control_c, 0, 64, 51
1, 510856, Control_c, 0, 64, 60
1, 510871, Control_c, 0, 64, 65
1, 510886, Control_c, 0, 64, 70
1, 510901, Control_c, 0, 64, 75
1, 510901, Note_off_c, 0, 78, 30
1, 510915, Control_c, 0, 64, 81
1, 510915, Control_c, 0, 67, 120
1, 510930, Control_c, 0, 64, 85
1, 510930, Control_c, 0, 67, 98
1, 510945, Control_c, 0, 64, 87
1, 510945, Control_c, 0, 67, 73
1, 510959, Control_c, 0, 64, 88
1, 510959, Control_c, 0, 67, 52
1, 510974, Control_c, 0, 64, 89
1, 510974, Control_c, 0, 67, 36
1, 510989, Control_c, 0, 67, 0
1, 511017, Note_on_c, 0, 62, 53
1, 511033, Control_c, 0, 64, 88
1, 511048, Control_c, 0, 64, 87
1, 511063, Control_c, 0, 64, 84
1, 511078, Control_c, 0, 64, 79
1, 511093, Control_c, 0, 64, 72
1, 511107, Control_c, 0, 64, 64
1, 511122, Control_c, 0, 64, 56
1, 511137, Control_c, 0, 64, 50
1, 511152, Control_c, 0, 64, 50
1, 511161, Note_off_c, 0, 61, 56
1, 511166, Control_c, 0, 64, 53
1, 511181, Control_c, 0, 64, 58
1, 511196, Control_c, 0, 64, 63
1, 511211, Control_c, 0, 64, 68
1, 511226, Control_c, 0, 64, 73
1, 511248, Control_c, 0, 64, 77
1, 511263, Control_c, 0, 64, 79
1, 511278, Control_c, 0, 64, 80
1, 511352, Control_c, 0, 64, 77
1, 511366, Control_c, 0, 64, 73
1, 511381, Control_c, 0, 64, 66
1, 511394, Note_on_c, 0, 63, 63
1, 511396, Control_c, 0, 64, 56
1, 511411, Control_c, 0, 64, 42
1, 511426, Control_c, 0, 64, 0
1, 511516, Control_c, 0, 64, 39
1, 511518, Note_off_c, 0, 62, 56
1, 511530, Control_c, 0, 64, 53
1, 511545, Control_c, 0, 64, 65
1, 511560, Control_c, 0, 64, 72
1, 511575, Control_c, 0, 64, 78
1, 511589, Control_c, 0, 64, 83
1, 511604, Control_c, 0, 64, 90
1, 511619, Control_c, 0, 64, 99
1, 511634, Control_c, 0, 64, 110
1, 511649, Control_c, 0, 64, 127
1, 511702, Note_off_c, 0, 70, 33
1, 511796, Note_on_c, 0, 64, 46
1, 511801, Note_on_c, 0, 72, 56
1, 511843, Note_off_c, 0, 63, 57
1, 511856, Control_c, 0, 64, 110
1, 511871, Control_c, 0, 64, 89
1, 511886, Control_c, 0, 64, 76
1, 511901, Control_c, 0, 64, 66
1, 511902, Note_on_c, 0, 70, 66
1, 511907, Note_off_c, 0, 72, 60
1, 511916, Control_c, 0, 64, 59
1, 511930, Control_c, 0, 64, 56
1, 511945, Control_c, 0, 64, 58
1, 511960, Control_c, 0, 64, 61
1, 511975, Control_c, 0, 64, 65
1, 511992, Note_off_c, 0, 70, 64
1, 511997, Control_c, 0, 64, 72
1, 512004, Note_on_c, 0, 69, 68
1, 512012, Control_c, 0, 64, 79
1, 512027, Control_c, 0, 64, 85
1, 512042, Control_c, 0, 64, 88
1, 512057, Control_c, 0, 64, 89
1, 512091, Note_on_c, 0, 70, 77
1, 512111, Note_off_c, 0, 69, 53
1, 512146, Control_c, 0, 64, 88
1, 512161, Control_c, 0, 64, 86
1, 512176, Control_c, 0, 64, 81
1, 512190, Control_c, 0, 64, 74
1, 512205, Control_c, 0, 64, 66
1, 512212, Note_on_c, 0, 73, 69
1, 512220, Control_c, 0, 64, 57
1, 512229, Note_on_c, 0, 65, 43
1, 512234, Note_off_c, 0, 64, 56
1, 512235, Control_c, 0, 64, 48
1, 512250, Control_c, 0, 64, 35
1, 512264, Control_c, 0, 64, 0
1, 512281, Note_off_c, 0, 70, 53
1, 512399, Control_c, 0, 64, 44
1, 512413, Control_c, 0, 64, 59
1, 512428, Control_c, 0, 64, 68
1, 512443, Control_c, 0, 64, 76
1, 512458, Control_c, 0, 64, 83
1, 512473, Control_c, 0, 64, 88
1, 512487, Control_c, 0, 64, 91
1, 512502, Control_c, 0, 64, 94
1, 512517, Control_c, 0, 64, 96
1, 512547, Control_c, 0, 64, 98
1, 512621, Control_c, 0, 64, 96
1, 512636, Control_c, 0, 64, 89
1, 512644, Note_on_c, 0, 72, 62
1, 512651, Control_c, 0, 64, 79
1, 512665, Control_c, 0, 64, 66
1, 512667, Note_on_c, 0, 63, 50
1, 512680, Control_c, 0, 64, 52
1, 512689, Note_off_c, 0, 65, 51
1, 512695, Control_c, 0, 64, 31
1, 512710, Control_c, 0, 64, 0
1, 512735, Note_off_c, 0, 73, 61
1, 512776, Control_c, 0, 64, 34
1, 512791, Control_c, 0, 64, 47
1, 512806, Control_c, 0, 64, 59
1, 512820, Control_c, 0, 64, 66
1, 512835, Control_c, 0, 64, 71
1, 512850, Control_c, 0, 64, 75
1, 512865, Control_c, 0, 64, 79
1, 512866, Note_off_c, 0, 53, 60
1, 512880, Control_c, 0, 64, 85
1, 512895, Control_c, 0, 64, 92
1, 512910, Control_c, 0, 64, 102
1, 512925, Control_c, 0, 64, 127
1, 513029, Note_off_c, 0, 72, 55
1, 513073, Note_off_c, 0, 63, 33
1, 513235, Note_on_c, 0, 70, 59
1, 513251, Control_c, 0, 64, 89
1, 513262, Note_on_c, 0, 62, 29
1, 513265, Note_on_c, 0, 58, 44
1, 513266, Control_c, 0, 64, 72
1, 513281, Control_c, 0, 64, 58
1, 513296, Control_c, 0, 64, 49
1, 513310, Control_c, 0, 64, 47
1, 513325, Control_c, 0, 64, 50
1, 513340, Control_c, 0, 64, 55
1, 513354, Control_c, 0, 64, 62
1, 513369, Control_c, 0, 64, 68
1, 513384, Control_c, 0, 64, 79
1, 513399, Control_c, 0, 64, 90
1, 513414, Control_c, 0, 64, 102
1, 513429, Control_c, 0, 64, 127
1, 513515, Note_off_c, 0, 70, 61
1, 513756, Note_on_c, 0, 86, 74
1, 513983, Note_on_c, 0, 65, 34
1, 514096, Note_off_c, 0, 62, 43
1, 514374, Note_on_c, 0, 62, 27
1, 514532, Note_off_c, 0, 65, 40
1, 514627, Note_off_c, 0, 62, 40
1, 514764, Note_on_c, 0, 65, 30
1, 514825, Note_off_c, 0, 58, 55
1, 515022, Note_off_c, 0, 65, 42
1, 515171, Control_c, 0, 64, 92
1, 515173, Note_on_c, 0, 60, 43
1, 515186, Control_c, 0, 64, 76
1, 515193, Note_on_c, 0, 51, 40
1, 515201, Control_c, 0, 64, 64
1, 515215, Control_c, 0, 64, 54
1, 515230, Control_c, 0, 64, 50
1, 515245, Control_c, 0, 64, 51
1, 515260, Control_c, 0, 64, 53
1, 515275, Control_c, 0, 64, 58
1, 515289, Control_c, 0, 64, 62
1, 515304, Control_c, 0, 64, 67
1, 515319, Control_c, 0, 64, 73
1, 515333, Control_c, 0, 64, 80
1, 515348, Control_c, 0, 64, 84
1, 515350, Note_on_c, 0, 84, 65
1, 515363, Control_c, 0, 64, 87
1, 515378, Control_c, 0, 64, 90
1, 515393, Control_c, 0, 64, 94
1, 515408, Control_c, 0, 64, 99
1, 515420, Note_off_c, 0, 86, 57
1, 515423, Control_c, 0, 64, 105
1, 515438, Control_c, 0, 64, 113
1, 515453, Control_c, 0, 64, 127
1, 515491, Note_on_c, 0, 87, 74
1, 515542, Note_off_c, 0, 84, 51
1, 515602, Note_on_c, 0, 86, 81
1, 515637, Note_off_c, 0, 87, 62
1, 515685, Note_off_c, 0, 86, 62
1, 515711, Note_on_c, 0, 84, 76
1, 515751, Note_on_c, 0, 63, 50
1, 515790, Note_off_c, 0, 84, 57
1, 515823, Note_on_c, 0, 82, 72
1, 515879, Note_off_c, 0, 63, 47
1, 515882, Note_off_c, 0, 51, 42
1, 515921, Note_on_c, 0, 81, 81
1, 516022, Note_on_c, 0, 79, 74
1, 516025, Note_off_c, 0, 82, 37
1, 516040, Note_off_c, 0, 60, 37
1, 516067, Note_off_c, 0, 81, 60
1, 516160, Note_on_c, 0, 77, 80
1, 516171, Control_c, 0, 64, 122
1, 516186, Control_c, 0, 64, 103
1, 516198, Note_on_c, 0, 58, 42
1, 516201, Control_c, 0, 64, 92
1, 516207, Note_on_c, 0, 53, 40
1, 516216, Control_c, 0, 64, 82
1, 516224, Note_off_c, 0, 79, 41
1, 516231, Control_c, 0, 64, 72
1, 516245, Control_c, 0, 64, 60
1, 516260, Control_c, 0, 64, 49
1, 516275, Control_c, 0, 64, 33
1, 516290, Control_c, 0, 64, 0
1, 516380, Control_c, 0, 64, 37
1, 516395, Control_c, 0, 64, 49
1, 516409, Control_c, 0, 64, 59
1, 516424, Control_c, 0, 64, 64
1, 516439, Control_c, 0, 64, 69
1, 516454, Control_c, 0, 64, 72
1, 516476, Control_c, 0, 64, 75
1, 516491, Control_c, 0, 64, 77
1, 516506, Control_c, 0, 64, 80
1, 516521, Control_c, 0, 64, 82
1, 516535, Control_c, 0, 64, 85
1, 516550, Control_c, 0, 64, 89
1, 516565, Control_c, 0, 64, 93
1, 516579, Note_on_c, 0, 62, 40
1, 516579, Control_c, 0, 64, 97
1, 516594, Control_c, 0, 64, 101
1, 516609, Control_c, 0, 64, 106
1, 516624, Control_c, 0, 64, 111
1, 516639, Control_c, 0, 64, 118
1, 516654, Control_c, 0, 64, 127
1, 516722, Note_off_c, 0, 58, 41
1, 516961, Note_on_c, 0, 58, 45
1, 517000, Note_off_c, 0, 77, 58
1, 517137, Note_off_c, 0, 62, 40
1, 517168, Note_on_c, 0, 82, 59
1, 517346, Note_off_c, 0, 82, 54
1, 517415, Note_on_c, 0, 74, 61
1, 517450, Note_on_c, 0, 62, 38
1, 517568, Note_off_c, 0, 58, 48
1, 517615, Note_on_c, 0, 79, 57
1, 517657, Note_off_c, 0, 53, 35
1, 517820, Note_on_c, 0, 77, 55
1, 517832, Control_c, 0, 64, 109
1, 517841, Note_on_c, 0, 57, 35
1, 517847, Control_c, 0, 64, 95
1, 517849, Note_on_c, 0, 53, 33
1, 517862, Control_c, 0, 64, 84
1, 517876, Control_c, 0, 64, 74
1, 517889, Note_off_c, 0, 74, 40
1, 517891, Control_c, 0, 64, 66
1, 517907, Control_c, 0, 64, 59
1, 517907, Control_c, 0, 67, 38
1, 517922, Control_c, 0, 64, 53
1, 517922, Control_c, 0, 67, 51
1, 517937, Control_c, 0, 64, 48
1, 517937, Control_c, 0, 67, 65
1, 517951, Control_c, 0, 64, 45
1, 517951, Control_c, 0, 67, 79
1, 517952, Note_off_c, 0, 62, 44
1, 517966, Control_c, 0, 64, 43
1, 517966, Control_c, 0, 67, 92
1, 517989, Control_c, 0, 64, 42
1, 517989, Control_c, 0, 67, 103
1, 518004, Control_c, 0, 64, 39
1, 518004, Control_c, 0, 67, 112
1, 518012, Note_on_c, 0, 75, 55
1, 518019, Control_c, 0, 64, 34
1, 518019, Control_c, 0, 67, 117
1, 518033, Control_c, 0, 64, 0
1, 518033, Control_c, 0, 67, 120
1, 518103, Note_off_c, 0, 77, 56
1, 518151, Control_c, 0, 67, 116
1, 518159, Note_off_c, 0, 79, 33
1, 518166, Control_c, 0, 67, 114
1, 518181, Control_c, 0, 67, 111
1, 518194, Note_on_c, 0, 72, 63
1, 518196, Control_c, 0, 67, 109
1, 518198, Note_on_c, 0, 60, 37
1, 518211, Control_c, 0, 67, 106
1, 518225, Control_c, 0, 64, 36
1, 518225, Control_c, 0, 67, 101
1, 518240, Control_c, 0, 64, 47
1, 518240, Control_c, 0, 67, 97
1, 518255, Control_c, 0, 64, 58
1, 518255, Control_c, 0, 67, 93
1, 518270, Control_c, 0, 64, 64
1, 518270, Control_c, 0, 67, 89
1, 518279, Note_off_c, 0, 75, 59
1, 518285, Control_c, 0, 64, 68
1, 518285, Control_c, 0, 67, 86
1, 518299, Control_c, 0, 64, 71
1, 518299, Control_c, 0, 67, 79
1, 518314, Control_c, 0, 64, 74
1, 518314, Control_c, 0, 67, 65
1, 518329, Control_c, 0, 64, 77
1, 518329, Control_c, 0, 67, 47
1, 518333, Note_off_c, 0, 72, 59
1, 518344, Control_c, 0, 64, 80
1, 518344, Control_c, 0, 67, 0
1, 518359, Control_c, 0, 64, 84
1, 518374, Control_c, 0, 64, 89
1, 518389, Control_c, 0, 64, 96
1, 518401, Note_on_c, 0, 69, 62
1, 518404, Control_c, 0, 64, 106
1, 518419, Control_c, 0, 64, 127
1, 518430, Note_off_c, 0, 57, 34
1, 518453, Note_off_c, 0, 53, 34
1, 518474, Note_off_c, 0, 69, 61
1, 518500, Note_off_c, 0, 60, 63
1, 518717, Note_on_c, 0, 86, 86
1, 518746, Note_on_c, 0, 62, 58
1, 518753, Note_on_c, 0, 58, 54
1, 518812, Control_c, 0, 64, 119
1, 518827, Control_c, 0, 64, 90
1, 518842, Control_c, 0, 64, 74
1, 518856, Control_c, 0, 64, 61
1, 518871, Control_c, 0, 64, 48
1, 518886, Control_c, 0, 64, 37
1, 518901, Control_c, 0, 64, 34
1, 518916, Control_c, 0, 64, 35
1, 518930, Control_c, 0, 64, 40
1, 518945, Control_c, 0, 64, 47
1, 518960, Control_c, 0, 64, 55
1, 518974, Control_c, 0, 64, 61
1, 518989, Control_c, 0, 64, 66
1, 519004, Control_c, 0, 64, 69
1, 519019, Control_c, 0, 64, 73
1, 519034, Control_c, 0, 64, 76
1, 519048, Control_c, 0, 64, 79
1, 519063, Control_c, 0, 64, 82
1, 519078, Control_c, 0, 64, 84
1, 519092, Control_c, 0, 64, 88
1, 519107, Control_c, 0, 64, 93
1, 519122, Control_c, 0, 64, 100
1, 519137, Control_c, 0, 64, 110
1, 519152, Control_c, 0, 64, 127
1, 519164, Note_on_c, 0, 65, 50
1, 519238, Note_off_c, 0, 62, 62
1, 519421, Note_off_c, 0, 65, 48
1, 519540, Note_on_c, 0, 60, 68
1, 519578, Note_on_c, 0, 54, 51
1, 519605, Control_c, 0, 64, 99
1, 519620, Control_c, 0, 64, 77
1, 519635, Control_c, 0, 64, 64
1, 519650, Control_c, 0, 64, 49
1, 519665, Control_c, 0, 64, 0
1, 519680, Note_off_c, 0, 58, 37
1, 519738, Control_c, 0, 64, 31
1, 519753, Control_c, 0, 64, 45
1, 519768, Control_c, 0, 64, 57
1, 519783, Control_c, 0, 64, 65
1, 519797, Control_c, 0, 64, 71
1, 519812, Control_c, 0, 64, 75
1, 519827, Control_c, 0, 64, 77
1, 519842, Control_c, 0, 64, 80
1, 519857, Control_c, 0, 64, 84
1, 519871, Control_c, 0, 64, 89
1, 519886, Control_c, 0, 64, 95
1, 519901, Control_c, 0, 64, 102
1, 519916, Control_c, 0, 64, 113
1, 519925, Note_on_c, 0, 62, 60
1, 519930, Control_c, 0, 64, 127
1, 519992, Note_off_c, 0, 60, 57
1, 520168, Note_off_c, 0, 54, 61
1, 520356, Note_on_c, 0, 58, 65
1, 520380, Note_on_c, 0, 55, 44
1, 520383, Control_c, 0, 64, 117
1, 520398, Control_c, 0, 64, 93
1, 520413, Control_c, 0, 64, 76
1, 520428, Control_c, 0, 64, 61
1, 520443, Control_c, 0, 64, 46
1, 520457, Control_c, 0, 64, 0
1, 520517, Note_on_c, 0, 84, 66
1, 520517, Control_c, 0, 64, 39
1, 520532, Control_c, 0, 64, 52
1, 520541, Note_off_c, 0, 62, 57
1, 520546, Control_c, 0, 64, 61
1, 520561, Control_c, 0, 64, 67
1, 520571, Note_off_c, 0, 86, 61
1, 520576, Control_c, 0, 64, 73
1, 520591, Control_c, 0, 64, 77
1, 520606, Control_c, 0, 64, 79
1, 520620, Control_c, 0, 64, 81
1, 520635, Control_c, 0, 64, 84
1, 520650, Control_c, 0, 64, 87
1, 520663, Note_on_c, 0, 87, 70
1, 520665, Control_c, 0, 64, 90
1, 520680, Control_c, 0, 64, 94
1, 520694, Control_c, 0, 64, 97
1, 520705, Note_off_c, 0, 84, 58
1, 520709, Control_c, 0, 64, 100
1, 520724, Control_c, 0, 64, 102
1, 520753, Control_c, 0, 64, 104
1, 520776, Note_on_c, 0, 86, 77
1, 520818, Note_off_c, 0, 87, 60
1, 520842, Control_c, 0, 64, 96
1, 520857, Control_c, 0, 64, 84
1, 520863, Note_off_c, 0, 86, 63
1, 520872, Control_c, 0, 64, 71
1, 520887, Note_on_c, 0, 84, 72
1, 520887, Control_c, 0, 64, 61
1, 520891, Note_on_c, 0, 61, 52
1, 520895, Note_on_c, 0, 52, 46
1, 520902, Control_c, 0, 64, 52
1, 520917, Control_c, 0, 64, 48
1, 520919, Note_off_c, 0, 55, 44
1, 520931, Control_c, 0, 64, 50
1, 520940, Note_off_c, 0, 58, 58
1, 520946, Control_c, 0, 64, 54
1, 520961, Control_c, 0, 64, 60
1, 520983, Control_c, 0, 64, 65
1, 520998, Control_c, 0, 64, 70
1, 521000, Note_on_c, 0, 82, 72
1, 521002, Note_off_c, 0, 84, 56
1, 521012, Control_c, 0, 64, 77
1, 521026, Control_c, 0, 64, 82
1, 521041, Control_c, 0, 64, 86
1, 521056, Control_c, 0, 64, 89
1, 521070, Control_c, 0, 64, 91
1, 521073, Note_off_c, 0, 52, 37
1, 521079, Note_off_c, 0, 61, 64
1, 521085, Control_c, 0, 64, 93
1, 521085, Control_c, 0, 67, 41
1, 521101, Control_c, 0, 64, 95
1, 521101, Control_c, 0, 67, 49
1, 521107, Note_on_c, 0, 81, 77
1, 521116, Control_c, 0, 64, 97
1, 521116, Control_c, 0, 67, 56
1, 521131, Control_c, 0, 67, 65
1, 521146, Control_c, 0, 64, 99
1, 521146, Control_c, 0, 67, 75
1, 521161, Control_c, 0, 67, 87
1, 521175, Control_c, 0, 67, 99
1, 521190, Control_c, 0, 67, 113
1, 521203, Note_off_c, 0, 82, 38
1, 521205, Control_c, 0, 67, 124
1, 521218, Note_on_c, 0, 79, 75
1, 521220, Control_c, 0, 67, 127
1, 521268, Note_off_c, 0, 81, 56
1, 521323, Control_c, 0, 64, 97
1, 521338, Control_c, 0, 64, 95
1, 521353, Control_c, 0, 64, 92
1, 521363, Note_on_c, 0, 77, 72
1, 521367, Control_c, 0, 64, 89
1, 521379, Note_on_c, 0, 62, 45
1, 521382, Control_c, 0, 64, 84
1, 521393, Note_on_c, 0, 53, 37
1, 521397, Control_c, 0, 64, 79
1, 521412, Control_c, 0, 64, 73
1, 521414, Note_off_c, 0, 79, 64
1, 521427, Control_c, 0, 64, 66
1, 521441, Control_c, 0, 64, 59
1, 521456, Control_c, 0, 64, 53
1, 521471, Control_c, 0, 64, 47
1, 521486, Control_c, 0, 64, 39
1, 521501, Control_c, 0, 64, 0
1, 521679, Control_c, 0, 64, 35
1, 521693, Control_c, 0, 64, 42
1, 521708, Control_c, 0, 64, 48
1, 521730, Control_c, 0, 64, 53
1, 521745, Control_c, 0, 64, 57
1, 521761, Control_c, 0, 64, 58
1, 521775, Control_c, 0, 64, 59
1, 521790, Control_c, 0, 64, 60
1, 521793, Note_on_c, 0, 65, 41
1, 521805, Control_c, 0, 64, 61
1, 521820, Control_c, 0, 64, 62
1, 521835, Control_c, 0, 64, 63
1, 521850, Control_c, 0, 64, 65
1, 521864, Control_c, 0, 64, 68
1, 521879, Control_c, 0, 64, 70
1, 521895, Control_c, 0, 64, 73
1, 521910, Control_c, 0, 64, 75
1, 521918, Note_off_c, 0, 62, 36
1, 521924, Control_c, 0, 64, 77
1, 521939, Control_c, 0, 64, 79
1, 521954, Control_c, 0, 64, 81
1, 521969, Control_c, 0, 64, 83
1, 521984, Control_c, 0, 64, 84
1, 521999, Control_c, 0, 64, 85
1, 522014, Control_c, 0, 64, 86
1, 522028, Control_c, 0, 64, 87
1, 522031, Note_off_c, 0, 65, 37
1, 522236, Control_c, 0, 64, 86
1, 522265, Control_c, 0, 64, 85
1, 522280, Control_c, 0, 64, 84
1, 522295, Control_c, 0, 64, 83
1, 522302, Note_on_c, 0, 58, 36
1, 522310, Control_c, 0, 64, 81
1, 522324, Control_c, 0, 64, 79
1, 522339, Control_c, 0, 64, 76
1, 522354, Control_c, 0, 64, 73
1, 522369, Control_c, 0, 64, 69
1, 522384, Control_c, 0, 64, 65
1, 522398, Control_c, 0, 64, 61
1, 522413, Control_c, 0, 64, 58
1, 522428, Control_c, 0, 64, 56
1, 522446, Note_on_c, 0, 78, 40
1, 522452, Note_off_c, 0, 77, 50
1, 522550, Note_off_c, 0, 78, 54
1, 522578, Note_on_c, 0, 81, 46
1, 522688, Note_on_c, 0, 79, 45
1, 522778, Note_off_c, 0, 81, 32
1, 522779, Note_off_c, 0, 79, 57
1, 522794, Note_on_c, 0, 77, 54
1, 522826, Note_on_c, 0, 62, 29
1, 522884, Note_off_c, 0, 77, 62
1, 522893, Note_on_c, 0, 75, 58
1, 522929, Note_off_c, 0, 58, 33
1, 522961, Note_off_c, 0, 75, 62
1, 522989, Note_off_c, 0, 53, 56
1, 522992, Note_on_c, 0, 74, 65
1, 523000, Control_c, 0, 64, 57
1, 523029, Control_c, 0, 64, 57
1, 523063, Note_off_c, 0, 74, 60
1, 523095, Note_on_c, 0, 72, 53
1, 523168, Note_off_c, 0, 72, 60
1, 523190, Note_on_c, 0, 70, 55
1, 523205, Note_on_c, 0, 60, 31
1, 523207, Control_c, 0, 64, 57
1, 523231, Note_on_c, 0, 53, 27
1, 523267, Note_off_c, 0, 62, 44
1, 523273, Control_c, 0, 64, 56
1, 523274, Note_off_c, 0, 70, 63
1, 523307, Note_on_c, 0, 69, 51
1, 523318, Control_c, 0, 64, 56
1, 523347, Control_c, 0, 64, 55
1, 523377, Control_c, 0, 64, 55
1, 523392, Control_c, 0, 64, 54
1, 523407, Control_c, 0, 64, 54
1, 523415, Note_off_c, 0, 69, 37
1, 523417, Note_on_c, 0, 75, 46
1, 523421, Control_c, 0, 64, 53
1, 523451, Control_c, 0, 64, 53
1, 523465, Control_c, 0, 64, 52
1, 523480, Control_c, 0, 64, 52
1, 523497, Control_c, 0, 64, 51
1, 523510, Note_off_c, 0, 75, 61
1, 523512, Control_c, 0, 64, 49
1, 523526, Control_c, 0, 64, 48
1, 523536, Note_on_c, 0, 74, 48
1, 523541, Control_c, 0, 64, 46
1, 523556, Control_c, 0, 64, 43
1, 523570, Control_c, 0, 64, 41
1, 523585, Control_c, 0, 64, 37
1, 523600, Control_c, 0, 64, 34
1, 523608, Note_off_c, 0, 74, 52
1, 523615, Control_c, 0, 64, 32
1, 523638, Note_on_c, 0, 63, 36
1, 523651, Note_on_c, 0, 77, 48
1, 523689, Control_c, 0, 64, 34
1, 523704, Control_c, 0, 64, 38
1, 523719, Control_c, 0, 64, 45
1, 523724, Note_off_c, 0, 60, 36
1, 523734, Control_c, 0, 64, 52
1, 523748, Control_c, 0, 64, 58
1, 523763, Control_c, 0, 64, 63
1, 523770, Note_on_c, 0, 75, 45
1, 523778, Control_c, 0, 64, 66
1, 523793, Control_c, 0, 64, 69
1, 523808, Control_c, 0, 64, 72
1, 523823, Control_c, 0, 64, 74
1, 523837, Control_c, 0, 64, 75
1, 523841, Note_off_c, 0, 77, 36
1, 523852, Control_c, 0, 64, 77
1, 523867, Control_c, 0, 64, 80
1, 523882, Control_c, 0, 64, 82
1, 523883, Note_off_c, 0, 75, 58
1, 523889, Note_on_c, 0, 72, 48
1, 523891, Note_off_c, 0, 63, 34
1, 523896, Control_c, 0, 64, 85
1, 523911, Control_c, 0, 64, 88
1, 523921, Note_off_c, 0, 53, 34
1, 523926, Control_c, 0, 64, 90
1, 523941, Control_c, 0, 64, 91
1, 523956, Control_c, 0, 64, 91
1, 523966, Note_off_c, 0, 72, 58
1, 523978, Control_c, 0, 64, 92
1, 524008, Control_c, 0, 64, 92
1, 524035, Note_on_c, 0, 69, 50
1, 524111, Control_c, 0, 64, 92
1, 524141, Control_c, 0, 64, 91
1, 524156, Control_c, 0, 64, 90
1, 524170, Control_c, 0, 64, 87
1, 524185, Control_c, 0, 64, 82
1, 524200, Control_c, 0, 64, 75
1, 524208, Note_on_c, 0, 70, 55
1, 524215, Control_c, 0, 64, 68
1, 524227, Note_on_c, 0, 62, 36
1, 524230, Control_c, 0, 64, 60
1, 524232, Note_on_c, 0, 58, 35
1, 524243, Note_off_c, 0, 69, 37
1, 524244, Control_c, 0, 64, 52
1, 524259, Control_c, 0, 64, 43
1, 524274, Control_c, 0, 64, 32
1, 524290, Control_c, 0, 64, 0
1, 524365, Note_on_c, 0, 69, 55
1, 524376, Note_off_c, 0, 70, 59
1, 524379, Control_c, 0, 64, 32
1, 524393, Control_c, 0, 64, 42
1, 524408, Control_c, 0, 64, 53
1, 524423, Control_c, 0, 64, 61
1, 524438, Control_c, 0, 64, 64
1, 524453, Control_c, 0, 64, 66
1, 524467, Control_c, 0, 64, 67
1, 524482, Control_c, 0, 64, 68
1, 524488, Note_off_c, 0, 69, 51
1, 524497, Control_c, 0, 64, 68
1, 524511, Note_on_c, 0, 72, 43
1, 524512, Control_c, 0, 64, 69
1, 524526, Control_c, 0, 64, 69
1, 524541, Control_c, 0, 64, 70
1, 524556, Control_c, 0, 64, 70
1, 524571, Control_c, 0, 64, 71
1, 524582, Note_off_c, 0, 58, 32
1, 524586, Control_c, 0, 64, 72
1, 524601, Control_c, 0, 64, 73
1, 524616, Control_c, 0, 64, 75
1, 524620, Note_off_c, 0, 62, 28
1, 524631, Control_c, 0, 64, 77
1, 524646, Control_c, 0, 64, 79
1, 524646, Note_on_c, 0, 70, 54
1, 524660, Control_c, 0, 64, 81
1, 524675, Control_c, 0, 64, 83
1, 524676, Note_off_c, 0, 72, 33
1, 524690, Control_c, 0, 64, 85
1, 524711, Control_c, 0, 64, 85
1, 524726, Control_c, 0, 64, 86
1, 524777, Note_on_c, 0, 69, 55
1, 524829, Note_off_c, 0, 70, 33
1, 524878, Note_off_c, 0, 69, 58
1, 524890, Control_c, 0, 64, 85
1, 524917, Note_on_c, 0, 67, 55
1, 524920, Control_c, 0, 64, 85
1, 524935, Control_c, 0, 64, 84
1, 524950, Control_c, 0, 64, 83
1, 524965, Control_c, 0, 64, 81
1, 524980, Control_c, 0, 64, 79
1, 524994, Control_c, 0, 64, 76
1, 525009, Control_c, 0, 64, 72
1, 525024, Control_c, 0, 64, 68
1, 525038, Control_c, 0, 64, 63
1, 525048, Note_on_c, 0, 65, 65
1, 525053, Control_c, 0, 64, 59
1, 525068, Control_c, 0, 64, 56
1, 525083, Control_c, 0, 64, 54
1, 525099, Control_c, 0, 64, 53
1, 525105, Note_off_c, 0, 67, 40
1, 525114, Control_c, 0, 64, 53
1, 525129, Control_c, 0, 64, 52
1, 525143, Control_c, 0, 64, 52
1, 525158, Control_c, 0, 64, 51
1, 525173, Control_c, 0, 64, 50
1, 525185, Note_on_c, 0, 64, 65
1, 525203, Control_c, 0, 64, 50
1, 525217, Control_c, 0, 64, 49
1, 525221, Note_off_c, 0, 65, 60
1, 525232, Control_c, 0, 64, 49
1, 525247, Control_c, 0, 64, 48
1, 525277, Control_c, 0, 64, 48
1, 525306, Control_c, 0, 64, 47
1, 525318, Note_on_c, 0, 67, 68
1, 525321, Control_c, 0, 64, 47
1, 525344, Note_off_c, 0, 64, 63
1, 525380, Control_c, 0, 64, 46
1, 525453, Note_on_c, 0, 65, 73
1, 525535, Control_c, 0, 64, 47
1, 525568, Note_off_c, 0, 67, 37
1, 525579, Control_c, 0, 64, 47
1, 525587, Note_on_c, 0, 63, 73
1, 525594, Control_c, 0, 64, 48
1, 525609, Control_c, 0, 64, 48
1, 525623, Control_c, 0, 64, 49
1, 525623, Control_c, 0, 67, 125
1, 525632, Note_off_c, 0, 65, 59
1, 525638, Control_c, 0, 64, 49
1, 525638, Control_c, 0, 67, 111
1, 525653, Control_c, 0, 67, 97
1, 525668, Control_c, 0, 64, 50
1, 525668, Control_c, 0, 67, 80
1, 525683, Control_c, 0, 64, 50
1, 525683, Control_c, 0, 67, 65
1, 525698, Control_c, 0, 67, 50
1, 525713, Control_c, 0, 67, 36
1, 525720, Note_on_c, 0, 62, 69
1, 525720, Note_off_c, 0, 63, 63
1, 525728, Control_c, 0, 67, 0
1, 525849, Note_on_c, 0, 60, 73
1, 525886, Note_off_c, 0, 62, 50
1, 525892, Control_c, 0, 64, 50
1, 525921, Control_c, 0, 64, 49
1, 525936, Control_c, 0, 64, 49
1, 525951, Control_c, 0, 64, 48
1, 525965, Control_c, 0, 64, 47
1, 525973, Note_on_c, 0, 59, 72
1, 525980, Control_c, 0, 64, 45
1, 525995, Control_c, 0, 64, 43
1, 526010, Control_c, 0, 64, 39
1, 526018, Note_off_c, 0, 60, 60
1, 526025, Control_c, 0, 64, 33
1, 526039, Control_c, 0, 64, 0
1, 526109, Note_on_c, 0, 62, 73
1, 526141, Note_off_c, 0, 59, 64
1, 526241, Note_on_c, 0, 60, 75
1, 526254, Control_c, 0, 64, 32
1, 526269, Control_c, 0, 64, 42
1, 526284, Control_c, 0, 64, 51
1, 526298, Control_c, 0, 64, 59
1, 526313, Control_c, 0, 64, 63
1, 526328, Control_c, 0, 64, 65
1, 526337, Note_off_c, 0, 62, 37
1, 526343, Control_c, 0, 64, 67
1, 526358, Control_c, 0, 64, 68
1, 526364, Note_on_c, 0, 58, 76
1, 526372, Control_c, 0, 64, 70
1, 526387, Control_c, 0, 64, 71
1, 526402, Control_c, 0, 64, 72
1, 526417, Control_c, 0, 64, 73
1, 526419, Note_off_c, 0, 60, 63
1, 526432, Control_c, 0, 64, 74
1, 526446, Control_c, 0, 64, 75
1, 526461, Control_c, 0, 64, 75
1, 526476, Control_c, 0, 64, 76
1, 526497, Note_on_c, 0, 57, 75
1, 526506, Control_c, 0, 64, 77
1, 526518, Note_off_c, 0, 58, 62
1, 526691, Note_on_c, 0, 55, 77
1, 526706, Note_on_c, 0, 51, 60
1, 526717, Note_on_c, 0, 45, 57
1, 526770, Note_off_c, 0, 57, 50
1, 526774, Control_c, 0, 64, 76
1, 526803, Control_c, 0, 64, 76
1, 526818, Control_c, 0, 64, 75
1, 526833, Control_c, 0, 64, 74
1, 526848, Control_c, 0, 64, 73
1, 526862, Control_c, 0, 64, 71
1, 526877, Control_c, 0, 64, 69
1, 526892, Control_c, 0, 64, 65
1, 526906, Control_c, 0, 64, 61
1, 526921, Control_c, 0, 64, 57
1, 526936, Control_c, 0, 64, 54
1, 526951, Control_c, 0, 64, 52
1, 526974, Control_c, 0, 64, 51
1, 526988, Control_c, 0, 64, 50
1, 527003, Control_c, 0, 64, 48
1, 527018, Control_c, 0, 64, 47
1, 527033, Control_c, 0, 64, 45
1, 527048, Control_c, 0, 64, 44
1, 527062, Control_c, 0, 64, 42
1, 527077, Control_c, 0, 64, 39
1, 527092, Control_c, 0, 64, 37
1, 527107, Control_c, 0, 64, 34
1, 527121, Control_c, 0, 64, 32
1, 527136, Control_c, 0, 64, 30
1, 527151, Control_c, 0, 64, 0
1, 527373, Control_c, 0, 67, 36
1, 527388, Control_c, 0, 67, 44
1, 527403, Control_c, 0, 67, 52
1, 527418, Control_c, 0, 67, 63
1, 527432, Control_c, 0, 67, 73
1, 527447, Control_c, 0, 67, 85
1, 527462, Control_c, 0, 67, 101
1, 527478, Control_c, 0, 67, 117
1, 527492, Control_c, 0, 67, 127
1, 527594, Note_off_c, 0, 55, 53
1, 527597, Note_on_c, 0, 53, 43
1, 527685, Control_c, 0, 64, 43
1, 527707, Control_c, 0, 64, 57
1, 527722, Control_c, 0, 64, 65
1, 527724, Note_off_c, 0, 53, 61
1, 527737, Control_c, 0, 64, 71
1, 527752, Control_c, 0, 64, 77
1, 527767, Control_c, 0, 64, 83
1, 527782, Control_c, 0, 64, 94
1, 527796, Control_c, 0, 64, 109
1, 527811, Control_c, 0, 64, 127
1, 527939, Note_off_c, 0, 45, 32
1, 527953, Note_off_c, 0, 51, 52
1, 528011, Note_on_c, 0, 77, 50
1, 528082, Note_off_c, 0, 77, 59
1, 528389, Note_on_c, 0, 77, 73
1, 528405, Control_c, 0, 64, 97
1, 528419, Control_c, 0, 64, 77
1, 528422, Note_on_c, 0, 63, 54
1, 528434, Control_c, 0, 64, 64
1, 528437, Note_on_c, 0, 57, 38
1, 528456, Control_c, 0, 64, 53
1, 528471, Control_c, 0, 64, 49
1, 528485, Control_c, 0, 64, 51
1, 528485, Control_c, 0, 67, 123
1, 528501, Control_c, 0, 64, 55
1, 528501, Control_c, 0, 67, 99
1, 528516, Control_c, 0, 64, 61
1, 528516, Control_c, 0, 67, 74
1, 528531, Control_c, 0, 64, 66
1, 528531, Control_c, 0, 67, 49
1, 528546, Control_c, 0, 64, 73
1, 528546, Control_c, 0, 67, 0
1, 528560, Control_c, 0, 64, 81
1, 528575, Control_c, 0, 64, 89
1, 528583, Note_off_c, 0, 77, 56
1, 528590, Control_c, 0, 64, 97
1, 528605, Control_c, 0, 64, 104
1, 528620, Control_c, 0, 64, 110
1, 528634, Control_c, 0, 64, 122
1, 528649, Control_c, 0, 64, 127
1, 528789, Note_on_c, 0, 77, 84
1, 528846, Note_off_c, 0, 77, 64
1, 528905, Note_off_c, 0, 63, 61
1, 529051, Note_off_c, 0, 57, 45
1, 529183, Control_c, 0, 64, 117
1, 529198, Control_c, 0, 64, 94
1, 529215, Note_on_c, 0, 77, 67
1, 529220, Note_on_c, 0, 62, 47
1, 529221, Control_c, 0, 64, 82
1, 529230, Note_on_c, 0, 58, 44
1, 529236, Control_c, 0, 64, 73
1, 529250, Control_c, 0, 64, 64
1, 529264, Control_c, 0, 64, 56
1, 529279, Control_c, 0, 64, 51
1, 529279, Control_c, 0, 67, 39
1, 529294, Control_c, 0, 64, 47
1, 529294, Control_c, 0, 67, 52
1, 529308, Control_c, 0, 64, 46
1, 529308, Control_c, 0, 67, 65
1, 529322, Note_off_c, 0, 77, 62
1, 529323, Control_c, 0, 64, 45
1, 529323, Control_c, 0, 67, 80
1, 529338, Control_c, 0, 64, 44
1, 529338, Control_c, 0, 67, 97
1, 529353, Control_c, 0, 67, 119
1, 529358, Note_on_c, 0, 79, 53
1, 529368, Control_c, 0, 67, 127
1, 529382, Control_c, 0, 64, 44
1, 529412, Control_c, 0, 64, 43
1, 529419, Note_on_c, 0, 77, 69
1, 529421, Note_off_c, 0, 79, 64
1, 529427, Control_c, 0, 64, 43
1, 529448, Note_off_c, 0, 77, 66
1, 529465, Note_on_c, 0, 76, 50
1, 529495, Note_off_c, 0, 62, 61
1, 529499, Note_off_c, 0, 76, 59
1, 529508, Note_on_c, 0, 77, 55
1, 529534, Note_off_c, 0, 77, 55
1, 529546, Control_c, 0, 64, 43
1, 529567, Note_on_c, 0, 82, 65
1, 529576, Control_c, 0, 64, 44
1, 529590, Note_off_c, 0, 82, 68
1, 529668, Note_off_c, 0, 58, 59
1, 529671, Note_on_c, 0, 72, 63
1, 529679, Control_c, 0, 64, 43
1, 529690, Note_on_c, 0, 51, 37
1, 529694, Control_c, 0, 64, 43
1, 529699, Note_on_c, 0, 63, 39
1, 529708, Control_c, 0, 64, 41
1, 529723, Control_c, 0, 64, 38
1, 529734, Note_off_c, 0, 72, 52
1, 529738, Control_c, 0, 64, 35
1, 529753, Control_c, 0, 64, 31
1, 529767, Note_on_c, 0, 74, 61
1, 529768, Control_c, 0, 64, 0
1, 529810, Note_on_c, 0, 72, 61
1, 529818, Note_off_c, 0, 74, 61
1, 529841, Note_off_c, 0, 72, 65
1, 529858, Note_on_c, 0, 71, 66
1, 529884, Note_off_c, 0, 71, 68
1, 529919, Note_on_c, 0, 72, 64
1, 529946, Control_c, 0, 64, 39
1, 529969, Control_c, 0, 64, 51
1, 529984, Control_c, 0, 64, 61
1, 529992, Note_off_c, 0, 51, 60
1, 529999, Control_c, 0, 64, 65
1, 530008, Note_on_c, 0, 79, 61
1, 530013, Control_c, 0, 64, 69
1, 530020, Note_off_c, 0, 63, 57
1, 530028, Control_c, 0, 64, 72
1, 530032, Note_off_c, 0, 79, 69
1, 530043, Control_c, 0, 64, 73
1, 530057, Control_c, 0, 64, 73
1, 530146, Control_c, 0, 64, 73
1, 530158, Note_off_c, 0, 72, 53
1, 530159, Note_on_c, 0, 70, 68
1, 530161, Control_c, 0, 64, 72
1, 530176, Control_c, 0, 64, 69
1, 530182, Note_on_c, 0, 62, 39
1, 530190, Note_on_c, 0, 53, 42
1, 530191, Control_c, 0, 64, 65
1, 530205, Control_c, 0, 64, 59
1, 530220, Control_c, 0, 64, 49
1, 530235, Control_c, 0, 64, 37
1, 530250, Control_c, 0, 64, 0
1, 530369, Control_c, 0, 64, 35
1, 530384, Control_c, 0, 64, 44
1, 530398, Control_c, 0, 64, 52
1, 530413, Control_c, 0, 64, 58
1, 530428, Control_c, 0, 64, 62
1, 530443, Control_c, 0, 64, 64
1, 530457, Control_c, 0, 64, 65
1, 530472, Control_c, 0, 64, 66
1, 530487, Control_c, 0, 64, 67
1, 530502, Control_c, 0, 64, 68
1, 530517, Control_c, 0, 64, 69
1, 530531, Control_c, 0, 64, 71
1, 530546, Control_c, 0, 64, 73
1, 530561, Control_c, 0, 64, 75
1, 530576, Control_c, 0, 64, 76
1, 530591, Control_c, 0, 64, 78
1, 530605, Control_c, 0, 64, 80
1, 530605, Control_c, 0, 67, 120
1, 530620, Control_c, 0, 64, 81
1, 530620, Control_c, 0, 67, 106
1, 530635, Control_c, 0, 64, 84
1, 530635, Control_c, 0, 67, 94
1, 530649, Control_c, 0, 64, 87
1, 530649, Control_c, 0, 67, 82
1, 530664, Control_c, 0, 64, 91
1, 530664, Control_c, 0, 67, 71
1, 530680, Control_c, 0, 64, 95
1, 530680, Control_c, 0, 67, 58
1, 530695, Control_c, 0, 64, 99
1, 530695, Control_c, 0, 67, 44
1, 530718, Control_c, 0, 64, 105
1, 530718, Control_c, 0, 67, 0
1, 530733, Control_c, 0, 64, 120
1, 530748, Control_c, 0, 64, 127
1, 530787, Note_on_c, 0, 72, 59
1, 530800, Note_off_c, 0, 70, 59
1, 530887, Note_on_c, 0, 70, 73
1, 530935, Note_off_c, 0, 72, 59
1, 530969, Note_on_c, 0, 69, 74
1, 530977, Note_off_c, 0, 70, 61
1, 530995, Note_off_c, 0, 62, 30
1, 531058, Note_on_c, 0, 70, 75
1, 531099, Note_off_c, 0, 69, 61
1, 531201, Note_on_c, 0, 74, 77
1, 531226, Note_on_c, 0, 69, 60
1, 531227, Note_on_c, 0, 63, 57
1, 531236, Control_c, 0, 64, 112
1, 531239, Note_on_c, 0, 54, 43
1, 531251, Control_c, 0, 64, 99
1, 531266, Control_c, 0, 64, 90
1, 531280, Control_c, 0, 64, 82
1, 531295, Control_c, 0, 64, 74
1, 531310, Control_c, 0, 64, 68
1, 531325, Control_c, 0, 64, 62
1, 531331, Note_off_c, 0, 70, 50
1, 531340, Control_c, 0, 64, 56
1, 531354, Control_c, 0, 64, 54
1, 531369, Control_c, 0, 64, 52
1, 531371, Note_off_c, 0, 53, 34
1, 531384, Control_c, 0, 64, 52
1, 531398, Control_c, 0, 64, 51
1, 531413, Control_c, 0, 64, 50
1, 531428, Control_c, 0, 64, 47
1, 531451, Control_c, 0, 64, 44
1, 531466, Control_c, 0, 64, 40
1, 531481, Control_c, 0, 64, 35
1, 531497, Control_c, 0, 64, 29
1, 531511, Control_c, 0, 64, 0
1, 531733, Note_on_c, 0, 72, 58
1, 531793, Control_c, 0, 64, 37
1, 531808, Control_c, 0, 64, 47
1, 531823, Control_c, 0, 64, 57
1, 531837, Control_c, 0, 64, 62
1, 531852, Control_c, 0, 64, 65
1, 531867, Control_c, 0, 64, 68
1, 531882, Control_c, 0, 64, 70
1, 531897, Control_c, 0, 64, 73
1, 531904, Note_off_c, 0, 74, 37
1, 531911, Control_c, 0, 64, 76
1, 531926, Control_c, 0, 64, 80
1, 531941, Control_c, 0, 64, 85
1, 531952, Note_off_c, 0, 69, 35
1, 531956, Control_c, 0, 64, 91
1, 531966, Note_off_c, 0, 63, 39
1, 531971, Control_c, 0, 64, 96
1, 531985, Control_c, 0, 64, 101
1, 532000, Control_c, 0, 64, 104
1, 532015, Control_c, 0, 64, 107
1, 532044, Control_c, 0, 64, 109
1, 532157, Note_on_c, 0, 70, 60
1, 532184, Note_on_c, 0, 55, 44
1, 532188, Note_on_c, 0, 62, 45
1, 532200, Control_c, 0, 64, 106
1, 532215, Control_c, 0, 64, 103
1, 532220, Note_off_c, 0, 54, 19
1, 532229, Control_c, 0, 64, 100
1, 532244, Control_c, 0, 64, 95
1, 532259, Control_c, 0, 64, 90
1, 532275, Control_c, 0, 64, 85
1, 532290, Control_c, 0, 64, 81
1, 532305, Control_c, 0, 64, 77
1, 532320, Control_c, 0, 64, 72
1, 532332, Note_on_c, 0, 54, 58
1, 532334, Control_c, 0, 64, 67
1, 532349, Control_c, 0, 64, 62
1, 532358, Note_off_c, 0, 55, 51
1, 532364, Control_c, 0, 64, 57
1, 532379, Control_c, 0, 64, 54
1, 532394, Control_c, 0, 64, 52
1, 532408, Control_c, 0, 64, 51
1, 532423, Control_c, 0, 64, 51
1, 532438, Control_c, 0, 64, 50
1, 532453, Control_c, 0, 64, 49
1, 532468, Control_c, 0, 64, 48
1, 532476, Note_on_c, 0, 57, 55
1, 532482, Control_c, 0, 64, 47
1, 532497, Control_c, 0, 64, 47
1, 532505, Note_off_c, 0, 54, 50
1, 532512, Control_c, 0, 64, 46
1, 532527, Control_c, 0, 64, 45
1, 532542, Control_c, 0, 64, 44
1, 532557, Control_c, 0, 64, 44
1, 532572, Control_c, 0, 64, 43
1, 532585, Note_off_c, 0, 57, 63
1, 532587, Control_c, 0, 64, 42
1, 532595, Note_on_c, 0, 55, 61
1, 532601, Control_c, 0, 64, 41
1, 532616, Control_c, 0, 64, 41
1, 532631, Control_c, 0, 64, 40
1, 532646, Control_c, 0, 64, 39
1, 532660, Control_c, 0, 64, 39
1, 532675, Control_c, 0, 64, 38
1, 532690, Control_c, 0, 64, 38
1, 532705, Control_c, 0, 64, 37
1, 532718, Poly_aftertouch_c, 0, 68, 127
1, 532720, Control_c, 0, 64, 37
1, 532727, Note_off_c, 0, 55, 59
1, 532733, Note_on_c, 0, 53, 63
1, 532734, Control_c, 0, 64, 36
1, 532794, Control_c, 0, 64, 36
1, 532852, Note_on_c, 0, 51, 70
1, 532885, Note_off_c, 0, 53, 54
1, 532989, Note_on_c, 0, 50, 73
1, 533028, Note_off_c, 0, 62, 34
1, 533028, Note_off_c, 0, 51, 59
1, 533053, Poly_aftertouch_c, 0, 68, 0
1, 533112, Note_off_c, 0, 72, 39
1, 533123, Note_on_c, 0, 49, 69
1, 533156, Note_off_c, 0, 50, 60
1, 533202, Note_off_c, 0, 70, 37
1, 533202, Control_c, 0, 64, 36
1, 533242, Note_on_c, 0, 51, 72
1, 533261, Control_c, 0, 64, 37
1, 533291, Note_off_c, 0, 49, 59
1, 533335, Control_c, 0, 64, 37
1, 533374, Note_on_c, 0, 50, 74
1, 533395, Control_c, 0, 64, 38
1, 533398, Note_off_c, 0, 51, 58
1, 533495, Note_off_c, 0, 50, 62
1, 533498, Note_on_c, 0, 48, 77
1, 533528, Control_c, 0, 64, 38
1, 533587, Control_c, 0, 64, 39
1, 533612, Note_on_c, 0, 46, 77
1, 533646, Control_c, 0, 64, 39
1, 533647, Note_off_c, 0, 48, 57
1, 533690, Control_c, 0, 64, 40
1, 533740, Note_on_c, 0, 44, 77
1, 533741, Control_c, 0, 64, 40
1, 533785, Control_c, 0, 64, 41
1, 533802, Note_off_c, 0, 46, 53
1, 533815, Control_c, 0, 64, 41
1, 533860, Control_c, 0, 64, 42
1, 533862, Note_on_c, 0, 43, 76
1, 533904, Note_off_c, 0, 44, 62
1, 533904, Control_c, 0, 64, 42
1, 533934, Control_c, 0, 64, 43
1, 533979, Control_c, 0, 64, 43
1, 533992, Note_on_c, 0, 46, 74
1, 534006, Note_off_c, 0, 43, 63
1, 534009, Control_c, 0, 64, 44
1, 534038, Control_c, 0, 64, 44
1, 534083, Control_c, 0, 64, 45
1, 534110, Note_on_c, 0, 44, 74
1, 534112, Control_c, 0, 64, 45
1, 534129, Note_off_c, 0, 46, 60
1, 534142, Control_c, 0, 64, 46
1, 534171, Control_c, 0, 64, 46
1, 534201, Control_c, 0, 64, 47
1, 534228, Note_off_c, 0, 44, 64
1, 534232, Note_on_c, 0, 43, 72
1, 534245, Control_c, 0, 64, 47
1, 534275, Control_c, 0, 64, 48
1, 534290, Control_c, 0, 64, 48
1, 534304, Control_c, 0, 64, 49
1, 534334, Control_c, 0, 64, 49
1, 534356, Note_on_c, 0, 41, 72
1, 534364, Control_c, 0, 64, 50
1, 534378, Note_off_c, 0, 43, 61
1, 534393, Control_c, 0, 64, 50
1, 534423, Control_c, 0, 64, 51
1, 534438, Control_c, 0, 64, 51
1, 534475, Control_c, 0, 64, 52
1, 534505, Control_c, 0, 64, 52
1, 534520, Control_c, 0, 64, 53
1, 534575, Note_on_c, 0, 79, 80
1, 534592, Note_on_c, 0, 39, 70
1, 534599, Note_on_c, 0, 70, 71
1, 534653, Control_c, 0, 64, 52
1, 534674, Note_off_c, 0, 41, 59
1, 534684, Control_c, 0, 64, 52
1, 534699, Control_c, 0, 64, 50
1, 534714, Control_c, 0, 64, 48
1, 534728, Control_c, 0, 64, 43
1, 534743, Control_c, 0, 64, 35
1, 534758, Control_c, 0, 64, 0
1, 534891, Control_c, 0, 64, 33
1, 534906, Control_c, 0, 64, 43
1, 534921, Control_c, 0, 64, 53
1, 534936, Control_c, 0, 64, 59
1, 534951, Control_c, 0, 64, 63
1, 534951, Control_c, 0, 67, 38
1, 534966, Control_c, 0, 64, 65
1, 534966, Control_c, 0, 67, 49
1, 534980, Control_c, 0, 64, 67
1, 534980, Control_c, 0, 67, 65
1, 534995, Control_c, 0, 64, 69
1, 534995, Control_c, 0, 67, 88
1, 535010, Control_c, 0, 64, 72
1, 535010, Control_c, 0, 67, 112
1, 535025, Control_c, 0, 64, 74
1, 535025, Control_c, 0, 67, 127
1, 535039, Control_c, 0, 64, 77
1, 535054, Control_c, 0, 64, 80
1, 535069, Control_c, 0, 64, 83
1, 535084, Control_c, 0, 64, 87
1, 535099, Control_c, 0, 64, 90
1, 535113, Note_off_c, 0, 70, 61
1, 535114, Control_c, 0, 64, 95
1, 535128, Control_c, 0, 64, 99
1, 535143, Control_c, 0, 64, 104
1, 535158, Control_c, 0, 64, 108
1, 535173, Control_c, 0, 64, 113
1, 535188, Control_c, 0, 64, 118
1, 535210, Control_c, 0, 64, 124
1, 535225, Control_c, 0, 64, 127
1, 535386, Note_off_c, 0, 79, 36
1, 535402, Control_c, 0, 64, 124
1, 535432, Control_c, 0, 64, 122
1, 535446, Control_c, 0, 64, 120
1, 535461, Control_c, 0, 64, 118
1, 535477, Control_c, 0, 64, 115
1, 535492, Control_c, 0, 64, 112
1, 535507, Control_c, 0, 64, 108
1, 535522, Control_c, 0, 64, 104
1, 535537, Control_c, 0, 64, 98
1, 535551, Control_c, 0, 64, 91
1, 535560, Note_on_c, 0, 80, 48
1, 535566, Control_c, 0, 64, 83
1, 535581, Control_c, 0, 64, 74
1, 535591, Note_on_c, 0, 71, 35
1, 535595, Note_on_c, 0, 38, 38
1, 535596, Control_c, 0, 64, 65
1, 535611, Control_c, 0, 64, 56
1, 535625, Control_c, 0, 64, 44
1, 535633, Note_off_c, 0, 39, 41
1, 535640, Control_c, 0, 64, 37
1, 535655, Control_c, 0, 64, 35
1, 535669, Control_c, 0, 64, 36
1, 535684, Control_c, 0, 64, 40
1, 535699, Control_c, 0, 64, 47
1, 535714, Control_c, 0, 64, 56
1, 535729, Control_c, 0, 64, 63
1, 535744, Control_c, 0, 64, 67
1, 535758, Control_c, 0, 64, 71
1, 535758, Control_c, 0, 67, 104
1, 535773, Control_c, 0, 64, 74
1, 535773, Control_c, 0, 67, 79
1, 535788, Control_c, 0, 64, 76
1, 535788, Control_c, 0, 67, 55
1, 535803, Control_c, 0, 64, 79
1, 535803, Control_c, 0, 67, 0
1, 535818, Control_c, 0, 64, 82
1, 535833, Control_c, 0, 64, 85
1, 535848, Control_c, 0, 64, 89
1, 535863, Control_c, 0, 64, 93
1, 535877, Control_c, 0, 64, 97
1, 535891, Note_off_c, 0, 71, 30
1, 535892, Control_c, 0, 64, 102
1, 535907, Control_c, 0, 64, 107
1, 535922, Control_c, 0, 64, 113
1, 535928, Note_off_c, 0, 38, 35
1, 535943, Control_c, 0, 64, 127
1, 535949, Note_off_c, 0, 80, 34
1, 536042, Note_on_c, 0, 80, 68
1, 536045, Note_on_c, 0, 71, 53
1, 536062, Note_on_c, 0, 38, 47
1, 536232, Note_off_c, 0, 71, 30
1, 536291, Note_off_c, 0, 80, 54
1, 536307, Note_off_c, 0, 38, 32
1, 536408, Note_on_c, 0, 80, 75
1, 536420, Note_on_c, 0, 71, 68
1, 536433, Note_on_c, 0, 38, 60
1, 536493, Note_off_c, 0, 71, 50
1, 536601, Note_off_c, 0, 80, 52
1, 536683, Note_off_c, 0, 38, 33
1, 536805, Note_on_c, 0, 80, 82
1, 536816, Note_on_c, 0, 38, 66
1, 536823, Note_on_c, 0, 71, 74
1, 536863, Note_off_c, 0, 71, 58
1, 536915, Note_off_c, 0, 80, 61
1, 536997, Note_off_c, 0, 38, 34
1, 537266, Note_on_c, 0, 78, 73
1, 537296, Note_on_c, 0, 39, 59
1, 537300, Control_c, 0, 64, 103
1, 537302, Note_on_c, 0, 72, 49
1, 537315, Control_c, 0, 64, 83
1, 537329, Control_c, 0, 64, 68
1, 537344, Control_c, 0, 64, 53
1, 537359, Control_c, 0, 64, 30
1, 537374, Control_c, 0, 64, 0
1, 537407, Note_on_c, 0, 79, 66
1, 537434, Control_c, 0, 64, 30
1, 537455, Control_c, 0, 64, 43
1, 537463, Note_off_c, 0, 78, 50
1, 537470, Control_c, 0, 64, 57
1, 537485, Control_c, 0, 64, 64
1, 537500, Control_c, 0, 64, 69
1, 537515, Note_on_c, 0, 81, 77
1, 537515, Control_c, 0, 64, 74
1, 537529, Control_c, 0, 64, 79
1, 537535, Note_off_c, 0, 79, 60
1, 537544, Control_c, 0, 64, 84
1, 537553, Note_off_c, 0, 72, 32
1, 537559, Control_c, 0, 64, 87
1, 537574, Control_c, 0, 64, 88
1, 537589, Control_c, 0, 64, 89
1, 537602, Note_off_c, 0, 39, 47
1, 537612, Note_on_c, 0, 79, 75
1, 537693, Note_on_c, 0, 77, 79
1, 537708, Control_c, 0, 67, 37
1, 537717, Note_off_c, 0, 81, 59
1, 537746, Note_off_c, 0, 79, 59
1, 537752, Control_c, 0, 67, 36
1, 537766, Control_c, 0, 67, 0
1, 537772, Note_on_c, 0, 75, 83
1, 537796, Control_c, 0, 64, 89
1, 537800, Note_off_c, 0, 77, 64
1, 537811, Control_c, 0, 64, 90
1, 537826, Control_c, 0, 64, 90
1, 537853, Note_off_c, 0, 75, 63
1, 537855, Control_c, 0, 64, 91
1, 537857, Note_on_c, 0, 74, 82
1, 537908, Note_off_c, 0, 74, 61
1, 537946, Note_on_c, 0, 72, 77
1, 538019, Control_c, 0, 64, 90
1, 538063, Control_c, 0, 64, 90
1, 538078, Control_c, 0, 64, 88
1, 538093, Control_c, 0, 64, 87
1, 538096, Note_on_c, 0, 70, 83
1, 538108, Control_c, 0, 64, 84
1, 538123, Control_c, 0, 64, 81
1, 538124, Note_on_c, 0, 65, 65
1, 538134, Note_on_c, 0, 62, 56
1, 538137, Control_c, 0, 64, 76
1, 538144, Note_on_c, 0, 53, 43
1, 538149, Note_off_c, 0, 72, 59
1, 538152, Control_c, 0, 64, 71
1, 538167, Control_c, 0, 64, 64
1, 538182, Control_c, 0, 64, 55
1, 538204, Control_c, 0, 64, 45
1, 538219, Control_c, 0, 64, 31
1, 538235, Control_c, 0, 64, 0
1, 538353, Control_c, 0, 67, 36
1, 538368, Control_c, 0, 64, 33
1, 538368, Control_c, 0, 67, 37
1, 538383, Control_c, 0, 64, 49
1, 538383, Control_c, 0, 67, 38
1, 538397, Control_c, 0, 64, 60
1, 538397, Control_c, 0, 67, 39
1, 538412, Control_c, 0, 64, 66
1, 538412, Control_c, 0, 67, 41
1, 538427, Control_c, 0, 64, 70
1, 538427, Control_c, 0, 67, 42
1, 538442, Control_c, 0, 64, 72
1, 538442, Control_c, 0, 67, 44
1, 538457, Control_c, 0, 64, 74
1, 538457, Control_c, 0, 67, 53
1, 538471, Control_c, 0, 64, 77
1, 538471, Control_c, 0, 67, 67
1, 538486, Control_c, 0, 64, 80
1, 538486, Control_c, 0, 67, 78
1, 538501, Control_c, 0, 64, 81
1, 538501, Control_c, 0, 67, 88
1, 538516, Control_c, 0, 64, 83
1, 538516, Control_c, 0, 67, 100
1, 538531, Control_c, 0, 64, 84
1, 538531, Control_c, 0, 67, 109
1, 538537, Note_off_c, 0, 70, 59
1, 538546, Control_c, 0, 64, 85
1, 538546, Control_c, 0, 67, 114
1, 538561, Control_c, 0, 64, 87
1, 538561, Control_c, 0, 67, 118
1, 538575, Control_c, 0, 64, 88
1, 538575, Control_c, 0, 67, 121
1, 538590, Control_c, 0, 64, 88
1, 538605, Control_c, 0, 64, 89
1, 538635, Control_c, 0, 67, 124
1, 538665, Control_c, 0, 67, 126
1, 538799, Control_c, 0, 64, 88
1, 538800, Note_on_c, 0, 72, 56
1, 538843, Control_c, 0, 64, 88
1, 538858, Control_c, 0, 64, 87
1, 538873, Control_c, 0, 64, 87
1, 538879, Note_on_c, 0, 70, 62
1, 538887, Control_c, 0, 64, 86
1, 538902, Note_off_c, 0, 72, 51
1, 538902, Control_c, 0, 64, 85
1, 538917, Control_c, 0, 64, 84
1, 538932, Control_c, 0, 64, 83
1, 538954, Control_c, 0, 64, 82
1, 538956, Note_off_c, 0, 70, 62
1, 538967, Note_on_c, 0, 69, 59
1, 538969, Control_c, 0, 64, 80
1, 538984, Control_c, 0, 64, 78
1, 538999, Control_c, 0, 64, 76
1, 539005, Note_off_c, 0, 65, 30
1, 539014, Control_c, 0, 64, 73
1, 539028, Control_c, 0, 64, 70
1, 539043, Control_c, 0, 64, 67
1, 539046, Note_off_c, 0, 69, 62
1, 539056, Note_on_c, 0, 70, 62
1, 539058, Control_c, 0, 64, 64
1, 539073, Control_c, 0, 64, 61
1, 539088, Control_c, 0, 64, 59
1, 539101, Note_off_c, 0, 62, 35
1, 539102, Control_c, 0, 64, 58
1, 539132, Control_c, 0, 64, 57
1, 539147, Control_c, 0, 64, 56
1, 539162, Control_c, 0, 64, 56
1, 539166, Note_off_c, 0, 70, 53
1, 539169, Note_on_c, 0, 74, 63
1, 539176, Control_c, 0, 64, 55
1, 539181, Note_on_c, 0, 63, 43
1, 539191, Control_c, 0, 64, 53
1, 539196, Note_on_c, 0, 69, 42
1, 539206, Control_c, 0, 64, 51
1, 539220, Control_c, 0, 64, 47
1, 539235, Control_c, 0, 64, 43
1, 539250, Control_c, 0, 64, 35
1, 539265, Control_c, 0, 64, 0
1, 539660, Note_on_c, 0, 72, 45
1, 539732, Control_c, 0, 64, 40
1, 539735, Note_off_c, 0, 74, 35
1, 539740, Note_off_c, 0, 69, 46
1, 539747, Control_c, 0, 64, 50
1, 539762, Control_c, 0, 64, 60
1, 539777, Control_c, 0, 64, 64
1, 539791, Control_c, 0, 64, 68
1, 539806, Control_c, 0, 64, 70
1, 539821, Control_c, 0, 64, 74
1, 539836, Control_c, 0, 64, 76
1, 539850, Control_c, 0, 64, 79
1, 539865, Control_c, 0, 64, 82
1, 539880, Control_c, 0, 64, 85
1, 539884, Note_off_c, 0, 53, 33
1, 539895, Control_c, 0, 64, 88
1, 539896, Note_off_c, 0, 63, 33
1, 539910, Control_c, 0, 64, 92
1, 539924, Control_c, 0, 64, 95
1, 539939, Control_c, 0, 64, 97
1, 539943, Note_off_c, 0, 72, 58
1, 539968, Control_c, 0, 64, 100
1, 540191, Control_c, 0, 64, 95
1, 540206, Control_c, 0, 64, 88
1, 540221, Control_c, 0, 64, 77
1, 540235, Control_c, 0, 64, 66
1, 540237, Note_on_c, 0, 70, 43
1, 540245, Note_on_c, 0, 58, 32
1, 540250, Control_c, 0, 64, 57
1, 540256, Note_on_c, 0, 62, 22
1, 540266, Control_c, 0, 64, 52
1, 540295, Control_c, 0, 64, 55
1, 540310, Control_c, 0, 64, 60
1, 540325, Control_c, 0, 64, 65
1, 540340, Control_c, 0, 64, 69
1, 540352, Note_off_c, 0, 70, 64
1, 540355, Control_c, 0, 64, 74
1, 540370, Control_c, 0, 64, 76
1, 540384, Control_c, 0, 64, 77
1, 540399, Control_c, 0, 64, 77
1, 540533, Note_on_c, 0, 89, 54
1, 540564, Note_off_c, 0, 89, 65
1, 540614, Control_c, 0, 64, 77
1, 540629, Control_c, 0, 64, 76
1, 540644, Control_c, 0, 64, 74
1, 540658, Note_off_c, 0, 62, 40
1, 540659, Note_off_c, 0, 58, 42
1, 540659, Control_c, 0, 64, 73
1, 540673, Control_c, 0, 64, 70
1, 540688, Control_c, 0, 64, 67
1, 540696, Note_on_c, 0, 86, 66
1, 540703, Control_c, 0, 64, 64
1, 540718, Control_c, 0, 64, 61
1, 540727, Note_off_c, 0, 86, 62
1, 540733, Control_c, 0, 64, 59
1, 540747, Control_c, 0, 64, 57
1, 540762, Control_c, 0, 64, 56
1, 540777, Control_c, 0, 64, 54
1, 540791, Control_c, 0, 64, 53
1, 540806, Control_c, 0, 64, 52
1, 540821, Control_c, 0, 64, 50
1, 540836, Control_c, 0, 64, 47
1, 540839, Note_on_c, 0, 82, 60
1, 540851, Control_c, 0, 64, 45
1, 540865, Control_c, 0, 64, 43
1, 540879, Note_off_c, 0, 82, 58
1, 540880, Control_c, 0, 64, 39
1, 540895, Control_c, 0, 64, 36
1, 540910, Control_c, 0, 64, 32
1, 540925, Control_c, 0, 64, 0
1, 540981, Note_on_c, 0, 77, 62
1, 541017, Note_off_c, 0, 77, 63
1, 541154, Note_on_c, 0, 74, 35
1, 541192, Note_off_c, 0, 74, 49
1, 541297, Note_on_c, 0, 70, 52
1, 541439, Note_on_c, 0, 46, 50
1, 541479, Note_off_c, 0, 46, 62
1, 541591, Note_on_c, 0, 50, 61
1, 541625, Note_off_c, 0, 50, 64
1, 541739, Note_on_c, 0, 53, 60
1, 541780, Note_off_c, 0, 53, 61
1, 541787, Note_off_c, 0, 70, 61
1, 541877, Note_on_c, 0, 58, 57
1, 541945, Note_off_c, 0, 58, 56
1, 542041, Note_on_c, 0, 62, 48
1, 542090, Note_off_c, 0, 62, 59
1, 542157, Control_c, 0, 64, 31
1, 542171, Control_c, 0, 64, 42
1, 542186, Control_c, 0, 64, 51
1, 542197, Note_on_c, 0, 65, 45
1, 542201, Control_c, 0, 64, 58
1, 542216, Control_c, 0, 64, 61
1, 542231, Control_c, 0, 64, 63
1, 542245, Control_c, 0, 64, 65
1, 542260, Control_c, 0, 64, 67
1, 542275, Control_c, 0, 64, 68
1, 542290, Control_c, 0, 64, 70
1, 542305, Control_c, 0, 64, 72
1, 542319, Control_c, 0, 64, 73
1, 542326, Note_off_c, 0, 65, 58
1, 542334, Control_c, 0, 64, 75
1, 542346, Note_on_c, 0, 69, 42
1, 542349, Control_c, 0, 64, 77
1, 542364, Control_c, 0, 64, 78
1, 542379, Control_c, 0, 64, 80
1, 542394, Control_c, 0, 64, 81
1, 542409, Control_c, 0, 64, 82
1, 542424, Control_c, 0, 64, 84
1, 542438, Control_c, 0, 64, 85
1, 542453, Control_c, 0, 64, 87
1, 542468, Control_c, 0, 64, 88
1, 542483, Control_c, 0, 64, 90
1, 542498, Control_c, 0, 64, 91
1, 542509, Note_on_c, 0, 72, 50
1, 542512, Control_c, 0, 64, 92
1, 542527, Control_c, 0, 64, 94
1, 542542, Control_c, 0, 64, 95
1, 542556, Control_c, 0, 64, 96
1, 542564, Note_off_c, 0, 69, 45
1, 542601, Control_c, 0, 64, 98
1, 542659, Note_on_c, 0, 75, 55
1, 542695, Note_off_c, 0, 72, 37
1, 542813, Note_on_c, 0, 72, 56
1, 542894, Note_off_c, 0, 75, 49
1, 542943, Note_off_c, 0, 72, 57
1, 542970, Note_on_c, 0, 69, 48
1, 543024, Control_c, 0, 64, 96
1, 543039, Control_c, 0, 64, 93
1, 543054, Control_c, 0, 64, 89
1, 543068, Control_c, 0, 64, 84
1, 543083, Control_c, 0, 64, 76
1, 543098, Control_c, 0, 64, 68
1, 543107, Note_on_c, 0, 70, 50
1, 543113, Note_off_c, 0, 69, 36
1, 543113, Control_c, 0, 64, 61
1, 543124, Note_on_c, 0, 58, 40
1, 543128, Control_c, 0, 64, 54
1, 543142, Control_c, 0, 64, 49
1, 543157, Control_c, 0, 64, 45
1, 543172, Control_c, 0, 64, 40
1, 543187, Control_c, 0, 64, 36
1, 543202, Control_c, 0, 64, 30
1, 543217, Control_c, 0, 64, 0
1, 543253, Note_off_c, 0, 70, 37
1, 543283, Note_on_c, 0, 77, 62
1, 543336, Note_off_c, 0, 77, 58
1, 543379, Note_off_c, 0, 58, 59
1, 543428, Note_on_c, 0, 74, 61
1, 543474, Note_off_c, 0, 74, 59
1, 543575, Note_on_c, 0, 70, 59
1, 543621, Note_off_c, 0, 70, 60
1, 543720, Note_on_c, 0, 65, 52
1, 543753, Note_off_c, 0, 65, 65
1, 543855, Note_on_c, 0, 62, 53
1, 543899, Note_off_c, 0, 62, 60
1, 544007, Note_on_c, 0, 58, 54
1, 544139, Note_on_c, 0, 34, 52
1, 544189, Note_off_c, 0, 34, 60
1, 544297, Note_on_c, 0, 38, 60
1, 544337, Note_off_c, 0, 38, 62
1, 544442, Note_on_c, 0, 41, 57
1, 544494, Note_off_c, 0, 58, 57
1, 544500, Note_off_c, 0, 41, 61
1, 544591, Note_on_c, 0, 46, 58
1, 544638, Note_off_c, 0, 46, 57
1, 544728, Note_on_c, 0, 50, 60
1, 544774, Note_off_c, 0, 50, 61
1, 544878, Note_on_c, 0, 53, 54
1, 544892, Control_c, 0, 64, 33
1, 544907, Control_c, 0, 64, 46
1, 544922, Control_c, 0, 64, 57
1, 544944, Control_c, 0, 64, 62
1, 544958, Control_c, 0, 64, 65
1, 544973, Control_c, 0, 64, 67
1, 544988, Control_c, 0, 64, 69
1, 545003, Control_c, 0, 64, 71
1, 545003, Control_c, 0, 67, 116
1, 545010, Note_off_c, 0, 53, 57
1, 545018, Control_c, 0, 64, 73
1, 545018, Control_c, 0, 67, 106
1, 545032, Control_c, 0, 64, 75
1, 545032, Control_c, 0, 67, 96
1, 545035, Note_on_c, 0, 57, 53
1, 545047, Control_c, 0, 64, 78
1, 545047, Control_c, 0, 67, 83
1, 545063, Control_c, 0, 64, 81
1, 545063, Control_c, 0, 67, 70
1, 545078, Control_c, 0, 64, 86
1, 545078, Control_c, 0, 67, 57
1, 545093, Control_c, 0, 64, 91
1, 545093, Control_c, 0, 67, 44
1, 545108, Control_c, 0, 64, 98
1, 545108, Control_c, 0, 67, 0
1, 545123, Control_c, 0, 64, 113
1, 545137, Control_c, 0, 64, 127
1, 545187, Note_on_c, 0, 60, 59
1, 545268, Note_off_c, 0, 57, 54
1, 545342, Note_on_c, 0, 63, 58
1, 545370, Note_off_c, 0, 60, 57
1, 545434, Control_c, 0, 67, 36
1, 545449, Control_c, 0, 67, 38
1, 545463, Control_c, 0, 67, 41
1, 545478, Control_c, 0, 67, 45
1, 545493, Control_c, 0, 67, 55
1, 545494, Note_on_c, 0, 60, 66
1, 545508, Control_c, 0, 67, 67
1, 545523, Control_c, 0, 67, 83
1, 545537, Control_c, 0, 67, 101
1, 545552, Control_c, 0, 67, 117
1, 545554, Note_off_c, 0, 63, 57
1, 545567, Control_c, 0, 67, 127
1, 545663, Note_off_c, 0, 60, 55
1, 545682, Note_on_c, 0, 57, 58
1, 545739, Note_off_c, 0, 57, 63
1, 546054, Note_on_c, 0, 60, 56
1, 546064, Control_c, 0, 64, 110
1, 546078, Control_c, 0, 64, 100
1, 546084, Note_on_c, 0, 53, 37
1, 546087, Note_on_c, 0, 57, 42
1, 546093, Note_on_c, 0, 46, 34
1, 546093, Control_c, 0, 64, 92
1, 546095, Note_on_c, 0, 34, 42
1, 546097, Note_on_c, 0, 51, 39
1, 546108, Control_c, 0, 64, 85
1, 546123, Control_c, 0, 64, 79
1, 546138, Control_c, 0, 64, 70
1, 546153, Control_c, 0, 64, 63
1, 546168, Control_c, 0, 64, 56
1, 546183, Control_c, 0, 64, 50
1, 546197, Control_c, 0, 64, 43
1, 546212, Control_c, 0, 64, 36
1, 546227, Control_c, 0, 64, 29
1, 546242, Control_c, 0, 64, 0
1, 546375, Control_c, 0, 64, 31
1, 546390, Control_c, 0, 64, 39
1, 546404, Control_c, 0, 64, 47
1, 546419, Control_c, 0, 64, 54
1, 546442, Control_c, 0, 64, 60
1, 546457, Control_c, 0, 64, 65
1, 546470, Control_c, 0, 64, 68
1, 546484, Control_c, 0, 64, 70
1, 546499, Control_c, 0, 64, 72
1, 546514, Control_c, 0, 64, 74
1, 546528, Control_c, 0, 64, 76
1, 546543, Control_c, 0, 64, 79
1, 546558, Control_c, 0, 64, 82
1, 546573, Control_c, 0, 64, 86
1, 546588, Control_c, 0, 64, 90
1, 546603, Control_c, 0, 64, 94
1, 546606, Note_off_c, 0, 60, 38
1, 546618, Note_off_c, 0, 51, 37
1, 546618, Control_c, 0, 64, 99
1, 546633, Control_c, 0, 64, 104
1, 546648, Control_c, 0, 64, 112
1, 546663, Control_c, 0, 64, 127
1, 546706, Note_off_c, 0, 57, 39
1, 547411, Control_c, 0, 64, 122
1, 547426, Control_c, 0, 64, 118
1, 547441, Control_c, 0, 64, 115
1, 547456, Control_c, 0, 64, 113
1, 547486, Control_c, 0, 64, 110
1, 547516, Control_c, 0, 64, 107
1, 547545, Control_c, 0, 64, 105
1, 547575, Control_c, 0, 64, 103
1, 547605, Control_c, 0, 64, 101
1, 547634, Control_c, 0, 64, 99
1, 547652, Note_on_c, 0, 58, 38
1, 547664, Control_c, 0, 64, 97
1, 547679, Control_c, 0, 64, 95
1, 547691, Note_on_c, 0, 50, 31
1, 547694, Control_c, 0, 64, 94
1, 547709, Control_c, 0, 64, 92
1, 547723, Control_c, 0, 64, 89
1, 547738, Control_c, 0, 64, 85
1, 547753, Control_c, 0, 64, 81
1, 547768, Control_c, 0, 64, 76
1, 547782, Control_c, 0, 64, 71
1, 547797, Control_c, 0, 64, 65
1, 547812, Control_c, 0, 64, 61
1, 547827, Control_c, 0, 64, 59
1, 547842, Control_c, 0, 64, 57
1, 547856, Control_c, 0, 64, 56
1, 547871, Control_c, 0, 64, 55
1, 547886, Control_c, 0, 64, 54
1, 547901, Control_c, 0, 64, 53
1, 547916, Control_c, 0, 64, 53
1, 547953, Control_c, 0, 64, 52
1, 547968, Control_c, 0, 64, 52
1, 547983, Control_c, 0, 64, 51
1, 547998, Control_c, 0, 64, 50
1, 548013, Control_c, 0, 64, 50
1, 548043, Control_c, 0, 64, 49
1, 548205, Control_c, 0, 64, 49
1, 548251, Control_c, 0, 64, 48
1, 548310, Control_c, 0, 64, 48
1, 548325, Control_c, 0, 64, 47
1, 548340, Control_c, 0, 64, 47
1, 548354, Control_c, 0, 64, 46
1, 548369, Control_c, 0, 64, 46
1, 548384, Control_c, 0, 64, 45
1, 548398, Control_c, 0, 64, 44
1, 548413, Control_c, 0, 64, 43
1, 548428, Control_c, 0, 64, 41
1, 548443, Control_c, 0, 64, 40
1, 548458, Control_c, 0, 64, 38
1, 548472, Control_c, 0, 64, 37
1, 548502, Control_c, 0, 64, 37
1, 548517, Control_c, 0, 64, 36
1, 548532, Control_c, 0, 64, 36
1, 548547, Control_c, 0, 64, 35
1, 548561, Control_c, 0, 64, 34
1, 548576, Control_c, 0, 64, 33
1, 548591, Control_c, 0, 64, 32
1, 548621, Control_c, 0, 64, 29
1, 548636, Control_c, 0, 64, 0
1, 549332, Note_off_c, 0, 50, 18
1, 549365, Note_off_c, 0, 34, 35
1, 549376, Note_off_c, 0, 46, 35
1, 549399, Note_off_c, 0, 53, 38
1, 549444, Note_off_c, 0, 58, 40
1, 551616, Control_c, 0, 67, 125
1, 551631, Control_c, 0, 67, 113
1, 551646, Control_c, 0, 67, 101
1, 551661, Control_c, 0, 67, 88
1, 551683, Control_c, 0, 67, 79
1, 551697, Control_c, 0, 67, 70
1, 551712, Control_c, 0, 67, 63
1, 551727, Control_c, 0, 67, 54
1, 551742, Control_c, 0, 67, 44
1, 551757, Control_c, 0, 67, 0
1, 552410, Control_c, 0, 64, 35
1, 552432, Control_c, 0, 64, 43
1, 552446, Control_c, 0, 64, 52
1, 552461, Control_c, 0, 64, 59
1, 552476, Control_c, 0, 64, 63
1, 552491, Control_c, 0, 64, 64
1, 552505, Control_c, 0, 64, 65
1, 552520, Control_c, 0, 64, 66
1, 552535, Control_c, 0, 64, 67
1, 552550, Control_c, 0, 64, 68
1, 552565, Control_c, 0, 64, 70
1, 552580, Control_c, 0, 64, 72
1, 552595, Control_c, 0, 64, 74
1, 552610, Control_c, 0, 64, 76
1, 552624, Control_c, 0, 64, 79
1, 552639, Control_c, 0, 64, 81
1, 552654, Control_c, 0, 64, 84
1, 552669, Control_c, 0, 64, 88
1, 552684, Control_c, 0, 64, 92
1, 552698, Control_c, 0, 64, 97
1, 552713, Control_c, 0, 64, 102
1, 552728, Control_c, 0, 64, 109
1, 552743, Control_c, 0, 64, 127
1, 552763, Note_on_c, 0, 77, 58
1, 552785, Note_on_c, 0, 69, 34
1, 553076, Note_on_c, 0, 72, 22
1, 553101, Note_off_c, 0, 69, 42
1, 553238, Note_off_c, 0, 72, 28
1, 553324, Note_on_c, 0, 81, 51
1, 553364, Note_on_c, 0, 65, 23
1, 553420, Note_off_c, 0, 77, 61
1, 553616, Note_on_c, 0, 72, 26
1, 553617, Note_off_c, 0, 65, 40
1, 553651, Note_off_c, 0, 81, 63
1, 553857, Note_on_c, 0, 70, 49
1, 553863, Control_c, 0, 64, 120
1, 553867, Note_on_c, 0, 81, 59
1, 553878, Control_c, 0, 64, 99
1, 553892, Control_c, 0, 64, 86
1, 553907, Control_c, 0, 64, 79
1, 553930, Control_c, 0, 64, 74
1, 553944, Control_c, 0, 64, 71
1, 553946, Note_off_c, 0, 72, 41
1, 553960, Control_c, 0, 64, 71
1, 553999, Note_on_c, 0, 79, 62
1, 554005, Control_c, 0, 64, 72
1, 554019, Control_c, 0, 64, 72
1, 554025, Note_off_c, 0, 81, 64
1, 554029, Note_off_c, 0, 79, 63
1, 554034, Control_c, 0, 64, 73
1, 554128, Note_on_c, 0, 79, 68
1, 554133, Note_on_c, 0, 72, 44
1, 554240, Note_on_c, 0, 76, 60
1, 554241, Control_c, 0, 64, 73
1, 554265, Note_off_c, 0, 79, 63
1, 554272, Note_off_c, 0, 76, 67
1, 554300, Control_c, 0, 64, 73
1, 554344, Control_c, 0, 64, 72
1, 554359, Control_c, 0, 64, 71
1, 554374, Control_c, 0, 64, 69
1, 554389, Control_c, 0, 64, 66
1, 554399, Note_off_c, 0, 70, 38
1, 554401, Note_on_c, 0, 77, 65
1, 554404, Control_c, 0, 64, 62
1, 554409, Note_on_c, 0, 69, 40
1, 554419, Control_c, 0, 64, 58
1, 554434, Control_c, 0, 64, 56
1, 554443, Note_off_c, 0, 72, 34
1, 554449, Control_c, 0, 64, 54
1, 554463, Control_c, 0, 64, 53
1, 554478, Control_c, 0, 64, 53
1, 554567, Control_c, 0, 64, 52
1, 554567, Control_c, 0, 67, 37
1, 554582, Control_c, 0, 64, 52
1, 554582, Control_c, 0, 67, 56
1, 554597, Control_c, 0, 67, 89
1, 554611, Control_c, 0, 67, 127
1, 554626, Control_c, 0, 64, 51
1, 554642, Control_c, 0, 64, 50
1, 554664, Control_c, 0, 64, 48
1, 554669, Note_on_c, 0, 72, 37
1, 554679, Control_c, 0, 64, 47
1, 554693, Control_c, 0, 64, 45
1, 554708, Control_c, 0, 64, 44
1, 554723, Control_c, 0, 64, 43
1, 554738, Control_c, 0, 64, 42
1, 554753, Control_c, 0, 64, 41
1, 554767, Control_c, 0, 64, 40
1, 554782, Control_c, 0, 64, 39
1, 554788, Note_on_c, 0, 81, 53
1, 554789, Note_off_c, 0, 77, 61
1, 554813, Note_off_c, 0, 81, 63
1, 554827, Control_c, 0, 64, 39
1, 554839, Note_off_c, 0, 69, 33
1, 554871, Control_c, 0, 64, 38
1, 554900, Control_c, 0, 64, 38
1, 554915, Note_on_c, 0, 81, 54
1, 554918, Note_on_c, 0, 70, 41
1, 554930, Control_c, 0, 64, 37
1, 554945, Control_c, 0, 64, 36
1, 554960, Control_c, 0, 64, 36
1, 554974, Control_c, 0, 64, 35
1, 554989, Control_c, 0, 64, 34
1, 554994, Note_off_c, 0, 72, 35
1, 555004, Control_c, 0, 64, 34
1, 555050, Note_on_c, 0, 79, 51
1, 555052, Note_off_c, 0, 81, 59
1, 555072, Note_off_c, 0, 79, 64
1, 555182, Note_on_c, 0, 79, 37
1, 555188, Note_on_c, 0, 72, 33
1, 555227, Control_c, 0, 64, 33
1, 555289, Note_on_c, 0, 76, 47
1, 555300, Control_c, 0, 64, 33
1, 555303, Note_off_c, 0, 79, 59
1, 555315, Control_c, 0, 64, 32
1, 555317, Note_off_c, 0, 76, 57
1, 555330, Control_c, 0, 64, 32
1, 555374, Control_c, 0, 64, 0
1, 555447, Note_on_c, 0, 77, 45
1, 555462, Note_on_c, 0, 69, 30
1, 555490, Note_off_c, 0, 72, 30
1, 555506, Note_off_c, 0, 70, 38
1, 555635, Control_c, 0, 64, 37
1, 555635, Control_c, 0, 67, 114
1, 555650, Control_c, 0, 64, 49
1, 555650, Control_c, 0, 67, 88
1, 555664, Control_c, 0, 64, 59
1, 555664, Control_c, 0, 67, 62
1, 555679, Control_c, 0, 64, 64
1, 555679, Control_c, 0, 67, 36
1, 555694, Control_c, 0, 64, 67
1, 555694, Control_c, 0, 67, 0
1, 555707, Note_on_c, 0, 72, 46
1, 555709, Control_c, 0, 64, 69
1, 555723, Control_c, 0, 64, 71
1, 555738, Control_c, 0, 64, 73
1, 555745, Note_off_c, 0, 69, 60
1, 555753, Control_c, 0, 64, 75
1, 555754, Note_off_c, 0, 72, 55
1, 555768, Control_c, 0, 64, 77
1, 555783, Control_c, 0, 64, 78
1, 555797, Control_c, 0, 64, 79
1, 555812, Control_c, 0, 64, 80
1, 555821, Note_on_c, 0, 81, 61
1, 555827, Control_c, 0, 64, 80
1, 555828, Note_off_c, 0, 77, 64
1, 555839, Note_off_c, 0, 81, 62
1, 555886, Control_c, 0, 64, 80
1, 555945, Control_c, 0, 64, 79
1, 555956, Note_on_c, 0, 84, 72
1, 555960, Note_on_c, 0, 72, 47
1, 555960, Control_c, 0, 64, 77
1, 555975, Control_c, 0, 64, 76
1, 555984, Note_on_c, 0, 67, 38
1, 555990, Control_c, 0, 64, 73
1, 556005, Control_c, 0, 64, 69
1, 556020, Control_c, 0, 64, 65
1, 556035, Control_c, 0, 64, 59
1, 556043, Note_off_c, 0, 67, 57
1, 556049, Control_c, 0, 64, 55
1, 556064, Control_c, 0, 64, 52
1, 556079, Control_c, 0, 64, 50
1, 556079, Note_on_c, 0, 82, 66
1, 556094, Control_c, 0, 64, 48
1, 556105, Note_off_c, 0, 82, 67
1, 556108, Control_c, 0, 64, 47
1, 556109, Note_off_c, 0, 84, 64
1, 556123, Control_c, 0, 64, 46
1, 556138, Control_c, 0, 64, 44
1, 556153, Control_c, 0, 64, 42
1, 556175, Control_c, 0, 64, 39
1, 556190, Control_c, 0, 64, 37
1, 556204, Control_c, 0, 64, 34
1, 556210, Note_on_c, 0, 82, 70
1, 556219, Control_c, 0, 64, 32
1, 556227, Note_on_c, 0, 64, 50
1, 556250, Control_c, 0, 64, 30
1, 556324, Control_c, 0, 64, 0
1, 556337, Note_on_c, 0, 79, 71
1, 556352, Note_off_c, 0, 64, 53
1, 556358, Note_off_c, 0, 82, 63
1, 556362, Note_off_c, 0, 79, 67
1, 556470, Note_on_c, 0, 82, 78
1, 556495, Note_on_c, 0, 65, 38
1, 556592, Note_on_c, 0, 81, 76
1, 556627, Note_off_c, 0, 82, 61
1, 556631, Note_off_c, 0, 81, 63
1, 556678, Note_off_c, 0, 65, 33
1, 556717, Note_on_c, 0, 81, 82
1, 556738, Control_c, 0, 64, 39
1, 556741, Note_on_c, 0, 69, 42
1, 556753, Control_c, 0, 64, 54
1, 556768, Control_c, 0, 64, 63
1, 556778, Note_off_c, 0, 72, 60
1, 556783, Control_c, 0, 64, 67
1, 556798, Control_c, 0, 64, 69
1, 556802, Note_off_c, 0, 69, 61
1, 556807, Note_off_c, 0, 81, 56
1, 556813, Control_c, 0, 64, 71
1, 556827, Control_c, 0, 64, 73
1, 556829, Note_on_c, 0, 77, 77
1, 556842, Control_c, 0, 64, 74
1, 556857, Control_c, 0, 64, 75
1, 556860, Note_off_c, 0, 77, 64
1, 556872, Control_c, 0, 64, 75
1, 556968, Control_c, 0, 64, 75
1, 556982, Note_on_c, 0, 74, 77
1, 556983, Control_c, 0, 64, 73
1, 556998, Control_c, 0, 64, 72
1, 557012, Control_c, 0, 64, 69
1, 557027, Control_c, 0, 64, 65
1, 557034, Note_on_c, 0, 70, 42
1, 557043, Control_c, 0, 64, 60
1, 557058, Control_c, 0, 64, 53
1, 557073, Control_c, 0, 64, 48
1, 557088, Control_c, 0, 64, 44
1, 557103, Control_c, 0, 64, 40
1, 557117, Control_c, 0, 64, 38
1, 557132, Control_c, 0, 64, 36
1, 557147, Control_c, 0, 64, 36
1, 557161, Control_c, 0, 64, 35
1, 557176, Control_c, 0, 64, 34
1, 557191, Control_c, 0, 64, 34
1, 557206, Control_c, 0, 64, 33
1, 557221, Control_c, 0, 64, 32
1, 557252, Note_off_c, 0, 70, 60
1, 557266, Control_c, 0, 64, 30
1, 557266, Control_c, 0, 67, 41
1, 557272, Note_on_c, 0, 58, 36
1, 557280, Control_c, 0, 64, 0
1, 557280, Control_c, 0, 67, 55
1, 557295, Control_c, 0, 67, 73
1, 557310, Control_c, 0, 67, 93
1, 557325, Control_c, 0, 67, 108
1, 557340, Control_c, 0, 67, 118
1, 557355, Control_c, 0, 67, 122
1, 557395, Note_on_c, 0, 76, 52
1, 557426, Note_off_c, 0, 58, 56
1, 557473, Control_c, 0, 67, 120
1, 557477, Note_off_c, 0, 74, 52
1, 557510, Note_on_c, 0, 62, 47
1, 557516, Note_on_c, 0, 77, 64
1, 557543, Note_off_c, 0, 62, 65
1, 557565, Note_off_c, 0, 76, 58
1, 557591, Control_c, 0, 67, 122
1, 557635, Control_c, 0, 67, 124
1, 557688, Control_c, 0, 67, 126
1, 557771, Note_on_c, 0, 79, 62
1, 557792, Note_on_c, 0, 65, 55
1, 557805, Note_on_c, 0, 59, 44
1, 557805, Note_off_c, 0, 77, 64
1, 557809, Note_off_c, 0, 79, 66
1, 558046, Note_on_c, 0, 72, 69
1, 558064, Note_on_c, 0, 60, 47
1, 558108, Note_off_c, 0, 59, 41
1, 558316, Note_off_c, 0, 65, 60
1, 558330, Note_on_c, 0, 64, 42
1, 558439, Note_off_c, 0, 64, 58
1, 558474, Note_on_c, 0, 62, 47
1, 558541, Note_off_c, 0, 62, 51
1, 558570, Control_c, 0, 67, 124
1, 558591, Note_on_c, 0, 64, 41
1, 558599, Control_c, 0, 67, 122
1, 558629, Control_c, 0, 67, 119
1, 558645, Control_c, 0, 67, 117
1, 558675, Control_c, 0, 67, 115
1, 558717, Note_on_c, 0, 73, 43
1, 558733, Control_c, 0, 67, 112
1, 558752, Note_off_c, 0, 72, 58
1, 558815, Note_off_c, 0, 64, 62
1, 558816, Note_off_c, 0, 60, 60
1, 558822, Control_c, 0, 64, 45
1, 558837, Control_c, 0, 64, 58
1, 558845, Note_on_c, 0, 74, 67
1, 558846, Note_off_c, 0, 73, 63
1, 558852, Control_c, 0, 64, 64
1, 558866, Control_c, 0, 64, 67
1, 558881, Control_c, 0, 64, 68
1, 558896, Control_c, 0, 64, 70
1, 558911, Control_c, 0, 64, 70
1, 558915, Note_off_c, 0, 74, 59
1, 558926, Control_c, 0, 64, 71
1, 558960, Note_on_c, 0, 76, 57
1, 558986, Control_c, 0, 67, 114
1, 558997, Note_off_c, 0, 76, 59
1, 559015, Control_c, 0, 64, 70
1, 559030, Control_c, 0, 64, 67
1, 559045, Control_c, 0, 64, 63
1, 559059, Control_c, 0, 64, 54
1, 559074, Control_c, 0, 64, 42
1, 559089, Control_c, 0, 64, 0
1, 559105, Note_on_c, 0, 77, 68
1, 559135, Note_on_c, 0, 69, 37
1, 559148, Control_c, 0, 64, 29
1, 559170, Control_c, 0, 64, 39
1, 559185, Control_c, 0, 64, 49
1, 559200, Control_c, 0, 64, 56
1, 559200, Control_c, 0, 67, 112
1, 559214, Control_c, 0, 64, 60
1, 559229, Control_c, 0, 64, 62
1, 559244, Control_c, 0, 64, 64
1, 559258, Control_c, 0, 64, 65
1, 559273, Control_c, 0, 64, 67
1, 559288, Control_c, 0, 64, 69
1, 559303, Control_c, 0, 64, 72
1, 559318, Control_c, 0, 64, 74
1, 559332, Control_c, 0, 64, 76
1, 559347, Control_c, 0, 64, 79
1, 559362, Control_c, 0, 64, 82
1, 559377, Control_c, 0, 64, 85
1, 559383, Note_on_c, 0, 72, 35
1, 559392, Control_c, 0, 64, 88
1, 559406, Control_c, 0, 64, 90
1, 559421, Control_c, 0, 64, 92
1, 559437, Control_c, 0, 64, 93
1, 559451, Note_off_c, 0, 69, 48
1, 559452, Control_c, 0, 64, 95
1, 559467, Control_c, 0, 64, 96
1, 559644, Control_c, 0, 64, 92
1, 559647, Note_on_c, 0, 81, 57
1, 559659, Control_c, 0, 64, 84
1, 559663, Note_on_c, 0, 65, 37
1, 559674, Control_c, 0, 64, 75
1, 559689, Control_c, 0, 64, 65
1, 559704, Control_c, 0, 64, 58
1, 559707, Note_off_c, 0, 72, 42
1, 559719, Control_c, 0, 64, 54
1, 559731, Note_off_c, 0, 77, 61
1, 559734, Control_c, 0, 64, 55
1, 559749, Control_c, 0, 64, 56
1, 559763, Control_c, 0, 64, 58
1, 559778, Control_c, 0, 64, 61
1, 559793, Control_c, 0, 64, 65
1, 559808, Control_c, 0, 64, 69
1, 559823, Control_c, 0, 64, 72
1, 559837, Control_c, 0, 64, 74
1, 559852, Control_c, 0, 64, 76
1, 559867, Control_c, 0, 64, 78
1, 559881, Control_c, 0, 64, 80
1, 559896, Control_c, 0, 64, 83
1, 559919, Control_c, 0, 64, 87
1, 559934, Control_c, 0, 64, 90
1, 559942, Note_on_c, 0, 72, 30
1, 559949, Control_c, 0, 64, 94
1, 559963, Control_c, 0, 64, 97
1, 559978, Control_c, 0, 64, 101
1, 559991, Note_off_c, 0, 65, 38
1, 559993, Control_c, 0, 64, 104
1, 560008, Control_c, 0, 64, 107
1, 560023, Control_c, 0, 64, 109
1, 560053, Note_off_c, 0, 81, 59
1, 560170, Control_c, 0, 64, 103
1, 560185, Control_c, 0, 64, 92
1, 560187, Note_on_c, 0, 81, 59
1, 560200, Control_c, 0, 64, 80
1, 560202, Note_on_c, 0, 70, 45
1, 560215, Control_c, 0, 64, 72
1, 560231, Control_c, 0, 64, 66
1, 560239, Note_off_c, 0, 72, 40
1, 560246, Control_c, 0, 64, 64
1, 560275, Control_c, 0, 64, 64
1, 560290, Control_c, 0, 64, 66
1, 560304, Control_c, 0, 64, 69
1, 560315, Note_on_c, 0, 79, 65
1, 560319, Control_c, 0, 64, 74
1, 560334, Control_c, 0, 64, 78
1, 560347, Note_off_c, 0, 81, 62
1, 560349, Control_c, 0, 64, 80
1, 560362, Note_off_c, 0, 79, 58
1, 560364, Control_c, 0, 64, 82
1, 560378, Control_c, 0, 64, 82
1, 560450, Note_on_c, 0, 79, 70
1, 560455, Note_on_c, 0, 72, 50
1, 560467, Control_c, 0, 64, 83
1, 560574, Note_on_c, 0, 76, 73
1, 560593, Note_off_c, 0, 79, 61
1, 560601, Control_c, 0, 67, 114
1, 560603, Note_off_c, 0, 70, 42
1, 560628, Note_off_c, 0, 76, 60
1, 560630, Control_c, 0, 67, 117
1, 560645, Control_c, 0, 67, 119
1, 560682, Control_c, 0, 64, 82
1, 560682, Control_c, 0, 67, 122
1, 560697, Control_c, 0, 64, 81
1, 560697, Control_c, 0, 67, 125
1, 560712, Control_c, 0, 64, 78
1, 560712, Control_c, 0, 67, 127
1, 560727, Control_c, 0, 64, 72
1, 560730, Note_on_c, 0, 77, 66
1, 560741, Note_off_c, 0, 72, 33
1, 560741, Control_c, 0, 64, 64
1, 560744, Note_on_c, 0, 69, 40
1, 560756, Control_c, 0, 64, 57
1, 560771, Control_c, 0, 64, 50
1, 560786, Control_c, 0, 64, 45
1, 560801, Control_c, 0, 64, 42
1, 560816, Control_c, 0, 64, 41
1, 560860, Control_c, 0, 64, 42
1, 560875, Control_c, 0, 64, 43
1, 560890, Control_c, 0, 64, 44
1, 560904, Control_c, 0, 64, 45
1, 560919, Control_c, 0, 64, 46
1, 560934, Control_c, 0, 64, 48
1, 560949, Control_c, 0, 64, 51
1, 560964, Control_c, 0, 64, 54
1, 560978, Control_c, 0, 64, 56
1, 560993, Control_c, 0, 64, 58
1, 561008, Control_c, 0, 64, 59
1, 561009, Note_on_c, 0, 72, 32
1, 561023, Control_c, 0, 64, 60
1, 561034, Note_off_c, 0, 69, 60
1, 561118, Note_on_c, 0, 81, 54
1, 561123, Note_off_c, 0, 77, 62
1, 561150, Note_off_c, 0, 81, 64
1, 561201, Control_c, 0, 64, 59
1, 561247, Note_on_c, 0, 81, 50
1, 561260, Note_on_c, 0, 70, 40
1, 561311, Note_off_c, 0, 72, 41
1, 561335, Control_c, 0, 64, 59
1, 561350, Control_c, 0, 64, 58
1, 561377, Note_on_c, 0, 79, 54
1, 561379, Control_c, 0, 64, 58
1, 561387, Note_off_c, 0, 81, 52
1, 561412, Note_off_c, 0, 79, 66
1, 561416, Control_c, 0, 64, 57
1, 561446, Control_c, 0, 64, 57
1, 561490, Control_c, 0, 64, 56
1, 561511, Note_on_c, 0, 79, 53
1, 561519, Note_on_c, 0, 72, 42
1, 561632, Note_on_c, 0, 76, 58
1, 561638, Note_off_c, 0, 79, 59
1, 561653, Control_c, 0, 64, 56
1, 561656, Note_off_c, 0, 76, 65
1, 561683, Control_c, 0, 64, 55
1, 561713, Control_c, 0, 64, 55
1, 561727, Control_c, 0, 64, 53
1, 561742, Control_c, 0, 64, 52
1, 561757, Control_c, 0, 64, 49
1, 561767, Note_on_c, 0, 69, 46
1, 561768, Note_off_c, 0, 72, 41
1, 561772, Control_c, 0, 64, 47
1, 561779, Note_on_c, 0, 77, 52
1, 561787, Control_c, 0, 64, 44
1, 561793, Note_off_c, 0, 70, 35
1, 561801, Control_c, 0, 64, 40
1, 561816, Control_c, 0, 64, 34
1, 561832, Control_c, 0, 64, 0
1, 561950, Control_c, 0, 64, 29
1, 561965, Control_c, 0, 64, 42
1, 561980, Control_c, 0, 64, 53
1, 561995, Control_c, 0, 64, 61
1, 562010, Control_c, 0, 64, 66
1, 562012, Note_on_c, 0, 72, 52
1, 562024, Control_c, 0, 64, 69
1, 562039, Control_c, 0, 64, 72
1, 562040, Note_off_c, 0, 69, 54
1, 562052, Note_off_c, 0, 72, 58
1, 562054, Control_c, 0, 64, 74
1, 562069, Control_c, 0, 64, 76
1, 562083, Control_c, 0, 64, 77
1, 562098, Control_c, 0, 64, 78
1, 562113, Control_c, 0, 64, 78
1, 562152, Note_on_c, 0, 81, 63
1, 562163, Note_off_c, 0, 77, 64
1, 562168, Note_off_c, 0, 81, 66
1, 562239, Control_c, 0, 64, 78
1, 562254, Control_c, 0, 64, 76
1, 562269, Control_c, 0, 64, 73
1, 562275, Note_on_c, 0, 72, 63
1, 562277, Note_on_c, 0, 84, 70
1, 562283, Control_c, 0, 64, 69
1, 562298, Control_c, 0, 64, 65
1, 562313, Control_c, 0, 64, 59
1, 562328, Control_c, 0, 64, 52
1, 562343, Control_c, 0, 64, 46
1, 562357, Control_c, 0, 64, 40
1, 562372, Control_c, 0, 64, 34
1, 562374, Poly_aftertouch_c, 0, 67, 0
1, 562387, Control_c, 0, 64, 30
1, 562402, Control_c, 0, 64, 0
1, 562405, Note_on_c, 0, 82, 70
1, 562428, Note_off_c, 0, 82, 68
1, 562435, Note_off_c, 0, 84, 63
1, 562530, Note_on_c, 0, 64, 54
1, 562530, Note_on_c, 0, 82, 70
1, 562593, Note_off_c, 0, 64, 64
1, 562653, Note_on_c, 0, 79, 67
1, 562671, Note_off_c, 0, 82, 64
1, 562676, Note_off_c, 0, 79, 69
1, 562772, Note_on_c, 0, 82, 79
1, 562789, Note_on_c, 0, 65, 50
1, 562891, Note_on_c, 0, 81, 82
1, 562914, Control_c, 0, 67, 120
1, 562929, Control_c, 0, 67, 103
1, 562932, Note_off_c, 0, 82, 62
1, 562940, Note_off_c, 0, 81, 63
1, 562944, Control_c, 0, 67, 88
1, 562950, Note_off_c, 0, 72, 38
1, 562959, Control_c, 0, 64, 32
1, 562959, Control_c, 0, 67, 76
1, 562974, Control_c, 0, 64, 39
1, 562974, Control_c, 0, 67, 63
1, 562988, Control_c, 0, 64, 47
1, 562988, Control_c, 0, 67, 49
1, 563003, Control_c, 0, 64, 55
1, 563003, Control_c, 0, 67, 0
1, 563005, Note_off_c, 0, 65, 30
1, 563018, Control_c, 0, 64, 60
1, 563026, Note_on_c, 0, 81, 79
1, 563028, Note_on_c, 0, 62, 57
1, 563032, Control_c, 0, 64, 64
1, 563047, Control_c, 0, 64, 67
1, 563062, Control_c, 0, 64, 69
1, 563077, Control_c, 0, 64, 71
1, 563089, Note_off_c, 0, 81, 61
1, 563092, Control_c, 0, 64, 74
1, 563106, Control_c, 0, 64, 75
1, 563121, Control_c, 0, 64, 77
1, 563136, Control_c, 0, 64, 78
1, 563138, Note_on_c, 0, 77, 76
1, 563146, Note_off_c, 0, 62, 52
1, 563151, Control_c, 0, 64, 79
1, 563162, Note_off_c, 0, 77, 67
1, 563166, Control_c, 0, 64, 79
1, 563239, Control_c, 0, 64, 79
1, 563254, Control_c, 0, 64, 77
1, 563269, Control_c, 0, 64, 74
1, 563275, Note_on_c, 0, 74, 75
1, 563284, Note_on_c, 0, 58, 53
1, 563284, Control_c, 0, 64, 67
1, 563299, Control_c, 0, 64, 57
1, 563314, Control_c, 0, 64, 39
1, 563329, Control_c, 0, 64, 0
1, 563418, Control_c, 0, 64, 37
1, 563433, Control_c, 0, 64, 51
1, 563448, Control_c, 0, 64, 61
1, 563463, Control_c, 0, 64, 65
1, 563478, Control_c, 0, 64, 68
1, 563493, Control_c, 0, 64, 70
1, 563508, Control_c, 0, 64, 71
1, 563522, Control_c, 0, 64, 73
1, 563537, Control_c, 0, 64, 75
1, 563545, Note_on_c, 0, 70, 58
1, 563552, Control_c, 0, 64, 77
1, 563567, Control_c, 0, 64, 79
1, 563582, Control_c, 0, 64, 80
1, 563585, Note_off_c, 0, 70, 57
1, 563596, Control_c, 0, 64, 83
1, 563603, Note_off_c, 0, 58, 62
1, 563611, Control_c, 0, 64, 85
1, 563626, Control_c, 0, 64, 86
1, 563641, Control_c, 0, 64, 86
1, 563663, Control_c, 0, 64, 87
1, 563672, Note_on_c, 0, 79, 66
1, 563752, Control_c, 0, 64, 86
1, 563767, Control_c, 0, 64, 85
1, 563782, Control_c, 0, 64, 83
1, 563797, Control_c, 0, 64, 78
1, 563810, Note_on_c, 0, 77, 73
1, 563812, Control_c, 0, 64, 73
1, 563813, Note_on_c, 0, 60, 52
1, 563815, Note_on_c, 0, 69, 53
1, 563823, Note_off_c, 0, 74, 57
1, 563827, Control_c, 0, 64, 67
1, 563832, Note_off_c, 0, 79, 59
1, 563842, Control_c, 0, 64, 60
1, 563845, Note_off_c, 0, 77, 61
1, 563856, Control_c, 0, 64, 53
1, 563870, Note_off_c, 0, 69, 54
1, 563871, Control_c, 0, 64, 46
1, 563886, Control_c, 0, 64, 38
1, 563901, Control_c, 0, 64, 0
1, 564077, Note_on_c, 0, 76, 71
1, 564078, Control_c, 0, 67, 49
1, 564088, Note_on_c, 0, 70, 60
1, 564089, Note_on_c, 0, 67, 52
1, 564093, Control_c, 0, 67, 63
1, 564108, Control_c, 0, 67, 85
1, 564119, Note_off_c, 0, 70, 66
1, 564123, Control_c, 0, 67, 106
1, 564127, Note_off_c, 0, 76, 63
1, 564134, Note_off_c, 0, 67, 60
1, 564137, Control_c, 0, 67, 124
1, 564152, Control_c, 0, 67, 127
1, 564363, Note_off_c, 0, 60, 61
1, 564368, Note_on_c, 0, 76, 58
1, 564378, Note_on_c, 0, 70, 48
1, 564392, Note_on_c, 0, 65, 40
1, 564465, Note_off_c, 0, 65, 49
1, 564501, Control_c, 0, 64, 31
1, 564516, Control_c, 0, 64, 47
1, 564531, Control_c, 0, 64, 58
1, 564546, Control_c, 0, 64, 62
1, 564560, Control_c, 0, 64, 64
1, 564575, Control_c, 0, 64, 65
1, 564590, Control_c, 0, 64, 66
1, 564605, Control_c, 0, 64, 66
1, 564620, Control_c, 0, 64, 67
1, 564634, Control_c, 0, 64, 67
1, 564649, Control_c, 0, 64, 68
1, 564664, Control_c, 0, 64, 68
1, 564679, Note_on_c, 0, 60, 34
1, 564679, Control_c, 0, 64, 69
1, 564694, Control_c, 0, 64, 70
1, 564709, Control_c, 0, 64, 70
1, 564724, Control_c, 0, 64, 71
1, 564739, Control_c, 0, 64, 72
1, 564742, Note_off_c, 0, 60, 58
1, 564753, Control_c, 0, 64, 73
1, 564768, Control_c, 0, 64, 74
1, 564783, Control_c, 0, 64, 75
1, 564797, Control_c, 0, 64, 76
1, 564812, Control_c, 0, 64, 76
1, 564939, Note_off_c, 0, 70, 27
1, 565004, Control_c, 0, 64, 76
1, 565036, Control_c, 0, 64, 75
1, 565050, Control_c, 0, 64, 74
1, 565060, Note_on_c, 0, 77, 38
1, 565065, Control_c, 0, 64, 73
1, 565080, Control_c, 0, 64, 71
1, 565083, Note_on_c, 0, 69, 36
1, 565092, Note_on_c, 0, 53, 23
1, 565094, Control_c, 0, 64, 67
1, 565109, Control_c, 0, 64, 63
1, 565124, Control_c, 0, 64, 56
1, 565139, Control_c, 0, 64, 50
1, 565162, Control_c, 0, 64, 42
1, 565176, Control_c, 0, 64, 32
1, 565190, Control_c, 0, 64, 0
1, 565197, Note_off_c, 0, 76, 61
1, 565264, Control_c, 0, 64, 36
1, 565279, Control_c, 0, 64, 46
1, 565294, Control_c, 0, 64, 55
1, 565308, Control_c, 0, 64, 62
1, 565323, Control_c, 0, 64, 66
1, 565338, Control_c, 0, 64, 69
1, 565353, Control_c, 0, 64, 72
1, 565368, Control_c, 0, 64, 75
1, 565381, Note_off_c, 0, 77, 58
1, 565383, Control_c, 0, 64, 78
1, 565383, Control_c, 0, 67, 99
1, 565384, Note_off_c, 0, 69, 53
1, 565398, Control_c, 0, 64, 80
1, 565398, Control_c, 0, 67, 65
1, 565413, Control_c, 0, 64, 83
1, 565413, Control_c, 0, 67, 39
1, 565415, Note_off_c, 0, 53, 53
1, 565427, Control_c, 0, 64, 86
1, 565427, Control_c, 0, 67, 0
1, 565442, Control_c, 0, 64, 90
1, 565457, Control_c, 0, 64, 93
1, 565472, Control_c, 0, 64, 94
1, 565487, Control_c, 0, 64, 95
1, 565575, Control_c, 0, 64, 94
1, 565590, Control_c, 0, 64, 93
1, 565605, Control_c, 0, 64, 89
1, 565619, Control_c, 0, 64, 83
1, 565634, Control_c, 0, 64, 74
1, 565649, Control_c, 0, 64, 65
1, 565664, Control_c, 0, 64, 57
1, 565679, Control_c, 0, 64, 49
1, 565693, Control_c, 0, 64, 41
1, 565708, Control_c, 0, 64, 36
1, 565723, Control_c, 0, 64, 34
1, 565767, Control_c, 0, 64, 35
1, 565782, Control_c, 0, 64, 35
1, 565812, Control_c, 0, 64, 36
1, 565912, Note_on_c, 0, 79, 68
1, 565955, Note_on_c, 0, 64, 41
1, 565969, Control_c, 0, 64, 36
1, 565984, Control_c, 0, 64, 37
1, 565998, Control_c, 0, 64, 38
1, 566013, Control_c, 0, 64, 41
1, 566028, Control_c, 0, 64, 44
1, 566043, Control_c, 0, 64, 49
1, 566057, Control_c, 0, 64, 54
1, 566072, Control_c, 0, 64, 58
1, 566087, Control_c, 0, 64, 61
1, 566102, Control_c, 0, 64, 64
1, 566117, Control_c, 0, 64, 66
1, 566131, Control_c, 0, 64, 68
1, 566146, Control_c, 0, 64, 70
1, 566161, Control_c, 0, 64, 71
1, 566176, Control_c, 0, 64, 72
1, 566191, Control_c, 0, 64, 74
1, 566205, Control_c, 0, 64, 75
1, 566220, Control_c, 0, 64, 77
1, 566221, Note_on_c, 0, 72, 28
1, 566235, Control_c, 0, 64, 80
1, 566250, Control_c, 0, 64, 82
1, 566265, Control_c, 0, 64, 85
1, 566280, Control_c, 0, 64, 88
1, 566295, Control_c, 0, 64, 91
1, 566310, Control_c, 0, 64, 94
1, 566324, Control_c, 0, 64, 97
1, 566339, Control_c, 0, 64, 100
1, 566354, Control_c, 0, 64, 103
1, 566485, Note_on_c, 0, 81, 71
1, 566487, Control_c, 0, 64, 98
1, 566502, Control_c, 0, 64, 91
1, 566514, Note_on_c, 0, 65, 41
1, 566516, Control_c, 0, 64, 83
1, 566531, Control_c, 0, 64, 74
1, 566546, Control_c, 0, 64, 64
1, 566561, Control_c, 0, 64, 54
1, 566575, Control_c, 0, 64, 42
1, 566579, Note_off_c, 0, 64, 45
1, 566590, Control_c, 0, 64, 0
1, 566593, Note_off_c, 0, 72, 40
1, 566605, Control_c, 0, 67, 36
1, 566615, Note_off_c, 0, 79, 57
1, 566621, Control_c, 0, 67, 49
1, 566636, Control_c, 0, 67, 68
1, 566659, Control_c, 0, 67, 96
1, 566673, Control_c, 0, 64, 31
1, 566673, Control_c, 0, 67, 127
1, 566688, Control_c, 0, 64, 41
1, 566703, Control_c, 0, 64, 51
1, 566718, Control_c, 0, 64, 59
1, 566733, Control_c, 0, 64, 63
1, 566747, Control_c, 0, 64, 65
1, 566762, Control_c, 0, 64, 67
1, 566777, Control_c, 0, 64, 69
1, 566782, Note_on_c, 0, 72, 33
1, 566792, Control_c, 0, 64, 69
1, 566807, Control_c, 0, 64, 70
1, 566925, Control_c, 0, 64, 69
1, 566954, Control_c, 0, 64, 68
1, 566969, Control_c, 0, 64, 68
1, 566984, Control_c, 0, 64, 66
1, 566999, Control_c, 0, 64, 65
1, 567014, Control_c, 0, 64, 62
1, 567028, Control_c, 0, 64, 59
1, 567043, Control_c, 0, 64, 57
1, 567051, Note_on_c, 0, 79, 44
1, 567055, Note_on_c, 0, 67, 32
1, 567058, Control_c, 0, 64, 54
1, 567073, Note_off_c, 0, 72, 42
1, 567073, Control_c, 0, 64, 52
1, 567088, Control_c, 0, 64, 51
1, 567092, Note_off_c, 0, 65, 35
1, 567093, Note_off_c, 0, 81, 52
1, 567103, Control_c, 0, 64, 49
1, 567118, Control_c, 0, 64, 47
1, 567132, Control_c, 0, 64, 45
1, 567147, Control_c, 0, 64, 43
1, 567162, Control_c, 0, 64, 41
1, 567171, Note_on_c, 0, 77, 64
1, 567177, Control_c, 0, 64, 40
1, 567185, Note_off_c, 0, 79, 62
1, 567191, Control_c, 0, 64, 38
1, 567198, Note_off_c, 0, 77, 67
1, 567206, Control_c, 0, 64, 37
1, 567221, Control_c, 0, 64, 37
1, 567251, Control_c, 0, 64, 36
1, 567265, Control_c, 0, 64, 36
1, 567299, Note_on_c, 0, 77, 57
1, 567302, Note_on_c, 0, 71, 42
1, 567384, Control_c, 0, 64, 35
1, 567422, Control_c, 0, 64, 34
1, 567431, Note_on_c, 0, 76, 56
1, 567438, Control_c, 0, 64, 34
1, 567439, Note_off_c, 0, 77, 62
1, 567452, Control_c, 0, 64, 33
1, 567456, Note_off_c, 0, 76, 65
1, 567467, Control_c, 0, 64, 32
1, 567496, Control_c, 0, 64, 0
1, 567556, Note_on_c, 0, 76, 50
1, 567577, Note_on_c, 0, 69, 42
1, 567590, Note_off_c, 0, 71, 41
1, 567672, Note_off_c, 0, 67, 44
1, 567808, Control_c, 0, 64, 36
1, 567821, Note_on_c, 0, 72, 36
1, 567822, Control_c, 0, 64, 49
1, 567837, Control_c, 0, 64, 59
1, 567852, Control_c, 0, 64, 63
1, 567865, Note_off_c, 0, 76, 63
1, 567867, Control_c, 0, 64, 65
1, 567882, Control_c, 0, 64, 66
1, 567896, Control_c, 0, 64, 67
1, 567911, Control_c, 0, 64, 68
1, 567926, Control_c, 0, 64, 68
1, 567941, Control_c, 0, 64, 69
1, 567970, Control_c, 0, 67, 124
1, 567985, Control_c, 0, 67, 119
1, 568030, Control_c, 0, 64, 68
1, 568030, Control_c, 0, 67, 123
1, 568045, Control_c, 0, 64, 67
1, 568045, Control_c, 0, 67, 127
1, 568060, Control_c, 0, 64, 65
1, 568074, Control_c, 0, 64, 62
1, 568081, Note_on_c, 0, 64, 50
1, 568085, Note_off_c, 0, 72, 50
1, 568089, Control_c, 0, 64, 56
1, 568092, Note_on_c, 0, 79, 47
1, 568095, Note_off_c, 0, 69, 50
1, 568104, Control_c, 0, 64, 49
1, 568119, Control_c, 0, 64, 41
1, 568133, Note_off_c, 0, 79, 58
1, 568134, Control_c, 0, 64, 32
1, 568156, Control_c, 0, 64, 0
1, 568340, Note_on_c, 0, 72, 33
1, 568467, Note_on_c, 0, 84, 63
1, 568499, Note_off_c, 0, 84, 60
1, 568608, Note_on_c, 0, 83, 45
1, 568621, Note_on_c, 0, 65, 49
1, 568634, Note_off_c, 0, 64, 63
1, 568659, Note_off_c, 0, 72, 38
1, 568715, Note_off_c, 0, 83, 30
1, 568731, Note_on_c, 0, 81, 38
1, 568760, Note_off_c, 0, 81, 50
1, 568861, Note_on_c, 0, 72, 40
1, 568991, Note_on_c, 0, 81, 60
1, 569019, Note_off_c, 0, 81, 67
1, 569121, Note_on_c, 0, 79, 49
1, 569129, Note_on_c, 0, 67, 40
1, 569138, Note_off_c, 0, 72, 52
1, 569143, Note_off_c, 0, 65, 49
1, 569243, Note_on_c, 0, 77, 51
1, 569247, Note_off_c, 0, 79, 63
1, 569265, Note_off_c, 0, 77, 59
1, 569356, Note_on_c, 0, 71, 50
1, 569483, Note_on_c, 0, 77, 63
1, 569511, Note_off_c, 0, 77, 68
1, 569576, Note_off_c, 0, 71, 38
1, 569612, Note_on_c, 0, 75, 73
1, 569624, Note_on_c, 0, 69, 49
1, 569673, Note_off_c, 0, 67, 59
1, 569744, Note_on_c, 0, 76, 70
1, 569762, Note_off_c, 0, 75, 63
1, 569771, Note_off_c, 0, 76, 66
1, 569855, Note_on_c, 0, 72, 55
1, 569876, Control_c, 0, 64, 40
1, 569885, Note_off_c, 0, 69, 58
1, 569890, Control_c, 0, 64, 52
1, 569890, Control_c, 0, 67, 107
1, 569905, Control_c, 0, 64, 61
1, 569905, Control_c, 0, 67, 84
1, 569920, Control_c, 0, 64, 66
1, 569920, Control_c, 0, 67, 60
1, 569935, Control_c, 0, 64, 70
1, 569935, Control_c, 0, 67, 37
1, 569950, Control_c, 0, 64, 72
1, 569950, Control_c, 0, 67, 0
1, 569964, Control_c, 0, 64, 74
1, 569976, Note_on_c, 0, 76, 78
1, 569979, Control_c, 0, 64, 75
1, 569982, Note_off_c, 0, 72, 39
1, 569994, Control_c, 0, 64, 77
1, 570006, Note_off_c, 0, 76, 63
1, 570009, Control_c, 0, 64, 78
1, 570024, Control_c, 0, 64, 78
1, 570096, Note_on_c, 0, 74, 75
1, 570098, Control_c, 0, 64, 78
1, 570107, Note_on_c, 0, 69, 56
1, 570113, Control_c, 0, 64, 76
1, 570115, Note_on_c, 0, 65, 50
1, 570121, Note_off_c, 0, 74, 66
1, 570128, Control_c, 0, 64, 73
1, 570143, Control_c, 0, 64, 69
1, 570158, Control_c, 0, 64, 64
1, 570172, Control_c, 0, 64, 57
1, 570187, Control_c, 0, 64, 50
1, 570202, Control_c, 0, 64, 44
1, 570216, Note_on_c, 0, 76, 73
1, 570216, Control_c, 0, 64, 36
1, 570231, Control_c, 0, 64, 31
1, 570246, Control_c, 0, 64, 0
1, 570272, Note_on_c, 0, 74, 71
1, 570283, Note_off_c, 0, 76, 63
1, 570304, Note_off_c, 0, 74, 64
1, 570310, Note_on_c, 0, 73, 74
1, 570360, Note_on_c, 0, 74, 75
1, 570366, Note_off_c, 0, 73, 63
1, 570428, Note_off_c, 0, 74, 61
1, 570455, Note_off_c, 0, 69, 62
1, 570471, Note_on_c, 0, 76, 84
1, 570471, Note_off_c, 0, 65, 59
1, 570511, Note_off_c, 0, 76, 63
1, 570587, Note_on_c, 0, 77, 88
1, 570638, Note_off_c, 0, 77, 62
1, 570705, Note_on_c, 0, 79, 84
1, 570750, Note_off_c, 0, 79, 62
1, 570820, Note_on_c, 0, 80, 88
1, 570868, Note_off_c, 0, 80, 62
1, 570939, Note_on_c, 0, 81, 80
1, 571005, Note_off_c, 0, 81, 60
1, 571067, Note_on_c, 0, 72, 75
1, 571078, Note_on_c, 0, 64, 78
1, 571102, Note_on_c, 0, 55, 55
1, 571450, Note_off_c, 0, 72, 56
1, 571464, Note_on_c, 0, 74, 67
1, 571529, Note_on_c, 0, 72, 60
1, 571538, Note_off_c, 0, 74, 58
1, 571583, Note_off_c, 0, 64, 61
1, 571591, Note_off_c, 0, 72, 61
1, 571593, Note_on_c, 0, 71, 69
1, 571605, Note_on_c, 0, 62, 49
1, 571619, Note_off_c, 0, 71, 66
1, 571734, Note_on_c, 0, 72, 59
1, 571767, Note_off_c, 0, 72, 62
1, 571810, Note_off_c, 0, 62, 60
1, 571854, Note_on_c, 0, 74, 82
1, 571908, Note_off_c, 0, 74, 62
1, 571938, Note_off_c, 0, 55, 62
1, 571978, Note_on_c, 0, 76, 81
1, 571997, Note_off_c, 0, 76, 70
1, 572128, Note_on_c, 0, 57, 47
1, 572128, Note_on_c, 0, 77, 81
1, 572240, Control_c, 0, 64, 31
1, 572255, Control_c, 0, 64, 41
1, 572270, Control_c, 0, 64, 51
1, 572284, Control_c, 0, 64, 57
1, 572299, Control_c, 0, 64, 60
1, 572314, Control_c, 0, 64, 62
1, 572329, Control_c, 0, 64, 63
1, 572344, Control_c, 0, 64, 64
1, 572358, Control_c, 0, 64, 65
1, 572373, Control_c, 0, 64, 66
1, 572377, Note_on_c, 0, 60, 38
1, 572388, Control_c, 0, 64, 68
1, 572403, Control_c, 0, 64, 69
1, 572403, Control_c, 0, 67, 37
1, 572418, Control_c, 0, 64, 71
1, 572418, Control_c, 0, 67, 49
1, 572433, Control_c, 0, 64, 72
1, 572433, Control_c, 0, 67, 67
1, 572447, Control_c, 0, 64, 73
1, 572447, Control_c, 0, 67, 89
1, 572462, Control_c, 0, 64, 74
1, 572462, Control_c, 0, 67, 116
1, 572477, Control_c, 0, 64, 75
1, 572477, Control_c, 0, 67, 127
1, 572507, Control_c, 0, 64, 75
1, 572581, Control_c, 0, 64, 75
1, 572610, Control_c, 0, 64, 73
1, 572625, Control_c, 0, 64, 71
1, 572647, Control_c, 0, 64, 66
1, 572662, Control_c, 0, 64, 58
1, 572669, Note_on_c, 0, 76, 56
1, 572677, Control_c, 0, 64, 46
1, 572684, Note_on_c, 0, 55, 35
1, 572692, Control_c, 0, 64, 31
1, 572705, Note_off_c, 0, 57, 34
1, 572707, Control_c, 0, 64, 0
1, 572720, Note_off_c, 0, 77, 62
1, 572734, Note_off_c, 0, 60, 39
1, 572855, Control_c, 0, 64, 39
1, 572870, Control_c, 0, 64, 51
1, 572884, Control_c, 0, 64, 62
1, 572899, Control_c, 0, 64, 66
1, 572914, Control_c, 0, 64, 68
1, 572929, Control_c, 0, 64, 69
1, 572937, Note_on_c, 0, 60, 39
1, 572943, Control_c, 0, 64, 71
1, 572958, Control_c, 0, 64, 72
1, 572973, Control_c, 0, 64, 73
1, 572988, Control_c, 0, 64, 74
1, 572991, Note_off_c, 0, 76, 59
1, 573003, Control_c, 0, 64, 75
1, 573005, Note_off_c, 0, 55, 58
1, 573019, Control_c, 0, 64, 75
1, 573137, Control_c, 0, 64, 75
1, 573152, Control_c, 0, 64, 73
1, 573167, Control_c, 0, 64, 69
1, 573181, Control_c, 0, 64, 62
1, 573189, Note_on_c, 0, 53, 39
1, 573196, Control_c, 0, 64, 53
1, 573202, Note_on_c, 0, 55, 22
1, 573204, Note_on_c, 0, 74, 59
1, 573211, Control_c, 0, 64, 41
1, 573226, Control_c, 0, 64, 0
1, 573232, Note_off_c, 0, 60, 47
1, 573235, Note_off_c, 0, 74, 63
1, 573297, Note_on_c, 0, 76, 54
1, 573317, Note_off_c, 0, 76, 63
1, 573366, Note_on_c, 0, 77, 66
1, 573398, Note_off_c, 0, 77, 69
1, 573461, Note_on_c, 0, 62, 33
1, 573461, Note_on_c, 0, 79, 64
1, 573469, Note_off_c, 0, 55, 41
1, 573499, Note_off_c, 0, 79, 54
1, 573544, Note_on_c, 0, 81, 61
1, 573564, Note_off_c, 0, 81, 65
1, 573564, Note_off_c, 0, 53, 50
1, 573610, Note_on_c, 0, 83, 55
1, 573634, Note_off_c, 0, 83, 55
1, 573711, Note_on_c, 0, 84, 58
1, 573731, Note_on_c, 0, 52, 42
1, 573746, Note_on_c, 0, 55, 25
1, 573760, Note_off_c, 0, 62, 48
1, 573797, Control_c, 0, 64, 39
1, 573813, Control_c, 0, 64, 51
1, 573828, Control_c, 0, 64, 60
1, 573842, Note_off_c, 0, 84, 64
1, 573842, Control_c, 0, 64, 63
1, 573857, Control_c, 0, 64, 65
1, 573872, Control_c, 0, 64, 66
1, 573887, Control_c, 0, 64, 67
1, 573902, Control_c, 0, 64, 69
1, 573917, Control_c, 0, 64, 71
1, 573931, Control_c, 0, 64, 72
1, 573931, Control_c, 0, 67, 109
1, 573946, Control_c, 0, 64, 74
1, 573946, Control_c, 0, 67, 77
1, 573961, Control_c, 0, 64, 75
1, 573961, Control_c, 0, 67, 0
1, 573966, Note_on_c, 0, 60, 34
1, 573976, Control_c, 0, 64, 76
1, 573990, Control_c, 0, 64, 77
1, 574005, Control_c, 0, 64, 78
1, 574016, Note_off_c, 0, 55, 41
1, 574020, Control_c, 0, 64, 80
1, 574035, Control_c, 0, 64, 81
1, 574043, Note_off_c, 0, 52, 56
1, 574050, Control_c, 0, 64, 82
1, 574055, Note_off_c, 0, 60, 0
1, 574064, Control_c, 0, 64, 82
1, 574079, Control_c, 0, 64, 83
1, 574093, Poly_aftertouch_c, 0, 60, 127
1, 574124, Control_c, 0, 64, 82
1, 574161, Control_c, 0, 64, 80
1, 574176, Control_c, 0, 64, 76
1, 574190, Control_c, 0, 64, 69
1, 574205, Control_c, 0, 64, 61
1, 574220, Control_c, 0, 64, 50
1, 574227, Note_on_c, 0, 79, 60
1, 574231, Note_on_c, 0, 57, 61
1, 574235, Control_c, 0, 64, 40
1, 574250, Control_c, 0, 64, 0
1, 574280, Poly_aftertouch_c, 0, 60, 0
1, 574364, Note_on_c, 0, 77, 65
1, 574373, Note_off_c, 0, 79, 64
1, 574390, Note_off_c, 0, 77, 68
1, 574492, Note_on_c, 0, 60, 48
1, 574615, Note_on_c, 0, 77, 84
1, 574641, Note_off_c, 0, 77, 62
1, 574754, Note_on_c, 0, 77, 84
1, 574772, Note_on_c, 0, 55, 60
1, 574794, Note_off_c, 0, 57, 58
1, 574835, Note_off_c, 0, 60, 37
1, 574894, Note_on_c, 0, 76, 77
1, 574907, Note_off_c, 0, 77, 65
1, 574915, Note_off_c, 0, 76, 72
1, 575006, Note_on_c, 0, 60, 55
1, 575106, Note_off_c, 0, 55, 61
1, 575151, Note_on_c, 0, 76, 69
1, 575175, Note_off_c, 0, 76, 70
1, 575281, Note_on_c, 0, 74, 72
1, 575294, Note_on_c, 0, 53, 44
1, 575294, Note_on_c, 0, 55, 40
1, 575317, Note_off_c, 0, 60, 52
1, 575341, Note_off_c, 0, 74, 62
1, 575342, Note_on_c, 0, 76, 65
1, 575403, Note_off_c, 0, 76, 66
1, 575410, Note_on_c, 0, 77, 67
1, 575451, Note_off_c, 0, 77, 65
1, 575453, Note_on_c, 0, 78, 75
1, 575475, Note_off_c, 0, 78, 68
1, 575514, Note_on_c, 0, 79, 71
1, 575527, Note_off_c, 0, 55, 55
1, 575544, Note_on_c, 0, 62, 49
1, 575558, Note_off_c, 0, 79, 60
1, 575570, Note_on_c, 0, 80, 72
1, 575583, Note_off_c, 0, 53, 59
1, 575639, Note_off_c, 0, 80, 62
1, 575642, Note_on_c, 0, 81, 68
1, 575688, Note_on_c, 0, 83, 63
1, 575700, Note_off_c, 0, 81, 55
1, 575771, Note_off_c, 0, 62, 58
1, 575772, Note_off_c, 0, 83, 64
1, 575776, Note_on_c, 0, 84, 76
1, 575794, Note_on_c, 0, 55, 31
1, 575802, Note_on_c, 0, 52, 36
1, 575968, Control_c, 0, 64, 43
1, 575981, Note_off_c, 0, 55, 54
1, 575983, Control_c, 0, 64, 57
1, 575998, Control_c, 0, 64, 63
1, 576013, Control_c, 0, 64, 66
1, 576027, Control_c, 0, 64, 69
1, 576031, Note_off_c, 0, 84, 66
1, 576042, Control_c, 0, 64, 73
1, 576043, Note_on_c, 0, 60, 47
1, 576057, Control_c, 0, 64, 77
1, 576072, Control_c, 0, 64, 80
1, 576083, Note_off_c, 0, 52, 62
1, 576087, Note_off_c, 0, 60, 65
1, 576087, Control_c, 0, 64, 83
1, 576102, Control_c, 0, 64, 86
1, 576117, Control_c, 0, 64, 90
1, 576132, Control_c, 0, 64, 93
1, 576147, Control_c, 0, 64, 96
1, 576161, Control_c, 0, 64, 98
1, 576206, Control_c, 0, 64, 100
1, 576281, Control_c, 0, 64, 95
1, 576292, Note_on_c, 0, 84, 95
1, 576296, Control_c, 0, 64, 85
1, 576311, Control_c, 0, 64, 71
1, 576325, Control_c, 0, 64, 54
1, 576340, Control_c, 0, 64, 0
1, 576489, Note_on_c, 0, 81, 79
1, 576505, Note_off_c, 0, 84, 65
1, 576531, Note_off_c, 0, 81, 63
1, 576566, Note_on_c, 0, 72, 75
1, 576566, Note_on_c, 0, 78, 86
1, 576570, Note_on_c, 0, 69, 72
1, 576591, Note_off_c, 0, 72, 65
1, 576591, Note_off_c, 0, 69, 70
1, 576838, Note_on_c, 0, 72, 71
1, 576853, Note_on_c, 0, 69, 63
1, 577074, Control_c, 0, 67, 37
1, 577083, Note_off_c, 0, 69, 53
1, 577089, Control_c, 0, 67, 39
1, 577104, Control_c, 0, 67, 45
1, 577109, Note_off_c, 0, 72, 59
1, 577116, Note_on_c, 0, 79, 49
1, 577119, Control_c, 0, 67, 55
1, 577131, Note_on_c, 0, 71, 49
1, 577141, Control_c, 0, 67, 69
1, 577145, Note_on_c, 0, 67, 35
1, 577151, Note_off_c, 0, 78, 53
1, 577156, Control_c, 0, 67, 88
1, 577171, Control_c, 0, 67, 105
1, 577186, Control_c, 0, 67, 117
1, 577201, Control_c, 0, 67, 125
1, 577215, Control_c, 0, 67, 127
1, 577263, Note_off_c, 0, 71, 63
1, 577268, Note_off_c, 0, 67, 64
1, 577271, Note_off_c, 0, 79, 64
1, 577363, Note_on_c, 0, 81, 53
1, 577565, Note_off_c, 0, 81, 62
1, 577567, Note_on_c, 0, 77, 54
1, 577590, Note_off_c, 0, 77, 64
1, 577636, Note_on_c, 0, 59, 49
1, 577640, Note_on_c, 0, 74, 69
1, 577640, Note_on_c, 0, 65, 48
1, 577642, Note_on_c, 0, 67, 45
1, 577659, Note_off_c, 0, 59, 59
1, 577664, Note_off_c, 0, 65, 58
1, 577669, Note_off_c, 0, 67, 54
1, 577916, Note_on_c, 0, 67, 68
1, 577926, Note_on_c, 0, 59, 56
1, 577932, Note_on_c, 0, 65, 47
1, 578007, Note_off_c, 0, 59, 61
1, 578044, Note_off_c, 0, 67, 57
1, 578055, Note_off_c, 0, 65, 56
1, 578127, Control_c, 0, 64, 31
1, 578142, Control_c, 0, 64, 43
1, 578142, Control_c, 0, 67, 124
1, 578156, Control_c, 0, 64, 55
1, 578156, Control_c, 0, 67, 105
1, 578171, Control_c, 0, 64, 62
1, 578171, Control_c, 0, 67, 82
1, 578174, Note_on_c, 0, 76, 70
1, 578178, Note_on_c, 0, 60, 59
1, 578185, Note_on_c, 0, 67, 49
1, 578186, Control_c, 0, 64, 67
1, 578186, Control_c, 0, 67, 54
1, 578188, Note_on_c, 0, 64, 44
1, 578201, Control_c, 0, 64, 71
1, 578201, Control_c, 0, 67, 0
1, 578202, Note_off_c, 0, 76, 68
1, 578207, Note_off_c, 0, 74, 64
1, 578215, Note_off_c, 0, 64, 56
1, 578216, Control_c, 0, 64, 75
1, 578218, Note_off_c, 0, 67, 64
1, 578221, Note_off_c, 0, 60, 62
1, 578230, Control_c, 0, 64, 80
1, 578245, Control_c, 0, 64, 85
1, 578260, Control_c, 0, 64, 92
1, 578275, Control_c, 0, 64, 99
1, 578290, Control_c, 0, 64, 112
1, 578305, Control_c, 0, 64, 127
1, 578437, Note_on_c, 0, 77, 84
1, 578448, Note_on_c, 0, 60, 57
1, 578449, Note_on_c, 0, 65, 61
1, 578460, Note_on_c, 0, 57, 54
1, 578468, Control_c, 0, 64, 97
1, 578483, Control_c, 0, 64, 81
1, 578497, Control_c, 0, 64, 65
1, 578512, Control_c, 0, 64, 51
1, 578527, Control_c, 0, 64, 31
1, 578542, Control_c, 0, 64, 0
1, 578574, Note_on_c, 0, 79, 65
1, 578611, Note_off_c, 0, 77, 47
1, 578635, Note_off_c, 0, 79, 64
1, 578639, Note_on_c, 0, 81, 80
1, 578689, Note_on_c, 0, 79, 61
1, 578707, Note_off_c, 0, 60, 47
1, 578731, Note_off_c, 0, 65, 51
1, 578731, Note_on_c, 0, 77, 78
1, 578733, Note_off_c, 0, 81, 60
1, 578752, Note_off_c, 0, 57, 57
1, 578774, Note_off_c, 0, 79, 64
1, 578795, Note_on_c, 0, 76, 80
1, 578812, Note_off_c, 0, 77, 65
1, 578851, Note_off_c, 0, 76, 65
1, 578856, Note_on_c, 0, 74, 79
1, 578913, Note_on_c, 0, 72, 86
1, 578925, Note_on_c, 0, 64, 62
1, 578926, Note_on_c, 0, 55, 63
1, 578926, Note_on_c, 0, 60, 59
1, 578934, Note_off_c, 0, 74, 63
1, 578940, Note_off_c, 0, 72, 61
1, 578960, Note_off_c, 0, 60, 66
1, 578961, Note_off_c, 0, 64, 63
1, 578973, Note_off_c, 0, 55, 61
1, 579189, Note_on_c, 0, 59, 68
1, 579189, Note_on_c, 0, 74, 84
1, 579196, Note_on_c, 0, 55, 49
1, 579210, Note_off_c, 0, 74, 71
1, 579225, Note_off_c, 0, 59, 63
1, 579236, Note_off_c, 0, 55, 62
1, 579464, Note_on_c, 0, 74, 74
1, 579487, Note_on_c, 0, 60, 51
1, 579488, Note_on_c, 0, 71, 52
1, 579580, Control_c, 0, 67, 47
1, 579595, Control_c, 0, 67, 67
1, 579601, Note_off_c, 0, 60, 57
1, 579609, Control_c, 0, 67, 86
1, 579624, Control_c, 0, 67, 106
1, 579639, Control_c, 0, 67, 127
1, 579758, Note_on_c, 0, 55, 47
1, 579812, Note_off_c, 0, 55, 58
1, 579832, Note_off_c, 0, 74, 62
1, 579886, Note_on_c, 0, 75, 56
1, 580019, Note_off_c, 0, 75, 58
1, 580027, Note_on_c, 0, 72, 46
1, 580027, Note_on_c, 0, 76, 60
1, 580028, Note_on_c, 0, 52, 43
1, 580036, Note_off_c, 0, 71, 36
1, 580087, Note_off_c, 0, 52, 53
1, 580255, Control_c, 0, 64, 33
1, 580270, Control_c, 0, 64, 48
1, 580285, Note_on_c, 0, 48, 58
1, 580285, Control_c, 0, 64, 60
1, 580293, Note_off_c, 0, 72, 63
1, 580299, Control_c, 0, 64, 65
1, 580303, Note_off_c, 0, 76, 65
1, 580314, Note_off_c, 0, 48, 65
1, 580314, Control_c, 0, 64, 68
1, 580329, Control_c, 0, 64, 72
1, 580344, Control_c, 0, 64, 76
1, 580359, Control_c, 0, 64, 81
1, 580374, Control_c, 0, 64, 85
1, 580389, Control_c, 0, 64, 88
1, 580389, Control_c, 0, 67, 104
1, 580403, Control_c, 0, 64, 90
1, 580403, Control_c, 0, 67, 76
1, 580418, Control_c, 0, 64, 91
1, 580418, Control_c, 0, 67, 50
1, 580433, Control_c, 0, 64, 93
1, 580433, Control_c, 0, 67, 0
1, 580448, Control_c, 0, 64, 94
1, 580463, Control_c, 0, 64, 95
1, 580547, Note_on_c, 0, 84, 65
1, 580566, Control_c, 0, 64, 94
1, 580581, Control_c, 0, 64, 92
1, 580594, Note_on_c, 0, 83, 78
1, 580595, Note_off_c, 0, 84, 62
1, 580596, Control_c, 0, 64, 87
1, 580611, Control_c, 0, 64, 80
1, 580625, Control_c, 0, 64, 72
1, 580640, Control_c, 0, 64, 63
1, 580655, Control_c, 0, 64, 55
1, 580656, Note_on_c, 0, 84, 75
1, 580666, Note_off_c, 0, 83, 63
1, 580670, Control_c, 0, 64, 46
1, 580685, Control_c, 0, 64, 36
1, 580699, Control_c, 0, 64, 0
1, 580705, Note_off_c, 0, 84, 63
1, 580711, Note_on_c, 0, 81, 80
1, 580776, Note_off_c, 0, 81, 60
1, 580780, Note_on_c, 0, 72, 78
1, 580785, Note_on_c, 0, 78, 85
1, 580792, Note_on_c, 0, 62, 61
1, 580792, Note_on_c, 0, 69, 63
1, 580812, Note_off_c, 0, 72, 60
1, 580818, Note_off_c, 0, 69, 68
1, 580821, Note_off_c, 0, 62, 64
1, 581065, Note_on_c, 0, 72, 79
1, 581089, Note_on_c, 0, 69, 57
1, 581094, Note_on_c, 0, 62, 59
1, 581122, Control_c, 0, 64, 40
1, 581137, Control_c, 0, 64, 54
1, 581152, Control_c, 0, 64, 65
1, 581167, Control_c, 0, 64, 70
1, 581181, Control_c, 0, 64, 74
1, 581196, Control_c, 0, 64, 76
1, 581211, Control_c, 0, 64, 77
1, 581226, Control_c, 0, 64, 79
1, 581229, Note_off_c, 0, 72, 61
1, 581241, Control_c, 0, 64, 79
1, 581256, Control_c, 0, 64, 80
1, 581287, Note_off_c, 0, 69, 57
1, 581301, Control_c, 0, 64, 79
1, 581316, Control_c, 0, 64, 79
1, 581316, Control_c, 0, 67, 49
1, 581324, Note_off_c, 0, 78, 49
1, 581330, Control_c, 0, 64, 76
1, 581330, Control_c, 0, 67, 72
1, 581336, Note_on_c, 0, 79, 65
1, 581345, Control_c, 0, 64, 70
1, 581345, Control_c, 0, 67, 96
1, 581348, Note_on_c, 0, 67, 61
1, 581349, Note_off_c, 0, 62, 58
1, 581351, Poly_aftertouch_c, 0, 77, 0
1, 581355, Note_on_c, 0, 71, 57
1, 581360, Control_c, 0, 64, 61
1, 581360, Control_c, 0, 67, 126
1, 581366, Note_off_c, 0, 79, 64
1, 581374, Note_off_c, 0, 67, 66
1, 581374, Control_c, 0, 64, 47
1, 581383, Note_off_c, 0, 71, 65
1, 581389, Control_c, 0, 64, 0
1, 581469, Note_on_c, 0, 80, 55
1, 581491, Note_off_c, 0, 80, 64
1, 581601, Note_on_c, 0, 81, 64
1, 581659, Note_off_c, 0, 81, 62
1, 581675, Note_on_c, 0, 80, 70
1, 581736, Note_on_c, 0, 81, 59
1, 581775, Note_on_c, 0, 77, 71
1, 581785, Note_off_c, 0, 80, 33
1, 581787, Note_off_c, 0, 81, 61
1, 581844, Note_off_c, 0, 77, 63
1, 581856, Note_on_c, 0, 59, 52
1, 581860, Note_on_c, 0, 74, 64
1, 581870, Note_on_c, 0, 65, 35
1, 581876, Note_on_c, 0, 55, 32
1, 581886, Note_off_c, 0, 59, 65
1, 581900, Note_off_c, 0, 65, 49
1, 581913, Note_off_c, 0, 55, 44
1, 582140, Note_on_c, 0, 65, 49
1, 582168, Note_on_c, 0, 55, 37
1, 582177, Note_on_c, 0, 59, 25
1, 582212, Control_c, 0, 64, 32
1, 582227, Control_c, 0, 64, 39
1, 582242, Control_c, 0, 64, 47
1, 582257, Control_c, 0, 64, 55
1, 582270, Note_off_c, 0, 65, 57
1, 582271, Control_c, 0, 64, 61
1, 582286, Control_c, 0, 64, 63
1, 582296, Note_on_c, 0, 75, 67
1, 582301, Control_c, 0, 64, 64
1, 582315, Control_c, 0, 64, 66
1, 582330, Control_c, 0, 64, 66
1, 582335, Note_off_c, 0, 74, 60
1, 582335, Note_off_c, 0, 59, 52
1, 582344, Note_off_c, 0, 55, 57
1, 582345, Control_c, 0, 64, 67
1, 582412, Control_c, 0, 64, 66
1, 582427, Control_c, 0, 64, 65
1, 582429, Note_off_c, 0, 75, 63
1, 582442, Control_c, 0, 64, 64
1, 582453, Note_on_c, 0, 76, 61
1, 582457, Control_c, 0, 64, 61
1, 582463, Note_on_c, 0, 64, 50
1, 582468, Note_on_c, 0, 60, 43
1, 582471, Control_c, 0, 64, 56
1, 582471, Control_c, 0, 67, 124
1, 582484, Note_off_c, 0, 76, 64
1, 582486, Control_c, 0, 64, 53
1, 582486, Control_c, 0, 67, 111
1, 582501, Control_c, 0, 64, 50
1, 582501, Control_c, 0, 67, 99
1, 582516, Control_c, 0, 64, 46
1, 582516, Control_c, 0, 67, 86
1, 582520, Note_on_c, 0, 77, 72
1, 582530, Control_c, 0, 64, 43
1, 582530, Control_c, 0, 67, 71
1, 582533, Note_off_c, 0, 64, 59
1, 582536, Note_off_c, 0, 60, 59
1, 582545, Control_c, 0, 64, 39
1, 582545, Control_c, 0, 67, 57
1, 582560, Control_c, 0, 64, 36
1, 582560, Control_c, 0, 67, 44
1, 582575, Control_c, 0, 64, 33
1, 582575, Control_c, 0, 67, 0
1, 582577, Note_on_c, 0, 78, 78
1, 582580, Note_off_c, 0, 77, 62
1, 582590, Control_c, 0, 64, 31
1, 582606, Control_c, 0, 64, 0
1, 582640, Note_on_c, 0, 79, 77
1, 582729, Note_on_c, 0, 80, 82
1, 582771, Note_off_c, 0, 78, 36
1, 582780, Note_off_c, 0, 79, 62
1, 582798, Control_c, 0, 64, 40
1, 582813, Control_c, 0, 64, 49
1, 582827, Control_c, 0, 64, 55
1, 582842, Control_c, 0, 64, 58
1, 582857, Control_c, 0, 64, 61
1, 582872, Control_c, 0, 64, 62
1, 582887, Control_c, 0, 64, 64
1, 582901, Control_c, 0, 64, 66
1, 582916, Control_c, 0, 64, 67
1, 582931, Control_c, 0, 64, 68
1, 582946, Control_c, 0, 64, 69
1, 582949, Note_on_c, 0, 81, 81
1, 582961, Control_c, 0, 64, 71
1, 582976, Control_c, 0, 64, 72
1, 582991, Control_c, 0, 64, 74
1, 583003, Note_off_c, 0, 80, 61
1, 583006, Control_c, 0, 64, 75
1, 583020, Control_c, 0, 64, 77
1, 583035, Control_c, 0, 64, 78
1, 583050, Control_c, 0, 64, 79
1, 583065, Control_c, 0, 64, 80
1, 583080, Control_c, 0, 64, 80
1, 583145, Note_on_c, 0, 79, 73
1, 583146, Control_c, 0, 64, 81
1, 583155, Note_on_c, 0, 62, 59
1, 583173, Note_on_c, 0, 57, 46
1, 583175, Note_on_c, 0, 53, 52
1, 583191, Control_c, 0, 64, 81
1, 583206, Control_c, 0, 64, 82
1, 583220, Control_c, 0, 64, 84
1, 583231, Note_on_c, 0, 77, 79
1, 583235, Control_c, 0, 64, 86
1, 583250, Control_c, 0, 64, 88
1, 583265, Control_c, 0, 64, 91
1, 583280, Control_c, 0, 64, 95
1, 583295, Control_c, 0, 64, 101
1, 583307, Note_on_c, 0, 76, 83
1, 583310, Note_off_c, 0, 53, 50
1, 583310, Note_off_c, 0, 79, 64
1, 583310, Note_off_c, 0, 81, 35
1, 583310, Control_c, 0, 64, 107
1, 583325, Control_c, 0, 64, 116
1, 583340, Control_c, 0, 64, 127
1, 583340, Note_off_c, 0, 62, 52
1, 583342, Note_off_c, 0, 77, 64
1, 583346, Note_off_c, 0, 57, 50
1, 583375, Note_on_c, 0, 74, 83
1, 583384, Note_off_c, 0, 76, 65
1, 583453, Note_on_c, 0, 72, 82
1, 583459, Note_on_c, 0, 64, 69
1, 583474, Control_c, 0, 64, 106
1, 583484, Note_on_c, 0, 60, 54
1, 583489, Control_c, 0, 64, 92
1, 583504, Control_c, 0, 64, 76
1, 583504, Note_on_c, 0, 55, 48
1, 583517, Note_off_c, 0, 74, 57
1, 583519, Control_c, 0, 64, 62
1, 583533, Control_c, 0, 64, 40
1, 583548, Control_c, 0, 64, 0
1, 583622, Control_c, 0, 64, 32
1, 583637, Control_c, 0, 64, 50
1, 583651, Control_c, 0, 64, 63
1, 583666, Control_c, 0, 64, 71
1, 583681, Control_c, 0, 64, 76
1, 583685, Note_off_c, 0, 64, 62
1, 583695, Control_c, 0, 64, 80
1, 583704, Note_off_c, 0, 60, 55
1, 583710, Control_c, 0, 64, 82
1, 583725, Control_c, 0, 64, 84
1, 583740, Control_c, 0, 64, 85
1, 583769, Control_c, 0, 64, 84
1, 583772, Note_on_c, 0, 65, 77
1, 583776, Note_on_c, 0, 76, 75
1, 583781, Note_on_c, 0, 59, 65
1, 583784, Control_c, 0, 64, 81
1, 583799, Control_c, 0, 64, 71
1, 583814, Control_c, 0, 64, 59
1, 583829, Control_c, 0, 64, 44
1, 583843, Control_c, 0, 64, 37
1, 583858, Control_c, 0, 64, 40
1, 583860, Note_off_c, 0, 72, 58
1, 583881, Control_c, 0, 64, 49
1, 583895, Control_c, 0, 64, 59
1, 583909, Control_c, 0, 64, 68
1, 583924, Control_c, 0, 64, 76
1, 583939, Control_c, 0, 64, 84
1, 583954, Control_c, 0, 64, 91
1, 583967, Note_on_c, 0, 74, 81
1, 583969, Control_c, 0, 64, 98
1, 583984, Control_c, 0, 64, 107
1, 583997, Note_off_c, 0, 65, 46
1, 583998, Control_c, 0, 64, 127
1, 584032, Note_off_c, 0, 59, 62
1, 584174, Note_on_c, 0, 72, 69
1, 584183, Note_on_c, 0, 64, 74
1, 584186, Note_off_c, 0, 76, 53
1, 584192, Control_c, 0, 64, 95
1, 584193, Note_on_c, 0, 60, 65
1, 584207, Control_c, 0, 64, 72
1, 584222, Note_off_c, 0, 74, 63
1, 584222, Control_c, 0, 64, 56
1, 584226, Note_off_c, 0, 55, 40
1, 584235, Note_off_c, 0, 60, 61
1, 584237, Control_c, 0, 64, 0
1, 584266, Control_c, 0, 67, 45
1, 584281, Control_c, 0, 67, 58
1, 584296, Control_c, 0, 67, 72
1, 584311, Control_c, 0, 67, 86
1, 584325, Control_c, 0, 67, 105
1, 584340, Control_c, 0, 67, 124
1, 584355, Control_c, 0, 67, 127
1, 584475, Note_on_c, 0, 55, 56
1, 584487, Note_off_c, 0, 72, 61
1, 584505, Note_off_c, 0, 55, 64
1, 584634, Note_on_c, 0, 72, 55
1, 584679, Note_off_c, 0, 72, 55
1, 584692, Note_on_c, 0, 71, 56
1, 584752, Note_off_c, 0, 71, 55
1, 584753, Note_on_c, 0, 74, 69
1, 584771, Note_on_c, 0, 60, 50
1, 584796, Note_off_c, 0, 60, 60
1, 584817, Note_off_c, 0, 74, 61
1, 584820, Note_on_c, 0, 72, 58
1, 584850, Note_off_c, 0, 72, 65
1, 584880, Note_on_c, 0, 76, 66
1, 584906, Note_off_c, 0, 76, 67
1, 584947, Note_on_c, 0, 74, 68
1, 585001, Note_off_c, 0, 74, 55
1, 585013, Note_on_c, 0, 55, 42
1, 585015, Note_on_c, 0, 77, 67
1, 585039, Note_off_c, 0, 64, 62
1, 585043, Note_off_c, 0, 55, 55
1, 585071, Note_off_c, 0, 77, 61
1, 585102, Note_on_c, 0, 76, 21
1, 585130, Note_on_c, 0, 79, 60
1, 585144, Note_off_c, 0, 76, 43
1, 585155, Note_off_c, 0, 79, 68
1, 585200, Note_on_c, 0, 77, 62
1, 585270, Note_off_c, 0, 77, 52
1, 585278, Note_on_c, 0, 65, 53
1, 585284, Note_on_c, 0, 81, 50
1, 585290, Note_on_c, 0, 59, 49
1, 585329, Note_off_c, 0, 59, 52
1, 585420, Note_off_c, 0, 81, 62
1, 585432, Note_on_c, 0, 79, 41
1, 585457, Note_off_c, 0, 79, 58
1, 585572, Note_on_c, 0, 79, 53
1, 585584, Note_on_c, 0, 55, 42
1, 585629, Note_off_c, 0, 55, 60
1, 585843, Note_on_c, 0, 59, 40
1, 585875, Note_off_c, 0, 59, 56
1, 585985, Note_on_c, 0, 78, 55
1, 586103, Note_on_c, 0, 55, 46
1, 586129, Note_on_c, 0, 77, 61
1, 586141, Control_c, 0, 64, 32
1, 586151, Note_off_c, 0, 65, 62
1, 586152, Note_off_c, 0, 55, 63
1, 586155, Control_c, 0, 64, 46
1, 586169, Control_c, 0, 64, 58
1, 586173, Note_off_c, 0, 79, 42
1, 586184, Control_c, 0, 64, 63
1, 586199, Control_c, 0, 64, 66
1, 586207, Note_off_c, 0, 77, 63
1, 586210, Note_off_c, 0, 78, 37
1, 586214, Control_c, 0, 64, 67
1, 586229, Control_c, 0, 64, 69
1, 586243, Control_c, 0, 64, 70
1, 586258, Control_c, 0, 64, 71
1, 586261, Note_on_c, 0, 74, 58
1, 586273, Control_c, 0, 64, 71
1, 586303, Control_c, 0, 64, 71
1, 586318, Control_c, 0, 64, 68
1, 586332, Control_c, 0, 64, 63
1, 586347, Control_c, 0, 64, 51
1, 586362, Control_c, 0, 64, 34
1, 586367, Note_off_c, 0, 74, 37
1, 586377, Control_c, 0, 64, 0
1, 586395, Note_on_c, 0, 71, 59
1, 586398, Note_on_c, 0, 60, 47
1, 586404, Note_on_c, 0, 64, 47
1, 586428, Note_off_c, 0, 60, 64
1, 586543, Note_on_c, 0, 72, 59
1, 586543, Note_off_c, 0, 71, 58
1, 586571, Note_off_c, 0, 72, 66
1, 586652, Note_on_c, 0, 55, 52
1, 586685, Note_off_c, 0, 55, 64
1, 586802, Note_on_c, 0, 72, 57
1, 586840, Note_off_c, 0, 72, 59
1, 586864, Note_on_c, 0, 71, 62
1, 586918, Note_on_c, 0, 74, 65
1, 586930, Note_off_c, 0, 71, 53
1, 586936, Note_on_c, 0, 60, 41
1, 586965, Note_off_c, 0, 60, 48
1, 586978, Note_on_c, 0, 72, 63
1, 586984, Note_off_c, 0, 74, 61
1, 587008, Note_off_c, 0, 72, 61
1, 587025, Note_on_c, 0, 76, 69
1, 587049, Note_off_c, 0, 76, 69
1, 587087, Note_on_c, 0, 74, 82
1, 587142, Note_off_c, 0, 74, 60
1, 587147, Note_on_c, 0, 77, 79
1, 587154, Note_on_c, 0, 55, 58
1, 587185, Note_off_c, 0, 64, 62
1, 587195, Note_off_c, 0, 55, 60
1, 587210, Note_on_c, 0, 76, 73
1, 587220, Note_off_c, 0, 77, 60
1, 587245, Control_c, 0, 67, 109
1, 587253, Note_off_c, 0, 76, 55
1, 587260, Control_c, 0, 67, 89
1, 587266, Note_on_c, 0, 79, 65
1, 587274, Control_c, 0, 67, 73
1, 587289, Control_c, 0, 67, 57
1, 587290, Note_off_c, 0, 79, 69
1, 587304, Control_c, 0, 67, 39
1, 587319, Control_c, 0, 67, 0
1, 587325, Note_on_c, 0, 77, 70
1, 587394, Note_off_c, 0, 77, 60
1, 587400, Note_on_c, 0, 59, 43
1, 587401, Note_on_c, 0, 81, 64
1, 587413, Note_on_c, 0, 65, 29
1, 587425, Note_off_c, 0, 81, 65
1, 587429, Note_off_c, 0, 59, 55
1, 587482, Note_off_c, 0, 65, 0
1, 587482, Note_on_c, 0, 65, 3
1, 587530, Note_on_c, 0, 79, 65
1, 587549, Note_off_c, 0, 79, 66
1, 587557, Control_c, 0, 67, 43
1, 587572, Control_c, 0, 67, 63
1, 587587, Control_c, 0, 67, 86
1, 587602, Control_c, 0, 67, 113
1, 587623, Control_c, 0, 67, 127
1, 587695, Note_on_c, 0, 79, 58
1, 587728, Note_on_c, 0, 55, 32
1, 587808, Note_off_c, 0, 55, 58
1, 587972, Note_on_c, 0, 59, 39
1, 588023, Note_off_c, 0, 59, 48
1, 588097, Note_on_c, 0, 78, 56
1, 588127, Control_c, 0, 64, 30
1, 588142, Control_c, 0, 64, 36
1, 588157, Control_c, 0, 64, 42
1, 588172, Control_c, 0, 64, 47
1, 588187, Control_c, 0, 64, 52
1, 588202, Control_c, 0, 64, 54
1, 588213, Note_on_c, 0, 55, 38
1, 588217, Control_c, 0, 64, 55
1, 588232, Control_c, 0, 64, 56
1, 588235, Note_on_c, 0, 77, 60
1, 588242, Note_off_c, 0, 65, 49
1, 588245, Note_off_c, 0, 55, 59
1, 588267, Note_off_c, 0, 79, 38
1, 588276, Control_c, 0, 64, 55
1, 588291, Control_c, 0, 64, 54
1, 588300, Note_off_c, 0, 78, 36
1, 588304, Note_off_c, 0, 77, 61
1, 588306, Control_c, 0, 64, 52
1, 588321, Control_c, 0, 64, 51
1, 588336, Control_c, 0, 64, 49
1, 588351, Control_c, 0, 64, 48
1, 588371, Note_on_c, 0, 74, 62
1, 588372, Control_c, 0, 64, 45
1, 588387, Control_c, 0, 64, 41
1, 588402, Control_c, 0, 64, 31
1, 588417, Control_c, 0, 64, 0
1, 588460, Note_off_c, 0, 74, 55
1, 588497, Note_on_c, 0, 64, 46
1, 588506, Note_on_c, 0, 60, 43
1, 588520, Note_on_c, 0, 71, 51
1, 588552, Note_off_c, 0, 60, 64
1, 588563, Note_off_c, 0, 64, 61
1, 588595, Control_c, 0, 64, 29
1, 588610, Control_c, 0, 64, 43
1, 588610, Control_c, 0, 67, 103
1, 588625, Control_c, 0, 64, 55
1, 588625, Control_c, 0, 67, 72
1, 588639, Control_c, 0, 64, 61
1, 588639, Control_c, 0, 67, 41
1, 588652, Note_on_c, 0, 72, 60
1, 588654, Control_c, 0, 64, 64
1, 588654, Control_c, 0, 67, 0
1, 588658, Note_off_c, 0, 71, 61
1, 588669, Control_c, 0, 64, 65
1, 588683, Control_c, 0, 64, 67
1, 588686, Note_off_c, 0, 72, 62
1, 588698, Control_c, 0, 64, 70
1, 588713, Control_c, 0, 64, 73
1, 588728, Control_c, 0, 64, 75
1, 588743, Control_c, 0, 64, 77
1, 588757, Control_c, 0, 64, 78
1, 588765, Note_on_c, 0, 48, 70
1, 588772, Control_c, 0, 64, 78
1, 588787, Control_c, 0, 64, 79
1, 588821, Note_off_c, 0, 48, 47
1, 588861, Control_c, 0, 64, 78
1, 588890, Control_c, 0, 64, 78
1, 588905, Control_c, 0, 64, 75
1, 588917, Note_on_c, 0, 72, 53
1, 588920, Control_c, 0, 64, 71
1, 588935, Control_c, 0, 64, 65
1, 588950, Control_c, 0, 64, 55
1, 588952, Note_off_c, 0, 72, 54
1, 588965, Control_c, 0, 64, 42
1, 588972, Note_on_c, 0, 71, 54
1, 588980, Control_c, 0, 64, 0
1, 589015, Note_on_c, 0, 74, 72
1, 589017, Note_off_c, 0, 71, 57
1, 589071, Note_on_c, 0, 72, 69
1, 589078, Note_off_c, 0, 74, 62
1, 589123, Note_off_c, 0, 72, 61
1, 589135, Note_on_c, 0, 76, 74
1, 589161, Note_off_c, 0, 76, 63
1, 589193, Note_on_c, 0, 74, 80
1, 589257, Note_on_c, 0, 77, 75
1, 589268, Note_off_c, 0, 74, 56
1, 589303, Note_on_c, 0, 76, 73
1, 589321, Note_off_c, 0, 77, 60
1, 589358, Note_on_c, 0, 79, 75
1, 589361, Note_off_c, 0, 76, 64
1, 589394, Note_off_c, 0, 79, 66
1, 589427, Note_on_c, 0, 77, 80
1, 589491, Note_on_c, 0, 81, 75
1, 589507, Note_off_c, 0, 77, 55
1, 589515, Note_on_c, 0, 83, 40
1, 589546, Note_off_c, 0, 83, 33
1, 589619, Note_on_c, 0, 79, 72
1, 589654, Control_c, 0, 64, 32
1, 589669, Control_c, 0, 64, 44
1, 589683, Note_off_c, 0, 81, 62
1, 589684, Control_c, 0, 64, 55
1, 589692, Note_off_c, 0, 79, 65
1, 589699, Control_c, 0, 64, 61
1, 589713, Control_c, 0, 64, 63
1, 589728, Control_c, 0, 64, 64
1, 589747, Note_on_c, 0, 64, 81
1, 589758, Control_c, 0, 64, 65
1, 589761, Note_on_c, 0, 60, 71
1, 589773, Control_c, 0, 64, 66
1, 589789, Control_c, 0, 64, 67
1, 589803, Control_c, 0, 64, 68
1, 589830, Note_off_c, 0, 64, 66
1, 589832, Note_off_c, 0, 60, 64
1, 589848, Control_c, 0, 64, 67
1, 589871, Control_c, 0, 64, 63
1, 589885, Control_c, 0, 64, 54
1, 589893, Note_on_c, 0, 76, 66
1, 589900, Control_c, 0, 64, 37
1, 589915, Control_c, 0, 64, 0
1, 589927, Note_off_c, 0, 76, 61
1, 589947, Note_on_c, 0, 74, 71
1, 589990, Note_on_c, 0, 77, 77
1, 589999, Note_off_c, 0, 74, 58
1, 590049, Note_on_c, 0, 76, 78
1, 590059, Note_off_c, 0, 77, 62
1, 590096, Note_on_c, 0, 79, 75
1, 590101, Note_off_c, 0, 76, 65
1, 590130, Note_off_c, 0, 79, 61
1, 590155, Note_on_c, 0, 77, 84
1, 590220, Note_on_c, 0, 81, 86
1, 590244, Note_off_c, 0, 77, 60
1, 590257, Note_on_c, 0, 79, 80
1, 590292, Note_off_c, 0, 81, 60
1, 590326, Note_on_c, 0, 82, 84
1, 590336, Note_off_c, 0, 79, 65
1, 590367, Note_off_c, 0, 82, 67
1, 590389, Note_on_c, 0, 81, 89
1, 590452, Note_on_c, 0, 84, 90
1, 590496, Note_off_c, 0, 81, 62
1, 590594, Note_on_c, 0, 82, 90
1, 590654, Note_off_c, 0, 84, 65
1, 590674, Note_off_c, 0, 82, 63
1, 590693, Control_c, 0, 64, 29
1, 590708, Control_c, 0, 64, 50
1, 590723, Control_c, 0, 64, 63
1, 590736, Note_on_c, 0, 67, 94
1, 590738, Control_c, 0, 64, 71
1, 590744, Note_on_c, 0, 64, 86
1, 590745, Note_on_c, 0, 60, 78
1, 590753, Control_c, 0, 64, 79
1, 590767, Control_c, 0, 64, 91
1, 590782, Control_c, 0, 64, 105
1, 590789, Note_off_c, 0, 64, 66
1, 590795, Note_off_c, 0, 60, 64
1, 590797, Control_c, 0, 64, 115
1, 590798, Note_off_c, 0, 67, 65
1, 590812, Control_c, 0, 64, 127
1, 590878, Note_on_c, 0, 79, 78
1, 590885, Control_c, 0, 64, 113
1, 590900, Control_c, 0, 64, 96
1, 590915, Control_c, 0, 64, 80
1, 590930, Control_c, 0, 64, 66
1, 590932, Note_off_c, 0, 79, 64
1, 590941, Note_on_c, 0, 78, 68
1, 590945, Control_c, 0, 64, 49
1, 590959, Control_c, 0, 64, 30
1, 590974, Control_c, 0, 64, 0
1, 590988, Note_on_c, 0, 81, 78
1, 591018, Note_off_c, 0, 81, 64
1, 591024, Note_off_c, 0, 78, 60
1, 591051, Note_on_c, 0, 79, 78
1, 591098, Note_off_c, 0, 79, 58
1, 591109, Note_on_c, 0, 82, 80
1, 591162, Note_off_c, 0, 82, 61
1, 591170, Note_on_c, 0, 81, 83
1, 591228, Note_on_c, 0, 84, 88
1, 591245, Note_off_c, 0, 81, 63
1, 591283, Note_on_c, 0, 82, 88
1, 591309, Note_off_c, 0, 84, 65
1, 591340, Note_on_c, 0, 86, 86
1, 591378, Note_off_c, 0, 82, 64
1, 591402, Note_off_c, 0, 86, 61
1, 591426, Note_on_c, 0, 84, 84
1, 591542, Note_on_c, 0, 87, 74
1, 591604, Note_off_c, 0, 84, 58
1, 591635, Control_c, 0, 64, 41
1, 591650, Control_c, 0, 64, 55
1, 591664, Control_c, 0, 64, 64
1, 591679, Control_c, 0, 64, 67
1, 591694, Control_c, 0, 64, 71
1, 591698, Note_on_c, 0, 86, 87
1, 591708, Control_c, 0, 64, 76
1, 591723, Control_c, 0, 64, 82
1, 591736, Note_off_c, 0, 87, 56
1, 591738, Control_c, 0, 64, 87
1, 591743, Note_off_c, 0, 86, 63
1, 591753, Control_c, 0, 64, 93
1, 591768, Control_c, 0, 64, 99
1, 591782, Control_c, 0, 64, 107
1, 591797, Control_c, 0, 64, 127
1, 591829, Note_on_c, 0, 85, 89
1, 591877, Note_off_c, 0, 85, 63
1, 591961, Note_on_c, 0, 84, 88
1, 592005, Control_c, 0, 64, 113
1, 592017, Note_off_c, 0, 84, 66
1, 592020, Control_c, 0, 64, 92
1, 592034, Control_c, 0, 64, 78
1, 592049, Control_c, 0, 64, 67
1, 592064, Control_c, 0, 64, 58
1, 592079, Control_c, 0, 64, 56
1, 592087, Note_on_c, 0, 83, 89
1, 592094, Control_c, 0, 64, 57
1, 592115, Control_c, 0, 64, 60
1, 592130, Control_c, 0, 64, 65
1, 592145, Control_c, 0, 64, 71
1, 592146, Note_off_c, 0, 83, 62
1, 592160, Control_c, 0, 64, 79
1, 592175, Control_c, 0, 64, 83
1, 592191, Control_c, 0, 64, 84
1, 592205, Control_c, 0, 64, 85
1, 592218, Note_on_c, 0, 82, 92
1, 592220, Control_c, 0, 64, 86
1, 592235, Control_c, 0, 64, 89
1, 592250, Control_c, 0, 64, 94
1, 592264, Control_c, 0, 64, 101
1, 592279, Control_c, 0, 64, 127
1, 592288, Note_off_c, 0, 82, 61
1, 592355, Note_on_c, 0, 81, 86
1, 592422, Note_off_c, 0, 81, 61
1, 592469, Note_on_c, 0, 80, 85
1, 592513, Note_off_c, 0, 80, 61
1, 592525, Note_on_c, 0, 68, 9
1, 592572, Note_off_c, 0, 68, 51
1, 592607, Note_on_c, 0, 79, 81
1, 592616, Note_on_c, 0, 70, 84
1, 592627, Note_on_c, 0, 60, 64
1, 592630, Note_on_c, 0, 64, 71
1, 592633, Note_on_c, 0, 67, 69
1, 592635, Control_c, 0, 64, 94
1, 592649, Control_c, 0, 64, 74
1, 592653, Note_off_c, 0, 79, 67
1, 592664, Control_c, 0, 64, 60
1, 592679, Control_c, 0, 64, 37
1, 592694, Control_c, 0, 64, 0
1, 592769, Note_on_c, 0, 81, 70
1, 592812, Note_on_c, 0, 79, 74
1, 592837, Note_off_c, 0, 81, 63
1, 592864, Note_on_c, 0, 78, 90
1, 592872, Note_off_c, 0, 79, 65
1, 592912, Note_off_c, 0, 78, 63
1, 592922, Note_on_c, 0, 79, 73
1, 592948, Note_off_c, 0, 79, 66
1, 593066, Note_on_c, 0, 81, 76
1, 593086, Note_off_c, 0, 81, 72
1, 593118, Control_c, 0, 67, 46
1, 593133, Control_c, 0, 67, 64
1, 593148, Control_c, 0, 67, 85
1, 593162, Control_c, 0, 67, 104
1, 593177, Control_c, 0, 67, 125
1, 593192, Control_c, 0, 67, 127
1, 593246, Note_on_c, 0, 84, 71
1, 593403, Note_on_c, 0, 82, 65
1, 593473, Control_c, 0, 64, 30
1, 593488, Control_c, 0, 64, 39
1, 593503, Control_c, 0, 64, 48
1, 593518, Control_c, 0, 64, 56
1, 593533, Control_c, 0, 64, 61
1, 593547, Control_c, 0, 64, 63
1, 593553, Note_on_c, 0, 79, 64
1, 593562, Control_c, 0, 64, 66
1, 593577, Control_c, 0, 64, 67
1, 593590, Note_off_c, 0, 84, 58
1, 593592, Control_c, 0, 64, 69
1, 593597, Note_off_c, 0, 60, 57
1, 593609, Note_off_c, 0, 82, 55
1, 593614, Control_c, 0, 64, 70
1, 593615, Note_off_c, 0, 67, 38
1, 593618, Note_off_c, 0, 64, 61
1, 593629, Control_c, 0, 64, 72
1, 593639, Note_off_c, 0, 79, 62
1, 593644, Control_c, 0, 64, 73
1, 593659, Control_c, 0, 64, 75
1, 593669, Note_off_c, 0, 70, 60
1, 593674, Control_c, 0, 64, 78
1, 593686, Note_on_c, 0, 76, 67
1, 593688, Control_c, 0, 64, 81
1, 593703, Control_c, 0, 64, 84
1, 593718, Control_c, 0, 64, 87
1, 593733, Control_c, 0, 64, 90
1, 593748, Control_c, 0, 64, 92
1, 593762, Control_c, 0, 64, 94
1, 593777, Control_c, 0, 64, 94
1, 593867, Control_c, 0, 64, 94
1, 593882, Control_c, 0, 64, 91
1, 593892, Note_on_c, 0, 77, 68
1, 593897, Control_c, 0, 64, 82
1, 593906, Note_on_c, 0, 69, 47
1, 593910, Note_off_c, 0, 76, 62
1, 593911, Control_c, 0, 64, 70
1, 593926, Control_c, 0, 64, 57
1, 593941, Control_c, 0, 64, 40
1, 593956, Control_c, 0, 64, 0
1, 594119, Control_c, 0, 64, 41
1, 594134, Control_c, 0, 64, 54
1, 594148, Control_c, 0, 64, 63
1, 594163, Control_c, 0, 64, 67
1, 594172, Note_on_c, 0, 72, 42
1, 594178, Control_c, 0, 64, 70
1, 594193, Control_c, 0, 64, 73
1, 594208, Control_c, 0, 64, 74
1, 594213, Note_off_c, 0, 69, 56
1, 594216, Note_off_c, 0, 77, 60
1, 594222, Control_c, 0, 64, 75
1, 594237, Control_c, 0, 64, 76
1, 594315, Note_on_c, 0, 79, 38
1, 594344, Note_on_c, 0, 77, 65
1, 594356, Note_off_c, 0, 79, 62
1, 594363, Control_c, 0, 64, 75
1, 594378, Control_c, 0, 64, 74
1, 594382, Note_off_c, 0, 77, 65
1, 594392, Control_c, 0, 64, 71
1, 594398, Note_on_c, 0, 76, 68
1, 594407, Control_c, 0, 64, 68
1, 594422, Control_c, 0, 64, 62
1, 594435, Note_on_c, 0, 77, 61
1, 594436, Control_c, 0, 64, 57
1, 594441, Note_off_c, 0, 76, 58
1, 594451, Control_c, 0, 64, 52
1, 594466, Control_c, 0, 64, 46
1, 594481, Control_c, 0, 64, 39
1, 594482, Note_off_c, 0, 72, 41
1, 594496, Note_on_c, 0, 81, 61
1, 594496, Control_c, 0, 64, 0
1, 594509, Note_on_c, 0, 65, 32
1, 594510, Note_off_c, 0, 77, 58
1, 594719, Control_c, 0, 64, 35
1, 594733, Control_c, 0, 64, 45
1, 594748, Control_c, 0, 64, 54
1, 594763, Control_c, 0, 64, 61
1, 594773, Note_on_c, 0, 72, 37
1, 594778, Control_c, 0, 64, 64
1, 594793, Control_c, 0, 64, 66
1, 594807, Control_c, 0, 64, 69
1, 594822, Control_c, 0, 64, 72
1, 594837, Control_c, 0, 64, 75
1, 594852, Control_c, 0, 64, 77
1, 594864, Note_off_c, 0, 65, 41
1, 594867, Control_c, 0, 64, 79
1, 594882, Control_c, 0, 64, 81
1, 594897, Control_c, 0, 64, 82
1, 594912, Control_c, 0, 64, 85
1, 594920, Note_off_c, 0, 81, 63
1, 594926, Control_c, 0, 64, 86
1, 594941, Control_c, 0, 64, 87
1, 594956, Control_c, 0, 64, 88
1, 594971, Control_c, 0, 64, 88
1, 595015, Control_c, 0, 64, 88
1, 595045, Control_c, 0, 64, 85
1, 595059, Control_c, 0, 64, 79
1, 595062, Note_on_c, 0, 81, 62
1, 595074, Control_c, 0, 64, 69
1, 595082, Note_on_c, 0, 70, 42
1, 595089, Control_c, 0, 64, 58
1, 595111, Control_c, 0, 64, 45
1, 595126, Control_c, 0, 64, 37
1, 595141, Note_off_c, 0, 72, 41
1, 595141, Control_c, 0, 64, 38
1, 595156, Control_c, 0, 64, 43
1, 595171, Control_c, 0, 64, 49
1, 595186, Control_c, 0, 64, 57
1, 595200, Control_c, 0, 64, 63
1, 595215, Control_c, 0, 64, 68
1, 595222, Note_on_c, 0, 79, 63
1, 595230, Control_c, 0, 64, 73
1, 595245, Control_c, 0, 64, 77
1, 595258, Note_on_c, 0, 83, 21
1, 595259, Control_c, 0, 64, 78
1, 595274, Control_c, 0, 64, 79
1, 595278, Note_off_c, 0, 81, 63
1, 595285, Note_off_c, 0, 79, 63
1, 595299, Note_off_c, 0, 83, 53
1, 595333, Control_c, 0, 64, 79
1, 595348, Control_c, 0, 64, 78
1, 595359, Note_on_c, 0, 79, 73
1, 595363, Control_c, 0, 64, 77
1, 595376, Note_on_c, 0, 72, 50
1, 595468, Control_c, 0, 64, 78
1, 595478, Note_on_c, 0, 76, 70
1, 595482, Note_off_c, 0, 70, 37
1, 595482, Control_c, 0, 64, 78
1, 595517, Note_off_c, 0, 79, 65
1, 595522, Note_off_c, 0, 76, 60
1, 595527, Control_c, 0, 64, 79
1, 595556, Control_c, 0, 64, 78
1, 595586, Control_c, 0, 64, 78
1, 595601, Control_c, 0, 64, 76
1, 595616, Control_c, 0, 64, 72
1, 595630, Control_c, 0, 64, 64
1, 595645, Control_c, 0, 64, 54
1, 595648, Note_on_c, 0, 77, 63
1, 595660, Control_c, 0, 64, 43
1, 595664, Note_on_c, 0, 69, 44
1, 595675, Control_c, 0, 64, 32
1, 595690, Control_c, 0, 64, 0
1, 595700, Note_off_c, 0, 72, 38
1, 595954, Note_on_c, 0, 72, 31
1, 595994, Control_c, 0, 64, 37
1, 596008, Control_c, 0, 64, 48
1, 596023, Control_c, 0, 64, 58
1, 596038, Control_c, 0, 64, 63
1, 596053, Control_c, 0, 64, 66
1, 596061, Note_off_c, 0, 69, 34
1, 596068, Control_c, 0, 64, 67
1, 596082, Control_c, 0, 64, 68
1, 596086, Note_off_c, 0, 77, 59
1, 596097, Control_c, 0, 64, 69
1, 596108, Note_on_c, 0, 81, 45
1, 596112, Control_c, 0, 64, 70
1, 596127, Control_c, 0, 64, 70
1, 596142, Control_c, 0, 64, 71
1, 596246, Control_c, 0, 64, 70
1, 596253, Note_on_c, 0, 78, 52
1, 596261, Note_on_c, 0, 70, 35
1, 596261, Control_c, 0, 64, 68
1, 596276, Note_off_c, 0, 81, 54
1, 596276, Control_c, 0, 64, 66
1, 596291, Control_c, 0, 64, 63
1, 596305, Control_c, 0, 64, 57
1, 596320, Control_c, 0, 64, 51
1, 596328, Note_off_c, 0, 72, 37
1, 596335, Control_c, 0, 64, 46
1, 596350, Control_c, 0, 64, 43
1, 596365, Control_c, 0, 64, 41
1, 596379, Control_c, 0, 64, 40
1, 596394, Note_on_c, 0, 79, 51
1, 596394, Control_c, 0, 64, 39
1, 596409, Control_c, 0, 64, 38
1, 596423, Control_c, 0, 64, 38
1, 596438, Control_c, 0, 64, 37
1, 596453, Control_c, 0, 64, 37
1, 596468, Control_c, 0, 64, 35
1, 596483, Control_c, 0, 64, 32
1, 596497, Control_c, 0, 64, 30
1, 596523, Note_on_c, 0, 82, 55
1, 596523, Note_off_c, 0, 79, 57
1, 596539, Note_on_c, 0, 72, 40
1, 596542, Note_off_c, 0, 78, 34
1, 596557, Control_c, 0, 64, 0
1, 596674, Note_on_c, 0, 76, 60
1, 596683, Note_off_c, 0, 82, 39
1, 596815, Note_on_c, 0, 79, 50
1, 596820, Note_off_c, 0, 76, 33
1, 596822, Note_on_c, 0, 69, 35
1, 596843, Note_off_c, 0, 70, 19
1, 596869, Note_off_c, 0, 72, 35
1, 596957, Note_on_c, 0, 77, 54
1, 596990, Note_off_c, 0, 79, 38
1, 597040, Control_c, 0, 64, 36
1, 597055, Control_c, 0, 64, 48
1, 597070, Control_c, 0, 64, 60
1, 597085, Control_c, 0, 64, 64
1, 597100, Note_on_c, 0, 72, 40
1, 597100, Control_c, 0, 64, 66
1, 597114, Control_c, 0, 64, 68
1, 597129, Control_c, 0, 64, 69
1, 597131, Note_off_c, 0, 69, 60
1, 597144, Control_c, 0, 64, 71
1, 597152, Note_off_c, 0, 72, 57
1, 597159, Control_c, 0, 64, 73
1, 597174, Control_c, 0, 64, 75
1, 597189, Control_c, 0, 64, 77
1, 597203, Control_c, 0, 64, 77
1, 597203, Control_c, 0, 67, 120
1, 597218, Control_c, 0, 64, 78
1, 597218, Control_c, 0, 67, 117
1, 597237, Note_off_c, 0, 77, 60
1, 597261, Note_on_c, 0, 81, 18
1, 597277, Control_c, 0, 67, 119
1, 597302, Note_off_c, 0, 81, 45
1, 597321, Control_c, 0, 64, 77
1, 597336, Control_c, 0, 64, 75
1, 597359, Control_c, 0, 64, 70
1, 597374, Control_c, 0, 64, 63
1, 597382, Note_on_c, 0, 72, 48
1, 597387, Control_c, 0, 64, 56
1, 597391, Note_on_c, 0, 84, 56
1, 597401, Control_c, 0, 64, 49
1, 597406, Note_on_c, 0, 67, 36
1, 597416, Control_c, 0, 64, 45
1, 597431, Control_c, 0, 64, 44
1, 597445, Control_c, 0, 64, 44
1, 597460, Control_c, 0, 64, 45
1, 597475, Control_c, 0, 64, 49
1, 597475, Control_c, 0, 67, 117
1, 597490, Control_c, 0, 64, 55
1, 597496, Note_off_c, 0, 67, 51
1, 597505, Control_c, 0, 64, 61
1, 597505, Control_c, 0, 67, 114
1, 597520, Note_on_c, 0, 83, 65
1, 597520, Control_c, 0, 64, 65
1, 597535, Control_c, 0, 64, 68
1, 597535, Control_c, 0, 67, 112
1, 597550, Control_c, 0, 64, 70
1, 597565, Control_c, 0, 64, 72
1, 597579, Control_c, 0, 64, 73
1, 597579, Control_c, 0, 67, 109
1, 597594, Control_c, 0, 64, 74
1, 597594, Control_c, 0, 67, 97
1, 597609, Control_c, 0, 67, 86
1, 597624, Control_c, 0, 64, 75
1, 597624, Control_c, 0, 67, 78
1, 597639, Control_c, 0, 67, 73
1, 597653, Note_on_c, 0, 82, 68
1, 597653, Control_c, 0, 67, 67
1, 597668, Control_c, 0, 64, 74
1, 597668, Control_c, 0, 67, 63
1, 597683, Note_on_c, 0, 64, 44
1, 597683, Control_c, 0, 64, 73
1, 597683, Control_c, 0, 67, 58
1, 597698, Control_c, 0, 64, 71
1, 597698, Control_c, 0, 67, 50
1, 597713, Control_c, 0, 64, 70
1, 597713, Control_c, 0, 67, 41
1, 597727, Control_c, 0, 64, 69
1, 597727, Control_c, 0, 67, 0
1, 597730, Note_off_c, 0, 83, 54
1, 597750, Note_off_c, 0, 84, 47
1, 597773, Control_c, 0, 64, 69
1, 597778, Note_off_c, 0, 64, 59
1, 597787, Note_off_c, 0, 82, 64
1, 597788, Control_c, 0, 64, 70
1, 597796, Note_on_c, 0, 79, 66
1, 597803, Control_c, 0, 64, 71
1, 597817, Control_c, 0, 64, 72
1, 597862, Control_c, 0, 64, 71
1, 597876, Control_c, 0, 64, 68
1, 597891, Control_c, 0, 64, 63
1, 597906, Control_c, 0, 64, 55
1, 597921, Control_c, 0, 64, 45
1, 597930, Note_on_c, 0, 82, 70
1, 597936, Control_c, 0, 64, 30
1, 597950, Control_c, 0, 64, 0
1, 597956, Note_on_c, 0, 65, 37
1, 597988, Note_off_c, 0, 79, 61
1, 598014, Note_off_c, 0, 65, 59
1, 598024, Control_c, 0, 64, 42
1, 598039, Control_c, 0, 64, 56
1, 598054, Control_c, 0, 64, 64
1, 598066, Note_on_c, 0, 80, 75
1, 598068, Control_c, 0, 64, 70
1, 598083, Control_c, 0, 64, 73
1, 598106, Control_c, 0, 64, 74
1, 598114, Note_off_c, 0, 82, 62
1, 598165, Control_c, 0, 64, 71
1, 598180, Control_c, 0, 64, 65
1, 598194, Control_c, 0, 64, 52
1, 598205, Note_on_c, 0, 81, 78
1, 598209, Control_c, 0, 64, 42
1, 598219, Note_on_c, 0, 69, 55
1, 598224, Control_c, 0, 64, 38
1, 598226, Note_off_c, 0, 72, 36
1, 598239, Control_c, 0, 64, 40
1, 598244, Note_off_c, 0, 80, 59
1, 598254, Control_c, 0, 64, 45
1, 598268, Control_c, 0, 64, 54
1, 598269, Note_off_c, 0, 69, 54
1, 598283, Control_c, 0, 64, 62
1, 598298, Control_c, 0, 64, 69
1, 598313, Note_off_c, 0, 81, 63
1, 598313, Control_c, 0, 64, 74
1, 598328, Control_c, 0, 64, 79
1, 598340, Note_on_c, 0, 77, 80
1, 598343, Control_c, 0, 64, 81
1, 598357, Control_c, 0, 64, 83
1, 598372, Control_c, 0, 64, 85
1, 598387, Control_c, 0, 64, 85
1, 598402, Control_c, 0, 64, 86
1, 598412, Note_off_c, 0, 77, 63
1, 598432, Control_c, 0, 64, 85
1, 598462, Control_c, 0, 64, 84
1, 598470, Note_on_c, 0, 74, 82
1, 598476, Control_c, 0, 64, 82
1, 598483, Note_on_c, 0, 70, 61
1, 598491, Control_c, 0, 64, 77
1, 598506, Control_c, 0, 64, 72
1, 598521, Control_c, 0, 64, 65
1, 598536, Control_c, 0, 64, 58
1, 598550, Control_c, 0, 64, 51
1, 598565, Control_c, 0, 64, 45
1, 598567, Note_off_c, 0, 74, 61
1, 598581, Control_c, 0, 64, 38
1, 598596, Control_c, 0, 64, 32
1, 598607, Note_on_c, 0, 76, 62
1, 598611, Control_c, 0, 64, 0
1, 598659, Note_on_c, 0, 74, 71
1, 598667, Note_off_c, 0, 76, 64
1, 598697, Note_on_c, 0, 73, 79
1, 598697, Note_off_c, 0, 74, 63
1, 598717, Note_off_c, 0, 70, 57
1, 598752, Note_on_c, 0, 58, 42
1, 598753, Note_on_c, 0, 74, 72
1, 598754, Note_off_c, 0, 73, 62
1, 598817, Control_c, 0, 64, 37
1, 598832, Control_c, 0, 64, 44
1, 598855, Control_c, 0, 64, 47
1, 598870, Control_c, 0, 64, 47
1, 598882, Note_on_c, 0, 76, 82
1, 598899, Control_c, 0, 64, 46
1, 598912, Note_off_c, 0, 74, 49
1, 598914, Control_c, 0, 64, 45
1, 598929, Control_c, 0, 64, 44
1, 598932, Note_off_c, 0, 58, 61
1, 598944, Control_c, 0, 64, 41
1, 598959, Control_c, 0, 64, 37
1, 598973, Control_c, 0, 64, 33
1, 598988, Control_c, 0, 64, 31
1, 599015, Note_on_c, 0, 77, 76
1, 599017, Control_c, 0, 64, 0
1, 599027, Note_on_c, 0, 62, 54
1, 599057, Note_off_c, 0, 62, 64
1, 599076, Note_off_c, 0, 76, 52
1, 599157, Note_on_c, 0, 78, 71
1, 599285, Note_off_c, 0, 78, 48
1, 599287, Note_off_c, 0, 77, 57
1, 599293, Note_on_c, 0, 65, 54
1, 599302, Note_on_c, 0, 81, 58
1, 599319, Note_on_c, 0, 59, 40
1, 599329, Control_c, 0, 67, 50
1, 599344, Control_c, 0, 67, 75
1, 599359, Control_c, 0, 67, 97
1, 599374, Control_c, 0, 67, 115
1, 599389, Control_c, 0, 67, 127
1, 599404, Control_c, 0, 64, 36
1, 599419, Control_c, 0, 64, 53
1, 599434, Note_on_c, 0, 79, 67
1, 599434, Control_c, 0, 64, 62
1, 599448, Control_c, 0, 64, 66
1, 599460, Note_off_c, 0, 79, 66
1, 599463, Control_c, 0, 64, 67
1, 599463, Note_off_c, 0, 81, 62
1, 599478, Control_c, 0, 64, 67
1, 599552, Control_c, 0, 64, 66
1, 599567, Control_c, 0, 64, 64
1, 599582, Control_c, 0, 64, 61
1, 599595, Note_on_c, 0, 72, 63
1, 599603, Control_c, 0, 64, 54
1, 599604, Note_on_c, 0, 60, 46
1, 599618, Control_c, 0, 64, 43
1, 599627, Note_off_c, 0, 59, 53
1, 599634, Control_c, 0, 64, 0
1, 599882, Note_off_c, 0, 65, 57
1, 599884, Note_on_c, 0, 64, 50
1, 600060, Note_off_c, 0, 64, 59
1, 600095, Note_on_c, 0, 62, 54
1, 600150, Note_off_c, 0, 62, 59
1, 600180, Note_on_c, 0, 64, 55
1, 600320, Note_on_c, 0, 74, 63
1, 600327, Note_off_c, 0, 72, 60
1, 600364, Note_off_c, 0, 74, 61
1, 600387, Note_on_c, 0, 73, 67
1, 600436, Note_off_c, 0, 73, 57
1, 600459, Note_on_c, 0, 76, 62
1, 600477, Note_off_c, 0, 76, 65
1, 600480, Note_off_c, 0, 64, 59
1, 600483, Note_off_c, 0, 60, 62
1, 600524, Note_on_c, 0, 74, 73
1, 600578, Note_on_c, 0, 77, 69
1, 600584, Note_off_c, 0, 74, 56
1, 600633, Note_on_c, 0, 76, 75
1, 600633, Note_off_c, 0, 77, 62
1, 600678, Note_off_c, 0, 76, 53
1, 600733, Note_on_c, 0, 79, 57
1, 600765, Note_on_c, 0, 69, 43
1, 600890, Note_on_c, 0, 77, 56
1, 600930, Control_c, 0, 64, 40
1, 600945, Control_c, 0, 64, 55
1, 600960, Control_c, 0, 64, 63
1, 600967, Note_off_c, 0, 79, 59
1, 600975, Control_c, 0, 64, 66
1, 600987, Note_off_c, 0, 77, 65
1, 600990, Control_c, 0, 64, 68
1, 601005, Note_on_c, 0, 72, 52
1, 601005, Control_c, 0, 64, 69
1, 601019, Control_c, 0, 64, 71
1, 601034, Control_c, 0, 64, 72
1, 601049, Note_off_c, 0, 69, 52
1, 601049, Control_c, 0, 64, 74
1, 601064, Control_c, 0, 64, 74
1, 601137, Note_on_c, 0, 79, 58
1, 601161, Control_c, 0, 64, 74
1, 601171, Note_off_c, 0, 79, 65
1, 601175, Control_c, 0, 64, 73
1, 601186, Note_on_c, 0, 77, 58
1, 601190, Control_c, 0, 64, 71
1, 601205, Control_c, 0, 64, 68
1, 601207, Note_off_c, 0, 77, 61
1, 601219, Control_c, 0, 64, 65
1, 601228, Note_on_c, 0, 76, 69
1, 601234, Control_c, 0, 64, 59
1, 601249, Control_c, 0, 64, 50
1, 601255, Note_off_c, 0, 72, 32
1, 601256, Note_off_c, 0, 76, 64
1, 601264, Control_c, 0, 64, 40
1, 601268, Note_on_c, 0, 77, 70
1, 601279, Control_c, 0, 64, 0
1, 601317, Note_on_c, 0, 65, 36
1, 601335, Note_off_c, 0, 77, 57
1, 601339, Note_on_c, 0, 81, 61
1, 601531, Control_c, 0, 64, 42
1, 601546, Control_c, 0, 64, 55
1, 601561, Control_c, 0, 64, 64
1, 601575, Control_c, 0, 64, 66
1, 601590, Control_c, 0, 64, 68
1, 601602, Note_on_c, 0, 72, 36
1, 601605, Note_off_c, 0, 81, 65
1, 601605, Control_c, 0, 64, 69
1, 601619, Control_c, 0, 64, 71
1, 601634, Control_c, 0, 64, 72
1, 601649, Control_c, 0, 64, 73
1, 601657, Note_off_c, 0, 65, 51
1, 601664, Control_c, 0, 64, 74
1, 601813, Control_c, 0, 64, 73
1, 601828, Control_c, 0, 64, 71
1, 601850, Control_c, 0, 64, 67
1, 601865, Control_c, 0, 64, 60
1, 601880, Control_c, 0, 64, 52
1, 601895, Control_c, 0, 64, 42
1, 601897, Note_on_c, 0, 79, 74
1, 601899, Note_on_c, 0, 70, 40
1, 601910, Control_c, 0, 64, 32
1, 601924, Control_c, 0, 64, 0
1, 601947, Note_off_c, 0, 72, 36
1, 602039, Note_off_c, 0, 79, 66
1, 602060, Note_on_c, 0, 82, 30
1, 602076, Note_off_c, 0, 82, 37
1, 602178, Note_on_c, 0, 72, 38
1, 602182, Note_on_c, 0, 76, 61
1, 602309, Note_on_c, 0, 79, 60
1, 602322, Note_off_c, 0, 76, 63
1, 602333, Note_off_c, 0, 79, 69
1, 602456, Note_off_c, 0, 70, 38
1, 602457, Note_on_c, 0, 77, 63
1, 602473, Note_on_c, 0, 69, 34
1, 602500, Note_off_c, 0, 72, 34
1, 602719, Control_c, 0, 64, 32
1, 602733, Control_c, 0, 64, 47
1, 602742, Note_on_c, 0, 72, 52
1, 602748, Control_c, 0, 64, 59
1, 602763, Control_c, 0, 64, 63
1, 602778, Control_c, 0, 64, 65
1, 602778, Control_c, 0, 67, 114
1, 602787, Note_off_c, 0, 69, 61
1, 602792, Control_c, 0, 64, 66
1, 602792, Control_c, 0, 67, 102
1, 602807, Control_c, 0, 64, 67
1, 602807, Control_c, 0, 67, 94
1, 602822, Control_c, 0, 64, 68
1, 602822, Control_c, 0, 67, 92
1, 602837, Control_c, 0, 64, 68
1, 602852, Control_c, 0, 64, 69
1, 602872, Note_off_c, 0, 77, 64
1, 602874, Note_on_c, 0, 81, 65
1, 602881, Control_c, 0, 67, 93
1, 602896, Control_c, 0, 67, 94
1, 602898, Note_off_c, 0, 81, 69
1, 602911, Control_c, 0, 67, 96
1, 602926, Control_c, 0, 67, 99
1, 602940, Control_c, 0, 64, 68
1, 602940, Control_c, 0, 67, 101
1, 602955, Control_c, 0, 64, 66
1, 602970, Control_c, 0, 64, 63
1, 602970, Control_c, 0, 67, 103
1, 602984, Control_c, 0, 64, 58
1, 602999, Control_c, 0, 64, 51
1, 602999, Control_c, 0, 67, 106
1, 603014, Control_c, 0, 64, 44
1, 603019, Note_on_c, 0, 79, 68
1, 603025, Note_on_c, 0, 70, 50
1, 603029, Control_c, 0, 64, 35
1, 603029, Control_c, 0, 67, 108
1, 603031, Note_off_c, 0, 72, 52
1, 603044, Control_c, 0, 64, 0
1, 603088, Note_on_c, 0, 81, 73
1, 603098, Note_off_c, 0, 79, 59
1, 603145, Note_on_c, 0, 82, 76
1, 603163, Control_c, 0, 67, 111
1, 603177, Note_off_c, 0, 81, 60
1, 603210, Note_on_c, 0, 79, 73
1, 603210, Note_off_c, 0, 82, 65
1, 603259, Note_off_c, 0, 79, 62
1, 603279, Note_on_c, 0, 76, 73
1, 603289, Note_on_c, 0, 72, 40
1, 603345, Note_off_c, 0, 76, 62
1, 603353, Note_on_c, 0, 77, 62
1, 603415, Note_on_c, 0, 79, 69
1, 603416, Note_off_c, 0, 77, 64
1, 603456, Note_off_c, 0, 79, 64
1, 603472, Note_on_c, 0, 76, 66
1, 603512, Note_off_c, 0, 70, 43
1, 603553, Note_off_c, 0, 76, 62
1, 603556, Note_on_c, 0, 77, 67
1, 603556, Control_c, 0, 67, 109
1, 603571, Note_on_c, 0, 69, 34
1, 603575, Note_off_c, 0, 72, 40
1, 603586, Control_c, 0, 67, 106
1, 603601, Control_c, 0, 67, 104
1, 603615, Control_c, 0, 67, 102
1, 603630, Control_c, 0, 67, 99
1, 603645, Control_c, 0, 67, 96
1, 603660, Control_c, 0, 67, 93
1, 603675, Control_c, 0, 67, 90
1, 603689, Control_c, 0, 67, 88
1, 603704, Control_c, 0, 67, 86
1, 603719, Control_c, 0, 67, 83
1, 603734, Control_c, 0, 67, 62
1, 603749, Control_c, 0, 64, 39
1, 603749, Control_c, 0, 67, 36
1, 603763, Control_c, 0, 64, 51
1, 603763, Control_c, 0, 67, 0
1, 603778, Control_c, 0, 64, 59
1, 603793, Control_c, 0, 64, 62
1, 603807, Control_c, 0, 64, 64
1, 603822, Control_c, 0, 64, 65
1, 603837, Note_on_c, 0, 72, 39
1, 603837, Control_c, 0, 64, 67
1, 603852, Control_c, 0, 64, 69
1, 603867, Control_c, 0, 64, 72
1, 603881, Control_c, 0, 64, 75
1, 603882, Note_off_c, 0, 69, 57
1, 603896, Control_c, 0, 64, 79
1, 603911, Control_c, 0, 64, 82
1, 603914, Note_off_c, 0, 72, 48
1, 603926, Control_c, 0, 64, 85
1, 603941, Control_c, 0, 64, 89
1, 603956, Control_c, 0, 64, 91
1, 603970, Note_on_c, 0, 81, 59
1, 603970, Control_c, 0, 64, 93
1, 603976, Note_off_c, 0, 77, 61
1, 603985, Control_c, 0, 64, 93
1, 603997, Note_off_c, 0, 81, 66
1, 604000, Control_c, 0, 64, 94
1, 604075, Control_c, 0, 64, 93
1, 604096, Control_c, 0, 64, 92
1, 604111, Control_c, 0, 64, 88
1, 604117, Note_on_c, 0, 84, 65
1, 604124, Note_on_c, 0, 72, 52
1, 604126, Control_c, 0, 64, 81
1, 604140, Control_c, 0, 64, 73
1, 604149, Note_on_c, 0, 67, 37
1, 604155, Control_c, 0, 64, 65
1, 604172, Control_c, 0, 64, 57
1, 604187, Control_c, 0, 64, 50
1, 604201, Control_c, 0, 64, 48
1, 604216, Control_c, 0, 64, 49
1, 604231, Control_c, 0, 64, 51
1, 604245, Control_c, 0, 64, 55
1, 604260, Control_c, 0, 64, 59
1, 604264, Note_on_c, 0, 83, 73
1, 604275, Control_c, 0, 64, 63
1, 604278, Note_off_c, 0, 67, 37
1, 604290, Control_c, 0, 64, 67
1, 604305, Control_c, 0, 64, 70
1, 604319, Control_c, 0, 64, 71
1, 604334, Control_c, 0, 64, 72
1, 604394, Note_on_c, 0, 82, 78
1, 604415, Note_on_c, 0, 64, 50
1, 604437, Note_off_c, 0, 84, 56
1, 604456, Note_off_c, 0, 83, 58
1, 604480, Note_off_c, 0, 64, 64
1, 604498, Control_c, 0, 64, 72
1, 604512, Control_c, 0, 64, 73
1, 604520, Note_on_c, 0, 79, 75
1, 604527, Control_c, 0, 64, 73
1, 604534, Note_off_c, 0, 82, 64
1, 604542, Control_c, 0, 64, 74
1, 604571, Control_c, 0, 64, 74
1, 604616, Control_c, 0, 64, 74
1, 604630, Control_c, 0, 64, 73
1, 604645, Control_c, 0, 64, 70
1, 604656, Note_on_c, 0, 82, 81
1, 604660, Control_c, 0, 64, 63
1, 604675, Control_c, 0, 64, 53
1, 604676, Note_on_c, 0, 65, 51
1, 604690, Control_c, 0, 64, 41
1, 604704, Control_c, 0, 64, 0
1, 604728, Note_off_c, 0, 79, 55
1, 604734, Control_c, 0, 64, 30
1, 604749, Control_c, 0, 64, 39
1, 604763, Control_c, 0, 64, 51
1, 604778, Control_c, 0, 64, 61
1, 604786, Note_on_c, 0, 80, 76
1, 604788, Note_off_c, 0, 72, 38
1, 604793, Control_c, 0, 64, 69
1, 604808, Control_c, 0, 64, 75
1, 604823, Control_c, 0, 64, 79
1, 604845, Control_c, 0, 64, 80
1, 604849, Note_off_c, 0, 82, 59
1, 604860, Control_c, 0, 64, 81
1, 604874, Control_c, 0, 64, 82
1, 604918, Control_c, 0, 64, 80
1, 604921, Note_on_c, 0, 81, 86
1, 604933, Control_c, 0, 64, 74
1, 604938, Note_on_c, 0, 62, 64
1, 604948, Control_c, 0, 64, 66
1, 604952, Note_off_c, 0, 80, 61
1, 604964, Control_c, 0, 64, 57
1, 604979, Control_c, 0, 64, 53
1, 604993, Control_c, 0, 64, 53
1, 604995, Note_off_c, 0, 65, 41
1, 605008, Control_c, 0, 64, 57
1, 605023, Control_c, 0, 64, 62
1, 605031, Note_off_c, 0, 81, 63
1, 605038, Control_c, 0, 64, 68
1, 605053, Control_c, 0, 64, 74
1, 605059, Note_on_c, 0, 77, 83
1, 605067, Control_c, 0, 64, 78
1, 605082, Control_c, 0, 64, 80
1, 605097, Control_c, 0, 64, 81
1, 605112, Control_c, 0, 64, 81
1, 605141, Note_off_c, 0, 62, 41
1, 605157, Note_off_c, 0, 77, 58
1, 605186, Control_c, 0, 64, 81
1, 605194, Note_on_c, 0, 58, 64
1, 605199, Note_on_c, 0, 74, 80
1, 605201, Control_c, 0, 64, 78
1, 605216, Control_c, 0, 64, 73
1, 605231, Control_c, 0, 64, 64
1, 605246, Control_c, 0, 64, 53
1, 605260, Control_c, 0, 64, 40
1, 605275, Control_c, 0, 64, 0
1, 605299, Note_off_c, 0, 74, 60
1, 605330, Note_on_c, 0, 76, 70
1, 605394, Note_on_c, 0, 74, 76
1, 605404, Note_off_c, 0, 76, 63
1, 605429, Note_off_c, 0, 74, 64
1, 605430, Note_on_c, 0, 73, 77
1, 605449, Note_on_c, 0, 70, 57
1, 605479, Note_on_c, 0, 74, 72
1, 605485, Note_off_c, 0, 73, 64
1, 605512, Control_c, 0, 64, 37
1, 605527, Control_c, 0, 64, 47
1, 605531, Note_off_c, 0, 58, 61
1, 605541, Control_c, 0, 64, 52
1, 605556, Control_c, 0, 64, 52
1, 605571, Control_c, 0, 64, 51
1, 605584, Note_off_c, 0, 70, 53
1, 605593, Control_c, 0, 64, 50
1, 605597, Note_on_c, 0, 79, 73
1, 605608, Control_c, 0, 64, 47
1, 605623, Control_c, 0, 64, 40
1, 605638, Control_c, 0, 64, 0
1, 605638, Control_c, 0, 67, 39
1, 605653, Control_c, 0, 67, 49
1, 605667, Control_c, 0, 67, 61
1, 605670, Note_off_c, 0, 74, 57
1, 605682, Control_c, 0, 67, 73
1, 605697, Control_c, 0, 67, 85
1, 605712, Control_c, 0, 67, 95
1, 605727, Control_c, 0, 67, 102
1, 605738, Note_on_c, 0, 77, 76
1, 605741, Control_c, 0, 67, 104
1, 605750, Note_on_c, 0, 69, 51
1, 605751, Note_on_c, 0, 60, 47
1, 605755, Note_off_c, 0, 79, 52
1, 605774, Note_off_c, 0, 77, 64
1, 605801, Note_off_c, 0, 69, 59
1, 605861, Control_c, 0, 67, 107
1, 605950, Control_c, 0, 67, 109
1, 606009, Control_c, 0, 67, 112
1, 606024, Control_c, 0, 67, 127
1, 606029, Note_on_c, 0, 67, 54
1, 606030, Note_on_c, 0, 76, 67
1, 606041, Note_on_c, 0, 70, 60
1, 606072, Note_off_c, 0, 76, 60
1, 606073, Note_off_c, 0, 70, 64
1, 606090, Note_off_c, 0, 67, 59
1, 606343, Note_on_c, 0, 76, 54
1, 606345, Note_on_c, 0, 70, 53
1, 606355, Note_on_c, 0, 65, 42
1, 606355, Note_off_c, 0, 60, 36
1, 606468, Note_off_c, 0, 65, 52
1, 606655, Control_c, 0, 64, 34
1, 606670, Control_c, 0, 64, 47
1, 606678, Note_on_c, 0, 60, 32
1, 606685, Control_c, 0, 64, 56
1, 606700, Control_c, 0, 64, 60
1, 606714, Control_c, 0, 64, 62
1, 606729, Control_c, 0, 64, 64
1, 606744, Control_c, 0, 64, 66
1, 606747, Note_off_c, 0, 60, 56
1, 606758, Control_c, 0, 64, 68
1, 606773, Control_c, 0, 64, 70
1, 606788, Control_c, 0, 64, 71
1, 606803, Control_c, 0, 64, 73
1, 606818, Control_c, 0, 64, 74
1, 606832, Control_c, 0, 64, 74
1, 606847, Control_c, 0, 64, 75
1, 606996, Control_c, 0, 64, 74
1, 607011, Control_c, 0, 64, 74
1, 607026, Control_c, 0, 64, 72
1, 607040, Control_c, 0, 64, 71
1, 607055, Control_c, 0, 64, 69
1, 607062, Note_on_c, 0, 77, 41
1, 607070, Control_c, 0, 64, 66
1, 607092, Control_c, 0, 64, 61
1, 607100, Note_on_c, 0, 69, 35
1, 607107, Control_c, 0, 64, 54
1, 607118, Note_on_c, 0, 53, 24
1, 607121, Control_c, 0, 64, 45
1, 607136, Control_c, 0, 64, 37
1, 607151, Control_c, 0, 64, 31
1, 607166, Control_c, 0, 64, 0
1, 607204, Note_off_c, 0, 70, 12
1, 607246, Note_off_c, 0, 76, 54
1, 607255, Control_c, 0, 64, 38
1, 607270, Control_c, 0, 64, 50
1, 607285, Control_c, 0, 64, 58
1, 607300, Control_c, 0, 64, 63
1, 607314, Control_c, 0, 64, 65
1, 607329, Control_c, 0, 64, 67
1, 607344, Control_c, 0, 64, 68
1, 607360, Control_c, 0, 64, 69
1, 607375, Control_c, 0, 64, 70
1, 607389, Control_c, 0, 64, 71
1, 607404, Control_c, 0, 64, 71
1, 607419, Control_c, 0, 64, 72
1, 607434, Control_c, 0, 64, 72
1, 607463, Control_c, 0, 64, 73
1, 607480, Note_off_c, 0, 77, 60
1, 607482, Note_off_c, 0, 53, 57
1, 607493, Control_c, 0, 64, 73
1, 607500, Note_off_c, 0, 69, 62
1, 607508, Control_c, 0, 64, 73
1, 607523, Control_c, 0, 64, 65
1, 607537, Control_c, 0, 64, 0
1, 607537, Control_c, 0, 67, 70
1, 607552, Control_c, 0, 67, 0
1, 607658, Note_on_c, 0, 69, 75
1, 607694, Note_on_c, 0, 74, 66
1, 607721, Note_off_c, 0, 69, 64
1, 607738, Note_on_c, 0, 77, 90
1, 607780, Note_on_c, 0, 81, 98
1, 607783, Note_on_c, 0, 62, 93
1, 607783, Note_off_c, 0, 74, 66
1, 607786, Note_on_c, 0, 57, 79
1, 607789, Control_c, 0, 64, 31
1, 607791, Note_on_c, 0, 53, 77
1, 607798, Note_on_c, 0, 50, 73
1, 607804, Control_c, 0, 64, 36
1, 607811, Note_off_c, 0, 77, 66
1, 607819, Control_c, 0, 64, 39
1, 607841, Control_c, 0, 64, 39
1, 607856, Control_c, 0, 64, 40
1, 607870, Control_c, 0, 64, 39
1, 607885, Control_c, 0, 64, 37
1, 607930, Control_c, 0, 64, 36
1, 608033, Control_c, 0, 64, 37
1, 608048, Control_c, 0, 64, 36
1, 608059, Note_off_c, 0, 57, 64
1, 608063, Note_off_c, 0, 53, 63
1, 608063, Control_c, 0, 64, 0
1, 608213, Note_on_c, 0, 79, 64
1, 608239, Note_off_c, 0, 81, 57
1, 608240, Note_off_c, 0, 50, 61
1, 608256, Note_on_c, 0, 77, 75
1, 608285, Note_off_c, 0, 79, 64
1, 608289, Note_off_c, 0, 62, 61
1, 608295, Note_on_c, 0, 76, 81
1, 608312, Note_off_c, 0, 77, 65
1, 608339, Note_off_c, 0, 76, 63
1, 608340, Note_on_c, 0, 74, 79
1, 608361, Note_off_c, 0, 74, 70
1, 608487, Note_on_c, 0, 74, 61
1, 608493, Note_on_c, 0, 69, 57
1, 608494, Note_on_c, 0, 62, 61
1, 608497, Note_on_c, 0, 65, 59
1, 608510, Note_off_c, 0, 74, 57
1, 608513, Note_off_c, 0, 69, 61
1, 608519, Note_off_c, 0, 65, 64
1, 608523, Note_off_c, 0, 62, 65
1, 608636, Note_on_c, 0, 65, 53
1, 608637, Note_on_c, 0, 62, 50
1, 608644, Note_on_c, 0, 69, 50
1, 608645, Note_on_c, 0, 74, 54
1, 608671, Note_off_c, 0, 65, 64
1, 608671, Note_off_c, 0, 62, 63
1, 608672, Note_off_c, 0, 69, 59
1, 608676, Note_off_c, 0, 74, 59
1, 608762, Note_on_c, 0, 74, 64
1, 608764, Note_on_c, 0, 65, 52
1, 608769, Note_on_c, 0, 62, 55
1, 608776, Note_on_c, 0, 69, 53
1, 608801, Note_off_c, 0, 65, 64
1, 608802, Note_off_c, 0, 69, 60
1, 608803, Note_off_c, 0, 74, 59
1, 608815, Note_off_c, 0, 62, 56
1, 608913, Note_on_c, 0, 73, 64
1, 608922, Note_on_c, 0, 69, 44
1, 608923, Note_on_c, 0, 67, 45
1, 608929, Control_c, 0, 67, 44
1, 608940, Note_on_c, 0, 64, 40
1, 608944, Control_c, 0, 67, 55
1, 608946, Note_off_c, 0, 73, 61
1, 608955, Note_off_c, 0, 67, 60
1, 608961, Control_c, 0, 67, 67
1, 608975, Control_c, 0, 67, 83
1, 608977, Note_off_c, 0, 64, 52
1, 608984, Note_off_c, 0, 69, 47
1, 608990, Control_c, 0, 67, 103
1, 609005, Control_c, 0, 67, 125
1, 609020, Control_c, 0, 67, 127
1, 609211, Note_on_c, 0, 74, 49
1, 609221, Note_on_c, 0, 65, 39
1, 609229, Note_on_c, 0, 62, 42
1, 609235, Note_on_c, 0, 69, 39
1, 609254, Note_off_c, 0, 74, 62
1, 609262, Note_off_c, 0, 65, 57
1, 609274, Note_off_c, 0, 69, 54
1, 609276, Note_off_c, 0, 62, 58
1, 609516, Control_c, 0, 67, 123
1, 609525, Note_on_c, 0, 76, 41
1, 609530, Note_on_c, 0, 61, 40
1, 609531, Control_c, 0, 67, 116
1, 609545, Note_on_c, 0, 69, 40
1, 609546, Control_c, 0, 67, 106
1, 609558, Note_on_c, 0, 64, 23
1, 609560, Control_c, 0, 67, 91
1, 609575, Control_c, 0, 67, 68
1, 609590, Control_c, 0, 67, 38
1, 609605, Control_c, 0, 64, 31
1, 609605, Control_c, 0, 67, 0
1, 609620, Note_off_c, 0, 64, 54
1, 609620, Control_c, 0, 64, 40
1, 609627, Note_off_c, 0, 61, 60
1, 609634, Control_c, 0, 64, 46
1, 609638, Note_off_c, 0, 69, 61
1, 609649, Control_c, 0, 64, 51
1, 609654, Note_off_c, 0, 76, 63
1, 609664, Control_c, 0, 64, 54
1, 609679, Control_c, 0, 64, 55
1, 609694, Control_c, 0, 64, 55
1, 609709, Control_c, 0, 64, 56
1, 609739, Control_c, 0, 64, 55
1, 609769, Control_c, 0, 64, 55
1, 609798, Control_c, 0, 64, 54
1, 609813, Control_c, 0, 64, 54
1, 609828, Control_c, 0, 64, 53
1, 609873, Control_c, 0, 64, 53
1, 609888, Control_c, 0, 64, 49
1, 609902, Control_c, 0, 64, 41
1, 609917, Control_c, 0, 64, 34
1, 609932, Control_c, 0, 64, 32
1, 609947, Control_c, 0, 64, 30
1, 609959, Note_on_c, 0, 73, 65
1, 609962, Control_c, 0, 64, 0
1, 610007, Note_on_c, 0, 76, 77
1, 610055, Note_on_c, 0, 79, 80
1, 610058, Note_off_c, 0, 73, 61
1, 610108, Note_on_c, 0, 82, 95
1, 610114, Note_on_c, 0, 64, 87
1, 610118, Note_on_c, 0, 55, 78
1, 610120, Note_on_c, 0, 58, 80
1, 610120, Note_on_c, 0, 61, 76
1, 610132, Note_off_c, 0, 76, 65
1, 610149, Note_off_c, 0, 79, 61
1, 610340, Note_off_c, 0, 61, 65
1, 610341, Note_off_c, 0, 58, 64
1, 610443, Control_c, 0, 67, 36
1, 610457, Control_c, 0, 67, 53
1, 610472, Note_off_c, 0, 82, 61
1, 610472, Control_c, 0, 67, 65
1, 610487, Control_c, 0, 67, 71
1, 610517, Control_c, 0, 67, 70
1, 610517, Note_on_c, 0, 81, 65
1, 610520, Note_off_c, 0, 55, 63
1, 610531, Control_c, 0, 67, 68
1, 610546, Note_off_c, 0, 64, 63
1, 610546, Control_c, 0, 67, 66
1, 610562, Note_on_c, 0, 79, 70
1, 610562, Control_c, 0, 67, 63
1, 610577, Control_c, 0, 67, 61
1, 610592, Control_c, 0, 67, 59
1, 610601, Note_off_c, 0, 81, 62
1, 610606, Control_c, 0, 67, 58
1, 610611, Note_on_c, 0, 77, 78
1, 610621, Control_c, 0, 67, 57
1, 610625, Note_off_c, 0, 79, 65
1, 610636, Control_c, 0, 67, 55
1, 610651, Note_off_c, 0, 77, 63
1, 610651, Control_c, 0, 67, 52
1, 610660, Note_on_c, 0, 76, 74
1, 610666, Control_c, 0, 67, 50
1, 610681, Control_c, 0, 67, 50
1, 610684, Note_off_c, 0, 76, 65
1, 610725, Control_c, 0, 67, 50
1, 610740, Control_c, 0, 67, 51
1, 610785, Control_c, 0, 67, 50
1, 610799, Control_c, 0, 67, 49
1, 610806, Note_on_c, 0, 76, 64
1, 610814, Note_on_c, 0, 67, 60
1, 610814, Control_c, 0, 67, 49
1, 610827, Note_on_c, 0, 70, 58
1, 610830, Note_on_c, 0, 73, 51
1, 610836, Control_c, 0, 67, 48
1, 610851, Control_c, 0, 67, 46
1, 610853, Note_off_c, 0, 73, 59
1, 610855, Note_off_c, 0, 70, 65
1, 610855, Note_off_c, 0, 76, 64
1, 610865, Control_c, 0, 67, 44
1, 610868, Note_off_c, 0, 67, 58
1, 610879, Control_c, 0, 67, 40
1, 610894, Control_c, 0, 67, 36
1, 610909, Control_c, 0, 67, 0
1, 610948, Note_on_c, 0, 70, 63
1, 610950, Note_on_c, 0, 73, 60
1, 610952, Note_on_c, 0, 76, 75
1, 610958, Note_on_c, 0, 67, 68
1, 610988, Note_off_c, 0, 73, 61
1, 610990, Note_off_c, 0, 70, 63
1, 610990, Note_off_c, 0, 76, 59
1, 611004, Note_off_c, 0, 67, 60
1, 611088, Note_on_c, 0, 70, 74
1, 611088, Note_on_c, 0, 76, 77
1, 611090, Note_on_c, 0, 73, 73
1, 611095, Note_on_c, 0, 67, 61
1, 611128, Note_off_c, 0, 70, 59
1, 611129, Note_off_c, 0, 73, 56
1, 611135, Note_off_c, 0, 76, 60
1, 611139, Note_off_c, 0, 67, 60
1, 611229, Note_on_c, 0, 69, 73
1, 611233, Note_on_c, 0, 74, 81
1, 611235, Note_on_c, 0, 65, 63
1, 611265, Note_off_c, 0, 69, 65
1, 611280, Note_off_c, 0, 74, 64
1, 611286, Note_off_c, 0, 65, 62
1, 611515, Note_on_c, 0, 76, 66
1, 611521, Note_on_c, 0, 73, 59
1, 611522, Note_on_c, 0, 64, 63
1, 611526, Note_on_c, 0, 67, 55
1, 611560, Note_off_c, 0, 73, 58
1, 611566, Note_off_c, 0, 67, 60
1, 611581, Note_off_c, 0, 76, 62
1, 611587, Note_off_c, 0, 64, 57
1, 611791, Control_c, 0, 67, 40
1, 611806, Control_c, 0, 67, 47
1, 611821, Control_c, 0, 67, 57
1, 611835, Control_c, 0, 67, 70
1, 611837, Note_on_c, 0, 77, 50
1, 611847, Note_on_c, 0, 74, 47
1, 611850, Control_c, 0, 67, 86
1, 611861, Note_on_c, 0, 62, 37
1, 611865, Control_c, 0, 67, 106
1, 611867, Note_on_c, 0, 65, 33
1, 611880, Control_c, 0, 67, 125
1, 611895, Control_c, 0, 67, 127
1, 611992, Note_off_c, 0, 74, 56
1, 612010, Note_off_c, 0, 65, 55
1, 612028, Note_off_c, 0, 77, 58
1, 612058, Note_off_c, 0, 62, 46
1, 612332, Control_c, 0, 64, 33
1, 612347, Control_c, 0, 64, 39
1, 612363, Control_c, 0, 64, 45
1, 612377, Control_c, 0, 64, 49
1, 612392, Control_c, 0, 64, 52
1, 612407, Control_c, 0, 64, 55
1, 612422, Control_c, 0, 64, 56
1, 612437, Control_c, 0, 64, 58
1, 612451, Control_c, 0, 64, 60
1, 612456, Note_on_c, 0, 77, 50
1, 612466, Control_c, 0, 64, 62
1, 612481, Control_c, 0, 64, 63
1, 612486, Note_on_c, 0, 67, 33
1, 612496, Control_c, 0, 64, 64
1, 612511, Control_c, 0, 64, 65
1, 612526, Control_c, 0, 64, 66
1, 612541, Control_c, 0, 64, 68
1, 612555, Control_c, 0, 64, 69
1, 612570, Control_c, 0, 64, 72
1, 612585, Control_c, 0, 64, 74
1, 612600, Control_c, 0, 64, 77
1, 612609, Note_on_c, 0, 76, 61
1, 612615, Control_c, 0, 64, 80
1, 612630, Control_c, 0, 64, 82
1, 612642, Note_off_c, 0, 77, 59
1, 612645, Control_c, 0, 64, 84
1, 612651, Note_off_c, 0, 76, 58
1, 612659, Control_c, 0, 64, 85
1, 612674, Control_c, 0, 64, 86
1, 612689, Control_c, 0, 64, 87
1, 612748, Control_c, 0, 64, 87
1, 612751, Note_on_c, 0, 76, 71
1, 612765, Note_on_c, 0, 69, 40
1, 612777, Control_c, 0, 64, 88
1, 612792, Control_c, 0, 64, 88
1, 612807, Control_c, 0, 64, 89
1, 612822, Control_c, 0, 64, 89
1, 612890, Note_on_c, 0, 73, 62
1, 612896, Note_off_c, 0, 76, 60
1, 612937, Note_off_c, 0, 73, 60
1, 612971, Control_c, 0, 64, 89
1, 612986, Control_c, 0, 64, 88
1, 613000, Control_c, 0, 64, 86
1, 613015, Control_c, 0, 64, 84
1, 613030, Control_c, 0, 64, 81
1, 613045, Control_c, 0, 64, 77
1, 613053, Note_on_c, 0, 74, 62
1, 613060, Control_c, 0, 64, 72
1, 613082, Control_c, 0, 64, 66
1, 613093, Note_on_c, 0, 65, 30
1, 613097, Control_c, 0, 64, 57
1, 613112, Control_c, 0, 64, 50
1, 613126, Control_c, 0, 64, 45
1, 613127, Note_off_c, 0, 69, 36
1, 613130, Note_off_c, 0, 67, 42
1, 613141, Control_c, 0, 64, 41
1, 613156, Control_c, 0, 64, 38
1, 613171, Control_c, 0, 64, 36
1, 613186, Control_c, 0, 64, 35
1, 613230, Control_c, 0, 64, 36
1, 613245, Control_c, 0, 64, 37
1, 613260, Control_c, 0, 64, 39
1, 613274, Control_c, 0, 64, 43
1, 613289, Control_c, 0, 64, 48
1, 613304, Control_c, 0, 64, 52
1, 613319, Control_c, 0, 64, 55
1, 613334, Control_c, 0, 64, 58
1, 613348, Control_c, 0, 64, 61
1, 613353, Note_on_c, 0, 69, 27
1, 613363, Control_c, 0, 64, 63
1, 613378, Control_c, 0, 64, 64
1, 613393, Control_c, 0, 64, 66
1, 613408, Control_c, 0, 64, 67
1, 613423, Control_c, 0, 64, 68
1, 613438, Control_c, 0, 64, 69
1, 613453, Control_c, 0, 64, 71
1, 613468, Control_c, 0, 64, 72
1, 613482, Control_c, 0, 64, 73
1, 613487, Note_on_c, 0, 77, 69
1, 613497, Control_c, 0, 64, 75
1, 613512, Control_c, 0, 64, 76
1, 613526, Control_c, 0, 64, 78
1, 613541, Control_c, 0, 64, 80
1, 613554, Note_off_c, 0, 77, 57
1, 613556, Control_c, 0, 64, 81
1, 613571, Control_c, 0, 64, 82
1, 613586, Control_c, 0, 64, 82
1, 613641, Note_on_c, 0, 77, 74
1, 613653, Note_on_c, 0, 67, 50
1, 613660, Control_c, 0, 64, 82
1, 613674, Control_c, 0, 64, 80
1, 613689, Control_c, 0, 64, 77
1, 613704, Control_c, 0, 64, 71
1, 613718, Control_c, 0, 64, 64
1, 613733, Control_c, 0, 64, 55
1, 613734, Poly_aftertouch_c, 0, 63, 127
1, 613739, Note_off_c, 0, 69, 43
1, 613749, Control_c, 0, 64, 49
1, 613763, Note_off_c, 0, 65, 30
1, 613764, Control_c, 0, 64, 47
1, 613779, Note_on_c, 0, 76, 78
1, 613794, Control_c, 0, 64, 47
1, 613809, Control_c, 0, 64, 49
1, 613831, Control_c, 0, 64, 52
1, 613843, Note_off_c, 0, 77, 61
1, 613846, Control_c, 0, 64, 56
1, 613859, Note_off_c, 0, 74, 37
1, 613861, Control_c, 0, 64, 60
1, 613876, Control_c, 0, 64, 62
1, 613891, Control_c, 0, 64, 63
1, 613918, Note_on_c, 0, 79, 77
1, 613935, Note_on_c, 0, 69, 51
1, 613935, Control_c, 0, 64, 63
1, 613935, Control_c, 0, 67, 121
1, 613949, Control_c, 0, 67, 110
1, 613964, Control_c, 0, 67, 98
1, 613979, Control_c, 0, 64, 64
1, 613979, Control_c, 0, 67, 83
1, 613981, Note_off_c, 0, 76, 58
1, 613994, Control_c, 0, 64, 64
1, 613994, Control_c, 0, 67, 70
1, 614009, Control_c, 0, 64, 66
1, 614009, Control_c, 0, 67, 54
1, 614023, Control_c, 0, 64, 68
1, 614023, Control_c, 0, 67, 39
1, 614038, Control_c, 0, 64, 71
1, 614038, Control_c, 0, 67, 0
1, 614053, Control_c, 0, 64, 73
1, 614055, Note_on_c, 0, 73, 77
1, 614068, Control_c, 0, 64, 75
1, 614083, Control_c, 0, 64, 76
1, 614097, Control_c, 0, 64, 77
1, 614112, Control_c, 0, 64, 78
1, 614193, Note_on_c, 0, 76, 74
1, 614201, Control_c, 0, 64, 76
1, 614216, Note_on_c, 0, 65, 50
1, 614216, Control_c, 0, 64, 70
1, 614224, Note_off_c, 0, 73, 60
1, 614231, Control_c, 0, 64, 62
1, 614246, Control_c, 0, 64, 53
1, 614256, Poly_aftertouch_c, 0, 63, 0
1, 614261, Control_c, 0, 64, 43
1, 614264, Note_off_c, 0, 67, 56
1, 614275, Control_c, 0, 64, 35
1, 614278, Note_off_c, 0, 69, 38
1, 614290, Control_c, 0, 64, 33
1, 614305, Control_c, 0, 64, 35
1, 614320, Control_c, 0, 64, 38
1, 614335, Control_c, 0, 64, 45
1, 614343, Note_on_c, 0, 74, 76
1, 614349, Control_c, 0, 64, 54
1, 614352, Note_off_c, 0, 79, 62
1, 614353, Note_off_c, 0, 76, 62
1, 614364, Control_c, 0, 64, 61
1, 614379, Control_c, 0, 64, 66
1, 614394, Control_c, 0, 64, 69
1, 614409, Control_c, 0, 64, 72
1, 614423, Control_c, 0, 64, 73
1, 614438, Control_c, 0, 64, 75
1, 614453, Control_c, 0, 64, 76
1, 614467, Control_c, 0, 64, 78
1, 614482, Control_c, 0, 64, 79
1, 614484, Note_on_c, 0, 69, 71
1, 614497, Control_c, 0, 64, 80
1, 614512, Control_c, 0, 64, 81
1, 614527, Control_c, 0, 64, 82
1, 614528, Note_off_c, 0, 65, 60
1, 614543, Control_c, 0, 64, 84
1, 614558, Control_c, 0, 64, 87
1, 614580, Control_c, 0, 64, 89
1, 614594, Control_c, 0, 64, 92
1, 614609, Control_c, 0, 64, 95
1, 614622, Note_on_c, 0, 77, 79
1, 614624, Control_c, 0, 64, 99
1, 614639, Control_c, 0, 64, 102
1, 614646, Note_off_c, 0, 69, 48
1, 614654, Control_c, 0, 64, 105
1, 614669, Control_c, 0, 64, 107
1, 614684, Control_c, 0, 64, 109
1, 614700, Note_off_c, 0, 77, 62
1, 614763, Note_on_c, 0, 69, 75
1, 614764, Note_on_c, 0, 81, 74
1, 614786, Note_on_c, 0, 64, 61
1, 614787, Control_c, 0, 64, 101
1, 614802, Control_c, 0, 64, 91
1, 614817, Control_c, 0, 64, 80
1, 614832, Control_c, 0, 64, 68
1, 614846, Control_c, 0, 64, 60
1, 614861, Control_c, 0, 64, 54
1, 614867, Note_off_c, 0, 74, 37
1, 614890, Control_c, 0, 64, 56
1, 614905, Control_c, 0, 64, 60
1, 614913, Note_on_c, 0, 80, 76
1, 614920, Control_c, 0, 64, 65
1, 614935, Control_c, 0, 64, 70
1, 614950, Control_c, 0, 64, 76
1, 614964, Control_c, 0, 64, 81
1, 614979, Control_c, 0, 64, 83
1, 614994, Control_c, 0, 64, 84
1, 615009, Control_c, 0, 64, 84
1, 615024, Control_c, 0, 64, 84
1, 615039, Control_c, 0, 64, 81
1, 615053, Control_c, 0, 64, 74
1, 615054, Note_on_c, 0, 79, 73
1, 615055, Note_on_c, 0, 61, 68
1, 615068, Control_c, 0, 64, 64
1, 615076, Note_off_c, 0, 81, 41
1, 615083, Control_c, 0, 64, 53
1, 615098, Control_c, 0, 64, 48
1, 615113, Control_c, 0, 64, 48
1, 615116, Note_off_c, 0, 80, 51
1, 615128, Control_c, 0, 64, 54
1, 615143, Control_c, 0, 64, 61
1, 615152, Note_off_c, 0, 79, 61
1, 615158, Control_c, 0, 64, 67
1, 615172, Control_c, 0, 64, 74
1, 615187, Control_c, 0, 64, 81
1, 615197, Note_on_c, 0, 76, 81
1, 615202, Control_c, 0, 64, 85
1, 615217, Control_c, 0, 64, 86
1, 615232, Control_c, 0, 64, 86
1, 615276, Control_c, 0, 64, 85
1, 615290, Control_c, 0, 64, 80
1, 615305, Control_c, 0, 64, 68
1, 615328, Control_c, 0, 64, 52
1, 615343, Control_c, 0, 64, 33
1, 615350, Note_on_c, 0, 79, 79
1, 615352, Note_on_c, 0, 62, 67
1, 615358, Control_c, 0, 64, 0
1, 615394, Note_off_c, 0, 61, 54
1, 615395, Note_off_c, 0, 76, 60
1, 615417, Control_c, 0, 64, 37
1, 615432, Control_c, 0, 64, 57
1, 615447, Control_c, 0, 64, 68
1, 615448, Note_off_c, 0, 69, 60
1, 615462, Control_c, 0, 64, 77
1, 615476, Control_c, 0, 64, 85
1, 615483, Note_on_c, 0, 78, 80
1, 615491, Control_c, 0, 64, 90
1, 615506, Control_c, 0, 64, 93
1, 615520, Control_c, 0, 64, 95
1, 615535, Control_c, 0, 64, 95
1, 615550, Control_c, 0, 64, 95
1, 615565, Control_c, 0, 64, 90
1, 615580, Control_c, 0, 64, 75
1, 615594, Control_c, 0, 64, 59
1, 615609, Control_c, 0, 64, 41
1, 615620, Note_on_c, 0, 68, 82
1, 615624, Control_c, 0, 64, 32
1, 615626, Note_on_c, 0, 77, 79
1, 615629, Note_on_c, 0, 58, 71
1, 615639, Control_c, 0, 64, 37
1, 615645, Note_off_c, 0, 79, 54
1, 615654, Control_c, 0, 64, 49
1, 615659, Note_off_c, 0, 62, 49
1, 615668, Control_c, 0, 64, 61
1, 615683, Control_c, 0, 64, 70
1, 615698, Control_c, 0, 64, 80
1, 615703, Note_off_c, 0, 78, 55
1, 615712, Control_c, 0, 64, 89
1, 615727, Control_c, 0, 64, 95
1, 615730, Note_off_c, 0, 77, 61
1, 615742, Control_c, 0, 64, 102
1, 615754, Note_off_c, 0, 68, 61
1, 615757, Control_c, 0, 64, 106
1, 615760, Note_off_c, 0, 58, 56
1, 615764, Note_on_c, 0, 74, 84
1, 615772, Control_c, 0, 64, 109
1, 615806, Note_off_c, 0, 74, 64
1, 615832, Control_c, 0, 64, 100
1, 615846, Control_c, 0, 64, 77
1, 615861, Control_c, 0, 64, 58
1, 615876, Control_c, 0, 64, 0
1, 615891, Note_on_c, 0, 69, 78
1, 615897, Note_on_c, 0, 57, 71
1, 615903, Note_on_c, 0, 73, 83
1, 615906, Note_off_c, 0, 64, 12
1, 615950, Control_c, 0, 64, 42
1, 615965, Control_c, 0, 64, 59
1, 615980, Control_c, 0, 64, 69
1, 615994, Control_c, 0, 64, 78
1, 616009, Control_c, 0, 64, 85
1, 616024, Control_c, 0, 64, 87
1, 616039, Control_c, 0, 64, 89
1, 616040, Note_on_c, 0, 76, 84
1, 616054, Control_c, 0, 64, 90
1, 616058, Note_off_c, 0, 73, 63
1, 616082, Note_off_c, 0, 76, 61
1, 616106, Control_c, 0, 64, 89
1, 616121, Control_c, 0, 64, 86
1, 616135, Note_off_c, 0, 57, 62
1, 616136, Control_c, 0, 64, 82
1, 616142, Note_off_c, 0, 69, 57
1, 616151, Control_c, 0, 64, 75
1, 616166, Control_c, 0, 64, 67
1, 616177, Note_on_c, 0, 76, 88
1, 616181, Control_c, 0, 64, 55
1, 616196, Control_c, 0, 64, 36
1, 616211, Control_c, 0, 64, 0
1, 616221, Note_off_c, 0, 76, 66
1, 616310, Note_on_c, 0, 76, 91
1, 616354, Note_off_c, 0, 76, 65
1, 616443, Note_on_c, 0, 76, 96
1, 616467, Note_on_c, 0, 82, 58
1, 616478, Control_c, 0, 64, 46
1, 616486, Note_off_c, 0, 82, 63
1, 616492, Control_c, 0, 64, 65
1, 616507, Control_c, 0, 64, 75
1, 616522, Control_c, 0, 64, 88
1, 616537, Control_c, 0, 64, 102
1, 616551, Control_c, 0, 64, 127
1, 616580, Note_on_c, 0, 81, 93
1, 616594, Note_off_c, 0, 76, 58
1, 616627, Note_off_c, 0, 81, 66
1, 616711, Note_on_c, 0, 81, 97
1, 616751, Note_off_c, 0, 81, 67
1, 616843, Note_on_c, 0, 81, 91
1, 616872, Note_off_c, 0, 81, 66
1, 616968, Note_on_c, 0, 69, 76
1, 616997, Note_off_c, 0, 69, 65
1, 617011, Note_on_c, 0, 74, 88
1, 617040, Note_on_c, 0, 77, 85
1, 617087, Note_on_c, 0, 62, 99
1, 617087, Note_on_c, 0, 81, 102
1, 617087, Note_off_c, 0, 74, 61
1, 617092, Note_on_c, 0, 57, 83
1, 617095, Note_on_c, 0, 53, 80
1, 617098, Note_on_c, 0, 50, 80
1, 617106, Note_off_c, 0, 77, 64
1, 617107, Control_c, 0, 64, 95
1, 617122, Control_c, 0, 64, 57
1, 617137, Control_c, 0, 64, 0
1, 617343, Note_off_c, 0, 57, 63
1, 617346, Note_off_c, 0, 53, 61
1, 617512, Note_off_c, 0, 50, 61
1, 617515, Note_on_c, 0, 79, 68
1, 617527, Note_off_c, 0, 81, 50
1, 617565, Note_on_c, 0, 77, 78
1, 617565, Note_off_c, 0, 62, 55
1, 617592, Note_off_c, 0, 79, 64
1, 617598, Note_on_c, 0, 76, 85
1, 617616, Note_off_c, 0, 77, 66
1, 617640, Note_off_c, 0, 76, 66
1, 617641, Note_on_c, 0, 74, 85
1, 617664, Note_off_c, 0, 74, 68
1, 617782, Note_on_c, 0, 74, 81
1, 617785, Note_on_c, 0, 65, 60
1, 617786, Note_on_c, 0, 62, 57
1, 617789, Note_on_c, 0, 69, 73
1, 617808, Note_off_c, 0, 62, 62
1, 617810, Note_off_c, 0, 65, 64
1, 617811, Note_off_c, 0, 69, 64
1, 617819, Note_off_c, 0, 74, 63
1, 617909, Note_on_c, 0, 62, 57
1, 617915, Note_on_c, 0, 65, 60
1, 617921, Note_on_c, 0, 74, 88
1, 617924, Note_on_c, 0, 69, 61
1, 617947, Note_off_c, 0, 62, 65
1, 617947, Note_off_c, 0, 65, 64
1, 617953, Note_off_c, 0, 74, 63
1, 617954, Note_off_c, 0, 69, 65
1, 618046, Note_on_c, 0, 65, 51
1, 618048, Note_on_c, 0, 62, 57
1, 618053, Note_on_c, 0, 74, 78
1, 618056, Note_on_c, 0, 69, 60
1, 618073, Note_off_c, 0, 65, 56
1, 618078, Note_off_c, 0, 69, 64
1, 618079, Note_off_c, 0, 62, 61
1, 618084, Note_off_c, 0, 74, 55
1, 618186, Note_on_c, 0, 73, 73
1, 618195, Note_on_c, 0, 67, 58
1, 618195, Note_on_c, 0, 69, 54
1, 618209, Note_on_c, 0, 64, 52
1, 618227, Note_off_c, 0, 73, 62
1, 618234, Note_off_c, 0, 67, 56
1, 618235, Note_off_c, 0, 69, 58
1, 618238, Note_off_c, 0, 64, 63
1, 618383, Control_c, 0, 67, 36
1, 618397, Control_c, 0, 67, 47
1, 618412, Control_c, 0, 67, 60
1, 618427, Control_c, 0, 67, 72
1, 618441, Control_c, 0, 67, 85
1, 618456, Control_c, 0, 67, 101
1, 618471, Control_c, 0, 67, 120
1, 618478, Note_on_c, 0, 65, 43
1, 618486, Control_c, 0, 67, 127
1, 618490, Note_on_c, 0, 74, 59
1, 618496, Note_on_c, 0, 62, 49
1, 618499, Note_on_c, 0, 69, 52
1, 618530, Note_off_c, 0, 62, 60
1, 618535, Note_off_c, 0, 74, 60
1, 618535, Note_off_c, 0, 65, 56
1, 618538, Note_off_c, 0, 69, 59
1, 618787, Note_on_c, 0, 76, 45
1, 618800, Note_on_c, 0, 64, 37
1, 618801, Note_on_c, 0, 61, 41
1, 618810, Note_on_c, 0, 69, 36
1, 618889, Note_off_c, 0, 61, 63
1, 618890, Note_off_c, 0, 69, 59
1, 618893, Note_off_c, 0, 64, 63
1, 618918, Note_off_c, 0, 76, 60
1, 618946, Control_c, 0, 67, 122
1, 618961, Control_c, 0, 67, 109
1, 618976, Control_c, 0, 67, 92
1, 618991, Control_c, 0, 67, 73
1, 619006, Control_c, 0, 67, 54
1, 619020, Control_c, 0, 67, 37
1, 619035, Control_c, 0, 67, 0
1, 619102, Control_c, 0, 64, 34
1, 619116, Control_c, 0, 64, 44
1, 619131, Control_c, 0, 64, 48
1, 619146, Control_c, 0, 64, 49
1, 619161, Control_c, 0, 64, 47
1, 619176, Control_c, 0, 64, 45
1, 619191, Control_c, 0, 64, 43
1, 619206, Control_c, 0, 64, 43
1, 619218, Note_on_c, 0, 73, 75
1, 619220, Control_c, 0, 64, 43
1, 619235, Control_c, 0, 64, 45
1, 619250, Control_c, 0, 64, 46
1, 619260, Note_on_c, 0, 76, 82
1, 619264, Control_c, 0, 64, 48
1, 619279, Control_c, 0, 64, 51
1, 619294, Control_c, 0, 64, 52
1, 619310, Note_on_c, 0, 79, 76
1, 619316, Note_off_c, 0, 73, 62
1, 619340, Control_c, 0, 64, 52
1, 619355, Control_c, 0, 64, 51
1, 619367, Note_on_c, 0, 82, 88
1, 619369, Control_c, 0, 64, 50
1, 619384, Control_c, 0, 64, 48
1, 619388, Note_on_c, 0, 64, 87
1, 619395, Note_on_c, 0, 55, 76
1, 619395, Note_on_c, 0, 58, 79
1, 619396, Note_on_c, 0, 61, 77
1, 619399, Control_c, 0, 64, 44
1, 619405, Note_off_c, 0, 76, 62
1, 619414, Control_c, 0, 64, 37
1, 619415, Note_off_c, 0, 79, 61
1, 619429, Control_c, 0, 64, 0
1, 619650, Note_off_c, 0, 61, 64
1, 619650, Control_c, 0, 67, 37
1, 619653, Note_off_c, 0, 58, 63
1, 619665, Control_c, 0, 67, 78
1, 619680, Control_c, 0, 67, 127
1, 619783, Note_off_c, 0, 82, 62
1, 619835, Note_on_c, 0, 81, 62
1, 619839, Note_off_c, 0, 55, 62
1, 619871, Note_off_c, 0, 64, 62
1, 619880, Note_on_c, 0, 79, 69
1, 619916, Note_off_c, 0, 81, 63
1, 619922, Note_on_c, 0, 77, 78
1, 619943, Note_off_c, 0, 79, 64
1, 619972, Note_off_c, 0, 77, 63
1, 619973, Note_on_c, 0, 76, 74
1, 619999, Note_off_c, 0, 76, 66
1, 620014, Control_c, 0, 67, 114
1, 620029, Control_c, 0, 67, 97
1, 620043, Control_c, 0, 67, 88
1, 620073, Control_c, 0, 67, 90
1, 620087, Control_c, 0, 67, 92
1, 620110, Note_on_c, 0, 76, 70
1, 620115, Note_on_c, 0, 67, 65
1, 620118, Note_on_c, 0, 73, 64
1, 620120, Note_on_c, 0, 70, 63
1, 620132, Control_c, 0, 67, 91
1, 620148, Control_c, 0, 67, 91
1, 620148, Note_off_c, 0, 70, 69
1, 620148, Note_off_c, 0, 73, 65
1, 620153, Note_off_c, 0, 76, 62
1, 620163, Control_c, 0, 67, 89
1, 620163, Note_off_c, 0, 67, 63
1, 620178, Control_c, 0, 67, 86
1, 620192, Control_c, 0, 67, 84
1, 620207, Control_c, 0, 67, 83
1, 620222, Control_c, 0, 67, 81
1, 620237, Control_c, 0, 67, 76
1, 620249, Note_on_c, 0, 73, 74
1, 620250, Note_on_c, 0, 76, 80
1, 620252, Control_c, 0, 67, 61
1, 620252, Note_on_c, 0, 70, 67
1, 620259, Note_on_c, 0, 67, 70
1, 620266, Control_c, 0, 67, 44
1, 620281, Control_c, 0, 67, 0
1, 620285, Note_off_c, 0, 73, 65
1, 620289, Note_off_c, 0, 70, 62
1, 620293, Note_off_c, 0, 76, 62
1, 620307, Note_off_c, 0, 67, 61
1, 620387, Note_on_c, 0, 70, 82
1, 620390, Note_on_c, 0, 76, 79
1, 620391, Note_on_c, 0, 73, 75
1, 620398, Note_on_c, 0, 67, 65
1, 620431, Note_off_c, 0, 73, 59
1, 620436, Note_off_c, 0, 76, 64
1, 620440, Note_off_c, 0, 70, 57
1, 620443, Note_off_c, 0, 67, 62
1, 620535, Note_on_c, 0, 74, 87
1, 620538, Note_on_c, 0, 69, 72
1, 620543, Note_on_c, 0, 65, 61
1, 620583, Note_off_c, 0, 69, 64
1, 620592, Note_off_c, 0, 74, 64
1, 620607, Note_off_c, 0, 65, 62
1, 620836, Note_on_c, 0, 76, 68
1, 620842, Note_on_c, 0, 73, 56
1, 620842, Note_on_c, 0, 67, 49
1, 620858, Note_on_c, 0, 64, 47
1, 620884, Note_off_c, 0, 67, 64
1, 620887, Note_off_c, 0, 73, 60
1, 620900, Note_off_c, 0, 76, 64
1, 620901, Note_off_c, 0, 64, 62
1, 620910, Control_c, 0, 67, 42
1, 620925, Control_c, 0, 67, 52
1, 620941, Control_c, 0, 67, 66
1, 620956, Control_c, 0, 67, 86
1, 620971, Control_c, 0, 67, 107
1, 620985, Control_c, 0, 67, 127
1, 621162, Note_on_c, 0, 77, 51
1, 621182, Note_on_c, 0, 74, 48
1, 621188, Note_on_c, 0, 62, 35
1, 621202, Note_on_c, 0, 65, 22
1, 621281, Control_c, 0, 64, 40
1, 621296, Control_c, 0, 64, 52
1, 621319, Control_c, 0, 64, 59
1, 621333, Control_c, 0, 64, 62
1, 621348, Control_c, 0, 64, 64
1, 621358, Note_off_c, 0, 65, 41
1, 621363, Control_c, 0, 64, 65
1, 621378, Control_c, 0, 64, 66
1, 621388, Note_off_c, 0, 77, 38
1, 621393, Control_c, 0, 64, 66
1, 621394, Note_off_c, 0, 74, 37
1, 621407, Note_off_c, 0, 62, 41
1, 621422, Control_c, 0, 64, 67
1, 621481, Control_c, 0, 64, 66
1, 621540, Control_c, 0, 64, 66
1, 621555, Control_c, 0, 64, 65
1, 621570, Control_c, 0, 64, 65
1, 621585, Control_c, 0, 64, 64
1, 621600, Control_c, 0, 64, 64
1, 621614, Control_c, 0, 64, 63
1, 621629, Control_c, 0, 64, 63
1, 621644, Control_c, 0, 64, 62
1, 621659, Control_c, 0, 64, 62
1, 621674, Control_c, 0, 64, 61
1, 621689, Control_c, 0, 64, 61
1, 621719, Control_c, 0, 64, 60
1, 621912, Control_c, 0, 64, 61
1, 621942, Control_c, 0, 64, 61
1, 621956, Note_on_c, 0, 75, 46
1, 621956, Control_c, 0, 64, 62
1, 621971, Control_c, 0, 64, 63
1, 621986, Control_c, 0, 64, 65
1, 621994, Note_on_c, 0, 55, 27
1, 622001, Control_c, 0, 64, 66
1, 622016, Control_c, 0, 64, 68
1, 622030, Control_c, 0, 64, 71
1, 622045, Control_c, 0, 64, 73
1, 622068, Control_c, 0, 64, 75
1, 622082, Control_c, 0, 64, 77
1, 622097, Control_c, 0, 64, 79
1, 622112, Control_c, 0, 64, 81
1, 622123, Note_off_c, 0, 75, 55
1, 622127, Control_c, 0, 64, 83
1, 622142, Control_c, 0, 64, 84
1, 622157, Control_c, 0, 64, 85
1, 622171, Note_on_c, 0, 77, 47
1, 622187, Control_c, 0, 64, 85
1, 622212, Note_off_c, 0, 77, 62
1, 622232, Note_on_c, 0, 75, 61
1, 622249, Note_off_c, 0, 75, 65
1, 622278, Note_on_c, 0, 74, 63
1, 622313, Note_off_c, 0, 74, 51
1, 622323, Note_on_c, 0, 75, 60
1, 622350, Control_c, 0, 64, 85
1, 622364, Control_c, 0, 64, 84
1, 622379, Control_c, 0, 64, 81
1, 622394, Control_c, 0, 64, 78
1, 622395, Note_on_c, 0, 79, 55
1, 622397, Note_off_c, 0, 75, 51
1, 622408, Control_c, 0, 64, 72
1, 622423, Control_c, 0, 64, 66
1, 622426, Note_on_c, 0, 58, 32
1, 622438, Control_c, 0, 64, 60
1, 622453, Control_c, 0, 64, 56
1, 622468, Control_c, 0, 64, 56
1, 622482, Control_c, 0, 64, 57
1, 622497, Control_c, 0, 64, 60
1, 622512, Control_c, 0, 64, 63
1, 622528, Control_c, 0, 64, 67
1, 622533, Note_off_c, 0, 55, 48
1, 622543, Control_c, 0, 64, 71
1, 622549, Note_on_c, 0, 73, 53
1, 622558, Control_c, 0, 64, 74
1, 622573, Control_c, 0, 64, 74
1, 622632, Control_c, 0, 64, 74
1, 622647, Control_c, 0, 64, 71
1, 622661, Control_c, 0, 64, 68
1, 622676, Control_c, 0, 64, 62
1, 622691, Control_c, 0, 64, 58
1, 622701, Note_on_c, 0, 76, 50
1, 622703, Note_off_c, 0, 79, 38
1, 622705, Control_c, 0, 64, 54
1, 622710, Note_off_c, 0, 58, 32
1, 622720, Control_c, 0, 64, 48
1, 622722, Note_on_c, 0, 53, 26
1, 622732, Note_off_c, 0, 73, 61
1, 622735, Control_c, 0, 64, 40
1, 622750, Control_c, 0, 64, 29
1, 622765, Control_c, 0, 64, 0
1, 622850, Note_on_c, 0, 74, 66
1, 622914, Note_off_c, 0, 76, 60
1, 622990, Note_on_c, 0, 57, 45
1, 622995, Control_c, 0, 64, 30
1, 623010, Control_c, 0, 64, 42
1, 623024, Control_c, 0, 64, 52
1, 623039, Control_c, 0, 64, 60
1, 623054, Control_c, 0, 64, 64
1, 623069, Control_c, 0, 64, 66
1, 623084, Control_c, 0, 64, 69
1, 623099, Control_c, 0, 64, 71
1, 623113, Control_c, 0, 64, 72
1, 623128, Control_c, 0, 64, 72
1, 623130, Note_off_c, 0, 74, 56
1, 623138, Note_on_c, 0, 77, 67
1, 623138, Note_off_c, 0, 53, 39
1, 623139, Note_off_c, 0, 57, 37
1, 623167, Note_off_c, 0, 77, 66
1, 623276, Control_c, 0, 64, 72
1, 623278, Note_on_c, 0, 75, 68
1, 623287, Note_on_c, 0, 55, 46
1, 623291, Control_c, 0, 64, 70
1, 623305, Control_c, 0, 64, 68
1, 623315, Note_off_c, 0, 75, 57
1, 623320, Control_c, 0, 64, 65
1, 623336, Control_c, 0, 64, 61
1, 623351, Control_c, 0, 64, 57
1, 623352, Note_on_c, 0, 77, 72
1, 623366, Control_c, 0, 64, 53
1, 623381, Control_c, 0, 64, 49
1, 623396, Control_c, 0, 64, 46
1, 623401, Note_off_c, 0, 77, 47
1, 623410, Control_c, 0, 64, 44
1, 623421, Note_on_c, 0, 79, 68
1, 623425, Control_c, 0, 64, 42
1, 623440, Control_c, 0, 64, 40
1, 623454, Control_c, 0, 64, 37
1, 623469, Control_c, 0, 64, 34
1, 623484, Control_c, 0, 64, 31
1, 623485, Note_on_c, 0, 81, 72
1, 623498, Note_off_c, 0, 79, 55
1, 623499, Control_c, 0, 64, 0
1, 623538, Note_off_c, 0, 55, 43
1, 623565, Note_on_c, 0, 82, 65
1, 623580, Note_on_c, 0, 58, 40
1, 623605, Note_off_c, 0, 81, 61
1, 623614, Note_on_c, 0, 79, 70
1, 623615, Note_off_c, 0, 82, 65
1, 623650, Note_off_c, 0, 58, 53
1, 623652, Note_off_c, 0, 79, 66
1, 623686, Note_on_c, 0, 76, 70
1, 623740, Note_off_c, 0, 76, 53
1, 623754, Note_on_c, 0, 73, 74
1, 623798, Note_off_c, 0, 73, 62
1, 623842, Note_on_c, 0, 57, 40
1, 623862, Note_on_c, 0, 53, 36
1, 623871, Note_on_c, 0, 74, 38
1, 624071, Note_on_c, 0, 86, 68
1, 624187, Control_c, 0, 64, 32
1, 624196, Note_off_c, 0, 74, 0
1, 624202, Control_c, 0, 64, 43
1, 624217, Control_c, 0, 64, 51
1, 624228, Poly_aftertouch_c, 0, 76, 127
1, 624232, Control_c, 0, 64, 58
1, 624233, Poly_aftertouch_c, 0, 74, 127
1, 624240, Note_on_c, 0, 62, 37
1, 624240, Note_off_c, 0, 57, 47
1, 624247, Control_c, 0, 64, 62
1, 624261, Control_c, 0, 64, 65
1, 624267, Poly_aftertouch_c, 0, 74, 0
1, 624272, Poly_aftertouch_c, 0, 76, 0
1, 624276, Control_c, 0, 64, 67
1, 624291, Control_c, 0, 64, 69
1, 624313, Control_c, 0, 64, 70
1, 624328, Control_c, 0, 64, 71
1, 624329, Note_off_c, 0, 53, 55
1, 624343, Control_c, 0, 64, 72
1, 624357, Control_c, 0, 64, 73
1, 624372, Control_c, 0, 64, 73
1, 624382, Note_on_c, 0, 77, 79
1, 624387, Control_c, 0, 64, 74
1, 624402, Control_c, 0, 64, 74
1, 624417, Control_c, 0, 64, 76
1, 624431, Control_c, 0, 64, 77
1, 624431, Control_c, 0, 67, 112
1, 624446, Control_c, 0, 64, 80
1, 624446, Control_c, 0, 67, 86
1, 624461, Control_c, 0, 64, 83
1, 624461, Control_c, 0, 67, 62
1, 624476, Control_c, 0, 64, 86
1, 624476, Control_c, 0, 67, 40
1, 624491, Control_c, 0, 64, 88
1, 624491, Control_c, 0, 67, 0
1, 624503, Note_off_c, 0, 86, 52
1, 624506, Control_c, 0, 64, 89
1, 624521, Control_c, 0, 64, 90
1, 624524, Note_on_c, 0, 58, 56
1, 624556, Note_on_c, 0, 55, 41
1, 624565, Control_c, 0, 64, 89
1, 624595, Control_c, 0, 64, 88
1, 624595, Note_off_c, 0, 62, 49
1, 624610, Control_c, 0, 64, 83
1, 624625, Control_c, 0, 64, 74
1, 624639, Control_c, 0, 64, 67
1, 624640, Note_off_c, 0, 58, 62
1, 624654, Control_c, 0, 64, 59
1, 624669, Control_c, 0, 64, 54
1, 624670, Note_on_c, 0, 76, 82
1, 624683, Control_c, 0, 64, 55
1, 624698, Control_c, 0, 64, 59
1, 624713, Control_c, 0, 64, 65
1, 624727, Note_off_c, 0, 77, 64
1, 624728, Control_c, 0, 64, 72
1, 624743, Control_c, 0, 64, 81
1, 624757, Control_c, 0, 64, 91
1, 624772, Control_c, 0, 64, 99
1, 624787, Control_c, 0, 64, 103
1, 624815, Note_on_c, 0, 67, 68
1, 624816, Control_c, 0, 64, 101
1, 624831, Control_c, 0, 64, 91
1, 624846, Control_c, 0, 64, 77
1, 624861, Control_c, 0, 64, 64
1, 624876, Control_c, 0, 64, 53
1, 624890, Control_c, 0, 64, 48
1, 624905, Control_c, 0, 64, 49
1, 624920, Control_c, 0, 64, 54
1, 624935, Note_off_c, 0, 55, 59
1, 624936, Control_c, 0, 64, 60
1, 624951, Control_c, 0, 64, 66
1, 624966, Control_c, 0, 64, 74
1, 624968, Note_on_c, 0, 82, 85
1, 624980, Control_c, 0, 64, 83
1, 624995, Control_c, 0, 64, 92
1, 625010, Control_c, 0, 64, 98
1, 625025, Control_c, 0, 64, 102
1, 625040, Control_c, 0, 64, 105
1, 625062, Control_c, 0, 64, 107
1, 625106, Control_c, 0, 64, 105
1, 625117, Note_on_c, 0, 65, 62
1, 625121, Control_c, 0, 64, 91
1, 625134, Note_on_c, 0, 57, 61
1, 625136, Control_c, 0, 64, 70
1, 625151, Control_c, 0, 64, 51
1, 625166, Control_c, 0, 64, 0
1, 625171, Note_off_c, 0, 67, 45
1, 625239, Control_c, 0, 64, 36
1, 625254, Control_c, 0, 64, 53
1, 625269, Note_on_c, 0, 81, 86
1, 625269, Control_c, 0, 64, 65
1, 625284, Control_c, 0, 64, 74
1, 625295, Note_off_c, 0, 82, 61
1, 625296, Note_off_c, 0, 76, 59
1, 625299, Control_c, 0, 64, 81
1, 625314, Control_c, 0, 64, 84
1, 625329, Control_c, 0, 64, 85
1, 625344, Control_c, 0, 64, 87
1, 625358, Control_c, 0, 64, 89
1, 625369, Note_off_c, 0, 65, 51
1, 625373, Control_c, 0, 64, 91
1, 625388, Control_c, 0, 64, 93
1, 625403, Control_c, 0, 64, 96
1, 625418, Control_c, 0, 64, 99
1, 625432, Note_on_c, 0, 64, 61
1, 625432, Control_c, 0, 64, 105
1, 625447, Control_c, 0, 64, 114
1, 625462, Control_c, 0, 64, 127
1, 625517, Note_off_c, 0, 64, 62
1, 625579, Note_off_c, 0, 57, 60
1, 625600, Note_off_c, 0, 81, 58
1, 625606, Note_on_c, 0, 73, 78
1, 625734, Note_off_c, 0, 73, 50
1, 625934, Note_on_c, 0, 73, 61
1, 625959, Control_c, 0, 64, 124
1, 625963, Note_on_c, 0, 67, 52
1, 625967, Note_on_c, 0, 50, 45
1, 625974, Control_c, 0, 64, 98
1, 625983, Note_on_c, 0, 38, 45
1, 625989, Control_c, 0, 64, 85
1, 626003, Control_c, 0, 64, 74
1, 626018, Control_c, 0, 64, 65
1, 626033, Control_c, 0, 64, 56
1, 626047, Control_c, 0, 64, 48
1, 626062, Control_c, 0, 64, 40
1, 626077, Control_c, 0, 64, 32
1, 626077, Control_c, 0, 67, 39
1, 626092, Control_c, 0, 64, 0
1, 626092, Control_c, 0, 67, 51
1, 626107, Control_c, 0, 67, 64
1, 626122, Control_c, 0, 67, 78
1, 626136, Control_c, 0, 67, 94
1, 626151, Control_c, 0, 67, 107
1, 626166, Control_c, 0, 67, 122
1, 626181, Control_c, 0, 67, 127
1, 626315, Control_c, 0, 64, 40
1, 626329, Control_c, 0, 64, 52
1, 626344, Control_c, 0, 64, 61
1, 626359, Control_c, 0, 64, 66
1, 626374, Control_c, 0, 64, 68
1, 626389, Control_c, 0, 64, 70
1, 626403, Control_c, 0, 64, 72
1, 626418, Control_c, 0, 64, 75
1, 626433, Control_c, 0, 64, 77
1, 626447, Control_c, 0, 64, 80
1, 626462, Control_c, 0, 64, 82
1, 626477, Control_c, 0, 64, 84
1, 626492, Control_c, 0, 64, 87
1, 626507, Control_c, 0, 64, 90
1, 626523, Control_c, 0, 64, 93
1, 626538, Control_c, 0, 64, 96
1, 626560, Control_c, 0, 64, 100
1, 626568, Note_off_c, 0, 73, 62
1, 626575, Control_c, 0, 64, 103
1, 626590, Control_c, 0, 64, 106
1, 626604, Control_c, 0, 64, 108
1, 626619, Control_c, 0, 64, 110
1, 626634, Control_c, 0, 64, 112
1, 626649, Control_c, 0, 64, 114
1, 626664, Control_c, 0, 64, 116
1, 626693, Control_c, 0, 64, 118
1, 626710, Note_on_c, 0, 74, 59
1, 626779, Note_on_c, 0, 73, 58
1, 626795, Note_off_c, 0, 74, 54
1, 626813, Note_off_c, 0, 73, 65
1, 626842, Note_on_c, 0, 71, 55
1, 626897, Note_off_c, 0, 67, 42
1, 626900, Control_c, 0, 64, 116
1, 626910, Note_on_c, 0, 73, 61
1, 626930, Control_c, 0, 64, 113
1, 626935, Note_off_c, 0, 71, 38
1, 626944, Control_c, 0, 64, 109
1, 626959, Control_c, 0, 64, 103
1, 626974, Control_c, 0, 64, 96
1, 626989, Control_c, 0, 64, 88
1, 627004, Control_c, 0, 64, 80
1, 627019, Control_c, 0, 64, 70
1, 627034, Control_c, 0, 64, 60
1, 627049, Control_c, 0, 64, 47
1, 627053, Note_on_c, 0, 76, 52
1, 627062, Note_off_c, 0, 73, 49
1, 627064, Control_c, 0, 64, 0
1, 627093, Note_on_c, 0, 65, 52
1, 627167, Control_c, 0, 64, 32
1, 627182, Control_c, 0, 64, 43
1, 627196, Control_c, 0, 64, 52
1, 627211, Control_c, 0, 64, 58
1, 627226, Control_c, 0, 64, 63
1, 627241, Control_c, 0, 64, 66
1, 627256, Control_c, 0, 64, 68
1, 627270, Control_c, 0, 64, 70
1, 627285, Control_c, 0, 64, 72
1, 627308, Control_c, 0, 64, 75
1, 627323, Control_c, 0, 64, 79
1, 627327, Note_off_c, 0, 65, 34
1, 627338, Control_c, 0, 64, 85
1, 627351, Note_on_c, 0, 74, 59
1, 627353, Control_c, 0, 64, 91
1, 627359, Note_off_c, 0, 76, 45
1, 627368, Control_c, 0, 64, 98
1, 627377, Note_off_c, 0, 74, 61
1, 627383, Control_c, 0, 64, 108
1, 627397, Control_c, 0, 64, 119
1, 627412, Control_c, 0, 64, 127
1, 627464, Note_on_c, 0, 65, 47
1, 627464, Note_on_c, 0, 74, 60
1, 627487, Control_c, 0, 64, 94
1, 627501, Control_c, 0, 64, 79
1, 627516, Control_c, 0, 64, 70
1, 627531, Control_c, 0, 64, 66
1, 627561, Control_c, 0, 64, 68
1, 627575, Control_c, 0, 64, 71
1, 627590, Control_c, 0, 64, 75
1, 627605, Control_c, 0, 64, 78
1, 627609, Note_off_c, 0, 74, 56
1, 627620, Control_c, 0, 64, 80
1, 627634, Control_c, 0, 64, 81
1, 627649, Control_c, 0, 64, 81
1, 627653, Note_on_c, 0, 76, 60
1, 627697, Note_off_c, 0, 76, 58
1, 627711, Note_on_c, 0, 74, 57
1, 627723, Note_off_c, 0, 50, 51
1, 627728, Note_off_c, 0, 65, 31
1, 627731, Note_off_c, 0, 74, 62
1, 627741, Note_on_c, 0, 73, 72
1, 627753, Control_c, 0, 64, 81
1, 627768, Control_c, 0, 64, 79
1, 627775, Note_off_c, 0, 38, 39
1, 627782, Control_c, 0, 64, 74
1, 627797, Note_on_c, 0, 74, 79
1, 627797, Control_c, 0, 64, 65
1, 627812, Control_c, 0, 64, 51
1, 627827, Control_c, 0, 64, 0
1, 627830, Note_off_c, 0, 73, 60
1, 627842, Control_c, 0, 67, 106
1, 627848, Note_on_c, 0, 77, 79
1, 627856, Control_c, 0, 67, 80
1, 627871, Control_c, 0, 67, 58
1, 627886, Control_c, 0, 67, 37
1, 627892, Note_off_c, 0, 74, 59
1, 627901, Control_c, 0, 67, 0
1, 627961, Control_c, 0, 64, 41
1, 627975, Control_c, 0, 64, 52
1, 627990, Control_c, 0, 64, 61
1, 628005, Control_c, 0, 64, 66
1, 628019, Control_c, 0, 64, 69
1, 628034, Control_c, 0, 64, 72
1, 628056, Control_c, 0, 64, 77
1, 628071, Control_c, 0, 64, 83
1, 628086, Control_c, 0, 64, 94
1, 628098, Note_on_c, 0, 75, 77
1, 628101, Control_c, 0, 64, 109
1, 628110, Note_off_c, 0, 77, 57
1, 628116, Control_c, 0, 64, 127
1, 628132, Note_off_c, 0, 75, 64
1, 628184, Note_on_c, 0, 75, 73
1, 628286, Note_off_c, 0, 75, 59
1, 628369, Note_on_c, 0, 77, 74
1, 628423, Note_on_c, 0, 75, 81
1, 628432, Note_off_c, 0, 77, 62
1, 628476, Note_off_c, 0, 75, 63
1, 628486, Note_on_c, 0, 74, 84
1, 628539, Note_on_c, 0, 75, 86
1, 628572, Note_off_c, 0, 74, 59
1, 628620, Control_c, 0, 64, 105
1, 628621, Note_on_c, 0, 79, 83
1, 628635, Control_c, 0, 64, 79
1, 628649, Control_c, 0, 64, 63
1, 628664, Control_c, 0, 64, 46
1, 628679, Control_c, 0, 64, 0
1, 628682, Note_off_c, 0, 75, 62
1, 628709, Control_c, 0, 64, 32
1, 628724, Control_c, 0, 64, 45
1, 628739, Control_c, 0, 64, 57
1, 628754, Control_c, 0, 64, 64
1, 628768, Control_c, 0, 64, 70
1, 628783, Control_c, 0, 64, 75
1, 628805, Control_c, 0, 64, 80
1, 628820, Control_c, 0, 64, 83
1, 628836, Control_c, 0, 64, 87
1, 628850, Control_c, 0, 64, 93
1, 628865, Control_c, 0, 64, 101
1, 628880, Control_c, 0, 64, 118
1, 628895, Control_c, 0, 64, 127
1, 628978, Note_on_c, 0, 77, 80
1, 629020, Note_off_c, 0, 79, 66
1, 629086, Note_off_c, 0, 77, 59
1, 629296, Note_on_c, 0, 77, 81
1, 629332, Note_on_c, 0, 58, 47
1, 629370, Control_c, 0, 64, 97
1, 629385, Control_c, 0, 64, 83
1, 629399, Control_c, 0, 64, 71
1, 629414, Control_c, 0, 64, 59
1, 629429, Control_c, 0, 64, 50
1, 629444, Control_c, 0, 64, 40
1, 629459, Control_c, 0, 64, 0
1, 629488, Note_on_c, 0, 65, 36
1, 629522, Note_off_c, 0, 65, 52
1, 629623, Note_on_c, 0, 62, 38
1, 629654, Note_off_c, 0, 62, 54
1, 629770, Note_on_c, 0, 65, 41
1, 629784, Note_off_c, 0, 58, 62
1, 629824, Note_off_c, 0, 65, 50
1, 629937, Note_on_c, 0, 58, 41
1, 630065, Note_on_c, 0, 82, 58
1, 630069, Note_on_c, 0, 65, 42
1, 630079, Note_off_c, 0, 77, 59
1, 630096, Note_off_c, 0, 65, 56
1, 630210, Note_on_c, 0, 62, 52
1, 630212, Note_on_c, 0, 77, 67
1, 630217, Note_off_c, 0, 82, 64
1, 630245, Note_off_c, 0, 62, 64
1, 630337, Note_off_c, 0, 77, 59
1, 630355, Note_on_c, 0, 65, 61
1, 630362, Note_on_c, 0, 74, 67
1, 630385, Note_off_c, 0, 65, 64
1, 630488, Note_off_c, 0, 74, 59
1, 630519, Note_on_c, 0, 75, 63
1, 630519, Note_off_c, 0, 58, 61
1, 630523, Note_on_c, 0, 60, 55
1, 630601, Note_on_c, 0, 77, 71
1, 630603, Note_off_c, 0, 75, 60
1, 630659, Note_off_c, 0, 77, 62
1, 630670, Note_on_c, 0, 65, 42
1, 630674, Control_c, 0, 67, 49
1, 630676, Note_on_c, 0, 79, 56
1, 630689, Control_c, 0, 67, 68
1, 630697, Note_off_c, 0, 65, 54
1, 630704, Control_c, 0, 67, 88
1, 630718, Control_c, 0, 67, 111
1, 630733, Control_c, 0, 67, 127
1, 630745, Note_on_c, 0, 77, 61
1, 630768, Note_off_c, 0, 79, 41
1, 630804, Note_on_c, 0, 63, 49
1, 630808, Note_on_c, 0, 75, 67
1, 630814, Note_off_c, 0, 77, 63
1, 630858, Note_off_c, 0, 63, 55
1, 630872, Note_on_c, 0, 74, 68
1, 630873, Note_off_c, 0, 75, 64
1, 630907, Note_off_c, 0, 74, 61
1, 630920, Note_on_c, 0, 65, 50
1, 630944, Note_on_c, 0, 72, 57
1, 630960, Note_off_c, 0, 65, 62
1, 630972, Note_off_c, 0, 72, 63
1, 631017, Note_on_c, 0, 70, 61
1, 631076, Note_off_c, 0, 60, 42
1, 631090, Note_off_c, 0, 70, 60
1, 631106, Note_on_c, 0, 69, 59
1, 631122, Note_on_c, 0, 53, 16
1, 631248, Note_on_c, 0, 65, 47
1, 631287, Note_off_c, 0, 65, 63
1, 631397, Note_on_c, 0, 63, 50
1, 631451, Note_off_c, 0, 63, 52
1, 631467, Control_c, 0, 64, 44
1, 631482, Control_c, 0, 64, 57
1, 631497, Control_c, 0, 64, 64
1, 631497, Control_c, 0, 67, 125
1, 631502, Note_off_c, 0, 69, 62
1, 631512, Control_c, 0, 64, 68
1, 631512, Control_c, 0, 67, 93
1, 631527, Control_c, 0, 64, 71
1, 631527, Control_c, 0, 67, 58
1, 631536, Note_on_c, 0, 65, 60
1, 631541, Control_c, 0, 64, 74
1, 631541, Control_c, 0, 67, 0
1, 631556, Control_c, 0, 64, 77
1, 631571, Control_c, 0, 64, 80
1, 631576, Note_off_c, 0, 53, 40
1, 631586, Control_c, 0, 64, 83
1, 631600, Control_c, 0, 64, 84
1, 631615, Control_c, 0, 64, 85
1, 631644, Note_off_c, 0, 65, 48
1, 631660, Control_c, 0, 64, 84
1, 631675, Control_c, 0, 64, 84
1, 631687, Note_on_c, 0, 58, 59
1, 631690, Note_on_c, 0, 70, 64
1, 631690, Control_c, 0, 64, 81
1, 631705, Control_c, 0, 64, 76
1, 631720, Control_c, 0, 64, 70
1, 631734, Control_c, 0, 64, 63
1, 631749, Control_c, 0, 64, 53
1, 631764, Control_c, 0, 64, 45
1, 631779, Control_c, 0, 64, 37
1, 631800, Control_c, 0, 64, 32
1, 631815, Control_c, 0, 64, 0
1, 631818, Note_off_c, 0, 70, 63
1, 631850, Note_on_c, 0, 72, 69
1, 631854, Note_on_c, 0, 65, 44
1, 631884, Note_off_c, 0, 65, 54
1, 631919, Note_off_c, 0, 72, 53
1, 631920, Note_on_c, 0, 74, 76
1, 631963, Note_on_c, 0, 62, 46
1, 631981, Note_on_c, 0, 75, 76
1, 631990, Note_off_c, 0, 74, 63
1, 632033, Note_off_c, 0, 62, 57
1, 632054, Note_on_c, 0, 77, 81
1, 632059, Note_off_c, 0, 75, 61
1, 632077, Note_off_c, 0, 77, 65
1, 632094, Note_on_c, 0, 65, 50
1, 632101, Note_off_c, 0, 58, 57
1, 632116, Note_on_c, 0, 79, 76
1, 632194, Note_on_c, 0, 81, 80
1, 632195, Note_off_c, 0, 79, 40
1, 632229, Note_off_c, 0, 65, 37
1, 632231, Note_on_c, 0, 58, 61
1, 632265, Note_on_c, 0, 82, 74
1, 632288, Note_off_c, 0, 81, 58
1, 632332, Note_on_c, 0, 84, 81
1, 632346, Note_off_c, 0, 82, 60
1, 632375, Note_on_c, 0, 65, 55
1, 632405, Note_on_c, 0, 86, 87
1, 632414, Note_off_c, 0, 65, 59
1, 632444, Note_off_c, 0, 84, 53
1, 632483, Note_on_c, 0, 81, 71
1, 632513, Note_off_c, 0, 86, 61
1, 632524, Note_on_c, 0, 62, 57
1, 632546, Note_on_c, 0, 82, 79
1, 632551, Note_off_c, 0, 81, 64
1, 632579, Note_off_c, 0, 62, 58
1, 632599, Note_off_c, 0, 82, 62
1, 632612, Note_on_c, 0, 77, 77
1, 632662, Note_off_c, 0, 77, 58
1, 632662, Note_on_c, 0, 65, 43
1, 632686, Note_on_c, 0, 79, 72
1, 632691, Note_off_c, 0, 65, 57
1, 632754, Note_on_c, 0, 74, 74
1, 632793, Note_off_c, 0, 79, 53
1, 632815, Note_on_c, 0, 75, 74
1, 632819, Note_off_c, 0, 74, 59
1, 632824, Note_on_c, 0, 60, 63
1, 632833, Note_off_c, 0, 58, 55
1, 632888, Note_on_c, 0, 77, 70
1, 632889, Note_off_c, 0, 75, 62
1, 632954, Note_off_c, 0, 77, 64
1, 632959, Note_on_c, 0, 79, 71
1, 632977, Note_on_c, 0, 65, 46
1, 633002, Note_off_c, 0, 65, 56
1, 633039, Note_on_c, 0, 77, 72
1, 633040, Control_c, 0, 67, 41
1, 633055, Control_c, 0, 67, 55
1, 633070, Control_c, 0, 67, 72
1, 633083, Note_off_c, 0, 79, 36
1, 633085, Control_c, 0, 67, 91
1, 633096, Note_on_c, 0, 63, 61
1, 633100, Control_c, 0, 67, 119
1, 633103, Note_on_c, 0, 75, 76
1, 633114, Control_c, 0, 67, 127
1, 633118, Note_off_c, 0, 77, 61
1, 633143, Note_off_c, 0, 63, 55
1, 633173, Note_on_c, 0, 74, 75
1, 633173, Note_off_c, 0, 75, 63
1, 633206, Note_off_c, 0, 74, 59
1, 633222, Note_on_c, 0, 65, 63
1, 633228, Note_on_c, 0, 72, 68
1, 633255, Note_off_c, 0, 65, 61
1, 633255, Note_off_c, 0, 72, 63
1, 633323, Note_on_c, 0, 70, 64
1, 633385, Note_off_c, 0, 60, 41
1, 633392, Note_on_c, 0, 53, 43
1, 633392, Note_off_c, 0, 70, 63
1, 633399, Note_on_c, 0, 69, 67
1, 633538, Note_on_c, 0, 65, 59
1, 633570, Note_off_c, 0, 65, 64
1, 633684, Note_on_c, 0, 63, 71
1, 633684, Control_c, 0, 67, 105
1, 633699, Control_c, 0, 64, 38
1, 633699, Control_c, 0, 67, 63
1, 633715, Note_off_c, 0, 69, 64
1, 633715, Control_c, 0, 64, 55
1, 633715, Control_c, 0, 67, 0
1, 633730, Control_c, 0, 64, 63
1, 633744, Control_c, 0, 64, 66
1, 633756, Note_off_c, 0, 63, 56
1, 633759, Control_c, 0, 64, 69
1, 633774, Control_c, 0, 64, 72
1, 633788, Control_c, 0, 64, 74
1, 633803, Control_c, 0, 64, 78
1, 633818, Control_c, 0, 64, 82
1, 633827, Note_on_c, 0, 65, 72
1, 633833, Control_c, 0, 64, 87
1, 633848, Control_c, 0, 64, 91
1, 633857, Note_off_c, 0, 53, 52
1, 633863, Control_c, 0, 64, 95
1, 633874, Note_off_c, 0, 65, 52
1, 633937, Control_c, 0, 64, 96
1, 633952, Control_c, 0, 64, 92
1, 633966, Note_on_c, 0, 70, 81
1, 633967, Control_c, 0, 64, 86
1, 633982, Control_c, 0, 64, 78
1, 633983, Note_on_c, 0, 58, 65
1, 633996, Control_c, 0, 64, 70
1, 634011, Control_c, 0, 64, 61
1, 634026, Control_c, 0, 64, 55
1, 634048, Control_c, 0, 64, 52
1, 634077, Control_c, 0, 64, 53
1, 634114, Note_off_c, 0, 70, 63
1, 634140, Note_on_c, 0, 65, 61
1, 634140, Note_on_c, 0, 72, 77
1, 634166, Control_c, 0, 64, 52
1, 634173, Note_off_c, 0, 65, 62
1, 634206, Note_on_c, 0, 74, 87
1, 634212, Note_off_c, 0, 72, 57
1, 634271, Note_on_c, 0, 62, 54
1, 634272, Note_on_c, 0, 75, 83
1, 634289, Note_off_c, 0, 74, 65
1, 634346, Note_on_c, 0, 77, 86
1, 634356, Note_off_c, 0, 75, 62
1, 634377, Note_off_c, 0, 77, 63
1, 634382, Note_off_c, 0, 62, 52
1, 634403, Control_c, 0, 64, 52
1, 634411, Note_on_c, 0, 79, 84
1, 634417, Note_on_c, 0, 65, 57
1, 634417, Control_c, 0, 64, 51
1, 634428, Note_off_c, 0, 58, 58
1, 634432, Control_c, 0, 64, 50
1, 634447, Control_c, 0, 64, 48
1, 634462, Control_c, 0, 64, 45
1, 634477, Control_c, 0, 64, 39
1, 634483, Note_on_c, 0, 81, 93
1, 634492, Control_c, 0, 64, 30
1, 634507, Control_c, 0, 64, 0
1, 634514, Note_off_c, 0, 79, 59
1, 634552, Note_on_c, 0, 82, 90
1, 634572, Note_on_c, 0, 58, 64
1, 634572, Note_off_c, 0, 65, 50
1, 634593, Note_off_c, 0, 81, 62
1, 634700, Note_on_c, 0, 84, 90
1, 634701, Note_on_c, 0, 65, 64
1, 634730, Control_c, 0, 64, 44
1, 634745, Control_c, 0, 64, 57
1, 634754, Note_off_c, 0, 82, 58
1, 634759, Control_c, 0, 64, 64
1, 634774, Control_c, 0, 64, 68
1, 634796, Control_c, 0, 64, 73
1, 634811, Control_c, 0, 64, 77
1, 634826, Control_c, 0, 64, 84
1, 634829, Note_off_c, 0, 65, 52
1, 634841, Control_c, 0, 64, 92
1, 634844, Note_on_c, 0, 86, 87
1, 634854, Note_off_c, 0, 84, 59
1, 634856, Control_c, 0, 64, 105
1, 634862, Note_on_c, 0, 62, 62
1, 634871, Control_c, 0, 64, 127
1, 634885, Note_off_c, 0, 86, 65
1, 634963, Note_off_c, 0, 62, 62
1, 634994, Note_on_c, 0, 86, 90
1, 634996, Note_on_c, 0, 65, 63
1, 635031, Note_off_c, 0, 86, 67
1, 635071, Note_off_c, 0, 65, 58
1, 635145, Note_off_c, 0, 58, 57
1, 635157, Note_on_c, 0, 86, 82
1, 635166, Control_c, 0, 64, 103
1, 635175, Note_on_c, 0, 57, 49
1, 635181, Control_c, 0, 64, 83
1, 635196, Control_c, 0, 64, 69
1, 635210, Control_c, 0, 64, 56
1, 635225, Control_c, 0, 64, 35
1, 635240, Control_c, 0, 64, 0
1, 635240, Control_c, 0, 67, 42
1, 635255, Control_c, 0, 67, 68
1, 635270, Control_c, 0, 67, 104
1, 635285, Control_c, 0, 67, 127
1, 635310, Note_on_c, 0, 62, 51
1, 635360, Control_c, 0, 64, 32
1, 635375, Control_c, 0, 64, 43
1, 635389, Control_c, 0, 64, 52
1, 635404, Control_c, 0, 64, 59
1, 635419, Control_c, 0, 64, 63
1, 635434, Control_c, 0, 64, 66
1, 635443, Note_off_c, 0, 62, 53
1, 635449, Control_c, 0, 64, 69
1, 635464, Control_c, 0, 64, 71
1, 635476, Note_on_c, 0, 60, 38
1, 635479, Control_c, 0, 64, 74
1, 635494, Control_c, 0, 64, 77
1, 635508, Control_c, 0, 64, 80
1, 635523, Control_c, 0, 64, 84
1, 635545, Control_c, 0, 64, 88
1, 635559, Control_c, 0, 64, 91
1, 635575, Control_c, 0, 64, 94
1, 635589, Note_off_c, 0, 60, 57
1, 635590, Control_c, 0, 64, 95
1, 635620, Control_c, 0, 64, 97
1, 635625, Note_on_c, 0, 62, 42
1, 635652, Note_off_c, 0, 57, 36
1, 635738, Control_c, 0, 64, 94
1, 635753, Control_c, 0, 64, 90
1, 635768, Control_c, 0, 64, 83
1, 635783, Control_c, 0, 64, 75
1, 635783, Note_on_c, 0, 57, 49
1, 635783, Note_on_c, 0, 78, 60
1, 635798, Control_c, 0, 64, 66
1, 635813, Control_c, 0, 64, 54
1, 635818, Note_off_c, 0, 62, 37
1, 635827, Control_c, 0, 64, 37
1, 635842, Control_c, 0, 64, 0
1, 635916, Control_c, 0, 64, 41
1, 635926, Note_off_c, 0, 86, 61
1, 635931, Control_c, 0, 64, 55
1, 635932, Note_on_c, 0, 62, 53
1, 635946, Control_c, 0, 64, 64
1, 635960, Control_c, 0, 64, 69
1, 635975, Control_c, 0, 64, 73
1, 635985, Note_off_c, 0, 78, 59
1, 635990, Control_c, 0, 64, 77
1, 636005, Control_c, 0, 64, 81
1, 636020, Control_c, 0, 64, 86
1, 636034, Control_c, 0, 64, 91
1, 636049, Control_c, 0, 64, 100
1, 636064, Control_c, 0, 64, 115
1, 636072, Note_off_c, 0, 62, 53
1, 636075, Note_on_c, 0, 60, 57
1, 636079, Control_c, 0, 64, 127
1, 636094, Control_c, 0, 67, 122
1, 636110, Control_c, 0, 67, 83
1, 636125, Control_c, 0, 67, 44
1, 636139, Control_c, 0, 67, 0
1, 636225, Note_off_c, 0, 60, 59
1, 636227, Note_on_c, 0, 62, 63
1, 636367, Control_c, 0, 64, 111
1, 636368, Note_off_c, 0, 57, 60
1, 636373, Note_off_c, 0, 62, 53
1, 636382, Control_c, 0, 64, 92
1, 636388, Note_on_c, 0, 67, 77
1, 636390, Note_on_c, 0, 55, 52
1, 636397, Control_c, 0, 64, 80
1, 636412, Control_c, 0, 64, 70
1, 636427, Control_c, 0, 64, 60
1, 636441, Control_c, 0, 64, 47
1, 636441, Control_c, 0, 67, 62
1, 636456, Control_c, 0, 64, 0
1, 636456, Control_c, 0, 67, 98
1, 636471, Control_c, 0, 67, 127
1, 636513, Note_off_c, 0, 67, 54
1, 636531, Note_on_c, 0, 69, 61
1, 636542, Note_on_c, 0, 62, 50
1, 636576, Note_off_c, 0, 69, 60
1, 636604, Note_on_c, 0, 70, 74
1, 636649, Note_off_c, 0, 70, 65
1, 636651, Note_off_c, 0, 62, 57
1, 636677, Note_on_c, 0, 58, 43
1, 636677, Note_on_c, 0, 72, 67
1, 636729, Note_off_c, 0, 72, 56
1, 636747, Note_on_c, 0, 74, 76
1, 636784, Note_off_c, 0, 55, 57
1, 636789, Note_off_c, 0, 58, 58
1, 636803, Note_on_c, 0, 62, 38
1, 636814, Note_off_c, 0, 74, 63
1, 636818, Note_on_c, 0, 76, 68
1, 636865, Note_off_c, 0, 76, 61
1, 636889, Note_on_c, 0, 78, 71
1, 636916, Note_off_c, 0, 78, 66
1, 636945, Note_off_c, 0, 62, 55
1, 636960, Note_on_c, 0, 79, 65
1, 636972, Note_on_c, 0, 53, 39
1, 637005, Note_off_c, 0, 79, 50
1, 637040, Note_on_c, 0, 81, 61
1, 637096, Note_off_c, 0, 81, 60
1, 637099, Note_on_c, 0, 82, 60
1, 637108, Note_on_c, 0, 62, 33
1, 637177, Note_on_c, 0, 84, 65
1, 637181, Note_off_c, 0, 82, 58
1, 637221, Note_off_c, 0, 62, 52
1, 637247, Note_off_c, 0, 84, 63
1, 637252, Note_on_c, 0, 58, 41
1, 637261, Note_on_c, 0, 86, 59
1, 637279, Note_off_c, 0, 86, 62
1, 637310, Note_off_c, 0, 53, 45
1, 637401, Note_on_c, 0, 62, 27
1, 637412, Note_on_c, 0, 86, 41
1, 637440, Note_off_c, 0, 86, 54
1, 637544, Note_off_c, 0, 62, 37
1, 637559, Note_off_c, 0, 58, 39
1, 637565, Note_on_c, 0, 52, 35
1, 637577, Note_on_c, 0, 84, 53
1, 637719, Note_on_c, 0, 60, 41
1, 637840, Note_off_c, 0, 60, 51
1, 637873, Note_on_c, 0, 58, 40
1, 637999, Note_off_c, 0, 58, 57
1, 638022, Note_on_c, 0, 60, 41
1, 638190, Note_on_c, 0, 76, 49
1, 638199, Note_off_c, 0, 60, 56
1, 638210, Note_on_c, 0, 55, 27
1, 638221, Note_off_c, 0, 52, 51
1, 638337, Note_on_c, 0, 60, 52
1, 638353, Control_c, 0, 64, 30
1, 638368, Control_c, 0, 64, 43
1, 638368, Control_c, 0, 67, 118
1, 638383, Control_c, 0, 64, 54
1, 638383, Control_c, 0, 67, 96
1, 638393, Note_off_c, 0, 76, 61
1, 638398, Control_c, 0, 64, 60
1, 638398, Control_c, 0, 67, 75
1, 638411, Note_off_c, 0, 84, 61
1, 638413, Control_c, 0, 64, 62
1, 638413, Control_c, 0, 67, 52
1, 638427, Control_c, 0, 64, 63
1, 638427, Control_c, 0, 67, 0
1, 638442, Control_c, 0, 64, 65
1, 638457, Control_c, 0, 64, 66
1, 638472, Control_c, 0, 64, 68
1, 638475, Note_on_c, 0, 58, 54
1, 638479, Note_off_c, 0, 60, 54
1, 638487, Control_c, 0, 64, 70
1, 638503, Control_c, 0, 64, 72
1, 638518, Control_c, 0, 64, 74
1, 638540, Control_c, 0, 64, 76
1, 638555, Control_c, 0, 64, 78
1, 638570, Control_c, 0, 64, 80
1, 638585, Control_c, 0, 64, 82
1, 638600, Control_c, 0, 64, 83
1, 638615, Control_c, 0, 64, 84
1, 638629, Control_c, 0, 64, 84
1, 638633, Note_on_c, 0, 60, 57
1, 638644, Control_c, 0, 64, 85
1, 638678, Note_off_c, 0, 58, 47
1, 638733, Control_c, 0, 64, 84
1, 638763, Control_c, 0, 64, 83
1, 638767, Note_off_c, 0, 60, 54
1, 638776, Note_on_c, 0, 65, 69
1, 638778, Control_c, 0, 64, 80
1, 638782, Note_on_c, 0, 53, 56
1, 638792, Control_c, 0, 64, 76
1, 638807, Control_c, 0, 64, 71
1, 638820, Note_off_c, 0, 55, 41
1, 638822, Control_c, 0, 64, 65
1, 638837, Control_c, 0, 64, 59
1, 638852, Control_c, 0, 64, 52
1, 638866, Control_c, 0, 64, 46
1, 638881, Control_c, 0, 64, 42
1, 638896, Control_c, 0, 64, 39
1, 638911, Control_c, 0, 64, 37
1, 638924, Note_off_c, 0, 65, 57
1, 638926, Control_c, 0, 64, 36
1, 638934, Note_on_c, 0, 67, 62
1, 638938, Note_on_c, 0, 60, 54
1, 638940, Control_c, 0, 64, 35
1, 638955, Control_c, 0, 64, 34
1, 638970, Control_c, 0, 64, 33
1, 638984, Control_c, 0, 64, 32
1, 638999, Control_c, 0, 64, 32
1, 639002, Note_on_c, 0, 68, 67
1, 639009, Note_off_c, 0, 67, 62
1, 639062, Note_off_c, 0, 68, 60
1, 639068, Note_on_c, 0, 70, 80
1, 639081, Note_on_c, 0, 56, 51
1, 639089, Note_off_c, 0, 60, 56
1, 639094, Note_off_c, 0, 70, 67
1, 639137, Note_on_c, 0, 72, 79
1, 639175, Note_off_c, 0, 56, 58
1, 639177, Control_c, 0, 64, 30
1, 639192, Control_c, 0, 64, 0
1, 639200, Note_off_c, 0, 72, 60
1, 639205, Note_on_c, 0, 74, 81
1, 639208, Note_off_c, 0, 53, 56
1, 639216, Note_on_c, 0, 60, 52
1, 639247, Note_off_c, 0, 74, 62
1, 639270, Note_on_c, 0, 76, 80
1, 639315, Note_off_c, 0, 76, 63
1, 639344, Note_on_c, 0, 77, 85
1, 639357, Note_on_c, 0, 53, 62
1, 639373, Note_off_c, 0, 60, 37
1, 639409, Note_on_c, 0, 79, 81
1, 639417, Note_off_c, 0, 77, 62
1, 639482, Note_on_c, 0, 80, 84
1, 639504, Note_on_c, 0, 60, 63
1, 639512, Note_off_c, 0, 79, 60
1, 639546, Note_on_c, 0, 82, 88
1, 639607, Note_off_c, 0, 80, 62
1, 639616, Note_on_c, 0, 84, 88
1, 639628, Note_off_c, 0, 82, 64
1, 639645, Control_c, 0, 64, 35
1, 639648, Note_on_c, 0, 56, 62
1, 639653, Note_off_c, 0, 84, 67
1, 639657, Note_off_c, 0, 60, 57
1, 639660, Control_c, 0, 64, 51
1, 639675, Control_c, 0, 64, 61
1, 639689, Control_c, 0, 64, 66
1, 639704, Control_c, 0, 64, 69
1, 639719, Control_c, 0, 64, 71
1, 639733, Control_c, 0, 64, 74
1, 639744, Note_off_c, 0, 56, 63
1, 639748, Control_c, 0, 64, 79
1, 639750, Note_off_c, 0, 53, 61
1, 639763, Control_c, 0, 64, 85
1, 639765, Note_on_c, 0, 84, 92
1, 639778, Control_c, 0, 64, 95
1, 639784, Note_on_c, 0, 60, 72
1, 639793, Control_c, 0, 64, 115
1, 639807, Note_off_c, 0, 84, 66
1, 639807, Control_c, 0, 64, 127
1, 639852, Note_off_c, 0, 60, 59
1, 639912, Note_on_c, 0, 84, 96
1, 639919, Note_on_c, 0, 49, 77
1, 639926, Control_c, 0, 64, 88
1, 639941, Control_c, 0, 64, 65
1, 639956, Control_c, 0, 64, 40
1, 639971, Control_c, 0, 64, 0
1, 640015, Control_c, 0, 64, 33
1, 640037, Control_c, 0, 64, 53
1, 640052, Control_c, 0, 64, 63
1, 640066, Control_c, 0, 64, 70
1, 640072, Note_on_c, 0, 56, 80
1, 640081, Control_c, 0, 64, 76
1, 640096, Control_c, 0, 64, 80
1, 640111, Control_c, 0, 64, 84
1, 640120, Note_off_c, 0, 84, 62
1, 640126, Control_c, 0, 64, 89
1, 640141, Control_c, 0, 64, 95
1, 640153, Note_on_c, 0, 77, 86
1, 640156, Control_c, 0, 64, 102
1, 640171, Control_c, 0, 64, 113
1, 640185, Control_c, 0, 64, 127
1, 640230, Note_off_c, 0, 56, 56
1, 640364, Note_on_c, 0, 89, 91
1, 640382, Note_on_c, 0, 53, 62
1, 640393, Control_c, 0, 64, 104
1, 640408, Control_c, 0, 64, 82
1, 640423, Control_c, 0, 64, 68
1, 640437, Control_c, 0, 64, 56
1, 640452, Control_c, 0, 64, 52
1, 640467, Control_c, 0, 64, 53
1, 640482, Control_c, 0, 64, 57
1, 640497, Control_c, 0, 64, 62
1, 640511, Control_c, 0, 64, 67
1, 640526, Control_c, 0, 64, 74
1, 640541, Control_c, 0, 64, 82
1, 640543, Note_on_c, 0, 56, 67
1, 640555, Control_c, 0, 64, 86
1, 640570, Control_c, 0, 64, 90
1, 640585, Control_c, 0, 64, 94
1, 640600, Control_c, 0, 64, 97
1, 640607, Note_off_c, 0, 49, 59
1, 640615, Control_c, 0, 64, 100
1, 640630, Control_c, 0, 64, 103
1, 640645, Control_c, 0, 64, 108
1, 640659, Control_c, 0, 64, 112
1, 640674, Control_c, 0, 64, 116
1, 640689, Control_c, 0, 64, 122
1, 640693, Note_on_c, 0, 49, 80
1, 640704, Control_c, 0, 64, 127
1, 640733, Note_off_c, 0, 53, 26
1, 640737, Note_off_c, 0, 56, 56
1, 640857, Note_on_c, 0, 56, 78
1, 641001, Note_on_c, 0, 87, 81
1, 641005, Note_on_c, 0, 53, 69
1, 641054, Note_off_c, 0, 56, 57
1, 641130, Note_off_c, 0, 53, 59
1, 641149, Note_on_c, 0, 56, 73
1, 641157, Note_on_c, 0, 85, 91
1, 641166, Note_off_c, 0, 49, 56
1, 641201, Note_off_c, 0, 77, 62
1, 641208, Note_off_c, 0, 56, 59
1, 641304, Control_c, 0, 64, 100
1, 641308, Note_on_c, 0, 56, 78
1, 641315, Note_on_c, 0, 84, 90
1, 641319, Control_c, 0, 64, 77
1, 641323, Note_on_c, 0, 53, 61
1, 641330, Note_on_c, 0, 49, 55
1, 641334, Control_c, 0, 64, 59
1, 641349, Control_c, 0, 64, 0
1, 641371, Note_off_c, 0, 87, 55
1, 641387, Note_off_c, 0, 85, 60
1, 641417, Note_off_c, 0, 89, 54
1, 641438, Control_c, 0, 64, 43
1, 641452, Control_c, 0, 64, 58
1, 641453, Note_on_c, 0, 83, 87
1, 641464, Note_off_c, 0, 84, 66
1, 641467, Control_c, 0, 64, 66
1, 641482, Control_c, 0, 64, 71
1, 641497, Control_c, 0, 64, 76
1, 641512, Control_c, 0, 64, 80
1, 641532, Note_off_c, 0, 83, 65
1, 641534, Control_c, 0, 64, 83
1, 641549, Control_c, 0, 64, 85
1, 641565, Control_c, 0, 64, 88
1, 641579, Control_c, 0, 64, 90
1, 641594, Control_c, 0, 64, 90
1, 641609, Control_c, 0, 64, 91
1, 641631, Note_on_c, 0, 80, 91
1, 641666, Poly_aftertouch_c, 0, 51, 127
1, 641817, Control_c, 0, 64, 90
1, 641845, Poly_aftertouch_c, 0, 51, 0
1, 641847, Control_c, 0, 64, 89
1, 641862, Control_c, 0, 64, 86
1, 641876, Control_c, 0, 64, 82
1, 641891, Control_c, 0, 64, 76
1, 641906, Control_c, 0, 64, 67
1, 641920, Control_c, 0, 64, 57
1, 641929, Note_on_c, 0, 59, 79
1, 641935, Control_c, 0, 64, 42
1, 641950, Control_c, 0, 64, 0
1, 641971, Note_off_c, 0, 56, 60
1, 642094, Note_off_c, 0, 80, 62
1, 642099, Note_on_c, 0, 79, 65
1, 642143, Control_c, 0, 64, 39
1, 642158, Control_c, 0, 64, 47
1, 642170, Note_on_c, 0, 80, 79
1, 642173, Control_c, 0, 64, 52
1, 642183, Note_off_c, 0, 79, 57
1, 642188, Control_c, 0, 64, 55
1, 642202, Control_c, 0, 64, 58
1, 642217, Control_c, 0, 64, 61
1, 642231, Note_off_c, 0, 80, 62
1, 642232, Control_c, 0, 64, 64
1, 642239, Note_on_c, 0, 82, 82
1, 642247, Control_c, 0, 64, 67
1, 642262, Control_c, 0, 64, 70
1, 642284, Control_c, 0, 64, 74
1, 642299, Control_c, 0, 64, 77
1, 642312, Note_on_c, 0, 80, 83
1, 642314, Control_c, 0, 64, 80
1, 642328, Control_c, 0, 64, 82
1, 642343, Control_c, 0, 64, 84
1, 642347, Note_off_c, 0, 82, 62
1, 642358, Control_c, 0, 64, 85
1, 642370, Note_off_c, 0, 59, 55
1, 642373, Control_c, 0, 64, 85
1, 642379, Note_on_c, 0, 79, 79
1, 642379, Note_off_c, 0, 49, 39
1, 642393, Note_off_c, 0, 80, 63
1, 642412, Note_off_c, 0, 53, 37
1, 642431, Note_off_c, 0, 79, 65
1, 642439, Note_on_c, 0, 77, 72
1, 642462, Control_c, 0, 64, 84
1, 642476, Control_c, 0, 64, 77
1, 642491, Control_c, 0, 64, 67
1, 642507, Control_c, 0, 64, 54
1, 642517, Note_on_c, 0, 76, 76
1, 642522, Control_c, 0, 64, 36
1, 642536, Note_off_c, 0, 77, 53
1, 642537, Control_c, 0, 64, 0
1, 642537, Note_on_c, 0, 60, 55
1, 642538, Note_on_c, 0, 55, 49
1, 642545, Note_on_c, 0, 48, 56
1, 642654, Note_off_c, 0, 76, 60
1, 642669, Note_on_c, 0, 84, 72
1, 642675, Note_off_c, 0, 55, 63
1, 642677, Note_off_c, 0, 60, 64
1, 642683, Note_off_c, 0, 48, 63
1, 642695, Note_off_c, 0, 84, 64
1, 642815, Note_on_c, 0, 84, 66
1, 642859, Note_off_c, 0, 84, 65
1, 642957, Note_on_c, 0, 84, 73
1, 642980, Note_off_c, 0, 84, 69
1, 643077, Control_c, 0, 67, 47
1, 643092, Control_c, 0, 67, 81
1, 643107, Control_c, 0, 67, 127
1, 643122, Note_on_c, 0, 84, 70
1, 643240, Control_c, 0, 64, 33
1, 643255, Control_c, 0, 64, 43
1, 643270, Control_c, 0, 64, 51
1, 643274, Note_on_c, 0, 89, 65
1, 643284, Control_c, 0, 64, 56
1, 643301, Control_c, 0, 64, 59
1, 643315, Control_c, 0, 64, 60
1, 643330, Control_c, 0, 64, 62
1, 643345, Control_c, 0, 64, 63
1, 643360, Control_c, 0, 64, 64
1, 643374, Control_c, 0, 64, 65
1, 643389, Control_c, 0, 64, 66
1, 643404, Control_c, 0, 64, 68
1, 643419, Control_c, 0, 64, 69
1, 643429, Note_on_c, 0, 86, 61
1, 643434, Control_c, 0, 64, 70
1, 643438, Note_off_c, 0, 84, 37
1, 643448, Control_c, 0, 64, 72
1, 643463, Control_c, 0, 64, 73
1, 643478, Control_c, 0, 64, 74
1, 643493, Control_c, 0, 64, 75
1, 643508, Control_c, 0, 64, 76
1, 643522, Control_c, 0, 64, 77
1, 643537, Control_c, 0, 64, 77
1, 643552, Control_c, 0, 64, 78
1, 643573, Note_on_c, 0, 83, 53
1, 643685, Control_c, 0, 64, 76
1, 643700, Control_c, 0, 64, 73
1, 643715, Control_c, 0, 64, 67
1, 643721, Note_on_c, 0, 84, 60
1, 643730, Control_c, 0, 64, 59
1, 643744, Note_off_c, 0, 83, 52
1, 643745, Control_c, 0, 64, 45
1, 643757, Note_off_c, 0, 86, 59
1, 643760, Control_c, 0, 64, 29
1, 643781, Control_c, 0, 64, 0
1, 643790, Note_off_c, 0, 89, 56
1, 643872, Note_on_c, 0, 77, 56
1, 643915, Control_c, 0, 64, 31
1, 643930, Control_c, 0, 64, 39
1, 643944, Control_c, 0, 64, 47
1, 643959, Control_c, 0, 64, 55
1, 643974, Control_c, 0, 64, 60
1, 643989, Control_c, 0, 64, 63
1, 644004, Control_c, 0, 64, 65
1, 644019, Control_c, 0, 64, 67
1, 644031, Note_on_c, 0, 74, 47
1, 644034, Control_c, 0, 64, 68
1, 644037, Note_off_c, 0, 77, 62
1, 644048, Control_c, 0, 64, 70
1, 644063, Control_c, 0, 64, 71
1, 644078, Control_c, 0, 64, 72
1, 644093, Control_c, 0, 64, 74
1, 644105, Note_off_c, 0, 84, 37
1, 644108, Control_c, 0, 64, 75
1, 644123, Control_c, 0, 64, 75
1, 644138, Control_c, 0, 64, 76
1, 644160, Note_off_c, 0, 74, 54
1, 644189, Note_on_c, 0, 71, 44
1, 644271, Control_c, 0, 64, 74
1, 644286, Control_c, 0, 64, 71
1, 644301, Control_c, 0, 64, 63
1, 644314, Note_off_c, 0, 71, 42
1, 644316, Control_c, 0, 64, 48
1, 644330, Control_c, 0, 64, 30
1, 644334, Note_on_c, 0, 72, 45
1, 644345, Control_c, 0, 64, 0
1, 644375, Control_c, 0, 64, 30
1, 644390, Control_c, 0, 64, 38
1, 644404, Control_c, 0, 64, 48
1, 644419, Control_c, 0, 64, 57
1, 644434, Control_c, 0, 64, 62
1, 644449, Control_c, 0, 64, 64
1, 644464, Control_c, 0, 64, 66
1, 644478, Note_on_c, 0, 89, 49
1, 644478, Control_c, 0, 64, 67
1, 644493, Control_c, 0, 64, 69
1, 644508, Control_c, 0, 64, 71
1, 644530, Control_c, 0, 64, 72
1, 644533, Note_off_c, 0, 72, 42
1, 644545, Control_c, 0, 64, 73
1, 644559, Control_c, 0, 64, 74
1, 644574, Control_c, 0, 64, 75
1, 644589, Control_c, 0, 64, 76
1, 644603, Control_c, 0, 64, 77
1, 644618, Control_c, 0, 64, 78
1, 644630, Note_on_c, 0, 86, 58
1, 644633, Control_c, 0, 64, 79
1, 644648, Control_c, 0, 64, 80
1, 644663, Control_c, 0, 64, 80
1, 644678, Control_c, 0, 64, 81
1, 644693, Control_c, 0, 64, 82
1, 644722, Control_c, 0, 64, 82
1, 644737, Control_c, 0, 64, 83
1, 644752, Control_c, 0, 64, 84
1, 644769, Note_on_c, 0, 83, 61
1, 644782, Control_c, 0, 64, 84
1, 644874, Note_off_c, 0, 89, 35
1, 644885, Control_c, 0, 64, 84
1, 644901, Control_c, 0, 64, 81
1, 644916, Control_c, 0, 64, 75
1, 644920, Note_on_c, 0, 84, 64
1, 644931, Control_c, 0, 64, 63
1, 644945, Control_c, 0, 64, 49
1, 644950, Note_off_c, 0, 83, 50
1, 644956, Note_off_c, 0, 86, 44
1, 644960, Control_c, 0, 64, 36
1, 644975, Control_c, 0, 64, 30
1, 645005, Control_c, 0, 64, 34
1, 645019, Control_c, 0, 64, 42
1, 645034, Control_c, 0, 64, 54
1, 645049, Control_c, 0, 64, 61
1, 645056, Note_on_c, 0, 88, 72
1, 645064, Control_c, 0, 64, 65
1, 645079, Control_c, 0, 64, 68
1, 645093, Control_c, 0, 64, 71
1, 645096, Note_off_c, 0, 84, 56
1, 645108, Control_c, 0, 64, 73
1, 645123, Control_c, 0, 64, 75
1, 645138, Control_c, 0, 64, 76
1, 645152, Control_c, 0, 64, 78
1, 645167, Control_c, 0, 64, 79
1, 645182, Control_c, 0, 64, 81
1, 645197, Control_c, 0, 64, 82
1, 645198, Note_on_c, 0, 84, 77
1, 645212, Control_c, 0, 64, 84
1, 645226, Control_c, 0, 64, 85
1, 645241, Control_c, 0, 64, 87
1, 645256, Control_c, 0, 64, 87
1, 645262, Note_off_c, 0, 88, 60
1, 645279, Control_c, 0, 64, 88
1, 645294, Control_c, 0, 64, 89
1, 645309, Control_c, 0, 64, 89
1, 645324, Control_c, 0, 64, 90
1, 645339, Control_c, 0, 67, 122
1, 645343, Note_off_c, 0, 84, 63
1, 645350, Note_on_c, 0, 81, 71
1, 645353, Control_c, 0, 67, 106
1, 645368, Control_c, 0, 67, 94
1, 645383, Control_c, 0, 67, 86
1, 645398, Control_c, 0, 67, 82
1, 645442, Control_c, 0, 64, 89
1, 645442, Control_c, 0, 67, 83
1, 645457, Control_c, 0, 64, 88
1, 645457, Control_c, 0, 67, 85
1, 645471, Control_c, 0, 64, 85
1, 645471, Control_c, 0, 67, 88
1, 645486, Control_c, 0, 64, 80
1, 645486, Control_c, 0, 67, 91
1, 645491, Note_on_c, 0, 82, 72
1, 645501, Control_c, 0, 64, 73
1, 645501, Control_c, 0, 67, 94
1, 645516, Control_c, 0, 64, 64
1, 645516, Control_c, 0, 67, 96
1, 645524, Note_off_c, 0, 81, 49
1, 645531, Control_c, 0, 64, 52
1, 645531, Control_c, 0, 67, 99
1, 645545, Control_c, 0, 64, 38
1, 645545, Control_c, 0, 67, 103
1, 645560, Control_c, 0, 64, 0
1, 645560, Control_c, 0, 67, 106
1, 645590, Control_c, 0, 67, 110
1, 645605, Control_c, 0, 67, 114
1, 645620, Control_c, 0, 67, 123
1, 645635, Control_c, 0, 64, 34
1, 645635, Control_c, 0, 67, 127
1, 645649, Control_c, 0, 64, 41
1, 645651, Note_on_c, 0, 86, 63
1, 645657, Note_off_c, 0, 82, 55
1, 645664, Control_c, 0, 64, 46
1, 645679, Control_c, 0, 64, 50
1, 645695, Control_c, 0, 64, 52
1, 645710, Control_c, 0, 64, 53
1, 645724, Control_c, 0, 64, 54
1, 645739, Control_c, 0, 64, 54
1, 645784, Control_c, 0, 64, 54
1, 645787, Note_on_c, 0, 82, 55
1, 645813, Control_c, 0, 64, 53
1, 645822, Note_off_c, 0, 86, 52
1, 645917, Control_c, 0, 64, 54
1, 645932, Control_c, 0, 64, 54
1, 645939, Note_on_c, 0, 80, 60
1, 645947, Control_c, 0, 64, 55
1, 645962, Control_c, 0, 64, 55
1, 645976, Note_off_c, 0, 82, 49
1, 645976, Control_c, 0, 64, 57
1, 645991, Control_c, 0, 64, 59
1, 646006, Control_c, 0, 64, 61
1, 646028, Control_c, 0, 64, 62
1, 646043, Control_c, 0, 64, 64
1, 646058, Control_c, 0, 64, 65
1, 646073, Control_c, 0, 64, 65
1, 646085, Note_off_c, 0, 80, 50
1, 646088, Control_c, 0, 64, 66
1, 646096, Note_on_c, 0, 81, 49
1, 646117, Control_c, 0, 64, 65
1, 646132, Control_c, 0, 64, 63
1, 646147, Control_c, 0, 64, 58
1, 646162, Control_c, 0, 64, 51
1, 646176, Control_c, 0, 64, 50
1, 646191, Control_c, 0, 64, 50
1, 646206, Control_c, 0, 64, 52
1, 646221, Control_c, 0, 64, 56
1, 646235, Note_off_c, 0, 81, 54
1, 646236, Control_c, 0, 64, 60
1, 646250, Control_c, 0, 64, 64
1, 646261, Note_on_c, 0, 86, 59
1, 646265, Control_c, 0, 64, 66
1, 646280, Control_c, 0, 64, 66
1, 646294, Control_c, 0, 64, 67
1, 646309, Control_c, 0, 64, 66
1, 646339, Control_c, 0, 64, 66
1, 646344, Note_on_c, 0, 84, 58
1, 646364, Note_off_c, 0, 86, 40
1, 646368, Control_c, 0, 64, 65
1, 646398, Control_c, 0, 64, 65
1, 646401, Note_on_c, 0, 82, 59
1, 646413, Control_c, 0, 64, 64
1, 646428, Control_c, 0, 64, 63
1, 646429, Note_off_c, 0, 84, 56
1, 646442, Control_c, 0, 64, 62
1, 646457, Control_c, 0, 64, 61
1, 646472, Control_c, 0, 64, 59
1, 646479, Note_off_c, 0, 82, 58
1, 646488, Note_on_c, 0, 81, 59
1, 646488, Control_c, 0, 64, 58
1, 646503, Control_c, 0, 64, 56
1, 646517, Control_c, 0, 64, 55
1, 646520, Note_off_c, 0, 81, 64
1, 646532, Control_c, 0, 64, 53
1, 646547, Control_c, 0, 64, 51
1, 646562, Control_c, 0, 64, 47
1, 646564, Note_on_c, 0, 79, 54
1, 646577, Control_c, 0, 64, 43
1, 646591, Control_c, 0, 64, 36
1, 646606, Control_c, 0, 64, 0
1, 646617, Note_off_c, 0, 79, 61
1, 646649, Note_on_c, 0, 78, 46
1, 646702, Note_off_c, 0, 78, 59
1, 646710, Control_c, 0, 64, 39
1, 646725, Control_c, 0, 64, 51
1, 646740, Control_c, 0, 64, 60
1, 646741, Note_on_c, 0, 79, 45
1, 646755, Control_c, 0, 64, 65
1, 646777, Control_c, 0, 64, 68
1, 646792, Control_c, 0, 64, 71
1, 646806, Control_c, 0, 64, 73
1, 646821, Control_c, 0, 64, 74
1, 646836, Control_c, 0, 64, 76
1, 646851, Control_c, 0, 64, 77
1, 646866, Control_c, 0, 64, 79
1, 646881, Control_c, 0, 64, 81
1, 646896, Note_off_c, 0, 79, 33
1, 646896, Control_c, 0, 64, 82
1, 646910, Control_c, 0, 64, 84
1, 646925, Control_c, 0, 64, 86
1, 646939, Note_on_c, 0, 84, 45
1, 646940, Control_c, 0, 64, 87
1, 646955, Control_c, 0, 64, 88
1, 646970, Control_c, 0, 64, 90
1, 646985, Control_c, 0, 64, 91
1, 646999, Control_c, 0, 64, 91
1, 647014, Control_c, 0, 64, 92
1, 647027, Note_on_c, 0, 82, 45
1, 647029, Control_c, 0, 64, 92
1, 647038, Note_off_c, 0, 84, 38
1, 647044, Control_c, 0, 64, 93
1, 647059, Control_c, 0, 64, 93
1, 647073, Control_c, 0, 64, 94
1, 647089, Note_off_c, 0, 82, 46
1, 647095, Note_on_c, 0, 81, 51
1, 647127, Note_off_c, 0, 81, 58
1, 647176, Note_on_c, 0, 79, 51
1, 647207, Note_off_c, 0, 79, 62
1, 647256, Note_on_c, 0, 77, 42
1, 647304, Note_off_c, 0, 77, 46
1, 647351, Note_on_c, 0, 76, 43
1, 647459, Control_c, 0, 64, 93
1, 647474, Control_c, 0, 64, 93
1, 647489, Note_off_c, 0, 76, 21
1, 647489, Control_c, 0, 64, 92
1, 647504, Control_c, 0, 64, 91
1, 647526, Control_c, 0, 64, 90
1, 647540, Control_c, 0, 64, 87
1, 647546, Note_on_c, 0, 77, 51
1, 647555, Control_c, 0, 64, 81
1, 647570, Control_c, 0, 64, 71
1, 647585, Note_on_c, 0, 69, 32
1, 647585, Control_c, 0, 64, 59
1, 647600, Control_c, 0, 64, 51
1, 647614, Control_c, 0, 64, 47
1, 647629, Control_c, 0, 64, 45
1, 647659, Control_c, 0, 64, 46
1, 647674, Control_c, 0, 64, 48
1, 647688, Control_c, 0, 64, 51
1, 647703, Control_c, 0, 64, 54
1, 647718, Control_c, 0, 64, 56
1, 647733, Control_c, 0, 64, 59
1, 647748, Control_c, 0, 64, 60
1, 647763, Control_c, 0, 64, 62
1, 647778, Control_c, 0, 64, 65
1, 647793, Control_c, 0, 64, 68
1, 647808, Control_c, 0, 64, 72
1, 647822, Control_c, 0, 64, 75
1, 647837, Control_c, 0, 64, 78
1, 647852, Control_c, 0, 64, 81
1, 647866, Control_c, 0, 64, 83
1, 647881, Control_c, 0, 64, 86
1, 647882, Note_on_c, 0, 72, 35
1, 647896, Control_c, 0, 64, 87
1, 647904, Note_off_c, 0, 77, 57
1, 647911, Control_c, 0, 64, 88
1, 647935, Note_off_c, 0, 69, 48
1, 648040, Note_on_c, 0, 79, 33
1, 648079, Note_off_c, 0, 79, 50
1, 648086, Note_on_c, 0, 77, 48
1, 648103, Note_off_c, 0, 72, 27
1, 648105, Control_c, 0, 64, 87
1, 648114, Note_off_c, 0, 77, 55
1, 648119, Control_c, 0, 64, 87
1, 648134, Control_c, 0, 64, 86
1, 648142, Note_on_c, 0, 76, 57
1, 648149, Control_c, 0, 64, 85
1, 648163, Control_c, 0, 64, 84
1, 648178, Control_c, 0, 64, 82
1, 648180, Note_off_c, 0, 76, 51
1, 648193, Control_c, 0, 64, 78
1, 648204, Note_on_c, 0, 77, 38
1, 648208, Control_c, 0, 64, 74
1, 648223, Control_c, 0, 64, 69
1, 648237, Control_c, 0, 64, 64
1, 648241, Note_on_c, 0, 81, 45
1, 648246, Note_off_c, 0, 77, 46
1, 648250, Note_on_c, 0, 65, 24
1, 648252, Control_c, 0, 64, 59
1, 648275, Control_c, 0, 64, 56
1, 648290, Control_c, 0, 64, 54
1, 648304, Control_c, 0, 64, 53
1, 648319, Control_c, 0, 64, 53
1, 648364, Control_c, 0, 64, 53
1, 648408, Control_c, 0, 64, 54
1, 648423, Control_c, 0, 64, 54
1, 648437, Control_c, 0, 64, 55
1, 648452, Control_c, 0, 64, 56
1, 648467, Control_c, 0, 64, 58
1, 648482, Control_c, 0, 64, 60
1, 648496, Control_c, 0, 64, 62
1, 648511, Control_c, 0, 64, 63
1, 648526, Control_c, 0, 64, 65
1, 648541, Control_c, 0, 64, 67
1, 648556, Control_c, 0, 64, 69
1, 648560, Note_on_c, 0, 72, 9
1, 648571, Control_c, 0, 64, 72
1, 648586, Control_c, 0, 64, 73
1, 648601, Control_c, 0, 64, 75
1, 648612, Note_off_c, 0, 65, 40
1, 648615, Control_c, 0, 64, 76
1, 648630, Control_c, 0, 64, 77
1, 648639, Note_off_c, 0, 81, 59
1, 648645, Control_c, 0, 64, 78
1, 648660, Control_c, 0, 64, 78
1, 648675, Control_c, 0, 64, 79
1, 648734, Control_c, 0, 64, 79
1, 648837, Control_c, 0, 64, 79
1, 648852, Control_c, 0, 64, 78
1, 648867, Control_c, 0, 64, 75
1, 648882, Control_c, 0, 64, 69
1, 648886, Note_on_c, 0, 70, 41
1, 648891, Note_on_c, 0, 81, 42
1, 648898, Control_c, 0, 64, 60
1, 648912, Control_c, 0, 64, 55
1, 648927, Control_c, 0, 64, 54
1, 648957, Control_c, 0, 64, 55
1, 648960, Note_off_c, 0, 72, 38
1, 648972, Control_c, 0, 64, 57
1, 648986, Control_c, 0, 64, 60
1, 649001, Control_c, 0, 64, 63
1, 649024, Control_c, 0, 64, 65
1, 649039, Control_c, 0, 64, 67
1, 649051, Note_on_c, 0, 79, 45
1, 649053, Control_c, 0, 64, 70
1, 649067, Control_c, 0, 64, 72
1, 649071, Note_off_c, 0, 81, 48
1, 649082, Control_c, 0, 64, 74
1, 649087, Note_off_c, 0, 79, 61
1, 649097, Control_c, 0, 64, 75
1, 649112, Control_c, 0, 64, 76
1, 649171, Control_c, 0, 64, 74
1, 649186, Control_c, 0, 64, 70
1, 649195, Note_on_c, 0, 79, 47
1, 649200, Control_c, 0, 64, 65
1, 649213, Note_on_c, 0, 72, 41
1, 649215, Control_c, 0, 64, 63
1, 649260, Control_c, 0, 64, 63
1, 649274, Control_c, 0, 64, 64
1, 649289, Control_c, 0, 64, 66
1, 649304, Control_c, 0, 64, 68
1, 649319, Control_c, 0, 64, 69
1, 649334, Control_c, 0, 64, 69
1, 649349, Control_c, 0, 64, 70
1, 649352, Note_on_c, 0, 76, 47
1, 649371, Note_off_c, 0, 79, 53
1, 649408, Control_c, 0, 64, 69
1, 649423, Control_c, 0, 64, 69
1, 649438, Control_c, 0, 64, 68
1, 649444, Note_off_c, 0, 76, 39
1, 649453, Control_c, 0, 64, 68
1, 649467, Control_c, 0, 64, 66
1, 649482, Control_c, 0, 64, 64
1, 649497, Control_c, 0, 64, 62
1, 649503, Note_off_c, 0, 70, 31
1, 649508, Note_on_c, 0, 77, 44
1, 649511, Control_c, 0, 64, 60
1, 649519, Note_on_c, 0, 69, 36
1, 649526, Control_c, 0, 64, 58
1, 649541, Control_c, 0, 64, 56
1, 649556, Control_c, 0, 64, 54
1, 649563, Note_off_c, 0, 72, 30
1, 649571, Control_c, 0, 64, 53
1, 649630, Control_c, 0, 64, 54
1, 649659, Control_c, 0, 64, 54
1, 649674, Control_c, 0, 64, 55
1, 649690, Control_c, 0, 64, 56
1, 649705, Control_c, 0, 64, 57
1, 649720, Control_c, 0, 64, 58
1, 649734, Control_c, 0, 64, 59
1, 649749, Control_c, 0, 64, 60
1, 649772, Control_c, 0, 64, 61
1, 649802, Control_c, 0, 64, 61
1, 649851, Note_on_c, 0, 72, 25
1, 649890, Control_c, 0, 64, 61
1, 649949, Control_c, 0, 64, 60
1, 649994, Control_c, 0, 64, 60
1, 650006, Note_on_c, 0, 81, 37
1, 650038, Control_c, 0, 64, 59
1, 650062, Note_off_c, 0, 77, 54
1, 650132, Note_off_c, 0, 69, 22
1, 650145, Note_on_c, 0, 70, 39
1, 650172, Control_c, 0, 64, 59
1, 650231, Note_off_c, 0, 72, 38
1, 650312, Note_on_c, 0, 79, 37
1, 650363, Note_off_c, 0, 81, 57
1, 650364, Control_c, 0, 64, 58
1, 650472, Note_on_c, 0, 72, 28
1, 650617, Note_on_c, 0, 76, 37
1, 650757, Note_off_c, 0, 79, 33
1, 650789, Note_on_c, 0, 69, 31
1, 650826, Note_off_c, 0, 72, 35
1, 650855, Note_off_c, 0, 70, 42
1, 650875, Control_c, 0, 64, 58
1, 650931, Note_on_c, 0, 77, 43
1, 650950, Control_c, 0, 64, 57
1, 651016, Note_off_c, 0, 76, 43
1, 651068, Control_c, 0, 64, 58
1, 651081, Note_on_c, 0, 72, 32
1, 651082, Control_c, 0, 64, 58
1, 651097, Control_c, 0, 64, 59
1, 651112, Control_c, 0, 64, 61
1, 651127, Control_c, 0, 64, 62
1, 651142, Control_c, 0, 64, 65
1, 651156, Control_c, 0, 64, 68
1, 651171, Control_c, 0, 64, 71
1, 651186, Control_c, 0, 64, 75
1, 651199, Note_off_c, 0, 69, 41
1, 651201, Control_c, 0, 64, 77
1, 651216, Control_c, 0, 64, 78
1, 651228, Note_on_c, 0, 81, 38
1, 651230, Note_off_c, 0, 72, 34
1, 651230, Control_c, 0, 64, 79
1, 651237, Note_off_c, 0, 77, 54
1, 651265, Note_off_c, 0, 81, 52
1, 651328, Control_c, 0, 64, 78
1, 651343, Control_c, 0, 64, 78
1, 651358, Control_c, 0, 64, 77
1, 651373, Control_c, 0, 64, 75
1, 651388, Control_c, 0, 64, 74
1, 651397, Note_on_c, 0, 72, 20
1, 651403, Control_c, 0, 64, 72
1, 651407, Note_on_c, 0, 67, 37
1, 651418, Control_c, 0, 64, 70
1, 651418, Note_on_c, 0, 84, 49
1, 651432, Control_c, 0, 64, 68
1, 651447, Control_c, 0, 64, 66
1, 651462, Control_c, 0, 64, 64
1, 651477, Control_c, 0, 64, 63
1, 651492, Control_c, 0, 64, 62
1, 651496, Note_off_c, 0, 67, 53
1, 651507, Control_c, 0, 64, 62
1, 651521, Control_c, 0, 64, 61
1, 651536, Control_c, 0, 64, 60
1, 651551, Control_c, 0, 64, 59
1, 651566, Control_c, 0, 64, 59
1, 651573, Note_on_c, 0, 82, 43
1, 651581, Control_c, 0, 64, 58
1, 651582, Note_off_c, 0, 84, 57
1, 651596, Note_off_c, 0, 82, 60
1, 651610, Control_c, 0, 64, 58
1, 651625, Control_c, 0, 64, 57
1, 651640, Control_c, 0, 64, 57
1, 651669, Control_c, 0, 64, 56
1, 651684, Control_c, 0, 64, 56
1, 651721, Note_on_c, 0, 64, 40
1, 651743, Control_c, 0, 64, 55
1, 651773, Control_c, 0, 64, 55
1, 651791, Note_off_c, 0, 64, 59
1, 651802, Control_c, 0, 64, 54
1, 651832, Control_c, 0, 64, 54
1, 651862, Control_c, 0, 64, 53
1, 651866, Note_on_c, 0, 79, 41
1, 651877, Control_c, 0, 64, 53
1, 651894, Note_off_c, 0, 79, 58
1, 651906, Control_c, 0, 64, 52
1, 651921, Control_c, 0, 64, 52
1, 651936, Control_c, 0, 64, 51
1, 651951, Control_c, 0, 64, 51
1, 651966, Control_c, 0, 64, 50
1, 651995, Control_c, 0, 64, 50
1, 652016, Note_on_c, 0, 82, 43
1, 652030, Note_on_c, 0, 65, 28
1, 652032, Control_c, 0, 64, 49
1, 652107, Control_c, 0, 64, 49
1, 652136, Control_c, 0, 64, 48
1, 652151, Control_c, 0, 64, 48
1, 652164, Note_off_c, 0, 65, 45
1, 652166, Control_c, 0, 64, 47
1, 652168, Note_on_c, 0, 81, 46
1, 652181, Control_c, 0, 64, 47
1, 652184, Note_off_c, 0, 82, 59
1, 652193, Note_off_c, 0, 81, 59
1, 652210, Control_c, 0, 64, 46
1, 652225, Control_c, 0, 64, 45
1, 652240, Control_c, 0, 64, 44
1, 652255, Control_c, 0, 64, 44
1, 652270, Control_c, 0, 64, 43
1, 652285, Control_c, 0, 64, 42
1, 652319, Note_on_c, 0, 69, 36
1, 652329, Control_c, 0, 64, 43
1, 652344, Control_c, 0, 64, 47
1, 652359, Control_c, 0, 64, 52
1, 652374, Control_c, 0, 64, 58
1, 652389, Control_c, 0, 64, 62
1, 652404, Control_c, 0, 64, 65
1, 652414, Note_off_c, 0, 72, 55
1, 652418, Control_c, 0, 64, 68
1, 652433, Control_c, 0, 64, 70
1, 652441, Note_on_c, 0, 77, 54
1, 652448, Control_c, 0, 64, 71
1, 652471, Note_off_c, 0, 77, 59
1, 652551, Control_c, 0, 64, 70
1, 652566, Control_c, 0, 64, 69
1, 652581, Control_c, 0, 64, 67
1, 652596, Note_on_c, 0, 73, 53
1, 652596, Control_c, 0, 64, 64
1, 652608, Note_off_c, 0, 69, 56
1, 652610, Control_c, 0, 64, 62
1, 652619, Note_on_c, 0, 70, 44
1, 652625, Control_c, 0, 64, 58
1, 652640, Control_c, 0, 64, 55
1, 652655, Control_c, 0, 64, 52
1, 652670, Control_c, 0, 64, 47
1, 652684, Control_c, 0, 64, 39
1, 652699, Control_c, 0, 64, 30
1, 652714, Control_c, 0, 64, 0
1, 652746, Note_off_c, 0, 73, 62
1, 652768, Note_on_c, 0, 74, 52
1, 652902, Note_off_c, 0, 74, 53
1, 652905, Note_off_c, 0, 70, 57
1, 652909, Note_on_c, 0, 58, 45
1, 652920, Note_on_c, 0, 75, 47
1, 653057, Note_off_c, 0, 75, 60
1, 653066, Note_on_c, 0, 76, 53
1, 653096, Note_off_c, 0, 58, 61
1, 653173, Note_off_c, 0, 76, 54
1, 653190, Note_on_c, 0, 62, 43
1, 653216, Note_on_c, 0, 77, 58
1, 653265, Note_off_c, 0, 62, 61
1, 653357, Note_on_c, 0, 78, 52
1, 653380, Note_off_c, 0, 77, 54
1, 653496, Note_on_c, 0, 65, 48
1, 653511, Note_off_c, 0, 78, 52
1, 653527, Note_on_c, 0, 81, 45
1, 653549, Note_on_c, 0, 59, 46
1, 653559, Control_c, 0, 64, 36
1, 653574, Control_c, 0, 64, 48
1, 653589, Control_c, 0, 64, 58
1, 653604, Control_c, 0, 64, 64
1, 653618, Control_c, 0, 64, 65
1, 653633, Control_c, 0, 64, 67
1, 653648, Control_c, 0, 64, 67
1, 653656, Note_off_c, 0, 81, 61
1, 653663, Note_on_c, 0, 79, 49
1, 653689, Note_off_c, 0, 79, 62
1, 653738, Control_c, 0, 64, 67
1, 653753, Control_c, 0, 64, 66
1, 653768, Control_c, 0, 64, 64
1, 653782, Control_c, 0, 64, 61
1, 653797, Control_c, 0, 64, 56
1, 653812, Control_c, 0, 64, 50
1, 653825, Note_off_c, 0, 59, 39
1, 653827, Control_c, 0, 64, 44
1, 653837, Note_on_c, 0, 79, 43
1, 653842, Control_c, 0, 64, 37
1, 653854, Note_on_c, 0, 60, 31
1, 653856, Control_c, 0, 64, 29
1, 653871, Control_c, 0, 64, 0
1, 654130, Note_off_c, 0, 65, 60
1, 654151, Note_on_c, 0, 72, 48
1, 654153, Note_on_c, 0, 64, 41
1, 654308, Control_c, 0, 64, 32
1, 654323, Control_c, 0, 64, 43
1, 654338, Control_c, 0, 64, 51
1, 654351, Note_off_c, 0, 64, 58
1, 654353, Control_c, 0, 64, 57
1, 654368, Control_c, 0, 64, 59
1, 654382, Control_c, 0, 64, 59
1, 654388, Note_on_c, 0, 62, 42
1, 654397, Control_c, 0, 64, 59
1, 654412, Control_c, 0, 64, 58
1, 654421, Note_off_c, 0, 72, 55
1, 654427, Control_c, 0, 64, 57
1, 654441, Control_c, 0, 64, 56
1, 654448, Note_off_c, 0, 62, 57
1, 654456, Control_c, 0, 64, 53
1, 654471, Control_c, 0, 64, 50
1, 654479, Note_off_c, 0, 79, 38
1, 654487, Control_c, 0, 64, 47
1, 654490, Note_on_c, 0, 64, 44
1, 654502, Control_c, 0, 64, 43
1, 654517, Control_c, 0, 64, 36
1, 654531, Control_c, 0, 64, 29
1, 654546, Control_c, 0, 64, 0
1, 654554, Note_on_c, 0, 72, 51
1, 654592, Note_off_c, 0, 72, 62
1, 654622, Note_on_c, 0, 71, 55
1, 654668, Note_off_c, 0, 71, 59
1, 654692, Note_on_c, 0, 72, 56
1, 654705, Note_off_c, 0, 64, 54
1, 654716, Note_off_c, 0, 60, 58
1, 654729, Note_off_c, 0, 72, 59
1, 654749, Note_on_c, 0, 73, 66
1, 654800, Note_off_c, 0, 73, 61
1, 654820, Note_on_c, 0, 74, 61
1, 654848, Note_off_c, 0, 74, 67
1, 654877, Note_on_c, 0, 75, 66
1, 654914, Note_off_c, 0, 75, 62
1, 654959, Note_on_c, 0, 76, 56
1, 655015, Note_off_c, 0, 76, 53
1, 655045, Note_on_c, 0, 77, 63
1, 655057, Note_on_c, 0, 69, 41
1, 655295, Control_c, 0, 64, 35
1, 655310, Control_c, 0, 64, 47
1, 655325, Control_c, 0, 64, 57
1, 655340, Control_c, 0, 64, 62
1, 655354, Control_c, 0, 64, 64
1, 655356, Note_on_c, 0, 72, 40
1, 655369, Control_c, 0, 64, 65
1, 655384, Control_c, 0, 64, 66
1, 655399, Control_c, 0, 64, 66
1, 655409, Note_off_c, 0, 69, 44
1, 655414, Control_c, 0, 64, 67
1, 655424, Note_off_c, 0, 77, 55
1, 655489, Note_on_c, 0, 79, 47
1, 655517, Control_c, 0, 64, 66
1, 655527, Note_off_c, 0, 79, 62
1, 655531, Note_on_c, 0, 77, 70
1, 655532, Control_c, 0, 64, 65
1, 655547, Control_c, 0, 64, 63
1, 655555, Note_off_c, 0, 77, 69
1, 655561, Control_c, 0, 64, 61
1, 655576, Control_c, 0, 64, 58
1, 655585, Note_on_c, 0, 76, 60
1, 655591, Control_c, 0, 64, 53
1, 655606, Control_c, 0, 64, 49
1, 655614, Note_off_c, 0, 76, 60
1, 655621, Control_c, 0, 64, 43
1, 655627, Note_on_c, 0, 77, 58
1, 655636, Control_c, 0, 64, 32
1, 655650, Control_c, 0, 64, 0
1, 655661, Note_off_c, 0, 72, 30
1, 655674, Note_off_c, 0, 77, 46
1, 655683, Note_on_c, 0, 65, 35
1, 655686, Note_on_c, 0, 81, 57
1, 655910, Control_c, 0, 64, 40
1, 655925, Control_c, 0, 64, 50
1, 655940, Control_c, 0, 64, 60
1, 655954, Control_c, 0, 64, 63
1, 655969, Control_c, 0, 64, 65
1, 655984, Control_c, 0, 64, 67
1, 655995, Note_on_c, 0, 72, 40
1, 655999, Control_c, 0, 64, 69
1, 656010, Note_off_c, 0, 81, 64
1, 656013, Control_c, 0, 64, 71
1, 656028, Control_c, 0, 64, 73
1, 656043, Control_c, 0, 64, 75
1, 656058, Control_c, 0, 64, 77
1, 656073, Control_c, 0, 64, 78
1, 656073, Control_c, 0, 67, 118
1, 656089, Control_c, 0, 64, 80
1, 656089, Control_c, 0, 67, 96
1, 656093, Note_off_c, 0, 65, 41
1, 656103, Control_c, 0, 64, 81
1, 656103, Control_c, 0, 67, 71
1, 656118, Control_c, 0, 64, 82
1, 656118, Control_c, 0, 67, 59
1, 656133, Control_c, 0, 64, 82
1, 656133, Control_c, 0, 67, 58
1, 656148, Control_c, 0, 67, 58
1, 656163, Control_c, 0, 67, 64
1, 656177, Control_c, 0, 67, 71
1, 656192, Control_c, 0, 67, 78
1, 656207, Control_c, 0, 67, 88
1, 656222, Control_c, 0, 64, 82
1, 656222, Control_c, 0, 67, 101
1, 656237, Control_c, 0, 67, 122
1, 656251, Control_c, 0, 64, 80
1, 656251, Control_c, 0, 67, 127
1, 656266, Control_c, 0, 64, 79
1, 656281, Control_c, 0, 64, 76
1, 656296, Control_c, 0, 64, 72
1, 656302, Note_on_c, 0, 79, 67
1, 656310, Control_c, 0, 64, 65
1, 656321, Note_on_c, 0, 70, 39
1, 656325, Control_c, 0, 64, 57
1, 656340, Control_c, 0, 64, 49
1, 656355, Control_c, 0, 64, 40
1, 656370, Control_c, 0, 64, 0
1, 656396, Note_off_c, 0, 72, 38
1, 656461, Note_on_c, 0, 81, 63
1, 656534, Note_off_c, 0, 79, 58
1, 656616, Note_on_c, 0, 82, 58
1, 656625, Note_on_c, 0, 72, 40
1, 656630, Note_off_c, 0, 81, 57
1, 656752, Note_off_c, 0, 82, 61
1, 656762, Note_on_c, 0, 76, 46
1, 656913, Note_on_c, 0, 77, 46
1, 656920, Note_off_c, 0, 76, 37
1, 656923, Note_off_c, 0, 70, 34
1, 656950, Note_on_c, 0, 69, 36
1, 656986, Note_off_c, 0, 72, 34
1, 657226, Note_on_c, 0, 72, 34
1, 657333, Control_c, 0, 64, 38
1, 657348, Control_c, 0, 64, 48
1, 657363, Control_c, 0, 64, 56
1, 657378, Control_c, 0, 64, 60
1, 657386, Note_off_c, 0, 77, 59
1, 657393, Control_c, 0, 64, 61
1, 657404, Note_on_c, 0, 81, 40
1, 657444, Note_off_c, 0, 81, 48
1, 657466, Note_off_c, 0, 69, 33
1, 657466, Control_c, 0, 64, 61
1, 657481, Control_c, 0, 64, 59
1, 657496, Control_c, 0, 64, 58
1, 657511, Control_c, 0, 64, 57
1, 657525, Control_c, 0, 64, 55
1, 657540, Control_c, 0, 64, 53
1, 657542, Note_on_c, 0, 78, 51
1, 657551, Note_on_c, 0, 70, 36
1, 657555, Control_c, 0, 64, 49
1, 657570, Control_c, 0, 64, 44
1, 657580, Note_off_c, 0, 78, 58
1, 657585, Control_c, 0, 64, 38
1, 657600, Control_c, 0, 64, 32
1, 657615, Control_c, 0, 64, 0
1, 657618, Note_off_c, 0, 72, 37
1, 657626, Note_on_c, 0, 79, 42
1, 657652, Note_off_c, 0, 79, 55
1, 657680, Note_on_c, 0, 80, 56
1, 657767, Note_on_c, 0, 81, 56
1, 657790, Note_off_c, 0, 80, 52
1, 657824, Note_off_c, 0, 81, 62
1, 657827, Note_on_c, 0, 82, 55
1, 657832, Note_on_c, 0, 72, 39
1, 657981, Note_on_c, 0, 76, 59
1, 658098, Note_off_c, 0, 76, 53
1, 658125, Note_on_c, 0, 77, 61
1, 658139, Note_off_c, 0, 82, 55
1, 658151, Note_on_c, 0, 69, 32
1, 658153, Note_off_c, 0, 77, 68
1, 658180, Note_off_c, 0, 70, 44
1, 658205, Note_off_c, 0, 72, 37
1, 658278, Note_on_c, 0, 81, 70
1, 658364, Control_c, 0, 67, 120
1, 658379, Control_c, 0, 64, 39
1, 658379, Control_c, 0, 67, 101
1, 658394, Control_c, 0, 64, 52
1, 658394, Control_c, 0, 67, 78
1, 658408, Control_c, 0, 64, 59
1, 658408, Control_c, 0, 67, 57
1, 658423, Control_c, 0, 64, 63
1, 658423, Control_c, 0, 67, 36
1, 658438, Control_c, 0, 64, 65
1, 658438, Control_c, 0, 67, 0
1, 658444, Note_on_c, 0, 72, 37
1, 658453, Control_c, 0, 64, 67
1, 658468, Control_c, 0, 64, 67
1, 658476, Note_off_c, 0, 81, 65
1, 658484, Control_c, 0, 64, 68
1, 658528, Control_c, 0, 64, 68
1, 658536, Note_off_c, 0, 72, 43
1, 658543, Control_c, 0, 67, 39
1, 658558, Control_c, 0, 67, 45
1, 658572, Control_c, 0, 67, 50
1, 658587, Control_c, 0, 64, 68
1, 658587, Control_c, 0, 67, 58
1, 658590, Note_off_c, 0, 69, 37
1, 658601, Note_on_c, 0, 84, 68
1, 658602, Control_c, 0, 64, 67
1, 658602, Control_c, 0, 67, 68
1, 658617, Control_c, 0, 64, 66
1, 658617, Control_c, 0, 67, 86
1, 658631, Control_c, 0, 64, 64
1, 658631, Control_c, 0, 67, 113
1, 658646, Control_c, 0, 64, 62
1, 658646, Control_c, 0, 67, 127
1, 658661, Control_c, 0, 64, 59
1, 658676, Control_c, 0, 64, 55
1, 658691, Control_c, 0, 64, 52
1, 658706, Control_c, 0, 64, 48
1, 658721, Control_c, 0, 64, 43
1, 658736, Control_c, 0, 64, 38
1, 658742, Note_on_c, 0, 72, 42
1, 658758, Control_c, 0, 64, 33
1, 658772, Control_c, 0, 64, 30
1, 658777, Note_on_c, 0, 67, 39
1, 658786, Control_c, 0, 64, 0
1, 658809, Note_off_c, 0, 67, 55
1, 658914, Note_on_c, 0, 82, 62
1, 659001, Note_off_c, 0, 84, 60
1, 659102, Poly_aftertouch_c, 0, 64, 127
1, 659146, Poly_aftertouch_c, 0, 64, 0
1, 659228, Note_on_c, 0, 79, 47
1, 659306, Note_off_c, 0, 82, 63
1, 659409, Note_on_c, 0, 65, 35
1, 659468, Note_off_c, 0, 65, 52
1, 659555, Note_on_c, 0, 81, 63
1, 659630, Note_off_c, 0, 79, 59
1, 659698, Control_c, 0, 64, 32
1, 659707, Note_on_c, 0, 62, 46
1, 659713, Control_c, 0, 64, 43
1, 659728, Control_c, 0, 64, 55
1, 659743, Control_c, 0, 64, 61
1, 659758, Control_c, 0, 64, 64
1, 659766, Note_off_c, 0, 72, 42
1, 659772, Control_c, 0, 64, 66
1, 659784, Note_off_c, 0, 81, 62
1, 659787, Control_c, 0, 64, 67
1, 659796, Note_off_c, 0, 62, 57
1, 659802, Control_c, 0, 64, 68
1, 659817, Control_c, 0, 64, 70
1, 659832, Control_c, 0, 64, 71
1, 659846, Control_c, 0, 64, 72
1, 659856, Note_on_c, 0, 77, 58
1, 659861, Control_c, 0, 64, 72
1, 659918, Note_off_c, 0, 77, 56
1, 659979, Control_c, 0, 64, 72
1, 659994, Control_c, 0, 64, 70
1, 659997, Note_on_c, 0, 58, 45
1, 660000, Note_on_c, 0, 74, 62
1, 660009, Control_c, 0, 64, 68
1, 660024, Control_c, 0, 64, 64
1, 660039, Control_c, 0, 64, 59
1, 660053, Control_c, 0, 64, 52
1, 660069, Control_c, 0, 64, 47
1, 660072, Note_off_c, 0, 74, 42
1, 660084, Control_c, 0, 64, 40
1, 660099, Control_c, 0, 64, 34
1, 660114, Control_c, 0, 64, 0
1, 660150, Note_on_c, 0, 76, 49
1, 660201, Note_off_c, 0, 76, 60
1, 660202, Note_on_c, 0, 74, 65
1, 660233, Note_off_c, 0, 74, 63
1, 660250, Note_on_c, 0, 73, 61
1, 660294, Note_on_c, 0, 70, 51
1, 660305, Note_off_c, 0, 73, 63
1, 660313, Note_on_c, 0, 74, 65
1, 660329, Control_c, 0, 64, 31
1, 660344, Control_c, 0, 64, 46
1, 660358, Control_c, 0, 64, 57
1, 660366, Note_off_c, 0, 58, 61
1, 660373, Control_c, 0, 64, 63
1, 660388, Control_c, 0, 64, 65
1, 660402, Control_c, 0, 64, 67
1, 660417, Control_c, 0, 64, 68
1, 660432, Control_c, 0, 64, 69
1, 660435, Note_on_c, 0, 79, 59
1, 660448, Note_off_c, 0, 70, 37
1, 660536, Control_c, 0, 64, 68
1, 660551, Control_c, 0, 64, 66
1, 660554, Note_off_c, 0, 74, 34
1, 660566, Control_c, 0, 64, 61
1, 660581, Control_c, 0, 64, 54
1, 660593, Note_on_c, 0, 69, 44
1, 660594, Note_on_c, 0, 72, 57
1, 660595, Control_c, 0, 64, 45
1, 660608, Note_on_c, 0, 60, 37
1, 660610, Control_c, 0, 64, 34
1, 660625, Control_c, 0, 64, 0
1, 660641, Note_off_c, 0, 79, 57
1, 660655, Control_c, 0, 64, 29
1, 660669, Control_c, 0, 64, 37
1, 660684, Control_c, 0, 64, 49
1, 660699, Control_c, 0, 64, 59
1, 660703, Note_off_c, 0, 69, 36
1, 660714, Control_c, 0, 64, 65
1, 660729, Control_c, 0, 64, 68
1, 660732, Note_off_c, 0, 72, 48
1, 660743, Control_c, 0, 64, 70
1, 660756, Note_on_c, 0, 77, 55
1, 660758, Control_c, 0, 64, 71
1, 660773, Control_c, 0, 64, 72
1, 660831, Note_off_c, 0, 77, 56
1, 660862, Control_c, 0, 64, 71
1, 660878, Control_c, 0, 64, 68
1, 660892, Control_c, 0, 64, 62
1, 660907, Control_c, 0, 64, 54
1, 660912, Note_on_c, 0, 70, 41
1, 660921, Note_on_c, 0, 67, 37
1, 660922, Control_c, 0, 64, 44
1, 660937, Control_c, 0, 64, 40
1, 660952, Control_c, 0, 64, 42
1, 660966, Control_c, 0, 64, 46
1, 660981, Control_c, 0, 64, 53
1, 660986, Note_off_c, 0, 67, 56
1, 661004, Control_c, 0, 64, 60
1, 661019, Control_c, 0, 64, 65
1, 661033, Control_c, 0, 64, 70
1, 661048, Control_c, 0, 64, 75
1, 661063, Control_c, 0, 64, 78
1, 661064, Note_on_c, 0, 76, 49
1, 661078, Control_c, 0, 64, 81
1, 661084, Note_off_c, 0, 60, 63
1, 661093, Control_c, 0, 64, 83
1, 661097, Note_off_c, 0, 76, 59
1, 661101, Note_off_c, 0, 70, 37
1, 661107, Control_c, 0, 64, 85
1, 661122, Control_c, 0, 64, 86
1, 661137, Control_c, 0, 64, 87
1, 661211, Control_c, 0, 64, 86
1, 661225, Control_c, 0, 64, 84
1, 661240, Control_c, 0, 64, 80
1, 661244, Note_on_c, 0, 76, 55
1, 661250, Note_on_c, 0, 70, 30
1, 661255, Control_c, 0, 64, 72
1, 661262, Note_on_c, 0, 65, 39
1, 661270, Control_c, 0, 64, 64
1, 661285, Control_c, 0, 64, 55
1, 661299, Control_c, 0, 64, 46
1, 661314, Control_c, 0, 64, 40
1, 661344, Control_c, 0, 64, 43
1, 661359, Control_c, 0, 64, 49
1, 661374, Control_c, 0, 64, 57
1, 661378, Note_off_c, 0, 65, 44
1, 661389, Control_c, 0, 64, 63
1, 661404, Control_c, 0, 64, 68
1, 661418, Control_c, 0, 64, 71
1, 661433, Control_c, 0, 64, 73
1, 661448, Control_c, 0, 64, 74
1, 661463, Control_c, 0, 64, 75
1, 661478, Control_c, 0, 64, 75
1, 661492, Control_c, 0, 64, 76
1, 661522, Control_c, 0, 64, 76
1, 661597, Note_on_c, 0, 60, 31
1, 661672, Note_off_c, 0, 60, 56
1, 662047, Control_c, 0, 64, 76
1, 662062, Control_c, 0, 64, 75
1, 662076, Note_on_c, 0, 77, 36
1, 662077, Control_c, 0, 64, 75
1, 662092, Control_c, 0, 64, 74
1, 662107, Note_on_c, 0, 69, 33
1, 662107, Control_c, 0, 64, 72
1, 662122, Control_c, 0, 64, 70
1, 662128, Note_on_c, 0, 53, 19
1, 662137, Control_c, 0, 64, 66
1, 662143, Note_off_c, 0, 70, 37
1, 662152, Control_c, 0, 64, 62
1, 662167, Control_c, 0, 64, 56
1, 662182, Control_c, 0, 64, 50
1, 662196, Control_c, 0, 64, 44
1, 662211, Control_c, 0, 64, 36
1, 662226, Control_c, 0, 64, 30
1, 662230, Note_off_c, 0, 76, 1
1, 662270, Control_c, 0, 64, 34
1, 662285, Control_c, 0, 64, 41
1, 662300, Control_c, 0, 64, 49
1, 662314, Control_c, 0, 64, 57
1, 662329, Control_c, 0, 64, 62
1, 662344, Control_c, 0, 64, 65
1, 662359, Control_c, 0, 64, 68
1, 662373, Control_c, 0, 64, 70
1, 662388, Control_c, 0, 64, 72
1, 662403, Control_c, 0, 64, 75
1, 662418, Control_c, 0, 64, 77
1, 662418, Control_c, 0, 67, 117
1, 662433, Control_c, 0, 64, 79
1, 662433, Control_c, 0, 67, 97
1, 662447, Control_c, 0, 64, 80
1, 662447, Control_c, 0, 67, 75
1, 662463, Control_c, 0, 64, 82
1, 662463, Control_c, 0, 67, 44
1, 662478, Control_c, 0, 64, 84
1, 662478, Control_c, 0, 67, 0
1, 662498, Note_off_c, 0, 77, 33
1, 662501, Control_c, 0, 64, 85
1, 662512, Note_off_c, 0, 69, 38
1, 662515, Control_c, 0, 64, 86
1, 662530, Control_c, 0, 64, 86
1, 662545, Control_c, 0, 64, 87
1, 662575, Control_c, 0, 64, 87
1, 662595, Note_off_c, 0, 53, 34
1, 662782, Control_c, 0, 64, 87
1, 662811, Control_c, 0, 64, 86
1, 662826, Control_c, 0, 64, 86
1, 662841, Control_c, 0, 64, 85
1, 662856, Control_c, 0, 64, 84
1, 662870, Control_c, 0, 64, 83
1, 662885, Control_c, 0, 64, 82
1, 662900, Control_c, 0, 64, 81
1, 662915, Control_c, 0, 64, 79
1, 662930, Control_c, 0, 64, 78
1, 662945, Control_c, 0, 64, 77
1, 662960, Control_c, 0, 64, 75
1, 662974, Control_c, 0, 64, 73
1, 662989, Control_c, 0, 64, 70
1, 663004, Control_c, 0, 64, 66
1, 663019, Control_c, 0, 64, 63
1, 663034, Control_c, 0, 64, 60
1, 663049, Control_c, 0, 64, 58
1, 663063, Control_c, 0, 64, 56
1, 663078, Control_c, 0, 64, 55
1, 663093, Control_c, 0, 64, 54
1, 663108, Control_c, 0, 64, 52
1, 663123, Control_c, 0, 64, 49
1, 663137, Control_c, 0, 64, 45
1, 663152, Control_c, 0, 64, 37
1, 663167, Control_c, 0, 64, 0
1, 663293, Control_c, 0, 64, 30
1, 663308, Control_c, 0, 64, 40
1, 663323, Control_c, 0, 64, 48
1, 663338, Control_c, 0, 64, 56
1, 663353, Control_c, 0, 64, 61
1, 663368, Control_c, 0, 64, 64
1, 663383, Control_c, 0, 64, 66
1, 663398, Control_c, 0, 64, 68
1, 663412, Control_c, 0, 64, 69
1, 663427, Control_c, 0, 64, 71
1, 663442, Control_c, 0, 64, 74
1, 663457, Control_c, 0, 64, 76
1, 663472, Control_c, 0, 64, 79
1, 663486, Control_c, 0, 64, 83
1, 663501, Control_c, 0, 64, 88
1, 663516, Control_c, 0, 64, 94
1, 663531, Control_c, 0, 64, 100
1, 663546, Control_c, 0, 64, 109
1, 663561, Control_c, 0, 64, 127
1, 663574, Note_on_c, 0, 72, 66
1, 663621, Note_on_c, 0, 68, 37
1, 663997, Note_on_c, 0, 53, 33
1, 664316, Note_on_c, 0, 73, 71
1, 664356, Note_on_c, 0, 46, 47
1, 664398, Control_c, 0, 64, 115
1, 664413, Control_c, 0, 64, 92
1, 664428, Control_c, 0, 64, 81
1, 664442, Control_c, 0, 64, 71
1, 664457, Control_c, 0, 64, 62
1, 664472, Control_c, 0, 64, 53
1, 664487, Control_c, 0, 64, 47
1, 664502, Control_c, 0, 64, 45
1, 664531, Control_c, 0, 64, 46
1, 664546, Control_c, 0, 64, 47
1, 664560, Control_c, 0, 64, 48
1, 664575, Control_c, 0, 64, 50
1, 664576, Note_off_c, 0, 53, 26
1, 664590, Control_c, 0, 64, 51
1, 664605, Control_c, 0, 64, 51
1, 664609, Poly_aftertouch_c, 0, 75, 127
1, 664620, Control_c, 0, 64, 52
1, 664635, Control_c, 0, 64, 53
1, 664650, Control_c, 0, 64, 55
1, 664652, Note_on_c, 0, 58, 51
1, 664665, Control_c, 0, 64, 58
1, 664680, Control_c, 0, 64, 62
1, 664694, Control_c, 0, 64, 67
1, 664709, Control_c, 0, 64, 73
1, 664722, Note_off_c, 0, 68, 34
1, 664724, Control_c, 0, 64, 81
1, 664746, Control_c, 0, 64, 88
1, 664761, Control_c, 0, 64, 95
1, 664776, Control_c, 0, 64, 105
1, 664791, Control_c, 0, 64, 127
1, 664827, Note_off_c, 0, 58, 44
1, 664982, Note_on_c, 0, 67, 61
1, 664985, Poly_aftertouch_c, 0, 75, 0
1, 664990, Note_on_c, 0, 51, 46
1, 665014, Control_c, 0, 64, 104
1, 665018, Note_off_c, 0, 46, 36
1, 665029, Control_c, 0, 64, 79
1, 665044, Control_c, 0, 64, 66
1, 665059, Control_c, 0, 64, 58
1, 665073, Control_c, 0, 64, 54
1, 665088, Control_c, 0, 64, 54
1, 665103, Control_c, 0, 64, 55
1, 665118, Control_c, 0, 64, 57
1, 665133, Control_c, 0, 64, 61
1, 665148, Control_c, 0, 64, 64
1, 665148, Note_on_c, 0, 77, 60
1, 665162, Control_c, 0, 64, 68
1, 665177, Control_c, 0, 64, 72
1, 665192, Control_c, 0, 64, 77
1, 665207, Control_c, 0, 64, 80
1, 665222, Control_c, 0, 64, 82
1, 665228, Note_off_c, 0, 73, 60
1, 665237, Control_c, 0, 64, 84
1, 665252, Control_c, 0, 64, 86
1, 665266, Control_c, 0, 64, 88
1, 665281, Control_c, 0, 64, 92
1, 665287, Note_off_c, 0, 72, 40
1, 665296, Note_on_c, 0, 75, 70
1, 665296, Control_c, 0, 64, 96
1, 665297, Note_on_c, 0, 39, 51
1, 665311, Control_c, 0, 64, 101
1, 665315, Note_off_c, 0, 51, 48
1, 665326, Control_c, 0, 64, 110
1, 665340, Control_c, 0, 64, 127
1, 665370, Note_off_c, 0, 39, 59
1, 665399, Note_off_c, 0, 77, 56
1, 665443, Note_on_c, 0, 73, 74
1, 665496, Note_off_c, 0, 75, 62
1, 665567, Note_off_c, 0, 73, 61
1, 665611, Note_on_c, 0, 72, 73
1, 665622, Note_on_c, 0, 44, 42
1, 665688, Control_c, 0, 64, 102
1, 665703, Control_c, 0, 64, 91
1, 665718, Control_c, 0, 64, 80
1, 665733, Control_c, 0, 64, 71
1, 665748, Control_c, 0, 64, 62
1, 665750, Note_off_c, 0, 67, 48
1, 665762, Control_c, 0, 64, 56
1, 665777, Control_c, 0, 64, 51
1, 665782, Note_on_c, 0, 70, 50
1, 665792, Control_c, 0, 64, 46
1, 665807, Control_c, 0, 64, 40
1, 665821, Control_c, 0, 64, 30
1, 665836, Control_c, 0, 64, 0
1, 665851, Control_c, 0, 67, 36
1, 665866, Control_c, 0, 67, 45
1, 665881, Control_c, 0, 67, 55
1, 665896, Control_c, 0, 67, 64
1, 665911, Control_c, 0, 67, 68
1, 665919, Note_on_c, 0, 56, 50
1, 665919, Note_on_c, 0, 68, 49
1, 665955, Control_c, 0, 67, 67
1, 665970, Note_off_c, 0, 70, 53
1, 665970, Control_c, 0, 64, 39
1, 665970, Control_c, 0, 67, 67
1, 665985, Control_c, 0, 64, 53
1, 665985, Control_c, 0, 67, 66
1, 666000, Control_c, 0, 64, 63
1, 666000, Control_c, 0, 67, 65
1, 666014, Control_c, 0, 64, 69
1, 666014, Control_c, 0, 67, 64
1, 666029, Control_c, 0, 64, 74
1, 666029, Control_c, 0, 67, 62
1, 666042, Note_off_c, 0, 56, 57
1, 666044, Control_c, 0, 64, 79
1, 666044, Control_c, 0, 67, 61
1, 666059, Control_c, 0, 64, 83
1, 666059, Control_c, 0, 67, 58
1, 666074, Control_c, 0, 64, 87
1, 666074, Control_c, 0, 67, 56
1, 666075, Note_on_c, 0, 67, 64
1, 666088, Control_c, 0, 64, 91
1, 666088, Control_c, 0, 67, 52
1, 666097, Note_off_c, 0, 68, 59
1, 666103, Control_c, 0, 64, 95
1, 666103, Control_c, 0, 67, 49
1, 666118, Control_c, 0, 64, 100
1, 666118, Control_c, 0, 67, 47
1, 666133, Control_c, 0, 64, 105
1, 666133, Control_c, 0, 67, 45
1, 666137, Note_off_c, 0, 67, 62
1, 666148, Control_c, 0, 64, 111
1, 666148, Control_c, 0, 67, 45
1, 666162, Control_c, 0, 64, 115
1, 666177, Control_c, 0, 64, 117
1, 666177, Control_c, 0, 67, 46
1, 666192, Control_c, 0, 67, 47
1, 666206, Control_c, 0, 67, 47
1, 666215, Note_on_c, 0, 49, 49
1, 666224, Note_on_c, 0, 65, 57
1, 666288, Control_c, 0, 67, 48
1, 666292, Note_off_c, 0, 44, 33
1, 666318, Control_c, 0, 67, 49
1, 666333, Control_c, 0, 67, 50
1, 666347, Control_c, 0, 67, 52
1, 666359, Note_on_c, 0, 75, 71
1, 666362, Control_c, 0, 64, 111
1, 666362, Control_c, 0, 67, 52
1, 666377, Control_c, 0, 64, 101
1, 666377, Control_c, 0, 67, 54
1, 666392, Control_c, 0, 64, 87
1, 666406, Note_off_c, 0, 72, 58
1, 666407, Control_c, 0, 64, 72
1, 666407, Control_c, 0, 67, 54
1, 666421, Control_c, 0, 64, 59
1, 666436, Control_c, 0, 64, 47
1, 666451, Control_c, 0, 64, 40
1, 666451, Control_c, 0, 67, 55
1, 666482, Control_c, 0, 64, 42
1, 666497, Control_c, 0, 64, 49
1, 666497, Control_c, 0, 67, 54
1, 666508, Note_on_c, 0, 37, 45
1, 666511, Control_c, 0, 64, 57
1, 666511, Control_c, 0, 67, 54
1, 666517, Note_on_c, 0, 73, 67
1, 666526, Control_c, 0, 64, 63
1, 666526, Control_c, 0, 67, 53
1, 666541, Control_c, 0, 64, 69
1, 666541, Control_c, 0, 67, 51
1, 666556, Control_c, 0, 64, 76
1, 666556, Control_c, 0, 67, 48
1, 666571, Control_c, 0, 64, 83
1, 666571, Control_c, 0, 67, 45
1, 666585, Control_c, 0, 64, 89
1, 666585, Control_c, 0, 67, 41
1, 666589, Note_off_c, 0, 37, 57
1, 666593, Note_off_c, 0, 75, 63
1, 666600, Control_c, 0, 64, 94
1, 666600, Control_c, 0, 67, 36
1, 666615, Control_c, 0, 64, 98
1, 666615, Control_c, 0, 67, 0
1, 666617, Note_off_c, 0, 49, 23
1, 666630, Control_c, 0, 64, 103
1, 666644, Note_off_c, 0, 73, 62
1, 666644, Control_c, 0, 64, 108
1, 666654, Note_on_c, 0, 72, 68
1, 666659, Control_c, 0, 64, 118
1, 666674, Control_c, 0, 64, 127
1, 666793, Control_c, 0, 64, 124
1, 666808, Control_c, 0, 64, 107
1, 666814, Note_on_c, 0, 70, 65
1, 666823, Control_c, 0, 64, 92
1, 666831, Note_on_c, 0, 43, 44
1, 666837, Control_c, 0, 64, 78
1, 666852, Control_c, 0, 64, 64
1, 666867, Control_c, 0, 64, 44
1, 666882, Control_c, 0, 64, 0
1, 666915, Note_off_c, 0, 65, 38
1, 666948, Note_off_c, 0, 72, 53
1, 666970, Note_on_c, 0, 68, 46
1, 666970, Control_c, 0, 64, 29
1, 666993, Control_c, 0, 64, 45
1, 667008, Control_c, 0, 64, 58
1, 667023, Control_c, 0, 64, 66
1, 667037, Control_c, 0, 64, 70
1, 667052, Control_c, 0, 64, 72
1, 667126, Control_c, 0, 64, 69
1, 667140, Note_on_c, 0, 67, 47
1, 667141, Control_c, 0, 64, 61
1, 667156, Control_c, 0, 64, 43
1, 667157, Note_on_c, 0, 55, 36
1, 667170, Control_c, 0, 64, 0
1, 667230, Control_c, 0, 64, 39
1, 667244, Control_c, 0, 64, 55
1, 667260, Control_c, 0, 64, 66
1, 667270, Note_off_c, 0, 55, 57
1, 667275, Control_c, 0, 64, 77
1, 667279, Note_on_c, 0, 65, 62
1, 667279, Note_off_c, 0, 67, 59
1, 667290, Control_c, 0, 64, 85
1, 667305, Control_c, 0, 64, 91
1, 667320, Control_c, 0, 64, 95
1, 667334, Control_c, 0, 64, 100
1, 667349, Control_c, 0, 64, 104
1, 667364, Control_c, 0, 64, 107
1, 667366, Note_off_c, 0, 65, 57
1, 667379, Control_c, 0, 64, 109
1, 667426, Note_on_c, 0, 64, 61
1, 667427, Note_on_c, 0, 48, 55
1, 667451, Note_off_c, 0, 70, 60
1, 667452, Note_off_c, 0, 43, 36
1, 667453, Control_c, 0, 64, 98
1, 667467, Control_c, 0, 64, 81
1, 667482, Control_c, 0, 64, 63
1, 667497, Control_c, 0, 64, 46
1, 667504, Note_off_c, 0, 68, 36
1, 667512, Control_c, 0, 64, 0
1, 667556, Control_c, 0, 64, 34
1, 667569, Note_on_c, 0, 73, 65
1, 667571, Control_c, 0, 64, 53
1, 667586, Control_c, 0, 64, 65
1, 667601, Control_c, 0, 64, 76
1, 667616, Control_c, 0, 64, 89
1, 667631, Control_c, 0, 64, 99
1, 667646, Control_c, 0, 64, 104
1, 667660, Control_c, 0, 64, 106
1, 667690, Control_c, 0, 64, 102
1, 667705, Control_c, 0, 64, 82
1, 667720, Control_c, 0, 64, 64
1, 667732, Note_on_c, 0, 72, 69
1, 667741, Control_c, 0, 64, 46
1, 667744, Note_on_c, 0, 36, 53
1, 667756, Control_c, 0, 64, 36
1, 667772, Control_c, 0, 64, 40
1, 667786, Note_off_c, 0, 48, 30
1, 667786, Control_c, 0, 64, 52
1, 667801, Control_c, 0, 64, 64
1, 667814, Note_off_c, 0, 36, 61
1, 667816, Control_c, 0, 64, 77
1, 667830, Note_off_c, 0, 64, 40
1, 667831, Control_c, 0, 64, 101
1, 667846, Control_c, 0, 64, 127
1, 667871, Note_on_c, 0, 70, 77
1, 667904, Note_off_c, 0, 72, 59
1, 667938, Note_off_c, 0, 73, 42
1, 667950, Control_c, 0, 64, 91
1, 667965, Control_c, 0, 64, 68
1, 667979, Control_c, 0, 64, 50
1, 667994, Control_c, 0, 64, 0
1, 668016, Note_on_c, 0, 68, 72
1, 668021, Note_on_c, 0, 41, 57
1, 668024, Control_c, 0, 64, 30
1, 668037, Note_on_c, 0, 65, 54
1, 668039, Note_off_c, 0, 70, 63
1, 668039, Control_c, 0, 64, 48
1, 668051, Note_off_c, 0, 68, 63
1, 668054, Control_c, 0, 64, 63
1, 668069, Control_c, 0, 64, 74
1, 668084, Control_c, 0, 64, 88
1, 668099, Control_c, 0, 64, 100
1, 668143, Control_c, 0, 64, 88
1, 668158, Control_c, 0, 64, 70
1, 668170, Note_on_c, 0, 70, 65
1, 668173, Control_c, 0, 64, 55
1, 668186, Note_off_c, 0, 65, 32
1, 668188, Control_c, 0, 64, 36
1, 668188, Note_on_c, 0, 49, 56
1, 668203, Control_c, 0, 64, 0
1, 668227, Note_on_c, 0, 68, 63
1, 668237, Note_off_c, 0, 70, 62
1, 668247, Control_c, 0, 64, 34
1, 668259, Note_off_c, 0, 68, 64
1, 668262, Control_c, 0, 64, 44
1, 668268, Note_off_c, 0, 49, 61
1, 668276, Note_on_c, 0, 67, 62
1, 668277, Control_c, 0, 64, 53
1, 668291, Control_c, 0, 64, 63
1, 668305, Note_on_c, 0, 48, 57
1, 668306, Control_c, 0, 64, 68
1, 668319, Note_on_c, 0, 68, 66
1, 668321, Control_c, 0, 64, 73
1, 668336, Control_c, 0, 64, 75
1, 668340, Note_off_c, 0, 67, 64
1, 668347, Note_off_c, 0, 68, 62
1, 668351, Control_c, 0, 64, 76
1, 668365, Control_c, 0, 64, 77
1, 668380, Control_c, 0, 64, 78
1, 668395, Control_c, 0, 64, 77
1, 668409, Control_c, 0, 64, 69
1, 668424, Control_c, 0, 64, 58
1, 668439, Control_c, 0, 64, 42
1, 668454, Control_c, 0, 64, 0
1, 668461, Note_on_c, 0, 70, 76
1, 668471, Note_on_c, 0, 67, 58
1, 668475, Note_off_c, 0, 48, 57
1, 668477, Note_on_c, 0, 46, 63
1, 668499, Note_off_c, 0, 67, 62
1, 668516, Note_off_c, 0, 41, 47
1, 668527, Note_off_c, 0, 70, 62
1, 668559, Note_off_c, 0, 46, 58
1, 668595, Control_c, 0, 64, 36
1, 668608, Note_on_c, 0, 72, 80
1, 668609, Control_c, 0, 64, 58
1, 668611, Note_on_c, 0, 68, 69
1, 668623, Note_on_c, 0, 44, 62
1, 668624, Control_c, 0, 64, 68
1, 668636, Note_off_c, 0, 68, 68
1, 668639, Control_c, 0, 64, 76
1, 668647, Note_off_c, 0, 72, 66
1, 668654, Note_off_c, 0, 44, 65
1, 668654, Control_c, 0, 64, 82
1, 668669, Control_c, 0, 64, 85
1, 668683, Control_c, 0, 64, 87
1, 668698, Control_c, 0, 64, 87
1, 668757, Control_c, 0, 64, 87
1, 668769, Note_on_c, 0, 73, 72
1, 668787, Control_c, 0, 64, 83
1, 668802, Control_c, 0, 64, 75
1, 668809, Note_on_c, 0, 72, 72
1, 668817, Control_c, 0, 64, 66
1, 668829, Note_off_c, 0, 73, 53
1, 668832, Control_c, 0, 64, 54
1, 668847, Control_c, 0, 64, 32
1, 668853, Note_off_c, 0, 72, 65
1, 668858, Note_on_c, 0, 70, 82
1, 668862, Control_c, 0, 64, 0
1, 668916, Note_off_c, 0, 70, 65
1, 668922, Note_on_c, 0, 72, 74
1, 669061, Note_on_c, 0, 73, 74
1, 669062, Note_off_c, 0, 72, 62
1, 669200, Note_on_c, 0, 75, 63
1, 669209, Note_off_c, 0, 73, 52
1, 669255, Control_c, 0, 64, 32
1, 669269, Control_c, 0, 64, 51
1, 669284, Control_c, 0, 64, 64
1, 669294, Note_off_c, 0, 75, 64
1, 669299, Control_c, 0, 64, 71
1, 669313, Control_c, 0, 64, 79
1, 669328, Control_c, 0, 64, 87
1, 669343, Control_c, 0, 64, 96
1, 669357, Control_c, 0, 64, 109
1, 669361, Note_on_c, 0, 75, 69
1, 669372, Control_c, 0, 64, 127
1, 669422, Note_off_c, 0, 75, 62
1, 669501, Note_on_c, 0, 75, 82
1, 669555, Note_off_c, 0, 75, 64
1, 669638, Note_on_c, 0, 75, 87
1, 669693, Note_off_c, 0, 75, 63
1, 669788, Note_on_c, 0, 75, 88
1, 669929, Note_on_c, 0, 77, 88
1, 669950, Note_off_c, 0, 75, 61
1, 669985, Note_off_c, 0, 77, 66
1, 670149, Note_on_c, 0, 73, 74
1, 670153, Note_on_c, 0, 63, 53
1, 670165, Note_on_c, 0, 70, 62
1, 670166, Control_c, 0, 64, 99
1, 670170, Note_on_c, 0, 55, 44
1, 670180, Control_c, 0, 64, 81
1, 670195, Control_c, 0, 64, 68
1, 670210, Control_c, 0, 64, 55
1, 670225, Control_c, 0, 64, 41
1, 670240, Control_c, 0, 64, 0
1, 670373, Control_c, 0, 64, 35
1, 670373, Control_c, 0, 67, 37
1, 670388, Control_c, 0, 64, 46
1, 670388, Control_c, 0, 67, 44
1, 670403, Control_c, 0, 64, 55
1, 670403, Control_c, 0, 67, 52
1, 670418, Control_c, 0, 64, 62
1, 670418, Control_c, 0, 67, 63
1, 670433, Control_c, 0, 64, 66
1, 670433, Control_c, 0, 67, 78
1, 670448, Control_c, 0, 64, 70
1, 670448, Control_c, 0, 67, 92
1, 670463, Control_c, 0, 64, 73
1, 670463, Control_c, 0, 67, 106
1, 670477, Control_c, 0, 64, 76
1, 670477, Control_c, 0, 67, 120
1, 670492, Control_c, 0, 64, 80
1, 670492, Control_c, 0, 67, 127
1, 670507, Control_c, 0, 64, 85
1, 670522, Control_c, 0, 64, 90
1, 670537, Control_c, 0, 64, 96
1, 670552, Control_c, 0, 64, 103
1, 670567, Control_c, 0, 64, 112
1, 670582, Control_c, 0, 64, 127
1, 670595, Note_off_c, 0, 55, 53
1, 670657, Note_off_c, 0, 73, 59
1, 670767, Control_c, 0, 64, 100
1, 670781, Control_c, 0, 64, 81
1, 670796, Control_c, 0, 64, 66
1, 670811, Control_c, 0, 64, 50
1, 670817, Note_on_c, 0, 68, 48
1, 670817, Note_on_c, 0, 72, 56
1, 670823, Note_on_c, 0, 56, 43
1, 670826, Control_c, 0, 64, 33
1, 670835, Note_off_c, 0, 70, 56
1, 670841, Control_c, 0, 64, 0
1, 670871, Control_c, 0, 64, 35
1, 670885, Control_c, 0, 64, 46
1, 670900, Control_c, 0, 64, 58
1, 670904, Note_off_c, 0, 63, 61
1, 670915, Control_c, 0, 64, 67
1, 670918, Note_off_c, 0, 68, 59
1, 670929, Control_c, 0, 64, 76
1, 670943, Note_off_c, 0, 72, 61
1, 670944, Control_c, 0, 64, 87
1, 670949, Note_off_c, 0, 56, 61
1, 670959, Control_c, 0, 64, 93
1, 670974, Control_c, 0, 64, 99
1, 670989, Control_c, 0, 64, 106
1, 671003, Control_c, 0, 64, 113
1, 671018, Control_c, 0, 64, 122
1, 671033, Control_c, 0, 64, 127
1, 671092, Control_c, 0, 64, 124
1, 671107, Control_c, 0, 64, 118
1, 671122, Control_c, 0, 64, 110
1, 671133, Note_on_c, 0, 70, 60
1, 671136, Control_c, 0, 64, 101
1, 671139, Note_on_c, 0, 65, 55
1, 671145, Note_on_c, 0, 61, 40
1, 671151, Control_c, 0, 64, 91
1, 671155, Note_on_c, 0, 49, 48
1, 671166, Control_c, 0, 64, 82
1, 671181, Control_c, 0, 64, 73
1, 671196, Control_c, 0, 64, 65
1, 671201, Note_off_c, 0, 70, 62
1, 671211, Control_c, 0, 64, 56
1, 671226, Control_c, 0, 64, 48
1, 671241, Control_c, 0, 64, 40
1, 671256, Control_c, 0, 64, 31
1, 671271, Control_c, 0, 64, 0
1, 671290, Note_on_c, 0, 72, 60
1, 671336, Note_on_c, 0, 70, 65
1, 671359, Note_off_c, 0, 72, 53
1, 671376, Note_off_c, 0, 70, 66
1, 671389, Note_on_c, 0, 69, 66
1, 671446, Note_on_c, 0, 70, 50
1, 671464, Note_off_c, 0, 69, 59
1, 671516, Control_c, 0, 64, 32
1, 671531, Control_c, 0, 64, 45
1, 671546, Control_c, 0, 64, 58
1, 671560, Control_c, 0, 64, 66
1, 671575, Control_c, 0, 64, 71
1, 671584, Note_off_c, 0, 49, 55
1, 671589, Note_off_c, 0, 70, 37
1, 671590, Control_c, 0, 64, 76
1, 671597, Note_on_c, 0, 72, 57
1, 671605, Control_c, 0, 64, 80
1, 671619, Note_off_c, 0, 72, 60
1, 671620, Control_c, 0, 64, 83
1, 671634, Control_c, 0, 64, 84
1, 671640, Note_off_c, 0, 61, 31
1, 671649, Control_c, 0, 64, 84
1, 671670, Note_off_c, 0, 65, 41
1, 671676, Note_on_c, 0, 73, 56
1, 671709, Control_c, 0, 64, 84
1, 671738, Control_c, 0, 64, 83
1, 671745, Note_off_c, 0, 73, 62
1, 671753, Control_c, 0, 64, 82
1, 671759, Note_on_c, 0, 68, 56
1, 671761, Note_on_c, 0, 63, 60
1, 671768, Control_c, 0, 64, 79
1, 671772, Note_on_c, 0, 60, 39
1, 671783, Control_c, 0, 64, 76
1, 671789, Note_on_c, 0, 51, 35
1, 671798, Control_c, 0, 64, 71
1, 671799, Note_off_c, 0, 63, 62
1, 671813, Control_c, 0, 64, 66
1, 671818, Note_off_c, 0, 68, 55
1, 671827, Note_off_c, 0, 60, 52
1, 671827, Control_c, 0, 64, 59
1, 671842, Control_c, 0, 64, 53
1, 671857, Control_c, 0, 64, 47
1, 671872, Control_c, 0, 64, 41
1, 671887, Control_c, 0, 64, 37
1, 671901, Control_c, 0, 64, 35
1, 671916, Control_c, 0, 64, 32
1, 671931, Control_c, 0, 64, 30
1, 671946, Control_c, 0, 64, 0
1, 672081, Note_on_c, 0, 67, 57
1, 672084, Note_on_c, 0, 58, 47
1, 672098, Note_on_c, 0, 61, 51
1, 672139, Control_c, 0, 64, 32
1, 672146, Note_off_c, 0, 61, 62
1, 672154, Control_c, 0, 64, 42
1, 672159, Note_off_c, 0, 58, 60
1, 672165, Note_off_c, 0, 67, 61
1, 672169, Control_c, 0, 64, 54
1, 672183, Control_c, 0, 64, 61
1, 672198, Control_c, 0, 64, 63
1, 672213, Control_c, 0, 64, 64
1, 672280, Control_c, 0, 64, 63
1, 672295, Control_c, 0, 64, 63
1, 672310, Control_c, 0, 64, 62
1, 672325, Control_c, 0, 64, 60
1, 672339, Control_c, 0, 64, 59
1, 672354, Control_c, 0, 64, 57
1, 672369, Control_c, 0, 64, 53
1, 672383, Control_c, 0, 64, 48
1, 672398, Control_c, 0, 64, 43
1, 672410, Note_on_c, 0, 70, 50
1, 672413, Control_c, 0, 64, 36
1, 672420, Note_on_c, 0, 61, 39
1, 672421, Note_off_c, 0, 51, 43
1, 672421, Note_on_c, 0, 56, 38
1, 672428, Control_c, 0, 64, 0
1, 672513, Note_off_c, 0, 56, 55
1, 672546, Control_c, 0, 64, 30
1, 672561, Control_c, 0, 64, 43
1, 672576, Control_c, 0, 64, 56
1, 672591, Control_c, 0, 64, 62
1, 672606, Control_c, 0, 64, 65
1, 672621, Control_c, 0, 64, 66
1, 672636, Control_c, 0, 64, 66
1, 672650, Control_c, 0, 64, 67
1, 672695, Control_c, 0, 64, 66
1, 672709, Control_c, 0, 64, 65
1, 672724, Control_c, 0, 64, 65
1, 672771, Note_on_c, 0, 51, 32
1, 672813, Control_c, 0, 64, 65
1, 672824, Note_off_c, 0, 61, 59
1, 672828, Control_c, 0, 64, 66
1, 672847, Note_off_c, 0, 51, 54
1, 672984, Control_c, 0, 64, 65
1, 673044, Control_c, 0, 64, 65
1, 673103, Control_c, 0, 64, 64
1, 673118, Control_c, 0, 64, 64
1, 673132, Control_c, 0, 64, 63
1, 673147, Control_c, 0, 64, 62
1, 673152, Note_on_c, 0, 68, 38
1, 673162, Control_c, 0, 64, 59
1, 673177, Control_c, 0, 64, 57
1, 673179, Note_on_c, 0, 60, 32
1, 673192, Control_c, 0, 64, 53
1, 673200, Note_on_c, 0, 44, 20
1, 673206, Control_c, 0, 64, 49
1, 673221, Control_c, 0, 64, 43
1, 673236, Control_c, 0, 64, 31
1, 673251, Control_c, 0, 64, 0
1, 673309, Note_off_c, 0, 70, 51
1, 673369, Control_c, 0, 64, 31
1, 673384, Control_c, 0, 64, 42
1, 673399, Control_c, 0, 64, 55
1, 673414, Control_c, 0, 64, 62
1, 673429, Control_c, 0, 64, 66
1, 673443, Control_c, 0, 64, 69
1, 673458, Control_c, 0, 64, 71
1, 673468, Note_off_c, 0, 60, 41
1, 673473, Control_c, 0, 64, 72
1, 673488, Control_c, 0, 64, 74
1, 673503, Control_c, 0, 64, 75
1, 673518, Control_c, 0, 64, 76
1, 673532, Control_c, 0, 64, 76
1, 673533, Note_off_c, 0, 44, 35
1, 673542, Note_off_c, 0, 68, 33
1, 673547, Control_c, 0, 64, 77
1, 673652, Control_c, 0, 64, 76
1, 673696, Control_c, 0, 64, 76
1, 673711, Control_c, 0, 64, 75
1, 673733, Control_c, 0, 64, 74
1, 673747, Control_c, 0, 64, 73
1, 673762, Control_c, 0, 64, 72
1, 673777, Control_c, 0, 64, 70
1, 673792, Control_c, 0, 64, 68
1, 673807, Control_c, 0, 64, 64
1, 673822, Control_c, 0, 64, 61
1, 673836, Control_c, 0, 64, 59
1, 673851, Control_c, 0, 64, 57
1, 673866, Control_c, 0, 64, 56
1, 673881, Control_c, 0, 64, 55
1, 673896, Control_c, 0, 64, 55
1, 673910, Control_c, 0, 64, 54
1, 673925, Control_c, 0, 64, 54
1, 673940, Control_c, 0, 64, 53
1, 673954, Control_c, 0, 64, 52
1, 673969, Control_c, 0, 64, 52
1, 673984, Control_c, 0, 64, 51
1, 673999, Control_c, 0, 64, 50
1, 674043, Control_c, 0, 64, 50
1, 674251, Control_c, 0, 64, 49
1, 674282, Note_on_c, 0, 72, 36
1, 674293, Note_on_c, 0, 68, 33
1, 674340, Control_c, 0, 64, 49
1, 674369, Control_c, 0, 64, 48
1, 674428, Control_c, 0, 64, 48
1, 674511, Control_c, 0, 64, 47
1, 674555, Control_c, 0, 64, 47
1, 674585, Control_c, 0, 64, 46
1, 674620, Note_on_c, 0, 53, 30
1, 674630, Control_c, 0, 64, 46
1, 674689, Control_c, 0, 64, 45
1, 674690, Note_off_c, 0, 53, 62
1, 674719, Control_c, 0, 64, 45
1, 674792, Control_c, 0, 64, 44
1, 674837, Control_c, 0, 64, 44
1, 674910, Control_c, 0, 64, 43
1, 674947, Note_on_c, 0, 73, 37
1, 674958, Note_on_c, 0, 46, 33
1, 674970, Control_c, 0, 64, 43
1, 675018, Note_off_c, 0, 46, 53
1, 675059, Note_off_c, 0, 72, 56
1, 675074, Control_c, 0, 64, 42
1, 675301, Note_on_c, 0, 58, 35
1, 675369, Note_off_c, 0, 58, 48
1, 675401, Note_off_c, 0, 68, 34
1, 675512, Control_c, 0, 64, 42
1, 675571, Control_c, 0, 64, 41
1, 675600, Control_c, 0, 64, 41
1, 675615, Control_c, 0, 64, 40
1, 675623, Note_on_c, 0, 67, 44
1, 675629, Note_on_c, 0, 51, 32
1, 675645, Control_c, 0, 64, 40
1, 675660, Control_c, 0, 64, 39
1, 675663, Note_off_c, 0, 51, 56
1, 675674, Control_c, 0, 64, 39
1, 675733, Control_c, 0, 64, 38
1, 675780, Note_on_c, 0, 77, 41
1, 675788, Note_off_c, 0, 73, 57
1, 675807, Control_c, 0, 64, 38
1, 675852, Control_c, 0, 64, 37
1, 675932, Note_on_c, 0, 75, 48
1, 675944, Note_on_c, 0, 39, 40
1, 675946, Note_off_c, 0, 77, 41
1, 675987, Note_off_c, 0, 39, 57
1, 676083, Note_on_c, 0, 73, 57
1, 676090, Note_off_c, 0, 75, 54
1, 676168, Note_off_c, 0, 73, 62
1, 676171, Control_c, 0, 64, 37
1, 676253, Note_on_c, 0, 72, 46
1, 676273, Note_on_c, 0, 44, 24
1, 676290, Control_c, 0, 64, 36
1, 676318, Note_off_c, 0, 44, 58
1, 676363, Control_c, 0, 64, 36
1, 676404, Note_off_c, 0, 67, 44
1, 676407, Note_on_c, 0, 70, 46
1, 676422, Control_c, 0, 64, 35
1, 676437, Control_c, 0, 64, 35
1, 676452, Control_c, 0, 64, 34
1, 676549, Note_on_c, 0, 56, 35
1, 676557, Note_on_c, 0, 68, 43
1, 676598, Note_off_c, 0, 56, 50
1, 676610, Note_off_c, 0, 70, 34
1, 676700, Note_on_c, 0, 67, 50
1, 676700, Note_off_c, 0, 68, 59
1, 676762, Note_off_c, 0, 67, 57
1, 676857, Note_on_c, 0, 49, 36
1, 676862, Note_on_c, 0, 65, 39
1, 676904, Note_off_c, 0, 49, 61
1, 677002, Note_on_c, 0, 75, 49
1, 677048, Note_off_c, 0, 72, 38
1, 677152, Note_on_c, 0, 37, 43
1, 677156, Note_on_c, 0, 73, 50
1, 677190, Note_off_c, 0, 37, 60
1, 677215, Note_off_c, 0, 75, 54
1, 677272, Note_off_c, 0, 73, 62
1, 677306, Note_on_c, 0, 72, 46
1, 677378, Control_c, 0, 64, 34
1, 677438, Control_c, 0, 64, 33
1, 677456, Note_on_c, 0, 70, 55
1, 677477, Note_on_c, 0, 43, 34
1, 677505, Control_c, 0, 64, 33
1, 677539, Note_off_c, 0, 43, 59
1, 677539, Note_off_c, 0, 65, 42
1, 677553, Note_off_c, 0, 72, 54
1, 677609, Control_c, 0, 64, 32
1, 677611, Note_on_c, 0, 68, 48
1, 677728, Control_c, 0, 64, 32
1, 677776, Note_on_c, 0, 67, 47
1, 677779, Note_on_c, 0, 55, 39
1, 677834, Note_off_c, 0, 55, 59
1, 677903, Note_off_c, 0, 67, 59
1, 677918, Note_on_c, 0, 65, 48
1, 678031, Note_off_c, 0, 65, 59
1, 678061, Note_on_c, 0, 64, 61
1, 678065, Note_on_c, 0, 48, 51
1, 678113, Note_off_c, 0, 48, 63
1, 678120, Note_off_c, 0, 68, 51
1, 678191, Note_off_c, 0, 70, 45
1, 678218, Note_on_c, 0, 73, 63
1, 678358, Control_c, 0, 64, 33
1, 678360, Note_on_c, 0, 72, 65
1, 678366, Note_on_c, 0, 36, 51
1, 678373, Control_c, 0, 64, 37
1, 678388, Control_c, 0, 64, 44
1, 678399, Note_off_c, 0, 36, 63
1, 678402, Control_c, 0, 64, 55
1, 678417, Control_c, 0, 64, 63
1, 678432, Control_c, 0, 64, 68
1, 678448, Control_c, 0, 64, 71
1, 678463, Control_c, 0, 64, 72
1, 678480, Note_off_c, 0, 64, 36
1, 678508, Note_on_c, 0, 70, 63
1, 678551, Note_off_c, 0, 72, 54
1, 678566, Control_c, 0, 67, 125
1, 678581, Control_c, 0, 67, 104
1, 678596, Control_c, 0, 67, 77
1, 678609, Note_off_c, 0, 73, 33
1, 678611, Control_c, 0, 64, 73
1, 678611, Control_c, 0, 67, 58
1, 678625, Control_c, 0, 64, 73
1, 678625, Control_c, 0, 67, 47
1, 678640, Control_c, 0, 64, 74
1, 678640, Control_c, 0, 67, 44
1, 678650, Note_on_c, 0, 68, 61
1, 678657, Note_on_c, 0, 41, 54
1, 678667, Note_off_c, 0, 70, 59
1, 678680, Note_on_c, 0, 65, 43
1, 678681, Note_off_c, 0, 68, 65
1, 678685, Control_c, 0, 67, 45
1, 678699, Control_c, 0, 67, 48
1, 678710, Note_off_c, 0, 41, 60
1, 678714, Control_c, 0, 67, 52
1, 678729, Control_c, 0, 67, 56
1, 678743, Control_c, 0, 67, 62
1, 678758, Control_c, 0, 67, 66
1, 678773, Control_c, 0, 64, 73
1, 678773, Control_c, 0, 67, 68
1, 678788, Control_c, 0, 64, 72
1, 678788, Control_c, 0, 67, 72
1, 678798, Note_on_c, 0, 70, 59
1, 678803, Control_c, 0, 64, 70
1, 678803, Control_c, 0, 67, 75
1, 678809, Note_off_c, 0, 65, 28
1, 678818, Control_c, 0, 64, 67
1, 678818, Control_c, 0, 67, 79
1, 678821, Note_on_c, 0, 49, 51
1, 678833, Control_c, 0, 64, 62
1, 678833, Control_c, 0, 67, 83
1, 678848, Control_c, 0, 64, 56
1, 678848, Control_c, 0, 67, 87
1, 678854, Note_on_c, 0, 68, 59
1, 678863, Control_c, 0, 64, 51
1, 678863, Control_c, 0, 67, 91
1, 678869, Note_off_c, 0, 70, 59
1, 678878, Control_c, 0, 64, 46
1, 678878, Control_c, 0, 67, 94
1, 678890, Note_off_c, 0, 68, 65
1, 678892, Control_c, 0, 64, 40
1, 678892, Control_c, 0, 67, 97
1, 678894, Note_off_c, 0, 49, 53
1, 678901, Note_on_c, 0, 67, 58
1, 678907, Control_c, 0, 64, 29
1, 678922, Control_c, 0, 64, 0
1, 678936, Control_c, 0, 67, 96
1, 678940, Note_on_c, 0, 48, 60
1, 678951, Control_c, 0, 67, 94
1, 678952, Note_on_c, 0, 68, 58
1, 678973, Note_off_c, 0, 67, 64
1, 678973, Control_c, 0, 67, 93
1, 678982, Note_off_c, 0, 68, 65
1, 678988, Control_c, 0, 67, 91
1, 679003, Control_c, 0, 67, 88
1, 679018, Control_c, 0, 67, 84
1, 679033, Control_c, 0, 67, 80
1, 679048, Control_c, 0, 67, 77
1, 679062, Control_c, 0, 67, 75
1, 679077, Control_c, 0, 67, 73
1, 679092, Control_c, 0, 67, 71
1, 679095, Note_on_c, 0, 70, 66
1, 679095, Note_on_c, 0, 67, 62
1, 679098, Note_off_c, 0, 48, 56
1, 679107, Control_c, 0, 67, 68
1, 679109, Note_on_c, 0, 46, 53
1, 679116, Note_off_c, 0, 67, 64
1, 679122, Control_c, 0, 67, 67
1, 679137, Control_c, 0, 67, 63
1, 679140, Note_off_c, 0, 70, 61
1, 679151, Control_c, 0, 67, 59
1, 679166, Control_c, 0, 67, 49
1, 679167, Note_off_c, 0, 46, 56
1, 679181, Control_c, 0, 67, 38
1, 679196, Control_c, 0, 67, 0
1, 679225, Control_c, 0, 64, 29
1, 679237, Note_on_c, 0, 72, 71
1, 679241, Control_c, 0, 64, 46
1, 679252, Note_on_c, 0, 44, 51
1, 679256, Control_c, 0, 64, 59
1, 679259, Note_on_c, 0, 68, 40
1, 679271, Control_c, 0, 64, 65
1, 679284, Note_off_c, 0, 72, 63
1, 679286, Control_c, 0, 64, 67
1, 679287, Note_off_c, 0, 44, 65
1, 679288, Note_off_c, 0, 68, 49
1, 679301, Control_c, 0, 64, 68
1, 679315, Control_c, 0, 64, 69
1, 679330, Control_c, 0, 64, 70
1, 679345, Control_c, 0, 64, 70
1, 679392, Note_on_c, 0, 73, 58
1, 679435, Note_on_c, 0, 72, 56
1, 679448, Control_c, 0, 64, 70
1, 679460, Note_off_c, 0, 73, 57
1, 679463, Control_c, 0, 64, 68
1, 679478, Control_c, 0, 64, 65
1, 679480, Note_off_c, 0, 72, 63
1, 679483, Note_on_c, 0, 70, 72
1, 679492, Control_c, 0, 64, 61
1, 679507, Control_c, 0, 64, 56
1, 679522, Control_c, 0, 64, 47
1, 679537, Control_c, 0, 64, 37
1, 679542, Note_off_c, 0, 70, 64
1, 679552, Control_c, 0, 64, 0
1, 679565, Note_on_c, 0, 72, 53
1, 679679, Note_off_c, 0, 72, 60
1, 679697, Note_on_c, 0, 73, 59
1, 679796, Control_c, 0, 64, 40
1, 679811, Control_c, 0, 64, 51
1, 679814, Note_off_c, 0, 73, 54
1, 679826, Control_c, 0, 64, 60
1, 679835, Note_on_c, 0, 75, 57
1, 679840, Control_c, 0, 64, 64
1, 679855, Control_c, 0, 64, 66
1, 679870, Control_c, 0, 64, 68
1, 679882, Note_off_c, 0, 75, 64
1, 679885, Control_c, 0, 64, 71
1, 679899, Control_c, 0, 64, 75
1, 679914, Control_c, 0, 64, 79
1, 679929, Control_c, 0, 64, 84
1, 679944, Control_c, 0, 64, 90
1, 679959, Control_c, 0, 64, 97
1, 679972, Note_on_c, 0, 75, 66
1, 679973, Control_c, 0, 64, 107
1, 679988, Control_c, 0, 64, 127
1, 680030, Note_off_c, 0, 75, 61
1, 680112, Note_on_c, 0, 75, 72
1, 680164, Note_off_c, 0, 75, 64
1, 680257, Note_on_c, 0, 75, 77
1, 680308, Note_off_c, 0, 75, 65
1, 680406, Note_on_c, 0, 75, 81
1, 680553, Note_on_c, 0, 77, 82
1, 680563, Note_off_c, 0, 75, 61
1, 680603, Note_off_c, 0, 77, 62
1, 680738, Control_c, 0, 67, 42
1, 680753, Control_c, 0, 67, 55
1, 680757, Note_on_c, 0, 73, 66
1, 680768, Control_c, 0, 67, 73
1, 680772, Note_on_c, 0, 63, 50
1, 680782, Control_c, 0, 64, 118
1, 680782, Control_c, 0, 67, 98
1, 680785, Note_on_c, 0, 70, 52
1, 680792, Note_on_c, 0, 55, 38
1, 680797, Control_c, 0, 64, 100
1, 680797, Control_c, 0, 67, 116
1, 680812, Control_c, 0, 64, 89
1, 680812, Control_c, 0, 67, 127
1, 680827, Control_c, 0, 64, 80
1, 680842, Control_c, 0, 64, 70
1, 680857, Control_c, 0, 64, 62
1, 680872, Control_c, 0, 64, 55
1, 680887, Control_c, 0, 64, 49
1, 680902, Control_c, 0, 64, 44
1, 680917, Control_c, 0, 64, 41
1, 680931, Control_c, 0, 64, 39
1, 680946, Control_c, 0, 64, 38
1, 680991, Control_c, 0, 64, 39
1, 681006, Control_c, 0, 64, 41
1, 681020, Control_c, 0, 64, 45
1, 681035, Control_c, 0, 64, 50
1, 681050, Control_c, 0, 64, 57
1, 681065, Control_c, 0, 64, 61
1, 681080, Control_c, 0, 64, 65
1, 681094, Control_c, 0, 64, 68
1, 681109, Control_c, 0, 64, 72
1, 681124, Control_c, 0, 64, 76
1, 681138, Control_c, 0, 64, 79
1, 681153, Control_c, 0, 64, 83
1, 681168, Control_c, 0, 64, 87
1, 681183, Control_c, 0, 64, 92
1, 681198, Control_c, 0, 64, 98
1, 681220, Control_c, 0, 64, 107
1, 681235, Control_c, 0, 64, 120
1, 681242, Note_off_c, 0, 55, 33
1, 681250, Control_c, 0, 64, 127
1, 681339, Note_off_c, 0, 73, 60
1, 681413, Control_c, 0, 64, 112
1, 681427, Control_c, 0, 64, 93
1, 681442, Control_c, 0, 64, 79
1, 681457, Control_c, 0, 64, 65
1, 681471, Control_c, 0, 64, 52
1, 681483, Note_on_c, 0, 72, 48
1, 681486, Control_c, 0, 64, 40
1, 681494, Note_on_c, 0, 56, 36
1, 681501, Control_c, 0, 64, 32
1, 681506, Note_off_c, 0, 70, 55
1, 681510, Note_on_c, 0, 68, 36
1, 681531, Control_c, 0, 64, 33
1, 681546, Control_c, 0, 64, 37
1, 681560, Control_c, 0, 64, 49
1, 681575, Control_c, 0, 64, 60
1, 681576, Note_off_c, 0, 63, 61
1, 681590, Control_c, 0, 64, 69
1, 681598, Note_off_c, 0, 68, 62
1, 681605, Control_c, 0, 64, 79
1, 681609, Note_off_c, 0, 72, 62
1, 681620, Control_c, 0, 64, 89
1, 681620, Note_off_c, 0, 56, 61
1, 681635, Control_c, 0, 64, 96
1, 681650, Control_c, 0, 64, 101
1, 681665, Control_c, 0, 64, 106
1, 681680, Control_c, 0, 64, 108
1, 681784, Control_c, 0, 64, 105
1, 681799, Control_c, 0, 64, 100
1, 681803, Note_on_c, 0, 65, 52
1, 681808, Note_on_c, 0, 70, 54
1, 681810, Note_on_c, 0, 49, 35
1, 681814, Control_c, 0, 64, 93
1, 681817, Note_on_c, 0, 61, 34
1, 681829, Control_c, 0, 64, 85
1, 681843, Note_off_c, 0, 70, 66
1, 681843, Control_c, 0, 64, 77
1, 681858, Control_c, 0, 64, 68
1, 681873, Control_c, 0, 64, 59
1, 681887, Control_c, 0, 64, 52
1, 681902, Control_c, 0, 64, 46
1, 681917, Control_c, 0, 64, 41
1, 681932, Control_c, 0, 64, 37
1, 681945, Note_on_c, 0, 72, 53
1, 681947, Control_c, 0, 64, 32
1, 681969, Control_c, 0, 64, 0
1, 682003, Note_on_c, 0, 70, 60
1, 682027, Note_off_c, 0, 72, 56
1, 682034, Note_off_c, 0, 70, 66
1, 682051, Note_on_c, 0, 69, 58
1, 682096, Note_on_c, 0, 70, 63
1, 682121, Note_off_c, 0, 69, 60
1, 682176, Control_c, 0, 64, 39
1, 682191, Control_c, 0, 64, 50
1, 682206, Control_c, 0, 64, 60
1, 682211, Note_off_c, 0, 70, 57
1, 682218, Note_off_c, 0, 49, 57
1, 682221, Control_c, 0, 64, 65
1, 682235, Control_c, 0, 64, 69
1, 682245, Note_on_c, 0, 72, 55
1, 682250, Control_c, 0, 64, 72
1, 682265, Control_c, 0, 64, 74
1, 682276, Note_off_c, 0, 61, 34
1, 682280, Control_c, 0, 64, 74
1, 682300, Note_off_c, 0, 72, 54
1, 682307, Note_off_c, 0, 65, 41
1, 682327, Note_on_c, 0, 73, 65
1, 682354, Control_c, 0, 64, 74
1, 682368, Control_c, 0, 64, 73
1, 682383, Control_c, 0, 64, 71
1, 682398, Control_c, 0, 64, 70
1, 682407, Note_on_c, 0, 60, 40
1, 682412, Note_off_c, 0, 73, 62
1, 682413, Control_c, 0, 64, 66
1, 682414, Note_on_c, 0, 68, 63
1, 682421, Note_on_c, 0, 63, 62
1, 682428, Control_c, 0, 64, 62
1, 682430, Note_on_c, 0, 51, 38
1, 682444, Control_c, 0, 64, 58
1, 682458, Control_c, 0, 64, 53
1, 682473, Control_c, 0, 64, 48
1, 682488, Control_c, 0, 64, 45
1, 682492, Note_off_c, 0, 63, 62
1, 682503, Control_c, 0, 64, 40
1, 682517, Control_c, 0, 64, 34
1, 682529, Note_off_c, 0, 68, 61
1, 682532, Control_c, 0, 64, 0
1, 682544, Note_off_c, 0, 60, 37
1, 682735, Note_on_c, 0, 67, 61
1, 682756, Note_on_c, 0, 61, 49
1, 682757, Note_on_c, 0, 58, 51
1, 682799, Note_off_c, 0, 61, 63
1, 682819, Note_off_c, 0, 67, 62
1, 682821, Control_c, 0, 64, 45
1, 682825, Note_off_c, 0, 58, 60
1, 682836, Control_c, 0, 64, 59
1, 682851, Control_c, 0, 64, 65
1, 682866, Control_c, 0, 64, 67
1, 682881, Control_c, 0, 64, 68
1, 682896, Control_c, 0, 64, 70
1, 682910, Control_c, 0, 64, 71
1, 682925, Control_c, 0, 64, 71
1, 683009, Note_off_c, 0, 51, 36
1, 683014, Control_c, 0, 64, 70
1, 683029, Control_c, 0, 64, 68
1, 683043, Control_c, 0, 64, 64
1, 683057, Note_on_c, 0, 70, 51
1, 683058, Control_c, 0, 64, 58
1, 683073, Note_on_c, 0, 61, 41
1, 683073, Control_c, 0, 64, 47
1, 683078, Note_on_c, 0, 56, 40
1, 683088, Control_c, 0, 64, 29
1, 683103, Control_c, 0, 64, 0
1, 683155, Note_off_c, 0, 56, 52
1, 683191, Control_c, 0, 64, 38
1, 683206, Control_c, 0, 64, 50
1, 683221, Control_c, 0, 64, 60
1, 683237, Control_c, 0, 64, 64
1, 683252, Control_c, 0, 64, 67
1, 683267, Control_c, 0, 64, 70
1, 683281, Control_c, 0, 64, 71
1, 683296, Control_c, 0, 64, 72
1, 683397, Note_on_c, 0, 51, 32
1, 683429, Note_off_c, 0, 61, 61
1, 683465, Note_off_c, 0, 51, 51
1, 683629, Control_c, 0, 64, 71
1, 683659, Control_c, 0, 64, 71
1, 683689, Control_c, 0, 64, 70
1, 683704, Control_c, 0, 64, 70
1, 683719, Control_c, 0, 64, 69
1, 683733, Control_c, 0, 64, 68
1, 683748, Control_c, 0, 64, 66
1, 683763, Control_c, 0, 64, 64
1, 683776, Note_on_c, 0, 68, 37
1, 683778, Control_c, 0, 64, 62
1, 683793, Control_c, 0, 64, 59
1, 683807, Control_c, 0, 64, 56
1, 683816, Note_on_c, 0, 60, 25
1, 683822, Control_c, 0, 64, 53
1, 683837, Control_c, 0, 64, 49
1, 683852, Control_c, 0, 64, 44
1, 683862, Note_on_c, 0, 44, 3
1, 683866, Control_c, 0, 64, 35
1, 683881, Control_c, 0, 64, 0
1, 683911, Note_off_c, 0, 70, 55
1, 683970, Control_c, 0, 64, 39
1, 683985, Control_c, 0, 64, 50
1, 684000, Control_c, 0, 64, 58
1, 684014, Control_c, 0, 64, 64
1, 684030, Control_c, 0, 64, 67
1, 684045, Control_c, 0, 64, 70
1, 684060, Control_c, 0, 64, 73
1, 684065, Note_off_c, 0, 60, 45
1, 684075, Control_c, 0, 64, 76
1, 684075, Control_c, 0, 67, 117
1, 684089, Control_c, 0, 64, 79
1, 684089, Control_c, 0, 67, 96
1, 684104, Control_c, 0, 64, 83
1, 684104, Control_c, 0, 67, 69
1, 684117, Note_off_c, 0, 68, 54
1, 684119, Control_c, 0, 64, 86
1, 684119, Control_c, 0, 67, 37
1, 684131, Note_off_c, 0, 44, 38
1, 684134, Control_c, 0, 64, 90
1, 684134, Control_c, 0, 67, 0
1, 684149, Control_c, 0, 64, 93
1, 684163, Control_c, 0, 64, 96
1, 684304, Control_c, 0, 64, 94
1, 684319, Control_c, 0, 64, 89
1, 684334, Control_c, 0, 64, 83
1, 684349, Control_c, 0, 64, 77
1, 684363, Control_c, 0, 64, 71
1, 684378, Control_c, 0, 64, 65
1, 684393, Control_c, 0, 64, 57
1, 684408, Control_c, 0, 64, 49
1, 684423, Control_c, 0, 64, 38
1, 684437, Control_c, 0, 64, 0
1, 684693, Note_on_c, 0, 72, 70
1, 684719, Control_c, 0, 64, 35
1, 684734, Control_c, 0, 64, 41
1, 684746, Note_on_c, 0, 69, 35
1, 684749, Control_c, 0, 64, 47
1, 684763, Control_c, 0, 64, 53
1, 684778, Control_c, 0, 64, 57
1, 684793, Control_c, 0, 64, 59
1, 684808, Control_c, 0, 64, 61
1, 684824, Control_c, 0, 64, 62
1, 684839, Control_c, 0, 64, 64
1, 684853, Control_c, 0, 64, 65
1, 684868, Control_c, 0, 64, 66
1, 684883, Control_c, 0, 64, 67
1, 684898, Control_c, 0, 64, 68
1, 684912, Control_c, 0, 64, 69
1, 684927, Control_c, 0, 64, 70
1, 684942, Control_c, 0, 64, 71
1, 684965, Control_c, 0, 64, 72
1, 684980, Control_c, 0, 64, 73
1, 684994, Control_c, 0, 64, 73
1, 685009, Control_c, 0, 64, 74
1, 685039, Control_c, 0, 64, 74
1, 685068, Control_c, 0, 64, 75
1, 685081, Note_on_c, 0, 65, 38
1, 685098, Control_c, 0, 64, 75
1, 685112, Control_c, 0, 64, 76
1, 685127, Control_c, 0, 64, 77
1, 685142, Control_c, 0, 64, 79
1, 685157, Control_c, 0, 64, 81
1, 685172, Control_c, 0, 64, 83
1, 685186, Control_c, 0, 64, 85
1, 685201, Control_c, 0, 64, 87
1, 685216, Control_c, 0, 64, 89
1, 685230, Control_c, 0, 64, 91
1, 685245, Note_off_c, 0, 65, 37
1, 685245, Control_c, 0, 64, 92
1, 685379, Control_c, 0, 64, 91
1, 685389, Note_on_c, 0, 73, 75
1, 685394, Control_c, 0, 64, 90
1, 685409, Control_c, 0, 64, 88
1, 685424, Control_c, 0, 64, 84
1, 685433, Note_on_c, 0, 70, 54
1, 685438, Control_c, 0, 64, 78
1, 685453, Control_c, 0, 64, 70
1, 685468, Control_c, 0, 64, 62
1, 685483, Control_c, 0, 64, 49
1, 685498, Control_c, 0, 64, 0
1, 685537, Note_off_c, 0, 72, 56
1, 685586, Control_c, 0, 64, 39
1, 685601, Control_c, 0, 64, 53
1, 685616, Control_c, 0, 64, 62
1, 685632, Control_c, 0, 64, 67
1, 685647, Control_c, 0, 64, 70
1, 685662, Control_c, 0, 64, 72
1, 685676, Control_c, 0, 64, 74
1, 685691, Control_c, 0, 64, 76
1, 685713, Control_c, 0, 64, 79
1, 685716, Note_on_c, 0, 64, 68
1, 685728, Control_c, 0, 64, 81
1, 685743, Control_c, 0, 64, 85
1, 685758, Control_c, 0, 64, 89
1, 685772, Control_c, 0, 64, 93
1, 685787, Control_c, 0, 64, 99
1, 685802, Control_c, 0, 64, 107
1, 685817, Control_c, 0, 64, 120
1, 685832, Control_c, 0, 64, 127
1, 685834, Note_off_c, 0, 70, 55
1, 685841, Note_off_c, 0, 64, 60
1, 685850, Note_off_c, 0, 73, 61
1, 685963, Note_off_c, 0, 69, 40
1, 686047, Note_on_c, 0, 72, 59
1, 686056, Note_on_c, 0, 63, 67
1, 686089, Note_on_c, 0, 69, 42
1, 686098, Control_c, 0, 64, 99
1, 686113, Control_c, 0, 64, 83
1, 686127, Control_c, 0, 64, 70
1, 686142, Control_c, 0, 64, 59
1, 686157, Control_c, 0, 64, 47
1, 686172, Control_c, 0, 64, 39
1, 686187, Control_c, 0, 64, 36
1, 686217, Control_c, 0, 64, 37
1, 686222, Note_on_c, 0, 78, 67
1, 686232, Control_c, 0, 64, 40
1, 686246, Control_c, 0, 64, 43
1, 686261, Control_c, 0, 64, 48
1, 686270, Note_off_c, 0, 72, 63
1, 686276, Control_c, 0, 64, 52
1, 686291, Control_c, 0, 64, 54
1, 686296, Note_off_c, 0, 69, 59
1, 686306, Control_c, 0, 64, 55
1, 686321, Control_c, 0, 64, 55
1, 686381, Note_on_c, 0, 61, 56
1, 686382, Note_on_c, 0, 77, 68
1, 686454, Note_off_c, 0, 63, 56
1, 686462, Control_c, 0, 64, 55
1, 686462, Control_c, 0, 67, 36
1, 686477, Control_c, 0, 64, 54
1, 686477, Control_c, 0, 67, 49
1, 686491, Control_c, 0, 64, 54
1, 686491, Control_c, 0, 67, 65
1, 686506, Control_c, 0, 64, 53
1, 686506, Control_c, 0, 67, 84
1, 686521, Control_c, 0, 64, 52
1, 686521, Control_c, 0, 67, 106
1, 686536, Control_c, 0, 64, 51
1, 686536, Control_c, 0, 67, 127
1, 686539, Note_on_c, 0, 75, 63
1, 686539, Note_on_c, 0, 60, 61
1, 686551, Control_c, 0, 64, 49
1, 686565, Control_c, 0, 64, 47
1, 686580, Control_c, 0, 64, 45
1, 686591, Note_off_c, 0, 77, 61
1, 686595, Control_c, 0, 64, 41
1, 686601, Note_off_c, 0, 78, 47
1, 686610, Control_c, 0, 64, 36
1, 686625, Control_c, 0, 64, 30
1, 686629, Note_off_c, 0, 61, 31
1, 686640, Control_c, 0, 64, 0
1, 686679, Note_off_c, 0, 60, 51
1, 686688, Note_on_c, 0, 58, 50
1, 686692, Note_on_c, 0, 73, 56
1, 686708, Note_on_c, 0, 70, 41
1, 686734, Note_off_c, 0, 75, 52
1, 686829, Note_on_c, 0, 60, 54
1, 686873, Note_off_c, 0, 58, 38
1, 686963, Note_off_c, 0, 60, 61
1, 686983, Note_on_c, 0, 61, 51
1, 687063, Note_off_c, 0, 73, 55
1, 687073, Note_off_c, 0, 70, 62
1, 687099, Control_c, 0, 64, 33
1, 687114, Control_c, 0, 64, 47
1, 687124, Note_off_c, 0, 61, 59
1, 687129, Control_c, 0, 64, 59
1, 687144, Control_c, 0, 64, 64
1, 687144, Note_on_c, 0, 62, 42
1, 687158, Control_c, 0, 64, 66
1, 687173, Control_c, 0, 64, 67
1, 687188, Control_c, 0, 64, 68
1, 687314, Control_c, 0, 64, 67
1, 687328, Control_c, 0, 64, 65
1, 687337, Note_on_c, 0, 70, 40
1, 687343, Control_c, 0, 64, 63
1, 687344, Note_on_c, 0, 63, 45
1, 687358, Control_c, 0, 64, 59
1, 687360, Note_on_c, 0, 67, 43
1, 687372, Note_off_c, 0, 62, 31
1, 687373, Control_c, 0, 64, 55
1, 687388, Control_c, 0, 64, 48
1, 687403, Control_c, 0, 64, 43
1, 687418, Control_c, 0, 64, 38
1, 687433, Control_c, 0, 64, 35
1, 687462, Control_c, 0, 64, 35
1, 687464, Note_off_c, 0, 63, 51
1, 687477, Control_c, 0, 64, 39
1, 687492, Control_c, 0, 64, 47
1, 687506, Control_c, 0, 64, 56
1, 687521, Control_c, 0, 64, 62
1, 687536, Control_c, 0, 64, 66
1, 687551, Control_c, 0, 64, 67
1, 687566, Control_c, 0, 64, 67
1, 687580, Control_c, 0, 64, 67
1, 687595, Control_c, 0, 64, 65
1, 687610, Control_c, 0, 64, 62
1, 687624, Control_c, 0, 64, 57
1, 687639, Control_c, 0, 64, 50
1, 687654, Control_c, 0, 64, 45
1, 687684, Control_c, 0, 64, 48
1, 687694, Note_on_c, 0, 63, 43
1, 687699, Control_c, 0, 64, 53
1, 687713, Control_c, 0, 64, 60
1, 687728, Control_c, 0, 64, 65
1, 687743, Control_c, 0, 64, 71
1, 687758, Control_c, 0, 64, 74
1, 687773, Control_c, 0, 64, 76
1, 687788, Control_c, 0, 64, 77
1, 687789, Note_off_c, 0, 63, 51
1, 687802, Control_c, 0, 64, 77
1, 687973, Control_c, 0, 64, 77
1, 687987, Control_c, 0, 64, 76
1, 687993, Note_on_c, 0, 71, 59
1, 688002, Control_c, 0, 64, 74
1, 688014, Note_on_c, 0, 68, 43
1, 688017, Control_c, 0, 64, 72
1, 688033, Control_c, 0, 64, 67
1, 688048, Control_c, 0, 64, 60
1, 688062, Control_c, 0, 64, 50
1, 688077, Control_c, 0, 64, 39
1, 688092, Control_c, 0, 64, 0
1, 688110, Note_off_c, 0, 70, 53
1, 688136, Note_off_c, 0, 67, 35
1, 688166, Control_c, 0, 64, 34
1, 688181, Control_c, 0, 64, 45
1, 688196, Control_c, 0, 64, 57
1, 688211, Control_c, 0, 64, 63
1, 688226, Control_c, 0, 64, 67
1, 688241, Control_c, 0, 64, 69
1, 688255, Control_c, 0, 64, 70
1, 688267, Note_off_c, 0, 68, 62
1, 688270, Control_c, 0, 64, 72
1, 688285, Control_c, 0, 64, 74
1, 688300, Control_c, 0, 64, 77
1, 688305, Note_on_c, 0, 62, 47
1, 688315, Control_c, 0, 64, 81
1, 688329, Control_c, 0, 64, 84
1, 688329, Control_c, 0, 67, 124
1, 688344, Control_c, 0, 64, 89
1, 688344, Control_c, 0, 67, 99
1, 688359, Control_c, 0, 64, 95
1, 688359, Control_c, 0, 67, 71
1, 688374, Control_c, 0, 64, 103
1, 688374, Control_c, 0, 67, 47
1, 688379, Note_off_c, 0, 71, 50
1, 688389, Control_c, 0, 64, 117
1, 688389, Control_c, 0, 67, 0
1, 688403, Control_c, 0, 64, 127
1, 688405, Note_off_c, 0, 62, 58
1, 688604, Note_on_c, 0, 70, 57
1, 688622, Note_on_c, 0, 67, 43
1, 688625, Control_c, 0, 64, 110
1, 688628, Note_on_c, 0, 61, 46
1, 688640, Control_c, 0, 64, 86
1, 688655, Control_c, 0, 64, 71
1, 688670, Control_c, 0, 64, 59
1, 688685, Control_c, 0, 64, 47
1, 688707, Control_c, 0, 64, 40
1, 688722, Control_c, 0, 64, 41
1, 688736, Control_c, 0, 64, 45
1, 688751, Control_c, 0, 64, 52
1, 688766, Control_c, 0, 64, 60
1, 688780, Control_c, 0, 64, 66
1, 688783, Note_on_c, 0, 77, 65
1, 688795, Control_c, 0, 64, 72
1, 688810, Control_c, 0, 64, 79
1, 688826, Control_c, 0, 64, 81
1, 688828, Note_off_c, 0, 70, 63
1, 688841, Control_c, 0, 64, 84
1, 688856, Control_c, 0, 64, 85
1, 688871, Control_c, 0, 64, 87
1, 688885, Control_c, 0, 64, 89
1, 688900, Control_c, 0, 64, 90
1, 688915, Control_c, 0, 64, 93
1, 688924, Note_on_c, 0, 75, 72
1, 688929, Note_on_c, 0, 60, 49
1, 688930, Control_c, 0, 64, 95
1, 688933, Note_off_c, 0, 61, 34
1, 688945, Control_c, 0, 64, 98
1, 688959, Control_c, 0, 64, 101
1, 688974, Control_c, 0, 64, 105
1, 688980, Note_off_c, 0, 77, 59
1, 688989, Control_c, 0, 64, 111
1, 689004, Control_c, 0, 64, 122
1, 689019, Control_c, 0, 64, 127
1, 689064, Note_on_c, 0, 73, 72
1, 689078, Note_off_c, 0, 60, 50
1, 689089, Note_off_c, 0, 75, 61
1, 689090, Note_on_c, 0, 58, 59
1, 689120, Note_off_c, 0, 73, 64
1, 689222, Note_on_c, 0, 72, 75
1, 689231, Note_off_c, 0, 58, 60
1, 689238, Note_on_c, 0, 56, 63
1, 689256, Control_c, 0, 64, 94
1, 689270, Control_c, 0, 64, 77
1, 689274, Note_on_c, 0, 68, 41
1, 689285, Control_c, 0, 64, 64
1, 689300, Control_c, 0, 64, 49
1, 689315, Control_c, 0, 64, 31
1, 689330, Control_c, 0, 64, 0
1, 689335, Note_off_c, 0, 67, 38
1, 689359, Control_c, 0, 64, 33
1, 689374, Control_c, 0, 64, 43
1, 689387, Note_off_c, 0, 56, 61
1, 689389, Control_c, 0, 64, 54
1, 689392, Note_on_c, 0, 70, 63
1, 689403, Control_c, 0, 64, 63
1, 689409, Note_on_c, 0, 55, 54
1, 689418, Control_c, 0, 64, 70
1, 689433, Note_off_c, 0, 68, 37
1, 689433, Control_c, 0, 64, 75
1, 689456, Control_c, 0, 64, 78
1, 689471, Control_c, 0, 64, 78
1, 689485, Control_c, 0, 64, 79
1, 689500, Control_c, 0, 64, 80
1, 689515, Control_c, 0, 64, 81
1, 689530, Control_c, 0, 64, 83
1, 689545, Note_off_c, 0, 72, 51
1, 689545, Control_c, 0, 64, 84
1, 689552, Note_on_c, 0, 68, 67
1, 689559, Control_c, 0, 64, 85
1, 689574, Control_c, 0, 64, 87
1, 689582, Note_on_c, 0, 53, 63
1, 689589, Control_c, 0, 64, 88
1, 689603, Control_c, 0, 64, 90
1, 689618, Note_off_c, 0, 55, 37
1, 689618, Control_c, 0, 64, 91
1, 689635, Control_c, 0, 64, 92
1, 689650, Control_c, 0, 64, 93
1, 689654, Note_off_c, 0, 68, 55
1, 689658, Note_off_c, 0, 70, 57
1, 689664, Control_c, 0, 64, 94
1, 689679, Control_c, 0, 64, 94
1, 689723, Control_c, 0, 64, 95
1, 689735, Note_on_c, 0, 72, 81
1, 689760, Note_on_c, 0, 51, 60
1, 689764, Note_on_c, 0, 67, 54
1, 689768, Control_c, 0, 64, 95
1, 689782, Control_c, 0, 64, 96
1, 689822, Note_off_c, 0, 67, 40
1, 689833, Note_off_c, 0, 53, 51
1, 689887, Note_off_c, 0, 72, 59
1, 690019, Control_c, 0, 64, 94
1, 690034, Control_c, 0, 64, 91
1, 690046, Note_on_c, 0, 72, 68
1, 690049, Control_c, 0, 64, 86
1, 690064, Control_c, 0, 64, 81
1, 690079, Note_on_c, 0, 65, 48
1, 690079, Control_c, 0, 64, 73
1, 690092, Note_on_c, 0, 50, 41
1, 690093, Control_c, 0, 64, 65
1, 690108, Control_c, 0, 64, 55
1, 690123, Control_c, 0, 64, 43
1, 690138, Control_c, 0, 64, 0
1, 690151, Note_off_c, 0, 51, 53
1, 690294, Control_c, 0, 64, 39
1, 690308, Control_c, 0, 64, 51
1, 690323, Control_c, 0, 64, 61
1, 690338, Control_c, 0, 64, 67
1, 690348, Note_on_c, 0, 71, 61
1, 690353, Control_c, 0, 64, 71
1, 690368, Control_c, 0, 64, 73
1, 690382, Control_c, 0, 64, 74
1, 690397, Control_c, 0, 64, 75
1, 690412, Control_c, 0, 64, 77
1, 690428, Control_c, 0, 64, 79
1, 690443, Control_c, 0, 64, 82
1, 690457, Control_c, 0, 64, 84
1, 690472, Control_c, 0, 64, 85
1, 690487, Control_c, 0, 64, 87
1, 690491, Note_off_c, 0, 65, 37
1, 690502, Control_c, 0, 64, 88
1, 690514, Note_on_c, 0, 52, 67
1, 690515, Note_off_c, 0, 72, 32
1, 690517, Control_c, 0, 64, 89
1, 690531, Control_c, 0, 64, 90
1, 690545, Note_off_c, 0, 71, 61
1, 690546, Control_c, 0, 64, 90
1, 690561, Control_c, 0, 64, 91
1, 690576, Control_c, 0, 64, 91
1, 690605, Control_c, 0, 64, 92
1, 690649, Control_c, 0, 64, 92
1, 690657, Note_on_c, 0, 70, 84
1, 690658, Note_off_c, 0, 50, 34
1, 690664, Control_c, 0, 64, 93
1, 690677, Note_on_c, 0, 67, 67
1, 690679, Control_c, 0, 64, 93
1, 690694, Control_c, 0, 64, 94
1, 690709, Control_c, 0, 64, 94
1, 690711, Note_off_c, 0, 67, 61
1, 690724, Control_c, 0, 64, 95
1, 690730, Note_off_c, 0, 70, 63
1, 690754, Control_c, 0, 64, 95
1, 690816, Note_on_c, 0, 70, 86
1, 690834, Note_on_c, 0, 67, 67
1, 690842, Control_c, 0, 64, 95
1, 690844, Note_on_c, 0, 53, 62
1, 690857, Control_c, 0, 64, 93
1, 690872, Control_c, 0, 64, 88
1, 690886, Note_off_c, 0, 52, 58
1, 690887, Control_c, 0, 64, 79
1, 690902, Control_c, 0, 64, 67
1, 690916, Control_c, 0, 64, 50
1, 690931, Control_c, 0, 64, 0
1, 690987, Note_on_c, 0, 69, 78
1, 691001, Note_on_c, 0, 65, 64
1, 691028, Control_c, 0, 64, 45
1, 691043, Control_c, 0, 64, 61
1, 691057, Control_c, 0, 64, 72
1, 691061, Note_off_c, 0, 67, 42
1, 691067, Note_off_c, 0, 70, 49
1, 691072, Control_c, 0, 64, 79
1, 691085, Note_off_c, 0, 69, 61
1, 691086, Note_off_c, 0, 65, 58
1, 691087, Control_c, 0, 64, 84
1, 691102, Control_c, 0, 64, 85
1, 691131, Control_c, 0, 64, 82
1, 691132, Note_on_c, 0, 47, 81
1, 691146, Control_c, 0, 64, 73
1, 691156, Note_off_c, 0, 53, 56
1, 691161, Control_c, 0, 64, 59
1, 691175, Control_c, 0, 64, 45
1, 691190, Control_c, 0, 64, 38
1, 691205, Control_c, 0, 64, 40
1, 691221, Control_c, 0, 64, 48
1, 691236, Control_c, 0, 64, 60
1, 691251, Control_c, 0, 64, 69
1, 691266, Control_c, 0, 64, 81
1, 691280, Control_c, 0, 64, 92
1, 691282, Note_on_c, 0, 68, 81
1, 691295, Control_c, 0, 64, 99
1, 691296, Note_on_c, 0, 65, 62
1, 691310, Control_c, 0, 64, 109
1, 691315, Note_off_c, 0, 65, 63
1, 691325, Control_c, 0, 64, 127
1, 691339, Note_off_c, 0, 68, 62
1, 691355, Note_off_c, 0, 47, 58
1, 691399, Control_c, 0, 64, 112
1, 691414, Control_c, 0, 64, 82
1, 691428, Control_c, 0, 64, 62
1, 691429, Note_on_c, 0, 48, 83
1, 691441, Note_on_c, 0, 65, 51
1, 691443, Control_c, 0, 64, 31
1, 691444, Note_on_c, 0, 68, 77
1, 691458, Control_c, 0, 64, 0
1, 691502, Control_c, 0, 64, 36
1, 691517, Control_c, 0, 64, 55
1, 691530, Note_off_c, 0, 48, 63
1, 691532, Control_c, 0, 64, 68
1, 691546, Control_c, 0, 64, 81
1, 691561, Control_c, 0, 64, 103
1, 691576, Control_c, 0, 64, 127
1, 691595, Note_on_c, 0, 70, 82
1, 691650, Note_off_c, 0, 68, 56
1, 691713, Note_off_c, 0, 65, 38
1, 691749, Note_on_c, 0, 60, 85
1, 691761, Control_c, 0, 64, 115
1, 691769, Note_on_c, 0, 71, 74
1, 691776, Control_c, 0, 64, 77
1, 691791, Control_c, 0, 64, 59
1, 691806, Control_c, 0, 64, 31
1, 691821, Control_c, 0, 64, 0
1, 691842, Note_off_c, 0, 70, 47
1, 691880, Control_c, 0, 64, 43
1, 691895, Control_c, 0, 64, 59
1, 691906, Note_on_c, 0, 72, 80
1, 691910, Control_c, 0, 64, 69
1, 691925, Control_c, 0, 64, 77
1, 691940, Control_c, 0, 64, 84
1, 691954, Control_c, 0, 64, 86
1, 691963, Poly_aftertouch_c, 0, 70, 127
1, 691966, Note_off_c, 0, 71, 56
1, 691969, Control_c, 0, 64, 87
1, 691984, Control_c, 0, 64, 88
1, 691998, Control_c, 0, 64, 89
1, 692003, Poly_aftertouch_c, 0, 70, 0
1, 692029, Control_c, 0, 64, 89
1, 692044, Control_c, 0, 64, 90
1, 692067, Note_on_c, 0, 67, 79
1, 692078, Note_on_c, 0, 64, 66
1, 692209, Note_on_c, 0, 59, 76
1, 692239, Note_off_c, 0, 60, 58
1, 692325, Control_c, 0, 64, 89
1, 692350, Note_on_c, 0, 60, 79
1, 692355, Control_c, 0, 64, 88
1, 692369, Control_c, 0, 64, 84
1, 692381, Note_off_c, 0, 59, 61
1, 692384, Control_c, 0, 64, 77
1, 692399, Control_c, 0, 64, 66
1, 692414, Control_c, 0, 64, 48
1, 692429, Control_c, 0, 64, 0
1, 692502, Note_on_c, 0, 59, 76
1, 692537, Note_off_c, 0, 60, 59
1, 692544, Note_off_c, 0, 64, 57
1, 692555, Control_c, 0, 64, 42
1, 692570, Control_c, 0, 64, 56
1, 692579, Note_off_c, 0, 67, 58
1, 692584, Control_c, 0, 64, 65
1, 692599, Control_c, 0, 64, 69
1, 692614, Control_c, 0, 64, 71
1, 692626, Note_off_c, 0, 72, 62
1, 692629, Control_c, 0, 64, 72
1, 692658, Control_c, 0, 64, 73
1, 692670, Note_on_c, 0, 60, 79
1, 692728, Note_off_c, 0, 59, 58
1, 692941, Control_c, 0, 64, 72
1, 692971, Control_c, 0, 64, 71
1, 692986, Control_c, 0, 64, 68
1, 693000, Control_c, 0, 64, 63
1, 693013, Note_on_c, 0, 76, 79
1, 693015, Control_c, 0, 64, 56
1, 693030, Control_c, 0, 64, 46
1, 693044, Control_c, 0, 64, 30
1, 693052, Note_on_c, 0, 70, 47
1, 693059, Control_c, 0, 64, 0
1, 693244, Control_c, 0, 67, 44
1, 693259, Control_c, 0, 67, 56
1, 693274, Control_c, 0, 67, 72
1, 693289, Control_c, 0, 67, 89
1, 693304, Control_c, 0, 67, 107
1, 693318, Control_c, 0, 67, 124
1, 693333, Control_c, 0, 67, 127
1, 693374, Note_on_c, 0, 61, 54
1, 693458, Note_off_c, 0, 60, 59
1, 693793, Note_on_c, 0, 77, 58
1, 693819, Note_on_c, 0, 68, 39
1, 693875, Note_off_c, 0, 70, 56
1, 693910, Note_off_c, 0, 76, 62
1, 693964, Control_c, 0, 64, 40
1, 693979, Control_c, 0, 64, 53
1, 693994, Control_c, 0, 64, 62
1, 694009, Control_c, 0, 64, 66
1, 694024, Control_c, 0, 64, 69
1, 694038, Control_c, 0, 64, 71
1, 694053, Control_c, 0, 64, 74
1, 694068, Control_c, 0, 64, 78
1, 694083, Control_c, 0, 64, 82
1, 694098, Control_c, 0, 64, 86
1, 694113, Control_c, 0, 64, 90
1, 694128, Control_c, 0, 64, 94
1, 694142, Control_c, 0, 64, 98
1, 694157, Control_c, 0, 64, 101
1, 694172, Control_c, 0, 64, 103
1, 694176, Note_off_c, 0, 68, 36
1, 694201, Control_c, 0, 64, 105
1, 694320, Control_c, 0, 64, 102
1, 694327, Note_on_c, 0, 67, 57
1, 694335, Control_c, 0, 64, 96
1, 694339, Note_on_c, 0, 70, 48
1, 694349, Control_c, 0, 64, 87
1, 694364, Control_c, 0, 64, 75
1, 694379, Control_c, 0, 64, 64
1, 694393, Control_c, 0, 64, 51
1, 694408, Control_c, 0, 64, 35
1, 694424, Control_c, 0, 64, 0
1, 694484, Control_c, 0, 64, 31
1, 694498, Control_c, 0, 64, 41
1, 694513, Control_c, 0, 64, 52
1, 694521, Note_on_c, 0, 65, 36
1, 694528, Control_c, 0, 64, 61
1, 694543, Control_c, 0, 64, 65
1, 694558, Control_c, 0, 64, 67
1, 694570, Note_off_c, 0, 61, 29
1, 694572, Control_c, 0, 64, 68
1, 694632, Control_c, 0, 64, 69
1, 694667, Note_off_c, 0, 77, 58
1, 694706, Note_on_c, 0, 72, 47
1, 694713, Note_on_c, 0, 63, 41
1, 694737, Note_off_c, 0, 65, 34
1, 694870, Note_on_c, 0, 73, 46
1, 694870, Note_off_c, 0, 63, 53
1, 694875, Note_on_c, 0, 61, 36
1, 694994, Control_c, 0, 64, 68
1, 695038, Control_c, 0, 64, 68
1, 695053, Control_c, 0, 64, 67
1, 695068, Control_c, 0, 64, 66
1, 695075, Note_off_c, 0, 72, 23
1, 695083, Control_c, 0, 64, 65
1, 695097, Control_c, 0, 64, 62
1, 695099, Note_on_c, 0, 75, 59
1, 695112, Control_c, 0, 64, 57
1, 695127, Control_c, 0, 64, 50
1, 695141, Control_c, 0, 64, 39
1, 695143, Note_on_c, 0, 60, 37
1, 695153, Note_off_c, 0, 73, 58
1, 695155, Note_off_c, 0, 70, 38
1, 695156, Control_c, 0, 64, 0
1, 695171, Note_off_c, 0, 61, 36
1, 695261, Control_c, 0, 64, 39
1, 695276, Control_c, 0, 64, 50
1, 695291, Control_c, 0, 64, 59
1, 695306, Control_c, 0, 64, 64
1, 695320, Control_c, 0, 64, 67
1, 695335, Control_c, 0, 64, 69
1, 695350, Control_c, 0, 64, 70
1, 695365, Control_c, 0, 64, 72
1, 695374, Note_on_c, 0, 70, 47
1, 695380, Control_c, 0, 64, 73
1, 695395, Control_c, 0, 64, 73
1, 695410, Control_c, 0, 64, 74
1, 695425, Control_c, 0, 64, 75
1, 695446, Control_c, 0, 64, 76
1, 695461, Control_c, 0, 64, 77
1, 695476, Control_c, 0, 64, 77
1, 695491, Control_c, 0, 64, 78
1, 695506, Control_c, 0, 64, 78
1, 695535, Control_c, 0, 64, 79
1, 695556, Note_on_c, 0, 68, 46
1, 695562, Note_off_c, 0, 67, 38
1, 695565, Control_c, 0, 64, 79
1, 695571, Note_off_c, 0, 70, 37
1, 695600, Note_off_c, 0, 75, 40
1, 695609, Control_c, 0, 64, 80
1, 695710, Note_on_c, 0, 67, 57
1, 695740, Note_off_c, 0, 68, 53
1, 695861, Control_c, 0, 64, 79
1, 695863, Note_on_c, 0, 68, 70
1, 695876, Control_c, 0, 64, 77
1, 695881, Note_on_c, 0, 65, 55
1, 695886, Note_off_c, 0, 67, 57
1, 695891, Control_c, 0, 64, 72
1, 695906, Control_c, 0, 64, 65
1, 695920, Control_c, 0, 64, 57
1, 695935, Control_c, 0, 64, 52
1, 695950, Control_c, 0, 64, 51
1, 695964, Control_c, 0, 64, 53
1, 695979, Control_c, 0, 64, 56
1, 695994, Control_c, 0, 64, 60
1, 696010, Control_c, 0, 64, 64
1, 696025, Control_c, 0, 64, 67
1, 696027, Note_on_c, 0, 63, 54
1, 696040, Control_c, 0, 64, 70
1, 696055, Control_c, 0, 64, 71
1, 696083, Note_off_c, 0, 60, 42
1, 696172, Note_off_c, 0, 63, 54
1, 696176, Note_on_c, 0, 70, 64
1, 696198, Note_on_c, 0, 61, 50
1, 696225, Control_c, 0, 64, 71
1, 696240, Control_c, 0, 64, 70
1, 696255, Control_c, 0, 64, 70
1, 696269, Control_c, 0, 64, 69
1, 696284, Control_c, 0, 64, 68
1, 696299, Control_c, 0, 64, 66
1, 696314, Control_c, 0, 64, 64
1, 696329, Control_c, 0, 64, 63
1, 696337, Note_on_c, 0, 72, 71
1, 696343, Control_c, 0, 64, 62
1, 696347, Note_on_c, 0, 60, 51
1, 696358, Control_c, 0, 64, 60
1, 696359, Note_off_c, 0, 61, 57
1, 696373, Control_c, 0, 64, 60
1, 696387, Control_c, 0, 64, 59
1, 696417, Control_c, 0, 64, 59
1, 696432, Control_c, 0, 64, 58
1, 696447, Control_c, 0, 64, 58
1, 696462, Control_c, 0, 64, 56
1, 696477, Control_c, 0, 64, 55
1, 696492, Control_c, 0, 64, 54
1, 696507, Control_c, 0, 64, 52
1, 696522, Control_c, 0, 64, 49
1, 696536, Control_c, 0, 64, 45
1, 696536, Note_on_c, 0, 73, 68
1, 696551, Control_c, 0, 64, 37
1, 696566, Control_c, 0, 64, 0
1, 696572, Note_off_c, 0, 72, 62
1, 696581, Note_off_c, 0, 70, 61
1, 696582, Note_on_c, 0, 58, 45
1, 696584, Note_off_c, 0, 68, 60
1, 696608, Note_off_c, 0, 60, 43
1, 696741, Note_on_c, 0, 68, 53
1, 696743, Control_c, 0, 64, 29
1, 696758, Control_c, 0, 64, 40
1, 696773, Control_c, 0, 64, 51
1, 696787, Control_c, 0, 64, 58
1, 696802, Control_c, 0, 64, 62
1, 696818, Control_c, 0, 64, 63
1, 696833, Control_c, 0, 64, 64
1, 696848, Control_c, 0, 64, 64
1, 696863, Control_c, 0, 64, 66
1, 696878, Control_c, 0, 64, 67
1, 696892, Control_c, 0, 64, 68
1, 696900, Note_on_c, 0, 67, 62
1, 696907, Control_c, 0, 64, 69
1, 696916, Note_off_c, 0, 65, 56
1, 696918, Note_off_c, 0, 73, 56
1, 696922, Control_c, 0, 64, 71
1, 696945, Control_c, 0, 64, 72
1, 696960, Control_c, 0, 64, 73
1, 696975, Control_c, 0, 64, 74
1, 696990, Control_c, 0, 64, 75
1, 697004, Control_c, 0, 64, 75
1, 697019, Control_c, 0, 64, 76
1, 697034, Control_c, 0, 64, 76
1, 697043, Note_on_c, 0, 65, 69
1, 697049, Control_c, 0, 64, 77
1, 697064, Control_c, 0, 64, 77
1, 697071, Note_off_c, 0, 67, 34
1, 697079, Control_c, 0, 64, 78
1, 697088, Note_off_c, 0, 68, 37
1, 697093, Control_c, 0, 64, 79
1, 697108, Control_c, 0, 64, 80
1, 697123, Control_c, 0, 64, 81
1, 697138, Control_c, 0, 64, 82
1, 697153, Control_c, 0, 64, 83
1, 697167, Control_c, 0, 64, 84
1, 697188, Note_on_c, 0, 67, 71
1, 697194, Note_off_c, 0, 65, 63
1, 697197, Control_c, 0, 64, 81
1, 697199, Note_on_c, 0, 64, 68
1, 697212, Control_c, 0, 64, 75
1, 697226, Control_c, 0, 64, 67
1, 697241, Control_c, 0, 64, 62
1, 697256, Control_c, 0, 64, 61
1, 697271, Control_c, 0, 64, 62
1, 697285, Control_c, 0, 64, 65
1, 697300, Control_c, 0, 64, 70
1, 697315, Control_c, 0, 64, 76
1, 697330, Control_c, 0, 64, 83
1, 697334, Note_on_c, 0, 61, 64
1, 697344, Control_c, 0, 64, 90
1, 697352, Note_off_c, 0, 67, 0
1, 697359, Control_c, 0, 64, 97
1, 697374, Note_off_c, 0, 64, 62
1, 697374, Control_c, 0, 64, 107
1, 697377, Note_on_c, 0, 67, 18
1, 697389, Control_c, 0, 64, 127
1, 697414, Note_off_c, 0, 58, 41
1, 697455, Note_off_c, 0, 67, 40
1, 697497, Note_on_c, 0, 60, 70
1, 697497, Note_on_c, 0, 68, 72
1, 697500, Note_off_c, 0, 61, 56
1, 697505, Note_on_c, 0, 65, 64
1, 697523, Control_c, 0, 64, 99
1, 697537, Control_c, 0, 64, 77
1, 697552, Control_c, 0, 64, 64
1, 697567, Control_c, 0, 64, 55
1, 697582, Control_c, 0, 64, 48
1, 697597, Control_c, 0, 64, 46
1, 697613, Control_c, 0, 64, 50
1, 697627, Control_c, 0, 64, 57
1, 697639, Note_on_c, 0, 58, 75
1, 697642, Control_c, 0, 64, 64
1, 697646, Note_on_c, 0, 70, 74
1, 697648, Note_on_c, 0, 67, 69
1, 697657, Control_c, 0, 64, 72
1, 697660, Note_off_c, 0, 60, 59
1, 697672, Control_c, 0, 64, 81
1, 697675, Note_off_c, 0, 68, 60
1, 697689, Note_off_c, 0, 65, 38
1, 697694, Control_c, 0, 64, 86
1, 697709, Control_c, 0, 64, 86
1, 697715, Note_off_c, 0, 67, 59
1, 697723, Control_c, 0, 64, 85
1, 697738, Control_c, 0, 64, 75
1, 697753, Control_c, 0, 64, 60
1, 697768, Control_c, 0, 64, 37
1, 697783, Control_c, 0, 64, 0
1, 697811, Note_on_c, 0, 56, 73
1, 697811, Note_on_c, 0, 72, 77
1, 697812, Control_c, 0, 64, 41
1, 697813, Note_on_c, 0, 68, 53
1, 697824, Note_off_c, 0, 70, 61
1, 697827, Note_off_c, 0, 58, 60
1, 697827, Control_c, 0, 64, 59
1, 697834, Note_off_c, 0, 68, 60
1, 697842, Control_c, 0, 64, 71
1, 697845, Note_off_c, 0, 72, 62
1, 697857, Control_c, 0, 64, 85
1, 697872, Control_c, 0, 64, 100
1, 697887, Control_c, 0, 64, 107
1, 697887, Control_c, 0, 67, 118
1, 697902, Control_c, 0, 64, 111
1, 697902, Control_c, 0, 67, 102
1, 697916, Control_c, 0, 67, 85
1, 697931, Control_c, 0, 67, 74
1, 697946, Control_c, 0, 67, 65
1, 697960, Control_c, 0, 67, 60
1, 697973, Note_off_c, 0, 56, 61
1, 697975, Control_c, 0, 64, 108
1, 697975, Control_c, 0, 67, 54
1, 697990, Control_c, 0, 64, 102
1, 697990, Control_c, 0, 67, 49
1, 697992, Note_on_c, 0, 79, 69
1, 698002, Note_on_c, 0, 55, 63
1, 698005, Control_c, 0, 64, 94
1, 698005, Control_c, 0, 67, 44
1, 698020, Control_c, 0, 64, 82
1, 698020, Control_c, 0, 67, 0
1, 698034, Control_c, 0, 64, 69
1, 698048, Note_off_c, 0, 79, 65
1, 698049, Control_c, 0, 64, 55
1, 698058, Note_on_c, 0, 77, 69
1, 698064, Control_c, 0, 64, 0
1, 698084, Note_off_c, 0, 77, 69
1, 698088, Note_on_c, 0, 76, 79
1, 698122, Note_off_c, 0, 55, 58
1, 698133, Note_on_c, 0, 53, 65
1, 698137, Note_on_c, 0, 77, 92
1, 698149, Note_off_c, 0, 76, 56
1, 698167, Control_c, 0, 64, 39
1, 698182, Control_c, 0, 64, 55
1, 698192, Note_off_c, 0, 77, 63
1, 698197, Control_c, 0, 64, 67
1, 698212, Control_c, 0, 64, 73
1, 698218, Note_off_c, 0, 53, 62
1, 698227, Control_c, 0, 64, 78
1, 698242, Control_c, 0, 64, 80
1, 698256, Control_c, 0, 64, 80
1, 698278, Note_on_c, 0, 79, 84
1, 698292, Note_on_c, 0, 51, 71
1, 698301, Control_c, 0, 64, 80
1, 698316, Control_c, 0, 64, 75
1, 698325, Note_off_c, 0, 79, 65
1, 698326, Note_off_c, 0, 51, 63
1, 698331, Control_c, 0, 64, 65
1, 698346, Control_c, 0, 64, 49
1, 698360, Control_c, 0, 64, 0
1, 698445, Note_on_c, 0, 80, 81
1, 698451, Note_on_c, 0, 49, 67
1, 698471, Control_c, 0, 64, 30
1, 698486, Control_c, 0, 64, 47
1, 698501, Control_c, 0, 64, 63
1, 698516, Control_c, 0, 64, 70
1, 698531, Control_c, 0, 64, 77
1, 698543, Note_off_c, 0, 49, 63
1, 698546, Control_c, 0, 64, 83
1, 698561, Control_c, 0, 64, 87
1, 698575, Control_c, 0, 64, 91
1, 698581, Note_off_c, 0, 80, 62
1, 698590, Control_c, 0, 64, 95
1, 698602, Note_on_c, 0, 71, 81
1, 698605, Control_c, 0, 64, 100
1, 698620, Control_c, 0, 64, 103
1, 698650, Control_c, 0, 64, 105
1, 698662, Note_off_c, 0, 71, 57
1, 698745, Note_on_c, 0, 71, 77
1, 698749, Note_on_c, 0, 65, 77
1, 698753, Control_c, 0, 64, 103
1, 698760, Note_on_c, 0, 61, 66
1, 698768, Control_c, 0, 64, 98
1, 698782, Control_c, 0, 64, 92
1, 698797, Control_c, 0, 64, 86
1, 698801, Note_off_c, 0, 71, 60
1, 698812, Control_c, 0, 64, 78
1, 698826, Note_off_c, 0, 61, 57
1, 698827, Control_c, 0, 64, 71
1, 698836, Note_off_c, 0, 65, 50
1, 698842, Control_c, 0, 64, 65
1, 698856, Control_c, 0, 64, 58
1, 698871, Control_c, 0, 64, 53
1, 698886, Control_c, 0, 64, 50
1, 698897, Note_on_c, 0, 71, 85
1, 698901, Control_c, 0, 64, 47
1, 698916, Control_c, 0, 64, 43
1, 698930, Control_c, 0, 64, 38
1, 698945, Control_c, 0, 64, 0
1, 698948, Note_off_c, 0, 71, 61
1, 699040, Note_on_c, 0, 80, 89
1, 699049, Note_on_c, 0, 50, 75
1, 699079, Control_c, 0, 64, 46
1, 699094, Control_c, 0, 64, 61
1, 699109, Control_c, 0, 64, 71
1, 699124, Control_c, 0, 64, 79
1, 699130, Note_off_c, 0, 50, 61
1, 699138, Control_c, 0, 64, 88
1, 699153, Control_c, 0, 64, 97
1, 699168, Control_c, 0, 64, 113
1, 699189, Control_c, 0, 64, 127
1, 699204, Note_on_c, 0, 71, 88
1, 699237, Note_off_c, 0, 80, 60
1, 699246, Note_off_c, 0, 71, 62
1, 699324, Control_c, 0, 64, 107
1, 699339, Control_c, 0, 64, 78
1, 699345, Note_on_c, 0, 65, 71
1, 699351, Note_on_c, 0, 62, 65
1, 699353, Note_on_c, 0, 71, 85
1, 699354, Control_c, 0, 64, 63
1, 699368, Control_c, 0, 64, 49
1, 699383, Control_c, 0, 64, 45
1, 699398, Note_off_c, 0, 65, 57
1, 699398, Control_c, 0, 64, 47
1, 699400, Note_off_c, 0, 62, 58
1, 699410, Note_off_c, 0, 71, 62
1, 699413, Control_c, 0, 64, 55
1, 699428, Control_c, 0, 64, 67
1, 699443, Control_c, 0, 64, 78
1, 699458, Control_c, 0, 64, 91
1, 699473, Control_c, 0, 64, 98
1, 699497, Note_on_c, 0, 71, 89
1, 699532, Control_c, 0, 64, 96
1, 699547, Control_c, 0, 64, 86
1, 699547, Note_off_c, 0, 71, 63
1, 699561, Control_c, 0, 64, 71
1, 699576, Control_c, 0, 64, 56
1, 699591, Control_c, 0, 64, 33
1, 699605, Control_c, 0, 64, 0
1, 699641, Note_on_c, 0, 72, 82
1, 699724, Control_c, 0, 64, 40
1, 699738, Control_c, 0, 64, 54
1, 699753, Control_c, 0, 64, 65
1, 699768, Control_c, 0, 64, 73
1, 699783, Control_c, 0, 64, 82
1, 699798, Note_on_c, 0, 73, 82
1, 699798, Control_c, 0, 64, 90
1, 699809, Note_off_c, 0, 72, 62
1, 699813, Control_c, 0, 64, 96
1, 699827, Control_c, 0, 64, 108
1, 699837, Note_off_c, 0, 73, 61
1, 699842, Control_c, 0, 64, 127
1, 700040, Note_on_c, 0, 70, 76
1, 700043, Control_c, 0, 64, 106
1, 700052, Note_on_c, 0, 61, 51
1, 700058, Control_c, 0, 64, 88
1, 700059, Note_on_c, 0, 67, 66
1, 700072, Note_on_c, 0, 52, 43
1, 700073, Control_c, 0, 64, 75
1, 700088, Control_c, 0, 64, 62
1, 700088, Control_c, 0, 67, 36
1, 700103, Control_c, 0, 64, 47
1, 700103, Control_c, 0, 67, 47
1, 700117, Control_c, 0, 64, 0
1, 700117, Control_c, 0, 67, 59
1, 700132, Control_c, 0, 67, 72
1, 700147, Control_c, 0, 67, 88
1, 700161, Control_c, 0, 67, 106
1, 700176, Control_c, 0, 67, 125
1, 700191, Control_c, 0, 67, 127
1, 700281, Control_c, 0, 64, 37
1, 700295, Control_c, 0, 64, 48
1, 700310, Control_c, 0, 64, 58
1, 700325, Control_c, 0, 64, 63
1, 700340, Control_c, 0, 64, 67
1, 700354, Control_c, 0, 64, 68
1, 700369, Control_c, 0, 64, 70
1, 700384, Control_c, 0, 64, 72
1, 700398, Note_off_c, 0, 61, 35
1, 700399, Control_c, 0, 64, 74
1, 700414, Control_c, 0, 64, 77
1, 700428, Control_c, 0, 64, 80
1, 700443, Control_c, 0, 64, 83
1, 700458, Control_c, 0, 64, 86
1, 700473, Control_c, 0, 64, 90
1, 700488, Control_c, 0, 64, 93
1, 700502, Control_c, 0, 64, 97
1, 700515, Note_off_c, 0, 67, 47
1, 700517, Control_c, 0, 64, 100
1, 700532, Control_c, 0, 64, 104
1, 700547, Control_c, 0, 64, 109
1, 700561, Control_c, 0, 64, 113
1, 700576, Control_c, 0, 64, 119
1, 700579, Note_off_c, 0, 52, 30
1, 700591, Control_c, 0, 64, 127
1, 700851, Control_c, 0, 64, 106
1, 700865, Control_c, 0, 64, 93
1, 700866, Note_on_c, 0, 68, 53
1, 700880, Control_c, 0, 64, 81
1, 700889, Note_on_c, 0, 60, 44
1, 700895, Control_c, 0, 64, 70
1, 700898, Note_on_c, 0, 65, 43
1, 700900, Note_on_c, 0, 53, 27
1, 700910, Control_c, 0, 64, 58
1, 700925, Control_c, 0, 64, 42
1, 700939, Control_c, 0, 64, 0
1, 700962, Note_off_c, 0, 70, 57
1, 701029, Control_c, 0, 64, 37
1, 701044, Control_c, 0, 64, 50
1, 701058, Control_c, 0, 64, 62
1, 701073, Control_c, 0, 64, 69
1, 701079, Note_off_c, 0, 60, 57
1, 701088, Control_c, 0, 64, 74
1, 701103, Control_c, 0, 64, 79
1, 701118, Control_c, 0, 64, 84
1, 701132, Control_c, 0, 64, 90
1, 701143, Note_off_c, 0, 65, 36
1, 701147, Control_c, 0, 64, 97
1, 701162, Control_c, 0, 64, 105
1, 701176, Control_c, 0, 64, 114
1, 701191, Control_c, 0, 64, 127
1, 701265, Note_off_c, 0, 53, 34
1, 701295, Control_c, 0, 64, 119
1, 701309, Control_c, 0, 64, 97
1, 701315, Note_on_c, 0, 67, 53
1, 701324, Control_c, 0, 64, 79
1, 701335, Note_on_c, 0, 46, 46
1, 701339, Control_c, 0, 64, 64
1, 701354, Control_c, 0, 64, 44
1, 701369, Control_c, 0, 64, 0
1, 701393, Note_off_c, 0, 68, 53
1, 701480, Control_c, 0, 64, 35
1, 701495, Control_c, 0, 64, 44
1, 701509, Control_c, 0, 64, 52
1, 701524, Control_c, 0, 64, 59
1, 701539, Control_c, 0, 64, 64
1, 701554, Control_c, 0, 64, 69
1, 701569, Control_c, 0, 64, 74
1, 701571, Note_on_c, 0, 73, 57
1, 701583, Control_c, 0, 64, 79
1, 701598, Control_c, 0, 64, 83
1, 701614, Control_c, 0, 64, 88
1, 701629, Control_c, 0, 64, 93
1, 701644, Control_c, 0, 64, 97
1, 701659, Control_c, 0, 64, 103
1, 701660, Note_off_c, 0, 73, 63
1, 701674, Control_c, 0, 64, 110
1, 701688, Control_c, 0, 64, 116
1, 701703, Control_c, 0, 64, 124
1, 701718, Control_c, 0, 64, 127
1, 701777, Control_c, 0, 64, 124
1, 701792, Control_c, 0, 64, 110
1, 701804, Note_on_c, 0, 72, 58
1, 701805, Note_on_c, 0, 58, 47
1, 701807, Control_c, 0, 64, 94
1, 701820, Note_off_c, 0, 67, 51
1, 701822, Control_c, 0, 64, 79
1, 701837, Control_c, 0, 64, 67
1, 701851, Control_c, 0, 64, 57
1, 701866, Control_c, 0, 64, 51
1, 701868, Note_off_c, 0, 46, 47
1, 701883, Note_on_c, 0, 70, 59
1, 701896, Control_c, 0, 64, 53
1, 701911, Control_c, 0, 64, 56
1, 701925, Control_c, 0, 64, 61
1, 701929, Note_off_c, 0, 72, 37
1, 701940, Control_c, 0, 64, 65
1, 701953, Note_on_c, 0, 68, 54
1, 701955, Control_c, 0, 64, 70
1, 701970, Control_c, 0, 64, 74
1, 701977, Note_off_c, 0, 70, 54
1, 701985, Control_c, 0, 64, 75
1, 702024, Note_on_c, 0, 67, 65
1, 702029, Control_c, 0, 64, 75
1, 702034, Note_off_c, 0, 68, 62
1, 702044, Control_c, 0, 64, 73
1, 702059, Control_c, 0, 64, 70
1, 702067, Note_off_c, 0, 58, 37
1, 702073, Control_c, 0, 64, 61
1, 702084, Note_on_c, 0, 56, 44
1, 702088, Control_c, 0, 64, 50
1, 702103, Control_c, 0, 64, 35
1, 702105, Note_off_c, 0, 67, 60
1, 702117, Note_on_c, 0, 48, 39
1, 702118, Control_c, 0, 64, 0
1, 702128, Note_on_c, 0, 65, 57
1, 702200, Control_c, 0, 64, 36
1, 702214, Control_c, 0, 64, 52
1, 702229, Control_c, 0, 64, 63
1, 702244, Control_c, 0, 64, 70
1, 702259, Control_c, 0, 64, 75
1, 702274, Control_c, 0, 64, 77
1, 702288, Control_c, 0, 64, 77
1, 702303, Control_c, 0, 64, 78
1, 702392, Control_c, 0, 64, 77
1, 702408, Control_c, 0, 64, 72
1, 702410, Note_off_c, 0, 56, 36
1, 702423, Control_c, 0, 64, 64
1, 702437, Control_c, 0, 64, 50
1, 702451, Note_on_c, 0, 55, 36
1, 702452, Control_c, 0, 64, 36
1, 702453, Note_on_c, 0, 64, 57
1, 702456, Note_off_c, 0, 65, 54
1, 702467, Control_c, 0, 64, 31
1, 702482, Control_c, 0, 64, 34
1, 702497, Control_c, 0, 64, 42
1, 702511, Control_c, 0, 64, 54
1, 702526, Control_c, 0, 64, 64
1, 702541, Control_c, 0, 64, 72
1, 702549, Note_off_c, 0, 55, 56
1, 702555, Control_c, 0, 64, 80
1, 702570, Control_c, 0, 64, 85
1, 702585, Control_c, 0, 64, 90
1, 702593, Note_off_c, 0, 48, 59
1, 702600, Control_c, 0, 64, 95
1, 702612, Note_off_c, 0, 64, 51
1, 702615, Control_c, 0, 64, 100
1, 702629, Control_c, 0, 64, 106
1, 702644, Control_c, 0, 64, 115
1, 702659, Control_c, 0, 64, 127
1, 702973, Note_on_c, 0, 64, 58
1, 703005, Note_on_c, 0, 58, 48
1, 703008, Control_c, 0, 64, 110
1, 703023, Note_on_c, 0, 53, 35
1, 703023, Control_c, 0, 64, 100
1, 703037, Control_c, 0, 64, 92
1, 703046, Note_on_c, 0, 41, 32
1, 703052, Control_c, 0, 64, 84
1, 703067, Control_c, 0, 64, 76
1, 703082, Control_c, 0, 64, 68
1, 703097, Control_c, 0, 64, 58
1, 703111, Control_c, 0, 64, 49
1, 703126, Control_c, 0, 64, 40
1, 703141, Control_c, 0, 64, 0
1, 703364, Control_c, 0, 64, 30
1, 703378, Control_c, 0, 64, 40
1, 703393, Control_c, 0, 64, 50
1, 703408, Control_c, 0, 64, 60
1, 703423, Control_c, 0, 64, 64
1, 703438, Control_c, 0, 64, 66
1, 703452, Control_c, 0, 64, 68
1, 703467, Control_c, 0, 64, 70
1, 703482, Control_c, 0, 64, 72
1, 703497, Control_c, 0, 64, 75
1, 703512, Control_c, 0, 64, 77
1, 703527, Control_c, 0, 64, 81
1, 703542, Control_c, 0, 64, 84
1, 703557, Control_c, 0, 64, 88
1, 703571, Control_c, 0, 64, 92
1, 703577, Note_off_c, 0, 58, 62
1, 703586, Control_c, 0, 64, 96
1, 703601, Control_c, 0, 64, 101
1, 703616, Control_c, 0, 64, 104
1, 703631, Control_c, 0, 64, 107
1, 703645, Control_c, 0, 64, 110
1, 703660, Control_c, 0, 64, 112
1, 703742, Note_off_c, 0, 64, 35
1, 703935, Control_c, 0, 64, 110
1, 703940, Note_on_c, 0, 65, 39
1, 703950, Control_c, 0, 64, 108
1, 703979, Control_c, 0, 64, 104
1, 703994, Control_c, 0, 64, 101
1, 704006, Note_off_c, 0, 65, 52
1, 704010, Control_c, 0, 64, 98
1, 704024, Note_on_c, 0, 64, 43
1, 704025, Control_c, 0, 64, 95
1, 704039, Control_c, 0, 64, 92
1, 704054, Control_c, 0, 64, 89
1, 704069, Control_c, 0, 64, 85
1, 704072, Note_off_c, 0, 64, 63
1, 704084, Control_c, 0, 64, 81
1, 704099, Control_c, 0, 64, 78
1, 704102, Note_on_c, 0, 62, 34
1, 704114, Control_c, 0, 64, 74
1, 704128, Control_c, 0, 64, 70
1, 704143, Control_c, 0, 64, 65
1, 704158, Control_c, 0, 64, 61
1, 704173, Control_c, 0, 64, 57
1, 704180, Note_on_c, 0, 64, 49
1, 704188, Control_c, 0, 64, 55
1, 704189, Note_off_c, 0, 62, 37
1, 704202, Control_c, 0, 64, 53
1, 704217, Control_c, 0, 64, 50
1, 704232, Control_c, 0, 64, 47
1, 704247, Control_c, 0, 64, 43
1, 704262, Control_c, 0, 64, 38
1, 704272, Note_off_c, 0, 64, 52
1, 704276, Control_c, 0, 64, 36
1, 704299, Note_on_c, 0, 67, 38
1, 704335, Control_c, 0, 64, 36
1, 704350, Control_c, 0, 64, 37
1, 704365, Control_c, 0, 64, 40
1, 704380, Control_c, 0, 64, 44
1, 704394, Control_c, 0, 64, 49
1, 704409, Control_c, 0, 64, 54
1, 704432, Control_c, 0, 64, 60
1, 704447, Control_c, 0, 64, 64
1, 704462, Control_c, 0, 64, 67
1, 704476, Control_c, 0, 64, 72
1, 704491, Control_c, 0, 64, 75
1, 704506, Control_c, 0, 64, 78
1, 704521, Control_c, 0, 64, 81
1, 704530, Note_on_c, 0, 65, 39
1, 704535, Control_c, 0, 64, 84
1, 704550, Control_c, 0, 64, 87
1, 704565, Control_c, 0, 64, 91
1, 704567, Note_off_c, 0, 65, 47
1, 704578, Note_off_c, 0, 67, 35
1, 704580, Control_c, 0, 64, 94
1, 704595, Control_c, 0, 64, 97
1, 704602, Note_off_c, 0, 53, 37
1, 704609, Control_c, 0, 64, 101
1, 704621, Note_off_c, 0, 41, 39
1, 704624, Control_c, 0, 64, 104
1, 704624, Control_c, 0, 67, 115
1, 704639, Control_c, 0, 64, 106
1, 704639, Control_c, 0, 67, 109
1, 704683, Control_c, 0, 67, 113
1, 704698, Control_c, 0, 67, 120
1, 704713, Control_c, 0, 67, 127
1, 704722, Note_on_c, 0, 57, 59
1, 704725, Note_on_c, 0, 53, 49
1, 704726, Note_on_c, 0, 41, 53
1, 704728, Note_on_c, 0, 65, 57
1, 704728, Control_c, 0, 64, 99
1, 704743, Control_c, 0, 64, 87
1, 704753, Note_off_c, 0, 53, 53
1, 704756, Note_off_c, 0, 41, 54
1, 704758, Control_c, 0, 64, 74
1, 704773, Control_c, 0, 64, 61
1, 704788, Control_c, 0, 64, 46
1, 704790, Note_off_c, 0, 65, 56
1, 704803, Control_c, 0, 64, 0
1, 704807, Note_off_c, 0, 57, 48
1, 704892, Note_on_c, 0, 67, 58
1, 704949, Note_off_c, 0, 67, 58
1, 704950, Note_on_c, 0, 65, 42
1, 704975, Note_on_c, 0, 64, 61
1, 704978, Note_off_c, 0, 65, 52
1, 705024, Note_off_c, 0, 64, 60
1, 705036, Note_on_c, 0, 65, 60
1, 705084, Note_on_c, 0, 69, 60
1, 705113, Note_off_c, 0, 65, 60
1, 705241, Note_on_c, 0, 67, 67
1, 705298, Control_c, 0, 64, 41
1, 705302, Note_off_c, 0, 69, 52
1, 705303, Note_off_c, 0, 67, 62
1, 705313, Control_c, 0, 64, 54
1, 705313, Control_c, 0, 67, 122
1, 705328, Control_c, 0, 64, 62
1, 705328, Control_c, 0, 67, 118
1, 705343, Control_c, 0, 64, 66
1, 705343, Control_c, 0, 67, 112
1, 705357, Control_c, 0, 64, 69
1, 705357, Control_c, 0, 67, 104
1, 705372, Control_c, 0, 64, 71
1, 705372, Control_c, 0, 67, 96
1, 705382, Note_on_c, 0, 41, 73
1, 705387, Note_on_c, 0, 67, 71
1, 705387, Control_c, 0, 64, 73
1, 705387, Control_c, 0, 67, 85
1, 705389, Note_on_c, 0, 53, 60
1, 705397, Note_on_c, 0, 64, 58
1, 705402, Control_c, 0, 64, 75
1, 705402, Control_c, 0, 67, 73
1, 705409, Note_off_c, 0, 41, 67
1, 705411, Note_off_c, 0, 53, 58
1, 705417, Control_c, 0, 64, 76
1, 705417, Control_c, 0, 67, 57
1, 705421, Note_off_c, 0, 64, 60
1, 705432, Control_c, 0, 67, 37
1, 705437, Note_off_c, 0, 67, 60
1, 705446, Control_c, 0, 64, 75
1, 705446, Control_c, 0, 67, 0
1, 705461, Control_c, 0, 64, 74
1, 705476, Control_c, 0, 64, 71
1, 705491, Control_c, 0, 64, 66
1, 705506, Control_c, 0, 64, 58
1, 705521, Control_c, 0, 64, 45
1, 705536, Control_c, 0, 64, 0
1, 705540, Note_on_c, 0, 69, 61
1, 705582, Note_on_c, 0, 67, 69
1, 705595, Note_off_c, 0, 69, 62
1, 705619, Note_on_c, 0, 66, 78
1, 705621, Note_off_c, 0, 67, 66
1, 705662, Note_on_c, 0, 67, 66
1, 705670, Note_off_c, 0, 66, 64
1, 705715, Note_on_c, 0, 70, 83
1, 705754, Note_off_c, 0, 67, 61
1, 705873, Note_on_c, 0, 69, 90
1, 705903, Note_off_c, 0, 70, 64
1, 705944, Control_c, 0, 64, 39
1, 705948, Note_off_c, 0, 69, 60
1, 705959, Control_c, 0, 64, 57
1, 705973, Control_c, 0, 64, 65
1, 705988, Control_c, 0, 64, 69
1, 706003, Control_c, 0, 64, 73
1, 706018, Control_c, 0, 64, 78
1, 706030, Note_on_c, 0, 41, 74
1, 706032, Note_on_c, 0, 69, 76
1, 706033, Control_c, 0, 64, 83
1, 706034, Note_on_c, 0, 53, 64
1, 706037, Note_on_c, 0, 65, 64
1, 706047, Control_c, 0, 64, 91
1, 706055, Note_off_c, 0, 53, 60
1, 706055, Note_off_c, 0, 65, 64
1, 706056, Note_off_c, 0, 41, 65
1, 706062, Control_c, 0, 64, 102
1, 706077, Control_c, 0, 64, 111
1, 706084, Note_off_c, 0, 69, 60
1, 706092, Control_c, 0, 64, 124
1, 706106, Control_c, 0, 64, 127
1, 706133, Note_on_c, 0, 65, 68
1, 706195, Control_c, 0, 64, 111
1, 706210, Control_c, 0, 64, 100
1, 706225, Control_c, 0, 64, 90
1, 706240, Control_c, 0, 64, 81
1, 706245, Note_on_c, 0, 67, 81
1, 706254, Control_c, 0, 64, 71
1, 706269, Control_c, 0, 64, 64
1, 706278, Note_off_c, 0, 65, 38
1, 706284, Control_c, 0, 64, 56
1, 706299, Control_c, 0, 64, 49
1, 706314, Control_c, 0, 64, 42
1, 706329, Control_c, 0, 64, 36
1, 706341, Note_on_c, 0, 69, 87
1, 706344, Control_c, 0, 64, 31
1, 706359, Control_c, 0, 64, 0
1, 706371, Note_off_c, 0, 67, 62
1, 706442, Note_on_c, 0, 70, 82
1, 706472, Note_off_c, 0, 69, 61
1, 706537, Note_on_c, 0, 72, 80
1, 706558, Note_off_c, 0, 70, 63
1, 706633, Note_on_c, 0, 70, 80
1, 706664, Note_off_c, 0, 72, 60
1, 706733, Note_on_c, 0, 67, 77
1, 706754, Note_off_c, 0, 70, 58
1, 706830, Note_on_c, 0, 69, 84
1, 706877, Note_off_c, 0, 67, 56
1, 706919, Note_on_c, 0, 70, 83
1, 706970, Note_off_c, 0, 69, 56
1, 707023, Note_on_c, 0, 72, 78
1, 707092, Note_off_c, 0, 70, 55
1, 707117, Note_on_c, 0, 74, 80
1, 707138, Note_off_c, 0, 72, 59
1, 707220, Note_off_c, 0, 74, 59
1, 707226, Note_on_c, 0, 72, 52
1, 707288, Note_off_c, 0, 72, 62
1, 707306, Note_on_c, 0, 65, 63
1, 707399, Note_on_c, 0, 67, 72
1, 707424, Note_off_c, 0, 65, 59
1, 707493, Note_off_c, 0, 67, 59
1, 707494, Note_on_c, 0, 68, 75
1, 707580, Note_on_c, 0, 69, 80
1, 707581, Note_off_c, 0, 68, 64
1, 707663, Note_on_c, 0, 70, 84
1, 707671, Note_off_c, 0, 69, 59
1, 707743, Note_off_c, 0, 70, 63
1, 707758, Note_on_c, 0, 71, 86
1, 707849, Note_on_c, 0, 72, 87
1, 707861, Note_off_c, 0, 71, 60
1, 707944, Note_on_c, 0, 73, 83
1, 707946, Note_off_c, 0, 72, 64
1, 708037, Note_off_c, 0, 73, 63
1, 708039, Note_on_c, 0, 74, 88
1, 708123, Note_off_c, 0, 74, 59
1, 708123, Note_on_c, 0, 75, 80
1, 708197, Note_off_c, 0, 75, 63
1, 708219, Note_on_c, 0, 76, 85
1, 708325, Note_off_c, 0, 76, 62
1, 708326, Note_on_c, 0, 77, 88
1, 708371, Note_on_c, 0, 69, 48
1, 708591, Control_c, 0, 64, 39
1, 708606, Control_c, 0, 64, 57
1, 708621, Control_c, 0, 64, 64
1, 708633, Note_on_c, 0, 72, 58
1, 708636, Control_c, 0, 64, 69
1, 708650, Control_c, 0, 64, 73
1, 708663, Note_off_c, 0, 69, 60
1, 708665, Control_c, 0, 64, 76
1, 708680, Control_c, 0, 64, 79
1, 708681, Note_off_c, 0, 77, 61
1, 708694, Control_c, 0, 64, 82
1, 708709, Control_c, 0, 64, 85
1, 708724, Control_c, 0, 64, 86
1, 708739, Control_c, 0, 64, 87
1, 708768, Control_c, 0, 64, 87
1, 708769, Note_on_c, 0, 79, 63
1, 708814, Control_c, 0, 64, 87
1, 708816, Note_on_c, 0, 77, 76
1, 708821, Note_off_c, 0, 79, 64
1, 708849, Note_off_c, 0, 77, 62
1, 708859, Control_c, 0, 64, 85
1, 708866, Note_on_c, 0, 76, 76
1, 708873, Control_c, 0, 64, 81
1, 708886, Note_off_c, 0, 72, 39
1, 708888, Control_c, 0, 64, 75
1, 708893, Note_on_c, 0, 77, 69
1, 708903, Control_c, 0, 64, 67
1, 708910, Note_off_c, 0, 76, 58
1, 708925, Control_c, 0, 64, 55
1, 708940, Control_c, 0, 64, 41
1, 708951, Note_on_c, 0, 65, 52
1, 708951, Note_on_c, 0, 81, 79
1, 708954, Control_c, 0, 64, 0
1, 708984, Note_off_c, 0, 77, 63
1, 709146, Control_c, 0, 64, 29
1, 709161, Control_c, 0, 64, 43
1, 709176, Control_c, 0, 64, 56
1, 709191, Control_c, 0, 64, 63
1, 709205, Control_c, 0, 64, 68
1, 709220, Control_c, 0, 64, 71
1, 709229, Note_on_c, 0, 72, 55
1, 709235, Control_c, 0, 64, 74
1, 709250, Control_c, 0, 64, 78
1, 709265, Control_c, 0, 64, 83
1, 709269, Note_off_c, 0, 81, 66
1, 709280, Control_c, 0, 64, 87
1, 709285, Note_off_c, 0, 65, 57
1, 709295, Control_c, 0, 64, 92
1, 709310, Control_c, 0, 64, 96
1, 709324, Control_c, 0, 64, 99
1, 709339, Control_c, 0, 64, 103
1, 709354, Control_c, 0, 64, 106
1, 709369, Control_c, 0, 64, 108
1, 709516, Control_c, 0, 64, 104
1, 709521, Note_on_c, 0, 81, 78
1, 709523, Note_on_c, 0, 70, 59
1, 709531, Control_c, 0, 64, 98
1, 709546, Control_c, 0, 64, 89
1, 709561, Control_c, 0, 64, 80
1, 709576, Control_c, 0, 64, 71
1, 709592, Control_c, 0, 64, 64
1, 709607, Note_off_c, 0, 72, 32
1, 709607, Control_c, 0, 64, 61
1, 709621, Control_c, 0, 64, 61
1, 709636, Control_c, 0, 64, 63
1, 709651, Control_c, 0, 64, 66
1, 709673, Control_c, 0, 64, 71
1, 709688, Control_c, 0, 64, 76
1, 709691, Note_on_c, 0, 79, 69
1, 709697, Note_on_c, 0, 83, 41
1, 709703, Control_c, 0, 64, 80
1, 709718, Control_c, 0, 64, 82
1, 709733, Note_off_c, 0, 83, 53
1, 709744, Note_off_c, 0, 81, 63
1, 709750, Note_off_c, 0, 79, 63
1, 709762, Control_c, 0, 64, 81
1, 709777, Control_c, 0, 64, 78
1, 709792, Control_c, 0, 64, 71
1, 709807, Control_c, 0, 64, 62
1, 709821, Control_c, 0, 64, 52
1, 709828, Note_on_c, 0, 79, 83
1, 709836, Control_c, 0, 64, 38
1, 709846, Note_on_c, 0, 72, 54
1, 709851, Control_c, 0, 64, 30
1, 709881, Control_c, 0, 64, 38
1, 709895, Control_c, 0, 64, 49
1, 709910, Control_c, 0, 64, 59
1, 709925, Control_c, 0, 64, 66
1, 709939, Control_c, 0, 64, 72
1, 709954, Control_c, 0, 64, 73
1, 709960, Note_on_c, 0, 76, 78
1, 709984, Control_c, 0, 64, 72
1, 709998, Note_on_c, 0, 81, 24
1, 709999, Control_c, 0, 64, 69
1, 710013, Note_off_c, 0, 70, 37
1, 710013, Control_c, 0, 64, 63
1, 710025, Note_off_c, 0, 79, 60
1, 710028, Control_c, 0, 64, 52
1, 710043, Control_c, 0, 64, 43
1, 710058, Control_c, 0, 64, 37
1, 710073, Control_c, 0, 64, 37
1, 710075, Note_off_c, 0, 81, 37
1, 710100, Note_on_c, 0, 77, 83
1, 710124, Note_on_c, 0, 69, 61
1, 710125, Note_off_c, 0, 76, 61
1, 710129, Note_off_c, 0, 72, 55
1, 710144, Note_off_c, 0, 77, 65
1, 710177, Control_c, 0, 64, 36
1, 710192, Control_c, 0, 64, 35
1, 710207, Control_c, 0, 64, 33
1, 710221, Control_c, 0, 64, 32
1, 710236, Control_c, 0, 64, 32
1, 710249, Note_on_c, 0, 79, 64
1, 710265, Control_c, 0, 64, 29
1, 710280, Control_c, 0, 64, 0
1, 710305, Note_on_c, 0, 77, 72
1, 710310, Note_off_c, 0, 79, 63
1, 710334, Note_off_c, 0, 77, 65
1, 710340, Note_on_c, 0, 76, 78
1, 710365, Note_on_c, 0, 72, 48
1, 710380, Note_on_c, 0, 77, 80
1, 710399, Note_off_c, 0, 76, 64
1, 710429, Note_off_c, 0, 77, 63
1, 710539, Note_on_c, 0, 81, 80
1, 710562, Note_off_c, 0, 81, 66
1, 710677, Note_off_c, 0, 69, 44
1, 710681, Note_on_c, 0, 78, 74
1, 710687, Note_on_c, 0, 70, 52
1, 710735, Note_off_c, 0, 72, 53
1, 710830, Note_on_c, 0, 79, 70
1, 710898, Note_off_c, 0, 78, 55
1, 710939, Note_off_c, 0, 79, 55
1, 710971, Note_on_c, 0, 82, 66
1, 710990, Note_on_c, 0, 72, 44
1, 711123, Note_off_c, 0, 82, 55
1, 711128, Note_on_c, 0, 76, 53
1, 711253, Note_off_c, 0, 76, 32
1, 711287, Note_on_c, 0, 79, 55
1, 711294, Note_on_c, 0, 69, 44
1, 711317, Note_off_c, 0, 70, 34
1, 711373, Note_off_c, 0, 72, 31
1, 711436, Note_on_c, 0, 77, 56
1, 711441, Note_off_c, 0, 79, 57
1, 711542, Control_c, 0, 64, 40
1, 711557, Control_c, 0, 64, 54
1, 711572, Control_c, 0, 64, 63
1, 711578, Note_off_c, 0, 69, 64
1, 711584, Note_on_c, 0, 72, 34
1, 711586, Control_c, 0, 64, 66
1, 711601, Control_c, 0, 64, 68
1, 711616, Control_c, 0, 64, 70
1, 711617, Note_off_c, 0, 72, 32
1, 711631, Control_c, 0, 64, 72
1, 711646, Control_c, 0, 64, 74
1, 711660, Control_c, 0, 64, 76
1, 711675, Control_c, 0, 64, 78
1, 711690, Control_c, 0, 64, 80
1, 711705, Control_c, 0, 64, 81
1, 711719, Control_c, 0, 64, 82
1, 711731, Note_on_c, 0, 81, 64
1, 711749, Control_c, 0, 64, 83
1, 711754, Note_off_c, 0, 77, 64
1, 711761, Note_off_c, 0, 81, 65
1, 711793, Control_c, 0, 64, 82
1, 711823, Control_c, 0, 64, 80
1, 711837, Control_c, 0, 64, 75
1, 711852, Note_on_c, 0, 72, 63
1, 711852, Control_c, 0, 64, 67
1, 711861, Note_on_c, 0, 67, 57
1, 711867, Control_c, 0, 64, 54
1, 711880, Note_off_c, 0, 72, 67
1, 711882, Control_c, 0, 64, 37
1, 711883, Note_off_c, 0, 67, 60
1, 711897, Control_c, 0, 64, 0
1, 711897, Control_c, 0, 67, 47
1, 711919, Control_c, 0, 67, 82
1, 711934, Control_c, 0, 67, 115
1, 711949, Control_c, 0, 67, 127
1, 712023, Note_on_c, 0, 84, 65
1, 712076, Note_off_c, 0, 84, 58
1, 712090, Note_on_c, 0, 82, 68
1, 712115, Note_off_c, 0, 82, 65
1, 712168, Note_on_c, 0, 72, 49
1, 712177, Note_on_c, 0, 64, 43
1, 712192, Note_off_c, 0, 72, 59
1, 712205, Note_off_c, 0, 64, 55
1, 712323, Note_on_c, 0, 81, 57
1, 712355, Note_off_c, 0, 81, 60
1, 712384, Note_on_c, 0, 79, 60
1, 712408, Note_off_c, 0, 79, 68
1, 712460, Note_on_c, 0, 72, 52
1, 712465, Note_on_c, 0, 65, 52
1, 712489, Note_off_c, 0, 65, 61
1, 712493, Note_off_c, 0, 72, 64
1, 712610, Note_on_c, 0, 82, 55
1, 712691, Note_on_c, 0, 81, 66
1, 712702, Note_off_c, 0, 82, 55
1, 712715, Note_off_c, 0, 81, 69
1, 712750, Note_on_c, 0, 69, 61
1, 712752, Note_on_c, 0, 72, 54
1, 712776, Note_off_c, 0, 69, 67
1, 712776, Note_off_c, 0, 72, 63
1, 712901, Note_on_c, 0, 79, 64
1, 712949, Note_off_c, 0, 79, 56
1, 712973, Note_on_c, 0, 77, 71
1, 712999, Note_off_c, 0, 77, 66
1, 713010, Control_c, 0, 64, 31
1, 713025, Control_c, 0, 64, 46
1, 713030, Note_on_c, 0, 74, 70
1, 713039, Control_c, 0, 64, 57
1, 713050, Note_on_c, 0, 70, 60
1, 713054, Note_off_c, 0, 74, 70
1, 713054, Control_c, 0, 64, 62
1, 713069, Control_c, 0, 64, 63
1, 713069, Control_c, 0, 67, 123
1, 713084, Control_c, 0, 67, 115
1, 713098, Control_c, 0, 67, 107
1, 713113, Control_c, 0, 67, 102
1, 713173, Control_c, 0, 64, 62
1, 713188, Control_c, 0, 64, 62
1, 713202, Note_on_c, 0, 76, 42
1, 713203, Control_c, 0, 64, 60
1, 713203, Control_c, 0, 67, 104
1, 713218, Control_c, 0, 64, 58
1, 713224, Note_on_c, 0, 74, 73
1, 713232, Control_c, 0, 64, 55
1, 713246, Note_off_c, 0, 76, 55
1, 713247, Control_c, 0, 64, 52
1, 713256, Note_off_c, 0, 74, 64
1, 713258, Note_on_c, 0, 73, 75
1, 713262, Control_c, 0, 64, 50
1, 713277, Control_c, 0, 64, 49
1, 713291, Control_c, 0, 64, 47
1, 713306, Control_c, 0, 64, 46
1, 713314, Note_off_c, 0, 73, 62
1, 713316, Note_on_c, 0, 74, 86
1, 713321, Control_c, 0, 64, 45
1, 713322, Note_on_c, 0, 58, 46
1, 713332, Note_off_c, 0, 70, 60
1, 713336, Control_c, 0, 64, 44
1, 713351, Control_c, 0, 64, 43
1, 713365, Control_c, 0, 64, 41
1, 713380, Control_c, 0, 64, 40
1, 713395, Control_c, 0, 64, 37
1, 713417, Control_c, 0, 64, 34
1, 713432, Control_c, 0, 64, 32
1, 713461, Control_c, 0, 64, 29
1, 713471, Note_on_c, 0, 76, 82
1, 713476, Control_c, 0, 64, 0
1, 713499, Note_off_c, 0, 74, 41
1, 713505, Control_c, 0, 67, 106
1, 713538, Note_off_c, 0, 58, 63
1, 713579, Control_c, 0, 67, 104
1, 713610, Control_c, 0, 67, 101
1, 713611, Note_on_c, 0, 77, 79
1, 713614, Note_on_c, 0, 62, 64
1, 713625, Control_c, 0, 67, 99
1, 713640, Control_c, 0, 67, 97
1, 713641, Note_off_c, 0, 62, 65
1, 713655, Control_c, 0, 67, 94
1, 713669, Control_c, 0, 67, 92
1, 713684, Control_c, 0, 67, 76
1, 713699, Control_c, 0, 67, 57
1, 713713, Control_c, 0, 67, 42
1, 713728, Control_c, 0, 67, 0
1, 713755, Note_on_c, 0, 78, 74
1, 713810, Note_off_c, 0, 76, 32
1, 713870, Note_off_c, 0, 77, 39
1, 713901, Note_on_c, 0, 81, 73
1, 713906, Control_c, 0, 64, 31
1, 713908, Note_on_c, 0, 65, 73
1, 713921, Control_c, 0, 64, 46
1, 713929, Note_on_c, 0, 59, 54
1, 713936, Control_c, 0, 64, 58
1, 713939, Note_off_c, 0, 78, 47
1, 713951, Control_c, 0, 64, 65
1, 713966, Control_c, 0, 64, 69
1, 713981, Control_c, 0, 64, 72
1, 713995, Control_c, 0, 64, 75
1, 714010, Control_c, 0, 64, 80
1, 714025, Control_c, 0, 64, 85
1, 714040, Control_c, 0, 64, 90
1, 714042, Note_on_c, 0, 79, 72
1, 714055, Control_c, 0, 64, 95
1, 714055, Note_off_c, 0, 81, 57
1, 714066, Note_off_c, 0, 79, 68
1, 714069, Control_c, 0, 64, 98
1, 714099, Control_c, 0, 64, 100
1, 714166, Control_c, 0, 64, 95
1, 714180, Control_c, 0, 64, 88
1, 714195, Control_c, 0, 64, 79
1, 714210, Control_c, 0, 64, 70
1, 714214, Note_on_c, 0, 79, 57
1, 714225, Control_c, 0, 64, 59
1, 714228, Note_off_c, 0, 59, 39
1, 714239, Control_c, 0, 64, 47
1, 714242, Note_on_c, 0, 60, 40
1, 714254, Control_c, 0, 64, 32
1, 714269, Control_c, 0, 64, 0
1, 714328, Control_c, 0, 67, 47
1, 714343, Control_c, 0, 67, 67
1, 714358, Control_c, 0, 67, 88
1, 714373, Control_c, 0, 67, 112
1, 714389, Control_c, 0, 67, 127
1, 714518, Note_off_c, 0, 65, 59
1, 714540, Note_on_c, 0, 72, 55
1, 714548, Note_on_c, 0, 64, 50
1, 714744, Control_c, 0, 64, 34
1, 714749, Note_off_c, 0, 64, 62
1, 714759, Control_c, 0, 64, 49
1, 714765, Note_on_c, 0, 62, 60
1, 714771, Note_off_c, 0, 79, 63
1, 714774, Control_c, 0, 64, 60
1, 714782, Note_off_c, 0, 72, 63
1, 714789, Control_c, 0, 64, 64
1, 714803, Control_c, 0, 64, 65
1, 714843, Note_off_c, 0, 62, 62
1, 714863, Note_on_c, 0, 64, 65
1, 714920, Note_on_c, 0, 73, 63
1, 714944, Control_c, 0, 64, 64
1, 714958, Control_c, 0, 64, 64
1, 714973, Control_c, 0, 64, 63
1, 714984, Note_on_c, 0, 74, 79
1, 714988, Note_off_c, 0, 73, 56
1, 714988, Control_c, 0, 64, 61
1, 715003, Control_c, 0, 64, 59
1, 715018, Control_c, 0, 64, 57
1, 715020, Note_off_c, 0, 64, 64
1, 715027, Note_off_c, 0, 60, 63
1, 715033, Control_c, 0, 64, 54
1, 715036, Note_off_c, 0, 74, 63
1, 715048, Control_c, 0, 64, 51
1, 715060, Note_on_c, 0, 72, 69
1, 715062, Control_c, 0, 64, 48
1, 715077, Control_c, 0, 64, 44
1, 715084, Note_off_c, 0, 72, 68
1, 715092, Control_c, 0, 64, 37
1, 715107, Control_c, 0, 64, 0
1, 715125, Note_on_c, 0, 72, 70
1, 715151, Control_c, 0, 67, 124
1, 715166, Control_c, 0, 67, 108
1, 715182, Control_c, 0, 67, 91
1, 715187, Note_on_c, 0, 70, 80
1, 715197, Control_c, 0, 67, 74
1, 715212, Control_c, 0, 67, 55
1, 715217, Note_off_c, 0, 72, 59
1, 715227, Control_c, 0, 67, 37
1, 715241, Control_c, 0, 67, 0
1, 715256, Note_on_c, 0, 69, 79
1, 715289, Note_off_c, 0, 70, 61
1, 715328, Note_on_c, 0, 67, 81
1, 715333, Note_off_c, 0, 69, 63
1, 715386, Note_off_c, 0, 67, 61
1, 715399, Note_on_c, 0, 65, 79
1, 715413, Note_on_c, 0, 57, 76
1, 715557, Note_off_c, 0, 65, 51
1, 715568, Note_on_c, 0, 67, 72
1, 715640, Note_on_c, 0, 69, 74
1, 715661, Note_off_c, 0, 67, 61
1, 715668, Note_off_c, 0, 57, 62
1, 715695, Note_off_c, 0, 69, 60
1, 715705, Note_on_c, 0, 60, 79
1, 715712, Note_on_c, 0, 70, 79
1, 715748, Note_off_c, 0, 70, 68
1, 715787, Note_on_c, 0, 72, 81
1, 715796, Control_c, 0, 67, 36
1, 715811, Control_c, 0, 67, 47
1, 715826, Control_c, 0, 67, 61
1, 715835, Note_off_c, 0, 72, 57
1, 715840, Control_c, 0, 67, 83
1, 715855, Control_c, 0, 67, 104
1, 715861, Note_on_c, 0, 74, 73
1, 715870, Control_c, 0, 67, 125
1, 715884, Control_c, 0, 67, 127
1, 715897, Note_off_c, 0, 74, 63
1, 715923, Note_on_c, 0, 76, 75
1, 715962, Note_off_c, 0, 76, 63
1, 715999, Note_on_c, 0, 77, 76
1, 716013, Note_on_c, 0, 53, 44
1, 716039, Note_off_c, 0, 77, 56
1, 716061, Note_off_c, 0, 53, 59
1, 716071, Note_on_c, 0, 79, 72
1, 716140, Note_on_c, 0, 81, 69
1, 716148, Note_off_c, 0, 79, 58
1, 716222, Note_on_c, 0, 82, 57
1, 716228, Note_off_c, 0, 60, 52
1, 716231, Note_off_c, 0, 81, 55
1, 716296, Note_on_c, 0, 60, 58
1, 716298, Note_on_c, 0, 84, 59
1, 716314, Note_off_c, 0, 82, 55
1, 716470, Note_on_c, 0, 81, 59
1, 716494, Note_off_c, 0, 84, 56
1, 716613, Note_off_c, 0, 81, 62
1, 716617, Note_on_c, 0, 79, 62
1, 716621, Note_on_c, 0, 58, 47
1, 716646, Note_off_c, 0, 58, 52
1, 716692, Note_on_c, 0, 81, 63
1, 716702, Note_off_c, 0, 79, 55
1, 716757, Note_on_c, 0, 82, 72
1, 716789, Note_off_c, 0, 81, 62
1, 716793, Note_off_c, 0, 60, 61
1, 716833, Note_off_c, 0, 82, 63
1, 716839, Note_on_c, 0, 79, 60
1, 716871, Note_off_c, 0, 79, 62
1, 716900, Note_on_c, 0, 60, 70
1, 716902, Note_on_c, 0, 76, 70
1, 716965, Note_off_c, 0, 76, 46
1, 716977, Note_on_c, 0, 77, 66
1, 717053, Note_on_c, 0, 79, 58
1, 717058, Poly_aftertouch_c, 0, 76, 0
1, 717069, Note_off_c, 0, 77, 53
1, 717090, Note_off_c, 0, 79, 55
1, 717113, Note_on_c, 0, 76, 59
1, 717185, Note_on_c, 0, 77, 78
1, 717186, Note_off_c, 0, 76, 60
1, 717209, Note_on_c, 0, 57, 54
1, 717224, Note_off_c, 0, 77, 62
1, 717234, Note_off_c, 0, 57, 63
1, 717264, Control_c, 0, 67, 105
1, 717278, Note_on_c, 0, 84, 63
1, 717279, Control_c, 0, 67, 73
1, 717294, Control_c, 0, 67, 40
1, 717309, Control_c, 0, 67, 0
1, 717314, Note_off_c, 0, 84, 65
1, 717338, Note_on_c, 0, 83, 73
1, 717383, Note_off_c, 0, 60, 58
1, 717407, Note_off_c, 0, 83, 62
1, 717409, Note_on_c, 0, 84, 79
1, 717479, Note_off_c, 0, 84, 65
1, 717480, Note_on_c, 0, 86, 78
1, 717483, Note_on_c, 0, 60, 69
1, 717554, Note_on_c, 0, 84, 81
1, 717582, Note_off_c, 0, 86, 65
1, 717623, Note_on_c, 0, 82, 82
1, 717631, Note_off_c, 0, 84, 64
1, 717684, Note_off_c, 0, 82, 60
1, 717695, Note_on_c, 0, 81, 80
1, 717751, Note_on_c, 0, 58, 67
1, 717769, Note_off_c, 0, 81, 36
1, 717772, Note_on_c, 0, 79, 74
1, 717778, Note_off_c, 0, 58, 66
1, 717829, Note_on_c, 0, 81, 74
1, 717849, Note_off_c, 0, 79, 58
1, 717916, Note_on_c, 0, 82, 83
1, 717984, Note_off_c, 0, 60, 57
1, 717984, Note_off_c, 0, 81, 43
1, 717988, Note_on_c, 0, 79, 77
1, 718007, Note_off_c, 0, 82, 61
1, 718046, Note_off_c, 0, 79, 62
1, 718057, Note_on_c, 0, 60, 76
1, 718062, Note_on_c, 0, 76, 76
1, 718125, Note_on_c, 0, 77, 83
1, 718133, Note_off_c, 0, 76, 61
1, 718202, Note_on_c, 0, 79, 72
1, 718234, Note_off_c, 0, 77, 62
1, 718262, Note_on_c, 0, 76, 71
1, 718309, Note_off_c, 0, 76, 60
1, 718346, Note_on_c, 0, 77, 81
1, 718372, Note_on_c, 0, 57, 51
1, 718414, Control_c, 0, 64, 34
1, 718429, Control_c, 0, 64, 51
1, 718444, Control_c, 0, 64, 61
1, 718458, Control_c, 0, 64, 65
1, 718473, Control_c, 0, 64, 67
1, 718488, Control_c, 0, 64, 68
1, 718503, Control_c, 0, 64, 69
1, 718507, Note_on_c, 0, 81, 85
1, 718520, Note_on_c, 0, 69, 64
1, 718520, Note_off_c, 0, 60, 36
1, 718533, Control_c, 0, 64, 69
1, 718547, Control_c, 0, 64, 70
1, 718562, Control_c, 0, 64, 71
1, 718577, Control_c, 0, 64, 74
1, 718592, Control_c, 0, 64, 78
1, 718607, Control_c, 0, 64, 85
1, 718622, Control_c, 0, 64, 87
1, 718626, Note_off_c, 0, 69, 54
1, 718658, Note_on_c, 0, 60, 80
1, 718658, Control_c, 0, 64, 86
1, 718673, Control_c, 0, 64, 85
1, 718682, Note_on_c, 0, 53, 57
1, 718717, Control_c, 0, 64, 86
1, 718732, Control_c, 0, 64, 91
1, 718746, Note_off_c, 0, 79, 40
1, 718747, Control_c, 0, 64, 127
1, 718801, Note_on_c, 0, 84, 87
1, 718813, Note_off_c, 0, 60, 57
1, 718824, Note_on_c, 0, 72, 66
1, 718830, Note_off_c, 0, 53, 49
1, 718881, Note_off_c, 0, 57, 58
1, 718941, Note_on_c, 0, 60, 71
1, 718943, Note_off_c, 0, 84, 57
1, 718955, Note_on_c, 0, 55, 64
1, 718955, Note_off_c, 0, 72, 57
1, 718978, Note_off_c, 0, 81, 56
1, 718999, Control_c, 0, 64, 98
1, 719014, Control_c, 0, 64, 76
1, 719028, Control_c, 0, 64, 64
1, 719043, Control_c, 0, 64, 53
1, 719058, Control_c, 0, 64, 42
1, 719073, Control_c, 0, 64, 0
1, 719110, Note_on_c, 0, 83, 70
1, 719132, Note_on_c, 0, 71, 54
1, 719148, Note_off_c, 0, 55, 35
1, 719221, Note_off_c, 0, 71, 60
1, 719256, Note_on_c, 0, 52, 48
1, 719424, Note_on_c, 0, 82, 64
1, 719432, Note_off_c, 0, 52, 58
1, 719441, Note_on_c, 0, 70, 51
1, 719451, Note_off_c, 0, 83, 62
1, 719466, Control_c, 0, 64, 35
1, 719481, Control_c, 0, 64, 52
1, 719495, Control_c, 0, 64, 64
1, 719510, Control_c, 0, 64, 71
1, 719525, Control_c, 0, 64, 79
1, 719540, Control_c, 0, 64, 82
1, 719555, Control_c, 0, 64, 82
1, 719573, Note_on_c, 0, 53, 46
1, 719600, Control_c, 0, 64, 81
1, 719614, Control_c, 0, 64, 80
1, 719624, Note_off_c, 0, 53, 53
1, 719631, Note_off_c, 0, 70, 49
1, 719638, Note_off_c, 0, 82, 36
1, 719658, Control_c, 0, 64, 81
1, 719675, Note_off_c, 0, 77, 30
1, 719688, Control_c, 0, 64, 80
1, 719703, Control_c, 0, 64, 79
1, 719718, Control_c, 0, 64, 78
1, 719729, Note_on_c, 0, 81, 63
1, 719746, Note_on_c, 0, 71, 54
1, 719747, Control_c, 0, 64, 79
1, 719757, Note_off_c, 0, 60, 41
1, 719762, Control_c, 0, 64, 82
1, 719777, Control_c, 0, 64, 89
1, 719792, Control_c, 0, 64, 102
1, 719805, Note_off_c, 0, 81, 59
1, 719806, Control_c, 0, 64, 127
1, 719822, Note_off_c, 0, 71, 55
1, 719859, Note_on_c, 0, 53, 61
1, 719871, Note_on_c, 0, 50, 57
1, 719939, Note_off_c, 0, 53, 54
1, 719943, Note_off_c, 0, 50, 61
1, 720009, Note_on_c, 0, 81, 68
1, 720019, Note_on_c, 0, 69, 65
1, 720033, Note_off_c, 0, 81, 69
1, 720050, Note_off_c, 0, 69, 63
1, 720154, Note_on_c, 0, 55, 73
1, 720155, Control_c, 0, 64, 94
1, 720157, Note_on_c, 0, 50, 62
1, 720164, Note_on_c, 0, 46, 69
1, 720170, Control_c, 0, 64, 74
1, 720186, Control_c, 0, 64, 59
1, 720201, Control_c, 0, 64, 41
1, 720216, Control_c, 0, 64, 0
1, 720229, Note_on_c, 0, 67, 74
1, 720289, Note_on_c, 0, 69, 77
1, 720291, Note_off_c, 0, 67, 60
1, 720345, Note_off_c, 0, 69, 62
1, 720359, Note_on_c, 0, 70, 84
1, 720402, Note_off_c, 0, 70, 65
1, 720422, Note_on_c, 0, 72, 82
1, 720487, Note_on_c, 0, 74, 87
1, 720494, Note_off_c, 0, 72, 63
1, 720512, Note_off_c, 0, 55, 57
1, 720515, Note_off_c, 0, 46, 60
1, 720530, Note_off_c, 0, 50, 59
1, 720551, Note_on_c, 0, 76, 82
1, 720577, Note_off_c, 0, 74, 65
1, 720615, Note_on_c, 0, 78, 85
1, 720632, Note_off_c, 0, 76, 65
1, 720656, Note_off_c, 0, 78, 67
1, 720684, Note_on_c, 0, 79, 83
1, 720747, Note_on_c, 0, 81, 85
1, 720772, Note_off_c, 0, 79, 62
1, 720810, Note_on_c, 0, 82, 87
1, 720838, Control_c, 0, 67, 38
1, 720846, Note_off_c, 0, 81, 63
1, 720853, Control_c, 0, 67, 47
1, 720868, Control_c, 0, 67, 62
1, 720879, Note_on_c, 0, 84, 86
1, 720883, Control_c, 0, 67, 81
1, 720905, Control_c, 0, 67, 105
1, 720920, Control_c, 0, 67, 127
1, 720950, Note_off_c, 0, 82, 57
1, 720955, Note_on_c, 0, 86, 90
1, 720974, Note_off_c, 0, 84, 64
1, 721023, Control_c, 0, 64, 33
1, 721035, Note_off_c, 0, 86, 57
1, 721038, Control_c, 0, 64, 41
1, 721053, Control_c, 0, 64, 44
1, 721083, Control_c, 0, 64, 43
1, 721097, Control_c, 0, 64, 40
1, 721103, Note_on_c, 0, 76, 78
1, 721110, Note_on_c, 0, 60, 58
1, 721112, Control_c, 0, 64, 34
1, 721117, Note_on_c, 0, 70, 52
1, 721127, Control_c, 0, 64, 0
1, 721144, Note_off_c, 0, 70, 59
1, 721299, Note_on_c, 0, 79, 65
1, 721308, Note_on_c, 0, 70, 50
1, 721330, Note_on_c, 0, 65, 45
1, 721351, Note_off_c, 0, 60, 49
1, 721359, Note_off_c, 0, 76, 58
1, 721748, Note_off_c, 0, 79, 62
1, 721749, Note_on_c, 0, 81, 53
1, 721853, Note_off_c, 0, 81, 59
1, 721864, Note_on_c, 0, 79, 44
1, 721919, Note_off_c, 0, 79, 40
1, 721942, Note_on_c, 0, 77, 67
1, 721953, Note_on_c, 0, 69, 48
1, 721979, Note_off_c, 0, 70, 38
1, 721984, Note_off_c, 0, 77, 61
1, 722040, Note_on_c, 0, 76, 68
1, 722062, Note_off_c, 0, 69, 59
1, 722066, Note_off_c, 0, 76, 65
1, 722112, Note_off_c, 0, 65, 32
1, 722126, Note_on_c, 0, 75, 68
1, 722151, Note_off_c, 0, 75, 69
1, 722223, Note_on_c, 0, 74, 73
1, 722245, Note_off_c, 0, 74, 71
1, 722300, Note_on_c, 0, 73, 72
1, 722347, Note_off_c, 0, 73, 58
1, 722417, Note_on_c, 0, 72, 59
1, 722438, Note_off_c, 0, 72, 59
1, 722519, Note_on_c, 0, 70, 78
1, 722545, Note_on_c, 0, 50, 48
1, 722817, Control_c, 0, 64, 30
1, 722832, Control_c, 0, 64, 34
1, 722847, Control_c, 0, 64, 40
1, 722857, Note_on_c, 0, 53, 24
1, 722862, Control_c, 0, 64, 46
1, 722876, Control_c, 0, 64, 52
1, 722891, Control_c, 0, 64, 55
1, 722906, Control_c, 0, 64, 56
1, 722950, Control_c, 0, 64, 55
1, 722965, Control_c, 0, 64, 54
1, 722980, Control_c, 0, 64, 53
1, 722995, Control_c, 0, 64, 50
1, 723010, Control_c, 0, 64, 47
1, 723025, Control_c, 0, 64, 44
1, 723040, Control_c, 0, 64, 40
1, 723055, Control_c, 0, 64, 34
1, 723069, Control_c, 0, 64, 0
1, 723155, Note_on_c, 0, 69, 52
1, 723173, Note_on_c, 0, 48, 49
1, 723180, Note_off_c, 0, 70, 62
1, 723204, Note_off_c, 0, 50, 41
1, 723220, Note_off_c, 0, 53, 39
1, 723404, Control_c, 0, 64, 31
1, 723418, Control_c, 0, 64, 42
1, 723433, Control_c, 0, 64, 52
1, 723448, Control_c, 0, 64, 60
1, 723450, Note_on_c, 0, 53, 39
1, 723463, Control_c, 0, 64, 63
1, 723478, Control_c, 0, 64, 65
1, 723493, Control_c, 0, 64, 67
1, 723508, Control_c, 0, 64, 69
1, 723523, Control_c, 0, 64, 72
1, 723532, Note_off_c, 0, 48, 61
1, 723538, Control_c, 0, 64, 74
1, 723547, Note_off_c, 0, 69, 47
1, 723552, Control_c, 0, 64, 75
1, 723567, Control_c, 0, 64, 75
1, 723656, Control_c, 0, 64, 75
1, 723671, Control_c, 0, 64, 73
1, 723686, Control_c, 0, 64, 69
1, 723700, Control_c, 0, 64, 63
1, 723715, Control_c, 0, 64, 52
1, 723730, Control_c, 0, 64, 40
1, 723745, Control_c, 0, 64, 0
1, 723756, Note_on_c, 0, 48, 48
1, 723758, Note_on_c, 0, 46, 45
1, 723784, Note_on_c, 0, 67, 49
1, 723818, Note_off_c, 0, 53, 55
1, 723823, Note_off_c, 0, 67, 55
1, 723871, Note_on_c, 0, 69, 58
1, 723907, Note_off_c, 0, 69, 66
1, 723963, Note_on_c, 0, 70, 65
1, 723990, Note_off_c, 0, 70, 70
1, 724040, Note_off_c, 0, 48, 50
1, 724052, Note_on_c, 0, 72, 65
1, 724056, Note_on_c, 0, 55, 38
1, 724097, Note_off_c, 0, 72, 60
1, 724140, Note_on_c, 0, 74, 69
1, 724171, Note_off_c, 0, 74, 60
1, 724222, Note_on_c, 0, 76, 48
1, 724241, Note_off_c, 0, 46, 36
1, 724244, Note_off_c, 0, 76, 59
1, 724341, Note_on_c, 0, 77, 56
1, 724348, Note_on_c, 0, 45, 34
1, 724356, Note_on_c, 0, 48, 33
1, 724378, Note_off_c, 0, 55, 54
1, 724463, Control_c, 0, 64, 41
1, 724478, Control_c, 0, 64, 54
1, 724493, Control_c, 0, 64, 63
1, 724506, Note_off_c, 0, 77, 62
1, 724508, Control_c, 0, 64, 66
1, 724522, Control_c, 0, 64, 68
1, 724537, Control_c, 0, 64, 69
1, 724552, Control_c, 0, 64, 71
1, 724566, Control_c, 0, 64, 74
1, 724581, Control_c, 0, 64, 76
1, 724596, Control_c, 0, 64, 79
1, 724601, Note_off_c, 0, 48, 40
1, 724611, Control_c, 0, 64, 81
1, 724626, Control_c, 0, 64, 85
1, 724648, Control_c, 0, 64, 87
1, 724655, Note_off_c, 0, 45, 47
1, 724656, Note_on_c, 0, 53, 42
1, 724663, Control_c, 0, 64, 90
1, 724678, Control_c, 0, 64, 92
1, 724693, Control_c, 0, 64, 93
1, 724708, Control_c, 0, 64, 95
1, 724715, Note_off_c, 0, 53, 61
1, 724722, Control_c, 0, 64, 96
1, 724768, Control_c, 0, 64, 98
1, 724796, Note_on_c, 0, 77, 66
1, 724826, Note_off_c, 0, 77, 62
1, 724886, Control_c, 0, 64, 94
1, 724901, Control_c, 0, 64, 88
1, 724916, Control_c, 0, 64, 79
1, 724931, Control_c, 0, 64, 66
1, 724945, Control_c, 0, 64, 54
1, 724953, Note_on_c, 0, 84, 62
1, 724960, Control_c, 0, 64, 40
1, 724962, Note_on_c, 0, 62, 41
1, 724975, Control_c, 0, 64, 0
1, 725099, Note_on_c, 0, 83, 64
1, 725108, Control_c, 0, 64, 30
1, 725123, Control_c, 0, 64, 34
1, 725130, Note_off_c, 0, 83, 65
1, 725138, Control_c, 0, 64, 37
1, 725140, Note_off_c, 0, 84, 65
1, 725153, Control_c, 0, 64, 39
1, 725168, Control_c, 0, 64, 39
1, 725183, Control_c, 0, 64, 40
1, 725232, Note_on_c, 0, 65, 43
1, 725257, Control_c, 0, 64, 39
1, 725286, Control_c, 0, 64, 39
1, 725375, Control_c, 0, 64, 38
1, 725381, Note_on_c, 0, 82, 78
1, 725397, Control_c, 0, 64, 38
1, 725411, Note_off_c, 0, 82, 63
1, 725412, Control_c, 0, 64, 37
1, 725427, Control_c, 0, 64, 36
1, 725442, Control_c, 0, 64, 34
1, 725457, Control_c, 0, 64, 30
1, 725471, Control_c, 0, 64, 0
1, 725533, Note_on_c, 0, 80, 81
1, 725550, Note_on_c, 0, 60, 46
1, 725609, Note_off_c, 0, 62, 44
1, 725613, Note_off_c, 0, 65, 38
1, 725678, Note_on_c, 0, 81, 83
1, 725710, Note_off_c, 0, 80, 65
1, 725724, Note_off_c, 0, 81, 65
1, 725798, Control_c, 0, 64, 35
1, 725812, Note_on_c, 0, 65, 58
1, 725813, Control_c, 0, 64, 47
1, 725813, Control_c, 0, 67, 112
1, 725828, Control_c, 0, 64, 57
1, 725828, Control_c, 0, 67, 95
1, 725843, Control_c, 0, 64, 63
1, 725843, Control_c, 0, 67, 75
1, 725858, Control_c, 0, 64, 66
1, 725858, Control_c, 0, 67, 49
1, 725873, Control_c, 0, 64, 69
1, 725873, Control_c, 0, 67, 0
1, 725881, Note_off_c, 0, 60, 60
1, 725887, Control_c, 0, 64, 71
1, 725902, Control_c, 0, 64, 74
1, 725917, Control_c, 0, 64, 77
1, 725932, Control_c, 0, 64, 80
1, 725946, Note_on_c, 0, 81, 75
1, 725947, Control_c, 0, 64, 84
1, 725962, Control_c, 0, 64, 86
1, 725966, Note_off_c, 0, 81, 72
1, 725976, Control_c, 0, 64, 88
1, 725991, Control_c, 0, 64, 88
1, 726006, Control_c, 0, 64, 89
1, 726080, Control_c, 0, 64, 88
1, 726095, Note_on_c, 0, 78, 72
1, 726095, Control_c, 0, 64, 87
1, 726098, Note_on_c, 0, 60, 53
1, 726103, Note_on_c, 0, 58, 53
1, 726110, Control_c, 0, 64, 84
1, 726125, Control_c, 0, 64, 81
1, 726128, Note_off_c, 0, 65, 52
1, 726147, Control_c, 0, 64, 76
1, 726149, Note_off_c, 0, 78, 56
1, 726162, Control_c, 0, 64, 69
1, 726168, Note_on_c, 0, 79, 74
1, 726176, Control_c, 0, 64, 63
1, 726191, Control_c, 0, 64, 56
1, 726205, Control_c, 0, 64, 50
1, 726220, Control_c, 0, 64, 47
1, 726235, Control_c, 0, 64, 45
1, 726237, Note_off_c, 0, 79, 63
1, 726238, Note_on_c, 0, 81, 76
1, 726250, Control_c, 0, 64, 43
1, 726265, Control_c, 0, 64, 42
1, 726280, Control_c, 0, 64, 40
1, 726286, Note_off_c, 0, 81, 61
1, 726294, Control_c, 0, 64, 39
1, 726304, Note_on_c, 0, 82, 81
1, 726309, Control_c, 0, 64, 38
1, 726324, Control_c, 0, 64, 37
1, 726339, Control_c, 0, 64, 35
1, 726350, Note_off_c, 0, 82, 66
1, 726353, Control_c, 0, 64, 33
1, 726369, Control_c, 0, 64, 31
1, 726370, Note_off_c, 0, 60, 53
1, 726375, Note_on_c, 0, 83, 79
1, 726399, Control_c, 0, 64, 0
1, 726402, Note_on_c, 0, 67, 53
1, 726435, Note_on_c, 0, 84, 81
1, 726445, Note_off_c, 0, 83, 57
1, 726501, Note_on_c, 0, 86, 80
1, 726512, Note_off_c, 0, 84, 64
1, 726530, Note_off_c, 0, 58, 55
1, 726571, Note_on_c, 0, 88, 73
1, 726575, Note_off_c, 0, 86, 65
1, 726650, Note_off_c, 0, 88, 62
1, 726660, Note_on_c, 0, 89, 74
1, 726681, Note_off_c, 0, 67, 37
1, 726690, Note_on_c, 0, 60, 43
1, 726695, Note_on_c, 0, 57, 39
1, 726828, Control_c, 0, 64, 39
1, 726843, Control_c, 0, 64, 54
1, 726858, Control_c, 0, 64, 63
1, 726873, Control_c, 0, 64, 69
1, 726895, Control_c, 0, 64, 73
1, 726910, Control_c, 0, 64, 76
1, 726919, Note_off_c, 0, 89, 65
1, 726924, Control_c, 0, 64, 79
1, 726939, Control_c, 0, 64, 84
1, 726954, Control_c, 0, 64, 90
1, 726969, Control_c, 0, 64, 97
1, 726983, Control_c, 0, 64, 108
1, 726986, Note_on_c, 0, 65, 56
1, 726998, Control_c, 0, 64, 127
1, 727050, Note_off_c, 0, 60, 64
1, 727057, Note_off_c, 0, 57, 64
1, 727061, Note_off_c, 0, 65, 63
1, 727237, Control_c, 0, 64, 102
1, 727252, Control_c, 0, 64, 82
1, 727263, Note_on_c, 0, 77, 95
1, 727266, Control_c, 0, 64, 67
1, 727281, Control_c, 0, 64, 45
1, 727296, Control_c, 0, 64, 0
1, 727486, Note_on_c, 0, 74, 79
1, 727498, Note_off_c, 0, 77, 65
1, 727517, Note_off_c, 0, 74, 56
1, 727558, Note_on_c, 0, 71, 89
1, 727560, Note_on_c, 0, 65, 74
1, 727561, Note_on_c, 0, 62, 77
1, 727586, Note_off_c, 0, 62, 69
1, 727598, Note_off_c, 0, 65, 64
1, 727868, Note_on_c, 0, 65, 68
1, 727883, Note_on_c, 0, 62, 59
1, 727970, Control_c, 0, 67, 41
1, 727985, Control_c, 0, 67, 49
1, 728000, Control_c, 0, 67, 55
1, 728015, Control_c, 0, 67, 62
1, 728030, Control_c, 0, 67, 70
1, 728045, Control_c, 0, 67, 77
1, 728060, Control_c, 0, 67, 85
1, 728074, Control_c, 0, 67, 94
1, 728089, Control_c, 0, 67, 106
1, 728104, Control_c, 0, 67, 116
1, 728119, Control_c, 0, 67, 126
1, 728152, Note_off_c, 0, 62, 39
1, 728176, Note_on_c, 0, 72, 55
1, 728185, Note_on_c, 0, 64, 44
1, 728188, Note_off_c, 0, 65, 57
1, 728190, Note_on_c, 0, 60, 36
1, 728197, Note_off_c, 0, 71, 60
1, 728376, Note_off_c, 0, 72, 62
1, 728379, Note_off_c, 0, 64, 64
1, 728394, Note_off_c, 0, 60, 64
1, 728506, Note_on_c, 0, 74, 50
1, 728708, Note_on_c, 0, 70, 60
1, 728715, Note_off_c, 0, 74, 63
1, 728753, Note_off_c, 0, 70, 61
1, 728778, Note_on_c, 0, 60, 54
1, 728781, Note_on_c, 0, 58, 54
1, 728785, Note_on_c, 0, 52, 55
1, 728802, Note_on_c, 0, 67, 59
1, 728813, Note_off_c, 0, 58, 65
1, 728815, Note_off_c, 0, 60, 64
1, 728817, Note_off_c, 0, 52, 64
1, 729088, Note_on_c, 0, 60, 68
1, 729114, Note_on_c, 0, 52, 50
1, 729116, Note_on_c, 0, 58, 49
1, 729186, Control_c, 0, 64, 36
1, 729187, Note_off_c, 0, 58, 53
1, 729201, Control_c, 0, 64, 52
1, 729216, Control_c, 0, 64, 62
1, 729216, Control_c, 0, 67, 124
1, 729231, Control_c, 0, 64, 68
1, 729231, Control_c, 0, 67, 93
1, 729245, Control_c, 0, 64, 73
1, 729245, Control_c, 0, 67, 61
1, 729260, Control_c, 0, 64, 76
1, 729260, Control_c, 0, 67, 0
1, 729268, Note_off_c, 0, 52, 58
1, 729275, Control_c, 0, 64, 79
1, 729290, Control_c, 0, 64, 80
1, 729319, Control_c, 0, 64, 79
1, 729334, Control_c, 0, 64, 73
1, 729349, Control_c, 0, 64, 62
1, 729363, Control_c, 0, 64, 42
1, 729378, Control_c, 0, 64, 0
1, 729391, Note_on_c, 0, 69, 62
1, 729395, Note_on_c, 0, 57, 54
1, 729400, Note_on_c, 0, 53, 53
1, 729423, Control_c, 0, 64, 40
1, 729434, Note_off_c, 0, 60, 61
1, 729437, Note_off_c, 0, 57, 66
1, 729437, Control_c, 0, 64, 56
1, 729444, Note_off_c, 0, 67, 51
1, 729452, Control_c, 0, 64, 67
1, 729458, Note_off_c, 0, 53, 62
1, 729467, Control_c, 0, 64, 77
1, 729482, Control_c, 0, 64, 90
1, 729492, Note_off_c, 0, 69, 63
1, 729497, Control_c, 0, 64, 102
1, 729511, Control_c, 0, 64, 127
1, 729600, Note_on_c, 0, 50, 60
1, 729630, Note_on_c, 0, 53, 66
1, 729696, Note_on_c, 0, 58, 63
1, 729747, Note_on_c, 0, 72, 65
1, 729750, Control_c, 0, 64, 107
1, 729765, Control_c, 0, 64, 85
1, 729780, Control_c, 0, 64, 70
1, 729788, Note_off_c, 0, 72, 63
1, 729791, Note_on_c, 0, 70, 68
1, 729794, Control_c, 0, 64, 58
1, 729809, Control_c, 0, 64, 44
1, 729822, Note_off_c, 0, 70, 66
1, 729824, Control_c, 0, 64, 35
1, 729839, Control_c, 0, 64, 36
1, 729840, Note_on_c, 0, 69, 61
1, 729854, Control_c, 0, 64, 40
1, 729868, Control_c, 0, 64, 47
1, 729887, Note_on_c, 0, 70, 68
1, 729890, Control_c, 0, 64, 55
1, 729896, Note_off_c, 0, 69, 61
1, 729905, Control_c, 0, 64, 60
1, 729920, Control_c, 0, 64, 64
1, 729925, Note_on_c, 0, 72, 54
1, 729935, Control_c, 0, 64, 69
1, 729949, Control_c, 0, 64, 73
1, 729952, Note_off_c, 0, 72, 63
1, 729964, Control_c, 0, 64, 75
1, 729968, Note_off_c, 0, 70, 63
1, 729979, Control_c, 0, 64, 77
1, 729980, Note_on_c, 0, 74, 71
1, 729994, Control_c, 0, 64, 78
1, 730009, Control_c, 0, 64, 78
1, 730018, Note_on_c, 0, 72, 74
1, 730024, Control_c, 0, 64, 79
1, 730051, Note_off_c, 0, 74, 63
1, 730063, Note_on_c, 0, 70, 75
1, 730068, Control_c, 0, 64, 79
1, 730083, Note_off_c, 0, 58, 60
1, 730083, Control_c, 0, 64, 80
1, 730096, Note_off_c, 0, 72, 62
1, 730101, Note_off_c, 0, 53, 34
1, 730108, Note_on_c, 0, 69, 74
1, 730121, Note_off_c, 0, 70, 65
1, 730138, Note_off_c, 0, 69, 62
1, 730163, Note_off_c, 0, 50, 36
1, 730167, Note_on_c, 0, 67, 75
1, 730172, Control_c, 0, 64, 79
1, 730186, Control_c, 0, 64, 78
1, 730201, Control_c, 0, 64, 73
1, 730216, Control_c, 0, 64, 65
1, 730224, Note_on_c, 0, 65, 76
1, 730231, Control_c, 0, 64, 55
1, 730239, Note_on_c, 0, 57, 56
1, 730241, Note_on_c, 0, 53, 32
1, 730246, Control_c, 0, 64, 38
1, 730255, Note_on_c, 0, 48, 58
1, 730260, Control_c, 0, 64, 0
1, 730275, Note_off_c, 0, 67, 54
1, 730382, Note_on_c, 0, 72, 74
1, 730382, Note_off_c, 0, 65, 64
1, 730403, Note_off_c, 0, 72, 70
1, 730521, Note_off_c, 0, 57, 60
1, 730525, Note_off_c, 0, 53, 57
1, 730527, Note_on_c, 0, 67, 84
1, 730529, Note_on_c, 0, 52, 55
1, 730654, Control_c, 0, 64, 44
1, 730669, Control_c, 0, 64, 58
1, 730674, Note_on_c, 0, 72, 75
1, 730684, Control_c, 0, 64, 66
1, 730686, Note_off_c, 0, 67, 65
1, 730694, Note_off_c, 0, 72, 69
1, 730698, Control_c, 0, 64, 69
1, 730713, Control_c, 0, 64, 70
1, 730757, Control_c, 0, 64, 69
1, 730772, Control_c, 0, 64, 64
1, 730787, Control_c, 0, 64, 53
1, 730790, Note_off_c, 0, 52, 62
1, 730802, Control_c, 0, 64, 32
1, 730817, Control_c, 0, 64, 0
1, 730828, Note_on_c, 0, 70, 84
1, 730841, Note_on_c, 0, 53, 56
1, 730847, Note_off_c, 0, 48, 61
1, 730850, Note_on_c, 0, 67, 65
1, 730856, Note_on_c, 0, 64, 56
1, 730995, Control_c, 0, 64, 40
1, 730997, Note_off_c, 0, 53, 53
1, 731009, Control_c, 0, 64, 56
1, 731024, Control_c, 0, 64, 66
1, 731039, Control_c, 0, 64, 71
1, 731054, Control_c, 0, 64, 78
1, 731069, Control_c, 0, 64, 82
1, 731083, Control_c, 0, 64, 88
1, 731098, Control_c, 0, 64, 101
1, 731113, Control_c, 0, 64, 127
1, 731145, Note_on_c, 0, 48, 68
1, 731159, Note_off_c, 0, 64, 61
1, 731187, Note_off_c, 0, 67, 63
1, 731230, Note_off_c, 0, 48, 60
1, 731403, Control_c, 0, 64, 87
1, 731418, Control_c, 0, 64, 62
1, 731433, Control_c, 0, 64, 38
1, 731441, Note_on_c, 0, 69, 71
1, 731447, Control_c, 0, 64, 0
1, 731453, Note_on_c, 0, 65, 45
1, 731460, Note_on_c, 0, 41, 60
1, 731462, Control_c, 0, 64, 34
1, 731467, Note_off_c, 0, 70, 55
1, 731477, Control_c, 0, 64, 53
1, 731481, Note_off_c, 0, 65, 61
1, 731492, Control_c, 0, 64, 68
1, 731500, Note_off_c, 0, 69, 63
1, 731506, Control_c, 0, 64, 86
1, 731521, Control_c, 0, 64, 127
1, 731599, Note_on_c, 0, 77, 82
1, 731643, Note_off_c, 0, 41, 64
1, 731675, Note_on_c, 0, 79, 81
1, 731684, Note_off_c, 0, 77, 61
1, 731741, Note_on_c, 0, 81, 85
1, 731769, Note_off_c, 0, 79, 63
1, 731788, Control_c, 0, 64, 112
1, 731803, Control_c, 0, 64, 93
1, 731806, Note_on_c, 0, 82, 85
1, 731818, Control_c, 0, 64, 80
1, 731825, Note_off_c, 0, 81, 60
1, 731832, Control_c, 0, 64, 69
1, 731847, Control_c, 0, 64, 59
1, 731848, Note_off_c, 0, 82, 67
1, 731862, Control_c, 0, 64, 49
1, 731877, Control_c, 0, 64, 37
1, 731881, Note_on_c, 0, 84, 90
1, 731892, Control_c, 0, 64, 0
1, 731950, Note_on_c, 0, 86, 89
1, 732006, Note_off_c, 0, 84, 33
1, 732016, Note_on_c, 0, 88, 90
1, 732045, Note_off_c, 0, 86, 65
1, 732089, Note_on_c, 0, 89, 89
1, 732099, Note_off_c, 0, 88, 64
1, 732158, Note_on_c, 0, 88, 85
1, 732168, Note_off_c, 0, 89, 63
1, 732227, Note_on_c, 0, 89, 89
1, 732303, Note_on_c, 0, 86, 85
1, 732316, Note_off_c, 0, 89, 64
1, 732325, Note_off_c, 0, 88, 27
1, 732358, Note_off_c, 0, 86, 66
1, 732373, Note_on_c, 0, 77, 91
1, 732373, Note_on_c, 0, 83, 95
1, 732380, Note_on_c, 0, 74, 82
1, 732382, Note_on_c, 0, 67, 79
1, 732406, Note_off_c, 0, 67, 69
1, 732407, Note_off_c, 0, 74, 67
1, 732416, Note_off_c, 0, 77, 65
1, 732681, Note_on_c, 0, 77, 86
1, 732697, Note_on_c, 0, 74, 72
1, 732705, Note_on_c, 0, 67, 66
1, 732864, Control_c, 0, 64, 33
1, 732886, Control_c, 0, 64, 37
1, 732887, Note_off_c, 0, 77, 62
1, 732899, Poly_aftertouch_c, 0, 87, 127
1, 732901, Control_c, 0, 64, 40
1, 732916, Control_c, 0, 64, 42
1, 732947, Poly_aftertouch_c, 0, 87, 0
1, 732960, Control_c, 0, 64, 41
1, 732975, Control_c, 0, 64, 39
1, 732990, Control_c, 0, 64, 34
1, 733005, Control_c, 0, 64, 0
1, 733011, Note_on_c, 0, 84, 75
1, 733016, Note_on_c, 0, 76, 58
1, 733016, Note_off_c, 0, 74, 60
1, 733022, Note_on_c, 0, 72, 59
1, 733022, Note_off_c, 0, 67, 60
1, 733040, Note_off_c, 0, 83, 63
1, 733044, Note_off_c, 0, 84, 60
1, 733076, Note_off_c, 0, 72, 62
1, 733084, Note_off_c, 0, 76, 64
1, 733149, Note_on_c, 0, 85, 73
1, 733178, Note_off_c, 0, 85, 64
1, 733242, Control_c, 0, 67, 55
1, 733257, Control_c, 0, 67, 87
1, 733272, Control_c, 0, 67, 115
1, 733286, Control_c, 0, 67, 127
1, 733321, Note_on_c, 0, 86, 63
1, 733360, Note_off_c, 0, 86, 56
1, 733380, Note_on_c, 0, 85, 68
1, 733449, Note_on_c, 0, 86, 77
1, 733499, Note_off_c, 0, 85, 35
1, 733513, Note_off_c, 0, 86, 64
1, 733514, Note_on_c, 0, 82, 70
1, 733590, Note_on_c, 0, 70, 60
1, 733594, Note_on_c, 0, 79, 70
1, 733599, Note_off_c, 0, 82, 63
1, 733600, Note_on_c, 0, 60, 52
1, 733600, Note_on_c, 0, 64, 55
1, 733656, Note_off_c, 0, 70, 63
1, 733658, Note_off_c, 0, 60, 56
1, 733659, Note_off_c, 0, 64, 63
1, 733754, Control_c, 0, 67, 93
1, 733768, Control_c, 0, 67, 45
1, 733783, Control_c, 0, 67, 0
1, 733908, Note_on_c, 0, 70, 67
1, 733919, Note_on_c, 0, 64, 53
1, 733948, Note_on_c, 0, 60, 29
1, 733961, Note_on_c, 0, 59, 31
1, 733961, Control_c, 0, 64, 37
1, 733976, Control_c, 0, 64, 50
1, 733991, Control_c, 0, 64, 60
1, 734006, Control_c, 0, 64, 64
1, 734012, Note_off_c, 0, 59, 44
1, 734021, Control_c, 0, 64, 67
1, 734028, Note_off_c, 0, 64, 60
1, 734035, Control_c, 0, 64, 69
1, 734040, Note_off_c, 0, 70, 55
1, 734050, Control_c, 0, 64, 71
1, 734065, Control_c, 0, 64, 73
1, 734073, Note_on_c, 0, 80, 84
1, 734080, Control_c, 0, 64, 75
1, 734095, Control_c, 0, 64, 78
1, 734109, Control_c, 0, 64, 82
1, 734124, Control_c, 0, 64, 87
1, 734139, Control_c, 0, 64, 92
1, 734153, Note_off_c, 0, 60, 41
1, 734153, Control_c, 0, 64, 98
1, 734168, Control_c, 0, 64, 104
1, 734175, Note_off_c, 0, 79, 53
1, 734183, Control_c, 0, 64, 110
1, 734198, Control_c, 0, 64, 113
1, 734227, Control_c, 0, 64, 109
1, 734242, Control_c, 0, 64, 94
1, 734255, Note_on_c, 0, 69, 67
1, 734257, Note_on_c, 0, 81, 83
1, 734257, Control_c, 0, 64, 77
1, 734270, Note_on_c, 0, 65, 62
1, 734272, Control_c, 0, 64, 63
1, 734287, Control_c, 0, 64, 49
1, 734299, Note_off_c, 0, 80, 62
1, 734302, Control_c, 0, 64, 44
1, 734316, Control_c, 0, 64, 47
1, 734331, Control_c, 0, 64, 56
1, 734344, Note_on_c, 0, 82, 83
1, 734346, Control_c, 0, 64, 65
1, 734355, Note_off_c, 0, 81, 63
1, 734358, Note_off_c, 0, 69, 63
1, 734362, Control_c, 0, 64, 75
1, 734384, Control_c, 0, 64, 87
1, 734399, Control_c, 0, 64, 95
1, 734404, Note_off_c, 0, 65, 58
1, 734408, Note_off_c, 0, 82, 67
1, 734413, Control_c, 0, 64, 99
1, 734421, Note_on_c, 0, 83, 86
1, 734428, Control_c, 0, 64, 104
1, 734443, Control_c, 0, 64, 107
1, 734457, Control_c, 0, 64, 110
1, 734472, Control_c, 0, 64, 112
1, 734487, Control_c, 0, 64, 115
1, 734491, Note_on_c, 0, 84, 94
1, 734517, Control_c, 0, 64, 119
1, 734518, Note_off_c, 0, 83, 64
1, 734591, Control_c, 0, 64, 117
1, 734599, Note_on_c, 0, 85, 100
1, 734606, Control_c, 0, 64, 112
1, 734621, Control_c, 0, 64, 102
1, 734635, Control_c, 0, 64, 85
1, 734640, Note_off_c, 0, 84, 63
1, 734650, Control_c, 0, 64, 71
1, 734665, Control_c, 0, 64, 59
1, 734680, Control_c, 0, 64, 45
1, 734695, Control_c, 0, 64, 0
1, 734798, Control_c, 0, 64, 35
1, 734813, Control_c, 0, 64, 48
1, 734814, Note_on_c, 0, 86, 96
1, 734828, Control_c, 0, 64, 60
1, 734843, Control_c, 0, 64, 66
1, 734847, Note_off_c, 0, 85, 64
1, 734857, Control_c, 0, 64, 71
1, 734872, Control_c, 0, 64, 75
1, 734887, Control_c, 0, 64, 78
1, 734901, Control_c, 0, 64, 82
1, 734916, Control_c, 0, 64, 85
1, 734931, Control_c, 0, 64, 90
1, 734946, Control_c, 0, 64, 93
1, 734961, Control_c, 0, 64, 96
1, 734990, Control_c, 0, 64, 99
1, 735025, Note_on_c, 0, 84, 87
1, 735031, Note_on_c, 0, 67, 91
1, 735042, Note_on_c, 0, 58, 84
1, 735050, Control_c, 0, 64, 90
1, 735065, Control_c, 0, 64, 78
1, 735080, Control_c, 0, 64, 64
1, 735094, Control_c, 0, 64, 48
1, 735109, Control_c, 0, 64, 29
1, 735127, Note_on_c, 0, 82, 84
1, 735131, Control_c, 0, 64, 0
1, 735146, Control_c, 0, 64, 29
1, 735162, Control_c, 0, 64, 42
1, 735163, Note_off_c, 0, 86, 57
1, 735177, Control_c, 0, 64, 57
1, 735192, Control_c, 0, 64, 68
1, 735204, Note_off_c, 0, 84, 64
1, 735206, Control_c, 0, 64, 80
1, 735210, Note_on_c, 0, 81, 91
1, 735221, Control_c, 0, 64, 98
1, 735236, Control_c, 0, 64, 127
1, 735238, Note_off_c, 0, 58, 63
1, 735258, Note_off_c, 0, 82, 64
1, 735285, Note_on_c, 0, 79, 84
1, 735291, Note_off_c, 0, 81, 67
1, 735365, Note_on_c, 0, 77, 99
1, 735372, Note_on_c, 0, 69, 94
1, 735384, Control_c, 0, 64, 108
1, 735385, Note_on_c, 0, 60, 71
1, 735396, Note_off_c, 0, 79, 62
1, 735399, Control_c, 0, 64, 79
1, 735413, Control_c, 0, 64, 60
1, 735428, Control_c, 0, 64, 31
1, 735443, Control_c, 0, 64, 0
1, 735475, Note_off_c, 0, 67, 60
1, 735518, Control_c, 0, 64, 34
1, 735532, Control_c, 0, 64, 54
1, 735547, Control_c, 0, 64, 69
1, 735562, Control_c, 0, 64, 83
1, 735577, Control_c, 0, 64, 101
1, 735592, Control_c, 0, 64, 127
1, 735695, Control_c, 0, 64, 115
1, 735710, Control_c, 0, 64, 83
1, 735724, Control_c, 0, 64, 64
1, 735726, Note_on_c, 0, 70, 90
1, 735736, Note_on_c, 0, 81, 89
1, 735739, Control_c, 0, 64, 37
1, 735751, Note_on_c, 0, 76, 79
1, 735752, Note_off_c, 0, 77, 61
1, 735754, Control_c, 0, 64, 0
1, 735759, Note_off_c, 0, 69, 60
1, 735813, Control_c, 0, 64, 30
1, 735828, Control_c, 0, 64, 53
1, 735843, Note_off_c, 0, 76, 55
1, 735843, Control_c, 0, 64, 71
1, 735858, Note_off_c, 0, 60, 59
1, 735858, Control_c, 0, 64, 94
1, 735880, Control_c, 0, 64, 127
1, 735899, Note_off_c, 0, 70, 63
1, 735989, Note_on_c, 0, 79, 94
1, 736016, Note_off_c, 0, 81, 64
1, 736274, Note_on_c, 0, 77, 92
1, 736290, Note_on_c, 0, 65, 82
1, 736291, Note_on_c, 0, 71, 90
1, 736292, Note_on_c, 0, 67, 79
1, 736299, Note_on_c, 0, 62, 77
1, 736308, Note_off_c, 0, 79, 61
1, 736355, Control_c, 0, 64, 78
1, 736370, Control_c, 0, 64, 59
1, 736385, Control_c, 0, 64, 0
1, 736464, Note_on_c, 0, 76, 88
1, 736485, Note_off_c, 0, 77, 59
1, 736519, Control_c, 0, 64, 38
1, 736534, Control_c, 0, 64, 50
1, 736548, Control_c, 0, 64, 60
1, 736563, Control_c, 0, 64, 66
1, 736578, Control_c, 0, 64, 69
1, 736581, Note_on_c, 0, 79, 85
1, 736593, Control_c, 0, 64, 70
1, 736608, Control_c, 0, 64, 71
1, 736627, Note_off_c, 0, 76, 60
1, 736630, Control_c, 0, 64, 72
1, 736645, Control_c, 0, 64, 72
1, 736659, Control_c, 0, 64, 73
1, 736674, Control_c, 0, 64, 73
1, 736686, Note_on_c, 0, 77, 91
1, 736704, Control_c, 0, 64, 74
1, 736732, Note_off_c, 0, 79, 59
1, 736787, Note_on_c, 0, 81, 91
1, 736794, Control_c, 0, 64, 73
1, 736808, Control_c, 0, 64, 71
1, 736813, Note_off_c, 0, 77, 60
1, 736823, Control_c, 0, 64, 64
1, 736838, Control_c, 0, 64, 50
1, 736853, Control_c, 0, 64, 0
1, 736871, Note_on_c, 0, 79, 84
1, 736921, Note_off_c, 0, 81, 59
1, 736942, Control_c, 0, 64, 35
1, 736951, Note_on_c, 0, 77, 90
1, 736957, Control_c, 0, 64, 50
1, 736971, Control_c, 0, 64, 62
1, 736986, Control_c, 0, 64, 67
1, 736987, Note_off_c, 0, 79, 58
1, 737001, Control_c, 0, 64, 71
1, 737016, Control_c, 0, 64, 73
1, 737018, Note_on_c, 0, 76, 84
1, 737027, Note_off_c, 0, 77, 66
1, 737031, Control_c, 0, 64, 75
1, 737044, Note_off_c, 0, 71, 55
1, 737046, Control_c, 0, 64, 79
1, 737060, Control_c, 0, 64, 83
1, 737075, Control_c, 0, 64, 89
1, 737089, Note_on_c, 0, 74, 89
1, 737090, Control_c, 0, 64, 95
1, 737092, Note_off_c, 0, 76, 61
1, 737104, Control_c, 0, 64, 101
1, 737119, Control_c, 0, 64, 111
1, 737134, Control_c, 0, 64, 127
1, 737135, Note_off_c, 0, 67, 53
1, 737141, Note_off_c, 0, 62, 58
1, 737145, Note_off_c, 0, 65, 53
1, 737160, Note_on_c, 0, 72, 87
1, 737175, Note_off_c, 0, 74, 60
1, 737210, Note_off_c, 0, 72, 65
1, 737218, Note_on_c, 0, 71, 85
1, 737282, Control_c, 0, 64, 116
1, 737291, Note_on_c, 0, 74, 94
1, 737297, Control_c, 0, 64, 86
1, 737300, Note_off_c, 0, 71, 59
1, 737312, Control_c, 0, 64, 66
1, 737327, Control_c, 0, 64, 43
1, 737342, Control_c, 0, 64, 0
1, 737351, Note_on_c, 0, 79, 78
1, 737379, Note_off_c, 0, 74, 60
1, 737423, Note_on_c, 0, 77, 87
1, 737423, Control_c, 0, 64, 39
1, 737438, Control_c, 0, 64, 54
1, 737452, Control_c, 0, 64, 64
1, 737467, Control_c, 0, 64, 71
1, 737482, Control_c, 0, 64, 79
1, 737493, Note_on_c, 0, 74, 91
1, 737497, Control_c, 0, 64, 83
1, 737506, Note_off_c, 0, 79, 61
1, 737512, Control_c, 0, 64, 88
1, 737515, Note_off_c, 0, 77, 64
1, 737527, Control_c, 0, 64, 95
1, 737542, Control_c, 0, 64, 103
1, 737546, Note_off_c, 0, 74, 65
1, 737557, Control_c, 0, 64, 119
1, 737562, Note_on_c, 0, 71, 78
1, 737572, Control_c, 0, 64, 127
1, 737630, Note_on_c, 0, 70, 85
1, 737631, Note_on_c, 0, 60, 88
1, 737631, Note_on_c, 0, 58, 81
1, 737634, Note_off_c, 0, 71, 64
1, 737642, Note_on_c, 0, 52, 74
1, 737646, Note_on_c, 0, 55, 59
1, 737661, Control_c, 0, 64, 95
1, 737672, Note_on_c, 0, 53, 45
1, 737676, Control_c, 0, 64, 73
1, 737691, Control_c, 0, 64, 53
1, 737703, Note_off_c, 0, 53, 33
1, 737706, Note_on_c, 0, 69, 84
1, 737706, Control_c, 0, 64, 0
1, 737729, Note_off_c, 0, 70, 63
1, 737780, Note_on_c, 0, 72, 82
1, 737792, Note_off_c, 0, 69, 59
1, 737852, Note_on_c, 0, 70, 81
1, 737869, Note_off_c, 0, 72, 63
1, 737918, Note_on_c, 0, 74, 84
1, 737930, Note_off_c, 0, 70, 61
1, 737980, Note_on_c, 0, 72, 78
1, 738001, Control_c, 0, 67, 44
1, 738016, Control_c, 0, 67, 55
1, 738025, Note_off_c, 0, 74, 53
1, 738031, Control_c, 0, 67, 64
1, 738045, Note_on_c, 0, 70, 82
1, 738046, Control_c, 0, 67, 70
1, 738061, Control_c, 0, 67, 76
1, 738075, Control_c, 0, 67, 78
1, 738087, Note_off_c, 0, 72, 62
1, 738090, Control_c, 0, 67, 79
1, 738105, Control_c, 0, 67, 80
1, 738126, Note_on_c, 0, 69, 68
1, 738127, Control_c, 0, 67, 79
1, 738142, Control_c, 0, 64, 41
1, 738142, Control_c, 0, 67, 76
1, 738156, Control_c, 0, 64, 53
1, 738156, Control_c, 0, 67, 75
1, 738158, Note_off_c, 0, 70, 63
1, 738171, Control_c, 0, 64, 61
1, 738179, Note_on_c, 0, 67, 75
1, 738183, Note_off_c, 0, 69, 64
1, 738186, Control_c, 0, 64, 64
1, 738186, Control_c, 0, 67, 74
1, 738201, Control_c, 0, 64, 65
1, 738201, Control_c, 0, 67, 73
1, 738205, Note_off_c, 0, 67, 64
1, 738215, Control_c, 0, 67, 72
1, 738230, Control_c, 0, 67, 72
1, 738241, Note_on_c, 0, 65, 81
1, 738245, Control_c, 0, 67, 70
1, 738260, Control_c, 0, 67, 70
1, 738275, Control_c, 0, 64, 65
1, 738287, Note_off_c, 0, 65, 62
1, 738290, Control_c, 0, 64, 63
1, 738305, Control_c, 0, 64, 59
1, 738310, Note_on_c, 0, 64, 80
1, 738320, Control_c, 0, 64, 52
1, 738334, Control_c, 0, 64, 44
1, 738350, Control_c, 0, 64, 31
1, 738350, Control_c, 0, 67, 69
1, 738365, Control_c, 0, 64, 0
1, 738365, Control_c, 0, 67, 68
1, 738377, Note_on_c, 0, 67, 82
1, 738379, Note_off_c, 0, 60, 58
1, 738379, Control_c, 0, 67, 67
1, 738388, Note_off_c, 0, 64, 61
1, 738394, Control_c, 0, 67, 65
1, 738398, Note_off_c, 0, 52, 46
1, 738406, Note_off_c, 0, 58, 57
1, 738409, Control_c, 0, 67, 64
1, 738416, Note_off_c, 0, 55, 56
1, 738424, Control_c, 0, 67, 62
1, 738439, Control_c, 0, 67, 55
1, 738439, Note_on_c, 0, 72, 79
1, 738454, Control_c, 0, 67, 47
1, 738469, Note_off_c, 0, 67, 58
1, 738469, Control_c, 0, 67, 0
1, 738502, Note_on_c, 0, 70, 83
1, 738513, Control_c, 0, 64, 43
1, 738528, Control_c, 0, 64, 58
1, 738542, Control_c, 0, 64, 66
1, 738557, Control_c, 0, 64, 72
1, 738562, Note_on_c, 0, 67, 89
1, 738572, Control_c, 0, 64, 77
1, 738573, Note_off_c, 0, 72, 59
1, 738587, Control_c, 0, 64, 81
1, 738594, Note_off_c, 0, 70, 64
1, 738602, Control_c, 0, 64, 84
1, 738616, Control_c, 0, 64, 86
1, 738630, Note_on_c, 0, 64, 83
1, 738631, Control_c, 0, 64, 88
1, 738633, Note_off_c, 0, 67, 61
1, 738646, Control_c, 0, 64, 89
1, 738661, Control_c, 0, 64, 89
1, 738676, Control_c, 0, 64, 89
1, 738690, Control_c, 0, 64, 88
1, 738705, Control_c, 0, 64, 81
1, 738709, Note_on_c, 0, 45, 80
1, 738720, Control_c, 0, 64, 69
1, 738726, Note_off_c, 0, 64, 57
1, 738735, Control_c, 0, 64, 56
1, 738749, Control_c, 0, 64, 33
1, 738764, Control_c, 0, 64, 0
1, 738853, Note_on_c, 0, 67, 73
1, 738917, Note_on_c, 0, 65, 73
1, 738922, Note_off_c, 0, 67, 64
1, 738927, Note_off_c, 0, 45, 59
1, 738949, Control_c, 0, 64, 35
1, 738956, Note_on_c, 0, 64, 77
1, 738957, Note_off_c, 0, 65, 63
1, 738964, Control_c, 0, 64, 44
1, 738979, Control_c, 0, 64, 50
1, 738985, Note_off_c, 0, 64, 64
1, 738993, Control_c, 0, 64, 55
1, 739008, Control_c, 0, 64, 57
1, 739017, Note_on_c, 0, 65, 85
1, 739023, Control_c, 0, 64, 58
1, 739061, Note_off_c, 0, 65, 61
1, 739068, Control_c, 0, 64, 57
1, 739097, Control_c, 0, 64, 57
1, 739097, Control_c, 0, 67, 36
1, 739112, Control_c, 0, 67, 41
1, 739127, Control_c, 0, 67, 44
1, 739142, Control_c, 0, 67, 48
1, 739157, Note_on_c, 0, 84, 87
1, 739157, Control_c, 0, 64, 56
1, 739157, Control_c, 0, 67, 52
1, 739172, Control_c, 0, 64, 53
1, 739172, Control_c, 0, 67, 56
1, 739187, Control_c, 0, 64, 48
1, 739187, Control_c, 0, 67, 57
1, 739191, Note_off_c, 0, 84, 65
1, 739202, Control_c, 0, 64, 40
1, 739202, Control_c, 0, 67, 58
1, 739217, Control_c, 0, 64, 0
1, 739217, Control_c, 0, 67, 57
1, 739291, Control_c, 0, 67, 57
1, 739306, Control_c, 0, 67, 55
1, 739320, Control_c, 0, 67, 54
1, 739323, Note_on_c, 0, 84, 87
1, 739335, Control_c, 0, 67, 49
1, 739350, Control_c, 0, 67, 44
1, 739360, Note_off_c, 0, 84, 65
1, 739365, Control_c, 0, 67, 40
1, 739379, Control_c, 0, 67, 0
1, 739438, Control_c, 0, 64, 40
1, 739453, Control_c, 0, 64, 58
1, 739456, Note_on_c, 0, 46, 82
1, 739468, Control_c, 0, 64, 68
1, 739482, Note_off_c, 0, 46, 68
1, 739483, Control_c, 0, 64, 78
1, 739497, Control_c, 0, 64, 91
1, 739512, Control_c, 0, 64, 108
1, 739527, Control_c, 0, 64, 127
1, 739609, Note_on_c, 0, 69, 79
1, 739676, Note_on_c, 0, 67, 81
1, 739696, Note_off_c, 0, 69, 50
1, 739721, Note_on_c, 0, 66, 89
1, 739721, Note_off_c, 0, 67, 66
1, 739758, Control_c, 0, 64, 109
1, 739772, Control_c, 0, 64, 96
1, 739774, Note_off_c, 0, 66, 62
1, 739787, Control_c, 0, 64, 88
1, 739792, Note_on_c, 0, 67, 88
1, 739802, Control_c, 0, 64, 81
1, 739817, Control_c, 0, 64, 75
1, 739824, Note_off_c, 0, 67, 64
1, 739832, Control_c, 0, 64, 69
1, 739846, Control_c, 0, 64, 63
1, 739861, Control_c, 0, 64, 59
1, 739876, Control_c, 0, 64, 56
1, 739891, Control_c, 0, 64, 53
1, 739906, Control_c, 0, 64, 52
1, 739921, Control_c, 0, 64, 50
1, 739927, Note_on_c, 0, 86, 80
1, 739935, Control_c, 0, 64, 47
1, 739951, Control_c, 0, 64, 43
1, 739966, Control_c, 0, 64, 37
1, 739977, Note_off_c, 0, 86, 65
1, 739981, Control_c, 0, 64, 0
1, 740105, Note_on_c, 0, 86, 87
1, 740150, Note_off_c, 0, 86, 66
1, 740248, Control_c, 0, 64, 35
1, 740262, Control_c, 0, 64, 50
1, 740277, Control_c, 0, 64, 61
1, 740292, Control_c, 0, 64, 67
1, 740293, Note_on_c, 0, 84, 90
1, 740305, Note_on_c, 0, 60, 68
1, 740307, Control_c, 0, 64, 72
1, 740321, Control_c, 0, 64, 77
1, 740336, Control_c, 0, 64, 84
1, 740339, Note_off_c, 0, 84, 67
1, 740351, Control_c, 0, 64, 92
1, 740374, Control_c, 0, 64, 102
1, 740389, Control_c, 0, 64, 127
1, 740644, Note_on_c, 0, 72, 91
1, 740669, Control_c, 0, 64, 102
1, 740684, Control_c, 0, 64, 80
1, 740691, Note_on_c, 0, 69, 62
1, 740699, Control_c, 0, 64, 66
1, 740713, Control_c, 0, 64, 53
1, 740728, Control_c, 0, 64, 44
1, 740743, Control_c, 0, 64, 42
1, 740758, Control_c, 0, 64, 46
1, 740773, Control_c, 0, 64, 54
1, 740788, Control_c, 0, 64, 62
1, 740803, Control_c, 0, 64, 69
1, 740818, Control_c, 0, 64, 80
1, 740833, Control_c, 0, 64, 97
1, 740848, Control_c, 0, 64, 127
1, 741008, Note_on_c, 0, 70, 88
1, 741025, Control_c, 0, 64, 108
1, 741034, Note_off_c, 0, 69, 59
1, 741040, Control_c, 0, 64, 83
1, 741055, Control_c, 0, 64, 65
1, 741070, Control_c, 0, 64, 52
1, 741085, Control_c, 0, 64, 43
1, 741099, Control_c, 0, 64, 42
1, 741122, Control_c, 0, 64, 49
1, 741137, Control_c, 0, 64, 61
1, 741151, Control_c, 0, 64, 72
1, 741166, Control_c, 0, 64, 101
1, 741181, Control_c, 0, 64, 127
1, 741196, Note_off_c, 0, 72, 51
1, 741223, Note_on_c, 0, 74, 75
1, 741298, Note_on_c, 0, 72, 74
1, 741301, Note_off_c, 0, 74, 62
1, 741330, Note_off_c, 0, 72, 62
1, 741335, Note_on_c, 0, 71, 84
1, 741404, Note_on_c, 0, 72, 84
1, 741436, Note_off_c, 0, 71, 59
1, 741447, Control_c, 0, 64, 94
1, 741462, Control_c, 0, 64, 73
1, 741477, Control_c, 0, 64, 60
1, 741480, Note_on_c, 0, 61, 76
1, 741483, Note_on_c, 0, 74, 90
1, 741491, Control_c, 0, 64, 41
1, 741506, Control_c, 0, 64, 0
1, 741536, Note_off_c, 0, 72, 59
1, 741574, Note_off_c, 0, 60, 36
1, 741596, Control_c, 0, 64, 44
1, 741611, Control_c, 0, 64, 60
1, 741626, Control_c, 0, 64, 70
1, 741641, Control_c, 0, 64, 81
1, 741655, Control_c, 0, 64, 93
1, 741670, Control_c, 0, 64, 110
1, 741685, Control_c, 0, 64, 127
1, 741727, Note_off_c, 0, 74, 62
1, 741748, Note_on_c, 0, 76, 83
1, 741769, Note_on_c, 0, 74, 51
1, 741788, Note_off_c, 0, 70, 59
1, 741799, Note_off_c, 0, 74, 53
1, 741815, Note_off_c, 0, 76, 63
1, 741835, Note_off_c, 0, 61, 59
1, 742043, Note_on_c, 0, 77, 95
1, 742050, Note_on_c, 0, 71, 85
1, 742058, Note_on_c, 0, 67, 74
1, 742061, Note_on_c, 0, 65, 70
1, 742073, Note_on_c, 0, 62, 67
1, 742122, Control_c, 0, 64, 115
1, 742137, Control_c, 0, 64, 81
1, 742152, Control_c, 0, 64, 62
1, 742166, Control_c, 0, 64, 34
1, 742181, Control_c, 0, 64, 0
1, 742199, Note_on_c, 0, 76, 88
1, 742230, Note_off_c, 0, 77, 61
1, 742306, Note_on_c, 0, 79, 84
1, 742329, Control_c, 0, 64, 34
1, 742341, Note_off_c, 0, 76, 60
1, 742345, Control_c, 0, 64, 48
1, 742360, Control_c, 0, 64, 59
1, 742375, Control_c, 0, 64, 64
1, 742389, Control_c, 0, 64, 66
1, 742399, Note_on_c, 0, 77, 92
1, 742404, Control_c, 0, 64, 65
1, 742419, Control_c, 0, 64, 62
1, 742434, Control_c, 0, 64, 52
1, 742442, Note_off_c, 0, 79, 61
1, 742449, Control_c, 0, 64, 37
1, 742463, Control_c, 0, 64, 0
1, 742494, Note_on_c, 0, 81, 89
1, 742520, Note_off_c, 0, 77, 61
1, 742574, Note_on_c, 0, 79, 81
1, 742582, Control_c, 0, 64, 30
1, 742597, Control_c, 0, 64, 43
1, 742619, Control_c, 0, 64, 58
1, 742630, Note_off_c, 0, 81, 60
1, 742634, Control_c, 0, 64, 66
1, 742650, Control_c, 0, 64, 72
1, 742654, Note_on_c, 0, 77, 85
1, 742665, Control_c, 0, 64, 77
1, 742679, Control_c, 0, 64, 81
1, 742694, Control_c, 0, 64, 85
1, 742696, Note_off_c, 0, 79, 61
1, 742706, Note_off_c, 0, 71, 60
1, 742709, Control_c, 0, 64, 90
1, 742714, Note_off_c, 0, 65, 56
1, 742721, Note_on_c, 0, 76, 85
1, 742723, Control_c, 0, 64, 94
1, 742730, Note_off_c, 0, 77, 65
1, 742737, Note_off_c, 0, 62, 58
1, 742738, Control_c, 0, 64, 97
1, 742768, Control_c, 0, 64, 99
1, 742774, Note_off_c, 0, 67, 30
1, 742792, Note_on_c, 0, 74, 88
1, 742792, Note_off_c, 0, 76, 61
1, 742827, Control_c, 0, 64, 94
1, 742842, Control_c, 0, 64, 83
1, 742857, Control_c, 0, 64, 68
1, 742860, Note_on_c, 0, 72, 88
1, 742872, Control_c, 0, 64, 51
1, 742878, Note_off_c, 0, 74, 61
1, 742887, Control_c, 0, 64, 0
1, 742916, Note_off_c, 0, 72, 65
1, 742919, Note_on_c, 0, 71, 85
1, 742961, Control_c, 0, 64, 39
1, 742976, Control_c, 0, 64, 55
1, 742990, Control_c, 0, 64, 66
1, 742997, Note_on_c, 0, 74, 92
1, 743005, Control_c, 0, 64, 73
1, 743006, Note_off_c, 0, 71, 59
1, 743020, Control_c, 0, 64, 79
1, 743035, Control_c, 0, 64, 82
1, 743049, Control_c, 0, 64, 84
1, 743055, Note_on_c, 0, 79, 79
1, 743064, Control_c, 0, 64, 88
1, 743077, Note_off_c, 0, 74, 60
1, 743079, Control_c, 0, 64, 92
1, 743094, Control_c, 0, 64, 99
1, 743109, Control_c, 0, 64, 108
1, 743122, Note_on_c, 0, 77, 88
1, 743123, Control_c, 0, 64, 127
1, 743194, Note_on_c, 0, 74, 88
1, 743205, Note_off_c, 0, 79, 63
1, 743211, Note_off_c, 0, 77, 63
1, 743250, Note_off_c, 0, 74, 63
1, 743261, Note_on_c, 0, 71, 82
1, 743322, Note_on_c, 0, 60, 86
1, 743327, Note_on_c, 0, 58, 81
1, 743328, Note_on_c, 0, 55, 78
1, 743328, Note_on_c, 0, 52, 79
1, 743334, Note_on_c, 0, 70, 82
1, 743340, Note_off_c, 0, 71, 60
1, 743346, Control_c, 0, 64, 90
1, 743369, Control_c, 0, 64, 66
1, 743384, Control_c, 0, 64, 45
1, 743399, Control_c, 0, 64, 0
1, 743408, Note_on_c, 0, 69, 84
1, 743428, Control_c, 0, 64, 30
1, 743429, Note_off_c, 0, 70, 64
1, 743443, Control_c, 0, 64, 53
1, 743458, Control_c, 0, 64, 68
1, 743472, Control_c, 0, 64, 86
1, 743483, Note_on_c, 0, 72, 81
1, 743487, Control_c, 0, 64, 127
1, 743495, Note_off_c, 0, 69, 59
1, 743551, Note_on_c, 0, 70, 82
1, 743561, Control_c, 0, 64, 90
1, 743574, Note_off_c, 0, 72, 59
1, 743576, Control_c, 0, 64, 66
1, 743591, Control_c, 0, 64, 44
1, 743606, Control_c, 0, 64, 0
1, 743620, Note_on_c, 0, 74, 82
1, 743627, Note_off_c, 0, 70, 61
1, 743635, Control_c, 0, 64, 32
1, 743650, Control_c, 0, 64, 53
1, 743665, Control_c, 0, 64, 67
1, 743679, Control_c, 0, 64, 68
1, 743684, Note_on_c, 0, 72, 81
1, 743694, Control_c, 0, 64, 61
1, 743709, Control_c, 0, 64, 32
1, 743723, Note_off_c, 0, 74, 58
1, 743724, Control_c, 0, 64, 0
1, 743748, Note_on_c, 0, 70, 81
1, 743754, Control_c, 0, 64, 48
1, 743769, Control_c, 0, 64, 66
1, 743784, Control_c, 0, 64, 73
1, 743790, Note_off_c, 0, 72, 63
1, 743813, Control_c, 0, 64, 71
1, 743820, Note_on_c, 0, 69, 82
1, 743852, Note_off_c, 0, 70, 64
1, 743858, Control_c, 0, 64, 72
1, 743872, Control_c, 0, 64, 71
1, 743876, Note_off_c, 0, 69, 62
1, 743877, Note_on_c, 0, 67, 79
1, 743887, Control_c, 0, 64, 64
1, 743901, Note_off_c, 0, 67, 66
1, 743902, Control_c, 0, 64, 51
1, 743917, Control_c, 0, 64, 36
1, 743933, Control_c, 0, 64, 37
1, 743942, Note_on_c, 0, 65, 83
1, 743948, Control_c, 0, 64, 45
1, 743962, Control_c, 0, 64, 56
1, 743977, Control_c, 0, 64, 67
1, 743987, Note_off_c, 0, 65, 62
1, 743992, Control_c, 0, 64, 78
1, 744007, Control_c, 0, 64, 82
1, 744009, Note_on_c, 0, 64, 82
1, 744022, Control_c, 0, 64, 70
1, 744036, Control_c, 0, 64, 50
1, 744051, Control_c, 0, 64, 0
1, 744076, Note_on_c, 0, 67, 83
1, 744091, Note_off_c, 0, 64, 61
1, 744102, Note_off_c, 0, 60, 60
1, 744126, Note_off_c, 0, 58, 61
1, 744128, Note_off_c, 0, 52, 58
1, 744133, Control_c, 0, 64, 41
1, 744144, Note_off_c, 0, 55, 60
1, 744147, Control_c, 0, 64, 59
1, 744150, Note_on_c, 0, 72, 86
1, 744162, Control_c, 0, 64, 67
1, 744181, Note_off_c, 0, 67, 62
1, 744192, Control_c, 0, 64, 63
1, 744207, Control_c, 0, 64, 58
1, 744216, Note_on_c, 0, 70, 86
1, 744222, Control_c, 0, 64, 60
1, 744236, Control_c, 0, 64, 64
1, 744251, Control_c, 0, 64, 71
1, 744266, Control_c, 0, 64, 81
1, 744281, Control_c, 0, 64, 103
1, 744285, Note_on_c, 0, 67, 90
1, 744289, Note_off_c, 0, 72, 62
1, 744295, Control_c, 0, 64, 127
1, 744311, Note_off_c, 0, 70, 64
1, 744329, Note_off_c, 0, 67, 66
1, 744354, Note_on_c, 0, 64, 85
1, 744422, Note_off_c, 0, 64, 60
1, 744466, Note_on_c, 0, 65, 92
1, 744475, Note_on_c, 0, 57, 82
1, 744484, Note_on_c, 0, 51, 81
1, 744487, Control_c, 0, 64, 85
1, 744502, Control_c, 0, 64, 64
1, 744517, Control_c, 0, 64, 41
1, 744532, Control_c, 0, 64, 0
1, 744562, Control_c, 0, 64, 31
1, 744577, Control_c, 0, 64, 48
1, 744592, Control_c, 0, 64, 62
1, 744598, Note_on_c, 0, 50, 75
1, 744607, Control_c, 0, 64, 69
1, 744611, Note_off_c, 0, 51, 61
1, 744621, Control_c, 0, 64, 72
1, 744651, Control_c, 0, 64, 72
1, 744666, Control_c, 0, 64, 69
1, 744681, Control_c, 0, 64, 66
1, 744683, Note_on_c, 0, 53, 83
1, 744687, Note_off_c, 0, 50, 63
1, 744695, Control_c, 0, 64, 61
1, 744710, Control_c, 0, 64, 56
1, 744725, Control_c, 0, 64, 52
1, 744741, Control_c, 0, 64, 52
1, 744763, Note_on_c, 0, 51, 84
1, 744769, Note_off_c, 0, 53, 63
1, 744827, Note_on_c, 0, 55, 70
1, 744830, Note_off_c, 0, 51, 63
1, 744845, Control_c, 0, 64, 51
1, 744896, Control_c, 0, 64, 51
1, 744900, Note_on_c, 0, 53, 75
1, 744910, Control_c, 0, 64, 50
1, 744913, Note_off_c, 0, 55, 63
1, 744925, Control_c, 0, 64, 50
1, 744940, Control_c, 0, 64, 48
1, 744955, Control_c, 0, 64, 47
1, 744968, Note_off_c, 0, 53, 60
1, 744970, Control_c, 0, 64, 45
1, 744972, Note_on_c, 0, 51, 76
1, 744984, Control_c, 0, 64, 44
1, 744999, Control_c, 0, 64, 43
1, 745011, Note_off_c, 0, 51, 63
1, 745036, Note_on_c, 0, 50, 87
1, 745103, Note_off_c, 0, 50, 64
1, 745103, Control_c, 0, 64, 44
1, 745104, Note_on_c, 0, 48, 80
1, 745147, Control_c, 0, 64, 44
1, 745162, Control_c, 0, 64, 45
1, 745163, Note_on_c, 0, 46, 77
1, 745169, Note_off_c, 0, 48, 64
1, 745177, Control_c, 0, 64, 46
1, 745191, Control_c, 0, 64, 47
1, 745206, Note_off_c, 0, 46, 60
1, 745206, Control_c, 0, 64, 49
1, 745221, Control_c, 0, 64, 50
1, 745233, Note_on_c, 0, 45, 84
1, 745236, Control_c, 0, 64, 51
1, 745250, Control_c, 0, 64, 50
1, 745265, Control_c, 0, 64, 48
1, 745280, Control_c, 0, 64, 44
1, 745292, Note_off_c, 0, 45, 63
1, 745293, Note_on_c, 0, 43, 80
1, 745295, Control_c, 0, 64, 34
1, 745310, Control_c, 0, 64, 0
1, 745352, Note_on_c, 0, 41, 80
1, 745355, Control_c, 0, 64, 34
1, 745370, Control_c, 0, 64, 48
1, 745376, Note_off_c, 0, 43, 61
1, 745384, Control_c, 0, 64, 61
1, 745392, Note_off_c, 0, 57, 61
1, 745399, Control_c, 0, 64, 69
1, 745405, Note_off_c, 0, 65, 64
1, 745414, Control_c, 0, 64, 79
1, 745422, Note_on_c, 0, 40, 76
1, 745429, Control_c, 0, 64, 92
1, 745432, Note_off_c, 0, 41, 62
1, 745443, Control_c, 0, 64, 115
1, 745458, Control_c, 0, 64, 127
1, 745488, Note_off_c, 0, 40, 60
1, 745492, Note_on_c, 0, 41, 81
1, 745566, Note_on_c, 0, 39, 88
1, 745578, Note_off_c, 0, 41, 65
1, 745578, Control_c, 0, 64, 113
1, 745593, Control_c, 0, 64, 73
1, 745614, Control_c, 0, 64, 49
1, 745629, Control_c, 0, 64, 0
1, 745646, Note_on_c, 0, 38, 87
1, 745674, Note_off_c, 0, 39, 63
1, 745698, Note_on_c, 0, 58, 79
1, 745763, Note_off_c, 0, 58, 62
1, 745775, Note_on_c, 0, 60, 78
1, 745778, Control_c, 0, 64, 32
1, 745793, Control_c, 0, 64, 44
1, 745808, Control_c, 0, 64, 55
1, 745823, Control_c, 0, 64, 63
1, 745838, Control_c, 0, 64, 67
1, 745844, Note_on_c, 0, 62, 83
1, 745845, Note_off_c, 0, 60, 60
1, 745853, Control_c, 0, 64, 69
1, 745867, Control_c, 0, 64, 71
1, 745882, Control_c, 0, 64, 73
1, 745897, Control_c, 0, 64, 77
1, 745903, Note_on_c, 0, 63, 90
1, 745906, Note_off_c, 0, 62, 61
1, 745912, Control_c, 0, 64, 82
1, 745927, Control_c, 0, 64, 89
1, 745936, Note_off_c, 0, 38, 62
1, 745941, Note_off_c, 0, 63, 67
1, 745941, Control_c, 0, 64, 95
1, 745956, Control_c, 0, 64, 100
1, 745965, Note_on_c, 0, 65, 86
1, 745971, Control_c, 0, 64, 105
1, 745986, Control_c, 0, 64, 109
1, 746001, Control_c, 0, 64, 111
1, 746030, Note_on_c, 0, 67, 94
1, 746041, Note_off_c, 0, 65, 61
1, 746089, Control_c, 0, 64, 104
1, 746090, Note_on_c, 0, 69, 88
1, 746104, Control_c, 0, 64, 93
1, 746113, Note_off_c, 0, 67, 64
1, 746119, Control_c, 0, 64, 84
1, 746133, Control_c, 0, 64, 76
1, 746148, Note_on_c, 0, 70, 88
1, 746148, Control_c, 0, 64, 66
1, 746163, Control_c, 0, 64, 53
1, 746167, Note_off_c, 0, 69, 62
1, 746178, Control_c, 0, 64, 39
1, 746186, Note_off_c, 0, 70, 67
1, 746193, Control_c, 0, 64, 0
1, 746213, Note_on_c, 0, 72, 94
1, 746252, Control_c, 0, 64, 33
1, 746267, Control_c, 0, 64, 48
1, 746282, Control_c, 0, 64, 60
1, 746283, Note_on_c, 0, 74, 97
1, 746294, Note_off_c, 0, 72, 62
1, 746297, Control_c, 0, 64, 65
1, 746312, Control_c, 0, 64, 65
1, 746327, Control_c, 0, 64, 65
1, 746338, Note_off_c, 0, 74, 62
1, 746342, Note_on_c, 0, 75, 90
1, 746342, Control_c, 0, 64, 63
1, 746364, Control_c, 0, 64, 61
1, 746374, Note_off_c, 0, 75, 67
1, 746379, Control_c, 0, 64, 59
1, 746394, Control_c, 0, 64, 60
1, 746406, Note_on_c, 0, 77, 92
1, 746409, Control_c, 0, 64, 61
1, 746424, Control_c, 0, 64, 64
1, 746438, Control_c, 0, 64, 67
1, 746453, Control_c, 0, 64, 71
1, 746466, Note_on_c, 0, 79, 90
1, 746468, Control_c, 0, 64, 76
1, 746483, Control_c, 0, 64, 79
1, 746485, Note_off_c, 0, 77, 63
1, 746497, Control_c, 0, 64, 83
1, 746512, Control_c, 0, 64, 90
1, 746527, Note_on_c, 0, 81, 95
1, 746527, Control_c, 0, 64, 105
1, 746542, Control_c, 0, 64, 127
1, 746576, Note_off_c, 0, 79, 64
1, 746585, Note_on_c, 0, 82, 100
1, 746598, Note_off_c, 0, 81, 68
1, 746619, Note_off_c, 0, 82, 69
1, 746645, Control_c, 0, 64, 113
1, 746660, Control_c, 0, 64, 63
1, 746672, Note_on_c, 0, 59, 93
1, 746675, Note_on_c, 0, 53, 81
1, 746675, Control_c, 0, 64, 0
1, 746682, Note_on_c, 0, 49, 84
1, 746831, Note_on_c, 0, 65, 92
1, 746878, Note_off_c, 0, 65, 61
1, 746968, Note_off_c, 0, 59, 64
1, 746973, Note_off_c, 0, 53, 64
1, 746976, Note_on_c, 0, 68, 92
1, 746985, Note_off_c, 0, 49, 64
1, 747000, Control_c, 0, 64, 31
1, 747015, Control_c, 0, 64, 32
1, 747030, Control_c, 0, 64, 34
1, 747032, Note_off_c, 0, 68, 64
1, 747045, Control_c, 0, 64, 40
1, 747060, Control_c, 0, 64, 47
1, 747075, Control_c, 0, 64, 53
1, 747090, Control_c, 0, 64, 56
1, 747112, Control_c, 0, 64, 56
1, 747119, Note_on_c, 0, 71, 90
1, 747127, Control_c, 0, 64, 57
1, 747158, Control_c, 0, 64, 57
1, 747164, Note_off_c, 0, 71, 64
1, 747187, Control_c, 0, 64, 57
1, 747232, Control_c, 0, 64, 56
1, 747247, Control_c, 0, 64, 56
1, 747261, Control_c, 0, 64, 55
1, 747276, Control_c, 0, 64, 55
1, 747284, Note_on_c, 0, 77, 87
1, 747290, Note_on_c, 0, 79, 78
1, 747291, Control_c, 0, 64, 54
1, 747313, Note_off_c, 0, 79, 56
1, 747328, Note_off_c, 0, 77, 63
1, 747350, Control_c, 0, 64, 55
1, 747365, Control_c, 0, 64, 55
1, 747394, Control_c, 0, 64, 56
1, 747409, Control_c, 0, 64, 57
1, 747448, Note_on_c, 0, 80, 95
1, 747468, Control_c, 0, 64, 56
1, 747535, Note_off_c, 0, 80, 61
1, 747558, Control_c, 0, 64, 56
1, 747573, Control_c, 0, 64, 55
1, 747587, Control_c, 0, 64, 55
1, 747617, Control_c, 0, 64, 55
1, 747635, Note_on_c, 0, 83, 92
1, 747661, Control_c, 0, 64, 56
1, 747735, Control_c, 0, 64, 55
1, 747754, Poly_aftertouch_c, 0, 85, 0
1, 747765, Control_c, 0, 64, 55
1, 747874, Note_off_c, 0, 83, 23
1, 747876, Control_c, 0, 64, 55
1, 747891, Control_c, 0, 64, 55
1, 747903, Note_on_c, 0, 89, 89
1, 747905, Control_c, 0, 64, 50
1, 747920, Control_c, 0, 64, 0
1, 748264, Note_off_c, 0, 89, 69
1, 748276, Control_c, 0, 67, 41
1, 748281, Note_on_c, 0, 36, 58
1, 748291, Control_c, 0, 67, 110
1, 748306, Control_c, 0, 67, 127
1, 748947, Note_on_c, 0, 48, 70
1, 748949, Note_on_c, 0, 41, 55
1, 749018, Note_off_c, 0, 36, 46
1, 749609, Note_on_c, 0, 55, 61
1, 749764, Note_on_c, 0, 40, 50
1, 749775, Note_off_c, 0, 41, 63
1, 749793, Note_off_c, 0, 40, 50
1, 749916, Note_on_c, 0, 40, 46
1, 750073, Note_off_c, 0, 40, 62
1, 750076, Note_on_c, 0, 36, 49
1, 750116, Note_off_c, 0, 36, 49
1, 750247, Note_on_c, 0, 45, 63
1, 750402, Note_on_c, 0, 53, 64
1, 750428, Note_off_c, 0, 53, 66
1, 750431, Note_off_c, 0, 48, 63
1, 750440, Note_off_c, 0, 55, 63
1, 750550, Note_on_c, 0, 53, 51
1, 750702, Note_on_c, 0, 48, 71
1, 750702, Note_off_c, 0, 53, 63
1, 750728, Note_off_c, 0, 48, 66
1, 750862, Note_on_c, 0, 58, 76
1, 751010, Note_on_c, 0, 43, 63
1, 751019, Note_off_c, 0, 45, 63
1, 751040, Note_off_c, 0, 43, 64
1, 751167, Note_on_c, 0, 43, 51
1, 751304, Note_on_c, 0, 36, 64
1, 751308, Note_off_c, 0, 43, 60
1, 751334, Note_off_c, 0, 36, 64
1, 751459, Note_on_c, 0, 60, 87
1, 751476, Note_on_c, 0, 41, 65
1, 751494, Control_c, 0, 64, 40
1, 751509, Control_c, 0, 64, 49
1, 751524, Control_c, 0, 64, 52
1, 751539, Control_c, 0, 64, 52
1, 751568, Control_c, 0, 64, 52
1, 751583, Control_c, 0, 64, 51
1, 751605, Control_c, 0, 64, 50
1, 751610, Note_on_c, 0, 57, 64
1, 751620, Control_c, 0, 64, 48
1, 751633, Control_c, 0, 64, 44
1, 751640, Note_off_c, 0, 57, 65
1, 751646, Note_off_c, 0, 58, 62
1, 751648, Control_c, 0, 64, 33
1, 751663, Control_c, 0, 64, 0
1, 751791, Note_on_c, 0, 57, 45
1, 751794, Note_on_c, 0, 40, 44
1, 751794, Note_off_c, 0, 41, 61
1, 751796, Control_c, 0, 64, 37
1, 751811, Control_c, 0, 64, 46
1, 751826, Control_c, 0, 64, 53
1, 751841, Control_c, 0, 64, 56
1, 751856, Control_c, 0, 64, 56
1, 751871, Control_c, 0, 64, 57
1, 751929, Note_off_c, 0, 57, 58
1, 751931, Control_c, 0, 64, 56
1, 751945, Note_on_c, 0, 55, 62
1, 751946, Control_c, 0, 64, 55
1, 751960, Control_c, 0, 64, 51
1, 751974, Note_off_c, 0, 55, 65
1, 751975, Control_c, 0, 64, 38
1, 751990, Control_c, 0, 64, 0
1, 752095, Note_on_c, 0, 65, 86
1, 752108, Control_c, 0, 67, 97
1, 752109, Note_on_c, 0, 57, 67
1, 752123, Control_c, 0, 67, 68
1, 752138, Control_c, 0, 64, 39
1, 752138, Control_c, 0, 67, 41
1, 752153, Control_c, 0, 64, 50
1, 752153, Control_c, 0, 67, 0
1, 752168, Control_c, 0, 64, 58
1, 752182, Control_c, 0, 64, 62
1, 752197, Control_c, 0, 64, 63
1, 752236, Note_off_c, 0, 60, 62
1, 752237, Note_off_c, 0, 57, 64
1, 752256, Note_on_c, 0, 38, 74
1, 752256, Control_c, 0, 64, 62
1, 752270, Note_off_c, 0, 40, 57
1, 752271, Control_c, 0, 64, 56
1, 752281, Note_off_c, 0, 38, 65
1, 752286, Control_c, 0, 64, 36
1, 752300, Control_c, 0, 64, 0
1, 752414, Note_on_c, 0, 38, 58
1, 752419, Note_on_c, 0, 59, 70
1, 752457, Control_c, 0, 64, 33
1, 752472, Control_c, 0, 64, 46
1, 752487, Control_c, 0, 64, 57
1, 752501, Control_c, 0, 64, 60
1, 752516, Control_c, 0, 64, 61
1, 752531, Control_c, 0, 64, 63
1, 752546, Control_c, 0, 64, 65
1, 752555, Note_off_c, 0, 38, 60
1, 752561, Control_c, 0, 64, 67
1, 752562, Note_on_c, 0, 43, 72
1, 752566, Note_off_c, 0, 59, 64
1, 752575, Control_c, 0, 64, 70
1, 752589, Note_off_c, 0, 43, 65
1, 752590, Control_c, 0, 64, 72
1, 752634, Control_c, 0, 64, 70
1, 752649, Control_c, 0, 64, 63
1, 752664, Control_c, 0, 64, 50
1, 752679, Control_c, 0, 64, 0
1, 752724, Note_on_c, 0, 70, 88
1, 752732, Note_on_c, 0, 36, 69
1, 752738, Note_on_c, 0, 60, 70
1, 752747, Note_off_c, 0, 65, 54
1, 752784, Control_c, 0, 64, 29
1, 752798, Control_c, 0, 64, 51
1, 752813, Control_c, 0, 64, 63
1, 752822, Note_off_c, 0, 60, 58
1, 752828, Control_c, 0, 64, 68
1, 752843, Control_c, 0, 64, 72
1, 752858, Control_c, 0, 64, 74
1, 752883, Note_on_c, 0, 64, 72
1, 752887, Control_c, 0, 64, 73
1, 752902, Control_c, 0, 64, 65
1, 752909, Note_off_c, 0, 64, 68
1, 752917, Control_c, 0, 64, 50
1, 752932, Control_c, 0, 64, 0
1, 753036, Control_c, 0, 64, 47
1, 753037, Note_on_c, 0, 64, 64
1, 753042, Note_on_c, 0, 48, 83
1, 753050, Control_c, 0, 64, 62
1, 753060, Note_off_c, 0, 36, 62
1, 753065, Control_c, 0, 64, 69
1, 753074, Note_off_c, 0, 48, 67
1, 753080, Control_c, 0, 64, 76
1, 753102, Control_c, 0, 64, 87
1, 753117, Control_c, 0, 64, 101
1, 753132, Control_c, 0, 64, 127
1, 753150, Note_off_c, 0, 64, 63
1, 753198, Note_on_c, 0, 60, 75
1, 753231, Note_off_c, 0, 60, 60
1, 753324, Control_c, 0, 64, 86
1, 753339, Control_c, 0, 64, 64
1, 753352, Note_on_c, 0, 75, 87
1, 753354, Control_c, 0, 64, 40
1, 753366, Note_on_c, 0, 60, 61
1, 753369, Control_c, 0, 64, 0
1, 753372, Note_on_c, 0, 53, 51
1, 753428, Control_c, 0, 64, 44
1, 753443, Control_c, 0, 64, 59
1, 753446, Note_off_c, 0, 70, 61
1, 753457, Control_c, 0, 64, 67
1, 753472, Control_c, 0, 64, 72
1, 753487, Control_c, 0, 64, 73
1, 753502, Control_c, 0, 64, 73
1, 753503, Note_on_c, 0, 69, 65
1, 753518, Control_c, 0, 64, 70
1, 753532, Note_off_c, 0, 69, 67
1, 753533, Control_c, 0, 64, 66
1, 753547, Control_c, 0, 64, 62
1, 753562, Control_c, 0, 64, 56
1, 753577, Control_c, 0, 64, 50
1, 753592, Control_c, 0, 64, 46
1, 753607, Control_c, 0, 64, 45
1, 753621, Control_c, 0, 64, 47
1, 753636, Control_c, 0, 64, 53
1, 753651, Control_c, 0, 64, 61
1, 753655, Note_on_c, 0, 69, 69
1, 753666, Control_c, 0, 64, 71
1, 753680, Control_c, 0, 64, 84
1, 753695, Control_c, 0, 64, 117
1, 753710, Control_c, 0, 64, 127
1, 753744, Note_off_c, 0, 60, 62
1, 753761, Note_off_c, 0, 53, 63
1, 753777, Note_off_c, 0, 69, 60
1, 753808, Note_on_c, 0, 65, 80
1, 753853, Note_off_c, 0, 65, 59
1, 753955, Control_c, 0, 64, 75
1, 753967, Note_on_c, 0, 77, 93
1, 753970, Control_c, 0, 64, 56
1, 753976, Note_on_c, 0, 58, 75
1, 753978, Note_on_c, 0, 65, 80
1, 753984, Control_c, 0, 64, 37
1, 753988, Note_on_c, 0, 46, 65
1, 753999, Control_c, 0, 64, 0
1, 754029, Control_c, 0, 64, 36
1, 754044, Control_c, 0, 64, 52
1, 754050, Note_off_c, 0, 75, 59
1, 754059, Control_c, 0, 64, 66
1, 754073, Control_c, 0, 64, 84
1, 754088, Control_c, 0, 64, 127
1, 754098, Note_off_c, 0, 58, 51
1, 754108, Note_off_c, 0, 65, 50
1, 754118, Note_on_c, 0, 74, 82
1, 754148, Note_off_c, 0, 74, 63
1, 754206, Control_c, 0, 64, 88
1, 754221, Control_c, 0, 64, 61
1, 754236, Control_c, 0, 64, 41
1, 754251, Control_c, 0, 64, 35
1, 754266, Control_c, 0, 64, 38
1, 754268, Note_on_c, 0, 57, 67
1, 754272, Note_on_c, 0, 53, 63
1, 754272, Note_on_c, 0, 74, 83
1, 754280, Control_c, 0, 64, 48
1, 754295, Control_c, 0, 64, 60
1, 754310, Control_c, 0, 64, 70
1, 754326, Control_c, 0, 64, 90
1, 754336, Note_off_c, 0, 53, 63
1, 754341, Control_c, 0, 64, 127
1, 754343, Note_off_c, 0, 46, 61
1, 754356, Note_off_c, 0, 57, 64
1, 754387, Note_off_c, 0, 74, 65
1, 754424, Note_on_c, 0, 72, 70
1, 754451, Note_off_c, 0, 72, 62
1, 754572, Note_on_c, 0, 82, 98
1, 754578, Note_on_c, 0, 58, 83
1, 754578, Control_c, 0, 64, 104
1, 754582, Note_on_c, 0, 55, 76
1, 754594, Note_on_c, 0, 72, 78
1, 754600, Control_c, 0, 64, 69
1, 754607, Note_off_c, 0, 77, 61
1, 754615, Control_c, 0, 64, 41
1, 754629, Control_c, 0, 64, 0
1, 754674, Note_off_c, 0, 72, 60
1, 754689, Control_c, 0, 64, 30
1, 754703, Control_c, 0, 64, 45
1, 754718, Control_c, 0, 64, 57
1, 754732, Note_on_c, 0, 76, 82
1, 754733, Control_c, 0, 64, 68
1, 754748, Control_c, 0, 64, 79
1, 754763, Control_c, 0, 64, 105
1, 754774, Note_off_c, 0, 76, 65
1, 754777, Control_c, 0, 64, 127
1, 754882, Note_on_c, 0, 76, 87
1, 754990, Note_off_c, 0, 76, 61
1, 755023, Note_on_c, 0, 72, 81
1, 755045, Note_off_c, 0, 72, 66
1, 755116, Note_off_c, 0, 58, 52
1, 755167, Note_on_c, 0, 84, 96
1, 755168, Note_on_c, 0, 60, 84
1, 755171, Note_off_c, 0, 55, 61
1, 755174, Note_on_c, 0, 53, 77
1, 755177, Note_on_c, 0, 77, 86
1, 755179, Control_c, 0, 64, 86
1, 755193, Control_c, 0, 64, 61
1, 755208, Control_c, 0, 64, 34
1, 755223, Control_c, 0, 64, 0
1, 755236, Note_off_c, 0, 82, 57
1, 755252, Control_c, 0, 64, 48
1, 755267, Control_c, 0, 64, 68
1, 755282, Control_c, 0, 64, 103
1, 755287, Note_off_c, 0, 60, 60
1, 755297, Control_c, 0, 64, 127
1, 755311, Note_on_c, 0, 81, 80
1, 755318, Note_off_c, 0, 77, 59
1, 755358, Note_off_c, 0, 81, 61
1, 755438, Control_c, 0, 64, 87
1, 755452, Control_c, 0, 64, 63
1, 755467, Control_c, 0, 64, 51
1, 755469, Note_on_c, 0, 64, 85
1, 755473, Note_on_c, 0, 81, 88
1, 755474, Note_on_c, 0, 60, 64
1, 755478, Note_on_c, 0, 76, 77
1, 755482, Control_c, 0, 64, 49
1, 755497, Control_c, 0, 64, 53
1, 755512, Control_c, 0, 64, 60
1, 755526, Control_c, 0, 64, 68
1, 755541, Control_c, 0, 64, 83
1, 755555, Note_off_c, 0, 76, 56
1, 755556, Control_c, 0, 64, 127
1, 755579, Note_off_c, 0, 53, 59
1, 755615, Note_on_c, 0, 79, 84
1, 755628, Note_off_c, 0, 81, 66
1, 755628, Note_off_c, 0, 84, 63
1, 755633, Note_off_c, 0, 79, 68
1, 755749, Control_c, 0, 64, 113
1, 755764, Control_c, 0, 64, 68
1, 755769, Note_on_c, 0, 89, 95
1, 755773, Note_on_c, 0, 62, 88
1, 755776, Note_on_c, 0, 79, 80
1, 755778, Control_c, 0, 64, 31
1, 755782, Note_on_c, 0, 55, 86
1, 755793, Control_c, 0, 64, 0
1, 755800, Note_off_c, 0, 60, 63
1, 755805, Note_off_c, 0, 64, 63
1, 755852, Control_c, 0, 64, 54
1, 755867, Control_c, 0, 64, 74
1, 755882, Control_c, 0, 64, 127
1, 755904, Note_off_c, 0, 62, 65
1, 755910, Note_off_c, 0, 55, 62
1, 755914, Note_on_c, 0, 83, 81
1, 755957, Note_off_c, 0, 79, 61
1, 755988, Note_off_c, 0, 83, 62
1, 756074, Note_on_c, 0, 83, 95
1, 756155, Poly_aftertouch_c, 0, 79, 127
1, 756193, Poly_aftertouch_c, 0, 79, 0
1, 756220, Note_on_c, 0, 79, 71
1, 756327, Note_off_c, 0, 83, 57
1, 756378, Note_on_c, 0, 72, 91
1, 756381, Note_on_c, 0, 84, 78
1, 756390, Note_on_c, 0, 60, 77
1, 756417, Note_off_c, 0, 89, 65
1, 756438, Control_c, 0, 64, 98
1, 756453, Control_c, 0, 64, 72
1, 756468, Control_c, 0, 64, 52
1, 756482, Control_c, 0, 64, 34
1, 756497, Control_c, 0, 64, 0
1, 756527, Control_c, 0, 64, 31
1, 756532, Note_on_c, 0, 88, 85
1, 756542, Control_c, 0, 64, 39
1, 756557, Control_c, 0, 64, 51
1, 756561, Note_off_c, 0, 84, 58
1, 756572, Control_c, 0, 64, 64
1, 756581, Note_off_c, 0, 88, 65
1, 756587, Control_c, 0, 64, 73
1, 756601, Control_c, 0, 64, 83
1, 756616, Control_c, 0, 64, 91
1, 756631, Control_c, 0, 64, 97
1, 756646, Control_c, 0, 64, 106
1, 756661, Control_c, 0, 64, 127
1, 756673, Note_on_c, 0, 88, 97
1, 756705, Control_c, 0, 64, 115
1, 756721, Control_c, 0, 64, 109
1, 756780, Control_c, 0, 64, 127
1, 756817, Note_on_c, 0, 84, 92
1, 756861, Note_off_c, 0, 88, 66
1, 756870, Note_off_c, 0, 84, 67
1, 756965, Control_c, 0, 64, 108
1, 756974, Note_on_c, 0, 86, 91
1, 756980, Control_c, 0, 64, 72
1, 756995, Control_c, 0, 64, 53
1, 757010, Control_c, 0, 64, 36
1, 757024, Control_c, 0, 64, 33
1, 757039, Control_c, 0, 64, 39
1, 757054, Control_c, 0, 64, 51
1, 757069, Control_c, 0, 64, 63
1, 757077, Note_off_c, 0, 72, 59
1, 757084, Control_c, 0, 64, 80
1, 757098, Control_c, 0, 64, 127
1, 757116, Note_on_c, 0, 70, 83
1, 757149, Note_off_c, 0, 70, 57
1, 757216, Control_c, 0, 64, 93
1, 757231, Control_c, 0, 64, 69
1, 757246, Control_c, 0, 64, 54
1, 757261, Control_c, 0, 64, 43
1, 757265, Note_on_c, 0, 70, 79
1, 757276, Control_c, 0, 64, 42
1, 757290, Control_c, 0, 64, 48
1, 757305, Control_c, 0, 64, 56
1, 757320, Control_c, 0, 64, 63
1, 757335, Control_c, 0, 64, 70
1, 757350, Control_c, 0, 64, 80
1, 757365, Control_c, 0, 64, 97
1, 757380, Control_c, 0, 64, 127
1, 757401, Note_on_c, 0, 68, 77
1, 757406, Note_off_c, 0, 70, 38
1, 757450, Note_off_c, 0, 60, 62
1, 757451, Note_off_c, 0, 68, 57
1, 757556, Note_on_c, 0, 69, 80
1, 757573, Control_c, 0, 64, 96
1, 757581, Note_on_c, 0, 60, 62
1, 757595, Control_c, 0, 64, 69
1, 757610, Control_c, 0, 64, 54
1, 757625, Control_c, 0, 64, 35
1, 757640, Control_c, 0, 64, 0
1, 757699, Control_c, 0, 64, 34
1, 757707, Note_on_c, 0, 84, 80
1, 757714, Control_c, 0, 64, 51
1, 757728, Control_c, 0, 64, 64
1, 757733, Note_off_c, 0, 86, 66
1, 757743, Control_c, 0, 64, 76
1, 757753, Note_off_c, 0, 84, 66
1, 757758, Control_c, 0, 64, 93
1, 757773, Control_c, 0, 64, 127
1, 757858, Note_on_c, 0, 84, 81
1, 757877, Control_c, 0, 64, 91
1, 757892, Control_c, 0, 64, 66
1, 757907, Control_c, 0, 64, 52
1, 757921, Control_c, 0, 64, 46
1, 757936, Control_c, 0, 64, 48
1, 757951, Control_c, 0, 64, 56
1, 757965, Control_c, 0, 64, 66
1, 757980, Control_c, 0, 64, 81
1, 757995, Control_c, 0, 64, 127
1, 758006, Note_on_c, 0, 81, 72
1, 758036, Note_off_c, 0, 84, 66
1, 758040, Note_off_c, 0, 81, 63
1, 758099, Control_c, 0, 64, 83
1, 758113, Control_c, 0, 64, 63
1, 758128, Control_c, 0, 64, 39
1, 758143, Control_c, 0, 64, 0
1, 758149, Note_on_c, 0, 82, 78
1, 758202, Control_c, 0, 64, 29
1, 758217, Control_c, 0, 64, 46
1, 758232, Control_c, 0, 64, 61
1, 758247, Control_c, 0, 64, 70
1, 758253, Note_off_c, 0, 79, 59
1, 758262, Control_c, 0, 64, 79
1, 758277, Control_c, 0, 64, 85
1, 758292, Control_c, 0, 64, 86
1, 758307, Control_c, 0, 64, 85
1, 758309, Note_on_c, 0, 67, 65
1, 758321, Note_off_c, 0, 69, 61
1, 758322, Control_c, 0, 64, 82
1, 758340, Note_off_c, 0, 67, 65
1, 758344, Control_c, 0, 64, 73
1, 758359, Control_c, 0, 64, 63
1, 758374, Control_c, 0, 64, 56
1, 758388, Control_c, 0, 64, 58
1, 758403, Control_c, 0, 64, 64
1, 758418, Control_c, 0, 64, 73
1, 758433, Control_c, 0, 64, 86
1, 758448, Control_c, 0, 64, 102
1, 758459, Note_on_c, 0, 67, 63
1, 758477, Control_c, 0, 64, 96
1, 758492, Control_c, 0, 64, 79
1, 758507, Control_c, 0, 64, 62
1, 758522, Control_c, 0, 64, 47
1, 758537, Control_c, 0, 64, 39
1, 758551, Control_c, 0, 64, 42
1, 758566, Control_c, 0, 64, 55
1, 758581, Control_c, 0, 64, 68
1, 758596, Control_c, 0, 64, 84
1, 758601, Note_on_c, 0, 64, 76
1, 758611, Control_c, 0, 64, 127
1, 758620, Note_off_c, 0, 67, 58
1, 758630, Note_off_c, 0, 64, 66
1, 758632, Note_off_c, 0, 60, 62
1, 758700, Control_c, 0, 64, 106
1, 758715, Control_c, 0, 64, 71
1, 758730, Control_c, 0, 64, 53
1, 758739, Note_on_c, 0, 65, 64
1, 758744, Control_c, 0, 64, 31
1, 758751, Note_on_c, 0, 60, 64
1, 758759, Control_c, 0, 64, 0
1, 758788, Control_c, 0, 64, 36
1, 758803, Control_c, 0, 64, 52
1, 758818, Control_c, 0, 64, 67
1, 758833, Control_c, 0, 64, 79
1, 758848, Control_c, 0, 64, 93
1, 758862, Control_c, 0, 64, 101
1, 758888, Note_on_c, 0, 81, 69
1, 758892, Control_c, 0, 64, 103
1, 758906, Note_off_c, 0, 82, 61
1, 758912, Note_off_c, 0, 81, 70
1, 759025, Control_c, 0, 64, 107
1, 759036, Note_on_c, 0, 81, 78
1, 759040, Control_c, 0, 64, 113
1, 759043, Note_off_c, 0, 65, 61
1, 759055, Control_c, 0, 64, 127
1, 759138, Note_off_c, 0, 81, 55
1, 759186, Note_on_c, 0, 69, 71
1, 759188, Note_on_c, 0, 78, 69
1, 759198, Note_off_c, 0, 60, 60
1, 759211, Note_off_c, 0, 78, 68
1, 759243, Note_off_c, 0, 69, 52
1, 759330, Control_c, 0, 64, 96
1, 759330, Control_c, 0, 67, 60
1, 759339, Note_on_c, 0, 70, 67
1, 759340, Note_on_c, 0, 79, 74
1, 759345, Control_c, 0, 64, 76
1, 759345, Control_c, 0, 67, 114
1, 759347, Note_on_c, 0, 60, 59
1, 759359, Control_c, 0, 64, 62
1, 759359, Control_c, 0, 67, 127
1, 759374, Control_c, 0, 64, 47
1, 759380, Note_off_c, 0, 79, 59
1, 759389, Control_c, 0, 64, 0
1, 759442, Note_off_c, 0, 70, 49
1, 759481, Note_on_c, 0, 78, 72
1, 759495, Note_on_c, 0, 69, 59
1, 759516, Note_off_c, 0, 78, 54
1, 759531, Note_off_c, 0, 69, 57
1, 759630, Note_on_c, 0, 70, 53
1, 759636, Note_on_c, 0, 79, 58
1, 759666, Note_off_c, 0, 79, 62
1, 759693, Note_off_c, 0, 70, 53
1, 759779, Note_on_c, 0, 76, 61
1, 759808, Note_off_c, 0, 76, 64
1, 759820, Note_off_c, 0, 60, 58
1, 759931, Note_on_c, 0, 69, 57
1, 759933, Note_on_c, 0, 77, 67
1, 759946, Note_on_c, 0, 60, 51
1, 759964, Note_off_c, 0, 77, 61
1, 760033, Note_off_c, 0, 69, 38
1, 760080, Note_on_c, 0, 76, 61
1, 760092, Note_on_c, 0, 68, 38
1, 760112, Note_off_c, 0, 76, 63
1, 760133, Note_off_c, 0, 68, 48
1, 760227, Note_on_c, 0, 77, 58
1, 760240, Note_on_c, 0, 69, 42
1, 760247, Note_off_c, 0, 77, 63
1, 760364, Note_off_c, 0, 69, 37
1, 760370, Note_on_c, 0, 78, 70
1, 760390, Note_off_c, 0, 60, 57
1, 760393, Note_off_c, 0, 78, 68
1, 760520, Note_on_c, 0, 70, 52
1, 760522, Note_on_c, 0, 79, 66
1, 760529, Note_on_c, 0, 60, 49
1, 760599, Note_on_c, 0, 81, 70
1, 760605, Note_off_c, 0, 79, 59
1, 760631, Note_off_c, 0, 70, 38
1, 760662, Note_off_c, 0, 81, 64
1, 760666, Note_on_c, 0, 78, 75
1, 760669, Note_on_c, 0, 69, 50
1, 760756, Note_on_c, 0, 81, 59
1, 760769, Note_off_c, 0, 78, 54
1, 760806, Note_on_c, 0, 70, 48
1, 760810, Note_on_c, 0, 79, 54
1, 760811, Note_off_c, 0, 69, 36
1, 760817, Note_off_c, 0, 81, 62
1, 760845, Note_off_c, 0, 79, 61
1, 760886, Note_off_c, 0, 70, 38
1, 760978, Note_on_c, 0, 76, 50
1, 761002, Note_off_c, 0, 76, 60
1, 761004, Note_off_c, 0, 60, 61
1, 761123, Note_on_c, 0, 77, 56
1, 761130, Note_on_c, 0, 69, 47
1, 761143, Note_on_c, 0, 60, 37
1, 761171, Note_off_c, 0, 77, 54
1, 761196, Note_on_c, 0, 79, 55
1, 761216, Note_off_c, 0, 69, 50
1, 761238, Note_off_c, 0, 79, 61
1, 761265, Note_on_c, 0, 76, 53
1, 761276, Note_on_c, 0, 68, 32
1, 761301, Note_off_c, 0, 76, 58
1, 761323, Note_on_c, 0, 79, 23
1, 761399, Note_off_c, 0, 68, 31
1, 761419, Note_off_c, 0, 79, 60
1, 761428, Note_on_c, 0, 77, 53
1, 761438, Note_on_c, 0, 69, 34
1, 761459, Note_off_c, 0, 77, 65
1, 761514, Note_off_c, 0, 60, 61
1, 761541, Note_off_c, 0, 69, 52
1, 761580, Note_on_c, 0, 78, 50
1, 761602, Note_off_c, 0, 78, 56
1, 761738, Note_on_c, 0, 79, 59
1, 761739, Note_on_c, 0, 70, 52
1, 761744, Note_on_c, 0, 60, 37
1, 761797, Note_off_c, 0, 79, 55
1, 761803, Note_on_c, 0, 81, 65
1, 761867, Note_off_c, 0, 70, 56
1, 761869, Note_on_c, 0, 82, 67
1, 761872, Note_off_c, 0, 81, 60
1, 761890, Note_off_c, 0, 60, 56
1, 761941, Note_on_c, 0, 84, 72
1, 761970, Note_off_c, 0, 82, 55
1, 762006, Note_off_c, 0, 84, 64
1, 762021, Note_on_c, 0, 86, 57
1, 762042, Note_off_c, 0, 86, 61
1, 762191, Note_on_c, 0, 76, 58
1, 762218, Note_off_c, 0, 76, 66
1, 762367, Note_on_c, 0, 60, 34
1, 762369, Note_on_c, 0, 77, 53
1, 762379, Note_on_c, 0, 69, 34
1, 762429, Note_off_c, 0, 77, 58
1, 762451, Note_on_c, 0, 79, 52
1, 762516, Note_off_c, 0, 79, 56
1, 762520, Note_on_c, 0, 81, 56
1, 762597, Note_off_c, 0, 81, 59
1, 762608, Note_on_c, 0, 82, 42
1, 762719, Note_off_c, 0, 82, 51
1, 762743, Note_off_c, 0, 69, 35
1, 762762, Note_on_c, 0, 84, 53
1, 762785, Control_c, 0, 64, 38
1, 762800, Control_c, 0, 64, 51
1, 762815, Control_c, 0, 64, 59
1, 762837, Control_c, 0, 64, 63
1, 762852, Control_c, 0, 64, 65
1, 762867, Control_c, 0, 64, 68
1, 762879, Note_off_c, 0, 84, 59
1, 762882, Control_c, 0, 64, 71
1, 762882, Control_c, 0, 67, 96
1, 762889, Note_off_c, 0, 60, 35
1, 762897, Control_c, 0, 64, 75
1, 762897, Control_c, 0, 67, 57
1, 762911, Control_c, 0, 64, 80
1, 762911, Control_c, 0, 67, 0
1, 762926, Control_c, 0, 64, 85
1, 762941, Control_c, 0, 64, 90
1, 762955, Control_c, 0, 64, 96
1, 762970, Control_c, 0, 64, 103
1, 762985, Control_c, 0, 64, 110
1, 763000, Control_c, 0, 64, 112
1, 763074, Control_c, 0, 64, 127
1, 763085, Note_on_c, 0, 72, 89
1, 763156, Note_off_c, 0, 72, 60
1, 763434, Note_on_c, 0, 71, 92
1, 763443, Note_on_c, 0, 68, 87
1, 763449, Note_on_c, 0, 65, 71
1, 763455, Note_on_c, 0, 62, 74
1, 763467, Note_on_c, 0, 60, 66
1, 763549, Control_c, 0, 64, 88
1, 763564, Control_c, 0, 64, 66
1, 763586, Control_c, 0, 64, 46
1, 763601, Control_c, 0, 64, 0
1, 763632, Note_on_c, 0, 72, 82
1, 763661, Note_off_c, 0, 71, 59
1, 763704, Control_c, 0, 64, 31
1, 763719, Control_c, 0, 64, 45
1, 763733, Control_c, 0, 64, 56
1, 763748, Control_c, 0, 64, 63
1, 763750, Note_on_c, 0, 74, 89
1, 763763, Control_c, 0, 64, 69
1, 763769, Note_off_c, 0, 72, 61
1, 763777, Control_c, 0, 64, 73
1, 763792, Control_c, 0, 64, 77
1, 763807, Control_c, 0, 64, 81
1, 763822, Control_c, 0, 64, 88
1, 763837, Control_c, 0, 64, 97
1, 763851, Note_off_c, 0, 74, 65
1, 763852, Control_c, 0, 64, 110
1, 763857, Note_on_c, 0, 76, 93
1, 763866, Control_c, 0, 64, 127
1, 763959, Note_on_c, 0, 77, 95
1, 763974, Note_off_c, 0, 76, 60
1, 764048, Note_on_c, 0, 79, 87
1, 764071, Note_off_c, 0, 77, 62
1, 764105, Control_c, 0, 64, 105
1, 764120, Control_c, 0, 64, 74
1, 764134, Control_c, 0, 64, 59
1, 764136, Note_on_c, 0, 80, 89
1, 764141, Note_off_c, 0, 79, 63
1, 764149, Control_c, 0, 64, 45
1, 764164, Control_c, 0, 64, 42
1, 764179, Control_c, 0, 64, 46
1, 764194, Control_c, 0, 64, 54
1, 764208, Control_c, 0, 64, 62
1, 764215, Note_on_c, 0, 79, 86
1, 764223, Control_c, 0, 64, 71
1, 764238, Control_c, 0, 64, 82
1, 764253, Control_c, 0, 64, 95
1, 764263, Note_off_c, 0, 80, 58
1, 764268, Control_c, 0, 64, 112
1, 764282, Control_c, 0, 64, 127
1, 764286, Note_on_c, 0, 77, 88
1, 764322, Note_off_c, 0, 79, 60
1, 764357, Note_on_c, 0, 76, 81
1, 764360, Note_off_c, 0, 77, 66
1, 764419, Note_on_c, 0, 74, 88
1, 764426, Note_off_c, 0, 76, 63
1, 764486, Note_on_c, 0, 72, 83
1, 764502, Note_off_c, 0, 74, 59
1, 764562, Note_on_c, 0, 71, 38
1, 764653, Note_off_c, 0, 71, 34
1, 764670, Note_off_c, 0, 72, 60
1, 764676, Note_on_c, 0, 74, 84
1, 764719, Note_off_c, 0, 74, 62
1, 764746, Note_on_c, 0, 76, 81
1, 764795, Note_off_c, 0, 76, 59
1, 764799, Note_on_c, 0, 77, 91
1, 764867, Note_on_c, 0, 79, 82
1, 764912, Note_off_c, 0, 77, 51
1, 764930, Note_on_c, 0, 80, 85
1, 764936, Note_off_c, 0, 79, 62
1, 764996, Note_on_c, 0, 79, 75
1, 765057, Note_off_c, 0, 80, 59
1, 765061, Note_on_c, 0, 77, 86
1, 765121, Note_off_c, 0, 79, 61
1, 765129, Note_off_c, 0, 77, 64
1, 765136, Note_on_c, 0, 76, 75
1, 765186, Note_off_c, 0, 76, 44
1, 765192, Note_on_c, 0, 74, 91
1, 765249, Note_off_c, 0, 74, 62
1, 765255, Note_on_c, 0, 72, 75
1, 765315, Note_off_c, 0, 72, 62
1, 765317, Note_on_c, 0, 71, 83
1, 765383, Note_on_c, 0, 72, 84
1, 765390, Note_off_c, 0, 71, 60
1, 765437, Note_off_c, 0, 72, 59
1, 765446, Note_on_c, 0, 74, 87
1, 765486, Note_off_c, 0, 74, 65
1, 765517, Note_on_c, 0, 76, 87
1, 765588, Note_on_c, 0, 77, 91
1, 765595, Note_off_c, 0, 76, 63
1, 765659, Note_on_c, 0, 79, 83
1, 765696, Note_off_c, 0, 77, 58
1, 765711, Note_off_c, 0, 65, 47
1, 765748, Note_off_c, 0, 79, 67
1, 765751, Note_off_c, 0, 60, 39
1, 765752, Note_on_c, 0, 80, 78
1, 765779, Note_off_c, 0, 68, 54
1, 765790, Note_off_c, 0, 80, 58
1, 765818, Note_off_c, 0, 62, 32
1, 765831, Note_on_c, 0, 71, 78
1, 765965, Note_on_c, 0, 72, 80
1, 765986, Note_off_c, 0, 71, 54
1, 766003, Note_on_c, 0, 69, 63
1, 766007, Note_on_c, 0, 65, 57
1, 766020, Note_on_c, 0, 60, 59
1, 766053, Control_c, 0, 64, 84
1, 766068, Control_c, 0, 64, 63
1, 766083, Control_c, 0, 64, 36
1, 766098, Control_c, 0, 64, 0
1, 766129, Note_on_c, 0, 74, 78
1, 766151, Note_off_c, 0, 72, 62
1, 766186, Control_c, 0, 64, 34
1, 766201, Control_c, 0, 64, 59
1, 766216, Control_c, 0, 64, 72
1, 766231, Control_c, 0, 64, 87
1, 766239, Note_on_c, 0, 72, 85
1, 766246, Control_c, 0, 64, 127
1, 766251, Note_off_c, 0, 74, 64
1, 766329, Note_on_c, 0, 71, 85
1, 766334, Note_off_c, 0, 72, 63
1, 766395, Control_c, 0, 64, 107
1, 766409, Control_c, 0, 64, 73
1, 766415, Note_on_c, 0, 72, 89
1, 766421, Note_off_c, 0, 71, 58
1, 766424, Control_c, 0, 64, 54
1, 766439, Control_c, 0, 64, 44
1, 766454, Control_c, 0, 64, 49
1, 766469, Control_c, 0, 64, 63
1, 766483, Control_c, 0, 64, 80
1, 766498, Control_c, 0, 64, 127
1, 766500, Note_on_c, 0, 73, 86
1, 766501, Note_off_c, 0, 72, 61
1, 766543, Control_c, 0, 64, 99
1, 766558, Control_c, 0, 64, 69
1, 766580, Control_c, 0, 64, 58
1, 766582, Note_off_c, 0, 73, 62
1, 766587, Note_on_c, 0, 74, 84
1, 766595, Control_c, 0, 64, 63
1, 766609, Control_c, 0, 64, 73
1, 766624, Control_c, 0, 64, 102
1, 766639, Control_c, 0, 64, 127
1, 766647, Note_off_c, 0, 74, 55
1, 766658, Note_on_c, 0, 75, 86
1, 766669, Control_c, 0, 64, 99
1, 766683, Control_c, 0, 64, 83
1, 766698, Control_c, 0, 64, 77
1, 766703, Note_off_c, 0, 75, 65
1, 766725, Note_on_c, 0, 76, 87
1, 766728, Control_c, 0, 64, 79
1, 766743, Control_c, 0, 64, 84
1, 766758, Control_c, 0, 64, 87
1, 766773, Control_c, 0, 64, 87
1, 766786, Note_on_c, 0, 77, 89
1, 766787, Control_c, 0, 64, 77
1, 766791, Note_off_c, 0, 76, 63
1, 766802, Control_c, 0, 64, 61
1, 766817, Control_c, 0, 64, 51
1, 766832, Control_c, 0, 64, 56
1, 766843, Note_off_c, 0, 77, 63
1, 766844, Note_on_c, 0, 78, 87
1, 766847, Control_c, 0, 64, 65
1, 766862, Control_c, 0, 64, 75
1, 766876, Control_c, 0, 64, 77
1, 766879, Note_off_c, 0, 78, 66
1, 766891, Control_c, 0, 64, 71
1, 766904, Note_on_c, 0, 79, 80
1, 766906, Control_c, 0, 64, 63
1, 766921, Control_c, 0, 64, 60
1, 766935, Control_c, 0, 64, 61
1, 766950, Control_c, 0, 64, 60
1, 766956, Note_on_c, 0, 80, 88
1, 766965, Control_c, 0, 64, 53
1, 766968, Note_off_c, 0, 79, 63
1, 766980, Control_c, 0, 64, 42
1, 766995, Control_c, 0, 64, 46
1, 767009, Control_c, 0, 64, 58
1, 767014, Note_on_c, 0, 81, 87
1, 767024, Control_c, 0, 64, 68
1, 767039, Control_c, 0, 64, 85
1, 767054, Control_c, 0, 64, 89
1, 767067, Note_off_c, 0, 80, 50
1, 767069, Control_c, 0, 64, 89
1, 767074, Note_on_c, 0, 82, 87
1, 767086, Note_off_c, 0, 81, 61
1, 767099, Control_c, 0, 64, 88
1, 767112, Note_off_c, 0, 82, 68
1, 767114, Control_c, 0, 64, 74
1, 767129, Control_c, 0, 64, 55
1, 767132, Note_on_c, 0, 83, 85
1, 767144, Control_c, 0, 64, 32
1, 767158, Control_c, 0, 64, 40
1, 767173, Control_c, 0, 64, 60
1, 767188, Control_c, 0, 64, 70
1, 767192, Note_on_c, 0, 84, 87
1, 767203, Note_off_c, 0, 83, 59
1, 767203, Control_c, 0, 64, 72
1, 767218, Control_c, 0, 64, 67
1, 767232, Control_c, 0, 64, 58
1, 767247, Control_c, 0, 64, 57
1, 767252, Note_on_c, 0, 85, 89
1, 767255, Note_off_c, 0, 84, 66
1, 767262, Control_c, 0, 64, 62
1, 767277, Control_c, 0, 64, 74
1, 767292, Control_c, 0, 64, 106
1, 767297, Note_off_c, 0, 85, 67
1, 767306, Control_c, 0, 64, 127
1, 767311, Note_on_c, 0, 86, 81
1, 767390, Note_on_c, 0, 87, 92
1, 767403, Note_off_c, 0, 86, 56
1, 767477, Control_c, 0, 64, 75
1, 767492, Control_c, 0, 64, 37
1, 767494, Note_on_c, 0, 88, 99
1, 767506, Control_c, 0, 64, 0
1, 767509, Note_off_c, 0, 87, 65
1, 767551, Control_c, 0, 64, 32
1, 767565, Control_c, 0, 64, 56
1, 767580, Control_c, 0, 64, 74
1, 767595, Control_c, 0, 64, 127
1, 767610, Note_on_c, 0, 89, 94
1, 767621, Note_off_c, 0, 88, 65
1, 767629, Note_off_c, 0, 60, 60
1, 767633, Note_off_c, 0, 69, 60
1, 767636, Note_off_c, 0, 65, 62
1, 767692, Note_on_c, 0, 88, 94
1, 767733, Note_off_c, 0, 89, 62
1, 767757, Note_on_c, 0, 86, 89
1, 767792, Note_off_c, 0, 88, 62
1, 767814, Note_off_c, 0, 86, 68
1, 767816, Note_on_c, 0, 84, 83
1, 767855, Note_off_c, 0, 84, 65
1, 767878, Note_on_c, 0, 82, 84
1, 767931, Note_on_c, 0, 81, 86
1, 767972, Note_off_c, 0, 82, 62
1, 767986, Note_on_c, 0, 79, 78
1, 768007, Note_off_c, 0, 81, 64
1, 768026, Note_on_c, 0, 77, 81
1, 768030, Note_off_c, 0, 79, 65
1, 768052, Note_off_c, 0, 77, 65
1, 768089, Note_on_c, 0, 76, 81
1, 768129, Note_on_c, 0, 74, 26
1, 768151, Note_off_c, 0, 76, 65
1, 768179, Note_on_c, 0, 72, 75
1, 768184, Note_off_c, 0, 74, 64
1, 768203, Note_off_c, 0, 72, 66
1, 768235, Note_on_c, 0, 70, 87
1, 768285, Control_c, 0, 64, 104
1, 768296, Note_on_c, 0, 69, 96
1, 768299, Control_c, 0, 64, 64
1, 768314, Control_c, 0, 64, 0
1, 768320, Note_off_c, 0, 70, 66
1, 768373, Control_c, 0, 64, 44
1, 768388, Control_c, 0, 64, 66
1, 768394, Note_on_c, 0, 70, 95
1, 768402, Note_off_c, 0, 69, 59
1, 768403, Control_c, 0, 64, 97
1, 768418, Control_c, 0, 64, 127
1, 768448, Control_c, 0, 64, 89
1, 768454, Note_off_c, 0, 70, 65
1, 768463, Control_c, 0, 64, 65
1, 768471, Note_on_c, 0, 72, 93
1, 768478, Control_c, 0, 64, 46
1, 768492, Control_c, 0, 64, 48
1, 768507, Control_c, 0, 64, 60
1, 768522, Control_c, 0, 64, 71
1, 768537, Control_c, 0, 64, 77
1, 768544, Note_off_c, 0, 72, 56
1, 768546, Note_on_c, 0, 74, 98
1, 768552, Control_c, 0, 64, 75
1, 768566, Control_c, 0, 64, 65
1, 768581, Control_c, 0, 64, 58
1, 768596, Control_c, 0, 64, 57
1, 768611, Note_on_c, 0, 76, 92
1, 768611, Control_c, 0, 64, 61
1, 768618, Note_off_c, 0, 74, 64
1, 768626, Control_c, 0, 64, 65
1, 768641, Control_c, 0, 64, 67
1, 768655, Control_c, 0, 64, 72
1, 768665, Note_off_c, 0, 76, 64
1, 768670, Control_c, 0, 64, 85
1, 768683, Note_on_c, 0, 77, 99
1, 768685, Control_c, 0, 64, 101
1, 768701, Control_c, 0, 64, 94
1, 768716, Control_c, 0, 64, 65
1, 768731, Control_c, 0, 64, 29
1, 768745, Control_c, 0, 64, 0
1, 768754, Note_on_c, 0, 79, 93
1, 768761, Note_off_c, 0, 77, 63
1, 768775, Control_c, 0, 64, 51
1, 768790, Control_c, 0, 64, 62
1, 768804, Control_c, 0, 64, 62
1, 768823, Note_on_c, 0, 81, 87
1, 768841, Control_c, 0, 64, 63
1, 768857, Control_c, 0, 64, 67
1, 768872, Control_c, 0, 64, 69
1, 768875, Note_off_c, 0, 79, 62
1, 768886, Control_c, 0, 64, 68
1, 768901, Note_on_c, 0, 82, 90
1, 768901, Control_c, 0, 64, 62
1, 768931, Note_off_c, 0, 81, 63
1, 768931, Control_c, 0, 64, 72
1, 768946, Control_c, 0, 64, 91
1, 768954, Note_off_c, 0, 82, 67
1, 768961, Control_c, 0, 64, 127
1, 768987, Note_on_c, 0, 84, 100
1, 769071, Note_on_c, 0, 86, 96
1, 769095, Note_off_c, 0, 84, 65
1, 769179, Note_on_c, 0, 88, 102
1, 769209, Note_off_c, 0, 86, 66
1, 769345, Control_c, 0, 64, 86
1, 769360, Control_c, 0, 64, 58
1, 769375, Control_c, 0, 64, 0
1, 769395, Note_on_c, 0, 89, 97
1, 769408, Note_off_c, 0, 88, 66
1, 769479, Control_c, 0, 64, 38
1, 769494, Control_c, 0, 64, 59
1, 769509, Control_c, 0, 64, 68
1, 769524, Control_c, 0, 64, 87
1, 769539, Control_c, 0, 64, 127
1, 769556, Note_off_c, 0, 89, 67
1, 770005, Control_c, 0, 64, 63
1, 770019, Control_c, 0, 64, 0
1, 770607, Note_on_c, 0, 77, 93
1, 770621, Control_c, 0, 64, 37
1, 770636, Control_c, 0, 64, 47
1, 770650, Control_c, 0, 64, 57
1, 770665, Control_c, 0, 64, 61
1, 770680, Control_c, 0, 64, 64
1, 770694, Control_c, 0, 64, 67
1, 770709, Control_c, 0, 64, 71
1, 770724, Control_c, 0, 64, 76
1, 770739, Control_c, 0, 64, 83
1, 770754, Control_c, 0, 64, 93
1, 770768, Control_c, 0, 64, 104
1, 770783, Control_c, 0, 64, 120
1, 770798, Control_c, 0, 64, 127
1, 770898, Note_on_c, 0, 81, 96
1, 770916, Control_c, 0, 64, 102
1, 770931, Control_c, 0, 64, 82
1, 770936, Note_off_c, 0, 77, 61
1, 770946, Control_c, 0, 64, 66
1, 770961, Control_c, 0, 64, 56
1, 770976, Control_c, 0, 64, 55
1, 770991, Control_c, 0, 64, 57
1, 771005, Control_c, 0, 64, 60
1, 771020, Control_c, 0, 64, 64
1, 771035, Control_c, 0, 64, 69
1, 771050, Control_c, 0, 64, 75
1, 771072, Control_c, 0, 64, 81
1, 771087, Control_c, 0, 64, 85
1, 771092, Note_off_c, 0, 81, 63
1, 771095, Note_on_c, 0, 79, 89
1, 771103, Control_c, 0, 64, 88
1, 771118, Control_c, 0, 64, 90
1, 771132, Control_c, 0, 64, 93
1, 771147, Control_c, 0, 64, 100
1, 771162, Control_c, 0, 64, 113
1, 771177, Control_c, 0, 64, 127
1, 771208, Note_off_c, 0, 79, 61
1, 771211, Note_on_c, 0, 81, 85
1, 771289, Note_off_c, 0, 81, 64
1, 771301, Note_on_c, 0, 79, 85
1, 771359, Note_off_c, 0, 79, 60
1, 771373, Note_on_c, 0, 81, 85
1, 771420, Note_off_c, 0, 81, 64
1, 771439, Note_on_c, 0, 79, 70
1, 771461, Note_off_c, 0, 79, 66
1, 771478, Note_on_c, 0, 81, 77
1, 771515, Note_off_c, 0, 81, 61
1, 771545, Note_on_c, 0, 79, 53
1, 771569, Note_off_c, 0, 79, 59
1, 771572, Note_on_c, 0, 81, 74
1, 771614, Note_off_c, 0, 81, 61
1, 771629, Note_on_c, 0, 79, 59
1, 771649, Note_off_c, 0, 79, 64
1, 771658, Note_on_c, 0, 81, 66
1, 771697, Note_off_c, 0, 81, 61
1, 771711, Note_on_c, 0, 79, 66
1, 771735, Note_off_c, 0, 79, 67
1, 771746, Note_on_c, 0, 81, 64
1, 771780, Note_off_c, 0, 81, 61
1, 771797, Note_on_c, 0, 79, 59
1, 771825, Note_off_c, 0, 79, 65
1, 771839, Note_on_c, 0, 81, 63
1, 771879, Note_off_c, 0, 81, 59
1, 771882, Note_on_c, 0, 79, 74
1, 771927, Note_off_c, 0, 79, 59
1, 771931, Note_on_c, 0, 81, 62
1, 771976, Note_off_c, 0, 81, 49
1, 771986, Note_on_c, 0, 79, 56
1, 772010, Note_on_c, 0, 81, 60
1, 772014, Note_off_c, 0, 79, 67
1, 772067, Note_on_c, 0, 79, 56
1, 772079, Note_off_c, 0, 81, 0
1, 772087, Note_off_c, 0, 79, 64
1, 772093, Note_on_c, 0, 81, 50
1, 772143, Note_off_c, 0, 81, 60
1, 772147, Note_on_c, 0, 79, 76
1, 772178, Note_off_c, 0, 79, 52
1, 772184, Note_on_c, 0, 81, 50
1, 772231, Note_on_c, 0, 79, 69
1, 772257, Note_off_c, 0, 81, 0
1, 772268, Note_on_c, 0, 81, 53
1, 772278, Note_off_c, 0, 79, 63
1, 772328, Note_on_c, 0, 79, 71
1, 772339, Note_off_c, 0, 81, 65
1, 772381, Note_on_c, 0, 81, 73
1, 772389, Note_off_c, 0, 79, 63
1, 772406, Note_on_c, 0, 70, 103
1, 772412, Note_on_c, 0, 64, 87
1, 772418, Note_on_c, 0, 60, 81
1, 772436, Note_on_c, 0, 79, 73
1, 772440, Note_off_c, 0, 81, 63
1, 772481, Note_off_c, 0, 79, 60
1, 772492, Note_on_c, 0, 81, 73
1, 772535, Note_off_c, 0, 81, 63
1, 772569, Note_on_c, 0, 79, 50
1, 772591, Note_off_c, 0, 79, 60
1, 772600, Note_on_c, 0, 81, 60
1, 772627, Note_off_c, 0, 81, 67
1, 772645, Note_on_c, 0, 79, 66
1, 772666, Note_off_c, 0, 79, 66
1, 772681, Note_on_c, 0, 81, 76
1, 772718, Note_off_c, 0, 81, 56
1, 772724, Note_on_c, 0, 79, 73
1, 772771, Note_on_c, 0, 81, 67
1, 772772, Note_off_c, 0, 79, 60
1, 772821, Note_off_c, 0, 81, 60
1, 772823, Note_on_c, 0, 79, 62
1, 772854, Note_on_c, 0, 81, 55
1, 772866, Note_off_c, 0, 79, 60
1, 772902, Note_on_c, 0, 79, 56
1, 772909, Note_off_c, 0, 81, 62
1, 772943, Note_on_c, 0, 81, 52
1, 772948, Note_off_c, 0, 79, 60
1, 772994, Poly_aftertouch_c, 0, 76, 127
1, 772997, Note_off_c, 0, 81, 61
1, 773000, Note_on_c, 0, 79, 61
1, 773039, Note_on_c, 0, 81, 47
1, 773047, Note_off_c, 0, 79, 59
1, 773087, Note_off_c, 0, 81, 57
1, 773089, Note_on_c, 0, 79, 49
1, 773128, Note_on_c, 0, 81, 52
1, 773130, Note_off_c, 0, 79, 57
1, 773149, Poly_aftertouch_c, 0, 76, 0
1, 773185, Note_off_c, 0, 81, 58
1, 773194, Note_on_c, 0, 79, 54
1, 773228, Note_off_c, 0, 79, 58
1, 773250, Note_on_c, 0, 81, 36
1, 773289, Note_off_c, 0, 81, 52
1, 773311, Note_on_c, 0, 79, 42
1, 773348, Note_off_c, 0, 79, 55
1, 773365, Note_on_c, 0, 81, 57
1, 773402, Note_off_c, 0, 81, 61
1, 773444, Note_on_c, 0, 79, 25
1, 773483, Note_off_c, 0, 79, 54
1, 773494, Note_on_c, 0, 81, 43
1, 773527, Control_c, 0, 67, 47
1, 773528, Note_off_c, 0, 81, 49
1, 773542, Control_c, 0, 67, 66
1, 773550, Note_on_c, 0, 79, 25
1, 773557, Control_c, 0, 67, 89
1, 773572, Control_c, 0, 67, 115
1, 773587, Control_c, 0, 67, 127
1, 773591, Note_off_c, 0, 79, 50
1, 773601, Note_on_c, 0, 81, 44
1, 773643, Note_off_c, 0, 81, 58
1, 773668, Note_on_c, 0, 79, 23
1, 773706, Note_off_c, 0, 79, 52
1, 773720, Note_on_c, 0, 81, 50
1, 773757, Note_off_c, 0, 81, 60
1, 773775, Note_on_c, 0, 79, 41
1, 773809, Note_off_c, 0, 79, 51
1, 773847, Note_on_c, 0, 81, 50
1, 773876, Note_off_c, 0, 81, 55
1, 773910, Note_on_c, 0, 79, 34
1, 773943, Note_off_c, 0, 79, 54
1, 773970, Note_on_c, 0, 81, 42
1, 773996, Note_off_c, 0, 81, 54
1, 774018, Note_on_c, 0, 79, 36
1, 774059, Note_off_c, 0, 79, 48
1, 774101, Note_on_c, 0, 81, 43
1, 774135, Note_off_c, 0, 81, 49
1, 774150, Note_on_c, 0, 79, 34
1, 774189, Note_off_c, 0, 79, 48
1, 774211, Note_on_c, 0, 81, 41
1, 774254, Note_off_c, 0, 81, 53
1, 774282, Note_on_c, 0, 79, 17
1, 774337, Note_on_c, 0, 81, 35
1, 774372, Note_off_c, 0, 79, 0
1, 774389, Note_off_c, 0, 81, 47
1, 774392, Note_on_c, 0, 79, 20
1, 774457, Note_off_c, 0, 79, 42
1, 774461, Note_on_c, 0, 81, 31
1, 774557, Poly_aftertouch_c, 0, 79, 127
1, 774561, Note_off_c, 0, 81, 0
1, 774581, Note_on_c, 0, 81, 33
1, 774633, Poly_aftertouch_c, 0, 79, 0
1, 774645, Note_off_c, 0, 81, 51
1, 774658, Note_on_c, 0, 79, 9
1, 774717, Note_off_c, 0, 79, 45
1, 774727, Note_on_c, 0, 81, 15
1, 774787, Note_off_c, 0, 81, 44
1, 774793, Note_on_c, 0, 79, 25
1, 774852, Note_off_c, 0, 79, 46
1, 774879, Note_on_c, 0, 81, 25
1, 774930, Note_off_c, 0, 81, 45
1, 774989, Poly_aftertouch_c, 0, 79, 127
1, 775023, Note_on_c, 0, 81, 31
1, 775088, Poly_aftertouch_c, 0, 79, 0
1, 775091, Note_off_c, 0, 81, 52
1, 775109, Note_on_c, 0, 79, 19
1, 775179, Note_off_c, 0, 79, 41
1, 775202, Note_on_c, 0, 81, 15
1, 775251, Note_off_c, 0, 81, 46
1, 775260, Note_on_c, 0, 79, 23
1, 775402, Poly_aftertouch_c, 0, 81, 127
1, 775536, Note_off_c, 0, 79, 0
1, 775578, Poly_aftertouch_c, 0, 81, 0
1, 775580, Poly_aftertouch_c, 0, 79, 127
1, 775709, Poly_aftertouch_c, 0, 79, 0
1, 775754, Poly_aftertouch_c, 0, 81, 127
1, 775915, Note_on_c, 0, 79, 24
1, 776016, Poly_aftertouch_c, 0, 81, 0
1, 776161, Note_on_c, 0, 77, 36
1, 776169, Note_off_c, 0, 70, 32
1, 776216, Note_off_c, 0, 60, 31
1, 776246, Note_off_c, 0, 79, 51
1, 776314, Note_off_c, 0, 64, 45
1, 776493, Note_on_c, 0, 79, 28
1, 776591, Note_off_c, 0, 77, 55
1, 776945, Note_on_c, 0, 77, 47
1, 776953, Note_on_c, 0, 69, 40
1, 776983, Control_c, 0, 64, 101
1, 776989, Note_on_c, 0, 65, 35
1, 776998, Control_c, 0, 64, 84
1, 777012, Control_c, 0, 64, 73
1, 777021, Note_off_c, 0, 79, 44
1, 777026, Note_off_c, 0, 65, 53
1, 777027, Control_c, 0, 64, 64
1, 777042, Control_c, 0, 64, 59
1, 777064, Control_c, 0, 64, 57
1, 777079, Control_c, 0, 64, 57
1, 777092, Control_c, 0, 64, 59
1, 777107, Control_c, 0, 64, 60
1, 777122, Control_c, 0, 64, 62
1, 777137, Control_c, 0, 64, 63
1, 777152, Control_c, 0, 64, 65
1, 777167, Control_c, 0, 64, 68
1, 777182, Control_c, 0, 64, 71
1, 777197, Control_c, 0, 64, 73
1, 777211, Control_c, 0, 64, 75
1, 777226, Control_c, 0, 64, 76
1, 777282, Note_on_c, 0, 60, 48
1, 777310, Note_off_c, 0, 77, 43
1, 777315, Control_c, 0, 64, 75
1, 777319, Note_off_c, 0, 60, 65
1, 777330, Control_c, 0, 64, 75
1, 777359, Control_c, 0, 64, 74
1, 777389, Control_c, 0, 64, 74
1, 777404, Control_c, 0, 64, 73
1, 777418, Control_c, 0, 64, 73
1, 777433, Control_c, 0, 64, 72
1, 777448, Control_c, 0, 64, 72
1, 777460, Note_on_c, 0, 77, 46
1, 777462, Control_c, 0, 64, 71
1, 777477, Control_c, 0, 64, 70
1, 777493, Control_c, 0, 64, 69
1, 777508, Control_c, 0, 64, 67
1, 777510, Note_off_c, 0, 77, 59
1, 777523, Control_c, 0, 64, 66
1, 777535, Note_on_c, 0, 76, 49
1, 777538, Control_c, 0, 64, 64
1, 777553, Control_c, 0, 64, 64
1, 777567, Control_c, 0, 64, 63
1, 777582, Control_c, 0, 64, 63
1, 777590, Note_on_c, 0, 65, 38
1, 777597, Control_c, 0, 64, 62
1, 777606, Note_off_c, 0, 76, 54
1, 777608, Note_on_c, 0, 79, 52
1, 777612, Control_c, 0, 64, 62
1, 777623, Note_off_c, 0, 65, 56
1, 777671, Control_c, 0, 64, 61
1, 777689, Note_on_c, 0, 77, 58
1, 777695, Note_off_c, 0, 79, 55
1, 777701, Control_c, 0, 64, 61
1, 777723, Note_off_c, 0, 77, 60
1, 777751, Note_on_c, 0, 81, 62
1, 777760, Control_c, 0, 64, 60
1, 777779, Note_off_c, 0, 81, 64
1, 777832, Note_on_c, 0, 79, 52
1, 777841, Control_c, 0, 64, 60
1, 777856, Control_c, 0, 64, 59
1, 777885, Control_c, 0, 64, 59
1, 777895, Note_on_c, 0, 60, 39
1, 777900, Control_c, 0, 64, 58
1, 777912, Note_off_c, 0, 79, 58
1, 777915, Note_on_c, 0, 82, 62
1, 777915, Control_c, 0, 64, 56
1, 777925, Note_off_c, 0, 60, 59
1, 777930, Control_c, 0, 64, 55
1, 777936, Note_off_c, 0, 69, 55
1, 777945, Control_c, 0, 64, 54
1, 777960, Control_c, 0, 64, 52
1, 777975, Control_c, 0, 64, 51
1, 777981, Note_on_c, 0, 81, 61
1, 777986, Note_off_c, 0, 82, 56
1, 777990, Control_c, 0, 64, 50
1, 778005, Control_c, 0, 64, 49
1, 778019, Control_c, 0, 64, 48
1, 778034, Control_c, 0, 64, 47
1, 778049, Control_c, 0, 64, 47
1, 778052, Note_on_c, 0, 84, 62
1, 778055, Note_off_c, 0, 81, 55
1, 778064, Control_c, 0, 64, 46
1, 778079, Control_c, 0, 64, 45
1, 778093, Control_c, 0, 64, 45
1, 778108, Control_c, 0, 64, 44
1, 778118, Note_off_c, 0, 84, 57
1, 778123, Control_c, 0, 64, 43
1, 778129, Note_on_c, 0, 82, 62
1, 778138, Control_c, 0, 64, 42
1, 778153, Control_c, 0, 64, 41
1, 778167, Control_c, 0, 64, 39
1, 778182, Control_c, 0, 64, 38
1, 778197, Control_c, 0, 64, 38
1, 778211, Control_c, 0, 64, 37
1, 778216, Note_off_c, 0, 82, 48
1, 778217, Note_on_c, 0, 70, 37
1, 778222, Note_on_c, 0, 64, 48
1, 778226, Control_c, 0, 64, 37
1, 778244, Note_on_c, 0, 86, 54
1, 778256, Control_c, 0, 64, 36
1, 778271, Control_c, 0, 64, 35
1, 778276, Note_off_c, 0, 64, 62
1, 778287, Control_c, 0, 64, 34
1, 778302, Control_c, 0, 64, 34
1, 778316, Control_c, 0, 64, 33
1, 778331, Control_c, 0, 64, 33
1, 778346, Control_c, 0, 64, 32
1, 778361, Control_c, 0, 64, 32
1, 778392, Note_on_c, 0, 84, 54
1, 778405, Control_c, 0, 64, 30
1, 778407, Note_off_c, 0, 86, 64
1, 778413, Note_off_c, 0, 84, 61
1, 778435, Control_c, 0, 64, 0
1, 778546, Note_on_c, 0, 60, 45
1, 778574, Note_on_c, 0, 84, 68
1, 778636, Note_off_c, 0, 60, 58
1, 778887, Note_on_c, 0, 64, 42
1, 778949, Note_off_c, 0, 64, 60
1, 779006, Control_c, 0, 64, 29
1, 779042, Note_on_c, 0, 83, 52
1, 779065, Control_c, 0, 64, 31
1, 779081, Control_c, 0, 64, 33
1, 779096, Control_c, 0, 64, 34
1, 779110, Control_c, 0, 64, 36
1, 779125, Control_c, 0, 64, 39
1, 779140, Control_c, 0, 64, 42
1, 779155, Control_c, 0, 64, 46
1, 779170, Control_c, 0, 64, 53
1, 779185, Control_c, 0, 64, 59
1, 779194, Note_on_c, 0, 60, 37
1, 779200, Control_c, 0, 64, 63
1, 779205, Note_on_c, 0, 82, 47
1, 779214, Control_c, 0, 64, 65
1, 779228, Note_off_c, 0, 84, 27
1, 779229, Control_c, 0, 64, 67
1, 779234, Note_off_c, 0, 60, 55
1, 779244, Control_c, 0, 64, 69
1, 779253, Note_off_c, 0, 70, 55
1, 779258, Control_c, 0, 64, 70
1, 779259, Note_off_c, 0, 83, 36
1, 779273, Control_c, 0, 64, 71
1, 779288, Control_c, 0, 64, 71
1, 779316, Note_off_c, 0, 82, 61
1, 779360, Note_on_c, 0, 79, 52
1, 779400, Control_c, 0, 64, 71
1, 779414, Control_c, 0, 64, 70
1, 779429, Control_c, 0, 64, 69
1, 779444, Control_c, 0, 64, 68
1, 779458, Control_c, 0, 64, 66
1, 779473, Control_c, 0, 64, 63
1, 779488, Control_c, 0, 64, 61
1, 779492, Note_off_c, 0, 79, 39
1, 779503, Control_c, 0, 64, 58
1, 779511, Note_on_c, 0, 76, 46
1, 779518, Control_c, 0, 64, 56
1, 779522, Note_on_c, 0, 69, 39
1, 779532, Control_c, 0, 64, 55
1, 779536, Note_on_c, 0, 65, 29
1, 779547, Control_c, 0, 64, 54
1, 779562, Control_c, 0, 64, 53
1, 779577, Control_c, 0, 64, 53
1, 779587, Note_off_c, 0, 65, 47
1, 779592, Control_c, 0, 64, 52
1, 779606, Control_c, 0, 64, 51
1, 779621, Control_c, 0, 64, 50
1, 779636, Control_c, 0, 64, 48
1, 779651, Control_c, 0, 64, 47
1, 779659, Note_off_c, 0, 76, 53
1, 779665, Control_c, 0, 64, 46
1, 779673, Note_on_c, 0, 77, 47
1, 779680, Control_c, 0, 64, 45
1, 779695, Control_c, 0, 64, 45
1, 779710, Control_c, 0, 64, 44
1, 779716, Note_off_c, 0, 77, 61
1, 779725, Control_c, 0, 64, 43
1, 779739, Control_c, 0, 64, 43
1, 779754, Control_c, 0, 64, 42
1, 779769, Control_c, 0, 64, 42
1, 779799, Control_c, 0, 64, 41
1, 779806, Note_on_c, 0, 60, 48
1, 779847, Note_off_c, 0, 60, 61
1, 779964, Note_on_c, 0, 77, 50
1, 780013, Note_off_c, 0, 77, 58
1, 780025, Note_on_c, 0, 76, 59
1, 780108, Note_on_c, 0, 79, 54
1, 780111, Note_on_c, 0, 65, 50
1, 780124, Note_off_c, 0, 76, 46
1, 780145, Note_off_c, 0, 65, 64
1, 780184, Note_on_c, 0, 77, 58
1, 780190, Note_off_c, 0, 79, 56
1, 780220, Note_off_c, 0, 77, 59
1, 780248, Note_on_c, 0, 81, 58
1, 780276, Note_off_c, 0, 81, 68
1, 780313, Note_on_c, 0, 79, 58
1, 780369, Control_c, 0, 64, 41
1, 780380, Note_on_c, 0, 60, 50
1, 780388, Note_on_c, 0, 82, 63
1, 780388, Note_off_c, 0, 79, 58
1, 780413, Note_off_c, 0, 69, 62
1, 780417, Note_off_c, 0, 60, 63
1, 780463, Note_on_c, 0, 81, 61
1, 780468, Note_off_c, 0, 82, 56
1, 780503, Control_c, 0, 64, 40
1, 780534, Note_on_c, 0, 84, 69
1, 780543, Note_off_c, 0, 81, 57
1, 780547, Control_c, 0, 64, 40
1, 780592, Control_c, 0, 64, 39
1, 780634, Note_on_c, 0, 82, 57
1, 780651, Control_c, 0, 64, 39
1, 780666, Control_c, 0, 64, 38
1, 780671, Note_off_c, 0, 84, 55
1, 780681, Control_c, 0, 64, 38
1, 780686, Note_on_c, 0, 64, 49
1, 780696, Note_on_c, 0, 86, 72
1, 780696, Control_c, 0, 64, 37
1, 780702, Note_on_c, 0, 70, 40
1, 780702, Note_off_c, 0, 82, 62
1, 780711, Control_c, 0, 64, 36
1, 780726, Control_c, 0, 64, 35
1, 780726, Note_off_c, 0, 86, 61
1, 780741, Control_c, 0, 64, 34
1, 780756, Control_c, 0, 64, 32
1, 780759, Note_off_c, 0, 64, 61
1, 780771, Control_c, 0, 64, 30
1, 780785, Control_c, 0, 64, 0
1, 780860, Note_on_c, 0, 84, 76
1, 780882, Note_off_c, 0, 84, 69
1, 781062, Note_on_c, 0, 84, 63
1, 781063, Note_on_c, 0, 60, 44
1, 781137, Note_off_c, 0, 60, 60
1, 781177, Control_c, 0, 64, 35
1, 781192, Control_c, 0, 64, 46
1, 781207, Control_c, 0, 64, 56
1, 781222, Control_c, 0, 64, 62
1, 781236, Control_c, 0, 64, 65
1, 781251, Control_c, 0, 64, 66
1, 781266, Control_c, 0, 64, 68
1, 781281, Control_c, 0, 64, 69
1, 781296, Control_c, 0, 64, 70
1, 781310, Control_c, 0, 64, 70
1, 781365, Note_on_c, 0, 64, 46
1, 781410, Note_off_c, 0, 64, 63
1, 781446, Note_on_c, 0, 83, 59
1, 781451, Note_off_c, 0, 84, 56
1, 781515, Note_off_c, 0, 83, 60
1, 781518, Note_on_c, 0, 82, 65
1, 781569, Note_off_c, 0, 82, 57
1, 781594, Note_on_c, 0, 81, 60
1, 781641, Note_off_c, 0, 81, 58
1, 781649, Note_on_c, 0, 60, 38
1, 781666, Note_on_c, 0, 84, 58
1, 781686, Note_off_c, 0, 60, 51
1, 781702, Note_off_c, 0, 70, 32
1, 781734, Control_c, 0, 64, 70
1, 781738, Note_on_c, 0, 82, 52
1, 781749, Control_c, 0, 64, 69
1, 781764, Control_c, 0, 64, 68
1, 781779, Control_c, 0, 64, 66
1, 781794, Control_c, 0, 64, 63
1, 781802, Note_on_c, 0, 81, 58
1, 781808, Note_off_c, 0, 84, 38
1, 781808, Control_c, 0, 64, 59
1, 781823, Control_c, 0, 64, 53
1, 781824, Note_off_c, 0, 82, 55
1, 781838, Control_c, 0, 64, 43
1, 781853, Control_c, 0, 64, 0
1, 781879, Note_off_c, 0, 81, 63
1, 781884, Note_on_c, 0, 79, 50
1, 781927, Control_c, 0, 64, 39
1, 781942, Control_c, 0, 64, 55
1, 781954, Note_off_c, 0, 79, 61
1, 781957, Control_c, 0, 64, 65
1, 781960, Note_on_c, 0, 77, 61
1, 781963, Note_on_c, 0, 69, 43
1, 781972, Control_c, 0, 64, 71
1, 781975, Note_on_c, 0, 65, 41
1, 781987, Control_c, 0, 64, 76
1, 781999, Note_off_c, 0, 77, 58
1, 782001, Control_c, 0, 64, 78
1, 782012, Note_off_c, 0, 69, 59
1, 782016, Control_c, 0, 64, 79
1, 782019, Note_off_c, 0, 65, 61
1, 782031, Control_c, 0, 64, 80
1, 782105, Control_c, 0, 64, 79
1, 782112, Note_on_c, 0, 79, 55
1, 782134, Control_c, 0, 64, 78
1, 782149, Control_c, 0, 64, 76
1, 782155, Note_off_c, 0, 79, 58
1, 782163, Note_on_c, 0, 77, 57
1, 782164, Control_c, 0, 64, 74
1, 782178, Control_c, 0, 64, 69
1, 782183, Note_off_c, 0, 77, 61
1, 782193, Control_c, 0, 64, 65
1, 782207, Note_on_c, 0, 76, 70
1, 782208, Control_c, 0, 64, 60
1, 782223, Control_c, 0, 64, 54
1, 782232, Note_off_c, 0, 76, 56
1, 782238, Control_c, 0, 64, 49
1, 782247, Note_on_c, 0, 77, 72
1, 782252, Control_c, 0, 64, 43
1, 782267, Control_c, 0, 64, 34
1, 782283, Control_c, 0, 64, 0
1, 782321, Note_on_c, 0, 81, 77
1, 782362, Note_off_c, 0, 77, 64
1, 782454, Control_c, 0, 64, 42
1, 782469, Control_c, 0, 64, 55
1, 782483, Control_c, 0, 64, 64
1, 782498, Control_c, 0, 64, 68
1, 782513, Control_c, 0, 64, 71
1, 782528, Control_c, 0, 64, 74
1, 782543, Control_c, 0, 64, 76
1, 782557, Control_c, 0, 64, 79
1, 782557, Control_c, 0, 67, 121
1, 782572, Control_c, 0, 64, 81
1, 782572, Control_c, 0, 67, 117
1, 782587, Control_c, 0, 64, 83
1, 782601, Control_c, 0, 64, 83
1, 782616, Control_c, 0, 64, 84
1, 782616, Control_c, 0, 67, 119
1, 782620, Note_off_c, 0, 81, 63
1, 782638, Note_on_c, 0, 57, 61
1, 782659, Note_on_c, 0, 53, 58
1, 782750, Control_c, 0, 67, 117
1, 782763, Note_off_c, 0, 57, 64
1, 782771, Note_off_c, 0, 53, 62
1, 782780, Control_c, 0, 64, 83
1, 782793, Note_on_c, 0, 74, 69
1, 782809, Control_c, 0, 64, 82
1, 782824, Control_c, 0, 64, 81
1, 782839, Control_c, 0, 64, 79
1, 782847, Note_off_c, 0, 74, 62
1, 782848, Note_on_c, 0, 72, 63
1, 782854, Control_c, 0, 64, 76
1, 782869, Control_c, 0, 64, 72
1, 782872, Note_off_c, 0, 72, 62
1, 782883, Control_c, 0, 64, 68
1, 782893, Note_on_c, 0, 71, 76
1, 782898, Control_c, 0, 64, 63
1, 782913, Control_c, 0, 64, 58
1, 782913, Control_c, 0, 67, 115
1, 782928, Control_c, 0, 64, 52
1, 782937, Note_on_c, 0, 72, 73
1, 782943, Control_c, 0, 64, 47
1, 782943, Control_c, 0, 67, 112
1, 782944, Note_off_c, 0, 71, 53
1, 782957, Control_c, 0, 64, 40
1, 782972, Control_c, 0, 64, 0
1, 782972, Control_c, 0, 67, 107
1, 782987, Control_c, 0, 67, 89
1, 782998, Note_on_c, 0, 77, 87
1, 783001, Control_c, 0, 67, 67
1, 783016, Control_c, 0, 67, 42
1, 783029, Note_off_c, 0, 72, 61
1, 783031, Control_c, 0, 67, 0
1, 783084, Control_c, 0, 64, 32
1, 783099, Control_c, 0, 64, 47
1, 783114, Control_c, 0, 64, 59
1, 783129, Control_c, 0, 64, 65
1, 783144, Control_c, 0, 64, 68
1, 783159, Control_c, 0, 64, 71
1, 783173, Control_c, 0, 64, 75
1, 783188, Control_c, 0, 64, 78
1, 783203, Control_c, 0, 64, 80
1, 783218, Control_c, 0, 64, 81
1, 783232, Control_c, 0, 64, 82
1, 783336, Control_c, 0, 64, 81
1, 783351, Control_c, 0, 64, 81
1, 783357, Note_on_c, 0, 45, 49
1, 783366, Control_c, 0, 64, 80
1, 783369, Note_on_c, 0, 41, 48
1, 783380, Control_c, 0, 64, 78
1, 783395, Control_c, 0, 64, 76
1, 783410, Control_c, 0, 64, 71
1, 783424, Control_c, 0, 64, 66
1, 783439, Control_c, 0, 64, 61
1, 783454, Control_c, 0, 64, 56
1, 783469, Control_c, 0, 64, 53
1, 783470, Note_on_c, 0, 69, 55
1, 783484, Control_c, 0, 64, 51
1, 783498, Control_c, 0, 64, 50
1, 783517, Note_off_c, 0, 77, 48
1, 783558, Control_c, 0, 64, 51
1, 783573, Control_c, 0, 64, 51
1, 783576, Note_on_c, 0, 72, 54
1, 783601, Note_off_c, 0, 69, 58
1, 783603, Control_c, 0, 64, 52
1, 783618, Control_c, 0, 64, 52
1, 783644, Note_off_c, 0, 72, 61
1, 783647, Control_c, 0, 64, 53
1, 783662, Control_c, 0, 67, 36
1, 783675, Note_on_c, 0, 65, 61
1, 783677, Control_c, 0, 64, 53
1, 783677, Control_c, 0, 67, 49
1, 783692, Control_c, 0, 67, 68
1, 783706, Control_c, 0, 67, 91
1, 783721, Control_c, 0, 67, 117
1, 783736, Control_c, 0, 67, 127
1, 783781, Note_on_c, 0, 69, 66
1, 783802, Control_c, 0, 64, 53
1, 783807, Note_off_c, 0, 65, 47
1, 783832, Control_c, 0, 64, 52
1, 783847, Control_c, 0, 64, 51
1, 783862, Control_c, 0, 64, 50
1, 783877, Control_c, 0, 64, 48
1, 783883, Note_off_c, 0, 69, 59
1, 783892, Control_c, 0, 64, 44
1, 783894, Note_on_c, 0, 60, 62
1, 783907, Control_c, 0, 64, 39
1, 783922, Control_c, 0, 64, 0
1, 783981, Note_off_c, 0, 60, 60
1, 783991, Note_on_c, 0, 65, 63
1, 784044, Note_off_c, 0, 65, 61
1, 784088, Note_on_c, 0, 57, 63
1, 784170, Note_off_c, 0, 57, 57
1, 784196, Note_on_c, 0, 60, 62
1, 784311, Note_on_c, 0, 53, 60
1, 784314, Note_off_c, 0, 60, 58
1, 784374, Note_off_c, 0, 53, 62
1, 784408, Note_on_c, 0, 57, 54
1, 784425, Control_c, 0, 64, 34
1, 784433, Note_off_c, 0, 45, 60
1, 784440, Control_c, 0, 64, 41
1, 784455, Control_c, 0, 64, 48
1, 784470, Control_c, 0, 64, 54
1, 784485, Control_c, 0, 64, 57
1, 784500, Control_c, 0, 64, 59
1, 784506, Note_off_c, 0, 41, 53
1, 784515, Control_c, 0, 64, 59
1, 784520, Note_on_c, 0, 48, 71
1, 784524, Note_off_c, 0, 57, 57
1, 784580, Control_c, 0, 64, 59
1, 784595, Control_c, 0, 64, 58
1, 784610, Control_c, 0, 64, 57
1, 784625, Control_c, 0, 64, 55
1, 784640, Control_c, 0, 64, 52
1, 784655, Control_c, 0, 64, 48
1, 784670, Control_c, 0, 64, 43
1, 784674, Note_on_c, 0, 53, 71
1, 784679, Note_on_c, 0, 41, 44
1, 784685, Control_c, 0, 64, 38
1, 784700, Control_c, 0, 64, 32
1, 784715, Control_c, 0, 64, 0
1, 784744, Note_off_c, 0, 48, 38
1, 784841, Note_on_c, 0, 43, 54
1, 784912, Note_off_c, 0, 41, 37
1, 785002, Note_on_c, 0, 45, 62
1, 785037, Note_off_c, 0, 43, 53
1, 785162, Note_on_c, 0, 43, 66
1, 785186, Note_off_c, 0, 45, 58
1, 785321, Note_off_c, 0, 43, 62
1, 785328, Note_on_c, 0, 41, 61
1, 785348, Note_on_c, 0, 57, 75
1, 785483, Note_on_c, 0, 40, 63
1, 785493, Note_off_c, 0, 41, 57
1, 785600, Note_off_c, 0, 40, 49
1, 785651, Note_on_c, 0, 38, 67
1, 785656, Note_off_c, 0, 53, 37
1, 785731, Control_c, 0, 64, 39
1, 785746, Control_c, 0, 64, 49
1, 785761, Control_c, 0, 64, 56
1, 785775, Control_c, 0, 64, 59
1, 785790, Control_c, 0, 64, 60
1, 785805, Note_on_c, 0, 36, 67
1, 785805, Control_c, 0, 64, 60
1, 785834, Control_c, 0, 67, 118
1, 785835, Note_off_c, 0, 38, 58
1, 785849, Control_c, 0, 67, 112
1, 785864, Control_c, 0, 67, 110
1, 785880, Note_off_c, 0, 57, 64
1, 785893, Control_c, 0, 64, 59
1, 785908, Control_c, 0, 64, 58
1, 785923, Control_c, 0, 64, 56
1, 785938, Control_c, 0, 64, 53
1, 785953, Control_c, 0, 64, 49
1, 785967, Control_c, 0, 64, 44
1, 785982, Control_c, 0, 64, 38
1, 785984, Note_on_c, 0, 57, 67
1, 785990, Note_on_c, 0, 34, 57
1, 785997, Control_c, 0, 64, 30
1, 786005, Note_off_c, 0, 36, 54
1, 786012, Control_c, 0, 64, 0
1, 786151, Note_on_c, 0, 55, 69
1, 786157, Note_off_c, 0, 34, 55
1, 786158, Note_on_c, 0, 31, 49
1, 786212, Control_c, 0, 67, 112
1, 786220, Note_off_c, 0, 57, 64
1, 786236, Note_off_c, 0, 55, 62
1, 786241, Control_c, 0, 67, 114
1, 786299, Note_on_c, 0, 55, 69
1, 786309, Note_on_c, 0, 36, 56
1, 786317, Control_c, 0, 67, 116
1, 786329, Note_off_c, 0, 31, 54
1, 786346, Control_c, 0, 67, 118
1, 786391, Control_c, 0, 67, 120
1, 786420, Control_c, 0, 67, 122
1, 786449, Control_c, 0, 67, 125
1, 786455, Note_on_c, 0, 52, 69
1, 786457, Note_on_c, 0, 34, 63
1, 786464, Control_c, 0, 67, 127
1, 786492, Note_off_c, 0, 36, 51
1, 786525, Note_off_c, 0, 52, 63
1, 786533, Note_off_c, 0, 55, 63
1, 786609, Note_off_c, 0, 34, 57
1, 786616, Note_on_c, 0, 53, 73
1, 786628, Note_on_c, 0, 33, 52
1, 786780, Note_on_c, 0, 29, 54
1, 786780, Note_off_c, 0, 33, 52
1, 786944, Note_on_c, 0, 38, 62
1, 786985, Note_off_c, 0, 29, 51
1, 787112, Note_on_c, 0, 57, 74
1, 787116, Note_on_c, 0, 36, 58
1, 787146, Note_off_c, 0, 38, 55
1, 787161, Note_off_c, 0, 53, 61
1, 787203, Note_off_c, 0, 57, 64
1, 787272, Note_on_c, 0, 57, 72
1, 787278, Note_on_c, 0, 34, 59
1, 787284, Note_off_c, 0, 36, 54
1, 787415, Note_on_c, 0, 31, 56
1, 787421, Note_off_c, 0, 34, 56
1, 787424, Note_on_c, 0, 55, 76
1, 787507, Note_off_c, 0, 57, 64
1, 787517, Note_off_c, 0, 55, 63
1, 787591, Note_on_c, 0, 36, 57
1, 787592, Note_on_c, 0, 55, 76
1, 787672, Note_off_c, 0, 31, 36
1, 787746, Note_on_c, 0, 52, 75
1, 787752, Note_on_c, 0, 34, 58
1, 787755, Note_off_c, 0, 55, 62
1, 787759, Note_off_c, 0, 36, 56
1, 787908, Note_off_c, 0, 34, 57
1, 787925, Note_on_c, 0, 33, 54
1, 787931, Note_on_c, 0, 60, 73
1, 788074, Note_on_c, 0, 36, 54
1, 788089, Note_off_c, 0, 33, 55
1, 788126, Note_off_c, 0, 52, 46
1, 788164, Note_off_c, 0, 36, 59
1, 788227, Note_on_c, 0, 41, 42
1, 788381, Note_off_c, 0, 41, 58
1, 788405, Note_on_c, 0, 40, 44
1, 788549, Note_off_c, 0, 40, 60
1, 788581, Note_on_c, 0, 38, 45
1, 788767, Note_on_c, 0, 31, 41
1, 788767, Note_on_c, 0, 62, 53
1, 788787, Note_off_c, 0, 60, 52
1, 788793, Note_off_c, 0, 38, 41
1, 788973, Note_on_c, 0, 60, 52
1, 788977, Note_on_c, 0, 33, 47
1, 789036, Note_off_c, 0, 31, 41
1, 789049, Note_off_c, 0, 62, 37
1, 789058, Note_on_c, 0, 58, 63
1, 789070, Note_off_c, 0, 60, 61
1, 789114, Note_off_c, 0, 33, 55
1, 789129, Note_on_c, 0, 57, 62
1, 789156, Note_on_c, 0, 34, 41
1, 789158, Note_off_c, 0, 58, 57
1, 789168, Note_off_c, 0, 57, 63
1, 789213, Note_on_c, 0, 55, 56
1, 789266, Note_off_c, 0, 55, 61
1, 789293, Note_on_c, 0, 53, 54
1, 789310, Note_on_c, 0, 36, 48
1, 789321, Note_off_c, 0, 34, 39
1, 789457, Note_off_c, 0, 36, 53
1, 789479, Note_on_c, 0, 35, 43
1, 789566, Note_off_c, 0, 35, 46
1, 789633, Note_on_c, 0, 52, 54
1, 789653, Note_on_c, 0, 36, 31
1, 789665, Note_off_c, 0, 53, 62
1, 789800, Note_off_c, 0, 36, 37
1, 789812, Note_on_c, 0, 34, 46
1, 789922, Note_off_c, 0, 34, 60
1, 789959, Note_on_c, 0, 53, 53
1, 789961, Note_on_c, 0, 33, 53
1, 789988, Note_off_c, 0, 52, 54
1, 790108, Note_on_c, 0, 41, 51
1, 790110, Note_off_c, 0, 33, 36
1, 790168, Note_off_c, 0, 41, 58
1, 790271, Note_on_c, 0, 45, 55
1, 790358, Note_off_c, 0, 45, 57
1, 790379, Note_off_c, 0, 53, 51
1, 790429, Note_on_c, 0, 55, 51
1, 790445, Note_on_c, 0, 43, 51
1, 790493, Note_on_c, 0, 53, 60
1, 790499, Note_off_c, 0, 55, 60
1, 790508, Note_off_c, 0, 43, 50
1, 790531, Note_off_c, 0, 53, 61
1, 790562, Note_on_c, 0, 52, 59
1, 790610, Note_off_c, 0, 52, 53
1, 790613, Note_on_c, 0, 53, 43
1, 790658, Note_on_c, 0, 41, 54
1, 790681, Note_on_c, 0, 57, 52
1, 790691, Note_off_c, 0, 53, 52
1, 790700, Note_off_c, 0, 41, 60
1, 790825, Note_on_c, 0, 40, 57
1, 790869, Note_off_c, 0, 40, 59
1, 790972, Note_on_c, 0, 38, 49
1, 791018, Note_off_c, 0, 38, 60
1, 791130, Note_on_c, 0, 36, 52
1, 791186, Note_off_c, 0, 36, 54
1, 791201, Note_off_c, 0, 57, 61
1, 791297, Note_on_c, 0, 57, 49
1, 791304, Note_on_c, 0, 34, 52
1, 791438, Note_off_c, 0, 34, 53
1, 791449, Note_on_c, 0, 55, 58
1, 791457, Note_on_c, 0, 31, 41
1, 791487, Note_off_c, 0, 57, 64
1, 791505, Note_off_c, 0, 55, 60
1, 791538, Note_off_c, 0, 31, 52
1, 791612, Note_on_c, 0, 55, 57
1, 791624, Note_on_c, 0, 36, 38
1, 791690, Note_off_c, 0, 36, 51
1, 791759, Note_on_c, 0, 34, 58
1, 791761, Note_on_c, 0, 52, 65
1, 791816, Note_off_c, 0, 55, 50
1, 791855, Note_off_c, 0, 34, 46
1, 791925, Note_on_c, 0, 53, 51
1, 791925, Note_on_c, 0, 33, 50
1, 791978, Note_off_c, 0, 52, 36
1, 792016, Note_off_c, 0, 53, 55
1, 792026, Note_off_c, 0, 33, 36
1, 792083, Note_on_c, 0, 29, 43
1, 792085, Note_on_c, 0, 55, 52
1, 792133, Note_off_c, 0, 55, 62
1, 792142, Note_on_c, 0, 53, 59
1, 792180, Note_off_c, 0, 53, 61
1, 792198, Note_on_c, 0, 52, 59
1, 792245, Note_on_c, 0, 38, 45
1, 792259, Note_on_c, 0, 53, 48
1, 792280, Note_off_c, 0, 29, 39
1, 792283, Note_off_c, 0, 52, 53
1, 792387, Note_on_c, 0, 57, 56
1, 792402, Note_off_c, 0, 53, 32
1, 792407, Note_on_c, 0, 36, 44
1, 792417, Note_off_c, 0, 38, 39
1, 792426, Note_off_c, 0, 57, 63
1, 792501, Note_off_c, 0, 36, 52
1, 792546, Note_on_c, 0, 57, 62
1, 792560, Note_on_c, 0, 34, 47
1, 792705, Note_on_c, 0, 55, 61
1, 792709, Note_off_c, 0, 34, 50
1, 792718, Note_on_c, 0, 31, 40
1, 792729, Note_off_c, 0, 57, 64
1, 792737, Note_off_c, 0, 55, 64
1, 792841, Note_off_c, 0, 31, 34
1, 792877, Note_on_c, 0, 55, 56
1, 792878, Note_on_c, 0, 36, 42
1, 793003, Note_off_c, 0, 55, 62
1, 793012, Note_off_c, 0, 36, 49
1, 793025, Note_on_c, 0, 34, 45
1, 793036, Note_on_c, 0, 52, 48
1, 793085, Note_off_c, 0, 52, 44
1, 793105, Note_off_c, 0, 34, 50
1, 793196, Note_on_c, 0, 60, 58
1, 793199, Note_on_c, 0, 33, 45
1, 793356, Note_on_c, 0, 36, 41
1, 793374, Note_off_c, 0, 33, 36
1, 793423, Note_off_c, 0, 36, 60
1, 793538, Note_on_c, 0, 41, 30
1, 793552, Control_c, 0, 64, 33
1, 793566, Control_c, 0, 64, 38
1, 793581, Control_c, 0, 64, 43
1, 793596, Control_c, 0, 64, 48
1, 793611, Control_c, 0, 64, 53
1, 793626, Control_c, 0, 64, 55
1, 793640, Control_c, 0, 64, 56
1, 793696, Note_off_c, 0, 41, 36
1, 793714, Note_on_c, 0, 40, 33
1, 793714, Control_c, 0, 64, 57
1, 793774, Control_c, 0, 64, 56
1, 793803, Control_c, 0, 64, 56
1, 793818, Control_c, 0, 64, 55
1, 793827, Note_off_c, 0, 40, 37
1, 793833, Control_c, 0, 64, 54
1, 793848, Control_c, 0, 64, 53
1, 793860, Note_on_c, 0, 38, 36
1, 793863, Control_c, 0, 64, 52
1, 793878, Control_c, 0, 64, 51
1, 793893, Control_c, 0, 64, 50
1, 793907, Control_c, 0, 64, 49
1, 793922, Control_c, 0, 64, 48
1, 793937, Control_c, 0, 64, 47
1, 793952, Control_c, 0, 64, 46
1, 793966, Control_c, 0, 64, 45
1, 793981, Control_c, 0, 64, 45
1, 793996, Control_c, 0, 64, 44
1, 794011, Control_c, 0, 64, 44
1, 794026, Control_c, 0, 64, 43
1, 794037, Note_on_c, 0, 31, 43
1, 794040, Control_c, 0, 64, 43
1, 794054, Note_off_c, 0, 38, 39
1, 794054, Note_off_c, 0, 60, 36
1, 794055, Control_c, 0, 64, 42
1, 794061, Note_on_c, 0, 62, 33
1, 794070, Control_c, 0, 64, 42
1, 794085, Control_c, 0, 64, 41
1, 794100, Control_c, 0, 64, 41
1, 794129, Control_c, 0, 64, 40
1, 794144, Control_c, 0, 64, 40
1, 794290, Note_on_c, 0, 60, 46
1, 794302, Note_on_c, 0, 33, 45
1, 794361, Note_off_c, 0, 31, 42
1, 794372, Note_on_c, 0, 58, 50
1, 794379, Note_off_c, 0, 62, 43
1, 794385, Note_off_c, 0, 60, 57
1, 794397, Note_off_c, 0, 33, 53
1, 794405, Control_c, 0, 64, 40
1, 794445, Note_on_c, 0, 57, 54
1, 794464, Note_on_c, 0, 34, 36
1, 794487, Note_off_c, 0, 58, 38
1, 794488, Note_off_c, 0, 57, 64
1, 794528, Note_off_c, 0, 34, 43
1, 794537, Note_on_c, 0, 55, 48
1, 794563, Note_off_c, 0, 55, 57
1, 794582, Control_c, 0, 64, 40
1, 794612, Control_c, 0, 64, 39
1, 794627, Control_c, 0, 64, 38
1, 794632, Note_on_c, 0, 36, 41
1, 794642, Control_c, 0, 64, 38
1, 794655, Note_on_c, 0, 55, 39
1, 794656, Control_c, 0, 64, 37
1, 794671, Control_c, 0, 64, 36
1, 794686, Control_c, 0, 64, 36
1, 794701, Control_c, 0, 64, 35
1, 794716, Control_c, 0, 64, 34
1, 794730, Control_c, 0, 64, 33
1, 794745, Control_c, 0, 64, 32
1, 794760, Control_c, 0, 64, 32
1, 794784, Note_off_c, 0, 36, 59
1, 794801, Note_on_c, 0, 53, 47
1, 794815, Note_off_c, 0, 55, 60
1, 794820, Control_c, 0, 64, 30
1, 794833, Note_off_c, 0, 53, 63
1, 794835, Control_c, 0, 64, 0
1, 794966, Note_on_c, 0, 36, 32
1, 794972, Note_on_c, 0, 53, 38
1, 795142, Note_off_c, 0, 53, 54
1, 795147, Note_on_c, 0, 52, 41
1, 795214, Note_off_c, 0, 36, 27
1, 795349, Note_on_c, 0, 53, 25
1, 795372, Note_on_c, 0, 29, 31
1, 795373, Note_off_c, 0, 52, 42
1, 795376, Note_on_c, 0, 41, 23
1, 795464, Control_c, 0, 64, 32
1, 795479, Control_c, 0, 64, 42
1, 795494, Control_c, 0, 64, 51
1, 795508, Control_c, 0, 64, 58
1, 795523, Control_c, 0, 64, 61
1, 795538, Control_c, 0, 64, 63
1, 795538, Note_off_c, 0, 41, 44
1, 795553, Control_c, 0, 64, 64
1, 795568, Control_c, 0, 64, 64
1, 795583, Note_off_c, 0, 29, 42
1, 795589, Note_off_c, 0, 53, 55
1, 795598, Control_c, 0, 67, 111
1, 795612, Control_c, 0, 67, 90
1, 795627, Control_c, 0, 67, 65
1, 795642, Control_c, 0, 67, 0
1, 795672, Control_c, 0, 64, 64
1, 795686, Control_c, 0, 64, 62
1, 795701, Control_c, 0, 64, 61
1, 795716, Control_c, 0, 64, 58
1, 795730, Control_c, 0, 64, 55
1, 795745, Control_c, 0, 64, 52
1, 795760, Control_c, 0, 64, 48
1, 795775, Control_c, 0, 64, 46
1, 795798, Control_c, 0, 64, 44
1, 795812, Control_c, 0, 64, 42
1, 795827, Control_c, 0, 64, 41
1, 795842, Control_c, 0, 64, 39
1, 795857, Control_c, 0, 64, 37
1, 795872, Control_c, 0, 64, 35
1, 795887, Control_c, 0, 64, 35
1, 795917, Control_c, 0, 64, 34
1, 795976, Control_c, 0, 64, 34
1, 796021, Control_c, 0, 64, 33
1, 796035, Control_c, 0, 64, 33
1, 796048, Note_on_c, 0, 48, 51
1, 796050, Control_c, 0, 64, 32
1, 796095, Control_c, 0, 64, 33
1, 796109, Control_c, 0, 64, 35
1, 796124, Control_c, 0, 64, 39
1, 796139, Control_c, 0, 64, 45
1, 796153, Control_c, 0, 64, 51
1, 796168, Control_c, 0, 64, 57
1, 796183, Control_c, 0, 64, 61
1, 796183, Control_c, 0, 67, 36
1, 796198, Control_c, 0, 64, 63
1, 796198, Control_c, 0, 67, 45
1, 796213, Control_c, 0, 64, 64
1, 796213, Control_c, 0, 67, 55
1, 796227, Control_c, 0, 64, 65
1, 796227, Control_c, 0, 67, 70
1, 796241, Note_on_c, 0, 58, 71
1, 796242, Control_c, 0, 64, 65
1, 796242, Control_c, 0, 67, 88
1, 796257, Control_c, 0, 67, 108
1, 796272, Control_c, 0, 64, 66
1, 796272, Control_c, 0, 67, 127
1, 796361, Control_c, 0, 64, 65
1, 796376, Control_c, 0, 64, 65
1, 796391, Control_c, 0, 64, 64
1, 796406, Control_c, 0, 64, 63
1, 796409, Note_off_c, 0, 48, 33
1, 796412, Note_on_c, 0, 52, 64
1, 796420, Control_c, 0, 64, 61
1, 796435, Control_c, 0, 64, 60
1, 796448, Note_off_c, 0, 58, 53
1, 796450, Control_c, 0, 64, 58
1, 796465, Note_off_c, 0, 52, 60
1, 796465, Control_c, 0, 64, 55
1, 796480, Control_c, 0, 64, 52
1, 796495, Control_c, 0, 64, 49
1, 796509, Control_c, 0, 64, 47
1, 796531, Control_c, 0, 64, 44
1, 796546, Control_c, 0, 64, 41
1, 796561, Control_c, 0, 64, 37
1, 796574, Note_on_c, 0, 36, 45
1, 796576, Control_c, 0, 64, 32
1, 796579, Note_on_c, 0, 46, 40
1, 796590, Note_on_c, 0, 52, 52
1, 796591, Control_c, 0, 64, 30
1, 796605, Control_c, 0, 64, 0
1, 796623, Note_off_c, 0, 52, 62
1, 796713, Note_off_c, 0, 46, 35
1, 796758, Note_on_c, 0, 52, 47
1, 796811, Note_off_c, 0, 52, 51
1, 796963, Note_on_c, 0, 53, 45
1, 796972, Note_on_c, 0, 41, 22
1, 796993, Note_on_c, 0, 45, 24
1, 797075, Note_off_c, 0, 36, 20
1, 797228, Note_off_c, 0, 53, 37
1, 797244, Note_off_c, 0, 45, 34
1, 797282, Note_off_c, 0, 41, 39
1, 797702, Note_on_c, 0, 48, 43
1, 797947, Note_on_c, 0, 58, 50
1, 797955, Note_off_c, 0, 48, 25
1, 798029, Control_c, 0, 64, 33
1, 798044, Control_c, 0, 64, 38
1, 798060, Control_c, 0, 64, 43
1, 798075, Control_c, 0, 64, 47
1, 798089, Control_c, 0, 64, 51
1, 798104, Control_c, 0, 64, 54
1, 798119, Control_c, 0, 64, 55
1, 798148, Note_on_c, 0, 52, 55
1, 798148, Control_c, 0, 64, 54
1, 798165, Note_off_c, 0, 58, 54
1, 798178, Control_c, 0, 64, 54
1, 798188, Note_off_c, 0, 52, 63
1, 798193, Control_c, 0, 64, 53
1, 798207, Control_c, 0, 64, 52
1, 798222, Control_c, 0, 64, 52
1, 798237, Control_c, 0, 64, 50
1, 798253, Control_c, 0, 64, 48
1, 798268, Control_c, 0, 64, 45
1, 798283, Control_c, 0, 64, 42
1, 798297, Control_c, 0, 64, 39
1, 798312, Control_c, 0, 64, 36
1, 798315, Note_on_c, 0, 52, 61
1, 798316, Note_on_c, 0, 36, 51
1, 798317, Note_on_c, 0, 46, 50
1, 798327, Control_c, 0, 64, 34
1, 798342, Control_c, 0, 64, 32
1, 798356, Note_off_c, 0, 52, 56
1, 798356, Control_c, 0, 64, 30
1, 798357, Note_off_c, 0, 46, 61
1, 798367, Note_off_c, 0, 36, 58
1, 798371, Control_c, 0, 64, 0
1, 798460, Control_c, 0, 67, 125
1, 798475, Control_c, 0, 67, 123
1, 798483, Note_on_c, 0, 52, 59
1, 798513, Note_off_c, 0, 52, 64
1, 798564, Control_c, 0, 67, 125
1, 798638, Control_c, 0, 67, 127
1, 798655, Note_on_c, 0, 60, 64
1, 798756, Control_c, 0, 67, 124
1, 798779, Control_c, 0, 67, 122
1, 798793, Control_c, 0, 67, 119
1, 798808, Control_c, 0, 67, 116
1, 798823, Control_c, 0, 67, 101
1, 798836, Note_on_c, 0, 53, 63
1, 798837, Control_c, 0, 67, 76
1, 798852, Control_c, 0, 67, 52
1, 798867, Control_c, 0, 67, 0
1, 798887, Note_off_c, 0, 53, 56
1, 798916, Note_off_c, 0, 60, 56
1, 799017, Note_on_c, 0, 53, 61
1, 799020, Note_on_c, 0, 41, 46
1, 799028, Note_on_c, 0, 45, 37
1, 799090, Note_off_c, 0, 53, 56
1, 799103, Note_off_c, 0, 45, 55
1, 799124, Note_off_c, 0, 41, 49
1, 799222, Note_on_c, 0, 53, 67
1, 799223, Control_c, 0, 64, 36
1, 799238, Control_c, 0, 64, 42
1, 799252, Control_c, 0, 64, 47
1, 799267, Control_c, 0, 64, 51
1, 799282, Control_c, 0, 64, 54
1, 799291, Note_off_c, 0, 53, 59
1, 799297, Control_c, 0, 64, 55
1, 799312, Control_c, 0, 64, 55
1, 799386, Control_c, 0, 64, 55
1, 799401, Control_c, 0, 64, 54
1, 799416, Control_c, 0, 64, 53
1, 799431, Control_c, 0, 64, 52
1, 799446, Control_c, 0, 64, 51
1, 799460, Control_c, 0, 64, 49
1, 799467, Note_on_c, 0, 62, 55
1, 799475, Control_c, 0, 64, 45
1, 799490, Control_c, 0, 64, 40
1, 799504, Control_c, 0, 64, 31
1, 799504, Control_c, 0, 67, 51
1, 799527, Control_c, 0, 64, 0
1, 799527, Control_c, 0, 67, 81
1, 799542, Control_c, 0, 67, 114
1, 799557, Control_c, 0, 67, 127
1, 799616, Control_c, 0, 64, 31
1, 799631, Control_c, 0, 64, 43
1, 799646, Control_c, 0, 64, 52
1, 799660, Control_c, 0, 64, 57
1, 799675, Control_c, 0, 64, 61
1, 799690, Control_c, 0, 64, 63
1, 799704, Control_c, 0, 64, 66
1, 799719, Control_c, 0, 64, 68
1, 799731, Note_on_c, 0, 52, 48
1, 799734, Control_c, 0, 64, 71
1, 799749, Control_c, 0, 64, 72
1, 799764, Control_c, 0, 64, 72
1, 799778, Control_c, 0, 64, 73
1, 799783, Note_off_c, 0, 52, 56
1, 799905, Note_off_c, 0, 62, 26
1, 799927, Control_c, 0, 64, 72
1, 799942, Control_c, 0, 64, 72
1, 799957, Control_c, 0, 64, 71
1, 799972, Control_c, 0, 64, 69
1, 799987, Control_c, 0, 64, 67
1, 800001, Control_c, 0, 64, 64
1, 800005, Note_on_c, 0, 52, 48
1, 800016, Control_c, 0, 64, 59
1, 800019, Note_on_c, 0, 36, 40
1, 800020, Note_on_c, 0, 46, 40
1, 800031, Control_c, 0, 64, 52
1, 800046, Control_c, 0, 64, 44
1, 800061, Control_c, 0, 64, 37
1, 800075, Control_c, 0, 64, 35
1, 800090, Control_c, 0, 64, 36
1, 800105, Control_c, 0, 64, 41
1, 800120, Control_c, 0, 64, 50
1, 800135, Control_c, 0, 64, 59
1, 800150, Control_c, 0, 64, 64
1, 800162, Note_off_c, 0, 52, 35
1, 800165, Control_c, 0, 64, 67
1, 800171, Note_off_c, 0, 46, 51
1, 800180, Control_c, 0, 64, 69
1, 800194, Control_c, 0, 64, 71
1, 800209, Control_c, 0, 64, 72
1, 800224, Control_c, 0, 64, 74
1, 800225, Note_off_c, 0, 36, 31
1, 800239, Control_c, 0, 64, 76
1, 800254, Control_c, 0, 64, 78
1, 800275, Control_c, 0, 64, 80
1, 800290, Control_c, 0, 64, 82
1, 800305, Control_c, 0, 64, 83
1, 800320, Control_c, 0, 64, 85
1, 800335, Control_c, 0, 64, 85
1, 800349, Control_c, 0, 64, 86
1, 800364, Control_c, 0, 64, 87
1, 800394, Control_c, 0, 64, 87
1, 800421, Note_on_c, 0, 52, 39
1, 800513, Note_off_c, 0, 52, 56
1, 800513, Control_c, 0, 64, 88
1, 800587, Control_c, 0, 64, 88
1, 800692, Control_c, 0, 64, 89
1, 801055, Control_c, 0, 64, 88
1, 801144, Control_c, 0, 64, 88
1, 801173, Control_c, 0, 64, 87
1, 801188, Control_c, 0, 64, 87
1, 801203, Control_c, 0, 64, 86
1, 801218, Control_c, 0, 64, 85
1, 801232, Control_c, 0, 64, 84
1, 801247, Control_c, 0, 64, 84
1, 801262, Control_c, 0, 64, 82
1, 801266, Note_on_c, 0, 52, 41
1, 801274, Note_on_c, 0, 46, 33
1, 801276, Control_c, 0, 64, 80
1, 801291, Control_c, 0, 64, 78
1, 801299, Note_on_c, 0, 41, 32
1, 801306, Control_c, 0, 64, 75
1, 801312, Note_on_c, 0, 29, 36
1, 801321, Control_c, 0, 64, 71
1, 801336, Control_c, 0, 64, 68
1, 801351, Control_c, 0, 64, 64
1, 801366, Control_c, 0, 64, 60
1, 801381, Control_c, 0, 64, 56
1, 801396, Control_c, 0, 64, 52
1, 801411, Control_c, 0, 64, 50
1, 801425, Control_c, 0, 64, 48
1, 801440, Control_c, 0, 64, 47
1, 801455, Control_c, 0, 64, 45
1, 801470, Control_c, 0, 64, 42
1, 801485, Control_c, 0, 64, 39
1, 801500, Control_c, 0, 64, 37
1, 801515, Control_c, 0, 64, 37
1, 801530, Control_c, 0, 64, 36
1, 801545, Control_c, 0, 64, 36
1, 801560, Control_c, 0, 64, 35
1, 801619, Control_c, 0, 64, 36
1, 801634, Control_c, 0, 64, 37
1, 801648, Control_c, 0, 64, 40
1, 801663, Control_c, 0, 64, 43
1, 801678, Control_c, 0, 64, 49
1, 801692, Control_c, 0, 64, 53
1, 801707, Control_c, 0, 64, 57
1, 801722, Control_c, 0, 64, 60
1, 801737, Control_c, 0, 64, 62
1, 801752, Control_c, 0, 64, 64
1, 801774, Control_c, 0, 64, 66
1, 801789, Control_c, 0, 64, 67
1, 801804, Control_c, 0, 64, 69
1, 801819, Control_c, 0, 64, 70
1, 801834, Control_c, 0, 64, 72
1, 801848, Control_c, 0, 64, 73
1, 801863, Control_c, 0, 64, 74
1, 801878, Control_c, 0, 64, 75
1, 801893, Control_c, 0, 64, 76
1, 801907, Control_c, 0, 64, 77
1, 801922, Control_c, 0, 64, 78
1, 801937, Control_c, 0, 64, 80
1, 801952, Control_c, 0, 64, 81
1, 801967, Control_c, 0, 64, 82
1, 801981, Control_c, 0, 64, 83
1, 801996, Control_c, 0, 64, 84
1, 802011, Control_c, 0, 64, 85
1, 802026, Control_c, 0, 64, 87
1, 802041, Control_c, 0, 64, 88
1, 802055, Control_c, 0, 64, 89
1, 802070, Control_c, 0, 64, 90
1, 802085, Control_c, 0, 64, 90
1, 802099, Control_c, 0, 64, 91
1, 802114, Control_c, 0, 64, 92
1, 802129, Control_c, 0, 64, 92
1, 802144, Control_c, 0, 64, 93
1, 802174, Control_c, 0, 64, 93
1, 802189, Control_c, 0, 64, 94
1, 802218, Control_c, 0, 64, 94
1, 802264, Control_c, 0, 64, 95
1, 802893, Control_c, 0, 64, 94
1, 802967, Control_c, 0, 64, 94
1, 803087, Control_c, 0, 64, 93
1, 803131, Control_c, 0, 64, 93
1, 803175, Control_c, 0, 64, 92
1, 803205, Control_c, 0, 64, 92
1, 803220, Control_c, 0, 64, 91
1, 803249, Note_on_c, 0, 53, 33
1, 803250, Control_c, 0, 64, 91
1, 803268, Note_on_c, 0, 45, 23
1, 803272, Control_c, 0, 64, 90
1, 803287, Control_c, 0, 64, 89
1, 803300, Control_c, 0, 64, 87
1, 803315, Control_c, 0, 64, 84
1, 803330, Control_c, 0, 64, 81
1, 803344, Control_c, 0, 64, 79
1, 803359, Control_c, 0, 64, 76
1, 803374, Control_c, 0, 64, 71
1, 803389, Control_c, 0, 64, 66
1, 803404, Control_c, 0, 64, 62
1, 803412, Note_off_c, 0, 52, 38
1, 803418, Control_c, 0, 64, 59
1, 803433, Control_c, 0, 64, 57
1, 803439, Note_off_c, 0, 46, 38
1, 803448, Control_c, 0, 64, 55
1, 803463, Control_c, 0, 64, 53
1, 803477, Control_c, 0, 64, 51
1, 803492, Control_c, 0, 64, 48
1, 803507, Control_c, 0, 64, 46
1, 803522, Control_c, 0, 64, 45
1, 803537, Control_c, 0, 64, 44
1, 803551, Control_c, 0, 64, 42
1, 803566, Control_c, 0, 64, 40
1, 803581, Control_c, 0, 64, 38
1, 803596, Control_c, 0, 64, 36
1, 803611, Control_c, 0, 64, 35
1, 803625, Control_c, 0, 64, 33
1, 803640, Control_c, 0, 64, 32
1, 803670, Control_c, 0, 64, 0
1, 805444, Note_off_c, 0, 41, 28
1, 805460, Note_off_c, 0, 53, 40
1, 805470, Note_off_c, 0, 45, 35
1, 805482, Note_off_c, 0, 29, 38
1, 807763, Control_c, 0, 67, 114
1, 807778, Control_c, 0, 67, 85
1, 807793, Control_c, 0, 67, 56
1, 807808, Control_c, 0, 67, 0
1, 807808, End_track
0, 0, End_of_file
