0, 0, Header, 0, 1, 384
1, 0, Start_track
1, 0, Title_t, "Isoldas Lieb.--Edisher Savitski "
1, 0, Text_t, "2006 International Piano-e-Competition Recital Round"
1, 0, Text_t, "St. Paul, Minnesota, July 2006"
1, 0, Text_t, "http://www.piano-e-competition.com/"
1, 0, Instrument_name_t, "Yamaha Disklavier Pro Mark IV concert grand piano"
1, 0, Sequencer_specific, 39, 67, 113, 0, 1, 0, 1, 0, 73, 115, 111, 108, 100, 97, 115, 76, 105, 101, 98, 101, 115, 116, 111, 100, 69, 100, 105, 115, 104, 101, 114, 32, 83, 97, 118, 105, 116, 115, 107, 105
1, 0, Sequencer_specific, 6, 67, 113, 0, 0, 0, 69
1, 0, System_exclusive, 21, 67, 113, 126, 21, 0, 2, 2, 0, 14, 5, 1, 4, 4, 10, 10, 14, 11, 9, 4, 0, 247
1, 0, Sequencer_specific, 5, 67, 123, 12, 2, 1
1, 0, Tempo, 512820
1, 0, Time_signature, 4, 2, 24, 8
1, 0, System_exclusive, 5, 126, 127, 9, 1, 247
1, 1, System_exclusive, 8, 67, 16, 76, 0, 0, 126, 0, 247
1, 2, System_exclusive, 8, 67, 16, 76, 8, 9, 7, 1, 247
1, 3, Control_c, 0, 0, 0
1, 4, Control_c, 0, 32, 0
1, 5, Program_c, 0, 0
1, 6, Control_c, 0, 7, 100
1, 95, Control_c, 0, 64, 15
1, 184, Control_c, 0, 64, 31
1, 273, Control_c, 0, 64, 46
1, 362, Control_c, 0, 64, 63
1, 452, Control_c, 0, 64, 77
1, 541, Control_c, 0, 64, 94
1, 630, Control_c, 0, 64, 108
1, 719, Control_c, 0, 64, 127
1, 904, Note_on_c, 0, 66, 99
1, 910, Note_on_c, 0, 54, 98
1, 915, Note_on_c, 0, 59, 90
1, 916, Note_on_c, 0, 50, 96
1, 918, Note_on_c, 0, 44, 94
1, 919, Note_on_c, 0, 38, 92
1, 945, Note_on_c, 0, 61, 54
1, 1000, Control_c, 0, 64, 120
1, 1012, Note_off_c, 0, 61, 0
1, 1015, Control_c, 0, 64, 95
1, 1030, Control_c, 0, 64, 86
1, 1044, Control_c, 0, 64, 82
1, 1049, Poly_aftertouch_c, 0, 61, 127
1, 1059, Control_c, 0, 64, 81
1, 1074, Control_c, 0, 64, 80
1, 1089, Control_c, 0, 64, 81
1, 1118, Control_c, 0, 64, 81
1, 1133, Control_c, 0, 64, 83
1, 1148, Control_c, 0, 64, 84
1, 1163, Control_c, 0, 64, 86
1, 1178, Control_c, 0, 64, 89
1, 1193, Control_c, 0, 64, 92
1, 1208, Control_c, 0, 64, 96
1, 1223, Control_c, 0, 64, 102
1, 1237, Control_c, 0, 64, 119
1, 1252, Control_c, 0, 64, 127
1, 2112, Note_off_c, 0, 50, 21
1, 2674, Note_off_c, 0, 54, 30
1, 2713, Note_off_c, 0, 44, 47
1, 3089, Note_off_c, 0, 38, 28
1, 3211, Note_on_c, 0, 56, 101
1, 3255, Note_off_c, 0, 59, 61
1, 3300, Note_off_c, 0, 66, 59
1, 3309, Poly_aftertouch_c, 0, 61, 0
1, 3902, Note_on_c, 0, 32, 93
1, 4156, Note_on_c, 0, 41, 93
1, 4181, Note_on_c, 0, 37, 48
1, 4281, Note_on_c, 0, 44, 90
1, 4299, Note_off_c, 0, 37, 59
1, 4376, Note_on_c, 0, 50, 86
1, 4460, Note_on_c, 0, 54, 86
1, 4487, Note_off_c, 0, 56, 59
1, 4508, Note_on_c, 0, 53, 79
1, 4579, Note_on_c, 0, 60, 102
1, 4655, Control_c, 0, 64, 93
1, 4669, Control_c, 0, 64, 65
1, 4684, Control_c, 0, 64, 30
1, 4699, Control_c, 0, 64, 0
1, 4765, Note_off_c, 0, 54, 50
1, 5145, Control_c, 0, 64, 30
1, 5160, Control_c, 0, 64, 40
1, 5181, Control_c, 0, 64, 49
1, 5196, Control_c, 0, 64, 56
1, 5211, Control_c, 0, 64, 59
1, 5225, Control_c, 0, 64, 62
1, 5240, Control_c, 0, 64, 63
1, 5255, Control_c, 0, 64, 65
1, 5270, Control_c, 0, 64, 66
1, 5285, Control_c, 0, 64, 68
1, 5299, Control_c, 0, 64, 70
1, 5314, Control_c, 0, 64, 73
1, 5329, Control_c, 0, 64, 75
1, 5343, Control_c, 0, 64, 78
1, 5358, Control_c, 0, 64, 81
1, 5373, Control_c, 0, 64, 84
1, 5388, Control_c, 0, 64, 88
1, 5403, Control_c, 0, 64, 94
1, 5417, Control_c, 0, 64, 102
1, 5432, Control_c, 0, 64, 116
1, 5447, Control_c, 0, 64, 127
1, 5719, Note_off_c, 0, 41, 31
1, 5985, Note_off_c, 0, 32, 20
1, 6002, Note_off_c, 0, 44, 41
1, 6109, Note_off_c, 0, 53, 60
1, 6113, Note_off_c, 0, 50, 61
1, 6148, Note_on_c, 0, 32, 68
1, 6191, Note_on_c, 0, 40, 69
1, 6208, Note_on_c, 0, 49, 78
1, 6217, Note_on_c, 0, 44, 72
1, 6218, Note_on_c, 0, 52, 76
1, 6240, Control_c, 0, 64, 87
1, 6255, Control_c, 0, 64, 68
1, 6270, Control_c, 0, 64, 58
1, 6285, Control_c, 0, 64, 55
1, 6299, Note_off_c, 0, 49, 59
1, 6300, Control_c, 0, 64, 56
1, 6314, Control_c, 0, 64, 59
1, 6329, Control_c, 0, 64, 64
1, 6344, Control_c, 0, 64, 73
1, 6359, Control_c, 0, 64, 81
1, 6361, Note_off_c, 0, 52, 59
1, 6362, Note_off_c, 0, 60, 54
1, 6374, Control_c, 0, 64, 89
1, 6388, Control_c, 0, 64, 96
1, 6403, Control_c, 0, 64, 105
1, 6418, Control_c, 0, 64, 116
1, 6433, Control_c, 0, 64, 127
1, 6937, Note_on_c, 0, 61, 81
1, 6976, Note_off_c, 0, 61, 61
1, 7013, Note_on_c, 0, 60, 91
1, 7050, Note_off_c, 0, 60, 68
1, 7079, Control_c, 0, 64, 110
1, 7089, Note_on_c, 0, 59, 103
1, 7094, Control_c, 0, 64, 75
1, 7109, Control_c, 0, 64, 54
1, 7123, Control_c, 0, 64, 0
1, 7197, Control_c, 0, 64, 43
1, 7212, Control_c, 0, 64, 60
1, 7227, Control_c, 0, 64, 69
1, 7242, Control_c, 0, 64, 82
1, 7257, Control_c, 0, 64, 127
1, 7305, Note_off_c, 0, 59, 58
1, 7852, Note_on_c, 0, 60, 102
1, 7995, Note_off_c, 0, 40, 61
1, 8006, Note_off_c, 0, 60, 66
1, 8019, Note_off_c, 0, 44, 60
1, 8092, Note_off_c, 0, 32, 56
1, 8892, Note_on_c, 0, 61, 88
1, 8918, Note_on_c, 0, 49, 77
1, 8931, Note_on_c, 0, 56, 72
1, 8935, Note_on_c, 0, 28, 71
1, 9013, Control_c, 0, 64, 91
1, 9028, Control_c, 0, 64, 68
1, 9043, Control_c, 0, 64, 49
1, 9058, Control_c, 0, 64, 0
1, 9146, Control_c, 0, 64, 30
1, 9161, Control_c, 0, 64, 40
1, 9176, Control_c, 0, 64, 47
1, 9190, Control_c, 0, 64, 52
1, 9205, Control_c, 0, 64, 57
1, 9220, Control_c, 0, 64, 60
1, 9235, Control_c, 0, 64, 63
1, 9250, Control_c, 0, 64, 67
1, 9265, Control_c, 0, 64, 70
1, 9280, Control_c, 0, 64, 74
1, 9295, Control_c, 0, 64, 79
1, 9310, Control_c, 0, 64, 86
1, 9325, Control_c, 0, 64, 98
1, 9337, Poly_aftertouch_c, 0, 54, 127
1, 9339, Control_c, 0, 64, 127
1, 9363, Note_on_c, 0, 40, 32
1, 9378, Note_off_c, 0, 28, 53
1, 9515, Note_on_c, 0, 28, 49
1, 9519, Note_off_c, 0, 40, 33
1, 9578, Note_off_c, 0, 28, 54
1, 9658, Note_on_c, 0, 40, 39
1, 9706, Note_off_c, 0, 40, 47
1, 9731, Note_on_c, 0, 28, 51
1, 9763, Poly_aftertouch_c, 0, 34, 127
1, 9788, Note_off_c, 0, 28, 57
1, 9828, Note_on_c, 0, 40, 41
1, 9863, Note_off_c, 0, 40, 51
1, 9912, Poly_aftertouch_c, 0, 58, 127
1, 9915, Note_on_c, 0, 28, 38
1, 9945, Note_off_c, 0, 28, 56
1, 9972, Note_on_c, 0, 40, 41
1, 10011, Note_off_c, 0, 40, 50
1, 10034, Note_on_c, 0, 28, 57
1, 10068, Note_off_c, 0, 28, 61
1, 10088, Note_on_c, 0, 40, 40
1, 10154, Note_on_c, 0, 28, 51
1, 10192, Note_off_c, 0, 28, 57
1, 10192, Note_off_c, 0, 40, 0
1, 10210, Note_on_c, 0, 40, 29
1, 10251, Control_c, 0, 67, 36
1, 10255, Note_off_c, 0, 40, 50
1, 10266, Control_c, 0, 67, 57
1, 10280, Control_c, 0, 67, 80
1, 10293, Note_on_c, 0, 28, 39
1, 10295, Control_c, 0, 67, 107
1, 10310, Control_c, 0, 67, 127
1, 10332, Note_off_c, 0, 28, 53
1, 10338, Note_on_c, 0, 40, 36
1, 10425, Note_off_c, 0, 40, 38
1, 10485, Poly_aftertouch_c, 0, 28, 127
1, 10486, Note_on_c, 0, 40, 20
1, 10546, Note_off_c, 0, 40, 46
1, 10637, Poly_aftertouch_c, 0, 28, 0
1, 10645, Note_on_c, 0, 40, 29
1, 10707, Note_off_c, 0, 40, 41
1, 10713, Note_on_c, 0, 28, 30
1, 10792, Note_on_c, 0, 40, 26
1, 10830, Note_off_c, 0, 28, 0
1, 10849, Note_off_c, 0, 40, 44
1, 10851, Note_on_c, 0, 28, 23
1, 10902, Note_off_c, 0, 28, 53
1, 10933, Note_on_c, 0, 40, 20
1, 11041, Poly_aftertouch_c, 0, 28, 127
1, 11054, Note_off_c, 0, 40, 0
1, 11077, Note_on_c, 0, 40, 12
1, 11104, Poly_aftertouch_c, 0, 28, 0
1, 11151, Note_off_c, 0, 40, 39
1, 11197, Poly_aftertouch_c, 0, 28, 127
1, 11238, Note_on_c, 0, 40, 25
1, 11306, Poly_aftertouch_c, 0, 28, 0
1, 11322, Note_off_c, 0, 40, 38
1, 11343, Poly_aftertouch_c, 0, 28, 127
1, 11346, Note_on_c, 0, 28, 3
1, 11401, Note_on_c, 0, 40, 11
1, 11442, Note_off_c, 0, 28, 0
1, 11469, Note_on_c, 0, 28, 6
1, 11519, Note_off_c, 0, 40, 0
1, 11528, Note_off_c, 0, 28, 46
1, 11540, Note_on_c, 0, 40, 16
1, 11578, Note_off_c, 0, 61, 53
1, 11648, Poly_aftertouch_c, 0, 58, 0
1, 11656, Poly_aftertouch_c, 0, 28, 127
1, 11657, Note_off_c, 0, 40, 0
1, 11659, Poly_aftertouch_c, 0, 54, 0
1, 11685, Note_on_c, 0, 40, 16
1, 11710, Note_off_c, 0, 56, 59
1, 11754, Poly_aftertouch_c, 0, 28, 0
1, 11778, Note_on_c, 0, 28, 14
1, 11814, Note_off_c, 0, 40, 0
1, 11840, Note_on_c, 0, 40, 12
1, 11840, Note_off_c, 0, 28, 43
1, 11942, Note_off_c, 0, 40, 0
1, 11972, Poly_aftertouch_c, 0, 28, 127
1, 11979, Poly_aftertouch_c, 0, 40, 127
1, 11992, Note_on_c, 0, 40, 3
1, 12029, Poly_aftertouch_c, 0, 28, 0
1, 12067, Poly_aftertouch_c, 0, 28, 127
1, 12079, Note_off_c, 0, 40, 0
1, 12116, Poly_aftertouch_c, 0, 40, 127
1, 12139, Note_on_c, 0, 40, 3
1, 12162, Note_off_c, 0, 49, 54
1, 12279, Poly_aftertouch_c, 0, 28, 0
1, 12306, Note_on_c, 0, 28, 15
1, 12379, Control_c, 0, 64, 122
1, 12386, Note_off_c, 0, 28, 41
1, 12394, Control_c, 0, 64, 117
1, 12408, Control_c, 0, 64, 113
1, 12423, Control_c, 0, 64, 109
1, 12438, Control_c, 0, 64, 104
1, 12440, Note_on_c, 0, 55, 47
1, 12451, Note_on_c, 0, 46, 45
1, 12452, Note_on_c, 0, 49, 42
1, 12453, Control_c, 0, 64, 97
1, 12468, Control_c, 0, 64, 92
1, 12482, Control_c, 0, 64, 86
1, 12494, Note_on_c, 0, 28, 23
1, 12497, Control_c, 0, 64, 79
1, 12509, Note_off_c, 0, 40, 34
1, 12512, Control_c, 0, 64, 72
1, 12526, Control_c, 0, 64, 68
1, 12541, Control_c, 0, 64, 67
1, 12556, Note_off_c, 0, 28, 43
1, 12556, Control_c, 0, 64, 68
1, 12571, Control_c, 0, 64, 70
1, 12586, Control_c, 0, 64, 74
1, 12601, Control_c, 0, 64, 79
1, 12609, Poly_aftertouch_c, 0, 40, 127
1, 12616, Control_c, 0, 64, 82
1, 12630, Control_c, 0, 64, 84
1, 12639, Note_on_c, 0, 28, 37
1, 12653, Control_c, 0, 64, 84
1, 12667, Note_off_c, 0, 55, 35
1, 12668, Control_c, 0, 64, 85
1, 12676, Poly_aftertouch_c, 0, 40, 0
1, 12702, Note_off_c, 0, 28, 45
1, 12714, Poly_aftertouch_c, 0, 40, 127
1, 12718, Note_off_c, 0, 49, 27
1, 12721, Note_off_c, 0, 46, 31
1, 12756, Control_c, 0, 64, 84
1, 12771, Control_c, 0, 64, 84
1, 12786, Control_c, 0, 64, 83
1, 12790, Note_on_c, 0, 28, 28
1, 12801, Control_c, 0, 64, 82
1, 12815, Control_c, 0, 64, 80
1, 12830, Control_c, 0, 64, 78
1, 12845, Control_c, 0, 64, 76
1, 12857, Note_off_c, 0, 28, 42
1, 12860, Control_c, 0, 64, 75
1, 12875, Control_c, 0, 64, 75
1, 12920, Control_c, 0, 64, 74
1, 12926, Note_on_c, 0, 28, 23
1, 12935, Control_c, 0, 64, 72
1, 12950, Control_c, 0, 64, 70
1, 12961, Poly_aftertouch_c, 0, 40, 0
1, 12964, Control_c, 0, 64, 69
1, 12992, Note_off_c, 0, 28, 40
1, 12994, Control_c, 0, 64, 69
1, 12999, Poly_aftertouch_c, 0, 40, 127
1, 13009, Control_c, 0, 64, 70
1, 13024, Control_c, 0, 64, 72
1, 13039, Control_c, 0, 64, 74
1, 13054, Control_c, 0, 64, 75
1, 13067, Note_on_c, 0, 28, 16
1, 13069, Control_c, 0, 64, 75
1, 13084, Control_c, 0, 64, 75
1, 13098, Control_c, 0, 64, 73
1, 13113, Poly_aftertouch_c, 0, 40, 0
1, 13113, Control_c, 0, 64, 71
1, 13128, Control_c, 0, 64, 70
1, 13143, Control_c, 0, 64, 70
1, 13149, Poly_aftertouch_c, 0, 40, 127
1, 13155, Note_on_c, 0, 40, 3
1, 13185, Note_off_c, 0, 28, 0
1, 13187, Control_c, 0, 64, 70
1, 13202, Control_c, 0, 64, 71
1, 13217, Control_c, 0, 64, 72
1, 13222, Poly_aftertouch_c, 0, 28, 127
1, 13231, Control_c, 0, 64, 72
1, 13262, Note_off_c, 0, 40, 0
1, 13288, Note_on_c, 0, 40, 12
1, 13291, Control_c, 0, 64, 73
1, 13305, Control_c, 0, 64, 74
1, 13320, Control_c, 0, 64, 74
1, 13335, Control_c, 0, 64, 75
1, 13349, Control_c, 0, 64, 76
1, 13364, Poly_aftertouch_c, 0, 28, 0
1, 13364, Control_c, 0, 64, 77
1, 13379, Control_c, 0, 64, 77
1, 13409, Poly_aftertouch_c, 0, 28, 127
1, 13417, Control_c, 0, 64, 78
1, 13423, Note_off_c, 0, 40, 0
1, 13461, Poly_aftertouch_c, 0, 40, 127
1, 13462, Control_c, 0, 64, 78
1, 13476, Poly_aftertouch_c, 0, 28, 0
1, 13476, Control_c, 0, 64, 79
1, 13601, Note_on_c, 0, 28, 15
1, 13637, Poly_aftertouch_c, 0, 40, 0
1, 13650, Note_off_c, 0, 28, 49
1, 13660, Note_on_c, 0, 40, 9
1, 13715, Control_c, 0, 64, 78
1, 13744, Control_c, 0, 64, 78
1, 13774, Note_on_c, 0, 28, 28
1, 13774, Control_c, 0, 64, 77
1, 13818, Control_c, 0, 64, 77
1, 13824, Note_off_c, 0, 28, 45
1, 13824, Note_off_c, 0, 40, 0
1, 13861, Poly_aftertouch_c, 0, 40, 127
1, 13877, Control_c, 0, 64, 76
1, 13966, Control_c, 0, 64, 76
1, 13967, Note_on_c, 0, 28, 23
1, 14011, Control_c, 0, 64, 75
1, 14040, Poly_aftertouch_c, 0, 40, 0
1, 14040, Control_c, 0, 64, 75
1, 14055, Control_c, 0, 64, 74
1, 14076, Poly_aftertouch_c, 0, 40, 127
1, 14085, Control_c, 0, 64, 74
1, 14099, Control_c, 0, 64, 73
1, 14114, Control_c, 0, 64, 72
1, 14129, Control_c, 0, 64, 72
1, 14151, Control_c, 0, 64, 71
1, 14166, Control_c, 0, 64, 71
1, 14169, Note_off_c, 0, 28, 0
1, 14181, Control_c, 0, 64, 70
1, 14195, Control_c, 0, 64, 70
1, 14206, Poly_aftertouch_c, 0, 28, 127
1, 14208, Poly_aftertouch_c, 0, 40, 0
1, 14210, Control_c, 0, 64, 69
1, 14225, Control_c, 0, 64, 69
1, 14285, Control_c, 0, 64, 68
1, 14309, Poly_aftertouch_c, 0, 40, 127
1, 14314, Control_c, 0, 64, 68
1, 14366, Poly_aftertouch_c, 0, 28, 0
1, 14379, Poly_aftertouch_c, 0, 40, 0
1, 14388, Control_c, 0, 64, 67
1, 14403, Poly_aftertouch_c, 0, 28, 127
1, 14469, Poly_aftertouch_c, 0, 40, 127
1, 14476, Poly_aftertouch_c, 0, 28, 0
1, 14478, Control_c, 0, 64, 67
1, 14558, Poly_aftertouch_c, 0, 28, 127
1, 14595, Poly_aftertouch_c, 0, 40, 0
1, 14631, Poly_aftertouch_c, 0, 40, 127
1, 14711, Poly_aftertouch_c, 0, 28, 0
1, 14715, Control_c, 0, 64, 66
1, 14748, Poly_aftertouch_c, 0, 28, 127
1, 14774, Control_c, 0, 64, 66
1, 14804, Control_c, 0, 64, 65
1, 14915, Control_c, 0, 64, 65
1, 15003, Control_c, 0, 64, 64
1, 15033, Control_c, 0, 64, 64
1, 15048, Control_c, 0, 64, 63
1, 15063, Control_c, 0, 64, 63
1, 15078, Control_c, 0, 64, 62
1, 15152, Control_c, 0, 64, 62
1, 15226, Control_c, 0, 64, 61
1, 15286, Control_c, 0, 64, 61
1, 15331, Control_c, 0, 64, 60
1, 15360, Control_c, 0, 64, 60
1, 15463, Poly_aftertouch_c, 0, 34, 0
1, 15464, Control_c, 0, 64, 59
1, 15508, Control_c, 0, 64, 59
1, 15538, Control_c, 0, 64, 58
1, 15664, Control_c, 0, 64, 59
1, 15707, Control_c, 0, 64, 59
1, 15841, Control_c, 0, 64, 59
1, 15959, Control_c, 0, 64, 58
1, 16004, Control_c, 0, 64, 58
1, 16033, Control_c, 0, 64, 57
1, 16063, Control_c, 0, 64, 57
1, 16108, Control_c, 0, 64, 56
1, 16167, Control_c, 0, 64, 56
1, 16286, Control_c, 0, 64, 55
1, 16330, Control_c, 0, 64, 55
1, 16341, Poly_aftertouch_c, 0, 28, 0
1, 16389, Control_c, 0, 64, 54
1, 16411, Poly_aftertouch_c, 0, 40, 0
1, 16457, Control_c, 0, 64, 54
1, 16487, Control_c, 0, 64, 53
1, 16546, Control_c, 0, 64, 53
1, 16605, Control_c, 0, 64, 52
1, 16664, Control_c, 0, 64, 52
1, 17546, Control_c, 0, 64, 52
1, 17576, Control_c, 0, 64, 53
1, 17591, Control_c, 0, 64, 53
1, 17606, Control_c, 0, 64, 54
1, 17620, Control_c, 0, 64, 54
1, 17635, Control_c, 0, 64, 55
1, 17650, Control_c, 0, 64, 56
1, 17666, Control_c, 0, 64, 57
1, 17681, Control_c, 0, 64, 58
1, 17695, Control_c, 0, 64, 59
1, 17710, Control_c, 0, 64, 59
1, 17725, Control_c, 0, 64, 60
1, 17740, Control_c, 0, 64, 61
1, 17755, Control_c, 0, 64, 62
1, 17770, Control_c, 0, 64, 63
1, 17784, Control_c, 0, 64, 64
1, 17799, Control_c, 0, 64, 64
1, 17814, Control_c, 0, 64, 65
1, 17829, Control_c, 0, 64, 66
1, 17844, Control_c, 0, 64, 66
1, 17859, Control_c, 0, 64, 67
1, 17874, Control_c, 0, 64, 69
1, 17895, Control_c, 0, 64, 70
1, 17910, Control_c, 0, 64, 72
1, 17925, Control_c, 0, 64, 74
1, 17940, Control_c, 0, 64, 76
1, 17954, Control_c, 0, 64, 77
1, 17969, Control_c, 0, 64, 78
1, 17984, Control_c, 0, 64, 78
1, 17999, Control_c, 0, 64, 79
1, 18014, Control_c, 0, 64, 80
1, 18029, Control_c, 0, 64, 80
1, 18044, Control_c, 0, 64, 81
1, 18059, Control_c, 0, 64, 82
1, 18073, Control_c, 0, 64, 83
1, 18088, Control_c, 0, 64, 84
1, 18103, Control_c, 0, 64, 85
1, 18118, Control_c, 0, 64, 86
1, 18133, Control_c, 0, 64, 87
1, 18147, Control_c, 0, 64, 88
1, 18162, Control_c, 0, 64, 90
1, 18177, Control_c, 0, 64, 91
1, 18192, Control_c, 0, 64, 93
1, 18207, Control_c, 0, 64, 95
1, 18236, Control_c, 0, 64, 98
1, 18251, Control_c, 0, 64, 100
1, 18266, Control_c, 0, 64, 103
1, 18280, Control_c, 0, 64, 107
1, 18295, Control_c, 0, 64, 112
1, 18310, Control_c, 0, 64, 119
1, 18325, Control_c, 0, 64, 127
1, 18899, Note_on_c, 0, 51, 35
1, 18948, Note_on_c, 0, 48, 21
1, 19235, Note_off_c, 0, 48, 39
1, 19250, Note_on_c, 0, 39, 25
1, 19329, Note_off_c, 0, 39, 39
1, 19409, Poly_aftertouch_c, 0, 48, 127
1, 19466, Poly_aftertouch_c, 0, 48, 0
1, 19504, Note_on_c, 0, 39, 23
1, 19550, Note_off_c, 0, 39, 50
1, 19565, Note_on_c, 0, 48, 13
1, 19686, Note_off_c, 0, 48, 0
1, 19713, Note_on_c, 0, 48, 17
1, 19722, Poly_aftertouch_c, 0, 39, 127
1, 19835, Note_off_c, 0, 48, 0
1, 19866, Note_on_c, 0, 48, 6
1, 19891, Poly_aftertouch_c, 0, 39, 0
1, 19948, Note_on_c, 0, 39, 24
1, 19954, Note_off_c, 0, 48, 35
1, 20011, Note_off_c, 0, 39, 42
1, 20029, Note_on_c, 0, 48, 15
1, 20101, Note_on_c, 0, 39, 25
1, 20143, Note_off_c, 0, 48, 0
1, 20162, Note_off_c, 0, 39, 46
1, 20167, Note_on_c, 0, 48, 15
1, 20232, Note_on_c, 0, 56, 47
1, 20241, Note_off_c, 0, 48, 40
1, 20276, Note_on_c, 0, 39, 23
1, 20315, Note_off_c, 0, 39, 53
1, 20369, Poly_aftertouch_c, 0, 48, 127
1, 20437, Poly_aftertouch_c, 0, 48, 0
1, 20451, Note_on_c, 0, 39, 24
1, 20518, Poly_aftertouch_c, 0, 48, 127
1, 20553, Note_off_c, 0, 39, 0
1, 20578, Note_on_c, 0, 39, 6
1, 20598, Note_off_c, 0, 51, 40
1, 20617, Poly_aftertouch_c, 0, 48, 0
1, 20651, Note_off_c, 0, 39, 38
1, 20655, Poly_aftertouch_c, 0, 48, 127
1, 20658, Note_on_c, 0, 48, 3
1, 20705, Note_off_c, 0, 48, 46
1, 20712, Note_on_c, 0, 39, 16
1, 20836, Note_off_c, 0, 39, 0
1, 20846, Poly_aftertouch_c, 0, 48, 127
1, 20874, Poly_aftertouch_c, 0, 39, 127
1, 20935, Poly_aftertouch_c, 0, 39, 0
1, 21018, Poly_aftertouch_c, 0, 48, 0
1, 21026, Note_on_c, 0, 39, 30
1, 21174, Note_on_c, 0, 46, 38
1, 21251, Note_off_c, 0, 56, 33
1, 21287, Note_on_c, 0, 49, 43
1, 21350, Control_c, 0, 64, 120
1, 21364, Control_c, 0, 64, 108
1, 21379, Control_c, 0, 64, 100
1, 21394, Control_c, 0, 64, 93
1, 21409, Control_c, 0, 64, 87
1, 21424, Control_c, 0, 64, 81
1, 21431, Note_on_c, 0, 56, 57
1, 21438, Control_c, 0, 64, 75
1, 21453, Control_c, 0, 64, 70
1, 21468, Control_c, 0, 64, 67
1, 21483, Control_c, 0, 64, 66
1, 21512, Control_c, 0, 64, 68
1, 21527, Control_c, 0, 64, 70
1, 21542, Control_c, 0, 64, 75
1, 21556, Control_c, 0, 64, 80
1, 21571, Control_c, 0, 64, 85
1, 21579, Note_off_c, 0, 46, 0
1, 21586, Control_c, 0, 64, 90
1, 21601, Note_off_c, 0, 39, 39
1, 21601, Control_c, 0, 64, 95
1, 21603, Note_on_c, 0, 46, 8
1, 21615, Control_c, 0, 64, 99
1, 21638, Control_c, 0, 64, 102
1, 21653, Control_c, 0, 64, 107
1, 21669, Control_c, 0, 64, 114
1, 21678, Note_off_c, 0, 46, 42
1, 21683, Control_c, 0, 64, 127
1, 21705, Note_on_c, 0, 39, 18
1, 21764, Note_off_c, 0, 39, 43
1, 21767, Note_on_c, 0, 46, 19
1, 21824, Note_off_c, 0, 46, 44
1, 21838, Note_on_c, 0, 39, 33
1, 21917, Note_on_c, 0, 46, 29
1, 21952, Note_off_c, 0, 39, 0
1, 21975, Note_off_c, 0, 46, 44
1, 21978, Note_on_c, 0, 39, 15
1, 22068, Note_on_c, 0, 46, 33
1, 22109, Note_off_c, 0, 46, 51
1, 22223, Note_on_c, 0, 46, 29
1, 22270, Note_off_c, 0, 46, 47
1, 22461, Note_off_c, 0, 39, 0
1, 22498, Poly_aftertouch_c, 0, 39, 127
1, 22578, Note_on_c, 0, 55, 49
1, 22602, Note_on_c, 0, 46, 8
1, 22627, Poly_aftertouch_c, 0, 39, 0
1, 22652, Note_off_c, 0, 46, 50
1, 22664, Poly_aftertouch_c, 0, 39, 127
1, 22739, Poly_aftertouch_c, 0, 39, 0
1, 22760, Note_on_c, 0, 46, 22
1, 22802, Note_off_c, 0, 46, 44
1, 22818, Note_on_c, 0, 39, 31
1, 22906, Note_off_c, 0, 39, 38
1, 22906, Note_on_c, 0, 46, 25
1, 22965, Note_off_c, 0, 46, 42
1, 22980, Note_on_c, 0, 39, 12
1, 22996, Note_off_c, 0, 49, 41
1, 23061, Note_on_c, 0, 46, 27
1, 23067, Note_off_c, 0, 39, 39
1, 23141, Note_off_c, 0, 46, 41
1, 23163, Note_on_c, 0, 39, 23
1, 23225, Note_on_c, 0, 46, 16
1, 23227, Note_off_c, 0, 39, 44
1, 23335, Note_on_c, 0, 48, 47
1, 23338, Note_off_c, 0, 46, 36
1, 23367, Note_on_c, 0, 39, 23
1, 23419, Note_off_c, 0, 39, 48
1, 23445, Note_on_c, 0, 46, 26
1, 23498, Note_off_c, 0, 55, 40
1, 23544, Note_off_c, 0, 56, 41
1, 23547, Note_on_c, 0, 39, 38
1, 23555, Note_off_c, 0, 46, 48
1, 23750, Note_on_c, 0, 54, 62
1, 23758, Control_c, 0, 64, 124
1, 23773, Control_c, 0, 64, 108
1, 23788, Control_c, 0, 64, 97
1, 23803, Control_c, 0, 64, 87
1, 23808, Note_on_c, 0, 47, 44
1, 23818, Control_c, 0, 64, 76
1, 23833, Control_c, 0, 64, 66
1, 23848, Control_c, 0, 64, 58
1, 23862, Control_c, 0, 64, 52
1, 23874, Note_off_c, 0, 48, 33
1, 23877, Control_c, 0, 64, 48
1, 23914, Control_c, 0, 64, 49
1, 23929, Control_c, 0, 64, 52
1, 23944, Control_c, 0, 64, 56
1, 23959, Control_c, 0, 64, 60
1, 23973, Control_c, 0, 64, 64
1, 23974, Note_off_c, 0, 47, 53
1, 23988, Control_c, 0, 64, 68
1, 23997, Note_on_c, 0, 51, 28
1, 24003, Control_c, 0, 64, 74
1, 24018, Control_c, 0, 64, 80
1, 24032, Control_c, 0, 64, 85
1, 24047, Control_c, 0, 64, 88
1, 24063, Control_c, 0, 64, 92
1, 24072, Note_off_c, 0, 51, 42
1, 24078, Control_c, 0, 64, 95
1, 24093, Control_c, 0, 64, 99
1, 24107, Control_c, 0, 64, 104
1, 24122, Control_c, 0, 64, 110
1, 24137, Poly_aftertouch_c, 0, 47, 127
1, 24137, Control_c, 0, 64, 117
1, 24152, Control_c, 0, 64, 127
1, 24187, Poly_aftertouch_c, 0, 47, 0
1, 24190, Note_on_c, 0, 51, 36
1, 24271, Note_off_c, 0, 51, 46
1, 24284, Note_on_c, 0, 47, 25
1, 24333, Note_off_c, 0, 47, 46
1, 24343, Note_on_c, 0, 51, 16
1, 24428, Note_off_c, 0, 39, 23
1, 24440, Note_off_c, 0, 51, 0
1, 24468, Note_on_c, 0, 51, 16
1, 24470, Note_on_c, 0, 47, 3
1, 24515, Note_off_c, 0, 47, 44
1, 24729, Poly_aftertouch_c, 0, 47, 0
1, 24766, Poly_aftertouch_c, 0, 47, 127
1, 24809, Poly_aftertouch_c, 0, 47, 0
1, 24926, Poly_aftertouch_c, 0, 47, 127
1, 24929, Note_on_c, 0, 47, 3
1, 25010, Note_off_c, 0, 47, 0
1, 25047, Poly_aftertouch_c, 0, 47, 127
1, 25075, Note_off_c, 0, 51, 0
1, 25093, Note_on_c, 0, 51, 27
1, 25103, Poly_aftertouch_c, 0, 47, 0
1, 25165, Note_off_c, 0, 51, 49
1, 25184, Note_on_c, 0, 47, 15
1, 25234, Note_off_c, 0, 47, 48
1, 25261, Note_on_c, 0, 51, 14
1, 25328, Note_off_c, 0, 51, 42
1, 25401, Note_on_c, 0, 51, 21
1, 25525, Note_on_c, 0, 56, 45
1, 25529, Note_off_c, 0, 51, 0
1, 25550, Note_on_c, 0, 51, 14
1, 25613, Note_off_c, 0, 51, 45
1, 25840, Poly_aftertouch_c, 0, 51, 127
1, 25892, Poly_aftertouch_c, 0, 51, 0
1, 26142, Note_on_c, 0, 58, 44
1, 26173, Note_off_c, 0, 54, 13
1, 26182, Note_on_c, 0, 50, 35
1, 26200, Note_on_c, 0, 34, 31
1, 26235, Control_c, 0, 64, 103
1, 26250, Control_c, 0, 64, 88
1, 26265, Control_c, 0, 64, 75
1, 26279, Control_c, 0, 64, 65
1, 26294, Control_c, 0, 64, 58
1, 26309, Control_c, 0, 64, 54
1, 26316, Note_off_c, 0, 56, 32
1, 26324, Control_c, 0, 64, 53
1, 26339, Control_c, 0, 64, 54
1, 26353, Control_c, 0, 64, 57
1, 26368, Control_c, 0, 64, 61
1, 26383, Control_c, 0, 64, 64
1, 26398, Control_c, 0, 64, 68
1, 26412, Control_c, 0, 64, 74
1, 26427, Control_c, 0, 64, 80
1, 26442, Control_c, 0, 64, 87
1, 26456, Note_off_c, 0, 50, 33
1, 26458, Control_c, 0, 64, 91
1, 26473, Control_c, 0, 64, 95
1, 26480, Poly_aftertouch_c, 0, 53, 127
1, 26488, Control_c, 0, 64, 98
1, 26502, Control_c, 0, 64, 101
1, 26517, Control_c, 0, 64, 106
1, 26532, Control_c, 0, 64, 112
1, 26547, Poly_aftertouch_c, 0, 53, 0
1, 26547, Control_c, 0, 64, 127
1, 26565, Note_on_c, 0, 50, 16
1, 26641, Note_off_c, 0, 50, 40
1, 26649, Note_on_c, 0, 53, 15
1, 26719, Note_off_c, 0, 53, 39
1, 26735, Note_on_c, 0, 50, 9
1, 26796, Note_off_c, 0, 50, 44
1, 26807, Note_on_c, 0, 53, 6
1, 26885, Note_off_c, 0, 53, 41
1, 26912, Note_on_c, 0, 50, 10
1, 26966, Note_off_c, 0, 50, 50
1, 26969, Note_on_c, 0, 53, 19
1, 27030, Note_off_c, 0, 53, 42
1, 27061, Note_on_c, 0, 50, 17
1, 27123, Note_on_c, 0, 53, 15
1, 27168, Note_off_c, 0, 50, 0
1, 27183, Note_off_c, 0, 53, 41
1, 27204, Poly_aftertouch_c, 0, 50, 127
1, 27277, Poly_aftertouch_c, 0, 53, 127
1, 27279, Note_on_c, 0, 53, 3
1, 27299, Poly_aftertouch_c, 0, 50, 0
1, 27323, Note_on_c, 0, 50, 7
1, 27324, Note_off_c, 0, 53, 45
1, 27398, Note_off_c, 0, 34, 18
1, 27403, Note_off_c, 0, 50, 39
1, 27412, Note_on_c, 0, 53, 9
1, 27464, Note_off_c, 0, 53, 48
1, 27465, Note_on_c, 0, 50, 20
1, 27554, Note_on_c, 0, 53, 25
1, 27593, Note_off_c, 0, 50, 0
1, 27601, Note_off_c, 0, 53, 47
1, 27637, Poly_aftertouch_c, 0, 50, 127
1, 27687, Poly_aftertouch_c, 0, 50, 0
1, 27708, Note_on_c, 0, 53, 32
1, 27748, Note_off_c, 0, 53, 47
1, 27788, Note_on_c, 0, 50, 22
1, 27842, Note_off_c, 0, 50, 43
1, 27905, Poly_aftertouch_c, 0, 53, 127
1, 27917, Note_on_c, 0, 50, 15
1, 27979, Poly_aftertouch_c, 0, 53, 0
1, 27988, Note_off_c, 0, 50, 39
1, 28016, Poly_aftertouch_c, 0, 53, 127
1, 28063, Note_on_c, 0, 50, 10
1, 28101, Poly_aftertouch_c, 0, 53, 0
1, 28119, Note_on_c, 0, 53, 22
1, 28127, Poly_aftertouch_c, 0, 56, 127
1, 28130, Note_off_c, 0, 50, 43
1, 28219, Note_on_c, 0, 50, 24
1, 28244, Note_off_c, 0, 53, 0
1, 28263, Note_on_c, 0, 53, 16
1, 28334, Note_off_c, 0, 53, 58
1, 28601, Note_on_c, 0, 54, 58
1, 28641, Note_on_c, 0, 51, 34
1, 28674, Control_c, 0, 64, 111
1, 28689, Control_c, 0, 64, 91
1, 28703, Control_c, 0, 64, 78
1, 28718, Control_c, 0, 64, 68
1, 28733, Control_c, 0, 64, 62
1, 28741, Note_off_c, 0, 50, 44
1, 28748, Control_c, 0, 64, 59
1, 28755, Note_off_c, 0, 58, 35
1, 28763, Control_c, 0, 64, 58
1, 28778, Control_c, 0, 64, 58
1, 28793, Control_c, 0, 64, 61
1, 28807, Control_c, 0, 64, 63
1, 28822, Control_c, 0, 64, 66
1, 28826, Note_off_c, 0, 51, 38
1, 28837, Control_c, 0, 64, 71
1, 28853, Control_c, 0, 64, 77
1, 28858, Note_on_c, 0, 42, 19
1, 28867, Control_c, 0, 64, 83
1, 28882, Control_c, 0, 64, 88
1, 28897, Control_c, 0, 64, 93
1, 28912, Control_c, 0, 64, 97
1, 28924, Note_off_c, 0, 42, 41
1, 28927, Control_c, 0, 64, 101
1, 28937, Note_on_c, 0, 51, 45
1, 28942, Control_c, 0, 64, 106
1, 28957, Control_c, 0, 64, 113
1, 28971, Control_c, 0, 64, 127
1, 28980, Poly_aftertouch_c, 0, 56, 0
1, 28993, Note_off_c, 0, 51, 53
1, 29044, Note_on_c, 0, 42, 35
1, 29091, Note_off_c, 0, 42, 48
1, 29113, Note_on_c, 0, 51, 40
1, 29174, Note_off_c, 0, 51, 55
1, 29228, Note_on_c, 0, 42, 30
1, 29270, Note_off_c, 0, 42, 49
1, 29278, Note_on_c, 0, 51, 41
1, 29334, Note_off_c, 0, 51, 51
1, 29368, Note_on_c, 0, 42, 42
1, 29413, Note_off_c, 0, 42, 58
1, 29431, Note_on_c, 0, 51, 35
1, 29476, Note_off_c, 0, 51, 56
1, 29501, Note_on_c, 0, 42, 50
1, 29553, Note_off_c, 0, 42, 57
1, 29591, Note_on_c, 0, 51, 31
1, 29636, Note_off_c, 0, 51, 48
1, 29637, Note_on_c, 0, 42, 45
1, 29690, Note_off_c, 0, 42, 57
1, 29703, Note_on_c, 0, 51, 42
1, 29770, Note_off_c, 0, 51, 53
1, 29785, Note_on_c, 0, 42, 40
1, 29829, Note_off_c, 0, 42, 59
1, 29849, Note_on_c, 0, 51, 24
1, 29917, Note_on_c, 0, 59, 75
1, 29919, Note_off_c, 0, 51, 52
1, 29941, Note_on_c, 0, 42, 47
1, 30005, Note_off_c, 0, 42, 51
1, 30027, Note_on_c, 0, 51, 34
1, 30086, Note_off_c, 0, 51, 51
1, 30090, Note_on_c, 0, 42, 35
1, 30099, Control_c, 0, 67, 122
1, 30113, Control_c, 0, 67, 115
1, 30128, Control_c, 0, 67, 109
1, 30135, Note_off_c, 0, 42, 59
1, 30143, Control_c, 0, 67, 104
1, 30154, Note_on_c, 0, 51, 34
1, 30158, Control_c, 0, 67, 100
1, 30172, Control_c, 0, 67, 96
1, 30187, Control_c, 0, 67, 91
1, 30202, Control_c, 0, 67, 85
1, 30217, Control_c, 0, 67, 79
1, 30218, Note_off_c, 0, 51, 56
1, 30232, Note_on_c, 0, 42, 35
1, 30232, Control_c, 0, 67, 73
1, 30246, Control_c, 0, 67, 67
1, 30261, Control_c, 0, 67, 62
1, 30276, Control_c, 0, 67, 57
1, 30290, Note_off_c, 0, 42, 44
1, 30291, Control_c, 0, 67, 51
1, 30295, Note_on_c, 0, 51, 41
1, 30306, Control_c, 0, 67, 46
1, 30321, Control_c, 0, 67, 41
1, 30335, Control_c, 0, 67, 36
1, 30350, Control_c, 0, 67, 0
1, 30357, Note_off_c, 0, 51, 56
1, 30378, Note_on_c, 0, 42, 26
1, 30431, Note_off_c, 0, 42, 46
1, 30436, Note_on_c, 0, 51, 40
1, 30485, Note_off_c, 0, 51, 58
1, 30519, Note_on_c, 0, 42, 31
1, 30562, Note_off_c, 0, 42, 54
1, 30599, Note_on_c, 0, 51, 31
1, 30656, Note_off_c, 0, 51, 45
1, 30690, Note_on_c, 0, 42, 26
1, 30722, Note_on_c, 0, 51, 27
1, 30728, Note_off_c, 0, 42, 53
1, 30778, Note_off_c, 0, 51, 45
1, 30808, Note_on_c, 0, 42, 52
1, 30822, Note_off_c, 0, 54, 36
1, 30823, Note_off_c, 0, 59, 45
1, 30915, Note_on_c, 0, 49, 57
1, 30965, Control_c, 0, 67, 37
1, 30980, Control_c, 0, 67, 39
1, 30990, Note_on_c, 0, 52, 62
1, 30995, Control_c, 0, 67, 41
1, 31009, Control_c, 0, 67, 42
1, 31024, Control_c, 0, 67, 44
1, 31039, Control_c, 0, 67, 45
1, 31054, Control_c, 0, 67, 47
1, 31068, Control_c, 0, 64, 102
1, 31068, Control_c, 0, 67, 50
1, 31083, Control_c, 0, 64, 89
1, 31083, Control_c, 0, 67, 52
1, 31093, Poly_aftertouch_c, 0, 54, 127
1, 31098, Control_c, 0, 64, 77
1, 31098, Control_c, 0, 67, 53
1, 31113, Control_c, 0, 64, 67
1, 31113, Control_c, 0, 67, 54
1, 31128, Note_on_c, 0, 59, 69
1, 31128, Control_c, 0, 64, 60
1, 31142, Control_c, 0, 64, 56
1, 31157, Control_c, 0, 64, 55
1, 31172, Control_c, 0, 64, 56
1, 31172, Control_c, 0, 67, 55
1, 31187, Control_c, 0, 64, 57
1, 31187, Control_c, 0, 67, 55
1, 31195, Note_off_c, 0, 49, 55
1, 31201, Control_c, 0, 64, 60
1, 31201, Control_c, 0, 67, 56
1, 31216, Control_c, 0, 64, 63
1, 31216, Control_c, 0, 67, 57
1, 31231, Control_c, 0, 64, 67
1, 31231, Control_c, 0, 67, 58
1, 31239, Poly_aftertouch_c, 0, 54, 0
1, 31247, Control_c, 0, 64, 72
1, 31247, Control_c, 0, 67, 59
1, 31262, Control_c, 0, 64, 78
1, 31277, Control_c, 0, 64, 85
1, 31292, Control_c, 0, 64, 89
1, 31300, Note_on_c, 0, 49, 43
1, 31300, Note_off_c, 0, 42, 59
1, 31306, Control_c, 0, 64, 93
1, 31306, Control_c, 0, 67, 60
1, 31321, Control_c, 0, 64, 96
1, 31321, Control_c, 0, 67, 61
1, 31336, Control_c, 0, 64, 100
1, 31336, Control_c, 0, 67, 63
1, 31351, Control_c, 0, 64, 104
1, 31351, Control_c, 0, 67, 67
1, 31364, Note_off_c, 0, 49, 56
1, 31366, Control_c, 0, 64, 110
1, 31366, Control_c, 0, 67, 76
1, 31388, Control_c, 0, 64, 118
1, 31388, Control_c, 0, 67, 82
1, 31403, Control_c, 0, 64, 127
1, 31403, Control_c, 0, 67, 88
1, 31410, Note_on_c, 0, 42, 37
1, 31418, Control_c, 0, 67, 95
1, 31432, Control_c, 0, 67, 105
1, 31447, Control_c, 0, 67, 117
1, 31456, Note_off_c, 0, 42, 53
1, 31462, Control_c, 0, 67, 127
1, 31467, Note_on_c, 0, 49, 36
1, 31507, Note_off_c, 0, 49, 54
1, 31528, Note_on_c, 0, 42, 39
1, 31584, Note_off_c, 0, 42, 56
1, 31672, Note_on_c, 0, 42, 24
1, 31728, Note_off_c, 0, 42, 43
1, 31735, Note_on_c, 0, 49, 5
1, 31780, Note_off_c, 0, 49, 49
1, 31797, Note_on_c, 0, 42, 28
1, 31844, Note_off_c, 0, 42, 58
1, 31871, Note_on_c, 0, 49, 31
1, 31908, Note_off_c, 0, 49, 51
1, 31937, Note_on_c, 0, 42, 37
1, 31979, Note_off_c, 0, 42, 53
1, 32053, Poly_aftertouch_c, 0, 49, 127
1, 32095, Poly_aftertouch_c, 0, 49, 0
1, 32188, Note_on_c, 0, 49, 17
1, 32208, Note_on_c, 0, 58, 65
1, 32219, Poly_aftertouch_c, 0, 42, 0
1, 32237, Note_on_c, 0, 42, 26
1, 32242, Note_off_c, 0, 49, 47
1, 32298, Note_off_c, 0, 42, 57
1, 32337, Note_on_c, 0, 49, 32
1, 32376, Note_off_c, 0, 49, 52
1, 32379, Note_off_c, 0, 59, 49
1, 32413, Note_on_c, 0, 42, 34
1, 32456, Note_off_c, 0, 42, 50
1, 32464, Note_on_c, 0, 49, 44
1, 32525, Note_off_c, 0, 49, 55
1, 32560, Note_on_c, 0, 42, 34
1, 32568, Note_off_c, 0, 52, 35
1, 32597, Note_off_c, 0, 42, 52
1, 32602, Note_on_c, 0, 49, 37
1, 32653, Note_off_c, 0, 49, 59
1, 32692, Note_on_c, 0, 42, 42
1, 32732, Note_off_c, 0, 42, 55
1, 32764, Note_on_c, 0, 49, 34
1, 32800, Note_off_c, 0, 49, 49
1, 32831, Note_on_c, 0, 42, 46
1, 32890, Note_off_c, 0, 42, 57
1, 32913, Note_on_c, 0, 49, 41
1, 32968, Note_on_c, 0, 51, 62
1, 32972, Note_off_c, 0, 49, 56
1, 32998, Note_on_c, 0, 42, 49
1, 33095, Note_off_c, 0, 51, 56
1, 33103, Note_on_c, 0, 49, 43
1, 33162, Note_off_c, 0, 49, 54
1, 33408, Note_on_c, 0, 57, 74
1, 33464, Control_c, 0, 64, 115
1, 33473, Note_on_c, 0, 50, 45
1, 33479, Control_c, 0, 64, 90
1, 33494, Control_c, 0, 64, 74
1, 33509, Control_c, 0, 64, 61
1, 33524, Control_c, 0, 64, 51
1, 33539, Control_c, 0, 64, 45
1, 33541, Note_off_c, 0, 58, 53
1, 33553, Control_c, 0, 64, 43
1, 33568, Control_c, 0, 64, 44
1, 33583, Control_c, 0, 64, 48
1, 33597, Control_c, 0, 64, 54
1, 33612, Control_c, 0, 64, 60
1, 33634, Control_c, 0, 64, 65
1, 33650, Control_c, 0, 64, 69
1, 33663, Note_off_c, 0, 50, 56
1, 33665, Control_c, 0, 64, 75
1, 33679, Note_on_c, 0, 54, 40
1, 33680, Control_c, 0, 64, 81
1, 33694, Control_c, 0, 64, 86
1, 33709, Control_c, 0, 64, 91
1, 33724, Control_c, 0, 64, 97
1, 33735, Note_off_c, 0, 54, 58
1, 33739, Control_c, 0, 64, 104
1, 33754, Control_c, 0, 64, 115
1, 33768, Control_c, 0, 64, 127
1, 33789, Note_on_c, 0, 50, 33
1, 33835, Note_off_c, 0, 50, 48
1, 33851, Note_on_c, 0, 54, 45
1, 33899, Note_off_c, 0, 54, 58
1, 33950, Note_on_c, 0, 50, 29
1, 33993, Note_off_c, 0, 50, 51
1, 34009, Note_on_c, 0, 54, 41
1, 34050, Note_off_c, 0, 54, 57
1, 34090, Note_on_c, 0, 50, 33
1, 34138, Note_off_c, 0, 50, 48
1, 34162, Note_on_c, 0, 54, 29
1, 34212, Note_off_c, 0, 54, 47
1, 34280, Poly_aftertouch_c, 0, 50, 127
1, 34285, Note_on_c, 0, 54, 37
1, 34340, Note_off_c, 0, 54, 57
1, 34436, Poly_aftertouch_c, 0, 50, 0
1, 34441, Note_on_c, 0, 54, 40
1, 34494, Note_off_c, 0, 54, 55
1, 34573, Note_on_c, 0, 54, 23
1, 34576, Poly_aftertouch_c, 0, 50, 127
1, 34647, Note_off_c, 0, 54, 0
1, 34685, Poly_aftertouch_c, 0, 54, 127
1, 34693, Poly_aftertouch_c, 0, 50, 0
1, 34825, Note_off_c, 0, 42, 33
1, 34871, Poly_aftertouch_c, 0, 50, 127
1, 34911, Poly_aftertouch_c, 0, 54, 0
1, 34915, Poly_aftertouch_c, 0, 50, 0
1, 34952, Poly_aftertouch_c, 0, 50, 127
1, 34999, Poly_aftertouch_c, 0, 50, 0
1, 35068, Note_on_c, 0, 59, 52
1, 35103, Note_on_c, 0, 50, 4
1, 35167, Note_off_c, 0, 50, 45
1, 35176, Note_off_c, 0, 57, 54
1, 35218, Note_on_c, 0, 54, 41
1, 35314, Note_off_c, 0, 54, 57
1, 35604, Note_off_c, 0, 59, 34
1, 35716, Note_on_c, 0, 61, 52
1, 35757, Note_on_c, 0, 53, 41
1, 35765, Note_on_c, 0, 37, 38
1, 35783, Control_c, 0, 64, 108
1, 35798, Control_c, 0, 64, 86
1, 35813, Control_c, 0, 64, 71
1, 35828, Control_c, 0, 64, 59
1, 35843, Control_c, 0, 64, 52
1, 35864, Control_c, 0, 64, 50
1, 35894, Control_c, 0, 64, 52
1, 35910, Control_c, 0, 64, 56
1, 35924, Control_c, 0, 64, 61
1, 35938, Note_off_c, 0, 53, 56
1, 35939, Control_c, 0, 64, 65
1, 35954, Control_c, 0, 64, 71
1, 35955, Note_on_c, 0, 56, 42
1, 35969, Control_c, 0, 64, 79
1, 35984, Control_c, 0, 64, 87
1, 35998, Control_c, 0, 64, 95
1, 36013, Control_c, 0, 64, 103
1, 36028, Note_off_c, 0, 56, 56
1, 36028, Control_c, 0, 64, 114
1, 36044, Control_c, 0, 64, 127
1, 36057, Note_on_c, 0, 53, 39
1, 36105, Note_off_c, 0, 53, 55
1, 36142, Note_on_c, 0, 56, 39
1, 36178, Note_off_c, 0, 56, 49
1, 36194, Note_on_c, 0, 53, 32
1, 36233, Note_off_c, 0, 53, 53
1, 36260, Note_on_c, 0, 56, 46
1, 36291, Note_off_c, 0, 56, 59
1, 36296, Control_c, 0, 67, 117
1, 36308, Note_on_c, 0, 53, 41
1, 36311, Control_c, 0, 67, 104
1, 36326, Control_c, 0, 67, 91
1, 36341, Control_c, 0, 67, 75
1, 36355, Control_c, 0, 67, 56
1, 36360, Note_off_c, 0, 53, 58
1, 36370, Control_c, 0, 67, 41
1, 36383, Note_on_c, 0, 56, 50
1, 36385, Control_c, 0, 67, 0
1, 36418, Note_off_c, 0, 56, 55
1, 36427, Note_on_c, 0, 53, 29
1, 36493, Note_off_c, 0, 53, 0
1, 36498, Note_on_c, 0, 56, 44
1, 36531, Poly_aftertouch_c, 0, 53, 127
1, 36532, Note_off_c, 0, 56, 55
1, 36595, Poly_aftertouch_c, 0, 53, 0
1, 36602, Note_on_c, 0, 56, 54
1, 36648, Note_off_c, 0, 56, 61
1, 36658, Note_on_c, 0, 53, 34
1, 36710, Note_off_c, 0, 53, 61
1, 36739, Note_on_c, 0, 56, 50
1, 36767, Note_off_c, 0, 56, 55
1, 36778, Note_on_c, 0, 53, 45
1, 36791, Note_off_c, 0, 37, 33
1, 36823, Note_off_c, 0, 53, 62
1, 36843, Note_on_c, 0, 56, 54
1, 36876, Note_off_c, 0, 56, 61
1, 36892, Note_on_c, 0, 53, 43
1, 36931, Note_off_c, 0, 53, 62
1, 36955, Note_on_c, 0, 56, 54
1, 36984, Note_off_c, 0, 56, 61
1, 37005, Note_on_c, 0, 53, 48
1, 37040, Note_off_c, 0, 53, 61
1, 37061, Note_on_c, 0, 56, 56
1, 37091, Note_off_c, 0, 56, 62
1, 37110, Note_on_c, 0, 53, 47
1, 37147, Note_off_c, 0, 53, 59
1, 37164, Note_on_c, 0, 56, 60
1, 37201, Note_off_c, 0, 56, 60
1, 37205, Note_on_c, 0, 53, 46
1, 37244, Note_off_c, 0, 53, 62
1, 37271, Note_on_c, 0, 56, 53
1, 37298, Note_off_c, 0, 56, 55
1, 37310, Note_on_c, 0, 53, 43
1, 37348, Note_off_c, 0, 53, 63
1, 37376, Note_on_c, 0, 56, 59
1, 37406, Note_off_c, 0, 56, 63
1, 37414, Note_on_c, 0, 53, 56
1, 37467, Note_off_c, 0, 53, 60
1, 37469, Note_on_c, 0, 56, 65
1, 37509, Note_on_c, 0, 53, 43
1, 37513, Note_off_c, 0, 56, 59
1, 37573, Note_off_c, 0, 53, 62
1, 37587, Note_on_c, 0, 56, 67
1, 37621, Note_off_c, 0, 56, 63
1, 37627, Note_on_c, 0, 53, 48
1, 37683, Note_off_c, 0, 53, 59
1, 37687, Note_on_c, 0, 56, 66
1, 37731, Note_off_c, 0, 56, 60
1, 37745, Note_on_c, 0, 53, 53
1, 37809, Note_on_c, 0, 56, 68
1, 37829, Note_off_c, 0, 53, 0
1, 37840, Note_off_c, 0, 56, 63
1, 37846, Note_on_c, 0, 53, 31
1, 37921, Note_on_c, 0, 56, 68
1, 38072, Note_off_c, 0, 61, 38
1, 38157, Note_on_c, 0, 57, 82
1, 38202, Note_on_c, 0, 54, 54
1, 38215, Control_c, 0, 64, 88
1, 38227, Note_off_c, 0, 53, 39
1, 38227, Note_off_c, 0, 56, 59
1, 38230, Control_c, 0, 64, 67
1, 38245, Control_c, 0, 64, 50
1, 38260, Control_c, 0, 64, 30
1, 38274, Control_c, 0, 64, 0
1, 38318, Control_c, 0, 64, 40
1, 38333, Control_c, 0, 64, 52
1, 38348, Control_c, 0, 64, 61
1, 38363, Control_c, 0, 64, 66
1, 38378, Control_c, 0, 64, 71
1, 38385, Note_off_c, 0, 54, 59
1, 38392, Control_c, 0, 64, 77
1, 38395, Note_on_c, 0, 45, 57
1, 38407, Control_c, 0, 64, 82
1, 38422, Control_c, 0, 64, 90
1, 38438, Control_c, 0, 64, 104
1, 38453, Control_c, 0, 64, 127
1, 38483, Note_off_c, 0, 45, 59
1, 38505, Note_on_c, 0, 54, 50
1, 38538, Note_off_c, 0, 54, 62
1, 38567, Note_on_c, 0, 45, 54
1, 38594, Note_off_c, 0, 57, 59
1, 38631, Note_on_c, 0, 54, 52
1, 38634, Note_off_c, 0, 45, 58
1, 38688, Note_off_c, 0, 54, 54
1, 38695, Note_on_c, 0, 45, 38
1, 38764, Note_off_c, 0, 45, 59
1, 38774, Note_on_c, 0, 54, 54
1, 38882, Note_on_c, 0, 45, 32
1, 38910, Note_off_c, 0, 45, 53
1, 38916, Note_off_c, 0, 54, 0
1, 38930, Note_on_c, 0, 54, 34
1, 39001, Note_on_c, 0, 45, 49
1, 39003, Note_off_c, 0, 54, 56
1, 39061, Note_off_c, 0, 45, 53
1, 39075, Note_on_c, 0, 54, 46
1, 39140, Note_on_c, 0, 45, 38
1, 39142, Note_off_c, 0, 54, 49
1, 39209, Note_off_c, 0, 45, 53
1, 39245, Note_on_c, 0, 54, 44
1, 39305, Note_on_c, 0, 45, 31
1, 39307, Note_on_c, 0, 74, 79
1, 39318, Note_off_c, 0, 54, 58
1, 39330, Poly_aftertouch_c, 0, 51, 127
1, 39422, Note_on_c, 0, 54, 45
1, 39438, Poly_aftertouch_c, 0, 51, 0
1, 39669, Note_on_c, 0, 62, 79
1, 39705, Note_off_c, 0, 54, 35
1, 39722, Note_on_c, 0, 57, 28
1, 39766, Note_off_c, 0, 57, 47
1, 39811, Note_on_c, 0, 54, 47
1, 39852, Note_off_c, 0, 54, 59
1, 39893, Note_on_c, 0, 57, 31
1, 39937, Note_off_c, 0, 57, 46
1, 40001, Note_on_c, 0, 54, 26
1, 40042, Note_on_c, 0, 57, 56
1, 40042, Note_off_c, 0, 54, 49
1, 40123, Note_off_c, 0, 57, 46
1, 40153, Note_on_c, 0, 54, 38
1, 40210, Note_off_c, 0, 54, 52
1, 40225, Note_on_c, 0, 57, 42
1, 40320, Note_off_c, 0, 57, 58
1, 40345, Note_on_c, 0, 54, 47
1, 40420, Note_off_c, 0, 54, 47
1, 40424, Note_on_c, 0, 57, 45
1, 40443, Note_on_c, 0, 69, 72
1, 40469, Note_off_c, 0, 57, 62
1, 40529, Note_on_c, 0, 54, 8
1, 40544, Note_off_c, 0, 45, 30
1, 40564, Note_on_c, 0, 57, 52
1, 40573, Note_off_c, 0, 54, 38
1, 40618, Note_off_c, 0, 57, 57
1, 40633, Note_on_c, 0, 54, 36
1, 40666, Note_off_c, 0, 54, 62
1, 40695, Note_off_c, 0, 74, 59
1, 40697, Note_off_c, 0, 62, 50
1, 40714, Note_off_c, 0, 69, 60
1, 40728, Note_on_c, 0, 45, 55
1, 40806, Note_on_c, 0, 52, 57
1, 40857, Note_on_c, 0, 62, 65
1, 40991, Note_on_c, 0, 73, 61
1, 41026, Control_c, 0, 64, 124
1, 41041, Control_c, 0, 64, 104
1, 41056, Control_c, 0, 64, 97
1, 41071, Control_c, 0, 64, 91
1, 41085, Control_c, 0, 64, 85
1, 41107, Control_c, 0, 64, 78
1, 41122, Control_c, 0, 64, 70
1, 41137, Control_c, 0, 64, 63
1, 41146, Note_on_c, 0, 71, 64
1, 41151, Control_c, 0, 64, 58
1, 41166, Control_c, 0, 64, 53
1, 41181, Control_c, 0, 64, 47
1, 41181, Control_c, 0, 67, 42
1, 41196, Control_c, 0, 64, 40
1, 41196, Control_c, 0, 67, 52
1, 41210, Control_c, 0, 64, 37
1, 41210, Control_c, 0, 67, 64
1, 41225, Control_c, 0, 67, 78
1, 41240, Control_c, 0, 64, 39
1, 41240, Control_c, 0, 67, 98
1, 41255, Control_c, 0, 64, 43
1, 41255, Control_c, 0, 67, 116
1, 41270, Control_c, 0, 64, 49
1, 41270, Control_c, 0, 67, 127
1, 41284, Control_c, 0, 64, 56
1, 41299, Control_c, 0, 64, 61
1, 41314, Control_c, 0, 64, 65
1, 41315, Note_off_c, 0, 73, 38
1, 41328, Control_c, 0, 64, 68
1, 41343, Control_c, 0, 64, 71
1, 41352, Note_off_c, 0, 52, 50
1, 41358, Control_c, 0, 64, 73
1, 41373, Control_c, 0, 64, 75
1, 41382, Note_on_c, 0, 55, 34
1, 41388, Control_c, 0, 64, 77
1, 41403, Control_c, 0, 64, 79
1, 41417, Control_c, 0, 64, 80
1, 41432, Control_c, 0, 64, 81
1, 41447, Control_c, 0, 64, 82
1, 41462, Control_c, 0, 64, 83
1, 41477, Control_c, 0, 64, 84
1, 41492, Control_c, 0, 64, 85
1, 41506, Control_c, 0, 64, 85
1, 41521, Control_c, 0, 64, 86
1, 41536, Control_c, 0, 64, 87
1, 41539, Note_on_c, 0, 52, 31
1, 41551, Control_c, 0, 64, 87
1, 41551, Note_off_c, 0, 55, 32
1, 41566, Control_c, 0, 64, 88
1, 41581, Control_c, 0, 64, 89
1, 41596, Control_c, 0, 64, 90
1, 41605, Note_off_c, 0, 52, 50
1, 41610, Control_c, 0, 64, 91
1, 41625, Control_c, 0, 64, 91
1, 41644, Note_on_c, 0, 55, 24
1, 41670, Control_c, 0, 64, 92
1, 41712, Note_off_c, 0, 55, 48
1, 41754, Note_on_c, 0, 52, 25
1, 41800, Note_off_c, 0, 52, 43
1, 41805, Note_on_c, 0, 55, 26
1, 41833, Control_c, 0, 64, 92
1, 41883, Note_off_c, 0, 55, 41
1, 41914, Note_on_c, 0, 52, 38
1, 41945, Control_c, 0, 64, 93
1, 41949, Note_off_c, 0, 52, 51
1, 41981, Note_on_c, 0, 55, 15
1, 42019, Control_c, 0, 64, 93
1, 42043, Note_off_c, 0, 55, 42
1, 42048, Control_c, 0, 64, 94
1, 42076, Note_on_c, 0, 52, 26
1, 42078, Control_c, 0, 64, 94
1, 42107, Control_c, 0, 64, 95
1, 42118, Note_off_c, 0, 52, 45
1, 42122, Control_c, 0, 64, 95
1, 42137, Control_c, 0, 64, 96
1, 42144, Note_on_c, 0, 55, 11
1, 42175, Note_on_c, 0, 69, 52
1, 42197, Note_off_c, 0, 55, 46
1, 42211, Control_c, 0, 64, 98
1, 42245, Note_on_c, 0, 52, 17
1, 42255, Control_c, 0, 64, 100
1, 42299, Control_c, 0, 64, 102
1, 42301, Note_on_c, 0, 55, 29
1, 42314, Control_c, 0, 64, 104
1, 42329, Control_c, 0, 64, 106
1, 42338, Note_off_c, 0, 52, 0
1, 42344, Control_c, 0, 64, 109
1, 42353, Note_off_c, 0, 55, 43
1, 42358, Note_on_c, 0, 52, 13
1, 42359, Control_c, 0, 64, 113
1, 42374, Control_c, 0, 64, 120
1, 42389, Control_c, 0, 64, 127
1, 42404, Note_off_c, 0, 52, 48
1, 42413, Note_on_c, 0, 55, 33
1, 42454, Note_off_c, 0, 62, 60
1, 42480, Note_off_c, 0, 55, 51
1, 42502, Note_on_c, 0, 52, 31
1, 42543, Note_off_c, 0, 52, 48
1, 42553, Note_on_c, 0, 55, 17
1, 42634, Note_off_c, 0, 55, 40
1, 42639, Note_on_c, 0, 52, 37
1, 42686, Note_off_c, 0, 52, 53
1, 42693, Poly_aftertouch_c, 0, 66, 127
1, 42700, Note_on_c, 0, 61, 51
1, 42706, Note_on_c, 0, 55, 26
1, 42766, Note_off_c, 0, 55, 52
1, 42786, Note_on_c, 0, 52, 37
1, 42828, Note_off_c, 0, 52, 54
1, 42845, Note_on_c, 0, 55, 30
1, 42904, Note_off_c, 0, 55, 53
1, 42912, Note_on_c, 0, 52, 46
1, 42951, Note_off_c, 0, 52, 56
1, 42976, Note_on_c, 0, 55, 27
1, 43031, Note_on_c, 0, 52, 42
1, 43041, Note_off_c, 0, 55, 40
1, 43066, Note_off_c, 0, 52, 59
1, 43086, Note_on_c, 0, 55, 39
1, 43140, Note_off_c, 0, 55, 57
1, 43161, Note_on_c, 0, 52, 44
1, 43190, Note_off_c, 0, 52, 56
1, 43201, Note_on_c, 0, 55, 48
1, 43250, Note_off_c, 0, 55, 61
1, 43273, Control_c, 0, 67, 116
1, 43282, Note_on_c, 0, 52, 46
1, 43287, Control_c, 0, 67, 90
1, 43302, Control_c, 0, 67, 57
1, 43307, Note_off_c, 0, 52, 62
1, 43317, Control_c, 0, 67, 0
1, 43328, Note_on_c, 0, 55, 52
1, 43360, Note_off_c, 0, 45, 35
1, 43393, Note_off_c, 0, 55, 60
1, 43399, Note_on_c, 0, 52, 57
1, 43435, Note_off_c, 0, 52, 63
1, 43444, Note_off_c, 0, 61, 51
1, 43530, Note_on_c, 0, 52, 47
1, 43550, Poly_aftertouch_c, 0, 70, 127
1, 43584, Poly_aftertouch_c, 0, 66, 0
1, 43625, Note_off_c, 0, 71, 24
1, 43643, Note_on_c, 0, 54, 68
1, 43673, Note_off_c, 0, 52, 36
1, 43732, Note_on_c, 0, 45, 62
1, 43829, Note_off_c, 0, 54, 37
1, 43861, Note_on_c, 0, 60, 79
1, 43902, Control_c, 0, 64, 118
1, 43917, Control_c, 0, 64, 85
1, 43931, Control_c, 0, 64, 67
1, 43946, Control_c, 0, 64, 56
1, 43961, Control_c, 0, 64, 50
1, 43976, Control_c, 0, 64, 49
1, 43991, Control_c, 0, 64, 51
1, 44005, Control_c, 0, 64, 54
1, 44021, Control_c, 0, 64, 58
1, 44034, Poly_aftertouch_c, 0, 70, 0
1, 44036, Control_c, 0, 64, 62
1, 44051, Control_c, 0, 64, 65
1, 44059, Note_on_c, 0, 53, 54
1, 44066, Control_c, 0, 64, 69
1, 44067, Note_off_c, 0, 45, 57
1, 44081, Control_c, 0, 64, 74
1, 44103, Control_c, 0, 64, 80
1, 44109, Note_off_c, 0, 53, 60
1, 44118, Control_c, 0, 64, 85
1, 44133, Control_c, 0, 64, 91
1, 44148, Control_c, 0, 64, 98
1, 44148, Note_on_c, 0, 45, 40
1, 44162, Control_c, 0, 64, 108
1, 44177, Control_c, 0, 64, 127
1, 44189, Note_off_c, 0, 45, 61
1, 44196, Note_off_c, 0, 69, 37
1, 44201, Note_on_c, 0, 53, 54
1, 44237, Note_off_c, 0, 53, 60
1, 44275, Note_on_c, 0, 45, 56
1, 44310, Note_off_c, 0, 45, 62
1, 44314, Note_on_c, 0, 53, 60
1, 44351, Note_off_c, 0, 53, 56
1, 44390, Note_on_c, 0, 45, 52
1, 44422, Note_on_c, 0, 53, 55
1, 44423, Note_off_c, 0, 45, 59
1, 44459, Note_off_c, 0, 53, 59
1, 44485, Note_on_c, 0, 45, 48
1, 44523, Note_off_c, 0, 45, 60
1, 44526, Note_on_c, 0, 53, 55
1, 44569, Note_off_c, 0, 53, 56
1, 44589, Note_on_c, 0, 45, 56
1, 44622, Note_off_c, 0, 45, 63
1, 44627, Note_on_c, 0, 53, 55
1, 44676, Note_off_c, 0, 53, 60
1, 44693, Note_on_c, 0, 45, 61
1, 44735, Note_on_c, 0, 53, 53
1, 44740, Note_off_c, 0, 45, 57
1, 44799, Note_off_c, 0, 53, 58
1, 44802, Note_on_c, 0, 65, 78
1, 44815, Note_on_c, 0, 45, 49
1, 44864, Note_off_c, 0, 45, 61
1, 44878, Note_on_c, 0, 53, 50
1, 44964, Note_on_c, 0, 45, 57
1, 45016, Note_off_c, 0, 53, 0
1, 45023, Note_off_c, 0, 45, 57
1, 45029, Note_on_c, 0, 53, 38
1, 45049, Note_on_c, 0, 72, 84
1, 45104, Note_off_c, 0, 53, 60
1, 45109, Note_on_c, 0, 45, 55
1, 45155, Note_off_c, 0, 45, 53
1, 45170, Note_on_c, 0, 53, 53
1, 45229, Note_off_c, 0, 53, 59
1, 45230, Note_on_c, 0, 45, 49
1, 45278, Note_off_c, 0, 45, 58
1, 45280, Note_on_c, 0, 53, 43
1, 45328, Note_off_c, 0, 53, 62
1, 45344, Note_on_c, 0, 45, 56
1, 45385, Note_off_c, 0, 45, 58
1, 45385, Note_off_c, 0, 65, 60
1, 45400, Note_on_c, 0, 53, 57
1, 45439, Note_off_c, 0, 53, 60
1, 45464, Note_on_c, 0, 45, 60
1, 45498, Note_off_c, 0, 45, 60
1, 45534, Note_on_c, 0, 53, 32
1, 45535, Note_on_c, 0, 65, 67
1, 45569, Note_off_c, 0, 53, 45
1, 45604, Note_off_c, 0, 72, 60
1, 45617, Note_on_c, 0, 53, 58
1, 45631, Note_on_c, 0, 45, 3
1, 45644, Note_off_c, 0, 45, 0
1, 45677, Note_off_c, 0, 53, 57
1, 45681, Poly_aftertouch_c, 0, 45, 127
1, 45682, Note_on_c, 0, 45, 25
1, 45725, Note_off_c, 0, 45, 64
1, 45742, Note_off_c, 0, 60, 62
1, 45794, Note_on_c, 0, 43, 76
1, 45901, Note_on_c, 0, 58, 77
1, 45915, Note_off_c, 0, 65, 60
1, 46014, Note_on_c, 0, 65, 79
1, 46089, Control_c, 0, 64, 98
1, 46104, Control_c, 0, 64, 75
1, 46119, Control_c, 0, 64, 60
1, 46133, Control_c, 0, 64, 38
1, 46148, Control_c, 0, 64, 0
1, 46151, Note_on_c, 0, 70, 87
1, 46207, Control_c, 0, 64, 38
1, 46222, Control_c, 0, 64, 51
1, 46237, Control_c, 0, 64, 63
1, 46252, Control_c, 0, 64, 71
1, 46267, Control_c, 0, 64, 80
1, 46276, Note_off_c, 0, 43, 61
1, 46282, Control_c, 0, 64, 90
1, 46291, Note_on_c, 0, 48, 56
1, 46297, Control_c, 0, 64, 101
1, 46312, Control_c, 0, 64, 127
1, 46351, Note_off_c, 0, 48, 61
1, 46384, Note_on_c, 0, 43, 56
1, 46433, Note_off_c, 0, 43, 61
1, 46478, Note_on_c, 0, 48, 36
1, 46512, Note_off_c, 0, 48, 46
1, 46520, Note_on_c, 0, 43, 56
1, 46553, Note_off_c, 0, 43, 56
1, 46618, Note_on_c, 0, 48, 7
1, 46640, Note_on_c, 0, 43, 50
1, 46681, Note_off_c, 0, 48, 0
1, 46681, Note_on_c, 0, 48, 9
1, 46681, Note_off_c, 0, 43, 49
1, 46739, Note_off_c, 0, 48, 60
1, 46752, Note_on_c, 0, 43, 51
1, 46777, Note_off_c, 0, 43, 60
1, 46810, Note_on_c, 0, 48, 53
1, 46856, Note_off_c, 0, 48, 60
1, 46865, Note_on_c, 0, 43, 53
1, 46909, Note_off_c, 0, 43, 59
1, 46911, Note_off_c, 0, 65, 54
1, 46937, Note_on_c, 0, 48, 46
1, 46970, Note_off_c, 0, 48, 53
1, 47004, Note_on_c, 0, 43, 48
1, 47035, Note_off_c, 0, 43, 52
1, 47070, Note_on_c, 0, 48, 43
1, 47111, Note_off_c, 0, 48, 52
1, 47137, Note_on_c, 0, 43, 49
1, 47172, Note_off_c, 0, 43, 62
1, 47216, Note_on_c, 0, 48, 47
1, 47248, Note_off_c, 0, 48, 55
1, 47258, Note_on_c, 0, 64, 70
1, 47277, Note_on_c, 0, 43, 49
1, 47320, Note_off_c, 0, 43, 60
1, 47343, Poly_aftertouch_c, 0, 68, 127
1, 47349, Note_on_c, 0, 48, 52
1, 47388, Note_off_c, 0, 48, 58
1, 47412, Note_on_c, 0, 43, 55
1, 47450, Note_off_c, 0, 43, 51
1, 47466, Note_on_c, 0, 48, 60
1, 47507, Note_off_c, 0, 48, 60
1, 47529, Note_off_c, 0, 58, 57
1, 47531, Note_on_c, 0, 43, 51
1, 47554, Note_off_c, 0, 43, 59
1, 47570, Note_on_c, 0, 48, 60
1, 47584, Poly_aftertouch_c, 0, 68, 0
1, 47595, Note_off_c, 0, 70, 48
1, 47627, Note_off_c, 0, 48, 61
1, 47632, Note_on_c, 0, 43, 63
1, 47672, Note_on_c, 0, 57, 76
1, 47675, Note_off_c, 0, 43, 61
1, 47700, Note_on_c, 0, 48, 56
1, 47747, Note_off_c, 0, 48, 62
1, 47753, Note_on_c, 0, 43, 68
1, 47799, Note_off_c, 0, 43, 60
1, 47822, Note_on_c, 0, 48, 75
1, 47922, Note_off_c, 0, 48, 56
1, 47926, Note_off_c, 0, 57, 61
1, 47937, Note_on_c, 0, 36, 73
1, 47990, Note_off_c, 0, 64, 48
1, 48040, Note_on_c, 0, 48, 81
1, 48124, Note_on_c, 0, 56, 76
1, 48172, Control_c, 0, 64, 94
1, 48187, Control_c, 0, 64, 65
1, 48201, Control_c, 0, 64, 43
1, 48216, Control_c, 0, 64, 0
1, 48261, Note_on_c, 0, 63, 88
1, 48290, Control_c, 0, 64, 44
1, 48305, Control_c, 0, 64, 62
1, 48319, Control_c, 0, 64, 78
1, 48327, Note_off_c, 0, 36, 62
1, 48334, Control_c, 0, 64, 127
1, 48395, Note_off_c, 0, 48, 62
1, 48410, Note_off_c, 0, 56, 53
1, 48518, Note_on_c, 0, 51, 45
1, 48565, Note_off_c, 0, 51, 58
1, 48610, Note_on_c, 0, 56, 41
1, 48642, Note_off_c, 0, 56, 55
1, 48665, Note_on_c, 0, 51, 60
1, 48711, Note_off_c, 0, 51, 59
1, 48741, Note_on_c, 0, 56, 55
1, 48744, Poly_aftertouch_c, 0, 48, 127
1, 48784, Note_off_c, 0, 56, 57
1, 48813, Poly_aftertouch_c, 0, 48, 0
1, 48833, Note_on_c, 0, 51, 40
1, 48839, Note_on_c, 0, 48, 7
1, 48863, Note_off_c, 0, 51, 55
1, 48881, Note_off_c, 0, 48, 53
1, 48883, Note_on_c, 0, 56, 49
1, 48911, Note_off_c, 0, 56, 60
1, 48944, Note_on_c, 0, 51, 54
1, 48953, Note_on_c, 0, 48, 44
1, 48980, Note_off_c, 0, 51, 62
1, 48986, Note_off_c, 0, 48, 58
1, 49001, Note_on_c, 0, 56, 53
1, 49045, Note_off_c, 0, 56, 57
1, 49071, Note_on_c, 0, 51, 52
1, 49083, Note_on_c, 0, 48, 48
1, 49121, Note_off_c, 0, 51, 53
1, 49127, Note_off_c, 0, 48, 60
1, 49140, Note_on_c, 0, 56, 56
1, 49188, Note_off_c, 0, 56, 54
1, 49225, Note_on_c, 0, 48, 53
1, 49272, Note_off_c, 0, 48, 53
1, 49291, Poly_aftertouch_c, 0, 51, 127
1, 49297, Note_on_c, 0, 56, 56
1, 49355, Note_off_c, 0, 56, 56
1, 49370, Note_on_c, 0, 51, 6
1, 49382, Note_on_c, 0, 48, 54
1, 49385, Note_on_c, 0, 68, 81
1, 49430, Note_off_c, 0, 48, 58
1, 49441, Note_off_c, 0, 51, 52
1, 49456, Note_on_c, 0, 56, 58
1, 49495, Note_off_c, 0, 56, 59
1, 49534, Note_on_c, 0, 48, 54
1, 49540, Note_on_c, 0, 51, 41
1, 49573, Note_off_c, 0, 48, 61
1, 49575, Note_off_c, 0, 51, 59
1, 49582, Note_on_c, 0, 56, 67
1, 49635, Note_off_c, 0, 56, 54
1, 49673, Note_on_c, 0, 48, 54
1, 49688, Note_on_c, 0, 51, 36
1, 49713, Note_on_c, 0, 56, 64
1, 49716, Note_off_c, 0, 48, 59
1, 49731, Note_off_c, 0, 51, 48
1, 49766, Note_off_c, 0, 56, 58
1, 49790, Note_on_c, 0, 48, 62
1, 49793, Note_on_c, 0, 51, 51
1, 49826, Note_on_c, 0, 62, 85
1, 49838, Note_on_c, 0, 56, 69
1, 49841, Note_off_c, 0, 51, 60
1, 49844, Note_off_c, 0, 48, 59
1, 49895, Note_off_c, 0, 56, 61
1, 49898, Note_on_c, 0, 48, 64
1, 49921, Note_on_c, 0, 51, 57
1, 49960, Note_off_c, 0, 51, 61
1, 49960, Note_on_c, 0, 56, 66
1, 49961, Note_off_c, 0, 48, 58
1, 50050, Note_on_c, 0, 51, 62
1, 50050, Note_off_c, 0, 63, 58
1, 50056, Note_off_c, 0, 56, 60
1, 50059, Note_off_c, 0, 68, 57
1, 50072, Note_on_c, 0, 48, 70
1, 50142, Note_off_c, 0, 51, 61
1, 50145, Note_off_c, 0, 48, 63
1, 50372, Note_on_c, 0, 68, 90
1, 50388, Note_on_c, 0, 61, 78
1, 50390, Note_on_c, 0, 46, 73
1, 50395, Note_on_c, 0, 34, 80
1, 50419, Control_c, 0, 64, 99
1, 50434, Control_c, 0, 64, 65
1, 50436, Note_off_c, 0, 62, 59
1, 50449, Control_c, 0, 64, 41
1, 50463, Control_c, 0, 64, 0
1, 50508, Control_c, 0, 64, 39
1, 50512, Note_off_c, 0, 34, 64
1, 50522, Control_c, 0, 64, 63
1, 50537, Control_c, 0, 64, 83
1, 50539, Note_off_c, 0, 46, 60
1, 50552, Control_c, 0, 64, 127
1, 50660, Note_on_c, 0, 53, 58
1, 50725, Note_off_c, 0, 53, 60
1, 50743, Note_on_c, 0, 56, 54
1, 50772, Poly_aftertouch_c, 0, 46, 0
1, 50780, Note_off_c, 0, 56, 63
1, 50790, Note_on_c, 0, 46, 36
1, 50792, Note_on_c, 0, 53, 45
1, 50828, Note_off_c, 0, 46, 57
1, 50843, Note_off_c, 0, 53, 59
1, 50858, Note_on_c, 0, 56, 72
1, 50896, Note_off_c, 0, 56, 62
1, 50906, Note_on_c, 0, 53, 53
1, 50944, Note_on_c, 0, 46, 23
1, 50953, Note_off_c, 0, 53, 58
1, 50958, Note_on_c, 0, 56, 76
1, 50998, Note_off_c, 0, 46, 0
1, 50999, Note_off_c, 0, 56, 62
1, 51003, Note_on_c, 0, 53, 55
1, 51017, Note_on_c, 0, 46, 27
1, 51048, Note_off_c, 0, 46, 48
1, 51054, Note_off_c, 0, 53, 61
1, 51057, Note_on_c, 0, 56, 62
1, 51097, Note_off_c, 0, 56, 62
1, 51101, Note_on_c, 0, 53, 45
1, 51132, Note_on_c, 0, 46, 39
1, 51148, Note_off_c, 0, 53, 63
1, 51162, Note_on_c, 0, 56, 74
1, 51168, Note_off_c, 0, 46, 47
1, 51191, Note_off_c, 0, 56, 63
1, 51204, Note_on_c, 0, 53, 55
1, 51252, Note_off_c, 0, 53, 51
1, 51255, Note_on_c, 0, 56, 73
1, 51261, Poly_aftertouch_c, 0, 46, 127
1, 51298, Note_on_c, 0, 53, 46
1, 51299, Note_off_c, 0, 56, 56
1, 51346, Note_on_c, 0, 56, 68
1, 51361, Poly_aftertouch_c, 0, 46, 0
1, 51406, Note_off_c, 0, 56, 62
1, 51406, Note_on_c, 0, 73, 92
1, 51414, Note_on_c, 0, 46, 52
1, 51448, Note_off_c, 0, 46, 62
1, 51451, Note_on_c, 0, 56, 63
1, 51502, Note_off_c, 0, 56, 61
1, 51533, Note_on_c, 0, 46, 44
1, 51544, Note_on_c, 0, 56, 66
1, 51561, Note_off_c, 0, 46, 52
1, 51600, Note_off_c, 0, 53, 0
1, 51600, Note_on_c, 0, 53, 14
1, 51606, Note_off_c, 0, 56, 62
1, 51633, Note_on_c, 0, 46, 44
1, 51661, Note_on_c, 0, 56, 71
1, 51662, Note_off_c, 0, 46, 53
1, 51703, Note_off_c, 0, 56, 62
1, 51733, Note_on_c, 0, 46, 50
1, 51756, Note_on_c, 0, 56, 77
1, 51756, Note_off_c, 0, 46, 59
1, 51811, Note_off_c, 0, 56, 62
1, 51814, Note_on_c, 0, 49, 36
1, 51823, Note_on_c, 0, 46, 69
1, 51850, Note_off_c, 0, 46, 63
1, 51860, Note_on_c, 0, 56, 80
1, 51865, Note_off_c, 0, 49, 61
1, 51882, Note_on_c, 0, 67, 84
1, 51918, Note_off_c, 0, 56, 62
1, 51926, Note_on_c, 0, 46, 62
1, 51926, Note_on_c, 0, 49, 65
1, 51939, Note_off_c, 0, 61, 48
1, 51958, Note_off_c, 0, 46, 63
1, 51968, Note_off_c, 0, 53, 22
1, 51981, Note_on_c, 0, 58, 80
1, 51988, Note_off_c, 0, 49, 53
1, 52012, Note_off_c, 0, 58, 63
1, 52017, Note_off_c, 0, 73, 57
1, 52023, Note_on_c, 0, 49, 54
1, 52035, Note_on_c, 0, 46, 65
1, 52065, Note_off_c, 0, 46, 61
1, 52106, Note_on_c, 0, 58, 71
1, 52144, Note_off_c, 0, 58, 54
1, 52190, Note_on_c, 0, 46, 75
1, 52303, Note_off_c, 0, 49, 40
1, 52315, Note_off_c, 0, 46, 59
1, 52520, Note_off_c, 0, 68, 58
1, 52525, Note_on_c, 0, 75, 97
1, 52539, Note_on_c, 0, 73, 86
1, 52539, Note_on_c, 0, 66, 85
1, 52550, Note_on_c, 0, 30, 92
1, 52557, Note_on_c, 0, 42, 83
1, 52561, Control_c, 0, 64, 80
1, 52566, Note_off_c, 0, 67, 63
1, 52575, Control_c, 0, 64, 53
1, 52590, Control_c, 0, 64, 0
1, 52649, Control_c, 0, 64, 45
1, 52657, Note_off_c, 0, 30, 64
1, 52664, Control_c, 0, 64, 67
1, 52679, Control_c, 0, 64, 89
1, 52685, Note_off_c, 0, 42, 63
1, 52694, Control_c, 0, 64, 127
1, 52840, Note_on_c, 0, 54, 53
1, 52872, Note_off_c, 0, 54, 63
1, 52959, Note_on_c, 0, 54, 64
1, 52986, Note_off_c, 0, 54, 64
1, 53032, Note_on_c, 0, 59, 56
1, 53046, Poly_aftertouch_c, 0, 51, 0
1, 53058, Note_off_c, 0, 59, 57
1, 53078, Note_on_c, 0, 54, 66
1, 53078, Note_on_c, 0, 51, 31
1, 53116, Note_off_c, 0, 54, 62
1, 53124, Note_off_c, 0, 51, 57
1, 53140, Note_on_c, 0, 59, 65
1, 53180, Note_off_c, 0, 59, 59
1, 53195, Note_on_c, 0, 54, 62
1, 53208, Note_on_c, 0, 51, 57
1, 53228, Note_off_c, 0, 54, 59
1, 53237, Note_off_c, 0, 51, 62
1, 53262, Note_on_c, 0, 59, 58
1, 53299, Note_off_c, 0, 59, 64
1, 53316, Note_on_c, 0, 51, 60
1, 53320, Note_on_c, 0, 54, 58
1, 53346, Note_off_c, 0, 51, 61
1, 53349, Note_off_c, 0, 54, 66
1, 53364, Note_on_c, 0, 59, 72
1, 53369, Note_off_c, 0, 66, 59
1, 53417, Note_off_c, 0, 59, 59
1, 53422, Note_on_c, 0, 51, 60
1, 53440, Note_on_c, 0, 54, 56
1, 53472, Note_off_c, 0, 54, 61
1, 53473, Note_off_c, 0, 51, 53
1, 53485, Note_on_c, 0, 59, 60
1, 53545, Note_on_c, 0, 71, 78
1, 53548, Note_off_c, 0, 59, 60
1, 53563, Note_on_c, 0, 54, 48
1, 53570, Note_on_c, 0, 65, 64
1, 53571, Note_on_c, 0, 51, 56
1, 53599, Note_off_c, 0, 54, 61
1, 53606, Note_off_c, 0, 51, 62
1, 53610, Note_on_c, 0, 59, 50
1, 53662, Note_off_c, 0, 59, 57
1, 53688, Note_on_c, 0, 51, 60
1, 53704, Note_on_c, 0, 54, 35
1, 53707, Note_off_c, 0, 75, 59
1, 53728, Note_off_c, 0, 51, 58
1, 53733, Note_on_c, 0, 59, 59
1, 53737, Note_off_c, 0, 54, 47
1, 53783, Note_off_c, 0, 73, 47
1, 53799, Note_off_c, 0, 59, 61
1, 53847, Note_on_c, 0, 51, 36
1, 53870, Note_on_c, 0, 59, 56
1, 53891, Note_off_c, 0, 51, 53
1, 53931, Note_on_c, 0, 77, 93
1, 53944, Note_off_c, 0, 59, 60
1, 53968, Note_on_c, 0, 54, 22
1, 53988, Note_on_c, 0, 51, 42
1, 54005, Note_off_c, 0, 65, 60
1, 54010, Note_off_c, 0, 54, 48
1, 54011, Note_on_c, 0, 59, 60
1, 54025, Note_off_c, 0, 51, 52
1, 54051, Note_off_c, 0, 59, 64
1, 54101, Note_on_c, 0, 51, 42
1, 54129, Note_on_c, 0, 59, 73
1, 54130, Note_off_c, 0, 51, 57
1, 54142, Note_on_c, 0, 63, 68
1, 54185, Note_off_c, 0, 59, 62
1, 54186, Note_off_c, 0, 77, 60
1, 54205, Note_on_c, 0, 51, 62
1, 54226, Note_off_c, 0, 63, 60
1, 54231, Note_on_c, 0, 54, 28
1, 54262, Note_off_c, 0, 54, 48
1, 54268, Note_off_c, 0, 51, 61
1, 54309, Note_on_c, 0, 78, 95
1, 54375, Note_off_c, 0, 71, 56
1, 54457, Note_on_c, 0, 29, 79
1, 54551, Note_on_c, 0, 41, 67
1, 54563, Control_c, 0, 64, 92
1, 54578, Control_c, 0, 64, 65
1, 54600, Control_c, 0, 64, 40
1, 54608, Note_on_c, 0, 63, 72
1, 54615, Control_c, 0, 64, 0
1, 54659, Control_c, 0, 64, 34
1, 54674, Control_c, 0, 64, 53
1, 54688, Control_c, 0, 64, 66
1, 54703, Control_c, 0, 64, 79
1, 54709, Note_off_c, 0, 63, 61
1, 54718, Control_c, 0, 64, 127
1, 54720, Note_off_c, 0, 29, 56
1, 54721, Note_on_c, 0, 71, 73
1, 54774, Note_off_c, 0, 41, 61
1, 54885, Note_on_c, 0, 80, 93
1, 54921, Note_off_c, 0, 78, 55
1, 55091, Note_on_c, 0, 56, 28
1, 55108, Note_on_c, 0, 53, 30
1, 55131, Note_off_c, 0, 56, 44
1, 55137, Note_on_c, 0, 59, 58
1, 55141, Note_off_c, 0, 53, 50
1, 55177, Note_off_c, 0, 59, 59
1, 55231, Note_on_c, 0, 53, 34
1, 55233, Note_on_c, 0, 56, 37
1, 55257, Note_off_c, 0, 80, 46
1, 55260, Note_off_c, 0, 53, 53
1, 55263, Note_on_c, 0, 59, 58
1, 55269, Note_off_c, 0, 56, 46
1, 55304, Note_off_c, 0, 59, 58
1, 55363, Note_on_c, 0, 56, 28
1, 55372, Note_on_c, 0, 53, 31
1, 55400, Note_off_c, 0, 56, 45
1, 55406, Note_off_c, 0, 53, 43
1, 55411, Note_on_c, 0, 59, 55
1, 55454, Note_off_c, 0, 59, 58
1, 55473, Note_on_c, 0, 56, 52
1, 55495, Note_on_c, 0, 53, 29
1, 55510, Note_off_c, 0, 56, 62
1, 55520, Note_on_c, 0, 59, 51
1, 55535, Note_off_c, 0, 53, 43
1, 55572, Note_off_c, 0, 59, 54
1, 55589, Note_on_c, 0, 56, 58
1, 55597, Note_on_c, 0, 53, 38
1, 55628, Note_off_c, 0, 56, 59
1, 55642, Note_off_c, 0, 53, 59
1, 55647, Note_on_c, 0, 59, 51
1, 55700, Note_off_c, 0, 59, 59
1, 55715, Note_on_c, 0, 53, 41
1, 55724, Note_on_c, 0, 56, 44
1, 55753, Note_off_c, 0, 56, 55
1, 55761, Note_off_c, 0, 53, 59
1, 55773, Note_on_c, 0, 59, 49
1, 55823, Note_off_c, 0, 59, 60
1, 55848, Note_on_c, 0, 56, 50
1, 55875, Note_on_c, 0, 53, 31
1, 55875, Note_off_c, 0, 56, 57
1, 55902, Note_off_c, 0, 53, 53
1, 55919, Note_on_c, 0, 59, 52
1, 55965, Note_off_c, 0, 59, 59
1, 55976, Poly_aftertouch_c, 0, 70, 127
1, 55981, Note_on_c, 0, 56, 44
1, 55996, Note_on_c, 0, 53, 43
1, 56023, Note_on_c, 0, 61, 73
1, 56035, Note_off_c, 0, 56, 57
1, 56038, Note_off_c, 0, 53, 60
1, 56065, Note_on_c, 0, 59, 51
1, 56115, Note_off_c, 0, 59, 61
1, 56169, Note_on_c, 0, 53, 33
1, 56202, Note_on_c, 0, 59, 59
1, 56202, Control_c, 0, 67, 48
1, 56206, Poly_aftertouch_c, 0, 56, 127
1, 56212, Note_off_c, 0, 53, 41
1, 56216, Control_c, 0, 67, 66
1, 56231, Control_c, 0, 67, 89
1, 56246, Control_c, 0, 67, 116
1, 56259, Poly_aftertouch_c, 0, 56, 0
1, 56259, Note_off_c, 0, 59, 59
1, 56260, Control_c, 0, 67, 127
1, 56277, Note_on_c, 0, 56, 27
1, 56277, Note_off_c, 0, 61, 54
1, 56284, Note_on_c, 0, 53, 23
1, 56324, Note_off_c, 0, 53, 56
1, 56331, Note_off_c, 0, 56, 56
1, 56358, Note_on_c, 0, 59, 41
1, 56403, Note_off_c, 0, 59, 51
1, 56441, Note_on_c, 0, 53, 27
1, 56446, Note_on_c, 0, 56, 28
1, 56477, Note_off_c, 0, 53, 46
1, 56483, Note_off_c, 0, 56, 51
1, 56486, Note_on_c, 0, 59, 47
1, 56531, Poly_aftertouch_c, 0, 70, 0
1, 56538, Note_off_c, 0, 71, 29
1, 56603, Note_on_c, 0, 53, 7
1, 56605, Note_off_c, 0, 59, 0
1, 56626, Note_off_c, 0, 53, 0
1, 56627, Note_on_c, 0, 59, 31
1, 56658, Poly_aftertouch_c, 0, 53, 0
1, 56701, Note_on_c, 0, 53, 36
1, 56733, Note_off_c, 0, 59, 0
1, 56756, Note_off_c, 0, 53, 58
1, 56765, Note_on_c, 0, 59, 20
1, 56945, Poly_aftertouch_c, 0, 53, 127
1, 57020, Note_off_c, 0, 59, 38
1, 57037, Note_on_c, 0, 56, 35
1, 57094, Poly_aftertouch_c, 0, 53, 0
1, 57097, Note_off_c, 0, 56, 56
1, 57117, Note_on_c, 0, 59, 46
1, 57145, Note_off_c, 0, 59, 59
1, 57260, Note_on_c, 0, 72, 40
1, 57267, Note_on_c, 0, 69, 40
1, 57350, Control_c, 0, 64, 119
1, 57365, Control_c, 0, 64, 93
1, 57380, Control_c, 0, 64, 78
1, 57395, Note_on_c, 0, 39, 48
1, 57395, Control_c, 0, 64, 65
1, 57409, Control_c, 0, 64, 56
1, 57424, Control_c, 0, 64, 51
1, 57439, Control_c, 0, 64, 50
1, 57454, Control_c, 0, 64, 51
1, 57469, Control_c, 0, 64, 56
1, 57483, Control_c, 0, 64, 61
1, 57498, Control_c, 0, 64, 65
1, 57507, Note_off_c, 0, 39, 63
1, 57513, Control_c, 0, 64, 68
1, 57528, Control_c, 0, 64, 72
1, 57543, Control_c, 0, 64, 77
1, 57544, Note_on_c, 0, 51, 53
1, 57557, Control_c, 0, 64, 80
1, 57572, Control_c, 0, 64, 82
1, 57594, Control_c, 0, 64, 84
1, 57596, Note_off_c, 0, 51, 58
1, 57610, Control_c, 0, 64, 85
1, 57625, Control_c, 0, 64, 87
1, 57639, Control_c, 0, 64, 88
1, 57654, Control_c, 0, 64, 89
1, 57655, Note_on_c, 0, 81, 43
1, 57661, Note_off_c, 0, 72, 55
1, 57677, Note_on_c, 0, 78, 32
1, 57684, Note_off_c, 0, 69, 42
1, 57690, Note_on_c, 0, 54, 37
1, 57714, Control_c, 0, 64, 88
1, 57729, Control_c, 0, 64, 88
1, 57743, Control_c, 0, 64, 86
1, 57758, Control_c, 0, 64, 85
1, 57773, Control_c, 0, 64, 83
1, 57788, Control_c, 0, 64, 82
1, 57801, Note_on_c, 0, 72, 45
1, 57803, Control_c, 0, 64, 81
1, 57809, Note_on_c, 0, 69, 38
1, 57812, Note_off_c, 0, 81, 42
1, 57818, Control_c, 0, 64, 79
1, 57832, Control_c, 0, 64, 78
1, 57847, Control_c, 0, 64, 77
1, 57850, Note_on_c, 0, 60, 70
1, 57857, Note_off_c, 0, 78, 40
1, 57862, Control_c, 0, 64, 76
1, 57877, Control_c, 0, 64, 76
1, 57929, Note_off_c, 0, 69, 30
1, 57964, Note_off_c, 0, 72, 27
1, 57980, Note_on_c, 0, 78, 32
1, 58013, Note_on_c, 0, 81, 19
1, 58024, Control_c, 0, 64, 76
1, 58052, Note_off_c, 0, 81, 54
1, 58054, Control_c, 0, 64, 77
1, 58069, Control_c, 0, 64, 77
1, 58075, Note_on_c, 0, 69, 40
1, 58079, Note_on_c, 0, 72, 33
1, 58084, Control_c, 0, 64, 78
1, 58098, Control_c, 0, 64, 79
1, 58109, Note_off_c, 0, 69, 50
1, 58113, Note_off_c, 0, 72, 49
1, 58113, Control_c, 0, 64, 79
1, 58128, Control_c, 0, 64, 80
1, 58134, Note_off_c, 0, 78, 0
1, 58143, Control_c, 0, 64, 81
1, 58146, Note_on_c, 0, 81, 52
1, 58155, Note_on_c, 0, 78, 12
1, 58158, Control_c, 0, 64, 81
1, 58172, Note_off_c, 0, 81, 53
1, 58173, Control_c, 0, 64, 82
1, 58203, Control_c, 0, 64, 82
1, 58217, Control_c, 0, 64, 83
1, 58223, Note_on_c, 0, 72, 35
1, 58227, Note_on_c, 0, 69, 33
1, 58232, Control_c, 0, 64, 83
1, 58247, Control_c, 0, 64, 84
1, 58262, Note_off_c, 0, 69, 52
1, 58265, Note_off_c, 0, 78, 0
1, 58277, Control_c, 0, 64, 84
1, 58282, Note_on_c, 0, 78, 32
1, 58282, Note_on_c, 0, 81, 42
1, 58306, Control_c, 0, 64, 85
1, 58313, Note_off_c, 0, 81, 51
1, 58314, Note_off_c, 0, 72, 0
1, 58345, Note_on_c, 0, 72, 15
1, 58358, Control_c, 0, 64, 85
1, 58372, Note_on_c, 0, 69, 32
1, 58377, Note_off_c, 0, 78, 0
1, 58387, Control_c, 0, 64, 86
1, 58402, Note_off_c, 0, 72, 42
1, 58402, Control_c, 0, 64, 86
1, 58403, Note_off_c, 0, 69, 55
1, 58406, Note_on_c, 0, 81, 64
1, 58415, Poly_aftertouch_c, 0, 78, 127
1, 58418, Control_c, 0, 64, 87
1, 58439, Note_off_c, 0, 81, 58
1, 58448, Control_c, 0, 64, 87
1, 58468, Note_on_c, 0, 72, 40
1, 58477, Control_c, 0, 64, 88
1, 58492, Note_on_c, 0, 69, 48
1, 58492, Control_c, 0, 64, 88
1, 58503, Poly_aftertouch_c, 0, 78, 0
1, 58507, Control_c, 0, 64, 89
1, 58516, Note_off_c, 0, 69, 58
1, 58522, Control_c, 0, 64, 89
1, 58536, Control_c, 0, 64, 90
1, 58539, Note_on_c, 0, 81, 64
1, 58539, Poly_aftertouch_c, 0, 78, 127
1, 58551, Control_c, 0, 64, 90
1, 58557, Note_off_c, 0, 72, 0
1, 58564, Note_off_c, 0, 81, 60
1, 58565, Note_on_c, 0, 78, 3
1, 58566, Control_c, 0, 64, 91
1, 58581, Control_c, 0, 64, 91
1, 58594, Note_on_c, 0, 69, 59
1, 58596, Control_c, 0, 64, 92
1, 58611, Control_c, 0, 64, 93
1, 58611, Poly_aftertouch_c, 0, 72, 0
1, 58617, Note_off_c, 0, 69, 63
1, 58626, Control_c, 0, 64, 94
1, 58629, Note_off_c, 0, 78, 0
1, 58641, Control_c, 0, 64, 95
1, 58644, Note_on_c, 0, 81, 57
1, 58645, Note_on_c, 0, 78, 32
1, 58655, Control_c, 0, 64, 97
1, 58670, Control_c, 0, 64, 99
1, 58673, Note_off_c, 0, 81, 61
1, 58684, Note_on_c, 0, 72, 57
1, 58685, Note_on_c, 0, 69, 64
1, 58685, Control_c, 0, 64, 101
1, 58700, Control_c, 0, 64, 104
1, 58715, Control_c, 0, 64, 107
1, 58724, Note_off_c, 0, 54, 59
1, 58727, Note_off_c, 0, 69, 57
1, 58727, Note_off_c, 0, 72, 59
1, 58729, Control_c, 0, 64, 110
1, 58740, Note_off_c, 0, 78, 0
1, 58744, Control_c, 0, 64, 115
1, 58745, Note_on_c, 0, 81, 63
1, 58759, Control_c, 0, 64, 127
1, 58762, Note_on_c, 0, 78, 32
1, 58793, Note_on_c, 0, 72, 39
1, 58803, Note_on_c, 0, 69, 30
1, 58813, Note_off_c, 0, 81, 0
1, 58834, Note_off_c, 0, 69, 56
1, 58851, Poly_aftertouch_c, 0, 81, 127
1, 58884, Poly_aftertouch_c, 0, 81, 0
1, 58911, Note_on_c, 0, 69, 29
1, 58915, Note_off_c, 0, 72, 59
1, 58927, Note_off_c, 0, 78, 0
1, 58939, Note_on_c, 0, 78, 43
1, 58942, Note_off_c, 0, 69, 56
1, 58944, Note_on_c, 0, 61, 85
1, 58954, Note_on_c, 0, 81, 40
1, 58975, Note_off_c, 0, 60, 63
1, 58983, Note_off_c, 0, 81, 54
1, 59002, Note_off_c, 0, 78, 53
1, 59013, Note_on_c, 0, 73, 65
1, 59028, Note_on_c, 0, 69, 48
1, 59051, Note_off_c, 0, 73, 55
1, 59054, Note_off_c, 0, 69, 58
1, 59089, Note_on_c, 0, 81, 53
1, 59097, Note_on_c, 0, 78, 56
1, 59122, Note_off_c, 0, 81, 62
1, 59138, Note_off_c, 0, 78, 56
1, 59151, Note_on_c, 0, 69, 52
1, 59162, Note_on_c, 0, 73, 52
1, 59179, Note_off_c, 0, 69, 56
1, 59185, Note_off_c, 0, 73, 62
1, 59197, Note_on_c, 0, 81, 64
1, 59201, Note_on_c, 0, 78, 52
1, 59234, Note_off_c, 0, 81, 61
1, 59243, Note_off_c, 0, 78, 59
1, 59266, Note_on_c, 0, 69, 54
1, 59266, Note_on_c, 0, 73, 55
1, 59295, Note_off_c, 0, 73, 59
1, 59299, Note_off_c, 0, 69, 54
1, 59311, Note_on_c, 0, 78, 63
1, 59312, Note_on_c, 0, 81, 62
1, 59331, Control_c, 0, 67, 117
1, 59341, Note_off_c, 0, 81, 67
1, 59346, Control_c, 0, 67, 106
1, 59348, Note_off_c, 0, 78, 56
1, 59360, Control_c, 0, 67, 95
1, 59371, Note_on_c, 0, 73, 51
1, 59375, Control_c, 0, 67, 87
1, 59386, Note_off_c, 0, 61, 59
1, 59390, Control_c, 0, 67, 82
1, 59397, Note_off_c, 0, 73, 58
1, 59399, Note_on_c, 0, 69, 12
1, 59405, Control_c, 0, 67, 77
1, 59406, Note_on_c, 0, 78, 53
1, 59410, Note_on_c, 0, 81, 70
1, 59420, Control_c, 0, 67, 71
1, 59434, Note_off_c, 0, 81, 67
1, 59434, Control_c, 0, 67, 65
1, 59443, Note_off_c, 0, 78, 60
1, 59449, Control_c, 0, 67, 58
1, 59457, Note_on_c, 0, 73, 58
1, 59459, Note_off_c, 0, 69, 0
1, 59459, Note_on_c, 0, 69, 11
1, 59464, Control_c, 0, 67, 50
1, 59478, Control_c, 0, 67, 44
1, 59491, Note_off_c, 0, 73, 60
1, 59493, Control_c, 0, 67, 40
1, 59503, Note_on_c, 0, 78, 59
1, 59504, Note_off_c, 0, 69, 54
1, 59505, Note_on_c, 0, 81, 65
1, 59508, Control_c, 0, 67, 36
1, 59523, Control_c, 0, 67, 0
1, 59536, Note_off_c, 0, 81, 64
1, 59550, Note_on_c, 0, 73, 55
1, 59565, Note_off_c, 0, 78, 0
1, 59573, Note_on_c, 0, 69, 27
1, 59595, Note_off_c, 0, 73, 58
1, 59596, Note_on_c, 0, 81, 64
1, 59601, Poly_aftertouch_c, 0, 78, 127
1, 59612, Note_off_c, 0, 69, 54
1, 59623, Note_off_c, 0, 81, 67
1, 59633, Note_on_c, 0, 73, 57
1, 59641, Poly_aftertouch_c, 0, 78, 0
1, 59659, Note_on_c, 0, 69, 39
1, 59689, Note_off_c, 0, 69, 53
1, 59692, Note_on_c, 0, 81, 74
1, 59693, Note_on_c, 0, 78, 46
1, 59699, Note_on_c, 0, 38, 71
1, 59723, Note_off_c, 0, 73, 0
1, 59734, Note_off_c, 0, 78, 57
1, 59738, Note_off_c, 0, 81, 55
1, 59739, Note_on_c, 0, 73, 32
1, 59767, Note_off_c, 0, 38, 61
1, 59790, Note_on_c, 0, 50, 73
1, 59799, Note_on_c, 0, 81, 46
1, 59811, Note_on_c, 0, 78, 56
1, 59832, Note_off_c, 0, 81, 59
1, 59841, Note_off_c, 0, 78, 61
1, 59872, Note_off_c, 0, 50, 62
1, 59875, Note_on_c, 0, 69, 38
1, 59896, Note_on_c, 0, 54, 77
1, 59912, Note_on_c, 0, 78, 66
1, 59912, Note_off_c, 0, 69, 50
1, 59917, Note_on_c, 0, 81, 56
1, 59951, Note_off_c, 0, 73, 54
1, 59960, Note_off_c, 0, 81, 53
1, 60015, Note_on_c, 0, 69, 49
1, 60017, Note_off_c, 0, 78, 60
1, 60018, Note_on_c, 0, 74, 68
1, 60052, Note_off_c, 0, 69, 52
1, 60086, Note_off_c, 0, 74, 63
1, 60088, Note_on_c, 0, 81, 71
1, 60098, Note_on_c, 0, 78, 54
1, 60139, Note_off_c, 0, 81, 63
1, 60152, Note_on_c, 0, 69, 59
1, 60152, Note_on_c, 0, 74, 69
1, 60159, Note_off_c, 0, 78, 59
1, 60171, Note_on_c, 0, 62, 94
1, 60197, Note_off_c, 0, 69, 59
1, 60213, Note_off_c, 0, 74, 62
1, 60231, Note_on_c, 0, 81, 65
1, 60232, Note_on_c, 0, 78, 40
1, 60263, Note_off_c, 0, 81, 62
1, 60282, Note_off_c, 0, 78, 56
1, 60295, Note_on_c, 0, 74, 67
1, 60303, Note_on_c, 0, 69, 61
1, 60326, Note_off_c, 0, 74, 63
1, 60330, Note_off_c, 0, 69, 66
1, 60361, Note_on_c, 0, 81, 66
1, 60367, Note_on_c, 0, 78, 59
1, 60386, Note_off_c, 0, 81, 69
1, 60399, Note_off_c, 0, 78, 62
1, 60422, Note_on_c, 0, 74, 61
1, 60441, Note_on_c, 0, 69, 40
1, 60443, Note_off_c, 0, 74, 61
1, 60468, Note_on_c, 0, 78, 59
1, 60470, Note_on_c, 0, 81, 66
1, 60473, Note_off_c, 0, 69, 53
1, 60495, Note_off_c, 0, 81, 69
1, 60501, Note_off_c, 0, 78, 62
1, 60512, Note_on_c, 0, 74, 71
1, 60549, Note_off_c, 0, 74, 57
1, 60564, Note_on_c, 0, 78, 67
1, 60566, Note_on_c, 0, 81, 67
1, 60590, Poly_aftertouch_c, 0, 69, 127
1, 60596, Note_off_c, 0, 81, 70
1, 60605, Note_off_c, 0, 78, 59
1, 60638, Note_on_c, 0, 74, 47
1, 60663, Note_off_c, 0, 74, 58
1, 60668, Note_on_c, 0, 78, 75
1, 60673, Note_on_c, 0, 81, 71
1, 60683, Poly_aftertouch_c, 0, 69, 0
1, 60698, Note_off_c, 0, 81, 70
1, 60703, Note_off_c, 0, 78, 59
1, 60730, Note_on_c, 0, 69, 49
1, 60754, Note_on_c, 0, 74, 29
1, 60755, Note_off_c, 0, 69, 57
1, 60765, Note_on_c, 0, 78, 71
1, 60767, Note_on_c, 0, 81, 71
1, 60790, Note_off_c, 0, 74, 48
1, 60793, Note_off_c, 0, 81, 63
1, 60799, Note_off_c, 0, 78, 56
1, 60830, Note_on_c, 0, 69, 57
1, 60851, Note_off_c, 0, 69, 62
1, 60856, Note_on_c, 0, 78, 75
1, 60866, Note_on_c, 0, 81, 68
1, 60889, Note_off_c, 0, 81, 71
1, 60905, Note_off_c, 0, 78, 58
1, 60931, Note_on_c, 0, 69, 41
1, 60939, Note_on_c, 0, 78, 70
1, 60968, Note_on_c, 0, 81, 54
1, 60979, Note_on_c, 0, 74, 37
1, 60988, Note_off_c, 0, 81, 61
1, 60995, Note_off_c, 0, 78, 62
1, 61016, Note_off_c, 0, 74, 64
1, 61025, Note_off_c, 0, 69, 30
1, 61037, Note_on_c, 0, 81, 80
1, 61058, Note_off_c, 0, 81, 66
1, 61118, Note_on_c, 0, 78, 70
1, 61121, Note_off_c, 0, 54, 57
1, 61138, Note_on_c, 0, 72, 48
1, 61163, Note_off_c, 0, 72, 57
1, 61174, Note_off_c, 0, 78, 58
1, 61179, Note_on_c, 0, 81, 62
1, 61179, Note_on_c, 0, 84, 72
1, 61209, Note_off_c, 0, 84, 63
1, 61233, Note_on_c, 0, 78, 66
1, 61233, Note_off_c, 0, 81, 44
1, 61281, Note_on_c, 0, 84, 73
1, 61282, Note_off_c, 0, 78, 61
1, 61303, Poly_aftertouch_c, 0, 72, 0
1, 61309, Note_off_c, 0, 84, 63
1, 61316, Poly_aftertouch_c, 0, 81, 127
1, 61332, Note_on_c, 0, 78, 63
1, 61347, Poly_aftertouch_c, 0, 72, 127
1, 61351, Note_on_c, 0, 72, 3
1, 61364, Note_on_c, 0, 81, 22
1, 61380, Note_on_c, 0, 84, 68
1, 61382, Note_off_c, 0, 78, 60
1, 61392, Note_off_c, 0, 72, 46
1, 61407, Note_off_c, 0, 84, 65
1, 61419, Note_on_c, 0, 78, 59
1, 61426, Note_off_c, 0, 81, 62
1, 61445, Note_on_c, 0, 72, 30
1, 61461, Note_on_c, 0, 84, 76
1, 61464, Note_on_c, 0, 81, 57
1, 61467, Note_off_c, 0, 78, 60
1, 61481, Note_off_c, 0, 72, 54
1, 61508, Note_off_c, 0, 84, 64
1, 61511, Note_on_c, 0, 78, 68
1, 61511, Note_off_c, 0, 81, 56
1, 61529, Note_on_c, 0, 72, 59
1, 61554, Note_off_c, 0, 72, 60
1, 61557, Note_on_c, 0, 81, 69
1, 61557, Note_on_c, 0, 84, 77
1, 61569, Note_off_c, 0, 78, 61
1, 61608, Note_on_c, 0, 78, 66
1, 61613, Note_off_c, 0, 81, 61
1, 61615, Note_off_c, 0, 84, 65
1, 61616, Note_on_c, 0, 72, 78
1, 61652, Note_off_c, 0, 72, 56
1, 61657, Note_on_c, 0, 81, 64
1, 61658, Note_on_c, 0, 60, 91
1, 61664, Note_on_c, 0, 84, 64
1, 61666, Note_off_c, 0, 78, 61
1, 61689, Note_off_c, 0, 62, 60
1, 61697, Note_off_c, 0, 81, 54
1, 61702, Note_off_c, 0, 84, 61
1, 61711, Note_on_c, 0, 78, 75
1, 61725, Note_on_c, 0, 72, 74
1, 61750, Note_off_c, 0, 72, 66
1, 61761, Note_off_c, 0, 60, 66
1, 61769, Note_off_c, 0, 78, 62
1, 61771, Note_on_c, 0, 84, 74
1, 61798, Note_on_c, 0, 81, 34
1, 61813, Note_on_c, 0, 78, 73
1, 61818, Note_on_c, 0, 72, 76
1, 61824, Note_off_c, 0, 84, 62
1, 61831, Note_off_c, 0, 81, 54
1, 61858, Note_off_c, 0, 72, 57
1, 61864, Note_on_c, 0, 84, 69
1, 61874, Note_off_c, 0, 78, 61
1, 61908, Note_on_c, 0, 51, 22
1, 61926, Note_on_c, 0, 79, 65
1, 61945, Note_off_c, 0, 84, 0
1, 61947, Note_on_c, 0, 43, 68
1, 61959, Note_off_c, 0, 51, 52
1, 61972, Note_on_c, 0, 84, 33
1, 61973, Poly_aftertouch_c, 0, 81, 127
1, 61985, Note_off_c, 0, 79, 62
1, 61991, Note_on_c, 0, 50, 81
1, 62005, Control_c, 0, 64, 92
1, 62012, Note_off_c, 0, 43, 62
1, 62012, Note_off_c, 0, 84, 64
1, 62015, Note_on_c, 0, 79, 60
1, 62016, Poly_aftertouch_c, 0, 81, 0
1, 62020, Control_c, 0, 64, 72
1, 62035, Control_c, 0, 64, 65
1, 62039, Note_on_c, 0, 74, 66
1, 62040, Poly_aftertouch_c, 0, 45, 0
1, 62050, Control_c, 0, 64, 65
1, 62051, Note_off_c, 0, 50, 65
1, 62057, Note_off_c, 0, 74, 63
1, 62065, Control_c, 0, 64, 68
1, 62079, Poly_aftertouch_c, 0, 72, 0
1, 62081, Note_on_c, 0, 55, 78
1, 62087, Control_c, 0, 64, 75
1, 62089, Note_off_c, 0, 79, 65
1, 62093, Note_on_c, 0, 84, 82
1, 62102, Control_c, 0, 64, 88
1, 62116, Control_c, 0, 64, 127
1, 62137, Note_on_c, 0, 74, 69
1, 62140, Note_on_c, 0, 79, 66
1, 62143, Note_off_c, 0, 84, 63
1, 62160, Note_on_c, 0, 72, 56
1, 62167, Note_off_c, 0, 55, 62
1, 62173, Note_off_c, 0, 74, 56
1, 62173, Note_on_c, 0, 60, 101
1, 62182, Note_off_c, 0, 72, 63
1, 62189, Note_on_c, 0, 84, 78
1, 62198, Note_off_c, 0, 79, 63
1, 62212, Note_on_c, 0, 81, 40
1, 62239, Note_off_c, 0, 81, 54
1, 62242, Note_off_c, 0, 84, 65
1, 62251, Note_off_c, 0, 60, 60
1, 62254, Note_on_c, 0, 79, 59
1, 62260, Note_on_c, 0, 74, 73
1, 62282, Note_off_c, 0, 74, 63
1, 62300, Note_on_c, 0, 84, 82
1, 62305, Note_off_c, 0, 79, 62
1, 62313, Note_on_c, 0, 81, 60
1, 62331, Note_off_c, 0, 81, 65
1, 62349, Note_off_c, 0, 84, 65
1, 62356, Note_on_c, 0, 74, 70
1, 62365, Note_on_c, 0, 79, 56
1, 62379, Poly_aftertouch_c, 0, 72, 0
1, 62392, Note_off_c, 0, 74, 62
1, 62406, Note_on_c, 0, 84, 82
1, 62431, Note_on_c, 0, 81, 27
1, 62435, Note_off_c, 0, 79, 0
1, 62451, Note_on_c, 0, 79, 43
1, 62454, Note_off_c, 0, 84, 64
1, 62468, Note_off_c, 0, 81, 52
1, 62480, Note_on_c, 0, 74, 50
1, 62503, Note_on_c, 0, 84, 80
1, 62507, Note_off_c, 0, 74, 55
1, 62555, Note_off_c, 0, 84, 63
1, 62580, Note_on_c, 0, 74, 59
1, 62600, Note_off_c, 0, 74, 63
1, 62620, Note_on_c, 0, 84, 51
1, 62628, Note_off_c, 0, 79, 65
1, 62645, Note_off_c, 0, 84, 58
1, 62668, Note_on_c, 0, 74, 72
1, 62668, Note_on_c, 0, 79, 64
1, 62683, Note_off_c, 0, 74, 69
1, 62725, Note_off_c, 0, 79, 0
1, 62738, Note_on_c, 0, 84, 75
1, 62739, Note_on_c, 0, 79, 63
1, 62753, Note_on_c, 0, 74, 57
1, 62772, Note_off_c, 0, 74, 63
1, 62787, Note_off_c, 0, 84, 63
1, 62787, Note_on_c, 0, 72, 12
1, 62806, Note_on_c, 0, 43, 82
1, 62808, Note_off_c, 0, 79, 63
1, 62811, Note_on_c, 0, 74, 71
1, 62846, Note_off_c, 0, 74, 59
1, 62850, Poly_aftertouch_c, 0, 81, 0
1, 62877, Note_off_c, 0, 43, 61
1, 62877, Note_on_c, 0, 50, 79
1, 62890, Note_off_c, 0, 72, 38
1, 62897, Note_on_c, 0, 74, 40
1, 62928, Note_off_c, 0, 74, 53
1, 62929, Note_off_c, 0, 50, 62
1, 62939, Note_on_c, 0, 55, 80
1, 62986, Note_off_c, 0, 55, 63
1, 62999, Note_on_c, 0, 71, 66
1, 63002, Note_on_c, 0, 74, 85
1, 63012, Note_on_c, 0, 59, 108
1, 63061, Note_off_c, 0, 71, 55
1, 63088, Note_off_c, 0, 59, 58
1, 63095, Note_on_c, 0, 79, 67
1, 63095, Note_on_c, 0, 83, 74
1, 63097, Note_off_c, 0, 74, 61
1, 63137, Note_off_c, 0, 79, 50
1, 63142, Note_off_c, 0, 83, 63
1, 63159, Note_on_c, 0, 74, 73
1, 63169, Note_on_c, 0, 71, 73
1, 63193, Note_off_c, 0, 71, 66
1, 63221, Note_off_c, 0, 74, 60
1, 63222, Note_on_c, 0, 83, 76
1, 63237, Note_on_c, 0, 79, 51
1, 63259, Note_off_c, 0, 79, 60
1, 63265, Note_off_c, 0, 83, 61
1, 63272, Note_on_c, 0, 74, 58
1, 63282, Note_on_c, 0, 71, 68
1, 63290, Note_on_c, 0, 81, 3
1, 63290, Note_off_c, 0, 81, 127
1, 63309, Note_off_c, 0, 71, 64
1, 63318, Note_on_c, 0, 79, 80
1, 63324, Note_on_c, 0, 83, 69
1, 63351, Note_off_c, 0, 83, 61
1, 63365, Note_off_c, 0, 79, 62
1, 63372, Note_on_c, 0, 71, 77
1, 63374, Note_off_c, 0, 74, 0
1, 63392, Note_on_c, 0, 74, 22
1, 63413, Note_on_c, 0, 79, 64
1, 63416, Note_off_c, 0, 71, 48
1, 63418, Note_on_c, 0, 83, 77
1, 63440, Note_off_c, 0, 83, 66
1, 63446, Note_off_c, 0, 79, 63
1, 63464, Note_on_c, 0, 71, 66
1, 63506, Note_off_c, 0, 71, 56
1, 63510, Note_on_c, 0, 83, 74
1, 63513, Note_on_c, 0, 79, 62
1, 63531, Note_off_c, 0, 83, 68
1, 63532, Note_off_c, 0, 74, 0
1, 63537, Note_off_c, 0, 79, 68
1, 63553, Note_on_c, 0, 71, 63
1, 63577, Poly_aftertouch_c, 0, 74, 127
1, 63598, Note_on_c, 0, 79, 73
1, 63598, Note_off_c, 0, 71, 60
1, 63599, Note_on_c, 0, 74, 3
1, 63603, Note_on_c, 0, 83, 81
1, 63622, Note_off_c, 0, 83, 69
1, 63624, Note_off_c, 0, 74, 56
1, 63646, Note_off_c, 0, 79, 60
1, 63653, Note_on_c, 0, 71, 71
1, 63672, Note_on_c, 0, 74, 58
1, 63675, Note_on_c, 0, 79, 62
1, 63691, Note_on_c, 0, 83, 76
1, 63692, Note_on_c, 0, 41, 94
1, 63693, Note_off_c, 0, 71, 60
1, 63707, Note_off_c, 0, 74, 57
1, 63714, Note_off_c, 0, 83, 62
1, 63735, Note_on_c, 0, 71, 69
1, 63750, Note_off_c, 0, 41, 65
1, 63762, Note_off_c, 0, 79, 56
1, 63767, Note_on_c, 0, 53, 82
1, 63824, Note_off_c, 0, 71, 62
1, 63881, Note_on_c, 0, 58, 102
1, 63901, Note_on_c, 0, 55, 75
1, 63901, Note_off_c, 0, 53, 60
1, 63902, Note_on_c, 0, 56, 50
1, 63919, Note_on_c, 0, 70, 84
1, 63920, Note_on_c, 0, 74, 79
1, 63962, Note_off_c, 0, 56, 57
1, 63963, Note_off_c, 0, 55, 61
1, 63977, Note_off_c, 0, 70, 58
1, 64030, Control_c, 0, 64, 79
1, 64039, Note_on_c, 0, 56, 87
1, 64045, Control_c, 0, 64, 54
1, 64060, Control_c, 0, 64, 30
1, 64072, Note_on_c, 0, 82, 66
1, 64074, Control_c, 0, 64, 0
1, 64081, Note_on_c, 0, 80, 55
1, 64104, Control_c, 0, 64, 35
1, 64105, Note_off_c, 0, 82, 60
1, 64119, Control_c, 0, 64, 48
1, 64122, Note_off_c, 0, 80, 59
1, 64126, Note_on_c, 0, 70, 77
1, 64134, Control_c, 0, 64, 61
1, 64148, Control_c, 0, 64, 75
1, 64163, Control_c, 0, 64, 104
1, 64165, Note_off_c, 0, 70, 63
1, 64178, Control_c, 0, 64, 127
1, 64191, Note_on_c, 0, 82, 81
1, 64196, Note_on_c, 0, 80, 70
1, 64221, Note_off_c, 0, 80, 67
1, 64234, Note_off_c, 0, 82, 60
1, 64242, Note_on_c, 0, 70, 81
1, 64284, Note_off_c, 0, 70, 60
1, 64287, Note_on_c, 0, 82, 70
1, 64295, Note_on_c, 0, 80, 77
1, 64325, Note_off_c, 0, 80, 66
1, 64332, Note_off_c, 0, 82, 61
1, 64346, Note_on_c, 0, 70, 72
1, 64384, Note_on_c, 0, 82, 74
1, 64387, Note_on_c, 0, 80, 80
1, 64388, Note_off_c, 0, 70, 59
1, 64415, Note_off_c, 0, 82, 60
1, 64424, Note_off_c, 0, 80, 58
1, 64439, Note_on_c, 0, 70, 70
1, 64462, Note_off_c, 0, 70, 68
1, 64469, Note_off_c, 0, 74, 0
1, 64469, Note_on_c, 0, 74, 28
1, 64480, Note_on_c, 0, 82, 82
1, 64484, Note_on_c, 0, 80, 71
1, 64505, Note_off_c, 0, 80, 68
1, 64516, Note_off_c, 0, 82, 54
1, 64524, Note_on_c, 0, 70, 78
1, 64533, Note_off_c, 0, 58, 58
1, 64540, Note_off_c, 0, 56, 61
1, 64546, Note_off_c, 0, 74, 0
1, 64567, Note_off_c, 0, 70, 59
1, 64569, Note_on_c, 0, 82, 78
1, 64584, Poly_aftertouch_c, 0, 74, 127
1, 64587, Note_on_c, 0, 80, 63
1, 64592, Note_off_c, 0, 82, 61
1, 64603, Note_off_c, 0, 80, 65
1, 64606, Note_on_c, 0, 70, 72
1, 64650, Note_off_c, 0, 70, 55
1, 64656, Note_on_c, 0, 82, 88
1, 64662, Note_on_c, 0, 74, 9
1, 64667, Note_on_c, 0, 80, 75
1, 64686, Note_off_c, 0, 80, 72
1, 64700, Note_off_c, 0, 82, 61
1, 64704, Note_on_c, 0, 70, 64
1, 64732, Note_off_c, 0, 70, 67
1, 64737, Note_off_c, 0, 74, 0
1, 64737, Note_on_c, 0, 74, 35
1, 64739, Note_on_c, 0, 82, 67
1, 64749, Note_on_c, 0, 80, 78
1, 64769, Note_off_c, 0, 80, 68
1, 64778, Note_off_c, 0, 82, 60
1, 64794, Note_on_c, 0, 70, 80
1, 64808, Note_off_c, 0, 74, 0
1, 64823, Note_on_c, 0, 74, 51
1, 64830, Note_off_c, 0, 70, 56
1, 64833, Note_on_c, 0, 82, 71
1, 64841, Note_on_c, 0, 80, 75
1, 64865, Note_off_c, 0, 80, 69
1, 64876, Note_on_c, 0, 70, 78
1, 64878, Note_off_c, 0, 82, 61
1, 64920, Note_on_c, 0, 82, 66
1, 64922, Note_off_c, 0, 70, 63
1, 64929, Note_on_c, 0, 80, 81
1, 64937, Note_off_c, 0, 74, 55
1, 64963, Note_on_c, 0, 53, 84
1, 64975, Note_on_c, 0, 70, 75
1, 64975, Note_off_c, 0, 82, 61
1, 64977, Note_off_c, 0, 80, 44
1, 64989, Note_on_c, 0, 74, 50
1, 65031, Note_on_c, 0, 58, 93
1, 65035, Note_off_c, 0, 53, 65
1, 65038, Note_on_c, 0, 82, 49
1, 65047, Note_on_c, 0, 80, 57
1, 65083, Note_off_c, 0, 80, 66
1, 65085, Note_off_c, 0, 82, 62
1, 65141, Note_on_c, 0, 62, 77
1, 65158, Note_on_c, 0, 80, 80
1, 65164, Note_off_c, 0, 70, 56
1, 65195, Note_on_c, 0, 70, 61
1, 65205, Note_off_c, 0, 80, 63
1, 65226, Note_on_c, 0, 68, 106
1, 65249, Note_on_c, 0, 82, 54
1, 65260, Note_on_c, 0, 80, 71
1, 65267, Note_off_c, 0, 70, 64
1, 65289, Note_off_c, 0, 74, 60
1, 65300, Note_off_c, 0, 68, 61
1, 65309, Note_off_c, 0, 82, 64
1, 65309, Note_off_c, 0, 80, 63
1, 65324, Note_on_c, 0, 70, 81
1, 65327, Note_on_c, 0, 74, 41
1, 65346, Note_off_c, 0, 62, 60
1, 65372, Note_on_c, 0, 80, 71
1, 65373, Note_off_c, 0, 70, 64
1, 65377, Note_on_c, 0, 82, 65
1, 65402, Note_off_c, 0, 82, 68
1, 65420, Note_off_c, 0, 80, 63
1, 65427, Note_on_c, 0, 70, 75
1, 65457, Note_off_c, 0, 58, 50
1, 65468, Note_on_c, 0, 80, 69
1, 65486, Note_off_c, 0, 70, 0
1, 65523, Poly_aftertouch_c, 0, 70, 127
1, 65545, Note_on_c, 0, 82, 76
1, 65547, Note_off_c, 0, 74, 37
1, 65564, Poly_aftertouch_c, 0, 70, 0
1, 65638, Note_on_c, 0, 51, 94
1, 65654, Note_off_c, 0, 80, 61
1, 65676, Control_c, 0, 64, 92
1, 65691, Control_c, 0, 64, 61
1, 65705, Note_off_c, 0, 82, 65
1, 65706, Control_c, 0, 64, 0
1, 65750, Note_on_c, 0, 60, 83
1, 65750, Control_c, 0, 64, 36
1, 65765, Control_c, 0, 64, 57
1, 65780, Control_c, 0, 64, 75
1, 65795, Control_c, 0, 64, 127
1, 65838, Note_off_c, 0, 51, 60
1, 65861, Note_off_c, 0, 60, 66
1, 65863, Note_on_c, 0, 63, 95
1, 65911, Note_off_c, 0, 63, 65
1, 66009, Note_on_c, 0, 92, 100
1, 66013, Note_on_c, 0, 80, 92
1, 66015, Note_on_c, 0, 84, 93
1, 66020, Note_on_c, 0, 68, 109
1, 66046, Note_off_c, 0, 68, 69
1, 66629, Note_on_c, 0, 39, 44
1, 66783, Note_on_c, 0, 44, 48
1, 66790, Poly_aftertouch_c, 0, 87, 127
1, 66805, Note_off_c, 0, 39, 36
1, 66823, Note_off_c, 0, 44, 61
1, 66879, Note_on_c, 0, 48, 57
1, 66928, Note_off_c, 0, 48, 59
1, 66983, Note_on_c, 0, 51, 62
1, 67063, Note_off_c, 0, 51, 61
1, 67074, Note_on_c, 0, 56, 69
1, 67113, Note_off_c, 0, 56, 62
1, 67142, Note_off_c, 0, 92, 63
1, 67167, Note_on_c, 0, 60, 63
1, 67170, Note_off_c, 0, 80, 55
1, 67181, Note_off_c, 0, 84, 61
1, 67202, Poly_aftertouch_c, 0, 87, 0
1, 67241, Note_off_c, 0, 60, 62
1, 67275, Note_on_c, 0, 63, 63
1, 67277, Control_c, 0, 67, 55
1, 67291, Control_c, 0, 67, 84
1, 67306, Control_c, 0, 67, 116
1, 67329, Control_c, 0, 67, 127
1, 67348, Note_off_c, 0, 63, 60
1, 67366, Note_on_c, 0, 68, 67
1, 67425, Note_off_c, 0, 68, 62
1, 67463, Note_on_c, 0, 63, 64
1, 67491, Note_off_c, 0, 63, 66
1, 67570, Note_on_c, 0, 60, 52
1, 67619, Note_off_c, 0, 60, 52
1, 67664, Note_on_c, 0, 80, 88
1, 67694, Note_on_c, 0, 56, 49
1, 67703, Note_on_c, 0, 68, 44
1, 67738, Note_off_c, 0, 56, 57
1, 67757, Note_off_c, 0, 68, 60
1, 67913, Note_on_c, 0, 48, 55
1, 67953, Note_off_c, 0, 48, 59
1, 68013, Note_on_c, 0, 44, 40
1, 68059, Note_off_c, 0, 44, 45
1, 68080, Note_on_c, 0, 68, 49
1, 68159, Note_on_c, 0, 76, 58
1, 68207, Note_on_c, 0, 40, 47
1, 68211, Control_c, 0, 64, 115
1, 68226, Control_c, 0, 64, 107
1, 68240, Control_c, 0, 64, 101
1, 68255, Control_c, 0, 64, 95
1, 68270, Control_c, 0, 64, 90
1, 68285, Control_c, 0, 64, 83
1, 68300, Control_c, 0, 64, 77
1, 68314, Control_c, 0, 64, 70
1, 68329, Control_c, 0, 64, 64
1, 68344, Control_c, 0, 64, 59
1, 68358, Control_c, 0, 64, 55
1, 68373, Control_c, 0, 64, 49
1, 68375, Note_on_c, 0, 83, 80
1, 68388, Control_c, 0, 64, 39
1, 68403, Control_c, 0, 64, 0
1, 68463, Control_c, 0, 64, 32
1, 68478, Control_c, 0, 64, 45
1, 68493, Control_c, 0, 64, 59
1, 68507, Control_c, 0, 64, 67
1, 68522, Control_c, 0, 64, 75
1, 68537, Control_c, 0, 64, 84
1, 68552, Control_c, 0, 64, 92
1, 68553, Note_on_c, 0, 47, 41
1, 68566, Control_c, 0, 64, 101
1, 68581, Control_c, 0, 64, 114
1, 68586, Note_off_c, 0, 40, 45
1, 68596, Control_c, 0, 64, 127
1, 68615, Note_off_c, 0, 47, 61
1, 68689, Note_on_c, 0, 52, 42
1, 68734, Note_off_c, 0, 52, 61
1, 68791, Note_on_c, 0, 56, 50
1, 68877, Note_off_c, 0, 56, 54
1, 68914, Note_on_c, 0, 59, 52
1, 68942, Note_off_c, 0, 59, 64
1, 68947, Note_off_c, 0, 68, 32
1, 69044, Note_on_c, 0, 64, 47
1, 69122, Note_off_c, 0, 64, 47
1, 69168, Note_on_c, 0, 68, 50
1, 69213, Note_off_c, 0, 68, 60
1, 69309, Note_on_c, 0, 64, 46
1, 69535, Note_on_c, 0, 61, 65
1, 69588, Note_off_c, 0, 64, 36
1, 69748, Note_off_c, 0, 61, 59
1, 69799, Note_on_c, 0, 59, 40
1, 69906, Note_off_c, 0, 83, 36
1, 69964, Note_off_c, 0, 59, 51
1, 69972, Note_off_c, 0, 76, 49
1, 69986, Note_on_c, 0, 52, 47
1, 69989, Note_off_c, 0, 80, 38
1, 70198, Control_c, 0, 64, 122
1, 70213, Control_c, 0, 64, 108
1, 70227, Control_c, 0, 64, 100
1, 70233, Note_on_c, 0, 67, 58
1, 70242, Control_c, 0, 64, 94
1, 70257, Control_c, 0, 64, 88
1, 70262, Note_on_c, 0, 59, 42
1, 70272, Control_c, 0, 64, 81
1, 70287, Control_c, 0, 64, 75
1, 70302, Control_c, 0, 64, 69
1, 70324, Control_c, 0, 64, 63
1, 70339, Control_c, 0, 64, 60
1, 70353, Control_c, 0, 64, 58
1, 70368, Control_c, 0, 64, 56
1, 70398, Control_c, 0, 64, 57
1, 70413, Control_c, 0, 64, 58
1, 70428, Control_c, 0, 64, 60
1, 70442, Control_c, 0, 64, 62
1, 70457, Control_c, 0, 64, 63
1, 70472, Note_off_c, 0, 59, 48
1, 70472, Control_c, 0, 64, 65
1, 70487, Control_c, 0, 64, 66
1, 70502, Control_c, 0, 64, 69
1, 70517, Control_c, 0, 64, 72
1, 70532, Control_c, 0, 64, 75
1, 70537, Note_on_c, 0, 61, 31
1, 70546, Control_c, 0, 64, 78
1, 70561, Control_c, 0, 64, 79
1, 70576, Control_c, 0, 64, 81
1, 70591, Control_c, 0, 64, 81
1, 70606, Control_c, 0, 64, 83
1, 70621, Control_c, 0, 64, 84
1, 70635, Control_c, 0, 64, 86
1, 70650, Control_c, 0, 64, 88
1, 70656, Note_off_c, 0, 52, 58
1, 70665, Control_c, 0, 64, 89
1, 70680, Control_c, 0, 64, 90
1, 70695, Control_c, 0, 64, 91
1, 70701, Note_off_c, 0, 61, 40
1, 70709, Control_c, 0, 64, 92
1, 70724, Control_c, 0, 64, 92
1, 70739, Control_c, 0, 64, 93
1, 70754, Control_c, 0, 64, 94
1, 70768, Control_c, 0, 64, 95
1, 70783, Control_c, 0, 64, 95
1, 70813, Control_c, 0, 64, 97
1, 70828, Control_c, 0, 64, 99
1, 70842, Control_c, 0, 64, 101
1, 70857, Control_c, 0, 64, 104
1, 70858, Note_on_c, 0, 59, 37
1, 70872, Control_c, 0, 64, 106
1, 70887, Control_c, 0, 64, 109
1, 70902, Control_c, 0, 64, 112
1, 70916, Control_c, 0, 64, 118
1, 70931, Control_c, 0, 64, 127
1, 70993, Note_off_c, 0, 59, 52
1, 71310, Control_c, 0, 64, 124
1, 71325, Control_c, 0, 64, 119
1, 71339, Control_c, 0, 64, 117
1, 71354, Control_c, 0, 64, 114
1, 71369, Control_c, 0, 64, 112
1, 71399, Control_c, 0, 64, 109
1, 71429, Control_c, 0, 64, 107
1, 71436, Note_on_c, 0, 42, 34
1, 71458, Control_c, 0, 64, 105
1, 71488, Control_c, 0, 64, 102
1, 71503, Control_c, 0, 64, 100
1, 71532, Control_c, 0, 64, 97
1, 71547, Control_c, 0, 64, 95
1, 71562, Note_on_c, 0, 63, 33
1, 71562, Control_c, 0, 64, 93
1, 71577, Control_c, 0, 64, 92
1, 71591, Control_c, 0, 64, 90
1, 71606, Control_c, 0, 64, 89
1, 71621, Control_c, 0, 64, 87
1, 71636, Control_c, 0, 64, 85
1, 71651, Control_c, 0, 64, 83
1, 71658, Note_off_c, 0, 67, 34
1, 71665, Control_c, 0, 64, 82
1, 71680, Control_c, 0, 64, 80
1, 71695, Control_c, 0, 64, 79
1, 71709, Control_c, 0, 64, 78
1, 71724, Control_c, 0, 64, 77
1, 71739, Control_c, 0, 64, 75
1, 71754, Control_c, 0, 64, 74
1, 71769, Control_c, 0, 64, 74
1, 71784, Control_c, 0, 64, 73
1, 71798, Control_c, 0, 64, 71
1, 71800, Note_on_c, 0, 66, 58
1, 71821, Control_c, 0, 64, 69
1, 71836, Control_c, 0, 64, 67
1, 71852, Control_c, 0, 64, 64
1, 71866, Control_c, 0, 64, 59
1, 71881, Control_c, 0, 64, 54
1, 71896, Control_c, 0, 64, 49
1, 71910, Control_c, 0, 64, 46
1, 71912, Note_off_c, 0, 63, 43
1, 71925, Control_c, 0, 64, 46
1, 71940, Control_c, 0, 64, 47
1, 71955, Control_c, 0, 64, 53
1, 71970, Control_c, 0, 64, 61
1, 71986, Control_c, 0, 64, 67
1, 72001, Control_c, 0, 64, 75
1, 72015, Control_c, 0, 64, 84
1, 72030, Control_c, 0, 64, 93
1, 72045, Control_c, 0, 64, 102
1, 72060, Control_c, 0, 64, 124
1, 72075, Control_c, 0, 64, 127
1, 72088, Note_off_c, 0, 42, 41
1, 72448, Note_on_c, 0, 53, 24
1, 72693, Note_on_c, 0, 54, 30
1, 72730, Note_off_c, 0, 53, 32
1, 72832, Note_off_c, 0, 54, 60
1, 72891, Note_on_c, 0, 59, 35
1, 73035, Note_off_c, 0, 59, 36
1, 73071, Note_on_c, 0, 63, 43
1, 73168, Note_off_c, 0, 63, 51
1, 73229, Note_on_c, 0, 71, 66
1, 73396, Note_off_c, 0, 66, 55
1, 73638, Note_on_c, 0, 58, 28
1, 73718, Note_off_c, 0, 71, 54
1, 73816, Note_on_c, 0, 59, 34
1, 73971, Note_on_c, 0, 63, 29
1, 74027, Note_off_c, 0, 63, 43
1, 74086, Note_off_c, 0, 59, 39
1, 74119, Note_on_c, 0, 68, 32
1, 74156, Note_off_c, 0, 58, 37
1, 74204, Note_on_c, 0, 54, 36
1, 74279, Note_on_c, 0, 61, 42
1, 74373, Note_on_c, 0, 64, 42
1, 74425, Note_off_c, 0, 68, 33
1, 74526, Control_c, 0, 64, 109
1, 74541, Control_c, 0, 64, 97
1, 74545, Note_on_c, 0, 71, 63
1, 74556, Control_c, 0, 64, 86
1, 74571, Control_c, 0, 64, 74
1, 74586, Control_c, 0, 64, 63
1, 74597, Note_off_c, 0, 61, 49
1, 74600, Control_c, 0, 64, 55
1, 74615, Control_c, 0, 64, 52
1, 74618, Note_off_c, 0, 64, 60
1, 74630, Control_c, 0, 64, 53
1, 74645, Control_c, 0, 64, 55
1, 74660, Control_c, 0, 64, 60
1, 74675, Control_c, 0, 64, 64
1, 74690, Control_c, 0, 64, 69
1, 74705, Control_c, 0, 64, 78
1, 74720, Control_c, 0, 64, 85
1, 74734, Control_c, 0, 64, 91
1, 74749, Control_c, 0, 64, 97
1, 74764, Control_c, 0, 64, 102
1, 74779, Control_c, 0, 64, 108
1, 74800, Control_c, 0, 64, 119
1, 74815, Control_c, 0, 64, 127
1, 74924, Note_off_c, 0, 54, 37
1, 74955, Note_on_c, 0, 66, 40
1, 75071, Note_off_c, 0, 66, 61
1, 75181, Note_on_c, 0, 65, 31
1, 75309, Note_off_c, 0, 65, 51
1, 75371, Note_on_c, 0, 64, 29
1, 75505, Note_on_c, 0, 61, 35
1, 75517, Note_off_c, 0, 64, 35
1, 75690, Note_on_c, 0, 70, 52
1, 75771, Note_off_c, 0, 61, 41
1, 75823, Note_off_c, 0, 71, 55
1, 76017, Note_on_c, 0, 63, 36
1, 76173, Note_off_c, 0, 63, 36
1, 76174, Note_on_c, 0, 61, 41
1, 76279, Note_off_c, 0, 61, 56
1, 76333, Note_on_c, 0, 58, 38
1, 76442, Note_off_c, 0, 58, 47
1, 76488, Note_on_c, 0, 54, 37
1, 76545, Note_off_c, 0, 54, 60
1, 76765, Note_on_c, 0, 69, 66
1, 76803, Control_c, 0, 64, 111
1, 76805, Note_on_c, 0, 42, 44
1, 76818, Control_c, 0, 64, 95
1, 76823, Note_on_c, 0, 62, 40
1, 76833, Control_c, 0, 64, 82
1, 76848, Control_c, 0, 64, 67
1, 76863, Control_c, 0, 64, 56
1, 76877, Control_c, 0, 64, 45
1, 76884, Note_off_c, 0, 62, 0
1, 76884, Note_on_c, 0, 62, 9
1, 76892, Control_c, 0, 64, 35
1, 76907, Control_c, 0, 64, 30
1, 76920, Note_off_c, 0, 70, 59
1, 76936, Control_c, 0, 64, 34
1, 76951, Control_c, 0, 64, 45
1, 76966, Control_c, 0, 64, 57
1, 76981, Control_c, 0, 64, 64
1, 76995, Control_c, 0, 64, 70
1, 77010, Control_c, 0, 64, 77
1, 77025, Control_c, 0, 64, 83
1, 77040, Control_c, 0, 64, 88
1, 77042, Note_off_c, 0, 42, 58
1, 77063, Control_c, 0, 64, 93
1, 77077, Control_c, 0, 64, 96
1, 77092, Control_c, 0, 64, 99
1, 77107, Control_c, 0, 64, 104
1, 77122, Control_c, 0, 64, 112
1, 77136, Control_c, 0, 64, 127
1, 77208, Note_on_c, 0, 56, 36
1, 77301, Note_off_c, 0, 56, 59
1, 77315, Note_off_c, 0, 62, 39
1, 77407, Note_on_c, 0, 57, 34
1, 77568, Note_on_c, 0, 62, 40
1, 77676, Note_off_c, 0, 57, 40
1, 77698, Note_on_c, 0, 66, 58
1, 77886, Note_on_c, 0, 74, 79
1, 77906, Note_on_c, 0, 57, 47
1, 77933, Note_on_c, 0, 54, 38
1, 77969, Note_off_c, 0, 62, 45
1, 78028, Note_off_c, 0, 66, 28
1, 78048, Control_c, 0, 64, 108
1, 78063, Control_c, 0, 64, 97
1, 78077, Control_c, 0, 64, 86
1, 78092, Control_c, 0, 64, 79
1, 78107, Control_c, 0, 64, 75
1, 78122, Control_c, 0, 64, 73
1, 78158, Note_off_c, 0, 69, 28
1, 78166, Control_c, 0, 64, 74
1, 78181, Control_c, 0, 64, 75
1, 78196, Control_c, 0, 64, 76
1, 78211, Control_c, 0, 64, 77
1, 78221, Note_on_c, 0, 61, 31
1, 78225, Control_c, 0, 64, 79
1, 78240, Control_c, 0, 64, 80
1, 78255, Control_c, 0, 64, 82
1, 78270, Control_c, 0, 64, 85
1, 78285, Control_c, 0, 64, 88
1, 78300, Control_c, 0, 64, 90
1, 78315, Control_c, 0, 64, 93
1, 78330, Control_c, 0, 64, 96
1, 78335, Note_off_c, 0, 61, 27
1, 78344, Control_c, 0, 64, 99
1, 78359, Control_c, 0, 64, 103
1, 78374, Control_c, 0, 64, 107
1, 78389, Control_c, 0, 64, 114
1, 78401, Note_on_c, 0, 62, 38
1, 78404, Control_c, 0, 64, 127
1, 78407, Note_off_c, 0, 74, 48
1, 78526, Note_on_c, 0, 66, 53
1, 78649, Note_on_c, 0, 71, 31
1, 78726, Note_off_c, 0, 54, 57
1, 78924, Note_on_c, 0, 74, 71
1, 78961, Control_c, 0, 64, 116
1, 78968, Note_on_c, 0, 55, 31
1, 78975, Control_c, 0, 64, 107
1, 78990, Note_on_c, 0, 52, 38
1, 78990, Control_c, 0, 64, 98
1, 79005, Control_c, 0, 64, 91
1, 79020, Control_c, 0, 64, 84
1, 79035, Control_c, 0, 64, 75
1, 79049, Control_c, 0, 64, 65
1, 79058, Note_off_c, 0, 66, 45
1, 79064, Control_c, 0, 64, 57
1, 79079, Control_c, 0, 64, 51
1, 79093, Control_c, 0, 64, 45
1, 79108, Control_c, 0, 64, 43
1, 79138, Control_c, 0, 64, 45
1, 79153, Control_c, 0, 64, 48
1, 79169, Control_c, 0, 64, 53
1, 79184, Control_c, 0, 64, 59
1, 79198, Control_c, 0, 64, 63
1, 79213, Control_c, 0, 64, 66
1, 79221, Note_off_c, 0, 71, 28
1, 79228, Control_c, 0, 64, 70
1, 79243, Control_c, 0, 64, 75
1, 79258, Control_c, 0, 64, 80
1, 79272, Control_c, 0, 64, 83
1, 79287, Control_c, 0, 64, 86
1, 79310, Control_c, 0, 64, 90
1, 79324, Control_c, 0, 64, 94
1, 79339, Control_c, 0, 64, 98
1, 79354, Control_c, 0, 64, 103
1, 79361, Note_on_c, 0, 69, 40
1, 79369, Control_c, 0, 64, 109
1, 79384, Control_c, 0, 64, 117
1, 79398, Control_c, 0, 64, 127
1, 79560, Note_off_c, 0, 62, 39
1, 79579, Note_on_c, 0, 68, 32
1, 79629, Note_off_c, 0, 68, 62
1, 79688, Note_off_c, 0, 74, 54
1, 79726, Note_off_c, 0, 69, 56
1, 79728, Note_on_c, 0, 67, 42
1, 79817, Note_off_c, 0, 67, 61
1, 79826, Note_off_c, 0, 57, 54
1, 79868, Note_on_c, 0, 64, 54
1, 80024, Note_on_c, 0, 73, 67
1, 80067, Note_on_c, 0, 57, 59
1, 80088, Control_c, 0, 64, 118
1, 80103, Control_c, 0, 64, 90
1, 80118, Control_c, 0, 64, 75
1, 80133, Control_c, 0, 64, 67
1, 80147, Control_c, 0, 64, 64
1, 80177, Control_c, 0, 64, 65
1, 80192, Control_c, 0, 64, 67
1, 80207, Control_c, 0, 64, 72
1, 80213, Note_off_c, 0, 64, 59
1, 80221, Control_c, 0, 64, 79
1, 80236, Control_c, 0, 64, 85
1, 80251, Control_c, 0, 64, 91
1, 80251, Control_c, 0, 67, 98
1, 80266, Control_c, 0, 64, 96
1, 80266, Control_c, 0, 67, 59
1, 80280, Control_c, 0, 64, 102
1, 80280, Control_c, 0, 67, 0
1, 80295, Control_c, 0, 64, 112
1, 80310, Control_c, 0, 64, 127
1, 80353, Note_on_c, 0, 66, 52
1, 80495, Note_on_c, 0, 64, 52
1, 80571, Note_off_c, 0, 57, 61
1, 80586, Note_off_c, 0, 55, 33
1, 80611, Note_off_c, 0, 52, 27
1, 80628, Note_on_c, 0, 61, 61
1, 80699, Note_off_c, 0, 64, 64
1, 80747, Note_off_c, 0, 66, 42
1, 80798, Note_on_c, 0, 58, 66
1, 80994, Note_off_c, 0, 58, 56
1, 81123, Note_on_c, 0, 71, 74
1, 81123, Note_off_c, 0, 61, 38
1, 81133, Note_on_c, 0, 59, 64
1, 81160, Note_on_c, 0, 50, 49
1, 81171, Note_on_c, 0, 55, 39
1, 81206, Control_c, 0, 64, 92
1, 81221, Control_c, 0, 64, 75
1, 81236, Control_c, 0, 64, 61
1, 81251, Control_c, 0, 64, 40
1, 81266, Control_c, 0, 64, 0
1, 81355, Control_c, 0, 64, 39
1, 81369, Control_c, 0, 64, 52
1, 81384, Control_c, 0, 64, 61
1, 81399, Control_c, 0, 64, 66
1, 81414, Control_c, 0, 64, 71
1, 81429, Control_c, 0, 64, 77
1, 81443, Control_c, 0, 64, 83
1, 81458, Control_c, 0, 64, 89
1, 81473, Control_c, 0, 64, 96
1, 81488, Control_c, 0, 64, 105
1, 81496, Note_on_c, 0, 61, 45
1, 81502, Control_c, 0, 64, 127
1, 81588, Note_off_c, 0, 61, 61
1, 81623, Note_off_c, 0, 71, 37
1, 81673, Note_on_c, 0, 62, 50
1, 81674, Note_off_c, 0, 73, 38
1, 81755, Note_off_c, 0, 62, 40
1, 81811, Note_on_c, 0, 67, 53
1, 81898, Note_off_c, 0, 67, 57
1, 81928, Note_on_c, 0, 71, 60
1, 81956, Note_off_c, 0, 71, 64
1, 82035, Note_on_c, 0, 71, 60
1, 82220, Note_on_c, 0, 79, 74
1, 82268, Note_on_c, 0, 62, 51
1, 82282, Control_c, 0, 64, 113
1, 82304, Control_c, 0, 64, 91
1, 82318, Control_c, 0, 64, 77
1, 82333, Control_c, 0, 64, 65
1, 82348, Control_c, 0, 64, 58
1, 82363, Control_c, 0, 64, 56
1, 82379, Control_c, 0, 64, 57
1, 82394, Control_c, 0, 64, 59
1, 82409, Control_c, 0, 64, 62
1, 82423, Control_c, 0, 64, 66
1, 82438, Control_c, 0, 64, 71
1, 82453, Control_c, 0, 64, 77
1, 82467, Control_c, 0, 64, 83
1, 82482, Control_c, 0, 64, 87
1, 82497, Control_c, 0, 64, 91
1, 82512, Control_c, 0, 64, 96
1, 82527, Control_c, 0, 64, 103
1, 82542, Control_c, 0, 64, 116
1, 82547, Note_on_c, 0, 66, 48
1, 82556, Control_c, 0, 64, 127
1, 82670, Note_off_c, 0, 62, 53
1, 82673, Note_off_c, 0, 66, 59
1, 82687, Note_off_c, 0, 71, 32
1, 82744, Note_on_c, 0, 67, 44
1, 82746, Note_off_c, 0, 79, 51
1, 82876, Note_on_c, 0, 71, 53
1, 82983, Note_on_c, 0, 61, 60
1, 83019, Note_off_c, 0, 59, 25
1, 83055, Note_on_c, 0, 76, 59
1, 83147, Note_off_c, 0, 61, 39
1, 83222, Note_off_c, 0, 55, 40
1, 83231, Note_off_c, 0, 50, 51
1, 83276, Control_c, 0, 67, 42
1, 83284, Note_off_c, 0, 67, 36
1, 83290, Control_c, 0, 67, 54
1, 83305, Control_c, 0, 67, 68
1, 83320, Control_c, 0, 67, 87
1, 83335, Control_c, 0, 67, 111
1, 83350, Control_c, 0, 67, 127
1, 83406, Note_on_c, 0, 79, 67
1, 83446, Note_on_c, 0, 60, 40
1, 83452, Note_on_c, 0, 67, 42
1, 83454, Note_on_c, 0, 57, 40
1, 83478, Note_on_c, 0, 50, 38
1, 83498, Control_c, 0, 64, 108
1, 83513, Control_c, 0, 64, 88
1, 83528, Control_c, 0, 64, 73
1, 83543, Control_c, 0, 64, 61
1, 83558, Control_c, 0, 64, 49
1, 83561, Note_off_c, 0, 71, 42
1, 83572, Control_c, 0, 64, 34
1, 83587, Control_c, 0, 64, 0
1, 83604, Note_off_c, 0, 76, 59
1, 83646, Control_c, 0, 64, 32
1, 83661, Control_c, 0, 64, 44
1, 83676, Control_c, 0, 64, 55
1, 83690, Control_c, 0, 64, 63
1, 83705, Control_c, 0, 64, 68
1, 83720, Control_c, 0, 64, 72
1, 83735, Control_c, 0, 64, 76
1, 83750, Control_c, 0, 64, 80
1, 83764, Control_c, 0, 64, 84
1, 83779, Control_c, 0, 64, 89
1, 83802, Control_c, 0, 64, 95
1, 83816, Control_c, 0, 64, 99
1, 83831, Control_c, 0, 64, 106
1, 83846, Control_c, 0, 64, 127
1, 83847, Note_on_c, 0, 74, 47
1, 84030, Note_on_c, 0, 73, 45
1, 84061, Note_off_c, 0, 67, 37
1, 84111, Note_off_c, 0, 79, 52
1, 84116, Note_off_c, 0, 73, 60
1, 84178, Note_off_c, 0, 74, 56
1, 84190, Note_on_c, 0, 72, 46
1, 84306, Note_off_c, 0, 72, 57
1, 84325, Note_on_c, 0, 69, 52
1, 84348, Note_off_c, 0, 69, 63
1, 84512, Note_on_c, 0, 78, 58
1, 84556, Note_on_c, 0, 66, 52
1, 84595, Control_c, 0, 64, 93
1, 84610, Control_c, 0, 64, 76
1, 84625, Control_c, 0, 64, 66
1, 84639, Control_c, 0, 64, 60
1, 84654, Control_c, 0, 64, 58
1, 84684, Control_c, 0, 64, 59
1, 84699, Control_c, 0, 64, 62
1, 84713, Control_c, 0, 64, 66
1, 84728, Control_c, 0, 64, 72
1, 84743, Control_c, 0, 64, 79
1, 84758, Control_c, 0, 64, 85
1, 84774, Control_c, 0, 64, 91
1, 84789, Control_c, 0, 64, 97
1, 84804, Control_c, 0, 64, 103
1, 84818, Control_c, 0, 64, 113
1, 84833, Control_c, 0, 64, 127
1, 84860, Note_off_c, 0, 60, 36
1, 84875, Note_off_c, 0, 50, 41
1, 84880, Note_on_c, 0, 71, 20
1, 84891, Note_off_c, 0, 66, 38
1, 84911, Note_off_c, 0, 57, 39
1, 85051, Note_on_c, 0, 69, 22
1, 85075, Note_off_c, 0, 78, 36
1, 85204, Note_on_c, 0, 66, 34
1, 85251, Note_off_c, 0, 66, 61
1, 85258, Note_off_c, 0, 69, 30
1, 85311, Note_off_c, 0, 71, 31
1, 85441, Note_on_c, 0, 77, 54
1, 85487, Note_on_c, 0, 65, 28
1, 85521, Control_c, 0, 64, 116
1, 85535, Control_c, 0, 64, 94
1, 85550, Control_c, 0, 64, 81
1, 85566, Control_c, 0, 64, 71
1, 85581, Control_c, 0, 64, 63
1, 85596, Control_c, 0, 64, 58
1, 85606, Note_on_c, 0, 40, 33
1, 85611, Control_c, 0, 64, 57
1, 85626, Control_c, 0, 64, 58
1, 85640, Control_c, 0, 64, 61
1, 85655, Control_c, 0, 64, 64
1, 85670, Control_c, 0, 64, 67
1, 85684, Control_c, 0, 64, 73
1, 85699, Control_c, 0, 64, 80
1, 85704, Note_off_c, 0, 65, 37
1, 85714, Control_c, 0, 64, 87
1, 85719, Note_off_c, 0, 77, 39
1, 85729, Control_c, 0, 64, 95
1, 85744, Control_c, 0, 64, 104
1, 85758, Control_c, 0, 64, 119
1, 85773, Control_c, 0, 64, 127
1, 85996, Control_c, 0, 64, 100
1, 85999, Note_on_c, 0, 76, 56
1, 86011, Control_c, 0, 64, 87
1, 86026, Control_c, 0, 64, 75
1, 86047, Control_c, 0, 64, 63
1, 86051, Note_on_c, 0, 64, 29
1, 86062, Note_on_c, 0, 56, 32
1, 86062, Control_c, 0, 64, 53
1, 86077, Control_c, 0, 64, 47
1, 86092, Control_c, 0, 64, 46
1, 86107, Control_c, 0, 64, 48
1, 86112, Poly_aftertouch_c, 0, 41, 127
1, 86122, Control_c, 0, 64, 53
1, 86137, Control_c, 0, 64, 60
1, 86151, Control_c, 0, 64, 67
1, 86166, Control_c, 0, 64, 75
1, 86181, Control_c, 0, 64, 83
1, 86181, Note_off_c, 0, 40, 40
1, 86186, Poly_aftertouch_c, 0, 41, 0
1, 86196, Control_c, 0, 64, 91
1, 86211, Control_c, 0, 64, 98
1, 86225, Control_c, 0, 64, 105
1, 86240, Control_c, 0, 64, 119
1, 86242, Note_off_c, 0, 64, 42
1, 86255, Control_c, 0, 64, 127
1, 86430, Note_off_c, 0, 56, 37
1, 86456, Note_on_c, 0, 58, 39
1, 86624, Note_on_c, 0, 59, 41
1, 86793, Note_on_c, 0, 64, 50
1, 86845, Note_off_c, 0, 64, 54
1, 86926, Note_on_c, 0, 68, 47
1, 86966, Note_off_c, 0, 68, 64
1, 86988, Control_c, 0, 67, 125
1, 87003, Control_c, 0, 67, 114
1, 87018, Control_c, 0, 67, 104
1, 87032, Control_c, 0, 67, 91
1, 87047, Control_c, 0, 67, 81
1, 87062, Control_c, 0, 67, 68
1, 87077, Control_c, 0, 67, 54
1, 87092, Control_c, 0, 67, 37
1, 87095, Note_on_c, 0, 71, 67
1, 87107, Control_c, 0, 67, 0
1, 87404, Note_on_c, 0, 63, 52
1, 87563, Note_off_c, 0, 59, 55
1, 87595, Note_off_c, 0, 63, 39
1, 87603, Note_on_c, 0, 64, 50
1, 87716, Note_on_c, 0, 68, 58
1, 87716, Note_off_c, 0, 71, 23
1, 87727, Note_off_c, 0, 58, 37
1, 87786, Note_off_c, 0, 68, 59
1, 87847, Note_on_c, 0, 73, 76
1, 87973, Note_off_c, 0, 64, 39
1, 88021, Note_on_c, 0, 42, 55
1, 88021, Note_off_c, 0, 76, 57
1, 88131, Note_on_c, 0, 54, 39
1, 88134, Note_on_c, 0, 64, 48
1, 88167, Control_c, 0, 64, 108
1, 88182, Control_c, 0, 64, 88
1, 88197, Control_c, 0, 64, 75
1, 88212, Control_c, 0, 64, 64
1, 88223, Note_on_c, 0, 69, 47
1, 88226, Control_c, 0, 64, 53
1, 88241, Control_c, 0, 64, 41
1, 88256, Control_c, 0, 64, 0
1, 88324, Control_c, 0, 64, 38
1, 88339, Control_c, 0, 64, 51
1, 88354, Control_c, 0, 64, 61
1, 88368, Control_c, 0, 64, 67
1, 88383, Control_c, 0, 64, 74
1, 88398, Control_c, 0, 64, 80
1, 88412, Control_c, 0, 64, 86
1, 88427, Control_c, 0, 64, 92
1, 88433, Note_on_c, 0, 76, 73
1, 88442, Control_c, 0, 64, 97
1, 88457, Control_c, 0, 64, 105
1, 88472, Control_c, 0, 64, 122
1, 88486, Control_c, 0, 64, 127
1, 88533, Note_off_c, 0, 42, 55
1, 88676, Note_off_c, 0, 54, 55
1, 88872, Note_on_c, 0, 56, 48
1, 89087, Note_off_c, 0, 64, 56
1, 89117, Note_on_c, 0, 57, 61
1, 89186, Note_off_c, 0, 73, 33
1, 89279, Note_on_c, 0, 61, 77
1, 89358, Note_off_c, 0, 56, 37
1, 89411, Note_on_c, 0, 64, 72
1, 89425, Note_off_c, 0, 69, 30
1, 89522, Note_on_c, 0, 66, 68
1, 89620, Note_on_c, 0, 69, 59
1, 89652, Note_off_c, 0, 64, 37
1, 89742, Note_off_c, 0, 61, 32
1, 89748, Note_on_c, 0, 74, 83
1, 90001, Note_off_c, 0, 76, 53
1, 90056, Note_off_c, 0, 66, 32
1, 90061, Note_off_c, 0, 69, 35
1, 90086, Note_on_c, 0, 61, 58
1, 90259, Note_on_c, 0, 73, 79
1, 90281, Note_on_c, 0, 62, 53
1, 90318, Note_off_c, 0, 61, 60
1, 90331, Note_off_c, 0, 57, 31
1, 90349, Note_off_c, 0, 74, 60
1, 90351, Note_off_c, 0, 62, 59
1, 90420, Note_on_c, 0, 66, 58
1, 90513, Note_on_c, 0, 69, 61
1, 90553, Note_off_c, 0, 66, 64
1, 90554, Note_on_c, 0, 44, 63
1, 90562, Note_off_c, 0, 73, 61
1, 90591, Note_on_c, 0, 54, 63
1, 90591, Note_off_c, 0, 69, 60
1, 90627, Note_on_c, 0, 57, 62
1, 90650, Note_on_c, 0, 63, 62
1, 90724, Note_on_c, 0, 66, 71
1, 90763, Control_c, 0, 64, 111
1, 90778, Control_c, 0, 64, 81
1, 90793, Control_c, 0, 64, 64
1, 90807, Control_c, 0, 64, 49
1, 90822, Control_c, 0, 64, 35
1, 90837, Control_c, 0, 64, 0
1, 90846, Note_on_c, 0, 72, 79
1, 90852, Control_c, 0, 64, 32
1, 90867, Control_c, 0, 64, 42
1, 90881, Control_c, 0, 64, 53
1, 90888, Note_off_c, 0, 57, 58
1, 90896, Control_c, 0, 64, 61
1, 90911, Control_c, 0, 64, 67
1, 90926, Control_c, 0, 64, 73
1, 90939, Note_off_c, 0, 54, 53
1, 90941, Control_c, 0, 64, 81
1, 90955, Control_c, 0, 64, 88
1, 90970, Control_c, 0, 64, 98
1, 90985, Control_c, 0, 64, 127
1, 91040, Note_off_c, 0, 63, 39
1, 91111, Note_off_c, 0, 66, 41
1, 91250, Note_on_c, 0, 62, 45
1, 91361, Note_off_c, 0, 44, 36
1, 91448, Note_on_c, 0, 63, 56
1, 91601, Note_on_c, 0, 66, 59
1, 91628, Note_off_c, 0, 63, 36
1, 91639, Note_off_c, 0, 62, 43
1, 91655, Note_off_c, 0, 72, 26
1, 91705, Note_off_c, 0, 66, 61
1, 91730, Note_on_c, 0, 69, 68
1, 91756, Note_off_c, 0, 69, 69
1, 91866, Note_on_c, 0, 73, 89
1, 91891, Note_on_c, 0, 63, 62
1, 91902, Note_on_c, 0, 66, 57
1, 91921, Note_on_c, 0, 74, 33
1, 91958, Note_off_c, 0, 74, 44
1, 92137, Note_off_c, 0, 63, 38
1, 92160, Note_off_c, 0, 66, 63
1, 92173, Note_on_c, 0, 67, 64
1, 92258, Note_off_c, 0, 73, 68
1, 92299, Note_on_c, 0, 60, 60
1, 92305, Note_on_c, 0, 68, 72
1, 92368, Note_off_c, 0, 60, 63
1, 92427, Note_off_c, 0, 68, 0
1, 92430, Note_on_c, 0, 72, 86
1, 92459, Note_off_c, 0, 67, 60
1, 92464, Poly_aftertouch_c, 0, 68, 127
1, 92486, Poly_aftertouch_c, 0, 68, 0
1, 92518, Poly_aftertouch_c, 0, 68, 0
1, 92556, Note_on_c, 0, 75, 89
1, 92584, Note_off_c, 0, 72, 62
1, 92651, Note_on_c, 0, 45, 66
1, 92696, Note_on_c, 0, 54, 64
1, 92766, Note_on_c, 0, 57, 61
1, 92826, Note_on_c, 0, 74, 70
1, 92894, Note_off_c, 0, 74, 57
1, 92900, Note_off_c, 0, 75, 58
1, 92969, Note_on_c, 0, 78, 89
1, 92996, Note_on_c, 0, 66, 65
1, 93002, Note_on_c, 0, 73, 64
1, 93009, Control_c, 0, 64, 90
1, 93024, Control_c, 0, 64, 67
1, 93039, Control_c, 0, 64, 46
1, 93054, Control_c, 0, 64, 0
1, 93098, Control_c, 0, 64, 30
1, 93113, Control_c, 0, 64, 53
1, 93128, Control_c, 0, 64, 67
1, 93143, Control_c, 0, 64, 79
1, 93157, Control_c, 0, 64, 101
1, 93159, Note_off_c, 0, 45, 61
1, 93171, Note_off_c, 0, 54, 61
1, 93172, Control_c, 0, 64, 127
1, 93240, Note_off_c, 0, 57, 63
1, 93377, Note_on_c, 0, 60, 49
1, 93455, Note_on_c, 0, 75, 11
1, 93530, Note_off_c, 0, 78, 59
1, 93574, Note_on_c, 0, 61, 56
1, 93582, Note_off_c, 0, 60, 54
1, 93582, Note_off_c, 0, 66, 34
1, 93719, Note_on_c, 0, 66, 58
1, 93849, Note_on_c, 0, 69, 59
1, 93878, Note_off_c, 0, 75, 37
1, 93906, Note_off_c, 0, 73, 58
1, 93908, Note_off_c, 0, 66, 59
1, 93988, Note_on_c, 0, 76, 78
1, 94143, Control_c, 0, 64, 95
1, 94158, Control_c, 0, 64, 76
1, 94173, Control_c, 0, 64, 71
1, 94203, Control_c, 0, 64, 73
1, 94217, Control_c, 0, 64, 77
1, 94232, Control_c, 0, 64, 88
1, 94247, Control_c, 0, 64, 119
1, 94262, Control_c, 0, 64, 127
1, 94265, Note_off_c, 0, 69, 7
1, 94328, Note_on_c, 0, 65, 45
1, 94358, Note_off_c, 0, 61, 61
1, 94443, Note_off_c, 0, 76, 48
1, 94475, Note_on_c, 0, 66, 59
1, 94593, Note_on_c, 0, 69, 61
1, 94643, Note_off_c, 0, 65, 58
1, 94675, Note_off_c, 0, 66, 42
1, 94745, Note_on_c, 0, 75, 78
1, 94790, Note_off_c, 0, 69, 36
1, 94820, Note_off_c, 0, 75, 62
1, 95148, Note_on_c, 0, 78, 70
1, 95167, Control_c, 0, 64, 102
1, 95182, Control_c, 0, 64, 80
1, 95182, Control_c, 0, 67, 36
1, 95186, Note_on_c, 0, 56, 39
1, 95196, Note_on_c, 0, 46, 37
1, 95196, Control_c, 0, 64, 64
1, 95196, Control_c, 0, 67, 50
1, 95199, Note_on_c, 0, 73, 39
1, 95210, Note_on_c, 0, 66, 42
1, 95211, Control_c, 0, 64, 46
1, 95211, Control_c, 0, 67, 68
1, 95226, Control_c, 0, 64, 0
1, 95226, Control_c, 0, 67, 93
1, 95241, Control_c, 0, 67, 119
1, 95256, Control_c, 0, 67, 127
1, 95270, Control_c, 0, 64, 36
1, 95285, Control_c, 0, 64, 53
1, 95300, Control_c, 0, 64, 64
1, 95315, Control_c, 0, 64, 72
1, 95330, Control_c, 0, 64, 82
1, 95345, Control_c, 0, 64, 90
1, 95354, Note_off_c, 0, 46, 56
1, 95359, Control_c, 0, 64, 96
1, 95374, Control_c, 0, 64, 105
1, 95389, Control_c, 0, 64, 119
1, 95404, Control_c, 0, 64, 127
1, 95431, Note_off_c, 0, 56, 51
1, 95463, Note_off_c, 0, 78, 58
1, 95528, Note_off_c, 0, 66, 39
1, 95538, Note_on_c, 0, 60, 47
1, 95621, Note_off_c, 0, 60, 62
1, 95708, Note_on_c, 0, 76, 71
1, 95729, Note_on_c, 0, 61, 49
1, 95797, Note_off_c, 0, 73, 60
1, 95824, Note_off_c, 0, 61, 57
1, 95881, Note_on_c, 0, 64, 54
1, 96015, Note_off_c, 0, 64, 46
1, 96031, Note_on_c, 0, 68, 50
1, 96069, Note_off_c, 0, 68, 62
1, 96245, Note_on_c, 0, 75, 56
1, 96257, Control_c, 0, 64, 99
1, 96271, Note_on_c, 0, 55, 42
1, 96272, Note_on_c, 0, 67, 38
1, 96272, Control_c, 0, 64, 82
1, 96287, Note_on_c, 0, 46, 32
1, 96287, Control_c, 0, 64, 67
1, 96301, Control_c, 0, 64, 53
1, 96316, Control_c, 0, 64, 34
1, 96331, Control_c, 0, 64, 0
1, 96346, Note_off_c, 0, 76, 58
1, 96375, Control_c, 0, 64, 35
1, 96390, Control_c, 0, 64, 50
1, 96405, Control_c, 0, 64, 62
1, 96419, Control_c, 0, 64, 69
1, 96434, Control_c, 0, 64, 77
1, 96441, Note_off_c, 0, 46, 59
1, 96449, Control_c, 0, 64, 86
1, 96464, Control_c, 0, 64, 92
1, 96479, Control_c, 0, 64, 98
1, 96493, Control_c, 0, 64, 103
1, 96495, Note_off_c, 0, 55, 61
1, 96508, Control_c, 0, 64, 108
1, 96531, Control_c, 0, 64, 115
1, 96545, Control_c, 0, 64, 127
1, 96667, Note_on_c, 0, 63, 49
1, 96716, Note_off_c, 0, 67, 39
1, 96828, Note_off_c, 0, 63, 33
1, 96848, Note_on_c, 0, 64, 39
1, 96934, Note_off_c, 0, 64, 58
1, 97023, Note_on_c, 0, 67, 43
1, 97241, Note_on_c, 0, 73, 50
1, 97265, Note_off_c, 0, 67, 35
1, 97318, Note_off_c, 0, 75, 60
1, 97357, Note_off_c, 0, 73, 63
1, 97694, Note_on_c, 0, 73, 53
1, 97738, Note_on_c, 0, 63, 34
1, 97751, Note_on_c, 0, 66, 34
1, 97754, Note_on_c, 0, 57, 37
1, 97756, Note_on_c, 0, 47, 35
1, 97784, Control_c, 0, 64, 117
1, 97798, Control_c, 0, 64, 96
1, 97813, Control_c, 0, 64, 81
1, 97828, Control_c, 0, 64, 68
1, 97843, Control_c, 0, 64, 57
1, 97858, Control_c, 0, 64, 45
1, 97872, Control_c, 0, 64, 31
1, 97887, Control_c, 0, 64, 0
1, 97917, Control_c, 0, 64, 29
1, 97932, Control_c, 0, 64, 33
1, 97947, Control_c, 0, 64, 40
1, 97962, Control_c, 0, 64, 49
1, 97977, Control_c, 0, 64, 59
1, 97991, Control_c, 0, 64, 63
1, 98006, Control_c, 0, 64, 67
1, 98028, Control_c, 0, 64, 70
1, 98043, Control_c, 0, 64, 73
1, 98057, Control_c, 0, 64, 75
1, 98072, Control_c, 0, 64, 76
1, 98087, Control_c, 0, 64, 77
1, 98102, Control_c, 0, 64, 78
1, 98117, Control_c, 0, 64, 78
1, 98132, Note_on_c, 0, 53, 52
1, 98132, Control_c, 0, 64, 79
1, 98146, Control_c, 0, 64, 80
1, 98161, Control_c, 0, 64, 81
1, 98176, Control_c, 0, 64, 82
1, 98191, Control_c, 0, 64, 83
1, 98205, Control_c, 0, 64, 84
1, 98207, Note_off_c, 0, 57, 61
1, 98220, Control_c, 0, 64, 85
1, 98235, Control_c, 0, 64, 87
1, 98250, Control_c, 0, 64, 88
1, 98264, Control_c, 0, 64, 89
1, 98279, Control_c, 0, 64, 90
1, 98294, Control_c, 0, 64, 90
1, 98409, Note_on_c, 0, 54, 61
1, 98436, Note_on_c, 0, 51, 9
1, 98473, Control_c, 0, 64, 91
1, 98491, Note_off_c, 0, 53, 36
1, 98532, Control_c, 0, 64, 91
1, 98546, Note_off_c, 0, 54, 53
1, 98565, Note_off_c, 0, 73, 58
1, 98588, Note_off_c, 0, 51, 26
1, 98591, Control_c, 0, 64, 92
1, 98644, Note_on_c, 0, 56, 57
1, 98665, Control_c, 0, 64, 92
1, 98680, Control_c, 0, 64, 93
1, 98695, Control_c, 0, 64, 93
1, 98710, Control_c, 0, 64, 94
1, 98725, Control_c, 0, 64, 94
1, 98754, Control_c, 0, 64, 95
1, 98788, Note_off_c, 0, 56, 56
1, 98880, Control_c, 0, 64, 94
1, 98910, Control_c, 0, 64, 94
1, 98925, Control_c, 0, 64, 92
1, 98927, Note_on_c, 0, 72, 54
1, 98939, Control_c, 0, 64, 88
1, 98954, Control_c, 0, 64, 83
1, 98954, Note_on_c, 0, 57, 40
1, 98969, Control_c, 0, 64, 76
1, 98984, Control_c, 0, 64, 68
1, 98999, Control_c, 0, 64, 58
1, 99013, Control_c, 0, 64, 47
1, 99028, Control_c, 0, 64, 30
1, 99043, Control_c, 0, 64, 0
1, 99102, Control_c, 0, 64, 35
1, 99117, Control_c, 0, 64, 46
1, 99132, Control_c, 0, 64, 56
1, 99148, Control_c, 0, 64, 63
1, 99163, Control_c, 0, 64, 67
1, 99177, Control_c, 0, 64, 70
1, 99192, Control_c, 0, 64, 73
1, 99198, Note_on_c, 0, 69, 41
1, 99207, Control_c, 0, 64, 75
1, 99222, Control_c, 0, 64, 77
1, 99236, Control_c, 0, 64, 79
1, 99247, Note_off_c, 0, 66, 52
1, 99251, Control_c, 0, 64, 82
1, 99266, Control_c, 0, 64, 86
1, 99281, Control_c, 0, 64, 91
1, 99296, Control_c, 0, 64, 100
1, 99300, Note_off_c, 0, 63, 37
1, 99310, Control_c, 0, 64, 112
1, 99325, Control_c, 0, 64, 127
1, 99342, Note_off_c, 0, 57, 36
1, 99432, Note_on_c, 0, 66, 47
1, 99476, Note_off_c, 0, 47, 40
1, 99576, Note_off_c, 0, 72, 35
1, 99706, Note_on_c, 0, 63, 39
1, 99734, Note_off_c, 0, 63, 56
1, 99741, Note_off_c, 0, 66, 62
1, 99782, Note_off_c, 0, 69, 33
1, 99825, Note_on_c, 0, 35, 47
1, 99920, Note_on_c, 0, 56, 51
1, 99971, Control_c, 0, 64, 90
1, 99985, Control_c, 0, 64, 73
1, 100000, Control_c, 0, 64, 62
1, 100001, Note_on_c, 0, 64, 54
1, 100015, Control_c, 0, 64, 53
1, 100030, Control_c, 0, 64, 51
1, 100045, Control_c, 0, 64, 51
1, 100045, Control_c, 0, 67, 125
1, 100059, Control_c, 0, 64, 55
1, 100059, Control_c, 0, 67, 104
1, 100074, Control_c, 0, 64, 59
1, 100074, Control_c, 0, 67, 81
1, 100089, Control_c, 0, 64, 63
1, 100089, Control_c, 0, 67, 63
1, 100104, Control_c, 0, 64, 66
1, 100104, Control_c, 0, 67, 47
1, 100119, Control_c, 0, 64, 71
1, 100119, Control_c, 0, 67, 0
1, 100134, Control_c, 0, 64, 75
1, 100144, Note_on_c, 0, 71, 76
1, 100148, Control_c, 0, 64, 79
1, 100152, Poly_aftertouch_c, 0, 68, 127
1, 100163, Control_c, 0, 64, 82
1, 100178, Control_c, 0, 64, 85
1, 100192, Control_c, 0, 64, 89
1, 100207, Control_c, 0, 64, 94
1, 100222, Control_c, 0, 64, 102
1, 100227, Note_off_c, 0, 35, 51
1, 100228, Note_off_c, 0, 56, 36
1, 100237, Control_c, 0, 64, 127
1, 100302, Poly_aftertouch_c, 0, 68, 0
1, 100589, Note_on_c, 0, 59, 43
1, 100612, Note_off_c, 0, 64, 31
1, 100749, Note_off_c, 0, 59, 32
1, 100836, Note_on_c, 0, 66, 57
1, 100852, Note_off_c, 0, 71, 37
1, 100954, Note_off_c, 0, 66, 57
1, 101064, Note_on_c, 0, 64, 54
1, 101285, Note_on_c, 0, 76, 81
1, 101325, Note_on_c, 0, 59, 51
1, 101339, Note_on_c, 0, 47, 44
1, 101340, Note_on_c, 0, 68, 43
1, 101379, Control_c, 0, 64, 89
1, 101394, Control_c, 0, 64, 72
1, 101408, Control_c, 0, 64, 63
1, 101413, Note_off_c, 0, 64, 50
1, 101423, Control_c, 0, 64, 58
1, 101453, Control_c, 0, 64, 60
1, 101468, Control_c, 0, 64, 63
1, 101482, Control_c, 0, 64, 67
1, 101497, Control_c, 0, 64, 73
1, 101512, Control_c, 0, 64, 81
1, 101527, Control_c, 0, 64, 90
1, 101543, Control_c, 0, 64, 101
1, 101556, Note_on_c, 0, 64, 55
1, 101557, Control_c, 0, 64, 127
1, 101559, Note_off_c, 0, 59, 34
1, 101680, Note_off_c, 0, 68, 32
1, 101748, Note_off_c, 0, 64, 39
1, 101781, Note_on_c, 0, 69, 61
1, 101841, Note_off_c, 0, 76, 52
1, 101937, Note_off_c, 0, 69, 59
1, 101995, Note_on_c, 0, 68, 59
1, 102007, Note_on_c, 0, 58, 63
1, 102097, Note_off_c, 0, 68, 53
1, 102140, Note_on_c, 0, 66, 60
1, 102206, Note_off_c, 0, 58, 36
1, 102213, Note_on_c, 0, 71, 48
1, 102380, Note_on_c, 0, 76, 75
1, 102423, Note_on_c, 0, 57, 47
1, 102439, Control_c, 0, 64, 106
1, 102454, Control_c, 0, 64, 80
1, 102469, Control_c, 0, 64, 60
1, 102484, Control_c, 0, 64, 41
1, 102499, Control_c, 0, 64, 0
1, 102550, Control_c, 0, 64, 33
1, 102565, Control_c, 0, 64, 47
1, 102580, Control_c, 0, 64, 61
1, 102594, Control_c, 0, 64, 68
1, 102599, Note_off_c, 0, 66, 52
1, 102609, Control_c, 0, 64, 76
1, 102624, Control_c, 0, 64, 84
1, 102639, Control_c, 0, 64, 92
1, 102654, Control_c, 0, 64, 101
1, 102669, Control_c, 0, 64, 127
1, 102798, Note_on_c, 0, 65, 38
1, 102897, Note_off_c, 0, 76, 59
1, 102933, Note_off_c, 0, 65, 57
1, 103038, Note_on_c, 0, 68, 51
1, 103250, Note_on_c, 0, 66, 61
1, 103508, Note_on_c, 0, 75, 66
1, 103521, Control_c, 0, 64, 97
1, 103536, Control_c, 0, 64, 81
1, 103551, Control_c, 0, 64, 71
1, 103566, Control_c, 0, 64, 66
1, 103581, Control_c, 0, 64, 65
1, 103596, Control_c, 0, 64, 67
1, 103599, Note_off_c, 0, 47, 62
1, 103610, Control_c, 0, 64, 72
1, 103619, Note_off_c, 0, 71, 62
1, 103620, Note_off_c, 0, 68, 60
1, 103625, Control_c, 0, 64, 80
1, 103640, Control_c, 0, 64, 91
1, 103655, Control_c, 0, 64, 108
1, 103670, Control_c, 0, 64, 127
1, 103817, Note_on_c, 0, 73, 70
1, 103829, Note_on_c, 0, 58, 50
1, 103852, Note_off_c, 0, 57, 51
1, 103921, Control_c, 0, 64, 117
1, 103937, Control_c, 0, 64, 102
1, 103951, Control_c, 0, 64, 100
1, 104019, Control_c, 0, 64, 104
1, 104033, Control_c, 0, 64, 109
1, 104049, Control_c, 0, 64, 114
1, 104064, Control_c, 0, 64, 118
1, 104079, Control_c, 0, 64, 122
1, 104094, Control_c, 0, 64, 127
1, 104101, Note_on_c, 0, 71, 78
1, 104118, Note_on_c, 0, 59, 56
1, 104180, Note_off_c, 0, 58, 40
1, 104197, Control_c, 0, 67, 45
1, 104212, Control_c, 0, 67, 61
1, 104213, Note_off_c, 0, 59, 60
1, 104227, Control_c, 0, 67, 79
1, 104241, Control_c, 0, 67, 98
1, 104256, Control_c, 0, 67, 120
1, 104264, Note_off_c, 0, 75, 58
1, 104271, Control_c, 0, 67, 127
1, 104324, Note_off_c, 0, 66, 61
1, 104382, Note_on_c, 0, 70, 74
1, 104401, Note_on_c, 0, 61, 51
1, 104424, Note_off_c, 0, 73, 20
1, 104460, Note_off_c, 0, 61, 60
1, 104649, Note_off_c, 0, 71, 36
1, 104686, Note_off_c, 0, 70, 32
1, 104797, Note_on_c, 0, 42, 41
1, 104812, Control_c, 0, 64, 124
1, 104827, Control_c, 0, 64, 113
1, 104842, Control_c, 0, 64, 107
1, 104857, Control_c, 0, 64, 103
1, 104872, Control_c, 0, 64, 98
1, 104886, Control_c, 0, 64, 94
1, 104889, Note_on_c, 0, 74, 59
1, 104901, Control_c, 0, 64, 89
1, 104916, Control_c, 0, 64, 83
1, 104922, Note_on_c, 0, 69, 42
1, 104928, Note_on_c, 0, 62, 38
1, 104931, Control_c, 0, 64, 73
1, 104946, Control_c, 0, 64, 65
1, 104961, Control_c, 0, 64, 58
1, 104976, Control_c, 0, 64, 50
1, 104990, Control_c, 0, 64, 40
1, 105005, Control_c, 0, 64, 30
1, 105020, Control_c, 0, 64, 0
1, 105050, Control_c, 0, 64, 33
1, 105064, Control_c, 0, 64, 44
1, 105079, Control_c, 0, 64, 57
1, 105094, Control_c, 0, 64, 64
1, 105108, Control_c, 0, 64, 70
1, 105123, Control_c, 0, 64, 79
1, 105138, Control_c, 0, 64, 85
1, 105153, Control_c, 0, 64, 92
1, 105158, Note_off_c, 0, 42, 61
1, 105166, Note_off_c, 0, 62, 58
1, 105168, Control_c, 0, 64, 98
1, 105182, Control_c, 0, 64, 106
1, 105197, Control_c, 0, 64, 119
1, 105212, Control_c, 0, 64, 127
1, 105292, Note_off_c, 0, 74, 38
1, 105299, Note_off_c, 0, 69, 36
1, 105593, Note_on_c, 0, 54, 23
1, 106086, Note_on_c, 0, 76, 30
1, 106108, Note_on_c, 0, 57, 34
1, 106318, Note_on_c, 0, 74, 41
1, 106417, Note_off_c, 0, 76, 41
1, 106493, Note_off_c, 0, 74, 53
1, 106505, Note_on_c, 0, 73, 36
1, 106518, Note_on_c, 0, 62, 22
1, 106635, Note_off_c, 0, 73, 60
1, 106666, Note_on_c, 0, 74, 49
1, 106690, Note_off_c, 0, 57, 36
1, 106691, Note_off_c, 0, 54, 32
1, 106754, Note_off_c, 0, 74, 57
1, 106799, Note_on_c, 0, 69, 40
1, 106933, Note_on_c, 0, 74, 35
1, 106990, Note_off_c, 0, 69, 32
1, 107226, Note_on_c, 0, 83, 49
1, 107280, Note_on_c, 0, 54, 32
1, 107281, Note_on_c, 0, 66, 30
1, 107358, Note_off_c, 0, 74, 55
1, 107448, Note_off_c, 0, 62, 30
1, 107596, Note_on_c, 0, 81, 51
1, 107656, Note_off_c, 0, 66, 44
1, 107658, Note_off_c, 0, 83, 51
1, 107671, Note_off_c, 0, 81, 59
1, 107875, Note_on_c, 0, 78, 56
1, 107901, Note_on_c, 0, 62, 30
1, 107907, Note_off_c, 0, 78, 64
1, 107978, Note_off_c, 0, 62, 57
1, 108038, Note_off_c, 0, 54, 54
1, 108127, Note_on_c, 0, 74, 64
1, 108145, Note_on_c, 0, 71, 36
1, 108156, Note_on_c, 0, 68, 36
1, 108252, Note_off_c, 0, 68, 60
1, 108261, Note_off_c, 0, 74, 63
1, 108262, Note_off_c, 0, 71, 41
1, 108308, Note_on_c, 0, 40, 35
1, 108360, Note_off_c, 0, 40, 44
1, 108572, Note_on_c, 0, 74, 51
1, 108588, Note_on_c, 0, 71, 34
1, 108606, Note_on_c, 0, 67, 23
1, 108607, Note_on_c, 0, 62, 21
1, 108613, Note_on_c, 0, 57, 42
1, 108615, Control_c, 0, 64, 113
1, 108630, Control_c, 0, 64, 97
1, 108645, Control_c, 0, 64, 87
1, 108660, Control_c, 0, 64, 77
1, 108672, Note_off_c, 0, 62, 0
1, 108672, Note_on_c, 0, 62, 3
1, 108675, Control_c, 0, 64, 70
1, 108689, Control_c, 0, 64, 65
1, 108704, Control_c, 0, 64, 63
1, 108735, Control_c, 0, 64, 64
1, 108749, Control_c, 0, 64, 67
1, 108764, Control_c, 0, 64, 70
1, 108779, Control_c, 0, 64, 76
1, 108794, Control_c, 0, 64, 83
1, 108809, Control_c, 0, 64, 87
1, 108823, Control_c, 0, 64, 92
1, 108838, Control_c, 0, 64, 98
1, 108853, Control_c, 0, 64, 104
1, 108868, Control_c, 0, 64, 115
1, 108871, Note_off_c, 0, 71, 41
1, 108882, Note_off_c, 0, 74, 60
1, 108883, Control_c, 0, 64, 127
1, 108947, Note_off_c, 0, 62, 43
1, 108997, Note_on_c, 0, 70, 45
1, 109063, Note_off_c, 0, 70, 58
1, 109101, Note_off_c, 0, 67, 39
1, 109104, Control_c, 0, 67, 112
1, 109119, Control_c, 0, 67, 98
1, 109134, Control_c, 0, 67, 80
1, 109149, Control_c, 0, 67, 63
1, 109164, Control_c, 0, 67, 45
1, 109179, Control_c, 0, 67, 0
1, 109290, Note_on_c, 0, 73, 57
1, 109299, Note_on_c, 0, 69, 41
1, 109345, Note_on_c, 0, 61, 28
1, 109555, Note_off_c, 0, 69, 28
1, 109568, Note_on_c, 0, 68, 56
1, 109601, Note_off_c, 0, 73, 53
1, 109609, Note_off_c, 0, 61, 41
1, 109765, Note_off_c, 0, 68, 24
1, 109835, Note_on_c, 0, 72, 62
1, 109879, Note_on_c, 0, 60, 40
1, 109883, Control_c, 0, 64, 104
1, 109892, Note_on_c, 0, 52, 44
1, 109893, Note_on_c, 0, 67, 33
1, 109897, Control_c, 0, 64, 86
1, 109912, Control_c, 0, 64, 70
1, 109927, Control_c, 0, 64, 60
1, 109942, Control_c, 0, 64, 51
1, 109957, Control_c, 0, 64, 44
1, 109972, Control_c, 0, 64, 42
1, 109987, Control_c, 0, 64, 44
1, 110009, Control_c, 0, 64, 47
1, 110023, Note_off_c, 0, 57, 40
1, 110024, Control_c, 0, 64, 53
1, 110038, Control_c, 0, 64, 59
1, 110052, Control_c, 0, 64, 63
1, 110067, Control_c, 0, 64, 67
1, 110082, Control_c, 0, 64, 71
1, 110097, Control_c, 0, 64, 75
1, 110112, Control_c, 0, 64, 79
1, 110127, Control_c, 0, 64, 84
1, 110142, Control_c, 0, 64, 89
1, 110157, Control_c, 0, 64, 94
1, 110171, Control_c, 0, 64, 99
1, 110186, Control_c, 0, 64, 105
1, 110201, Control_c, 0, 64, 117
1, 110216, Control_c, 0, 64, 127
1, 110270, Note_on_c, 0, 56, 60
1, 110475, Note_off_c, 0, 67, 41
1, 110580, Note_on_c, 0, 57, 64
1, 110585, Note_on_c, 0, 66, 67
1, 110684, Note_off_c, 0, 56, 57
1, 110776, Note_off_c, 0, 57, 59
1, 110806, Note_off_c, 0, 52, 62
1, 110827, Note_on_c, 0, 59, 71
1, 110833, Note_off_c, 0, 66, 52
1, 110916, Note_off_c, 0, 59, 62
1, 110969, Note_on_c, 0, 45, 61
1, 110977, Note_off_c, 0, 60, 36
1, 110994, Note_off_c, 0, 72, 33
1, 111054, Note_on_c, 0, 53, 66
1, 111081, Note_on_c, 0, 60, 68
1, 111158, Control_c, 0, 64, 116
1, 111164, Note_on_c, 0, 65, 66
1, 111173, Control_c, 0, 64, 86
1, 111188, Control_c, 0, 64, 68
1, 111203, Control_c, 0, 64, 54
1, 111217, Control_c, 0, 64, 36
1, 111232, Control_c, 0, 64, 0
1, 111262, Note_on_c, 0, 72, 84
1, 111306, Control_c, 0, 64, 36
1, 111321, Control_c, 0, 64, 51
1, 111336, Control_c, 0, 64, 64
1, 111350, Control_c, 0, 64, 70
1, 111365, Control_c, 0, 64, 78
1, 111380, Control_c, 0, 64, 85
1, 111395, Control_c, 0, 64, 97
1, 111403, Note_off_c, 0, 60, 34
1, 111410, Control_c, 0, 64, 127
1, 111442, Note_off_c, 0, 65, 58
1, 111596, Note_off_c, 0, 45, 57
1, 111682, Note_on_c, 0, 60, 37
1, 111747, Note_off_c, 0, 60, 37
1, 111818, Note_off_c, 0, 72, 38
1, 111928, Note_on_c, 0, 67, 50
1, 112049, Note_off_c, 0, 67, 55
1, 112155, Note_on_c, 0, 65, 64
1, 112369, Note_on_c, 0, 77, 86
1, 112401, Note_on_c, 0, 69, 58
1, 112418, Note_on_c, 0, 60, 58
1, 112486, Note_off_c, 0, 65, 47
1, 112666, Note_on_c, 0, 65, 40
1, 112714, Note_off_c, 0, 69, 54
1, 112757, Poly_aftertouch_c, 0, 56, 127
1, 112831, Note_off_c, 0, 60, 37
1, 112861, Note_on_c, 0, 70, 60
1, 112903, Poly_aftertouch_c, 0, 56, 0
1, 112935, Note_off_c, 0, 53, 34
1, 113055, Note_on_c, 0, 59, 71
1, 113063, Note_on_c, 0, 69, 59
1, 113094, Note_off_c, 0, 59, 61
1, 113125, Note_off_c, 0, 70, 57
1, 113181, Note_on_c, 0, 43, 69
1, 113284, Note_off_c, 0, 69, 61
1, 113295, Note_off_c, 0, 77, 53
1, 113330, Note_off_c, 0, 65, 33
1, 113421, Note_on_c, 0, 77, 84
1, 113457, Note_on_c, 0, 65, 47
1, 113468, Note_on_c, 0, 72, 46
1, 113471, Note_on_c, 0, 58, 56
1, 113492, Control_c, 0, 64, 91
1, 113507, Control_c, 0, 64, 74
1, 113522, Control_c, 0, 64, 59
1, 113537, Control_c, 0, 64, 36
1, 113552, Control_c, 0, 64, 0
1, 113611, Control_c, 0, 64, 29
1, 113626, Control_c, 0, 64, 45
1, 113641, Control_c, 0, 64, 58
1, 113656, Control_c, 0, 64, 66
1, 113670, Control_c, 0, 64, 72
1, 113685, Control_c, 0, 64, 79
1, 113700, Control_c, 0, 64, 85
1, 113715, Control_c, 0, 64, 92
1, 113730, Control_c, 0, 64, 102
1, 113752, Control_c, 0, 64, 119
1, 113767, Control_c, 0, 64, 127
1, 113816, Note_on_c, 0, 69, 52
1, 113921, Note_off_c, 0, 77, 47
1, 113924, Note_off_c, 0, 72, 42
1, 114032, Note_on_c, 0, 72, 63
1, 114246, Note_on_c, 0, 70, 70
1, 114351, Note_off_c, 0, 65, 38
1, 114393, Note_off_c, 0, 72, 63
1, 114476, Note_on_c, 0, 76, 78
1, 114502, Note_off_c, 0, 43, 31
1, 114523, Note_on_c, 0, 64, 54
1, 114641, Note_off_c, 0, 69, 62
1, 114641, Note_off_c, 0, 70, 63
1, 114751, Note_off_c, 0, 58, 55
1, 114813, Note_on_c, 0, 74, 68
1, 114893, Note_on_c, 0, 60, 55
1, 115001, Note_off_c, 0, 60, 60
1, 115027, Note_on_c, 0, 72, 66
1, 115138, Note_on_c, 0, 62, 55
1, 115154, Note_off_c, 0, 64, 54
1, 115156, Note_off_c, 0, 74, 38
1, 115171, Note_off_c, 0, 76, 59
1, 115203, Note_off_c, 0, 62, 62
1, 115261, Note_on_c, 0, 71, 78
1, 115263, Note_off_c, 0, 72, 56
1, 115364, Note_on_c, 0, 43, 60
1, 115383, Note_off_c, 0, 71, 56
1, 115546, Control_c, 0, 64, 98
1, 115547, Note_on_c, 0, 75, 86
1, 115559, Poly_aftertouch_c, 0, 72, 127
1, 115561, Control_c, 0, 64, 75
1, 115569, Note_on_c, 0, 70, 61
1, 115576, Control_c, 0, 64, 61
1, 115582, Note_on_c, 0, 63, 54
1, 115591, Control_c, 0, 64, 51
1, 115603, Poly_aftertouch_c, 0, 72, 0
1, 115606, Control_c, 0, 64, 49
1, 115621, Control_c, 0, 64, 54
1, 115635, Control_c, 0, 64, 64
1, 115645, Note_off_c, 0, 43, 62
1, 115650, Control_c, 0, 64, 75
1, 115665, Control_c, 0, 64, 91
1, 115680, Control_c, 0, 64, 127
1, 115707, Note_off_c, 0, 63, 53
1, 115783, Note_off_c, 0, 70, 57
1, 115850, Note_on_c, 0, 55, 58
1, 115916, Note_off_c, 0, 75, 61
1, 116116, Note_on_c, 0, 77, 62
1, 116123, Note_on_c, 0, 58, 53
1, 116256, Note_on_c, 0, 75, 70
1, 116299, Note_off_c, 0, 77, 61
1, 116349, Note_on_c, 0, 74, 78
1, 116366, Note_on_c, 0, 63, 55
1, 116372, Note_off_c, 0, 75, 64
1, 116454, Note_on_c, 0, 75, 79
1, 116458, Note_off_c, 0, 74, 64
1, 116508, Note_off_c, 0, 58, 52
1, 116508, Note_off_c, 0, 75, 65
1, 116519, Note_off_c, 0, 55, 36
1, 116546, Note_on_c, 0, 70, 64
1, 116568, Note_off_c, 0, 63, 38
1, 116619, Note_off_c, 0, 70, 57
1, 116631, Note_on_c, 0, 75, 55
1, 116768, Note_on_c, 0, 84, 77
1, 116805, Note_on_c, 0, 55, 46
1, 116820, Note_on_c, 0, 67, 40
1, 116879, Note_off_c, 0, 75, 54
1, 117117, Note_on_c, 0, 82, 85
1, 117240, Note_off_c, 0, 84, 35
1, 117281, Note_off_c, 0, 67, 35
1, 117298, Note_off_c, 0, 82, 60
1, 117350, Note_on_c, 0, 79, 76
1, 117362, Note_on_c, 0, 63, 58
1, 117398, Note_off_c, 0, 79, 63
1, 117423, Note_off_c, 0, 63, 60
1, 117474, Note_off_c, 0, 55, 55
1, 117588, Note_on_c, 0, 75, 82
1, 117615, Note_on_c, 0, 72, 52
1, 117624, Note_on_c, 0, 69, 55
1, 117678, Note_off_c, 0, 72, 62
1, 117686, Note_on_c, 0, 41, 71
1, 117693, Note_off_c, 0, 75, 65
1, 117705, Note_off_c, 0, 69, 63
1, 117925, Note_on_c, 0, 75, 71
1, 117932, Note_on_c, 0, 72, 66
1, 117943, Note_on_c, 0, 63, 57
1, 117952, Note_on_c, 0, 68, 52
1, 117984, Note_on_c, 0, 56, 69
1, 118015, Control_c, 0, 64, 94
1, 118029, Control_c, 0, 64, 71
1, 118044, Control_c, 0, 64, 54
1, 118059, Control_c, 0, 64, 30
1, 118074, Control_c, 0, 64, 0
1, 118119, Control_c, 0, 64, 31
1, 118134, Control_c, 0, 64, 47
1, 118148, Control_c, 0, 64, 60
1, 118163, Control_c, 0, 64, 67
1, 118178, Control_c, 0, 64, 79
1, 118193, Control_c, 0, 64, 96
1, 118208, Control_c, 0, 64, 127
1, 118262, Note_off_c, 0, 72, 62
1, 118276, Note_off_c, 0, 75, 59
1, 118317, Note_off_c, 0, 63, 61
1, 118368, Note_on_c, 0, 71, 68
1, 118461, Note_off_c, 0, 71, 58
1, 118527, Note_off_c, 0, 68, 28
1, 118620, Note_on_c, 0, 74, 82
1, 118631, Note_on_c, 0, 70, 70
1, 118658, Note_on_c, 0, 62, 59
1, 118817, Note_off_c, 0, 62, 63
1, 118846, Note_off_c, 0, 74, 63
1, 118848, Note_off_c, 0, 41, 61
1, 118874, Note_on_c, 0, 69, 72
1, 119001, Note_off_c, 0, 70, 27
1, 119038, Note_off_c, 0, 69, 39
1, 119067, Note_off_c, 0, 56, 36
1, 119120, Note_on_c, 0, 73, 81
1, 119133, Note_on_c, 0, 68, 68
1, 119140, Note_on_c, 0, 61, 70
1, 119144, Note_on_c, 0, 53, 72
1, 119217, Control_c, 0, 64, 91
1, 119231, Control_c, 0, 64, 65
1, 119246, Control_c, 0, 64, 39
1, 119261, Control_c, 0, 64, 0
1, 119320, Control_c, 0, 64, 46
1, 119335, Control_c, 0, 64, 63
1, 119350, Control_c, 0, 64, 78
1, 119365, Control_c, 0, 64, 109
1, 119380, Control_c, 0, 64, 127
1, 119432, Note_on_c, 0, 55, 75
1, 119684, Note_on_c, 0, 56, 82
1, 119737, Note_off_c, 0, 55, 60
1, 119838, Note_off_c, 0, 56, 58
1, 119938, Note_on_c, 0, 57, 89
1, 119970, Note_off_c, 0, 53, 29
1, 120029, Note_off_c, 0, 57, 61
1, 120031, Note_off_c, 0, 61, 58
1, 120035, Poly_aftertouch_c, 0, 49, 127
1, 120064, Note_off_c, 0, 68, 29
1, 120071, Poly_aftertouch_c, 0, 49, 0
1, 120203, Note_off_c, 0, 73, 24
1, 120299, Note_on_c, 0, 73, 80
1, 120306, Control_c, 0, 64, 80
1, 120314, Note_on_c, 0, 58, 76
1, 120321, Note_on_c, 0, 66, 71
1, 120321, Control_c, 0, 64, 50
1, 120323, Note_on_c, 0, 37, 91
1, 120336, Control_c, 0, 64, 0
1, 120380, Control_c, 0, 64, 44
1, 120395, Control_c, 0, 64, 61
1, 120410, Control_c, 0, 64, 74
1, 120423, Note_off_c, 0, 37, 62
1, 120424, Control_c, 0, 64, 120
1, 120439, Control_c, 0, 64, 127
1, 120451, Note_off_c, 0, 58, 56
1, 120785, Note_on_c, 0, 61, 69
1, 120894, Note_off_c, 0, 66, 50
1, 120902, Note_off_c, 0, 61, 57
1, 121043, Note_on_c, 0, 68, 79
1, 121097, Note_off_c, 0, 73, 60
1, 121098, Note_on_c, 0, 70, 20
1, 121147, Note_off_c, 0, 70, 47
1, 121160, Note_off_c, 0, 68, 61
1, 121265, Note_on_c, 0, 66, 91
1, 121484, Note_on_c, 0, 61, 88
1, 121486, Note_on_c, 0, 78, 83
1, 121494, Note_on_c, 0, 58, 36
1, 121509, Note_on_c, 0, 49, 63
1, 121517, Note_on_c, 0, 70, 65
1, 121562, Note_off_c, 0, 66, 55
1, 121607, Note_off_c, 0, 49, 60
1, 121849, Note_on_c, 0, 66, 63
1, 121863, Note_off_c, 0, 61, 53
1, 121898, Note_off_c, 0, 70, 60
1, 122023, Note_off_c, 0, 66, 54
1, 122050, Note_on_c, 0, 73, 69
1, 122229, Note_on_c, 0, 66, 94
1, 122244, Note_on_c, 0, 72, 67
1, 122347, Note_off_c, 0, 78, 37
1, 122373, Note_off_c, 0, 72, 57
1, 122457, Note_off_c, 0, 66, 62
1, 122556, Note_on_c, 0, 66, 93
1, 122559, Note_on_c, 0, 78, 77
1, 122572, Note_on_c, 0, 71, 60
1, 122574, Note_on_c, 0, 56, 73
1, 122580, Note_on_c, 0, 61, 68
1, 122656, Control_c, 0, 64, 108
1, 122671, Control_c, 0, 64, 75
1, 122686, Control_c, 0, 64, 60
1, 122700, Control_c, 0, 64, 44
1, 122715, Control_c, 0, 64, 29
1, 122753, Control_c, 0, 64, 40
1, 122768, Control_c, 0, 64, 54
1, 122776, Note_off_c, 0, 73, 28
1, 122782, Control_c, 0, 64, 65
1, 122797, Control_c, 0, 64, 72
1, 122812, Control_c, 0, 64, 80
1, 122826, Control_c, 0, 64, 87
1, 122841, Control_c, 0, 64, 94
1, 122856, Control_c, 0, 64, 104
1, 122871, Control_c, 0, 64, 127
1, 122886, Note_off_c, 0, 58, 30
1, 122911, Note_off_c, 0, 61, 59
1, 122969, Note_on_c, 0, 67, 57
1, 122972, Note_off_c, 0, 71, 62
1, 123177, Note_on_c, 0, 59, 73
1, 123195, Note_on_c, 0, 70, 68
1, 123228, Note_off_c, 0, 66, 61
1, 123273, Note_off_c, 0, 78, 36
1, 123296, Note_off_c, 0, 56, 59
1, 123382, Note_on_c, 0, 68, 76
1, 123443, Note_off_c, 0, 67, 52
1, 123447, Note_on_c, 0, 49, 75
1, 123538, Note_off_c, 0, 70, 59
1, 123592, Control_c, 0, 64, 91
1, 123606, Note_on_c, 0, 77, 88
1, 123606, Control_c, 0, 64, 66
1, 123621, Control_c, 0, 64, 50
1, 123633, Note_on_c, 0, 65, 66
1, 123636, Control_c, 0, 64, 36
1, 123651, Control_c, 0, 64, 31
1, 123665, Control_c, 0, 64, 35
1, 123672, Note_off_c, 0, 68, 62
1, 123680, Control_c, 0, 64, 45
1, 123695, Control_c, 0, 64, 58
1, 123710, Control_c, 0, 64, 66
1, 123725, Control_c, 0, 64, 78
1, 123735, Note_off_c, 0, 59, 51
1, 123739, Control_c, 0, 64, 101
1, 123754, Control_c, 0, 64, 127
1, 123831, Note_on_c, 0, 72, 64
1, 124006, Note_on_c, 0, 58, 81
1, 124021, Note_on_c, 0, 73, 76
1, 124077, Note_off_c, 0, 65, 50
1, 124119, Note_off_c, 0, 49, 57
1, 124140, Note_off_c, 0, 58, 60
1, 124188, Note_off_c, 0, 72, 59
1, 124192, Note_on_c, 0, 75, 80
1, 124212, Note_off_c, 0, 73, 61
1, 124236, Note_on_c, 0, 49, 78
1, 124244, Note_off_c, 0, 77, 62
1, 124248, Note_off_c, 0, 75, 64
1, 124271, Note_on_c, 0, 57, 68
1, 124329, Note_on_c, 0, 64, 82
1, 124340, Note_on_c, 0, 69, 68
1, 124399, Note_on_c, 0, 76, 81
1, 124412, Control_c, 0, 64, 101
1, 124427, Control_c, 0, 64, 70
1, 124438, Note_off_c, 0, 69, 57
1, 124442, Control_c, 0, 64, 47
1, 124457, Control_c, 0, 64, 0
1, 124500, Note_on_c, 0, 81, 92
1, 124531, Control_c, 0, 64, 50
1, 124546, Control_c, 0, 64, 67
1, 124560, Control_c, 0, 64, 87
1, 124575, Control_c, 0, 64, 127
1, 124605, Note_off_c, 0, 57, 63
1, 124610, Note_off_c, 0, 76, 50
1, 124618, Note_off_c, 0, 49, 59
1, 124715, Note_on_c, 0, 61, 78
1, 124766, Note_off_c, 0, 64, 51
1, 124921, Note_on_c, 0, 83, 90
1, 124948, Note_off_c, 0, 81, 61
1, 124955, Note_on_c, 0, 64, 68
1, 124960, Note_off_c, 0, 61, 61
1, 125040, Note_on_c, 0, 81, 86
1, 125095, Note_off_c, 0, 83, 57
1, 125095, Note_off_c, 0, 64, 59
1, 125127, Note_on_c, 0, 80, 90
1, 125134, Note_on_c, 0, 69, 74
1, 125150, Note_off_c, 0, 81, 65
1, 125217, Note_on_c, 0, 81, 87
1, 125232, Note_off_c, 0, 80, 64
1, 125235, Note_off_c, 0, 81, 70
1, 125265, Note_off_c, 0, 69, 57
1, 125279, Note_on_c, 0, 76, 77
1, 125320, Note_on_c, 0, 81, 66
1, 125414, Note_off_c, 0, 76, 53
1, 125435, Note_on_c, 0, 90, 91
1, 125589, Note_off_c, 0, 81, 63
1, 125747, Note_on_c, 0, 88, 81
1, 125762, Note_on_c, 0, 61, 83
1, 125942, Note_on_c, 0, 64, 75
1, 125951, Note_on_c, 0, 85, 90
1, 125993, Note_off_c, 0, 61, 59
1, 126010, Note_off_c, 0, 64, 59
1, 126055, Note_off_c, 0, 90, 52
1, 126129, Note_on_c, 0, 63, 65
1, 126148, Note_off_c, 0, 63, 63
1, 126167, Note_on_c, 0, 81, 77
1, 126169, Note_on_c, 0, 78, 80
1, 126199, Note_off_c, 0, 88, 62
1, 126220, Note_off_c, 0, 85, 62
1, 126230, Note_off_c, 0, 81, 64
1, 126255, Note_off_c, 0, 78, 62
1, 126263, Note_on_c, 0, 47, 78
1, 126460, Note_on_c, 0, 81, 88
1, 126480, Note_on_c, 0, 76, 67
1, 126491, Note_on_c, 0, 62, 71
1, 126493, Note_on_c, 0, 69, 64
1, 126525, Control_c, 0, 64, 87
1, 126540, Control_c, 0, 64, 61
1, 126555, Control_c, 0, 64, 0
1, 126629, Control_c, 0, 64, 39
1, 126644, Control_c, 0, 64, 62
1, 126659, Control_c, 0, 64, 85
1, 126673, Control_c, 0, 64, 127
1, 126853, Note_on_c, 0, 53, 80
1, 126891, Note_off_c, 0, 62, 60
1, 127074, Note_off_c, 0, 53, 55
1, 127130, Note_off_c, 0, 76, 58
1, 127136, Note_on_c, 0, 54, 86
1, 127139, Note_on_c, 0, 75, 79
1, 127339, Note_off_c, 0, 81, 50
1, 127366, Note_off_c, 0, 54, 57
1, 127368, Note_on_c, 0, 55, 87
1, 127374, Poly_aftertouch_c, 0, 78, 127
1, 127386, Note_off_c, 0, 69, 56
1, 127428, Note_off_c, 0, 75, 65
1, 127485, Note_off_c, 0, 47, 35
1, 127490, Note_off_c, 0, 55, 60
1, 127574, Note_on_c, 0, 80, 88
1, 127580, Note_on_c, 0, 74, 78
1, 127586, Note_on_c, 0, 56, 88
1, 127588, Note_on_c, 0, 47, 78
1, 127592, Note_on_c, 0, 68, 76
1, 127615, Control_c, 0, 64, 76
1, 127628, Poly_aftertouch_c, 0, 78, 0
1, 127630, Control_c, 0, 64, 54
1, 127645, Control_c, 0, 64, 0
1, 127704, Control_c, 0, 64, 45
1, 127719, Control_c, 0, 64, 66
1, 127734, Control_c, 0, 64, 98
1, 127748, Control_c, 0, 64, 127
1, 127803, Note_on_c, 0, 59, 92
1, 127836, Note_off_c, 0, 47, 60
1, 127855, Note_off_c, 0, 56, 60
1, 127979, Note_off_c, 0, 59, 56
1, 128005, Note_on_c, 0, 64, 94
1, 128108, Note_off_c, 0, 74, 60
1, 128136, Note_off_c, 0, 64, 64
1, 128185, Note_on_c, 0, 65, 83
1, 128227, Note_on_c, 0, 73, 79
1, 128230, Note_off_c, 0, 65, 64
1, 128291, Note_off_c, 0, 80, 57
1, 128319, Note_off_c, 0, 73, 62
1, 128334, Note_on_c, 0, 52, 73
1, 128344, Note_on_c, 0, 50, 51
1, 128363, Note_on_c, 0, 55, 78
1, 128365, Note_off_c, 0, 68, 59
1, 128377, Note_off_c, 0, 50, 51
1, 128425, Note_on_c, 0, 60, 84
1, 128441, Note_on_c, 0, 67, 83
1, 128492, Note_on_c, 0, 72, 74
1, 128527, Control_c, 0, 64, 105
1, 128542, Control_c, 0, 64, 74
1, 128543, Note_off_c, 0, 67, 64
1, 128557, Control_c, 0, 64, 54
1, 128567, Note_on_c, 0, 79, 89
1, 128571, Control_c, 0, 64, 0
1, 128691, Control_c, 0, 64, 47
1, 128695, Note_off_c, 0, 72, 61
1, 128706, Control_c, 0, 64, 60
1, 128728, Control_c, 0, 64, 71
1, 128743, Control_c, 0, 64, 95
1, 128758, Control_c, 0, 64, 127
1, 128896, Note_on_c, 0, 67, 63
1, 128936, Note_off_c, 0, 55, 61
1, 128966, Note_off_c, 0, 52, 60
1, 129000, Note_off_c, 0, 67, 54
1, 129104, Note_on_c, 0, 74, 64
1, 129143, Note_off_c, 0, 79, 60
1, 129198, Note_off_c, 0, 74, 59
1, 129309, Note_on_c, 0, 72, 69
1, 129518, Note_on_c, 0, 84, 86
1, 129542, Note_on_c, 0, 67, 83
1, 129590, Poly_aftertouch_c, 0, 63, 127
1, 129733, Note_off_c, 0, 60, 52
1, 129741, Note_off_c, 0, 67, 51
1, 129757, Poly_aftertouch_c, 0, 63, 0
1, 129822, Note_on_c, 0, 76, 33
1, 129851, Note_off_c, 0, 84, 51
1, 130003, Note_on_c, 0, 83, 65
1, 130132, Note_off_c, 0, 76, 56
1, 130182, Note_on_c, 0, 66, 77
1, 130233, Note_on_c, 0, 81, 60
1, 130234, Note_off_c, 0, 66, 58
1, 130333, Note_off_c, 0, 83, 60
1, 130344, Note_off_c, 0, 72, 61
1, 130353, Note_on_c, 0, 50, 58
1, 130361, Note_off_c, 0, 81, 64
1, 130589, Note_on_c, 0, 84, 78
1, 130605, Note_on_c, 0, 72, 59
1, 130611, Note_on_c, 0, 65, 65
1, 130615, Note_on_c, 0, 80, 55
1, 130627, Control_c, 0, 64, 95
1, 130641, Control_c, 0, 64, 74
1, 130656, Control_c, 0, 64, 61
1, 130671, Control_c, 0, 64, 47
1, 130686, Control_c, 0, 64, 31
1, 130701, Control_c, 0, 64, 0
1, 130730, Control_c, 0, 64, 33
1, 130745, Control_c, 0, 64, 44
1, 130760, Control_c, 0, 64, 56
1, 130774, Control_c, 0, 64, 63
1, 130789, Control_c, 0, 64, 69
1, 130804, Control_c, 0, 64, 75
1, 130819, Control_c, 0, 64, 81
1, 130820, Note_off_c, 0, 80, 63
1, 130834, Control_c, 0, 64, 87
1, 130834, Control_c, 0, 67, 37
1, 130848, Control_c, 0, 64, 97
1, 130848, Control_c, 0, 67, 46
1, 130863, Control_c, 0, 64, 115
1, 130863, Control_c, 0, 67, 57
1, 130878, Control_c, 0, 64, 127
1, 130878, Control_c, 0, 67, 72
1, 130893, Control_c, 0, 67, 91
1, 130908, Control_c, 0, 67, 111
1, 130922, Control_c, 0, 67, 127
1, 130963, Note_off_c, 0, 65, 56
1, 130982, Note_off_c, 0, 72, 58
1, 131029, Note_on_c, 0, 74, 65
1, 131092, Note_off_c, 0, 74, 64
1, 131265, Note_on_c, 0, 56, 56
1, 131267, Note_on_c, 0, 76, 64
1, 131397, Note_off_c, 0, 84, 54
1, 131479, Note_on_c, 0, 77, 65
1, 131581, Note_off_c, 0, 77, 60
1, 131597, Note_on_c, 0, 71, 64
1, 131656, Note_on_c, 0, 77, 58
1, 131746, Note_on_c, 0, 83, 68
1, 131782, Note_on_c, 0, 81, 40
1, 131782, Note_off_c, 0, 56, 56
1, 131782, Control_c, 0, 64, 96
1, 131796, Control_c, 0, 64, 77
1, 131810, Note_off_c, 0, 81, 35
1, 131811, Control_c, 0, 64, 67
1, 131826, Control_c, 0, 64, 63
1, 131856, Control_c, 0, 64, 65
1, 131858, Note_off_c, 0, 76, 59
1, 131870, Control_c, 0, 64, 70
1, 131885, Control_c, 0, 64, 78
1, 131901, Control_c, 0, 64, 92
1, 131916, Control_c, 0, 64, 112
1, 131931, Control_c, 0, 64, 127
1, 131988, Note_on_c, 0, 55, 36
1, 132074, Note_off_c, 0, 55, 54
1, 132242, Note_on_c, 0, 76, 55
1, 132282, Note_on_c, 0, 56, 45
1, 132286, Control_c, 0, 64, 103
1, 132301, Control_c, 0, 64, 83
1, 132302, Note_on_c, 0, 64, 41
1, 132316, Control_c, 0, 64, 70
1, 132330, Control_c, 0, 64, 62
1, 132345, Control_c, 0, 64, 59
1, 132360, Control_c, 0, 64, 61
1, 132375, Control_c, 0, 64, 63
1, 132390, Control_c, 0, 64, 68
1, 132397, Note_off_c, 0, 64, 54
1, 132400, Note_off_c, 0, 56, 52
1, 132404, Control_c, 0, 64, 75
1, 132419, Control_c, 0, 64, 85
1, 132434, Control_c, 0, 64, 94
1, 132444, Note_off_c, 0, 50, 35
1, 132449, Control_c, 0, 64, 101
1, 132472, Control_c, 0, 64, 109
1, 132486, Control_c, 0, 64, 113
1, 132501, Control_c, 0, 64, 118
1, 132507, Note_off_c, 0, 83, 50
1, 132514, Note_on_c, 0, 57, 43
1, 132516, Control_c, 0, 64, 127
1, 132570, Note_off_c, 0, 71, 54
1, 132583, Note_off_c, 0, 57, 54
1, 132592, Note_off_c, 0, 76, 54
1, 132683, Note_on_c, 0, 50, 39
1, 132694, Note_off_c, 0, 77, 35
1, 132769, Note_on_c, 0, 58, 42
1, 132843, Note_on_c, 0, 62, 43
1, 132894, Note_on_c, 0, 70, 51
1, 132902, Control_c, 0, 64, 112
1, 132916, Control_c, 0, 64, 90
1, 132931, Control_c, 0, 64, 76
1, 132946, Control_c, 0, 64, 65
1, 132949, Note_on_c, 0, 74, 51
1, 132961, Control_c, 0, 64, 56
1, 132975, Control_c, 0, 64, 46
1, 132990, Control_c, 0, 64, 39
1, 133005, Control_c, 0, 64, 36
1, 133012, Note_on_c, 0, 77, 51
1, 133035, Control_c, 0, 64, 37
1, 133050, Control_c, 0, 64, 40
1, 133065, Control_c, 0, 64, 48
1, 133080, Control_c, 0, 64, 57
1, 133095, Control_c, 0, 64, 62
1, 133109, Note_on_c, 0, 82, 58
1, 133109, Control_c, 0, 64, 66
1, 133124, Control_c, 0, 64, 70
1, 133139, Control_c, 0, 64, 75
1, 133153, Control_c, 0, 64, 80
1, 133168, Control_c, 0, 64, 84
1, 133175, Note_off_c, 0, 58, 58
1, 133183, Control_c, 0, 64, 89
1, 133198, Control_c, 0, 64, 94
1, 133214, Note_off_c, 0, 70, 38
1, 133220, Control_c, 0, 64, 98
1, 133235, Control_c, 0, 64, 104
1, 133250, Control_c, 0, 64, 112
1, 133254, Note_off_c, 0, 74, 37
1, 133265, Control_c, 0, 64, 127
1, 133342, Note_off_c, 0, 77, 37
1, 133512, Note_on_c, 0, 53, 39
1, 133578, Note_off_c, 0, 62, 12
1, 133878, Note_on_c, 0, 72, 45
1, 133903, Note_on_c, 0, 58, 29
1, 133971, Note_off_c, 0, 82, 58
1, 134034, Note_off_c, 0, 53, 50
1, 134128, Note_on_c, 0, 70, 48
1, 134135, Note_off_c, 0, 72, 54
1, 134287, Note_on_c, 0, 69, 52
1, 134331, Note_on_c, 0, 62, 32
1, 134332, Note_off_c, 0, 70, 56
1, 134386, Note_off_c, 0, 58, 39
1, 134395, Note_off_c, 0, 69, 54
1, 134453, Note_on_c, 0, 70, 50
1, 134542, Note_off_c, 0, 70, 55
1, 134548, Control_c, 0, 64, 114
1, 134562, Note_on_c, 0, 65, 49
1, 134563, Control_c, 0, 64, 107
1, 134578, Control_c, 0, 64, 103
1, 134593, Control_c, 0, 64, 100
1, 134607, Control_c, 0, 64, 98
1, 134622, Control_c, 0, 64, 96
1, 134637, Control_c, 0, 64, 94
1, 134652, Control_c, 0, 64, 92
1, 134667, Control_c, 0, 64, 90
1, 134681, Control_c, 0, 64, 88
1, 134696, Control_c, 0, 64, 85
1, 134716, Note_on_c, 0, 70, 49
1, 134719, Control_c, 0, 64, 83
1, 134734, Control_c, 0, 64, 80
1, 134747, Control_c, 0, 64, 78
1, 134762, Control_c, 0, 64, 75
1, 134777, Control_c, 0, 64, 71
1, 134792, Control_c, 0, 64, 68
1, 134807, Control_c, 0, 64, 65
1, 134821, Control_c, 0, 64, 63
1, 134836, Control_c, 0, 64, 61
1, 134881, Control_c, 0, 64, 62
1, 134895, Control_c, 0, 64, 63
1, 134910, Control_c, 0, 64, 64
1, 134925, Control_c, 0, 64, 67
1, 134926, Note_on_c, 0, 79, 49
1, 134940, Control_c, 0, 64, 69
1, 134942, Poly_aftertouch_c, 0, 73, 127
1, 134955, Control_c, 0, 64, 73
1, 134970, Control_c, 0, 64, 77
1, 134985, Control_c, 0, 64, 80
1, 135000, Control_c, 0, 64, 84
1, 135014, Control_c, 0, 64, 87
1, 135029, Control_c, 0, 64, 90
1, 135044, Control_c, 0, 64, 92
1, 135059, Control_c, 0, 64, 94
1, 135059, Note_off_c, 0, 70, 60
1, 135073, Note_off_c, 0, 65, 9
1, 135074, Control_c, 0, 64, 97
1, 135080, Poly_aftertouch_c, 0, 73, 0
1, 135089, Control_c, 0, 64, 100
1, 135104, Control_c, 0, 64, 103
1, 135119, Control_c, 0, 64, 108
1, 135134, Control_c, 0, 64, 112
1, 135149, Control_c, 0, 64, 119
1, 135163, Control_c, 0, 64, 127
1, 135318, Note_on_c, 0, 77, 49
1, 135398, Note_off_c, 0, 79, 54
1, 135489, Note_off_c, 0, 62, 41
1, 135584, Note_on_c, 0, 74, 54
1, 135608, Note_on_c, 0, 58, 38
1, 135617, Note_off_c, 0, 77, 20
1, 135652, Note_off_c, 0, 74, 63
1, 135755, Note_off_c, 0, 50, 36
1, 135757, Note_off_c, 0, 58, 36
1, 135870, Note_on_c, 0, 70, 52
1, 135888, Note_on_c, 0, 67, 24
1, 135918, Note_on_c, 0, 64, 42
1, 136017, Note_off_c, 0, 67, 47
1, 136053, Note_off_c, 0, 70, 58
1, 136213, Note_off_c, 0, 64, 37
1, 136399, Note_on_c, 0, 70, 47
1, 136415, Note_on_c, 0, 66, 43
1, 136427, Note_on_c, 0, 63, 39
1, 136427, Note_on_c, 0, 58, 35
1, 136450, Note_on_c, 0, 48, 37
1, 136453, Control_c, 0, 64, 103
1, 136466, Note_on_c, 0, 54, 28
1, 136467, Control_c, 0, 64, 91
1, 136482, Control_c, 0, 64, 81
1, 136497, Control_c, 0, 64, 71
1, 136511, Control_c, 0, 64, 63
1, 136526, Control_c, 0, 64, 57
1, 136541, Control_c, 0, 64, 52
1, 136556, Control_c, 0, 64, 50
1, 136571, Control_c, 0, 64, 49
1, 136585, Control_c, 0, 64, 50
1, 136600, Control_c, 0, 64, 50
1, 136615, Control_c, 0, 64, 51
1, 136630, Control_c, 0, 64, 53
1, 136645, Control_c, 0, 64, 57
1, 136660, Control_c, 0, 64, 60
1, 136675, Control_c, 0, 64, 62
1, 136690, Control_c, 0, 64, 64
1, 136705, Control_c, 0, 64, 66
1, 136720, Control_c, 0, 64, 70
1, 136734, Control_c, 0, 64, 74
1, 136749, Control_c, 0, 64, 79
1, 136764, Control_c, 0, 64, 81
1, 136779, Control_c, 0, 64, 83
1, 136794, Control_c, 0, 64, 85
1, 136809, Control_c, 0, 64, 87
1, 136824, Control_c, 0, 64, 89
1, 136839, Control_c, 0, 64, 91
1, 136854, Control_c, 0, 64, 94
1, 136869, Control_c, 0, 64, 97
1, 136883, Control_c, 0, 64, 101
1, 136898, Control_c, 0, 64, 107
1, 136913, Control_c, 0, 64, 118
1, 136927, Control_c, 0, 64, 127
1, 136931, Note_on_c, 0, 62, 42
1, 136972, Note_off_c, 0, 66, 54
1, 136994, Note_off_c, 0, 58, 36
1, 137018, Note_off_c, 0, 63, 56
1, 137050, Note_off_c, 0, 54, 41
1, 137235, Note_off_c, 0, 62, 53
1, 137241, Note_on_c, 0, 63, 50
1, 137250, Note_on_c, 0, 65, 37
1, 137250, Note_on_c, 0, 53, 22
1, 137381, Note_off_c, 0, 70, 38
1, 137393, Note_off_c, 0, 48, 34
1, 137404, Note_off_c, 0, 53, 53
1, 137501, Note_off_c, 0, 65, 43
1, 137509, Note_on_c, 0, 60, 45
1, 137539, Note_off_c, 0, 60, 62
1, 137778, Note_on_c, 0, 69, 54
1, 137790, Note_on_c, 0, 65, 38
1, 137802, Control_c, 0, 64, 111
1, 137805, Note_on_c, 0, 57, 35
1, 137816, Control_c, 0, 64, 85
1, 137817, Note_on_c, 0, 36, 44
1, 137831, Control_c, 0, 64, 69
1, 137846, Control_c, 0, 64, 61
1, 137861, Control_c, 0, 64, 59
1, 137868, Note_off_c, 0, 63, 39
1, 137876, Control_c, 0, 64, 61
1, 137891, Control_c, 0, 64, 64
1, 137905, Control_c, 0, 64, 70
1, 137920, Control_c, 0, 64, 80
1, 137935, Control_c, 0, 64, 91
1, 137945, Note_off_c, 0, 36, 61
1, 137949, Control_c, 0, 64, 100
1, 137964, Control_c, 0, 64, 108
1, 137979, Control_c, 0, 64, 115
1, 137994, Control_c, 0, 64, 119
1, 138009, Control_c, 0, 64, 122
1, 138023, Control_c, 0, 64, 127
1, 138083, Note_on_c, 0, 53, 41
1, 138365, Control_c, 0, 64, 122
1, 138377, Note_on_c, 0, 64, 48
1, 138380, Control_c, 0, 64, 105
1, 138394, Note_on_c, 0, 54, 28
1, 138395, Control_c, 0, 64, 93
1, 138410, Control_c, 0, 64, 83
1, 138425, Control_c, 0, 64, 72
1, 138439, Control_c, 0, 64, 62
1, 138460, Note_off_c, 0, 53, 35
1, 138461, Control_c, 0, 64, 56
1, 138476, Control_c, 0, 64, 53
1, 138491, Control_c, 0, 64, 53
1, 138505, Control_c, 0, 64, 54
1, 138517, Note_off_c, 0, 65, 57
1, 138520, Control_c, 0, 64, 57
1, 138535, Control_c, 0, 64, 60
1, 138550, Control_c, 0, 64, 63
1, 138565, Control_c, 0, 64, 64
1, 138580, Control_c, 0, 64, 66
1, 138594, Control_c, 0, 64, 68
1, 138609, Control_c, 0, 64, 70
1, 138624, Control_c, 0, 64, 72
1, 138639, Control_c, 0, 64, 74
1, 138654, Control_c, 0, 64, 77
1, 138669, Control_c, 0, 64, 79
1, 138673, Note_off_c, 0, 57, 34
1, 138684, Control_c, 0, 64, 80
1, 138698, Control_c, 0, 64, 82
1, 138713, Control_c, 0, 64, 83
1, 138723, Note_on_c, 0, 55, 28
1, 138728, Control_c, 0, 64, 84
1, 138743, Control_c, 0, 64, 86
1, 138758, Control_c, 0, 64, 88
1, 138772, Control_c, 0, 64, 91
1, 138779, Note_off_c, 0, 54, 35
1, 138787, Control_c, 0, 64, 93
1, 138802, Control_c, 0, 64, 97
1, 138817, Control_c, 0, 64, 99
1, 138832, Control_c, 0, 64, 102
1, 138846, Control_c, 0, 64, 105
1, 138861, Control_c, 0, 64, 108
1, 138876, Control_c, 0, 64, 112
1, 138891, Control_c, 0, 64, 120
1, 138905, Control_c, 0, 64, 127
1, 138937, Note_off_c, 0, 55, 37
1, 138975, Note_off_c, 0, 64, 37
1, 139084, Control_c, 0, 64, 102
1, 139098, Note_off_c, 0, 69, 37
1, 139099, Control_c, 0, 64, 83
1, 139110, Note_on_c, 0, 68, 49
1, 139114, Control_c, 0, 64, 69
1, 139125, Note_on_c, 0, 53, 32
1, 139128, Control_c, 0, 64, 61
1, 139131, Note_on_c, 0, 56, 40
1, 139134, Note_on_c, 0, 47, 35
1, 139135, Note_on_c, 0, 59, 28
1, 139143, Control_c, 0, 64, 56
1, 139154, Note_on_c, 0, 63, 33
1, 139158, Control_c, 0, 64, 55
1, 139173, Control_c, 0, 64, 56
1, 139188, Control_c, 0, 64, 57
1, 139210, Control_c, 0, 64, 58
1, 139225, Control_c, 0, 64, 60
1, 139240, Control_c, 0, 64, 62
1, 139255, Control_c, 0, 64, 64
1, 139270, Control_c, 0, 64, 67
1, 139284, Control_c, 0, 64, 70
1, 139299, Control_c, 0, 64, 73
1, 139314, Control_c, 0, 64, 76
1, 139328, Control_c, 0, 64, 78
1, 139334, Note_off_c, 0, 59, 41
1, 139343, Control_c, 0, 64, 80
1, 139358, Control_c, 0, 64, 82
1, 139361, Note_off_c, 0, 63, 38
1, 139373, Control_c, 0, 64, 84
1, 139387, Note_on_c, 0, 65, 38
1, 139388, Control_c, 0, 64, 87
1, 139402, Control_c, 0, 64, 91
1, 139417, Control_c, 0, 64, 96
1, 139432, Control_c, 0, 64, 102
1, 139445, Note_off_c, 0, 68, 49
1, 139447, Control_c, 0, 64, 109
1, 139455, Note_off_c, 0, 56, 23
1, 139456, Note_off_c, 0, 53, 24
1, 139460, Note_on_c, 0, 59, 28
1, 139462, Control_c, 0, 64, 120
1, 139466, Note_off_c, 0, 65, 50
1, 139477, Control_c, 0, 64, 127
1, 139496, Note_on_c, 0, 63, 48
1, 139541, Note_off_c, 0, 63, 58
1, 139545, Note_off_c, 0, 59, 33
1, 139554, Note_on_c, 0, 65, 34
1, 139610, Note_off_c, 0, 65, 57
1, 139629, Poly_aftertouch_c, 0, 59, 127
1, 139654, Note_on_c, 0, 63, 37
1, 139687, Note_off_c, 0, 63, 50
1, 139691, Note_on_c, 0, 65, 43
1, 139723, Poly_aftertouch_c, 0, 59, 0
1, 139732, Note_off_c, 0, 65, 59
1, 139742, Note_on_c, 0, 59, 19
1, 139766, Note_on_c, 0, 63, 29
1, 139781, Note_off_c, 0, 59, 49
1, 139814, Note_on_c, 0, 65, 47
1, 139816, Note_off_c, 0, 63, 42
1, 139839, Note_off_c, 0, 65, 58
1, 139870, Note_on_c, 0, 63, 26
1, 139876, Note_on_c, 0, 59, 41
1, 139914, Note_off_c, 0, 47, 34
1, 139951, Note_off_c, 0, 59, 0
1, 139957, Note_on_c, 0, 65, 26
1, 139962, Note_off_c, 0, 63, 0
1, 139969, Note_on_c, 0, 59, 40
1, 139978, Note_on_c, 0, 63, 30
1, 140021, Note_off_c, 0, 65, 0
1, 140037, Note_on_c, 0, 65, 31
1, 140046, Note_off_c, 0, 63, 0
1, 140081, Note_off_c, 0, 65, 53
1, 140084, Poly_aftertouch_c, 0, 63, 127
1, 140139, Note_on_c, 0, 65, 48
1, 140181, Poly_aftertouch_c, 0, 63, 0
1, 140196, Note_off_c, 0, 65, 58
1, 140200, Note_on_c, 0, 63, 24
1, 140252, Note_on_c, 0, 35, 55
1, 140255, Note_on_c, 0, 65, 45
1, 140260, Note_off_c, 0, 63, 52
1, 140279, Note_off_c, 0, 35, 56
1, 140311, Note_off_c, 0, 65, 61
1, 140338, Note_on_c, 0, 63, 31
1, 140346, Note_off_c, 0, 59, 0
1, 140383, Poly_aftertouch_c, 0, 59, 127
1, 140404, Note_off_c, 0, 63, 41
1, 140410, Note_on_c, 0, 65, 41
1, 140462, Note_on_c, 0, 63, 48
1, 140472, Note_off_c, 0, 65, 49
1, 140526, Note_off_c, 0, 63, 56
1, 140561, Note_on_c, 0, 65, 38
1, 140627, Note_on_c, 0, 63, 47
1, 140686, Note_on_c, 0, 70, 70
1, 140732, Note_off_c, 0, 65, 42
1, 140800, Note_off_c, 0, 63, 35
1, 140856, Note_on_c, 0, 65, 38
1, 140889, Note_off_c, 0, 65, 51
1, 140905, Note_on_c, 0, 63, 55
1, 140929, Note_on_c, 0, 56, 41
1, 140936, Note_off_c, 0, 70, 58
1, 140956, Note_off_c, 0, 63, 54
1, 140972, Note_on_c, 0, 65, 52
1, 141000, Poly_aftertouch_c, 0, 59, 0
1, 141055, Note_off_c, 0, 65, 60
1, 141087, Note_on_c, 0, 63, 48
1, 141088, Note_off_c, 0, 56, 53
1, 141197, Note_on_c, 0, 73, 74
1, 141236, Note_on_c, 0, 54, 49
1, 141242, Note_on_c, 0, 46, 53
1, 141242, Control_c, 0, 64, 118
1, 141247, Note_on_c, 0, 61, 42
1, 141256, Control_c, 0, 64, 81
1, 141271, Control_c, 0, 64, 65
1, 141286, Control_c, 0, 64, 59
1, 141301, Control_c, 0, 64, 58
1, 141316, Control_c, 0, 64, 60
1, 141331, Control_c, 0, 64, 63
1, 141346, Control_c, 0, 64, 68
1, 141358, Note_off_c, 0, 61, 43
1, 141361, Control_c, 0, 64, 76
1, 141375, Control_c, 0, 64, 85
1, 141390, Control_c, 0, 64, 94
1, 141393, Note_on_c, 0, 66, 52
1, 141393, Note_off_c, 0, 73, 54
1, 141405, Control_c, 0, 64, 101
1, 141416, Note_off_c, 0, 54, 35
1, 141418, Note_off_c, 0, 63, 42
1, 141420, Control_c, 0, 64, 110
1, 141435, Control_c, 0, 64, 127
1, 141469, Note_off_c, 0, 66, 58
1, 141474, Note_on_c, 0, 61, 25
1, 141504, Note_on_c, 0, 63, 40
1, 141513, Note_off_c, 0, 61, 51
1, 141535, Note_off_c, 0, 63, 53
1, 141539, Note_on_c, 0, 66, 49
1, 141581, Note_off_c, 0, 66, 62
1, 141587, Note_on_c, 0, 61, 42
1, 141625, Note_off_c, 0, 61, 50
1, 141656, Note_on_c, 0, 66, 54
1, 141695, Note_off_c, 0, 66, 61
1, 141698, Note_on_c, 0, 61, 40
1, 141714, Poly_aftertouch_c, 0, 63, 127
1, 141717, Note_on_c, 0, 63, 3
1, 141753, Note_on_c, 0, 66, 51
1, 141787, Note_off_c, 0, 63, 0
1, 141790, Note_off_c, 0, 66, 64
1, 141795, Note_off_c, 0, 46, 39
1, 141798, Note_on_c, 0, 63, 43
1, 141866, Note_off_c, 0, 63, 54
1, 141870, Note_on_c, 0, 66, 66
1, 141897, Note_off_c, 0, 61, 41
1, 141902, Note_off_c, 0, 66, 62
1, 141924, Note_on_c, 0, 63, 51
1, 142014, Note_on_c, 0, 66, 59
1, 142151, Note_on_c, 0, 72, 63
1, 142193, Note_off_c, 0, 66, 33
1, 142195, Note_on_c, 0, 34, 66
1, 142231, Note_off_c, 0, 63, 22
1, 142240, Note_off_c, 0, 34, 61
1, 142306, Note_off_c, 0, 72, 50
1, 142332, Note_on_c, 0, 66, 49
1, 142381, Note_off_c, 0, 66, 57
1, 142396, Poly_aftertouch_c, 0, 60, 127
1, 142425, Note_on_c, 0, 63, 35
1, 142445, Poly_aftertouch_c, 0, 60, 0
1, 142458, Note_off_c, 0, 63, 47
1, 142462, Note_on_c, 0, 66, 52
1, 142500, Note_on_c, 0, 60, 33
1, 142511, Note_off_c, 0, 66, 61
1, 142545, Note_off_c, 0, 60, 48
1, 142551, Note_on_c, 0, 63, 50
1, 142577, Note_off_c, 0, 63, 56
1, 142591, Note_on_c, 0, 66, 43
1, 142628, Note_on_c, 0, 60, 46
1, 142633, Note_off_c, 0, 66, 49
1, 142672, Note_off_c, 0, 60, 54
1, 142675, Note_on_c, 0, 63, 41
1, 142698, Note_on_c, 0, 66, 52
1, 142705, Note_off_c, 0, 63, 48
1, 142738, Note_off_c, 0, 66, 61
1, 142738, Note_on_c, 0, 60, 36
1, 142781, Note_on_c, 0, 63, 30
1, 142813, Note_on_c, 0, 66, 52
1, 142827, Note_off_c, 0, 60, 0
1, 142827, Note_on_c, 0, 60, 18
1, 142836, Note_off_c, 0, 63, 0
1, 142843, Note_off_c, 0, 66, 64
1, 142848, Note_on_c, 0, 63, 49
1, 142925, Note_on_c, 0, 66, 67
1, 143012, Note_off_c, 0, 66, 58
1, 143033, Note_off_c, 0, 60, 40
1, 143081, Note_on_c, 0, 72, 86
1, 143102, Note_on_c, 0, 54, 73
1, 143111, Note_on_c, 0, 45, 62
1, 143134, Note_on_c, 0, 60, 22
1, 143146, Note_off_c, 0, 63, 41
1, 143148, Control_c, 0, 64, 120
1, 143163, Control_c, 0, 64, 82
1, 143177, Control_c, 0, 64, 64
1, 143180, Note_off_c, 0, 60, 46
1, 143192, Control_c, 0, 64, 48
1, 143207, Control_c, 0, 64, 40
1, 143222, Control_c, 0, 64, 41
1, 143237, Control_c, 0, 64, 48
1, 143251, Control_c, 0, 64, 58
1, 143264, Note_on_c, 0, 66, 57
1, 143266, Control_c, 0, 64, 66
1, 143281, Control_c, 0, 64, 77
1, 143295, Control_c, 0, 64, 99
1, 143298, Note_on_c, 0, 60, 47
1, 143299, Note_off_c, 0, 72, 55
1, 143310, Control_c, 0, 64, 127
1, 143346, Note_off_c, 0, 60, 51
1, 143358, Note_on_c, 0, 63, 61
1, 143362, Note_off_c, 0, 66, 52
1, 143391, Note_off_c, 0, 54, 37
1, 143397, Note_off_c, 0, 63, 60
1, 143412, Note_on_c, 0, 66, 35
1, 143464, Poly_aftertouch_c, 0, 60, 127
1, 143472, Note_off_c, 0, 66, 60
1, 143487, Note_on_c, 0, 63, 57
1, 143516, Note_off_c, 0, 63, 63
1, 143522, Note_on_c, 0, 66, 48
1, 143576, Note_off_c, 0, 66, 61
1, 143588, Note_on_c, 0, 63, 60
1, 143600, Poly_aftertouch_c, 0, 60, 0
1, 143618, Note_off_c, 0, 63, 59
1, 143636, Note_on_c, 0, 66, 46
1, 143638, Poly_aftertouch_c, 0, 60, 127
1, 143678, Note_off_c, 0, 66, 64
1, 143707, Note_on_c, 0, 63, 49
1, 143733, Note_off_c, 0, 63, 56
1, 143751, Note_on_c, 0, 66, 67
1, 143762, Note_off_c, 0, 45, 52
1, 143801, Note_off_c, 0, 66, 60
1, 143820, Note_on_c, 0, 63, 52
1, 143826, Note_on_c, 0, 60, 4
1, 143853, Note_off_c, 0, 63, 58
1, 143856, Note_on_c, 0, 66, 60
1, 143917, Note_off_c, 0, 66, 63
1, 143930, Note_on_c, 0, 63, 58
1, 143981, Note_on_c, 0, 66, 59
1, 143985, Note_off_c, 0, 63, 59
1, 143987, Note_on_c, 0, 33, 76
1, 144033, Note_off_c, 0, 33, 57
1, 144045, Control_c, 0, 67, 125
1, 144050, Note_off_c, 0, 66, 62
1, 144060, Control_c, 0, 67, 122
1, 144062, Note_on_c, 0, 63, 53
1, 144074, Control_c, 0, 67, 120
1, 144089, Control_c, 0, 67, 118
1, 144104, Control_c, 0, 67, 109
1, 144118, Control_c, 0, 67, 75
1, 144125, Note_on_c, 0, 66, 59
1, 144133, Note_off_c, 0, 63, 55
1, 144133, Control_c, 0, 67, 42
1, 144148, Control_c, 0, 67, 0
1, 144181, Note_off_c, 0, 60, 38
1, 144201, Note_on_c, 0, 63, 53
1, 144208, Note_off_c, 0, 66, 63
1, 144270, Note_on_c, 0, 66, 54
1, 144289, Note_off_c, 0, 63, 60
1, 144348, Note_on_c, 0, 73, 84
1, 144369, Note_off_c, 0, 66, 59
1, 144374, Note_on_c, 0, 61, 68
1, 144446, Note_on_c, 0, 63, 41
1, 144512, Note_off_c, 0, 61, 60
1, 144526, Note_on_c, 0, 66, 61
1, 144545, Note_off_c, 0, 73, 51
1, 144585, Note_off_c, 0, 63, 55
1, 144589, Note_on_c, 0, 44, 67
1, 144625, Note_off_c, 0, 66, 64
1, 144684, Note_on_c, 0, 54, 60
1, 144716, Note_off_c, 0, 44, 57
1, 144842, Note_on_c, 0, 74, 93
1, 144864, Note_on_c, 0, 66, 65
1, 144872, Note_on_c, 0, 62, 68
1, 144880, Note_on_c, 0, 60, 65
1, 144912, Control_c, 0, 64, 90
1, 144927, Control_c, 0, 64, 66
1, 144941, Control_c, 0, 64, 52
1, 144956, Control_c, 0, 64, 44
1, 144971, Control_c, 0, 64, 43
1, 144986, Control_c, 0, 64, 47
1, 144998, Note_off_c, 0, 62, 51
1, 145001, Control_c, 0, 64, 57
1, 145015, Control_c, 0, 64, 70
1, 145028, Note_off_c, 0, 66, 62
1, 145030, Control_c, 0, 64, 92
1, 145039, Note_on_c, 0, 72, 61
1, 145045, Control_c, 0, 64, 127
1, 145114, Note_on_c, 0, 62, 59
1, 145117, Note_off_c, 0, 72, 61
1, 145119, Note_off_c, 0, 74, 61
1, 145143, Note_on_c, 0, 66, 44
1, 145146, Note_off_c, 0, 60, 33
1, 145152, Note_off_c, 0, 62, 52
1, 145166, Note_off_c, 0, 66, 59
1, 145193, Note_on_c, 0, 72, 63
1, 145241, Note_off_c, 0, 72, 59
1, 145248, Note_on_c, 0, 66, 64
1, 145248, Note_on_c, 0, 62, 56
1, 145281, Note_off_c, 0, 62, 57
1, 145301, Note_on_c, 0, 72, 57
1, 145302, Note_off_c, 0, 66, 58
1, 145339, Note_off_c, 0, 72, 57
1, 145346, Note_off_c, 0, 54, 55
1, 145350, Note_on_c, 0, 66, 38
1, 145352, Note_on_c, 0, 62, 58
1, 145385, Note_off_c, 0, 66, 51
1, 145386, Note_off_c, 0, 62, 54
1, 145398, Note_on_c, 0, 72, 56
1, 145432, Note_on_c, 0, 66, 66
1, 145436, Note_off_c, 0, 72, 57
1, 145477, Note_on_c, 0, 72, 56
1, 145486, Note_off_c, 0, 66, 0
1, 145522, Poly_aftertouch_c, 0, 66, 127
1, 145623, Poly_aftertouch_c, 0, 66, 0
1, 145659, Poly_aftertouch_c, 0, 66, 127
1, 145693, Note_on_c, 0, 75, 81
1, 145706, Note_on_c, 0, 32, 80
1, 145732, Note_off_c, 0, 72, 58
1, 145737, Poly_aftertouch_c, 0, 66, 0
1, 145740, Note_off_c, 0, 32, 64
1, 145793, Note_on_c, 0, 63, 68
1, 145793, Note_on_c, 0, 72, 52
1, 145865, Note_on_c, 0, 66, 70
1, 145868, Note_off_c, 0, 72, 62
1, 145871, Note_off_c, 0, 63, 56
1, 145919, Note_on_c, 0, 72, 63
1, 145919, Note_off_c, 0, 66, 62
1, 145983, Note_on_c, 0, 63, 71
1, 145990, Note_on_c, 0, 66, 70
1, 145996, Note_off_c, 0, 72, 62
1, 146045, Note_on_c, 0, 72, 68
1, 146058, Note_off_c, 0, 66, 64
1, 146065, Note_off_c, 0, 63, 51
1, 146097, Note_on_c, 0, 61, 94
1, 146103, Note_on_c, 0, 66, 66
1, 146113, Note_on_c, 0, 63, 44
1, 146119, Note_off_c, 0, 72, 62
1, 146158, Note_off_c, 0, 61, 62
1, 146160, Note_off_c, 0, 63, 62
1, 146172, Note_off_c, 0, 66, 64
1, 146182, Note_on_c, 0, 73, 77
1, 146238, Note_off_c, 0, 75, 63
1, 146243, Note_on_c, 0, 66, 72
1, 146246, Note_off_c, 0, 73, 62
1, 146308, Note_on_c, 0, 73, 72
1, 146339, Note_on_c, 0, 63, 57
1, 146352, Note_off_c, 0, 66, 61
1, 146369, Note_off_c, 0, 63, 65
1, 146375, Note_off_c, 0, 73, 64
1, 146378, Note_on_c, 0, 56, 78
1, 146449, Note_on_c, 0, 59, 81
1, 146509, Note_on_c, 0, 62, 76
1, 146618, Note_on_c, 0, 76, 95
1, 146633, Note_on_c, 0, 71, 77
1, 146645, Note_on_c, 0, 64, 70
1, 146661, Control_c, 0, 64, 82
1, 146676, Control_c, 0, 64, 63
1, 146698, Control_c, 0, 64, 45
1, 146713, Control_c, 0, 64, 0
1, 146758, Control_c, 0, 64, 46
1, 146773, Control_c, 0, 64, 61
1, 146788, Control_c, 0, 64, 73
1, 146802, Control_c, 0, 64, 93
1, 146817, Control_c, 0, 64, 127
1, 146834, Note_on_c, 0, 74, 54
1, 146848, Note_off_c, 0, 64, 58
1, 146848, Note_off_c, 0, 71, 58
1, 146876, Note_off_c, 0, 62, 60
1, 146900, Note_off_c, 0, 76, 57
1, 146911, Note_on_c, 0, 71, 54
1, 146914, Note_off_c, 0, 74, 60
1, 146956, Note_on_c, 0, 64, 25
1, 146972, Note_off_c, 0, 71, 56
1, 146991, Note_on_c, 0, 76, 69
1, 146993, Note_off_c, 0, 64, 55
1, 147014, Note_on_c, 0, 74, 32
1, 147026, Note_off_c, 0, 76, 61
1, 147039, Note_on_c, 0, 71, 51
1, 147049, Note_off_c, 0, 74, 53
1, 147061, Note_off_c, 0, 59, 54
1, 147078, Note_on_c, 0, 64, 32
1, 147083, Note_off_c, 0, 71, 57
1, 147093, Note_on_c, 0, 76, 64
1, 147114, Note_off_c, 0, 64, 52
1, 147114, Note_on_c, 0, 74, 49
1, 147122, Note_off_c, 0, 56, 57
1, 147133, Note_off_c, 0, 76, 64
1, 147135, Note_on_c, 0, 71, 69
1, 147136, Note_off_c, 0, 74, 58
1, 147180, Note_off_c, 0, 71, 59
1, 147202, Note_on_c, 0, 76, 45
1, 147206, Note_on_c, 0, 74, 71
1, 147224, Poly_aftertouch_c, 0, 64, 127
1, 147230, Note_off_c, 0, 76, 66
1, 147231, Note_on_c, 0, 71, 66
1, 147231, Note_off_c, 0, 74, 69
1, 147278, Note_off_c, 0, 71, 60
1, 147290, Note_on_c, 0, 76, 63
1, 147299, Note_on_c, 0, 74, 60
1, 147308, Poly_aftertouch_c, 0, 64, 0
1, 147325, Note_off_c, 0, 76, 63
1, 147329, Note_off_c, 0, 74, 65
1, 147337, Note_on_c, 0, 71, 56
1, 147364, Note_off_c, 0, 71, 64
1, 147379, Note_on_c, 0, 74, 65
1, 147381, Note_on_c, 0, 76, 54
1, 147412, Note_off_c, 0, 76, 64
1, 147421, Note_off_c, 0, 74, 56
1, 147423, Note_on_c, 0, 71, 82
1, 147449, Note_on_c, 0, 64, 44
1, 147528, Note_on_c, 0, 32, 89
1, 147664, Note_off_c, 0, 32, 58
1, 147699, Note_on_c, 0, 44, 57
1, 147723, Note_off_c, 0, 64, 43
1, 147731, Note_off_c, 0, 44, 64
1, 147745, Note_off_c, 0, 71, 54
1, 147754, Note_on_c, 0, 74, 58
1, 147769, Note_on_c, 0, 76, 36
1, 147845, Note_off_c, 0, 76, 55
1, 147856, Note_on_c, 0, 64, 49
1, 147857, Note_on_c, 0, 71, 67
1, 147857, Note_off_c, 0, 74, 57
1, 147862, Note_on_c, 0, 45, 23
1, 147904, Note_off_c, 0, 45, 37
1, 147934, Note_off_c, 0, 64, 58
1, 147957, Note_on_c, 0, 49, 32
1, 147972, Note_on_c, 0, 56, 75
1, 147974, Note_on_c, 0, 76, 64
1, 147978, Note_on_c, 0, 74, 70
1, 147985, Note_off_c, 0, 71, 50
1, 147996, Note_off_c, 0, 49, 43
1, 148075, Note_on_c, 0, 62, 75
1, 148077, Note_on_c, 0, 64, 66
1, 148077, Note_on_c, 0, 71, 70
1, 148078, Note_off_c, 0, 56, 60
1, 148083, Note_off_c, 0, 76, 61
1, 148097, Note_off_c, 0, 74, 56
1, 148132, Note_off_c, 0, 62, 62
1, 148152, Note_off_c, 0, 64, 59
1, 148160, Note_on_c, 0, 56, 79
1, 148175, Note_off_c, 0, 71, 62
1, 148189, Note_on_c, 0, 76, 73
1, 148199, Note_on_c, 0, 74, 66
1, 148221, Note_off_c, 0, 56, 64
1, 148257, Note_on_c, 0, 47, 70
1, 148272, Note_on_c, 0, 64, 63
1, 148285, Note_on_c, 0, 71, 79
1, 148287, Note_off_c, 0, 76, 62
1, 148288, Note_off_c, 0, 47, 67
1, 148305, Note_off_c, 0, 74, 56
1, 148312, Note_off_c, 0, 64, 62
1, 148359, Note_on_c, 0, 44, 85
1, 148364, Note_on_c, 0, 76, 81
1, 148371, Note_off_c, 0, 71, 62
1, 148373, Note_on_c, 0, 74, 65
1, 148417, Note_off_c, 0, 44, 60
1, 148435, Note_on_c, 0, 32, 103
1, 148450, Note_on_c, 0, 71, 77
1, 148452, Note_off_c, 0, 76, 60
1, 148453, Note_on_c, 0, 65, 70
1, 148457, Note_off_c, 0, 74, 62
1, 148486, Note_on_c, 0, 31, 31
1, 148518, Note_off_c, 0, 32, 60
1, 148530, Note_off_c, 0, 31, 53
1, 148532, Note_on_c, 0, 44, 73
1, 148536, Note_on_c, 0, 77, 82
1, 148547, Note_off_c, 0, 65, 56
1, 148548, Note_on_c, 0, 74, 73
1, 148555, Note_off_c, 0, 44, 66
1, 148557, Note_off_c, 0, 71, 57
1, 148623, Note_on_c, 0, 71, 75
1, 148624, Note_on_c, 0, 47, 80
1, 148625, Note_off_c, 0, 77, 58
1, 148631, Note_on_c, 0, 65, 72
1, 148637, Note_off_c, 0, 74, 60
1, 148669, Note_on_c, 0, 48, 49
1, 148706, Note_off_c, 0, 65, 58
1, 148707, Note_on_c, 0, 56, 90
1, 148712, Note_off_c, 0, 47, 64
1, 148720, Note_on_c, 0, 77, 90
1, 148721, Note_on_c, 0, 74, 86
1, 148727, Note_off_c, 0, 48, 41
1, 148736, Note_off_c, 0, 71, 57
1, 148792, Note_on_c, 0, 62, 88
1, 148798, Note_on_c, 0, 71, 84
1, 148802, Note_off_c, 0, 56, 63
1, 148806, Note_on_c, 0, 65, 84
1, 148808, Note_off_c, 0, 77, 61
1, 148822, Note_off_c, 0, 74, 60
1, 148849, Note_off_c, 0, 62, 65
1, 148876, Note_off_c, 0, 65, 56
1, 148881, Note_on_c, 0, 56, 87
1, 148891, Note_on_c, 0, 77, 89
1, 148896, Note_on_c, 0, 74, 80
1, 148901, Note_off_c, 0, 71, 61
1, 148920, Note_off_c, 0, 56, 66
1, 148962, Note_on_c, 0, 55, 51
1, 148974, Note_on_c, 0, 47, 83
1, 148986, Note_on_c, 0, 65, 78
1, 148986, Note_on_c, 0, 71, 88
1, 148989, Note_off_c, 0, 55, 55
1, 148994, Note_off_c, 0, 77, 61
1, 149010, Note_off_c, 0, 74, 60
1, 149019, Note_off_c, 0, 47, 62
1, 149078, Note_on_c, 0, 77, 91
1, 149081, Note_on_c, 0, 43, 76
1, 149081, Note_on_c, 0, 74, 86
1, 149084, Note_on_c, 0, 41, 87
1, 149100, Note_off_c, 0, 65, 60
1, 149104, Note_off_c, 0, 71, 55
1, 149157, Note_off_c, 0, 43, 60
1, 149159, Note_off_c, 0, 41, 63
1, 149177, Note_on_c, 0, 31, 100
1, 149183, Control_c, 0, 64, 112
1, 149187, Note_on_c, 0, 71, 95
1, 149197, Control_c, 0, 64, 71
1, 149198, Note_on_c, 0, 65, 78
1, 149207, Note_off_c, 0, 77, 62
1, 149209, Note_off_c, 0, 74, 60
1, 149212, Control_c, 0, 64, 44
1, 149227, Control_c, 0, 64, 0
1, 149271, Control_c, 0, 64, 53
1, 149275, Note_off_c, 0, 31, 61
1, 149286, Control_c, 0, 64, 73
1, 149298, Note_on_c, 0, 77, 95
1, 149300, Note_on_c, 0, 43, 83
1, 149301, Control_c, 0, 64, 127
1, 149306, Note_on_c, 0, 74, 87
1, 149313, Note_off_c, 0, 65, 54
1, 149327, Note_off_c, 0, 71, 60
1, 149350, Note_off_c, 0, 43, 63
1, 149406, Note_on_c, 0, 47, 92
1, 149408, Note_on_c, 0, 71, 94
1, 149415, Note_on_c, 0, 65, 84
1, 149431, Note_off_c, 0, 77, 62
1, 149434, Note_off_c, 0, 74, 61
1, 149525, Note_on_c, 0, 77, 100
1, 149528, Note_off_c, 0, 47, 64
1, 149529, Note_on_c, 0, 74, 95
1, 149535, Note_on_c, 0, 55, 90
1, 149554, Note_off_c, 0, 71, 63
1, 149564, Note_off_c, 0, 65, 60
1, 149651, Note_on_c, 0, 71, 96
1, 149660, Note_on_c, 0, 62, 100
1, 149663, Note_on_c, 0, 65, 87
1, 149687, Note_off_c, 0, 74, 61
1, 149704, Note_off_c, 0, 77, 58
1, 149715, Note_off_c, 0, 55, 60
1, 149720, Note_off_c, 0, 62, 60
1, 149800, Note_on_c, 0, 77, 93
1, 149807, Note_on_c, 0, 74, 95
1, 149834, Note_off_c, 0, 71, 62
1, 149845, Note_off_c, 0, 65, 61
1, 149963, Note_on_c, 0, 71, 101
1, 149976, Note_on_c, 0, 65, 78
1, 149993, Note_off_c, 0, 74, 62
1, 150000, Note_off_c, 0, 77, 63
1, 150082, Note_off_c, 0, 65, 61
1, 150217, Note_on_c, 0, 77, 94
1, 150235, Note_on_c, 0, 74, 77
1, 150442, Control_c, 0, 67, 36
1, 150457, Control_c, 0, 67, 47
1, 150472, Control_c, 0, 67, 63
1, 150482, Note_off_c, 0, 77, 58
1, 150486, Control_c, 0, 67, 86
1, 150492, Note_off_c, 0, 74, 59
1, 150501, Control_c, 0, 67, 114
1, 150516, Control_c, 0, 67, 127
1, 150629, Note_on_c, 0, 30, 52
1, 150634, Control_c, 0, 64, 105
1, 150640, Note_off_c, 0, 71, 23
1, 150649, Control_c, 0, 64, 96
1, 150664, Control_c, 0, 64, 87
1, 150679, Control_c, 0, 64, 80
1, 150694, Control_c, 0, 64, 73
1, 150695, Note_on_c, 0, 42, 57
1, 150709, Control_c, 0, 64, 66
1, 150724, Control_c, 0, 64, 61
1, 150729, Note_on_c, 0, 66, 56
1, 150739, Control_c, 0, 64, 55
1, 150754, Control_c, 0, 64, 47
1, 150768, Control_c, 0, 64, 36
1, 150781, Note_on_c, 0, 71, 62
1, 150783, Control_c, 0, 64, 30
1, 150798, Control_c, 0, 64, 32
1, 150809, Note_on_c, 0, 75, 66
1, 150812, Control_c, 0, 64, 41
1, 150827, Control_c, 0, 64, 55
1, 150841, Note_off_c, 0, 66, 61
1, 150842, Control_c, 0, 64, 65
1, 150852, Note_on_c, 0, 78, 69
1, 150857, Control_c, 0, 64, 73
1, 150870, Note_off_c, 0, 42, 59
1, 150872, Control_c, 0, 64, 84
1, 150874, Note_off_c, 0, 30, 59
1, 150876, Note_off_c, 0, 71, 61
1, 150886, Control_c, 0, 64, 96
1, 150901, Control_c, 0, 64, 108
1, 150916, Control_c, 0, 64, 127
1, 150934, Note_off_c, 0, 75, 60
1, 151469, Note_on_c, 0, 75, 41
1, 151503, Note_on_c, 0, 66, 35
1, 151506, Note_on_c, 0, 71, 27
1, 151649, Note_off_c, 0, 78, 49
1, 151664, Note_on_c, 0, 51, 48
1, 151675, Note_on_c, 0, 59, 48
1, 151687, Note_off_c, 0, 75, 35
1, 151704, Note_off_c, 0, 66, 43
1, 151705, Note_on_c, 0, 63, 65
1, 151713, Note_off_c, 0, 51, 63
1, 151754, Note_off_c, 0, 59, 61
1, 151784, Note_off_c, 0, 63, 56
1, 151842, Control_c, 0, 67, 125
1, 151858, Control_c, 0, 67, 95
1, 151873, Control_c, 0, 67, 67
1, 151888, Control_c, 0, 67, 46
1, 151903, Control_c, 0, 67, 0
1, 151916, Note_off_c, 0, 71, 37
1, 151938, Note_on_c, 0, 75, 46
1, 151961, Note_off_c, 0, 75, 61
1, 151981, Note_on_c, 0, 54, 46
1, 152004, Note_on_c, 0, 63, 52
1, 152024, Note_on_c, 0, 66, 55
1, 152042, Note_on_c, 0, 71, 63
1, 152081, Note_on_c, 0, 75, 52
1, 152126, Note_on_c, 0, 78, 74
1, 152140, Note_off_c, 0, 71, 57
1, 152163, Note_on_c, 0, 83, 80
1, 152193, Note_off_c, 0, 75, 60
1, 152217, Note_off_c, 0, 78, 55
1, 152319, Note_off_c, 0, 66, 37
1, 152328, Note_off_c, 0, 63, 53
1, 152420, Note_on_c, 0, 75, 48
1, 152422, Note_on_c, 0, 78, 50
1, 152446, Note_on_c, 0, 71, 34
1, 152505, Note_off_c, 0, 54, 36
1, 152535, Note_on_c, 0, 59, 54
1, 152573, Note_off_c, 0, 75, 34
1, 152581, Note_off_c, 0, 71, 34
1, 152598, Note_on_c, 0, 66, 55
1, 152627, Note_on_c, 0, 63, 32
1, 152632, Note_off_c, 0, 66, 66
1, 152637, Note_off_c, 0, 78, 29
1, 152643, Note_off_c, 0, 59, 49
1, 152662, Note_off_c, 0, 63, 52
1, 152819, Note_on_c, 0, 78, 27
1, 152829, Note_on_c, 0, 75, 41
1, 152869, Note_off_c, 0, 78, 48
1, 152881, Control_c, 0, 67, 40
1, 152896, Control_c, 0, 67, 49
1, 152911, Control_c, 0, 67, 62
1, 152926, Control_c, 0, 67, 78
1, 152933, Note_off_c, 0, 83, 35
1, 152941, Control_c, 0, 67, 94
1, 152945, Note_on_c, 0, 30, 45
1, 152955, Control_c, 0, 67, 105
1, 152959, Note_off_c, 0, 75, 58
1, 152970, Control_c, 0, 67, 113
1, 152985, Control_c, 0, 64, 90
1, 152985, Control_c, 0, 67, 117
1, 153000, Control_c, 0, 64, 69
1, 153000, Control_c, 0, 67, 119
1, 153008, Note_on_c, 0, 42, 54
1, 153014, Control_c, 0, 64, 61
1, 153015, Note_on_c, 0, 71, 46
1, 153029, Control_c, 0, 64, 60
1, 153044, Control_c, 0, 64, 60
1, 153059, Control_c, 0, 64, 62
1, 153074, Control_c, 0, 64, 66
1, 153075, Note_on_c, 0, 73, 56
1, 153088, Control_c, 0, 64, 75
1, 153103, Control_c, 0, 64, 87
1, 153111, Note_on_c, 0, 76, 63
1, 153118, Control_c, 0, 64, 98
1, 153128, Note_off_c, 0, 42, 53
1, 153133, Control_c, 0, 64, 108
1, 153133, Control_c, 0, 67, 117
1, 153148, Control_c, 0, 64, 127
1, 153154, Note_off_c, 0, 30, 37
1, 153162, Control_c, 0, 67, 115
1, 153211, Note_on_c, 0, 83, 75
1, 153222, Control_c, 0, 67, 112
1, 153262, Note_off_c, 0, 71, 23
1, 153326, Note_off_c, 0, 73, 47
1, 153338, Note_off_c, 0, 76, 39
1, 153597, Note_on_c, 0, 76, 56
1, 153611, Note_on_c, 0, 73, 49
1, 153632, Note_on_c, 0, 71, 24
1, 153675, Control_c, 0, 67, 110
1, 153719, Control_c, 0, 67, 107
1, 153749, Control_c, 0, 67, 105
1, 153767, Note_on_c, 0, 64, 59
1, 153775, Note_on_c, 0, 55, 43
1, 153778, Control_c, 0, 67, 101
1, 153779, Note_on_c, 0, 61, 42
1, 153793, Control_c, 0, 67, 99
1, 153822, Control_c, 0, 67, 97
1, 153837, Control_c, 0, 67, 96
1, 153843, Note_off_c, 0, 83, 38
1, 153852, Control_c, 0, 67, 94
1, 153867, Control_c, 0, 67, 93
1, 153882, Control_c, 0, 67, 91
1, 153896, Note_off_c, 0, 73, 55
1, 153897, Control_c, 0, 67, 89
1, 153910, Note_off_c, 0, 76, 34
1, 153911, Control_c, 0, 67, 88
1, 153926, Control_c, 0, 67, 86
1, 153932, Note_off_c, 0, 71, 39
1, 153941, Control_c, 0, 67, 83
1, 153956, Control_c, 0, 67, 81
1, 153970, Control_c, 0, 67, 73
1, 153985, Control_c, 0, 67, 62
1, 153987, Note_on_c, 0, 71, 42
1, 153994, Note_on_c, 0, 73, 60
1, 153994, Note_on_c, 0, 76, 55
1, 154000, Control_c, 0, 67, 47
1, 154015, Control_c, 0, 67, 0
1, 154021, Note_off_c, 0, 55, 39
1, 154021, Note_off_c, 0, 71, 63
1, 154058, Note_off_c, 0, 61, 58
1, 154062, Note_off_c, 0, 73, 60
1, 154069, Note_off_c, 0, 64, 39
1, 154071, Note_off_c, 0, 76, 63
1, 154128, Note_on_c, 0, 70, 62
1, 154134, Note_on_c, 0, 73, 58
1, 154150, Note_on_c, 0, 76, 59
1, 154168, Note_on_c, 0, 56, 74
1, 154181, Note_on_c, 0, 64, 57
1, 154183, Note_on_c, 0, 61, 68
1, 154199, Note_on_c, 0, 82, 82
1, 154242, Note_off_c, 0, 70, 38
1, 154251, Note_off_c, 0, 73, 51
1, 154260, Note_off_c, 0, 76, 55
1, 154405, Note_on_c, 0, 76, 57
1, 154414, Note_on_c, 0, 73, 56
1, 154429, Note_on_c, 0, 70, 55
1, 154462, Note_off_c, 0, 64, 47
1, 154468, Note_off_c, 0, 61, 57
1, 154491, Note_off_c, 0, 56, 58
1, 154574, Note_off_c, 0, 70, 36
1, 154582, Note_on_c, 0, 64, 74
1, 154592, Note_on_c, 0, 58, 71
1, 154592, Note_on_c, 0, 61, 63
1, 154596, Note_off_c, 0, 73, 51
1, 154617, Note_off_c, 0, 64, 63
1, 154625, Note_off_c, 0, 61, 65
1, 154625, Note_off_c, 0, 76, 38
1, 154643, Note_off_c, 0, 58, 64
1, 154751, Note_on_c, 0, 76, 55
1, 154757, Note_off_c, 0, 82, 60
1, 154802, Note_off_c, 0, 76, 59
1, 154807, Note_on_c, 0, 70, 65
1, 154855, Note_on_c, 0, 30, 66
1, 154865, Note_off_c, 0, 70, 63
1, 154918, Note_on_c, 0, 42, 73
1, 154953, Note_on_c, 0, 68, 71
1, 154964, Control_c, 0, 64, 81
1, 154978, Control_c, 0, 64, 57
1, 154993, Control_c, 0, 64, 0
1, 154994, Note_on_c, 0, 71, 62
1, 155038, Control_c, 0, 64, 30
1, 155046, Note_on_c, 0, 76, 74
1, 155054, Control_c, 0, 64, 50
1, 155069, Control_c, 0, 64, 65
1, 155073, Note_off_c, 0, 30, 59
1, 155083, Control_c, 0, 64, 81
1, 155098, Control_c, 0, 64, 127
1, 155120, Note_on_c, 0, 80, 94
1, 155124, Note_off_c, 0, 42, 59
1, 155127, Note_off_c, 0, 68, 51
1, 155149, Poly_aftertouch_c, 0, 34, 0
1, 155177, Note_off_c, 0, 71, 56
1, 155204, Note_off_c, 0, 76, 54
1, 155431, Note_on_c, 0, 71, 51
1, 155431, Note_on_c, 0, 76, 47
1, 155437, Note_on_c, 0, 68, 53
1, 155513, Note_on_c, 0, 54, 50
1, 155517, Note_on_c, 0, 56, 53
1, 155519, Note_off_c, 0, 80, 55
1, 155520, Note_on_c, 0, 59, 59
1, 155546, Note_off_c, 0, 76, 51
1, 155551, Note_off_c, 0, 68, 50
1, 155565, Note_off_c, 0, 71, 0
1, 155577, Note_on_c, 0, 64, 72
1, 155580, Note_off_c, 0, 59, 63
1, 155586, Note_off_c, 0, 54, 60
1, 155596, Note_off_c, 0, 56, 61
1, 155601, Poly_aftertouch_c, 0, 71, 127
1, 155632, Note_off_c, 0, 64, 63
1, 155765, Poly_aftertouch_c, 0, 71, 0
1, 155766, Note_on_c, 0, 76, 52
1, 155788, Note_off_c, 0, 76, 59
1, 155807, Note_on_c, 0, 59, 65
1, 155838, Note_on_c, 0, 64, 65
1, 155881, Note_on_c, 0, 68, 62
1, 155902, Note_on_c, 0, 76, 58
1, 155905, Note_on_c, 0, 71, 70
1, 155960, Note_on_c, 0, 80, 71
1, 156018, Note_on_c, 0, 83, 73
1, 156081, Note_on_c, 0, 88, 92
1, 156128, Note_off_c, 0, 59, 27
1, 156176, Note_off_c, 0, 71, 35
1, 156212, Note_off_c, 0, 83, 52
1, 156219, Note_off_c, 0, 80, 61
1, 156221, Note_off_c, 0, 76, 60
1, 156240, Note_off_c, 0, 64, 58
1, 156241, Note_off_c, 0, 68, 60
1, 156320, Note_on_c, 0, 83, 68
1, 156328, Note_on_c, 0, 76, 56
1, 156334, Note_on_c, 0, 80, 63
1, 156389, Note_on_c, 0, 58, 64
1, 156439, Note_on_c, 0, 64, 57
1, 156448, Note_off_c, 0, 80, 51
1, 156454, Note_on_c, 0, 68, 70
1, 156477, Note_on_c, 0, 70, 67
1, 156485, Note_off_c, 0, 76, 51
1, 156490, Note_off_c, 0, 83, 39
1, 156525, Note_off_c, 0, 64, 64
1, 156532, Note_off_c, 0, 68, 61
1, 156549, Note_off_c, 0, 70, 61
1, 156628, Note_off_c, 0, 58, 60
1, 156645, Note_on_c, 0, 80, 61
1, 156661, Note_on_c, 0, 76, 39
1, 156668, Note_on_c, 0, 83, 10
1, 156683, Note_off_c, 0, 88, 63
1, 156712, Note_on_c, 0, 57, 65
1, 156717, Note_off_c, 0, 76, 56
1, 156718, Note_off_c, 0, 83, 52
1, 156724, Note_off_c, 0, 80, 58
1, 156726, Note_on_c, 0, 59, 64
1, 156751, Note_on_c, 0, 66, 72
1, 156803, Control_c, 0, 64, 97
1, 156806, Note_on_c, 0, 69, 71
1, 156815, Note_on_c, 0, 76, 67
1, 156818, Control_c, 0, 64, 69
1, 156833, Control_c, 0, 64, 55
1, 156847, Control_c, 0, 64, 47
1, 156862, Note_on_c, 0, 78, 67
1, 156862, Control_c, 0, 64, 45
1, 156877, Control_c, 0, 64, 50
1, 156892, Control_c, 0, 64, 60
1, 156907, Control_c, 0, 64, 69
1, 156921, Control_c, 0, 64, 84
1, 156936, Control_c, 0, 64, 127
1, 156938, Note_on_c, 0, 83, 80
1, 156960, Note_off_c, 0, 69, 55
1, 157013, Note_off_c, 0, 57, 48
1, 157017, Note_on_c, 0, 88, 94
1, 157031, Note_off_c, 0, 66, 62
1, 157070, Note_off_c, 0, 59, 59
1, 157155, Note_off_c, 0, 83, 50
1, 157170, Note_off_c, 0, 78, 56
1, 157180, Note_off_c, 0, 76, 45
1, 157336, Note_on_c, 0, 78, 52
1, 157342, Note_on_c, 0, 83, 51
1, 157349, Note_on_c, 0, 76, 36
1, 157493, Note_on_c, 0, 54, 81
1, 157508, Note_on_c, 0, 47, 44
1, 157516, Note_on_c, 0, 42, 66
1, 157517, Note_off_c, 0, 83, 34
1, 157556, Note_off_c, 0, 88, 48
1, 157613, Note_off_c, 0, 76, 42
1, 157681, Note_on_c, 0, 83, 64
1, 157693, Note_on_c, 0, 76, 79
1, 157732, Note_off_c, 0, 83, 62
1, 157732, Note_off_c, 0, 54, 57
1, 157735, Note_off_c, 0, 42, 56
1, 157737, Note_off_c, 0, 76, 61
1, 157754, Note_off_c, 0, 47, 36
1, 157774, Note_off_c, 0, 78, 54
1, 157821, Note_on_c, 0, 78, 24
1, 157827, Note_on_c, 0, 75, 71
1, 157848, Note_on_c, 0, 81, 71
1, 157896, Note_on_c, 0, 87, 87
1, 157900, Note_on_c, 0, 54, 87
1, 157902, Note_on_c, 0, 47, 62
1, 157911, Note_on_c, 0, 42, 73
1, 157958, Note_off_c, 0, 75, 57
1, 157968, Note_off_c, 0, 81, 60
1, 158005, Note_off_c, 0, 78, 35
1, 158113, Note_on_c, 0, 81, 67
1, 158116, Note_on_c, 0, 75, 61
1, 158133, Note_off_c, 0, 54, 54
1, 158197, Note_off_c, 0, 42, 59
1, 158215, Note_off_c, 0, 47, 24
1, 158260, Note_off_c, 0, 75, 55
1, 158269, Note_on_c, 0, 53, 87
1, 158280, Note_on_c, 0, 47, 58
1, 158284, Note_on_c, 0, 41, 77
1, 158350, Note_off_c, 0, 81, 26
1, 158406, Note_off_c, 0, 47, 57
1, 158441, Note_off_c, 0, 53, 58
1, 158445, Note_on_c, 0, 81, 80
1, 158454, Note_on_c, 0, 75, 65
1, 158458, Note_off_c, 0, 41, 58
1, 158483, Note_off_c, 0, 87, 60
1, 158531, Note_off_c, 0, 75, 60
1, 158554, Note_on_c, 0, 40, 73
1, 158600, Note_on_c, 0, 49, 77
1, 158641, Note_on_c, 0, 52, 82
1, 158641, Control_c, 0, 64, 77
1, 158656, Note_off_c, 0, 81, 32
1, 158656, Control_c, 0, 64, 56
1, 158657, Note_on_c, 0, 73, 72
1, 158679, Control_c, 0, 64, 0
1, 158722, Note_on_c, 0, 80, 83
1, 158738, Control_c, 0, 64, 36
1, 158752, Control_c, 0, 64, 57
1, 158767, Control_c, 0, 64, 71
1, 158782, Control_c, 0, 64, 91
1, 158797, Control_c, 0, 64, 127
1, 158807, Note_on_c, 0, 85, 97
1, 158859, Note_off_c, 0, 40, 62
1, 158886, Note_off_c, 0, 80, 60
1, 158897, Note_off_c, 0, 73, 53
1, 158906, Note_off_c, 0, 52, 38
1, 158927, Note_off_c, 0, 49, 60
1, 159148, Note_on_c, 0, 80, 51
1, 159164, Note_on_c, 0, 73, 45
1, 159251, Note_off_c, 0, 80, 53
1, 159265, Note_off_c, 0, 73, 34
1, 159288, Note_on_c, 0, 68, 75
1, 159297, Note_on_c, 0, 64, 64
1, 159317, Note_on_c, 0, 56, 62
1, 159401, Note_off_c, 0, 56, 60
1, 159427, Note_off_c, 0, 64, 51
1, 159434, Note_off_c, 0, 68, 57
1, 159444, Note_on_c, 0, 80, 63
1, 159456, Note_off_c, 0, 85, 57
1, 159466, Note_on_c, 0, 73, 73
1, 159473, Note_off_c, 0, 80, 67
1, 159506, Note_off_c, 0, 73, 61
1, 159520, Note_on_c, 0, 58, 75
1, 159562, Note_on_c, 0, 64, 72
1, 159592, Note_on_c, 0, 70, 86
1, 159631, Note_on_c, 0, 68, 64
1, 159634, Note_on_c, 0, 73, 65
1, 159679, Note_on_c, 0, 76, 72
1, 159695, Control_c, 0, 64, 80
1, 159710, Control_c, 0, 64, 61
1, 159723, Note_on_c, 0, 80, 93
1, 159724, Control_c, 0, 64, 40
1, 159739, Control_c, 0, 64, 0
1, 159771, Note_off_c, 0, 73, 59
1, 159783, Control_c, 0, 64, 49
1, 159784, Note_off_c, 0, 76, 58
1, 159789, Note_off_c, 0, 68, 57
1, 159798, Control_c, 0, 64, 68
1, 159813, Control_c, 0, 64, 127
1, 159847, Note_off_c, 0, 70, 58
1, 159916, Note_off_c, 0, 58, 60
1, 159932, Note_on_c, 0, 68, 62
1, 159944, Note_on_c, 0, 76, 58
1, 159950, Note_on_c, 0, 73, 46
1, 159958, Note_off_c, 0, 64, 34
1, 160078, Note_on_c, 0, 71, 81
1, 160081, Note_on_c, 0, 64, 67
1, 160096, Control_c, 0, 64, 115
1, 160101, Note_on_c, 0, 59, 62
1, 160111, Control_c, 0, 64, 84
1, 160126, Control_c, 0, 64, 77
1, 160140, Control_c, 0, 64, 79
1, 160155, Control_c, 0, 64, 87
1, 160173, Note_off_c, 0, 73, 37
1, 160177, Control_c, 0, 64, 127
1, 160184, Note_off_c, 0, 68, 60
1, 160203, Note_off_c, 0, 80, 61
1, 160217, Note_off_c, 0, 76, 33
1, 160227, Note_off_c, 0, 64, 64
1, 160248, Note_off_c, 0, 59, 63
1, 160288, Note_on_c, 0, 76, 77
1, 160293, Note_on_c, 0, 67, 37
1, 160294, Note_off_c, 0, 71, 55
1, 160297, Note_on_c, 0, 73, 55
1, 160324, Note_off_c, 0, 73, 64
1, 160327, Note_off_c, 0, 67, 52
1, 160343, Note_off_c, 0, 76, 64
1, 160373, Note_on_c, 0, 60, 71
1, 160398, Note_on_c, 0, 63, 75
1, 160439, Note_on_c, 0, 66, 74
1, 160446, Note_on_c, 0, 68, 71
1, 160458, Control_c, 0, 64, 92
1, 160472, Control_c, 0, 64, 64
1, 160487, Control_c, 0, 64, 35
1, 160499, Note_on_c, 0, 72, 79
1, 160502, Control_c, 0, 64, 0
1, 160546, Control_c, 0, 64, 49
1, 160561, Control_c, 0, 64, 71
1, 160576, Control_c, 0, 64, 127
1, 160605, Note_off_c, 0, 60, 49
1, 160621, Note_off_c, 0, 72, 61
1, 160622, Note_on_c, 0, 92, 95
1, 160639, Note_on_c, 0, 84, 65
1, 160642, Note_on_c, 0, 80, 64
1, 160659, Note_off_c, 0, 68, 58
1, 160668, Note_off_c, 0, 63, 59
1, 160671, Note_off_c, 0, 66, 61
1, 160829, Note_off_c, 0, 80, 35
1, 160832, Note_off_c, 0, 84, 38
1, 160959, Note_on_c, 0, 84, 58
1, 160970, Note_on_c, 0, 80, 56
1, 161045, Note_off_c, 0, 80, 48
1, 161100, Note_on_c, 0, 39, 66
1, 161112, Note_on_c, 0, 51, 57
1, 161112, Note_on_c, 0, 44, 59
1, 161136, Note_off_c, 0, 39, 63
1, 161143, Note_off_c, 0, 44, 64
1, 161145, Note_off_c, 0, 51, 63
1, 161148, Note_off_c, 0, 84, 37
1, 161255, Poly_aftertouch_c, 0, 87, 127
1, 161288, Note_on_c, 0, 84, 60
1, 161292, Note_on_c, 0, 80, 62
1, 161366, Note_on_c, 0, 56, 58
1, 161374, Note_off_c, 0, 80, 55
1, 161398, Note_on_c, 0, 60, 66
1, 161443, Note_on_c, 0, 63, 75
1, 161454, Note_on_c, 0, 68, 74
1, 161454, Note_off_c, 0, 84, 31
1, 161486, Note_off_c, 0, 68, 61
1, 161504, Note_off_c, 0, 56, 60
1, 161514, Note_off_c, 0, 60, 62
1, 161516, Note_off_c, 0, 63, 61
1, 161626, Note_on_c, 0, 80, 67
1, 161626, Poly_aftertouch_c, 0, 87, 0
1, 161628, Note_on_c, 0, 84, 70
1, 161669, Note_off_c, 0, 92, 63
1, 161694, Poly_aftertouch_c, 0, 87, 0
1, 161833, Note_on_c, 0, 51, 65
1, 161834, Note_on_c, 0, 90, 89
1, 161835, Note_on_c, 0, 44, 54
1, 161840, Note_on_c, 0, 39, 66
1, 161910, Note_off_c, 0, 80, 23
1, 161960, Note_off_c, 0, 51, 60
1, 161968, Note_off_c, 0, 39, 62
1, 161976, Note_off_c, 0, 44, 50
1, 161984, Note_off_c, 0, 84, 0
1, 161995, Note_on_c, 0, 84, 53
1, 162009, Note_off_c, 0, 90, 62
1, 162030, Note_on_c, 0, 78, 68
1, 162051, Note_off_c, 0, 84, 64
1, 162063, Note_on_c, 0, 37, 72
1, 162108, Note_off_c, 0, 78, 59
1, 162119, Note_on_c, 0, 44, 64
1, 162170, Note_on_c, 0, 49, 69
1, 162176, Note_on_c, 0, 76, 70
1, 162192, Control_c, 0, 64, 95
1, 162207, Control_c, 0, 64, 64
1, 162208, Note_on_c, 0, 80, 73
1, 162222, Control_c, 0, 64, 35
1, 162238, Control_c, 0, 64, 0
1, 162282, Control_c, 0, 64, 37
1, 162283, Note_on_c, 0, 85, 80
1, 162297, Control_c, 0, 64, 55
1, 162312, Control_c, 0, 64, 65
1, 162327, Control_c, 0, 64, 73
1, 162341, Control_c, 0, 64, 87
1, 162356, Control_c, 0, 64, 112
1, 162371, Control_c, 0, 64, 127
1, 162376, Note_on_c, 0, 88, 93
1, 162385, Note_off_c, 0, 37, 61
1, 162429, Note_off_c, 0, 44, 62
1, 162447, Note_off_c, 0, 49, 62
1, 162513, Note_off_c, 0, 85, 50
1, 162515, Note_off_c, 0, 80, 59
1, 162517, Note_off_c, 0, 76, 56
1, 162739, Note_on_c, 0, 80, 48
1, 162747, Note_on_c, 0, 85, 44
1, 162750, Note_on_c, 0, 76, 43
1, 162790, Poly_aftertouch_c, 0, 63, 127
1, 162855, Poly_aftertouch_c, 0, 63, 0
1, 162874, Note_on_c, 0, 64, 58
1, 162892, Note_off_c, 0, 85, 34
1, 162904, Note_on_c, 0, 61, 51
1, 162916, Note_on_c, 0, 68, 56
1, 162921, Note_on_c, 0, 73, 67
1, 162932, Note_off_c, 0, 76, 34
1, 162948, Note_off_c, 0, 73, 68
1, 162951, Note_off_c, 0, 68, 63
1, 162955, Note_off_c, 0, 80, 36
1, 162967, Note_off_c, 0, 64, 64
1, 162988, Note_off_c, 0, 61, 60
1, 163092, Note_on_c, 0, 85, 66
1, 163092, Note_off_c, 0, 88, 62
1, 163118, Note_off_c, 0, 85, 68
1, 163122, Note_on_c, 0, 76, 50
1, 163145, Note_off_c, 0, 76, 58
1, 163209, Note_on_c, 0, 57, 54
1, 163231, Note_on_c, 0, 61, 53
1, 163235, Note_on_c, 0, 64, 60
1, 163274, Note_on_c, 0, 69, 64
1, 163291, Note_on_c, 0, 73, 57
1, 163304, Control_c, 0, 67, 39
1, 163319, Control_c, 0, 64, 89
1, 163319, Control_c, 0, 67, 44
1, 163334, Control_c, 0, 64, 69
1, 163334, Control_c, 0, 67, 50
1, 163335, Note_on_c, 0, 81, 69
1, 163336, Note_on_c, 0, 76, 51
1, 163349, Control_c, 0, 64, 55
1, 163349, Control_c, 0, 67, 56
1, 163363, Control_c, 0, 64, 38
1, 163363, Control_c, 0, 67, 62
1, 163378, Control_c, 0, 64, 0
1, 163378, Control_c, 0, 67, 67
1, 163393, Note_on_c, 0, 85, 81
1, 163393, Control_c, 0, 67, 70
1, 163408, Control_c, 0, 67, 72
1, 163422, Control_c, 0, 64, 39
1, 163422, Control_c, 0, 67, 72
1, 163437, Control_c, 0, 64, 53
1, 163451, Note_off_c, 0, 57, 52
1, 163451, Note_off_c, 0, 76, 60
1, 163452, Control_c, 0, 64, 64
1, 163454, Note_off_c, 0, 73, 57
1, 163467, Control_c, 0, 64, 75
1, 163472, Note_off_c, 0, 69, 37
1, 163479, Note_off_c, 0, 81, 53
1, 163482, Control_c, 0, 64, 96
1, 163482, Control_c, 0, 67, 72
1, 163497, Control_c, 0, 64, 127
1, 163507, Note_off_c, 0, 64, 54
1, 163518, Note_off_c, 0, 61, 56
1, 163556, Control_c, 0, 67, 72
1, 163586, Control_c, 0, 67, 73
1, 163601, Control_c, 0, 67, 74
1, 163615, Control_c, 0, 67, 76
1, 163630, Control_c, 0, 67, 77
1, 163637, Note_on_c, 0, 81, 44
1, 163645, Control_c, 0, 67, 79
1, 163660, Control_c, 0, 67, 89
1, 163667, Note_on_c, 0, 73, 33
1, 163675, Control_c, 0, 67, 108
1, 163689, Control_c, 0, 67, 127
1, 163700, Note_on_c, 0, 58, 48
1, 163721, Note_on_c, 0, 76, 6
1, 163743, Note_on_c, 0, 61, 45
1, 163755, Note_on_c, 0, 64, 54
1, 163763, Control_c, 0, 64, 89
1, 163778, Control_c, 0, 64, 69
1, 163786, Note_off_c, 0, 81, 52
1, 163793, Control_c, 0, 64, 55
1, 163807, Control_c, 0, 64, 47
1, 163810, Note_on_c, 0, 70, 60
1, 163822, Control_c, 0, 64, 47
1, 163835, Note_off_c, 0, 76, 42
1, 163838, Control_c, 0, 64, 51
1, 163853, Control_c, 0, 64, 60
1, 163865, Note_off_c, 0, 73, 35
1, 163868, Control_c, 0, 64, 68
1, 163883, Control_c, 0, 64, 78
1, 163898, Control_c, 0, 64, 96
1, 163901, Note_off_c, 0, 58, 59
1, 163916, Note_off_c, 0, 64, 55
1, 163920, Note_off_c, 0, 61, 63
1, 163920, Control_c, 0, 64, 113
1, 163926, Note_off_c, 0, 85, 58
1, 163935, Control_c, 0, 64, 127
1, 163985, Note_off_c, 0, 70, 62
1, 164084, Note_on_c, 0, 82, 64
1, 164126, Poly_aftertouch_c, 0, 73, 127
1, 164150, Poly_aftertouch_c, 0, 73, 0
1, 164162, Note_off_c, 0, 82, 62
1, 164424, Control_c, 0, 64, 84
1, 164436, Note_on_c, 0, 94, 68
1, 164438, Control_c, 0, 64, 65
1, 164453, Control_c, 0, 64, 50
1, 164460, Note_on_c, 0, 82, 47
1, 164461, Note_on_c, 0, 74, 52
1, 164462, Note_on_c, 0, 86, 51
1, 164468, Note_on_c, 0, 62, 40
1, 164468, Control_c, 0, 64, 32
1, 164470, Note_on_c, 0, 70, 49
1, 164483, Control_c, 0, 64, 0
1, 164491, Note_on_c, 0, 65, 30
1, 164498, Control_c, 0, 64, 30
1, 164512, Control_c, 0, 64, 46
1, 164527, Control_c, 0, 64, 60
1, 164542, Control_c, 0, 64, 72
1, 164556, Control_c, 0, 64, 91
1, 164571, Control_c, 0, 64, 127
1, 164576, Note_off_c, 0, 74, 60
1, 164621, Note_off_c, 0, 70, 58
1, 164634, Note_off_c, 0, 62, 59
1, 164670, Note_off_c, 0, 86, 60
1, 164680, Note_off_c, 0, 65, 42
1, 164698, Note_off_c, 0, 82, 39
1, 164698, Poly_aftertouch_c, 0, 90, 127
1, 164841, Note_on_c, 0, 86, 41
1, 164852, Note_on_c, 0, 82, 49
1, 164984, Note_off_c, 0, 82, 34
1, 165021, Note_off_c, 0, 86, 50
1, 165051, Note_on_c, 0, 34, 58
1, 165065, Note_on_c, 0, 46, 55
1, 165082, Note_off_c, 0, 34, 61
1, 165095, Note_off_c, 0, 46, 62
1, 165265, Note_on_c, 0, 86, 56
1, 165268, Note_on_c, 0, 82, 55
1, 165319, Note_on_c, 0, 58, 67
1, 165350, Note_on_c, 0, 62, 56
1, 165387, Note_on_c, 0, 65, 59
1, 165400, Note_off_c, 0, 82, 51
1, 165414, Note_off_c, 0, 86, 62
1, 165417, Control_c, 0, 67, 119
1, 165426, Note_on_c, 0, 70, 65
1, 165432, Control_c, 0, 67, 98
1, 165447, Control_c, 0, 67, 78
1, 165462, Control_c, 0, 67, 60
1, 165477, Control_c, 0, 67, 41
1, 165481, Note_off_c, 0, 62, 59
1, 165491, Control_c, 0, 67, 0
1, 165499, Note_off_c, 0, 65, 61
1, 165540, Note_off_c, 0, 70, 60
1, 165616, Note_off_c, 0, 58, 32
1, 165645, Note_on_c, 0, 82, 69
1, 165647, Note_on_c, 0, 86, 60
1, 165703, Note_off_c, 0, 94, 55
1, 165724, Poly_aftertouch_c, 0, 90, 0
1, 165727, Note_on_c, 0, 58, 71
1, 165768, Note_on_c, 0, 65, 67
1, 165779, Note_on_c, 0, 62, 21
1, 165809, Note_on_c, 0, 68, 70
1, 165831, Note_off_c, 0, 82, 43
1, 165853, Note_on_c, 0, 70, 76
1, 165960, Note_off_c, 0, 70, 58
1, 165986, Note_off_c, 0, 62, 15
1, 166010, Note_off_c, 0, 58, 53
1, 166033, Note_off_c, 0, 68, 54
1, 166037, Note_off_c, 0, 65, 46
1, 166093, Note_on_c, 0, 92, 91
1, 166105, Note_on_c, 0, 80, 75
1, 166120, Note_on_c, 0, 89, 70
1, 166203, Note_on_c, 0, 58, 71
1, 166224, Note_off_c, 0, 92, 65
1, 166231, Note_on_c, 0, 65, 69
1, 166235, Note_off_c, 0, 89, 63
1, 166239, Note_off_c, 0, 86, 50
1, 166287, Note_off_c, 0, 80, 63
1, 166288, Note_on_c, 0, 68, 68
1, 166335, Note_on_c, 0, 70, 85
1, 166420, Note_off_c, 0, 70, 65
1, 166427, Note_off_c, 0, 58, 57
1, 166464, Note_off_c, 0, 68, 57
1, 166475, Note_off_c, 0, 65, 56
1, 166709, Note_on_c, 0, 89, 93
1, 166722, Note_on_c, 0, 86, 77
1, 166734, Note_on_c, 0, 77, 79
1, 167090, Note_on_c, 0, 39, 82
1, 167093, Control_c, 0, 64, 76
1, 167108, Control_c, 0, 64, 54
1, 167123, Control_c, 0, 64, 0
1, 167167, Control_c, 0, 64, 48
1, 167181, Control_c, 0, 64, 68
1, 167196, Control_c, 0, 64, 98
1, 167211, Control_c, 0, 64, 127
1, 167259, Note_off_c, 0, 89, 61
1, 167292, Note_off_c, 0, 39, 57
1, 167396, Note_off_c, 0, 77, 53
1, 167711, Note_on_c, 0, 92, 95
1, 167727, Note_on_c, 0, 82, 72
1, 167730, Note_on_c, 0, 80, 66
1, 167737, Note_on_c, 0, 88, 51
1, 168024, Note_off_c, 0, 92, 60
1, 168054, Note_off_c, 0, 88, 41
1, 168124, Note_on_c, 0, 59, 60
1, 168136, Note_on_c, 0, 51, 56
1, 168142, Note_on_c, 0, 54, 42
1, 168189, Note_off_c, 0, 80, 62
1, 168207, Note_off_c, 0, 54, 58
1, 168207, Note_off_c, 0, 82, 52
1, 168222, Note_off_c, 0, 51, 61
1, 168308, Note_off_c, 0, 59, 64
1, 168443, Note_on_c, 0, 90, 84
1, 168462, Note_on_c, 0, 78, 67
1, 168467, Note_on_c, 0, 83, 56
1, 168668, Note_off_c, 0, 90, 57
1, 168719, Note_on_c, 0, 71, 52
1, 168733, Note_off_c, 0, 78, 51
1, 168740, Note_on_c, 0, 66, 43
1, 168749, Note_off_c, 0, 86, 47
1, 168752, Note_on_c, 0, 63, 40
1, 168783, Note_off_c, 0, 83, 36
1, 168820, Note_off_c, 0, 71, 57
1, 168827, Note_off_c, 0, 63, 54
1, 168841, Note_off_c, 0, 66, 57
1, 169191, Note_on_c, 0, 87, 68
1, 169229, Note_on_c, 0, 75, 49
1, 169239, Note_on_c, 0, 83, 42
1, 169310, Control_c, 0, 67, 37
1, 169315, Note_off_c, 0, 75, 59
1, 169325, Control_c, 0, 67, 49
1, 169340, Control_c, 0, 67, 65
1, 169354, Control_c, 0, 67, 85
1, 169360, Note_off_c, 0, 83, 41
1, 169369, Control_c, 0, 67, 114
1, 169384, Control_c, 0, 67, 127
1, 169538, Note_off_c, 0, 87, 63
1, 169574, Note_on_c, 0, 35, 51
1, 169601, Poly_aftertouch_c, 0, 88, 0
1, 169700, Note_on_c, 0, 83, 49
1, 169740, Control_c, 0, 64, 122
1, 169755, Control_c, 0, 64, 114
1, 169770, Control_c, 0, 64, 110
1, 169784, Control_c, 0, 64, 105
1, 169796, Note_on_c, 0, 87, 50
1, 169799, Control_c, 0, 64, 102
1, 169814, Control_c, 0, 64, 100
1, 169829, Control_c, 0, 64, 98
1, 169858, Control_c, 0, 64, 95
1, 169873, Control_c, 0, 64, 93
1, 169888, Control_c, 0, 64, 91
1, 169910, Control_c, 0, 64, 90
1, 169918, Note_on_c, 0, 90, 56
1, 169925, Control_c, 0, 64, 88
1, 169940, Control_c, 0, 64, 85
1, 169955, Control_c, 0, 64, 83
1, 169970, Control_c, 0, 64, 81
1, 169984, Control_c, 0, 64, 78
1, 169999, Control_c, 0, 64, 76
1, 170014, Control_c, 0, 64, 73
1, 170029, Control_c, 0, 64, 71
1, 170044, Control_c, 0, 64, 70
1, 170058, Control_c, 0, 64, 70
1, 170073, Control_c, 0, 64, 69
1, 170100, Note_on_c, 0, 95, 81
1, 170103, Control_c, 0, 64, 69
1, 170118, Control_c, 0, 64, 68
1, 170132, Control_c, 0, 64, 68
1, 170147, Control_c, 0, 64, 67
1, 170162, Control_c, 0, 64, 66
1, 170177, Control_c, 0, 64, 65
1, 170192, Control_c, 0, 64, 64
1, 170207, Control_c, 0, 64, 63
1, 170237, Control_c, 0, 64, 63
1, 170267, Control_c, 0, 64, 62
1, 170311, Control_c, 0, 64, 63
1, 170326, Control_c, 0, 64, 64
1, 170341, Control_c, 0, 64, 66
1, 170356, Control_c, 0, 64, 67
1, 170371, Control_c, 0, 64, 68
1, 170386, Control_c, 0, 64, 70
1, 170400, Control_c, 0, 64, 71
1, 170415, Control_c, 0, 64, 74
1, 170430, Control_c, 0, 64, 79
1, 170445, Control_c, 0, 64, 82
1, 170451, Note_on_c, 0, 42, 34
1, 170460, Control_c, 0, 64, 83
1, 170474, Control_c, 0, 64, 84
1, 170504, Control_c, 0, 64, 85
1, 170518, Control_c, 0, 64, 87
1, 170533, Control_c, 0, 64, 89
1, 170534, Note_off_c, 0, 35, 35
1, 170544, Note_off_c, 0, 42, 56
1, 170548, Control_c, 0, 64, 92
1, 170563, Control_c, 0, 64, 94
1, 170578, Control_c, 0, 64, 96
1, 170607, Control_c, 0, 64, 98
1, 170636, Note_on_c, 0, 47, 38
1, 170687, Note_off_c, 0, 47, 58
1, 170797, Note_on_c, 0, 51, 40
1, 170883, Note_off_c, 0, 51, 55
1, 170904, Note_on_c, 0, 54, 43
1, 170925, Control_c, 0, 64, 100
1, 170932, Note_off_c, 0, 54, 57
1, 170970, Control_c, 0, 64, 102
1, 170999, Control_c, 0, 64, 105
1, 171030, Control_c, 0, 64, 107
1, 171074, Control_c, 0, 64, 109
1, 171104, Control_c, 0, 64, 113
1, 171119, Control_c, 0, 64, 117
1, 171134, Control_c, 0, 64, 124
1, 171138, Note_on_c, 0, 63, 40
1, 171148, Control_c, 0, 64, 127
1, 171206, Note_off_c, 0, 63, 58
1, 171247, Note_on_c, 0, 66, 52
1, 171280, Note_off_c, 0, 66, 63
1, 171381, Note_on_c, 0, 71, 46
1, 171503, Note_off_c, 0, 71, 55
1, 171552, Note_on_c, 0, 75, 52
1, 171595, Note_off_c, 0, 75, 60
1, 171642, Note_off_c, 0, 95, 38
1, 171673, Note_on_c, 0, 71, 41
1, 171687, Note_off_c, 0, 83, 49
1, 171748, Note_off_c, 0, 90, 64
1, 171787, Note_off_c, 0, 71, 36
1, 171799, Note_off_c, 0, 87, 63
1, 171858, Note_on_c, 0, 66, 32
1, 171915, Note_off_c, 0, 66, 43
1, 171987, Note_on_c, 0, 63, 35
1, 172070, Note_off_c, 0, 63, 60
1, 172091, Note_on_c, 0, 78, 47
1, 172203, Note_on_c, 0, 87, 37
1, 172232, Note_off_c, 0, 78, 47
1, 172385, Note_on_c, 0, 94, 62
1, 172443, Poly_aftertouch_c, 0, 59, 127
1, 172598, Note_on_c, 0, 54, 30
1, 172651, Poly_aftertouch_c, 0, 59, 0
1, 172844, Note_on_c, 0, 51, 29
1, 172902, Note_off_c, 0, 54, 41
1, 173252, Note_off_c, 0, 51, 32
1, 173286, Note_on_c, 0, 47, 24
1, 173489, Note_off_c, 0, 47, 38
1, 173489, Note_off_c, 0, 87, 33
1, 173589, Note_off_c, 0, 94, 32
1, 174581, Note_on_c, 0, 94, 39
1, 174585, Note_on_c, 0, 82, 34
1, 174590, Note_on_c, 0, 88, 36
1, 174622, Note_on_c, 0, 40, 36
1, 174654, Control_c, 0, 64, 119
1, 174669, Control_c, 0, 64, 107
1, 174684, Control_c, 0, 64, 97
1, 174699, Control_c, 0, 64, 89
1, 174714, Control_c, 0, 64, 79
1, 174729, Control_c, 0, 64, 71
1, 174744, Control_c, 0, 64, 64
1, 174759, Control_c, 0, 64, 60
1, 174773, Control_c, 0, 64, 58
1, 174788, Control_c, 0, 64, 56
1, 174818, Control_c, 0, 64, 58
1, 174833, Control_c, 0, 64, 59
1, 174847, Control_c, 0, 64, 61
1, 174862, Control_c, 0, 64, 63
1, 174877, Control_c, 0, 64, 66
1, 174891, Control_c, 0, 64, 69
1, 174906, Control_c, 0, 64, 73
1, 174921, Control_c, 0, 64, 82
1, 174936, Control_c, 0, 64, 91
1, 174951, Control_c, 0, 64, 97
1, 174960, Note_on_c, 0, 47, 34
1, 174965, Control_c, 0, 64, 103
1, 174980, Control_c, 0, 64, 107
1, 174995, Control_c, 0, 64, 114
1, 175010, Control_c, 0, 64, 127
1, 175048, Note_off_c, 0, 40, 39
1, 175059, Note_off_c, 0, 47, 60
1, 175153, Note_on_c, 0, 52, 44
1, 175205, Note_off_c, 0, 52, 57
1, 175305, Note_on_c, 0, 56, 44
1, 175447, Note_on_c, 0, 59, 54
1, 175457, Note_off_c, 0, 56, 56
1, 175490, Note_off_c, 0, 59, 62
1, 175607, Note_on_c, 0, 64, 57
1, 175724, Note_off_c, 0, 64, 55
1, 175728, Control_c, 0, 67, 124
1, 175743, Control_c, 0, 67, 104
1, 175754, Note_on_c, 0, 68, 65
1, 175758, Control_c, 0, 67, 86
1, 175773, Control_c, 0, 67, 68
1, 175787, Control_c, 0, 67, 50
1, 175802, Control_c, 0, 67, 0
1, 175874, Note_off_c, 0, 82, 38
1, 175894, Note_off_c, 0, 94, 37
1, 175950, Note_on_c, 0, 71, 60
1, 175956, Note_off_c, 0, 88, 38
1, 176090, Note_off_c, 0, 68, 30
1, 176189, Note_off_c, 0, 71, 51
1, 176237, Note_on_c, 0, 92, 57
1, 176240, Note_on_c, 0, 73, 68
1, 176264, Note_on_c, 0, 88, 44
1, 176272, Note_on_c, 0, 80, 41
1, 176294, Note_off_c, 0, 73, 62
1, 176938, Note_off_c, 0, 80, 35
1, 176964, Note_off_c, 0, 88, 41
1, 177003, Note_on_c, 0, 71, 82
1, 177027, Note_on_c, 0, 68, 58
1, 177033, Note_on_c, 0, 64, 59
1, 177040, Note_off_c, 0, 92, 35
1, 177417, Note_off_c, 0, 64, 35
1, 177426, Note_off_c, 0, 68, 51
1, 177549, Note_on_c, 0, 88, 87
1, 177561, Note_on_c, 0, 70, 84
1, 177564, Note_on_c, 0, 68, 72
1, 177576, Note_on_c, 0, 76, 66
1, 177579, Note_on_c, 0, 80, 63
1, 177594, Note_on_c, 0, 64, 55
1, 177856, Note_off_c, 0, 68, 59
1, 177862, Note_off_c, 0, 71, 54
1, 177865, Note_off_c, 0, 64, 61
1, 177930, Note_off_c, 0, 88, 62
1, 177957, Note_off_c, 0, 76, 64
1, 177963, Note_off_c, 0, 80, 62
1, 177972, Note_on_c, 0, 71, 94
1, 177981, Note_on_c, 0, 68, 76
1, 177990, Note_on_c, 0, 64, 72
1, 178003, Note_off_c, 0, 70, 62
1, 178081, Note_off_c, 0, 71, 60
1, 178129, Note_off_c, 0, 68, 58
1, 178148, Note_off_c, 0, 64, 57
1, 178573, Note_on_c, 0, 83, 95
1, 178592, Note_on_c, 0, 80, 71
1, 178592, Note_on_c, 0, 71, 75
1, 178607, Note_on_c, 0, 39, 76
1, 178679, Control_c, 0, 64, 95
1, 178694, Control_c, 0, 64, 67
1, 178709, Control_c, 0, 64, 46
1, 178724, Control_c, 0, 64, 0
1, 178798, Control_c, 0, 64, 58
1, 178813, Control_c, 0, 64, 77
1, 178828, Control_c, 0, 64, 127
1, 178887, Note_off_c, 0, 39, 61
1, 178910, Note_on_c, 0, 51, 64
1, 178940, Note_off_c, 0, 51, 63
1, 179054, Note_off_c, 0, 83, 61
1, 179111, Note_on_c, 0, 59, 69
1, 179171, Note_off_c, 0, 80, 66
1, 179323, Note_on_c, 0, 85, 81
1, 179358, Note_on_c, 0, 78, 59
1, 179365, Note_on_c, 0, 63, 64
1, 179433, Note_off_c, 0, 71, 41
1, 179486, Note_off_c, 0, 85, 66
1, 179493, Note_off_c, 0, 78, 46
1, 179543, Note_on_c, 0, 83, 89
1, 179561, Note_on_c, 0, 78, 44
1, 179568, Note_on_c, 0, 66, 71
1, 179588, Note_off_c, 0, 78, 51
1, 179637, Note_off_c, 0, 83, 59
1, 179692, Note_on_c, 0, 82, 88
1, 179716, Note_on_c, 0, 71, 71
1, 179718, Note_on_c, 0, 83, 52
1, 179737, Note_off_c, 0, 59, 61
1, 179737, Note_off_c, 0, 63, 55
1, 179747, Note_off_c, 0, 83, 54
1, 179770, Note_off_c, 0, 66, 59
1, 179778, Note_off_c, 0, 71, 53
1, 179784, Note_off_c, 0, 82, 57
1, 179820, Note_on_c, 0, 83, 90
1, 179848, Note_on_c, 0, 63, 75
1, 179865, Note_off_c, 0, 83, 67
1, 179923, Note_on_c, 0, 71, 76
1, 179955, Note_on_c, 0, 78, 71
1, 180065, Note_on_c, 0, 83, 57
1, 180118, Note_off_c, 0, 78, 55
1, 180133, Poly_aftertouch_c, 0, 84, 127
1, 180200, Note_on_c, 0, 92, 91
1, 180326, Poly_aftertouch_c, 0, 84, 0
1, 180339, Note_off_c, 0, 83, 61
1, 180637, Note_off_c, 0, 71, 51
1, 180688, Note_on_c, 0, 90, 89
1, 180905, Note_off_c, 0, 63, 55
1, 181022, Note_on_c, 0, 87, 90
1, 181064, Note_off_c, 0, 92, 54
1, 181272, Note_off_c, 0, 90, 48
1, 181329, Note_on_c, 0, 83, 93
1, 181406, Note_off_c, 0, 87, 61
1, 181487, Note_on_c, 0, 50, 80
1, 181645, Control_c, 0, 64, 124
1, 181660, Control_c, 0, 64, 88
1, 181675, Control_c, 0, 64, 74
1, 181689, Control_c, 0, 64, 64
1, 181704, Control_c, 0, 64, 55
1, 181719, Control_c, 0, 64, 46
1, 181734, Control_c, 0, 64, 37
1, 181749, Control_c, 0, 64, 29
1, 181764, Control_c, 0, 64, 0
1, 181856, Note_on_c, 0, 56, 81
1, 181868, Control_c, 0, 64, 34
1, 181889, Control_c, 0, 64, 45
1, 181904, Control_c, 0, 64, 57
1, 181920, Control_c, 0, 64, 64
1, 181935, Control_c, 0, 64, 71
1, 181950, Control_c, 0, 64, 77
1, 181960, Note_off_c, 0, 83, 52
1, 181964, Control_c, 0, 64, 83
1, 181979, Control_c, 0, 64, 90
1, 181994, Control_c, 0, 64, 98
1, 182008, Control_c, 0, 64, 115
1, 182023, Control_c, 0, 64, 127
1, 182485, Note_on_c, 0, 83, 68
1, 182526, Note_on_c, 0, 78, 44
1, 182530, Note_on_c, 0, 81, 24
1, 182530, Note_on_c, 0, 71, 46
1, 182566, Note_off_c, 0, 81, 52
1, 182811, Note_off_c, 0, 56, 58
1, 182898, Note_on_c, 0, 58, 63
1, 183142, Note_off_c, 0, 58, 59
1, 183175, Note_off_c, 0, 78, 29
1, 183203, Note_on_c, 0, 56, 68
1, 183300, Note_off_c, 0, 71, 29
1, 183430, Note_on_c, 0, 55, 66
1, 183433, Note_on_c, 0, 78, 57
1, 183438, Note_on_c, 0, 71, 49
1, 183438, Note_off_c, 0, 56, 41
1, 183492, Control_c, 0, 64, 109
1, 183507, Control_c, 0, 64, 83
1, 183522, Control_c, 0, 64, 65
1, 183536, Control_c, 0, 64, 50
1, 183551, Control_c, 0, 64, 37
1, 183566, Control_c, 0, 64, 30
1, 183580, Control_c, 0, 64, 0
1, 183590, Note_off_c, 0, 55, 62
1, 183622, Note_on_c, 0, 56, 65
1, 183625, Control_c, 0, 64, 29
1, 183640, Control_c, 0, 64, 34
1, 183654, Control_c, 0, 64, 40
1, 183669, Control_c, 0, 64, 44
1, 183684, Control_c, 0, 64, 46
1, 183758, Control_c, 0, 64, 47
1, 183773, Control_c, 0, 64, 50
1, 183788, Control_c, 0, 64, 54
1, 183804, Control_c, 0, 64, 59
1, 183819, Control_c, 0, 64, 62
1, 183833, Control_c, 0, 64, 64
1, 183848, Control_c, 0, 64, 65
1, 183863, Control_c, 0, 64, 65
1, 183877, Control_c, 0, 64, 66
1, 183892, Control_c, 0, 64, 67
1, 183907, Control_c, 0, 64, 67
1, 183937, Control_c, 0, 64, 68
1, 183952, Control_c, 0, 64, 69
1, 183967, Note_on_c, 0, 66, 64
1, 183967, Control_c, 0, 64, 70
1, 183982, Control_c, 0, 64, 71
1, 183997, Control_c, 0, 64, 74
1, 184010, Note_off_c, 0, 71, 34
1, 184011, Control_c, 0, 64, 77
1, 184026, Control_c, 0, 64, 81
1, 184031, Note_off_c, 0, 83, 44
1, 184041, Control_c, 0, 64, 85
1, 184052, Note_off_c, 0, 56, 55
1, 184056, Control_c, 0, 64, 91
1, 184071, Control_c, 0, 64, 99
1, 184085, Control_c, 0, 64, 113
1, 184100, Control_c, 0, 64, 127
1, 184282, Note_off_c, 0, 78, 36
1, 184488, Note_on_c, 0, 82, 62
1, 184520, Note_on_c, 0, 70, 49
1, 184521, Note_on_c, 0, 78, 45
1, 184720, Note_off_c, 0, 78, 53
1, 184749, Note_off_c, 0, 70, 50
1, 184843, Note_off_c, 0, 66, 39
1, 184858, Note_on_c, 0, 78, 46
1, 184896, Note_on_c, 0, 70, 39
1, 185042, Note_off_c, 0, 78, 44
1, 185061, Note_off_c, 0, 70, 53
1, 185201, Note_on_c, 0, 56, 41
1, 185226, Note_on_c, 0, 78, 34
1, 185239, Note_off_c, 0, 56, 62
1, 185254, Note_off_c, 0, 50, 62
1, 185258, Note_on_c, 0, 70, 31
1, 185270, Control_c, 0, 67, 37
1, 185285, Control_c, 0, 67, 56
1, 185299, Control_c, 0, 67, 89
1, 185302, Poly_aftertouch_c, 0, 80, 127
1, 185314, Control_c, 0, 67, 120
1, 185329, Control_c, 0, 67, 127
1, 185369, Note_off_c, 0, 82, 49
1, 185410, Note_off_c, 0, 70, 55
1, 185445, Poly_aftertouch_c, 0, 80, 0
1, 185448, Note_on_c, 0, 37, 31
1, 185456, Note_off_c, 0, 78, 27
1, 185487, Note_off_c, 0, 37, 0
1, 185487, Note_on_c, 0, 37, 12
1, 185509, Note_on_c, 0, 36, 28
1, 185523, Note_on_c, 0, 69, 50
1, 185551, Note_off_c, 0, 36, 52
1, 185602, Note_on_c, 0, 78, 52
1, 185634, Control_c, 0, 64, 109
1, 185649, Control_c, 0, 64, 87
1, 185664, Control_c, 0, 64, 74
1, 185679, Control_c, 0, 64, 62
1, 185694, Control_c, 0, 64, 49
1, 185709, Control_c, 0, 64, 36
1, 185711, Note_on_c, 0, 81, 77
1, 185724, Control_c, 0, 64, 33
1, 185738, Control_c, 0, 64, 36
1, 185753, Control_c, 0, 64, 44
1, 185768, Control_c, 0, 64, 55
1, 185782, Control_c, 0, 64, 63
1, 185797, Control_c, 0, 64, 70
1, 185812, Control_c, 0, 64, 81
1, 185827, Control_c, 0, 64, 92
1, 185842, Control_c, 0, 64, 104
1, 185857, Control_c, 0, 64, 127
1, 185897, Note_on_c, 0, 49, 44
1, 185901, Note_off_c, 0, 37, 38
1, 185955, Note_off_c, 0, 49, 62
1, 186083, Note_off_c, 0, 81, 61
1, 186182, Note_on_c, 0, 57, 52
1, 186225, Note_off_c, 0, 69, 34
1, 186414, Note_on_c, 0, 83, 59
1, 186461, Note_on_c, 0, 61, 47
1, 186503, Poly_aftertouch_c, 0, 76, 127
1, 186514, Note_off_c, 0, 78, 57
1, 186529, Poly_aftertouch_c, 0, 76, 0
1, 186575, Note_off_c, 0, 57, 46
1, 186610, Note_on_c, 0, 81, 72
1, 186684, Note_on_c, 0, 64, 58
1, 186760, Note_off_c, 0, 61, 57
1, 186763, Note_on_c, 0, 80, 75
1, 186792, Note_off_c, 0, 83, 57
1, 186805, Note_off_c, 0, 81, 58
1, 186808, Note_off_c, 0, 64, 62
1, 186851, Poly_aftertouch_c, 0, 69, 127
1, 186879, Poly_aftertouch_c, 0, 69, 0
1, 186897, Note_off_c, 0, 80, 56
1, 186904, Note_on_c, 0, 81, 74
1, 186910, Note_on_c, 0, 61, 52
1, 186942, Note_off_c, 0, 81, 63
1, 187013, Note_on_c, 0, 69, 48
1, 187016, Note_on_c, 0, 76, 56
1, 187106, Note_on_c, 0, 81, 45
1, 187270, Note_on_c, 0, 90, 68
1, 187440, Note_off_c, 0, 81, 64
1, 187451, Poly_aftertouch_c, 0, 77, 127
1, 187487, Note_off_c, 0, 69, 40
1, 187510, Note_off_c, 0, 76, 39
1, 187539, Poly_aftertouch_c, 0, 77, 0
1, 187711, Note_off_c, 0, 61, 31
1, 187729, Note_on_c, 0, 88, 75
1, 188047, Note_on_c, 0, 85, 79
1, 188145, Note_off_c, 0, 90, 34
1, 188176, Poly_aftertouch_c, 0, 87, 127
1, 188347, Note_off_c, 0, 88, 29
1, 188355, Note_on_c, 0, 81, 79
1, 188516, Note_on_c, 0, 48, 72
1, 188689, Control_c, 0, 64, 124
1, 188703, Control_c, 0, 64, 107
1, 188718, Control_c, 0, 64, 99
1, 188733, Control_c, 0, 64, 93
1, 188748, Control_c, 0, 64, 88
1, 188763, Control_c, 0, 64, 83
1, 188778, Control_c, 0, 64, 78
1, 188793, Control_c, 0, 64, 72
1, 188807, Control_c, 0, 64, 66
1, 188822, Control_c, 0, 64, 61
1, 188835, Note_on_c, 0, 54, 71
1, 188837, Control_c, 0, 64, 57
1, 188844, Poly_aftertouch_c, 0, 87, 0
1, 188852, Control_c, 0, 64, 52
1, 188867, Control_c, 0, 64, 48
1, 188881, Control_c, 0, 64, 45
1, 188896, Control_c, 0, 64, 44
1, 188911, Control_c, 0, 64, 47
1, 188926, Control_c, 0, 64, 53
1, 188941, Control_c, 0, 64, 61
1, 188955, Control_c, 0, 64, 67
1, 188956, Note_off_c, 0, 81, 54
1, 188970, Control_c, 0, 64, 74
1, 188985, Control_c, 0, 64, 83
1, 188999, Control_c, 0, 64, 93
1, 189007, Note_off_c, 0, 85, 11
1, 189014, Control_c, 0, 64, 101
1, 189029, Control_c, 0, 64, 111
1, 189044, Control_c, 0, 64, 127
1, 189396, Note_on_c, 0, 81, 67
1, 189426, Note_on_c, 0, 76, 41
1, 189455, Note_on_c, 0, 69, 35
1, 189551, Note_off_c, 0, 54, 60
1, 189806, Note_on_c, 0, 56, 62
1, 190011, Note_off_c, 0, 56, 57
1, 190121, Note_on_c, 0, 54, 62
1, 190149, Note_off_c, 0, 69, 30
1, 190179, Note_off_c, 0, 76, 31
1, 190230, Note_off_c, 0, 54, 61
1, 190341, Note_on_c, 0, 53, 60
1, 190345, Note_on_c, 0, 76, 56
1, 190379, Note_on_c, 0, 69, 43
1, 190409, Control_c, 0, 64, 119
1, 190423, Control_c, 0, 64, 92
1, 190438, Control_c, 0, 64, 74
1, 190453, Control_c, 0, 64, 61
1, 190468, Control_c, 0, 64, 48
1, 190483, Control_c, 0, 64, 33
1, 190498, Control_c, 0, 64, 0
1, 190528, Note_off_c, 0, 53, 60
1, 190532, Note_on_c, 0, 54, 60
1, 190542, Control_c, 0, 64, 31
1, 190557, Control_c, 0, 64, 39
1, 190571, Control_c, 0, 64, 49
1, 190586, Control_c, 0, 64, 57
1, 190601, Control_c, 0, 64, 62
1, 190616, Control_c, 0, 64, 65
1, 190631, Control_c, 0, 64, 68
1, 190645, Control_c, 0, 64, 71
1, 190660, Control_c, 0, 64, 73
1, 190675, Control_c, 0, 64, 75
1, 190690, Control_c, 0, 64, 76
1, 190705, Control_c, 0, 64, 77
1, 190719, Control_c, 0, 64, 78
1, 190734, Control_c, 0, 64, 81
1, 190749, Control_c, 0, 64, 84
1, 190763, Control_c, 0, 64, 88
1, 190774, Note_off_c, 0, 69, 32
1, 190778, Control_c, 0, 64, 92
1, 190780, Note_off_c, 0, 81, 54
1, 190793, Control_c, 0, 64, 95
1, 190808, Control_c, 0, 64, 98
1, 190823, Control_c, 0, 64, 101
1, 190828, Note_on_c, 0, 64, 61
1, 190838, Control_c, 0, 64, 103
1, 190907, Note_off_c, 0, 54, 32
1, 190978, Control_c, 0, 64, 105
1, 190981, Note_off_c, 0, 76, 37
1, 191024, Control_c, 0, 64, 108
1, 191054, Control_c, 0, 64, 110
1, 191098, Control_c, 0, 64, 112
1, 191380, Note_on_c, 0, 80, 67
1, 191410, Note_on_c, 0, 76, 47
1, 191415, Note_on_c, 0, 68, 42
1, 191424, Control_c, 0, 64, 102
1, 191439, Control_c, 0, 64, 93
1, 191454, Control_c, 0, 64, 84
1, 191468, Control_c, 0, 64, 78
1, 191483, Control_c, 0, 64, 74
1, 191498, Control_c, 0, 64, 73
1, 191528, Control_c, 0, 64, 74
1, 191542, Control_c, 0, 64, 77
1, 191557, Control_c, 0, 64, 81
1, 191572, Control_c, 0, 64, 87
1, 191586, Control_c, 0, 64, 94
1, 191601, Control_c, 0, 64, 105
1, 191607, Note_off_c, 0, 76, 49
1, 191624, Control_c, 0, 64, 127
1, 191667, Note_off_c, 0, 68, 34
1, 191741, Note_off_c, 0, 64, 39
1, 191783, Note_on_c, 0, 76, 37
1, 191795, Note_on_c, 0, 68, 28
1, 191989, Note_off_c, 0, 76, 40
1, 192016, Note_off_c, 0, 68, 36
1, 192132, Note_on_c, 0, 54, 34
1, 192137, Note_on_c, 0, 76, 33
1, 192146, Note_on_c, 0, 68, 31
1, 192171, Note_off_c, 0, 54, 62
1, 192209, Note_off_c, 0, 48, 48
1, 192269, Poly_aftertouch_c, 0, 78, 127
1, 192311, Note_off_c, 0, 80, 49
1, 192367, Note_off_c, 0, 76, 43
1, 192395, Note_off_c, 0, 68, 59
1, 192444, Poly_aftertouch_c, 0, 78, 0
1, 192462, Note_on_c, 0, 35, 41
1, 192534, Note_on_c, 0, 67, 38
1, 192580, Control_c, 0, 64, 110
1, 192596, Control_c, 0, 64, 99
1, 192611, Control_c, 0, 64, 91
1, 192626, Control_c, 0, 64, 86
1, 192630, Note_on_c, 0, 76, 41
1, 192640, Control_c, 0, 64, 81
1, 192655, Control_c, 0, 64, 78
1, 192670, Control_c, 0, 64, 74
1, 192685, Control_c, 0, 64, 69
1, 192700, Control_c, 0, 64, 66
1, 192714, Control_c, 0, 64, 63
1, 192729, Control_c, 0, 64, 61
1, 192744, Control_c, 0, 64, 59
1, 192746, Note_on_c, 0, 79, 60
1, 192759, Control_c, 0, 64, 57
1, 192788, Control_c, 0, 64, 58
1, 192803, Control_c, 0, 64, 61
1, 192818, Control_c, 0, 64, 64
1, 192833, Control_c, 0, 64, 69
1, 192847, Control_c, 0, 64, 76
1, 192862, Control_c, 0, 64, 87
1, 192877, Control_c, 0, 64, 102
1, 192892, Control_c, 0, 64, 127
1, 192930, Note_off_c, 0, 35, 34
1, 193000, Note_on_c, 0, 47, 40
1, 193031, Note_off_c, 0, 47, 59
1, 193106, Note_off_c, 0, 79, 63
1, 193260, Note_off_c, 0, 67, 41
1, 193263, Note_on_c, 0, 55, 43
1, 193467, Note_on_c, 0, 81, 52
1, 193510, Note_on_c, 0, 59, 46
1, 193577, Note_off_c, 0, 76, 41
1, 193580, Poly_aftertouch_c, 0, 74, 0
1, 193662, Note_on_c, 0, 79, 55
1, 193718, Note_off_c, 0, 55, 32
1, 193732, Note_on_c, 0, 62, 47
1, 193764, Note_off_c, 0, 59, 39
1, 193808, Note_on_c, 0, 78, 59
1, 193820, Note_off_c, 0, 79, 53
1, 193830, Note_off_c, 0, 81, 49
1, 193866, Note_on_c, 0, 67, 40
1, 193932, Note_off_c, 0, 67, 54
1, 193947, Note_off_c, 0, 78, 54
1, 193948, Note_off_c, 0, 62, 36
1, 193967, Note_on_c, 0, 79, 58
1, 194007, Note_off_c, 0, 79, 62
1, 194029, Note_on_c, 0, 59, 44
1, 194092, Note_on_c, 0, 74, 51
1, 194105, Note_on_c, 0, 67, 46
1, 194169, Note_on_c, 0, 79, 39
1, 194249, Note_off_c, 0, 74, 31
1, 194313, Note_off_c, 0, 67, 31
1, 194351, Note_on_c, 0, 88, 56
1, 194519, Note_off_c, 0, 79, 45
1, 194548, Note_off_c, 0, 59, 38
1, 194871, Note_on_c, 0, 86, 59
1, 195205, Note_on_c, 0, 83, 60
1, 195470, Note_off_c, 0, 88, 32
1, 195532, Note_on_c, 0, 79, 50
1, 195682, Note_on_c, 0, 46, 53
1, 195813, Control_c, 0, 64, 124
1, 195828, Control_c, 0, 64, 112
1, 195843, Control_c, 0, 64, 105
1, 195858, Control_c, 0, 64, 101
1, 195873, Control_c, 0, 64, 97
1, 195887, Control_c, 0, 64, 93
1, 195902, Control_c, 0, 64, 89
1, 195917, Control_c, 0, 64, 86
1, 195932, Control_c, 0, 64, 82
1, 195947, Control_c, 0, 64, 78
1, 195962, Control_c, 0, 64, 74
1, 195977, Control_c, 0, 64, 70
1, 195991, Control_c, 0, 64, 66
1, 196006, Control_c, 0, 64, 63
1, 196021, Control_c, 0, 64, 61
1, 196022, Note_on_c, 0, 52, 67
1, 196036, Control_c, 0, 64, 58
1, 196051, Control_c, 0, 64, 57
1, 196080, Control_c, 0, 64, 57
1, 196087, Note_off_c, 0, 86, 25
1, 196095, Control_c, 0, 64, 59
1, 196117, Control_c, 0, 64, 62
1, 196132, Control_c, 0, 64, 65
1, 196147, Control_c, 0, 64, 72
1, 196162, Control_c, 0, 64, 81
1, 196177, Control_c, 0, 64, 92
1, 196191, Control_c, 0, 64, 102
1, 196206, Control_c, 0, 64, 112
1, 196221, Control_c, 0, 64, 127
1, 196233, Note_off_c, 0, 83, 39
1, 196242, Note_off_c, 0, 79, 39
1, 196692, Note_on_c, 0, 79, 52
1, 196722, Note_on_c, 0, 67, 46
1, 196740, Note_on_c, 0, 74, 29
1, 197110, Note_on_c, 0, 54, 54
1, 197216, Note_off_c, 0, 52, 32
1, 197295, Note_off_c, 0, 67, 21
1, 197393, Note_off_c, 0, 74, 25
1, 197429, Note_on_c, 0, 52, 51
1, 197449, Note_off_c, 0, 54, 54
1, 197658, Note_on_c, 0, 74, 49
1, 197661, Note_on_c, 0, 51, 50
1, 197662, Note_off_c, 0, 52, 33
1, 197681, Note_on_c, 0, 67, 46
1, 197689, Control_c, 0, 64, 108
1, 197704, Control_c, 0, 64, 83
1, 197718, Control_c, 0, 64, 66
1, 197733, Control_c, 0, 64, 52
1, 197748, Control_c, 0, 64, 38
1, 197762, Control_c, 0, 64, 0
1, 197822, Control_c, 0, 64, 37
1, 197823, Note_off_c, 0, 51, 50
1, 197837, Control_c, 0, 64, 51
1, 197852, Control_c, 0, 64, 62
1, 197864, Note_on_c, 0, 52, 46
1, 197867, Control_c, 0, 64, 70
1, 197882, Control_c, 0, 64, 81
1, 197897, Control_c, 0, 64, 87
1, 197911, Control_c, 0, 64, 92
1, 197926, Control_c, 0, 64, 98
1, 197941, Control_c, 0, 64, 103
1, 197955, Control_c, 0, 64, 108
1, 197967, Note_off_c, 0, 46, 56
1, 197970, Control_c, 0, 64, 112
1, 197985, Control_c, 0, 64, 115
1, 198000, Control_c, 0, 64, 118
1, 198029, Control_c, 0, 64, 120
1, 198044, Control_c, 0, 64, 122
1, 198059, Control_c, 0, 64, 124
1, 198193, Control_c, 0, 64, 122
1, 198213, Note_on_c, 0, 62, 49
1, 198223, Control_c, 0, 64, 120
1, 198238, Control_c, 0, 64, 115
1, 198252, Control_c, 0, 64, 105
1, 198267, Control_c, 0, 64, 94
1, 198282, Control_c, 0, 64, 85
1, 198292, Note_off_c, 0, 79, 59
1, 198297, Control_c, 0, 64, 79
1, 198312, Control_c, 0, 64, 78
1, 198313, Note_off_c, 0, 67, 41
1, 198341, Control_c, 0, 64, 79
1, 198364, Control_c, 0, 64, 80
1, 198379, Control_c, 0, 64, 83
1, 198394, Control_c, 0, 64, 87
1, 198409, Control_c, 0, 64, 91
1, 198424, Control_c, 0, 64, 95
1, 198426, Note_off_c, 0, 74, 32
1, 198439, Control_c, 0, 64, 98
1, 198454, Control_c, 0, 64, 100
1, 198468, Control_c, 0, 64, 102
1, 198498, Control_c, 0, 64, 105
1, 198542, Control_c, 0, 64, 107
1, 198794, Control_c, 0, 64, 109
1, 198813, Note_on_c, 0, 78, 44
1, 198839, Note_on_c, 0, 66, 32
1, 198841, Note_on_c, 0, 74, 40
1, 198868, Control_c, 0, 64, 111
1, 198883, Control_c, 0, 64, 113
1, 198898, Control_c, 0, 64, 118
1, 198912, Control_c, 0, 64, 127
1, 199020, Note_off_c, 0, 66, 40
1, 199022, Note_off_c, 0, 62, 42
1, 199032, Note_off_c, 0, 74, 41
1, 199126, Note_off_c, 0, 52, 36
1, 199211, Note_on_c, 0, 74, 38
1, 199232, Note_on_c, 0, 66, 40
1, 199433, Note_off_c, 0, 74, 36
1, 199441, Note_off_c, 0, 66, 35
1, 199605, Note_on_c, 0, 74, 21
1, 199620, Note_on_c, 0, 52, 36
1, 199627, Note_on_c, 0, 66, 30
1, 199670, Note_off_c, 0, 52, 60
1, 199764, Note_off_c, 0, 74, 43
1, 199847, Note_off_c, 0, 78, 52
1, 199878, Note_off_c, 0, 66, 36
1, 199984, Note_on_c, 0, 33, 37
1, 200076, Note_on_c, 0, 65, 38
1, 200128, Control_c, 0, 64, 112
1, 200143, Control_c, 0, 64, 107
1, 200157, Control_c, 0, 64, 103
1, 200172, Control_c, 0, 64, 99
1, 200178, Note_on_c, 0, 74, 43
1, 200187, Control_c, 0, 64, 95
1, 200202, Control_c, 0, 64, 90
1, 200217, Control_c, 0, 64, 85
1, 200231, Control_c, 0, 64, 78
1, 200246, Control_c, 0, 64, 69
1, 200261, Control_c, 0, 64, 62
1, 200275, Control_c, 0, 64, 57
1, 200284, Note_on_c, 0, 77, 53
1, 200290, Control_c, 0, 64, 56
1, 200305, Control_c, 0, 64, 57
1, 200320, Control_c, 0, 64, 60
1, 200335, Control_c, 0, 64, 64
1, 200350, Control_c, 0, 64, 68
1, 200365, Control_c, 0, 64, 75
1, 200380, Control_c, 0, 64, 85
1, 200395, Control_c, 0, 64, 92
1, 200409, Control_c, 0, 64, 99
1, 200424, Control_c, 0, 64, 107
1, 200439, Control_c, 0, 64, 122
1, 200441, Note_off_c, 0, 33, 34
1, 200454, Control_c, 0, 64, 127
1, 200525, Note_on_c, 0, 45, 17
1, 200568, Note_off_c, 0, 45, 37
1, 200648, Note_off_c, 0, 77, 62
1, 200727, Note_off_c, 0, 65, 41
1, 200773, Note_on_c, 0, 53, 41
1, 200990, Note_on_c, 0, 79, 45
1, 200997, Note_on_c, 0, 57, 34
1, 201009, Note_on_c, 0, 72, 17
1, 201044, Note_off_c, 0, 53, 30
1, 201048, Note_off_c, 0, 74, 40
1, 201068, Note_off_c, 0, 72, 45
1, 201170, Note_on_c, 0, 77, 58
1, 201190, Note_off_c, 0, 57, 43
1, 201198, Note_on_c, 0, 60, 44
1, 201304, Note_off_c, 0, 77, 56
1, 201313, Note_off_c, 0, 79, 53
1, 201316, Note_on_c, 0, 76, 57
1, 201359, Note_on_c, 0, 65, 45
1, 201415, Note_off_c, 0, 65, 53
1, 201437, Note_off_c, 0, 76, 63
1, 201448, Note_off_c, 0, 60, 29
1, 201480, Note_on_c, 0, 77, 46
1, 201502, Note_on_c, 0, 57, 38
1, 201510, Note_off_c, 0, 77, 65
1, 201590, Note_on_c, 0, 72, 45
1, 201594, Note_on_c, 0, 65, 37
1, 201667, Note_on_c, 0, 77, 47
1, 201671, Note_off_c, 0, 65, 49
1, 201695, Note_off_c, 0, 57, 39
1, 201748, Note_off_c, 0, 72, 32
1, 201831, Note_on_c, 0, 86, 54
1, 202039, Note_off_c, 0, 77, 37
1, 202323, Note_on_c, 0, 84, 54
1, 202651, Note_on_c, 0, 81, 46
1, 202971, Note_on_c, 0, 77, 49
1, 203070, Note_off_c, 0, 86, 43
1, 203142, Note_on_c, 0, 44, 51
1, 203300, Control_c, 0, 64, 117
1, 203315, Control_c, 0, 64, 106
1, 203330, Control_c, 0, 64, 98
1, 203345, Control_c, 0, 64, 91
1, 203360, Control_c, 0, 64, 83
1, 203374, Control_c, 0, 64, 75
1, 203389, Control_c, 0, 64, 65
1, 203404, Control_c, 0, 64, 59
1, 203408, Note_on_c, 0, 50, 63
1, 203419, Control_c, 0, 64, 55
1, 203434, Control_c, 0, 64, 54
1, 203448, Control_c, 0, 64, 55
1, 203463, Control_c, 0, 64, 58
1, 203478, Control_c, 0, 64, 62
1, 203489, Note_off_c, 0, 84, 45
1, 203492, Control_c, 0, 64, 68
1, 203507, Control_c, 0, 64, 76
1, 203522, Control_c, 0, 64, 87
1, 203537, Control_c, 0, 64, 96
1, 203552, Control_c, 0, 64, 103
1, 203566, Control_c, 0, 64, 111
1, 203581, Control_c, 0, 64, 122
1, 203590, Note_off_c, 0, 81, 58
1, 203604, Control_c, 0, 64, 127
1, 203628, Note_off_c, 0, 77, 38
1, 204019, Note_on_c, 0, 77, 52
1, 204039, Note_on_c, 0, 72, 40
1, 204072, Note_on_c, 0, 65, 32
1, 204446, Note_on_c, 0, 52, 53
1, 204554, Note_off_c, 0, 50, 45
1, 204738, Note_off_c, 0, 72, 28
1, 204744, Note_on_c, 0, 50, 61
1, 204753, Control_c, 0, 64, 124
1, 204768, Control_c, 0, 64, 122
1, 204783, Control_c, 0, 64, 120
1, 204831, Note_off_c, 0, 65, 32
1, 204836, Note_off_c, 0, 52, 55
1, 204976, Control_c, 0, 64, 116
1, 204978, Note_on_c, 0, 49, 55
1, 204981, Note_on_c, 0, 72, 51
1, 204982, Note_on_c, 0, 65, 47
1, 204991, Control_c, 0, 64, 112
1, 205006, Control_c, 0, 64, 107
1, 205012, Note_off_c, 0, 50, 60
1, 205020, Control_c, 0, 64, 99
1, 205035, Control_c, 0, 64, 91
1, 205050, Control_c, 0, 64, 81
1, 205064, Control_c, 0, 64, 71
1, 205079, Control_c, 0, 64, 62
1, 205101, Control_c, 0, 64, 53
1, 205116, Control_c, 0, 64, 42
1, 205132, Control_c, 0, 64, 32
1, 205161, Control_c, 0, 64, 33
1, 205173, Note_off_c, 0, 49, 62
1, 205176, Control_c, 0, 64, 38
1, 205191, Control_c, 0, 64, 47
1, 205196, Note_on_c, 0, 50, 60
1, 205206, Control_c, 0, 64, 57
1, 205221, Control_c, 0, 64, 63
1, 205236, Control_c, 0, 64, 70
1, 205250, Control_c, 0, 64, 77
1, 205265, Control_c, 0, 64, 84
1, 205278, Note_off_c, 0, 44, 62
1, 205280, Control_c, 0, 64, 91
1, 205295, Control_c, 0, 64, 99
1, 205310, Control_c, 0, 64, 112
1, 205324, Note_off_c, 0, 50, 63
1, 205325, Control_c, 0, 64, 127
1, 205630, Note_on_c, 0, 60, 57
1, 205674, Note_on_c, 0, 56, 42
1, 205695, Control_c, 0, 64, 112
1, 205710, Control_c, 0, 64, 96
1, 205725, Control_c, 0, 64, 84
1, 205740, Control_c, 0, 64, 71
1, 205755, Control_c, 0, 64, 63
1, 205769, Control_c, 0, 64, 58
1, 205784, Control_c, 0, 64, 57
1, 205799, Control_c, 0, 64, 58
1, 205814, Control_c, 0, 64, 60
1, 205829, Control_c, 0, 64, 62
1, 205851, Control_c, 0, 64, 65
1, 205866, Control_c, 0, 64, 68
1, 205880, Control_c, 0, 64, 72
1, 205889, Note_off_c, 0, 72, 52
1, 205894, Control_c, 0, 64, 77
1, 205909, Control_c, 0, 64, 81
1, 205918, Note_off_c, 0, 77, 36
1, 205924, Control_c, 0, 64, 83
1, 205939, Control_c, 0, 64, 86
1, 205954, Control_c, 0, 64, 89
1, 205969, Control_c, 0, 64, 92
1, 205984, Control_c, 0, 64, 96
1, 205999, Control_c, 0, 64, 101
1, 206014, Control_c, 0, 64, 107
1, 206028, Control_c, 0, 64, 113
1, 206043, Control_c, 0, 64, 127
1, 206093, Note_off_c, 0, 65, 36
1, 206321, Note_on_c, 0, 76, 52
1, 206338, Note_on_c, 0, 72, 42
1, 206357, Note_on_c, 0, 64, 32
1, 206365, Note_on_c, 0, 68, 22
1, 206385, Control_c, 0, 64, 109
1, 206399, Control_c, 0, 64, 96
1, 206414, Control_c, 0, 64, 85
1, 206429, Control_c, 0, 64, 76
1, 206444, Control_c, 0, 64, 68
1, 206459, Control_c, 0, 64, 63
1, 206473, Control_c, 0, 64, 62
1, 206488, Control_c, 0, 64, 63
1, 206503, Control_c, 0, 64, 64
1, 206517, Control_c, 0, 64, 68
1, 206532, Control_c, 0, 64, 73
1, 206547, Control_c, 0, 64, 82
1, 206562, Control_c, 0, 64, 90
1, 206577, Control_c, 0, 64, 97
1, 206599, Control_c, 0, 64, 105
1, 206601, Note_off_c, 0, 72, 32
1, 206614, Control_c, 0, 64, 114
1, 206621, Note_off_c, 0, 68, 35
1, 206629, Control_c, 0, 64, 127
1, 206643, Note_off_c, 0, 64, 37
1, 206794, Note_on_c, 0, 72, 39
1, 206807, Note_on_c, 0, 68, 26
1, 206813, Note_on_c, 0, 64, 34
1, 207039, Note_off_c, 0, 60, 50
1, 207173, Note_off_c, 0, 64, 31
1, 207179, Note_off_c, 0, 68, 32
1, 207311, Control_c, 0, 64, 118
1, 207326, Control_c, 0, 64, 104
1, 207336, Note_on_c, 0, 71, 35
1, 207348, Control_c, 0, 64, 95
1, 207349, Note_on_c, 0, 64, 32
1, 207361, Note_on_c, 0, 68, 27
1, 207363, Control_c, 0, 64, 86
1, 207373, Note_off_c, 0, 72, 0
1, 207375, Note_on_c, 0, 59, 33
1, 207378, Control_c, 0, 64, 76
1, 207393, Control_c, 0, 64, 68
1, 207408, Control_c, 0, 64, 62
1, 207411, Poly_aftertouch_c, 0, 72, 127
1, 207422, Control_c, 0, 64, 59
1, 207437, Control_c, 0, 64, 58
1, 207452, Control_c, 0, 64, 58
1, 207466, Control_c, 0, 64, 59
1, 207481, Control_c, 0, 64, 61
1, 207496, Control_c, 0, 64, 63
1, 207510, Poly_aftertouch_c, 0, 72, 0
1, 207511, Control_c, 0, 64, 66
1, 207515, Note_off_c, 0, 76, 57
1, 207526, Control_c, 0, 64, 70
1, 207540, Control_c, 0, 64, 75
1, 207555, Control_c, 0, 64, 80
1, 207570, Control_c, 0, 64, 84
1, 207585, Control_c, 0, 64, 87
1, 207600, Control_c, 0, 64, 90
1, 207614, Control_c, 0, 64, 92
1, 207629, Control_c, 0, 64, 94
1, 207630, Note_off_c, 0, 59, 41
1, 207644, Control_c, 0, 64, 97
1, 207659, Note_off_c, 0, 68, 41
1, 207659, Control_c, 0, 64, 99
1, 207674, Control_c, 0, 64, 101
1, 207689, Control_c, 0, 64, 106
1, 207704, Control_c, 0, 64, 111
1, 207719, Control_c, 0, 64, 119
1, 207731, Note_off_c, 0, 64, 45
1, 207734, Control_c, 0, 64, 127
1, 207791, Note_off_c, 0, 56, 30
1, 207859, Note_off_c, 0, 71, 36
1, 208142, Control_c, 0, 64, 118
1, 208157, Control_c, 0, 64, 112
1, 208172, Control_c, 0, 64, 107
1, 208184, Note_on_c, 0, 75, 43
1, 208187, Control_c, 0, 64, 102
1, 208202, Control_c, 0, 64, 96
1, 208216, Note_on_c, 0, 58, 31
1, 208216, Note_on_c, 0, 70, 39
1, 208216, Control_c, 0, 64, 90
1, 208221, Note_on_c, 0, 63, 41
1, 208231, Control_c, 0, 64, 84
1, 208246, Control_c, 0, 64, 78
1, 208247, Note_on_c, 0, 55, 29
1, 208261, Control_c, 0, 64, 71
1, 208276, Control_c, 0, 64, 64
1, 208290, Control_c, 0, 64, 59
1, 208305, Control_c, 0, 64, 56
1, 208320, Control_c, 0, 64, 54
1, 208335, Control_c, 0, 64, 53
1, 208350, Control_c, 0, 64, 53
1, 208379, Control_c, 0, 64, 53
1, 208394, Control_c, 0, 64, 54
1, 208409, Control_c, 0, 64, 54
1, 208423, Control_c, 0, 64, 55
1, 208453, Control_c, 0, 64, 55
1, 208468, Control_c, 0, 64, 56
1, 208512, Control_c, 0, 64, 56
1, 208542, Control_c, 0, 64, 57
1, 208573, Control_c, 0, 64, 57
1, 208617, Control_c, 0, 64, 58
1, 208661, Control_c, 0, 64, 58
1, 208691, Control_c, 0, 64, 59
1, 208706, Control_c, 0, 64, 60
1, 208720, Control_c, 0, 64, 61
1, 208735, Control_c, 0, 64, 62
1, 208750, Control_c, 0, 64, 64
1, 208765, Control_c, 0, 64, 68
1, 208780, Control_c, 0, 64, 74
1, 208795, Control_c, 0, 64, 84
1, 208810, Control_c, 0, 64, 94
1, 208825, Control_c, 0, 64, 105
1, 208847, Control_c, 0, 64, 127
1, 208860, Note_off_c, 0, 70, 61
1, 208887, Note_off_c, 0, 75, 38
1, 208903, Note_off_c, 0, 58, 40
1, 208908, Note_off_c, 0, 55, 38
1, 208959, Note_off_c, 0, 63, 55
1, 209219, Note_on_c, 0, 63, 39
1, 209265, Note_on_c, 0, 58, 37
1, 209280, Note_on_c, 0, 43, 31
1, 209291, Control_c, 0, 64, 109
1, 209306, Control_c, 0, 64, 98
1, 209320, Control_c, 0, 64, 91
1, 209335, Control_c, 0, 64, 87
1, 209350, Control_c, 0, 64, 86
1, 209440, Control_c, 0, 64, 87
1, 209455, Control_c, 0, 64, 88
1, 209465, Note_off_c, 0, 43, 36
1, 209469, Control_c, 0, 64, 90
1, 209483, Note_on_c, 0, 49, 30
1, 209484, Control_c, 0, 64, 91
1, 209499, Control_c, 0, 64, 94
1, 209514, Control_c, 0, 64, 97
1, 209528, Note_off_c, 0, 49, 47
1, 209529, Control_c, 0, 64, 102
1, 209543, Control_c, 0, 64, 110
1, 209548, Note_on_c, 0, 43, 21
1, 209558, Control_c, 0, 64, 124
1, 209573, Control_c, 0, 64, 127
1, 209656, Note_off_c, 0, 43, 0
1, 209671, Note_on_c, 0, 43, 27
1, 209700, Poly_aftertouch_c, 0, 49, 127
1, 209725, Note_off_c, 0, 43, 56
1, 209788, Note_off_c, 0, 58, 35
1, 209805, Note_on_c, 0, 43, 30
1, 209843, Poly_aftertouch_c, 0, 49, 0
1, 209862, Note_on_c, 0, 49, 21
1, 209868, Note_off_c, 0, 43, 41
1, 209916, Note_on_c, 0, 43, 27
1, 209954, Note_on_c, 0, 58, 38
1, 209968, Note_off_c, 0, 49, 0
1, 209970, Note_off_c, 0, 43, 55
1, 209983, Note_on_c, 0, 49, 33
1, 210053, Note_on_c, 0, 43, 14
1, 210134, Note_off_c, 0, 43, 0
1, 210150, Note_on_c, 0, 43, 27
1, 210150, Note_off_c, 0, 49, 48
1, 210205, Note_on_c, 0, 49, 37
1, 210252, Note_off_c, 0, 43, 0
1, 210270, Note_on_c, 0, 43, 23
1, 210280, Note_off_c, 0, 58, 27
1, 210314, Note_off_c, 0, 43, 57
1, 210385, Note_on_c, 0, 43, 38
1, 210390, Note_off_c, 0, 49, 47
1, 210437, Note_off_c, 0, 43, 59
1, 210461, Note_on_c, 0, 49, 24
1, 210500, Note_on_c, 0, 65, 49
1, 210527, Note_off_c, 0, 49, 55
1, 210528, Note_on_c, 0, 58, 41
1, 210535, Note_on_c, 0, 62, 41
1, 210577, Poly_aftertouch_c, 0, 43, 127
1, 210622, Note_on_c, 0, 49, 27
1, 210649, Poly_aftertouch_c, 0, 43, 0
1, 210664, Note_on_c, 0, 43, 28
1, 210685, Note_off_c, 0, 49, 42
1, 210715, Note_off_c, 0, 43, 57
1, 210759, Note_on_c, 0, 49, 12
1, 210802, Note_on_c, 0, 43, 22
1, 210806, Note_off_c, 0, 49, 49
1, 210856, Note_off_c, 0, 62, 37
1, 210867, Note_off_c, 0, 58, 34
1, 210908, Note_off_c, 0, 43, 57
1, 210938, Note_on_c, 0, 49, 31
1, 211077, Note_on_c, 0, 68, 55
1, 211105, Note_on_c, 0, 41, 46
1, 211117, Note_on_c, 0, 58, 39
1, 211121, Note_on_c, 0, 61, 40
1, 211127, Note_off_c, 0, 49, 38
1, 211152, Control_c, 0, 64, 114
1, 211167, Control_c, 0, 64, 96
1, 211182, Control_c, 0, 64, 86
1, 211196, Control_c, 0, 64, 77
1, 211211, Control_c, 0, 64, 71
1, 211226, Control_c, 0, 64, 67
1, 211240, Control_c, 0, 64, 65
1, 211255, Control_c, 0, 64, 64
1, 211266, Note_off_c, 0, 41, 59
1, 211269, Note_on_c, 0, 49, 26
1, 211270, Control_c, 0, 64, 64
1, 211285, Control_c, 0, 64, 65
1, 211290, Note_off_c, 0, 63, 28
1, 211300, Control_c, 0, 64, 67
1, 211314, Control_c, 0, 64, 71
1, 211329, Control_c, 0, 64, 76
1, 211344, Control_c, 0, 64, 82
1, 211346, Note_off_c, 0, 49, 52
1, 211359, Control_c, 0, 64, 88
1, 211373, Note_off_c, 0, 58, 39
1, 211374, Note_on_c, 0, 41, 39
1, 211374, Control_c, 0, 64, 95
1, 211388, Control_c, 0, 64, 103
1, 211403, Control_c, 0, 64, 115
1, 211417, Note_off_c, 0, 41, 51
1, 211418, Control_c, 0, 64, 127
1, 211456, Note_off_c, 0, 61, 27
1, 211466, Poly_aftertouch_c, 0, 53, 127
1, 211507, Note_on_c, 0, 49, 24
1, 211514, Poly_aftertouch_c, 0, 53, 0
1, 211558, Note_on_c, 0, 41, 5
1, 211565, Note_on_c, 0, 53, 23
1, 211662, Note_off_c, 0, 53, 0
1, 211692, Note_on_c, 0, 61, 42
1, 211699, Note_on_c, 0, 58, 36
1, 211699, Poly_aftertouch_c, 0, 53, 127
1, 211741, Note_off_c, 0, 41, 0
1, 211759, Note_on_c, 0, 41, 27
1, 211800, Note_off_c, 0, 41, 50
1, 211852, Note_off_c, 0, 68, 59
1, 211881, Note_on_c, 0, 41, 37
1, 211919, Note_off_c, 0, 41, 54
1, 211969, Note_off_c, 0, 58, 36
1, 211996, Note_on_c, 0, 41, 39
1, 212032, Note_off_c, 0, 41, 55
1, 212039, Note_off_c, 0, 61, 28
1, 212068, Note_off_c, 0, 65, 36
1, 212158, Poly_aftertouch_c, 0, 53, 0
1, 212165, Poly_aftertouch_c, 0, 41, 127
1, 212196, Poly_aftertouch_c, 0, 53, 127
1, 212196, Note_on_c, 0, 67, 64
1, 212223, Note_on_c, 0, 61, 42
1, 212231, Note_on_c, 0, 58, 40
1, 212269, Poly_aftertouch_c, 0, 53, 0
1, 212297, Poly_aftertouch_c, 0, 41, 0
1, 212306, Poly_aftertouch_c, 0, 53, 127
1, 212354, Note_on_c, 0, 41, 39
1, 212379, Poly_aftertouch_c, 0, 53, 0
1, 212391, Note_off_c, 0, 41, 58
1, 212403, Note_on_c, 0, 53, 8
1, 212467, Note_on_c, 0, 41, 47
1, 212476, Note_off_c, 0, 53, 0
1, 212476, Note_off_c, 0, 58, 31
1, 212507, Note_off_c, 0, 41, 59
1, 212509, Note_on_c, 0, 53, 20
1, 212536, Note_off_c, 0, 61, 36
1, 212679, Note_on_c, 0, 61, 55
1, 212693, Note_on_c, 0, 58, 53
1, 212750, Poly_aftertouch_c, 0, 41, 127
1, 212817, Note_off_c, 0, 58, 61
1, 212819, Note_off_c, 0, 49, 38
1, 212828, Control_c, 0, 67, 124
1, 212834, Note_off_c, 0, 61, 56
1, 212843, Control_c, 0, 67, 119
1, 212853, Note_off_c, 0, 67, 34
1, 212858, Control_c, 0, 67, 114
1, 212935, Note_off_c, 0, 53, 41
1, 212947, Control_c, 0, 67, 116
1, 212959, Note_on_c, 0, 49, 37
1, 212976, Control_c, 0, 67, 119
1, 212991, Control_c, 0, 67, 122
1, 213002, Poly_aftertouch_c, 0, 41, 0
1, 213005, Control_c, 0, 67, 125
1, 213020, Control_c, 0, 67, 127
1, 213088, Note_off_c, 0, 49, 62
1, 213216, Note_on_c, 0, 67, 69
1, 213246, Note_on_c, 0, 61, 51
1, 213259, Note_on_c, 0, 58, 45
1, 213260, Note_on_c, 0, 40, 47
1, 213280, Note_on_c, 0, 55, 46
1, 213287, Control_c, 0, 64, 97
1, 213302, Control_c, 0, 64, 79
1, 213317, Control_c, 0, 64, 66
1, 213339, Control_c, 0, 64, 58
1, 213354, Control_c, 0, 64, 55
1, 213382, Note_off_c, 0, 40, 54
1, 213382, Control_c, 0, 64, 57
1, 213397, Control_c, 0, 64, 62
1, 213412, Note_on_c, 0, 52, 26
1, 213412, Control_c, 0, 64, 67
1, 213427, Control_c, 0, 64, 75
1, 213442, Control_c, 0, 64, 86
1, 213457, Control_c, 0, 64, 94
1, 213459, Note_off_c, 0, 52, 47
1, 213472, Control_c, 0, 64, 99
1, 213487, Control_c, 0, 64, 103
1, 213502, Control_c, 0, 64, 107
1, 213503, Note_on_c, 0, 40, 36
1, 213516, Control_c, 0, 64, 113
1, 213531, Control_c, 0, 64, 127
1, 213545, Note_off_c, 0, 40, 48
1, 213616, Poly_aftertouch_c, 0, 52, 127
1, 213660, Poly_aftertouch_c, 0, 52, 0
1, 213676, Note_off_c, 0, 58, 55
1, 213698, Poly_aftertouch_c, 0, 40, 127
1, 213698, Poly_aftertouch_c, 0, 52, 127
1, 213703, Note_off_c, 0, 61, 37
1, 213716, Note_off_c, 0, 55, 35
1, 213767, Poly_aftertouch_c, 0, 46, 127
1, 213795, Poly_aftertouch_c, 0, 52, 0
1, 213812, Note_on_c, 0, 52, 29
1, 213832, Note_on_c, 0, 61, 57
1, 213851, Note_on_c, 0, 58, 29
1, 213854, Note_on_c, 0, 55, 31
1, 213865, Poly_aftertouch_c, 0, 40, 0
1, 213883, Note_on_c, 0, 40, 30
1, 213936, Note_off_c, 0, 40, 57
1, 214011, Note_on_c, 0, 40, 40
1, 214024, Note_off_c, 0, 52, 0
1, 214050, Note_on_c, 0, 52, 13
1, 214053, Note_off_c, 0, 40, 55
1, 214071, Note_off_c, 0, 55, 37
1, 214071, Note_off_c, 0, 58, 40
1, 214098, Note_off_c, 0, 61, 34
1, 214116, Control_c, 0, 67, 113
1, 214125, Note_off_c, 0, 52, 53
1, 214126, Note_on_c, 0, 40, 43
1, 214131, Control_c, 0, 67, 99
1, 214145, Control_c, 0, 67, 86
1, 214161, Control_c, 0, 67, 75
1, 214172, Note_off_c, 0, 40, 57
1, 214176, Control_c, 0, 67, 64
1, 214184, Note_on_c, 0, 52, 29
1, 214191, Control_c, 0, 67, 56
1, 214205, Control_c, 0, 67, 50
1, 214220, Control_c, 0, 67, 46
1, 214235, Control_c, 0, 67, 45
1, 214238, Note_off_c, 0, 52, 46
1, 214243, Note_on_c, 0, 61, 47
1, 214247, Note_on_c, 0, 40, 39
1, 214257, Note_on_c, 0, 55, 35
1, 214264, Note_on_c, 0, 58, 50
1, 214265, Control_c, 0, 67, 44
1, 214280, Control_c, 0, 67, 43
1, 214285, Note_off_c, 0, 40, 51
1, 214295, Control_c, 0, 67, 42
1, 214298, Note_on_c, 0, 52, 35
1, 214309, Control_c, 0, 67, 42
1, 214324, Control_c, 0, 67, 41
1, 214336, Note_off_c, 0, 55, 52
1, 214346, Note_off_c, 0, 52, 51
1, 214368, Note_on_c, 0, 40, 37
1, 214369, Control_c, 0, 67, 41
1, 214384, Control_c, 0, 67, 40
1, 214399, Note_off_c, 0, 67, 62
1, 214399, Note_off_c, 0, 40, 53
1, 214420, Note_on_c, 0, 52, 22
1, 214428, Control_c, 0, 67, 39
1, 214441, Poly_aftertouch_c, 0, 63, 127
1, 214476, Note_on_c, 0, 40, 47
1, 214502, Control_c, 0, 67, 39
1, 214504, Note_off_c, 0, 52, 0
1, 214508, Note_off_c, 0, 40, 56
1, 214518, Note_on_c, 0, 52, 35
1, 214518, Note_off_c, 0, 58, 55
1, 214531, Control_c, 0, 67, 38
1, 214546, Control_c, 0, 67, 37
1, 214561, Control_c, 0, 67, 37
1, 214569, Note_off_c, 0, 61, 54
1, 214576, Control_c, 0, 67, 36
1, 214582, Poly_aftertouch_c, 0, 63, 0
1, 214587, Note_off_c, 0, 52, 56
1, 214603, Note_on_c, 0, 40, 49
1, 214605, Control_c, 0, 67, 36
1, 214637, Note_off_c, 0, 40, 52
1, 214646, Note_on_c, 0, 52, 32
1, 214647, Note_on_c, 0, 68, 63
1, 214649, Control_c, 0, 67, 0
1, 214651, Note_on_c, 0, 61, 34
1, 214670, Note_on_c, 0, 58, 44
1, 214688, Note_on_c, 0, 56, 41
1, 214709, Note_on_c, 0, 40, 47
1, 214744, Note_off_c, 0, 52, 0
1, 214745, Note_off_c, 0, 40, 60
1, 214758, Note_on_c, 0, 52, 34
1, 214805, Note_off_c, 0, 56, 58
1, 214817, Note_off_c, 0, 61, 54
1, 214822, Note_off_c, 0, 52, 49
1, 214837, Note_off_c, 0, 58, 55
1, 214886, Note_on_c, 0, 52, 36
1, 214891, Note_on_c, 0, 40, 3
1, 214921, Note_off_c, 0, 52, 64
1, 215007, Note_on_c, 0, 52, 62
1, 215016, Note_off_c, 0, 40, 0
1, 215016, Poly_aftertouch_c, 0, 46, 0
1, 215049, Note_off_c, 0, 68, 34
1, 215052, Poly_aftertouch_c, 0, 40, 127
1, 215070, Note_off_c, 0, 52, 54
1, 215130, Note_on_c, 0, 69, 71
1, 215155, Note_on_c, 0, 67, 56
1, 215175, Note_on_c, 0, 61, 39
1, 215192, Control_c, 0, 64, 101
1, 215194, Note_on_c, 0, 57, 48
1, 215198, Note_on_c, 0, 39, 55
1, 215207, Control_c, 0, 64, 79
1, 215222, Control_c, 0, 64, 64
1, 215237, Control_c, 0, 64, 50
1, 215251, Control_c, 0, 64, 43
1, 215266, Control_c, 0, 64, 42
1, 215281, Control_c, 0, 64, 44
1, 215293, Poly_aftertouch_c, 0, 40, 0
1, 215296, Control_c, 0, 64, 51
1, 215311, Control_c, 0, 64, 59
1, 215317, Note_on_c, 0, 51, 47
1, 215326, Control_c, 0, 64, 66
1, 215326, Note_off_c, 0, 39, 61
1, 215341, Control_c, 0, 64, 75
1, 215355, Control_c, 0, 64, 85
1, 215362, Note_off_c, 0, 51, 57
1, 215370, Control_c, 0, 64, 92
1, 215385, Control_c, 0, 64, 97
1, 215392, Note_on_c, 0, 39, 47
1, 215399, Control_c, 0, 64, 106
1, 215414, Control_c, 0, 64, 127
1, 215457, Note_off_c, 0, 39, 58
1, 215478, Note_on_c, 0, 51, 29
1, 215501, Note_off_c, 0, 61, 62
1, 215519, Note_off_c, 0, 51, 52
1, 215521, Note_off_c, 0, 57, 34
1, 215524, Poly_aftertouch_c, 0, 44, 127
1, 215533, Note_on_c, 0, 39, 46
1, 215539, Note_off_c, 0, 67, 36
1, 215588, Note_off_c, 0, 39, 57
1, 215602, Note_on_c, 0, 51, 52
1, 215645, Note_off_c, 0, 51, 53
1, 215660, Note_on_c, 0, 57, 45
1, 215664, Note_on_c, 0, 67, 51
1, 215669, Note_on_c, 0, 61, 43
1, 215687, Note_on_c, 0, 39, 45
1, 215722, Note_off_c, 0, 39, 56
1, 215748, Note_on_c, 0, 51, 51
1, 215778, Note_off_c, 0, 51, 56
1, 215797, Note_off_c, 0, 57, 56
1, 215812, Note_on_c, 0, 39, 57
1, 215839, Note_off_c, 0, 69, 37
1, 215851, Note_off_c, 0, 39, 59
1, 215869, Note_on_c, 0, 51, 55
1, 215920, Note_off_c, 0, 51, 52
1, 215941, Note_on_c, 0, 39, 55
1, 215982, Note_off_c, 0, 39, 60
1, 215994, Note_off_c, 0, 61, 35
1, 216000, Note_on_c, 0, 51, 53
1, 216009, Note_off_c, 0, 67, 35
1, 216061, Note_on_c, 0, 70, 81
1, 216066, Note_off_c, 0, 51, 41
1, 216087, Note_on_c, 0, 58, 65
1, 216088, Note_on_c, 0, 39, 50
1, 216088, Note_on_c, 0, 61, 51
1, 216106, Note_on_c, 0, 67, 45
1, 216166, Note_off_c, 0, 39, 55
1, 216174, Note_on_c, 0, 51, 50
1, 216220, Note_off_c, 0, 51, 51
1, 216243, Note_on_c, 0, 39, 51
1, 216295, Note_off_c, 0, 39, 61
1, 216301, Note_on_c, 0, 51, 52
1, 216351, Note_off_c, 0, 58, 51
1, 216378, Note_off_c, 0, 51, 53
1, 216397, Note_off_c, 0, 67, 42
1, 216405, Note_off_c, 0, 61, 35
1, 216409, Note_on_c, 0, 39, 46
1, 216435, Note_off_c, 0, 39, 60
1, 216450, Note_on_c, 0, 51, 48
1, 216496, Note_on_c, 0, 61, 70
1, 216497, Note_on_c, 0, 58, 55
1, 216497, Note_on_c, 0, 67, 63
1, 216516, Note_off_c, 0, 51, 49
1, 216524, Note_on_c, 0, 39, 58
1, 216584, Note_off_c, 0, 39, 62
1, 216586, Note_off_c, 0, 67, 58
1, 216587, Note_off_c, 0, 61, 58
1, 216597, Note_off_c, 0, 58, 48
1, 216602, Note_on_c, 0, 51, 46
1, 216618, Note_off_c, 0, 70, 58
1, 216652, Note_off_c, 0, 51, 53
1, 216688, Note_on_c, 0, 39, 54
1, 216730, Note_off_c, 0, 39, 61
1, 216754, Note_on_c, 0, 51, 57
1, 216800, Note_off_c, 0, 51, 57
1, 216826, Note_on_c, 0, 39, 57
1, 216866, Note_off_c, 0, 39, 60
1, 216894, Note_on_c, 0, 51, 61
1, 216958, Note_off_c, 0, 51, 49
1, 216992, Note_on_c, 0, 39, 49
1, 217018, Note_on_c, 0, 71, 93
1, 217042, Note_on_c, 0, 69, 68
1, 217046, Note_on_c, 0, 59, 72
1, 217081, Note_on_c, 0, 66, 52
1, 217097, Note_off_c, 0, 39, 61
1, 217103, Note_on_c, 0, 51, 55
1, 217173, Note_off_c, 0, 51, 59
1, 217222, Note_on_c, 0, 39, 46
1, 217265, Note_off_c, 0, 39, 53
1, 217290, Note_on_c, 0, 51, 50
1, 217332, Note_off_c, 0, 51, 56
1, 217385, Note_on_c, 0, 39, 49
1, 217407, Note_on_c, 0, 51, 55
1, 217411, Note_off_c, 0, 59, 54
1, 217416, Note_off_c, 0, 69, 58
1, 217417, Note_off_c, 0, 39, 58
1, 217417, Note_off_c, 0, 66, 63
1, 217481, Note_off_c, 0, 51, 58
1, 217502, Note_on_c, 0, 39, 65
1, 217527, Note_on_c, 0, 69, 63
1, 217534, Note_off_c, 0, 39, 64
1, 217535, Note_on_c, 0, 66, 71
1, 217545, Note_on_c, 0, 59, 49
1, 217574, Note_on_c, 0, 51, 35
1, 217602, Note_off_c, 0, 51, 56
1, 217614, Note_on_c, 0, 39, 65
1, 217643, Note_off_c, 0, 39, 65
1, 217702, Note_on_c, 0, 51, 23
1, 217702, Note_on_c, 0, 39, 74
1, 217743, Note_off_c, 0, 39, 61
1, 217747, Poly_aftertouch_c, 0, 68, 127
1, 217756, Note_off_c, 0, 51, 0
1, 217770, Note_on_c, 0, 51, 51
1, 217800, Note_on_c, 0, 39, 64
1, 217801, Note_off_c, 0, 59, 43
1, 217812, Note_off_c, 0, 66, 62
1, 217839, Poly_aftertouch_c, 0, 68, 0
1, 217861, Note_off_c, 0, 51, 57
1, 217907, Note_off_c, 0, 69, 0
1, 217919, Note_on_c, 0, 69, 56
1, 217928, Note_on_c, 0, 38, 71
1, 217935, Note_on_c, 0, 66, 75
1, 217939, Note_on_c, 0, 59, 62
1, 217961, Note_off_c, 0, 39, 60
1, 217988, Note_off_c, 0, 38, 55
1, 217996, Note_on_c, 0, 50, 67
1, 218042, Note_off_c, 0, 50, 59
1, 218063, Note_on_c, 0, 38, 65
1, 218101, Note_off_c, 0, 71, 55
1, 218110, Note_off_c, 0, 38, 58
1, 218122, Note_on_c, 0, 50, 65
1, 218142, Poly_aftertouch_c, 0, 68, 127
1, 218163, Note_off_c, 0, 50, 61
1, 218185, Note_on_c, 0, 38, 64
1, 218226, Note_off_c, 0, 38, 53
1, 218234, Note_on_c, 0, 50, 68
1, 218234, Note_off_c, 0, 59, 34
1, 218262, Note_off_c, 0, 66, 63
1, 218277, Poly_aftertouch_c, 0, 68, 0
1, 218277, Note_off_c, 0, 69, 61
1, 218279, Note_off_c, 0, 50, 59
1, 218321, Note_on_c, 0, 38, 47
1, 218329, Note_on_c, 0, 72, 85
1, 218343, Note_on_c, 0, 69, 65
1, 218344, Note_off_c, 0, 38, 62
1, 218346, Note_on_c, 0, 50, 66
1, 218355, Note_on_c, 0, 60, 70
1, 218363, Note_on_c, 0, 66, 69
1, 218402, Note_off_c, 0, 50, 60
1, 218417, Note_on_c, 0, 38, 62
1, 218455, Note_off_c, 0, 38, 58
1, 218462, Note_on_c, 0, 50, 66
1, 218513, Note_off_c, 0, 50, 61
1, 218523, Note_off_c, 0, 69, 61
1, 218524, Note_off_c, 0, 72, 62
1, 218536, Note_off_c, 0, 60, 62
1, 218565, Note_on_c, 0, 38, 17
1, 218583, Note_on_c, 0, 50, 72
1, 218597, Note_off_c, 0, 66, 59
1, 218608, Note_off_c, 0, 38, 53
1, 218662, Note_on_c, 0, 38, 67
1, 218667, Note_off_c, 0, 50, 0
1, 218678, Note_on_c, 0, 50, 49
1, 218694, Poly_aftertouch_c, 0, 44, 0
1, 218748, Note_off_c, 0, 50, 59
1, 218844, Note_on_c, 0, 75, 97
1, 218867, Note_on_c, 0, 63, 75
1, 218867, Note_on_c, 0, 70, 74
1, 218881, Note_on_c, 0, 66, 63
1, 218887, Note_on_c, 0, 37, 77
1, 218901, Note_off_c, 0, 38, 62
1, 218906, Control_c, 0, 64, 101
1, 218921, Control_c, 0, 64, 73
1, 218933, Note_on_c, 0, 39, 43
1, 218936, Control_c, 0, 64, 58
1, 218951, Control_c, 0, 64, 44
1, 218966, Control_c, 0, 64, 36
1, 218995, Control_c, 0, 64, 45
1, 219001, Note_off_c, 0, 39, 38
1, 219003, Note_on_c, 0, 49, 57
1, 219007, Note_off_c, 0, 37, 55
1, 219010, Control_c, 0, 64, 61
1, 219025, Control_c, 0, 64, 73
1, 219040, Control_c, 0, 64, 92
1, 219054, Note_off_c, 0, 49, 57
1, 219055, Control_c, 0, 64, 127
1, 219057, Note_on_c, 0, 37, 65
1, 219132, Note_off_c, 0, 37, 59
1, 219148, Note_on_c, 0, 49, 55
1, 219179, Note_off_c, 0, 49, 62
1, 219183, Note_on_c, 0, 37, 57
1, 219211, Note_off_c, 0, 63, 54
1, 219225, Note_off_c, 0, 37, 54
1, 219252, Note_on_c, 0, 49, 66
1, 219260, Note_off_c, 0, 66, 57
1, 219282, Note_off_c, 0, 49, 64
1, 219292, Note_off_c, 0, 70, 57
1, 219304, Note_on_c, 0, 37, 63
1, 219355, Note_off_c, 0, 37, 62
1, 219368, Note_on_c, 0, 49, 56
1, 219399, Note_on_c, 0, 70, 77
1, 219402, Note_off_c, 0, 49, 62
1, 219410, Note_on_c, 0, 66, 66
1, 219416, Note_on_c, 0, 63, 68
1, 219431, Note_on_c, 0, 37, 67
1, 219463, Note_off_c, 0, 37, 62
1, 219475, Note_on_c, 0, 49, 74
1, 219493, Poly_aftertouch_c, 0, 42, 127
1, 219518, Note_off_c, 0, 49, 61
1, 219535, Note_on_c, 0, 37, 74
1, 219568, Note_off_c, 0, 75, 55
1, 219581, Note_off_c, 0, 37, 56
1, 219596, Note_on_c, 0, 49, 67
1, 219633, Note_off_c, 0, 49, 60
1, 219641, Note_on_c, 0, 37, 66
1, 219701, Note_on_c, 0, 49, 65
1, 219704, Note_off_c, 0, 37, 59
1, 219711, Note_off_c, 0, 63, 59
1, 219717, Note_off_c, 0, 70, 60
1, 219732, Note_off_c, 0, 66, 63
1, 219747, Note_off_c, 0, 49, 54
1, 219762, Note_on_c, 0, 37, 60
1, 219788, Note_on_c, 0, 73, 90
1, 219799, Note_on_c, 0, 70, 79
1, 219801, Note_on_c, 0, 61, 77
1, 219803, Note_on_c, 0, 66, 68
1, 219816, Note_off_c, 0, 37, 62
1, 219818, Note_on_c, 0, 49, 71
1, 219869, Note_off_c, 0, 49, 61
1, 219875, Note_on_c, 0, 37, 70
1, 219928, Note_off_c, 0, 37, 58
1, 219932, Note_on_c, 0, 49, 65
1, 219976, Note_off_c, 0, 49, 57
1, 219988, Note_on_c, 0, 37, 63
1, 220051, Note_on_c, 0, 49, 71
1, 220057, Note_off_c, 0, 37, 59
1, 220096, Note_off_c, 0, 49, 62
1, 220105, Note_on_c, 0, 37, 62
1, 220115, Note_off_c, 0, 61, 61
1, 220131, Note_off_c, 0, 66, 64
1, 220133, Note_off_c, 0, 70, 61
1, 220170, Note_on_c, 0, 49, 75
1, 220173, Note_off_c, 0, 37, 59
1, 220215, Note_on_c, 0, 70, 90
1, 220223, Note_on_c, 0, 37, 66
1, 220225, Note_on_c, 0, 61, 76
1, 220227, Note_on_c, 0, 66, 79
1, 220227, Note_off_c, 0, 49, 59
1, 220278, Note_on_c, 0, 49, 64
1, 220283, Note_off_c, 0, 37, 59
1, 220330, Note_on_c, 0, 37, 68
1, 220332, Note_off_c, 0, 49, 61
1, 220368, Note_off_c, 0, 61, 57
1, 220395, Note_off_c, 0, 37, 60
1, 220399, Note_on_c, 0, 49, 67
1, 220434, Note_off_c, 0, 73, 51
1, 220437, Note_on_c, 0, 37, 64
1, 220453, Note_off_c, 0, 49, 57
1, 220493, Note_on_c, 0, 49, 50
1, 220525, Note_off_c, 0, 70, 26
1, 220558, Note_off_c, 0, 66, 62
1, 220582, Note_off_c, 0, 49, 57
1, 220674, Note_on_c, 0, 74, 95
1, 220698, Note_on_c, 0, 69, 66
1, 220701, Note_on_c, 0, 62, 78
1, 220705, Note_on_c, 0, 66, 70
1, 220721, Note_on_c, 0, 36, 71
1, 220745, Control_c, 0, 64, 89
1, 220760, Control_c, 0, 64, 68
1, 220775, Control_c, 0, 64, 55
1, 220790, Control_c, 0, 64, 44
1, 220805, Control_c, 0, 64, 39
1, 220826, Note_off_c, 0, 37, 33
1, 220826, Control_c, 0, 64, 39
1, 220841, Note_on_c, 0, 48, 70
1, 220841, Control_c, 0, 64, 48
1, 220847, Note_off_c, 0, 36, 56
1, 220856, Control_c, 0, 64, 58
1, 220871, Control_c, 0, 64, 67
1, 220886, Control_c, 0, 64, 80
1, 220900, Control_c, 0, 64, 112
1, 220915, Control_c, 0, 64, 127
1, 220924, Note_off_c, 0, 48, 57
1, 220936, Note_on_c, 0, 36, 68
1, 220978, Note_off_c, 0, 36, 62
1, 220990, Note_on_c, 0, 48, 60
1, 221033, Note_off_c, 0, 48, 62
1, 221049, Note_on_c, 0, 36, 72
1, 221052, Note_off_c, 0, 66, 63
1, 221058, Note_off_c, 0, 69, 60
1, 221065, Note_off_c, 0, 62, 60
1, 221089, Note_off_c, 0, 36, 61
1, 221107, Note_on_c, 0, 48, 76
1, 221143, Note_off_c, 0, 48, 63
1, 221148, Note_on_c, 0, 69, 80
1, 221151, Note_on_c, 0, 66, 80
1, 221154, Note_on_c, 0, 62, 72
1, 221157, Note_on_c, 0, 36, 75
1, 221201, Note_off_c, 0, 36, 61
1, 221209, Note_on_c, 0, 48, 73
1, 221250, Note_off_c, 0, 48, 64
1, 221271, Note_on_c, 0, 36, 74
1, 221300, Note_off_c, 0, 36, 63
1, 221321, Note_on_c, 0, 48, 81
1, 221362, Note_off_c, 0, 48, 54
1, 221368, Note_on_c, 0, 36, 76
1, 221413, Note_on_c, 0, 48, 69
1, 221425, Note_off_c, 0, 36, 59
1, 221436, Note_off_c, 0, 62, 57
1, 221458, Note_off_c, 0, 66, 60
1, 221476, Note_off_c, 0, 69, 52
1, 221478, Note_on_c, 0, 36, 70
1, 221515, Note_off_c, 0, 36, 58
1, 221546, Note_on_c, 0, 69, 79
1, 221547, Note_on_c, 0, 62, 82
1, 221554, Note_on_c, 0, 66, 88
1, 221574, Note_off_c, 0, 48, 54
1, 221593, Note_on_c, 0, 35, 79
1, 221620, Note_off_c, 0, 35, 65
1, 221657, Note_on_c, 0, 47, 72
1, 221692, Note_off_c, 0, 47, 58
1, 221694, Note_on_c, 0, 35, 75
1, 221729, Poly_aftertouch_c, 0, 42, 0
1, 221752, Note_off_c, 0, 35, 60
1, 221752, Note_off_c, 0, 74, 62
1, 221759, Poly_aftertouch_c, 0, 42, 0
1, 221770, Poly_aftertouch_c, 0, 47, 127
1, 221785, Poly_aftertouch_c, 0, 47, 0
1, 221794, Note_on_c, 0, 35, 62
1, 221795, Poly_aftertouch_c, 0, 42, 127
1, 221798, Note_off_c, 0, 62, 55
1, 221850, Note_off_c, 0, 35, 58
1, 221863, Note_on_c, 0, 47, 72
1, 221872, Poly_aftertouch_c, 0, 42, 0
1, 221899, Note_off_c, 0, 66, 54
1, 221905, Note_off_c, 0, 47, 62
1, 221909, Poly_aftertouch_c, 0, 42, 127
1, 221932, Note_off_c, 0, 69, 56
1, 221935, Note_on_c, 0, 35, 60
1, 221955, Note_off_c, 0, 35, 64
1, 221958, Poly_aftertouch_c, 0, 42, 0
1, 221969, Note_on_c, 0, 75, 67
1, 221974, Note_on_c, 0, 47, 75
1, 221978, Note_on_c, 0, 63, 89
1, 221982, Note_on_c, 0, 66, 87
1, 221990, Note_on_c, 0, 69, 57
1, 221995, Poly_aftertouch_c, 0, 42, 127
1, 222015, Note_off_c, 0, 47, 63
1, 222026, Note_on_c, 0, 35, 73
1, 222051, Note_off_c, 0, 35, 64
1, 222053, Poly_aftertouch_c, 0, 42, 0
1, 222079, Note_on_c, 0, 47, 69
1, 222090, Poly_aftertouch_c, 0, 42, 127
1, 222100, Note_off_c, 0, 69, 56
1, 222116, Note_off_c, 0, 47, 64
1, 222142, Note_on_c, 0, 35, 71
1, 222153, Poly_aftertouch_c, 0, 41, 127
1, 222164, Note_off_c, 0, 66, 57
1, 222168, Note_off_c, 0, 63, 62
1, 222169, Note_off_c, 0, 35, 68
1, 222186, Poly_aftertouch_c, 0, 42, 0
1, 222188, Note_on_c, 0, 47, 73
1, 222190, Note_off_c, 0, 75, 63
1, 222218, Note_off_c, 0, 47, 64
1, 222221, Poly_aftertouch_c, 0, 41, 0
1, 222223, Poly_aftertouch_c, 0, 42, 127
1, 222250, Note_on_c, 0, 35, 68
1, 222259, Poly_aftertouch_c, 0, 41, 127
1, 222277, Note_off_c, 0, 35, 62
1, 222297, Note_on_c, 0, 47, 81
1, 222330, Poly_aftertouch_c, 0, 42, 0
1, 222342, Note_off_c, 0, 47, 61
1, 222354, Note_on_c, 0, 35, 80
1, 222378, Poly_aftertouch_c, 0, 41, 0
1, 222387, Note_on_c, 0, 47, 63
1, 222471, Note_off_c, 0, 47, 63
1, 222573, Note_on_c, 0, 78, 95
1, 222579, Note_on_c, 0, 74, 88
1, 222583, Note_on_c, 0, 66, 95
1, 222593, Note_on_c, 0, 68, 79
1, 222617, Note_on_c, 0, 34, 77
1, 222665, Control_c, 0, 64, 83
1, 222680, Control_c, 0, 64, 60
1, 222691, Note_off_c, 0, 35, 58
1, 222695, Control_c, 0, 64, 47
1, 222710, Control_c, 0, 64, 45
1, 222725, Control_c, 0, 64, 51
1, 222728, Note_on_c, 0, 46, 72
1, 222735, Note_off_c, 0, 34, 63
1, 222739, Control_c, 0, 64, 64
1, 222754, Control_c, 0, 64, 80
1, 222769, Control_c, 0, 64, 127
1, 222788, Note_off_c, 0, 46, 61
1, 222806, Note_on_c, 0, 34, 69
1, 222862, Note_off_c, 0, 34, 58
1, 222877, Note_on_c, 0, 46, 59
1, 222885, Poly_aftertouch_c, 0, 72, 127
1, 222906, Note_off_c, 0, 46, 64
1, 222925, Note_on_c, 0, 34, 71
1, 222968, Note_off_c, 0, 34, 64
1, 222985, Note_on_c, 0, 46, 62
1, 223023, Note_off_c, 0, 46, 62
1, 223046, Note_on_c, 0, 34, 79
1, 223049, Poly_aftertouch_c, 0, 38, 127
1, 223081, Note_off_c, 0, 34, 65
1, 223096, Note_off_c, 0, 66, 57
1, 223102, Note_off_c, 0, 68, 58
1, 223107, Note_on_c, 0, 46, 71
1, 223122, Note_off_c, 0, 74, 60
1, 223136, Poly_aftertouch_c, 0, 72, 0
1, 223138, Note_off_c, 0, 46, 62
1, 223141, Poly_aftertouch_c, 0, 38, 0
1, 223156, Note_on_c, 0, 34, 81
1, 223161, Note_on_c, 0, 38, 29
1, 223198, Note_off_c, 0, 34, 59
1, 223213, Note_on_c, 0, 46, 69
1, 223228, Note_on_c, 0, 74, 90
1, 223228, Note_on_c, 0, 66, 89
1, 223234, Note_on_c, 0, 68, 78
1, 223259, Note_off_c, 0, 46, 57
1, 223261, Note_on_c, 0, 34, 76
1, 223305, Note_off_c, 0, 34, 60
1, 223322, Note_on_c, 0, 46, 67
1, 223356, Note_off_c, 0, 46, 61
1, 223359, Note_on_c, 0, 34, 81
1, 223410, Note_off_c, 0, 34, 63
1, 223417, Note_off_c, 0, 66, 59
1, 223425, Note_on_c, 0, 46, 75
1, 223459, Note_off_c, 0, 38, 0
1, 223459, Note_on_c, 0, 38, 22
1, 223464, Note_off_c, 0, 46, 60
1, 223465, Note_on_c, 0, 34, 81
1, 223506, Note_off_c, 0, 78, 32
1, 223513, Note_off_c, 0, 34, 63
1, 223526, Note_on_c, 0, 46, 76
1, 223565, Note_off_c, 0, 38, 0
1, 223565, Note_on_c, 0, 38, 36
1, 223568, Note_off_c, 0, 46, 60
1, 223570, Note_on_c, 0, 34, 83
1, 223572, Note_off_c, 0, 68, 60
1, 223595, Note_off_c, 0, 74, 37
1, 223612, Note_off_c, 0, 34, 61
1, 223631, Note_on_c, 0, 46, 72
1, 223666, Note_off_c, 0, 38, 0
1, 223667, Note_on_c, 0, 77, 100
1, 223670, Note_on_c, 0, 65, 93
1, 223670, Note_on_c, 0, 74, 95
1, 223672, Note_off_c, 0, 46, 60
1, 223673, Note_on_c, 0, 68, 91
1, 223680, Note_on_c, 0, 34, 84
1, 223683, Note_on_c, 0, 38, 39
1, 223731, Note_off_c, 0, 34, 63
1, 223738, Note_on_c, 0, 46, 74
1, 223745, Note_off_c, 0, 38, 48
1, 223780, Note_off_c, 0, 46, 58
1, 223789, Note_on_c, 0, 34, 86
1, 223838, Note_off_c, 0, 34, 56
1, 223849, Note_on_c, 0, 46, 70
1, 223850, Poly_aftertouch_c, 0, 38, 0
1, 223894, Note_on_c, 0, 34, 81
1, 223905, Note_off_c, 0, 46, 55
1, 223923, Note_on_c, 0, 38, 17
1, 223938, Note_on_c, 0, 46, 51
1, 223996, Note_off_c, 0, 38, 0
1, 224006, Note_off_c, 0, 46, 60
1, 224018, Note_on_c, 0, 38, 18
1, 224027, Note_off_c, 0, 68, 59
1, 224036, Note_off_c, 0, 65, 59
1, 224039, Note_on_c, 0, 39, 22
1, 224043, Note_off_c, 0, 74, 57
1, 224114, Note_on_c, 0, 33, 86
1, 224117, Note_on_c, 0, 74, 97
1, 224117, Note_on_c, 0, 45, 3
1, 224122, Note_on_c, 0, 69, 96
1, 224126, Note_on_c, 0, 65, 90
1, 224140, Note_off_c, 0, 45, 0
1, 224147, Note_off_c, 0, 34, 59
1, 224153, Note_off_c, 0, 33, 60
1, 224161, Note_on_c, 0, 45, 32
1, 224215, Note_off_c, 0, 45, 62
1, 224241, Note_on_c, 0, 33, 74
1, 224272, Note_off_c, 0, 33, 63
1, 224278, Note_on_c, 0, 45, 75
1, 224314, Note_off_c, 0, 45, 65
1, 224337, Note_on_c, 0, 33, 82
1, 224361, Note_off_c, 0, 33, 67
1, 224379, Note_off_c, 0, 74, 57
1, 224382, Note_on_c, 0, 45, 79
1, 224387, Note_off_c, 0, 65, 59
1, 224387, Note_off_c, 0, 77, 33
1, 224427, Note_off_c, 0, 45, 64
1, 224448, Note_on_c, 0, 33, 73
1, 224477, Note_off_c, 0, 69, 59
1, 224481, Note_on_c, 0, 45, 78
1, 224491, Note_on_c, 0, 65, 74
1, 224519, Note_off_c, 0, 39, 37
1, 224551, Note_off_c, 0, 38, 39
1, 224573, Note_on_c, 0, 74, 68
1, 224585, Note_off_c, 0, 45, 57
1, 224592, Note_on_c, 0, 70, 81
1, 224681, Note_on_c, 0, 32, 90
1, 224730, Note_on_c, 0, 34, 48
1, 224733, Note_off_c, 0, 33, 60
1, 224754, Note_on_c, 0, 77, 102
1, 224763, Control_c, 0, 64, 85
1, 224778, Control_c, 0, 64, 65
1, 224787, Note_off_c, 0, 74, 66
1, 224790, Note_off_c, 0, 34, 46
1, 224793, Control_c, 0, 64, 56
1, 224794, Note_on_c, 0, 44, 75
1, 224808, Control_c, 0, 64, 58
1, 224823, Control_c, 0, 64, 66
1, 224838, Control_c, 0, 64, 89
1, 224848, Note_off_c, 0, 77, 67
1, 224853, Control_c, 0, 64, 127
1, 224866, Note_off_c, 0, 70, 64
1, 224870, Note_off_c, 0, 44, 62
1, 224898, Note_off_c, 0, 65, 67
1, 224942, Note_on_c, 0, 44, 60
1, 224955, Note_off_c, 0, 32, 60
1, 224996, Note_off_c, 0, 44, 58
1, 225016, Note_on_c, 0, 32, 68
1, 225090, Note_off_c, 0, 32, 58
1, 225117, Note_on_c, 0, 44, 50
1, 225141, Note_on_c, 0, 57, 70
1, 225145, Note_on_c, 0, 53, 66
1, 225152, Note_on_c, 0, 50, 58
1, 225159, Note_off_c, 0, 44, 61
1, 225203, Note_on_c, 0, 32, 63
1, 225282, Note_on_c, 0, 44, 50
1, 225283, Note_off_c, 0, 32, 57
1, 225354, Note_off_c, 0, 44, 56
1, 225404, Note_off_c, 0, 53, 54
1, 225407, Note_on_c, 0, 32, 53
1, 225417, Note_off_c, 0, 57, 60
1, 225445, Note_off_c, 0, 50, 33
1, 225454, Note_off_c, 0, 32, 56
1, 225486, Note_on_c, 0, 44, 46
1, 225517, Note_on_c, 0, 58, 74
1, 225519, Note_on_c, 0, 53, 67
1, 225520, Note_on_c, 0, 50, 53
1, 225528, Note_off_c, 0, 44, 60
1, 225556, Note_on_c, 0, 32, 65
1, 225642, Note_off_c, 0, 32, 57
1, 225652, Note_off_c, 0, 50, 56
1, 225654, Note_on_c, 0, 44, 50
1, 225706, Note_off_c, 0, 53, 55
1, 225717, Note_off_c, 0, 44, 60
1, 225766, Note_on_c, 0, 32, 66
1, 225782, Note_off_c, 0, 58, 0
1, 225796, Note_on_c, 0, 58, 40
1, 225801, Note_on_c, 0, 62, 82
1, 225814, Note_on_c, 0, 53, 61
1, 225836, Note_off_c, 0, 53, 64
1, 225846, Note_on_c, 0, 44, 58
1, 225852, Note_off_c, 0, 32, 58
1, 225863, Note_off_c, 0, 58, 63
1, 225881, Note_off_c, 0, 62, 63
1, 225914, Note_off_c, 0, 44, 61
1, 225941, Note_on_c, 0, 32, 72
1, 226014, Note_off_c, 0, 32, 59
1, 226021, Note_on_c, 0, 44, 66
1, 226048, Note_on_c, 0, 58, 78
1, 226048, Note_on_c, 0, 62, 78
1, 226056, Note_on_c, 0, 65, 74
1, 226093, Note_off_c, 0, 44, 59
1, 226105, Note_on_c, 0, 32, 71
1, 226176, Note_off_c, 0, 32, 60
1, 226176, Note_on_c, 0, 44, 63
1, 226188, Note_off_c, 0, 62, 61
1, 226209, Note_off_c, 0, 58, 60
1, 226216, Note_off_c, 0, 65, 59
1, 226239, Note_off_c, 0, 44, 60
1, 226263, Note_on_c, 0, 32, 78
1, 226288, Note_on_c, 0, 62, 84
1, 226296, Note_on_c, 0, 70, 90
1, 226298, Note_on_c, 0, 65, 57
1, 226325, Note_off_c, 0, 62, 58
1, 226325, Note_off_c, 0, 65, 64
1, 226332, Note_on_c, 0, 44, 72
1, 226336, Note_off_c, 0, 32, 59
1, 226391, Note_off_c, 0, 44, 59
1, 226403, Note_on_c, 0, 32, 75
1, 226405, Note_off_c, 0, 70, 67
1, 226474, Note_off_c, 0, 32, 58
1, 226476, Note_on_c, 0, 44, 71
1, 226499, Note_on_c, 0, 70, 97
1, 226502, Note_on_c, 0, 74, 92
1, 226506, Note_on_c, 0, 65, 82
1, 226532, Note_on_c, 0, 32, 78
1, 226548, Note_off_c, 0, 44, 60
1, 226592, Poly_aftertouch_c, 0, 41, 0
1, 226602, Note_on_c, 0, 44, 65
1, 226602, Note_off_c, 0, 32, 60
1, 226637, Note_off_c, 0, 65, 60
1, 226655, Note_off_c, 0, 70, 63
1, 226658, Note_off_c, 0, 44, 62
1, 226664, Note_on_c, 0, 32, 82
1, 226713, Note_on_c, 0, 77, 105
1, 226715, Note_on_c, 0, 70, 89
1, 226718, Note_on_c, 0, 65, 90
1, 226720, Note_on_c, 0, 44, 76
1, 226728, Note_off_c, 0, 32, 60
1, 226742, Note_off_c, 0, 74, 61
1, 226752, Note_off_c, 0, 70, 62
1, 226753, Note_on_c, 0, 41, 24
1, 226771, Note_on_c, 0, 32, 76
1, 226775, Note_off_c, 0, 44, 63
1, 226779, Poly_aftertouch_c, 0, 37, 127
1, 226790, Note_off_c, 0, 65, 58
1, 226792, Note_off_c, 0, 41, 49
1, 226819, Note_off_c, 0, 77, 67
1, 226836, Poly_aftertouch_c, 0, 36, 127
1, 226837, Note_on_c, 0, 44, 81
1, 226839, Note_on_c, 0, 36, 3
1, 226848, Note_off_c, 0, 32, 54
1, 226874, Note_on_c, 0, 41, 43
1, 226874, Note_off_c, 0, 41, 127
1, 226886, Note_on_c, 0, 32, 78
1, 226892, Note_off_c, 0, 44, 63
1, 226897, Note_off_c, 0, 36, 0
1, 226897, Note_on_c, 0, 36, 26
1, 226913, Poly_aftertouch_c, 0, 41, 0
1, 226949, Note_on_c, 0, 44, 81
1, 226958, Note_off_c, 0, 32, 59
1, 226986, Note_off_c, 0, 36, 0
1, 226999, Note_off_c, 0, 44, 62
1, 227006, Note_on_c, 0, 32, 81
1, 227008, Note_on_c, 0, 82, 96
1, 227011, Note_on_c, 0, 70, 97
1, 227013, Note_on_c, 0, 74, 94
1, 227014, Note_on_c, 0, 36, 34
1, 227017, Note_on_c, 0, 77, 84
1, 227047, Note_off_c, 0, 82, 70
1, 227074, Note_on_c, 0, 44, 80
1, 227079, Note_off_c, 0, 74, 62
1, 227086, Note_off_c, 0, 77, 62
1, 227087, Note_off_c, 0, 32, 59
1, 227087, Note_off_c, 0, 70, 57
1, 227133, Note_on_c, 0, 32, 66
1, 227140, Note_off_c, 0, 44, 59
1, 227187, Note_on_c, 0, 44, 61
1, 227205, Note_off_c, 0, 32, 59
1, 227264, Note_off_c, 0, 44, 62
1, 227279, Note_on_c, 0, 32, 64
1, 227279, Note_off_c, 0, 36, 0
1, 227279, Note_on_c, 0, 36, 4
1, 227335, Note_on_c, 0, 44, 66
1, 227339, Note_off_c, 0, 32, 51
1, 227353, Note_on_c, 0, 61, 84
1, 227366, Note_on_c, 0, 58, 80
1, 227372, Note_on_c, 0, 53, 77
1, 227399, Note_off_c, 0, 36, 0
1, 227402, Note_off_c, 0, 44, 60
1, 227409, Note_on_c, 0, 32, 67
1, 227437, Poly_aftertouch_c, 0, 36, 127
1, 227464, Note_on_c, 0, 44, 61
1, 227474, Note_off_c, 0, 32, 55
1, 227517, Note_off_c, 0, 44, 62
1, 227522, Note_on_c, 0, 32, 67
1, 227544, Note_off_c, 0, 58, 61
1, 227544, Note_off_c, 0, 53, 51
1, 227585, Note_off_c, 0, 61, 62
1, 227593, Note_on_c, 0, 44, 68
1, 227595, Poly_aftertouch_c, 0, 36, 0
1, 227596, Note_off_c, 0, 32, 58
1, 227620, Note_on_c, 0, 62, 93
1, 227623, Note_on_c, 0, 53, 85
1, 227623, Note_on_c, 0, 58, 92
1, 227631, Note_on_c, 0, 61, 53
1, 227649, Note_on_c, 0, 32, 74
1, 227651, Note_off_c, 0, 44, 61
1, 227700, Note_off_c, 0, 32, 58
1, 227704, Poly_aftertouch_c, 0, 37, 0
1, 227708, Note_on_c, 0, 44, 72
1, 227728, Note_off_c, 0, 61, 55
1, 227743, Note_off_c, 0, 58, 60
1, 227756, Note_off_c, 0, 44, 61
1, 227762, Note_on_c, 0, 32, 83
1, 227774, Note_off_c, 0, 53, 59
1, 227817, Note_off_c, 0, 32, 59
1, 227826, Note_on_c, 0, 44, 79
1, 227837, Note_on_c, 0, 58, 91
1, 227845, Note_on_c, 0, 65, 95
1, 227858, Poly_aftertouch_c, 0, 32, 0
1, 227866, Note_off_c, 0, 62, 60
1, 227867, Note_on_c, 0, 32, 79
1, 227878, Note_off_c, 0, 58, 67
1, 227881, Note_off_c, 0, 44, 60
1, 227913, Note_off_c, 0, 65, 67
1, 227923, Note_on_c, 0, 44, 71
1, 227993, Note_off_c, 0, 44, 57
1, 228038, Note_on_c, 0, 44, 40
1, 228055, Note_on_c, 0, 70, 92
1, 228058, Note_on_c, 0, 62, 84
1, 228059, Note_on_c, 0, 37, 15
1, 228062, Note_on_c, 0, 65, 84
1, 228070, Note_off_c, 0, 44, 55
1, 228081, Note_on_c, 0, 36, 35
1, 228081, Note_on_c, 0, 43, 48
1, 228107, Poly_aftertouch_c, 0, 34, 127
1, 228111, Note_off_c, 0, 43, 51
1, 228123, Note_on_c, 0, 31, 66
1, 228153, Note_off_c, 0, 65, 58
1, 228166, Note_off_c, 0, 31, 59
1, 228166, Poly_aftertouch_c, 0, 34, 0
1, 228169, Note_off_c, 0, 32, 54
1, 228173, Note_off_c, 0, 62, 57
1, 228177, Note_on_c, 0, 43, 76
1, 228216, Note_off_c, 0, 70, 67
1, 228242, Note_off_c, 0, 43, 57
1, 228246, Note_on_c, 0, 31, 76
1, 228287, Note_on_c, 0, 73, 92
1, 228289, Note_on_c, 0, 70, 92
1, 228290, Note_on_c, 0, 65, 82
1, 228290, Note_on_c, 0, 43, 70
1, 228310, Note_off_c, 0, 31, 61
1, 228353, Poly_aftertouch_c, 0, 32, 0
1, 228360, Note_off_c, 0, 43, 62
1, 228365, Note_on_c, 0, 31, 75
1, 228373, Poly_aftertouch_c, 0, 32, 0
1, 228409, Poly_aftertouch_c, 0, 32, 127
1, 228423, Note_on_c, 0, 43, 79
1, 228430, Note_off_c, 0, 31, 61
1, 228457, Note_off_c, 0, 65, 54
1, 228459, Poly_aftertouch_c, 0, 32, 0
1, 228459, Note_off_c, 0, 70, 60
1, 228475, Note_off_c, 0, 43, 62
1, 228484, Note_on_c, 0, 31, 72
1, 228493, Note_off_c, 0, 73, 61
1, 228519, Note_on_c, 0, 74, 101
1, 228526, Note_on_c, 0, 65, 93
1, 228527, Note_on_c, 0, 70, 95
1, 228530, Note_on_c, 0, 73, 63
1, 228537, Note_on_c, 0, 43, 83
1, 228555, Note_off_c, 0, 31, 60
1, 228556, Poly_aftertouch_c, 0, 32, 127
1, 228581, Poly_aftertouch_c, 0, 32, 0
1, 228597, Note_on_c, 0, 31, 62
1, 228603, Note_off_c, 0, 43, 61
1, 228617, Note_on_c, 0, 32, 34
1, 228650, Note_on_c, 0, 43, 72
1, 228657, Note_off_c, 0, 31, 61
1, 228659, Note_off_c, 0, 32, 51
1, 228676, Note_off_c, 0, 73, 51
1, 228677, Note_off_c, 0, 65, 58
1, 228706, Note_off_c, 0, 70, 55
1, 228712, Note_off_c, 0, 43, 61
1, 228732, Note_on_c, 0, 31, 56
1, 228755, Note_on_c, 0, 70, 72
1, 228758, Note_off_c, 0, 31, 58
1, 228759, Note_on_c, 0, 77, 108
1, 228761, Note_on_c, 0, 32, 40
1, 228761, Note_on_c, 0, 65, 98
1, 228764, Note_on_c, 0, 43, 78
1, 228783, Note_off_c, 0, 74, 62
1, 228785, Note_off_c, 0, 70, 68
1, 228790, Note_off_c, 0, 32, 57
1, 228815, Note_off_c, 0, 65, 62
1, 228823, Note_off_c, 0, 43, 62
1, 228832, Note_on_c, 0, 34, 38
1, 228845, Note_on_c, 0, 31, 48
1, 228869, Note_off_c, 0, 31, 58
1, 228873, Note_on_c, 0, 43, 77
1, 228874, Note_off_c, 0, 77, 56
1, 228937, Note_on_c, 0, 31, 83
1, 228955, Note_off_c, 0, 43, 60
1, 228987, Note_off_c, 0, 34, 41
1, 229002, Note_off_c, 0, 37, 43
1, 229019, Note_off_c, 0, 36, 47
1, 229160, Note_on_c, 0, 82, 77
1, 229169, Note_on_c, 0, 42, 96
1, 229169, Note_on_c, 0, 70, 74
1, 229176, Note_on_c, 0, 76, 68
1, 229177, Note_on_c, 0, 30, 88
1, 229196, Control_c, 0, 64, 104
1, 229208, Note_off_c, 0, 31, 62
1, 229211, Control_c, 0, 64, 58
1, 229226, Control_c, 0, 64, 0
1, 229270, Control_c, 0, 64, 44
1, 229284, Control_c, 0, 64, 78
1, 229299, Control_c, 0, 64, 127
1, 229363, Note_off_c, 0, 70, 50
1, 229382, Note_off_c, 0, 30, 60
1, 229399, Note_off_c, 0, 42, 61
1, 229435, Note_off_c, 0, 82, 52
1, 229468, Note_off_c, 0, 76, 31
1, 229533, Note_on_c, 0, 46, 89
1, 229536, Note_on_c, 0, 34, 91
1, 229536, Note_on_c, 0, 83, 82
1, 229543, Note_on_c, 0, 71, 75
1, 229550, Note_on_c, 0, 76, 56
1, 229620, Note_off_c, 0, 46, 59
1, 229628, Note_off_c, 0, 34, 61
1, 229643, Note_off_c, 0, 83, 59
1, 229679, Note_off_c, 0, 71, 51
1, 229737, Note_off_c, 0, 76, 53
1, 229798, Note_on_c, 0, 82, 88
1, 229801, Note_on_c, 0, 70, 93
1, 229809, Note_on_c, 0, 49, 100
1, 229811, Note_on_c, 0, 37, 94
1, 229818, Note_on_c, 0, 76, 72
1, 229903, Note_off_c, 0, 49, 57
1, 229909, Note_off_c, 0, 37, 61
1, 229953, Note_off_c, 0, 70, 61
1, 229958, Note_off_c, 0, 82, 53
1, 229998, Note_off_c, 0, 76, 50
1, 230037, Note_on_c, 0, 83, 97
1, 230040, Note_on_c, 0, 71, 92
1, 230042, Note_on_c, 0, 76, 63
1, 230043, Note_on_c, 0, 52, 97
1, 230051, Note_on_c, 0, 40, 90
1, 230138, Note_off_c, 0, 40, 61
1, 230147, Note_off_c, 0, 83, 58
1, 230165, Note_off_c, 0, 71, 52
1, 230167, Note_off_c, 0, 52, 60
1, 230209, Note_off_c, 0, 76, 64
1, 230212, Control_c, 0, 64, 103
1, 230227, Control_c, 0, 64, 109
1, 230241, Note_on_c, 0, 54, 100
1, 230241, Note_on_c, 0, 82, 94
1, 230242, Control_c, 0, 64, 127
1, 230242, Note_on_c, 0, 70, 98
1, 230243, Note_on_c, 0, 42, 94
1, 230243, Note_on_c, 0, 76, 78
1, 230320, Note_off_c, 0, 42, 63
1, 230331, Note_off_c, 0, 70, 64
1, 230341, Note_off_c, 0, 54, 57
1, 230374, Note_off_c, 0, 82, 57
1, 230375, Control_c, 0, 64, 115
1, 230384, Note_off_c, 0, 76, 47
1, 230390, Control_c, 0, 64, 70
1, 230404, Control_c, 0, 64, 66
1, 230416, Note_on_c, 0, 58, 108
1, 230418, Note_on_c, 0, 71, 102
1, 230418, Note_on_c, 0, 83, 109
1, 230419, Control_c, 0, 64, 88
1, 230420, Note_on_c, 0, 46, 101
1, 230420, Note_on_c, 0, 76, 67
1, 230434, Control_c, 0, 64, 127
1, 230506, Note_off_c, 0, 46, 62
1, 230511, Note_off_c, 0, 83, 60
1, 230526, Note_off_c, 0, 58, 56
1, 230527, Note_off_c, 0, 71, 54
1, 230585, Note_off_c, 0, 76, 64
1, 230590, Control_c, 0, 64, 64
1, 230605, Control_c, 0, 64, 50
1, 230612, Note_on_c, 0, 70, 106
1, 230612, Note_on_c, 0, 76, 84
1, 230613, Note_on_c, 0, 61, 116
1, 230613, Note_on_c, 0, 82, 101
1, 230618, Note_on_c, 0, 49, 106
1, 230619, Control_c, 0, 64, 64
1, 230634, Control_c, 0, 64, 127
1, 230747, Poly_aftertouch_c, 0, 48, 0
1, 230752, Note_off_c, 0, 70, 60
1, 230758, Note_off_c, 0, 49, 56
1, 230759, Note_off_c, 0, 61, 55
1, 230785, Note_off_c, 0, 82, 55
1, 230812, Control_c, 0, 64, 89
1, 230815, Note_off_c, 0, 76, 55
1, 230827, Control_c, 0, 64, 47
1, 230842, Control_c, 0, 64, 0
1, 230845, Note_on_c, 0, 83, 102
1, 230847, Note_on_c, 0, 71, 103
1, 230847, Note_on_c, 0, 76, 75
1, 230850, Note_on_c, 0, 63, 112
1, 230853, Note_on_c, 0, 51, 103
1, 230856, Control_c, 0, 64, 61
1, 230871, Control_c, 0, 64, 127
1, 230877, Note_on_c, 0, 64, 66
1, 230895, Note_off_c, 0, 64, 68
1, 230974, Note_off_c, 0, 83, 60
1, 230987, Note_off_c, 0, 71, 53
1, 231017, Note_off_c, 0, 51, 53
1, 231019, Note_off_c, 0, 63, 53
1, 231076, Note_off_c, 0, 76, 64
1, 231093, Note_on_c, 0, 82, 103
1, 231094, Note_on_c, 0, 70, 111
1, 231095, Note_on_c, 0, 64, 120
1, 231101, Note_on_c, 0, 52, 100
1, 231121, Note_off_c, 0, 70, 70
1, 231122, Note_off_c, 0, 82, 70
1, 231126, Note_on_c, 0, 54, 59
1, 231146, Note_off_c, 0, 54, 61
1, 231289, Note_off_c, 0, 52, 45
1, 231342, Note_off_c, 0, 64, 54
1, 231442, Control_c, 0, 64, 77
1, 231444, Note_on_c, 0, 69, 110
1, 231444, Note_on_c, 0, 76, 98
1, 231444, Note_on_c, 0, 81, 105
1, 231446, Note_on_c, 0, 73, 104
1, 231447, Note_on_c, 0, 65, 110
1, 231450, Note_on_c, 0, 53, 97
1, 231450, Note_on_c, 0, 61, 100
1, 231457, Control_c, 0, 64, 35
1, 231472, Control_c, 0, 64, 0
1, 231487, Control_c, 0, 64, 51
1, 231501, Control_c, 0, 64, 88
1, 231516, Control_c, 0, 64, 127
1, 231705, Note_off_c, 0, 65, 54
1, 231723, Note_off_c, 0, 53, 53
1, 231751, Note_off_c, 0, 81, 57
1, 231763, Note_off_c, 0, 69, 52
1, 231793, Poly_aftertouch_c, 0, 58, 127
1, 231798, Note_off_c, 0, 61, 42
1, 231813, Note_off_c, 0, 73, 53
1, 231840, Poly_aftertouch_c, 0, 58, 0
1, 231856, Note_off_c, 0, 76, 0
1, 231869, Note_on_c, 0, 70, 110
1, 231872, Note_on_c, 0, 82, 102
1, 231874, Note_on_c, 0, 73, 88
1, 231875, Note_on_c, 0, 66, 107
1, 231879, Note_on_c, 0, 61, 94
1, 231880, Note_on_c, 0, 54, 92
1, 231894, Poly_aftertouch_c, 0, 76, 127
1, 231897, Note_on_c, 0, 80, 66
1, 231900, Note_on_c, 0, 56, 63
1, 231900, Note_off_c, 0, 56, 127
1, 231918, Note_off_c, 0, 66, 68
1, 231934, Note_off_c, 0, 61, 67
1, 231950, Note_off_c, 0, 73, 59
1, 231956, Poly_aftertouch_c, 0, 69, 127
1, 231957, Note_off_c, 0, 54, 62
1, 231986, Note_off_c, 0, 80, 57
1, 231991, Poly_aftertouch_c, 0, 69, 0
1, 232025, Poly_aftertouch_c, 0, 76, 0
1, 232165, Note_off_c, 0, 82, 60
1, 232189, Note_off_c, 0, 70, 59
1, 232309, Control_c, 0, 64, 83
1, 232324, Control_c, 0, 64, 0
1, 232352, Note_on_c, 0, 85, 101
1, 232353, Note_on_c, 0, 40, 112
1, 232354, Note_on_c, 0, 28, 98
1, 232354, Note_on_c, 0, 80, 88
1, 232354, Control_c, 0, 64, 62
1, 232355, Note_on_c, 0, 73, 94
1, 232358, Note_on_c, 0, 76, 85
1, 232369, Control_c, 0, 64, 127
1, 232391, Note_off_c, 0, 28, 67
1, 232418, Note_off_c, 0, 40, 66
1, 232502, Note_off_c, 0, 85, 59
1, 232518, Note_off_c, 0, 73, 54
1, 232773, Note_on_c, 0, 56, 99
1, 232777, Note_on_c, 0, 47, 82
1, 232782, Note_on_c, 0, 52, 75
1, 232810, Note_on_c, 0, 48, 61
1, 232824, Note_off_c, 0, 76, 34
1, 232840, Note_off_c, 0, 48, 35
1, 232851, Note_off_c, 0, 47, 63
1, 232875, Note_off_c, 0, 80, 50
1, 232883, Note_off_c, 0, 56, 61
1, 232919, Note_off_c, 0, 52, 47
1, 232982, Note_on_c, 0, 59, 103
1, 232983, Note_on_c, 0, 83, 99
1, 232985, Note_on_c, 0, 71, 99
1, 232986, Note_on_c, 0, 56, 97
1, 232988, Note_on_c, 0, 76, 97
1, 232991, Note_on_c, 0, 52, 72
1, 233016, Note_off_c, 0, 71, 67
1, 233021, Note_off_c, 0, 76, 69
1, 233021, Note_off_c, 0, 52, 64
1, 233024, Note_off_c, 0, 83, 66
1, 233027, Note_off_c, 0, 56, 63
1, 233049, Note_off_c, 0, 59, 67
1, 233155, Note_on_c, 0, 64, 100
1, 233161, Note_on_c, 0, 56, 88
1, 233167, Note_on_c, 0, 59, 72
1, 233184, Note_off_c, 0, 59, 74
1, 233204, Note_off_c, 0, 56, 65
1, 233214, Note_off_c, 0, 64, 66
1, 233387, Note_on_c, 0, 82, 104
1, 233390, Note_on_c, 0, 73, 99
1, 233390, Note_on_c, 0, 70, 105
1, 233392, Note_on_c, 0, 68, 105
1, 233396, Note_on_c, 0, 58, 94
1, 233399, Note_on_c, 0, 61, 89
1, 233399, Note_on_c, 0, 64, 94
1, 233474, Control_c, 0, 64, 71
1, 233489, Control_c, 0, 64, 36
1, 233503, Control_c, 0, 64, 0
1, 233507, Poly_aftertouch_c, 0, 71, 0
1, 233570, Control_c, 0, 64, 52
1, 233585, Control_c, 0, 64, 75
1, 233600, Control_c, 0, 64, 127
1, 233626, Note_off_c, 0, 58, 55
1, 233643, Note_off_c, 0, 68, 53
1, 233644, Note_off_c, 0, 82, 57
1, 233649, Note_off_c, 0, 64, 53
1, 233696, Note_off_c, 0, 61, 58
1, 233747, Note_off_c, 0, 70, 52
1, 234219, Note_on_c, 0, 80, 71
1, 234247, Note_on_c, 0, 68, 54
1, 234311, Note_off_c, 0, 73, 56
1, 234381, Note_off_c, 0, 80, 60
1, 234387, Note_off_c, 0, 68, 58
1, 234463, Note_on_c, 0, 39, 66
1, 234464, Note_on_c, 0, 80, 65
1, 234493, Note_on_c, 0, 71, 46
1, 234497, Note_on_c, 0, 68, 34
1, 234527, Control_c, 0, 64, 74
1, 234542, Control_c, 0, 64, 55
1, 234557, Control_c, 0, 64, 35
1, 234571, Control_c, 0, 64, 0
1, 234586, Control_c, 0, 64, 30
1, 234601, Note_on_c, 0, 47, 70
1, 234601, Control_c, 0, 64, 45
1, 234616, Control_c, 0, 64, 63
1, 234631, Control_c, 0, 64, 75
1, 234645, Control_c, 0, 64, 98
1, 234660, Control_c, 0, 64, 127
1, 234679, Note_off_c, 0, 80, 59
1, 234683, Note_off_c, 0, 39, 57
1, 234710, Note_on_c, 0, 51, 83
1, 234714, Note_off_c, 0, 47, 63
1, 234728, Note_off_c, 0, 68, 59
1, 234761, Note_off_c, 0, 51, 61
1, 234808, Note_on_c, 0, 78, 94
1, 234814, Note_on_c, 0, 66, 85
1, 234834, Note_on_c, 0, 54, 75
1, 234922, Note_on_c, 0, 59, 84
1, 234940, Note_off_c, 0, 66, 57
1, 234944, Note_off_c, 0, 54, 60
1, 234989, Note_off_c, 0, 78, 50
1, 235017, Note_on_c, 0, 63, 70
1, 235019, Note_off_c, 0, 59, 64
1, 235024, Note_on_c, 0, 51, 87
1, 235051, Note_off_c, 0, 63, 67
1, 235104, Note_on_c, 0, 59, 78
1, 235165, Note_on_c, 0, 63, 91
1, 235176, Poly_aftertouch_c, 0, 56, 127
1, 235187, Control_c, 0, 64, 96
1, 235201, Control_c, 0, 64, 68
1, 235216, Control_c, 0, 64, 46
1, 235231, Control_c, 0, 64, 0
1, 235235, Note_on_c, 0, 79, 84
1, 235253, Note_on_c, 0, 67, 77
1, 235275, Control_c, 0, 64, 32
1, 235290, Control_c, 0, 64, 54
1, 235305, Control_c, 0, 64, 72
1, 235319, Control_c, 0, 64, 106
1, 235334, Control_c, 0, 64, 127
1, 235337, Note_off_c, 0, 51, 60
1, 235375, Note_off_c, 0, 63, 58
1, 235378, Note_off_c, 0, 59, 59
1, 235384, Note_off_c, 0, 71, 62
1, 235409, Poly_aftertouch_c, 0, 56, 0
1, 235456, Note_off_c, 0, 67, 63
1, 235533, Note_on_c, 0, 80, 103
1, 235534, Note_on_c, 0, 68, 101
1, 235557, Note_off_c, 0, 79, 65
1, 235559, Note_on_c, 0, 67, 71
1, 235575, Note_off_c, 0, 67, 66
1, 235621, Note_on_c, 0, 78, 39
1, 235656, Note_on_c, 0, 75, 40
1, 235661, Note_off_c, 0, 68, 60
1, 235700, Note_off_c, 0, 75, 49
1, 235733, Note_off_c, 0, 78, 53
1, 235733, Note_off_c, 0, 80, 59
1, 235758, Note_on_c, 0, 70, 108
1, 235758, Note_on_c, 0, 82, 103
1, 235820, Note_on_c, 0, 76, 20
1, 235902, Note_off_c, 0, 70, 63
1, 235911, Note_off_c, 0, 82, 56
1, 235980, Control_c, 0, 64, 99
1, 235991, Note_off_c, 0, 76, 0
1, 235995, Control_c, 0, 64, 59
1, 236001, Note_on_c, 0, 28, 97
1, 236004, Note_on_c, 0, 40, 104
1, 236004, Note_on_c, 0, 76, 62
1, 236006, Note_on_c, 0, 85, 101
1, 236008, Note_on_c, 0, 80, 88
1, 236010, Control_c, 0, 64, 0
1, 236011, Note_on_c, 0, 73, 87
1, 236024, Control_c, 0, 64, 40
1, 236034, Note_on_c, 0, 38, 54
1, 236034, Note_off_c, 0, 38, 127
1, 236039, Control_c, 0, 64, 71
1, 236053, Note_off_c, 0, 28, 64
1, 236054, Control_c, 0, 64, 127
1, 236082, Note_off_c, 0, 40, 66
1, 236167, Note_off_c, 0, 85, 58
1, 236209, Note_off_c, 0, 73, 56
1, 236264, Note_on_c, 0, 56, 88
1, 236273, Note_on_c, 0, 47, 75
1, 236273, Note_on_c, 0, 52, 82
1, 236315, Note_off_c, 0, 47, 53
1, 236347, Note_off_c, 0, 56, 61
1, 236358, Note_off_c, 0, 80, 54
1, 236364, Note_off_c, 0, 52, 58
1, 236370, Note_off_c, 0, 76, 36
1, 236424, Note_on_c, 0, 59, 103
1, 236425, Note_on_c, 0, 83, 98
1, 236426, Note_on_c, 0, 71, 101
1, 236429, Note_on_c, 0, 56, 101
1, 236429, Note_on_c, 0, 76, 89
1, 236432, Note_on_c, 0, 52, 77
1, 236461, Note_off_c, 0, 71, 65
1, 236461, Note_off_c, 0, 52, 64
1, 236466, Note_off_c, 0, 76, 69
1, 236468, Note_off_c, 0, 56, 64
1, 236473, Note_off_c, 0, 83, 67
1, 236491, Note_off_c, 0, 59, 65
1, 236599, Note_on_c, 0, 64, 102
1, 236609, Note_on_c, 0, 56, 89
1, 236633, Note_off_c, 0, 56, 67
1, 236641, Note_on_c, 0, 60, 25
1, 236646, Note_off_c, 0, 64, 70
1, 236681, Note_off_c, 0, 60, 43
1, 236824, Note_on_c, 0, 82, 101
1, 236825, Note_on_c, 0, 73, 90
1, 236830, Note_on_c, 0, 70, 93
1, 236832, Note_on_c, 0, 68, 99
1, 236838, Note_on_c, 0, 64, 89
1, 236839, Note_on_c, 0, 58, 88
1, 236842, Note_on_c, 0, 61, 80
1, 236892, Control_c, 0, 64, 115
1, 236906, Control_c, 0, 64, 74
1, 236921, Control_c, 0, 64, 54
1, 236936, Control_c, 0, 64, 0
1, 237025, Control_c, 0, 64, 46
1, 237040, Control_c, 0, 64, 61
1, 237054, Control_c, 0, 64, 70
1, 237063, Note_off_c, 0, 58, 56
1, 237069, Control_c, 0, 64, 81
1, 237084, Control_c, 0, 64, 94
1, 237092, Poly_aftertouch_c, 0, 78, 127
1, 237095, Note_off_c, 0, 64, 51
1, 237096, Note_off_c, 0, 68, 52
1, 237098, Control_c, 0, 64, 115
1, 237113, Control_c, 0, 64, 127
1, 237136, Note_off_c, 0, 61, 54
1, 237137, Note_off_c, 0, 82, 56
1, 237210, Note_off_c, 0, 70, 37
1, 237541, Note_on_c, 0, 80, 67
1, 237555, Note_on_c, 0, 68, 48
1, 237636, Note_off_c, 0, 73, 59
1, 237640, Poly_aftertouch_c, 0, 76, 127
1, 237676, Note_off_c, 0, 80, 55
1, 237677, Poly_aftertouch_c, 0, 76, 0
1, 237703, Note_off_c, 0, 68, 56
1, 237718, Poly_aftertouch_c, 0, 78, 0
1, 237773, Note_on_c, 0, 80, 68
1, 237781, Note_on_c, 0, 39, 68
1, 237787, Note_on_c, 0, 71, 51
1, 237799, Note_on_c, 0, 68, 26
1, 237804, Control_c, 0, 64, 81
1, 237819, Control_c, 0, 64, 62
1, 237834, Control_c, 0, 64, 46
1, 237848, Control_c, 0, 64, 33
1, 237863, Control_c, 0, 64, 32
1, 237878, Control_c, 0, 64, 41
1, 237893, Control_c, 0, 64, 55
1, 237908, Control_c, 0, 64, 65
1, 237910, Note_on_c, 0, 47, 78
1, 237922, Control_c, 0, 64, 75
1, 237937, Control_c, 0, 64, 94
1, 237952, Control_c, 0, 64, 127
1, 237995, Note_off_c, 0, 39, 60
1, 237996, Note_off_c, 0, 80, 55
1, 238018, Note_off_c, 0, 47, 62
1, 238019, Note_on_c, 0, 51, 84
1, 238028, Note_off_c, 0, 68, 52
1, 238074, Note_off_c, 0, 51, 61
1, 238127, Note_on_c, 0, 78, 90
1, 238136, Note_on_c, 0, 66, 85
1, 238145, Note_on_c, 0, 54, 79
1, 238212, Note_on_c, 0, 56, 32
1, 238231, Note_on_c, 0, 59, 86
1, 238257, Note_off_c, 0, 56, 49
1, 238258, Note_off_c, 0, 54, 60
1, 238259, Note_off_c, 0, 66, 49
1, 238318, Note_on_c, 0, 63, 83
1, 238318, Note_off_c, 0, 78, 56
1, 238326, Note_off_c, 0, 59, 64
1, 238359, Note_on_c, 0, 51, 86
1, 238378, Note_off_c, 0, 63, 63
1, 238411, Note_on_c, 0, 59, 79
1, 238464, Note_on_c, 0, 63, 95
1, 238507, Note_on_c, 0, 79, 91
1, 238508, Control_c, 0, 64, 83
1, 238518, Note_on_c, 0, 67, 87
1, 238523, Control_c, 0, 64, 58
1, 238538, Control_c, 0, 64, 0
1, 238598, Control_c, 0, 64, 55
1, 238612, Control_c, 0, 64, 82
1, 238627, Control_c, 0, 64, 127
1, 238651, Note_off_c, 0, 63, 61
1, 238676, Note_off_c, 0, 71, 60
1, 238696, Note_off_c, 0, 59, 58
1, 238717, Note_off_c, 0, 51, 60
1, 238752, Note_off_c, 0, 67, 62
1, 238836, Note_on_c, 0, 68, 104
1, 238836, Note_on_c, 0, 80, 108
1, 238861, Note_off_c, 0, 79, 62
1, 238870, Note_on_c, 0, 67, 57
1, 238893, Note_off_c, 0, 67, 61
1, 238942, Note_on_c, 0, 78, 38
1, 238994, Note_off_c, 0, 68, 55
1, 239069, Note_off_c, 0, 80, 57
1, 239096, Note_on_c, 0, 82, 105
1, 239096, Note_on_c, 0, 70, 112
1, 239096, Note_off_c, 0, 78, 38
1, 239118, Note_on_c, 0, 76, 71
1, 239239, Note_off_c, 0, 70, 61
1, 239257, Note_off_c, 0, 76, 0
1, 239264, Note_off_c, 0, 82, 56
1, 239283, Note_on_c, 0, 76, 21
1, 239405, Note_off_c, 0, 76, 0
1, 239405, Note_on_c, 0, 76, 48
1, 239406, Control_c, 0, 64, 92
1, 239409, Note_on_c, 0, 85, 101
1, 239412, Note_on_c, 0, 40, 101
1, 239412, Note_on_c, 0, 73, 103
1, 239413, Note_on_c, 0, 28, 107
1, 239415, Note_on_c, 0, 80, 96
1, 239421, Control_c, 0, 64, 52
1, 239435, Control_c, 0, 64, 0
1, 239441, Note_on_c, 0, 38, 51
1, 239450, Control_c, 0, 64, 38
1, 239463, Note_off_c, 0, 28, 63
1, 239465, Control_c, 0, 64, 77
1, 239476, Note_off_c, 0, 38, 56
1, 239480, Control_c, 0, 64, 127
1, 239494, Note_off_c, 0, 40, 66
1, 239546, Poly_aftertouch_c, 0, 34, 0
1, 239568, Note_off_c, 0, 85, 59
1, 239656, Note_off_c, 0, 73, 51
1, 239728, Note_on_c, 0, 56, 100
1, 239733, Note_on_c, 0, 47, 85
1, 239738, Note_on_c, 0, 52, 91
1, 239787, Note_off_c, 0, 47, 62
1, 239820, Note_off_c, 0, 76, 37
1, 239835, Note_off_c, 0, 56, 59
1, 239850, Note_off_c, 0, 80, 52
1, 239869, Note_off_c, 0, 52, 54
1, 239906, Note_on_c, 0, 83, 102
1, 239906, Note_on_c, 0, 71, 106
1, 239909, Note_on_c, 0, 59, 101
1, 239910, Note_on_c, 0, 76, 96
1, 239911, Note_on_c, 0, 56, 101
1, 239912, Note_on_c, 0, 52, 68
1, 239939, Note_off_c, 0, 71, 67
1, 239943, Note_off_c, 0, 76, 70
1, 239949, Note_off_c, 0, 83, 67
1, 239956, Note_off_c, 0, 52, 63
1, 239969, Note_off_c, 0, 56, 62
1, 239984, Note_off_c, 0, 59, 65
1, 240091, Note_on_c, 0, 64, 102
1, 240092, Note_on_c, 0, 56, 94
1, 240138, Note_off_c, 0, 56, 63
1, 240138, Note_off_c, 0, 64, 68
1, 240202, Poly_aftertouch_c, 0, 62, 0
1, 240433, Note_on_c, 0, 82, 103
1, 240434, Note_on_c, 0, 70, 96
1, 240435, Note_on_c, 0, 73, 95
1, 240440, Note_on_c, 0, 68, 97
1, 240443, Note_on_c, 0, 64, 94
1, 240446, Note_on_c, 0, 61, 85
1, 240457, Note_on_c, 0, 58, 83
1, 240532, Control_c, 0, 64, 81
1, 240546, Control_c, 0, 64, 61
1, 240553, Poly_aftertouch_c, 0, 80, 0
1, 240561, Control_c, 0, 64, 45
1, 240576, Control_c, 0, 64, 0
1, 241117, Control_c, 0, 64, 34
1, 241132, Control_c, 0, 64, 49
1, 241147, Control_c, 0, 64, 59
1, 241147, Control_c, 0, 67, 81
1, 241161, Control_c, 0, 64, 65
1, 241161, Control_c, 0, 67, 127
1, 241176, Control_c, 0, 64, 69
1, 241191, Control_c, 0, 64, 75
1, 241194, Note_off_c, 0, 68, 53
1, 241196, Note_off_c, 0, 64, 54
1, 241202, Note_off_c, 0, 58, 49
1, 241206, Control_c, 0, 64, 82
1, 241212, Note_off_c, 0, 82, 45
1, 241221, Control_c, 0, 64, 93
1, 241236, Control_c, 0, 64, 113
1, 241251, Control_c, 0, 64, 127
1, 241264, Note_off_c, 0, 70, 59
1, 241272, Note_off_c, 0, 61, 60
1, 241547, Note_on_c, 0, 80, 58
1, 241576, Note_on_c, 0, 68, 47
1, 241611, Note_off_c, 0, 73, 51
1, 241668, Note_off_c, 0, 80, 39
1, 241695, Note_off_c, 0, 68, 38
1, 241807, Control_c, 0, 64, 101
1, 241820, Control_c, 0, 64, 84
1, 241822, Note_on_c, 0, 80, 49
1, 241825, Note_on_c, 0, 39, 47
1, 241835, Control_c, 0, 64, 71
1, 241847, Note_on_c, 0, 68, 27
1, 241847, Note_on_c, 0, 71, 33
1, 241850, Control_c, 0, 64, 61
1, 241865, Control_c, 0, 64, 54
1, 241880, Control_c, 0, 64, 52
1, 241925, Control_c, 0, 64, 53
1, 241939, Control_c, 0, 64, 55
1, 241954, Control_c, 0, 64, 59
1, 241969, Control_c, 0, 64, 62
1, 241984, Control_c, 0, 64, 65
1, 241999, Control_c, 0, 64, 68
1, 242013, Control_c, 0, 64, 72
1, 242028, Control_c, 0, 64, 75
1, 242043, Control_c, 0, 64, 78
1, 242058, Control_c, 0, 64, 81
1, 242073, Control_c, 0, 64, 86
1, 242087, Control_c, 0, 64, 90
1, 242102, Control_c, 0, 64, 95
1, 242118, Control_c, 0, 64, 101
1, 242133, Control_c, 0, 64, 107
1, 242143, Note_off_c, 0, 39, 41
1, 242147, Note_off_c, 0, 80, 53
1, 242148, Control_c, 0, 64, 116
1, 242156, Note_on_c, 0, 51, 50
1, 242163, Control_c, 0, 64, 127
1, 242194, Note_off_c, 0, 51, 62
1, 242209, Note_off_c, 0, 68, 37
1, 242366, Note_on_c, 0, 78, 49
1, 242399, Note_on_c, 0, 54, 49
1, 242401, Note_on_c, 0, 66, 25
1, 242498, Note_off_c, 0, 66, 32
1, 242498, Note_off_c, 0, 71, 41
1, 242512, Note_off_c, 0, 78, 51
1, 242559, Note_on_c, 0, 63, 60
1, 242570, Note_on_c, 0, 59, 54
1, 242598, Note_on_c, 0, 67, 53
1, 242616, Note_off_c, 0, 54, 34
1, 242628, Note_on_c, 0, 71, 54
1, 242654, Note_off_c, 0, 63, 51
1, 242676, Note_on_c, 0, 75, 64
1, 242691, Note_off_c, 0, 59, 51
1, 242747, Note_on_c, 0, 79, 69
1, 242924, Note_off_c, 0, 79, 64
1, 242929, Note_off_c, 0, 67, 58
1, 242978, Note_on_c, 0, 54, 35
1, 243162, Note_on_c, 0, 80, 54
1, 243168, Note_on_c, 0, 59, 46
1, 243194, Note_on_c, 0, 68, 37
1, 243254, Note_off_c, 0, 59, 50
1, 243320, Note_off_c, 0, 75, 53
1, 243334, Note_off_c, 0, 71, 54
1, 243357, Note_on_c, 0, 51, 45
1, 243374, Note_off_c, 0, 54, 38
1, 243390, Note_off_c, 0, 51, 61
1, 243570, Control_c, 0, 64, 120
1, 243572, Note_on_c, 0, 73, 49
1, 243585, Control_c, 0, 64, 101
1, 243592, Note_on_c, 0, 70, 42
1, 243600, Control_c, 0, 64, 85
1, 243605, Note_on_c, 0, 40, 60
1, 243615, Control_c, 0, 64, 73
1, 243630, Control_c, 0, 64, 62
1, 243645, Control_c, 0, 64, 50
1, 243659, Control_c, 0, 64, 41
1, 243674, Control_c, 0, 64, 36
1, 243689, Control_c, 0, 64, 35
1, 243719, Control_c, 0, 64, 36
1, 243734, Control_c, 0, 64, 42
1, 243749, Control_c, 0, 64, 49
1, 243764, Control_c, 0, 64, 56
1, 243776, Note_off_c, 0, 80, 58
1, 243779, Control_c, 0, 64, 60
1, 243794, Control_c, 0, 64, 63
1, 243808, Control_c, 0, 64, 67
1, 243823, Control_c, 0, 64, 71
1, 243824, Note_off_c, 0, 40, 61
1, 243838, Control_c, 0, 64, 77
1, 243841, Note_off_c, 0, 68, 53
1, 243853, Control_c, 0, 64, 84
1, 243868, Control_c, 0, 64, 89
1, 243882, Control_c, 0, 64, 92
1, 243897, Control_c, 0, 64, 95
1, 243901, Poly_aftertouch_c, 0, 52, 127
1, 243912, Control_c, 0, 64, 100
1, 243927, Control_c, 0, 64, 106
1, 243937, Poly_aftertouch_c, 0, 52, 0
1, 243942, Control_c, 0, 64, 119
1, 243956, Control_c, 0, 64, 127
1, 243993, Note_on_c, 0, 78, 63
1, 244020, Note_on_c, 0, 54, 48
1, 244037, Note_on_c, 0, 66, 44
1, 244122, Note_off_c, 0, 78, 53
1, 244124, Note_off_c, 0, 66, 40
1, 244130, Note_off_c, 0, 73, 30
1, 244158, Note_off_c, 0, 70, 42
1, 244164, Note_on_c, 0, 61, 51
1, 244167, Note_on_c, 0, 58, 57
1, 244214, Note_on_c, 0, 67, 60
1, 244257, Note_on_c, 0, 70, 64
1, 244290, Note_on_c, 0, 73, 59
1, 244314, Note_off_c, 0, 61, 37
1, 244331, Note_off_c, 0, 54, 54
1, 244367, Note_on_c, 0, 79, 80
1, 244458, Note_off_c, 0, 58, 27
1, 244534, Note_on_c, 0, 54, 53
1, 244569, Note_off_c, 0, 79, 64
1, 244588, Note_off_c, 0, 67, 62
1, 244606, Note_off_c, 0, 70, 62
1, 244706, Note_off_c, 0, 54, 51
1, 244727, Note_on_c, 0, 58, 45
1, 244763, Note_on_c, 0, 80, 60
1, 244811, Note_on_c, 0, 68, 42
1, 244842, Note_off_c, 0, 58, 55
1, 244909, Note_on_c, 0, 52, 57
1, 244944, Note_off_c, 0, 52, 63
1, 244960, Note_off_c, 0, 73, 61
1, 245105, Note_on_c, 0, 71, 61
1, 245130, Note_on_c, 0, 39, 58
1, 245143, Control_c, 0, 64, 90
1, 245158, Control_c, 0, 64, 68
1, 245173, Control_c, 0, 64, 52
1, 245187, Control_c, 0, 64, 42
1, 245202, Control_c, 0, 64, 41
1, 245217, Control_c, 0, 64, 45
1, 245231, Control_c, 0, 64, 54
1, 245246, Control_c, 0, 64, 63
1, 245261, Control_c, 0, 64, 69
1, 245263, Note_off_c, 0, 80, 62
1, 245276, Control_c, 0, 64, 77
1, 245281, Note_off_c, 0, 68, 63
1, 245283, Note_off_c, 0, 39, 62
1, 245291, Control_c, 0, 64, 82
1, 245307, Control_c, 0, 64, 85
1, 245308, Note_on_c, 0, 51, 56
1, 245322, Control_c, 0, 64, 87
1, 245336, Control_c, 0, 64, 90
1, 245338, Note_off_c, 0, 51, 63
1, 245351, Control_c, 0, 64, 92
1, 245366, Control_c, 0, 64, 96
1, 245381, Control_c, 0, 64, 100
1, 245396, Control_c, 0, 64, 105
1, 245410, Control_c, 0, 64, 113
1, 245425, Control_c, 0, 64, 127
1, 245453, Note_on_c, 0, 78, 69
1, 245481, Note_on_c, 0, 54, 54
1, 245489, Note_on_c, 0, 66, 28
1, 245563, Note_off_c, 0, 71, 48
1, 245610, Note_off_c, 0, 66, 28
1, 245616, Note_off_c, 0, 78, 59
1, 245626, Note_on_c, 0, 59, 62
1, 245632, Note_on_c, 0, 63, 65
1, 245675, Note_on_c, 0, 67, 56
1, 245722, Note_on_c, 0, 71, 53
1, 245764, Note_on_c, 0, 75, 68
1, 245800, Note_off_c, 0, 63, 38
1, 245817, Note_off_c, 0, 54, 48
1, 245850, Note_on_c, 0, 79, 78
1, 245856, Note_off_c, 0, 59, 57
1, 246026, Note_on_c, 0, 54, 56
1, 246030, Note_off_c, 0, 79, 64
1, 246043, Note_off_c, 0, 67, 62
1, 246191, Note_on_c, 0, 80, 62
1, 246194, Note_on_c, 0, 59, 53
1, 246224, Note_on_c, 0, 68, 29
1, 246280, Note_off_c, 0, 59, 49
1, 246321, Note_off_c, 0, 75, 28
1, 246334, Note_off_c, 0, 71, 43
1, 246336, Note_on_c, 0, 51, 65
1, 246357, Note_off_c, 0, 54, 24
1, 246363, Note_off_c, 0, 51, 64
1, 246491, Note_on_c, 0, 37, 75
1, 246491, Control_c, 0, 64, 90
1, 246505, Note_on_c, 0, 76, 60
1, 246506, Control_c, 0, 64, 71
1, 246521, Control_c, 0, 64, 57
1, 246536, Control_c, 0, 64, 41
1, 246551, Control_c, 0, 64, 0
1, 246554, Note_on_c, 0, 70, 45
1, 246566, Control_c, 0, 64, 29
1, 246581, Control_c, 0, 64, 39
1, 246596, Control_c, 0, 64, 51
1, 246602, Note_off_c, 0, 80, 60
1, 246610, Control_c, 0, 64, 61
1, 246625, Control_c, 0, 64, 67
1, 246632, Note_off_c, 0, 68, 60
1, 246640, Control_c, 0, 64, 74
1, 246655, Control_c, 0, 64, 81
1, 246669, Note_off_c, 0, 37, 63
1, 246670, Control_c, 0, 64, 85
1, 246680, Note_on_c, 0, 49, 59
1, 246684, Control_c, 0, 64, 89
1, 246699, Control_c, 0, 64, 91
1, 246711, Note_off_c, 0, 49, 63
1, 246714, Control_c, 0, 64, 93
1, 246729, Control_c, 0, 64, 95
1, 246734, Note_off_c, 0, 76, 0
1, 246744, Control_c, 0, 64, 98
1, 246750, Note_off_c, 0, 70, 0
1, 246758, Control_c, 0, 64, 105
1, 246771, Poly_aftertouch_c, 0, 76, 127
1, 246773, Control_c, 0, 64, 115
1, 246780, Note_on_c, 0, 70, 11
1, 246788, Control_c, 0, 64, 127
1, 246827, Note_on_c, 0, 54, 60
1, 246829, Note_on_c, 0, 78, 70
1, 246842, Note_on_c, 0, 66, 56
1, 246956, Note_off_c, 0, 78, 59
1, 246963, Note_on_c, 0, 64, 72
1, 246975, Note_off_c, 0, 66, 59
1, 246993, Note_on_c, 0, 58, 50
1, 247101, Note_off_c, 0, 54, 54
1, 247134, Note_on_c, 0, 79, 70
1, 247156, Note_on_c, 0, 67, 51
1, 247168, Note_off_c, 0, 70, 21
1, 247227, Poly_aftertouch_c, 0, 76, 0
1, 247245, Note_off_c, 0, 67, 61
1, 247283, Note_on_c, 0, 54, 57
1, 247311, Note_off_c, 0, 64, 38
1, 247353, Note_off_c, 0, 58, 58
1, 247368, Note_on_c, 0, 80, 82
1, 247399, Note_on_c, 0, 68, 59
1, 247414, Note_off_c, 0, 79, 63
1, 247428, Note_off_c, 0, 54, 37
1, 247439, Note_on_c, 0, 64, 43
1, 247461, Note_on_c, 0, 61, 57
1, 247506, Note_off_c, 0, 64, 58
1, 247514, Note_off_c, 0, 68, 62
1, 247580, Note_off_c, 0, 61, 58
1, 247582, Note_on_c, 0, 54, 57
1, 247600, Note_on_c, 0, 81, 83
1, 247619, Note_off_c, 0, 54, 63
1, 247638, Note_on_c, 0, 69, 52
1, 247642, Note_off_c, 0, 80, 60
1, 247842, Control_c, 0, 64, 93
1, 247857, Control_c, 0, 64, 73
1, 247871, Control_c, 0, 64, 58
1, 247878, Note_on_c, 0, 78, 57
1, 247883, Note_on_c, 0, 48, 38
1, 247886, Control_c, 0, 64, 34
1, 247888, Note_on_c, 0, 36, 53
1, 247901, Control_c, 0, 64, 0
1, 247907, Note_on_c, 0, 75, 42
1, 247946, Control_c, 0, 64, 33
1, 247961, Control_c, 0, 64, 51
1, 247976, Control_c, 0, 64, 63
1, 247976, Note_off_c, 0, 81, 63
1, 247989, Note_off_c, 0, 36, 64
1, 247991, Control_c, 0, 64, 73
1, 247994, Note_off_c, 0, 69, 55
1, 248005, Control_c, 0, 64, 82
1, 248012, Note_off_c, 0, 48, 64
1, 248020, Control_c, 0, 64, 91
1, 248035, Control_c, 0, 64, 97
1, 248050, Control_c, 0, 64, 103
1, 248064, Control_c, 0, 64, 110
1, 248079, Control_c, 0, 64, 122
1, 248094, Control_c, 0, 64, 127
1, 248137, Note_on_c, 0, 54, 59
1, 248249, Note_on_c, 0, 79, 64
1, 248275, Note_on_c, 0, 60, 60
1, 248278, Note_on_c, 0, 67, 59
1, 248324, Note_off_c, 0, 78, 28
1, 248349, Note_off_c, 0, 67, 63
1, 248365, Note_off_c, 0, 75, 61
1, 248393, Note_off_c, 0, 54, 28
1, 248399, Note_on_c, 0, 66, 65
1, 248416, Note_on_c, 0, 63, 64
1, 248470, Note_off_c, 0, 66, 59
1, 248491, Note_on_c, 0, 68, 53
1, 248511, Note_off_c, 0, 60, 35
1, 248518, Note_on_c, 0, 75, 68
1, 248551, Note_on_c, 0, 78, 76
1, 248612, Note_on_c, 0, 80, 83
1, 248638, Note_off_c, 0, 63, 52
1, 248651, Note_off_c, 0, 79, 65
1, 248739, Note_on_c, 0, 60, 68
1, 248788, Note_off_c, 0, 68, 59
1, 248894, Note_on_c, 0, 66, 33
1, 248903, Note_on_c, 0, 81, 70
1, 248909, Note_on_c, 0, 63, 64
1, 248930, Note_off_c, 0, 66, 47
1, 248933, Note_on_c, 0, 69, 48
1, 249000, Note_off_c, 0, 78, 48
1, 249008, Note_off_c, 0, 63, 59
1, 249024, Note_on_c, 0, 54, 64
1, 249024, Note_off_c, 0, 60, 57
1, 249028, Note_off_c, 0, 75, 53
1, 249032, Note_off_c, 0, 80, 57
1, 249051, Note_off_c, 0, 54, 66
1, 249198, Control_c, 0, 64, 99
1, 249213, Control_c, 0, 64, 72
1, 249222, Note_on_c, 0, 76, 47
1, 249227, Note_on_c, 0, 37, 66
1, 249228, Control_c, 0, 64, 56
1, 249231, Note_on_c, 0, 49, 59
1, 249243, Control_c, 0, 64, 42
1, 249258, Control_c, 0, 64, 40
1, 249265, Note_on_c, 0, 73, 56
1, 249279, Control_c, 0, 64, 49
1, 249294, Control_c, 0, 64, 60
1, 249297, Note_off_c, 0, 37, 63
1, 249310, Control_c, 0, 64, 70
1, 249315, Note_off_c, 0, 69, 60
1, 249317, Note_off_c, 0, 49, 63
1, 249325, Control_c, 0, 64, 90
1, 249327, Note_off_c, 0, 81, 63
1, 249340, Control_c, 0, 64, 127
1, 249448, Note_on_c, 0, 52, 69
1, 249553, Note_off_c, 0, 76, 0
1, 249568, Note_on_c, 0, 79, 75
1, 249589, Poly_aftertouch_c, 0, 76, 127
1, 249594, Note_on_c, 0, 67, 67
1, 249597, Note_on_c, 0, 56, 73
1, 249669, Note_off_c, 0, 67, 63
1, 249691, Note_off_c, 0, 73, 62
1, 249710, Poly_aftertouch_c, 0, 76, 0
1, 249715, Note_on_c, 0, 64, 74
1, 249735, Note_on_c, 0, 61, 68
1, 249781, Note_on_c, 0, 68, 69
1, 249809, Note_on_c, 0, 73, 66
1, 249817, Note_off_c, 0, 56, 57
1, 249821, Note_on_c, 0, 76, 60
1, 249848, Note_off_c, 0, 64, 51
1, 249882, Note_on_c, 0, 80, 85
1, 249886, Note_off_c, 0, 52, 52
1, 249917, Note_off_c, 0, 79, 64
1, 250011, Note_off_c, 0, 61, 52
1, 250012, Note_on_c, 0, 56, 76
1, 250077, Note_off_c, 0, 68, 58
1, 250106, Note_off_c, 0, 80, 57
1, 250170, Note_on_c, 0, 64, 56
1, 250179, Note_on_c, 0, 81, 77
1, 250186, Note_off_c, 0, 73, 19
1, 250194, Note_on_c, 0, 61, 58
1, 250205, Note_off_c, 0, 64, 65
1, 250209, Note_on_c, 0, 69, 54
1, 250270, Note_off_c, 0, 61, 64
1, 250313, Note_on_c, 0, 52, 57
1, 250321, Note_off_c, 0, 56, 60
1, 250340, Note_off_c, 0, 52, 64
1, 250342, Note_off_c, 0, 76, 59
1, 250473, Control_c, 0, 64, 85
1, 250478, Note_on_c, 0, 78, 66
1, 250488, Control_c, 0, 64, 61
1, 250503, Control_c, 0, 64, 30
1, 250513, Note_on_c, 0, 36, 64
1, 250514, Note_on_c, 0, 75, 57
1, 250515, Note_on_c, 0, 48, 51
1, 250517, Control_c, 0, 64, 0
1, 250547, Control_c, 0, 64, 31
1, 250562, Control_c, 0, 64, 50
1, 250572, Note_off_c, 0, 81, 63
1, 250574, Note_off_c, 0, 36, 63
1, 250576, Control_c, 0, 64, 64
1, 250578, Note_off_c, 0, 69, 60
1, 250591, Control_c, 0, 64, 77
1, 250602, Note_off_c, 0, 48, 63
1, 250606, Control_c, 0, 64, 102
1, 250621, Control_c, 0, 64, 127
1, 250712, Note_on_c, 0, 51, 65
1, 250781, Note_off_c, 0, 78, 51
1, 250815, Note_on_c, 0, 79, 69
1, 250846, Note_on_c, 0, 54, 69
1, 250846, Note_on_c, 0, 67, 64
1, 250896, Control_c, 0, 67, 124
1, 250906, Note_off_c, 0, 67, 63
1, 250912, Control_c, 0, 67, 97
1, 250927, Control_c, 0, 67, 67
1, 250927, Note_off_c, 0, 75, 64
1, 250930, Note_off_c, 0, 51, 51
1, 250942, Control_c, 0, 67, 0
1, 250946, Note_on_c, 0, 63, 75
1, 250978, Note_on_c, 0, 60, 70
1, 251007, Note_off_c, 0, 54, 56
1, 251017, Note_off_c, 0, 63, 61
1, 251033, Note_on_c, 0, 68, 68
1, 251049, Note_on_c, 0, 75, 76
1, 251106, Note_on_c, 0, 78, 74
1, 251154, Note_on_c, 0, 80, 84
1, 251176, Note_off_c, 0, 79, 65
1, 251258, Note_on_c, 0, 54, 72
1, 251281, Note_off_c, 0, 60, 64
1, 251323, Note_off_c, 0, 68, 61
1, 251404, Note_on_c, 0, 63, 64
1, 251429, Note_on_c, 0, 60, 61
1, 251429, Note_on_c, 0, 81, 83
1, 251443, Note_on_c, 0, 69, 63
1, 251463, Note_off_c, 0, 78, 59
1, 251465, Note_off_c, 0, 63, 61
1, 251478, Note_off_c, 0, 80, 59
1, 251490, Note_off_c, 0, 75, 62
1, 251512, Note_off_c, 0, 60, 63
1, 251526, Control_c, 0, 67, 41
1, 251532, Note_on_c, 0, 51, 63
1, 251541, Control_c, 0, 67, 50
1, 251549, Note_off_c, 0, 54, 60
1, 251556, Control_c, 0, 67, 59
1, 251562, Note_off_c, 0, 51, 64
1, 251571, Control_c, 0, 67, 72
1, 251586, Control_c, 0, 67, 89
1, 251600, Control_c, 0, 67, 111
1, 251615, Control_c, 0, 67, 127
1, 251741, Note_on_c, 0, 35, 79
1, 251743, Note_on_c, 0, 77, 56
1, 251750, Control_c, 0, 64, 106
1, 251762, Note_on_c, 0, 74, 54
1, 251764, Control_c, 0, 64, 64
1, 251779, Control_c, 0, 64, 34
1, 251782, Note_on_c, 0, 47, 17
1, 251794, Control_c, 0, 64, 0
1, 251823, Control_c, 0, 64, 44
1, 251830, Note_off_c, 0, 35, 64
1, 251838, Control_c, 0, 64, 61
1, 251853, Control_c, 0, 64, 74
1, 251853, Control_c, 0, 67, 120
1, 251865, Note_off_c, 0, 47, 61
1, 251868, Control_c, 0, 64, 127
1, 251868, Control_c, 0, 67, 108
1, 251877, Note_off_c, 0, 69, 56
1, 251883, Control_c, 0, 67, 85
1, 251887, Note_off_c, 0, 81, 60
1, 251897, Control_c, 0, 67, 45
1, 251912, Control_c, 0, 67, 0
1, 251979, Note_on_c, 0, 53, 58
1, 252087, Note_on_c, 0, 79, 72
1, 252119, Note_on_c, 0, 67, 61
1, 252137, Note_on_c, 0, 59, 53
1, 252181, Note_off_c, 0, 67, 62
1, 252213, Note_off_c, 0, 74, 54
1, 252214, Note_off_c, 0, 77, 56
1, 252227, Note_on_c, 0, 65, 63
1, 252247, Note_on_c, 0, 62, 56
1, 252298, Note_off_c, 0, 59, 53
1, 252299, Note_off_c, 0, 65, 61
1, 252364, Note_on_c, 0, 80, 81
1, 252376, Note_on_c, 0, 68, 64
1, 252396, Note_off_c, 0, 79, 64
1, 252400, Note_off_c, 0, 53, 38
1, 252472, Note_on_c, 0, 59, 51
1, 252477, Poly_aftertouch_c, 0, 74, 127
1, 252483, Note_off_c, 0, 62, 62
1, 252495, Note_off_c, 0, 68, 62
1, 252525, Note_on_c, 0, 78, 35
1, 252574, Note_off_c, 0, 80, 62
1, 252584, Note_off_c, 0, 78, 52
1, 252590, Note_on_c, 0, 65, 63
1, 252591, Note_on_c, 0, 81, 93
1, 252610, Note_on_c, 0, 69, 73
1, 252621, Note_on_c, 0, 62, 63
1, 252650, Note_off_c, 0, 69, 55
1, 252658, Note_off_c, 0, 65, 60
1, 252675, Note_off_c, 0, 81, 65
1, 252743, Note_off_c, 0, 62, 62
1, 252747, Note_on_c, 0, 53, 68
1, 252754, Note_off_c, 0, 59, 27
1, 252790, Note_on_c, 0, 82, 87
1, 252790, Note_off_c, 0, 53, 62
1, 252805, Note_on_c, 0, 70, 75
1, 252849, Poly_aftertouch_c, 0, 74, 0
1, 252915, Note_on_c, 0, 74, 63
1, 252985, Control_c, 0, 64, 75
1, 253000, Control_c, 0, 64, 45
1, 253004, Note_on_c, 0, 34, 68
1, 253019, Note_on_c, 0, 46, 55
1, 253019, Note_on_c, 0, 77, 68
1, 253022, Control_c, 0, 64, 0
1, 253052, Control_c, 0, 64, 58
1, 253067, Control_c, 0, 64, 92
1, 253070, Note_off_c, 0, 82, 56
1, 253071, Note_off_c, 0, 34, 63
1, 253082, Control_c, 0, 64, 127
1, 253084, Note_off_c, 0, 70, 58
1, 253091, Note_off_c, 0, 46, 62
1, 253231, Note_on_c, 0, 56, 68
1, 253360, Note_on_c, 0, 80, 81
1, 253377, Note_on_c, 0, 68, 70
1, 253383, Note_on_c, 0, 58, 70
1, 253499, Note_on_c, 0, 65, 78
1, 253531, Note_on_c, 0, 62, 64
1, 253536, Note_off_c, 0, 68, 63
1, 253615, Note_on_c, 0, 81, 91
1, 253628, Note_on_c, 0, 69, 77
1, 253663, Note_off_c, 0, 56, 58
1, 253665, Note_off_c, 0, 58, 61
1, 253678, Note_off_c, 0, 65, 54
1, 253709, Note_off_c, 0, 69, 59
1, 253725, Note_off_c, 0, 81, 62
1, 253745, Note_on_c, 0, 58, 83
1, 253771, Note_off_c, 0, 74, 53
1, 253789, Note_off_c, 0, 80, 42
1, 253795, Note_off_c, 0, 77, 53
1, 253798, Note_off_c, 0, 62, 59
1, 253875, Note_on_c, 0, 65, 66
1, 253875, Note_on_c, 0, 82, 91
1, 253884, Note_on_c, 0, 70, 83
1, 253913, Note_on_c, 0, 62, 71
1, 253925, Note_off_c, 0, 65, 64
1, 253963, Note_off_c, 0, 58, 60
1, 253994, Note_off_c, 0, 62, 61
1, 254018, Note_on_c, 0, 56, 69
1, 254045, Note_off_c, 0, 56, 65
1, 254075, Note_on_c, 0, 75, 64
1, 254203, Control_c, 0, 64, 74
1, 254209, Note_on_c, 0, 79, 70
1, 254210, Note_on_c, 0, 34, 87
1, 254217, Control_c, 0, 64, 48
1, 254219, Note_on_c, 0, 46, 67
1, 254232, Control_c, 0, 64, 43
1, 254247, Control_c, 0, 64, 56
1, 254262, Control_c, 0, 64, 74
1, 254265, Note_off_c, 0, 34, 60
1, 254275, Note_off_c, 0, 46, 62
1, 254277, Control_c, 0, 64, 127
1, 254279, Note_off_c, 0, 82, 54
1, 254307, Note_off_c, 0, 70, 61
1, 254385, Note_off_c, 0, 79, 48
1, 254438, Note_on_c, 0, 55, 56
1, 254554, Note_on_c, 0, 79, 72
1, 254578, Note_on_c, 0, 67, 65
1, 254599, Note_on_c, 0, 58, 67
1, 254686, Note_off_c, 0, 67, 60
1, 254731, Note_on_c, 0, 63, 75
1, 254833, Note_on_c, 0, 80, 80
1, 254849, Note_on_c, 0, 68, 61
1, 254891, Note_off_c, 0, 79, 64
1, 254899, Note_off_c, 0, 58, 59
1, 254983, Note_on_c, 0, 78, 29
1, 254990, Note_on_c, 0, 58, 75
1, 255002, Note_off_c, 0, 68, 61
1, 255039, Note_off_c, 0, 55, 60
1, 255066, Note_on_c, 0, 81, 91
1, 255082, Note_on_c, 0, 69, 72
1, 255082, Note_off_c, 0, 63, 57
1, 255085, Note_off_c, 0, 78, 56
1, 255142, Note_on_c, 0, 67, 70
1, 255155, Note_off_c, 0, 75, 59
1, 255160, Note_off_c, 0, 69, 58
1, 255173, Note_off_c, 0, 81, 64
1, 255187, Note_on_c, 0, 63, 70
1, 255202, Note_off_c, 0, 67, 63
1, 255209, Note_off_c, 0, 80, 57
1, 255269, Note_off_c, 0, 63, 64
1, 255276, Note_on_c, 0, 82, 90
1, 255289, Note_on_c, 0, 55, 71
1, 255291, Note_on_c, 0, 70, 78
1, 255317, Note_off_c, 0, 55, 67
1, 255327, Note_off_c, 0, 58, 62
1, 255408, Note_on_c, 0, 74, 77
1, 255447, Control_c, 0, 64, 82
1, 255462, Control_c, 0, 64, 59
1, 255470, Note_on_c, 0, 46, 72
1, 255472, Note_on_c, 0, 34, 74
1, 255477, Control_c, 0, 64, 58
1, 255482, Note_on_c, 0, 80, 81
1, 255492, Control_c, 0, 64, 68
1, 255499, Note_off_c, 0, 34, 65
1, 255507, Control_c, 0, 64, 127
1, 255509, Note_off_c, 0, 46, 62
1, 255530, Note_off_c, 0, 82, 58
1, 255543, Note_off_c, 0, 70, 61
1, 255598, Note_off_c, 0, 80, 61
1, 255696, Note_on_c, 0, 53, 61
1, 255748, Note_on_c, 0, 79, 75
1, 255785, Note_on_c, 0, 67, 58
1, 255870, Note_off_c, 0, 67, 62
1, 255875, Note_on_c, 0, 56, 65
1, 255975, Note_on_c, 0, 80, 89
1, 255988, Note_on_c, 0, 68, 64
1, 256018, Note_off_c, 0, 79, 65
1, 256045, Note_on_c, 0, 65, 65
1, 256061, Note_on_c, 0, 62, 59
1, 256111, Note_off_c, 0, 68, 62
1, 256126, Note_off_c, 0, 56, 60
1, 256167, Note_off_c, 0, 65, 58
1, 256173, Note_on_c, 0, 81, 94
1, 256176, Note_on_c, 0, 69, 80
1, 256216, Note_off_c, 0, 80, 57
1, 256233, Note_off_c, 0, 74, 61
1, 256243, Note_on_c, 0, 56, 69
1, 256263, Note_off_c, 0, 69, 62
1, 256272, Note_off_c, 0, 62, 51
1, 256316, Note_on_c, 0, 65, 66
1, 256357, Note_on_c, 0, 82, 98
1, 256362, Note_off_c, 0, 53, 61
1, 256363, Note_on_c, 0, 70, 95
1, 256379, Note_off_c, 0, 65, 65
1, 256383, Note_off_c, 0, 81, 63
1, 256388, Note_on_c, 0, 62, 69
1, 256477, Note_off_c, 0, 62, 61
1, 256477, Note_off_c, 0, 70, 64
1, 256482, Note_on_c, 0, 53, 70
1, 256504, Note_off_c, 0, 56, 59
1, 256533, Note_off_c, 0, 53, 62
1, 256558, Note_on_c, 0, 83, 99
1, 256561, Note_on_c, 0, 71, 96
1, 256591, Note_off_c, 0, 82, 57
1, 256695, Note_on_c, 0, 75, 76
1, 256745, Control_c, 0, 64, 85
1, 256766, Control_c, 0, 64, 51
1, 256781, Control_c, 0, 64, 0
1, 256786, Note_on_c, 0, 33, 90
1, 256787, Note_on_c, 0, 78, 85
1, 256789, Note_on_c, 0, 45, 83
1, 256797, Control_c, 0, 64, 32
1, 256811, Control_c, 0, 64, 62
1, 256826, Control_c, 0, 64, 127
1, 256838, Note_off_c, 0, 33, 60
1, 256851, Note_off_c, 0, 45, 65
1, 256877, Note_off_c, 0, 83, 58
1, 256898, Note_off_c, 0, 71, 50
1, 257005, Note_on_c, 0, 54, 70
1, 257144, Note_on_c, 0, 81, 84
1, 257154, Note_on_c, 0, 59, 72
1, 257160, Note_on_c, 0, 69, 72
1, 257202, Note_off_c, 0, 54, 58
1, 257282, Note_on_c, 0, 66, 83
1, 257292, Note_on_c, 0, 63, 81
1, 257344, Note_off_c, 0, 69, 62
1, 257348, Note_off_c, 0, 75, 62
1, 257351, Note_off_c, 0, 78, 59
1, 257386, Poly_aftertouch_c, 0, 58, 127
1, 257407, Note_off_c, 0, 66, 60
1, 257416, Note_on_c, 0, 82, 99
1, 257420, Note_on_c, 0, 70, 94
1, 257460, Note_off_c, 0, 81, 62
1, 257477, Note_off_c, 0, 59, 56
1, 257488, Poly_aftertouch_c, 0, 58, 0
1, 257542, Note_on_c, 0, 59, 77
1, 257568, Note_off_c, 0, 63, 62
1, 257605, Note_off_c, 0, 70, 61
1, 257688, Note_on_c, 0, 83, 102
1, 257689, Note_on_c, 0, 63, 88
1, 257693, Note_on_c, 0, 66, 88
1, 257695, Note_on_c, 0, 71, 97
1, 257698, Poly_aftertouch_c, 0, 80, 127
1, 257710, Note_on_c, 0, 58, 34
1, 257733, Note_off_c, 0, 82, 55
1, 257735, Poly_aftertouch_c, 0, 80, 0
1, 257736, Note_off_c, 0, 66, 65
1, 257795, Note_off_c, 0, 59, 49
1, 257805, Note_off_c, 0, 63, 63
1, 257811, Note_on_c, 0, 54, 82
1, 257823, Note_off_c, 0, 58, 25
1, 257857, Note_off_c, 0, 54, 59
1, 257878, Note_on_c, 0, 76, 69
1, 257975, Control_c, 0, 64, 91
1, 257990, Note_on_c, 0, 80, 78
1, 257990, Control_c, 0, 64, 55
1, 258005, Control_c, 0, 64, 50
1, 258011, Note_on_c, 0, 32, 97
1, 258012, Note_on_c, 0, 44, 90
1, 258020, Control_c, 0, 64, 64
1, 258034, Control_c, 0, 64, 100
1, 258037, Note_off_c, 0, 32, 68
1, 258044, Note_on_c, 0, 42, 41
1, 258048, Note_off_c, 0, 44, 63
1, 258049, Control_c, 0, 64, 127
1, 258057, Note_off_c, 0, 71, 54
1, 258060, Note_off_c, 0, 83, 56
1, 258078, Note_off_c, 0, 42, 57
1, 258164, Note_off_c, 0, 76, 52
1, 258226, Note_on_c, 0, 56, 78
1, 258358, Note_on_c, 0, 59, 74
1, 258364, Note_on_c, 0, 82, 85
1, 258369, Note_on_c, 0, 70, 90
1, 258386, Note_off_c, 0, 56, 60
1, 258413, Note_off_c, 0, 80, 55
1, 258483, Note_on_c, 0, 68, 79
1, 258484, Note_off_c, 0, 70, 62
1, 258501, Note_on_c, 0, 64, 70
1, 258523, Note_off_c, 0, 82, 56
1, 258534, Note_on_c, 0, 71, 79
1, 258565, Note_on_c, 0, 76, 75
1, 258568, Note_off_c, 0, 68, 59
1, 258607, Note_off_c, 0, 59, 48
1, 258621, Note_on_c, 0, 80, 85
1, 258663, Note_on_c, 0, 83, 106
1, 258758, Note_on_c, 0, 59, 76
1, 258779, Note_off_c, 0, 64, 40
1, 258787, Note_off_c, 0, 71, 55
1, 258820, Note_off_c, 0, 83, 62
1, 258871, Poly_aftertouch_c, 0, 61, 127
1, 258877, Note_off_c, 0, 80, 64
1, 258880, Note_off_c, 0, 76, 56
1, 258892, Note_on_c, 0, 64, 80
1, 258893, Note_on_c, 0, 84, 98
1, 258898, Note_on_c, 0, 72, 96
1, 258900, Note_on_c, 0, 68, 80
1, 258946, Note_off_c, 0, 68, 65
1, 258989, Note_off_c, 0, 64, 64
1, 258990, Note_on_c, 0, 56, 79
1, 259010, Note_off_c, 0, 59, 65
1, 259032, Poly_aftertouch_c, 0, 61, 0
1, 259038, Note_off_c, 0, 56, 63
1, 259089, Note_on_c, 0, 75, 81
1, 259177, Control_c, 0, 64, 77
1, 259192, Control_c, 0, 64, 51
1, 259196, Note_on_c, 0, 78, 83
1, 259207, Control_c, 0, 64, 37
1, 259214, Note_on_c, 0, 33, 98
1, 259214, Note_on_c, 0, 45, 88
1, 259221, Control_c, 0, 64, 55
1, 259236, Control_c, 0, 64, 81
1, 259238, Note_off_c, 0, 84, 64
1, 259251, Control_c, 0, 64, 127
1, 259256, Note_off_c, 0, 33, 62
1, 259256, Note_off_c, 0, 72, 56
1, 259270, Note_off_c, 0, 45, 65
1, 259327, Note_off_c, 0, 75, 58
1, 259414, Note_on_c, 0, 54, 79
1, 259504, Poly_aftertouch_c, 0, 53, 127
1, 259523, Note_on_c, 0, 82, 89
1, 259527, Note_on_c, 0, 59, 76
1, 259529, Note_on_c, 0, 70, 96
1, 259537, Note_off_c, 0, 54, 59
1, 259542, Poly_aftertouch_c, 0, 53, 0
1, 259577, Note_off_c, 0, 78, 51
1, 259637, Note_off_c, 0, 70, 62
1, 259644, Note_on_c, 0, 63, 84
1, 259646, Note_on_c, 0, 66, 87
1, 259653, Note_off_c, 0, 82, 50
1, 259695, Note_on_c, 0, 71, 78
1, 259723, Note_on_c, 0, 75, 79
1, 259736, Note_off_c, 0, 59, 52
1, 259761, Note_off_c, 0, 66, 58
1, 259766, Note_on_c, 0, 78, 84
1, 259805, Note_on_c, 0, 83, 96
1, 259849, Note_on_c, 0, 80, 30
1, 259873, Note_on_c, 0, 59, 80
1, 259873, Note_off_c, 0, 71, 57
1, 259884, Note_off_c, 0, 80, 45
1, 259897, Note_off_c, 0, 63, 61
1, 259917, Note_off_c, 0, 83, 65
1, 259924, Note_off_c, 0, 75, 29
1, 259968, Note_off_c, 0, 78, 61
1, 259981, Note_on_c, 0, 72, 93
1, 259981, Note_on_c, 0, 84, 96
1, 260007, Note_on_c, 0, 66, 84
1, 260008, Note_on_c, 0, 63, 82
1, 260052, Note_off_c, 0, 66, 64
1, 260053, Note_off_c, 0, 72, 57
1, 260064, Note_off_c, 0, 84, 65
1, 260087, Note_on_c, 0, 82, 36
1, 260133, Note_off_c, 0, 82, 57
1, 260133, Poly_aftertouch_c, 0, 76, 127
1, 260148, Note_on_c, 0, 54, 86
1, 260153, Note_off_c, 0, 63, 63
1, 260164, Note_off_c, 0, 59, 56
1, 260171, Note_on_c, 0, 85, 101
1, 260172, Note_on_c, 0, 73, 103
1, 260179, Poly_aftertouch_c, 0, 76, 0
1, 260186, Note_on_c, 0, 53, 56
1, 260196, Note_off_c, 0, 54, 59
1, 260210, Note_off_c, 0, 53, 57
1, 260261, Note_on_c, 0, 76, 87
1, 260311, Control_c, 0, 64, 101
1, 260326, Control_c, 0, 64, 64
1, 260332, Note_on_c, 0, 80, 87
1, 260341, Note_on_c, 0, 44, 102
1, 260341, Control_c, 0, 64, 61
1, 260346, Note_on_c, 0, 32, 97
1, 260355, Control_c, 0, 64, 83
1, 260367, Note_off_c, 0, 32, 66
1, 260370, Control_c, 0, 64, 127
1, 260371, Note_off_c, 0, 85, 58
1, 260384, Note_off_c, 0, 44, 62
1, 260436, Poly_aftertouch_c, 0, 82, 127
1, 260445, Note_off_c, 0, 73, 54
1, 260481, Poly_aftertouch_c, 0, 32, 127
1, 260487, Poly_aftertouch_c, 0, 82, 0
1, 260530, Poly_aftertouch_c, 0, 32, 0
1, 260544, Note_on_c, 0, 56, 81
1, 260660, Note_on_c, 0, 59, 79
1, 260677, Note_on_c, 0, 83, 94
1, 260686, Note_on_c, 0, 71, 96
1, 260696, Note_off_c, 0, 56, 60
1, 260704, Note_off_c, 0, 80, 62
1, 260715, Note_off_c, 0, 76, 58
1, 260775, Note_on_c, 0, 68, 85
1, 260777, Note_off_c, 0, 71, 58
1, 260794, Note_on_c, 0, 64, 78
1, 260855, Note_on_c, 0, 72, 88
1, 260858, Note_off_c, 0, 68, 58
1, 260872, Note_on_c, 0, 76, 83
1, 260877, Note_off_c, 0, 83, 63
1, 260886, Note_off_c, 0, 59, 53
1, 260915, Note_on_c, 0, 80, 91
1, 260956, Note_on_c, 0, 84, 102
1, 260978, Note_off_c, 0, 76, 64
1, 261055, Note_off_c, 0, 72, 58
1, 261058, Note_on_c, 0, 59, 80
1, 261090, Note_off_c, 0, 84, 59
1, 261098, Note_off_c, 0, 64, 60
1, 261104, Note_on_c, 0, 60, 19
1, 261104, Note_off_c, 0, 60, 127
1, 261190, Note_on_c, 0, 64, 83
1, 261196, Note_on_c, 0, 68, 89
1, 261203, Note_on_c, 0, 73, 107
1, 261203, Note_on_c, 0, 85, 99
1, 261226, Note_off_c, 0, 80, 60
1, 261230, Note_off_c, 0, 68, 62
1, 261247, Note_off_c, 0, 64, 67
1, 261262, Note_on_c, 0, 56, 73
1, 261277, Note_off_c, 0, 59, 64
1, 261288, Note_off_c, 0, 56, 66
1, 261366, Note_on_c, 0, 77, 96
1, 261497, Control_c, 0, 64, 88
1, 261512, Control_c, 0, 64, 54
1, 261513, Note_on_c, 0, 43, 104
1, 261518, Note_on_c, 0, 31, 95
1, 261527, Control_c, 0, 64, 40
1, 261542, Control_c, 0, 64, 61
1, 261551, Note_off_c, 0, 31, 62
1, 261557, Control_c, 0, 64, 127
1, 261558, Note_off_c, 0, 43, 64
1, 261617, Note_off_c, 0, 85, 54
1, 261714, Note_on_c, 0, 50, 96
1, 261718, Note_off_c, 0, 73, 51
1, 261858, Note_on_c, 0, 82, 105
1, 261863, Note_on_c, 0, 53, 96
1, 261863, Note_on_c, 0, 70, 106
1, 261888, Note_off_c, 0, 77, 61
1, 261977, Note_off_c, 0, 50, 63
1, 261988, Note_off_c, 0, 53, 59
1, 261995, Note_on_c, 0, 59, 99
1, 262051, Note_off_c, 0, 59, 69
1, 262067, Note_off_c, 0, 70, 57
1, 262144, Note_off_c, 0, 82, 52
1, 262226, Note_on_c, 0, 83, 104
1, 262228, Note_on_c, 0, 77, 94
1, 262230, Note_on_c, 0, 65, 94
1, 262230, Note_on_c, 0, 71, 96
1, 262234, Note_on_c, 0, 62, 90
1, 262239, Note_on_c, 0, 55, 86
1, 262261, Control_c, 0, 64, 73
1, 262276, Control_c, 0, 64, 44
1, 262291, Control_c, 0, 64, 0
1, 262320, Control_c, 0, 64, 50
1, 262335, Control_c, 0, 64, 77
1, 262350, Control_c, 0, 64, 127
1, 262466, Note_off_c, 0, 71, 52
1, 262477, Note_off_c, 0, 65, 56
1, 262478, Note_off_c, 0, 55, 59
1, 262486, Note_off_c, 0, 83, 61
1, 262503, Note_off_c, 0, 62, 61
1, 262508, Note_off_c, 0, 77, 63
1, 262540, Note_on_c, 0, 84, 105
1, 262541, Note_on_c, 0, 72, 104
1, 262542, Note_on_c, 0, 62, 80
1, 262543, Note_on_c, 0, 65, 102
1, 262544, Note_on_c, 0, 77, 88
1, 262549, Note_on_c, 0, 55, 86
1, 262673, Note_off_c, 0, 65, 58
1, 262680, Note_off_c, 0, 84, 63
1, 262683, Note_off_c, 0, 62, 62
1, 262690, Note_off_c, 0, 72, 62
1, 262698, Note_off_c, 0, 55, 55
1, 262733, Note_off_c, 0, 77, 63
1, 262780, Note_on_c, 0, 77, 82
1, 262785, Note_on_c, 0, 65, 89
1, 262785, Note_on_c, 0, 73, 106
1, 262786, Note_on_c, 0, 85, 101
1, 262789, Note_on_c, 0, 62, 80
1, 262794, Note_on_c, 0, 55, 80
1, 262807, Note_off_c, 0, 65, 72
1, 262817, Note_off_c, 0, 62, 66
1, 262831, Note_off_c, 0, 55, 60
1, 262876, Note_off_c, 0, 73, 57
1, 262876, Control_c, 0, 67, 43
1, 262892, Control_c, 0, 67, 70
1, 262907, Control_c, 0, 67, 108
1, 262922, Control_c, 0, 67, 127
1, 262939, Note_off_c, 0, 85, 58
1, 262952, Note_off_c, 0, 77, 60
1, 263025, Note_on_c, 0, 73, 31
1, 263113, Note_on_c, 0, 75, 46
1, 263158, Control_c, 0, 64, 101
1, 263173, Control_c, 0, 64, 74
1, 263176, Note_on_c, 0, 78, 58
1, 263187, Control_c, 0, 64, 53
1, 263201, Note_on_c, 0, 30, 44
1, 263202, Control_c, 0, 64, 31
1, 263211, Note_on_c, 0, 42, 38
1, 263217, Control_c, 0, 64, 0
1, 263236, Note_on_c, 0, 85, 65
1, 263262, Control_c, 0, 64, 31
1, 263277, Control_c, 0, 64, 52
1, 263281, Note_off_c, 0, 30, 62
1, 263292, Control_c, 0, 64, 68
1, 263298, Note_off_c, 0, 42, 63
1, 263306, Control_c, 0, 64, 81
1, 263321, Control_c, 0, 64, 101
1, 263336, Control_c, 0, 64, 127
1, 263360, Note_off_c, 0, 85, 62
1, 263414, Note_off_c, 0, 73, 45
1, 263444, Note_on_c, 0, 54, 50
1, 263596, Note_on_c, 0, 83, 69
1, 263599, Note_off_c, 0, 54, 37
1, 263617, Note_on_c, 0, 71, 52
1, 263622, Note_on_c, 0, 63, 48
1, 263622, Note_on_c, 0, 66, 38
1, 263695, Note_off_c, 0, 66, 46
1, 263734, Note_on_c, 0, 54, 68
1, 263747, Note_off_c, 0, 63, 54
1, 263774, Note_off_c, 0, 71, 58
1, 263778, Note_off_c, 0, 83, 60
1, 263873, Note_on_c, 0, 84, 75
1, 263885, Note_on_c, 0, 66, 55
1, 263897, Note_on_c, 0, 63, 62
1, 263906, Note_on_c, 0, 72, 52
1, 263929, Note_off_c, 0, 54, 28
1, 264003, Note_off_c, 0, 72, 62
1, 264015, Note_off_c, 0, 84, 64
1, 264037, Note_on_c, 0, 54, 70
1, 264060, Note_off_c, 0, 75, 61
1, 264066, Note_off_c, 0, 66, 29
1, 264066, Note_off_c, 0, 63, 61
1, 264096, Note_off_c, 0, 78, 58
1, 264114, Note_on_c, 0, 85, 85
1, 264117, Note_on_c, 0, 73, 75
1, 264180, Note_on_c, 0, 66, 63
1, 264189, Note_on_c, 0, 63, 67
1, 264197, Note_off_c, 0, 73, 61
1, 264215, Note_off_c, 0, 85, 63
1, 264225, Note_on_c, 0, 59, 52
1, 264236, Note_off_c, 0, 54, 32
1, 264239, Note_off_c, 0, 66, 63
1, 264302, Note_off_c, 0, 63, 58
1, 264319, Note_on_c, 0, 87, 84
1, 264325, Note_on_c, 0, 75, 78
1, 264343, Note_off_c, 0, 59, 61
1, 264348, Note_on_c, 0, 54, 73
1, 264380, Note_off_c, 0, 54, 57
1, 264435, Poly_aftertouch_c, 0, 53, 0
1, 264469, Poly_aftertouch_c, 0, 53, 0
1, 264493, Control_c, 0, 64, 94
1, 264497, Note_on_c, 0, 42, 89
1, 264503, Note_on_c, 0, 78, 66
1, 264503, Note_on_c, 0, 82, 68
1, 264508, Control_c, 0, 64, 65
1, 264523, Control_c, 0, 64, 51
1, 264538, Control_c, 0, 64, 54
1, 264548, Note_off_c, 0, 42, 63
1, 264552, Control_c, 0, 64, 62
1, 264567, Control_c, 0, 64, 73
1, 264582, Control_c, 0, 64, 109
1, 264591, Note_off_c, 0, 87, 60
1, 264597, Control_c, 0, 64, 127
1, 264597, Control_c, 0, 67, 83
1, 264611, Note_off_c, 0, 75, 60
1, 264612, Control_c, 0, 67, 0
1, 264687, Note_on_c, 0, 54, 70
1, 264742, Note_off_c, 0, 54, 60
1, 264835, Note_on_c, 0, 85, 69
1, 264848, Note_on_c, 0, 64, 51
1, 264854, Note_on_c, 0, 66, 66
1, 264857, Note_on_c, 0, 73, 46
1, 264877, Note_on_c, 0, 58, 64
1, 265016, Note_on_c, 0, 54, 74
1, 265022, Note_off_c, 0, 66, 61
1, 265038, Note_off_c, 0, 64, 39
1, 265038, Note_off_c, 0, 73, 60
1, 265044, Note_on_c, 0, 56, 46
1, 265073, Note_off_c, 0, 56, 57
1, 265104, Note_off_c, 0, 54, 61
1, 265104, Note_off_c, 0, 58, 61
1, 265148, Note_on_c, 0, 87, 82
1, 265148, Note_on_c, 0, 75, 83
1, 265156, Note_on_c, 0, 66, 87
1, 265163, Note_on_c, 0, 64, 76
1, 265166, Note_on_c, 0, 58, 65
1, 265249, Note_off_c, 0, 78, 35
1, 265283, Note_off_c, 0, 66, 46
1, 265296, Note_off_c, 0, 64, 54
1, 265308, Note_on_c, 0, 54, 76
1, 265334, Note_off_c, 0, 75, 62
1, 265347, Note_off_c, 0, 87, 63
1, 265423, Note_off_c, 0, 82, 0
1, 265429, Note_on_c, 0, 66, 83
1, 265432, Note_on_c, 0, 88, 96
1, 265435, Note_on_c, 0, 61, 79
1, 265435, Note_on_c, 0, 76, 86
1, 265456, Note_off_c, 0, 54, 39
1, 265461, Poly_aftertouch_c, 0, 82, 127
1, 265489, Note_off_c, 0, 66, 60
1, 265503, Poly_aftertouch_c, 0, 82, 0
1, 265557, Note_on_c, 0, 54, 82
1, 265561, Note_off_c, 0, 61, 63
1, 265584, Note_off_c, 0, 58, 60
1, 265585, Note_off_c, 0, 54, 59
1, 265632, Note_off_c, 0, 85, 30
1, 265727, Note_on_c, 0, 42, 84
1, 265727, Note_on_c, 0, 30, 89
1, 265728, Note_on_c, 0, 83, 68
1, 265730, Control_c, 0, 64, 78
1, 265752, Control_c, 0, 64, 72
1, 265762, Note_off_c, 0, 30, 69
1, 265767, Control_c, 0, 64, 89
1, 265769, Note_on_c, 0, 32, 40
1, 265770, Note_off_c, 0, 42, 62
1, 265781, Control_c, 0, 64, 127
1, 265802, Note_off_c, 0, 76, 60
1, 265811, Note_off_c, 0, 32, 50
1, 265811, Note_off_c, 0, 88, 62
1, 265947, Note_on_c, 0, 54, 76
1, 266021, Note_off_c, 0, 83, 0
1, 266021, Note_on_c, 0, 83, 8
1, 266045, Note_on_c, 0, 82, 14
1, 266093, Note_on_c, 0, 86, 83
1, 266111, Note_on_c, 0, 66, 70
1, 266116, Note_on_c, 0, 74, 70
1, 266123, Note_on_c, 0, 59, 59
1, 266124, Note_on_c, 0, 63, 68
1, 266159, Note_off_c, 0, 54, 57
1, 266204, Note_off_c, 0, 66, 54
1, 266254, Note_on_c, 0, 54, 86
1, 266286, Note_off_c, 0, 74, 64
1, 266295, Note_off_c, 0, 63, 61
1, 266295, Note_off_c, 0, 82, 22
1, 266314, Note_off_c, 0, 59, 56
1, 266314, Note_off_c, 0, 83, 57
1, 266394, Note_on_c, 0, 87, 86
1, 266405, Note_on_c, 0, 75, 70
1, 266407, Note_on_c, 0, 66, 70
1, 266424, Note_on_c, 0, 63, 69
1, 266437, Note_on_c, 0, 59, 57
1, 266456, Note_off_c, 0, 86, 63
1, 266502, Note_off_c, 0, 54, 58
1, 266568, Note_on_c, 0, 85, 41
1, 266579, Note_off_c, 0, 75, 64
1, 266589, Note_on_c, 0, 54, 81
1, 266612, Note_off_c, 0, 59, 59
1, 266633, Note_off_c, 0, 66, 36
1, 266640, Note_on_c, 0, 88, 95
1, 266648, Note_on_c, 0, 76, 88
1, 266672, Note_off_c, 0, 85, 60
1, 266693, Note_off_c, 0, 87, 54
1, 266700, Note_off_c, 0, 63, 0
1, 266713, Note_on_c, 0, 63, 48
1, 266720, Note_on_c, 0, 66, 78
1, 266738, Note_on_c, 0, 60, 73
1, 266750, Note_off_c, 0, 76, 60
1, 266765, Note_on_c, 0, 87, 14
1, 266771, Note_off_c, 0, 66, 62
1, 266776, Note_off_c, 0, 88, 64
1, 266780, Note_off_c, 0, 54, 57
1, 266796, Note_on_c, 0, 82, 29
1, 266818, Note_off_c, 0, 87, 64
1, 266839, Note_on_c, 0, 90, 102
1, 266841, Note_on_c, 0, 78, 104
1, 266863, Poly_aftertouch_c, 0, 85, 127
1, 266866, Note_on_c, 0, 54, 85
1, 266866, Note_off_c, 0, 63, 63
1, 266894, Poly_aftertouch_c, 0, 85, 0
1, 266898, Note_off_c, 0, 60, 63
1, 266916, Note_off_c, 0, 82, 23
1, 266946, Note_off_c, 0, 54, 60
1, 266991, Control_c, 0, 64, 83
1, 267006, Control_c, 0, 64, 49
1, 267019, Note_on_c, 0, 82, 70
1, 267020, Note_on_c, 0, 85, 78
1, 267020, Control_c, 0, 64, 0
1, 267021, Note_on_c, 0, 42, 96
1, 267035, Control_c, 0, 64, 54
1, 267050, Control_c, 0, 64, 105
1, 267065, Control_c, 0, 64, 127
1, 267066, Note_off_c, 0, 42, 60
1, 267078, Note_off_c, 0, 90, 59
1, 267136, Note_off_c, 0, 78, 54
1, 267228, Note_on_c, 0, 54, 66
1, 267286, Note_on_c, 0, 87, 76
1, 267293, Note_on_c, 0, 75, 75
1, 267324, Poly_aftertouch_c, 0, 56, 0
1, 267348, Note_off_c, 0, 54, 49
1, 267350, Poly_aftertouch_c, 0, 56, 0
1, 267378, Note_on_c, 0, 66, 75
1, 267380, Note_on_c, 0, 64, 69
1, 267420, Note_on_c, 0, 61, 53
1, 267444, Note_off_c, 0, 75, 64
1, 267463, Note_off_c, 0, 66, 53
1, 267499, Note_off_c, 0, 64, 53
1, 267507, Note_on_c, 0, 88, 96
1, 267509, Note_on_c, 0, 76, 87
1, 267515, Note_on_c, 0, 54, 83
1, 267547, Note_off_c, 0, 82, 56
1, 267566, Note_off_c, 0, 87, 54
1, 267581, Note_off_c, 0, 61, 58
1, 267613, Note_off_c, 0, 76, 59
1, 267628, Note_off_c, 0, 88, 64
1, 267671, Note_on_c, 0, 66, 87
1, 267673, Note_off_c, 0, 54, 50
1, 267681, Note_on_c, 0, 64, 82
1, 267692, Note_on_c, 0, 77, 100
1, 267692, Note_on_c, 0, 89, 108
1, 267694, Note_on_c, 0, 61, 74
1, 267708, Note_on_c, 0, 83, 39
1, 267720, Note_off_c, 0, 85, 64
1, 267733, Note_off_c, 0, 66, 62
1, 267742, Note_off_c, 0, 83, 46
1, 267795, Note_on_c, 0, 83, 47
1, 267807, Note_off_c, 0, 89, 58
1, 267810, Note_on_c, 0, 85, 46
1, 267816, Note_off_c, 0, 77, 60
1, 267821, Note_on_c, 0, 54, 86
1, 267837, Note_off_c, 0, 64, 55
1, 267860, Note_off_c, 0, 61, 60
1, 267871, Note_off_c, 0, 85, 61
1, 267878, Note_off_c, 0, 83, 0
1, 267885, Note_on_c, 0, 78, 108
1, 267885, Note_on_c, 0, 90, 106
1, 267894, Note_on_c, 0, 83, 51
1, 267907, Note_on_c, 0, 77, 75
1, 267923, Note_off_c, 0, 77, 69
1, 267949, Note_on_c, 0, 66, 101
1, 267951, Note_on_c, 0, 64, 84
1, 267954, Note_off_c, 0, 54, 51
1, 267957, Note_on_c, 0, 58, 57
1, 268001, Note_on_c, 0, 61, 61
1, 268007, Note_off_c, 0, 78, 56
1, 268008, Note_off_c, 0, 90, 62
1, 268013, Note_off_c, 0, 66, 64
1, 268047, Note_on_c, 0, 85, 39
1, 268073, Note_on_c, 0, 63, 6
1, 268076, Note_off_c, 0, 64, 62
1, 268082, Note_on_c, 0, 54, 89
1, 268082, Note_on_c, 0, 80, 104
1, 268087, Note_on_c, 0, 92, 105
1, 268091, Note_on_c, 0, 87, 55
1, 268098, Note_off_c, 0, 63, 0
1, 268103, Poly_aftertouch_c, 0, 65, 127
1, 268106, Note_off_c, 0, 85, 63
1, 268108, Note_off_c, 0, 61, 63
1, 268117, Note_off_c, 0, 83, 61
1, 268119, Note_off_c, 0, 87, 67
1, 268127, Poly_aftertouch_c, 0, 63, 0
1, 268133, Note_off_c, 0, 58, 64
1, 268134, Poly_aftertouch_c, 0, 65, 0
1, 268139, Note_off_c, 0, 54, 63
1, 268221, Control_c, 0, 64, 74
1, 268236, Control_c, 0, 64, 43
1, 268245, Note_on_c, 0, 42, 106
1, 268248, Note_on_c, 0, 83, 87
1, 268250, Control_c, 0, 64, 60
1, 268252, Note_on_c, 0, 30, 93
1, 268252, Note_on_c, 0, 87, 88
1, 268262, Note_on_c, 0, 32, 67
1, 268265, Control_c, 0, 64, 127
1, 268270, Note_off_c, 0, 80, 62
1, 268273, Note_off_c, 0, 92, 64
1, 268275, Note_off_c, 0, 30, 67
1, 268288, Note_off_c, 0, 42, 65
1, 268292, Note_off_c, 0, 32, 58
1, 268328, Note_on_c, 0, 85, 29
1, 268331, Note_on_c, 0, 43, 2
1, 268336, Note_off_c, 0, 43, 0
1, 268374, Note_off_c, 0, 85, 49
1, 268374, Poly_aftertouch_c, 0, 43, 0
1, 268442, Note_off_c, 0, 87, 54
1, 268456, Note_on_c, 0, 54, 77
1, 268601, Note_on_c, 0, 89, 93
1, 268613, Note_on_c, 0, 77, 89
1, 268616, Note_on_c, 0, 66, 86
1, 268622, Note_on_c, 0, 63, 82
1, 268644, Note_on_c, 0, 59, 64
1, 268678, Note_off_c, 0, 54, 59
1, 268716, Poly_aftertouch_c, 0, 56, 0
1, 268751, Note_on_c, 0, 54, 91
1, 268765, Note_off_c, 0, 66, 56
1, 268781, Note_off_c, 0, 63, 63
1, 268784, Note_off_c, 0, 59, 62
1, 268803, Note_off_c, 0, 77, 62
1, 268806, Note_off_c, 0, 89, 62
1, 268825, Note_off_c, 0, 83, 62
1, 268875, Note_on_c, 0, 87, 95
1, 268876, Note_on_c, 0, 66, 107
1, 268880, Note_on_c, 0, 83, 90
1, 268881, Note_on_c, 0, 78, 97
1, 268881, Note_on_c, 0, 63, 92
1, 268896, Note_on_c, 0, 90, 82
1, 268900, Note_on_c, 0, 59, 73
1, 268911, Note_on_c, 0, 56, 17
1, 268931, Note_off_c, 0, 54, 59
1, 268957, Note_off_c, 0, 56, 52
1, 268964, Poly_aftertouch_c, 0, 77, 127
1, 268995, Note_off_c, 0, 66, 57
1, 269004, Poly_aftertouch_c, 0, 77, 0
1, 269008, Note_on_c, 0, 54, 97
1, 269014, Note_off_c, 0, 90, 61
1, 269028, Note_off_c, 0, 78, 55
1, 269036, Note_off_c, 0, 59, 63
1, 269036, Note_off_c, 0, 63, 63
1, 269072, Note_on_c, 0, 53, 18
1, 269118, Note_off_c, 0, 53, 37
1, 269133, Note_on_c, 0, 63, 98
1, 269137, Note_off_c, 0, 54, 53
1, 269137, Note_on_c, 0, 59, 79
1, 269140, Note_on_c, 0, 80, 118
1, 269141, Note_on_c, 0, 92, 113
1, 269143, Note_on_c, 0, 68, 102
1, 269163, Note_on_c, 0, 56, 29
1, 269165, Note_off_c, 0, 83, 63
1, 269167, Note_on_c, 0, 85, 36
1, 269200, Note_on_c, 0, 60, 22
1, 269200, Note_off_c, 0, 56, 53
1, 269202, Note_off_c, 0, 68, 54
1, 269203, Note_off_c, 0, 85, 41
1, 269264, Note_on_c, 0, 54, 97
1, 269271, Note_off_c, 0, 59, 65
1, 269279, Note_off_c, 0, 63, 65
1, 269293, Note_off_c, 0, 60, 56
1, 269295, Note_off_c, 0, 87, 50
1, 269311, Note_off_c, 0, 54, 64
1, 269340, Control_c, 0, 64, 88
1, 269355, Control_c, 0, 64, 38
1, 269370, Control_c, 0, 64, 0
1, 269385, Control_c, 0, 64, 62
1, 269390, Note_on_c, 0, 82, 89
1, 269392, Note_on_c, 0, 85, 91
1, 269396, Note_on_c, 0, 42, 110
1, 269400, Note_on_c, 0, 30, 99
1, 269400, Control_c, 0, 64, 127
1, 269405, Note_off_c, 0, 92, 63
1, 269411, Note_on_c, 0, 32, 75
1, 269419, Note_off_c, 0, 30, 73
1, 269426, Note_off_c, 0, 42, 67
1, 269431, Note_off_c, 0, 80, 57
1, 269441, Note_off_c, 0, 32, 37
1, 269618, Note_on_c, 0, 54, 85
1, 269655, Note_on_c, 0, 63, 55
1, 269680, Note_off_c, 0, 63, 56
1, 269756, Note_off_c, 0, 54, 54
1, 269761, Note_on_c, 0, 66, 102
1, 269768, Note_on_c, 0, 89, 97
1, 269772, Note_on_c, 0, 77, 94
1, 269778, Note_on_c, 0, 64, 69
1, 269798, Note_off_c, 0, 82, 63
1, 269811, Note_on_c, 0, 61, 61
1, 269811, Note_on_c, 0, 56, 19
1, 269826, Note_off_c, 0, 66, 66
1, 269853, Note_off_c, 0, 56, 53
1, 269859, Note_off_c, 0, 85, 45
1, 269894, Note_on_c, 0, 54, 94
1, 269908, Note_off_c, 0, 64, 65
1, 269930, Note_off_c, 0, 61, 65
1, 269940, Note_off_c, 0, 89, 58
1, 269942, Note_off_c, 0, 77, 62
1, 269952, Note_on_c, 0, 83, 47
1, 269982, Poly_aftertouch_c, 0, 58, 127
1, 269987, Note_off_c, 0, 83, 50
1, 270016, Note_on_c, 0, 66, 111
1, 270017, Note_off_c, 0, 54, 51
1, 270019, Note_on_c, 0, 64, 84
1, 270021, Note_on_c, 0, 83, 87
1, 270023, Note_on_c, 0, 87, 93
1, 270026, Note_on_c, 0, 78, 104
1, 270031, Note_on_c, 0, 58, 3
1, 270032, Note_on_c, 0, 56, 47
1, 270036, Note_on_c, 0, 90, 93
1, 270041, Note_on_c, 0, 61, 70
1, 270064, Note_off_c, 0, 56, 54
1, 270084, Note_off_c, 0, 66, 66
1, 270094, Note_on_c, 0, 59, 10
1, 270136, Note_off_c, 0, 59, 53
1, 270137, Note_off_c, 0, 58, 40
1, 270151, Note_off_c, 0, 78, 57
1, 270156, Note_on_c, 0, 54, 97
1, 270157, Note_off_c, 0, 90, 61
1, 270184, Note_off_c, 0, 64, 62
1, 270202, Note_off_c, 0, 61, 62
1, 270215, Note_off_c, 0, 87, 60
1, 270231, Poly_aftertouch_c, 0, 85, 127
1, 270251, Note_on_c, 0, 91, 103
1, 270255, Note_on_c, 0, 77, 98
1, 270255, Note_on_c, 0, 79, 89
1, 270271, Poly_aftertouch_c, 0, 85, 0
1, 270273, Note_on_c, 0, 89, 63
1, 270275, Note_on_c, 0, 87, 33
1, 270291, Note_off_c, 0, 77, 64
1, 270292, Note_on_c, 0, 58, 21
1, 270293, Note_off_c, 0, 89, 41
1, 270297, Note_on_c, 0, 61, 6
1, 270306, Note_off_c, 0, 54, 57
1, 270312, Note_on_c, 0, 56, 34
1, 270313, Note_off_c, 0, 87, 41
1, 270319, Note_on_c, 0, 64, 76
1, 270325, Note_on_c, 0, 68, 101
1, 270333, Note_off_c, 0, 79, 61
1, 270341, Note_off_c, 0, 61, 0
1, 270341, Note_on_c, 0, 61, 15
1, 270357, Note_off_c, 0, 91, 63
1, 270367, Note_off_c, 0, 56, 43
1, 270383, Note_off_c, 0, 68, 65
1, 270392, Note_on_c, 0, 85, 26
1, 270411, Poly_aftertouch_c, 0, 69, 127
1, 270419, Note_on_c, 0, 67, 33
1, 270450, Poly_aftertouch_c, 0, 69, 0
1, 270455, Note_on_c, 0, 54, 90
1, 270455, Note_off_c, 0, 64, 65
1, 270457, Note_off_c, 0, 67, 54
1, 270458, Note_off_c, 0, 83, 0
1, 270469, Note_on_c, 0, 80, 110
1, 270469, Note_on_c, 0, 92, 109
1, 270470, Note_off_c, 0, 85, 61
1, 270474, Note_off_c, 0, 61, 64
1, 270487, Note_on_c, 0, 83, 30
1, 270491, Note_off_c, 0, 58, 57
1, 270517, Note_off_c, 0, 54, 61
1, 270533, Note_off_c, 0, 83, 41
1, 270552, Poly_aftertouch_c, 0, 56, 0
1, 270616, Control_c, 0, 64, 77
1, 270625, Note_on_c, 0, 83, 94
1, 270631, Control_c, 0, 64, 75
1, 270632, Note_on_c, 0, 30, 99
1, 270634, Note_on_c, 0, 42, 107
1, 270637, Note_on_c, 0, 87, 83
1, 270646, Control_c, 0, 64, 127
1, 270652, Note_off_c, 0, 92, 63
1, 270658, Note_off_c, 0, 80, 57
1, 270663, Note_off_c, 0, 30, 66
1, 270675, Note_off_c, 0, 42, 66
1, 270762, Note_off_c, 0, 87, 56
1, 270857, Note_on_c, 0, 54, 79
1, 270920, Note_on_c, 0, 87, 88
1, 270932, Note_on_c, 0, 75, 92
1, 271050, Note_on_c, 0, 63, 82
1, 271068, Note_on_c, 0, 59, 66
1, 271124, Note_off_c, 0, 54, 57
1, 271127, Note_off_c, 0, 75, 63
1, 271135, Poly_aftertouch_c, 0, 85, 127
1, 271167, Note_off_c, 0, 87, 60
1, 271184, Poly_aftertouch_c, 0, 82, 127
1, 271192, Note_on_c, 0, 88, 102
1, 271194, Note_on_c, 0, 76, 102
1, 271210, Note_on_c, 0, 54, 93
1, 271213, Poly_aftertouch_c, 0, 85, 0
1, 271241, Note_off_c, 0, 59, 64
1, 271254, Note_off_c, 0, 63, 62
1, 271255, Poly_aftertouch_c, 0, 87, 127
1, 271298, Poly_aftertouch_c, 0, 87, 0
1, 271309, Note_off_c, 0, 76, 58
1, 271342, Note_off_c, 0, 88, 58
1, 271348, Note_on_c, 0, 85, 31
1, 271379, Note_on_c, 0, 66, 108
1, 271380, Note_on_c, 0, 63, 96
1, 271386, Note_off_c, 0, 85, 64
1, 271391, Note_on_c, 0, 59, 78
1, 271400, Note_on_c, 0, 89, 107
1, 271403, Note_on_c, 0, 77, 109
1, 271417, Poly_aftertouch_c, 0, 82, 0
1, 271426, Note_on_c, 0, 56, 10
1, 271431, Note_off_c, 0, 83, 65
1, 271453, Note_off_c, 0, 54, 57
1, 271455, Note_off_c, 0, 56, 0
1, 271477, Note_off_c, 0, 66, 61
1, 271481, Poly_aftertouch_c, 0, 56, 0
1, 271496, Note_on_c, 0, 83, 52
1, 271509, Note_off_c, 0, 77, 59
1, 271523, Note_off_c, 0, 89, 61
1, 271538, Note_on_c, 0, 54, 101
1, 271569, Note_off_c, 0, 83, 64
1, 271571, Note_off_c, 0, 59, 60
1, 271573, Note_off_c, 0, 63, 60
1, 271596, Note_on_c, 0, 78, 107
1, 271599, Note_on_c, 0, 90, 106
1, 271623, Note_on_c, 0, 84, 60
1, 271632, Poly_aftertouch_c, 0, 53, 127
1, 271644, Note_off_c, 0, 84, 64
1, 271665, Poly_aftertouch_c, 0, 53, 0
1, 271676, Note_on_c, 0, 59, 64
1, 271683, Note_on_c, 0, 63, 95
1, 271683, Note_on_c, 0, 67, 105
1, 271691, Note_on_c, 0, 56, 75
1, 271708, Note_off_c, 0, 56, 66
1, 271709, Note_off_c, 0, 54, 59
1, 271713, Note_off_c, 0, 78, 56
1, 271760, Note_off_c, 0, 90, 57
1, 271763, Note_off_c, 0, 67, 50
1, 271799, Note_off_c, 0, 59, 61
1, 271801, Note_on_c, 0, 79, 103
1, 271804, Note_on_c, 0, 91, 106
1, 271825, Note_on_c, 0, 54, 88
1, 271831, Note_on_c, 0, 90, 41
1, 271857, Note_off_c, 0, 90, 51
1, 271858, Note_off_c, 0, 63, 60
1, 271914, Note_off_c, 0, 79, 57
1, 271918, Note_on_c, 0, 57, 65
1, 271918, Note_off_c, 0, 91, 58
1, 271919, Poly_aftertouch_c, 0, 53, 127
1, 271921, Note_on_c, 0, 60, 73
1, 271933, Note_on_c, 0, 56, 54
1, 271956, Poly_aftertouch_c, 0, 53, 0
1, 271957, Note_off_c, 0, 56, 58
1, 271991, Note_on_c, 0, 63, 72
1, 271997, Note_off_c, 0, 54, 49
1, 272033, Note_on_c, 0, 84, 101
1, 272033, Note_on_c, 0, 87, 102
1, 272036, Note_on_c, 0, 79, 102
1, 272037, Note_on_c, 0, 67, 110
1, 272038, Note_on_c, 0, 91, 112
1, 272050, Note_on_c, 0, 58, 47
1, 272058, Note_on_c, 0, 90, 69
1, 272074, Note_off_c, 0, 90, 62
1, 272083, Control_c, 0, 64, 73
1, 272098, Control_c, 0, 64, 29
1, 272113, Control_c, 0, 64, 0
1, 272142, Control_c, 0, 64, 57
1, 272157, Control_c, 0, 64, 87
1, 272172, Control_c, 0, 64, 127
1, 272330, Note_off_c, 0, 67, 54
1, 272366, Note_off_c, 0, 60, 61
1, 272366, Note_off_c, 0, 63, 58
1, 272370, Note_off_c, 0, 58, 32
1, 272393, Note_off_c, 0, 57, 55
1, 272489, Note_on_c, 0, 66, 113
1, 272498, Note_on_c, 0, 63, 90
1, 272507, Note_on_c, 0, 60, 71
1, 272512, Note_on_c, 0, 57, 58
1, 272518, Note_on_c, 0, 54, 65
1, 272521, Note_off_c, 0, 79, 39
1, 272548, Note_on_c, 0, 58, 32
1, 272548, Note_off_c, 0, 58, 127
1, 272567, Note_off_c, 0, 91, 51
1, 272707, Note_off_c, 0, 84, 51
1, 272732, Note_off_c, 0, 87, 53
1, 272770, Note_on_c, 0, 90, 103
1, 272771, Note_on_c, 0, 78, 106
1, 272777, Note_on_c, 0, 84, 84
1, 272781, Note_on_c, 0, 87, 74
1, 272833, Note_off_c, 0, 66, 57
1, 272846, Note_off_c, 0, 54, 58
1, 272885, Note_off_c, 0, 57, 37
1, 272896, Note_off_c, 0, 60, 33
1, 272918, Note_off_c, 0, 63, 59
1, 272941, Note_on_c, 0, 63, 81
1, 272941, Note_on_c, 0, 67, 108
1, 272947, Note_on_c, 0, 60, 68
1, 272953, Note_on_c, 0, 54, 88
1, 272955, Note_on_c, 0, 57, 63
1, 272968, Note_on_c, 0, 58, 44
1, 272980, Note_off_c, 0, 78, 56
1, 273024, Note_off_c, 0, 90, 61
1, 273034, Note_off_c, 0, 58, 0
1, 273034, Note_on_c, 0, 58, 7
1, 273037, Note_off_c, 0, 87, 57
1, 273045, Note_off_c, 0, 84, 52
1, 273099, Note_on_c, 0, 91, 107
1, 273099, Note_on_c, 0, 79, 99
1, 273100, Note_on_c, 0, 84, 94
1, 273102, Note_on_c, 0, 87, 96
1, 273137, Note_off_c, 0, 67, 61
1, 273138, Note_off_c, 0, 57, 62
1, 273154, Note_off_c, 0, 58, 42
1, 273157, Note_off_c, 0, 63, 60
1, 273160, Note_off_c, 0, 54, 55
1, 273169, Note_off_c, 0, 60, 60
1, 273222, Note_on_c, 0, 68, 108
1, 273223, Note_on_c, 0, 63, 94
1, 273227, Note_off_c, 0, 79, 59
1, 273239, Note_on_c, 0, 54, 80
1, 273244, Note_on_c, 0, 60, 74
1, 273248, Note_on_c, 0, 66, 76
1, 273249, Note_off_c, 0, 91, 63
1, 273255, Note_on_c, 0, 57, 66
1, 273265, Note_on_c, 0, 58, 56
1, 273285, Note_off_c, 0, 66, 0
1, 273298, Note_on_c, 0, 66, 40
1, 273301, Note_off_c, 0, 68, 56
1, 273326, Note_off_c, 0, 66, 62
1, 273329, Note_off_c, 0, 87, 56
1, 273340, Note_off_c, 0, 84, 59
1, 273362, Note_off_c, 0, 63, 56
1, 273378, Note_on_c, 0, 87, 91
1, 273379, Note_off_c, 0, 60, 55
1, 273379, Note_on_c, 0, 80, 108
1, 273382, Note_on_c, 0, 84, 93
1, 273383, Note_on_c, 0, 92, 110
1, 273383, Note_off_c, 0, 57, 59
1, 273393, Note_off_c, 0, 58, 50
1, 273397, Note_on_c, 0, 90, 67
1, 273409, Note_on_c, 0, 85, 42
1, 273409, Note_off_c, 0, 85, 127
1, 273412, Note_off_c, 0, 90, 65
1, 273438, Note_off_c, 0, 54, 61
1, 273493, Control_c, 0, 64, 85
1, 273508, Control_c, 0, 64, 0
1, 273534, Note_on_c, 0, 54, 108
1, 273537, Control_c, 0, 64, 53
1, 273540, Note_on_c, 0, 42, 111
1, 273552, Control_c, 0, 64, 127
1, 273558, Note_off_c, 0, 42, 75
1, 273564, Note_off_c, 0, 54, 66
1, 273611, Note_off_c, 0, 92, 59
1, 273647, Note_off_c, 0, 80, 49
1, 273652, Note_off_c, 0, 84, 52
1, 273866, Note_on_c, 0, 85, 89
1, 273868, Note_on_c, 0, 92, 96
1, 273868, Note_on_c, 0, 88, 82
1, 273870, Note_on_c, 0, 80, 97
1, 273870, Note_on_c, 0, 82, 95
1, 274039, Note_off_c, 0, 92, 55
1, 274082, Note_on_c, 0, 66, 106
1, 274087, Note_on_c, 0, 58, 94
1, 274091, Note_on_c, 0, 64, 76
1, 274096, Note_on_c, 0, 61, 71
1, 274148, Note_off_c, 0, 80, 54
1, 274173, Note_off_c, 0, 82, 54
1, 274178, Note_off_c, 0, 85, 53
1, 274200, Note_off_c, 0, 87, 1
1, 274200, Note_off_c, 0, 88, 39
1, 274243, Note_on_c, 0, 90, 103
1, 274244, Note_on_c, 0, 78, 107
1, 274247, Note_on_c, 0, 85, 94
1, 274247, Note_on_c, 0, 88, 81
1, 274249, Note_on_c, 0, 82, 92
1, 274295, Note_off_c, 0, 66, 62
1, 274313, Note_off_c, 0, 58, 60
1, 274314, Note_off_c, 0, 64, 59
1, 274329, Note_off_c, 0, 61, 59
1, 274361, Note_on_c, 0, 67, 108
1, 274364, Note_on_c, 0, 61, 85
1, 274366, Note_on_c, 0, 64, 94
1, 274366, Note_on_c, 0, 58, 100
1, 274396, Note_off_c, 0, 78, 56
1, 274408, Note_off_c, 0, 90, 60
1, 274440, Note_off_c, 0, 82, 56
1, 274445, Note_off_c, 0, 88, 37
1, 274449, Note_off_c, 0, 85, 58
1, 274485, Note_on_c, 0, 88, 88
1, 274487, Note_on_c, 0, 85, 90
1, 274488, Note_on_c, 0, 79, 105
1, 274489, Note_on_c, 0, 82, 101
1, 274489, Note_on_c, 0, 91, 107
1, 274520, Note_off_c, 0, 67, 60
1, 274531, Note_off_c, 0, 61, 58
1, 274551, Note_off_c, 0, 58, 62
1, 274560, Note_off_c, 0, 64, 56
1, 274600, Note_off_c, 0, 79, 59
1, 274601, Note_on_c, 0, 64, 87
1, 274602, Note_on_c, 0, 68, 107
1, 274604, Note_off_c, 0, 91, 65
1, 274609, Note_on_c, 0, 61, 92
1, 274610, Note_on_c, 0, 58, 90
1, 274655, Note_off_c, 0, 68, 69
1, 274670, Note_off_c, 0, 82, 57
1, 274677, Note_off_c, 0, 64, 64
1, 274677, Note_off_c, 0, 85, 63
1, 274701, Note_off_c, 0, 88, 61
1, 274702, Note_off_c, 0, 61, 66
1, 274711, Note_off_c, 0, 58, 64
1, 274717, Note_on_c, 0, 88, 77
1, 274719, Note_on_c, 0, 85, 88
1, 274721, Note_on_c, 0, 82, 95
1, 274723, Note_on_c, 0, 80, 106
1, 274724, Note_on_c, 0, 92, 107
1, 274857, Control_c, 0, 64, 59
1, 274872, Control_c, 0, 64, 0
1, 274881, Note_on_c, 0, 54, 117
1, 274886, Control_c, 0, 64, 71
1, 274890, Note_on_c, 0, 42, 109
1, 274901, Control_c, 0, 64, 127
1, 274908, Note_off_c, 0, 42, 75
1, 274908, Note_off_c, 0, 80, 33
1, 274911, Note_off_c, 0, 54, 69
1, 274957, Note_off_c, 0, 92, 61
1, 275022, Note_off_c, 0, 85, 49
1, 275030, Note_off_c, 0, 82, 47
1, 275127, Note_off_c, 0, 88, 0
1, 275144, Note_on_c, 0, 88, 54
1, 275147, Note_on_c, 0, 85, 102
1, 275150, Note_on_c, 0, 92, 99
1, 275152, Note_on_c, 0, 82, 95
1, 275153, Note_on_c, 0, 80, 106
1, 275278, Note_off_c, 0, 92, 57
1, 275305, Note_on_c, 0, 66, 106
1, 275309, Note_on_c, 0, 64, 89
1, 275316, Note_on_c, 0, 58, 82
1, 275319, Note_on_c, 0, 61, 74
1, 275385, Note_off_c, 0, 80, 58
1, 275422, Note_off_c, 0, 82, 58
1, 275423, Note_off_c, 0, 85, 57
1, 275450, Note_off_c, 0, 88, 0
1, 275466, Note_on_c, 0, 88, 51
1, 275467, Note_on_c, 0, 90, 92
1, 275469, Note_on_c, 0, 78, 101
1, 275469, Note_on_c, 0, 85, 89
1, 275470, Note_on_c, 0, 82, 90
1, 275537, Note_off_c, 0, 66, 62
1, 275541, Note_off_c, 0, 64, 58
1, 275557, Note_off_c, 0, 58, 63
1, 275562, Note_off_c, 0, 61, 62
1, 275602, Note_on_c, 0, 67, 102
1, 275604, Note_on_c, 0, 58, 100
1, 275605, Note_on_c, 0, 61, 92
1, 275611, Note_on_c, 0, 64, 96
1, 275613, Note_on_c, 0, 63, 63
1, 275621, Note_off_c, 0, 78, 59
1, 275641, Note_off_c, 0, 90, 58
1, 275670, Note_off_c, 0, 82, 56
1, 275684, Note_off_c, 0, 85, 60
1, 275689, Note_off_c, 0, 88, 55
1, 275707, Poly_aftertouch_c, 0, 59, 127
1, 275723, Note_on_c, 0, 88, 79
1, 275725, Note_on_c, 0, 85, 91
1, 275726, Note_on_c, 0, 79, 104
1, 275728, Note_on_c, 0, 82, 102
1, 275728, Note_on_c, 0, 91, 109
1, 275732, Poly_aftertouch_c, 0, 59, 0
1, 275734, Note_off_c, 0, 63, 40
1, 275755, Note_off_c, 0, 67, 63
1, 275767, Note_off_c, 0, 61, 56
1, 275773, Note_off_c, 0, 58, 56
1, 275805, Note_off_c, 0, 64, 43
1, 275843, Note_off_c, 0, 79, 59
1, 275844, Note_on_c, 0, 64, 83
1, 275846, Note_on_c, 0, 68, 108
1, 275846, Note_off_c, 0, 91, 63
1, 275849, Note_on_c, 0, 58, 106
1, 275853, Note_on_c, 0, 61, 91
1, 275903, Note_off_c, 0, 68, 69
1, 275914, Note_off_c, 0, 64, 64
1, 275916, Note_off_c, 0, 82, 61
1, 275922, Note_off_c, 0, 85, 63
1, 275940, Note_off_c, 0, 88, 62
1, 275949, Note_off_c, 0, 61, 62
1, 275955, Note_off_c, 0, 58, 57
1, 275967, Note_on_c, 0, 88, 81
1, 275968, Note_on_c, 0, 85, 93
1, 275969, Note_on_c, 0, 80, 122
1, 275972, Note_on_c, 0, 92, 111
1, 275973, Note_on_c, 0, 82, 98
1, 276035, Note_on_c, 0, 90, 20
1, 276065, Control_c, 0, 64, 112
1, 276075, Note_off_c, 0, 90, 49
1, 276080, Control_c, 0, 64, 54
1, 276095, Control_c, 0, 64, 0
1, 276111, Note_on_c, 0, 54, 112
1, 276118, Note_on_c, 0, 42, 105
1, 276124, Control_c, 0, 64, 83
1, 276138, Note_on_c, 0, 41, 69
1, 276138, Note_off_c, 0, 41, 127
1, 276138, Note_off_c, 0, 54, 72
1, 276139, Control_c, 0, 64, 127
1, 276148, Note_off_c, 0, 42, 63
1, 276193, Note_on_c, 0, 40, 8
1, 276202, Note_off_c, 0, 92, 60
1, 276205, Note_off_c, 0, 80, 52
1, 276240, Note_off_c, 0, 40, 40
1, 276264, Note_off_c, 0, 82, 53
1, 276301, Note_off_c, 0, 85, 57
1, 276348, Note_off_c, 0, 88, 0
1, 276358, Note_on_c, 0, 88, 72
1, 276360, Note_on_c, 0, 85, 98
1, 276363, Note_on_c, 0, 82, 99
1, 276364, Note_on_c, 0, 80, 107
1, 276367, Note_on_c, 0, 92, 107
1, 276421, Note_off_c, 0, 92, 69
1, 276518, Note_off_c, 0, 80, 56
1, 276536, Note_on_c, 0, 65, 108
1, 276542, Note_on_c, 0, 58, 102
1, 276542, Note_on_c, 0, 61, 95
1, 276613, Note_off_c, 0, 85, 48
1, 276626, Note_off_c, 0, 88, 34
1, 276638, Note_off_c, 0, 82, 51
1, 276698, Note_on_c, 0, 88, 87
1, 276699, Note_on_c, 0, 89, 100
1, 276700, Note_on_c, 0, 77, 101
1, 276703, Note_on_c, 0, 82, 97
1, 276705, Note_on_c, 0, 85, 95
1, 276736, Poly_aftertouch_c, 0, 87, 127
1, 276787, Note_off_c, 0, 65, 59
1, 276798, Note_off_c, 0, 89, 56
1, 276806, Note_off_c, 0, 77, 59
1, 276816, Note_off_c, 0, 61, 55
1, 276827, Note_off_c, 0, 58, 50
1, 276869, Note_off_c, 0, 82, 57
1, 276879, Note_off_c, 0, 85, 58
1, 276928, Poly_aftertouch_c, 0, 87, 0
1, 276935, Note_off_c, 0, 88, 0
1, 276951, Note_on_c, 0, 88, 49
1, 276959, Note_on_c, 0, 66, 91
1, 276961, Note_on_c, 0, 90, 87
1, 276962, Note_on_c, 0, 78, 89
1, 276965, Note_on_c, 0, 64, 76
1, 276968, Note_on_c, 0, 82, 82
1, 276970, Note_on_c, 0, 61, 69
1, 276970, Note_on_c, 0, 85, 82
1, 276984, Control_c, 0, 64, 88
1, 276985, Note_on_c, 0, 58, 73
1, 276999, Control_c, 0, 64, 73
1, 277014, Control_c, 0, 64, 68
1, 277029, Control_c, 0, 64, 72
1, 277044, Control_c, 0, 64, 93
1, 277058, Control_c, 0, 64, 127
1, 277160, Note_off_c, 0, 78, 58
1, 277183, Note_off_c, 0, 66, 60
1, 277187, Note_off_c, 0, 90, 64
1, 277201, Poly_aftertouch_c, 0, 87, 127
1, 277209, Note_off_c, 0, 82, 62
1, 277212, Note_off_c, 0, 58, 58
1, 277218, Note_off_c, 0, 85, 61
1, 277227, Note_off_c, 0, 61, 56
1, 277228, Note_off_c, 0, 64, 57
1, 277272, Note_on_c, 0, 91, 99
1, 277274, Note_on_c, 0, 67, 103
1, 277274, Note_on_c, 0, 85, 87
1, 277278, Note_on_c, 0, 79, 86
1, 277279, Note_on_c, 0, 64, 75
1, 277280, Note_on_c, 0, 61, 69
1, 277281, Note_on_c, 0, 82, 93
1, 277285, Note_on_c, 0, 58, 83
1, 277290, Note_off_c, 0, 88, 0
1, 277290, Note_on_c, 0, 88, 9
1, 277412, Note_off_c, 0, 91, 66
1, 277415, Note_off_c, 0, 67, 58
1, 277418, Note_off_c, 0, 58, 57
1, 277423, Note_off_c, 0, 79, 62
1, 277425, Note_off_c, 0, 61, 60
1, 277436, Note_off_c, 0, 64, 58
1, 277454, Note_off_c, 0, 82, 65
1, 277463, Note_off_c, 0, 85, 65
1, 277478, Poly_aftertouch_c, 0, 87, 0
1, 277495, Note_off_c, 0, 88, 0
1, 277505, Note_on_c, 0, 88, 51
1, 277511, Note_on_c, 0, 80, 104
1, 277511, Note_on_c, 0, 92, 110
1, 277512, Note_on_c, 0, 68, 104
1, 277512, Note_on_c, 0, 85, 85
1, 277514, Note_on_c, 0, 82, 102
1, 277518, Note_on_c, 0, 58, 94
1, 277522, Note_on_c, 0, 61, 86
1, 277523, Note_on_c, 0, 64, 93
1, 277630, Note_off_c, 0, 68, 58
1, 277632, Note_off_c, 0, 58, 60
1, 277636, Note_off_c, 0, 80, 57
1, 277636, Note_off_c, 0, 92, 63
1, 277639, Note_off_c, 0, 64, 57
1, 277657, Note_off_c, 0, 61, 55
1, 277665, Note_off_c, 0, 82, 57
1, 277674, Note_off_c, 0, 85, 62
1, 277712, Note_on_c, 0, 85, 88
1, 277713, Note_on_c, 0, 80, 111
1, 277714, Note_on_c, 0, 68, 112
1, 277714, Note_on_c, 0, 82, 91
1, 277716, Note_on_c, 0, 92, 105
1, 277718, Note_on_c, 0, 64, 99
1, 277719, Note_on_c, 0, 61, 87
1, 277730, Note_on_c, 0, 58, 75
1, 277741, Note_on_c, 0, 59, 80
1, 277756, Note_off_c, 0, 88, 0
1, 277756, Note_on_c, 0, 88, 5
1, 277775, Note_on_c, 0, 60, 28
1, 277805, Note_off_c, 0, 92, 65
1, 277809, Note_off_c, 0, 59, 51
1, 277810, Note_off_c, 0, 60, 55
1, 277820, Note_off_c, 0, 64, 49
1, 277824, Note_off_c, 0, 68, 57
1, 277843, Note_off_c, 0, 80, 55
1, 277853, Note_off_c, 0, 58, 22
1, 277892, Note_off_c, 0, 82, 58
1, 277893, Poly_aftertouch_c, 0, 87, 127
1, 277899, Note_off_c, 0, 61, 55
1, 277902, Note_off_c, 0, 85, 62
1, 277910, Note_off_c, 0, 88, 42
1, 277930, Note_on_c, 0, 65, 103
1, 277931, Note_on_c, 0, 61, 75
1, 277933, Note_on_c, 0, 64, 103
1, 277933, Note_on_c, 0, 77, 114
1, 277934, Note_on_c, 0, 82, 98
1, 277934, Note_on_c, 0, 85, 93
1, 277934, Note_on_c, 0, 88, 91
1, 277934, Note_on_c, 0, 89, 104
1, 277935, Note_on_c, 0, 58, 112
1, 277940, Control_c, 0, 64, 65
1, 277940, Poly_aftertouch_c, 0, 87, 0
1, 277952, Note_on_c, 0, 87, 27
1, 277954, Control_c, 0, 64, 0
1, 277969, Control_c, 0, 64, 44
1, 277984, Control_c, 0, 64, 81
1, 277999, Control_c, 0, 64, 127
1, 278019, Note_off_c, 0, 87, 0
1, 278019, Note_on_c, 0, 87, 10
1, 278050, Note_off_c, 0, 65, 57
1, 278055, Note_off_c, 0, 89, 55
1, 278059, Note_off_c, 0, 77, 58
1, 278096, Note_off_c, 0, 58, 59
1, 278116, Note_off_c, 0, 64, 52
1, 278119, Note_off_c, 0, 61, 60
1, 278121, Note_off_c, 0, 82, 60
1, 278131, Note_off_c, 0, 85, 62
1, 278140, Note_off_c, 0, 88, 62
1, 278149, Note_off_c, 0, 87, 0
1, 278157, Note_on_c, 0, 87, 83
1, 278161, Note_on_c, 0, 78, 116
1, 278163, Note_on_c, 0, 66, 113
1, 278163, Note_on_c, 0, 82, 90
1, 278163, Note_on_c, 0, 64, 100
1, 278165, Note_on_c, 0, 58, 108
1, 278165, Note_on_c, 0, 85, 103
1, 278166, Note_on_c, 0, 61, 85
1, 278166, Note_on_c, 0, 90, 109
1, 278204, Note_on_c, 0, 59, 63
1, 278238, Note_off_c, 0, 59, 51
1, 278268, Note_off_c, 0, 90, 63
1, 278271, Note_off_c, 0, 78, 56
1, 278274, Note_off_c, 0, 58, 62
1, 278283, Note_off_c, 0, 66, 56
1, 278314, Note_on_c, 0, 88, 59
1, 278318, Note_off_c, 0, 64, 53
1, 278365, Note_off_c, 0, 82, 58
1, 278368, Note_off_c, 0, 87, 48
1, 278375, Note_off_c, 0, 85, 61
1, 278378, Note_off_c, 0, 61, 59
1, 278384, Note_off_c, 0, 88, 0
1, 278397, Note_on_c, 0, 67, 116
1, 278398, Note_on_c, 0, 88, 57
1, 278399, Note_on_c, 0, 82, 107
1, 278399, Note_on_c, 0, 85, 96
1, 278399, Note_on_c, 0, 79, 112
1, 278400, Note_on_c, 0, 58, 104
1, 278400, Note_on_c, 0, 61, 84
1, 278402, Note_on_c, 0, 64, 107
1, 278402, Note_on_c, 0, 91, 92
1, 278430, Note_on_c, 0, 65, 48
1, 278430, Note_off_c, 0, 65, 127
1, 278471, Note_on_c, 0, 83, 35
1, 278560, Note_off_c, 0, 67, 56
1, 278564, Note_off_c, 0, 61, 60
1, 278569, Note_off_c, 0, 91, 55
1, 278575, Note_off_c, 0, 83, 0
1, 278578, Note_off_c, 0, 64, 49
1, 278601, Note_off_c, 0, 58, 52
1, 278602, Note_off_c, 0, 79, 52
1, 278611, Poly_aftertouch_c, 0, 83, 127
1, 278659, Note_off_c, 0, 82, 56
1, 278685, Note_on_c, 0, 80, 126
1, 278685, Note_on_c, 0, 92, 111
1, 278685, Note_off_c, 0, 85, 62
1, 278686, Note_on_c, 0, 68, 113
1, 278687, Poly_aftertouch_c, 0, 83, 0
1, 278689, Note_on_c, 0, 58, 99
1, 278691, Note_on_c, 0, 64, 102
1, 278692, Note_on_c, 0, 61, 92
1, 278706, Note_on_c, 0, 84, 65
1, 278707, Note_on_c, 0, 93, 74
1, 278707, Note_off_c, 0, 80, 77
1, 278709, Note_off_c, 0, 88, 65
1, 278713, Note_off_c, 0, 92, 71
1, 278726, Note_off_c, 0, 84, 67
1, 278726, Note_off_c, 0, 93, 44
1, 278816, Note_off_c, 0, 58, 60
1, 278823, Note_off_c, 0, 68, 53
1, 278836, Note_off_c, 0, 64, 52
1, 278848, Note_off_c, 0, 61, 55
1, 279008, Note_on_c, 0, 70, 112
1, 279014, Note_on_c, 0, 94, 110
1, 279015, Note_on_c, 0, 61, 88
1, 279015, Note_on_c, 0, 82, 119
1, 279016, Note_on_c, 0, 58, 102
1, 279016, Note_on_c, 0, 64, 87
1, 279045, Control_c, 0, 64, 101
1, 279059, Control_c, 0, 64, 96
1, 279074, Control_c, 0, 64, 127
1, 279087, Note_off_c, 0, 64, 59
1, 279091, Note_on_c, 0, 59, 3
1, 279109, Note_off_c, 0, 70, 56
1, 279124, Poly_aftertouch_c, 0, 68, 0
1, 279129, Note_off_c, 0, 59, 51
1, 279139, Poly_aftertouch_c, 0, 57, 0
1, 279161, Note_off_c, 0, 58, 59
1, 279199, Note_on_c, 0, 59, 95
1, 279233, Note_off_c, 0, 82, 44
1, 279234, Note_off_c, 0, 61, 37
1, 279259, Control_c, 0, 64, 66
1, 279274, Control_c, 0, 64, 0
1, 279281, Note_on_c, 0, 64, 90
1, 279289, Control_c, 0, 64, 39
1, 279304, Control_c, 0, 64, 70
1, 279308, Note_off_c, 0, 59, 64
1, 279319, Control_c, 0, 64, 127
1, 279353, Note_on_c, 0, 68, 98
1, 279376, Note_off_c, 0, 64, 68
1, 279409, Note_off_c, 0, 68, 65
1, 279430, Note_off_c, 0, 94, 57
1, 279437, Control_c, 0, 64, 74
1, 279451, Control_c, 0, 64, 68
1, 279464, Note_on_c, 0, 85, 112
1, 279465, Note_on_c, 0, 73, 126
1, 279465, Note_on_c, 0, 97, 107
1, 279466, Note_on_c, 0, 88, 108
1, 279466, Control_c, 0, 64, 127
1, 279467, Note_on_c, 0, 92, 103
1, 279467, Poly_aftertouch_c, 0, 69, 0
1, 279477, Note_on_c, 0, 94, 78
1, 279487, Note_off_c, 0, 73, 76
1, 279544, Note_off_c, 0, 94, 61
1, 279630, Note_off_c, 0, 85, 51
1, 279654, Note_off_c, 0, 97, 56
1, 279729, Note_off_c, 0, 92, 54
1, 279744, Note_off_c, 0, 88, 43
1, 279808, Note_on_c, 0, 85, 108
1, 279810, Note_on_c, 0, 88, 101
1, 279812, Note_on_c, 0, 92, 105
1, 279812, Note_on_c, 0, 97, 104
1, 279862, Note_on_c, 0, 94, 13
1, 279873, Note_off_c, 0, 94, 0
1, 279904, Note_off_c, 0, 97, 62
1, 279911, Note_off_c, 0, 85, 59
1, 279924, Poly_aftertouch_c, 0, 94, 0
1, 279986, Note_off_c, 0, 88, 55
1, 280020, Note_off_c, 0, 92, 59
1, 280049, Note_on_c, 0, 92, 89
1, 280050, Note_on_c, 0, 85, 106
1, 280051, Note_on_c, 0, 97, 103
1, 280053, Note_on_c, 0, 88, 98
1, 280136, Note_off_c, 0, 85, 56
1, 280153, Note_off_c, 0, 97, 61
1, 280224, Note_on_c, 0, 35, 65
1, 280225, Note_on_c, 0, 28, 73
1, 280227, Note_on_c, 0, 85, 84
1, 280228, Note_on_c, 0, 97, 84
1, 280247, Note_on_c, 0, 40, 62
1, 280256, Note_on_c, 0, 94, 40
1, 280264, Note_on_c, 0, 38, 62
1, 280294, Note_off_c, 0, 38, 52
1, 280306, Note_off_c, 0, 85, 61
1, 280308, Note_off_c, 0, 28, 60
1, 280309, Note_off_c, 0, 40, 61
1, 280329, Note_off_c, 0, 97, 58
1, 280337, Note_off_c, 0, 88, 51
1, 280348, Note_off_c, 0, 94, 48
1, 280359, Note_off_c, 0, 92, 61
1, 280372, Note_off_c, 0, 35, 0
1, 280390, Note_on_c, 0, 35, 42
1, 280392, Note_on_c, 0, 40, 86
1, 280393, Note_on_c, 0, 92, 64
1, 280394, Note_on_c, 0, 28, 83
1, 280394, Note_on_c, 0, 85, 89
1, 280394, Note_on_c, 0, 97, 89
1, 280400, Note_on_c, 0, 88, 78
1, 280437, Note_off_c, 0, 28, 62
1, 280444, Note_off_c, 0, 40, 61
1, 280452, Note_off_c, 0, 85, 61
1, 280457, Note_on_c, 0, 94, 5
1, 280461, Note_off_c, 0, 97, 63
1, 280477, Note_off_c, 0, 35, 57
1, 280484, Note_off_c, 0, 88, 62
1, 280501, Note_off_c, 0, 92, 58
1, 280518, Note_on_c, 0, 35, 71
1, 280518, Note_on_c, 0, 40, 100
1, 280521, Note_on_c, 0, 92, 68
1, 280524, Note_on_c, 0, 85, 97
1, 280524, Note_on_c, 0, 97, 96
1, 280524, Note_on_c, 0, 28, 98
1, 280526, Note_on_c, 0, 88, 78
1, 280531, Note_off_c, 0, 94, 0
1, 280545, Note_on_c, 0, 94, 45
1, 280563, Note_off_c, 0, 40, 64
1, 280565, Note_off_c, 0, 28, 62
1, 280569, Note_off_c, 0, 85, 64
1, 280577, Note_off_c, 0, 97, 64
1, 280594, Note_off_c, 0, 94, 44
1, 280599, Note_off_c, 0, 88, 63
1, 280603, Note_off_c, 0, 35, 58
1, 280610, Note_off_c, 0, 92, 66
1, 280632, Note_on_c, 0, 35, 67
1, 280635, Note_on_c, 0, 40, 106
1, 280638, Note_on_c, 0, 85, 99
1, 280641, Note_on_c, 0, 92, 87
1, 280641, Note_on_c, 0, 28, 106
1, 280644, Note_on_c, 0, 88, 81
1, 280647, Note_on_c, 0, 97, 96
1, 280661, Note_on_c, 0, 89, 66
1, 280673, Note_off_c, 0, 28, 62
1, 280676, Note_off_c, 0, 85, 65
1, 280677, Note_off_c, 0, 40, 64
1, 280680, Note_off_c, 0, 97, 61
1, 280682, Note_off_c, 0, 89, 58
1, 280698, Note_off_c, 0, 35, 59
1, 280703, Note_off_c, 0, 88, 66
1, 280724, Note_off_c, 0, 92, 65
1, 280726, Poly_aftertouch_c, 0, 29, 0
1, 280744, Note_on_c, 0, 29, 51
1, 280745, Poly_aftertouch_c, 0, 94, 0
1, 280747, Note_on_c, 0, 35, 78
1, 280748, Note_on_c, 0, 40, 110
1, 280750, Note_on_c, 0, 85, 102
1, 280752, Note_on_c, 0, 88, 88
1, 280753, Note_on_c, 0, 92, 89
1, 280757, Note_on_c, 0, 97, 107
1, 280760, Note_on_c, 0, 94, 46
1, 280766, Note_on_c, 0, 30, 74
1, 280778, Note_off_c, 0, 40, 70
1, 280785, Note_off_c, 0, 85, 70
1, 280790, Note_off_c, 0, 29, 64
1, 280796, Note_off_c, 0, 97, 65
1, 280803, Note_off_c, 0, 30, 62
1, 280816, Note_off_c, 0, 88, 61
1, 280822, Note_off_c, 0, 94, 61
1, 280825, Note_off_c, 0, 92, 64
1, 280831, Note_off_c, 0, 35, 0
1, 280843, Note_on_c, 0, 35, 66
1, 280852, Note_on_c, 0, 85, 105
1, 280853, Note_on_c, 0, 40, 107
1, 280855, Note_on_c, 0, 88, 90
1, 280858, Note_on_c, 0, 29, 97
1, 280858, Note_on_c, 0, 92, 89
1, 280858, Note_on_c, 0, 97, 101
1, 280864, Note_on_c, 0, 94, 71
1, 280866, Poly_aftertouch_c, 0, 28, 0
1, 280870, Note_on_c, 0, 30, 76
1, 280891, Note_off_c, 0, 85, 65
1, 280894, Note_off_c, 0, 29, 63
1, 280897, Note_off_c, 0, 97, 64
1, 280898, Note_off_c, 0, 30, 65
1, 280906, Note_off_c, 0, 40, 63
1, 280922, Note_off_c, 0, 35, 62
1, 280923, Note_off_c, 0, 88, 63
1, 280926, Note_off_c, 0, 94, 56
1, 280940, Note_off_c, 0, 92, 62
1, 280964, Note_on_c, 0, 85, 119
1, 280966, Note_on_c, 0, 40, 109
1, 280966, Note_on_c, 0, 88, 93
1, 280968, Note_on_c, 0, 92, 90
1, 280968, Note_on_c, 0, 97, 112
1, 280971, Note_on_c, 0, 35, 89
1, 280974, Note_on_c, 0, 28, 101
1, 280980, Note_on_c, 0, 94, 71
1, 280992, Note_on_c, 0, 30, 53
1, 280992, Note_off_c, 0, 30, 127
1, 280996, Note_on_c, 0, 34, 55
1, 280996, Note_off_c, 0, 34, 127
1, 281000, Note_off_c, 0, 85, 66
1, 281001, Note_off_c, 0, 40, 67
1, 281003, Note_off_c, 0, 28, 67
1, 281004, Note_on_c, 0, 29, 43
1, 281004, Note_off_c, 0, 29, 127
1, 281010, Note_off_c, 0, 97, 65
1, 281026, Note_off_c, 0, 35, 57
1, 281037, Note_off_c, 0, 88, 62
1, 281043, Note_off_c, 0, 94, 51
1, 281052, Poly_aftertouch_c, 0, 26, 0
1, 281057, Note_off_c, 0, 92, 60
1, 281079, Note_on_c, 0, 35, 89
1, 281079, Note_on_c, 0, 40, 113
1, 281084, Note_on_c, 0, 28, 99
1, 281085, Note_on_c, 0, 85, 112
1, 281088, Note_on_c, 0, 92, 89
1, 281088, Note_on_c, 0, 97, 111
1, 281089, Note_on_c, 0, 88, 99
1, 281090, Poly_aftertouch_c, 0, 26, 127
1, 281092, Note_on_c, 0, 29, 77
1, 281097, Note_on_c, 0, 94, 80
1, 281098, Poly_aftertouch_c, 0, 26, 0
1, 281111, Note_on_c, 0, 30, 49
1, 281120, Note_off_c, 0, 85, 62
1, 281128, Note_off_c, 0, 40, 57
1, 281132, Note_off_c, 0, 28, 67
1, 281138, Note_off_c, 0, 97, 63
1, 281150, Note_off_c, 0, 29, 58
1, 281159, Note_off_c, 0, 30, 48
1, 281161, Note_off_c, 0, 88, 59
1, 281177, Note_off_c, 0, 35, 61
1, 281181, Note_off_c, 0, 94, 56
1, 281217, Note_off_c, 0, 92, 0
1, 281226, Note_on_c, 0, 85, 116
1, 281227, Note_on_c, 0, 97, 109
1, 281228, Note_on_c, 0, 35, 84
1, 281228, Note_on_c, 0, 92, 74
1, 281229, Note_on_c, 0, 88, 112
1, 281230, Note_on_c, 0, 28, 104
1, 281231, Note_on_c, 0, 40, 105
1, 281234, Note_on_c, 0, 41, 107
1, 281240, Note_on_c, 0, 94, 80
1, 281249, Note_on_c, 0, 29, 72
1, 281255, Note_off_c, 0, 41, 70
1, 281284, Note_off_c, 0, 40, 67
1, 281290, Note_on_c, 0, 32, 6
1, 281299, Note_off_c, 0, 85, 55
1, 281316, Note_off_c, 0, 97, 57
1, 281347, Note_off_c, 0, 28, 60
1, 281355, Note_off_c, 0, 29, 54
1, 281378, Note_off_c, 0, 32, 35
1, 281393, Note_off_c, 0, 94, 53
1, 281397, Note_off_c, 0, 35, 37
1, 281401, Note_off_c, 0, 88, 54
1, 281417, Note_off_c, 0, 92, 64
1, 281427, Note_on_c, 0, 40, 115
1, 281428, Note_on_c, 0, 35, 86
1, 281431, Note_on_c, 0, 28, 103
1, 281439, Note_on_c, 0, 92, 83
1, 281439, Note_on_c, 0, 85, 103
1, 281439, Note_on_c, 0, 88, 94
1, 281439, Note_on_c, 0, 97, 108
1, 281453, Note_off_c, 0, 28, 71
1, 281456, Note_on_c, 0, 29, 65
1, 281460, Note_on_c, 0, 94, 58
1, 281474, Note_off_c, 0, 40, 68
1, 281477, Note_off_c, 0, 35, 65
1, 281489, Note_off_c, 0, 29, 62
1, 281489, Note_off_c, 0, 94, 57
1, 281527, Note_off_c, 0, 85, 57
1, 281552, Note_off_c, 0, 97, 60
1, 281635, Note_off_c, 0, 88, 31
1, 281764, Note_off_c, 0, 92, 0
1, 281764, Note_on_c, 0, 92, 30
1, 281771, Note_on_c, 0, 85, 104
1, 281773, Note_on_c, 0, 88, 82
1, 281777, Note_on_c, 0, 97, 95
1, 281829, Note_on_c, 0, 94, 12
1, 281842, Note_off_c, 0, 85, 60
1, 281847, Note_off_c, 0, 97, 63
1, 281875, Note_off_c, 0, 88, 60
1, 281882, Note_off_c, 0, 94, 46
1, 281931, Note_on_c, 0, 85, 103
1, 281932, Note_on_c, 0, 88, 90
1, 281945, Note_on_c, 0, 97, 80
1, 281960, Note_on_c, 0, 59, 96
1, 281972, Note_on_c, 0, 94, 45
1, 281972, Note_off_c, 0, 97, 66
1, 282011, Note_off_c, 0, 94, 45
1, 282028, Note_on_c, 0, 64, 80
1, 282053, Note_off_c, 0, 85, 60
1, 282071, Note_off_c, 0, 59, 62
1, 282073, Poly_aftertouch_c, 0, 61, 127
1, 282108, Note_off_c, 0, 92, 49
1, 282113, Note_off_c, 0, 88, 0
1, 282118, Note_on_c, 0, 68, 79
1, 282118, Poly_aftertouch_c, 0, 61, 0
1, 282123, Note_on_c, 0, 71, 122
1, 282123, Note_on_c, 0, 88, 78
1, 282124, Note_on_c, 0, 83, 118
1, 282125, Note_on_c, 0, 95, 106
1, 282162, Note_on_c, 0, 63, 46
1, 282193, Note_off_c, 0, 63, 53
1, 282258, Note_off_c, 0, 68, 64
1, 282268, Poly_aftertouch_c, 0, 90, 127
1, 282277, Note_off_c, 0, 83, 37
1, 282281, Note_off_c, 0, 95, 57
1, 282289, Note_off_c, 0, 64, 63
1, 282318, Note_off_c, 0, 71, 31
1, 282355, Note_off_c, 0, 88, 39
1, 282384, Poly_aftertouch_c, 0, 90, 0
1, 282387, Note_on_c, 0, 83, 105
1, 282389, Note_on_c, 0, 88, 79
1, 282389, Note_on_c, 0, 95, 98
1, 282420, Poly_aftertouch_c, 0, 90, 127
1, 282468, Note_off_c, 0, 83, 55
1, 282471, Note_off_c, 0, 95, 64
1, 282527, Note_off_c, 0, 88, 0
1, 282534, Note_on_c, 0, 95, 97
1, 282538, Note_on_c, 0, 88, 67
1, 282539, Note_on_c, 0, 83, 104
1, 282540, Note_on_c, 0, 56, 92
1, 282550, Poly_aftertouch_c, 0, 90, 0
1, 282620, Note_off_c, 0, 95, 65
1, 282622, Note_on_c, 0, 59, 75
1, 282636, Note_off_c, 0, 83, 57
1, 282662, Note_off_c, 0, 56, 54
1, 282669, Note_on_c, 0, 64, 70
1, 282679, Note_on_c, 0, 70, 118
1, 282688, Note_on_c, 0, 82, 103
1, 282694, Note_on_c, 0, 94, 96
1, 282756, Note_off_c, 0, 82, 59
1, 282771, Note_off_c, 0, 94, 59
1, 282858, Note_on_c, 0, 82, 87
1, 282875, Note_on_c, 0, 94, 79
1, 282920, Note_off_c, 0, 82, 61
1, 282932, Note_off_c, 0, 94, 62
1, 282960, Note_off_c, 0, 88, 0
1, 282986, Note_on_c, 0, 88, 57
1, 282993, Note_on_c, 0, 94, 76
1, 282995, Note_on_c, 0, 82, 91
1, 283040, Note_off_c, 0, 82, 62
1, 283054, Note_off_c, 0, 94, 63
1, 283076, Note_off_c, 0, 88, 0
1, 283097, Note_on_c, 0, 82, 92
1, 283103, Note_on_c, 0, 88, 23
1, 283104, Note_on_c, 0, 94, 76
1, 283150, Note_off_c, 0, 82, 62
1, 283163, Note_off_c, 0, 94, 63
1, 283191, Note_off_c, 0, 88, 0
1, 283201, Poly_aftertouch_c, 0, 94, 0
1, 283204, Note_on_c, 0, 88, 60
1, 283207, Note_on_c, 0, 94, 85
1, 283210, Note_on_c, 0, 82, 91
1, 283234, Note_off_c, 0, 70, 52
1, 283235, Note_on_c, 0, 92, 60
1, 283264, Note_off_c, 0, 82, 61
1, 283267, Note_off_c, 0, 94, 66
1, 283293, Note_off_c, 0, 92, 63
1, 283309, Note_off_c, 0, 88, 52
1, 283314, Note_off_c, 0, 64, 64
1, 283323, Note_off_c, 0, 59, 59
1, 283323, Note_on_c, 0, 68, 108
1, 283332, Note_on_c, 0, 92, 79
1, 283334, Note_on_c, 0, 80, 104
1, 283350, Note_on_c, 0, 82, 77
1, 283351, Note_on_c, 0, 93, 73
1, 283365, Note_off_c, 0, 82, 70
1, 283366, Note_off_c, 0, 93, 66
1, 283382, Note_on_c, 0, 69, 14
1, 283397, Note_off_c, 0, 68, 63
1, 283433, Note_off_c, 0, 69, 50
1, 283440, Note_off_c, 0, 92, 64
1, 283441, Note_on_c, 0, 63, 50
1, 283459, Note_off_c, 0, 80, 59
1, 283467, Note_on_c, 0, 54, 89
1, 283467, Note_off_c, 0, 63, 63
1, 283493, Control_c, 0, 64, 115
1, 283508, Control_c, 0, 64, 60
1, 283515, Note_on_c, 0, 59, 77
1, 283520, Note_on_c, 0, 56, 52
1, 283523, Control_c, 0, 64, 34
1, 283536, Note_on_c, 0, 63, 90
1, 283538, Control_c, 0, 64, 61
1, 283552, Note_off_c, 0, 54, 65
1, 283552, Control_c, 0, 64, 127
1, 283553, Note_on_c, 0, 68, 109
1, 283560, Note_on_c, 0, 92, 101
1, 283562, Note_on_c, 0, 80, 104
1, 283566, Note_on_c, 0, 83, 86
1, 283567, Note_on_c, 0, 87, 86
1, 283571, Note_on_c, 0, 84, 85
1, 283577, Note_off_c, 0, 56, 64
1, 283589, Note_on_c, 0, 60, 40
1, 283596, Note_off_c, 0, 59, 64
1, 283597, Note_off_c, 0, 68, 71
1, 283601, Note_off_c, 0, 63, 64
1, 283616, Note_off_c, 0, 60, 54
1, 283621, Note_off_c, 0, 80, 59
1, 283632, Note_off_c, 0, 92, 62
1, 283642, Note_off_c, 0, 84, 59
1, 283657, Note_off_c, 0, 83, 58
1, 283709, Note_off_c, 0, 87, 49
1, 283802, Note_on_c, 0, 80, 97
1, 283810, Note_on_c, 0, 92, 85
1, 283812, Note_on_c, 0, 83, 76
1, 283821, Note_on_c, 0, 87, 66
1, 283836, Note_on_c, 0, 90, 39
1, 283848, Note_off_c, 0, 80, 62
1, 283861, Note_off_c, 0, 92, 66
1, 283877, Note_off_c, 0, 90, 48
1, 283891, Note_off_c, 0, 87, 59
1, 283925, Note_off_c, 0, 83, 0
1, 283941, Note_on_c, 0, 83, 60
1, 283948, Note_on_c, 0, 80, 97
1, 283955, Note_on_c, 0, 87, 75
1, 283960, Note_on_c, 0, 92, 86
1, 283979, Note_off_c, 0, 92, 70
1, 284003, Note_off_c, 0, 80, 61
1, 284034, Poly_aftertouch_c, 0, 90, 127
1, 284040, Note_off_c, 0, 83, 55
1, 284075, Note_on_c, 0, 23, 80
1, 284075, Note_on_c, 0, 35, 90
1, 284077, Note_on_c, 0, 30, 72
1, 284084, Note_on_c, 0, 83, 60
1, 284090, Note_on_c, 0, 90, 15
1, 284100, Note_on_c, 0, 92, 74
1, 284101, Note_on_c, 0, 80, 73
1, 284130, Note_off_c, 0, 80, 60
1, 284139, Note_off_c, 0, 92, 60
1, 284141, Note_on_c, 0, 25, 5
1, 284162, Note_off_c, 0, 35, 51
1, 284194, Note_off_c, 0, 23, 35
1, 284196, Note_off_c, 0, 87, 54
1, 284198, Note_off_c, 0, 25, 51
1, 284200, Note_off_c, 0, 90, 35
1, 284209, Note_off_c, 0, 30, 0
1, 284219, Note_off_c, 0, 83, 0
1, 284225, Note_on_c, 0, 30, 56
1, 284226, Note_on_c, 0, 23, 68
1, 284227, Note_on_c, 0, 35, 74
1, 284232, Note_on_c, 0, 83, 61
1, 284234, Note_on_c, 0, 87, 53
1, 284238, Note_on_c, 0, 80, 81
1, 284240, Note_on_c, 0, 92, 84
1, 284280, Note_off_c, 0, 35, 59
1, 284283, Note_off_c, 0, 80, 58
1, 284286, Note_off_c, 0, 92, 63
1, 284288, Note_off_c, 0, 23, 62
1, 284325, Note_off_c, 0, 83, 50
1, 284325, Note_off_c, 0, 87, 59
1, 284330, Note_off_c, 0, 30, 0
1, 284343, Note_on_c, 0, 30, 52
1, 284349, Note_on_c, 0, 35, 92
1, 284353, Note_on_c, 0, 23, 85
1, 284357, Note_on_c, 0, 83, 64
1, 284359, Note_on_c, 0, 87, 60
1, 284363, Note_on_c, 0, 80, 89
1, 284368, Note_on_c, 0, 92, 81
1, 284410, Note_off_c, 0, 92, 63
1, 284411, Note_off_c, 0, 23, 61
1, 284411, Note_off_c, 0, 35, 62
1, 284413, Note_off_c, 0, 80, 61
1, 284416, Note_on_c, 0, 25, 5
1, 284440, Note_off_c, 0, 83, 60
1, 284446, Note_off_c, 0, 25, 0
1, 284447, Note_off_c, 0, 87, 61
1, 284452, Note_off_c, 0, 30, 0
1, 284471, Poly_aftertouch_c, 0, 25, 0
1, 284471, Note_on_c, 0, 30, 61
1, 284477, Note_on_c, 0, 35, 87
1, 284481, Note_on_c, 0, 23, 83
1, 284486, Note_on_c, 0, 83, 70
1, 284487, Note_on_c, 0, 87, 61
1, 284489, Note_on_c, 0, 80, 80
1, 284489, Poly_aftertouch_c, 0, 25, 0
1, 284496, Note_on_c, 0, 92, 81
1, 284528, Poly_aftertouch_c, 0, 25, 127
1, 284528, Note_off_c, 0, 35, 62
1, 284529, Note_off_c, 0, 23, 62
1, 284538, Note_off_c, 0, 92, 64
1, 284540, Note_off_c, 0, 80, 62
1, 284551, Poly_aftertouch_c, 0, 25, 0
1, 284560, Note_off_c, 0, 30, 60
1, 284560, Note_off_c, 0, 83, 59
1, 284567, Note_off_c, 0, 87, 63
1, 284569, Poly_aftertouch_c, 0, 24, 127
1, 284583, Note_on_c, 0, 30, 70
1, 284584, Poly_aftertouch_c, 0, 25, 0
1, 284588, Note_on_c, 0, 35, 89
1, 284590, Note_on_c, 0, 23, 90
1, 284596, Note_on_c, 0, 87, 64
1, 284597, Note_on_c, 0, 83, 68
1, 284598, Note_on_c, 0, 80, 81
1, 284601, Poly_aftertouch_c, 0, 25, 0
1, 284602, Note_on_c, 0, 92, 86
1, 284621, Note_on_c, 0, 25, 22
1, 284638, Note_off_c, 0, 35, 63
1, 284641, Note_off_c, 0, 23, 59
1, 284645, Note_off_c, 0, 80, 64
1, 284647, Note_off_c, 0, 92, 66
1, 284659, Note_off_c, 0, 30, 61
1, 284667, Note_off_c, 0, 25, 40
1, 284668, Note_off_c, 0, 83, 61
1, 284677, Poly_aftertouch_c, 0, 24, 0
1, 284683, Note_off_c, 0, 87, 61
1, 284697, Poly_aftertouch_c, 0, 27, 0
1, 284699, Note_on_c, 0, 30, 75
1, 284700, Note_on_c, 0, 35, 96
1, 284702, Note_on_c, 0, 23, 87
1, 284710, Poly_aftertouch_c, 0, 27, 0
1, 284711, Note_on_c, 0, 87, 66
1, 284714, Note_on_c, 0, 80, 86
1, 284714, Note_on_c, 0, 83, 75
1, 284717, Note_on_c, 0, 92, 86
1, 284733, Note_on_c, 0, 24, 44
1, 284747, Note_off_c, 0, 35, 61
1, 284751, Note_off_c, 0, 23, 60
1, 284754, Note_on_c, 0, 25, 19
1, 284759, Note_off_c, 0, 80, 63
1, 284759, Note_off_c, 0, 92, 66
1, 284774, Note_off_c, 0, 30, 62
1, 284778, Note_off_c, 0, 24, 54
1, 284781, Note_off_c, 0, 83, 61
1, 284792, Poly_aftertouch_c, 0, 27, 0
1, 284794, Note_off_c, 0, 87, 64
1, 284808, Note_on_c, 0, 30, 85
1, 284809, Note_on_c, 0, 35, 97
1, 284810, Note_off_c, 0, 25, 0
1, 284815, Note_on_c, 0, 23, 94
1, 284822, Note_on_c, 0, 87, 73
1, 284823, Note_on_c, 0, 80, 90
1, 284823, Note_on_c, 0, 83, 80
1, 284825, Poly_aftertouch_c, 0, 25, 0
1, 284831, Note_on_c, 0, 92, 95
1, 284839, Note_on_c, 0, 25, 35
1, 284864, Note_off_c, 0, 23, 56
1, 284864, Note_off_c, 0, 80, 63
1, 284867, Note_off_c, 0, 92, 64
1, 284869, Note_off_c, 0, 35, 49
1, 284888, Note_off_c, 0, 25, 53
1, 284888, Note_off_c, 0, 83, 61
1, 284912, Note_off_c, 0, 87, 60
1, 284926, Poly_aftertouch_c, 0, 89, 0
1, 284928, Note_on_c, 0, 35, 77
1, 284936, Note_on_c, 0, 23, 91
1, 284938, Poly_aftertouch_c, 0, 24, 0
1, 284939, Note_on_c, 0, 87, 64
1, 284944, Note_on_c, 0, 80, 91
1, 284944, Note_on_c, 0, 83, 80
1, 284946, Note_on_c, 0, 92, 93
1, 284963, Note_on_c, 0, 25, 56
1, 284978, Note_on_c, 0, 89, 28
1, 284989, Note_off_c, 0, 80, 62
1, 284993, Note_off_c, 0, 35, 62
1, 284999, Note_off_c, 0, 92, 61
1, 285016, Note_off_c, 0, 83, 62
1, 285019, Note_off_c, 0, 23, 55
1, 285019, Note_off_c, 0, 25, 54
1, 285022, Note_off_c, 0, 89, 51
1, 285031, Note_off_c, 0, 87, 65
1, 285048, Note_off_c, 0, 30, 57
1, 285064, Note_on_c, 0, 30, 59
1, 285065, Note_on_c, 0, 23, 82
1, 285070, Note_on_c, 0, 87, 75
1, 285070, Note_on_c, 0, 35, 97
1, 285071, Note_on_c, 0, 80, 96
1, 285072, Note_on_c, 0, 83, 86
1, 285077, Note_on_c, 0, 92, 90
1, 285095, Note_on_c, 0, 33, 60
1, 285127, Note_off_c, 0, 33, 36
1, 285160, Note_off_c, 0, 80, 54
1, 285167, Note_off_c, 0, 35, 60
1, 285201, Note_off_c, 0, 23, 55
1, 285201, Note_off_c, 0, 92, 59
1, 285244, Note_off_c, 0, 30, 53
1, 285260, Note_on_c, 0, 23, 80
1, 285263, Note_on_c, 0, 30, 54
1, 285264, Note_on_c, 0, 35, 110
1, 285288, Note_off_c, 0, 83, 0
1, 285292, Note_off_c, 0, 87, 0
1, 285297, Note_on_c, 0, 24, 63
1, 285300, Note_off_c, 0, 23, 64
1, 285300, Note_on_c, 0, 80, 67
1, 285306, Note_on_c, 0, 92, 66
1, 285306, Note_on_c, 0, 83, 29
1, 285329, Poly_aftertouch_c, 0, 87, 127
1, 285341, Note_off_c, 0, 24, 51
1, 285342, Note_off_c, 0, 30, 61
1, 285342, Note_off_c, 0, 35, 56
1, 285359, Note_off_c, 0, 92, 55
1, 285368, Note_off_c, 0, 80, 55
1, 285395, Poly_aftertouch_c, 0, 87, 0
1, 285469, Note_off_c, 0, 83, 27
1, 285534, Note_on_c, 0, 80, 77
1, 285534, Note_on_c, 0, 92, 76
1, 285539, Note_on_c, 0, 83, 63
1, 285547, Note_on_c, 0, 87, 63
1, 285590, Note_off_c, 0, 80, 63
1, 285593, Note_off_c, 0, 92, 62
1, 285611, Note_off_c, 0, 87, 62
1, 285613, Note_off_c, 0, 83, 62
1, 285651, Note_on_c, 0, 58, 49
1, 285669, Note_on_c, 0, 80, 95
1, 285669, Note_on_c, 0, 92, 89
1, 285670, Note_on_c, 0, 83, 75
1, 285673, Note_on_c, 0, 87, 71
1, 285702, Note_off_c, 0, 58, 63
1, 285745, Note_off_c, 0, 92, 66
1, 285753, Note_on_c, 0, 54, 72
1, 285792, Note_on_c, 0, 53, 47
1, 285793, Note_off_c, 0, 80, 56
1, 285809, Note_on_c, 0, 59, 61
1, 285818, Note_off_c, 0, 87, 60
1, 285818, Note_off_c, 0, 53, 54
1, 285827, Note_on_c, 0, 56, 43
1, 285830, Note_off_c, 0, 83, 56
1, 285849, Note_off_c, 0, 54, 63
1, 285850, Note_on_c, 0, 63, 99
1, 285854, Note_on_c, 0, 66, 117
1, 285860, Note_on_c, 0, 78, 107
1, 285862, Note_on_c, 0, 83, 84
1, 285863, Note_on_c, 0, 90, 101
1, 285865, Note_on_c, 0, 87, 77
1, 285870, Note_off_c, 0, 56, 0
1, 285870, Note_on_c, 0, 56, 13
1, 285882, Note_on_c, 0, 67, 65
1, 285884, Note_on_c, 0, 60, 47
1, 285902, Note_off_c, 0, 67, 65
1, 285920, Note_off_c, 0, 56, 45
1, 285954, Note_off_c, 0, 78, 51
1, 285954, Note_off_c, 0, 90, 59
1, 285991, Note_off_c, 0, 87, 62
1, 285994, Note_off_c, 0, 83, 58
1, 286005, Note_off_c, 0, 60, 21
1, 286023, Note_on_c, 0, 78, 92
1, 286025, Note_on_c, 0, 90, 77
1, 286026, Note_on_c, 0, 83, 70
1, 286029, Note_off_c, 0, 66, 59
1, 286033, Note_on_c, 0, 87, 62
1, 286063, Note_off_c, 0, 78, 63
1, 286081, Note_off_c, 0, 90, 61
1, 286087, Note_off_c, 0, 83, 63
1, 286098, Note_off_c, 0, 87, 63
1, 286131, Poly_aftertouch_c, 0, 87, 0
1, 286132, Note_on_c, 0, 90, 71
1, 286133, Note_on_c, 0, 78, 97
1, 286133, Note_on_c, 0, 83, 78
1, 286136, Note_on_c, 0, 87, 64
1, 286165, Note_off_c, 0, 59, 32
1, 286188, Note_on_c, 0, 54, 91
1, 286192, Note_off_c, 0, 63, 61
1, 286208, Note_off_c, 0, 78, 58
1, 286224, Note_off_c, 0, 90, 60
1, 286259, Note_on_c, 0, 59, 71
1, 286265, Note_off_c, 0, 83, 40
1, 286267, Note_off_c, 0, 87, 59
1, 286297, Note_on_c, 0, 63, 93
1, 286309, Note_on_c, 0, 67, 109
1, 286311, Control_c, 0, 64, 64
1, 286314, Note_on_c, 0, 79, 108
1, 286314, Note_on_c, 0, 87, 86
1, 286314, Note_on_c, 0, 91, 100
1, 286316, Note_on_c, 0, 83, 94
1, 286325, Control_c, 0, 64, 41
1, 286333, Note_off_c, 0, 54, 59
1, 286339, Note_on_c, 0, 65, 48
1, 286340, Control_c, 0, 64, 48
1, 286355, Control_c, 0, 64, 68
1, 286370, Note_off_c, 0, 65, 36
1, 286370, Control_c, 0, 64, 127
1, 286448, Poly_aftertouch_c, 0, 65, 127
1, 286470, Note_off_c, 0, 67, 50
1, 286484, Poly_aftertouch_c, 0, 65, 0
1, 286519, Note_on_c, 0, 54, 86
1, 286524, Note_off_c, 0, 79, 54
1, 286529, Note_off_c, 0, 59, 61
1, 286539, Note_off_c, 0, 63, 58
1, 286547, Note_off_c, 0, 91, 56
1, 286581, Note_on_c, 0, 59, 65
1, 286603, Note_off_c, 0, 83, 60
1, 286605, Note_on_c, 0, 63, 77
1, 286614, Note_on_c, 0, 57, 44
1, 286621, Note_off_c, 0, 54, 64
1, 286630, Note_on_c, 0, 68, 113
1, 286633, Note_on_c, 0, 80, 115
1, 286636, Note_on_c, 0, 92, 106
1, 286644, Note_off_c, 0, 57, 48
1, 286660, Note_on_c, 0, 83, 37
1, 286660, Note_off_c, 0, 59, 65
1, 286676, Note_on_c, 0, 90, 40
1, 286685, Note_off_c, 0, 63, 64
1, 286695, Note_off_c, 0, 83, 53
1, 286719, Note_off_c, 0, 90, 51
1, 286763, Note_off_c, 0, 68, 51
1, 286839, Note_off_c, 0, 80, 55
1, 286857, Note_off_c, 0, 92, 64
1, 286866, Note_off_c, 0, 87, 63
1, 286867, Control_c, 0, 64, 99
1, 286877, Poly_aftertouch_c, 0, 66, 127
1, 286882, Control_c, 0, 64, 71
1, 286889, Note_on_c, 0, 66, 30
1, 286891, Note_on_c, 0, 70, 107
1, 286894, Note_on_c, 0, 59, 85
1, 286897, Control_c, 0, 64, 75
1, 286900, Note_on_c, 0, 63, 75
1, 286905, Note_on_c, 0, 82, 101
1, 286908, Poly_aftertouch_c, 0, 87, 0
1, 286912, Note_on_c, 0, 94, 106
1, 286912, Control_c, 0, 64, 127
1, 286912, Note_on_c, 0, 87, 91
1, 286948, Note_off_c, 0, 82, 65
1, 286952, Note_off_c, 0, 63, 63
1, 286954, Note_off_c, 0, 66, 63
1, 286958, Note_off_c, 0, 70, 65
1, 286972, Note_off_c, 0, 87, 63
1, 286983, Note_off_c, 0, 94, 60
1, 286994, Note_off_c, 0, 59, 55
1, 287004, Poly_aftertouch_c, 0, 71, 0
1, 287050, Poly_aftertouch_c, 0, 69, 127
1, 287061, Note_on_c, 0, 59, 93
1, 287076, Poly_aftertouch_c, 0, 69, 0
1, 287095, Note_on_c, 0, 64, 80
1, 287104, Note_on_c, 0, 60, 32
1, 287139, Note_off_c, 0, 59, 62
1, 287141, Note_off_c, 0, 60, 33
1, 287148, Control_c, 0, 64, 90
1, 287163, Control_c, 0, 64, 53
1, 287168, Note_on_c, 0, 68, 65
1, 287178, Control_c, 0, 64, 0
1, 287187, Poly_aftertouch_c, 0, 62, 0
1, 287207, Note_on_c, 0, 73, 115
1, 287207, Control_c, 0, 64, 89
1, 287217, Note_on_c, 0, 85, 108
1, 287218, Note_on_c, 0, 88, 105
1, 287218, Note_on_c, 0, 97, 104
1, 287221, Note_on_c, 0, 92, 98
1, 287222, Control_c, 0, 64, 127
1, 287226, Note_on_c, 0, 74, 86
1, 287230, Note_on_c, 0, 65, 56
1, 287237, Note_on_c, 0, 94, 74
1, 287240, Note_off_c, 0, 74, 70
1, 287253, Note_on_c, 0, 63, 58
1, 287263, Note_off_c, 0, 73, 66
1, 287274, Note_off_c, 0, 64, 63
1, 287277, Note_off_c, 0, 65, 41
1, 287279, Note_off_c, 0, 63, 56
1, 287279, Note_off_c, 0, 68, 63
1, 287285, Note_off_c, 0, 94, 45
1, 287298, Note_off_c, 0, 85, 58
1, 287344, Note_off_c, 0, 97, 56
1, 287368, Note_off_c, 0, 88, 46
1, 287454, Note_off_c, 0, 92, 50
1, 287538, Note_on_c, 0, 85, 104
1, 287544, Note_on_c, 0, 97, 98
1, 287546, Note_on_c, 0, 88, 90
1, 287546, Note_on_c, 0, 92, 85
1, 287604, Note_off_c, 0, 85, 56
1, 287611, Note_off_c, 0, 97, 65
1, 287641, Poly_aftertouch_c, 0, 94, 127
1, 287660, Note_off_c, 0, 88, 54
1, 287687, Poly_aftertouch_c, 0, 94, 0
1, 287702, Note_off_c, 0, 92, 58
1, 287753, Note_on_c, 0, 92, 77
1, 287753, Note_on_c, 0, 97, 99
1, 287755, Note_on_c, 0, 85, 98
1, 287756, Note_on_c, 0, 88, 93
1, 287792, Note_on_c, 0, 94, 47
1, 287810, Note_off_c, 0, 85, 59
1, 287823, Note_off_c, 0, 97, 64
1, 287852, Note_off_c, 0, 88, 56
1, 287852, Note_off_c, 0, 94, 51
1, 287920, Note_on_c, 0, 97, 82
1, 287922, Note_on_c, 0, 85, 82
1, 287924, Note_on_c, 0, 35, 59
1, 287925, Note_on_c, 0, 28, 72
1, 287931, Note_on_c, 0, 88, 79
1, 287932, Note_on_c, 0, 40, 68
1, 287935, Note_on_c, 0, 94, 37
1, 287937, Note_on_c, 0, 38, 67
1, 287977, Note_off_c, 0, 28, 57
1, 287977, Note_off_c, 0, 38, 60
1, 287982, Note_off_c, 0, 85, 59
1, 287985, Note_off_c, 0, 97, 64
1, 287988, Note_off_c, 0, 40, 53
1, 287995, Note_off_c, 0, 88, 57
1, 287997, Note_off_c, 0, 94, 50
1, 288017, Note_off_c, 0, 35, 48
1, 288076, Note_off_c, 0, 92, 0
1, 288084, Note_on_c, 0, 85, 85
1, 288084, Note_on_c, 0, 97, 87
1, 288085, Note_on_c, 0, 40, 79
1, 288087, Note_on_c, 0, 28, 79
1, 288087, Note_on_c, 0, 35, 59
1, 288088, Note_on_c, 0, 92, 49
1, 288095, Note_on_c, 0, 88, 83
1, 288104, Note_on_c, 0, 94, 48
1, 288128, Note_off_c, 0, 28, 63
1, 288131, Note_off_c, 0, 40, 55
1, 288141, Note_off_c, 0, 85, 58
1, 288147, Note_off_c, 0, 97, 63
1, 288149, Note_off_c, 0, 94, 58
1, 288152, Note_off_c, 0, 88, 59
1, 288153, Note_off_c, 0, 35, 55
1, 288223, Note_off_c, 0, 92, 0
1, 288225, Note_on_c, 0, 35, 66
1, 288227, Note_on_c, 0, 40, 90
1, 288232, Note_on_c, 0, 28, 79
1, 288233, Note_on_c, 0, 85, 90
1, 288236, Note_on_c, 0, 92, 56
1, 288239, Note_on_c, 0, 97, 91
1, 288247, Note_on_c, 0, 88, 82
1, 288251, Note_on_c, 0, 94, 69
1, 288257, Note_off_c, 0, 28, 69
1, 288284, Note_off_c, 0, 40, 61
1, 288285, Note_on_c, 0, 30, 15
1, 288286, Note_off_c, 0, 85, 61
1, 288290, Note_off_c, 0, 94, 56
1, 288290, Note_off_c, 0, 97, 63
1, 288296, Note_off_c, 0, 35, 57
1, 288305, Note_off_c, 0, 88, 55
1, 288322, Note_off_c, 0, 92, 64
1, 288353, Note_on_c, 0, 28, 83
1, 288353, Note_on_c, 0, 35, 66
1, 288353, Note_on_c, 0, 40, 92
1, 288354, Note_off_c, 0, 30, 0
1, 288359, Note_on_c, 0, 85, 100
1, 288362, Note_on_c, 0, 92, 74
1, 288364, Note_on_c, 0, 97, 90
1, 288368, Note_on_c, 0, 88, 76
1, 288373, Note_on_c, 0, 30, 31
1, 288382, Note_off_c, 0, 28, 68
1, 288386, Note_on_c, 0, 94, 67
1, 288397, Note_off_c, 0, 40, 58
1, 288408, Note_off_c, 0, 85, 63
1, 288409, Note_off_c, 0, 97, 64
1, 288412, Note_off_c, 0, 35, 57
1, 288417, Note_off_c, 0, 30, 58
1, 288421, Note_off_c, 0, 94, 61
1, 288433, Note_off_c, 0, 88, 58
1, 288445, Note_off_c, 0, 92, 65
1, 288474, Note_on_c, 0, 40, 91
1, 288475, Note_on_c, 0, 28, 94
1, 288475, Note_on_c, 0, 35, 73
1, 288477, Note_on_c, 0, 85, 96
1, 288483, Note_on_c, 0, 92, 75
1, 288485, Note_on_c, 0, 88, 80
1, 288489, Note_on_c, 0, 97, 89
1, 288504, Note_off_c, 0, 28, 66
1, 288512, Note_on_c, 0, 94, 58
1, 288518, Note_off_c, 0, 40, 53
1, 288525, Note_off_c, 0, 97, 59
1, 288526, Note_off_c, 0, 85, 62
1, 288534, Note_on_c, 0, 30, 20
1, 288540, Note_off_c, 0, 35, 53
1, 288543, Note_off_c, 0, 94, 60
1, 288552, Note_off_c, 0, 88, 57
1, 288564, Note_off_c, 0, 92, 66
1, 288588, Note_off_c, 0, 30, 49
1, 288588, Note_on_c, 0, 35, 60
1, 288590, Note_on_c, 0, 28, 95
1, 288590, Note_on_c, 0, 40, 91
1, 288595, Note_on_c, 0, 85, 95
1, 288597, Note_on_c, 0, 88, 78
1, 288597, Note_on_c, 0, 92, 77
1, 288600, Note_on_c, 0, 97, 95
1, 288623, Note_on_c, 0, 38, 48
1, 288623, Note_off_c, 0, 38, 127
1, 288626, Note_on_c, 0, 94, 64
1, 288629, Note_off_c, 0, 28, 59
1, 288642, Note_off_c, 0, 85, 62
1, 288644, Note_off_c, 0, 97, 64
1, 288646, Note_off_c, 0, 40, 58
1, 288657, Poly_aftertouch_c, 0, 38, 0
1, 288659, Note_off_c, 0, 35, 55
1, 288665, Note_off_c, 0, 94, 61
1, 288668, Note_off_c, 0, 88, 60
1, 288683, Note_off_c, 0, 92, 65
1, 288712, Note_on_c, 0, 35, 78
1, 288713, Note_on_c, 0, 40, 99
1, 288714, Note_on_c, 0, 28, 97
1, 288717, Note_on_c, 0, 85, 102
1, 288721, Note_on_c, 0, 92, 86
1, 288722, Note_on_c, 0, 97, 109
1, 288725, Note_on_c, 0, 88, 85
1, 288740, Note_on_c, 0, 94, 73
1, 288766, Note_off_c, 0, 28, 57
1, 288768, Note_off_c, 0, 85, 61
1, 288769, Note_on_c, 0, 38, 19
1, 288769, Note_off_c, 0, 38, 127
1, 288769, Note_off_c, 0, 97, 66
1, 288786, Note_off_c, 0, 40, 50
1, 288803, Note_off_c, 0, 88, 57
1, 288806, Note_off_c, 0, 94, 50
1, 288814, Poly_aftertouch_c, 0, 38, 0
1, 288816, Poly_aftertouch_c, 0, 29, 127
1, 288820, Note_off_c, 0, 35, 0
1, 288826, Note_off_c, 0, 92, 58
1, 288847, Note_on_c, 0, 40, 91
1, 288848, Poly_aftertouch_c, 0, 29, 0
1, 288853, Note_on_c, 0, 28, 89
1, 288854, Note_on_c, 0, 85, 97
1, 288856, Note_on_c, 0, 97, 90
1, 288856, Note_on_c, 0, 88, 69
1, 288856, Note_on_c, 0, 92, 62
1, 288857, Poly_aftertouch_c, 0, 35, 127
1, 288875, Note_on_c, 0, 94, 51
1, 288900, Note_off_c, 0, 85, 64
1, 288901, Note_off_c, 0, 97, 64
1, 288905, Note_off_c, 0, 40, 59
1, 288906, Note_off_c, 0, 28, 37
1, 288918, Note_off_c, 0, 94, 58
1, 288920, Poly_aftertouch_c, 0, 30, 127
1, 288927, Note_off_c, 0, 88, 58
1, 288945, Note_off_c, 0, 92, 63
1, 288966, Poly_aftertouch_c, 0, 30, 0
1, 288980, Poly_aftertouch_c, 0, 35, 0
1, 288993, Note_on_c, 0, 35, 59
1, 288994, Note_on_c, 0, 40, 105
1, 288995, Note_on_c, 0, 28, 97
1, 288996, Note_on_c, 0, 85, 106
1, 289000, Note_on_c, 0, 92, 77
1, 289000, Note_on_c, 0, 97, 100
1, 289005, Note_on_c, 0, 88, 87
1, 289017, Note_on_c, 0, 94, 72
1, 289050, Note_off_c, 0, 85, 63
1, 289052, Note_off_c, 0, 97, 66
1, 289057, Note_off_c, 0, 28, 60
1, 289062, Note_off_c, 0, 94, 45
1, 289069, Poly_aftertouch_c, 0, 30, 127
1, 289073, Note_off_c, 0, 40, 52
1, 289103, Note_off_c, 0, 88, 50
1, 289109, Note_off_c, 0, 35, 53
1, 289122, Poly_aftertouch_c, 0, 30, 0
1, 289166, Note_on_c, 0, 40, 109
1, 289167, Note_on_c, 0, 35, 80
1, 289168, Note_on_c, 0, 28, 99
1, 289183, Note_on_c, 0, 97, 81
1, 289190, Note_on_c, 0, 88, 64
1, 289192, Note_on_c, 0, 85, 81
1, 289193, Note_on_c, 0, 38, 58
1, 289193, Note_off_c, 0, 38, 127
1, 289196, Note_off_c, 0, 28, 62
1, 289199, Note_off_c, 0, 92, 0
1, 289199, Note_on_c, 0, 92, 22
1, 289206, Note_on_c, 0, 94, 33
1, 289212, Note_off_c, 0, 35, 62
1, 289214, Note_off_c, 0, 40, 68
1, 289231, Note_off_c, 0, 85, 59
1, 289252, Note_off_c, 0, 97, 63
1, 289259, Note_off_c, 0, 94, 41
1, 289286, Note_off_c, 0, 88, 39
1, 289330, Note_off_c, 0, 92, 40
1, 289431, Note_on_c, 0, 85, 82
1, 289431, Note_on_c, 0, 97, 73
1, 289443, Note_on_c, 0, 88, 67
1, 289447, Note_on_c, 0, 92, 54
1, 289480, Note_off_c, 0, 97, 60
1, 289481, Note_on_c, 0, 94, 27
1, 289499, Note_off_c, 0, 85, 60
1, 289508, Note_off_c, 0, 88, 58
1, 289520, Note_off_c, 0, 94, 51
1, 289521, Note_off_c, 0, 92, 57
1, 289594, Note_on_c, 0, 92, 73
1, 289597, Note_on_c, 0, 85, 95
1, 289602, Note_on_c, 0, 88, 81
1, 289604, Note_on_c, 0, 97, 77
1, 289630, Note_on_c, 0, 94, 42
1, 289636, Note_on_c, 0, 59, 88
1, 289652, Note_off_c, 0, 97, 63
1, 289676, Note_off_c, 0, 94, 42
1, 289702, Note_on_c, 0, 64, 75
1, 289745, Note_off_c, 0, 85, 61
1, 289765, Note_on_c, 0, 62, 16
1, 289771, Note_off_c, 0, 59, 62
1, 289786, Note_on_c, 0, 68, 74
1, 289810, Note_off_c, 0, 62, 52
1, 289822, Note_off_c, 0, 88, 0
1, 289834, Note_on_c, 0, 95, 103
1, 289834, Note_on_c, 0, 71, 111
1, 289835, Note_on_c, 0, 83, 103
1, 289838, Note_on_c, 0, 88, 56
1, 289860, Note_off_c, 0, 92, 0
1, 289887, Note_on_c, 0, 92, 8
1, 289913, Note_off_c, 0, 83, 50
1, 289944, Note_off_c, 0, 95, 54
1, 289946, Note_on_c, 0, 63, 33
1, 289967, Note_off_c, 0, 68, 58
1, 289970, Note_off_c, 0, 92, 37
1, 289983, Note_off_c, 0, 63, 52
1, 289992, Note_off_c, 0, 64, 63
1, 290087, Note_off_c, 0, 88, 0
1, 290087, Note_on_c, 0, 88, 12
1, 290087, Note_on_c, 0, 95, 82
1, 290098, Note_on_c, 0, 83, 88
1, 290102, Note_off_c, 0, 71, 18
1, 290164, Note_off_c, 0, 83, 59
1, 290166, Note_off_c, 0, 95, 63
1, 290236, Note_off_c, 0, 88, 0
1, 290250, Note_on_c, 0, 95, 92
1, 290252, Note_on_c, 0, 83, 93
1, 290254, Note_on_c, 0, 88, 44
1, 290266, Note_on_c, 0, 56, 86
1, 290320, Note_off_c, 0, 95, 65
1, 290322, Note_on_c, 0, 59, 70
1, 290327, Note_off_c, 0, 83, 61
1, 290355, Note_off_c, 0, 56, 63
1, 290391, Note_off_c, 0, 88, 63
1, 290393, Note_on_c, 0, 64, 46
1, 290407, Note_on_c, 0, 70, 114
1, 290410, Note_on_c, 0, 94, 94
1, 290411, Note_on_c, 0, 88, 69
1, 290414, Note_on_c, 0, 82, 101
1, 290461, Note_on_c, 0, 68, 30
1, 290486, Poly_aftertouch_c, 0, 60, 127
1, 290489, Note_off_c, 0, 82, 58
1, 290496, Note_off_c, 0, 68, 49
1, 290501, Note_off_c, 0, 94, 58
1, 290597, Note_off_c, 0, 88, 0
1, 290597, Note_on_c, 0, 88, 44
1, 290611, Note_on_c, 0, 94, 76
1, 290623, Note_on_c, 0, 82, 64
1, 290665, Note_off_c, 0, 82, 58
1, 290682, Note_off_c, 0, 94, 62
1, 290685, Note_off_c, 0, 88, 56
1, 290733, Note_on_c, 0, 94, 72
1, 290746, Note_on_c, 0, 88, 69
1, 290750, Note_on_c, 0, 82, 76
1, 290798, Note_off_c, 0, 82, 57
1, 290800, Note_off_c, 0, 94, 64
1, 290844, Note_off_c, 0, 88, 0
1, 290855, Note_on_c, 0, 82, 83
1, 290856, Note_on_c, 0, 88, 62
1, 290868, Note_on_c, 0, 92, 66
1, 290889, Note_on_c, 0, 93, 54
1, 290895, Note_on_c, 0, 90, 40
1, 290913, Note_off_c, 0, 93, 55
1, 290914, Note_off_c, 0, 82, 62
1, 290923, Note_off_c, 0, 90, 56
1, 290925, Note_off_c, 0, 92, 48
1, 290938, Note_off_c, 0, 88, 59
1, 290960, Note_off_c, 0, 70, 51
1, 290975, Note_on_c, 0, 88, 70
1, 290979, Note_on_c, 0, 94, 87
1, 290980, Note_on_c, 0, 82, 84
1, 291023, Note_on_c, 0, 92, 30
1, 291038, Note_off_c, 0, 82, 60
1, 291044, Note_off_c, 0, 94, 64
1, 291062, Note_off_c, 0, 92, 50
1, 291069, Note_off_c, 0, 88, 61
1, 291084, Note_off_c, 0, 64, 52
1, 291088, Note_on_c, 0, 68, 96
1, 291106, Note_on_c, 0, 80, 104
1, 291109, Note_on_c, 0, 92, 94
1, 291121, Note_off_c, 0, 59, 40
1, 291132, Note_on_c, 0, 69, 30
1, 291142, Poly_aftertouch_c, 0, 60, 0
1, 291157, Note_off_c, 0, 68, 64
1, 291167, Note_off_c, 0, 69, 49
1, 291197, Note_off_c, 0, 92, 65
1, 291233, Note_on_c, 0, 63, 45
1, 291244, Note_on_c, 0, 54, 86
1, 291261, Note_off_c, 0, 63, 55
1, 291297, Note_off_c, 0, 80, 53
1, 291309, Note_on_c, 0, 59, 75
1, 291341, Note_on_c, 0, 63, 64
1, 291357, Note_off_c, 0, 54, 62
1, 291358, Control_c, 0, 64, 83
1, 291372, Note_on_c, 0, 56, 18
1, 291373, Control_c, 0, 64, 52
1, 291378, Note_on_c, 0, 68, 111
1, 291383, Note_on_c, 0, 92, 109
1, 291384, Note_on_c, 0, 80, 105
1, 291388, Control_c, 0, 64, 43
1, 291390, Note_on_c, 0, 83, 85
1, 291394, Note_on_c, 0, 87, 83
1, 291401, Note_on_c, 0, 60, 48
1, 291403, Control_c, 0, 64, 62
1, 291411, Note_off_c, 0, 56, 56
1, 291418, Control_c, 0, 64, 127
1, 291434, Note_on_c, 0, 90, 27
1, 291454, Note_off_c, 0, 68, 64
1, 291466, Note_off_c, 0, 63, 61
1, 291466, Note_off_c, 0, 80, 59
1, 291476, Note_off_c, 0, 92, 64
1, 291482, Note_off_c, 0, 59, 59
1, 291503, Note_off_c, 0, 90, 51
1, 291508, Note_off_c, 0, 60, 45
1, 291534, Note_off_c, 0, 83, 45
1, 291552, Note_off_c, 0, 87, 55
1, 291635, Note_on_c, 0, 80, 91
1, 291636, Note_on_c, 0, 83, 84
1, 291637, Note_on_c, 0, 92, 90
1, 291642, Note_on_c, 0, 87, 73
1, 291689, Note_off_c, 0, 92, 66
1, 291689, Note_off_c, 0, 80, 61
1, 291721, Note_off_c, 0, 83, 56
1, 291735, Note_off_c, 0, 87, 60
1, 291789, Note_on_c, 0, 80, 96
1, 291789, Note_on_c, 0, 83, 83
1, 291798, Note_on_c, 0, 87, 71
1, 291799, Note_on_c, 0, 92, 85
1, 291822, Note_off_c, 0, 92, 68
1, 291829, Note_on_c, 0, 90, 42
1, 291837, Note_off_c, 0, 80, 61
1, 291858, Note_off_c, 0, 90, 47
1, 291865, Note_off_c, 0, 83, 61
1, 291892, Note_off_c, 0, 87, 56
1, 291939, Note_on_c, 0, 83, 75
1, 291944, Note_on_c, 0, 87, 47
1, 291946, Note_on_c, 0, 80, 82
1, 291947, Note_on_c, 0, 92, 82
1, 291957, Note_on_c, 0, 23, 77
1, 291961, Note_on_c, 0, 30, 67
1, 291962, Note_on_c, 0, 35, 74
1, 291963, Note_on_c, 0, 90, 50
1, 291993, Note_off_c, 0, 80, 57
1, 291995, Note_off_c, 0, 90, 66
1, 292004, Note_off_c, 0, 92, 66
1, 292022, Note_off_c, 0, 35, 59
1, 292025, Note_off_c, 0, 23, 61
1, 292032, Note_off_c, 0, 83, 58
1, 292042, Note_off_c, 0, 87, 60
1, 292051, Note_off_c, 0, 30, 61
1, 292105, Note_on_c, 0, 83, 70
1, 292105, Note_on_c, 0, 35, 79
1, 292105, Note_on_c, 0, 80, 84
1, 292105, Note_on_c, 0, 92, 94
1, 292108, Note_on_c, 0, 30, 62
1, 292111, Note_on_c, 0, 87, 60
1, 292117, Note_on_c, 0, 23, 80
1, 292152, Note_off_c, 0, 80, 61
1, 292161, Note_off_c, 0, 23, 60
1, 292161, Note_off_c, 0, 92, 66
1, 292162, Note_off_c, 0, 35, 61
1, 292184, Note_off_c, 0, 30, 60
1, 292196, Note_off_c, 0, 87, 60
1, 292217, Note_off_c, 0, 83, 0
1, 292230, Poly_aftertouch_c, 0, 30, 0
1, 292233, Note_on_c, 0, 83, 52
1, 292237, Note_on_c, 0, 35, 86
1, 292238, Note_on_c, 0, 30, 70
1, 292239, Note_on_c, 0, 92, 95
1, 292242, Note_on_c, 0, 80, 86
1, 292242, Note_on_c, 0, 87, 64
1, 292244, Note_on_c, 0, 23, 86
1, 292282, Note_off_c, 0, 80, 58
1, 292290, Note_off_c, 0, 35, 63
1, 292290, Note_off_c, 0, 23, 59
1, 292294, Note_off_c, 0, 92, 66
1, 292318, Note_off_c, 0, 83, 57
1, 292319, Note_off_c, 0, 30, 59
1, 292326, Note_off_c, 0, 87, 64
1, 292354, Note_on_c, 0, 30, 70
1, 292359, Note_on_c, 0, 35, 88
1, 292360, Note_on_c, 0, 23, 86
1, 292365, Note_on_c, 0, 83, 73
1, 292367, Note_on_c, 0, 87, 65
1, 292367, Note_on_c, 0, 92, 89
1, 292372, Note_on_c, 0, 80, 78
1, 292394, Note_off_c, 0, 80, 66
1, 292403, Note_off_c, 0, 35, 60
1, 292405, Note_off_c, 0, 23, 59
1, 292415, Note_off_c, 0, 92, 65
1, 292426, Note_off_c, 0, 30, 62
1, 292436, Note_off_c, 0, 83, 59
1, 292445, Note_off_c, 0, 87, 63
1, 292479, Note_on_c, 0, 30, 76
1, 292480, Note_on_c, 0, 35, 93
1, 292480, Poly_aftertouch_c, 0, 87, 0
1, 292482, Note_on_c, 0, 23, 88
1, 292486, Note_on_c, 0, 80, 82
1, 292486, Note_on_c, 0, 83, 76
1, 292486, Note_on_c, 0, 87, 69
1, 292490, Note_on_c, 0, 92, 89
1, 292525, Note_off_c, 0, 80, 58
1, 292528, Note_off_c, 0, 23, 62
1, 292528, Note_off_c, 0, 35, 62
1, 292531, Note_off_c, 0, 92, 67
1, 292552, Note_off_c, 0, 30, 62
1, 292552, Note_off_c, 0, 83, 61
1, 292572, Note_off_c, 0, 87, 63
1, 292599, Note_on_c, 0, 30, 78
1, 292600, Note_on_c, 0, 35, 90
1, 292604, Note_on_c, 0, 87, 71
1, 292605, Note_on_c, 0, 23, 89
1, 292608, Note_on_c, 0, 83, 77
1, 292608, Note_on_c, 0, 92, 96
1, 292611, Note_on_c, 0, 80, 83
1, 292642, Note_off_c, 0, 80, 58
1, 292647, Note_off_c, 0, 35, 62
1, 292648, Note_off_c, 0, 23, 63
1, 292651, Note_off_c, 0, 92, 67
1, 292670, Note_off_c, 0, 30, 62
1, 292680, Note_off_c, 0, 83, 58
1, 292689, Note_off_c, 0, 87, 64
1, 292722, Note_on_c, 0, 30, 82
1, 292722, Note_on_c, 0, 35, 94
1, 292724, Note_on_c, 0, 23, 95
1, 292730, Note_on_c, 0, 83, 73
1, 292730, Note_on_c, 0, 87, 70
1, 292733, Note_on_c, 0, 80, 84
1, 292733, Note_on_c, 0, 92, 97
1, 292767, Note_off_c, 0, 80, 59
1, 292773, Note_off_c, 0, 92, 69
1, 292775, Note_off_c, 0, 35, 56
1, 292794, Note_off_c, 0, 30, 62
1, 292797, Note_off_c, 0, 23, 59
1, 292813, Note_off_c, 0, 87, 63
1, 292832, Note_on_c, 0, 23, 72
1, 292835, Note_on_c, 0, 30, 76
1, 292837, Note_on_c, 0, 35, 83
1, 292839, Note_off_c, 0, 83, 0
1, 292852, Note_on_c, 0, 83, 65
1, 292852, Note_on_c, 0, 87, 64
1, 292858, Note_on_c, 0, 92, 90
1, 292862, Note_on_c, 0, 80, 73
1, 292883, Note_off_c, 0, 35, 59
1, 292883, Note_off_c, 0, 80, 70
1, 292888, Note_off_c, 0, 92, 63
1, 292926, Note_off_c, 0, 83, 57
1, 292933, Note_off_c, 0, 87, 62
1, 292940, Note_off_c, 0, 23, 0
1, 292943, Note_off_c, 0, 30, 0
1, 292954, Note_on_c, 0, 23, 62
1, 292956, Note_on_c, 0, 30, 65
1, 292963, Note_on_c, 0, 35, 90
1, 292973, Poly_aftertouch_c, 0, 87, 0
1, 292977, Note_on_c, 0, 83, 79
1, 292978, Note_on_c, 0, 92, 96
1, 292978, Note_on_c, 0, 87, 65
1, 292981, Note_on_c, 0, 80, 77
1, 293020, Note_off_c, 0, 80, 56
1, 293040, Note_off_c, 0, 92, 65
1, 293047, Note_off_c, 0, 35, 56
1, 293073, Note_off_c, 0, 30, 58
1, 293082, Note_off_c, 0, 23, 56
1, 293136, Note_on_c, 0, 23, 85
1, 293136, Note_on_c, 0, 35, 103
1, 293137, Note_on_c, 0, 30, 92
1, 293152, Note_on_c, 0, 25, 77
1, 293161, Note_on_c, 0, 24, 51
1, 293161, Note_off_c, 0, 24, 127
1, 293161, Note_on_c, 0, 92, 65
1, 293164, Note_on_c, 0, 80, 52
1, 293167, Note_off_c, 0, 23, 66
1, 293178, Note_off_c, 0, 35, 65
1, 293182, Note_off_c, 0, 25, 64
1, 293196, Note_off_c, 0, 80, 51
1, 293206, Poly_aftertouch_c, 0, 24, 0
1, 293206, Note_off_c, 0, 30, 63
1, 293222, Note_off_c, 0, 92, 54
1, 293252, Note_off_c, 0, 83, 54
1, 293262, Note_off_c, 0, 87, 39
1, 293393, Note_on_c, 0, 80, 76
1, 293396, Note_on_c, 0, 92, 73
1, 293405, Note_on_c, 0, 83, 67
1, 293407, Note_on_c, 0, 87, 56
1, 293431, Note_off_c, 0, 92, 59
1, 293444, Note_off_c, 0, 80, 62
1, 293457, Note_off_c, 0, 87, 58
1, 293478, Note_off_c, 0, 83, 58
1, 293554, Note_on_c, 0, 80, 94
1, 293557, Note_on_c, 0, 83, 83
1, 293557, Note_on_c, 0, 87, 75
1, 293557, Note_on_c, 0, 92, 81
1, 293582, Note_off_c, 0, 92, 69
1, 293626, Note_off_c, 0, 80, 59
1, 293629, Note_on_c, 0, 54, 87
1, 293666, Poly_aftertouch_c, 0, 63, 0
1, 293669, Note_off_c, 0, 87, 59
1, 293683, Note_on_c, 0, 59, 76
1, 293693, Note_off_c, 0, 83, 37
1, 293710, Note_on_c, 0, 63, 95
1, 293715, Note_on_c, 0, 66, 113
1, 293723, Note_on_c, 0, 78, 108
1, 293724, Note_on_c, 0, 83, 84
1, 293726, Note_on_c, 0, 90, 98
1, 293728, Note_on_c, 0, 87, 76
1, 293750, Note_off_c, 0, 54, 50
1, 293751, Note_on_c, 0, 60, 30
1, 293751, Note_off_c, 0, 60, 127
1, 293757, Note_on_c, 0, 67, 40
1, 293764, Note_off_c, 0, 90, 70
1, 293792, Note_off_c, 0, 67, 52
1, 293802, Note_off_c, 0, 78, 54
1, 293809, Poly_aftertouch_c, 0, 56, 0
1, 293823, Note_off_c, 0, 87, 63
1, 293837, Note_off_c, 0, 83, 0
1, 293849, Note_on_c, 0, 83, 73
1, 293850, Note_off_c, 0, 66, 59
1, 293853, Note_on_c, 0, 78, 91
1, 293857, Note_on_c, 0, 87, 67
1, 293861, Note_on_c, 0, 90, 76
1, 293882, Note_off_c, 0, 90, 71
1, 293896, Note_off_c, 0, 78, 59
1, 293921, Note_off_c, 0, 83, 61
1, 293925, Note_off_c, 0, 59, 38
1, 293962, Note_on_c, 0, 78, 94
1, 293963, Note_on_c, 0, 83, 75
1, 293969, Note_on_c, 0, 90, 78
1, 293985, Note_on_c, 0, 54, 92
1, 293990, Note_off_c, 0, 63, 57
1, 294037, Note_off_c, 0, 78, 58
1, 294046, Note_off_c, 0, 90, 60
1, 294055, Note_on_c, 0, 59, 69
1, 294091, Note_off_c, 0, 87, 61
1, 294092, Note_off_c, 0, 83, 47
1, 294098, Note_on_c, 0, 63, 83
1, 294111, Control_c, 0, 64, 83
1, 294113, Poly_aftertouch_c, 0, 53, 0
1, 294123, Note_on_c, 0, 67, 101
1, 294125, Control_c, 0, 64, 79
1, 294132, Note_on_c, 0, 83, 94
1, 294134, Note_on_c, 0, 87, 83
1, 294135, Note_on_c, 0, 79, 106
1, 294136, Note_on_c, 0, 91, 106
1, 294140, Control_c, 0, 64, 94
1, 294155, Control_c, 0, 64, 127
1, 294163, Note_off_c, 0, 54, 35
1, 294170, Note_on_c, 0, 90, 43
1, 294220, Note_off_c, 0, 90, 43
1, 294254, Note_off_c, 0, 67, 50
1, 294314, Note_on_c, 0, 54, 88
1, 294314, Note_off_c, 0, 59, 59
1, 294332, Note_off_c, 0, 63, 61
1, 294352, Note_off_c, 0, 79, 59
1, 294365, Note_off_c, 0, 91, 61
1, 294380, Note_on_c, 0, 59, 75
1, 294411, Note_on_c, 0, 63, 85
1, 294415, Note_off_c, 0, 83, 61
1, 294429, Note_off_c, 0, 54, 63
1, 294448, Note_on_c, 0, 68, 101
1, 294448, Note_on_c, 0, 80, 99
1, 294452, Note_on_c, 0, 92, 105
1, 294472, Note_off_c, 0, 59, 65
1, 294483, Note_off_c, 0, 87, 63
1, 294487, Note_off_c, 0, 63, 65
1, 294490, Note_on_c, 0, 90, 33
1, 294546, Note_off_c, 0, 90, 40
1, 294549, Note_off_c, 0, 68, 53
1, 294571, Poly_aftertouch_c, 0, 93, 127
1, 294615, Note_off_c, 0, 80, 50
1, 294615, Note_off_c, 0, 92, 63
1, 294619, Poly_aftertouch_c, 0, 93, 0
1, 294637, Poly_aftertouch_c, 0, 82, 127
1, 294687, Poly_aftertouch_c, 0, 82, 0
1, 294727, Note_on_c, 0, 70, 99
1, 294733, Note_on_c, 0, 59, 86
1, 294735, Note_on_c, 0, 94, 100
1, 294736, Note_on_c, 0, 63, 73
1, 294736, Note_on_c, 0, 82, 99
1, 294737, Note_on_c, 0, 66, 84
1, 294742, Note_on_c, 0, 87, 96
1, 294764, Note_on_c, 0, 81, 60
1, 294776, Note_off_c, 0, 70, 60
1, 294781, Note_off_c, 0, 81, 64
1, 294792, Note_off_c, 0, 63, 62
1, 294794, Note_off_c, 0, 66, 59
1, 294827, Note_off_c, 0, 59, 55
1, 294831, Note_off_c, 0, 87, 56
1, 294895, Note_on_c, 0, 59, 91
1, 294926, Note_off_c, 0, 82, 56
1, 294934, Note_on_c, 0, 60, 34
1, 294935, Note_off_c, 0, 94, 62
1, 294959, Note_on_c, 0, 64, 86
1, 294981, Note_off_c, 0, 60, 36
1, 294987, Note_off_c, 0, 59, 63
1, 295041, Note_on_c, 0, 68, 53
1, 295044, Control_c, 0, 64, 79
1, 295059, Control_c, 0, 64, 39
1, 295070, Note_on_c, 0, 85, 111
1, 295072, Note_on_c, 0, 88, 103
1, 295073, Note_on_c, 0, 97, 103
1, 295074, Note_on_c, 0, 73, 106
1, 295074, Note_on_c, 0, 92, 103
1, 295074, Control_c, 0, 64, 0
1, 295089, Control_c, 0, 64, 62
1, 295092, Note_on_c, 0, 65, 58
1, 295098, Note_on_c, 0, 74, 72
1, 295098, Note_on_c, 0, 63, 68
1, 295104, Control_c, 0, 64, 127
1, 295116, Note_off_c, 0, 74, 67
1, 295121, Note_off_c, 0, 73, 69
1, 295130, Note_off_c, 0, 63, 65
1, 295131, Note_off_c, 0, 65, 0
1, 295143, Note_off_c, 0, 68, 62
1, 295145, Note_off_c, 0, 64, 63
1, 295193, Poly_aftertouch_c, 0, 65, 0
1, 295244, Note_off_c, 0, 97, 58
1, 295279, Note_off_c, 0, 85, 56
1, 295471, Note_off_c, 0, 92, 29
1, 295559, Note_off_c, 0, 88, 21
1, 295770, Note_on_c, 0, 95, 100
1, 295773, Note_on_c, 0, 92, 88
1, 295774, Note_on_c, 0, 88, 67
1, 295777, Note_on_c, 0, 83, 85
1, 295783, Note_on_c, 0, 28, 78
1, 295862, Note_off_c, 0, 88, 63
1, 295902, Note_off_c, 0, 28, 61
1, 295906, Note_on_c, 0, 40, 69
1, 295953, Note_off_c, 0, 40, 61
1, 295963, Note_off_c, 0, 92, 66
1, 295977, Note_off_c, 0, 95, 60
1, 295990, Note_on_c, 0, 28, 76
1, 296017, Note_off_c, 0, 28, 65
1, 296058, Note_on_c, 0, 40, 45
1, 296080, Note_on_c, 0, 28, 78
1, 296096, Note_off_c, 0, 40, 48
1, 296106, Note_on_c, 0, 33, 42
1, 296118, Note_off_c, 0, 28, 64
1, 296129, Note_on_c, 0, 34, 26
1, 296147, Note_on_c, 0, 40, 45
1, 296168, Note_off_c, 0, 33, 0
1, 296168, Note_on_c, 0, 33, 31
1, 296168, Note_off_c, 0, 83, 26
1, 296178, Note_off_c, 0, 40, 54
1, 296183, Note_on_c, 0, 28, 85
1, 296207, Note_off_c, 0, 28, 69
1, 296250, Note_on_c, 0, 40, 56
1, 296278, Note_off_c, 0, 40, 55
1, 296290, Note_on_c, 0, 28, 76
1, 296324, Note_off_c, 0, 28, 57
1, 296364, Note_on_c, 0, 40, 46
1, 296386, Note_off_c, 0, 40, 61
1, 296394, Note_on_c, 0, 88, 84
1, 296394, Note_on_c, 0, 92, 98
1, 296395, Note_on_c, 0, 80, 93
1, 296398, Note_on_c, 0, 83, 82
1, 296400, Note_on_c, 0, 28, 73
1, 296428, Note_off_c, 0, 28, 67
1, 296457, Note_on_c, 0, 40, 68
1, 296487, Note_off_c, 0, 40, 63
1, 296499, Note_on_c, 0, 28, 71
1, 296505, Note_off_c, 0, 92, 67
1, 296511, Note_off_c, 0, 83, 60
1, 296523, Poly_aftertouch_c, 0, 90, 127
1, 296531, Note_off_c, 0, 28, 62
1, 296548, Note_on_c, 0, 40, 68
1, 296557, Note_off_c, 0, 88, 58
1, 296559, Note_off_c, 0, 80, 58
1, 296559, Note_on_c, 0, 87, 42
1, 296569, Poly_aftertouch_c, 0, 90, 0
1, 296576, Note_off_c, 0, 40, 66
1, 296601, Note_on_c, 0, 28, 74
1, 296639, Note_off_c, 0, 28, 61
1, 296656, Note_off_c, 0, 87, 60
1, 296667, Note_on_c, 0, 40, 59
1, 296694, Note_off_c, 0, 40, 57
1, 296707, Note_on_c, 0, 28, 81
1, 296737, Note_off_c, 0, 28, 63
1, 296764, Note_on_c, 0, 40, 67
1, 296791, Note_off_c, 0, 40, 66
1, 296810, Note_on_c, 0, 28, 79
1, 296827, Note_on_c, 0, 88, 97
1, 296837, Note_on_c, 0, 83, 79
1, 296839, Note_on_c, 0, 76, 85
1, 296841, Note_off_c, 0, 28, 54
1, 296842, Note_on_c, 0, 80, 78
1, 296858, Note_on_c, 0, 40, 65
1, 296901, Note_on_c, 0, 85, 15
1, 296903, Note_off_c, 0, 40, 60
1, 296907, Note_off_c, 0, 80, 62
1, 296925, Note_off_c, 0, 83, 65
1, 296929, Note_on_c, 0, 28, 60
1, 296940, Note_off_c, 0, 85, 41
1, 296945, Note_off_c, 0, 88, 61
1, 296964, Note_off_c, 0, 28, 63
1, 296985, Note_on_c, 0, 40, 58
1, 297018, Note_off_c, 0, 40, 60
1, 297040, Note_on_c, 0, 28, 70
1, 297080, Note_off_c, 0, 28, 57
1, 297101, Note_on_c, 0, 40, 56
1, 297119, Note_off_c, 0, 76, 48
1, 297140, Note_off_c, 0, 40, 57
1, 297181, Note_on_c, 0, 28, 51
1, 297189, Note_on_c, 0, 85, 96
1, 297202, Note_on_c, 0, 80, 77
1, 297205, Note_on_c, 0, 73, 85
1, 297206, Note_on_c, 0, 76, 77
1, 297228, Note_on_c, 0, 40, 65
1, 297242, Note_off_c, 0, 28, 40
1, 297263, Note_off_c, 0, 40, 61
1, 297272, Note_on_c, 0, 82, 33
1, 297308, Note_on_c, 0, 28, 54
1, 297320, Note_off_c, 0, 85, 64
1, 297337, Note_on_c, 0, 40, 65
1, 297337, Note_off_c, 0, 28, 58
1, 297380, Note_off_c, 0, 73, 59
1, 297384, Note_off_c, 0, 40, 56
1, 297414, Note_on_c, 0, 28, 68
1, 297447, Note_off_c, 0, 82, 34
1, 297451, Note_off_c, 0, 28, 59
1, 297481, Note_on_c, 0, 40, 45
1, 297500, Note_off_c, 0, 80, 57
1, 297506, Note_off_c, 0, 40, 60
1, 297548, Note_off_c, 0, 76, 0
1, 297560, Note_on_c, 0, 83, 107
1, 297562, Note_on_c, 0, 76, 54
1, 297568, Note_on_c, 0, 71, 83
1, 297575, Note_on_c, 0, 40, 72
1, 297670, Note_on_c, 0, 28, 41
1, 297697, Note_off_c, 0, 28, 56
1, 297753, Note_off_c, 0, 40, 47
1, 297764, Note_on_c, 0, 28, 73
1, 297791, Note_off_c, 0, 71, 60
1, 297802, Note_off_c, 0, 28, 61
1, 297805, Note_off_c, 0, 34, 40
1, 297817, Note_off_c, 0, 33, 37
1, 297834, Note_on_c, 0, 40, 55
1, 297909, Note_off_c, 0, 40, 61
1, 297968, Note_off_c, 0, 76, 0
1, 297982, Note_on_c, 0, 82, 90
1, 297983, Note_on_c, 0, 76, 42
1, 297994, Note_on_c, 0, 70, 72
1, 298007, Note_on_c, 0, 44, 62
1, 298091, Note_off_c, 0, 83, 44
1, 298113, Note_off_c, 0, 70, 58
1, 298139, Note_on_c, 0, 47, 70
1, 298141, Note_off_c, 0, 44, 59
1, 298199, Note_off_c, 0, 47, 60
1, 298203, Control_c, 0, 67, 49
1, 298218, Control_c, 0, 67, 63
1, 298232, Control_c, 0, 67, 75
1, 298234, Note_on_c, 0, 52, 66
1, 298247, Control_c, 0, 67, 84
1, 298252, Note_off_c, 0, 76, 37
1, 298262, Control_c, 0, 67, 91
1, 298276, Control_c, 0, 67, 98
1, 298290, Note_off_c, 0, 52, 58
1, 298291, Control_c, 0, 67, 108
1, 298306, Control_c, 0, 67, 121
1, 298321, Control_c, 0, 67, 127
1, 298329, Note_on_c, 0, 56, 79
1, 298416, Note_off_c, 0, 56, 60
1, 298421, Note_on_c, 0, 59, 76
1, 298477, Note_off_c, 0, 59, 62
1, 298520, Note_on_c, 0, 64, 77
1, 298617, Note_off_c, 0, 64, 56
1, 298621, Note_on_c, 0, 68, 74
1, 298649, Note_on_c, 0, 80, 76
1, 298776, Note_on_c, 0, 71, 80
1, 298794, Note_off_c, 0, 68, 57
1, 298818, Note_off_c, 0, 80, 39
1, 298844, Note_off_c, 0, 82, 28
1, 298976, Note_on_c, 0, 73, 87
1, 298988, Note_off_c, 0, 71, 53
1, 299013, Note_on_c, 0, 64, 41
1, 299013, Note_on_c, 0, 68, 50
1, 299072, Note_off_c, 0, 64, 38
1, 299098, Note_off_c, 0, 73, 56
1, 299155, Note_off_c, 0, 68, 53
1, 299279, Note_on_c, 0, 88, 58
1, 299423, Note_on_c, 0, 80, 67
1, 299446, Note_off_c, 0, 88, 58
1, 299448, Note_on_c, 0, 76, 46
1, 299496, Note_off_c, 0, 76, 51
1, 299549, Note_off_c, 0, 80, 58
1, 299551, Note_on_c, 0, 88, 70
1, 299673, Note_on_c, 0, 80, 63
1, 299679, Note_on_c, 0, 71, 82
1, 299682, Note_off_c, 0, 88, 53
1, 299688, Note_on_c, 0, 76, 57
1, 299691, Note_on_c, 0, 68, 63
1, 299716, Note_on_c, 0, 64, 49
1, 299745, Note_off_c, 0, 76, 51
1, 299760, Note_off_c, 0, 68, 63
1, 299775, Note_off_c, 0, 64, 64
1, 299793, Note_on_c, 0, 88, 69
1, 299811, Note_off_c, 0, 80, 49
1, 299886, Note_off_c, 0, 71, 47
1, 299900, Note_on_c, 0, 76, 56
1, 299912, Note_off_c, 0, 88, 60
1, 299916, Note_on_c, 0, 80, 65
1, 299960, Note_off_c, 0, 76, 53
1, 299981, Note_off_c, 0, 80, 52
1, 300002, Note_on_c, 0, 88, 67
1, 300067, Note_on_c, 0, 68, 76
1, 300077, Note_on_c, 0, 64, 55
1, 300078, Note_on_c, 0, 76, 65
1, 300085, Note_on_c, 0, 59, 61
1, 300085, Note_off_c, 0, 88, 60
1, 300087, Note_on_c, 0, 80, 68
1, 300123, Note_off_c, 0, 64, 65
1, 300128, Note_off_c, 0, 68, 62
1, 300139, Note_off_c, 0, 76, 55
1, 300162, Note_off_c, 0, 80, 57
1, 300168, Note_off_c, 0, 59, 64
1, 300170, Note_on_c, 0, 88, 69
1, 300265, Note_off_c, 0, 88, 58
1, 300266, Note_on_c, 0, 80, 60
1, 300272, Note_on_c, 0, 76, 48
1, 300298, Note_off_c, 0, 76, 55
1, 300315, Note_off_c, 0, 80, 52
1, 300348, Note_on_c, 0, 88, 64
1, 300420, Note_on_c, 0, 64, 76
1, 300428, Note_on_c, 0, 76, 54
1, 300429, Note_on_c, 0, 56, 68
1, 300434, Note_on_c, 0, 80, 65
1, 300443, Note_off_c, 0, 88, 59
1, 300470, Note_on_c, 0, 59, 20
1, 300483, Note_off_c, 0, 76, 57
1, 300488, Note_off_c, 0, 64, 63
1, 300511, Note_off_c, 0, 59, 54
1, 300520, Note_off_c, 0, 80, 56
1, 300523, Note_off_c, 0, 56, 55
1, 300525, Note_on_c, 0, 88, 68
1, 300613, Note_off_c, 0, 88, 56
1, 300616, Note_on_c, 0, 80, 58
1, 300662, Poly_aftertouch_c, 0, 76, 127
1, 300677, Note_off_c, 0, 80, 47
1, 300697, Poly_aftertouch_c, 0, 76, 0
1, 300700, Note_on_c, 0, 88, 61
1, 300772, Note_on_c, 0, 61, 68
1, 300781, Note_off_c, 0, 88, 58
1, 300790, Note_on_c, 0, 52, 49
1, 300794, Note_on_c, 0, 56, 51
1, 300794, Note_on_c, 0, 80, 52
1, 300809, Note_on_c, 0, 76, 24
1, 300845, Note_off_c, 0, 76, 53
1, 300845, Note_off_c, 0, 80, 50
1, 300848, Note_off_c, 0, 56, 49
1, 300852, Note_off_c, 0, 61, 57
1, 300873, Note_on_c, 0, 88, 67
1, 300927, Note_off_c, 0, 52, 36
1, 300967, Note_on_c, 0, 76, 36
1, 300976, Note_off_c, 0, 88, 62
1, 300977, Note_on_c, 0, 80, 51
1, 301009, Note_off_c, 0, 76, 47
1, 301042, Note_off_c, 0, 80, 60
1, 301054, Note_on_c, 0, 88, 56
1, 301133, Note_off_c, 0, 88, 59
1, 301155, Note_on_c, 0, 59, 50
1, 301162, Note_on_c, 0, 80, 49
1, 301175, Note_on_c, 0, 56, 37
1, 301185, Note_on_c, 0, 75, 30
1, 301197, Note_on_c, 0, 52, 36
1, 301221, Note_off_c, 0, 75, 50
1, 301253, Note_off_c, 0, 52, 50
1, 301255, Note_on_c, 0, 87, 52
1, 301256, Note_off_c, 0, 56, 45
1, 301271, Note_off_c, 0, 59, 50
1, 301323, Note_off_c, 0, 80, 0
1, 301340, Note_on_c, 0, 75, 51
1, 301346, Note_on_c, 0, 80, 14
1, 301360, Note_off_c, 0, 87, 56
1, 301440, Note_off_c, 0, 75, 59
1, 301445, Note_on_c, 0, 87, 57
1, 301517, Note_off_c, 0, 87, 59
1, 301550, Note_on_c, 0, 56, 40
1, 301564, Note_on_c, 0, 73, 53
1, 301566, Note_on_c, 0, 52, 40
1, 301649, Note_off_c, 0, 73, 57
1, 301662, Note_on_c, 0, 85, 54
1, 301717, Note_off_c, 0, 56, 32
1, 301772, Note_off_c, 0, 85, 59
1, 301775, Note_off_c, 0, 52, 37
1, 301784, Note_on_c, 0, 73, 45
1, 301854, Note_off_c, 0, 73, 47
1, 301878, Note_on_c, 0, 85, 52
1, 301987, Note_on_c, 0, 73, 49
1, 301990, Note_on_c, 0, 59, 28
1, 301991, Note_off_c, 0, 85, 52
1, 301998, Note_on_c, 0, 52, 32
1, 302065, Poly_aftertouch_c, 0, 56, 127
1, 302124, Note_off_c, 0, 80, 42
1, 302130, Note_off_c, 0, 73, 60
1, 302144, Note_on_c, 0, 85, 19
1, 302167, Note_off_c, 0, 85, 52
1, 302232, Note_on_c, 0, 71, 39
1, 302232, Note_off_c, 0, 52, 39
1, 302239, Poly_aftertouch_c, 0, 56, 0
1, 302239, Note_off_c, 0, 59, 26
1, 302285, Note_off_c, 0, 71, 42
1, 302354, Note_on_c, 0, 83, 52
1, 302456, Note_off_c, 0, 83, 61
1, 302541, Note_on_c, 0, 81, 37
1, 302556, Note_on_c, 0, 64, 44
1, 302566, Note_on_c, 0, 56, 39
1, 302584, Note_on_c, 0, 59, 32
1, 302637, Note_off_c, 0, 59, 47
1, 302649, Note_off_c, 0, 56, 61
1, 302707, Note_off_c, 0, 81, 33
1, 302748, Note_on_c, 0, 93, 54
1, 302754, Note_off_c, 0, 64, 56
1, 302853, Note_off_c, 0, 93, 47
1, 302860, Note_on_c, 0, 81, 49
1, 302932, Note_off_c, 0, 81, 52
1, 302970, Note_on_c, 0, 93, 57
1, 303045, Note_on_c, 0, 68, 60
1, 303054, Note_on_c, 0, 81, 54
1, 303054, Note_off_c, 0, 93, 46
1, 303081, Note_on_c, 0, 59, 34
1, 303090, Note_on_c, 0, 64, 31
1, 303128, Note_off_c, 0, 81, 46
1, 303137, Note_off_c, 0, 64, 46
1, 303145, Note_off_c, 0, 59, 38
1, 303158, Note_on_c, 0, 93, 52
1, 303170, Note_off_c, 0, 68, 39
1, 303220, Note_off_c, 0, 93, 51
1, 303257, Note_on_c, 0, 81, 50
1, 303297, Note_off_c, 0, 81, 48
1, 303340, Note_on_c, 0, 93, 50
1, 303405, Note_off_c, 0, 93, 39
1, 303413, Note_on_c, 0, 71, 61
1, 303415, Note_on_c, 0, 81, 54
1, 303427, Note_on_c, 0, 64, 45
1, 303455, Note_off_c, 0, 64, 56
1, 303459, Note_on_c, 0, 68, 7
1, 303478, Note_off_c, 0, 81, 51
1, 303507, Note_off_c, 0, 68, 50
1, 303510, Note_off_c, 0, 71, 61
1, 303520, Note_on_c, 0, 93, 51
1, 303571, Note_off_c, 0, 93, 40
1, 303600, Note_on_c, 0, 81, 46
1, 303636, Note_off_c, 0, 81, 51
1, 303688, Note_on_c, 0, 93, 49
1, 303737, Note_off_c, 0, 93, 42
1, 303772, Note_on_c, 0, 81, 40
1, 303776, Note_on_c, 0, 76, 63
1, 303799, Note_on_c, 0, 71, 38
1, 303831, Note_on_c, 0, 68, 23
1, 303832, Note_off_c, 0, 81, 55
1, 303871, Note_off_c, 0, 68, 51
1, 303884, Note_on_c, 0, 93, 30
1, 303902, Note_off_c, 0, 76, 50
1, 303917, Note_off_c, 0, 71, 34
1, 303960, Note_on_c, 0, 81, 45
1, 303975, Note_off_c, 0, 93, 33
1, 304045, Note_off_c, 0, 81, 46
1, 304075, Note_on_c, 0, 93, 42
1, 304161, Note_on_c, 0, 76, 62
1, 304174, Note_on_c, 0, 81, 41
1, 304174, Note_off_c, 0, 93, 27
1, 304206, Note_on_c, 0, 68, 25
1, 304221, Note_off_c, 0, 81, 56
1, 304258, Note_off_c, 0, 68, 43
1, 304259, Note_off_c, 0, 76, 55
1, 304282, Note_on_c, 0, 93, 42
1, 304340, Note_off_c, 0, 93, 37
1, 304381, Note_on_c, 0, 81, 37
1, 304435, Note_off_c, 0, 81, 63
1, 304482, Note_on_c, 0, 93, 33
1, 304578, Note_on_c, 0, 80, 51
1, 304592, Note_on_c, 0, 71, 43
1, 304598, Note_on_c, 0, 68, 29
1, 304646, Note_off_c, 0, 80, 49
1, 304655, Note_off_c, 0, 68, 53
1, 304673, Note_off_c, 0, 71, 61
1, 304674, Note_on_c, 0, 64, 20
1, 304693, Note_off_c, 0, 93, 39
1, 304720, Note_on_c, 0, 92, 41
1, 304765, Note_off_c, 0, 64, 55
1, 304819, Note_on_c, 0, 80, 38
1, 304827, Note_off_c, 0, 92, 41
1, 304931, Note_off_c, 0, 80, 58
1, 304936, Note_on_c, 0, 92, 44
1, 304969, Note_off_c, 0, 92, 50
1, 305066, Note_on_c, 0, 71, 21
1, 305072, Note_on_c, 0, 78, 41
1, 305072, Note_on_c, 0, 64, 31
1, 305084, Note_on_c, 0, 68, 25
1, 305168, Note_off_c, 0, 78, 42
1, 305195, Note_on_c, 0, 90, 39
1, 305234, Note_off_c, 0, 71, 38
1, 305260, Note_off_c, 0, 68, 26
1, 305304, Note_off_c, 0, 90, 31
1, 305329, Note_on_c, 0, 78, 42
1, 305335, Note_off_c, 0, 64, 39
1, 305478, Note_on_c, 0, 90, 27
1, 305483, Note_off_c, 0, 78, 36
1, 305613, Note_on_c, 0, 68, 30
1, 305618, Note_off_c, 0, 90, 38
1, 305620, Note_on_c, 0, 78, 33
1, 305623, Note_on_c, 0, 59, 34
1, 305662, Poly_aftertouch_c, 0, 64, 127
1, 305781, Note_on_c, 0, 90, 32
1, 305788, Note_off_c, 0, 68, 32
1, 305805, Note_off_c, 0, 78, 58
1, 305823, Note_off_c, 0, 90, 48
1, 305883, Poly_aftertouch_c, 0, 64, 0
1, 305894, Note_off_c, 0, 59, 32
1, 305940, Note_on_c, 0, 76, 50
1, 306050, Note_off_c, 0, 76, 54
1, 306111, Note_on_c, 0, 88, 38
1, 306233, Note_on_c, 0, 59, 29
1, 306283, Note_off_c, 0, 88, 64
1, 306373, Note_on_c, 0, 64, 26
1, 306461, Note_on_c, 0, 67, 39
1, 306512, Control_c, 0, 64, 106
1, 306527, Control_c, 0, 64, 96
1, 306542, Control_c, 0, 64, 89
1, 306556, Control_c, 0, 64, 84
1, 306571, Control_c, 0, 64, 81
1, 306586, Control_c, 0, 64, 78
1, 306601, Control_c, 0, 64, 75
1, 306616, Control_c, 0, 64, 73
1, 306631, Control_c, 0, 64, 72
1, 306660, Note_on_c, 0, 91, 43
1, 306661, Control_c, 0, 64, 73
1, 306673, Note_on_c, 0, 83, 39
1, 306673, Note_on_c, 0, 88, 34
1, 306676, Control_c, 0, 64, 74
1, 306685, Note_on_c, 0, 71, 45
1, 306690, Control_c, 0, 64, 76
1, 306705, Control_c, 0, 64, 79
1, 306720, Control_c, 0, 64, 83
1, 306735, Control_c, 0, 64, 88
1, 306750, Control_c, 0, 64, 95
1, 306764, Control_c, 0, 64, 104
1, 306779, Control_c, 0, 64, 113
1, 306794, Control_c, 0, 64, 127
1, 306799, Note_off_c, 0, 71, 50
1, 306852, Note_off_c, 0, 59, 43
1, 306865, Note_off_c, 0, 67, 39
1, 306868, Note_off_c, 0, 64, 42
1, 307136, Note_on_c, 0, 95, 34
1, 307157, Note_off_c, 0, 83, 24
1, 307190, Note_off_c, 0, 88, 40
1, 307202, Note_off_c, 0, 91, 36
1, 307366, Note_on_c, 0, 91, 35
1, 307376, Note_on_c, 0, 88, 34
1, 307403, Note_on_c, 0, 83, 24
1, 307424, Note_off_c, 0, 95, 29
1, 307599, Note_on_c, 0, 95, 36
1, 307656, Note_off_c, 0, 88, 45
1, 307704, Note_off_c, 0, 91, 37
1, 307705, Note_off_c, 0, 83, 30
1, 307819, Note_on_c, 0, 40, 49
1, 307832, Control_c, 0, 64, 114
1, 307838, Note_on_c, 0, 91, 23
1, 307847, Control_c, 0, 64, 108
1, 307862, Control_c, 0, 64, 105
1, 307874, Note_off_c, 0, 95, 38
1, 307877, Control_c, 0, 64, 103
1, 307892, Control_c, 0, 64, 101
1, 307907, Control_c, 0, 64, 99
1, 307922, Control_c, 0, 64, 96
1, 307925, Poly_aftertouch_c, 0, 88, 127
1, 307936, Control_c, 0, 64, 94
1, 307951, Control_c, 0, 64, 92
1, 307966, Control_c, 0, 64, 91
1, 307981, Control_c, 0, 64, 90
1, 307996, Control_c, 0, 64, 89
1, 308025, Control_c, 0, 64, 89
1, 308055, Note_off_c, 0, 91, 27
1, 308069, Control_c, 0, 64, 89
1, 308084, Control_c, 0, 64, 91
1, 308099, Control_c, 0, 64, 92
1, 308114, Control_c, 0, 64, 93
1, 308128, Control_c, 0, 64, 94
1, 308143, Control_c, 0, 64, 95
1, 308173, Control_c, 0, 64, 98
1, 308187, Control_c, 0, 64, 101
1, 308195, Note_on_c, 0, 95, 38
1, 308196, Poly_aftertouch_c, 0, 88, 0
1, 308217, Control_c, 0, 64, 104
1, 308262, Control_c, 0, 64, 106
1, 308276, Control_c, 0, 64, 108
1, 308291, Control_c, 0, 64, 111
1, 308321, Control_c, 0, 64, 113
1, 308351, Control_c, 0, 64, 117
1, 308366, Control_c, 0, 64, 124
1, 308375, Note_on_c, 0, 47, 50
1, 308375, Note_on_c, 0, 91, 48
1, 308380, Control_c, 0, 64, 127
1, 308407, Note_on_c, 0, 88, 29
1, 308423, Note_off_c, 0, 40, 12
1, 308449, Note_off_c, 0, 95, 42
1, 308462, Poly_aftertouch_c, 0, 83, 127
1, 308521, Poly_aftertouch_c, 0, 83, 0
1, 308548, Note_off_c, 0, 88, 42
1, 308557, Note_on_c, 0, 95, 55
1, 308575, Note_off_c, 0, 47, 36
1, 308592, Note_off_c, 0, 91, 32
1, 308694, Note_on_c, 0, 52, 51
1, 308702, Note_on_c, 0, 91, 47
1, 308709, Note_on_c, 0, 88, 46
1, 308722, Note_on_c, 0, 83, 38
1, 308740, Note_off_c, 0, 95, 45
1, 308789, Note_off_c, 0, 52, 58
1, 308790, Note_off_c, 0, 88, 53
1, 308818, Note_off_c, 0, 83, 37
1, 308821, Note_off_c, 0, 91, 36
1, 308844, Note_on_c, 0, 95, 48
1, 308940, Note_on_c, 0, 55, 61
1, 308945, Note_on_c, 0, 91, 50
1, 308947, Note_on_c, 0, 88, 47
1, 308956, Note_on_c, 0, 83, 37
1, 308990, Note_off_c, 0, 95, 44
1, 309019, Note_off_c, 0, 55, 60
1, 309031, Note_off_c, 0, 83, 38
1, 309067, Note_off_c, 0, 88, 37
1, 309072, Note_on_c, 0, 95, 45
1, 309097, Note_off_c, 0, 91, 28
1, 309149, Note_on_c, 0, 59, 57
1, 309159, Note_on_c, 0, 91, 33
1, 309185, Note_on_c, 0, 88, 54
1, 309190, Note_on_c, 0, 83, 40
1, 309238, Note_off_c, 0, 88, 52
1, 309242, Note_off_c, 0, 95, 35
1, 309243, Note_off_c, 0, 59, 61
1, 309243, Note_off_c, 0, 83, 45
1, 309304, Note_on_c, 0, 95, 24
1, 309309, Note_off_c, 0, 91, 31
1, 309369, Note_on_c, 0, 91, 28
1, 309373, Note_on_c, 0, 88, 53
1, 309375, Note_on_c, 0, 64, 61
1, 309390, Note_on_c, 0, 83, 33
1, 309400, Note_off_c, 0, 95, 35
1, 309444, Note_off_c, 0, 64, 62
1, 309445, Note_off_c, 0, 83, 44
1, 309451, Note_off_c, 0, 88, 56
1, 309476, Note_off_c, 0, 91, 45
1, 309512, Note_on_c, 0, 95, 28
1, 309567, Note_off_c, 0, 95, 40
1, 309601, Note_on_c, 0, 67, 46
1, 309603, Note_on_c, 0, 88, 40
1, 309604, Note_on_c, 0, 91, 35
1, 309639, Note_on_c, 0, 83, 14
1, 309692, Note_off_c, 0, 83, 46
1, 309701, Note_off_c, 0, 88, 39
1, 309713, Note_off_c, 0, 67, 38
1, 309716, Note_off_c, 0, 91, 33
1, 309851, Note_on_c, 0, 71, 49
1, 309867, Note_on_c, 0, 91, 35
1, 309874, Note_on_c, 0, 88, 34
1, 309909, Note_off_c, 0, 71, 57
1, 309964, Poly_aftertouch_c, 0, 83, 127
1, 309993, Note_off_c, 0, 88, 39
1, 310002, Poly_aftertouch_c, 0, 83, 0
1, 310049, Note_off_c, 0, 91, 36
1, 310054, Note_on_c, 0, 95, 23
1, 310114, Note_off_c, 0, 95, 40
1, 310151, Note_on_c, 0, 91, 23
1, 310166, Note_on_c, 0, 76, 40
1, 310170, Note_on_c, 0, 88, 25
1, 310191, Note_on_c, 0, 83, 16
1, 310272, Note_off_c, 0, 76, 63
1, 310321, Note_off_c, 0, 88, 44
1, 310349, Note_off_c, 0, 91, 35
1, 310375, Note_off_c, 0, 83, 34
1, 310401, Poly_aftertouch_c, 0, 95, 127
1, 310508, Poly_aftertouch_c, 0, 95, 0
1, 310516, Note_on_c, 0, 79, 35
1, 310527, Note_on_c, 0, 91, 30
1, 310544, Note_on_c, 0, 88, 18
1, 310574, Poly_aftertouch_c, 0, 83, 127
1, 310593, Note_off_c, 0, 79, 60
1, 310709, Poly_aftertouch_c, 0, 83, 0
1, 310741, Note_on_c, 0, 95, 35
1, 310850, Note_off_c, 0, 88, 41
1, 310858, Note_off_c, 0, 91, 34
1, 310858, Control_c, 0, 64, 111
1, 310873, Control_c, 0, 64, 107
1, 310888, Control_c, 0, 64, 105
1, 310903, Control_c, 0, 64, 103
1, 310918, Control_c, 0, 64, 101
1, 310932, Control_c, 0, 64, 99
1, 310947, Control_c, 0, 64, 97
1, 310962, Control_c, 0, 64, 94
1, 310977, Control_c, 0, 64, 93
1, 310992, Control_c, 0, 64, 92
1, 311006, Control_c, 0, 64, 91
1, 311021, Control_c, 0, 64, 90
1, 311036, Control_c, 0, 64, 89
1, 311051, Control_c, 0, 64, 87
1, 311066, Control_c, 0, 64, 87
1, 311140, Control_c, 0, 64, 86
1, 311144, Note_on_c, 0, 64, 44
1, 311154, Control_c, 0, 64, 85
1, 311169, Control_c, 0, 64, 85
1, 311184, Control_c, 0, 64, 84
1, 311198, Control_c, 0, 64, 83
1, 311199, Note_off_c, 0, 95, 44
1, 311213, Control_c, 0, 64, 83
1, 311228, Control_c, 0, 64, 82
1, 311243, Control_c, 0, 64, 82
1, 311258, Control_c, 0, 64, 81
1, 311272, Control_c, 0, 64, 80
1, 311317, Control_c, 0, 64, 79
1, 311347, Control_c, 0, 64, 79
1, 311377, Control_c, 0, 64, 78
1, 311443, Control_c, 0, 64, 78
1, 311513, Note_on_c, 0, 67, 44
1, 311583, Note_off_c, 0, 64, 55
1, 311728, Note_on_c, 0, 71, 42
1, 311883, Note_on_c, 0, 76, 48
1, 311948, Control_c, 0, 64, 78
1, 311967, Note_off_c, 0, 76, 49
1, 311977, Control_c, 0, 64, 79
1, 312008, Note_on_c, 0, 79, 41
1, 312008, Note_off_c, 0, 71, 39
1, 312068, Note_off_c, 0, 67, 42
1, 312148, Note_on_c, 0, 83, 46
1, 312190, Note_off_c, 0, 79, 33
1, 312237, Control_c, 0, 64, 79
1, 312290, Note_on_c, 0, 88, 46
1, 312351, Note_off_c, 0, 83, 35
1, 312411, Note_on_c, 0, 91, 50
1, 312463, Note_off_c, 0, 88, 37
1, 312520, Note_on_c, 0, 59, 45
1, 312623, Control_c, 0, 64, 80
1, 312643, Note_off_c, 0, 91, 38
1, 312651, Note_on_c, 0, 64, 47
1, 312757, Control_c, 0, 64, 80
1, 312781, Note_on_c, 0, 67, 43
1, 312786, Control_c, 0, 64, 81
1, 312801, Control_c, 0, 64, 81
1, 312816, Control_c, 0, 64, 82
1, 312831, Control_c, 0, 64, 83
1, 312845, Control_c, 0, 64, 84
1, 312860, Control_c, 0, 64, 84
1, 312875, Control_c, 0, 64, 85
1, 312890, Control_c, 0, 64, 86
1, 312905, Control_c, 0, 64, 87
1, 312908, Note_on_c, 0, 71, 41
1, 312927, Control_c, 0, 64, 89
1, 312942, Control_c, 0, 64, 91
1, 312956, Control_c, 0, 64, 93
1, 312971, Control_c, 0, 64, 95
1, 312982, Note_off_c, 0, 67, 51
1, 312986, Control_c, 0, 64, 97
1, 313001, Control_c, 0, 64, 101
1, 313016, Control_c, 0, 64, 104
1, 313028, Note_on_c, 0, 76, 47
1, 313031, Control_c, 0, 64, 108
1, 313034, Note_off_c, 0, 64, 36
1, 313046, Control_c, 0, 64, 112
1, 313049, Note_off_c, 0, 59, 41
1, 313058, Note_off_c, 0, 71, 35
1, 313060, Control_c, 0, 64, 116
1, 313075, Control_c, 0, 64, 124
1, 313090, Control_c, 0, 64, 127
1, 313132, Note_off_c, 0, 76, 34
1, 313153, Note_on_c, 0, 83, 49
1, 313274, Note_on_c, 0, 88, 48
1, 313301, Note_off_c, 0, 83, 37
1, 313395, Note_on_c, 0, 91, 52
1, 313424, Note_off_c, 0, 88, 36
1, 313454, Note_off_c, 0, 91, 66
1, 313526, Note_on_c, 0, 55, 38
1, 313651, Note_on_c, 0, 59, 37
1, 313764, Note_on_c, 0, 64, 44
1, 313912, Note_on_c, 0, 67, 33
1, 313960, Note_off_c, 0, 55, 40
1, 313982, Note_off_c, 0, 67, 56
1, 314019, Note_on_c, 0, 71, 45
1, 314027, Note_off_c, 0, 64, 39
1, 314112, Note_off_c, 0, 59, 42
1, 314144, Note_off_c, 0, 71, 36
1, 314166, Note_on_c, 0, 79, 45
1, 314302, Note_on_c, 0, 83, 42
1, 314359, Note_off_c, 0, 79, 37
1, 314451, Note_on_c, 0, 88, 47
1, 314495, Note_off_c, 0, 83, 30
1, 314498, Note_off_c, 0, 88, 59
1, 314588, Note_on_c, 0, 52, 41
1, 314732, Note_on_c, 0, 55, 33
1, 314876, Note_on_c, 0, 59, 32
1, 315055, Note_on_c, 0, 64, 25
1, 315096, Note_off_c, 0, 52, 39
1, 315178, Note_off_c, 0, 64, 41
1, 315192, Note_on_c, 0, 67, 37
1, 315215, Note_off_c, 0, 59, 41
1, 315244, Note_off_c, 0, 55, 37
1, 315370, Note_on_c, 0, 76, 42
1, 315375, Note_off_c, 0, 67, 38
1, 315499, Control_c, 0, 67, 124
1, 315514, Control_c, 0, 67, 101
1, 315529, Control_c, 0, 67, 77
1, 315541, Note_on_c, 0, 79, 35
1, 315544, Control_c, 0, 67, 54
1, 315559, Control_c, 0, 67, 0
1, 315643, Note_off_c, 0, 76, 35
1, 315708, Note_on_c, 0, 83, 45
1, 315852, Note_off_c, 0, 79, 33
1, 315933, Note_on_c, 0, 47, 20
1, 316104, Note_off_c, 0, 83, 38
1, 316202, Poly_aftertouch_c, 0, 55, 127
1, 316230, Note_off_c, 0, 47, 39
1, 316266, Poly_aftertouch_c, 0, 55, 0
1, 316364, Note_on_c, 0, 59, 38
1, 316615, Note_off_c, 0, 59, 38
1, 316640, Note_on_c, 0, 64, 37
1, 316930, Note_on_c, 0, 67, 33
1, 316961, Note_off_c, 0, 64, 41
1, 317271, Note_on_c, 0, 73, 36
1, 317332, Note_off_c, 0, 67, 37
1, 317698, Note_on_c, 0, 76, 41
1, 317834, Note_off_c, 0, 73, 55
1, 318512, Note_on_c, 0, 85, 37
1, 318715, Control_c, 0, 67, 39
1, 318730, Control_c, 0, 67, 44
1, 318745, Control_c, 0, 67, 51
1, 318760, Control_c, 0, 67, 60
1, 318775, Control_c, 0, 67, 70
1, 318790, Control_c, 0, 67, 80
1, 318805, Control_c, 0, 67, 91
1, 318820, Control_c, 0, 67, 99
1, 318835, Control_c, 0, 67, 106
1, 318845, Note_off_c, 0, 76, 35
1, 318850, Control_c, 0, 67, 115
1, 318865, Control_c, 0, 67, 125
1, 318880, Control_c, 0, 67, 127
1, 320457, Note_on_c, 0, 35, 30
1, 320493, Note_off_c, 0, 85, 30
1, 320669, Note_on_c, 0, 47, 13
1, 320805, Note_on_c, 0, 85, 40
1, 320829, Note_on_c, 0, 75, 35
1, 320838, Note_on_c, 0, 73, 28
1, 320844, Control_c, 0, 64, 113
1, 320850, Note_on_c, 0, 78, 37
1, 320859, Control_c, 0, 64, 99
1, 320874, Control_c, 0, 64, 88
1, 320889, Control_c, 0, 64, 78
1, 320904, Control_c, 0, 64, 72
1, 320918, Control_c, 0, 64, 68
1, 320933, Control_c, 0, 64, 67
1, 320963, Control_c, 0, 64, 68
1, 320978, Control_c, 0, 64, 69
1, 320991, Note_off_c, 0, 35, 39
1, 320992, Control_c, 0, 64, 73
1, 321007, Control_c, 0, 64, 78
1, 321022, Control_c, 0, 64, 85
1, 321037, Control_c, 0, 64, 94
1, 321052, Control_c, 0, 64, 106
1, 321066, Control_c, 0, 64, 127
1, 321132, Note_off_c, 0, 85, 57
1, 321214, Note_off_c, 0, 47, 53
1, 321284, Note_off_c, 0, 73, 35
1, 321436, Note_on_c, 0, 51, 31
1, 321771, Note_on_c, 0, 83, 49
1, 321813, Note_on_c, 0, 71, 43
1, 321824, Note_on_c, 0, 54, 24
1, 321968, Note_off_c, 0, 51, 43
1, 322034, Note_off_c, 0, 54, 39
1, 322074, Note_off_c, 0, 71, 57
1, 322076, Note_on_c, 0, 59, 36
1, 322126, Note_off_c, 0, 78, 54
1, 322143, Note_off_c, 0, 75, 57
1, 322251, Note_off_c, 0, 59, 35
1, 322287, Note_on_c, 0, 82, 58
1, 322316, Note_on_c, 0, 70, 45
1, 322329, Note_on_c, 0, 54, 37
1, 322548, Note_off_c, 0, 83, 34
1, 322552, Note_on_c, 0, 59, 40
1, 322674, Note_off_c, 0, 82, 44
1, 322804, Note_on_c, 0, 63, 41
1, 322805, Note_off_c, 0, 59, 54
1, 322860, Note_off_c, 0, 70, 48
1, 322914, Note_off_c, 0, 63, 54
1, 322939, Note_off_c, 0, 54, 44
1, 323092, Note_on_c, 0, 80, 53
1, 323110, Note_on_c, 0, 68, 37
1, 323253, Note_on_c, 0, 47, 40
1, 323282, Note_off_c, 0, 80, 36
1, 323333, Note_off_c, 0, 68, 36
1, 323349, Note_on_c, 0, 54, 31
1, 323479, Note_on_c, 0, 80, 45
1, 323483, Control_c, 0, 64, 115
1, 323498, Control_c, 0, 64, 100
1, 323507, Note_on_c, 0, 73, 40
1, 323512, Control_c, 0, 64, 90
1, 323518, Note_on_c, 0, 68, 35
1, 323527, Note_on_c, 0, 76, 31
1, 323527, Control_c, 0, 64, 81
1, 323542, Control_c, 0, 64, 72
1, 323557, Control_c, 0, 64, 66
1, 323572, Control_c, 0, 64, 62
1, 323588, Control_c, 0, 64, 59
1, 323603, Control_c, 0, 64, 59
1, 323617, Control_c, 0, 64, 59
1, 323632, Control_c, 0, 64, 61
1, 323647, Control_c, 0, 64, 64
1, 323662, Control_c, 0, 64, 68
1, 323677, Control_c, 0, 64, 74
1, 323691, Control_c, 0, 64, 83
1, 323706, Control_c, 0, 64, 98
1, 323721, Control_c, 0, 64, 119
1, 323735, Control_c, 0, 64, 127
1, 323736, Note_off_c, 0, 47, 40
1, 323811, Note_off_c, 0, 54, 38
1, 323823, Note_off_c, 0, 80, 57
1, 323890, Note_on_c, 0, 61, 36
1, 323962, Note_off_c, 0, 61, 60
1, 323991, Note_off_c, 0, 68, 37
1, 324172, Note_on_c, 0, 78, 40
1, 324196, Note_on_c, 0, 66, 41
1, 324203, Note_on_c, 0, 64, 42
1, 324288, Note_off_c, 0, 64, 62
1, 324415, Note_off_c, 0, 66, 32
1, 324422, Note_off_c, 0, 78, 37
1, 324459, Note_on_c, 0, 71, 47
1, 324574, Note_off_c, 0, 71, 61
1, 324669, Poly_aftertouch_c, 0, 75, 127
1, 324681, Note_off_c, 0, 76, 44
1, 324774, Poly_aftertouch_c, 0, 75, 0
1, 324800, Note_on_c, 0, 79, 52
1, 324828, Note_on_c, 0, 70, 41
1, 324832, Note_on_c, 0, 67, 40
1, 324932, Note_off_c, 0, 70, 51
1, 325047, Note_off_c, 0, 73, 51
1, 325102, Note_off_c, 0, 67, 62
1, 325181, Note_on_c, 0, 64, 40
1, 325288, Note_on_c, 0, 80, 66
1, 325306, Note_on_c, 0, 68, 44
1, 325377, Note_off_c, 0, 79, 63
1, 325444, Note_off_c, 0, 64, 31
1, 325457, Note_off_c, 0, 68, 57
1, 325458, Note_on_c, 0, 61, 43
1, 325530, Note_off_c, 0, 61, 52
1, 325604, Note_on_c, 0, 82, 65
1, 325628, Note_on_c, 0, 70, 54
1, 325690, Note_on_c, 0, 54, 44
1, 325721, Note_off_c, 0, 70, 63
1, 325768, Note_off_c, 0, 54, 60
1, 325783, Note_off_c, 0, 82, 59
1, 325859, Note_on_c, 0, 73, 54
1, 325977, Note_on_c, 0, 75, 54
1, 326101, Control_c, 0, 64, 113
1, 326107, Note_on_c, 0, 35, 19
1, 326116, Note_on_c, 0, 78, 51
1, 326116, Control_c, 0, 64, 102
1, 326130, Control_c, 0, 64, 95
1, 326138, Note_on_c, 0, 47, 14
1, 326145, Control_c, 0, 64, 88
1, 326160, Control_c, 0, 64, 79
1, 326175, Control_c, 0, 64, 72
1, 326190, Control_c, 0, 64, 67
1, 326204, Control_c, 0, 64, 63
1, 326219, Control_c, 0, 64, 60
1, 326234, Control_c, 0, 64, 58
1, 326249, Control_c, 0, 64, 55
1, 326264, Control_c, 0, 64, 55
1, 326278, Control_c, 0, 64, 55
1, 326293, Control_c, 0, 64, 57
1, 326308, Control_c, 0, 64, 60
1, 326323, Control_c, 0, 64, 63
1, 326338, Control_c, 0, 64, 67
1, 326348, Note_on_c, 0, 85, 58
1, 326353, Control_c, 0, 64, 75
1, 326368, Control_c, 0, 64, 85
1, 326382, Control_c, 0, 64, 97
1, 326404, Control_c, 0, 64, 116
1, 326419, Control_c, 0, 64, 127
1, 326458, Note_off_c, 0, 35, 39
1, 326528, Note_off_c, 0, 85, 62
1, 326569, Note_off_c, 0, 47, 39
1, 326714, Note_off_c, 0, 73, 55
1, 326828, Note_on_c, 0, 51, 37
1, 326994, Note_off_c, 0, 80, 38
1, 327183, Note_on_c, 0, 71, 53
1, 327187, Note_on_c, 0, 83, 40
1, 327210, Note_on_c, 0, 54, 37
1, 327313, Note_off_c, 0, 51, 39
1, 327383, Note_off_c, 0, 54, 57
1, 327441, Note_off_c, 0, 71, 60
1, 327473, Note_on_c, 0, 59, 44
1, 327523, Note_off_c, 0, 75, 55
1, 327566, Note_off_c, 0, 78, 35
1, 327590, Note_off_c, 0, 59, 54
1, 327705, Note_on_c, 0, 70, 55
1, 327745, Note_on_c, 0, 82, 45
1, 327748, Note_on_c, 0, 54, 40
1, 327925, Note_off_c, 0, 83, 52
1, 327998, Note_on_c, 0, 59, 35
1, 328020, Note_off_c, 0, 82, 51
1, 328073, Note_off_c, 0, 70, 62
1, 328205, Note_on_c, 0, 63, 46
1, 328207, Note_off_c, 0, 59, 36
1, 328283, Note_off_c, 0, 63, 51
1, 328294, Note_off_c, 0, 54, 55
1, 328476, Note_on_c, 0, 68, 52
1, 328532, Poly_aftertouch_c, 0, 80, 127
1, 328582, Poly_aftertouch_c, 0, 80, 0
1, 328623, Note_on_c, 0, 47, 35
1, 328642, Note_off_c, 0, 68, 45
1, 328720, Note_on_c, 0, 54, 30
1, 328757, Note_on_c, 0, 68, 48
1, 328831, Note_on_c, 0, 73, 40
1, 328874, Control_c, 0, 64, 96
1, 328889, Control_c, 0, 64, 80
1, 328893, Note_on_c, 0, 76, 35
1, 328904, Control_c, 0, 64, 69
1, 328919, Control_c, 0, 64, 62
1, 328932, Note_on_c, 0, 80, 37
1, 328933, Control_c, 0, 64, 60
1, 328948, Control_c, 0, 64, 60
1, 328963, Control_c, 0, 64, 61
1, 328978, Control_c, 0, 64, 62
1, 328993, Control_c, 0, 64, 66
1, 329007, Control_c, 0, 64, 71
1, 329022, Control_c, 0, 64, 82
1, 329037, Control_c, 0, 64, 99
1, 329051, Control_c, 0, 64, 127
1, 329068, Note_off_c, 0, 47, 34
1, 329097, Note_off_c, 0, 54, 42
1, 329139, Note_off_c, 0, 80, 58
1, 329220, Note_on_c, 0, 61, 34
1, 329258, Note_off_c, 0, 68, 56
1, 329273, Note_off_c, 0, 61, 59
1, 329486, Note_on_c, 0, 66, 50
1, 329503, Note_on_c, 0, 78, 29
1, 329507, Note_on_c, 0, 64, 39
1, 329581, Note_off_c, 0, 64, 51
1, 329671, Note_off_c, 0, 66, 38
1, 329772, Note_on_c, 0, 71, 48
1, 329916, Note_off_c, 0, 71, 35
1, 330078, Note_on_c, 0, 67, 56
1, 330104, Note_on_c, 0, 70, 45
1, 330211, Note_off_c, 0, 70, 48
1, 330337, Note_off_c, 0, 67, 38
1, 330492, Note_on_c, 0, 64, 47
1, 330578, Note_on_c, 0, 68, 63
1, 330675, Note_off_c, 0, 64, 31
1, 330717, Note_off_c, 0, 68, 58
1, 330760, Note_on_c, 0, 61, 40
1, 330798, Note_off_c, 0, 78, 39
1, 330830, Note_off_c, 0, 61, 52
1, 330921, Note_off_c, 0, 73, 36
1, 330937, Note_on_c, 0, 70, 67
1, 331037, Note_on_c, 0, 54, 33
1, 331077, Note_off_c, 0, 54, 50
1, 331167, Note_off_c, 0, 76, 43
1, 331494, Note_on_c, 0, 78, 53
1, 331503, Note_on_c, 0, 75, 57
1, 331508, Note_on_c, 0, 73, 51
1, 331531, Note_on_c, 0, 47, 37
1, 331533, Control_c, 0, 64, 98
1, 331542, Note_on_c, 0, 35, 43
1, 331548, Control_c, 0, 64, 82
1, 331564, Control_c, 0, 64, 68
1, 331579, Control_c, 0, 64, 59
1, 331594, Control_c, 0, 64, 47
1, 331609, Control_c, 0, 64, 31
1, 331623, Control_c, 0, 64, 0
1, 331690, Control_c, 0, 64, 35
1, 331705, Control_c, 0, 64, 47
1, 331706, Note_off_c, 0, 70, 39
1, 331720, Control_c, 0, 64, 57
1, 331735, Control_c, 0, 64, 64
1, 331749, Control_c, 0, 64, 71
1, 331756, Note_off_c, 0, 35, 57
1, 331764, Control_c, 0, 64, 79
1, 331779, Control_c, 0, 64, 90
1, 331794, Control_c, 0, 64, 98
1, 331809, Control_c, 0, 64, 108
1, 331823, Control_c, 0, 64, 127
1, 331850, Note_off_c, 0, 47, 60
1, 332231, Note_on_c, 0, 51, 47
1, 332737, Note_on_c, 0, 71, 64
1, 332760, Note_on_c, 0, 54, 44
1, 332947, Note_off_c, 0, 51, 34
1, 333066, Note_off_c, 0, 54, 54
1, 333124, Note_off_c, 0, 73, 38
1, 333141, Note_on_c, 0, 59, 42
1, 333353, Note_off_c, 0, 59, 37
1, 333482, Note_on_c, 0, 70, 67
1, 333516, Note_on_c, 0, 54, 37
1, 333803, Note_on_c, 0, 59, 43
1, 333844, Note_off_c, 0, 75, 24
1, 333900, Note_off_c, 0, 71, 52
1, 334082, Note_on_c, 0, 63, 42
1, 334115, Poly_aftertouch_c, 0, 76, 127
1, 334138, Note_off_c, 0, 59, 33
1, 334196, Note_off_c, 0, 63, 55
1, 334237, Note_off_c, 0, 54, 34
1, 334391, Note_on_c, 0, 68, 55
1, 334532, Note_off_c, 0, 70, 59
1, 334534, Note_off_c, 0, 78, 33
1, 334568, Note_off_c, 0, 68, 53
1, 334575, Note_on_c, 0, 47, 37
1, 334605, Poly_aftertouch_c, 0, 76, 0
1, 334687, Note_on_c, 0, 54, 33
1, 334726, Note_on_c, 0, 68, 46
1, 334812, Note_on_c, 0, 73, 47
1, 334874, Note_on_c, 0, 76, 48
1, 334893, Control_c, 0, 64, 117
1, 334908, Control_c, 0, 64, 105
1, 334923, Control_c, 0, 64, 96
1, 334938, Control_c, 0, 64, 87
1, 334953, Control_c, 0, 64, 79
1, 334967, Control_c, 0, 64, 70
1, 334982, Control_c, 0, 64, 61
1, 334996, Note_on_c, 0, 78, 35
1, 334997, Control_c, 0, 64, 52
1, 335012, Control_c, 0, 64, 39
1, 335027, Control_c, 0, 64, 0
1, 335072, Control_c, 0, 64, 29
1, 335086, Control_c, 0, 64, 39
1, 335101, Control_c, 0, 64, 51
1, 335116, Control_c, 0, 64, 61
1, 335131, Control_c, 0, 64, 69
1, 335146, Control_c, 0, 64, 77
1, 335160, Control_c, 0, 64, 85
1, 335175, Control_c, 0, 64, 91
1, 335185, Note_off_c, 0, 47, 36
1, 335190, Control_c, 0, 64, 96
1, 335205, Control_c, 0, 64, 104
1, 335206, Note_off_c, 0, 54, 36
1, 335220, Control_c, 0, 64, 119
1, 335234, Control_c, 0, 64, 127
1, 335346, Note_on_c, 0, 61, 42
1, 335355, Note_off_c, 0, 68, 38
1, 335419, Note_off_c, 0, 61, 60
1, 335651, Note_on_c, 0, 66, 47
1, 335680, Note_on_c, 0, 64, 31
1, 335786, Note_off_c, 0, 64, 53
1, 335951, Note_on_c, 0, 71, 45
1, 335970, Note_off_c, 0, 78, 30
1, 335981, Note_off_c, 0, 66, 31
1, 336103, Note_off_c, 0, 71, 52
1, 336140, Note_off_c, 0, 76, 37
1, 336327, Note_on_c, 0, 79, 55
1, 336348, Note_on_c, 0, 70, 42
1, 336378, Note_on_c, 0, 67, 42
1, 336478, Note_off_c, 0, 70, 54
1, 336608, Note_off_c, 0, 73, 45
1, 336676, Note_off_c, 0, 67, 58
1, 336761, Note_on_c, 0, 64, 44
1, 336868, Note_on_c, 0, 80, 71
1, 336914, Note_on_c, 0, 68, 38
1, 336949, Note_off_c, 0, 79, 63
1, 337057, Note_off_c, 0, 64, 28
1, 337075, Note_off_c, 0, 68, 52
1, 337078, Note_on_c, 0, 61, 42
1, 337169, Control_c, 0, 67, 120
1, 337184, Control_c, 0, 67, 112
1, 337185, Note_off_c, 0, 61, 48
1, 337199, Control_c, 0, 67, 106
1, 337214, Control_c, 0, 67, 102
1, 337229, Control_c, 0, 67, 96
1, 337234, Note_on_c, 0, 82, 66
1, 337243, Control_c, 0, 67, 92
1, 337249, Note_on_c, 0, 70, 58
1, 337258, Control_c, 0, 67, 89
1, 337273, Control_c, 0, 67, 87
1, 337287, Control_c, 0, 67, 86
1, 337332, Control_c, 0, 67, 85
1, 337341, Note_off_c, 0, 70, 59
1, 337388, Note_on_c, 0, 54, 35
1, 337409, Note_off_c, 0, 82, 57
1, 337436, Control_c, 0, 67, 86
1, 337448, Note_off_c, 0, 54, 57
1, 337451, Control_c, 0, 67, 88
1, 337465, Control_c, 0, 67, 91
1, 337480, Control_c, 0, 67, 95
1, 337495, Control_c, 0, 67, 99
1, 337510, Control_c, 0, 67, 103
1, 337513, Note_on_c, 0, 73, 55
1, 337525, Control_c, 0, 67, 107
1, 337540, Control_c, 0, 67, 112
1, 337554, Control_c, 0, 67, 116
1, 337569, Control_c, 0, 67, 120
1, 337584, Control_c, 0, 67, 127
1, 337648, Note_on_c, 0, 75, 57
1, 337778, Note_on_c, 0, 78, 53
1, 337807, Note_off_c, 0, 80, 44
1, 338011, Note_on_c, 0, 85, 69
1, 338047, Note_on_c, 0, 47, 35
1, 338051, Control_c, 0, 64, 111
1, 338066, Control_c, 0, 64, 101
1, 338081, Control_c, 0, 64, 93
1, 338096, Control_c, 0, 64, 83
1, 338110, Control_c, 0, 64, 75
1, 338125, Control_c, 0, 64, 66
1, 338140, Control_c, 0, 64, 59
1, 338155, Control_c, 0, 64, 51
1, 338170, Control_c, 0, 64, 39
1, 338184, Control_c, 0, 64, 0
1, 338243, Control_c, 0, 64, 36
1, 338258, Control_c, 0, 64, 45
1, 338273, Control_c, 0, 64, 54
1, 338288, Control_c, 0, 64, 61
1, 338303, Control_c, 0, 64, 65
1, 338318, Control_c, 0, 64, 70
1, 338333, Control_c, 0, 64, 74
1, 338348, Control_c, 0, 64, 78
1, 338363, Control_c, 0, 64, 81
1, 338384, Control_c, 0, 64, 85
1, 338399, Control_c, 0, 64, 88
1, 338415, Control_c, 0, 64, 92
1, 338430, Control_c, 0, 64, 96
1, 338444, Control_c, 0, 64, 102
1, 338459, Control_c, 0, 64, 112
1, 338474, Control_c, 0, 64, 127
1, 338658, Note_off_c, 0, 85, 61
1, 338728, Note_off_c, 0, 73, 57
1, 338735, Note_on_c, 0, 51, 41
1, 338855, Note_off_c, 0, 47, 38
1, 339263, Note_on_c, 0, 83, 60
1, 339299, Note_on_c, 0, 71, 32
1, 339308, Note_on_c, 0, 63, 44
1, 339430, Note_off_c, 0, 51, 3
1, 339623, Note_off_c, 0, 75, 41
1, 339633, Note_off_c, 0, 78, 33
1, 339729, Note_off_c, 0, 63, 38
1, 339829, Note_off_c, 0, 71, 49
1, 339946, Note_on_c, 0, 66, 40
1, 340011, Note_off_c, 0, 66, 52
1, 340348, Note_on_c, 0, 85, 42
1, 340389, Note_on_c, 0, 73, 18
1, 340482, Note_off_c, 0, 83, 38
1, 340496, Note_off_c, 0, 85, 63
1, 340615, Note_on_c, 0, 35, 36
1, 340639, Note_off_c, 0, 73, 54
1, 340787, Note_on_c, 0, 47, 31
1, 340824, Control_c, 0, 64, 103
1, 340838, Control_c, 0, 64, 85
1, 340853, Control_c, 0, 64, 73
1, 340868, Control_c, 0, 64, 67
1, 340883, Control_c, 0, 64, 64
1, 340902, Note_on_c, 0, 68, 31
1, 340912, Control_c, 0, 64, 65
1, 340927, Control_c, 0, 64, 68
1, 340942, Control_c, 0, 64, 72
1, 340957, Control_c, 0, 64, 81
1, 340972, Control_c, 0, 64, 89
1, 340986, Control_c, 0, 64, 96
1, 341001, Control_c, 0, 64, 105
1, 341016, Control_c, 0, 64, 127
1, 341045, Note_on_c, 0, 75, 40
1, 341068, Note_off_c, 0, 68, 34
1, 341126, Note_off_c, 0, 47, 33
1, 341163, Note_off_c, 0, 75, 55
1, 341183, Note_on_c, 0, 80, 44
1, 341183, Note_off_c, 0, 35, 40
1, 341257, Note_off_c, 0, 80, 61
1, 341604, Note_on_c, 0, 87, 53
1, 342269, Poly_aftertouch_c, 0, 85, 127
1, 342384, Note_on_c, 0, 59, 32
1, 342426, Note_on_c, 0, 53, 34
1, 342699, Note_off_c, 0, 59, 42
1, 342711, Note_off_c, 0, 53, 29
1, 342727, Note_on_c, 0, 63, 25
1, 342881, Note_off_c, 0, 63, 36
1, 342897, Note_on_c, 0, 53, 18
1, 342904, Note_on_c, 0, 59, 37
1, 343012, Note_off_c, 0, 53, 38
1, 343013, Note_off_c, 0, 59, 54
1, 343031, Note_on_c, 0, 63, 37
1, 343114, Note_off_c, 0, 63, 52
1, 343173, Note_on_c, 0, 59, 26
1, 343188, Note_on_c, 0, 53, 4
1, 343219, Note_off_c, 0, 53, 0
1, 343233, Note_on_c, 0, 63, 37
1, 343234, Note_off_c, 0, 59, 44
1, 343245, Poly_aftertouch_c, 0, 53, 0
1, 343306, Note_off_c, 0, 63, 55
1, 343334, Note_on_c, 0, 59, 36
1, 343344, Note_on_c, 0, 53, 25
1, 343390, Note_off_c, 0, 53, 46
1, 343394, Note_off_c, 0, 59, 52
1, 343399, Note_on_c, 0, 63, 45
1, 343473, Note_off_c, 0, 63, 48
1, 343484, Note_on_c, 0, 53, 31
1, 343496, Note_on_c, 0, 59, 28
1, 343527, Note_off_c, 0, 53, 48
1, 343544, Note_off_c, 0, 59, 47
1, 343545, Note_on_c, 0, 63, 29
1, 343603, Note_off_c, 0, 63, 57
1, 343635, Note_on_c, 0, 53, 19
1, 343649, Note_on_c, 0, 59, 23
1, 343670, Note_off_c, 0, 53, 47
1, 343693, Note_off_c, 0, 59, 47
1, 343711, Note_on_c, 0, 63, 36
1, 343755, Note_off_c, 0, 63, 52
1, 343773, Note_on_c, 0, 59, 36
1, 343815, Note_off_c, 0, 59, 48
1, 343829, Note_on_c, 0, 63, 37
1, 343880, Note_off_c, 0, 63, 57
1, 343907, Note_on_c, 0, 59, 36
1, 343907, Poly_aftertouch_c, 0, 53, 127
1, 343943, Note_off_c, 0, 59, 49
1, 343954, Poly_aftertouch_c, 0, 53, 0
1, 343969, Note_on_c, 0, 63, 48
1, 344010, Note_on_c, 0, 53, 27
1, 344016, Poly_aftertouch_c, 0, 85, 0
1, 344019, Note_off_c, 0, 63, 55
1, 344035, Note_on_c, 0, 59, 39
1, 344059, Note_off_c, 0, 53, 55
1, 344073, Note_on_c, 0, 63, 48
1, 344077, Note_off_c, 0, 59, 47
1, 344127, Note_off_c, 0, 63, 58
1, 344134, Note_on_c, 0, 53, 32
1, 344141, Note_on_c, 0, 59, 45
1, 344169, Note_off_c, 0, 87, 58
1, 344175, Note_off_c, 0, 53, 53
1, 344235, Note_on_c, 0, 63, 35
1, 344267, Note_off_c, 0, 63, 50
1, 344321, Note_on_c, 0, 63, 47
1, 344322, Poly_aftertouch_c, 0, 53, 127
1, 344380, Note_off_c, 0, 63, 55
1, 344450, Note_on_c, 0, 63, 54
1, 344476, Poly_aftertouch_c, 0, 53, 0
1, 344491, Note_on_c, 0, 53, 37
1, 344506, Note_off_c, 0, 63, 56
1, 344548, Note_off_c, 0, 53, 57
1, 344568, Note_on_c, 0, 63, 51
1, 344621, Note_on_c, 0, 53, 42
1, 344629, Note_off_c, 0, 63, 56
1, 344658, Note_off_c, 0, 53, 62
1, 344679, Note_on_c, 0, 63, 44
1, 344717, Note_off_c, 0, 59, 0
1, 344742, Note_on_c, 0, 59, 22
1, 344745, Note_off_c, 0, 63, 59
1, 344746, Note_on_c, 0, 53, 59
1, 344784, Note_off_c, 0, 53, 60
1, 344802, Note_off_c, 0, 59, 59
1, 344803, Note_on_c, 0, 63, 46
1, 344867, Note_off_c, 0, 63, 58
1, 344873, Note_on_c, 0, 53, 51
1, 344894, Note_on_c, 0, 59, 19
1, 344903, Note_off_c, 0, 53, 65
1, 344927, Note_on_c, 0, 63, 46
1, 344930, Note_off_c, 0, 59, 54
1, 344990, Note_on_c, 0, 81, 84
1, 344998, Note_off_c, 0, 63, 52
1, 345001, Note_on_c, 0, 53, 50
1, 345042, Note_off_c, 0, 53, 56
1, 345043, Note_on_c, 0, 59, 39
1, 345043, Note_on_c, 0, 69, 42
1, 345066, Note_on_c, 0, 63, 34
1, 345075, Note_off_c, 0, 59, 52
1, 345154, Note_off_c, 0, 63, 54
1, 345163, Note_on_c, 0, 53, 29
1, 345183, Note_on_c, 0, 59, 38
1, 345195, Note_off_c, 0, 53, 47
1, 345211, Note_on_c, 0, 63, 42
1, 345217, Note_off_c, 0, 59, 51
1, 345272, Note_off_c, 0, 63, 58
1, 345304, Note_on_c, 0, 53, 30
1, 345316, Note_on_c, 0, 59, 36
1, 345334, Note_off_c, 0, 53, 46
1, 345344, Note_off_c, 0, 59, 55
1, 345350, Note_on_c, 0, 63, 55
1, 345396, Note_off_c, 0, 63, 55
1, 345441, Note_on_c, 0, 53, 38
1, 345549, Note_off_c, 0, 69, 50
1, 345586, Note_on_c, 0, 59, 48
1, 345613, Note_off_c, 0, 53, 0
1, 345627, Note_on_c, 0, 53, 30
1, 345639, Note_off_c, 0, 59, 58
1, 345689, Note_off_c, 0, 53, 60
1, 345786, Note_off_c, 0, 81, 31
1, 345800, Note_on_c, 0, 70, 55
1, 345937, Note_on_c, 0, 76, 64
1, 345980, Note_on_c, 0, 35, 45
1, 346014, Note_off_c, 0, 70, 49
1, 346079, Note_on_c, 0, 79, 54
1, 346095, Control_c, 0, 64, 90
1, 346110, Control_c, 0, 64, 73
1, 346124, Control_c, 0, 64, 63
1, 346139, Control_c, 0, 64, 58
1, 346154, Control_c, 0, 64, 58
1, 346161, Note_off_c, 0, 76, 48
1, 346168, Control_c, 0, 64, 59
1, 346183, Control_c, 0, 64, 62
1, 346198, Control_c, 0, 64, 68
1, 346211, Note_on_c, 0, 48, 10
1, 346213, Control_c, 0, 64, 77
1, 346214, Note_on_c, 0, 82, 65
1, 346215, Note_on_c, 0, 47, 11
1, 346228, Control_c, 0, 64, 94
1, 346242, Control_c, 0, 64, 127
1, 346244, Note_off_c, 0, 48, 0
1, 346261, Poly_aftertouch_c, 0, 48, 0
1, 346295, Note_off_c, 0, 79, 35
1, 346394, Note_off_c, 0, 47, 43
1, 346396, Note_off_c, 0, 35, 35
1, 346405, Control_c, 0, 67, 113
1, 346420, Control_c, 0, 67, 106
1, 346531, Note_on_c, 0, 88, 75
1, 346568, Control_c, 0, 67, 109
1, 346583, Control_c, 0, 67, 111
1, 346598, Control_c, 0, 67, 113
1, 346613, Control_c, 0, 67, 116
1, 346635, Control_c, 0, 67, 119
1, 346650, Control_c, 0, 67, 124
1, 346665, Control_c, 0, 67, 127
1, 346744, Note_off_c, 0, 82, 29
1, 347065, Note_on_c, 0, 55, 25
1, 347078, Note_on_c, 0, 52, 34
1, 347195, Note_off_c, 0, 52, 34
1, 347207, Note_on_c, 0, 64, 43
1, 347216, Note_off_c, 0, 55, 33
1, 347302, Note_off_c, 0, 88, 45
1, 347327, Note_off_c, 0, 64, 39
1, 347353, Note_on_c, 0, 52, 26
1, 347399, Poly_aftertouch_c, 0, 55, 127
1, 347401, Note_off_c, 0, 52, 51
1, 347431, Note_on_c, 0, 64, 49
1, 347440, Poly_aftertouch_c, 0, 55, 0
1, 347498, Note_off_c, 0, 64, 52
1, 347521, Note_on_c, 0, 52, 35
1, 347556, Note_on_c, 0, 55, 5
1, 347568, Note_off_c, 0, 52, 47
1, 347580, Note_on_c, 0, 64, 44
1, 347646, Note_off_c, 0, 64, 48
1, 347666, Note_off_c, 0, 55, 0
1, 347696, Note_on_c, 0, 52, 31
1, 347702, Poly_aftertouch_c, 0, 55, 127
1, 347732, Note_on_c, 0, 64, 31
1, 347742, Note_off_c, 0, 52, 41
1, 347776, Poly_aftertouch_c, 0, 55, 0
1, 347801, Note_off_c, 0, 64, 53
1, 347812, Poly_aftertouch_c, 0, 55, 127
1, 347872, Note_on_c, 0, 83, 69
1, 347877, Note_on_c, 0, 64, 41
1, 347890, Note_on_c, 0, 71, 51
1, 347901, Poly_aftertouch_c, 0, 52, 0
1, 347926, Poly_aftertouch_c, 0, 55, 0
1, 347960, Note_off_c, 0, 64, 49
1, 347963, Poly_aftertouch_c, 0, 55, 127
1, 348018, Poly_aftertouch_c, 0, 52, 127
1, 348024, Note_on_c, 0, 64, 30
1, 348067, Poly_aftertouch_c, 0, 55, 0
1, 348104, Poly_aftertouch_c, 0, 52, 0
1, 348104, Poly_aftertouch_c, 0, 55, 127
1, 348149, Poly_aftertouch_c, 0, 52, 127
1, 348155, Note_off_c, 0, 64, 0
1, 348174, Note_on_c, 0, 64, 30
1, 348193, Poly_aftertouch_c, 0, 52, 0
1, 348234, Poly_aftertouch_c, 0, 55, 0
1, 348271, Poly_aftertouch_c, 0, 55, 127
1, 348289, Note_on_c, 0, 52, 34
1, 348322, Note_off_c, 0, 64, 0
1, 348331, Note_off_c, 0, 52, 49
1, 348340, Note_on_c, 0, 64, 33
1, 348418, Poly_aftertouch_c, 0, 55, 0
1, 348455, Poly_aftertouch_c, 0, 55, 127
1, 348456, Note_off_c, 0, 64, 0
1, 348477, Note_on_c, 0, 64, 25
1, 348495, Poly_aftertouch_c, 0, 52, 127
1, 348557, Poly_aftertouch_c, 0, 52, 0
1, 348594, Note_off_c, 0, 64, 0
1, 348594, Poly_aftertouch_c, 0, 52, 127
1, 348614, Note_on_c, 0, 64, 28
1, 348635, Poly_aftertouch_c, 0, 52, 0
1, 348721, Note_on_c, 0, 52, 21
1, 348742, Note_off_c, 0, 64, 0
1, 348760, Note_off_c, 0, 52, 51
1, 348761, Note_on_c, 0, 64, 28
1, 348854, Note_on_c, 0, 52, 35
1, 348903, Note_off_c, 0, 52, 47
1, 348909, Note_off_c, 0, 64, 0
1, 348909, Note_on_c, 0, 64, 3
1, 348996, Note_on_c, 0, 52, 35
1, 349030, Note_off_c, 0, 64, 0
1, 349030, Note_on_c, 0, 64, 5
1, 349047, Note_off_c, 0, 52, 45
1, 349154, Note_on_c, 0, 52, 6
1, 349176, Note_off_c, 0, 71, 38
1, 349224, Note_off_c, 0, 52, 40
1, 349305, Poly_aftertouch_c, 0, 52, 127
1, 349306, Note_on_c, 0, 52, 3
1, 349353, Note_off_c, 0, 52, 44
1, 349371, Poly_aftertouch_c, 0, 55, 0
1, 349408, Poly_aftertouch_c, 0, 55, 127
1, 349466, Poly_aftertouch_c, 0, 52, 127
1, 349514, Poly_aftertouch_c, 0, 52, 0
1, 349543, Poly_aftertouch_c, 0, 55, 0
1, 349565, Note_on_c, 0, 55, 16
1, 349574, Note_on_c, 0, 52, 11
1, 349609, Note_off_c, 0, 64, 0
1, 349640, Note_on_c, 0, 64, 23
1, 349645, Note_off_c, 0, 52, 41
1, 349698, Note_off_c, 0, 55, 0
1, 349717, Note_on_c, 0, 55, 21
1, 349751, Poly_aftertouch_c, 0, 52, 127
1, 349779, Note_off_c, 0, 64, 0
1, 349797, Poly_aftertouch_c, 0, 52, 0
1, 349806, Note_on_c, 0, 64, 7
1, 349837, Note_off_c, 0, 55, 0
1, 349862, Note_on_c, 0, 55, 8
1, 349878, Note_on_c, 0, 52, 28
1, 349914, Note_off_c, 0, 64, 0
1, 349922, Note_off_c, 0, 52, 51
1, 349937, Note_off_c, 0, 55, 40
1, 349943, Note_on_c, 0, 64, 20
1, 350017, Note_off_c, 0, 64, 41
1, 350018, Note_on_c, 0, 55, 23
1, 350060, Poly_aftertouch_c, 0, 52, 127
1, 350061, Note_on_c, 0, 52, 3
1, 350087, Note_off_c, 0, 55, 41
1, 350103, Note_on_c, 0, 64, 27
1, 350106, Note_on_c, 0, 85, 52
1, 350107, Note_off_c, 0, 52, 45
1, 350128, Note_on_c, 0, 73, 36
1, 350173, Note_off_c, 0, 64, 39
1, 350197, Note_on_c, 0, 52, 19
1, 350209, Poly_aftertouch_c, 0, 55, 127
1, 350212, Note_off_c, 0, 83, 39
1, 350239, Note_on_c, 0, 64, 29
1, 350258, Note_off_c, 0, 52, 41
1, 350304, Poly_aftertouch_c, 0, 55, 0
1, 350313, Note_off_c, 0, 64, 41
1, 350319, Note_on_c, 0, 52, 17
1, 350321, Note_on_c, 0, 55, 28
1, 350384, Note_off_c, 0, 52, 45
1, 350392, Note_on_c, 0, 64, 29
1, 350455, Note_off_c, 0, 55, 0
1, 350492, Poly_aftertouch_c, 0, 55, 127
1, 350495, Note_on_c, 0, 52, 21
1, 350531, Note_off_c, 0, 64, 0
1, 350546, Note_off_c, 0, 52, 47
1, 350568, Poly_aftertouch_c, 0, 64, 127
1, 350587, Poly_aftertouch_c, 0, 55, 0
1, 350623, Poly_aftertouch_c, 0, 55, 127
1, 350647, Note_on_c, 0, 52, 19
1, 350668, Poly_aftertouch_c, 0, 64, 0
1, 350692, Note_off_c, 0, 52, 48
1, 350704, Poly_aftertouch_c, 0, 64, 127
1, 350711, Note_on_c, 0, 64, 3
1, 350764, Poly_aftertouch_c, 0, 55, 0
1, 350801, Poly_aftertouch_c, 0, 55, 127
1, 350829, Poly_aftertouch_c, 0, 52, 127
1, 350840, Note_off_c, 0, 64, 0
1, 350874, Poly_aftertouch_c, 0, 52, 0
1, 350877, Poly_aftertouch_c, 0, 64, 127
1, 350926, Note_off_c, 0, 73, 34
1, 350957, Poly_aftertouch_c, 0, 64, 0
1, 350982, Note_on_c, 0, 64, 10
1, 351064, Note_off_c, 0, 64, 41
1, 351118, Note_off_c, 0, 85, 50
1, 351196, Poly_aftertouch_c, 0, 52, 127
1, 351275, Poly_aftertouch_c, 0, 55, 0
1, 351351, Poly_aftertouch_c, 0, 52, 0
1, 351395, Note_on_c, 0, 75, 26
1, 351649, Note_on_c, 0, 83, 40
1, 351890, Note_on_c, 0, 87, 44
1, 352360, Note_on_c, 0, 90, 51
1, 352379, Note_on_c, 0, 35, 36
1, 352412, Control_c, 0, 64, 107
1, 352427, Control_c, 0, 64, 93
1, 352442, Control_c, 0, 64, 81
1, 352450, Poly_aftertouch_c, 0, 85, 127
1, 352456, Control_c, 0, 64, 69
1, 352471, Control_c, 0, 64, 61
1, 352486, Control_c, 0, 64, 57
1, 352501, Control_c, 0, 64, 57
1, 352516, Control_c, 0, 64, 57
1, 352530, Control_c, 0, 64, 60
1, 352545, Control_c, 0, 64, 64
1, 352560, Control_c, 0, 64, 70
1, 352575, Control_c, 0, 64, 80
1, 352585, Poly_aftertouch_c, 0, 85, 0
1, 352590, Control_c, 0, 64, 94
1, 352611, Control_c, 0, 64, 107
1, 352626, Control_c, 0, 64, 127
1, 352784, Note_off_c, 0, 35, 36
1, 353000, Note_on_c, 0, 47, 31
1, 353203, Note_off_c, 0, 47, 40
1, 353384, Note_on_c, 0, 51, 39
1, 353408, Poly_aftertouch_c, 0, 85, 127
1, 353676, Note_on_c, 0, 54, 36
1, 353736, Note_off_c, 0, 51, 38
1, 353756, Note_off_c, 0, 54, 53
1, 353893, Note_on_c, 0, 59, 46
1, 353987, Note_off_c, 0, 59, 61
1, 354118, Note_on_c, 0, 63, 42
1, 354300, Note_on_c, 0, 66, 47
1, 354337, Note_off_c, 0, 63, 34
1, 354344, Note_off_c, 0, 75, 40
1, 354401, Note_off_c, 0, 66, 63
1, 354484, Note_on_c, 0, 71, 52
1, 354646, Note_off_c, 0, 71, 57
1, 354674, Note_on_c, 0, 75, 59
1, 354743, Note_off_c, 0, 75, 60
1, 354850, Note_on_c, 0, 71, 45
1, 354931, Note_off_c, 0, 71, 47
1, 355017, Note_on_c, 0, 66, 48
1, 355095, Note_off_c, 0, 66, 41
1, 355196, Note_on_c, 0, 63, 39
1, 355251, Note_off_c, 0, 63, 62
1, 355402, Note_on_c, 0, 59, 37
1, 355652, Note_on_c, 0, 54, 19
1, 355756, Note_off_c, 0, 59, 29
1, 355870, Note_on_c, 0, 51, 35
1, 356291, Note_on_c, 0, 47, 38
1, 356302, Control_c, 0, 64, 122
1, 356317, Control_c, 0, 64, 117
1, 356333, Control_c, 0, 64, 112
1, 356355, Control_c, 0, 64, 107
1, 356370, Control_c, 0, 64, 98
1, 356384, Control_c, 0, 64, 92
1, 356399, Control_c, 0, 64, 86
1, 356414, Control_c, 0, 64, 80
1, 356429, Control_c, 0, 64, 75
1, 356444, Control_c, 0, 64, 71
1, 356458, Control_c, 0, 64, 69
1, 356473, Control_c, 0, 64, 70
1, 356480, Note_off_c, 0, 54, 33
1, 356488, Control_c, 0, 64, 72
1, 356502, Control_c, 0, 64, 75
1, 356505, Note_off_c, 0, 51, 29
1, 356517, Control_c, 0, 64, 80
1, 356532, Control_c, 0, 64, 85
1, 356547, Control_c, 0, 64, 90
1, 356562, Control_c, 0, 64, 95
1, 356576, Control_c, 0, 64, 98
1, 356591, Control_c, 0, 64, 100
1, 356606, Control_c, 0, 64, 104
1, 356621, Control_c, 0, 64, 114
1, 356636, Control_c, 0, 64, 127
1, 357288, Note_on_c, 0, 54, 31
1, 357530, Note_off_c, 0, 47, 41
1, 357618, Note_off_c, 0, 54, 40
1, 357792, Note_on_c, 0, 59, 37
1, 357932, Note_off_c, 0, 59, 62
1, 358142, Note_on_c, 0, 63, 23
1, 358347, Note_on_c, 0, 66, 36
1, 358371, Note_off_c, 0, 83, 40
1, 358413, Note_off_c, 0, 90, 33
1, 358426, Poly_aftertouch_c, 0, 85, 0
1, 358430, Note_off_c, 0, 87, 38
1, 358553, Note_on_c, 0, 71, 34
1, 358757, Note_on_c, 0, 75, 34
1, 358977, Note_on_c, 0, 83, 42
1, 359043, Note_off_c, 0, 66, 23
1, 359070, Note_off_c, 0, 71, 23
1, 359259, Note_on_c, 0, 87, 31
1, 359450, Note_off_c, 0, 63, 17
1, 359747, Note_on_c, 0, 90, 29
1, 359839, Poly_aftertouch_c, 0, 85, 127
1, 361710, Note_on_c, 0, 35, 34
1, 361968, Control_c, 0, 64, 105
1, 361983, Control_c, 0, 64, 94
1, 361997, Control_c, 0, 64, 87
1, 362012, Control_c, 0, 64, 83
1, 362027, Control_c, 0, 64, 80
1, 362042, Control_c, 0, 64, 79
1, 362071, Control_c, 0, 64, 81
1, 362086, Control_c, 0, 64, 84
1, 362101, Control_c, 0, 64, 88
1, 362115, Control_c, 0, 64, 92
1, 362130, Control_c, 0, 64, 97
1, 362145, Control_c, 0, 64, 101
1, 362160, Control_c, 0, 64, 107
1, 362175, Control_c, 0, 64, 117
1, 362189, Control_c, 0, 64, 127
1, 362615, Note_on_c, 0, 47, 31
1, 362684, Note_off_c, 0, 35, 14
1, 362783, Note_off_c, 0, 47, 61
1, 363173, Note_on_c, 0, 54, 20
1, 363584, Note_on_c, 0, 59, 38
1, 363844, Note_off_c, 0, 75, 38
1, 363893, Note_on_c, 0, 63, 41
1, 363903, Note_off_c, 0, 83, 36
1, 363970, Poly_aftertouch_c, 0, 85, 0
1, 364076, Note_off_c, 0, 90, 28
1, 364091, Note_off_c, 0, 87, 25
1, 364215, Note_on_c, 0, 66, 36
1, 364610, Note_on_c, 0, 75, 33
1, 365048, Note_on_c, 0, 83, 38
1, 365628, Note_on_c, 0, 87, 26
1, 366892, Note_on_c, 0, 90, 27
1, 373606, Control_c, 0, 64, 120
1, 373621, Control_c, 0, 64, 115
1, 373636, Control_c, 0, 64, 112
1, 373651, Control_c, 0, 64, 108
1, 373666, Control_c, 0, 64, 105
1, 373680, Control_c, 0, 64, 102
1, 373695, Control_c, 0, 64, 100
1, 373710, Control_c, 0, 64, 97
1, 373725, Control_c, 0, 64, 94
1, 373740, Control_c, 0, 64, 92
1, 373755, Control_c, 0, 64, 89
1, 373770, Control_c, 0, 64, 86
1, 373785, Control_c, 0, 64, 83
1, 373800, Control_c, 0, 64, 81
1, 373814, Control_c, 0, 64, 78
1, 373829, Control_c, 0, 64, 76
1, 373844, Control_c, 0, 64, 74
1, 373859, Control_c, 0, 64, 72
1, 373874, Control_c, 0, 64, 70
1, 373888, Control_c, 0, 64, 69
1, 373904, Control_c, 0, 64, 69
1, 373919, Control_c, 0, 64, 68
1, 373934, Control_c, 0, 64, 68
1, 373964, Control_c, 0, 64, 67
1, 373993, Control_c, 0, 64, 67
1, 374008, Control_c, 0, 64, 66
1, 374037, Control_c, 0, 64, 66
1, 374082, Control_c, 0, 64, 65
1, 374096, Control_c, 0, 64, 65
1, 374126, Control_c, 0, 64, 64
1, 374170, Control_c, 0, 64, 64
1, 374200, Control_c, 0, 64, 63
1, 374259, Control_c, 0, 64, 63
1, 374326, Control_c, 0, 64, 62
1, 374429, Control_c, 0, 64, 62
1, 374667, Control_c, 0, 64, 61
1, 374801, Control_c, 0, 64, 61
1, 374949, Control_c, 0, 64, 60
1, 375052, Control_c, 0, 64, 60
1, 375133, Control_c, 0, 64, 59
1, 375192, Control_c, 0, 64, 59
1, 375236, Note_off_c, 0, 54, 8
1, 375237, Control_c, 0, 64, 58
1, 375266, Control_c, 0, 64, 58
1, 375311, Control_c, 0, 64, 57
1, 375341, Control_c, 0, 64, 57
1, 375344, Note_off_c, 0, 63, 10
1, 375385, Control_c, 0, 64, 56
1, 375391, Note_off_c, 0, 59, 34
1, 375415, Control_c, 0, 64, 56
1, 375431, Note_off_c, 0, 90, 32
1, 375445, Control_c, 0, 64, 55
1, 375489, Control_c, 0, 64, 55
1, 375520, Control_c, 0, 64, 54
1, 375549, Control_c, 0, 64, 54
1, 375578, Note_off_c, 0, 83, 19
1, 375579, Control_c, 0, 64, 53
1, 375594, Control_c, 0, 64, 53
1, 375608, Control_c, 0, 64, 52
1, 375612, Note_off_c, 0, 75, 17
1, 375623, Control_c, 0, 64, 52
1, 375638, Control_c, 0, 64, 51
1, 375653, Control_c, 0, 64, 51
1, 375668, Control_c, 0, 64, 50
1, 375670, Note_off_c, 0, 66, 16
1, 375682, Control_c, 0, 64, 50
1, 375697, Control_c, 0, 64, 49
1, 375712, Control_c, 0, 64, 49
1, 375742, Control_c, 0, 64, 48
1, 375771, Control_c, 0, 64, 48
1, 375800, Control_c, 0, 64, 47
1, 375815, Control_c, 0, 64, 47
1, 375853, Control_c, 0, 64, 46
1, 375868, Control_c, 0, 64, 46
1, 375897, Control_c, 0, 64, 45
1, 375912, Control_c, 0, 64, 45
1, 375942, Control_c, 0, 64, 44
1, 375971, Control_c, 0, 64, 44
1, 376000, Control_c, 0, 64, 43
1, 378967, Control_c, 0, 64, 44
1, 379269, Note_off_c, 0, 87, 1
1, 379627, Control_c, 0, 64, 44
1, 380465, Control_c, 0, 64, 44
1, 380494, Control_c, 0, 64, 43
1, 380509, Control_c, 0, 64, 43
1, 380524, Control_c, 0, 64, 42
1, 380538, Control_c, 0, 64, 41
1, 380553, Control_c, 0, 64, 40
1, 380568, Control_c, 0, 64, 38
1, 380583, Control_c, 0, 64, 36
1, 380583, Control_c, 0, 67, 116
1, 380597, Control_c, 0, 64, 33
1, 380597, Control_c, 0, 67, 105
1, 380612, Control_c, 0, 64, 31
1, 380612, Control_c, 0, 67, 93
1, 380627, Control_c, 0, 64, 0
1, 380627, Control_c, 0, 67, 78
1, 380642, Control_c, 0, 67, 65
1, 380657, Control_c, 0, 67, 51
1, 380671, Control_c, 0, 67, 37
1, 380686, Control_c, 0, 67, 0
1, 380686, End_track
0, 0, End_of_file
