0, 0, Header, 0, 1, 384
1, 0, Start_track
1, 0, Title_t, "Sonata Hob.XVI/24--Yukiko Sekino"
1, 0, Text_t, "2009 Piano-e-Competition audition round"
1, 0, Text_t, "captured January 2009"
1, 0, Text_t, "http://www.piano-e-competition.com/"
1, 0, Text_t, "File processed for distribution by software from Zenph Studios, Inc., http://www.zenph.com"
1, 0, Instrument_name_t, "Yamaha Disklavier Pro Mark IV concert grand piano, model DCFIIISM4PRO"
1, 0, Sequencer_specific, 39, 67, 113, 0, 1, 0, 1, 0, 83, 111, 110, 97, 116, 97, 72, 111, 98, 46, 88, 86, 73, 47, 50, 52, 89, 117, 107, 105, 107, 111, 32, 83, 101, 107, 105, 110, 111, 32, 32, 32
1, 0, Sequencer_specific, 6, 67, 113, 0, 0, 0, 69
1, 0, System_exclusive, 21, 67, 113, 126, 21, 0, 2, 2, 0, 3, 14, 1, 4, 1, 13, 13, 10, 11, 9, 2, 7, 247
1, 0, Sequencer_specific, 5, 67, 123, 12, 2, 1
1, 0, Tempo, 512820
1, 0, Time_signature, 4, 2, 24, 8
1, 0, System_exclusive, 5, 126, 127, 9, 1, 247
1, 1, System_exclusive, 8, 67, 16, 76, 0, 0, 126, 0, 247
1, 2, System_exclusive, 8, 67, 16, 76, 8, 9, 7, 1, 247
1, 3, Control_c, 0, 0, 0
1, 3, Control_c, 1, 0, 0
1, 3, Control_c, 2, 0, 0
1, 3, Control_c, 3, 0, 0
1, 3, Control_c, 4, 0, 0
1, 3, Control_c, 5, 0, 0
1, 3, Control_c, 6, 0, 0
1, 3, Control_c, 7, 0, 0
1, 3, Control_c, 8, 0, 0
1, 3, Control_c, 9, 0, 127
1, 3, Control_c, 10, 0, 0
1, 3, Control_c, 11, 0, 0
1, 3, Control_c, 12, 0, 0
1, 3, Control_c, 13, 0, 0
1, 3, Control_c, 14, 0, 0
1, 3, Control_c, 15, 0, 0
1, 4, Control_c, 0, 32, 0
1, 4, Control_c, 1, 32, 0
1, 4, Control_c, 2, 32, 0
1, 4, Control_c, 3, 32, 0
1, 4, Control_c, 4, 32, 0
1, 4, Control_c, 5, 32, 0
1, 4, Control_c, 6, 32, 0
1, 4, Control_c, 7, 32, 0
1, 4, Control_c, 8, 32, 0
1, 4, Control_c, 9, 32, 0
1, 4, Control_c, 10, 32, 0
1, 4, Control_c, 11, 32, 0
1, 4, Control_c, 12, 32, 0
1, 4, Control_c, 13, 32, 0
1, 4, Control_c, 14, 32, 0
1, 4, Control_c, 15, 32, 0
1, 5, Program_c, 0, 0
1, 5, Program_c, 1, 0
1, 5, Program_c, 2, 0
1, 5, Program_c, 3, 0
1, 5, Program_c, 4, 0
1, 5, Program_c, 5, 0
1, 5, Program_c, 6, 0
1, 5, Program_c, 7, 0
1, 5, Program_c, 8, 0
1, 5, Program_c, 9, 0
1, 5, Program_c, 10, 0
1, 5, Program_c, 11, 0
1, 5, Program_c, 12, 0
1, 5, Program_c, 13, 0
1, 5, Program_c, 14, 0
1, 5, Program_c, 15, 0
1, 6, Control_c, 0, 7, 100
1, 6, Control_c, 1, 7, 100
1, 6, Control_c, 2, 7, 100
1, 6, Control_c, 3, 7, 100
1, 6, Control_c, 4, 7, 100
1, 6, Control_c, 5, 7, 100
1, 6, Control_c, 6, 7, 100
1, 6, Control_c, 7, 7, 100
1, 6, Control_c, 8, 7, 100
1, 6, Control_c, 9, 7, 100
1, 6, Control_c, 10, 7, 100
1, 6, Control_c, 11, 7, 100
1, 6, Control_c, 12, 7, 100
1, 6, Control_c, 13, 7, 100
1, 6, Control_c, 14, 7, 100
1, 6, Control_c, 15, 7, 100
1, 117, Control_c, 0, 64, 7
1, 229, Control_c, 0, 64, 15
1, 341, Control_c, 0, 64, 22
1, 452, Control_c, 0, 64, 31
1, 564, Control_c, 0, 64, 37
1, 676, Control_c, 0, 64, 46
1, 787, Control_c, 0, 64, 52
1, 899, Control_c, 0, 64, 63
1, 1134, Note_on_c, 0, 81, 44
1, 1134, Control_c, 0, 64, 63
1, 1160, Note_off_c, 0, 81, 60
1, 1163, Control_c, 0, 64, 62
1, 1172, Note_on_c, 0, 83, 65
1, 1178, Control_c, 0, 64, 62
1, 1193, Control_c, 0, 64, 61
1, 1208, Control_c, 0, 64, 61
1, 1215, Note_off_c, 0, 83, 62
1, 1232, Note_on_c, 0, 81, 74
1, 1252, Control_c, 0, 64, 60
1, 1260, Note_off_c, 0, 81, 64
1, 1267, Control_c, 0, 64, 58
1, 1281, Control_c, 0, 64, 55
1, 1289, Note_on_c, 0, 80, 59
1, 1296, Control_c, 0, 64, 44
1, 1311, Control_c, 0, 64, 0
1, 1323, Note_off_c, 0, 80, 66
1, 1329, Note_on_c, 0, 81, 77
1, 1415, Control_c, 0, 64, 19
1, 1429, Control_c, 0, 64, 48
1, 1444, Control_c, 0, 64, 58
1, 1459, Control_c, 0, 64, 62
1, 1474, Control_c, 0, 64, 65
1, 1488, Control_c, 0, 64, 67
1, 1503, Control_c, 0, 64, 69
1, 1533, Control_c, 0, 64, 68
1, 1543, Note_off_c, 0, 81, 49
1, 1548, Control_c, 0, 64, 68
1, 1563, Control_c, 0, 64, 66
1, 1578, Control_c, 0, 64, 64
1, 1589, Note_on_c, 0, 86, 66
1, 1593, Control_c, 0, 64, 62
1, 1607, Control_c, 0, 64, 58
1, 1622, Control_c, 0, 64, 53
1, 1637, Control_c, 0, 64, 48
1, 1652, Control_c, 0, 64, 45
1, 1654, Note_off_c, 0, 86, 62
1, 1667, Control_c, 0, 64, 44
1, 1673, Note_on_c, 0, 81, 65
1, 1712, Control_c, 0, 64, 43
1, 1764, Control_c, 0, 64, 44
1, 1825, Note_on_c, 0, 62, 53
1, 1869, Note_off_c, 0, 62, 62
1, 1882, Control_c, 0, 64, 43
1, 1897, Control_c, 0, 64, 41
1, 1912, Control_c, 0, 64, 36
1, 1926, Control_c, 0, 64, 26
1, 1941, Control_c, 0, 64, 0
1, 1962, Note_on_c, 0, 66, 61
1, 1986, Note_off_c, 0, 66, 65
1, 2104, Note_on_c, 0, 78, 75
1, 2117, Note_on_c, 0, 62, 50
1, 2144, Note_off_c, 0, 62, 61
1, 2159, Note_off_c, 0, 78, 62
1, 2213, Note_off_c, 0, 81, 22
1, 2252, Note_on_c, 0, 79, 77
1, 2260, Note_on_c, 0, 64, 55
1, 2292, Note_off_c, 0, 64, 65
1, 2298, Note_off_c, 0, 79, 61
1, 2395, Note_on_c, 0, 76, 72
1, 2398, Note_on_c, 0, 61, 51
1, 2422, Note_off_c, 0, 76, 63
1, 2429, Note_off_c, 0, 61, 64
1, 2550, Note_on_c, 0, 78, 73
1, 2552, Note_on_c, 0, 62, 47
1, 2600, Note_off_c, 0, 62, 62
1, 2621, Note_off_c, 0, 78, 60
1, 2685, Note_on_c, 0, 74, 64
1, 2694, Note_on_c, 0, 54, 47
1, 2719, Note_off_c, 0, 74, 61
1, 2733, Note_off_c, 0, 54, 63
1, 2830, Note_on_c, 0, 76, 69
1, 2841, Note_on_c, 0, 55, 53
1, 2876, Note_off_c, 0, 76, 61
1, 2878, Note_off_c, 0, 55, 62
1, 2974, Note_on_c, 0, 73, 68
1, 2979, Note_on_c, 0, 57, 49
1, 3018, Note_off_c, 0, 57, 62
1, 3020, Note_off_c, 0, 73, 58
1, 3126, Note_on_c, 0, 74, 57
1, 3128, Note_on_c, 0, 50, 57
1, 3158, Note_off_c, 0, 50, 66
1, 3167, Note_off_c, 0, 74, 60
1, 3277, Note_on_c, 0, 69, 65
1, 3286, Note_on_c, 0, 66, 56
1, 3304, Note_off_c, 0, 69, 67
1, 3307, Note_off_c, 0, 66, 62
1, 3474, Note_on_c, 0, 67, 66
1, 3483, Note_on_c, 0, 71, 63
1, 3563, Note_off_c, 0, 71, 63
1, 3571, Note_on_c, 0, 73, 63
1, 3623, Note_off_c, 0, 73, 58
1, 3638, Note_on_c, 0, 74, 64
1, 3646, Control_c, 0, 64, 32
1, 3661, Control_c, 0, 64, 49
1, 3676, Control_c, 0, 64, 53
1, 3682, Note_off_c, 0, 74, 58
1, 3691, Control_c, 0, 64, 51
1, 3706, Control_c, 0, 64, 50
1, 3718, Note_on_c, 0, 71, 69
1, 3721, Control_c, 0, 64, 48
1, 3736, Control_c, 0, 64, 46
1, 3750, Control_c, 0, 64, 42
1, 3758, Note_off_c, 0, 71, 55
1, 3765, Control_c, 0, 64, 34
1, 3780, Control_c, 0, 64, 0
1, 3793, Note_off_c, 0, 67, 37
1, 3806, Note_on_c, 0, 69, 67
1, 3820, Note_on_c, 0, 66, 60
1, 3902, Note_off_c, 0, 66, 54
1, 3957, Note_on_c, 0, 62, 57
1, 3994, Note_off_c, 0, 62, 65
1, 4074, Note_off_c, 0, 69, 34
1, 4094, Note_on_c, 0, 64, 58
1, 4132, Note_off_c, 0, 64, 63
1, 4179, Note_on_c, 0, 69, 71
1, 4207, Note_off_c, 0, 69, 64
1, 4223, Note_on_c, 0, 57, 55
1, 4228, Note_on_c, 0, 67, 43
1, 4257, Note_off_c, 0, 67, 55
1, 4259, Note_off_c, 0, 57, 64
1, 4280, Poly_aftertouch_c, 0, 69, 127
1, 4294, Poly_aftertouch_c, 0, 69, 0
1, 4320, Note_on_c, 0, 67, 72
1, 4364, Note_off_c, 0, 67, 0
1, 4401, Poly_aftertouch_c, 0, 67, 127
1, 4418, Poly_aftertouch_c, 0, 67, 0
1, 4457, Note_on_c, 0, 62, 49
1, 4457, Note_on_c, 0, 66, 52
1, 4511, Note_off_c, 0, 62, 63
1, 4823, Note_off_c, 0, 66, 64
1, 4832, Control_c, 0, 64, 39
1, 4847, Control_c, 0, 64, 54
1, 4863, Control_c, 0, 64, 63
1, 4878, Control_c, 0, 64, 68
1, 4892, Control_c, 0, 64, 75
1, 4896, Note_on_c, 0, 50, 39
1, 4907, Control_c, 0, 64, 81
1, 4922, Control_c, 0, 64, 85
1, 4937, Control_c, 0, 64, 87
1, 4952, Control_c, 0, 64, 87
1, 4997, Control_c, 0, 64, 88
1, 5026, Control_c, 0, 64, 88
1, 5041, Control_c, 0, 64, 89
1, 5062, Note_off_c, 0, 50, 44
1, 5095, Note_on_c, 0, 81, 62
1, 5130, Note_off_c, 0, 81, 65
1, 5146, Note_on_c, 0, 83, 66
1, 5174, Control_c, 0, 64, 88
1, 5181, Note_off_c, 0, 83, 63
1, 5189, Control_c, 0, 64, 87
1, 5195, Note_on_c, 0, 81, 77
1, 5203, Control_c, 0, 64, 85
1, 5218, Control_c, 0, 64, 82
1, 5230, Note_off_c, 0, 81, 61
1, 5233, Control_c, 0, 64, 79
1, 5244, Note_on_c, 0, 80, 72
1, 5247, Control_c, 0, 64, 75
1, 5262, Control_c, 0, 64, 70
1, 5277, Control_c, 0, 64, 62
1, 5292, Control_c, 0, 64, 25
1, 5293, Note_off_c, 0, 80, 61
1, 5298, Note_on_c, 0, 81, 75
1, 5307, Control_c, 0, 64, 0
1, 5494, Note_off_c, 0, 81, 54
1, 5546, Note_on_c, 0, 86, 59
1, 5591, Note_off_c, 0, 86, 58
1, 5635, Note_on_c, 0, 81, 60
1, 5787, Note_on_c, 0, 62, 55
1, 5826, Note_off_c, 0, 62, 62
1, 5939, Note_on_c, 0, 66, 61
1, 5966, Note_off_c, 0, 66, 66
1, 6052, Note_off_c, 0, 81, 54
1, 6076, Note_on_c, 0, 78, 72
1, 6086, Note_on_c, 0, 62, 53
1, 6106, Note_off_c, 0, 78, 63
1, 6124, Note_off_c, 0, 62, 62
1, 6234, Note_on_c, 0, 64, 59
1, 6236, Note_on_c, 0, 79, 72
1, 6268, Note_off_c, 0, 64, 63
1, 6286, Note_off_c, 0, 79, 57
1, 6381, Note_on_c, 0, 76, 69
1, 6388, Note_on_c, 0, 57, 43
1, 6411, Note_off_c, 0, 76, 64
1, 6419, Note_off_c, 0, 57, 58
1, 6524, Note_on_c, 0, 62, 51
1, 6528, Note_on_c, 0, 78, 74
1, 6577, Note_off_c, 0, 62, 57
1, 6597, Note_off_c, 0, 78, 61
1, 6669, Note_on_c, 0, 74, 64
1, 6673, Note_on_c, 0, 66, 52
1, 6702, Note_off_c, 0, 74, 61
1, 6715, Note_off_c, 0, 66, 61
1, 6818, Note_on_c, 0, 76, 69
1, 6824, Note_on_c, 0, 67, 45
1, 6859, Note_off_c, 0, 67, 60
1, 6869, Note_off_c, 0, 76, 59
1, 6963, Note_on_c, 0, 73, 68
1, 6979, Note_on_c, 0, 64, 45
1, 7003, Note_off_c, 0, 73, 62
1, 7016, Note_off_c, 0, 64, 51
1, 7111, Note_on_c, 0, 74, 63
1, 7116, Note_on_c, 0, 66, 51
1, 7140, Note_off_c, 0, 74, 65
1, 7157, Note_off_c, 0, 66, 59
1, 7258, Note_on_c, 0, 78, 67
1, 7260, Note_on_c, 0, 62, 44
1, 7292, Note_off_c, 0, 78, 60
1, 7301, Note_off_c, 0, 62, 50
1, 7414, Note_on_c, 0, 79, 63
1, 7415, Note_on_c, 0, 64, 47
1, 7456, Note_off_c, 0, 64, 61
1, 7459, Note_off_c, 0, 79, 55
1, 7554, Note_on_c, 0, 61, 52
1, 7554, Note_on_c, 0, 76, 63
1, 7585, Note_off_c, 0, 76, 64
1, 7600, Note_off_c, 0, 61, 56
1, 7703, Note_on_c, 0, 81, 72
1, 7706, Note_on_c, 0, 66, 52
1, 7766, Note_off_c, 0, 66, 53
1, 7790, Note_off_c, 0, 81, 60
1, 7853, Note_on_c, 0, 62, 54
1, 7867, Note_on_c, 0, 78, 61
1, 7897, Note_off_c, 0, 62, 58
1, 7919, Note_off_c, 0, 78, 59
1, 8023, Note_on_c, 0, 67, 46
1, 8028, Note_on_c, 0, 83, 59
1, 8078, Note_off_c, 0, 67, 58
1, 8097, Note_off_c, 0, 83, 59
1, 8121, Note_on_c, 0, 79, 54
1, 8125, Control_c, 0, 64, 23
1, 8139, Control_c, 0, 64, 38
1, 8154, Control_c, 0, 64, 40
1, 8169, Control_c, 0, 64, 37
1, 8184, Control_c, 0, 64, 34
1, 8188, Note_on_c, 0, 76, 61
1, 8193, Note_off_c, 0, 79, 50
1, 8199, Control_c, 0, 64, 33
1, 8213, Control_c, 0, 64, 33
1, 8228, Control_c, 0, 64, 32
1, 8231, Note_off_c, 0, 76, 63
1, 8243, Control_c, 0, 64, 30
1, 8246, Note_on_c, 0, 74, 63
1, 8258, Control_c, 0, 64, 28
1, 8273, Control_c, 0, 64, 22
1, 8275, Note_off_c, 0, 74, 66
1, 8288, Control_c, 0, 64, 0
1, 8325, Note_on_c, 0, 67, 59
1, 8364, Note_off_c, 0, 67, 63
1, 8367, Note_on_c, 0, 69, 65
1, 8442, Note_on_c, 0, 73, 65
1, 8447, Note_off_c, 0, 69, 63
1, 8484, Note_off_c, 0, 73, 60
1, 8490, Note_on_c, 0, 76, 62
1, 8526, Note_off_c, 0, 76, 61
1, 8540, Note_on_c, 0, 81, 56
1, 8586, Note_off_c, 0, 81, 61
1, 8598, Note_on_c, 0, 85, 61
1, 8727, Note_off_c, 0, 85, 57
1, 8742, Note_on_c, 0, 86, 59
1, 8744, Note_on_c, 0, 66, 33
1, 8784, Control_c, 0, 64, 42
1, 8798, Control_c, 0, 64, 58
1, 8813, Control_c, 0, 64, 66
1, 8824, Note_off_c, 0, 86, 62
1, 8828, Control_c, 0, 64, 73
1, 8844, Control_c, 0, 64, 80
1, 8848, Note_off_c, 0, 66, 49
1, 8859, Control_c, 0, 64, 87
1, 8874, Control_c, 0, 64, 92
1, 8889, Control_c, 0, 64, 97
1, 8903, Control_c, 0, 64, 98
1, 8918, Control_c, 0, 64, 99
1, 8963, Control_c, 0, 64, 98
1, 9051, Control_c, 0, 64, 98
1, 9066, Control_c, 0, 64, 97
1, 9081, Control_c, 0, 64, 97
1, 9096, Control_c, 0, 64, 96
1, 9185, Control_c, 0, 64, 96
1, 9200, Control_c, 0, 64, 95
1, 9221, Control_c, 0, 64, 94
1, 9236, Control_c, 0, 64, 93
1, 9251, Control_c, 0, 64, 91
1, 9266, Control_c, 0, 64, 90
1, 9281, Control_c, 0, 64, 87
1, 9295, Control_c, 0, 64, 84
1, 9310, Control_c, 0, 64, 82
1, 9325, Control_c, 0, 64, 79
1, 9340, Control_c, 0, 64, 76
1, 9355, Control_c, 0, 64, 71
1, 9370, Control_c, 0, 64, 66
1, 9385, Control_c, 0, 64, 54
1, 9388, Note_on_c, 0, 67, 74
1, 9400, Control_c, 0, 64, 0
1, 9404, Note_on_c, 0, 61, 62
1, 9451, Note_off_c, 0, 61, 53
1, 9540, Note_on_c, 0, 45, 60
1, 9570, Note_off_c, 0, 45, 65
1, 9691, Note_on_c, 0, 57, 67
1, 9725, Note_off_c, 0, 57, 65
1, 9851, Note_on_c, 0, 61, 42
1, 9852, Note_on_c, 0, 64, 73
1, 9868, Note_off_c, 0, 67, 54
1, 9883, Note_off_c, 0, 61, 33
1, 9912, Note_off_c, 0, 64, 58
1, 10016, Note_on_c, 0, 62, 70
1, 10020, Note_on_c, 0, 66, 76
1, 10042, Note_off_c, 0, 62, 66
1, 10044, Control_c, 0, 64, 58
1, 10059, Control_c, 0, 64, 69
1, 10074, Control_c, 0, 64, 80
1, 10089, Control_c, 0, 64, 88
1, 10100, Note_off_c, 0, 66, 56
1, 10104, Control_c, 0, 64, 93
1, 10118, Control_c, 0, 64, 95
1, 10133, Control_c, 0, 64, 96
1, 10148, Control_c, 0, 64, 97
1, 10165, Note_on_c, 0, 74, 77
1, 10223, Note_off_c, 0, 74, 61
1, 10297, Control_c, 0, 64, 96
1, 10312, Control_c, 0, 64, 96
1, 10324, Note_on_c, 0, 73, 84
1, 10326, Control_c, 0, 64, 93
1, 10339, Note_on_c, 0, 67, 70
1, 10341, Control_c, 0, 64, 91
1, 10356, Control_c, 0, 64, 89
1, 10370, Control_c, 0, 64, 86
1, 10385, Control_c, 0, 64, 82
1, 10401, Control_c, 0, 64, 78
1, 10416, Control_c, 0, 64, 73
1, 10431, Control_c, 0, 64, 68
1, 10446, Control_c, 0, 64, 63
1, 10461, Control_c, 0, 64, 54
1, 10476, Control_c, 0, 64, 37
1, 10485, Note_on_c, 0, 45, 68
1, 10491, Control_c, 0, 64, 0
1, 10517, Note_off_c, 0, 45, 65
1, 10644, Note_on_c, 0, 57, 70
1, 10675, Note_off_c, 0, 57, 65
1, 10775, Note_off_c, 0, 67, 36
1, 10795, Note_on_c, 0, 61, 68
1, 10809, Note_on_c, 0, 76, 69
1, 10818, Note_off_c, 0, 73, 26
1, 10822, Note_off_c, 0, 61, 66
1, 10914, Note_off_c, 0, 76, 56
1, 10970, Note_on_c, 0, 62, 58
1, 10980, Note_on_c, 0, 74, 63
1, 10986, Control_c, 0, 64, 59
1, 10991, Note_off_c, 0, 62, 61
1, 10996, Note_on_c, 0, 66, 59
1, 11001, Control_c, 0, 64, 69
1, 11012, Note_off_c, 0, 74, 65
1, 11016, Control_c, 0, 64, 77
1, 11030, Note_off_c, 0, 66, 65
1, 11031, Control_c, 0, 64, 83
1, 11046, Control_c, 0, 64, 86
1, 11060, Control_c, 0, 64, 87
1, 11075, Control_c, 0, 64, 88
1, 11124, Note_on_c, 0, 62, 49
1, 11149, Control_c, 0, 64, 88
1, 11155, Note_off_c, 0, 62, 57
1, 11194, Control_c, 0, 64, 87
1, 11209, Control_c, 0, 64, 86
1, 11224, Control_c, 0, 64, 85
1, 11239, Control_c, 0, 64, 84
1, 11254, Control_c, 0, 64, 83
1, 11269, Control_c, 0, 64, 82
1, 11284, Control_c, 0, 64, 80
1, 11292, Note_on_c, 0, 67, 62
1, 11298, Note_on_c, 0, 61, 55
1, 11298, Control_c, 0, 64, 78
1, 11313, Control_c, 0, 64, 75
1, 11328, Control_c, 0, 64, 70
1, 11343, Control_c, 0, 64, 63
1, 11358, Control_c, 0, 64, 45
1, 11373, Control_c, 0, 64, 0
1, 11396, Note_off_c, 0, 61, 53
1, 11424, Note_on_c, 0, 45, 57
1, 11455, Note_off_c, 0, 45, 65
1, 11597, Note_on_c, 0, 57, 71
1, 11628, Note_off_c, 0, 57, 65
1, 11731, Note_off_c, 0, 67, 56
1, 11740, Note_on_c, 0, 61, 64
1, 11753, Note_on_c, 0, 64, 66
1, 11766, Note_off_c, 0, 61, 66
1, 11798, Note_off_c, 0, 64, 63
1, 11907, Note_on_c, 0, 62, 63
1, 11908, Note_on_c, 0, 66, 69
1, 11942, Control_c, 0, 64, 57
1, 11950, Note_off_c, 0, 62, 65
1, 11956, Control_c, 0, 64, 64
1, 11971, Control_c, 0, 64, 71
1, 11986, Control_c, 0, 64, 79
1, 12001, Control_c, 0, 64, 85
1, 12015, Control_c, 0, 64, 90
1, 12031, Control_c, 0, 64, 95
1, 12046, Control_c, 0, 64, 100
1, 12050, Note_off_c, 0, 66, 35
1, 12056, Note_on_c, 0, 74, 70
1, 12061, Control_c, 0, 64, 103
1, 12088, Note_off_c, 0, 74, 61
1, 12246, Control_c, 0, 64, 103
1, 12251, Note_on_c, 0, 79, 80
1, 12274, Note_on_c, 0, 73, 60
1, 12276, Control_c, 0, 64, 102
1, 12291, Control_c, 0, 64, 101
1, 12306, Control_c, 0, 64, 99
1, 12320, Control_c, 0, 64, 96
1, 12335, Control_c, 0, 64, 94
1, 12350, Control_c, 0, 64, 92
1, 12365, Control_c, 0, 64, 90
1, 12380, Control_c, 0, 64, 89
1, 12385, Note_on_c, 0, 45, 69
1, 12394, Control_c, 0, 64, 88
1, 12409, Control_c, 0, 64, 86
1, 12420, Note_off_c, 0, 45, 64
1, 12424, Control_c, 0, 64, 81
1, 12438, Control_c, 0, 64, 72
1, 12453, Control_c, 0, 64, 57
1, 12468, Control_c, 0, 64, 0
1, 12549, Note_on_c, 0, 57, 71
1, 12580, Note_off_c, 0, 57, 65
1, 12644, Note_off_c, 0, 79, 52
1, 12685, Note_on_c, 0, 76, 75
1, 12694, Note_on_c, 0, 61, 62
1, 12722, Note_off_c, 0, 61, 65
1, 12722, Note_off_c, 0, 73, 61
1, 12734, Note_off_c, 0, 76, 59
1, 12840, Note_on_c, 0, 78, 71
1, 12844, Note_on_c, 0, 62, 58
1, 12850, Note_on_c, 0, 69, 61
1, 12877, Note_off_c, 0, 62, 63
1, 12887, Note_off_c, 0, 78, 57
1, 12893, Note_off_c, 0, 69, 59
1, 13007, Note_on_c, 0, 66, 48
1, 13010, Note_on_c, 0, 74, 60
1, 13038, Note_off_c, 0, 66, 64
1, 13045, Note_off_c, 0, 74, 62
1, 13183, Note_on_c, 0, 73, 60
1, 13191, Note_on_c, 0, 67, 35
1, 13202, Control_c, 0, 64, 42
1, 13217, Control_c, 0, 64, 53
1, 13225, Note_off_c, 0, 73, 58
1, 13232, Control_c, 0, 64, 61
1, 13247, Control_c, 0, 64, 65
1, 13261, Control_c, 0, 64, 70
1, 13275, Note_on_c, 0, 71, 59
1, 13276, Control_c, 0, 64, 74
1, 13291, Control_c, 0, 64, 76
1, 13306, Note_off_c, 0, 71, 65
1, 13306, Control_c, 0, 64, 77
1, 13352, Note_on_c, 0, 83, 67
1, 13373, Note_off_c, 0, 67, 57
1, 13425, Control_c, 0, 64, 77
1, 13427, Note_on_c, 0, 81, 69
1, 13427, Note_off_c, 0, 83, 60
1, 13440, Control_c, 0, 64, 75
1, 13455, Control_c, 0, 64, 74
1, 13469, Control_c, 0, 64, 71
1, 13484, Control_c, 0, 64, 67
1, 13499, Control_c, 0, 64, 61
1, 13507, Note_on_c, 0, 79, 62
1, 13514, Control_c, 0, 64, 48
1, 13516, Note_off_c, 0, 81, 60
1, 13529, Control_c, 0, 64, 19
1, 13543, Control_c, 0, 64, 0
1, 13579, Note_on_c, 0, 78, 72
1, 13579, Note_off_c, 0, 79, 60
1, 13625, Note_off_c, 0, 78, 63
1, 13652, Note_on_c, 0, 76, 70
1, 13678, Note_off_c, 0, 76, 66
1, 13732, Note_on_c, 0, 86, 70
1, 13802, Note_off_c, 0, 86, 63
1, 13805, Note_on_c, 0, 85, 81
1, 13886, Note_on_c, 0, 83, 70
1, 13894, Note_off_c, 0, 85, 63
1, 13942, Note_off_c, 0, 83, 62
1, 13944, Note_on_c, 0, 81, 78
1, 13978, Note_off_c, 0, 81, 62
1, 14026, Note_on_c, 0, 79, 77
1, 14043, Note_on_c, 0, 71, 63
1, 14080, Note_off_c, 0, 71, 62
1, 14092, Note_off_c, 0, 79, 54
1, 14157, Note_on_c, 0, 78, 72
1, 14167, Note_on_c, 0, 74, 57
1, 14181, Note_on_c, 0, 69, 49
1, 14577, Note_on_c, 0, 76, 56
1, 14584, Note_off_c, 0, 74, 60
1, 14590, Note_off_c, 0, 78, 55
1, 14607, Note_on_c, 0, 73, 45
1, 14685, Note_off_c, 0, 76, 57
1, 14715, Control_c, 0, 64, 22
1, 14729, Control_c, 0, 64, 57
1, 14744, Control_c, 0, 64, 68
1, 14759, Control_c, 0, 64, 79
1, 14774, Control_c, 0, 64, 93
1, 14789, Control_c, 0, 64, 107
1, 14795, Note_off_c, 0, 73, 62
1, 14804, Control_c, 0, 64, 120
1, 14819, Control_c, 0, 64, 122
1, 14841, Note_on_c, 0, 78, 63
1, 14864, Note_off_c, 0, 69, 45
1, 14892, Note_on_c, 0, 76, 73
1, 14894, Note_off_c, 0, 78, 59
1, 14932, Note_off_c, 0, 76, 63
1, 14937, Control_c, 0, 64, 121
1, 14940, Note_on_c, 0, 75, 76
1, 14952, Control_c, 0, 64, 115
1, 14966, Control_c, 0, 64, 109
1, 14981, Control_c, 0, 64, 102
1, 14992, Note_on_c, 0, 76, 86
1, 14994, Note_off_c, 0, 75, 64
1, 14996, Control_c, 0, 64, 97
1, 15011, Control_c, 0, 64, 92
1, 15026, Control_c, 0, 64, 87
1, 15040, Control_c, 0, 64, 80
1, 15055, Control_c, 0, 64, 74
1, 15070, Control_c, 0, 64, 68
1, 15085, Control_c, 0, 64, 58
1, 15100, Control_c, 0, 64, 41
1, 15114, Control_c, 0, 64, 10
1, 15129, Control_c, 0, 64, 0
1, 15248, Note_off_c, 0, 76, 40
1, 15261, Note_on_c, 0, 81, 70
1, 15325, Note_off_c, 0, 81, 60
1, 15353, Note_on_c, 0, 76, 73
1, 15505, Note_on_c, 0, 57, 63
1, 15545, Note_off_c, 0, 57, 61
1, 15661, Note_on_c, 0, 61, 66
1, 15692, Note_off_c, 0, 61, 62
1, 15777, Note_off_c, 0, 76, 53
1, 15800, Note_on_c, 0, 73, 72
1, 15806, Note_on_c, 0, 57, 56
1, 15847, Note_off_c, 0, 57, 62
1, 15856, Note_off_c, 0, 73, 60
1, 15965, Note_on_c, 0, 76, 75
1, 16039, Note_off_c, 0, 76, 61
1, 16046, Note_on_c, 0, 74, 68
1, 16108, Note_off_c, 0, 74, 63
1, 16113, Note_on_c, 0, 52, 59
1, 16115, Note_on_c, 0, 73, 72
1, 16142, Note_off_c, 0, 52, 65
1, 16172, Note_off_c, 0, 73, 61
1, 16188, Note_on_c, 0, 71, 69
1, 16214, Note_off_c, 0, 71, 68
1, 16290, Note_on_c, 0, 57, 57
1, 16294, Note_on_c, 0, 74, 66
1, 16364, Note_off_c, 0, 74, 60
1, 16371, Note_on_c, 0, 73, 66
1, 16391, Control_c, 0, 64, 41
1, 16405, Control_c, 0, 64, 55
1, 16420, Control_c, 0, 64, 64
1, 16435, Control_c, 0, 64, 72
1, 16450, Control_c, 0, 64, 82
1, 16453, Note_on_c, 0, 71, 71
1, 16458, Note_off_c, 0, 73, 57
1, 16465, Control_c, 0, 64, 91
1, 16479, Control_c, 0, 64, 95
1, 16480, Note_off_c, 0, 57, 58
1, 16494, Control_c, 0, 64, 95
1, 16506, Note_off_c, 0, 71, 64
1, 16524, Note_on_c, 0, 69, 68
1, 16552, Note_off_c, 0, 69, 69
1, 16584, Control_c, 0, 64, 95
1, 16598, Control_c, 0, 64, 93
1, 16611, Note_on_c, 0, 69, 81
1, 16613, Control_c, 0, 64, 91
1, 16628, Control_c, 0, 64, 88
1, 16643, Control_c, 0, 64, 85
1, 16658, Control_c, 0, 64, 80
1, 16672, Control_c, 0, 64, 75
1, 16687, Control_c, 0, 64, 69
1, 16688, Note_on_c, 0, 68, 74
1, 16693, Note_off_c, 0, 69, 65
1, 16709, Control_c, 0, 64, 63
1, 16724, Control_c, 0, 64, 54
1, 16739, Control_c, 0, 64, 45
1, 16754, Control_c, 0, 64, 40
1, 16761, Note_on_c, 0, 66, 79
1, 16768, Control_c, 0, 64, 37
1, 16783, Control_c, 0, 64, 35
1, 16790, Note_off_c, 0, 68, 63
1, 16798, Control_c, 0, 64, 34
1, 16822, Note_off_c, 0, 66, 64
1, 16828, Control_c, 0, 64, 35
1, 16843, Note_on_c, 0, 64, 70
1, 16843, Control_c, 0, 64, 36
1, 16858, Control_c, 0, 64, 38
1, 16872, Note_off_c, 0, 64, 67
1, 16873, Control_c, 0, 64, 37
1, 16888, Control_c, 0, 64, 0
1, 16925, Note_on_c, 0, 64, 80
1, 17002, Note_off_c, 0, 64, 64
1, 17005, Note_on_c, 0, 62, 75
1, 17007, Control_c, 0, 64, 10
1, 17022, Control_c, 0, 64, 42
1, 17036, Control_c, 0, 64, 49
1, 17066, Control_c, 0, 64, 48
1, 17068, Note_off_c, 0, 62, 59
1, 17077, Note_on_c, 0, 61, 75
1, 17081, Control_c, 0, 64, 47
1, 17125, Control_c, 0, 64, 48
1, 17132, Note_off_c, 0, 61, 63
1, 17140, Control_c, 0, 64, 48
1, 17147, Note_on_c, 0, 59, 70
1, 17155, Control_c, 0, 64, 49
1, 17170, Control_c, 0, 64, 48
1, 17176, Note_off_c, 0, 59, 65
1, 17184, Control_c, 0, 64, 44
1, 17199, Control_c, 0, 64, 21
1, 17214, Control_c, 0, 64, 0
1, 17245, Note_on_c, 0, 57, 72
1, 17362, Control_c, 0, 64, 18
1, 17377, Control_c, 0, 64, 32
1, 17397, Note_on_c, 0, 49, 62
1, 17406, Control_c, 0, 64, 30
1, 17421, Control_c, 0, 64, 29
1, 17433, Note_off_c, 0, 49, 61
1, 17436, Control_c, 0, 64, 29
1, 17503, Control_c, 0, 64, 29
1, 17558, Note_on_c, 0, 52, 59
1, 17561, Control_c, 0, 64, 30
1, 17576, Control_c, 0, 64, 31
1, 17591, Note_off_c, 0, 52, 64
1, 17591, Control_c, 0, 64, 31
1, 17637, Control_c, 0, 64, 32
1, 17644, Note_off_c, 0, 57, 51
1, 17681, Control_c, 0, 64, 32
1, 17696, Control_c, 0, 64, 33
1, 17701, Note_on_c, 0, 59, 64
1, 17711, Control_c, 0, 64, 34
1, 17719, Note_on_c, 0, 49, 51
1, 17726, Control_c, 0, 64, 36
1, 17740, Control_c, 0, 64, 37
1, 17755, Note_off_c, 0, 49, 63
1, 17759, Note_off_c, 0, 59, 61
1, 17770, Note_on_c, 0, 57, 68
1, 17785, Control_c, 0, 64, 34
1, 17800, Control_c, 0, 64, 17
1, 17803, Note_off_c, 0, 57, 65
1, 17815, Control_c, 0, 64, 0
1, 17854, Note_on_c, 0, 52, 55
1, 17869, Note_on_c, 0, 57, 71
1, 17889, Note_off_c, 0, 52, 64
1, 17918, Control_c, 0, 64, 31
1, 17919, Note_off_c, 0, 57, 62
1, 17932, Control_c, 0, 64, 49
1, 17933, Note_on_c, 0, 55, 75
1, 17947, Control_c, 0, 64, 50
1, 17976, Control_c, 0, 64, 50
1, 17988, Note_off_c, 0, 55, 57
1, 17991, Control_c, 0, 64, 49
1, 18006, Note_on_c, 0, 49, 57
1, 18006, Control_c, 0, 64, 48
1, 18020, Note_on_c, 0, 54, 69
1, 18021, Control_c, 0, 64, 48
1, 18044, Note_off_c, 0, 49, 63
1, 18081, Note_on_c, 0, 55, 77
1, 18081, Note_off_c, 0, 54, 63
1, 18095, Control_c, 0, 64, 47
1, 18110, Control_c, 0, 64, 46
1, 18114, Note_off_c, 0, 55, 64
1, 18125, Control_c, 0, 64, 45
1, 18140, Control_c, 0, 64, 41
1, 18155, Control_c, 0, 64, 32
1, 18169, Control_c, 0, 64, 0
1, 18191, Note_on_c, 0, 55, 62
1, 18350, Note_on_c, 0, 50, 59
1, 18385, Note_off_c, 0, 50, 67
1, 18489, Note_off_c, 0, 55, 56
1, 18517, Note_on_c, 0, 54, 64
1, 18519, Note_on_c, 0, 38, 51
1, 18555, Note_off_c, 0, 38, 62
1, 18563, Control_c, 0, 64, 12
1, 18578, Control_c, 0, 64, 19
1, 18593, Control_c, 0, 64, 24
1, 18607, Control_c, 0, 64, 32
1, 18622, Control_c, 0, 64, 37
1, 18637, Control_c, 0, 64, 40
1, 18652, Control_c, 0, 64, 42
1, 18667, Control_c, 0, 64, 42
1, 18669, Note_on_c, 0, 50, 61
1, 18696, Control_c, 0, 64, 41
1, 18703, Note_off_c, 0, 50, 65
1, 18711, Control_c, 0, 64, 41
1, 18726, Control_c, 0, 64, 40
1, 18755, Control_c, 0, 64, 39
1, 18762, Note_off_c, 0, 54, 56
1, 18770, Control_c, 0, 64, 38
1, 18785, Control_c, 0, 64, 37
1, 18799, Control_c, 0, 64, 36
1, 18814, Control_c, 0, 64, 34
1, 18825, Note_on_c, 0, 49, 64
1, 18829, Control_c, 0, 64, 31
1, 18837, Note_on_c, 0, 58, 59
1, 18844, Control_c, 0, 64, 29
1, 18859, Control_c, 0, 64, 26
1, 18869, Note_off_c, 0, 49, 61
1, 18888, Control_c, 0, 64, 28
1, 18903, Control_c, 0, 64, 32
1, 18918, Control_c, 0, 64, 37
1, 18933, Control_c, 0, 64, 41
1, 18955, Control_c, 0, 64, 44
1, 18970, Control_c, 0, 64, 47
1, 18985, Control_c, 0, 64, 49
1, 19000, Note_on_c, 0, 52, 60
1, 19000, Control_c, 0, 64, 51
1, 19014, Control_c, 0, 64, 51
1, 19035, Note_off_c, 0, 52, 63
1, 19055, Note_off_c, 0, 58, 58
1, 19074, Control_c, 0, 64, 51
1, 19088, Control_c, 0, 64, 50
1, 19103, Control_c, 0, 64, 50
1, 19118, Control_c, 0, 64, 49
1, 19132, Control_c, 0, 64, 48
1, 19147, Control_c, 0, 64, 48
1, 19157, Note_on_c, 0, 50, 61
1, 19162, Control_c, 0, 64, 47
1, 19170, Note_on_c, 0, 59, 62
1, 19177, Control_c, 0, 64, 46
1, 19192, Control_c, 0, 64, 45
1, 19242, Note_off_c, 0, 59, 61
1, 19259, Note_on_c, 0, 61, 66
1, 19267, Control_c, 0, 64, 44
1, 19296, Note_off_c, 0, 61, 66
1, 19296, Control_c, 0, 64, 44
1, 19311, Control_c, 0, 64, 43
1, 19326, Control_c, 0, 64, 43
1, 19340, Note_on_c, 0, 62, 66
1, 19341, Control_c, 0, 64, 42
1, 19356, Control_c, 0, 64, 42
1, 19371, Control_c, 0, 64, 41
1, 19377, Note_off_c, 0, 62, 59
1, 19418, Note_on_c, 0, 64, 70
1, 19445, Control_c, 0, 64, 40
1, 19460, Control_c, 0, 64, 34
1, 19466, Note_off_c, 0, 64, 63
1, 19475, Control_c, 0, 64, 21
1, 19490, Note_on_c, 0, 66, 73
1, 19490, Control_c, 0, 64, 0
1, 19519, Control_c, 0, 64, 24
1, 19534, Control_c, 0, 64, 36
1, 19548, Control_c, 0, 64, 45
1, 19560, Note_off_c, 0, 66, 58
1, 19563, Control_c, 0, 64, 49
1, 19579, Note_on_c, 0, 64, 63
1, 19593, Control_c, 0, 64, 48
1, 19608, Control_c, 0, 64, 47
1, 19622, Control_c, 0, 64, 46
1, 19624, Note_off_c, 0, 64, 62
1, 19637, Control_c, 0, 64, 45
1, 19651, Note_on_c, 0, 62, 65
1, 19652, Control_c, 0, 64, 45
1, 19667, Control_c, 0, 64, 44
1, 19686, Note_off_c, 0, 62, 63
1, 19734, Control_c, 0, 64, 44
1, 19741, Note_on_c, 0, 61, 60
1, 19778, Control_c, 0, 64, 42
1, 19793, Control_c, 0, 64, 27
1, 19800, Note_on_c, 0, 51, 56
1, 19805, Note_off_c, 0, 61, 48
1, 19808, Control_c, 0, 64, 0
1, 19815, Note_on_c, 0, 59, 67
1, 19825, Note_off_c, 0, 50, 50
1, 19857, Note_off_c, 0, 59, 63
1, 19888, Note_on_c, 0, 57, 61
1, 19922, Note_off_c, 0, 57, 64
1, 19941, Control_c, 0, 64, 32
1, 19955, Control_c, 0, 64, 52
1, 19961, Note_on_c, 0, 56, 68
1, 19970, Control_c, 0, 64, 61
1, 19985, Control_c, 0, 64, 64
1, 20000, Control_c, 0, 64, 67
1, 20015, Control_c, 0, 64, 67
1, 20027, Note_off_c, 0, 51, 46
1, 20032, Note_off_c, 0, 56, 59
1, 20034, Note_on_c, 0, 57, 67
1, 20046, Control_c, 0, 64, 67
1, 20060, Control_c, 0, 64, 66
1, 20062, Note_off_c, 0, 57, 66
1, 20075, Control_c, 0, 64, 65
1, 20090, Control_c, 0, 64, 64
1, 20105, Control_c, 0, 64, 63
1, 20120, Control_c, 0, 64, 60
1, 20128, Note_on_c, 0, 57, 64
1, 20135, Control_c, 0, 64, 52
1, 20150, Control_c, 0, 64, 21
1, 20165, Control_c, 0, 64, 0
1, 20285, Note_on_c, 0, 52, 60
1, 20322, Note_off_c, 0, 52, 63
1, 20432, Note_off_c, 0, 57, 51
1, 20468, Note_on_c, 0, 40, 47
1, 20486, Note_on_c, 0, 56, 47
1, 20508, Note_off_c, 0, 40, 52
1, 20624, Note_on_c, 0, 44, 56
1, 20669, Note_off_c, 0, 44, 58
1, 20777, Note_on_c, 0, 47, 57
1, 20805, Note_off_c, 0, 47, 63
1, 20879, Note_off_c, 0, 56, 59
1, 20933, Note_on_c, 0, 52, 59
1, 20965, Note_off_c, 0, 52, 64
1, 21098, Note_on_c, 0, 40, 59
1, 21132, Note_off_c, 0, 40, 61
1, 21165, Control_c, 0, 64, 62
1, 21180, Control_c, 0, 64, 69
1, 21202, Control_c, 0, 64, 77
1, 21217, Control_c, 0, 64, 84
1, 21228, Note_on_c, 0, 64, 44
1, 21232, Control_c, 0, 64, 90
1, 21247, Control_c, 0, 64, 95
1, 21257, Note_off_c, 0, 64, 55
1, 21262, Control_c, 0, 64, 99
1, 21276, Control_c, 0, 64, 100
1, 21300, Note_on_c, 0, 68, 48
1, 21347, Note_off_c, 0, 68, 62
1, 21350, Note_on_c, 0, 64, 61
1, 21380, Note_off_c, 0, 64, 66
1, 21448, Note_on_c, 0, 64, 75
1, 21469, Control_c, 0, 64, 100
1, 21475, Note_off_c, 0, 64, 68
1, 21484, Control_c, 0, 64, 98
1, 21499, Control_c, 0, 64, 95
1, 21514, Control_c, 0, 64, 92
1, 21528, Control_c, 0, 64, 87
1, 21543, Control_c, 0, 64, 82
1, 21544, Note_on_c, 0, 64, 66
1, 21558, Control_c, 0, 64, 77
1, 21573, Control_c, 0, 64, 71
1, 21588, Control_c, 0, 64, 65
1, 21599, Note_off_c, 0, 64, 63
1, 21602, Control_c, 0, 64, 57
1, 21617, Note_on_c, 0, 68, 64
1, 21617, Control_c, 0, 64, 45
1, 21633, Control_c, 0, 64, 36
1, 21648, Control_c, 0, 64, 33
1, 21689, Note_off_c, 0, 68, 51
1, 21714, Note_on_c, 0, 64, 29
1, 21722, Control_c, 0, 64, 35
1, 21737, Control_c, 0, 64, 37
1, 21752, Note_off_c, 0, 64, 48
1, 21752, Control_c, 0, 64, 40
1, 21752, Note_on_c, 0, 62, 74
1, 21767, Control_c, 0, 64, 41
1, 21781, Control_c, 0, 64, 40
1, 21796, Control_c, 0, 64, 40
1, 21811, Control_c, 0, 64, 40
1, 21812, Note_off_c, 0, 62, 63
1, 21825, Control_c, 0, 64, 42
1, 21834, Note_on_c, 0, 64, 65
1, 21840, Control_c, 0, 64, 45
1, 21855, Control_c, 0, 64, 47
1, 21870, Control_c, 0, 64, 48
1, 21885, Control_c, 0, 64, 49
1, 21891, Note_off_c, 0, 64, 63
1, 21914, Control_c, 0, 64, 48
1, 21922, Note_on_c, 0, 68, 56
1, 21951, Control_c, 0, 64, 48
1, 21988, Note_off_c, 0, 68, 59
1, 21996, Control_c, 0, 64, 48
1, 22006, Note_on_c, 0, 64, 46
1, 22011, Control_c, 0, 64, 49
1, 22025, Control_c, 0, 64, 50
1, 22034, Note_off_c, 0, 64, 56
1, 22040, Control_c, 0, 64, 52
1, 22055, Control_c, 0, 64, 52
1, 22081, Note_on_c, 0, 61, 70
1, 22085, Control_c, 0, 64, 49
1, 22099, Control_c, 0, 64, 39
1, 22114, Control_c, 0, 64, 0
1, 22143, Control_c, 0, 64, 27
1, 22149, Note_on_c, 0, 64, 49
1, 22158, Control_c, 0, 64, 48
1, 22162, Note_off_c, 0, 61, 55
1, 22173, Control_c, 0, 64, 59
1, 22188, Control_c, 0, 64, 63
1, 22203, Control_c, 0, 64, 66
1, 22213, Note_off_c, 0, 64, 60
1, 22218, Control_c, 0, 64, 68
1, 22232, Control_c, 0, 64, 69
1, 22235, Note_on_c, 0, 69, 58
1, 22292, Control_c, 0, 64, 69
1, 22294, Note_off_c, 0, 69, 56
1, 22307, Control_c, 0, 64, 70
1, 22319, Note_on_c, 0, 64, 49
1, 22322, Control_c, 0, 64, 68
1, 22337, Control_c, 0, 64, 64
1, 22343, Note_off_c, 0, 64, 60
1, 22351, Control_c, 0, 64, 55
1, 22366, Control_c, 0, 64, 42
1, 22380, Control_c, 0, 64, 48
1, 22395, Note_on_c, 0, 61, 63
1, 22395, Control_c, 0, 64, 55
1, 22410, Control_c, 0, 64, 60
1, 22426, Control_c, 0, 64, 62
1, 22441, Control_c, 0, 64, 63
1, 22443, Note_off_c, 0, 61, 55
1, 22455, Control_c, 0, 64, 63
1, 22468, Note_on_c, 0, 64, 46
1, 22470, Control_c, 0, 64, 61
1, 22485, Control_c, 0, 64, 59
1, 22500, Control_c, 0, 64, 57
1, 22515, Control_c, 0, 64, 55
1, 22522, Note_off_c, 0, 64, 64
1, 22544, Control_c, 0, 64, 55
1, 22561, Note_on_c, 0, 76, 66
1, 22588, Control_c, 0, 64, 55
1, 22603, Control_c, 0, 64, 56
1, 22604, Note_off_c, 0, 76, 62
1, 22618, Control_c, 0, 64, 56
1, 22647, Note_on_c, 0, 64, 50
1, 22647, Control_c, 0, 64, 55
1, 22662, Control_c, 0, 64, 50
1, 22677, Control_c, 0, 64, 21
1, 22679, Note_off_c, 0, 64, 59
1, 22700, Control_c, 0, 64, 0
1, 22725, Note_on_c, 0, 59, 58
1, 22773, Control_c, 0, 64, 24
1, 22781, Note_off_c, 0, 59, 55
1, 22788, Control_c, 0, 64, 52
1, 22795, Note_on_c, 0, 64, 54
1, 22803, Control_c, 0, 64, 57
1, 22818, Control_c, 0, 64, 59
1, 22849, Note_off_c, 0, 64, 61
1, 22862, Control_c, 0, 64, 58
1, 22877, Control_c, 0, 64, 58
1, 22882, Note_on_c, 0, 74, 59
1, 22919, Note_off_c, 0, 74, 60
1, 22936, Control_c, 0, 64, 58
1, 22957, Note_on_c, 0, 64, 52
1, 22993, Note_off_c, 0, 64, 66
1, 22996, Control_c, 0, 64, 58
1, 23010, Control_c, 0, 64, 56
1, 23025, Control_c, 0, 64, 47
1, 23040, Control_c, 0, 64, 0
1, 23049, Note_on_c, 0, 57, 53
1, 23100, Control_c, 0, 64, 19
1, 23105, Note_off_c, 0, 57, 57
1, 23114, Control_c, 0, 64, 51
1, 23130, Control_c, 0, 64, 61
1, 23137, Note_on_c, 0, 64, 46
1, 23145, Control_c, 0, 64, 65
1, 23159, Control_c, 0, 64, 70
1, 23174, Control_c, 0, 64, 73
1, 23180, Note_off_c, 0, 64, 61
1, 23189, Control_c, 0, 64, 74
1, 23205, Note_on_c, 0, 73, 59
1, 23247, Note_off_c, 0, 73, 59
1, 23287, Note_on_c, 0, 64, 48
1, 23294, Control_c, 0, 64, 74
1, 23309, Control_c, 0, 64, 73
1, 23317, Note_off_c, 0, 64, 60
1, 23323, Control_c, 0, 64, 72
1, 23338, Control_c, 0, 64, 71
1, 23353, Control_c, 0, 64, 70
1, 23368, Control_c, 0, 64, 68
1, 23381, Note_on_c, 0, 64, 52
1, 23383, Control_c, 0, 64, 64
1, 23397, Control_c, 0, 64, 60
1, 23408, Note_off_c, 0, 64, 59
1, 23412, Control_c, 0, 64, 53
1, 23427, Control_c, 0, 64, 49
1, 23449, Control_c, 0, 64, 48
1, 23473, Note_on_c, 0, 64, 57
1, 23478, Control_c, 0, 64, 48
1, 23511, Note_off_c, 0, 64, 61
1, 23541, Note_on_c, 0, 68, 60
1, 23597, Note_off_c, 0, 68, 55
1, 23606, Note_on_c, 0, 64, 59
1, 23634, Note_off_c, 0, 64, 65
1, 23642, Control_c, 0, 64, 48
1, 23657, Control_c, 0, 64, 43
1, 23671, Control_c, 0, 64, 33
1, 23685, Note_on_c, 0, 62, 69
1, 23686, Control_c, 0, 64, 0
1, 23716, Control_c, 0, 64, 13
1, 23730, Control_c, 0, 64, 35
1, 23744, Note_off_c, 0, 62, 55
1, 23745, Control_c, 0, 64, 46
1, 23760, Control_c, 0, 64, 54
1, 23762, Note_on_c, 0, 64, 60
1, 23775, Control_c, 0, 64, 58
1, 23790, Control_c, 0, 64, 59
1, 23799, Note_off_c, 0, 64, 62
1, 23804, Control_c, 0, 64, 58
1, 23819, Control_c, 0, 64, 57
1, 23830, Note_on_c, 0, 68, 62
1, 23834, Control_c, 0, 64, 56
1, 23849, Control_c, 0, 64, 56
1, 23864, Control_c, 0, 64, 55
1, 23875, Note_off_c, 0, 68, 58
1, 23908, Control_c, 0, 64, 56
1, 23911, Note_on_c, 0, 64, 55
1, 23937, Control_c, 0, 64, 56
1, 23944, Note_off_c, 0, 64, 65
1, 23967, Control_c, 0, 64, 55
1, 23982, Control_c, 0, 64, 51
1, 23991, Note_on_c, 0, 60, 56
1, 23997, Control_c, 0, 64, 38
1, 24012, Control_c, 0, 64, 0
1, 24057, Control_c, 0, 64, 24
1, 24070, Note_on_c, 0, 64, 53
1, 24072, Control_c, 0, 64, 46
1, 24087, Control_c, 0, 64, 56
1, 24101, Control_c, 0, 64, 59
1, 24109, Note_off_c, 0, 64, 63
1, 24116, Control_c, 0, 64, 60
1, 24146, Control_c, 0, 64, 59
1, 24149, Note_off_c, 0, 60, 37
1, 24164, Note_on_c, 0, 69, 49
1, 24213, Control_c, 0, 64, 60
1, 24219, Note_off_c, 0, 69, 60
1, 24227, Control_c, 0, 64, 60
1, 24245, Note_on_c, 0, 64, 39
1, 24257, Control_c, 0, 64, 60
1, 24272, Control_c, 0, 64, 58
1, 24276, Note_off_c, 0, 64, 60
1, 24287, Control_c, 0, 64, 53
1, 24301, Control_c, 0, 64, 34
1, 24316, Control_c, 0, 64, 0
1, 24323, Note_on_c, 0, 60, 52
1, 24331, Control_c, 0, 64, 10
1, 24346, Control_c, 0, 64, 33
1, 24361, Control_c, 0, 64, 47
1, 24376, Control_c, 0, 64, 56
1, 24391, Control_c, 0, 64, 60
1, 24394, Note_on_c, 0, 64, 50
1, 24403, Note_off_c, 0, 60, 54
1, 24405, Control_c, 0, 64, 61
1, 24435, Control_c, 0, 64, 61
1, 24444, Note_off_c, 0, 64, 63
1, 24450, Control_c, 0, 64, 60
1, 24465, Control_c, 0, 64, 59
1, 24480, Control_c, 0, 64, 59
1, 24489, Note_on_c, 0, 76, 62
1, 24509, Control_c, 0, 64, 59
1, 24527, Note_off_c, 0, 76, 60
1, 24539, Control_c, 0, 64, 60
1, 24553, Control_c, 0, 64, 60
1, 24560, Note_on_c, 0, 64, 56
1, 24583, Control_c, 0, 64, 60
1, 24594, Note_off_c, 0, 64, 65
1, 24598, Control_c, 0, 64, 57
1, 24613, Control_c, 0, 64, 47
1, 24626, Control_c, 0, 64, 0
1, 24643, Note_on_c, 0, 59, 56
1, 24689, Note_off_c, 0, 59, 54
1, 24707, Note_on_c, 0, 64, 56
1, 24730, Control_c, 0, 64, 42
1, 24744, Control_c, 0, 64, 58
1, 24752, Note_off_c, 0, 64, 64
1, 24759, Control_c, 0, 64, 62
1, 24774, Control_c, 0, 64, 63
1, 24792, Note_on_c, 0, 74, 62
1, 24820, Control_c, 0, 64, 62
1, 24835, Control_c, 0, 64, 61
1, 24836, Note_off_c, 0, 74, 57
1, 24873, Note_on_c, 0, 64, 56
1, 24897, Note_off_c, 0, 64, 62
1, 24923, Control_c, 0, 64, 60
1, 24945, Control_c, 0, 64, 53
1, 24960, Control_c, 0, 64, 0
1, 24972, Note_on_c, 0, 57, 54
1, 25048, Note_on_c, 0, 69, 56
1, 25049, Control_c, 0, 64, 36
1, 25049, Note_off_c, 0, 57, 63
1, 25064, Control_c, 0, 64, 61
1, 25079, Control_c, 0, 64, 66
1, 25091, Note_off_c, 0, 69, 62
1, 25094, Control_c, 0, 64, 72
1, 25109, Control_c, 0, 64, 75
1, 25121, Note_on_c, 0, 72, 60
1, 25123, Control_c, 0, 64, 76
1, 25163, Note_off_c, 0, 72, 58
1, 25186, Note_on_c, 0, 69, 69
1, 25197, Control_c, 0, 64, 75
1, 25212, Control_c, 0, 64, 75
1, 25215, Note_off_c, 0, 69, 66
1, 25227, Control_c, 0, 64, 74
1, 25241, Control_c, 0, 64, 74
1, 25256, Control_c, 0, 64, 73
1, 25271, Control_c, 0, 64, 72
1, 25278, Note_on_c, 0, 69, 72
1, 25286, Control_c, 0, 64, 71
1, 25300, Control_c, 0, 64, 68
1, 25315, Control_c, 0, 64, 63
1, 25319, Note_off_c, 0, 69, 65
1, 25330, Control_c, 0, 64, 57
1, 25345, Control_c, 0, 64, 49
1, 25360, Control_c, 0, 64, 48
1, 25362, Note_on_c, 0, 69, 59
1, 25404, Note_off_c, 0, 69, 63
1, 25419, Control_c, 0, 64, 48
1, 25435, Note_on_c, 0, 72, 69
1, 25479, Control_c, 0, 64, 47
1, 25488, Note_off_c, 0, 72, 55
1, 25493, Control_c, 0, 64, 47
1, 25505, Note_on_c, 0, 69, 69
1, 25508, Control_c, 0, 64, 46
1, 25523, Control_c, 0, 64, 46
1, 25535, Note_off_c, 0, 69, 67
1, 25538, Control_c, 0, 64, 45
1, 25567, Control_c, 0, 64, 45
1, 25582, Control_c, 0, 64, 43
1, 25594, Note_on_c, 0, 67, 72
1, 25597, Control_c, 0, 64, 41
1, 25613, Control_c, 0, 64, 39
1, 25643, Control_c, 0, 64, 41
1, 25657, Control_c, 0, 64, 44
1, 25667, Note_on_c, 0, 69, 70
1, 25672, Control_c, 0, 64, 48
1, 25694, Control_c, 0, 64, 51
1, 25696, Note_off_c, 0, 67, 56
1, 25709, Control_c, 0, 64, 52
1, 25721, Note_off_c, 0, 69, 65
1, 25724, Control_c, 0, 64, 53
1, 25752, Note_on_c, 0, 73, 67
1, 25753, Control_c, 0, 64, 52
1, 25768, Control_c, 0, 64, 51
1, 25815, Note_off_c, 0, 73, 52
1, 25827, Note_on_c, 0, 69, 66
1, 25842, Control_c, 0, 64, 52
1, 25857, Note_off_c, 0, 69, 68
1, 25857, Control_c, 0, 64, 52
1, 25872, Control_c, 0, 64, 53
1, 25902, Control_c, 0, 64, 50
1, 25910, Note_on_c, 0, 66, 63
1, 25916, Control_c, 0, 64, 42
1, 25931, Control_c, 0, 64, 29
1, 25946, Control_c, 0, 64, 13
1, 25961, Control_c, 0, 64, 19
1, 25976, Control_c, 0, 64, 34
1, 25983, Note_on_c, 0, 69, 54
1, 25990, Control_c, 0, 64, 45
1, 26005, Control_c, 0, 64, 54
1, 26020, Control_c, 0, 64, 60
1, 26035, Control_c, 0, 64, 61
1, 26036, Note_off_c, 0, 69, 60
1, 26041, Note_off_c, 0, 66, 37
1, 26064, Control_c, 0, 64, 60
1, 26066, Note_on_c, 0, 74, 56
1, 26079, Control_c, 0, 64, 59
1, 26106, Note_off_c, 0, 74, 61
1, 26109, Control_c, 0, 64, 59
1, 26147, Note_on_c, 0, 69, 57
1, 26154, Control_c, 0, 64, 59
1, 26170, Note_off_c, 0, 69, 62
1, 26213, Control_c, 0, 64, 57
1, 26220, Note_on_c, 0, 65, 58
1, 26228, Control_c, 0, 64, 52
1, 26243, Control_c, 0, 64, 41
1, 26258, Control_c, 0, 64, 19
1, 26272, Control_c, 0, 64, 0
1, 26287, Control_c, 0, 64, 15
1, 26294, Note_on_c, 0, 69, 45
1, 26302, Control_c, 0, 64, 34
1, 26316, Control_c, 0, 64, 46
1, 26331, Control_c, 0, 64, 54
1, 26339, Note_off_c, 0, 65, 56
1, 26346, Control_c, 0, 64, 58
1, 26361, Control_c, 0, 64, 59
1, 26365, Note_off_c, 0, 69, 60
1, 26376, Control_c, 0, 64, 59
1, 26379, Note_on_c, 0, 75, 52
1, 26406, Control_c, 0, 64, 58
1, 26421, Control_c, 0, 64, 57
1, 26430, Note_off_c, 0, 75, 54
1, 26474, Note_on_c, 0, 69, 43
1, 26501, Note_off_c, 0, 69, 58
1, 26503, Control_c, 0, 64, 58
1, 26518, Control_c, 0, 64, 57
1, 26533, Control_c, 0, 64, 55
1, 26547, Control_c, 0, 64, 49
1, 26561, Note_on_c, 0, 64, 40
1, 26562, Control_c, 0, 64, 33
1, 26577, Control_c, 0, 64, 0
1, 26607, Control_c, 0, 64, 14
1, 26619, Note_on_c, 0, 69, 42
1, 26621, Control_c, 0, 64, 35
1, 26636, Control_c, 0, 64, 48
1, 26651, Control_c, 0, 64, 57
1, 26666, Control_c, 0, 64, 62
1, 26680, Note_off_c, 0, 69, 59
1, 26681, Control_c, 0, 64, 64
1, 26695, Control_c, 0, 64, 65
1, 26699, Note_off_c, 0, 64, 32
1, 26710, Control_c, 0, 64, 66
1, 26729, Note_on_c, 0, 76, 48
1, 26769, Control_c, 0, 64, 65
1, 26772, Note_off_c, 0, 76, 58
1, 26784, Control_c, 0, 64, 65
1, 26799, Control_c, 0, 64, 64
1, 26808, Note_on_c, 0, 69, 39
1, 26814, Control_c, 0, 64, 64
1, 26829, Control_c, 0, 64, 63
1, 26837, Note_off_c, 0, 69, 56
1, 26844, Control_c, 0, 64, 63
1, 26891, Note_on_c, 0, 63, 44
1, 26903, Control_c, 0, 64, 60
1, 26918, Control_c, 0, 64, 50
1, 26933, Control_c, 0, 64, 0
1, 26966, Note_on_c, 0, 69, 36
1, 27014, Note_off_c, 0, 63, 53
1, 27021, Control_c, 0, 64, 44
1, 27026, Note_off_c, 0, 69, 57
1, 27036, Control_c, 0, 64, 58
1, 27051, Control_c, 0, 64, 63
1, 27053, Note_on_c, 0, 78, 55
1, 27066, Control_c, 0, 64, 65
1, 27081, Control_c, 0, 64, 66
1, 27094, Note_off_c, 0, 78, 62
1, 27110, Control_c, 0, 64, 66
1, 27130, Note_on_c, 0, 69, 60
1, 27139, Control_c, 0, 64, 65
1, 27160, Note_off_c, 0, 69, 67
1, 27184, Control_c, 0, 64, 65
1, 27207, Control_c, 0, 64, 64
1, 27222, Control_c, 0, 64, 62
1, 27227, Note_on_c, 0, 72, 52
1, 27237, Control_c, 0, 64, 60
1, 27252, Control_c, 0, 64, 55
1, 27267, Control_c, 0, 64, 52
1, 27282, Control_c, 0, 64, 53
1, 27295, Note_on_c, 0, 69, 54
1, 27297, Control_c, 0, 64, 56
1, 27306, Note_off_c, 0, 72, 52
1, 27312, Control_c, 0, 64, 57
1, 27326, Control_c, 0, 64, 58
1, 27351, Note_off_c, 0, 69, 60
1, 27356, Control_c, 0, 64, 57
1, 27370, Control_c, 0, 64, 56
1, 27380, Note_on_c, 0, 78, 65
1, 27385, Control_c, 0, 64, 55
1, 27400, Control_c, 0, 64, 55
1, 27415, Control_c, 0, 64, 55
1, 27433, Note_off_c, 0, 78, 53
1, 27444, Control_c, 0, 64, 56
1, 27459, Control_c, 0, 64, 56
1, 27462, Note_on_c, 0, 69, 50
1, 27474, Control_c, 0, 64, 57
1, 27488, Note_off_c, 0, 69, 58
1, 27488, Control_c, 0, 64, 57
1, 27503, Control_c, 0, 64, 57
1, 27518, Control_c, 0, 64, 55
1, 27527, Note_on_c, 0, 63, 53
1, 27533, Control_c, 0, 64, 49
1, 27548, Control_c, 0, 64, 42
1, 27577, Control_c, 0, 64, 47
1, 27591, Note_off_c, 0, 63, 45
1, 27592, Note_on_c, 0, 69, 54
1, 27592, Control_c, 0, 64, 52
1, 27607, Control_c, 0, 64, 57
1, 27622, Control_c, 0, 64, 61
1, 27637, Control_c, 0, 64, 63
1, 27649, Note_off_c, 0, 69, 62
1, 27652, Control_c, 0, 64, 64
1, 27675, Note_on_c, 0, 78, 67
1, 27681, Control_c, 0, 64, 63
1, 27696, Control_c, 0, 64, 63
1, 27711, Control_c, 0, 64, 62
1, 27723, Note_off_c, 0, 78, 59
1, 27726, Control_c, 0, 64, 62
1, 27741, Control_c, 0, 64, 61
1, 27756, Control_c, 0, 64, 61
1, 27760, Note_on_c, 0, 69, 61
1, 27770, Control_c, 0, 64, 60
1, 27785, Control_c, 0, 64, 59
1, 27793, Note_off_c, 0, 69, 65
1, 27800, Control_c, 0, 64, 59
1, 27815, Control_c, 0, 64, 58
1, 27838, Note_on_c, 0, 64, 52
1, 27844, Control_c, 0, 64, 58
1, 27859, Control_c, 0, 64, 55
1, 27874, Control_c, 0, 64, 48
1, 27888, Control_c, 0, 64, 31
1, 27903, Control_c, 0, 64, 0
1, 27929, Note_on_c, 0, 69, 50
1, 27933, Control_c, 0, 64, 24
1, 27956, Control_c, 0, 64, 42
1, 27970, Control_c, 0, 64, 53
1, 27983, Note_off_c, 0, 69, 64
1, 27985, Control_c, 0, 64, 59
1, 28000, Control_c, 0, 64, 61
1, 28030, Control_c, 0, 64, 60
1, 28033, Note_on_c, 0, 76, 57
1, 28045, Control_c, 0, 64, 60
1, 28060, Control_c, 0, 64, 59
1, 28078, Note_off_c, 0, 76, 54
1, 28082, Note_off_c, 0, 64, 43
1, 28096, Note_on_c, 0, 69, 54
1, 28134, Control_c, 0, 64, 60
1, 28138, Note_off_c, 0, 69, 65
1, 28164, Control_c, 0, 64, 58
1, 28179, Control_c, 0, 64, 53
1, 28184, Note_on_c, 0, 72, 54
1, 28193, Control_c, 0, 64, 37
1, 28208, Control_c, 0, 64, 14
1, 28223, Control_c, 0, 64, 16
1, 28238, Control_c, 0, 64, 33
1, 28253, Control_c, 0, 64, 45
1, 28254, Note_on_c, 0, 69, 58
1, 28260, Note_off_c, 0, 72, 49
1, 28267, Control_c, 0, 64, 53
1, 28282, Control_c, 0, 64, 59
1, 28297, Control_c, 0, 64, 60
1, 28305, Note_off_c, 0, 69, 59
1, 28326, Control_c, 0, 64, 60
1, 28340, Note_on_c, 0, 76, 65
1, 28341, Control_c, 0, 64, 59
1, 28396, Note_off_c, 0, 76, 55
1, 28400, Control_c, 0, 64, 60
1, 28409, Note_on_c, 0, 69, 65
1, 28440, Note_off_c, 0, 69, 67
1, 28459, Control_c, 0, 64, 59
1, 28474, Control_c, 0, 64, 57
1, 28481, Note_on_c, 0, 64, 54
1, 28489, Control_c, 0, 64, 50
1, 28504, Control_c, 0, 64, 38
1, 28518, Control_c, 0, 64, 31
1, 28533, Control_c, 0, 64, 38
1, 28548, Control_c, 0, 64, 47
1, 28555, Note_on_c, 0, 69, 59
1, 28563, Control_c, 0, 64, 54
1, 28578, Control_c, 0, 64, 59
1, 28592, Control_c, 0, 64, 62
1, 28607, Control_c, 0, 64, 62
1, 28619, Note_off_c, 0, 69, 58
1, 28622, Control_c, 0, 64, 62
1, 28637, Note_on_c, 0, 76, 71
1, 28637, Control_c, 0, 64, 61
1, 28641, Note_off_c, 0, 64, 39
1, 28651, Control_c, 0, 64, 60
1, 28666, Control_c, 0, 64, 60
1, 28701, Note_off_c, 0, 76, 57
1, 28727, Note_on_c, 0, 69, 64
1, 28748, Control_c, 0, 64, 59
1, 28758, Note_off_c, 0, 69, 66
1, 28801, Note_on_c, 0, 65, 58
1, 28823, Control_c, 0, 64, 59
1, 28838, Control_c, 0, 64, 55
1, 28853, Control_c, 0, 64, 46
1, 28868, Control_c, 0, 64, 12
1, 28883, Control_c, 0, 64, 0
1, 28895, Note_on_c, 0, 69, 56
1, 28927, Control_c, 0, 64, 23
1, 28941, Control_c, 0, 64, 45
1, 28951, Note_off_c, 0, 69, 57
1, 28956, Control_c, 0, 64, 57
1, 28971, Control_c, 0, 64, 60
1, 28982, Note_off_c, 0, 65, 60
1, 28986, Control_c, 0, 64, 60
1, 28990, Note_on_c, 0, 75, 57
1, 29015, Control_c, 0, 64, 60
1, 29030, Control_c, 0, 64, 59
1, 29036, Note_off_c, 0, 75, 57
1, 29071, Note_on_c, 0, 69, 53
1, 29089, Control_c, 0, 64, 60
1, 29112, Note_off_c, 0, 69, 63
1, 29149, Control_c, 0, 64, 57
1, 29161, Note_on_c, 0, 72, 58
1, 29164, Control_c, 0, 64, 50
1, 29179, Control_c, 0, 64, 35
1, 29194, Control_c, 0, 64, 0
1, 29223, Control_c, 0, 64, 29
1, 29236, Note_off_c, 0, 72, 60
1, 29238, Control_c, 0, 64, 46
1, 29245, Note_on_c, 0, 69, 58
1, 29253, Control_c, 0, 64, 55
1, 29268, Control_c, 0, 64, 60
1, 29282, Control_c, 0, 64, 62
1, 29289, Note_off_c, 0, 69, 61
1, 29312, Control_c, 0, 64, 61
1, 29330, Note_on_c, 0, 75, 58
1, 29374, Note_off_c, 0, 75, 61
1, 29387, Control_c, 0, 64, 62
1, 29393, Note_on_c, 0, 69, 52
1, 29419, Note_off_c, 0, 69, 57
1, 29453, Control_c, 0, 64, 59
1, 29468, Control_c, 0, 64, 51
1, 29473, Note_on_c, 0, 65, 54
1, 29483, Control_c, 0, 64, 21
1, 29497, Control_c, 0, 64, 0
1, 29542, Note_on_c, 0, 69, 55
1, 29542, Control_c, 0, 64, 38
1, 29556, Control_c, 0, 64, 55
1, 29571, Control_c, 0, 64, 62
1, 29581, Note_off_c, 0, 65, 60
1, 29586, Control_c, 0, 64, 65
1, 29597, Note_off_c, 0, 69, 60
1, 29601, Control_c, 0, 64, 66
1, 29617, Control_c, 0, 64, 65
1, 29631, Control_c, 0, 64, 65
1, 29634, Note_on_c, 0, 75, 56
1, 29646, Control_c, 0, 64, 64
1, 29661, Control_c, 0, 64, 64
1, 29694, Note_off_c, 0, 75, 57
1, 29714, Note_on_c, 0, 69, 58
1, 29744, Note_off_c, 0, 69, 66
1, 29765, Control_c, 0, 64, 63
1, 29780, Control_c, 0, 64, 57
1, 29795, Control_c, 0, 64, 0
1, 29796, Note_on_c, 0, 64, 58
1, 29864, Note_on_c, 0, 68, 61
1, 29884, Control_c, 0, 64, 35
1, 29899, Control_c, 0, 64, 58
1, 29905, Note_off_c, 0, 64, 58
1, 29913, Control_c, 0, 64, 63
1, 29924, Note_off_c, 0, 68, 62
1, 29928, Control_c, 0, 64, 65
1, 29943, Note_on_c, 0, 76, 64
1, 29957, Control_c, 0, 64, 65
1, 29972, Control_c, 0, 64, 64
1, 29987, Control_c, 0, 64, 64
1, 30002, Control_c, 0, 64, 63
1, 30009, Note_off_c, 0, 76, 61
1, 30022, Note_on_c, 0, 68, 58
1, 30046, Note_off_c, 0, 68, 66
1, 30046, Control_c, 0, 64, 64
1, 30076, Control_c, 0, 64, 61
1, 30090, Control_c, 0, 64, 50
1, 30099, Note_on_c, 0, 62, 72
1, 30102, Note_on_c, 0, 50, 71
1, 30105, Control_c, 0, 64, 0
1, 30165, Control_c, 0, 64, 31
1, 30175, Note_on_c, 0, 68, 69
1, 30187, Control_c, 0, 64, 49
1, 30198, Note_off_c, 0, 62, 46
1, 30202, Control_c, 0, 64, 55
1, 30217, Control_c, 0, 64, 54
1, 30228, Note_off_c, 0, 50, 65
1, 30232, Control_c, 0, 64, 53
1, 30237, Note_off_c, 0, 68, 64
1, 30246, Control_c, 0, 64, 52
1, 30261, Note_on_c, 0, 80, 85
1, 30261, Control_c, 0, 64, 52
1, 30276, Control_c, 0, 64, 52
1, 30290, Control_c, 0, 64, 54
1, 30305, Control_c, 0, 64, 55
1, 30317, Note_off_c, 0, 80, 64
1, 30320, Control_c, 0, 64, 56
1, 30335, Note_on_c, 0, 68, 72
1, 30335, Control_c, 0, 64, 57
1, 30350, Control_c, 0, 64, 57
1, 30365, Note_off_c, 0, 68, 67
1, 30394, Control_c, 0, 64, 51
1, 30410, Control_c, 0, 64, 9
1, 30415, Note_on_c, 0, 61, 82
1, 30420, Note_on_c, 0, 49, 73
1, 30425, Control_c, 0, 64, 0
1, 30484, Control_c, 0, 64, 42
1, 30494, Note_on_c, 0, 69, 75
1, 30499, Control_c, 0, 64, 60
1, 30514, Control_c, 0, 64, 65
1, 30519, Note_off_c, 0, 49, 49
1, 30528, Note_off_c, 0, 61, 63
1, 30529, Control_c, 0, 64, 67
1, 30543, Control_c, 0, 64, 67
1, 30546, Note_off_c, 0, 69, 62
1, 30558, Control_c, 0, 64, 65
1, 30573, Control_c, 0, 64, 64
1, 30576, Note_on_c, 0, 81, 80
1, 30588, Control_c, 0, 64, 63
1, 30618, Control_c, 0, 64, 64
1, 30627, Note_off_c, 0, 81, 65
1, 30638, Poly_aftertouch_c, 0, 54, 127
1, 30645, Note_on_c, 0, 69, 72
1, 30669, Note_off_c, 0, 69, 67
1, 30677, Control_c, 0, 64, 63
1, 30681, Poly_aftertouch_c, 0, 54, 0
1, 30692, Control_c, 0, 64, 54
1, 30706, Control_c, 0, 64, 0
1, 30728, Note_on_c, 0, 59, 85
1, 30732, Note_on_c, 0, 47, 75
1, 30795, Control_c, 0, 64, 53
1, 30809, Note_off_c, 0, 59, 61
1, 30810, Note_on_c, 0, 74, 77
1, 30810, Control_c, 0, 64, 65
1, 30825, Control_c, 0, 64, 72
1, 30832, Note_off_c, 0, 47, 64
1, 30840, Control_c, 0, 64, 76
1, 30854, Note_off_c, 0, 74, 64
1, 30854, Control_c, 0, 64, 77
1, 30894, Note_on_c, 0, 86, 80
1, 30936, Control_c, 0, 64, 77
1, 30951, Note_off_c, 0, 86, 63
1, 30951, Control_c, 0, 64, 76
1, 30966, Control_c, 0, 64, 76
1, 30970, Note_on_c, 0, 74, 73
1, 31002, Note_off_c, 0, 74, 65
1, 31040, Control_c, 0, 64, 72
1, 31055, Control_c, 0, 64, 62
1, 31065, Note_on_c, 0, 56, 81
1, 31069, Control_c, 0, 64, 0
1, 31071, Note_on_c, 0, 44, 74
1, 31136, Note_on_c, 0, 71, 76
1, 31154, Note_off_c, 0, 44, 59
1, 31158, Control_c, 0, 64, 48
1, 31173, Control_c, 0, 64, 61
1, 31187, Control_c, 0, 64, 64
1, 31191, Note_off_c, 0, 71, 65
1, 31197, Note_off_c, 0, 56, 59
1, 31225, Note_on_c, 0, 83, 78
1, 31233, Control_c, 0, 64, 64
1, 31263, Control_c, 0, 64, 63
1, 31265, Note_off_c, 0, 83, 65
1, 31278, Control_c, 0, 64, 64
1, 31290, Note_on_c, 0, 71, 77
1, 31330, Note_off_c, 0, 71, 62
1, 31336, Control_c, 0, 64, 59
1, 31351, Control_c, 0, 64, 0
1, 31379, Note_on_c, 0, 57, 86
1, 31383, Note_on_c, 0, 45, 75
1, 31455, Control_c, 0, 64, 48
1, 31456, Note_off_c, 0, 45, 63
1, 31466, Note_on_c, 0, 73, 73
1, 31470, Control_c, 0, 64, 62
1, 31485, Control_c, 0, 64, 68
1, 31500, Control_c, 0, 64, 74
1, 31515, Control_c, 0, 64, 77
1, 31518, Note_off_c, 0, 57, 61
1, 31518, Note_off_c, 0, 73, 61
1, 31546, Note_on_c, 0, 85, 83
1, 31590, Note_off_c, 0, 85, 62
1, 31606, Note_on_c, 0, 73, 79
1, 31634, Note_off_c, 0, 73, 63
1, 31685, Control_c, 0, 64, 75
1, 31700, Control_c, 0, 64, 66
1, 31715, Control_c, 0, 64, 0
1, 31723, Note_on_c, 0, 62, 83
1, 31730, Note_on_c, 0, 50, 73
1, 31804, Control_c, 0, 64, 46
1, 31809, Note_on_c, 0, 66, 77
1, 31818, Control_c, 0, 64, 63
1, 31833, Control_c, 0, 64, 71
1, 31848, Control_c, 0, 64, 79
1, 31862, Control_c, 0, 64, 82
1, 31874, Note_off_c, 0, 66, 64
1, 31877, Control_c, 0, 64, 83
1, 31883, Note_off_c, 0, 62, 63
1, 31884, Note_off_c, 0, 50, 62
1, 31901, Note_on_c, 0, 65, 72
1, 31938, Note_off_c, 0, 65, 59
1, 31975, Note_on_c, 0, 66, 77
1, 31981, Control_c, 0, 64, 82
1, 31996, Control_c, 0, 64, 81
1, 32012, Control_c, 0, 64, 80
1, 32027, Control_c, 0, 64, 78
1, 32032, Note_off_c, 0, 66, 62
1, 32041, Control_c, 0, 64, 76
1, 32052, Note_on_c, 0, 71, 81
1, 32056, Control_c, 0, 64, 73
1, 32071, Control_c, 0, 64, 65
1, 32086, Control_c, 0, 64, 41
1, 32101, Control_c, 0, 64, 0
1, 32105, Note_off_c, 0, 71, 60
1, 32134, Note_on_c, 0, 66, 72
1, 32165, Note_off_c, 0, 66, 63
1, 32197, Note_on_c, 0, 65, 74
1, 32246, Note_off_c, 0, 65, 54
1, 32278, Control_c, 0, 64, 19
1, 32281, Note_on_c, 0, 66, 72
1, 32293, Control_c, 0, 64, 26
1, 32308, Control_c, 0, 64, 0
1, 32330, Note_off_c, 0, 66, 61
1, 32365, Note_on_c, 0, 74, 76
1, 32412, Control_c, 0, 64, 35
1, 32421, Note_off_c, 0, 74, 62
1, 32433, Control_c, 0, 64, 56
1, 32441, Note_on_c, 0, 66, 78
1, 32448, Control_c, 0, 64, 61
1, 32463, Control_c, 0, 64, 60
1, 32478, Control_c, 0, 64, 59
1, 32493, Note_off_c, 0, 66, 62
1, 32493, Control_c, 0, 64, 58
1, 32508, Control_c, 0, 64, 57
1, 32521, Note_on_c, 0, 65, 72
1, 32522, Control_c, 0, 64, 57
1, 32567, Control_c, 0, 64, 56
1, 32571, Note_off_c, 0, 65, 45
1, 32593, Note_on_c, 0, 66, 77
1, 32612, Control_c, 0, 64, 56
1, 32624, Note_off_c, 0, 66, 63
1, 32627, Control_c, 0, 64, 55
1, 32641, Control_c, 0, 64, 54
1, 32656, Control_c, 0, 64, 53
1, 32671, Control_c, 0, 64, 52
1, 32685, Control_c, 0, 64, 50
1, 32700, Control_c, 0, 64, 49
1, 32715, Control_c, 0, 64, 44
1, 32719, Note_on_c, 0, 76, 73
1, 32730, Control_c, 0, 64, 39
1, 32745, Control_c, 0, 64, 34
1, 32759, Control_c, 0, 64, 33
1, 32805, Control_c, 0, 64, 33
1, 32820, Control_c, 0, 64, 34
1, 32835, Control_c, 0, 64, 34
1, 32850, Control_c, 0, 64, 36
1, 32864, Control_c, 0, 64, 37
1, 32894, Control_c, 0, 64, 36
1, 32923, Control_c, 0, 64, 36
1, 32953, Control_c, 0, 64, 35
1, 33012, Control_c, 0, 64, 34
1, 33027, Control_c, 0, 64, 33
1, 33042, Control_c, 0, 64, 32
1, 33056, Control_c, 0, 64, 31
1, 33071, Control_c, 0, 64, 27
1, 33086, Control_c, 0, 64, 17
1, 33092, Note_on_c, 0, 52, 53
1, 33092, Note_on_c, 0, 61, 55
1, 33101, Control_c, 0, 64, 0
1, 33253, Note_off_c, 0, 52, 56
1, 33260, Note_on_c, 0, 73, 74
1, 33264, Note_off_c, 0, 76, 46
1, 33300, Note_off_c, 0, 61, 29
1, 33326, Note_off_c, 0, 73, 61
1, 33338, Note_on_c, 0, 69, 68
1, 33368, Note_off_c, 0, 69, 67
1, 33432, Note_on_c, 0, 74, 74
1, 33438, Note_on_c, 0, 59, 63
1, 33450, Control_c, 0, 64, 40
1, 33458, Note_on_c, 0, 52, 48
1, 33464, Control_c, 0, 64, 56
1, 33479, Control_c, 0, 64, 58
1, 33494, Control_c, 0, 64, 57
1, 33553, Control_c, 0, 64, 58
1, 33566, Note_off_c, 0, 74, 62
1, 33568, Control_c, 0, 64, 58
1, 33578, Note_off_c, 0, 59, 62
1, 33597, Control_c, 0, 64, 58
1, 33611, Note_off_c, 0, 52, 63
1, 33613, Control_c, 0, 64, 57
1, 33628, Control_c, 0, 64, 57
1, 33643, Control_c, 0, 64, 56
1, 33648, Note_on_c, 0, 71, 73
1, 33658, Control_c, 0, 64, 54
1, 33673, Control_c, 0, 64, 53
1, 33687, Control_c, 0, 64, 51
1, 33688, Note_off_c, 0, 71, 64
1, 33702, Control_c, 0, 64, 47
1, 33712, Note_on_c, 0, 68, 74
1, 33717, Control_c, 0, 64, 39
1, 33731, Control_c, 0, 64, 19
1, 33746, Control_c, 0, 64, 0
1, 33837, Note_off_c, 0, 68, 61
1, 33873, Note_on_c, 0, 69, 69
1, 33875, Note_on_c, 0, 57, 58
1, 33884, Note_on_c, 0, 45, 55
1, 34005, Control_c, 0, 64, 54
1, 34020, Note_off_c, 0, 57, 64
1, 34020, Control_c, 0, 64, 66
1, 34022, Note_off_c, 0, 45, 61
1, 34032, Note_off_c, 0, 69, 62
1, 34035, Control_c, 0, 64, 78
1, 34050, Control_c, 0, 64, 95
1, 34065, Control_c, 0, 64, 115
1, 34079, Control_c, 0, 64, 127
1, 34272, Control_c, 0, 64, 122
1, 34287, Control_c, 0, 64, 118
1, 34302, Control_c, 0, 64, 114
1, 34317, Control_c, 0, 64, 107
1, 34331, Control_c, 0, 64, 96
1, 34346, Control_c, 0, 64, 83
1, 34361, Control_c, 0, 64, 67
1, 34376, Control_c, 0, 64, 0
1, 34443, Note_on_c, 0, 66, 62
1, 34475, Note_off_c, 0, 66, 65
1, 34499, Note_on_c, 0, 64, 55
1, 34500, Note_on_c, 0, 61, 54
1, 34522, Note_off_c, 0, 64, 63
1, 34538, Note_on_c, 0, 62, 55
1, 34544, Note_off_c, 0, 61, 56
1, 34562, Note_off_c, 0, 62, 58
1, 34600, Note_on_c, 0, 64, 56
1, 34623, Note_off_c, 0, 64, 59
1, 34656, Note_on_c, 0, 66, 63
1, 34667, Note_on_c, 0, 62, 51
1, 34680, Control_c, 0, 64, 48
1, 34695, Control_c, 0, 64, 52
1, 34710, Control_c, 0, 64, 52
1, 34718, Note_off_c, 0, 62, 58
1, 34725, Control_c, 0, 64, 51
1, 34754, Control_c, 0, 64, 52
1, 34769, Control_c, 0, 64, 51
1, 34784, Control_c, 0, 64, 50
1, 34799, Control_c, 0, 64, 50
1, 34804, Note_off_c, 0, 66, 46
1, 34814, Control_c, 0, 64, 49
1, 34828, Control_c, 0, 64, 48
1, 34830, Note_on_c, 0, 62, 63
1, 34841, Note_on_c, 0, 59, 46
1, 34858, Control_c, 0, 64, 48
1, 34873, Control_c, 0, 64, 47
1, 34887, Control_c, 0, 64, 45
1, 34888, Note_off_c, 0, 62, 59
1, 34902, Control_c, 0, 64, 45
1, 34915, Note_off_c, 0, 59, 51
1, 34917, Control_c, 0, 64, 44
1, 34947, Control_c, 0, 64, 44
1, 34996, Note_on_c, 0, 64, 65
1, 35002, Note_on_c, 0, 61, 51
1, 35006, Control_c, 0, 64, 43
1, 35021, Control_c, 0, 64, 43
1, 35035, Control_c, 0, 64, 42
1, 35050, Control_c, 0, 64, 41
1, 35056, Note_off_c, 0, 61, 57
1, 35095, Control_c, 0, 64, 42
1, 35122, Note_off_c, 0, 64, 58
1, 35154, Control_c, 0, 64, 42
1, 35157, Note_on_c, 0, 61, 68
1, 35161, Note_on_c, 0, 57, 48
1, 35169, Control_c, 0, 64, 41
1, 35184, Control_c, 0, 64, 40
1, 35199, Control_c, 0, 64, 36
1, 35205, Note_off_c, 0, 57, 60
1, 35214, Control_c, 0, 64, 30
1, 35229, Control_c, 0, 64, 18
1, 35244, Control_c, 0, 64, 0
1, 35250, Note_off_c, 0, 61, 55
1, 35316, Note_on_c, 0, 59, 49
1, 35316, Note_on_c, 0, 62, 62
1, 35365, Note_off_c, 0, 59, 58
1, 35453, Note_off_c, 0, 62, 33
1, 35486, Note_on_c, 0, 52, 35
1, 35487, Note_on_c, 0, 59, 54
1, 35540, Note_off_c, 0, 52, 48
1, 35546, Note_off_c, 0, 59, 58
1, 35649, Note_on_c, 0, 61, 53
1, 35651, Control_c, 0, 64, 46
1, 35653, Note_on_c, 0, 57, 52
1, 35666, Control_c, 0, 64, 60
1, 35674, Note_off_c, 0, 61, 61
1, 35681, Control_c, 0, 64, 66
1, 35694, Note_off_c, 0, 57, 62
1, 35696, Control_c, 0, 64, 73
1, 35710, Control_c, 0, 64, 81
1, 35725, Control_c, 0, 64, 85
1, 35740, Control_c, 0, 64, 87
1, 35755, Control_c, 0, 64, 87
1, 35795, Note_on_c, 0, 71, 61
1, 35801, Note_on_c, 0, 61, 45
1, 35829, Note_off_c, 0, 71, 67
1, 35834, Note_on_c, 0, 69, 70
1, 35870, Note_off_c, 0, 69, 64
1, 35891, Note_on_c, 0, 68, 62
1, 35900, Note_off_c, 0, 61, 36
1, 35903, Control_c, 0, 64, 86
1, 35918, Control_c, 0, 64, 85
1, 35929, Note_off_c, 0, 68, 63
1, 35933, Control_c, 0, 64, 83
1, 35939, Note_on_c, 0, 69, 61
1, 35948, Control_c, 0, 64, 81
1, 35963, Control_c, 0, 64, 78
1, 35974, Note_on_c, 0, 62, 48
1, 35977, Control_c, 0, 64, 74
1, 35991, Note_off_c, 0, 69, 63
1, 35992, Control_c, 0, 64, 68
1, 36004, Note_on_c, 0, 71, 63
1, 36008, Control_c, 0, 64, 61
1, 36023, Control_c, 0, 64, 44
1, 36038, Control_c, 0, 64, 0
1, 36117, Note_off_c, 0, 71, 56
1, 36132, Note_off_c, 0, 62, 34
1, 36153, Note_on_c, 0, 59, 47
1, 36153, Note_on_c, 0, 68, 58
1, 36291, Note_off_c, 0, 68, 58
1, 36322, Note_on_c, 0, 61, 45
1, 36323, Note_on_c, 0, 69, 59
1, 36335, Note_off_c, 0, 59, 46
1, 36341, Control_c, 0, 64, 44
1, 36356, Control_c, 0, 64, 57
1, 36360, Note_off_c, 0, 69, 65
1, 36371, Control_c, 0, 64, 63
1, 36386, Control_c, 0, 64, 64
1, 36400, Note_off_c, 0, 61, 61
1, 36401, Control_c, 0, 64, 64
1, 36416, Control_c, 0, 64, 64
1, 36430, Control_c, 0, 64, 62
1, 36445, Control_c, 0, 64, 61
1, 36451, Note_on_c, 0, 74, 60
1, 36460, Control_c, 0, 64, 58
1, 36475, Control_c, 0, 64, 55
1, 36487, Note_off_c, 0, 74, 65
1, 36490, Control_c, 0, 64, 49
1, 36493, Note_on_c, 0, 64, 33
1, 36502, Note_on_c, 0, 73, 64
1, 36505, Control_c, 0, 64, 39
1, 36520, Control_c, 0, 64, 17
1, 36533, Note_off_c, 0, 73, 64
1, 36534, Control_c, 0, 64, 0
1, 36550, Note_on_c, 0, 71, 66
1, 36594, Note_off_c, 0, 71, 64
1, 36612, Note_off_c, 0, 64, 38
1, 36615, Note_on_c, 0, 73, 64
1, 36634, Note_on_c, 0, 66, 45
1, 36657, Note_off_c, 0, 73, 60
1, 36664, Note_on_c, 0, 74, 64
1, 36792, Note_off_c, 0, 74, 58
1, 36824, Note_on_c, 0, 71, 58
1, 36837, Note_on_c, 0, 62, 34
1, 36871, Note_off_c, 0, 66, 37
1, 36976, Note_off_c, 0, 71, 60
1, 36997, Note_off_c, 0, 62, 40
1, 37006, Note_on_c, 0, 73, 60
1, 37012, Note_on_c, 0, 64, 31
1, 37045, Control_c, 0, 64, 34
1, 37060, Control_c, 0, 64, 56
1, 37065, Note_off_c, 0, 73, 53
1, 37075, Control_c, 0, 64, 65
1, 37089, Control_c, 0, 64, 72
1, 37104, Control_c, 0, 64, 80
1, 37119, Control_c, 0, 64, 83
1, 37155, Note_on_c, 0, 61, 43
1, 37164, Control_c, 0, 64, 82
1, 37171, Note_on_c, 0, 76, 66
1, 37179, Control_c, 0, 64, 79
1, 37186, Note_off_c, 0, 64, 40
1, 37194, Control_c, 0, 64, 75
1, 37208, Control_c, 0, 64, 69
1, 37223, Control_c, 0, 64, 62
1, 37238, Control_c, 0, 64, 50
1, 37253, Control_c, 0, 64, 31
1, 37268, Control_c, 0, 64, 0
1, 37309, Note_off_c, 0, 61, 42
1, 37333, Note_on_c, 0, 62, 44
1, 37340, Note_on_c, 0, 78, 66
1, 37346, Note_off_c, 0, 76, 40
1, 37474, Control_c, 0, 64, 38
1, 37477, Note_off_c, 0, 62, 53
1, 37489, Control_c, 0, 64, 52
1, 37504, Control_c, 0, 64, 57
1, 37512, Note_on_c, 0, 86, 58
1, 37518, Control_c, 0, 64, 59
1, 37527, Note_on_c, 0, 71, 52
1, 37533, Control_c, 0, 64, 58
1, 37535, Note_off_c, 0, 78, 60
1, 37548, Control_c, 0, 64, 57
1, 37563, Control_c, 0, 64, 57
1, 37578, Control_c, 0, 64, 55
1, 37587, Note_off_c, 0, 86, 57
1, 37593, Control_c, 0, 64, 52
1, 37599, Note_off_c, 0, 71, 62
1, 37608, Control_c, 0, 64, 50
1, 37623, Control_c, 0, 64, 50
1, 37653, Control_c, 0, 64, 50
1, 37675, Control_c, 0, 64, 47
1, 37687, Note_on_c, 0, 76, 69
1, 37690, Control_c, 0, 64, 29
1, 37691, Note_on_c, 0, 61, 51
1, 37704, Control_c, 0, 64, 0
1, 37793, Control_c, 0, 64, 31
1, 37808, Control_c, 0, 64, 54
1, 37823, Note_off_c, 0, 76, 56
1, 37823, Control_c, 0, 64, 61
1, 37838, Control_c, 0, 64, 63
1, 37849, Note_off_c, 0, 61, 53
1, 37850, Note_on_c, 0, 85, 68
1, 37852, Note_on_c, 0, 69, 51
1, 37882, Control_c, 0, 64, 62
1, 37897, Control_c, 0, 64, 62
1, 37897, Note_off_c, 0, 69, 61
1, 37912, Control_c, 0, 64, 61
1, 37923, Note_off_c, 0, 85, 60
1, 37927, Control_c, 0, 64, 61
1, 37942, Control_c, 0, 64, 60
1, 37971, Control_c, 0, 64, 59
1, 37986, Control_c, 0, 64, 47
1, 38001, Control_c, 0, 64, 0
1, 38009, Note_on_c, 0, 74, 60
1, 38014, Note_on_c, 0, 59, 49
1, 38104, Control_c, 0, 64, 48
1, 38119, Control_c, 0, 64, 62
1, 38134, Control_c, 0, 64, 69
1, 38147, Note_off_c, 0, 59, 51
1, 38149, Control_c, 0, 64, 76
1, 38150, Note_off_c, 0, 74, 37
1, 38164, Control_c, 0, 64, 82
1, 38174, Note_on_c, 0, 68, 54
1, 38174, Note_on_c, 0, 83, 65
1, 38179, Control_c, 0, 64, 85
1, 38194, Control_c, 0, 64, 86
1, 38198, Note_off_c, 0, 68, 58
1, 38208, Note_off_c, 0, 83, 63
1, 38223, Control_c, 0, 64, 87
1, 38283, Control_c, 0, 64, 86
1, 38327, Control_c, 0, 64, 85
1, 38342, Control_c, 0, 64, 84
1, 38357, Control_c, 0, 64, 83
1, 38370, Note_on_c, 0, 57, 53
1, 38371, Control_c, 0, 64, 82
1, 38386, Control_c, 0, 64, 80
1, 38402, Control_c, 0, 64, 76
1, 38406, Note_on_c, 0, 85, 65
1, 38425, Control_c, 0, 64, 66
1, 38440, Control_c, 0, 64, 0
1, 38482, Note_off_c, 0, 85, 63
1, 38494, Note_on_c, 0, 88, 75
1, 38528, Control_c, 0, 64, 47
1, 38543, Control_c, 0, 64, 65
1, 38558, Control_c, 0, 64, 76
1, 38568, Note_off_c, 0, 88, 64
1, 38573, Control_c, 0, 64, 86
1, 38575, Note_on_c, 0, 85, 77
1, 38588, Control_c, 0, 64, 89
1, 38594, Note_off_c, 0, 57, 65
1, 38630, Note_off_c, 0, 85, 65
1, 38641, Note_on_c, 0, 81, 75
1, 38664, Note_off_c, 0, 81, 71
1, 38706, Control_c, 0, 64, 87
1, 38720, Control_c, 0, 64, 80
1, 38726, Note_on_c, 0, 81, 85
1, 38735, Control_c, 0, 64, 69
1, 38750, Control_c, 0, 64, 57
1, 38765, Control_c, 0, 64, 43
1, 38780, Control_c, 0, 64, 47
1, 38785, Note_off_c, 0, 81, 65
1, 38794, Control_c, 0, 64, 51
1, 38797, Note_on_c, 0, 85, 80
1, 38824, Control_c, 0, 64, 50
1, 38839, Control_c, 0, 64, 50
1, 38854, Control_c, 0, 64, 49
1, 38857, Note_off_c, 0, 85, 65
1, 38869, Control_c, 0, 64, 49
1, 38871, Note_on_c, 0, 81, 76
1, 38884, Control_c, 0, 64, 51
1, 38899, Control_c, 0, 64, 54
1, 38914, Control_c, 0, 64, 57
1, 38916, Note_off_c, 0, 81, 63
1, 38928, Control_c, 0, 64, 56
1, 38937, Note_on_c, 0, 76, 73
1, 38943, Control_c, 0, 64, 40
1, 38958, Control_c, 0, 64, 0
1, 38964, Note_off_c, 0, 76, 68
1, 39021, Note_on_c, 0, 76, 90
1, 39032, Control_c, 0, 64, 40
1, 39046, Control_c, 0, 64, 62
1, 39061, Control_c, 0, 64, 69
1, 39076, Control_c, 0, 64, 74
1, 39081, Note_off_c, 0, 76, 60
1, 39091, Control_c, 0, 64, 75
1, 39096, Note_on_c, 0, 81, 77
1, 39106, Control_c, 0, 64, 74
1, 39120, Control_c, 0, 64, 72
1, 39135, Control_c, 0, 64, 70
1, 39150, Control_c, 0, 64, 70
1, 39173, Note_off_c, 0, 81, 65
1, 39191, Note_on_c, 0, 76, 71
1, 39218, Control_c, 0, 64, 70
1, 39238, Note_off_c, 0, 76, 64
1, 39258, Note_on_c, 0, 73, 81
1, 39262, Control_c, 0, 64, 70
1, 39277, Control_c, 0, 64, 65
1, 39280, Note_off_c, 0, 73, 69
1, 39292, Control_c, 0, 64, 40
1, 39307, Control_c, 0, 64, 0
1, 39346, Note_on_c, 0, 73, 84
1, 39381, Control_c, 0, 64, 35
1, 39396, Control_c, 0, 64, 57
1, 39411, Note_off_c, 0, 73, 64
1, 39411, Control_c, 0, 64, 64
1, 39415, Note_on_c, 0, 76, 80
1, 39425, Control_c, 0, 64, 65
1, 39469, Control_c, 0, 64, 65
1, 39480, Note_off_c, 0, 76, 61
1, 39489, Note_on_c, 0, 73, 83
1, 39514, Control_c, 0, 64, 65
1, 39529, Control_c, 0, 64, 66
1, 39543, Control_c, 0, 64, 67
1, 39546, Note_off_c, 0, 73, 64
1, 39555, Note_on_c, 0, 69, 72
1, 39573, Control_c, 0, 64, 66
1, 39581, Note_off_c, 0, 69, 71
1, 39588, Control_c, 0, 64, 58
1, 39603, Control_c, 0, 64, 0
1, 39641, Note_on_c, 0, 69, 84
1, 39677, Control_c, 0, 64, 48
1, 39692, Control_c, 0, 64, 64
1, 39706, Note_off_c, 0, 69, 62
1, 39706, Control_c, 0, 64, 71
1, 39716, Note_on_c, 0, 73, 82
1, 39721, Control_c, 0, 64, 75
1, 39760, Note_off_c, 0, 73, 64
1, 39766, Control_c, 0, 64, 75
1, 39781, Control_c, 0, 64, 74
1, 39797, Note_on_c, 0, 69, 70
1, 39838, Note_off_c, 0, 69, 62
1, 39855, Control_c, 0, 64, 74
1, 39867, Note_on_c, 0, 64, 66
1, 39869, Control_c, 0, 64, 71
1, 39884, Control_c, 0, 64, 53
1, 39899, Control_c, 0, 64, 0
1, 39912, Note_off_c, 0, 64, 61
1, 39972, Note_on_c, 0, 39, 72
1, 39975, Note_on_c, 0, 51, 75
1, 39978, Note_on_c, 0, 63, 84
1, 40008, Note_off_c, 0, 39, 66
1, 40011, Control_c, 0, 64, 62
1, 40015, Note_off_c, 0, 63, 63
1, 40026, Control_c, 0, 64, 73
1, 40030, Note_off_c, 0, 51, 62
1, 40041, Control_c, 0, 64, 85
1, 40055, Control_c, 0, 64, 92
1, 40070, Control_c, 0, 64, 93
1, 40248, Control_c, 0, 64, 92
1, 40263, Control_c, 0, 64, 90
1, 40278, Control_c, 0, 64, 87
1, 40292, Control_c, 0, 64, 84
1, 40307, Control_c, 0, 64, 81
1, 40322, Control_c, 0, 64, 77
1, 40326, Note_on_c, 0, 63, 75
1, 40337, Control_c, 0, 64, 72
1, 40352, Control_c, 0, 64, 65
1, 40366, Control_c, 0, 64, 54
1, 40380, Note_off_c, 0, 63, 65
1, 40381, Control_c, 0, 64, 36
1, 40392, Note_on_c, 0, 69, 58
1, 40396, Control_c, 0, 64, 25
1, 40411, Control_c, 0, 64, 26
1, 40426, Control_c, 0, 64, 27
1, 40437, Note_off_c, 0, 69, 62
1, 40470, Control_c, 0, 64, 27
1, 40472, Note_on_c, 0, 72, 62
1, 40485, Control_c, 0, 64, 26
1, 40514, Control_c, 0, 64, 27
1, 40518, Note_off_c, 0, 72, 59
1, 40529, Control_c, 0, 64, 31
1, 40544, Note_on_c, 0, 69, 66
1, 40544, Control_c, 0, 64, 37
1, 40559, Control_c, 0, 64, 40
1, 40572, Note_off_c, 0, 69, 67
1, 40574, Control_c, 0, 64, 34
1, 40589, Control_c, 0, 64, 0
1, 40627, Note_on_c, 0, 69, 81
1, 40670, Note_off_c, 0, 69, 66
1, 40699, Control_c, 0, 64, 51
1, 40714, Control_c, 0, 64, 66
1, 40725, Note_on_c, 0, 69, 66
1, 40729, Control_c, 0, 64, 76
1, 40744, Control_c, 0, 64, 87
1, 40759, Control_c, 0, 64, 89
1, 40771, Note_off_c, 0, 69, 63
1, 40809, Note_on_c, 0, 72, 61
1, 40857, Note_off_c, 0, 72, 56
1, 40874, Note_on_c, 0, 69, 63
1, 40905, Note_off_c, 0, 69, 66
1, 40923, Control_c, 0, 64, 83
1, 40938, Control_c, 0, 64, 68
1, 40952, Control_c, 0, 64, 0
1, 40961, Note_on_c, 0, 52, 82
1, 40964, Note_on_c, 0, 40, 72
1, 40997, Note_off_c, 0, 40, 62
1, 41012, Control_c, 0, 64, 39
1, 41027, Control_c, 0, 64, 64
1, 41028, Note_off_c, 0, 52, 64
1, 41041, Control_c, 0, 64, 75
1, 41056, Control_c, 0, 64, 87
1, 41071, Control_c, 0, 64, 92
1, 41072, Note_on_c, 0, 69, 56
1, 41101, Control_c, 0, 64, 92
1, 41110, Note_off_c, 0, 69, 66
1, 41115, Control_c, 0, 64, 91
1, 41129, Note_on_c, 0, 72, 58
1, 41130, Control_c, 0, 64, 90
1, 41145, Control_c, 0, 64, 90
1, 41160, Control_c, 0, 64, 89
1, 41175, Note_off_c, 0, 72, 59
1, 41175, Control_c, 0, 64, 88
1, 41189, Control_c, 0, 64, 87
1, 41198, Note_on_c, 0, 69, 64
1, 41204, Control_c, 0, 64, 87
1, 41229, Note_off_c, 0, 69, 67
1, 41278, Control_c, 0, 64, 84
1, 41292, Note_on_c, 0, 64, 83
1, 41293, Control_c, 0, 64, 76
1, 41308, Control_c, 0, 64, 62
1, 41322, Control_c, 0, 64, 0
1, 41347, Note_off_c, 0, 64, 65
1, 41377, Note_on_c, 0, 69, 73
1, 41397, Control_c, 0, 64, 26
1, 41419, Control_c, 0, 64, 37
1, 41434, Note_off_c, 0, 69, 63
1, 41434, Control_c, 0, 64, 36
1, 41448, Control_c, 0, 64, 33
1, 41463, Control_c, 0, 64, 31
1, 41468, Note_on_c, 0, 72, 65
1, 41493, Control_c, 0, 64, 32
1, 41508, Control_c, 0, 64, 35
1, 41512, Note_off_c, 0, 72, 62
1, 41522, Control_c, 0, 64, 38
1, 41524, Note_on_c, 0, 69, 61
1, 41537, Control_c, 0, 64, 42
1, 41552, Control_c, 0, 64, 44
1, 41555, Note_off_c, 0, 69, 67
1, 41567, Control_c, 0, 64, 41
1, 41582, Control_c, 0, 64, 0
1, 41617, Note_on_c, 0, 69, 82
1, 41655, Note_off_c, 0, 69, 68
1, 41657, Control_c, 0, 64, 21
1, 41671, Control_c, 0, 64, 59
1, 41686, Control_c, 0, 64, 71
1, 41701, Control_c, 0, 64, 81
1, 41716, Control_c, 0, 64, 89
1, 41720, Note_on_c, 0, 69, 56
1, 41731, Control_c, 0, 64, 90
1, 41766, Note_off_c, 0, 69, 64
1, 41790, Note_on_c, 0, 72, 62
1, 41845, Note_off_c, 0, 72, 52
1, 41863, Note_on_c, 0, 69, 58
1, 41880, Control_c, 0, 64, 90
1, 41891, Note_off_c, 0, 69, 67
1, 41894, Control_c, 0, 64, 89
1, 41909, Control_c, 0, 64, 86
1, 41924, Control_c, 0, 64, 84
1, 41939, Control_c, 0, 64, 83
1, 41954, Control_c, 0, 64, 82
1, 41969, Control_c, 0, 64, 81
1, 41993, Note_on_c, 0, 53, 55
1, 41998, Note_on_c, 0, 41, 50
1, 42028, Control_c, 0, 64, 79
1, 42043, Control_c, 0, 64, 69
1, 42058, Control_c, 0, 64, 42
1, 42072, Control_c, 0, 64, 0
1, 42097, Note_off_c, 0, 41, 56
1, 42130, Note_on_c, 0, 69, 40
1, 42132, Control_c, 0, 64, 54
1, 42140, Note_off_c, 0, 53, 65
1, 42146, Control_c, 0, 64, 66
1, 42169, Control_c, 0, 64, 77
1, 42184, Control_c, 0, 64, 86
1, 42185, Note_off_c, 0, 69, 62
1, 42199, Control_c, 0, 64, 90
1, 42216, Note_on_c, 0, 72, 56
1, 42261, Note_off_c, 0, 72, 60
1, 42300, Note_on_c, 0, 69, 56
1, 42332, Note_off_c, 0, 69, 66
1, 42421, Note_on_c, 0, 65, 55
1, 42451, Control_c, 0, 64, 89
1, 42466, Control_c, 0, 64, 89
1, 42481, Control_c, 0, 64, 87
1, 42495, Control_c, 0, 64, 86
1, 42510, Note_on_c, 0, 69, 58
1, 42510, Control_c, 0, 64, 84
1, 42525, Control_c, 0, 64, 82
1, 42534, Note_off_c, 0, 65, 29
1, 42540, Control_c, 0, 64, 80
1, 42552, Note_off_c, 0, 69, 64
1, 42555, Control_c, 0, 64, 77
1, 42569, Control_c, 0, 64, 74
1, 42584, Control_c, 0, 64, 71
1, 42599, Control_c, 0, 64, 68
1, 42601, Note_on_c, 0, 81, 59
1, 42614, Control_c, 0, 64, 66
1, 42629, Control_c, 0, 64, 64
1, 42642, Note_off_c, 0, 81, 64
1, 42643, Control_c, 0, 64, 62
1, 42658, Control_c, 0, 64, 61
1, 42673, Control_c, 0, 64, 59
1, 42678, Note_on_c, 0, 69, 48
1, 42687, Control_c, 0, 64, 59
1, 42723, Note_off_c, 0, 69, 59
1, 42762, Note_on_c, 0, 65, 60
1, 42837, Note_on_c, 0, 69, 52
1, 42875, Note_off_c, 0, 65, 56
1, 42885, Note_off_c, 0, 69, 63
1, 42895, Control_c, 0, 64, 58
1, 42930, Note_on_c, 0, 79, 64
1, 42932, Control_c, 0, 64, 58
1, 42977, Control_c, 0, 64, 57
1, 43003, Note_on_c, 0, 69, 55
1, 43020, Note_off_c, 0, 79, 37
1, 43036, Control_c, 0, 64, 58
1, 43044, Note_off_c, 0, 69, 62
1, 43051, Control_c, 0, 64, 59
1, 43066, Control_c, 0, 64, 59
1, 43095, Control_c, 0, 64, 58
1, 43104, Note_on_c, 0, 65, 55
1, 43110, Control_c, 0, 64, 50
1, 43125, Control_c, 0, 64, 37
1, 43140, Control_c, 0, 64, 35
1, 43155, Control_c, 0, 64, 42
1, 43169, Control_c, 0, 64, 49
1, 43178, Note_on_c, 0, 69, 56
1, 43184, Control_c, 0, 64, 55
1, 43200, Control_c, 0, 64, 57
1, 43211, Note_off_c, 0, 65, 59
1, 43215, Control_c, 0, 64, 56
1, 43230, Control_c, 0, 64, 55
1, 43245, Note_off_c, 0, 69, 50
1, 43245, Control_c, 0, 64, 54
1, 43275, Note_on_c, 0, 77, 62
1, 43304, Control_c, 0, 64, 55
1, 43333, Note_off_c, 0, 77, 53
1, 43333, Control_c, 0, 64, 55
1, 43347, Control_c, 0, 64, 56
1, 43354, Note_on_c, 0, 69, 58
1, 43362, Control_c, 0, 64, 56
1, 43377, Control_c, 0, 64, 57
1, 43378, Note_off_c, 0, 69, 65
1, 43391, Control_c, 0, 64, 59
1, 43406, Control_c, 0, 64, 59
1, 43421, Control_c, 0, 64, 58
1, 43436, Control_c, 0, 64, 57
1, 43437, Note_on_c, 0, 65, 58
1, 43465, Control_c, 0, 64, 58
1, 43480, Control_c, 0, 64, 59
1, 43495, Control_c, 0, 64, 60
1, 43510, Control_c, 0, 64, 61
1, 43522, Note_on_c, 0, 69, 46
1, 43525, Control_c, 0, 64, 62
1, 43536, Note_off_c, 0, 65, 56
1, 43540, Control_c, 0, 64, 61
1, 43570, Note_off_c, 0, 69, 63
1, 43605, Note_on_c, 0, 76, 60
1, 43638, Note_off_c, 0, 76, 60
1, 43686, Note_on_c, 0, 69, 57
1, 43695, Control_c, 0, 64, 62
1, 43721, Note_off_c, 0, 69, 64
1, 43725, Control_c, 0, 64, 62
1, 43755, Control_c, 0, 64, 62
1, 43769, Control_c, 0, 64, 60
1, 43784, Control_c, 0, 64, 53
1, 43793, Note_on_c, 0, 65, 52
1, 43799, Control_c, 0, 64, 38
1, 43814, Control_c, 0, 64, 29
1, 43829, Control_c, 0, 64, 37
1, 43843, Control_c, 0, 64, 48
1, 43858, Control_c, 0, 64, 57
1, 43865, Note_on_c, 0, 69, 47
1, 43873, Control_c, 0, 64, 62
1, 43888, Control_c, 0, 64, 65
1, 43903, Control_c, 0, 64, 66
1, 43904, Note_off_c, 0, 65, 52
1, 43910, Note_off_c, 0, 69, 60
1, 43951, Note_on_c, 0, 75, 53
1, 43962, Control_c, 0, 64, 66
1, 43996, Note_off_c, 0, 75, 57
1, 44008, Control_c, 0, 64, 65
1, 44029, Note_on_c, 0, 69, 45
1, 44066, Control_c, 0, 64, 66
1, 44069, Note_off_c, 0, 69, 59
1, 44096, Control_c, 0, 64, 65
1, 44111, Control_c, 0, 64, 60
1, 44126, Control_c, 0, 64, 39
1, 44139, Note_on_c, 0, 64, 45
1, 44140, Control_c, 0, 64, 0
1, 44192, Note_on_c, 0, 68, 60
1, 44200, Control_c, 0, 64, 46
1, 44214, Control_c, 0, 64, 59
1, 44225, Note_off_c, 0, 64, 60
1, 44229, Control_c, 0, 64, 61
1, 44236, Note_off_c, 0, 68, 61
1, 44244, Control_c, 0, 64, 61
1, 44258, Control_c, 0, 64, 58
1, 44273, Control_c, 0, 64, 57
1, 44288, Note_on_c, 0, 76, 50
1, 44288, Control_c, 0, 64, 56
1, 44318, Control_c, 0, 64, 57
1, 44333, Control_c, 0, 64, 57
1, 44342, Note_on_c, 0, 68, 63
1, 44348, Control_c, 0, 64, 58
1, 44363, Control_c, 0, 64, 59
1, 44372, Note_off_c, 0, 68, 68
1, 44378, Control_c, 0, 64, 60
1, 44387, Note_off_c, 0, 76, 37
1, 44392, Control_c, 0, 64, 60
1, 44414, Control_c, 0, 64, 60
1, 44429, Control_c, 0, 64, 57
1, 44444, Control_c, 0, 64, 48
1, 44455, Note_on_c, 0, 68, 67
1, 44459, Control_c, 0, 64, 31
1, 44473, Control_c, 0, 64, 29
1, 44485, Note_off_c, 0, 68, 65
1, 44488, Control_c, 0, 64, 41
1, 44503, Control_c, 0, 64, 50
1, 44518, Control_c, 0, 64, 57
1, 44531, Note_on_c, 0, 71, 65
1, 44533, Control_c, 0, 64, 60
1, 44562, Control_c, 0, 64, 59
1, 44572, Note_off_c, 0, 71, 61
1, 44577, Control_c, 0, 64, 57
1, 44592, Control_c, 0, 64, 57
1, 44613, Note_on_c, 0, 74, 58
1, 44637, Control_c, 0, 64, 57
1, 44655, Note_off_c, 0, 74, 62
1, 44685, Note_on_c, 0, 71, 56
1, 44696, Control_c, 0, 64, 58
1, 44705, Note_off_c, 0, 71, 63
1, 44711, Control_c, 0, 64, 58
1, 44726, Control_c, 0, 64, 59
1, 44740, Control_c, 0, 64, 60
1, 44755, Control_c, 0, 64, 58
1, 44770, Control_c, 0, 64, 53
1, 44785, Note_on_c, 0, 69, 60
1, 44786, Control_c, 0, 64, 42
1, 44801, Control_c, 0, 64, 36
1, 44815, Note_off_c, 0, 69, 67
1, 44816, Control_c, 0, 64, 43
1, 44831, Control_c, 0, 64, 52
1, 44846, Control_c, 0, 64, 58
1, 44860, Control_c, 0, 64, 62
1, 44875, Control_c, 0, 64, 63
1, 44890, Control_c, 0, 64, 63
1, 44899, Note_on_c, 0, 69, 34
1, 44905, Control_c, 0, 64, 62
1, 44920, Control_c, 0, 64, 61
1, 44932, Note_off_c, 0, 69, 56
1, 44955, Note_on_c, 0, 73, 53
1, 45009, Control_c, 0, 64, 62
1, 45012, Note_on_c, 0, 69, 59
1, 45012, Note_off_c, 0, 73, 53
1, 45038, Control_c, 0, 64, 63
1, 45048, Note_off_c, 0, 69, 65
1, 45082, Control_c, 0, 64, 62
1, 45097, Control_c, 0, 64, 57
1, 45099, Note_on_c, 0, 50, 53
1, 45109, Note_on_c, 0, 62, 48
1, 45112, Control_c, 0, 64, 50
1, 45127, Control_c, 0, 64, 48
1, 45142, Control_c, 0, 64, 53
1, 45164, Control_c, 0, 64, 57
1, 45179, Control_c, 0, 64, 60
1, 45193, Note_on_c, 0, 71, 59
1, 45193, Note_off_c, 0, 50, 60
1, 45194, Control_c, 0, 64, 62
1, 45209, Control_c, 0, 64, 63
1, 45223, Control_c, 0, 64, 63
1, 45230, Note_off_c, 0, 71, 65
1, 45238, Control_c, 0, 64, 62
1, 45253, Control_c, 0, 64, 61
1, 45255, Note_on_c, 0, 74, 60
1, 45296, Note_off_c, 0, 74, 59
1, 45327, Control_c, 0, 64, 61
1, 45334, Note_on_c, 0, 71, 65
1, 45382, Note_off_c, 0, 71, 58
1, 45401, Control_c, 0, 64, 61
1, 45406, Note_off_c, 0, 62, 43
1, 45430, Control_c, 0, 64, 61
1, 45445, Note_on_c, 0, 69, 55
1, 45445, Control_c, 0, 64, 57
1, 45449, Note_on_c, 0, 61, 46
1, 45454, Note_on_c, 0, 52, 43
1, 45460, Control_c, 0, 64, 45
1, 45475, Control_c, 0, 64, 0
1, 45549, Note_off_c, 0, 52, 48
1, 45549, Control_c, 0, 64, 48
1, 45564, Control_c, 0, 64, 61
1, 45579, Control_c, 0, 64, 65
1, 45594, Control_c, 0, 64, 68
1, 45609, Control_c, 0, 64, 69
1, 45624, Control_c, 0, 64, 70
1, 45659, Note_off_c, 0, 61, 60
1, 45731, Note_off_c, 0, 69, 35
1, 45787, Control_c, 0, 64, 69
1, 45800, Note_on_c, 0, 52, 36
1, 45802, Control_c, 0, 64, 66
1, 45813, Note_on_c, 0, 59, 38
1, 45817, Control_c, 0, 64, 61
1, 45831, Control_c, 0, 64, 56
1, 45846, Control_c, 0, 64, 58
1, 45861, Control_c, 0, 64, 61
1, 45876, Control_c, 0, 64, 64
1, 45891, Control_c, 0, 64, 67
1, 45898, Note_on_c, 0, 69, 45
1, 45910, Note_off_c, 0, 52, 56
1, 45913, Control_c, 0, 64, 71
1, 45928, Control_c, 0, 64, 72
1, 45939, Note_off_c, 0, 69, 65
1, 45943, Control_c, 0, 64, 72
1, 45957, Control_c, 0, 64, 71
1, 45972, Note_on_c, 0, 68, 47
1, 45972, Control_c, 0, 64, 70
1, 46000, Note_off_c, 0, 68, 64
1, 46028, Note_on_c, 0, 66, 47
1, 46032, Control_c, 0, 64, 69
1, 46055, Note_off_c, 0, 66, 57
1, 46061, Control_c, 0, 64, 68
1, 46076, Control_c, 0, 64, 67
1, 46077, Note_on_c, 0, 68, 62
1, 46091, Control_c, 0, 64, 66
1, 46106, Control_c, 0, 64, 64
1, 46120, Control_c, 0, 64, 62
1, 46135, Note_off_c, 0, 59, 44
1, 46135, Control_c, 0, 64, 61
1, 46150, Control_c, 0, 64, 59
1, 46165, Control_c, 0, 64, 58
1, 46171, Note_off_c, 0, 68, 57
1, 46202, Note_on_c, 0, 49, 48
1, 46238, Control_c, 0, 64, 55
1, 46240, Note_on_c, 0, 69, 51
1, 46253, Control_c, 0, 64, 42
1, 46268, Control_c, 0, 64, 0
1, 46342, Control_c, 0, 64, 44
1, 46357, Control_c, 0, 64, 58
1, 46363, Note_on_c, 0, 57, 44
1, 46372, Control_c, 0, 64, 62
1, 46375, Note_off_c, 0, 49, 45
1, 46388, Control_c, 0, 64, 64
1, 46412, Note_off_c, 0, 57, 62
1, 46439, Note_on_c, 0, 56, 54
1, 46452, Note_off_c, 0, 69, 32
1, 46489, Note_off_c, 0, 56, 59
1, 46521, Note_on_c, 0, 57, 55
1, 46521, Control_c, 0, 64, 63
1, 46536, Control_c, 0, 64, 63
1, 46551, Control_c, 0, 64, 62
1, 46558, Note_off_c, 0, 57, 63
1, 46566, Control_c, 0, 64, 62
1, 46580, Note_on_c, 0, 81, 73
1, 46580, Control_c, 0, 64, 61
1, 46595, Control_c, 0, 64, 60
1, 46603, Note_on_c, 0, 49, 56
1, 46610, Control_c, 0, 64, 58
1, 46625, Control_c, 0, 64, 52
1, 46640, Control_c, 0, 64, 49
1, 46658, Note_off_c, 0, 49, 58
1, 46661, Control_c, 0, 64, 50
1, 46676, Control_c, 0, 64, 52
1, 46691, Control_c, 0, 64, 53
1, 46699, Note_on_c, 0, 57, 51
1, 46706, Control_c, 0, 64, 54
1, 46721, Control_c, 0, 64, 55
1, 46735, Control_c, 0, 64, 56
1, 46744, Note_off_c, 0, 57, 62
1, 46771, Note_on_c, 0, 56, 55
1, 46780, Control_c, 0, 64, 56
1, 46807, Note_off_c, 0, 56, 65
1, 46825, Control_c, 0, 64, 55
1, 46837, Note_on_c, 0, 57, 57
1, 46840, Control_c, 0, 64, 52
1, 46855, Control_c, 0, 64, 42
1, 46869, Control_c, 0, 64, 0
1, 46876, Note_off_c, 0, 57, 64
1, 46921, Note_on_c, 0, 49, 58
1, 46927, Note_on_c, 0, 80, 66
1, 46929, Control_c, 0, 64, 31
1, 46931, Note_off_c, 0, 81, 56
1, 46943, Control_c, 0, 64, 53
1, 46958, Control_c, 0, 64, 61
1, 46968, Note_off_c, 0, 49, 58
1, 46973, Control_c, 0, 64, 64
1, 46987, Control_c, 0, 64, 65
1, 47007, Note_on_c, 0, 57, 53
1, 47017, Control_c, 0, 64, 65
1, 47032, Control_c, 0, 64, 64
1, 47047, Control_c, 0, 64, 64
1, 47051, Note_off_c, 0, 57, 62
1, 47061, Control_c, 0, 64, 63
1, 47087, Note_on_c, 0, 56, 57
1, 47090, Control_c, 0, 64, 63
1, 47105, Control_c, 0, 64, 62
1, 47120, Note_off_c, 0, 80, 35
1, 47120, Control_c, 0, 64, 61
1, 47129, Note_off_c, 0, 56, 64
1, 47135, Control_c, 0, 64, 60
1, 47153, Note_on_c, 0, 57, 56
1, 47180, Control_c, 0, 64, 61
1, 47195, Note_off_c, 0, 57, 61
1, 47195, Control_c, 0, 64, 60
1, 47210, Control_c, 0, 64, 54
1, 47225, Control_c, 0, 64, 17
1, 47230, Note_on_c, 0, 50, 62
1, 47239, Note_on_c, 0, 80, 62
1, 47239, Control_c, 0, 64, 0
1, 47269, Note_off_c, 0, 50, 67
1, 47282, Note_off_c, 0, 80, 65
1, 47285, Note_on_c, 0, 78, 66
1, 47299, Control_c, 0, 64, 34
1, 47305, Note_on_c, 0, 57, 60
1, 47314, Control_c, 0, 64, 53
1, 47323, Note_off_c, 0, 78, 62
1, 47329, Control_c, 0, 64, 56
1, 47341, Note_on_c, 0, 77, 60
1, 47344, Control_c, 0, 64, 54
1, 47347, Note_off_c, 0, 57, 64
1, 47358, Control_c, 0, 64, 52
1, 47373, Control_c, 0, 64, 51
1, 47381, Note_off_c, 0, 77, 65
1, 47389, Note_on_c, 0, 56, 50
1, 47391, Note_on_c, 0, 78, 61
1, 47425, Note_off_c, 0, 78, 66
1, 47425, Control_c, 0, 64, 52
1, 47433, Note_off_c, 0, 56, 63
1, 47439, Control_c, 0, 64, 53
1, 47454, Note_on_c, 0, 57, 60
1, 47454, Control_c, 0, 64, 53
1, 47469, Control_c, 0, 64, 52
1, 47484, Control_c, 0, 64, 48
1, 47496, Note_off_c, 0, 57, 61
1, 47499, Control_c, 0, 64, 41
1, 47513, Control_c, 0, 64, 41
1, 47528, Control_c, 0, 64, 45
1, 47543, Control_c, 0, 64, 50
1, 47551, Note_on_c, 0, 50, 54
1, 47555, Note_on_c, 0, 76, 73
1, 47558, Control_c, 0, 64, 54
1, 47573, Control_c, 0, 64, 55
1, 47588, Control_c, 0, 64, 53
1, 47593, Note_off_c, 0, 50, 66
1, 47594, Note_off_c, 0, 76, 63
1, 47600, Note_on_c, 0, 74, 74
1, 47603, Control_c, 0, 64, 51
1, 47617, Control_c, 0, 64, 50
1, 47627, Note_off_c, 0, 74, 65
1, 47632, Control_c, 0, 64, 50
1, 47640, Note_on_c, 0, 59, 54
1, 47647, Control_c, 0, 64, 51
1, 47650, Note_on_c, 0, 73, 62
1, 47662, Control_c, 0, 64, 52
1, 47677, Control_c, 0, 64, 53
1, 47689, Note_off_c, 0, 59, 58
1, 47693, Note_off_c, 0, 73, 62
1, 47699, Note_on_c, 0, 74, 77
1, 47722, Note_off_c, 0, 74, 69
1, 47727, Note_on_c, 0, 58, 52
1, 47751, Control_c, 0, 64, 52
1, 47764, Note_off_c, 0, 58, 65
1, 47780, Control_c, 0, 64, 53
1, 47795, Control_c, 0, 64, 54
1, 47802, Note_on_c, 0, 59, 55
1, 47809, Control_c, 0, 64, 55
1, 47824, Control_c, 0, 64, 55
1, 47828, Note_off_c, 0, 59, 60
1, 47854, Control_c, 0, 64, 51
1, 47869, Control_c, 0, 64, 28
1, 47880, Note_on_c, 0, 50, 44
1, 47883, Control_c, 0, 64, 0
1, 47886, Note_on_c, 0, 73, 73
1, 47915, Note_off_c, 0, 73, 66
1, 47924, Note_off_c, 0, 50, 64
1, 47940, Note_on_c, 0, 71, 68
1, 47943, Note_on_c, 0, 59, 43
1, 47943, Control_c, 0, 64, 47
1, 47958, Control_c, 0, 64, 60
1, 47973, Control_c, 0, 64, 61
1, 47985, Note_off_c, 0, 59, 60
1, 47988, Note_off_c, 0, 71, 67
1, 47988, Control_c, 0, 64, 59
1, 48002, Note_on_c, 0, 70, 70
1, 48003, Control_c, 0, 64, 56
1, 48018, Control_c, 0, 64, 53
1, 48031, Note_on_c, 0, 58, 47
1, 48032, Control_c, 0, 64, 52
1, 48047, Note_off_c, 0, 70, 64
1, 48047, Control_c, 0, 64, 53
1, 48061, Note_on_c, 0, 71, 69
1, 48064, Note_off_c, 0, 58, 55
1, 48086, Note_on_c, 0, 59, 56
1, 48122, Control_c, 0, 64, 52
1, 48125, Note_off_c, 0, 59, 60
1, 48136, Control_c, 0, 64, 50
1, 48159, Control_c, 0, 64, 47
1, 48174, Control_c, 0, 64, 15
1, 48188, Control_c, 0, 64, 0
1, 48205, Note_off_c, 0, 71, 61
1, 48223, Note_on_c, 0, 52, 49
1, 48236, Note_on_c, 0, 64, 68
1, 48292, Control_c, 0, 64, 44
1, 48306, Control_c, 0, 64, 63
1, 48321, Control_c, 0, 64, 70
1, 48330, Note_off_c, 0, 64, 60
1, 48333, Note_on_c, 0, 61, 53
1, 48336, Control_c, 0, 64, 79
1, 48348, Note_off_c, 0, 52, 46
1, 48351, Control_c, 0, 64, 83
1, 48371, Note_off_c, 0, 61, 64
1, 48404, Note_on_c, 0, 57, 59
1, 48411, Control_c, 0, 64, 82
1, 48426, Control_c, 0, 64, 81
1, 48440, Control_c, 0, 64, 80
1, 48445, Note_off_c, 0, 57, 62
1, 48455, Control_c, 0, 64, 78
1, 48470, Control_c, 0, 64, 77
1, 48473, Note_on_c, 0, 61, 60
1, 48485, Control_c, 0, 64, 77
1, 48500, Control_c, 0, 64, 76
1, 48509, Note_off_c, 0, 61, 63
1, 48514, Control_c, 0, 64, 76
1, 48529, Control_c, 0, 64, 75
1, 48544, Control_c, 0, 64, 73
1, 48545, Note_on_c, 0, 73, 73
1, 48555, Note_on_c, 0, 52, 64
1, 48559, Control_c, 0, 64, 72
1, 48574, Control_c, 0, 64, 69
1, 48575, Note_off_c, 0, 73, 64
1, 48584, Note_off_c, 0, 52, 66
1, 48589, Control_c, 0, 64, 65
1, 48601, Note_on_c, 0, 71, 71
1, 48604, Control_c, 0, 64, 61
1, 48619, Control_c, 0, 64, 54
1, 48628, Note_off_c, 0, 71, 68
1, 48633, Control_c, 0, 64, 51
1, 48644, Note_on_c, 0, 62, 50
1, 48648, Control_c, 0, 64, 50
1, 48656, Note_on_c, 0, 73, 79
1, 48663, Control_c, 0, 64, 50
1, 48682, Note_off_c, 0, 62, 60
1, 48697, Note_off_c, 0, 73, 62
1, 48709, Note_on_c, 0, 71, 76
1, 48715, Note_on_c, 0, 59, 53
1, 48722, Control_c, 0, 64, 50
1, 48734, Note_off_c, 0, 71, 68
1, 48750, Note_off_c, 0, 59, 62
1, 48764, Note_on_c, 0, 73, 73
1, 48780, Note_on_c, 0, 62, 60
1, 48783, Control_c, 0, 64, 51
1, 48796, Note_off_c, 0, 73, 62
1, 48798, Control_c, 0, 64, 51
1, 48812, Control_c, 0, 64, 52
1, 48821, Note_on_c, 0, 71, 72
1, 48822, Note_off_c, 0, 62, 63
1, 48827, Control_c, 0, 64, 51
1, 48842, Control_c, 0, 64, 51
1, 48848, Note_off_c, 0, 71, 67
1, 48856, Note_on_c, 0, 52, 57
1, 48856, Control_c, 0, 64, 50
1, 48871, Note_on_c, 0, 73, 74
1, 48871, Control_c, 0, 64, 49
1, 48886, Control_c, 0, 64, 45
1, 48896, Note_off_c, 0, 52, 62
1, 48909, Control_c, 0, 64, 32
1, 48914, Note_off_c, 0, 73, 61
1, 48923, Control_c, 0, 64, 0
1, 48924, Note_on_c, 0, 71, 69
1, 48942, Note_on_c, 0, 62, 53
1, 48959, Note_off_c, 0, 71, 60
1, 48980, Note_off_c, 0, 62, 62
1, 49000, Note_on_c, 0, 69, 61
1, 49025, Note_on_c, 0, 59, 43
1, 49029, Note_off_c, 0, 69, 66
1, 49053, Note_off_c, 0, 59, 56
1, 49058, Note_on_c, 0, 71, 72
1, 49077, Note_on_c, 0, 62, 55
1, 49108, Note_off_c, 0, 62, 61
1, 49120, Note_off_c, 0, 71, 53
1, 49168, Note_on_c, 0, 69, 75
1, 49170, Note_on_c, 0, 61, 63
1, 49191, Note_on_c, 0, 57, 55
1, 49202, Note_off_c, 0, 61, 64
1, 49204, Note_off_c, 0, 69, 63
1, 49219, Control_c, 0, 64, 60
1, 49221, Note_off_c, 0, 57, 65
1, 49234, Control_c, 0, 64, 68
1, 49249, Control_c, 0, 64, 77
1, 49255, Note_on_c, 0, 76, 75
1, 49263, Control_c, 0, 64, 85
1, 49278, Control_c, 0, 64, 89
1, 49293, Control_c, 0, 64, 91
1, 49298, Note_off_c, 0, 76, 52
1, 49332, Note_on_c, 0, 73, 76
1, 49355, Note_off_c, 0, 73, 68
1, 49384, Note_on_c, 0, 69, 74
1, 49397, Control_c, 0, 64, 90
1, 49412, Control_c, 0, 64, 90
1, 49461, Note_off_c, 0, 69, 61
1, 49471, Note_on_c, 0, 64, 77
1, 49471, Control_c, 0, 64, 89
1, 49486, Control_c, 0, 64, 85
1, 49501, Control_c, 0, 64, 74
1, 49515, Note_off_c, 0, 64, 61
1, 49516, Control_c, 0, 64, 50
1, 49530, Control_c, 0, 64, 0
1, 49642, Note_on_c, 0, 61, 75
1, 49659, Note_on_c, 0, 57, 60
1, 49692, Note_off_c, 0, 61, 59
1, 49697, Note_off_c, 0, 57, 63
1, 49806, Note_on_c, 0, 59, 76
1, 49813, Note_on_c, 0, 56, 61
1, 49837, Note_off_c, 0, 59, 63
1, 49842, Note_off_c, 0, 56, 66
1, 49958, Note_on_c, 0, 62, 70
1, 49971, Note_on_c, 0, 52, 40
1, 49997, Note_off_c, 0, 62, 63
1, 50003, Note_off_c, 0, 52, 54
1, 50120, Note_on_c, 0, 61, 69
1, 50124, Note_on_c, 0, 57, 56
1, 50130, Control_c, 0, 64, 44
1, 50145, Control_c, 0, 64, 66
1, 50151, Note_off_c, 0, 61, 66
1, 50159, Control_c, 0, 64, 76
1, 50168, Note_off_c, 0, 57, 65
1, 50174, Control_c, 0, 64, 88
1, 50189, Control_c, 0, 64, 96
1, 50203, Control_c, 0, 64, 98
1, 50208, Note_on_c, 0, 64, 68
1, 50245, Note_off_c, 0, 64, 60
1, 50285, Note_on_c, 0, 69, 76
1, 50354, Note_off_c, 0, 69, 63
1, 50357, Note_on_c, 0, 73, 78
1, 50428, Note_off_c, 0, 73, 63
1, 50434, Control_c, 0, 64, 97
1, 50441, Note_on_c, 0, 76, 79
1, 50479, Control_c, 0, 64, 97
1, 50480, Note_off_c, 0, 76, 65
1, 50494, Control_c, 0, 64, 95
1, 50508, Control_c, 0, 64, 91
1, 50523, Control_c, 0, 64, 84
1, 50538, Control_c, 0, 64, 74
1, 50553, Control_c, 0, 64, 60
1, 50568, Control_c, 0, 64, 0
1, 50602, Note_on_c, 0, 57, 69
1, 50611, Note_on_c, 0, 61, 83
1, 50644, Note_off_c, 0, 57, 63
1, 50648, Note_off_c, 0, 61, 61
1, 50781, Note_on_c, 0, 62, 71
1, 50787, Note_on_c, 0, 59, 60
1, 50822, Note_off_c, 0, 62, 61
1, 50824, Note_off_c, 0, 59, 61
1, 50976, Note_on_c, 0, 52, 54
1, 50981, Note_on_c, 0, 68, 64
1, 50986, Note_on_c, 0, 59, 46
1, 50990, Note_on_c, 0, 62, 56
1, 51012, Note_off_c, 0, 52, 63
1, 51012, Note_off_c, 0, 59, 59
1, 51017, Note_off_c, 0, 62, 58
1, 51042, Note_off_c, 0, 68, 59
1, 51302, Note_on_c, 0, 69, 52
1, 51302, Control_c, 0, 64, 50
1, 51303, Note_on_c, 0, 57, 35
1, 51306, Note_on_c, 0, 45, 40
1, 51311, Note_on_c, 0, 61, 44
1, 51317, Control_c, 0, 64, 60
1, 51331, Control_c, 0, 64, 65
1, 51346, Control_c, 0, 64, 70
1, 51361, Control_c, 0, 64, 75
1, 51376, Control_c, 0, 64, 79
1, 51377, Note_off_c, 0, 61, 54
1, 51391, Control_c, 0, 64, 82
1, 51401, Note_off_c, 0, 45, 49
1, 51405, Control_c, 0, 64, 85
1, 51409, Note_off_c, 0, 69, 54
1, 51420, Control_c, 0, 64, 87
1, 51435, Control_c, 0, 64, 89
1, 51445, Note_off_c, 0, 57, 36
1, 51449, Control_c, 0, 64, 90
1, 51509, Control_c, 0, 64, 90
1, 51598, Control_c, 0, 64, 90
1, 51687, Control_c, 0, 64, 89
1, 51702, Control_c, 0, 64, 88
1, 51717, Control_c, 0, 64, 86
1, 51731, Control_c, 0, 64, 84
1, 51746, Control_c, 0, 64, 83
1, 51761, Control_c, 0, 64, 82
1, 51776, Control_c, 0, 64, 81
1, 51791, Control_c, 0, 64, 79
1, 51806, Control_c, 0, 64, 77
1, 51821, Control_c, 0, 64, 75
1, 51836, Control_c, 0, 64, 71
1, 51850, Control_c, 0, 64, 66
1, 51859, Note_on_c, 0, 76, 58
1, 51865, Control_c, 0, 64, 62
1, 51880, Control_c, 0, 64, 56
1, 51888, Note_off_c, 0, 76, 63
1, 51902, Control_c, 0, 64, 51
1, 51916, Note_on_c, 0, 78, 66
1, 51917, Control_c, 0, 64, 48
1, 51931, Control_c, 0, 64, 46
1, 51946, Control_c, 0, 64, 45
1, 51967, Note_on_c, 0, 76, 74
1, 51973, Note_off_c, 0, 78, 61
1, 51977, Control_c, 0, 64, 44
1, 51992, Control_c, 0, 64, 40
1, 52007, Control_c, 0, 64, 31
1, 52011, Note_off_c, 0, 76, 61
1, 52021, Note_on_c, 0, 75, 70
1, 52022, Control_c, 0, 64, 0
1, 52067, Note_off_c, 0, 75, 62
1, 52068, Note_on_c, 0, 76, 75
1, 52244, Control_c, 0, 64, 55
1, 52259, Control_c, 0, 64, 67
1, 52273, Control_c, 0, 64, 78
1, 52288, Control_c, 0, 64, 91
1, 52303, Control_c, 0, 64, 99
1, 52318, Control_c, 0, 64, 100
1, 52360, Note_on_c, 0, 81, 66
1, 52364, Note_off_c, 0, 76, 37
1, 52466, Control_c, 0, 64, 99
1, 52480, Control_c, 0, 64, 99
1, 52495, Control_c, 0, 64, 97
1, 52510, Control_c, 0, 64, 96
1, 52525, Control_c, 0, 64, 94
1, 52532, Note_on_c, 0, 57, 43
1, 52540, Control_c, 0, 64, 92
1, 52544, Note_off_c, 0, 81, 58
1, 52554, Control_c, 0, 64, 90
1, 52563, Note_on_c, 0, 79, 58
1, 52569, Control_c, 0, 64, 88
1, 52584, Control_c, 0, 64, 86
1, 52599, Control_c, 0, 64, 84
1, 52614, Control_c, 0, 64, 82
1, 52629, Control_c, 0, 64, 81
1, 52651, Control_c, 0, 64, 79
1, 52666, Control_c, 0, 64, 77
1, 52680, Control_c, 0, 64, 75
1, 52695, Control_c, 0, 64, 72
1, 52710, Control_c, 0, 64, 70
1, 52725, Control_c, 0, 64, 67
1, 52736, Note_on_c, 0, 61, 45
1, 52740, Control_c, 0, 64, 65
1, 52754, Control_c, 0, 64, 63
1, 52769, Control_c, 0, 64, 62
1, 52785, Control_c, 0, 64, 61
1, 52829, Control_c, 0, 64, 60
1, 52844, Control_c, 0, 64, 59
1, 52903, Control_c, 0, 64, 59
1, 52913, Note_on_c, 0, 64, 38
1, 52918, Note_off_c, 0, 61, 41
1, 52918, Control_c, 0, 64, 58
1, 52933, Control_c, 0, 64, 58
1, 52963, Control_c, 0, 64, 57
1, 52992, Control_c, 0, 64, 56
1, 53007, Control_c, 0, 64, 55
1, 53022, Control_c, 0, 64, 54
1, 53037, Control_c, 0, 64, 53
1, 53044, Note_on_c, 0, 76, 57
1, 53049, Note_on_c, 0, 61, 41
1, 53055, Note_off_c, 0, 64, 26
1, 53082, Control_c, 0, 64, 52
1, 53096, Control_c, 0, 64, 51
1, 53111, Control_c, 0, 64, 50
1, 53126, Control_c, 0, 64, 50
1, 53141, Control_c, 0, 64, 49
1, 53156, Control_c, 0, 64, 48
1, 53164, Note_off_c, 0, 61, 47
1, 53171, Control_c, 0, 64, 47
1, 53181, Note_off_c, 0, 79, 18
1, 53185, Control_c, 0, 64, 46
1, 53200, Control_c, 0, 64, 46
1, 53202, Note_off_c, 0, 76, 57
1, 53215, Control_c, 0, 64, 45
1, 53219, Note_on_c, 0, 62, 41
1, 53222, Note_on_c, 0, 78, 54
1, 53229, Control_c, 0, 64, 45
1, 53244, Control_c, 0, 64, 44
1, 53259, Control_c, 0, 64, 44
1, 53272, Note_off_c, 0, 62, 56
1, 53274, Control_c, 0, 64, 43
1, 53289, Control_c, 0, 64, 42
1, 53303, Control_c, 0, 64, 41
1, 53318, Control_c, 0, 64, 40
1, 53333, Control_c, 0, 64, 39
1, 53348, Control_c, 0, 64, 38
1, 53358, Note_off_c, 0, 78, 50
1, 53363, Note_on_c, 0, 66, 55
1, 53363, Control_c, 0, 64, 34
1, 53368, Note_on_c, 0, 74, 51
1, 53377, Control_c, 0, 64, 31
1, 53386, Note_off_c, 0, 66, 64
1, 53400, Control_c, 0, 64, 28
1, 53415, Control_c, 0, 64, 27
1, 53429, Control_c, 0, 64, 26
1, 53444, Control_c, 0, 64, 26
1, 53459, Control_c, 0, 64, 25
1, 53474, Control_c, 0, 64, 21
1, 53489, Control_c, 0, 64, 19
1, 53503, Control_c, 0, 64, 15
1, 53518, Control_c, 0, 64, 9
1, 53524, Note_off_c, 0, 74, 63
1, 53533, Control_c, 0, 64, 0
1, 53560, Note_on_c, 0, 73, 55
1, 53562, Note_on_c, 0, 67, 49
1, 53702, Note_off_c, 0, 73, 53
1, 53709, Note_on_c, 0, 69, 51
1, 53736, Note_off_c, 0, 67, 53
1, 53741, Control_c, 0, 64, 40
1, 53756, Control_c, 0, 64, 63
1, 53770, Control_c, 0, 64, 71
1, 53785, Control_c, 0, 64, 80
1, 53800, Control_c, 0, 64, 88
1, 53815, Control_c, 0, 64, 91
1, 53821, Note_off_c, 0, 69, 54
1, 53869, Note_on_c, 0, 76, 57
1, 53948, Control_c, 0, 64, 91
1, 53963, Control_c, 0, 64, 90
1, 53977, Control_c, 0, 64, 89
1, 53992, Control_c, 0, 64, 87
1, 53996, Note_off_c, 0, 76, 31
1, 54007, Control_c, 0, 64, 86
1, 54022, Note_on_c, 0, 73, 62
1, 54022, Control_c, 0, 64, 84
1, 54033, Note_on_c, 0, 64, 43
1, 54037, Control_c, 0, 64, 84
1, 54051, Control_c, 0, 64, 83
1, 54066, Control_c, 0, 64, 82
1, 54081, Control_c, 0, 64, 79
1, 54096, Control_c, 0, 64, 73
1, 54111, Control_c, 0, 64, 64
1, 54112, Note_off_c, 0, 64, 48
1, 54125, Control_c, 0, 64, 41
1, 54135, Note_off_c, 0, 73, 53
1, 54140, Control_c, 0, 64, 0
1, 54177, Control_c, 0, 64, 41
1, 54187, Note_on_c, 0, 74, 64
1, 54192, Control_c, 0, 64, 59
1, 54194, Note_on_c, 0, 66, 42
1, 54207, Control_c, 0, 64, 67
1, 54222, Control_c, 0, 64, 77
1, 54237, Control_c, 0, 64, 89
1, 54251, Control_c, 0, 64, 94
1, 54266, Control_c, 0, 64, 95
1, 54313, Note_off_c, 0, 74, 54
1, 54322, Note_off_c, 0, 66, 60
1, 54325, Control_c, 0, 64, 94
1, 54338, Note_on_c, 0, 78, 69
1, 54351, Note_off_c, 0, 57, 41
1, 54352, Note_on_c, 0, 62, 49
1, 54386, Control_c, 0, 64, 94
1, 54395, Note_off_c, 0, 62, 60
1, 54400, Control_c, 0, 64, 93
1, 54415, Control_c, 0, 64, 92
1, 54429, Note_off_c, 0, 78, 54
1, 54430, Control_c, 0, 64, 91
1, 54445, Control_c, 0, 64, 91
1, 54460, Control_c, 0, 64, 90
1, 54474, Control_c, 0, 64, 88
1, 54489, Control_c, 0, 64, 86
1, 54504, Control_c, 0, 64, 84
1, 54513, Note_on_c, 0, 79, 68
1, 54519, Control_c, 0, 64, 82
1, 54523, Note_on_c, 0, 61, 58
1, 54534, Control_c, 0, 64, 81
1, 54548, Control_c, 0, 64, 79
1, 54563, Control_c, 0, 64, 76
1, 54579, Control_c, 0, 64, 73
1, 54593, Control_c, 0, 64, 70
1, 54608, Control_c, 0, 64, 66
1, 54623, Control_c, 0, 64, 63
1, 54638, Control_c, 0, 64, 60
1, 54653, Control_c, 0, 64, 57
1, 54668, Control_c, 0, 64, 55
1, 54671, Note_off_c, 0, 61, 35
1, 54674, Note_on_c, 0, 57, 52
1, 54683, Control_c, 0, 64, 55
1, 54697, Control_c, 0, 64, 54
1, 54712, Control_c, 0, 64, 54
1, 54727, Control_c, 0, 64, 52
1, 54742, Control_c, 0, 64, 50
1, 54757, Control_c, 0, 64, 49
1, 54772, Control_c, 0, 64, 48
1, 54787, Control_c, 0, 64, 47
1, 54801, Control_c, 0, 64, 45
1, 54816, Control_c, 0, 64, 41
1, 54831, Control_c, 0, 64, 37
1, 54846, Control_c, 0, 64, 35
1, 54848, Note_on_c, 0, 64, 57
1, 54861, Control_c, 0, 64, 34
1, 54897, Control_c, 0, 64, 33
1, 54912, Control_c, 0, 64, 33
1, 54927, Control_c, 0, 64, 32
1, 54957, Control_c, 0, 64, 33
1, 54998, Note_on_c, 0, 61, 54
1, 54999, Note_on_c, 0, 76, 66
1, 55031, Control_c, 0, 64, 33
1, 55046, Control_c, 0, 64, 34
1, 55059, Note_off_c, 0, 64, 37
1, 55090, Control_c, 0, 64, 34
1, 55092, Note_off_c, 0, 79, 23
1, 55105, Control_c, 0, 64, 35
1, 55133, Note_off_c, 0, 61, 55
1, 55134, Control_c, 0, 64, 35
1, 55149, Control_c, 0, 64, 36
1, 55159, Note_on_c, 0, 62, 54
1, 55159, Note_off_c, 0, 76, 59
1, 55161, Note_on_c, 0, 78, 66
1, 55195, Control_c, 0, 64, 36
1, 55201, Note_off_c, 0, 62, 61
1, 55292, Note_off_c, 0, 78, 57
1, 55318, Note_on_c, 0, 66, 59
1, 55323, Note_on_c, 0, 74, 52
1, 55343, Control_c, 0, 64, 36
1, 55350, Note_off_c, 0, 66, 64
1, 55387, Control_c, 0, 64, 35
1, 55431, Control_c, 0, 64, 34
1, 55446, Control_c, 0, 64, 34
1, 55455, Note_off_c, 0, 74, 61
1, 55461, Control_c, 0, 64, 33
1, 55476, Control_c, 0, 64, 33
1, 55501, Note_on_c, 0, 73, 57
1, 55508, Note_on_c, 0, 67, 51
1, 55520, Control_c, 0, 64, 31
1, 55535, Control_c, 0, 64, 21
1, 55550, Control_c, 0, 64, 0
1, 55636, Note_off_c, 0, 73, 54
1, 55658, Note_on_c, 0, 69, 56
1, 55661, Control_c, 0, 64, 55
1, 55676, Control_c, 0, 64, 66
1, 55691, Control_c, 0, 64, 74
1, 55703, Note_off_c, 0, 67, 61
1, 55705, Control_c, 0, 64, 84
1, 55720, Control_c, 0, 64, 90
1, 55735, Control_c, 0, 64, 91
1, 55830, Note_on_c, 0, 76, 68
1, 55838, Note_off_c, 0, 69, 36
1, 55942, Note_off_c, 0, 76, 59
1, 55942, Control_c, 0, 64, 91
1, 55957, Control_c, 0, 64, 89
1, 55964, Note_on_c, 0, 73, 65
1, 55973, Control_c, 0, 64, 88
1, 55985, Note_on_c, 0, 64, 45
1, 55988, Control_c, 0, 64, 85
1, 56003, Control_c, 0, 64, 83
1, 56018, Control_c, 0, 64, 81
1, 56033, Control_c, 0, 64, 80
1, 56047, Control_c, 0, 64, 79
1, 56062, Control_c, 0, 64, 74
1, 56077, Control_c, 0, 64, 63
1, 56086, Note_off_c, 0, 73, 61
1, 56092, Control_c, 0, 64, 0
1, 56146, Note_on_c, 0, 74, 68
1, 56161, Note_off_c, 0, 64, 44
1, 56164, Note_on_c, 0, 66, 47
1, 56174, Note_off_c, 0, 57, 47
1, 56180, Control_c, 0, 64, 50
1, 56195, Control_c, 0, 64, 64
1, 56210, Control_c, 0, 64, 71
1, 56225, Control_c, 0, 64, 79
1, 56239, Control_c, 0, 64, 81
1, 56269, Control_c, 0, 64, 82
1, 56298, Note_off_c, 0, 74, 39
1, 56302, Note_off_c, 0, 66, 30
1, 56304, Note_on_c, 0, 86, 74
1, 56425, Control_c, 0, 64, 81
1, 56440, Control_c, 0, 64, 81
1, 56454, Control_c, 0, 64, 80
1, 56469, Control_c, 0, 64, 79
1, 56484, Control_c, 0, 64, 79
1, 56500, Note_on_c, 0, 62, 47
1, 56507, Note_off_c, 0, 86, 54
1, 56514, Control_c, 0, 64, 78
1, 56520, Note_on_c, 0, 84, 71
1, 56528, Control_c, 0, 64, 78
1, 56543, Control_c, 0, 64, 77
1, 56558, Control_c, 0, 64, 75
1, 56572, Control_c, 0, 64, 73
1, 56587, Control_c, 0, 64, 71
1, 56602, Control_c, 0, 64, 67
1, 56617, Control_c, 0, 64, 64
1, 56632, Control_c, 0, 64, 62
1, 56647, Control_c, 0, 64, 59
1, 56662, Control_c, 0, 64, 58
1, 56692, Note_on_c, 0, 66, 54
1, 56721, Control_c, 0, 64, 58
1, 56838, Note_on_c, 0, 69, 61
1, 56863, Note_off_c, 0, 66, 37
1, 57000, Note_on_c, 0, 66, 51
1, 57004, Note_on_c, 0, 81, 71
1, 57018, Control_c, 0, 64, 57
1, 57029, Note_off_c, 0, 69, 57
1, 57033, Control_c, 0, 64, 56
1, 57092, Control_c, 0, 64, 56
1, 57122, Control_c, 0, 64, 55
1, 57144, Control_c, 0, 64, 54
1, 57148, Note_off_c, 0, 66, 38
1, 57154, Note_off_c, 0, 84, 36
1, 57169, Note_on_c, 0, 67, 65
1, 57169, Note_on_c, 0, 83, 74
1, 57169, Note_off_c, 0, 81, 58
1, 57189, Control_c, 0, 64, 53
1, 57203, Control_c, 0, 64, 52
1, 57207, Note_off_c, 0, 67, 61
1, 57218, Control_c, 0, 64, 50
1, 57233, Control_c, 0, 64, 50
1, 57248, Control_c, 0, 64, 50
1, 57299, Note_off_c, 0, 83, 60
1, 57307, Control_c, 0, 64, 50
1, 57322, Control_c, 0, 64, 49
1, 57323, Note_on_c, 0, 71, 64
1, 57323, Note_on_c, 0, 79, 68
1, 57337, Control_c, 0, 64, 49
1, 57349, Note_off_c, 0, 71, 65
1, 57351, Control_c, 0, 64, 48
1, 57366, Control_c, 0, 64, 47
1, 57381, Control_c, 0, 64, 46
1, 57395, Control_c, 0, 64, 44
1, 57410, Control_c, 0, 64, 43
1, 57425, Control_c, 0, 64, 41
1, 57440, Control_c, 0, 64, 40
1, 57476, Note_off_c, 0, 79, 59
1, 57485, Control_c, 0, 64, 39
1, 57499, Control_c, 0, 64, 38
1, 57500, Note_on_c, 0, 72, 62
1, 57503, Note_on_c, 0, 78, 67
1, 57514, Control_c, 0, 64, 37
1, 57529, Control_c, 0, 64, 37
1, 57544, Control_c, 0, 64, 32
1, 57559, Control_c, 0, 64, 0
1, 57653, Note_on_c, 0, 74, 66
1, 57663, Control_c, 0, 64, 48
1, 57665, Note_off_c, 0, 72, 63
1, 57678, Control_c, 0, 64, 64
1, 57687, Note_off_c, 0, 78, 37
1, 57693, Control_c, 0, 64, 72
1, 57708, Control_c, 0, 64, 82
1, 57723, Control_c, 0, 64, 89
1, 57738, Control_c, 0, 64, 93
1, 57753, Control_c, 0, 64, 94
1, 57775, Note_off_c, 0, 74, 54
1, 57813, Note_on_c, 0, 81, 76
1, 57871, Control_c, 0, 64, 94
1, 57908, Control_c, 0, 64, 93
1, 57923, Control_c, 0, 64, 91
1, 57938, Control_c, 0, 64, 88
1, 57941, Note_off_c, 0, 81, 60
1, 57953, Control_c, 0, 64, 86
1, 57962, Note_on_c, 0, 78, 78
1, 57967, Control_c, 0, 64, 83
1, 57976, Note_on_c, 0, 69, 62
1, 57982, Control_c, 0, 64, 80
1, 57997, Control_c, 0, 64, 77
1, 58012, Control_c, 0, 64, 74
1, 58026, Control_c, 0, 64, 71
1, 58041, Control_c, 0, 64, 68
1, 58056, Control_c, 0, 64, 68
1, 58071, Control_c, 0, 64, 67
1, 58086, Control_c, 0, 64, 65
1, 58090, Note_off_c, 0, 69, 57
1, 58100, Control_c, 0, 64, 53
1, 58106, Note_off_c, 0, 78, 57
1, 58115, Control_c, 0, 64, 0
1, 58128, Note_on_c, 0, 79, 78
1, 58140, Note_on_c, 0, 71, 55
1, 58204, Control_c, 0, 64, 40
1, 58218, Control_c, 0, 64, 63
1, 58233, Control_c, 0, 64, 71
1, 58242, Note_off_c, 0, 62, 58
1, 58248, Control_c, 0, 64, 80
1, 58263, Control_c, 0, 64, 87
1, 58268, Note_off_c, 0, 79, 37
1, 58273, Note_on_c, 0, 83, 84
1, 58278, Control_c, 0, 64, 89
1, 58284, Note_off_c, 0, 71, 35
1, 58288, Note_on_c, 0, 67, 58
1, 58329, Note_off_c, 0, 67, 61
1, 58359, Note_off_c, 0, 83, 53
1, 58383, Control_c, 0, 64, 88
1, 58397, Control_c, 0, 64, 87
1, 58412, Control_c, 0, 64, 86
1, 58427, Control_c, 0, 64, 84
1, 58441, Control_c, 0, 64, 82
1, 58449, Note_on_c, 0, 84, 75
1, 58456, Control_c, 0, 64, 81
1, 58461, Note_on_c, 0, 66, 54
1, 58471, Control_c, 0, 64, 79
1, 58486, Control_c, 0, 64, 78
1, 58501, Control_c, 0, 64, 75
1, 58516, Control_c, 0, 64, 73
1, 58531, Control_c, 0, 64, 71
1, 58546, Control_c, 0, 64, 68
1, 58560, Control_c, 0, 64, 64
1, 58575, Control_c, 0, 64, 60
1, 58576, Note_off_c, 0, 66, 51
1, 58590, Control_c, 0, 64, 56
1, 58605, Control_c, 0, 64, 52
1, 58605, Note_on_c, 0, 62, 60
1, 58620, Control_c, 0, 64, 51
1, 58671, Control_c, 0, 64, 50
1, 58686, Control_c, 0, 64, 50
1, 58701, Control_c, 0, 64, 49
1, 58731, Control_c, 0, 64, 49
1, 58746, Control_c, 0, 64, 48
1, 58775, Control_c, 0, 64, 47
1, 58779, Note_on_c, 0, 69, 67
1, 58790, Control_c, 0, 64, 47
1, 58928, Note_on_c, 0, 66, 57
1, 58932, Note_on_c, 0, 81, 67
1, 58952, Note_off_c, 0, 69, 57
1, 59027, Control_c, 0, 64, 46
1, 59041, Control_c, 0, 64, 46
1, 59067, Note_off_c, 0, 84, 35
1, 59070, Note_off_c, 0, 66, 52
1, 59080, Note_off_c, 0, 81, 60
1, 59083, Note_on_c, 0, 83, 70
1, 59086, Control_c, 0, 64, 47
1, 59090, Note_on_c, 0, 67, 58
1, 59101, Control_c, 0, 64, 48
1, 59115, Control_c, 0, 64, 49
1, 59124, Note_off_c, 0, 67, 64
1, 59211, Note_off_c, 0, 83, 56
1, 59238, Note_on_c, 0, 71, 61
1, 59242, Note_on_c, 0, 79, 57
1, 59274, Note_off_c, 0, 71, 62
1, 59294, Control_c, 0, 64, 48
1, 59309, Control_c, 0, 64, 47
1, 59324, Control_c, 0, 64, 47
1, 59339, Control_c, 0, 64, 46
1, 59354, Control_c, 0, 64, 44
1, 59369, Control_c, 0, 64, 43
1, 59389, Note_off_c, 0, 79, 60
1, 59390, Control_c, 0, 64, 43
1, 59405, Control_c, 0, 64, 42
1, 59431, Note_on_c, 0, 78, 61
1, 59432, Note_on_c, 0, 72, 52
1, 59450, Control_c, 0, 64, 43
1, 59464, Control_c, 0, 64, 44
1, 59494, Control_c, 0, 64, 41
1, 59509, Control_c, 0, 64, 29
1, 59524, Control_c, 0, 64, 0
1, 59549, Note_off_c, 0, 78, 54
1, 59583, Note_on_c, 0, 74, 55
1, 59598, Control_c, 0, 64, 27
1, 59613, Control_c, 0, 64, 58
1, 59628, Control_c, 0, 64, 67
1, 59643, Control_c, 0, 64, 75
1, 59647, Note_off_c, 0, 72, 53
1, 59658, Control_c, 0, 64, 81
1, 59672, Control_c, 0, 64, 84
1, 59733, Note_on_c, 0, 81, 56
1, 59864, Control_c, 0, 64, 83
1, 59879, Control_c, 0, 64, 81
1, 59890, Note_on_c, 0, 69, 47
1, 59892, Note_on_c, 0, 78, 61
1, 59894, Control_c, 0, 64, 79
1, 59907, Note_off_c, 0, 81, 36
1, 59909, Control_c, 0, 64, 77
1, 59923, Control_c, 0, 64, 74
1, 59938, Control_c, 0, 64, 72
1, 59953, Control_c, 0, 64, 70
1, 59969, Control_c, 0, 64, 68
1, 59984, Note_off_c, 0, 74, 44
1, 59984, Control_c, 0, 64, 66
1, 59989, Note_off_c, 0, 69, 54
1, 59999, Control_c, 0, 64, 65
1, 60013, Control_c, 0, 64, 62
1, 60028, Control_c, 0, 64, 53
1, 60031, Note_off_c, 0, 78, 53
1, 60043, Control_c, 0, 64, 9
1, 60053, Note_on_c, 0, 79, 64
1, 60058, Control_c, 0, 64, 0
1, 60059, Note_on_c, 0, 71, 45
1, 60155, Control_c, 0, 64, 49
1, 60169, Control_c, 0, 64, 61
1, 60184, Control_c, 0, 64, 66
1, 60185, Note_off_c, 0, 71, 55
1, 60199, Control_c, 0, 64, 70
1, 60213, Note_on_c, 0, 67, 44
1, 60213, Note_off_c, 0, 79, 36
1, 60213, Control_c, 0, 64, 73
1, 60221, Note_on_c, 0, 83, 59
1, 60228, Control_c, 0, 64, 74
1, 60269, Note_off_c, 0, 83, 57
1, 60302, Control_c, 0, 64, 73
1, 60305, Note_off_c, 0, 67, 54
1, 60317, Control_c, 0, 64, 73
1, 60361, Control_c, 0, 64, 72
1, 60373, Note_on_c, 0, 72, 65
1, 60376, Control_c, 0, 64, 69
1, 60377, Note_on_c, 0, 69, 50
1, 60391, Control_c, 0, 64, 62
1, 60406, Control_c, 0, 64, 0
1, 60480, Control_c, 0, 64, 48
1, 60495, Control_c, 0, 64, 63
1, 60510, Control_c, 0, 64, 67
1, 60525, Note_off_c, 0, 69, 35
1, 60525, Control_c, 0, 64, 71
1, 60532, Note_on_c, 0, 66, 49
1, 60532, Note_on_c, 0, 81, 64
1, 60539, Control_c, 0, 64, 72
1, 60540, Note_off_c, 0, 72, 55
1, 60603, Note_off_c, 0, 81, 62
1, 60659, Note_off_c, 0, 66, 32
1, 60687, Control_c, 0, 64, 70
1, 60697, Note_on_c, 0, 71, 70
1, 60698, Note_on_c, 0, 67, 55
1, 60702, Control_c, 0, 64, 64
1, 60717, Control_c, 0, 64, 40
1, 60722, Note_off_c, 0, 62, 42
1, 60732, Control_c, 0, 64, 0
1, 60792, Note_off_c, 0, 67, 59
1, 60792, Control_c, 0, 64, 46
1, 60807, Control_c, 0, 64, 63
1, 60822, Control_c, 0, 64, 69
1, 60836, Control_c, 0, 64, 76
1, 60851, Control_c, 0, 64, 78
1, 60861, Note_on_c, 0, 79, 73
1, 60868, Note_off_c, 0, 71, 63
1, 60936, Note_off_c, 0, 79, 57
1, 60977, Control_c, 0, 64, 78
1, 60992, Control_c, 0, 64, 77
1, 61007, Control_c, 0, 64, 77
1, 61035, Note_on_c, 0, 69, 71
1, 61036, Control_c, 0, 64, 76
1, 61037, Note_on_c, 0, 63, 50
1, 61041, Note_on_c, 0, 72, 48
1, 61051, Control_c, 0, 64, 76
1, 61066, Control_c, 0, 64, 75
1, 61081, Control_c, 0, 64, 74
1, 61096, Control_c, 0, 64, 71
1, 61110, Control_c, 0, 64, 62
1, 61125, Control_c, 0, 64, 0
1, 61184, Note_off_c, 0, 63, 62
1, 61186, Note_off_c, 0, 72, 59
1, 61199, Control_c, 0, 64, 29
1, 61203, Note_on_c, 0, 78, 71
1, 61214, Control_c, 0, 64, 58
1, 61223, Note_off_c, 0, 69, 59
1, 61229, Control_c, 0, 64, 66
1, 61243, Control_c, 0, 64, 72
1, 61258, Control_c, 0, 64, 77
1, 61273, Control_c, 0, 64, 77
1, 61285, Note_off_c, 0, 78, 57
1, 61363, Control_c, 0, 64, 76
1, 61378, Control_c, 0, 64, 76
1, 61383, Note_on_c, 0, 71, 51
1, 61388, Note_on_c, 0, 67, 68
1, 61393, Control_c, 0, 64, 75
1, 61398, Note_on_c, 0, 64, 38
1, 61407, Control_c, 0, 64, 74
1, 61437, Control_c, 0, 64, 73
1, 61452, Control_c, 0, 64, 71
1, 61467, Control_c, 0, 64, 66
1, 61482, Control_c, 0, 64, 55
1, 61497, Control_c, 0, 64, 0
1, 61572, Note_off_c, 0, 67, 47
1, 61586, Control_c, 0, 64, 47
1, 61588, Note_on_c, 0, 79, 73
1, 61598, Note_off_c, 0, 71, 60
1, 61601, Control_c, 0, 64, 64
1, 61616, Control_c, 0, 64, 72
1, 61638, Control_c, 0, 64, 80
1, 61640, Note_on_c, 0, 76, 38
1, 61653, Control_c, 0, 64, 83
1, 61676, Note_off_c, 0, 76, 52
1, 61682, Note_off_c, 0, 79, 58
1, 61697, Control_c, 0, 64, 83
1, 61712, Control_c, 0, 64, 82
1, 61727, Control_c, 0, 64, 79
1, 61741, Control_c, 0, 64, 72
1, 61754, Note_on_c, 0, 79, 66
1, 61756, Note_on_c, 0, 76, 65
1, 61756, Control_c, 0, 64, 64
1, 61771, Control_c, 0, 64, 53
1, 61786, Control_c, 0, 64, 53
1, 61801, Control_c, 0, 64, 60
1, 61816, Control_c, 0, 64, 65
1, 61817, Note_off_c, 0, 76, 58
1, 61831, Control_c, 0, 64, 71
1, 61846, Control_c, 0, 64, 76
1, 61875, Control_c, 0, 64, 72
1, 61882, Note_off_c, 0, 79, 55
1, 61890, Control_c, 0, 64, 65
1, 61905, Control_c, 0, 64, 56
1, 61906, Note_on_c, 0, 78, 72
1, 61919, Note_on_c, 0, 74, 62
1, 61920, Control_c, 0, 64, 53
1, 61934, Control_c, 0, 64, 60
1, 61949, Control_c, 0, 64, 65
1, 61964, Control_c, 0, 64, 69
1, 61968, Note_off_c, 0, 78, 63
1, 61979, Control_c, 0, 64, 71
1, 61993, Control_c, 0, 64, 70
1, 62008, Control_c, 0, 64, 70
1, 62017, Note_off_c, 0, 74, 62
1, 62023, Control_c, 0, 64, 69
1, 62053, Control_c, 0, 64, 66
1, 62066, Control_c, 0, 64, 59
1, 62066, Note_on_c, 0, 76, 73
1, 62081, Control_c, 0, 64, 27
1, 62087, Note_on_c, 0, 73, 51
1, 62096, Control_c, 0, 64, 0
1, 62133, Note_off_c, 0, 73, 44
1, 62140, Control_c, 0, 64, 37
1, 62155, Control_c, 0, 64, 56
1, 62170, Control_c, 0, 64, 62
1, 62184, Control_c, 0, 64, 63
1, 62199, Control_c, 0, 64, 63
1, 62206, Note_off_c, 0, 76, 56
1, 62214, Control_c, 0, 64, 62
1, 62221, Note_on_c, 0, 74, 64
1, 62229, Control_c, 0, 64, 61
1, 62232, Note_on_c, 0, 71, 55
1, 62273, Control_c, 0, 64, 62
1, 62306, Note_off_c, 0, 71, 43
1, 62332, Control_c, 0, 64, 62
1, 62363, Control_c, 0, 64, 62
1, 62385, Control_c, 0, 64, 60
1, 62398, Note_off_c, 0, 74, 62
1, 62400, Control_c, 0, 64, 53
1, 62415, Control_c, 0, 64, 37
1, 62424, Note_on_c, 0, 73, 54
1, 62430, Control_c, 0, 64, 0
1, 62434, Note_on_c, 0, 70, 48
1, 62534, Control_c, 0, 64, 44
1, 62549, Control_c, 0, 64, 62
1, 62563, Control_c, 0, 64, 68
1, 62578, Control_c, 0, 64, 73
1, 62582, Note_on_c, 0, 67, 37
1, 62593, Control_c, 0, 64, 75
1, 62622, Control_c, 0, 64, 73
1, 62637, Control_c, 0, 64, 71
1, 62652, Control_c, 0, 64, 69
1, 62667, Control_c, 0, 64, 68
1, 62681, Control_c, 0, 64, 68
1, 62723, Note_off_c, 0, 67, 38
1, 62729, Note_off_c, 0, 64, 41
1, 62740, Control_c, 0, 64, 66
1, 62755, Control_c, 0, 64, 60
1, 62764, Note_off_c, 0, 70, 37
1, 62764, Note_on_c, 0, 74, 56
1, 62765, Note_on_c, 0, 62, 38
1, 62770, Control_c, 0, 64, 31
1, 62779, Note_on_c, 0, 71, 42
1, 62785, Note_off_c, 0, 73, 42
1, 62785, Control_c, 0, 64, 0
1, 62889, Control_c, 0, 64, 53
1, 62904, Control_c, 0, 64, 64
1, 62919, Control_c, 0, 64, 68
1, 62924, Note_off_c, 0, 71, 30
1, 62932, Note_on_c, 0, 66, 46
1, 62933, Control_c, 0, 64, 72
1, 62948, Control_c, 0, 64, 73
1, 62960, Note_off_c, 0, 74, 0
1, 62968, Note_off_c, 0, 62, 41
1, 62993, Control_c, 0, 64, 72
1, 62998, Poly_aftertouch_c, 0, 74, 127
1, 63000, Note_off_c, 0, 66, 49
1, 63007, Control_c, 0, 64, 70
1, 63022, Control_c, 0, 64, 68
1, 63037, Control_c, 0, 64, 66
1, 63052, Control_c, 0, 64, 65
1, 63063, Poly_aftertouch_c, 0, 74, 0
1, 63109, Note_on_c, 0, 61, 36
1, 63111, Control_c, 0, 64, 63
1, 63126, Note_on_c, 0, 76, 44
1, 63126, Control_c, 0, 64, 52
1, 63147, Note_on_c, 0, 73, 39
1, 63148, Control_c, 0, 64, 0
1, 63223, Control_c, 0, 64, 19
1, 63238, Control_c, 0, 64, 57
1, 63253, Control_c, 0, 64, 67
1, 63268, Control_c, 0, 64, 74
1, 63282, Note_on_c, 0, 70, 48
1, 63282, Control_c, 0, 64, 80
1, 63297, Control_c, 0, 64, 81
1, 63303, Note_off_c, 0, 76, 48
1, 63328, Note_off_c, 0, 61, 43
1, 63332, Note_off_c, 0, 70, 58
1, 63353, Note_off_c, 0, 73, 45
1, 63401, Control_c, 0, 64, 81
1, 63416, Control_c, 0, 64, 80
1, 63490, Control_c, 0, 64, 77
1, 63504, Control_c, 0, 64, 68
1, 63516, Note_on_c, 0, 59, 44
1, 63519, Control_c, 0, 64, 43
1, 63534, Control_c, 0, 64, 0
1, 63592, Note_off_c, 0, 59, 53
1, 63593, Control_c, 0, 64, 44
1, 63608, Control_c, 0, 64, 64
1, 63623, Control_c, 0, 64, 73
1, 63632, Note_on_c, 0, 71, 45
1, 63637, Control_c, 0, 64, 82
1, 63652, Control_c, 0, 64, 84
1, 63678, Note_off_c, 0, 71, 60
1, 63712, Control_c, 0, 64, 83
1, 63721, Note_on_c, 0, 74, 42
1, 63727, Control_c, 0, 64, 82
1, 63741, Control_c, 0, 64, 80
1, 63753, Note_off_c, 0, 74, 54
1, 63756, Control_c, 0, 64, 77
1, 63771, Control_c, 0, 64, 74
1, 63777, Note_on_c, 0, 71, 44
1, 63786, Control_c, 0, 64, 71
1, 63801, Control_c, 0, 64, 67
1, 63808, Note_off_c, 0, 71, 56
1, 63816, Control_c, 0, 64, 63
1, 63830, Control_c, 0, 64, 54
1, 63845, Control_c, 0, 64, 44
1, 63849, Note_on_c, 0, 71, 61
1, 63860, Control_c, 0, 64, 39
1, 63882, Control_c, 0, 64, 40
1, 63885, Note_off_c, 0, 71, 66
1, 63926, Control_c, 0, 64, 39
1, 63941, Control_c, 0, 64, 39
1, 63959, Note_on_c, 0, 71, 59
1, 63993, Note_off_c, 0, 71, 64
1, 64016, Control_c, 0, 64, 38
1, 64031, Control_c, 0, 64, 37
1, 64033, Note_on_c, 0, 74, 51
1, 64060, Control_c, 0, 64, 38
1, 64073, Note_on_c, 0, 71, 60
1, 64073, Note_off_c, 0, 74, 63
1, 64075, Control_c, 0, 64, 39
1, 64090, Control_c, 0, 64, 42
1, 64105, Control_c, 0, 64, 46
1, 64109, Note_off_c, 0, 71, 65
1, 64135, Control_c, 0, 64, 41
1, 64150, Control_c, 0, 64, 33
1, 64164, Note_on_c, 0, 69, 72
1, 64165, Control_c, 0, 64, 23
1, 64179, Control_c, 0, 64, 24
1, 64194, Control_c, 0, 64, 38
1, 64195, Note_off_c, 0, 69, 67
1, 64209, Control_c, 0, 64, 53
1, 64224, Control_c, 0, 64, 61
1, 64239, Control_c, 0, 64, 64
1, 64253, Control_c, 0, 64, 64
1, 64254, Note_on_c, 0, 71, 59
1, 64268, Control_c, 0, 64, 64
1, 64283, Control_c, 0, 64, 63
1, 64296, Note_off_c, 0, 71, 62
1, 64298, Control_c, 0, 64, 62
1, 64313, Control_c, 0, 64, 61
1, 64339, Note_on_c, 0, 74, 49
1, 64342, Control_c, 0, 64, 61
1, 64357, Control_c, 0, 64, 60
1, 64362, Note_off_c, 0, 74, 62
1, 64372, Control_c, 0, 64, 59
1, 64382, Note_on_c, 0, 71, 63
1, 64400, Note_off_c, 0, 71, 65
1, 64416, Control_c, 0, 64, 60
1, 64431, Control_c, 0, 64, 60
1, 64446, Control_c, 0, 64, 60
1, 64460, Control_c, 0, 64, 55
1, 64475, Control_c, 0, 64, 36
1, 64479, Note_on_c, 0, 55, 53
1, 64490, Control_c, 0, 64, 0
1, 64549, Control_c, 0, 64, 23
1, 64564, Control_c, 0, 64, 56
1, 64572, Note_on_c, 0, 71, 52
1, 64575, Note_off_c, 0, 55, 62
1, 64579, Control_c, 0, 64, 65
1, 64594, Control_c, 0, 64, 66
1, 64609, Control_c, 0, 64, 66
1, 64628, Note_off_c, 0, 71, 57
1, 64631, Control_c, 0, 64, 64
1, 64646, Control_c, 0, 64, 64
1, 64660, Control_c, 0, 64, 63
1, 64675, Control_c, 0, 64, 62
1, 64678, Note_on_c, 0, 83, 38
1, 64690, Control_c, 0, 64, 61
1, 64704, Control_c, 0, 64, 59
1, 64707, Note_off_c, 0, 83, 53
1, 64719, Control_c, 0, 64, 59
1, 64720, Note_on_c, 0, 71, 67
1, 64749, Control_c, 0, 64, 60
1, 64751, Note_off_c, 0, 71, 66
1, 64765, Control_c, 0, 64, 61
1, 64780, Control_c, 0, 64, 60
1, 64795, Control_c, 0, 64, 49
1, 64809, Control_c, 0, 64, 0
1, 64813, Note_on_c, 0, 67, 65
1, 64874, Note_off_c, 0, 67, 63
1, 64883, Control_c, 0, 64, 44
1, 64889, Note_on_c, 0, 71, 53
1, 64898, Control_c, 0, 64, 60
1, 64913, Control_c, 0, 64, 63
1, 64928, Control_c, 0, 64, 62
1, 64939, Note_off_c, 0, 71, 60
1, 64943, Control_c, 0, 64, 61
1, 64958, Control_c, 0, 64, 61
1, 64965, Note_on_c, 0, 83, 68
1, 65000, Note_off_c, 0, 83, 63
1, 65002, Control_c, 0, 64, 60
1, 65017, Control_c, 0, 64, 59
1, 65044, Note_on_c, 0, 71, 64
1, 65062, Control_c, 0, 64, 60
1, 65076, Control_c, 0, 64, 61
1, 65077, Note_off_c, 0, 71, 64
1, 65106, Control_c, 0, 64, 59
1, 65121, Control_c, 0, 64, 49
1, 65135, Control_c, 0, 64, 0
1, 65136, Note_on_c, 0, 66, 67
1, 65193, Note_off_c, 0, 66, 63
1, 65205, Note_on_c, 0, 71, 67
1, 65209, Control_c, 0, 64, 43
1, 65224, Control_c, 0, 64, 62
1, 65239, Control_c, 0, 64, 67
1, 65254, Control_c, 0, 64, 71
1, 65268, Note_off_c, 0, 71, 62
1, 65269, Control_c, 0, 64, 72
1, 65292, Note_on_c, 0, 81, 66
1, 65327, Control_c, 0, 64, 71
1, 65342, Control_c, 0, 64, 70
1, 65347, Note_off_c, 0, 81, 54
1, 65357, Control_c, 0, 64, 69
1, 65369, Note_on_c, 0, 71, 63
1, 65372, Control_c, 0, 64, 69
1, 65406, Note_off_c, 0, 71, 66
1, 65409, Control_c, 0, 64, 69
1, 65424, Control_c, 0, 64, 70
1, 65450, Note_on_c, 0, 52, 60
1, 65454, Control_c, 0, 64, 68
1, 65469, Control_c, 0, 64, 63
1, 65483, Control_c, 0, 64, 38
1, 65498, Control_c, 0, 64, 0
1, 65525, Note_on_c, 0, 71, 59
1, 65558, Control_c, 0, 64, 41
1, 65573, Control_c, 0, 64, 60
1, 65575, Note_off_c, 0, 52, 58
1, 65586, Note_off_c, 0, 71, 63
1, 65588, Control_c, 0, 64, 65
1, 65603, Control_c, 0, 64, 66
1, 65618, Control_c, 0, 64, 65
1, 65629, Note_on_c, 0, 79, 64
1, 65632, Control_c, 0, 64, 64
1, 65675, Note_off_c, 0, 79, 56
1, 65697, Note_on_c, 0, 71, 68
1, 65706, Control_c, 0, 64, 64
1, 65727, Note_off_c, 0, 71, 67
1, 65751, Control_c, 0, 64, 63
1, 65766, Control_c, 0, 64, 57
1, 65780, Control_c, 0, 64, 0
1, 65801, Note_on_c, 0, 64, 71
1, 65866, Note_on_c, 0, 71, 66
1, 65870, Control_c, 0, 64, 36
1, 65878, Note_off_c, 0, 64, 54
1, 65885, Control_c, 0, 64, 57
1, 65899, Control_c, 0, 64, 63
1, 65914, Control_c, 0, 64, 64
1, 65915, Note_off_c, 0, 71, 64
1, 65929, Control_c, 0, 64, 63
1, 65944, Control_c, 0, 64, 63
1, 65952, Note_on_c, 0, 79, 68
1, 65958, Control_c, 0, 64, 62
1, 65998, Note_off_c, 0, 79, 57
1, 66026, Note_on_c, 0, 71, 69
1, 66055, Note_off_c, 0, 71, 67
1, 66106, Control_c, 0, 64, 61
1, 66117, Note_on_c, 0, 62, 61
1, 66121, Control_c, 0, 64, 53
1, 66144, Control_c, 0, 64, 0
1, 66195, Note_on_c, 0, 71, 62
1, 66232, Control_c, 0, 64, 42
1, 66239, Note_off_c, 0, 71, 63
1, 66242, Note_off_c, 0, 62, 40
1, 66247, Control_c, 0, 64, 58
1, 66262, Control_c, 0, 64, 62
1, 66277, Control_c, 0, 64, 63
1, 66278, Note_on_c, 0, 78, 68
1, 66292, Control_c, 0, 64, 62
1, 66307, Control_c, 0, 64, 61
1, 66322, Control_c, 0, 64, 61
1, 66336, Note_off_c, 0, 78, 53
1, 66337, Control_c, 0, 64, 60
1, 66358, Note_on_c, 0, 71, 60
1, 66368, Control_c, 0, 64, 60
1, 66396, Note_off_c, 0, 71, 63
1, 66412, Control_c, 0, 64, 60
1, 66442, Control_c, 0, 64, 60
1, 66454, Note_on_c, 0, 61, 56
1, 66456, Control_c, 0, 64, 55
1, 66471, Control_c, 0, 64, 36
1, 66486, Control_c, 0, 64, 0
1, 66541, Note_on_c, 0, 71, 52
1, 66560, Control_c, 0, 64, 28
1, 66574, Control_c, 0, 64, 55
1, 66587, Note_off_c, 0, 71, 62
1, 66589, Control_c, 0, 64, 62
1, 66600, Note_off_c, 0, 61, 28
1, 66604, Control_c, 0, 64, 64
1, 66627, Note_on_c, 0, 77, 61
1, 66634, Control_c, 0, 64, 63
1, 66669, Note_off_c, 0, 77, 61
1, 66698, Note_on_c, 0, 71, 58
1, 66727, Note_off_c, 0, 71, 66
1, 66752, Control_c, 0, 64, 62
1, 66767, Control_c, 0, 64, 57
1, 66781, Note_on_c, 0, 68, 59
1, 66782, Control_c, 0, 64, 31
1, 66797, Control_c, 0, 64, 0
1, 66827, Note_off_c, 0, 68, 62
1, 66857, Note_on_c, 0, 71, 56
1, 66878, Control_c, 0, 64, 49
1, 66893, Control_c, 0, 64, 60
1, 66906, Note_off_c, 0, 71, 64
1, 66907, Control_c, 0, 64, 63
1, 66937, Control_c, 0, 64, 62
1, 66950, Note_on_c, 0, 77, 66
1, 66952, Control_c, 0, 64, 62
1, 66994, Note_off_c, 0, 77, 58
1, 66997, Control_c, 0, 64, 62
1, 67012, Control_c, 0, 64, 63
1, 67020, Note_on_c, 0, 71, 62
1, 67047, Note_off_c, 0, 71, 65
1, 67056, Control_c, 0, 64, 61
1, 67071, Control_c, 0, 64, 53
1, 67086, Control_c, 0, 64, 0
1, 67110, Note_on_c, 0, 71, 64
1, 67139, Note_off_c, 0, 71, 67
1, 67161, Control_c, 0, 64, 51
1, 67175, Control_c, 0, 64, 62
1, 67190, Control_c, 0, 64, 66
1, 67198, Note_on_c, 0, 71, 56
1, 67205, Control_c, 0, 64, 68
1, 67220, Control_c, 0, 64, 68
1, 67234, Note_off_c, 0, 71, 65
1, 67280, Note_on_c, 0, 77, 54
1, 67294, Control_c, 0, 64, 68
1, 67310, Control_c, 0, 64, 67
1, 67324, Control_c, 0, 64, 67
1, 67331, Note_off_c, 0, 77, 56
1, 67339, Control_c, 0, 64, 66
1, 67345, Note_on_c, 0, 71, 50
1, 67380, Note_off_c, 0, 71, 64
1, 67419, Note_on_c, 0, 54, 38
1, 67443, Control_c, 0, 64, 65
1, 67458, Control_c, 0, 64, 60
1, 67472, Control_c, 0, 64, 40
1, 67487, Control_c, 0, 64, 0
1, 67517, Note_on_c, 0, 70, 46
1, 67521, Note_off_c, 0, 54, 51
1, 67546, Control_c, 0, 64, 42
1, 67552, Note_off_c, 0, 70, 60
1, 67561, Control_c, 0, 64, 58
1, 67576, Control_c, 0, 64, 62
1, 67588, Note_on_c, 0, 76, 54
1, 67591, Control_c, 0, 64, 63
1, 67605, Control_c, 0, 64, 63
1, 67628, Control_c, 0, 64, 62
1, 67652, Note_off_c, 0, 76, 56
1, 67666, Note_on_c, 0, 70, 47
1, 67673, Control_c, 0, 64, 63
1, 67692, Note_off_c, 0, 70, 57
1, 67702, Control_c, 0, 64, 63
1, 67731, Control_c, 0, 64, 62
1, 67746, Control_c, 0, 64, 55
1, 67748, Note_on_c, 0, 66, 57
1, 67761, Control_c, 0, 64, 29
1, 67776, Control_c, 0, 64, 0
1, 67784, Note_off_c, 0, 66, 64
1, 67816, Note_on_c, 0, 70, 46
1, 67820, Control_c, 0, 64, 30
1, 67835, Control_c, 0, 64, 53
1, 67850, Control_c, 0, 64, 61
1, 67858, Note_off_c, 0, 70, 63
1, 67865, Control_c, 0, 64, 63
1, 67894, Control_c, 0, 64, 62
1, 67909, Note_on_c, 0, 76, 51
1, 67909, Control_c, 0, 64, 61
1, 67960, Note_off_c, 0, 76, 53
1, 67969, Control_c, 0, 64, 62
1, 67971, Note_on_c, 0, 70, 44
1, 67998, Note_off_c, 0, 70, 57
1, 67999, Control_c, 0, 64, 62
1, 68043, Control_c, 0, 64, 62
1, 68058, Control_c, 0, 64, 57
1, 68073, Control_c, 0, 64, 37
1, 68076, Note_on_c, 0, 70, 59
1, 68088, Control_c, 0, 64, 0
1, 68117, Control_c, 0, 64, 15
1, 68124, Note_off_c, 0, 70, 62
1, 68132, Control_c, 0, 64, 48
1, 68136, Note_on_c, 0, 73, 58
1, 68146, Control_c, 0, 64, 59
1, 68161, Control_c, 0, 64, 63
1, 68174, Note_off_c, 0, 73, 63
1, 68176, Control_c, 0, 64, 65
1, 68191, Control_c, 0, 64, 66
1, 68206, Note_on_c, 0, 76, 60
1, 68206, Control_c, 0, 64, 65
1, 68235, Control_c, 0, 64, 65
1, 68285, Note_on_c, 0, 73, 53
1, 68319, Note_off_c, 0, 76, 28
1, 68329, Note_off_c, 0, 73, 62
1, 68391, Control_c, 0, 64, 64
1, 68396, Note_on_c, 0, 59, 39
1, 68406, Control_c, 0, 64, 60
1, 68421, Control_c, 0, 64, 43
1, 68435, Control_c, 0, 64, 0
1, 68475, Note_on_c, 0, 71, 46
1, 68495, Control_c, 0, 64, 41
1, 68509, Control_c, 0, 64, 58
1, 68513, Note_off_c, 0, 71, 62
1, 68514, Note_off_c, 0, 59, 36
1, 68524, Control_c, 0, 64, 62
1, 68539, Control_c, 0, 64, 64
1, 68547, Note_on_c, 0, 74, 50
1, 68583, Control_c, 0, 64, 63
1, 68588, Note_off_c, 0, 74, 61
1, 68613, Control_c, 0, 64, 64
1, 68619, Note_on_c, 0, 71, 46
1, 68627, Control_c, 0, 64, 64
1, 68648, Note_off_c, 0, 71, 58
1, 68672, Control_c, 0, 64, 64
1, 68687, Control_c, 0, 64, 61
1, 68702, Control_c, 0, 64, 54
1, 68711, Note_on_c, 0, 62, 38
1, 68717, Control_c, 0, 64, 38
1, 68732, Control_c, 0, 64, 13
1, 68747, Control_c, 0, 64, 17
1, 68762, Control_c, 0, 64, 32
1, 68768, Note_off_c, 0, 62, 42
1, 68776, Control_c, 0, 64, 47
1, 68786, Note_on_c, 0, 71, 45
1, 68791, Control_c, 0, 64, 56
1, 68806, Control_c, 0, 64, 60
1, 68821, Control_c, 0, 64, 60
1, 68831, Note_off_c, 0, 71, 62
1, 68857, Note_on_c, 0, 74, 55
1, 68866, Control_c, 0, 64, 60
1, 68895, Note_off_c, 0, 74, 62
1, 68937, Note_on_c, 0, 71, 49
1, 68955, Control_c, 0, 64, 60
1, 68964, Note_off_c, 0, 71, 61
1, 68984, Control_c, 0, 64, 60
1, 68999, Control_c, 0, 64, 57
1, 69014, Control_c, 0, 64, 49
1, 69024, Note_on_c, 0, 66, 50
1, 69029, Control_c, 0, 64, 26
1, 69044, Control_c, 0, 64, 0
1, 69073, Control_c, 0, 64, 36
1, 69088, Note_on_c, 0, 71, 44
1, 69088, Control_c, 0, 64, 52
1, 69096, Note_off_c, 0, 66, 42
1, 69102, Control_c, 0, 64, 60
1, 69125, Control_c, 0, 64, 63
1, 69140, Control_c, 0, 64, 65
1, 69141, Note_off_c, 0, 71, 63
1, 69155, Control_c, 0, 64, 66
1, 69170, Control_c, 0, 64, 66
1, 69182, Note_on_c, 0, 74, 46
1, 69227, Note_off_c, 0, 74, 58
1, 69229, Control_c, 0, 64, 65
1, 69248, Note_on_c, 0, 71, 49
1, 69258, Control_c, 0, 64, 65
1, 69273, Control_c, 0, 64, 64
1, 69287, Note_off_c, 0, 71, 64
1, 69332, Control_c, 0, 64, 65
1, 69347, Control_c, 0, 64, 64
1, 69349, Note_on_c, 0, 59, 45
1, 69362, Control_c, 0, 64, 63
1, 69376, Control_c, 0, 64, 58
1, 69391, Control_c, 0, 64, 43
1, 69406, Control_c, 0, 64, 9
1, 69421, Control_c, 0, 64, 0
1, 69426, Note_on_c, 0, 67, 41
1, 69436, Control_c, 0, 64, 27
1, 69446, Note_off_c, 0, 59, 53
1, 69450, Control_c, 0, 64, 43
1, 69465, Note_off_c, 0, 67, 60
1, 69465, Control_c, 0, 64, 54
1, 69480, Control_c, 0, 64, 59
1, 69495, Control_c, 0, 64, 60
1, 69515, Note_on_c, 0, 74, 48
1, 69524, Control_c, 0, 64, 60
1, 69539, Control_c, 0, 64, 59
1, 69563, Note_off_c, 0, 74, 57
1, 69598, Note_on_c, 0, 67, 37
1, 69614, Control_c, 0, 64, 60
1, 69629, Control_c, 0, 64, 60
1, 69637, Note_off_c, 0, 67, 60
1, 69668, Note_on_c, 0, 62, 55
1, 69673, Control_c, 0, 64, 58
1, 69688, Control_c, 0, 64, 52
1, 69703, Control_c, 0, 64, 42
1, 69718, Control_c, 0, 64, 40
1, 69733, Control_c, 0, 64, 46
1, 69734, Note_off_c, 0, 62, 54
1, 69745, Note_on_c, 0, 67, 50
1, 69748, Control_c, 0, 64, 51
1, 69763, Control_c, 0, 64, 56
1, 69778, Control_c, 0, 64, 60
1, 69792, Control_c, 0, 64, 61
1, 69793, Note_off_c, 0, 67, 61
1, 69822, Control_c, 0, 64, 61
1, 69837, Control_c, 0, 64, 60
1, 69837, Note_on_c, 0, 74, 51
1, 69889, Note_off_c, 0, 74, 59
1, 69903, Control_c, 0, 64, 61
1, 69919, Note_on_c, 0, 67, 49
1, 69933, Control_c, 0, 64, 61
1, 69948, Note_off_c, 0, 67, 60
1, 69992, Control_c, 0, 64, 60
1, 70007, Control_c, 0, 64, 53
1, 70010, Note_on_c, 0, 71, 57
1, 70022, Control_c, 0, 64, 44
1, 70037, Control_c, 0, 64, 43
1, 70052, Control_c, 0, 64, 49
1, 70067, Control_c, 0, 64, 55
1, 70069, Note_off_c, 0, 71, 64
1, 70080, Note_on_c, 0, 67, 41
1, 70081, Control_c, 0, 64, 60
1, 70096, Control_c, 0, 64, 64
1, 70111, Control_c, 0, 64, 67
1, 70125, Control_c, 0, 64, 69
1, 70130, Note_off_c, 0, 67, 58
1, 70171, Note_on_c, 0, 74, 49
1, 70199, Control_c, 0, 64, 68
1, 70214, Control_c, 0, 64, 68
1, 70222, Note_off_c, 0, 74, 56
1, 70229, Control_c, 0, 64, 67
1, 70244, Control_c, 0, 64, 66
1, 70255, Note_on_c, 0, 67, 39
1, 70259, Control_c, 0, 64, 66
1, 70285, Note_off_c, 0, 67, 56
1, 70323, Note_on_c, 0, 57, 45
1, 70333, Control_c, 0, 64, 64
1, 70349, Control_c, 0, 64, 58
1, 70364, Control_c, 0, 64, 42
1, 70379, Control_c, 0, 64, 0
1, 70394, Control_c, 0, 64, 12
1, 70396, Note_on_c, 0, 67, 47
1, 70409, Control_c, 0, 64, 38
1, 70423, Control_c, 0, 64, 52
1, 70426, Note_off_c, 0, 57, 53
1, 70438, Control_c, 0, 64, 59
1, 70453, Note_off_c, 0, 67, 60
1, 70453, Control_c, 0, 64, 62
1, 70468, Control_c, 0, 64, 63
1, 70490, Note_on_c, 0, 72, 58
1, 70497, Control_c, 0, 64, 62
1, 70512, Control_c, 0, 64, 62
1, 70544, Note_off_c, 0, 72, 54
1, 70571, Control_c, 0, 64, 62
1, 70583, Note_on_c, 0, 67, 44
1, 70601, Control_c, 0, 64, 63
1, 70612, Note_off_c, 0, 67, 56
1, 70638, Control_c, 0, 64, 62
1, 70653, Control_c, 0, 64, 58
1, 70655, Note_on_c, 0, 64, 56
1, 70668, Control_c, 0, 64, 47
1, 70683, Control_c, 0, 64, 40
1, 70697, Control_c, 0, 64, 46
1, 70712, Control_c, 0, 64, 53
1, 70727, Note_on_c, 0, 67, 49
1, 70727, Control_c, 0, 64, 59
1, 70742, Control_c, 0, 64, 62
1, 70743, Note_off_c, 0, 64, 59
1, 70756, Control_c, 0, 64, 65
1, 70771, Control_c, 0, 64, 66
1, 70781, Note_off_c, 0, 67, 59
1, 70801, Control_c, 0, 64, 65
1, 70815, Note_on_c, 0, 72, 61
1, 70864, Note_off_c, 0, 72, 59
1, 70890, Control_c, 0, 64, 66
1, 70901, Note_on_c, 0, 67, 38
1, 70932, Note_off_c, 0, 67, 56
1, 70934, Control_c, 0, 64, 65
1, 70949, Control_c, 0, 64, 61
1, 70964, Control_c, 0, 64, 50
1, 70978, Note_on_c, 0, 69, 59
1, 70979, Control_c, 0, 64, 41
1, 70994, Control_c, 0, 64, 47
1, 71009, Control_c, 0, 64, 54
1, 71014, Note_off_c, 0, 69, 67
1, 71023, Control_c, 0, 64, 59
1, 71038, Control_c, 0, 64, 63
1, 71041, Note_on_c, 0, 67, 53
1, 71053, Control_c, 0, 64, 66
1, 71067, Control_c, 0, 64, 67
1, 71097, Control_c, 0, 64, 67
1, 71099, Note_off_c, 0, 67, 57
1, 71140, Note_on_c, 0, 72, 54
1, 71199, Note_off_c, 0, 72, 59
1, 71202, Control_c, 0, 64, 66
1, 71238, Note_on_c, 0, 67, 22
1, 71284, Note_on_c, 0, 50, 53
1, 71284, Note_off_c, 0, 67, 28
1, 71306, Control_c, 0, 64, 65
1, 71320, Control_c, 0, 64, 60
1, 71335, Control_c, 0, 64, 33
1, 71350, Control_c, 0, 64, 0
1, 71374, Note_on_c, 0, 66, 52
1, 71387, Note_off_c, 0, 50, 62
1, 71402, Control_c, 0, 64, 41
1, 71414, Note_off_c, 0, 66, 64
1, 71417, Control_c, 0, 64, 57
1, 71432, Control_c, 0, 64, 63
1, 71446, Control_c, 0, 64, 64
1, 71450, Note_on_c, 0, 72, 57
1, 71476, Control_c, 0, 64, 63
1, 71491, Control_c, 0, 64, 63
1, 71499, Note_off_c, 0, 72, 57
1, 71519, Note_on_c, 0, 66, 59
1, 71535, Control_c, 0, 64, 63
1, 71550, Note_off_c, 0, 66, 65
1, 71550, Control_c, 0, 64, 64
1, 71565, Control_c, 0, 64, 64
1, 71594, Control_c, 0, 64, 64
1, 71602, Note_on_c, 0, 62, 66
1, 71609, Control_c, 0, 64, 59
1, 71624, Control_c, 0, 64, 40
1, 71638, Note_off_c, 0, 62, 62
1, 71639, Control_c, 0, 64, 0
1, 71668, Control_c, 0, 64, 38
1, 71675, Note_on_c, 0, 66, 64
1, 71683, Control_c, 0, 64, 54
1, 71698, Control_c, 0, 64, 61
1, 71712, Control_c, 0, 64, 65
1, 71719, Note_off_c, 0, 66, 62
1, 71727, Control_c, 0, 64, 68
1, 71742, Control_c, 0, 64, 68
1, 71757, Note_on_c, 0, 72, 64
1, 71772, Control_c, 0, 64, 68
1, 71832, Note_off_c, 0, 72, 60
1, 71832, Note_on_c, 0, 66, 66
1, 71855, Note_off_c, 0, 66, 70
1, 71933, Note_on_c, 0, 66, 72
1, 71935, Control_c, 0, 64, 66
1, 71951, Control_c, 0, 64, 61
1, 71966, Control_c, 0, 64, 36
1, 71981, Control_c, 0, 64, 0
1, 71993, Note_off_c, 0, 66, 52
1, 72010, Control_c, 0, 64, 18
1, 72016, Note_on_c, 0, 69, 65
1, 72025, Control_c, 0, 64, 51
1, 72040, Control_c, 0, 64, 61
1, 72055, Control_c, 0, 64, 65
1, 72061, Note_off_c, 0, 69, 60
1, 72069, Control_c, 0, 64, 68
1, 72084, Control_c, 0, 64, 69
1, 72092, Note_on_c, 0, 72, 63
1, 72099, Control_c, 0, 64, 68
1, 72136, Control_c, 0, 64, 68
1, 72166, Control_c, 0, 64, 67
1, 72173, Note_on_c, 0, 69, 65
1, 72177, Note_off_c, 0, 72, 53
1, 72180, Control_c, 0, 64, 67
1, 72195, Control_c, 0, 64, 66
1, 72201, Note_off_c, 0, 69, 68
1, 72249, Note_on_c, 0, 55, 65
1, 72255, Control_c, 0, 64, 66
1, 72269, Control_c, 0, 64, 65
1, 72284, Control_c, 0, 64, 57
1, 72299, Control_c, 0, 64, 0
1, 72338, Note_off_c, 0, 55, 43
1, 72347, Note_on_c, 0, 67, 66
1, 72358, Control_c, 0, 64, 15
1, 72373, Control_c, 0, 64, 53
1, 72388, Control_c, 0, 64, 64
1, 72389, Note_off_c, 0, 67, 61
1, 72402, Control_c, 0, 64, 67
1, 72417, Control_c, 0, 64, 67
1, 72418, Note_on_c, 0, 71, 64
1, 72432, Control_c, 0, 64, 67
1, 72447, Control_c, 0, 64, 66
1, 72461, Note_off_c, 0, 71, 61
1, 72502, Note_on_c, 0, 67, 44
1, 72529, Note_off_c, 0, 67, 58
1, 72565, Control_c, 0, 64, 66
1, 72580, Control_c, 0, 64, 62
1, 72589, Note_on_c, 0, 67, 67
1, 72594, Control_c, 0, 64, 51
1, 72609, Control_c, 0, 64, 0
1, 72619, Note_off_c, 0, 67, 66
1, 72638, Control_c, 0, 64, 25
1, 72653, Control_c, 0, 64, 49
1, 72668, Control_c, 0, 64, 61
1, 72681, Note_on_c, 0, 67, 63
1, 72683, Control_c, 0, 64, 65
1, 72698, Control_c, 0, 64, 68
1, 72713, Control_c, 0, 64, 69
1, 72716, Note_off_c, 0, 67, 64
1, 72744, Note_on_c, 0, 71, 61
1, 72790, Note_off_c, 0, 71, 62
1, 72807, Note_on_c, 0, 67, 61
1, 72842, Note_off_c, 0, 67, 64
1, 72847, Control_c, 0, 64, 69
1, 72862, Control_c, 0, 64, 70
1, 72905, Note_on_c, 0, 66, 77
1, 72914, Control_c, 0, 64, 67
1, 72929, Control_c, 0, 64, 60
1, 72943, Control_c, 0, 64, 43
1, 72946, Note_off_c, 0, 66, 62
1, 72958, Control_c, 0, 64, 39
1, 72973, Control_c, 0, 64, 52
1, 72988, Control_c, 0, 64, 60
1, 72990, Note_on_c, 0, 67, 63
1, 73003, Control_c, 0, 64, 65
1, 73017, Control_c, 0, 64, 69
1, 73032, Control_c, 0, 64, 71
1, 73034, Note_off_c, 0, 67, 64
1, 73058, Note_on_c, 0, 71, 63
1, 73062, Control_c, 0, 64, 71
1, 73077, Control_c, 0, 64, 70
1, 73105, Note_off_c, 0, 71, 62
1, 73124, Note_on_c, 0, 67, 65
1, 73151, Note_off_c, 0, 67, 66
1, 73165, Control_c, 0, 64, 71
1, 73195, Control_c, 0, 64, 71
1, 73205, Note_on_c, 0, 52, 71
1, 73210, Control_c, 0, 64, 71
1, 73224, Control_c, 0, 64, 68
1, 73239, Control_c, 0, 64, 60
1, 73254, Control_c, 0, 64, 28
1, 73268, Control_c, 0, 64, 0
1, 73296, Note_off_c, 0, 52, 62
1, 73299, Control_c, 0, 64, 42
1, 73304, Note_on_c, 0, 67, 58
1, 73314, Control_c, 0, 64, 59
1, 73329, Control_c, 0, 64, 66
1, 73343, Control_c, 0, 64, 71
1, 73354, Note_off_c, 0, 67, 61
1, 73358, Control_c, 0, 64, 73
1, 73373, Note_on_c, 0, 71, 65
1, 73388, Control_c, 0, 64, 72
1, 73434, Note_off_c, 0, 71, 61
1, 73444, Note_on_c, 0, 67, 71
1, 73471, Note_off_c, 0, 67, 67
1, 73537, Control_c, 0, 64, 72
1, 73539, Note_on_c, 0, 64, 76
1, 73552, Control_c, 0, 64, 66
1, 73567, Control_c, 0, 64, 40
1, 73581, Control_c, 0, 64, 0
1, 73644, Note_on_c, 0, 67, 68
1, 73648, Control_c, 0, 64, 48
1, 73663, Control_c, 0, 64, 63
1, 73678, Control_c, 0, 64, 66
1, 73698, Note_off_c, 0, 64, 60
1, 73703, Note_off_c, 0, 67, 62
1, 73707, Control_c, 0, 64, 64
1, 73718, Note_on_c, 0, 71, 72
1, 73722, Control_c, 0, 64, 63
1, 73752, Control_c, 0, 64, 63
1, 73766, Control_c, 0, 64, 64
1, 73780, Note_off_c, 0, 71, 63
1, 73781, Control_c, 0, 64, 64
1, 73788, Note_on_c, 0, 67, 69
1, 73796, Control_c, 0, 64, 65
1, 73811, Control_c, 0, 64, 65
1, 73814, Note_off_c, 0, 67, 67
1, 73826, Control_c, 0, 64, 66
1, 73856, Control_c, 0, 64, 63
1, 73868, Note_on_c, 0, 62, 76
1, 73871, Control_c, 0, 64, 50
1, 73886, Control_c, 0, 64, 0
1, 73945, Control_c, 0, 64, 51
1, 73951, Note_off_c, 0, 62, 59
1, 73960, Control_c, 0, 64, 66
1, 73964, Note_on_c, 0, 67, 56
1, 73974, Control_c, 0, 64, 74
1, 73989, Control_c, 0, 64, 78
1, 74012, Note_off_c, 0, 67, 61
1, 74031, Note_on_c, 0, 71, 69
1, 74085, Note_off_c, 0, 71, 60
1, 74092, Control_c, 0, 64, 78
1, 74107, Control_c, 0, 64, 77
1, 74108, Note_on_c, 0, 67, 68
1, 74122, Control_c, 0, 64, 76
1, 74136, Note_off_c, 0, 67, 68
1, 74137, Control_c, 0, 64, 76
1, 74191, Note_on_c, 0, 61, 71
1, 74204, Note_on_c, 0, 49, 57
1, 74226, Control_c, 0, 64, 75
1, 74240, Control_c, 0, 64, 71
1, 74255, Control_c, 0, 64, 60
1, 74270, Control_c, 0, 64, 0
1, 74303, Note_on_c, 0, 67, 69
1, 74345, Control_c, 0, 64, 58
1, 74357, Note_off_c, 0, 67, 58
1, 74368, Control_c, 0, 64, 68
1, 74383, Control_c, 0, 64, 74
1, 74391, Note_on_c, 0, 70, 67
1, 74397, Control_c, 0, 64, 75
1, 74412, Control_c, 0, 64, 75
1, 74423, Note_off_c, 0, 49, 40
1, 74427, Control_c, 0, 64, 74
1, 74429, Note_off_c, 0, 61, 53
1, 74442, Control_c, 0, 64, 72
1, 74457, Control_c, 0, 64, 72
1, 74475, Note_on_c, 0, 67, 65
1, 74514, Note_off_c, 0, 67, 63
1, 74533, Note_off_c, 0, 70, 32
1, 74553, Note_on_c, 0, 62, 77
1, 74560, Control_c, 0, 64, 66
1, 74565, Note_on_c, 0, 50, 74
1, 74575, Control_c, 0, 64, 30
1, 74590, Control_c, 0, 64, 0
1, 74629, Note_on_c, 0, 66, 76
1, 74639, Note_off_c, 0, 62, 60
1, 74649, Control_c, 0, 64, 34
1, 74660, Note_off_c, 0, 50, 66
1, 74664, Control_c, 0, 64, 63
1, 74678, Control_c, 0, 64, 70
1, 74691, Note_off_c, 0, 66, 62
1, 74693, Control_c, 0, 64, 75
1, 74704, Note_on_c, 0, 71, 72
1, 74708, Control_c, 0, 64, 75
1, 74723, Control_c, 0, 64, 75
1, 74738, Control_c, 0, 64, 74
1, 74774, Note_off_c, 0, 71, 65
1, 74775, Note_on_c, 0, 66, 74
1, 74800, Note_off_c, 0, 66, 66
1, 74852, Note_on_c, 0, 58, 88
1, 74855, Control_c, 0, 64, 73
1, 74859, Note_on_c, 0, 46, 73
1, 74869, Control_c, 0, 64, 68
1, 74884, Control_c, 0, 64, 53
1, 74899, Control_c, 0, 64, 0
1, 74935, Note_on_c, 0, 64, 76
1, 74988, Control_c, 0, 64, 54
1, 75003, Control_c, 0, 64, 64
1, 75003, Note_off_c, 0, 64, 63
1, 75015, Note_on_c, 0, 73, 83
1, 75018, Control_c, 0, 64, 68
1, 75032, Control_c, 0, 64, 71
1, 75059, Note_off_c, 0, 58, 62
1, 75060, Note_off_c, 0, 46, 61
1, 75095, Note_on_c, 0, 64, 76
1, 75102, Note_off_c, 0, 73, 61
1, 75136, Note_off_c, 0, 64, 63
1, 75184, Note_on_c, 0, 59, 90
1, 75189, Control_c, 0, 64, 68
1, 75194, Note_on_c, 0, 47, 76
1, 75204, Control_c, 0, 64, 52
1, 75218, Control_c, 0, 64, 0
1, 75269, Note_on_c, 0, 62, 81
1, 75289, Note_off_c, 0, 59, 58
1, 75307, Control_c, 0, 64, 57
1, 75322, Control_c, 0, 64, 66
1, 75330, Note_off_c, 0, 62, 59
1, 75337, Control_c, 0, 64, 70
1, 75344, Note_off_c, 0, 47, 63
1, 75352, Control_c, 0, 64, 71
1, 75357, Note_on_c, 0, 74, 84
1, 75367, Control_c, 0, 64, 70
1, 75382, Control_c, 0, 64, 69
1, 75397, Control_c, 0, 64, 68
1, 75411, Control_c, 0, 64, 67
1, 75424, Note_off_c, 0, 74, 63
1, 75433, Note_on_c, 0, 62, 74
1, 75471, Control_c, 0, 64, 68
1, 75486, Note_off_c, 0, 62, 60
1, 75486, Control_c, 0, 64, 68
1, 75500, Control_c, 0, 64, 69
1, 75515, Control_c, 0, 64, 68
1, 75517, Note_on_c, 0, 55, 89
1, 75525, Note_on_c, 0, 43, 79
1, 75530, Control_c, 0, 64, 59
1, 75544, Control_c, 0, 64, 0
1, 75600, Note_on_c, 0, 62, 71
1, 75633, Control_c, 0, 64, 45
1, 75648, Control_c, 0, 64, 62
1, 75652, Note_off_c, 0, 55, 51
1, 75661, Note_off_c, 0, 62, 58
1, 75662, Control_c, 0, 64, 66
1, 75685, Note_on_c, 0, 71, 86
1, 75688, Note_off_c, 0, 43, 57
1, 75707, Control_c, 0, 64, 65
1, 75752, Control_c, 0, 64, 66
1, 75758, Note_off_c, 0, 71, 62
1, 75759, Note_on_c, 0, 62, 79
1, 75766, Control_c, 0, 64, 67
1, 75781, Control_c, 0, 64, 68
1, 75796, Control_c, 0, 64, 68
1, 75812, Note_off_c, 0, 62, 61
1, 75826, Control_c, 0, 64, 65
1, 75841, Control_c, 0, 64, 48
1, 75846, Note_on_c, 0, 53, 87
1, 75859, Note_on_c, 0, 41, 74
1, 75862, Control_c, 0, 64, 0
1, 75918, Note_on_c, 0, 62, 79
1, 75938, Control_c, 0, 64, 47
1, 75953, Control_c, 0, 64, 64
1, 75967, Control_c, 0, 64, 70
1, 75981, Note_off_c, 0, 62, 61
1, 75982, Control_c, 0, 64, 73
1, 75999, Note_on_c, 0, 71, 81
1, 76000, Note_off_c, 0, 41, 61
1, 76026, Note_off_c, 0, 53, 62
1, 76056, Control_c, 0, 64, 74
1, 76071, Control_c, 0, 64, 74
1, 76080, Note_on_c, 0, 62, 72
1, 76082, Note_off_c, 0, 71, 63
1, 76085, Control_c, 0, 64, 75
1, 76124, Note_off_c, 0, 62, 61
1, 76130, Control_c, 0, 64, 73
1, 76145, Control_c, 0, 64, 55
1, 76160, Control_c, 0, 64, 0
1, 76188, Note_on_c, 0, 54, 90
1, 76192, Note_on_c, 0, 42, 83
1, 76208, Note_on_c, 0, 70, 80
1, 76234, Control_c, 0, 64, 12
1, 76249, Control_c, 0, 64, 65
1, 76264, Control_c, 0, 64, 77
1, 76279, Control_c, 0, 64, 89
1, 76284, Note_off_c, 0, 70, 64
1, 76288, Note_on_c, 0, 73, 81
1, 76293, Control_c, 0, 64, 91
1, 76348, Note_off_c, 0, 42, 59
1, 76358, Note_on_c, 0, 70, 78
1, 76363, Note_off_c, 0, 54, 64
1, 76363, Note_off_c, 0, 73, 64
1, 76416, Note_off_c, 0, 70, 65
1, 76428, Note_on_c, 0, 66, 79
1, 76451, Note_off_c, 0, 66, 68
1, 76500, Control_c, 0, 64, 84
1, 76515, Control_c, 0, 64, 69
1, 76522, Note_on_c, 0, 66, 84
1, 76530, Control_c, 0, 64, 20
1, 76545, Control_c, 0, 64, 0
1, 76574, Control_c, 0, 64, 31
1, 76584, Note_off_c, 0, 66, 64
1, 76589, Control_c, 0, 64, 58
1, 76590, Note_on_c, 0, 70, 84
1, 76604, Control_c, 0, 64, 65
1, 76627, Control_c, 0, 64, 67
1, 76671, Control_c, 0, 64, 68
1, 76680, Note_off_c, 0, 70, 63
1, 76682, Note_on_c, 0, 66, 79
1, 76685, Control_c, 0, 64, 70
1, 76700, Control_c, 0, 64, 73
1, 76715, Control_c, 0, 64, 72
1, 76730, Control_c, 0, 64, 61
1, 76738, Note_off_c, 0, 66, 65
1, 76746, Control_c, 0, 64, 0
1, 76750, Note_on_c, 0, 61, 78
1, 76777, Note_off_c, 0, 61, 67
1, 76805, Control_c, 0, 64, 29
1, 76820, Control_c, 0, 64, 62
1, 76831, Note_on_c, 0, 61, 84
1, 76835, Control_c, 0, 64, 73
1, 76850, Control_c, 0, 64, 85
1, 76864, Control_c, 0, 64, 89
1, 76879, Control_c, 0, 64, 89
1, 76911, Note_off_c, 0, 61, 61
1, 76913, Note_on_c, 0, 66, 81
1, 76983, Note_on_c, 0, 61, 75
1, 76991, Note_off_c, 0, 66, 63
1, 77046, Note_off_c, 0, 61, 63
1, 77048, Note_on_c, 0, 58, 79
1, 77072, Note_off_c, 0, 58, 70
1, 77147, Control_c, 0, 64, 82
1, 77150, Note_on_c, 0, 42, 95
1, 77158, Note_on_c, 0, 30, 83
1, 77162, Control_c, 0, 64, 63
1, 77176, Control_c, 0, 64, 0
1, 77280, Control_c, 0, 64, 49
1, 77295, Control_c, 0, 64, 66
1, 77309, Control_c, 0, 64, 75
1, 77324, Control_c, 0, 64, 86
1, 77339, Control_c, 0, 64, 90
1, 77342, Note_off_c, 0, 30, 62
1, 77354, Control_c, 0, 64, 91
1, 77370, Note_off_c, 0, 42, 61
1, 77376, Control_c, 0, 64, 92
1, 77555, Control_c, 0, 64, 91
1, 77570, Control_c, 0, 64, 91
1, 77585, Control_c, 0, 64, 90
1, 77600, Control_c, 0, 64, 89
1, 77614, Control_c, 0, 64, 87
1, 77629, Control_c, 0, 64, 84
1, 77644, Control_c, 0, 64, 81
1, 77659, Control_c, 0, 64, 78
1, 77674, Control_c, 0, 64, 75
1, 77688, Control_c, 0, 64, 74
1, 77718, Control_c, 0, 64, 74
1, 77732, Control_c, 0, 64, 73
1, 77747, Control_c, 0, 64, 72
1, 77762, Control_c, 0, 64, 71
1, 77777, Control_c, 0, 64, 70
1, 77792, Control_c, 0, 64, 66
1, 77806, Control_c, 0, 64, 51
1, 77821, Control_c, 0, 64, 0
1, 78133, Note_on_c, 0, 76, 82
1, 78154, Control_c, 0, 64, 45
1, 78156, Note_on_c, 0, 70, 61
1, 78169, Control_c, 0, 64, 61
1, 78184, Control_c, 0, 64, 63
1, 78291, Note_on_c, 0, 42, 74
1, 78318, Control_c, 0, 64, 62
1, 78333, Control_c, 0, 64, 60
1, 78342, Note_off_c, 0, 42, 58
1, 78348, Control_c, 0, 64, 54
1, 78363, Control_c, 0, 64, 29
1, 78378, Control_c, 0, 64, 0
1, 78449, Note_on_c, 0, 54, 75
1, 78477, Note_off_c, 0, 54, 65
1, 78594, Note_off_c, 0, 76, 58
1, 78604, Note_on_c, 0, 58, 75
1, 78607, Note_on_c, 0, 73, 81
1, 78640, Note_off_c, 0, 58, 65
1, 78695, Note_off_c, 0, 73, 61
1, 78780, Note_on_c, 0, 59, 78
1, 78782, Note_on_c, 0, 74, 80
1, 78807, Control_c, 0, 64, 45
1, 78816, Note_off_c, 0, 59, 64
1, 78822, Control_c, 0, 64, 67
1, 78836, Control_c, 0, 64, 77
1, 78858, Control_c, 0, 64, 86
1, 78873, Control_c, 0, 64, 90
1, 78887, Control_c, 0, 64, 92
1, 78910, Note_off_c, 0, 70, 58
1, 78947, Note_on_c, 0, 71, 85
1, 78952, Note_off_c, 0, 74, 59
1, 79022, Control_c, 0, 64, 91
1, 79025, Note_off_c, 0, 71, 62
1, 79036, Control_c, 0, 64, 90
1, 79051, Control_c, 0, 64, 90
1, 79066, Control_c, 0, 64, 89
1, 79080, Control_c, 0, 64, 89
1, 79095, Control_c, 0, 64, 87
1, 79110, Control_c, 0, 64, 84
1, 79113, Note_on_c, 0, 70, 85
1, 79117, Note_on_c, 0, 64, 72
1, 79125, Control_c, 0, 64, 80
1, 79141, Control_c, 0, 64, 76
1, 79156, Control_c, 0, 64, 72
1, 79171, Control_c, 0, 64, 69
1, 79185, Control_c, 0, 64, 65
1, 79200, Control_c, 0, 64, 62
1, 79215, Control_c, 0, 64, 57
1, 79230, Control_c, 0, 64, 56
1, 79245, Control_c, 0, 64, 57
1, 79263, Note_on_c, 0, 42, 77
1, 79274, Control_c, 0, 64, 56
1, 79289, Control_c, 0, 64, 54
1, 79304, Control_c, 0, 64, 50
1, 79308, Note_off_c, 0, 42, 58
1, 79318, Control_c, 0, 64, 37
1, 79333, Control_c, 0, 64, 0
1, 79433, Note_on_c, 0, 54, 75
1, 79466, Note_off_c, 0, 54, 62
1, 79563, Note_off_c, 0, 70, 51
1, 79575, Note_on_c, 0, 73, 74
1, 79579, Note_on_c, 0, 58, 70
1, 79620, Note_off_c, 0, 58, 63
1, 79626, Note_off_c, 0, 64, 56
1, 79654, Note_off_c, 0, 73, 61
1, 79752, Note_on_c, 0, 59, 69
1, 79765, Note_on_c, 0, 62, 65
1, 79767, Note_on_c, 0, 71, 63
1, 79785, Control_c, 0, 64, 60
1, 79800, Control_c, 0, 64, 66
1, 79800, Note_off_c, 0, 59, 61
1, 79815, Control_c, 0, 64, 69
1, 79829, Control_c, 0, 64, 73
1, 79844, Control_c, 0, 64, 77
1, 79859, Control_c, 0, 64, 80
1, 79874, Control_c, 0, 64, 82
1, 79885, Note_off_c, 0, 62, 0
1, 79889, Control_c, 0, 64, 84
1, 79922, Poly_aftertouch_c, 0, 62, 127
1, 79931, Note_off_c, 0, 71, 62
1, 79934, Note_on_c, 0, 66, 71
1, 79963, Note_off_c, 0, 66, 66
1, 79969, Poly_aftertouch_c, 0, 62, 0
1, 80098, Control_c, 0, 64, 83
1, 80101, Note_on_c, 0, 76, 78
1, 80113, Control_c, 0, 64, 81
1, 80117, Note_on_c, 0, 70, 72
1, 80128, Control_c, 0, 64, 79
1, 80142, Control_c, 0, 64, 76
1, 80157, Control_c, 0, 64, 73
1, 80172, Control_c, 0, 64, 71
1, 80187, Control_c, 0, 64, 68
1, 80202, Control_c, 0, 64, 66
1, 80216, Control_c, 0, 64, 64
1, 80231, Control_c, 0, 64, 64
1, 80243, Note_on_c, 0, 42, 71
1, 80246, Control_c, 0, 64, 63
1, 80275, Control_c, 0, 64, 61
1, 80280, Note_off_c, 0, 42, 65
1, 80290, Control_c, 0, 64, 54
1, 80305, Control_c, 0, 64, 26
1, 80320, Control_c, 0, 64, 0
1, 80419, Note_on_c, 0, 54, 72
1, 80466, Note_off_c, 0, 54, 63
1, 80574, Note_on_c, 0, 58, 74
1, 80578, Note_on_c, 0, 73, 84
1, 80590, Note_off_c, 0, 76, 53
1, 80599, Note_off_c, 0, 70, 62
1, 80604, Note_off_c, 0, 58, 62
1, 80660, Note_off_c, 0, 73, 63
1, 80733, Note_on_c, 0, 59, 71
1, 80738, Note_on_c, 0, 74, 83
1, 80776, Note_off_c, 0, 59, 62
1, 80895, Note_on_c, 0, 78, 87
1, 80897, Note_on_c, 0, 62, 71
1, 80924, Note_off_c, 0, 62, 65
1, 80983, Note_off_c, 0, 78, 61
1, 81067, Note_on_c, 0, 79, 80
1, 81135, Control_c, 0, 64, 33
1, 81150, Control_c, 0, 64, 51
1, 81165, Control_c, 0, 64, 56
1, 81180, Control_c, 0, 64, 56
1, 81195, Control_c, 0, 64, 54
1, 81210, Control_c, 0, 64, 52
1, 81213, Note_on_c, 0, 52, 71
1, 81224, Control_c, 0, 64, 51
1, 81269, Control_c, 0, 64, 51
1, 81270, Note_off_c, 0, 52, 62
1, 81283, Control_c, 0, 64, 49
1, 81298, Control_c, 0, 64, 47
1, 81313, Control_c, 0, 64, 42
1, 81328, Control_c, 0, 64, 39
1, 81343, Control_c, 0, 64, 38
1, 81372, Control_c, 0, 64, 39
1, 81378, Note_on_c, 0, 64, 73
1, 81387, Control_c, 0, 64, 40
1, 81401, Control_c, 0, 64, 40
1, 81412, Note_off_c, 0, 64, 63
1, 81416, Control_c, 0, 64, 39
1, 81431, Control_c, 0, 64, 34
1, 81446, Control_c, 0, 64, 21
1, 81461, Control_c, 0, 64, 0
1, 81528, Note_on_c, 0, 67, 81
1, 81529, Note_on_c, 0, 71, 77
1, 81551, Note_off_c, 0, 67, 70
1, 81552, Note_off_c, 0, 74, 64
1, 81564, Note_off_c, 0, 71, 63
1, 81687, Note_off_c, 0, 79, 56
1, 81693, Note_on_c, 0, 69, 73
1, 81711, Note_on_c, 0, 73, 87
1, 81743, Control_c, 0, 64, 27
1, 81747, Note_off_c, 0, 69, 64
1, 81758, Control_c, 0, 64, 60
1, 81773, Control_c, 0, 64, 67
1, 81788, Control_c, 0, 64, 76
1, 81803, Control_c, 0, 64, 85
1, 81818, Control_c, 0, 64, 91
1, 81833, Control_c, 0, 64, 94
1, 81854, Control_c, 0, 64, 94
1, 81874, Note_on_c, 0, 81, 82
1, 81961, Note_off_c, 0, 81, 62
1, 82047, Control_c, 0, 64, 93
1, 82051, Note_on_c, 0, 78, 84
1, 82062, Control_c, 0, 64, 92
1, 82077, Control_c, 0, 64, 89
1, 82092, Control_c, 0, 64, 87
1, 82106, Control_c, 0, 64, 84
1, 82121, Control_c, 0, 64, 81
1, 82136, Control_c, 0, 64, 79
1, 82151, Control_c, 0, 64, 77
1, 82166, Control_c, 0, 64, 75
1, 82180, Control_c, 0, 64, 72
1, 82191, Note_on_c, 0, 50, 75
1, 82193, Note_off_c, 0, 73, 58
1, 82195, Control_c, 0, 64, 67
1, 82210, Control_c, 0, 64, 61
1, 82225, Control_c, 0, 64, 47
1, 82239, Control_c, 0, 64, 0
1, 82244, Note_off_c, 0, 50, 64
1, 82362, Note_on_c, 0, 62, 69
1, 82399, Note_off_c, 0, 62, 64
1, 82511, Note_on_c, 0, 66, 78
1, 82512, Note_on_c, 0, 69, 76
1, 82550, Note_off_c, 0, 66, 62
1, 82556, Note_off_c, 0, 69, 63
1, 82706, Note_on_c, 0, 67, 78
1, 82706, Note_on_c, 0, 71, 80
1, 82722, Control_c, 0, 64, 50
1, 82731, Note_off_c, 0, 67, 69
1, 82736, Control_c, 0, 64, 71
1, 82751, Control_c, 0, 64, 84
1, 82766, Control_c, 0, 64, 100
1, 82776, Note_off_c, 0, 78, 38
1, 82781, Control_c, 0, 64, 115
1, 82796, Control_c, 0, 64, 127
1, 82857, Note_on_c, 0, 79, 81
1, 82934, Note_off_c, 0, 79, 56
1, 82944, Control_c, 0, 64, 121
1, 82959, Control_c, 0, 64, 113
1, 82974, Control_c, 0, 64, 106
1, 82989, Control_c, 0, 64, 100
1, 83003, Control_c, 0, 64, 95
1, 83018, Control_c, 0, 64, 91
1, 83025, Note_on_c, 0, 76, 82
1, 83033, Control_c, 0, 64, 88
1, 83048, Control_c, 0, 64, 86
1, 83062, Control_c, 0, 64, 82
1, 83077, Control_c, 0, 64, 78
1, 83092, Control_c, 0, 64, 74
1, 83107, Control_c, 0, 64, 70
1, 83123, Control_c, 0, 64, 65
1, 83138, Control_c, 0, 64, 62
1, 83152, Control_c, 0, 64, 59
1, 83167, Control_c, 0, 64, 56
1, 83171, Note_on_c, 0, 49, 73
1, 83182, Control_c, 0, 64, 54
1, 83211, Note_off_c, 0, 49, 62
1, 83212, Note_off_c, 0, 71, 49
1, 83226, Control_c, 0, 64, 53
1, 83256, Control_c, 0, 64, 53
1, 83285, Control_c, 0, 64, 52
1, 83300, Control_c, 0, 64, 50
1, 83315, Control_c, 0, 64, 46
1, 83330, Control_c, 0, 64, 37
1, 83335, Note_on_c, 0, 61, 71
1, 83352, Control_c, 0, 64, 0
1, 83370, Note_off_c, 0, 61, 66
1, 83493, Note_on_c, 0, 64, 73
1, 83493, Note_on_c, 0, 68, 77
1, 83506, Note_off_c, 0, 76, 0
1, 83506, Note_on_c, 0, 76, 15
1, 83520, Note_off_c, 0, 64, 69
1, 83538, Note_off_c, 0, 68, 61
1, 83656, Note_on_c, 0, 66, 77
1, 83664, Note_on_c, 0, 70, 75
1, 83693, Note_off_c, 0, 66, 64
1, 83693, Control_c, 0, 64, 39
1, 83708, Control_c, 0, 64, 64
1, 83722, Control_c, 0, 64, 74
1, 83737, Control_c, 0, 64, 88
1, 83752, Control_c, 0, 64, 98
1, 83767, Control_c, 0, 64, 99
1, 83802, Note_on_c, 0, 78, 76
1, 83826, Control_c, 0, 64, 99
1, 83842, Note_off_c, 0, 76, 37
1, 83855, Note_off_c, 0, 70, 24
1, 83866, Note_off_c, 0, 78, 57
1, 83871, Control_c, 0, 64, 98
1, 83900, Control_c, 0, 64, 95
1, 83915, Control_c, 0, 64, 86
1, 83931, Control_c, 0, 64, 73
1, 83946, Control_c, 0, 64, 57
1, 83961, Control_c, 0, 64, 0
1, 83979, Note_on_c, 0, 74, 59
1, 83992, Note_on_c, 0, 71, 54
1, 84088, Note_off_c, 0, 71, 63
1, 84095, Note_off_c, 0, 74, 63
1, 84125, Note_on_c, 0, 59, 37
1, 84164, Note_off_c, 0, 59, 52
1, 84292, Note_on_c, 0, 47, 35
1, 84298, Note_on_c, 0, 86, 52
1, 84308, Control_c, 0, 64, 19
1, 84323, Control_c, 0, 64, 0
1, 84324, Note_off_c, 0, 47, 58
1, 84369, Poly_aftertouch_c, 0, 83, 127
1, 84441, Note_on_c, 0, 59, 46
1, 84468, Note_off_c, 0, 59, 60
1, 84554, Note_off_c, 0, 86, 58
1, 84586, Poly_aftertouch_c, 0, 83, 0
1, 84594, Note_on_c, 0, 45, 60
1, 84605, Control_c, 0, 64, 33
1, 84619, Control_c, 0, 64, 34
1, 84624, Note_off_c, 0, 45, 65
1, 84634, Control_c, 0, 64, 31
1, 84649, Control_c, 0, 64, 29
1, 84679, Control_c, 0, 64, 27
1, 84693, Control_c, 0, 64, 23
1, 84708, Control_c, 0, 64, 22
1, 84724, Control_c, 0, 64, 21
1, 84754, Control_c, 0, 64, 10
1, 84769, Control_c, 0, 64, 0
1, 84769, Note_on_c, 0, 57, 56
1, 84794, Note_off_c, 0, 57, 58
1, 84926, Note_on_c, 0, 74, 63
1, 84930, Note_on_c, 0, 71, 57
1, 84939, Control_c, 0, 64, 16
1, 84954, Control_c, 0, 64, 56
1, 84969, Control_c, 0, 64, 59
1, 84983, Control_c, 0, 64, 55
1, 84998, Control_c, 0, 64, 52
1, 85013, Control_c, 0, 64, 51
1, 85028, Control_c, 0, 64, 53
1, 85043, Control_c, 0, 64, 54
1, 85052, Note_off_c, 0, 74, 64
1, 85055, Note_off_c, 0, 71, 64
1, 85072, Control_c, 0, 64, 53
1, 85082, Note_on_c, 0, 55, 68
1, 85087, Control_c, 0, 64, 52
1, 85102, Control_c, 0, 64, 52
1, 85119, Note_off_c, 0, 55, 59
1, 85131, Control_c, 0, 64, 53
1, 85146, Control_c, 0, 64, 54
1, 85161, Control_c, 0, 64, 57
1, 85191, Control_c, 0, 64, 44
1, 85205, Control_c, 0, 64, 0
1, 85240, Note_on_c, 0, 43, 63
1, 85243, Note_on_c, 0, 86, 75
1, 85255, Note_on_c, 0, 83, 68
1, 85279, Control_c, 0, 64, 19
1, 85281, Note_off_c, 0, 43, 63
1, 85294, Control_c, 0, 64, 44
1, 85309, Control_c, 0, 64, 35
1, 85323, Control_c, 0, 64, 13
1, 85338, Control_c, 0, 64, 0
1, 85383, Control_c, 0, 64, 37
1, 85396, Note_on_c, 0, 55, 67
1, 85398, Control_c, 0, 64, 45
1, 85413, Control_c, 0, 64, 0
1, 85441, Note_off_c, 0, 55, 62
1, 85502, Control_c, 0, 64, 20
1, 85517, Control_c, 0, 64, 58
1, 85527, Note_off_c, 0, 86, 62
1, 85532, Control_c, 0, 64, 61
1, 85535, Note_off_c, 0, 83, 62
1, 85544, Note_on_c, 0, 42, 75
1, 85547, Control_c, 0, 64, 60
1, 85589, Note_off_c, 0, 42, 59
1, 85592, Control_c, 0, 64, 59
1, 85614, Control_c, 0, 64, 59
1, 85687, Control_c, 0, 64, 58
1, 85699, Note_on_c, 0, 54, 79
1, 85702, Control_c, 0, 64, 57
1, 85717, Control_c, 0, 64, 56
1, 85732, Control_c, 0, 64, 56
1, 85761, Note_off_c, 0, 54, 61
1, 85761, Control_c, 0, 64, 57
1, 85776, Control_c, 0, 64, 52
1, 85791, Control_c, 0, 64, 0
1, 85863, Note_on_c, 0, 41, 79
1, 85866, Note_on_c, 0, 53, 85
1, 85871, Note_on_c, 0, 83, 89
1, 85895, Control_c, 0, 64, 63
1, 85910, Control_c, 0, 64, 87
1, 85925, Control_c, 0, 64, 127
1, 85940, Note_off_c, 0, 83, 64
1, 85949, Note_on_c, 0, 86, 82
1, 85961, Note_off_c, 0, 41, 59
1, 85976, Note_off_c, 0, 53, 70
1, 86017, Note_on_c, 0, 83, 77
1, 86018, Note_off_c, 0, 86, 64
1, 86089, Note_on_c, 0, 80, 79
1, 86095, Note_off_c, 0, 83, 63
1, 86116, Note_off_c, 0, 80, 64
1, 86176, Control_c, 0, 64, 105
1, 86186, Note_on_c, 0, 80, 89
1, 86191, Control_c, 0, 64, 86
1, 86206, Control_c, 0, 64, 70
1, 86220, Control_c, 0, 64, 55
1, 86235, Control_c, 0, 64, 43
1, 86250, Control_c, 0, 64, 55
1, 86253, Note_on_c, 0, 83, 84
1, 86255, Note_off_c, 0, 80, 65
1, 86265, Control_c, 0, 64, 60
1, 86280, Control_c, 0, 64, 60
1, 86310, Control_c, 0, 64, 60
1, 86328, Note_on_c, 0, 80, 86
1, 86328, Note_off_c, 0, 83, 64
1, 86348, Control_c, 0, 64, 61
1, 86363, Control_c, 0, 64, 63
1, 86377, Control_c, 0, 64, 63
1, 86391, Note_off_c, 0, 80, 65
1, 86392, Control_c, 0, 64, 57
1, 86404, Note_on_c, 0, 77, 72
1, 86407, Control_c, 0, 64, 0
1, 86429, Note_off_c, 0, 77, 69
1, 86480, Note_on_c, 0, 77, 85
1, 86495, Control_c, 0, 64, 31
1, 86510, Control_c, 0, 64, 65
1, 86525, Control_c, 0, 64, 77
1, 86540, Control_c, 0, 64, 94
1, 86546, Note_on_c, 0, 80, 85
1, 86551, Note_off_c, 0, 77, 58
1, 86555, Control_c, 0, 64, 100
1, 86566, Note_off_c, 0, 80, 69
1, 86584, Note_on_c, 0, 81, 54
1, 86604, Note_off_c, 0, 81, 63
1, 86623, Note_on_c, 0, 77, 78
1, 86659, Control_c, 0, 64, 101
1, 86674, Control_c, 0, 64, 104
1, 86676, Note_off_c, 0, 77, 62
1, 86686, Note_on_c, 0, 74, 75
1, 86688, Control_c, 0, 64, 110
1, 86703, Control_c, 0, 64, 115
1, 86711, Note_off_c, 0, 74, 69
1, 86718, Control_c, 0, 64, 114
1, 86733, Control_c, 0, 64, 98
1, 86748, Control_c, 0, 64, 72
1, 86760, Note_on_c, 0, 54, 90
1, 86763, Control_c, 0, 64, 0
1, 86769, Note_on_c, 0, 42, 78
1, 86787, Note_on_c, 0, 76, 91
1, 86836, Control_c, 0, 64, 50
1, 86838, Note_off_c, 0, 76, 62
1, 86851, Control_c, 0, 64, 65
1, 86862, Note_on_c, 0, 79, 76
1, 86866, Control_c, 0, 64, 72
1, 86881, Control_c, 0, 64, 77
1, 86895, Control_c, 0, 64, 78
1, 86927, Note_on_c, 0, 76, 73
1, 86929, Note_off_c, 0, 79, 59
1, 86981, Note_off_c, 0, 42, 61
1, 86994, Note_on_c, 0, 73, 80
1, 87001, Note_off_c, 0, 76, 63
1, 87016, Note_off_c, 0, 54, 64
1, 87021, Note_off_c, 0, 73, 64
1, 87043, Control_c, 0, 64, 78
1, 87073, Control_c, 0, 64, 74
1, 87095, Control_c, 0, 64, 62
1, 87109, Note_on_c, 0, 73, 89
1, 87110, Control_c, 0, 64, 0
1, 87156, Control_c, 0, 64, 17
1, 87169, Note_on_c, 0, 76, 82
1, 87171, Note_off_c, 0, 73, 63
1, 87171, Control_c, 0, 64, 53
1, 87186, Control_c, 0, 64, 63
1, 87200, Control_c, 0, 64, 66
1, 87215, Control_c, 0, 64, 65
1, 87230, Control_c, 0, 64, 64
1, 87235, Note_off_c, 0, 76, 63
1, 87238, Note_on_c, 0, 73, 80
1, 87244, Control_c, 0, 64, 63
1, 87259, Control_c, 0, 64, 64
1, 87274, Control_c, 0, 64, 66
1, 87289, Control_c, 0, 64, 69
1, 87297, Note_off_c, 0, 73, 63
1, 87304, Control_c, 0, 64, 72
1, 87315, Note_on_c, 0, 70, 77
1, 87318, Control_c, 0, 64, 73
1, 87333, Control_c, 0, 64, 72
1, 87336, Note_off_c, 0, 70, 69
1, 87348, Control_c, 0, 64, 65
1, 87363, Control_c, 0, 64, 16
1, 87378, Control_c, 0, 64, 0
1, 87404, Note_on_c, 0, 70, 84
1, 87437, Control_c, 0, 64, 47
1, 87452, Control_c, 0, 64, 65
1, 87467, Note_off_c, 0, 70, 63
1, 87467, Control_c, 0, 64, 75
1, 87472, Note_on_c, 0, 73, 78
1, 87481, Control_c, 0, 64, 84
1, 87496, Control_c, 0, 64, 85
1, 87529, Note_off_c, 0, 73, 63
1, 87538, Note_on_c, 0, 70, 73
1, 87607, Note_off_c, 0, 70, 63
1, 87614, Note_on_c, 0, 64, 68
1, 87645, Note_off_c, 0, 64, 66
1, 87702, Note_on_c, 0, 47, 90
1, 87703, Control_c, 0, 64, 79
1, 87708, Note_on_c, 0, 35, 78
1, 87717, Control_c, 0, 64, 65
1, 87732, Control_c, 0, 64, 0
1, 87738, Note_on_c, 0, 66, 75
1, 87791, Control_c, 0, 64, 36
1, 87804, Note_off_c, 0, 66, 63
1, 87806, Control_c, 0, 64, 61
1, 87815, Note_on_c, 0, 71, 75
1, 87821, Control_c, 0, 64, 71
1, 87826, Note_off_c, 0, 35, 64
1, 87836, Control_c, 0, 64, 79
1, 87858, Control_c, 0, 64, 81
1, 87866, Note_off_c, 0, 47, 64
1, 87873, Control_c, 0, 64, 81
1, 87888, Control_c, 0, 64, 79
1, 87892, Note_off_c, 0, 71, 65
1, 87902, Note_on_c, 0, 66, 81
1, 87903, Control_c, 0, 64, 77
1, 87919, Control_c, 0, 64, 76
1, 87957, Note_off_c, 0, 66, 63
1, 87971, Note_on_c, 0, 62, 76
1, 87993, Control_c, 0, 64, 75
1, 88008, Control_c, 0, 64, 70
1, 88019, Note_off_c, 0, 62, 61
1, 88022, Control_c, 0, 64, 51
1, 88037, Control_c, 0, 64, 0
1, 88075, Note_on_c, 0, 66, 77
1, 88079, Note_on_c, 0, 59, 95
1, 88111, Control_c, 0, 64, 38
1, 88126, Control_c, 0, 64, 62
1, 88140, Control_c, 0, 64, 69
1, 88143, Note_off_c, 0, 66, 63
1, 88155, Control_c, 0, 64, 75
1, 88160, Note_on_c, 0, 71, 76
1, 88170, Control_c, 0, 64, 75
1, 88185, Control_c, 0, 64, 75
1, 88200, Control_c, 0, 64, 74
1, 88215, Control_c, 0, 64, 73
1, 88235, Note_off_c, 0, 71, 63
1, 88239, Note_on_c, 0, 66, 80
1, 88256, Note_off_c, 0, 59, 64
1, 88292, Note_off_c, 0, 66, 64
1, 88306, Note_on_c, 0, 62, 80
1, 88348, Control_c, 0, 64, 68
1, 88359, Note_off_c, 0, 62, 62
1, 88363, Control_c, 0, 64, 42
1, 88378, Control_c, 0, 64, 0
1, 88388, Note_on_c, 0, 66, 83
1, 88452, Control_c, 0, 64, 56
1, 88456, Note_off_c, 0, 66, 63
1, 88461, Note_on_c, 0, 71, 84
1, 88466, Control_c, 0, 64, 66
1, 88481, Control_c, 0, 64, 72
1, 88496, Control_c, 0, 64, 75
1, 88526, Control_c, 0, 64, 74
1, 88540, Note_off_c, 0, 71, 65
1, 88544, Note_on_c, 0, 66, 84
1, 88555, Control_c, 0, 64, 74
1, 88614, Note_off_c, 0, 66, 62
1, 88617, Note_on_c, 0, 62, 79
1, 88652, Control_c, 0, 64, 73
1, 88667, Control_c, 0, 64, 66
1, 88671, Note_off_c, 0, 62, 64
1, 88681, Control_c, 0, 64, 0
1, 88690, Note_on_c, 0, 43, 89
1, 88695, Note_on_c, 0, 31, 83
1, 88718, Note_on_c, 0, 67, 88
1, 88771, Control_c, 0, 64, 34
1, 88784, Note_off_c, 0, 31, 62
1, 88786, Control_c, 0, 64, 64
1, 88797, Note_off_c, 0, 67, 62
1, 88801, Control_c, 0, 64, 71
1, 88802, Note_on_c, 0, 71, 82
1, 88815, Control_c, 0, 64, 77
1, 88821, Note_off_c, 0, 43, 64
1, 88860, Control_c, 0, 64, 75
1, 88875, Control_c, 0, 64, 73
1, 88881, Note_on_c, 0, 67, 80
1, 88885, Note_off_c, 0, 71, 65
1, 88889, Control_c, 0, 64, 71
1, 88948, Note_on_c, 0, 62, 74
1, 88958, Note_off_c, 0, 67, 61
1, 88963, Control_c, 0, 64, 69
1, 88978, Control_c, 0, 64, 59
1, 88993, Control_c, 0, 64, 0
1, 89002, Note_off_c, 0, 62, 63
1, 89040, Note_on_c, 0, 55, 95
1, 89053, Note_on_c, 0, 67, 86
1, 89096, Control_c, 0, 64, 60
1, 89111, Control_c, 0, 64, 65
1, 89126, Control_c, 0, 64, 68
1, 89130, Note_off_c, 0, 67, 57
1, 89138, Note_on_c, 0, 71, 83
1, 89141, Control_c, 0, 64, 69
1, 89156, Control_c, 0, 64, 69
1, 89170, Control_c, 0, 64, 70
1, 89185, Control_c, 0, 64, 71
1, 89200, Control_c, 0, 64, 73
1, 89214, Control_c, 0, 64, 75
1, 89215, Note_off_c, 0, 71, 65
1, 89220, Note_on_c, 0, 67, 83
1, 89229, Control_c, 0, 64, 75
1, 89259, Control_c, 0, 64, 71
1, 89272, Note_off_c, 0, 55, 64
1, 89274, Control_c, 0, 64, 57
1, 89288, Control_c, 0, 64, 0
1, 89289, Note_on_c, 0, 62, 78
1, 89290, Note_off_c, 0, 67, 57
1, 89354, Note_off_c, 0, 62, 60
1, 89356, Control_c, 0, 64, 50
1, 89370, Control_c, 0, 64, 65
1, 89385, Control_c, 0, 64, 74
1, 89389, Note_on_c, 0, 67, 83
1, 89400, Control_c, 0, 64, 80
1, 89429, Control_c, 0, 64, 79
1, 89444, Control_c, 0, 64, 79
1, 89456, Note_off_c, 0, 67, 61
1, 89459, Control_c, 0, 64, 78
1, 89467, Note_on_c, 0, 71, 82
1, 89503, Control_c, 0, 64, 77
1, 89519, Control_c, 0, 64, 76
1, 89534, Note_on_c, 0, 67, 73
1, 89534, Control_c, 0, 64, 75
1, 89540, Note_off_c, 0, 71, 65
1, 89549, Control_c, 0, 64, 74
1, 89564, Control_c, 0, 64, 73
1, 89579, Control_c, 0, 64, 72
1, 89593, Control_c, 0, 64, 71
1, 89595, Note_off_c, 0, 67, 60
1, 89608, Note_on_c, 0, 62, 75
1, 89623, Control_c, 0, 64, 71
1, 89638, Control_c, 0, 64, 70
1, 89652, Control_c, 0, 64, 65
1, 89665, Note_on_c, 0, 41, 80
1, 89667, Control_c, 0, 64, 0
1, 89669, Note_on_c, 0, 29, 74
1, 89694, Note_off_c, 0, 62, 52
1, 89712, Note_on_c, 0, 68, 84
1, 89772, Control_c, 0, 64, 52
1, 89786, Control_c, 0, 64, 65
1, 89789, Note_off_c, 0, 29, 62
1, 89801, Control_c, 0, 64, 72
1, 89812, Note_on_c, 0, 71, 80
1, 89816, Control_c, 0, 64, 77
1, 89831, Control_c, 0, 64, 78
1, 89835, Note_off_c, 0, 41, 62
1, 89836, Note_off_c, 0, 68, 55
1, 89889, Note_off_c, 0, 71, 63
1, 89890, Control_c, 0, 64, 77
1, 89902, Note_on_c, 0, 68, 78
1, 89920, Control_c, 0, 64, 77
1, 89935, Control_c, 0, 64, 76
1, 89950, Control_c, 0, 64, 75
1, 89965, Control_c, 0, 64, 73
1, 89973, Note_off_c, 0, 68, 64
1, 89975, Note_on_c, 0, 62, 70
1, 89979, Control_c, 0, 64, 73
1, 90036, Note_off_c, 0, 62, 57
1, 90038, Control_c, 0, 64, 70
1, 90053, Control_c, 0, 64, 52
1, 90066, Note_on_c, 0, 53, 88
1, 90068, Control_c, 0, 64, 0
1, 90077, Note_on_c, 0, 68, 83
1, 90149, Control_c, 0, 64, 28
1, 90164, Control_c, 0, 64, 58
1, 90179, Control_c, 0, 64, 65
1, 90181, Note_off_c, 0, 68, 59
1, 90182, Note_on_c, 0, 71, 77
1, 90194, Control_c, 0, 64, 68
1, 90209, Control_c, 0, 64, 69
1, 90253, Control_c, 0, 64, 70
1, 90265, Note_off_c, 0, 71, 62
1, 90268, Control_c, 0, 64, 70
1, 90272, Note_on_c, 0, 68, 76
1, 90283, Control_c, 0, 64, 72
1, 90298, Control_c, 0, 64, 73
1, 90313, Control_c, 0, 64, 74
1, 90331, Note_off_c, 0, 68, 63
1, 90339, Note_on_c, 0, 62, 73
1, 90343, Control_c, 0, 64, 73
1, 90358, Control_c, 0, 64, 65
1, 90373, Control_c, 0, 64, 0
1, 90391, Note_off_c, 0, 53, 62
1, 90404, Note_off_c, 0, 62, 58
1, 90426, Note_on_c, 0, 68, 81
1, 90447, Control_c, 0, 64, 42
1, 90462, Control_c, 0, 64, 62
1, 90476, Control_c, 0, 64, 68
1, 90491, Control_c, 0, 64, 73
1, 90506, Control_c, 0, 64, 75
1, 90517, Note_on_c, 0, 71, 77
1, 90522, Note_off_c, 0, 68, 63
1, 90600, Note_on_c, 0, 68, 79
1, 90601, Note_off_c, 0, 71, 65
1, 90670, Note_on_c, 0, 62, 70
1, 90670, Note_off_c, 0, 68, 62
1, 90698, Control_c, 0, 64, 74
1, 90701, Note_off_c, 0, 62, 67
1, 90728, Control_c, 0, 64, 74
1, 90743, Control_c, 0, 64, 73
1, 90757, Control_c, 0, 64, 72
1, 90772, Control_c, 0, 64, 71
1, 90784, Note_on_c, 0, 42, 87
1, 90787, Control_c, 0, 64, 70
1, 90791, Note_on_c, 0, 30, 75
1, 90802, Control_c, 0, 64, 69
1, 90817, Control_c, 0, 64, 68
1, 90839, Control_c, 0, 64, 67
1, 90854, Control_c, 0, 64, 66
1, 90868, Control_c, 0, 64, 63
1, 90883, Control_c, 0, 64, 42
1, 90898, Control_c, 0, 64, 0
1, 91136, Control_c, 0, 64, 14
1, 91151, Control_c, 0, 64, 29
1, 91166, Control_c, 0, 64, 33
1, 91196, Control_c, 0, 64, 32
1, 91240, Control_c, 0, 64, 29
1, 91255, Control_c, 0, 64, 25
1, 91270, Control_c, 0, 64, 18
1, 91285, Control_c, 0, 64, 0
1, 91347, Note_off_c, 0, 30, 34
1, 91360, Note_on_c, 0, 78, 71
1, 91372, Note_on_c, 0, 74, 54
1, 91410, Note_off_c, 0, 42, 56
1, 91495, Note_off_c, 0, 74, 0
1, 91495, Note_on_c, 0, 74, 5
1, 91565, Control_c, 0, 64, 41
1, 91588, Control_c, 0, 64, 63
1, 91603, Control_c, 0, 64, 72
1, 91617, Control_c, 0, 64, 85
1, 91632, Control_c, 0, 64, 99
1, 91640, Note_off_c, 0, 78, 51
1, 91647, Control_c, 0, 64, 107
1, 91661, Note_off_c, 0, 74, 48
1, 91662, Control_c, 0, 64, 107
1, 91706, Control_c, 0, 64, 107
1, 91765, Control_c, 0, 64, 106
1, 91780, Control_c, 0, 64, 103
1, 91795, Control_c, 0, 64, 101
1, 91810, Control_c, 0, 64, 99
1, 91825, Control_c, 0, 64, 98
1, 91839, Control_c, 0, 64, 96
1, 91854, Control_c, 0, 64, 93
1, 91869, Control_c, 0, 64, 92
1, 91884, Control_c, 0, 64, 91
1, 91899, Control_c, 0, 64, 90
1, 91914, Control_c, 0, 64, 87
1, 91929, Control_c, 0, 64, 84
1, 91944, Control_c, 0, 64, 81
1, 91959, Control_c, 0, 64, 77
1, 91974, Control_c, 0, 64, 74
1, 91989, Control_c, 0, 64, 70
1, 92003, Control_c, 0, 64, 65
1, 92007, Note_on_c, 0, 70, 50
1, 92018, Control_c, 0, 64, 57
1, 92027, Note_on_c, 0, 64, 41
1, 92033, Control_c, 0, 64, 41
1, 92048, Control_c, 0, 64, 0
1, 92226, Control_c, 0, 64, 46
1, 92240, Control_c, 0, 64, 63
1, 92255, Control_c, 0, 64, 70
1, 92270, Control_c, 0, 64, 78
1, 92285, Control_c, 0, 64, 84
1, 92300, Control_c, 0, 64, 89
1, 92314, Control_c, 0, 64, 91
1, 92329, Control_c, 0, 64, 91
1, 92391, Note_off_c, 0, 64, 42
1, 92438, Note_off_c, 0, 70, 0
1, 92469, Poly_aftertouch_c, 0, 70, 0
1, 92470, Control_c, 0, 64, 91
1, 92588, Control_c, 0, 64, 90
1, 92603, Control_c, 0, 64, 87
1, 92618, Control_c, 0, 64, 80
1, 92633, Control_c, 0, 64, 69
1, 92635, Note_on_c, 0, 47, 40
1, 92647, Control_c, 0, 64, 43
1, 92662, Control_c, 0, 64, 0
1, 92664, Note_on_c, 0, 35, 24
1, 92737, Control_c, 0, 64, 56
1, 92752, Control_c, 0, 64, 68
1, 92762, Note_off_c, 0, 35, 58
1, 92768, Control_c, 0, 64, 77
1, 92783, Control_c, 0, 64, 86
1, 92788, Note_off_c, 0, 47, 56
1, 92798, Control_c, 0, 64, 89
1, 92871, Control_c, 0, 64, 89
1, 92886, Control_c, 0, 64, 88
1, 92916, Control_c, 0, 64, 88
1, 93035, Control_c, 0, 64, 87
1, 93050, Control_c, 0, 64, 79
1, 93064, Control_c, 0, 64, 64
1, 93069, Note_on_c, 0, 59, 43
1, 93076, Note_on_c, 0, 47, 31
1, 93079, Control_c, 0, 64, 0
1, 93160, Control_c, 0, 64, 42
1, 93175, Control_c, 0, 64, 62
1, 93190, Control_c, 0, 64, 70
1, 93205, Control_c, 0, 64, 76
1, 93207, Note_off_c, 0, 47, 50
1, 93220, Control_c, 0, 64, 79
1, 93235, Control_c, 0, 64, 79
1, 93237, Note_on_c, 0, 78, 56
1, 93256, Note_on_c, 0, 74, 43
1, 93268, Note_off_c, 0, 59, 63
1, 93329, Note_off_c, 0, 74, 51
1, 93338, Control_c, 0, 64, 78
1, 93346, Note_off_c, 0, 78, 52
1, 93353, Control_c, 0, 64, 76
1, 93368, Control_c, 0, 64, 74
1, 93383, Control_c, 0, 64, 70
1, 93397, Control_c, 0, 64, 67
1, 93410, Note_on_c, 0, 79, 63
1, 93412, Control_c, 0, 64, 65
1, 93427, Control_c, 0, 64, 63
1, 93440, Note_on_c, 0, 76, 37
1, 93442, Control_c, 0, 64, 61
1, 93457, Control_c, 0, 64, 58
1, 93471, Control_c, 0, 64, 56
1, 93473, Note_off_c, 0, 76, 55
1, 93486, Control_c, 0, 64, 54
1, 93501, Control_c, 0, 64, 52
1, 93516, Control_c, 0, 64, 51
1, 93527, Note_off_c, 0, 79, 55
1, 93531, Control_c, 0, 64, 49
1, 93546, Control_c, 0, 64, 45
1, 93551, Note_on_c, 0, 76, 65
1, 93560, Control_c, 0, 64, 40
1, 93563, Note_on_c, 0, 73, 55
1, 93575, Control_c, 0, 64, 35
1, 93590, Control_c, 0, 64, 31
1, 93604, Control_c, 0, 64, 28
1, 93618, Note_off_c, 0, 73, 53
1, 93619, Control_c, 0, 64, 23
1, 93634, Control_c, 0, 64, 10
1, 93649, Control_c, 0, 64, 0
1, 93703, Note_off_c, 0, 76, 54
1, 93724, Note_on_c, 0, 78, 62
1, 93740, Note_on_c, 0, 74, 45
1, 93798, Control_c, 0, 64, 25
1, 93805, Note_off_c, 0, 74, 51
1, 93812, Control_c, 0, 64, 49
1, 93834, Control_c, 0, 64, 61
1, 93849, Control_c, 0, 64, 68
1, 93864, Control_c, 0, 64, 78
1, 93873, Note_on_c, 0, 59, 59
1, 93876, Note_on_c, 0, 62, 56
1, 93879, Control_c, 0, 64, 86
1, 93890, Note_off_c, 0, 78, 36
1, 93893, Control_c, 0, 64, 89
1, 93968, Control_c, 0, 64, 89
1, 93971, Note_off_c, 0, 59, 53
1, 93983, Control_c, 0, 64, 88
1, 93986, Note_off_c, 0, 62, 56
1, 93998, Control_c, 0, 64, 87
1, 94012, Control_c, 0, 64, 86
1, 94027, Control_c, 0, 64, 86
1, 94040, Note_on_c, 0, 64, 62
1, 94042, Control_c, 0, 64, 84
1, 94054, Note_on_c, 0, 61, 55
1, 94057, Control_c, 0, 64, 83
1, 94072, Control_c, 0, 64, 81
1, 94086, Control_c, 0, 64, 80
1, 94090, Note_off_c, 0, 61, 63
1, 94101, Control_c, 0, 64, 79
1, 94116, Control_c, 0, 64, 77
1, 94131, Control_c, 0, 64, 74
1, 94146, Control_c, 0, 64, 70
1, 94160, Control_c, 0, 64, 67
1, 94175, Control_c, 0, 64, 64
1, 94190, Control_c, 0, 64, 61
1, 94191, Note_on_c, 0, 61, 51
1, 94200, Note_off_c, 0, 64, 57
1, 94205, Control_c, 0, 64, 58
1, 94210, Note_on_c, 0, 58, 52
1, 94219, Control_c, 0, 64, 56
1, 94234, Control_c, 0, 64, 54
1, 94249, Control_c, 0, 64, 52
1, 94264, Control_c, 0, 64, 51
1, 94279, Control_c, 0, 64, 48
1, 94293, Control_c, 0, 64, 45
1, 94309, Control_c, 0, 64, 39
1, 94321, Note_off_c, 0, 61, 55
1, 94324, Control_c, 0, 64, 31
1, 94333, Note_off_c, 0, 58, 37
1, 94339, Control_c, 0, 64, 22
1, 94354, Control_c, 0, 64, 0
1, 94383, Note_on_c, 0, 62, 40
1, 94401, Note_on_c, 0, 59, 34
1, 94524, Note_on_c, 0, 83, 64
1, 94542, Note_on_c, 0, 79, 45
1, 94598, Control_c, 0, 64, 39
1, 94613, Control_c, 0, 64, 65
1, 94628, Control_c, 0, 64, 77
1, 94642, Control_c, 0, 64, 93
1, 94653, Note_off_c, 0, 62, 42
1, 94656, Note_off_c, 0, 59, 42
1, 94657, Control_c, 0, 64, 102
1, 94670, Note_off_c, 0, 79, 48
1, 94695, Note_off_c, 0, 83, 35
1, 94702, Control_c, 0, 64, 102
1, 94716, Control_c, 0, 64, 100
1, 94718, Note_on_c, 0, 84, 72
1, 94731, Control_c, 0, 64, 97
1, 94734, Note_on_c, 0, 81, 57
1, 94746, Control_c, 0, 64, 95
1, 94761, Control_c, 0, 64, 92
1, 94768, Note_off_c, 0, 81, 64
1, 94776, Control_c, 0, 64, 89
1, 94791, Control_c, 0, 64, 86
1, 94805, Control_c, 0, 64, 83
1, 94820, Control_c, 0, 64, 81
1, 94835, Control_c, 0, 64, 78
1, 94850, Control_c, 0, 64, 76
1, 94853, Note_off_c, 0, 84, 60
1, 94860, Note_on_c, 0, 81, 70
1, 94865, Control_c, 0, 64, 73
1, 94880, Note_on_c, 0, 78, 63
1, 94880, Control_c, 0, 64, 69
1, 94895, Control_c, 0, 64, 65
1, 94909, Control_c, 0, 64, 62
1, 94924, Control_c, 0, 64, 59
1, 94936, Note_off_c, 0, 78, 54
1, 94939, Control_c, 0, 64, 58
1, 94954, Control_c, 0, 64, 58
1, 94968, Control_c, 0, 64, 58
1, 94983, Control_c, 0, 64, 55
1, 94998, Control_c, 0, 64, 41
1, 95013, Control_c, 0, 64, 0
1, 95015, Note_off_c, 0, 81, 60
1, 95026, Note_on_c, 0, 83, 72
1, 95039, Note_on_c, 0, 79, 60
1, 95132, Control_c, 0, 64, 51
1, 95147, Control_c, 0, 64, 63
1, 95162, Control_c, 0, 64, 69
1, 95177, Control_c, 0, 64, 76
1, 95190, Note_on_c, 0, 67, 65
1, 95190, Note_off_c, 0, 79, 50
1, 95192, Control_c, 0, 64, 82
1, 95197, Note_on_c, 0, 64, 64
1, 95206, Control_c, 0, 64, 85
1, 95221, Control_c, 0, 64, 86
1, 95223, Note_off_c, 0, 83, 33
1, 95282, Note_off_c, 0, 64, 57
1, 95297, Note_off_c, 0, 67, 61
1, 95332, Control_c, 0, 64, 85
1, 95361, Note_on_c, 0, 69, 74
1, 95362, Control_c, 0, 64, 85
1, 95377, Control_c, 0, 64, 84
1, 95381, Note_on_c, 0, 66, 65
1, 95391, Control_c, 0, 64, 84
1, 95406, Control_c, 0, 64, 83
1, 95419, Note_off_c, 0, 66, 58
1, 95421, Control_c, 0, 64, 82
1, 95436, Control_c, 0, 64, 81
1, 95451, Control_c, 0, 64, 79
1, 95465, Control_c, 0, 64, 77
1, 95480, Control_c, 0, 64, 74
1, 95495, Control_c, 0, 64, 72
1, 95510, Control_c, 0, 64, 70
1, 95518, Note_off_c, 0, 69, 59
1, 95525, Control_c, 0, 64, 68
1, 95532, Note_on_c, 0, 66, 65
1, 95536, Note_on_c, 0, 63, 59
1, 95539, Control_c, 0, 64, 65
1, 95554, Control_c, 0, 64, 63
1, 95569, Control_c, 0, 64, 62
1, 95584, Control_c, 0, 64, 60
1, 95598, Control_c, 0, 64, 59
1, 95613, Control_c, 0, 64, 56
1, 95628, Control_c, 0, 64, 54
1, 95643, Control_c, 0, 64, 53
1, 95658, Control_c, 0, 64, 51
1, 95663, Note_off_c, 0, 63, 51
1, 95673, Control_c, 0, 64, 48
1, 95688, Control_c, 0, 64, 46
1, 95692, Note_off_c, 0, 66, 36
1, 95703, Control_c, 0, 64, 45
1, 95705, Note_on_c, 0, 67, 61
1, 95715, Note_on_c, 0, 64, 50
1, 95732, Control_c, 0, 64, 44
1, 95747, Control_c, 0, 64, 43
1, 95762, Control_c, 0, 64, 43
1, 95837, Control_c, 0, 64, 44
1, 95852, Control_c, 0, 64, 44
1, 95866, Control_c, 0, 64, 45
1, 95882, Note_on_c, 0, 79, 77
1, 95896, Control_c, 0, 64, 42
1, 95905, Note_on_c, 0, 76, 63
1, 95911, Control_c, 0, 64, 34
1, 95926, Control_c, 0, 64, 0
1, 95971, Control_c, 0, 64, 26
1, 95986, Control_c, 0, 64, 49
1, 96001, Control_c, 0, 64, 59
1, 96015, Control_c, 0, 64, 63
1, 96030, Control_c, 0, 64, 64
1, 96040, Note_off_c, 0, 64, 36
1, 96040, Note_off_c, 0, 79, 57
1, 96045, Control_c, 0, 64, 64
1, 96060, Control_c, 0, 64, 63
1, 96064, Note_off_c, 0, 67, 40
1, 96075, Control_c, 0, 64, 62
1, 96126, Note_on_c, 0, 83, 78
1, 96154, Note_on_c, 0, 79, 63
1, 96202, Note_off_c, 0, 76, 26
1, 96215, Control_c, 0, 64, 63
1, 96230, Control_c, 0, 64, 63
1, 96260, Control_c, 0, 64, 64
1, 96275, Control_c, 0, 64, 64
1, 96276, Note_off_c, 0, 79, 35
1, 96289, Control_c, 0, 64, 65
1, 96304, Control_c, 0, 64, 66
1, 96314, Note_on_c, 0, 81, 74
1, 96317, Note_on_c, 0, 78, 72
1, 96319, Control_c, 0, 64, 68
1, 96332, Note_off_c, 0, 83, 54
1, 96334, Control_c, 0, 64, 69
1, 96349, Control_c, 0, 64, 69
1, 96363, Control_c, 0, 64, 64
1, 96378, Control_c, 0, 64, 51
1, 96388, Note_off_c, 0, 78, 60
1, 96393, Control_c, 0, 64, 0
1, 96437, Control_c, 0, 64, 19
1, 96452, Control_c, 0, 64, 59
1, 96467, Note_off_c, 0, 81, 51
1, 96467, Control_c, 0, 64, 72
1, 96468, Note_on_c, 0, 79, 80
1, 96475, Note_on_c, 0, 76, 76
1, 96481, Control_c, 0, 64, 86
1, 96496, Control_c, 0, 64, 101
1, 96511, Control_c, 0, 64, 103
1, 96517, Note_off_c, 0, 76, 54
1, 96579, Note_off_c, 0, 79, 53
1, 96618, Note_on_c, 0, 78, 76
1, 96627, Note_on_c, 0, 74, 69
1, 96672, Note_off_c, 0, 78, 62
1, 96674, Control_c, 0, 64, 103
1, 96689, Control_c, 0, 64, 102
1, 96704, Control_c, 0, 64, 102
1, 96719, Control_c, 0, 64, 100
1, 96729, Note_off_c, 0, 74, 60
1, 96734, Control_c, 0, 64, 98
1, 96749, Control_c, 0, 64, 96
1, 96764, Control_c, 0, 64, 94
1, 96779, Control_c, 0, 64, 92
1, 96787, Note_on_c, 0, 76, 78
1, 96794, Control_c, 0, 64, 90
1, 96799, Note_on_c, 0, 73, 67
1, 96809, Control_c, 0, 64, 89
1, 96824, Control_c, 0, 64, 88
1, 96845, Control_c, 0, 64, 86
1, 96860, Control_c, 0, 64, 85
1, 96875, Control_c, 0, 64, 83
1, 96890, Control_c, 0, 64, 80
1, 96905, Control_c, 0, 64, 76
1, 96919, Control_c, 0, 64, 72
1, 96928, Note_on_c, 0, 64, 68
1, 96934, Note_on_c, 0, 61, 58
1, 96934, Control_c, 0, 64, 68
1, 96949, Control_c, 0, 64, 64
1, 96964, Control_c, 0, 64, 61
1, 96979, Control_c, 0, 64, 59
1, 97023, Note_off_c, 0, 64, 50
1, 97023, Control_c, 0, 64, 59
1, 97038, Control_c, 0, 64, 55
1, 97053, Control_c, 0, 64, 42
1, 97068, Control_c, 0, 64, 0
1, 97140, Note_on_c, 0, 67, 69
1, 97141, Note_on_c, 0, 64, 60
1, 97163, Note_off_c, 0, 61, 58
1, 97230, Note_off_c, 0, 64, 52
1, 97303, Control_c, 0, 64, 53
1, 97304, Note_off_c, 0, 67, 60
1, 97306, Note_on_c, 0, 66, 67
1, 97312, Note_on_c, 0, 62, 56
1, 97318, Control_c, 0, 64, 69
1, 97333, Control_c, 0, 64, 83
1, 97345, Note_off_c, 0, 62, 63
1, 97348, Control_c, 0, 64, 106
1, 97358, Note_off_c, 0, 76, 62
1, 97363, Control_c, 0, 64, 127
1, 97363, Note_off_c, 0, 66, 60
1, 97378, Note_off_c, 0, 73, 42
1, 97468, Note_on_c, 0, 61, 61
1, 97470, Note_on_c, 0, 64, 64
1, 97482, Control_c, 0, 64, 123
1, 97497, Control_c, 0, 64, 115
1, 97512, Control_c, 0, 64, 109
1, 97527, Control_c, 0, 64, 106
1, 97542, Control_c, 0, 64, 103
1, 97557, Control_c, 0, 64, 99
1, 97578, Control_c, 0, 64, 96
1, 97593, Control_c, 0, 64, 94
1, 97594, Note_off_c, 0, 61, 56
1, 97597, Note_off_c, 0, 64, 58
1, 97608, Control_c, 0, 64, 92
1, 97623, Control_c, 0, 64, 91
1, 97638, Control_c, 0, 64, 90
1, 97640, Note_on_c, 0, 62, 60
1, 97647, Note_on_c, 0, 59, 64
1, 97652, Control_c, 0, 64, 89
1, 97667, Control_c, 0, 64, 87
1, 97682, Control_c, 0, 64, 85
1, 97697, Control_c, 0, 64, 82
1, 97712, Control_c, 0, 64, 80
1, 97727, Control_c, 0, 64, 77
1, 97742, Control_c, 0, 64, 75
1, 97757, Control_c, 0, 64, 72
1, 97771, Control_c, 0, 64, 70
1, 97785, Note_off_c, 0, 59, 49
1, 97786, Control_c, 0, 64, 69
1, 97801, Control_c, 0, 64, 67
1, 97816, Control_c, 0, 64, 65
1, 97822, Note_off_c, 0, 62, 48
1, 97830, Note_on_c, 0, 61, 59
1, 97831, Control_c, 0, 64, 63
1, 97836, Note_on_c, 0, 57, 53
1, 97846, Control_c, 0, 64, 61
1, 97860, Control_c, 0, 64, 60
1, 97890, Control_c, 0, 64, 60
1, 97905, Control_c, 0, 64, 59
1, 97920, Control_c, 0, 64, 59
1, 97934, Control_c, 0, 64, 57
1, 97949, Control_c, 0, 64, 52
1, 97964, Control_c, 0, 64, 47
1, 97978, Control_c, 0, 64, 42
1, 97991, Note_on_c, 0, 76, 70
1, 97993, Control_c, 0, 64, 42
1, 98001, Note_on_c, 0, 73, 64
1, 98008, Control_c, 0, 64, 43
1, 98023, Control_c, 0, 64, 47
1, 98038, Control_c, 0, 64, 56
1, 98052, Control_c, 0, 64, 61
1, 98067, Control_c, 0, 64, 64
1, 98082, Control_c, 0, 64, 66
1, 98097, Note_off_c, 0, 76, 55
1, 98097, Control_c, 0, 64, 68
1, 98112, Control_c, 0, 64, 68
1, 98126, Control_c, 0, 64, 68
1, 98141, Control_c, 0, 64, 64
1, 98156, Control_c, 0, 64, 57
1, 98171, Control_c, 0, 64, 37
1, 98174, Note_off_c, 0, 73, 55
1, 98186, Control_c, 0, 64, 10
1, 98198, Note_on_c, 0, 79, 73
1, 98201, Control_c, 0, 64, 28
1, 98216, Control_c, 0, 64, 44
1, 98219, Note_on_c, 0, 76, 59
1, 98231, Control_c, 0, 64, 57
1, 98245, Control_c, 0, 64, 64
1, 98260, Control_c, 0, 64, 68
1, 98275, Control_c, 0, 64, 73
1, 98290, Control_c, 0, 64, 76
1, 98305, Control_c, 0, 64, 77
1, 98328, Control_c, 0, 64, 77
1, 98332, Note_off_c, 0, 76, 53
1, 98339, Note_off_c, 0, 61, 42
1, 98343, Control_c, 0, 64, 74
1, 98357, Note_off_c, 0, 57, 41
1, 98357, Control_c, 0, 64, 70
1, 98372, Control_c, 0, 64, 65
1, 98385, Note_on_c, 0, 59, 46
1, 98387, Control_c, 0, 64, 64
1, 98389, Note_on_c, 0, 78, 66
1, 98389, Note_off_c, 0, 79, 55
1, 98397, Note_on_c, 0, 62, 42
1, 98401, Control_c, 0, 64, 66
1, 98406, Note_on_c, 0, 74, 55
1, 98416, Control_c, 0, 64, 69
1, 98431, Control_c, 0, 64, 72
1, 98446, Control_c, 0, 64, 75
1, 98454, Note_off_c, 0, 78, 62
1, 98461, Control_c, 0, 64, 76
1, 98490, Control_c, 0, 64, 75
1, 98550, Control_c, 0, 64, 75
1, 98579, Control_c, 0, 64, 74
1, 98585, Note_off_c, 0, 74, 57
1, 98594, Control_c, 0, 64, 73
1, 98603, Note_off_c, 0, 59, 25
1, 98609, Control_c, 0, 64, 70
1, 98613, Note_on_c, 0, 76, 63
1, 98621, Note_on_c, 0, 61, 51
1, 98624, Note_off_c, 0, 62, 44
1, 98624, Control_c, 0, 64, 66
1, 98630, Note_on_c, 0, 64, 46
1, 98639, Control_c, 0, 64, 61
1, 98646, Note_on_c, 0, 73, 41
1, 98654, Control_c, 0, 64, 50
1, 98669, Control_c, 0, 64, 39
1, 98683, Control_c, 0, 64, 40
1, 98684, Note_off_c, 0, 61, 52
1, 98698, Control_c, 0, 64, 43
1, 98713, Control_c, 0, 64, 44
1, 98743, Control_c, 0, 64, 45
1, 98758, Control_c, 0, 64, 46
1, 98773, Control_c, 0, 64, 46
1, 98826, Note_off_c, 0, 73, 48
1, 98874, Note_on_c, 0, 74, 55
1, 98886, Note_off_c, 0, 64, 59
1, 98887, Note_on_c, 0, 71, 43
1, 98891, Control_c, 0, 64, 46
1, 98895, Note_off_c, 0, 76, 44
1, 98895, Note_on_c, 0, 62, 42
1, 98901, Note_on_c, 0, 66, 44
1, 98906, Control_c, 0, 64, 45
1, 98950, Control_c, 0, 64, 45
1, 98965, Control_c, 0, 64, 41
1, 98980, Control_c, 0, 64, 24
1, 98995, Control_c, 0, 64, 0
1, 99069, Control_c, 0, 64, 38
1, 99091, Control_c, 0, 64, 61
1, 99101, Note_off_c, 0, 71, 45
1, 99107, Control_c, 0, 64, 70
1, 99122, Control_c, 0, 64, 79
1, 99137, Control_c, 0, 64, 86
1, 99152, Control_c, 0, 64, 87
1, 99360, Note_off_c, 0, 66, 37
1, 99388, Control_c, 0, 64, 87
1, 99418, Control_c, 0, 64, 86
1, 99432, Control_c, 0, 64, 86
1, 99447, Control_c, 0, 64, 85
1, 99462, Control_c, 0, 64, 85
1, 99477, Note_on_c, 0, 73, 47
1, 99477, Control_c, 0, 64, 84
1, 99480, Note_on_c, 0, 67, 33
1, 99487, Note_on_c, 0, 64, 36
1, 99492, Control_c, 0, 64, 84
1, 99497, Note_on_c, 0, 69, 40
1, 99506, Control_c, 0, 64, 83
1, 99508, Note_off_c, 0, 74, 42
1, 99521, Control_c, 0, 64, 83
1, 99536, Control_c, 0, 64, 81
1, 99551, Control_c, 0, 64, 80
1, 99566, Control_c, 0, 64, 79
1, 99581, Control_c, 0, 64, 79
1, 99596, Control_c, 0, 64, 77
1, 99605, Note_off_c, 0, 62, 35
1, 99611, Control_c, 0, 64, 75
1, 99625, Control_c, 0, 64, 73
1, 99640, Control_c, 0, 64, 70
1, 99655, Control_c, 0, 64, 66
1, 99670, Control_c, 0, 64, 63
1, 99685, Control_c, 0, 64, 60
1, 99699, Control_c, 0, 64, 58
1, 99714, Control_c, 0, 64, 56
1, 99729, Control_c, 0, 64, 54
1, 99744, Control_c, 0, 64, 51
1, 99758, Control_c, 0, 64, 48
1, 99773, Control_c, 0, 64, 46
1, 99788, Control_c, 0, 64, 43
1, 99803, Control_c, 0, 64, 41
1, 99818, Control_c, 0, 64, 39
1, 99840, Control_c, 0, 64, 37
1, 99855, Control_c, 0, 64, 34
1, 99870, Control_c, 0, 64, 29
1, 99885, Control_c, 0, 64, 26
1, 99900, Control_c, 0, 64, 24
1, 99915, Control_c, 0, 64, 21
1, 99930, Control_c, 0, 64, 18
1, 99945, Control_c, 0, 64, 0
1, 100617, Control_c, 0, 64, 37
1, 100632, Control_c, 0, 64, 52
1, 100647, Control_c, 0, 64, 59
1, 100661, Control_c, 0, 64, 62
1, 100676, Control_c, 0, 64, 64
1, 100691, Control_c, 0, 64, 68
1, 100707, Control_c, 0, 64, 71
1, 100722, Control_c, 0, 64, 74
1, 100737, Control_c, 0, 64, 77
1, 100751, Control_c, 0, 64, 80
1, 100766, Control_c, 0, 64, 82
1, 100781, Control_c, 0, 64, 85
1, 100785, Note_off_c, 0, 69, 39
1, 100795, Control_c, 0, 64, 87
1, 100810, Control_c, 0, 64, 90
1, 100825, Control_c, 0, 64, 93
1, 100840, Control_c, 0, 64, 95
1, 100855, Control_c, 0, 64, 98
1, 100869, Control_c, 0, 64, 100
1, 100884, Control_c, 0, 64, 103
1, 100899, Control_c, 0, 64, 106
1, 100900, Note_off_c, 0, 73, 44
1, 100914, Control_c, 0, 64, 110
1, 100929, Control_c, 0, 64, 115
1, 100943, Control_c, 0, 64, 127
1, 101513, Note_off_c, 0, 67, 36
1, 101569, Note_off_c, 0, 64, 43
1, 101605, Note_on_c, 0, 81, 45
1, 101632, Note_off_c, 0, 81, 58
1, 101648, Control_c, 0, 64, 120
1, 101662, Note_on_c, 0, 83, 58
1, 101663, Control_c, 0, 64, 114
1, 101678, Control_c, 0, 64, 108
1, 101693, Control_c, 0, 64, 102
1, 101695, Note_off_c, 0, 83, 65
1, 101704, Note_on_c, 0, 81, 66
1, 101707, Control_c, 0, 64, 98
1, 101722, Control_c, 0, 64, 95
1, 101737, Control_c, 0, 64, 90
1, 101745, Note_off_c, 0, 81, 62
1, 101751, Control_c, 0, 64, 85
1, 101766, Note_on_c, 0, 80, 65
1, 101766, Control_c, 0, 64, 79
1, 101781, Control_c, 0, 64, 73
1, 101796, Control_c, 0, 64, 66
1, 101803, Note_off_c, 0, 80, 58
1, 101811, Control_c, 0, 64, 57
1, 101826, Control_c, 0, 64, 42
1, 101840, Control_c, 0, 64, 29
1, 101843, Note_on_c, 0, 81, 46
1, 101855, Control_c, 0, 64, 16
1, 101870, Control_c, 0, 64, 0
1, 102047, Note_off_c, 0, 81, 19
1, 102118, Note_on_c, 0, 86, 48
1, 102216, Note_on_c, 0, 81, 51
1, 102219, Note_off_c, 0, 86, 47
1, 102365, Note_on_c, 0, 62, 48
1, 102403, Note_off_c, 0, 62, 63
1, 102519, Note_on_c, 0, 66, 49
1, 102547, Note_off_c, 0, 66, 57
1, 102621, Note_off_c, 0, 81, 51
1, 102654, Note_on_c, 0, 78, 66
1, 102672, Note_on_c, 0, 62, 47
1, 102692, Note_off_c, 0, 78, 60
1, 102702, Note_off_c, 0, 62, 59
1, 102817, Note_on_c, 0, 79, 69
1, 102830, Note_on_c, 0, 64, 52
1, 102860, Note_off_c, 0, 79, 59
1, 102863, Note_off_c, 0, 64, 65
1, 102966, Note_on_c, 0, 76, 67
1, 102967, Note_on_c, 0, 61, 58
1, 103000, Note_off_c, 0, 76, 63
1, 103002, Note_off_c, 0, 61, 63
1, 103119, Note_on_c, 0, 78, 67
1, 103125, Note_on_c, 0, 62, 42
1, 103178, Note_off_c, 0, 78, 55
1, 103191, Note_off_c, 0, 62, 60
1, 103275, Note_on_c, 0, 54, 43
1, 103282, Note_on_c, 0, 74, 57
1, 103318, Note_off_c, 0, 54, 60
1, 103321, Note_off_c, 0, 74, 62
1, 103423, Note_on_c, 0, 55, 51
1, 103423, Note_on_c, 0, 76, 65
1, 103459, Note_off_c, 0, 55, 62
1, 103462, Note_off_c, 0, 76, 62
1, 103554, Note_on_c, 0, 57, 43
1, 103558, Note_on_c, 0, 73, 68
1, 103622, Note_off_c, 0, 73, 57
1, 103624, Note_off_c, 0, 57, 53
1, 103712, Note_on_c, 0, 50, 46
1, 103729, Note_on_c, 0, 74, 67
1, 103747, Note_off_c, 0, 50, 64
1, 103775, Note_off_c, 0, 74, 62
1, 103870, Note_on_c, 0, 69, 75
1, 103876, Note_on_c, 0, 66, 64
1, 103899, Note_off_c, 0, 69, 68
1, 103903, Note_off_c, 0, 66, 67
1, 104076, Note_on_c, 0, 67, 60
1, 104081, Note_on_c, 0, 71, 67
1, 104166, Note_off_c, 0, 71, 60
1, 104174, Note_on_c, 0, 73, 66
1, 104225, Note_off_c, 0, 73, 62
1, 104244, Note_on_c, 0, 74, 61
1, 104294, Note_off_c, 0, 74, 62
1, 104326, Note_on_c, 0, 71, 68
1, 104375, Note_off_c, 0, 71, 61
1, 104383, Note_off_c, 0, 67, 37
1, 104416, Note_on_c, 0, 69, 62
1, 104430, Note_on_c, 0, 66, 51
1, 104484, Note_off_c, 0, 66, 52
1, 104574, Note_on_c, 0, 62, 52
1, 104600, Note_off_c, 0, 62, 62
1, 104639, Note_off_c, 0, 69, 51
1, 104688, Control_c, 0, 64, 18
1, 104703, Control_c, 0, 64, 23
1, 104716, Note_on_c, 0, 64, 58
1, 104717, Control_c, 0, 64, 25
1, 104732, Control_c, 0, 64, 27
1, 104747, Control_c, 0, 64, 28
1, 104754, Note_off_c, 0, 64, 64
1, 104777, Control_c, 0, 64, 28
1, 104789, Note_on_c, 0, 69, 65
1, 104792, Control_c, 0, 64, 26
1, 104806, Control_c, 0, 64, 24
1, 104817, Note_off_c, 0, 69, 67
1, 104821, Control_c, 0, 64, 23
1, 104835, Note_on_c, 0, 57, 61
1, 104836, Control_c, 0, 64, 21
1, 104838, Note_on_c, 0, 67, 74
1, 104851, Control_c, 0, 64, 17
1, 104866, Control_c, 0, 64, 0
1, 104867, Note_off_c, 0, 67, 66
1, 104872, Note_on_c, 0, 69, 78
1, 104876, Note_off_c, 0, 57, 66
1, 104911, Note_off_c, 0, 69, 64
1, 104933, Note_on_c, 0, 67, 79
1, 105070, Note_off_c, 0, 67, 60
1, 105088, Note_on_c, 0, 62, 51
1, 105107, Note_on_c, 0, 66, 48
1, 105143, Note_off_c, 0, 62, 57
1, 105415, Note_off_c, 0, 66, 63
1, 105465, Control_c, 0, 64, 44
1, 105480, Control_c, 0, 64, 60
1, 105497, Control_c, 0, 64, 67
1, 105504, Note_on_c, 0, 50, 38
1, 105512, Control_c, 0, 64, 75
1, 105527, Control_c, 0, 64, 81
1, 105541, Control_c, 0, 64, 83
1, 105659, Control_c, 0, 64, 83
1, 105674, Control_c, 0, 64, 82
1, 105680, Note_on_c, 0, 81, 61
1, 105689, Control_c, 0, 64, 80
1, 105704, Control_c, 0, 64, 79
1, 105713, Note_off_c, 0, 81, 68
1, 105719, Control_c, 0, 64, 77
1, 105733, Note_on_c, 0, 83, 63
1, 105733, Control_c, 0, 64, 75
1, 105748, Control_c, 0, 64, 74
1, 105763, Control_c, 0, 64, 72
1, 105771, Note_off_c, 0, 83, 64
1, 105778, Control_c, 0, 64, 69
1, 105779, Note_off_c, 0, 50, 58
1, 105786, Note_on_c, 0, 81, 71
1, 105793, Control_c, 0, 64, 66
1, 105815, Control_c, 0, 64, 63
1, 105822, Note_off_c, 0, 81, 65
1, 105830, Control_c, 0, 64, 59
1, 105845, Note_on_c, 0, 80, 67
1, 105845, Control_c, 0, 64, 53
1, 105860, Control_c, 0, 64, 49
1, 105874, Control_c, 0, 64, 46
1, 105888, Note_off_c, 0, 80, 61
1, 105889, Control_c, 0, 64, 44
1, 105904, Control_c, 0, 64, 43
1, 105907, Note_on_c, 0, 81, 66
1, 105918, Control_c, 0, 64, 42
1, 105933, Control_c, 0, 64, 40
1, 105948, Control_c, 0, 64, 37
1, 105963, Control_c, 0, 64, 33
1, 105978, Control_c, 0, 64, 28
1, 105993, Control_c, 0, 64, 25
1, 106023, Control_c, 0, 64, 24
1, 106038, Control_c, 0, 64, 20
1, 106052, Control_c, 0, 64, 13
1, 106067, Control_c, 0, 64, 10
1, 106112, Control_c, 0, 64, 0
1, 106140, Note_off_c, 0, 81, 45
1, 106172, Note_on_c, 0, 86, 59
1, 106224, Note_off_c, 0, 86, 55
1, 106257, Note_on_c, 0, 81, 65
1, 106424, Note_on_c, 0, 62, 53
1, 106462, Note_off_c, 0, 62, 61
1, 106598, Note_on_c, 0, 66, 51
1, 106619, Note_off_c, 0, 66, 59
1, 106724, Note_off_c, 0, 81, 58
1, 106735, Note_on_c, 0, 62, 43
1, 106741, Note_on_c, 0, 78, 66
1, 106770, Note_off_c, 0, 62, 57
1, 106786, Note_off_c, 0, 78, 58
1, 106895, Note_on_c, 0, 64, 48
1, 106906, Note_on_c, 0, 81, 55
1, 106931, Note_off_c, 0, 64, 60
1, 106968, Note_off_c, 0, 81, 57
1, 106972, Note_on_c, 0, 79, 59
1, 107029, Note_off_c, 0, 79, 54
1, 107039, Note_on_c, 0, 57, 39
1, 107054, Note_on_c, 0, 78, 57
1, 107075, Note_off_c, 0, 57, 59
1, 107101, Note_off_c, 0, 78, 62
1, 107130, Note_on_c, 0, 76, 57
1, 107159, Note_off_c, 0, 76, 66
1, 107215, Note_on_c, 0, 79, 58
1, 107218, Note_on_c, 0, 62, 18
1, 107267, Note_off_c, 0, 79, 58
1, 107277, Note_off_c, 0, 62, 45
1, 107279, Note_on_c, 0, 78, 64
1, 107358, Note_off_c, 0, 78, 55
1, 107367, Note_on_c, 0, 76, 61
1, 107374, Note_on_c, 0, 66, 53
1, 107403, Note_off_c, 0, 66, 59
1, 107405, Note_off_c, 0, 76, 62
1, 107425, Note_on_c, 0, 74, 58
1, 107458, Note_off_c, 0, 74, 64
1, 107509, Note_on_c, 0, 78, 61
1, 107528, Note_on_c, 0, 67, 45
1, 107555, Note_off_c, 0, 67, 57
1, 107567, Note_off_c, 0, 78, 52
1, 107590, Note_on_c, 0, 76, 66
1, 107627, Note_off_c, 0, 76, 61
1, 107664, Note_on_c, 0, 74, 63
1, 107680, Note_on_c, 0, 64, 43
1, 107699, Note_off_c, 0, 74, 59
1, 107710, Note_off_c, 0, 64, 58
1, 107735, Note_on_c, 0, 73, 65
1, 107786, Note_off_c, 0, 73, 60
1, 107810, Note_on_c, 0, 74, 69
1, 107811, Note_on_c, 0, 66, 60
1, 107838, Note_off_c, 0, 74, 64
1, 107845, Note_off_c, 0, 66, 62
1, 107958, Note_on_c, 0, 62, 50
1, 107967, Note_on_c, 0, 78, 78
1, 107999, Note_off_c, 0, 62, 60
1, 108018, Note_off_c, 0, 78, 59
1, 108135, Note_on_c, 0, 64, 49
1, 108138, Note_on_c, 0, 79, 69
1, 108186, Note_off_c, 0, 64, 56
1, 108201, Note_off_c, 0, 79, 56
1, 108221, Note_on_c, 0, 81, 62
1, 108272, Note_off_c, 0, 81, 64
1, 108282, Note_on_c, 0, 61, 48
1, 108295, Note_on_c, 0, 79, 62
1, 108333, Note_off_c, 0, 61, 57
1, 108338, Note_off_c, 0, 79, 56
1, 108366, Note_on_c, 0, 76, 67
1, 108398, Note_off_c, 0, 76, 64
1, 108445, Note_on_c, 0, 66, 55
1, 108450, Note_on_c, 0, 81, 64
1, 108500, Note_off_c, 0, 81, 65
1, 108505, Note_off_c, 0, 66, 46
1, 108515, Note_on_c, 0, 83, 68
1, 108580, Note_off_c, 0, 83, 62
1, 108593, Note_on_c, 0, 81, 77
1, 108596, Note_on_c, 0, 62, 54
1, 108664, Note_off_c, 0, 62, 57
1, 108664, Note_off_c, 0, 81, 65
1, 108671, Note_on_c, 0, 78, 77
1, 108745, Note_off_c, 0, 78, 60
1, 108768, Note_on_c, 0, 67, 54
1, 108776, Note_on_c, 0, 83, 67
1, 108840, Note_off_c, 0, 67, 58
1, 108840, Control_c, 0, 64, 20
1, 108855, Control_c, 0, 64, 47
1, 108859, Note_off_c, 0, 83, 60
1, 108870, Control_c, 0, 64, 60
1, 108883, Note_on_c, 0, 79, 65
1, 108885, Control_c, 0, 64, 66
1, 108899, Control_c, 0, 64, 72
1, 108914, Control_c, 0, 64, 76
1, 108929, Control_c, 0, 64, 77
1, 108950, Note_on_c, 0, 76, 72
1, 108965, Note_off_c, 0, 79, 58
1, 108989, Control_c, 0, 64, 77
1, 109003, Note_off_c, 0, 76, 62
1, 109004, Control_c, 0, 64, 76
1, 109012, Note_on_c, 0, 74, 62
1, 109018, Control_c, 0, 64, 76
1, 109032, Note_off_c, 0, 74, 64
1, 109033, Control_c, 0, 64, 75
1, 109048, Control_c, 0, 64, 74
1, 109063, Control_c, 0, 64, 74
1, 109072, Note_on_c, 0, 67, 68
1, 109078, Control_c, 0, 64, 73
1, 109092, Control_c, 0, 64, 72
1, 109107, Control_c, 0, 64, 69
1, 109122, Control_c, 0, 64, 65
1, 109136, Control_c, 0, 64, 54
1, 109139, Note_off_c, 0, 67, 62
1, 109144, Note_on_c, 0, 69, 65
1, 109151, Control_c, 0, 64, 0
1, 109211, Note_on_c, 0, 73, 65
1, 109215, Note_off_c, 0, 69, 59
1, 109241, Note_off_c, 0, 73, 65
1, 109247, Note_on_c, 0, 76, 64
1, 109285, Note_off_c, 0, 76, 61
1, 109305, Note_on_c, 0, 81, 64
1, 109355, Note_off_c, 0, 81, 62
1, 109361, Note_on_c, 0, 85, 59
1, 109504, Note_off_c, 0, 85, 51
1, 109514, Note_on_c, 0, 66, 31
1, 109514, Note_on_c, 0, 86, 55
1, 109619, Control_c, 0, 64, 52
1, 109633, Control_c, 0, 64, 63
1, 109644, Note_off_c, 0, 86, 38
1, 109648, Control_c, 0, 64, 68
1, 109663, Control_c, 0, 64, 77
1, 109678, Control_c, 0, 64, 86
1, 109693, Control_c, 0, 64, 95
1, 109695, Note_off_c, 0, 66, 51
1, 109707, Control_c, 0, 64, 102
1, 109722, Control_c, 0, 64, 106
1, 109841, Control_c, 0, 64, 104
1, 109856, Control_c, 0, 64, 102
1, 109871, Control_c, 0, 64, 100
1, 109885, Control_c, 0, 64, 99
1, 109900, Control_c, 0, 64, 98
1, 109915, Control_c, 0, 64, 97
1, 109930, Control_c, 0, 64, 96
1, 109945, Control_c, 0, 64, 94
1, 109959, Control_c, 0, 64, 92
1, 109974, Control_c, 0, 64, 91
1, 109989, Control_c, 0, 64, 90
1, 110004, Control_c, 0, 64, 88
1, 110019, Control_c, 0, 64, 85
1, 110033, Control_c, 0, 64, 82
1, 110048, Control_c, 0, 64, 79
1, 110063, Control_c, 0, 64, 75
1, 110078, Control_c, 0, 64, 71
1, 110092, Control_c, 0, 64, 66
1, 110107, Control_c, 0, 64, 62
1, 110122, Control_c, 0, 64, 57
1, 110137, Control_c, 0, 64, 53
1, 110151, Control_c, 0, 64, 51
1, 110166, Control_c, 0, 64, 49
1, 110181, Control_c, 0, 64, 46
1, 110196, Control_c, 0, 64, 44
1, 110211, Note_on_c, 0, 67, 62
1, 110217, Note_on_c, 0, 61, 56
1, 110241, Control_c, 0, 64, 43
1, 110286, Control_c, 0, 64, 43
1, 110338, Control_c, 0, 64, 42
1, 110353, Control_c, 0, 64, 42
1, 110358, Note_off_c, 0, 61, 35
1, 110373, Note_on_c, 0, 45, 58
1, 110404, Note_off_c, 0, 45, 64
1, 110427, Control_c, 0, 64, 41
1, 110471, Control_c, 0, 64, 40
1, 110486, Control_c, 0, 64, 38
1, 110501, Control_c, 0, 64, 37
1, 110515, Control_c, 0, 64, 37
1, 110530, Control_c, 0, 64, 33
1, 110545, Note_on_c, 0, 57, 65
1, 110545, Control_c, 0, 64, 30
1, 110560, Control_c, 0, 64, 27
1, 110575, Control_c, 0, 64, 23
1, 110579, Note_off_c, 0, 57, 64
1, 110589, Control_c, 0, 64, 16
1, 110604, Control_c, 0, 64, 0
1, 110692, Note_on_c, 0, 64, 65
1, 110694, Note_on_c, 0, 61, 66
1, 110720, Note_off_c, 0, 61, 66
1, 110737, Note_off_c, 0, 67, 43
1, 110758, Note_off_c, 0, 64, 54
1, 110860, Note_on_c, 0, 66, 71
1, 110874, Note_on_c, 0, 62, 57
1, 110915, Control_c, 0, 64, 59
1, 110927, Note_off_c, 0, 62, 61
1, 110930, Control_c, 0, 64, 66
1, 110942, Note_off_c, 0, 66, 57
1, 110945, Control_c, 0, 64, 73
1, 110960, Control_c, 0, 64, 80
1, 110975, Control_c, 0, 64, 83
1, 110989, Control_c, 0, 64, 85
1, 111004, Control_c, 0, 64, 86
1, 111019, Control_c, 0, 64, 86
1, 111030, Note_on_c, 0, 74, 66
1, 111090, Note_off_c, 0, 74, 60
1, 111117, Control_c, 0, 64, 86
1, 111131, Control_c, 0, 64, 85
1, 111146, Control_c, 0, 64, 84
1, 111161, Control_c, 0, 64, 82
1, 111176, Control_c, 0, 64, 81
1, 111191, Note_on_c, 0, 73, 76
1, 111191, Control_c, 0, 64, 79
1, 111205, Control_c, 0, 64, 78
1, 111208, Note_on_c, 0, 67, 60
1, 111220, Control_c, 0, 64, 76
1, 111235, Control_c, 0, 64, 74
1, 111250, Control_c, 0, 64, 71
1, 111265, Control_c, 0, 64, 69
1, 111279, Control_c, 0, 64, 67
1, 111294, Control_c, 0, 64, 65
1, 111309, Control_c, 0, 64, 63
1, 111324, Control_c, 0, 64, 61
1, 111338, Control_c, 0, 64, 56
1, 111342, Note_on_c, 0, 45, 70
1, 111353, Control_c, 0, 64, 43
1, 111368, Control_c, 0, 64, 0
1, 111376, Note_off_c, 0, 45, 65
1, 111507, Note_on_c, 0, 57, 81
1, 111544, Note_off_c, 0, 57, 62
1, 111627, Note_off_c, 0, 67, 53
1, 111657, Note_on_c, 0, 76, 75
1, 111658, Note_on_c, 0, 61, 73
1, 111675, Note_off_c, 0, 73, 47
1, 111683, Note_off_c, 0, 61, 66
1, 111778, Note_off_c, 0, 76, 56
1, 111846, Note_on_c, 0, 62, 61
1, 111855, Note_on_c, 0, 74, 62
1, 111865, Control_c, 0, 64, 40
1, 111874, Note_on_c, 0, 66, 54
1, 111880, Note_off_c, 0, 62, 64
1, 111881, Control_c, 0, 64, 61
1, 111892, Note_off_c, 0, 74, 64
1, 111896, Control_c, 0, 64, 68
1, 111907, Note_off_c, 0, 66, 65
1, 111910, Control_c, 0, 64, 76
1, 111925, Control_c, 0, 64, 81
1, 111940, Control_c, 0, 64, 83
1, 111955, Control_c, 0, 64, 84
1, 111970, Control_c, 0, 64, 85
1, 111993, Note_on_c, 0, 62, 60
1, 112038, Note_off_c, 0, 62, 60
1, 112157, Note_on_c, 0, 67, 74
1, 112162, Control_c, 0, 64, 84
1, 112172, Note_on_c, 0, 61, 65
1, 112177, Control_c, 0, 64, 84
1, 112192, Control_c, 0, 64, 83
1, 112207, Control_c, 0, 64, 82
1, 112222, Control_c, 0, 64, 81
1, 112235, Control_c, 0, 64, 79
1, 112250, Control_c, 0, 64, 77
1, 112256, Note_off_c, 0, 61, 56
1, 112265, Control_c, 0, 64, 75
1, 112280, Control_c, 0, 64, 73
1, 112294, Control_c, 0, 64, 70
1, 112309, Note_on_c, 0, 45, 68
1, 112309, Control_c, 0, 64, 65
1, 112324, Control_c, 0, 64, 59
1, 112339, Note_off_c, 0, 45, 64
1, 112339, Control_c, 0, 64, 45
1, 112354, Control_c, 0, 64, 22
1, 112369, Control_c, 0, 64, 0
1, 112479, Note_on_c, 0, 57, 71
1, 112511, Note_off_c, 0, 57, 65
1, 112625, Note_off_c, 0, 67, 54
1, 112637, Note_on_c, 0, 64, 69
1, 112641, Note_on_c, 0, 61, 64
1, 112669, Note_off_c, 0, 61, 66
1, 112703, Note_off_c, 0, 64, 62
1, 112811, Note_on_c, 0, 62, 66
1, 112811, Note_on_c, 0, 66, 70
1, 112843, Note_off_c, 0, 62, 64
1, 112852, Control_c, 0, 64, 52
1, 112866, Control_c, 0, 64, 62
1, 112881, Control_c, 0, 64, 66
1, 112896, Control_c, 0, 64, 72
1, 112910, Control_c, 0, 64, 80
1, 112925, Control_c, 0, 64, 89
1, 112940, Control_c, 0, 64, 96
1, 112944, Note_off_c, 0, 66, 60
1, 112955, Control_c, 0, 64, 104
1, 112966, Note_on_c, 0, 74, 75
1, 112970, Control_c, 0, 64, 106
1, 112991, Note_off_c, 0, 74, 67
1, 112998, Control_c, 0, 64, 105
1, 113072, Control_c, 0, 64, 105
1, 113087, Control_c, 0, 64, 104
1, 113102, Control_c, 0, 64, 103
1, 113132, Control_c, 0, 64, 101
1, 113147, Control_c, 0, 64, 99
1, 113150, Note_on_c, 0, 79, 79
1, 113162, Control_c, 0, 64, 97
1, 113166, Note_on_c, 0, 73, 64
1, 113176, Control_c, 0, 64, 96
1, 113191, Control_c, 0, 64, 94
1, 113206, Control_c, 0, 64, 91
1, 113221, Control_c, 0, 64, 88
1, 113236, Control_c, 0, 64, 86
1, 113250, Control_c, 0, 64, 85
1, 113265, Control_c, 0, 64, 84
1, 113278, Note_on_c, 0, 45, 67
1, 113280, Control_c, 0, 64, 83
1, 113317, Control_c, 0, 64, 82
1, 113320, Note_off_c, 0, 45, 64
1, 113332, Control_c, 0, 64, 78
1, 113347, Control_c, 0, 64, 69
1, 113362, Control_c, 0, 64, 47
1, 113376, Control_c, 0, 64, 0
1, 113459, Note_on_c, 0, 57, 72
1, 113499, Note_off_c, 0, 57, 61
1, 113581, Note_off_c, 0, 79, 45
1, 113607, Note_on_c, 0, 76, 71
1, 113617, Note_on_c, 0, 61, 62
1, 113640, Note_off_c, 0, 61, 64
1, 113653, Note_off_c, 0, 76, 61
1, 113654, Note_off_c, 0, 73, 55
1, 113770, Note_on_c, 0, 78, 63
1, 113773, Note_on_c, 0, 62, 52
1, 113774, Note_on_c, 0, 69, 60
1, 113800, Note_off_c, 0, 78, 66
1, 113806, Note_off_c, 0, 62, 64
1, 113810, Note_off_c, 0, 69, 63
1, 113928, Note_on_c, 0, 74, 63
1, 113929, Note_on_c, 0, 66, 47
1, 113955, Note_off_c, 0, 66, 59
1, 113962, Note_off_c, 0, 74, 62
1, 114120, Note_on_c, 0, 67, 41
1, 114122, Note_on_c, 0, 73, 61
1, 114166, Note_off_c, 0, 73, 58
1, 114169, Control_c, 0, 64, 19
1, 114184, Control_c, 0, 64, 51
1, 114199, Control_c, 0, 64, 64
1, 114214, Control_c, 0, 64, 70
1, 114219, Note_on_c, 0, 71, 55
1, 114229, Control_c, 0, 64, 76
1, 114244, Control_c, 0, 64, 79
1, 114256, Note_off_c, 0, 71, 64
1, 114258, Control_c, 0, 64, 79
1, 114289, Control_c, 0, 64, 79
1, 114309, Note_on_c, 0, 83, 60
1, 114333, Control_c, 0, 64, 78
1, 114348, Control_c, 0, 64, 78
1, 114363, Control_c, 0, 64, 77
1, 114378, Control_c, 0, 64, 76
1, 114378, Note_off_c, 0, 83, 57
1, 114387, Note_on_c, 0, 81, 59
1, 114393, Control_c, 0, 64, 75
1, 114408, Control_c, 0, 64, 74
1, 114412, Note_off_c, 0, 67, 63
1, 114423, Control_c, 0, 64, 72
1, 114437, Control_c, 0, 64, 70
1, 114452, Control_c, 0, 64, 66
1, 114461, Note_on_c, 0, 79, 63
1, 114465, Note_off_c, 0, 81, 61
1, 114467, Control_c, 0, 64, 62
1, 114481, Control_c, 0, 64, 56
1, 114495, Control_c, 0, 64, 47
1, 114510, Control_c, 0, 64, 33
1, 114525, Control_c, 0, 64, 10
1, 114534, Note_off_c, 0, 79, 59
1, 114540, Control_c, 0, 64, 0
1, 114541, Note_on_c, 0, 78, 66
1, 114584, Note_off_c, 0, 78, 64
1, 114613, Note_on_c, 0, 76, 66
1, 114636, Note_off_c, 0, 76, 65
1, 114680, Note_on_c, 0, 86, 69
1, 114753, Note_off_c, 0, 86, 60
1, 114770, Note_on_c, 0, 85, 70
1, 114853, Note_on_c, 0, 83, 65
1, 114856, Note_off_c, 0, 85, 56
1, 114910, Note_off_c, 0, 83, 62
1, 114927, Note_on_c, 0, 81, 61
1, 114965, Note_off_c, 0, 81, 61
1, 115015, Note_on_c, 0, 79, 58
1, 115070, Note_off_c, 0, 79, 49
1, 115102, Note_on_c, 0, 71, 46
1, 115102, Note_on_c, 0, 67, 36
1, 115109, Note_on_c, 0, 78, 60
1, 115141, Control_c, 0, 64, 32
1, 115155, Note_off_c, 0, 78, 61
1, 115156, Control_c, 0, 64, 48
1, 115171, Control_c, 0, 64, 50
1, 115185, Control_c, 0, 64, 48
1, 115197, Note_on_c, 0, 76, 60
1, 115200, Control_c, 0, 64, 47
1, 115215, Control_c, 0, 64, 44
1, 115231, Control_c, 0, 64, 43
1, 115233, Note_off_c, 0, 76, 60
1, 115245, Control_c, 0, 64, 43
1, 115260, Control_c, 0, 64, 45
1, 115275, Control_c, 0, 64, 46
1, 115281, Note_on_c, 0, 83, 61
1, 115290, Control_c, 0, 64, 47
1, 115304, Control_c, 0, 64, 45
1, 115319, Control_c, 0, 64, 41
1, 115334, Control_c, 0, 64, 34
1, 115338, Note_off_c, 0, 83, 55
1, 115349, Control_c, 0, 64, 27
1, 115359, Note_on_c, 0, 81, 62
1, 115364, Control_c, 0, 64, 24
1, 115378, Control_c, 0, 64, 24
1, 115393, Control_c, 0, 64, 29
1, 115408, Control_c, 0, 64, 34
1, 115423, Control_c, 0, 64, 41
1, 115436, Note_on_c, 0, 79, 68
1, 115437, Note_off_c, 0, 71, 65
1, 115438, Control_c, 0, 64, 46
1, 115447, Note_off_c, 0, 81, 60
1, 115452, Control_c, 0, 64, 47
1, 115467, Control_c, 0, 64, 44
1, 115482, Control_c, 0, 64, 40
1, 115496, Control_c, 0, 64, 39
1, 115505, Note_off_c, 0, 67, 57
1, 115506, Note_off_c, 0, 79, 58
1, 115511, Control_c, 0, 64, 40
1, 115515, Note_on_c, 0, 78, 69
1, 115526, Control_c, 0, 64, 43
1, 115541, Control_c, 0, 64, 45
1, 115573, Note_off_c, 0, 78, 62
1, 115603, Note_on_c, 0, 76, 64
1, 115608, Control_c, 0, 64, 45
1, 115623, Control_c, 0, 64, 47
1, 115630, Note_off_c, 0, 76, 64
1, 115638, Control_c, 0, 64, 50
1, 115652, Control_c, 0, 64, 46
1, 115667, Control_c, 0, 64, 0
1, 115677, Note_on_c, 0, 86, 67
1, 115753, Note_off_c, 0, 86, 59
1, 115769, Note_on_c, 0, 85, 66
1, 115771, Control_c, 0, 64, 36
1, 115785, Control_c, 0, 64, 53
1, 115800, Control_c, 0, 64, 54
1, 115815, Control_c, 0, 64, 52
1, 115840, Note_off_c, 0, 85, 60
1, 115845, Control_c, 0, 64, 52
1, 115847, Note_on_c, 0, 83, 62
1, 115875, Control_c, 0, 64, 51
1, 115890, Control_c, 0, 64, 50
1, 115893, Note_off_c, 0, 83, 63
1, 115905, Control_c, 0, 64, 48
1, 115919, Control_c, 0, 64, 47
1, 115921, Note_on_c, 0, 81, 56
1, 115934, Control_c, 0, 64, 45
1, 115956, Note_off_c, 0, 81, 64
1, 115999, Note_on_c, 0, 79, 53
1, 116038, Control_c, 0, 64, 41
1, 116053, Control_c, 0, 64, 0
1, 116072, Note_off_c, 0, 79, 43
1, 116098, Note_on_c, 0, 78, 53
1, 116125, Note_on_c, 0, 67, 34
1, 116125, Note_on_c, 0, 71, 40
1, 116141, Note_off_c, 0, 78, 60
1, 116172, Control_c, 0, 64, 46
1, 116187, Control_c, 0, 64, 58
1, 116188, Note_on_c, 0, 76, 53
1, 116201, Control_c, 0, 64, 60
1, 116216, Control_c, 0, 64, 59
1, 116221, Note_off_c, 0, 76, 54
1, 116231, Control_c, 0, 64, 59
1, 116246, Control_c, 0, 64, 58
1, 116261, Control_c, 0, 64, 57
1, 116273, Note_on_c, 0, 83, 59
1, 116313, Control_c, 0, 64, 58
1, 116327, Control_c, 0, 64, 59
1, 116340, Note_off_c, 0, 83, 49
1, 116342, Control_c, 0, 64, 59
1, 116357, Control_c, 0, 64, 58
1, 116368, Note_on_c, 0, 81, 61
1, 116372, Note_off_c, 0, 71, 65
1, 116372, Control_c, 0, 64, 49
1, 116387, Control_c, 0, 64, 17
1, 116401, Control_c, 0, 64, 0
1, 116435, Note_off_c, 0, 67, 57
1, 116438, Note_on_c, 0, 79, 66
1, 116445, Note_off_c, 0, 81, 60
1, 116446, Control_c, 0, 64, 36
1, 116460, Control_c, 0, 64, 59
1, 116475, Control_c, 0, 64, 66
1, 116490, Control_c, 0, 64, 68
1, 116505, Control_c, 0, 64, 67
1, 116516, Note_off_c, 0, 79, 59
1, 116520, Control_c, 0, 64, 66
1, 116522, Note_on_c, 0, 78, 63
1, 116534, Control_c, 0, 64, 63
1, 116549, Control_c, 0, 64, 61
1, 116562, Note_off_c, 0, 78, 63
1, 116564, Control_c, 0, 64, 59
1, 116594, Control_c, 0, 64, 58
1, 116596, Note_on_c, 0, 76, 62
1, 116608, Control_c, 0, 64, 55
1, 116623, Control_c, 0, 64, 50
1, 116629, Note_off_c, 0, 76, 59
1, 116638, Control_c, 0, 64, 46
1, 116653, Control_c, 0, 64, 45
1, 116669, Control_c, 0, 64, 47
1, 116673, Note_on_c, 0, 78, 62
1, 116684, Control_c, 0, 64, 45
1, 116698, Control_c, 0, 64, 36
1, 116713, Control_c, 0, 64, 0
1, 116761, Note_off_c, 0, 78, 45
1, 116770, Note_on_c, 0, 59, 50
1, 116775, Note_on_c, 0, 76, 55
1, 116776, Note_on_c, 0, 56, 46
1, 116811, Note_off_c, 0, 76, 54
1, 116816, Control_c, 0, 64, 12
1, 116831, Control_c, 0, 64, 47
1, 116846, Control_c, 0, 64, 58
1, 116853, Note_on_c, 0, 74, 58
1, 116861, Control_c, 0, 64, 59
1, 116891, Note_off_c, 0, 74, 61
1, 116891, Control_c, 0, 64, 58
1, 116906, Control_c, 0, 64, 57
1, 116906, Note_off_c, 0, 56, 60
1, 116921, Control_c, 0, 64, 55
1, 116936, Control_c, 0, 64, 53
1, 116951, Note_on_c, 0, 73, 57
1, 116960, Note_off_c, 0, 59, 29
1, 116965, Control_c, 0, 64, 53
1, 116980, Control_c, 0, 64, 52
1, 116995, Control_c, 0, 64, 52
1, 117010, Control_c, 0, 64, 51
1, 117024, Control_c, 0, 64, 51
1, 117026, Note_off_c, 0, 73, 47
1, 117055, Note_on_c, 0, 71, 50
1, 117061, Control_c, 0, 64, 45
1, 117076, Control_c, 0, 64, 0
1, 117118, Note_off_c, 0, 71, 49
1, 117181, Note_on_c, 0, 57, 44
1, 117195, Control_c, 0, 64, 49
1, 117196, Note_on_c, 0, 69, 55
1, 117210, Control_c, 0, 64, 65
1, 117216, Note_off_c, 0, 57, 64
1, 117223, Note_off_c, 0, 69, 65
1, 117224, Control_c, 0, 64, 72
1, 117239, Control_c, 0, 64, 79
1, 117254, Control_c, 0, 64, 80
1, 117323, Note_on_c, 0, 69, 46
1, 117349, Note_off_c, 0, 69, 59
1, 117399, Note_on_c, 0, 73, 54
1, 117431, Note_off_c, 0, 73, 52
1, 117471, Note_on_c, 0, 69, 47
1, 117494, Note_off_c, 0, 69, 61
1, 117536, Control_c, 0, 64, 79
1, 117562, Note_on_c, 0, 69, 73
1, 117566, Control_c, 0, 64, 78
1, 117580, Control_c, 0, 64, 78
1, 117588, Note_off_c, 0, 69, 66
1, 117595, Control_c, 0, 64, 76
1, 117610, Control_c, 0, 64, 76
1, 117625, Control_c, 0, 64, 75
1, 117640, Control_c, 0, 64, 74
1, 117654, Control_c, 0, 64, 73
1, 117666, Note_on_c, 0, 69, 52
1, 117669, Control_c, 0, 64, 72
1, 117684, Control_c, 0, 64, 71
1, 117686, Note_off_c, 0, 69, 65
1, 117699, Control_c, 0, 64, 70
1, 117714, Control_c, 0, 64, 69
1, 117720, Note_on_c, 0, 73, 61
1, 117729, Control_c, 0, 64, 68
1, 117744, Control_c, 0, 64, 67
1, 117758, Control_c, 0, 64, 66
1, 117773, Control_c, 0, 64, 65
1, 117775, Note_on_c, 0, 69, 58
1, 117775, Note_off_c, 0, 73, 52
1, 117795, Control_c, 0, 64, 64
1, 117810, Control_c, 0, 64, 64
1, 117818, Note_off_c, 0, 69, 66
1, 117825, Control_c, 0, 64, 63
1, 117840, Control_c, 0, 64, 62
1, 117854, Control_c, 0, 64, 61
1, 117869, Control_c, 0, 64, 61
1, 117884, Note_on_c, 0, 67, 69
1, 117884, Control_c, 0, 64, 60
1, 117899, Control_c, 0, 64, 58
1, 117913, Control_c, 0, 64, 54
1, 117928, Control_c, 0, 64, 48
1, 117943, Control_c, 0, 64, 44
1, 117958, Control_c, 0, 64, 46
1, 117965, Note_on_c, 0, 69, 56
1, 117973, Control_c, 0, 64, 50
1, 117988, Control_c, 0, 64, 55
1, 117999, Note_off_c, 0, 67, 54
1, 118003, Control_c, 0, 64, 59
1, 118005, Note_off_c, 0, 69, 65
1, 118017, Control_c, 0, 64, 59
1, 118032, Control_c, 0, 64, 59
1, 118044, Note_on_c, 0, 73, 55
1, 118047, Control_c, 0, 64, 58
1, 118062, Control_c, 0, 64, 58
1, 118088, Note_off_c, 0, 73, 61
1, 118109, Note_on_c, 0, 69, 56
1, 118136, Control_c, 0, 64, 58
1, 118142, Note_off_c, 0, 69, 66
1, 118151, Control_c, 0, 64, 59
1, 118166, Control_c, 0, 64, 59
1, 118180, Control_c, 0, 64, 60
1, 118195, Control_c, 0, 64, 59
1, 118210, Control_c, 0, 64, 57
1, 118212, Note_on_c, 0, 66, 59
1, 118224, Control_c, 0, 64, 54
1, 118239, Control_c, 0, 64, 53
1, 118254, Control_c, 0, 64, 55
1, 118270, Control_c, 0, 64, 59
1, 118285, Control_c, 0, 64, 61
1, 118291, Note_on_c, 0, 69, 48
1, 118300, Control_c, 0, 64, 63
1, 118315, Control_c, 0, 64, 65
1, 118329, Control_c, 0, 64, 66
1, 118334, Note_off_c, 0, 69, 61
1, 118374, Control_c, 0, 64, 66
1, 118384, Note_off_c, 0, 66, 38
1, 118396, Note_on_c, 0, 74, 37
1, 118445, Note_off_c, 0, 74, 46
1, 118471, Note_on_c, 0, 69, 41
1, 118492, Control_c, 0, 64, 65
1, 118507, Control_c, 0, 64, 63
1, 118517, Note_off_c, 0, 69, 57
1, 118522, Control_c, 0, 64, 56
1, 118536, Control_c, 0, 64, 45
1, 118559, Note_on_c, 0, 66, 55
1, 118559, Control_c, 0, 64, 48
1, 118574, Control_c, 0, 64, 54
1, 118589, Control_c, 0, 64, 58
1, 118603, Control_c, 0, 64, 61
1, 118618, Control_c, 0, 64, 62
1, 118640, Note_on_c, 0, 69, 43
1, 118647, Control_c, 0, 64, 61
1, 118662, Control_c, 0, 64, 59
1, 118665, Note_off_c, 0, 66, 37
1, 118677, Note_off_c, 0, 69, 62
1, 118728, Note_on_c, 0, 81, 57
1, 118736, Control_c, 0, 64, 60
1, 118751, Control_c, 0, 64, 60
1, 118763, Note_off_c, 0, 81, 65
1, 118781, Control_c, 0, 64, 61
1, 118805, Note_on_c, 0, 69, 43
1, 118811, Control_c, 0, 64, 60
1, 118826, Control_c, 0, 64, 57
1, 118840, Control_c, 0, 64, 49
1, 118846, Note_off_c, 0, 69, 65
1, 118855, Control_c, 0, 64, 23
1, 118870, Control_c, 0, 64, 0
1, 118888, Note_on_c, 0, 64, 53
1, 118914, Control_c, 0, 64, 37
1, 118929, Control_c, 0, 64, 54
1, 118944, Control_c, 0, 64, 61
1, 118946, Note_off_c, 0, 64, 52
1, 118959, Control_c, 0, 64, 63
1, 118962, Note_on_c, 0, 69, 51
1, 118974, Control_c, 0, 64, 63
1, 118988, Control_c, 0, 64, 63
1, 119003, Control_c, 0, 64, 62
1, 119013, Note_off_c, 0, 69, 59
1, 119018, Control_c, 0, 64, 61
1, 119033, Control_c, 0, 64, 61
1, 119054, Note_on_c, 0, 79, 58
1, 119092, Note_off_c, 0, 79, 61
1, 119093, Control_c, 0, 64, 60
1, 119124, Note_on_c, 0, 69, 64
1, 119154, Note_off_c, 0, 69, 66
1, 119197, Control_c, 0, 64, 59
1, 119210, Note_on_c, 0, 62, 52
1, 119212, Control_c, 0, 64, 52
1, 119226, Control_c, 0, 64, 0
1, 119285, Control_c, 0, 64, 45
1, 119298, Note_on_c, 0, 69, 47
1, 119308, Control_c, 0, 64, 59
1, 119323, Control_c, 0, 64, 64
1, 119338, Control_c, 0, 64, 66
1, 119344, Note_off_c, 0, 69, 63
1, 119366, Note_off_c, 0, 62, 36
1, 119367, Control_c, 0, 64, 66
1, 119376, Note_on_c, 0, 78, 58
1, 119382, Control_c, 0, 64, 65
1, 119397, Control_c, 0, 64, 64
1, 119410, Note_off_c, 0, 78, 65
1, 119426, Control_c, 0, 64, 64
1, 119441, Control_c, 0, 64, 63
1, 119459, Note_on_c, 0, 69, 45
1, 119481, Note_off_c, 0, 69, 61
1, 119515, Control_c, 0, 64, 62
1, 119530, Control_c, 0, 64, 54
1, 119544, Control_c, 0, 64, 0
1, 119558, Note_on_c, 0, 69, 55
1, 119580, Note_off_c, 0, 69, 62
1, 119619, Control_c, 0, 64, 34
1, 119633, Control_c, 0, 64, 54
1, 119646, Note_on_c, 0, 69, 58
1, 119648, Control_c, 0, 64, 60
1, 119663, Control_c, 0, 64, 62
1, 119683, Note_off_c, 0, 69, 65
1, 119708, Control_c, 0, 64, 61
1, 119716, Note_on_c, 0, 73, 51
1, 119765, Note_off_c, 0, 73, 56
1, 119791, Note_on_c, 0, 69, 42
1, 119797, Control_c, 0, 64, 62
1, 119816, Note_off_c, 0, 69, 60
1, 119826, Control_c, 0, 64, 61
1, 119841, Control_c, 0, 64, 58
1, 119856, Control_c, 0, 64, 51
1, 119858, Note_on_c, 0, 67, 57
1, 119872, Control_c, 0, 64, 40
1, 119886, Control_c, 0, 64, 39
1, 119901, Control_c, 0, 64, 47
1, 119908, Note_off_c, 0, 67, 55
1, 119916, Control_c, 0, 64, 55
1, 119931, Control_c, 0, 64, 60
1, 119942, Note_on_c, 0, 69, 42
1, 119946, Control_c, 0, 64, 62
1, 119960, Control_c, 0, 64, 63
1, 119975, Control_c, 0, 64, 63
1, 119990, Control_c, 0, 64, 63
1, 119991, Note_off_c, 0, 69, 61
1, 120020, Control_c, 0, 64, 62
1, 120021, Note_on_c, 0, 73, 52
1, 120072, Control_c, 0, 64, 62
1, 120075, Note_off_c, 0, 73, 58
1, 120108, Note_on_c, 0, 69, 46
1, 120139, Note_off_c, 0, 69, 59
1, 120188, Note_on_c, 0, 65, 48
1, 120190, Control_c, 0, 64, 59
1, 120205, Control_c, 0, 64, 51
1, 120220, Control_c, 0, 64, 25
1, 120235, Control_c, 0, 64, 0
1, 120264, Control_c, 0, 64, 31
1, 120279, Control_c, 0, 64, 52
1, 120280, Note_on_c, 0, 69, 47
1, 120293, Control_c, 0, 64, 60
1, 120308, Control_c, 0, 64, 62
1, 120325, Note_off_c, 0, 69, 59
1, 120337, Note_off_c, 0, 65, 51
1, 120353, Control_c, 0, 64, 62
1, 120381, Note_on_c, 0, 74, 37
1, 120423, Note_off_c, 0, 74, 56
1, 120427, Control_c, 0, 64, 62
1, 120438, Note_on_c, 0, 69, 47
1, 120463, Note_off_c, 0, 69, 59
1, 120471, Control_c, 0, 64, 60
1, 120486, Control_c, 0, 64, 52
1, 120501, Control_c, 0, 64, 34
1, 120516, Control_c, 0, 64, 18
1, 120520, Note_on_c, 0, 65, 47
1, 120531, Control_c, 0, 64, 32
1, 120546, Control_c, 0, 64, 45
1, 120560, Control_c, 0, 64, 55
1, 120575, Control_c, 0, 64, 60
1, 120590, Control_c, 0, 64, 62
1, 120596, Note_on_c, 0, 69, 41
1, 120619, Control_c, 0, 64, 61
1, 120634, Control_c, 0, 64, 60
1, 120636, Note_off_c, 0, 65, 34
1, 120640, Note_off_c, 0, 69, 62
1, 120686, Note_on_c, 0, 81, 55
1, 120695, Control_c, 0, 64, 61
1, 120708, Note_off_c, 0, 81, 60
1, 120709, Control_c, 0, 64, 61
1, 120739, Control_c, 0, 64, 62
1, 120746, Note_on_c, 0, 69, 47
1, 120769, Control_c, 0, 64, 61
1, 120790, Control_c, 0, 64, 55
1, 120802, Note_off_c, 0, 69, 65
1, 120805, Control_c, 0, 64, 31
1, 120820, Control_c, 0, 64, 0
1, 120838, Note_on_c, 0, 64, 52
1, 120865, Control_c, 0, 64, 17
1, 120879, Control_c, 0, 64, 50
1, 120894, Control_c, 0, 64, 60
1, 120909, Control_c, 0, 64, 63
1, 120915, Note_on_c, 0, 69, 56
1, 120924, Control_c, 0, 64, 64
1, 120948, Note_off_c, 0, 64, 31
1, 120958, Note_off_c, 0, 69, 64
1, 120998, Control_c, 0, 64, 64
1, 121000, Note_on_c, 0, 79, 55
1, 121041, Note_off_c, 0, 79, 60
1, 121078, Note_on_c, 0, 69, 45
1, 121103, Note_off_c, 0, 69, 59
1, 121131, Control_c, 0, 64, 63
1, 121146, Control_c, 0, 64, 57
1, 121150, Note_on_c, 0, 62, 50
1, 121161, Control_c, 0, 64, 31
1, 121176, Control_c, 0, 64, 0
1, 121221, Control_c, 0, 64, 44
1, 121234, Note_on_c, 0, 74, 47
1, 121236, Control_c, 0, 64, 58
1, 121246, Note_off_c, 0, 62, 62
1, 121250, Control_c, 0, 64, 63
1, 121265, Control_c, 0, 64, 64
1, 121274, Note_off_c, 0, 74, 61
1, 121280, Control_c, 0, 64, 65
1, 121308, Note_on_c, 0, 77, 55
1, 121310, Control_c, 0, 64, 64
1, 121352, Note_off_c, 0, 77, 61
1, 121377, Note_on_c, 0, 74, 54
1, 121398, Note_off_c, 0, 74, 64
1, 121428, Control_c, 0, 64, 65
1, 121458, Control_c, 0, 64, 64
1, 121470, Note_on_c, 0, 74, 69
1, 121473, Control_c, 0, 64, 62
1, 121488, Control_c, 0, 64, 50
1, 121503, Control_c, 0, 64, 0
1, 121540, Control_c, 0, 64, 20
1, 121555, Control_c, 0, 64, 50
1, 121570, Control_c, 0, 64, 61
1, 121585, Control_c, 0, 64, 65
1, 121600, Control_c, 0, 64, 68
1, 121610, Note_off_c, 0, 74, 61
1, 121614, Control_c, 0, 64, 70
1, 121643, Note_on_c, 0, 77, 61
1, 121659, Control_c, 0, 64, 70
1, 121685, Note_off_c, 0, 77, 59
1, 121688, Control_c, 0, 64, 69
1, 121703, Control_c, 0, 64, 69
1, 121718, Note_on_c, 0, 74, 61
1, 121733, Control_c, 0, 64, 68
1, 121739, Note_off_c, 0, 74, 64
1, 121800, Note_on_c, 0, 72, 68
1, 121807, Control_c, 0, 64, 66
1, 121821, Control_c, 0, 64, 58
1, 121836, Control_c, 0, 64, 21
1, 121851, Control_c, 0, 64, 0
1, 121881, Control_c, 0, 64, 37
1, 121884, Note_on_c, 0, 74, 61
1, 121896, Control_c, 0, 64, 57
1, 121911, Control_c, 0, 64, 63
1, 121926, Control_c, 0, 64, 65
1, 121927, Note_off_c, 0, 74, 60
1, 121940, Control_c, 0, 64, 67
1, 121965, Note_on_c, 0, 78, 65
1, 121970, Control_c, 0, 64, 66
1, 121970, Note_off_c, 0, 72, 36
1, 121985, Control_c, 0, 64, 66
1, 122027, Note_on_c, 0, 74, 67
1, 122036, Note_off_c, 0, 78, 61
1, 122063, Note_off_c, 0, 74, 62
1, 122109, Note_on_c, 0, 71, 74
1, 122118, Control_c, 0, 64, 64
1, 122133, Control_c, 0, 64, 56
1, 122147, Control_c, 0, 64, 0
1, 122200, Note_on_c, 0, 74, 65
1, 122206, Control_c, 0, 64, 48
1, 122221, Control_c, 0, 64, 60
1, 122236, Control_c, 0, 64, 65
1, 122251, Control_c, 0, 64, 67
1, 122254, Note_off_c, 0, 74, 59
1, 122267, Control_c, 0, 64, 67
1, 122277, Note_off_c, 0, 71, 54
1, 122279, Note_on_c, 0, 79, 66
1, 122289, Control_c, 0, 64, 66
1, 122304, Control_c, 0, 64, 66
1, 122347, Note_off_c, 0, 79, 56
1, 122367, Note_on_c, 0, 74, 66
1, 122394, Note_off_c, 0, 74, 67
1, 122408, Control_c, 0, 64, 66
1, 122437, Control_c, 0, 64, 66
1, 122446, Note_on_c, 0, 70, 70
1, 122452, Control_c, 0, 64, 61
1, 122467, Control_c, 0, 64, 44
1, 122482, Control_c, 0, 64, 0
1, 122526, Control_c, 0, 64, 42
1, 122531, Note_on_c, 0, 74, 54
1, 122541, Control_c, 0, 64, 57
1, 122556, Control_c, 0, 64, 63
1, 122558, Note_off_c, 0, 70, 59
1, 122570, Control_c, 0, 64, 65
1, 122584, Note_off_c, 0, 74, 55
1, 122585, Control_c, 0, 64, 66
1, 122600, Control_c, 0, 64, 65
1, 122614, Control_c, 0, 64, 65
1, 122616, Note_on_c, 0, 80, 61
1, 122629, Control_c, 0, 64, 64
1, 122678, Note_off_c, 0, 80, 56
1, 122701, Note_on_c, 0, 74, 49
1, 122724, Note_off_c, 0, 74, 62
1, 122762, Control_c, 0, 64, 63
1, 122771, Note_on_c, 0, 69, 52
1, 122777, Control_c, 0, 64, 55
1, 122792, Control_c, 0, 64, 28
1, 122806, Control_c, 0, 64, 0
1, 122851, Control_c, 0, 64, 35
1, 122859, Note_on_c, 0, 74, 42
1, 122866, Control_c, 0, 64, 56
1, 122881, Control_c, 0, 64, 62
1, 122895, Control_c, 0, 64, 64
1, 122906, Note_off_c, 0, 74, 60
1, 122910, Control_c, 0, 64, 65
1, 122920, Note_off_c, 0, 69, 35
1, 122940, Control_c, 0, 64, 64
1, 122950, Note_on_c, 0, 81, 48
1, 122984, Control_c, 0, 64, 64
1, 122988, Note_off_c, 0, 81, 57
1, 123014, Control_c, 0, 64, 63
1, 123020, Note_on_c, 0, 74, 40
1, 123029, Control_c, 0, 64, 63
1, 123057, Note_off_c, 0, 74, 56
1, 123141, Control_c, 0, 64, 62
1, 123145, Note_on_c, 0, 68, 36
1, 123156, Control_c, 0, 64, 58
1, 123171, Control_c, 0, 64, 44
1, 123186, Control_c, 0, 64, 0
1, 123231, Note_on_c, 0, 74, 31
1, 123244, Control_c, 0, 64, 44
1, 123259, Control_c, 0, 64, 57
1, 123274, Control_c, 0, 64, 62
1, 123279, Note_off_c, 0, 74, 47
1, 123289, Control_c, 0, 64, 62
1, 123318, Control_c, 0, 64, 61
1, 123324, Note_off_c, 0, 68, 42
1, 123330, Note_on_c, 0, 83, 40
1, 123333, Control_c, 0, 64, 61
1, 123386, Note_off_c, 0, 83, 52
1, 123398, Note_on_c, 0, 74, 40
1, 123422, Control_c, 0, 64, 61
1, 123426, Note_off_c, 0, 74, 58
1, 123452, Control_c, 0, 64, 61
1, 123467, Control_c, 0, 64, 56
1, 123482, Control_c, 0, 64, 39
1, 123497, Control_c, 0, 64, 0
1, 123509, Note_on_c, 0, 77, 48
1, 123541, Control_c, 0, 64, 36
1, 123556, Control_c, 0, 64, 54
1, 123562, Note_on_c, 0, 74, 38
1, 123571, Control_c, 0, 64, 61
1, 123574, Note_off_c, 0, 77, 60
1, 123585, Control_c, 0, 64, 62
1, 123600, Control_c, 0, 64, 63
1, 123607, Note_off_c, 0, 74, 62
1, 123629, Control_c, 0, 64, 62
1, 123655, Note_on_c, 0, 83, 56
1, 123701, Note_off_c, 0, 83, 57
1, 123726, Note_on_c, 0, 74, 44
1, 123748, Control_c, 0, 64, 63
1, 123753, Note_off_c, 0, 74, 60
1, 123800, Control_c, 0, 64, 61
1, 123815, Control_c, 0, 64, 54
1, 123819, Note_on_c, 0, 68, 42
1, 123830, Control_c, 0, 64, 29
1, 123844, Control_c, 0, 64, 0
1, 123875, Control_c, 0, 64, 40
1, 123884, Note_on_c, 0, 74, 44
1, 123890, Control_c, 0, 64, 57
1, 123905, Control_c, 0, 64, 62
1, 123920, Control_c, 0, 64, 64
1, 123922, Note_off_c, 0, 68, 44
1, 123935, Note_off_c, 0, 74, 63
1, 123935, Control_c, 0, 64, 64
1, 123949, Control_c, 0, 64, 64
1, 123964, Control_c, 0, 64, 63
1, 123979, Control_c, 0, 64, 63
1, 123980, Note_on_c, 0, 83, 56
1, 124019, Note_off_c, 0, 83, 61
1, 124061, Note_on_c, 0, 74, 44
1, 124087, Note_off_c, 0, 74, 59
1, 124112, Control_c, 0, 64, 61
1, 124127, Control_c, 0, 64, 52
1, 124132, Note_on_c, 0, 69, 48
1, 124141, Control_c, 0, 64, 0
1, 124201, Control_c, 0, 64, 41
1, 124216, Control_c, 0, 64, 56
1, 124221, Note_on_c, 0, 74, 37
1, 124231, Control_c, 0, 64, 60
1, 124246, Control_c, 0, 64, 61
1, 124259, Note_off_c, 0, 69, 51
1, 124273, Note_off_c, 0, 74, 57
1, 124313, Note_on_c, 0, 81, 55
1, 124347, Note_off_c, 0, 81, 65
1, 124379, Control_c, 0, 64, 61
1, 124399, Note_on_c, 0, 74, 42
1, 124424, Control_c, 0, 64, 59
1, 124427, Note_off_c, 0, 74, 58
1, 124439, Control_c, 0, 64, 50
1, 124453, Control_c, 0, 64, 18
1, 124468, Control_c, 0, 64, 0
1, 124468, Note_on_c, 0, 77, 49
1, 124498, Control_c, 0, 64, 25
1, 124513, Control_c, 0, 64, 46
1, 124534, Control_c, 0, 64, 56
1, 124549, Note_on_c, 0, 74, 45
1, 124549, Control_c, 0, 64, 61
1, 124564, Control_c, 0, 64, 61
1, 124567, Note_off_c, 0, 77, 46
1, 124579, Control_c, 0, 64, 61
1, 124594, Control_c, 0, 64, 60
1, 124600, Note_off_c, 0, 74, 62
1, 124650, Note_on_c, 0, 81, 51
1, 124698, Note_off_c, 0, 81, 61
1, 124722, Note_on_c, 0, 74, 48
1, 124743, Control_c, 0, 64, 61
1, 124746, Note_off_c, 0, 74, 59
1, 124773, Control_c, 0, 64, 60
1, 124787, Control_c, 0, 64, 57
1, 124802, Note_on_c, 0, 69, 49
1, 124802, Control_c, 0, 64, 48
1, 124817, Control_c, 0, 64, 32
1, 124832, Control_c, 0, 64, 34
1, 124847, Control_c, 0, 64, 46
1, 124862, Control_c, 0, 64, 55
1, 124869, Note_on_c, 0, 74, 35
1, 124877, Control_c, 0, 64, 61
1, 124891, Control_c, 0, 64, 64
1, 124906, Control_c, 0, 64, 65
1, 124921, Control_c, 0, 64, 66
1, 124924, Note_off_c, 0, 74, 62
1, 124936, Control_c, 0, 64, 65
1, 124951, Control_c, 0, 64, 65
1, 124955, Note_off_c, 0, 69, 33
1, 124962, Note_on_c, 0, 81, 53
1, 124963, Control_c, 0, 64, 64
1, 124978, Control_c, 0, 64, 64
1, 125005, Note_off_c, 0, 81, 61
1, 125023, Control_c, 0, 64, 63
1, 125041, Note_on_c, 0, 74, 42
1, 125069, Note_off_c, 0, 74, 57
1, 125097, Control_c, 0, 64, 63
1, 125112, Control_c, 0, 64, 62
1, 125124, Note_on_c, 0, 70, 48
1, 125127, Control_c, 0, 64, 59
1, 125142, Control_c, 0, 64, 52
1, 125156, Control_c, 0, 64, 32
1, 125171, Control_c, 0, 64, 0
1, 125215, Control_c, 0, 64, 9
1, 125217, Note_on_c, 0, 74, 34
1, 125230, Control_c, 0, 64, 43
1, 125245, Control_c, 0, 64, 56
1, 125260, Control_c, 0, 64, 61
1, 125271, Note_off_c, 0, 74, 58
1, 125275, Control_c, 0, 64, 62
1, 125312, Control_c, 0, 64, 61
1, 125327, Control_c, 0, 64, 61
1, 125327, Note_off_c, 0, 70, 42
1, 125339, Note_on_c, 0, 80, 39
1, 125376, Note_off_c, 0, 80, 53
1, 125401, Control_c, 0, 64, 61
1, 125405, Note_on_c, 0, 74, 46
1, 125415, Control_c, 0, 64, 62
1, 125430, Note_off_c, 0, 74, 59
1, 125445, Control_c, 0, 64, 60
1, 125461, Control_c, 0, 64, 52
1, 125476, Control_c, 0, 64, 12
1, 125491, Control_c, 0, 64, 0
1, 125494, Note_on_c, 0, 77, 47
1, 125535, Control_c, 0, 64, 41
1, 125550, Control_c, 0, 64, 57
1, 125564, Note_on_c, 0, 74, 42
1, 125565, Control_c, 0, 64, 63
1, 125574, Note_off_c, 0, 77, 52
1, 125579, Control_c, 0, 64, 64
1, 125615, Note_off_c, 0, 74, 60
1, 125658, Note_on_c, 0, 80, 46
1, 125698, Control_c, 0, 64, 64
1, 125706, Note_off_c, 0, 80, 61
1, 125712, Control_c, 0, 64, 65
1, 125714, Note_on_c, 0, 74, 57
1, 125727, Control_c, 0, 64, 65
1, 125741, Note_off_c, 0, 74, 67
1, 125742, Control_c, 0, 64, 66
1, 125757, Control_c, 0, 64, 65
1, 125772, Control_c, 0, 64, 59
1, 125786, Control_c, 0, 64, 21
1, 125801, Control_c, 0, 64, 0
1, 125807, Note_on_c, 0, 70, 52
1, 125831, Control_c, 0, 64, 14
1, 125846, Control_c, 0, 64, 53
1, 125861, Control_c, 0, 64, 63
1, 125875, Control_c, 0, 64, 68
1, 125890, Control_c, 0, 64, 70
1, 125897, Note_on_c, 0, 74, 45
1, 125901, Note_off_c, 0, 70, 58
1, 125920, Control_c, 0, 64, 69
1, 125931, Note_off_c, 0, 74, 59
1, 125935, Control_c, 0, 64, 68
1, 125950, Control_c, 0, 64, 68
1, 125967, Note_on_c, 0, 80, 57
1, 126009, Control_c, 0, 64, 67
1, 126014, Note_off_c, 0, 80, 56
1, 126040, Note_on_c, 0, 74, 51
1, 126060, Control_c, 0, 64, 68
1, 126075, Note_off_c, 0, 74, 63
1, 126075, Control_c, 0, 64, 69
1, 126090, Control_c, 0, 64, 67
1, 126105, Control_c, 0, 64, 59
1, 126120, Control_c, 0, 64, 0
1, 126150, Note_on_c, 0, 69, 52
1, 126180, Control_c, 0, 64, 9
1, 126194, Control_c, 0, 64, 55
1, 126209, Control_c, 0, 64, 64
1, 126212, Note_on_c, 0, 73, 56
1, 126224, Control_c, 0, 64, 67
1, 126254, Control_c, 0, 64, 65
1, 126260, Note_off_c, 0, 69, 56
1, 126268, Note_off_c, 0, 73, 59
1, 126269, Control_c, 0, 64, 63
1, 126284, Control_c, 0, 64, 62
1, 126288, Note_on_c, 0, 81, 61
1, 126328, Control_c, 0, 64, 62
1, 126357, Note_off_c, 0, 81, 64
1, 126358, Control_c, 0, 64, 63
1, 126373, Control_c, 0, 64, 64
1, 126385, Note_on_c, 0, 73, 46
1, 126388, Control_c, 0, 64, 65
1, 126402, Control_c, 0, 64, 66
1, 126412, Note_off_c, 0, 73, 56
1, 126432, Control_c, 0, 64, 62
1, 126447, Control_c, 0, 64, 0
1, 126448, Note_on_c, 0, 67, 73
1, 126458, Note_on_c, 0, 55, 60
1, 126521, Control_c, 0, 64, 27
1, 126531, Note_on_c, 0, 73, 74
1, 126535, Control_c, 0, 64, 60
1, 126550, Control_c, 0, 64, 65
1, 126551, Note_off_c, 0, 67, 61
1, 126565, Control_c, 0, 64, 66
1, 126576, Note_off_c, 0, 55, 61
1, 126580, Control_c, 0, 64, 65
1, 126592, Note_off_c, 0, 73, 62
1, 126595, Control_c, 0, 64, 62
1, 126609, Control_c, 0, 64, 59
1, 126612, Note_on_c, 0, 85, 88
1, 126639, Control_c, 0, 64, 60
1, 126653, Control_c, 0, 64, 61
1, 126668, Control_c, 0, 64, 62
1, 126672, Note_off_c, 0, 85, 61
1, 126683, Control_c, 0, 64, 63
1, 126686, Note_on_c, 0, 73, 74
1, 126698, Control_c, 0, 64, 64
1, 126713, Control_c, 0, 64, 64
1, 126718, Note_off_c, 0, 73, 62
1, 126728, Control_c, 0, 64, 64
1, 126743, Control_c, 0, 64, 59
1, 126758, Control_c, 0, 64, 0
1, 126762, Note_on_c, 0, 66, 84
1, 126768, Note_on_c, 0, 54, 71
1, 126854, Control_c, 0, 64, 50
1, 126860, Note_on_c, 0, 74, 75
1, 126868, Control_c, 0, 64, 62
1, 126883, Control_c, 0, 64, 65
1, 126892, Note_off_c, 0, 66, 64
1, 126898, Control_c, 0, 64, 66
1, 126907, Note_off_c, 0, 74, 66
1, 126908, Note_off_c, 0, 54, 59
1, 126913, Control_c, 0, 64, 65
1, 126928, Control_c, 0, 64, 62
1, 126937, Note_on_c, 0, 86, 76
1, 126943, Control_c, 0, 64, 57
1, 126958, Control_c, 0, 64, 54
1, 126972, Control_c, 0, 64, 56
1, 126981, Note_off_c, 0, 86, 65
1, 126987, Control_c, 0, 64, 57
1, 127002, Control_c, 0, 64, 58
1, 127003, Note_on_c, 0, 74, 66
1, 127017, Control_c, 0, 64, 59
1, 127029, Note_off_c, 0, 74, 67
1, 127032, Control_c, 0, 64, 60
1, 127062, Control_c, 0, 64, 56
1, 127077, Control_c, 0, 64, 20
1, 127088, Note_on_c, 0, 64, 83
1, 127092, Control_c, 0, 64, 0
1, 127094, Note_on_c, 0, 52, 76
1, 127166, Control_c, 0, 64, 47
1, 127171, Note_on_c, 0, 67, 80
1, 127181, Control_c, 0, 64, 62
1, 127182, Note_off_c, 0, 64, 60
1, 127196, Control_c, 0, 64, 66
1, 127205, Note_off_c, 0, 52, 62
1, 127211, Control_c, 0, 64, 68
1, 127224, Note_off_c, 0, 67, 61
1, 127225, Control_c, 0, 64, 67
1, 127240, Control_c, 0, 64, 66
1, 127252, Note_on_c, 0, 79, 77
1, 127255, Control_c, 0, 64, 65
1, 127270, Control_c, 0, 64, 65
1, 127284, Control_c, 0, 64, 64
1, 127306, Note_off_c, 0, 79, 62
1, 127317, Note_on_c, 0, 67, 73
1, 127329, Control_c, 0, 64, 65
1, 127344, Control_c, 0, 64, 65
1, 127346, Note_off_c, 0, 67, 66
1, 127358, Control_c, 0, 64, 66
1, 127373, Control_c, 0, 64, 65
1, 127388, Control_c, 0, 64, 59
1, 127396, Note_on_c, 0, 61, 89
1, 127402, Control_c, 0, 64, 0
1, 127403, Note_on_c, 0, 49, 76
1, 127473, Note_on_c, 0, 64, 77
1, 127506, Control_c, 0, 64, 56
1, 127521, Control_c, 0, 64, 63
1, 127536, Note_off_c, 0, 64, 64
1, 127544, Control_c, 0, 64, 63
1, 127558, Control_c, 0, 64, 62
1, 127564, Note_off_c, 0, 49, 55
1, 127573, Note_on_c, 0, 76, 82
1, 127573, Control_c, 0, 64, 62
1, 127588, Control_c, 0, 64, 61
1, 127616, Note_off_c, 0, 61, 62
1, 127618, Note_off_c, 0, 76, 65
1, 127646, Note_on_c, 0, 64, 72
1, 127647, Control_c, 0, 64, 62
1, 127662, Control_c, 0, 64, 63
1, 127677, Control_c, 0, 64, 64
1, 127680, Note_off_c, 0, 64, 65
1, 127691, Control_c, 0, 64, 65
1, 127721, Control_c, 0, 64, 62
1, 127736, Control_c, 0, 64, 23
1, 127741, Note_on_c, 0, 62, 84
1, 127747, Note_on_c, 0, 50, 79
1, 127751, Control_c, 0, 64, 0
1, 127819, Note_on_c, 0, 66, 81
1, 127855, Control_c, 0, 64, 61
1, 127869, Note_off_c, 0, 66, 61
1, 127870, Control_c, 0, 64, 67
1, 127882, Note_off_c, 0, 62, 55
1, 127885, Control_c, 0, 64, 69
1, 127906, Note_on_c, 0, 78, 84
1, 127946, Note_off_c, 0, 50, 57
1, 127971, Note_off_c, 0, 78, 60
1, 127979, Note_on_c, 0, 66, 71
1, 128004, Control_c, 0, 64, 69
1, 128017, Note_off_c, 0, 66, 62
1, 128019, Control_c, 0, 64, 70
1, 128049, Control_c, 0, 64, 66
1, 128063, Control_c, 0, 64, 0
1, 128077, Note_on_c, 0, 59, 79
1, 128081, Note_on_c, 0, 55, 68
1, 128168, Note_on_c, 0, 71, 73
1, 128182, Control_c, 0, 64, 61
1, 128197, Control_c, 0, 64, 67
1, 128207, Note_off_c, 0, 71, 62
1, 128212, Control_c, 0, 64, 70
1, 128241, Control_c, 0, 64, 71
1, 128249, Note_on_c, 0, 70, 77
1, 128256, Control_c, 0, 64, 72
1, 128278, Control_c, 0, 64, 73
1, 128293, Control_c, 0, 64, 74
1, 128312, Note_off_c, 0, 59, 61
1, 128320, Note_off_c, 0, 70, 62
1, 128330, Note_on_c, 0, 71, 80
1, 128358, Note_off_c, 0, 55, 55
1, 128367, Control_c, 0, 64, 73
1, 128378, Note_off_c, 0, 71, 64
1, 128382, Control_c, 0, 64, 73
1, 128397, Control_c, 0, 64, 72
1, 128412, Control_c, 0, 64, 71
1, 128418, Note_on_c, 0, 76, 83
1, 128427, Control_c, 0, 64, 70
1, 128441, Control_c, 0, 64, 69
1, 128456, Control_c, 0, 64, 66
1, 128471, Control_c, 0, 64, 61
1, 128475, Note_off_c, 0, 76, 61
1, 128486, Control_c, 0, 64, 52
1, 128498, Note_on_c, 0, 71, 73
1, 128501, Control_c, 0, 64, 41
1, 128515, Control_c, 0, 64, 32
1, 128530, Control_c, 0, 64, 29
1, 128544, Note_off_c, 0, 71, 64
1, 128545, Control_c, 0, 64, 27
1, 128560, Control_c, 0, 64, 19
1, 128575, Control_c, 0, 64, 0
1, 128586, Note_on_c, 0, 70, 74
1, 128604, Control_c, 0, 64, 19
1, 128619, Control_c, 0, 64, 23
1, 128628, Note_off_c, 0, 70, 63
1, 128633, Control_c, 0, 64, 0
1, 128657, Note_on_c, 0, 71, 72
1, 128703, Note_off_c, 0, 71, 65
1, 128736, Note_on_c, 0, 79, 80
1, 128767, Control_c, 0, 64, 34
1, 128782, Control_c, 0, 64, 39
1, 128795, Note_off_c, 0, 79, 60
1, 128797, Control_c, 0, 64, 39
1, 128809, Note_on_c, 0, 71, 77
1, 128812, Control_c, 0, 64, 38
1, 128827, Control_c, 0, 64, 37
1, 128841, Control_c, 0, 64, 35
1, 128856, Control_c, 0, 64, 31
1, 128862, Note_off_c, 0, 71, 63
1, 128871, Control_c, 0, 64, 27
1, 128886, Control_c, 0, 64, 24
1, 128899, Note_on_c, 0, 70, 71
1, 128947, Note_off_c, 0, 70, 61
1, 128960, Control_c, 0, 64, 26
1, 128969, Note_on_c, 0, 71, 76
1, 128975, Control_c, 0, 64, 30
1, 128990, Control_c, 0, 64, 36
1, 129004, Control_c, 0, 64, 39
1, 129026, Control_c, 0, 64, 21
1, 129027, Note_off_c, 0, 71, 62
1, 129041, Control_c, 0, 64, 0
1, 129083, Note_on_c, 0, 81, 82
1, 129130, Control_c, 0, 64, 33
1, 129145, Control_c, 0, 64, 58
1, 129160, Control_c, 0, 64, 60
1, 129174, Control_c, 0, 64, 59
1, 129189, Control_c, 0, 64, 59
1, 129308, Control_c, 0, 64, 58
1, 129323, Control_c, 0, 64, 57
1, 129337, Control_c, 0, 64, 57
1, 129381, Control_c, 0, 64, 56
1, 129396, Control_c, 0, 64, 54
1, 129411, Control_c, 0, 64, 51
1, 129426, Control_c, 0, 64, 47
1, 129438, Note_on_c, 0, 66, 69
1, 129439, Note_on_c, 0, 57, 66
1, 129441, Control_c, 0, 64, 44
1, 129457, Control_c, 0, 64, 44
1, 129472, Control_c, 0, 64, 47
1, 129486, Control_c, 0, 64, 53
1, 129501, Control_c, 0, 64, 59
1, 129516, Control_c, 0, 64, 61
1, 129531, Control_c, 0, 64, 61
1, 129546, Control_c, 0, 64, 60
1, 129560, Control_c, 0, 64, 59
1, 129575, Control_c, 0, 64, 59
1, 129577, Note_off_c, 0, 81, 53
1, 129583, Note_off_c, 0, 57, 54
1, 129590, Control_c, 0, 64, 58
1, 129605, Control_c, 0, 64, 57
1, 129619, Control_c, 0, 64, 56
1, 129623, Note_on_c, 0, 78, 79
1, 129634, Control_c, 0, 64, 55
1, 129635, Note_off_c, 0, 66, 52
1, 129649, Control_c, 0, 64, 53
1, 129694, Control_c, 0, 64, 55
1, 129696, Note_on_c, 0, 74, 75
1, 129700, Note_off_c, 0, 78, 59
1, 129709, Control_c, 0, 64, 57
1, 129724, Control_c, 0, 64, 58
1, 129733, Note_off_c, 0, 74, 62
1, 129739, Control_c, 0, 64, 57
1, 129753, Control_c, 0, 64, 50
1, 129768, Control_c, 0, 64, 0
1, 129792, Note_on_c, 0, 79, 80
1, 129802, Note_on_c, 0, 64, 75
1, 129813, Note_on_c, 0, 57, 60
1, 129864, Control_c, 0, 64, 38
1, 129879, Control_c, 0, 64, 60
1, 129894, Control_c, 0, 64, 63
1, 129909, Control_c, 0, 64, 62
1, 129924, Control_c, 0, 64, 60
1, 129938, Control_c, 0, 64, 58
1, 129941, Note_off_c, 0, 64, 63
1, 129953, Control_c, 0, 64, 57
1, 129953, Note_off_c, 0, 79, 60
1, 129976, Note_off_c, 0, 57, 63
1, 129983, Control_c, 0, 64, 58
1, 130029, Note_on_c, 0, 76, 74
1, 130042, Control_c, 0, 64, 57
1, 130057, Control_c, 0, 64, 56
1, 130071, Control_c, 0, 64, 55
1, 130079, Note_off_c, 0, 76, 60
1, 130086, Control_c, 0, 64, 54
1, 130099, Note_on_c, 0, 73, 73
1, 130101, Control_c, 0, 64, 52
1, 130116, Control_c, 0, 64, 46
1, 130131, Control_c, 0, 64, 22
1, 130145, Control_c, 0, 64, 0
1, 130213, Note_off_c, 0, 73, 60
1, 130242, Note_on_c, 0, 74, 69
1, 130253, Note_on_c, 0, 50, 64
1, 130256, Note_on_c, 0, 62, 63
1, 130354, Control_c, 0, 64, 34
1, 130369, Control_c, 0, 64, 60
1, 130383, Control_c, 0, 64, 70
1, 130397, Note_off_c, 0, 62, 63
1, 130398, Control_c, 0, 64, 83
1, 130403, Note_off_c, 0, 50, 52
1, 130407, Note_off_c, 0, 74, 57
1, 130413, Control_c, 0, 64, 95
1, 130427, Control_c, 0, 64, 99
1, 130442, Control_c, 0, 64, 99
1, 130457, Control_c, 0, 64, 99
1, 130487, Control_c, 0, 64, 98
1, 130502, Control_c, 0, 64, 96
1, 130539, Control_c, 0, 64, 96
1, 130554, Control_c, 0, 64, 95
1, 130569, Control_c, 0, 64, 94
1, 130583, Control_c, 0, 64, 93
1, 130598, Control_c, 0, 64, 92
1, 130672, Control_c, 0, 64, 90
1, 130687, Control_c, 0, 64, 86
1, 130702, Control_c, 0, 64, 78
1, 130716, Control_c, 0, 64, 71
1, 130731, Control_c, 0, 64, 62
1, 130746, Control_c, 0, 64, 51
1, 130761, Control_c, 0, 64, 42
1, 130776, Control_c, 0, 64, 40
1, 130791, Control_c, 0, 64, 41
1, 130848, Note_on_c, 0, 71, 61
1, 130850, Control_c, 0, 64, 41
1, 130865, Control_c, 0, 64, 40
1, 130880, Control_c, 0, 64, 39
1, 130880, Note_off_c, 0, 71, 65
1, 130908, Note_on_c, 0, 66, 48
1, 130915, Note_on_c, 0, 69, 41
1, 130924, Control_c, 0, 64, 40
1, 130939, Control_c, 0, 64, 42
1, 130945, Note_off_c, 0, 69, 56
1, 130950, Note_on_c, 0, 67, 51
1, 130954, Control_c, 0, 64, 45
1, 130969, Control_c, 0, 64, 47
1, 130976, Note_off_c, 0, 67, 58
1, 130984, Control_c, 0, 64, 48
1, 130998, Note_off_c, 0, 66, 34
1, 130999, Control_c, 0, 64, 42
1, 131002, Note_on_c, 0, 69, 60
1, 131014, Control_c, 0, 64, 0
1, 131040, Note_off_c, 0, 69, 61
1, 131069, Note_on_c, 0, 67, 53
1, 131071, Note_on_c, 0, 71, 63
1, 131089, Control_c, 0, 64, 32
1, 131104, Control_c, 0, 64, 53
1, 131118, Control_c, 0, 64, 54
1, 131133, Control_c, 0, 64, 50
1, 131146, Note_off_c, 0, 67, 59
1, 131148, Control_c, 0, 64, 46
1, 131163, Control_c, 0, 64, 40
1, 131178, Control_c, 0, 64, 37
1, 131192, Control_c, 0, 64, 41
1, 131207, Control_c, 0, 64, 48
1, 131208, Note_off_c, 0, 71, 51
1, 131222, Control_c, 0, 64, 55
1, 131237, Control_c, 0, 64, 58
1, 131251, Control_c, 0, 64, 58
1, 131255, Note_on_c, 0, 67, 67
1, 131259, Note_on_c, 0, 64, 47
1, 131266, Control_c, 0, 64, 57
1, 131289, Control_c, 0, 64, 56
1, 131304, Control_c, 0, 64, 55
1, 131306, Note_off_c, 0, 67, 58
1, 131322, Note_off_c, 0, 64, 54
1, 131333, Control_c, 0, 64, 55
1, 131348, Control_c, 0, 64, 56
1, 131363, Control_c, 0, 64, 58
1, 131378, Control_c, 0, 64, 59
1, 131393, Control_c, 0, 64, 57
1, 131407, Control_c, 0, 64, 51
1, 131417, Note_on_c, 0, 69, 66
1, 131422, Control_c, 0, 64, 41
1, 131437, Control_c, 0, 64, 32
1, 131439, Note_on_c, 0, 66, 49
1, 131451, Control_c, 0, 64, 34
1, 131466, Control_c, 0, 64, 41
1, 131481, Control_c, 0, 64, 49
1, 131496, Control_c, 0, 64, 51
1, 131511, Control_c, 0, 64, 46
1, 131521, Note_off_c, 0, 66, 48
1, 131525, Control_c, 0, 64, 32
1, 131540, Control_c, 0, 64, 0
1, 131561, Note_off_c, 0, 69, 58
1, 131570, Control_c, 0, 64, 12
1, 131584, Control_c, 0, 64, 38
1, 131587, Note_on_c, 0, 66, 60
1, 131590, Note_on_c, 0, 62, 50
1, 131599, Control_c, 0, 64, 50
1, 131614, Control_c, 0, 64, 55
1, 131632, Note_off_c, 0, 62, 60
1, 131643, Control_c, 0, 64, 54
1, 131658, Control_c, 0, 64, 52
1, 131673, Control_c, 0, 64, 51
1, 131676, Note_off_c, 0, 66, 53
1, 131733, Control_c, 0, 64, 51
1, 131742, Note_on_c, 0, 64, 52
1, 131748, Control_c, 0, 64, 50
1, 131757, Note_on_c, 0, 67, 67
1, 131763, Control_c, 0, 64, 50
1, 131777, Control_c, 0, 64, 48
1, 131782, Note_off_c, 0, 64, 61
1, 131792, Control_c, 0, 64, 46
1, 131807, Control_c, 0, 64, 43
1, 131819, Note_off_c, 0, 67, 50
1, 131822, Control_c, 0, 64, 40
1, 131837, Control_c, 0, 64, 39
1, 131867, Control_c, 0, 64, 40
1, 131882, Control_c, 0, 64, 43
1, 131897, Control_c, 0, 64, 44
1, 131907, Note_on_c, 0, 57, 47
1, 131912, Control_c, 0, 64, 45
1, 131918, Note_on_c, 0, 64, 49
1, 131927, Control_c, 0, 64, 42
1, 131941, Control_c, 0, 64, 21
1, 131949, Note_off_c, 0, 57, 46
1, 131956, Control_c, 0, 64, 0
1, 131978, Note_off_c, 0, 64, 53
1, 132077, Note_on_c, 0, 66, 62
1, 132085, Note_on_c, 0, 62, 45
1, 132097, Control_c, 0, 64, 57
1, 132103, Note_off_c, 0, 66, 66
1, 132112, Control_c, 0, 64, 65
1, 132126, Control_c, 0, 64, 71
1, 132141, Control_c, 0, 64, 75
1, 132156, Control_c, 0, 64, 77
1, 132157, Note_off_c, 0, 62, 55
1, 132186, Control_c, 0, 64, 76
1, 132233, Note_on_c, 0, 76, 59
1, 132243, Note_on_c, 0, 66, 48
1, 132245, Control_c, 0, 64, 76
1, 132261, Note_off_c, 0, 76, 65
1, 132268, Note_on_c, 0, 74, 65
1, 132289, Control_c, 0, 64, 75
1, 132299, Note_off_c, 0, 74, 65
1, 132301, Note_off_c, 0, 66, 51
1, 132304, Control_c, 0, 64, 75
1, 132319, Control_c, 0, 64, 74
1, 132334, Note_on_c, 0, 73, 62
1, 132334, Control_c, 0, 64, 73
1, 132348, Control_c, 0, 64, 72
1, 132363, Control_c, 0, 64, 70
1, 132368, Note_off_c, 0, 73, 64
1, 132376, Note_on_c, 0, 74, 58
1, 132378, Control_c, 0, 64, 69
1, 132393, Control_c, 0, 64, 67
1, 132407, Control_c, 0, 64, 64
1, 132411, Note_on_c, 0, 67, 53
1, 132419, Note_off_c, 0, 74, 62
1, 132422, Control_c, 0, 64, 60
1, 132428, Note_on_c, 0, 76, 65
1, 132437, Control_c, 0, 64, 53
1, 132452, Control_c, 0, 64, 46
1, 132467, Control_c, 0, 64, 40
1, 132481, Control_c, 0, 64, 35
1, 132496, Control_c, 0, 64, 23
1, 132511, Control_c, 0, 64, 0
1, 132563, Note_off_c, 0, 67, 36
1, 132573, Note_off_c, 0, 76, 47
1, 132579, Note_on_c, 0, 64, 47
1, 132579, Note_on_c, 0, 73, 62
1, 132708, Note_off_c, 0, 73, 59
1, 132739, Note_on_c, 0, 74, 57
1, 132740, Note_on_c, 0, 66, 48
1, 132749, Control_c, 0, 64, 38
1, 132761, Note_off_c, 0, 64, 37
1, 132771, Control_c, 0, 64, 59
1, 132774, Note_off_c, 0, 74, 66
1, 132786, Control_c, 0, 64, 65
1, 132801, Control_c, 0, 64, 69
1, 132809, Note_off_c, 0, 66, 52
1, 132816, Control_c, 0, 64, 74
1, 132830, Control_c, 0, 64, 75
1, 132860, Control_c, 0, 64, 74
1, 132863, Note_on_c, 0, 79, 65
1, 132895, Note_off_c, 0, 79, 63
1, 132896, Note_on_c, 0, 69, 45
1, 132904, Control_c, 0, 64, 74
1, 132910, Note_on_c, 0, 78, 66
1, 132919, Control_c, 0, 64, 73
1, 132934, Control_c, 0, 64, 73
1, 132946, Note_off_c, 0, 78, 64
1, 132949, Control_c, 0, 64, 72
1, 132959, Note_on_c, 0, 76, 70
1, 132964, Control_c, 0, 64, 71
1, 132979, Control_c, 0, 64, 70
1, 132994, Control_c, 0, 64, 69
1, 133009, Control_c, 0, 64, 66
1, 133009, Note_off_c, 0, 76, 62
1, 133016, Note_on_c, 0, 78, 62
1, 133023, Control_c, 0, 64, 64
1, 133024, Note_off_c, 0, 69, 33
1, 133038, Control_c, 0, 64, 61
1, 133053, Control_c, 0, 64, 58
1, 133067, Note_on_c, 0, 71, 53
1, 133068, Control_c, 0, 64, 54
1, 133079, Note_on_c, 0, 79, 72
1, 133083, Note_off_c, 0, 78, 61
1, 133083, Control_c, 0, 64, 50
1, 133097, Control_c, 0, 64, 45
1, 133112, Control_c, 0, 64, 42
1, 133127, Control_c, 0, 64, 37
1, 133142, Control_c, 0, 64, 33
1, 133157, Control_c, 0, 64, 29
1, 133171, Control_c, 0, 64, 26
1, 133186, Control_c, 0, 64, 19
1, 133200, Control_c, 0, 64, 0
1, 133223, Note_off_c, 0, 71, 38
1, 133228, Note_off_c, 0, 79, 55
1, 133238, Note_on_c, 0, 76, 68
1, 133241, Note_on_c, 0, 67, 46
1, 133352, Note_off_c, 0, 67, 52
1, 133390, Note_off_c, 0, 76, 57
1, 133401, Note_on_c, 0, 78, 60
1, 133402, Note_on_c, 0, 69, 42
1, 133483, Control_c, 0, 64, 44
1, 133496, Note_off_c, 0, 78, 63
1, 133498, Control_c, 0, 64, 53
1, 133533, Note_off_c, 0, 69, 34
1, 133534, Control_c, 0, 64, 52
1, 133549, Control_c, 0, 64, 50
1, 133564, Control_c, 0, 64, 49
1, 133569, Note_on_c, 0, 66, 45
1, 133569, Note_on_c, 0, 81, 62
1, 133682, Control_c, 0, 64, 50
1, 133697, Control_c, 0, 64, 51
1, 133712, Control_c, 0, 64, 52
1, 133718, Note_off_c, 0, 66, 40
1, 133727, Control_c, 0, 64, 53
1, 133742, Control_c, 0, 64, 52
1, 133753, Note_on_c, 0, 67, 45
1, 133757, Control_c, 0, 64, 44
1, 133766, Note_on_c, 0, 83, 62
1, 133769, Note_off_c, 0, 81, 33
1, 133771, Control_c, 0, 64, 0
1, 133860, Control_c, 0, 64, 41
1, 133875, Control_c, 0, 64, 53
1, 133879, Note_off_c, 0, 67, 61
1, 133890, Control_c, 0, 64, 54
1, 133905, Control_c, 0, 64, 53
1, 133934, Control_c, 0, 64, 53
1, 133948, Note_on_c, 0, 79, 72
1, 133948, Note_off_c, 0, 83, 54
1, 133950, Control_c, 0, 64, 54
1, 133952, Note_on_c, 0, 76, 44
1, 133965, Control_c, 0, 64, 55
1, 133979, Control_c, 0, 64, 56
1, 134009, Control_c, 0, 64, 56
1, 134021, Note_off_c, 0, 76, 58
1, 134039, Control_c, 0, 64, 57
1, 134042, Note_off_c, 0, 79, 50
1, 134053, Control_c, 0, 64, 58
1, 134068, Control_c, 0, 64, 58
1, 134083, Control_c, 0, 64, 58
1, 134098, Control_c, 0, 64, 53
1, 134103, Note_on_c, 0, 66, 49
1, 134111, Note_on_c, 0, 81, 75
1, 134113, Control_c, 0, 64, 30
1, 134127, Control_c, 0, 64, 0
1, 134201, Control_c, 0, 64, 39
1, 134216, Control_c, 0, 64, 60
1, 134231, Control_c, 0, 64, 65
1, 134247, Control_c, 0, 64, 66
1, 134273, Note_off_c, 0, 66, 47
1, 134274, Note_on_c, 0, 78, 79
1, 134276, Note_off_c, 0, 81, 61
1, 134284, Note_on_c, 0, 74, 53
1, 134299, Control_c, 0, 64, 66
1, 134314, Control_c, 0, 64, 65
1, 134327, Note_off_c, 0, 74, 60
1, 134387, Note_off_c, 0, 78, 57
1, 134417, Control_c, 0, 64, 63
1, 134432, Control_c, 0, 64, 22
1, 134445, Note_on_c, 0, 64, 52
1, 134445, Note_on_c, 0, 79, 81
1, 134447, Control_c, 0, 64, 0
1, 134536, Control_c, 0, 64, 43
1, 134550, Control_c, 0, 64, 62
1, 134565, Control_c, 0, 64, 69
1, 134580, Control_c, 0, 64, 76
1, 134592, Note_off_c, 0, 79, 55
1, 134595, Control_c, 0, 64, 80
1, 134607, Note_on_c, 0, 76, 81
1, 134607, Note_off_c, 0, 64, 43
1, 134610, Note_on_c, 0, 73, 65
1, 134644, Note_off_c, 0, 73, 63
1, 134666, Note_off_c, 0, 76, 62
1, 134773, Control_c, 0, 64, 79
1, 134788, Control_c, 0, 64, 71
1, 134795, Note_on_c, 0, 62, 57
1, 134802, Control_c, 0, 64, 41
1, 134817, Control_c, 0, 64, 0
1, 134827, Note_on_c, 0, 78, 81
1, 134906, Control_c, 0, 64, 62
1, 134921, Control_c, 0, 64, 71
1, 134925, Note_on_c, 0, 81, 79
1, 134936, Note_off_c, 0, 78, 61
1, 134936, Control_c, 0, 64, 79
1, 134950, Control_c, 0, 64, 83
1, 134968, Note_off_c, 0, 62, 63
1, 134998, Note_off_c, 0, 81, 64
1, 135004, Note_on_c, 0, 78, 77
1, 135075, Note_off_c, 0, 78, 65
1, 135084, Note_on_c, 0, 74, 71
1, 135107, Note_off_c, 0, 74, 69
1, 135122, Control_c, 0, 64, 83
1, 135137, Control_c, 0, 64, 78
1, 135152, Control_c, 0, 64, 67
1, 135161, Note_on_c, 0, 74, 77
1, 135167, Control_c, 0, 64, 0
1, 135225, Note_off_c, 0, 74, 62
1, 135225, Control_c, 0, 64, 47
1, 135235, Note_on_c, 0, 78, 80
1, 135240, Control_c, 0, 64, 58
1, 135255, Control_c, 0, 64, 62
1, 135270, Control_c, 0, 64, 63
1, 135296, Note_off_c, 0, 78, 65
1, 135299, Control_c, 0, 64, 64
1, 135314, Control_c, 0, 64, 65
1, 135315, Note_on_c, 0, 74, 71
1, 135329, Control_c, 0, 64, 68
1, 135344, Control_c, 0, 64, 72
1, 135359, Control_c, 0, 64, 71
1, 135364, Note_off_c, 0, 74, 63
1, 135373, Control_c, 0, 64, 64
1, 135384, Note_on_c, 0, 69, 68
1, 135388, Control_c, 0, 64, 0
1, 135411, Note_off_c, 0, 69, 68
1, 135462, Control_c, 0, 64, 48
1, 135464, Note_on_c, 0, 69, 78
1, 135477, Control_c, 0, 64, 64
1, 135492, Control_c, 0, 64, 71
1, 135507, Control_c, 0, 64, 76
1, 135522, Control_c, 0, 64, 76
1, 135528, Note_off_c, 0, 69, 64
1, 135537, Note_on_c, 0, 74, 79
1, 135566, Control_c, 0, 64, 76
1, 135601, Note_off_c, 0, 74, 63
1, 135619, Note_on_c, 0, 69, 72
1, 135640, Control_c, 0, 64, 77
1, 135655, Control_c, 0, 64, 77
1, 135659, Note_off_c, 0, 69, 57
1, 135684, Note_on_c, 0, 66, 78
1, 135685, Control_c, 0, 64, 77
1, 135699, Control_c, 0, 64, 70
1, 135706, Note_off_c, 0, 66, 69
1, 135714, Control_c, 0, 64, 48
1, 135729, Control_c, 0, 64, 0
1, 135782, Note_on_c, 0, 66, 79
1, 135796, Control_c, 0, 64, 44
1, 135811, Control_c, 0, 64, 62
1, 135825, Control_c, 0, 64, 67
1, 135838, Note_off_c, 0, 66, 64
1, 135840, Control_c, 0, 64, 71
1, 135841, Note_on_c, 0, 69, 77
1, 135913, Note_off_c, 0, 69, 64
1, 135915, Control_c, 0, 64, 71
1, 135924, Note_on_c, 0, 66, 80
1, 135930, Control_c, 0, 64, 73
1, 135945, Control_c, 0, 64, 76
1, 135960, Control_c, 0, 64, 80
1, 135975, Control_c, 0, 64, 80
1, 135984, Note_off_c, 0, 66, 64
1, 135987, Note_on_c, 0, 62, 69
1, 135990, Control_c, 0, 64, 78
1, 136004, Control_c, 0, 64, 66
1, 136013, Note_off_c, 0, 62, 66
1, 136019, Control_c, 0, 64, 0
1, 136073, Note_on_c, 0, 62, 79
1, 136078, Control_c, 0, 64, 48
1, 136093, Control_c, 0, 64, 64
1, 136108, Control_c, 0, 64, 73
1, 136122, Control_c, 0, 64, 83
1, 136134, Note_off_c, 0, 62, 61
1, 136137, Control_c, 0, 64, 87
1, 136148, Note_on_c, 0, 66, 78
1, 136196, Note_off_c, 0, 66, 61
1, 136215, Note_on_c, 0, 62, 69
1, 136259, Note_off_c, 0, 62, 58
1, 136287, Note_on_c, 0, 57, 69
1, 136329, Control_c, 0, 64, 77
1, 136344, Note_off_c, 0, 57, 57
1, 136344, Control_c, 0, 64, 54
1, 136359, Control_c, 0, 64, 0
1, 136401, Note_on_c, 0, 44, 84
1, 136404, Note_on_c, 0, 32, 76
1, 136407, Note_on_c, 0, 56, 74
1, 136434, Note_on_c, 0, 55, 56
1, 136437, Note_off_c, 0, 56, 65
1, 136448, Control_c, 0, 64, 52
1, 136457, Note_off_c, 0, 32, 61
1, 136458, Note_off_c, 0, 55, 59
1, 136463, Control_c, 0, 64, 70
1, 136477, Note_off_c, 0, 44, 61
1, 136478, Control_c, 0, 64, 82
1, 136493, Control_c, 0, 64, 96
1, 136508, Control_c, 0, 64, 99
1, 136619, Control_c, 0, 64, 99
1, 136634, Control_c, 0, 64, 97
1, 136649, Control_c, 0, 64, 95
1, 136663, Control_c, 0, 64, 91
1, 136678, Control_c, 0, 64, 88
1, 136693, Control_c, 0, 64, 86
1, 136762, Note_on_c, 0, 56, 91
1, 136768, Control_c, 0, 64, 86
1, 136797, Control_c, 0, 64, 80
1, 136812, Control_c, 0, 64, 62
1, 136827, Control_c, 0, 64, 0
1, 136827, Note_off_c, 0, 56, 63
1, 136840, Note_on_c, 0, 62, 74
1, 136900, Note_off_c, 0, 62, 61
1, 136901, Control_c, 0, 64, 53
1, 136916, Control_c, 0, 64, 64
1, 136929, Note_on_c, 0, 65, 67
1, 136931, Control_c, 0, 64, 67
1, 136945, Control_c, 0, 64, 69
1, 136967, Note_off_c, 0, 65, 62
1, 136998, Note_on_c, 0, 62, 64
1, 137004, Control_c, 0, 64, 69
1, 137019, Control_c, 0, 64, 70
1, 137027, Note_off_c, 0, 62, 64
1, 137034, Control_c, 0, 64, 71
1, 137049, Control_c, 0, 64, 70
1, 137063, Control_c, 0, 64, 65
1, 137078, Control_c, 0, 64, 35
1, 137090, Note_on_c, 0, 62, 90
1, 137093, Control_c, 0, 64, 0
1, 137125, Note_off_c, 0, 62, 65
1, 137152, Control_c, 0, 64, 44
1, 137167, Control_c, 0, 64, 63
1, 137182, Control_c, 0, 64, 72
1, 137194, Note_on_c, 0, 62, 56
1, 137197, Control_c, 0, 64, 79
1, 137212, Control_c, 0, 64, 80
1, 137236, Note_off_c, 0, 62, 63
1, 137242, Control_c, 0, 64, 80
1, 137257, Note_on_c, 0, 65, 64
1, 137316, Note_off_c, 0, 65, 56
1, 137334, Note_on_c, 0, 62, 66
1, 137370, Note_off_c, 0, 62, 64
1, 137397, Control_c, 0, 64, 76
1, 137412, Control_c, 0, 64, 64
1, 137419, Note_on_c, 0, 45, 81
1, 137425, Note_on_c, 0, 33, 71
1, 137426, Control_c, 0, 64, 0
1, 137465, Note_off_c, 0, 33, 64
1, 137486, Control_c, 0, 64, 21
1, 137501, Control_c, 0, 64, 58
1, 137514, Note_off_c, 0, 45, 61
1, 137516, Control_c, 0, 64, 67
1, 137526, Note_on_c, 0, 62, 62
1, 137531, Control_c, 0, 64, 75
1, 137546, Control_c, 0, 64, 79
1, 137564, Note_off_c, 0, 62, 64
1, 137575, Control_c, 0, 64, 77
1, 137590, Control_c, 0, 64, 76
1, 137605, Control_c, 0, 64, 74
1, 137609, Note_on_c, 0, 65, 56
1, 137620, Control_c, 0, 64, 74
1, 137635, Control_c, 0, 64, 73
1, 137653, Note_off_c, 0, 65, 59
1, 137686, Note_on_c, 0, 62, 48
1, 137710, Note_off_c, 0, 62, 59
1, 137723, Control_c, 0, 64, 74
1, 137753, Control_c, 0, 64, 73
1, 137762, Note_on_c, 0, 57, 90
1, 137767, Control_c, 0, 64, 66
1, 137782, Control_c, 0, 64, 34
1, 137797, Control_c, 0, 64, 0
1, 137848, Note_off_c, 0, 57, 64
1, 137853, Note_on_c, 0, 62, 62
1, 137856, Control_c, 0, 64, 41
1, 137871, Control_c, 0, 64, 63
1, 137886, Control_c, 0, 64, 71
1, 137897, Note_off_c, 0, 62, 62
1, 137900, Control_c, 0, 64, 77
1, 137915, Control_c, 0, 64, 78
1, 137929, Note_on_c, 0, 65, 62
1, 137930, Control_c, 0, 64, 78
1, 137945, Control_c, 0, 64, 77
1, 137960, Control_c, 0, 64, 76
1, 137969, Note_off_c, 0, 65, 60
1, 138006, Note_on_c, 0, 62, 47
1, 138036, Note_off_c, 0, 62, 61
1, 138041, Control_c, 0, 64, 76
1, 138056, Control_c, 0, 64, 69
1, 138071, Control_c, 0, 64, 41
1, 138086, Control_c, 0, 64, 0
1, 138112, Note_on_c, 0, 62, 80
1, 138150, Note_off_c, 0, 62, 64
1, 138160, Control_c, 0, 64, 52
1, 138175, Control_c, 0, 64, 64
1, 138190, Control_c, 0, 64, 70
1, 138204, Control_c, 0, 64, 75
1, 138210, Note_on_c, 0, 62, 54
1, 138219, Control_c, 0, 64, 76
1, 138253, Note_off_c, 0, 62, 63
1, 138284, Note_on_c, 0, 65, 57
1, 138329, Note_off_c, 0, 65, 57
1, 138350, Note_on_c, 0, 62, 56
1, 138383, Control_c, 0, 64, 76
1, 138403, Note_off_c, 0, 62, 61
1, 138428, Control_c, 0, 64, 75
1, 138442, Control_c, 0, 64, 75
1, 138480, Note_on_c, 0, 46, 59
1, 138488, Note_on_c, 0, 34, 50
1, 138531, Control_c, 0, 64, 74
1, 138546, Control_c, 0, 64, 71
1, 138560, Control_c, 0, 64, 62
1, 138575, Control_c, 0, 64, 0
1, 138659, Note_on_c, 0, 62, 45
1, 138659, Note_off_c, 0, 34, 62
1, 138664, Control_c, 0, 64, 44
1, 138679, Control_c, 0, 64, 61
1, 138690, Note_off_c, 0, 46, 64
1, 138694, Control_c, 0, 64, 67
1, 138702, Note_off_c, 0, 62, 60
1, 138708, Control_c, 0, 64, 73
1, 138723, Control_c, 0, 64, 76
1, 138738, Control_c, 0, 64, 77
1, 138753, Control_c, 0, 64, 78
1, 138780, Note_on_c, 0, 65, 41
1, 138828, Note_off_c, 0, 65, 56
1, 138872, Note_on_c, 0, 62, 32
1, 138910, Note_off_c, 0, 62, 48
1, 138968, Control_c, 0, 64, 77
1, 138982, Control_c, 0, 64, 77
1, 138988, Note_on_c, 0, 58, 46
1, 138997, Control_c, 0, 64, 76
1, 139012, Control_c, 0, 64, 76
1, 139027, Control_c, 0, 64, 75
1, 139058, Control_c, 0, 64, 75
1, 139072, Control_c, 0, 64, 74
1, 139082, Note_on_c, 0, 62, 42
1, 139117, Control_c, 0, 64, 74
1, 139129, Note_off_c, 0, 62, 60
1, 139132, Control_c, 0, 64, 73
1, 139146, Control_c, 0, 64, 72
1, 139161, Control_c, 0, 64, 72
1, 139176, Note_on_c, 0, 74, 49
1, 139176, Control_c, 0, 64, 71
1, 139185, Note_off_c, 0, 58, 18
1, 139190, Control_c, 0, 64, 70
1, 139205, Control_c, 0, 64, 68
1, 139215, Note_off_c, 0, 74, 61
1, 139220, Control_c, 0, 64, 67
1, 139235, Control_c, 0, 64, 66
1, 139250, Note_on_c, 0, 62, 47
1, 139250, Control_c, 0, 64, 66
1, 139293, Note_off_c, 0, 62, 60
1, 139309, Control_c, 0, 64, 65
1, 139324, Control_c, 0, 64, 63
1, 139331, Note_on_c, 0, 58, 57
1, 139338, Control_c, 0, 64, 61
1, 139353, Control_c, 0, 64, 62
1, 139368, Control_c, 0, 64, 63
1, 139382, Control_c, 0, 64, 64
1, 139397, Control_c, 0, 64, 65
1, 139412, Control_c, 0, 64, 66
1, 139423, Note_on_c, 0, 62, 51
1, 139442, Control_c, 0, 64, 65
1, 139456, Control_c, 0, 64, 63
1, 139463, Note_off_c, 0, 62, 63
1, 139471, Control_c, 0, 64, 61
1, 139486, Control_c, 0, 64, 60
1, 139513, Note_on_c, 0, 72, 57
1, 139516, Note_off_c, 0, 58, 34
1, 139524, Control_c, 0, 64, 61
1, 139538, Control_c, 0, 64, 61
1, 139553, Note_off_c, 0, 72, 61
1, 139553, Control_c, 0, 64, 62
1, 139583, Control_c, 0, 64, 62
1, 139589, Note_on_c, 0, 62, 51
1, 139597, Control_c, 0, 64, 63
1, 139623, Note_off_c, 0, 62, 65
1, 139627, Control_c, 0, 64, 62
1, 139642, Control_c, 0, 64, 60
1, 139657, Control_c, 0, 64, 53
1, 139665, Note_on_c, 0, 58, 53
1, 139671, Control_c, 0, 64, 47
1, 139686, Control_c, 0, 64, 50
1, 139701, Control_c, 0, 64, 55
1, 139716, Control_c, 0, 64, 59
1, 139731, Control_c, 0, 64, 62
1, 139746, Control_c, 0, 64, 63
1, 139752, Note_on_c, 0, 62, 44
1, 139760, Control_c, 0, 64, 64
1, 139790, Control_c, 0, 64, 64
1, 139791, Note_off_c, 0, 62, 62
1, 139828, Note_on_c, 0, 70, 53
1, 139844, Note_off_c, 0, 58, 41
1, 139865, Control_c, 0, 64, 64
1, 139875, Note_off_c, 0, 70, 59
1, 139909, Note_on_c, 0, 62, 49
1, 139939, Control_c, 0, 64, 62
1, 139950, Note_off_c, 0, 62, 63
1, 139954, Control_c, 0, 64, 58
1, 139969, Control_c, 0, 64, 52
1, 139984, Control_c, 0, 64, 51
1, 139994, Note_on_c, 0, 58, 47
1, 139999, Control_c, 0, 64, 53
1, 140013, Control_c, 0, 64, 56
1, 140028, Control_c, 0, 64, 60
1, 140043, Control_c, 0, 64, 62
1, 140058, Control_c, 0, 64, 64
1, 140078, Note_on_c, 0, 62, 48
1, 140102, Control_c, 0, 64, 63
1, 140122, Note_off_c, 0, 62, 61
1, 140130, Note_off_c, 0, 58, 38
1, 140146, Control_c, 0, 64, 63
1, 140170, Note_on_c, 0, 69, 54
1, 140191, Control_c, 0, 64, 63
1, 140205, Note_off_c, 0, 69, 66
1, 140220, Control_c, 0, 64, 64
1, 140244, Note_on_c, 0, 62, 44
1, 140278, Note_off_c, 0, 62, 60
1, 140287, Control_c, 0, 64, 62
1, 140302, Control_c, 0, 64, 58
1, 140317, Control_c, 0, 64, 49
1, 140331, Note_on_c, 0, 58, 49
1, 140331, Control_c, 0, 64, 42
1, 140346, Control_c, 0, 64, 48
1, 140361, Control_c, 0, 64, 55
1, 140376, Control_c, 0, 64, 60
1, 140391, Control_c, 0, 64, 63
1, 140405, Control_c, 0, 64, 65
1, 140413, Note_on_c, 0, 62, 36
1, 140420, Control_c, 0, 64, 67
1, 140435, Control_c, 0, 64, 66
1, 140450, Control_c, 0, 64, 66
1, 140456, Note_off_c, 0, 62, 60
1, 140465, Control_c, 0, 64, 65
1, 140478, Note_off_c, 0, 58, 37
1, 140494, Note_on_c, 0, 68, 46
1, 140494, Control_c, 0, 64, 64
1, 140536, Note_off_c, 0, 68, 63
1, 140565, Note_on_c, 0, 62, 46
1, 140568, Control_c, 0, 64, 65
1, 140594, Note_off_c, 0, 62, 58
1, 140613, Control_c, 0, 64, 64
1, 140628, Control_c, 0, 64, 61
1, 140643, Control_c, 0, 64, 51
1, 140646, Note_on_c, 0, 57, 50
1, 140658, Control_c, 0, 64, 29
1, 140673, Control_c, 0, 64, 30
1, 140689, Control_c, 0, 64, 42
1, 140704, Control_c, 0, 64, 54
1, 140707, Note_off_c, 0, 57, 61
1, 140718, Control_c, 0, 64, 59
1, 140720, Note_on_c, 0, 61, 53
1, 140733, Control_c, 0, 64, 61
1, 140762, Control_c, 0, 64, 61
1, 140768, Note_off_c, 0, 61, 59
1, 140777, Control_c, 0, 64, 60
1, 140811, Note_on_c, 0, 69, 53
1, 140837, Control_c, 0, 64, 60
1, 140852, Control_c, 0, 64, 61
1, 140878, Note_on_c, 0, 61, 62
1, 140885, Note_off_c, 0, 69, 55
1, 140896, Control_c, 0, 64, 60
1, 140905, Note_off_c, 0, 61, 66
1, 140911, Control_c, 0, 64, 54
1, 140926, Control_c, 0, 64, 37
1, 140941, Control_c, 0, 64, 0
1, 140971, Note_on_c, 0, 61, 65
1, 140985, Control_c, 0, 64, 37
1, 141000, Control_c, 0, 64, 53
1, 141001, Note_off_c, 0, 61, 64
1, 141022, Control_c, 0, 64, 59
1, 141036, Control_c, 0, 64, 61
1, 141051, Control_c, 0, 64, 61
1, 141066, Control_c, 0, 64, 61
1, 141079, Note_on_c, 0, 64, 43
1, 141081, Control_c, 0, 64, 60
1, 141112, Note_off_c, 0, 64, 58
1, 141147, Note_on_c, 0, 67, 53
1, 141170, Control_c, 0, 64, 61
1, 141186, Note_off_c, 0, 67, 63
1, 141203, Note_on_c, 0, 64, 53
1, 141215, Control_c, 0, 64, 61
1, 141227, Note_off_c, 0, 64, 60
1, 141259, Control_c, 0, 64, 61
1, 141274, Control_c, 0, 64, 57
1, 141289, Control_c, 0, 64, 44
1, 141303, Control_c, 0, 64, 0
1, 141304, Note_on_c, 0, 62, 60
1, 141333, Note_off_c, 0, 62, 64
1, 141333, Control_c, 0, 64, 29
1, 141348, Control_c, 0, 64, 47
1, 141362, Control_c, 0, 64, 57
1, 141377, Control_c, 0, 64, 61
1, 141392, Control_c, 0, 64, 63
1, 141416, Note_on_c, 0, 62, 44
1, 141438, Control_c, 0, 64, 62
1, 141446, Note_off_c, 0, 62, 57
1, 141472, Note_on_c, 0, 66, 58
1, 141523, Note_off_c, 0, 66, 52
1, 141541, Note_on_c, 0, 62, 48
1, 141556, Control_c, 0, 64, 63
1, 141581, Note_off_c, 0, 62, 63
1, 141585, Control_c, 0, 64, 62
1, 141600, Control_c, 0, 64, 61
1, 141615, Control_c, 0, 64, 56
1, 141621, Note_on_c, 0, 43, 52
1, 141621, Note_on_c, 0, 55, 51
1, 141630, Control_c, 0, 64, 41
1, 141645, Control_c, 0, 64, 0
1, 141659, Control_c, 0, 64, 25
1, 141674, Control_c, 0, 64, 42
1, 141689, Control_c, 0, 64, 54
1, 141704, Control_c, 0, 64, 59
1, 141705, Note_off_c, 0, 43, 58
1, 141714, Note_on_c, 0, 64, 56
1, 141719, Control_c, 0, 64, 62
1, 141749, Control_c, 0, 64, 61
1, 141764, Note_off_c, 0, 64, 64
1, 141771, Control_c, 0, 64, 61
1, 141788, Note_on_c, 0, 67, 58
1, 141833, Note_off_c, 0, 67, 60
1, 141856, Note_off_c, 0, 55, 30
1, 141878, Note_on_c, 0, 64, 46
1, 141922, Note_off_c, 0, 64, 50
1, 141948, Control_c, 0, 64, 60
1, 141963, Control_c, 0, 64, 55
1, 141978, Note_on_c, 0, 62, 48
1, 141978, Note_on_c, 0, 54, 49
1, 141978, Control_c, 0, 64, 38
1, 141984, Note_on_c, 0, 45, 42
1, 141993, Control_c, 0, 64, 0
1, 142053, Control_c, 0, 64, 21
1, 142067, Control_c, 0, 64, 51
1, 142077, Note_off_c, 0, 45, 49
1, 142082, Control_c, 0, 64, 60
1, 142097, Control_c, 0, 64, 62
1, 142111, Control_c, 0, 64, 63
1, 142126, Control_c, 0, 64, 63
1, 142141, Control_c, 0, 64, 64
1, 142188, Note_off_c, 0, 54, 62
1, 142284, Note_off_c, 0, 62, 32
1, 142320, Control_c, 0, 64, 63
1, 142335, Control_c, 0, 64, 61
1, 142338, Note_on_c, 0, 45, 42
1, 142345, Note_on_c, 0, 52, 38
1, 142349, Control_c, 0, 64, 54
1, 142364, Control_c, 0, 64, 43
1, 142379, Control_c, 0, 64, 45
1, 142394, Control_c, 0, 64, 52
1, 142407, Note_on_c, 0, 62, 52
1, 142408, Control_c, 0, 64, 60
1, 142423, Control_c, 0, 64, 64
1, 142438, Control_c, 0, 64, 67
1, 142439, Note_off_c, 0, 45, 57
1, 142453, Control_c, 0, 64, 71
1, 142454, Note_off_c, 0, 62, 61
1, 142468, Control_c, 0, 64, 72
1, 142477, Note_off_c, 0, 52, 53
1, 142490, Note_on_c, 0, 61, 46
1, 142524, Note_off_c, 0, 61, 57
1, 142543, Note_on_c, 0, 59, 57
1, 142567, Note_off_c, 0, 59, 61
1, 142605, Note_on_c, 0, 61, 55
1, 142608, Control_c, 0, 64, 72
1, 142623, Control_c, 0, 64, 71
1, 142638, Control_c, 0, 64, 69
1, 142639, Note_off_c, 0, 61, 65
1, 142653, Control_c, 0, 64, 68
1, 142668, Control_c, 0, 64, 68
1, 142682, Control_c, 0, 64, 67
1, 142697, Control_c, 0, 64, 66
1, 142712, Control_c, 0, 64, 62
1, 142727, Control_c, 0, 64, 36
1, 142737, Note_on_c, 0, 62, 50
1, 142741, Control_c, 0, 64, 0
1, 142744, Note_on_c, 0, 54, 39
1, 142789, Note_off_c, 0, 62, 62
1, 142816, Control_c, 0, 64, 38
1, 142831, Control_c, 0, 64, 62
1, 142846, Control_c, 0, 64, 70
1, 142861, Control_c, 0, 64, 81
1, 142876, Control_c, 0, 64, 92
1, 142889, Note_on_c, 0, 62, 47
1, 142890, Control_c, 0, 64, 97
1, 142905, Control_c, 0, 64, 98
1, 142938, Note_off_c, 0, 62, 59
1, 142952, Note_off_c, 0, 54, 45
1, 142962, Note_on_c, 0, 61, 60
1, 142979, Control_c, 0, 64, 98
1, 142998, Note_off_c, 0, 61, 61
1, 143039, Control_c, 0, 64, 97
1, 143049, Note_on_c, 0, 62, 51
1, 143096, Note_off_c, 0, 62, 57
1, 143138, Note_on_c, 0, 86, 70
1, 143147, Note_on_c, 0, 54, 49
1, 143157, Control_c, 0, 64, 97
1, 143202, Control_c, 0, 64, 96
1, 143217, Control_c, 0, 64, 96
1, 143231, Control_c, 0, 64, 94
1, 143242, Note_on_c, 0, 62, 50
1, 143246, Control_c, 0, 64, 93
1, 143269, Control_c, 0, 64, 93
1, 143272, Note_off_c, 0, 54, 52
1, 143299, Control_c, 0, 64, 92
1, 143312, Note_off_c, 0, 62, 59
1, 143328, Control_c, 0, 64, 92
1, 143329, Note_on_c, 0, 61, 55
1, 143343, Control_c, 0, 64, 91
1, 143367, Note_off_c, 0, 61, 61
1, 143372, Control_c, 0, 64, 91
1, 143387, Control_c, 0, 64, 90
1, 143402, Control_c, 0, 64, 89
1, 143413, Note_on_c, 0, 62, 50
1, 143417, Control_c, 0, 64, 86
1, 143431, Control_c, 0, 64, 85
1, 143446, Control_c, 0, 64, 84
1, 143453, Note_off_c, 0, 62, 47
1, 143489, Note_on_c, 0, 54, 57
1, 143505, Control_c, 0, 64, 84
1, 143511, Note_on_c, 0, 85, 73
1, 143520, Control_c, 0, 64, 78
1, 143535, Control_c, 0, 64, 68
1, 143550, Control_c, 0, 64, 46
1, 143564, Control_c, 0, 64, 9
1, 143572, Note_off_c, 0, 86, 33
1, 143579, Control_c, 0, 64, 39
1, 143592, Note_on_c, 0, 62, 45
1, 143594, Control_c, 0, 64, 58
1, 143609, Control_c, 0, 64, 67
1, 143610, Note_off_c, 0, 54, 42
1, 143624, Control_c, 0, 64, 75
1, 143638, Note_off_c, 0, 62, 60
1, 143639, Control_c, 0, 64, 80
1, 143654, Control_c, 0, 64, 80
1, 143656, Note_on_c, 0, 61, 61
1, 143668, Control_c, 0, 64, 77
1, 143683, Control_c, 0, 64, 75
1, 143695, Note_off_c, 0, 85, 35
1, 143698, Note_off_c, 0, 61, 59
1, 143698, Control_c, 0, 64, 72
1, 143713, Control_c, 0, 64, 72
1, 143739, Note_on_c, 0, 62, 49
1, 143743, Control_c, 0, 64, 72
1, 143757, Control_c, 0, 64, 71
1, 143770, Note_off_c, 0, 62, 61
1, 143772, Control_c, 0, 64, 64
1, 143787, Control_c, 0, 64, 0
1, 143803, Note_on_c, 0, 85, 73
1, 143805, Note_on_c, 0, 55, 54
1, 143847, Control_c, 0, 64, 28
1, 143853, Note_off_c, 0, 55, 58
1, 143860, Note_off_c, 0, 85, 62
1, 143862, Control_c, 0, 64, 56
1, 143864, Note_on_c, 0, 83, 70
1, 143871, Note_on_c, 0, 62, 53
1, 143877, Control_c, 0, 64, 62
1, 143892, Control_c, 0, 64, 62
1, 143907, Control_c, 0, 64, 58
1, 143907, Note_off_c, 0, 83, 64
1, 143913, Note_off_c, 0, 62, 59
1, 143921, Control_c, 0, 64, 54
1, 143922, Note_on_c, 0, 82, 74
1, 143951, Note_on_c, 0, 61, 49
1, 143951, Control_c, 0, 64, 56
1, 143966, Control_c, 0, 64, 57
1, 143967, Note_on_c, 0, 83, 77
1, 143972, Note_off_c, 0, 82, 63
1, 143984, Note_off_c, 0, 61, 58
1, 144013, Note_off_c, 0, 83, 64
1, 144015, Note_on_c, 0, 62, 51
1, 144032, Control_c, 0, 64, 58
1, 144047, Control_c, 0, 64, 58
1, 144057, Note_off_c, 0, 62, 59
1, 144077, Control_c, 0, 64, 55
1, 144092, Control_c, 0, 64, 40
1, 144107, Control_c, 0, 64, 0
1, 144122, Note_on_c, 0, 55, 43
1, 144151, Note_on_c, 0, 81, 66
1, 144166, Note_off_c, 0, 55, 58
1, 144179, Note_off_c, 0, 81, 68
1, 144185, Note_on_c, 0, 79, 76
1, 144217, Note_on_c, 0, 64, 54
1, 144235, Note_off_c, 0, 79, 62
1, 144244, Note_on_c, 0, 78, 71
1, 144254, Control_c, 0, 64, 15
1, 144259, Note_off_c, 0, 64, 62
1, 144269, Control_c, 0, 64, 40
1, 144284, Control_c, 0, 64, 48
1, 144292, Note_on_c, 0, 79, 71
1, 144299, Note_off_c, 0, 78, 63
1, 144299, Control_c, 0, 64, 50
1, 144302, Note_on_c, 0, 63, 48
1, 144313, Control_c, 0, 64, 48
1, 144328, Control_c, 0, 64, 47
1, 144331, Note_off_c, 0, 79, 61
1, 144339, Note_off_c, 0, 63, 65
1, 144358, Control_c, 0, 64, 47
1, 144366, Note_on_c, 0, 64, 51
1, 144373, Control_c, 0, 64, 49
1, 144387, Control_c, 0, 64, 51
1, 144402, Control_c, 0, 64, 53
1, 144403, Note_off_c, 0, 64, 59
1, 144417, Control_c, 0, 64, 50
1, 144432, Control_c, 0, 64, 28
1, 144447, Control_c, 0, 64, 0
1, 144457, Note_on_c, 0, 55, 46
1, 144468, Note_on_c, 0, 78, 63
1, 144494, Note_off_c, 0, 55, 59
1, 144515, Note_on_c, 0, 76, 75
1, 144517, Note_off_c, 0, 78, 61
1, 144536, Control_c, 0, 64, 33
1, 144548, Note_on_c, 0, 64, 42
1, 144551, Control_c, 0, 64, 41
1, 144566, Control_c, 0, 64, 35
1, 144567, Note_off_c, 0, 76, 59
1, 144577, Note_off_c, 0, 64, 58
1, 144580, Control_c, 0, 64, 20
1, 144592, Note_on_c, 0, 75, 63
1, 144595, Control_c, 0, 64, 0
1, 144620, Note_off_c, 0, 75, 66
1, 144622, Note_on_c, 0, 63, 50
1, 144639, Note_on_c, 0, 76, 65
1, 144661, Note_off_c, 0, 63, 64
1, 144679, Note_on_c, 0, 64, 50
1, 144755, Note_off_c, 0, 64, 52
1, 144835, Note_on_c, 0, 57, 43
1, 144858, Note_on_c, 0, 69, 56
1, 144859, Note_off_c, 0, 76, 48
1, 144900, Control_c, 0, 64, 48
1, 144914, Control_c, 0, 64, 62
1, 144929, Control_c, 0, 64, 67
1, 144935, Note_off_c, 0, 69, 63
1, 144944, Control_c, 0, 64, 73
1, 144959, Control_c, 0, 64, 77
1, 144966, Note_on_c, 0, 66, 43
1, 144966, Note_off_c, 0, 57, 36
1, 144974, Control_c, 0, 64, 78
1, 144998, Note_off_c, 0, 66, 58
1, 145027, Note_on_c, 0, 62, 48
1, 145073, Note_off_c, 0, 62, 58
1, 145096, Note_on_c, 0, 66, 56
1, 145136, Control_c, 0, 64, 78
1, 145138, Note_off_c, 0, 66, 60
1, 145169, Note_on_c, 0, 78, 62
1, 145179, Note_on_c, 0, 57, 58
1, 145197, Note_off_c, 0, 78, 66
1, 145211, Note_off_c, 0, 57, 62
1, 145214, Note_on_c, 0, 76, 71
1, 145240, Control_c, 0, 64, 77
1, 145245, Note_off_c, 0, 76, 65
1, 145266, Note_on_c, 0, 78, 76
1, 145275, Note_on_c, 0, 67, 54
1, 145312, Note_off_c, 0, 67, 63
1, 145314, Note_off_c, 0, 78, 61
1, 145314, Control_c, 0, 64, 77
1, 145329, Note_on_c, 0, 76, 71
1, 145344, Control_c, 0, 64, 76
1, 145350, Note_on_c, 0, 64, 50
1, 145353, Note_off_c, 0, 76, 66
1, 145359, Control_c, 0, 64, 75
1, 145374, Control_c, 0, 64, 73
1, 145376, Note_on_c, 0, 78, 70
1, 145380, Note_off_c, 0, 64, 57
1, 145388, Control_c, 0, 64, 72
1, 145403, Control_c, 0, 64, 72
1, 145409, Note_on_c, 0, 67, 54
1, 145413, Note_off_c, 0, 78, 64
1, 145418, Control_c, 0, 64, 71
1, 145429, Note_on_c, 0, 76, 63
1, 145433, Control_c, 0, 64, 70
1, 145448, Control_c, 0, 64, 69
1, 145459, Note_off_c, 0, 67, 57
1, 145462, Note_off_c, 0, 76, 65
1, 145463, Control_c, 0, 64, 69
1, 145478, Control_c, 0, 64, 68
1, 145493, Control_c, 0, 64, 68
1, 145496, Note_on_c, 0, 78, 64
1, 145515, Note_on_c, 0, 57, 48
1, 145515, Control_c, 0, 64, 67
1, 145529, Note_off_c, 0, 78, 69
1, 145530, Control_c, 0, 64, 67
1, 145544, Note_on_c, 0, 76, 72
1, 145545, Control_c, 0, 64, 66
1, 145559, Control_c, 0, 64, 65
1, 145572, Note_off_c, 0, 76, 64
1, 145574, Control_c, 0, 64, 64
1, 145586, Note_off_c, 0, 57, 53
1, 145589, Control_c, 0, 64, 62
1, 145595, Note_on_c, 0, 78, 74
1, 145604, Control_c, 0, 64, 59
1, 145619, Control_c, 0, 64, 56
1, 145626, Note_on_c, 0, 67, 37
1, 145628, Note_off_c, 0, 78, 60
1, 145633, Control_c, 0, 64, 55
1, 145648, Control_c, 0, 64, 55
1, 145654, Note_on_c, 0, 76, 61
1, 145663, Control_c, 0, 64, 54
1, 145672, Note_off_c, 0, 67, 59
1, 145678, Control_c, 0, 64, 52
1, 145692, Note_off_c, 0, 76, 61
1, 145693, Control_c, 0, 64, 49
1, 145707, Control_c, 0, 64, 45
1, 145710, Note_on_c, 0, 64, 43
1, 145722, Control_c, 0, 64, 42
1, 145733, Note_on_c, 0, 74, 48
1, 145737, Control_c, 0, 64, 35
1, 145752, Control_c, 0, 64, 19
1, 145755, Note_off_c, 0, 74, 60
1, 145767, Control_c, 0, 64, 0
1, 145786, Note_off_c, 0, 64, 53
1, 145809, Note_on_c, 0, 76, 52
1, 145826, Note_on_c, 0, 67, 36
1, 146208, Note_on_c, 0, 66, 21
1, 146217, Note_on_c, 0, 74, 32
1, 146220, Note_on_c, 0, 59, 29
1, 146227, Note_off_c, 0, 76, 35
1, 146306, Note_off_c, 0, 67, 40
1, 146590, Control_c, 0, 64, 43
1, 146605, Control_c, 0, 64, 63
1, 146616, Note_off_c, 0, 66, 58
1, 146620, Control_c, 0, 64, 71
1, 146634, Control_c, 0, 64, 82
1, 146649, Note_off_c, 0, 59, 41
1, 146649, Control_c, 0, 64, 92
1, 146664, Control_c, 0, 64, 97
1, 146679, Control_c, 0, 64, 98
1, 146814, Note_off_c, 0, 74, 41
1, 146901, Control_c, 0, 64, 97
1, 146916, Control_c, 0, 64, 96
1, 146931, Control_c, 0, 64, 95
1, 146946, Control_c, 0, 64, 95
1, 146961, Control_c, 0, 64, 93
1, 146975, Control_c, 0, 64, 92
1, 146998, Control_c, 0, 64, 91
1, 147013, Control_c, 0, 64, 91
1, 147028, Control_c, 0, 64, 89
1, 147043, Control_c, 0, 64, 88
1, 147058, Control_c, 0, 64, 87
1, 147073, Control_c, 0, 64, 86
1, 147088, Control_c, 0, 64, 85
1, 147102, Control_c, 0, 64, 83
1, 147117, Control_c, 0, 64, 81
1, 147132, Control_c, 0, 64, 80
1, 147147, Control_c, 0, 64, 79
1, 147162, Control_c, 0, 64, 77
1, 147177, Control_c, 0, 64, 75
1, 147192, Control_c, 0, 64, 72
1, 147206, Control_c, 0, 64, 69
1, 147221, Control_c, 0, 64, 67
1, 147236, Control_c, 0, 64, 65
1, 147251, Control_c, 0, 64, 63
1, 147266, Control_c, 0, 64, 62
1, 147280, Control_c, 0, 64, 61
1, 147295, Control_c, 0, 64, 60
1, 147310, Control_c, 0, 64, 59
1, 147354, Control_c, 0, 64, 59
1, 147369, Control_c, 0, 64, 58
1, 147384, Control_c, 0, 64, 57
1, 147398, Control_c, 0, 64, 57
1, 147413, Control_c, 0, 64, 56
1, 147427, Control_c, 0, 64, 55
1, 147442, Control_c, 0, 64, 54
1, 147457, Control_c, 0, 64, 53
1, 147472, Control_c, 0, 64, 52
1, 147487, Control_c, 0, 64, 51
1, 147502, Control_c, 0, 64, 50
1, 147517, Control_c, 0, 64, 49
1, 147531, Control_c, 0, 64, 49
1, 147546, Control_c, 0, 64, 47
1, 147549, Note_on_c, 0, 55, 44
1, 147559, Note_on_c, 0, 49, 38
1, 147561, Control_c, 0, 64, 45
1, 147576, Control_c, 0, 64, 40
1, 147591, Control_c, 0, 64, 28
1, 147605, Control_c, 0, 64, 0
1, 147694, Control_c, 0, 64, 47
1, 147709, Control_c, 0, 64, 61
1, 147723, Control_c, 0, 64, 68
1, 147738, Control_c, 0, 64, 76
1, 147761, Control_c, 0, 64, 82
1, 147776, Control_c, 0, 64, 84
1, 147791, Control_c, 0, 64, 86
1, 147805, Control_c, 0, 64, 87
1, 147821, Control_c, 0, 64, 88
1, 147825, Note_off_c, 0, 49, 41
1, 147826, Note_on_c, 0, 81, 44
1, 147836, Control_c, 0, 64, 90
1, 147851, Control_c, 0, 64, 91
1, 147866, Control_c, 0, 64, 92
1, 147903, Note_off_c, 0, 55, 60
1, 147930, Note_off_c, 0, 81, 60
1, 148012, Note_on_c, 0, 69, 59
1, 148043, Control_c, 0, 64, 91
1, 148073, Control_c, 0, 64, 91
1, 148088, Control_c, 0, 64, 90
1, 148102, Control_c, 0, 64, 89
1, 148117, Control_c, 0, 64, 88
1, 148120, Note_off_c, 0, 69, 49
1, 148132, Control_c, 0, 64, 87
1, 148146, Control_c, 0, 64, 86
1, 148155, Note_on_c, 0, 52, 46
1, 148161, Control_c, 0, 64, 85
1, 148162, Note_on_c, 0, 73, 61
1, 148176, Control_c, 0, 64, 84
1, 148191, Control_c, 0, 64, 82
1, 148206, Control_c, 0, 64, 81
1, 148220, Control_c, 0, 64, 80
1, 148235, Control_c, 0, 64, 78
1, 148250, Control_c, 0, 64, 77
1, 148265, Control_c, 0, 64, 76
1, 148271, Note_off_c, 0, 52, 55
1, 148280, Control_c, 0, 64, 74
1, 148295, Control_c, 0, 64, 72
1, 148310, Control_c, 0, 64, 70
1, 148316, Note_off_c, 0, 73, 59
1, 148325, Control_c, 0, 64, 68
1, 148326, Note_on_c, 0, 54, 54
1, 148332, Note_on_c, 0, 74, 66
1, 148340, Control_c, 0, 64, 66
1, 148354, Control_c, 0, 64, 64
1, 148369, Control_c, 0, 64, 64
1, 148384, Control_c, 0, 64, 63
1, 148399, Control_c, 0, 64, 62
1, 148414, Control_c, 0, 64, 60
1, 148428, Control_c, 0, 64, 58
1, 148443, Control_c, 0, 64, 56
1, 148444, Note_off_c, 0, 54, 57
1, 148458, Control_c, 0, 64, 55
1, 148472, Control_c, 0, 64, 52
1, 148486, Note_on_c, 0, 62, 67
1, 148487, Note_off_c, 0, 74, 58
1, 148487, Control_c, 0, 64, 45
1, 148509, Control_c, 0, 64, 37
1, 148524, Control_c, 0, 64, 30
1, 148539, Control_c, 0, 64, 26
1, 148554, Control_c, 0, 64, 23
1, 148569, Control_c, 0, 64, 13
1, 148584, Control_c, 0, 64, 0
1, 148602, Note_off_c, 0, 62, 32
1, 148650, Note_on_c, 0, 61, 70
1, 148663, Note_on_c, 0, 55, 57
1, 148807, Control_c, 0, 64, 37
1, 148821, Note_off_c, 0, 55, 58
1, 148822, Control_c, 0, 64, 62
1, 148824, Note_on_c, 0, 81, 66
1, 148837, Control_c, 0, 64, 72
1, 148851, Control_c, 0, 64, 85
1, 148866, Control_c, 0, 64, 99
1, 148881, Control_c, 0, 64, 110
1, 148895, Control_c, 0, 64, 112
1, 148903, Note_off_c, 0, 81, 54
1, 148910, Control_c, 0, 64, 113
1, 148990, Note_on_c, 0, 69, 74
1, 149030, Note_off_c, 0, 61, 61
1, 149105, Note_off_c, 0, 69, 55
1, 149132, Control_c, 0, 64, 112
1, 149138, Note_on_c, 0, 64, 61
1, 149138, Note_on_c, 0, 73, 73
1, 149147, Control_c, 0, 64, 110
1, 149162, Control_c, 0, 64, 108
1, 149176, Note_off_c, 0, 64, 62
1, 149177, Control_c, 0, 64, 106
1, 149192, Control_c, 0, 64, 105
1, 149207, Control_c, 0, 64, 103
1, 149222, Control_c, 0, 64, 100
1, 149237, Control_c, 0, 64, 97
1, 149258, Control_c, 0, 64, 93
1, 149273, Control_c, 0, 64, 90
1, 149288, Control_c, 0, 64, 86
1, 149302, Control_c, 0, 64, 83
1, 149307, Note_off_c, 0, 73, 59
1, 149317, Control_c, 0, 64, 80
1, 149318, Note_on_c, 0, 62, 66
1, 149320, Note_on_c, 0, 54, 57
1, 149326, Note_on_c, 0, 74, 68
1, 149332, Control_c, 0, 64, 77
1, 149347, Control_c, 0, 64, 74
1, 149362, Control_c, 0, 64, 71
1, 149377, Control_c, 0, 64, 68
1, 149392, Control_c, 0, 64, 64
1, 149407, Note_off_c, 0, 62, 53
1, 149407, Control_c, 0, 64, 61
1, 149422, Control_c, 0, 64, 58
1, 149425, Note_off_c, 0, 74, 64
1, 149437, Note_off_c, 0, 54, 51
1, 149437, Control_c, 0, 64, 54
1, 149452, Control_c, 0, 64, 49
1, 149467, Control_c, 0, 64, 43
1, 149477, Note_on_c, 0, 66, 80
1, 149481, Control_c, 0, 64, 32
1, 149496, Control_c, 0, 64, 0
1, 149535, Note_off_c, 0, 66, 64
1, 149668, Note_on_c, 0, 67, 71
1, 149693, Note_on_c, 0, 61, 49
1, 149793, Control_c, 0, 64, 18
1, 149808, Control_c, 0, 64, 60
1, 149823, Control_c, 0, 64, 74
1, 149838, Control_c, 0, 64, 93
1, 149841, Note_on_c, 0, 81, 65
1, 149853, Control_c, 0, 64, 127
1, 149890, Note_off_c, 0, 61, 37
1, 149943, Note_off_c, 0, 81, 60
1, 149958, Note_off_c, 0, 67, 49
1, 150012, Note_on_c, 0, 69, 64
1, 150085, Note_off_c, 0, 69, 52
1, 150097, Control_c, 0, 64, 123
1, 150112, Control_c, 0, 64, 116
1, 150126, Control_c, 0, 64, 111
1, 150141, Control_c, 0, 64, 106
1, 150156, Control_c, 0, 64, 102
1, 150170, Note_on_c, 0, 73, 63
1, 150171, Control_c, 0, 64, 98
1, 150173, Note_on_c, 0, 64, 62
1, 150186, Control_c, 0, 64, 94
1, 150200, Control_c, 0, 64, 92
1, 150215, Control_c, 0, 64, 90
1, 150231, Control_c, 0, 64, 89
1, 150246, Control_c, 0, 64, 87
1, 150261, Control_c, 0, 64, 86
1, 150275, Note_off_c, 0, 64, 36
1, 150276, Control_c, 0, 64, 85
1, 150291, Control_c, 0, 64, 83
1, 150305, Control_c, 0, 64, 81
1, 150319, Note_off_c, 0, 73, 54
1, 150320, Control_c, 0, 64, 78
1, 150335, Control_c, 0, 64, 75
1, 150342, Note_on_c, 0, 66, 68
1, 150349, Control_c, 0, 64, 70
1, 150353, Note_on_c, 0, 74, 63
1, 150364, Control_c, 0, 64, 65
1, 150370, Note_off_c, 0, 66, 66
1, 150379, Control_c, 0, 64, 58
1, 150394, Control_c, 0, 64, 47
1, 150409, Control_c, 0, 64, 41
1, 150422, Control_c, 0, 64, 39
1, 150435, Note_off_c, 0, 74, 62
1, 150437, Control_c, 0, 64, 38
1, 150514, Note_on_c, 0, 62, 59
1, 150525, Note_on_c, 0, 54, 39
1, 150526, Control_c, 0, 64, 37
1, 150555, Control_c, 0, 64, 37
1, 150556, Note_off_c, 0, 54, 53
1, 150610, Note_off_c, 0, 62, 61
1, 150688, Control_c, 0, 64, 35
1, 150703, Control_c, 0, 64, 29
1, 150706, Note_on_c, 0, 61, 54
1, 150718, Control_c, 0, 64, 0
1, 150743, Note_on_c, 0, 52, 44
1, 150859, Control_c, 0, 64, 31
1, 150873, Control_c, 0, 64, 59
1, 150888, Control_c, 0, 64, 67
1, 150891, Note_on_c, 0, 81, 48
1, 150903, Control_c, 0, 64, 75
1, 150918, Control_c, 0, 64, 85
1, 150927, Note_off_c, 0, 61, 0
1, 150933, Control_c, 0, 64, 91
1, 150948, Control_c, 0, 64, 92
1, 150964, Poly_aftertouch_c, 0, 61, 127
1, 151022, Poly_aftertouch_c, 0, 61, 0
1, 151023, Note_off_c, 0, 81, 39
1, 151052, Control_c, 0, 64, 91
1, 151079, Note_on_c, 0, 69, 52
1, 151082, Control_c, 0, 64, 90
1, 151097, Control_c, 0, 64, 90
1, 151112, Control_c, 0, 64, 89
1, 151115, Note_off_c, 0, 52, 30
1, 151127, Control_c, 0, 64, 89
1, 151142, Control_c, 0, 64, 88
1, 151156, Control_c, 0, 64, 88
1, 151171, Control_c, 0, 64, 87
1, 151186, Control_c, 0, 64, 86
1, 151186, Note_off_c, 0, 69, 36
1, 151201, Control_c, 0, 64, 85
1, 151216, Control_c, 0, 64, 84
1, 151231, Control_c, 0, 64, 83
1, 151245, Control_c, 0, 64, 82
1, 151248, Note_on_c, 0, 64, 50
1, 151252, Note_on_c, 0, 73, 52
1, 151260, Control_c, 0, 64, 81
1, 151270, Note_on_c, 0, 55, 45
1, 151275, Control_c, 0, 64, 81
1, 151289, Control_c, 0, 64, 80
1, 151304, Control_c, 0, 64, 79
1, 151319, Control_c, 0, 64, 77
1, 151334, Control_c, 0, 64, 75
1, 151349, Control_c, 0, 64, 73
1, 151363, Control_c, 0, 64, 72
1, 151378, Control_c, 0, 64, 69
1, 151383, Note_off_c, 0, 64, 55
1, 151393, Control_c, 0, 64, 67
1, 151408, Control_c, 0, 64, 63
1, 151423, Control_c, 0, 64, 59
1, 151431, Note_off_c, 0, 55, 35
1, 151437, Control_c, 0, 64, 54
1, 151452, Control_c, 0, 64, 53
1, 151467, Control_c, 0, 64, 53
1, 151489, Control_c, 0, 64, 52
1, 151504, Control_c, 0, 64, 50
1, 151519, Control_c, 0, 64, 48
1, 151534, Control_c, 0, 64, 46
1, 151549, Control_c, 0, 64, 44
1, 151564, Control_c, 0, 64, 42
1, 151578, Control_c, 0, 64, 40
1, 151581, Note_off_c, 0, 73, 27
1, 151593, Control_c, 0, 64, 38
1, 151608, Control_c, 0, 64, 35
1, 151615, Note_on_c, 0, 54, 33
1, 151621, Note_on_c, 0, 62, 32
1, 151623, Control_c, 0, 64, 24
1, 151626, Note_on_c, 0, 74, 37
1, 151637, Control_c, 0, 64, 0
1, 151785, Control_c, 0, 64, 42
1, 151800, Control_c, 0, 64, 61
1, 151816, Control_c, 0, 64, 70
1, 151831, Control_c, 0, 64, 80
1, 151837, Note_off_c, 0, 74, 44
1, 151846, Control_c, 0, 64, 88
1, 151861, Control_c, 0, 64, 92
1, 151875, Control_c, 0, 64, 93
1, 151890, Control_c, 0, 64, 94
1, 152001, Note_off_c, 0, 62, 38
1, 152015, Note_off_c, 0, 54, 44
1, 152083, Control_c, 0, 64, 92
1, 152098, Control_c, 0, 64, 91
1, 152112, Control_c, 0, 64, 91
1, 152127, Control_c, 0, 64, 90
1, 152172, Control_c, 0, 64, 79
1, 152186, Control_c, 0, 64, 47
1, 152201, Control_c, 0, 64, 0
1, 152205, Note_on_c, 0, 62, 63
1, 152211, Note_on_c, 0, 59, 64
1, 152214, Note_on_c, 0, 83, 85
1, 152215, Note_on_c, 0, 55, 62
1, 152253, Control_c, 0, 64, 44
1, 152262, Note_off_c, 0, 59, 64
1, 152268, Control_c, 0, 64, 69
1, 152269, Note_off_c, 0, 55, 63
1, 152271, Note_off_c, 0, 62, 62
1, 152281, Note_off_c, 0, 83, 63
1, 152283, Control_c, 0, 64, 92
1, 152296, Note_on_c, 0, 86, 82
1, 152298, Control_c, 0, 64, 127
1, 152361, Note_on_c, 0, 83, 82
1, 152386, Note_off_c, 0, 86, 59
1, 152430, Note_off_c, 0, 83, 61
1, 152438, Note_on_c, 0, 79, 72
1, 152462, Note_off_c, 0, 79, 67
1, 152519, Control_c, 0, 64, 113
1, 152523, Note_on_c, 0, 79, 86
1, 152534, Control_c, 0, 64, 91
1, 152549, Control_c, 0, 64, 76
1, 152564, Control_c, 0, 64, 65
1, 152579, Control_c, 0, 64, 57
1, 152581, Note_off_c, 0, 79, 62
1, 152593, Control_c, 0, 64, 58
1, 152596, Note_on_c, 0, 83, 81
1, 152609, Control_c, 0, 64, 59
1, 152624, Control_c, 0, 64, 58
1, 152639, Control_c, 0, 64, 57
1, 152654, Control_c, 0, 64, 56
1, 152661, Note_off_c, 0, 83, 63
1, 152668, Note_on_c, 0, 79, 73
1, 152669, Control_c, 0, 64, 54
1, 152684, Control_c, 0, 64, 56
1, 152698, Control_c, 0, 64, 57
1, 152713, Control_c, 0, 64, 49
1, 152724, Note_off_c, 0, 79, 60
1, 152728, Control_c, 0, 64, 0
1, 152736, Note_on_c, 0, 74, 65
1, 152760, Note_off_c, 0, 74, 67
1, 152808, Note_on_c, 0, 74, 87
1, 152817, Control_c, 0, 64, 61
1, 152832, Control_c, 0, 64, 73
1, 152847, Control_c, 0, 64, 87
1, 152861, Control_c, 0, 64, 96
1, 152873, Note_off_c, 0, 74, 63
1, 152889, Note_on_c, 0, 79, 71
1, 152944, Note_off_c, 0, 79, 62
1, 152952, Note_on_c, 0, 74, 74
1, 153019, Note_off_c, 0, 74, 64
1, 153028, Note_on_c, 0, 71, 74
1, 153031, Control_c, 0, 64, 98
1, 153046, Control_c, 0, 64, 99
1, 153052, Note_off_c, 0, 71, 69
1, 153061, Control_c, 0, 64, 98
1, 153076, Control_c, 0, 64, 84
1, 153091, Control_c, 0, 64, 62
1, 153106, Control_c, 0, 64, 0
1, 153115, Note_on_c, 0, 65, 83
1, 153121, Note_on_c, 0, 56, 78
1, 153123, Note_on_c, 0, 62, 72
1, 153124, Note_on_c, 0, 59, 72
1, 153151, Note_on_c, 0, 83, 91
1, 153165, Control_c, 0, 64, 49
1, 153180, Control_c, 0, 64, 66
1, 153195, Control_c, 0, 64, 78
1, 153206, Note_off_c, 0, 83, 58
1, 153210, Control_c, 0, 64, 92
1, 153221, Note_on_c, 0, 86, 81
1, 153224, Control_c, 0, 64, 96
1, 153239, Control_c, 0, 64, 96
1, 153281, Note_on_c, 0, 83, 76
1, 153292, Note_off_c, 0, 86, 62
1, 153300, Note_off_c, 0, 56, 62
1, 153302, Note_off_c, 0, 59, 58
1, 153309, Note_off_c, 0, 62, 59
1, 153330, Note_off_c, 0, 65, 63
1, 153353, Note_on_c, 0, 80, 79
1, 153355, Note_off_c, 0, 83, 60
1, 153357, Control_c, 0, 64, 94
1, 153372, Control_c, 0, 64, 94
1, 153377, Note_off_c, 0, 80, 68
1, 153387, Control_c, 0, 64, 93
1, 153433, Control_c, 0, 64, 91
1, 153448, Control_c, 0, 64, 77
1, 153453, Note_on_c, 0, 80, 91
1, 153463, Control_c, 0, 64, 58
1, 153478, Control_c, 0, 64, 0
1, 153507, Note_off_c, 0, 80, 62
1, 153520, Note_on_c, 0, 83, 76
1, 153537, Control_c, 0, 64, 50
1, 153552, Control_c, 0, 64, 62
1, 153566, Control_c, 0, 64, 65
1, 153580, Note_off_c, 0, 83, 63
1, 153581, Control_c, 0, 64, 66
1, 153587, Note_on_c, 0, 80, 73
1, 153611, Control_c, 0, 64, 66
1, 153626, Control_c, 0, 64, 68
1, 153639, Note_off_c, 0, 80, 63
1, 153640, Control_c, 0, 64, 71
1, 153652, Note_on_c, 0, 77, 75
1, 153655, Control_c, 0, 64, 74
1, 153670, Control_c, 0, 64, 72
1, 153676, Note_off_c, 0, 77, 70
1, 153684, Control_c, 0, 64, 63
1, 153699, Control_c, 0, 64, 0
1, 153744, Note_on_c, 0, 77, 79
1, 153766, Control_c, 0, 64, 39
1, 153781, Control_c, 0, 64, 64
1, 153791, Note_off_c, 0, 77, 63
1, 153796, Control_c, 0, 64, 75
1, 153808, Note_on_c, 0, 80, 79
1, 153811, Control_c, 0, 64, 87
1, 153826, Control_c, 0, 64, 91
1, 153836, Note_off_c, 0, 80, 66
1, 153874, Note_on_c, 0, 77, 78
1, 153913, Note_off_c, 0, 77, 57
1, 153946, Note_on_c, 0, 74, 70
1, 153973, Control_c, 0, 64, 91
1, 153975, Note_off_c, 0, 74, 65
1, 153988, Control_c, 0, 64, 80
1, 154003, Control_c, 0, 64, 56
1, 154018, Control_c, 0, 64, 0
1, 154033, Note_on_c, 0, 57, 49
1, 154050, Note_on_c, 0, 69, 52
1, 154062, Note_on_c, 0, 71, 49
1, 154063, Control_c, 0, 64, 15
1, 154073, Note_off_c, 0, 69, 61
1, 154078, Control_c, 0, 64, 56
1, 154087, Note_off_c, 0, 71, 60
1, 154092, Control_c, 0, 64, 68
1, 154107, Control_c, 0, 64, 80
1, 154122, Control_c, 0, 64, 86
1, 154146, Note_on_c, 0, 66, 45
1, 154152, Control_c, 0, 64, 85
1, 154165, Control_c, 0, 64, 84
1, 154180, Control_c, 0, 64, 84
1, 154185, Note_off_c, 0, 66, 63
1, 154206, Note_on_c, 0, 62, 59
1, 154210, Control_c, 0, 64, 83
1, 154222, Note_off_c, 0, 57, 35
1, 154241, Control_c, 0, 64, 83
1, 154245, Note_off_c, 0, 62, 60
1, 154255, Control_c, 0, 64, 82
1, 154273, Note_on_c, 0, 66, 68
1, 154302, Note_off_c, 0, 66, 61
1, 154314, Control_c, 0, 64, 82
1, 154329, Control_c, 0, 64, 79
1, 154344, Note_on_c, 0, 78, 68
1, 154344, Control_c, 0, 64, 73
1, 154359, Control_c, 0, 64, 64
1, 154372, Note_on_c, 0, 57, 58
1, 154374, Note_off_c, 0, 78, 66
1, 154374, Control_c, 0, 64, 53
1, 154388, Control_c, 0, 64, 47
1, 154396, Note_on_c, 0, 76, 74
1, 154403, Note_off_c, 0, 57, 65
1, 154403, Control_c, 0, 64, 51
1, 154418, Control_c, 0, 64, 51
1, 154424, Note_off_c, 0, 76, 64
1, 154433, Control_c, 0, 64, 51
1, 154455, Note_on_c, 0, 67, 57
1, 154455, Note_on_c, 0, 78, 73
1, 154493, Note_off_c, 0, 78, 63
1, 154497, Note_off_c, 0, 67, 65
1, 154514, Note_on_c, 0, 76, 64
1, 154515, Control_c, 0, 64, 51
1, 154529, Control_c, 0, 64, 52
1, 154537, Note_off_c, 0, 76, 65
1, 154544, Control_c, 0, 64, 53
1, 154545, Note_on_c, 0, 64, 39
1, 154559, Control_c, 0, 64, 55
1, 154567, Note_on_c, 0, 78, 71
1, 154574, Control_c, 0, 64, 56
1, 154575, Note_off_c, 0, 64, 53
1, 154588, Control_c, 0, 64, 57
1, 154599, Note_on_c, 0, 67, 44
1, 154599, Note_off_c, 0, 78, 64
1, 154603, Control_c, 0, 64, 58
1, 154614, Note_on_c, 0, 76, 70
1, 154618, Control_c, 0, 64, 54
1, 154627, Note_off_c, 0, 67, 57
1, 154633, Control_c, 0, 64, 27
1, 154641, Note_off_c, 0, 76, 63
1, 154648, Control_c, 0, 64, 0
1, 154669, Note_on_c, 0, 78, 71
1, 154677, Note_on_c, 0, 57, 50
1, 154695, Note_off_c, 0, 78, 69
1, 154707, Note_on_c, 0, 76, 75
1, 154707, Note_off_c, 0, 57, 62
1, 154722, Control_c, 0, 64, 49
1, 154737, Control_c, 0, 64, 63
1, 154747, Note_off_c, 0, 76, 57
1, 154751, Note_on_c, 0, 67, 33
1, 154751, Control_c, 0, 64, 68
1, 154766, Note_on_c, 0, 78, 73
1, 154766, Control_c, 0, 64, 70
1, 154786, Note_off_c, 0, 67, 55
1, 154796, Control_c, 0, 64, 69
1, 154797, Note_off_c, 0, 78, 65
1, 154811, Control_c, 0, 64, 69
1, 154813, Note_on_c, 0, 64, 51
1, 154816, Note_on_c, 0, 76, 60
1, 154826, Control_c, 0, 64, 68
1, 154844, Note_off_c, 0, 76, 64
1, 154847, Note_off_c, 0, 64, 65
1, 154859, Note_on_c, 0, 74, 63
1, 154873, Note_on_c, 0, 67, 62
1, 154884, Note_off_c, 0, 74, 66
1, 154909, Note_off_c, 0, 67, 65
1, 154915, Note_on_c, 0, 76, 68
1, 154959, Control_c, 0, 64, 68
1, 154974, Control_c, 0, 64, 64
1, 154988, Control_c, 0, 64, 41
1, 154993, Note_off_c, 0, 76, 39
1, 155004, Control_c, 0, 64, 0
1, 155029, Note_on_c, 0, 54, 51
1, 155045, Note_on_c, 0, 74, 63
1, 155064, Control_c, 0, 64, 9
1, 155079, Control_c, 0, 64, 55
1, 155093, Control_c, 0, 64, 65
1, 155108, Control_c, 0, 64, 70
1, 155123, Control_c, 0, 64, 74
1, 155132, Note_off_c, 0, 54, 50
1, 155137, Note_on_c, 0, 62, 42
1, 155137, Control_c, 0, 64, 74
1, 155186, Note_off_c, 0, 74, 36
1, 155187, Note_off_c, 0, 62, 60
1, 155206, Note_on_c, 0, 61, 54
1, 155249, Control_c, 0, 64, 74
1, 155255, Note_off_c, 0, 61, 62
1, 155303, Note_on_c, 0, 62, 45
1, 155308, Control_c, 0, 64, 72
1, 155323, Control_c, 0, 64, 66
1, 155330, Note_off_c, 0, 62, 58
1, 155337, Control_c, 0, 64, 42
1, 155352, Control_c, 0, 64, 0
1, 155355, Note_on_c, 0, 86, 65
1, 155360, Note_on_c, 0, 54, 60
1, 155399, Note_off_c, 0, 54, 60
1, 155411, Control_c, 0, 64, 32
1, 155414, Note_off_c, 0, 86, 56
1, 155426, Control_c, 0, 64, 43
1, 155428, Note_on_c, 0, 85, 71
1, 155436, Note_on_c, 0, 62, 48
1, 155441, Control_c, 0, 64, 40
1, 155455, Note_off_c, 0, 85, 66
1, 155456, Control_c, 0, 64, 38
1, 155470, Control_c, 0, 64, 38
1, 155479, Note_off_c, 0, 62, 61
1, 155485, Control_c, 0, 64, 38
1, 155500, Control_c, 0, 64, 41
1, 155512, Note_on_c, 0, 83, 65
1, 155515, Control_c, 0, 64, 44
1, 155530, Control_c, 0, 64, 47
1, 155536, Note_on_c, 0, 61, 41
1, 155544, Control_c, 0, 64, 49
1, 155554, Note_off_c, 0, 83, 58
1, 155559, Control_c, 0, 64, 50
1, 155566, Note_off_c, 0, 61, 57
1, 155574, Control_c, 0, 64, 39
1, 155581, Note_on_c, 0, 81, 60
1, 155589, Control_c, 0, 64, 0
1, 155590, Note_on_c, 0, 62, 46
1, 155615, Note_off_c, 0, 81, 65
1, 155629, Note_off_c, 0, 62, 60
1, 155652, Note_on_c, 0, 79, 53
1, 155661, Note_on_c, 0, 54, 49
1, 155678, Control_c, 0, 64, 49
1, 155687, Note_off_c, 0, 79, 60
1, 155693, Control_c, 0, 64, 59
1, 155699, Note_off_c, 0, 54, 62
1, 155723, Control_c, 0, 64, 56
1, 155729, Note_on_c, 0, 62, 50
1, 155734, Note_on_c, 0, 78, 53
1, 155737, Control_c, 0, 64, 53
1, 155752, Control_c, 0, 64, 51
1, 155767, Note_off_c, 0, 78, 66
1, 155767, Control_c, 0, 64, 52
1, 155768, Note_off_c, 0, 62, 64
1, 155782, Control_c, 0, 64, 54
1, 155797, Control_c, 0, 64, 56
1, 155807, Note_on_c, 0, 76, 62
1, 155807, Note_on_c, 0, 61, 47
1, 155813, Control_c, 0, 64, 57
1, 155836, Note_off_c, 0, 76, 63
1, 155846, Note_off_c, 0, 61, 62
1, 155857, Control_c, 0, 64, 56
1, 155872, Control_c, 0, 64, 53
1, 155873, Note_on_c, 0, 62, 47
1, 155877, Note_on_c, 0, 74, 53
1, 155886, Control_c, 0, 64, 22
1, 155901, Control_c, 0, 64, 0
1, 155916, Note_off_c, 0, 74, 64
1, 155917, Note_off_c, 0, 62, 61
1, 155956, Note_on_c, 0, 55, 47
1, 155962, Note_on_c, 0, 83, 61
1, 155997, Control_c, 0, 64, 50
1, 156012, Control_c, 0, 64, 59
1, 156027, Control_c, 0, 64, 60
1, 156039, Note_off_c, 0, 55, 50
1, 156042, Control_c, 0, 64, 59
1, 156057, Control_c, 0, 64, 59
1, 156066, Note_on_c, 0, 62, 32
1, 156109, Note_off_c, 0, 62, 51
1, 156126, Note_off_c, 0, 83, 32
1, 156143, Note_on_c, 0, 61, 42
1, 156182, Note_off_c, 0, 61, 61
1, 156190, Control_c, 0, 64, 60
1, 156198, Note_on_c, 0, 62, 56
1, 156205, Control_c, 0, 64, 61
1, 156220, Control_c, 0, 64, 62
1, 156232, Note_off_c, 0, 62, 62
1, 156234, Control_c, 0, 64, 61
1, 156249, Control_c, 0, 64, 46
1, 156264, Control_c, 0, 64, 0
1, 156277, Note_on_c, 0, 55, 56
1, 156281, Note_on_c, 0, 81, 68
1, 156316, Note_off_c, 0, 55, 61
1, 156329, Note_off_c, 0, 81, 63
1, 156338, Control_c, 0, 64, 32
1, 156345, Note_on_c, 0, 79, 64
1, 156353, Control_c, 0, 64, 54
1, 156362, Note_on_c, 0, 64, 57
1, 156367, Control_c, 0, 64, 57
1, 156382, Control_c, 0, 64, 56
1, 156397, Control_c, 0, 64, 54
1, 156405, Note_off_c, 0, 64, 58
1, 156413, Control_c, 0, 64, 53
1, 156442, Control_c, 0, 64, 54
1, 156454, Note_on_c, 0, 63, 48
1, 156455, Note_off_c, 0, 79, 58
1, 156457, Control_c, 0, 64, 54
1, 156472, Control_c, 0, 64, 55
1, 156486, Control_c, 0, 64, 55
1, 156490, Note_off_c, 0, 63, 65
1, 156501, Control_c, 0, 64, 56
1, 156514, Note_on_c, 0, 64, 55
1, 156516, Control_c, 0, 64, 57
1, 156531, Control_c, 0, 64, 58
1, 156557, Note_off_c, 0, 64, 60
1, 156561, Control_c, 0, 64, 50
1, 156576, Control_c, 0, 64, 0
1, 156585, Note_on_c, 0, 78, 72
1, 156594, Note_on_c, 0, 55, 56
1, 156637, Note_on_c, 0, 76, 79
1, 156638, Note_off_c, 0, 55, 62
1, 156641, Note_off_c, 0, 78, 62
1, 156651, Control_c, 0, 64, 45
1, 156665, Control_c, 0, 64, 62
1, 156677, Note_on_c, 0, 64, 53
1, 156680, Control_c, 0, 64, 65
1, 156695, Control_c, 0, 64, 64
1, 156710, Control_c, 0, 64, 62
1, 156724, Note_off_c, 0, 64, 61
1, 156725, Control_c, 0, 64, 60
1, 156747, Control_c, 0, 64, 60
1, 156762, Control_c, 0, 64, 61
1, 156770, Note_on_c, 0, 63, 59
1, 156777, Control_c, 0, 64, 61
1, 156791, Control_c, 0, 64, 62
1, 156807, Note_off_c, 0, 63, 64
1, 156837, Note_on_c, 0, 64, 53
1, 156851, Control_c, 0, 64, 60
1, 156865, Control_c, 0, 64, 35
1, 156872, Note_off_c, 0, 64, 59
1, 156874, Note_off_c, 0, 76, 55
1, 156880, Control_c, 0, 64, 0
1, 156936, Note_on_c, 0, 57, 56
1, 156943, Note_on_c, 0, 69, 70
1, 156969, Control_c, 0, 64, 39
1, 156984, Control_c, 0, 64, 58
1, 156999, Control_c, 0, 64, 64
1, 157008, Note_off_c, 0, 69, 61
1, 157014, Control_c, 0, 64, 66
1, 157029, Control_c, 0, 64, 67
1, 157043, Control_c, 0, 64, 67
1, 157044, Note_on_c, 0, 66, 56
1, 157080, Note_off_c, 0, 57, 58
1, 157084, Note_off_c, 0, 66, 64
1, 157112, Note_on_c, 0, 62, 56
1, 157132, Control_c, 0, 64, 66
1, 157154, Note_off_c, 0, 62, 62
1, 157162, Control_c, 0, 64, 66
1, 157192, Note_on_c, 0, 66, 63
1, 157218, Note_off_c, 0, 66, 68
1, 157250, Control_c, 0, 64, 65
1, 157265, Control_c, 0, 64, 63
1, 157266, Note_on_c, 0, 78, 64
1, 157278, Note_on_c, 0, 57, 62
1, 157280, Control_c, 0, 64, 54
1, 157295, Control_c, 0, 64, 34
1, 157296, Note_off_c, 0, 78, 67
1, 157309, Note_off_c, 0, 57, 65
1, 157309, Control_c, 0, 64, 19
1, 157312, Note_on_c, 0, 76, 72
1, 157324, Control_c, 0, 64, 33
1, 157339, Control_c, 0, 64, 42
1, 157342, Note_off_c, 0, 76, 65
1, 157354, Control_c, 0, 64, 47
1, 157357, Note_on_c, 0, 67, 56
1, 157369, Control_c, 0, 64, 51
1, 157377, Note_on_c, 0, 78, 74
1, 157384, Control_c, 0, 64, 52
1, 157395, Note_off_c, 0, 67, 63
1, 157409, Note_off_c, 0, 78, 64
1, 157414, Control_c, 0, 64, 53
1, 157420, Note_on_c, 0, 76, 74
1, 157429, Control_c, 0, 64, 56
1, 157435, Note_on_c, 0, 64, 43
1, 157444, Control_c, 0, 64, 59
1, 157451, Note_off_c, 0, 76, 63
1, 157459, Control_c, 0, 64, 61
1, 157464, Note_off_c, 0, 64, 59
1, 157474, Control_c, 0, 64, 58
1, 157491, Note_on_c, 0, 78, 70
1, 157496, Control_c, 0, 64, 42
1, 157500, Note_on_c, 0, 67, 56
1, 157511, Control_c, 0, 64, 0
1, 157521, Note_off_c, 0, 78, 66
1, 157545, Note_on_c, 0, 76, 70
1, 157547, Note_off_c, 0, 67, 61
1, 157563, Note_off_c, 0, 76, 67
1, 157585, Control_c, 0, 64, 27
1, 157589, Note_on_c, 0, 57, 57
1, 157591, Note_on_c, 0, 78, 75
1, 157600, Control_c, 0, 64, 58
1, 157614, Control_c, 0, 64, 66
1, 157619, Note_off_c, 0, 78, 66
1, 157629, Control_c, 0, 64, 69
1, 157630, Note_on_c, 0, 76, 78
1, 157630, Note_off_c, 0, 57, 63
1, 157644, Control_c, 0, 64, 68
1, 157658, Control_c, 0, 64, 65
1, 157667, Note_off_c, 0, 76, 58
1, 157673, Note_on_c, 0, 67, 55
1, 157673, Control_c, 0, 64, 60
1, 157685, Note_on_c, 0, 78, 75
1, 157688, Control_c, 0, 64, 53
1, 157703, Control_c, 0, 64, 52
1, 157709, Note_off_c, 0, 67, 64
1, 157718, Control_c, 0, 64, 54
1, 157729, Note_off_c, 0, 78, 63
1, 157732, Control_c, 0, 64, 55
1, 157739, Note_on_c, 0, 64, 49
1, 157744, Note_on_c, 0, 76, 68
1, 157762, Control_c, 0, 64, 51
1, 157765, Note_off_c, 0, 76, 65
1, 157771, Note_off_c, 0, 64, 56
1, 157777, Control_c, 0, 64, 31
1, 157789, Note_on_c, 0, 74, 67
1, 157792, Control_c, 0, 64, 0
1, 157795, Note_on_c, 0, 67, 62
1, 157819, Note_off_c, 0, 74, 62
1, 157829, Note_off_c, 0, 67, 63
1, 157838, Note_on_c, 0, 76, 74
1, 157888, Note_off_c, 0, 76, 63
1, 157909, Note_on_c, 0, 66, 70
1, 157929, Note_on_c, 0, 62, 57
1, 157929, Note_on_c, 0, 74, 77
1, 157939, Control_c, 0, 64, 36
1, 157951, Note_off_c, 0, 66, 63
1, 157954, Control_c, 0, 64, 66
1, 157964, Note_off_c, 0, 74, 62
1, 157967, Note_off_c, 0, 62, 64
1, 157969, Control_c, 0, 64, 76
1, 157984, Control_c, 0, 64, 86
1, 157999, Control_c, 0, 64, 96
1, 158010, Note_on_c, 0, 81, 73
1, 158013, Control_c, 0, 64, 101
1, 158028, Control_c, 0, 64, 105
1, 158043, Control_c, 0, 64, 106
1, 158075, Note_on_c, 0, 78, 76
1, 158078, Note_off_c, 0, 81, 60
1, 158096, Note_off_c, 0, 78, 71
1, 158135, Note_on_c, 0, 74, 73
1, 158190, Note_off_c, 0, 74, 59
1, 158230, Note_on_c, 0, 69, 76
1, 158244, Control_c, 0, 64, 103
1, 158258, Note_off_c, 0, 69, 69
1, 158259, Control_c, 0, 64, 85
1, 158274, Control_c, 0, 64, 63
1, 158288, Control_c, 0, 64, 0
1, 158394, Note_on_c, 0, 66, 80
1, 158404, Note_on_c, 0, 62, 66
1, 158439, Note_off_c, 0, 62, 62
1, 158439, Note_off_c, 0, 66, 60
1, 158552, Note_on_c, 0, 64, 78
1, 158563, Note_on_c, 0, 61, 57
1, 158585, Note_off_c, 0, 64, 63
1, 158603, Note_off_c, 0, 61, 59
1, 158704, Note_on_c, 0, 67, 75
1, 158706, Note_on_c, 0, 57, 54
1, 158745, Note_off_c, 0, 57, 64
1, 158746, Note_off_c, 0, 67, 62
1, 158868, Note_on_c, 0, 66, 67
1, 158871, Note_on_c, 0, 62, 60
1, 158880, Control_c, 0, 64, 61
1, 158895, Control_c, 0, 64, 74
1, 158896, Note_off_c, 0, 66, 68
1, 158905, Note_off_c, 0, 62, 64
1, 158910, Control_c, 0, 64, 91
1, 158925, Control_c, 0, 64, 104
1, 158940, Control_c, 0, 64, 109
1, 158952, Note_on_c, 0, 69, 76
1, 159015, Note_off_c, 0, 69, 49
1, 159041, Note_on_c, 0, 74, 76
1, 159104, Note_off_c, 0, 74, 63
1, 159108, Note_on_c, 0, 78, 77
1, 159179, Note_off_c, 0, 78, 60
1, 159187, Note_on_c, 0, 81, 77
1, 159229, Note_off_c, 0, 81, 66
1, 159245, Control_c, 0, 64, 108
1, 159259, Control_c, 0, 64, 104
1, 159274, Control_c, 0, 64, 99
1, 159289, Control_c, 0, 64, 95
1, 159303, Control_c, 0, 64, 91
1, 159318, Control_c, 0, 64, 82
1, 159333, Control_c, 0, 64, 65
1, 159348, Control_c, 0, 64, 0
1, 159390, Note_on_c, 0, 66, 74
1, 159397, Note_on_c, 0, 62, 65
1, 159429, Note_off_c, 0, 66, 58
1, 159431, Note_off_c, 0, 62, 64
1, 159584, Note_on_c, 0, 67, 64
1, 159598, Note_on_c, 0, 64, 51
1, 159620, Note_off_c, 0, 67, 62
1, 159640, Note_off_c, 0, 64, 61
1, 159813, Note_on_c, 0, 73, 60
1, 159819, Note_on_c, 0, 57, 55
1, 159827, Note_on_c, 0, 67, 57
1, 159841, Note_on_c, 0, 64, 35
1, 159859, Note_off_c, 0, 67, 64
1, 159861, Note_off_c, 0, 57, 66
1, 159873, Note_off_c, 0, 64, 58
1, 159885, Note_off_c, 0, 73, 54
1, 160201, Control_c, 0, 64, 42
1, 160202, Note_on_c, 0, 74, 36
1, 160204, Note_on_c, 0, 50, 42
1, 160212, Note_on_c, 0, 62, 27
1, 160216, Control_c, 0, 64, 56
1, 160223, Note_on_c, 0, 66, 39
1, 160231, Control_c, 0, 64, 61
1, 160246, Control_c, 0, 64, 64
1, 160260, Control_c, 0, 64, 68
1, 160275, Note_off_c, 0, 66, 59
1, 160275, Control_c, 0, 64, 74
1, 160281, Note_off_c, 0, 62, 44
1, 160284, Note_off_c, 0, 50, 59
1, 160290, Control_c, 0, 64, 78
1, 160305, Control_c, 0, 64, 80
1, 160320, Control_c, 0, 64, 82
1, 160335, Control_c, 0, 64, 84
1, 160350, Control_c, 0, 64, 85
1, 160365, Control_c, 0, 64, 85
1, 160408, Note_off_c, 0, 74, 44
1, 160564, Control_c, 0, 64, 85
1, 160579, Control_c, 0, 64, 84
1, 160594, Control_c, 0, 64, 84
1, 160610, Control_c, 0, 64, 83
1, 160625, Control_c, 0, 64, 82
1, 160639, Control_c, 0, 64, 81
1, 160654, Control_c, 0, 64, 80
1, 160669, Control_c, 0, 64, 78
1, 160683, Control_c, 0, 64, 77
1, 160698, Control_c, 0, 64, 75
1, 160713, Control_c, 0, 64, 73
1, 160728, Control_c, 0, 64, 70
1, 160743, Control_c, 0, 64, 68
1, 160758, Control_c, 0, 64, 65
1, 160773, Control_c, 0, 64, 64
1, 160788, Control_c, 0, 64, 63
1, 160803, Control_c, 0, 64, 62
1, 160818, Control_c, 0, 64, 61
1, 160847, Control_c, 0, 64, 60
1, 160876, Control_c, 0, 64, 60
1, 160891, Control_c, 0, 64, 59
1, 161024, Control_c, 0, 64, 59
1, 161113, Control_c, 0, 64, 58
1, 161128, Control_c, 0, 64, 56
1, 161143, Control_c, 0, 64, 53
1, 161157, Control_c, 0, 64, 50
1, 161172, Control_c, 0, 64, 49
1, 161202, Control_c, 0, 64, 48
1, 161217, Control_c, 0, 64, 47
1, 161239, Control_c, 0, 64, 45
1, 161269, Control_c, 0, 64, 45
1, 161313, Control_c, 0, 64, 44
1, 161328, Control_c, 0, 64, 43
1, 161343, Control_c, 0, 64, 42
1, 161477, Control_c, 0, 64, 40
1, 161492, Control_c, 0, 64, 36
1, 161506, Control_c, 0, 64, 31
1, 161521, Control_c, 0, 64, 20
1, 161536, Control_c, 0, 64, 0
1, 161611, End_track
0, 0, End_of_file
