0, 0, Header, 0, 1, 384
1, 0, Start_track
1, 0, Title_t, "Sonata #9, Op.68--Sekino        "
1, 0, Text_t, "2009 International Piano-e-Competition finals"
1, 0, Text_t, "captured June-July 2009"
1, 0, Text_t, "http://www.piano-e-competition.com/"
1, 0, Text_t, "standard-resolution version"
1, 0, Text_t, "File processed for distribution by software from Zenph Studios, Inc., http://www.zenph.com"
1, 0, Instrument_name_t, "Yamaha Disklavier Pro Mark IV concert grand piano, model DCFIIISM4PRO"
1, 0, Sequencer_specific, 39, 67, 113, 0, 1, 0, 1, 0, 83, 111, 110, 97, 116, 97, 32, 35, 57, 44, 32, 79, 112, 46, 54, 56, 89, 117, 107, 105, 107, 111, 32, 83, 101, 107, 105, 110, 111, 32, 32, 32
1, 0, Sequencer_specific, 6, 67, 113, 0, 0, 0, 69
1, 0, System_exclusive, 21, 67, 113, 126, 21, 0, 2, 2, 2, 3, 12, 8, 4, 10, 4, 11, 9, 13, 6, 3, 2, 247
1, 0, Sequencer_specific, 5, 67, 123, 12, 2, 1
1, 0, Tempo, 512820
1, 0, Time_signature, 4, 2, 24, 8
1, 0, System_exclusive, 5, 126, 127, 9, 1, 247
1, 1, System_exclusive, 8, 67, 16, 76, 0, 0, 126, 0, 247
1, 2, System_exclusive, 8, 67, 16, 76, 8, 9, 7, 1, 247
1, 3, Control_c, 0, 0, 0
1, 3, Control_c, 1, 0, 0
1, 3, Control_c, 2, 0, 0
1, 3, Control_c, 3, 0, 0
1, 3, Control_c, 4, 0, 0
1, 3, Control_c, 5, 0, 0
1, 3, Control_c, 6, 0, 0
1, 3, Control_c, 7, 0, 0
1, 3, Control_c, 8, 0, 0
1, 3, Control_c, 9, 0, 127
1, 3, Control_c, 10, 0, 0
1, 3, Control_c, 11, 0, 0
1, 3, Control_c, 12, 0, 0
1, 3, Control_c, 13, 0, 0
1, 3, Control_c, 14, 0, 0
1, 3, Control_c, 15, 0, 0
1, 4, Control_c, 0, 32, 0
1, 4, Control_c, 1, 32, 0
1, 4, Control_c, 2, 32, 0
1, 4, Control_c, 3, 32, 0
1, 4, Control_c, 4, 32, 0
1, 4, Control_c, 5, 32, 0
1, 4, Control_c, 6, 32, 0
1, 4, Control_c, 7, 32, 0
1, 4, Control_c, 8, 32, 0
1, 4, Control_c, 9, 32, 0
1, 4, Control_c, 10, 32, 0
1, 4, Control_c, 11, 32, 0
1, 4, Control_c, 12, 32, 0
1, 4, Control_c, 13, 32, 0
1, 4, Control_c, 14, 32, 0
1, 4, Control_c, 15, 32, 0
1, 5, Program_c, 0, 0
1, 5, Program_c, 1, 0
1, 5, Program_c, 2, 0
1, 5, Program_c, 3, 0
1, 5, Program_c, 4, 0
1, 5, Program_c, 5, 0
1, 5, Program_c, 6, 0
1, 5, Program_c, 7, 0
1, 5, Program_c, 8, 0
1, 5, Program_c, 9, 0
1, 5, Program_c, 10, 0
1, 5, Program_c, 11, 0
1, 5, Program_c, 12, 0
1, 5, Program_c, 13, 0
1, 5, Program_c, 14, 0
1, 5, Program_c, 15, 0
1, 6, Control_c, 0, 7, 100
1, 6, Control_c, 1, 7, 100
1, 6, Control_c, 2, 7, 100
1, 6, Control_c, 3, 7, 100
1, 6, Control_c, 4, 7, 100
1, 6, Control_c, 5, 7, 100
1, 6, Control_c, 6, 7, 100
1, 6, Control_c, 7, 7, 100
1, 6, Control_c, 8, 7, 100
1, 6, Control_c, 9, 7, 100
1, 6, Control_c, 10, 7, 100
1, 6, Control_c, 11, 7, 100
1, 6, Control_c, 12, 7, 100
1, 6, Control_c, 13, 7, 100
1, 6, Control_c, 14, 7, 100
1, 6, Control_c, 15, 7, 100
1, 117, Control_c, 0, 64, 15
1, 229, Control_c, 0, 64, 31
1, 341, Control_c, 0, 64, 46
1, 452, Control_c, 0, 64, 63
1, 564, Control_c, 0, 64, 77
1, 676, Control_c, 0, 64, 94
1, 787, Control_c, 0, 64, 108
1, 899, Control_c, 0, 64, 127
1, 1138, Note_on_c, 0, 71, 33
1, 1179, Note_on_c, 0, 67, 13
1, 1414, Note_off_c, 0, 67, 41
1, 1687, Note_off_c, 0, 71, 33
1, 1731, Note_on_c, 0, 70, 36
1, 1754, Note_on_c, 0, 61, 14
1, 1885, Note_off_c, 0, 61, 38
1, 2141, Note_off_c, 0, 70, 35
1, 2237, Note_on_c, 0, 65, 36
1, 2240, Note_on_c, 0, 69, 43
1, 2332, Control_c, 0, 64, 111
1, 2347, Control_c, 0, 64, 89
1, 2361, Control_c, 0, 64, 75
1, 2376, Control_c, 0, 64, 68
1, 2391, Control_c, 0, 64, 68
1, 2406, Control_c, 0, 64, 72
1, 2421, Control_c, 0, 64, 77
1, 2443, Control_c, 0, 64, 86
1, 2458, Control_c, 0, 64, 98
1, 2473, Control_c, 0, 64, 111
1, 2487, Control_c, 0, 64, 122
1, 2491, Note_off_c, 0, 65, 41
1, 2502, Control_c, 0, 64, 121
1, 2517, Control_c, 0, 64, 112
1, 2532, Control_c, 0, 64, 101
1, 2547, Control_c, 0, 64, 91
1, 2563, Control_c, 0, 64, 86
1, 2578, Control_c, 0, 64, 86
1, 2592, Control_c, 0, 64, 88
1, 2607, Control_c, 0, 64, 95
1, 2622, Control_c, 0, 64, 106
1, 2637, Control_c, 0, 64, 127
1, 2803, Note_off_c, 0, 69, 37
1, 2806, Note_on_c, 0, 68, 48
1, 2823, Note_on_c, 0, 59, 34
1, 2917, Note_off_c, 0, 68, 51
1, 2988, Note_off_c, 0, 59, 41
1, 3287, Note_on_c, 0, 65, 46
1, 3321, Note_on_c, 0, 61, 38
1, 3345, Note_on_c, 0, 71, 52
1, 3388, Note_on_c, 0, 67, 32
1, 3401, Control_c, 0, 64, 117
1, 3415, Control_c, 0, 64, 93
1, 3430, Control_c, 0, 64, 73
1, 3445, Control_c, 0, 64, 52
1, 3460, Control_c, 0, 64, 55
1, 3475, Control_c, 0, 64, 65
1, 3489, Control_c, 0, 64, 73
1, 3504, Control_c, 0, 64, 85
1, 3519, Control_c, 0, 64, 106
1, 3534, Control_c, 0, 64, 127
1, 3569, Note_off_c, 0, 65, 58
1, 3571, Note_off_c, 0, 61, 39
1, 3868, Note_on_c, 0, 64, 39
1, 3882, Note_on_c, 0, 55, 31
1, 4098, Note_off_c, 0, 64, 35
1, 4411, Note_on_c, 0, 63, 46
1, 4416, Control_c, 0, 64, 103
1, 4430, Control_c, 0, 64, 87
1, 4436, Note_on_c, 0, 59, 34
1, 4445, Control_c, 0, 64, 76
1, 4460, Control_c, 0, 64, 69
1, 4475, Control_c, 0, 64, 69
1, 4490, Control_c, 0, 64, 72
1, 4505, Control_c, 0, 64, 77
1, 4520, Control_c, 0, 64, 84
1, 4535, Control_c, 0, 64, 94
1, 4538, Note_off_c, 0, 55, 30
1, 4549, Control_c, 0, 64, 104
1, 4564, Control_c, 0, 64, 112
1, 4579, Control_c, 0, 64, 118
1, 4594, Control_c, 0, 64, 127
1, 4698, Note_off_c, 0, 63, 36
1, 4730, Note_off_c, 0, 59, 39
1, 4942, Control_c, 0, 64, 123
1, 4958, Control_c, 0, 64, 108
1, 4973, Control_c, 0, 64, 98
1, 4987, Control_c, 0, 64, 91
1, 5002, Control_c, 0, 64, 90
1, 5011, Note_on_c, 0, 53, 30
1, 5011, Note_on_c, 0, 62, 32
1, 5047, Control_c, 0, 64, 92
1, 5061, Control_c, 0, 64, 95
1, 5076, Control_c, 0, 64, 98
1, 5091, Control_c, 0, 64, 100
1, 5106, Control_c, 0, 64, 102
1, 5121, Control_c, 0, 64, 102
1, 5213, Note_off_c, 0, 53, 45
1, 5253, Control_c, 0, 64, 102
1, 5283, Control_c, 0, 64, 101
1, 5298, Control_c, 0, 64, 100
1, 5313, Control_c, 0, 64, 98
1, 5327, Control_c, 0, 64, 97
1, 5342, Control_c, 0, 64, 95
1, 5357, Control_c, 0, 64, 93
1, 5372, Control_c, 0, 64, 90
1, 5387, Control_c, 0, 64, 88
1, 5402, Control_c, 0, 64, 86
1, 5417, Control_c, 0, 64, 85
1, 5439, Control_c, 0, 64, 84
1, 5453, Control_c, 0, 64, 83
1, 5539, Note_off_c, 0, 62, 35
1, 5557, Control_c, 0, 64, 83
1, 5617, Control_c, 0, 64, 82
1, 5631, Control_c, 0, 64, 81
1, 5646, Control_c, 0, 64, 80
1, 5647, Note_on_c, 0, 65, 29
1, 5661, Control_c, 0, 64, 79
1, 5668, Note_on_c, 0, 61, 19
1, 5676, Control_c, 0, 64, 77
1, 5691, Control_c, 0, 64, 75
1, 5705, Control_c, 0, 64, 73
1, 5720, Control_c, 0, 64, 71
1, 5735, Control_c, 0, 64, 69
1, 5751, Control_c, 0, 64, 67
1, 5766, Control_c, 0, 64, 64
1, 5781, Control_c, 0, 64, 47
1, 5795, Control_c, 0, 64, 0
1, 5870, Control_c, 0, 64, 63
1, 5884, Control_c, 0, 64, 73
1, 5899, Control_c, 0, 64, 83
1, 5914, Control_c, 0, 64, 96
1, 5928, Control_c, 0, 64, 107
1, 5939, Note_off_c, 0, 67, 38
1, 5943, Control_c, 0, 64, 114
1, 5958, Control_c, 0, 64, 118
1, 5972, Note_off_c, 0, 61, 39
1, 5973, Control_c, 0, 64, 123
1, 5986, Note_off_c, 0, 65, 42
1, 5988, Control_c, 0, 64, 127
1, 6252, Note_off_c, 0, 71, 38
1, 6267, Note_on_c, 0, 70, 42
1, 6283, Note_on_c, 0, 61, 30
1, 6606, Note_off_c, 0, 61, 40
1, 6839, Note_on_c, 0, 69, 48
1, 6839, Note_off_c, 0, 70, 35
1, 6884, Control_c, 0, 64, 122
1, 6889, Note_on_c, 0, 65, 34
1, 6898, Control_c, 0, 64, 119
1, 6913, Control_c, 0, 64, 118
1, 6936, Control_c, 0, 64, 117
1, 6950, Control_c, 0, 64, 116
1, 6964, Control_c, 0, 64, 112
1, 6979, Control_c, 0, 64, 101
1, 6994, Control_c, 0, 64, 89
1, 7009, Control_c, 0, 64, 76
1, 7024, Control_c, 0, 64, 65
1, 7038, Control_c, 0, 64, 54
1, 7053, Control_c, 0, 64, 60
1, 7068, Control_c, 0, 64, 65
1, 7083, Control_c, 0, 64, 71
1, 7098, Control_c, 0, 64, 79
1, 7113, Control_c, 0, 64, 89
1, 7128, Control_c, 0, 64, 99
1, 7143, Control_c, 0, 64, 103
1, 7157, Control_c, 0, 64, 104
1, 7193, Note_off_c, 0, 65, 42
1, 7217, Control_c, 0, 64, 105
1, 7451, Note_on_c, 0, 68, 49
1, 7454, Control_c, 0, 64, 104
1, 7460, Note_off_c, 0, 69, 37
1, 7469, Control_c, 0, 64, 99
1, 7480, Note_on_c, 0, 59, 32
1, 7484, Control_c, 0, 64, 90
1, 7499, Control_c, 0, 64, 79
1, 7514, Control_c, 0, 64, 69
1, 7528, Control_c, 0, 64, 64
1, 7543, Control_c, 0, 64, 65
1, 7558, Control_c, 0, 64, 67
1, 7572, Control_c, 0, 64, 71
1, 7587, Control_c, 0, 64, 77
1, 7602, Control_c, 0, 64, 85
1, 7617, Control_c, 0, 64, 92
1, 7632, Control_c, 0, 64, 96
1, 7646, Note_off_c, 0, 68, 37
1, 7647, Control_c, 0, 64, 97
1, 7684, Control_c, 0, 64, 97
1, 7706, Note_off_c, 0, 59, 41
1, 7714, Control_c, 0, 64, 98
1, 7729, Control_c, 0, 64, 99
1, 7744, Control_c, 0, 64, 100
1, 7759, Control_c, 0, 64, 101
1, 7981, Note_on_c, 0, 65, 46
1, 7995, Control_c, 0, 64, 100
1, 8010, Control_c, 0, 64, 99
1, 8025, Control_c, 0, 64, 98
1, 8031, Note_on_c, 0, 61, 30
1, 8035, Note_on_c, 0, 71, 51
1, 8040, Control_c, 0, 64, 97
1, 8055, Control_c, 0, 64, 96
1, 8061, Note_on_c, 0, 67, 37
1, 8070, Control_c, 0, 64, 95
1, 8085, Control_c, 0, 64, 94
1, 8099, Control_c, 0, 64, 93
1, 8114, Control_c, 0, 64, 91
1, 8129, Control_c, 0, 64, 84
1, 8144, Control_c, 0, 64, 71
1, 8159, Control_c, 0, 64, 42
1, 8174, Control_c, 0, 64, 0
1, 8189, Control_c, 0, 64, 29
1, 8204, Control_c, 0, 64, 60
1, 8219, Control_c, 0, 64, 68
1, 8234, Control_c, 0, 64, 77
1, 8249, Control_c, 0, 64, 87
1, 8264, Control_c, 0, 64, 98
1, 8278, Control_c, 0, 64, 104
1, 8291, Note_off_c, 0, 65, 38
1, 8293, Note_off_c, 0, 61, 39
1, 8293, Control_c, 0, 64, 106
1, 8367, Control_c, 0, 64, 106
1, 8382, Control_c, 0, 64, 107
1, 8609, Note_on_c, 0, 55, 31
1, 8612, Note_on_c, 0, 64, 35
1, 8656, Control_c, 0, 64, 106
1, 8670, Control_c, 0, 64, 98
1, 8685, Control_c, 0, 64, 86
1, 8700, Control_c, 0, 64, 74
1, 8715, Control_c, 0, 64, 67
1, 8729, Control_c, 0, 64, 66
1, 8744, Control_c, 0, 64, 68
1, 8759, Control_c, 0, 64, 72
1, 8774, Control_c, 0, 64, 77
1, 8789, Control_c, 0, 64, 87
1, 8803, Control_c, 0, 64, 94
1, 8818, Control_c, 0, 64, 100
1, 8819, Note_off_c, 0, 64, 56
1, 8833, Control_c, 0, 64, 102
1, 8848, Control_c, 0, 64, 102
1, 9186, Note_on_c, 0, 63, 44
1, 9226, Note_on_c, 0, 59, 37
1, 9271, Control_c, 0, 64, 102
1, 9286, Control_c, 0, 64, 100
1, 9301, Control_c, 0, 64, 92
1, 9316, Control_c, 0, 64, 79
1, 9331, Control_c, 0, 64, 64
1, 9345, Control_c, 0, 64, 0
1, 9351, Note_off_c, 0, 55, 19
1, 9375, Control_c, 0, 64, 40
1, 9390, Control_c, 0, 64, 63
1, 9405, Control_c, 0, 64, 71
1, 9419, Control_c, 0, 64, 79
1, 9434, Control_c, 0, 64, 89
1, 9449, Control_c, 0, 64, 97
1, 9464, Control_c, 0, 64, 99
1, 9520, Note_off_c, 0, 63, 34
1, 9538, Control_c, 0, 64, 100
1, 9552, Control_c, 0, 64, 101
1, 9567, Control_c, 0, 64, 102
1, 9582, Control_c, 0, 64, 102
1, 9597, Control_c, 0, 64, 103
1, 9611, Note_off_c, 0, 59, 41
1, 9821, Note_on_c, 0, 53, 31
1, 9821, Note_on_c, 0, 62, 35
1, 9864, Control_c, 0, 64, 102
1, 9879, Control_c, 0, 64, 96
1, 9894, Control_c, 0, 64, 85
1, 9909, Control_c, 0, 64, 71
1, 9931, Control_c, 0, 64, 0
1, 9990, Control_c, 0, 64, 62
1, 10005, Control_c, 0, 64, 71
1, 10020, Control_c, 0, 64, 83
1, 10035, Control_c, 0, 64, 95
1, 10049, Control_c, 0, 64, 100
1, 10064, Control_c, 0, 64, 101
1, 10067, Note_off_c, 0, 53, 42
1, 10124, Control_c, 0, 64, 101
1, 10139, Control_c, 0, 64, 103
1, 10154, Control_c, 0, 64, 105
1, 10168, Control_c, 0, 64, 107
1, 10183, Control_c, 0, 64, 108
1, 10198, Control_c, 0, 64, 108
1, 10287, Control_c, 0, 64, 109
1, 10291, Note_off_c, 0, 62, 38
1, 10405, Control_c, 0, 64, 108
1, 10493, Note_on_c, 0, 65, 35
1, 10523, Control_c, 0, 64, 108
1, 10538, Note_on_c, 0, 61, 18
1, 10539, Control_c, 0, 64, 107
1, 10554, Control_c, 0, 64, 106
1, 10569, Control_c, 0, 64, 105
1, 10584, Control_c, 0, 64, 104
1, 10598, Control_c, 0, 64, 103
1, 10613, Control_c, 0, 64, 103
1, 10628, Control_c, 0, 64, 102
1, 10658, Control_c, 0, 64, 102
1, 10695, Control_c, 0, 64, 101
1, 10710, Control_c, 0, 64, 97
1, 10724, Control_c, 0, 64, 88
1, 10739, Control_c, 0, 64, 75
1, 10754, Control_c, 0, 64, 62
1, 10769, Control_c, 0, 64, 0
1, 10798, Control_c, 0, 64, 43
1, 10813, Control_c, 0, 64, 63
1, 10828, Control_c, 0, 64, 70
1, 10843, Control_c, 0, 64, 79
1, 10858, Control_c, 0, 64, 89
1, 10872, Control_c, 0, 64, 99
1, 10887, Control_c, 0, 64, 102
1, 10902, Control_c, 0, 64, 104
1, 10917, Control_c, 0, 64, 104
1, 10943, Note_off_c, 0, 61, 38
1, 10946, Control_c, 0, 64, 105
1, 10949, Note_off_c, 0, 67, 35
1, 10961, Control_c, 0, 64, 106
1, 10976, Control_c, 0, 64, 109
1, 10978, Note_off_c, 0, 65, 39
1, 10991, Control_c, 0, 64, 111
1, 11006, Control_c, 0, 64, 113
1, 11021, Control_c, 0, 64, 114
1, 11036, Control_c, 0, 64, 115
1, 11065, Control_c, 0, 64, 115
1, 11095, Control_c, 0, 64, 116
1, 11169, Control_c, 0, 64, 117
1, 11198, Control_c, 0, 64, 117
1, 11213, Control_c, 0, 64, 118
1, 11228, Control_c, 0, 64, 121
1, 11243, Control_c, 0, 64, 127
1, 11245, Note_on_c, 0, 70, 33
1, 11265, Note_on_c, 0, 61, 17
1, 11337, Note_off_c, 0, 71, 43
1, 11449, Note_off_c, 0, 61, 41
1, 11516, Note_on_c, 0, 64, 48
1, 11566, Note_off_c, 0, 64, 62
1, 11736, Note_on_c, 0, 65, 58
1, 11826, Note_off_c, 0, 70, 39
1, 11844, Control_c, 0, 64, 120
1, 11857, Note_on_c, 0, 71, 50
1, 11859, Control_c, 0, 64, 84
1, 11873, Control_c, 0, 64, 58
1, 11888, Control_c, 0, 64, 0
1, 11894, Note_on_c, 0, 67, 15
1, 11918, Control_c, 0, 64, 37
1, 11933, Control_c, 0, 64, 66
1, 11947, Control_c, 0, 64, 78
1, 11962, Control_c, 0, 64, 97
1, 11977, Control_c, 0, 64, 127
1, 11979, Note_off_c, 0, 65, 38
1, 12009, Note_on_c, 0, 61, 36
1, 12049, Note_off_c, 0, 61, 60
1, 12144, Note_on_c, 0, 51, 40
1, 12173, Note_off_c, 0, 67, 13
1, 12213, Note_off_c, 0, 51, 51
1, 12422, Note_on_c, 0, 70, 47
1, 12455, Note_off_c, 0, 71, 39
1, 12459, Note_on_c, 0, 61, 32
1, 12526, Note_off_c, 0, 61, 47
1, 12593, Note_off_c, 0, 70, 39
1, 12807, Note_on_c, 0, 67, 62
1, 13003, Note_off_c, 0, 67, 34
1, 13032, Note_on_c, 0, 68, 62
1, 13045, Control_c, 0, 64, 95
1, 13060, Control_c, 0, 64, 59
1, 13075, Control_c, 0, 64, 0
1, 13105, Control_c, 0, 64, 31
1, 13119, Control_c, 0, 64, 67
1, 13131, Note_on_c, 0, 74, 64
1, 13134, Control_c, 0, 64, 86
1, 13135, Note_off_c, 0, 68, 60
1, 13146, Note_on_c, 0, 70, 51
1, 13149, Control_c, 0, 64, 127
1, 13265, Note_on_c, 0, 64, 52
1, 13296, Note_off_c, 0, 64, 65
1, 13356, Note_on_c, 0, 58, 58
1, 13370, Note_off_c, 0, 70, 37
1, 13401, Note_off_c, 0, 58, 52
1, 13444, Note_on_c, 0, 48, 43
1, 13493, Note_off_c, 0, 48, 59
1, 13628, Note_on_c, 0, 73, 76
1, 13650, Note_off_c, 0, 74, 58
1, 13655, Note_on_c, 0, 64, 52
1, 13818, Note_off_c, 0, 73, 59
1, 13827, Note_off_c, 0, 64, 35
1, 13936, Note_on_c, 0, 70, 81
1, 14029, Note_off_c, 0, 70, 61
1, 14126, Note_on_c, 0, 71, 64
1, 14194, Control_c, 0, 64, 85
1, 14208, Control_c, 0, 64, 0
1, 14211, Note_on_c, 0, 77, 77
1, 14235, Note_on_c, 0, 73, 62
1, 14253, Control_c, 0, 64, 50
1, 14267, Control_c, 0, 64, 73
1, 14282, Control_c, 0, 64, 127
1, 14283, Note_off_c, 0, 71, 59
1, 14316, Note_on_c, 0, 67, 53
1, 14367, Note_off_c, 0, 67, 58
1, 14383, Note_on_c, 0, 61, 58
1, 14418, Note_off_c, 0, 61, 64
1, 14470, Note_off_c, 0, 73, 40
1, 14492, Note_on_c, 0, 55, 62
1, 14535, Note_off_c, 0, 55, 60
1, 14568, Note_on_c, 0, 45, 64
1, 14606, Note_off_c, 0, 45, 65
1, 14750, Note_on_c, 0, 76, 81
1, 14767, Note_on_c, 0, 67, 67
1, 14772, Note_off_c, 0, 77, 60
1, 14865, Note_off_c, 0, 67, 57
1, 14929, Note_off_c, 0, 76, 63
1, 15051, Note_on_c, 0, 73, 92
1, 15161, Note_off_c, 0, 73, 58
1, 15219, Note_on_c, 0, 74, 88
1, 15290, Control_c, 0, 64, 95
1, 15296, Note_on_c, 0, 80, 87
1, 15305, Control_c, 0, 64, 59
1, 15315, Note_on_c, 0, 76, 74
1, 15320, Control_c, 0, 64, 0
1, 15351, Control_c, 0, 64, 50
1, 15366, Control_c, 0, 64, 74
1, 15378, Note_off_c, 0, 74, 60
1, 15381, Control_c, 0, 64, 127
1, 15389, Note_on_c, 0, 70, 67
1, 15438, Note_off_c, 0, 70, 63
1, 15440, Note_on_c, 0, 64, 63
1, 15468, Note_off_c, 0, 64, 66
1, 15506, Note_off_c, 0, 76, 55
1, 15551, Note_on_c, 0, 58, 62
1, 15581, Note_off_c, 0, 58, 53
1, 15621, Note_on_c, 0, 52, 74
1, 15656, Poly_aftertouch_c, 0, 56, 0
1, 15666, Note_off_c, 0, 52, 58
1, 15701, Note_on_c, 0, 42, 63
1, 15746, Note_off_c, 0, 42, 57
1, 15966, Note_on_c, 0, 79, 83
1, 15987, Note_on_c, 0, 70, 60
1, 16005, Note_off_c, 0, 80, 57
1, 16311, Note_off_c, 0, 79, 31
1, 16346, Note_off_c, 0, 70, 25
1, 16439, Note_on_c, 0, 46, 74
1, 16440, Note_on_c, 0, 33, 72
1, 16444, Note_on_c, 0, 39, 67
1, 16455, Note_on_c, 0, 82, 82
1, 16458, Note_on_c, 0, 70, 72
1, 16464, Note_on_c, 0, 75, 68
1, 16466, Note_on_c, 0, 78, 77
1, 16544, Control_c, 0, 64, 121
1, 16559, Control_c, 0, 64, 78
1, 16574, Control_c, 0, 64, 0
1, 16648, Control_c, 0, 64, 70
1, 16670, Control_c, 0, 64, 93
1, 16685, Control_c, 0, 64, 127
1, 16744, Note_off_c, 0, 82, 61
1, 16770, Note_off_c, 0, 78, 60
1, 16774, Note_off_c, 0, 70, 64
1, 16796, Note_off_c, 0, 75, 43
1, 17174, Control_c, 0, 64, 123
1, 17189, Control_c, 0, 64, 115
1, 17204, Control_c, 0, 64, 112
1, 17219, Control_c, 0, 64, 110
1, 17233, Control_c, 0, 64, 109
1, 17248, Control_c, 0, 64, 107
1, 17263, Control_c, 0, 64, 107
1, 17321, Note_on_c, 0, 54, 63
1, 17338, Control_c, 0, 64, 106
1, 17352, Control_c, 0, 64, 106
1, 17367, Control_c, 0, 64, 104
1, 17370, Note_off_c, 0, 54, 57
1, 17382, Control_c, 0, 64, 101
1, 17397, Control_c, 0, 64, 97
1, 17419, Control_c, 0, 64, 93
1, 17433, Control_c, 0, 64, 88
1, 17449, Control_c, 0, 64, 84
1, 17464, Control_c, 0, 64, 81
1, 17479, Control_c, 0, 64, 79
1, 17487, Note_on_c, 0, 54, 66
1, 17493, Control_c, 0, 64, 77
1, 17508, Control_c, 0, 64, 76
1, 17538, Control_c, 0, 64, 76
1, 17539, Note_off_c, 0, 54, 63
1, 17553, Control_c, 0, 64, 75
1, 17567, Control_c, 0, 64, 75
1, 17583, Note_off_c, 0, 46, 42
1, 17616, Note_on_c, 0, 54, 70
1, 17627, Control_c, 0, 64, 74
1, 17659, Note_off_c, 0, 54, 57
1, 17691, Note_off_c, 0, 39, 34
1, 17716, Control_c, 0, 64, 74
1, 17740, Note_on_c, 0, 54, 65
1, 17746, Control_c, 0, 64, 73
1, 17791, Control_c, 0, 64, 73
1, 17796, Note_off_c, 0, 54, 58
1, 17806, Control_c, 0, 64, 72
1, 17820, Control_c, 0, 64, 72
1, 17835, Control_c, 0, 64, 71
1, 17892, Note_on_c, 0, 46, 58
1, 17895, Control_c, 0, 64, 71
1, 17918, Note_on_c, 0, 54, 48
1, 17939, Control_c, 0, 64, 70
1, 17954, Control_c, 0, 64, 70
1, 17969, Control_c, 0, 64, 69
1, 17983, Control_c, 0, 64, 68
1, 17998, Control_c, 0, 64, 67
1, 18013, Control_c, 0, 64, 65
1, 18028, Control_c, 0, 64, 65
1, 18043, Control_c, 0, 64, 64
1, 18057, Control_c, 0, 64, 64
1, 18137, Note_off_c, 0, 33, 39
1, 18198, Control_c, 0, 64, 64
1, 18228, Control_c, 0, 64, 65
1, 18262, Note_on_c, 0, 51, 52
1, 18288, Note_off_c, 0, 54, 18
1, 18302, Control_c, 0, 64, 65
1, 18357, Note_on_c, 0, 39, 45
1, 18471, Note_off_c, 0, 39, 41
1, 18480, Note_on_c, 0, 33, 46
1, 18555, Note_off_c, 0, 51, 16
1, 18688, Note_on_c, 0, 39, 44
1, 18710, Note_off_c, 0, 33, 39
1, 18768, Note_on_c, 0, 55, 43
1, 18807, Note_off_c, 0, 55, 63
1, 18842, Note_on_c, 0, 54, 48
1, 19034, Note_on_c, 0, 33, 36
1, 19040, Note_off_c, 0, 39, 40
1, 19138, Control_c, 0, 64, 65
1, 19208, Note_on_c, 0, 58, 50
1, 19252, Note_off_c, 0, 58, 62
1, 19271, Control_c, 0, 64, 65
1, 19327, Note_off_c, 0, 33, 41
1, 19340, Note_on_c, 0, 39, 39
1, 19371, Note_on_c, 0, 58, 56
1, 19409, Note_off_c, 0, 58, 63
1, 19450, Control_c, 0, 64, 66
1, 19465, Control_c, 0, 64, 67
1, 19479, Control_c, 0, 64, 70
1, 19494, Control_c, 0, 64, 73
1, 19509, Control_c, 0, 64, 76
1, 19511, Note_off_c, 0, 46, 32
1, 19518, Note_on_c, 0, 58, 47
1, 19524, Control_c, 0, 64, 78
1, 19534, Note_on_c, 0, 33, 29
1, 19539, Control_c, 0, 64, 79
1, 19545, Note_off_c, 0, 58, 59
1, 19550, Note_off_c, 0, 39, 53
1, 19579, Note_off_c, 0, 33, 44
1, 19613, Control_c, 0, 64, 78
1, 19627, Note_on_c, 0, 58, 51
1, 19627, Control_c, 0, 64, 78
1, 19665, Control_c, 0, 64, 77
1, 19668, Note_off_c, 0, 58, 63
1, 19680, Control_c, 0, 64, 77
1, 19694, Control_c, 0, 64, 76
1, 19709, Control_c, 0, 64, 76
1, 19724, Control_c, 0, 64, 75
1, 19739, Control_c, 0, 64, 75
1, 19754, Control_c, 0, 64, 74
1, 19758, Note_on_c, 0, 50, 45
1, 19768, Control_c, 0, 64, 74
1, 19783, Control_c, 0, 64, 73
1, 19798, Control_c, 0, 64, 72
1, 19813, Control_c, 0, 64, 71
1, 19827, Control_c, 0, 64, 70
1, 19842, Control_c, 0, 64, 68
1, 19857, Control_c, 0, 64, 67
1, 19872, Control_c, 0, 64, 66
1, 19876, Note_on_c, 0, 58, 35
1, 19886, Control_c, 0, 64, 66
1, 19915, Note_off_c, 0, 54, 45
1, 19991, Control_c, 0, 64, 66
1, 20005, Control_c, 0, 64, 67
1, 20050, Control_c, 0, 64, 67
1, 20065, Control_c, 0, 64, 68
1, 20086, Note_on_c, 0, 55, 37
1, 20109, Control_c, 0, 64, 68
1, 20137, Note_on_c, 0, 43, 45
1, 20169, Control_c, 0, 64, 69
1, 20184, Control_c, 0, 64, 69
1, 20199, Control_c, 0, 64, 70
1, 20214, Note_off_c, 0, 58, 42
1, 20229, Control_c, 0, 64, 70
1, 20283, Note_on_c, 0, 37, 40
1, 20293, Note_off_c, 0, 43, 41
1, 20302, Control_c, 0, 64, 70
1, 20306, Note_off_c, 0, 55, 28
1, 20362, Control_c, 0, 64, 69
1, 20444, Control_c, 0, 64, 69
1, 20466, Note_on_c, 0, 43, 43
1, 20509, Note_off_c, 0, 37, 46
1, 20518, Control_c, 0, 64, 68
1, 20581, Note_on_c, 0, 59, 41
1, 20607, Control_c, 0, 64, 69
1, 20631, Note_off_c, 0, 59, 58
1, 20682, Note_on_c, 0, 58, 12
1, 20740, Control_c, 0, 64, 69
1, 20755, Control_c, 0, 64, 70
1, 20784, Control_c, 0, 64, 71
1, 20799, Control_c, 0, 64, 71
1, 20814, Control_c, 0, 64, 73
1, 20824, Note_on_c, 0, 37, 41
1, 20828, Control_c, 0, 64, 74
1, 20843, Control_c, 0, 64, 76
1, 20858, Control_c, 0, 64, 77
1, 20873, Control_c, 0, 64, 78
1, 20876, Note_off_c, 0, 43, 39
1, 20888, Control_c, 0, 64, 79
1, 20903, Control_c, 0, 64, 79
1, 20914, Note_off_c, 0, 50, 24
1, 20953, Note_off_c, 0, 37, 49
1, 21051, Note_on_c, 0, 50, 37
1, 21067, Control_c, 0, 64, 79
1, 21096, Control_c, 0, 64, 78
1, 21126, Control_c, 0, 64, 78
1, 21163, Control_c, 0, 64, 77
1, 21207, Control_c, 0, 64, 77
1, 21386, Control_c, 0, 64, 77
1, 21415, Control_c, 0, 64, 78
1, 21459, Control_c, 0, 64, 78
1, 21472, Note_off_c, 0, 50, 35
1, 21519, Control_c, 0, 64, 79
1, 21533, Control_c, 0, 64, 79
1, 21548, Control_c, 0, 64, 80
1, 21563, Control_c, 0, 64, 81
1, 21578, Note_on_c, 0, 50, 38
1, 21578, Control_c, 0, 64, 81
1, 21593, Control_c, 0, 64, 82
1, 21607, Control_c, 0, 64, 82
1, 21622, Control_c, 0, 64, 83
1, 21637, Control_c, 0, 64, 84
1, 21651, Control_c, 0, 64, 84
1, 21743, Note_on_c, 0, 43, 36
1, 21911, Note_on_c, 0, 37, 35
1, 21925, Note_off_c, 0, 43, 29
1, 22119, Control_c, 0, 64, 85
1, 22163, Control_c, 0, 64, 85
1, 22178, Control_c, 0, 64, 86
1, 22208, Control_c, 0, 64, 86
1, 22296, Control_c, 0, 64, 87
1, 22328, Note_off_c, 0, 37, 34
1, 22338, Note_on_c, 0, 43, 33
1, 22370, Control_c, 0, 64, 87
1, 22508, Note_off_c, 0, 58, 34
1, 22660, Control_c, 0, 64, 87
1, 22675, Control_c, 0, 64, 86
1, 22690, Control_c, 0, 64, 86
1, 22704, Control_c, 0, 64, 85
1, 22713, Note_on_c, 0, 37, 26
1, 22719, Control_c, 0, 64, 84
1, 22727, Note_off_c, 0, 43, 34
1, 22734, Control_c, 0, 64, 84
1, 22749, Control_c, 0, 64, 83
1, 22764, Control_c, 0, 64, 83
1, 22778, Control_c, 0, 64, 82
1, 22793, Control_c, 0, 64, 81
1, 22808, Control_c, 0, 64, 80
1, 22817, Note_on_c, 0, 58, 38
1, 22822, Control_c, 0, 64, 79
1, 22837, Control_c, 0, 64, 78
1, 22852, Control_c, 0, 64, 77
1, 22858, Note_off_c, 0, 58, 54
1, 22867, Control_c, 0, 64, 76
1, 22882, Control_c, 0, 64, 75
1, 22897, Control_c, 0, 64, 74
1, 22912, Control_c, 0, 64, 73
1, 22942, Control_c, 0, 64, 73
1, 22964, Note_on_c, 0, 58, 43
1, 22995, Note_off_c, 0, 58, 59
1, 22998, Note_off_c, 0, 37, 45
1, 23003, Note_on_c, 0, 43, 27
1, 23101, Note_on_c, 0, 58, 47
1, 23152, Note_off_c, 0, 58, 56
1, 23178, Control_c, 0, 64, 72
1, 23208, Control_c, 0, 64, 72
1, 23222, Control_c, 0, 64, 71
1, 23237, Control_c, 0, 64, 71
1, 23252, Control_c, 0, 64, 70
1, 23282, Control_c, 0, 64, 69
1, 23283, Note_on_c, 0, 58, 43
1, 23301, Note_on_c, 0, 37, 25
1, 23333, Note_off_c, 0, 58, 58
1, 23341, Note_off_c, 0, 50, 1
1, 23387, Control_c, 0, 64, 69
1, 23453, Control_c, 0, 64, 68
1, 23483, Control_c, 0, 64, 68
1, 23513, Control_c, 0, 64, 67
1, 23542, Control_c, 0, 64, 67
1, 23557, Control_c, 0, 64, 66
1, 23560, Note_off_c, 0, 43, 29
1, 23601, Control_c, 0, 64, 66
1, 23616, Control_c, 0, 64, 65
1, 23631, Control_c, 0, 64, 65
1, 23645, Control_c, 0, 64, 64
1, 23660, Control_c, 0, 64, 63
1, 23675, Control_c, 0, 64, 62
1, 23690, Control_c, 0, 64, 60
1, 23705, Control_c, 0, 64, 56
1, 23719, Note_off_c, 0, 37, 42
1, 23720, Control_c, 0, 64, 53
1, 23735, Control_c, 0, 64, 49
1, 23749, Control_c, 0, 64, 45
1, 23764, Control_c, 0, 64, 42
1, 23779, Control_c, 0, 64, 38
1, 23794, Control_c, 0, 64, 34
1, 23809, Control_c, 0, 64, 29
1, 23824, Control_c, 0, 64, 24
1, 23839, Control_c, 0, 64, 21
1, 23853, Control_c, 0, 64, 14
1, 23868, Control_c, 0, 64, 0
1, 24004, Note_on_c, 0, 71, 37
1, 24047, Note_on_c, 0, 67, 11
1, 24136, Control_c, 0, 64, 36
1, 24158, Control_c, 0, 64, 60
1, 24173, Control_c, 0, 64, 66
1, 24188, Control_c, 0, 64, 71
1, 24203, Control_c, 0, 64, 77
1, 24218, Control_c, 0, 64, 83
1, 24232, Control_c, 0, 64, 89
1, 24247, Control_c, 0, 64, 93
1, 24262, Control_c, 0, 64, 97
1, 24277, Control_c, 0, 64, 103
1, 24290, Note_off_c, 0, 67, 42
1, 24292, Control_c, 0, 64, 108
1, 24307, Control_c, 0, 64, 115
1, 24322, Control_c, 0, 64, 127
1, 24519, Note_off_c, 0, 71, 34
1, 24543, Note_on_c, 0, 70, 38
1, 24557, Note_on_c, 0, 61, 35
1, 24665, Note_off_c, 0, 61, 35
1, 25023, Note_off_c, 0, 70, 25
1, 25049, Note_on_c, 0, 69, 43
1, 25062, Note_on_c, 0, 65, 36
1, 25130, Control_c, 0, 64, 110
1, 25144, Control_c, 0, 64, 94
1, 25159, Control_c, 0, 64, 83
1, 25174, Control_c, 0, 64, 77
1, 25189, Control_c, 0, 64, 77
1, 25204, Control_c, 0, 64, 79
1, 25218, Control_c, 0, 64, 82
1, 25233, Control_c, 0, 64, 88
1, 25248, Control_c, 0, 64, 96
1, 25263, Control_c, 0, 64, 103
1, 25278, Control_c, 0, 64, 107
1, 25293, Control_c, 0, 64, 109
1, 25338, Note_off_c, 0, 65, 41
1, 25514, Control_c, 0, 64, 109
1, 25529, Control_c, 0, 64, 103
1, 25544, Control_c, 0, 64, 97
1, 25559, Control_c, 0, 64, 90
1, 25574, Note_on_c, 0, 68, 52
1, 25574, Control_c, 0, 64, 85
1, 25585, Note_on_c, 0, 59, 32
1, 25589, Control_c, 0, 64, 84
1, 25598, Note_off_c, 0, 69, 36
1, 25604, Control_c, 0, 64, 86
1, 25618, Control_c, 0, 64, 91
1, 25633, Control_c, 0, 64, 99
1, 25655, Control_c, 0, 64, 111
1, 25670, Control_c, 0, 64, 127
1, 25708, Note_off_c, 0, 68, 51
1, 25807, Note_off_c, 0, 59, 35
1, 26035, Note_on_c, 0, 65, 50
1, 26076, Note_on_c, 0, 61, 30
1, 26110, Note_on_c, 0, 71, 56
1, 26131, Note_on_c, 0, 67, 42
1, 26188, Control_c, 0, 64, 113
1, 26203, Control_c, 0, 64, 94
1, 26218, Control_c, 0, 64, 78
1, 26233, Control_c, 0, 64, 67
1, 26247, Control_c, 0, 64, 65
1, 26262, Control_c, 0, 64, 67
1, 26277, Control_c, 0, 64, 73
1, 26292, Control_c, 0, 64, 81
1, 26307, Control_c, 0, 64, 92
1, 26322, Control_c, 0, 64, 103
1, 26330, Note_off_c, 0, 61, 41
1, 26337, Control_c, 0, 64, 115
1, 26338, Note_off_c, 0, 65, 60
1, 26352, Control_c, 0, 64, 124
1, 26567, Control_c, 0, 64, 116
1, 26582, Control_c, 0, 64, 106
1, 26597, Control_c, 0, 64, 98
1, 26612, Control_c, 0, 64, 93
1, 26626, Control_c, 0, 64, 90
1, 26640, Note_on_c, 0, 64, 37
1, 26654, Note_on_c, 0, 55, 23
1, 26671, Control_c, 0, 64, 91
1, 26686, Control_c, 0, 64, 93
1, 26701, Control_c, 0, 64, 95
1, 26715, Control_c, 0, 64, 96
1, 26730, Control_c, 0, 64, 97
1, 26778, Note_off_c, 0, 64, 36
1, 26937, Control_c, 0, 64, 96
1, 26952, Control_c, 0, 64, 96
1, 26982, Control_c, 0, 64, 95
1, 27115, Control_c, 0, 64, 94
1, 27130, Control_c, 0, 64, 88
1, 27152, Control_c, 0, 64, 80
1, 27155, Note_on_c, 0, 63, 40
1, 27167, Control_c, 0, 64, 70
1, 27170, Note_on_c, 0, 59, 28
1, 27183, Control_c, 0, 64, 64
1, 27212, Control_c, 0, 64, 66
1, 27227, Control_c, 0, 64, 71
1, 27233, Note_off_c, 0, 55, 35
1, 27242, Control_c, 0, 64, 77
1, 27257, Control_c, 0, 64, 86
1, 27271, Control_c, 0, 64, 94
1, 27286, Control_c, 0, 64, 98
1, 27301, Control_c, 0, 64, 98
1, 27376, Control_c, 0, 64, 99
1, 27391, Note_off_c, 0, 63, 37
1, 27465, Note_off_c, 0, 59, 40
1, 27517, Note_off_c, 0, 71, 60
1, 27566, Note_off_c, 0, 67, 35
1, 27698, Note_on_c, 0, 53, 35
1, 27699, Note_on_c, 0, 62, 39
1, 27717, Control_c, 0, 64, 98
1, 27732, Control_c, 0, 64, 93
1, 27747, Control_c, 0, 64, 87
1, 27761, Control_c, 0, 64, 82
1, 27776, Control_c, 0, 64, 80
1, 27791, Control_c, 0, 64, 80
1, 27806, Control_c, 0, 64, 82
1, 27820, Control_c, 0, 64, 85
1, 27835, Control_c, 0, 64, 90
1, 27850, Control_c, 0, 64, 95
1, 27865, Control_c, 0, 64, 99
1, 27871, Note_off_c, 0, 53, 48
1, 27880, Control_c, 0, 64, 102
1, 27902, Control_c, 0, 64, 102
1, 28203, Note_off_c, 0, 62, 33
1, 28258, Control_c, 0, 64, 102
1, 28273, Control_c, 0, 64, 101
1, 28274, Note_on_c, 0, 65, 39
1, 28286, Note_on_c, 0, 55, 38
1, 28288, Control_c, 0, 64, 100
1, 28289, Note_on_c, 0, 59, 41
1, 28303, Control_c, 0, 64, 99
1, 28304, Note_on_c, 0, 61, 32
1, 28317, Control_c, 0, 64, 98
1, 28332, Control_c, 0, 64, 97
1, 28347, Control_c, 0, 64, 97
1, 28362, Control_c, 0, 64, 96
1, 28391, Control_c, 0, 64, 95
1, 28421, Control_c, 0, 64, 95
1, 28435, Control_c, 0, 64, 93
1, 28450, Control_c, 0, 64, 86
1, 28465, Control_c, 0, 64, 76
1, 28480, Control_c, 0, 64, 65
1, 28495, Control_c, 0, 64, 35
1, 28510, Control_c, 0, 64, 11
1, 28525, Control_c, 0, 64, 44
1, 28540, Control_c, 0, 64, 60
1, 28555, Control_c, 0, 64, 67
1, 28570, Control_c, 0, 64, 74
1, 28584, Control_c, 0, 64, 81
1, 28599, Control_c, 0, 64, 86
1, 28614, Control_c, 0, 64, 89
1, 28629, Control_c, 0, 64, 91
1, 28644, Note_off_c, 0, 55, 36
1, 28650, Control_c, 0, 64, 92
1, 28665, Control_c, 0, 64, 93
1, 28680, Control_c, 0, 64, 95
1, 28695, Control_c, 0, 64, 96
1, 28710, Control_c, 0, 64, 98
1, 28725, Control_c, 0, 64, 99
1, 28737, Note_off_c, 0, 65, 40
1, 28739, Control_c, 0, 64, 100
1, 28754, Control_c, 0, 64, 100
1, 28783, Note_off_c, 0, 61, 39
1, 28784, Control_c, 0, 64, 101
1, 28859, Note_on_c, 0, 58, 48
1, 28873, Note_off_c, 0, 59, 37
1, 28874, Note_on_c, 0, 49, 29
1, 29155, Note_off_c, 0, 49, 43
1, 29303, Control_c, 0, 64, 100
1, 29348, Control_c, 0, 64, 100
1, 29362, Control_c, 0, 64, 99
1, 29377, Note_off_c, 0, 58, 41
1, 29377, Control_c, 0, 64, 99
1, 29399, Control_c, 0, 64, 98
1, 29414, Control_c, 0, 64, 98
1, 29423, Note_on_c, 0, 57, 43
1, 29429, Control_c, 0, 64, 97
1, 29432, Note_on_c, 0, 53, 40
1, 29444, Control_c, 0, 64, 97
1, 29459, Control_c, 0, 64, 96
1, 29473, Control_c, 0, 64, 96
1, 29488, Control_c, 0, 64, 95
1, 29503, Control_c, 0, 64, 94
1, 29518, Control_c, 0, 64, 94
1, 29533, Control_c, 0, 64, 93
1, 29547, Control_c, 0, 64, 91
1, 29562, Control_c, 0, 64, 85
1, 29577, Control_c, 0, 64, 75
1, 29592, Control_c, 0, 64, 63
1, 29607, Control_c, 0, 64, 44
1, 29622, Control_c, 0, 64, 56
1, 29637, Control_c, 0, 64, 63
1, 29652, Control_c, 0, 64, 68
1, 29666, Control_c, 0, 64, 74
1, 29681, Control_c, 0, 64, 81
1, 29696, Control_c, 0, 64, 89
1, 29711, Control_c, 0, 64, 95
1, 29726, Control_c, 0, 64, 99
1, 29741, Control_c, 0, 64, 102
1, 29756, Control_c, 0, 64, 103
1, 29771, Control_c, 0, 64, 103
1, 29778, Note_off_c, 0, 53, 44
1, 29786, Control_c, 0, 64, 105
1, 29801, Control_c, 0, 64, 107
1, 29815, Control_c, 0, 64, 110
1, 29830, Control_c, 0, 64, 116
1, 29845, Control_c, 0, 64, 126
1, 29860, Control_c, 0, 64, 127
1, 29999, Note_on_c, 0, 56, 54
1, 30009, Note_off_c, 0, 57, 37
1, 30028, Note_on_c, 0, 47, 36
1, 30115, Note_off_c, 0, 56, 53
1, 30177, Note_off_c, 0, 47, 35
1, 30613, Note_on_c, 0, 59, 42
1, 30632, Note_on_c, 0, 65, 48
1, 30635, Note_on_c, 0, 55, 36
1, 30662, Note_on_c, 0, 61, 39
1, 30772, Control_c, 0, 64, 118
1, 30786, Control_c, 0, 64, 113
1, 30801, Control_c, 0, 64, 106
1, 30816, Control_c, 0, 64, 95
1, 30830, Control_c, 0, 64, 79
1, 30845, Control_c, 0, 64, 65
1, 30860, Control_c, 0, 64, 0
1, 30898, Control_c, 0, 64, 30
1, 30913, Control_c, 0, 64, 62
1, 30927, Control_c, 0, 64, 70
1, 30942, Control_c, 0, 64, 80
1, 30957, Control_c, 0, 64, 90
1, 30971, Control_c, 0, 64, 98
1, 30986, Control_c, 0, 64, 103
1, 31001, Control_c, 0, 64, 106
1, 31004, Note_off_c, 0, 59, 34
1, 31016, Control_c, 0, 64, 107
1, 31024, Note_off_c, 0, 55, 41
1, 31031, Control_c, 0, 64, 108
1, 31047, Note_off_c, 0, 61, 24
1, 31060, Control_c, 0, 64, 108
1, 31075, Control_c, 0, 64, 109
1, 31090, Control_c, 0, 64, 109
1, 31105, Control_c, 0, 64, 110
1, 31119, Control_c, 0, 64, 110
1, 31173, Note_off_c, 0, 65, 50
1, 31203, Note_on_c, 0, 64, 47
1, 31237, Note_on_c, 0, 55, 35
1, 31252, Control_c, 0, 64, 110
1, 31387, Control_c, 0, 64, 109
1, 31401, Control_c, 0, 64, 108
1, 31416, Control_c, 0, 64, 107
1, 31431, Control_c, 0, 64, 106
1, 31446, Control_c, 0, 64, 105
1, 31461, Control_c, 0, 64, 104
1, 31476, Control_c, 0, 64, 103
1, 31491, Control_c, 0, 64, 102
1, 31506, Control_c, 0, 64, 101
1, 31521, Control_c, 0, 64, 100
1, 31535, Control_c, 0, 64, 99
1, 31550, Control_c, 0, 64, 98
1, 31565, Control_c, 0, 64, 97
1, 31579, Control_c, 0, 64, 96
1, 31594, Control_c, 0, 64, 95
1, 31609, Control_c, 0, 64, 95
1, 31624, Control_c, 0, 64, 94
1, 31646, Control_c, 0, 64, 93
1, 31661, Control_c, 0, 64, 92
1, 31675, Control_c, 0, 64, 91
1, 31690, Control_c, 0, 64, 89
1, 31705, Control_c, 0, 64, 87
1, 31720, Control_c, 0, 64, 86
1, 31735, Control_c, 0, 64, 84
1, 31746, Note_on_c, 0, 63, 39
1, 31749, Control_c, 0, 64, 83
1, 31756, Note_off_c, 0, 64, 36
1, 31764, Control_c, 0, 64, 82
1, 31768, Note_on_c, 0, 59, 34
1, 31779, Control_c, 0, 64, 81
1, 31793, Control_c, 0, 64, 81
1, 31823, Control_c, 0, 64, 80
1, 31838, Control_c, 0, 64, 79
1, 31853, Control_c, 0, 64, 77
1, 31867, Control_c, 0, 64, 71
1, 31882, Control_c, 0, 64, 64
1, 31888, Note_off_c, 0, 55, 41
1, 31897, Control_c, 0, 64, 61
1, 31912, Control_c, 0, 64, 63
1, 31927, Control_c, 0, 64, 64
1, 31941, Control_c, 0, 64, 67
1, 31956, Control_c, 0, 64, 72
1, 31971, Control_c, 0, 64, 78
1, 31986, Control_c, 0, 64, 85
1, 32001, Control_c, 0, 64, 89
1, 32015, Control_c, 0, 64, 91
1, 32030, Control_c, 0, 64, 92
1, 32045, Control_c, 0, 64, 92
1, 32090, Control_c, 0, 64, 93
1, 32095, Note_off_c, 0, 63, 32
1, 32105, Control_c, 0, 64, 95
1, 32120, Control_c, 0, 64, 96
1, 32135, Control_c, 0, 64, 98
1, 32150, Control_c, 0, 64, 98
1, 32165, Control_c, 0, 64, 99
1, 32316, Note_off_c, 0, 59, 30
1, 32363, Note_on_c, 0, 62, 27
1, 32367, Note_on_c, 0, 53, 20
1, 32394, Control_c, 0, 64, 98
1, 32409, Control_c, 0, 64, 95
1, 32423, Control_c, 0, 64, 90
1, 32438, Control_c, 0, 64, 84
1, 32453, Control_c, 0, 64, 77
1, 32468, Control_c, 0, 64, 74
1, 32497, Control_c, 0, 64, 75
1, 32512, Control_c, 0, 64, 77
1, 32527, Control_c, 0, 64, 81
1, 32542, Control_c, 0, 64, 86
1, 32556, Control_c, 0, 64, 92
1, 32571, Control_c, 0, 64, 95
1, 32586, Control_c, 0, 64, 97
1, 32601, Control_c, 0, 64, 98
1, 32627, Note_off_c, 0, 53, 41
1, 32727, Note_off_c, 0, 62, 34
1, 32838, Control_c, 0, 64, 98
1, 32868, Control_c, 0, 64, 97
1, 32882, Control_c, 0, 64, 97
1, 32913, Control_c, 0, 64, 96
1, 32943, Control_c, 0, 64, 96
1, 32972, Control_c, 0, 64, 95
1, 32987, Control_c, 0, 64, 95
1, 33014, Note_on_c, 0, 59, 38
1, 33017, Control_c, 0, 64, 94
1, 33028, Note_on_c, 0, 55, 32
1, 33046, Control_c, 0, 64, 93
1, 33048, Note_on_c, 0, 65, 35
1, 33061, Control_c, 0, 64, 93
1, 33076, Control_c, 0, 64, 92
1, 33081, Note_on_c, 0, 61, 24
1, 33091, Control_c, 0, 64, 92
1, 33142, Control_c, 0, 64, 91
1, 33172, Control_c, 0, 64, 91
1, 33187, Control_c, 0, 64, 89
1, 33202, Control_c, 0, 64, 83
1, 33217, Control_c, 0, 64, 73
1, 33232, Control_c, 0, 64, 63
1, 33247, Control_c, 0, 64, 45
1, 33261, Control_c, 0, 64, 51
1, 33276, Control_c, 0, 64, 61
1, 33291, Control_c, 0, 64, 66
1, 33306, Control_c, 0, 64, 73
1, 33321, Control_c, 0, 64, 80
1, 33336, Control_c, 0, 64, 87
1, 33351, Control_c, 0, 64, 91
1, 33365, Control_c, 0, 64, 93
1, 33380, Control_c, 0, 64, 95
1, 33395, Control_c, 0, 64, 96
1, 33410, Control_c, 0, 64, 98
1, 33425, Control_c, 0, 64, 100
1, 33439, Control_c, 0, 64, 103
1, 33454, Control_c, 0, 64, 109
1, 33457, Note_off_c, 0, 61, 32
1, 33469, Control_c, 0, 64, 117
1, 33484, Control_c, 0, 64, 127
1, 33566, Note_off_c, 0, 65, 41
1, 33697, Note_on_c, 0, 49, 33
1, 33709, Note_on_c, 0, 58, 39
1, 33871, Note_off_c, 0, 59, 30
1, 33961, Note_off_c, 0, 55, 38
1, 34070, Note_off_c, 0, 49, 35
1, 34119, Note_on_c, 0, 64, 54
1, 34186, Note_off_c, 0, 58, 44
1, 34201, Note_off_c, 0, 64, 36
1, 34316, Note_on_c, 0, 59, 30
1, 34341, Note_on_c, 0, 55, 31
1, 34415, Note_on_c, 0, 65, 55
1, 34439, Note_on_c, 0, 61, 39
1, 34440, Control_c, 0, 64, 117
1, 34454, Control_c, 0, 64, 114
1, 34469, Control_c, 0, 64, 111
1, 34484, Control_c, 0, 64, 109
1, 34500, Control_c, 0, 64, 106
1, 34515, Control_c, 0, 64, 100
1, 34530, Control_c, 0, 64, 87
1, 34545, Control_c, 0, 64, 66
1, 34559, Control_c, 0, 64, 0
1, 34618, Control_c, 0, 64, 58
1, 34641, Control_c, 0, 64, 72
1, 34656, Control_c, 0, 64, 84
1, 34671, Control_c, 0, 64, 103
1, 34685, Control_c, 0, 64, 127
1, 34781, Note_off_c, 0, 61, 42
1, 34855, Note_off_c, 0, 65, 57
1, 34976, Note_on_c, 0, 58, 38
1, 34984, Note_on_c, 0, 49, 28
1, 35258, Note_off_c, 0, 49, 38
1, 35263, Note_off_c, 0, 59, 41
1, 35271, Note_off_c, 0, 55, 38
1, 35318, Note_off_c, 0, 58, 41
1, 35338, Note_on_c, 0, 67, 56
1, 35403, Note_off_c, 0, 67, 51
1, 35506, Note_on_c, 0, 62, 49
1, 35533, Note_on_c, 0, 58, 43
1, 35627, Note_on_c, 0, 68, 67
1, 35627, Control_c, 0, 64, 113
1, 35641, Control_c, 0, 64, 83
1, 35653, Note_on_c, 0, 64, 46
1, 35656, Control_c, 0, 64, 66
1, 35671, Control_c, 0, 64, 59
1, 35686, Control_c, 0, 64, 64
1, 35700, Control_c, 0, 64, 69
1, 35715, Control_c, 0, 64, 80
1, 35730, Control_c, 0, 64, 102
1, 35741, Note_off_c, 0, 62, 32
1, 35745, Control_c, 0, 64, 127
1, 35795, Note_on_c, 0, 52, 51
1, 35808, Note_off_c, 0, 58, 55
1, 35892, Note_off_c, 0, 52, 39
1, 35912, Note_on_c, 0, 48, 42
1, 35962, Note_off_c, 0, 48, 57
1, 36133, Note_off_c, 0, 64, 42
1, 36156, Note_on_c, 0, 61, 54
1, 36179, Note_on_c, 0, 52, 33
1, 36333, Note_off_c, 0, 52, 42
1, 36391, Note_off_c, 0, 61, 23
1, 36502, Note_on_c, 0, 70, 76
1, 36507, Note_off_c, 0, 68, 55
1, 36588, Note_off_c, 0, 70, 57
1, 36678, Note_on_c, 0, 65, 55
1, 36704, Note_on_c, 0, 61, 42
1, 36760, Control_c, 0, 64, 98
1, 36774, Control_c, 0, 64, 74
1, 36789, Control_c, 0, 64, 64
1, 36797, Note_on_c, 0, 71, 78
1, 36804, Control_c, 0, 64, 66
1, 36816, Note_on_c, 0, 67, 58
1, 36819, Note_off_c, 0, 65, 57
1, 36819, Control_c, 0, 64, 76
1, 36834, Control_c, 0, 64, 94
1, 36848, Control_c, 0, 64, 127
1, 36888, Note_off_c, 0, 61, 50
1, 37044, Note_on_c, 0, 55, 18
1, 37095, Note_on_c, 0, 45, 52
1, 37136, Note_off_c, 0, 45, 61
1, 37136, Note_off_c, 0, 55, 34
1, 37344, Note_on_c, 0, 64, 63
1, 37354, Note_on_c, 0, 55, 49
1, 37468, Note_off_c, 0, 71, 57
1, 37500, Note_off_c, 0, 55, 62
1, 37554, Note_off_c, 0, 64, 51
1, 37668, Note_on_c, 0, 73, 87
1, 37840, Note_off_c, 0, 67, 36
1, 37861, Note_on_c, 0, 68, 61
1, 37875, Note_on_c, 0, 64, 50
1, 37897, Note_off_c, 0, 73, 28
1, 37918, Control_c, 0, 64, 76
1, 37933, Control_c, 0, 64, 0
1, 37962, Control_c, 0, 64, 56
1, 37964, Note_on_c, 0, 74, 85
1, 37977, Control_c, 0, 64, 75
1, 37977, Note_off_c, 0, 68, 61
1, 37984, Note_on_c, 0, 70, 60
1, 37992, Control_c, 0, 64, 119
1, 38000, Note_off_c, 0, 64, 63
1, 38007, Control_c, 0, 64, 127
1, 38116, Note_on_c, 0, 58, 45
1, 38146, Note_off_c, 0, 58, 55
1, 38216, Note_on_c, 0, 53, 37
1, 38219, Note_on_c, 0, 52, 40
1, 38248, Note_off_c, 0, 53, 61
1, 38255, Note_off_c, 0, 52, 61
1, 38268, Note_on_c, 0, 42, 64
1, 38296, Note_off_c, 0, 42, 64
1, 38506, Note_on_c, 0, 67, 64
1, 38527, Note_on_c, 0, 58, 45
1, 38682, Note_off_c, 0, 67, 58
1, 38736, Note_off_c, 0, 70, 43
1, 38755, Note_off_c, 0, 58, 58
1, 38800, Note_off_c, 0, 74, 61
1, 38889, Control_c, 0, 64, 113
1, 38904, Control_c, 0, 64, 95
1, 38918, Control_c, 0, 64, 75
1, 38933, Control_c, 0, 64, 0
1, 39041, Note_on_c, 0, 60, 33
1, 39062, Note_on_c, 0, 56, 25
1, 39111, Note_on_c, 0, 66, 37
1, 39182, Poly_aftertouch_c, 0, 62, 127
1, 39192, Control_c, 0, 64, 23
1, 39207, Control_c, 0, 64, 64
1, 39222, Control_c, 0, 64, 74
1, 39237, Control_c, 0, 64, 88
1, 39251, Control_c, 0, 64, 114
1, 39266, Control_c, 0, 64, 127
1, 39365, Note_off_c, 0, 60, 46
1, 39518, Note_off_c, 0, 56, 35
1, 39683, Note_on_c, 0, 59, 40
1, 39685, Note_on_c, 0, 50, 30
1, 39897, Note_off_c, 0, 50, 43
1, 39940, Note_off_c, 0, 59, 26
1, 40004, Note_on_c, 0, 68, 71
1, 40021, Note_off_c, 0, 66, 47
1, 40051, Poly_aftertouch_c, 0, 62, 0
1, 40232, Note_off_c, 0, 68, 50
1, 40237, Note_on_c, 0, 63, 51
1, 40281, Note_on_c, 0, 59, 34
1, 40336, Note_on_c, 0, 69, 73
1, 40357, Note_on_c, 0, 65, 57
1, 40372, Control_c, 0, 64, 98
1, 40387, Control_c, 0, 64, 73
1, 40402, Control_c, 0, 64, 58
1, 40416, Control_c, 0, 64, 61
1, 40431, Control_c, 0, 64, 68
1, 40446, Control_c, 0, 64, 81
1, 40447, Note_off_c, 0, 63, 55
1, 40461, Control_c, 0, 64, 108
1, 40476, Control_c, 0, 64, 127
1, 40516, Note_off_c, 0, 59, 40
1, 40523, Note_on_c, 0, 53, 54
1, 40583, Note_off_c, 0, 53, 58
1, 40649, Note_on_c, 0, 49, 50
1, 40706, Note_off_c, 0, 49, 62
1, 40883, Note_on_c, 0, 62, 56
1, 40908, Note_on_c, 0, 53, 46
1, 40979, Note_off_c, 0, 53, 60
1, 41003, Note_off_c, 0, 69, 34
1, 41101, Note_off_c, 0, 62, 57
1, 41209, Note_on_c, 0, 71, 87
1, 41232, Note_off_c, 0, 65, 42
1, 41381, Note_on_c, 0, 66, 66
1, 41394, Note_off_c, 0, 71, 47
1, 41422, Note_on_c, 0, 62, 42
1, 41468, Control_c, 0, 64, 101
1, 41483, Control_c, 0, 64, 70
1, 41490, Note_on_c, 0, 72, 81
1, 41498, Control_c, 0, 64, 53
1, 41500, Note_on_c, 0, 68, 71
1, 41513, Control_c, 0, 64, 62
1, 41528, Note_off_c, 0, 66, 59
1, 41528, Control_c, 0, 64, 70
1, 41542, Control_c, 0, 64, 85
1, 41557, Control_c, 0, 64, 127
1, 41574, Note_off_c, 0, 68, 0
1, 41581, Note_off_c, 0, 62, 57
1, 41586, Note_on_c, 0, 56, 65
1, 41611, Poly_aftertouch_c, 0, 68, 127
1, 41619, Note_off_c, 0, 56, 64
1, 41641, Note_on_c, 0, 68, 8
1, 41736, Note_on_c, 0, 46, 58
1, 41776, Note_off_c, 0, 46, 61
1, 41955, Note_off_c, 0, 68, 45
1, 41999, Note_off_c, 0, 72, 59
1, 42004, Note_on_c, 0, 65, 75
1, 42018, Note_on_c, 0, 56, 60
1, 42208, Note_off_c, 0, 56, 40
1, 42289, Note_off_c, 0, 65, 58
1, 42316, Note_on_c, 0, 74, 94
1, 42416, Note_off_c, 0, 74, 60
1, 42471, Note_on_c, 0, 69, 86
1, 42494, Note_on_c, 0, 65, 62
1, 42529, Control_c, 0, 64, 86
1, 42544, Control_c, 0, 64, 54
1, 42559, Control_c, 0, 64, 0
1, 42566, Note_on_c, 0, 75, 94
1, 42574, Control_c, 0, 64, 43
1, 42576, Note_on_c, 0, 71, 81
1, 42589, Control_c, 0, 64, 72
1, 42598, Note_off_c, 0, 69, 63
1, 42604, Control_c, 0, 64, 111
1, 42607, Note_off_c, 0, 65, 62
1, 42618, Control_c, 0, 64, 127
1, 42735, Note_on_c, 0, 59, 64
1, 42772, Note_off_c, 0, 59, 60
1, 42795, Note_on_c, 0, 53, 78
1, 42870, Note_off_c, 0, 53, 57
1, 42882, Note_on_c, 0, 43, 58
1, 42911, Note_off_c, 0, 43, 56
1, 43114, Note_on_c, 0, 68, 82
1, 43125, Note_on_c, 0, 58, 72
1, 43173, Note_off_c, 0, 58, 65
1, 43221, Note_off_c, 0, 68, 60
1, 43268, Note_off_c, 0, 75, 27
1, 43386, Note_on_c, 0, 77, 100
1, 43501, Note_off_c, 0, 71, 55
1, 43501, Note_on_c, 0, 34, 98
1, 43501, Control_c, 0, 64, 88
1, 43516, Control_c, 0, 64, 0
1, 43552, Note_off_c, 0, 77, 67
1, 43558, Note_off_c, 0, 34, 64
1, 43560, Control_c, 0, 64, 63
1, 43575, Control_c, 0, 64, 103
1, 43590, Control_c, 0, 64, 127
1, 43792, Note_on_c, 0, 78, 95
1, 43793, Note_on_c, 0, 65, 94
1, 43793, Note_on_c, 0, 77, 85
1, 43795, Note_on_c, 0, 53, 98
1, 43799, Note_on_c, 0, 40, 87
1, 43802, Note_on_c, 0, 46, 79
1, 43802, Note_on_c, 0, 70, 82
1, 43810, Note_on_c, 0, 73, 77
1, 43825, Note_on_c, 0, 41, 57
1, 43832, Note_on_c, 0, 67, 35
1, 43852, Note_on_c, 0, 42, 30
1, 43853, Note_off_c, 0, 41, 58
1, 43871, Note_off_c, 0, 67, 32
1, 43903, Note_off_c, 0, 53, 59
1, 43903, Note_off_c, 0, 42, 45
1, 43943, Note_off_c, 0, 46, 60
1, 43954, Note_off_c, 0, 77, 59
1, 43965, Note_off_c, 0, 78, 61
1, 43978, Note_off_c, 0, 73, 53
1, 43981, Note_off_c, 0, 70, 55
1, 43985, Note_off_c, 0, 65, 61
1, 44324, Control_c, 0, 64, 113
1, 44339, Control_c, 0, 64, 103
1, 44353, Control_c, 0, 64, 97
1, 44374, Note_on_c, 0, 49, 76
1, 44376, Control_c, 0, 64, 92
1, 44390, Control_c, 0, 64, 88
1, 44404, Control_c, 0, 64, 85
1, 44409, Note_on_c, 0, 48, 48
1, 44419, Control_c, 0, 64, 82
1, 44434, Control_c, 0, 64, 79
1, 44439, Note_off_c, 0, 49, 60
1, 44440, Note_off_c, 0, 48, 54
1, 44449, Control_c, 0, 64, 76
1, 44463, Control_c, 0, 64, 75
1, 44478, Control_c, 0, 64, 73
1, 44493, Control_c, 0, 64, 73
1, 44508, Control_c, 0, 64, 72
1, 44522, Control_c, 0, 64, 71
1, 44537, Control_c, 0, 64, 69
1, 44552, Control_c, 0, 64, 68
1, 44567, Control_c, 0, 64, 67
1, 44582, Control_c, 0, 64, 67
1, 44583, Note_on_c, 0, 49, 74
1, 44596, Control_c, 0, 64, 66
1, 44643, Note_off_c, 0, 49, 63
1, 44685, Control_c, 0, 64, 67
1, 44720, Note_on_c, 0, 49, 74
1, 44729, Control_c, 0, 64, 67
1, 44744, Control_c, 0, 64, 68
1, 44771, Note_off_c, 0, 49, 61
1, 44774, Control_c, 0, 64, 68
1, 44789, Control_c, 0, 64, 69
1, 44804, Control_c, 0, 64, 70
1, 44818, Control_c, 0, 64, 70
1, 44833, Control_c, 0, 64, 71
1, 44836, Note_on_c, 0, 49, 69
1, 44848, Control_c, 0, 64, 72
1, 44863, Control_c, 0, 64, 73
1, 44878, Control_c, 0, 64, 74
1, 44888, Note_off_c, 0, 49, 58
1, 44893, Control_c, 0, 64, 74
1, 44908, Control_c, 0, 64, 75
1, 44923, Control_c, 0, 64, 76
1, 44938, Control_c, 0, 64, 77
1, 44953, Control_c, 0, 64, 77
1, 44982, Control_c, 0, 64, 78
1, 44991, Note_on_c, 0, 49, 72
1, 45003, Note_off_c, 0, 40, 36
1, 45242, Control_c, 0, 64, 78
1, 45258, Note_on_c, 0, 46, 51
1, 45272, Control_c, 0, 64, 79
1, 45331, Control_c, 0, 64, 79
1, 45352, Note_on_c, 0, 40, 50
1, 45360, Control_c, 0, 64, 80
1, 45375, Control_c, 0, 64, 80
1, 45377, Note_off_c, 0, 49, 29
1, 45390, Control_c, 0, 64, 81
1, 45432, Note_off_c, 0, 40, 51
1, 45467, Note_on_c, 0, 34, 52
1, 45493, Control_c, 0, 64, 81
1, 45523, Control_c, 0, 64, 81
1, 45608, Note_off_c, 0, 46, 39
1, 45643, Note_on_c, 0, 40, 50
1, 45757, Note_on_c, 0, 50, 63
1, 45758, Note_off_c, 0, 34, 35
1, 45824, Note_off_c, 0, 50, 64
1, 45840, Note_on_c, 0, 49, 63
1, 45872, Control_c, 0, 64, 80
1, 45887, Control_c, 0, 64, 80
1, 45916, Control_c, 0, 64, 79
1, 45946, Control_c, 0, 64, 79
1, 45960, Control_c, 0, 64, 78
1, 45975, Control_c, 0, 64, 77
1, 45990, Control_c, 0, 64, 76
1, 45996, Note_on_c, 0, 34, 48
1, 46005, Control_c, 0, 64, 75
1, 46010, Note_off_c, 0, 40, 42
1, 46020, Control_c, 0, 64, 73
1, 46035, Control_c, 0, 64, 72
1, 46050, Control_c, 0, 64, 71
1, 46064, Control_c, 0, 64, 71
1, 46154, Control_c, 0, 64, 71
1, 46168, Control_c, 0, 64, 72
1, 46183, Control_c, 0, 64, 73
1, 46198, Control_c, 0, 64, 76
1, 46213, Control_c, 0, 64, 81
1, 46228, Control_c, 0, 64, 88
1, 46234, Note_on_c, 0, 40, 50
1, 46242, Control_c, 0, 64, 98
1, 46257, Control_c, 0, 64, 110
1, 46272, Control_c, 0, 64, 127
1, 46284, Note_off_c, 0, 34, 31
1, 46342, Note_off_c, 0, 49, 62
1, 46490, Note_on_c, 0, 34, 40
1, 46519, Note_off_c, 0, 34, 55
1, 46520, Note_off_c, 0, 40, 35
1, 46695, Control_c, 0, 64, 95
1, 46710, Control_c, 0, 64, 0
1, 46711, Note_on_c, 0, 63, 88
1, 46727, Note_on_c, 0, 59, 67
1, 46754, Control_c, 0, 64, 65
1, 46758, Note_off_c, 0, 59, 64
1, 46760, Note_off_c, 0, 63, 64
1, 46769, Control_c, 0, 64, 93
1, 46784, Control_c, 0, 64, 127
1, 46866, Note_on_c, 0, 53, 75
1, 46923, Note_off_c, 0, 53, 55
1, 46937, Note_on_c, 0, 69, 97
1, 46937, Note_on_c, 0, 81, 93
1, 46943, Note_on_c, 0, 77, 88
1, 46979, Poly_aftertouch_c, 0, 55, 0
1, 47015, Note_on_c, 0, 43, 68
1, 47049, Note_off_c, 0, 43, 65
1, 47123, Note_off_c, 0, 81, 60
1, 47153, Note_off_c, 0, 77, 55
1, 47165, Note_off_c, 0, 69, 55
1, 47217, Note_on_c, 0, 62, 85
1, 47228, Note_on_c, 0, 53, 74
1, 47362, Note_off_c, 0, 62, 56
1, 47385, Note_off_c, 0, 53, 64
1, 47553, Note_on_c, 0, 80, 88
1, 47554, Note_on_c, 0, 68, 98
1, 47561, Note_on_c, 0, 71, 76
1, 47591, Note_off_c, 0, 71, 59
1, 47653, Note_off_c, 0, 68, 57
1, 47694, Note_off_c, 0, 80, 60
1, 48031, Note_on_c, 0, 47, 53
1, 48040, Note_on_c, 0, 34, 57
1, 48049, Note_on_c, 0, 40, 39
1, 48076, Note_off_c, 0, 47, 0
1, 48076, Note_on_c, 0, 47, 15
1, 48089, Note_on_c, 0, 83, 82
1, 48091, Note_on_c, 0, 71, 77
1, 48093, Note_on_c, 0, 76, 76
1, 48095, Note_on_c, 0, 79, 72
1, 48355, Control_c, 0, 64, 117
1, 48370, Control_c, 0, 64, 81
1, 48385, Control_c, 0, 64, 39
1, 48400, Control_c, 0, 64, 0
1, 48459, Control_c, 0, 64, 29
1, 48474, Control_c, 0, 64, 66
1, 48488, Control_c, 0, 64, 77
1, 48503, Control_c, 0, 64, 90
1, 48518, Control_c, 0, 64, 110
1, 48533, Control_c, 0, 64, 127
1, 48596, Note_off_c, 0, 79, 22
1, 48599, Note_off_c, 0, 83, 54
1, 48601, Note_off_c, 0, 71, 0
1, 48617, Note_off_c, 0, 76, 25
1, 48638, Poly_aftertouch_c, 0, 71, 127
1, 48702, Poly_aftertouch_c, 0, 71, 0
1, 49134, Control_c, 0, 64, 126
1, 49149, Control_c, 0, 64, 122
1, 49164, Control_c, 0, 64, 119
1, 49178, Control_c, 0, 64, 118
1, 49193, Control_c, 0, 64, 117
1, 49208, Control_c, 0, 64, 116
1, 49223, Control_c, 0, 64, 115
1, 49233, Note_on_c, 0, 55, 52
1, 49238, Control_c, 0, 64, 114
1, 49252, Control_c, 0, 64, 113
1, 49267, Control_c, 0, 64, 112
1, 49282, Control_c, 0, 64, 111
1, 49287, Note_off_c, 0, 55, 58
1, 49297, Control_c, 0, 64, 109
1, 49311, Control_c, 0, 64, 109
1, 49326, Control_c, 0, 64, 108
1, 49341, Control_c, 0, 64, 107
1, 49356, Control_c, 0, 64, 106
1, 49371, Control_c, 0, 64, 106
1, 49385, Control_c, 0, 64, 105
1, 49400, Control_c, 0, 64, 104
1, 49415, Control_c, 0, 64, 104
1, 49430, Control_c, 0, 64, 103
1, 49445, Control_c, 0, 64, 103
1, 49460, Control_c, 0, 64, 102
1, 49463, Note_on_c, 0, 55, 53
1, 49475, Control_c, 0, 64, 102
1, 49490, Control_c, 0, 64, 101
1, 49501, Note_off_c, 0, 55, 61
1, 49504, Control_c, 0, 64, 100
1, 49519, Control_c, 0, 64, 100
1, 49534, Control_c, 0, 64, 99
1, 49549, Control_c, 0, 64, 99
1, 49564, Control_c, 0, 64, 98
1, 49578, Control_c, 0, 64, 98
1, 49593, Control_c, 0, 64, 97
1, 49615, Control_c, 0, 64, 97
1, 49616, Note_on_c, 0, 55, 54
1, 49648, Note_off_c, 0, 55, 64
1, 49766, Note_on_c, 0, 55, 45
1, 49772, Note_off_c, 0, 47, 42
1, 49806, Note_off_c, 0, 55, 59
1, 49824, Control_c, 0, 64, 96
1, 49838, Note_off_c, 0, 34, 33
1, 49839, Control_c, 0, 64, 96
1, 49854, Control_c, 0, 64, 95
1, 49869, Control_c, 0, 64, 94
1, 49883, Control_c, 0, 64, 93
1, 49898, Control_c, 0, 64, 92
1, 49913, Control_c, 0, 64, 91
1, 49928, Control_c, 0, 64, 90
1, 49943, Control_c, 0, 64, 89
1, 49955, Note_on_c, 0, 47, 46
1, 49958, Control_c, 0, 64, 87
1, 49972, Control_c, 0, 64, 86
1, 49987, Control_c, 0, 64, 85
1, 50002, Control_c, 0, 64, 84
1, 50017, Control_c, 0, 64, 83
1, 50032, Control_c, 0, 64, 82
1, 50047, Control_c, 0, 64, 81
1, 50055, Note_on_c, 0, 55, 40
1, 50062, Control_c, 0, 64, 80
1, 50076, Control_c, 0, 64, 79
1, 50091, Control_c, 0, 64, 79
1, 50106, Control_c, 0, 64, 78
1, 50121, Control_c, 0, 64, 78
1, 50135, Control_c, 0, 64, 77
1, 50139, Note_off_c, 0, 40, 36
1, 50150, Control_c, 0, 64, 76
1, 50165, Control_c, 0, 64, 75
1, 50180, Control_c, 0, 64, 74
1, 50195, Control_c, 0, 64, 73
1, 50209, Control_c, 0, 64, 71
1, 50224, Control_c, 0, 64, 69
1, 50239, Control_c, 0, 64, 68
1, 50482, Note_on_c, 0, 52, 41
1, 50536, Note_off_c, 0, 55, 37
1, 50574, Note_on_c, 0, 40, 41
1, 50618, Control_c, 0, 64, 69
1, 50667, Note_off_c, 0, 52, 44
1, 50708, Note_on_c, 0, 34, 42
1, 50709, Note_off_c, 0, 40, 36
1, 50924, Note_on_c, 0, 40, 35
1, 50980, Note_off_c, 0, 34, 41
1, 51010, Note_on_c, 0, 56, 42
1, 51057, Note_off_c, 0, 56, 59
1, 51105, Note_on_c, 0, 55, 40
1, 51202, Control_c, 0, 64, 69
1, 51365, Note_on_c, 0, 34, 32
1, 51382, Note_off_c, 0, 40, 41
1, 51446, Note_off_c, 0, 55, 41
1, 51538, Note_on_c, 0, 55, 56
1, 51571, Note_off_c, 0, 55, 63
1, 51697, Note_on_c, 0, 40, 37
1, 51706, Note_off_c, 0, 34, 42
1, 51736, Note_on_c, 0, 55, 52
1, 51761, Note_off_c, 0, 55, 58
1, 51858, Note_on_c, 0, 55, 53
1, 51862, Control_c, 0, 64, 70
1, 51892, Note_off_c, 0, 55, 63
1, 51892, Control_c, 0, 64, 70
1, 51906, Control_c, 0, 64, 71
1, 51921, Control_c, 0, 64, 71
1, 51927, Note_on_c, 0, 34, 47
1, 51936, Control_c, 0, 64, 72
1, 51937, Note_off_c, 0, 47, 1
1, 51951, Control_c, 0, 64, 74
1, 51957, Note_off_c, 0, 40, 42
1, 51966, Control_c, 0, 64, 76
1, 51980, Control_c, 0, 64, 78
1, 51995, Control_c, 0, 64, 79
1, 52002, Note_on_c, 0, 55, 54
1, 52010, Control_c, 0, 64, 79
1, 52025, Note_off_c, 0, 55, 62
1, 52032, Note_off_c, 0, 34, 59
1, 52085, Control_c, 0, 64, 80
1, 52115, Note_on_c, 0, 47, 63
1, 52129, Control_c, 0, 64, 80
1, 52144, Control_c, 0, 64, 81
1, 52159, Control_c, 0, 64, 81
1, 52174, Control_c, 0, 64, 82
1, 52189, Control_c, 0, 64, 83
1, 52203, Control_c, 0, 64, 84
1, 52218, Control_c, 0, 64, 85
1, 52233, Control_c, 0, 64, 86
1, 52248, Control_c, 0, 64, 87
1, 52252, Note_on_c, 0, 55, 75
1, 52262, Control_c, 0, 64, 89
1, 52277, Control_c, 0, 64, 90
1, 52292, Control_c, 0, 64, 92
1, 52307, Control_c, 0, 64, 93
1, 52322, Control_c, 0, 64, 95
1, 52336, Control_c, 0, 64, 96
1, 52351, Control_c, 0, 64, 98
1, 52366, Control_c, 0, 64, 100
1, 52381, Control_c, 0, 64, 102
1, 52386, Note_on_c, 0, 40, 62
1, 52396, Control_c, 0, 64, 104
1, 52411, Control_c, 0, 64, 107
1, 52420, Note_off_c, 0, 55, 58
1, 52426, Control_c, 0, 64, 109
1, 52441, Control_c, 0, 64, 110
1, 52500, Control_c, 0, 64, 110
1, 52515, Control_c, 0, 64, 109
1, 52529, Control_c, 0, 64, 107
1, 52544, Control_c, 0, 64, 106
1, 52559, Control_c, 0, 64, 103
1, 52566, Note_on_c, 0, 56, 78
1, 52574, Control_c, 0, 64, 101
1, 52589, Control_c, 0, 64, 99
1, 52611, Control_c, 0, 64, 96
1, 52625, Control_c, 0, 64, 94
1, 52641, Control_c, 0, 64, 92
1, 52655, Control_c, 0, 64, 90
1, 52670, Control_c, 0, 64, 88
1, 52685, Control_c, 0, 64, 87
1, 52700, Control_c, 0, 64, 86
1, 52708, Note_on_c, 0, 34, 61
1, 52715, Control_c, 0, 64, 85
1, 52730, Control_c, 0, 64, 84
1, 52741, Note_off_c, 0, 40, 37
1, 52745, Control_c, 0, 64, 83
1, 52760, Control_c, 0, 64, 82
1, 52774, Control_c, 0, 64, 81
1, 52789, Control_c, 0, 64, 80
1, 52804, Control_c, 0, 64, 78
1, 52819, Control_c, 0, 64, 76
1, 52834, Control_c, 0, 64, 75
1, 52848, Control_c, 0, 64, 74
1, 52863, Control_c, 0, 64, 73
1, 52879, Control_c, 0, 64, 72
1, 52894, Control_c, 0, 64, 71
1, 52909, Control_c, 0, 64, 71
1, 52983, Control_c, 0, 64, 70
1, 53042, Control_c, 0, 64, 70
1, 53071, Control_c, 0, 64, 69
1, 53086, Control_c, 0, 64, 69
1, 53101, Control_c, 0, 64, 68
1, 53146, Control_c, 0, 64, 68
1, 53195, Note_on_c, 0, 40, 49
1, 53205, Control_c, 0, 64, 67
1, 53360, Control_c, 0, 64, 68
1, 53390, Control_c, 0, 64, 68
1, 53405, Control_c, 0, 64, 69
1, 53420, Control_c, 0, 64, 69
1, 53434, Control_c, 0, 64, 70
1, 53449, Control_c, 0, 64, 71
1, 53464, Control_c, 0, 64, 71
1, 53478, Control_c, 0, 64, 72
1, 53493, Control_c, 0, 64, 72
1, 53523, Control_c, 0, 64, 73
1, 53552, Control_c, 0, 64, 74
1, 53567, Control_c, 0, 64, 75
1, 53582, Control_c, 0, 64, 76
1, 53597, Control_c, 0, 64, 78
1, 53612, Control_c, 0, 64, 79
1, 53627, Control_c, 0, 64, 81
1, 53642, Control_c, 0, 64, 82
1, 53657, Control_c, 0, 64, 83
1, 53662, Note_off_c, 0, 34, 36
1, 53672, Control_c, 0, 64, 84
1, 53687, Control_c, 0, 64, 85
1, 53702, Control_c, 0, 64, 86
1, 53716, Control_c, 0, 64, 88
1, 53731, Control_c, 0, 64, 90
1, 53746, Control_c, 0, 64, 92
1, 53761, Control_c, 0, 64, 95
1, 53776, Control_c, 0, 64, 98
1, 53791, Control_c, 0, 64, 102
1, 53806, Control_c, 0, 64, 108
1, 53821, Control_c, 0, 64, 118
1, 53836, Control_c, 0, 64, 127
1, 53859, Note_on_c, 0, 34, 34
1, 53870, Note_off_c, 0, 40, 40
1, 54403, Note_off_c, 0, 47, 19
1, 54434, Note_on_c, 0, 40, 41
1, 54469, Note_off_c, 0, 34, 36
1, 54906, Note_off_c, 0, 40, 42
1, 55010, Note_on_c, 0, 34, 56
1, 55064, Note_off_c, 0, 34, 54
1, 55082, Note_off_c, 0, 56, 41
1, 55147, Note_on_c, 0, 48, 76
1, 55227, Note_on_c, 0, 55, 77
1, 55268, Note_off_c, 0, 55, 60
1, 55289, Note_on_c, 0, 56, 72
1, 55308, Note_off_c, 0, 56, 65
1, 55333, Note_off_c, 0, 48, 59
1, 55349, Note_on_c, 0, 60, 80
1, 55395, Note_off_c, 0, 60, 62
1, 55424, Note_on_c, 0, 64, 88
1, 55463, Note_off_c, 0, 64, 63
1, 55468, Note_on_c, 0, 50, 95
1, 55554, Control_c, 0, 64, 72
1, 55569, Control_c, 0, 64, 0
1, 55578, Note_on_c, 0, 65, 94
1, 55606, Control_c, 0, 64, 59
1, 55621, Control_c, 0, 64, 85
1, 55636, Control_c, 0, 64, 127
1, 55642, Note_off_c, 0, 50, 66
1, 55698, Note_off_c, 0, 65, 60
1, 55743, Note_on_c, 0, 67, 75
1, 55770, Note_off_c, 0, 67, 65
1, 55850, Note_on_c, 0, 65, 64
1, 55851, Note_on_c, 0, 40, 82
1, 55873, Note_off_c, 0, 65, 68
1, 55913, Note_on_c, 0, 67, 74
1, 55943, Note_off_c, 0, 67, 59
1, 55958, Note_off_c, 0, 40, 57
1, 55973, Note_on_c, 0, 65, 74
1, 55997, Note_off_c, 0, 65, 67
1, 56013, Note_on_c, 0, 34, 82
1, 56039, Note_on_c, 0, 67, 71
1, 56064, Note_off_c, 0, 67, 67
1, 56072, Note_on_c, 0, 65, 78
1, 56105, Note_off_c, 0, 65, 64
1, 56143, Note_on_c, 0, 67, 73
1, 56173, Note_off_c, 0, 67, 62
1, 56200, Note_on_c, 0, 65, 66
1, 56220, Note_off_c, 0, 65, 66
1, 56252, Note_on_c, 0, 67, 72
1, 56274, Note_off_c, 0, 67, 67
1, 56295, Note_on_c, 0, 65, 75
1, 56346, Note_off_c, 0, 34, 16
1, 56346, Note_off_c, 0, 65, 62
1, 56375, Note_on_c, 0, 67, 58
1, 56406, Note_off_c, 0, 67, 65
1, 56413, Note_on_c, 0, 65, 78
1, 56436, Note_on_c, 0, 40, 73
1, 56437, Note_off_c, 0, 65, 67
1, 56519, Note_on_c, 0, 65, 82
1, 56542, Note_off_c, 0, 65, 70
1, 56578, Note_on_c, 0, 67, 44
1, 56617, Note_on_c, 0, 65, 76
1, 56617, Note_off_c, 0, 67, 63
1, 56638, Note_off_c, 0, 65, 68
1, 56701, Note_on_c, 0, 67, 54
1, 56722, Note_on_c, 0, 65, 78
1, 56727, Note_off_c, 0, 67, 56
1, 56748, Note_off_c, 0, 65, 67
1, 56817, Note_on_c, 0, 65, 71
1, 56821, Note_on_c, 0, 67, 37
1, 56848, Note_off_c, 0, 67, 57
1, 56849, Note_off_c, 0, 65, 65
1, 56927, Note_on_c, 0, 67, 21
1, 56947, Note_on_c, 0, 65, 57
1, 56969, Note_off_c, 0, 40, 33
1, 56975, Note_off_c, 0, 65, 58
1, 56981, Note_off_c, 0, 67, 0
1, 56998, Note_on_c, 0, 67, 41
1, 57035, Note_off_c, 0, 67, 62
1, 57045, Note_on_c, 0, 65, 64
1, 57063, Note_off_c, 0, 65, 69
1, 57146, Note_on_c, 0, 67, 17
1, 57148, Note_on_c, 0, 65, 51
1, 57181, Note_off_c, 0, 65, 65
1, 57211, Note_off_c, 0, 67, 0
1, 57248, Poly_aftertouch_c, 0, 67, 127
1, 57263, Note_on_c, 0, 65, 65
1, 57288, Note_off_c, 0, 65, 69
1, 57305, Poly_aftertouch_c, 0, 67, 0
1, 57326, Note_on_c, 0, 67, 15
1, 57335, Note_on_c, 0, 34, 44
1, 57372, Note_off_c, 0, 67, 49
1, 57378, Note_on_c, 0, 65, 66
1, 57407, Note_off_c, 0, 65, 66
1, 57452, Note_on_c, 0, 67, 36
1, 57487, Note_off_c, 0, 67, 52
1, 57490, Note_on_c, 0, 65, 55
1, 57522, Note_off_c, 0, 65, 64
1, 57567, Note_on_c, 0, 67, 46
1, 57596, Note_off_c, 0, 67, 55
1, 57604, Note_off_c, 0, 34, 29
1, 57612, Note_on_c, 0, 65, 50
1, 57642, Note_off_c, 0, 65, 59
1, 57684, Note_on_c, 0, 67, 49
1, 57716, Note_off_c, 0, 67, 56
1, 57731, Note_on_c, 0, 65, 50
1, 57757, Note_off_c, 0, 65, 64
1, 57797, Note_on_c, 0, 67, 44
1, 57833, Note_off_c, 0, 67, 56
1, 57848, Note_on_c, 0, 65, 52
1, 57887, Note_off_c, 0, 65, 63
1, 57916, Note_on_c, 0, 40, 39
1, 57939, Note_on_c, 0, 67, 35
1, 57976, Note_off_c, 0, 67, 50
1, 57997, Note_on_c, 0, 65, 35
1, 58034, Note_off_c, 0, 65, 52
1, 58058, Note_on_c, 0, 67, 34
1, 58087, Note_off_c, 0, 67, 55
1, 58129, Note_on_c, 0, 65, 32
1, 58160, Note_off_c, 0, 65, 56
1, 58197, Note_on_c, 0, 67, 32
1, 58243, Note_off_c, 0, 67, 43
1, 58245, Note_on_c, 0, 65, 38
1, 58280, Note_off_c, 0, 65, 52
1, 58295, Note_on_c, 0, 67, 36
1, 58337, Note_off_c, 0, 67, 51
1, 58354, Note_on_c, 0, 65, 39
1, 58382, Note_off_c, 0, 65, 58
1, 58424, Note_on_c, 0, 67, 33
1, 58461, Note_off_c, 0, 67, 52
1, 58474, Note_on_c, 0, 65, 51
1, 58508, Note_off_c, 0, 65, 62
1, 58561, Note_on_c, 0, 67, 25
1, 58611, Note_off_c, 0, 67, 44
1, 58616, Note_on_c, 0, 65, 43
1, 58646, Note_off_c, 0, 65, 56
1, 58689, Note_on_c, 0, 67, 15
1, 58738, Note_off_c, 0, 67, 40
1, 58739, Note_on_c, 0, 65, 49
1, 58765, Note_off_c, 0, 65, 60
1, 58818, Note_on_c, 0, 67, 6
1, 58852, Note_on_c, 0, 65, 51
1, 58855, Note_off_c, 0, 67, 0
1, 58887, Poly_aftertouch_c, 0, 67, 0
1, 58892, Note_off_c, 0, 65, 60
1, 58909, Note_on_c, 0, 67, 21
1, 58963, Note_off_c, 0, 67, 52
1, 59048, Note_on_c, 0, 67, 30
1, 59049, Poly_aftertouch_c, 0, 65, 0
1, 59082, Note_on_c, 0, 65, 21
1, 59104, Note_off_c, 0, 67, 41
1, 59139, Note_off_c, 0, 65, 55
1, 59171, Note_on_c, 0, 67, 28
1, 59215, Note_off_c, 0, 40, 39
1, 59221, Note_off_c, 0, 67, 45
1, 59236, Note_on_c, 0, 65, 29
1, 59270, Note_off_c, 0, 65, 54
1, 59385, Note_on_c, 0, 34, 33
1, 59456, Note_off_c, 0, 34, 43
1, 59517, Note_on_c, 0, 55, 38
1, 59547, Note_off_c, 0, 55, 56
1, 59591, Note_on_c, 0, 56, 42
1, 59623, Note_off_c, 0, 56, 56
1, 59675, Note_on_c, 0, 60, 52
1, 59705, Note_off_c, 0, 60, 57
1, 59765, Control_c, 0, 64, 119
1, 59771, Note_on_c, 0, 64, 38
1, 59780, Control_c, 0, 64, 83
1, 59781, Note_on_c, 0, 50, 53
1, 59795, Control_c, 0, 64, 62
1, 59809, Control_c, 0, 64, 0
1, 59817, Note_off_c, 0, 64, 47
1, 59839, Control_c, 0, 64, 23
1, 59854, Control_c, 0, 64, 65
1, 59869, Control_c, 0, 64, 77
1, 59872, Note_on_c, 0, 65, 42
1, 59884, Control_c, 0, 64, 92
1, 59899, Control_c, 0, 64, 127
1, 59912, Note_off_c, 0, 65, 52
1, 59961, Note_on_c, 0, 67, 37
1, 59978, Note_on_c, 0, 40, 40
1, 59979, Note_off_c, 0, 50, 36
1, 59994, Note_off_c, 0, 67, 53
1, 60009, Note_on_c, 0, 65, 53
1, 60042, Note_off_c, 0, 65, 64
1, 60046, Note_off_c, 0, 40, 49
1, 60093, Note_on_c, 0, 67, 46
1, 60111, Note_on_c, 0, 34, 50
1, 60123, Note_off_c, 0, 67, 54
1, 60146, Note_off_c, 0, 34, 52
1, 60170, Note_on_c, 0, 65, 19
1, 60201, Note_on_c, 0, 67, 57
1, 60227, Note_off_c, 0, 67, 59
1, 60236, Note_off_c, 0, 65, 0
1, 60252, Note_on_c, 0, 65, 41
1, 60289, Note_off_c, 0, 65, 59
1, 60305, Note_on_c, 0, 67, 56
1, 60336, Note_off_c, 0, 67, 62
1, 60375, Note_on_c, 0, 65, 43
1, 60400, Note_off_c, 0, 65, 59
1, 60420, Note_on_c, 0, 67, 54
1, 60442, Note_off_c, 0, 67, 61
1, 60480, Note_on_c, 0, 65, 47
1, 60505, Note_off_c, 0, 65, 60
1, 60516, Note_on_c, 0, 67, 60
1, 60550, Note_off_c, 0, 67, 62
1, 60581, Note_on_c, 0, 65, 54
1, 60607, Note_off_c, 0, 65, 62
1, 60631, Note_on_c, 0, 67, 56
1, 60665, Note_off_c, 0, 67, 62
1, 60689, Note_on_c, 0, 65, 50
1, 60728, Note_off_c, 0, 65, 62
1, 60730, Note_on_c, 0, 48, 51
1, 60760, Note_on_c, 0, 64, 44
1, 60789, Note_off_c, 0, 64, 57
1, 60820, Note_on_c, 0, 60, 49
1, 60864, Note_off_c, 0, 60, 63
1, 60865, Note_off_c, 0, 48, 45
1, 60954, Note_on_c, 0, 47, 53
1, 60956, Note_on_c, 0, 56, 28
1, 60998, Note_off_c, 0, 56, 51
1, 61041, Note_on_c, 0, 55, 47
1, 61071, Note_off_c, 0, 55, 58
1, 61085, Control_c, 0, 64, 93
1, 61086, Note_on_c, 0, 56, 50
1, 61100, Control_c, 0, 64, 80
1, 61115, Control_c, 0, 64, 75
1, 61130, Control_c, 0, 64, 75
1, 61132, Note_off_c, 0, 56, 61
1, 61145, Control_c, 0, 64, 78
1, 61159, Control_c, 0, 64, 84
1, 61174, Control_c, 0, 64, 92
1, 61181, Note_on_c, 0, 55, 33
1, 61189, Control_c, 0, 64, 103
1, 61204, Control_c, 0, 64, 118
1, 61217, Note_off_c, 0, 55, 46
1, 61218, Control_c, 0, 64, 127
1, 61229, Note_on_c, 0, 56, 52
1, 61258, Note_off_c, 0, 56, 62
1, 61284, Note_on_c, 0, 55, 40
1, 61311, Note_off_c, 0, 55, 59
1, 61339, Note_on_c, 0, 56, 56
1, 61369, Note_off_c, 0, 56, 64
1, 61395, Note_on_c, 0, 55, 53
1, 61423, Note_off_c, 0, 55, 63
1, 61449, Note_on_c, 0, 56, 56
1, 61488, Note_off_c, 0, 56, 60
1, 61519, Note_on_c, 0, 55, 44
1, 61545, Note_off_c, 0, 55, 57
1, 61580, Note_on_c, 0, 56, 51
1, 61613, Note_off_c, 0, 56, 64
1, 61638, Note_on_c, 0, 55, 51
1, 61668, Note_on_c, 0, 48, 62
1, 61670, Note_off_c, 0, 55, 65
1, 61671, Note_off_c, 0, 47, 39
1, 61682, Note_on_c, 0, 56, 63
1, 61711, Note_off_c, 0, 56, 65
1, 61788, Note_on_c, 0, 60, 52
1, 61813, Note_off_c, 0, 60, 59
1, 61843, Note_on_c, 0, 64, 64
1, 61860, Note_off_c, 0, 48, 59
1, 61893, Note_off_c, 0, 64, 48
1, 61939, Note_on_c, 0, 50, 61
1, 61981, Control_c, 0, 64, 118
1, 61996, Control_c, 0, 64, 86
1, 62011, Control_c, 0, 64, 66
1, 62026, Control_c, 0, 64, 0
1, 62054, Note_on_c, 0, 65, 44
1, 62055, Control_c, 0, 64, 61
1, 62070, Control_c, 0, 64, 70
1, 62085, Control_c, 0, 64, 81
1, 62100, Control_c, 0, 64, 100
1, 62111, Note_off_c, 0, 65, 57
1, 62114, Control_c, 0, 64, 127
1, 62127, Note_off_c, 0, 50, 56
1, 62179, Note_on_c, 0, 67, 22
1, 62195, Note_on_c, 0, 40, 38
1, 62222, Note_off_c, 0, 67, 42
1, 62236, Note_on_c, 0, 65, 44
1, 62263, Note_off_c, 0, 65, 57
1, 62275, Note_off_c, 0, 40, 53
1, 62304, Note_on_c, 0, 34, 52
1, 62345, Note_off_c, 0, 34, 52
1, 62346, Note_on_c, 0, 65, 57
1, 62376, Poly_aftertouch_c, 0, 67, 0
1, 62382, Note_off_c, 0, 65, 63
1, 62404, Note_on_c, 0, 67, 26
1, 62439, Note_off_c, 0, 67, 56
1, 62467, Note_on_c, 0, 65, 55
1, 62489, Note_off_c, 0, 65, 62
1, 62532, Note_on_c, 0, 67, 43
1, 62558, Note_on_c, 0, 65, 60
1, 62560, Note_off_c, 0, 67, 56
1, 62597, Note_off_c, 0, 65, 59
1, 62651, Note_on_c, 0, 67, 30
1, 62710, Note_on_c, 0, 65, 18
1, 62710, Note_off_c, 0, 67, 0
1, 62723, Note_on_c, 0, 67, 48
1, 62745, Note_off_c, 0, 65, 53
1, 62758, Note_off_c, 0, 67, 61
1, 62806, Note_on_c, 0, 65, 39
1, 62841, Note_on_c, 0, 48, 57
1, 62844, Note_off_c, 0, 65, 53
1, 62859, Note_on_c, 0, 64, 42
1, 62890, Note_off_c, 0, 64, 56
1, 62913, Note_on_c, 0, 60, 45
1, 62939, Note_off_c, 0, 60, 57
1, 62993, Note_on_c, 0, 56, 55
1, 63005, Note_off_c, 0, 48, 51
1, 63030, Note_off_c, 0, 56, 60
1, 63094, Note_on_c, 0, 47, 52
1, 63097, Note_on_c, 0, 55, 47
1, 63128, Note_off_c, 0, 55, 60
1, 63139, Note_on_c, 0, 56, 56
1, 63189, Note_off_c, 0, 56, 58
1, 63212, Control_c, 0, 64, 89
1, 63217, Note_on_c, 0, 55, 58
1, 63227, Control_c, 0, 64, 72
1, 63242, Control_c, 0, 64, 67
1, 63243, Note_off_c, 0, 55, 58
1, 63258, Control_c, 0, 64, 71
1, 63273, Control_c, 0, 64, 78
1, 63287, Control_c, 0, 64, 91
1, 63288, Note_on_c, 0, 56, 37
1, 63302, Control_c, 0, 64, 123
1, 63317, Control_c, 0, 64, 127
1, 63325, Note_off_c, 0, 56, 49
1, 63330, Note_on_c, 0, 55, 54
1, 63361, Note_off_c, 0, 55, 58
1, 63389, Note_on_c, 0, 56, 56
1, 63413, Note_off_c, 0, 47, 64
1, 63419, Note_off_c, 0, 56, 65
1, 63442, Note_on_c, 0, 55, 55
1, 63467, Note_off_c, 0, 55, 62
1, 63494, Note_on_c, 0, 56, 62
1, 63525, Note_off_c, 0, 56, 64
1, 63547, Note_on_c, 0, 55, 61
1, 63577, Note_off_c, 0, 55, 63
1, 63591, Note_on_c, 0, 56, 62
1, 63628, Note_off_c, 0, 56, 54
1, 63658, Note_on_c, 0, 55, 51
1, 63690, Note_off_c, 0, 55, 61
1, 63710, Note_on_c, 0, 56, 57
1, 63748, Note_off_c, 0, 56, 65
1, 63751, Note_on_c, 0, 55, 46
1, 63775, Note_off_c, 0, 55, 59
1, 63879, Note_on_c, 0, 56, 53
1, 63917, Note_off_c, 0, 56, 61
1, 63950, Note_on_c, 0, 62, 60
1, 63996, Note_off_c, 0, 62, 57
1, 64018, Note_on_c, 0, 66, 56
1, 64071, Note_on_c, 0, 70, 57
1, 64072, Note_off_c, 0, 66, 57
1, 64110, Note_off_c, 0, 70, 59
1, 64163, Note_on_c, 0, 56, 60
1, 64199, Control_c, 0, 64, 86
1, 64214, Control_c, 0, 64, 21
1, 64228, Control_c, 0, 64, 0
1, 64258, Control_c, 0, 64, 64
1, 64269, Note_off_c, 0, 56, 63
1, 64273, Control_c, 0, 64, 78
1, 64284, Note_on_c, 0, 71, 46
1, 64288, Control_c, 0, 64, 127
1, 64349, Note_off_c, 0, 71, 46
1, 64404, Note_on_c, 0, 73, 29
1, 64436, Note_on_c, 0, 40, 51
1, 64440, Note_off_c, 0, 73, 52
1, 64464, Note_on_c, 0, 71, 52
1, 64498, Note_off_c, 0, 40, 59
1, 64499, Note_off_c, 0, 71, 65
1, 64521, Note_on_c, 0, 73, 61
1, 64543, Note_on_c, 0, 34, 54
1, 64554, Note_off_c, 0, 73, 64
1, 64582, Note_off_c, 0, 34, 61
1, 64586, Note_on_c, 0, 71, 60
1, 64615, Note_off_c, 0, 71, 66
1, 64646, Note_on_c, 0, 73, 63
1, 64675, Note_off_c, 0, 73, 66
1, 64687, Note_on_c, 0, 71, 59
1, 64710, Note_off_c, 0, 71, 70
1, 64749, Note_on_c, 0, 73, 63
1, 64779, Note_off_c, 0, 73, 65
1, 64800, Note_on_c, 0, 71, 61
1, 64818, Note_off_c, 0, 71, 67
1, 64856, Note_on_c, 0, 73, 67
1, 64884, Note_off_c, 0, 73, 66
1, 64898, Note_on_c, 0, 71, 59
1, 64930, Note_off_c, 0, 71, 66
1, 64966, Note_on_c, 0, 73, 63
1, 64987, Note_off_c, 0, 73, 66
1, 65014, Note_on_c, 0, 71, 62
1, 65049, Note_off_c, 0, 71, 63
1, 65054, Note_on_c, 0, 54, 72
1, 65144, Note_on_c, 0, 70, 51
1, 65186, Note_off_c, 0, 54, 60
1, 65188, Note_off_c, 0, 70, 60
1, 65215, Note_on_c, 0, 66, 50
1, 65245, Note_off_c, 0, 66, 64
1, 65288, Note_on_c, 0, 62, 39
1, 65320, Note_off_c, 0, 62, 52
1, 65366, Note_on_c, 0, 53, 71
1, 65416, Note_on_c, 0, 61, 36
1, 65449, Note_off_c, 0, 61, 55
1, 65476, Note_on_c, 0, 62, 45
1, 65488, Control_c, 0, 64, 100
1, 65503, Control_c, 0, 64, 82
1, 65515, Note_off_c, 0, 62, 63
1, 65518, Control_c, 0, 64, 73
1, 65533, Control_c, 0, 64, 75
1, 65541, Note_on_c, 0, 61, 51
1, 65548, Control_c, 0, 64, 82
1, 65563, Control_c, 0, 64, 97
1, 65566, Note_off_c, 0, 61, 61
1, 65577, Control_c, 0, 64, 127
1, 65598, Note_on_c, 0, 62, 46
1, 65622, Control_c, 0, 64, 102
1, 65631, Note_off_c, 0, 62, 60
1, 65637, Control_c, 0, 64, 85
1, 65648, Note_on_c, 0, 61, 60
1, 65652, Control_c, 0, 64, 81
1, 65667, Control_c, 0, 64, 85
1, 65679, Note_off_c, 0, 61, 64
1, 65682, Control_c, 0, 64, 96
1, 65697, Control_c, 0, 64, 127
1, 65712, Note_on_c, 0, 62, 43
1, 65743, Note_off_c, 0, 62, 58
1, 65756, Control_c, 0, 64, 100
1, 65756, Note_on_c, 0, 61, 69
1, 65771, Control_c, 0, 64, 88
1, 65786, Note_off_c, 0, 61, 63
1, 65786, Control_c, 0, 64, 88
1, 65800, Control_c, 0, 64, 96
1, 65815, Control_c, 0, 64, 127
1, 65829, Note_on_c, 0, 62, 40
1, 65858, Note_on_c, 0, 61, 71
1, 65862, Note_off_c, 0, 62, 52
1, 65866, Note_off_c, 0, 53, 0
1, 65888, Note_off_c, 0, 61, 63
1, 65902, Poly_aftertouch_c, 0, 53, 127
1, 65920, Note_on_c, 0, 62, 45
1, 65947, Note_off_c, 0, 62, 59
1, 65968, Note_on_c, 0, 61, 65
1, 65993, Note_off_c, 0, 61, 68
1, 66031, Note_on_c, 0, 62, 44
1, 66045, Poly_aftertouch_c, 0, 53, 0
1, 66065, Note_off_c, 0, 62, 52
1, 66069, Note_on_c, 0, 61, 69
1, 66094, Note_on_c, 0, 54, 81
1, 66105, Note_off_c, 0, 61, 65
1, 66200, Note_on_c, 0, 62, 53
1, 66231, Note_off_c, 0, 62, 62
1, 66260, Note_on_c, 0, 66, 65
1, 66297, Note_off_c, 0, 66, 57
1, 66337, Note_on_c, 0, 70, 54
1, 66337, Note_off_c, 0, 54, 55
1, 66370, Note_off_c, 0, 70, 66
1, 66422, Note_on_c, 0, 56, 76
1, 66460, Control_c, 0, 64, 86
1, 66475, Control_c, 0, 64, 63
1, 66490, Control_c, 0, 64, 32
1, 66505, Control_c, 0, 64, 64
1, 66508, Note_off_c, 0, 56, 64
1, 66518, Note_on_c, 0, 71, 60
1, 66519, Control_c, 0, 64, 79
1, 66534, Control_c, 0, 64, 119
1, 66549, Control_c, 0, 64, 127
1, 66573, Note_off_c, 0, 71, 57
1, 66616, Note_on_c, 0, 73, 43
1, 66643, Note_off_c, 0, 73, 56
1, 66665, Note_on_c, 0, 40, 53
1, 66681, Note_on_c, 0, 71, 59
1, 66713, Note_off_c, 0, 71, 64
1, 66722, Note_on_c, 0, 73, 69
1, 66749, Note_off_c, 0, 40, 60
1, 66750, Note_on_c, 0, 34, 61
1, 66755, Note_off_c, 0, 73, 61
1, 66783, Note_off_c, 0, 34, 62
1, 66791, Note_on_c, 0, 71, 61
1, 66816, Note_off_c, 0, 71, 65
1, 66861, Note_on_c, 0, 73, 66
1, 66884, Note_off_c, 0, 73, 66
1, 66898, Note_on_c, 0, 71, 67
1, 66928, Note_off_c, 0, 71, 67
1, 66963, Note_on_c, 0, 73, 67
1, 66991, Note_off_c, 0, 73, 66
1, 67025, Note_on_c, 0, 71, 58
1, 67042, Note_off_c, 0, 71, 67
1, 67072, Note_on_c, 0, 73, 64
1, 67095, Note_off_c, 0, 73, 66
1, 67112, Note_on_c, 0, 71, 65
1, 67138, Note_off_c, 0, 71, 65
1, 67174, Note_on_c, 0, 73, 65
1, 67206, Note_off_c, 0, 73, 64
1, 67234, Note_on_c, 0, 71, 67
1, 67256, Note_off_c, 0, 71, 71
1, 67283, Note_on_c, 0, 54, 73
1, 67371, Note_on_c, 0, 70, 54
1, 67414, Note_off_c, 0, 70, 59
1, 67425, Note_off_c, 0, 54, 31
1, 67434, Note_on_c, 0, 66, 57
1, 67470, Note_off_c, 0, 66, 58
1, 67501, Note_on_c, 0, 62, 52
1, 67538, Note_off_c, 0, 62, 62
1, 67635, Note_on_c, 0, 53, 69
1, 67688, Note_on_c, 0, 61, 39
1, 67723, Note_off_c, 0, 61, 52
1, 67739, Note_on_c, 0, 62, 48
1, 67765, Control_c, 0, 64, 90
1, 67776, Note_off_c, 0, 62, 63
1, 67779, Control_c, 0, 64, 77
1, 67794, Control_c, 0, 64, 76
1, 67809, Note_on_c, 0, 61, 53
1, 67809, Control_c, 0, 64, 83
1, 67824, Control_c, 0, 64, 102
1, 67836, Note_off_c, 0, 61, 60
1, 67839, Control_c, 0, 64, 127
1, 67864, Note_on_c, 0, 62, 57
1, 67897, Note_off_c, 0, 62, 63
1, 67915, Note_on_c, 0, 61, 62
1, 67941, Note_off_c, 0, 61, 66
1, 67952, Note_off_c, 0, 53, 66
1, 67968, Note_on_c, 0, 62, 56
1, 67999, Note_off_c, 0, 62, 64
1, 68011, Note_on_c, 0, 61, 68
1, 68048, Note_off_c, 0, 61, 61
1, 68079, Note_on_c, 0, 62, 53
1, 68108, Note_off_c, 0, 62, 62
1, 68125, Note_on_c, 0, 61, 68
1, 68149, Note_off_c, 0, 61, 66
1, 68185, Note_on_c, 0, 62, 54
1, 68205, Note_off_c, 0, 62, 63
1, 68219, Note_on_c, 0, 61, 72
1, 68242, Note_off_c, 0, 61, 66
1, 68316, Note_on_c, 0, 62, 62
1, 68359, Note_off_c, 0, 62, 61
1, 68382, Note_on_c, 0, 68, 73
1, 68422, Note_on_c, 0, 72, 70
1, 68433, Note_off_c, 0, 68, 61
1, 68472, Note_on_c, 0, 76, 74
1, 68478, Note_off_c, 0, 72, 65
1, 68482, Note_on_c, 0, 74, 50
1, 68488, Note_off_c, 0, 76, 68
1, 68505, Note_off_c, 0, 74, 61
1, 68514, Control_c, 0, 64, 91
1, 68529, Control_c, 0, 64, 0
1, 68543, Note_on_c, 0, 77, 100
1, 68573, Control_c, 0, 64, 71
1, 68588, Control_c, 0, 64, 127
1, 68603, Note_on_c, 0, 40, 80
1, 68621, Note_off_c, 0, 77, 64
1, 68621, Note_on_c, 0, 79, 86
1, 68660, Note_off_c, 0, 40, 60
1, 68676, Note_off_c, 0, 79, 48
1, 68690, Note_on_c, 0, 77, 82
1, 68695, Note_on_c, 0, 34, 69
1, 68726, Note_on_c, 0, 79, 79
1, 68726, Note_off_c, 0, 34, 62
1, 68737, Note_off_c, 0, 77, 63
1, 68776, Note_off_c, 0, 79, 66
1, 68782, Note_on_c, 0, 77, 60
1, 68796, Note_on_c, 0, 76, 86
1, 68809, Note_off_c, 0, 77, 66
1, 68834, Note_off_c, 0, 76, 66
1, 68840, Note_on_c, 0, 72, 69
1, 68864, Note_off_c, 0, 72, 69
1, 68922, Poly_aftertouch_c, 0, 51, 127
1, 68928, Note_on_c, 0, 68, 75
1, 68952, Note_on_c, 0, 59, 90
1, 68957, Note_on_c, 0, 47, 80
1, 68971, Poly_aftertouch_c, 0, 51, 0
1, 68973, Note_off_c, 0, 68, 60
1, 68974, Control_c, 0, 64, 83
1, 68989, Control_c, 0, 64, 68
1, 69001, Note_on_c, 0, 67, 71
1, 69019, Control_c, 0, 64, 77
1, 69033, Control_c, 0, 64, 95
1, 69034, Note_off_c, 0, 67, 58
1, 69048, Control_c, 0, 64, 127
1, 69068, Note_on_c, 0, 68, 60
1, 69102, Note_off_c, 0, 68, 66
1, 69137, Note_on_c, 0, 67, 60
1, 69155, Note_off_c, 0, 67, 64
1, 69169, Note_on_c, 0, 68, 71
1, 69207, Note_off_c, 0, 68, 61
1, 69218, Note_on_c, 0, 67, 74
1, 69248, Note_off_c, 0, 67, 65
1, 69257, Note_on_c, 0, 68, 70
1, 69280, Note_off_c, 0, 68, 64
1, 69327, Note_on_c, 0, 72, 72
1, 69348, Note_off_c, 0, 72, 71
1, 69363, Note_on_c, 0, 76, 87
1, 69407, Note_on_c, 0, 77, 78
1, 69411, Note_off_c, 0, 59, 55
1, 69439, Note_off_c, 0, 76, 61
1, 69449, Note_on_c, 0, 79, 79
1, 69453, Note_off_c, 0, 77, 66
1, 69471, Note_off_c, 0, 47, 36
1, 69514, Note_on_c, 0, 77, 82
1, 69519, Note_off_c, 0, 79, 61
1, 69578, Note_off_c, 0, 77, 61
1, 69589, Note_on_c, 0, 79, 71
1, 69616, Note_on_c, 0, 77, 61
1, 69637, Note_off_c, 0, 79, 60
1, 69670, Note_on_c, 0, 76, 74
1, 69672, Note_off_c, 0, 77, 61
1, 69692, Note_off_c, 0, 76, 68
1, 69694, Note_on_c, 0, 59, 91
1, 69696, Note_on_c, 0, 47, 86
1, 69696, Note_on_c, 0, 72, 79
1, 69709, Note_off_c, 0, 59, 73
1, 69719, Note_off_c, 0, 72, 67
1, 69727, Note_off_c, 0, 47, 68
1, 69735, Note_on_c, 0, 57, 38
1, 69766, Note_off_c, 0, 57, 56
1, 69777, Note_on_c, 0, 68, 83
1, 69843, Note_on_c, 0, 67, 69
1, 69844, Note_off_c, 0, 68, 47
1, 69874, Note_on_c, 0, 68, 70
1, 69879, Note_off_c, 0, 67, 58
1, 69892, Control_c, 0, 64, 106
1, 69897, Note_off_c, 0, 68, 69
1, 69907, Control_c, 0, 64, 0
1, 69912, Note_on_c, 0, 67, 65
1, 69920, Note_on_c, 0, 40, 83
1, 69925, Note_on_c, 0, 34, 88
1, 69936, Note_off_c, 0, 67, 65
1, 69951, Control_c, 0, 64, 68
1, 69966, Control_c, 0, 64, 127
1, 69970, Note_off_c, 0, 34, 63
1, 69979, Note_off_c, 0, 40, 64
1, 70015, Note_on_c, 0, 68, 83
1, 70060, Note_off_c, 0, 68, 62
1, 70070, Note_on_c, 0, 74, 84
1, 70126, Note_on_c, 0, 78, 87
1, 70140, Note_off_c, 0, 74, 67
1, 70150, Note_on_c, 0, 82, 90
1, 70165, Note_off_c, 0, 78, 67
1, 70165, Note_off_c, 0, 82, 75
1, 70208, Note_on_c, 0, 66, 100
1, 70211, Note_on_c, 0, 56, 89
1, 70215, Note_on_c, 0, 62, 84
1, 70231, Note_on_c, 0, 63, 75
1, 70249, Note_off_c, 0, 63, 68
1, 70257, Note_on_c, 0, 83, 94
1, 70257, Note_off_c, 0, 62, 62
1, 70262, Note_off_c, 0, 66, 68
1, 70281, Note_off_c, 0, 56, 66
1, 70326, Note_on_c, 0, 85, 91
1, 70332, Note_off_c, 0, 83, 62
1, 70373, Note_off_c, 0, 85, 61
1, 70400, Note_on_c, 0, 83, 91
1, 70436, Note_off_c, 0, 83, 64
1, 70457, Note_on_c, 0, 85, 90
1, 70502, Note_off_c, 0, 85, 64
1, 70512, Note_on_c, 0, 83, 78
1, 70537, Note_off_c, 0, 83, 63
1, 70548, Note_on_c, 0, 85, 79
1, 70576, Note_off_c, 0, 85, 69
1, 70580, Note_on_c, 0, 83, 86
1, 70610, Note_off_c, 0, 83, 66
1, 70611, Control_c, 0, 64, 77
1, 70626, Control_c, 0, 64, 0
1, 70744, Note_on_c, 0, 34, 50
1, 70744, Note_on_c, 0, 47, 49
1, 70759, Note_on_c, 0, 40, 37
1, 70774, Control_c, 0, 64, 14
1, 70789, Control_c, 0, 64, 64
1, 70803, Control_c, 0, 64, 70
1, 70818, Control_c, 0, 64, 77
1, 70823, Note_on_c, 0, 61, 39
1, 70832, Note_on_c, 0, 53, 28
1, 70833, Control_c, 0, 64, 87
1, 70848, Control_c, 0, 64, 96
1, 70863, Control_c, 0, 64, 102
1, 70878, Control_c, 0, 64, 104
1, 70888, Note_off_c, 0, 47, 40
1, 70892, Control_c, 0, 64, 106
1, 70907, Control_c, 0, 64, 106
1, 70922, Control_c, 0, 64, 107
1, 70928, Note_off_c, 0, 61, 37
1, 70944, Note_on_c, 0, 62, 46
1, 70973, Note_off_c, 0, 53, 26
1, 70974, Note_off_c, 0, 62, 56
1, 70991, Note_on_c, 0, 61, 52
1, 70996, Control_c, 0, 64, 106
1, 71000, Note_off_c, 0, 40, 39
1, 71011, Control_c, 0, 64, 103
1, 71026, Control_c, 0, 64, 101
1, 71038, Note_off_c, 0, 61, 59
1, 71041, Control_c, 0, 64, 98
1, 71056, Control_c, 0, 64, 97
1, 71057, Note_on_c, 0, 62, 59
1, 71085, Control_c, 0, 64, 98
1, 71097, Note_off_c, 0, 62, 56
1, 71100, Control_c, 0, 64, 100
1, 71115, Control_c, 0, 64, 102
1, 71122, Note_on_c, 0, 61, 64
1, 71129, Control_c, 0, 64, 102
1, 71141, Poly_aftertouch_c, 0, 53, 127
1, 71144, Control_c, 0, 64, 96
1, 71155, Note_off_c, 0, 61, 62
1, 71159, Control_c, 0, 64, 88
1, 71173, Note_on_c, 0, 62, 49
1, 71174, Control_c, 0, 64, 82
1, 71189, Control_c, 0, 64, 81
1, 71203, Control_c, 0, 64, 85
1, 71214, Note_off_c, 0, 62, 61
1, 71218, Control_c, 0, 64, 91
1, 71233, Control_c, 0, 64, 103
1, 71237, Note_on_c, 0, 61, 57
1, 71249, Control_c, 0, 64, 112
1, 71256, Note_off_c, 0, 34, 37
1, 71264, Control_c, 0, 64, 117
1, 71272, Note_off_c, 0, 61, 64
1, 71279, Control_c, 0, 64, 118
1, 71296, Note_on_c, 0, 62, 55
1, 71308, Control_c, 0, 64, 117
1, 71343, Note_off_c, 0, 62, 60
1, 71371, Note_on_c, 0, 61, 61
1, 71406, Note_off_c, 0, 61, 61
1, 71419, Control_c, 0, 64, 116
1, 71434, Control_c, 0, 64, 114
1, 71437, Poly_aftertouch_c, 0, 53, 0
1, 71449, Control_c, 0, 64, 113
1, 71464, Control_c, 0, 64, 113
1, 71555, Note_on_c, 0, 34, 34
1, 71562, Note_on_c, 0, 40, 35
1, 71563, Note_on_c, 0, 47, 35
1, 71582, Control_c, 0, 64, 109
1, 71597, Control_c, 0, 64, 99
1, 71612, Control_c, 0, 64, 86
1, 71626, Control_c, 0, 64, 72
1, 71627, Note_on_c, 0, 53, 43
1, 71641, Control_c, 0, 64, 65
1, 71643, Note_on_c, 0, 61, 39
1, 71656, Control_c, 0, 64, 66
1, 71671, Control_c, 0, 64, 72
1, 71686, Control_c, 0, 64, 81
1, 71688, Note_off_c, 0, 61, 58
1, 71700, Control_c, 0, 64, 95
1, 71715, Control_c, 0, 64, 117
1, 71730, Control_c, 0, 64, 127
1, 71763, Note_on_c, 0, 62, 25
1, 71766, Note_off_c, 0, 53, 0
1, 71797, Note_on_c, 0, 61, 57
1, 71803, Poly_aftertouch_c, 0, 53, 127
1, 71804, Note_off_c, 0, 62, 46
1, 71832, Note_off_c, 0, 61, 61
1, 71850, Note_off_c, 0, 47, 42
1, 71881, Note_on_c, 0, 62, 26
1, 71917, Note_off_c, 0, 62, 51
1, 71918, Note_off_c, 0, 40, 41
1, 71930, Note_on_c, 0, 61, 50
1, 71959, Note_off_c, 0, 61, 60
1, 71977, Note_on_c, 0, 62, 50
1, 72017, Poly_aftertouch_c, 0, 53, 0
1, 72021, Note_off_c, 0, 62, 61
1, 72032, Note_on_c, 0, 61, 47
1, 72074, Note_off_c, 0, 61, 54
1, 72151, Note_on_c, 0, 67, 63
1, 72180, Note_off_c, 0, 67, 64
1, 72256, Poly_aftertouch_c, 0, 65, 0
1, 72267, Note_on_c, 0, 71, 72
1, 72284, Note_off_c, 0, 34, 35
1, 72289, Note_off_c, 0, 71, 71
1, 72293, Note_on_c, 0, 72, 38
1, 72321, Note_off_c, 0, 72, 54
1, 72329, Note_on_c, 0, 76, 81
1, 72334, Note_on_c, 0, 74, 88
1, 72361, Control_c, 0, 64, 106
1, 72375, Control_c, 0, 64, 67
1, 72380, Note_off_c, 0, 74, 63
1, 72383, Note_on_c, 0, 77, 78
1, 72390, Control_c, 0, 64, 0
1, 72405, Control_c, 0, 64, 48
1, 72417, Note_off_c, 0, 76, 58
1, 72420, Control_c, 0, 64, 82
1, 72422, Note_on_c, 0, 79, 84
1, 72435, Control_c, 0, 64, 127
1, 72442, Note_off_c, 0, 77, 65
1, 72457, Note_on_c, 0, 40, 88
1, 72487, Note_off_c, 0, 79, 60
1, 72499, Note_on_c, 0, 77, 72
1, 72511, Note_off_c, 0, 40, 63
1, 72550, Note_on_c, 0, 34, 78
1, 72551, Note_off_c, 0, 77, 64
1, 72552, Note_on_c, 0, 79, 79
1, 72577, Note_off_c, 0, 34, 62
1, 72601, Note_on_c, 0, 77, 65
1, 72604, Note_off_c, 0, 79, 67
1, 72632, Note_on_c, 0, 76, 86
1, 72660, Note_off_c, 0, 77, 60
1, 72670, Note_off_c, 0, 76, 65
1, 72676, Note_on_c, 0, 72, 75
1, 72702, Note_off_c, 0, 72, 67
1, 72763, Note_on_c, 0, 68, 78
1, 72821, Note_off_c, 0, 68, 61
1, 72821, Poly_aftertouch_c, 0, 53, 0
1, 72841, Note_on_c, 0, 59, 93
1, 72848, Note_on_c, 0, 47, 83
1, 72848, Note_on_c, 0, 67, 78
1, 72858, Control_c, 0, 64, 97
1, 72872, Control_c, 0, 64, 75
1, 72887, Control_c, 0, 64, 69
1, 72889, Note_off_c, 0, 67, 54
1, 72902, Control_c, 0, 64, 78
1, 72915, Note_on_c, 0, 68, 70
1, 72917, Control_c, 0, 64, 99
1, 72932, Control_c, 0, 64, 127
1, 72952, Note_off_c, 0, 68, 57
1, 72985, Note_on_c, 0, 67, 62
1, 73002, Note_off_c, 0, 67, 66
1, 73022, Note_on_c, 0, 68, 69
1, 73050, Note_off_c, 0, 59, 53
1, 73057, Note_off_c, 0, 68, 60
1, 73068, Note_on_c, 0, 67, 73
1, 73118, Note_on_c, 0, 68, 81
1, 73122, Note_off_c, 0, 67, 62
1, 73137, Note_off_c, 0, 68, 71
1, 73188, Note_on_c, 0, 72, 78
1, 73207, Note_off_c, 0, 72, 71
1, 73235, Note_on_c, 0, 76, 87
1, 73250, Note_off_c, 0, 47, 57
1, 73292, Note_on_c, 0, 77, 76
1, 73320, Note_off_c, 0, 76, 61
1, 73332, Note_on_c, 0, 79, 81
1, 73340, Note_off_c, 0, 77, 66
1, 73407, Note_off_c, 0, 79, 55
1, 73411, Note_on_c, 0, 77, 72
1, 73454, Note_off_c, 0, 77, 52
1, 73469, Note_on_c, 0, 79, 67
1, 73514, Note_off_c, 0, 79, 64
1, 73519, Note_on_c, 0, 77, 66
1, 73560, Note_on_c, 0, 76, 79
1, 73571, Note_off_c, 0, 77, 60
1, 73582, Note_on_c, 0, 47, 80
1, 73583, Note_on_c, 0, 59, 78
1, 73595, Note_off_c, 0, 76, 62
1, 73605, Note_off_c, 0, 59, 68
1, 73610, Note_on_c, 0, 72, 56
1, 73611, Note_off_c, 0, 47, 67
1, 73630, Note_off_c, 0, 72, 63
1, 73696, Note_on_c, 0, 68, 52
1, 73697, Note_off_c, 0, 68, 127
1, 73714, Note_on_c, 0, 67, 52
1, 73737, Note_off_c, 0, 67, 61
1, 73768, Note_on_c, 0, 65, 33
1, 73784, Control_c, 0, 64, 82
1, 73796, Note_on_c, 0, 68, 77
1, 73799, Control_c, 0, 64, 0
1, 73804, Note_on_c, 0, 67, 53
1, 73808, Note_off_c, 0, 65, 46
1, 73820, Note_on_c, 0, 34, 86
1, 73820, Note_on_c, 0, 40, 93
1, 73829, Control_c, 0, 64, 49
1, 73835, Note_off_c, 0, 67, 64
1, 73844, Note_off_c, 0, 68, 64
1, 73844, Control_c, 0, 64, 93
1, 73858, Control_c, 0, 64, 127
1, 73868, Note_off_c, 0, 34, 62
1, 73873, Note_off_c, 0, 40, 65
1, 73912, Note_on_c, 0, 68, 74
1, 73965, Note_off_c, 0, 68, 61
1, 73973, Note_on_c, 0, 74, 81
1, 74019, Note_on_c, 0, 78, 87
1, 74037, Note_off_c, 0, 74, 66
1, 74044, Note_on_c, 0, 82, 93
1, 74062, Note_off_c, 0, 78, 67
1, 74079, Note_off_c, 0, 82, 64
1, 74114, Note_on_c, 0, 66, 100
1, 74117, Note_on_c, 0, 62, 75
1, 74121, Note_on_c, 0, 56, 86
1, 74173, Note_on_c, 0, 83, 93
1, 74190, Note_off_c, 0, 62, 62
1, 74204, Note_off_c, 0, 66, 63
1, 74212, Note_off_c, 0, 56, 66
1, 74246, Note_on_c, 0, 85, 93
1, 74252, Note_off_c, 0, 83, 59
1, 74303, Note_off_c, 0, 85, 61
1, 74329, Note_on_c, 0, 83, 82
1, 74354, Note_off_c, 0, 83, 67
1, 74389, Note_on_c, 0, 85, 85
1, 74439, Note_off_c, 0, 85, 62
1, 74443, Note_on_c, 0, 83, 83
1, 74483, Note_off_c, 0, 83, 63
1, 74496, Note_on_c, 0, 85, 89
1, 74532, Note_on_c, 0, 83, 60
1, 74535, Note_off_c, 0, 85, 66
1, 74551, Note_off_c, 0, 83, 67
1, 74781, Note_on_c, 0, 70, 63
1, 74785, Control_c, 0, 64, 107
1, 74800, Control_c, 0, 64, 93
1, 74815, Control_c, 0, 64, 82
1, 74830, Control_c, 0, 64, 72
1, 74844, Control_c, 0, 64, 64
1, 74859, Control_c, 0, 64, 47
1, 74874, Control_c, 0, 64, 0
1, 75033, Note_on_c, 0, 71, 44
1, 75042, Note_off_c, 0, 70, 52
1, 75253, Control_c, 0, 64, 43
1, 75268, Control_c, 0, 64, 63
1, 75283, Control_c, 0, 64, 69
1, 75298, Control_c, 0, 64, 75
1, 75313, Control_c, 0, 64, 82
1, 75328, Control_c, 0, 64, 91
1, 75342, Control_c, 0, 64, 99
1, 75357, Control_c, 0, 64, 110
1, 75372, Control_c, 0, 64, 127
1, 75897, Note_off_c, 0, 71, 63
1, 76208, Control_c, 0, 64, 108
1, 76222, Note_on_c, 0, 73, 85
1, 76223, Control_c, 0, 64, 66
1, 76238, Control_c, 0, 64, 0
1, 76258, Note_off_c, 0, 73, 66
1, 76268, Control_c, 0, 64, 69
1, 76282, Control_c, 0, 64, 127
1, 76292, Note_on_c, 0, 74, 96
1, 76294, Note_on_c, 0, 40, 89
1, 76297, Note_on_c, 0, 34, 83
1, 76332, Note_off_c, 0, 34, 63
1, 76337, Note_off_c, 0, 40, 65
1, 76375, Note_on_c, 0, 78, 68
1, 76376, Note_off_c, 0, 78, 127
1, 76383, Note_on_c, 0, 77, 84
1, 76392, Note_off_c, 0, 74, 64
1, 76443, Note_on_c, 0, 82, 91
1, 76448, Note_off_c, 0, 77, 65
1, 76481, Note_off_c, 0, 82, 67
1, 76603, Note_on_c, 0, 66, 98
1, 76607, Note_on_c, 0, 56, 83
1, 76613, Note_on_c, 0, 62, 81
1, 76655, Note_on_c, 0, 83, 97
1, 76697, Note_off_c, 0, 83, 64
1, 76728, Note_on_c, 0, 85, 86
1, 76774, Note_off_c, 0, 85, 63
1, 76807, Note_on_c, 0, 83, 75
1, 76827, Note_off_c, 0, 83, 67
1, 76864, Note_on_c, 0, 85, 84
1, 76902, Note_off_c, 0, 85, 58
1, 76911, Note_on_c, 0, 83, 76
1, 76947, Note_off_c, 0, 83, 65
1, 76985, Note_on_c, 0, 85, 75
1, 77009, Note_off_c, 0, 85, 67
1, 77033, Note_on_c, 0, 83, 73
1, 77063, Note_off_c, 0, 83, 62
1, 77079, Note_on_c, 0, 85, 88
1, 77124, Note_off_c, 0, 85, 65
1, 77137, Note_on_c, 0, 83, 83
1, 77155, Note_off_c, 0, 83, 73
1, 77418, Note_on_c, 0, 70, 76
1, 77778, Note_on_c, 0, 71, 65
1, 77787, Note_off_c, 0, 70, 54
1, 77869, Control_c, 0, 64, 123
1, 77884, Control_c, 0, 64, 118
1, 77899, Control_c, 0, 64, 115
1, 77913, Control_c, 0, 64, 113
1, 77928, Control_c, 0, 64, 111
1, 77943, Control_c, 0, 64, 109
1, 77958, Control_c, 0, 64, 108
1, 77973, Control_c, 0, 64, 106
1, 77987, Control_c, 0, 64, 105
1, 78002, Control_c, 0, 64, 104
1, 78017, Control_c, 0, 64, 103
1, 78032, Control_c, 0, 64, 103
1, 78047, Control_c, 0, 64, 102
1, 78069, Control_c, 0, 64, 102
1, 78830, Note_off_c, 0, 66, 40
1, 79147, Note_off_c, 0, 62, 9
1, 79176, Note_off_c, 0, 56, 36
1, 79279, Control_c, 0, 64, 101
1, 79308, Control_c, 0, 64, 101
1, 79323, Control_c, 0, 64, 100
1, 79338, Control_c, 0, 64, 99
1, 79353, Control_c, 0, 64, 98
1, 79367, Control_c, 0, 64, 98
1, 79382, Control_c, 0, 64, 97
1, 79397, Control_c, 0, 64, 95
1, 79412, Control_c, 0, 64, 94
1, 79427, Control_c, 0, 64, 92
1, 79442, Control_c, 0, 64, 89
1, 79457, Control_c, 0, 64, 87
1, 79471, Control_c, 0, 64, 83
1, 79486, Control_c, 0, 64, 80
1, 79501, Control_c, 0, 64, 75
1, 79516, Control_c, 0, 64, 70
1, 79531, Control_c, 0, 64, 65
1, 79546, Control_c, 0, 64, 62
1, 79567, Control_c, 0, 64, 57
1, 79582, Control_c, 0, 64, 42
1, 79597, Control_c, 0, 64, 0
1, 80612, Control_c, 0, 64, 43
1, 80627, Control_c, 0, 64, 59
1, 80642, Control_c, 0, 64, 64
1, 80656, Control_c, 0, 64, 68
1, 80671, Control_c, 0, 64, 72
1, 80686, Control_c, 0, 64, 77
1, 80701, Control_c, 0, 64, 82
1, 80715, Control_c, 0, 64, 88
1, 80730, Control_c, 0, 64, 96
1, 80745, Control_c, 0, 64, 110
1, 80760, Control_c, 0, 64, 127
1, 81388, Note_on_c, 0, 61, 29
1, 81776, Note_on_c, 0, 62, 10
1, 81957, Note_on_c, 0, 66, 30
1, 82032, Note_off_c, 0, 61, 37
1, 82044, Note_off_c, 0, 62, 37
1, 82196, Note_off_c, 0, 71, 46
1, 82259, Note_on_c, 0, 56, 30
1, 82264, Note_on_c, 0, 62, 18
1, 82489, Note_on_c, 0, 70, 46
1, 82496, Control_c, 0, 64, 116
1, 82511, Control_c, 0, 64, 112
1, 82526, Control_c, 0, 64, 108
1, 82541, Control_c, 0, 64, 104
1, 82563, Control_c, 0, 64, 101
1, 82578, Control_c, 0, 64, 98
1, 82591, Control_c, 0, 64, 96
1, 82606, Control_c, 0, 64, 95
1, 82621, Control_c, 0, 64, 93
1, 82636, Control_c, 0, 64, 92
1, 82650, Control_c, 0, 64, 90
1, 82665, Control_c, 0, 64, 89
1, 82680, Control_c, 0, 64, 89
1, 82695, Control_c, 0, 64, 88
1, 82709, Control_c, 0, 64, 88
1, 82724, Control_c, 0, 64, 87
1, 82739, Control_c, 0, 64, 86
1, 82754, Control_c, 0, 64, 85
1, 82769, Control_c, 0, 64, 84
1, 82783, Control_c, 0, 64, 83
1, 82798, Control_c, 0, 64, 82
1, 82813, Control_c, 0, 64, 81
1, 82828, Control_c, 0, 64, 81
1, 82843, Control_c, 0, 64, 80
1, 82858, Control_c, 0, 64, 80
1, 82932, Control_c, 0, 64, 79
1, 83065, Control_c, 0, 64, 79
1, 83069, Note_on_c, 0, 71, 38
1, 83080, Control_c, 0, 64, 78
1, 83092, Note_off_c, 0, 70, 33
1, 83095, Control_c, 0, 64, 78
1, 83109, Control_c, 0, 64, 77
1, 83124, Control_c, 0, 64, 77
1, 83139, Control_c, 0, 64, 76
1, 83154, Control_c, 0, 64, 76
1, 83169, Control_c, 0, 64, 75
1, 83183, Control_c, 0, 64, 74
1, 83213, Control_c, 0, 64, 74
1, 83229, Control_c, 0, 64, 73
1, 83244, Control_c, 0, 64, 73
1, 83273, Control_c, 0, 64, 72
1, 83340, Control_c, 0, 64, 72
1, 83414, Control_c, 0, 64, 71
1, 83444, Control_c, 0, 64, 71
1, 83518, Control_c, 0, 64, 70
1, 83547, Control_c, 0, 64, 70
1, 83562, Control_c, 0, 64, 69
1, 83577, Control_c, 0, 64, 69
1, 83592, Control_c, 0, 64, 68
1, 83606, Control_c, 0, 64, 68
1, 83621, Control_c, 0, 64, 67
1, 83651, Control_c, 0, 64, 66
1, 83666, Control_c, 0, 64, 65
1, 83680, Control_c, 0, 64, 64
1, 83695, Control_c, 0, 64, 62
1, 83710, Control_c, 0, 64, 60
1, 83725, Control_c, 0, 64, 58
1, 83740, Control_c, 0, 64, 57
1, 83755, Control_c, 0, 64, 57
1, 83799, Control_c, 0, 64, 57
1, 83814, Control_c, 0, 64, 60
1, 83829, Control_c, 0, 64, 63
1, 83843, Control_c, 0, 64, 66
1, 83858, Control_c, 0, 64, 70
1, 83873, Control_c, 0, 64, 75
1, 83888, Control_c, 0, 64, 82
1, 83903, Control_c, 0, 64, 88
1, 83918, Control_c, 0, 64, 93
1, 83932, Control_c, 0, 64, 97
1, 83947, Control_c, 0, 64, 101
1, 83962, Control_c, 0, 64, 107
1, 83977, Control_c, 0, 64, 118
1, 83979, Note_off_c, 0, 62, 38
1, 83992, Control_c, 0, 64, 127
1, 84013, Note_off_c, 0, 56, 38
1, 84089, Note_off_c, 0, 66, 42
1, 84300, Note_on_c, 0, 67, 37
1, 84550, Note_off_c, 0, 67, 41
1, 84646, Note_on_c, 0, 66, 49
1, 84754, Note_on_c, 0, 70, 47
1, 84775, Note_off_c, 0, 71, 39
1, 84809, Note_off_c, 0, 70, 59
1, 84968, Note_on_c, 0, 65, 45
1, 84983, Note_on_c, 0, 59, 35
1, 84988, Note_on_c, 0, 61, 40
1, 85046, Note_off_c, 0, 66, 39
1, 85168, Note_on_c, 0, 70, 55
1, 85283, Control_c, 0, 64, 119
1, 85297, Control_c, 0, 64, 114
1, 85312, Control_c, 0, 64, 110
1, 85327, Control_c, 0, 64, 107
1, 85342, Control_c, 0, 64, 104
1, 85357, Control_c, 0, 64, 102
1, 85371, Control_c, 0, 64, 99
1, 85386, Control_c, 0, 64, 97
1, 85401, Control_c, 0, 64, 96
1, 85416, Control_c, 0, 64, 95
1, 85431, Control_c, 0, 64, 94
1, 85445, Control_c, 0, 64, 93
1, 85460, Control_c, 0, 64, 92
1, 85475, Control_c, 0, 64, 91
1, 85483, Note_on_c, 0, 71, 58
1, 85490, Control_c, 0, 64, 90
1, 85505, Control_c, 0, 64, 89
1, 85520, Control_c, 0, 64, 88
1, 85535, Control_c, 0, 64, 86
1, 85554, Note_off_c, 0, 70, 34
1, 85557, Control_c, 0, 64, 85
1, 85571, Control_c, 0, 64, 83
1, 85586, Control_c, 0, 64, 82
1, 85601, Control_c, 0, 64, 80
1, 85616, Control_c, 0, 64, 79
1, 85632, Control_c, 0, 64, 78
1, 85647, Control_c, 0, 64, 78
1, 85662, Control_c, 0, 64, 77
1, 85676, Control_c, 0, 64, 77
1, 85691, Control_c, 0, 64, 76
1, 85706, Control_c, 0, 64, 76
1, 85720, Control_c, 0, 64, 75
1, 85735, Control_c, 0, 64, 75
1, 85765, Control_c, 0, 64, 74
1, 85824, Control_c, 0, 64, 74
1, 85854, Control_c, 0, 64, 73
1, 85883, Control_c, 0, 64, 72
1, 85898, Control_c, 0, 64, 72
1, 85913, Control_c, 0, 64, 71
1, 85928, Control_c, 0, 64, 70
1, 85943, Control_c, 0, 64, 69
1, 85958, Control_c, 0, 64, 68
1, 85973, Control_c, 0, 64, 68
1, 86032, Control_c, 0, 64, 67
1, 86061, Control_c, 0, 64, 67
1, 86076, Control_c, 0, 64, 66
1, 86091, Control_c, 0, 64, 66
1, 86106, Control_c, 0, 64, 65
1, 86120, Control_c, 0, 64, 63
1, 86135, Control_c, 0, 64, 59
1, 86150, Control_c, 0, 64, 54
1, 86165, Control_c, 0, 64, 53
1, 86180, Control_c, 0, 64, 56
1, 86194, Control_c, 0, 64, 60
1, 86209, Control_c, 0, 64, 63
1, 86224, Control_c, 0, 64, 66
1, 86239, Control_c, 0, 64, 71
1, 86253, Control_c, 0, 64, 77
1, 86268, Control_c, 0, 64, 84
1, 86283, Control_c, 0, 64, 90
1, 86306, Control_c, 0, 64, 94
1, 86321, Control_c, 0, 64, 97
1, 86334, Control_c, 0, 64, 99
1, 86349, Control_c, 0, 64, 103
1, 86364, Control_c, 0, 64, 110
1, 86379, Control_c, 0, 64, 117
1, 86393, Control_c, 0, 64, 127
1, 86405, Note_off_c, 0, 59, 40
1, 86503, Note_off_c, 0, 61, 40
1, 86637, Note_off_c, 0, 65, 42
1, 86795, Note_on_c, 0, 66, 32
1, 86890, Note_on_c, 0, 70, 35
1, 86906, Note_off_c, 0, 71, 35
1, 87095, Note_off_c, 0, 66, 42
1, 87106, Note_on_c, 0, 65, 50
1, 87151, Note_off_c, 0, 70, 36
1, 87231, Note_off_c, 0, 65, 37
1, 87255, Note_on_c, 0, 64, 61
1, 87306, Control_c, 0, 64, 123
1, 87321, Control_c, 0, 64, 118
1, 87336, Control_c, 0, 64, 114
1, 87351, Control_c, 0, 64, 112
1, 87365, Control_c, 0, 64, 110
1, 87380, Control_c, 0, 64, 108
1, 87395, Control_c, 0, 64, 107
1, 87401, Note_on_c, 0, 68, 56
1, 87410, Control_c, 0, 64, 106
1, 87413, Note_on_c, 0, 62, 42
1, 87425, Control_c, 0, 64, 104
1, 87439, Control_c, 0, 64, 103
1, 87454, Control_c, 0, 64, 101
1, 87469, Control_c, 0, 64, 100
1, 87484, Control_c, 0, 64, 98
1, 87493, Note_on_c, 0, 70, 68
1, 87499, Control_c, 0, 64, 96
1, 87514, Control_c, 0, 64, 95
1, 87529, Control_c, 0, 64, 93
1, 87544, Control_c, 0, 64, 91
1, 87559, Control_c, 0, 64, 89
1, 87573, Control_c, 0, 64, 87
1, 87588, Control_c, 0, 64, 85
1, 87603, Control_c, 0, 64, 84
1, 87618, Control_c, 0, 64, 82
1, 87633, Control_c, 0, 64, 81
1, 87647, Control_c, 0, 64, 80
1, 87662, Control_c, 0, 64, 79
1, 87677, Control_c, 0, 64, 79
1, 87691, Control_c, 0, 64, 78
1, 87721, Control_c, 0, 64, 78
1, 87751, Control_c, 0, 64, 77
1, 87765, Control_c, 0, 64, 76
1, 87780, Control_c, 0, 64, 74
1, 87803, Control_c, 0, 64, 73
1, 87818, Control_c, 0, 64, 72
1, 87833, Control_c, 0, 64, 70
1, 87848, Control_c, 0, 64, 69
1, 87863, Control_c, 0, 64, 68
1, 87873, Note_on_c, 0, 71, 56
1, 87878, Control_c, 0, 64, 67
1, 87895, Note_off_c, 0, 70, 50
1, 87907, Control_c, 0, 64, 66
1, 87952, Control_c, 0, 64, 66
1, 87967, Control_c, 0, 64, 65
1, 87981, Control_c, 0, 64, 65
1, 87996, Control_c, 0, 64, 64
1, 88042, Control_c, 0, 64, 64
1, 88071, Control_c, 0, 64, 63
1, 88086, Control_c, 0, 64, 63
1, 88115, Control_c, 0, 64, 62
1, 88130, Control_c, 0, 64, 61
1, 88145, Control_c, 0, 64, 60
1, 88160, Control_c, 0, 64, 59
1, 88175, Control_c, 0, 64, 59
1, 88189, Control_c, 0, 64, 58
1, 88204, Control_c, 0, 64, 56
1, 88219, Control_c, 0, 64, 55
1, 88234, Control_c, 0, 64, 54
1, 88248, Control_c, 0, 64, 53
1, 88263, Control_c, 0, 64, 53
1, 88278, Control_c, 0, 64, 52
1, 88293, Control_c, 0, 64, 50
1, 88308, Control_c, 0, 64, 49
1, 88382, Control_c, 0, 64, 48
1, 88456, Control_c, 0, 64, 49
1, 88501, Control_c, 0, 64, 49
1, 88515, Control_c, 0, 64, 50
1, 88530, Control_c, 0, 64, 50
1, 88552, Control_c, 0, 64, 51
1, 88567, Control_c, 0, 64, 53
1, 88582, Control_c, 0, 64, 57
1, 88596, Control_c, 0, 64, 61
1, 88611, Control_c, 0, 64, 64
1, 88626, Control_c, 0, 64, 67
1, 88641, Control_c, 0, 64, 73
1, 88656, Control_c, 0, 64, 79
1, 88671, Control_c, 0, 64, 86
1, 88685, Control_c, 0, 64, 89
1, 88700, Control_c, 0, 64, 90
1, 88804, Control_c, 0, 64, 89
1, 88849, Control_c, 0, 64, 89
1, 88879, Control_c, 0, 64, 88
1, 88894, Control_c, 0, 64, 88
1, 88909, Control_c, 0, 64, 87
1, 88924, Control_c, 0, 64, 87
1, 88939, Control_c, 0, 64, 86
1, 88953, Control_c, 0, 64, 86
1, 88960, Note_on_c, 0, 70, 27
1, 88968, Control_c, 0, 64, 85
1, 88983, Control_c, 0, 64, 84
1, 88998, Control_c, 0, 64, 84
1, 89013, Control_c, 0, 64, 83
1, 89027, Control_c, 0, 64, 83
1, 89042, Control_c, 0, 64, 82
1, 89048, Note_off_c, 0, 71, 36
1, 89057, Control_c, 0, 64, 81
1, 89071, Control_c, 0, 64, 80
1, 89086, Control_c, 0, 64, 79
1, 89101, Control_c, 0, 64, 78
1, 89106, Note_off_c, 0, 70, 56
1, 89116, Control_c, 0, 64, 77
1, 89131, Control_c, 0, 64, 75
1, 89145, Control_c, 0, 64, 74
1, 89160, Control_c, 0, 64, 73
1, 89175, Control_c, 0, 64, 71
1, 89190, Control_c, 0, 64, 69
1, 89205, Control_c, 0, 64, 67
1, 89219, Control_c, 0, 64, 67
1, 89234, Control_c, 0, 64, 66
1, 89331, Control_c, 0, 64, 66
1, 89360, Control_c, 0, 64, 65
1, 89405, Control_c, 0, 64, 65
1, 89523, Control_c, 0, 64, 65
1, 89612, Control_c, 0, 64, 66
1, 89628, Control_c, 0, 64, 66
1, 89642, Control_c, 0, 64, 67
1, 89657, Control_c, 0, 64, 68
1, 89672, Control_c, 0, 64, 69
1, 89687, Control_c, 0, 64, 72
1, 89702, Control_c, 0, 64, 76
1, 89717, Control_c, 0, 64, 83
1, 89732, Control_c, 0, 64, 91
1, 89747, Control_c, 0, 64, 98
1, 89762, Control_c, 0, 64, 104
1, 89776, Control_c, 0, 64, 109
1, 89791, Control_c, 0, 64, 113
1, 89806, Control_c, 0, 64, 119
1, 89821, Control_c, 0, 64, 127
1, 89888, Note_on_c, 0, 70, 33
1, 90080, Control_c, 0, 64, 126
1, 90094, Control_c, 0, 64, 123
1, 90109, Control_c, 0, 64, 120
1, 90124, Control_c, 0, 64, 119
1, 90139, Control_c, 0, 64, 117
1, 90154, Control_c, 0, 64, 116
1, 90168, Control_c, 0, 64, 114
1, 90183, Control_c, 0, 64, 113
1, 90198, Control_c, 0, 64, 112
1, 90212, Control_c, 0, 64, 112
1, 90227, Control_c, 0, 64, 111
1, 90242, Control_c, 0, 64, 110
1, 90257, Control_c, 0, 64, 109
1, 90272, Control_c, 0, 64, 108
1, 90286, Control_c, 0, 64, 108
1, 90301, Control_c, 0, 64, 107
1, 90316, Control_c, 0, 64, 107
1, 90322, Note_on_c, 0, 71, 34
1, 90331, Control_c, 0, 64, 106
1, 90346, Control_c, 0, 64, 106
1, 90361, Control_c, 0, 64, 105
1, 90376, Control_c, 0, 64, 104
1, 90391, Control_c, 0, 64, 103
1, 90405, Control_c, 0, 64, 102
1, 90421, Control_c, 0, 64, 101
1, 90436, Control_c, 0, 64, 100
1, 90451, Control_c, 0, 64, 98
1, 90464, Note_off_c, 0, 70, 40
1, 90465, Control_c, 0, 64, 96
1, 90480, Control_c, 0, 64, 95
1, 90495, Control_c, 0, 64, 93
1, 90510, Control_c, 0, 64, 92
1, 90525, Control_c, 0, 64, 91
1, 90540, Control_c, 0, 64, 89
1, 90554, Control_c, 0, 64, 87
1, 90569, Control_c, 0, 64, 86
1, 90584, Control_c, 0, 64, 84
1, 90599, Control_c, 0, 64, 82
1, 90614, Control_c, 0, 64, 81
1, 90629, Control_c, 0, 64, 79
1, 90643, Control_c, 0, 64, 77
1, 90658, Control_c, 0, 64, 75
1, 90673, Control_c, 0, 64, 73
1, 90688, Control_c, 0, 64, 71
1, 90703, Control_c, 0, 64, 69
1, 90717, Control_c, 0, 64, 66
1, 90732, Control_c, 0, 64, 64
1, 90747, Control_c, 0, 64, 63
1, 90762, Control_c, 0, 64, 62
1, 90777, Control_c, 0, 64, 61
1, 90799, Control_c, 0, 64, 58
1, 90814, Control_c, 0, 64, 53
1, 90829, Control_c, 0, 64, 38
1, 90843, Control_c, 0, 64, 0
1, 91006, Control_c, 0, 64, 56
1, 91021, Control_c, 0, 64, 68
1, 91035, Control_c, 0, 64, 75
1, 91050, Control_c, 0, 64, 83
1, 91065, Control_c, 0, 64, 91
1, 91080, Control_c, 0, 64, 97
1, 91095, Control_c, 0, 64, 101
1, 91109, Control_c, 0, 64, 105
1, 91124, Control_c, 0, 64, 109
1, 91139, Control_c, 0, 64, 117
1, 91154, Control_c, 0, 64, 127
1, 91763, Note_off_c, 0, 64, 41
1, 91784, Note_off_c, 0, 68, 37
1, 92125, Note_on_c, 0, 70, 20
1, 92134, Note_off_c, 0, 62, 35
1, 92293, Note_off_c, 0, 71, 26
1, 92448, Note_off_c, 0, 70, 43
1, 92915, Note_on_c, 0, 68, 39
1, 92942, Note_on_c, 0, 64, 28
1, 93134, Control_c, 0, 64, 123
1, 93149, Control_c, 0, 64, 118
1, 93164, Control_c, 0, 64, 115
1, 93179, Control_c, 0, 64, 112
1, 93193, Control_c, 0, 64, 110
1, 93204, Note_on_c, 0, 70, 38
1, 93208, Control_c, 0, 64, 107
1, 93223, Control_c, 0, 64, 105
1, 93237, Control_c, 0, 64, 102
1, 93252, Control_c, 0, 64, 100
1, 93267, Control_c, 0, 64, 98
1, 93282, Control_c, 0, 64, 96
1, 93297, Control_c, 0, 64, 93
1, 93312, Control_c, 0, 64, 92
1, 93327, Control_c, 0, 64, 91
1, 93342, Control_c, 0, 64, 90
1, 93357, Control_c, 0, 64, 89
1, 93371, Control_c, 0, 64, 88
1, 93386, Control_c, 0, 64, 86
1, 93401, Control_c, 0, 64, 85
1, 93416, Control_c, 0, 64, 83
1, 93431, Control_c, 0, 64, 82
1, 93445, Control_c, 0, 64, 81
1, 93460, Control_c, 0, 64, 81
1, 93475, Control_c, 0, 64, 80
1, 93490, Control_c, 0, 64, 79
1, 93505, Control_c, 0, 64, 78
1, 93519, Control_c, 0, 64, 77
1, 93549, Control_c, 0, 64, 77
1, 93564, Control_c, 0, 64, 76
1, 93589, Note_on_c, 0, 71, 38
1, 93593, Control_c, 0, 64, 76
1, 93643, Note_off_c, 0, 70, 36
1, 93653, Control_c, 0, 64, 75
1, 93742, Control_c, 0, 64, 75
1, 93772, Control_c, 0, 64, 74
1, 93795, Control_c, 0, 64, 74
1, 93824, Control_c, 0, 64, 73
1, 93839, Control_c, 0, 64, 72
1, 93854, Control_c, 0, 64, 72
1, 93868, Control_c, 0, 64, 71
1, 93883, Control_c, 0, 64, 70
1, 93898, Control_c, 0, 64, 69
1, 93913, Control_c, 0, 64, 68
1, 93928, Control_c, 0, 64, 68
1, 93957, Control_c, 0, 64, 67
1, 93972, Control_c, 0, 64, 67
1, 93987, Control_c, 0, 64, 66
1, 94002, Control_c, 0, 64, 66
1, 94016, Control_c, 0, 64, 65
1, 94046, Control_c, 0, 64, 65
1, 94060, Control_c, 0, 64, 64
1, 94209, Control_c, 0, 64, 65
1, 94224, Control_c, 0, 64, 65
1, 94239, Control_c, 0, 64, 66
1, 94254, Control_c, 0, 64, 69
1, 94268, Control_c, 0, 64, 71
1, 94283, Control_c, 0, 64, 75
1, 94298, Control_c, 0, 64, 79
1, 94313, Control_c, 0, 64, 82
1, 94328, Control_c, 0, 64, 84
1, 94342, Control_c, 0, 64, 87
1, 94357, Control_c, 0, 64, 90
1, 94372, Control_c, 0, 64, 94
1, 94386, Control_c, 0, 64, 97
1, 94401, Control_c, 0, 64, 100
1, 94418, Control_c, 0, 64, 102
1, 94432, Control_c, 0, 64, 106
1, 94447, Control_c, 0, 64, 112
1, 94462, Control_c, 0, 64, 127
1, 94548, Note_off_c, 0, 64, 31
1, 94761, Note_on_c, 0, 70, 34
1, 94761, Note_off_c, 0, 71, 39
1, 94923, Note_off_c, 0, 70, 42
1, 94942, Note_off_c, 0, 68, 23
1, 95136, Note_on_c, 0, 67, 39
1, 95157, Note_on_c, 0, 65, 29
1, 95268, Note_on_c, 0, 71, 41
1, 95395, Control_c, 0, 64, 117
1, 95410, Control_c, 0, 64, 112
1, 95425, Control_c, 0, 64, 108
1, 95439, Control_c, 0, 64, 104
1, 95454, Control_c, 0, 64, 102
1, 95469, Control_c, 0, 64, 99
1, 95484, Control_c, 0, 64, 97
1, 95499, Control_c, 0, 64, 95
1, 95513, Control_c, 0, 64, 93
1, 95528, Control_c, 0, 64, 91
1, 95543, Control_c, 0, 64, 91
1, 95546, Note_on_c, 0, 74, 61
1, 95646, Control_c, 0, 64, 90
1, 95705, Control_c, 0, 64, 90
1, 95720, Control_c, 0, 64, 89
1, 95735, Control_c, 0, 64, 89
1, 95750, Control_c, 0, 64, 88
1, 95765, Control_c, 0, 64, 88
1, 95780, Control_c, 0, 64, 87
1, 95795, Control_c, 0, 64, 86
1, 95797, Note_on_c, 0, 76, 49
1, 95810, Control_c, 0, 64, 85
1, 95824, Control_c, 0, 64, 85
1, 95825, Note_off_c, 0, 74, 38
1, 95839, Control_c, 0, 64, 84
1, 95854, Control_c, 0, 64, 83
1, 95869, Control_c, 0, 64, 81
1, 95884, Control_c, 0, 64, 80
1, 95898, Control_c, 0, 64, 78
1, 95913, Control_c, 0, 64, 77
1, 95928, Control_c, 0, 64, 76
1, 95943, Control_c, 0, 64, 76
1, 95987, Control_c, 0, 64, 75
1, 96018, Control_c, 0, 64, 74
1, 96040, Control_c, 0, 64, 74
1, 96055, Control_c, 0, 64, 73
1, 96069, Control_c, 0, 64, 73
1, 96084, Control_c, 0, 64, 72
1, 96099, Control_c, 0, 64, 71
1, 96114, Control_c, 0, 64, 71
1, 96129, Control_c, 0, 64, 70
1, 96144, Control_c, 0, 64, 69
1, 96159, Control_c, 0, 64, 68
1, 96173, Control_c, 0, 64, 67
1, 96188, Control_c, 0, 64, 65
1, 96203, Control_c, 0, 64, 63
1, 96218, Control_c, 0, 64, 61
1, 96248, Control_c, 0, 64, 62
1, 96262, Control_c, 0, 64, 64
1, 96277, Control_c, 0, 64, 66
1, 96292, Control_c, 0, 64, 72
1, 96307, Control_c, 0, 64, 80
1, 96322, Control_c, 0, 64, 92
1, 96336, Control_c, 0, 64, 111
1, 96351, Control_c, 0, 64, 127
1, 96511, Note_off_c, 0, 67, 39
1, 96546, Note_off_c, 0, 71, 45
1, 96549, Note_off_c, 0, 65, 41
1, 96994, Note_on_c, 0, 74, 36
1, 97107, Note_off_c, 0, 76, 43
1, 97172, Note_off_c, 0, 74, 29
1, 97519, Note_on_c, 0, 68, 39
1, 97530, Note_on_c, 0, 70, 40
1, 97547, Note_on_c, 0, 74, 25
1, 97596, Control_c, 0, 64, 124
1, 97612, Control_c, 0, 64, 115
1, 97626, Control_c, 0, 64, 112
1, 97641, Control_c, 0, 64, 110
1, 97656, Control_c, 0, 64, 110
1, 97671, Control_c, 0, 64, 109
1, 97715, Control_c, 0, 64, 106
1, 97730, Control_c, 0, 64, 93
1, 97745, Control_c, 0, 64, 75
1, 97760, Control_c, 0, 64, 0
1, 97819, Control_c, 0, 64, 14
1, 97834, Control_c, 0, 64, 65
1, 97849, Control_c, 0, 64, 80
1, 97864, Control_c, 0, 64, 105
1, 97879, Control_c, 0, 64, 127
1, 98017, Note_on_c, 0, 79, 59
1, 98066, Note_off_c, 0, 79, 57
1, 98125, Note_off_c, 0, 74, 42
1, 98193, Note_off_c, 0, 70, 15
1, 99211, Note_off_c, 0, 68, 38
1, 99494, Control_c, 0, 64, 121
1, 99509, Control_c, 0, 64, 115
1, 99524, Control_c, 0, 64, 112
1, 99539, Control_c, 0, 64, 110
1, 99554, Control_c, 0, 64, 108
1, 99569, Control_c, 0, 64, 106
1, 99584, Control_c, 0, 64, 103
1, 99598, Control_c, 0, 64, 101
1, 99613, Control_c, 0, 64, 98
1, 99628, Control_c, 0, 64, 96
1, 99643, Control_c, 0, 64, 94
1, 99658, Control_c, 0, 64, 93
1, 99672, Control_c, 0, 64, 92
1, 99675, Note_on_c, 0, 74, 37
1, 99687, Control_c, 0, 64, 91
1, 99702, Control_c, 0, 64, 90
1, 99717, Control_c, 0, 64, 90
1, 99732, Control_c, 0, 64, 89
1, 99783, Control_c, 0, 64, 89
1, 99798, Control_c, 0, 64, 88
1, 99828, Control_c, 0, 64, 88
1, 99858, Control_c, 0, 64, 87
1, 99873, Control_c, 0, 64, 87
1, 99887, Control_c, 0, 64, 86
1, 99902, Control_c, 0, 64, 85
1, 99917, Control_c, 0, 64, 84
1, 99932, Control_c, 0, 64, 83
1, 99947, Control_c, 0, 64, 82
1, 99961, Control_c, 0, 64, 81
1, 99976, Control_c, 0, 64, 81
1, 99991, Control_c, 0, 64, 80
1, 100007, Control_c, 0, 64, 80
1, 100009, Note_off_c, 0, 74, 39
1, 100043, Note_on_c, 0, 72, 27
1, 100051, Control_c, 0, 64, 79
1, 100199, Control_c, 0, 64, 79
1, 100228, Control_c, 0, 64, 78
1, 100235, Note_off_c, 0, 72, 39
1, 100238, Note_on_c, 0, 67, 32
1, 100243, Control_c, 0, 64, 78
1, 100258, Control_c, 0, 64, 77
1, 100273, Control_c, 0, 64, 77
1, 100288, Control_c, 0, 64, 76
1, 100302, Control_c, 0, 64, 75
1, 100317, Control_c, 0, 64, 73
1, 100332, Control_c, 0, 64, 71
1, 100347, Control_c, 0, 64, 68
1, 100362, Control_c, 0, 64, 66
1, 100377, Control_c, 0, 64, 65
1, 100391, Control_c, 0, 64, 64
1, 100406, Control_c, 0, 64, 64
1, 100421, Control_c, 0, 64, 63
1, 100436, Control_c, 0, 64, 61
1, 100451, Control_c, 0, 64, 59
1, 100466, Control_c, 0, 64, 55
1, 100481, Control_c, 0, 64, 48
1, 100495, Control_c, 0, 64, 0
1, 100581, Note_on_c, 0, 68, 29
1, 100588, Note_off_c, 0, 67, 37
1, 100673, Note_off_c, 0, 68, 51
1, 100706, Note_on_c, 0, 71, 37
1, 101786, Control_c, 0, 64, 42
1, 101800, Control_c, 0, 64, 65
1, 101815, Control_c, 0, 64, 71
1, 101830, Control_c, 0, 64, 76
1, 101845, Control_c, 0, 64, 85
1, 101860, Control_c, 0, 64, 99
1, 101874, Control_c, 0, 64, 127
1, 102074, Note_on_c, 0, 68, 34
1, 102122, Note_off_c, 0, 68, 56
1, 102564, Note_on_c, 0, 68, 40
1, 102600, Note_off_c, 0, 68, 61
1, 102631, Note_off_c, 0, 71, 56
1, 102805, Note_on_c, 0, 72, 35
1, 102818, Note_on_c, 0, 68, 29
1, 103000, Note_off_c, 0, 72, 0
1, 103000, Note_on_c, 0, 72, 8
1, 103001, Control_c, 0, 64, 117
1, 103016, Control_c, 0, 64, 110
1, 103021, Note_on_c, 0, 74, 57
1, 103030, Control_c, 0, 64, 106
1, 103045, Control_c, 0, 64, 103
1, 103060, Control_c, 0, 64, 100
1, 103075, Control_c, 0, 64, 98
1, 103090, Control_c, 0, 64, 96
1, 103104, Control_c, 0, 64, 95
1, 103134, Control_c, 0, 64, 95
1, 103238, Control_c, 0, 64, 94
1, 103253, Control_c, 0, 64, 94
1, 103268, Control_c, 0, 64, 93
1, 103283, Control_c, 0, 64, 92
1, 103298, Control_c, 0, 64, 92
1, 103313, Control_c, 0, 64, 91
1, 103328, Control_c, 0, 64, 90
1, 103343, Control_c, 0, 64, 89
1, 103354, Note_on_c, 0, 75, 59
1, 103357, Control_c, 0, 64, 88
1, 103372, Control_c, 0, 64, 86
1, 103387, Control_c, 0, 64, 85
1, 103402, Control_c, 0, 64, 83
1, 103417, Control_c, 0, 64, 81
1, 103432, Control_c, 0, 64, 80
1, 103444, Note_off_c, 0, 74, 36
1, 103446, Control_c, 0, 64, 78
1, 103461, Control_c, 0, 64, 75
1, 103476, Control_c, 0, 64, 73
1, 103491, Control_c, 0, 64, 72
1, 103506, Control_c, 0, 64, 70
1, 103527, Control_c, 0, 64, 68
1, 103542, Control_c, 0, 64, 68
1, 103691, Control_c, 0, 64, 68
1, 103780, Control_c, 0, 64, 69
1, 103795, Control_c, 0, 64, 70
1, 103810, Control_c, 0, 64, 73
1, 103825, Control_c, 0, 64, 80
1, 103840, Control_c, 0, 64, 92
1, 103854, Control_c, 0, 64, 127
1, 103988, Note_off_c, 0, 72, 45
1, 104279, Note_off_c, 0, 68, 32
1, 104466, Note_on_c, 0, 74, 65
1, 104503, Note_off_c, 0, 75, 53
1, 104718, Note_on_c, 0, 71, 45
1, 104728, Note_on_c, 0, 69, 38
1, 104828, Note_on_c, 0, 75, 67
1, 104839, Note_off_c, 0, 74, 34
1, 104959, Control_c, 0, 64, 118
1, 104974, Control_c, 0, 64, 112
1, 104989, Control_c, 0, 64, 107
1, 105004, Control_c, 0, 64, 103
1, 105026, Control_c, 0, 64, 99
1, 105041, Control_c, 0, 64, 96
1, 105055, Control_c, 0, 64, 93
1, 105070, Control_c, 0, 64, 91
1, 105085, Control_c, 0, 64, 89
1, 105099, Control_c, 0, 64, 86
1, 105107, Note_on_c, 0, 78, 61
1, 105114, Control_c, 0, 64, 84
1, 105129, Control_c, 0, 64, 81
1, 105143, Control_c, 0, 64, 78
1, 105158, Control_c, 0, 64, 76
1, 105173, Control_c, 0, 64, 73
1, 105188, Control_c, 0, 64, 70
1, 105203, Control_c, 0, 64, 68
1, 105218, Control_c, 0, 64, 66
1, 105232, Control_c, 0, 64, 66
1, 105292, Control_c, 0, 64, 65
1, 105307, Control_c, 0, 64, 65
1, 105337, Control_c, 0, 64, 64
1, 105338, Note_on_c, 0, 80, 49
1, 105366, Control_c, 0, 64, 64
1, 105387, Note_off_c, 0, 78, 46
1, 105425, Control_c, 0, 64, 63
1, 105440, Control_c, 0, 64, 63
1, 105455, Control_c, 0, 64, 62
1, 105470, Control_c, 0, 64, 61
1, 105485, Control_c, 0, 64, 58
1, 105499, Control_c, 0, 64, 50
1, 105514, Control_c, 0, 64, 0
1, 105634, Control_c, 0, 64, 58
1, 105648, Control_c, 0, 64, 72
1, 105663, Control_c, 0, 64, 85
1, 105678, Control_c, 0, 64, 106
1, 105693, Control_c, 0, 64, 127
1, 105990, Note_off_c, 0, 69, 32
1, 106004, Note_off_c, 0, 71, 20
1, 106231, Note_off_c, 0, 75, 33
1, 106674, Note_on_c, 0, 78, 38
1, 106983, Note_off_c, 0, 78, 43
1, 107030, Note_off_c, 0, 80, 41
1, 107364, Note_on_c, 0, 78, 37
1, 107366, Note_on_c, 0, 74, 37
1, 107381, Note_on_c, 0, 72, 24
1, 107510, Control_c, 0, 64, 123
1, 107525, Control_c, 0, 64, 107
1, 107539, Control_c, 0, 64, 93
1, 107554, Control_c, 0, 64, 73
1, 107569, Control_c, 0, 64, 31
1, 107584, Control_c, 0, 64, 0
1, 107643, Control_c, 0, 64, 61
1, 107658, Control_c, 0, 64, 76
1, 107673, Control_c, 0, 64, 95
1, 107687, Control_c, 0, 64, 127
1, 107856, Note_off_c, 0, 78, 43
1, 107879, Note_on_c, 0, 83, 50
1, 107902, Note_off_c, 0, 83, 64
1, 107948, Note_off_c, 0, 74, 45
1, 108761, Note_off_c, 0, 72, 52
1, 109591, Note_on_c, 0, 78, 37
1, 110049, Note_off_c, 0, 78, 38
1, 110058, Note_on_c, 0, 76, 36
1, 110291, Note_on_c, 0, 71, 41
1, 110296, Control_c, 0, 64, 123
1, 110311, Control_c, 0, 64, 116
1, 110324, Note_off_c, 0, 76, 37
1, 110326, Control_c, 0, 64, 112
1, 110340, Control_c, 0, 64, 108
1, 110355, Control_c, 0, 64, 105
1, 110370, Control_c, 0, 64, 102
1, 110386, Control_c, 0, 64, 99
1, 110401, Control_c, 0, 64, 95
1, 110416, Control_c, 0, 64, 91
1, 110431, Control_c, 0, 64, 88
1, 110445, Control_c, 0, 64, 84
1, 110460, Control_c, 0, 64, 80
1, 110475, Control_c, 0, 64, 76
1, 110490, Control_c, 0, 64, 73
1, 110505, Control_c, 0, 64, 70
1, 110519, Control_c, 0, 64, 69
1, 110534, Control_c, 0, 64, 68
1, 110687, Note_on_c, 0, 72, 43
1, 110711, Control_c, 0, 64, 69
1, 110737, Note_off_c, 0, 71, 33
1, 110807, Note_off_c, 0, 72, 52
1, 110816, Control_c, 0, 64, 68
1, 110817, Note_on_c, 0, 75, 43
1, 110919, Control_c, 0, 64, 68
1, 111075, Control_c, 0, 64, 67
1, 111134, Control_c, 0, 64, 67
1, 111178, Control_c, 0, 64, 66
1, 111209, Control_c, 0, 64, 66
1, 111239, Control_c, 0, 64, 65
1, 111268, Control_c, 0, 64, 65
1, 111342, Control_c, 0, 64, 64
1, 111764, Control_c, 0, 64, 65
1, 111793, Control_c, 0, 64, 65
1, 111808, Control_c, 0, 64, 66
1, 111838, Control_c, 0, 64, 66
1, 111853, Control_c, 0, 64, 67
1, 111867, Control_c, 0, 64, 68
1, 111882, Control_c, 0, 64, 69
1, 111897, Control_c, 0, 64, 71
1, 111911, Control_c, 0, 64, 73
1, 111926, Control_c, 0, 64, 75
1, 111941, Control_c, 0, 64, 78
1, 111956, Control_c, 0, 64, 81
1, 111971, Control_c, 0, 64, 85
1, 111987, Control_c, 0, 64, 89
1, 112002, Control_c, 0, 64, 93
1, 112016, Control_c, 0, 64, 98
1, 112031, Control_c, 0, 64, 105
1, 112046, Control_c, 0, 64, 112
1, 112061, Control_c, 0, 64, 127
1, 112436, Note_on_c, 0, 84, 40
1, 112468, Note_off_c, 0, 84, 53
1, 112783, Note_on_c, 0, 84, 66
1, 112805, Note_off_c, 0, 75, 60
1, 112807, Note_off_c, 0, 84, 68
1, 112980, Note_on_c, 0, 84, 62
1, 113007, Note_off_c, 0, 84, 65
1, 113033, Note_on_c, 0, 86, 66
1, 113067, Note_off_c, 0, 86, 60
1, 113091, Note_on_c, 0, 84, 71
1, 113116, Note_off_c, 0, 84, 62
1, 113146, Note_on_c, 0, 86, 72
1, 113171, Note_off_c, 0, 86, 65
1, 113186, Note_on_c, 0, 71, 71
1, 113197, Note_on_c, 0, 84, 72
1, 113213, Note_off_c, 0, 84, 70
1, 113255, Note_on_c, 0, 86, 70
1, 113273, Note_off_c, 0, 86, 66
1, 113288, Note_off_c, 0, 71, 49
1, 113303, Note_on_c, 0, 84, 66
1, 113333, Note_off_c, 0, 84, 58
1, 113349, Note_on_c, 0, 66, 53
1, 113350, Note_on_c, 0, 86, 64
1, 113374, Note_off_c, 0, 66, 63
1, 113382, Note_off_c, 0, 86, 60
1, 113416, Note_on_c, 0, 84, 66
1, 113431, Note_off_c, 0, 84, 68
1, 113472, Note_on_c, 0, 86, 59
1, 113481, Note_on_c, 0, 60, 40
1, 113491, Note_off_c, 0, 86, 63
1, 113516, Note_on_c, 0, 84, 62
1, 113528, Note_off_c, 0, 60, 56
1, 113545, Note_off_c, 0, 84, 66
1, 113561, Note_on_c, 0, 86, 67
1, 113596, Note_off_c, 0, 86, 59
1, 113612, Note_on_c, 0, 50, 37
1, 113627, Note_on_c, 0, 84, 58
1, 113645, Note_off_c, 0, 84, 64
1, 113649, Note_off_c, 0, 50, 54
1, 113688, Note_on_c, 0, 86, 53
1, 113710, Note_off_c, 0, 86, 61
1, 113721, Note_on_c, 0, 84, 61
1, 113745, Note_off_c, 0, 84, 68
1, 113990, Note_on_c, 0, 66, 64
1, 114133, Note_off_c, 0, 66, 59
1, 114139, Note_on_c, 0, 64, 68
1, 114262, Note_off_c, 0, 64, 61
1, 114268, Note_on_c, 0, 59, 54
1, 114321, Control_c, 0, 64, 114
1, 114336, Control_c, 0, 64, 108
1, 114351, Control_c, 0, 64, 103
1, 114366, Control_c, 0, 64, 99
1, 114382, Control_c, 0, 64, 96
1, 114396, Control_c, 0, 64, 92
1, 114411, Control_c, 0, 64, 89
1, 114426, Control_c, 0, 64, 86
1, 114441, Control_c, 0, 64, 83
1, 114456, Control_c, 0, 64, 79
1, 114458, Note_off_c, 0, 59, 49
1, 114471, Control_c, 0, 64, 74
1, 114478, Note_on_c, 0, 41, 39
1, 114485, Control_c, 0, 64, 69
1, 114500, Control_c, 0, 64, 61
1, 114505, Note_on_c, 0, 60, 40
1, 114515, Control_c, 0, 64, 0
1, 114602, Note_off_c, 0, 60, 54
1, 114623, Note_on_c, 0, 47, 38
1, 114670, Note_on_c, 0, 63, 41
1, 114678, Control_c, 0, 64, 61
1, 114680, Note_on_c, 0, 57, 13
1, 114693, Control_c, 0, 64, 74
1, 114708, Control_c, 0, 64, 91
1, 114722, Control_c, 0, 64, 127
1, 114724, Note_off_c, 0, 47, 54
1, 114732, Note_off_c, 0, 57, 49
1, 114740, Note_off_c, 0, 41, 39
1, 114769, Note_off_c, 0, 63, 60
1, 114960, Note_on_c, 0, 67, 73
1, 115044, Note_on_c, 0, 69, 54
1, 115084, Note_off_c, 0, 67, 60
1, 115085, Note_on_c, 0, 74, 55
1, 115145, Note_on_c, 0, 75, 63
1, 115162, Note_off_c, 0, 74, 56
1, 115204, Note_off_c, 0, 69, 41
1, 115220, Note_off_c, 0, 75, 54
1, 115272, Poly_aftertouch_c, 0, 63, 127
1, 115301, Note_on_c, 0, 66, 62
1, 115347, Poly_aftertouch_c, 0, 63, 0
1, 115464, Note_on_c, 0, 69, 46
1, 115527, Note_on_c, 0, 74, 47
1, 115582, Note_off_c, 0, 74, 57
1, 115595, Note_on_c, 0, 75, 55
1, 115599, Note_off_c, 0, 66, 28
1, 115606, Note_off_c, 0, 69, 35
1, 115642, Note_off_c, 0, 75, 51
1, 115766, Note_on_c, 0, 65, 47
1, 115807, Note_off_c, 0, 65, 62
1, 115913, Note_on_c, 0, 69, 35
1, 115974, Note_on_c, 0, 74, 46
1, 116030, Note_off_c, 0, 74, 59
1, 116033, Note_on_c, 0, 75, 44
1, 116049, Note_off_c, 0, 69, 44
1, 116058, Note_off_c, 0, 75, 58
1, 116273, Note_on_c, 0, 38, 48
1, 116280, Note_on_c, 0, 50, 43
1, 116301, Control_c, 0, 64, 85
1, 116316, Control_c, 0, 64, 62
1, 116326, Note_off_c, 0, 38, 62
1, 116331, Control_c, 0, 64, 0
1, 116346, Control_c, 0, 64, 50
1, 116361, Control_c, 0, 64, 67
1, 116370, Note_off_c, 0, 50, 64
1, 116375, Control_c, 0, 64, 81
1, 116387, Note_on_c, 0, 64, 48
1, 116390, Control_c, 0, 64, 117
1, 116396, Note_on_c, 0, 54, 40
1, 116405, Note_on_c, 0, 60, 38
1, 116405, Control_c, 0, 64, 127
1, 116424, Note_off_c, 0, 64, 65
1, 116429, Note_off_c, 0, 54, 55
1, 116433, Note_off_c, 0, 60, 59
1, 116514, Note_on_c, 0, 50, 43
1, 116561, Note_off_c, 0, 50, 62
1, 116588, Note_on_c, 0, 60, 56
1, 116641, Note_off_c, 0, 60, 56
1, 116668, Note_on_c, 0, 66, 71
1, 116693, Note_off_c, 0, 66, 67
1, 116835, Note_on_c, 0, 76, 63
1, 116846, Note_on_c, 0, 64, 47
1, 116905, Note_on_c, 0, 83, 83
1, 116918, Note_off_c, 0, 76, 58
1, 117009, Note_on_c, 0, 72, 50
1, 117031, Note_off_c, 0, 72, 62
1, 117064, Note_off_c, 0, 64, 49
1, 117064, Note_on_c, 0, 66, 43
1, 117091, Note_off_c, 0, 66, 56
1, 117148, Note_on_c, 0, 60, 55
1, 117177, Note_off_c, 0, 60, 63
1, 117229, Note_on_c, 0, 50, 65
1, 117258, Note_off_c, 0, 50, 66
1, 117429, Note_on_c, 0, 78, 79
1, 117453, Note_off_c, 0, 83, 35
1, 117579, Note_on_c, 0, 76, 79
1, 117587, Note_off_c, 0, 78, 59
1, 117682, Note_off_c, 0, 76, 58
1, 117704, Note_on_c, 0, 71, 66
1, 117887, Note_off_c, 0, 71, 53
1, 117925, Note_on_c, 0, 72, 60
1, 117942, Note_on_c, 0, 53, 50
1, 117962, Control_c, 0, 64, 102
1, 117977, Control_c, 0, 64, 68
1, 117992, Control_c, 0, 64, 0
1, 118003, Note_off_c, 0, 72, 57
1, 118068, Note_on_c, 0, 75, 51
1, 118071, Note_on_c, 0, 69, 47
1, 118073, Note_on_c, 0, 59, 39
1, 118095, Control_c, 0, 64, 71
1, 118097, Note_off_c, 0, 69, 59
1, 118110, Control_c, 0, 64, 102
1, 118111, Note_off_c, 0, 53, 56
1, 118112, Note_off_c, 0, 59, 62
1, 118115, Note_off_c, 0, 75, 59
1, 118125, Control_c, 0, 64, 127
1, 118327, Note_on_c, 0, 79, 81
1, 118363, Note_on_c, 0, 81, 55
1, 118390, Note_on_c, 0, 83, 67
1, 118403, Note_off_c, 0, 81, 54
1, 118433, Note_off_c, 0, 79, 62
1, 118438, Note_on_c, 0, 86, 67
1, 118460, Note_off_c, 0, 83, 62
1, 118482, Note_on_c, 0, 87, 69
1, 118498, Note_off_c, 0, 86, 64
1, 118605, Note_on_c, 0, 78, 80
1, 118767, Note_off_c, 0, 87, 14
1, 118801, Note_on_c, 0, 81, 58
1, 118820, Note_off_c, 0, 78, 39
1, 118840, Note_on_c, 0, 83, 53
1, 118860, Note_off_c, 0, 81, 54
1, 118888, Note_on_c, 0, 86, 58
1, 118895, Note_off_c, 0, 83, 62
1, 118924, Note_on_c, 0, 87, 60
1, 118932, Note_off_c, 0, 86, 58
1, 119025, Note_on_c, 0, 77, 62
1, 119043, Note_off_c, 0, 77, 65
1, 119070, Note_off_c, 0, 87, 35
1, 119201, Note_on_c, 0, 81, 53
1, 119249, Note_on_c, 0, 83, 50
1, 119255, Note_off_c, 0, 81, 57
1, 119299, Note_on_c, 0, 86, 46
1, 119312, Control_c, 0, 64, 101
1, 119317, Note_off_c, 0, 83, 60
1, 119326, Note_on_c, 0, 87, 60
1, 119326, Control_c, 0, 64, 66
1, 119341, Control_c, 0, 64, 0
1, 119348, Note_off_c, 0, 86, 50
1, 119361, Note_on_c, 0, 46, 52
1, 119371, Control_c, 0, 64, 53
1, 119386, Control_c, 0, 64, 73
1, 119401, Control_c, 0, 64, 97
1, 119415, Note_off_c, 0, 46, 60
1, 119416, Control_c, 0, 64, 127
1, 119433, Note_on_c, 0, 56, 48
1, 119461, Note_off_c, 0, 56, 59
1, 119471, Note_off_c, 0, 87, 0
1, 119508, Poly_aftertouch_c, 0, 87, 127
1, 119520, Note_on_c, 0, 62, 47
1, 119544, Note_on_c, 0, 76, 74
1, 119548, Note_off_c, 0, 62, 54
1, 119548, Poly_aftertouch_c, 0, 87, 0
1, 119568, Note_off_c, 0, 76, 65
1, 119694, Note_on_c, 0, 70, 68
1, 119739, Note_off_c, 0, 70, 64
1, 119781, Note_on_c, 0, 71, 79
1, 119822, Note_off_c, 0, 71, 63
1, 119868, Note_on_c, 0, 80, 70
1, 119919, Note_on_c, 0, 87, 72
1, 120006, Note_on_c, 0, 88, 77
1, 120016, Note_off_c, 0, 87, 64
1, 120051, Note_off_c, 0, 88, 66
1, 120191, Note_off_c, 0, 80, 55
1, 120802, Note_on_c, 0, 70, 59
1, 120829, Note_off_c, 0, 70, 65
1, 121038, Note_on_c, 0, 49, 61
1, 121046, Control_c, 0, 64, 113
1, 121061, Control_c, 0, 64, 65
1, 121076, Control_c, 0, 64, 0
1, 121093, Note_off_c, 0, 49, 59
1, 121105, Control_c, 0, 64, 56
1, 121116, Note_on_c, 0, 59, 57
1, 121120, Control_c, 0, 64, 76
1, 121135, Control_c, 0, 64, 127
1, 121158, Note_off_c, 0, 59, 59
1, 121195, Note_on_c, 0, 65, 64
1, 121223, Note_off_c, 0, 65, 66
1, 121224, Note_on_c, 0, 75, 72
1, 121259, Note_off_c, 0, 75, 57
1, 121376, Note_on_c, 0, 70, 75
1, 121416, Note_off_c, 0, 70, 63
1, 121503, Note_on_c, 0, 71, 79
1, 121531, Note_off_c, 0, 71, 65
1, 121550, Note_on_c, 0, 79, 64
1, 121619, Note_on_c, 0, 86, 76
1, 121705, Note_on_c, 0, 87, 82
1, 121734, Note_off_c, 0, 86, 61
1, 121809, Note_off_c, 0, 87, 63
1, 121825, Note_off_c, 0, 79, 52
1, 122524, Note_on_c, 0, 70, 51
1, 122546, Note_off_c, 0, 70, 61
1, 122750, Control_c, 0, 64, 123
1, 122756, Note_on_c, 0, 52, 56
1, 122765, Control_c, 0, 64, 71
1, 122780, Control_c, 0, 64, 0
1, 122824, Control_c, 0, 64, 26
1, 122838, Note_off_c, 0, 52, 60
1, 122839, Control_c, 0, 64, 67
1, 122854, Control_c, 0, 64, 91
1, 122868, Control_c, 0, 64, 127
1, 122881, Note_on_c, 0, 62, 52
1, 122954, Note_off_c, 0, 62, 56
1, 123034, Note_on_c, 0, 68, 54
1, 123064, Note_off_c, 0, 68, 64
1, 123145, Note_on_c, 0, 74, 55
1, 123167, Note_off_c, 0, 74, 61
1, 123309, Note_on_c, 0, 70, 49
1, 123352, Note_off_c, 0, 70, 58
1, 123415, Note_on_c, 0, 71, 51
1, 123443, Note_off_c, 0, 71, 61
1, 123520, Note_on_c, 0, 78, 52
1, 123578, Note_on_c, 0, 85, 53
1, 123654, Note_off_c, 0, 85, 55
1, 123661, Note_on_c, 0, 86, 57
1, 123697, Note_off_c, 0, 86, 60
1, 123810, Note_off_c, 0, 78, 41
1, 124722, Note_on_c, 0, 70, 33
1, 125091, Note_off_c, 0, 70, 31
1, 125465, Note_on_c, 0, 70, 34
1, 125717, Note_on_c, 0, 71, 34
1, 125839, Note_off_c, 0, 70, 37
1, 125888, Note_on_c, 0, 78, 22
1, 125914, Note_on_c, 0, 85, 41
1, 126031, Note_on_c, 0, 86, 37
1, 126072, Note_off_c, 0, 85, 32
1, 126131, Note_off_c, 0, 86, 39
1, 126138, Note_off_c, 0, 78, 43
1, 126525, Control_c, 0, 67, 8
1, 126540, Control_c, 0, 67, 13
1, 126555, Control_c, 0, 67, 18
1, 126570, Control_c, 0, 67, 25
1, 126584, Control_c, 0, 67, 31
1, 126599, Control_c, 0, 67, 37
1, 126614, Control_c, 0, 67, 41
1, 126628, Control_c, 0, 67, 45
1, 126643, Control_c, 0, 67, 49
1, 126658, Control_c, 0, 67, 53
1, 126673, Control_c, 0, 67, 56
1, 126688, Control_c, 0, 67, 59
1, 126702, Control_c, 0, 67, 64
1, 126717, Control_c, 0, 67, 68
1, 126740, Control_c, 0, 67, 74
1, 126755, Control_c, 0, 67, 80
1, 126769, Control_c, 0, 67, 86
1, 126784, Control_c, 0, 67, 92
1, 126799, Control_c, 0, 67, 98
1, 126814, Control_c, 0, 67, 106
1, 126829, Control_c, 0, 67, 112
1, 126843, Control_c, 0, 67, 118
1, 126858, Control_c, 0, 67, 123
1, 126873, Control_c, 0, 67, 127
1, 127157, Note_on_c, 0, 70, 30
1, 127193, Note_off_c, 0, 71, 37
1, 127243, Note_off_c, 0, 70, 39
1, 127711, Control_c, 0, 67, 126
1, 127726, Control_c, 0, 67, 125
1, 127740, Control_c, 0, 67, 123
1, 127755, Control_c, 0, 67, 121
1, 127770, Control_c, 0, 67, 118
1, 127785, Control_c, 0, 67, 114
1, 127800, Control_c, 0, 67, 109
1, 127814, Control_c, 0, 67, 104
1, 127829, Control_c, 0, 67, 97
1, 127844, Control_c, 0, 67, 91
1, 127858, Control_c, 0, 67, 84
1, 127873, Control_c, 0, 67, 76
1, 127888, Control_c, 0, 67, 70
1, 127903, Control_c, 0, 67, 63
1, 127918, Control_c, 0, 67, 59
1, 127922, Note_on_c, 0, 50, 32
1, 127923, Note_on_c, 0, 40, 27
1, 127932, Control_c, 0, 67, 56
1, 127947, Control_c, 0, 67, 54
1, 127963, Control_c, 0, 67, 52
1, 127978, Control_c, 0, 67, 50
1, 127993, Control_c, 0, 67, 49
1, 128008, Control_c, 0, 67, 47
1, 128023, Control_c, 0, 67, 46
1, 128030, Note_on_c, 0, 66, 34
1, 128036, Note_on_c, 0, 56, 26
1, 128037, Control_c, 0, 67, 45
1, 128045, Note_on_c, 0, 62, 23
1, 128052, Control_c, 0, 64, 92
1, 128052, Control_c, 0, 67, 44
1, 128067, Control_c, 0, 64, 70
1, 128067, Control_c, 0, 67, 43
1, 128081, Control_c, 0, 64, 56
1, 128081, Control_c, 0, 67, 42
1, 128096, Control_c, 0, 64, 62
1, 128096, Control_c, 0, 67, 40
1, 128111, Control_c, 0, 64, 68
1, 128111, Control_c, 0, 67, 38
1, 128126, Control_c, 0, 64, 79
1, 128126, Control_c, 0, 67, 36
1, 128141, Control_c, 0, 64, 101
1, 128141, Control_c, 0, 67, 34
1, 128156, Control_c, 0, 64, 127
1, 128156, Control_c, 0, 67, 32
1, 128170, Note_off_c, 0, 56, 36
1, 128170, Control_c, 0, 67, 29
1, 128173, Note_off_c, 0, 40, 41
1, 128185, Control_c, 0, 67, 26
1, 128200, Control_c, 0, 67, 22
1, 128206, Note_off_c, 0, 62, 37
1, 128215, Control_c, 0, 67, 19
1, 128217, Note_off_c, 0, 50, 48
1, 128221, Note_off_c, 0, 66, 50
1, 128237, Control_c, 0, 67, 15
1, 128252, Control_c, 0, 67, 11
1, 128267, Control_c, 0, 67, 0
1, 128633, Note_on_c, 0, 70, 50
1, 128705, Note_on_c, 0, 80, 38
1, 128706, Note_on_c, 0, 78, 36
1, 128794, Note_off_c, 0, 80, 37
1, 128853, Note_off_c, 0, 70, 30
1, 129073, Note_on_c, 0, 71, 46
1, 129103, Note_on_c, 0, 85, 37
1, 129133, Note_on_c, 0, 86, 15
1, 129150, Note_off_c, 0, 78, 42
1, 129176, Note_off_c, 0, 85, 37
1, 129193, Note_off_c, 0, 86, 42
1, 129571, Note_on_c, 0, 80, 47
1, 129582, Note_on_c, 0, 78, 36
1, 129594, Note_off_c, 0, 80, 58
1, 129642, Note_off_c, 0, 78, 42
1, 129865, Note_on_c, 0, 86, 32
1, 129867, Note_on_c, 0, 85, 32
1, 129925, Note_off_c, 0, 85, 42
1, 129933, Note_off_c, 0, 86, 39
1, 130192, Note_on_c, 0, 78, 39
1, 130195, Note_on_c, 0, 80, 43
1, 130243, Note_off_c, 0, 80, 44
1, 130442, Note_on_c, 0, 85, 27
1, 130446, Note_on_c, 0, 86, 31
1, 130449, Note_off_c, 0, 78, 13
1, 130532, Note_off_c, 0, 86, 0
1, 130569, Poly_aftertouch_c, 0, 86, 127
1, 130808, Poly_aftertouch_c, 0, 86, 0
1, 130812, Note_off_c, 0, 85, 41
1, 130830, Note_on_c, 0, 80, 47
1, 130835, Note_on_c, 0, 78, 43
1, 130874, Note_off_c, 0, 80, 48
1, 131125, Note_off_c, 0, 78, 0
1, 131163, Note_on_c, 0, 86, 47
1, 131163, Poly_aftertouch_c, 0, 78, 127
1, 131176, Note_on_c, 0, 85, 31
1, 131214, Note_off_c, 0, 85, 50
1, 131217, Note_off_c, 0, 86, 58
1, 131245, Poly_aftertouch_c, 0, 78, 0
1, 131494, Note_off_c, 0, 71, 39
1, 131689, Note_on_c, 0, 70, 50
1, 131809, Note_on_c, 0, 80, 43
1, 131828, Note_on_c, 0, 78, 41
1, 131865, Note_off_c, 0, 80, 59
1, 131959, Note_off_c, 0, 78, 25
1, 132031, Note_off_c, 0, 70, 40
1, 132141, Note_on_c, 0, 71, 66
1, 132278, Note_on_c, 0, 89, 48
1, 132279, Note_on_c, 0, 88, 49
1, 132352, Control_c, 0, 64, 101
1, 132367, Control_c, 0, 64, 95
1, 132382, Control_c, 0, 64, 95
1, 132396, Control_c, 0, 64, 100
1, 132411, Control_c, 0, 64, 117
1, 132426, Control_c, 0, 64, 127
1, 132558, Note_on_c, 0, 74, 80
1, 132648, Note_on_c, 0, 83, 64
1, 132648, Note_off_c, 0, 88, 49
1, 132653, Note_off_c, 0, 71, 40
1, 132654, Note_on_c, 0, 81, 57
1, 132669, Note_off_c, 0, 89, 39
1, 132732, Note_off_c, 0, 83, 57
1, 132784, Note_off_c, 0, 74, 57
1, 132847, Note_on_c, 0, 76, 80
1, 132892, Note_off_c, 0, 81, 38
1, 132919, Note_on_c, 0, 89, 55
1, 132930, Note_on_c, 0, 88, 50
1, 132982, Note_off_c, 0, 88, 51
1, 132983, Control_c, 0, 64, 108
1, 132997, Control_c, 0, 64, 85
1, 133012, Control_c, 0, 64, 75
1, 133027, Control_c, 0, 64, 74
1, 133042, Control_c, 0, 64, 77
1, 133057, Control_c, 0, 64, 83
1, 133071, Control_c, 0, 64, 93
1, 133086, Control_c, 0, 64, 118
1, 133101, Control_c, 0, 64, 127
1, 133190, Control_c, 0, 64, 97
1, 133205, Control_c, 0, 64, 86
1, 133220, Control_c, 0, 64, 86
1, 133235, Control_c, 0, 64, 91
1, 133246, Poly_aftertouch_c, 0, 88, 127
1, 133250, Control_c, 0, 64, 104
1, 133265, Control_c, 0, 64, 127
1, 133279, Control_c, 0, 64, 120
1, 133286, Note_on_c, 0, 71, 51
1, 133294, Control_c, 0, 64, 97
1, 133309, Control_c, 0, 64, 77
1, 133324, Control_c, 0, 64, 67
1, 133333, Poly_aftertouch_c, 0, 88, 0
1, 133339, Control_c, 0, 64, 69
1, 133341, Note_off_c, 0, 89, 7
1, 133349, Note_off_c, 0, 76, 28
1, 133353, Control_c, 0, 64, 77
1, 133360, Note_on_c, 0, 83, 46
1, 133366, Note_on_c, 0, 81, 40
1, 133368, Control_c, 0, 64, 98
1, 133383, Control_c, 0, 64, 127
1, 133524, Note_off_c, 0, 71, 39
1, 133527, Note_on_c, 0, 65, 48
1, 133560, Note_off_c, 0, 65, 62
1, 133608, Note_off_c, 0, 83, 35
1, 133636, Note_on_c, 0, 89, 44
1, 133643, Note_on_c, 0, 88, 37
1, 133656, Note_off_c, 0, 81, 43
1, 133716, Note_on_c, 0, 59, 53
1, 133757, Note_off_c, 0, 59, 57
1, 133841, Note_on_c, 0, 53, 48
1, 133849, Note_off_c, 0, 89, 16
1, 133867, Note_off_c, 0, 88, 14
1, 133873, Note_off_c, 0, 53, 66
1, 133876, Note_on_c, 0, 81, 45
1, 133879, Note_on_c, 0, 83, 51
1, 133938, Note_off_c, 0, 83, 48
1, 133946, Note_off_c, 0, 81, 35
1, 134001, Note_on_c, 0, 43, 48
1, 134031, Note_off_c, 0, 43, 57
1, 134055, Note_on_c, 0, 88, 34
1, 134059, Note_on_c, 0, 89, 37
1, 134453, Note_off_c, 0, 88, 41
1, 134455, Note_on_c, 0, 81, 37
1, 134463, Note_off_c, 0, 89, 38
1, 134465, Note_on_c, 0, 83, 41
1, 134714, Note_off_c, 0, 83, 45
1, 134737, Note_on_c, 0, 89, 47
1, 134743, Note_on_c, 0, 88, 44
1, 134759, Note_off_c, 0, 81, 43
1, 134789, Note_off_c, 0, 88, 53
1, 134894, Note_off_c, 0, 89, 22
1, 135173, Note_on_c, 0, 74, 78
1, 135299, Note_on_c, 0, 81, 60
1, 135299, Note_on_c, 0, 83, 58
1, 135317, Note_off_c, 0, 81, 65
1, 135318, Note_off_c, 0, 83, 64
1, 135379, Note_off_c, 0, 74, 64
1, 135456, Note_on_c, 0, 79, 83
1, 135730, Note_on_c, 0, 74, 61
1, 135769, Control_c, 0, 64, 89
1, 135784, Control_c, 0, 64, 68
1, 135799, Control_c, 0, 64, 0
1, 135807, Note_on_c, 0, 92, 82
1, 135827, Note_on_c, 0, 91, 60
1, 135843, Control_c, 0, 64, 64
1, 135849, Note_off_c, 0, 79, 36
1, 135858, Control_c, 0, 64, 87
1, 135873, Control_c, 0, 64, 127
1, 135939, Note_off_c, 0, 74, 32
1, 135953, Note_on_c, 0, 68, 55
1, 135986, Note_off_c, 0, 68, 64
1, 136058, Note_off_c, 0, 92, 30
1, 136069, Note_off_c, 0, 91, 42
1, 136076, Note_on_c, 0, 86, 69
1, 136086, Note_on_c, 0, 84, 54
1, 136109, Note_off_c, 0, 84, 58
1, 136115, Note_off_c, 0, 86, 52
1, 136165, Note_on_c, 0, 62, 41
1, 136219, Note_off_c, 0, 62, 42
1, 136255, Note_on_c, 0, 92, 54
1, 136268, Note_on_c, 0, 91, 54
1, 136308, Note_on_c, 0, 56, 45
1, 136347, Note_off_c, 0, 56, 62
1, 136453, Note_on_c, 0, 46, 45
1, 136493, Note_off_c, 0, 46, 55
1, 136567, Note_off_c, 0, 91, 46
1, 136590, Note_off_c, 0, 92, 44
1, 136601, Note_on_c, 0, 86, 47
1, 136619, Note_on_c, 0, 84, 27
1, 136708, Note_off_c, 0, 84, 33
1, 136737, Note_off_c, 0, 86, 29
1, 136842, Note_on_c, 0, 92, 39
1, 136852, Note_on_c, 0, 91, 36
1, 137129, Note_off_c, 0, 91, 43
1, 137141, Note_off_c, 0, 92, 37
1, 137185, Note_on_c, 0, 86, 38
1, 137209, Note_on_c, 0, 84, 8
1, 137401, Note_off_c, 0, 86, 33
1, 137459, Note_off_c, 0, 84, 19
1, 137477, Note_on_c, 0, 91, 40
1, 137497, Note_on_c, 0, 92, 32
1, 137802, Note_on_c, 0, 74, 58
1, 137817, Note_off_c, 0, 92, 11
1, 137846, Note_off_c, 0, 91, 42
1, 137902, Note_on_c, 0, 86, 26
1, 137915, Poly_aftertouch_c, 0, 84, 127
1, 138049, Note_off_c, 0, 74, 38
1, 138075, Note_on_c, 0, 72, 46
1, 138167, Note_off_c, 0, 72, 34
1, 138198, Note_off_c, 0, 86, 37
1, 138212, Note_on_c, 0, 92, 28
1, 138258, Poly_aftertouch_c, 0, 91, 127
1, 138258, Poly_aftertouch_c, 0, 84, 0
1, 138264, Note_on_c, 0, 67, 36
1, 138306, Note_off_c, 0, 67, 51
1, 138559, Poly_aftertouch_c, 0, 91, 0
1, 138571, Note_off_c, 0, 92, 38
1, 138588, Note_on_c, 0, 86, 29
1, 138617, Poly_aftertouch_c, 0, 84, 127
1, 138684, Note_on_c, 0, 68, 45
1, 138726, Note_off_c, 0, 68, 63
1, 138823, Note_off_c, 0, 86, 32
1, 138844, Poly_aftertouch_c, 0, 84, 0
1, 138938, Note_on_c, 0, 71, 40
1, 139002, Control_c, 0, 64, 90
1, 139016, Control_c, 0, 64, 63
1, 139031, Control_c, 0, 64, 0
1, 139046, Control_c, 0, 64, 49
1, 139048, Note_on_c, 0, 92, 44
1, 139051, Note_on_c, 0, 91, 44
1, 139061, Control_c, 0, 64, 68
1, 139076, Control_c, 0, 64, 84
1, 139085, Note_off_c, 0, 71, 21
1, 139090, Control_c, 0, 64, 127
1, 139171, Note_on_c, 0, 65, 31
1, 139187, Note_off_c, 0, 92, 52
1, 139191, Note_off_c, 0, 91, 43
1, 139195, Note_on_c, 0, 83, 55
1, 139215, Note_on_c, 0, 86, 47
1, 139222, Note_off_c, 0, 65, 47
1, 139257, Note_on_c, 0, 59, 27
1, 139259, Note_off_c, 0, 86, 45
1, 139286, Note_off_c, 0, 83, 40
1, 139298, Note_off_c, 0, 59, 53
1, 139334, Note_on_c, 0, 92, 59
1, 139337, Note_on_c, 0, 91, 56
1, 139422, Note_on_c, 0, 49, 43
1, 139498, Note_off_c, 0, 49, 55
1, 139503, Note_off_c, 0, 91, 45
1, 139522, Note_off_c, 0, 92, 34
1, 139529, Note_on_c, 0, 37, 39
1, 139547, Note_on_c, 0, 86, 57
1, 139550, Note_on_c, 0, 83, 49
1, 139569, Note_off_c, 0, 37, 53
1, 139590, Note_off_c, 0, 83, 63
1, 139603, Note_off_c, 0, 86, 54
1, 139617, Note_on_c, 0, 92, 70
1, 139627, Note_on_c, 0, 91, 48
1, 139644, Note_off_c, 0, 92, 68
1, 139651, Note_off_c, 0, 91, 56
1, 139720, Note_on_c, 0, 80, 67
1, 139747, Note_on_c, 0, 83, 62
1, 139779, Note_off_c, 0, 80, 40
1, 139790, Note_on_c, 0, 89, 73
1, 139799, Note_off_c, 0, 83, 63
1, 139829, Note_off_c, 0, 89, 60
1, 139908, Note_on_c, 0, 80, 65
1, 139915, Note_on_c, 0, 77, 44
1, 139955, Note_off_c, 0, 77, 0
1, 139968, Note_off_c, 0, 80, 56
1, 139982, Note_on_c, 0, 86, 63
1, 139984, Note_on_c, 0, 85, 42
1, 139992, Poly_aftertouch_c, 0, 77, 127
1, 140000, Note_off_c, 0, 86, 67
1, 140012, Note_off_c, 0, 85, 56
1, 140033, Poly_aftertouch_c, 0, 77, 0
1, 140139, Note_on_c, 0, 77, 57
1, 140148, Note_on_c, 0, 74, 50
1, 140276, Note_off_c, 0, 77, 52
1, 140303, Note_on_c, 0, 83, 56
1, 140306, Note_on_c, 0, 82, 41
1, 140338, Note_off_c, 0, 83, 65
1, 140339, Note_off_c, 0, 82, 55
1, 140366, Note_off_c, 0, 74, 48
1, 140797, Control_c, 0, 64, 119
1, 140811, Control_c, 0, 64, 110
1, 140826, Control_c, 0, 64, 104
1, 140841, Control_c, 0, 64, 100
1, 140856, Control_c, 0, 64, 97
1, 140871, Control_c, 0, 64, 95
1, 140885, Control_c, 0, 64, 93
1, 140900, Control_c, 0, 64, 91
1, 140915, Control_c, 0, 64, 89
1, 140930, Control_c, 0, 64, 87
1, 140945, Control_c, 0, 64, 86
1, 140967, Control_c, 0, 64, 84
1, 140982, Control_c, 0, 64, 83
1, 140996, Control_c, 0, 64, 83
1, 141010, Control_c, 0, 64, 82
1, 141114, Control_c, 0, 64, 81
1, 141129, Control_c, 0, 64, 75
1, 141143, Control_c, 0, 64, 60
1, 141158, Control_c, 0, 64, 0
1, 141307, Control_c, 0, 64, 64
1, 141322, Control_c, 0, 64, 75
1, 141329, Note_on_c, 0, 79, 93
1, 141336, Control_c, 0, 64, 88
1, 141347, Note_on_c, 0, 74, 74
1, 141351, Control_c, 0, 64, 110
1, 141366, Control_c, 0, 64, 127
1, 141375, Note_off_c, 0, 74, 63
1, 141626, Note_off_c, 0, 79, 63
1, 141629, Note_on_c, 0, 80, 89
1, 141644, Note_on_c, 0, 68, 68
1, 141667, Note_off_c, 0, 68, 61
1, 141784, Note_on_c, 0, 62, 57
1, 141824, Note_off_c, 0, 62, 56
1, 141912, Note_on_c, 0, 56, 56
1, 141939, Note_off_c, 0, 56, 65
1, 142091, Note_on_c, 0, 46, 38
1, 142124, Note_off_c, 0, 46, 56
1, 143391, Note_on_c, 0, 74, 89
1, 143639, Note_off_c, 0, 74, 49
1, 143752, Note_on_c, 0, 72, 91
1, 143849, Note_off_c, 0, 72, 57
1, 143924, Note_on_c, 0, 67, 80
1, 143985, Note_off_c, 0, 80, 56
1, 144028, Note_off_c, 0, 67, 54
1, 144053, Note_on_c, 0, 68, 84
1, 144088, Note_off_c, 0, 68, 59
1, 144100, Note_on_c, 0, 79, 79
1, 144147, Note_off_c, 0, 79, 62
1, 144172, Note_on_c, 0, 80, 73
1, 144187, Note_off_c, 0, 80, 41
1, 144235, Note_on_c, 0, 84, 77
1, 144241, Note_on_c, 0, 83, 75
1, 144270, Note_off_c, 0, 83, 59
1, 144276, Note_on_c, 0, 46, 86
1, 144278, Note_off_c, 0, 84, 55
1, 144303, Control_c, 0, 64, 74
1, 144306, Note_on_c, 0, 88, 96
1, 144312, Note_on_c, 0, 52, 69
1, 144318, Control_c, 0, 64, 0
1, 144348, Control_c, 0, 64, 72
1, 144362, Control_c, 0, 64, 112
1, 144369, Note_off_c, 0, 46, 60
1, 144377, Control_c, 0, 64, 127
1, 144419, Note_off_c, 0, 88, 62
1, 144425, Note_off_c, 0, 52, 62
1, 144449, Note_on_c, 0, 62, 92
1, 144461, Note_on_c, 0, 89, 104
1, 144484, Note_off_c, 0, 62, 62
1, 144526, Note_off_c, 0, 89, 58
1, 144567, Note_on_c, 0, 91, 91
1, 144611, Note_off_c, 0, 91, 66
1, 144619, Note_on_c, 0, 71, 99
1, 144636, Note_on_c, 0, 89, 87
1, 144643, Note_off_c, 0, 71, 64
1, 144708, Note_on_c, 0, 91, 92
1, 144708, Note_off_c, 0, 89, 63
1, 144763, Note_off_c, 0, 91, 62
1, 144765, Note_on_c, 0, 89, 82
1, 144819, Note_off_c, 0, 89, 61
1, 144837, Note_on_c, 0, 91, 71
1, 144870, Note_off_c, 0, 91, 55
1, 144882, Note_on_c, 0, 89, 78
1, 144929, Note_off_c, 0, 89, 60
1, 144944, Note_on_c, 0, 91, 75
1, 144977, Note_off_c, 0, 91, 56
1, 145004, Note_on_c, 0, 89, 55
1, 145030, Note_off_c, 0, 89, 57
1, 145053, Note_on_c, 0, 91, 60
1, 145091, Note_off_c, 0, 91, 62
1, 145100, Note_on_c, 0, 89, 73
1, 145132, Note_off_c, 0, 89, 53
1, 145157, Note_on_c, 0, 91, 47
1, 145206, Note_off_c, 0, 91, 52
1, 145216, Note_on_c, 0, 89, 74
1, 145246, Note_off_c, 0, 89, 60
1, 145294, Note_on_c, 0, 91, 44
1, 145322, Note_off_c, 0, 91, 54
1, 145343, Note_on_c, 0, 89, 59
1, 145362, Note_off_c, 0, 89, 61
1, 145385, Note_on_c, 0, 91, 72
1, 145404, Note_off_c, 0, 91, 63
1, 145433, Note_on_c, 0, 89, 74
1, 145486, Note_off_c, 0, 89, 59
1, 145500, Note_on_c, 0, 91, 63
1, 145523, Note_off_c, 0, 91, 59
1, 145563, Note_on_c, 0, 89, 63
1, 145601, Note_off_c, 0, 89, 60
1, 145606, Note_on_c, 0, 91, 70
1, 145633, Note_off_c, 0, 91, 62
1, 145676, Note_on_c, 0, 89, 63
1, 145714, Note_off_c, 0, 89, 61
1, 145722, Note_on_c, 0, 91, 66
1, 145745, Note_off_c, 0, 91, 61
1, 145785, Note_on_c, 0, 89, 64
1, 145827, Note_off_c, 0, 89, 60
1, 145830, Note_on_c, 0, 91, 67
1, 145861, Note_off_c, 0, 91, 60
1, 145893, Note_on_c, 0, 89, 59
1, 145932, Note_off_c, 0, 89, 61
1, 145946, Note_on_c, 0, 91, 66
1, 145968, Note_off_c, 0, 91, 60
1, 146004, Note_on_c, 0, 89, 67
1, 146036, Note_off_c, 0, 89, 61
1, 146057, Note_on_c, 0, 91, 55
1, 146077, Note_off_c, 0, 91, 61
1, 146124, Note_on_c, 0, 89, 60
1, 146144, Note_off_c, 0, 89, 60
1, 146167, Note_on_c, 0, 91, 60
1, 146188, Note_off_c, 0, 91, 61
1, 146230, Note_on_c, 0, 89, 68
1, 146274, Note_off_c, 0, 89, 53
1, 146287, Note_on_c, 0, 91, 58
1, 146307, Note_off_c, 0, 91, 62
1, 146348, Note_on_c, 0, 89, 60
1, 146387, Note_off_c, 0, 89, 60
1, 146396, Note_on_c, 0, 91, 65
1, 146416, Note_off_c, 0, 91, 62
1, 146462, Note_on_c, 0, 89, 58
1, 146491, Note_off_c, 0, 89, 52
1, 146507, Note_on_c, 0, 91, 65
1, 146528, Note_off_c, 0, 91, 62
1, 146575, Note_on_c, 0, 89, 50
1, 146598, Note_off_c, 0, 89, 57
1, 146603, Note_on_c, 0, 91, 78
1, 146633, Note_on_c, 0, 89, 71
1, 146634, Note_off_c, 0, 91, 63
1, 146657, Note_off_c, 0, 89, 67
1, 146719, Note_on_c, 0, 46, 84
1, 146756, Control_c, 0, 64, 85
1, 146762, Note_on_c, 0, 79, 80
1, 146771, Control_c, 0, 64, 56
1, 146786, Control_c, 0, 64, 57
1, 146786, Note_on_c, 0, 52, 73
1, 146792, Note_off_c, 0, 79, 59
1, 146801, Control_c, 0, 64, 73
1, 146813, Note_on_c, 0, 80, 85
1, 146814, Note_off_c, 0, 46, 59
1, 146816, Control_c, 0, 64, 127
1, 146829, Note_off_c, 0, 80, 73
1, 146886, Note_on_c, 0, 84, 80
1, 146920, Note_off_c, 0, 84, 60
1, 146956, Note_on_c, 0, 88, 92
1, 147058, Note_off_c, 0, 88, 64
1, 147070, Note_on_c, 0, 62, 93
1, 147092, Note_on_c, 0, 89, 99
1, 147102, Note_off_c, 0, 52, 50
1, 147102, Note_off_c, 0, 62, 63
1, 147154, Note_off_c, 0, 89, 62
1, 147195, Note_on_c, 0, 91, 84
1, 147245, Note_off_c, 0, 91, 64
1, 147255, Note_on_c, 0, 89, 78
1, 147303, Note_off_c, 0, 89, 56
1, 147323, Note_on_c, 0, 91, 66
1, 147350, Note_off_c, 0, 91, 60
1, 147378, Note_on_c, 0, 89, 71
1, 147403, Note_off_c, 0, 89, 66
1, 147430, Note_on_c, 0, 91, 71
1, 147459, Note_off_c, 0, 91, 61
1, 147487, Note_on_c, 0, 89, 80
1, 147512, Note_off_c, 0, 89, 61
1, 147543, Note_on_c, 0, 91, 69
1, 147564, Note_off_c, 0, 91, 58
1, 147603, Note_on_c, 0, 89, 68
1, 147620, Note_off_c, 0, 89, 65
1, 147648, Note_on_c, 0, 91, 66
1, 147679, Note_off_c, 0, 91, 62
1, 147701, Note_on_c, 0, 89, 76
1, 147751, Note_off_c, 0, 89, 56
1, 147776, Note_on_c, 0, 91, 62
1, 147794, Note_off_c, 0, 91, 63
1, 147811, Note_on_c, 0, 89, 55
1, 147833, Note_off_c, 0, 89, 59
1, 147844, Note_on_c, 0, 88, 70
1, 147867, Note_off_c, 0, 88, 69
1, 147887, Note_on_c, 0, 84, 64
1, 147922, Note_off_c, 0, 84, 64
1, 147963, Note_on_c, 0, 71, 93
1, 147970, Note_on_c, 0, 82, 73
1, 147988, Note_off_c, 0, 82, 63
1, 147996, Note_off_c, 0, 71, 66
1, 148042, Note_on_c, 0, 79, 69
1, 148065, Note_off_c, 0, 79, 67
1, 148082, Poly_aftertouch_c, 0, 81, 0
1, 148097, Note_on_c, 0, 80, 74
1, 148135, Note_off_c, 0, 80, 58
1, 148157, Note_on_c, 0, 79, 74
1, 148181, Note_off_c, 0, 79, 64
1, 148218, Note_on_c, 0, 80, 65
1, 148241, Note_off_c, 0, 80, 68
1, 148283, Note_on_c, 0, 79, 53
1, 148304, Note_off_c, 0, 79, 62
1, 148314, Note_on_c, 0, 80, 77
1, 148355, Note_off_c, 0, 80, 58
1, 148377, Note_on_c, 0, 79, 73
1, 148408, Note_off_c, 0, 79, 59
1, 148429, Note_on_c, 0, 80, 67
1, 148463, Note_off_c, 0, 80, 64
1, 148480, Note_on_c, 0, 79, 69
1, 148505, Note_off_c, 0, 79, 67
1, 148519, Note_on_c, 0, 80, 70
1, 148534, Note_off_c, 0, 80, 66
1, 148592, Note_on_c, 0, 84, 69
1, 148616, Note_off_c, 0, 84, 68
1, 148627, Note_on_c, 0, 86, 32
1, 148655, Note_on_c, 0, 88, 89
1, 148659, Note_off_c, 0, 86, 56
1, 148689, Note_on_c, 0, 89, 94
1, 148705, Note_off_c, 0, 88, 65
1, 148722, Note_off_c, 0, 89, 60
1, 148849, Note_on_c, 0, 73, 99
1, 148885, Control_c, 0, 64, 105
1, 148893, Note_on_c, 0, 40, 94
1, 148899, Note_on_c, 0, 34, 86
1, 148899, Control_c, 0, 64, 65
1, 148914, Control_c, 0, 64, 0
1, 148958, Control_c, 0, 64, 78
1, 148962, Note_off_c, 0, 34, 61
1, 148973, Control_c, 0, 64, 127
1, 148974, Note_off_c, 0, 40, 64
1, 149033, Note_off_c, 0, 73, 55
1, 149117, Note_on_c, 0, 74, 102
1, 149201, Note_off_c, 0, 74, 62
1, 149228, Note_on_c, 0, 65, 96
1, 149231, Note_on_c, 0, 53, 86
1, 149300, Note_off_c, 0, 53, 62
1, 149313, Note_off_c, 0, 65, 61
1, 149417, Note_on_c, 0, 66, 96
1, 149421, Note_on_c, 0, 54, 85
1, 149438, Poly_aftertouch_c, 0, 58, 0
1, 149472, Note_off_c, 0, 54, 60
1, 149493, Note_off_c, 0, 66, 48
1, 149494, Note_on_c, 0, 73, 72
1, 149524, Note_off_c, 0, 73, 66
1, 149555, Note_on_c, 0, 74, 82
1, 149603, Note_off_c, 0, 74, 59
1, 149627, Note_on_c, 0, 78, 81
1, 149678, Note_on_c, 0, 82, 77
1, 149683, Note_off_c, 0, 78, 62
1, 149733, Note_off_c, 0, 82, 62
1, 149754, Note_on_c, 0, 68, 94
1, 149761, Note_on_c, 0, 56, 83
1, 149796, Control_c, 0, 64, 77
1, 149811, Control_c, 0, 64, 0
1, 149840, Control_c, 0, 64, 54
1, 149849, Note_off_c, 0, 68, 60
1, 149855, Control_c, 0, 64, 78
1, 149870, Control_c, 0, 64, 127
1, 149876, Note_on_c, 0, 83, 66
1, 149886, Note_off_c, 0, 56, 65
1, 149908, Note_off_c, 0, 83, 58
1, 149969, Note_on_c, 0, 85, 57
1, 150000, Note_off_c, 0, 85, 65
1, 150050, Note_on_c, 0, 83, 55
1, 150072, Note_off_c, 0, 83, 63
1, 150075, Note_on_c, 0, 40, 59
1, 150103, Note_on_c, 0, 85, 67
1, 150131, Note_off_c, 0, 85, 67
1, 150163, Note_on_c, 0, 83, 68
1, 150182, Note_off_c, 0, 40, 38
1, 150186, Note_off_c, 0, 83, 70
1, 150211, Note_on_c, 0, 34, 62
1, 150220, Note_on_c, 0, 85, 70
1, 150245, Note_off_c, 0, 85, 65
1, 150278, Note_on_c, 0, 83, 69
1, 150298, Note_off_c, 0, 83, 71
1, 150331, Note_on_c, 0, 85, 77
1, 150359, Note_off_c, 0, 85, 61
1, 150386, Note_on_c, 0, 83, 75
1, 150399, Note_off_c, 0, 34, 22
1, 150406, Note_off_c, 0, 83, 71
1, 150443, Note_on_c, 0, 85, 75
1, 150473, Note_off_c, 0, 85, 57
1, 150488, Note_on_c, 0, 83, 78
1, 150512, Note_off_c, 0, 83, 66
1, 150551, Note_on_c, 0, 85, 71
1, 150575, Poly_aftertouch_c, 0, 34, 127
1, 150580, Note_off_c, 0, 85, 55
1, 150594, Note_on_c, 0, 40, 75
1, 150600, Note_on_c, 0, 83, 82
1, 150621, Note_off_c, 0, 83, 67
1, 150634, Poly_aftertouch_c, 0, 34, 0
1, 150661, Note_on_c, 0, 85, 64
1, 150700, Note_off_c, 0, 85, 61
1, 150715, Note_on_c, 0, 83, 78
1, 150737, Note_off_c, 0, 83, 68
1, 150775, Note_on_c, 0, 85, 67
1, 150800, Note_off_c, 0, 85, 65
1, 150825, Note_on_c, 0, 83, 79
1, 150846, Note_off_c, 0, 83, 71
1, 150882, Note_on_c, 0, 85, 62
1, 150900, Note_off_c, 0, 40, 28
1, 150911, Note_off_c, 0, 85, 66
1, 150938, Note_on_c, 0, 83, 73
1, 150959, Note_off_c, 0, 83, 71
1, 150998, Note_on_c, 0, 85, 60
1, 151022, Note_off_c, 0, 85, 58
1, 151051, Note_on_c, 0, 83, 72
1, 151070, Note_off_c, 0, 83, 71
1, 151107, Note_on_c, 0, 85, 58
1, 151134, Note_off_c, 0, 85, 57
1, 151167, Note_on_c, 0, 83, 69
1, 151192, Note_off_c, 0, 83, 68
1, 151225, Note_on_c, 0, 85, 52
1, 151246, Note_off_c, 0, 85, 62
1, 151281, Note_on_c, 0, 83, 66
1, 151287, Note_on_c, 0, 34, 52
1, 151300, Note_off_c, 0, 83, 67
1, 151334, Note_on_c, 0, 85, 60
1, 151362, Note_off_c, 0, 85, 66
1, 151396, Note_on_c, 0, 83, 58
1, 151423, Note_off_c, 0, 83, 67
1, 151458, Note_on_c, 0, 85, 59
1, 151485, Note_off_c, 0, 85, 65
1, 151517, Note_on_c, 0, 83, 63
1, 151543, Note_off_c, 0, 83, 69
1, 151574, Note_on_c, 0, 85, 56
1, 151609, Note_off_c, 0, 85, 60
1, 151634, Note_on_c, 0, 83, 61
1, 151662, Note_off_c, 0, 83, 67
1, 151688, Note_on_c, 0, 85, 60
1, 151718, Note_off_c, 0, 85, 64
1, 151744, Note_on_c, 0, 83, 61
1, 151769, Note_on_c, 0, 40, 54
1, 151772, Note_off_c, 0, 83, 67
1, 151798, Note_on_c, 0, 85, 61
1, 151805, Note_off_c, 0, 34, 37
1, 151833, Note_off_c, 0, 85, 61
1, 151863, Note_on_c, 0, 83, 61
1, 151884, Note_off_c, 0, 83, 64
1, 151928, Note_on_c, 0, 85, 51
1, 151951, Note_off_c, 0, 85, 62
1, 151965, Note_on_c, 0, 83, 65
1, 151993, Note_off_c, 0, 83, 67
1, 152024, Note_on_c, 0, 85, 64
1, 152055, Note_off_c, 0, 85, 62
1, 152078, Note_on_c, 0, 83, 70
1, 152100, Note_off_c, 0, 83, 70
1, 152130, Note_on_c, 0, 85, 65
1, 152163, Note_off_c, 0, 85, 60
1, 152184, Note_on_c, 0, 83, 70
1, 152214, Note_off_c, 0, 83, 71
1, 152248, Note_on_c, 0, 85, 59
1, 152268, Note_off_c, 0, 85, 63
1, 152297, Note_on_c, 0, 83, 70
1, 152316, Note_off_c, 0, 83, 68
1, 152352, Note_on_c, 0, 85, 50
1, 152376, Note_off_c, 0, 85, 56
1, 152391, Note_on_c, 0, 83, 65
1, 152421, Note_off_c, 0, 83, 61
1, 152454, Note_on_c, 0, 85, 56
1, 152488, Note_off_c, 0, 85, 66
1, 152496, Note_on_c, 0, 34, 42
1, 152506, Note_off_c, 0, 40, 22
1, 152507, Note_on_c, 0, 83, 59
1, 152526, Note_off_c, 0, 83, 64
1, 152658, Note_on_c, 0, 73, 50
1, 152682, Note_off_c, 0, 73, 59
1, 152706, Note_on_c, 0, 74, 78
1, 152742, Note_off_c, 0, 74, 56
1, 152772, Note_on_c, 0, 78, 75
1, 152802, Note_off_c, 0, 78, 60
1, 152818, Note_on_c, 0, 82, 77
1, 152837, Note_off_c, 0, 82, 70
1, 152872, Note_off_c, 0, 34, 27
1, 152891, Note_on_c, 0, 83, 86
1, 152926, Note_off_c, 0, 83, 64
1, 152977, Control_c, 0, 64, 86
1, 152984, Note_on_c, 0, 85, 67
1, 152991, Control_c, 0, 64, 75
1, 153006, Control_c, 0, 64, 85
1, 153021, Note_off_c, 0, 85, 55
1, 153021, Control_c, 0, 64, 127
1, 153029, Note_on_c, 0, 83, 84
1, 153034, Note_on_c, 0, 40, 68
1, 153064, Note_off_c, 0, 83, 63
1, 153085, Note_off_c, 0, 40, 61
1, 153111, Note_on_c, 0, 34, 78
1, 153128, Note_on_c, 0, 85, 34
1, 153141, Note_off_c, 0, 34, 66
1, 153142, Note_on_c, 0, 83, 81
1, 153159, Note_off_c, 0, 85, 53
1, 153177, Note_off_c, 0, 83, 62
1, 153187, Note_on_c, 0, 85, 72
1, 153234, Note_off_c, 0, 85, 61
1, 153241, Note_on_c, 0, 83, 78
1, 153261, Note_off_c, 0, 83, 69
1, 153316, Note_on_c, 0, 82, 74
1, 153358, Note_on_c, 0, 78, 74
1, 153365, Note_off_c, 0, 82, 63
1, 153394, Note_off_c, 0, 78, 60
1, 153423, Note_on_c, 0, 74, 76
1, 153443, Note_on_c, 0, 65, 93
1, 153446, Note_off_c, 0, 74, 71
1, 153448, Note_on_c, 0, 53, 84
1, 153501, Note_on_c, 0, 73, 71
1, 153531, Note_off_c, 0, 73, 63
1, 153566, Note_on_c, 0, 74, 68
1, 153608, Note_off_c, 0, 74, 61
1, 153618, Note_on_c, 0, 73, 73
1, 153628, Note_off_c, 0, 65, 62
1, 153645, Note_off_c, 0, 53, 63
1, 153646, Note_off_c, 0, 73, 61
1, 153661, Note_on_c, 0, 74, 65
1, 153714, Note_off_c, 0, 74, 58
1, 153736, Note_on_c, 0, 73, 73
1, 153759, Note_off_c, 0, 73, 68
1, 153773, Note_on_c, 0, 74, 68
1, 153797, Note_off_c, 0, 74, 69
1, 153840, Note_on_c, 0, 73, 52
1, 153841, Note_off_c, 0, 73, 127
1, 153866, Note_on_c, 0, 74, 61
1, 153942, Note_on_c, 0, 78, 85
1, 153970, Note_off_c, 0, 74, 40
1, 153992, Note_on_c, 0, 82, 81
1, 154000, Note_off_c, 0, 78, 62
1, 154032, Note_on_c, 0, 83, 86
1, 154054, Note_off_c, 0, 82, 66
1, 154058, Note_off_c, 0, 83, 66
1, 154156, Note_on_c, 0, 67, 93
1, 154229, Control_c, 0, 64, 92
1, 154236, Note_on_c, 0, 40, 90
1, 154241, Note_on_c, 0, 34, 82
1, 154244, Control_c, 0, 64, 53
1, 154258, Control_c, 0, 64, 0
1, 154288, Control_c, 0, 64, 51
1, 154295, Note_off_c, 0, 34, 60
1, 154300, Note_off_c, 0, 40, 64
1, 154303, Control_c, 0, 64, 73
1, 154319, Control_c, 0, 64, 110
1, 154334, Control_c, 0, 64, 127
1, 154373, Note_off_c, 0, 67, 58
1, 154454, Note_on_c, 0, 68, 91
1, 154563, Note_on_c, 0, 59, 87
1, 154570, Note_on_c, 0, 47, 72
1, 154644, Note_off_c, 0, 47, 52
1, 154671, Note_off_c, 0, 59, 59
1, 154723, Note_off_c, 0, 68, 52
1, 154768, Note_on_c, 0, 60, 86
1, 154785, Note_on_c, 0, 48, 60
1, 154838, Note_on_c, 0, 67, 57
1, 154839, Note_off_c, 0, 48, 52
1, 154867, Note_off_c, 0, 67, 64
1, 154878, Note_off_c, 0, 60, 62
1, 154889, Note_on_c, 0, 68, 58
1, 154913, Note_off_c, 0, 68, 59
1, 154951, Note_on_c, 0, 72, 75
1, 154983, Note_off_c, 0, 72, 57
1, 155034, Note_on_c, 0, 76, 66
1, 155085, Note_on_c, 0, 62, 76
1, 155096, Control_c, 0, 64, 87
1, 155097, Note_on_c, 0, 50, 64
1, 155112, Control_c, 0, 64, 64
1, 155127, Control_c, 0, 64, 0
1, 155175, Note_off_c, 0, 76, 37
1, 155193, Control_c, 0, 64, 53
1, 155208, Control_c, 0, 64, 72
1, 155214, Note_off_c, 0, 62, 62
1, 155219, Note_on_c, 0, 77, 57
1, 155223, Control_c, 0, 64, 95
1, 155234, Note_off_c, 0, 50, 64
1, 155238, Control_c, 0, 64, 127
1, 155341, Note_off_c, 0, 77, 37
1, 155380, Note_on_c, 0, 79, 31
1, 155415, Note_off_c, 0, 79, 51
1, 155422, Note_on_c, 0, 40, 50
1, 155446, Note_on_c, 0, 77, 51
1, 155476, Note_off_c, 0, 77, 57
1, 155508, Note_on_c, 0, 79, 50
1, 155529, Note_off_c, 0, 40, 36
1, 155536, Note_off_c, 0, 79, 59
1, 155550, Note_on_c, 0, 34, 53
1, 155561, Note_on_c, 0, 77, 60
1, 155597, Note_off_c, 0, 77, 59
1, 155628, Note_on_c, 0, 79, 56
1, 155650, Note_off_c, 0, 79, 61
1, 155701, Note_on_c, 0, 77, 45
1, 155729, Note_off_c, 0, 77, 56
1, 155747, Note_on_c, 0, 79, 50
1, 155770, Note_off_c, 0, 79, 58
1, 155776, Note_off_c, 0, 34, 36
1, 155797, Note_on_c, 0, 77, 63
1, 155817, Note_off_c, 0, 77, 64
1, 155863, Note_on_c, 0, 79, 38
1, 155893, Note_off_c, 0, 79, 54
1, 155898, Note_on_c, 0, 77, 64
1, 155943, Note_on_c, 0, 40, 56
1, 155943, Note_off_c, 0, 77, 54
1, 155982, Note_on_c, 0, 79, 55
1, 156003, Note_off_c, 0, 79, 62
1, 156048, Note_on_c, 0, 77, 50
1, 156073, Note_off_c, 0, 77, 58
1, 156094, Note_on_c, 0, 79, 57
1, 156122, Note_off_c, 0, 79, 62
1, 156147, Note_on_c, 0, 77, 61
1, 156181, Note_off_c, 0, 77, 58
1, 156215, Note_on_c, 0, 79, 56
1, 156246, Note_off_c, 0, 79, 63
1, 156296, Note_on_c, 0, 77, 43
1, 156324, Note_off_c, 0, 77, 57
1, 156331, Note_on_c, 0, 79, 57
1, 156361, Note_off_c, 0, 79, 63
1, 156407, Note_on_c, 0, 77, 45
1, 156432, Note_off_c, 0, 77, 58
1, 156447, Note_on_c, 0, 79, 61
1, 156477, Note_off_c, 0, 79, 63
1, 156512, Note_on_c, 0, 77, 57
1, 156537, Note_off_c, 0, 77, 61
1, 156587, Note_on_c, 0, 79, 45
1, 156610, Note_off_c, 0, 79, 58
1, 156626, Note_on_c, 0, 77, 55
1, 156659, Note_off_c, 0, 77, 63
1, 156692, Note_on_c, 0, 79, 59
1, 156720, Note_off_c, 0, 79, 61
1, 156762, Note_on_c, 0, 77, 47
1, 156793, Note_off_c, 0, 77, 54
1, 156817, Note_on_c, 0, 79, 50
1, 156846, Note_off_c, 0, 79, 59
1, 156880, Note_on_c, 0, 34, 43
1, 156882, Note_off_c, 0, 40, 35
1, 156891, Note_on_c, 0, 77, 42
1, 156920, Note_off_c, 0, 77, 56
1, 156942, Note_on_c, 0, 79, 50
1, 156968, Note_off_c, 0, 79, 58
1, 157017, Note_on_c, 0, 77, 42
1, 157047, Note_off_c, 0, 77, 55
1, 157059, Note_on_c, 0, 79, 52
1, 157096, Note_off_c, 0, 79, 57
1, 157142, Note_on_c, 0, 77, 39
1, 157175, Note_off_c, 0, 77, 52
1, 157190, Note_on_c, 0, 79, 50
1, 157222, Note_off_c, 0, 79, 53
1, 157259, Note_on_c, 0, 77, 36
1, 157291, Note_off_c, 0, 77, 55
1, 157325, Note_on_c, 0, 79, 44
1, 157353, Note_off_c, 0, 79, 55
1, 157357, Note_on_c, 0, 40, 37
1, 157394, Note_on_c, 0, 77, 33
1, 157437, Note_off_c, 0, 77, 54
1, 157451, Note_on_c, 0, 79, 47
1, 157480, Note_off_c, 0, 79, 55
1, 157517, Note_on_c, 0, 77, 33
1, 157553, Note_off_c, 0, 77, 49
1, 157577, Note_off_c, 0, 34, 40
1, 157592, Note_on_c, 0, 79, 32
1, 157628, Note_off_c, 0, 79, 53
1, 157633, Note_on_c, 0, 77, 41
1, 157662, Note_off_c, 0, 77, 56
1, 157697, Note_on_c, 0, 79, 40
1, 157728, Note_off_c, 0, 79, 53
1, 157761, Note_on_c, 0, 77, 44
1, 157789, Note_off_c, 0, 77, 56
1, 157824, Note_on_c, 0, 79, 42
1, 157851, Note_off_c, 0, 79, 55
1, 157876, Note_on_c, 0, 77, 45
1, 157903, Note_off_c, 0, 77, 57
1, 157939, Note_on_c, 0, 79, 45
1, 157965, Note_off_c, 0, 79, 56
1, 157994, Note_off_c, 0, 40, 40
1, 158000, Note_on_c, 0, 77, 42
1, 158030, Note_off_c, 0, 77, 54
1, 158045, Note_on_c, 0, 79, 52
1, 158075, Note_off_c, 0, 79, 56
1, 158121, Note_on_c, 0, 77, 39
1, 158150, Note_off_c, 0, 77, 55
1, 158170, Note_on_c, 0, 79, 48
1, 158205, Note_off_c, 0, 79, 56
1, 158263, Note_on_c, 0, 77, 20
1, 158296, Note_on_c, 0, 79, 46
1, 158331, Note_off_c, 0, 79, 53
1, 158339, Note_off_c, 0, 77, 0
1, 158355, Note_on_c, 0, 77, 37
1, 158361, Note_on_c, 0, 34, 34
1, 158397, Note_off_c, 0, 77, 54
1, 158403, Note_off_c, 0, 34, 56
1, 158433, Note_on_c, 0, 79, 45
1, 158483, Note_off_c, 0, 79, 49
1, 158485, Note_on_c, 0, 77, 46
1, 158513, Note_off_c, 0, 77, 58
1, 158665, Note_on_c, 0, 67, 26
1, 158706, Note_off_c, 0, 67, 47
1, 158714, Note_on_c, 0, 68, 38
1, 158744, Note_off_c, 0, 68, 55
1, 158898, Note_on_c, 0, 76, 24
1, 158973, Note_on_c, 0, 62, 50
1, 158981, Note_on_c, 0, 50, 48
1, 159040, Control_c, 0, 64, 105
1, 159054, Control_c, 0, 64, 77
1, 159069, Control_c, 0, 64, 66
1, 159084, Control_c, 0, 64, 70
1, 159089, Note_off_c, 0, 76, 41
1, 159097, Note_on_c, 0, 77, 25
1, 159099, Control_c, 0, 64, 79
1, 159105, Note_off_c, 0, 62, 60
1, 159115, Control_c, 0, 64, 102
1, 159130, Control_c, 0, 64, 127
1, 159132, Note_off_c, 0, 50, 64
1, 159246, Note_off_c, 0, 77, 44
1, 159276, Note_on_c, 0, 79, 7
1, 159324, Note_on_c, 0, 40, 44
1, 159327, Note_off_c, 0, 79, 52
1, 159364, Note_on_c, 0, 77, 15
1, 159422, Note_off_c, 0, 77, 44
1, 159460, Note_on_c, 0, 34, 50
1, 159470, Note_on_c, 0, 77, 40
1, 159479, Poly_aftertouch_c, 0, 79, 127
1, 159483, Note_off_c, 0, 40, 41
1, 159503, Note_off_c, 0, 34, 60
1, 159512, Note_off_c, 0, 77, 56
1, 159533, Note_on_c, 0, 79, 20
1, 159574, Note_off_c, 0, 79, 55
1, 159597, Note_on_c, 0, 77, 50
1, 159628, Note_off_c, 0, 77, 55
1, 159727, Poly_aftertouch_c, 0, 79, 127
1, 159730, Note_on_c, 0, 77, 45
1, 159760, Note_off_c, 0, 77, 53
1, 159774, Note_on_c, 0, 79, 14
1, 159819, Note_off_c, 0, 79, 52
1, 159831, Note_on_c, 0, 77, 55
1, 159865, Note_off_c, 0, 77, 63
1, 159889, Note_on_c, 0, 79, 53
1, 159920, Note_off_c, 0, 79, 53
1, 159959, Note_on_c, 0, 77, 46
1, 159988, Note_off_c, 0, 77, 56
1, 159999, Note_on_c, 0, 79, 58
1, 160026, Note_off_c, 0, 79, 55
1, 160075, Note_on_c, 0, 77, 42
1, 160101, Note_off_c, 0, 77, 57
1, 160110, Note_on_c, 0, 79, 53
1, 160139, Note_off_c, 0, 79, 53
1, 160159, Note_on_c, 0, 60, 49
1, 160175, Note_on_c, 0, 48, 37
1, 160188, Note_on_c, 0, 77, 52
1, 160217, Note_off_c, 0, 77, 58
1, 160259, Note_off_c, 0, 60, 53
1, 160260, Note_on_c, 0, 76, 50
1, 160278, Note_off_c, 0, 48, 51
1, 160284, Note_off_c, 0, 76, 59
1, 160331, Note_on_c, 0, 72, 42
1, 160358, Note_off_c, 0, 72, 55
1, 160417, Note_on_c, 0, 68, 53
1, 160476, Note_off_c, 0, 68, 51
1, 160492, Note_on_c, 0, 59, 45
1, 160502, Note_on_c, 0, 47, 42
1, 160517, Note_on_c, 0, 67, 50
1, 160557, Note_off_c, 0, 67, 61
1, 160598, Note_on_c, 0, 68, 50
1, 160626, Control_c, 0, 64, 94
1, 160633, Note_off_c, 0, 68, 60
1, 160641, Control_c, 0, 64, 82
1, 160656, Control_c, 0, 64, 79
1, 160671, Control_c, 0, 64, 82
1, 160673, Note_on_c, 0, 67, 35
1, 160686, Control_c, 0, 64, 89
1, 160701, Control_c, 0, 64, 112
1, 160712, Note_off_c, 0, 67, 45
1, 160716, Control_c, 0, 64, 127
1, 160726, Note_on_c, 0, 68, 51
1, 160755, Note_off_c, 0, 68, 63
1, 160776, Control_c, 0, 64, 108
1, 160788, Note_on_c, 0, 67, 48
1, 160791, Control_c, 0, 64, 87
1, 160805, Control_c, 0, 64, 82
1, 160817, Note_off_c, 0, 67, 56
1, 160820, Control_c, 0, 64, 83
1, 160832, Note_on_c, 0, 68, 50
1, 160835, Control_c, 0, 64, 86
1, 160849, Control_c, 0, 64, 87
1, 160872, Note_off_c, 0, 68, 59
1, 160879, Control_c, 0, 64, 86
1, 160894, Control_c, 0, 64, 85
1, 160913, Note_on_c, 0, 67, 34
1, 160940, Note_off_c, 0, 67, 52
1, 160947, Note_off_c, 0, 47, 31
1, 160967, Note_on_c, 0, 68, 44
1, 160996, Note_off_c, 0, 68, 56
1, 160997, Control_c, 0, 64, 85
1, 161012, Control_c, 0, 64, 86
1, 161030, Note_on_c, 0, 67, 42
1, 161042, Control_c, 0, 64, 87
1, 161056, Control_c, 0, 64, 88
1, 161061, Note_off_c, 0, 67, 51
1, 161071, Control_c, 0, 64, 89
1, 161080, Note_on_c, 0, 68, 50
1, 161086, Control_c, 0, 64, 90
1, 161089, Note_off_c, 0, 59, 37
1, 161101, Control_c, 0, 64, 92
1, 161115, Note_off_c, 0, 68, 50
1, 161116, Control_c, 0, 64, 93
1, 161130, Control_c, 0, 64, 94
1, 161136, Note_on_c, 0, 67, 46
1, 161145, Control_c, 0, 64, 95
1, 161160, Control_c, 0, 64, 96
1, 161162, Note_off_c, 0, 67, 59
1, 161183, Control_c, 0, 64, 97
1, 161198, Control_c, 0, 64, 97
1, 161213, Control_c, 0, 64, 98
1, 161220, Note_on_c, 0, 68, 33
1, 161247, Note_off_c, 0, 68, 57
1, 161260, Note_on_c, 0, 67, 44
1, 161288, Note_off_c, 0, 67, 56
1, 161340, Note_on_c, 0, 68, 38
1, 161373, Note_off_c, 0, 68, 52
1, 161390, Note_on_c, 0, 67, 38
1, 161392, Note_on_c, 0, 60, 46
1, 161398, Note_on_c, 0, 48, 48
1, 161415, Note_off_c, 0, 67, 57
1, 161455, Note_on_c, 0, 68, 42
1, 161482, Note_off_c, 0, 68, 57
1, 161506, Note_on_c, 0, 67, 48
1, 161532, Note_off_c, 0, 67, 58
1, 161539, Note_off_c, 0, 48, 34
1, 161547, Note_off_c, 0, 60, 63
1, 161556, Note_on_c, 0, 68, 56
1, 161575, Note_off_c, 0, 68, 64
1, 161649, Note_on_c, 0, 72, 53
1, 161681, Note_off_c, 0, 72, 51
1, 161721, Note_on_c, 0, 76, 57
1, 161747, Control_c, 0, 64, 99
1, 161777, Control_c, 0, 64, 94
1, 161792, Control_c, 0, 64, 81
1, 161800, Note_on_c, 0, 62, 48
1, 161807, Control_c, 0, 64, 65
1, 161814, Note_on_c, 0, 50, 38
1, 161821, Control_c, 0, 64, 53
1, 161836, Control_c, 0, 64, 65
1, 161851, Control_c, 0, 64, 74
1, 161866, Control_c, 0, 64, 84
1, 161873, Note_off_c, 0, 76, 34
1, 161880, Control_c, 0, 64, 96
1, 161882, Note_on_c, 0, 77, 51
1, 161890, Note_off_c, 0, 62, 61
1, 161895, Control_c, 0, 64, 108
1, 161909, Note_off_c, 0, 50, 65
1, 161910, Control_c, 0, 64, 114
1, 161932, Control_c, 0, 64, 116
1, 161947, Control_c, 0, 64, 118
1, 161962, Control_c, 0, 64, 122
1, 161976, Control_c, 0, 64, 127
1, 161983, Note_off_c, 0, 77, 53
1, 162028, Note_on_c, 0, 79, 29
1, 162063, Note_off_c, 0, 79, 52
1, 162102, Note_on_c, 0, 77, 47
1, 162114, Note_on_c, 0, 40, 47
1, 162129, Note_off_c, 0, 77, 57
1, 162162, Note_on_c, 0, 79, 43
1, 162191, Note_off_c, 0, 79, 55
1, 162215, Note_on_c, 0, 77, 53
1, 162235, Note_on_c, 0, 34, 48
1, 162246, Note_off_c, 0, 77, 60
1, 162272, Note_off_c, 0, 34, 60
1, 162273, Note_off_c, 0, 40, 40
1, 162278, Note_on_c, 0, 79, 53
1, 162305, Note_off_c, 0, 79, 59
1, 162335, Note_on_c, 0, 77, 55
1, 162373, Note_off_c, 0, 77, 58
1, 162390, Note_on_c, 0, 79, 55
1, 162415, Note_off_c, 0, 79, 59
1, 162455, Note_on_c, 0, 77, 49
1, 162481, Note_off_c, 0, 77, 56
1, 162505, Note_on_c, 0, 79, 52
1, 162528, Note_off_c, 0, 79, 60
1, 162573, Note_on_c, 0, 77, 49
1, 162598, Note_off_c, 0, 77, 57
1, 162616, Note_on_c, 0, 79, 59
1, 162641, Note_off_c, 0, 79, 60
1, 162692, Note_on_c, 0, 77, 51
1, 162716, Note_off_c, 0, 77, 58
1, 162739, Note_on_c, 0, 79, 55
1, 162764, Note_off_c, 0, 79, 59
1, 162799, Note_on_c, 0, 77, 53
1, 162825, Note_off_c, 0, 77, 56
1, 162860, Note_on_c, 0, 79, 41
1, 162889, Note_off_c, 0, 79, 53
1, 162924, Note_on_c, 0, 77, 33
1, 162937, Note_on_c, 0, 60, 40
1, 162946, Note_on_c, 0, 48, 32
1, 162958, Note_off_c, 0, 77, 52
1, 162965, Note_on_c, 0, 79, 59
1, 162995, Note_off_c, 0, 79, 54
1, 163028, Note_off_c, 0, 60, 53
1, 163068, Note_on_c, 0, 77, 24
1, 163071, Note_off_c, 0, 48, 37
1, 163106, Note_on_c, 0, 76, 42
1, 163107, Note_off_c, 0, 77, 52
1, 163133, Note_off_c, 0, 76, 55
1, 163169, Note_on_c, 0, 72, 49
1, 163196, Note_off_c, 0, 72, 63
1, 163214, Control_c, 0, 64, 121
1, 163229, Control_c, 0, 64, 118
1, 163244, Control_c, 0, 64, 116
1, 163259, Control_c, 0, 64, 115
1, 163274, Control_c, 0, 64, 114
1, 163289, Control_c, 0, 64, 114
1, 163290, Note_on_c, 0, 68, 43
1, 163303, Control_c, 0, 64, 113
1, 163311, Note_on_c, 0, 59, 38
1, 163318, Control_c, 0, 64, 113
1, 163328, Note_on_c, 0, 47, 39
1, 163336, Note_off_c, 0, 68, 47
1, 163386, Note_on_c, 0, 67, 43
1, 163392, Control_c, 0, 64, 109
1, 163407, Control_c, 0, 64, 100
1, 163429, Note_off_c, 0, 67, 56
1, 163429, Control_c, 0, 64, 89
1, 163444, Control_c, 0, 64, 83
1, 163452, Note_on_c, 0, 68, 41
1, 163458, Control_c, 0, 64, 83
1, 163473, Control_c, 0, 64, 84
1, 163488, Control_c, 0, 64, 85
1, 163497, Note_off_c, 0, 68, 57
1, 163503, Control_c, 0, 64, 86
1, 163518, Control_c, 0, 64, 86
1, 163533, Control_c, 0, 64, 85
1, 163546, Note_on_c, 0, 67, 33
1, 163548, Control_c, 0, 64, 84
1, 163563, Control_c, 0, 64, 83
1, 163581, Note_off_c, 0, 67, 45
1, 163607, Control_c, 0, 64, 83
1, 163608, Note_on_c, 0, 68, 37
1, 163637, Control_c, 0, 64, 82
1, 163637, Note_off_c, 0, 68, 53
1, 163651, Control_c, 0, 64, 81
1, 163652, Note_on_c, 0, 67, 35
1, 163666, Control_c, 0, 64, 80
1, 163691, Note_off_c, 0, 67, 52
1, 163715, Note_on_c, 0, 68, 47
1, 163752, Note_off_c, 0, 68, 57
1, 163755, Control_c, 0, 64, 80
1, 163763, Note_on_c, 0, 67, 40
1, 163769, Control_c, 0, 64, 81
1, 163784, Control_c, 0, 64, 82
1, 163799, Control_c, 0, 64, 83
1, 163804, Note_off_c, 0, 67, 59
1, 163814, Control_c, 0, 64, 84
1, 163846, Note_on_c, 0, 68, 35
1, 163877, Note_off_c, 0, 68, 53
1, 163896, Note_on_c, 0, 67, 38
1, 163930, Note_off_c, 0, 67, 57
1, 163934, Control_c, 0, 64, 84
1, 163948, Control_c, 0, 64, 86
1, 163963, Control_c, 0, 64, 87
1, 163970, Note_on_c, 0, 68, 41
1, 163978, Control_c, 0, 64, 89
1, 163983, Note_off_c, 0, 59, 41
1, 163993, Control_c, 0, 64, 90
1, 164004, Note_off_c, 0, 68, 51
1, 164008, Control_c, 0, 64, 91
1, 164016, Note_on_c, 0, 67, 38
1, 164022, Control_c, 0, 64, 92
1, 164052, Control_c, 0, 64, 93
1, 164058, Note_off_c, 0, 67, 53
1, 164067, Control_c, 0, 64, 93
1, 164080, Note_on_c, 0, 68, 45
1, 164081, Control_c, 0, 64, 94
1, 164096, Control_c, 0, 64, 96
1, 164111, Control_c, 0, 64, 97
1, 164117, Note_off_c, 0, 68, 55
1, 164124, Note_on_c, 0, 67, 40
1, 164126, Control_c, 0, 64, 99
1, 164141, Control_c, 0, 64, 101
1, 164156, Control_c, 0, 64, 103
1, 164158, Note_off_c, 0, 67, 48
1, 164178, Control_c, 0, 64, 105
1, 164193, Control_c, 0, 64, 108
1, 164209, Control_c, 0, 64, 111
1, 164223, Control_c, 0, 64, 113
1, 164238, Control_c, 0, 64, 114
1, 164253, Control_c, 0, 64, 114
1, 164284, Note_off_c, 0, 47, 43
1, 164373, Poly_aftertouch_c, 0, 61, 127
1, 164407, Poly_aftertouch_c, 0, 61, 0
1, 164417, Note_on_c, 0, 62, 28
1, 164430, Control_c, 0, 64, 114
1, 164445, Control_c, 0, 64, 113
1, 164456, Note_off_c, 0, 62, 48
1, 164460, Control_c, 0, 64, 112
1, 164475, Control_c, 0, 64, 112
1, 164484, Note_on_c, 0, 66, 51
1, 164490, Control_c, 0, 64, 111
1, 164520, Control_c, 0, 64, 111
1, 164523, Note_off_c, 0, 66, 61
1, 164535, Control_c, 0, 64, 110
1, 164549, Control_c, 0, 64, 109
1, 164564, Control_c, 0, 64, 108
1, 164576, Note_on_c, 0, 70, 41
1, 164579, Control_c, 0, 64, 107
1, 164593, Control_c, 0, 64, 107
1, 164611, Note_off_c, 0, 70, 55
1, 164653, Control_c, 0, 64, 107
1, 164664, Note_on_c, 0, 56, 55
1, 164667, Control_c, 0, 64, 107
1, 164682, Control_c, 0, 64, 95
1, 164698, Control_c, 0, 64, 77
1, 164713, Control_c, 0, 64, 61
1, 164728, Control_c, 0, 64, 49
1, 164743, Control_c, 0, 64, 63
1, 164758, Control_c, 0, 64, 70
1, 164762, Note_on_c, 0, 71, 32
1, 164772, Control_c, 0, 64, 79
1, 164785, Note_off_c, 0, 56, 62
1, 164787, Control_c, 0, 64, 95
1, 164802, Control_c, 0, 64, 109
1, 164816, Control_c, 0, 64, 120
1, 164827, Note_off_c, 0, 71, 45
1, 164831, Control_c, 0, 64, 127
1, 164855, Note_on_c, 0, 73, 49
1, 164896, Note_off_c, 0, 73, 50
1, 164958, Note_on_c, 0, 71, 48
1, 164975, Note_on_c, 0, 40, 38
1, 164995, Note_off_c, 0, 71, 59
1, 165020, Note_on_c, 0, 73, 52
1, 165056, Note_off_c, 0, 73, 61
1, 165093, Note_on_c, 0, 71, 51
1, 165106, Note_on_c, 0, 34, 46
1, 165115, Note_off_c, 0, 40, 41
1, 165130, Note_off_c, 0, 71, 64
1, 165145, Note_off_c, 0, 34, 59
1, 165147, Note_on_c, 0, 73, 60
1, 165181, Note_off_c, 0, 73, 63
1, 165234, Note_on_c, 0, 71, 35
1, 165264, Note_off_c, 0, 71, 56
1, 165279, Note_on_c, 0, 73, 50
1, 165305, Note_off_c, 0, 73, 56
1, 165351, Note_on_c, 0, 71, 39
1, 165378, Note_off_c, 0, 71, 57
1, 165387, Note_on_c, 0, 73, 59
1, 165423, Note_off_c, 0, 73, 61
1, 165513, Poly_aftertouch_c, 0, 71, 127
1, 165518, Note_on_c, 0, 73, 52
1, 165524, Poly_aftertouch_c, 0, 71, 0
1, 165554, Note_off_c, 0, 73, 53
1, 165562, Poly_aftertouch_c, 0, 71, 127
1, 165580, Note_on_c, 0, 71, 3
1, 165631, Note_off_c, 0, 71, 56
1, 165648, Note_on_c, 0, 73, 59
1, 165695, Note_off_c, 0, 73, 63
1, 165726, Note_on_c, 0, 71, 47
1, 165749, Note_off_c, 0, 71, 60
1, 165808, Note_on_c, 0, 54, 47
1, 165835, Note_off_c, 0, 54, 59
1, 165892, Note_on_c, 0, 70, 48
1, 165936, Note_off_c, 0, 70, 61
1, 165959, Note_on_c, 0, 66, 54
1, 165998, Note_off_c, 0, 66, 61
1, 166025, Note_on_c, 0, 62, 50
1, 166055, Note_off_c, 0, 62, 63
1, 166120, Control_c, 0, 64, 116
1, 166135, Control_c, 0, 64, 110
1, 166150, Control_c, 0, 64, 106
1, 166156, Note_on_c, 0, 34, 40
1, 166164, Control_c, 0, 64, 103
1, 166170, Note_on_c, 0, 47, 39
1, 166176, Note_on_c, 0, 40, 31
1, 166179, Control_c, 0, 64, 101
1, 166194, Control_c, 0, 64, 99
1, 166209, Control_c, 0, 64, 98
1, 166224, Control_c, 0, 64, 96
1, 166238, Control_c, 0, 64, 95
1, 166252, Note_on_c, 0, 53, 50
1, 166253, Control_c, 0, 64, 93
1, 166255, Note_on_c, 0, 61, 45
1, 166268, Control_c, 0, 64, 91
1, 166283, Control_c, 0, 64, 88
1, 166299, Control_c, 0, 64, 83
1, 166314, Control_c, 0, 64, 78
1, 166329, Control_c, 0, 64, 72
1, 166335, Note_off_c, 0, 61, 39
1, 166343, Control_c, 0, 64, 66
1, 166358, Control_c, 0, 64, 64
1, 166373, Note_on_c, 0, 62, 39
1, 166373, Control_c, 0, 64, 65
1, 166388, Control_c, 0, 64, 66
1, 166403, Control_c, 0, 64, 68
1, 166409, Note_off_c, 0, 62, 53
1, 166424, Control_c, 0, 64, 68
1, 166454, Control_c, 0, 64, 68
1, 166468, Note_on_c, 0, 61, 33
1, 166499, Note_off_c, 0, 61, 47
1, 166499, Control_c, 0, 64, 68
1, 166502, Note_on_c, 0, 62, 51
1, 166541, Note_off_c, 0, 62, 62
1, 166543, Control_c, 0, 64, 68
1, 166558, Control_c, 0, 64, 67
1, 166573, Control_c, 0, 64, 67
1, 166583, Note_on_c, 0, 61, 38
1, 166588, Control_c, 0, 64, 66
1, 166603, Control_c, 0, 64, 65
1, 166616, Note_off_c, 0, 61, 56
1, 166641, Note_on_c, 0, 62, 41
1, 166647, Control_c, 0, 64, 66
1, 166675, Note_off_c, 0, 62, 54
1, 166717, Note_on_c, 0, 61, 32
1, 166749, Note_off_c, 0, 61, 49
1, 166765, Control_c, 0, 64, 66
1, 166777, Note_on_c, 0, 62, 42
1, 166780, Control_c, 0, 64, 68
1, 166794, Control_c, 0, 64, 69
1, 166809, Control_c, 0, 64, 71
1, 166816, Note_off_c, 0, 62, 53
1, 166824, Control_c, 0, 64, 74
1, 166839, Control_c, 0, 64, 78
1, 166844, Note_on_c, 0, 61, 52
1, 166854, Control_c, 0, 64, 81
1, 166869, Control_c, 0, 64, 82
1, 166881, Note_off_c, 0, 61, 58
1, 166883, Control_c, 0, 64, 83
1, 166931, Note_off_c, 0, 40, 41
1, 166937, Note_off_c, 0, 34, 41
1, 166949, Note_off_c, 0, 47, 41
1, 166964, Note_on_c, 0, 61, 36
1, 166966, Poly_aftertouch_c, 0, 62, 127
1, 166973, Control_c, 0, 64, 82
1, 166987, Control_c, 0, 64, 81
1, 167002, Control_c, 0, 64, 81
1, 167015, Poly_aftertouch_c, 0, 62, 0
1, 167017, Control_c, 0, 64, 80
1, 167032, Control_c, 0, 64, 80
1, 167038, Note_off_c, 0, 53, 43
1, 167047, Control_c, 0, 64, 79
1, 167059, Note_off_c, 0, 61, 37
1, 167076, Control_c, 0, 64, 78
1, 167092, Control_c, 0, 64, 78
1, 167119, Note_on_c, 0, 47, 27
1, 167122, Control_c, 0, 64, 77
1, 167134, Note_on_c, 0, 34, 31
1, 167152, Control_c, 0, 64, 77
1, 167156, Note_on_c, 0, 40, 9
1, 167162, Note_on_c, 0, 53, 41
1, 167173, Control_c, 0, 64, 76
1, 167184, Note_on_c, 0, 61, 17
1, 167217, Control_c, 0, 64, 76
1, 167262, Control_c, 0, 64, 75
1, 167310, Note_off_c, 0, 61, 40
1, 167338, Note_on_c, 0, 62, 18
1, 167381, Note_off_c, 0, 62, 47
1, 167413, Note_on_c, 0, 61, 28
1, 167425, Control_c, 0, 64, 75
1, 167452, Note_off_c, 0, 61, 51
1, 167486, Note_on_c, 0, 62, 36
1, 167521, Note_off_c, 0, 62, 53
1, 167529, Control_c, 0, 64, 74
1, 167544, Control_c, 0, 64, 74
1, 167557, Note_on_c, 0, 61, 40
1, 167559, Control_c, 0, 64, 73
1, 167573, Control_c, 0, 64, 73
1, 167588, Control_c, 0, 64, 72
1, 167590, Note_off_c, 0, 61, 54
1, 167636, Note_on_c, 0, 62, 25
1, 167673, Note_off_c, 0, 62, 45
1, 167677, Control_c, 0, 64, 73
1, 167691, Note_on_c, 0, 61, 43
1, 167691, Control_c, 0, 64, 73
1, 167706, Control_c, 0, 64, 74
1, 167721, Control_c, 0, 64, 75
1, 167723, Note_off_c, 0, 61, 56
1, 167736, Control_c, 0, 64, 75
1, 167751, Control_c, 0, 64, 76
1, 167766, Control_c, 0, 64, 77
1, 167775, Note_on_c, 0, 62, 17
1, 167781, Control_c, 0, 64, 78
1, 167796, Control_c, 0, 64, 79
1, 167811, Control_c, 0, 64, 80
1, 167825, Control_c, 0, 64, 82
1, 167838, Note_on_c, 0, 61, 35
1, 167840, Control_c, 0, 64, 83
1, 167846, Note_off_c, 0, 40, 42
1, 167863, Note_off_c, 0, 47, 38
1, 167873, Note_off_c, 0, 34, 43
1, 167885, Note_off_c, 0, 62, 0
1, 167894, Note_off_c, 0, 61, 43
1, 167929, Poly_aftertouch_c, 0, 62, 127
1, 167978, Note_off_c, 0, 53, 33
1, 167997, Control_c, 0, 64, 82
1, 168041, Control_c, 0, 64, 82
1, 168067, Poly_aftertouch_c, 0, 62, 0
1, 168071, Control_c, 0, 64, 81
1, 168086, Control_c, 0, 64, 81
1, 168115, Control_c, 0, 64, 80
1, 168130, Control_c, 0, 64, 80
1, 168135, Note_on_c, 0, 34, 20
1, 168138, Note_on_c, 0, 47, 16
1, 168145, Control_c, 0, 64, 79
1, 168157, Note_on_c, 0, 53, 25
1, 168159, Note_on_c, 0, 40, 14
1, 168160, Control_c, 0, 64, 79
1, 168175, Control_c, 0, 64, 78
1, 168187, Note_on_c, 0, 61, 10
1, 168189, Control_c, 0, 64, 78
1, 168204, Control_c, 0, 64, 77
1, 168219, Control_c, 0, 64, 76
1, 168234, Control_c, 0, 64, 76
1, 168249, Control_c, 0, 64, 75
1, 168264, Control_c, 0, 64, 74
1, 168279, Control_c, 0, 64, 72
1, 168293, Control_c, 0, 64, 71
1, 168308, Control_c, 0, 64, 69
1, 168323, Control_c, 0, 64, 69
1, 168338, Control_c, 0, 64, 68
1, 168344, Note_off_c, 0, 61, 42
1, 168375, Note_on_c, 0, 62, 22
1, 168416, Note_off_c, 0, 62, 51
1, 168469, Note_on_c, 0, 61, 29
1, 168471, Control_c, 0, 64, 69
1, 168508, Note_off_c, 0, 61, 50
1, 168537, Note_on_c, 0, 62, 19
1, 168586, Note_off_c, 0, 62, 47
1, 168634, Note_on_c, 0, 61, 15
1, 168687, Note_off_c, 0, 61, 48
1, 168729, Note_on_c, 0, 62, 16
1, 168761, Control_c, 0, 64, 68
1, 168802, Note_off_c, 0, 62, 36
1, 168805, Control_c, 0, 64, 68
1, 168835, Control_c, 0, 64, 67
1, 168838, Note_on_c, 0, 61, 19
1, 168850, Control_c, 0, 64, 67
1, 168879, Control_c, 0, 64, 67
1, 168894, Control_c, 0, 64, 68
1, 168909, Control_c, 0, 64, 68
1, 168924, Control_c, 0, 64, 69
1, 168938, Control_c, 0, 64, 71
1, 168953, Control_c, 0, 64, 73
1, 168968, Control_c, 0, 64, 76
1, 168983, Control_c, 0, 64, 79
1, 168997, Control_c, 0, 64, 81
1, 169012, Control_c, 0, 64, 82
1, 169027, Control_c, 0, 64, 84
1, 169042, Control_c, 0, 64, 85
1, 169057, Control_c, 0, 64, 86
1, 169071, Control_c, 0, 64, 88
1, 169086, Control_c, 0, 64, 89
1, 169101, Control_c, 0, 64, 90
1, 169116, Control_c, 0, 64, 91
1, 169131, Control_c, 0, 64, 92
1, 169146, Control_c, 0, 64, 93
1, 169176, Control_c, 0, 64, 93
1, 169182, Note_off_c, 0, 40, 38
1, 169205, Control_c, 0, 64, 94
1, 169220, Control_c, 0, 64, 95
1, 169235, Control_c, 0, 64, 95
1, 169244, Note_off_c, 0, 47, 25
1, 169250, Control_c, 0, 64, 96
1, 169279, Control_c, 0, 64, 96
1, 169304, Note_off_c, 0, 34, 38
1, 169328, Note_off_c, 0, 61, 39
1, 169461, Note_off_c, 0, 53, 44
1, 169465, Control_c, 0, 64, 96
1, 169495, Control_c, 0, 64, 95
1, 169510, Control_c, 0, 64, 95
1, 169525, Control_c, 0, 64, 94
1, 169539, Control_c, 0, 64, 94
1, 169554, Control_c, 0, 64, 93
1, 169569, Control_c, 0, 64, 92
1, 169584, Control_c, 0, 64, 91
1, 169599, Control_c, 0, 64, 90
1, 169614, Control_c, 0, 64, 89
1, 169628, Control_c, 0, 64, 88
1, 169643, Control_c, 0, 64, 87
1, 169658, Control_c, 0, 64, 86
1, 169673, Control_c, 0, 64, 85
1, 169687, Control_c, 0, 64, 84
1, 169702, Control_c, 0, 64, 82
1, 169717, Control_c, 0, 64, 81
1, 169732, Control_c, 0, 64, 79
1, 169747, Control_c, 0, 64, 78
1, 169761, Control_c, 0, 64, 76
1, 169776, Control_c, 0, 64, 74
1, 169791, Control_c, 0, 64, 72
1, 169806, Control_c, 0, 64, 71
1, 169820, Control_c, 0, 64, 69
1, 169835, Control_c, 0, 64, 68
1, 169850, Control_c, 0, 64, 67
1, 169865, Control_c, 0, 64, 66
1, 169880, Control_c, 0, 64, 64
1, 169894, Control_c, 0, 64, 63
1, 169895, Note_on_c, 0, 62, 28
1, 169907, Note_on_c, 0, 58, 23
1, 169909, Control_c, 0, 64, 60
1, 169924, Control_c, 0, 64, 52
1, 169939, Control_c, 0, 64, 37
1, 169954, Control_c, 0, 64, 0
1, 170102, Control_c, 0, 64, 55
1, 170117, Control_c, 0, 64, 65
1, 170132, Control_c, 0, 64, 71
1, 170147, Control_c, 0, 64, 76
1, 170161, Note_off_c, 0, 58, 46
1, 170168, Control_c, 0, 64, 82
1, 170183, Control_c, 0, 64, 87
1, 170198, Control_c, 0, 64, 91
1, 170212, Control_c, 0, 64, 93
1, 170227, Control_c, 0, 64, 97
1, 170242, Control_c, 0, 64, 100
1, 170257, Control_c, 0, 64, 103
1, 170272, Control_c, 0, 64, 106
1, 170288, Control_c, 0, 64, 110
1, 170303, Control_c, 0, 64, 115
1, 170317, Control_c, 0, 64, 122
1, 170332, Control_c, 0, 64, 127
1, 170364, Note_on_c, 0, 52, 29
1, 170375, Note_on_c, 0, 61, 40
1, 170386, Note_off_c, 0, 62, 37
1, 170714, Note_off_c, 0, 61, 30
1, 170776, Control_c, 0, 64, 126
1, 170791, Control_c, 0, 64, 119
1, 170806, Control_c, 0, 64, 116
1, 170821, Control_c, 0, 64, 113
1, 170832, Note_on_c, 0, 60, 35
1, 170836, Control_c, 0, 64, 111
1, 170846, Note_on_c, 0, 56, 32
1, 170866, Control_c, 0, 64, 111
1, 170932, Control_c, 0, 64, 109
1, 170948, Control_c, 0, 64, 101
1, 170962, Control_c, 0, 64, 89
1, 170977, Control_c, 0, 64, 78
1, 170992, Control_c, 0, 64, 68
1, 171007, Control_c, 0, 64, 64
1, 171022, Control_c, 0, 64, 66
1, 171036, Control_c, 0, 64, 68
1, 171037, Note_off_c, 0, 52, 42
1, 171051, Control_c, 0, 64, 72
1, 171066, Control_c, 0, 64, 78
1, 171081, Control_c, 0, 64, 84
1, 171097, Control_c, 0, 64, 89
1, 171112, Control_c, 0, 64, 92
1, 171127, Control_c, 0, 64, 93
1, 171141, Control_c, 0, 64, 93
1, 171200, Control_c, 0, 64, 94
1, 171220, Note_off_c, 0, 56, 22
1, 171259, Control_c, 0, 64, 94
1, 171274, Control_c, 0, 64, 95
1, 171289, Control_c, 0, 64, 95
1, 171304, Control_c, 0, 64, 96
1, 171316, Note_off_c, 0, 60, 43
1, 171319, Control_c, 0, 64, 97
1, 171331, Note_on_c, 0, 59, 42
1, 171334, Control_c, 0, 64, 99
1, 171349, Control_c, 0, 64, 101
1, 171353, Note_on_c, 0, 50, 31
1, 171364, Control_c, 0, 64, 103
1, 171379, Control_c, 0, 64, 104
1, 171393, Control_c, 0, 64, 105
1, 171408, Control_c, 0, 64, 106
1, 171423, Control_c, 0, 64, 108
1, 171438, Control_c, 0, 64, 109
1, 171453, Control_c, 0, 64, 111
1, 171467, Control_c, 0, 64, 112
1, 171482, Control_c, 0, 64, 114
1, 171497, Control_c, 0, 64, 116
1, 171507, Note_off_c, 0, 59, 43
1, 171512, Control_c, 0, 64, 117
1, 171527, Control_c, 0, 64, 117
1, 171552, Note_off_c, 0, 50, 45
1, 171726, Control_c, 0, 64, 117
1, 171755, Control_c, 0, 64, 116
1, 171770, Control_c, 0, 64, 115
1, 171784, Control_c, 0, 64, 113
1, 171787, Note_on_c, 0, 56, 40
1, 171799, Control_c, 0, 64, 111
1, 171809, Note_on_c, 0, 52, 33
1, 171814, Control_c, 0, 64, 109
1, 171829, Control_c, 0, 64, 106
1, 171844, Control_c, 0, 64, 103
1, 171859, Control_c, 0, 64, 101
1, 171874, Control_c, 0, 64, 98
1, 171875, Note_on_c, 0, 62, 41
1, 171889, Control_c, 0, 64, 96
1, 171904, Control_c, 0, 64, 93
1, 171914, Note_on_c, 0, 58, 24
1, 171919, Control_c, 0, 64, 90
1, 171934, Control_c, 0, 64, 88
1, 171949, Control_c, 0, 64, 85
1, 171963, Control_c, 0, 64, 83
1, 171978, Control_c, 0, 64, 78
1, 171993, Control_c, 0, 64, 72
1, 172008, Control_c, 0, 64, 64
1, 172016, Note_off_c, 0, 58, 0
1, 172023, Control_c, 0, 64, 51
1, 172037, Control_c, 0, 64, 26
1, 172052, Control_c, 0, 64, 28
1, 172053, Poly_aftertouch_c, 0, 58, 127
1, 172067, Control_c, 0, 64, 49
1, 172082, Control_c, 0, 64, 61
1, 172097, Control_c, 0, 64, 66
1, 172112, Control_c, 0, 64, 72
1, 172127, Control_c, 0, 64, 77
1, 172142, Control_c, 0, 64, 82
1, 172156, Note_off_c, 0, 56, 46
1, 172156, Control_c, 0, 64, 85
1, 172171, Control_c, 0, 64, 87
1, 172186, Control_c, 0, 64, 88
1, 172201, Control_c, 0, 64, 89
1, 172230, Control_c, 0, 64, 89
1, 172336, Note_off_c, 0, 52, 32
1, 172349, Note_on_c, 0, 55, 41
1, 172357, Note_on_c, 0, 46, 35
1, 172393, Control_c, 0, 64, 90
1, 172430, Control_c, 0, 64, 90
1, 172459, Control_c, 0, 64, 91
1, 172494, Note_off_c, 0, 55, 54
1, 172711, Control_c, 0, 64, 90
1, 172726, Control_c, 0, 64, 90
1, 172741, Control_c, 0, 64, 89
1, 172756, Control_c, 0, 64, 89
1, 172771, Control_c, 0, 64, 88
1, 172823, Note_on_c, 0, 54, 42
1, 172830, Control_c, 0, 64, 87
1, 172836, Note_on_c, 0, 50, 34
1, 172845, Control_c, 0, 64, 83
1, 172860, Control_c, 0, 64, 74
1, 172871, Note_off_c, 0, 46, 29
1, 172875, Control_c, 0, 64, 66
1, 172890, Control_c, 0, 64, 57
1, 172904, Control_c, 0, 64, 59
1, 172919, Control_c, 0, 64, 63
1, 172934, Control_c, 0, 64, 66
1, 172949, Control_c, 0, 64, 71
1, 172963, Control_c, 0, 64, 76
1, 172978, Control_c, 0, 64, 80
1, 172993, Control_c, 0, 64, 82
1, 173008, Control_c, 0, 64, 82
1, 173141, Control_c, 0, 64, 83
1, 173193, Control_c, 0, 64, 83
1, 173281, Note_off_c, 0, 54, 34
1, 173334, Note_on_c, 0, 44, 34
1, 173340, Note_on_c, 0, 53, 36
1, 173341, Control_c, 0, 64, 83
1, 173385, Control_c, 0, 64, 83
1, 173400, Control_c, 0, 64, 84
1, 173415, Control_c, 0, 64, 85
1, 173430, Control_c, 0, 64, 88
1, 173444, Control_c, 0, 64, 90
1, 173459, Control_c, 0, 64, 91
1, 173474, Control_c, 0, 64, 91
1, 173510, Note_off_c, 0, 53, 45
1, 173513, Note_off_c, 0, 62, 31
1, 173583, Poly_aftertouch_c, 0, 58, 0
1, 173660, Note_off_c, 0, 50, 37
1, 173727, Control_c, 0, 64, 91
1, 173742, Control_c, 0, 64, 90
1, 173757, Control_c, 0, 64, 89
1, 173772, Control_c, 0, 64, 89
1, 173786, Control_c, 0, 64, 88
1, 173801, Control_c, 0, 64, 87
1, 173816, Control_c, 0, 64, 86
1, 173828, Note_on_c, 0, 56, 33
1, 173831, Control_c, 0, 64, 86
1, 173834, Note_on_c, 0, 52, 28
1, 173846, Control_c, 0, 64, 85
1, 173860, Control_c, 0, 64, 83
1, 173871, Note_on_c, 0, 62, 29
1, 173875, Control_c, 0, 64, 82
1, 173887, Note_on_c, 0, 58, 37
1, 173890, Control_c, 0, 64, 80
1, 173912, Control_c, 0, 64, 78
1, 173927, Control_c, 0, 64, 76
1, 173942, Control_c, 0, 64, 73
1, 173957, Control_c, 0, 64, 70
1, 173972, Control_c, 0, 64, 67
1, 173982, Note_off_c, 0, 44, 39
1, 173987, Control_c, 0, 64, 63
1, 174002, Control_c, 0, 64, 49
1, 174017, Control_c, 0, 64, 0
1, 174061, Control_c, 0, 64, 51
1, 174076, Control_c, 0, 64, 64
1, 174091, Control_c, 0, 64, 70
1, 174106, Control_c, 0, 64, 76
1, 174121, Control_c, 0, 64, 81
1, 174135, Control_c, 0, 64, 85
1, 174150, Control_c, 0, 64, 87
1, 174161, Note_off_c, 0, 58, 42
1, 174165, Control_c, 0, 64, 88
1, 174180, Control_c, 0, 64, 89
1, 174194, Control_c, 0, 64, 91
1, 174209, Control_c, 0, 64, 92
1, 174216, Note_off_c, 0, 56, 41
1, 174218, Note_off_c, 0, 52, 42
1, 174224, Control_c, 0, 64, 94
1, 174239, Control_c, 0, 64, 95
1, 174254, Control_c, 0, 64, 96
1, 174268, Control_c, 0, 64, 97
1, 174284, Control_c, 0, 64, 98
1, 174314, Control_c, 0, 64, 98
1, 174409, Note_off_c, 0, 62, 40
1, 174410, Note_on_c, 0, 61, 50
1, 174428, Note_on_c, 0, 52, 35
1, 174595, Control_c, 0, 64, 98
1, 174662, Control_c, 0, 64, 97
1, 174677, Control_c, 0, 64, 97
1, 174706, Control_c, 0, 64, 96
1, 174751, Control_c, 0, 64, 96
1, 174780, Control_c, 0, 64, 95
1, 174795, Control_c, 0, 64, 95
1, 174810, Control_c, 0, 64, 94
1, 174825, Control_c, 0, 64, 93
1, 174840, Control_c, 0, 64, 92
1, 174854, Control_c, 0, 64, 91
1, 174863, Note_off_c, 0, 61, 28
1, 174869, Control_c, 0, 64, 90
1, 174884, Control_c, 0, 64, 89
1, 174889, Note_on_c, 0, 60, 45
1, 174899, Control_c, 0, 64, 88
1, 174913, Note_on_c, 0, 56, 34
1, 174914, Control_c, 0, 64, 87
1, 174928, Control_c, 0, 64, 86
1, 174943, Control_c, 0, 64, 85
1, 174958, Control_c, 0, 64, 84
1, 174973, Control_c, 0, 64, 83
1, 174988, Control_c, 0, 64, 79
1, 175002, Control_c, 0, 64, 73
1, 175017, Control_c, 0, 64, 66
1, 175032, Control_c, 0, 64, 59
1, 175047, Control_c, 0, 64, 58
1, 175051, Note_off_c, 0, 52, 41
1, 175062, Control_c, 0, 64, 62
1, 175078, Control_c, 0, 64, 65
1, 175093, Control_c, 0, 64, 68
1, 175107, Control_c, 0, 64, 72
1, 175122, Control_c, 0, 64, 76
1, 175137, Control_c, 0, 64, 79
1, 175151, Control_c, 0, 64, 82
1, 175166, Control_c, 0, 64, 84
1, 175181, Control_c, 0, 64, 86
1, 175196, Control_c, 0, 64, 87
1, 175211, Control_c, 0, 64, 88
1, 175240, Control_c, 0, 64, 88
1, 175355, Note_off_c, 0, 56, 16
1, 175361, Note_off_c, 0, 60, 38
1, 175394, Note_on_c, 0, 59, 44
1, 175415, Note_on_c, 0, 50, 33
1, 175470, Control_c, 0, 64, 89
1, 175485, Control_c, 0, 64, 90
1, 175500, Control_c, 0, 64, 92
1, 175514, Control_c, 0, 64, 93
1, 175529, Control_c, 0, 64, 96
1, 175544, Control_c, 0, 64, 97
1, 175558, Control_c, 0, 64, 99
1, 175573, Control_c, 0, 64, 100
1, 175603, Control_c, 0, 64, 100
1, 175632, Control_c, 0, 64, 101
1, 175635, Note_off_c, 0, 59, 48
1, 175681, Note_off_c, 0, 50, 41
1, 175886, Control_c, 0, 64, 100
1, 175890, Note_on_c, 0, 56, 41
1, 175901, Control_c, 0, 64, 99
1, 175911, Note_on_c, 0, 52, 35
1, 175916, Control_c, 0, 64, 98
1, 175930, Control_c, 0, 64, 97
1, 175945, Control_c, 0, 64, 96
1, 175960, Note_on_c, 0, 62, 47
1, 175960, Control_c, 0, 64, 95
1, 175974, Control_c, 0, 64, 94
1, 175981, Note_on_c, 0, 58, 37
1, 176063, Control_c, 0, 64, 94
1, 176078, Control_c, 0, 64, 93
1, 176093, Control_c, 0, 64, 91
1, 176108, Control_c, 0, 64, 87
1, 176123, Control_c, 0, 64, 80
1, 176137, Control_c, 0, 64, 71
1, 176160, Control_c, 0, 64, 65
1, 176175, Control_c, 0, 64, 64
1, 176189, Control_c, 0, 64, 68
1, 176203, Control_c, 0, 64, 72
1, 176214, Note_off_c, 0, 56, 47
1, 176218, Control_c, 0, 64, 78
1, 176233, Control_c, 0, 64, 85
1, 176248, Control_c, 0, 64, 91
1, 176262, Control_c, 0, 64, 95
1, 176277, Control_c, 0, 64, 96
1, 176292, Control_c, 0, 64, 97
1, 176480, Note_on_c, 0, 55, 43
1, 176485, Control_c, 0, 64, 96
1, 176500, Control_c, 0, 64, 90
1, 176512, Note_on_c, 0, 46, 30
1, 176515, Control_c, 0, 64, 84
1, 176529, Control_c, 0, 64, 76
1, 176544, Control_c, 0, 64, 71
1, 176551, Note_off_c, 0, 52, 41
1, 176559, Control_c, 0, 64, 70
1, 176573, Control_c, 0, 64, 73
1, 176588, Control_c, 0, 64, 78
1, 176603, Control_c, 0, 64, 85
1, 176618, Control_c, 0, 64, 93
1, 176633, Control_c, 0, 64, 99
1, 176647, Control_c, 0, 64, 101
1, 176697, Note_off_c, 0, 55, 34
1, 176908, Control_c, 0, 64, 100
1, 176923, Control_c, 0, 64, 100
1, 176938, Control_c, 0, 64, 99
1, 176953, Control_c, 0, 64, 99
1, 176987, Note_on_c, 0, 54, 46
1, 176998, Control_c, 0, 64, 98
1, 177002, Note_on_c, 0, 50, 40
1, 177072, Control_c, 0, 64, 97
1, 177086, Control_c, 0, 64, 92
1, 177101, Control_c, 0, 64, 81
1, 177111, Note_off_c, 0, 46, 34
1, 177116, Control_c, 0, 64, 68
1, 177130, Control_c, 0, 64, 55
1, 177145, Control_c, 0, 64, 61
1, 177160, Control_c, 0, 64, 68
1, 177175, Control_c, 0, 64, 76
1, 177190, Control_c, 0, 64, 89
1, 177204, Control_c, 0, 64, 107
1, 177219, Control_c, 0, 64, 127
1, 177331, Note_off_c, 0, 54, 61
1, 177481, Note_on_c, 0, 53, 60
1, 177499, Note_on_c, 0, 44, 46
1, 177516, Control_c, 0, 64, 110
1, 177531, Control_c, 0, 64, 104
1, 177546, Control_c, 0, 64, 105
1, 177561, Control_c, 0, 64, 112
1, 177567, Note_off_c, 0, 50, 35
1, 177576, Control_c, 0, 64, 127
1, 177682, Note_off_c, 0, 53, 55
1, 177984, Note_on_c, 0, 52, 56
1, 178002, Note_on_c, 0, 48, 49
1, 178160, Control_c, 0, 64, 115
1, 178175, Control_c, 0, 64, 104
1, 178190, Control_c, 0, 64, 94
1, 178205, Control_c, 0, 64, 84
1, 178220, Control_c, 0, 64, 70
1, 178232, Note_off_c, 0, 44, 40
1, 178235, Control_c, 0, 64, 0
1, 178295, Control_c, 0, 64, 55
1, 178310, Control_c, 0, 64, 73
1, 178324, Control_c, 0, 64, 93
1, 178339, Control_c, 0, 64, 127
1, 178733, Note_on_c, 0, 42, 52
1, 178736, Note_on_c, 0, 51, 59
1, 179043, Control_c, 0, 64, 115
1, 179057, Control_c, 0, 64, 110
1, 179073, Control_c, 0, 64, 106
1, 179088, Control_c, 0, 64, 101
1, 179103, Control_c, 0, 64, 97
1, 179118, Control_c, 0, 64, 94
1, 179133, Control_c, 0, 64, 90
1, 179155, Control_c, 0, 64, 87
1, 179170, Control_c, 0, 64, 84
1, 179180, Note_off_c, 0, 52, 38
1, 179185, Control_c, 0, 64, 81
1, 179199, Control_c, 0, 64, 79
1, 179214, Control_c, 0, 64, 78
1, 179229, Control_c, 0, 64, 76
1, 179244, Control_c, 0, 64, 74
1, 179259, Control_c, 0, 64, 72
1, 179273, Control_c, 0, 64, 71
1, 179288, Control_c, 0, 64, 69
1, 179303, Control_c, 0, 64, 69
1, 179347, Control_c, 0, 64, 69
1, 179360, Note_off_c, 0, 48, 40
1, 179362, Control_c, 0, 64, 70
1, 179377, Control_c, 0, 64, 70
1, 179392, Control_c, 0, 64, 71
1, 179436, Control_c, 0, 64, 70
1, 179466, Control_c, 0, 64, 70
1, 179585, Control_c, 0, 64, 69
1, 179673, Control_c, 0, 64, 70
1, 179870, Note_off_c, 0, 58, 9
1, 179904, Control_c, 0, 64, 69
1, 179934, Note_on_c, 0, 61, 36
1, 179934, Control_c, 0, 64, 69
1, 179948, Control_c, 0, 64, 68
1, 179959, Note_on_c, 0, 57, 35
1, 179978, Control_c, 0, 64, 68
1, 179993, Control_c, 0, 64, 67
1, 180008, Control_c, 0, 64, 67
1, 180037, Control_c, 0, 64, 66
1, 180044, Note_off_c, 0, 62, 19
1, 180052, Control_c, 0, 64, 65
1, 180067, Control_c, 0, 64, 65
1, 180082, Control_c, 0, 64, 64
1, 180126, Control_c, 0, 64, 65
1, 180141, Control_c, 0, 64, 67
1, 180155, Control_c, 0, 64, 71
1, 180170, Control_c, 0, 64, 75
1, 180185, Control_c, 0, 64, 81
1, 180200, Control_c, 0, 64, 85
1, 180214, Note_off_c, 0, 42, 59
1, 180215, Control_c, 0, 64, 89
1, 180229, Control_c, 0, 64, 91
1, 180244, Control_c, 0, 64, 92
1, 180281, Note_off_c, 0, 61, 39
1, 180304, Note_off_c, 0, 51, 34
1, 180320, Note_off_c, 0, 57, 57
1, 180333, Control_c, 0, 64, 91
1, 180348, Control_c, 0, 64, 90
1, 180363, Control_c, 0, 64, 89
1, 180378, Control_c, 0, 64, 87
1, 180393, Control_c, 0, 64, 86
1, 180408, Control_c, 0, 64, 84
1, 180422, Control_c, 0, 64, 83
1, 180437, Control_c, 0, 64, 83
1, 180452, Control_c, 0, 64, 81
1, 180467, Control_c, 0, 64, 75
1, 180476, Note_on_c, 0, 42, 47
1, 180476, Note_on_c, 0, 51, 51
1, 180482, Control_c, 0, 64, 63
1, 180491, Note_on_c, 0, 60, 50
1, 180496, Control_c, 0, 64, 0
1, 180498, Note_on_c, 0, 56, 45
1, 180560, Note_off_c, 0, 51, 63
1, 180570, Control_c, 0, 64, 58
1, 180571, Note_on_c, 0, 54, 51
1, 180581, Note_on_c, 0, 50, 47
1, 180585, Control_c, 0, 64, 71
1, 180600, Control_c, 0, 64, 81
1, 180614, Note_off_c, 0, 56, 62
1, 180615, Control_c, 0, 64, 89
1, 180629, Control_c, 0, 64, 92
1, 180636, Note_off_c, 0, 60, 64
1, 180667, Control_c, 0, 64, 92
1, 180682, Control_c, 0, 64, 91
1, 180694, Note_off_c, 0, 50, 38
1, 180697, Control_c, 0, 64, 90
1, 180699, Note_off_c, 0, 54, 33
1, 180757, Control_c, 0, 64, 90
1, 180786, Control_c, 0, 64, 89
1, 180797, Note_off_c, 0, 42, 52
1, 180816, Control_c, 0, 64, 89
1, 180860, Control_c, 0, 64, 88
1, 180890, Control_c, 0, 64, 88
1, 180905, Control_c, 0, 64, 87
1, 180919, Control_c, 0, 64, 87
1, 180934, Control_c, 0, 64, 86
1, 180949, Control_c, 0, 64, 85
1, 180964, Control_c, 0, 64, 85
1, 180993, Control_c, 0, 64, 84
1, 181008, Control_c, 0, 64, 84
1, 181023, Control_c, 0, 64, 83
1, 181038, Control_c, 0, 64, 81
1, 181052, Control_c, 0, 64, 79
1, 181067, Control_c, 0, 64, 75
1, 181082, Control_c, 0, 64, 68
1, 181097, Control_c, 0, 64, 61
1, 181112, Control_c, 0, 64, 24
1, 181112, Control_c, 0, 67, 8
1, 181126, Control_c, 0, 64, 0
1, 181126, Control_c, 0, 67, 11
1, 181141, Control_c, 0, 67, 14
1, 181156, Control_c, 0, 67, 17
1, 181171, Control_c, 0, 67, 20
1, 181186, Control_c, 0, 67, 24
1, 181201, Control_c, 0, 67, 26
1, 181216, Control_c, 0, 67, 28
1, 181231, Control_c, 0, 64, 65
1, 181231, Control_c, 0, 67, 29
1, 181245, Control_c, 0, 64, 79
1, 181245, Control_c, 0, 67, 31
1, 181260, Control_c, 0, 64, 94
1, 181260, Control_c, 0, 67, 37
1, 181275, Control_c, 0, 64, 122
1, 181275, Control_c, 0, 67, 54
1, 181289, Control_c, 0, 64, 127
1, 181289, Control_c, 0, 67, 67
1, 181304, Control_c, 0, 67, 74
1, 181319, Control_c, 0, 67, 77
1, 181334, Control_c, 0, 67, 80
1, 181349, Control_c, 0, 67, 81
1, 181363, Control_c, 0, 67, 82
1, 181451, Note_on_c, 0, 60, 24
1, 181464, Note_on_c, 0, 68, 28
1, 181474, Note_on_c, 0, 56, 26
1, 181476, Note_on_c, 0, 30, 26
1, 181540, Poly_aftertouch_c, 0, 44, 127
1, 181551, Poly_aftertouch_c, 0, 39, 127
1, 181579, Control_c, 0, 67, 81
1, 181584, Poly_aftertouch_c, 0, 44, 0
1, 181593, Poly_aftertouch_c, 0, 39, 0
1, 181594, Control_c, 0, 67, 81
1, 181624, Control_c, 0, 67, 80
1, 181630, Note_off_c, 0, 30, 41
1, 181639, Control_c, 0, 67, 80
1, 181641, Note_off_c, 0, 68, 43
1, 181654, Control_c, 0, 67, 79
1, 181657, Note_off_c, 0, 60, 43
1, 181658, Note_off_c, 0, 56, 43
1, 181669, Control_c, 0, 67, 78
1, 181683, Control_c, 0, 67, 78
1, 181698, Control_c, 0, 67, 77
1, 181713, Control_c, 0, 67, 77
1, 181742, Control_c, 0, 67, 76
1, 181757, Control_c, 0, 67, 76
1, 181772, Control_c, 0, 67, 75
1, 181787, Control_c, 0, 67, 74
1, 181801, Control_c, 0, 67, 73
1, 181816, Control_c, 0, 67, 73
1, 181831, Control_c, 0, 67, 72
1, 181846, Control_c, 0, 67, 72
1, 181861, Control_c, 0, 67, 71
1, 181875, Control_c, 0, 67, 71
1, 181905, Control_c, 0, 67, 70
1, 181964, Control_c, 0, 67, 70
1, 181994, Control_c, 0, 67, 69
1, 182009, Control_c, 0, 67, 69
1, 182023, Control_c, 0, 67, 68
1, 182038, Control_c, 0, 67, 65
1, 182053, Control_c, 0, 67, 62
1, 182068, Control_c, 0, 67, 59
1, 182083, Control_c, 0, 67, 57
1, 182098, Control_c, 0, 67, 55
1, 182112, Control_c, 0, 67, 54
1, 182127, Control_c, 0, 67, 53
1, 182149, Control_c, 0, 67, 50
1, 182164, Control_c, 0, 67, 47
1, 182179, Control_c, 0, 67, 44
1, 182193, Control_c, 0, 67, 41
1, 182208, Control_c, 0, 67, 37
1, 182223, Control_c, 0, 67, 34
1, 182238, Control_c, 0, 67, 30
1, 182253, Control_c, 0, 67, 28
1, 182269, Control_c, 0, 67, 25
1, 182284, Control_c, 0, 67, 23
1, 182298, Control_c, 0, 67, 22
1, 182417, Control_c, 0, 67, 22
1, 182565, Control_c, 0, 64, 124
1, 182580, Control_c, 0, 64, 121
1, 182595, Control_c, 0, 64, 118
1, 182610, Control_c, 0, 64, 116
1, 182624, Control_c, 0, 64, 114
1, 182639, Control_c, 0, 64, 112
1, 182654, Control_c, 0, 64, 110
1, 182654, Control_c, 0, 67, 23
1, 182658, Note_on_c, 0, 43, 39
1, 182669, Control_c, 0, 64, 108
1, 182684, Control_c, 0, 64, 105
1, 182698, Control_c, 0, 64, 103
1, 182713, Control_c, 0, 64, 100
1, 182728, Control_c, 0, 64, 97
1, 182742, Control_c, 0, 64, 94
1, 182757, Control_c, 0, 64, 90
1, 182772, Control_c, 0, 64, 88
1, 182787, Control_c, 0, 64, 85
1, 182802, Control_c, 0, 64, 82
1, 182816, Control_c, 0, 64, 79
1, 182831, Control_c, 0, 64, 76
1, 182846, Control_c, 0, 64, 74
1, 182861, Control_c, 0, 64, 71
1, 182876, Control_c, 0, 64, 69
1, 182876, Control_c, 0, 67, 23
1, 182898, Control_c, 0, 64, 68
1, 182913, Control_c, 0, 64, 67
1, 182928, Control_c, 0, 64, 67
1, 182942, Control_c, 0, 64, 66
1, 182957, Control_c, 0, 64, 65
1, 182972, Control_c, 0, 64, 63
1, 182972, Control_c, 0, 67, 24
1, 182987, Control_c, 0, 64, 59
1, 183002, Control_c, 0, 64, 51
1, 183016, Control_c, 0, 64, 42
1, 183031, Control_c, 0, 64, 40
1, 183046, Control_c, 0, 64, 43
1, 183061, Control_c, 0, 64, 53
1, 183077, Control_c, 0, 64, 62
1, 183077, Control_c, 0, 67, 24
1, 183092, Control_c, 0, 64, 67
1, 183092, Control_c, 0, 67, 25
1, 183107, Control_c, 0, 64, 73
1, 183107, Control_c, 0, 67, 26
1, 183120, Note_on_c, 0, 36, 14
1, 183121, Control_c, 0, 64, 79
1, 183121, Control_c, 0, 67, 27
1, 183136, Control_c, 0, 64, 88
1, 183136, Control_c, 0, 67, 28
1, 183151, Control_c, 0, 64, 95
1, 183151, Control_c, 0, 67, 29
1, 183165, Control_c, 0, 64, 100
1, 183165, Control_c, 0, 67, 30
1, 183180, Control_c, 0, 64, 103
1, 183180, Control_c, 0, 67, 31
1, 183195, Control_c, 0, 64, 106
1, 183195, Control_c, 0, 67, 32
1, 183210, Control_c, 0, 64, 108
1, 183210, Control_c, 0, 67, 33
1, 183213, Note_on_c, 0, 51, 35
1, 183225, Control_c, 0, 64, 113
1, 183225, Control_c, 0, 67, 34
1, 183240, Control_c, 0, 64, 116
1, 183240, Control_c, 0, 67, 35
1, 183255, Control_c, 0, 64, 119
1, 183255, Control_c, 0, 67, 38
1, 183270, Control_c, 0, 64, 124
1, 183270, Control_c, 0, 67, 43
1, 183284, Control_c, 0, 64, 127
1, 183284, Control_c, 0, 67, 49
1, 183299, Control_c, 0, 67, 55
1, 183314, Control_c, 0, 67, 61
1, 183329, Control_c, 0, 67, 65
1, 183344, Control_c, 0, 67, 68
1, 183359, Control_c, 0, 67, 70
1, 183362, Note_off_c, 0, 36, 34
1, 183373, Control_c, 0, 67, 72
1, 183377, Note_on_c, 0, 30, 32
1, 183388, Control_c, 0, 67, 74
1, 183403, Control_c, 0, 67, 74
1, 183417, Note_off_c, 0, 51, 44
1, 183418, Control_c, 0, 67, 76
1, 183433, Control_c, 0, 67, 77
1, 183447, Control_c, 0, 67, 78
1, 183462, Control_c, 0, 67, 79
1, 183477, Control_c, 0, 67, 80
1, 183491, Control_c, 0, 67, 80
1, 183506, Control_c, 0, 67, 81
1, 183536, Control_c, 0, 67, 81
1, 183564, Note_off_c, 0, 30, 40
1, 183602, Note_on_c, 0, 36, 33
1, 183660, Note_on_c, 0, 51, 27
1, 183722, Control_c, 0, 67, 81
1, 183779, Note_off_c, 0, 51, 32
1, 183781, Control_c, 0, 67, 80
1, 183841, Control_c, 0, 67, 80
1, 183886, Control_c, 0, 67, 79
1, 183901, Control_c, 0, 67, 79
1, 183923, Note_on_c, 0, 30, 31
1, 183923, Note_off_c, 0, 36, 33
1, 183945, Control_c, 0, 67, 78
1, 183989, Control_c, 0, 67, 78
1, 184019, Control_c, 0, 67, 77
1, 184048, Note_on_c, 0, 51, 38
1, 184049, Control_c, 0, 67, 77
1, 184078, Control_c, 0, 67, 76
1, 184093, Control_c, 0, 67, 76
1, 184098, Note_off_c, 0, 51, 58
1, 184108, Control_c, 0, 67, 75
1, 184122, Control_c, 0, 67, 74
1, 184134, Note_off_c, 0, 30, 40
1, 184137, Control_c, 0, 67, 73
1, 184149, Note_on_c, 0, 36, 38
1, 184152, Control_c, 0, 67, 73
1, 184167, Control_c, 0, 67, 72
1, 184182, Control_c, 0, 67, 71
1, 184197, Control_c, 0, 67, 70
1, 184211, Control_c, 0, 67, 69
1, 184226, Note_on_c, 0, 51, 42
1, 184226, Control_c, 0, 67, 67
1, 184229, Note_off_c, 0, 43, 28
1, 184241, Control_c, 0, 67, 63
1, 184256, Control_c, 0, 67, 56
1, 184271, Control_c, 0, 67, 45
1, 184286, Control_c, 0, 67, 33
1, 184287, Note_off_c, 0, 51, 54
1, 184301, Control_c, 0, 67, 20
1, 184315, Control_c, 0, 67, 0
1, 184337, Note_on_c, 0, 30, 39
1, 184346, Note_off_c, 0, 36, 39
1, 184427, Note_off_c, 0, 30, 40
1, 184446, Note_on_c, 0, 51, 47
1, 184483, Note_off_c, 0, 51, 61
1, 184522, Note_on_c, 0, 44, 65
1, 184602, Control_c, 0, 64, 123
1, 184617, Control_c, 0, 64, 119
1, 184632, Control_c, 0, 64, 117
1, 184647, Control_c, 0, 64, 115
1, 184663, Control_c, 0, 64, 113
1, 184675, Note_on_c, 0, 51, 42
1, 184678, Control_c, 0, 64, 111
1, 184692, Control_c, 0, 64, 109
1, 184707, Control_c, 0, 64, 108
1, 184722, Control_c, 0, 64, 106
1, 184736, Control_c, 0, 64, 105
1, 184751, Control_c, 0, 64, 104
1, 184766, Control_c, 0, 64, 103
1, 184781, Control_c, 0, 64, 102
1, 184796, Control_c, 0, 64, 102
1, 184811, Control_c, 0, 64, 101
1, 184826, Control_c, 0, 64, 101
1, 184836, Note_on_c, 0, 36, 43
1, 184840, Control_c, 0, 64, 100
1, 184855, Control_c, 0, 64, 100
1, 184870, Control_c, 0, 64, 99
1, 184900, Control_c, 0, 64, 99
1, 184915, Control_c, 0, 64, 98
1, 184944, Control_c, 0, 64, 98
1, 184959, Control_c, 0, 64, 97
1, 184974, Control_c, 0, 64, 96
1, 184989, Control_c, 0, 64, 95
1, 185004, Control_c, 0, 64, 94
1, 185018, Control_c, 0, 64, 93
1, 185033, Control_c, 0, 64, 92
1, 185048, Control_c, 0, 64, 91
1, 185057, Note_off_c, 0, 36, 32
1, 185063, Control_c, 0, 64, 90
1, 185078, Control_c, 0, 64, 89
1, 185092, Control_c, 0, 64, 88
1, 185105, Note_on_c, 0, 48, 38
1, 185107, Control_c, 0, 64, 86
1, 185122, Control_c, 0, 64, 85
1, 185144, Control_c, 0, 64, 84
1, 185159, Control_c, 0, 64, 83
1, 185174, Control_c, 0, 64, 82
1, 185189, Control_c, 0, 64, 81
1, 185201, Note_off_c, 0, 51, 34
1, 185204, Control_c, 0, 64, 80
1, 185218, Control_c, 0, 64, 79
1, 185222, Note_on_c, 0, 30, 41
1, 185233, Control_c, 0, 64, 79
1, 185248, Control_c, 0, 64, 78
1, 185262, Control_c, 0, 64, 78
1, 185277, Control_c, 0, 64, 77
1, 185292, Control_c, 0, 64, 77
1, 185307, Control_c, 0, 64, 76
1, 185322, Control_c, 0, 64, 75
1, 185336, Control_c, 0, 64, 75
1, 185338, Note_off_c, 0, 48, 33
1, 185351, Control_c, 0, 64, 74
1, 185366, Control_c, 0, 64, 73
1, 185381, Control_c, 0, 64, 72
1, 185391, Note_off_c, 0, 30, 45
1, 185396, Control_c, 0, 64, 71
1, 185411, Control_c, 0, 64, 70
1, 185425, Control_c, 0, 64, 68
1, 185439, Note_on_c, 0, 36, 40
1, 185440, Control_c, 0, 64, 67
1, 185455, Control_c, 0, 64, 67
1, 185486, Control_c, 0, 64, 66
1, 185515, Control_c, 0, 64, 66
1, 185530, Control_c, 0, 64, 65
1, 185545, Control_c, 0, 64, 65
1, 185551, Note_on_c, 0, 52, 49
1, 185560, Control_c, 0, 64, 64
1, 185574, Control_c, 0, 64, 63
1, 185589, Control_c, 0, 64, 62
1, 185604, Control_c, 0, 64, 59
1, 185619, Control_c, 0, 64, 56
1, 185620, Note_off_c, 0, 52, 59
1, 185633, Control_c, 0, 64, 50
1, 185648, Control_c, 0, 64, 38
1, 185651, Note_on_c, 0, 51, 42
1, 185663, Control_c, 0, 64, 0
1, 185842, Note_off_c, 0, 36, 22
1, 185865, Note_on_c, 0, 30, 29
1, 186100, Control_c, 0, 64, 40
1, 186114, Note_off_c, 0, 30, 43
1, 186115, Control_c, 0, 64, 58
1, 186130, Control_c, 0, 64, 64
1, 186145, Control_c, 0, 64, 67
1, 186152, Note_on_c, 0, 36, 27
1, 186159, Control_c, 0, 64, 70
1, 186174, Control_c, 0, 64, 73
1, 186189, Control_c, 0, 64, 76
1, 186204, Control_c, 0, 64, 80
1, 186219, Control_c, 0, 64, 83
1, 186233, Control_c, 0, 64, 86
1, 186248, Control_c, 0, 64, 88
1, 186264, Control_c, 0, 64, 90
1, 186279, Control_c, 0, 64, 92
1, 186294, Control_c, 0, 64, 94
1, 186308, Control_c, 0, 64, 94
1, 186333, Note_off_c, 0, 51, 43
1, 186353, Control_c, 0, 64, 95
1, 186457, Control_c, 0, 67, 10
1, 186471, Control_c, 0, 67, 15
1, 186480, Note_on_c, 0, 30, 28
1, 186486, Control_c, 0, 67, 20
1, 186501, Control_c, 0, 67, 26
1, 186516, Control_c, 0, 67, 32
1, 186531, Control_c, 0, 67, 39
1, 186546, Control_c, 0, 67, 46
1, 186560, Control_c, 0, 64, 95
1, 186560, Control_c, 0, 67, 53
1, 186575, Control_c, 0, 67, 57
1, 186579, Note_off_c, 0, 44, 25
1, 186590, Control_c, 0, 67, 61
1, 186605, Control_c, 0, 67, 65
1, 186620, Control_c, 0, 64, 95
1, 186620, Control_c, 0, 67, 67
1, 186643, Control_c, 0, 67, 69
1, 186658, Control_c, 0, 67, 71
1, 186672, Control_c, 0, 64, 94
1, 186672, Control_c, 0, 67, 72
1, 186687, Control_c, 0, 64, 92
1, 186687, Control_c, 0, 67, 73
1, 186702, Control_c, 0, 64, 90
1, 186702, Control_c, 0, 67, 74
1, 186716, Control_c, 0, 64, 87
1, 186716, Control_c, 0, 67, 75
1, 186724, Note_off_c, 0, 36, 34
1, 186731, Control_c, 0, 64, 82
1, 186731, Control_c, 0, 67, 76
1, 186746, Control_c, 0, 64, 73
1, 186761, Control_c, 0, 64, 62
1, 186776, Control_c, 0, 64, 0
1, 186790, Control_c, 0, 67, 74
1, 186803, Note_off_c, 0, 30, 40
1, 186805, Control_c, 0, 67, 71
1, 186820, Control_c, 0, 67, 69
1, 186835, Control_c, 0, 67, 65
1, 186850, Control_c, 0, 67, 60
1, 186864, Control_c, 0, 67, 49
1, 186879, Control_c, 0, 67, 26
1, 186894, Control_c, 0, 67, 0
1, 187026, Note_on_c, 0, 60, 26
1, 187034, Note_on_c, 0, 56, 19
1, 187088, Control_c, 0, 64, 41
1, 187103, Control_c, 0, 64, 60
1, 187118, Control_c, 0, 64, 65
1, 187132, Control_c, 0, 64, 69
1, 187147, Control_c, 0, 64, 73
1, 187162, Control_c, 0, 64, 78
1, 187177, Control_c, 0, 64, 82
1, 187192, Control_c, 0, 64, 87
1, 187207, Control_c, 0, 64, 93
1, 187221, Control_c, 0, 64, 99
1, 187236, Control_c, 0, 64, 105
1, 187251, Control_c, 0, 64, 111
1, 187266, Control_c, 0, 64, 121
1, 187281, Control_c, 0, 64, 127
1, 187329, Note_off_c, 0, 56, 43
1, 187455, Note_off_c, 0, 60, 43
1, 187499, Note_on_c, 0, 59, 44
1, 187524, Note_on_c, 0, 50, 32
1, 187978, Note_on_c, 0, 58, 42
1, 187996, Note_on_c, 0, 54, 36
1, 188000, Note_off_c, 0, 59, 41
1, 188125, Note_off_c, 0, 50, 44
1, 188140, Control_c, 0, 64, 106
1, 188155, Control_c, 0, 64, 89
1, 188170, Control_c, 0, 64, 74
1, 188185, Control_c, 0, 64, 66
1, 188215, Control_c, 0, 64, 69
1, 188230, Control_c, 0, 64, 72
1, 188244, Control_c, 0, 64, 78
1, 188259, Control_c, 0, 64, 86
1, 188274, Control_c, 0, 64, 96
1, 188288, Control_c, 0, 64, 101
1, 188301, Note_off_c, 0, 58, 37
1, 188303, Control_c, 0, 64, 104
1, 188318, Control_c, 0, 64, 105
1, 188377, Control_c, 0, 64, 105
1, 188392, Control_c, 0, 64, 106
1, 188422, Control_c, 0, 64, 106
1, 188436, Control_c, 0, 64, 107
1, 188466, Control_c, 0, 64, 107
1, 188476, Note_on_c, 0, 57, 44
1, 188481, Control_c, 0, 64, 108
1, 188486, Note_off_c, 0, 54, 45
1, 188495, Control_c, 0, 64, 109
1, 188501, Note_on_c, 0, 48, 30
1, 188510, Control_c, 0, 64, 111
1, 188525, Control_c, 0, 64, 114
1, 188540, Control_c, 0, 64, 117
1, 188555, Control_c, 0, 64, 126
1, 188570, Control_c, 0, 64, 127
1, 188690, Note_off_c, 0, 57, 47
1, 188730, Note_off_c, 0, 48, 39
1, 188891, Note_on_c, 0, 54, 45
1, 188910, Note_on_c, 0, 50, 33
1, 188963, Note_on_c, 0, 60, 45
1, 188963, Control_c, 0, 64, 123
1, 188978, Control_c, 0, 64, 115
1, 188993, Control_c, 0, 64, 111
1, 188997, Note_on_c, 0, 56, 31
1, 189008, Control_c, 0, 64, 109
1, 189023, Control_c, 0, 64, 107
1, 189038, Control_c, 0, 64, 106
1, 189052, Control_c, 0, 64, 105
1, 189067, Control_c, 0, 64, 102
1, 189082, Control_c, 0, 64, 95
1, 189097, Control_c, 0, 64, 85
1, 189111, Control_c, 0, 64, 74
1, 189126, Control_c, 0, 64, 62
1, 189141, Control_c, 0, 64, 47
1, 189156, Control_c, 0, 64, 57
1, 189171, Control_c, 0, 64, 65
1, 189185, Control_c, 0, 64, 72
1, 189200, Control_c, 0, 64, 82
1, 189215, Control_c, 0, 64, 99
1, 189230, Control_c, 0, 64, 116
1, 189245, Control_c, 0, 64, 127
1, 189300, Note_off_c, 0, 54, 48
1, 189419, Note_on_c, 0, 53, 49
1, 189428, Note_on_c, 0, 44, 39
1, 189468, Note_off_c, 0, 50, 42
1, 189547, Note_off_c, 0, 53, 56
1, 189887, Note_on_c, 0, 52, 45
1, 189899, Note_off_c, 0, 44, 36
1, 189905, Note_on_c, 0, 48, 40
1, 190008, Control_c, 0, 64, 105
1, 190023, Control_c, 0, 64, 88
1, 190038, Control_c, 0, 64, 75
1, 190053, Control_c, 0, 64, 67
1, 190067, Control_c, 0, 64, 67
1, 190082, Control_c, 0, 64, 69
1, 190097, Control_c, 0, 64, 74
1, 190112, Control_c, 0, 64, 80
1, 190127, Control_c, 0, 64, 89
1, 190141, Control_c, 0, 64, 96
1, 190156, Control_c, 0, 64, 99
1, 190171, Control_c, 0, 64, 100
1, 190290, Control_c, 0, 64, 98
1, 190305, Control_c, 0, 64, 92
1, 190320, Control_c, 0, 64, 82
1, 190335, Control_c, 0, 64, 71
1, 190343, Note_on_c, 0, 51, 47
1, 190349, Control_c, 0, 64, 65
1, 190356, Note_on_c, 0, 42, 40
1, 190364, Control_c, 0, 64, 67
1, 190367, Note_off_c, 0, 48, 40
1, 190367, Note_off_c, 0, 52, 43
1, 190387, Control_c, 0, 64, 71
1, 190402, Control_c, 0, 64, 78
1, 190417, Control_c, 0, 64, 87
1, 190432, Control_c, 0, 64, 97
1, 190447, Control_c, 0, 64, 104
1, 190462, Control_c, 0, 64, 107
1, 190491, Control_c, 0, 64, 107
1, 190497, Note_off_c, 0, 60, 37
1, 190548, Note_off_c, 0, 51, 55
1, 190550, Note_off_c, 0, 56, 41
1, 190787, Control_c, 0, 64, 106
1, 190793, Note_on_c, 0, 50, 40
1, 190795, Note_on_c, 0, 54, 40
1, 190802, Control_c, 0, 64, 105
1, 190817, Control_c, 0, 64, 104
1, 190832, Control_c, 0, 64, 102
1, 190832, Note_on_c, 0, 60, 50
1, 190847, Control_c, 0, 64, 100
1, 190862, Control_c, 0, 64, 98
1, 190868, Note_on_c, 0, 56, 34
1, 190877, Control_c, 0, 64, 96
1, 190891, Control_c, 0, 64, 94
1, 190906, Control_c, 0, 64, 93
1, 190921, Control_c, 0, 64, 91
1, 190936, Control_c, 0, 64, 89
1, 190950, Control_c, 0, 64, 88
1, 190956, Note_off_c, 0, 42, 39
1, 190965, Control_c, 0, 64, 86
1, 190980, Control_c, 0, 64, 83
1, 190995, Control_c, 0, 64, 75
1, 191010, Control_c, 0, 64, 64
1, 191025, Control_c, 0, 64, 0
1, 191070, Control_c, 0, 64, 56
1, 191085, Control_c, 0, 64, 67
1, 191096, Note_off_c, 0, 56, 33
1, 191100, Control_c, 0, 64, 75
1, 191109, Note_off_c, 0, 54, 46
1, 191114, Control_c, 0, 64, 85
1, 191136, Control_c, 0, 64, 94
1, 191151, Control_c, 0, 64, 98
1, 191166, Control_c, 0, 64, 99
1, 191214, Note_off_c, 0, 50, 42
1, 191240, Control_c, 0, 64, 99
1, 191269, Control_c, 0, 64, 100
1, 191337, Note_off_c, 0, 60, 58
1, 191354, Note_on_c, 0, 59, 57
1, 191376, Note_on_c, 0, 50, 35
1, 191595, Control_c, 0, 64, 99
1, 191639, Control_c, 0, 64, 99
1, 191654, Control_c, 0, 64, 98
1, 191669, Control_c, 0, 64, 98
1, 191684, Control_c, 0, 64, 97
1, 191713, Control_c, 0, 64, 96
1, 191728, Control_c, 0, 64, 96
1, 191815, Note_on_c, 0, 58, 56
1, 191840, Note_off_c, 0, 59, 37
1, 191841, Note_on_c, 0, 54, 41
1, 191863, Control_c, 0, 64, 92
1, 191884, Control_c, 0, 64, 83
1, 191899, Control_c, 0, 64, 74
1, 191914, Control_c, 0, 64, 65
1, 191929, Control_c, 0, 64, 62
1, 191944, Control_c, 0, 64, 65
1, 191959, Control_c, 0, 64, 69
1, 191974, Control_c, 0, 64, 77
1, 191977, Note_off_c, 0, 50, 37
1, 191989, Control_c, 0, 64, 85
1, 192004, Control_c, 0, 64, 94
1, 192018, Control_c, 0, 64, 100
1, 192033, Control_c, 0, 64, 102
1, 192048, Control_c, 0, 64, 103
1, 192109, Note_off_c, 0, 58, 37
1, 192136, Control_c, 0, 64, 103
1, 192210, Control_c, 0, 64, 104
1, 192225, Control_c, 0, 64, 104
1, 192240, Control_c, 0, 64, 106
1, 192254, Control_c, 0, 64, 107
1, 192269, Note_on_c, 0, 57, 54
1, 192269, Control_c, 0, 64, 108
1, 192277, Note_off_c, 0, 54, 46
1, 192284, Note_on_c, 0, 48, 48
1, 192284, Control_c, 0, 64, 109
1, 192314, Control_c, 0, 64, 110
1, 192343, Control_c, 0, 64, 110
1, 192373, Control_c, 0, 64, 111
1, 192471, Note_off_c, 0, 48, 24
1, 192522, Note_off_c, 0, 57, 37
1, 192669, Note_on_c, 0, 54, 50
1, 192692, Control_c, 0, 64, 110
1, 192699, Note_on_c, 0, 50, 33
1, 192707, Control_c, 0, 64, 110
1, 192722, Control_c, 0, 64, 108
1, 192737, Control_c, 0, 64, 106
1, 192752, Control_c, 0, 64, 105
1, 192765, Note_on_c, 0, 60, 64
1, 192767, Control_c, 0, 64, 104
1, 192782, Control_c, 0, 64, 102
1, 192789, Note_on_c, 0, 56, 48
1, 192796, Control_c, 0, 64, 101
1, 192811, Control_c, 0, 64, 100
1, 192826, Control_c, 0, 64, 99
1, 192841, Control_c, 0, 64, 99
1, 192856, Note_off_c, 0, 56, 0
1, 192885, Control_c, 0, 64, 98
1, 192893, Poly_aftertouch_c, 0, 56, 127
1, 192900, Control_c, 0, 64, 96
1, 192915, Control_c, 0, 64, 91
1, 192930, Control_c, 0, 64, 79
1, 192945, Control_c, 0, 64, 68
1, 192959, Control_c, 0, 64, 51
1, 192974, Control_c, 0, 64, 46
1, 192989, Control_c, 0, 64, 60
1, 193004, Control_c, 0, 64, 66
1, 193019, Control_c, 0, 64, 75
1, 193033, Control_c, 0, 64, 85
1, 193048, Control_c, 0, 64, 95
1, 193063, Control_c, 0, 64, 103
1, 193077, Control_c, 0, 64, 108
1, 193092, Control_c, 0, 64, 109
1, 193110, Note_off_c, 0, 54, 35
1, 193151, Control_c, 0, 64, 109
1, 193166, Control_c, 0, 64, 110
1, 193181, Control_c, 0, 64, 111
1, 193196, Control_c, 0, 64, 111
1, 193255, Note_on_c, 0, 53, 51
1, 193268, Note_off_c, 0, 50, 44
1, 193274, Note_on_c, 0, 44, 41
1, 193354, Note_off_c, 0, 53, 58
1, 193542, Note_off_c, 0, 44, 38
1, 193781, Note_on_c, 0, 52, 49
1, 193792, Note_on_c, 0, 48, 49
1, 193843, Control_c, 0, 64, 109
1, 193857, Control_c, 0, 64, 100
1, 193872, Control_c, 0, 64, 86
1, 193887, Control_c, 0, 64, 73
1, 193901, Control_c, 0, 64, 65
1, 193916, Control_c, 0, 64, 65
1, 193931, Control_c, 0, 64, 67
1, 193946, Control_c, 0, 64, 70
1, 193961, Control_c, 0, 64, 76
1, 193975, Control_c, 0, 64, 86
1, 193990, Control_c, 0, 64, 94
1, 194005, Control_c, 0, 64, 99
1, 194020, Control_c, 0, 64, 101
1, 194079, Control_c, 0, 64, 102
1, 194093, Control_c, 0, 64, 103
1, 194108, Control_c, 0, 64, 104
1, 194131, Control_c, 0, 64, 106
1, 194146, Control_c, 0, 64, 107
1, 194161, Control_c, 0, 64, 108
1, 194172, Note_off_c, 0, 48, 36
1, 194176, Control_c, 0, 64, 110
1, 194190, Control_c, 0, 64, 113
1, 194205, Control_c, 0, 64, 118
1, 194220, Control_c, 0, 64, 127
1, 194244, Note_on_c, 0, 51, 68
1, 194278, Note_on_c, 0, 42, 43
1, 194294, Note_off_c, 0, 52, 38
1, 194418, Note_off_c, 0, 51, 38
1, 194761, Note_on_c, 0, 50, 57
1, 194782, Note_on_c, 0, 46, 50
1, 194820, Note_off_c, 0, 42, 40
1, 194938, Control_c, 0, 64, 117
1, 194953, Control_c, 0, 64, 105
1, 194968, Control_c, 0, 64, 90
1, 194983, Control_c, 0, 64, 73
1, 194998, Control_c, 0, 64, 44
1, 195012, Control_c, 0, 64, 0
1, 195058, Control_c, 0, 64, 60
1, 195072, Control_c, 0, 64, 73
1, 195087, Control_c, 0, 64, 87
1, 195102, Control_c, 0, 64, 108
1, 195117, Control_c, 0, 64, 127
1, 195196, Note_off_c, 0, 50, 65
1, 195577, Note_on_c, 0, 49, 61
1, 195579, Note_on_c, 0, 40, 47
1, 195658, Control_c, 0, 64, 121
1, 195673, Control_c, 0, 64, 116
1, 195687, Control_c, 0, 64, 111
1, 195702, Control_c, 0, 64, 108
1, 195717, Control_c, 0, 64, 105
1, 195732, Control_c, 0, 64, 103
1, 195747, Control_c, 0, 64, 100
1, 195761, Control_c, 0, 64, 98
1, 195776, Control_c, 0, 64, 95
1, 195791, Control_c, 0, 64, 93
1, 195805, Control_c, 0, 64, 91
1, 195820, Control_c, 0, 64, 89
1, 195835, Control_c, 0, 64, 87
1, 195851, Control_c, 0, 64, 86
1, 195866, Control_c, 0, 64, 84
1, 195881, Control_c, 0, 64, 82
1, 195895, Control_c, 0, 64, 81
1, 195910, Control_c, 0, 64, 79
1, 195925, Control_c, 0, 64, 78
1, 195940, Control_c, 0, 64, 77
1, 195952, Note_off_c, 0, 46, 41
1, 195955, Control_c, 0, 64, 75
1, 195969, Control_c, 0, 64, 74
1, 195984, Control_c, 0, 64, 73
1, 195999, Control_c, 0, 64, 73
1, 196014, Control_c, 0, 64, 72
1, 196058, Control_c, 0, 64, 72
1, 196251, Control_c, 0, 64, 71
1, 196391, Control_c, 0, 64, 72
1, 196418, Poly_aftertouch_c, 0, 56, 0
1, 196422, Control_c, 0, 64, 72
1, 196436, Control_c, 0, 64, 73
1, 196451, Control_c, 0, 64, 74
1, 196466, Control_c, 0, 64, 76
1, 196481, Control_c, 0, 64, 77
1, 196496, Control_c, 0, 64, 80
1, 196511, Control_c, 0, 64, 82
1, 196526, Control_c, 0, 64, 86
1, 196540, Control_c, 0, 64, 90
1, 196555, Control_c, 0, 64, 95
1, 196570, Control_c, 0, 64, 98
1, 196585, Control_c, 0, 64, 103
1, 196600, Control_c, 0, 64, 108
1, 196615, Control_c, 0, 64, 114
1, 196629, Control_c, 0, 64, 123
1, 196644, Control_c, 0, 64, 127
1, 196816, Note_off_c, 0, 60, 36
1, 196845, Note_on_c, 0, 59, 46
1, 196871, Note_on_c, 0, 55, 38
1, 196970, Note_off_c, 0, 40, 36
1, 197016, Note_off_c, 0, 49, 37
1, 197082, Note_off_c, 0, 59, 58
1, 197171, Note_off_c, 0, 55, 52
1, 197288, Control_c, 0, 64, 103
1, 197303, Control_c, 0, 64, 75
1, 197317, Control_c, 0, 64, 0
1, 197345, Note_on_c, 0, 40, 53
1, 197354, Note_on_c, 0, 49, 59
1, 197356, Note_on_c, 0, 58, 65
1, 197366, Note_on_c, 0, 54, 53
1, 197391, Control_c, 0, 64, 59
1, 197406, Control_c, 0, 64, 73
1, 197421, Control_c, 0, 64, 88
1, 197426, Note_off_c, 0, 54, 54
1, 197427, Note_off_c, 0, 49, 62
1, 197436, Control_c, 0, 64, 108
1, 197441, Note_on_c, 0, 52, 58
1, 197450, Note_on_c, 0, 48, 48
1, 197452, Control_c, 0, 64, 127
1, 197455, Note_off_c, 0, 58, 60
1, 197479, Note_off_c, 0, 52, 62
1, 197533, Note_off_c, 0, 48, 61
1, 197585, Note_off_c, 0, 40, 55
1, 197600, Control_c, 0, 64, 126
1, 197615, Control_c, 0, 64, 122
1, 197629, Control_c, 0, 64, 120
1, 197644, Control_c, 0, 64, 119
1, 197659, Control_c, 0, 64, 118
1, 197673, Control_c, 0, 64, 117
1, 197688, Control_c, 0, 64, 115
1, 197703, Control_c, 0, 64, 114
1, 197718, Control_c, 0, 64, 112
1, 197733, Control_c, 0, 64, 111
1, 197748, Control_c, 0, 64, 110
1, 197763, Control_c, 0, 64, 110
1, 197778, Control_c, 0, 64, 109
1, 197792, Control_c, 0, 64, 109
1, 197807, Control_c, 0, 64, 108
1, 197822, Control_c, 0, 64, 106
1, 197837, Control_c, 0, 64, 103
1, 197852, Control_c, 0, 64, 99
1, 197852, Control_c, 0, 67, 12
1, 197873, Control_c, 0, 64, 93
1, 197873, Control_c, 0, 67, 21
1, 197888, Control_c, 0, 64, 88
1, 197888, Control_c, 0, 67, 33
1, 197903, Control_c, 0, 64, 82
1, 197903, Control_c, 0, 67, 49
1, 197918, Control_c, 0, 64, 76
1, 197918, Control_c, 0, 67, 68
1, 197933, Control_c, 0, 64, 70
1, 197933, Control_c, 0, 67, 85
1, 197947, Control_c, 0, 64, 64
1, 197947, Control_c, 0, 67, 96
1, 197962, Control_c, 0, 64, 56
1, 197962, Control_c, 0, 67, 105
1, 197977, Control_c, 0, 64, 49
1, 197977, Control_c, 0, 67, 114
1, 197992, Control_c, 0, 64, 42
1, 197992, Control_c, 0, 67, 121
1, 198007, Control_c, 0, 64, 24
1, 198007, Control_c, 0, 67, 127
1, 198022, Control_c, 0, 64, 0
1, 198111, Control_c, 0, 64, 24
1, 198126, Control_c, 0, 64, 66
1, 198140, Control_c, 0, 64, 80
1, 198155, Control_c, 0, 64, 99
1, 198170, Control_c, 0, 64, 126
1, 198185, Control_c, 0, 64, 127
1, 198355, Note_on_c, 0, 42, 34
1, 198360, Note_on_c, 0, 28, 34
1, 198365, Note_on_c, 0, 34, 38
1, 198392, Note_on_c, 0, 66, 26
1, 198406, Note_on_c, 0, 54, 12
1, 198406, Note_on_c, 0, 58, 21
1, 198411, Note_off_c, 0, 34, 56
1, 198445, Note_off_c, 0, 66, 46
1, 198449, Note_off_c, 0, 58, 52
1, 198452, Note_off_c, 0, 54, 52
1, 198457, Note_off_c, 0, 42, 30
1, 198486, Note_off_c, 0, 28, 32
1, 198934, Control_c, 0, 67, 121
1, 198949, Control_c, 0, 67, 112
1, 198963, Control_c, 0, 67, 103
1, 198978, Control_c, 0, 67, 91
1, 198993, Control_c, 0, 67, 75
1, 199008, Control_c, 0, 64, 116
1, 199008, Control_c, 0, 67, 55
1, 199022, Control_c, 0, 64, 112
1, 199022, Control_c, 0, 67, 36
1, 199038, Control_c, 0, 64, 110
1, 199038, Control_c, 0, 67, 18
1, 199053, Control_c, 0, 64, 109
1, 199053, Control_c, 0, 67, 0
1, 199068, Control_c, 0, 64, 109
1, 199083, Control_c, 0, 64, 108
1, 199201, Control_c, 0, 64, 108
1, 199216, Control_c, 0, 64, 107
1, 199231, Control_c, 0, 64, 106
1, 199245, Control_c, 0, 64, 105
1, 199260, Control_c, 0, 64, 104
1, 199275, Control_c, 0, 64, 102
1, 199290, Control_c, 0, 64, 99
1, 199305, Control_c, 0, 64, 96
1, 199319, Control_c, 0, 64, 93
1, 199334, Control_c, 0, 64, 92
1, 199349, Control_c, 0, 64, 90
1, 199372, Control_c, 0, 64, 89
1, 199387, Control_c, 0, 64, 89
1, 199401, Control_c, 0, 64, 88
1, 199417, Control_c, 0, 64, 87
1, 199432, Control_c, 0, 64, 87
1, 199446, Control_c, 0, 64, 85
1, 199461, Control_c, 0, 64, 84
1, 199461, Control_c, 0, 67, 8
1, 199476, Control_c, 0, 64, 82
1, 199476, Control_c, 0, 67, 12
1, 199491, Control_c, 0, 64, 80
1, 199491, Control_c, 0, 67, 18
1, 199506, Control_c, 0, 64, 78
1, 199506, Control_c, 0, 67, 28
1, 199520, Control_c, 0, 64, 76
1, 199520, Control_c, 0, 67, 41
1, 199535, Control_c, 0, 64, 75
1, 199535, Control_c, 0, 67, 56
1, 199550, Control_c, 0, 64, 73
1, 199550, Control_c, 0, 67, 70
1, 199565, Control_c, 0, 64, 71
1, 199565, Control_c, 0, 67, 81
1, 199580, Control_c, 0, 64, 69
1, 199580, Control_c, 0, 67, 91
1, 199594, Control_c, 0, 64, 67
1, 199594, Control_c, 0, 67, 100
1, 199609, Control_c, 0, 64, 65
1, 199609, Control_c, 0, 67, 111
1, 199624, Control_c, 0, 64, 63
1, 199624, Control_c, 0, 67, 123
1, 199630, Note_on_c, 0, 41, 33
1, 199639, Control_c, 0, 64, 59
1, 199639, Control_c, 0, 67, 127
1, 199653, Control_c, 0, 64, 48
1, 199668, Control_c, 0, 64, 0
1, 199891, Control_c, 0, 64, 58
1, 199906, Control_c, 0, 64, 66
1, 199921, Control_c, 0, 64, 71
1, 199936, Control_c, 0, 64, 77
1, 199951, Control_c, 0, 64, 83
1, 199966, Control_c, 0, 64, 91
1, 199980, Control_c, 0, 64, 97
1, 199995, Control_c, 0, 64, 101
1, 200010, Control_c, 0, 64, 106
1, 200014, Note_on_c, 0, 34, 33
1, 200025, Control_c, 0, 64, 112
1, 200040, Control_c, 0, 64, 127
1, 200167, Note_on_c, 0, 49, 37
1, 200219, Note_off_c, 0, 34, 43
1, 200332, Note_on_c, 0, 28, 23
1, 200346, Note_off_c, 0, 49, 44
1, 200478, Note_off_c, 0, 28, 28
1, 200538, Note_on_c, 0, 34, 34
1, 200625, Note_on_c, 0, 49, 37
1, 200659, Note_off_c, 0, 49, 54
1, 200877, Note_off_c, 0, 34, 39
1, 200883, Note_on_c, 0, 28, 34
1, 200991, Note_on_c, 0, 49, 45
1, 201046, Note_off_c, 0, 49, 62
1, 201078, Note_off_c, 0, 28, 18
1, 201107, Control_c, 0, 67, 121
1, 201119, Note_on_c, 0, 34, 38
1, 201122, Control_c, 0, 67, 108
1, 201137, Control_c, 0, 67, 86
1, 201142, Note_off_c, 0, 41, 1
1, 201152, Control_c, 0, 67, 63
1, 201166, Control_c, 0, 67, 40
1, 201173, Note_on_c, 0, 49, 52
1, 201181, Control_c, 0, 67, 18
1, 201196, Control_c, 0, 67, 0
1, 201235, Note_off_c, 0, 49, 58
1, 201313, Note_on_c, 0, 28, 31
1, 201322, Note_off_c, 0, 34, 41
1, 201364, Note_off_c, 0, 28, 48
1, 201372, Note_on_c, 0, 49, 50
1, 201414, Note_off_c, 0, 49, 59
1, 201526, Note_on_c, 0, 42, 57
1, 201596, Control_c, 0, 64, 117
1, 201619, Control_c, 0, 64, 113
1, 201634, Control_c, 0, 64, 109
1, 201648, Control_c, 0, 64, 105
1, 201662, Control_c, 0, 64, 102
1, 201677, Control_c, 0, 64, 97
1, 201692, Control_c, 0, 64, 93
1, 201698, Note_on_c, 0, 49, 41
1, 201707, Control_c, 0, 64, 89
1, 201721, Control_c, 0, 64, 85
1, 201736, Control_c, 0, 64, 80
1, 201751, Control_c, 0, 64, 76
1, 201766, Control_c, 0, 64, 70
1, 201781, Control_c, 0, 64, 66
1, 201796, Control_c, 0, 64, 63
1, 201811, Control_c, 0, 64, 62
1, 201826, Control_c, 0, 64, 60
1, 201840, Control_c, 0, 64, 60
1, 201870, Control_c, 0, 64, 59
1, 201896, Note_on_c, 0, 34, 33
1, 201944, Control_c, 0, 64, 60
1, 201959, Control_c, 0, 64, 61
1, 201974, Control_c, 0, 64, 62
1, 201988, Control_c, 0, 64, 62
1, 202003, Control_c, 0, 64, 63
1, 202018, Control_c, 0, 64, 64
1, 202032, Control_c, 0, 64, 64
1, 202047, Control_c, 0, 64, 65
1, 202054, Note_on_c, 0, 46, 43
1, 202062, Control_c, 0, 64, 65
1, 202086, Note_off_c, 0, 34, 44
1, 202103, Note_off_c, 0, 49, 42
1, 202107, Control_c, 0, 64, 66
1, 202121, Control_c, 0, 64, 66
1, 202136, Control_c, 0, 64, 67
1, 202151, Control_c, 0, 64, 68
1, 202165, Control_c, 0, 64, 70
1, 202180, Control_c, 0, 64, 73
1, 202195, Control_c, 0, 64, 76
1, 202197, Note_on_c, 0, 28, 4
1, 202210, Control_c, 0, 64, 79
1, 202225, Control_c, 0, 64, 83
1, 202241, Control_c, 0, 64, 87
1, 202241, Control_c, 0, 67, 11
1, 202256, Control_c, 0, 64, 90
1, 202256, Control_c, 0, 67, 18
1, 202270, Control_c, 0, 64, 92
1, 202270, Control_c, 0, 67, 27
1, 202285, Control_c, 0, 64, 94
1, 202285, Control_c, 0, 67, 37
1, 202298, Note_off_c, 0, 46, 31
1, 202300, Control_c, 0, 64, 96
1, 202300, Control_c, 0, 67, 44
1, 202315, Control_c, 0, 64, 98
1, 202315, Control_c, 0, 67, 48
1, 202330, Control_c, 0, 64, 102
1, 202330, Control_c, 0, 67, 51
1, 202339, Note_off_c, 0, 28, 25
1, 202344, Control_c, 0, 64, 105
1, 202344, Control_c, 0, 67, 52
1, 202367, Control_c, 0, 64, 108
1, 202382, Control_c, 0, 64, 110
1, 202392, Note_on_c, 0, 34, 40
1, 202397, Control_c, 0, 64, 112
1, 202411, Control_c, 0, 64, 114
1, 202426, Control_c, 0, 64, 117
1, 202426, Control_c, 0, 67, 52
1, 202441, Control_c, 0, 64, 119
1, 202441, Control_c, 0, 67, 50
1, 202456, Control_c, 0, 64, 123
1, 202456, Control_c, 0, 67, 48
1, 202470, Control_c, 0, 64, 127
1, 202470, Control_c, 0, 67, 46
1, 202485, Control_c, 0, 67, 44
1, 202496, Note_on_c, 0, 50, 45
1, 202500, Control_c, 0, 67, 40
1, 202515, Control_c, 0, 67, 34
1, 202530, Control_c, 0, 67, 24
1, 202538, Note_off_c, 0, 50, 64
1, 202544, Control_c, 0, 67, 0
1, 202584, Note_off_c, 0, 34, 18
1, 202586, Note_on_c, 0, 49, 48
1, 202630, Note_off_c, 0, 42, 43
1, 202768, Note_on_c, 0, 28, 42
1, 202809, Note_off_c, 0, 28, 57
1, 202863, Note_off_c, 0, 49, 40
1, 202878, Note_on_c, 0, 52, 58
1, 202929, Note_off_c, 0, 52, 60
1, 202991, Note_on_c, 0, 43, 66
1, 203020, Note_on_c, 0, 34, 42
1, 203112, Note_on_c, 0, 52, 67
1, 203118, Note_off_c, 0, 34, 55
1, 203140, Note_off_c, 0, 43, 61
1, 203164, Note_off_c, 0, 52, 62
1, 203253, Note_on_c, 0, 52, 64
1, 203258, Note_on_c, 0, 29, 60
1, 203290, Note_off_c, 0, 52, 62
1, 203302, Note_off_c, 0, 29, 60
1, 203376, Note_on_c, 0, 52, 68
1, 203413, Note_off_c, 0, 52, 54
1, 203451, Note_on_c, 0, 44, 76
1, 203513, Note_on_c, 0, 52, 67
1, 203567, Note_off_c, 0, 52, 62
1, 203594, Note_on_c, 0, 49, 73
1, 203620, Note_off_c, 0, 49, 65
1, 203635, Control_c, 0, 64, 119
1, 203650, Control_c, 0, 64, 109
1, 203665, Control_c, 0, 64, 100
1, 203665, Note_on_c, 0, 37, 60
1, 203679, Control_c, 0, 64, 95
1, 203694, Control_c, 0, 64, 90
1, 203709, Control_c, 0, 64, 86
1, 203724, Control_c, 0, 64, 82
1, 203739, Control_c, 0, 64, 78
1, 203752, Note_on_c, 0, 53, 74
1, 203753, Control_c, 0, 64, 74
1, 203768, Control_c, 0, 64, 70
1, 203783, Control_c, 0, 64, 67
1, 203798, Control_c, 0, 64, 64
1, 203809, Note_off_c, 0, 37, 37
1, 203812, Control_c, 0, 64, 0
1, 203820, Note_off_c, 0, 53, 63
1, 203835, Note_on_c, 0, 52, 74
1, 203838, Note_on_c, 0, 31, 48
1, 203909, Control_c, 0, 64, 61
1, 203924, Control_c, 0, 64, 73
1, 203939, Control_c, 0, 64, 84
1, 203954, Control_c, 0, 64, 98
1, 203969, Control_c, 0, 64, 104
1, 203984, Control_c, 0, 64, 108
1, 203999, Control_c, 0, 64, 110
1, 204000, Note_on_c, 0, 37, 65
1, 204005, Note_off_c, 0, 31, 52
1, 204023, Note_off_c, 0, 44, 59
1, 204043, Control_c, 0, 64, 111
1, 204049, Note_off_c, 0, 37, 55
1, 204058, Control_c, 0, 64, 112
1, 204073, Control_c, 0, 64, 113
1, 204169, Note_on_c, 0, 45, 74
1, 204206, Control_c, 0, 64, 111
1, 204221, Control_c, 0, 64, 100
1, 204235, Control_c, 0, 64, 82
1, 204250, Control_c, 0, 64, 66
1, 204265, Control_c, 0, 64, 0
1, 204280, Control_c, 0, 64, 24
1, 204295, Control_c, 0, 64, 59
1, 204309, Control_c, 0, 64, 68
1, 204324, Control_c, 0, 64, 77
1, 204339, Control_c, 0, 64, 94
1, 204354, Control_c, 0, 64, 110
1, 204369, Control_c, 0, 64, 121
1, 204383, Control_c, 0, 64, 123
1, 204391, Note_on_c, 0, 31, 35
1, 204458, Control_c, 0, 64, 126
1, 204473, Control_c, 0, 64, 127
1, 204580, Note_on_c, 0, 37, 47
1, 204583, Note_off_c, 0, 31, 40
1, 204684, Note_off_c, 0, 45, 34
1, 204731, Note_off_c, 0, 37, 23
1, 204807, Note_on_c, 0, 31, 43
1, 204905, Note_off_c, 0, 31, 37
1, 205132, Note_on_c, 0, 37, 28
1, 205297, Note_off_c, 0, 37, 40
1, 205310, Note_on_c, 0, 31, 21
1, 205391, Control_c, 0, 67, 8
1, 205406, Control_c, 0, 67, 10
1, 205421, Control_c, 0, 67, 14
1, 205436, Control_c, 0, 67, 19
1, 205451, Control_c, 0, 67, 23
1, 205466, Control_c, 0, 67, 28
1, 205480, Control_c, 0, 67, 31
1, 205495, Control_c, 0, 67, 34
1, 205510, Control_c, 0, 67, 36
1, 205522, Note_off_c, 0, 31, 33
1, 205525, Control_c, 0, 67, 37
1, 205555, Control_c, 0, 67, 37
1, 205599, Control_c, 0, 67, 37
1, 205614, Control_c, 0, 67, 36
1, 205629, Control_c, 0, 67, 36
1, 205659, Control_c, 0, 67, 35
1, 205659, Note_on_c, 0, 37, 34
1, 205703, Control_c, 0, 67, 35
1, 205733, Control_c, 0, 67, 34
1, 205762, Control_c, 0, 67, 34
1, 205806, Control_c, 0, 67, 33
1, 205845, Note_off_c, 0, 52, 36
1, 205866, Control_c, 0, 67, 33
1, 205999, Control_c, 0, 67, 32
1, 206029, Note_on_c, 0, 31, 32
1, 206046, Note_off_c, 0, 37, 40
1, 206088, Control_c, 0, 67, 32
1, 206212, Note_on_c, 0, 52, 45
1, 206286, Note_off_c, 0, 52, 60
1, 206441, Note_on_c, 0, 37, 40
1, 206467, Note_off_c, 0, 31, 40
1, 206472, Note_on_c, 0, 52, 53
1, 206503, Note_off_c, 0, 52, 63
1, 206556, Control_c, 0, 67, 32
1, 206600, Note_on_c, 0, 52, 51
1, 206618, Note_on_c, 0, 31, 42
1, 206629, Note_off_c, 0, 37, 20
1, 206630, Control_c, 0, 67, 33
1, 206643, Note_off_c, 0, 52, 59
1, 206660, Note_off_c, 0, 31, 49
1, 206690, Control_c, 0, 67, 32
1, 206719, Control_c, 0, 67, 32
1, 206734, Control_c, 0, 67, 31
1, 206745, Note_on_c, 0, 52, 54
1, 206749, Control_c, 0, 67, 30
1, 206763, Control_c, 0, 67, 28
1, 206776, Note_off_c, 0, 52, 63
1, 206778, Control_c, 0, 67, 24
1, 206793, Control_c, 0, 67, 15
1, 206808, Control_c, 0, 67, 0
1, 206860, Control_c, 0, 64, 95
1, 206875, Control_c, 0, 64, 66
1, 206890, Control_c, 0, 64, 0
1, 207039, Control_c, 0, 64, 61
1, 207053, Control_c, 0, 64, 70
1, 207061, Note_on_c, 0, 52, 22
1, 207068, Control_c, 0, 64, 78
1, 207083, Control_c, 0, 64, 88
1, 207098, Control_c, 0, 64, 102
1, 207108, Note_off_c, 0, 52, 41
1, 207113, Control_c, 0, 64, 127
1, 207135, Note_on_c, 0, 58, 43
1, 207228, Note_on_c, 0, 64, 37
1, 207287, Note_on_c, 0, 70, 48
1, 207320, Control_c, 0, 67, 10
1, 207329, Note_off_c, 0, 58, 43
1, 207334, Control_c, 0, 67, 15
1, 207349, Control_c, 0, 67, 22
1, 207364, Control_c, 0, 67, 30
1, 207379, Control_c, 0, 67, 38
1, 207394, Control_c, 0, 67, 45
1, 207409, Control_c, 0, 67, 51
1, 207419, Note_off_c, 0, 64, 38
1, 207424, Note_on_c, 0, 42, 35
1, 207424, Control_c, 0, 67, 57
1, 207425, Note_on_c, 0, 30, 35
1, 207439, Control_c, 0, 67, 62
1, 207453, Control_c, 0, 67, 65
1, 207468, Control_c, 0, 67, 68
1, 207483, Note_off_c, 0, 42, 56
1, 207483, Control_c, 0, 67, 69
1, 207498, Note_on_c, 0, 68, 36
1, 207498, Note_off_c, 0, 70, 17
1, 207575, Note_off_c, 0, 68, 55
1, 207588, Note_off_c, 0, 30, 40
1, 207609, Control_c, 0, 67, 68
1, 207623, Control_c, 0, 67, 68
1, 207638, Control_c, 0, 67, 67
1, 207653, Control_c, 0, 67, 66
1, 207698, Control_c, 0, 67, 66
1, 207713, Control_c, 0, 67, 65
1, 207728, Control_c, 0, 67, 65
1, 207742, Control_c, 0, 67, 64
1, 207757, Control_c, 0, 67, 64
1, 207772, Control_c, 0, 67, 63
1, 207801, Control_c, 0, 67, 62
1, 207816, Control_c, 0, 67, 62
1, 207832, Control_c, 0, 67, 61
1, 207847, Control_c, 0, 67, 61
1, 207862, Control_c, 0, 67, 60
1, 207876, Control_c, 0, 67, 60
1, 207891, Control_c, 0, 67, 59
1, 207921, Control_c, 0, 67, 58
1, 207936, Control_c, 0, 67, 58
1, 207951, Control_c, 0, 67, 57
1, 207965, Control_c, 0, 67, 56
1, 207980, Control_c, 0, 67, 55
1, 207995, Control_c, 0, 67, 53
1, 208009, Control_c, 0, 67, 49
1, 208024, Control_c, 0, 67, 44
1, 208039, Control_c, 0, 67, 37
1, 208054, Control_c, 0, 67, 28
1, 208068, Note_on_c, 0, 72, 49
1, 208069, Control_c, 0, 67, 20
1, 208083, Control_c, 0, 67, 12
1, 208098, Control_c, 0, 67, 0
1, 208976, Note_on_c, 0, 73, 50
1, 209081, Note_off_c, 0, 72, 34
1, 209338, Note_on_c, 0, 70, 33
1, 209444, Note_on_c, 0, 64, 28
1, 209488, Note_off_c, 0, 70, 25
1, 209497, Note_off_c, 0, 64, 46
1, 209703, Note_on_c, 0, 66, 28
1, 209760, Note_off_c, 0, 66, 42
1, 209829, Poly_aftertouch_c, 0, 61, 127
1, 209923, Poly_aftertouch_c, 0, 61, 0
1, 209960, Poly_aftertouch_c, 0, 61, 127
1, 210026, Note_on_c, 0, 70, 13
1, 210082, Note_on_c, 0, 64, 33
1, 210092, Note_off_c, 0, 70, 42
1, 210138, Note_off_c, 0, 64, 61
1, 210187, Poly_aftertouch_c, 0, 61, 0
1, 210347, Note_on_c, 0, 61, 28
1, 210351, Note_on_c, 0, 72, 45
1, 210375, Note_off_c, 0, 73, 38
1, 210506, Note_on_c, 0, 54, 18
1, 210514, Note_off_c, 0, 61, 39
1, 210557, Note_off_c, 0, 54, 48
1, 210578, Note_off_c, 0, 72, 53
1, 210641, Note_on_c, 0, 70, 41
1, 210767, Note_off_c, 0, 70, 49
1, 210786, Note_on_c, 0, 64, 35
1, 210801, Note_on_c, 0, 73, 52
1, 210846, Note_on_c, 0, 68, 31
1, 210947, Note_off_c, 0, 64, 40
1, 211014, Note_on_c, 0, 58, 24
1, 211103, Note_off_c, 0, 58, 49
1, 211175, Note_on_c, 0, 54, 32
1, 211233, Note_on_c, 0, 76, 51
1, 211251, Note_off_c, 0, 54, 40
1, 211312, Note_on_c, 0, 49, 42
1, 211359, Note_off_c, 0, 49, 60
1, 211377, Note_off_c, 0, 76, 57
1, 211394, Note_off_c, 0, 73, 28
1, 211573, Note_on_c, 0, 64, 37
1, 211596, Note_on_c, 0, 58, 34
1, 211628, Note_off_c, 0, 64, 44
1, 211680, Note_off_c, 0, 58, 39
1, 211683, Note_on_c, 0, 78, 59
1, 211713, Note_on_c, 0, 52, 25
1, 211716, Note_on_c, 0, 75, 41
1, 211722, Note_off_c, 0, 68, 40
1, 211754, Note_off_c, 0, 52, 49
1, 211886, Note_off_c, 0, 75, 33
1, 211892, Note_on_c, 0, 73, 47
1, 211933, Note_on_c, 0, 49, 45
1, 211934, Note_off_c, 0, 73, 56
1, 211981, Note_off_c, 0, 49, 60
1, 212042, Note_on_c, 0, 70, 43
1, 212056, Note_on_c, 0, 42, 37
1, 212101, Note_off_c, 0, 42, 53
1, 212115, Note_off_c, 0, 70, 54
1, 212161, Note_on_c, 0, 68, 47
1, 212200, Note_off_c, 0, 68, 51
1, 212284, Note_on_c, 0, 64, 44
1, 212317, Note_on_c, 0, 58, 44
1, 212321, Note_off_c, 0, 64, 64
1, 212329, Note_on_c, 0, 75, 49
1, 212370, Note_off_c, 0, 58, 57
1, 212383, Note_off_c, 0, 75, 49
1, 212394, Note_on_c, 0, 52, 39
1, 212429, Note_off_c, 0, 52, 51
1, 212459, Note_on_c, 0, 73, 59
1, 212499, Note_off_c, 0, 73, 59
1, 212584, Note_on_c, 0, 42, 47
1, 212605, Note_on_c, 0, 70, 57
1, 212624, Note_off_c, 0, 42, 57
1, 212640, Note_off_c, 0, 70, 59
1, 212685, Note_on_c, 0, 37, 40
1, 212723, Note_off_c, 0, 37, 51
1, 212728, Note_on_c, 0, 68, 55
1, 212766, Note_off_c, 0, 68, 55
1, 212876, Note_on_c, 0, 64, 48
1, 212888, Note_on_c, 0, 75, 63
1, 212901, Note_on_c, 0, 58, 51
1, 212903, Note_off_c, 0, 64, 59
1, 212948, Note_off_c, 0, 58, 61
1, 212955, Note_on_c, 0, 52, 52
1, 212986, Note_off_c, 0, 52, 63
1, 212989, Note_off_c, 0, 78, 35
1, 213016, Note_on_c, 0, 73, 72
1, 213051, Note_off_c, 0, 75, 28
1, 213147, Note_on_c, 0, 42, 60
1, 213181, Note_off_c, 0, 42, 63
1, 213254, Note_off_c, 0, 73, 60
1, 213257, Note_on_c, 0, 76, 79
1, 213353, Poly_aftertouch_c, 0, 70, 127
1, 213356, Note_on_c, 0, 30, 57
1, 213392, Note_off_c, 0, 30, 59
1, 213475, Note_off_c, 0, 76, 59
1, 213485, Note_on_c, 0, 68, 58
1, 213500, Poly_aftertouch_c, 0, 70, 0
1, 213514, Note_off_c, 0, 68, 65
1, 213688, Note_on_c, 0, 24, 53
1, 213717, Control_c, 0, 64, 82
1, 213732, Control_c, 0, 64, 0
1, 213818, Note_on_c, 0, 36, 44
1, 213836, Control_c, 0, 64, 71
1, 213851, Control_c, 0, 64, 91
1, 213865, Control_c, 0, 64, 127
1, 213873, Note_off_c, 0, 24, 39
1, 213878, Note_off_c, 0, 36, 59
1, 214053, Note_on_c, 0, 43, 39
1, 214091, Note_off_c, 0, 43, 54
1, 214126, Note_on_c, 0, 52, 40
1, 214161, Note_off_c, 0, 52, 51
1, 214244, Note_on_c, 0, 36, 44
1, 214333, Note_on_c, 0, 43, 45
1, 214382, Note_off_c, 0, 43, 62
1, 214413, Note_off_c, 0, 36, 39
1, 214547, Note_on_c, 0, 81, 77
1, 214690, Note_on_c, 0, 52, 51
1, 214748, Note_off_c, 0, 52, 57
1, 214789, Note_on_c, 0, 58, 54
1, 214814, Note_off_c, 0, 58, 61
1, 214986, Note_on_c, 0, 43, 39
1, 215040, Note_off_c, 0, 43, 60
1, 215058, Note_on_c, 0, 52, 55
1, 215082, Note_off_c, 0, 52, 62
1, 215261, Note_on_c, 0, 58, 47
1, 215285, Note_off_c, 0, 58, 61
1, 215372, Note_on_c, 0, 64, 53
1, 215396, Note_on_c, 0, 76, 81
1, 215397, Note_off_c, 0, 64, 60
1, 215403, Note_off_c, 0, 81, 61
1, 215580, Note_on_c, 0, 52, 47
1, 215678, Note_off_c, 0, 76, 51
1, 215701, Note_on_c, 0, 74, 82
1, 215872, Note_on_c, 0, 58, 40
1, 215881, Note_off_c, 0, 74, 61
1, 215906, Note_off_c, 0, 58, 54
1, 215978, Note_on_c, 0, 69, 72
1, 215994, Note_off_c, 0, 52, 39
1, 216141, Note_on_c, 0, 64, 44
1, 216170, Note_off_c, 0, 64, 58
1, 216276, Note_off_c, 0, 69, 55
1, 216361, Note_on_c, 0, 70, 77
1, 216557, Note_off_c, 0, 70, 35
1, 216644, Note_on_c, 0, 45, 44
1, 216653, Note_on_c, 0, 59, 38
1, 216688, Note_on_c, 0, 52, 11
1, 216712, Control_c, 0, 64, 95
1, 216727, Control_c, 0, 64, 72
1, 216742, Control_c, 0, 64, 0
1, 216774, Note_on_c, 0, 73, 43
1, 216793, Note_on_c, 0, 61, 36
1, 216805, Note_on_c, 0, 67, 26
1, 216846, Control_c, 0, 64, 64
1, 216861, Control_c, 0, 64, 83
1, 216876, Control_c, 0, 64, 127
1, 216885, Note_off_c, 0, 52, 35
1, 216886, Note_off_c, 0, 45, 41
1, 216892, Note_off_c, 0, 67, 53
1, 216921, Note_off_c, 0, 61, 36
1, 216931, Note_off_c, 0, 73, 61
1, 216995, Note_off_c, 0, 59, 40
1, 217172, Note_on_c, 0, 79, 40
1, 217238, Poly_aftertouch_c, 0, 78, 127
1, 217254, Note_off_c, 0, 79, 37
1, 217287, Note_on_c, 0, 73, 40
1, 217288, Note_on_c, 0, 55, 32
1, 217290, Poly_aftertouch_c, 0, 78, 0
1, 217305, Note_on_c, 0, 71, 38
1, 217359, Note_off_c, 0, 71, 47
1, 217362, Note_off_c, 0, 73, 49
1, 217393, Note_on_c, 0, 61, 36
1, 217444, Note_off_c, 0, 61, 46
1, 217527, Note_on_c, 0, 66, 65
1, 217568, Note_off_c, 0, 66, 50
1, 217628, Note_on_c, 0, 71, 33
1, 217638, Note_on_c, 0, 73, 37
1, 217691, Note_off_c, 0, 73, 44
1, 217719, Note_off_c, 0, 71, 33
1, 217748, Note_on_c, 0, 79, 39
1, 217789, Poly_aftertouch_c, 0, 78, 127
1, 217802, Note_off_c, 0, 79, 44
1, 217833, Poly_aftertouch_c, 0, 78, 0
1, 217917, Note_on_c, 0, 79, 32
1, 217920, Note_on_c, 0, 78, 45
1, 217954, Note_off_c, 0, 78, 54
1, 217960, Note_off_c, 0, 79, 47
1, 217990, Note_on_c, 0, 73, 56
1, 218003, Note_on_c, 0, 71, 38
1, 218018, Note_off_c, 0, 73, 61
1, 218031, Note_off_c, 0, 71, 57
1, 218145, Note_on_c, 0, 71, 47
1, 218163, Note_on_c, 0, 73, 45
1, 218216, Note_off_c, 0, 73, 57
1, 218239, Note_off_c, 0, 71, 35
1, 218255, Note_on_c, 0, 78, 42
1, 218259, Note_on_c, 0, 79, 44
1, 218294, Note_off_c, 0, 78, 49
1, 218294, Note_off_c, 0, 79, 50
1, 218343, Note_on_c, 0, 61, 63
1, 218365, Note_off_c, 0, 55, 38
1, 218435, Note_on_c, 0, 78, 36
1, 218435, Note_on_c, 0, 79, 35
1, 218485, Note_off_c, 0, 78, 45
1, 218495, Note_off_c, 0, 79, 42
1, 218511, Note_on_c, 0, 73, 56
1, 218541, Note_on_c, 0, 71, 22
1, 218544, Note_off_c, 0, 73, 63
1, 218578, Note_off_c, 0, 71, 54
1, 218659, Note_off_c, 0, 61, 55
1, 218668, Note_on_c, 0, 59, 56
1, 218754, Note_on_c, 0, 71, 42
1, 218757, Note_on_c, 0, 73, 47
1, 218801, Note_off_c, 0, 59, 48
1, 218818, Note_off_c, 0, 71, 49
1, 218818, Note_off_c, 0, 73, 58
1, 218847, Note_on_c, 0, 78, 50
1, 218870, Note_on_c, 0, 79, 32
1, 218880, Note_off_c, 0, 78, 61
1, 218904, Note_off_c, 0, 79, 51
1, 218906, Note_on_c, 0, 54, 60
1, 218984, Note_on_c, 0, 78, 54
1, 218990, Note_on_c, 0, 79, 57
1, 219035, Note_off_c, 0, 54, 61
1, 219039, Note_off_c, 0, 79, 50
1, 219054, Note_off_c, 0, 78, 54
1, 219060, Note_on_c, 0, 73, 62
1, 219075, Note_on_c, 0, 71, 45
1, 219082, Note_on_c, 0, 55, 69
1, 219082, Note_off_c, 0, 73, 65
1, 219100, Note_off_c, 0, 71, 59
1, 219284, Note_off_c, 0, 55, 62
1, 219300, Note_on_c, 0, 58, 62
1, 219405, Note_on_c, 0, 61, 47
1, 219449, Control_c, 0, 64, 82
1, 219460, Note_on_c, 0, 66, 53
1, 219464, Control_c, 0, 64, 0
1, 219466, Note_off_c, 0, 61, 55
1, 219523, Control_c, 0, 64, 52
1, 219538, Control_c, 0, 64, 76
1, 219544, Note_on_c, 0, 68, 58
1, 219546, Note_off_c, 0, 66, 56
1, 219552, Control_c, 0, 64, 105
1, 219567, Control_c, 0, 64, 127
1, 219597, Note_off_c, 0, 68, 58
1, 219729, Note_on_c, 0, 72, 75
1, 219854, Note_on_c, 0, 70, 63
1, 219952, Note_off_c, 0, 70, 54
1, 219964, Note_on_c, 0, 64, 54
1, 220002, Note_off_c, 0, 64, 63
1, 220128, Note_off_c, 0, 58, 44
1, 220186, Note_on_c, 0, 73, 83
1, 220215, Note_off_c, 0, 72, 54
1, 220383, Note_on_c, 0, 54, 34
1, 220418, Note_off_c, 0, 54, 54
1, 220606, Note_on_c, 0, 64, 42
1, 220640, Note_off_c, 0, 64, 53
1, 220710, Note_on_c, 0, 58, 48
1, 220737, Note_off_c, 0, 58, 59
1, 220891, Note_on_c, 0, 54, 43
1, 220957, Note_off_c, 0, 54, 54
1, 220984, Note_on_c, 0, 49, 37
1, 221020, Note_off_c, 0, 49, 49
1, 221114, Note_on_c, 0, 64, 52
1, 221143, Note_off_c, 0, 64, 57
1, 221160, Note_on_c, 0, 58, 54
1, 221213, Note_off_c, 0, 58, 59
1, 221218, Note_on_c, 0, 52, 51
1, 221246, Note_off_c, 0, 52, 57
1, 221329, Note_on_c, 0, 72, 88
1, 221357, Note_off_c, 0, 73, 60
1, 221386, Note_on_c, 0, 49, 72
1, 221455, Note_off_c, 0, 49, 59
1, 221461, Note_on_c, 0, 42, 72
1, 221501, Note_off_c, 0, 42, 64
1, 221563, Note_on_c, 0, 43, 82
1, 221576, Control_c, 0, 64, 86
1, 221589, Note_off_c, 0, 72, 49
1, 221591, Control_c, 0, 64, 0
1, 221607, Note_on_c, 0, 48, 66
1, 221624, Note_off_c, 0, 43, 63
1, 221650, Control_c, 0, 64, 70
1, 221665, Control_c, 0, 64, 97
1, 221673, Note_on_c, 0, 73, 95
1, 221675, Note_off_c, 0, 48, 64
1, 221679, Control_c, 0, 64, 127
1, 221681, Note_on_c, 0, 68, 80
1, 221682, Note_on_c, 0, 58, 85
1, 221709, Note_off_c, 0, 58, 65
1, 221793, Note_off_c, 0, 73, 59
1, 221821, Note_on_c, 0, 64, 63
1, 221849, Note_off_c, 0, 64, 65
1, 221880, Note_on_c, 0, 76, 94
1, 221958, Note_off_c, 0, 76, 61
1, 222027, Note_on_c, 0, 78, 91
1, 222139, Note_on_c, 0, 61, 86
1, 222197, Note_off_c, 0, 61, 59
1, 222211, Note_off_c, 0, 68, 49
1, 222212, Note_on_c, 0, 63, 82
1, 222242, Note_off_c, 0, 63, 61
1, 222298, Note_on_c, 0, 61, 61
1, 222316, Note_off_c, 0, 61, 66
1, 222343, Note_on_c, 0, 63, 70
1, 222368, Note_off_c, 0, 63, 65
1, 222388, Note_on_c, 0, 61, 68
1, 222424, Note_off_c, 0, 61, 62
1, 222455, Note_on_c, 0, 63, 53
1, 222471, Note_off_c, 0, 63, 68
1, 222507, Note_on_c, 0, 61, 57
1, 222525, Note_off_c, 0, 61, 66
1, 222553, Note_on_c, 0, 63, 45
1, 222591, Note_off_c, 0, 63, 64
1, 222610, Note_on_c, 0, 61, 59
1, 222642, Note_off_c, 0, 61, 62
1, 222673, Note_on_c, 0, 63, 63
1, 222701, Note_off_c, 0, 63, 64
1, 222723, Note_on_c, 0, 61, 67
1, 222750, Note_off_c, 0, 61, 64
1, 222788, Note_on_c, 0, 63, 49
1, 222814, Note_off_c, 0, 63, 59
1, 222835, Note_on_c, 0, 61, 63
1, 222865, Note_off_c, 0, 61, 62
1, 222896, Note_on_c, 0, 63, 57
1, 222926, Note_off_c, 0, 63, 63
1, 222950, Note_on_c, 0, 61, 61
1, 222977, Note_off_c, 0, 61, 63
1, 223011, Note_on_c, 0, 63, 65
1, 223041, Note_off_c, 0, 63, 64
1, 223071, Note_on_c, 0, 61, 50
1, 223094, Note_off_c, 0, 61, 64
1, 223132, Note_on_c, 0, 63, 57
1, 223158, Note_off_c, 0, 63, 60
1, 223196, Note_on_c, 0, 61, 34
1, 223220, Note_off_c, 0, 61, 58
1, 223253, Note_on_c, 0, 63, 52
1, 223281, Note_off_c, 0, 63, 62
1, 223339, Note_on_c, 0, 61, 24
1, 223372, Note_off_c, 0, 61, 49
1, 223409, Note_on_c, 0, 63, 32
1, 223446, Note_off_c, 0, 63, 50
1, 223464, Note_on_c, 0, 61, 50
1, 223464, Note_on_c, 0, 76, 54
1, 223498, Note_off_c, 0, 61, 63
1, 223506, Note_off_c, 0, 78, 32
1, 223542, Note_on_c, 0, 63, 43
1, 223565, Note_off_c, 0, 76, 55
1, 223568, Note_off_c, 0, 63, 62
1, 223653, Poly_aftertouch_c, 0, 61, 127
1, 223673, Control_c, 0, 67, 9
1, 223676, Note_on_c, 0, 63, 36
1, 223684, Poly_aftertouch_c, 0, 61, 0
1, 223688, Control_c, 0, 67, 12
1, 223697, Poly_aftertouch_c, 0, 61, 0
1, 223702, Control_c, 0, 67, 14
1, 223714, Note_off_c, 0, 63, 51
1, 223717, Control_c, 0, 67, 16
1, 223726, Note_on_c, 0, 61, 16
1, 223732, Control_c, 0, 67, 18
1, 223747, Control_c, 0, 67, 18
1, 223774, Note_off_c, 0, 61, 51
1, 223777, Control_c, 0, 67, 19
1, 223807, Control_c, 0, 67, 19
1, 223835, Note_on_c, 0, 61, 29
1, 223837, Control_c, 0, 67, 20
1, 223852, Control_c, 0, 67, 21
1, 223866, Control_c, 0, 67, 23
1, 223867, Note_off_c, 0, 61, 52
1, 223881, Control_c, 0, 67, 25
1, 223896, Control_c, 0, 67, 25
1, 223941, Control_c, 0, 67, 25
1, 223955, Control_c, 0, 67, 24
1, 223970, Control_c, 0, 67, 23
1, 223985, Control_c, 0, 67, 21
1, 224000, Control_c, 0, 64, 93
1, 224000, Control_c, 0, 67, 19
1, 224015, Control_c, 0, 64, 71
1, 224015, Control_c, 0, 67, 15
1, 224027, Note_on_c, 0, 44, 49
1, 224029, Control_c, 0, 64, 0
1, 224029, Control_c, 0, 67, 10
1, 224044, Control_c, 0, 67, 0
1, 224206, Note_on_c, 0, 37, 32
1, 224259, Control_c, 0, 67, 14
1, 224267, Note_on_c, 0, 52, 33
1, 224273, Control_c, 0, 67, 26
1, 224288, Control_c, 0, 67, 50
1, 224303, Control_c, 0, 67, 76
1, 224318, Control_c, 0, 67, 106
1, 224333, Control_c, 0, 67, 127
1, 224334, Note_off_c, 0, 37, 33
1, 224358, Note_on_c, 0, 31, 29
1, 224362, Control_c, 0, 64, 11
1, 224377, Control_c, 0, 64, 42
1, 224392, Control_c, 0, 64, 55
1, 224407, Control_c, 0, 64, 61
1, 224422, Control_c, 0, 64, 65
1, 224436, Control_c, 0, 64, 68
1, 224451, Control_c, 0, 64, 70
1, 224466, Control_c, 0, 64, 71
1, 224496, Note_off_c, 0, 52, 42
1, 224510, Control_c, 0, 64, 70
1, 224512, Note_off_c, 0, 31, 42
1, 224522, Note_on_c, 0, 37, 37
1, 224555, Control_c, 0, 64, 70
1, 224600, Control_c, 0, 64, 69
1, 224612, Note_on_c, 0, 52, 47
1, 224615, Control_c, 0, 64, 69
1, 224645, Control_c, 0, 64, 68
1, 224659, Control_c, 0, 64, 68
1, 224689, Control_c, 0, 64, 67
1, 224719, Control_c, 0, 64, 67
1, 224749, Control_c, 0, 64, 66
1, 224767, Note_off_c, 0, 52, 58
1, 224778, Control_c, 0, 64, 66
1, 224790, Note_off_c, 0, 37, 42
1, 224805, Note_on_c, 0, 31, 40
1, 224808, Control_c, 0, 64, 66
1, 224845, Control_c, 0, 67, 118
1, 224859, Control_c, 0, 64, 67
1, 224859, Control_c, 0, 67, 104
1, 224875, Control_c, 0, 67, 85
1, 224885, Note_on_c, 0, 52, 64
1, 224890, Control_c, 0, 64, 67
1, 224890, Control_c, 0, 67, 60
1, 224904, Control_c, 0, 67, 33
1, 224919, Control_c, 0, 64, 68
1, 224919, Control_c, 0, 67, 0
1, 224923, Note_off_c, 0, 52, 64
1, 224967, Note_on_c, 0, 37, 42
1, 224981, Note_off_c, 0, 31, 43
1, 224996, Note_on_c, 0, 52, 60
1, 225038, Control_c, 0, 64, 67
1, 225049, Note_off_c, 0, 52, 62
1, 225083, Control_c, 0, 64, 67
1, 225112, Control_c, 0, 64, 66
1, 225130, Note_on_c, 0, 31, 40
1, 225142, Control_c, 0, 64, 66
1, 225148, Note_off_c, 0, 37, 45
1, 225157, Control_c, 0, 64, 65
1, 225170, Note_on_c, 0, 52, 63
1, 225171, Control_c, 0, 64, 64
1, 225183, Note_off_c, 0, 31, 56
1, 225186, Control_c, 0, 64, 64
1, 225199, Note_off_c, 0, 52, 65
1, 225201, Control_c, 0, 64, 62
1, 225216, Control_c, 0, 64, 59
1, 225230, Control_c, 0, 64, 53
1, 225245, Control_c, 0, 64, 31
1, 225250, Note_on_c, 0, 52, 75
1, 225260, Control_c, 0, 64, 0
1, 225297, Note_off_c, 0, 52, 58
1, 225336, Note_on_c, 0, 49, 59
1, 225362, Note_off_c, 0, 49, 59
1, 225412, Note_on_c, 0, 37, 46
1, 225481, Note_on_c, 0, 53, 48
1, 225518, Note_off_c, 0, 53, 64
1, 225543, Note_off_c, 0, 37, 37
1, 225547, Note_on_c, 0, 31, 42
1, 225556, Note_on_c, 0, 52, 47
1, 225691, Note_off_c, 0, 31, 29
1, 225724, Note_on_c, 0, 37, 33
1, 225994, Note_on_c, 0, 31, 37
1, 225995, Note_off_c, 0, 37, 41
1, 226039, Control_c, 0, 64, 60
1, 226053, Control_c, 0, 64, 68
1, 226068, Control_c, 0, 64, 73
1, 226083, Control_c, 0, 64, 78
1, 226098, Control_c, 0, 64, 82
1, 226113, Control_c, 0, 64, 86
1, 226127, Control_c, 0, 64, 88
1, 226138, Note_off_c, 0, 52, 56
1, 226142, Control_c, 0, 64, 88
1, 226165, Note_off_c, 0, 31, 35
1, 226169, Note_on_c, 0, 37, 38
1, 226292, Control_c, 0, 64, 88
1, 226292, Control_c, 0, 67, 8
1, 226306, Control_c, 0, 67, 11
1, 226329, Control_c, 0, 67, 15
1, 226344, Control_c, 0, 67, 21
1, 226358, Control_c, 0, 67, 26
1, 226372, Control_c, 0, 67, 30
1, 226387, Control_c, 0, 67, 33
1, 226394, Note_on_c, 0, 31, 23
1, 226402, Control_c, 0, 67, 35
1, 226417, Control_c, 0, 67, 35
1, 226429, Note_off_c, 0, 44, 36
1, 226431, Control_c, 0, 64, 87
1, 226461, Control_c, 0, 64, 87
1, 226475, Control_c, 0, 64, 86
1, 226490, Control_c, 0, 64, 86
1, 226490, Control_c, 0, 67, 35
1, 226503, Note_off_c, 0, 37, 37
1, 226505, Control_c, 0, 64, 85
1, 226505, Control_c, 0, 67, 34
1, 226520, Control_c, 0, 67, 34
1, 226535, Control_c, 0, 67, 32
1, 226549, Control_c, 0, 64, 83
1, 226549, Control_c, 0, 67, 28
1, 226564, Control_c, 0, 64, 72
1, 226564, Control_c, 0, 67, 20
1, 226568, Note_off_c, 0, 31, 43
1, 226579, Control_c, 0, 64, 0
1, 226579, Control_c, 0, 67, 0
1, 226721, Note_on_c, 0, 72, 59
1, 226752, Note_on_c, 0, 68, 43
1, 226875, Control_c, 0, 64, 61
1, 226890, Control_c, 0, 64, 73
1, 226905, Control_c, 0, 64, 92
1, 226920, Control_c, 0, 64, 127
1, 227013, Note_on_c, 0, 73, 80
1, 227025, Note_off_c, 0, 72, 58
1, 227033, Note_off_c, 0, 68, 55
1, 227041, Note_on_c, 0, 64, 40
1, 227089, Note_off_c, 0, 64, 49
1, 227211, Note_on_c, 0, 58, 34
1, 227263, Note_off_c, 0, 58, 46
1, 227346, Note_on_c, 0, 52, 43
1, 227388, Note_off_c, 0, 52, 61
1, 227452, Note_on_c, 0, 42, 53
1, 227499, Note_off_c, 0, 42, 59
1, 227596, Note_on_c, 0, 43, 53
1, 227654, Control_c, 0, 64, 95
1, 227669, Control_c, 0, 64, 70
1, 227684, Control_c, 0, 64, 0
1, 227713, Control_c, 0, 64, 63
1, 227714, Note_off_c, 0, 43, 63
1, 227715, Note_on_c, 0, 48, 60
1, 227728, Control_c, 0, 64, 74
1, 227743, Control_c, 0, 64, 92
1, 227758, Control_c, 0, 64, 127
1, 227831, Note_on_c, 0, 58, 72
1, 227885, Note_off_c, 0, 58, 57
1, 227930, Note_on_c, 0, 49, 28
1, 227970, Note_on_c, 0, 64, 67
1, 228020, Note_off_c, 0, 48, 48
1, 228038, Note_off_c, 0, 49, 41
1, 228086, Note_on_c, 0, 67, 70
1, 228093, Note_off_c, 0, 73, 57
1, 228234, Note_off_c, 0, 67, 54
1, 228254, Note_on_c, 0, 72, 67
1, 228283, Note_off_c, 0, 72, 64
1, 228305, Note_off_c, 0, 64, 64
1, 228418, Control_c, 0, 64, 98
1, 228433, Control_c, 0, 64, 70
1, 228447, Control_c, 0, 64, 0
1, 228447, Control_c, 0, 67, 11
1, 228462, Control_c, 0, 67, 14
1, 228477, Control_c, 0, 67, 16
1, 228492, Control_c, 0, 67, 19
1, 228507, Control_c, 0, 67, 23
1, 228521, Control_c, 0, 67, 28
1, 228526, Note_on_c, 0, 44, 43
1, 228536, Control_c, 0, 67, 35
1, 228551, Control_c, 0, 67, 45
1, 228573, Note_on_c, 0, 52, 45
1, 228573, Control_c, 0, 67, 59
1, 228588, Control_c, 0, 67, 71
1, 228604, Control_c, 0, 67, 85
1, 228619, Control_c, 0, 67, 99
1, 228634, Control_c, 0, 67, 111
1, 228636, Note_off_c, 0, 52, 57
1, 228649, Control_c, 0, 67, 119
1, 228655, Note_on_c, 0, 49, 53
1, 228664, Control_c, 0, 67, 126
1, 228678, Control_c, 0, 67, 127
1, 228702, Note_off_c, 0, 49, 56
1, 228721, Note_on_c, 0, 37, 33
1, 228782, Control_c, 0, 67, 125
1, 228797, Control_c, 0, 67, 123
1, 228812, Control_c, 0, 67, 121
1, 228822, Note_off_c, 0, 37, 33
1, 228827, Control_c, 0, 67, 119
1, 228839, Note_on_c, 0, 53, 46
1, 228842, Control_c, 0, 67, 116
1, 228856, Control_c, 0, 67, 113
1, 228859, Note_on_c, 0, 31, 32
1, 228871, Control_c, 0, 67, 107
1, 228886, Control_c, 0, 67, 99
1, 228901, Control_c, 0, 67, 89
1, 228902, Note_off_c, 0, 53, 59
1, 228916, Control_c, 0, 67, 77
1, 228931, Control_c, 0, 67, 65
1, 228945, Control_c, 0, 67, 53
1, 228950, Note_on_c, 0, 52, 41
1, 228960, Control_c, 0, 67, 43
1, 228975, Control_c, 0, 67, 35
1, 228990, Control_c, 0, 67, 31
1, 229005, Control_c, 0, 67, 28
1, 229019, Control_c, 0, 67, 26
1, 229034, Control_c, 0, 67, 24
1, 229049, Control_c, 0, 67, 23
1, 229064, Control_c, 0, 67, 21
1, 229078, Control_c, 0, 64, 47
1, 229078, Control_c, 0, 67, 19
1, 229093, Control_c, 0, 64, 63
1, 229093, Control_c, 0, 67, 18
1, 229095, Note_off_c, 0, 31, 40
1, 229106, Note_on_c, 0, 37, 33
1, 229108, Control_c, 0, 64, 67
1, 229108, Control_c, 0, 67, 17
1, 229123, Control_c, 0, 64, 70
1, 229138, Control_c, 0, 64, 70
1, 229167, Control_c, 0, 64, 70
1, 229182, Control_c, 0, 64, 69
1, 229197, Control_c, 0, 64, 69
1, 229212, Control_c, 0, 64, 68
1, 229226, Control_c, 0, 64, 68
1, 229241, Control_c, 0, 64, 67
1, 229241, Control_c, 0, 67, 18
1, 229256, Control_c, 0, 67, 20
1, 229271, Control_c, 0, 64, 67
1, 229271, Control_c, 0, 67, 21
1, 229283, Note_off_c, 0, 52, 43
1, 229286, Control_c, 0, 64, 66
1, 229286, Control_c, 0, 67, 22
1, 229301, Control_c, 0, 64, 66
1, 229301, Control_c, 0, 67, 23
1, 229305, Note_off_c, 0, 37, 41
1, 229323, Control_c, 0, 64, 65
1, 229323, Control_c, 0, 67, 26
1, 229338, Control_c, 0, 64, 64
1, 229352, Control_c, 0, 64, 64
1, 229365, Note_on_c, 0, 31, 23
1, 229367, Control_c, 0, 64, 63
1, 229367, Control_c, 0, 67, 27
1, 229382, Control_c, 0, 64, 62
1, 229398, Control_c, 0, 64, 60
1, 229413, Control_c, 0, 64, 59
1, 229413, Control_c, 0, 67, 27
1, 229419, Note_on_c, 0, 52, 44
1, 229428, Control_c, 0, 64, 58
1, 229443, Control_c, 0, 64, 58
1, 229460, Note_off_c, 0, 52, 61
1, 229472, Control_c, 0, 64, 57
1, 229472, Control_c, 0, 67, 27
1, 229487, Control_c, 0, 67, 26
1, 229501, Control_c, 0, 67, 25
1, 229516, Control_c, 0, 67, 25
1, 229546, Control_c, 0, 67, 24
1, 229551, Note_off_c, 0, 31, 41
1, 229560, Note_on_c, 0, 52, 49
1, 229561, Control_c, 0, 67, 24
1, 229572, Note_on_c, 0, 37, 28
1, 229590, Note_off_c, 0, 52, 61
1, 229605, Control_c, 0, 67, 23
1, 229620, Control_c, 0, 64, 57
1, 229635, Control_c, 0, 67, 23
1, 229649, Control_c, 0, 64, 57
1, 229664, Control_c, 0, 67, 22
1, 229679, Control_c, 0, 67, 21
1, 229682, Note_on_c, 0, 52, 53
1, 229694, Control_c, 0, 67, 21
1, 229709, Control_c, 0, 67, 20
1, 229721, Note_off_c, 0, 52, 63
1, 229724, Control_c, 0, 64, 56
1, 229724, Control_c, 0, 67, 20
1, 229739, Control_c, 0, 64, 55
1, 229739, Control_c, 0, 67, 19
1, 229754, Control_c, 0, 64, 53
1, 229754, Control_c, 0, 67, 19
1, 229768, Control_c, 0, 64, 50
1, 229768, Control_c, 0, 67, 17
1, 229783, Control_c, 0, 64, 46
1, 229783, Control_c, 0, 67, 16
1, 229798, Control_c, 0, 64, 43
1, 229798, Control_c, 0, 67, 14
1, 229808, Note_on_c, 0, 31, 20
1, 229813, Control_c, 0, 64, 40
1, 229813, Control_c, 0, 67, 0
1, 229828, Control_c, 0, 64, 38
1, 229842, Control_c, 0, 64, 36
1, 229845, Note_on_c, 0, 52, 33
1, 229857, Control_c, 0, 64, 36
1, 229872, Control_c, 0, 64, 35
1, 229885, Note_off_c, 0, 52, 55
1, 229894, Note_off_c, 0, 44, 25
1, 229916, Control_c, 0, 64, 34
1, 229931, Control_c, 0, 64, 33
1, 229946, Control_c, 0, 64, 30
1, 229961, Control_c, 0, 64, 29
1, 229994, Note_off_c, 0, 37, 42
1, 230034, Control_c, 0, 64, 30
1, 230049, Control_c, 0, 64, 32
1, 230072, Control_c, 0, 64, 34
1, 230087, Control_c, 0, 64, 35
1, 230101, Control_c, 0, 64, 36
1, 230113, Note_off_c, 0, 31, 35
1, 230116, Control_c, 0, 64, 37
1, 230131, Control_c, 0, 64, 38
1, 230175, Control_c, 0, 64, 38
1, 230206, Control_c, 0, 64, 39
1, 230236, Control_c, 0, 64, 40
1, 230266, Control_c, 0, 64, 41
1, 230280, Control_c, 0, 64, 42
1, 230295, Control_c, 0, 64, 42
1, 230369, Control_c, 0, 64, 42
1, 230457, Control_c, 0, 64, 42
1, 230472, Control_c, 0, 64, 43
1, 230487, Control_c, 0, 64, 45
1, 230502, Control_c, 0, 64, 47
1, 230517, Control_c, 0, 64, 50
1, 230532, Control_c, 0, 64, 58
1, 230547, Control_c, 0, 64, 64
1, 230562, Control_c, 0, 64, 68
1, 230576, Control_c, 0, 64, 75
1, 230591, Control_c, 0, 64, 85
1, 230606, Control_c, 0, 64, 106
1, 230621, Control_c, 0, 64, 127
1, 230841, Note_on_c, 0, 72, 60
1, 230899, Note_on_c, 0, 68, 29
1, 231291, Note_off_c, 0, 72, 37
1, 231343, Note_on_c, 0, 73, 70
1, 231351, Note_off_c, 0, 68, 48
1, 231393, Note_on_c, 0, 64, 19
1, 231587, Note_on_c, 0, 58, 31
1, 231640, Note_off_c, 0, 64, 43
1, 231738, Note_off_c, 0, 58, 44
1, 231772, Note_on_c, 0, 52, 40
1, 231835, Note_off_c, 0, 52, 60
1, 231924, Note_on_c, 0, 42, 45
1, 231974, Note_off_c, 0, 42, 58
1, 232102, Note_on_c, 0, 43, 51
1, 232177, Control_c, 0, 64, 94
1, 232192, Control_c, 0, 64, 71
1, 232207, Control_c, 0, 64, 58
1, 232222, Control_c, 0, 64, 64
1, 232237, Control_c, 0, 64, 74
1, 232252, Control_c, 0, 64, 93
1, 232267, Control_c, 0, 64, 127
1, 232284, Note_on_c, 0, 48, 51
1, 232286, Note_off_c, 0, 43, 58
1, 232423, Note_on_c, 0, 58, 59
1, 232451, Note_off_c, 0, 48, 61
1, 232458, Note_off_c, 0, 58, 65
1, 232577, Note_on_c, 0, 64, 63
1, 232733, Note_on_c, 0, 67, 70
1, 232741, Note_off_c, 0, 73, 58
1, 232898, Note_off_c, 0, 67, 56
1, 232908, Note_on_c, 0, 72, 76
1, 232910, Note_off_c, 0, 64, 0
1, 232910, Note_on_c, 0, 64, 14
1, 232967, Note_off_c, 0, 72, 55
1, 233052, Note_off_c, 0, 64, 44
1, 233178, Note_on_c, 0, 73, 91
1, 233349, Control_c, 0, 64, 103
1, 233364, Control_c, 0, 64, 68
1, 233378, Control_c, 0, 64, 0
1, 233408, Control_c, 0, 64, 60
1, 233423, Control_c, 0, 64, 78
1, 233438, Control_c, 0, 64, 117
1, 233453, Control_c, 0, 64, 127
1, 233471, Note_on_c, 0, 76, 90
1, 233497, Note_on_c, 0, 71, 58
1, 233505, Note_off_c, 0, 73, 60
1, 233660, Note_off_c, 0, 71, 57
1, 233678, Note_off_c, 0, 76, 59
1, 233706, Note_on_c, 0, 78, 90
1, 233727, Note_on_c, 0, 67, 66
1, 233839, Note_off_c, 0, 67, 46
1, 233902, Note_on_c, 0, 61, 59
1, 233974, Note_off_c, 0, 61, 62
1, 234025, Note_on_c, 0, 55, 60
1, 234064, Note_off_c, 0, 55, 63
1, 234165, Note_on_c, 0, 45, 73
1, 234300, Note_off_c, 0, 45, 53
1, 234322, Note_on_c, 0, 46, 78
1, 234454, Control_c, 0, 64, 87
1, 234469, Control_c, 0, 64, 49
1, 234475, Note_on_c, 0, 51, 80
1, 234483, Control_c, 0, 64, 0
1, 234498, Control_c, 0, 64, 60
1, 234513, Control_c, 0, 64, 76
1, 234514, Note_off_c, 0, 46, 61
1, 234528, Control_c, 0, 64, 127
1, 234606, Note_off_c, 0, 51, 62
1, 234619, Note_on_c, 0, 61, 93
1, 234661, Note_off_c, 0, 61, 61
1, 234767, Note_on_c, 0, 67, 87
1, 234841, Note_off_c, 0, 78, 58
1, 234914, Note_on_c, 0, 70, 91
1, 235014, Note_off_c, 0, 70, 61
1, 235077, Note_off_c, 0, 67, 37
1, 235085, Note_on_c, 0, 76, 94
1, 235178, Note_off_c, 0, 76, 57
1, 235525, Note_on_c, 0, 81, 97
1, 235535, Control_c, 0, 64, 86
1, 235539, Note_on_c, 0, 74, 88
1, 235550, Control_c, 0, 64, 63
1, 235565, Control_c, 0, 64, 0
1, 235609, Control_c, 0, 64, 19
1, 235624, Control_c, 0, 64, 69
1, 235638, Control_c, 0, 64, 95
1, 235653, Control_c, 0, 64, 127
1, 235797, Note_on_c, 0, 70, 89
1, 235807, Note_off_c, 0, 74, 36
1, 235945, Note_on_c, 0, 64, 73
1, 235969, Note_off_c, 0, 70, 31
1, 236069, Note_off_c, 0, 64, 50
1, 236095, Note_on_c, 0, 58, 71
1, 236135, Note_off_c, 0, 58, 60
1, 236230, Note_on_c, 0, 48, 76
1, 236286, Note_off_c, 0, 48, 61
1, 236425, Note_on_c, 0, 49, 82
1, 236596, Control_c, 0, 64, 78
1, 236611, Control_c, 0, 64, 0
1, 236615, Note_on_c, 0, 54, 78
1, 236640, Control_c, 0, 64, 49
1, 236655, Control_c, 0, 64, 76
1, 236670, Control_c, 0, 64, 127
1, 236675, Note_off_c, 0, 49, 59
1, 236712, Note_off_c, 0, 54, 63
1, 236775, Note_on_c, 0, 64, 80
1, 236798, Note_off_c, 0, 64, 72
1, 236923, Note_on_c, 0, 70, 91
1, 237054, Note_on_c, 0, 73, 93
1, 237070, Note_off_c, 0, 70, 61
1, 237075, Note_off_c, 0, 81, 45
1, 237111, Note_off_c, 0, 73, 63
1, 237191, Note_on_c, 0, 81, 95
1, 237328, Note_on_c, 0, 52, 92
1, 237447, Control_c, 0, 64, 79
1, 237462, Note_on_c, 0, 57, 80
1, 237462, Control_c, 0, 64, 0
1, 237492, Control_c, 0, 64, 64
1, 237506, Note_off_c, 0, 52, 59
1, 237507, Control_c, 0, 64, 91
1, 237522, Control_c, 0, 64, 127
1, 237535, Note_off_c, 0, 81, 0
1, 237580, Poly_aftertouch_c, 0, 81, 127
1, 237611, Note_on_c, 0, 67, 94
1, 237656, Note_off_c, 0, 67, 64
1, 237674, Note_off_c, 0, 57, 35
1, 237725, Note_on_c, 0, 73, 95
1, 237810, Poly_aftertouch_c, 0, 81, 0
1, 237845, Note_on_c, 0, 76, 86
1, 237862, Note_off_c, 0, 73, 58
1, 237915, Note_off_c, 0, 76, 62
1, 237975, Note_on_c, 0, 81, 101
1, 238135, Note_on_c, 0, 55, 97
1, 238227, Control_c, 0, 64, 78
1, 238242, Control_c, 0, 64, 0
1, 238271, Control_c, 0, 64, 70
1, 238286, Control_c, 0, 64, 112
1, 238288, Note_on_c, 0, 60, 74
1, 238309, Control_c, 0, 64, 127
1, 238317, Note_off_c, 0, 55, 65
1, 238443, Note_on_c, 0, 70, 102
1, 238510, Note_off_c, 0, 70, 63
1, 238547, Poly_aftertouch_c, 0, 61, 127
1, 238563, Note_on_c, 0, 76, 99
1, 238575, Note_off_c, 0, 60, 62
1, 238595, Note_off_c, 0, 81, 31
1, 238598, Poly_aftertouch_c, 0, 61, 0
1, 238636, Note_off_c, 0, 76, 61
1, 238693, Note_on_c, 0, 79, 103
1, 238751, Note_off_c, 0, 79, 66
1, 238825, Note_on_c, 0, 81, 110
1, 238901, Control_c, 0, 64, 108
1, 238916, Control_c, 0, 64, 65
1, 238921, Note_on_c, 0, 58, 91
1, 238930, Control_c, 0, 64, 0
1, 238945, Control_c, 0, 64, 56
1, 238960, Control_c, 0, 64, 81
1, 238976, Control_c, 0, 64, 127
1, 239060, Note_off_c, 0, 58, 62
1, 239061, Note_on_c, 0, 64, 93
1, 239101, Note_off_c, 0, 81, 53
1, 239194, Note_on_c, 0, 81, 112
1, 239203, Note_on_c, 0, 66, 93
1, 239411, Note_off_c, 0, 66, 0
1, 239422, Note_on_c, 0, 73, 110
1, 239429, Note_on_c, 0, 66, 52
1, 239468, Note_off_c, 0, 64, 41
1, 239490, Note_off_c, 0, 66, 52
1, 239492, Note_off_c, 0, 73, 64
1, 239617, Note_off_c, 0, 81, 49
1, 239707, Note_on_c, 0, 81, 109
1, 240254, Note_off_c, 0, 81, 52
1, 240280, Note_on_c, 0, 76, 105
1, 240682, Note_on_c, 0, 74, 102
1, 240714, Note_off_c, 0, 76, 59
1, 240821, Note_off_c, 0, 74, 57
1, 240889, Note_on_c, 0, 69, 96
1, 240957, Note_off_c, 0, 69, 63
1, 241022, Note_on_c, 0, 70, 96
1, 241063, Note_off_c, 0, 70, 65
1, 241180, Note_on_c, 0, 52, 101
1, 241186, Note_on_c, 0, 45, 93
1, 241188, Note_on_c, 0, 39, 90
1, 241191, Note_on_c, 0, 60, 101
1, 241191, Control_c, 0, 64, 71
1, 241194, Note_on_c, 0, 69, 84
1, 241195, Note_on_c, 0, 73, 96
1, 241197, Note_on_c, 0, 46, 71
1, 241200, Note_on_c, 0, 64, 85
1, 241200, Note_off_c, 0, 46, 66
1, 241206, Control_c, 0, 64, 0
1, 241236, Control_c, 0, 64, 58
1, 241244, Note_off_c, 0, 52, 60
1, 241251, Control_c, 0, 64, 113
1, 241266, Control_c, 0, 64, 127
1, 241268, Note_off_c, 0, 60, 59
1, 241281, Note_off_c, 0, 45, 61
1, 241315, Note_off_c, 0, 64, 57
1, 241380, Note_off_c, 0, 39, 61
1, 241382, Note_on_c, 0, 45, 93
1, 241445, Note_off_c, 0, 73, 63
1, 241456, Note_on_c, 0, 60, 93
1, 241472, Note_off_c, 0, 45, 59
1, 241495, Note_off_c, 0, 69, 42
1, 241502, Note_off_c, 0, 60, 64
1, 241537, Note_on_c, 0, 39, 89
1, 241690, Note_on_c, 0, 45, 91
1, 241699, Note_off_c, 0, 39, 59
1, 241776, Note_on_c, 0, 60, 99
1, 241814, Note_off_c, 0, 60, 68
1, 241863, Note_off_c, 0, 45, 55
1, 241944, Note_on_c, 0, 39, 68
1, 242066, Note_on_c, 0, 60, 90
1, 242086, Note_off_c, 0, 39, 38
1, 242118, Note_off_c, 0, 60, 63
1, 242157, Note_on_c, 0, 45, 72
1, 242214, Note_off_c, 0, 45, 58
1, 242217, Note_on_c, 0, 60, 84
1, 242265, Note_off_c, 0, 60, 64
1, 242333, Note_on_c, 0, 39, 61
1, 242365, Note_off_c, 0, 39, 56
1, 242367, Note_on_c, 0, 60, 84
1, 242412, Note_off_c, 0, 60, 63
1, 242485, Note_on_c, 0, 60, 88
1, 242504, Note_off_c, 0, 60, 70
1, 242542, Control_c, 0, 64, 110
1, 242557, Control_c, 0, 64, 65
1, 242571, Control_c, 0, 64, 0
1, 242611, Note_on_c, 0, 58, 91
1, 242660, Control_c, 0, 64, 71
1, 242675, Control_c, 0, 64, 127
1, 242723, Note_on_c, 0, 64, 78
1, 242747, Note_off_c, 0, 58, 61
1, 242866, Note_on_c, 0, 66, 69
1, 242897, Note_on_c, 0, 81, 108
1, 243128, Note_on_c, 0, 73, 92
1, 243167, Note_off_c, 0, 64, 54
1, 243173, Note_off_c, 0, 66, 54
1, 243361, Note_off_c, 0, 73, 50
1, 243380, Note_off_c, 0, 81, 48
1, 243467, Note_on_c, 0, 81, 106
1, 243966, Note_off_c, 0, 81, 54
1, 243976, Note_on_c, 0, 76, 97
1, 244299, Note_on_c, 0, 74, 96
1, 244327, Note_off_c, 0, 76, 53
1, 244425, Note_off_c, 0, 74, 61
1, 244509, Note_on_c, 0, 69, 87
1, 244578, Note_off_c, 0, 69, 63
1, 244636, Note_on_c, 0, 70, 93
1, 244679, Note_off_c, 0, 70, 67
1, 244833, Control_c, 0, 64, 69
1, 244840, Note_on_c, 0, 52, 102
1, 244844, Note_on_c, 0, 39, 90
1, 244848, Control_c, 0, 64, 0
1, 244849, Note_on_c, 0, 73, 96
1, 244852, Note_on_c, 0, 45, 74
1, 244854, Note_on_c, 0, 60, 88
1, 244855, Note_on_c, 0, 69, 89
1, 244857, Poly_aftertouch_c, 0, 70, 0
1, 244858, Note_on_c, 0, 64, 84
1, 244870, Note_on_c, 0, 62, 71
1, 244882, Note_on_c, 0, 68, 45
1, 244892, Control_c, 0, 64, 68
1, 244903, Note_off_c, 0, 62, 46
1, 244907, Control_c, 0, 64, 127
1, 244912, Note_off_c, 0, 68, 53
1, 244915, Note_off_c, 0, 52, 55
1, 244917, Note_off_c, 0, 45, 51
1, 244925, Note_off_c, 0, 60, 54
1, 244965, Poly_aftertouch_c, 0, 50, 0
1, 244991, Note_off_c, 0, 64, 38
1, 245004, Note_off_c, 0, 39, 53
1, 245020, Note_on_c, 0, 45, 88
1, 245058, Note_off_c, 0, 73, 62
1, 245086, Note_off_c, 0, 45, 58
1, 245087, Note_off_c, 0, 69, 58
1, 245098, Note_on_c, 0, 60, 87
1, 245142, Note_off_c, 0, 60, 64
1, 245150, Note_on_c, 0, 39, 79
1, 245227, Note_on_c, 0, 45, 82
1, 245237, Note_off_c, 0, 39, 61
1, 245255, Note_off_c, 0, 45, 67
1, 245278, Note_on_c, 0, 60, 94
1, 245294, Note_off_c, 0, 60, 73
1, 245343, Control_c, 0, 64, 76
1, 245358, Control_c, 0, 64, 0
1, 245418, Note_on_c, 0, 58, 68
1, 245470, Note_on_c, 0, 64, 69
1, 245495, Note_off_c, 0, 58, 63
1, 245496, Note_on_c, 0, 66, 72
1, 245508, Control_c, 0, 64, 94
1, 245522, Control_c, 0, 64, 127
1, 245541, Note_on_c, 0, 73, 96
1, 245558, Note_off_c, 0, 64, 55
1, 245566, Note_off_c, 0, 73, 63
1, 245567, Note_off_c, 0, 66, 62
1, 245609, Note_on_c, 0, 81, 90
1, 245687, Note_off_c, 0, 81, 59
1, 245693, Note_on_c, 0, 76, 73
1, 245705, Note_on_c, 0, 74, 79
1, 245750, Note_off_c, 0, 74, 0
1, 245769, Note_off_c, 0, 76, 60
1, 245787, Poly_aftertouch_c, 0, 74, 127
1, 245815, Poly_aftertouch_c, 0, 74, 0
1, 245864, Note_on_c, 0, 69, 65
1, 245890, Note_off_c, 0, 69, 68
1, 245944, Control_c, 0, 64, 122
1, 245947, Note_on_c, 0, 70, 64
1, 245959, Control_c, 0, 64, 106
1, 245973, Control_c, 0, 64, 97
1, 245988, Control_c, 0, 64, 90
1, 246003, Control_c, 0, 64, 82
1, 246018, Control_c, 0, 64, 72
1, 246033, Control_c, 0, 64, 55
1, 246047, Control_c, 0, 64, 0
1, 246139, Note_on_c, 0, 51, 40
1, 246142, Note_off_c, 0, 70, 20
1, 246199, Note_on_c, 0, 73, 48
1, 246217, Note_on_c, 0, 65, 33
1, 246375, Control_c, 0, 64, 38
1, 246389, Control_c, 0, 64, 64
1, 246402, Note_off_c, 0, 73, 38
1, 246404, Control_c, 0, 64, 72
1, 246419, Control_c, 0, 64, 82
1, 246434, Control_c, 0, 64, 95
1, 246449, Control_c, 0, 64, 106
1, 246463, Control_c, 0, 64, 126
1, 246478, Control_c, 0, 64, 127
1, 246514, Note_off_c, 0, 65, 39
1, 246552, Note_off_c, 0, 51, 42
1, 246602, Note_on_c, 0, 71, 38
1, 246614, Note_on_c, 0, 67, 32
1, 246699, Note_off_c, 0, 67, 39
1, 246910, Note_off_c, 0, 71, 55
1, 246968, Note_on_c, 0, 70, 39
1, 246988, Note_on_c, 0, 61, 40
1, 247026, Note_off_c, 0, 61, 52
1, 247130, Note_off_c, 0, 70, 37
1, 247175, Note_on_c, 0, 61, 38
1, 247180, Note_on_c, 0, 65, 39
1, 247198, Control_c, 0, 64, 111
1, 247212, Control_c, 0, 64, 110
1, 247227, Control_c, 0, 64, 119
1, 247242, Control_c, 0, 64, 127
1, 247255, Note_off_c, 0, 65, 55
1, 247330, Note_off_c, 0, 61, 41
1, 247355, Note_on_c, 0, 55, 35
1, 247422, Note_off_c, 0, 55, 41
1, 247442, Control_c, 0, 64, 114
1, 247455, Note_on_c, 0, 71, 49
1, 247457, Control_c, 0, 64, 106
1, 247472, Control_c, 0, 64, 106
1, 247475, Note_on_c, 0, 51, 23
1, 247487, Control_c, 0, 64, 108
1, 247489, Note_on_c, 0, 67, 25
1, 247502, Control_c, 0, 64, 112
1, 247520, Note_off_c, 0, 51, 51
1, 247532, Control_c, 0, 64, 108
1, 247546, Control_c, 0, 64, 99
1, 247561, Control_c, 0, 64, 93
1, 247576, Control_c, 0, 64, 92
1, 247591, Control_c, 0, 64, 96
1, 247600, Note_off_c, 0, 67, 30
1, 247606, Control_c, 0, 64, 108
1, 247620, Control_c, 0, 64, 127
1, 247647, Note_on_c, 0, 64, 54
1, 247668, Note_on_c, 0, 55, 48
1, 247689, Note_off_c, 0, 64, 63
1, 247704, Note_off_c, 0, 55, 64
1, 247823, Note_off_c, 0, 71, 44
1, 247825, Note_on_c, 0, 70, 57
1, 247862, Note_off_c, 0, 70, 63
1, 247895, Poly_aftertouch_c, 0, 61, 127
1, 247931, Poly_aftertouch_c, 0, 61, 0
1, 247961, Control_c, 0, 64, 107
1, 247976, Control_c, 0, 64, 87
1, 247987, Note_on_c, 0, 68, 52
1, 247991, Control_c, 0, 64, 82
1, 248006, Control_c, 0, 64, 86
1, 248021, Control_c, 0, 64, 96
1, 248023, Note_on_c, 0, 64, 31
1, 248024, Note_off_c, 0, 68, 64
1, 248043, Control_c, 0, 64, 127
1, 248063, Note_off_c, 0, 64, 54
1, 248086, Control_c, 0, 64, 123
1, 248101, Control_c, 0, 64, 97
1, 248116, Control_c, 0, 64, 93
1, 248131, Control_c, 0, 64, 96
1, 248146, Control_c, 0, 64, 103
1, 248161, Control_c, 0, 64, 105
1, 248175, Control_c, 0, 64, 103
1, 248188, Note_on_c, 0, 74, 55
1, 248190, Control_c, 0, 64, 93
1, 248205, Control_c, 0, 64, 80
1, 248206, Note_on_c, 0, 70, 43
1, 248220, Control_c, 0, 64, 75
1, 248235, Control_c, 0, 64, 79
1, 248247, Note_off_c, 0, 70, 46
1, 248249, Control_c, 0, 64, 92
1, 248264, Control_c, 0, 64, 103
1, 248272, Note_on_c, 0, 48, 51
1, 248279, Control_c, 0, 64, 103
1, 248294, Control_c, 0, 64, 102
1, 248306, Note_off_c, 0, 48, 62
1, 248309, Control_c, 0, 64, 98
1, 248323, Control_c, 0, 64, 97
1, 248338, Control_c, 0, 64, 99
1, 248353, Control_c, 0, 64, 110
1, 248367, Control_c, 0, 64, 127
1, 248459, Note_on_c, 0, 67, 60
1, 248459, Note_on_c, 0, 58, 57
1, 248486, Note_off_c, 0, 67, 62
1, 248487, Note_off_c, 0, 58, 63
1, 248636, Note_on_c, 0, 73, 69
1, 248638, Note_off_c, 0, 74, 62
1, 248650, Note_on_c, 0, 64, 44
1, 248665, Note_off_c, 0, 73, 66
1, 248677, Note_off_c, 0, 64, 56
1, 248789, Note_on_c, 0, 71, 72
1, 248790, Control_c, 0, 64, 88
1, 248805, Control_c, 0, 64, 72
1, 248808, Note_on_c, 0, 67, 51
1, 248820, Control_c, 0, 64, 71
1, 248835, Control_c, 0, 64, 83
1, 248844, Note_off_c, 0, 71, 61
1, 248850, Control_c, 0, 64, 109
1, 248859, Note_off_c, 0, 67, 58
1, 248864, Control_c, 0, 64, 127
1, 248891, Note_on_c, 0, 61, 50
1, 248919, Note_off_c, 0, 61, 55
1, 248972, Note_on_c, 0, 77, 71
1, 248991, Note_on_c, 0, 73, 51
1, 248995, Note_on_c, 0, 57, 50
1, 249037, Note_off_c, 0, 57, 61
1, 249049, Note_off_c, 0, 73, 38
1, 249070, Note_on_c, 0, 45, 58
1, 249097, Note_off_c, 0, 45, 61
1, 249150, Poly_aftertouch_c, 0, 73, 127
1, 249182, Poly_aftertouch_c, 0, 73, 0
1, 249360, Note_on_c, 0, 76, 83
1, 249368, Note_on_c, 0, 67, 67
1, 249387, Note_off_c, 0, 77, 61
1, 249397, Note_off_c, 0, 67, 65
1, 249416, Poly_aftertouch_c, 0, 72, 127
1, 249422, Note_off_c, 0, 76, 62
1, 249455, Poly_aftertouch_c, 0, 72, 0
1, 249599, Control_c, 0, 64, 124
1, 249610, Note_on_c, 0, 70, 69
1, 249613, Control_c, 0, 64, 84
1, 249623, Note_on_c, 0, 74, 40
1, 249628, Control_c, 0, 64, 73
1, 249643, Control_c, 0, 64, 76
1, 249653, Note_off_c, 0, 74, 57
1, 249658, Control_c, 0, 64, 87
1, 249673, Control_c, 0, 64, 119
1, 249681, Note_on_c, 0, 64, 79
1, 249687, Control_c, 0, 64, 127
1, 249690, Note_off_c, 0, 70, 61
1, 249718, Note_off_c, 0, 64, 64
1, 249756, Note_on_c, 0, 80, 84
1, 249790, Note_on_c, 0, 76, 47
1, 249816, Note_on_c, 0, 58, 69
1, 249848, Note_off_c, 0, 58, 64
1, 249891, Note_on_c, 0, 53, 9
1, 249893, Note_on_c, 0, 52, 51
1, 249923, Note_off_c, 0, 52, 62
1, 249937, Note_off_c, 0, 53, 57
1, 249941, Note_on_c, 0, 42, 41
1, 249965, Note_off_c, 0, 76, 60
1, 249978, Note_off_c, 0, 42, 56
1, 250079, Note_on_c, 0, 73, 78
1, 250104, Note_off_c, 0, 73, 64
1, 250275, Note_off_c, 0, 80, 48
1, 250289, Note_on_c, 0, 79, 68
1, 250310, Note_on_c, 0, 70, 58
1, 250327, Note_off_c, 0, 79, 61
1, 250336, Note_off_c, 0, 70, 60
1, 250467, Control_c, 0, 64, 103
1, 250482, Control_c, 0, 64, 90
1, 250497, Control_c, 0, 64, 77
1, 250511, Control_c, 0, 64, 64
1, 250519, Note_on_c, 0, 67, 56
1, 250526, Control_c, 0, 64, 0
1, 250557, Note_on_c, 0, 63, 43
1, 250615, Control_c, 0, 64, 59
1, 250630, Control_c, 0, 64, 74
1, 250644, Control_c, 0, 64, 89
1, 250650, Note_off_c, 0, 67, 37
1, 250659, Control_c, 0, 64, 113
1, 250674, Control_c, 0, 64, 127
1, 250690, Note_off_c, 0, 63, 51
1, 250702, Note_on_c, 0, 57, 48
1, 250769, Note_off_c, 0, 57, 53
1, 250772, Note_on_c, 0, 73, 55
1, 250777, Note_on_c, 0, 69, 43
1, 250829, Note_off_c, 0, 69, 57
1, 250957, Note_on_c, 0, 66, 62
1, 250966, Note_on_c, 0, 57, 44
1, 251011, Note_off_c, 0, 57, 61
1, 251014, Note_off_c, 0, 66, 50
1, 251151, Note_off_c, 0, 73, 36
1, 251151, Note_on_c, 0, 72, 62
1, 251168, Note_on_c, 0, 63, 53
1, 251181, Note_off_c, 0, 72, 65
1, 251213, Note_off_c, 0, 63, 49
1, 251304, Control_c, 0, 64, 85
1, 251315, Note_on_c, 0, 70, 69
1, 251319, Control_c, 0, 64, 76
1, 251330, Note_on_c, 0, 66, 55
1, 251334, Control_c, 0, 64, 79
1, 251341, Note_off_c, 0, 70, 68
1, 251349, Control_c, 0, 64, 89
1, 251359, Note_off_c, 0, 66, 64
1, 251364, Control_c, 0, 64, 123
1, 251379, Control_c, 0, 64, 127
1, 251472, Note_on_c, 0, 60, 64
1, 251472, Note_on_c, 0, 76, 65
1, 251488, Note_on_c, 0, 72, 58
1, 251577, Note_on_c, 0, 50, 55
1, 251579, Note_off_c, 0, 60, 33
1, 251606, Note_off_c, 0, 50, 65
1, 251654, Note_off_c, 0, 72, 56
1, 251741, Note_on_c, 0, 69, 69
1, 251761, Note_on_c, 0, 60, 51
1, 251800, Note_off_c, 0, 69, 62
1, 251806, Note_off_c, 0, 60, 62
1, 251914, Note_on_c, 0, 75, 80
1, 251914, Note_off_c, 0, 76, 61
1, 251928, Note_on_c, 0, 66, 68
1, 251958, Note_off_c, 0, 66, 59
1, 251965, Note_off_c, 0, 75, 62
1, 252068, Control_c, 0, 64, 79
1, 252070, Note_on_c, 0, 73, 84
1, 252082, Control_c, 0, 64, 0
1, 252085, Note_on_c, 0, 69, 64
1, 252112, Control_c, 0, 64, 59
1, 252123, Note_off_c, 0, 73, 66
1, 252127, Control_c, 0, 64, 73
1, 252141, Control_c, 0, 64, 98
1, 252156, Control_c, 0, 64, 127
1, 252157, Note_off_c, 0, 69, 62
1, 252161, Note_on_c, 0, 63, 71
1, 252187, Note_off_c, 0, 63, 67
1, 252231, Note_on_c, 0, 79, 87
1, 252249, Note_on_c, 0, 75, 65
1, 252269, Note_on_c, 0, 57, 73
1, 252273, Note_off_c, 0, 75, 68
1, 252354, Note_on_c, 0, 47, 36
1, 252357, Note_off_c, 0, 57, 60
1, 252362, Note_on_c, 0, 48, 49
1, 252391, Note_off_c, 0, 47, 51
1, 252392, Note_off_c, 0, 48, 55
1, 252483, Note_on_c, 0, 72, 89
1, 252490, Note_on_c, 0, 63, 73
1, 252563, Note_off_c, 0, 72, 48
1, 252604, Note_off_c, 0, 63, 58
1, 252662, Note_on_c, 0, 78, 98
1, 252668, Note_on_c, 0, 69, 77
1, 252677, Note_off_c, 0, 79, 63
1, 252689, Note_off_c, 0, 69, 72
1, 252713, Note_off_c, 0, 78, 68
1, 252835, Note_on_c, 0, 76, 99
1, 252855, Note_on_c, 0, 72, 68
1, 252861, Control_c, 0, 64, 81
1, 252876, Control_c, 0, 64, 54
1, 252889, Note_off_c, 0, 76, 68
1, 252891, Control_c, 0, 64, 63
1, 252905, Control_c, 0, 64, 82
1, 252918, Note_off_c, 0, 72, 64
1, 252919, Note_on_c, 0, 66, 81
1, 252920, Control_c, 0, 64, 127
1, 252942, Note_off_c, 0, 66, 69
1, 252974, Note_on_c, 0, 82, 99
1, 252978, Note_on_c, 0, 78, 92
1, 253033, Note_on_c, 0, 60, 68
1, 253058, Note_off_c, 0, 60, 67
1, 253060, Note_off_c, 0, 78, 59
1, 253084, Note_on_c, 0, 54, 80
1, 253131, Note_off_c, 0, 54, 66
1, 253149, Note_on_c, 0, 44, 78
1, 253173, Note_off_c, 0, 44, 67
1, 253220, Note_off_c, 0, 82, 61
1, 253306, Note_on_c, 0, 75, 98
1, 253327, Note_on_c, 0, 66, 64
1, 253354, Note_off_c, 0, 75, 67
1, 253403, Note_off_c, 0, 66, 36
1, 253544, Note_on_c, 0, 81, 102
1, 253551, Note_on_c, 0, 72, 94
1, 253586, Note_off_c, 0, 72, 65
1, 253598, Note_off_c, 0, 81, 64
1, 253927, Note_on_c, 0, 57, 98
1, 253932, Note_on_c, 0, 50, 82
1, 253932, Note_on_c, 0, 44, 92
1, 253938, Note_on_c, 0, 66, 99
1, 253939, Note_on_c, 0, 80, 99
1, 253941, Note_on_c, 0, 76, 91
1, 253946, Note_on_c, 0, 72, 86
1, 253956, Note_on_c, 0, 46, 59
1, 253965, Note_on_c, 0, 51, 40
1, 253966, Note_off_c, 0, 51, 127
1, 253972, Note_on_c, 0, 68, 42
1, 253982, Note_off_c, 0, 46, 60
1, 254001, Poly_aftertouch_c, 0, 51, 0
1, 254106, Control_c, 0, 64, 83
1, 254121, Control_c, 0, 64, 0
1, 254136, Note_off_c, 0, 68, 19
1, 254167, Control_c, 0, 64, 67
1, 254182, Control_c, 0, 64, 95
1, 254197, Control_c, 0, 64, 127
1, 254285, Note_off_c, 0, 57, 45
1, 254298, Note_off_c, 0, 66, 56
1, 254309, Note_off_c, 0, 80, 60
1, 254331, Note_off_c, 0, 72, 57
1, 254335, Note_off_c, 0, 76, 58
1, 254355, Note_off_c, 0, 50, 38
1, 254826, Note_on_c, 0, 50, 43
1, 254838, Note_off_c, 0, 44, 21
1, 254889, Note_off_c, 0, 50, 54
1, 254953, Note_on_c, 0, 60, 46
1, 254992, Note_off_c, 0, 60, 62
1, 255072, Note_on_c, 0, 44, 40
1, 255230, Note_on_c, 0, 50, 54
1, 255250, Note_off_c, 0, 44, 26
1, 255315, Note_on_c, 0, 60, 65
1, 255341, Note_off_c, 0, 60, 68
1, 255421, Note_off_c, 0, 50, 50
1, 255480, Note_on_c, 0, 44, 68
1, 255595, Note_on_c, 0, 60, 87
1, 255673, Note_off_c, 0, 60, 56
1, 255675, Note_on_c, 0, 50, 85
1, 255711, Note_off_c, 0, 44, 33
1, 255753, Note_on_c, 0, 60, 97
1, 255839, Note_off_c, 0, 60, 63
1, 255888, Note_off_c, 0, 50, 60
1, 255893, Note_on_c, 0, 44, 80
1, 256002, Note_on_c, 0, 60, 88
1, 256015, Note_off_c, 0, 44, 57
1, 256050, Note_off_c, 0, 60, 66
1, 256105, Note_on_c, 0, 54, 93
1, 256107, Note_on_c, 0, 60, 96
1, 256119, Note_on_c, 0, 44, 76
1, 256337, Control_c, 0, 64, 82
1, 256350, Note_on_c, 0, 70, 96
1, 256352, Control_c, 0, 64, 43
1, 256367, Control_c, 0, 64, 0
1, 256382, Control_c, 0, 64, 67
1, 256397, Control_c, 0, 64, 86
1, 256412, Control_c, 0, 64, 127
1, 256425, Note_on_c, 0, 66, 91
1, 256473, Note_off_c, 0, 70, 61
1, 256662, Note_off_c, 0, 60, 44
1, 256673, Note_off_c, 0, 44, 35
1, 256699, Note_off_c, 0, 66, 53
1, 256767, Note_on_c, 0, 69, 99
1, 256805, Note_off_c, 0, 54, 32
1, 256964, Note_off_c, 0, 69, 46
1, 257052, Note_on_c, 0, 57, 85
1, 257059, Note_on_c, 0, 44, 82
1, 257066, Note_on_c, 0, 50, 72
1, 257074, Note_on_c, 0, 68, 96
1, 257080, Note_on_c, 0, 60, 88
1, 257084, Note_on_c, 0, 64, 83
1, 257324, Control_c, 0, 64, 98
1, 257339, Control_c, 0, 64, 68
1, 257354, Control_c, 0, 64, 0
1, 257369, Control_c, 0, 64, 19
1, 257384, Control_c, 0, 64, 68
1, 257399, Control_c, 0, 64, 88
1, 257414, Control_c, 0, 64, 127
1, 257511, Note_off_c, 0, 57, 28
1, 257639, Note_off_c, 0, 50, 45
1, 257656, Note_off_c, 0, 60, 31
1, 257996, Note_on_c, 0, 50, 42
1, 258019, Note_off_c, 0, 44, 42
1, 258177, Note_off_c, 0, 64, 6
1, 258193, Note_on_c, 0, 60, 44
1, 258272, Note_off_c, 0, 68, 53
1, 258296, Note_off_c, 0, 50, 23
1, 258346, Note_on_c, 0, 44, 44
1, 258387, Note_off_c, 0, 60, 37
1, 258559, Note_on_c, 0, 50, 50
1, 258604, Note_off_c, 0, 44, 42
1, 258656, Note_on_c, 0, 60, 60
1, 258695, Note_off_c, 0, 60, 62
1, 258823, Note_off_c, 0, 50, 35
1, 258871, Note_on_c, 0, 44, 51
1, 258979, Note_on_c, 0, 60, 64
1, 259006, Note_off_c, 0, 60, 67
1, 259084, Note_on_c, 0, 50, 54
1, 259089, Note_on_c, 0, 60, 61
1, 259094, Note_off_c, 0, 44, 25
1, 259128, Note_off_c, 0, 60, 65
1, 259175, Note_off_c, 0, 50, 59
1, 259205, Note_on_c, 0, 60, 67
1, 259233, Note_off_c, 0, 60, 66
1, 259292, Note_on_c, 0, 44, 57
1, 259315, Note_on_c, 0, 60, 69
1, 259329, Note_off_c, 0, 44, 60
1, 259339, Note_off_c, 0, 60, 69
1, 259536, Note_on_c, 0, 54, 60
1, 259554, Note_on_c, 0, 44, 46
1, 259674, Control_c, 0, 64, 119
1, 259689, Control_c, 0, 64, 114
1, 259704, Control_c, 0, 64, 111
1, 259718, Control_c, 0, 64, 107
1, 259733, Control_c, 0, 64, 103
1, 259749, Control_c, 0, 64, 99
1, 259764, Control_c, 0, 64, 94
1, 259779, Control_c, 0, 64, 89
1, 259794, Control_c, 0, 64, 83
1, 259799, Note_on_c, 0, 70, 60
1, 259809, Control_c, 0, 64, 76
1, 259816, Note_on_c, 0, 60, 40
1, 259823, Control_c, 0, 64, 70
1, 259838, Control_c, 0, 64, 63
1, 259853, Control_c, 0, 64, 21
1, 259868, Control_c, 0, 64, 0
1, 259878, Note_off_c, 0, 70, 59
1, 259898, Note_on_c, 0, 66, 51
1, 259941, Control_c, 0, 64, 56
1, 259956, Control_c, 0, 64, 69
1, 259971, Control_c, 0, 64, 81
1, 259986, Control_c, 0, 64, 96
1, 260001, Control_c, 0, 64, 127
1, 260006, Note_off_c, 0, 54, 57
1, 260155, Note_on_c, 0, 69, 42
1, 260164, Note_off_c, 0, 44, 42
1, 260200, Note_off_c, 0, 66, 42
1, 260210, Note_off_c, 0, 69, 57
1, 260234, Note_off_c, 0, 60, 41
1, 260308, Note_on_c, 0, 50, 35
1, 260335, Note_on_c, 0, 45, 29
1, 260452, Control_c, 0, 64, 106
1, 260466, Control_c, 0, 64, 86
1, 260481, Control_c, 0, 64, 68
1, 260496, Control_c, 0, 64, 0
1, 260519, Note_on_c, 0, 68, 39
1, 260526, Note_on_c, 0, 60, 34
1, 260526, Control_c, 0, 64, 30
1, 260542, Control_c, 0, 64, 64
1, 260557, Control_c, 0, 64, 73
1, 260571, Control_c, 0, 64, 85
1, 260575, Note_off_c, 0, 68, 57
1, 260586, Control_c, 0, 64, 102
1, 260601, Control_c, 0, 64, 127
1, 260615, Note_on_c, 0, 64, 48
1, 260708, Note_off_c, 0, 45, 42
1, 260812, Note_on_c, 0, 67, 50
1, 260843, Note_off_c, 0, 64, 42
1, 260846, Note_off_c, 0, 67, 64
1, 260897, Note_off_c, 0, 60, 45
1, 260928, Note_on_c, 0, 54, 51
1, 260940, Note_on_c, 0, 44, 43
1, 260976, Note_off_c, 0, 50, 46
1, 261023, Control_c, 0, 64, 97
1, 261038, Control_c, 0, 64, 80
1, 261053, Control_c, 0, 64, 72
1, 261068, Control_c, 0, 64, 74
1, 261083, Control_c, 0, 64, 80
1, 261097, Control_c, 0, 64, 99
1, 261100, Note_on_c, 0, 70, 56
1, 261110, Note_on_c, 0, 60, 45
1, 261112, Control_c, 0, 64, 127
1, 261190, Note_off_c, 0, 70, 59
1, 261196, Note_on_c, 0, 66, 61
1, 261232, Note_off_c, 0, 54, 62
1, 261360, Note_off_c, 0, 44, 40
1, 261385, Note_on_c, 0, 69, 53
1, 261417, Note_off_c, 0, 66, 36
1, 261426, Note_off_c, 0, 69, 58
1, 261435, Note_off_c, 0, 60, 43
1, 261501, Note_on_c, 0, 50, 50
1, 261509, Note_on_c, 0, 45, 48
1, 261565, Control_c, 0, 64, 89
1, 261580, Control_c, 0, 64, 64
1, 261594, Control_c, 0, 64, 0
1, 261624, Control_c, 0, 64, 47
1, 261639, Control_c, 0, 64, 67
1, 261654, Control_c, 0, 64, 88
1, 261655, Note_on_c, 0, 68, 60
1, 261660, Note_on_c, 0, 60, 48
1, 261668, Control_c, 0, 64, 127
1, 261712, Note_off_c, 0, 50, 64
1, 261712, Note_off_c, 0, 45, 57
1, 261729, Note_off_c, 0, 68, 58
1, 261766, Note_on_c, 0, 64, 55
1, 261784, Note_off_c, 0, 60, 0
1, 261784, Note_on_c, 0, 60, 3
1, 261891, Note_off_c, 0, 64, 38
1, 261905, Note_on_c, 0, 67, 59
1, 261934, Note_off_c, 0, 67, 64
1, 261939, Note_off_c, 0, 60, 41
1, 261950, Control_c, 0, 64, 93
1, 261953, Note_on_c, 0, 44, 53
1, 261965, Control_c, 0, 64, 69
1, 261980, Control_c, 0, 64, 58
1, 261994, Control_c, 0, 64, 64
1, 262000, Note_off_c, 0, 44, 51
1, 262009, Control_c, 0, 64, 71
1, 262015, Note_on_c, 0, 54, 56
1, 262024, Control_c, 0, 64, 85
1, 262038, Control_c, 0, 64, 127
1, 262088, Note_on_c, 0, 60, 59
1, 262088, Note_off_c, 0, 54, 64
1, 262112, Control_c, 0, 64, 92
1, 262122, Note_off_c, 0, 60, 65
1, 262127, Control_c, 0, 64, 79
1, 262143, Control_c, 0, 64, 80
1, 262158, Control_c, 0, 64, 89
1, 262163, Note_on_c, 0, 74, 79
1, 262173, Control_c, 0, 64, 112
1, 262188, Control_c, 0, 64, 127
1, 262234, Note_off_c, 0, 74, 63
1, 262269, Note_on_c, 0, 70, 71
1, 262305, Note_off_c, 0, 70, 58
1, 262372, Note_on_c, 0, 75, 81
1, 262389, Note_on_c, 0, 66, 54
1, 262411, Note_off_c, 0, 66, 61
1, 262515, Note_on_c, 0, 69, 62
1, 262520, Control_c, 0, 64, 98
1, 262527, Note_on_c, 0, 45, 60
1, 262535, Control_c, 0, 64, 69
1, 262550, Control_c, 0, 64, 0
1, 262561, Note_on_c, 0, 50, 58
1, 262562, Note_off_c, 0, 45, 66
1, 262568, Note_off_c, 0, 69, 59
1, 262579, Control_c, 0, 64, 59
1, 262594, Control_c, 0, 64, 74
1, 262597, Note_off_c, 0, 50, 68
1, 262609, Control_c, 0, 64, 115
1, 262624, Control_c, 0, 64, 127
1, 262631, Note_on_c, 0, 60, 68
1, 262659, Note_off_c, 0, 60, 66
1, 262754, Note_on_c, 0, 70, 75
1, 262779, Note_off_c, 0, 75, 58
1, 262847, Note_off_c, 0, 70, 61
1, 262848, Note_on_c, 0, 74, 80
1, 262857, Note_on_c, 0, 66, 63
1, 262883, Note_off_c, 0, 66, 64
1, 262934, Note_on_c, 0, 44, 63
1, 262965, Control_c, 0, 64, 101
1, 262980, Control_c, 0, 64, 76
1, 262989, Note_on_c, 0, 69, 64
1, 262991, Note_off_c, 0, 44, 60
1, 262995, Control_c, 0, 64, 69
1, 263017, Note_on_c, 0, 54, 60
1, 263018, Control_c, 0, 64, 73
1, 263023, Note_off_c, 0, 69, 69
1, 263033, Control_c, 0, 64, 84
1, 263047, Control_c, 0, 64, 119
1, 263062, Note_off_c, 0, 54, 58
1, 263062, Control_c, 0, 64, 127
1, 263110, Note_on_c, 0, 60, 56
1, 263137, Control_c, 0, 64, 109
1, 263140, Note_off_c, 0, 60, 65
1, 263152, Control_c, 0, 64, 97
1, 263166, Control_c, 0, 64, 96
1, 263181, Control_c, 0, 64, 103
1, 263196, Control_c, 0, 64, 127
1, 263223, Note_off_c, 0, 74, 62
1, 263233, Note_on_c, 0, 75, 83
1, 263375, Note_on_c, 0, 38, 52
1, 263433, Control_c, 0, 64, 90
1, 263447, Control_c, 0, 64, 67
1, 263462, Note_off_c, 0, 38, 61
1, 263462, Control_c, 0, 64, 0
1, 263492, Control_c, 0, 64, 62
1, 263506, Control_c, 0, 64, 73
1, 263521, Control_c, 0, 64, 90
1, 263527, Note_off_c, 0, 75, 47
1, 263536, Control_c, 0, 64, 127
1, 263553, Note_on_c, 0, 78, 78
1, 263604, Note_on_c, 0, 54, 45
1, 263634, Note_off_c, 0, 54, 64
1, 263685, Note_on_c, 0, 70, 50
1, 263821, Note_off_c, 0, 78, 46
1, 263826, Note_on_c, 0, 66, 51
1, 263833, Note_on_c, 0, 60, 45
1, 263888, Note_off_c, 0, 70, 41
1, 263946, Note_on_c, 0, 80, 60
1, 263974, Control_c, 0, 64, 107
1, 263977, Note_on_c, 0, 77, 44
1, 263989, Control_c, 0, 64, 88
1, 264004, Control_c, 0, 64, 81
1, 264019, Control_c, 0, 64, 81
1, 264034, Note_off_c, 0, 66, 34
1, 264034, Control_c, 0, 64, 87
1, 264035, Note_off_c, 0, 77, 40
1, 264049, Control_c, 0, 64, 99
1, 264063, Control_c, 0, 64, 127
1, 264096, Note_on_c, 0, 75, 49
1, 264156, Note_off_c, 0, 75, 51
1, 264197, Note_on_c, 0, 72, 41
1, 264240, Note_on_c, 0, 69, 46
1, 264244, Note_off_c, 0, 72, 46
1, 264283, Note_off_c, 0, 69, 63
1, 264350, Note_on_c, 0, 77, 39
1, 264396, Note_off_c, 0, 77, 48
1, 264435, Note_on_c, 0, 75, 48
1, 264493, Note_off_c, 0, 75, 49
1, 264536, Note_on_c, 0, 72, 41
1, 264583, Note_off_c, 0, 72, 45
1, 264588, Note_on_c, 0, 70, 33
1, 264636, Note_off_c, 0, 70, 55
1, 264785, Note_on_c, 0, 66, 43
1, 264796, Note_off_c, 0, 80, 25
1, 264860, Note_on_c, 0, 78, 53
1, 264958, Note_off_c, 0, 66, 35
1, 264994, Poly_aftertouch_c, 0, 77, 127
1, 265036, Note_on_c, 0, 75, 39
1, 265060, Note_on_c, 0, 69, 21
1, 265102, Note_off_c, 0, 69, 52
1, 265129, Note_off_c, 0, 60, 41
1, 265182, Note_on_c, 0, 72, 33
1, 265215, Note_off_c, 0, 78, 42
1, 265216, Poly_aftertouch_c, 0, 77, 0
1, 265218, Note_off_c, 0, 72, 51
1, 265229, Note_off_c, 0, 75, 43
1, 265323, Control_c, 0, 64, 101
1, 265339, Note_on_c, 0, 54, 41
1, 265339, Control_c, 0, 64, 73
1, 265354, Control_c, 0, 64, 0
1, 265413, Control_c, 0, 64, 62
1, 265428, Control_c, 0, 64, 75
1, 265442, Control_c, 0, 64, 97
1, 265457, Control_c, 0, 64, 127
1, 265471, Note_off_c, 0, 54, 48
1, 265503, Note_on_c, 0, 44, 37
1, 265557, Note_off_c, 0, 44, 54
1, 265603, Note_on_c, 0, 70, 38
1, 265623, Note_on_c, 0, 60, 16
1, 265650, Note_off_c, 0, 70, 58
1, 265674, Note_on_c, 0, 38, 16
1, 265694, Note_on_c, 0, 66, 29
1, 265742, Note_off_c, 0, 66, 45
1, 265764, Note_off_c, 0, 38, 0
1, 265852, Note_on_c, 0, 44, 36
1, 265855, Poly_aftertouch_c, 0, 38, 0
1, 265959, Note_on_c, 0, 69, 51
1, 265997, Note_off_c, 0, 69, 65
1, 266039, Note_off_c, 0, 60, 45
1, 266057, Note_off_c, 0, 44, 34
1, 266094, Note_on_c, 0, 38, 41
1, 266236, Note_on_c, 0, 51, 58
1, 266258, Note_off_c, 0, 38, 41
1, 266264, Note_off_c, 0, 51, 65
1, 266291, Note_on_c, 0, 44, 32
1, 266359, Note_off_c, 0, 44, 41
1, 266379, Poly_aftertouch_c, 0, 51, 127
1, 266386, Note_on_c, 0, 38, 44
1, 266423, Note_off_c, 0, 38, 56
1, 266426, Poly_aftertouch_c, 0, 51, 0
1, 266490, Note_on_c, 0, 51, 42
1, 266519, Note_off_c, 0, 51, 57
1, 266576, Control_c, 0, 64, 111
1, 266590, Control_c, 0, 64, 75
1, 266596, Note_on_c, 0, 54, 58
1, 266605, Control_c, 0, 64, 0
1, 266649, Control_c, 0, 64, 54
1, 266664, Control_c, 0, 64, 70
1, 266679, Control_c, 0, 64, 89
1, 266694, Control_c, 0, 64, 127
1, 266709, Note_off_c, 0, 54, 61
1, 266765, Note_on_c, 0, 44, 49
1, 266830, Note_on_c, 0, 70, 54
1, 266834, Note_off_c, 0, 44, 47
1, 266839, Note_on_c, 0, 60, 45
1, 266871, Note_off_c, 0, 70, 59
1, 266924, Note_on_c, 0, 66, 42
1, 266928, Note_on_c, 0, 38, 40
1, 267124, Note_on_c, 0, 44, 38
1, 267132, Note_off_c, 0, 38, 41
1, 267156, Note_on_c, 0, 69, 42
1, 267156, Note_off_c, 0, 66, 38
1, 267185, Note_off_c, 0, 69, 55
1, 267221, Note_off_c, 0, 60, 49
1, 267334, Note_on_c, 0, 38, 35
1, 267359, Note_off_c, 0, 44, 40
1, 267435, Note_on_c, 0, 51, 56
1, 267462, Note_off_c, 0, 51, 65
1, 267491, Note_on_c, 0, 44, 44
1, 267491, Note_off_c, 0, 38, 25
1, 267549, Note_on_c, 0, 51, 54
1, 267570, Note_off_c, 0, 44, 48
1, 267571, Note_off_c, 0, 51, 63
1, 267644, Note_on_c, 0, 38, 38
1, 267683, Note_off_c, 0, 38, 51
1, 267734, Note_on_c, 0, 51, 39
1, 267771, Note_off_c, 0, 51, 50
1, 267852, Control_c, 0, 64, 84
1, 267867, Control_c, 0, 64, 50
1, 267881, Control_c, 0, 64, 0
1, 267941, Control_c, 0, 64, 36
1, 267943, Note_on_c, 0, 60, 41
1, 267955, Control_c, 0, 64, 66
1, 267970, Control_c, 0, 64, 78
1, 267985, Control_c, 0, 64, 92
1, 268000, Control_c, 0, 64, 112
1, 268015, Control_c, 0, 64, 127
1, 268045, Note_off_c, 0, 60, 33
1, 268124, Note_on_c, 0, 54, 29
1, 268178, Note_off_c, 0, 54, 54
1, 268196, Note_on_c, 0, 74, 49
1, 268233, Note_on_c, 0, 44, 41
1, 268245, Note_off_c, 0, 74, 61
1, 268285, Note_off_c, 0, 44, 56
1, 268302, Note_on_c, 0, 70, 48
1, 268336, Note_off_c, 0, 70, 62
1, 268416, Note_on_c, 0, 75, 62
1, 268431, Note_on_c, 0, 66, 46
1, 268480, Note_off_c, 0, 66, 44
1, 268586, Control_c, 0, 64, 105
1, 268587, Note_on_c, 0, 69, 52
1, 268600, Note_on_c, 0, 45, 47
1, 268601, Control_c, 0, 64, 76
1, 268612, Note_off_c, 0, 69, 61
1, 268616, Control_c, 0, 64, 65
1, 268631, Control_c, 0, 64, 67
1, 268631, Note_off_c, 0, 45, 56
1, 268646, Control_c, 0, 64, 73
1, 268655, Note_on_c, 0, 50, 24
1, 268660, Control_c, 0, 64, 84
1, 268675, Control_c, 0, 64, 112
1, 268690, Control_c, 0, 64, 127
1, 268698, Note_off_c, 0, 50, 58
1, 268703, Note_on_c, 0, 60, 47
1, 268731, Note_off_c, 0, 60, 56
1, 268749, Control_c, 0, 64, 112
1, 268764, Control_c, 0, 64, 109
1, 268778, Control_c, 0, 64, 110
1, 268793, Control_c, 0, 64, 127
1, 268822, Note_on_c, 0, 70, 65
1, 268866, Note_off_c, 0, 75, 42
1, 268901, Note_off_c, 0, 70, 59
1, 268912, Note_on_c, 0, 74, 72
1, 268918, Note_on_c, 0, 66, 60
1, 268941, Note_off_c, 0, 66, 62
1, 269068, Note_on_c, 0, 69, 54
1, 269095, Note_off_c, 0, 69, 63
1, 269141, Control_c, 0, 64, 113
1, 269152, Note_on_c, 0, 73, 78
1, 269156, Control_c, 0, 64, 78
1, 269157, Note_on_c, 0, 61, 56
1, 269159, Note_on_c, 0, 48, 47
1, 269160, Note_on_c, 0, 54, 54
1, 269161, Note_off_c, 0, 74, 59
1, 269171, Control_c, 0, 64, 0
1, 269215, Control_c, 0, 64, 58
1, 269230, Control_c, 0, 64, 71
1, 269245, Control_c, 0, 64, 89
1, 269260, Control_c, 0, 64, 127
1, 269314, Note_off_c, 0, 48, 41
1, 269325, Note_off_c, 0, 54, 61
1, 269343, Note_on_c, 0, 70, 64
1, 269362, Note_off_c, 0, 61, 61
1, 269403, Note_off_c, 0, 70, 59
1, 269411, Note_on_c, 0, 66, 66
1, 269437, Note_off_c, 0, 66, 65
1, 269543, Note_on_c, 0, 69, 53
1, 269568, Note_off_c, 0, 69, 62
1, 269616, Control_c, 0, 64, 79
1, 269619, Note_on_c, 0, 64, 65
1, 269631, Control_c, 0, 64, 0
1, 269635, Note_on_c, 0, 57, 43
1, 269647, Note_on_c, 0, 51, 44
1, 269675, Control_c, 0, 64, 55
1, 269690, Control_c, 0, 64, 70
1, 269705, Control_c, 0, 64, 89
1, 269706, Note_off_c, 0, 64, 56
1, 269718, Note_off_c, 0, 57, 51
1, 269720, Control_c, 0, 64, 127
1, 269784, Note_off_c, 0, 51, 63
1, 269792, Note_on_c, 0, 68, 64
1, 269853, Note_off_c, 0, 68, 58
1, 269863, Note_off_c, 0, 73, 37
1, 269864, Note_on_c, 0, 64, 53
1, 270100, Note_on_c, 0, 72, 53
1, 270118, Note_on_c, 0, 67, 44
1, 270182, Note_off_c, 0, 67, 56
1, 270190, Note_off_c, 0, 72, 58
1, 270234, Note_off_c, 0, 64, 42
1, 270396, Note_on_c, 0, 52, 46
1, 270455, Control_c, 0, 64, 102
1, 270470, Control_c, 0, 64, 84
1, 270484, Control_c, 0, 64, 70
1, 270506, Control_c, 0, 64, 23
1, 270521, Control_c, 0, 64, 0
1, 270594, Note_on_c, 0, 45, 36
1, 270674, Note_on_c, 0, 60, 37
1, 270687, Note_on_c, 0, 55, 32
1, 270713, Control_c, 0, 64, 17
1, 270728, Control_c, 0, 64, 62
1, 270743, Control_c, 0, 64, 70
1, 270757, Control_c, 0, 64, 79
1, 270772, Control_c, 0, 64, 92
1, 270779, Note_off_c, 0, 45, 41
1, 270783, Note_on_c, 0, 39, 30
1, 270787, Control_c, 0, 64, 113
1, 270801, Control_c, 0, 64, 127
1, 270863, Note_off_c, 0, 55, 43
1, 270872, Note_off_c, 0, 60, 41
1, 270920, Note_on_c, 0, 45, 47
1, 270938, Note_off_c, 0, 39, 41
1, 271004, Note_on_c, 0, 60, 47
1, 271045, Note_off_c, 0, 60, 64
1, 271146, Note_off_c, 0, 45, 39
1, 271182, Note_on_c, 0, 39, 42
1, 271257, Note_on_c, 0, 60, 58
1, 271278, Note_off_c, 0, 60, 66
1, 271343, Note_on_c, 0, 60, 60
1, 271345, Note_off_c, 0, 39, 40
1, 271351, Note_on_c, 0, 45, 53
1, 271368, Note_off_c, 0, 60, 63
1, 271388, Control_c, 0, 64, 119
1, 271403, Control_c, 0, 64, 114
1, 271418, Control_c, 0, 64, 110
1, 271432, Control_c, 0, 64, 108
1, 271447, Control_c, 0, 64, 106
1, 271462, Control_c, 0, 64, 104
1, 271467, Note_on_c, 0, 39, 44
1, 271477, Control_c, 0, 64, 102
1, 271478, Note_off_c, 0, 45, 36
1, 271492, Control_c, 0, 64, 101
1, 271506, Control_c, 0, 64, 99
1, 271519, Note_on_c, 0, 60, 57
1, 271521, Control_c, 0, 64, 98
1, 271536, Control_c, 0, 64, 97
1, 271546, Note_off_c, 0, 52, 0
1, 271551, Note_off_c, 0, 60, 65
1, 271551, Control_c, 0, 64, 96
1, 271561, Note_off_c, 0, 39, 53
1, 271566, Control_c, 0, 64, 95
1, 271580, Control_c, 0, 64, 94
1, 271582, Poly_aftertouch_c, 0, 52, 127
1, 271595, Control_c, 0, 64, 92
1, 271600, Note_on_c, 0, 60, 51
1, 271610, Control_c, 0, 64, 91
1, 271624, Control_c, 0, 64, 90
1, 271630, Note_off_c, 0, 60, 65
1, 271639, Control_c, 0, 64, 88
1, 271654, Control_c, 0, 64, 87
1, 271669, Control_c, 0, 64, 87
1, 271684, Note_on_c, 0, 57, 49
1, 271684, Control_c, 0, 64, 86
1, 271698, Control_c, 0, 64, 86
1, 271710, Note_on_c, 0, 45, 51
1, 271713, Control_c, 0, 64, 85
1, 271729, Control_c, 0, 64, 85
1, 271731, Note_off_c, 0, 57, 59
1, 271744, Control_c, 0, 64, 84
1, 271755, Note_on_c, 0, 61, 60
1, 271759, Control_c, 0, 64, 83
1, 271774, Control_c, 0, 64, 83
1, 271815, Note_off_c, 0, 61, 61
1, 271847, Control_c, 0, 64, 81
1, 271862, Control_c, 0, 64, 75
1, 271868, Note_on_c, 0, 39, 47
1, 271868, Note_on_c, 0, 60, 51
1, 271868, Note_off_c, 0, 45, 35
1, 271877, Control_c, 0, 64, 66
1, 271892, Control_c, 0, 64, 47
1, 271907, Control_c, 0, 64, 44
1, 271922, Control_c, 0, 64, 63
1, 271936, Control_c, 0, 64, 70
1, 271951, Control_c, 0, 64, 80
1, 271966, Control_c, 0, 64, 97
1, 271981, Control_c, 0, 64, 127
1, 272004, Note_off_c, 0, 60, 62
1, 272014, Note_on_c, 0, 45, 46
1, 272041, Note_off_c, 0, 39, 34
1, 272051, Poly_aftertouch_c, 0, 52, 0
1, 272157, Note_off_c, 0, 45, 35
1, 272226, Control_c, 0, 64, 100
1, 272241, Control_c, 0, 64, 80
1, 272255, Control_c, 0, 64, 61
1, 272270, Control_c, 0, 64, 0
1, 272302, Note_on_c, 0, 57, 40
1, 272308, Note_on_c, 0, 72, 56
1, 272329, Note_on_c, 0, 67, 38
1, 272455, Note_on_c, 0, 51, 40
1, 272530, Note_on_c, 0, 73, 77
1, 272539, Note_off_c, 0, 72, 61
1, 272545, Note_off_c, 0, 67, 46
1, 272552, Control_c, 0, 64, 23
1, 272567, Control_c, 0, 64, 65
1, 272582, Control_c, 0, 64, 81
1, 272597, Control_c, 0, 64, 127
1, 272689, Note_off_c, 0, 57, 57
1, 272698, Note_on_c, 0, 56, 51
1, 272719, Note_off_c, 0, 73, 53
1, 272735, Note_off_c, 0, 56, 62
1, 272759, Note_off_c, 0, 51, 47
1, 272762, Note_on_c, 0, 74, 67
1, 272779, Note_on_c, 0, 66, 52
1, 272793, Note_off_c, 0, 74, 66
1, 272801, Note_off_c, 0, 66, 59
1, 272884, Control_c, 0, 64, 98
1, 272899, Control_c, 0, 64, 74
1, 272914, Control_c, 0, 64, 0
1, 273027, Note_on_c, 0, 63, 35
1, 273072, Note_on_c, 0, 75, 44
1, 273092, Control_c, 0, 64, 40
1, 273107, Control_c, 0, 64, 65
1, 273122, Control_c, 0, 64, 75
1, 273137, Control_c, 0, 64, 89
1, 273151, Control_c, 0, 64, 127
1, 273225, Note_off_c, 0, 63, 41
1, 273239, Note_on_c, 0, 57, 32
1, 273275, Note_off_c, 0, 57, 56
1, 273328, Note_off_c, 0, 75, 53
1, 273346, Note_on_c, 0, 78, 55
1, 273410, Note_on_c, 0, 47, 42
1, 273448, Note_off_c, 0, 47, 63
1, 273469, Note_off_c, 0, 78, 47
1, 273472, Note_on_c, 0, 73, 47
1, 273561, Note_off_c, 0, 73, 59
1, 273579, Note_on_c, 0, 80, 60
1, 273595, Note_on_c, 0, 69, 44
1, 273669, Note_off_c, 0, 69, 38
1, 273752, Control_c, 0, 64, 87
1, 273760, Note_on_c, 0, 48, 49
1, 273767, Control_c, 0, 64, 70
1, 273782, Control_c, 0, 64, 67
1, 273790, Note_off_c, 0, 48, 59
1, 273797, Control_c, 0, 64, 72
1, 273799, Note_on_c, 0, 72, 27
1, 273811, Control_c, 0, 64, 81
1, 273813, Note_on_c, 0, 53, 48
1, 273826, Control_c, 0, 64, 110
1, 273834, Note_off_c, 0, 72, 31
1, 273841, Control_c, 0, 64, 127
1, 273850, Note_off_c, 0, 53, 64
1, 273877, Note_on_c, 0, 63, 65
1, 273897, Note_off_c, 0, 63, 62
1, 274014, Note_on_c, 0, 73, 60
1, 274051, Note_off_c, 0, 73, 64
1, 274051, Note_off_c, 0, 80, 54
1, 274067, Note_on_c, 0, 78, 69
1, 274136, Note_on_c, 0, 69, 35
1, 274167, Note_off_c, 0, 78, 50
1, 274189, Note_off_c, 0, 69, 44
1, 274208, Note_on_c, 0, 72, 62
1, 274256, Note_off_c, 0, 72, 55
1, 274279, Control_c, 0, 64, 93
1, 274283, Note_on_c, 0, 77, 77
1, 274294, Control_c, 0, 64, 66
1, 274309, Control_c, 0, 64, 0
1, 274320, Note_on_c, 0, 64, 49
1, 274322, Note_on_c, 0, 51, 51
1, 274327, Note_on_c, 0, 57, 42
1, 274338, Control_c, 0, 64, 17
1, 274353, Control_c, 0, 64, 63
1, 274368, Control_c, 0, 64, 73
1, 274383, Control_c, 0, 64, 89
1, 274397, Control_c, 0, 64, 127
1, 274407, Note_off_c, 0, 51, 60
1, 274411, Note_off_c, 0, 57, 58
1, 274457, Note_off_c, 0, 77, 61
1, 274463, Note_on_c, 0, 76, 77
1, 274474, Note_off_c, 0, 64, 63
1, 274517, Note_on_c, 0, 73, 78
1, 274560, Note_off_c, 0, 73, 58
1, 274592, Note_on_c, 0, 69, 57
1, 274613, Note_off_c, 0, 69, 63
1, 274709, Control_c, 0, 64, 104
1, 274717, Note_on_c, 0, 67, 68
1, 274723, Control_c, 0, 64, 83
1, 274725, Note_on_c, 0, 54, 60
1, 274734, Note_on_c, 0, 60, 48
1, 274738, Control_c, 0, 64, 76
1, 274741, Note_off_c, 0, 67, 54
1, 274753, Control_c, 0, 64, 79
1, 274764, Note_off_c, 0, 76, 0
1, 274764, Note_on_c, 0, 76, 20
1, 274768, Control_c, 0, 64, 86
1, 274771, Note_on_c, 0, 72, 42
1, 274771, Note_off_c, 0, 60, 64
1, 274782, Control_c, 0, 64, 106
1, 274792, Note_off_c, 0, 54, 64
1, 274797, Control_c, 0, 64, 127
1, 274798, Note_off_c, 0, 72, 56
1, 274916, Note_on_c, 0, 71, 74
1, 274961, Note_off_c, 0, 71, 61
1, 275016, Note_on_c, 0, 67, 48
1, 275038, Note_off_c, 0, 67, 60
1, 275150, Note_on_c, 0, 75, 77
1, 275165, Note_on_c, 0, 70, 64
1, 275167, Note_off_c, 0, 76, 51
1, 275190, Note_off_c, 0, 70, 65
1, 275203, Note_off_c, 0, 75, 61
1, 275309, Control_c, 0, 64, 114
1, 275324, Control_c, 0, 64, 106
1, 275339, Control_c, 0, 64, 100
1, 275353, Control_c, 0, 64, 94
1, 275368, Control_c, 0, 64, 89
1, 275373, Note_on_c, 0, 55, 52
1, 275383, Control_c, 0, 64, 84
1, 275397, Control_c, 0, 64, 78
1, 275412, Control_c, 0, 64, 71
1, 275427, Control_c, 0, 64, 65
1, 275442, Control_c, 0, 64, 59
1, 275457, Control_c, 0, 64, 56
1, 275502, Control_c, 0, 64, 55
1, 275517, Control_c, 0, 64, 54
1, 275531, Control_c, 0, 64, 49
1, 275546, Note_on_c, 0, 48, 43
1, 275546, Control_c, 0, 64, 43
1, 275561, Control_c, 0, 64, 38
1, 275576, Control_c, 0, 64, 36
1, 275612, Note_on_c, 0, 63, 44
1, 275620, Control_c, 0, 64, 38
1, 275625, Note_on_c, 0, 58, 37
1, 275635, Control_c, 0, 64, 50
1, 275650, Control_c, 0, 64, 61
1, 275665, Control_c, 0, 64, 66
1, 275679, Control_c, 0, 64, 72
1, 275694, Control_c, 0, 64, 80
1, 275706, Note_off_c, 0, 48, 35
1, 275709, Control_c, 0, 64, 89
1, 275718, Note_on_c, 0, 42, 46
1, 275725, Control_c, 0, 64, 100
1, 275747, Control_c, 0, 64, 107
1, 275762, Control_c, 0, 64, 110
1, 275776, Control_c, 0, 64, 114
1, 275791, Control_c, 0, 64, 124
1, 275806, Note_off_c, 0, 63, 38
1, 275806, Control_c, 0, 64, 127
1, 275815, Note_off_c, 0, 58, 30
1, 275897, Note_off_c, 0, 42, 42
1, 275903, Note_on_c, 0, 48, 53
1, 275921, Note_off_c, 0, 55, 0
1, 275958, Poly_aftertouch_c, 0, 55, 127
1, 275993, Note_on_c, 0, 63, 55
1, 276021, Note_off_c, 0, 63, 64
1, 276139, Poly_aftertouch_c, 0, 55, 0
1, 276151, Note_off_c, 0, 48, 35
1, 276175, Note_on_c, 0, 42, 48
1, 276175, Poly_aftertouch_c, 0, 55, 127
1, 276220, Control_c, 0, 64, 121
1, 276226, Note_on_c, 0, 63, 61
1, 276235, Control_c, 0, 64, 119
1, 276247, Note_off_c, 0, 42, 54
1, 276250, Control_c, 0, 64, 120
1, 276257, Note_off_c, 0, 63, 65
1, 276265, Control_c, 0, 64, 126
1, 276280, Control_c, 0, 64, 127
1, 276309, Control_c, 0, 64, 113
1, 276317, Note_on_c, 0, 63, 47
1, 276324, Control_c, 0, 64, 99
1, 276339, Control_c, 0, 64, 88
1, 276339, Note_on_c, 0, 48, 54
1, 276344, Note_off_c, 0, 63, 56
1, 276354, Control_c, 0, 64, 86
1, 276369, Control_c, 0, 64, 88
1, 276384, Control_c, 0, 64, 94
1, 276399, Control_c, 0, 64, 106
1, 276413, Control_c, 0, 64, 127
1, 276427, Note_off_c, 0, 48, 59
1, 276453, Note_on_c, 0, 42, 59
1, 276504, Note_off_c, 0, 42, 59
1, 276514, Note_on_c, 0, 63, 64
1, 276537, Note_off_c, 0, 63, 62
1, 276574, Note_on_c, 0, 63, 65
1, 276627, Note_off_c, 0, 63, 55
1, 276629, Control_c, 0, 64, 119
1, 276643, Control_c, 0, 64, 113
1, 276658, Control_c, 0, 64, 109
1, 276661, Note_on_c, 0, 60, 56
1, 276673, Control_c, 0, 64, 104
1, 276685, Note_off_c, 0, 60, 61
1, 276688, Control_c, 0, 64, 100
1, 276691, Note_on_c, 0, 48, 60
1, 276703, Control_c, 0, 64, 96
1, 276718, Control_c, 0, 64, 92
1, 276727, Note_on_c, 0, 64, 63
1, 276733, Control_c, 0, 64, 89
1, 276748, Control_c, 0, 64, 88
1, 276763, Control_c, 0, 64, 87
1, 276807, Control_c, 0, 64, 84
1, 276813, Note_off_c, 0, 64, 59
1, 276822, Control_c, 0, 64, 72
1, 276826, Note_off_c, 0, 48, 29
1, 276831, Note_on_c, 0, 42, 54
1, 276837, Control_c, 0, 64, 0
1, 276837, Note_on_c, 0, 63, 62
1, 276896, Control_c, 0, 64, 35
1, 276911, Control_c, 0, 64, 66
1, 276925, Control_c, 0, 64, 79
1, 276935, Note_off_c, 0, 63, 61
1, 276940, Control_c, 0, 64, 96
1, 276941, Note_off_c, 0, 42, 53
1, 276954, Note_on_c, 0, 48, 57
1, 276955, Control_c, 0, 64, 127
1, 276971, Poly_aftertouch_c, 0, 55, 0
1, 277066, Note_off_c, 0, 48, 61
1, 277073, Note_on_c, 0, 42, 49
1, 277108, Note_off_c, 0, 42, 52
1, 277186, Note_on_c, 0, 60, 66
1, 277228, Note_on_c, 0, 75, 73
1, 277255, Note_on_c, 0, 70, 57
1, 277273, Control_c, 0, 64, 102
1, 277288, Control_c, 0, 64, 77
1, 277303, Control_c, 0, 64, 0
1, 277338, Note_on_c, 0, 54, 55
1, 277348, Control_c, 0, 64, 11
1, 277363, Control_c, 0, 64, 65
1, 277378, Control_c, 0, 64, 81
1, 277381, Note_off_c, 0, 70, 26
1, 277392, Control_c, 0, 64, 117
1, 277407, Control_c, 0, 64, 127
1, 277418, Note_off_c, 0, 75, 60
1, 277424, Note_on_c, 0, 76, 84
1, 277444, Note_off_c, 0, 60, 0
1, 277481, Poly_aftertouch_c, 0, 60, 127
1, 277496, Note_off_c, 0, 54, 52
1, 277518, Poly_aftertouch_c, 0, 60, 0
1, 277566, Note_on_c, 0, 77, 82
1, 277577, Note_on_c, 0, 69, 61
1, 277584, Note_off_c, 0, 76, 60
1, 277596, Note_off_c, 0, 69, 65
1, 277610, Note_off_c, 0, 77, 63
1, 277640, Note_on_c, 0, 50, 64
1, 277668, Note_off_c, 0, 50, 66
1, 277706, Note_on_c, 0, 60, 62
1, 277734, Control_c, 0, 64, 109
1, 277748, Control_c, 0, 64, 95
1, 277763, Control_c, 0, 64, 80
1, 277772, Note_off_c, 0, 60, 37
1, 277777, Note_on_c, 0, 66, 66
1, 277778, Control_c, 0, 64, 64
1, 277793, Control_c, 0, 64, 0
1, 277797, Note_off_c, 0, 66, 66
1, 277852, Note_on_c, 0, 76, 63
1, 277917, Note_off_c, 0, 76, 57
1, 277927, Note_on_c, 0, 83, 58
1, 278064, Note_on_c, 0, 72, 41
1, 278142, Control_c, 0, 64, 41
1, 278149, Note_off_c, 0, 72, 42
1, 278157, Control_c, 0, 64, 65
1, 278171, Control_c, 0, 64, 73
1, 278173, Note_on_c, 0, 66, 47
1, 278186, Control_c, 0, 64, 81
1, 278201, Control_c, 0, 64, 90
1, 278209, Note_off_c, 0, 66, 64
1, 278215, Control_c, 0, 64, 93
1, 278230, Control_c, 0, 64, 94
1, 278245, Control_c, 0, 64, 95
1, 278246, Note_on_c, 0, 78, 56
1, 278253, Note_off_c, 0, 83, 43
1, 278321, Note_on_c, 0, 76, 53
1, 278322, Note_off_c, 0, 78, 45
1, 278344, Note_off_c, 0, 76, 59
1, 278389, Note_on_c, 0, 71, 49
1, 278408, Control_c, 0, 64, 97
1, 278412, Note_off_c, 0, 71, 60
1, 278423, Control_c, 0, 64, 100
1, 278438, Control_c, 0, 64, 98
1, 278441, Note_on_c, 0, 72, 70
1, 278453, Control_c, 0, 64, 81
1, 278465, Note_off_c, 0, 72, 69
1, 278468, Control_c, 0, 64, 38
1, 278483, Control_c, 0, 64, 0
1, 278507, Note_on_c, 0, 54, 81
1, 278518, Note_on_c, 0, 47, 70
1, 278523, Note_on_c, 0, 66, 83
1, 278527, Control_c, 0, 64, 65
1, 278542, Control_c, 0, 64, 84
1, 278545, Note_off_c, 0, 54, 64
1, 278557, Control_c, 0, 64, 127
1, 278567, Note_off_c, 0, 66, 55
1, 278602, Note_on_c, 0, 41, 72
1, 278616, Note_off_c, 0, 47, 62
1, 278646, Note_off_c, 0, 41, 59
1, 278682, Note_on_c, 0, 75, 76
1, 278685, Note_on_c, 0, 62, 75
1, 278701, Note_off_c, 0, 75, 71
1, 278766, Note_on_c, 0, 71, 77
1, 278862, Note_off_c, 0, 71, 63
1, 278872, Note_on_c, 0, 74, 79
1, 278899, Note_off_c, 0, 74, 64
1, 278902, Note_off_c, 0, 62, 0
1, 278935, Control_c, 0, 64, 102
1, 278950, Control_c, 0, 64, 66
1, 278954, Poly_aftertouch_c, 0, 62, 0
1, 278958, Note_on_c, 0, 57, 73
1, 278965, Control_c, 0, 64, 0
1, 278965, Note_on_c, 0, 65, 75
1, 278971, Note_on_c, 0, 50, 61
1, 278992, Note_off_c, 0, 57, 64
1, 278994, Control_c, 0, 64, 27
1, 279009, Control_c, 0, 64, 70
1, 279024, Control_c, 0, 64, 98
1, 279038, Control_c, 0, 64, 127
1, 279041, Note_on_c, 0, 44, 67
1, 279052, Note_off_c, 0, 50, 63
1, 279055, Note_off_c, 0, 65, 59
1, 279072, Note_off_c, 0, 44, 62
1, 279109, Note_on_c, 0, 73, 76
1, 279122, Note_on_c, 0, 62, 59
1, 279138, Note_off_c, 0, 73, 63
1, 279185, Note_on_c, 0, 69, 77
1, 279211, Note_off_c, 0, 62, 57
1, 279246, Control_c, 0, 64, 69
1, 279261, Control_c, 0, 64, 0
1, 279270, Note_off_c, 0, 69, 59
1, 279280, Note_on_c, 0, 72, 73
1, 279302, Note_off_c, 0, 72, 70
1, 279330, Note_on_c, 0, 50, 51
1, 279335, Control_c, 0, 64, 61
1, 279350, Control_c, 0, 64, 74
1, 279359, Note_off_c, 0, 50, 59
1, 279364, Control_c, 0, 64, 81
1, 279379, Control_c, 0, 64, 80
1, 279380, Note_on_c, 0, 60, 53
1, 279394, Control_c, 0, 64, 71
1, 279409, Control_c, 0, 64, 0
1, 279441, Note_on_c, 0, 66, 69
1, 279446, Note_off_c, 0, 60, 63
1, 279461, Note_off_c, 0, 66, 66
1, 279520, Note_on_c, 0, 76, 75
1, 279562, Note_off_c, 0, 76, 59
1, 279588, Note_on_c, 0, 83, 73
1, 279729, Note_on_c, 0, 72, 59
1, 279758, Control_c, 0, 64, 43
1, 279765, Note_off_c, 0, 72, 61
1, 279773, Control_c, 0, 64, 68
1, 279788, Control_c, 0, 64, 81
1, 279803, Control_c, 0, 64, 97
1, 279809, Note_on_c, 0, 66, 59
1, 279818, Control_c, 0, 64, 122
1, 279833, Control_c, 0, 64, 127
1, 279838, Note_off_c, 0, 66, 65
1, 279848, Control_c, 0, 64, 126
1, 279893, Note_on_c, 0, 78, 63
1, 279895, Note_off_c, 0, 83, 44
1, 279922, Control_c, 0, 64, 113
1, 279936, Control_c, 0, 64, 101
1, 279951, Control_c, 0, 64, 94
1, 279966, Control_c, 0, 64, 94
1, 279970, Note_on_c, 0, 76, 65
1, 279976, Note_off_c, 0, 78, 35
1, 279991, Note_off_c, 0, 76, 64
1, 279995, Control_c, 0, 64, 95
1, 280010, Control_c, 0, 64, 99
1, 280025, Control_c, 0, 64, 103
1, 280040, Note_on_c, 0, 71, 40
1, 280040, Control_c, 0, 64, 106
1, 280055, Control_c, 0, 64, 109
1, 280067, Note_off_c, 0, 71, 57
1, 280069, Control_c, 0, 64, 110
1, 280084, Control_c, 0, 64, 106
1, 280099, Control_c, 0, 64, 79
1, 280103, Note_on_c, 0, 72, 51
1, 280114, Control_c, 0, 64, 0
1, 280127, Note_off_c, 0, 72, 59
1, 280167, Note_on_c, 0, 54, 77
1, 280169, Note_on_c, 0, 66, 84
1, 280182, Note_on_c, 0, 47, 61
1, 280188, Control_c, 0, 64, 67
1, 280193, Note_off_c, 0, 54, 69
1, 280203, Control_c, 0, 64, 84
1, 280209, Note_off_c, 0, 66, 59
1, 280217, Control_c, 0, 64, 123
1, 280240, Control_c, 0, 64, 127
1, 280249, Note_on_c, 0, 41, 73
1, 280260, Note_off_c, 0, 47, 56
1, 280282, Note_off_c, 0, 41, 62
1, 280327, Note_on_c, 0, 75, 79
1, 280331, Note_on_c, 0, 62, 82
1, 280344, Note_off_c, 0, 75, 72
1, 280397, Note_on_c, 0, 71, 88
1, 280521, Note_on_c, 0, 74, 87
1, 280524, Note_off_c, 0, 71, 62
1, 280536, Note_off_c, 0, 62, 52
1, 280545, Note_off_c, 0, 74, 66
1, 280581, Control_c, 0, 64, 95
1, 280596, Control_c, 0, 64, 63
1, 280597, Note_on_c, 0, 57, 77
1, 280605, Note_on_c, 0, 50, 68
1, 280605, Note_on_c, 0, 65, 83
1, 280611, Control_c, 0, 64, 0
1, 280635, Note_off_c, 0, 57, 60
1, 280638, Note_off_c, 0, 65, 59
1, 280641, Control_c, 0, 64, 30
1, 280656, Control_c, 0, 64, 66
1, 280671, Control_c, 0, 64, 83
1, 280685, Control_c, 0, 64, 127
1, 280686, Note_off_c, 0, 50, 64
1, 280689, Note_on_c, 0, 44, 68
1, 280725, Note_off_c, 0, 44, 63
1, 280748, Note_on_c, 0, 73, 84
1, 280756, Note_on_c, 0, 62, 67
1, 280799, Note_off_c, 0, 73, 60
1, 280831, Note_on_c, 0, 69, 80
1, 280878, Note_off_c, 0, 62, 47
1, 280917, Note_off_c, 0, 69, 62
1, 280942, Note_on_c, 0, 72, 75
1, 280966, Note_off_c, 0, 72, 66
1, 281018, Control_c, 0, 64, 76
1, 281019, Note_on_c, 0, 57, 92
1, 281026, Note_on_c, 0, 50, 80
1, 281032, Control_c, 0, 64, 0
1, 281033, Note_on_c, 0, 69, 93
1, 281058, Note_off_c, 0, 57, 62
1, 281062, Control_c, 0, 64, 67
1, 281077, Note_off_c, 0, 69, 68
1, 281077, Control_c, 0, 64, 88
1, 281082, Note_off_c, 0, 50, 66
1, 281091, Control_c, 0, 64, 127
1, 281097, Note_on_c, 0, 44, 80
1, 281127, Note_off_c, 0, 44, 68
1, 281162, Note_on_c, 0, 78, 90
1, 281169, Note_on_c, 0, 65, 79
1, 281181, Note_off_c, 0, 78, 68
1, 281194, Note_off_c, 0, 65, 66
1, 281201, Note_on_c, 0, 67, 34
1, 281240, Note_off_c, 0, 67, 50
1, 281243, Note_on_c, 0, 74, 94
1, 281257, Note_on_c, 0, 65, 59
1, 281291, Note_off_c, 0, 65, 50
1, 281362, Note_on_c, 0, 77, 83
1, 281366, Note_off_c, 0, 74, 55
1, 281401, Note_off_c, 0, 77, 65
1, 281404, Note_on_c, 0, 76, 28
1, 281436, Note_on_c, 0, 60, 84
1, 281443, Note_off_c, 0, 76, 54
1, 281447, Note_on_c, 0, 68, 93
1, 281448, Control_c, 0, 64, 77
1, 281451, Note_on_c, 0, 53, 71
1, 281463, Control_c, 0, 64, 0
1, 281484, Note_off_c, 0, 60, 63
1, 281507, Control_c, 0, 64, 56
1, 281522, Control_c, 0, 64, 75
1, 281535, Note_on_c, 0, 47, 67
1, 281537, Control_c, 0, 64, 102
1, 281546, Note_off_c, 0, 68, 61
1, 281552, Control_c, 0, 64, 127
1, 281581, Note_off_c, 0, 53, 63
1, 281596, Note_off_c, 0, 47, 64
1, 281615, Note_on_c, 0, 76, 80
1, 281617, Note_on_c, 0, 65, 66
1, 281679, Note_on_c, 0, 72, 88
1, 281683, Note_off_c, 0, 65, 60
1, 281684, Note_off_c, 0, 76, 66
1, 281739, Note_off_c, 0, 72, 65
1, 281803, Note_on_c, 0, 75, 85
1, 281836, Note_off_c, 0, 75, 68
1, 281876, Note_on_c, 0, 60, 101
1, 281885, Control_c, 0, 64, 75
1, 281887, Note_on_c, 0, 53, 84
1, 281890, Note_on_c, 0, 72, 92
1, 281894, Note_on_c, 0, 74, 92
1, 281900, Control_c, 0, 64, 0
1, 281914, Control_c, 0, 64, 64
1, 281917, Note_on_c, 0, 54, 34
1, 281918, Note_off_c, 0, 54, 127
1, 281923, Note_off_c, 0, 60, 66
1, 281929, Control_c, 0, 64, 91
1, 281933, Note_off_c, 0, 72, 68
1, 281933, Note_off_c, 0, 74, 61
1, 281944, Control_c, 0, 64, 127
1, 281959, Note_on_c, 0, 47, 86
1, 281967, Poly_aftertouch_c, 0, 54, 0
1, 281979, Note_off_c, 0, 53, 64
1, 282002, Note_off_c, 0, 47, 65
1, 282027, Note_on_c, 0, 68, 94
1, 282042, Note_on_c, 0, 81, 69
1, 282058, Note_off_c, 0, 68, 61
1, 282058, Note_off_c, 0, 81, 67
1, 282111, Note_on_c, 0, 77, 84
1, 282172, Poly_aftertouch_c, 0, 81, 127
1, 282185, Note_off_c, 0, 77, 63
1, 282189, Poly_aftertouch_c, 0, 81, 0
1, 282255, Note_on_c, 0, 80, 90
1, 282288, Note_off_c, 0, 80, 68
1, 282330, Control_c, 0, 64, 85
1, 282340, Note_on_c, 0, 50, 92
1, 282340, Note_on_c, 0, 63, 100
1, 282343, Note_on_c, 0, 68, 106
1, 282344, Note_on_c, 0, 79, 92
1, 282345, Control_c, 0, 64, 0
1, 282346, Note_on_c, 0, 75, 99
1, 282350, Note_on_c, 0, 56, 81
1, 282375, Control_c, 0, 64, 35
1, 282389, Control_c, 0, 64, 76
1, 282403, Note_off_c, 0, 79, 63
1, 282404, Control_c, 0, 64, 127
1, 282416, Poly_aftertouch_c, 0, 51, 127
1, 282423, Note_off_c, 0, 68, 60
1, 282428, Note_off_c, 0, 75, 64
1, 282485, Poly_aftertouch_c, 0, 51, 0
1, 282492, Note_off_c, 0, 63, 56
1, 282540, Note_on_c, 0, 71, 101
1, 282570, Note_off_c, 0, 71, 70
1, 282585, Note_off_c, 0, 56, 59
1, 282617, Note_on_c, 0, 71, 94
1, 282644, Note_on_c, 0, 69, 44
1, 282668, Note_off_c, 0, 71, 69
1, 282672, Note_off_c, 0, 69, 62
1, 282691, Note_off_c, 0, 50, 36
1, 282769, Note_on_c, 0, 71, 96
1, 282805, Note_off_c, 0, 71, 67
1, 282827, Control_c, 0, 64, 92
1, 282842, Control_c, 0, 64, 0
1, 282847, Note_on_c, 0, 60, 95
1, 282856, Note_on_c, 0, 53, 84
1, 282858, Note_on_c, 0, 72, 99
1, 282871, Control_c, 0, 64, 48
1, 282886, Control_c, 0, 64, 79
1, 282889, Note_off_c, 0, 60, 65
1, 282902, Control_c, 0, 64, 127
1, 282905, Note_off_c, 0, 72, 67
1, 282933, Note_on_c, 0, 47, 87
1, 282963, Note_off_c, 0, 53, 66
1, 282984, Note_off_c, 0, 47, 67
1, 283024, Note_on_c, 0, 68, 92
1, 283031, Note_on_c, 0, 81, 80
1, 283033, Note_on_c, 0, 78, 68
1, 283056, Note_off_c, 0, 78, 69
1, 283070, Note_off_c, 0, 68, 53
1, 283093, Note_on_c, 0, 78, 87
1, 283108, Note_off_c, 0, 81, 61
1, 283173, Note_off_c, 0, 78, 64
1, 283278, Note_on_c, 0, 80, 92
1, 283296, Note_on_c, 0, 68, 74
1, 283315, Note_off_c, 0, 68, 65
1, 283321, Note_off_c, 0, 80, 64
1, 283377, Note_on_c, 0, 68, 37
1, 283380, Poly_aftertouch_c, 0, 54, 0
1, 283382, Note_on_c, 0, 50, 83
1, 283383, Note_on_c, 0, 63, 92
1, 283383, Control_c, 0, 64, 84
1, 283386, Note_on_c, 0, 79, 95
1, 283386, Note_on_c, 0, 75, 94
1, 283392, Note_on_c, 0, 56, 73
1, 283398, Control_c, 0, 64, 0
1, 283458, Control_c, 0, 64, 64
1, 283473, Note_off_c, 0, 79, 60
1, 283473, Control_c, 0, 64, 81
1, 283482, Note_off_c, 0, 68, 62
1, 283482, Note_off_c, 0, 75, 61
1, 283487, Control_c, 0, 64, 127
1, 283568, Note_off_c, 0, 63, 59
1, 283590, Note_on_c, 0, 71, 75
1, 283604, Note_on_c, 0, 72, 57
1, 283610, Note_off_c, 0, 71, 72
1, 283626, Note_off_c, 0, 72, 62
1, 283657, Note_on_c, 0, 71, 90
1, 283692, Note_off_c, 0, 71, 67
1, 283742, Note_off_c, 0, 56, 26
1, 283815, Note_on_c, 0, 71, 87
1, 283836, Note_off_c, 0, 71, 65
1, 283890, Note_on_c, 0, 71, 92
1, 283926, Note_off_c, 0, 50, 51
1, 283966, Note_on_c, 0, 68, 93
1, 283985, Note_off_c, 0, 71, 57
1, 284057, Note_on_c, 0, 72, 92
1, 284062, Note_off_c, 0, 68, 55
1, 284145, Note_on_c, 0, 71, 101
1, 284155, Note_on_c, 0, 63, 98
1, 284162, Note_on_c, 0, 50, 79
1, 284162, Control_c, 0, 64, 85
1, 284164, Note_on_c, 0, 56, 79
1, 284172, Note_off_c, 0, 72, 63
1, 284177, Control_c, 0, 64, 43
1, 284192, Control_c, 0, 64, 0
1, 284236, Control_c, 0, 64, 62
1, 284251, Control_c, 0, 64, 82
1, 284266, Control_c, 0, 64, 127
1, 284288, Note_off_c, 0, 50, 56
1, 284298, Note_off_c, 0, 63, 58
1, 284397, Note_off_c, 0, 56, 28
1, 284415, Poly_aftertouch_c, 0, 54, 127
1, 284423, Note_on_c, 0, 64, 104
1, 284459, Poly_aftertouch_c, 0, 54, 0
1, 284507, Note_off_c, 0, 64, 60
1, 284534, Poly_aftertouch_c, 0, 57, 0
1, 284809, Note_on_c, 0, 55, 76
1, 284814, Note_on_c, 0, 50, 63
1, 284818, Note_on_c, 0, 65, 92
1, 284837, Control_c, 0, 64, 93
1, 284852, Control_c, 0, 64, 67
1, 284866, Control_c, 0, 64, 0
1, 284911, Control_c, 0, 64, 56
1, 284926, Control_c, 0, 64, 72
1, 284929, Note_off_c, 0, 55, 62
1, 284930, Note_off_c, 0, 71, 60
1, 284936, Note_off_c, 0, 65, 65
1, 284940, Control_c, 0, 64, 87
1, 284945, Note_off_c, 0, 50, 66
1, 284955, Control_c, 0, 64, 127
1, 285312, Control_c, 0, 64, 114
1, 285327, Control_c, 0, 64, 89
1, 285342, Control_c, 0, 64, 74
1, 285356, Control_c, 0, 64, 61
1, 285371, Control_c, 0, 64, 0
1, 285415, Control_c, 0, 64, 21
1, 285430, Control_c, 0, 64, 27
1, 285445, Control_c, 0, 64, 30
1, 285482, Control_c, 0, 64, 31
1, 285497, Control_c, 0, 64, 33
1, 285512, Control_c, 0, 64, 37
1, 285526, Control_c, 0, 64, 42
1, 285541, Control_c, 0, 64, 47
1, 285541, Control_c, 0, 67, 10
1, 285556, Control_c, 0, 64, 51
1, 285556, Control_c, 0, 67, 17
1, 285571, Control_c, 0, 64, 54
1, 285571, Control_c, 0, 67, 24
1, 285586, Control_c, 0, 64, 57
1, 285586, Control_c, 0, 67, 31
1, 285601, Control_c, 0, 64, 59
1, 285601, Control_c, 0, 67, 37
1, 285614, Note_on_c, 0, 75, 42
1, 285615, Control_c, 0, 64, 62
1, 285615, Control_c, 0, 67, 41
1, 285621, Note_on_c, 0, 65, 32
1, 285630, Control_c, 0, 64, 64
1, 285630, Control_c, 0, 67, 45
1, 285645, Control_c, 0, 64, 66
1, 285645, Control_c, 0, 67, 49
1, 285660, Control_c, 0, 64, 68
1, 285660, Control_c, 0, 67, 52
1, 285675, Control_c, 0, 64, 71
1, 285675, Control_c, 0, 67, 53
1, 285689, Control_c, 0, 64, 75
1, 285689, Control_c, 0, 67, 54
1, 285691, Note_off_c, 0, 75, 41
1, 285704, Control_c, 0, 64, 81
1, 285704, Control_c, 0, 67, 55
1, 285719, Control_c, 0, 64, 90
1, 285719, Control_c, 0, 67, 56
1, 285723, Note_on_c, 0, 55, 40
1, 285723, Note_on_c, 0, 71, 49
1, 285733, Control_c, 0, 64, 98
1, 285737, Note_on_c, 0, 50, 32
1, 285748, Control_c, 0, 64, 105
1, 285763, Control_c, 0, 64, 111
1, 285778, Control_c, 0, 64, 122
1, 285778, Control_c, 0, 67, 56
1, 285793, Control_c, 0, 64, 127
1, 285931, Note_off_c, 0, 50, 42
1, 285956, Note_on_c, 0, 74, 45
1, 285977, Note_off_c, 0, 71, 39
1, 285985, Control_c, 0, 67, 56
1, 286010, Note_off_c, 0, 74, 58
1, 286048, Note_off_c, 0, 65, 38
1, 286051, Note_off_c, 0, 55, 34
1, 286075, Control_c, 0, 67, 55
1, 286091, Note_on_c, 0, 59, 40
1, 286093, Note_on_c, 0, 49, 40
1, 286105, Control_c, 0, 67, 54
1, 286135, Control_c, 0, 67, 54
1, 286164, Control_c, 0, 67, 53
1, 286179, Control_c, 0, 67, 53
1, 286194, Control_c, 0, 67, 52
1, 286209, Control_c, 0, 67, 51
1, 286230, Control_c, 0, 67, 50
1, 286242, Note_on_c, 0, 73, 49
1, 286245, Control_c, 0, 67, 50
1, 286260, Control_c, 0, 67, 49
1, 286268, Note_on_c, 0, 65, 26
1, 286275, Control_c, 0, 67, 49
1, 286290, Control_c, 0, 67, 48
1, 286293, Note_off_c, 0, 73, 57
1, 286304, Control_c, 0, 67, 48
1, 286319, Control_c, 0, 64, 114
1, 286319, Control_c, 0, 67, 47
1, 286322, Note_off_c, 0, 59, 34
1, 286334, Control_c, 0, 64, 101
1, 286334, Control_c, 0, 67, 46
1, 286343, Note_off_c, 0, 49, 44
1, 286349, Control_c, 0, 64, 93
1, 286349, Control_c, 0, 67, 45
1, 286360, Note_on_c, 0, 69, 38
1, 286364, Control_c, 0, 64, 92
1, 286364, Control_c, 0, 67, 43
1, 286379, Control_c, 0, 64, 93
1, 286379, Control_c, 0, 67, 40
1, 286394, Control_c, 0, 64, 96
1, 286394, Control_c, 0, 67, 34
1, 286398, Note_on_c, 0, 50, 40
1, 286400, Note_on_c, 0, 55, 34
1, 286409, Control_c, 0, 64, 101
1, 286409, Control_c, 0, 67, 24
1, 286424, Control_c, 0, 64, 109
1, 286424, Control_c, 0, 67, 12
1, 286438, Control_c, 0, 64, 120
1, 286438, Control_c, 0, 67, 0
1, 286453, Control_c, 0, 64, 127
1, 286522, Note_on_c, 0, 72, 36
1, 286552, Note_off_c, 0, 50, 27
1, 286552, Note_off_c, 0, 72, 53
1, 286567, Note_off_c, 0, 69, 38
1, 286570, Note_off_c, 0, 65, 41
1, 286571, Control_c, 0, 64, 91
1, 286576, Note_off_c, 0, 55, 40
1, 286586, Control_c, 0, 64, 82
1, 286616, Control_c, 0, 64, 85
1, 286625, Note_on_c, 0, 59, 41
1, 286627, Note_on_c, 0, 49, 40
1, 286630, Control_c, 0, 64, 92
1, 286645, Control_c, 0, 64, 100
1, 286660, Control_c, 0, 64, 101
1, 286675, Control_c, 0, 64, 98
1, 286690, Control_c, 0, 64, 91
1, 286704, Control_c, 0, 64, 88
1, 286719, Control_c, 0, 64, 89
1, 286734, Control_c, 0, 64, 94
1, 286749, Note_on_c, 0, 75, 49
1, 286749, Control_c, 0, 64, 97
1, 286751, Note_on_c, 0, 65, 38
1, 286764, Control_c, 0, 64, 96
1, 286779, Control_c, 0, 64, 92
1, 286794, Control_c, 0, 64, 87
1, 286807, Note_off_c, 0, 75, 50
1, 286809, Control_c, 0, 64, 85
1, 286812, Note_off_c, 0, 59, 41
1, 286820, Note_off_c, 0, 49, 42
1, 286838, Control_c, 0, 64, 87
1, 286850, Note_on_c, 0, 55, 43
1, 286851, Note_on_c, 0, 71, 49
1, 286853, Note_on_c, 0, 50, 39
1, 286853, Control_c, 0, 64, 92
1, 286868, Control_c, 0, 64, 97
1, 286883, Control_c, 0, 64, 100
1, 286899, Control_c, 0, 64, 100
1, 286914, Control_c, 0, 64, 101
1, 286943, Control_c, 0, 64, 103
1, 286958, Control_c, 0, 64, 108
1, 286979, Note_off_c, 0, 55, 0
1, 286980, Control_c, 0, 64, 124
1, 286995, Control_c, 0, 64, 127
1, 287009, Note_off_c, 0, 50, 37
1, 287011, Note_off_c, 0, 71, 31
1, 287019, Poly_aftertouch_c, 0, 55, 0
1, 287022, Note_on_c, 0, 74, 44
1, 287039, Control_c, 0, 64, 106
1, 287041, Note_off_c, 0, 65, 12
1, 287050, Note_off_c, 0, 74, 58
1, 287053, Control_c, 0, 64, 91
1, 287068, Control_c, 0, 64, 90
1, 287077, Note_on_c, 0, 49, 44
1, 287081, Note_on_c, 0, 59, 43
1, 287083, Control_c, 0, 64, 95
1, 287098, Control_c, 0, 64, 108
1, 287113, Control_c, 0, 64, 122
1, 287127, Control_c, 0, 64, 118
1, 287142, Control_c, 0, 64, 100
1, 287157, Control_c, 0, 64, 84
1, 287172, Control_c, 0, 64, 77
1, 287187, Control_c, 0, 64, 78
1, 287202, Control_c, 0, 64, 84
1, 287205, Note_off_c, 0, 59, 37
1, 287210, Note_on_c, 0, 73, 57
1, 287217, Control_c, 0, 64, 97
1, 287221, Note_on_c, 0, 65, 43
1, 287223, Note_off_c, 0, 49, 36
1, 287231, Control_c, 0, 64, 127
1, 287279, Note_on_c, 0, 50, 32
1, 287279, Note_off_c, 0, 73, 47
1, 287318, Note_off_c, 0, 50, 56
1, 287318, Note_on_c, 0, 69, 55
1, 287348, Poly_aftertouch_c, 0, 55, 0
1, 287394, Control_c, 0, 64, 103
1, 287398, Note_off_c, 0, 69, 61
1, 287407, Note_off_c, 0, 65, 40
1, 287409, Control_c, 0, 64, 78
1, 287424, Control_c, 0, 64, 68
1, 287429, Note_on_c, 0, 72, 51
1, 287439, Control_c, 0, 64, 74
1, 287451, Note_off_c, 0, 72, 60
1, 287453, Control_c, 0, 64, 83
1, 287462, Note_on_c, 0, 49, 40
1, 287468, Control_c, 0, 64, 92
1, 287483, Control_c, 0, 64, 93
1, 287494, Note_on_c, 0, 59, 63
1, 287494, Note_off_c, 0, 49, 60
1, 287497, Control_c, 0, 64, 90
1, 287512, Control_c, 0, 64, 86
1, 287527, Control_c, 0, 64, 84
1, 287557, Control_c, 0, 64, 85
1, 287566, Note_on_c, 0, 65, 43
1, 287571, Control_c, 0, 64, 88
1, 287574, Note_off_c, 0, 59, 33
1, 287586, Control_c, 0, 64, 94
1, 287598, Note_off_c, 0, 65, 54
1, 287601, Note_on_c, 0, 79, 66
1, 287601, Control_c, 0, 64, 103
1, 287616, Control_c, 0, 64, 119
1, 287631, Control_c, 0, 64, 127
1, 287640, Note_off_c, 0, 79, 59
1, 287646, Control_c, 0, 64, 124
1, 287661, Control_c, 0, 64, 93
1, 287673, Note_on_c, 0, 75, 69
1, 287676, Control_c, 0, 64, 72
1, 287691, Control_c, 0, 64, 55
1, 287697, Note_off_c, 0, 75, 69
1, 287706, Control_c, 0, 64, 62
1, 287721, Control_c, 0, 64, 69
1, 287735, Note_on_c, 0, 50, 40
1, 287735, Note_on_c, 0, 55, 46
1, 287743, Control_c, 0, 64, 76
1, 287748, Note_on_c, 0, 80, 82
1, 287758, Control_c, 0, 64, 87
1, 287768, Note_off_c, 0, 50, 60
1, 287773, Control_c, 0, 64, 97
1, 287774, Note_on_c, 0, 71, 52
1, 287788, Control_c, 0, 64, 103
1, 287795, Note_off_c, 0, 55, 59
1, 287797, Note_off_c, 0, 71, 60
1, 287817, Control_c, 0, 64, 103
1, 287832, Control_c, 0, 64, 107
1, 287847, Control_c, 0, 64, 112
1, 287862, Control_c, 0, 64, 112
1, 287876, Control_c, 0, 64, 100
1, 287891, Control_c, 0, 64, 85
1, 287899, Note_on_c, 0, 49, 54
1, 287906, Control_c, 0, 64, 69
1, 287910, Note_on_c, 0, 74, 51
1, 287921, Control_c, 0, 64, 67
1, 287926, Note_off_c, 0, 49, 60
1, 287935, Control_c, 0, 64, 72
1, 287941, Note_off_c, 0, 74, 67
1, 287947, Note_on_c, 0, 59, 61
1, 287950, Control_c, 0, 64, 80
1, 287965, Control_c, 0, 64, 86
1, 287980, Control_c, 0, 64, 85
1, 287987, Note_off_c, 0, 59, 57
1, 287995, Control_c, 0, 64, 78
1, 287999, Note_on_c, 0, 65, 53
1, 288010, Control_c, 0, 64, 72
1, 288022, Note_off_c, 0, 65, 60
1, 288024, Control_c, 0, 64, 71
1, 288039, Control_c, 0, 64, 76
1, 288054, Control_c, 0, 64, 82
1, 288069, Control_c, 0, 64, 95
1, 288084, Control_c, 0, 64, 127
1, 288113, Note_on_c, 0, 75, 75
1, 288120, Note_off_c, 0, 80, 62
1, 288157, Note_on_c, 0, 50, 62
1, 288170, Note_on_c, 0, 55, 29
1, 288177, Note_off_c, 0, 75, 56
1, 288185, Note_off_c, 0, 50, 67
1, 288196, Note_on_c, 0, 79, 77
1, 288209, Note_off_c, 0, 55, 52
1, 288211, Note_on_c, 0, 71, 65
1, 288238, Note_off_c, 0, 71, 68
1, 288306, Control_c, 0, 64, 101
1, 288308, Note_on_c, 0, 74, 58
1, 288311, Note_off_c, 0, 79, 59
1, 288320, Control_c, 0, 64, 76
1, 288328, Note_off_c, 0, 74, 62
1, 288335, Control_c, 0, 64, 62
1, 288350, Control_c, 0, 64, 63
1, 288365, Control_c, 0, 64, 69
1, 288368, Note_on_c, 0, 62, 68
1, 288380, Control_c, 0, 64, 76
1, 288394, Control_c, 0, 64, 86
1, 288395, Note_on_c, 0, 80, 85
1, 288403, Note_on_c, 0, 53, 3
1, 288409, Control_c, 0, 64, 91
1, 288424, Control_c, 0, 64, 91
1, 288425, Note_on_c, 0, 68, 76
1, 288439, Control_c, 0, 64, 87
1, 288443, Note_off_c, 0, 62, 56
1, 288445, Note_off_c, 0, 53, 51
1, 288446, Note_off_c, 0, 80, 63
1, 288448, Note_off_c, 0, 68, 69
1, 288454, Control_c, 0, 64, 82
1, 288476, Control_c, 0, 64, 77
1, 288507, Control_c, 0, 64, 78
1, 288513, Note_on_c, 0, 83, 78
1, 288522, Control_c, 0, 64, 81
1, 288537, Control_c, 0, 64, 84
1, 288551, Control_c, 0, 64, 89
1, 288564, Note_off_c, 0, 83, 64
1, 288566, Control_c, 0, 64, 95
1, 288583, Note_on_c, 0, 78, 71
1, 288596, Control_c, 0, 64, 86
1, 288603, Note_off_c, 0, 78, 63
1, 288611, Control_c, 0, 64, 72
1, 288626, Control_c, 0, 64, 53
1, 288627, Note_on_c, 0, 53, 62
1, 288628, Note_on_c, 0, 58, 68
1, 288635, Note_on_c, 0, 85, 92
1, 288640, Control_c, 0, 64, 48
1, 288647, Note_on_c, 0, 74, 75
1, 288655, Control_c, 0, 64, 62
1, 288656, Note_off_c, 0, 53, 67
1, 288660, Note_off_c, 0, 58, 62
1, 288670, Note_off_c, 0, 74, 69
1, 288670, Control_c, 0, 64, 67
1, 288685, Control_c, 0, 64, 73
1, 288700, Control_c, 0, 64, 81
1, 288714, Control_c, 0, 64, 93
1, 288729, Control_c, 0, 64, 105
1, 288744, Control_c, 0, 64, 107
1, 288758, Control_c, 0, 64, 93
1, 288763, Note_on_c, 0, 77, 73
1, 288773, Control_c, 0, 64, 74
1, 288776, Note_on_c, 0, 52, 68
1, 288786, Note_off_c, 0, 77, 69
1, 288788, Control_c, 0, 64, 45
1, 288803, Control_c, 0, 64, 24
1, 288804, Note_off_c, 0, 52, 65
1, 288818, Control_c, 0, 64, 61
1, 288820, Note_on_c, 0, 62, 61
1, 288832, Control_c, 0, 64, 69
1, 288847, Control_c, 0, 64, 79
1, 288862, Control_c, 0, 64, 81
1, 288866, Note_on_c, 0, 68, 79
1, 288877, Control_c, 0, 64, 77
1, 288883, Note_off_c, 0, 62, 61
1, 288887, Note_off_c, 0, 68, 70
1, 288892, Control_c, 0, 64, 69
1, 288907, Control_c, 0, 64, 66
1, 288922, Control_c, 0, 64, 70
1, 288937, Control_c, 0, 64, 77
1, 288951, Control_c, 0, 64, 90
1, 288966, Control_c, 0, 64, 114
1, 288981, Control_c, 0, 64, 127
1, 288984, Note_on_c, 0, 78, 81
1, 289005, Note_off_c, 0, 85, 62
1, 289036, Note_on_c, 0, 53, 70
1, 289039, Note_off_c, 0, 78, 58
1, 289055, Note_on_c, 0, 58, 45
1, 289065, Note_on_c, 0, 83, 83
1, 289067, Note_on_c, 0, 74, 79
1, 289070, Note_off_c, 0, 53, 67
1, 289084, Note_off_c, 0, 58, 55
1, 289101, Note_off_c, 0, 74, 59
1, 289129, Control_c, 0, 64, 122
1, 289143, Control_c, 0, 64, 78
1, 289151, Note_on_c, 0, 77, 80
1, 289158, Control_c, 0, 64, 0
1, 289159, Note_off_c, 0, 83, 64
1, 289170, Note_off_c, 0, 77, 71
1, 289196, Note_on_c, 0, 55, 65
1, 289228, Note_off_c, 0, 55, 66
1, 289240, Control_c, 0, 64, 50
1, 289241, Note_on_c, 0, 65, 51
1, 289255, Control_c, 0, 64, 62
1, 289270, Control_c, 0, 64, 54
1, 289271, Note_off_c, 0, 65, 58
1, 289272, Note_on_c, 0, 71, 78
1, 289285, Control_c, 0, 64, 0
1, 289292, Note_off_c, 0, 71, 72
1, 289340, Note_on_c, 0, 88, 74
1, 289380, Note_off_c, 0, 88, 62
1, 289399, Note_on_c, 0, 83, 74
1, 289449, Note_on_c, 0, 81, 69
1, 289455, Note_off_c, 0, 83, 63
1, 289474, Note_off_c, 0, 81, 67
1, 289514, Note_on_c, 0, 76, 65
1, 289539, Note_off_c, 0, 76, 64
1, 289569, Note_on_c, 0, 77, 70
1, 289616, Note_off_c, 0, 77, 57
1, 289646, Note_on_c, 0, 80, 65
1, 289651, Note_on_c, 0, 76, 67
1, 289658, Note_on_c, 0, 71, 50
1, 289663, Note_on_c, 0, 64, 51
1, 289664, Note_on_c, 0, 58, 32
1, 289671, Note_on_c, 0, 74, 69
1, 289671, Control_c, 0, 64, 50
1, 289673, Note_off_c, 0, 80, 66
1, 289678, Note_off_c, 0, 76, 66
1, 289682, Note_off_c, 0, 71, 62
1, 289686, Control_c, 0, 64, 73
1, 289689, Note_off_c, 0, 64, 59
1, 289695, Note_off_c, 0, 74, 70
1, 289700, Note_off_c, 0, 58, 52
1, 289700, Control_c, 0, 64, 79
1, 289730, Control_c, 0, 64, 77
1, 289745, Control_c, 0, 64, 71
1, 289760, Control_c, 0, 64, 62
1, 289774, Control_c, 0, 64, 0
1, 289792, Note_on_c, 0, 71, 77
1, 289816, Note_off_c, 0, 71, 69
1, 289852, Poly_aftertouch_c, 0, 71, 0
1, 289859, Note_on_c, 0, 71, 81
1, 289899, Note_off_c, 0, 71, 65
1, 289998, Note_on_c, 0, 71, 51
1, 290024, Note_off_c, 0, 71, 37
1, 290025, Note_on_c, 0, 43, 68
1, 290053, Note_off_c, 0, 43, 65
1, 290056, Note_on_c, 0, 53, 59
1, 290063, Control_c, 0, 64, 57
1, 290078, Control_c, 0, 64, 80
1, 290093, Control_c, 0, 64, 99
1, 290104, Note_on_c, 0, 59, 74
1, 290104, Note_off_c, 0, 53, 64
1, 290123, Control_c, 0, 64, 97
1, 290128, Note_off_c, 0, 59, 64
1, 290138, Control_c, 0, 64, 90
1, 290153, Control_c, 0, 64, 80
1, 290154, Note_on_c, 0, 76, 76
1, 290168, Control_c, 0, 64, 66
1, 290183, Control_c, 0, 64, 0
1, 290194, Note_off_c, 0, 76, 59
1, 290207, Note_on_c, 0, 71, 79
1, 290272, Note_off_c, 0, 71, 65
1, 290272, Note_on_c, 0, 69, 71
1, 290311, Note_off_c, 0, 69, 57
1, 290325, Note_on_c, 0, 64, 64
1, 290350, Note_off_c, 0, 64, 64
1, 290392, Note_on_c, 0, 65, 68
1, 290458, Note_off_c, 0, 65, 58
1, 290479, Note_on_c, 0, 64, 57
1, 290479, Control_c, 0, 64, 60
1, 290484, Note_on_c, 0, 59, 60
1, 290487, Note_on_c, 0, 46, 64
1, 290490, Note_on_c, 0, 68, 67
1, 290494, Control_c, 0, 64, 77
1, 290502, Note_on_c, 0, 52, 27
1, 290509, Control_c, 0, 64, 108
1, 290513, Note_off_c, 0, 59, 65
1, 290514, Note_on_c, 0, 62, 66
1, 290514, Note_off_c, 0, 64, 66
1, 290516, Note_off_c, 0, 46, 64
1, 290517, Note_off_c, 0, 68, 66
1, 290523, Control_c, 0, 64, 127
1, 290544, Note_off_c, 0, 52, 44
1, 290549, Note_off_c, 0, 62, 61
1, 290636, Note_on_c, 0, 59, 77
1, 290668, Note_off_c, 0, 59, 62
1, 290709, Note_on_c, 0, 59, 79
1, 290747, Note_off_c, 0, 59, 61
1, 290812, Control_c, 0, 64, 116
1, 290827, Control_c, 0, 64, 111
1, 290842, Control_c, 0, 64, 107
1, 290855, Note_on_c, 0, 59, 83
1, 290857, Control_c, 0, 64, 104
1, 290871, Control_c, 0, 64, 100
1, 290874, Note_off_c, 0, 59, 70
1, 290886, Control_c, 0, 64, 92
1, 290902, Control_c, 0, 64, 83
1, 290917, Control_c, 0, 64, 74
1, 290932, Note_on_c, 0, 59, 88
1, 290932, Control_c, 0, 64, 66
1, 290946, Control_c, 0, 64, 60
1, 290961, Control_c, 0, 64, 58
1, 290976, Control_c, 0, 64, 59
1, 290981, Note_off_c, 0, 59, 54
1, 290991, Control_c, 0, 64, 60
1, 291004, Note_on_c, 0, 56, 85
1, 291060, Note_off_c, 0, 56, 64
1, 291065, Control_c, 0, 64, 59
1, 291083, Note_on_c, 0, 60, 84
1, 291139, Control_c, 0, 64, 60
1, 291161, Note_on_c, 0, 59, 93
1, 291169, Control_c, 0, 64, 61
1, 291181, Note_off_c, 0, 60, 63
1, 291243, Control_c, 0, 64, 61
1, 291273, Control_c, 0, 64, 62
1, 291288, Control_c, 0, 64, 62
1, 291391, Control_c, 0, 64, 63
1, 291420, Control_c, 0, 64, 64
1, 291432, Note_on_c, 0, 55, 80
1, 291435, Control_c, 0, 64, 67
1, 291444, Note_on_c, 0, 51, 69
1, 291450, Control_c, 0, 64, 72
1, 291472, Control_c, 0, 64, 79
1, 291487, Control_c, 0, 64, 92
1, 291502, Control_c, 0, 64, 119
1, 291516, Control_c, 0, 64, 127
1, 291737, Note_off_c, 0, 55, 60
1, 291765, Note_on_c, 0, 54, 84
1, 291781, Note_on_c, 0, 45, 67
1, 291795, Note_off_c, 0, 51, 23
1, 291910, Note_off_c, 0, 54, 58
1, 292037, Note_on_c, 0, 53, 90
1, 292045, Note_on_c, 0, 49, 76
1, 292050, Control_c, 0, 64, 87
1, 292051, Note_off_c, 0, 45, 62
1, 292065, Control_c, 0, 64, 72
1, 292080, Control_c, 0, 64, 71
1, 292094, Control_c, 0, 64, 76
1, 292109, Control_c, 0, 64, 85
1, 292124, Control_c, 0, 64, 110
1, 292139, Control_c, 0, 64, 127
1, 292245, Note_off_c, 0, 53, 60
1, 292291, Note_off_c, 0, 49, 59
1, 292296, Control_c, 0, 64, 115
1, 292308, Note_on_c, 0, 54, 90
1, 292310, Note_on_c, 0, 45, 78
1, 292310, Control_c, 0, 64, 85
1, 292325, Control_c, 0, 64, 72
1, 292340, Control_c, 0, 64, 71
1, 292355, Control_c, 0, 64, 79
1, 292370, Control_c, 0, 64, 98
1, 292384, Control_c, 0, 64, 127
1, 292493, Note_off_c, 0, 54, 55
1, 292548, Control_c, 0, 64, 114
1, 292563, Control_c, 0, 64, 76
1, 292571, Note_on_c, 0, 55, 94
1, 292575, Note_off_c, 0, 45, 56
1, 292577, Note_on_c, 0, 51, 85
1, 292578, Control_c, 0, 64, 56
1, 292592, Control_c, 0, 64, 59
1, 292607, Control_c, 0, 64, 69
1, 292622, Control_c, 0, 64, 80
1, 292637, Control_c, 0, 64, 105
1, 292652, Control_c, 0, 64, 127
1, 292690, Note_off_c, 0, 51, 62
1, 292695, Note_off_c, 0, 55, 54
1, 292741, Note_off_c, 0, 59, 52
1, 292863, Note_on_c, 0, 56, 99
1, 292864, Note_on_c, 0, 47, 84
1, 292918, Note_off_c, 0, 47, 66
1, 292927, Note_off_c, 0, 56, 64
1, 293181, Note_on_c, 0, 63, 98
1, 293190, Note_on_c, 0, 53, 74
1, 293193, Note_on_c, 0, 59, 79
1, 293204, Note_on_c, 0, 57, 62
1, 293281, Control_c, 0, 64, 104
1, 293297, Control_c, 0, 64, 69
1, 293312, Control_c, 0, 64, 0
1, 293371, Control_c, 0, 64, 62
1, 293386, Control_c, 0, 64, 81
1, 293401, Control_c, 0, 64, 127
1, 293411, Note_on_c, 0, 65, 95
1, 293441, Note_off_c, 0, 53, 29
1, 293457, Note_off_c, 0, 63, 55
1, 293477, Note_off_c, 0, 59, 26
1, 293494, Note_off_c, 0, 57, 24
1, 293533, Note_on_c, 0, 62, 88
1, 293535, Note_on_c, 0, 53, 85
1, 293563, Note_off_c, 0, 65, 54
1, 293590, Note_off_c, 0, 62, 65
1, 293705, Note_on_c, 0, 65, 89
1, 293820, Note_off_c, 0, 53, 65
1, 293827, Note_on_c, 0, 61, 90
1, 293828, Note_on_c, 0, 57, 77
1, 293844, Note_off_c, 0, 65, 57
1, 293852, Control_c, 0, 64, 102
1, 293867, Control_c, 0, 64, 81
1, 293882, Control_c, 0, 64, 73
1, 293897, Control_c, 0, 64, 76
1, 293912, Control_c, 0, 64, 82
1, 293927, Control_c, 0, 64, 95
1, 293941, Control_c, 0, 64, 127
1, 293995, Note_on_c, 0, 65, 82
1, 294024, Note_off_c, 0, 65, 59
1, 294045, Control_c, 0, 64, 99
1, 294060, Control_c, 0, 64, 73
1, 294065, Note_off_c, 0, 57, 38
1, 294074, Control_c, 0, 64, 51
1, 294084, Note_off_c, 0, 61, 38
1, 294086, Note_on_c, 0, 60, 77
1, 294089, Control_c, 0, 64, 61
1, 294091, Note_on_c, 0, 51, 75
1, 294105, Control_c, 0, 64, 69
1, 294106, Note_on_c, 0, 65, 81
1, 294120, Control_c, 0, 64, 80
1, 294131, Note_off_c, 0, 65, 66
1, 294135, Control_c, 0, 64, 102
1, 294150, Control_c, 0, 64, 127
1, 294183, Note_on_c, 0, 65, 79
1, 294192, Note_off_c, 0, 60, 62
1, 294212, Note_off_c, 0, 65, 62
1, 294281, Note_on_c, 0, 65, 76
1, 294284, Note_off_c, 0, 51, 53
1, 294297, Control_c, 0, 64, 122
1, 294299, Note_off_c, 0, 65, 73
1, 294312, Control_c, 0, 64, 81
1, 294327, Control_c, 0, 64, 63
1, 294342, Control_c, 0, 64, 60
1, 294349, Note_on_c, 0, 59, 81
1, 294351, Note_on_c, 0, 55, 76
1, 294357, Control_c, 0, 64, 70
1, 294365, Note_on_c, 0, 65, 86
1, 294368, Note_off_c, 0, 59, 70
1, 294371, Control_c, 0, 64, 81
1, 294386, Control_c, 0, 64, 102
1, 294399, Note_off_c, 0, 65, 62
1, 294401, Control_c, 0, 64, 127
1, 294454, Note_on_c, 0, 62, 75
1, 294504, Note_off_c, 0, 62, 59
1, 294526, Note_on_c, 0, 66, 92
1, 294544, Note_off_c, 0, 66, 73
1, 294571, Control_c, 0, 64, 101
1, 294586, Control_c, 0, 64, 68
1, 294590, Note_off_c, 0, 55, 33
1, 294596, Note_on_c, 0, 58, 93
1, 294598, Note_on_c, 0, 49, 80
1, 294601, Control_c, 0, 64, 0
1, 294607, Note_on_c, 0, 65, 92
1, 294631, Control_c, 0, 64, 17
1, 294635, Note_off_c, 0, 58, 67
1, 294645, Control_c, 0, 64, 65
1, 294654, Note_off_c, 0, 65, 63
1, 294660, Control_c, 0, 64, 77
1, 294675, Control_c, 0, 64, 95
1, 294690, Control_c, 0, 64, 127
1, 294699, Note_on_c, 0, 73, 84
1, 294719, Note_off_c, 0, 73, 72
1, 294776, Note_on_c, 0, 73, 96
1, 294794, Control_c, 0, 64, 104
1, 294809, Control_c, 0, 64, 78
1, 294812, Note_off_c, 0, 73, 64
1, 294819, Note_off_c, 0, 49, 54
1, 294824, Control_c, 0, 64, 62
1, 294838, Control_c, 0, 64, 63
1, 294843, Note_on_c, 0, 57, 85
1, 294852, Note_on_c, 0, 53, 74
1, 294853, Control_c, 0, 64, 69
1, 294860, Note_on_c, 0, 73, 85
1, 294868, Control_c, 0, 64, 78
1, 294883, Control_c, 0, 64, 92
1, 294898, Control_c, 0, 64, 112
1, 294904, Note_off_c, 0, 73, 64
1, 294913, Control_c, 0, 64, 120
1, 294914, Note_off_c, 0, 57, 60
1, 294928, Control_c, 0, 64, 117
1, 294943, Note_on_c, 0, 73, 84
1, 294943, Control_c, 0, 64, 111
1, 294958, Control_c, 0, 64, 108
1, 294964, Note_off_c, 0, 73, 70
1, 295002, Control_c, 0, 64, 109
1, 295017, Control_c, 0, 64, 111
1, 295023, Note_on_c, 0, 73, 87
1, 295032, Control_c, 0, 64, 114
1, 295044, Note_off_c, 0, 53, 52
1, 295047, Control_c, 0, 64, 108
1, 295050, Note_off_c, 0, 73, 60
1, 295061, Control_c, 0, 64, 87
1, 295076, Control_c, 0, 64, 67
1, 295091, Control_c, 0, 64, 11
1, 295098, Note_on_c, 0, 56, 77
1, 295106, Control_c, 0, 64, 55
1, 295107, Note_on_c, 0, 73, 90
1, 295109, Note_on_c, 0, 47, 68
1, 295120, Note_off_c, 0, 56, 71
1, 295120, Control_c, 0, 64, 68
1, 295124, Note_off_c, 0, 73, 72
1, 295135, Control_c, 0, 64, 77
1, 295150, Control_c, 0, 64, 90
1, 295165, Control_c, 0, 64, 109
1, 295180, Control_c, 0, 64, 115
1, 295182, Note_on_c, 0, 73, 89
1, 295194, Control_c, 0, 64, 115
1, 295230, Note_off_c, 0, 73, 59
1, 295232, Control_c, 0, 64, 116
1, 295247, Control_c, 0, 64, 127
1, 295272, Note_on_c, 0, 73, 84
1, 295310, Note_off_c, 0, 73, 65
1, 295320, Control_c, 0, 64, 95
1, 295335, Control_c, 0, 64, 74
1, 295339, Note_off_c, 0, 47, 59
1, 295350, Control_c, 0, 64, 69
1, 295357, Note_on_c, 0, 55, 85
1, 295362, Note_on_c, 0, 51, 78
1, 295365, Control_c, 0, 64, 76
1, 295366, Note_on_c, 0, 73, 90
1, 295380, Control_c, 0, 64, 89
1, 295394, Control_c, 0, 64, 117
1, 295399, Note_off_c, 0, 55, 64
1, 295409, Control_c, 0, 64, 127
1, 295412, Note_off_c, 0, 73, 63
1, 295447, Note_on_c, 0, 70, 89
1, 295489, Note_off_c, 0, 70, 65
1, 295535, Note_on_c, 0, 74, 95
1, 295563, Note_off_c, 0, 74, 66
1, 295601, Note_off_c, 0, 51, 50
1, 295673, Note_on_c, 0, 54, 78
1, 295679, Note_on_c, 0, 45, 65
1, 295702, Note_on_c, 0, 73, 99
1, 295704, Note_on_c, 0, 61, 92
1, 295704, Note_on_c, 0, 65, 82
1, 295870, Control_c, 0, 64, 103
1, 295884, Control_c, 0, 64, 74
1, 295899, Control_c, 0, 64, 0
1, 295966, Control_c, 0, 64, 56
1, 295980, Control_c, 0, 64, 78
1, 295995, Control_c, 0, 64, 118
1, 296010, Control_c, 0, 64, 127
1, 296064, Note_off_c, 0, 65, 25
1, 296106, Note_off_c, 0, 61, 58
1, 296132, Note_off_c, 0, 73, 52
1, 296213, Note_off_c, 0, 45, 0
1, 296251, Poly_aftertouch_c, 0, 45, 127
1, 296301, Poly_aftertouch_c, 0, 45, 0
1, 296326, Note_off_c, 0, 54, 52
1, 296338, Note_on_c, 0, 72, 93
1, 296339, Note_on_c, 0, 60, 88
1, 296342, Note_on_c, 0, 64, 84
1, 296458, Note_off_c, 0, 72, 52
1, 296460, Note_off_c, 0, 64, 54
1, 296550, Note_off_c, 0, 60, 56
1, 296618, Control_c, 0, 64, 106
1, 296633, Control_c, 0, 64, 64
1, 296648, Control_c, 0, 64, 0
1, 296658, Note_on_c, 0, 45, 86
1, 296661, Note_on_c, 0, 59, 101
1, 296663, Note_on_c, 0, 71, 93
1, 296665, Note_on_c, 0, 54, 86
1, 296665, Note_on_c, 0, 63, 91
1, 296692, Control_c, 0, 64, 67
1, 296694, Note_off_c, 0, 59, 62
1, 296714, Control_c, 0, 64, 112
1, 296719, Note_off_c, 0, 63, 64
1, 296720, Note_on_c, 0, 68, 13
1, 296725, Note_off_c, 0, 71, 64
1, 296729, Control_c, 0, 64, 127
1, 296733, Note_on_c, 0, 53, 82
1, 296742, Note_on_c, 0, 57, 79
1, 296752, Note_off_c, 0, 54, 65
1, 296761, Note_off_c, 0, 68, 56
1, 296776, Note_off_c, 0, 57, 53
1, 296785, Note_off_c, 0, 53, 63
1, 296831, Note_off_c, 0, 45, 35
1, 296899, Note_on_c, 0, 76, 89
1, 296901, Note_on_c, 0, 67, 81
1, 296937, Control_c, 0, 64, 91
1, 296940, Note_off_c, 0, 67, 0
1, 296952, Control_c, 0, 64, 19
1, 296958, Note_on_c, 0, 45, 81
1, 296960, Note_on_c, 0, 72, 95
1, 296966, Control_c, 0, 64, 0
1, 296968, Note_off_c, 0, 76, 60
1, 296977, Poly_aftertouch_c, 0, 67, 127
1, 297011, Control_c, 0, 64, 61
1, 297026, Control_c, 0, 64, 78
1, 297033, Note_off_c, 0, 45, 66
1, 297040, Control_c, 0, 64, 104
1, 297042, Note_on_c, 0, 51, 73
1, 297055, Control_c, 0, 64, 127
1, 297057, Note_off_c, 0, 72, 61
1, 297098, Note_off_c, 0, 51, 62
1, 297118, Note_on_c, 0, 58, 64
1, 297121, Note_on_c, 0, 75, 86
1, 297145, Note_off_c, 0, 58, 65
1, 297162, Poly_aftertouch_c, 0, 67, 0
1, 297162, Note_off_c, 0, 75, 66
1, 297188, Control_c, 0, 64, 113
1, 297203, Control_c, 0, 64, 86
1, 297209, Note_on_c, 0, 57, 73
1, 297218, Control_c, 0, 64, 82
1, 297233, Control_c, 0, 64, 94
1, 297247, Control_c, 0, 64, 127
1, 297277, Note_off_c, 0, 57, 60
1, 297285, Note_on_c, 0, 63, 72
1, 297355, Note_on_c, 0, 76, 96
1, 297358, Note_on_c, 0, 67, 89
1, 297370, Note_off_c, 0, 63, 60
1, 297391, Note_on_c, 0, 70, 85
1, 297411, Note_off_c, 0, 70, 72
1, 297432, Note_on_c, 0, 72, 91
1, 297442, Note_off_c, 0, 76, 64
1, 297551, Note_off_c, 0, 72, 58
1, 297611, Control_c, 0, 64, 81
1, 297620, Note_on_c, 0, 75, 71
1, 297626, Control_c, 0, 64, 0
1, 297645, Note_off_c, 0, 75, 67
1, 297650, Note_off_c, 0, 67, 60
1, 297769, Note_on_c, 0, 61, 54
1, 297772, Note_on_c, 0, 57, 46
1, 297878, Control_c, 0, 64, 66
1, 297893, Control_c, 0, 64, 94
1, 297907, Control_c, 0, 64, 127
1, 297958, Note_off_c, 0, 61, 56
1, 297982, Note_on_c, 0, 63, 62
1, 298010, Note_off_c, 0, 63, 65
1, 298049, Note_off_c, 0, 57, 37
1, 298063, Note_on_c, 0, 60, 60
1, 298071, Note_on_c, 0, 63, 73
1, 298094, Note_on_c, 0, 51, 47
1, 298096, Note_off_c, 0, 60, 66
1, 298101, Note_off_c, 0, 63, 65
1, 298165, Note_on_c, 0, 63, 71
1, 298189, Note_off_c, 0, 63, 65
1, 298262, Note_on_c, 0, 63, 67
1, 298276, Note_off_c, 0, 51, 39
1, 298283, Note_off_c, 0, 63, 64
1, 298330, Control_c, 0, 64, 98
1, 298337, Note_on_c, 0, 63, 78
1, 298340, Note_on_c, 0, 59, 70
1, 298344, Note_on_c, 0, 55, 69
1, 298344, Control_c, 0, 64, 76
1, 298359, Control_c, 0, 64, 69
1, 298362, Note_off_c, 0, 63, 60
1, 298374, Control_c, 0, 64, 74
1, 298389, Control_c, 0, 64, 82
1, 298404, Control_c, 0, 64, 98
1, 298419, Control_c, 0, 64, 127
1, 298420, Note_off_c, 0, 59, 36
1, 298428, Note_on_c, 0, 63, 73
1, 298448, Note_off_c, 0, 63, 65
1, 298497, Note_on_c, 0, 63, 83
1, 298523, Note_off_c, 0, 63, 63
1, 298582, Control_c, 0, 64, 93
1, 298584, Note_off_c, 0, 55, 36
1, 298586, Note_on_c, 0, 58, 79
1, 298592, Note_on_c, 0, 63, 59
1, 298593, Note_on_c, 0, 49, 72
1, 298597, Control_c, 0, 64, 86
1, 298610, Note_off_c, 0, 58, 67
1, 298611, Control_c, 0, 64, 89
1, 298619, Note_off_c, 0, 63, 40
1, 298626, Control_c, 0, 64, 97
1, 298641, Control_c, 0, 64, 127
1, 298698, Note_on_c, 0, 62, 21
1, 298720, Note_off_c, 0, 49, 0
1, 298737, Note_off_c, 0, 62, 45
1, 298742, Note_on_c, 0, 63, 51
1, 298756, Poly_aftertouch_c, 0, 49, 127
1, 298780, Note_off_c, 0, 63, 60
1, 298803, Control_c, 0, 64, 119
1, 298817, Poly_aftertouch_c, 0, 49, 0
1, 298818, Control_c, 0, 64, 85
1, 298833, Control_c, 0, 64, 70
1, 298845, Note_on_c, 0, 57, 75
1, 298848, Note_on_c, 0, 63, 76
1, 298848, Control_c, 0, 64, 72
1, 298849, Note_on_c, 0, 53, 74
1, 298863, Control_c, 0, 64, 81
1, 298872, Note_off_c, 0, 63, 68
1, 298878, Control_c, 0, 64, 95
1, 298893, Control_c, 0, 64, 127
1, 298894, Note_off_c, 0, 57, 56
1, 298927, Note_on_c, 0, 60, 72
1, 298952, Note_off_c, 0, 60, 69
1, 299012, Note_on_c, 0, 64, 84
1, 299038, Note_off_c, 0, 64, 68
1, 299075, Note_off_c, 0, 53, 62
1, 299108, Note_on_c, 0, 56, 81
1, 299108, Control_c, 0, 64, 96
1, 299116, Note_on_c, 0, 47, 78
1, 299116, Note_on_c, 0, 63, 83
1, 299123, Control_c, 0, 64, 74
1, 299135, Note_off_c, 0, 63, 70
1, 299137, Note_off_c, 0, 56, 66
1, 299138, Control_c, 0, 64, 66
1, 299153, Control_c, 0, 64, 69
1, 299167, Control_c, 0, 64, 75
1, 299182, Control_c, 0, 64, 83
1, 299197, Control_c, 0, 64, 97
1, 299208, Note_on_c, 0, 71, 84
1, 299212, Control_c, 0, 64, 127
1, 299232, Note_off_c, 0, 71, 66
1, 299289, Note_on_c, 0, 71, 81
1, 299301, Control_c, 0, 64, 109
1, 299307, Note_off_c, 0, 71, 73
1, 299316, Control_c, 0, 64, 87
1, 299331, Control_c, 0, 64, 71
1, 299346, Control_c, 0, 64, 67
1, 299360, Control_c, 0, 64, 71
1, 299362, Note_off_c, 0, 47, 38
1, 299375, Control_c, 0, 64, 78
1, 299377, Note_on_c, 0, 71, 77
1, 299379, Note_on_c, 0, 55, 80
1, 299383, Note_on_c, 0, 51, 74
1, 299390, Control_c, 0, 64, 85
1, 299400, Note_off_c, 0, 71, 68
1, 299405, Control_c, 0, 64, 92
1, 299434, Control_c, 0, 64, 89
1, 299449, Control_c, 0, 64, 84
1, 299458, Note_on_c, 0, 71, 81
1, 299464, Control_c, 0, 64, 81
1, 299474, Note_off_c, 0, 55, 61
1, 299480, Note_off_c, 0, 71, 71
1, 299508, Control_c, 0, 64, 82
1, 299523, Control_c, 0, 64, 83
1, 299538, Control_c, 0, 64, 85
1, 299543, Note_on_c, 0, 71, 86
1, 299552, Control_c, 0, 64, 86
1, 299562, Note_off_c, 0, 71, 68
1, 299567, Control_c, 0, 64, 88
1, 299582, Control_c, 0, 64, 92
1, 299597, Control_c, 0, 64, 95
1, 299626, Control_c, 0, 64, 89
1, 299627, Note_on_c, 0, 71, 82
1, 299634, Note_on_c, 0, 54, 88
1, 299639, Note_on_c, 0, 45, 79
1, 299641, Control_c, 0, 64, 80
1, 299647, Note_off_c, 0, 71, 72
1, 299650, Note_off_c, 0, 51, 56
1, 299656, Control_c, 0, 64, 71
1, 299671, Control_c, 0, 64, 70
1, 299687, Control_c, 0, 64, 75
1, 299693, Note_off_c, 0, 54, 56
1, 299709, Control_c, 0, 64, 80
1, 299716, Note_on_c, 0, 71, 80
1, 299724, Control_c, 0, 64, 86
1, 299739, Control_c, 0, 64, 93
1, 299743, Note_off_c, 0, 71, 64
1, 299754, Control_c, 0, 64, 96
1, 299811, Note_on_c, 0, 71, 88
1, 299813, Control_c, 0, 64, 97
1, 299828, Control_c, 0, 64, 99
1, 299841, Note_off_c, 0, 71, 65
1, 299843, Control_c, 0, 64, 103
1, 299857, Control_c, 0, 64, 103
1, 299872, Control_c, 0, 64, 95
1, 299887, Control_c, 0, 64, 81
1, 299902, Control_c, 0, 64, 68
1, 299905, Note_on_c, 0, 71, 89
1, 299909, Note_on_c, 0, 53, 83
1, 299915, Note_on_c, 0, 49, 79
1, 299915, Note_off_c, 0, 45, 63
1, 299916, Control_c, 0, 64, 66
1, 299931, Control_c, 0, 64, 74
1, 299946, Control_c, 0, 64, 84
1, 299957, Note_off_c, 0, 71, 56
1, 299961, Control_c, 0, 64, 103
1, 299976, Control_c, 0, 64, 127
1, 299995, Note_on_c, 0, 68, 90
1, 299996, Note_off_c, 0, 53, 61
1, 300036, Note_off_c, 0, 68, 65
1, 300085, Note_on_c, 0, 72, 93
1, 300122, Note_off_c, 0, 72, 68
1, 300216, Note_off_c, 0, 49, 60
1, 300237, Note_on_c, 0, 52, 84
1, 300252, Note_on_c, 0, 43, 67
1, 300258, Note_on_c, 0, 71, 98
1, 300258, Note_on_c, 0, 59, 86
1, 300258, Note_on_c, 0, 63, 95
1, 300472, Control_c, 0, 64, 114
1, 300488, Control_c, 0, 64, 91
1, 300502, Control_c, 0, 64, 70
1, 300517, Control_c, 0, 64, 0
1, 300562, Control_c, 0, 64, 35
1, 300577, Control_c, 0, 64, 66
1, 300592, Control_c, 0, 64, 81
1, 300606, Control_c, 0, 64, 114
1, 300621, Control_c, 0, 64, 127
1, 300693, Note_off_c, 0, 71, 43
1, 300726, Note_off_c, 0, 59, 38
1, 300745, Note_off_c, 0, 63, 56
1, 300845, Note_off_c, 0, 52, 52
1, 300902, Note_off_c, 0, 43, 35
1, 300934, Note_on_c, 0, 70, 86
1, 300935, Note_on_c, 0, 58, 95
1, 300939, Note_on_c, 0, 62, 79
1, 301051, Note_off_c, 0, 62, 56
1, 301080, Note_off_c, 0, 70, 51
1, 301117, Note_off_c, 0, 58, 58
1, 301236, Control_c, 0, 64, 84
1, 301241, Note_on_c, 0, 43, 86
1, 301242, Note_on_c, 0, 52, 96
1, 301251, Control_c, 0, 64, 0
1, 301255, Note_on_c, 0, 57, 87
1, 301255, Note_on_c, 0, 69, 89
1, 301256, Note_on_c, 0, 61, 95
1, 301276, Note_off_c, 0, 57, 70
1, 301284, Note_off_c, 0, 61, 64
1, 301295, Control_c, 0, 64, 49
1, 301301, Note_off_c, 0, 69, 65
1, 301310, Control_c, 0, 64, 77
1, 301311, Note_on_c, 0, 55, 85
1, 301325, Control_c, 0, 64, 127
1, 301326, Note_off_c, 0, 52, 62
1, 301331, Note_on_c, 0, 51, 70
1, 301346, Note_off_c, 0, 55, 57
1, 301355, Note_off_c, 0, 43, 50
1, 301376, Note_off_c, 0, 51, 57
1, 301459, Control_c, 0, 64, 111
1, 301468, Note_on_c, 0, 74, 96
1, 301474, Control_c, 0, 64, 73
1, 301475, Note_on_c, 0, 65, 80
1, 301488, Control_c, 0, 64, 0
1, 301489, Note_on_c, 0, 43, 71
1, 301503, Control_c, 0, 64, 51
1, 301518, Control_c, 0, 64, 69
1, 301532, Note_off_c, 0, 74, 62
1, 301533, Control_c, 0, 64, 85
1, 301534, Note_on_c, 0, 70, 85
1, 301548, Control_c, 0, 64, 115
1, 301558, Note_off_c, 0, 43, 61
1, 301562, Control_c, 0, 64, 127
1, 301577, Control_c, 0, 64, 112
1, 301578, Note_on_c, 0, 49, 68
1, 301592, Control_c, 0, 64, 80
1, 301607, Control_c, 0, 64, 63
1, 301636, Control_c, 0, 64, 72
1, 301637, Note_off_c, 0, 49, 62
1, 301651, Control_c, 0, 64, 87
1, 301657, Note_off_c, 0, 70, 56
1, 301665, Note_on_c, 0, 56, 69
1, 301666, Control_c, 0, 64, 127
1, 301687, Note_on_c, 0, 73, 87
1, 301689, Note_off_c, 0, 56, 67
1, 301735, Note_off_c, 0, 73, 64
1, 301740, Note_off_c, 0, 65, 42
1, 301760, Note_on_c, 0, 55, 79
1, 301769, Control_c, 0, 64, 94
1, 301784, Control_c, 0, 64, 78
1, 301799, Control_c, 0, 64, 82
1, 301814, Control_c, 0, 64, 108
1, 301829, Control_c, 0, 64, 127
1, 301842, Note_on_c, 0, 61, 79
1, 301842, Note_off_c, 0, 55, 62
1, 301930, Note_on_c, 0, 74, 94
1, 301931, Note_on_c, 0, 65, 90
1, 301942, Note_off_c, 0, 61, 63
1, 301971, Note_on_c, 0, 68, 84
1, 301990, Note_off_c, 0, 68, 71
1, 302009, Note_on_c, 0, 70, 93
1, 302024, Note_off_c, 0, 74, 66
1, 302192, Note_off_c, 0, 70, 50
1, 302240, Note_on_c, 0, 73, 93
1, 302267, Note_off_c, 0, 65, 60
1, 302279, Note_off_c, 0, 73, 66
1, 302311, Control_c, 0, 64, 83
1, 302326, Control_c, 0, 64, 0
1, 302593, Note_on_c, 0, 51, 36
1, 302601, Note_on_c, 0, 43, 31
1, 302603, Note_on_c, 0, 70, 58
1, 302622, Control_c, 0, 64, 51
1, 302625, Note_on_c, 0, 58, 31
1, 302627, Note_on_c, 0, 62, 30
1, 302637, Control_c, 0, 64, 79
1, 302652, Control_c, 0, 64, 101
1, 302667, Control_c, 0, 64, 127
1, 302685, Note_off_c, 0, 62, 43
1, 302723, Note_off_c, 0, 70, 37
1, 302741, Note_off_c, 0, 58, 51
1, 302787, Note_off_c, 0, 51, 43
1, 302837, Note_off_c, 0, 43, 41
1, 302883, Note_on_c, 0, 69, 56
1, 302891, Note_on_c, 0, 57, 47
1, 302896, Note_on_c, 0, 61, 46
1, 302909, Note_off_c, 0, 69, 62
1, 302923, Note_off_c, 0, 57, 55
1, 302929, Note_off_c, 0, 61, 54
1, 303132, Note_on_c, 0, 50, 45
1, 303141, Note_on_c, 0, 42, 46
1, 303161, Note_on_c, 0, 68, 50
1, 303169, Note_on_c, 0, 60, 37
1, 303170, Note_on_c, 0, 56, 41
1, 303186, Note_off_c, 0, 50, 63
1, 303203, Note_off_c, 0, 60, 53
1, 303226, Note_off_c, 0, 56, 62
1, 303242, Note_off_c, 0, 42, 38
1, 303257, Note_off_c, 0, 68, 38
1, 303356, Control_c, 0, 64, 81
1, 303371, Control_c, 0, 64, 0
1, 303391, Note_on_c, 0, 41, 66
1, 303401, Note_on_c, 0, 55, 61
1, 303404, Note_on_c, 0, 50, 59
1, 303407, Note_on_c, 0, 67, 59
1, 303415, Control_c, 0, 64, 19
1, 303416, Note_on_c, 0, 59, 34
1, 303424, Note_off_c, 0, 55, 60
1, 303430, Control_c, 0, 64, 66
1, 303439, Note_off_c, 0, 67, 64
1, 303452, Control_c, 0, 64, 80
1, 303457, Note_off_c, 0, 59, 52
1, 303463, Note_off_c, 0, 50, 64
1, 303467, Control_c, 0, 64, 109
1, 303476, Note_on_c, 0, 49, 55
1, 303476, Note_off_c, 0, 41, 53
1, 303482, Control_c, 0, 64, 127
1, 303495, Note_on_c, 0, 53, 32
1, 303506, Note_off_c, 0, 49, 64
1, 303531, Note_off_c, 0, 53, 53
1, 303586, Control_c, 0, 64, 91
1, 303601, Control_c, 0, 64, 61
1, 303615, Control_c, 0, 64, 0
1, 303618, Note_on_c, 0, 63, 63
1, 303625, Note_on_c, 0, 72, 52
1, 303645, Control_c, 0, 64, 46
1, 303650, Note_on_c, 0, 41, 52
1, 303659, Control_c, 0, 64, 67
1, 303662, Note_off_c, 0, 72, 50
1, 303675, Control_c, 0, 64, 80
1, 303685, Note_on_c, 0, 68, 61
1, 303690, Control_c, 0, 64, 101
1, 303695, Note_off_c, 0, 41, 62
1, 303705, Control_c, 0, 64, 127
1, 303712, Note_on_c, 0, 47, 61
1, 303755, Note_off_c, 0, 47, 63
1, 303764, Control_c, 0, 64, 93
1, 303779, Control_c, 0, 64, 73
1, 303794, Control_c, 0, 64, 72
1, 303795, Note_on_c, 0, 54, 51
1, 303809, Control_c, 0, 64, 83
1, 303820, Note_off_c, 0, 54, 60
1, 303823, Control_c, 0, 64, 104
1, 303838, Note_off_c, 0, 68, 39
1, 303838, Control_c, 0, 64, 127
1, 303846, Note_on_c, 0, 71, 65
1, 303877, Note_off_c, 0, 71, 62
1, 303901, Note_off_c, 0, 63, 43
1, 303910, Note_on_c, 0, 53, 68
1, 303913, Control_c, 0, 64, 111
1, 303928, Control_c, 0, 64, 121
1, 303942, Control_c, 0, 64, 127
1, 303978, Note_off_c, 0, 53, 65
1, 303994, Note_on_c, 0, 59, 68
1, 304057, Note_off_c, 0, 59, 59
1, 304072, Note_on_c, 0, 72, 71
1, 304087, Note_on_c, 0, 66, 70
1, 304088, Note_on_c, 0, 63, 64
1, 304112, Note_off_c, 0, 66, 65
1, 304149, Note_on_c, 0, 68, 76
1, 304155, Note_off_c, 0, 63, 55
1, 304285, Note_on_c, 0, 71, 72
1, 304285, Note_off_c, 0, 68, 58
1, 304290, Control_c, 0, 64, 93
1, 304303, Note_off_c, 0, 72, 21
1, 304305, Control_c, 0, 64, 53
1, 304318, Note_off_c, 0, 71, 62
1, 304320, Control_c, 0, 64, 0
1, 304347, Note_on_c, 0, 53, 82
1, 304349, Control_c, 0, 64, 31
1, 304351, Note_on_c, 0, 62, 78
1, 304364, Control_c, 0, 64, 72
1, 304379, Control_c, 0, 64, 102
1, 304394, Control_c, 0, 64, 127
1, 304401, Note_on_c, 0, 61, 83
1, 304401, Note_on_c, 0, 65, 88
1, 304404, Note_off_c, 0, 53, 62
1, 304410, Note_off_c, 0, 62, 61
1, 304420, Note_off_c, 0, 65, 72
1, 304422, Note_off_c, 0, 61, 70
1, 304531, Note_on_c, 0, 71, 71
1, 304592, Note_on_c, 0, 67, 66
1, 304602, Control_c, 0, 64, 114
1, 304617, Control_c, 0, 64, 100
1, 304631, Control_c, 0, 64, 103
1, 304642, Note_off_c, 0, 71, 36
1, 304646, Control_c, 0, 64, 124
1, 304661, Control_c, 0, 64, 127
1, 304688, Note_on_c, 0, 40, 55
1, 304732, Note_on_c, 0, 71, 10
1, 304732, Note_off_c, 0, 67, 55
1, 304765, Note_off_c, 0, 40, 63
1, 304775, Note_off_c, 0, 71, 60
1, 304778, Note_on_c, 0, 70, 68
1, 304783, Note_on_c, 0, 46, 61
1, 304806, Note_off_c, 0, 70, 66
1, 304816, Note_off_c, 0, 46, 63
1, 304840, Note_on_c, 0, 53, 66
1, 304866, Note_off_c, 0, 53, 68
1, 304938, Note_on_c, 0, 52, 65
1, 304979, Note_on_c, 0, 74, 83
1, 304987, Note_off_c, 0, 52, 61
1, 304990, Note_on_c, 0, 61, 66
1, 305007, Note_on_c, 0, 58, 70
1, 305018, Note_off_c, 0, 61, 64
1, 305062, Note_on_c, 0, 70, 85
1, 305069, Note_off_c, 0, 58, 54
1, 305071, Note_off_c, 0, 74, 64
1, 305081, Note_on_c, 0, 65, 82
1, 305132, Note_off_c, 0, 65, 60
1, 305162, Note_off_c, 0, 70, 57
1, 305197, Note_on_c, 0, 73, 83
1, 305248, Note_off_c, 0, 73, 63
1, 305262, Control_c, 0, 64, 85
1, 305278, Control_c, 0, 64, 0
1, 305299, Note_on_c, 0, 53, 85
1, 305299, Note_on_c, 0, 62, 96
1, 305322, Control_c, 0, 64, 65
1, 305337, Control_c, 0, 64, 127
1, 305339, Note_on_c, 0, 65, 99
1, 305343, Note_on_c, 0, 61, 89
1, 305355, Note_off_c, 0, 53, 67
1, 305355, Note_off_c, 0, 62, 63
1, 305371, Note_off_c, 0, 65, 67
1, 305385, Note_off_c, 0, 61, 62
1, 305449, Note_on_c, 0, 77, 91
1, 305450, Poly_aftertouch_c, 0, 55, 0
1, 305452, Note_on_c, 0, 67, 87
1, 305460, Note_on_c, 0, 71, 84
1, 305535, Note_on_c, 0, 73, 96
1, 305551, Note_off_c, 0, 77, 61
1, 305554, Note_off_c, 0, 71, 63
1, 305621, Note_off_c, 0, 67, 56
1, 305650, Note_on_c, 0, 37, 78
1, 305681, Note_off_c, 0, 73, 53
1, 305712, Note_on_c, 0, 43, 63
1, 305719, Note_on_c, 0, 76, 88
1, 305733, Note_off_c, 0, 37, 62
1, 305734, Note_on_c, 0, 67, 64
1, 305754, Note_off_c, 0, 43, 64
1, 305758, Note_off_c, 0, 67, 67
1, 305768, Note_on_c, 0, 50, 76
1, 305771, Note_off_c, 0, 76, 64
1, 305801, Note_off_c, 0, 50, 66
1, 305871, Note_on_c, 0, 49, 79
1, 305907, Note_on_c, 0, 80, 90
1, 305917, Note_on_c, 0, 71, 68
1, 305920, Note_on_c, 0, 67, 64
1, 305934, Note_on_c, 0, 72, 52
1, 305936, Note_on_c, 0, 55, 71
1, 305936, Note_off_c, 0, 71, 66
1, 305945, Note_off_c, 0, 80, 67
1, 305948, Note_off_c, 0, 67, 52
1, 305958, Note_off_c, 0, 72, 60
1, 305970, Note_off_c, 0, 49, 61
1, 305993, Poly_aftertouch_c, 0, 69, 127
1, 306010, Note_on_c, 0, 77, 98
1, 306017, Note_on_c, 0, 62, 91
1, 306027, Poly_aftertouch_c, 0, 69, 0
1, 306035, Note_off_c, 0, 55, 65
1, 306071, Note_off_c, 0, 62, 60
1, 306121, Note_off_c, 0, 77, 62
1, 306186, Note_on_c, 0, 79, 92
1, 306223, Note_off_c, 0, 79, 66
1, 306277, Control_c, 0, 64, 81
1, 306292, Control_c, 0, 64, 0
1, 306319, Note_on_c, 0, 53, 69
1, 306321, Note_on_c, 0, 62, 79
1, 306337, Control_c, 0, 64, 66
1, 306338, Note_on_c, 0, 55, 60
1, 306351, Control_c, 0, 64, 100
1, 306366, Control_c, 0, 64, 127
1, 306370, Note_off_c, 0, 55, 0
1, 306373, Note_on_c, 0, 61, 95
1, 306375, Note_on_c, 0, 65, 99
1, 306381, Note_on_c, 0, 83, 101
1, 306385, Note_on_c, 0, 55, 58
1, 306386, Note_on_c, 0, 79, 94
1, 306390, Note_off_c, 0, 53, 63
1, 306402, Note_off_c, 0, 62, 62
1, 306412, Note_off_c, 0, 55, 57
1, 306428, Note_off_c, 0, 61, 69
1, 306428, Note_off_c, 0, 65, 67
1, 306468, Note_off_c, 0, 79, 60
1, 306521, Note_off_c, 0, 83, 65
1, 306548, Note_on_c, 0, 82, 91
1, 306549, Note_on_c, 0, 73, 92
1, 306607, Note_off_c, 0, 73, 59
1, 306616, Note_off_c, 0, 82, 60
1, 306677, Note_on_c, 0, 81, 92
1, 306679, Note_on_c, 0, 77, 90
1, 306727, Note_off_c, 0, 77, 65
1, 306777, Note_on_c, 0, 80, 90
1, 306786, Note_on_c, 0, 71, 76
1, 306790, Note_off_c, 0, 81, 64
1, 306814, Note_off_c, 0, 71, 63
1, 306841, Note_off_c, 0, 80, 59
1, 306875, Note_on_c, 0, 29, 82
1, 306915, Note_on_c, 0, 83, 86
1, 306920, Note_on_c, 0, 79, 79
1, 306938, Control_c, 0, 64, 109
1, 306953, Control_c, 0, 64, 93
1, 306967, Control_c, 0, 64, 92
1, 306971, Note_off_c, 0, 79, 63
1, 306982, Control_c, 0, 64, 101
1, 306992, Note_on_c, 0, 35, 62
1, 306997, Control_c, 0, 64, 127
1, 307016, Note_off_c, 0, 83, 63
1, 307018, Note_off_c, 0, 29, 61
1, 307034, Note_on_c, 0, 82, 83
1, 307036, Note_on_c, 0, 73, 82
1, 307076, Note_off_c, 0, 35, 61
1, 307078, Note_off_c, 0, 82, 65
1, 307080, Note_on_c, 0, 43, 67
1, 307083, Note_off_c, 0, 73, 62
1, 307126, Note_off_c, 0, 43, 64
1, 307148, Note_on_c, 0, 77, 88
1, 307150, Note_on_c, 0, 81, 85
1, 307198, Note_off_c, 0, 77, 64
1, 307211, Note_on_c, 0, 41, 58
1, 307213, Note_on_c, 0, 40, 47
1, 307244, Note_on_c, 0, 80, 85
1, 307249, Note_off_c, 0, 40, 62
1, 307250, Note_on_c, 0, 71, 79
1, 307255, Note_off_c, 0, 81, 65
1, 307281, Note_on_c, 0, 47, 75
1, 307296, Note_off_c, 0, 80, 61
1, 307297, Note_off_c, 0, 41, 52
1, 307303, Note_off_c, 0, 71, 64
1, 307350, Note_on_c, 0, 79, 87
1, 307353, Note_on_c, 0, 75, 89
1, 307369, Note_on_c, 0, 55, 78
1, 307381, Note_off_c, 0, 47, 63
1, 307394, Note_off_c, 0, 75, 65
1, 307400, Note_off_c, 0, 55, 62
1, 307441, Note_on_c, 0, 78, 92
1, 307446, Note_on_c, 0, 47, 68
1, 307447, Note_on_c, 0, 69, 83
1, 307465, Note_off_c, 0, 79, 51
1, 307493, Note_off_c, 0, 69, 64
1, 307497, Note_on_c, 0, 41, 75
1, 307500, Note_off_c, 0, 78, 62
1, 307500, Note_off_c, 0, 47, 66
1, 307526, Note_off_c, 0, 41, 67
1, 307540, Note_on_c, 0, 73, 93
1, 307542, Note_on_c, 0, 77, 81
1, 307585, Note_off_c, 0, 73, 64
1, 307586, Note_on_c, 0, 43, 82
1, 307629, Note_on_c, 0, 76, 91
1, 307639, Note_on_c, 0, 67, 81
1, 307640, Note_off_c, 0, 43, 62
1, 307652, Note_off_c, 0, 77, 63
1, 307656, Control_c, 0, 64, 101
1, 307663, Note_on_c, 0, 35, 75
1, 307672, Note_off_c, 0, 67, 60
1, 307672, Control_c, 0, 64, 88
1, 307686, Control_c, 0, 64, 94
1, 307701, Control_c, 0, 64, 127
1, 307725, Note_on_c, 0, 75, 91
1, 307731, Note_on_c, 0, 29, 83
1, 307736, Note_on_c, 0, 71, 71
1, 307740, Note_off_c, 0, 76, 56
1, 307740, Note_on_c, 0, 72, 71
1, 307742, Note_off_c, 0, 35, 63
1, 307761, Note_off_c, 0, 71, 70
1, 307764, Note_off_c, 0, 72, 70
1, 307769, Note_off_c, 0, 29, 65
1, 307786, Note_off_c, 0, 75, 66
1, 307821, Note_on_c, 0, 74, 89
1, 307828, Note_on_c, 0, 65, 78
1, 307874, Note_off_c, 0, 65, 62
1, 307874, Note_off_c, 0, 74, 62
1, 307914, Note_on_c, 0, 73, 84
1, 307916, Note_on_c, 0, 69, 81
1, 307976, Note_off_c, 0, 69, 63
1, 308005, Note_on_c, 0, 72, 87
1, 308016, Note_on_c, 0, 63, 79
1, 308016, Note_off_c, 0, 73, 60
1, 308041, Note_off_c, 0, 72, 66
1, 308052, Note_off_c, 0, 63, 57
1, 308065, Control_c, 0, 64, 77
1, 308080, Control_c, 0, 64, 0
1, 308081, Note_on_c, 0, 41, 82
1, 308089, Note_on_c, 0, 50, 88
1, 308122, Note_on_c, 0, 71, 84
1, 308124, Control_c, 0, 64, 64
1, 308134, Note_on_c, 0, 65, 64
1, 308138, Note_on_c, 0, 49, 94
1, 308139, Control_c, 0, 64, 85
1, 308142, Note_on_c, 0, 66, 59
1, 308146, Note_off_c, 0, 41, 64
1, 308148, Note_on_c, 0, 53, 91
1, 308154, Control_c, 0, 64, 127
1, 308160, Note_off_c, 0, 50, 62
1, 308163, Note_on_c, 0, 67, 11
1, 308163, Note_off_c, 0, 65, 67
1, 308172, Note_off_c, 0, 49, 69
1, 308174, Note_off_c, 0, 53, 69
1, 308188, Note_off_c, 0, 71, 64
1, 308209, Note_off_c, 0, 67, 44
1, 308213, Note_on_c, 0, 70, 85
1, 308223, Note_on_c, 0, 61, 82
1, 308228, Note_off_c, 0, 66, 34
1, 308234, Note_off_c, 0, 70, 69
1, 308269, Note_off_c, 0, 61, 58
1, 308319, Note_on_c, 0, 65, 79
1, 308321, Note_on_c, 0, 69, 77
1, 308356, Note_off_c, 0, 65, 60
1, 308402, Note_on_c, 0, 68, 83
1, 308408, Note_on_c, 0, 59, 68
1, 308414, Note_off_c, 0, 69, 63
1, 308434, Note_off_c, 0, 59, 67
1, 308448, Note_off_c, 0, 68, 63
1, 308494, Note_on_c, 0, 29, 82
1, 308495, Control_c, 0, 64, 100
1, 308510, Control_c, 0, 64, 70
1, 308521, Note_on_c, 0, 71, 74
1, 308525, Note_on_c, 0, 67, 72
1, 308525, Control_c, 0, 64, 0
1, 308567, Note_off_c, 0, 71, 62
1, 308568, Note_off_c, 0, 67, 60
1, 308569, Control_c, 0, 64, 62
1, 308584, Control_c, 0, 64, 73
1, 308587, Note_on_c, 0, 35, 66
1, 308597, Note_off_c, 0, 29, 63
1, 308599, Control_c, 0, 64, 87
1, 308614, Control_c, 0, 64, 116
1, 308615, Note_on_c, 0, 70, 74
1, 308621, Note_on_c, 0, 61, 80
1, 308628, Control_c, 0, 64, 127
1, 308650, Note_off_c, 0, 35, 61
1, 308658, Note_on_c, 0, 43, 64
1, 308658, Note_off_c, 0, 61, 60
1, 308658, Note_off_c, 0, 70, 60
1, 308693, Note_off_c, 0, 43, 64
1, 308728, Note_on_c, 0, 65, 83
1, 308729, Note_on_c, 0, 69, 82
1, 308771, Note_off_c, 0, 65, 58
1, 308772, Note_on_c, 0, 40, 37
1, 308807, Note_on_c, 0, 68, 87
1, 308814, Note_on_c, 0, 59, 81
1, 308817, Note_off_c, 0, 69, 58
1, 308818, Note_off_c, 0, 40, 47
1, 308834, Note_on_c, 0, 47, 65
1, 308851, Note_off_c, 0, 68, 66
1, 308864, Note_off_c, 0, 59, 61
1, 308888, Poly_aftertouch_c, 0, 41, 0
1, 308906, Note_on_c, 0, 55, 75
1, 308914, Note_on_c, 0, 63, 89
1, 308916, Note_on_c, 0, 67, 83
1, 308918, Control_c, 0, 64, 91
1, 308919, Note_off_c, 0, 47, 63
1, 308932, Note_off_c, 0, 55, 66
1, 308932, Control_c, 0, 64, 82
1, 308947, Control_c, 0, 64, 83
1, 308962, Control_c, 0, 64, 88
1, 308962, Note_off_c, 0, 67, 45
1, 308968, Poly_aftertouch_c, 0, 47, 0
1, 308977, Control_c, 0, 64, 98
1, 308978, Note_on_c, 0, 47, 53
1, 308991, Control_c, 0, 64, 127
1, 308995, Note_off_c, 0, 63, 38
1, 308999, Note_on_c, 0, 66, 84
1, 309001, Note_on_c, 0, 41, 73
1, 309003, Note_on_c, 0, 57, 78
1, 309019, Note_off_c, 0, 47, 65
1, 309038, Note_off_c, 0, 57, 62
1, 309044, Note_off_c, 0, 41, 63
1, 309044, Note_off_c, 0, 66, 65
1, 309095, Note_on_c, 0, 65, 83
1, 309096, Note_on_c, 0, 61, 89
1, 309106, Note_on_c, 0, 43, 76
1, 309138, Note_off_c, 0, 43, 66
1, 309143, Note_off_c, 0, 61, 62
1, 309174, Note_on_c, 0, 35, 70
1, 309184, Note_on_c, 0, 64, 83
1, 309195, Note_on_c, 0, 55, 73
1, 309201, Note_off_c, 0, 65, 62
1, 309213, Control_c, 0, 64, 97
1, 309225, Note_off_c, 0, 55, 62
1, 309228, Control_c, 0, 64, 70
1, 309243, Control_c, 0, 64, 0
1, 309248, Note_off_c, 0, 64, 52
1, 309251, Note_off_c, 0, 35, 64
1, 309256, Note_on_c, 0, 29, 83
1, 309274, Control_c, 0, 64, 57
1, 309284, Note_on_c, 0, 63, 78
1, 309284, Note_on_c, 0, 59, 80
1, 309288, Control_c, 0, 64, 72
1, 309289, Note_off_c, 0, 29, 67
1, 309303, Control_c, 0, 64, 81
1, 309318, Control_c, 0, 64, 81
1, 309333, Control_c, 0, 64, 76
1, 309335, Note_off_c, 0, 59, 52
1, 309348, Control_c, 0, 64, 69
1, 309353, Note_off_c, 0, 63, 61
1, 309362, Note_on_c, 0, 62, 78
1, 309362, Control_c, 0, 64, 64
1, 309377, Control_c, 0, 64, 66
1, 309389, Note_on_c, 0, 53, 54
1, 309392, Control_c, 0, 64, 68
1, 309407, Control_c, 0, 64, 70
1, 309418, Note_off_c, 0, 53, 64
1, 309421, Control_c, 0, 64, 74
1, 309426, Note_off_c, 0, 62, 56
1, 309444, Control_c, 0, 64, 78
1, 309459, Control_c, 0, 64, 80
1, 309468, Note_on_c, 0, 61, 70
1, 309474, Note_on_c, 0, 57, 66
1, 309474, Control_c, 0, 64, 81
1, 309489, Control_c, 0, 64, 83
1, 309503, Control_c, 0, 64, 85
1, 309508, Note_off_c, 0, 57, 62
1, 309518, Control_c, 0, 64, 89
1, 309533, Control_c, 0, 64, 93
1, 309548, Control_c, 0, 64, 98
1, 309549, Note_on_c, 0, 60, 74
1, 309563, Control_c, 0, 64, 101
1, 309564, Note_on_c, 0, 51, 74
1, 309572, Note_off_c, 0, 60, 69
1, 309572, Note_off_c, 0, 61, 64
1, 309577, Control_c, 0, 64, 100
1, 309592, Control_c, 0, 64, 90
1, 309594, Note_off_c, 0, 51, 66
1, 309607, Control_c, 0, 64, 77
1, 309621, Control_c, 0, 64, 68
1, 309636, Control_c, 0, 64, 70
1, 309651, Control_c, 0, 64, 77
1, 309656, Note_on_c, 0, 57, 75
1, 309666, Control_c, 0, 64, 84
1, 309668, Note_on_c, 0, 53, 59
1, 309681, Control_c, 0, 64, 87
1, 309697, Note_off_c, 0, 53, 58
1, 309710, Control_c, 0, 64, 86
1, 309722, Note_off_c, 0, 57, 55
1, 309763, Note_on_c, 0, 58, 45
1, 309764, Note_on_c, 0, 49, 61
1, 309787, Note_off_c, 0, 49, 62
1, 309794, Note_off_c, 0, 58, 58
1, 309800, Control_c, 0, 64, 86
1, 309814, Control_c, 0, 64, 83
1, 309829, Control_c, 0, 64, 78
1, 309844, Control_c, 0, 64, 70
1, 309849, Note_on_c, 0, 53, 67
1, 309851, Note_on_c, 0, 57, 59
1, 309859, Control_c, 0, 64, 67
1, 309874, Control_c, 0, 64, 70
1, 309888, Control_c, 0, 64, 76
1, 309892, Note_off_c, 0, 53, 64
1, 309903, Control_c, 0, 64, 83
1, 309914, Note_on_c, 0, 56, 61
1, 309918, Control_c, 0, 64, 91
1, 309933, Control_c, 0, 64, 95
1, 309936, Note_off_c, 0, 57, 56
1, 309948, Note_off_c, 0, 56, 64
1, 309948, Control_c, 0, 64, 94
1, 309962, Control_c, 0, 64, 92
1, 309977, Control_c, 0, 64, 87
1, 309985, Note_on_c, 0, 47, 3
1, 309992, Control_c, 0, 64, 82
1, 310007, Control_c, 0, 64, 81
1, 310021, Control_c, 0, 64, 83
1, 310027, Note_off_c, 0, 47, 38
1, 310031, Note_on_c, 0, 59, 64
1, 310036, Control_c, 0, 64, 86
1, 310050, Note_on_c, 0, 55, 49
1, 310051, Control_c, 0, 64, 86
1, 310067, Control_c, 0, 64, 80
1, 310077, Note_off_c, 0, 55, 60
1, 310082, Control_c, 0, 64, 72
1, 310097, Control_c, 0, 64, 64
1, 310099, Note_off_c, 0, 59, 37
1, 310119, Note_on_c, 0, 58, 54
1, 310125, Note_on_c, 0, 49, 65
1, 310126, Control_c, 0, 64, 66
1, 310139, Note_on_c, 0, 61, 66
1, 310141, Control_c, 0, 64, 68
1, 310144, Note_off_c, 0, 58, 63
1, 310152, Note_off_c, 0, 49, 65
1, 310163, Note_off_c, 0, 61, 65
1, 310171, Control_c, 0, 64, 67
1, 310186, Control_c, 0, 64, 66
1, 310223, Control_c, 0, 64, 66
1, 310226, Note_on_c, 0, 61, 74
1, 310235, Note_on_c, 0, 57, 49
1, 310237, Control_c, 0, 64, 67
1, 310239, Note_on_c, 0, 53, 53
1, 310251, Control_c, 0, 64, 68
1, 310252, Note_off_c, 0, 61, 62
1, 310266, Control_c, 0, 64, 69
1, 310270, Note_off_c, 0, 53, 66
1, 310281, Control_c, 0, 64, 69
1, 310295, Note_off_c, 0, 57, 61
1, 310296, Control_c, 0, 64, 71
1, 310305, Note_on_c, 0, 61, 73
1, 310307, Note_on_c, 0, 56, 62
1, 310311, Control_c, 0, 64, 74
1, 310325, Control_c, 0, 64, 79
1, 310339, Note_on_c, 0, 47, 50
1, 310339, Note_off_c, 0, 61, 63
1, 310340, Control_c, 0, 64, 85
1, 310346, Note_off_c, 0, 56, 62
1, 310355, Control_c, 0, 64, 87
1, 310369, Note_off_c, 0, 47, 63
1, 310370, Control_c, 0, 64, 84
1, 310385, Control_c, 0, 64, 75
1, 310399, Control_c, 0, 64, 63
1, 310414, Control_c, 0, 64, 36
1, 310429, Control_c, 0, 64, 61
1, 310444, Control_c, 0, 64, 67
1, 310450, Note_on_c, 0, 59, 67
1, 310454, Note_on_c, 0, 55, 65
1, 310459, Control_c, 0, 64, 73
1, 310464, Poly_aftertouch_c, 0, 61, 127
1, 310474, Control_c, 0, 64, 79
1, 310487, Poly_aftertouch_c, 0, 61, 0
1, 310489, Control_c, 0, 64, 80
1, 310492, Note_off_c, 0, 55, 62
1, 310503, Control_c, 0, 64, 79
1, 310518, Control_c, 0, 64, 77
1, 310522, Note_off_c, 0, 59, 55
1, 310533, Control_c, 0, 64, 75
1, 310548, Control_c, 0, 64, 75
1, 310565, Note_on_c, 0, 49, 57
1, 310569, Note_on_c, 0, 58, 33
1, 310592, Control_c, 0, 64, 72
1, 310593, Note_off_c, 0, 49, 62
1, 310604, Note_off_c, 0, 58, 0
1, 310604, Note_on_c, 0, 58, 40
1, 310607, Control_c, 0, 64, 67
1, 310622, Control_c, 0, 64, 64
1, 310636, Control_c, 0, 64, 65
1, 310651, Control_c, 0, 64, 67
1, 310666, Control_c, 0, 64, 69
1, 310667, Note_on_c, 0, 53, 57
1, 310674, Note_off_c, 0, 58, 62
1, 310675, Note_on_c, 0, 57, 46
1, 310681, Control_c, 0, 64, 71
1, 310686, Note_on_c, 0, 62, 76
1, 310696, Control_c, 0, 64, 73
1, 310703, Note_off_c, 0, 53, 67
1, 310710, Note_off_c, 0, 57, 62
1, 310710, Control_c, 0, 64, 73
1, 310719, Note_on_c, 0, 56, 65
1, 310725, Control_c, 0, 64, 75
1, 310727, Note_off_c, 0, 62, 62
1, 310740, Control_c, 0, 64, 78
1, 310754, Note_on_c, 0, 47, 46
1, 310757, Note_off_c, 0, 56, 62
1, 310758, Note_on_c, 0, 61, 85
1, 310769, Control_c, 0, 64, 75
1, 310783, Note_off_c, 0, 47, 57
1, 310784, Control_c, 0, 64, 69
1, 310799, Control_c, 0, 64, 65
1, 310814, Control_c, 0, 64, 67
1, 310829, Control_c, 0, 64, 71
1, 310833, Note_off_c, 0, 61, 61
1, 310843, Control_c, 0, 64, 75
1, 310858, Control_c, 0, 64, 78
1, 310861, Note_on_c, 0, 59, 56
1, 310864, Note_on_c, 0, 55, 52
1, 310889, Control_c, 0, 64, 76
1, 310904, Control_c, 0, 64, 72
1, 310909, Note_off_c, 0, 55, 62
1, 310919, Control_c, 0, 64, 70
1, 310927, Note_off_c, 0, 59, 54
1, 310941, Control_c, 0, 64, 72
1, 310956, Control_c, 0, 64, 74
1, 310965, Note_on_c, 0, 58, 51
1, 310971, Control_c, 0, 64, 77
1, 310975, Note_on_c, 0, 49, 56
1, 310985, Control_c, 0, 64, 80
1, 310991, Note_off_c, 0, 58, 59
1, 310999, Control_c, 0, 64, 82
1, 311004, Note_off_c, 0, 49, 64
1, 311086, Note_on_c, 0, 53, 53
1, 311088, Control_c, 0, 64, 81
1, 311094, Note_on_c, 0, 57, 45
1, 311118, Control_c, 0, 64, 81
1, 311122, Note_off_c, 0, 53, 66
1, 311141, Note_off_c, 0, 57, 60
1, 311166, Note_on_c, 0, 56, 52
1, 311185, Note_on_c, 0, 47, 47
1, 311200, Note_off_c, 0, 56, 64
1, 311213, Note_off_c, 0, 47, 57
1, 311222, Control_c, 0, 64, 81
1, 311252, Control_c, 0, 64, 79
1, 311266, Control_c, 0, 64, 72
1, 311281, Control_c, 0, 64, 62
1, 311296, Control_c, 0, 64, 62
1, 311299, Note_on_c, 0, 41, 68
1, 311310, Note_on_c, 0, 29, 49
1, 311311, Control_c, 0, 64, 65
1, 311326, Control_c, 0, 64, 69
1, 311329, Note_off_c, 0, 41, 64
1, 311333, Note_on_c, 0, 59, 42
1, 311340, Control_c, 0, 64, 73
1, 311346, Note_on_c, 0, 55, 38
1, 311347, Note_off_c, 0, 29, 51
1, 311355, Control_c, 0, 64, 78
1, 311370, Control_c, 0, 64, 82
1, 311376, Note_off_c, 0, 59, 60
1, 311381, Poly_aftertouch_c, 0, 54, 0
1, 311382, Note_off_c, 0, 55, 53
1, 311384, Control_c, 0, 64, 83
1, 311410, Note_on_c, 0, 58, 41
1, 311413, Note_on_c, 0, 49, 55
1, 311439, Note_off_c, 0, 58, 55
1, 311443, Note_off_c, 0, 49, 64
1, 311488, Control_c, 0, 64, 81
1, 311503, Control_c, 0, 64, 77
1, 311518, Control_c, 0, 64, 71
1, 311532, Note_on_c, 0, 53, 48
1, 311532, Control_c, 0, 64, 68
1, 311545, Note_on_c, 0, 57, 25
1, 311547, Control_c, 0, 64, 69
1, 311562, Control_c, 0, 64, 72
1, 311565, Note_off_c, 0, 53, 66
1, 311577, Control_c, 0, 64, 74
1, 311579, Note_off_c, 0, 57, 49
1, 311591, Note_on_c, 0, 56, 46
1, 311591, Control_c, 0, 64, 76
1, 311621, Control_c, 0, 64, 75
1, 311624, Note_off_c, 0, 56, 64
1, 311636, Control_c, 0, 64, 73
1, 311667, Control_c, 0, 64, 75
1, 311689, Control_c, 0, 64, 77
1, 311704, Control_c, 0, 64, 79
1, 311735, Control_c, 0, 64, 79
1, 311739, Note_on_c, 0, 59, 45
1, 311749, Control_c, 0, 64, 78
1, 311759, Note_on_c, 0, 55, 35
1, 311778, Note_off_c, 0, 59, 50
1, 311794, Note_off_c, 0, 55, 52
1, 311809, Control_c, 0, 64, 78
1, 311824, Note_on_c, 0, 61, 70
1, 311842, Note_on_c, 0, 58, 39
1, 311848, Note_on_c, 0, 49, 49
1, 311853, Note_off_c, 0, 61, 65
1, 311873, Note_off_c, 0, 49, 59
1, 311875, Note_off_c, 0, 58, 53
1, 311912, Control_c, 0, 64, 78
1, 311919, Note_on_c, 0, 61, 63
1, 311927, Control_c, 0, 64, 77
1, 311948, Note_off_c, 0, 61, 59
1, 311970, Note_on_c, 0, 53, 25
1, 311974, Note_on_c, 0, 57, 38
1, 312005, Note_on_c, 0, 61, 41
1, 312005, Note_off_c, 0, 53, 50
1, 312011, Note_off_c, 0, 57, 59
1, 312015, Control_c, 0, 64, 78
1, 312030, Control_c, 0, 64, 78
1, 312033, Note_on_c, 0, 56, 53
1, 312045, Control_c, 0, 64, 79
1, 312048, Note_off_c, 0, 61, 61
1, 312060, Control_c, 0, 64, 80
1, 312070, Note_off_c, 0, 56, 63
1, 312072, Note_on_c, 0, 47, 39
1, 312075, Control_c, 0, 64, 81
1, 312104, Control_c, 0, 64, 78
1, 312110, Note_off_c, 0, 47, 51
1, 312119, Control_c, 0, 64, 72
1, 312127, Note_on_c, 0, 61, 85
1, 312134, Control_c, 0, 64, 60
1, 312149, Control_c, 0, 64, 52
1, 312156, Note_off_c, 0, 61, 62
1, 312164, Control_c, 0, 64, 62
1, 312179, Control_c, 0, 64, 67
1, 312194, Control_c, 0, 64, 71
1, 312204, Note_on_c, 0, 59, 50
1, 312208, Control_c, 0, 64, 76
1, 312223, Control_c, 0, 64, 79
1, 312229, Note_on_c, 0, 55, 26
1, 312238, Control_c, 0, 64, 79
1, 312250, Note_off_c, 0, 59, 55
1, 312253, Control_c, 0, 64, 78
1, 312268, Control_c, 0, 64, 78
1, 312271, Note_off_c, 0, 55, 44
1, 312297, Control_c, 0, 64, 77
1, 312301, Note_on_c, 0, 58, 60
1, 312312, Control_c, 0, 64, 75
1, 312327, Control_c, 0, 64, 70
1, 312342, Control_c, 0, 64, 66
1, 312356, Control_c, 0, 64, 65
1, 312362, Note_off_c, 0, 58, 62
1, 312371, Control_c, 0, 64, 66
1, 312380, Note_on_c, 0, 62, 72
1, 312386, Control_c, 0, 64, 67
1, 312401, Control_c, 0, 64, 69
1, 312415, Control_c, 0, 64, 68
1, 312417, Note_on_c, 0, 57, 32
1, 312424, Note_on_c, 0, 53, 27
1, 312438, Control_c, 0, 64, 66
1, 312445, Note_off_c, 0, 62, 48
1, 312453, Control_c, 0, 64, 64
1, 312457, Note_off_c, 0, 57, 55
1, 312468, Note_on_c, 0, 56, 61
1, 312468, Note_on_c, 0, 61, 76
1, 312468, Control_c, 0, 64, 65
1, 312473, Note_off_c, 0, 53, 45
1, 312483, Control_c, 0, 64, 66
1, 312498, Control_c, 0, 64, 68
1, 312503, Note_off_c, 0, 56, 66
1, 312512, Control_c, 0, 64, 72
1, 312527, Note_on_c, 0, 47, 25
1, 312527, Control_c, 0, 64, 76
1, 312542, Control_c, 0, 64, 78
1, 312571, Note_off_c, 0, 47, 41
1, 312572, Control_c, 0, 64, 78
1, 312586, Control_c, 0, 64, 74
1, 312601, Control_c, 0, 64, 68
1, 312605, Note_on_c, 0, 59, 53
1, 312606, Note_off_c, 0, 61, 62
1, 312616, Control_c, 0, 64, 64
1, 312625, Note_on_c, 0, 55, 44
1, 312631, Control_c, 0, 64, 68
1, 312645, Control_c, 0, 64, 74
1, 312660, Control_c, 0, 64, 81
1, 312664, Note_off_c, 0, 55, 61
1, 312675, Control_c, 0, 64, 89
1, 312676, Note_off_c, 0, 59, 38
1, 312690, Control_c, 0, 64, 95
1, 312705, Control_c, 0, 64, 97
1, 312711, Note_on_c, 0, 58, 49
1, 312721, Note_on_c, 0, 49, 53
1, 312738, Note_off_c, 0, 58, 57
1, 312750, Note_off_c, 0, 49, 62
1, 312829, Note_on_c, 0, 53, 56
1, 312853, Note_on_c, 0, 57, 30
1, 312863, Note_off_c, 0, 53, 66
1, 312867, Control_c, 0, 64, 97
1, 312882, Control_c, 0, 64, 96
1, 312891, Note_off_c, 0, 57, 51
1, 312897, Control_c, 0, 64, 96
1, 312909, Note_on_c, 0, 56, 48
1, 312927, Control_c, 0, 64, 95
1, 312930, Note_on_c, 0, 47, 37
1, 312945, Note_off_c, 0, 56, 64
1, 312966, Note_off_c, 0, 47, 54
1, 312971, Control_c, 0, 64, 95
1, 312986, Control_c, 0, 64, 94
1, 313001, Control_c, 0, 64, 93
1, 313045, Control_c, 0, 64, 93
1, 313060, Control_c, 0, 64, 92
1, 313075, Control_c, 0, 64, 88
1, 313090, Control_c, 0, 64, 77
1, 313105, Control_c, 0, 64, 64
1, 313112, Note_on_c, 0, 59, 49
1, 313119, Control_c, 0, 64, 29
1, 313131, Note_on_c, 0, 51, 35
1, 313134, Control_c, 0, 64, 42
1, 313139, Note_off_c, 0, 59, 60
1, 313141, Note_on_c, 0, 65, 50
1, 313149, Control_c, 0, 64, 58
1, 313153, Note_on_c, 0, 69, 41
1, 313163, Control_c, 0, 64, 65
1, 313165, Note_off_c, 0, 51, 59
1, 313186, Control_c, 0, 64, 71
1, 313195, Note_off_c, 0, 65, 61
1, 313201, Control_c, 0, 64, 77
1, 313216, Control_c, 0, 64, 83
1, 313231, Control_c, 0, 64, 88
1, 313245, Control_c, 0, 64, 90
1, 313256, Note_on_c, 0, 59, 48
1, 313258, Note_off_c, 0, 69, 53
1, 313261, Control_c, 0, 64, 90
1, 313262, Note_on_c, 0, 68, 60
1, 313297, Note_off_c, 0, 68, 62
1, 313302, Note_off_c, 0, 59, 61
1, 313320, Control_c, 0, 64, 91
1, 313335, Control_c, 0, 64, 92
1, 313350, Control_c, 0, 64, 94
1, 313365, Control_c, 0, 64, 95
1, 313371, Note_on_c, 0, 63, 65
1, 313387, Note_on_c, 0, 67, 54
1, 313418, Poly_aftertouch_c, 0, 29, 127
1, 313423, Poly_aftertouch_c, 0, 41, 127
1, 313432, Note_off_c, 0, 67, 57
1, 313447, Note_off_c, 0, 63, 53
1, 313449, Poly_aftertouch_c, 0, 41, 0
1, 313459, Poly_aftertouch_c, 0, 29, 0
1, 313460, Note_on_c, 0, 66, 57
1, 313461, Note_on_c, 0, 57, 52
1, 313481, Note_off_c, 0, 66, 63
1, 313487, Note_off_c, 0, 57, 58
1, 313513, Control_c, 0, 64, 89
1, 313528, Control_c, 0, 64, 79
1, 313542, Control_c, 0, 64, 66
1, 313557, Control_c, 0, 64, 48
1, 313572, Control_c, 0, 64, 49
1, 313575, Note_on_c, 0, 69, 60
1, 313576, Note_on_c, 0, 65, 55
1, 313580, Note_on_c, 0, 63, 54
1, 313586, Control_c, 0, 64, 54
1, 313589, Note_on_c, 0, 59, 54
1, 313601, Control_c, 0, 64, 59
1, 313616, Control_c, 0, 64, 64
1, 313631, Control_c, 0, 64, 67
1, 313646, Control_c, 0, 64, 70
1, 313652, Note_off_c, 0, 63, 53
1, 313660, Control_c, 0, 64, 68
1, 313672, Note_off_c, 0, 59, 37
1, 313675, Control_c, 0, 64, 66
1, 313684, Note_on_c, 0, 62, 55
1, 313690, Control_c, 0, 64, 63
1, 313694, Note_on_c, 0, 53, 41
1, 313705, Control_c, 0, 64, 62
1, 313710, Note_off_c, 0, 65, 47
1, 313720, Control_c, 0, 64, 64
1, 313723, Note_off_c, 0, 62, 57
1, 313735, Control_c, 0, 64, 67
1, 313750, Control_c, 0, 64, 70
1, 313765, Control_c, 0, 64, 74
1, 313768, Note_off_c, 0, 53, 43
1, 313779, Control_c, 0, 64, 76
1, 313786, Note_on_c, 0, 61, 57
1, 313792, Note_on_c, 0, 57, 50
1, 313794, Control_c, 0, 64, 77
1, 313821, Note_off_c, 0, 61, 61
1, 313822, Note_off_c, 0, 57, 63
1, 313854, Control_c, 0, 64, 78
1, 313868, Control_c, 0, 64, 79
1, 313871, Note_on_c, 0, 51, 50
1, 313877, Note_on_c, 0, 60, 54
1, 313883, Control_c, 0, 64, 81
1, 313898, Control_c, 0, 64, 80
1, 313905, Note_off_c, 0, 60, 65
1, 313913, Control_c, 0, 64, 76
1, 313928, Control_c, 0, 64, 69
1, 313949, Control_c, 0, 64, 65
1, 313964, Control_c, 0, 64, 66
1, 313979, Note_on_c, 0, 59, 53
1, 313979, Note_on_c, 0, 63, 53
1, 313979, Control_c, 0, 64, 69
1, 313994, Control_c, 0, 64, 73
1, 313999, Note_off_c, 0, 51, 60
1, 314003, Note_off_c, 0, 63, 62
1, 314009, Control_c, 0, 64, 77
1, 314009, Note_off_c, 0, 59, 64
1, 314024, Control_c, 0, 64, 78
1, 314031, Note_off_c, 0, 69, 57
1, 314054, Control_c, 0, 64, 77
1, 314054, Note_on_c, 0, 68, 60
1, 314089, Note_off_c, 0, 68, 61
1, 314092, Note_on_c, 0, 59, 42
1, 314127, Note_off_c, 0, 59, 50
1, 314128, Control_c, 0, 64, 78
1, 314143, Control_c, 0, 64, 78
1, 314170, Note_on_c, 0, 63, 59
1, 314182, Note_on_c, 0, 67, 47
1, 314203, Control_c, 0, 64, 79
1, 314210, Note_off_c, 0, 63, 57
1, 314217, Control_c, 0, 64, 80
1, 314230, Note_off_c, 0, 67, 56
1, 314232, Control_c, 0, 64, 83
1, 314247, Control_c, 0, 64, 83
1, 314255, Note_on_c, 0, 66, 68
1, 314262, Control_c, 0, 64, 80
1, 314272, Note_on_c, 0, 57, 43
1, 314277, Control_c, 0, 64, 75
1, 314291, Control_c, 0, 64, 68
1, 314294, Note_off_c, 0, 66, 54
1, 314305, Note_off_c, 0, 57, 52
1, 314306, Control_c, 0, 64, 64
1, 314321, Control_c, 0, 64, 66
1, 314336, Control_c, 0, 64, 67
1, 314351, Control_c, 0, 64, 69
1, 314360, Note_on_c, 0, 59, 53
1, 314372, Note_on_c, 0, 63, 61
1, 314380, Control_c, 0, 64, 68
1, 314395, Control_c, 0, 64, 68
1, 314419, Note_off_c, 0, 59, 53
1, 314439, Control_c, 0, 64, 68
1, 314452, Note_on_c, 0, 53, 45
1, 314454, Note_off_c, 0, 63, 60
1, 314454, Control_c, 0, 64, 69
1, 314464, Note_on_c, 0, 62, 57
1, 314469, Control_c, 0, 64, 70
1, 314480, Note_off_c, 0, 53, 60
1, 314483, Control_c, 0, 64, 72
1, 314498, Control_c, 0, 64, 75
1, 314500, Note_off_c, 0, 62, 61
1, 314513, Control_c, 0, 64, 79
1, 314528, Control_c, 0, 64, 81
1, 314557, Control_c, 0, 64, 77
1, 314560, Note_on_c, 0, 61, 62
1, 314562, Note_on_c, 0, 57, 50
1, 314572, Control_c, 0, 64, 72
1, 314587, Control_c, 0, 64, 68
1, 314602, Note_off_c, 0, 61, 63
1, 314602, Control_c, 0, 64, 68
1, 314617, Control_c, 0, 64, 70
1, 314617, Note_off_c, 0, 57, 49
1, 314632, Control_c, 0, 64, 73
1, 314647, Control_c, 0, 64, 76
1, 314662, Control_c, 0, 64, 80
1, 314666, Note_on_c, 0, 60, 45
1, 314683, Control_c, 0, 64, 82
1, 314698, Control_c, 0, 64, 82
1, 314713, Note_off_c, 0, 60, 64
1, 314733, Poly_aftertouch_c, 0, 50, 127
1, 314739, Note_on_c, 0, 55, 57
1, 314741, Note_on_c, 0, 59, 56
1, 314759, Poly_aftertouch_c, 0, 50, 0
1, 314787, Note_off_c, 0, 55, 47
1, 314799, Note_off_c, 0, 59, 40
1, 314803, Control_c, 0, 64, 84
1, 314817, Control_c, 0, 64, 85
1, 314823, Note_on_c, 0, 58, 63
1, 314832, Control_c, 0, 64, 87
1, 314833, Note_on_c, 0, 49, 54
1, 314844, Note_off_c, 0, 58, 63
1, 314847, Control_c, 0, 64, 86
1, 314863, Control_c, 0, 64, 82
1, 314868, Note_off_c, 0, 49, 64
1, 314878, Control_c, 0, 64, 74
1, 314893, Control_c, 0, 64, 67
1, 314907, Control_c, 0, 64, 66
1, 314922, Control_c, 0, 64, 69
1, 314933, Note_on_c, 0, 69, 71
1, 314937, Control_c, 0, 64, 72
1, 314940, Note_on_c, 0, 41, 36
1, 314952, Control_c, 0, 64, 77
1, 314967, Control_c, 0, 64, 80
1, 314978, Note_off_c, 0, 41, 44
1, 314981, Note_off_c, 0, 69, 60
1, 314981, Control_c, 0, 64, 81
1, 314986, Note_on_c, 0, 65, 77
1, 315070, Control_c, 0, 64, 82
1, 315075, Note_off_c, 0, 65, 48
1, 315085, Control_c, 0, 64, 84
1, 315100, Note_on_c, 0, 68, 69
1, 315100, Control_c, 0, 64, 84
1, 315115, Control_c, 0, 64, 81
1, 315128, Note_off_c, 0, 68, 65
1, 315130, Control_c, 0, 64, 73
1, 315145, Control_c, 0, 64, 65
1, 315159, Control_c, 0, 64, 64
1, 315174, Control_c, 0, 64, 69
1, 315177, Note_on_c, 0, 50, 43
1, 315189, Control_c, 0, 64, 74
1, 315198, Note_on_c, 0, 58, 35
1, 315199, Note_on_c, 0, 61, 75
1, 315204, Control_c, 0, 64, 80
1, 315210, Note_off_c, 0, 50, 57
1, 315219, Control_c, 0, 64, 82
1, 315221, Note_on_c, 0, 57, 47
1, 315225, Note_off_c, 0, 61, 67
1, 315233, Control_c, 0, 64, 81
1, 315240, Note_off_c, 0, 58, 49
1, 315248, Control_c, 0, 64, 78
1, 315249, Note_off_c, 0, 57, 55
1, 315263, Control_c, 0, 64, 76
1, 315273, Note_on_c, 0, 67, 73
1, 315278, Control_c, 0, 64, 76
1, 315293, Control_c, 0, 64, 78
1, 315307, Control_c, 0, 64, 80
1, 315322, Control_c, 0, 64, 82
1, 315330, Note_off_c, 0, 67, 61
1, 315335, Note_on_c, 0, 63, 68
1, 315337, Control_c, 0, 64, 84
1, 315351, Control_c, 0, 64, 85
1, 315396, Control_c, 0, 64, 84
1, 315405, Note_off_c, 0, 63, 54
1, 315411, Control_c, 0, 64, 84
1, 315461, Note_on_c, 0, 66, 66
1, 315478, Control_c, 0, 64, 85
1, 315487, Note_off_c, 0, 66, 67
1, 315493, Control_c, 0, 64, 85
1, 315507, Control_c, 0, 64, 85
1, 315522, Control_c, 0, 64, 81
1, 315537, Control_c, 0, 64, 75
1, 315552, Control_c, 0, 64, 70
1, 315566, Control_c, 0, 64, 69
1, 315577, Note_on_c, 0, 29, 64
1, 315581, Control_c, 0, 64, 70
1, 315588, Note_on_c, 0, 41, 63
1, 315592, Note_on_c, 0, 58, 62
1, 315595, Note_on_c, 0, 49, 60
1, 315596, Control_c, 0, 64, 72
1, 315609, Note_off_c, 0, 29, 58
1, 315611, Control_c, 0, 64, 72
1, 315619, Note_off_c, 0, 41, 63
1, 315621, Note_off_c, 0, 58, 66
1, 315634, Note_on_c, 0, 61, 64
1, 315640, Control_c, 0, 64, 71
1, 315656, Control_c, 0, 64, 70
1, 315671, Control_c, 0, 64, 69
1, 315679, Note_on_c, 0, 57, 52
1, 315686, Control_c, 0, 64, 68
1, 315701, Control_c, 0, 64, 67
1, 315712, Note_off_c, 0, 49, 0
1, 315716, Control_c, 0, 64, 66
1, 315733, Note_on_c, 0, 41, 66
1, 315749, Poly_aftertouch_c, 0, 49, 127
1, 315767, Note_off_c, 0, 41, 64
1, 315808, Note_off_c, 0, 57, 53
1, 315819, Control_c, 0, 64, 67
1, 315845, Note_on_c, 0, 41, 41
1, 315849, Control_c, 0, 64, 67
1, 315863, Control_c, 0, 64, 68
1, 315868, Poly_aftertouch_c, 0, 49, 0
1, 315878, Control_c, 0, 64, 68
1, 315893, Control_c, 0, 64, 69
1, 315894, Note_off_c, 0, 61, 51
1, 315908, Control_c, 0, 64, 70
1, 315918, Note_off_c, 0, 41, 60
1, 315923, Control_c, 0, 64, 69
1, 315938, Control_c, 0, 64, 66
1, 315952, Control_c, 0, 64, 62
1, 315959, Note_on_c, 0, 41, 54
1, 315967, Control_c, 0, 64, 61
1, 315982, Control_c, 0, 64, 64
1, 315990, Note_off_c, 0, 41, 64
1, 315991, Note_on_c, 0, 49, 60
1, 315993, Note_on_c, 0, 58, 70
1, 315997, Control_c, 0, 64, 66
1, 316012, Control_c, 0, 64, 69
1, 316027, Control_c, 0, 64, 72
1, 316045, Note_off_c, 0, 58, 59
1, 316056, Control_c, 0, 64, 72
1, 316071, Control_c, 0, 64, 71
1, 316072, Note_on_c, 0, 61, 55
1, 316080, Note_on_c, 0, 57, 58
1, 316086, Control_c, 0, 64, 70
1, 316116, Control_c, 0, 64, 71
1, 316130, Control_c, 0, 64, 72
1, 316145, Control_c, 0, 64, 73
1, 316159, Note_on_c, 0, 41, 64
1, 316160, Control_c, 0, 64, 74
1, 316170, Note_off_c, 0, 49, 61
1, 316182, Control_c, 0, 64, 75
1, 316195, Note_off_c, 0, 41, 64
1, 316197, Control_c, 0, 64, 76
1, 316204, Note_off_c, 0, 57, 57
1, 316212, Control_c, 0, 64, 77
1, 316218, Note_off_c, 0, 61, 62
1, 316226, Control_c, 0, 64, 78
1, 316257, Note_on_c, 0, 41, 61
1, 316315, Control_c, 0, 64, 79
1, 316317, Note_off_c, 0, 41, 63
1, 316329, Control_c, 0, 64, 82
1, 316344, Control_c, 0, 64, 84
1, 316359, Control_c, 0, 64, 82
1, 316374, Control_c, 0, 64, 74
1, 316388, Control_c, 0, 64, 64
1, 316403, Control_c, 0, 64, 51
1, 316418, Control_c, 0, 64, 60
1, 316433, Control_c, 0, 64, 64
1, 316438, Note_on_c, 0, 49, 72
1, 316448, Control_c, 0, 64, 68
1, 316460, Note_off_c, 0, 49, 64
1, 316464, Control_c, 0, 64, 73
1, 316466, Note_on_c, 0, 67, 54
1, 316471, Note_on_c, 0, 63, 58
1, 316477, Note_on_c, 0, 57, 6
1, 316479, Control_c, 0, 64, 78
1, 316494, Control_c, 0, 64, 81
1, 316509, Control_c, 0, 64, 82
1, 316526, Note_off_c, 0, 63, 49
1, 316543, Poly_aftertouch_c, 0, 55, 0
1, 316546, Note_off_c, 0, 67, 60
1, 316554, Control_c, 0, 64, 83
1, 316555, Note_on_c, 0, 66, 65
1, 316561, Note_off_c, 0, 57, 0
1, 316575, Note_on_c, 0, 57, 40
1, 316583, Control_c, 0, 64, 80
1, 316584, Note_off_c, 0, 66, 64
1, 316598, Control_c, 0, 64, 74
1, 316604, Note_off_c, 0, 57, 55
1, 316612, Control_c, 0, 64, 69
1, 316627, Control_c, 0, 64, 70
1, 316642, Control_c, 0, 64, 72
1, 316657, Control_c, 0, 64, 76
1, 316659, Note_on_c, 0, 41, 67
1, 316665, Note_on_c, 0, 29, 54
1, 316667, Note_on_c, 0, 65, 64
1, 316670, Note_on_c, 0, 61, 64
1, 316672, Control_c, 0, 64, 80
1, 316686, Note_off_c, 0, 41, 65
1, 316686, Control_c, 0, 64, 84
1, 316701, Note_off_c, 0, 29, 53
1, 316701, Control_c, 0, 64, 85
1, 316718, Note_off_c, 0, 61, 54
1, 316735, Note_off_c, 0, 65, 60
1, 316736, Note_on_c, 0, 64, 69
1, 316749, Note_on_c, 0, 55, 51
1, 316760, Control_c, 0, 64, 86
1, 316766, Note_off_c, 0, 64, 65
1, 316775, Control_c, 0, 64, 86
1, 316776, Note_off_c, 0, 55, 56
1, 316790, Control_c, 0, 64, 83
1, 316805, Control_c, 0, 64, 76
1, 316820, Control_c, 0, 64, 65
1, 316835, Control_c, 0, 64, 54
1, 316850, Control_c, 0, 64, 58
1, 316853, Note_on_c, 0, 61, 67
1, 316854, Note_on_c, 0, 63, 70
1, 316854, Note_on_c, 0, 67, 65
1, 316865, Note_on_c, 0, 57, 61
1, 316865, Control_c, 0, 64, 63
1, 316879, Control_c, 0, 64, 65
1, 316894, Note_off_c, 0, 61, 55
1, 316894, Control_c, 0, 64, 70
1, 316909, Control_c, 0, 64, 74
1, 316924, Control_c, 0, 64, 77
1, 316945, Control_c, 0, 64, 78
1, 316949, Note_off_c, 0, 57, 58
1, 316950, Note_on_c, 0, 51, 54
1, 316960, Control_c, 0, 64, 77
1, 316962, Note_on_c, 0, 60, 54
1, 316975, Control_c, 0, 64, 74
1, 316987, Note_off_c, 0, 60, 62
1, 316990, Control_c, 0, 64, 68
1, 317002, Note_off_c, 0, 63, 38
1, 317005, Control_c, 0, 64, 65
1, 317020, Control_c, 0, 64, 66
1, 317031, Note_off_c, 0, 51, 61
1, 317035, Control_c, 0, 64, 68
1, 317049, Note_on_c, 0, 55, 46
1, 317049, Control_c, 0, 64, 71
1, 317055, Note_on_c, 0, 59, 59
1, 317064, Control_c, 0, 64, 75
1, 317079, Control_c, 0, 64, 78
1, 317087, Note_off_c, 0, 59, 63
1, 317089, Note_off_c, 0, 55, 63
1, 317094, Control_c, 0, 64, 80
1, 317124, Control_c, 0, 64, 81
1, 317133, Note_on_c, 0, 58, 64
1, 317136, Note_on_c, 0, 49, 60
1, 317138, Control_c, 0, 64, 85
1, 317153, Control_c, 0, 64, 92
1, 317160, Note_off_c, 0, 58, 66
1, 317168, Control_c, 0, 64, 97
1, 317183, Control_c, 0, 64, 95
1, 317198, Control_c, 0, 64, 88
1, 317212, Control_c, 0, 64, 79
1, 317227, Control_c, 0, 64, 74
1, 317242, Control_c, 0, 64, 75
1, 317249, Note_on_c, 0, 57, 58
1, 317252, Note_on_c, 0, 61, 58
1, 317258, Control_c, 0, 64, 78
1, 317269, Note_off_c, 0, 49, 61
1, 317273, Control_c, 0, 64, 79
1, 317277, Note_off_c, 0, 61, 64
1, 317279, Note_off_c, 0, 57, 65
1, 317288, Control_c, 0, 64, 79
1, 317302, Control_c, 0, 64, 77
1, 317311, Note_off_c, 0, 67, 42
1, 317317, Control_c, 0, 64, 74
1, 317321, Note_on_c, 0, 66, 66
1, 317332, Control_c, 0, 64, 73
1, 317347, Note_on_c, 0, 57, 45
1, 317347, Control_c, 0, 64, 73
1, 317354, Note_off_c, 0, 66, 60
1, 317361, Control_c, 0, 64, 74
1, 317374, Note_off_c, 0, 57, 56
1, 317376, Control_c, 0, 64, 76
1, 317391, Control_c, 0, 64, 77
1, 317440, Note_on_c, 0, 65, 61
1, 317448, Note_on_c, 0, 61, 54
1, 317450, Control_c, 0, 64, 78
1, 317465, Control_c, 0, 64, 79
1, 317479, Note_off_c, 0, 61, 60
1, 317480, Control_c, 0, 64, 82
1, 317495, Control_c, 0, 64, 82
1, 317509, Control_c, 0, 64, 81
1, 317520, Note_off_c, 0, 65, 55
1, 317523, Note_on_c, 0, 64, 68
1, 317524, Control_c, 0, 64, 76
1, 317539, Note_on_c, 0, 55, 45
1, 317539, Control_c, 0, 64, 67
1, 317553, Control_c, 0, 64, 61
1, 317568, Control_c, 0, 64, 63
1, 317569, Note_off_c, 0, 55, 52
1, 317583, Note_off_c, 0, 64, 59
1, 317583, Control_c, 0, 64, 65
1, 317598, Control_c, 0, 64, 67
1, 317613, Control_c, 0, 64, 69
1, 317622, Note_on_c, 0, 57, 57
1, 317636, Note_on_c, 0, 61, 67
1, 317643, Control_c, 0, 64, 68
1, 317658, Control_c, 0, 64, 67
1, 317671, Note_off_c, 0, 57, 55
1, 317695, Control_c, 0, 64, 68
1, 317709, Control_c, 0, 64, 68
1, 317723, Note_on_c, 0, 51, 48
1, 317725, Control_c, 0, 64, 69
1, 317735, Note_off_c, 0, 61, 55
1, 317740, Control_c, 0, 64, 69
1, 317742, Note_on_c, 0, 60, 56
1, 317755, Control_c, 0, 64, 70
1, 317759, Note_off_c, 0, 51, 60
1, 317769, Control_c, 0, 64, 72
1, 317784, Control_c, 0, 64, 74
1, 317799, Control_c, 0, 64, 77
1, 317801, Note_off_c, 0, 60, 60
1, 317814, Control_c, 0, 64, 78
1, 317828, Control_c, 0, 64, 75
1, 317834, Note_on_c, 0, 59, 53
1, 317843, Control_c, 0, 64, 70
1, 317858, Control_c, 0, 64, 66
1, 317873, Control_c, 0, 64, 67
1, 317882, Note_off_c, 0, 59, 58
1, 317888, Control_c, 0, 64, 70
1, 317903, Control_c, 0, 64, 73
1, 317917, Control_c, 0, 64, 74
1, 317920, Note_on_c, 0, 58, 62
1, 317932, Control_c, 0, 64, 73
1, 317947, Control_c, 0, 64, 70
1, 317962, Control_c, 0, 64, 68
1, 317967, Note_off_c, 0, 58, 55
1, 317977, Control_c, 0, 64, 69
1, 317991, Control_c, 0, 64, 70
1, 318006, Control_c, 0, 64, 72
1, 318013, Note_on_c, 0, 57, 55
1, 318021, Control_c, 0, 64, 76
1, 318028, Note_on_c, 0, 53, 8
1, 318036, Control_c, 0, 64, 80
1, 318051, Control_c, 0, 64, 84
1, 318066, Control_c, 0, 64, 86
1, 318076, Note_off_c, 0, 57, 54
1, 318081, Note_on_c, 0, 47, 56
1, 318081, Control_c, 0, 64, 88
1, 318084, Note_off_c, 0, 53, 37
1, 318093, Note_on_c, 0, 56, 55
1, 318096, Control_c, 0, 64, 89
1, 318111, Control_c, 0, 64, 89
1, 318119, Note_off_c, 0, 56, 59
1, 318126, Control_c, 0, 64, 88
1, 318139, Note_off_c, 0, 47, 52
1, 318140, Control_c, 0, 64, 82
1, 318155, Control_c, 0, 64, 72
1, 318170, Control_c, 0, 64, 66
1, 318177, Note_on_c, 0, 41, 64
1, 318185, Control_c, 0, 64, 69
1, 318191, Note_on_c, 0, 67, 75
1, 318200, Control_c, 0, 64, 73
1, 318206, Note_off_c, 0, 41, 62
1, 318215, Control_c, 0, 64, 78
1, 318230, Control_c, 0, 64, 86
1, 318242, Note_off_c, 0, 67, 57
1, 318245, Control_c, 0, 64, 89
1, 318253, Note_on_c, 0, 63, 75
1, 318274, Control_c, 0, 64, 88
1, 318289, Control_c, 0, 64, 87
1, 318304, Control_c, 0, 64, 87
1, 318333, Control_c, 0, 64, 87
1, 318341, Note_off_c, 0, 63, 47
1, 318348, Control_c, 0, 64, 89
1, 318363, Control_c, 0, 64, 90
1, 318367, Note_on_c, 0, 66, 66
1, 318392, Control_c, 0, 64, 84
1, 318407, Control_c, 0, 64, 72
1, 318418, Note_off_c, 0, 66, 56
1, 318422, Control_c, 0, 64, 64
1, 318437, Note_on_c, 0, 47, 42
1, 318437, Note_on_c, 0, 56, 59
1, 318445, Control_c, 0, 64, 65
1, 318459, Control_c, 0, 64, 70
1, 318468, Note_on_c, 0, 59, 76
1, 318468, Note_off_c, 0, 47, 56
1, 318472, Note_on_c, 0, 48, 31
1, 318474, Control_c, 0, 64, 77
1, 318481, Note_on_c, 0, 55, 61
1, 318489, Control_c, 0, 64, 84
1, 318491, Note_off_c, 0, 59, 69
1, 318503, Note_off_c, 0, 55, 61
1, 318504, Note_off_c, 0, 56, 55
1, 318504, Control_c, 0, 64, 87
1, 318513, Note_off_c, 0, 48, 40
1, 318519, Control_c, 0, 64, 85
1, 318533, Control_c, 0, 64, 81
1, 318548, Control_c, 0, 64, 78
1, 318550, Note_on_c, 0, 65, 74
1, 318563, Control_c, 0, 64, 78
1, 318578, Control_c, 0, 64, 79
1, 318592, Control_c, 0, 64, 81
1, 318607, Control_c, 0, 64, 84
1, 318618, Note_on_c, 0, 61, 65
1, 318622, Control_c, 0, 64, 86
1, 318637, Control_c, 0, 64, 87
1, 318666, Note_off_c, 0, 61, 52
1, 318666, Control_c, 0, 64, 87
1, 318710, Control_c, 0, 64, 87
1, 318720, Note_off_c, 0, 65, 62
1, 318723, Note_on_c, 0, 64, 61
1, 318725, Control_c, 0, 64, 89
1, 318740, Control_c, 0, 64, 90
1, 318746, Note_off_c, 0, 64, 65
1, 318755, Control_c, 0, 64, 88
1, 318770, Control_c, 0, 64, 81
1, 318784, Control_c, 0, 64, 72
1, 318799, Control_c, 0, 64, 65
1, 318814, Control_c, 0, 64, 67
1, 318827, Note_on_c, 0, 29, 63
1, 318829, Control_c, 0, 64, 69
1, 318831, Note_on_c, 0, 41, 63
1, 318844, Control_c, 0, 64, 70
1, 318847, Note_on_c, 0, 56, 73
1, 318856, Note_on_c, 0, 47, 52
1, 318860, Note_off_c, 0, 29, 56
1, 318860, Control_c, 0, 64, 73
1, 318862, Note_off_c, 0, 41, 64
1, 318874, Control_c, 0, 64, 74
1, 318887, Note_off_c, 0, 47, 52
1, 318903, Note_off_c, 0, 56, 65
1, 318904, Control_c, 0, 64, 74
1, 318919, Control_c, 0, 64, 72
1, 318923, Note_on_c, 0, 59, 57
1, 318925, Note_on_c, 0, 55, 61
1, 318934, Control_c, 0, 64, 72
1, 318948, Control_c, 0, 64, 71
1, 318984, Note_off_c, 0, 55, 51
1, 318999, Note_on_c, 0, 41, 61
1, 319034, Note_off_c, 0, 41, 63
1, 319099, Note_on_c, 0, 41, 63
1, 319112, Control_c, 0, 64, 71
1, 319121, Note_off_c, 0, 59, 52
1, 319127, Control_c, 0, 64, 72
1, 319142, Control_c, 0, 64, 73
1, 319151, Note_off_c, 0, 41, 0
1, 319156, Control_c, 0, 64, 74
1, 319161, Note_on_c, 0, 41, 56
1, 319178, Control_c, 0, 64, 75
1, 319193, Control_c, 0, 64, 74
1, 319198, Note_off_c, 0, 41, 59
1, 319208, Control_c, 0, 64, 70
1, 319223, Control_c, 0, 64, 63
1, 319237, Control_c, 0, 64, 0
1, 319250, Note_on_c, 0, 41, 52
1, 319259, Note_on_c, 0, 56, 73
1, 319267, Note_on_c, 0, 47, 57
1, 319267, Control_c, 0, 64, 38
1, 319277, Note_off_c, 0, 41, 56
1, 319282, Control_c, 0, 64, 58
1, 319297, Control_c, 0, 64, 64
1, 319312, Control_c, 0, 64, 66
1, 319321, Note_off_c, 0, 56, 39
1, 319341, Control_c, 0, 64, 66
1, 319347, Note_on_c, 0, 55, 52
1, 319351, Note_on_c, 0, 59, 42
1, 319356, Control_c, 0, 64, 65
1, 319371, Control_c, 0, 64, 64
1, 319386, Control_c, 0, 64, 62
1, 319401, Control_c, 0, 64, 63
1, 319415, Control_c, 0, 64, 65
1, 319422, Note_off_c, 0, 55, 0
1, 319428, Note_on_c, 0, 41, 53
1, 319430, Control_c, 0, 64, 68
1, 319445, Control_c, 0, 64, 72
1, 319458, Note_off_c, 0, 47, 40
1, 319460, Poly_aftertouch_c, 0, 55, 127
1, 319460, Control_c, 0, 64, 78
1, 319461, Note_off_c, 0, 41, 63
1, 319475, Control_c, 0, 64, 81
1, 319476, Poly_aftertouch_c, 0, 55, 0
1, 319485, Note_off_c, 0, 59, 61
1, 319489, Control_c, 0, 64, 82
1, 319558, Note_on_c, 0, 41, 36
1, 319598, Note_off_c, 0, 41, 63
1, 319607, Control_c, 0, 64, 83
1, 319622, Control_c, 0, 64, 84
1, 319637, Control_c, 0, 64, 85
1, 319653, Control_c, 0, 64, 83
1, 319668, Control_c, 0, 64, 73
1, 319683, Control_c, 0, 64, 44
1, 319697, Control_c, 0, 64, 0
1, 319756, Control_c, 0, 64, 61
1, 319761, Note_on_c, 0, 55, 62
1, 319770, Note_on_c, 0, 65, 51
1, 319771, Note_on_c, 0, 47, 38
1, 319771, Control_c, 0, 64, 71
1, 319786, Note_on_c, 0, 61, 46
1, 319786, Control_c, 0, 64, 80
1, 319789, Note_off_c, 0, 55, 66
1, 319801, Control_c, 0, 64, 90
1, 319807, Note_off_c, 0, 47, 57
1, 319816, Control_c, 0, 64, 98
1, 319827, Note_off_c, 0, 61, 59
1, 319831, Control_c, 0, 64, 105
1, 319846, Control_c, 0, 64, 112
1, 319860, Control_c, 0, 64, 127
1, 319879, Note_on_c, 0, 55, 59
1, 319887, Note_off_c, 0, 65, 55
1, 319895, Note_on_c, 0, 64, 58
1, 319927, Note_off_c, 0, 55, 59
1, 319935, Note_off_c, 0, 64, 66
1, 319981, Note_on_c, 0, 41, 66
1, 319984, Note_on_c, 0, 29, 61
1, 319991, Note_on_c, 0, 63, 70
1, 320009, Note_off_c, 0, 41, 64
1, 320019, Note_off_c, 0, 29, 58
1, 320071, Note_on_c, 0, 62, 66
1, 320081, Note_on_c, 0, 53, 64
1, 320088, Note_off_c, 0, 63, 56
1, 320105, Note_off_c, 0, 62, 62
1, 320109, Note_off_c, 0, 53, 67
1, 320149, Control_c, 0, 64, 91
1, 320164, Control_c, 0, 64, 74
1, 320179, Control_c, 0, 64, 68
1, 320187, Note_on_c, 0, 55, 69
1, 320191, Note_on_c, 0, 61, 64
1, 320194, Control_c, 0, 64, 71
1, 320200, Note_on_c, 0, 59, 58
1, 320200, Note_on_c, 0, 65, 63
1, 320209, Control_c, 0, 64, 76
1, 320224, Control_c, 0, 64, 85
1, 320238, Control_c, 0, 64, 102
1, 320247, Note_off_c, 0, 59, 53
1, 320253, Control_c, 0, 64, 127
1, 320254, Note_off_c, 0, 55, 56
1, 320270, Note_on_c, 0, 49, 62
1, 320283, Control_c, 0, 64, 107
1, 320297, Control_c, 0, 64, 86
1, 320304, Note_on_c, 0, 58, 66
1, 320307, Note_off_c, 0, 61, 61
1, 320312, Control_c, 0, 64, 71
1, 320325, Note_off_c, 0, 58, 64
1, 320327, Control_c, 0, 64, 68
1, 320339, Note_off_c, 0, 49, 52
1, 320342, Control_c, 0, 64, 73
1, 320356, Control_c, 0, 64, 78
1, 320371, Control_c, 0, 64, 87
1, 320379, Note_on_c, 0, 53, 65
1, 320386, Control_c, 0, 64, 98
1, 320395, Note_on_c, 0, 57, 69
1, 320401, Control_c, 0, 64, 110
1, 320413, Note_off_c, 0, 53, 64
1, 320416, Control_c, 0, 64, 112
1, 320427, Note_off_c, 0, 57, 61
1, 320445, Control_c, 0, 64, 113
1, 320461, Control_c, 0, 64, 127
1, 320467, Note_on_c, 0, 56, 79
1, 320475, Note_on_c, 0, 47, 56
1, 320491, Note_off_c, 0, 56, 69
1, 320535, Control_c, 0, 64, 91
1, 320550, Control_c, 0, 64, 65
1, 320553, Note_off_c, 0, 65, 46
1, 320565, Control_c, 0, 64, 0
1, 320579, Control_c, 0, 64, 28
1, 320580, Note_on_c, 0, 55, 67
1, 320587, Note_on_c, 0, 59, 67
1, 320594, Control_c, 0, 64, 65
1, 320609, Control_c, 0, 64, 73
1, 320615, Note_off_c, 0, 59, 65
1, 320624, Note_off_c, 0, 55, 64
1, 320624, Control_c, 0, 64, 86
1, 320639, Control_c, 0, 64, 111
1, 320653, Control_c, 0, 64, 127
1, 320665, Note_off_c, 0, 47, 65
1, 320677, Note_on_c, 0, 65, 70
1, 320761, Note_on_c, 0, 61, 53
1, 320796, Note_off_c, 0, 61, 56
1, 320868, Note_on_c, 0, 64, 65
1, 320873, Note_off_c, 0, 65, 58
1, 320883, Control_c, 0, 64, 98
1, 320898, Note_off_c, 0, 64, 68
1, 320898, Control_c, 0, 64, 75
1, 320905, Note_on_c, 0, 41, 56
1, 320906, Note_on_c, 0, 50, 62
1, 320913, Control_c, 0, 64, 65
1, 320928, Control_c, 0, 64, 70
1, 320943, Control_c, 0, 64, 77
1, 320946, Note_off_c, 0, 41, 58
1, 320948, Note_off_c, 0, 50, 66
1, 320950, Note_on_c, 0, 53, 77
1, 320955, Note_on_c, 0, 49, 73
1, 320957, Control_c, 0, 64, 89
1, 320972, Control_c, 0, 64, 117
1, 320975, Note_off_c, 0, 49, 64
1, 320978, Note_off_c, 0, 53, 67
1, 320987, Control_c, 0, 64, 127
1, 321054, Note_on_c, 0, 59, 73
1, 321133, Note_off_c, 0, 59, 54
1, 321144, Note_on_c, 0, 55, 65
1, 321184, Note_on_c, 0, 58, 78
1, 321185, Note_off_c, 0, 55, 62
1, 321208, Note_off_c, 0, 58, 68
1, 321209, Control_c, 0, 64, 106
1, 321224, Control_c, 0, 64, 71
1, 321239, Control_c, 0, 64, 0
1, 321277, Note_on_c, 0, 47, 67
1, 321283, Note_on_c, 0, 55, 67
1, 321284, Control_c, 0, 64, 51
1, 321299, Control_c, 0, 64, 70
1, 321305, Note_off_c, 0, 55, 63
1, 321306, Note_off_c, 0, 47, 66
1, 321313, Note_on_c, 0, 65, 76
1, 321314, Control_c, 0, 64, 89
1, 321327, Note_on_c, 0, 61, 69
1, 321329, Control_c, 0, 64, 127
1, 321354, Note_off_c, 0, 61, 64
1, 321406, Note_on_c, 0, 64, 82
1, 321430, Note_on_c, 0, 55, 62
1, 321441, Note_off_c, 0, 65, 59
1, 321461, Note_off_c, 0, 55, 62
1, 321500, Note_off_c, 0, 64, 59
1, 321503, Note_on_c, 0, 58, 78
1, 321506, Note_on_c, 0, 29, 67
1, 321506, Note_on_c, 0, 41, 76
1, 321506, Note_on_c, 0, 63, 82
1, 321528, Note_off_c, 0, 58, 60
1, 321532, Note_off_c, 0, 41, 65
1, 321540, Note_off_c, 0, 29, 62
1, 321544, Note_on_c, 0, 59, 42
1, 321573, Note_off_c, 0, 59, 54
1, 321598, Note_on_c, 0, 62, 77
1, 321601, Note_off_c, 0, 63, 57
1, 321616, Note_on_c, 0, 53, 66
1, 321640, Note_off_c, 0, 62, 56
1, 321643, Note_off_c, 0, 53, 66
1, 321676, Control_c, 0, 64, 98
1, 321691, Control_c, 0, 64, 67
1, 321706, Note_on_c, 0, 59, 72
1, 321706, Control_c, 0, 64, 0
1, 321708, Note_on_c, 0, 65, 84
1, 321711, Note_on_c, 0, 61, 77
1, 321721, Note_on_c, 0, 55, 68
1, 321737, Note_off_c, 0, 59, 62
1, 321780, Control_c, 0, 64, 65
1, 321786, Note_off_c, 0, 55, 53
1, 321795, Control_c, 0, 64, 79
1, 321802, Note_on_c, 0, 49, 67
1, 321808, Note_off_c, 0, 61, 62
1, 321810, Control_c, 0, 64, 96
1, 321813, Note_on_c, 0, 58, 80
1, 321825, Control_c, 0, 64, 127
1, 321835, Note_off_c, 0, 58, 70
1, 321859, Note_off_c, 0, 65, 55
1, 321864, Note_off_c, 0, 49, 50
1, 321909, Note_on_c, 0, 57, 81
1, 321911, Note_on_c, 0, 53, 67
1, 321922, Note_on_c, 0, 65, 30
1, 321943, Note_off_c, 0, 53, 65
1, 321953, Note_off_c, 0, 57, 60
1, 321989, Note_on_c, 0, 56, 84
1, 321994, Note_on_c, 0, 47, 70
1, 322017, Note_off_c, 0, 56, 65
1, 322043, Note_off_c, 0, 65, 49
1, 322078, Control_c, 0, 64, 91
1, 322093, Control_c, 0, 64, 59
1, 322093, Note_on_c, 0, 55, 77
1, 322093, Note_on_c, 0, 59, 83
1, 322107, Control_c, 0, 64, 0
1, 322137, Control_c, 0, 64, 63
1, 322148, Note_off_c, 0, 59, 61
1, 322151, Control_c, 0, 64, 80
1, 322162, Note_off_c, 0, 55, 63
1, 322166, Control_c, 0, 64, 127
1, 322193, Note_on_c, 0, 65, 94
1, 322209, Note_off_c, 0, 47, 63
1, 322262, Note_on_c, 0, 61, 85
1, 322308, Note_off_c, 0, 61, 64
1, 322376, Note_on_c, 0, 64, 93
1, 322391, Note_off_c, 0, 65, 63
1, 322409, Note_off_c, 0, 64, 65
1, 322419, Note_on_c, 0, 41, 82
1, 322425, Control_c, 0, 64, 75
1, 322429, Note_on_c, 0, 50, 86
1, 322440, Control_c, 0, 64, 0
1, 322475, Note_on_c, 0, 53, 104
1, 322477, Note_on_c, 0, 49, 93
1, 322485, Control_c, 0, 64, 65
1, 322492, Note_off_c, 0, 41, 63
1, 322495, Note_off_c, 0, 50, 66
1, 322499, Control_c, 0, 64, 105
1, 322506, Note_off_c, 0, 53, 69
1, 322510, Note_off_c, 0, 49, 68
1, 322514, Control_c, 0, 64, 127
1, 322579, Note_on_c, 0, 59, 81
1, 322589, Note_on_c, 0, 57, 77
1, 322610, Note_off_c, 0, 57, 63
1, 322625, Note_off_c, 0, 59, 62
1, 322638, Note_on_c, 0, 55, 80
1, 322709, Note_on_c, 0, 58, 90
1, 322716, Note_off_c, 0, 55, 64
1, 322753, Note_off_c, 0, 58, 66
1, 322781, Control_c, 0, 64, 96
1, 322796, Control_c, 0, 64, 62
1, 322808, Note_on_c, 0, 41, 69
1, 322811, Control_c, 0, 64, 0
1, 322814, Note_on_c, 0, 50, 69
1, 322841, Control_c, 0, 64, 68
1, 322848, Note_on_c, 0, 53, 98
1, 322850, Note_on_c, 0, 49, 93
1, 322852, Note_on_c, 0, 59, 86
1, 322856, Note_on_c, 0, 55, 79
1, 322856, Control_c, 0, 64, 92
1, 322866, Note_off_c, 0, 50, 66
1, 322871, Note_off_c, 0, 41, 63
1, 322871, Control_c, 0, 64, 127
1, 322878, Note_off_c, 0, 55, 68
1, 322886, Note_off_c, 0, 49, 67
1, 322886, Note_off_c, 0, 53, 65
1, 322898, Note_off_c, 0, 59, 59
1, 322956, Note_on_c, 0, 58, 83
1, 322960, Note_on_c, 0, 49, 83
1, 322978, Note_off_c, 0, 58, 68
1, 322996, Note_off_c, 0, 49, 63
1, 323068, Note_on_c, 0, 53, 84
1, 323101, Note_on_c, 0, 57, 36
1, 323116, Control_c, 0, 64, 106
1, 323128, Note_off_c, 0, 53, 66
1, 323130, Control_c, 0, 64, 79
1, 323145, Control_c, 0, 64, 44
1, 323146, Note_on_c, 0, 56, 75
1, 323146, Note_off_c, 0, 57, 63
1, 323160, Note_on_c, 0, 47, 66
1, 323160, Control_c, 0, 64, 0
1, 323180, Note_off_c, 0, 56, 65
1, 323190, Note_off_c, 0, 47, 66
1, 323248, Control_c, 0, 64, 38
1, 323263, Control_c, 0, 64, 67
1, 323264, Note_on_c, 0, 59, 81
1, 323277, Note_on_c, 0, 55, 70
1, 323278, Control_c, 0, 64, 73
1, 323293, Control_c, 0, 64, 74
1, 323306, Note_off_c, 0, 55, 65
1, 323308, Control_c, 0, 64, 75
1, 323315, Note_off_c, 0, 59, 58
1, 323337, Control_c, 0, 64, 76
1, 323352, Control_c, 0, 64, 88
1, 323363, Note_on_c, 0, 58, 78
1, 323367, Control_c, 0, 64, 118
1, 323368, Note_on_c, 0, 49, 73
1, 323381, Control_c, 0, 64, 127
1, 323390, Note_off_c, 0, 49, 67
1, 323391, Note_off_c, 0, 58, 61
1, 323488, Note_on_c, 0, 52, 53
1, 323491, Note_on_c, 0, 55, 52
1, 323500, Note_on_c, 0, 57, 48
1, 323513, Note_on_c, 0, 53, 9
1, 323517, Note_off_c, 0, 52, 56
1, 323527, Note_off_c, 0, 55, 65
1, 323542, Note_off_c, 0, 57, 47
1, 323554, Note_on_c, 0, 56, 81
1, 323556, Note_on_c, 0, 45, 62
1, 323562, Note_off_c, 0, 53, 56
1, 323570, Note_on_c, 0, 47, 52
1, 323581, Note_off_c, 0, 45, 61
1, 323600, Note_off_c, 0, 47, 55
1, 323612, Note_off_c, 0, 56, 59
1, 323672, Note_on_c, 0, 43, 100
1, 323681, Note_on_c, 0, 35, 85
1, 323683, Note_on_c, 0, 29, 77
1, 323684, Note_on_c, 0, 59, 86
1, 323687, Note_on_c, 0, 55, 87
1, 323694, Note_on_c, 0, 31, 65
1, 323706, Note_on_c, 0, 33, 59
1, 323712, Note_off_c, 0, 43, 67
1, 323715, Note_off_c, 0, 55, 64
1, 323720, Note_off_c, 0, 59, 62
1, 323721, Note_off_c, 0, 29, 65
1, 323726, Note_off_c, 0, 35, 65
1, 323732, Note_off_c, 0, 31, 61
1, 323739, Note_off_c, 0, 33, 59
1, 323749, Poly_aftertouch_c, 0, 37, 127
1, 323757, Poly_aftertouch_c, 0, 41, 127
1, 323780, Note_on_c, 0, 49, 85
1, 323780, Note_on_c, 0, 58, 83
1, 323798, Poly_aftertouch_c, 0, 41, 0
1, 323800, Poly_aftertouch_c, 0, 37, 0
1, 323813, Note_off_c, 0, 49, 67
1, 323828, Note_off_c, 0, 58, 62
1, 323897, Note_on_c, 0, 53, 84
1, 323899, Note_on_c, 0, 57, 80
1, 323946, Note_off_c, 0, 53, 66
1, 323951, Control_c, 0, 64, 93
1, 323965, Note_off_c, 0, 57, 64
1, 323966, Control_c, 0, 64, 76
1, 323981, Control_c, 0, 64, 63
1, 323991, Note_on_c, 0, 47, 71
1, 323991, Note_on_c, 0, 56, 80
1, 323995, Control_c, 0, 64, 0
1, 324021, Note_off_c, 0, 47, 66
1, 324026, Note_off_c, 0, 56, 61
1, 324040, Control_c, 0, 64, 49
1, 324055, Control_c, 0, 64, 71
1, 324070, Control_c, 0, 64, 87
1, 324084, Control_c, 0, 64, 112
1, 324099, Note_on_c, 0, 55, 80
1, 324099, Note_on_c, 0, 59, 81
1, 324099, Control_c, 0, 64, 127
1, 324138, Note_off_c, 0, 55, 63
1, 324168, Note_off_c, 0, 59, 61
1, 324192, Note_on_c, 0, 49, 83
1, 324201, Note_on_c, 0, 58, 76
1, 324230, Note_off_c, 0, 49, 64
1, 324230, Note_off_c, 0, 58, 64
1, 324295, Note_on_c, 0, 53, 90
1, 324308, Note_on_c, 0, 57, 71
1, 324353, Note_off_c, 0, 53, 63
1, 324371, Note_on_c, 0, 56, 87
1, 324379, Note_on_c, 0, 47, 82
1, 324383, Note_off_c, 0, 57, 60
1, 324421, Note_off_c, 0, 47, 65
1, 324429, Note_off_c, 0, 56, 68
1, 324479, Control_c, 0, 64, 79
1, 324492, Note_on_c, 0, 50, 100
1, 324493, Control_c, 0, 64, 0
1, 324496, Note_on_c, 0, 41, 85
1, 324520, Note_on_c, 0, 53, 100
1, 324520, Note_on_c, 0, 55, 106
1, 324522, Note_on_c, 0, 40, 36
1, 324523, Note_off_c, 0, 40, 127
1, 324523, Note_on_c, 0, 59, 92
1, 324523, Control_c, 0, 64, 72
1, 324528, Note_on_c, 0, 49, 86
1, 324538, Note_on_c, 0, 46, 70
1, 324538, Control_c, 0, 64, 127
1, 324542, Note_off_c, 0, 50, 69
1, 324547, Note_off_c, 0, 41, 55
1, 324555, Note_off_c, 0, 59, 56
1, 324561, Note_off_c, 0, 46, 65
1, 324561, Note_off_c, 0, 55, 69
1, 324567, Note_on_c, 0, 43, 51
1, 324567, Poly_aftertouch_c, 0, 40, 0
1, 324569, Note_off_c, 0, 49, 64
1, 324572, Note_off_c, 0, 53, 70
1, 324600, Note_off_c, 0, 43, 55
1, 324614, Note_on_c, 0, 58, 73
1, 324630, Note_on_c, 0, 49, 90
1, 324658, Note_off_c, 0, 49, 67
1, 324665, Note_off_c, 0, 58, 65
1, 324704, Poly_aftertouch_c, 0, 47, 0
1, 324738, Note_on_c, 0, 53, 90
1, 324743, Note_on_c, 0, 57, 86
1, 324782, Note_off_c, 0, 53, 65
1, 324810, Note_off_c, 0, 57, 67
1, 324833, Note_on_c, 0, 47, 86
1, 324836, Note_on_c, 0, 56, 88
1, 324862, Note_off_c, 0, 47, 68
1, 324864, Control_c, 0, 64, 107
1, 324879, Control_c, 0, 64, 69
1, 324884, Note_off_c, 0, 56, 65
1, 324893, Control_c, 0, 64, 0
1, 324938, Control_c, 0, 64, 65
1, 324945, Note_on_c, 0, 55, 97
1, 324952, Note_on_c, 0, 59, 83
1, 324952, Control_c, 0, 64, 87
1, 324967, Control_c, 0, 64, 127
1, 324983, Note_off_c, 0, 55, 67
1, 324992, Note_off_c, 0, 59, 54
1, 325044, Note_on_c, 0, 58, 94
1, 325047, Note_on_c, 0, 49, 97
1, 325080, Note_off_c, 0, 58, 68
1, 325088, Note_off_c, 0, 49, 65
1, 325153, Note_on_c, 0, 53, 97
1, 325160, Note_on_c, 0, 57, 86
1, 325208, Note_off_c, 0, 53, 66
1, 325232, Note_off_c, 0, 57, 58
1, 325259, Note_on_c, 0, 47, 87
1, 325261, Note_on_c, 0, 56, 88
1, 325294, Note_off_c, 0, 47, 64
1, 325320, Note_off_c, 0, 56, 63
1, 325361, Control_c, 0, 64, 109
1, 325375, Control_c, 0, 64, 75
1, 325390, Control_c, 0, 64, 60
1, 325400, Note_on_c, 0, 43, 106
1, 325405, Control_c, 0, 64, 70
1, 325408, Note_on_c, 0, 35, 82
1, 325414, Note_on_c, 0, 55, 96
1, 325415, Note_on_c, 0, 31, 73
1, 325416, Note_on_c, 0, 59, 95
1, 325417, Note_on_c, 0, 29, 79
1, 325420, Control_c, 0, 64, 94
1, 325431, Note_on_c, 0, 33, 62
1, 325432, Note_on_c, 0, 36, 52
1, 325435, Control_c, 0, 64, 127
1, 325436, Note_on_c, 0, 34, 38
1, 325442, Note_off_c, 0, 43, 67
1, 325453, Note_off_c, 0, 31, 60
1, 325459, Note_off_c, 0, 35, 64
1, 325462, Note_off_c, 0, 33, 62
1, 325465, Note_off_c, 0, 59, 64
1, 325468, Note_off_c, 0, 36, 51
1, 325471, Note_off_c, 0, 29, 64
1, 325478, Note_off_c, 0, 34, 49
1, 325482, Note_off_c, 0, 55, 59
1, 325483, Poly_aftertouch_c, 0, 37, 127
1, 325523, Poly_aftertouch_c, 0, 37, 0
1, 325530, Note_on_c, 0, 49, 91
1, 325536, Note_on_c, 0, 58, 68
1, 325569, Note_on_c, 0, 59, 43
1, 325575, Note_off_c, 0, 49, 64
1, 325584, Note_off_c, 0, 58, 59
1, 325594, Note_off_c, 0, 59, 57
1, 325658, Note_on_c, 0, 53, 97
1, 325661, Note_on_c, 0, 57, 90
1, 325715, Note_off_c, 0, 53, 65
1, 325772, Note_on_c, 0, 56, 83
1, 325777, Note_on_c, 0, 47, 84
1, 325786, Note_off_c, 0, 57, 64
1, 325801, Note_off_c, 0, 47, 70
1, 325831, Note_off_c, 0, 56, 65
1, 325921, Note_on_c, 0, 55, 101
1, 325922, Note_on_c, 0, 59, 100
1, 325931, Control_c, 0, 64, 78
1, 325946, Control_c, 0, 64, 17
1, 325961, Control_c, 0, 64, 0
1, 325975, Control_c, 0, 64, 65
1, 325982, Note_off_c, 0, 59, 49
1, 325990, Note_off_c, 0, 55, 62
1, 325990, Control_c, 0, 64, 85
1, 326005, Control_c, 0, 64, 127
1, 326059, Note_on_c, 0, 49, 103
1, 326059, Note_on_c, 0, 58, 106
1, 326101, Note_off_c, 0, 49, 66
1, 326105, Note_off_c, 0, 58, 67
1, 326189, Note_on_c, 0, 53, 105
1, 326194, Note_on_c, 0, 57, 91
1, 326243, Note_off_c, 0, 53, 65
1, 326283, Poly_aftertouch_c, 0, 56, 127
1, 326289, Note_on_c, 0, 56, 34
1, 326299, Note_on_c, 0, 47, 91
1, 326314, Note_off_c, 0, 57, 63
1, 326317, Note_off_c, 0, 47, 73
1, 326337, Note_off_c, 0, 56, 65
1, 326341, Note_on_c, 0, 55, 67
1, 326364, Note_off_c, 0, 55, 62
1, 326408, Note_on_c, 0, 50, 100
1, 326417, Note_on_c, 0, 41, 92
1, 326421, Control_c, 0, 64, 74
1, 326436, Control_c, 0, 64, 0
1, 326449, Note_off_c, 0, 50, 69
1, 326481, Note_on_c, 0, 50, 80
1, 326486, Note_on_c, 0, 53, 100
1, 326490, Note_on_c, 0, 49, 93
1, 326495, Control_c, 0, 64, 39
1, 326509, Note_on_c, 0, 46, 67
1, 326509, Control_c, 0, 64, 80
1, 326524, Control_c, 0, 64, 127
1, 326529, Note_off_c, 0, 50, 62
1, 326588, Note_on_c, 0, 48, 49
1, 326599, Note_off_c, 0, 46, 58
1, 326628, Note_off_c, 0, 48, 49
1, 326654, Note_off_c, 0, 49, 41
1, 326681, Note_on_c, 0, 67, 109
1, 326685, Poly_aftertouch_c, 0, 50, 127
1, 326725, Note_off_c, 0, 53, 61
1, 326740, Poly_aftertouch_c, 0, 50, 0
1, 326800, Note_off_c, 0, 41, 61
1, 326835, Note_off_c, 0, 67, 50
1, 326978, Note_on_c, 0, 68, 100
1, 327010, Note_on_c, 0, 70, 49
1, 327034, Note_off_c, 0, 70, 60
1, 327524, Note_on_c, 0, 43, 107
1, 327533, Note_on_c, 0, 35, 78
1, 327536, Note_on_c, 0, 29, 82
1, 327539, Note_on_c, 0, 31, 78
1, 327544, Note_on_c, 0, 32, 73
1, 327561, Note_on_c, 0, 37, 37
1, 327568, Note_on_c, 0, 41, 29
1, 327575, Note_off_c, 0, 32, 64
1, 327586, Note_off_c, 0, 43, 65
1, 327596, Note_off_c, 0, 35, 64
1, 327602, Note_off_c, 0, 41, 62
1, 327604, Note_off_c, 0, 37, 49
1, 327605, Note_off_c, 0, 29, 63
1, 327605, Note_off_c, 0, 31, 53
1, 327619, Poly_aftertouch_c, 0, 36, 127
1, 327627, Poly_aftertouch_c, 0, 33, 127
1, 327663, Poly_aftertouch_c, 0, 36, 0
1, 327671, Poly_aftertouch_c, 0, 33, 0
1, 327763, Note_on_c, 0, 59, 84
1, 327852, Note_off_c, 0, 68, 40
1, 327879, Note_off_c, 0, 59, 46
1, 327906, Note_on_c, 0, 62, 69
1, 327968, Note_off_c, 0, 62, 60
1, 328073, Note_on_c, 0, 67, 100
1, 328082, Note_on_c, 0, 59, 81
1, 328118, Note_off_c, 0, 59, 60
1, 328119, Note_on_c, 0, 60, 34
1, 328154, Note_off_c, 0, 60, 55
1, 328231, Note_on_c, 0, 62, 83
1, 328296, Note_on_c, 0, 66, 19
1, 328298, Note_off_c, 0, 62, 58
1, 328308, Note_off_c, 0, 67, 59
1, 328337, Note_on_c, 0, 59, 80
1, 328339, Note_off_c, 0, 66, 43
1, 328356, Note_off_c, 0, 59, 68
1, 328401, Note_on_c, 0, 60, 4
1, 328420, Note_on_c, 0, 50, 95
1, 328428, Note_on_c, 0, 41, 83
1, 328451, Note_off_c, 0, 60, 45
1, 328512, Note_on_c, 0, 53, 102
1, 328517, Note_on_c, 0, 49, 97
1, 328518, Note_on_c, 0, 68, 96
1, 328519, Control_c, 0, 64, 98
1, 328534, Control_c, 0, 64, 45
1, 328549, Control_c, 0, 64, 0
1, 328593, Control_c, 0, 64, 83
1, 328608, Control_c, 0, 64, 127
1, 328674, Note_off_c, 0, 68, 59
1, 328699, Note_off_c, 0, 53, 63
1, 328714, Note_off_c, 0, 50, 61
1, 328720, Note_off_c, 0, 49, 54
1, 328736, Note_on_c, 0, 71, 105
1, 328782, Note_off_c, 0, 41, 62
1, 328931, Note_off_c, 0, 71, 55
1, 329046, Note_on_c, 0, 73, 110
1, 329611, Note_on_c, 0, 43, 103
1, 329618, Note_on_c, 0, 35, 66
1, 329629, Note_on_c, 0, 29, 77
1, 329630, Note_on_c, 0, 31, 72
1, 329674, Note_on_c, 0, 32, 12
1, 329713, Note_off_c, 0, 32, 0
1, 329715, Note_off_c, 0, 43, 61
1, 329727, Note_off_c, 0, 29, 55
1, 329730, Poly_aftertouch_c, 0, 32, 0
1, 329749, Note_off_c, 0, 31, 56
1, 329754, Note_off_c, 0, 35, 54
1, 329813, Note_on_c, 0, 65, 86
1, 329916, Note_off_c, 0, 73, 50
1, 329948, Note_on_c, 0, 68, 78
1, 329962, Note_off_c, 0, 65, 61
1, 330011, Note_off_c, 0, 68, 61
1, 330098, Note_on_c, 0, 71, 99
1, 330105, Note_on_c, 0, 65, 88
1, 330197, Note_off_c, 0, 65, 59
1, 330252, Note_on_c, 0, 68, 84
1, 330279, Note_off_c, 0, 71, 60
1, 330314, Note_off_c, 0, 68, 62
1, 330364, Note_on_c, 0, 65, 73
1, 330401, Note_off_c, 0, 65, 62
1, 330437, Note_on_c, 0, 50, 96
1, 330443, Note_on_c, 0, 41, 84
1, 330516, Note_on_c, 0, 53, 103
1, 330520, Note_on_c, 0, 49, 94
1, 330520, Note_on_c, 0, 76, 109
1, 330529, Control_c, 0, 64, 93
1, 330544, Control_c, 0, 64, 60
1, 330553, Note_off_c, 0, 50, 61
1, 330559, Control_c, 0, 64, 0
1, 330588, Control_c, 0, 64, 65
1, 330603, Control_c, 0, 64, 89
1, 330618, Control_c, 0, 64, 127
1, 330692, Note_off_c, 0, 53, 57
1, 330711, Note_on_c, 0, 65, 80
1, 330716, Poly_aftertouch_c, 0, 50, 127
1, 330718, Note_off_c, 0, 49, 52
1, 330766, Poly_aftertouch_c, 0, 50, 0
1, 330848, Note_on_c, 0, 68, 81
1, 330853, Note_off_c, 0, 41, 58
1, 330874, Note_off_c, 0, 65, 54
1, 330896, Note_off_c, 0, 76, 51
1, 330914, Note_off_c, 0, 68, 61
1, 330999, Note_on_c, 0, 71, 100
1, 331158, Note_on_c, 0, 65, 61
1, 331292, Note_on_c, 0, 68, 76
1, 331296, Note_off_c, 0, 71, 55
1, 331316, Note_off_c, 0, 65, 60
1, 331337, Note_off_c, 0, 68, 59
1, 331465, Note_on_c, 0, 43, 103
1, 331470, Note_on_c, 0, 76, 105
1, 331477, Note_on_c, 0, 29, 84
1, 331479, Note_on_c, 0, 35, 76
1, 331481, Note_on_c, 0, 31, 74
1, 331489, Note_on_c, 0, 32, 71
1, 331514, Note_on_c, 0, 37, 20
1, 331518, Note_off_c, 0, 32, 63
1, 331524, Note_off_c, 0, 43, 66
1, 331528, Note_off_c, 0, 35, 63
1, 331534, Note_off_c, 0, 29, 63
1, 331538, Note_off_c, 0, 31, 65
1, 331564, Note_off_c, 0, 37, 51
1, 331633, Note_on_c, 0, 65, 83
1, 331738, Note_off_c, 0, 65, 0
1, 331754, Note_on_c, 0, 68, 89
1, 331775, Poly_aftertouch_c, 0, 65, 127
1, 331805, Note_off_c, 0, 68, 63
1, 331811, Note_off_c, 0, 76, 55
1, 331823, Poly_aftertouch_c, 0, 65, 0
1, 331912, Note_on_c, 0, 71, 103
1, 332046, Note_on_c, 0, 65, 80
1, 332103, Note_off_c, 0, 71, 54
1, 332160, Note_on_c, 0, 68, 82
1, 332164, Note_off_c, 0, 65, 61
1, 332198, Note_off_c, 0, 68, 60
1, 332306, Note_on_c, 0, 50, 97
1, 332314, Note_on_c, 0, 41, 93
1, 332322, Note_on_c, 0, 76, 112
1, 332322, Control_c, 0, 64, 106
1, 332336, Control_c, 0, 64, 72
1, 332351, Control_c, 0, 64, 65
1, 332366, Control_c, 0, 64, 87
1, 332381, Control_c, 0, 64, 127
1, 332383, Note_on_c, 0, 53, 99
1, 332385, Note_on_c, 0, 49, 82
1, 332403, Note_off_c, 0, 50, 64
1, 332423, Note_off_c, 0, 41, 63
1, 332430, Note_off_c, 0, 53, 64
1, 332437, Note_off_c, 0, 49, 66
1, 332491, Note_on_c, 0, 65, 85
1, 332613, Note_on_c, 0, 68, 90
1, 332629, Note_off_c, 0, 65, 61
1, 332663, Note_off_c, 0, 76, 54
1, 332671, Note_off_c, 0, 68, 63
1, 332756, Note_on_c, 0, 71, 104
1, 332884, Note_on_c, 0, 65, 74
1, 333017, Note_on_c, 0, 68, 79
1, 333030, Note_off_c, 0, 65, 59
1, 333039, Note_off_c, 0, 71, 55
1, 333048, Note_off_c, 0, 68, 63
1, 333164, Note_on_c, 0, 43, 105
1, 333171, Note_on_c, 0, 35, 78
1, 333173, Note_on_c, 0, 76, 110
1, 333178, Note_on_c, 0, 29, 84
1, 333181, Note_on_c, 0, 31, 75
1, 333195, Note_on_c, 0, 37, 46
1, 333207, Note_off_c, 0, 29, 68
1, 333240, Note_off_c, 0, 37, 46
1, 333242, Note_off_c, 0, 43, 60
1, 333248, Note_off_c, 0, 35, 60
1, 333256, Note_off_c, 0, 31, 62
1, 333289, Poly_aftertouch_c, 0, 32, 0
1, 333373, Note_on_c, 0, 65, 90
1, 333505, Note_off_c, 0, 65, 59
1, 333542, Note_on_c, 0, 68, 89
1, 333621, Note_off_c, 0, 68, 58
1, 333650, Note_off_c, 0, 76, 47
1, 333723, Note_on_c, 0, 71, 105
1, 333904, Note_on_c, 0, 65, 79
1, 333972, Note_off_c, 0, 71, 43
1, 334029, Note_on_c, 0, 68, 77
1, 334037, Note_off_c, 0, 65, 56
1, 334050, Note_off_c, 0, 68, 69
1, 334059, Control_c, 0, 64, 104
1, 334073, Control_c, 0, 64, 60
1, 334088, Control_c, 0, 64, 0
1, 334161, Note_on_c, 0, 41, 52
1, 334288, Note_on_c, 0, 46, 36
1, 334346, Note_off_c, 0, 41, 34
1, 334362, Control_c, 0, 64, 34
1, 334377, Control_c, 0, 64, 72
1, 334392, Control_c, 0, 64, 99
1, 334406, Control_c, 0, 64, 127
1, 334416, Note_on_c, 0, 56, 53
1, 334478, Note_off_c, 0, 56, 50
1, 334491, Note_off_c, 0, 46, 40
1, 334538, Note_on_c, 0, 62, 36
1, 334594, Note_off_c, 0, 62, 54
1, 334623, Note_on_c, 0, 65, 45
1, 334714, Note_off_c, 0, 65, 37
1, 334741, Note_on_c, 0, 70, 45
1, 334968, Note_off_c, 0, 70, 54
1, 335024, Note_on_c, 0, 68, 42
1, 335065, Note_off_c, 0, 68, 58
1, 335120, Note_on_c, 0, 70, 35
1, 335155, Note_off_c, 0, 70, 60
1, 335168, Note_on_c, 0, 68, 54
1, 335182, Note_on_c, 0, 71, 56
1, 335206, Note_off_c, 0, 68, 61
1, 335304, Poly_aftertouch_c, 0, 70, 127
1, 335310, Note_off_c, 0, 71, 57
1, 335311, Note_on_c, 0, 68, 40
1, 335319, Note_on_c, 0, 73, 61
1, 335336, Note_off_c, 0, 68, 58
1, 335359, Note_off_c, 0, 73, 59
1, 335360, Note_on_c, 0, 70, 4
1, 335408, Note_on_c, 0, 68, 59
1, 335418, Note_off_c, 0, 70, 49
1, 335441, Note_off_c, 0, 68, 61
1, 335455, Note_on_c, 0, 73, 62
1, 335458, Poly_aftertouch_c, 0, 71, 127
1, 335463, Note_on_c, 0, 70, 54
1, 335466, Poly_aftertouch_c, 0, 71, 0
1, 335488, Note_off_c, 0, 73, 64
1, 335489, Note_on_c, 0, 71, 33
1, 335513, Note_on_c, 0, 68, 65
1, 335543, Note_off_c, 0, 71, 62
1, 335546, Note_off_c, 0, 70, 0
1, 335555, Note_off_c, 0, 68, 59
1, 335563, Note_on_c, 0, 73, 70
1, 335564, Note_on_c, 0, 70, 44
1, 335594, Note_off_c, 0, 73, 61
1, 335601, Note_off_c, 0, 70, 62
1, 335619, Note_on_c, 0, 71, 46
1, 335628, Note_on_c, 0, 68, 64
1, 335658, Note_off_c, 0, 71, 57
1, 335662, Note_off_c, 0, 68, 68
1, 335694, Note_on_c, 0, 73, 52
1, 335698, Note_on_c, 0, 67, 68
1, 335714, Note_off_c, 0, 73, 61
1, 335732, Note_off_c, 0, 67, 57
1, 335759, Note_on_c, 0, 64, 56
1, 335759, Note_on_c, 0, 71, 25
1, 335782, Note_off_c, 0, 64, 61
1, 335785, Note_on_c, 0, 73, 67
1, 335796, Note_off_c, 0, 71, 53
1, 335825, Note_off_c, 0, 73, 58
1, 335841, Note_on_c, 0, 62, 55
1, 335864, Note_off_c, 0, 62, 61
1, 335891, Poly_aftertouch_c, 0, 71, 127
1, 335908, Note_on_c, 0, 59, 51
1, 335911, Note_on_c, 0, 73, 55
1, 335924, Poly_aftertouch_c, 0, 71, 0
1, 335933, Note_off_c, 0, 59, 57
1, 335950, Note_on_c, 0, 71, 41
1, 335951, Note_off_c, 0, 73, 52
1, 335974, Note_on_c, 0, 61, 61
1, 336002, Note_off_c, 0, 71, 64
1, 336004, Note_off_c, 0, 61, 64
1, 336013, Note_on_c, 0, 73, 64
1, 336026, Note_on_c, 0, 59, 56
1, 336057, Note_off_c, 0, 73, 62
1, 336062, Note_off_c, 0, 59, 58
1, 336071, Note_on_c, 0, 71, 45
1, 336083, Note_on_c, 0, 61, 67
1, 336117, Note_on_c, 0, 73, 71
1, 336118, Note_off_c, 0, 71, 55
1, 336121, Note_off_c, 0, 61, 57
1, 336146, Note_on_c, 0, 59, 61
1, 336173, Note_off_c, 0, 59, 65
1, 336178, Note_off_c, 0, 73, 61
1, 336196, Note_on_c, 0, 61, 62
1, 336197, Note_on_c, 0, 70, 75
1, 336230, Note_off_c, 0, 61, 61
1, 336236, Note_off_c, 0, 70, 63
1, 336250, Note_on_c, 0, 59, 67
1, 336297, Note_off_c, 0, 59, 61
1, 336309, Note_on_c, 0, 61, 73
1, 336338, Note_off_c, 0, 61, 66
1, 336386, Note_on_c, 0, 62, 63
1, 336425, Note_off_c, 0, 62, 63
1, 336449, Note_on_c, 0, 64, 69
1, 336497, Note_on_c, 0, 67, 75
1, 336501, Note_off_c, 0, 64, 64
1, 336522, Note_off_c, 0, 67, 67
1, 336542, Note_on_c, 0, 44, 65
1, 336562, Control_c, 0, 64, 107
1, 336577, Control_c, 0, 64, 68
1, 336592, Control_c, 0, 64, 0
1, 336614, Note_on_c, 0, 68, 76
1, 336620, Note_on_c, 0, 65, 59
1, 336622, Control_c, 0, 64, 58
1, 336637, Control_c, 0, 64, 73
1, 336644, Note_on_c, 0, 49, 51
1, 336651, Control_c, 0, 64, 100
1, 336652, Note_off_c, 0, 44, 59
1, 336666, Control_c, 0, 64, 127
1, 336703, Note_off_c, 0, 68, 61
1, 336717, Note_off_c, 0, 49, 62
1, 336759, Note_on_c, 0, 59, 59
1, 336769, Note_on_c, 0, 71, 85
1, 336781, Note_off_c, 0, 59, 62
1, 336849, Note_off_c, 0, 71, 60
1, 336959, Note_on_c, 0, 74, 84
1, 337012, Note_off_c, 0, 65, 25
1, 337030, Note_off_c, 0, 74, 57
1, 337087, Note_on_c, 0, 76, 76
1, 337130, Note_off_c, 0, 76, 62
1, 337278, Note_on_c, 0, 68, 58
1, 337317, Note_off_c, 0, 68, 59
1, 337365, Note_on_c, 0, 70, 48
1, 337390, Note_off_c, 0, 70, 60
1, 337418, Note_on_c, 0, 68, 56
1, 337450, Note_off_c, 0, 68, 64
1, 337466, Note_on_c, 0, 70, 62
1, 337494, Note_off_c, 0, 70, 65
1, 337525, Note_on_c, 0, 68, 62
1, 337561, Note_off_c, 0, 68, 60
1, 337582, Note_on_c, 0, 70, 66
1, 337610, Note_off_c, 0, 70, 65
1, 337662, Note_on_c, 0, 68, 53
1, 337680, Note_on_c, 0, 70, 70
1, 337698, Note_off_c, 0, 70, 72
1, 337731, Note_on_c, 0, 67, 74
1, 337746, Note_off_c, 0, 68, 42
1, 337775, Note_off_c, 0, 67, 57
1, 337803, Note_on_c, 0, 64, 59
1, 337824, Note_off_c, 0, 64, 63
1, 337872, Note_on_c, 0, 62, 64
1, 337911, Note_off_c, 0, 62, 63
1, 337948, Note_on_c, 0, 59, 62
1, 337972, Note_off_c, 0, 59, 62
1, 338020, Note_on_c, 0, 61, 68
1, 338051, Note_off_c, 0, 61, 63
1, 338053, Poly_aftertouch_c, 0, 60, 0
1, 338076, Note_on_c, 0, 59, 55
1, 338107, Note_off_c, 0, 59, 62
1, 338142, Note_on_c, 0, 61, 60
1, 338176, Note_off_c, 0, 61, 62
1, 338192, Note_on_c, 0, 59, 60
1, 338224, Note_off_c, 0, 59, 60
1, 338259, Note_on_c, 0, 61, 63
1, 338286, Note_off_c, 0, 61, 65
1, 338318, Note_on_c, 0, 59, 49
1, 338345, Note_off_c, 0, 59, 56
1, 338357, Note_on_c, 0, 61, 68
1, 338367, Note_on_c, 0, 74, 81
1, 338393, Note_off_c, 0, 74, 64
1, 338393, Note_off_c, 0, 61, 54
1, 338424, Note_on_c, 0, 59, 59
1, 338448, Note_off_c, 0, 59, 66
1, 338509, Note_on_c, 0, 61, 42
1, 338534, Note_off_c, 0, 61, 58
1, 338544, Note_on_c, 0, 59, 56
1, 338563, Note_off_c, 0, 59, 63
1, 338601, Note_on_c, 0, 61, 63
1, 338623, Note_off_c, 0, 61, 62
1, 338667, Note_on_c, 0, 62, 56
1, 338691, Note_off_c, 0, 62, 59
1, 338733, Note_on_c, 0, 64, 49
1, 338747, Note_on_c, 0, 47, 57
1, 338751, Note_on_c, 0, 67, 73
1, 338757, Note_off_c, 0, 64, 60
1, 338774, Note_off_c, 0, 67, 67
1, 338841, Note_on_c, 0, 52, 52
1, 338860, Note_off_c, 0, 47, 65
1, 338983, Note_on_c, 0, 62, 64
1, 339004, Note_on_c, 0, 79, 90
1, 339016, Control_c, 0, 64, 82
1, 339024, Note_on_c, 0, 68, 68
1, 339030, Note_on_c, 0, 71, 53
1, 339031, Control_c, 0, 64, 47
1, 339046, Control_c, 0, 64, 0
1, 339054, Note_off_c, 0, 71, 57
1, 339060, Control_c, 0, 64, 66
1, 339075, Control_c, 0, 64, 83
1, 339090, Control_c, 0, 64, 127
1, 339119, Note_off_c, 0, 79, 58
1, 339147, Note_off_c, 0, 62, 60
1, 339159, Note_off_c, 0, 52, 34
1, 339195, Note_off_c, 0, 68, 60
1, 339454, Note_on_c, 0, 75, 72
1, 339472, Note_on_c, 0, 74, 85
1, 339482, Note_off_c, 0, 75, 50
1, 339490, Note_on_c, 0, 68, 65
1, 339529, Note_off_c, 0, 68, 59
1, 339558, Note_on_c, 0, 70, 67
1, 339584, Note_off_c, 0, 70, 65
1, 339613, Note_on_c, 0, 68, 70
1, 339657, Note_on_c, 0, 70, 71
1, 339661, Note_off_c, 0, 68, 59
1, 339699, Note_off_c, 0, 70, 64
1, 339710, Note_on_c, 0, 68, 72
1, 339746, Note_off_c, 0, 68, 62
1, 339753, Note_on_c, 0, 67, 78
1, 339803, Note_off_c, 0, 67, 62
1, 339806, Note_on_c, 0, 64, 78
1, 339843, Note_off_c, 0, 74, 59
1, 339850, Note_off_c, 0, 64, 61
1, 339887, Note_on_c, 0, 79, 98
1, 339890, Note_on_c, 0, 71, 63
1, 339904, Note_on_c, 0, 62, 75
1, 339905, Note_on_c, 0, 68, 74
1, 339958, Note_off_c, 0, 62, 62
1, 339973, Note_on_c, 0, 59, 71
1, 340002, Note_off_c, 0, 59, 61
1, 340050, Note_on_c, 0, 61, 72
1, 340053, Note_off_c, 0, 79, 59
1, 340095, Note_off_c, 0, 61, 60
1, 340112, Note_on_c, 0, 59, 67
1, 340154, Note_off_c, 0, 59, 57
1, 340187, Note_on_c, 0, 61, 61
1, 340209, Note_off_c, 0, 71, 23
1, 340212, Note_off_c, 0, 68, 45
1, 340223, Note_off_c, 0, 61, 60
1, 340254, Note_on_c, 0, 59, 60
1, 340281, Note_off_c, 0, 59, 64
1, 340298, Note_on_c, 0, 61, 70
1, 340298, Note_on_c, 0, 74, 92
1, 340323, Note_off_c, 0, 74, 64
1, 340327, Note_off_c, 0, 61, 61
1, 340348, Note_on_c, 0, 59, 72
1, 340393, Note_off_c, 0, 59, 52
1, 340405, Note_on_c, 0, 61, 86
1, 340426, Note_off_c, 0, 61, 71
1, 340476, Note_on_c, 0, 62, 80
1, 340503, Note_off_c, 0, 62, 65
1, 340529, Note_on_c, 0, 64, 80
1, 340556, Note_on_c, 0, 50, 79
1, 340557, Note_on_c, 0, 48, 82
1, 340561, Note_on_c, 0, 67, 84
1, 340570, Note_off_c, 0, 64, 67
1, 340589, Control_c, 0, 64, 91
1, 340591, Note_off_c, 0, 67, 62
1, 340593, Note_on_c, 0, 55, 77
1, 340593, Note_off_c, 0, 48, 60
1, 340604, Control_c, 0, 64, 62
1, 340619, Control_c, 0, 64, 34
1, 340629, Note_off_c, 0, 50, 66
1, 340634, Control_c, 0, 64, 69
1, 340648, Control_c, 0, 64, 102
1, 340663, Control_c, 0, 64, 127
1, 340690, Note_off_c, 0, 55, 65
1, 340710, Note_on_c, 0, 65, 94
1, 340719, Note_on_c, 0, 68, 101
1, 340719, Note_on_c, 0, 79, 95
1, 340742, Note_off_c, 0, 65, 64
1, 340749, Note_on_c, 0, 77, 46
1, 340751, Note_on_c, 0, 72, 42
1, 340779, Note_off_c, 0, 72, 57
1, 340782, Poly_aftertouch_c, 0, 56, 127
1, 340790, Note_off_c, 0, 77, 33
1, 340794, Note_off_c, 0, 79, 58
1, 340799, Poly_aftertouch_c, 0, 56, 0
1, 340852, Note_off_c, 0, 68, 59
1, 341129, Note_on_c, 0, 74, 101
1, 341156, Note_on_c, 0, 68, 76
1, 341206, Note_off_c, 0, 68, 57
1, 341238, Note_on_c, 0, 70, 68
1, 341266, Note_off_c, 0, 70, 64
1, 341281, Note_on_c, 0, 68, 77
1, 341338, Note_off_c, 0, 68, 59
1, 341339, Note_on_c, 0, 70, 79
1, 341384, Note_off_c, 0, 70, 65
1, 341394, Note_on_c, 0, 68, 76
1, 341435, Note_on_c, 0, 67, 77
1, 341484, Note_off_c, 0, 68, 58
1, 341492, Note_on_c, 0, 64, 77
1, 341494, Note_off_c, 0, 67, 62
1, 341499, Note_off_c, 0, 74, 55
1, 341508, Note_on_c, 0, 65, 53
1, 341529, Note_off_c, 0, 64, 63
1, 341535, Note_off_c, 0, 65, 57
1, 341554, Note_on_c, 0, 71, 73
1, 341555, Note_on_c, 0, 79, 103
1, 341567, Note_on_c, 0, 68, 85
1, 341580, Note_on_c, 0, 62, 86
1, 341585, Note_on_c, 0, 75, 40
1, 341613, Note_off_c, 0, 75, 60
1, 341652, Note_off_c, 0, 62, 59
1, 341660, Note_on_c, 0, 59, 80
1, 341702, Note_off_c, 0, 59, 54
1, 341737, Note_on_c, 0, 61, 79
1, 341749, Note_off_c, 0, 79, 51
1, 341793, Note_off_c, 0, 61, 63
1, 341802, Note_on_c, 0, 59, 77
1, 341845, Note_off_c, 0, 59, 59
1, 341866, Note_on_c, 0, 61, 79
1, 341901, Note_off_c, 0, 71, 52
1, 341922, Note_off_c, 0, 61, 61
1, 341934, Note_on_c, 0, 59, 76
1, 341966, Note_off_c, 0, 68, 39
1, 341971, Note_off_c, 0, 59, 60
1, 341985, Note_on_c, 0, 74, 105
1, 341987, Note_on_c, 0, 61, 76
1, 342044, Note_off_c, 0, 61, 60
1, 342050, Note_off_c, 0, 74, 66
1, 342050, Note_on_c, 0, 59, 78
1, 342088, Note_off_c, 0, 59, 51
1, 342101, Note_on_c, 0, 61, 74
1, 342163, Note_off_c, 0, 61, 62
1, 342167, Note_on_c, 0, 59, 84
1, 342218, Note_on_c, 0, 61, 78
1, 342223, Note_off_c, 0, 59, 60
1, 342259, Note_off_c, 0, 61, 66
1, 342291, Note_on_c, 0, 62, 83
1, 342331, Note_off_c, 0, 62, 63
1, 342363, Note_on_c, 0, 64, 6
1, 342399, Note_on_c, 0, 67, 92
1, 342430, Note_off_c, 0, 64, 60
1, 342434, Note_off_c, 0, 67, 69
1, 342449, Control_c, 0, 64, 99
1, 342463, Control_c, 0, 64, 0
1, 342490, Note_on_c, 0, 62, 95
1, 342491, Note_on_c, 0, 60, 88
1, 342502, Note_on_c, 0, 53, 81
1, 342506, Note_on_c, 0, 52, 76
1, 342509, Note_off_c, 0, 60, 72
1, 342523, Control_c, 0, 64, 80
1, 342524, Note_off_c, 0, 52, 65
1, 342537, Control_c, 0, 64, 127
1, 342569, Note_on_c, 0, 65, 98
1, 342571, Note_on_c, 0, 61, 94
1, 342624, Note_off_c, 0, 65, 63
1, 342635, Note_off_c, 0, 62, 60
1, 342649, Note_off_c, 0, 53, 59
1, 342652, Note_off_c, 0, 61, 61
1, 342655, Poly_aftertouch_c, 0, 75, 0
1, 342680, Note_on_c, 0, 67, 100
1, 342681, Note_on_c, 0, 79, 102
1, 342701, Note_on_c, 0, 78, 66
1, 342718, Note_off_c, 0, 78, 65
1, 342784, Note_off_c, 0, 67, 55
1, 342796, Note_off_c, 0, 79, 56
1, 342961, Note_on_c, 0, 68, 106
1, 342964, Note_on_c, 0, 80, 100
1, 343004, Note_on_c, 0, 78, 40
1, 343036, Note_off_c, 0, 78, 52
1, 343120, Note_off_c, 0, 80, 54
1, 343177, Note_off_c, 0, 68, 57
1, 343397, Note_on_c, 0, 29, 49
1, 343452, Note_on_c, 0, 67, 57
1, 343537, Note_on_c, 0, 35, 43
1, 343553, Note_off_c, 0, 29, 36
1, 343602, Note_off_c, 0, 35, 59
1, 343636, Note_on_c, 0, 61, 66
1, 343655, Note_on_c, 0, 43, 52
1, 343687, Note_off_c, 0, 43, 63
1, 343706, Note_off_c, 0, 61, 60
1, 343797, Note_on_c, 0, 65, 73
1, 343822, Note_off_c, 0, 67, 40
1, 343862, Poly_aftertouch_c, 0, 40, 127
1, 343866, Poly_aftertouch_c, 0, 41, 127
1, 343905, Note_on_c, 0, 47, 53
1, 343910, Poly_aftertouch_c, 0, 40, 0
1, 343920, Poly_aftertouch_c, 0, 41, 0
1, 343933, Note_on_c, 0, 59, 65
1, 343998, Note_off_c, 0, 47, 61
1, 343998, Note_off_c, 0, 59, 58
1, 344024, Note_on_c, 0, 55, 61
1, 344039, Note_off_c, 0, 65, 35
1, 344071, Note_on_c, 0, 67, 83
1, 344076, Note_off_c, 0, 55, 62
1, 344123, Note_on_c, 0, 47, 59
1, 344193, Note_on_c, 0, 61, 75
1, 344203, Note_on_c, 0, 41, 64
1, 344206, Note_off_c, 0, 47, 64
1, 344242, Note_off_c, 0, 41, 61
1, 344273, Note_off_c, 0, 61, 61
1, 344309, Note_off_c, 0, 67, 57
1, 344329, Note_on_c, 0, 43, 73
1, 344336, Note_on_c, 0, 65, 88
1, 344393, Note_off_c, 0, 43, 61
1, 344427, Note_on_c, 0, 35, 70
1, 344450, Note_on_c, 0, 59, 85
1, 344516, Note_off_c, 0, 59, 60
1, 344523, Note_off_c, 0, 65, 57
1, 344530, Note_on_c, 0, 29, 82
1, 344533, Note_off_c, 0, 35, 59
1, 344588, Note_on_c, 0, 67, 91
1, 344648, Note_on_c, 0, 35, 76
1, 344663, Note_off_c, 0, 29, 62
1, 344697, Note_off_c, 0, 67, 60
1, 344729, Note_on_c, 0, 61, 90
1, 344734, Note_off_c, 0, 35, 61
1, 344751, Note_on_c, 0, 43, 82
1, 344768, Note_off_c, 0, 61, 64
1, 344802, Note_off_c, 0, 43, 64
1, 344864, Note_on_c, 0, 41, 94
1, 344984, Note_on_c, 0, 79, 102
1, 344984, Note_on_c, 0, 67, 98
1, 344987, Note_on_c, 0, 65, 96
1, 345001, Note_on_c, 0, 78, 73
1, 345018, Note_on_c, 0, 73, 41
1, 345024, Note_off_c, 0, 78, 70
1, 345057, Note_off_c, 0, 73, 45
1, 345058, Note_on_c, 0, 47, 89
1, 345068, Note_off_c, 0, 41, 59
1, 345076, Poly_aftertouch_c, 0, 75, 127
1, 345103, Note_off_c, 0, 47, 67
1, 345106, Note_off_c, 0, 79, 56
1, 345106, Note_off_c, 0, 65, 55
1, 345112, Note_off_c, 0, 67, 53
1, 345154, Poly_aftertouch_c, 0, 75, 0
1, 345289, Control_c, 0, 64, 71
1, 345304, Control_c, 0, 64, 0
1, 345311, Note_on_c, 0, 62, 99
1, 345317, Note_on_c, 0, 53, 93
1, 345318, Note_on_c, 0, 68, 106
1, 345324, Note_on_c, 0, 80, 94
1, 345334, Control_c, 0, 64, 29
1, 345346, Note_on_c, 0, 78, 58
1, 345349, Control_c, 0, 64, 101
1, 345361, Note_off_c, 0, 68, 65
1, 345363, Control_c, 0, 64, 127
1, 345365, Note_off_c, 0, 78, 65
1, 345366, Note_off_c, 0, 62, 67
1, 345368, Note_off_c, 0, 80, 66
1, 345415, Note_on_c, 0, 65, 102
1, 345416, Note_on_c, 0, 61, 99
1, 345425, Note_on_c, 0, 62, 71
1, 345446, Note_off_c, 0, 62, 63
1, 345455, Note_on_c, 0, 71, 102
1, 345460, Note_off_c, 0, 61, 67
1, 345461, Note_on_c, 0, 83, 98
1, 345469, Note_on_c, 0, 80, 81
1, 345473, Note_off_c, 0, 53, 60
1, 345475, Note_off_c, 0, 65, 59
1, 345482, Note_off_c, 0, 80, 71
1, 345484, Note_off_c, 0, 71, 71
1, 345496, Note_off_c, 0, 83, 67
1, 345531, Note_on_c, 0, 81, 8
1, 345532, Note_off_c, 0, 81, 127
1, 345579, Note_on_c, 0, 73, 107
1, 345584, Note_on_c, 0, 85, 105
1, 345598, Note_on_c, 0, 80, 23
1, 345608, Note_off_c, 0, 73, 69
1, 345618, Note_off_c, 0, 85, 60
1, 345630, Note_on_c, 0, 82, 17
1, 345631, Note_off_c, 0, 82, 127
1, 345635, Note_off_c, 0, 80, 54
1, 345913, Note_on_c, 0, 29, 49
1, 345975, Note_on_c, 0, 71, 61
1, 345986, Note_on_c, 0, 67, 55
1, 346038, Note_off_c, 0, 29, 59
1, 346045, Note_on_c, 0, 35, 53
1, 346051, Note_off_c, 0, 67, 45
1, 346102, Note_off_c, 0, 35, 62
1, 346134, Note_off_c, 0, 71, 56
1, 346149, Note_on_c, 0, 70, 68
1, 346160, Note_on_c, 0, 61, 67
1, 346167, Note_on_c, 0, 43, 59
1, 346199, Note_off_c, 0, 43, 64
1, 346207, Note_off_c, 0, 61, 61
1, 346215, Note_off_c, 0, 70, 62
1, 346302, Note_on_c, 0, 65, 75
1, 346304, Note_on_c, 0, 69, 75
1, 346305, Note_on_c, 0, 41, 38
1, 346324, Note_on_c, 0, 43, 35
1, 346367, Note_off_c, 0, 65, 62
1, 346372, Note_off_c, 0, 43, 43
1, 346393, Note_off_c, 0, 41, 37
1, 346415, Note_on_c, 0, 47, 39
1, 346418, Note_off_c, 0, 69, 49
1, 346425, Note_on_c, 0, 48, 57
1, 346425, Note_on_c, 0, 68, 80
1, 346430, Note_on_c, 0, 59, 69
1, 346456, Note_off_c, 0, 48, 55
1, 346456, Note_off_c, 0, 59, 65
1, 346467, Note_off_c, 0, 47, 63
1, 346480, Note_off_c, 0, 68, 60
1, 346504, Note_on_c, 0, 55, 63
1, 346534, Note_off_c, 0, 55, 64
1, 346550, Note_on_c, 0, 71, 86
1, 346552, Note_on_c, 0, 67, 84
1, 346587, Note_on_c, 0, 47, 63
1, 346608, Note_off_c, 0, 67, 61
1, 346640, Note_off_c, 0, 71, 63
1, 346659, Note_on_c, 0, 41, 72
1, 346670, Note_off_c, 0, 47, 64
1, 346673, Note_on_c, 0, 70, 87
1, 346674, Note_on_c, 0, 61, 92
1, 346697, Note_off_c, 0, 41, 64
1, 346715, Note_off_c, 0, 61, 65
1, 346716, Note_off_c, 0, 70, 66
1, 346782, Note_on_c, 0, 43, 82
1, 346802, Note_on_c, 0, 65, 96
1, 346807, Note_on_c, 0, 69, 83
1, 346828, Note_on_c, 0, 67, 58
1, 346838, Note_off_c, 0, 43, 61
1, 346867, Note_off_c, 0, 65, 62
1, 346894, Note_on_c, 0, 35, 77
1, 346919, Note_off_c, 0, 67, 0
1, 346919, Note_on_c, 0, 67, 50
1, 346932, Note_on_c, 0, 57, 71
1, 346936, Note_on_c, 0, 59, 68
1, 346940, Note_off_c, 0, 69, 65
1, 346948, Note_on_c, 0, 66, 44
1, 346949, Note_off_c, 0, 66, 127
1, 346959, Note_off_c, 0, 57, 66
1, 346961, Note_off_c, 0, 59, 64
1, 346973, Note_off_c, 0, 67, 63
1, 346998, Note_on_c, 0, 29, 91
1, 347017, Note_off_c, 0, 35, 60
1, 347064, Note_on_c, 0, 71, 90
1, 347072, Note_on_c, 0, 67, 84
1, 347072, Note_on_c, 0, 69, 79
1, 347073, Note_on_c, 0, 68, 75
1, 347097, Note_off_c, 0, 69, 66
1, 347098, Note_off_c, 0, 68, 65
1, 347100, Note_on_c, 0, 35, 76
1, 347102, Note_off_c, 0, 67, 60
1, 347119, Note_off_c, 0, 29, 61
1, 347123, Note_off_c, 0, 71, 59
1, 347185, Note_on_c, 0, 70, 93
1, 347189, Note_on_c, 0, 61, 86
1, 347191, Note_on_c, 0, 43, 89
1, 347197, Note_off_c, 0, 35, 62
1, 347209, Note_off_c, 0, 61, 71
1, 347224, Note_off_c, 0, 70, 67
1, 347231, Note_off_c, 0, 43, 65
1, 347315, Note_on_c, 0, 41, 81
1, 347331, Note_on_c, 0, 43, 55
1, 347351, Note_off_c, 0, 43, 39
1, 347365, Note_on_c, 0, 83, 101
1, 347368, Note_on_c, 0, 77, 100
1, 347371, Note_on_c, 0, 71, 97
1, 347391, Note_on_c, 0, 47, 89
1, 347393, Note_on_c, 0, 79, 50
1, 347397, Note_off_c, 0, 41, 59
1, 347418, Note_off_c, 0, 79, 59
1, 347425, Note_off_c, 0, 47, 62
1, 347442, Note_off_c, 0, 71, 64
1, 347449, Note_off_c, 0, 77, 58
1, 347482, Poly_aftertouch_c, 0, 69, 0
1, 347492, Note_off_c, 0, 83, 58
1, 347539, Note_on_c, 0, 67, 97
1, 347539, Note_on_c, 0, 76, 93
1, 347555, Note_on_c, 0, 75, 61
1, 347568, Note_off_c, 0, 67, 60
1, 347577, Note_off_c, 0, 75, 37
1, 347583, Note_off_c, 0, 76, 65
1, 347662, Control_c, 0, 64, 109
1, 347677, Control_c, 0, 64, 62
1, 347691, Control_c, 0, 64, 0
1, 347736, Control_c, 0, 64, 127
1, 347750, Note_on_c, 0, 62, 101
1, 347757, Note_on_c, 0, 53, 95
1, 347771, Note_on_c, 0, 83, 100
1, 347771, Note_on_c, 0, 86, 98
1, 347773, Note_on_c, 0, 79, 95
1, 347806, Note_on_c, 0, 88, 30
1, 347816, Note_on_c, 0, 61, 88
1, 347826, Note_on_c, 0, 65, 106
1, 347827, Note_off_c, 0, 86, 54
1, 347832, Note_off_c, 0, 88, 58
1, 347837, Note_off_c, 0, 79, 57
1, 347839, Note_off_c, 0, 62, 39
1, 347845, Note_off_c, 0, 83, 64
1, 347863, Note_off_c, 0, 65, 69
1, 347866, Note_off_c, 0, 61, 68
1, 347884, Note_off_c, 0, 53, 60
1, 347952, Note_on_c, 0, 82, 101
1, 347965, Note_on_c, 0, 73, 74
1, 347966, Note_on_c, 0, 72, 74
1, 347980, Note_off_c, 0, 73, 70
1, 347982, Note_off_c, 0, 72, 69
1, 348003, Note_off_c, 0, 82, 63
1, 348093, Note_on_c, 0, 83, 84
1, 348099, Note_on_c, 0, 81, 80
1, 348101, Note_on_c, 0, 79, 83
1, 348104, Note_on_c, 0, 77, 75
1, 348106, Note_on_c, 0, 76, 81
1, 348128, Note_off_c, 0, 76, 68
1, 348132, Note_off_c, 0, 77, 65
1, 348179, Note_off_c, 0, 79, 59
1, 348204, Note_on_c, 0, 80, 92
1, 348206, Note_on_c, 0, 71, 90
1, 348209, Note_off_c, 0, 83, 56
1, 348210, Note_off_c, 0, 81, 57
1, 348231, Note_off_c, 0, 71, 65
1, 348254, Note_off_c, 0, 80, 65
1, 348318, Note_on_c, 0, 29, 94
1, 348339, Note_on_c, 0, 83, 102
1, 348341, Note_on_c, 0, 79, 99
1, 348342, Note_on_c, 0, 88, 96
1, 348347, Note_on_c, 0, 86, 92
1, 348358, Control_c, 0, 64, 86
1, 348368, Note_off_c, 0, 86, 63
1, 348371, Note_off_c, 0, 88, 65
1, 348373, Control_c, 0, 64, 90
1, 348373, Note_off_c, 0, 79, 62
1, 348385, Note_off_c, 0, 83, 66
1, 348395, Control_c, 0, 64, 127
1, 348437, Note_on_c, 0, 35, 77
1, 348451, Note_off_c, 0, 29, 61
1, 348490, Note_on_c, 0, 82, 98
1, 348493, Note_on_c, 0, 73, 96
1, 348495, Note_off_c, 0, 35, 63
1, 348510, Note_on_c, 0, 43, 73
1, 348534, Note_off_c, 0, 73, 61
1, 348541, Note_off_c, 0, 82, 62
1, 348543, Note_off_c, 0, 43, 64
1, 348599, Poly_aftertouch_c, 0, 83, 0
1, 348610, Note_on_c, 0, 83, 76
1, 348612, Note_on_c, 0, 77, 98
1, 348613, Note_on_c, 0, 81, 89
1, 348614, Note_on_c, 0, 41, 81
1, 348654, Note_off_c, 0, 77, 68
1, 348708, Note_on_c, 0, 47, 79
1, 348712, Note_on_c, 0, 80, 63
1, 348721, Note_on_c, 0, 71, 92
1, 348739, Note_off_c, 0, 83, 63
1, 348742, Note_off_c, 0, 71, 67
1, 348745, Note_off_c, 0, 41, 55
1, 348746, Note_off_c, 0, 81, 62
1, 348775, Note_off_c, 0, 80, 64
1, 348814, Note_off_c, 0, 47, 60
1, 348836, Note_on_c, 0, 55, 96
1, 348840, Control_c, 0, 64, 82
1, 348855, Note_on_c, 0, 83, 101
1, 348855, Note_on_c, 0, 88, 102
1, 348855, Control_c, 0, 64, 76
1, 348862, Note_on_c, 0, 79, 92
1, 348870, Control_c, 0, 64, 98
1, 348883, Note_off_c, 0, 79, 67
1, 348885, Control_c, 0, 64, 127
1, 348897, Note_off_c, 0, 83, 65
1, 348914, Note_off_c, 0, 55, 61
1, 348934, Note_off_c, 0, 88, 60
1, 348945, Note_on_c, 0, 47, 59
1, 349008, Note_on_c, 0, 82, 96
1, 349011, Note_on_c, 0, 41, 80
1, 349015, Note_on_c, 0, 73, 84
1, 349025, Note_off_c, 0, 47, 64
1, 349044, Note_on_c, 0, 75, 36
1, 349046, Note_off_c, 0, 41, 61
1, 349046, Note_off_c, 0, 73, 61
1, 349055, Note_on_c, 0, 83, 27
1, 349065, Note_off_c, 0, 82, 61
1, 349076, Note_off_c, 0, 75, 56
1, 349093, Note_off_c, 0, 83, 52
1, 349135, Note_on_c, 0, 41, 77
1, 349137, Note_on_c, 0, 77, 96
1, 349139, Note_on_c, 0, 81, 93
1, 349149, Note_on_c, 0, 84, 65
1, 349151, Note_on_c, 0, 83, 87
1, 349167, Note_on_c, 0, 80, 28
1, 349168, Note_off_c, 0, 80, 127
1, 349170, Note_off_c, 0, 84, 67
1, 349171, Note_off_c, 0, 77, 66
1, 349177, Note_off_c, 0, 41, 62
1, 349235, Note_on_c, 0, 33, 77
1, 349248, Note_on_c, 0, 80, 94
1, 349250, Note_off_c, 0, 83, 64
1, 349258, Note_on_c, 0, 71, 80
1, 349268, Note_on_c, 0, 72, 70
1, 349268, Note_off_c, 0, 81, 63
1, 349286, Note_off_c, 0, 72, 62
1, 349297, Note_off_c, 0, 71, 66
1, 349297, Note_off_c, 0, 80, 64
1, 349303, Note_off_c, 0, 33, 59
1, 349351, Note_on_c, 0, 31, 82
1, 349361, Note_on_c, 0, 79, 104
1, 349362, Note_on_c, 0, 75, 99
1, 349380, Control_c, 0, 64, 92
1, 349383, Note_on_c, 0, 29, 42
1, 349395, Control_c, 0, 64, 75
1, 349410, Control_c, 0, 64, 78
1, 349416, Note_off_c, 0, 75, 57
1, 349425, Control_c, 0, 64, 101
1, 349426, Note_off_c, 0, 79, 60
1, 349431, Note_off_c, 0, 29, 50
1, 349440, Control_c, 0, 64, 127
1, 349449, Note_off_c, 0, 31, 57
1, 349461, Note_on_c, 0, 78, 101
1, 349468, Note_on_c, 0, 69, 89
1, 349473, Note_on_c, 0, 35, 55
1, 349475, Note_on_c, 0, 36, 74
1, 349510, Note_off_c, 0, 69, 64
1, 349520, Note_off_c, 0, 78, 65
1, 349532, Poly_aftertouch_c, 0, 79, 127
1, 349544, Note_off_c, 0, 35, 59
1, 349560, Poly_aftertouch_c, 0, 79, 0
1, 349566, Note_on_c, 0, 43, 86
1, 349571, Note_off_c, 0, 36, 56
1, 349580, Note_on_c, 0, 73, 98
1, 349584, Note_on_c, 0, 77, 94
1, 349610, Note_off_c, 0, 43, 65
1, 349625, Note_off_c, 0, 73, 64
1, 349641, Note_off_c, 0, 77, 54
1, 349675, Note_on_c, 0, 77, 61
1, 349687, Note_on_c, 0, 76, 87
1, 349690, Note_on_c, 0, 67, 88
1, 349699, Note_on_c, 0, 75, 59
1, 349703, Note_on_c, 0, 74, 72
1, 349704, Note_on_c, 0, 40, 60
1, 349704, Note_on_c, 0, 41, 65
1, 349704, Note_off_c, 0, 77, 65
1, 349720, Note_off_c, 0, 75, 63
1, 349720, Note_off_c, 0, 74, 63
1, 349729, Note_off_c, 0, 76, 66
1, 349732, Note_off_c, 0, 40, 65
1, 349732, Note_off_c, 0, 67, 61
1, 349740, Note_off_c, 0, 41, 63
1, 349780, Control_c, 0, 64, 75
1, 349795, Control_c, 0, 64, 0
1, 349825, Control_c, 0, 64, 58
1, 349827, Note_on_c, 0, 71, 100
1, 349828, Note_on_c, 0, 75, 83
1, 349833, Note_on_c, 0, 54, 100
1, 349834, Note_on_c, 0, 62, 92
1, 349839, Control_c, 0, 64, 127
1, 349841, Note_on_c, 0, 68, 77
1, 349842, Note_off_c, 0, 68, 127
1, 349845, Note_on_c, 0, 73, 66
1, 349848, Note_on_c, 0, 63, 61
1, 349857, Note_on_c, 0, 70, 49
1, 349858, Note_off_c, 0, 70, 127
1, 349860, Note_on_c, 0, 46, 42
1, 349862, Note_on_c, 0, 64, 42
1, 349865, Note_off_c, 0, 73, 40
1, 349866, Note_off_c, 0, 54, 70
1, 349878, Note_off_c, 0, 63, 60
1, 349887, Note_off_c, 0, 62, 60
1, 349894, Note_off_c, 0, 75, 68
1, 349899, Note_off_c, 0, 64, 36
1, 349902, Note_off_c, 0, 46, 57
1, 349902, Note_off_c, 0, 71, 60
1, 349909, Note_on_c, 0, 42, 3
1, 349917, Poly_aftertouch_c, 0, 44, 127
1, 349931, Note_on_c, 0, 47, 66
1, 349938, Note_off_c, 0, 42, 0
1, 349967, Poly_aftertouch_c, 0, 44, 0
1, 349978, Note_on_c, 0, 65, 93
1, 349991, Note_on_c, 0, 41, 67
1, 349991, Note_off_c, 0, 47, 64
1, 350031, Note_off_c, 0, 41, 65
1, 350032, Note_off_c, 0, 65, 67
1, 350048, Poly_aftertouch_c, 0, 42, 0
1, 350087, Note_on_c, 0, 66, 102
1, 350091, Note_on_c, 0, 47, 87
1, 350132, Note_on_c, 0, 68, 28
1, 350137, Note_off_c, 0, 47, 65
1, 350144, Note_on_c, 0, 67, 57
1, 350158, Note_off_c, 0, 68, 58
1, 350163, Note_on_c, 0, 42, 38
1, 350175, Note_on_c, 0, 43, 66
1, 350194, Note_on_c, 0, 36, 78
1, 350202, Note_off_c, 0, 42, 51
1, 350202, Note_off_c, 0, 43, 65
1, 350226, Note_off_c, 0, 36, 65
1, 350278, Control_c, 0, 64, 90
1, 350293, Control_c, 0, 64, 70
1, 350301, Note_on_c, 0, 29, 88
1, 350322, Control_c, 0, 64, 89
1, 350337, Control_c, 0, 64, 127
1, 350367, Note_on_c, 0, 35, 69
1, 350373, Note_on_c, 0, 30, 15
1, 350392, Note_off_c, 0, 29, 62
1, 350400, Note_off_c, 0, 66, 22
1, 350400, Poly_aftertouch_c, 0, 32, 127
1, 350423, Note_off_c, 0, 30, 52
1, 350432, Note_off_c, 0, 67, 14
1, 350444, Poly_aftertouch_c, 0, 32, 0
1, 350445, Note_off_c, 0, 35, 63
1, 350454, Note_on_c, 0, 42, 80
1, 350478, Note_off_c, 0, 42, 66
1, 350507, Note_on_c, 0, 65, 97
1, 350553, Note_on_c, 0, 47, 86
1, 350561, Note_off_c, 0, 65, 65
1, 350637, Note_off_c, 0, 47, 66
1, 350639, Note_on_c, 0, 41, 71
1, 350669, Note_on_c, 0, 42, 40
1, 350700, Control_c, 0, 64, 91
1, 350711, Note_off_c, 0, 42, 59
1, 350715, Control_c, 0, 64, 82
1, 350729, Control_c, 0, 64, 106
1, 350731, Note_on_c, 0, 66, 84
1, 350740, Note_on_c, 0, 62, 93
1, 350743, Note_on_c, 0, 54, 100
1, 350744, Control_c, 0, 64, 127
1, 350748, Note_on_c, 0, 75, 81
1, 350749, Note_on_c, 0, 47, 73
1, 350749, Note_off_c, 0, 41, 56
1, 350764, Note_off_c, 0, 75, 73
1, 350770, Note_on_c, 0, 64, 48
1, 350771, Note_off_c, 0, 64, 127
1, 350779, Note_off_c, 0, 54, 68
1, 350781, Note_off_c, 0, 62, 59
1, 350784, Note_off_c, 0, 47, 0
1, 350786, Poly_aftertouch_c, 0, 45, 127
1, 350788, Note_off_c, 0, 66, 65
1, 350823, Poly_aftertouch_c, 0, 47, 127
1, 350863, Note_on_c, 0, 69, 103
1, 350868, Note_on_c, 0, 40, 81
1, 350871, Poly_aftertouch_c, 0, 47, 0
1, 350896, Poly_aftertouch_c, 0, 45, 0
1, 350911, Note_off_c, 0, 69, 67
1, 350933, Note_off_c, 0, 40, 66
1, 350953, Control_c, 0, 64, 99
1, 350968, Control_c, 0, 64, 85
1, 350976, Note_on_c, 0, 48, 75
1, 350977, Note_on_c, 0, 71, 103
1, 350978, Note_on_c, 0, 47, 81
1, 350982, Control_c, 0, 64, 90
1, 350997, Control_c, 0, 64, 127
1, 351004, Note_off_c, 0, 48, 67
1, 351025, Note_off_c, 0, 47, 51
1, 351056, Note_on_c, 0, 43, 68
1, 351073, Note_on_c, 0, 36, 83
1, 351082, Note_off_c, 0, 43, 65
1, 351085, Poly_aftertouch_c, 0, 72, 0
1, 351093, Poly_aftertouch_c, 0, 42, 127
1, 351118, Note_off_c, 0, 36, 59
1, 351130, Control_c, 0, 64, 98
1, 351134, Poly_aftertouch_c, 0, 42, 0
1, 351145, Control_c, 0, 64, 70
1, 351160, Control_c, 0, 64, 64
1, 351175, Control_c, 0, 64, 79
1, 351183, Note_on_c, 0, 29, 90
1, 351190, Control_c, 0, 64, 127
1, 351234, Note_on_c, 0, 32, 19
1, 351256, Note_on_c, 0, 35, 67
1, 351282, Note_off_c, 0, 29, 62
1, 351285, Note_off_c, 0, 32, 48
1, 351332, Note_off_c, 0, 35, 62
1, 351333, Note_on_c, 0, 42, 78
1, 351360, Note_off_c, 0, 42, 65
1, 351364, Note_off_c, 0, 71, 58
1, 351419, Note_on_c, 0, 69, 93
1, 351438, Note_on_c, 0, 47, 90
1, 351468, Note_off_c, 0, 69, 68
1, 351492, Note_off_c, 0, 47, 60
1, 351514, Note_on_c, 0, 41, 79
1, 351559, Note_on_c, 0, 47, 76
1, 351567, Note_on_c, 0, 75, 43
1, 351587, Note_off_c, 0, 41, 63
1, 351596, Note_off_c, 0, 75, 57
1, 351626, Note_off_c, 0, 47, 66
1, 351686, Note_on_c, 0, 74, 98
1, 351687, Control_c, 0, 64, 92
1, 351691, Note_on_c, 0, 78, 100
1, 351692, Note_on_c, 0, 65, 101
1, 351694, Note_on_c, 0, 57, 100
1, 351702, Control_c, 0, 64, 51
1, 351705, Note_on_c, 0, 67, 76
1, 351717, Control_c, 0, 64, 0
1, 351723, Note_off_c, 0, 57, 69
1, 351723, Note_off_c, 0, 67, 40
1, 351731, Control_c, 0, 64, 63
1, 351740, Note_on_c, 0, 73, 38
1, 351746, Control_c, 0, 64, 89
1, 351761, Control_c, 0, 64, 127
1, 351773, Note_off_c, 0, 73, 53
1, 351792, Poly_aftertouch_c, 0, 49, 0
1, 351854, Note_off_c, 0, 65, 60
1, 351872, Note_off_c, 0, 78, 57
1, 351925, Note_off_c, 0, 74, 54
1, 351980, Note_on_c, 0, 69, 100
1, 352101, Note_off_c, 0, 69, 54
1, 352146, Note_on_c, 0, 29, 76
1, 352212, Control_c, 0, 64, 111
1, 352227, Control_c, 0, 64, 78
1, 352234, Note_on_c, 0, 34, 76
1, 352241, Note_off_c, 0, 29, 64
1, 352242, Control_c, 0, 64, 68
1, 352242, Note_on_c, 0, 65, 104
1, 352242, Note_on_c, 0, 74, 95
1, 352248, Note_on_c, 0, 78, 97
1, 352256, Control_c, 0, 64, 82
1, 352259, Note_on_c, 0, 35, 77
1, 352259, Note_on_c, 0, 73, 77
1, 352263, Note_off_c, 0, 34, 63
1, 352271, Control_c, 0, 64, 127
1, 352299, Note_off_c, 0, 78, 65
1, 352307, Note_off_c, 0, 35, 58
1, 352329, Note_on_c, 0, 42, 74
1, 352333, Note_off_c, 0, 73, 55
1, 352341, Note_off_c, 0, 65, 49
1, 352345, Note_on_c, 0, 77, 17
1, 352356, Note_off_c, 0, 42, 65
1, 352364, Note_off_c, 0, 74, 56
1, 352388, Note_off_c, 0, 77, 53
1, 352476, Note_on_c, 0, 47, 60
1, 352480, Note_on_c, 0, 69, 100
1, 352483, Note_on_c, 0, 45, 72
1, 352510, Note_off_c, 0, 45, 65
1, 352518, Note_off_c, 0, 47, 66
1, 352519, Note_off_c, 0, 69, 69
1, 352535, Note_on_c, 0, 41, 71
1, 352592, Note_on_c, 0, 47, 77
1, 352609, Note_off_c, 0, 41, 63
1, 352644, Note_off_c, 0, 47, 66
1, 352701, Control_c, 0, 64, 75
1, 352712, Note_on_c, 0, 57, 100
1, 352716, Control_c, 0, 64, 0
1, 352731, Control_c, 0, 64, 54
1, 352739, Note_on_c, 0, 49, 53
1, 352740, Note_off_c, 0, 49, 127
1, 352744, Note_off_c, 0, 57, 68
1, 352746, Control_c, 0, 64, 79
1, 352761, Control_c, 0, 64, 127
1, 352865, Note_on_c, 0, 66, 92
1, 352877, Note_on_c, 0, 62, 79
1, 352905, Note_off_c, 0, 62, 64
1, 352925, Note_off_c, 0, 66, 58
1, 353015, Note_on_c, 0, 66, 84
1, 353023, Note_on_c, 0, 62, 71
1, 353057, Note_off_c, 0, 62, 63
1, 353066, Note_off_c, 0, 66, 58
1, 353118, Note_on_c, 0, 29, 66
1, 353153, Note_on_c, 0, 62, 67
1, 353154, Note_on_c, 0, 66, 86
1, 353182, Note_off_c, 0, 62, 58
1, 353187, Note_on_c, 0, 35, 56
1, 353187, Note_off_c, 0, 29, 61
1, 353206, Note_off_c, 0, 66, 62
1, 353225, Note_off_c, 0, 35, 61
1, 353259, Note_on_c, 0, 42, 57
1, 353290, Note_off_c, 0, 42, 56
1, 353297, Note_on_c, 0, 66, 88
1, 353302, Note_on_c, 0, 62, 74
1, 353332, Note_off_c, 0, 62, 64
1, 353346, Note_off_c, 0, 66, 61
1, 353373, Note_on_c, 0, 47, 60
1, 353420, Note_on_c, 0, 66, 84
1, 353423, Note_on_c, 0, 62, 73
1, 353431, Note_off_c, 0, 47, 56
1, 353441, Note_off_c, 0, 66, 71
1, 353449, Note_on_c, 0, 41, 64
1, 353449, Note_off_c, 0, 62, 66
1, 353483, Note_off_c, 0, 41, 61
1, 353510, Control_c, 0, 64, 95
1, 353525, Control_c, 0, 64, 63
1, 353539, Control_c, 0, 64, 0
1, 353551, Poly_aftertouch_c, 0, 47, 0
1, 353554, Note_on_c, 0, 54, 96
1, 353554, Control_c, 0, 64, 73
1, 353560, Note_on_c, 0, 71, 95
1, 353560, Note_on_c, 0, 75, 87
1, 353566, Note_on_c, 0, 64, 82
1, 353569, Control_c, 0, 64, 127
1, 353572, Note_on_c, 0, 62, 73
1, 353583, Note_off_c, 0, 64, 72
1, 353586, Poly_aftertouch_c, 0, 47, 0
1, 353591, Note_off_c, 0, 71, 60
1, 353594, Poly_aftertouch_c, 0, 47, 0
1, 353595, Note_off_c, 0, 54, 65
1, 353597, Note_off_c, 0, 62, 67
1, 353600, Note_off_c, 0, 75, 66
1, 353613, Note_on_c, 0, 47, 46
1, 353676, Note_on_c, 0, 41, 81
1, 353689, Note_off_c, 0, 47, 64
1, 353691, Note_on_c, 0, 65, 100
1, 353726, Note_off_c, 0, 41, 57
1, 353735, Note_off_c, 0, 65, 63
1, 353799, Note_on_c, 0, 66, 109
1, 353805, Note_on_c, 0, 48, 63
1, 353810, Note_on_c, 0, 47, 63
1, 353833, Note_off_c, 0, 48, 65
1, 353838, Note_off_c, 0, 47, 66
1, 353864, Note_on_c, 0, 43, 58
1, 353894, Note_on_c, 0, 36, 79
1, 353900, Note_off_c, 0, 43, 63
1, 353932, Note_off_c, 0, 36, 62
1, 353992, Control_c, 0, 64, 85
1, 354007, Control_c, 0, 64, 65
1, 354013, Note_on_c, 0, 29, 86
1, 354037, Control_c, 0, 64, 79
1, 354051, Control_c, 0, 64, 127
1, 354078, Note_on_c, 0, 35, 74
1, 354092, Note_off_c, 0, 29, 63
1, 354146, Note_off_c, 0, 35, 63
1, 354161, Note_on_c, 0, 42, 74
1, 354161, Note_off_c, 0, 66, 49
1, 354185, Note_off_c, 0, 42, 66
1, 354223, Note_on_c, 0, 65, 101
1, 354254, Note_on_c, 0, 47, 86
1, 354260, Note_off_c, 0, 65, 67
1, 354324, Note_off_c, 0, 47, 62
1, 354329, Note_on_c, 0, 41, 73
1, 354392, Note_on_c, 0, 75, 42
1, 354409, Note_off_c, 0, 41, 62
1, 354415, Control_c, 0, 64, 96
1, 354417, Note_off_c, 0, 75, 59
1, 354430, Control_c, 0, 64, 67
1, 354444, Control_c, 0, 64, 63
1, 354453, Note_on_c, 0, 66, 98
1, 354457, Note_on_c, 0, 62, 92
1, 354459, Control_c, 0, 64, 83
1, 354464, Note_on_c, 0, 54, 92
1, 354469, Note_on_c, 0, 75, 75
1, 354474, Control_c, 0, 64, 127
1, 354475, Note_on_c, 0, 47, 62
1, 354487, Note_off_c, 0, 75, 68
1, 354496, Note_off_c, 0, 54, 60
1, 354505, Note_off_c, 0, 62, 59
1, 354510, Note_off_c, 0, 66, 63
1, 354570, Note_on_c, 0, 69, 99
1, 354573, Note_off_c, 0, 47, 58
1, 354576, Note_on_c, 0, 41, 81
1, 354620, Note_off_c, 0, 69, 66
1, 354624, Note_off_c, 0, 41, 62
1, 354684, Note_on_c, 0, 47, 84
1, 354685, Note_on_c, 0, 71, 100
1, 354732, Note_off_c, 0, 47, 65
1, 354743, Note_on_c, 0, 42, 70
1, 354788, Note_on_c, 0, 36, 82
1, 354807, Note_off_c, 0, 42, 63
1, 354823, Note_off_c, 0, 36, 64
1, 354860, Control_c, 0, 64, 119
1, 354874, Control_c, 0, 64, 76
1, 354889, Control_c, 0, 64, 62
1, 354898, Note_on_c, 0, 29, 86
1, 354904, Control_c, 0, 64, 68
1, 354919, Control_c, 0, 64, 92
1, 354934, Control_c, 0, 64, 127
1, 354958, Note_on_c, 0, 35, 51
1, 354986, Note_off_c, 0, 29, 64
1, 355044, Note_off_c, 0, 35, 62
1, 355056, Note_on_c, 0, 42, 68
1, 355063, Note_off_c, 0, 71, 53
1, 355083, Note_off_c, 0, 42, 63
1, 355130, Note_on_c, 0, 71, 82
1, 355131, Note_on_c, 0, 69, 83
1, 355152, Note_on_c, 0, 47, 89
1, 355165, Note_off_c, 0, 71, 61
1, 355169, Note_off_c, 0, 69, 61
1, 355220, Note_off_c, 0, 47, 47
1, 355223, Note_on_c, 0, 41, 82
1, 355283, Note_off_c, 0, 41, 64
1, 355289, Note_on_c, 0, 47, 58
1, 355326, Control_c, 0, 64, 76
1, 355339, Note_off_c, 0, 47, 63
1, 355341, Control_c, 0, 64, 0
1, 355356, Control_c, 0, 64, 60
1, 355357, Note_on_c, 0, 78, 103
1, 355358, Note_on_c, 0, 65, 100
1, 355360, Note_on_c, 0, 74, 95
1, 355364, Note_on_c, 0, 57, 89
1, 355371, Control_c, 0, 64, 94
1, 355375, Note_on_c, 0, 67, 69
1, 355380, Note_on_c, 0, 55, 44
1, 355381, Note_off_c, 0, 55, 127
1, 355386, Control_c, 0, 64, 127
1, 355390, Note_on_c, 0, 73, 62
1, 355391, Note_off_c, 0, 57, 67
1, 355396, Note_off_c, 0, 67, 62
1, 355415, Note_off_c, 0, 73, 56
1, 355500, Poly_aftertouch_c, 0, 67, 127
1, 355508, Note_on_c, 0, 67, 14
1, 355512, Note_off_c, 0, 65, 57
1, 355541, Note_off_c, 0, 67, 43
1, 355577, Note_off_c, 0, 74, 57
1, 355588, Note_off_c, 0, 78, 39
1, 355607, Note_on_c, 0, 69, 94
1, 355718, Note_off_c, 0, 69, 47
1, 355801, Note_on_c, 0, 29, 66
1, 355846, Control_c, 0, 64, 110
1, 355860, Note_on_c, 0, 65, 98
1, 355861, Control_c, 0, 64, 80
1, 355873, Note_on_c, 0, 78, 90
1, 355876, Note_off_c, 0, 29, 64
1, 355878, Note_on_c, 0, 69, 78
1, 355880, Note_on_c, 0, 35, 55
1, 355880, Note_on_c, 0, 74, 76
1, 355883, Control_c, 0, 64, 72
1, 355897, Control_c, 0, 64, 78
1, 355911, Note_on_c, 0, 73, 28
1, 355912, Control_c, 0, 64, 100
1, 355921, Note_off_c, 0, 35, 64
1, 355927, Control_c, 0, 64, 127
1, 355940, Note_off_c, 0, 78, 62
1, 355942, Note_on_c, 0, 42, 70
1, 355945, Note_off_c, 0, 65, 59
1, 355967, Note_off_c, 0, 42, 65
1, 355987, Note_off_c, 0, 73, 36
1, 355995, Note_off_c, 0, 69, 48
1, 355995, Note_off_c, 0, 74, 58
1, 356072, Note_on_c, 0, 65, 89
1, 356078, Note_on_c, 0, 47, 59
1, 356082, Note_on_c, 0, 78, 81
1, 356087, Note_on_c, 0, 74, 76
1, 356091, Note_on_c, 0, 69, 65
1, 356105, Note_off_c, 0, 47, 66
1, 356107, Note_on_c, 0, 73, 44
1, 356115, Note_off_c, 0, 78, 57
1, 356116, Note_off_c, 0, 65, 56
1, 356133, Note_off_c, 0, 74, 56
1, 356136, Note_off_c, 0, 69, 56
1, 356136, Note_off_c, 0, 73, 56
1, 356137, Note_on_c, 0, 41, 46
1, 356138, Note_on_c, 0, 40, 33
1, 356171, Note_off_c, 0, 41, 62
1, 356176, Note_off_c, 0, 40, 60
1, 356180, Note_on_c, 0, 47, 61
1, 356195, Note_on_c, 0, 65, 86
1, 356196, Note_on_c, 0, 78, 90
1, 356210, Note_off_c, 0, 47, 67
1, 356219, Note_on_c, 0, 74, 47
1, 356224, Note_off_c, 0, 65, 58
1, 356240, Note_off_c, 0, 74, 62
1, 356260, Note_off_c, 0, 78, 63
1, 356260, Poly_aftertouch_c, 0, 69, 127
1, 356288, Poly_aftertouch_c, 0, 69, 0
1, 356312, Control_c, 0, 64, 95
1, 356327, Control_c, 0, 64, 72
1, 356338, Note_on_c, 0, 60, 95
1, 356338, Note_on_c, 0, 68, 108
1, 356341, Note_on_c, 0, 77, 93
1, 356341, Control_c, 0, 64, 78
1, 356345, Note_on_c, 0, 81, 89
1, 356354, Note_off_c, 0, 60, 75
1, 356356, Control_c, 0, 64, 127
1, 356369, Note_on_c, 0, 79, 61
1, 356391, Note_off_c, 0, 79, 41
1, 356407, Note_off_c, 0, 68, 56
1, 356415, Note_off_c, 0, 81, 60
1, 356469, Note_on_c, 0, 29, 83
1, 356474, Note_off_c, 0, 77, 57
1, 356481, Note_on_c, 0, 31, 70
1, 356534, Note_off_c, 0, 31, 0
1, 356534, Note_on_c, 0, 31, 9
1, 356542, Note_on_c, 0, 68, 103
1, 356543, Note_on_c, 0, 36, 64
1, 356549, Note_on_c, 0, 81, 86
1, 356549, Note_off_c, 0, 29, 63
1, 356550, Note_on_c, 0, 35, 64
1, 356550, Note_on_c, 0, 77, 83
1, 356570, Note_off_c, 0, 31, 55
1, 356572, Note_off_c, 0, 35, 64
1, 356576, Note_on_c, 0, 42, 81
1, 356576, Note_off_c, 0, 36, 64
1, 356589, Note_off_c, 0, 81, 62
1, 356600, Note_off_c, 0, 68, 59
1, 356601, Note_off_c, 0, 42, 66
1, 356636, Note_off_c, 0, 77, 57
1, 356676, Note_on_c, 0, 68, 105
1, 356680, Note_on_c, 0, 77, 74
1, 356684, Note_on_c, 0, 80, 75
1, 356688, Note_on_c, 0, 41, 90
1, 356695, Note_on_c, 0, 81, 82
1, 356705, Note_off_c, 0, 77, 66
1, 356707, Note_off_c, 0, 68, 69
1, 356715, Note_off_c, 0, 81, 57
1, 356745, Note_off_c, 0, 80, 0
1, 356763, Note_on_c, 0, 47, 68
1, 356764, Note_on_c, 0, 48, 57
1, 356764, Note_off_c, 0, 41, 62
1, 356782, Poly_aftertouch_c, 0, 80, 0
1, 356797, Note_off_c, 0, 48, 51
1, 356797, Note_on_c, 0, 54, 85
1, 356804, Note_off_c, 0, 47, 65
1, 356824, Control_c, 0, 64, 97
1, 356825, Note_off_c, 0, 54, 69
1, 356839, Control_c, 0, 64, 64
1, 356853, Control_c, 0, 64, 0
1, 356868, Control_c, 0, 64, 68
1, 356883, Control_c, 0, 64, 127
1, 356907, Note_on_c, 0, 80, 110
1, 356910, Note_on_c, 0, 72, 101
1, 356910, Note_on_c, 0, 84, 105
1, 356911, Note_on_c, 0, 63, 114
1, 356913, Note_on_c, 0, 71, 98
1, 356934, Note_on_c, 0, 81, 60
1, 356940, Note_off_c, 0, 63, 74
1, 356952, Note_off_c, 0, 81, 66
1, 356958, Note_on_c, 0, 61, 39
1, 356964, Note_off_c, 0, 71, 63
1, 356996, Note_off_c, 0, 61, 43
1, 357039, Note_off_c, 0, 84, 55
1, 357040, Note_off_c, 0, 72, 52
1, 357084, Note_off_c, 0, 80, 55
1, 357094, Note_on_c, 0, 29, 85
1, 357131, Note_on_c, 0, 72, 101
1, 357131, Note_on_c, 0, 80, 96
1, 357133, Note_on_c, 0, 84, 98
1, 357136, Note_on_c, 0, 71, 97
1, 357149, Note_on_c, 0, 82, 71
1, 357150, Note_on_c, 0, 74, 70
1, 357151, Note_off_c, 0, 74, 127
1, 357165, Note_off_c, 0, 82, 67
1, 357172, Note_on_c, 0, 35, 73
1, 357184, Note_off_c, 0, 71, 63
1, 357188, Note_off_c, 0, 29, 63
1, 357197, Poly_aftertouch_c, 0, 32, 127
1, 357220, Note_on_c, 0, 42, 79
1, 357223, Note_off_c, 0, 35, 64
1, 357232, Note_off_c, 0, 84, 54
1, 357235, Note_off_c, 0, 72, 44
1, 357244, Note_off_c, 0, 42, 66
1, 357251, Poly_aftertouch_c, 0, 32, 0
1, 357309, Note_off_c, 0, 80, 57
1, 357344, Note_on_c, 0, 41, 92
1, 357346, Note_on_c, 0, 80, 96
1, 357347, Note_on_c, 0, 72, 103
1, 357347, Note_on_c, 0, 84, 97
1, 357349, Note_on_c, 0, 71, 107
1, 357367, Note_on_c, 0, 82, 81
1, 357384, Note_off_c, 0, 82, 74
1, 357386, Note_off_c, 0, 84, 66
1, 357403, Note_off_c, 0, 71, 65
1, 357405, Note_off_c, 0, 80, 70
1, 357411, Note_off_c, 0, 72, 60
1, 357414, Note_on_c, 0, 44, 50
1, 357417, Note_on_c, 0, 47, 38
1, 357420, Note_off_c, 0, 41, 57
1, 357440, Note_on_c, 0, 48, 26
1, 357441, Note_on_c, 0, 54, 93
1, 357456, Note_off_c, 0, 44, 60
1, 357464, Note_off_c, 0, 54, 71
1, 357471, Note_off_c, 0, 47, 63
1, 357503, Note_off_c, 0, 48, 35
1, 357573, Control_c, 0, 64, 84
1, 357588, Control_c, 0, 64, 0
1, 357632, Control_c, 0, 64, 127
1, 357637, Note_on_c, 0, 42, 114
1, 357640, Note_on_c, 0, 35, 3
1, 357642, Note_on_c, 0, 29, 73
1, 357655, Note_on_c, 0, 33, 45
1, 357656, Note_on_c, 0, 30, 73
1, 357672, Note_on_c, 0, 31, 36
1, 357680, Note_off_c, 0, 31, 42
1, 357680, Note_off_c, 0, 42, 69
1, 357682, Note_off_c, 0, 35, 52
1, 357685, Note_off_c, 0, 30, 57
1, 357690, Note_off_c, 0, 33, 52
1, 357691, Note_on_c, 0, 50, 81
1, 357703, Note_off_c, 0, 29, 64
1, 357724, Poly_aftertouch_c, 0, 37, 0
1, 357744, Note_off_c, 0, 50, 65
1, 357747, Note_on_c, 0, 54, 73
1, 357771, Note_off_c, 0, 54, 67
1, 357784, Poly_aftertouch_c, 0, 37, 0
1, 357791, Note_on_c, 0, 63, 80
1, 357792, Note_on_c, 0, 59, 34
1, 357813, Note_off_c, 0, 63, 68
1, 357824, Note_off_c, 0, 59, 54
1, 357861, Poly_aftertouch_c, 0, 55, 0
1, 357884, Note_on_c, 0, 62, 72
1, 357902, Note_off_c, 0, 62, 65
1, 357904, Poly_aftertouch_c, 0, 54, 0
1, 357924, Note_on_c, 0, 64, 30
1, 357927, Note_on_c, 0, 66, 79
1, 357963, Note_off_c, 0, 64, 49
1, 357963, Note_off_c, 0, 66, 64
1, 357970, Note_on_c, 0, 63, 103
1, 357977, Note_on_c, 0, 75, 76
1, 357996, Note_off_c, 0, 75, 71
1, 358001, Note_on_c, 0, 64, 58
1, 358007, Note_on_c, 0, 65, 42
1, 358011, Note_off_c, 0, 63, 65
1, 358021, Note_off_c, 0, 64, 66
1, 358035, Note_off_c, 0, 65, 57
1, 358061, Note_on_c, 0, 74, 89
1, 358085, Note_off_c, 0, 74, 57
1, 358092, Poly_aftertouch_c, 0, 58, 0
1, 358125, Note_on_c, 0, 59, 103
1, 358128, Note_on_c, 0, 78, 77
1, 358130, Note_on_c, 0, 82, 95
1, 358142, Note_on_c, 0, 87, 96
1, 358147, Note_off_c, 0, 78, 71
1, 358156, Note_on_c, 0, 80, 34
1, 358171, Poly_aftertouch_c, 0, 76, 0
1, 358179, Note_on_c, 0, 83, 48
1, 358189, Note_off_c, 0, 80, 37
1, 358209, Note_off_c, 0, 83, 51
1, 358237, Note_off_c, 0, 87, 67
1, 358240, Note_on_c, 0, 78, 81
1, 358249, Note_off_c, 0, 82, 55
1, 358254, Poly_aftertouch_c, 0, 88, 0
1, 358288, Note_on_c, 0, 74, 88
1, 358302, Note_off_c, 0, 78, 64
1, 358305, Note_off_c, 0, 59, 55
1, 358320, Note_on_c, 0, 62, 91
1, 358326, Note_off_c, 0, 74, 68
1, 358338, Note_off_c, 0, 62, 70
1, 358389, Note_on_c, 0, 71, 91
1, 358410, Note_on_c, 0, 74, 72
1, 358411, Note_on_c, 0, 76, 47
1, 358436, Note_off_c, 0, 76, 58
1, 358455, Note_on_c, 0, 66, 85
1, 358459, Note_on_c, 0, 40, 47
1, 358463, Note_off_c, 0, 74, 64
1, 358464, Note_off_c, 0, 71, 63
1, 358485, Note_on_c, 0, 62, 79
1, 358493, Note_on_c, 0, 39, 16
1, 358504, Note_off_c, 0, 40, 45
1, 358507, Note_off_c, 0, 66, 61
1, 358514, Control_c, 0, 64, 103
1, 358520, Note_off_c, 0, 62, 62
1, 358529, Control_c, 0, 64, 0
1, 358538, Note_off_c, 0, 39, 48
1, 358578, Note_on_c, 0, 45, 106
1, 358583, Note_on_c, 0, 37, 92
1, 358585, Note_on_c, 0, 39, 97
1, 358585, Note_on_c, 0, 32, 87
1, 358588, Control_c, 0, 64, 89
1, 358589, Note_off_c, 0, 39, 0
1, 358598, Note_on_c, 0, 43, 72
1, 358601, Note_on_c, 0, 34, 58
1, 358603, Poly_aftertouch_c, 0, 39, 0
1, 358603, Control_c, 0, 64, 127
1, 358626, Note_off_c, 0, 37, 61
1, 358632, Note_off_c, 0, 45, 64
1, 358636, Note_off_c, 0, 32, 65
1, 358643, Note_on_c, 0, 57, 51
1, 358645, Note_off_c, 0, 34, 44
1, 358648, Note_on_c, 0, 50, 82
1, 358651, Note_off_c, 0, 43, 0
1, 358651, Note_on_c, 0, 43, 13
1, 358672, Note_off_c, 0, 57, 59
1, 358685, Note_off_c, 0, 43, 58
1, 358708, Note_off_c, 0, 50, 67
1, 358716, Note_on_c, 0, 53, 73
1, 358728, Poly_aftertouch_c, 0, 39, 127
1, 358741, Note_on_c, 0, 61, 84
1, 358746, Note_off_c, 0, 53, 67
1, 358764, Note_off_c, 0, 61, 69
1, 358768, Poly_aftertouch_c, 0, 39, 0
1, 358800, Poly_aftertouch_c, 0, 57, 127
1, 358823, Note_on_c, 0, 62, 88
1, 358831, Poly_aftertouch_c, 0, 57, 0
1, 358869, Note_off_c, 0, 62, 61
1, 358893, Note_on_c, 0, 65, 70
1, 358904, Note_on_c, 0, 61, 108
1, 358925, Note_off_c, 0, 65, 66
1, 358928, Note_on_c, 0, 69, 68
1, 358936, Note_on_c, 0, 73, 88
1, 358946, Note_off_c, 0, 61, 68
1, 358955, Note_off_c, 0, 69, 67
1, 358955, Note_off_c, 0, 73, 70
1, 359030, Note_on_c, 0, 74, 67
1, 359030, Note_on_c, 0, 76, 80
1, 359062, Note_on_c, 0, 57, 103
1, 359062, Note_off_c, 0, 74, 53
1, 359063, Note_on_c, 0, 78, 96
1, 359086, Note_off_c, 0, 76, 61
1, 359101, Note_on_c, 0, 85, 87
1, 359104, Note_on_c, 0, 55, 34
1, 359105, Note_off_c, 0, 55, 127
1, 359112, Note_on_c, 0, 81, 58
1, 359116, Note_on_c, 0, 82, 55
1, 359118, Note_off_c, 0, 78, 64
1, 359137, Note_off_c, 0, 82, 62
1, 359196, Note_on_c, 0, 77, 85
1, 359206, Note_off_c, 0, 85, 60
1, 359213, Poly_aftertouch_c, 0, 86, 0
1, 359214, Note_off_c, 0, 81, 36
1, 359252, Note_on_c, 0, 74, 81
1, 359254, Note_off_c, 0, 57, 54
1, 359256, Note_off_c, 0, 77, 65
1, 359271, Note_on_c, 0, 60, 89
1, 359280, Note_off_c, 0, 74, 65
1, 359289, Note_off_c, 0, 60, 73
1, 359346, Note_on_c, 0, 72, 85
1, 359351, Note_on_c, 0, 69, 77
1, 359364, Note_on_c, 0, 71, 60
1, 359386, Note_off_c, 0, 71, 64
1, 359415, Note_on_c, 0, 65, 71
1, 359423, Note_on_c, 0, 64, 80
1, 359423, Note_off_c, 0, 72, 59
1, 359432, Note_off_c, 0, 69, 59
1, 359453, Note_on_c, 0, 62, 72
1, 359456, Note_off_c, 0, 64, 54
1, 359456, Control_c, 0, 64, 103
1, 359462, Note_off_c, 0, 65, 63
1, 359471, Control_c, 0, 64, 55
1, 359482, Note_off_c, 0, 62, 66
1, 359486, Control_c, 0, 64, 0
1, 359520, Note_on_c, 0, 42, 110
1, 359521, Note_on_c, 0, 29, 82
1, 359523, Note_on_c, 0, 35, 68
1, 359530, Control_c, 0, 64, 58
1, 359545, Control_c, 0, 64, 127
1, 359547, Note_on_c, 0, 31, 58
1, 359548, Note_off_c, 0, 31, 127
1, 359548, Note_on_c, 0, 32, 64
1, 359557, Note_off_c, 0, 35, 66
1, 359564, Note_off_c, 0, 42, 71
1, 359576, Note_off_c, 0, 32, 63
1, 359578, Note_on_c, 0, 37, 3
1, 359588, Note_off_c, 0, 29, 62
1, 359591, Note_on_c, 0, 58, 37
1, 359616, Note_on_c, 0, 60, 29
1, 359617, Poly_aftertouch_c, 0, 43, 0
1, 359629, Note_on_c, 0, 59, 27
1, 359635, Note_on_c, 0, 50, 75
1, 359638, Poly_aftertouch_c, 0, 34, 127
1, 359642, Note_off_c, 0, 37, 45
1, 359654, Poly_aftertouch_c, 0, 43, 0
1, 359662, Note_off_c, 0, 58, 0
1, 359666, Note_off_c, 0, 60, 54
1, 359675, Poly_aftertouch_c, 0, 34, 0
1, 359677, Note_off_c, 0, 50, 57
1, 359685, Note_on_c, 0, 52, 46
1, 359686, Note_off_c, 0, 59, 0
1, 359700, Poly_aftertouch_c, 0, 58, 127
1, 359701, Note_on_c, 0, 55, 63
1, 359703, Note_on_c, 0, 59, 41
1, 359708, Note_on_c, 0, 58, 15
1, 359721, Note_off_c, 0, 52, 52
1, 359724, Note_off_c, 0, 55, 60
1, 359727, Note_on_c, 0, 63, 55
1, 359735, Note_off_c, 0, 59, 62
1, 359736, Note_off_c, 0, 58, 55
1, 359753, Note_off_c, 0, 63, 36
1, 359756, Note_on_c, 0, 64, 39
1, 359788, Note_off_c, 0, 64, 0
1, 359805, Note_on_c, 0, 64, 65
1, 359848, Note_off_c, 0, 64, 63
1, 359858, Note_on_c, 0, 66, 75
1, 359859, Note_on_c, 0, 63, 94
1, 359875, Note_off_c, 0, 66, 67
1, 359898, Note_on_c, 0, 70, 50
1, 359906, Note_on_c, 0, 67, 29
1, 359906, Note_off_c, 0, 63, 66
1, 359910, Note_on_c, 0, 72, 48
1, 359912, Note_on_c, 0, 75, 67
1, 359921, Note_off_c, 0, 70, 62
1, 359933, Note_off_c, 0, 75, 61
1, 359935, Note_off_c, 0, 72, 57
1, 359942, Note_off_c, 0, 67, 51
1, 360001, Note_on_c, 0, 76, 98
1, 360002, Note_on_c, 0, 59, 104
1, 360046, Note_off_c, 0, 76, 65
1, 360067, Note_on_c, 0, 83, 75
1, 360067, Note_on_c, 0, 87, 88
1, 360138, Note_on_c, 0, 78, 60
1, 360159, Note_off_c, 0, 87, 64
1, 360162, Note_off_c, 0, 83, 63
1, 360196, Note_off_c, 0, 59, 53
1, 360199, Note_on_c, 0, 74, 72
1, 360199, Note_off_c, 0, 78, 63
1, 360210, Note_on_c, 0, 62, 81
1, 360222, Note_off_c, 0, 74, 71
1, 360231, Note_off_c, 0, 62, 70
1, 360287, Note_on_c, 0, 71, 76
1, 360287, Note_on_c, 0, 74, 83
1, 360363, Note_off_c, 0, 71, 64
1, 360363, Note_off_c, 0, 74, 65
1, 360368, Note_on_c, 0, 67, 84
1, 360398, Note_off_c, 0, 67, 62
1, 360406, Control_c, 0, 64, 104
1, 360407, Note_on_c, 0, 62, 59
1, 360412, Note_on_c, 0, 64, 40
1, 360420, Control_c, 0, 64, 59
1, 360425, Note_off_c, 0, 62, 64
1, 360435, Control_c, 0, 64, 0
1, 360440, Note_off_c, 0, 64, 53
1, 360455, Note_on_c, 0, 38, 27
1, 360456, Note_on_c, 0, 45, 107
1, 360462, Note_on_c, 0, 39, 91
1, 360465, Note_on_c, 0, 32, 78
1, 360465, Control_c, 0, 64, 60
1, 360468, Note_on_c, 0, 34, 80
1, 360475, Note_on_c, 0, 37, 62
1, 360476, Note_off_c, 0, 37, 127
1, 360480, Control_c, 0, 64, 127
1, 360481, Note_off_c, 0, 39, 40
1, 360492, Note_off_c, 0, 32, 65
1, 360507, Poly_aftertouch_c, 0, 37, 0
1, 360508, Note_off_c, 0, 38, 60
1, 360514, Note_off_c, 0, 45, 62
1, 360516, Note_on_c, 0, 33, 39
1, 360529, Note_on_c, 0, 50, 82
1, 360530, Note_off_c, 0, 34, 55
1, 360562, Note_off_c, 0, 33, 47
1, 360585, Note_off_c, 0, 50, 60
1, 360588, Note_on_c, 0, 53, 60
1, 360609, Note_on_c, 0, 52, 17
1, 360621, Note_on_c, 0, 61, 80
1, 360625, Note_on_c, 0, 57, 42
1, 360625, Note_off_c, 0, 53, 67
1, 360641, Note_off_c, 0, 61, 69
1, 360652, Note_off_c, 0, 52, 52
1, 360654, Note_off_c, 0, 57, 59
1, 360707, Note_on_c, 0, 62, 79
1, 360732, Note_off_c, 0, 62, 63
1, 360761, Note_on_c, 0, 65, 72
1, 360797, Note_on_c, 0, 61, 95
1, 360802, Note_on_c, 0, 70, 80
1, 360809, Note_off_c, 0, 65, 64
1, 360822, Note_off_c, 0, 70, 71
1, 360824, Note_on_c, 0, 73, 81
1, 360826, Note_off_c, 0, 61, 68
1, 360844, Note_off_c, 0, 73, 70
1, 360913, Note_on_c, 0, 74, 95
1, 360928, Note_on_c, 0, 57, 102
1, 360950, Note_off_c, 0, 74, 63
1, 360988, Note_on_c, 0, 80, 85
1, 360994, Note_on_c, 0, 85, 85
1, 361000, Note_on_c, 0, 77, 43
1, 361024, Note_off_c, 0, 77, 58
1, 361063, Note_off_c, 0, 85, 61
1, 361091, Note_off_c, 0, 80, 58
1, 361113, Note_on_c, 0, 76, 61
1, 361118, Note_on_c, 0, 77, 41
1, 361133, Note_on_c, 0, 74, 71
1, 361137, Note_off_c, 0, 76, 64
1, 361142, Note_off_c, 0, 57, 52
1, 361143, Note_off_c, 0, 77, 58
1, 361154, Note_off_c, 0, 74, 71
1, 361156, Note_on_c, 0, 60, 87
1, 361174, Note_off_c, 0, 60, 73
1, 361224, Note_on_c, 0, 69, 81
1, 361233, Note_on_c, 0, 72, 66
1, 361281, Note_on_c, 0, 71, 9
1, 361298, Note_off_c, 0, 72, 61
1, 361299, Note_off_c, 0, 69, 59
1, 361300, Note_on_c, 0, 65, 65
1, 361322, Note_on_c, 0, 62, 66
1, 361325, Note_off_c, 0, 65, 69
1, 361326, Note_off_c, 0, 71, 52
1, 361332, Control_c, 0, 64, 119
1, 361347, Control_c, 0, 64, 69
1, 361349, Note_off_c, 0, 62, 66
1, 361361, Control_c, 0, 64, 0
1, 361369, Note_on_c, 0, 54, 99
1, 361378, Note_on_c, 0, 47, 83
1, 361385, Note_on_c, 0, 66, 96
1, 361391, Control_c, 0, 64, 47
1, 361396, Note_on_c, 0, 42, 54
1, 361406, Note_on_c, 0, 44, 32
1, 361407, Note_off_c, 0, 44, 127
1, 361407, Control_c, 0, 64, 78
1, 361408, Note_off_c, 0, 54, 68
1, 361421, Control_c, 0, 64, 127
1, 361426, Note_off_c, 0, 42, 56
1, 361451, Note_off_c, 0, 47, 63
1, 361456, Poly_aftertouch_c, 0, 44, 0
1, 361462, Note_off_c, 0, 66, 59
1, 361466, Note_on_c, 0, 41, 69
1, 361468, Poly_aftertouch_c, 0, 45, 127
1, 361494, Note_off_c, 0, 41, 64
1, 361514, Poly_aftertouch_c, 0, 45, 0
1, 361539, Control_c, 0, 64, 98
1, 361554, Control_c, 0, 64, 64
1, 361557, Note_on_c, 0, 75, 79
1, 361557, Note_on_c, 0, 62, 84
1, 361569, Control_c, 0, 64, 0
1, 361574, Note_off_c, 0, 75, 72
1, 361580, Note_on_c, 0, 42, 80
1, 361584, Control_c, 0, 64, 61
1, 361598, Note_on_c, 0, 64, 30
1, 361599, Note_off_c, 0, 64, 127
1, 361599, Control_c, 0, 64, 80
1, 361604, Note_off_c, 0, 42, 68
1, 361614, Control_c, 0, 64, 127
1, 361623, Note_on_c, 0, 71, 90
1, 361637, Poly_aftertouch_c, 0, 64, 0
1, 361653, Note_on_c, 0, 35, 46
1, 361666, Note_on_c, 0, 29, 82
1, 361687, Note_off_c, 0, 35, 63
1, 361690, Note_off_c, 0, 62, 58
1, 361692, Note_off_c, 0, 29, 65
1, 361719, Note_off_c, 0, 71, 62
1, 361747, Control_c, 0, 64, 110
1, 361760, Note_on_c, 0, 74, 83
1, 361761, Control_c, 0, 64, 62
1, 361776, Control_c, 0, 64, 0
1, 361779, Note_off_c, 0, 74, 70
1, 361818, Note_on_c, 0, 51, 96
1, 361823, Note_on_c, 0, 59, 89
1, 361826, Note_on_c, 0, 57, 85
1, 361828, Note_on_c, 0, 65, 102
1, 361835, Control_c, 0, 64, 62
1, 361843, Note_on_c, 0, 52, 74
1, 361847, Note_on_c, 0, 49, 56
1, 361847, Note_off_c, 0, 51, 0
1, 361858, Control_c, 0, 64, 98
1, 361873, Control_c, 0, 64, 127
1, 361876, Note_off_c, 0, 59, 61
1, 361885, Note_off_c, 0, 57, 60
1, 361891, Poly_aftertouch_c, 0, 51, 127
1, 361893, Note_off_c, 0, 49, 46
1, 361899, Note_off_c, 0, 65, 62
1, 361908, Note_off_c, 0, 52, 54
1, 361926, Poly_aftertouch_c, 0, 51, 0
1, 361942, Note_on_c, 0, 45, 60
1, 361971, Note_off_c, 0, 45, 64
1, 361979, Note_on_c, 0, 73, 84
1, 361984, Note_on_c, 0, 62, 75
1, 361999, Note_off_c, 0, 73, 71
1, 362007, Note_on_c, 0, 64, 52
1, 362021, Control_c, 0, 64, 93
1, 362031, Note_off_c, 0, 64, 61
1, 362036, Control_c, 0, 64, 66
1, 362050, Note_on_c, 0, 69, 94
1, 362051, Control_c, 0, 64, 60
1, 362065, Note_on_c, 0, 45, 96
1, 362065, Control_c, 0, 64, 80
1, 362074, Note_on_c, 0, 38, 83
1, 362080, Control_c, 0, 64, 127
1, 362091, Note_off_c, 0, 62, 56
1, 362114, Note_off_c, 0, 45, 62
1, 362142, Note_off_c, 0, 69, 53
1, 362166, Note_off_c, 0, 38, 62
1, 362169, Note_on_c, 0, 32, 78
1, 362172, Note_on_c, 0, 72, 78
1, 362192, Note_off_c, 0, 32, 65
1, 362192, Note_off_c, 0, 72, 69
1, 362198, Control_c, 0, 64, 101
1, 362213, Control_c, 0, 64, 64
1, 362228, Control_c, 0, 64, 0
1, 362270, Note_on_c, 0, 54, 99
1, 362273, Control_c, 0, 64, 64
1, 362277, Note_on_c, 0, 42, 67
1, 362279, Note_on_c, 0, 39, 72
1, 362288, Control_c, 0, 64, 87
1, 362299, Note_on_c, 0, 33, 50
1, 362300, Note_on_c, 0, 34, 54
1, 362302, Note_off_c, 0, 39, 62
1, 362303, Note_off_c, 0, 42, 62
1, 362303, Control_c, 0, 64, 127
1, 362304, Note_on_c, 0, 40, 52
1, 362311, Note_on_c, 0, 41, 45
1, 362332, Note_off_c, 0, 54, 63
1, 362337, Note_off_c, 0, 40, 52
1, 362343, Poly_aftertouch_c, 0, 32, 127
1, 362346, Note_off_c, 0, 41, 50
1, 362350, Note_off_c, 0, 34, 60
1, 362376, Poly_aftertouch_c, 0, 32, 0
1, 362384, Note_off_c, 0, 33, 59
1, 362398, Note_on_c, 0, 28, 59
1, 362411, Note_on_c, 0, 29, 61
1, 362419, Note_on_c, 0, 50, 84
1, 362421, Note_on_c, 0, 63, 84
1, 362432, Note_off_c, 0, 28, 53
1, 362443, Note_off_c, 0, 63, 71
1, 362447, Note_off_c, 0, 29, 56
1, 362458, Note_off_c, 0, 50, 60
1, 362495, Note_on_c, 0, 50, 65
1, 362501, Note_on_c, 0, 59, 96
1, 362505, Note_on_c, 0, 58, 48
1, 362509, Control_c, 0, 64, 96
1, 362524, Control_c, 0, 64, 74
1, 362532, Note_off_c, 0, 58, 59
1, 362535, Poly_aftertouch_c, 0, 52, 0
1, 362539, Control_c, 0, 64, 45
1, 362554, Control_c, 0, 64, 0
1, 362555, Note_off_c, 0, 50, 60
1, 362627, Note_on_c, 0, 62, 80
1, 362636, Note_off_c, 0, 59, 54
1, 362649, Note_off_c, 0, 62, 66
1, 362680, Control_c, 0, 64, 82
1, 362681, Note_on_c, 0, 45, 99
1, 362690, Note_on_c, 0, 38, 84
1, 362695, Control_c, 0, 64, 127
1, 362696, Note_on_c, 0, 53, 95
1, 362717, Note_off_c, 0, 45, 69
1, 362753, Note_off_c, 0, 53, 65
1, 362756, Poly_aftertouch_c, 0, 37, 127
1, 362759, Note_on_c, 0, 37, 3
1, 362764, Note_on_c, 0, 32, 83
1, 362768, Poly_aftertouch_c, 0, 39, 127
1, 362770, Note_off_c, 0, 38, 61
1, 362802, Note_off_c, 0, 32, 64
1, 362809, Note_off_c, 0, 37, 45
1, 362812, Poly_aftertouch_c, 0, 39, 0
1, 362833, Note_on_c, 0, 50, 89
1, 362833, Note_on_c, 0, 61, 88
1, 362877, Note_off_c, 0, 61, 65
1, 362898, Note_off_c, 0, 50, 0
1, 362919, Note_on_c, 0, 57, 83
1, 362930, Poly_aftertouch_c, 0, 50, 0
1, 362933, Note_on_c, 0, 55, 76
1, 362978, Note_off_c, 0, 55, 60
1, 362997, Note_off_c, 0, 57, 58
1, 363050, Note_on_c, 0, 60, 53
1, 363060, Note_on_c, 0, 59, 48
1, 363066, Control_c, 0, 64, 88
1, 363074, Note_off_c, 0, 60, 60
1, 363081, Control_c, 0, 64, 65
1, 363093, Note_off_c, 0, 59, 54
1, 363095, Control_c, 0, 64, 0
1, 363116, Note_on_c, 0, 35, 86
1, 363127, Note_on_c, 0, 42, 96
1, 363140, Control_c, 0, 64, 61
1, 363155, Control_c, 0, 64, 67
1, 363170, Control_c, 0, 64, 68
1, 363185, Control_c, 0, 64, 67
1, 363193, Note_off_c, 0, 35, 64
1, 363200, Control_c, 0, 64, 65
1, 363209, Note_on_c, 0, 29, 37
1, 363214, Control_c, 0, 64, 62
1, 363229, Control_c, 0, 64, 55
1, 363244, Control_c, 0, 64, 38
1, 363253, Note_off_c, 0, 29, 52
1, 363259, Control_c, 0, 64, 0
1, 363277, Note_on_c, 0, 51, 69
1, 363332, Control_c, 0, 64, 24
1, 363337, Note_on_c, 0, 47, 70
1, 363337, Note_off_c, 0, 51, 63
1, 363347, Control_c, 0, 64, 37
1, 363370, Control_c, 0, 64, 41
1, 363385, Control_c, 0, 64, 44
1, 363400, Control_c, 0, 64, 45
1, 363422, Note_off_c, 0, 47, 60
1, 363429, Control_c, 0, 64, 45
1, 363444, Control_c, 0, 64, 47
1, 363450, Note_off_c, 0, 42, 50
1, 363458, Control_c, 0, 64, 52
1, 363473, Control_c, 0, 64, 57
1, 363488, Control_c, 0, 64, 59
1, 363497, Note_on_c, 0, 50, 56
1, 363503, Control_c, 0, 64, 43
1, 363518, Control_c, 0, 64, 0
1, 363531, Note_off_c, 0, 50, 58
1, 363563, Note_on_c, 0, 38, 68
1, 363563, Note_on_c, 0, 41, 77
1, 363593, Control_c, 0, 64, 56
1, 363608, Control_c, 0, 64, 68
1, 363616, Note_on_c, 0, 32, 69
1, 363616, Note_off_c, 0, 38, 60
1, 363623, Control_c, 0, 64, 71
1, 363637, Control_c, 0, 64, 74
1, 363653, Note_off_c, 0, 32, 63
1, 363667, Control_c, 0, 64, 72
1, 363682, Control_c, 0, 64, 68
1, 363697, Control_c, 0, 64, 56
1, 363711, Control_c, 0, 64, 0
1, 363726, Note_on_c, 0, 49, 76
1, 363757, Note_off_c, 0, 49, 67
1, 363785, Control_c, 0, 64, 31
1, 363793, Note_on_c, 0, 45, 71
1, 363800, Control_c, 0, 64, 49
1, 363815, Control_c, 0, 64, 50
1, 363829, Control_c, 0, 64, 49
1, 363844, Control_c, 0, 64, 37
1, 363859, Control_c, 0, 64, 0
1, 363896, Note_off_c, 0, 45, 57
1, 363942, Note_on_c, 0, 48, 61
1, 363972, Note_off_c, 0, 48, 64
1, 363987, Note_off_c, 0, 41, 62
1, 364022, Note_on_c, 0, 30, 50
1, 364197, Note_on_c, 0, 39, 46
1, 364248, Note_off_c, 0, 39, 57
1, 364264, Note_on_c, 0, 35, 41
1, 364444, Note_on_c, 0, 38, 47
1, 364474, Note_off_c, 0, 30, 48
1, 364482, Note_off_c, 0, 38, 63
1, 364483, Note_off_c, 0, 35, 42
1, 364575, Note_on_c, 0, 29, 51
1, 364733, Note_on_c, 0, 37, 46
1, 364829, Note_off_c, 0, 37, 46
1, 364836, Note_on_c, 0, 33, 41
1, 364926, Control_c, 0, 64, 21
1, 364941, Control_c, 0, 64, 30
1, 364956, Control_c, 0, 64, 36
1, 364971, Control_c, 0, 64, 39
1, 364985, Control_c, 0, 64, 42
1, 365000, Control_c, 0, 64, 44
1, 365045, Control_c, 0, 64, 44
1, 365060, Control_c, 0, 64, 45
1, 365104, Control_c, 0, 64, 44
1, 365192, Note_on_c, 0, 36, 32
1, 365254, Control_c, 0, 64, 43
1, 365269, Control_c, 0, 64, 41
1, 365280, Note_off_c, 0, 33, 42
1, 365283, Control_c, 0, 64, 40
1, 365298, Control_c, 0, 64, 39
1, 365313, Control_c, 0, 64, 38
1, 365319, Note_off_c, 0, 36, 50
1, 365327, Control_c, 0, 64, 36
1, 365342, Control_c, 0, 64, 34
1, 365357, Control_c, 0, 64, 29
1, 365372, Control_c, 0, 64, 26
1, 365387, Control_c, 0, 64, 23
1, 365401, Control_c, 0, 64, 0
1, 368923, Control_c, 0, 64, 44
1, 368938, Control_c, 0, 64, 58
1, 368953, Control_c, 0, 64, 64
1, 368968, Control_c, 0, 64, 68
1, 368983, Control_c, 0, 64, 72
1, 368998, Control_c, 0, 64, 77
1, 369013, Control_c, 0, 64, 81
1, 369027, Control_c, 0, 64, 85
1, 369042, Control_c, 0, 64, 89
1, 369057, Control_c, 0, 64, 93
1, 369071, Control_c, 0, 64, 97
1, 369086, Control_c, 0, 64, 103
1, 369101, Control_c, 0, 64, 109
1, 369116, Control_c, 0, 64, 117
1, 369116, Control_c, 0, 67, 8
1, 369131, Control_c, 0, 64, 127
1, 369131, Control_c, 0, 67, 10
1, 369145, Control_c, 0, 67, 13
1, 369160, Control_c, 0, 67, 17
1, 369176, Control_c, 0, 67, 20
1, 369191, Control_c, 0, 67, 22
1, 369206, Control_c, 0, 67, 24
1, 369217, Note_off_c, 0, 29, 40
1, 369221, Control_c, 0, 67, 25
1, 369236, Control_c, 0, 67, 26
1, 369250, Control_c, 0, 67, 27
1, 369265, Control_c, 0, 67, 28
1, 369346, Control_c, 0, 67, 27
1, 369361, Control_c, 0, 67, 27
1, 369391, Control_c, 0, 67, 26
1, 369406, Control_c, 0, 67, 26
1, 369421, Control_c, 0, 67, 25
1, 369436, Control_c, 0, 64, 119
1, 369450, Control_c, 0, 64, 115
1, 369465, Control_c, 0, 64, 112
1, 369480, Control_c, 0, 64, 110
1, 369495, Control_c, 0, 64, 108
1, 369509, Control_c, 0, 64, 106
1, 369524, Control_c, 0, 64, 105
1, 369539, Control_c, 0, 64, 103
1, 369554, Control_c, 0, 64, 101
1, 369569, Control_c, 0, 64, 99
1, 369570, Note_on_c, 0, 71, 35
1, 369583, Control_c, 0, 64, 98
1, 369598, Control_c, 0, 64, 96
1, 369612, Note_on_c, 0, 67, 15
1, 369613, Control_c, 0, 64, 94
1, 369628, Control_c, 0, 64, 92
1, 369628, Control_c, 0, 67, 26
1, 369643, Control_c, 0, 64, 89
1, 369657, Control_c, 0, 64, 87
1, 369672, Control_c, 0, 64, 84
1, 369687, Control_c, 0, 64, 82
1, 369701, Control_c, 0, 64, 79
1, 369701, Control_c, 0, 67, 26
1, 369716, Control_c, 0, 64, 77
1, 369731, Control_c, 0, 64, 75
1, 369731, Control_c, 0, 67, 27
1, 369746, Control_c, 0, 64, 73
1, 369761, Control_c, 0, 64, 71
1, 369776, Control_c, 0, 64, 70
1, 369791, Control_c, 0, 64, 69
1, 369806, Control_c, 0, 64, 68
1, 369820, Control_c, 0, 64, 67
1, 369835, Control_c, 0, 64, 66
1, 369850, Control_c, 0, 64, 65
1, 369880, Control_c, 0, 64, 66
1, 369894, Control_c, 0, 64, 68
1, 369909, Control_c, 0, 64, 70
1, 369924, Control_c, 0, 64, 73
1, 369939, Control_c, 0, 64, 77
1, 369954, Control_c, 0, 64, 79
1, 369969, Control_c, 0, 64, 80
1, 369969, Control_c, 0, 67, 26
1, 369984, Control_c, 0, 67, 26
1, 369999, Control_c, 0, 67, 25
1, 370059, Control_c, 0, 67, 25
1, 370088, Control_c, 0, 67, 24
1, 370133, Note_off_c, 0, 67, 34
1, 370139, Control_c, 0, 67, 24
1, 370142, Note_on_c, 0, 70, 31
1, 370165, Note_off_c, 0, 71, 35
1, 370184, Poly_aftertouch_c, 0, 61, 127
1, 370199, Control_c, 0, 64, 80
1, 370214, Control_c, 0, 64, 78
1, 370229, Control_c, 0, 64, 74
1, 370229, Control_c, 0, 67, 23
1, 370243, Control_c, 0, 64, 68
1, 370258, Control_c, 0, 64, 64
1, 370258, Control_c, 0, 67, 23
1, 370273, Control_c, 0, 64, 62
1, 370288, Control_c, 0, 64, 64
1, 370303, Control_c, 0, 64, 65
1, 370317, Control_c, 0, 64, 70
1, 370332, Control_c, 0, 64, 75
1, 370347, Control_c, 0, 64, 81
1, 370362, Control_c, 0, 64, 87
1, 370377, Control_c, 0, 64, 91
1, 370391, Control_c, 0, 64, 94
1, 370406, Control_c, 0, 64, 96
1, 370465, Control_c, 0, 64, 96
1, 370510, Control_c, 0, 67, 22
1, 370643, Control_c, 0, 67, 22
1, 370679, Note_off_c, 0, 70, 22
1, 370712, Note_on_c, 0, 69, 38
1, 370717, Control_c, 0, 64, 96
1, 370717, Control_c, 0, 67, 22
1, 370721, Note_on_c, 0, 65, 35
1, 370732, Control_c, 0, 64, 95
1, 370762, Control_c, 0, 64, 95
1, 370837, Control_c, 0, 64, 91
1, 370859, Control_c, 0, 64, 85
1, 370859, Control_c, 0, 67, 23
1, 370873, Control_c, 0, 64, 78
1, 370888, Control_c, 0, 64, 73
1, 370899, Poly_aftertouch_c, 0, 61, 0
1, 370902, Control_c, 0, 64, 74
1, 370917, Control_c, 0, 64, 77
1, 370932, Control_c, 0, 64, 81
1, 370947, Control_c, 0, 64, 87
1, 370947, Control_c, 0, 67, 23
1, 370962, Control_c, 0, 64, 94
1, 370962, Control_c, 0, 67, 23
1, 370977, Control_c, 0, 64, 100
1, 370992, Control_c, 0, 64, 103
1, 371021, Control_c, 0, 67, 22
1, 371030, Note_off_c, 0, 65, 42
1, 371080, Control_c, 0, 67, 22
1, 371125, Control_c, 0, 67, 21
1, 371199, Control_c, 0, 64, 102
1, 371213, Control_c, 0, 64, 102
1, 371289, Note_on_c, 0, 68, 43
1, 371312, Note_on_c, 0, 59, 24
1, 371347, Control_c, 0, 64, 99
1, 371355, Note_off_c, 0, 69, 40
1, 371362, Control_c, 0, 64, 92
1, 371376, Control_c, 0, 64, 83
1, 371391, Control_c, 0, 64, 75
1, 371406, Control_c, 0, 64, 73
1, 371421, Control_c, 0, 64, 75
1, 371436, Control_c, 0, 64, 79
1, 371451, Control_c, 0, 64, 85
1, 371465, Control_c, 0, 64, 94
1, 371465, Control_c, 0, 67, 21
1, 371478, Note_off_c, 0, 68, 56
1, 371480, Control_c, 0, 64, 103
1, 371495, Control_c, 0, 64, 109
1, 371495, Control_c, 0, 67, 20
1, 371510, Control_c, 0, 64, 110
1, 371510, Control_c, 0, 67, 19
1, 371525, Control_c, 0, 67, 18
1, 371539, Control_c, 0, 67, 17
1, 371547, Note_off_c, 0, 59, 41
1, 371554, Control_c, 0, 67, 15
1, 371570, Control_c, 0, 67, 11
1, 371585, Control_c, 0, 67, 0
1, 371770, Control_c, 0, 64, 110
1, 371785, Control_c, 0, 64, 109
1, 371800, Control_c, 0, 64, 108
1, 371815, Control_c, 0, 64, 107
1, 371827, Note_on_c, 0, 65, 31
1, 371830, Control_c, 0, 64, 106
1, 371844, Control_c, 0, 64, 104
1, 371845, Note_on_c, 0, 61, 36
1, 371859, Control_c, 0, 64, 102
1, 371863, Note_on_c, 0, 71, 50
1, 371874, Control_c, 0, 64, 101
1, 371878, Note_on_c, 0, 67, 41
1, 371889, Control_c, 0, 64, 100
1, 371904, Control_c, 0, 64, 99
1, 371919, Control_c, 0, 64, 98
1, 371934, Control_c, 0, 64, 98
1, 371957, Note_off_c, 0, 61, 0
1, 371993, Control_c, 0, 64, 96
1, 371993, Poly_aftertouch_c, 0, 61, 127
1, 372008, Control_c, 0, 64, 89
1, 372022, Control_c, 0, 64, 78
1, 372037, Control_c, 0, 64, 66
1, 372052, Control_c, 0, 64, 57
1, 372067, Control_c, 0, 64, 62
1, 372082, Control_c, 0, 64, 68
1, 372096, Control_c, 0, 64, 74
1, 372111, Control_c, 0, 64, 82
1, 372125, Note_off_c, 0, 65, 43
1, 372126, Control_c, 0, 64, 91
1, 372141, Control_c, 0, 64, 95
1, 372151, Poly_aftertouch_c, 0, 61, 0
1, 372156, Control_c, 0, 64, 97
1, 372170, Control_c, 0, 64, 98
1, 372185, Control_c, 0, 64, 99
1, 372200, Control_c, 0, 64, 100
1, 372214, Control_c, 0, 64, 102
1, 372229, Control_c, 0, 64, 104
1, 372244, Control_c, 0, 64, 105
1, 372259, Control_c, 0, 64, 106
1, 372274, Control_c, 0, 64, 107
1, 372289, Control_c, 0, 64, 108
1, 372318, Control_c, 0, 64, 109
1, 372445, Note_on_c, 0, 55, 37
1, 372446, Note_on_c, 0, 64, 34
1, 372549, Control_c, 0, 64, 108
1, 372564, Control_c, 0, 64, 106
1, 372579, Control_c, 0, 64, 103
1, 372593, Control_c, 0, 64, 102
1, 372619, Note_off_c, 0, 64, 41
1, 372667, Control_c, 0, 64, 103
1, 372675, Note_off_c, 0, 55, 34
1, 372697, Control_c, 0, 64, 103
1, 372934, Control_c, 0, 64, 103
1, 373002, Note_on_c, 0, 63, 42
1, 373014, Note_on_c, 0, 59, 31
1, 373037, Control_c, 0, 64, 102
1, 373052, Control_c, 0, 64, 97
1, 373067, Control_c, 0, 64, 89
1, 373082, Control_c, 0, 64, 78
1, 373105, Control_c, 0, 64, 72
1, 373134, Control_c, 0, 64, 75
1, 373149, Control_c, 0, 64, 80
1, 373165, Control_c, 0, 64, 87
1, 373180, Control_c, 0, 64, 95
1, 373195, Control_c, 0, 64, 100
1, 373210, Control_c, 0, 64, 101
1, 373256, Note_off_c, 0, 63, 32
1, 373299, Note_off_c, 0, 59, 41
1, 373461, Control_c, 0, 64, 101
1, 373475, Control_c, 0, 64, 100
1, 373490, Control_c, 0, 64, 99
1, 373505, Control_c, 0, 64, 99
1, 373520, Control_c, 0, 64, 98
1, 373535, Control_c, 0, 64, 97
1, 373550, Control_c, 0, 64, 97
1, 373564, Control_c, 0, 64, 96
1, 373579, Control_c, 0, 64, 96
1, 373596, Note_on_c, 0, 62, 38
1, 373609, Control_c, 0, 64, 95
1, 373621, Note_on_c, 0, 53, 24
1, 373683, Control_c, 0, 64, 94
1, 373698, Control_c, 0, 64, 88
1, 373713, Control_c, 0, 64, 79
1, 373728, Control_c, 0, 64, 69
1, 373742, Control_c, 0, 64, 61
1, 373757, Control_c, 0, 64, 64
1, 373772, Control_c, 0, 64, 68
1, 373787, Control_c, 0, 64, 73
1, 373802, Control_c, 0, 64, 79
1, 373816, Control_c, 0, 64, 84
1, 373831, Control_c, 0, 64, 85
1, 373854, Control_c, 0, 64, 85
1, 373906, Note_off_c, 0, 53, 41
1, 373913, Control_c, 0, 64, 86
1, 373942, Control_c, 0, 64, 86
1, 374003, Control_c, 0, 64, 87
1, 374032, Control_c, 0, 64, 87
1, 374047, Control_c, 0, 64, 88
1, 374062, Note_off_c, 0, 62, 40
1, 374062, Control_c, 0, 64, 89
1, 374077, Control_c, 0, 64, 90
1, 374091, Control_c, 0, 64, 91
1, 374106, Control_c, 0, 64, 92
1, 374254, Control_c, 0, 64, 91
1, 374269, Control_c, 0, 64, 90
1, 374298, Control_c, 0, 64, 90
1, 374303, Note_on_c, 0, 65, 29
1, 374313, Control_c, 0, 64, 89
1, 374326, Note_on_c, 0, 61, 19
1, 374328, Control_c, 0, 64, 89
1, 374343, Control_c, 0, 64, 88
1, 374358, Control_c, 0, 64, 88
1, 374372, Control_c, 0, 64, 87
1, 374402, Control_c, 0, 64, 85
1, 374417, Control_c, 0, 64, 79
1, 374432, Control_c, 0, 64, 68
1, 374447, Control_c, 0, 64, 41
1, 374462, Control_c, 0, 64, 33
1, 374477, Control_c, 0, 64, 60
1, 374491, Control_c, 0, 64, 68
1, 374506, Control_c, 0, 64, 75
1, 374521, Control_c, 0, 64, 83
1, 374536, Control_c, 0, 64, 89
1, 374551, Control_c, 0, 64, 92
1, 374564, Note_off_c, 0, 61, 50
1, 374565, Control_c, 0, 64, 93
1, 374580, Control_c, 0, 64, 93
1, 374595, Note_off_c, 0, 67, 21
1, 374598, Note_off_c, 0, 65, 42
1, 374838, Control_c, 0, 64, 93
1, 374897, Note_on_c, 0, 70, 38
1, 374910, Note_on_c, 0, 61, 34
1, 374942, Control_c, 0, 64, 92
1, 374951, Note_off_c, 0, 71, 36
1, 374972, Control_c, 0, 64, 92
1, 375016, Control_c, 0, 64, 91
1, 375076, Control_c, 0, 64, 91
1, 375106, Control_c, 0, 64, 90
1, 375125, Note_off_c, 0, 61, 34
1, 375150, Control_c, 0, 64, 90
1, 375209, Control_c, 0, 64, 89
1, 375238, Control_c, 0, 64, 89
1, 375268, Control_c, 0, 64, 88
1, 375327, Control_c, 0, 64, 88
1, 375380, Control_c, 0, 64, 87
1, 375454, Control_c, 0, 64, 87
1, 375469, Note_off_c, 0, 70, 22
1, 375494, Note_on_c, 0, 69, 38
1, 375496, Note_on_c, 0, 65, 33
1, 375513, Control_c, 0, 64, 86
1, 375633, Control_c, 0, 64, 86
1, 375692, Control_c, 0, 64, 85
1, 375736, Control_c, 0, 64, 85
1, 375766, Control_c, 0, 64, 84
1, 375796, Control_c, 0, 64, 84
1, 375825, Control_c, 0, 64, 83
1, 375840, Control_c, 0, 64, 83
1, 375868, Note_off_c, 0, 65, 30
1, 375869, Control_c, 0, 64, 82
1, 375884, Control_c, 0, 64, 82
1, 375914, Control_c, 0, 64, 81
1, 375958, Control_c, 0, 64, 81
1, 376033, Control_c, 0, 64, 80
1, 376074, Note_on_c, 0, 68, 42
1, 376091, Note_off_c, 0, 69, 44
1, 376096, Note_on_c, 0, 59, 28
1, 376129, Control_c, 0, 64, 80
1, 376143, Control_c, 0, 64, 79
1, 376158, Control_c, 0, 64, 76
1, 376173, Control_c, 0, 64, 72
1, 376188, Control_c, 0, 64, 69
1, 376203, Control_c, 0, 64, 68
1, 376217, Control_c, 0, 64, 70
1, 376232, Control_c, 0, 64, 71
1, 376247, Control_c, 0, 64, 73
1, 376262, Control_c, 0, 64, 75
1, 376270, Note_off_c, 0, 68, 48
1, 376277, Control_c, 0, 64, 78
1, 376292, Control_c, 0, 64, 81
1, 376307, Control_c, 0, 64, 84
1, 376322, Control_c, 0, 64, 88
1, 376336, Control_c, 0, 64, 90
1, 376351, Control_c, 0, 64, 93
1, 376366, Control_c, 0, 64, 95
1, 376381, Control_c, 0, 64, 97
1, 376396, Control_c, 0, 64, 99
1, 376399, Note_off_c, 0, 59, 42
1, 376411, Control_c, 0, 64, 102
1, 376426, Control_c, 0, 64, 103
1, 376441, Control_c, 0, 64, 104
1, 376456, Control_c, 0, 64, 106
1, 376471, Control_c, 0, 64, 107
1, 376485, Control_c, 0, 64, 108
1, 376500, Control_c, 0, 64, 108
1, 376515, Control_c, 0, 64, 109
1, 376545, Control_c, 0, 64, 110
1, 376656, Note_on_c, 0, 65, 36
1, 376707, Control_c, 0, 64, 109
1, 376711, Note_on_c, 0, 61, 22
1, 376722, Control_c, 0, 64, 107
1, 376736, Note_on_c, 0, 71, 42
1, 376737, Control_c, 0, 64, 106
1, 376752, Control_c, 0, 64, 105
1, 376758, Note_on_c, 0, 67, 34
1, 376766, Control_c, 0, 64, 103
1, 376781, Control_c, 0, 64, 103
1, 376811, Control_c, 0, 64, 102
1, 376833, Control_c, 0, 64, 100
1, 376848, Control_c, 0, 64, 93
1, 376863, Control_c, 0, 64, 83
1, 376877, Control_c, 0, 64, 73
1, 376891, Control_c, 0, 64, 70
1, 376906, Control_c, 0, 64, 72
1, 376921, Control_c, 0, 64, 75
1, 376936, Control_c, 0, 64, 79
1, 376951, Control_c, 0, 64, 83
1, 376959, Note_off_c, 0, 65, 37
1, 376966, Control_c, 0, 64, 88
1, 376975, Note_off_c, 0, 61, 40
1, 376981, Control_c, 0, 64, 91
1, 376995, Control_c, 0, 64, 93
1, 377010, Control_c, 0, 64, 95
1, 377025, Control_c, 0, 64, 96
1, 377040, Control_c, 0, 64, 97
1, 377055, Control_c, 0, 64, 98
1, 377070, Control_c, 0, 64, 100
1, 377084, Control_c, 0, 64, 101
1, 377099, Control_c, 0, 64, 101
1, 377114, Control_c, 0, 64, 102
1, 377144, Control_c, 0, 64, 102
1, 377263, Control_c, 0, 64, 102
1, 377278, Control_c, 0, 64, 101
1, 377292, Note_on_c, 0, 64, 34
1, 377293, Note_on_c, 0, 55, 41
1, 377293, Control_c, 0, 64, 100
1, 377322, Control_c, 0, 64, 100
1, 377381, Control_c, 0, 64, 99
1, 377396, Control_c, 0, 64, 94
1, 377411, Control_c, 0, 64, 86
1, 377426, Control_c, 0, 64, 76
1, 377440, Control_c, 0, 64, 67
1, 377455, Control_c, 0, 64, 64
1, 377470, Control_c, 0, 64, 67
1, 377485, Control_c, 0, 64, 71
1, 377500, Control_c, 0, 64, 77
1, 377514, Control_c, 0, 64, 84
1, 377526, Note_off_c, 0, 64, 43
1, 377529, Control_c, 0, 64, 89
1, 377544, Control_c, 0, 64, 92
1, 377559, Control_c, 0, 64, 94
1, 377574, Control_c, 0, 64, 95
1, 377596, Control_c, 0, 64, 96
1, 377611, Control_c, 0, 64, 97
1, 377618, Note_off_c, 0, 55, 39
1, 377878, Control_c, 0, 64, 96
1, 377893, Control_c, 0, 64, 96
1, 377907, Control_c, 0, 64, 95
1, 377922, Control_c, 0, 64, 94
1, 377928, Note_on_c, 0, 63, 39
1, 377937, Control_c, 0, 64, 93
1, 377940, Note_on_c, 0, 59, 28
1, 377952, Control_c, 0, 64, 92
1, 377967, Control_c, 0, 64, 91
1, 377982, Control_c, 0, 64, 90
1, 377997, Control_c, 0, 64, 90
1, 378012, Control_c, 0, 64, 89
1, 378056, Control_c, 0, 64, 88
1, 378071, Control_c, 0, 64, 85
1, 378086, Control_c, 0, 64, 79
1, 378101, Control_c, 0, 64, 70
1, 378116, Control_c, 0, 64, 58
1, 378130, Control_c, 0, 64, 42
1, 378145, Control_c, 0, 64, 48
1, 378160, Control_c, 0, 64, 59
1, 378175, Control_c, 0, 64, 65
1, 378190, Control_c, 0, 64, 69
1, 378204, Control_c, 0, 64, 73
1, 378219, Control_c, 0, 64, 76
1, 378220, Note_off_c, 0, 59, 34
1, 378234, Control_c, 0, 64, 80
1, 378238, Note_off_c, 0, 63, 29
1, 378249, Control_c, 0, 64, 84
1, 378263, Control_c, 0, 64, 89
1, 378278, Control_c, 0, 64, 94
1, 378293, Control_c, 0, 64, 98
1, 378308, Control_c, 0, 64, 101
1, 378323, Control_c, 0, 64, 103
1, 378345, Control_c, 0, 64, 103
1, 378360, Control_c, 0, 64, 104
1, 378376, Control_c, 0, 64, 106
1, 378390, Control_c, 0, 64, 107
1, 378405, Control_c, 0, 64, 108
1, 378420, Control_c, 0, 64, 108
1, 378597, Control_c, 0, 64, 108
1, 378730, Control_c, 0, 64, 107
1, 378761, Control_c, 0, 64, 107
1, 378761, Control_c, 0, 67, 13
1, 378776, Control_c, 0, 64, 106
1, 378776, Control_c, 0, 67, 22
1, 378791, Control_c, 0, 64, 105
1, 378791, Control_c, 0, 67, 33
1, 378806, Control_c, 0, 64, 105
1, 378806, Control_c, 0, 67, 44
1, 378821, Control_c, 0, 64, 104
1, 378821, Control_c, 0, 67, 54
1, 378835, Control_c, 0, 64, 104
1, 378835, Control_c, 0, 67, 66
1, 378850, Control_c, 0, 64, 103
1, 378850, Control_c, 0, 67, 74
1, 378865, Control_c, 0, 64, 102
1, 378865, Control_c, 0, 67, 78
1, 378879, Control_c, 0, 64, 102
1, 378879, Control_c, 0, 67, 79
1, 378894, Control_c, 0, 64, 101
1, 378894, Control_c, 0, 67, 80
1, 378909, Control_c, 0, 67, 81
1, 378924, Control_c, 0, 64, 101
1, 378924, Control_c, 0, 67, 81
1, 378939, Control_c, 0, 64, 100
1, 378954, Control_c, 0, 64, 100
1, 378960, Note_on_c, 0, 53, 26
1, 378966, Note_on_c, 0, 62, 24
1, 378969, Control_c, 0, 64, 99
1, 378984, Control_c, 0, 64, 98
1, 378999, Control_c, 0, 64, 97
1, 379013, Control_c, 0, 64, 96
1, 379028, Control_c, 0, 64, 95
1, 379043, Control_c, 0, 64, 93
1, 379058, Control_c, 0, 64, 91
1, 379073, Control_c, 0, 64, 90
1, 379094, Control_c, 0, 64, 88
1, 379094, Control_c, 0, 67, 81
1, 379109, Control_c, 0, 64, 86
1, 379109, Control_c, 0, 67, 80
1, 379124, Control_c, 0, 64, 83
1, 379124, Control_c, 0, 67, 78
1, 379139, Control_c, 0, 64, 80
1, 379139, Control_c, 0, 67, 77
1, 379154, Note_off_c, 0, 53, 42
1, 379154, Control_c, 0, 64, 76
1, 379154, Control_c, 0, 67, 75
1, 379160, Note_off_c, 0, 62, 40
1, 379169, Control_c, 0, 64, 73
1, 379169, Control_c, 0, 67, 73
1, 379183, Control_c, 0, 64, 70
1, 379183, Control_c, 0, 67, 73
1, 379198, Control_c, 0, 64, 68
1, 379287, Control_c, 0, 64, 69
1, 379302, Control_c, 0, 67, 73
1, 379391, Control_c, 0, 67, 73
1, 379405, Control_c, 0, 64, 68
1, 379405, Control_c, 0, 67, 72
1, 379435, Control_c, 0, 67, 72
1, 379450, Control_c, 0, 67, 71
1, 379465, Control_c, 0, 67, 70
1, 379479, Control_c, 0, 67, 69
1, 379494, Control_c, 0, 64, 68
1, 379494, Control_c, 0, 67, 67
1, 379509, Control_c, 0, 67, 64
1, 379524, Control_c, 0, 67, 60
1, 379539, Control_c, 0, 67, 57
1, 379555, Control_c, 0, 67, 54
1, 379570, Control_c, 0, 67, 51
1, 379584, Control_c, 0, 64, 67
1, 379584, Control_c, 0, 67, 48
1, 379599, Control_c, 0, 67, 45
1, 379614, Control_c, 0, 67, 42
1, 379628, Control_c, 0, 64, 67
1, 379628, Control_c, 0, 67, 38
1, 379643, Control_c, 0, 67, 36
1, 379658, Control_c, 0, 67, 35
1, 379673, Control_c, 0, 67, 34
1, 380243, Control_c, 0, 64, 67
1, 380302, Control_c, 0, 67, 34
1, 380332, Control_c, 0, 67, 33
1, 380378, Control_c, 0, 67, 33
1, 380407, Control_c, 0, 67, 32
1, 380422, Control_c, 0, 67, 32
1, 380437, Control_c, 0, 67, 29
1, 380451, Control_c, 0, 67, 27
1, 380466, Control_c, 0, 67, 26
1, 380481, Control_c, 0, 67, 25
1, 380496, Control_c, 0, 67, 24
1, 380511, Control_c, 0, 67, 24
1, 380540, Control_c, 0, 64, 68
1, 380540, Control_c, 0, 67, 23
1, 380651, Control_c, 0, 67, 24
1, 380666, Control_c, 0, 67, 24
1, 380681, Control_c, 0, 67, 25
1, 380696, Control_c, 0, 67, 26
1, 380711, Control_c, 0, 67, 27
1, 380740, Control_c, 0, 67, 27
1, 380755, Control_c, 0, 67, 28
1, 380770, Control_c, 0, 67, 28
1, 380785, Control_c, 0, 67, 29
1, 380800, Control_c, 0, 64, 68
1, 380800, Control_c, 0, 67, 30
1, 380814, Control_c, 0, 67, 31
1, 380829, Control_c, 0, 64, 69
1, 380829, Control_c, 0, 67, 32
1, 380844, Control_c, 0, 64, 69
1, 380844, Control_c, 0, 67, 32
1, 380859, Control_c, 0, 64, 70
1, 380859, Control_c, 0, 67, 33
1, 380874, Control_c, 0, 64, 71
1, 380874, Control_c, 0, 67, 34
1, 380889, Control_c, 0, 64, 72
1, 380889, Control_c, 0, 67, 35
1, 380903, Control_c, 0, 64, 74
1, 380903, Control_c, 0, 67, 36
1, 380918, Control_c, 0, 64, 77
1, 380918, Control_c, 0, 67, 38
1, 380933, Control_c, 0, 64, 79
1, 380933, Control_c, 0, 67, 41
1, 380948, Control_c, 0, 64, 82
1, 380948, Control_c, 0, 67, 45
1, 380963, Control_c, 0, 64, 86
1, 380963, Control_c, 0, 67, 50
1, 380977, Control_c, 0, 64, 90
1, 380977, Control_c, 0, 67, 56
1, 380992, Control_c, 0, 64, 95
1, 380992, Control_c, 0, 67, 61
1, 381007, Control_c, 0, 64, 103
1, 381007, Control_c, 0, 67, 65
1, 381022, Control_c, 0, 64, 115
1, 381022, Control_c, 0, 67, 69
1, 381037, Control_c, 0, 64, 127
1, 381037, Control_c, 0, 67, 73
1, 381051, Control_c, 0, 67, 75
1, 381066, Control_c, 0, 67, 78
1, 381081, Control_c, 0, 67, 80
1, 381096, Control_c, 0, 67, 82
1, 381111, Control_c, 0, 67, 85
1, 381125, Control_c, 0, 67, 88
1, 381140, Control_c, 0, 67, 91
1, 381156, Control_c, 0, 67, 93
1, 381171, Control_c, 0, 67, 95
1, 381186, Control_c, 0, 67, 97
1, 381200, Control_c, 0, 67, 99
1, 381215, Control_c, 0, 67, 100
1, 381237, Note_on_c, 0, 65, 30
1, 381263, Note_on_c, 0, 61, 27
1, 381380, Note_off_c, 0, 61, 37
1, 381386, Note_off_c, 0, 65, 36
1, 381401, Control_c, 0, 67, 99
1, 381415, Control_c, 0, 67, 99
1, 381430, Control_c, 0, 67, 98
1, 381445, Control_c, 0, 67, 97
1, 381460, Control_c, 0, 67, 96
1, 381474, Control_c, 0, 67, 96
1, 381489, Control_c, 0, 67, 95
1, 381504, Control_c, 0, 67, 94
1, 381519, Control_c, 0, 67, 93
1, 381534, Control_c, 0, 67, 92
1, 381549, Control_c, 0, 67, 91
1, 381563, Control_c, 0, 67, 91
1, 381578, Control_c, 0, 67, 90
1, 381593, Control_c, 0, 67, 90
1, 381607, Control_c, 0, 64, 126
1, 381607, Control_c, 0, 67, 89
1, 381622, Control_c, 0, 64, 118
1, 381622, Control_c, 0, 67, 88
1, 381637, Control_c, 0, 64, 114
1, 381637, Control_c, 0, 67, 87
1, 381652, Control_c, 0, 64, 113
1, 381652, Control_c, 0, 67, 86
1, 381667, Control_c, 0, 64, 111
1, 381667, Control_c, 0, 67, 85
1, 381681, Control_c, 0, 64, 110
1, 381681, Control_c, 0, 67, 82
1, 381696, Control_c, 0, 64, 110
1, 381696, Control_c, 0, 67, 78
1, 381711, Control_c, 0, 64, 109
1, 381711, Control_c, 0, 67, 74
1, 381726, Control_c, 0, 64, 108
1, 381726, Control_c, 0, 67, 68
1, 381741, Control_c, 0, 64, 106
1, 381741, Control_c, 0, 67, 64
1, 381756, Control_c, 0, 64, 105
1, 381756, Control_c, 0, 67, 57
1, 381771, Control_c, 0, 64, 104
1, 381771, Control_c, 0, 67, 50
1, 381786, Control_c, 0, 64, 102
1, 381786, Control_c, 0, 67, 42
1, 381800, Control_c, 0, 64, 101
1, 381800, Control_c, 0, 67, 33
1, 381815, Control_c, 0, 64, 99
1, 381815, Control_c, 0, 67, 25
1, 381830, Control_c, 0, 64, 98
1, 381830, Control_c, 0, 67, 18
1, 381845, Control_c, 0, 64, 98
1, 381845, Control_c, 0, 67, 14
1, 381860, Control_c, 0, 64, 97
1, 381860, Control_c, 0, 67, 13
1, 381874, Control_c, 0, 64, 97
1, 381889, Control_c, 0, 67, 12
1, 381904, Control_c, 0, 64, 96
1, 381904, Control_c, 0, 67, 12
1, 381919, Control_c, 0, 64, 96
1, 381919, Control_c, 0, 67, 11
1, 381934, Control_c, 0, 64, 95
1, 381934, Control_c, 0, 67, 9
1, 381950, Control_c, 0, 64, 95
1, 381950, Control_c, 0, 67, 0
1, 381965, Control_c, 0, 64, 94
1, 381979, Control_c, 0, 64, 93
1, 381994, Control_c, 0, 64, 91
1, 382009, Control_c, 0, 64, 90
1, 382023, Control_c, 0, 64, 88
1, 382038, Control_c, 0, 64, 87
1, 382053, Control_c, 0, 64, 86
1, 382068, Control_c, 0, 64, 85
1, 382090, Control_c, 0, 64, 84
1, 382105, Control_c, 0, 64, 84
1, 382120, Control_c, 0, 64, 83
1, 382135, Control_c, 0, 64, 82
1, 382149, Control_c, 0, 64, 81
1, 382164, Control_c, 0, 64, 80
1, 382179, Control_c, 0, 64, 80
1, 382194, Control_c, 0, 64, 79
1, 382209, Control_c, 0, 64, 78
1, 382224, Control_c, 0, 64, 77
1, 382238, Control_c, 0, 64, 76
1, 382253, Control_c, 0, 64, 75
1, 382268, Control_c, 0, 64, 74
1, 382283, Control_c, 0, 64, 73
1, 382298, Control_c, 0, 64, 72
1, 382312, Control_c, 0, 64, 71
1, 382327, Control_c, 0, 64, 70
1, 382342, Control_c, 0, 64, 69
1, 382357, Control_c, 0, 64, 69
1, 382372, Control_c, 0, 64, 68
1, 382401, Control_c, 0, 64, 68
1, 382445, Control_c, 0, 64, 67
1, 382460, Control_c, 0, 64, 67
1, 382490, Control_c, 0, 64, 66
1, 382623, Control_c, 0, 64, 66
1, 382839, Control_c, 0, 64, 65
1, 382942, Control_c, 0, 64, 66
1, 382972, Control_c, 0, 64, 66
1, 382972, Control_c, 0, 67, 8
1, 382987, Control_c, 0, 67, 11
1, 383002, Control_c, 0, 64, 67
1, 383002, Control_c, 0, 67, 14
1, 383017, Control_c, 0, 64, 67
1, 383017, Control_c, 0, 67, 19
1, 383032, Control_c, 0, 64, 68
1, 383032, Control_c, 0, 67, 25
1, 383047, Control_c, 0, 64, 70
1, 383047, Control_c, 0, 67, 33
1, 383061, Control_c, 0, 64, 72
1, 383061, Control_c, 0, 67, 40
1, 383076, Control_c, 0, 64, 75
1, 383076, Control_c, 0, 67, 45
1, 383091, Control_c, 0, 64, 78
1, 383091, Control_c, 0, 67, 49
1, 383106, Control_c, 0, 64, 81
1, 383106, Control_c, 0, 67, 52
1, 383121, Control_c, 0, 64, 83
1, 383121, Control_c, 0, 67, 56
1, 383135, Control_c, 0, 64, 86
1, 383135, Control_c, 0, 67, 59
1, 383150, Control_c, 0, 64, 91
1, 383150, Control_c, 0, 67, 61
1, 383165, Control_c, 0, 64, 96
1, 383165, Control_c, 0, 67, 64
1, 383179, Control_c, 0, 64, 101
1, 383179, Control_c, 0, 67, 66
1, 383194, Control_c, 0, 64, 108
1, 383194, Control_c, 0, 67, 69
1, 383209, Control_c, 0, 64, 115
1, 383209, Control_c, 0, 67, 72
1, 383224, Control_c, 0, 64, 127
1, 383224, Control_c, 0, 67, 75
1, 383239, Control_c, 0, 67, 78
1, 383253, Control_c, 0, 67, 81
1, 383268, Control_c, 0, 67, 85
1, 383283, Control_c, 0, 67, 90
1, 383298, Control_c, 0, 67, 96
1, 383313, Control_c, 0, 67, 103
1, 383327, Control_c, 0, 67, 108
1, 383342, Control_c, 0, 67, 113
1, 383357, Control_c, 0, 67, 116
1, 383372, Control_c, 0, 67, 120
1, 383387, Control_c, 0, 67, 125
1, 383401, Control_c, 0, 67, 127
1, 383592, Note_on_c, 0, 29, 21
1, 384106, Control_c, 0, 67, 127
1, 384121, Control_c, 0, 67, 126
1, 384136, Control_c, 0, 67, 125
1, 384150, Control_c, 0, 67, 124
1, 384165, Control_c, 0, 67, 123
1, 384180, Control_c, 0, 67, 121
1, 384194, Control_c, 0, 67, 119
1, 384209, Control_c, 0, 67, 116
1, 384224, Control_c, 0, 67, 112
1, 384239, Control_c, 0, 67, 108
1, 384254, Control_c, 0, 67, 104
1, 384269, Control_c, 0, 67, 101
1, 384284, Control_c, 0, 67, 97
1, 384299, Control_c, 0, 67, 94
1, 384314, Control_c, 0, 67, 91
1, 384335, Control_c, 0, 67, 90
1, 384352, Control_c, 0, 67, 89
1, 384367, Control_c, 0, 67, 88
1, 384381, Control_c, 0, 67, 87
1, 384396, Control_c, 0, 67, 86
1, 384411, Control_c, 0, 67, 86
1, 384425, Control_c, 0, 67, 85
1, 384440, Control_c, 0, 67, 85
1, 384455, Control_c, 0, 67, 84
1, 384470, Control_c, 0, 67, 84
1, 384485, Control_c, 0, 67, 83
1, 384499, Control_c, 0, 67, 82
1, 384514, Control_c, 0, 67, 82
1, 384529, Control_c, 0, 67, 81
1, 384544, Control_c, 0, 67, 81
1, 384588, Control_c, 0, 67, 80
1, 384662, Control_c, 0, 67, 80
1, 384722, Control_c, 0, 67, 79
1, 384737, Control_c, 0, 67, 79
1, 384751, Control_c, 0, 67, 78
1, 384766, Control_c, 0, 67, 77
1, 384781, Control_c, 0, 67, 75
1, 384796, Control_c, 0, 67, 74
1, 384811, Control_c, 0, 67, 73
1, 384825, Control_c, 0, 67, 72
1, 384840, Control_c, 0, 67, 71
1, 384855, Control_c, 0, 67, 70
1, 384870, Control_c, 0, 67, 69
1, 384899, Control_c, 0, 67, 69
1, 384914, Control_c, 0, 67, 68
1, 384929, Control_c, 0, 67, 67
1, 384943, Control_c, 0, 67, 66
1, 384958, Control_c, 0, 67, 66
1, 384973, Control_c, 0, 67, 65
1, 385017, Control_c, 0, 67, 65
1, 385047, Control_c, 0, 67, 64
1, 385099, Control_c, 0, 67, 64
1, 385129, Control_c, 0, 67, 63
1, 385175, Control_c, 0, 67, 63
1, 385190, Control_c, 0, 67, 62
1, 385204, Control_c, 0, 67, 61
1, 385219, Control_c, 0, 67, 60
1, 385234, Control_c, 0, 67, 58
1, 385248, Control_c, 0, 67, 57
1, 385263, Control_c, 0, 67, 56
1, 385278, Control_c, 0, 67, 55
1, 385293, Control_c, 0, 67, 54
1, 385308, Control_c, 0, 67, 53
1, 385322, Control_c, 0, 67, 53
1, 385337, Control_c, 0, 67, 52
1, 385352, Control_c, 0, 67, 51
1, 385367, Control_c, 0, 67, 51
1, 385381, Control_c, 0, 67, 50
1, 385411, Control_c, 0, 67, 50
1, 385455, Control_c, 0, 67, 49
1, 385485, Control_c, 0, 67, 49
1, 385500, Control_c, 0, 67, 48
1, 385515, Control_c, 0, 67, 47
1, 385530, Control_c, 0, 67, 46
1, 385545, Control_c, 0, 67, 46
1, 385560, Control_c, 0, 67, 45
1, 385574, Control_c, 0, 67, 45
1, 385589, Control_c, 0, 67, 44
1, 385604, Control_c, 0, 67, 44
1, 385619, Control_c, 0, 67, 43
1, 385678, Control_c, 0, 67, 43
1, 385737, Control_c, 0, 67, 42
1, 385922, Control_c, 0, 67, 42
1, 386382, Control_c, 0, 67, 41
1, 387086, Control_c, 0, 67, 41
1, 388109, Control_c, 0, 67, 40
1, 388377, Control_c, 0, 67, 40
1, 389067, Note_off_c, 0, 71, 17
1, 389539, Control_c, 0, 67, 39
1, 389843, Control_c, 0, 67, 39
1, 389903, Control_c, 0, 67, 38
1, 389992, Control_c, 0, 67, 34
1, 390007, Control_c, 0, 67, 25
1, 390022, Control_c, 0, 67, 20
1, 390037, Control_c, 0, 67, 17
1, 390052, Control_c, 0, 67, 16
1, 390067, Control_c, 0, 67, 15
1, 390074, Note_off_c, 0, 29, 38
1, 390082, Control_c, 0, 67, 13
1, 390097, Control_c, 0, 67, 12
1, 390111, Control_c, 0, 67, 11
1, 390117, Note_off_c, 0, 67, 30
1, 390126, Control_c, 0, 67, 10
1, 390141, Control_c, 0, 67, 9
1, 390156, Control_c, 0, 67, 8
1, 390170, Control_c, 0, 67, 0
1, 390341, Control_c, 0, 64, 126
1, 390356, Control_c, 0, 64, 119
1, 390370, Control_c, 0, 64, 116
1, 390385, Control_c, 0, 64, 113
1, 390400, Control_c, 0, 64, 110
1, 390415, Control_c, 0, 64, 108
1, 390430, Control_c, 0, 64, 106
1, 390444, Control_c, 0, 64, 105
1, 390459, Control_c, 0, 64, 103
1, 390474, Control_c, 0, 64, 102
1, 390489, Control_c, 0, 64, 100
1, 390504, Control_c, 0, 64, 99
1, 390518, Control_c, 0, 64, 98
1, 390533, Control_c, 0, 64, 97
1, 390548, Control_c, 0, 64, 96
1, 390562, Control_c, 0, 64, 95
1, 390577, Control_c, 0, 64, 94
1, 390592, Control_c, 0, 64, 93
1, 390607, Control_c, 0, 64, 92
1, 390622, Control_c, 0, 64, 91
1, 390636, Control_c, 0, 64, 90
1, 390651, Control_c, 0, 64, 89
1, 390666, Control_c, 0, 64, 88
1, 390681, Control_c, 0, 64, 87
1, 390696, Control_c, 0, 64, 86
1, 390711, Control_c, 0, 64, 85
1, 390725, Control_c, 0, 64, 84
1, 390741, Control_c, 0, 64, 83
1, 390756, Control_c, 0, 64, 81
1, 390771, Control_c, 0, 64, 80
1, 390785, Control_c, 0, 64, 79
1, 390800, Control_c, 0, 64, 78
1, 390815, Control_c, 0, 64, 77
1, 390830, Control_c, 0, 64, 76
1, 390845, Control_c, 0, 64, 75
1, 390860, Control_c, 0, 64, 74
1, 390875, Control_c, 0, 64, 72
1, 390889, Control_c, 0, 64, 70
1, 390904, Control_c, 0, 64, 69
1, 390919, Control_c, 0, 64, 68
1, 390949, Control_c, 0, 64, 67
1, 390993, Control_c, 0, 64, 67
1, 391008, Control_c, 0, 64, 66
1, 391023, Control_c, 0, 64, 66
1, 391038, Control_c, 0, 64, 65
1, 391164, Control_c, 0, 64, 65
1, 391193, Control_c, 0, 64, 64
1, 391223, Control_c, 0, 64, 64
1, 391238, Control_c, 0, 64, 63
1, 391253, Control_c, 0, 64, 63
1, 391268, Control_c, 0, 64, 62
1, 391283, Control_c, 0, 64, 62
1, 391298, Control_c, 0, 64, 61
1, 391312, Control_c, 0, 64, 60
1, 391327, Control_c, 0, 64, 59
1, 391342, Control_c, 0, 64, 59
1, 391357, Control_c, 0, 64, 57
1, 391372, Control_c, 0, 64, 56
1, 391386, Control_c, 0, 64, 55
1, 391401, Control_c, 0, 64, 54
1, 391416, Control_c, 0, 64, 53
1, 391431, Control_c, 0, 64, 52
1, 391446, Control_c, 0, 64, 52
1, 391460, Control_c, 0, 64, 51
1, 391490, Control_c, 0, 64, 49
1, 391505, Control_c, 0, 64, 47
1, 391519, Control_c, 0, 64, 43
1, 391536, Control_c, 0, 64, 38
1, 391551, Control_c, 0, 64, 32
1, 391565, Control_c, 0, 64, 26
1, 391580, Control_c, 0, 64, 0
1, 391655, End_track
0, 0, End_of_file
