0, 0, Header, 0, 1, 384
1, 0, Start_track
1, 0, Title_t, "Pour Les Huit D.--Yukiko Sekino "
1, 0, Text_t, "2009 Piano-e-Competition audition round"
1, 0, Text_t, "captured January 2009"
1, 0, Text_t, "http://www.piano-e-competition.com/"
1, 0, Text_t, "File processed for distribution by software from Zenph Studios, Inc., http://www.zenph.com"
1, 0, Instrument_name_t, "Yamaha Disklavier Pro Mark IV concert grand piano, model DCFIIISM4PRO"
1, 0, Sequencer_specific, 39, 67, 113, 0, 1, 0, 1, 0, 80, 111, 117, 114, 32, 76, 101, 115, 32, 72, 117, 105, 116, 32, 68, 46, 89, 117, 107, 105, 107, 111, 32, 83, 101, 107, 105, 110, 111, 32, 32, 32
1, 0, Sequencer_specific, 6, 67, 113, 0, 0, 0, 69
1, 0, System_exclusive, 21, 67, 113, 126, 21, 0, 2, 2, 0, 3, 14, 1, 4, 1, 13, 13, 10, 11, 9, 2, 7, 247
1, 0, Sequencer_specific, 5, 67, 123, 12, 2, 1
1, 0, Tempo, 512820
1, 0, Time_signature, 4, 2, 24, 8
1, 0, System_exclusive, 5, 126, 127, 9, 1, 247
1, 1, System_exclusive, 8, 67, 16, 76, 0, 0, 126, 0, 247
1, 2, System_exclusive, 8, 67, 16, 76, 8, 9, 7, 1, 247
1, 3, Control_c, 0, 0, 0
1, 3, Control_c, 1, 0, 0
1, 3, Control_c, 2, 0, 0
1, 3, Control_c, 3, 0, 0
1, 3, Control_c, 4, 0, 0
1, 3, Control_c, 5, 0, 0
1, 3, Control_c, 6, 0, 0
1, 3, Control_c, 7, 0, 0
1, 3, Control_c, 8, 0, 0
1, 3, Control_c, 9, 0, 127
1, 3, Control_c, 10, 0, 0
1, 3, Control_c, 11, 0, 0
1, 3, Control_c, 12, 0, 0
1, 3, Control_c, 13, 0, 0
1, 3, Control_c, 14, 0, 0
1, 3, Control_c, 15, 0, 0
1, 4, Control_c, 0, 32, 0
1, 4, Control_c, 1, 32, 0
1, 4, Control_c, 2, 32, 0
1, 4, Control_c, 3, 32, 0
1, 4, Control_c, 4, 32, 0
1, 4, Control_c, 5, 32, 0
1, 4, Control_c, 6, 32, 0
1, 4, Control_c, 7, 32, 0
1, 4, Control_c, 8, 32, 0
1, 4, Control_c, 9, 32, 0
1, 4, Control_c, 10, 32, 0
1, 4, Control_c, 11, 32, 0
1, 4, Control_c, 12, 32, 0
1, 4, Control_c, 13, 32, 0
1, 4, Control_c, 14, 32, 0
1, 4, Control_c, 15, 32, 0
1, 5, Program_c, 0, 0
1, 5, Program_c, 1, 0
1, 5, Program_c, 2, 0
1, 5, Program_c, 3, 0
1, 5, Program_c, 4, 0
1, 5, Program_c, 5, 0
1, 5, Program_c, 6, 0
1, 5, Program_c, 7, 0
1, 5, Program_c, 8, 0
1, 5, Program_c, 9, 0
1, 5, Program_c, 10, 0
1, 5, Program_c, 11, 0
1, 5, Program_c, 12, 0
1, 5, Program_c, 13, 0
1, 5, Program_c, 14, 0
1, 5, Program_c, 15, 0
1, 6, Control_c, 0, 7, 100
1, 6, Control_c, 1, 7, 100
1, 6, Control_c, 2, 7, 100
1, 6, Control_c, 3, 7, 100
1, 6, Control_c, 4, 7, 100
1, 6, Control_c, 5, 7, 100
1, 6, Control_c, 6, 7, 100
1, 6, Control_c, 7, 7, 100
1, 6, Control_c, 8, 7, 100
1, 6, Control_c, 9, 7, 100
1, 6, Control_c, 10, 7, 100
1, 6, Control_c, 11, 7, 100
1, 6, Control_c, 12, 7, 100
1, 6, Control_c, 13, 7, 100
1, 6, Control_c, 14, 7, 100
1, 6, Control_c, 15, 7, 100
1, 117, Control_c, 0, 67, 15
1, 229, Control_c, 0, 67, 31
1, 341, Control_c, 0, 67, 46
1, 452, Control_c, 0, 67, 63
1, 564, Control_c, 0, 67, 77
1, 676, Control_c, 0, 67, 94
1, 787, Control_c, 0, 67, 108
1, 899, Control_c, 0, 67, 127
1, 1136, Note_on_c, 0, 59, 44
1, 1200, Note_off_c, 0, 59, 55
1, 1213, Note_on_c, 0, 61, 46
1, 1234, Control_c, 0, 64, 32
1, 1249, Control_c, 0, 64, 52
1, 1258, Note_on_c, 0, 63, 54
1, 1258, Note_off_c, 0, 61, 59
1, 1264, Control_c, 0, 64, 61
1, 1278, Control_c, 0, 64, 65
1, 1293, Control_c, 0, 64, 67
1, 1300, Note_off_c, 0, 63, 61
1, 1308, Control_c, 0, 64, 69
1, 1313, Note_on_c, 0, 65, 37
1, 1340, Note_on_c, 0, 66, 50
1, 1346, Note_off_c, 0, 65, 51
1, 1367, Control_c, 0, 64, 68
1, 1382, Control_c, 0, 64, 67
1, 1397, Control_c, 0, 64, 66
1, 1406, Note_off_c, 0, 66, 58
1, 1406, Note_on_c, 0, 65, 47
1, 1412, Control_c, 0, 64, 66
1, 1427, Control_c, 0, 64, 65
1, 1441, Note_off_c, 0, 65, 63
1, 1442, Note_on_c, 0, 63, 65
1, 1442, Control_c, 0, 64, 65
1, 1471, Control_c, 0, 64, 64
1, 1480, Note_off_c, 0, 63, 56
1, 1501, Control_c, 0, 64, 63
1, 1516, Control_c, 0, 64, 54
1, 1526, Note_on_c, 0, 63, 52
1, 1531, Control_c, 0, 64, 0
1, 1582, Note_on_c, 0, 65, 50
1, 1596, Note_off_c, 0, 63, 56
1, 1604, Control_c, 0, 64, 15
1, 1619, Control_c, 0, 64, 27
1, 1624, Note_on_c, 0, 66, 52
1, 1631, Note_off_c, 0, 65, 59
1, 1649, Control_c, 0, 64, 24
1, 1663, Note_off_c, 0, 66, 64
1, 1664, Note_on_c, 0, 68, 61
1, 1664, Control_c, 0, 64, 13
1, 1686, Control_c, 0, 64, 0
1, 1694, Note_off_c, 0, 68, 66
1, 1734, Note_on_c, 0, 70, 65
1, 1746, Control_c, 0, 64, 14
1, 1761, Control_c, 0, 64, 36
1, 1775, Control_c, 0, 64, 49
1, 1781, Note_on_c, 0, 68, 56
1, 1789, Note_off_c, 0, 70, 58
1, 1790, Control_c, 0, 64, 56
1, 1805, Control_c, 0, 64, 58
1, 1820, Control_c, 0, 64, 59
1, 1845, Note_on_c, 0, 66, 54
1, 1850, Control_c, 0, 64, 58
1, 1856, Note_off_c, 0, 68, 63
1, 1880, Control_c, 0, 64, 59
1, 1886, Note_off_c, 0, 66, 62
1, 1889, Note_on_c, 0, 65, 53
1, 1909, Control_c, 0, 64, 57
1, 1913, Note_off_c, 0, 65, 58
1, 1924, Control_c, 0, 64, 48
1, 1939, Control_c, 0, 64, 9
1, 1953, Note_on_c, 0, 63, 52
1, 1954, Control_c, 0, 64, 0
1, 1989, Note_off_c, 0, 63, 64
1, 1996, Note_on_c, 0, 65, 55
1, 2013, Control_c, 0, 64, 31
1, 2027, Control_c, 0, 64, 35
1, 2028, Note_on_c, 0, 66, 61
1, 2028, Note_off_c, 0, 65, 63
1, 2042, Control_c, 0, 64, 32
1, 2057, Control_c, 0, 64, 30
1, 2064, Note_off_c, 0, 66, 62
1, 2072, Control_c, 0, 64, 30
1, 2085, Note_on_c, 0, 68, 59
1, 2087, Control_c, 0, 64, 33
1, 2101, Control_c, 0, 64, 38
1, 2105, Note_off_c, 0, 68, 64
1, 2116, Control_c, 0, 64, 45
1, 2131, Control_c, 0, 64, 51
1, 2136, Note_on_c, 0, 66, 58
1, 2146, Control_c, 0, 64, 53
1, 2175, Control_c, 0, 64, 52
1, 2190, Control_c, 0, 64, 52
1, 2196, Note_on_c, 0, 65, 60
1, 2205, Control_c, 0, 64, 51
1, 2218, Note_off_c, 0, 66, 48
1, 2232, Note_off_c, 0, 65, 62
1, 2235, Control_c, 0, 64, 51
1, 2249, Control_c, 0, 64, 52
1, 2255, Note_on_c, 0, 63, 54
1, 2264, Control_c, 0, 64, 53
1, 2279, Control_c, 0, 64, 55
1, 2282, Note_off_c, 0, 63, 62
1, 2294, Control_c, 0, 64, 56
1, 2296, Note_on_c, 0, 61, 41
1, 2324, Control_c, 0, 64, 52
1, 2327, Note_off_c, 0, 61, 51
1, 2339, Control_c, 0, 64, 43
1, 2353, Note_on_c, 0, 59, 52
1, 2353, Control_c, 0, 64, 10
1, 2368, Control_c, 0, 64, 0
1, 2393, Note_off_c, 0, 59, 63
1, 2428, Note_on_c, 0, 61, 52
1, 2434, Control_c, 0, 64, 21
1, 2449, Control_c, 0, 64, 40
1, 2456, Note_off_c, 0, 61, 58
1, 2461, Note_on_c, 0, 63, 47
1, 2464, Control_c, 0, 64, 47
1, 2479, Control_c, 0, 64, 51
1, 2494, Control_c, 0, 64, 54
1, 2506, Note_off_c, 0, 63, 63
1, 2509, Control_c, 0, 64, 58
1, 2510, Note_on_c, 0, 65, 50
1, 2524, Control_c, 0, 64, 62
1, 2539, Control_c, 0, 64, 64
1, 2540, Note_off_c, 0, 65, 62
1, 2553, Note_on_c, 0, 66, 56
1, 2554, Control_c, 0, 64, 66
1, 2569, Control_c, 0, 64, 67
1, 2584, Control_c, 0, 64, 67
1, 2601, Note_off_c, 0, 66, 57
1, 2621, Note_on_c, 0, 65, 57
1, 2643, Control_c, 0, 64, 67
1, 2656, Note_off_c, 0, 65, 62
1, 2673, Note_on_c, 0, 63, 50
1, 2708, Note_off_c, 0, 63, 64
1, 2714, Note_on_c, 0, 61, 44
1, 2732, Control_c, 0, 64, 65
1, 2740, Note_off_c, 0, 61, 57
1, 2747, Control_c, 0, 64, 61
1, 2762, Control_c, 0, 64, 45
1, 2771, Note_on_c, 0, 59, 54
1, 2777, Control_c, 0, 64, 0
1, 2802, Note_off_c, 0, 59, 65
1, 2810, Note_on_c, 0, 60, 49
1, 2849, Note_off_c, 0, 60, 63
1, 2856, Note_on_c, 0, 62, 52
1, 2893, Note_off_c, 0, 62, 63
1, 2896, Control_c, 0, 64, 30
1, 2911, Control_c, 0, 64, 45
1, 2919, Note_on_c, 0, 64, 44
1, 2925, Control_c, 0, 64, 52
1, 2940, Control_c, 0, 64, 54
1, 2945, Note_off_c, 0, 64, 59
1, 2970, Note_on_c, 0, 65, 62
1, 2999, Control_c, 0, 64, 53
1, 3007, Note_off_c, 0, 65, 61
1, 3014, Control_c, 0, 64, 52
1, 3027, Note_on_c, 0, 64, 53
1, 3029, Control_c, 0, 64, 52
1, 3058, Note_off_c, 0, 64, 65
1, 3082, Note_on_c, 0, 62, 45
1, 3088, Control_c, 0, 64, 52
1, 3103, Control_c, 0, 64, 53
1, 3112, Note_off_c, 0, 62, 61
1, 3117, Control_c, 0, 64, 54
1, 3123, Note_on_c, 0, 60, 42
1, 3147, Control_c, 0, 64, 53
1, 3150, Note_off_c, 0, 60, 57
1, 3162, Control_c, 0, 64, 48
1, 3184, Control_c, 0, 64, 35
1, 3191, Note_on_c, 0, 59, 49
1, 3199, Control_c, 0, 64, 0
1, 3229, Control_c, 0, 64, 17
1, 3233, Note_off_c, 0, 59, 63
1, 3244, Control_c, 0, 64, 35
1, 3252, Note_on_c, 0, 61, 54
1, 3258, Control_c, 0, 64, 45
1, 3273, Control_c, 0, 64, 50
1, 3295, Note_off_c, 0, 61, 60
1, 3303, Control_c, 0, 64, 49
1, 3312, Note_on_c, 0, 63, 49
1, 3318, Control_c, 0, 64, 49
1, 3355, Note_off_c, 0, 63, 63
1, 3363, Control_c, 0, 64, 50
1, 3365, Note_on_c, 0, 65, 46
1, 3378, Control_c, 0, 64, 53
1, 3392, Note_off_c, 0, 65, 57
1, 3392, Control_c, 0, 64, 54
1, 3402, Note_on_c, 0, 66, 61
1, 3407, Control_c, 0, 64, 55
1, 3459, Note_off_c, 0, 66, 61
1, 3466, Control_c, 0, 64, 55
1, 3473, Note_on_c, 0, 65, 63
1, 3506, Note_off_c, 0, 65, 62
1, 3524, Note_on_c, 0, 63, 51
1, 3555, Control_c, 0, 64, 55
1, 3561, Note_on_c, 0, 61, 53
1, 3562, Note_off_c, 0, 63, 64
1, 3588, Note_off_c, 0, 61, 62
1, 3600, Control_c, 0, 64, 54
1, 3612, Note_on_c, 0, 59, 57
1, 3615, Control_c, 0, 64, 48
1, 3630, Control_c, 0, 64, 19
1, 3644, Control_c, 0, 64, 0
1, 3652, Note_off_c, 0, 59, 63
1, 3670, Note_on_c, 0, 60, 46
1, 3706, Note_off_c, 0, 60, 65
1, 3719, Control_c, 0, 64, 21
1, 3721, Note_on_c, 0, 62, 50
1, 3734, Control_c, 0, 64, 48
1, 3748, Control_c, 0, 64, 57
1, 3753, Note_off_c, 0, 62, 64
1, 3763, Control_c, 0, 64, 59
1, 3774, Note_on_c, 0, 64, 42
1, 3778, Control_c, 0, 64, 61
1, 3792, Control_c, 0, 64, 62
1, 3801, Note_off_c, 0, 64, 56
1, 3807, Control_c, 0, 64, 63
1, 3835, Note_on_c, 0, 65, 54
1, 3852, Control_c, 0, 64, 62
1, 3866, Control_c, 0, 64, 61
1, 3868, Note_on_c, 0, 64, 65
1, 3869, Note_off_c, 0, 65, 63
1, 3881, Control_c, 0, 64, 60
1, 3911, Control_c, 0, 64, 60
1, 3913, Note_off_c, 0, 64, 63
1, 3934, Control_c, 0, 64, 59
1, 3948, Control_c, 0, 64, 59
1, 3960, Note_on_c, 0, 62, 36
1, 3984, Note_on_c, 0, 60, 52
1, 3991, Note_off_c, 0, 62, 54
1, 4005, Note_off_c, 0, 60, 61
1, 4022, Control_c, 0, 64, 58
1, 4037, Control_c, 0, 64, 53
1, 4052, Control_c, 0, 64, 35
1, 4064, Note_on_c, 0, 56, 66
1, 4067, Control_c, 0, 64, 0
1, 4101, Note_off_c, 0, 56, 62
1, 4110, Note_on_c, 0, 58, 61
1, 4126, Control_c, 0, 64, 26
1, 4141, Control_c, 0, 64, 32
1, 4147, Note_off_c, 0, 58, 65
1, 4157, Control_c, 0, 64, 31
1, 4159, Note_on_c, 0, 59, 61
1, 4171, Control_c, 0, 64, 29
1, 4186, Control_c, 0, 64, 29
1, 4193, Note_off_c, 0, 59, 65
1, 4216, Control_c, 0, 64, 29
1, 4220, Note_on_c, 0, 61, 66
1, 4230, Control_c, 0, 64, 31
1, 4245, Control_c, 0, 64, 33
1, 4246, Note_off_c, 0, 61, 66
1, 4260, Control_c, 0, 64, 35
1, 4275, Control_c, 0, 64, 37
1, 4276, Note_on_c, 0, 63, 63
1, 4289, Control_c, 0, 64, 37
1, 4327, Note_on_c, 0, 61, 54
1, 4331, Note_off_c, 0, 63, 57
1, 4363, Control_c, 0, 64, 37
1, 4379, Note_on_c, 0, 59, 57
1, 4384, Note_off_c, 0, 61, 59
1, 4393, Control_c, 0, 64, 37
1, 4408, Control_c, 0, 64, 40
1, 4416, Note_off_c, 0, 59, 65
1, 4423, Control_c, 0, 64, 45
1, 4431, Note_on_c, 0, 58, 59
1, 4437, Control_c, 0, 64, 51
1, 4452, Control_c, 0, 64, 54
1, 4459, Note_off_c, 0, 58, 66
1, 4467, Control_c, 0, 64, 53
1, 4482, Control_c, 0, 64, 49
1, 4497, Control_c, 0, 64, 37
1, 4503, Note_on_c, 0, 55, 57
1, 4512, Control_c, 0, 64, 0
1, 4540, Note_off_c, 0, 55, 62
1, 4548, Note_on_c, 0, 57, 59
1, 4571, Control_c, 0, 64, 15
1, 4586, Control_c, 0, 64, 31
1, 4593, Note_off_c, 0, 57, 64
1, 4600, Note_on_c, 0, 59, 58
1, 4601, Control_c, 0, 64, 31
1, 4615, Control_c, 0, 64, 29
1, 4628, Note_off_c, 0, 59, 65
1, 4630, Control_c, 0, 64, 28
1, 4645, Control_c, 0, 64, 27
1, 4653, Note_on_c, 0, 60, 46
1, 4686, Note_off_c, 0, 60, 58
1, 4697, Control_c, 0, 64, 28
1, 4712, Control_c, 0, 64, 29
1, 4719, Note_on_c, 0, 62, 63
1, 4727, Control_c, 0, 64, 30
1, 4741, Control_c, 0, 64, 31
1, 4756, Control_c, 0, 64, 31
1, 4758, Note_off_c, 0, 62, 64
1, 4762, Note_on_c, 0, 60, 58
1, 4801, Control_c, 0, 64, 33
1, 4806, Note_off_c, 0, 60, 64
1, 4816, Control_c, 0, 64, 35
1, 4830, Control_c, 0, 64, 38
1, 4831, Note_on_c, 0, 59, 51
1, 4845, Control_c, 0, 64, 42
1, 4856, Note_off_c, 0, 59, 59
1, 4860, Control_c, 0, 64, 46
1, 4865, Note_on_c, 0, 57, 55
1, 4875, Control_c, 0, 64, 49
1, 4888, Note_off_c, 0, 57, 60
1, 4890, Control_c, 0, 64, 49
1, 4904, Control_c, 0, 64, 44
1, 4918, Control_c, 0, 64, 20
1, 4933, Control_c, 0, 64, 0
1, 4948, Note_on_c, 0, 54, 53
1, 4989, Note_on_c, 0, 56, 52
1, 4989, Note_off_c, 0, 54, 63
1, 4993, Control_c, 0, 64, 35
1, 5008, Control_c, 0, 64, 53
1, 5023, Control_c, 0, 64, 56
1, 5033, Note_off_c, 0, 56, 63
1, 5037, Note_on_c, 0, 58, 50
1, 5038, Control_c, 0, 64, 55
1, 5052, Control_c, 0, 64, 54
1, 5067, Control_c, 0, 64, 53
1, 5068, Note_off_c, 0, 58, 65
1, 5080, Note_on_c, 0, 59, 49
1, 5082, Control_c, 0, 64, 51
1, 5097, Control_c, 0, 64, 52
1, 5113, Note_off_c, 0, 59, 64
1, 5126, Control_c, 0, 64, 52
1, 5131, Note_on_c, 0, 61, 58
1, 5186, Control_c, 0, 64, 52
1, 5192, Note_on_c, 0, 59, 62
1, 5200, Note_off_c, 0, 61, 54
1, 5215, Control_c, 0, 64, 51
1, 5230, Control_c, 0, 64, 51
1, 5241, Note_off_c, 0, 59, 59
1, 5277, Note_on_c, 0, 58, 40
1, 5290, Control_c, 0, 64, 51
1, 5297, Note_on_c, 0, 56, 46
1, 5304, Note_off_c, 0, 58, 59
1, 5305, Control_c, 0, 64, 52
1, 5319, Control_c, 0, 64, 53
1, 5326, Note_off_c, 0, 56, 57
1, 5334, Control_c, 0, 64, 53
1, 5349, Control_c, 0, 64, 52
1, 5363, Note_on_c, 0, 53, 46
1, 5363, Control_c, 0, 64, 43
1, 5378, Control_c, 0, 64, 0
1, 5422, Note_off_c, 0, 53, 62
1, 5445, Control_c, 0, 64, 18
1, 5451, Note_on_c, 0, 54, 44
1, 5460, Control_c, 0, 64, 52
1, 5475, Control_c, 0, 64, 62
1, 5489, Note_off_c, 0, 54, 63
1, 5490, Control_c, 0, 64, 65
1, 5499, Note_on_c, 0, 56, 45
1, 5505, Control_c, 0, 64, 67
1, 5519, Control_c, 0, 64, 68
1, 5534, Control_c, 0, 64, 69
1, 5539, Note_off_c, 0, 56, 61
1, 5543, Note_on_c, 0, 58, 50
1, 5549, Control_c, 0, 64, 70
1, 5564, Control_c, 0, 64, 72
1, 5573, Note_off_c, 0, 58, 66
1, 5578, Control_c, 0, 64, 74
1, 5593, Control_c, 0, 64, 75
1, 5608, Control_c, 0, 64, 77
1, 5612, Note_on_c, 0, 59, 41
1, 5623, Control_c, 0, 64, 78
1, 5638, Control_c, 0, 64, 80
1, 5638, Control_c, 0, 67, 125
1, 5642, Note_off_c, 0, 59, 54
1, 5652, Control_c, 0, 64, 82
1, 5652, Control_c, 0, 67, 121
1, 5667, Control_c, 0, 64, 83
1, 5667, Control_c, 0, 67, 117
1, 5669, Note_on_c, 0, 61, 44
1, 5682, Control_c, 0, 64, 83
1, 5682, Control_c, 0, 67, 112
1, 5692, Note_on_c, 0, 63, 60
1, 5697, Control_c, 0, 67, 105
1, 5699, Note_off_c, 0, 61, 54
1, 5712, Control_c, 0, 67, 96
1, 5725, Note_off_c, 0, 63, 67
1, 5726, Control_c, 0, 67, 85
1, 5738, Note_on_c, 0, 65, 56
1, 5742, Control_c, 0, 67, 73
1, 5757, Control_c, 0, 67, 57
1, 5761, Note_off_c, 0, 65, 61
1, 5772, Control_c, 0, 67, 42
1, 5787, Control_c, 0, 67, 30
1, 5798, Note_on_c, 0, 68, 57
1, 5801, Control_c, 0, 67, 31
1, 5816, Control_c, 0, 67, 25
1, 5831, Control_c, 0, 67, 20
1, 5842, Note_off_c, 0, 68, 63
1, 5846, Control_c, 0, 67, 17
1, 5854, Note_on_c, 0, 70, 57
1, 5861, Control_c, 0, 67, 15
1, 5875, Control_c, 0, 67, 12
1, 5890, Note_off_c, 0, 70, 64
1, 5890, Control_c, 0, 67, 8
1, 5903, Note_on_c, 0, 71, 57
1, 5905, Control_c, 0, 67, 0
1, 5924, Note_on_c, 0, 73, 71
1, 5924, Note_off_c, 0, 71, 63
1, 5940, Note_off_c, 0, 73, 67
1, 5969, Note_on_c, 0, 75, 60
1, 6004, Note_off_c, 0, 75, 63
1, 6019, Note_on_c, 0, 77, 66
1, 6058, Note_on_c, 0, 78, 70
1, 6074, Note_off_c, 0, 77, 62
1, 6097, Note_on_c, 0, 80, 70
1, 6122, Note_off_c, 0, 78, 63
1, 6128, Control_c, 0, 64, 84
1, 6142, Control_c, 0, 64, 81
1, 6151, Note_off_c, 0, 80, 62
1, 6157, Control_c, 0, 64, 69
1, 6161, Note_on_c, 0, 83, 72
1, 6179, Control_c, 0, 64, 37
1, 6193, Control_c, 0, 64, 0
1, 6193, Control_c, 0, 67, 8
1, 6205, Note_off_c, 0, 83, 64
1, 6208, Control_c, 0, 67, 11
1, 6221, Note_on_c, 0, 81, 58
1, 6223, Control_c, 0, 64, 33
1, 6223, Control_c, 0, 67, 16
1, 6238, Control_c, 0, 64, 55
1, 6238, Control_c, 0, 67, 23
1, 6253, Control_c, 0, 64, 65
1, 6253, Control_c, 0, 67, 33
1, 6268, Control_c, 0, 64, 71
1, 6268, Control_c, 0, 67, 44
1, 6280, Note_on_c, 0, 80, 59
1, 6283, Control_c, 0, 64, 75
1, 6283, Control_c, 0, 67, 55
1, 6283, Note_off_c, 0, 81, 66
1, 6297, Control_c, 0, 64, 76
1, 6297, Control_c, 0, 67, 69
1, 6312, Control_c, 0, 67, 82
1, 6320, Note_off_c, 0, 80, 63
1, 6327, Control_c, 0, 67, 95
1, 6339, Note_on_c, 0, 78, 42
1, 6342, Control_c, 0, 67, 104
1, 6345, Note_on_c, 0, 76, 60
1, 6357, Control_c, 0, 67, 111
1, 6367, Note_off_c, 0, 78, 57
1, 6372, Control_c, 0, 67, 116
1, 6386, Control_c, 0, 67, 123
1, 6401, Control_c, 0, 67, 127
1, 6402, Note_off_c, 0, 76, 62
1, 6410, Note_on_c, 0, 75, 63
1, 6446, Control_c, 0, 64, 76
1, 6449, Note_off_c, 0, 75, 62
1, 6461, Note_on_c, 0, 73, 54
1, 6490, Control_c, 0, 64, 75
1, 6497, Note_on_c, 0, 71, 59
1, 6505, Control_c, 0, 64, 75
1, 6515, Note_off_c, 0, 73, 60
1, 6516, Note_off_c, 0, 71, 64
1, 6519, Control_c, 0, 64, 74
1, 6534, Control_c, 0, 64, 74
1, 6551, Control_c, 0, 64, 73
1, 6558, Note_on_c, 0, 69, 57
1, 6565, Control_c, 0, 64, 72
1, 6580, Control_c, 0, 64, 71
1, 6594, Note_off_c, 0, 69, 65
1, 6595, Control_c, 0, 64, 70
1, 6610, Control_c, 0, 64, 69
1, 6610, Note_on_c, 0, 68, 57
1, 6624, Control_c, 0, 64, 68
1, 6639, Control_c, 0, 64, 67
1, 6650, Note_off_c, 0, 68, 64
1, 6654, Control_c, 0, 64, 66
1, 6669, Control_c, 0, 64, 65
1, 6682, Note_on_c, 0, 66, 32
1, 6684, Control_c, 0, 64, 64
1, 6698, Control_c, 0, 64, 64
1, 6713, Control_c, 0, 64, 63
1, 6715, Note_off_c, 0, 66, 54
1, 6719, Note_on_c, 0, 64, 52
1, 6728, Control_c, 0, 64, 63
1, 6743, Control_c, 0, 64, 62
1, 6757, Note_off_c, 0, 64, 65
1, 6758, Control_c, 0, 64, 62
1, 6763, Note_on_c, 0, 61, 57
1, 6772, Control_c, 0, 64, 61
1, 6787, Control_c, 0, 64, 60
1, 6802, Control_c, 0, 64, 59
1, 6816, Control_c, 0, 64, 58
1, 6819, Note_off_c, 0, 61, 58
1, 6825, Note_on_c, 0, 59, 64
1, 6831, Control_c, 0, 64, 57
1, 6874, Note_off_c, 0, 59, 56
1, 6880, Note_on_c, 0, 58, 66
1, 6906, Note_off_c, 0, 58, 66
1, 6924, Note_on_c, 0, 56, 58
1, 6928, Control_c, 0, 64, 55
1, 6942, Control_c, 0, 64, 50
1, 6947, Note_off_c, 0, 56, 62
1, 6957, Control_c, 0, 64, 35
1, 6972, Control_c, 0, 64, 0
1, 6989, Note_on_c, 0, 53, 65
1, 7026, Note_off_c, 0, 53, 65
1, 7043, Note_on_c, 0, 54, 56
1, 7081, Note_off_c, 0, 54, 64
1, 7084, Note_on_c, 0, 56, 59
1, 7127, Note_off_c, 0, 56, 64
1, 7140, Note_on_c, 0, 58, 65
1, 7165, Note_off_c, 0, 58, 67
1, 7207, Note_on_c, 0, 60, 59
1, 7243, Note_off_c, 0, 60, 65
1, 7253, Note_on_c, 0, 59, 64
1, 7286, Note_off_c, 0, 59, 65
1, 7312, Note_on_c, 0, 57, 42
1, 7341, Note_on_c, 0, 55, 55
1, 7344, Note_off_c, 0, 57, 53
1, 7371, Note_off_c, 0, 55, 62
1, 7415, Note_on_c, 0, 56, 48
1, 7455, Note_off_c, 0, 56, 63
1, 7457, Note_on_c, 0, 58, 52
1, 7498, Note_off_c, 0, 58, 62
1, 7499, Note_on_c, 0, 59, 55
1, 7506, Control_c, 0, 64, 9
1, 7520, Control_c, 0, 64, 26
1, 7535, Control_c, 0, 64, 35
1, 7546, Note_off_c, 0, 59, 58
1, 7550, Control_c, 0, 64, 39
1, 7553, Note_on_c, 0, 61, 51
1, 7593, Note_off_c, 0, 61, 64
1, 7594, Control_c, 0, 64, 38
1, 7613, Note_on_c, 0, 62, 55
1, 7664, Note_off_c, 0, 62, 63
1, 7684, Note_on_c, 0, 60, 45
1, 7691, Control_c, 0, 64, 38
1, 7715, Note_off_c, 0, 60, 62
1, 7730, Note_on_c, 0, 59, 46
1, 7735, Control_c, 0, 64, 37
1, 7750, Control_c, 0, 64, 38
1, 7764, Note_off_c, 0, 59, 65
1, 7764, Control_c, 0, 64, 38
1, 7779, Control_c, 0, 64, 39
1, 7794, Control_c, 0, 64, 40
1, 7797, Note_on_c, 0, 57, 35
1, 7809, Control_c, 0, 64, 41
1, 7830, Note_off_c, 0, 57, 52
1, 7835, Note_on_c, 0, 53, 50
1, 7839, Control_c, 0, 64, 37
1, 7854, Control_c, 0, 64, 24
1, 7868, Control_c, 0, 64, 0
1, 7874, Note_off_c, 0, 53, 64
1, 7897, Note_on_c, 0, 54, 51
1, 7931, Note_off_c, 0, 54, 63
1, 7934, Note_on_c, 0, 56, 57
1, 7972, Control_c, 0, 64, 29
1, 7976, Note_off_c, 0, 56, 64
1, 7985, Note_on_c, 0, 58, 54
1, 7987, Control_c, 0, 64, 37
1, 8002, Control_c, 0, 64, 39
1, 8009, Note_off_c, 0, 58, 63
1, 8036, Note_on_c, 0, 60, 56
1, 8046, Control_c, 0, 64, 40
1, 8077, Note_off_c, 0, 60, 63
1, 8091, Note_on_c, 0, 59, 52
1, 8120, Control_c, 0, 64, 39
1, 8127, Note_off_c, 0, 59, 64
1, 8136, Control_c, 0, 64, 39
1, 8143, Note_on_c, 0, 57, 46
1, 8174, Note_off_c, 0, 57, 62
1, 8193, Note_on_c, 0, 55, 50
1, 8195, Control_c, 0, 64, 39
1, 8210, Control_c, 0, 64, 40
1, 8229, Note_off_c, 0, 55, 63
1, 8240, Control_c, 0, 64, 39
1, 8253, Note_on_c, 0, 56, 62
1, 8255, Control_c, 0, 64, 31
1, 8269, Control_c, 0, 64, 0
1, 8295, Note_off_c, 0, 56, 60
1, 8329, Note_on_c, 0, 58, 38
1, 8357, Note_on_c, 0, 59, 61
1, 8358, Note_off_c, 0, 58, 59
1, 8413, Note_off_c, 0, 59, 62
1, 8424, Note_on_c, 0, 61, 46
1, 8455, Note_off_c, 0, 61, 57
1, 8455, Control_c, 0, 64, 17
1, 8460, Note_on_c, 0, 62, 53
1, 8469, Control_c, 0, 64, 40
1, 8484, Control_c, 0, 64, 52
1, 8499, Control_c, 0, 64, 57
1, 8502, Note_off_c, 0, 62, 64
1, 8509, Note_on_c, 0, 60, 54
1, 8514, Control_c, 0, 64, 58
1, 8529, Control_c, 0, 64, 59
1, 8543, Control_c, 0, 64, 58
1, 8548, Note_off_c, 0, 60, 66
1, 8558, Control_c, 0, 64, 57
1, 8569, Note_on_c, 0, 59, 45
1, 8573, Control_c, 0, 64, 56
1, 8587, Control_c, 0, 64, 55
1, 8596, Note_off_c, 0, 59, 58
1, 8618, Note_on_c, 0, 57, 48
1, 8644, Note_off_c, 0, 57, 57
1, 8647, Control_c, 0, 64, 56
1, 8661, Control_c, 0, 64, 55
1, 8676, Control_c, 0, 64, 50
1, 8682, Note_on_c, 0, 61, 52
1, 8691, Control_c, 0, 64, 30
1, 8706, Control_c, 0, 64, 0
1, 8730, Note_off_c, 0, 61, 59
1, 8738, Note_on_c, 0, 63, 49
1, 8784, Note_on_c, 0, 65, 55
1, 8791, Note_off_c, 0, 63, 54
1, 8810, Control_c, 0, 64, 43
1, 8825, Control_c, 0, 64, 55
1, 8828, Note_off_c, 0, 65, 62
1, 8840, Control_c, 0, 64, 60
1, 8846, Note_on_c, 0, 66, 40
1, 8855, Control_c, 0, 64, 62
1, 8869, Control_c, 0, 64, 64
1, 8873, Note_off_c, 0, 66, 53
1, 8879, Note_on_c, 0, 67, 52
1, 8884, Control_c, 0, 64, 66
1, 8899, Control_c, 0, 64, 67
1, 8913, Control_c, 0, 64, 67
1, 8916, Note_off_c, 0, 67, 64
1, 8936, Note_on_c, 0, 65, 55
1, 8968, Note_off_c, 0, 65, 62
1, 8974, Control_c, 0, 64, 67
1, 8982, Note_on_c, 0, 64, 46
1, 9003, Control_c, 0, 64, 66
1, 9010, Note_off_c, 0, 64, 59
1, 9033, Control_c, 0, 64, 66
1, 9043, Note_on_c, 0, 62, 40
1, 9063, Control_c, 0, 64, 65
1, 9074, Note_off_c, 0, 62, 55
1, 9098, Note_on_c, 0, 73, 58
1, 9137, Control_c, 0, 64, 62
1, 9137, Control_c, 0, 67, 123
1, 9152, Control_c, 0, 64, 50
1, 9152, Control_c, 0, 67, 115
1, 9165, Note_on_c, 0, 75, 49
1, 9171, Note_off_c, 0, 73, 50
1, 9174, Control_c, 0, 64, 0
1, 9174, Control_c, 0, 67, 106
1, 9189, Control_c, 0, 67, 92
1, 9204, Note_on_c, 0, 77, 58
1, 9204, Control_c, 0, 67, 80
1, 9218, Control_c, 0, 64, 39
1, 9218, Control_c, 0, 67, 68
1, 9229, Note_off_c, 0, 75, 50
1, 9233, Control_c, 0, 64, 56
1, 9233, Control_c, 0, 67, 59
1, 9248, Control_c, 0, 64, 62
1, 9248, Control_c, 0, 67, 52
1, 9263, Control_c, 0, 64, 65
1, 9263, Control_c, 0, 67, 45
1, 9264, Note_off_c, 0, 77, 63
1, 9275, Note_on_c, 0, 78, 42
1, 9278, Control_c, 0, 64, 67
1, 9278, Control_c, 0, 67, 40
1, 9292, Control_c, 0, 64, 68
1, 9292, Control_c, 0, 67, 33
1, 9302, Note_off_c, 0, 78, 56
1, 9307, Control_c, 0, 67, 28
1, 9308, Note_on_c, 0, 79, 58
1, 9322, Control_c, 0, 67, 25
1, 9336, Control_c, 0, 67, 21
1, 9351, Note_off_c, 0, 79, 61
1, 9351, Control_c, 0, 67, 18
1, 9366, Control_c, 0, 67, 16
1, 9377, Note_on_c, 0, 77, 46
1, 9381, Control_c, 0, 67, 13
1, 9396, Control_c, 0, 67, 11
1, 9405, Note_off_c, 0, 77, 58
1, 9411, Control_c, 0, 64, 68
1, 9411, Control_c, 0, 67, 8
1, 9415, Note_on_c, 0, 76, 52
1, 9426, Control_c, 0, 67, 0
1, 9442, Note_off_c, 0, 76, 58
1, 9460, Note_on_c, 0, 74, 45
1, 9471, Control_c, 0, 64, 68
1, 9486, Control_c, 0, 64, 69
1, 9497, Note_off_c, 0, 74, 62
1, 9500, Control_c, 0, 64, 67
1, 9515, Control_c, 0, 64, 62
1, 9517, Note_on_c, 0, 85, 54
1, 9530, Control_c, 0, 64, 48
1, 9544, Control_c, 0, 64, 30
1, 9556, Note_off_c, 0, 85, 61
1, 9559, Control_c, 0, 64, 43
1, 9574, Control_c, 0, 64, 54
1, 9579, Note_on_c, 0, 83, 52
1, 9589, Control_c, 0, 64, 60
1, 9604, Control_c, 0, 64, 64
1, 9618, Control_c, 0, 64, 68
1, 9621, Note_off_c, 0, 83, 63
1, 9630, Note_on_c, 0, 82, 60
1, 9633, Control_c, 0, 64, 70
1, 9648, Control_c, 0, 64, 71
1, 9684, Note_off_c, 0, 82, 60
1, 9693, Control_c, 0, 64, 71
1, 9704, Note_on_c, 0, 80, 51
1, 9708, Control_c, 0, 64, 72
1, 9715, Note_on_c, 0, 79, 55
1, 9723, Control_c, 0, 64, 74
1, 9731, Note_off_c, 0, 80, 65
1, 9738, Control_c, 0, 64, 77
1, 9753, Control_c, 0, 64, 78
1, 9773, Note_off_c, 0, 79, 53
1, 9776, Note_on_c, 0, 77, 56
1, 9815, Note_off_c, 0, 77, 65
1, 9826, Note_on_c, 0, 76, 53
1, 9859, Note_off_c, 0, 76, 61
1, 9873, Note_on_c, 0, 74, 44
1, 9898, Note_off_c, 0, 74, 61
1, 9920, Note_on_c, 0, 73, 62
1, 9923, Control_c, 0, 64, 76
1, 9938, Control_c, 0, 64, 74
1, 9953, Control_c, 0, 64, 74
1, 9954, Note_off_c, 0, 73, 64
1, 9967, Control_c, 0, 64, 74
1, 9982, Control_c, 0, 64, 76
1, 9982, Control_c, 0, 67, 10
1, 9983, Note_on_c, 0, 71, 58
1, 9997, Control_c, 0, 64, 78
1, 9997, Control_c, 0, 67, 15
1, 10012, Control_c, 0, 64, 79
1, 10012, Control_c, 0, 67, 22
1, 10021, Note_off_c, 0, 71, 64
1, 10027, Control_c, 0, 67, 34
1, 10036, Note_on_c, 0, 70, 60
1, 10042, Control_c, 0, 64, 78
1, 10042, Control_c, 0, 67, 49
1, 10056, Control_c, 0, 67, 65
1, 10071, Control_c, 0, 67, 79
1, 10075, Note_off_c, 0, 70, 62
1, 10086, Note_on_c, 0, 68, 59
1, 10086, Control_c, 0, 67, 93
1, 10101, Control_c, 0, 64, 79
1, 10101, Control_c, 0, 67, 111
1, 10116, Control_c, 0, 67, 127
1, 10117, Note_off_c, 0, 68, 67
1, 10130, Note_on_c, 0, 67, 60
1, 10173, Note_off_c, 0, 67, 63
1, 10175, Note_on_c, 0, 65, 65
1, 10212, Note_off_c, 0, 65, 64
1, 10220, Control_c, 0, 64, 79
1, 10234, Control_c, 0, 64, 78
1, 10235, Note_on_c, 0, 64, 57
1, 10249, Control_c, 0, 64, 78
1, 10257, Note_off_c, 0, 64, 63
1, 10274, Note_on_c, 0, 62, 53
1, 10279, Control_c, 0, 64, 77
1, 10301, Note_off_c, 0, 62, 59
1, 10323, Control_c, 0, 64, 77
1, 10334, Note_on_c, 0, 61, 60
1, 10338, Control_c, 0, 64, 71
1, 10353, Control_c, 0, 64, 58
1, 10367, Control_c, 0, 64, 0
1, 10405, Note_off_c, 0, 61, 60
1, 10408, Note_on_c, 0, 63, 55
1, 10427, Control_c, 0, 64, 49
1, 10441, Control_c, 0, 64, 60
1, 10450, Note_off_c, 0, 63, 63
1, 10456, Control_c, 0, 64, 64
1, 10471, Control_c, 0, 64, 67
1, 10476, Note_on_c, 0, 65, 54
1, 10486, Control_c, 0, 64, 69
1, 10501, Control_c, 0, 64, 70
1, 10510, Note_off_c, 0, 65, 63
1, 10511, Note_on_c, 0, 66, 57
1, 10531, Control_c, 0, 64, 70
1, 10532, Poly_aftertouch_c, 0, 64, 127
1, 10540, Note_off_c, 0, 66, 65
1, 10546, Control_c, 0, 64, 71
1, 10553, Note_on_c, 0, 67, 55
1, 10553, Poly_aftertouch_c, 0, 64, 0
1, 10561, Control_c, 0, 64, 72
1, 10576, Control_c, 0, 64, 73
1, 10581, Note_off_c, 0, 67, 63
1, 10590, Control_c, 0, 64, 73
1, 10600, Note_on_c, 0, 69, 66
1, 10605, Control_c, 0, 64, 74
1, 10605, Control_c, 0, 67, 121
1, 10620, Control_c, 0, 64, 75
1, 10620, Control_c, 0, 67, 111
1, 10635, Control_c, 0, 64, 75
1, 10635, Control_c, 0, 67, 91
1, 10650, Control_c, 0, 67, 63
1, 10653, Note_off_c, 0, 69, 62
1, 10654, Note_on_c, 0, 71, 66
1, 10672, Control_c, 0, 67, 30
1, 10687, Control_c, 0, 67, 0
1, 10702, Control_c, 0, 64, 76
1, 10704, Note_off_c, 0, 71, 67
1, 10707, Note_on_c, 0, 72, 63
1, 10717, Control_c, 0, 64, 76
1, 10727, Note_off_c, 0, 72, 62
1, 10732, Control_c, 0, 64, 79
1, 10741, Note_on_c, 0, 73, 71
1, 10746, Control_c, 0, 64, 81
1, 10776, Control_c, 0, 64, 76
1, 10790, Control_c, 0, 64, 67
1, 10797, Note_on_c, 0, 75, 63
1, 10805, Control_c, 0, 64, 58
1, 10812, Note_off_c, 0, 73, 62
1, 10820, Control_c, 0, 64, 61
1, 10835, Control_c, 0, 64, 67
1, 10846, Note_on_c, 0, 77, 72
1, 10850, Control_c, 0, 64, 76
1, 10864, Control_c, 0, 64, 90
1, 10876, Note_off_c, 0, 75, 58
1, 10879, Control_c, 0, 64, 103
1, 10894, Control_c, 0, 64, 105
1, 10900, Note_off_c, 0, 77, 62
1, 10902, Note_on_c, 0, 78, 69
1, 10928, Note_off_c, 0, 78, 67
1, 10931, Note_on_c, 0, 79, 70
1, 10964, Note_off_c, 0, 79, 57
1, 10986, Note_on_c, 0, 81, 71
1, 11031, Note_on_c, 0, 83, 67
1, 11032, Note_off_c, 0, 81, 62
1, 11064, Note_on_c, 0, 84, 72
1, 11091, Note_off_c, 0, 83, 61
1, 11101, Control_c, 0, 64, 106
1, 11103, Note_off_c, 0, 84, 63
1, 11115, Control_c, 0, 64, 109
1, 11130, Control_c, 0, 64, 113
1, 11132, Note_on_c, 0, 87, 74
1, 11145, Control_c, 0, 64, 110
1, 11160, Control_c, 0, 64, 87
1, 11175, Control_c, 0, 64, 68
1, 11184, Note_on_c, 0, 85, 69
1, 11189, Note_off_c, 0, 87, 61
1, 11189, Control_c, 0, 64, 58
1, 11204, Control_c, 0, 64, 63
1, 11219, Control_c, 0, 64, 70
1, 11234, Control_c, 0, 64, 83
1, 11244, Note_off_c, 0, 85, 63
1, 11247, Note_on_c, 0, 83, 62
1, 11249, Control_c, 0, 64, 109
1, 11264, Control_c, 0, 64, 127
1, 11279, Control_c, 0, 64, 114
1, 11293, Control_c, 0, 64, 86
1, 11308, Note_on_c, 0, 82, 66
1, 11308, Control_c, 0, 64, 70
1, 11309, Note_off_c, 0, 83, 63
1, 11323, Control_c, 0, 64, 65
1, 11337, Note_off_c, 0, 82, 68
1, 11339, Control_c, 0, 64, 72
1, 11347, Note_on_c, 0, 80, 57
1, 11353, Control_c, 0, 64, 90
1, 11368, Control_c, 0, 64, 127
1, 11387, Note_on_c, 0, 78, 74
1, 11397, Note_off_c, 0, 80, 63
1, 11439, Note_off_c, 0, 78, 61
1, 11457, Note_on_c, 0, 77, 70
1, 11490, Note_off_c, 0, 77, 64
1, 11502, Note_on_c, 0, 75, 61
1, 11526, Note_off_c, 0, 75, 66
1, 11541, Note_on_c, 0, 73, 67
1, 11554, Control_c, 0, 64, 94
1, 11568, Control_c, 0, 64, 80
1, 11573, Note_off_c, 0, 73, 63
1, 11583, Control_c, 0, 64, 78
1, 11598, Control_c, 0, 64, 83
1, 11609, Note_on_c, 0, 71, 64
1, 11612, Control_c, 0, 64, 94
1, 11627, Control_c, 0, 64, 110
1, 11627, Control_c, 0, 67, 8
1, 11642, Control_c, 0, 64, 110
1, 11642, Control_c, 0, 67, 13
1, 11644, Note_off_c, 0, 71, 63
1, 11647, Note_on_c, 0, 70, 63
1, 11657, Control_c, 0, 64, 93
1, 11657, Control_c, 0, 67, 20
1, 11672, Control_c, 0, 64, 81
1, 11672, Control_c, 0, 67, 29
1, 11687, Control_c, 0, 64, 77
1, 11687, Control_c, 0, 67, 43
1, 11702, Control_c, 0, 64, 79
1, 11702, Control_c, 0, 67, 60
1, 11708, Note_on_c, 0, 68, 64
1, 11708, Note_off_c, 0, 70, 63
1, 11717, Control_c, 0, 64, 87
1, 11717, Control_c, 0, 67, 82
1, 11731, Control_c, 0, 64, 99
1, 11731, Control_c, 0, 67, 104
1, 11735, Note_off_c, 0, 68, 68
1, 11746, Control_c, 0, 64, 127
1, 11746, Control_c, 0, 67, 122
1, 11750, Note_on_c, 0, 66, 66
1, 11761, Control_c, 0, 67, 127
1, 11803, Note_on_c, 0, 65, 66
1, 11820, Control_c, 0, 64, 123
1, 11835, Note_off_c, 0, 66, 51
1, 11835, Control_c, 0, 64, 117
1, 11850, Control_c, 0, 64, 112
1, 11865, Control_c, 0, 64, 105
1, 11874, Note_on_c, 0, 63, 68
1, 11875, Note_off_c, 0, 65, 59
1, 11880, Control_c, 0, 64, 99
1, 11894, Control_c, 0, 64, 95
1, 11905, Note_off_c, 0, 63, 65
1, 11909, Control_c, 0, 64, 92
1, 11923, Control_c, 0, 64, 89
1, 11928, Note_on_c, 0, 61, 51
1, 11938, Control_c, 0, 64, 87
1, 11953, Control_c, 0, 64, 82
1, 11955, Note_off_c, 0, 61, 57
1, 11968, Control_c, 0, 64, 71
1, 11983, Control_c, 0, 64, 54
1, 11998, Control_c, 0, 64, 0
1, 12003, Note_on_c, 0, 58, 60
1, 12046, Note_off_c, 0, 58, 61
1, 12068, Note_on_c, 0, 60, 56
1, 12113, Note_off_c, 0, 60, 64
1, 12114, Note_on_c, 0, 62, 62
1, 12161, Note_off_c, 0, 62, 64
1, 12169, Control_c, 0, 64, 28
1, 12179, Note_on_c, 0, 63, 59
1, 12184, Control_c, 0, 64, 42
1, 12199, Control_c, 0, 64, 51
1, 12201, Note_off_c, 0, 63, 62
1, 12211, Note_on_c, 0, 67, 60
1, 12214, Control_c, 0, 64, 56
1, 12229, Control_c, 0, 64, 59
1, 12243, Control_c, 0, 64, 60
1, 12247, Note_off_c, 0, 67, 64
1, 12258, Control_c, 0, 64, 60
1, 12259, Note_on_c, 0, 65, 62
1, 12295, Note_off_c, 0, 65, 64
1, 12303, Note_on_c, 0, 63, 50
1, 12303, Control_c, 0, 64, 60
1, 12317, Control_c, 0, 64, 59
1, 12335, Note_off_c, 0, 63, 65
1, 12347, Note_on_c, 0, 62, 67
1, 12361, Control_c, 0, 64, 60
1, 12375, Note_off_c, 0, 62, 66
1, 12376, Control_c, 0, 64, 61
1, 12391, Control_c, 0, 64, 61
1, 12407, Control_c, 0, 64, 60
1, 12422, Control_c, 0, 64, 53
1, 12424, Note_on_c, 0, 65, 52
1, 12436, Control_c, 0, 64, 27
1, 12451, Control_c, 0, 64, 0
1, 12459, Note_on_c, 0, 67, 67
1, 12459, Note_off_c, 0, 65, 64
1, 12493, Note_off_c, 0, 67, 64
1, 12507, Note_on_c, 0, 68, 65
1, 12546, Note_off_c, 0, 68, 65
1, 12560, Note_on_c, 0, 70, 67
1, 12569, Control_c, 0, 64, 26
1, 12584, Control_c, 0, 64, 47
1, 12588, Note_off_c, 0, 70, 66
1, 12599, Control_c, 0, 64, 57
1, 12614, Control_c, 0, 64, 60
1, 12619, Note_on_c, 0, 74, 59
1, 12629, Control_c, 0, 64, 61
1, 12651, Note_off_c, 0, 74, 65
1, 12663, Note_on_c, 0, 72, 66
1, 12689, Control_c, 0, 64, 60
1, 12703, Control_c, 0, 64, 60
1, 12707, Note_off_c, 0, 72, 64
1, 12726, Note_on_c, 0, 70, 60
1, 12757, Note_off_c, 0, 70, 65
1, 12762, Control_c, 0, 64, 60
1, 12770, Note_on_c, 0, 68, 63
1, 12792, Note_off_c, 0, 68, 65
1, 12792, Control_c, 0, 64, 60
1, 12807, Control_c, 0, 64, 58
1, 12821, Control_c, 0, 64, 50
1, 12834, Note_on_c, 0, 70, 59
1, 12836, Control_c, 0, 64, 15
1, 12851, Control_c, 0, 64, 0
1, 12871, Note_off_c, 0, 70, 60
1, 12880, Note_on_c, 0, 72, 65
1, 12918, Control_c, 0, 64, 15
1, 12933, Control_c, 0, 64, 46
1, 12942, Note_off_c, 0, 72, 62
1, 12948, Control_c, 0, 64, 56
1, 12951, Note_on_c, 0, 74, 60
1, 12963, Control_c, 0, 64, 58
1, 12978, Control_c, 0, 64, 58
1, 12980, Note_off_c, 0, 74, 68
1, 12993, Control_c, 0, 64, 59
1, 13004, Note_on_c, 0, 75, 49
1, 13008, Control_c, 0, 64, 59
1, 13022, Control_c, 0, 64, 60
1, 13028, Note_off_c, 0, 75, 58
1, 13031, Note_on_c, 0, 79, 61
1, 13037, Control_c, 0, 64, 60
1, 13067, Control_c, 0, 64, 61
1, 13072, Note_off_c, 0, 79, 58
1, 13084, Note_on_c, 0, 77, 59
1, 13127, Control_c, 0, 64, 60
1, 13129, Note_on_c, 0, 75, 51
1, 13130, Note_off_c, 0, 77, 62
1, 13141, Control_c, 0, 64, 60
1, 13167, Note_off_c, 0, 75, 64
1, 13182, Note_on_c, 0, 74, 55
1, 13185, Control_c, 0, 64, 60
1, 13203, Note_off_c, 0, 74, 64
1, 13230, Control_c, 0, 64, 58
1, 13239, Note_on_c, 0, 77, 52
1, 13245, Control_c, 0, 64, 51
1, 13259, Control_c, 0, 64, 0
1, 13273, Note_off_c, 0, 77, 61
1, 13288, Note_on_c, 0, 79, 58
1, 13320, Note_off_c, 0, 79, 63
1, 13338, Note_on_c, 0, 80, 57
1, 13348, Control_c, 0, 64, 46
1, 13363, Control_c, 0, 64, 59
1, 13377, Note_off_c, 0, 80, 62
1, 13377, Control_c, 0, 64, 62
1, 13392, Note_on_c, 0, 82, 61
1, 13392, Control_c, 0, 64, 64
1, 13407, Control_c, 0, 64, 65
1, 13413, Note_off_c, 0, 82, 63
1, 13422, Control_c, 0, 64, 67
1, 13437, Control_c, 0, 64, 68
1, 13452, Note_on_c, 0, 86, 54
1, 13452, Control_c, 0, 64, 69
1, 13467, Control_c, 0, 64, 69
1, 13481, Control_c, 0, 64, 70
1, 13492, Note_on_c, 0, 84, 58
1, 13496, Control_c, 0, 64, 70
1, 13499, Note_off_c, 0, 86, 60
1, 13511, Control_c, 0, 64, 71
1, 13552, Note_off_c, 0, 84, 62
1, 13565, Note_on_c, 0, 82, 46
1, 13607, Note_off_c, 0, 82, 64
1, 13616, Note_on_c, 0, 80, 50
1, 13639, Note_off_c, 0, 80, 60
1, 13681, Control_c, 0, 64, 70
1, 13696, Control_c, 0, 64, 65
1, 13708, Note_on_c, 0, 87, 55
1, 13711, Control_c, 0, 64, 52
1, 13727, Control_c, 0, 64, 0
1, 13742, Control_c, 0, 64, 36
1, 13749, Note_off_c, 0, 87, 64
1, 13756, Control_c, 0, 64, 55
1, 13770, Note_on_c, 0, 89, 54
1, 13771, Control_c, 0, 64, 64
1, 13786, Control_c, 0, 64, 71
1, 13800, Note_off_c, 0, 89, 52
1, 13801, Control_c, 0, 64, 78
1, 13815, Control_c, 0, 64, 80
1, 13824, Note_on_c, 0, 87, 69
1, 13861, Note_off_c, 0, 87, 57
1, 13878, Note_on_c, 0, 89, 62
1, 13895, Note_off_c, 0, 89, 62
1, 13908, Note_on_c, 0, 80, 57
1, 13943, Note_off_c, 0, 80, 65
1, 13949, Control_c, 0, 64, 80
1, 13955, Note_on_c, 0, 82, 70
1, 13992, Note_off_c, 0, 82, 61
1, 14015, Note_on_c, 0, 80, 72
1, 14038, Control_c, 0, 64, 79
1, 14045, Note_off_c, 0, 80, 62
1, 14053, Control_c, 0, 64, 74
1, 14062, Note_on_c, 0, 82, 71
1, 14068, Control_c, 0, 64, 65
1, 14082, Control_c, 0, 64, 56
1, 14087, Note_off_c, 0, 82, 66
1, 14106, Note_on_c, 0, 75, 60
1, 14112, Control_c, 0, 64, 61
1, 14126, Control_c, 0, 64, 65
1, 14141, Control_c, 0, 64, 69
1, 14151, Note_off_c, 0, 75, 62
1, 14156, Control_c, 0, 64, 72
1, 14161, Note_on_c, 0, 77, 73
1, 14171, Control_c, 0, 64, 73
1, 14195, Note_off_c, 0, 77, 60
1, 14215, Control_c, 0, 64, 74
1, 14222, Note_on_c, 0, 75, 65
1, 14230, Control_c, 0, 64, 77
1, 14245, Control_c, 0, 64, 79
1, 14260, Control_c, 0, 64, 78
1, 14274, Note_off_c, 0, 75, 60
1, 14274, Control_c, 0, 64, 73
1, 14282, Note_on_c, 0, 77, 74
1, 14289, Poly_aftertouch_c, 0, 82, 0
1, 14289, Control_c, 0, 64, 67
1, 14298, Note_off_c, 0, 77, 70
1, 14304, Control_c, 0, 64, 66
1, 14318, Note_on_c, 0, 80, 68
1, 14319, Control_c, 0, 64, 69
1, 14334, Control_c, 0, 64, 73
1, 14349, Control_c, 0, 64, 77
1, 14350, Note_off_c, 0, 80, 59
1, 14364, Control_c, 0, 64, 78
1, 14370, Note_on_c, 0, 82, 71
1, 14379, Control_c, 0, 64, 77
1, 14394, Control_c, 0, 64, 76
1, 14410, Note_off_c, 0, 82, 60
1, 14415, Control_c, 0, 64, 75
1, 14437, Note_on_c, 0, 80, 70
1, 14460, Control_c, 0, 64, 76
1, 14468, Note_off_c, 0, 80, 61
1, 14475, Control_c, 0, 64, 77
1, 14487, Note_on_c, 0, 82, 70
1, 14489, Control_c, 0, 64, 79
1, 14507, Note_off_c, 0, 82, 67
1, 14519, Control_c, 0, 64, 76
1, 14535, Control_c, 0, 64, 68
1, 14538, Note_on_c, 0, 75, 64
1, 14549, Control_c, 0, 64, 61
1, 14564, Control_c, 0, 64, 62
1, 14568, Note_off_c, 0, 75, 62
1, 14579, Control_c, 0, 64, 66
1, 14593, Note_on_c, 0, 77, 69
1, 14594, Control_c, 0, 64, 72
1, 14609, Control_c, 0, 64, 75
1, 14623, Control_c, 0, 64, 74
1, 14624, Note_off_c, 0, 77, 64
1, 14638, Control_c, 0, 64, 69
1, 14646, Note_on_c, 0, 75, 71
1, 14653, Control_c, 0, 64, 64
1, 14668, Control_c, 0, 64, 64
1, 14677, Note_off_c, 0, 75, 57
1, 14683, Control_c, 0, 64, 68
1, 14698, Control_c, 0, 64, 73
1, 14713, Control_c, 0, 64, 76
1, 14716, Note_on_c, 0, 77, 66
1, 14727, Control_c, 0, 64, 76
1, 14736, Note_off_c, 0, 77, 66
1, 14742, Control_c, 0, 64, 71
1, 14749, Note_on_c, 0, 68, 69
1, 14757, Control_c, 0, 64, 67
1, 14772, Control_c, 0, 64, 65
1, 14778, Note_off_c, 0, 68, 66
1, 14787, Control_c, 0, 64, 68
1, 14802, Control_c, 0, 64, 71
1, 14810, Note_on_c, 0, 70, 57
1, 14817, Control_c, 0, 64, 74
1, 14831, Control_c, 0, 64, 74
1, 14846, Control_c, 0, 64, 74
1, 14847, Note_off_c, 0, 70, 63
1, 14871, Note_on_c, 0, 68, 67
1, 14876, Control_c, 0, 64, 74
1, 14891, Control_c, 0, 64, 76
1, 14898, Note_off_c, 0, 68, 67
1, 14905, Control_c, 0, 64, 79
1, 14920, Control_c, 0, 64, 80
1, 14924, Note_on_c, 0, 70, 59
1, 14935, Control_c, 0, 64, 78
1, 14945, Note_off_c, 0, 70, 60
1, 14949, Control_c, 0, 64, 69
1, 14964, Control_c, 0, 64, 48
1, 14970, Note_on_c, 0, 63, 68
1, 14979, Control_c, 0, 64, 37
1, 14994, Control_c, 0, 64, 52
1, 15008, Note_off_c, 0, 63, 62
1, 15009, Control_c, 0, 64, 61
1, 15023, Control_c, 0, 64, 67
1, 15037, Note_on_c, 0, 65, 62
1, 15038, Control_c, 0, 64, 73
1, 15053, Control_c, 0, 64, 77
1, 15068, Control_c, 0, 64, 78
1, 15071, Note_off_c, 0, 65, 63
1, 15088, Poly_aftertouch_c, 0, 70, 127
1, 15094, Note_on_c, 0, 63, 61
1, 15097, Control_c, 0, 64, 75
1, 15112, Control_c, 0, 64, 68
1, 15127, Control_c, 0, 64, 55
1, 15134, Poly_aftertouch_c, 0, 70, 0
1, 15142, Control_c, 0, 64, 40
1, 15153, Note_on_c, 0, 65, 66
1, 15164, Control_c, 0, 64, 56
1, 15168, Note_off_c, 0, 63, 57
1, 15179, Control_c, 0, 64, 64
1, 15185, Note_off_c, 0, 65, 65
1, 15194, Control_c, 0, 64, 70
1, 15209, Note_on_c, 0, 68, 58
1, 15209, Control_c, 0, 64, 75
1, 15224, Control_c, 0, 64, 77
1, 15243, Note_off_c, 0, 68, 67
1, 15253, Control_c, 0, 64, 76
1, 15258, Note_on_c, 0, 70, 60
1, 15268, Control_c, 0, 64, 76
1, 15297, Note_off_c, 0, 70, 63
1, 15327, Note_on_c, 0, 68, 58
1, 15365, Note_off_c, 0, 68, 65
1, 15373, Control_c, 0, 64, 75
1, 15387, Note_on_c, 0, 70, 60
1, 15402, Control_c, 0, 64, 75
1, 15415, Note_off_c, 0, 70, 63
1, 15458, Note_on_c, 0, 58, 61
1, 15476, Control_c, 0, 64, 72
1, 15491, Control_c, 0, 64, 63
1, 15495, Note_off_c, 0, 58, 63
1, 15506, Control_c, 0, 64, 15
1, 15520, Note_on_c, 0, 60, 58
1, 15520, Control_c, 0, 64, 0
1, 15550, Control_c, 0, 64, 52
1, 15556, Note_off_c, 0, 60, 63
1, 15565, Control_c, 0, 64, 63
1, 15580, Control_c, 0, 64, 70
1, 15581, Note_on_c, 0, 58, 61
1, 15595, Control_c, 0, 64, 77
1, 15610, Control_c, 0, 64, 79
1, 15625, Control_c, 0, 64, 74
1, 15625, Note_on_c, 0, 60, 65
1, 15640, Control_c, 0, 64, 65
1, 15642, Note_off_c, 0, 58, 63
1, 15654, Control_c, 0, 64, 56
1, 15655, Note_off_c, 0, 60, 66
1, 15669, Control_c, 0, 64, 59
1, 15678, Note_on_c, 0, 63, 66
1, 15684, Control_c, 0, 64, 64
1, 15698, Control_c, 0, 64, 69
1, 15713, Control_c, 0, 64, 75
1, 15714, Note_off_c, 0, 63, 63
1, 15728, Control_c, 0, 64, 77
1, 15736, Note_on_c, 0, 68, 65
1, 15771, Note_off_c, 0, 68, 63
1, 15800, Note_on_c, 0, 63, 67
1, 15835, Note_off_c, 0, 63, 64
1, 15846, Control_c, 0, 64, 79
1, 15849, Note_on_c, 0, 68, 66
1, 15861, Control_c, 0, 64, 80
1, 15876, Control_c, 0, 64, 78
1, 15877, Note_off_c, 0, 68, 68
1, 15890, Note_on_c, 0, 75, 72
1, 15891, Control_c, 0, 64, 70
1, 15913, Control_c, 0, 64, 54
1, 15913, Control_c, 0, 67, 126
1, 15928, Control_c, 0, 64, 34
1, 15928, Control_c, 0, 67, 123
1, 15943, Control_c, 0, 64, 53
1, 15943, Control_c, 0, 67, 120
1, 15944, Note_off_c, 0, 75, 58
1, 15958, Control_c, 0, 64, 64
1, 15958, Control_c, 0, 67, 115
1, 15972, Note_on_c, 0, 77, 69
1, 15973, Control_c, 0, 64, 71
1, 15973, Control_c, 0, 67, 108
1, 15987, Control_c, 0, 64, 81
1, 15987, Control_c, 0, 67, 101
1, 16002, Control_c, 0, 64, 85
1, 16002, Control_c, 0, 67, 97
1, 16003, Note_off_c, 0, 77, 64
1, 16017, Control_c, 0, 64, 81
1, 16017, Control_c, 0, 67, 96
1, 16021, Note_on_c, 0, 75, 70
1, 16032, Control_c, 0, 64, 74
1, 16036, Poly_aftertouch_c, 0, 68, 127
1, 16047, Control_c, 0, 64, 67
1, 16047, Control_c, 0, 67, 96
1, 16060, Note_off_c, 0, 75, 52
1, 16060, Poly_aftertouch_c, 0, 68, 0
1, 16061, Control_c, 0, 64, 65
1, 16061, Control_c, 0, 67, 97
1, 16076, Control_c, 0, 64, 68
1, 16076, Control_c, 0, 67, 98
1, 16078, Note_on_c, 0, 77, 70
1, 16091, Control_c, 0, 64, 71
1, 16091, Control_c, 0, 67, 98
1, 16102, Note_off_c, 0, 77, 67
1, 16105, Control_c, 0, 64, 76
1, 16105, Control_c, 0, 67, 99
1, 16120, Control_c, 0, 64, 78
1, 16123, Note_on_c, 0, 63, 59
1, 16151, Control_c, 0, 64, 77
1, 16159, Note_off_c, 0, 63, 64
1, 16164, Note_on_c, 0, 68, 63
1, 16166, Control_c, 0, 64, 76
1, 16181, Control_c, 0, 64, 76
1, 16208, Note_off_c, 0, 68, 59
1, 16240, Note_on_c, 0, 63, 64
1, 16240, Control_c, 0, 67, 99
1, 16255, Control_c, 0, 64, 76
1, 16270, Control_c, 0, 64, 77
1, 16271, Note_off_c, 0, 63, 66
1, 16284, Control_c, 0, 64, 79
1, 16284, Control_c, 0, 67, 100
1, 16299, Note_on_c, 0, 68, 53
1, 16299, Control_c, 0, 64, 80
1, 16314, Control_c, 0, 64, 79
1, 16319, Note_off_c, 0, 68, 65
1, 16328, Control_c, 0, 64, 73
1, 16340, Note_on_c, 0, 58, 66
1, 16343, Control_c, 0, 64, 60
1, 16358, Control_c, 0, 64, 0
1, 16370, Note_off_c, 0, 58, 64
1, 16388, Control_c, 0, 64, 49
1, 16400, Note_on_c, 0, 60, 68
1, 16403, Control_c, 0, 64, 63
1, 16418, Control_c, 0, 64, 70
1, 16432, Note_off_c, 0, 60, 65
1, 16433, Control_c, 0, 64, 77
1, 16447, Control_c, 0, 64, 78
1, 16453, Note_on_c, 0, 58, 62
1, 16462, Control_c, 0, 64, 72
1, 16477, Control_c, 0, 64, 59
1, 16492, Control_c, 0, 64, 19
1, 16507, Control_c, 0, 64, 32
1, 16510, Note_on_c, 0, 60, 69
1, 16512, Note_off_c, 0, 58, 61
1, 16521, Control_c, 0, 64, 52
1, 16534, Note_off_c, 0, 60, 68
1, 16536, Control_c, 0, 64, 61
1, 16551, Control_c, 0, 64, 65
1, 16551, Control_c, 0, 67, 100
1, 16561, Note_on_c, 0, 61, 63
1, 16566, Control_c, 0, 64, 66
1, 16566, Control_c, 0, 67, 101
1, 16581, Control_c, 0, 64, 65
1, 16581, Control_c, 0, 67, 101
1, 16595, Control_c, 0, 64, 65
1, 16598, Note_off_c, 0, 61, 64
1, 16610, Control_c, 0, 67, 102
1, 16611, Note_on_c, 0, 66, 69
1, 16625, Control_c, 0, 67, 102
1, 16662, Control_c, 0, 67, 103
1, 16668, Note_off_c, 0, 66, 60
1, 16686, Note_on_c, 0, 61, 71
1, 16707, Control_c, 0, 67, 103
1, 16721, Note_off_c, 0, 61, 63
1, 16722, Control_c, 0, 64, 66
1, 16736, Control_c, 0, 64, 68
1, 16740, Note_on_c, 0, 66, 64
1, 16751, Control_c, 0, 64, 69
1, 16766, Control_c, 0, 64, 69
1, 16768, Note_off_c, 0, 66, 65
1, 16781, Control_c, 0, 64, 61
1, 16796, Control_c, 0, 64, 14
1, 16804, Note_on_c, 0, 68, 68
1, 16810, Control_c, 0, 64, 0
1, 16840, Control_c, 0, 64, 42
1, 16840, Control_c, 0, 67, 104
1, 16855, Control_c, 0, 64, 60
1, 16856, Note_off_c, 0, 68, 61
1, 16869, Note_on_c, 0, 73, 65
1, 16870, Control_c, 0, 64, 66
1, 16884, Control_c, 0, 64, 69
1, 16884, Control_c, 0, 67, 103
1, 16899, Control_c, 0, 64, 70
1, 16912, Note_off_c, 0, 73, 54
1, 16914, Control_c, 0, 64, 71
1, 16914, Control_c, 0, 67, 104
1, 16939, Note_on_c, 0, 68, 53
1, 16945, Control_c, 0, 64, 70
1, 16945, Control_c, 0, 67, 104
1, 16959, Control_c, 0, 64, 66
1, 16959, Control_c, 0, 67, 105
1, 16974, Control_c, 0, 64, 54
1, 16974, Control_c, 0, 67, 108
1, 16985, Note_off_c, 0, 68, 64
1, 16989, Control_c, 0, 64, 0
1, 16989, Control_c, 0, 67, 112
1, 17004, Control_c, 0, 67, 116
1, 17006, Note_on_c, 0, 73, 68
1, 17019, Control_c, 0, 64, 25
1, 17019, Control_c, 0, 67, 120
1, 17033, Note_off_c, 0, 73, 66
1, 17033, Control_c, 0, 64, 55
1, 17033, Control_c, 0, 67, 122
1, 17041, Note_on_c, 0, 66, 57
1, 17048, Control_c, 0, 64, 64
1, 17048, Control_c, 0, 67, 123
1, 17063, Control_c, 0, 64, 68
1, 17063, Control_c, 0, 67, 123
1, 17078, Control_c, 0, 64, 69
1, 17079, Note_off_c, 0, 66, 64
1, 17093, Control_c, 0, 64, 68
1, 17103, Note_on_c, 0, 61, 51
1, 17107, Control_c, 0, 64, 68
1, 17122, Control_c, 0, 64, 67
1, 17122, Control_c, 0, 67, 123
1, 17135, Note_off_c, 0, 61, 64
1, 17169, Note_on_c, 0, 66, 56
1, 17207, Note_off_c, 0, 66, 63
1, 17211, Control_c, 0, 64, 68
1, 17214, Note_on_c, 0, 61, 67
1, 17225, Control_c, 0, 64, 69
1, 17240, Note_off_c, 0, 61, 66
1, 17240, Control_c, 0, 64, 72
1, 17255, Control_c, 0, 64, 73
1, 17255, Control_c, 0, 67, 123
1, 17270, Control_c, 0, 64, 70
1, 17270, Control_c, 0, 67, 124
1, 17280, Note_on_c, 0, 58, 69
1, 17285, Control_c, 0, 64, 63
1, 17285, Control_c, 0, 67, 125
1, 17300, Control_c, 0, 64, 36
1, 17300, Control_c, 0, 67, 127
1, 17311, Note_off_c, 0, 58, 63
1, 17315, Control_c, 0, 64, 9
1, 17330, Control_c, 0, 64, 44
1, 17344, Control_c, 0, 64, 62
1, 17351, Note_on_c, 0, 60, 53
1, 17359, Control_c, 0, 64, 68
1, 17374, Control_c, 0, 64, 71
1, 17376, Note_off_c, 0, 60, 61
1, 17396, Control_c, 0, 64, 68
1, 17397, Note_on_c, 0, 58, 64
1, 17411, Control_c, 0, 64, 58
1, 17425, Control_c, 0, 64, 0
1, 17455, Note_on_c, 0, 60, 63
1, 17455, Note_off_c, 0, 58, 59
1, 17455, Control_c, 0, 64, 44
1, 17470, Control_c, 0, 64, 60
1, 17482, Note_off_c, 0, 60, 65
1, 17485, Control_c, 0, 64, 64
1, 17500, Control_c, 0, 64, 65
1, 17508, Note_on_c, 0, 62, 54
1, 17515, Control_c, 0, 64, 64
1, 17530, Control_c, 0, 64, 61
1, 17541, Note_off_c, 0, 62, 65
1, 17544, Control_c, 0, 64, 59
1, 17559, Control_c, 0, 64, 60
1, 17564, Note_on_c, 0, 67, 61
1, 17574, Control_c, 0, 64, 62
1, 17589, Control_c, 0, 64, 63
1, 17604, Note_off_c, 0, 67, 62
1, 17604, Control_c, 0, 64, 63
1, 17619, Control_c, 0, 64, 63
1, 17623, Note_on_c, 0, 62, 55
1, 17662, Note_off_c, 0, 62, 65
1, 17663, Control_c, 0, 64, 64
1, 17677, Control_c, 0, 64, 65
1, 17687, Note_on_c, 0, 67, 53
1, 17692, Control_c, 0, 64, 66
1, 17707, Control_c, 0, 64, 65
1, 17714, Note_off_c, 0, 67, 63
1, 17723, Control_c, 0, 64, 55
1, 17738, Control_c, 0, 64, 0
1, 17743, Note_on_c, 0, 69, 56
1, 17768, Control_c, 0, 64, 14
1, 17780, Note_off_c, 0, 69, 65
1, 17782, Control_c, 0, 64, 53
1, 17797, Control_c, 0, 64, 63
1, 17798, Note_on_c, 0, 72, 60
1, 17812, Control_c, 0, 64, 68
1, 17827, Control_c, 0, 64, 70
1, 17831, Note_off_c, 0, 72, 62
1, 17842, Control_c, 0, 64, 69
1, 17853, Note_on_c, 0, 69, 65
1, 17856, Control_c, 0, 64, 68
1, 17871, Control_c, 0, 64, 67
1, 17916, Control_c, 0, 64, 65
1, 17917, Note_off_c, 0, 69, 57
1, 17921, Note_on_c, 0, 72, 53
1, 17930, Control_c, 0, 64, 57
1, 17945, Control_c, 0, 64, 29
1, 17951, Note_off_c, 0, 72, 66
1, 17960, Control_c, 0, 64, 22
1, 17974, Note_on_c, 0, 67, 58
1, 17974, Control_c, 0, 64, 45
1, 17989, Control_c, 0, 64, 59
1, 18004, Control_c, 0, 64, 65
1, 18012, Note_off_c, 0, 67, 63
1, 18019, Control_c, 0, 64, 67
1, 18034, Control_c, 0, 64, 68
1, 18039, Note_on_c, 0, 62, 46
1, 18048, Control_c, 0, 64, 66
1, 18063, Control_c, 0, 64, 65
1, 18068, Note_off_c, 0, 62, 59
1, 18078, Control_c, 0, 64, 64
1, 18088, Note_on_c, 0, 67, 64
1, 18093, Control_c, 0, 64, 65
1, 18108, Control_c, 0, 64, 65
1, 18122, Note_off_c, 0, 67, 63
1, 18123, Control_c, 0, 64, 66
1, 18138, Control_c, 0, 64, 67
1, 18141, Note_on_c, 0, 62, 66
1, 18160, Control_c, 0, 64, 69
1, 18174, Control_c, 0, 64, 70
1, 18176, Note_off_c, 0, 62, 65
1, 18189, Control_c, 0, 64, 69
1, 18190, Note_on_c, 0, 58, 61
1, 18204, Control_c, 0, 64, 63
1, 18219, Control_c, 0, 64, 48
1, 18227, Note_off_c, 0, 58, 64
1, 18234, Control_c, 0, 64, 27
1, 18248, Control_c, 0, 64, 41
1, 18251, Note_on_c, 0, 60, 59
1, 18263, Control_c, 0, 64, 55
1, 18278, Control_c, 0, 64, 62
1, 18284, Note_off_c, 0, 60, 64
1, 18293, Control_c, 0, 64, 65
1, 18308, Control_c, 0, 64, 64
1, 18311, Note_on_c, 0, 58, 63
1, 18322, Control_c, 0, 64, 58
1, 18337, Control_c, 0, 64, 40
1, 18348, Note_off_c, 0, 58, 65
1, 18352, Control_c, 0, 64, 32
1, 18358, Note_on_c, 0, 60, 58
1, 18367, Control_c, 0, 64, 46
1, 18382, Control_c, 0, 64, 58
1, 18387, Note_off_c, 0, 60, 61
1, 18396, Control_c, 0, 64, 63
1, 18411, Control_c, 0, 64, 64
1, 18424, Note_on_c, 0, 64, 61
1, 18426, Control_c, 0, 64, 61
1, 18441, Control_c, 0, 64, 54
1, 18455, Control_c, 0, 64, 46
1, 18458, Note_off_c, 0, 64, 64
1, 18470, Control_c, 0, 64, 49
1, 18483, Note_on_c, 0, 67, 62
1, 18485, Control_c, 0, 64, 54
1, 18499, Control_c, 0, 64, 59
1, 18514, Control_c, 0, 64, 60
1, 18521, Note_off_c, 0, 67, 63
1, 18530, Control_c, 0, 64, 60
1, 18543, Note_on_c, 0, 64, 61
1, 18545, Control_c, 0, 64, 59
1, 18560, Control_c, 0, 64, 60
1, 18575, Control_c, 0, 64, 61
1, 18577, Note_off_c, 0, 64, 64
1, 18590, Control_c, 0, 64, 63
1, 18604, Control_c, 0, 64, 65
1, 18615, Note_on_c, 0, 67, 54
1, 18634, Control_c, 0, 64, 61
1, 18639, Note_off_c, 0, 67, 60
1, 18649, Control_c, 0, 64, 42
1, 18653, Note_on_c, 0, 69, 59
1, 18664, Control_c, 0, 64, 0
1, 18678, Control_c, 0, 64, 31
1, 18693, Control_c, 0, 64, 53
1, 18694, Note_off_c, 0, 69, 63
1, 18708, Control_c, 0, 64, 62
1, 18717, Note_on_c, 0, 72, 61
1, 18722, Control_c, 0, 64, 66
1, 18737, Control_c, 0, 64, 70
1, 18747, Note_off_c, 0, 72, 59
1, 18752, Control_c, 0, 64, 71
1, 18774, Note_on_c, 0, 69, 62
1, 18811, Control_c, 0, 64, 70
1, 18826, Control_c, 0, 64, 67
1, 18832, Note_on_c, 0, 72, 62
1, 18838, Note_off_c, 0, 69, 61
1, 18841, Control_c, 0, 64, 57
1, 18856, Control_c, 0, 64, 31
1, 18860, Note_off_c, 0, 72, 67
1, 18871, Control_c, 0, 64, 39
1, 18883, Note_on_c, 0, 67, 59
1, 18886, Control_c, 0, 64, 54
1, 18908, Control_c, 0, 64, 62
1, 18922, Control_c, 0, 64, 66
1, 18929, Note_off_c, 0, 67, 62
1, 18937, Control_c, 0, 64, 68
1, 18952, Control_c, 0, 64, 67
1, 18967, Control_c, 0, 64, 65
1, 18976, Note_on_c, 0, 64, 42
1, 18982, Control_c, 0, 64, 64
1, 19004, Note_off_c, 0, 64, 60
1, 19011, Control_c, 0, 64, 65
1, 19021, Note_on_c, 0, 67, 57
1, 19026, Control_c, 0, 64, 65
1, 19041, Control_c, 0, 64, 66
1, 19056, Note_off_c, 0, 67, 63
1, 19056, Control_c, 0, 64, 68
1, 19071, Control_c, 0, 64, 69
1, 19074, Note_on_c, 0, 64, 39
1, 19100, Control_c, 0, 64, 65
1, 19103, Note_off_c, 0, 64, 57
1, 19108, Note_on_c, 0, 58, 63
1, 19115, Control_c, 0, 64, 54
1, 19130, Control_c, 0, 64, 17
1, 19142, Note_off_c, 0, 58, 61
1, 19145, Control_c, 0, 64, 26
1, 19160, Control_c, 0, 64, 49
1, 19175, Control_c, 0, 64, 59
1, 19182, Note_on_c, 0, 60, 52
1, 19189, Control_c, 0, 64, 63
1, 19204, Control_c, 0, 64, 64
1, 19205, Note_off_c, 0, 60, 61
1, 19219, Control_c, 0, 64, 62
1, 19223, Note_on_c, 0, 58, 63
1, 19234, Control_c, 0, 64, 58
1, 19249, Control_c, 0, 64, 58
1, 19260, Note_off_c, 0, 58, 63
1, 19264, Control_c, 0, 64, 59
1, 19278, Control_c, 0, 64, 60
1, 19282, Note_on_c, 0, 60, 60
1, 19293, Control_c, 0, 64, 61
1, 19308, Control_c, 0, 64, 61
1, 19312, Note_off_c, 0, 60, 66
1, 19324, Control_c, 0, 64, 61
1, 19333, Note_on_c, 0, 61, 53
1, 19365, Note_off_c, 0, 61, 63
1, 19390, Note_on_c, 0, 65, 60
1, 19428, Note_off_c, 0, 65, 62
1, 19449, Note_on_c, 0, 61, 65
1, 19457, Control_c, 0, 64, 61
1, 19472, Control_c, 0, 64, 62
1, 19487, Note_off_c, 0, 61, 62
1, 19487, Control_c, 0, 64, 63
1, 19501, Control_c, 0, 64, 64
1, 19515, Note_on_c, 0, 65, 62
1, 19516, Control_c, 0, 64, 64
1, 19531, Control_c, 0, 64, 59
1, 19544, Note_off_c, 0, 65, 64
1, 19545, Control_c, 0, 64, 40
1, 19560, Note_on_c, 0, 57, 65
1, 19560, Control_c, 0, 64, 0
1, 19575, Control_c, 0, 64, 19
1, 19590, Control_c, 0, 64, 48
1, 19600, Note_off_c, 0, 57, 62
1, 19605, Control_c, 0, 64, 61
1, 19619, Control_c, 0, 64, 64
1, 19627, Note_on_c, 0, 60, 63
1, 19634, Control_c, 0, 64, 64
1, 19657, Control_c, 0, 64, 58
1, 19667, Note_off_c, 0, 60, 63
1, 19672, Control_c, 0, 64, 43
1, 19687, Note_on_c, 0, 57, 59
1, 19687, Control_c, 0, 64, 34
1, 19701, Control_c, 0, 64, 45
1, 19716, Control_c, 0, 64, 55
1, 19731, Control_c, 0, 64, 62
1, 19739, Note_on_c, 0, 60, 64
1, 19741, Note_off_c, 0, 57, 61
1, 19745, Control_c, 0, 64, 64
1, 19760, Control_c, 0, 64, 65
1, 19766, Note_off_c, 0, 60, 66
1, 19775, Control_c, 0, 64, 64
1, 19790, Control_c, 0, 64, 64
1, 19794, Note_on_c, 0, 61, 61
1, 19830, Note_off_c, 0, 61, 63
1, 19847, Note_on_c, 0, 65, 64
1, 19886, Note_off_c, 0, 65, 63
1, 19908, Note_on_c, 0, 61, 65
1, 19938, Control_c, 0, 64, 64
1, 19942, Note_off_c, 0, 61, 63
1, 19953, Control_c, 0, 64, 65
1, 19965, Note_on_c, 0, 65, 66
1, 19968, Control_c, 0, 64, 66
1, 19983, Control_c, 0, 64, 66
1, 19994, Note_off_c, 0, 65, 64
1, 19998, Control_c, 0, 64, 63
1, 20010, Note_on_c, 0, 56, 71
1, 20012, Control_c, 0, 64, 54
1, 20027, Control_c, 0, 64, 0
1, 20057, Control_c, 0, 64, 26
1, 20060, Note_off_c, 0, 56, 57
1, 20069, Note_on_c, 0, 60, 68
1, 20071, Control_c, 0, 64, 50
1, 20086, Control_c, 0, 64, 61
1, 20101, Control_c, 0, 64, 64
1, 20103, Note_off_c, 0, 60, 62
1, 20117, Control_c, 0, 64, 65
1, 20129, Note_on_c, 0, 56, 59
1, 20132, Control_c, 0, 64, 63
1, 20147, Control_c, 0, 64, 62
1, 20161, Control_c, 0, 64, 62
1, 20191, Control_c, 0, 64, 62
1, 20191, Note_off_c, 0, 56, 50
1, 20193, Note_on_c, 0, 60, 60
1, 20206, Control_c, 0, 64, 63
1, 20221, Note_off_c, 0, 60, 67
1, 20232, Note_on_c, 0, 61, 54
1, 20264, Note_off_c, 0, 61, 65
1, 20265, Control_c, 0, 64, 62
1, 20285, Note_on_c, 0, 65, 61
1, 20294, Control_c, 0, 64, 62
1, 20319, Note_off_c, 0, 65, 62
1, 20338, Note_on_c, 0, 61, 73
1, 20367, Note_off_c, 0, 61, 63
1, 20368, Control_c, 0, 64, 62
1, 20383, Control_c, 0, 64, 64
1, 20400, Note_on_c, 0, 65, 60
1, 20406, Control_c, 0, 64, 65
1, 20421, Control_c, 0, 64, 66
1, 20432, Note_off_c, 0, 65, 64
1, 20436, Control_c, 0, 64, 65
1, 20450, Control_c, 0, 64, 61
1, 20454, Note_on_c, 0, 55, 73
1, 20465, Control_c, 0, 64, 41
1, 20480, Control_c, 0, 64, 0
1, 20509, Control_c, 0, 64, 36
1, 20524, Control_c, 0, 64, 59
1, 20526, Note_off_c, 0, 55, 60
1, 20529, Note_on_c, 0, 58, 64
1, 20539, Control_c, 0, 64, 65
1, 20554, Control_c, 0, 64, 67
1, 20568, Control_c, 0, 64, 63
1, 20583, Control_c, 0, 64, 46
1, 20598, Control_c, 0, 64, 0
1, 20600, Note_off_c, 0, 58, 63
1, 20606, Note_on_c, 0, 55, 63
1, 20613, Control_c, 0, 64, 31
1, 20628, Control_c, 0, 64, 52
1, 20642, Control_c, 0, 64, 62
1, 20651, Note_on_c, 0, 58, 52
1, 20657, Control_c, 0, 64, 67
1, 20658, Note_off_c, 0, 55, 62
1, 20672, Control_c, 0, 64, 70
1, 20675, Note_off_c, 0, 58, 61
1, 20679, Note_on_c, 0, 60, 61
1, 20687, Control_c, 0, 64, 71
1, 20701, Control_c, 0, 64, 69
1, 20710, Note_off_c, 0, 60, 62
1, 20716, Control_c, 0, 64, 68
1, 20731, Control_c, 0, 64, 67
1, 20746, Control_c, 0, 64, 66
1, 20749, Note_on_c, 0, 64, 53
1, 20761, Control_c, 0, 64, 66
1, 20776, Control_c, 0, 64, 65
1, 20783, Note_off_c, 0, 64, 65
1, 20790, Note_on_c, 0, 60, 56
1, 20806, Control_c, 0, 64, 66
1, 20820, Control_c, 0, 64, 66
1, 20835, Control_c, 0, 64, 67
1, 20837, Note_off_c, 0, 60, 62
1, 20865, Control_c, 0, 64, 66
1, 20869, Note_on_c, 0, 64, 38
1, 20880, Control_c, 0, 64, 59
1, 20894, Control_c, 0, 64, 13
1, 20901, Note_off_c, 0, 64, 55
1, 20905, Note_on_c, 0, 58, 67
1, 20910, Control_c, 0, 64, 0
1, 20940, Control_c, 0, 64, 26
1, 20951, Note_off_c, 0, 58, 61
1, 20953, Note_on_c, 0, 60, 69
1, 20955, Control_c, 0, 64, 59
1, 20969, Control_c, 0, 64, 65
1, 20984, Note_off_c, 0, 60, 65
1, 20984, Control_c, 0, 64, 66
1, 20999, Control_c, 0, 64, 64
1, 21014, Control_c, 0, 64, 56
1, 21029, Control_c, 0, 64, 41
1, 21032, Note_on_c, 0, 58, 55
1, 21044, Control_c, 0, 64, 41
1, 21058, Control_c, 0, 64, 49
1, 21073, Control_c, 0, 64, 55
1, 21088, Control_c, 0, 64, 59
1, 21089, Note_on_c, 0, 60, 67
1, 21096, Note_off_c, 0, 58, 58
1, 21103, Control_c, 0, 64, 60
1, 21117, Control_c, 0, 64, 60
1, 21118, Note_off_c, 0, 60, 65
1, 21123, Note_on_c, 0, 61, 52
1, 21139, Control_c, 0, 64, 59
1, 21154, Control_c, 0, 64, 59
1, 21166, Note_off_c, 0, 61, 64
1, 21192, Note_on_c, 0, 65, 62
1, 21229, Note_off_c, 0, 65, 62
1, 21253, Note_on_c, 0, 61, 62
1, 21259, Control_c, 0, 64, 59
1, 21273, Control_c, 0, 64, 60
1, 21284, Note_off_c, 0, 61, 65
1, 21288, Control_c, 0, 64, 61
1, 21303, Control_c, 0, 64, 62
1, 21312, Note_on_c, 0, 65, 63
1, 21317, Control_c, 0, 64, 63
1, 21332, Control_c, 0, 64, 64
1, 21342, Note_off_c, 0, 65, 64
1, 21347, Control_c, 0, 64, 62
1, 21358, Note_on_c, 0, 57, 72
1, 21362, Control_c, 0, 64, 55
1, 21377, Control_c, 0, 64, 36
1, 21390, Control_c, 0, 64, 31
1, 21405, Note_off_c, 0, 57, 61
1, 21405, Control_c, 0, 64, 48
1, 21420, Control_c, 0, 64, 59
1, 21426, Note_on_c, 0, 60, 66
1, 21435, Control_c, 0, 64, 65
1, 21450, Control_c, 0, 64, 65
1, 21458, Note_off_c, 0, 60, 61
1, 21464, Control_c, 0, 64, 63
1, 21479, Control_c, 0, 64, 55
1, 21480, Note_on_c, 0, 57, 61
1, 21494, Control_c, 0, 64, 42
1, 21509, Control_c, 0, 64, 47
1, 21524, Control_c, 0, 64, 57
1, 21539, Control_c, 0, 64, 63
1, 21549, Note_on_c, 0, 60, 60
1, 21554, Control_c, 0, 64, 66
1, 21556, Note_off_c, 0, 57, 61
1, 21569, Control_c, 0, 64, 69
1, 21576, Note_off_c, 0, 60, 66
1, 21587, Note_on_c, 0, 61, 65
1, 21598, Control_c, 0, 64, 68
1, 21622, Note_off_c, 0, 61, 65
1, 21649, Note_on_c, 0, 65, 68
1, 21687, Control_c, 0, 64, 68
1, 21691, Note_off_c, 0, 65, 61
1, 21712, Note_on_c, 0, 61, 68
1, 21750, Note_off_c, 0, 61, 63
1, 21773, Note_on_c, 0, 65, 63
1, 21777, Control_c, 0, 64, 68
1, 21792, Control_c, 0, 64, 69
1, 21802, Note_off_c, 0, 65, 64
1, 21807, Control_c, 0, 64, 69
1, 21813, Note_on_c, 0, 56, 76
1, 21821, Control_c, 0, 64, 66
1, 21836, Control_c, 0, 64, 58
1, 21851, Control_c, 0, 64, 10
1, 21866, Control_c, 0, 64, 0
1, 21876, Note_off_c, 0, 56, 62
1, 21880, Note_on_c, 0, 60, 71
1, 21888, Control_c, 0, 64, 31
1, 21903, Control_c, 0, 64, 56
1, 21917, Control_c, 0, 64, 64
1, 21926, Note_off_c, 0, 60, 63
1, 21932, Control_c, 0, 64, 65
1, 21947, Control_c, 0, 64, 59
1, 21947, Note_on_c, 0, 56, 61
1, 21962, Control_c, 0, 64, 24
1, 21977, Control_c, 0, 64, 0
1, 22007, Control_c, 0, 64, 47
1, 22013, Note_off_c, 0, 56, 63
1, 22018, Note_on_c, 0, 60, 67
1, 22021, Control_c, 0, 64, 62
1, 22036, Control_c, 0, 64, 67
1, 22040, Note_off_c, 0, 60, 66
1, 22051, Control_c, 0, 64, 70
1, 22052, Note_on_c, 0, 61, 69
1, 22065, Control_c, 0, 64, 69
1, 22080, Control_c, 0, 64, 67
1, 22085, Note_off_c, 0, 61, 65
1, 22095, Control_c, 0, 64, 66
1, 22110, Note_on_c, 0, 65, 62
1, 22155, Note_off_c, 0, 65, 61
1, 22180, Note_on_c, 0, 61, 65
1, 22185, Control_c, 0, 64, 67
1, 22200, Control_c, 0, 64, 69
1, 22210, Note_off_c, 0, 61, 63
1, 22215, Control_c, 0, 64, 71
1, 22229, Control_c, 0, 64, 73
1, 22236, Note_on_c, 0, 65, 58
1, 22259, Control_c, 0, 64, 68
1, 22266, Note_off_c, 0, 65, 63
1, 22273, Control_c, 0, 64, 53
1, 22278, Note_on_c, 0, 54, 71
1, 22288, Control_c, 0, 64, 0
1, 22303, Control_c, 0, 64, 20
1, 22318, Control_c, 0, 64, 52
1, 22333, Control_c, 0, 64, 63
1, 22345, Note_on_c, 0, 58, 68
1, 22347, Control_c, 0, 64, 67
1, 22348, Note_off_c, 0, 54, 56
1, 22362, Control_c, 0, 64, 71
1, 22377, Control_c, 0, 64, 72
1, 22386, Note_off_c, 0, 58, 57
1, 22412, Note_on_c, 0, 54, 53
1, 22466, Control_c, 0, 64, 69
1, 22471, Note_on_c, 0, 58, 67
1, 22481, Control_c, 0, 64, 59
1, 22496, Control_c, 0, 64, 0
1, 22496, Note_off_c, 0, 58, 67
1, 22501, Note_off_c, 0, 54, 60
1, 22517, Note_on_c, 0, 60, 59
1, 22541, Control_c, 0, 64, 49
1, 22549, Note_off_c, 0, 60, 64
1, 22556, Control_c, 0, 64, 61
1, 22570, Control_c, 0, 64, 66
1, 22585, Control_c, 0, 64, 66
1, 22590, Note_on_c, 0, 64, 51
1, 22600, Control_c, 0, 64, 65
1, 22615, Control_c, 0, 64, 63
1, 22626, Note_off_c, 0, 64, 65
1, 22630, Control_c, 0, 64, 63
1, 22645, Note_on_c, 0, 60, 51
1, 22667, Control_c, 0, 64, 63
1, 22678, Note_off_c, 0, 60, 60
1, 22682, Control_c, 0, 64, 64
1, 22696, Control_c, 0, 64, 65
1, 22711, Control_c, 0, 64, 67
1, 22713, Note_on_c, 0, 64, 60
1, 22737, Note_off_c, 0, 64, 63
1, 22741, Control_c, 0, 64, 63
1, 22756, Control_c, 0, 64, 47
1, 22770, Control_c, 0, 64, 0
1, 22773, Note_on_c, 0, 58, 62
1, 22800, Control_c, 0, 64, 16
1, 22809, Note_off_c, 0, 58, 62
1, 22815, Control_c, 0, 64, 50
1, 22830, Control_c, 0, 64, 58
1, 22833, Note_on_c, 0, 60, 46
1, 22844, Control_c, 0, 64, 59
1, 22859, Note_off_c, 0, 60, 60
1, 22859, Control_c, 0, 64, 55
1, 22874, Control_c, 0, 64, 52
1, 22889, Control_c, 0, 64, 54
1, 22889, Note_on_c, 0, 58, 63
1, 22904, Control_c, 0, 64, 57
1, 22919, Control_c, 0, 64, 59
1, 22926, Note_off_c, 0, 58, 65
1, 22931, Note_on_c, 0, 60, 65
1, 22934, Control_c, 0, 64, 58
1, 22949, Control_c, 0, 64, 53
1, 22958, Note_off_c, 0, 60, 66
1, 22964, Control_c, 0, 64, 48
1, 22978, Control_c, 0, 64, 48
1, 22993, Control_c, 0, 64, 53
1, 23008, Control_c, 0, 64, 56
1, 23023, Control_c, 0, 64, 58
1, 23037, Control_c, 0, 64, 58
1, 23041, Note_on_c, 0, 52, 3
1, 23042, Note_off_c, 0, 52, 127
1, 23042, Note_on_c, 0, 54, 58
1, 23052, Control_c, 0, 64, 56
1, 23067, Control_c, 0, 64, 56
1, 23080, Note_off_c, 0, 54, 65
1, 23082, Control_c, 0, 64, 56
1, 23089, Note_on_c, 0, 52, 41
1, 23096, Control_c, 0, 64, 58
1, 23111, Control_c, 0, 64, 59
1, 23126, Control_c, 0, 64, 60
1, 23132, Note_off_c, 0, 52, 63
1, 23141, Control_c, 0, 64, 61
1, 23152, Note_on_c, 0, 54, 66
1, 23156, Control_c, 0, 64, 61
1, 23175, Note_off_c, 0, 54, 67
1, 23185, Control_c, 0, 64, 60
1, 23198, Note_on_c, 0, 46, 62
1, 23200, Control_c, 0, 64, 54
1, 23215, Control_c, 0, 64, 40
1, 23230, Control_c, 0, 64, 34
1, 23239, Note_off_c, 0, 46, 65
1, 23244, Control_c, 0, 64, 48
1, 23258, Note_on_c, 0, 48, 67
1, 23259, Control_c, 0, 64, 59
1, 23274, Control_c, 0, 64, 64
1, 23289, Control_c, 0, 64, 65
1, 23294, Note_off_c, 0, 48, 63
1, 23304, Control_c, 0, 64, 63
1, 23319, Control_c, 0, 64, 57
1, 23330, Note_on_c, 0, 46, 50
1, 23334, Control_c, 0, 64, 24
1, 23349, Control_c, 0, 64, 0
1, 23390, Note_on_c, 0, 48, 62
1, 23395, Note_off_c, 0, 46, 63
1, 23416, Control_c, 0, 64, 47
1, 23420, Note_off_c, 0, 48, 64
1, 23431, Control_c, 0, 64, 61
1, 23440, Note_on_c, 0, 52, 60
1, 23446, Control_c, 0, 64, 65
1, 23461, Control_c, 0, 64, 67
1, 23474, Note_off_c, 0, 52, 64
1, 23475, Control_c, 0, 64, 68
1, 23497, Note_on_c, 0, 54, 66
1, 23519, Control_c, 0, 64, 67
1, 23530, Note_off_c, 0, 54, 64
1, 23534, Control_c, 0, 64, 66
1, 23549, Control_c, 0, 64, 64
1, 23560, Note_on_c, 0, 52, 54
1, 23564, Control_c, 0, 64, 63
1, 23579, Control_c, 0, 64, 62
1, 23593, Note_off_c, 0, 52, 63
1, 23612, Note_on_c, 0, 54, 55
1, 23623, Control_c, 0, 64, 62
1, 23638, Control_c, 0, 64, 56
1, 23643, Note_off_c, 0, 54, 65
1, 23653, Control_c, 0, 64, 0
1, 23687, Note_on_c, 0, 58, 53
1, 23716, Note_on_c, 0, 60, 64
1, 23733, Note_off_c, 0, 58, 51
1, 23742, Control_c, 0, 64, 37
1, 23757, Control_c, 0, 64, 54
1, 23772, Control_c, 0, 64, 58
1, 23775, Note_off_c, 0, 60, 59
1, 23786, Control_c, 0, 64, 58
1, 23797, Poly_aftertouch_c, 0, 58, 127
1, 23816, Control_c, 0, 64, 57
1, 23830, Poly_aftertouch_c, 0, 58, 0
1, 23831, Control_c, 0, 64, 50
1, 23845, Note_on_c, 0, 57, 65
1, 23846, Control_c, 0, 64, 12
1, 23860, Control_c, 0, 64, 0
1, 23873, Note_off_c, 0, 57, 66
1, 23889, Note_on_c, 0, 55, 55
1, 23890, Control_c, 0, 64, 40
1, 23905, Control_c, 0, 64, 59
1, 23919, Control_c, 0, 64, 64
1, 23934, Control_c, 0, 64, 67
1, 23947, Note_off_c, 0, 55, 58
1, 23948, Note_on_c, 0, 53, 60
1, 23949, Control_c, 0, 64, 69
1, 23964, Control_c, 0, 64, 70
1, 23993, Control_c, 0, 64, 69
1, 24007, Note_off_c, 0, 53, 62
1, 24008, Control_c, 0, 67, 127
1, 24009, Note_on_c, 0, 52, 55
1, 24023, Control_c, 0, 67, 122
1, 24037, Control_c, 0, 67, 115
1, 24042, Note_off_c, 0, 52, 63
1, 24052, Control_c, 0, 64, 69
1, 24052, Control_c, 0, 67, 106
1, 24055, Note_on_c, 0, 50, 63
1, 24067, Control_c, 0, 64, 70
1, 24067, Control_c, 0, 67, 93
1, 24082, Control_c, 0, 64, 71
1, 24082, Control_c, 0, 67, 73
1, 24088, Note_off_c, 0, 50, 67
1, 24097, Control_c, 0, 64, 69
1, 24097, Control_c, 0, 67, 51
1, 24113, Control_c, 0, 64, 64
1, 24113, Control_c, 0, 67, 28
1, 24126, Note_on_c, 0, 46, 58
1, 24128, Control_c, 0, 64, 51
1, 24128, Control_c, 0, 67, 8
1, 24150, Control_c, 0, 64, 41
1, 24150, Control_c, 0, 67, 0
1, 24165, Control_c, 0, 64, 54
1, 24173, Note_off_c, 0, 46, 64
1, 24176, Note_on_c, 0, 48, 64
1, 24180, Control_c, 0, 64, 63
1, 24195, Control_c, 0, 64, 69
1, 24210, Control_c, 0, 64, 72
1, 24224, Control_c, 0, 64, 69
1, 24225, Note_off_c, 0, 48, 62
1, 24227, Note_on_c, 0, 50, 66
1, 24239, Control_c, 0, 64, 59
1, 24254, Control_c, 0, 64, 24
1, 24269, Control_c, 0, 64, 33
1, 24283, Note_off_c, 0, 50, 65
1, 24284, Control_c, 0, 64, 57
1, 24298, Note_on_c, 0, 52, 46
1, 24298, Control_c, 0, 64, 67
1, 24313, Control_c, 0, 64, 76
1, 24328, Control_c, 0, 64, 82
1, 24329, Note_on_c, 0, 53, 67
1, 24330, Note_off_c, 0, 52, 56
1, 24342, Control_c, 0, 64, 82
1, 24357, Control_c, 0, 64, 82
1, 24365, Note_off_c, 0, 53, 65
1, 24372, Control_c, 0, 64, 81
1, 24377, Note_on_c, 0, 55, 71
1, 24387, Control_c, 0, 64, 80
1, 24423, Note_on_c, 0, 56, 71
1, 24431, Control_c, 0, 64, 81
1, 24446, Note_off_c, 0, 55, 56
1, 24446, Control_c, 0, 64, 83
1, 24460, Control_c, 0, 64, 85
1, 24472, Note_on_c, 0, 58, 73
1, 24475, Control_c, 0, 64, 86
1, 24490, Note_off_c, 0, 56, 64
1, 24490, Control_c, 0, 64, 85
1, 24505, Control_c, 0, 64, 77
1, 24506, Note_off_c, 0, 58, 64
1, 24520, Control_c, 0, 64, 62
1, 24535, Control_c, 0, 64, 0
1, 24535, Control_c, 0, 67, 16
1, 24543, Note_on_c, 0, 61, 75
1, 24550, Control_c, 0, 67, 32
1, 24564, Control_c, 0, 67, 58
1, 24579, Control_c, 0, 67, 89
1, 24594, Control_c, 0, 64, 38
1, 24594, Control_c, 0, 67, 119
1, 24603, Note_off_c, 0, 61, 55
1, 24609, Control_c, 0, 64, 42
1, 24609, Control_c, 0, 67, 127
1, 24621, Note_on_c, 0, 63, 70
1, 24624, Control_c, 0, 64, 38
1, 24639, Control_c, 0, 64, 29
1, 24654, Control_c, 0, 64, 19
1, 24663, Note_off_c, 0, 63, 62
1, 24683, Control_c, 0, 64, 25
1, 24692, Note_on_c, 0, 61, 54
1, 24698, Control_c, 0, 64, 28
1, 24713, Control_c, 0, 64, 29
1, 24740, Note_off_c, 0, 61, 64
1, 24743, Note_on_c, 0, 63, 61
1, 24757, Control_c, 0, 64, 32
1, 24763, Note_on_c, 0, 57, 65
1, 24767, Note_off_c, 0, 63, 65
1, 24772, Control_c, 0, 64, 38
1, 24787, Control_c, 0, 64, 42
1, 24802, Control_c, 0, 64, 44
1, 24808, Note_off_c, 0, 57, 63
1, 24816, Control_c, 0, 64, 44
1, 24837, Note_on_c, 0, 58, 54
1, 24846, Control_c, 0, 64, 45
1, 24860, Control_c, 0, 64, 46
1, 24874, Note_off_c, 0, 58, 65
1, 24875, Control_c, 0, 64, 50
1, 24895, Note_on_c, 0, 57, 62
1, 24898, Control_c, 0, 64, 55
1, 24913, Control_c, 0, 64, 59
1, 24925, Note_off_c, 0, 57, 66
1, 24928, Control_c, 0, 64, 58
1, 24943, Control_c, 0, 64, 51
1, 24958, Control_c, 0, 64, 0
1, 24961, Note_on_c, 0, 58, 51
1, 24979, Note_on_c, 0, 51, 67
1, 24984, Note_off_c, 0, 58, 60
1, 25003, Control_c, 0, 64, 41
1, 25012, Note_off_c, 0, 51, 64
1, 25018, Control_c, 0, 64, 59
1, 25032, Control_c, 0, 64, 64
1, 25035, Note_on_c, 0, 53, 68
1, 25047, Control_c, 0, 64, 63
1, 25062, Control_c, 0, 64, 58
1, 25068, Note_off_c, 0, 53, 66
1, 25077, Control_c, 0, 64, 42
1, 25091, Control_c, 0, 64, 0
1, 25091, Control_c, 0, 67, 122
1, 25098, Note_on_c, 0, 51, 64
1, 25106, Control_c, 0, 64, 15
1, 25106, Control_c, 0, 67, 109
1, 25121, Control_c, 0, 64, 33
1, 25121, Control_c, 0, 67, 90
1, 25137, Note_off_c, 0, 51, 57
1, 25137, Control_c, 0, 64, 40
1, 25137, Control_c, 0, 67, 66
1, 25150, Note_on_c, 0, 53, 65
1, 25152, Control_c, 0, 64, 33
1, 25152, Control_c, 0, 67, 32
1, 25166, Control_c, 0, 64, 0
1, 25166, Control_c, 0, 67, 0
1, 25178, Note_off_c, 0, 53, 66
1, 25187, Note_on_c, 0, 57, 66
1, 25196, Control_c, 0, 64, 23
1, 25211, Control_c, 0, 64, 52
1, 25224, Note_off_c, 0, 57, 64
1, 25226, Control_c, 0, 64, 63
1, 25240, Control_c, 0, 64, 69
1, 25250, Note_on_c, 0, 58, 68
1, 25255, Control_c, 0, 64, 72
1, 25270, Control_c, 0, 64, 71
1, 25284, Control_c, 0, 64, 69
1, 25285, Note_off_c, 0, 58, 63
1, 25299, Control_c, 0, 64, 65
1, 25309, Note_on_c, 0, 57, 68
1, 25314, Control_c, 0, 64, 63
1, 25329, Control_c, 0, 64, 64
1, 25344, Control_c, 0, 64, 66
1, 25352, Note_off_c, 0, 57, 64
1, 25358, Control_c, 0, 64, 69
1, 25367, Note_on_c, 0, 58, 65
1, 25373, Control_c, 0, 64, 71
1, 25388, Control_c, 0, 64, 70
1, 25402, Note_off_c, 0, 58, 66
1, 25403, Control_c, 0, 64, 64
1, 25417, Control_c, 0, 64, 42
1, 25432, Control_c, 0, 64, 31
1, 25438, Note_on_c, 0, 61, 52
1, 25447, Control_c, 0, 64, 47
1, 25462, Control_c, 0, 64, 58
1, 25471, Note_off_c, 0, 61, 62
1, 25474, Note_on_c, 0, 63, 70
1, 25477, Control_c, 0, 64, 64
1, 25492, Control_c, 0, 64, 65
1, 25506, Control_c, 0, 64, 62
1, 25521, Control_c, 0, 64, 38
1, 25530, Note_off_c, 0, 63, 62
1, 25536, Control_c, 0, 64, 0
1, 25545, Note_on_c, 0, 61, 52
1, 25566, Control_c, 0, 64, 26
1, 25579, Note_off_c, 0, 61, 64
1, 25581, Control_c, 0, 64, 52
1, 25584, Note_on_c, 0, 59, 65
1, 25596, Control_c, 0, 64, 61
1, 25596, Control_c, 0, 67, 8
1, 25611, Control_c, 0, 64, 64
1, 25611, Control_c, 0, 67, 13
1, 25616, Note_off_c, 0, 59, 64
1, 25618, Note_on_c, 0, 57, 58
1, 25632, Control_c, 0, 64, 65
1, 25632, Control_c, 0, 67, 18
1, 25647, Control_c, 0, 67, 25
1, 25662, Control_c, 0, 67, 31
1, 25677, Control_c, 0, 64, 65
1, 25677, Control_c, 0, 67, 37
1, 25689, Note_on_c, 0, 56, 64
1, 25691, Control_c, 0, 67, 43
1, 25693, Note_off_c, 0, 57, 62
1, 25707, Control_c, 0, 64, 66
1, 25707, Control_c, 0, 67, 50
1, 25722, Control_c, 0, 67, 57
1, 25737, Control_c, 0, 67, 66
1, 25752, Control_c, 0, 64, 65
1, 25752, Control_c, 0, 67, 72
1, 25756, Note_off_c, 0, 56, 54
1, 25757, Note_on_c, 0, 54, 59
1, 25767, Control_c, 0, 67, 77
1, 25781, Control_c, 0, 64, 66
1, 25781, Control_c, 0, 67, 80
1, 25796, Note_off_c, 0, 54, 63
1, 25796, Control_c, 0, 67, 83
1, 25811, Control_c, 0, 64, 66
1, 25811, Control_c, 0, 67, 86
1, 25819, Note_on_c, 0, 52, 48
1, 25826, Control_c, 0, 64, 67
1, 25826, Control_c, 0, 67, 90
1, 25841, Control_c, 0, 64, 66
1, 25841, Control_c, 0, 67, 94
1, 25850, Note_off_c, 0, 52, 62
1, 25856, Control_c, 0, 64, 64
1, 25856, Control_c, 0, 67, 97
1, 25860, Note_on_c, 0, 49, 61
1, 25870, Control_c, 0, 64, 56
1, 25870, Control_c, 0, 67, 100
1, 25885, Control_c, 0, 64, 15
1, 25885, Control_c, 0, 67, 105
1, 25900, Control_c, 0, 64, 0
1, 25900, Control_c, 0, 67, 110
1, 25903, Note_off_c, 0, 49, 62
1, 25912, Note_on_c, 0, 51, 61
1, 25914, Control_c, 0, 64, 26
1, 25914, Control_c, 0, 67, 113
1, 25929, Control_c, 0, 64, 54
1, 25929, Control_c, 0, 67, 114
1, 25944, Control_c, 0, 64, 62
1, 25944, Control_c, 0, 67, 114
1, 25959, Control_c, 0, 64, 64
1, 25959, Control_c, 0, 67, 109
1, 25960, Note_off_c, 0, 51, 61
1, 25967, Note_on_c, 0, 52, 64
1, 25974, Control_c, 0, 64, 60
1, 25974, Control_c, 0, 67, 104
1, 25988, Control_c, 0, 64, 35
1, 25988, Control_c, 0, 67, 95
1, 26003, Control_c, 0, 64, 0
1, 26003, Control_c, 0, 67, 70
1, 26013, Note_off_c, 0, 52, 64
1, 26018, Control_c, 0, 67, 22
1, 26033, Control_c, 0, 64, 13
1, 26033, Control_c, 0, 67, 0
1, 26039, Note_on_c, 0, 54, 50
1, 26048, Control_c, 0, 64, 51
1, 26062, Control_c, 0, 64, 63
1, 26066, Note_off_c, 0, 54, 59
1, 26072, Note_on_c, 0, 56, 58
1, 26077, Control_c, 0, 64, 67
1, 26092, Control_c, 0, 64, 70
1, 26103, Note_off_c, 0, 56, 65
1, 26121, Control_c, 0, 64, 69
1, 26125, Note_on_c, 0, 57, 60
1, 26136, Control_c, 0, 64, 69
1, 26151, Control_c, 0, 64, 68
1, 26165, Note_off_c, 0, 57, 62
1, 26167, Note_on_c, 0, 59, 60
1, 26195, Control_c, 0, 64, 69
1, 26210, Control_c, 0, 64, 70
1, 26216, Note_on_c, 0, 61, 60
1, 26219, Note_off_c, 0, 59, 62
1, 26225, Control_c, 0, 64, 71
1, 26240, Control_c, 0, 64, 72
1, 26249, Note_off_c, 0, 61, 63
1, 26255, Control_c, 0, 64, 69
1, 26270, Control_c, 0, 64, 59
1, 26284, Control_c, 0, 64, 0
1, 26290, Note_on_c, 0, 64, 60
1, 26323, Note_on_c, 0, 66, 72
1, 26329, Control_c, 0, 64, 35
1, 26330, Note_off_c, 0, 64, 62
1, 26344, Control_c, 0, 64, 60
1, 26359, Control_c, 0, 64, 64
1, 26369, Note_off_c, 0, 66, 61
1, 26374, Control_c, 0, 64, 63
1, 26393, Note_on_c, 0, 64, 62
1, 26395, Control_c, 0, 64, 52
1, 26410, Control_c, 0, 64, 0
1, 26412, Poly_aftertouch_c, 0, 61, 0
1, 26450, Note_on_c, 0, 58, 65
1, 26456, Note_off_c, 0, 64, 63
1, 26469, Control_c, 0, 64, 10
1, 26476, Note_off_c, 0, 58, 67
1, 26497, Note_on_c, 0, 61, 66
1, 26499, Control_c, 0, 64, 16
1, 26515, Control_c, 0, 64, 39
1, 26530, Control_c, 0, 64, 55
1, 26541, Note_off_c, 0, 61, 62
1, 26544, Control_c, 0, 64, 62
1, 26557, Note_on_c, 0, 62, 61
1, 26559, Control_c, 0, 64, 63
1, 26574, Control_c, 0, 64, 61
1, 26589, Control_c, 0, 64, 56
1, 26603, Control_c, 0, 64, 52
1, 26605, Note_on_c, 0, 61, 65
1, 26606, Note_off_c, 0, 62, 62
1, 26618, Control_c, 0, 64, 53
1, 26633, Control_c, 0, 64, 56
1, 26648, Control_c, 0, 64, 60
1, 26658, Note_off_c, 0, 61, 61
1, 26663, Control_c, 0, 64, 63
1, 26671, Note_on_c, 0, 55, 51
1, 26678, Control_c, 0, 64, 65
1, 26693, Control_c, 0, 64, 64
1, 26699, Note_off_c, 0, 55, 56
1, 26708, Control_c, 0, 64, 57
1, 26720, Note_on_c, 0, 67, 68
1, 26723, Control_c, 0, 64, 0
1, 26767, Control_c, 0, 64, 47
1, 26774, Note_on_c, 0, 69, 70
1, 26779, Note_off_c, 0, 67, 56
1, 26782, Control_c, 0, 64, 62
1, 26797, Control_c, 0, 64, 65
1, 26811, Control_c, 0, 64, 64
1, 26817, Note_off_c, 0, 69, 53
1, 26826, Control_c, 0, 64, 61
1, 26827, Note_on_c, 0, 67, 49
1, 26841, Control_c, 0, 64, 56
1, 26855, Control_c, 0, 64, 55
1, 26870, Control_c, 0, 64, 57
1, 26880, Note_off_c, 0, 67, 63
1, 26882, Note_on_c, 0, 64, 67
1, 26885, Control_c, 0, 64, 57
1, 26900, Control_c, 0, 64, 48
1, 26910, Note_off_c, 0, 64, 66
1, 26915, Control_c, 0, 64, 0
1, 26942, Note_on_c, 0, 66, 58
1, 26959, Control_c, 0, 64, 41
1, 26974, Control_c, 0, 64, 61
1, 26978, Note_off_c, 0, 66, 65
1, 26989, Control_c, 0, 64, 65
1, 27003, Note_on_c, 0, 63, 53
1, 27018, Control_c, 0, 64, 60
1, 27033, Note_off_c, 0, 63, 64
1, 27033, Control_c, 0, 64, 47
1, 27048, Control_c, 0, 64, 43
1, 27062, Control_c, 0, 64, 52
1, 27065, Note_on_c, 0, 65, 63
1, 27077, Control_c, 0, 64, 59
1, 27092, Control_c, 0, 64, 65
1, 27100, Note_off_c, 0, 65, 64
1, 27105, Note_on_c, 0, 62, 69
1, 27107, Control_c, 0, 64, 69
1, 27122, Control_c, 0, 64, 70
1, 27142, Note_off_c, 0, 62, 65
1, 27144, Control_c, 0, 64, 63
1, 27159, Control_c, 0, 64, 27
1, 27165, Note_on_c, 0, 64, 63
1, 27174, Control_c, 0, 64, 0
1, 27204, Control_c, 0, 64, 42
1, 27218, Note_on_c, 0, 66, 42
1, 27218, Control_c, 0, 64, 60
1, 27233, Control_c, 0, 64, 65
1, 27245, Note_off_c, 0, 66, 56
1, 27248, Control_c, 0, 64, 65
1, 27262, Control_c, 0, 64, 64
1, 27277, Control_c, 0, 64, 63
1, 27281, Note_on_c, 0, 58, 72
1, 27283, Note_off_c, 0, 64, 65
1, 27292, Control_c, 0, 64, 64
1, 27299, Note_off_c, 0, 58, 67
1, 27308, Control_c, 0, 64, 65
1, 27323, Control_c, 0, 64, 63
1, 27338, Control_c, 0, 64, 54
1, 27353, Control_c, 0, 64, 0
1, 27357, Note_on_c, 0, 61, 68
1, 27397, Control_c, 0, 64, 51
1, 27409, Note_off_c, 0, 61, 56
1, 27412, Control_c, 0, 64, 63
1, 27427, Control_c, 0, 64, 65
1, 27429, Note_on_c, 0, 62, 70
1, 27441, Control_c, 0, 64, 62
1, 27456, Control_c, 0, 64, 56
1, 27471, Control_c, 0, 64, 52
1, 27486, Note_off_c, 0, 62, 62
1, 27486, Control_c, 0, 64, 56
1, 27486, Note_on_c, 0, 61, 59
1, 27501, Control_c, 0, 64, 61
1, 27516, Control_c, 0, 64, 65
1, 27521, Note_off_c, 0, 61, 64
1, 27524, Note_on_c, 0, 55, 66
1, 27530, Control_c, 0, 64, 69
1, 27551, Note_off_c, 0, 55, 64
1, 27560, Control_c, 0, 64, 63
1, 27575, Control_c, 0, 64, 27
1, 27577, Note_on_c, 0, 67, 78
1, 27590, Control_c, 0, 64, 0
1, 27620, Control_c, 0, 64, 53
1, 27621, Note_on_c, 0, 69, 64
1, 27634, Control_c, 0, 64, 64
1, 27649, Control_c, 0, 64, 67
1, 27664, Control_c, 0, 64, 65
1, 27674, Note_off_c, 0, 69, 63
1, 27678, Control_c, 0, 64, 50
1, 27682, Note_on_c, 0, 61, 66
1, 27693, Control_c, 0, 64, 0
1, 27723, Control_c, 0, 64, 45
1, 27724, Note_off_c, 0, 61, 64
1, 27724, Note_off_c, 0, 67, 64
1, 27738, Control_c, 0, 64, 63
1, 27752, Control_c, 0, 64, 69
1, 27767, Control_c, 0, 64, 73
1, 27778, Note_on_c, 0, 64, 49
1, 27782, Control_c, 0, 64, 72
1, 27797, Control_c, 0, 64, 69
1, 27812, Control_c, 0, 64, 65
1, 27822, Note_off_c, 0, 64, 64
1, 27827, Control_c, 0, 64, 63
1, 27829, Note_on_c, 0, 65, 71
1, 27856, Control_c, 0, 64, 64
1, 27891, Note_on_c, 0, 64, 46
1, 27901, Note_off_c, 0, 65, 51
1, 27908, Control_c, 0, 64, 65
1, 27923, Control_c, 0, 64, 68
1, 27930, Note_off_c, 0, 64, 64
1, 27934, Note_on_c, 0, 58, 69
1, 27938, Control_c, 0, 64, 72
1, 27953, Control_c, 0, 64, 74
1, 27957, Note_off_c, 0, 58, 68
1, 27967, Control_c, 0, 64, 72
1, 27982, Control_c, 0, 64, 61
1, 27990, Note_on_c, 0, 73, 64
1, 27997, Control_c, 0, 64, 0
1, 28041, Control_c, 0, 64, 52
1, 28046, Note_off_c, 0, 73, 61
1, 28053, Note_on_c, 0, 70, 66
1, 28056, Control_c, 0, 64, 63
1, 28071, Control_c, 0, 64, 66
1, 28081, Note_off_c, 0, 70, 65
1, 28085, Control_c, 0, 64, 69
1, 28132, Control_c, 0, 64, 69
1, 28143, Note_on_c, 0, 71, 21
1, 28147, Control_c, 0, 64, 70
1, 28159, Note_on_c, 0, 69, 66
1, 28177, Control_c, 0, 64, 66
1, 28183, Note_off_c, 0, 71, 48
1, 28187, Note_off_c, 0, 69, 67
1, 28191, Control_c, 0, 64, 59
1, 28206, Control_c, 0, 64, 38
1, 28221, Control_c, 0, 64, 34
1, 28224, Note_on_c, 0, 68, 65
1, 28236, Control_c, 0, 64, 51
1, 28251, Control_c, 0, 64, 61
1, 28265, Control_c, 0, 64, 65
1, 28275, Note_on_c, 0, 64, 54
1, 28280, Control_c, 0, 64, 70
1, 28291, Note_off_c, 0, 68, 64
1, 28295, Control_c, 0, 64, 73
1, 28299, Note_off_c, 0, 64, 62
1, 28309, Control_c, 0, 64, 73
1, 28326, Note_on_c, 0, 65, 60
1, 28354, Control_c, 0, 64, 70
1, 28364, Note_off_c, 0, 65, 64
1, 28369, Control_c, 0, 64, 61
1, 28379, Note_on_c, 0, 69, 65
1, 28383, Control_c, 0, 64, 47
1, 28398, Control_c, 0, 64, 52
1, 28407, Note_off_c, 0, 69, 67
1, 28413, Control_c, 0, 64, 62
1, 28428, Control_c, 0, 64, 68
1, 28437, Note_on_c, 0, 70, 72
1, 28443, Control_c, 0, 64, 72
1, 28458, Control_c, 0, 64, 69
1, 28472, Control_c, 0, 64, 56
1, 28487, Control_c, 0, 64, 0
1, 28489, Note_on_c, 0, 66, 68
1, 28496, Note_off_c, 0, 70, 63
1, 28517, Control_c, 0, 64, 46
1, 28517, Note_off_c, 0, 66, 65
1, 28532, Control_c, 0, 64, 64
1, 28544, Note_on_c, 0, 67, 60
1, 28547, Control_c, 0, 64, 72
1, 28562, Control_c, 0, 64, 86
1, 28576, Control_c, 0, 64, 94
1, 28586, Note_off_c, 0, 67, 64
1, 28589, Note_on_c, 0, 71, 63
1, 28591, Control_c, 0, 64, 98
1, 28627, Control_c, 0, 64, 97
1, 28628, Note_off_c, 0, 71, 67
1, 28642, Control_c, 0, 64, 88
1, 28644, Note_on_c, 0, 73, 73
1, 28657, Control_c, 0, 64, 71
1, 28672, Control_c, 0, 64, 57
1, 28687, Control_c, 0, 64, 55
1, 28702, Control_c, 0, 64, 64
1, 28717, Control_c, 0, 64, 72
1, 28719, Note_on_c, 0, 68, 60
1, 28719, Note_off_c, 0, 73, 64
1, 28732, Control_c, 0, 64, 83
1, 28739, Note_off_c, 0, 68, 64
1, 28747, Control_c, 0, 64, 88
1, 28763, Note_on_c, 0, 69, 62
1, 28791, Control_c, 0, 64, 89
1, 28796, Note_off_c, 0, 69, 66
1, 28800, Note_on_c, 0, 73, 75
1, 28806, Control_c, 0, 64, 92
1, 28821, Control_c, 0, 64, 93
1, 28832, Note_off_c, 0, 73, 63
1, 28835, Control_c, 0, 64, 88
1, 28850, Control_c, 0, 64, 68
1, 28865, Control_c, 0, 64, 0
1, 28874, Note_on_c, 0, 76, 78
1, 28895, Control_c, 0, 64, 20
1, 28911, Control_c, 0, 64, 60
1, 28920, Note_off_c, 0, 76, 64
1, 28923, Note_on_c, 0, 72, 68
1, 28926, Control_c, 0, 64, 70
1, 28940, Control_c, 0, 64, 79
1, 28950, Note_off_c, 0, 72, 67
1, 28955, Control_c, 0, 64, 80
1, 28970, Control_c, 0, 64, 80
1, 28976, Note_on_c, 0, 75, 71
1, 28985, Control_c, 0, 64, 79
1, 29014, Control_c, 0, 64, 81
1, 29029, Control_c, 0, 64, 84
1, 29036, Note_off_c, 0, 75, 61
1, 29039, Note_on_c, 0, 71, 68
1, 29044, Control_c, 0, 64, 86
1, 29058, Control_c, 0, 64, 84
1, 29065, Note_off_c, 0, 71, 69
1, 29073, Control_c, 0, 64, 73
1, 29088, Control_c, 0, 64, 61
1, 29103, Control_c, 0, 64, 49
1, 29106, Note_on_c, 0, 70, 65
1, 29118, Control_c, 0, 64, 59
1, 29132, Control_c, 0, 64, 68
1, 29147, Control_c, 0, 64, 78
1, 29162, Control_c, 0, 64, 90
1, 29164, Note_on_c, 0, 66, 69
1, 29175, Note_off_c, 0, 70, 63
1, 29177, Control_c, 0, 64, 97
1, 29191, Note_off_c, 0, 66, 68
1, 29192, Control_c, 0, 64, 95
1, 29199, Note_on_c, 0, 67, 60
1, 29206, Control_c, 0, 64, 85
1, 29221, Control_c, 0, 64, 73
1, 29236, Control_c, 0, 64, 70
1, 29247, Note_on_c, 0, 71, 69
1, 29250, Control_c, 0, 64, 72
1, 29251, Note_off_c, 0, 67, 61
1, 29265, Control_c, 0, 64, 78
1, 29279, Note_off_c, 0, 71, 65
1, 29280, Control_c, 0, 64, 87
1, 29295, Control_c, 0, 64, 96
1, 29310, Control_c, 0, 64, 97
1, 29320, Note_on_c, 0, 72, 81
1, 29325, Control_c, 0, 64, 87
1, 29340, Control_c, 0, 64, 73
1, 29355, Control_c, 0, 64, 64
1, 29370, Control_c, 0, 64, 63
1, 29373, Note_on_c, 0, 68, 67
1, 29384, Note_off_c, 0, 72, 64
1, 29392, Control_c, 0, 64, 70
1, 29406, Control_c, 0, 64, 82
1, 29409, Note_on_c, 0, 69, 71
1, 29417, Note_off_c, 0, 68, 63
1, 29421, Control_c, 0, 64, 104
1, 29436, Control_c, 0, 64, 127
1, 29460, Note_off_c, 0, 69, 62
1, 29465, Control_c, 0, 64, 111
1, 29471, Note_on_c, 0, 73, 75
1, 29480, Control_c, 0, 64, 85
1, 29495, Control_c, 0, 64, 64
1, 29509, Note_off_c, 0, 73, 62
1, 29510, Control_c, 0, 64, 47
1, 29525, Note_on_c, 0, 74, 89
1, 29525, Control_c, 0, 64, 65
1, 29540, Control_c, 0, 64, 86
1, 29554, Control_c, 0, 64, 127
1, 29576, Note_on_c, 0, 70, 83
1, 29578, Note_off_c, 0, 74, 65
1, 29611, Note_on_c, 0, 71, 79
1, 29612, Note_off_c, 0, 70, 63
1, 29660, Note_on_c, 0, 75, 84
1, 29664, Note_off_c, 0, 71, 67
1, 29695, Note_off_c, 0, 75, 68
1, 29733, Control_c, 0, 64, 121
1, 29748, Control_c, 0, 64, 76
1, 29749, Note_on_c, 0, 82, 85
1, 29762, Control_c, 0, 64, 0
1, 29763, Note_on_c, 0, 85, 37
1, 29764, Note_off_c, 0, 85, 127
1, 29768, Note_on_c, 0, 80, 71
1, 29783, Note_off_c, 0, 82, 68
1, 29792, Note_on_c, 0, 78, 85
1, 29792, Control_c, 0, 64, 47
1, 29800, Note_off_c, 0, 80, 65
1, 29807, Control_c, 0, 64, 78
1, 29810, Note_off_c, 0, 78, 73
1, 29811, Note_on_c, 0, 75, 86
1, 29822, Control_c, 0, 64, 127
1, 29827, Note_on_c, 0, 73, 89
1, 29828, Note_off_c, 0, 75, 71
1, 29845, Note_on_c, 0, 70, 88
1, 29846, Note_off_c, 0, 73, 71
1, 29863, Note_off_c, 0, 70, 73
1, 29865, Note_on_c, 0, 68, 81
1, 29884, Note_off_c, 0, 68, 73
1, 29888, Note_on_c, 0, 66, 79
1, 29912, Note_off_c, 0, 66, 69
1, 29924, Note_on_c, 0, 70, 25
1, 29949, Note_off_c, 0, 70, 61
1, 30022, Note_on_c, 0, 62, 67
1, 30070, Note_on_c, 0, 64, 75
1, 30076, Note_off_c, 0, 62, 61
1, 30143, Note_on_c, 0, 62, 69
1, 30157, Note_off_c, 0, 64, 61
1, 30192, Note_on_c, 0, 60, 80
1, 30221, Note_off_c, 0, 62, 62
1, 30240, Note_off_c, 0, 60, 65
1, 30258, Control_c, 0, 64, 100
1, 30267, Note_on_c, 0, 82, 92
1, 30273, Control_c, 0, 64, 56
1, 30281, Note_on_c, 0, 80, 81
1, 30288, Control_c, 0, 64, 0
1, 30297, Note_off_c, 0, 82, 69
1, 30301, Note_on_c, 0, 78, 51
1, 30303, Control_c, 0, 64, 27
1, 30313, Note_off_c, 0, 80, 70
1, 30318, Control_c, 0, 64, 71
1, 30325, Note_off_c, 0, 78, 70
1, 30327, Note_on_c, 0, 75, 69
1, 30333, Control_c, 0, 64, 127
1, 30346, Note_off_c, 0, 75, 68
1, 30350, Note_on_c, 0, 73, 82
1, 30365, Note_off_c, 0, 73, 70
1, 30368, Note_on_c, 0, 70, 82
1, 30388, Note_off_c, 0, 70, 71
1, 30390, Note_on_c, 0, 68, 77
1, 30410, Note_off_c, 0, 68, 71
1, 30415, Note_on_c, 0, 66, 80
1, 30437, Note_off_c, 0, 66, 70
1, 30452, Note_on_c, 0, 63, 81
1, 30480, Note_off_c, 0, 63, 67
1, 30501, Note_on_c, 0, 61, 59
1, 30508, Poly_aftertouch_c, 0, 68, 127
1, 30530, Note_off_c, 0, 61, 65
1, 30550, Note_on_c, 0, 62, 58
1, 30552, Poly_aftertouch_c, 0, 68, 0
1, 30556, Note_on_c, 0, 60, 70
1, 30586, Note_off_c, 0, 60, 64
1, 30595, Note_on_c, 0, 64, 78
1, 30596, Note_off_c, 0, 62, 59
1, 30645, Note_on_c, 0, 62, 75
1, 30655, Note_off_c, 0, 64, 63
1, 30689, Note_on_c, 0, 60, 78
1, 30705, Note_off_c, 0, 62, 65
1, 30727, Note_off_c, 0, 60, 66
1, 30792, Control_c, 0, 64, 98
1, 30796, Note_on_c, 0, 97, 88
1, 30803, Note_on_c, 0, 94, 90
1, 30807, Control_c, 0, 64, 61
1, 30810, Note_off_c, 0, 97, 69
1, 30815, Note_on_c, 0, 92, 80
1, 30818, Note_on_c, 0, 90, 64
1, 30819, Note_off_c, 0, 90, 127
1, 30821, Control_c, 0, 64, 0
1, 30837, Note_off_c, 0, 94, 67
1, 30849, Note_on_c, 0, 90, 77
1, 30851, Control_c, 0, 64, 71
1, 30853, Note_off_c, 0, 92, 66
1, 30863, Note_on_c, 0, 87, 87
1, 30866, Control_c, 0, 64, 127
1, 30880, Note_off_c, 0, 90, 69
1, 30890, Note_off_c, 0, 87, 70
1, 30890, Note_on_c, 0, 85, 96
1, 30903, Note_off_c, 0, 85, 75
1, 30913, Note_on_c, 0, 82, 93
1, 30941, Note_off_c, 0, 82, 64
1, 30941, Note_on_c, 0, 80, 89
1, 30960, Note_off_c, 0, 80, 73
1, 30968, Note_on_c, 0, 78, 83
1, 30985, Note_off_c, 0, 78, 73
1, 31006, Note_on_c, 0, 75, 74
1, 31028, Note_off_c, 0, 75, 67
1, 31063, Note_on_c, 0, 76, 84
1, 31090, Note_on_c, 0, 74, 80
1, 31098, Note_off_c, 0, 76, 60
1, 31116, Note_on_c, 0, 72, 91
1, 31117, Note_off_c, 0, 74, 56
1, 31134, Note_off_c, 0, 72, 70
1, 31137, Note_on_c, 0, 71, 92
1, 31154, Note_off_c, 0, 71, 71
1, 31159, Note_on_c, 0, 69, 93
1, 31175, Note_off_c, 0, 69, 74
1, 31179, Note_on_c, 0, 67, 95
1, 31196, Note_off_c, 0, 67, 73
1, 31197, Note_on_c, 0, 65, 97
1, 31215, Note_off_c, 0, 65, 72
1, 31216, Note_on_c, 0, 64, 79
1, 31231, Note_off_c, 0, 64, 72
1, 31260, Note_on_c, 0, 85, 68
1, 31265, Note_on_c, 0, 82, 94
1, 31274, Poly_aftertouch_c, 0, 69, 127
1, 31277, Note_off_c, 0, 85, 40
1, 31290, Note_on_c, 0, 80, 74
1, 31304, Note_off_c, 0, 82, 68
1, 31315, Note_on_c, 0, 78, 92
1, 31319, Poly_aftertouch_c, 0, 69, 0
1, 31325, Note_off_c, 0, 80, 67
1, 31332, Note_off_c, 0, 78, 73
1, 31338, Note_on_c, 0, 75, 88
1, 31348, Poly_aftertouch_c, 0, 62, 0
1, 31349, Control_c, 0, 64, 86
1, 31356, Note_off_c, 0, 75, 70
1, 31362, Note_on_c, 0, 73, 90
1, 31364, Control_c, 0, 64, 61
1, 31379, Control_c, 0, 64, 56
1, 31379, Note_off_c, 0, 73, 73
1, 31388, Note_on_c, 0, 70, 84
1, 31394, Control_c, 0, 64, 74
1, 31408, Control_c, 0, 64, 127
1, 31412, Note_off_c, 0, 70, 67
1, 31412, Note_on_c, 0, 68, 82
1, 31432, Note_off_c, 0, 68, 73
1, 31440, Note_on_c, 0, 66, 76
1, 31458, Note_off_c, 0, 66, 70
1, 31474, Note_on_c, 0, 63, 78
1, 31504, Note_off_c, 0, 63, 67
1, 31528, Note_on_c, 0, 64, 93
1, 31550, Note_on_c, 0, 62, 65
1, 31564, Note_off_c, 0, 64, 67
1, 31576, Poly_aftertouch_c, 0, 66, 0
1, 31576, Note_off_c, 0, 62, 66
1, 31585, Note_on_c, 0, 60, 82
1, 31596, Poly_aftertouch_c, 0, 66, 0
1, 31607, Note_on_c, 0, 59, 79
1, 31609, Note_off_c, 0, 60, 69
1, 31629, Note_off_c, 0, 59, 70
1, 31637, Note_on_c, 0, 57, 69
1, 31654, Note_on_c, 0, 55, 56
1, 31655, Note_off_c, 0, 55, 127
1, 31659, Note_off_c, 0, 57, 63
1, 31672, Note_on_c, 0, 53, 48
1, 31673, Note_off_c, 0, 53, 127
1, 31682, Note_on_c, 0, 52, 50
1, 31683, Note_off_c, 0, 52, 127
1, 31692, Note_on_c, 0, 50, 60
1, 31693, Note_off_c, 0, 50, 127
1, 31702, Note_on_c, 0, 48, 66
1, 31705, Poly_aftertouch_c, 0, 53, 0
1, 31714, Note_on_c, 0, 47, 79
1, 31724, Note_off_c, 0, 48, 62
1, 31740, Note_on_c, 0, 45, 76
1, 31743, Note_off_c, 0, 47, 64
1, 31772, Note_off_c, 0, 45, 67
1, 31792, Note_on_c, 0, 43, 51
1, 31823, Note_off_c, 0, 43, 53
1, 31845, Control_c, 0, 64, 94
1, 31859, Control_c, 0, 64, 55
1, 31874, Control_c, 0, 64, 0
1, 31896, Note_on_c, 0, 37, 104
1, 31933, Control_c, 0, 64, 92
1, 31948, Control_c, 0, 64, 127
1, 32002, Note_off_c, 0, 37, 57
1, 32025, Note_on_c, 0, 39, 61
1, 32076, Note_off_c, 0, 39, 58
1, 32099, Note_on_c, 0, 37, 63
1, 32127, Note_off_c, 0, 37, 62
1, 32166, Note_on_c, 0, 49, 82
1, 32201, Note_off_c, 0, 49, 64
1, 32238, Note_on_c, 0, 51, 76
1, 32276, Note_off_c, 0, 51, 61
1, 32291, Note_on_c, 0, 49, 75
1, 32318, Note_off_c, 0, 49, 64
1, 32351, Note_on_c, 0, 51, 67
1, 32386, Note_off_c, 0, 51, 66
1, 32390, Note_on_c, 0, 49, 73
1, 32436, Note_off_c, 0, 49, 62
1, 32446, Note_on_c, 0, 61, 96
1, 32520, Note_off_c, 0, 61, 62
1, 32523, Note_on_c, 0, 63, 77
1, 32552, Poly_aftertouch_c, 0, 51, 127
1, 32571, Note_off_c, 0, 63, 62
1, 32604, Poly_aftertouch_c, 0, 51, 0
1, 32655, Note_on_c, 0, 63, 72
1, 32656, Poly_aftertouch_c, 0, 61, 127
1, 32675, Note_on_c, 0, 61, 36
1, 32683, Note_off_c, 0, 63, 65
1, 32710, Note_on_c, 0, 49, 67
1, 32718, Note_off_c, 0, 61, 63
1, 32741, Note_off_c, 0, 49, 64
1, 32758, Note_on_c, 0, 51, 66
1, 32798, Note_off_c, 0, 51, 61
1, 32819, Note_on_c, 0, 49, 75
1, 32848, Note_off_c, 0, 49, 64
1, 32890, Note_on_c, 0, 51, 63
1, 32917, Note_off_c, 0, 51, 67
1, 32935, Note_on_c, 0, 49, 44
1, 32966, Note_off_c, 0, 49, 54
1, 32976, Note_on_c, 0, 37, 86
1, 33009, Control_c, 0, 64, 93
1, 33012, Note_off_c, 0, 37, 64
1, 33024, Note_on_c, 0, 39, 73
1, 33024, Control_c, 0, 64, 69
1, 33024, Control_c, 0, 67, 11
1, 33039, Control_c, 0, 64, 52
1, 33039, Control_c, 0, 67, 16
1, 33053, Control_c, 0, 64, 45
1, 33053, Control_c, 0, 67, 24
1, 33063, Note_off_c, 0, 39, 65
1, 33064, Note_on_c, 0, 37, 70
1, 33068, Control_c, 0, 64, 50
1, 33068, Control_c, 0, 67, 34
1, 33081, Note_on_c, 0, 49, 59
1, 33083, Control_c, 0, 64, 56
1, 33083, Control_c, 0, 67, 43
1, 33094, Note_off_c, 0, 37, 62
1, 33097, Control_c, 0, 64, 57
1, 33097, Control_c, 0, 67, 52
1, 33112, Control_c, 0, 64, 55
1, 33112, Control_c, 0, 67, 58
1, 33130, Note_off_c, 0, 49, 63
1, 33135, Control_c, 0, 64, 51
1, 33135, Control_c, 0, 67, 61
1, 33149, Control_c, 0, 64, 50
1, 33155, Note_on_c, 0, 51, 56
1, 33164, Control_c, 0, 64, 51
1, 33164, Control_c, 0, 67, 61
1, 33179, Control_c, 0, 64, 52
1, 33179, Control_c, 0, 67, 62
1, 33190, Note_off_c, 0, 51, 64
1, 33194, Control_c, 0, 64, 54
1, 33194, Control_c, 0, 67, 64
1, 33194, Note_on_c, 0, 49, 69
1, 33209, Control_c, 0, 67, 68
1, 33221, Note_off_c, 0, 49, 66
1, 33223, Control_c, 0, 64, 50
1, 33223, Control_c, 0, 67, 75
1, 33238, Control_c, 0, 64, 45
1, 33238, Control_c, 0, 67, 82
1, 33251, Note_on_c, 0, 36, 67
1, 33253, Control_c, 0, 64, 42
1, 33253, Control_c, 0, 67, 89
1, 33268, Control_c, 0, 64, 43
1, 33268, Control_c, 0, 67, 98
1, 33274, Note_on_c, 0, 38, 79
1, 33283, Control_c, 0, 64, 45
1, 33283, Control_c, 0, 67, 111
1, 33284, Note_off_c, 0, 36, 61
1, 33297, Control_c, 0, 64, 45
1, 33297, Control_c, 0, 67, 122
1, 33312, Control_c, 0, 67, 127
1, 33317, Note_on_c, 0, 49, 67
1, 33324, Note_on_c, 0, 36, 70
1, 33327, Control_c, 0, 64, 45
1, 33329, Note_off_c, 0, 38, 60
1, 33350, Note_off_c, 0, 36, 63
1, 33361, Note_off_c, 0, 49, 64
1, 33372, Control_c, 0, 64, 46
1, 33375, Note_on_c, 0, 51, 70
1, 33386, Control_c, 0, 64, 48
1, 33401, Control_c, 0, 64, 49
1, 33416, Control_c, 0, 64, 50
1, 33418, Note_off_c, 0, 51, 61
1, 33429, Note_on_c, 0, 49, 79
1, 33430, Control_c, 0, 64, 53
1, 33445, Control_c, 0, 64, 57
1, 33458, Note_off_c, 0, 49, 64
1, 33460, Control_c, 0, 64, 57
1, 33475, Control_c, 0, 64, 54
1, 33490, Control_c, 0, 64, 47
1, 33495, Note_on_c, 0, 33, 76
1, 33504, Control_c, 0, 64, 29
1, 33519, Control_c, 0, 64, 32
1, 33528, Note_on_c, 0, 35, 75
1, 33529, Note_off_c, 0, 33, 65
1, 33534, Control_c, 0, 64, 44
1, 33549, Control_c, 0, 64, 55
1, 33564, Control_c, 0, 64, 60
1, 33579, Control_c, 0, 64, 60
1, 33580, Note_on_c, 0, 33, 79
1, 33586, Note_off_c, 0, 35, 63
1, 33594, Control_c, 0, 64, 58
1, 33609, Control_c, 0, 64, 55
1, 33612, Note_off_c, 0, 33, 64
1, 33623, Control_c, 0, 64, 52
1, 33636, Note_on_c, 0, 49, 67
1, 33638, Control_c, 0, 64, 52
1, 33665, Note_off_c, 0, 49, 65
1, 33671, Note_on_c, 0, 51, 66
1, 33698, Control_c, 0, 64, 53
1, 33713, Control_c, 0, 64, 55
1, 33713, Control_c, 0, 67, 124
1, 33716, Note_off_c, 0, 51, 62
1, 33719, Note_on_c, 0, 49, 82
1, 33728, Control_c, 0, 64, 58
1, 33728, Control_c, 0, 67, 119
1, 33743, Control_c, 0, 64, 62
1, 33743, Control_c, 0, 67, 109
1, 33751, Note_off_c, 0, 49, 67
1, 33758, Control_c, 0, 64, 62
1, 33758, Control_c, 0, 67, 91
1, 33772, Control_c, 0, 64, 59
1, 33772, Control_c, 0, 67, 57
1, 33784, Note_on_c, 0, 36, 65
1, 33787, Control_c, 0, 64, 50
1, 33787, Control_c, 0, 67, 9
1, 33802, Control_c, 0, 64, 42
1, 33802, Control_c, 0, 67, 0
1, 33802, Note_on_c, 0, 38, 79
1, 33816, Note_off_c, 0, 36, 60
1, 33817, Control_c, 0, 64, 49
1, 33832, Control_c, 0, 64, 57
1, 33842, Note_off_c, 0, 38, 57
1, 33846, Control_c, 0, 64, 62
1, 33853, Note_on_c, 0, 36, 71
1, 33861, Control_c, 0, 64, 64
1, 33880, Note_on_c, 0, 49, 72
1, 33896, Note_off_c, 0, 36, 64
1, 33898, Control_c, 0, 64, 62
1, 33913, Control_c, 0, 64, 60
1, 33918, Note_off_c, 0, 49, 62
1, 33927, Control_c, 0, 64, 59
1, 33942, Note_on_c, 0, 51, 63
1, 33957, Control_c, 0, 64, 59
1, 33972, Control_c, 0, 64, 60
1, 33987, Note_off_c, 0, 51, 63
1, 33987, Control_c, 0, 64, 61
1, 33997, Note_on_c, 0, 49, 75
1, 34002, Control_c, 0, 64, 62
1, 34017, Control_c, 0, 64, 61
1, 34022, Note_off_c, 0, 49, 65
1, 34032, Control_c, 0, 64, 42
1, 34046, Control_c, 0, 64, 0
1, 34070, Note_on_c, 0, 37, 97
1, 34106, Control_c, 0, 64, 29
1, 34120, Control_c, 0, 64, 87
1, 34135, Control_c, 0, 64, 127
1, 34142, Note_on_c, 0, 49, 9
1, 34145, Note_off_c, 0, 37, 60
1, 34149, Note_on_c, 0, 51, 33
1, 34150, Note_on_c, 0, 39, 78
1, 34201, Note_off_c, 0, 49, 42
1, 34208, Note_off_c, 0, 39, 57
1, 34220, Note_off_c, 0, 51, 38
1, 34238, Note_on_c, 0, 37, 61
1, 34264, Note_off_c, 0, 37, 59
1, 34300, Note_on_c, 0, 39, 64
1, 34331, Note_off_c, 0, 39, 62
1, 34357, Note_on_c, 0, 49, 76
1, 34393, Note_off_c, 0, 49, 60
1, 34407, Note_on_c, 0, 51, 71
1, 34457, Note_off_c, 0, 51, 60
1, 34467, Note_on_c, 0, 49, 79
1, 34512, Note_off_c, 0, 49, 50
1, 34522, Note_on_c, 0, 51, 72
1, 34573, Note_off_c, 0, 51, 63
1, 34574, Note_on_c, 0, 49, 74
1, 34625, Note_on_c, 0, 61, 91
1, 34628, Note_off_c, 0, 49, 59
1, 34632, Control_c, 0, 64, 120
1, 34647, Control_c, 0, 64, 97
1, 34662, Control_c, 0, 64, 96
1, 34676, Control_c, 0, 64, 108
1, 34691, Control_c, 0, 64, 127
1, 34699, Note_off_c, 0, 61, 61
1, 34700, Note_on_c, 0, 63, 77
1, 34743, Note_off_c, 0, 63, 59
1, 34767, Note_on_c, 0, 61, 59
1, 34812, Note_off_c, 0, 61, 59
1, 34825, Control_c, 0, 64, 114
1, 34840, Control_c, 0, 64, 118
1, 34845, Note_on_c, 0, 63, 63
1, 34855, Control_c, 0, 64, 127
1, 34869, Note_off_c, 0, 63, 62
1, 34880, Note_on_c, 0, 61, 62
1, 34883, Note_on_c, 0, 49, 62
1, 34896, Note_off_c, 0, 61, 69
1, 34914, Note_off_c, 0, 49, 64
1, 34940, Note_on_c, 0, 51, 62
1, 34980, Note_off_c, 0, 51, 63
1, 34988, Note_on_c, 0, 49, 69
1, 35021, Note_off_c, 0, 49, 61
1, 35067, Note_on_c, 0, 51, 57
1, 35096, Note_off_c, 0, 51, 64
1, 35102, Note_on_c, 0, 49, 53
1, 35130, Note_off_c, 0, 49, 64
1, 35183, Note_on_c, 0, 49, 73
1, 35195, Control_c, 0, 64, 97
1, 35210, Control_c, 0, 64, 73
1, 35217, Note_off_c, 0, 49, 66
1, 35225, Control_c, 0, 64, 60
1, 35233, Note_on_c, 0, 51, 52
1, 35240, Control_c, 0, 64, 56
1, 35255, Control_c, 0, 64, 60
1, 35263, Note_off_c, 0, 51, 64
1, 35269, Control_c, 0, 64, 63
1, 35282, Note_on_c, 0, 50, 59
1, 35284, Control_c, 0, 64, 64
1, 35292, Note_on_c, 0, 49, 42
1, 35300, Control_c, 0, 64, 62
1, 35314, Note_off_c, 0, 50, 65
1, 35315, Note_off_c, 0, 49, 61
1, 35315, Control_c, 0, 64, 58
1, 35330, Control_c, 0, 64, 54
1, 35337, Note_on_c, 0, 52, 53
1, 35345, Control_c, 0, 64, 55
1, 35360, Control_c, 0, 64, 57
1, 35382, Note_off_c, 0, 52, 64
1, 35382, Control_c, 0, 64, 59
1, 35391, Note_on_c, 0, 50, 70
1, 35397, Control_c, 0, 67, 9
1, 35412, Control_c, 0, 64, 53
1, 35412, Control_c, 0, 67, 12
1, 35420, Note_off_c, 0, 50, 69
1, 35426, Control_c, 0, 64, 37
1, 35426, Control_c, 0, 67, 16
1, 35441, Control_c, 0, 64, 21
1, 35441, Control_c, 0, 67, 22
1, 35442, Note_on_c, 0, 51, 65
1, 35456, Control_c, 0, 64, 37
1, 35456, Control_c, 0, 67, 28
1, 35471, Control_c, 0, 64, 51
1, 35471, Control_c, 0, 67, 34
1, 35474, Note_off_c, 0, 51, 64
1, 35486, Control_c, 0, 64, 60
1, 35486, Control_c, 0, 67, 39
1, 35500, Note_on_c, 0, 54, 46
1, 35500, Control_c, 0, 64, 62
1, 35500, Control_c, 0, 67, 43
1, 35515, Control_c, 0, 64, 59
1, 35515, Control_c, 0, 67, 44
1, 35528, Note_off_c, 0, 54, 59
1, 35530, Note_on_c, 0, 50, 59
1, 35530, Control_c, 0, 64, 53
1, 35543, Note_on_c, 0, 51, 55
1, 35545, Control_c, 0, 64, 49
1, 35560, Control_c, 0, 64, 51
1, 35567, Note_off_c, 0, 50, 68
1, 35567, Note_off_c, 0, 51, 60
1, 35574, Control_c, 0, 64, 53
1, 35588, Note_on_c, 0, 52, 58
1, 35589, Control_c, 0, 64, 56
1, 35604, Control_c, 0, 64, 59
1, 35618, Control_c, 0, 64, 61
1, 35631, Note_off_c, 0, 52, 64
1, 35633, Control_c, 0, 64, 63
1, 35636, Note_on_c, 0, 50, 72
1, 35648, Control_c, 0, 64, 62
1, 35663, Note_off_c, 0, 50, 69
1, 35663, Control_c, 0, 64, 58
1, 35678, Control_c, 0, 64, 45
1, 35686, Note_on_c, 0, 49, 68
1, 35692, Control_c, 0, 64, 31
1, 35707, Control_c, 0, 64, 44
1, 35720, Note_off_c, 0, 49, 64
1, 35722, Control_c, 0, 64, 56
1, 35722, Control_c, 0, 67, 44
1, 35737, Control_c, 0, 64, 62
1, 35737, Control_c, 0, 67, 43
1, 35739, Note_on_c, 0, 51, 54
1, 35752, Control_c, 0, 64, 64
1, 35765, Note_off_c, 0, 51, 58
1, 35767, Control_c, 0, 64, 63
1, 35782, Control_c, 0, 64, 58
1, 35785, Note_on_c, 0, 48, 57
1, 35785, Note_on_c, 0, 49, 57
1, 35797, Control_c, 0, 64, 53
1, 35805, Note_off_c, 0, 49, 64
1, 35811, Control_c, 0, 64, 52
1, 35811, Control_c, 0, 67, 43
1, 35820, Note_off_c, 0, 48, 63
1, 35826, Control_c, 0, 64, 55
1, 35826, Control_c, 0, 67, 42
1, 35841, Control_c, 0, 64, 58
1, 35841, Control_c, 0, 67, 42
1, 35842, Note_on_c, 0, 50, 55
1, 35856, Control_c, 0, 64, 62
1, 35856, Control_c, 0, 67, 41
1, 35871, Control_c, 0, 64, 65
1, 35877, Note_off_c, 0, 50, 67
1, 35889, Note_on_c, 0, 48, 54
1, 35900, Control_c, 0, 64, 60
1, 35913, Note_off_c, 0, 48, 59
1, 35915, Control_c, 0, 64, 38
1, 35930, Control_c, 0, 64, 0
1, 35930, Control_c, 0, 67, 40
1, 35934, Note_on_c, 0, 45, 68
1, 35945, Control_c, 0, 67, 39
1, 35960, Control_c, 0, 64, 34
1, 35960, Control_c, 0, 67, 39
1, 35962, Note_off_c, 0, 45, 65
1, 35974, Control_c, 0, 64, 59
1, 35989, Control_c, 0, 64, 63
1, 35990, Note_on_c, 0, 47, 34
1, 36003, Note_on_c, 0, 48, 56
1, 36004, Control_c, 0, 64, 64
1, 36018, Control_c, 0, 64, 63
1, 36025, Note_off_c, 0, 47, 54
1, 36033, Control_c, 0, 64, 60
1, 36047, Note_off_c, 0, 48, 64
1, 36048, Control_c, 0, 64, 57
1, 36048, Control_c, 0, 67, 38
1, 36049, Note_on_c, 0, 45, 18
1, 36063, Control_c, 0, 64, 58
1, 36063, Control_c, 0, 67, 38
1, 36072, Note_on_c, 0, 50, 65
1, 36078, Control_c, 0, 64, 59
1, 36078, Control_c, 0, 67, 37
1, 36092, Note_off_c, 0, 45, 31
1, 36094, Control_c, 0, 64, 61
1, 36115, Control_c, 0, 64, 63
1, 36115, Control_c, 0, 67, 37
1, 36126, Note_off_c, 0, 50, 65
1, 36130, Control_c, 0, 64, 65
1, 36130, Control_c, 0, 67, 37
1, 36136, Note_on_c, 0, 48, 65
1, 36145, Control_c, 0, 64, 65
1, 36145, Control_c, 0, 67, 38
1, 36160, Control_c, 0, 64, 63
1, 36164, Note_off_c, 0, 48, 64
1, 36175, Control_c, 0, 64, 48
1, 36190, Control_c, 0, 64, 0
1, 36190, Control_c, 0, 67, 37
1, 36195, Note_on_c, 0, 49, 75
1, 36205, Control_c, 0, 67, 36
1, 36220, Control_c, 0, 64, 26
1, 36220, Control_c, 0, 67, 35
1, 36235, Control_c, 0, 64, 51
1, 36235, Control_c, 0, 67, 33
1, 36238, Note_off_c, 0, 49, 63
1, 36249, Control_c, 0, 64, 59
1, 36249, Control_c, 0, 67, 31
1, 36250, Note_on_c, 0, 51, 70
1, 36264, Control_c, 0, 64, 61
1, 36264, Control_c, 0, 67, 27
1, 36279, Control_c, 0, 64, 58
1, 36279, Control_c, 0, 67, 21
1, 36282, Note_off_c, 0, 51, 63
1, 36289, Note_on_c, 0, 50, 67
1, 36294, Control_c, 0, 64, 54
1, 36294, Control_c, 0, 67, 13
1, 36303, Note_on_c, 0, 49, 59
1, 36309, Control_c, 0, 64, 51
1, 36309, Control_c, 0, 67, 0
1, 36323, Note_off_c, 0, 50, 67
1, 36323, Control_c, 0, 64, 52
1, 36327, Note_off_c, 0, 49, 59
1, 36338, Control_c, 0, 64, 53
1, 36353, Control_c, 0, 64, 55
1, 36355, Note_on_c, 0, 52, 49
1, 36367, Control_c, 0, 64, 57
1, 36382, Control_c, 0, 64, 59
1, 36387, Note_on_c, 0, 50, 76
1, 36391, Note_off_c, 0, 52, 65
1, 36396, Control_c, 0, 64, 61
1, 36411, Control_c, 0, 64, 63
1, 36418, Note_off_c, 0, 50, 70
1, 36426, Control_c, 0, 64, 62
1, 36440, Control_c, 0, 64, 49
1, 36454, Note_on_c, 0, 51, 59
1, 36455, Control_c, 0, 64, 0
1, 36485, Note_off_c, 0, 51, 64
1, 36500, Control_c, 0, 64, 35
1, 36501, Note_on_c, 0, 54, 59
1, 36515, Control_c, 0, 64, 57
1, 36529, Note_off_c, 0, 54, 65
1, 36530, Control_c, 0, 64, 62
1, 36539, Note_on_c, 0, 50, 59
1, 36554, Note_on_c, 0, 51, 60
1, 36560, Control_c, 0, 64, 59
1, 36575, Control_c, 0, 64, 57
1, 36576, Note_off_c, 0, 50, 68
1, 36580, Note_off_c, 0, 51, 58
1, 36589, Control_c, 0, 64, 58
1, 36599, Note_on_c, 0, 52, 54
1, 36604, Control_c, 0, 64, 60
1, 36619, Control_c, 0, 64, 63
1, 36634, Control_c, 0, 64, 66
1, 36638, Note_off_c, 0, 52, 67
1, 36648, Note_on_c, 0, 50, 65
1, 36663, Control_c, 0, 64, 62
1, 36678, Control_c, 0, 64, 47
1, 36679, Note_off_c, 0, 50, 68
1, 36688, Note_on_c, 0, 49, 70
1, 36693, Control_c, 0, 64, 0
1, 36722, Control_c, 0, 64, 35
1, 36727, Note_off_c, 0, 49, 64
1, 36737, Control_c, 0, 64, 59
1, 36752, Control_c, 0, 64, 64
1, 36761, Note_on_c, 0, 51, 44
1, 36766, Control_c, 0, 64, 67
1, 36781, Control_c, 0, 64, 68
1, 36795, Note_off_c, 0, 51, 54
1, 36798, Note_on_c, 0, 48, 59
1, 36807, Note_on_c, 0, 49, 61
1, 36811, Control_c, 0, 64, 67
1, 36826, Control_c, 0, 64, 64
1, 36827, Note_off_c, 0, 48, 65
1, 36829, Note_off_c, 0, 49, 61
1, 36840, Control_c, 0, 64, 58
1, 36847, Note_on_c, 0, 50, 54
1, 36855, Control_c, 0, 64, 46
1, 36878, Control_c, 0, 64, 50
1, 36893, Control_c, 0, 64, 58
1, 36899, Note_off_c, 0, 50, 66
1, 36902, Note_on_c, 0, 48, 64
1, 36908, Control_c, 0, 64, 63
1, 36923, Control_c, 0, 64, 65
1, 36931, Note_off_c, 0, 48, 65
1, 36938, Control_c, 0, 64, 61
1, 36953, Control_c, 0, 64, 39
1, 36962, Note_on_c, 0, 45, 69
1, 36968, Control_c, 0, 64, 0
1, 36991, Note_on_c, 0, 47, 59
1, 36991, Note_off_c, 0, 45, 64
1, 36998, Control_c, 0, 64, 43
1, 37013, Control_c, 0, 64, 61
1, 37023, Note_off_c, 0, 47, 55
1, 37027, Control_c, 0, 64, 68
1, 37042, Control_c, 0, 64, 71
1, 37048, Note_on_c, 0, 48, 43
1, 37051, Note_on_c, 0, 45, 61
1, 37057, Control_c, 0, 64, 70
1, 37071, Control_c, 0, 64, 68
1, 37075, Note_off_c, 0, 45, 59
1, 37078, Note_off_c, 0, 48, 62
1, 37086, Control_c, 0, 64, 66
1, 37099, Note_on_c, 0, 50, 62
1, 37116, Control_c, 0, 64, 66
1, 37131, Control_c, 0, 64, 68
1, 37138, Note_off_c, 0, 50, 67
1, 37145, Control_c, 0, 64, 69
1, 37150, Note_on_c, 0, 48, 62
1, 37160, Control_c, 0, 64, 70
1, 37175, Control_c, 0, 64, 68
1, 37177, Note_off_c, 0, 48, 60
1, 37190, Control_c, 0, 64, 63
1, 37205, Control_c, 0, 64, 45
1, 37219, Control_c, 0, 64, 40
1, 37226, Note_on_c, 0, 49, 73
1, 37234, Control_c, 0, 64, 50
1, 37239, Note_on_c, 0, 55, 64
1, 37249, Control_c, 0, 64, 58
1, 37263, Control_c, 0, 64, 61
1, 37278, Control_c, 0, 64, 60
1, 37280, Note_off_c, 0, 55, 59
1, 37285, Note_off_c, 0, 49, 61
1, 37288, Note_on_c, 0, 53, 64
1, 37293, Control_c, 0, 64, 55
1, 37296, Note_on_c, 0, 51, 63
1, 37308, Control_c, 0, 64, 43
1, 37323, Note_off_c, 0, 53, 68
1, 37323, Control_c, 0, 64, 40
1, 37324, Note_off_c, 0, 51, 65
1, 37338, Control_c, 0, 64, 43
1, 37353, Control_c, 0, 64, 46
1, 37355, Note_on_c, 0, 52, 49
1, 37367, Control_c, 0, 64, 49
1, 37376, Note_on_c, 0, 56, 54
1, 37382, Control_c, 0, 64, 51
1, 37384, Note_off_c, 0, 52, 59
1, 37395, Note_on_c, 0, 50, 57
1, 37397, Control_c, 0, 64, 49
1, 37404, Note_off_c, 0, 56, 63
1, 37412, Control_c, 0, 64, 43
1, 37426, Note_on_c, 0, 54, 37
1, 37427, Control_c, 0, 64, 35
1, 37433, Note_off_c, 0, 50, 67
1, 37442, Control_c, 0, 64, 38
1, 37457, Control_c, 0, 64, 46
1, 37458, Note_on_c, 0, 52, 54
1, 37460, Note_off_c, 0, 54, 58
1, 37471, Control_c, 0, 64, 53
1, 37472, Note_on_c, 0, 51, 44
1, 37486, Control_c, 0, 64, 58
1, 37496, Note_off_c, 0, 52, 65
1, 37501, Control_c, 0, 64, 55
1, 37512, Note_on_c, 0, 55, 65
1, 37513, Note_off_c, 0, 51, 61
1, 37516, Control_c, 0, 64, 48
1, 37516, Note_on_c, 0, 49, 61
1, 37531, Control_c, 0, 64, 37
1, 37545, Control_c, 0, 64, 39
1, 37548, Note_off_c, 0, 55, 61
1, 37558, Note_off_c, 0, 49, 64
1, 37560, Control_c, 0, 64, 48
1, 37562, Note_on_c, 0, 53, 53
1, 37575, Control_c, 0, 64, 54
1, 37587, Note_on_c, 0, 54, 30
1, 37589, Control_c, 0, 64, 59
1, 37592, Note_off_c, 0, 53, 65
1, 37604, Note_on_c, 0, 52, 43
1, 37627, Control_c, 0, 64, 58
1, 37627, Note_on_c, 0, 56, 55
1, 37628, Note_off_c, 0, 54, 49
1, 37642, Control_c, 0, 64, 57
1, 37644, Note_off_c, 0, 52, 62
1, 37651, Note_on_c, 0, 50, 58
1, 37657, Control_c, 0, 64, 58
1, 37661, Note_off_c, 0, 56, 65
1, 37671, Control_c, 0, 64, 60
1, 37686, Control_c, 0, 64, 62
1, 37689, Note_off_c, 0, 50, 65
1, 37701, Control_c, 0, 64, 64
1, 37707, Note_on_c, 0, 54, 40
1, 37709, Note_on_c, 0, 52, 55
1, 37731, Control_c, 0, 64, 60
1, 37738, Note_off_c, 0, 54, 57
1, 37746, Note_on_c, 0, 51, 51
1, 37746, Control_c, 0, 64, 49
1, 37757, Note_off_c, 0, 52, 63
1, 37761, Control_c, 0, 64, 33
1, 37776, Control_c, 0, 64, 47
1, 37776, Note_off_c, 0, 51, 63
1, 37785, Note_on_c, 0, 49, 58
1, 37789, Note_on_c, 0, 53, 47
1, 37791, Control_c, 0, 64, 57
1, 37800, Note_on_c, 0, 55, 43
1, 37806, Control_c, 0, 64, 61
1, 37820, Control_c, 0, 64, 58
1, 37829, Note_off_c, 0, 49, 63
1, 37831, Note_off_c, 0, 55, 52
1, 37835, Control_c, 0, 64, 45
1, 37841, Note_off_c, 0, 53, 64
1, 37850, Control_c, 0, 64, 0
1, 37859, Note_on_c, 0, 52, 52
1, 37869, Note_on_c, 0, 56, 51
1, 37880, Control_c, 0, 64, 20
1, 37890, Note_off_c, 0, 52, 64
1, 37895, Control_c, 0, 64, 49
1, 37897, Note_off_c, 0, 56, 57
1, 37901, Note_on_c, 0, 54, 24
1, 37908, Note_on_c, 0, 50, 49
1, 37910, Control_c, 0, 64, 59
1, 37925, Control_c, 0, 64, 60
1, 37940, Control_c, 0, 64, 57
1, 37944, Note_off_c, 0, 50, 66
1, 37955, Control_c, 0, 64, 53
1, 37961, Note_on_c, 0, 52, 59
1, 37964, Note_off_c, 0, 54, 61
1, 37975, Note_on_c, 0, 51, 58
1, 37984, Control_c, 0, 64, 56
1, 37999, Control_c, 0, 64, 58
1, 38005, Note_off_c, 0, 52, 63
1, 38013, Control_c, 0, 64, 59
1, 38022, Note_off_c, 0, 51, 61
1, 38028, Control_c, 0, 64, 60
1, 38034, Note_on_c, 0, 49, 58
1, 38037, Note_on_c, 0, 53, 49
1, 38043, Control_c, 0, 64, 59
1, 38058, Control_c, 0, 64, 60
1, 38060, Note_on_c, 0, 55, 57
1, 38065, Note_off_c, 0, 49, 64
1, 38072, Note_off_c, 0, 53, 64
1, 38073, Control_c, 0, 64, 63
1, 38087, Control_c, 0, 64, 64
1, 38088, Note_off_c, 0, 55, 62
1, 38102, Control_c, 0, 64, 65
1, 38117, Control_c, 0, 64, 62
1, 38132, Control_c, 0, 64, 57
1, 38147, Control_c, 0, 64, 49
1, 38161, Control_c, 0, 64, 52
1, 38176, Control_c, 0, 64, 55
1, 38191, Control_c, 0, 64, 58
1, 38206, Control_c, 0, 64, 58
1, 38220, Control_c, 0, 64, 47
1, 38235, Control_c, 0, 64, 0
1, 38256, Note_on_c, 0, 37, 79
1, 38280, Control_c, 0, 64, 35
1, 38283, Note_off_c, 0, 37, 65
1, 38295, Control_c, 0, 64, 59
1, 38309, Control_c, 0, 64, 63
1, 38324, Control_c, 0, 64, 62
1, 38339, Control_c, 0, 64, 58
1, 38354, Control_c, 0, 64, 54
1, 38376, Control_c, 0, 64, 55
1, 38391, Control_c, 0, 64, 56
1, 38406, Control_c, 0, 64, 58
1, 38420, Control_c, 0, 64, 58
1, 38450, Control_c, 0, 64, 58
1, 38480, Control_c, 0, 64, 58
1, 38511, Control_c, 0, 64, 59
1, 38525, Control_c, 0, 64, 58
1, 38540, Control_c, 0, 64, 58
1, 38555, Control_c, 0, 64, 57
1, 38567, Note_on_c, 0, 55, 57
1, 38603, Note_on_c, 0, 50, 32
1, 38605, Note_off_c, 0, 55, 62
1, 38607, Note_on_c, 0, 53, 58
1, 38625, Note_on_c, 0, 51, 59
1, 38629, Control_c, 0, 64, 56
1, 38643, Note_off_c, 0, 50, 56
1, 38643, Control_c, 0, 64, 55
1, 38645, Note_off_c, 0, 53, 64
1, 38655, Note_on_c, 0, 52, 53
1, 38658, Control_c, 0, 64, 54
1, 38659, Note_off_c, 0, 51, 61
1, 38685, Note_off_c, 0, 52, 65
1, 38688, Control_c, 0, 64, 54
1, 38693, Note_on_c, 0, 54, 37
1, 38710, Note_on_c, 0, 50, 43
1, 38712, Note_on_c, 0, 56, 60
1, 38718, Control_c, 0, 64, 54
1, 38733, Note_off_c, 0, 54, 46
1, 38742, Note_off_c, 0, 56, 65
1, 38748, Note_off_c, 0, 50, 65
1, 38763, Control_c, 0, 64, 54
1, 38767, Note_on_c, 0, 52, 54
1, 38784, Note_on_c, 0, 54, 34
1, 38792, Control_c, 0, 64, 54
1, 38807, Control_c, 0, 64, 55
1, 38808, Note_off_c, 0, 52, 64
1, 38819, Note_off_c, 0, 54, 55
1, 38822, Control_c, 0, 64, 56
1, 38836, Control_c, 0, 64, 56
1, 38844, Note_on_c, 0, 55, 59
1, 38849, Note_on_c, 0, 49, 62
1, 38849, Note_on_c, 0, 51, 3
1, 38852, Note_on_c, 0, 53, 34
1, 38866, Control_c, 0, 64, 56
1, 38879, Note_off_c, 0, 55, 63
1, 38901, Note_on_c, 0, 52, 55
1, 38906, Note_off_c, 0, 53, 65
1, 38907, Note_off_c, 0, 49, 59
1, 38940, Control_c, 0, 64, 56
1, 38942, Note_on_c, 0, 54, 30
1, 38944, Note_off_c, 0, 52, 64
1, 38971, Note_on_c, 0, 50, 53
1, 38972, Note_off_c, 0, 51, 21
1, 38984, Note_off_c, 0, 54, 62
1, 39005, Note_on_c, 0, 56, 47
1, 39005, Note_off_c, 0, 50, 66
1, 39021, Note_on_c, 0, 52, 57
1, 39029, Control_c, 0, 64, 56
1, 39034, Note_off_c, 0, 56, 55
1, 39043, Control_c, 0, 64, 53
1, 39058, Control_c, 0, 64, 50
1, 39065, Note_off_c, 0, 52, 62
1, 39073, Note_on_c, 0, 54, 33
1, 39073, Control_c, 0, 64, 48
1, 39088, Note_on_c, 0, 51, 38
1, 39088, Control_c, 0, 64, 51
1, 39094, Note_on_c, 0, 53, 53
1, 39103, Control_c, 0, 64, 54
1, 39103, Control_c, 0, 67, 8
1, 39119, Note_off_c, 0, 54, 56
1, 39122, Note_on_c, 0, 55, 51
1, 39125, Control_c, 0, 64, 57
1, 39125, Control_c, 0, 67, 11
1, 39130, Note_off_c, 0, 51, 57
1, 39138, Note_on_c, 0, 49, 58
1, 39140, Control_c, 0, 64, 59
1, 39140, Control_c, 0, 67, 15
1, 39144, Note_off_c, 0, 53, 57
1, 39150, Note_off_c, 0, 55, 59
1, 39155, Control_c, 0, 64, 58
1, 39155, Control_c, 0, 67, 19
1, 39169, Control_c, 0, 64, 57
1, 39169, Control_c, 0, 67, 25
1, 39184, Control_c, 0, 64, 56
1, 39184, Control_c, 0, 67, 31
1, 39191, Note_on_c, 0, 52, 50
1, 39192, Note_off_c, 0, 49, 59
1, 39199, Control_c, 0, 64, 56
1, 39199, Control_c, 0, 67, 36
1, 39214, Control_c, 0, 64, 55
1, 39214, Control_c, 0, 67, 40
1, 39222, Note_off_c, 0, 52, 61
1, 39229, Control_c, 0, 67, 46
1, 39234, Note_on_c, 0, 50, 51
1, 39239, Note_on_c, 0, 51, 15
1, 39242, Note_on_c, 0, 54, 21
1, 39243, Control_c, 0, 67, 51
1, 39258, Control_c, 0, 64, 55
1, 39258, Control_c, 0, 67, 56
1, 39273, Control_c, 0, 64, 54
1, 39273, Control_c, 0, 67, 59
1, 39275, Note_off_c, 0, 50, 66
1, 39281, Note_off_c, 0, 54, 60
1, 39286, Note_off_c, 0, 51, 50
1, 39289, Control_c, 0, 64, 54
1, 39289, Control_c, 0, 67, 62
1, 39291, Note_on_c, 0, 56, 43
1, 39298, Note_on_c, 0, 52, 58
1, 39304, Control_c, 0, 64, 53
1, 39304, Control_c, 0, 67, 65
1, 39319, Control_c, 0, 64, 51
1, 39319, Control_c, 0, 67, 71
1, 39321, Note_off_c, 0, 56, 58
1, 39334, Control_c, 0, 64, 49
1, 39334, Control_c, 0, 67, 77
1, 39343, Note_off_c, 0, 52, 61
1, 39348, Control_c, 0, 64, 45
1, 39348, Control_c, 0, 67, 84
1, 39361, Note_on_c, 0, 54, 47
1, 39363, Control_c, 0, 64, 37
1, 39363, Control_c, 0, 67, 93
1, 39378, Control_c, 0, 64, 25
1, 39378, Control_c, 0, 67, 102
1, 39393, Note_off_c, 0, 54, 64
1, 39393, Control_c, 0, 64, 0
1, 39393, Control_c, 0, 67, 113
1, 39394, Note_on_c, 0, 53, 37
1, 39408, Control_c, 0, 67, 122
1, 39418, Note_on_c, 0, 51, 47
1, 39422, Control_c, 0, 64, 9
1, 39422, Control_c, 0, 67, 127
1, 39437, Control_c, 0, 64, 29
1, 39452, Control_c, 0, 64, 44
1, 39460, Note_off_c, 0, 53, 55
1, 39466, Note_on_c, 0, 55, 51
1, 39466, Control_c, 0, 64, 55
1, 39477, Note_off_c, 0, 51, 59
1, 39481, Control_c, 0, 64, 61
1, 39496, Control_c, 0, 64, 63
1, 39498, Note_on_c, 0, 49, 49
1, 39511, Control_c, 0, 64, 64
1, 39517, Note_off_c, 0, 55, 57
1, 39605, Note_on_c, 0, 51, 50
1, 39625, Note_off_c, 0, 49, 46
1, 39630, Control_c, 0, 64, 64
1, 39645, Control_c, 0, 64, 62
1, 39659, Control_c, 0, 64, 57
1, 39674, Control_c, 0, 64, 44
1, 39681, Note_off_c, 0, 51, 60
1, 39687, Note_on_c, 0, 52, 50
1, 39689, Control_c, 0, 64, 0
1, 39729, Note_off_c, 0, 52, 62
1, 39753, Note_on_c, 0, 53, 46
1, 39807, Control_c, 0, 64, 26
1, 39822, Control_c, 0, 64, 56
1, 39837, Control_c, 0, 64, 64
1, 39848, Note_off_c, 0, 53, 54
1, 39852, Control_c, 0, 64, 68
1, 39874, Control_c, 0, 64, 73
1, 39887, Note_on_c, 0, 55, 42
1, 39889, Control_c, 0, 64, 75
1, 39904, Control_c, 0, 64, 77
1, 39919, Control_c, 0, 64, 78
1, 39973, Note_off_c, 0, 55, 44
1, 39992, Control_c, 0, 64, 78
1, 40007, Control_c, 0, 64, 76
1, 40022, Control_c, 0, 64, 75
1, 40037, Control_c, 0, 64, 74
1, 40051, Note_on_c, 0, 56, 53
1, 40066, Control_c, 0, 64, 75
1, 40081, Control_c, 0, 64, 75
1, 40094, Note_off_c, 0, 56, 64
1, 40170, Control_c, 0, 64, 76
1, 40185, Control_c, 0, 64, 76
1, 40378, Control_c, 0, 64, 76
1, 40407, Control_c, 0, 64, 75
1, 40437, Control_c, 0, 64, 75
1, 40452, Control_c, 0, 64, 74
1, 40467, Control_c, 0, 64, 74
1, 40481, Control_c, 0, 64, 73
1, 40496, Control_c, 0, 64, 73
1, 40500, Note_on_c, 0, 59, 35
1, 40511, Control_c, 0, 64, 71
1, 40526, Control_c, 0, 64, 69
1, 40541, Control_c, 0, 64, 64
1, 40555, Control_c, 0, 64, 57
1, 40557, Note_off_c, 0, 59, 51
1, 40570, Control_c, 0, 64, 40
1, 40578, Note_on_c, 0, 61, 44
1, 40585, Control_c, 0, 64, 0
1, 40647, Note_off_c, 0, 61, 58
1, 40652, Note_on_c, 0, 63, 43
1, 40652, Control_c, 0, 64, 17
1, 40667, Control_c, 0, 64, 39
1, 40682, Control_c, 0, 64, 51
1, 40690, Note_off_c, 0, 63, 63
1, 40696, Control_c, 0, 64, 57
1, 40701, Note_on_c, 0, 65, 39
1, 40711, Control_c, 0, 64, 58
1, 40726, Control_c, 0, 64, 56
1, 40734, Note_off_c, 0, 65, 50
1, 40741, Control_c, 0, 64, 56
1, 40747, Note_on_c, 0, 66, 46
1, 40783, Note_off_c, 0, 66, 65
1, 40785, Control_c, 0, 64, 56
1, 40814, Control_c, 0, 64, 56
1, 40828, Note_on_c, 0, 65, 29
1, 40844, Control_c, 0, 64, 57
1, 40853, Note_on_c, 0, 63, 54
1, 40860, Control_c, 0, 64, 58
1, 40867, Note_off_c, 0, 65, 47
1, 40875, Control_c, 0, 64, 58
1, 40888, Note_on_c, 0, 61, 64
1, 40891, Control_c, 0, 64, 55
1, 40906, Control_c, 0, 64, 48
1, 40909, Note_off_c, 0, 63, 0
1, 40916, Note_off_c, 0, 61, 65
1, 40920, Control_c, 0, 64, 37
1, 40935, Control_c, 0, 64, 33
1, 40947, Poly_aftertouch_c, 0, 63, 127
1, 40950, Control_c, 0, 64, 40
1, 40965, Control_c, 0, 64, 47
1, 40968, Note_on_c, 0, 65, 47
1, 40980, Control_c, 0, 64, 53
1, 40984, Poly_aftertouch_c, 0, 63, 0
1, 40994, Control_c, 0, 64, 53
1, 41009, Control_c, 0, 64, 49
1, 41024, Control_c, 0, 64, 44
1, 41037, Note_on_c, 0, 66, 66
1, 41038, Control_c, 0, 64, 39
1, 41049, Note_off_c, 0, 65, 59
1, 41053, Control_c, 0, 64, 39
1, 41068, Control_c, 0, 64, 43
1, 41083, Control_c, 0, 64, 48
1, 41085, Note_off_c, 0, 66, 59
1, 41098, Control_c, 0, 64, 52
1, 41111, Note_on_c, 0, 68, 49
1, 41112, Control_c, 0, 64, 54
1, 41135, Note_off_c, 0, 68, 59
1, 41142, Note_on_c, 0, 70, 56
1, 41142, Control_c, 0, 64, 53
1, 41157, Control_c, 0, 64, 51
1, 41181, Note_off_c, 0, 70, 60
1, 41186, Control_c, 0, 64, 52
1, 41201, Control_c, 0, 64, 53
1, 41205, Note_on_c, 0, 68, 61
1, 41216, Control_c, 0, 64, 55
1, 41231, Control_c, 0, 64, 55
1, 41240, Note_off_c, 0, 68, 64
1, 41246, Control_c, 0, 64, 56
1, 41255, Note_on_c, 0, 66, 52
1, 41275, Control_c, 0, 64, 56
1, 41290, Note_off_c, 0, 66, 63
1, 41290, Control_c, 0, 64, 58
1, 41293, Note_on_c, 0, 65, 66
1, 41305, Control_c, 0, 64, 62
1, 41314, Note_off_c, 0, 65, 64
1, 41320, Control_c, 0, 64, 64
1, 41335, Control_c, 0, 64, 65
1, 41350, Control_c, 0, 64, 62
1, 41371, Control_c, 0, 64, 54
1, 41376, Note_on_c, 0, 63, 58
1, 41386, Control_c, 0, 64, 27
1, 41401, Control_c, 0, 64, 0
1, 41405, Note_on_c, 0, 65, 50
1, 41416, Control_c, 0, 64, 37
1, 41421, Note_off_c, 0, 63, 61
1, 41431, Control_c, 0, 64, 55
1, 41445, Control_c, 0, 64, 62
1, 41460, Control_c, 0, 64, 64
1, 41468, Note_off_c, 0, 65, 53
1, 41471, Note_on_c, 0, 66, 52
1, 41475, Control_c, 0, 64, 64
1, 41490, Control_c, 0, 64, 61
1, 41505, Control_c, 0, 64, 56
1, 41511, Note_off_c, 0, 66, 62
1, 41520, Control_c, 0, 64, 55
1, 41527, Note_on_c, 0, 68, 59
1, 41535, Control_c, 0, 64, 58
1, 41550, Control_c, 0, 64, 60
1, 41553, Note_off_c, 0, 68, 66
1, 41564, Control_c, 0, 64, 63
1, 41579, Control_c, 0, 64, 64
1, 41582, Note_on_c, 0, 66, 46
1, 41594, Control_c, 0, 64, 64
1, 41609, Control_c, 0, 64, 63
1, 41624, Control_c, 0, 64, 62
1, 41638, Control_c, 0, 64, 61
1, 41640, Note_on_c, 0, 65, 59
1, 41651, Note_off_c, 0, 66, 46
1, 41675, Note_off_c, 0, 65, 62
1, 41702, Note_on_c, 0, 63, 55
1, 41714, Control_c, 0, 64, 61
1, 41729, Control_c, 0, 64, 62
1, 41732, Note_off_c, 0, 63, 65
1, 41743, Control_c, 0, 64, 63
1, 41746, Note_on_c, 0, 61, 57
1, 41771, Note_off_c, 0, 61, 64
1, 41773, Control_c, 0, 64, 62
1, 41787, Control_c, 0, 64, 58
1, 41802, Control_c, 0, 64, 48
1, 41812, Note_on_c, 0, 59, 41
1, 41817, Control_c, 0, 64, 32
1, 41847, Control_c, 0, 64, 42
1, 41849, Note_off_c, 0, 59, 59
1, 41860, Note_on_c, 0, 61, 48
1, 41861, Control_c, 0, 64, 52
1, 41876, Control_c, 0, 64, 57
1, 41891, Control_c, 0, 64, 58
1, 41904, Note_off_c, 0, 61, 60
1, 41906, Control_c, 0, 64, 54
1, 41919, Note_on_c, 0, 63, 51
1, 41921, Control_c, 0, 64, 43
1, 41935, Control_c, 0, 64, 0
1, 41965, Note_off_c, 0, 63, 60
1, 41975, Note_on_c, 0, 65, 43
1, 41979, Control_c, 0, 64, 35
1, 41994, Control_c, 0, 64, 49
1, 42009, Control_c, 0, 64, 55
1, 42011, Note_on_c, 0, 66, 49
1, 42013, Note_off_c, 0, 65, 55
1, 42024, Control_c, 0, 64, 56
1, 42039, Control_c, 0, 64, 55
1, 42053, Control_c, 0, 64, 54
1, 42062, Note_off_c, 0, 66, 57
1, 42083, Control_c, 0, 64, 54
1, 42090, Note_on_c, 0, 65, 24
1, 42121, Control_c, 0, 64, 55
1, 42131, Note_on_c, 0, 63, 45
1, 42134, Note_off_c, 0, 65, 51
1, 42135, Control_c, 0, 64, 56
1, 42150, Control_c, 0, 64, 57
1, 42165, Control_c, 0, 64, 59
1, 42172, Note_off_c, 0, 63, 63
1, 42180, Control_c, 0, 64, 61
1, 42193, Note_on_c, 0, 61, 48
1, 42194, Control_c, 0, 64, 62
1, 42209, Control_c, 0, 64, 60
1, 42220, Note_off_c, 0, 61, 59
1, 42224, Control_c, 0, 64, 55
1, 42239, Control_c, 0, 64, 45
1, 42246, Note_on_c, 0, 59, 46
1, 42254, Control_c, 0, 64, 38
1, 42268, Control_c, 0, 64, 45
1, 42280, Note_off_c, 0, 59, 62
1, 42283, Control_c, 0, 64, 53
1, 42298, Control_c, 0, 64, 58
1, 42312, Note_on_c, 0, 60, 33
1, 42313, Control_c, 0, 64, 60
1, 42328, Control_c, 0, 64, 59
1, 42343, Control_c, 0, 64, 56
1, 42343, Note_off_c, 0, 60, 55
1, 42350, Note_on_c, 0, 62, 48
1, 42357, Control_c, 0, 64, 55
1, 42372, Control_c, 0, 64, 57
1, 42384, Note_off_c, 0, 62, 64
1, 42387, Control_c, 0, 64, 59
1, 42402, Control_c, 0, 64, 61
1, 42415, Note_on_c, 0, 64, 41
1, 42417, Control_c, 0, 64, 63
1, 42432, Control_c, 0, 64, 64
1, 42447, Note_off_c, 0, 64, 60
1, 42469, Note_on_c, 0, 65, 53
1, 42476, Control_c, 0, 64, 63
1, 42492, Control_c, 0, 64, 63
1, 42507, Note_off_c, 0, 65, 62
1, 42536, Note_on_c, 0, 64, 43
1, 42536, Control_c, 0, 64, 62
1, 42563, Note_off_c, 0, 64, 56
1, 42566, Control_c, 0, 64, 63
1, 42568, Note_on_c, 0, 62, 55
1, 42596, Control_c, 0, 64, 63
1, 42601, Note_off_c, 0, 62, 64
1, 42625, Control_c, 0, 64, 64
1, 42629, Note_on_c, 0, 60, 31
1, 42640, Control_c, 0, 64, 63
1, 42655, Control_c, 0, 64, 58
1, 42665, Note_off_c, 0, 60, 54
1, 42670, Control_c, 0, 64, 47
1, 42670, Note_on_c, 0, 59, 51
1, 42684, Control_c, 0, 64, 34
1, 42699, Control_c, 0, 64, 39
1, 42714, Control_c, 0, 64, 49
1, 42718, Note_off_c, 0, 59, 61
1, 42729, Control_c, 0, 64, 55
1, 42744, Control_c, 0, 64, 59
1, 42746, Note_on_c, 0, 61, 53
1, 42758, Control_c, 0, 64, 60
1, 42773, Control_c, 0, 64, 58
1, 42788, Control_c, 0, 64, 53
1, 42792, Note_off_c, 0, 61, 60
1, 42799, Note_on_c, 0, 63, 56
1, 42802, Control_c, 0, 64, 47
1, 42817, Control_c, 0, 64, 48
1, 42832, Control_c, 0, 64, 51
1, 42847, Control_c, 0, 64, 54
1, 42860, Note_off_c, 0, 63, 59
1, 42870, Note_on_c, 0, 65, 47
1, 42870, Control_c, 0, 64, 56
1, 42884, Control_c, 0, 64, 57
1, 42903, Note_on_c, 0, 66, 58
1, 42904, Note_off_c, 0, 65, 61
1, 42914, Control_c, 0, 64, 56
1, 42944, Control_c, 0, 64, 56
1, 42945, Note_off_c, 0, 66, 63
1, 42972, Note_on_c, 0, 65, 57
1, 43004, Note_off_c, 0, 65, 64
1, 43017, Control_c, 0, 64, 57
1, 43025, Note_on_c, 0, 63, 53
1, 43032, Control_c, 0, 64, 57
1, 43047, Control_c, 0, 64, 59
1, 43062, Control_c, 0, 64, 60
1, 43064, Note_off_c, 0, 63, 63
1, 43065, Note_on_c, 0, 61, 56
1, 43077, Control_c, 0, 64, 61
1, 43091, Control_c, 0, 64, 60
1, 43092, Note_off_c, 0, 61, 65
1, 43106, Control_c, 0, 64, 54
1, 43121, Control_c, 0, 64, 39
1, 43127, Note_on_c, 0, 59, 57
1, 43135, Control_c, 0, 64, 0
1, 43150, Control_c, 0, 64, 13
1, 43162, Note_off_c, 0, 59, 63
1, 43165, Control_c, 0, 64, 38
1, 43180, Control_c, 0, 64, 53
1, 43181, Note_on_c, 0, 60, 50
1, 43195, Control_c, 0, 64, 61
1, 43210, Control_c, 0, 64, 62
1, 43217, Note_off_c, 0, 60, 63
1, 43225, Control_c, 0, 64, 59
1, 43231, Note_on_c, 0, 62, 50
1, 43240, Control_c, 0, 64, 52
1, 43255, Control_c, 0, 64, 37
1, 43270, Note_off_c, 0, 62, 64
1, 43270, Control_c, 0, 64, 27
1, 43285, Control_c, 0, 64, 37
1, 43291, Note_on_c, 0, 64, 47
1, 43300, Control_c, 0, 64, 48
1, 43314, Control_c, 0, 64, 55
1, 43325, Note_off_c, 0, 64, 65
1, 43329, Control_c, 0, 64, 57
1, 43359, Control_c, 0, 64, 55
1, 43367, Note_on_c, 0, 65, 54
1, 43374, Control_c, 0, 64, 54
1, 43404, Control_c, 0, 64, 54
1, 43406, Note_off_c, 0, 65, 63
1, 43416, Note_on_c, 0, 64, 55
1, 43448, Control_c, 0, 64, 54
1, 43453, Note_off_c, 0, 64, 64
1, 43463, Control_c, 0, 64, 55
1, 43471, Note_on_c, 0, 62, 53
1, 43478, Control_c, 0, 64, 57
1, 43493, Control_c, 0, 64, 58
1, 43505, Note_off_c, 0, 62, 64
1, 43507, Control_c, 0, 64, 60
1, 43522, Control_c, 0, 64, 60
1, 43528, Note_on_c, 0, 60, 32
1, 43537, Control_c, 0, 64, 59
1, 43551, Control_c, 0, 64, 55
1, 43561, Note_off_c, 0, 60, 52
1, 43566, Control_c, 0, 64, 43
1, 43581, Note_on_c, 0, 56, 55
1, 43581, Control_c, 0, 64, 37
1, 43596, Control_c, 0, 64, 45
1, 43618, Control_c, 0, 64, 53
1, 43632, Note_off_c, 0, 56, 65
1, 43633, Control_c, 0, 64, 60
1, 43646, Note_on_c, 0, 58, 55
1, 43648, Control_c, 0, 64, 62
1, 43663, Control_c, 0, 64, 61
1, 43678, Control_c, 0, 64, 55
1, 43686, Note_off_c, 0, 58, 63
1, 43693, Control_c, 0, 64, 45
1, 43705, Note_on_c, 0, 59, 49
1, 43708, Control_c, 0, 64, 37
1, 43722, Control_c, 0, 64, 41
1, 43737, Note_off_c, 0, 59, 65
1, 43737, Control_c, 0, 64, 47
1, 43750, Note_on_c, 0, 61, 57
1, 43752, Control_c, 0, 64, 51
1, 43766, Control_c, 0, 64, 53
1, 43779, Note_off_c, 0, 61, 65
1, 43781, Control_c, 0, 64, 53
1, 43796, Control_c, 0, 64, 51
1, 43809, Note_on_c, 0, 63, 62
1, 43811, Control_c, 0, 64, 50
1, 43826, Control_c, 0, 64, 49
1, 43846, Note_off_c, 0, 63, 67
1, 43852, Note_on_c, 0, 61, 64
1, 43869, Control_c, 0, 64, 50
1, 43884, Control_c, 0, 64, 50
1, 43899, Note_off_c, 0, 61, 59
1, 43899, Control_c, 0, 64, 52
1, 43914, Control_c, 0, 64, 53
1, 43923, Note_on_c, 0, 59, 50
1, 43928, Control_c, 0, 64, 54
1, 43943, Control_c, 0, 64, 57
1, 43955, Note_off_c, 0, 59, 65
1, 43958, Control_c, 0, 64, 59
1, 43963, Note_on_c, 0, 58, 61
1, 43973, Control_c, 0, 64, 60
1, 43988, Control_c, 0, 64, 59
1, 43990, Note_off_c, 0, 58, 67
1, 44003, Control_c, 0, 64, 56
1, 44018, Control_c, 0, 64, 49
1, 44031, Note_on_c, 0, 55, 58
1, 44033, Control_c, 0, 64, 32
1, 44047, Control_c, 0, 64, 13
1, 44062, Control_c, 0, 64, 26
1, 44077, Control_c, 0, 64, 39
1, 44081, Note_off_c, 0, 55, 59
1, 44092, Control_c, 0, 64, 48
1, 44095, Note_on_c, 0, 57, 54
1, 44107, Control_c, 0, 64, 53
1, 44122, Control_c, 0, 64, 54
1, 44137, Control_c, 0, 64, 54
1, 44139, Note_off_c, 0, 57, 63
1, 44148, Note_on_c, 0, 59, 53
1, 44152, Control_c, 0, 64, 53
1, 44180, Note_off_c, 0, 59, 64
1, 44196, Control_c, 0, 64, 54
1, 44198, Note_on_c, 0, 60, 46
1, 44211, Control_c, 0, 64, 54
1, 44227, Note_off_c, 0, 60, 63
1, 44248, Note_on_c, 0, 62, 54
1, 44255, Control_c, 0, 64, 55
1, 44291, Note_off_c, 0, 62, 62
1, 44300, Control_c, 0, 64, 54
1, 44334, Note_on_c, 0, 60, 28
1, 44367, Control_c, 0, 64, 55
1, 44376, Note_off_c, 0, 60, 52
1, 44381, Control_c, 0, 64, 56
1, 44390, Note_on_c, 0, 59, 35
1, 44396, Control_c, 0, 64, 56
1, 44411, Control_c, 0, 64, 57
1, 44421, Note_off_c, 0, 59, 53
1, 44422, Note_on_c, 0, 57, 33
1, 44426, Control_c, 0, 64, 58
1, 44441, Control_c, 0, 64, 57
1, 44455, Control_c, 0, 64, 54
1, 44456, Note_off_c, 0, 57, 51
1, 44470, Control_c, 0, 64, 46
1, 44474, Note_on_c, 0, 54, 50
1, 44485, Control_c, 0, 64, 32
1, 44500, Control_c, 0, 64, 27
1, 44515, Control_c, 0, 64, 34
1, 44516, Note_off_c, 0, 54, 62
1, 44525, Note_on_c, 0, 56, 48
1, 44529, Control_c, 0, 64, 45
1, 44544, Control_c, 0, 64, 54
1, 44559, Control_c, 0, 64, 59
1, 44574, Control_c, 0, 64, 61
1, 44578, Note_off_c, 0, 56, 60
1, 44588, Note_on_c, 0, 58, 48
1, 44618, Control_c, 0, 64, 61
1, 44632, Note_off_c, 0, 58, 63
1, 44635, Note_on_c, 0, 59, 48
1, 44648, Control_c, 0, 64, 62
1, 44662, Control_c, 0, 64, 63
1, 44667, Note_off_c, 0, 59, 64
1, 44677, Control_c, 0, 64, 64
1, 44692, Control_c, 0, 64, 64
1, 44704, Note_on_c, 0, 61, 41
1, 44707, Control_c, 0, 64, 65
1, 44751, Note_on_c, 0, 59, 51
1, 44751, Control_c, 0, 64, 64
1, 44754, Note_off_c, 0, 61, 57
1, 44781, Control_c, 0, 64, 64
1, 44796, Control_c, 0, 64, 63
1, 44800, Note_off_c, 0, 59, 61
1, 44811, Control_c, 0, 64, 63
1, 44821, Note_on_c, 0, 58, 54
1, 44852, Note_off_c, 0, 58, 66
1, 44861, Note_on_c, 0, 56, 46
1, 44870, Control_c, 0, 64, 63
1, 44898, Note_off_c, 0, 56, 61
1, 44915, Control_c, 0, 64, 63
1, 44924, Note_on_c, 0, 53, 44
1, 44930, Control_c, 0, 64, 59
1, 44945, Control_c, 0, 64, 41
1, 44960, Control_c, 0, 64, 0
1, 44975, Note_off_c, 0, 53, 62
1, 44990, Control_c, 0, 64, 38
1, 44990, Control_c, 0, 67, 122
1, 44992, Note_on_c, 0, 54, 50
1, 45004, Control_c, 0, 64, 59
1, 45004, Control_c, 0, 67, 108
1, 45019, Control_c, 0, 64, 65
1, 45019, Control_c, 0, 67, 90
1, 45033, Note_off_c, 0, 54, 65
1, 45034, Control_c, 0, 64, 71
1, 45034, Control_c, 0, 67, 70
1, 45041, Note_on_c, 0, 56, 52
1, 45049, Control_c, 0, 64, 76
1, 45049, Control_c, 0, 67, 53
1, 45064, Control_c, 0, 64, 78
1, 45064, Control_c, 0, 67, 40
1, 45078, Control_c, 0, 64, 78
1, 45078, Control_c, 0, 67, 27
1, 45084, Note_off_c, 0, 56, 62
1, 45088, Note_on_c, 0, 58, 54
1, 45093, Control_c, 0, 64, 79
1, 45093, Control_c, 0, 67, 17
1, 45115, Control_c, 0, 64, 79
1, 45115, Control_c, 0, 67, 9
1, 45130, Control_c, 0, 64, 80
1, 45130, Control_c, 0, 67, 0
1, 45131, Note_off_c, 0, 58, 59
1, 45145, Control_c, 0, 64, 82
1, 45154, Note_on_c, 0, 59, 53
1, 45160, Control_c, 0, 64, 83
1, 45174, Control_c, 0, 64, 86
1, 45183, Note_off_c, 0, 59, 55
1, 45189, Control_c, 0, 64, 88
1, 45204, Control_c, 0, 64, 90
1, 45219, Note_on_c, 0, 61, 53
1, 45219, Control_c, 0, 64, 90
1, 45234, Control_c, 0, 64, 91
1, 45252, Note_off_c, 0, 61, 65
1, 45258, Note_on_c, 0, 63, 59
1, 45289, Note_off_c, 0, 63, 66
1, 45307, Note_on_c, 0, 65, 59
1, 45323, Control_c, 0, 64, 92
1, 45335, Note_off_c, 0, 65, 63
1, 45352, Control_c, 0, 64, 90
1, 45362, Note_on_c, 0, 68, 55
1, 45367, Control_c, 0, 64, 82
1, 45382, Control_c, 0, 64, 74
1, 45397, Control_c, 0, 64, 72
1, 45401, Note_on_c, 0, 70, 63
1, 45402, Note_off_c, 0, 68, 66
1, 45411, Control_c, 0, 64, 74
1, 45426, Control_c, 0, 64, 78
1, 45441, Control_c, 0, 64, 82
1, 45446, Note_off_c, 0, 70, 62
1, 45456, Control_c, 0, 64, 81
1, 45458, Note_on_c, 0, 71, 69
1, 45471, Control_c, 0, 64, 74
1, 45485, Control_c, 0, 64, 65
1, 45491, Note_off_c, 0, 71, 66
1, 45497, Note_on_c, 0, 73, 69
1, 45500, Control_c, 0, 64, 58
1, 45515, Control_c, 0, 64, 61
1, 45526, Note_off_c, 0, 73, 66
1, 45529, Control_c, 0, 64, 66
1, 45536, Note_on_c, 0, 75, 62
1, 45544, Control_c, 0, 64, 74
1, 45559, Control_c, 0, 64, 82
1, 45572, Note_off_c, 0, 75, 59
1, 45574, Control_c, 0, 64, 84
1, 45586, Note_on_c, 0, 77, 66
1, 45589, Control_c, 0, 64, 81
1, 45604, Control_c, 0, 64, 77
1, 45619, Control_c, 0, 64, 75
1, 45633, Note_on_c, 0, 78, 74
1, 45647, Note_off_c, 0, 77, 62
1, 45648, Control_c, 0, 64, 76
1, 45663, Control_c, 0, 64, 80
1, 45677, Note_on_c, 0, 80, 73
1, 45679, Control_c, 0, 64, 84
1, 45694, Control_c, 0, 64, 86
1, 45696, Note_off_c, 0, 78, 65
1, 45708, Control_c, 0, 64, 82
1, 45723, Control_c, 0, 64, 70
1, 45725, Note_off_c, 0, 80, 61
1, 45738, Control_c, 0, 64, 51
1, 45752, Note_on_c, 0, 83, 73
1, 45753, Control_c, 0, 64, 33
1, 45768, Control_c, 0, 64, 52
1, 45783, Control_c, 0, 64, 64
1, 45795, Note_on_c, 0, 81, 60
1, 45797, Note_off_c, 0, 83, 56
1, 45797, Control_c, 0, 64, 71
1, 45812, Control_c, 0, 64, 81
1, 45827, Control_c, 0, 64, 89
1, 45842, Control_c, 0, 64, 87
1, 45862, Note_on_c, 0, 80, 68
1, 45864, Control_c, 0, 64, 73
1, 45874, Note_off_c, 0, 81, 62
1, 45879, Control_c, 0, 64, 59
1, 45894, Control_c, 0, 64, 39
1, 45908, Control_c, 0, 64, 51
1, 45923, Control_c, 0, 64, 62
1, 45926, Note_off_c, 0, 80, 64
1, 45936, Note_on_c, 0, 78, 58
1, 45938, Control_c, 0, 64, 69
1, 45949, Note_on_c, 0, 76, 60
1, 45952, Control_c, 0, 64, 76
1, 45956, Note_off_c, 0, 78, 65
1, 45982, Control_c, 0, 64, 71
1, 45995, Note_off_c, 0, 76, 63
1, 45997, Control_c, 0, 64, 65
1, 46011, Note_on_c, 0, 75, 59
1, 46012, Control_c, 0, 64, 63
1, 46027, Control_c, 0, 64, 67
1, 46042, Control_c, 0, 64, 72
1, 46044, Note_off_c, 0, 75, 65
1, 46054, Note_on_c, 0, 73, 62
1, 46057, Control_c, 0, 64, 80
1, 46072, Control_c, 0, 64, 83
1, 46098, Note_off_c, 0, 73, 58
1, 46100, Note_on_c, 0, 71, 63
1, 46101, Control_c, 0, 64, 83
1, 46119, Note_off_c, 0, 71, 66
1, 46160, Control_c, 0, 64, 82
1, 46160, Control_c, 0, 67, 9
1, 46164, Note_on_c, 0, 69, 58
1, 46175, Control_c, 0, 64, 80
1, 46175, Control_c, 0, 67, 14
1, 46190, Control_c, 0, 64, 77
1, 46190, Control_c, 0, 67, 20
1, 46198, Note_off_c, 0, 69, 64
1, 46205, Control_c, 0, 64, 75
1, 46205, Control_c, 0, 67, 29
1, 46211, Note_on_c, 0, 68, 65
1, 46220, Control_c, 0, 64, 75
1, 46220, Control_c, 0, 67, 41
1, 46230, Note_off_c, 0, 68, 63
1, 46234, Control_c, 0, 64, 75
1, 46234, Control_c, 0, 67, 54
1, 46249, Control_c, 0, 67, 67
1, 46264, Control_c, 0, 67, 80
1, 46279, Control_c, 0, 64, 75
1, 46279, Control_c, 0, 67, 92
1, 46287, Note_on_c, 0, 66, 54
1, 46293, Control_c, 0, 64, 73
1, 46293, Control_c, 0, 67, 102
1, 46308, Control_c, 0, 64, 72
1, 46308, Control_c, 0, 67, 111
1, 46310, Note_off_c, 0, 66, 60
1, 46323, Control_c, 0, 64, 71
1, 46323, Control_c, 0, 67, 121
1, 46325, Note_on_c, 0, 64, 53
1, 46338, Control_c, 0, 67, 127
1, 46361, Note_off_c, 0, 64, 63
1, 46370, Note_on_c, 0, 61, 62
1, 46397, Control_c, 0, 64, 71
1, 46426, Control_c, 0, 64, 70
1, 46431, Note_off_c, 0, 61, 59
1, 46434, Note_on_c, 0, 59, 60
1, 46441, Control_c, 0, 64, 69
1, 46456, Control_c, 0, 64, 68
1, 46472, Control_c, 0, 64, 67
1, 46477, Note_off_c, 0, 59, 62
1, 46487, Control_c, 0, 64, 66
1, 46495, Note_on_c, 0, 58, 61
1, 46502, Control_c, 0, 64, 65
1, 46517, Control_c, 0, 64, 65
1, 46522, Note_on_c, 0, 56, 64
1, 46523, Note_off_c, 0, 58, 66
1, 46531, Control_c, 0, 64, 64
1, 46549, Note_off_c, 0, 56, 67
1, 46561, Control_c, 0, 64, 64
1, 46575, Control_c, 0, 64, 61
1, 46590, Control_c, 0, 64, 53
1, 46613, Note_on_c, 0, 53, 66
1, 46613, Control_c, 0, 64, 29
1, 46628, Control_c, 0, 64, 0
1, 46643, Control_c, 0, 64, 9
1, 46652, Note_off_c, 0, 53, 64
1, 46657, Control_c, 0, 64, 18
1, 46664, Note_on_c, 0, 54, 60
1, 46672, Control_c, 0, 64, 21
1, 46687, Control_c, 0, 64, 21
1, 46702, Note_off_c, 0, 54, 65
1, 46714, Note_on_c, 0, 56, 62
1, 46764, Note_off_c, 0, 56, 58
1, 46774, Note_on_c, 0, 58, 66
1, 46802, Note_off_c, 0, 58, 66
1, 46805, Control_c, 0, 64, 22
1, 46820, Control_c, 0, 64, 26
1, 46825, Note_on_c, 0, 60, 57
1, 46835, Control_c, 0, 64, 32
1, 46849, Control_c, 0, 64, 35
1, 46863, Note_off_c, 0, 60, 64
1, 46864, Control_c, 0, 64, 37
1, 46875, Note_on_c, 0, 59, 63
1, 46879, Control_c, 0, 64, 37
1, 46894, Control_c, 0, 64, 38
1, 46914, Note_off_c, 0, 59, 62
1, 46923, Control_c, 0, 64, 38
1, 46930, Note_on_c, 0, 57, 50
1, 46938, Control_c, 0, 64, 39
1, 46953, Control_c, 0, 64, 42
1, 46959, Note_off_c, 0, 57, 64
1, 46968, Control_c, 0, 64, 47
1, 46974, Note_on_c, 0, 55, 55
1, 46982, Control_c, 0, 64, 52
1, 46997, Control_c, 0, 64, 55
1, 47000, Note_off_c, 0, 55, 61
1, 47012, Control_c, 0, 64, 56
1, 47027, Control_c, 0, 64, 53
1, 47042, Control_c, 0, 64, 46
1, 47052, Note_on_c, 0, 56, 54
1, 47056, Control_c, 0, 64, 34
1, 47071, Control_c, 0, 64, 29
1, 47086, Control_c, 0, 64, 38
1, 47101, Control_c, 0, 64, 47
1, 47102, Note_off_c, 0, 56, 59
1, 47104, Note_on_c, 0, 58, 53
1, 47116, Control_c, 0, 64, 54
1, 47130, Control_c, 0, 64, 57
1, 47145, Control_c, 0, 64, 56
1, 47152, Note_off_c, 0, 58, 61
1, 47160, Control_c, 0, 64, 53
1, 47175, Control_c, 0, 64, 49
1, 47184, Note_on_c, 0, 59, 21
1, 47190, Control_c, 0, 64, 46
1, 47204, Control_c, 0, 64, 47
1, 47217, Note_on_c, 0, 61, 55
1, 47219, Control_c, 0, 64, 49
1, 47221, Note_off_c, 0, 59, 53
1, 47234, Control_c, 0, 64, 50
1, 47249, Control_c, 0, 64, 51
1, 47257, Note_off_c, 0, 61, 65
1, 47264, Control_c, 0, 64, 52
1, 47276, Note_on_c, 0, 62, 57
1, 47324, Note_off_c, 0, 62, 60
1, 47356, Note_on_c, 0, 60, 49
1, 47390, Note_off_c, 0, 60, 66
1, 47403, Note_on_c, 0, 59, 42
1, 47405, Control_c, 0, 64, 53
1, 47420, Control_c, 0, 64, 53
1, 47435, Control_c, 0, 64, 54
1, 47440, Note_off_c, 0, 59, 62
1, 47450, Control_c, 0, 64, 56
1, 47457, Note_on_c, 0, 57, 48
1, 47465, Control_c, 0, 64, 58
1, 47479, Control_c, 0, 64, 58
1, 47491, Note_off_c, 0, 57, 62
1, 47494, Control_c, 0, 64, 58
1, 47503, Note_on_c, 0, 53, 46
1, 47509, Control_c, 0, 64, 55
1, 47524, Control_c, 0, 64, 45
1, 47539, Control_c, 0, 64, 23
1, 47547, Note_off_c, 0, 53, 62
1, 47553, Control_c, 0, 64, 0
1, 47562, Note_on_c, 0, 54, 52
1, 47568, Control_c, 0, 64, 29
1, 47583, Control_c, 0, 64, 44
1, 47598, Control_c, 0, 64, 55
1, 47607, Note_on_c, 0, 56, 49
1, 47612, Note_off_c, 0, 54, 61
1, 47613, Control_c, 0, 64, 59
1, 47628, Control_c, 0, 64, 60
1, 47643, Control_c, 0, 64, 59
1, 47649, Note_on_c, 0, 58, 52
1, 47655, Note_off_c, 0, 56, 60
1, 47658, Control_c, 0, 64, 56
1, 47672, Control_c, 0, 64, 56
1, 47675, Note_off_c, 0, 58, 62
1, 47702, Control_c, 0, 64, 56
1, 47715, Note_on_c, 0, 60, 50
1, 47749, Note_off_c, 0, 60, 64
1, 47758, Note_on_c, 0, 59, 54
1, 47795, Note_off_c, 0, 59, 63
1, 47830, Note_on_c, 0, 57, 40
1, 47851, Control_c, 0, 64, 57
1, 47859, Note_off_c, 0, 57, 55
1, 47863, Note_on_c, 0, 55, 51
1, 47866, Control_c, 0, 64, 58
1, 47880, Control_c, 0, 64, 59
1, 47903, Note_off_c, 0, 55, 60
1, 47910, Control_c, 0, 64, 58
1, 47924, Note_on_c, 0, 56, 53
1, 47924, Control_c, 0, 64, 54
1, 47939, Control_c, 0, 64, 41
1, 47954, Control_c, 0, 64, 27
1, 47969, Control_c, 0, 64, 35
1, 47973, Note_off_c, 0, 56, 58
1, 47984, Control_c, 0, 64, 47
1, 47992, Note_on_c, 0, 58, 40
1, 47998, Control_c, 0, 64, 57
1, 48013, Control_c, 0, 64, 62
1, 48027, Note_off_c, 0, 58, 62
1, 48028, Control_c, 0, 64, 64
1, 48034, Note_on_c, 0, 59, 55
1, 48043, Control_c, 0, 64, 63
1, 48058, Control_c, 0, 64, 59
1, 48074, Control_c, 0, 64, 49
1, 48089, Control_c, 0, 64, 37
1, 48094, Note_off_c, 0, 59, 58
1, 48108, Note_on_c, 0, 61, 48
1, 48111, Control_c, 0, 64, 42
1, 48126, Control_c, 0, 64, 50
1, 48140, Control_c, 0, 64, 59
1, 48146, Note_off_c, 0, 61, 65
1, 48155, Control_c, 0, 64, 62
1, 48156, Note_on_c, 0, 62, 47
1, 48170, Control_c, 0, 64, 64
1, 48195, Note_off_c, 0, 62, 63
1, 48200, Control_c, 0, 64, 63
1, 48210, Note_on_c, 0, 60, 52
1, 48215, Control_c, 0, 64, 62
1, 48229, Control_c, 0, 64, 61
1, 48244, Note_off_c, 0, 60, 65
1, 48259, Control_c, 0, 64, 61
1, 48270, Note_on_c, 0, 59, 42
1, 48298, Note_off_c, 0, 59, 58
1, 48303, Control_c, 0, 64, 61
1, 48318, Control_c, 0, 64, 62
1, 48321, Note_on_c, 0, 57, 49
1, 48333, Control_c, 0, 64, 63
1, 48347, Note_off_c, 0, 57, 58
1, 48348, Control_c, 0, 64, 62
1, 48359, Note_on_c, 0, 61, 58
1, 48362, Control_c, 0, 64, 60
1, 48377, Control_c, 0, 64, 53
1, 48392, Control_c, 0, 64, 33
1, 48407, Control_c, 0, 64, 23
1, 48407, Control_c, 0, 67, 119
1, 48417, Note_off_c, 0, 61, 57
1, 48421, Control_c, 0, 64, 46
1, 48421, Control_c, 0, 67, 104
1, 48428, Note_on_c, 0, 63, 48
1, 48436, Control_c, 0, 64, 59
1, 48436, Control_c, 0, 67, 81
1, 48451, Control_c, 0, 64, 65
1, 48451, Control_c, 0, 67, 55
1, 48466, Control_c, 0, 64, 70
1, 48466, Control_c, 0, 67, 25
1, 48467, Note_on_c, 0, 65, 60
1, 48477, Note_off_c, 0, 63, 54
1, 48481, Control_c, 0, 64, 71
1, 48481, Control_c, 0, 67, 8
1, 48495, Control_c, 0, 64, 67
1, 48495, Control_c, 0, 67, 0
1, 48510, Control_c, 0, 64, 58
1, 48525, Control_c, 0, 64, 50
1, 48526, Note_off_c, 0, 65, 59
1, 48538, Note_on_c, 0, 66, 45
1, 48540, Control_c, 0, 64, 56
1, 48555, Control_c, 0, 64, 62
1, 48567, Note_off_c, 0, 66, 59
1, 48570, Control_c, 0, 64, 67
1, 48576, Note_on_c, 0, 67, 55
1, 48585, Control_c, 0, 64, 72
1, 48599, Control_c, 0, 64, 76
1, 48616, Note_off_c, 0, 67, 63
1, 48629, Control_c, 0, 64, 75
1, 48641, Note_on_c, 0, 65, 54
1, 48644, Control_c, 0, 64, 74
1, 48659, Control_c, 0, 64, 73
1, 48668, Note_off_c, 0, 65, 58
1, 48689, Control_c, 0, 64, 72
1, 48695, Note_on_c, 0, 64, 33
1, 48730, Note_off_c, 0, 64, 52
1, 48734, Note_on_c, 0, 62, 57
1, 48756, Note_off_c, 0, 62, 61
1, 48785, Note_on_c, 0, 73, 59
1, 48836, Control_c, 0, 64, 72
1, 48859, Control_c, 0, 64, 70
1, 48864, Note_on_c, 0, 75, 52
1, 48867, Note_off_c, 0, 73, 56
1, 48874, Control_c, 0, 64, 65
1, 48889, Control_c, 0, 64, 50
1, 48904, Control_c, 0, 64, 0
1, 48905, Note_on_c, 0, 77, 58
1, 48909, Note_off_c, 0, 75, 58
1, 48919, Control_c, 0, 64, 15
1, 48933, Control_c, 0, 64, 42
1, 48948, Control_c, 0, 64, 57
1, 48963, Control_c, 0, 64, 64
1, 48966, Note_off_c, 0, 77, 62
1, 48967, Note_on_c, 0, 78, 55
1, 48978, Control_c, 0, 64, 69
1, 48993, Control_c, 0, 64, 73
1, 48996, Note_off_c, 0, 78, 58
1, 49002, Note_on_c, 0, 79, 56
1, 49008, Control_c, 0, 64, 73
1, 49047, Note_off_c, 0, 79, 60
1, 49068, Note_on_c, 0, 77, 49
1, 49097, Control_c, 0, 64, 73
1, 49099, Note_off_c, 0, 77, 66
1, 49112, Control_c, 0, 64, 72
1, 49116, Note_on_c, 0, 76, 47
1, 49126, Control_c, 0, 64, 72
1, 49144, Note_off_c, 0, 76, 59
1, 49171, Note_on_c, 0, 74, 46
1, 49185, Control_c, 0, 64, 72
1, 49198, Note_off_c, 0, 74, 58
1, 49215, Control_c, 0, 64, 71
1, 49221, Note_on_c, 0, 85, 56
1, 49230, Control_c, 0, 64, 67
1, 49244, Control_c, 0, 64, 59
1, 49259, Control_c, 0, 64, 39
1, 49266, Note_off_c, 0, 85, 62
1, 49274, Control_c, 0, 64, 41
1, 49285, Note_on_c, 0, 83, 53
1, 49289, Control_c, 0, 64, 54
1, 49304, Control_c, 0, 64, 62
1, 49319, Control_c, 0, 64, 68
1, 49333, Control_c, 0, 64, 75
1, 49334, Note_off_c, 0, 83, 59
1, 49344, Note_on_c, 0, 82, 62
1, 49348, Control_c, 0, 64, 81
1, 49363, Control_c, 0, 64, 81
1, 49378, Control_c, 0, 64, 77
1, 49392, Control_c, 0, 64, 72
1, 49405, Note_off_c, 0, 82, 60
1, 49407, Control_c, 0, 64, 68
1, 49419, Note_on_c, 0, 80, 47
1, 49422, Control_c, 0, 64, 69
1, 49437, Control_c, 0, 64, 72
1, 49452, Note_on_c, 0, 79, 47
1, 49452, Control_c, 0, 64, 75
1, 49452, Note_off_c, 0, 80, 66
1, 49467, Control_c, 0, 64, 79
1, 49482, Control_c, 0, 64, 81
1, 49491, Note_off_c, 0, 79, 61
1, 49497, Control_c, 0, 64, 82
1, 49499, Note_on_c, 0, 77, 58
1, 49538, Note_off_c, 0, 77, 64
1, 49550, Note_on_c, 0, 76, 53
1, 49570, Control_c, 0, 64, 83
1, 49592, Control_c, 0, 64, 86
1, 49595, Note_off_c, 0, 76, 59
1, 49607, Control_c, 0, 64, 88
1, 49611, Note_on_c, 0, 74, 52
1, 49622, Control_c, 0, 64, 89
1, 49637, Note_off_c, 0, 74, 63
1, 49637, Control_c, 0, 64, 88
1, 49642, Note_on_c, 0, 73, 65
1, 49652, Control_c, 0, 64, 84
1, 49667, Control_c, 0, 64, 80
1, 49679, Note_off_c, 0, 73, 60
1, 49697, Control_c, 0, 64, 83
1, 49712, Control_c, 0, 64, 89
1, 49719, Note_on_c, 0, 71, 62
1, 49727, Control_c, 0, 64, 98
1, 49742, Control_c, 0, 64, 99
1, 49750, Note_on_c, 0, 70, 61
1, 49752, Note_off_c, 0, 71, 65
1, 49756, Control_c, 0, 64, 92
1, 49771, Control_c, 0, 64, 81
1, 49786, Control_c, 0, 64, 72
1, 49801, Control_c, 0, 64, 70
1, 49813, Note_on_c, 0, 68, 61
1, 49814, Note_off_c, 0, 70, 63
1, 49816, Control_c, 0, 64, 75
1, 49831, Control_c, 0, 64, 84
1, 49837, Note_on_c, 0, 67, 65
1, 49844, Note_off_c, 0, 68, 67
1, 49846, Control_c, 0, 64, 101
1, 49860, Control_c, 0, 64, 118
1, 49875, Control_c, 0, 64, 120
1, 49890, Control_c, 0, 64, 118
1, 49893, Note_on_c, 0, 65, 71
1, 49896, Note_off_c, 0, 67, 61
1, 49905, Control_c, 0, 64, 112
1, 49920, Control_c, 0, 64, 109
1, 49951, Note_off_c, 0, 65, 60
1, 49963, Note_on_c, 0, 64, 53
1, 49991, Note_on_c, 0, 62, 65
1, 49992, Note_off_c, 0, 64, 64
1, 49993, Control_c, 0, 64, 111
1, 50008, Control_c, 0, 64, 114
1, 50018, Note_off_c, 0, 62, 65
1, 50023, Control_c, 0, 64, 117
1, 50038, Control_c, 0, 64, 116
1, 50053, Control_c, 0, 64, 100
1, 50057, Note_on_c, 0, 61, 62
1, 50067, Control_c, 0, 64, 81
1, 50082, Control_c, 0, 64, 65
1, 50097, Control_c, 0, 64, 50
1, 50111, Control_c, 0, 64, 56
1, 50115, Note_on_c, 0, 63, 62
1, 50122, Note_off_c, 0, 61, 61
1, 50126, Control_c, 0, 64, 66
1, 50141, Control_c, 0, 64, 76
1, 50156, Control_c, 0, 64, 92
1, 50167, Note_on_c, 0, 65, 67
1, 50171, Control_c, 0, 64, 105
1, 50186, Control_c, 0, 64, 103
1, 50187, Note_off_c, 0, 63, 54
1, 50200, Control_c, 0, 64, 89
1, 50215, Control_c, 0, 64, 75
1, 50229, Note_off_c, 0, 65, 62
1, 50230, Control_c, 0, 64, 62
1, 50233, Note_on_c, 0, 66, 59
1, 50245, Control_c, 0, 64, 59
1, 50260, Control_c, 0, 64, 64
1, 50261, Note_off_c, 0, 66, 66
1, 50275, Control_c, 0, 64, 72
1, 50289, Note_on_c, 0, 67, 60
1, 50290, Control_c, 0, 64, 83
1, 50305, Control_c, 0, 64, 96
1, 50319, Control_c, 0, 64, 103
1, 50319, Note_off_c, 0, 67, 65
1, 50344, Note_on_c, 0, 69, 68
1, 50356, Control_c, 0, 64, 102
1, 50400, Note_on_c, 0, 71, 67
1, 50404, Note_off_c, 0, 69, 63
1, 50415, Control_c, 0, 64, 100
1, 50430, Control_c, 0, 64, 95
1, 50445, Note_on_c, 0, 72, 70
1, 50445, Control_c, 0, 64, 88
1, 50460, Control_c, 0, 64, 84
1, 50463, Note_off_c, 0, 71, 64
1, 50474, Note_off_c, 0, 72, 67
1, 50490, Note_on_c, 0, 73, 70
1, 50505, Control_c, 0, 64, 81
1, 50520, Control_c, 0, 64, 68
1, 50535, Control_c, 0, 64, 37
1, 50544, Note_on_c, 0, 75, 64
1, 50549, Control_c, 0, 64, 0
1, 50564, Control_c, 0, 64, 52
1, 50572, Note_off_c, 0, 73, 62
1, 50579, Control_c, 0, 64, 68
1, 50591, Note_on_c, 0, 77, 78
1, 50594, Control_c, 0, 64, 81
1, 50609, Note_off_c, 0, 75, 60
1, 50609, Control_c, 0, 64, 87
1, 50624, Control_c, 0, 64, 81
1, 50638, Control_c, 0, 64, 66
1, 50647, Note_off_c, 0, 77, 65
1, 50648, Note_on_c, 0, 78, 77
1, 50653, Control_c, 0, 64, 45
1, 50668, Control_c, 0, 64, 49
1, 50671, Note_off_c, 0, 78, 71
1, 50683, Control_c, 0, 64, 64
1, 50689, Note_on_c, 0, 79, 75
1, 50698, Control_c, 0, 64, 77
1, 50713, Control_c, 0, 64, 97
1, 50728, Control_c, 0, 64, 102
1, 50731, Note_off_c, 0, 79, 55
1, 50741, Note_on_c, 0, 81, 73
1, 50742, Control_c, 0, 64, 101
1, 50757, Control_c, 0, 64, 98
1, 50772, Control_c, 0, 64, 97
1, 50787, Control_c, 0, 64, 98
1, 50791, Note_on_c, 0, 83, 76
1, 50795, Note_off_c, 0, 81, 60
1, 50802, Control_c, 0, 64, 104
1, 50816, Control_c, 0, 64, 127
1, 50820, Note_on_c, 0, 84, 76
1, 50853, Note_off_c, 0, 83, 60
1, 50871, Note_off_c, 0, 84, 62
1, 50890, Control_c, 0, 64, 93
1, 50900, Note_on_c, 0, 87, 79
1, 50905, Control_c, 0, 64, 70
1, 50920, Control_c, 0, 64, 56
1, 50935, Control_c, 0, 64, 60
1, 50943, Note_off_c, 0, 87, 62
1, 50949, Control_c, 0, 64, 71
1, 50952, Note_on_c, 0, 85, 75
1, 50964, Control_c, 0, 64, 89
1, 50979, Control_c, 0, 64, 127
1, 51018, Note_off_c, 0, 85, 63
1, 51023, Control_c, 0, 64, 122
1, 51025, Note_on_c, 0, 83, 68
1, 51038, Control_c, 0, 64, 91
1, 51053, Control_c, 0, 64, 73
1, 51062, Note_on_c, 0, 82, 66
1, 51068, Note_off_c, 0, 83, 63
1, 51068, Control_c, 0, 64, 65
1, 51083, Control_c, 0, 64, 69
1, 51104, Note_off_c, 0, 82, 66
1, 51105, Control_c, 0, 64, 82
1, 51116, Note_on_c, 0, 80, 68
1, 51120, Control_c, 0, 64, 104
1, 51135, Control_c, 0, 64, 127
1, 51157, Note_off_c, 0, 80, 65
1, 51163, Note_on_c, 0, 78, 74
1, 51164, Control_c, 0, 64, 120
1, 51179, Control_c, 0, 64, 88
1, 51194, Control_c, 0, 64, 72
1, 51200, Note_off_c, 0, 78, 61
1, 51209, Control_c, 0, 64, 66
1, 51219, Note_on_c, 0, 77, 70
1, 51223, Control_c, 0, 64, 71
1, 51238, Control_c, 0, 64, 85
1, 51250, Note_off_c, 0, 77, 66
1, 51253, Control_c, 0, 64, 114
1, 51264, Note_on_c, 0, 75, 63
1, 51269, Control_c, 0, 64, 127
1, 51288, Note_off_c, 0, 75, 66
1, 51303, Note_on_c, 0, 73, 67
1, 51314, Control_c, 0, 64, 94
1, 51328, Control_c, 0, 64, 75
1, 51338, Note_off_c, 0, 73, 61
1, 51343, Control_c, 0, 64, 67
1, 51358, Control_c, 0, 64, 71
1, 51372, Control_c, 0, 64, 90
1, 51374, Note_on_c, 0, 71, 50
1, 51387, Control_c, 0, 64, 127
1, 51405, Note_off_c, 0, 71, 66
1, 51409, Note_on_c, 0, 70, 72
1, 51432, Control_c, 0, 64, 96
1, 51446, Control_c, 0, 64, 75
1, 51456, Note_on_c, 0, 68, 60
1, 51461, Control_c, 0, 64, 63
1, 51464, Note_off_c, 0, 70, 62
1, 51476, Control_c, 0, 64, 67
1, 51486, Note_off_c, 0, 68, 67
1, 51491, Control_c, 0, 64, 79
1, 51506, Control_c, 0, 64, 102
1, 51521, Control_c, 0, 64, 127
1, 51526, Note_on_c, 0, 66, 69
1, 51551, Note_off_c, 0, 66, 64
1, 51583, Note_on_c, 0, 65, 67
1, 51650, Note_off_c, 0, 65, 60
1, 51660, Note_on_c, 0, 63, 64
1, 51697, Note_off_c, 0, 63, 62
1, 51699, Control_c, 0, 64, 125
1, 51710, Note_on_c, 0, 61, 60
1, 51713, Control_c, 0, 64, 118
1, 51728, Control_c, 0, 64, 115
1, 51741, Note_off_c, 0, 61, 64
1, 51743, Control_c, 0, 64, 114
1, 51758, Control_c, 0, 64, 113
1, 51772, Control_c, 0, 64, 112
1, 51787, Control_c, 0, 64, 109
1, 51802, Control_c, 0, 64, 104
1, 51817, Control_c, 0, 64, 99
1, 51832, Control_c, 0, 64, 92
1, 51849, Note_on_c, 0, 57, 55
1, 51854, Control_c, 0, 64, 86
1, 51869, Control_c, 0, 64, 80
1, 51884, Control_c, 0, 64, 75
1, 51898, Control_c, 0, 64, 70
1, 51913, Control_c, 0, 64, 61
1, 51928, Control_c, 0, 64, 0
1, 52002, Control_c, 0, 64, 27
1, 52017, Control_c, 0, 64, 58
1, 52032, Control_c, 0, 64, 68
1, 52046, Control_c, 0, 64, 77
1, 52048, Note_on_c, 0, 60, 25
1, 52061, Control_c, 0, 64, 87
1, 52077, Control_c, 0, 64, 95
1, 52092, Control_c, 0, 64, 101
1, 52093, Note_off_c, 0, 60, 50
1, 52107, Control_c, 0, 64, 104
1, 52109, Note_on_c, 0, 62, 43
1, 52122, Control_c, 0, 64, 106
1, 52137, Control_c, 0, 64, 107
1, 52147, Note_off_c, 0, 62, 61
1, 52151, Control_c, 0, 64, 108
1, 52166, Control_c, 0, 64, 109
1, 52181, Control_c, 0, 64, 109
1, 52195, Control_c, 0, 64, 110
1, 52197, Note_off_c, 0, 57, 42
1, 52201, Note_on_c, 0, 69, 51
1, 52203, Poly_aftertouch_c, 0, 64, 127
1, 52210, Control_c, 0, 64, 110
1, 52251, Poly_aftertouch_c, 0, 64, 0
1, 52253, Note_off_c, 0, 69, 59
1, 52269, Control_c, 0, 64, 111
1, 52296, Note_on_c, 0, 66, 44
1, 52344, Note_off_c, 0, 66, 51
1, 52357, Note_on_c, 0, 64, 48
1, 52385, Note_off_c, 0, 64, 61
1, 52448, Control_c, 0, 64, 106
1, 52453, Poly_aftertouch_c, 0, 62, 127
1, 52458, Note_on_c, 0, 60, 53
1, 52462, Control_c, 0, 64, 92
1, 52477, Control_c, 0, 64, 80
1, 52492, Poly_aftertouch_c, 0, 62, 0
1, 52492, Control_c, 0, 64, 74
1, 52507, Control_c, 0, 64, 75
1, 52521, Control_c, 0, 64, 80
1, 52522, Note_on_c, 0, 63, 47
1, 52536, Control_c, 0, 64, 87
1, 52551, Control_c, 0, 64, 97
1, 52566, Control_c, 0, 64, 106
1, 52581, Control_c, 0, 64, 103
1, 52585, Note_on_c, 0, 65, 60
1, 52603, Control_c, 0, 64, 90
1, 52618, Control_c, 0, 64, 81
1, 52633, Control_c, 0, 64, 77
1, 52633, Note_off_c, 0, 63, 53
1, 52642, Note_on_c, 0, 67, 57
1, 52647, Note_off_c, 0, 60, 46
1, 52648, Control_c, 0, 64, 77
1, 52649, Note_off_c, 0, 65, 56
1, 52662, Control_c, 0, 64, 80
1, 52677, Control_c, 0, 64, 86
1, 52679, Note_off_c, 0, 67, 65
1, 52692, Note_on_c, 0, 72, 60
1, 52692, Control_c, 0, 64, 94
1, 52707, Control_c, 0, 64, 104
1, 52721, Control_c, 0, 64, 108
1, 52737, Note_off_c, 0, 72, 60
1, 52750, Note_on_c, 0, 69, 62
1, 52751, Control_c, 0, 64, 109
1, 52766, Control_c, 0, 64, 110
1, 52781, Control_c, 0, 64, 110
1, 52798, Note_on_c, 0, 67, 59
1, 52804, Note_off_c, 0, 69, 59
1, 52838, Note_off_c, 0, 67, 63
1, 52864, Note_on_c, 0, 66, 61
1, 52871, Control_c, 0, 64, 112
1, 52886, Control_c, 0, 64, 117
1, 52890, Note_off_c, 0, 66, 66
1, 52900, Control_c, 0, 64, 125
1, 52907, Note_on_c, 0, 62, 62
1, 52930, Control_c, 0, 64, 102
1, 52944, Control_c, 0, 64, 81
1, 52959, Control_c, 0, 64, 58
1, 52974, Control_c, 0, 64, 0
1, 52989, Control_c, 0, 64, 33
1, 53004, Control_c, 0, 64, 57
1, 53010, Note_on_c, 0, 66, 40
1, 53018, Control_c, 0, 64, 67
1, 53033, Control_c, 0, 64, 76
1, 53047, Note_on_c, 0, 67, 61
1, 53048, Control_c, 0, 64, 85
1, 53063, Control_c, 0, 64, 88
1, 53078, Control_c, 0, 64, 88
1, 53080, Note_off_c, 0, 66, 41
1, 53098, Note_on_c, 0, 69, 56
1, 53114, Note_off_c, 0, 67, 53
1, 53132, Note_off_c, 0, 62, 56
1, 53139, Note_off_c, 0, 69, 64
1, 53150, Note_on_c, 0, 74, 57
1, 53205, Note_off_c, 0, 74, 55
1, 53211, Control_c, 0, 64, 89
1, 53226, Control_c, 0, 64, 90
1, 53228, Note_on_c, 0, 72, 55
1, 53277, Note_off_c, 0, 72, 55
1, 53297, Note_on_c, 0, 71, 42
1, 53328, Note_off_c, 0, 71, 55
1, 53354, Note_on_c, 0, 69, 37
1, 53381, Control_c, 0, 64, 89
1, 53382, Note_off_c, 0, 69, 57
1, 53396, Control_c, 0, 64, 89
1, 53406, Note_on_c, 0, 63, 57
1, 53411, Control_c, 0, 64, 88
1, 53426, Control_c, 0, 64, 88
1, 53440, Control_c, 0, 64, 87
1, 53485, Control_c, 0, 64, 86
1, 53499, Note_on_c, 0, 66, 46
1, 53500, Control_c, 0, 64, 80
1, 53515, Control_c, 0, 64, 71
1, 53530, Control_c, 0, 64, 59
1, 53544, Control_c, 0, 64, 0
1, 53553, Note_on_c, 0, 68, 51
1, 53561, Note_off_c, 0, 66, 49
1, 53574, Control_c, 0, 64, 28
1, 53590, Control_c, 0, 64, 52
1, 53604, Control_c, 0, 64, 63
1, 53619, Control_c, 0, 64, 69
1, 53632, Note_on_c, 0, 70, 50
1, 53634, Control_c, 0, 64, 76
1, 53643, Note_off_c, 0, 68, 61
1, 53649, Control_c, 0, 64, 82
1, 53664, Control_c, 0, 64, 86
1, 53674, Note_off_c, 0, 70, 64
1, 53679, Control_c, 0, 64, 87
1, 53694, Control_c, 0, 64, 89
1, 53698, Note_on_c, 0, 75, 54
1, 53709, Control_c, 0, 64, 90
1, 53712, Note_off_c, 0, 63, 38
1, 53724, Control_c, 0, 64, 90
1, 53739, Control_c, 0, 64, 91
1, 53753, Control_c, 0, 64, 92
1, 53756, Note_on_c, 0, 72, 53
1, 53768, Control_c, 0, 64, 93
1, 53774, Note_off_c, 0, 75, 38
1, 53783, Control_c, 0, 64, 94
1, 53798, Control_c, 0, 64, 94
1, 53810, Note_off_c, 0, 72, 55
1, 53837, Note_on_c, 0, 70, 40
1, 53881, Note_on_c, 0, 68, 42
1, 53883, Note_off_c, 0, 70, 56
1, 53909, Note_off_c, 0, 68, 55
1, 53948, Note_on_c, 0, 61, 49
1, 53961, Control_c, 0, 64, 89
1, 53975, Control_c, 0, 64, 79
1, 53990, Control_c, 0, 64, 66
1, 54005, Control_c, 0, 64, 53
1, 54020, Control_c, 0, 64, 53
1, 54034, Control_c, 0, 64, 62
1, 54037, Note_on_c, 0, 63, 45
1, 54049, Control_c, 0, 64, 68
1, 54064, Control_c, 0, 64, 76
1, 54078, Note_on_c, 0, 66, 54
1, 54079, Control_c, 0, 64, 84
1, 54098, Note_off_c, 0, 63, 55
1, 54101, Control_c, 0, 64, 89
1, 54116, Control_c, 0, 64, 90
1, 54133, Note_on_c, 0, 68, 52
1, 54133, Note_off_c, 0, 66, 56
1, 54163, Note_off_c, 0, 68, 65
1, 54179, Note_off_c, 0, 61, 61
1, 54185, Note_on_c, 0, 73, 58
1, 54231, Note_off_c, 0, 73, 57
1, 54255, Note_on_c, 0, 70, 56
1, 54299, Note_off_c, 0, 70, 57
1, 54320, Note_on_c, 0, 68, 42
1, 54352, Note_off_c, 0, 68, 57
1, 54376, Note_on_c, 0, 66, 42
1, 54403, Note_off_c, 0, 66, 58
1, 54406, Note_on_c, 0, 58, 53
1, 54412, Control_c, 0, 64, 88
1, 54427, Control_c, 0, 64, 80
1, 54442, Control_c, 0, 64, 69
1, 54457, Control_c, 0, 64, 57
1, 54472, Control_c, 0, 64, 54
1, 54487, Control_c, 0, 64, 60
1, 54492, Note_on_c, 0, 60, 45
1, 54502, Control_c, 0, 64, 67
1, 54517, Control_c, 0, 64, 75
1, 54532, Control_c, 0, 64, 85
1, 54543, Note_off_c, 0, 60, 57
1, 54546, Control_c, 0, 64, 92
1, 54561, Note_on_c, 0, 62, 47
1, 54561, Control_c, 0, 64, 94
1, 54594, Note_on_c, 0, 63, 47
1, 54604, Note_off_c, 0, 62, 46
1, 54615, Note_off_c, 0, 58, 41
1, 54646, Note_off_c, 0, 63, 60
1, 54649, Note_on_c, 0, 70, 53
1, 54696, Note_off_c, 0, 70, 56
1, 54702, Note_on_c, 0, 67, 52
1, 54790, Note_off_c, 0, 67, 57
1, 54799, Note_on_c, 0, 65, 22
1, 54813, Control_c, 0, 64, 95
1, 54828, Control_c, 0, 64, 96
1, 54830, Note_on_c, 0, 64, 51
1, 54850, Control_c, 0, 64, 96
1, 54852, Note_off_c, 0, 65, 51
1, 54865, Control_c, 0, 64, 96
1, 54868, Note_on_c, 0, 57, 56
1, 54875, Note_off_c, 0, 64, 62
1, 54880, Control_c, 0, 64, 91
1, 54895, Control_c, 0, 64, 78
1, 54910, Control_c, 0, 64, 65
1, 54924, Control_c, 0, 64, 55
1, 54938, Note_on_c, 0, 60, 48
1, 54939, Control_c, 0, 64, 59
1, 54954, Control_c, 0, 64, 64
1, 54969, Control_c, 0, 64, 72
1, 54984, Control_c, 0, 64, 84
1, 54990, Note_on_c, 0, 62, 50
1, 54998, Control_c, 0, 64, 95
1, 55013, Control_c, 0, 64, 101
1, 55028, Control_c, 0, 64, 103
1, 55029, Note_off_c, 0, 60, 58
1, 55030, Note_off_c, 0, 57, 58
1, 55043, Control_c, 0, 64, 103
1, 55045, Note_off_c, 0, 62, 61
1, 55047, Note_on_c, 0, 64, 59
1, 55058, Control_c, 0, 64, 104
1, 55072, Control_c, 0, 64, 106
1, 55077, Note_off_c, 0, 64, 66
1, 55086, Control_c, 0, 64, 110
1, 55101, Control_c, 0, 64, 116
1, 55105, Note_on_c, 0, 69, 65
1, 55116, Control_c, 0, 64, 127
1, 55150, Note_off_c, 0, 69, 61
1, 55171, Note_on_c, 0, 66, 66
1, 55225, Note_on_c, 0, 64, 55
1, 55229, Note_off_c, 0, 66, 55
1, 55256, Note_off_c, 0, 64, 66
1, 55273, Note_on_c, 0, 62, 57
1, 55298, Note_off_c, 0, 62, 59
1, 55318, Note_on_c, 0, 60, 69
1, 55354, Control_c, 0, 64, 97
1, 55369, Control_c, 0, 64, 77
1, 55384, Control_c, 0, 64, 64
1, 55399, Control_c, 0, 64, 61
1, 55413, Control_c, 0, 64, 66
1, 55421, Note_on_c, 0, 63, 58
1, 55428, Control_c, 0, 64, 74
1, 55443, Control_c, 0, 64, 87
1, 55458, Control_c, 0, 64, 107
1, 55459, Note_on_c, 0, 65, 70
1, 55473, Control_c, 0, 64, 127
1, 55475, Note_off_c, 0, 60, 57
1, 55509, Note_off_c, 0, 63, 58
1, 55520, Note_off_c, 0, 65, 62
1, 55523, Note_on_c, 0, 67, 61
1, 55531, Note_on_c, 0, 72, 71
1, 55553, Note_off_c, 0, 67, 65
1, 55600, Note_off_c, 0, 72, 63
1, 55602, Note_on_c, 0, 69, 68
1, 55647, Note_on_c, 0, 67, 61
1, 55659, Note_off_c, 0, 69, 62
1, 55691, Note_off_c, 0, 67, 64
1, 55703, Note_on_c, 0, 66, 68
1, 55730, Note_off_c, 0, 66, 68
1, 55754, Note_on_c, 0, 62, 76
1, 55806, Control_c, 0, 64, 107
1, 55820, Control_c, 0, 64, 81
1, 55835, Control_c, 0, 64, 58
1, 55850, Control_c, 0, 64, 41
1, 55863, Note_on_c, 0, 66, 63
1, 55865, Control_c, 0, 64, 55
1, 55880, Control_c, 0, 64, 66
1, 55894, Control_c, 0, 64, 80
1, 55895, Note_on_c, 0, 67, 70
1, 55909, Control_c, 0, 64, 107
1, 55924, Control_c, 0, 64, 127
1, 55934, Note_off_c, 0, 62, 57
1, 55949, Note_on_c, 0, 69, 59
1, 55958, Note_off_c, 0, 67, 62
1, 55959, Note_off_c, 0, 66, 60
1, 55981, Note_off_c, 0, 69, 66
1, 55984, Note_on_c, 0, 74, 71
1, 56040, Note_off_c, 0, 74, 63
1, 56042, Note_on_c, 0, 72, 73
1, 56105, Note_off_c, 0, 72, 62
1, 56126, Note_on_c, 0, 70, 48
1, 56153, Note_off_c, 0, 70, 59
1, 56181, Note_on_c, 0, 69, 34
1, 56204, Note_on_c, 0, 63, 64
1, 56209, Note_off_c, 0, 69, 57
1, 56296, Control_c, 0, 64, 98
1, 56310, Control_c, 0, 64, 73
1, 56314, Note_on_c, 0, 66, 53
1, 56325, Control_c, 0, 64, 52
1, 56347, Control_c, 0, 64, 14
1, 56362, Control_c, 0, 64, 43
1, 56377, Control_c, 0, 64, 61
1, 56390, Note_on_c, 0, 68, 46
1, 56392, Control_c, 0, 64, 70
1, 56406, Control_c, 0, 64, 86
1, 56421, Control_c, 0, 64, 103
1, 56423, Note_off_c, 0, 66, 54
1, 56436, Control_c, 0, 64, 120
1, 56438, Note_off_c, 0, 68, 62
1, 56439, Note_on_c, 0, 69, 54
1, 56451, Control_c, 0, 64, 127
1, 56455, Note_off_c, 0, 63, 60
1, 56473, Note_off_c, 0, 69, 65
1, 56474, Note_on_c, 0, 75, 67
1, 56536, Note_on_c, 0, 72, 63
1, 56544, Note_off_c, 0, 75, 57
1, 56597, Note_on_c, 0, 70, 64
1, 56604, Note_off_c, 0, 72, 63
1, 56626, Note_off_c, 0, 70, 66
1, 56641, Note_on_c, 0, 69, 69
1, 56666, Note_off_c, 0, 69, 67
1, 56682, Note_on_c, 0, 66, 76
1, 56716, Control_c, 0, 64, 114
1, 56731, Control_c, 0, 64, 92
1, 56744, Note_on_c, 0, 69, 60
1, 56746, Control_c, 0, 64, 79
1, 56761, Control_c, 0, 64, 75
1, 56776, Control_c, 0, 64, 80
1, 56791, Control_c, 0, 64, 95
1, 56804, Note_on_c, 0, 70, 70
1, 56806, Control_c, 0, 64, 127
1, 56822, Note_off_c, 0, 66, 59
1, 56836, Note_off_c, 0, 69, 62
1, 56851, Note_on_c, 0, 72, 71
1, 56854, Note_off_c, 0, 70, 64
1, 56877, Note_off_c, 0, 72, 67
1, 56883, Note_on_c, 0, 78, 76
1, 56939, Note_on_c, 0, 75, 76
1, 56950, Note_off_c, 0, 78, 63
1, 56995, Note_on_c, 0, 73, 75
1, 57002, Note_off_c, 0, 75, 63
1, 57032, Note_off_c, 0, 73, 60
1, 57047, Note_on_c, 0, 72, 78
1, 57070, Note_off_c, 0, 72, 68
1, 57089, Note_on_c, 0, 69, 75
1, 57155, Control_c, 0, 64, 106
1, 57158, Note_on_c, 0, 72, 70
1, 57170, Control_c, 0, 64, 77
1, 57184, Control_c, 0, 64, 59
1, 57199, Control_c, 0, 64, 52
1, 57214, Control_c, 0, 64, 64
1, 57221, Note_on_c, 0, 73, 78
1, 57229, Control_c, 0, 64, 77
1, 57244, Control_c, 0, 64, 107
1, 57258, Control_c, 0, 64, 127
1, 57262, Note_off_c, 0, 72, 58
1, 57276, Note_off_c, 0, 69, 39
1, 57287, Note_on_c, 0, 75, 70
1, 57291, Note_off_c, 0, 73, 63
1, 57310, Note_off_c, 0, 75, 66
1, 57334, Note_on_c, 0, 81, 82
1, 57390, Note_off_c, 0, 81, 65
1, 57395, Note_on_c, 0, 78, 83
1, 57441, Note_off_c, 0, 78, 64
1, 57450, Note_on_c, 0, 77, 76
1, 57496, Note_off_c, 0, 77, 62
1, 57514, Note_on_c, 0, 76, 57
1, 57521, Note_on_c, 0, 72, 88
1, 57536, Note_off_c, 0, 76, 62
1, 57554, Control_c, 0, 64, 104
1, 57569, Control_c, 0, 64, 77
1, 57584, Control_c, 0, 64, 51
1, 57599, Control_c, 0, 64, 10
1, 57614, Control_c, 0, 64, 53
1, 57616, Note_on_c, 0, 75, 74
1, 57629, Control_c, 0, 64, 68
1, 57644, Control_c, 0, 64, 90
1, 57655, Note_off_c, 0, 72, 61
1, 57657, Note_on_c, 0, 77, 79
1, 57659, Control_c, 0, 64, 127
1, 57685, Note_off_c, 0, 75, 63
1, 57693, Note_on_c, 0, 79, 75
1, 57702, Note_off_c, 0, 77, 63
1, 57723, Note_off_c, 0, 79, 63
1, 57747, Note_on_c, 0, 84, 83
1, 57808, Note_off_c, 0, 84, 64
1, 57810, Note_on_c, 0, 81, 81
1, 57861, Note_on_c, 0, 79, 72
1, 57867, Note_off_c, 0, 81, 69
1, 57903, Note_off_c, 0, 79, 60
1, 57910, Note_on_c, 0, 77, 75
1, 57939, Note_off_c, 0, 77, 65
1, 57945, Note_on_c, 0, 75, 86
1, 57977, Control_c, 0, 64, 108
1, 57992, Control_c, 0, 64, 80
1, 58007, Control_c, 0, 64, 63
1, 58022, Control_c, 0, 64, 55
1, 58027, Note_on_c, 0, 77, 71
1, 58037, Control_c, 0, 64, 65
1, 58052, Control_c, 0, 64, 78
1, 58067, Control_c, 0, 64, 109
1, 58072, Note_on_c, 0, 79, 76
1, 58081, Control_c, 0, 64, 127
1, 58130, Note_on_c, 0, 81, 78
1, 58138, Note_off_c, 0, 79, 60
1, 58144, Note_off_c, 0, 75, 62
1, 58150, Note_off_c, 0, 77, 62
1, 58171, Note_off_c, 0, 81, 62
1, 58181, Note_on_c, 0, 87, 84
1, 58235, Note_on_c, 0, 84, 72
1, 58267, Note_off_c, 0, 87, 62
1, 58289, Note_on_c, 0, 82, 81
1, 58300, Note_off_c, 0, 84, 65
1, 58338, Note_off_c, 0, 82, 63
1, 58344, Note_on_c, 0, 81, 77
1, 58373, Note_off_c, 0, 81, 63
1, 58392, Note_on_c, 0, 73, 84
1, 58436, Control_c, 0, 64, 94
1, 58452, Control_c, 0, 64, 73
1, 58467, Control_c, 0, 64, 64
1, 58479, Note_on_c, 0, 78, 75
1, 58482, Control_c, 0, 64, 68
1, 58497, Control_c, 0, 64, 84
1, 58511, Control_c, 0, 64, 127
1, 58518, Note_on_c, 0, 80, 74
1, 58548, Note_off_c, 0, 73, 53
1, 58556, Note_off_c, 0, 78, 63
1, 58583, Note_on_c, 0, 82, 82
1, 58587, Note_off_c, 0, 80, 65
1, 58613, Note_on_c, 0, 85, 90
1, 58613, Note_off_c, 0, 82, 63
1, 58687, Note_on_c, 0, 82, 80
1, 58699, Note_off_c, 0, 85, 65
1, 58734, Note_on_c, 0, 80, 79
1, 58738, Note_off_c, 0, 82, 66
1, 58770, Note_on_c, 0, 78, 83
1, 58781, Note_off_c, 0, 80, 61
1, 58809, Note_on_c, 0, 72, 92
1, 58810, Note_off_c, 0, 78, 62
1, 58845, Control_c, 0, 64, 95
1, 58860, Control_c, 0, 64, 74
1, 58875, Control_c, 0, 64, 65
1, 58889, Control_c, 0, 64, 72
1, 58904, Control_c, 0, 64, 93
1, 58904, Note_on_c, 0, 75, 74
1, 58919, Control_c, 0, 64, 127
1, 58937, Note_off_c, 0, 72, 61
1, 58941, Note_on_c, 0, 77, 79
1, 58970, Note_off_c, 0, 75, 63
1, 58991, Note_off_c, 0, 77, 65
1, 59009, Note_on_c, 0, 79, 58
1, 59028, Note_off_c, 0, 79, 62
1, 59031, Note_on_c, 0, 84, 89
1, 59096, Note_on_c, 0, 81, 85
1, 59109, Note_off_c, 0, 84, 64
1, 59134, Note_on_c, 0, 79, 69
1, 59152, Note_off_c, 0, 81, 68
1, 59178, Note_off_c, 0, 79, 64
1, 59191, Note_on_c, 0, 77, 65
1, 59209, Note_off_c, 0, 77, 67
1, 59212, Note_on_c, 0, 75, 86
1, 59244, Control_c, 0, 64, 120
1, 59260, Control_c, 0, 64, 80
1, 59275, Control_c, 0, 64, 62
1, 59287, Note_on_c, 0, 77, 60
1, 59290, Control_c, 0, 64, 52
1, 59304, Control_c, 0, 64, 64
1, 59319, Control_c, 0, 64, 79
1, 59342, Control_c, 0, 64, 127
1, 59363, Note_on_c, 0, 79, 69
1, 59421, Note_on_c, 0, 81, 75
1, 59428, Note_off_c, 0, 79, 61
1, 59441, Note_off_c, 0, 77, 62
1, 59444, Note_off_c, 0, 75, 61
1, 59446, Note_off_c, 0, 81, 69
1, 59471, Note_on_c, 0, 87, 83
1, 59529, Note_on_c, 0, 84, 73
1, 59560, Note_off_c, 0, 87, 59
1, 59590, Note_on_c, 0, 82, 72
1, 59606, Note_off_c, 0, 84, 63
1, 59631, Note_on_c, 0, 81, 75
1, 59650, Note_off_c, 0, 82, 63
1, 59668, Note_off_c, 0, 81, 60
1, 59696, Note_on_c, 0, 74, 84
1, 59727, Control_c, 0, 64, 84
1, 59742, Control_c, 0, 64, 67
1, 59772, Control_c, 0, 64, 87
1, 59778, Note_on_c, 0, 78, 78
1, 59786, Control_c, 0, 64, 127
1, 59828, Note_on_c, 0, 80, 70
1, 59843, Note_off_c, 0, 74, 56
1, 59852, Note_off_c, 0, 78, 59
1, 59859, Note_on_c, 0, 86, 86
1, 59864, Note_on_c, 0, 82, 76
1, 59876, Note_off_c, 0, 80, 63
1, 59885, Note_off_c, 0, 82, 70
1, 59921, Note_off_c, 0, 86, 64
1, 59930, Note_on_c, 0, 82, 89
1, 59973, Note_on_c, 0, 80, 80
1, 59973, Note_off_c, 0, 82, 66
1, 60009, Note_off_c, 0, 80, 61
1, 60015, Note_on_c, 0, 78, 79
1, 60042, Note_off_c, 0, 78, 67
1, 60069, Control_c, 0, 64, 84
1, 60091, Control_c, 0, 64, 0
1, 60127, Note_on_c, 0, 85, 98
1, 60134, Note_on_c, 0, 83, 99
1, 60135, Control_c, 0, 64, 63
1, 60150, Control_c, 0, 64, 127
1, 60173, Note_off_c, 0, 83, 63
1, 60193, Note_off_c, 0, 85, 62
1, 60201, Note_on_c, 0, 82, 85
1, 60225, Note_on_c, 0, 84, 76
1, 60243, Note_off_c, 0, 82, 57
1, 60249, Note_off_c, 0, 84, 68
1, 60268, Note_on_c, 0, 85, 73
1, 60276, Note_on_c, 0, 83, 67
1, 60294, Note_off_c, 0, 85, 63
1, 60326, Note_off_c, 0, 83, 63
1, 60329, Note_on_c, 0, 87, 81
1, 60340, Note_on_c, 0, 80, 66
1, 60368, Note_off_c, 0, 87, 60
1, 60387, Note_on_c, 0, 85, 85
1, 60397, Note_on_c, 0, 83, 77
1, 60397, Note_off_c, 0, 80, 63
1, 60425, Note_off_c, 0, 85, 62
1, 60429, Note_off_c, 0, 83, 62
1, 60446, Note_on_c, 0, 82, 68
1, 60460, Note_on_c, 0, 84, 59
1, 60469, Note_off_c, 0, 82, 66
1, 60493, Note_off_c, 0, 84, 63
1, 60502, Note_on_c, 0, 83, 70
1, 60502, Note_on_c, 0, 85, 79
1, 60558, Note_on_c, 0, 87, 85
1, 60559, Note_off_c, 0, 85, 59
1, 60561, Note_off_c, 0, 83, 61
1, 60574, Note_on_c, 0, 80, 73
1, 60584, Note_off_c, 0, 87, 64
1, 60612, Note_on_c, 0, 85, 77
1, 60630, Note_off_c, 0, 80, 64
1, 60636, Note_on_c, 0, 83, 77
1, 60655, Note_off_c, 0, 85, 65
1, 60657, Note_off_c, 0, 83, 69
1, 60662, Note_on_c, 0, 82, 80
1, 60669, Note_on_c, 0, 84, 65
1, 60687, Note_off_c, 0, 82, 67
1, 60697, Note_off_c, 0, 84, 65
1, 60721, Note_on_c, 0, 83, 70
1, 60733, Note_on_c, 0, 85, 82
1, 60788, Note_on_c, 0, 87, 87
1, 60789, Note_off_c, 0, 85, 62
1, 60804, Note_off_c, 0, 83, 61
1, 60809, Note_on_c, 0, 79, 76
1, 60835, Note_off_c, 0, 87, 65
1, 60854, Note_on_c, 0, 85, 77
1, 60871, Note_off_c, 0, 79, 61
1, 60875, Note_on_c, 0, 83, 65
1, 60900, Note_off_c, 0, 85, 62
1, 60906, Note_on_c, 0, 82, 77
1, 60916, Note_off_c, 0, 83, 61
1, 60922, Note_on_c, 0, 84, 73
1, 60936, Note_off_c, 0, 82, 60
1, 60970, Note_on_c, 0, 85, 70
1, 60975, Note_off_c, 0, 84, 63
1, 60979, Note_on_c, 0, 83, 71
1, 61012, Note_on_c, 0, 79, 71
1, 61014, Note_on_c, 0, 87, 79
1, 61017, Note_off_c, 0, 83, 63
1, 61017, Note_off_c, 0, 85, 65
1, 61035, Note_off_c, 0, 87, 70
1, 61036, Note_off_c, 0, 79, 68
1, 61091, Control_c, 0, 64, 90
1, 61106, Control_c, 0, 64, 63
1, 61121, Control_c, 0, 64, 44
1, 61122, Note_on_c, 0, 71, 86
1, 61122, Note_on_c, 0, 73, 84
1, 61136, Control_c, 0, 64, 61
1, 61144, Note_off_c, 0, 73, 66
1, 61150, Control_c, 0, 64, 74
1, 61164, Note_off_c, 0, 71, 63
1, 61165, Control_c, 0, 64, 110
1, 61180, Control_c, 0, 64, 127
1, 61188, Note_on_c, 0, 70, 76
1, 61201, Note_on_c, 0, 72, 77
1, 61211, Note_off_c, 0, 70, 68
1, 61239, Note_off_c, 0, 72, 54
1, 61240, Note_on_c, 0, 73, 74
1, 61247, Note_on_c, 0, 71, 82
1, 61269, Control_c, 0, 64, 106
1, 61283, Control_c, 0, 64, 96
1, 61289, Note_off_c, 0, 73, 57
1, 61298, Control_c, 0, 64, 98
1, 61301, Note_on_c, 0, 75, 83
1, 61313, Control_c, 0, 64, 127
1, 61329, Note_on_c, 0, 68, 75
1, 61329, Note_off_c, 0, 71, 60
1, 61343, Note_off_c, 0, 75, 62
1, 61364, Note_on_c, 0, 73, 79
1, 61373, Control_c, 0, 64, 111
1, 61376, Note_on_c, 0, 71, 67
1, 61383, Note_off_c, 0, 68, 64
1, 61388, Control_c, 0, 64, 90
1, 61402, Control_c, 0, 64, 86
1, 61404, Note_off_c, 0, 73, 62
1, 61417, Control_c, 0, 64, 91
1, 61420, Note_off_c, 0, 71, 66
1, 61420, Note_on_c, 0, 70, 73
1, 61432, Control_c, 0, 64, 108
1, 61437, Note_on_c, 0, 72, 60
1, 61443, Note_off_c, 0, 70, 65
1, 61447, Control_c, 0, 64, 127
1, 61478, Note_off_c, 0, 72, 62
1, 61488, Note_on_c, 0, 71, 77
1, 61492, Note_on_c, 0, 73, 74
1, 61546, Note_on_c, 0, 75, 82
1, 61546, Note_off_c, 0, 73, 58
1, 61550, Control_c, 0, 64, 118
1, 61563, Note_off_c, 0, 71, 65
1, 61565, Control_c, 0, 64, 103
1, 61566, Note_on_c, 0, 68, 72
1, 61586, Note_off_c, 0, 75, 62
1, 61587, Control_c, 0, 64, 104
1, 61602, Control_c, 0, 64, 127
1, 61610, Note_on_c, 0, 73, 83
1, 61629, Note_off_c, 0, 68, 60
1, 61635, Note_on_c, 0, 71, 78
1, 61658, Note_off_c, 0, 71, 70
1, 61662, Note_off_c, 0, 73, 63
1, 61662, Control_c, 0, 64, 107
1, 61677, Control_c, 0, 64, 89
1, 61678, Note_on_c, 0, 72, 62
1, 61679, Note_on_c, 0, 70, 68
1, 61692, Control_c, 0, 64, 86
1, 61702, Note_off_c, 0, 72, 63
1, 61704, Note_off_c, 0, 70, 66
1, 61707, Control_c, 0, 64, 94
1, 61721, Control_c, 0, 64, 127
1, 61735, Note_on_c, 0, 71, 82
1, 61740, Note_on_c, 0, 73, 75
1, 61795, Note_off_c, 0, 73, 59
1, 61796, Control_c, 0, 64, 113
1, 61798, Note_on_c, 0, 75, 77
1, 61801, Note_off_c, 0, 71, 62
1, 61811, Control_c, 0, 64, 85
1, 61812, Note_on_c, 0, 67, 78
1, 61826, Control_c, 0, 64, 72
1, 61828, Note_off_c, 0, 75, 64
1, 61841, Control_c, 0, 64, 78
1, 61852, Note_on_c, 0, 73, 72
1, 61855, Control_c, 0, 64, 110
1, 61868, Note_on_c, 0, 71, 70
1, 61870, Note_off_c, 0, 67, 61
1, 61870, Control_c, 0, 64, 127
1, 61893, Note_off_c, 0, 73, 61
1, 61903, Note_on_c, 0, 70, 72
1, 61906, Note_off_c, 0, 71, 64
1, 61914, Note_on_c, 0, 72, 74
1, 61951, Note_off_c, 0, 70, 49
1, 61967, Note_on_c, 0, 73, 71
1, 61972, Note_off_c, 0, 72, 61
1, 61981, Note_on_c, 0, 71, 68
1, 62011, Note_off_c, 0, 71, 68
1, 62014, Note_on_c, 0, 67, 69
1, 62023, Note_off_c, 0, 73, 64
1, 62024, Note_on_c, 0, 75, 68
1, 62036, Note_off_c, 0, 67, 69
1, 62049, Note_off_c, 0, 75, 67
1, 62092, Control_c, 0, 64, 87
1, 62106, Control_c, 0, 64, 62
1, 62121, Control_c, 0, 64, 58
1, 62130, Note_on_c, 0, 61, 77
1, 62131, Note_on_c, 0, 59, 77
1, 62136, Control_c, 0, 64, 68
1, 62151, Control_c, 0, 64, 80
1, 62161, Note_off_c, 0, 61, 60
1, 62166, Control_c, 0, 64, 111
1, 62180, Note_off_c, 0, 59, 59
1, 62180, Control_c, 0, 64, 127
1, 62202, Note_on_c, 0, 58, 66
1, 62202, Note_on_c, 0, 60, 77
1, 62210, Control_c, 0, 64, 103
1, 62225, Note_off_c, 0, 58, 61
1, 62225, Control_c, 0, 64, 84
1, 62240, Control_c, 0, 64, 73
1, 62241, Note_on_c, 0, 61, 73
1, 62246, Note_off_c, 0, 60, 58
1, 62255, Control_c, 0, 64, 73
1, 62258, Note_on_c, 0, 59, 84
1, 62270, Control_c, 0, 64, 80
1, 62285, Control_c, 0, 64, 94
1, 62299, Control_c, 0, 64, 98
1, 62306, Note_on_c, 0, 63, 80
1, 62307, Note_off_c, 0, 61, 64
1, 62314, Control_c, 0, 64, 85
1, 62327, Note_on_c, 0, 56, 79
1, 62333, Note_off_c, 0, 59, 62
1, 62336, Control_c, 0, 64, 68
1, 62351, Control_c, 0, 64, 58
1, 62357, Note_off_c, 0, 63, 60
1, 62366, Control_c, 0, 64, 63
1, 62371, Note_on_c, 0, 61, 73
1, 62380, Control_c, 0, 64, 72
1, 62385, Note_off_c, 0, 56, 63
1, 62386, Note_on_c, 0, 59, 72
1, 62395, Control_c, 0, 64, 86
1, 62410, Note_off_c, 0, 61, 61
1, 62410, Control_c, 0, 64, 86
1, 62419, Note_off_c, 0, 59, 64
1, 62425, Control_c, 0, 64, 75
1, 62430, Note_on_c, 0, 58, 70
1, 62440, Control_c, 0, 64, 59
1, 62442, Note_on_c, 0, 60, 64
1, 62456, Control_c, 0, 64, 37
1, 62465, Note_off_c, 0, 58, 62
1, 62471, Control_c, 0, 64, 52
1, 62475, Note_off_c, 0, 60, 63
1, 62485, Control_c, 0, 64, 65
1, 62488, Note_on_c, 0, 61, 66
1, 62500, Control_c, 0, 64, 68
1, 62502, Note_on_c, 0, 59, 64
1, 62515, Control_c, 0, 64, 64
1, 62529, Control_c, 0, 64, 44
1, 62544, Control_c, 0, 64, 35
1, 62547, Note_off_c, 0, 61, 62
1, 62550, Note_on_c, 0, 63, 70
1, 62559, Note_on_c, 0, 55, 66
1, 62559, Note_off_c, 0, 59, 64
1, 62559, Control_c, 0, 64, 57
1, 62574, Control_c, 0, 64, 67
1, 62580, Note_off_c, 0, 63, 66
1, 62589, Control_c, 0, 64, 74
1, 62597, Note_on_c, 0, 61, 63
1, 62604, Control_c, 0, 64, 73
1, 62611, Note_on_c, 0, 59, 61
1, 62611, Note_off_c, 0, 55, 58
1, 62619, Control_c, 0, 64, 64
1, 62634, Control_c, 0, 64, 52
1, 62637, Note_off_c, 0, 61, 62
1, 62648, Control_c, 0, 64, 58
1, 62663, Control_c, 0, 64, 65
1, 62669, Note_off_c, 0, 59, 59
1, 62673, Note_on_c, 0, 58, 48
1, 62678, Control_c, 0, 64, 72
1, 62689, Note_on_c, 0, 60, 55
1, 62693, Control_c, 0, 64, 71
1, 62699, Note_off_c, 0, 58, 58
1, 62708, Control_c, 0, 64, 62
1, 62714, Note_on_c, 0, 61, 68
1, 62717, Note_off_c, 0, 60, 62
1, 62722, Control_c, 0, 64, 45
1, 62729, Note_on_c, 0, 59, 67
1, 62737, Control_c, 0, 64, 51
1, 62752, Control_c, 0, 64, 62
1, 62762, Note_on_c, 0, 54, 49
1, 62765, Note_off_c, 0, 61, 61
1, 62767, Control_c, 0, 64, 69
1, 62772, Note_off_c, 0, 59, 56
1, 62773, Note_on_c, 0, 63, 70
1, 62782, Control_c, 0, 64, 72
1, 62796, Control_c, 0, 64, 68
1, 62811, Control_c, 0, 64, 61
1, 62815, Note_off_c, 0, 63, 63
1, 62826, Control_c, 0, 64, 58
1, 62832, Note_on_c, 0, 61, 61
1, 62833, Note_off_c, 0, 54, 63
1, 62841, Control_c, 0, 64, 63
1, 62842, Note_on_c, 0, 59, 69
1, 62856, Control_c, 0, 64, 70
1, 62869, Note_off_c, 0, 61, 62
1, 62870, Control_c, 0, 64, 78
1, 62873, Note_off_c, 0, 59, 60
1, 62900, Control_c, 0, 64, 74
1, 62902, Note_on_c, 0, 58, 57
1, 62912, Note_on_c, 0, 60, 64
1, 62915, Control_c, 0, 64, 69
1, 62925, Note_off_c, 0, 58, 59
1, 62944, Control_c, 0, 64, 70
1, 62949, Note_on_c, 0, 61, 67
1, 62949, Note_off_c, 0, 60, 60
1, 62959, Control_c, 0, 64, 69
1, 62973, Note_on_c, 0, 59, 64
1, 62974, Control_c, 0, 64, 64
1, 62989, Control_c, 0, 64, 56
1, 63003, Control_c, 0, 64, 59
1, 63004, Note_off_c, 0, 61, 61
1, 63009, Note_on_c, 0, 63, 74
1, 63018, Control_c, 0, 64, 66
1, 63033, Control_c, 0, 64, 75
1, 63036, Note_off_c, 0, 59, 63
1, 63038, Note_on_c, 0, 53, 58
1, 63044, Note_off_c, 0, 63, 65
1, 63048, Control_c, 0, 64, 80
1, 63063, Control_c, 0, 64, 76
1, 63069, Note_on_c, 0, 61, 61
1, 63078, Note_off_c, 0, 53, 66
1, 63085, Control_c, 0, 64, 66
1, 63100, Control_c, 0, 64, 54
1, 63105, Note_on_c, 0, 59, 53
1, 63107, Note_off_c, 0, 61, 64
1, 63115, Control_c, 0, 64, 56
1, 63129, Control_c, 0, 64, 63
1, 63142, Note_on_c, 0, 58, 55
1, 63144, Control_c, 0, 64, 69
1, 63151, Note_on_c, 0, 60, 27
1, 63159, Control_c, 0, 64, 70
1, 63166, Note_off_c, 0, 58, 59
1, 63174, Control_c, 0, 64, 63
1, 63182, Note_on_c, 0, 61, 60
1, 63187, Note_off_c, 0, 60, 49
1, 63189, Control_c, 0, 64, 40
1, 63203, Control_c, 0, 64, 32
1, 63218, Control_c, 0, 64, 52
1, 63224, Note_off_c, 0, 59, 57
1, 63227, Note_on_c, 0, 51, 58
1, 63233, Control_c, 0, 64, 62
1, 63234, Note_off_c, 0, 61, 61
1, 63249, Note_on_c, 0, 63, 65
1, 63249, Control_c, 0, 64, 68
1, 63254, Note_off_c, 0, 51, 59
1, 63264, Control_c, 0, 64, 68
1, 63279, Control_c, 0, 64, 61
1, 63281, Note_off_c, 0, 63, 66
1, 63291, Note_on_c, 0, 59, 55
1, 63294, Control_c, 0, 64, 49
1, 63300, Note_on_c, 0, 61, 58
1, 63308, Control_c, 0, 64, 53
1, 63324, Control_c, 0, 64, 59
1, 63337, Note_off_c, 0, 61, 63
1, 63338, Note_off_c, 0, 59, 54
1, 63339, Control_c, 0, 64, 65
1, 63353, Control_c, 0, 64, 69
1, 63368, Control_c, 0, 64, 68
1, 63376, Note_on_c, 0, 58, 41
1, 63383, Control_c, 0, 64, 65
1, 63398, Control_c, 0, 64, 63
1, 63403, Note_on_c, 0, 60, 25
1, 63406, Note_off_c, 0, 58, 55
1, 63411, Note_on_c, 0, 61, 65
1, 63427, Control_c, 0, 64, 64
1, 63429, Note_on_c, 0, 59, 40
1, 63441, Note_off_c, 0, 60, 50
1, 63442, Control_c, 0, 64, 64
1, 63456, Note_on_c, 0, 54, 57
1, 63457, Control_c, 0, 64, 65
1, 63459, Note_off_c, 0, 61, 61
1, 63471, Control_c, 0, 64, 67
1, 63474, Note_off_c, 0, 59, 56
1, 63476, Note_on_c, 0, 63, 64
1, 63486, Control_c, 0, 64, 68
1, 63498, Note_off_c, 0, 54, 65
1, 63501, Control_c, 0, 64, 66
1, 63509, Note_off_c, 0, 63, 65
1, 63516, Control_c, 0, 64, 64
1, 63531, Control_c, 0, 64, 62
1, 63540, Note_on_c, 0, 61, 57
1, 63546, Control_c, 0, 64, 63
1, 63561, Control_c, 0, 64, 63
1, 63570, Note_off_c, 0, 61, 65
1, 63574, Note_on_c, 0, 60, 45
1, 63576, Control_c, 0, 64, 64
1, 63590, Control_c, 0, 64, 65
1, 63605, Control_c, 0, 64, 66
1, 63619, Note_on_c, 0, 58, 35
1, 63620, Control_c, 0, 64, 64
1, 63632, Note_off_c, 0, 60, 61
1, 63635, Control_c, 0, 64, 57
1, 63650, Control_c, 0, 64, 43
1, 63654, Note_on_c, 0, 61, 54
1, 63654, Note_off_c, 0, 58, 52
1, 63665, Control_c, 0, 64, 48
1, 63672, Note_on_c, 0, 59, 42
1, 63679, Control_c, 0, 64, 61
1, 63694, Control_c, 0, 64, 69
1, 63704, Note_off_c, 0, 61, 58
1, 63709, Control_c, 0, 64, 77
1, 63724, Control_c, 0, 64, 78
1, 63725, Note_on_c, 0, 63, 59
1, 63725, Note_off_c, 0, 59, 59
1, 63739, Control_c, 0, 64, 70
1, 63753, Control_c, 0, 64, 60
1, 63757, Note_off_c, 0, 63, 65
1, 63768, Control_c, 0, 64, 56
1, 63776, Poly_aftertouch_c, 0, 53, 127
1, 63783, Control_c, 0, 64, 64
1, 63788, Note_on_c, 0, 61, 40
1, 63794, Note_on_c, 0, 60, 48
1, 63798, Control_c, 0, 64, 73
1, 63813, Control_c, 0, 64, 90
1, 63826, Note_off_c, 0, 61, 54
1, 63832, Poly_aftertouch_c, 0, 53, 0
1, 63833, Note_off_c, 0, 60, 62
1, 63835, Control_c, 0, 64, 98
1, 63846, Note_on_c, 0, 59, 52
1, 63850, Control_c, 0, 64, 98
1, 63865, Control_c, 0, 64, 98
1, 63871, Note_on_c, 0, 58, 29
1, 63879, Control_c, 0, 64, 97
1, 63903, Note_on_c, 0, 61, 60
1, 63909, Control_c, 0, 64, 99
1, 63909, Note_off_c, 0, 58, 52
1, 63924, Control_c, 0, 64, 103
1, 63939, Control_c, 0, 64, 111
1, 63951, Note_off_c, 0, 59, 61
1, 63953, Control_c, 0, 64, 118
1, 63960, Note_on_c, 0, 51, 57
1, 63962, Note_off_c, 0, 61, 57
1, 63968, Control_c, 0, 64, 120
1, 63981, Note_on_c, 0, 63, 43
1, 63993, Note_off_c, 0, 51, 63
1, 64007, Note_off_c, 0, 63, 58
1, 64132, Control_c, 0, 64, 123
1, 64147, Control_c, 0, 64, 127
1, 64178, Note_on_c, 0, 37, 56
1, 64206, Control_c, 0, 64, 106
1, 64221, Control_c, 0, 64, 80
1, 64236, Control_c, 0, 64, 54
1, 64250, Control_c, 0, 64, 0
1, 64280, Control_c, 0, 64, 49
1, 64282, Note_off_c, 0, 37, 50
1, 64290, Note_on_c, 0, 39, 49
1, 64294, Control_c, 0, 64, 70
1, 64309, Control_c, 0, 64, 85
1, 64324, Control_c, 0, 64, 103
1, 64328, Note_on_c, 0, 42, 56
1, 64336, Note_off_c, 0, 39, 59
1, 64339, Control_c, 0, 64, 110
1, 64342, Note_on_c, 0, 40, 45
1, 64354, Note_on_c, 0, 46, 65
1, 64360, Note_off_c, 0, 42, 62
1, 64376, Note_off_c, 0, 40, 48
1, 64382, Note_off_c, 0, 46, 66
1, 64383, Control_c, 0, 64, 107
1, 64384, Note_on_c, 0, 43, 57
1, 64398, Control_c, 0, 64, 96
1, 64413, Note_off_c, 0, 43, 54
1, 64413, Control_c, 0, 64, 82
1, 64428, Control_c, 0, 64, 67
1, 64443, Control_c, 0, 64, 59
1, 64457, Note_on_c, 0, 49, 75
1, 64458, Control_c, 0, 64, 61
1, 64473, Control_c, 0, 64, 66
1, 64488, Control_c, 0, 64, 70
1, 64502, Control_c, 0, 64, 68
1, 64516, Note_off_c, 0, 49, 60
1, 64517, Control_c, 0, 64, 61
1, 64518, Note_on_c, 0, 51, 66
1, 64532, Control_c, 0, 64, 43
1, 64547, Control_c, 0, 64, 42
1, 64554, Note_on_c, 0, 52, 62
1, 64557, Note_off_c, 0, 51, 65
1, 64562, Control_c, 0, 64, 53
1, 64583, Control_c, 0, 64, 62
1, 64585, Note_on_c, 0, 54, 46
1, 64591, Note_off_c, 0, 52, 65
1, 64598, Control_c, 0, 64, 68
1, 64603, Note_on_c, 0, 58, 51
1, 64613, Control_c, 0, 64, 75
1, 64616, Note_off_c, 0, 54, 56
1, 64617, Note_on_c, 0, 55, 54
1, 64628, Note_off_c, 0, 58, 60
1, 64628, Control_c, 0, 64, 81
1, 64643, Control_c, 0, 64, 81
1, 64643, Note_off_c, 0, 55, 56
1, 64658, Control_c, 0, 64, 76
1, 64672, Note_on_c, 0, 49, 61
1, 64673, Control_c, 0, 64, 58
1, 64687, Control_c, 0, 64, 0
1, 64722, Note_off_c, 0, 49, 62
1, 64732, Control_c, 0, 64, 49
1, 64738, Note_on_c, 0, 51, 65
1, 64747, Control_c, 0, 64, 66
1, 64762, Control_c, 0, 64, 72
1, 64776, Control_c, 0, 64, 77
1, 64777, Note_off_c, 0, 51, 62
1, 64780, Note_on_c, 0, 54, 58
1, 64789, Note_on_c, 0, 52, 61
1, 64806, Control_c, 0, 64, 78
1, 64810, Note_off_c, 0, 54, 66
1, 64819, Note_off_c, 0, 52, 65
1, 64820, Control_c, 0, 64, 80
1, 64826, Note_on_c, 0, 58, 54
1, 64835, Control_c, 0, 64, 81
1, 64851, Note_off_c, 0, 58, 59
1, 64851, Control_c, 0, 64, 79
1, 64856, Note_on_c, 0, 55, 51
1, 64866, Control_c, 0, 64, 73
1, 64881, Control_c, 0, 64, 68
1, 64884, Note_off_c, 0, 55, 55
1, 64896, Control_c, 0, 64, 67
1, 64911, Control_c, 0, 64, 71
1, 64916, Note_on_c, 0, 61, 62
1, 64925, Control_c, 0, 64, 79
1, 64940, Control_c, 0, 64, 87
1, 64955, Control_c, 0, 64, 91
1, 64970, Control_c, 0, 64, 90
1, 64974, Note_on_c, 0, 63, 64
1, 64985, Control_c, 0, 64, 87
1, 64989, Note_off_c, 0, 61, 62
1, 64999, Control_c, 0, 64, 83
1, 65010, Note_on_c, 0, 64, 65
1, 65011, Note_off_c, 0, 63, 64
1, 65014, Control_c, 0, 64, 82
1, 65018, Note_on_c, 0, 66, 68
1, 65029, Control_c, 0, 64, 82
1, 65039, Note_off_c, 0, 64, 66
1, 65044, Control_c, 0, 64, 85
1, 65051, Note_off_c, 0, 66, 64
1, 65054, Note_on_c, 0, 70, 62
1, 65059, Control_c, 0, 64, 89
1, 65070, Note_on_c, 0, 67, 59
1, 65073, Control_c, 0, 64, 88
1, 65080, Note_off_c, 0, 70, 64
1, 65088, Control_c, 0, 64, 76
1, 65098, Note_off_c, 0, 67, 63
1, 65103, Control_c, 0, 64, 59
1, 65118, Control_c, 0, 64, 0
1, 65125, Note_on_c, 0, 61, 72
1, 65126, Note_on_c, 0, 69, 73
1, 65132, Control_c, 0, 64, 9
1, 65147, Control_c, 0, 64, 51
1, 65162, Control_c, 0, 64, 62
1, 65172, Note_off_c, 0, 69, 65
1, 65175, Note_on_c, 0, 67, 69
1, 65177, Control_c, 0, 64, 64
1, 65183, Note_off_c, 0, 61, 62
1, 65192, Control_c, 0, 64, 64
1, 65194, Note_on_c, 0, 63, 68
1, 65206, Control_c, 0, 64, 61
1, 65208, Note_off_c, 0, 67, 64
1, 65221, Control_c, 0, 64, 56
1, 65231, Note_off_c, 0, 63, 63
1, 65239, Note_on_c, 0, 64, 60
1, 65242, Note_on_c, 0, 66, 59
1, 65251, Control_c, 0, 64, 59
1, 65266, Control_c, 0, 64, 61
1, 65270, Note_off_c, 0, 64, 65
1, 65275, Note_off_c, 0, 66, 64
1, 65281, Control_c, 0, 64, 63
1, 65285, Note_on_c, 0, 70, 53
1, 65296, Control_c, 0, 64, 64
1, 65307, Note_on_c, 0, 67, 51
1, 65310, Control_c, 0, 64, 64
1, 65329, Note_off_c, 0, 70, 63
1, 65332, Control_c, 0, 64, 62
1, 65347, Control_c, 0, 64, 57
1, 65352, Note_off_c, 0, 67, 65
1, 65364, Note_on_c, 0, 69, 68
1, 65370, Note_on_c, 0, 61, 61
1, 65377, Control_c, 0, 64, 60
1, 65392, Control_c, 0, 64, 62
1, 65406, Control_c, 0, 64, 63
1, 65410, Note_off_c, 0, 61, 63
1, 65411, Note_off_c, 0, 69, 63
1, 65436, Control_c, 0, 64, 62
1, 65437, Note_on_c, 0, 67, 61
1, 65451, Control_c, 0, 64, 62
1, 65453, Note_on_c, 0, 63, 47
1, 65458, Note_off_c, 0, 67, 63
1, 65465, Control_c, 0, 64, 62
1, 65480, Control_c, 0, 64, 64
1, 65483, Note_off_c, 0, 63, 60
1, 65487, Note_on_c, 0, 64, 53
1, 65492, Note_on_c, 0, 66, 48
1, 65495, Control_c, 0, 64, 65
1, 65510, Control_c, 0, 64, 67
1, 65512, Note_off_c, 0, 64, 60
1, 65519, Note_off_c, 0, 66, 59
1, 65524, Note_on_c, 0, 70, 56
1, 65525, Control_c, 0, 64, 66
1, 65538, Note_on_c, 0, 67, 58
1, 65540, Control_c, 0, 64, 62
1, 65555, Control_c, 0, 64, 56
1, 65563, Note_off_c, 0, 70, 62
1, 65569, Control_c, 0, 64, 57
1, 65573, Note_off_c, 0, 67, 63
1, 65584, Control_c, 0, 64, 62
1, 65596, Note_on_c, 0, 61, 61
1, 65598, Control_c, 0, 64, 66
1, 65599, Note_on_c, 0, 69, 69
1, 65613, Control_c, 0, 64, 69
1, 65628, Control_c, 0, 64, 68
1, 65639, Note_off_c, 0, 61, 63
1, 65644, Control_c, 0, 64, 62
1, 65648, Note_off_c, 0, 69, 63
1, 65658, Note_on_c, 0, 67, 67
1, 65659, Control_c, 0, 64, 50
1, 65673, Control_c, 0, 64, 52
1, 65677, Note_on_c, 0, 63, 47
1, 65685, Note_off_c, 0, 67, 66
1, 65688, Control_c, 0, 64, 59
1, 65703, Control_c, 0, 64, 65
1, 65704, Note_off_c, 0, 63, 59
1, 65718, Control_c, 0, 64, 72
1, 65719, Note_on_c, 0, 66, 45
1, 65725, Note_on_c, 0, 64, 53
1, 65733, Control_c, 0, 64, 73
1, 65743, Note_off_c, 0, 66, 59
1, 65747, Control_c, 0, 64, 68
1, 65749, Note_off_c, 0, 64, 59
1, 65750, Note_on_c, 0, 70, 55
1, 65762, Control_c, 0, 64, 60
1, 65768, Note_on_c, 0, 67, 55
1, 65777, Control_c, 0, 64, 56
1, 65792, Control_c, 0, 64, 64
1, 65805, Note_off_c, 0, 67, 62
1, 65805, Note_off_c, 0, 70, 59
1, 65807, Control_c, 0, 64, 73
1, 65811, Note_on_c, 0, 61, 64
1, 65821, Control_c, 0, 64, 89
1, 65826, Note_on_c, 0, 69, 79
1, 65836, Control_c, 0, 64, 96
1, 65851, Note_off_c, 0, 61, 62
1, 65865, Control_c, 0, 64, 91
1, 65878, Note_on_c, 0, 63, 48
1, 65880, Control_c, 0, 64, 84
1, 65884, Note_off_c, 0, 69, 64
1, 65895, Control_c, 0, 64, 79
1, 65897, Note_on_c, 0, 67, 65
1, 65925, Control_c, 0, 64, 82
1, 65927, Note_off_c, 0, 67, 65
1, 65928, Note_on_c, 0, 66, 49
1, 65930, Note_off_c, 0, 63, 61
1, 65940, Control_c, 0, 64, 89
1, 65945, Note_on_c, 0, 64, 65
1, 65954, Control_c, 0, 64, 102
1, 65959, Note_off_c, 0, 66, 65
1, 65960, Note_on_c, 0, 70, 64
1, 65966, Note_off_c, 0, 64, 66
1, 65969, Control_c, 0, 64, 127
1, 65985, Note_on_c, 0, 67, 65
1, 65990, Note_off_c, 0, 70, 66
1, 65999, Control_c, 0, 64, 100
1, 66004, Note_off_c, 0, 67, 65
1, 66014, Control_c, 0, 64, 72
1, 66029, Control_c, 0, 64, 23
1, 66042, Note_on_c, 0, 65, 71
1, 66044, Control_c, 0, 64, 0
1, 66059, Control_c, 0, 64, 49
1, 66069, Note_on_c, 0, 74, 79
1, 66074, Note_off_c, 0, 65, 52
1, 66080, Control_c, 0, 64, 63
1, 66095, Control_c, 0, 64, 65
1, 66105, Note_off_c, 0, 74, 57
1, 66110, Control_c, 0, 64, 62
1, 66124, Note_on_c, 0, 73, 60
1, 66125, Control_c, 0, 64, 51
1, 66130, Note_on_c, 0, 71, 64
1, 66140, Control_c, 0, 64, 34
1, 66149, Note_off_c, 0, 71, 65
1, 66154, Note_off_c, 0, 73, 64
1, 66154, Control_c, 0, 64, 39
1, 66169, Control_c, 0, 64, 49
1, 66174, Note_on_c, 0, 68, 69
1, 66184, Control_c, 0, 64, 55
1, 66189, Note_on_c, 0, 72, 64
1, 66199, Control_c, 0, 64, 58
1, 66208, Note_off_c, 0, 72, 66
1, 66214, Control_c, 0, 64, 59
1, 66224, Note_off_c, 0, 68, 52
1, 66240, Note_on_c, 0, 71, 62
1, 66243, Control_c, 0, 64, 60
1, 66245, Note_on_c, 0, 73, 58
1, 66258, Control_c, 0, 64, 61
1, 66270, Note_off_c, 0, 71, 66
1, 66273, Control_c, 0, 64, 61
1, 66279, Note_off_c, 0, 73, 62
1, 66299, Note_on_c, 0, 74, 71
1, 66303, Note_on_c, 0, 65, 63
1, 66318, Control_c, 0, 64, 62
1, 66326, Note_off_c, 0, 74, 67
1, 66327, Note_off_c, 0, 65, 62
1, 66333, Control_c, 0, 64, 64
1, 66348, Control_c, 0, 64, 65
1, 66358, Note_on_c, 0, 71, 67
1, 66360, Note_on_c, 0, 73, 64
1, 66363, Control_c, 0, 64, 66
1, 66387, Note_off_c, 0, 71, 66
1, 66395, Note_off_c, 0, 73, 59
1, 66423, Note_on_c, 0, 72, 74
1, 66425, Note_on_c, 0, 68, 66
1, 66437, Control_c, 0, 64, 66
1, 66450, Note_off_c, 0, 72, 67
1, 66464, Note_off_c, 0, 68, 58
1, 66478, Note_on_c, 0, 71, 69
1, 66484, Note_on_c, 0, 73, 70
1, 66509, Note_off_c, 0, 71, 64
1, 66512, Control_c, 0, 64, 67
1, 66518, Note_off_c, 0, 73, 55
1, 66538, Note_on_c, 0, 65, 77
1, 66542, Control_c, 0, 64, 66
1, 66543, Note_on_c, 0, 74, 79
1, 66568, Note_off_c, 0, 65, 57
1, 66589, Note_off_c, 0, 74, 64
1, 66601, Note_on_c, 0, 71, 75
1, 66602, Note_on_c, 0, 73, 75
1, 66616, Control_c, 0, 64, 67
1, 66626, Note_off_c, 0, 71, 68
1, 66637, Note_off_c, 0, 73, 58
1, 66645, Control_c, 0, 64, 66
1, 66657, Note_on_c, 0, 68, 78
1, 66663, Note_on_c, 0, 72, 78
1, 66700, Note_off_c, 0, 72, 58
1, 66706, Note_on_c, 0, 71, 69
1, 66717, Note_off_c, 0, 68, 63
1, 66719, Control_c, 0, 64, 66
1, 66728, Note_on_c, 0, 73, 73
1, 66749, Control_c, 0, 64, 65
1, 66753, Note_off_c, 0, 71, 65
1, 66765, Note_off_c, 0, 73, 52
1, 66773, Note_on_c, 0, 74, 75
1, 66782, Note_on_c, 0, 65, 82
1, 66793, Control_c, 0, 64, 66
1, 66808, Control_c, 0, 64, 66
1, 66831, Control_c, 0, 64, 67
1, 66834, Note_off_c, 0, 74, 65
1, 66835, Note_on_c, 0, 72, 82
1, 66845, Control_c, 0, 64, 68
1, 66855, Note_off_c, 0, 65, 60
1, 66860, Control_c, 0, 64, 69
1, 66861, Note_on_c, 0, 71, 81
1, 66862, Note_on_c, 0, 73, 86
1, 66863, Note_off_c, 0, 72, 65
1, 66875, Control_c, 0, 64, 68
1, 66890, Note_on_c, 0, 68, 71
1, 66890, Control_c, 0, 64, 68
1, 66899, Note_off_c, 0, 71, 66
1, 66904, Note_off_c, 0, 73, 64
1, 66904, Control_c, 0, 64, 67
1, 66919, Control_c, 0, 64, 66
1, 66934, Control_c, 0, 64, 65
1, 66944, Note_off_c, 0, 68, 65
1, 66949, Control_c, 0, 64, 65
1, 66964, Control_c, 0, 64, 59
1, 66978, Control_c, 0, 64, 0
1, 67030, Note_on_c, 0, 80, 95
1, 67052, Control_c, 0, 64, 35
1, 67067, Control_c, 0, 64, 127
1, 67109, Note_on_c, 0, 78, 86
1, 67135, Note_off_c, 0, 80, 62
1, 67146, Note_on_c, 0, 77, 69
1, 67164, Note_on_c, 0, 75, 74
1, 67174, Note_off_c, 0, 77, 68
1, 67179, Note_off_c, 0, 78, 62
1, 67205, Note_off_c, 0, 75, 63
1, 67207, Note_on_c, 0, 73, 80
1, 67227, Note_off_c, 0, 73, 70
1, 67236, Note_on_c, 0, 68, 77
1, 67283, Note_on_c, 0, 66, 76
1, 67287, Note_off_c, 0, 68, 63
1, 67329, Note_on_c, 0, 63, 72
1, 67335, Note_off_c, 0, 66, 64
1, 67353, Note_on_c, 0, 61, 74
1, 67376, Note_off_c, 0, 63, 61
1, 67385, Note_off_c, 0, 61, 66
1, 67434, Note_on_c, 0, 56, 63
1, 67488, Note_off_c, 0, 56, 46
1, 67500, Note_on_c, 0, 54, 70
1, 67555, Note_on_c, 0, 51, 69
1, 67581, Note_off_c, 0, 54, 63
1, 67597, Note_off_c, 0, 51, 64
1, 67605, Note_on_c, 0, 49, 69
1, 67631, Note_off_c, 0, 49, 66
1, 67634, Note_on_c, 0, 44, 68
1, 67678, Note_off_c, 0, 44, 60
1, 67696, Note_on_c, 0, 42, 72
1, 67741, Note_off_c, 0, 42, 61
1, 67749, Note_on_c, 0, 39, 70
1, 67786, Note_on_c, 0, 37, 76
1, 67791, Note_off_c, 0, 39, 62
1, 67826, Note_off_c, 0, 37, 63
1, 67881, Note_on_c, 0, 30, 92
1, 67907, Note_off_c, 0, 30, 67
1, 67979, Control_c, 0, 64, 107
1, 67993, Control_c, 0, 64, 75
1, 68008, Control_c, 0, 64, 0
1, 68630, Note_on_c, 0, 90, 57
1, 68658, Note_on_c, 0, 30, 30
1, 68670, Note_off_c, 0, 90, 65
1, 68703, Note_off_c, 0, 30, 55
1, 68778, End_track
0, 0, End_of_file
