0, 0, Header, 0, 1, 384
1, 0, Start_track
1, 0, Title_t, "Tango?--Sekino                  "
1, 0, Text_t, "2009 International Piano-e-Competition finals"
1, 0, Text_t, "captured June-July 2009"
1, 0, Text_t, "http://www.piano-e-competition.com/"
1, 0, Text_t, "standard-resolution version"
1, 0, Text_t, "File processed for distribution by software from Zenph Studios, Inc., http://www.zenph.com"
1, 0, Instrument_name_t, "Yamaha Disklavier Pro Mark IV concert grand piano, model DCFIIISM4PRO"
1, 0, Sequencer_specific, 39, 67, 113, 0, 1, 0, 1, 0, 84, 97, 110, 103, 111, 63, 32, 32, 32, 32, 32, 32, 32, 32, 32, 32, 89, 117, 107, 105, 107, 111, 32, 83, 101, 107, 105, 110, 111, 32, 32, 32
1, 0, Sequencer_specific, 6, 67, 113, 0, 0, 0, 69
1, 0, System_exclusive, 21, 67, 113, 126, 21, 0, 2, 2, 2, 3, 12, 8, 4, 10, 4, 11, 9, 3, 14, 10, 4, 247
1, 0, Sequencer_specific, 5, 67, 123, 12, 2, 1
1, 0, Tempo, 512820
1, 0, Time_signature, 4, 2, 24, 8
1, 0, System_exclusive, 5, 126, 127, 9, 1, 247
1, 1, System_exclusive, 8, 67, 16, 76, 0, 0, 126, 0, 247
1, 2, System_exclusive, 8, 67, 16, 76, 8, 9, 7, 1, 247
1, 3, Control_c, 0, 0, 0
1, 3, Control_c, 1, 0, 0
1, 3, Control_c, 2, 0, 0
1, 3, Control_c, 3, 0, 0
1, 3, Control_c, 4, 0, 0
1, 3, Control_c, 5, 0, 0
1, 3, Control_c, 6, 0, 0
1, 3, Control_c, 7, 0, 0
1, 3, Control_c, 8, 0, 0
1, 3, Control_c, 9, 0, 127
1, 3, Control_c, 10, 0, 0
1, 3, Control_c, 11, 0, 0
1, 3, Control_c, 12, 0, 0
1, 3, Control_c, 13, 0, 0
1, 3, Control_c, 14, 0, 0
1, 3, Control_c, 15, 0, 0
1, 4, Control_c, 0, 32, 0
1, 4, Control_c, 1, 32, 0
1, 4, Control_c, 2, 32, 0
1, 4, Control_c, 3, 32, 0
1, 4, Control_c, 4, 32, 0
1, 4, Control_c, 5, 32, 0
1, 4, Control_c, 6, 32, 0
1, 4, Control_c, 7, 32, 0
1, 4, Control_c, 8, 32, 0
1, 4, Control_c, 9, 32, 0
1, 4, Control_c, 10, 32, 0
1, 4, Control_c, 11, 32, 0
1, 4, Control_c, 12, 32, 0
1, 4, Control_c, 13, 32, 0
1, 4, Control_c, 14, 32, 0
1, 4, Control_c, 15, 32, 0
1, 5, Program_c, 0, 0
1, 5, Program_c, 1, 0
1, 5, Program_c, 2, 0
1, 5, Program_c, 3, 0
1, 5, Program_c, 4, 0
1, 5, Program_c, 5, 0
1, 5, Program_c, 6, 0
1, 5, Program_c, 7, 0
1, 5, Program_c, 8, 0
1, 5, Program_c, 9, 0
1, 5, Program_c, 10, 0
1, 5, Program_c, 11, 0
1, 5, Program_c, 12, 0
1, 5, Program_c, 13, 0
1, 5, Program_c, 14, 0
1, 5, Program_c, 15, 0
1, 6, Control_c, 0, 7, 100
1, 6, Control_c, 1, 7, 100
1, 6, Control_c, 2, 7, 100
1, 6, Control_c, 3, 7, 100
1, 6, Control_c, 4, 7, 100
1, 6, Control_c, 5, 7, 100
1, 6, Control_c, 6, 7, 100
1, 6, Control_c, 7, 7, 100
1, 6, Control_c, 8, 7, 100
1, 6, Control_c, 9, 7, 100
1, 6, Control_c, 10, 7, 100
1, 6, Control_c, 11, 7, 100
1, 6, Control_c, 12, 7, 100
1, 6, Control_c, 13, 7, 100
1, 6, Control_c, 14, 7, 100
1, 6, Control_c, 15, 7, 100
1, 1134, Note_on_c, 0, 79, 44
1, 1162, Note_off_c, 0, 79, 57
1, 1438, Note_on_c, 0, 81, 50
1, 1469, Note_off_c, 0, 81, 65
1, 1591, Note_on_c, 0, 62, 39
1, 1711, Note_on_c, 0, 69, 44
1, 1722, Note_off_c, 0, 62, 60
1, 1738, Note_off_c, 0, 69, 57
1, 1967, Note_on_c, 0, 82, 56
1, 1992, Note_off_c, 0, 82, 62
1, 2068, Note_on_c, 0, 64, 48
1, 2096, Note_off_c, 0, 64, 63
1, 2433, Note_on_c, 0, 67, 43
1, 2575, Note_on_c, 0, 79, 45
1, 2610, Note_off_c, 0, 79, 60
1, 2843, Note_on_c, 0, 60, 39
1, 2876, Note_off_c, 0, 67, 37
1, 3070, Note_on_c, 0, 65, 57
1, 3100, Note_off_c, 0, 65, 65
1, 3123, Note_off_c, 0, 60, 59
1, 3187, Note_on_c, 0, 81, 48
1, 3210, Note_off_c, 0, 81, 58
1, 3380, Note_on_c, 0, 64, 57
1, 3484, Note_on_c, 0, 82, 48
1, 3508, Note_off_c, 0, 82, 58
1, 3755, Note_off_c, 0, 64, 59
1, 3760, Note_on_c, 0, 62, 47
1, 3863, Note_off_c, 0, 62, 61
1, 3875, Note_on_c, 0, 60, 58
1, 3905, Note_off_c, 0, 60, 65
1, 3991, Note_on_c, 0, 81, 63
1, 4013, Note_off_c, 0, 81, 66
1, 4157, Note_on_c, 0, 62, 57
1, 4179, Note_off_c, 0, 62, 60
1, 4405, Note_on_c, 0, 55, 52
1, 4698, Note_on_c, 0, 83, 54
1, 4720, Note_off_c, 0, 83, 62
1, 4791, Note_off_c, 0, 55, 35
1, 4816, Note_on_c, 0, 67, 60
1, 4845, Note_off_c, 0, 67, 64
1, 5064, Note_on_c, 0, 84, 59
1, 5091, Note_off_c, 0, 84, 66
1, 5412, Note_on_c, 0, 65, 53
1, 5443, Note_off_c, 0, 65, 65
1, 5498, Note_on_c, 0, 81, 57
1, 5524, Note_off_c, 0, 81, 66
1, 5754, Note_on_c, 0, 83, 48
1, 5777, Note_off_c, 0, 83, 60
1, 5900, Note_on_c, 0, 64, 54
1, 6247, Note_on_c, 0, 57, 43
1, 6274, Note_off_c, 0, 64, 62
1, 6289, Note_off_c, 0, 57, 64
1, 6427, Note_on_c, 0, 84, 57
1, 6455, Note_off_c, 0, 84, 66
1, 6578, Note_on_c, 0, 62, 59
1, 6608, Note_off_c, 0, 62, 64
1, 6905, Note_on_c, 0, 60, 45
1, 6931, Note_off_c, 0, 60, 60
1, 7060, Note_on_c, 0, 74, 56
1, 7081, Note_off_c, 0, 74, 64
1, 7170, Note_on_c, 0, 65, 60
1, 7351, Note_on_c, 0, 76, 42
1, 7380, Note_off_c, 0, 76, 53
1, 7456, Note_off_c, 0, 65, 56
1, 7464, Note_on_c, 0, 64, 52
1, 7493, Note_off_c, 0, 64, 62
1, 7683, Note_on_c, 0, 77, 46
1, 7709, Note_off_c, 0, 77, 57
1, 7868, Note_on_c, 0, 62, 48
1, 7914, Note_off_c, 0, 62, 58
1, 7933, Note_on_c, 0, 65, 56
1, 7956, Note_off_c, 0, 65, 61
1, 8249, Note_on_c, 0, 74, 51
1, 8272, Note_off_c, 0, 74, 60
1, 8489, Note_on_c, 0, 70, 59
1, 9229, Note_off_c, 0, 70, 61
1, 9231, Note_on_c, 0, 69, 60
1, 9263, Note_off_c, 0, 69, 63
1, 9643, Note_on_c, 0, 67, 49
1, 9677, Note_off_c, 0, 67, 63
1, 9887, Note_on_c, 0, 76, 48
1, 9913, Note_off_c, 0, 76, 57
1, 10084, Note_on_c, 0, 62, 52
1, 10284, Note_on_c, 0, 77, 48
1, 10311, Note_off_c, 0, 77, 61
1, 10431, Note_on_c, 0, 64, 56
1, 10436, Note_off_c, 0, 62, 51
1, 10666, Note_on_c, 0, 74, 55
1, 10687, Note_off_c, 0, 74, 62
1, 10785, Note_off_c, 0, 64, 59
1, 10792, Note_on_c, 0, 65, 65
1, 10821, Note_off_c, 0, 65, 67
1, 11037, Note_on_c, 0, 67, 61
1, 11133, Note_on_c, 0, 76, 62
1, 11154, Note_off_c, 0, 76, 64
1, 11300, Note_on_c, 0, 69, 69
1, 11304, Note_off_c, 0, 67, 61
1, 11324, Note_off_c, 0, 69, 68
1, 11524, Note_on_c, 0, 74, 65
1, 11641, Note_on_c, 0, 78, 60
1, 11670, Note_off_c, 0, 78, 66
1, 11887, Note_on_c, 0, 72, 61
1, 11896, Note_off_c, 0, 74, 56
1, 12108, Note_off_c, 0, 72, 60
1, 12113, Note_on_c, 0, 71, 69
1, 12138, Note_off_c, 0, 71, 68
1, 12223, Note_on_c, 0, 79, 59
1, 12250, Note_off_c, 0, 79, 58
1, 12337, Note_on_c, 0, 69, 63
1, 12458, Note_on_c, 0, 76, 45
1, 12493, Note_off_c, 0, 76, 51
1, 12683, Note_on_c, 0, 67, 63
1, 12690, Note_off_c, 0, 69, 56
1, 12832, Note_off_c, 0, 67, 56
1, 12832, Note_on_c, 0, 78, 38
1, 12850, Note_on_c, 0, 66, 57
1, 12862, Note_off_c, 0, 78, 53
1, 12882, Note_off_c, 0, 66, 64
1, 13116, Note_on_c, 0, 79, 46
1, 13141, Note_off_c, 0, 79, 57
1, 13199, Note_on_c, 0, 64, 46
1, 13228, Note_off_c, 0, 64, 61
1, 13478, Note_on_c, 0, 76, 49
1, 13509, Note_off_c, 0, 76, 59
1, 13579, Note_on_c, 0, 62, 59
1, 13843, Note_on_c, 0, 78, 48
1, 13881, Note_off_c, 0, 78, 60
1, 13976, Note_on_c, 0, 60, 52
1, 13992, Note_off_c, 0, 62, 42
1, 14211, Note_off_c, 0, 60, 58
1, 14216, Note_on_c, 0, 59, 57
1, 14253, Note_off_c, 0, 59, 62
1, 14403, Note_on_c, 0, 79, 46
1, 14439, Note_off_c, 0, 79, 60
1, 14637, Note_on_c, 0, 74, 55
1, 14669, Note_off_c, 0, 74, 61
1, 14734, Note_on_c, 0, 57, 59
1, 15171, Note_on_c, 0, 55, 47
1, 15174, Note_off_c, 0, 57, 51
1, 15283, Note_on_c, 0, 77, 42
1, 15328, Note_off_c, 0, 77, 53
1, 15483, Note_on_c, 0, 53, 59
1, 15502, Note_off_c, 0, 55, 50
1, 15555, Note_off_c, 0, 53, 64
1, 15598, Note_on_c, 0, 76, 49
1, 15623, Note_off_c, 0, 76, 57
1, 15828, Note_on_c, 0, 52, 60
1, 15862, Note_off_c, 0, 52, 63
1, 15968, Note_on_c, 0, 74, 49
1, 15992, Note_off_c, 0, 74, 59
1, 16139, Note_on_c, 0, 50, 56
1, 17090, Note_on_c, 0, 48, 34
1, 17131, Note_off_c, 0, 50, 36
1, 17291, Note_off_c, 0, 48, 39
1, 17302, Note_on_c, 0, 47, 34
1, 17720, Note_on_c, 0, 79, 44
1, 17900, Note_off_c, 0, 47, 41
1, 18854, Note_on_c, 0, 77, 48
1, 18858, Note_off_c, 0, 79, 37
1, 19157, Note_off_c, 0, 77, 55
1, 19195, Note_on_c, 0, 76, 42
1, 19307, Note_on_c, 0, 60, 49
1, 19333, Note_off_c, 0, 60, 60
1, 19411, Note_on_c, 0, 67, 30
1, 19423, Note_on_c, 0, 64, 12
1, 19449, Note_off_c, 0, 67, 44
1, 19471, Note_off_c, 0, 64, 42
1, 19647, Note_on_c, 0, 72, 46
1, 19717, Note_off_c, 0, 76, 40
1, 19844, Note_on_c, 0, 53, 55
1, 19873, Note_off_c, 0, 53, 63
1, 19898, Note_off_c, 0, 72, 39
1, 20058, Note_on_c, 0, 74, 59
1, 20171, Note_on_c, 0, 43, 55
1, 20205, Note_off_c, 0, 43, 64
1, 20372, Note_on_c, 0, 55, 60
1, 20398, Note_off_c, 0, 55, 63
1, 20554, Note_off_c, 0, 74, 38
1, 20574, Note_on_c, 0, 67, 49
1, 20723, Note_on_c, 0, 50, 55
1, 20759, Note_off_c, 0, 50, 66
1, 20951, Note_on_c, 0, 70, 45
1, 21007, Note_off_c, 0, 67, 33
1, 21036, Note_off_c, 0, 70, 48
1, 21224, Note_on_c, 0, 40, 38
1, 21280, Note_off_c, 0, 40, 55
1, 21362, Note_on_c, 0, 69, 44
1, 21736, Note_on_c, 0, 41, 48
1, 21778, Note_off_c, 0, 41, 63
1, 22202, Note_on_c, 0, 67, 41
1, 22203, Note_on_c, 0, 64, 44
1, 22234, Note_off_c, 0, 64, 60
1, 22234, Note_off_c, 0, 67, 58
1, 22343, Note_on_c, 0, 72, 49
1, 22388, Note_off_c, 0, 69, 32
1, 22642, Note_on_c, 0, 77, 48
1, 22658, Note_off_c, 0, 72, 52
1, 22770, Note_on_c, 0, 46, 44
1, 22804, Note_off_c, 0, 46, 58
1, 22983, Note_on_c, 0, 62, 58
1, 22989, Note_on_c, 0, 65, 52
1, 23012, Note_off_c, 0, 62, 64
1, 23017, Note_off_c, 0, 65, 64
1, 23168, Note_on_c, 0, 81, 62
1, 23201, Note_off_c, 0, 77, 34
1, 23409, Note_off_c, 0, 81, 56
1, 23414, Note_on_c, 0, 76, 56
1, 23504, Note_on_c, 0, 64, 49
1, 23510, Note_on_c, 0, 60, 39
1, 23531, Note_off_c, 0, 64, 58
1, 23539, Note_off_c, 0, 60, 56
1, 23585, Note_off_c, 0, 76, 60
1, 23623, Note_on_c, 0, 53, 55
1, 23659, Note_off_c, 0, 53, 63
1, 23773, Note_on_c, 0, 60, 49
1, 23778, Note_on_c, 0, 57, 49
1, 23799, Note_off_c, 0, 60, 61
1, 23804, Note_off_c, 0, 57, 59
1, 23946, Note_on_c, 0, 74, 65
1, 24056, Note_on_c, 0, 59, 62
1, 24065, Note_on_c, 0, 62, 42
1, 24077, Note_off_c, 0, 59, 62
1, 24097, Note_off_c, 0, 62, 53
1, 24234, Note_on_c, 0, 43, 51
1, 24272, Note_off_c, 0, 43, 64
1, 24434, Note_off_c, 0, 74, 51
1, 24452, Note_on_c, 0, 76, 67
1, 24696, Note_on_c, 0, 77, 54
1, 24738, Note_on_c, 0, 53, 56
1, 24741, Note_off_c, 0, 76, 55
1, 24778, Note_off_c, 0, 77, 62
1, 24781, Note_off_c, 0, 53, 65
1, 24861, Note_on_c, 0, 57, 59
1, 24861, Note_on_c, 0, 60, 60
1, 24893, Note_off_c, 0, 60, 66
1, 24895, Note_off_c, 0, 57, 64
1, 25036, Note_on_c, 0, 74, 64
1, 25115, Note_on_c, 0, 62, 61
1, 25117, Note_on_c, 0, 65, 55
1, 25136, Note_off_c, 0, 62, 63
1, 25141, Note_off_c, 0, 65, 60
1, 25304, Note_on_c, 0, 43, 61
1, 25349, Note_off_c, 0, 43, 64
1, 25427, Note_off_c, 0, 74, 57
1, 25495, Note_on_c, 0, 76, 66
1, 25609, Note_on_c, 0, 48, 62
1, 25638, Note_off_c, 0, 48, 65
1, 25779, Note_on_c, 0, 67, 61
1, 25791, Note_on_c, 0, 64, 42
1, 25807, Note_off_c, 0, 67, 63
1, 25822, Note_off_c, 0, 64, 55
1, 26134, Note_on_c, 0, 65, 46
1, 26143, Note_on_c, 0, 62, 36
1, 26162, Note_off_c, 0, 65, 56
1, 26177, Note_off_c, 0, 62, 48
1, 26312, Note_on_c, 0, 57, 49
1, 26352, Note_off_c, 0, 57, 64
1, 26515, Note_off_c, 0, 76, 57
1, 26539, Note_on_c, 0, 78, 56
1, 26670, Note_on_c, 0, 50, 50
1, 26706, Note_off_c, 0, 50, 64
1, 26840, Note_on_c, 0, 57, 52
1, 26843, Note_on_c, 0, 60, 54
1, 26867, Note_off_c, 0, 57, 58
1, 26867, Note_off_c, 0, 60, 61
1, 27038, Note_on_c, 0, 79, 60
1, 27039, Note_off_c, 0, 78, 58
1, 27161, Note_on_c, 0, 62, 53
1, 27162, Note_on_c, 0, 59, 57
1, 27187, Note_off_c, 0, 62, 58
1, 27193, Note_off_c, 0, 59, 61
1, 27359, Note_on_c, 0, 83, 63
1, 27367, Note_off_c, 0, 79, 45
1, 27448, Note_off_c, 0, 83, 51
1, 27500, Note_on_c, 0, 55, 53
1, 27528, Note_off_c, 0, 55, 64
1, 27778, Note_on_c, 0, 81, 56
1, 27943, Note_on_c, 0, 64, 53
1, 27969, Note_off_c, 0, 64, 60
1, 28139, Note_on_c, 0, 66, 61
1, 28169, Note_off_c, 0, 66, 64
1, 28180, Note_off_c, 0, 81, 54
1, 28265, Note_on_c, 0, 69, 61
1, 28455, Note_on_c, 0, 62, 57
1, 28478, Note_off_c, 0, 62, 61
1, 28604, Note_off_c, 0, 69, 50
1, 28648, Note_on_c, 0, 71, 61
1, 28785, Note_on_c, 0, 55, 55
1, 28817, Note_off_c, 0, 55, 64
1, 28963, Note_off_c, 0, 71, 61
1, 28979, Note_on_c, 0, 74, 60
1, 29028, Note_off_c, 0, 74, 59
1, 29122, Note_on_c, 0, 60, 60
1, 29150, Note_off_c, 0, 60, 66
1, 29317, Note_on_c, 0, 69, 56
1, 29542, Note_on_c, 0, 71, 60
1, 29549, Note_off_c, 0, 69, 37
1, 29657, Note_off_c, 0, 71, 49
1, 29688, Note_on_c, 0, 67, 63
1, 29701, Note_on_c, 0, 64, 53
1, 29716, Note_off_c, 0, 67, 65
1, 29728, Note_off_c, 0, 64, 65
1, 29865, Note_on_c, 0, 74, 62
1, 30111, Note_on_c, 0, 69, 58
1, 30162, Note_on_c, 0, 61, 62
1, 30163, Note_off_c, 0, 74, 50
1, 30196, Note_off_c, 0, 61, 63
1, 30302, Note_on_c, 0, 62, 74
1, 30326, Note_off_c, 0, 69, 29
1, 30329, Note_off_c, 0, 62, 66
1, 30449, Note_on_c, 0, 74, 74
1, 30634, Note_off_c, 0, 74, 54
1, 30671, Note_on_c, 0, 78, 64
1, 30726, Control_c, 0, 64, 11
1, 30740, Note_on_c, 0, 66, 48
1, 30763, Control_c, 0, 64, 14
1, 30771, Note_off_c, 0, 66, 59
1, 30807, Control_c, 0, 64, 17
1, 30868, Note_off_c, 0, 78, 50
1, 30894, Note_on_c, 0, 70, 56
1, 30896, Note_on_c, 0, 73, 57
1, 30914, Note_off_c, 0, 70, 63
1, 30917, Note_off_c, 0, 73, 63
1, 31041, Note_on_c, 0, 76, 57
1, 31228, Note_on_c, 0, 74, 53
1, 31232, Note_on_c, 0, 71, 43
1, 31248, Note_off_c, 0, 74, 63
1, 31259, Note_off_c, 0, 71, 58
1, 31361, Note_on_c, 0, 81, 49
1, 31386, Note_off_c, 0, 76, 54
1, 31412, Note_off_c, 0, 81, 55
1, 31481, Note_on_c, 0, 67, 51
1, 31517, Note_off_c, 0, 67, 62
1, 31633, Note_on_c, 0, 79, 56
1, 31764, Note_on_c, 0, 76, 53
1, 31765, Note_on_c, 0, 73, 43
1, 31787, Note_off_c, 0, 76, 59
1, 31794, Note_off_c, 0, 73, 56
1, 31808, Control_c, 0, 64, 19
1, 31926, Control_c, 0, 64, 17
1, 31987, Note_on_c, 0, 65, 50
1, 32028, Note_off_c, 0, 65, 61
1, 32119, Control_c, 0, 64, 14
1, 32155, Note_on_c, 0, 64, 47
1, 32190, Note_off_c, 0, 64, 62
1, 32394, Control_c, 0, 64, 11
1, 32437, Note_on_c, 0, 69, 58
1, 32447, Note_on_c, 0, 72, 42
1, 32466, Note_off_c, 0, 69, 65
1, 32471, Note_off_c, 0, 72, 59
1, 32602, Control_c, 0, 64, 0
1, 32699, Note_on_c, 0, 62, 44
1, 32754, Note_off_c, 0, 62, 54
1, 32769, Note_off_c, 0, 79, 47
1, 32873, Note_on_c, 0, 83, 59
1, 33025, Note_on_c, 0, 63, 57
1, 33061, Note_off_c, 0, 63, 64
1, 33203, Note_on_c, 0, 64, 46
1, 33230, Note_off_c, 0, 64, 59
1, 33331, Note_off_c, 0, 83, 50
1, 33340, Note_on_c, 0, 81, 60
1, 33547, Note_on_c, 0, 79, 57
1, 33547, Note_off_c, 0, 81, 57
1, 33623, Note_on_c, 0, 74, 50
1, 33631, Note_on_c, 0, 71, 45
1, 33648, Note_off_c, 0, 74, 59
1, 33657, Note_off_c, 0, 71, 58
1, 33990, Note_on_c, 0, 82, 50
1, 33994, Note_off_c, 0, 79, 39
1, 34059, Note_off_c, 0, 82, 60
1, 34100, Note_on_c, 0, 73, 60
1, 34120, Note_off_c, 0, 73, 63
1, 34435, Note_on_c, 0, 70, 51
1, 34455, Control_c, 0, 64, 11
1, 34456, Note_off_c, 0, 70, 60
1, 34591, Note_on_c, 0, 77, 53
1, 34787, Note_on_c, 0, 69, 50
1, 34811, Note_off_c, 0, 69, 58
1, 34977, Note_on_c, 0, 67, 47
1, 35003, Note_off_c, 0, 67, 57
1, 35020, Note_off_c, 0, 77, 52
1, 35119, Note_on_c, 0, 74, 61
1, 35250, Note_on_c, 0, 65, 51
1, 35290, Note_off_c, 0, 65, 63
1, 35420, Note_off_c, 0, 74, 58
1, 35422, Note_on_c, 0, 70, 57
1, 35528, Note_off_c, 0, 70, 44
1, 35533, Note_on_c, 0, 64, 46
1, 35568, Note_off_c, 0, 64, 64
1, 35781, Note_on_c, 0, 72, 52
1, 35916, Note_on_c, 0, 60, 52
1, 35940, Note_off_c, 0, 60, 61
1, 36233, Note_on_c, 0, 53, 48
1, 36273, Note_off_c, 0, 53, 64
1, 36523, Note_on_c, 0, 55, 51
1, 36554, Note_off_c, 0, 55, 63
1, 36695, Note_on_c, 0, 62, 55
1, 36704, Note_on_c, 0, 65, 40
1, 36720, Note_off_c, 0, 62, 59
1, 36733, Note_off_c, 0, 65, 55
1, 36799, Control_c, 0, 64, 14
1, 36829, Note_off_c, 0, 72, 55
1, 36853, Note_on_c, 0, 71, 48
1, 36917, Control_c, 0, 64, 17
1, 36991, Control_c, 0, 64, 19
1, 37124, Control_c, 0, 64, 21
1, 37137, Note_on_c, 0, 74, 49
1, 37178, Note_off_c, 0, 71, 37
1, 37243, Control_c, 0, 64, 23
1, 37253, Note_on_c, 0, 59, 55
1, 37283, Note_off_c, 0, 59, 64
1, 37609, Note_on_c, 0, 79, 36
1, 37663, Note_off_c, 0, 74, 39
1, 37859, Note_off_c, 0, 79, 42
1, 37865, Note_on_c, 0, 76, 46
1, 37967, Note_on_c, 0, 52, 58
1, 37968, Note_on_c, 0, 55, 50
1, 37995, Note_off_c, 0, 55, 62
1, 37997, Note_off_c, 0, 52, 63
1, 38180, Note_off_c, 0, 76, 34
1, 38295, Note_on_c, 0, 36, 55
1, 38328, Note_off_c, 0, 36, 61
1, 38470, Note_on_c, 0, 81, 64
1, 38547, Control_c, 0, 64, 24
1, 38606, Control_c, 0, 64, 26
1, 38635, Control_c, 0, 64, 27
1, 38650, Control_c, 0, 64, 28
1, 38680, Control_c, 0, 64, 29
1, 38752, Note_on_c, 0, 41, 56
1, 38783, Note_off_c, 0, 41, 64
1, 38784, Control_c, 0, 64, 30
1, 38950, Note_off_c, 0, 81, 41
1, 39030, Note_on_c, 0, 73, 63
1, 39357, Note_off_c, 0, 73, 52
1, 39360, Note_on_c, 0, 74, 55
1, 39460, Note_on_c, 0, 40, 48
1, 39503, Note_off_c, 0, 40, 61
1, 39511, Note_off_c, 0, 74, 57
1, 39637, Note_on_c, 0, 45, 52
1, 39664, Note_off_c, 0, 45, 58
1, 39796, Note_on_c, 0, 71, 66
1, 39971, Note_on_c, 0, 50, 62
1, 40000, Note_off_c, 0, 50, 67
1, 40306, Note_on_c, 0, 48, 70
1, 40331, Note_off_c, 0, 48, 66
1, 40361, Note_off_c, 0, 71, 54
1, 40415, Note_on_c, 0, 64, 71
1, 40454, Note_off_c, 0, 64, 62
1, 40568, Note_on_c, 0, 76, 75
1, 40689, Control_c, 0, 64, 31
1, 40752, Note_on_c, 0, 69, 68
1, 40755, Note_off_c, 0, 76, 36
1, 40776, Note_off_c, 0, 69, 69
1, 40808, Control_c, 0, 64, 32
1, 40941, Control_c, 0, 64, 33
1, 40967, Note_on_c, 0, 54, 73
1, 40986, Control_c, 0, 64, 34
1, 40990, Note_off_c, 0, 54, 68
1, 41015, Control_c, 0, 64, 35
1, 41045, Control_c, 0, 64, 36
1, 41060, Control_c, 0, 64, 36
1, 41096, Note_on_c, 0, 81, 81
1, 41104, Control_c, 0, 64, 37
1, 41134, Note_off_c, 0, 81, 63
1, 41208, Control_c, 0, 64, 38
1, 41244, Note_on_c, 0, 47, 56
1, 41273, Note_off_c, 0, 47, 66
1, 41289, Control_c, 0, 64, 38
1, 41419, Note_on_c, 0, 74, 70
1, 41541, Control_c, 0, 64, 42
1, 41554, Note_off_c, 0, 74, 57
1, 41556, Control_c, 0, 64, 58
1, 41571, Control_c, 0, 64, 67
1, 41586, Control_c, 0, 64, 75
1, 41592, Note_on_c, 0, 52, 47
1, 41601, Control_c, 0, 64, 83
1, 41616, Control_c, 0, 64, 88
1, 41631, Control_c, 0, 64, 89
1, 41634, Note_off_c, 0, 52, 62
1, 41706, Control_c, 0, 64, 88
1, 41720, Control_c, 0, 64, 87
1, 41735, Control_c, 0, 64, 86
1, 41750, Control_c, 0, 64, 85
1, 41752, Note_on_c, 0, 72, 90
1, 41764, Note_on_c, 0, 67, 75
1, 41764, Control_c, 0, 64, 84
1, 41779, Control_c, 0, 64, 83
1, 41794, Control_c, 0, 64, 81
1, 41802, Note_off_c, 0, 67, 51
1, 41809, Control_c, 0, 64, 79
1, 41824, Control_c, 0, 64, 75
1, 41838, Control_c, 0, 64, 70
1, 41853, Control_c, 0, 64, 65
1, 41868, Control_c, 0, 64, 55
1, 41883, Control_c, 0, 64, 27
1, 41884, Note_on_c, 0, 62, 64
1, 41886, Note_on_c, 0, 59, 69
1, 41898, Control_c, 0, 64, 0
1, 41910, Note_off_c, 0, 59, 67
1, 41911, Note_off_c, 0, 62, 65
1, 41937, Poly_aftertouch_c, 0, 67, 127
1, 41972, Poly_aftertouch_c, 0, 67, 0
1, 42031, Note_on_c, 0, 71, 86
1, 42048, Note_on_c, 0, 65, 68
1, 42059, Note_off_c, 0, 72, 60
1, 42069, Control_c, 0, 64, 11
1, 42084, Control_c, 0, 64, 17
1, 42098, Note_off_c, 0, 65, 49
1, 42099, Control_c, 0, 64, 21
1, 42172, Control_c, 0, 64, 23
1, 42235, Note_on_c, 0, 43, 64
1, 42246, Control_c, 0, 64, 24
1, 42268, Note_off_c, 0, 43, 65
1, 42395, Control_c, 0, 64, 23
1, 42414, Note_off_c, 0, 71, 62
1, 42436, Note_on_c, 0, 67, 77
1, 42457, Note_on_c, 0, 64, 61
1, 42469, Control_c, 0, 64, 24
1, 42514, Control_c, 0, 64, 26
1, 42549, Note_off_c, 0, 67, 61
1, 42552, Note_off_c, 0, 64, 0
1, 42552, Note_on_c, 0, 64, 5
1, 42556, Note_on_c, 0, 57, 72
1, 42558, Note_on_c, 0, 60, 66
1, 42579, Note_off_c, 0, 60, 66
1, 42580, Note_off_c, 0, 57, 66
1, 42585, Note_off_c, 0, 64, 61
1, 42743, Control_c, 0, 64, 0
1, 42796, Note_on_c, 0, 38, 64
1, 42826, Note_off_c, 0, 38, 64
1, 42852, Note_on_c, 0, 69, 88
1, 42862, Control_c, 0, 64, 62
1, 42862, Note_on_c, 0, 66, 82
1, 42877, Control_c, 0, 64, 73
1, 42892, Control_c, 0, 64, 82
1, 42904, Note_off_c, 0, 66, 55
1, 42907, Control_c, 0, 64, 84
1, 42913, Note_off_c, 0, 69, 64
1, 42981, Control_c, 0, 64, 84
1, 42995, Control_c, 0, 64, 83
1, 43010, Control_c, 0, 64, 83
1, 43040, Control_c, 0, 64, 82
1, 43066, Note_on_c, 0, 55, 75
1, 43069, Control_c, 0, 64, 82
1, 43084, Control_c, 0, 64, 81
1, 43091, Note_off_c, 0, 55, 66
1, 43099, Control_c, 0, 64, 80
1, 43113, Control_c, 0, 64, 79
1, 43128, Control_c, 0, 64, 77
1, 43143, Control_c, 0, 64, 74
1, 43145, Note_on_c, 0, 62, 84
1, 43159, Control_c, 0, 64, 69
1, 43166, Note_on_c, 0, 59, 59
1, 43174, Control_c, 0, 64, 63
1, 43187, Note_off_c, 0, 59, 62
1, 43189, Control_c, 0, 64, 50
1, 43203, Control_c, 0, 64, 27
1, 43218, Control_c, 0, 64, 21
1, 43247, Note_off_c, 0, 62, 62
1, 43263, Control_c, 0, 64, 26
1, 43271, Note_on_c, 0, 65, 75
1, 43277, Note_on_c, 0, 57, 60
1, 43277, Control_c, 0, 64, 27
1, 43292, Control_c, 0, 64, 28
1, 43296, Note_off_c, 0, 65, 66
1, 43299, Note_off_c, 0, 57, 61
1, 43307, Control_c, 0, 64, 29
1, 43322, Control_c, 0, 64, 30
1, 43336, Control_c, 0, 64, 31
1, 43348, Note_on_c, 0, 36, 72
1, 43351, Control_c, 0, 64, 32
1, 43366, Control_c, 0, 64, 33
1, 43376, Note_off_c, 0, 36, 63
1, 43381, Control_c, 0, 64, 34
1, 43396, Control_c, 0, 64, 35
1, 43534, Note_on_c, 0, 64, 78
1, 43554, Note_on_c, 0, 60, 62
1, 43566, Control_c, 0, 64, 36
1, 43581, Control_c, 0, 64, 36
1, 43596, Control_c, 0, 64, 37
1, 43610, Control_c, 0, 64, 38
1, 43625, Control_c, 0, 64, 40
1, 43634, Note_on_c, 0, 53, 76
1, 43635, Note_on_c, 0, 57, 61
1, 43657, Note_off_c, 0, 53, 69
1, 43659, Note_off_c, 0, 57, 63
1, 43685, Control_c, 0, 64, 39
1, 43700, Control_c, 0, 64, 38
1, 43730, Control_c, 0, 64, 38
1, 43833, Control_c, 0, 64, 33
1, 43848, Control_c, 0, 64, 0
1, 43899, Note_on_c, 0, 31, 68
1, 43926, Note_off_c, 0, 31, 63
1, 43940, Note_off_c, 0, 60, 57
1, 43951, Note_off_c, 0, 64, 64
1, 43967, Control_c, 0, 64, 68
1, 43982, Control_c, 0, 64, 76
1, 43997, Control_c, 0, 64, 80
1, 44026, Control_c, 0, 64, 80
1, 44041, Control_c, 0, 64, 79
1, 44056, Control_c, 0, 64, 79
1, 44071, Control_c, 0, 64, 78
1, 44086, Control_c, 0, 64, 77
1, 44100, Control_c, 0, 64, 76
1, 44115, Control_c, 0, 64, 75
1, 44130, Control_c, 0, 64, 71
1, 44135, Note_on_c, 0, 57, 71
1, 44139, Note_on_c, 0, 60, 62
1, 44139, Note_on_c, 0, 67, 91
1, 44145, Control_c, 0, 64, 66
1, 44147, Note_on_c, 0, 65, 73
1, 44159, Note_off_c, 0, 57, 66
1, 44159, Note_off_c, 0, 60, 67
1, 44159, Control_c, 0, 64, 62
1, 44174, Control_c, 0, 64, 57
1, 44189, Control_c, 0, 64, 55
1, 44204, Note_off_c, 0, 65, 48
1, 44219, Control_c, 0, 64, 55
1, 44241, Control_c, 0, 64, 56
1, 44275, Note_off_c, 0, 67, 64
1, 44283, Note_on_c, 0, 72, 83
1, 44293, Note_on_c, 0, 64, 76
1, 44315, Note_off_c, 0, 64, 70
1, 44331, Note_off_c, 0, 72, 64
1, 44373, Control_c, 0, 64, 57
1, 44377, Note_on_c, 0, 45, 74
1, 44413, Note_off_c, 0, 45, 66
1, 44552, Control_c, 0, 64, 56
1, 44553, Note_on_c, 0, 76, 72
1, 44555, Note_on_c, 0, 66, 72
1, 44558, Note_on_c, 0, 77, 60
1, 44579, Note_off_c, 0, 77, 64
1, 44670, Control_c, 0, 64, 55
1, 44684, Control_c, 0, 64, 44
1, 44699, Control_c, 0, 64, 0
1, 44713, Note_off_c, 0, 66, 50
1, 44736, Note_on_c, 0, 62, 62
1, 44737, Note_on_c, 0, 59, 66
1, 44756, Note_on_c, 0, 71, 82
1, 44764, Note_off_c, 0, 76, 62
1, 44767, Note_off_c, 0, 62, 64
1, 44768, Note_on_c, 0, 68, 66
1, 44770, Note_off_c, 0, 59, 63
1, 44804, Control_c, 0, 64, 57
1, 44819, Control_c, 0, 64, 69
1, 44834, Control_c, 0, 64, 75
1, 44845, Note_off_c, 0, 68, 61
1, 44846, Note_off_c, 0, 71, 63
1, 44848, Control_c, 0, 64, 76
1, 44863, Control_c, 0, 64, 75
1, 44878, Control_c, 0, 64, 74
1, 44893, Control_c, 0, 64, 72
1, 44908, Control_c, 0, 64, 71
1, 44967, Control_c, 0, 64, 71
1, 44989, Control_c, 0, 64, 70
1, 45004, Control_c, 0, 64, 67
1, 45020, Control_c, 0, 64, 64
1, 45035, Control_c, 0, 64, 61
1, 45050, Control_c, 0, 64, 56
1, 45064, Control_c, 0, 64, 52
1, 45079, Control_c, 0, 64, 50
1, 45090, Note_on_c, 0, 41, 71
1, 45127, Note_off_c, 0, 41, 64
1, 45197, Control_c, 0, 64, 49
1, 45212, Note_on_c, 0, 69, 86
1, 45212, Control_c, 0, 64, 44
1, 45217, Note_on_c, 0, 65, 81
1, 45227, Control_c, 0, 64, 27
1, 45242, Control_c, 0, 64, 0
1, 45418, Note_on_c, 0, 60, 71
1, 45422, Note_on_c, 0, 57, 65
1, 45443, Note_off_c, 0, 60, 67
1, 45447, Note_off_c, 0, 57, 65
1, 45464, Control_c, 0, 64, 72
1, 45464, Note_off_c, 0, 65, 61
1, 45471, Note_off_c, 0, 69, 62
1, 45479, Control_c, 0, 64, 82
1, 45494, Control_c, 0, 64, 90
1, 45508, Control_c, 0, 64, 91
1, 45523, Control_c, 0, 64, 91
1, 45554, Control_c, 0, 64, 90
1, 45569, Control_c, 0, 64, 90
1, 45584, Control_c, 0, 64, 89
1, 45599, Control_c, 0, 64, 89
1, 45613, Control_c, 0, 64, 88
1, 45628, Control_c, 0, 64, 87
1, 45643, Control_c, 0, 64, 84
1, 45648, Note_on_c, 0, 38, 70
1, 45658, Control_c, 0, 64, 81
1, 45672, Control_c, 0, 64, 76
1, 45685, Note_off_c, 0, 38, 63
1, 45686, Note_on_c, 0, 71, 90
1, 45687, Control_c, 0, 64, 71
1, 45700, Note_on_c, 0, 68, 77
1, 45702, Control_c, 0, 64, 67
1, 45717, Control_c, 0, 64, 63
1, 45739, Control_c, 0, 64, 61
1, 45771, Note_off_c, 0, 68, 54
1, 45812, Note_off_c, 0, 71, 57
1, 45813, Control_c, 0, 64, 61
1, 45827, Note_on_c, 0, 72, 81
1, 45837, Note_on_c, 0, 64, 66
1, 45866, Note_off_c, 0, 64, 69
1, 45868, Note_off_c, 0, 72, 62
1, 45873, Control_c, 0, 64, 61
1, 45917, Control_c, 0, 64, 61
1, 45931, Control_c, 0, 64, 56
1, 45945, Note_on_c, 0, 62, 71
1, 45946, Control_c, 0, 64, 0
1, 45952, Note_on_c, 0, 59, 68
1, 45973, Note_off_c, 0, 62, 66
1, 45979, Note_off_c, 0, 59, 66
1, 46076, Note_on_c, 0, 69, 80
1, 46084, Note_on_c, 0, 67, 71
1, 46199, Note_on_c, 0, 39, 70
1, 46223, Note_off_c, 0, 39, 63
1, 46242, Control_c, 0, 64, 64
1, 46257, Control_c, 0, 64, 68
1, 46272, Control_c, 0, 64, 69
1, 46287, Control_c, 0, 64, 67
1, 46287, Note_off_c, 0, 67, 52
1, 46302, Control_c, 0, 64, 65
1, 46317, Control_c, 0, 64, 64
1, 46331, Control_c, 0, 64, 64
1, 46347, Control_c, 0, 64, 64
1, 46363, Note_on_c, 0, 60, 68
1, 46364, Note_on_c, 0, 63, 70
1, 46364, Note_off_c, 0, 69, 51
1, 46389, Note_off_c, 0, 63, 68
1, 46391, Note_off_c, 0, 60, 68
1, 46391, Control_c, 0, 64, 64
1, 46406, Control_c, 0, 64, 63
1, 46421, Control_c, 0, 64, 62
1, 46436, Control_c, 0, 64, 60
1, 46451, Control_c, 0, 64, 59
1, 46466, Control_c, 0, 64, 59
1, 46488, Control_c, 0, 64, 58
1, 46503, Control_c, 0, 64, 55
1, 46506, Note_on_c, 0, 71, 84
1, 46516, Note_on_c, 0, 68, 79
1, 46517, Control_c, 0, 64, 51
1, 46532, Control_c, 0, 64, 48
1, 46547, Control_c, 0, 64, 47
1, 46561, Control_c, 0, 64, 46
1, 46576, Control_c, 0, 64, 44
1, 46591, Control_c, 0, 64, 43
1, 46606, Control_c, 0, 64, 42
1, 46696, Control_c, 0, 64, 42
1, 46710, Control_c, 0, 64, 41
1, 46725, Note_on_c, 0, 40, 68
1, 46759, Note_off_c, 0, 40, 66
1, 46769, Control_c, 0, 64, 42
1, 46784, Control_c, 0, 64, 43
1, 46799, Control_c, 0, 64, 43
1, 46932, Control_c, 0, 64, 43
1, 46946, Control_c, 0, 64, 42
1, 46976, Control_c, 0, 64, 41
1, 46991, Control_c, 0, 64, 14
1, 47006, Control_c, 0, 64, 0
1, 47175, Note_on_c, 0, 64, 68
1, 47176, Note_on_c, 0, 61, 73
1, 47181, Note_off_c, 0, 68, 59
1, 47200, Note_off_c, 0, 61, 66
1, 47202, Note_off_c, 0, 71, 62
1, 47204, Note_off_c, 0, 64, 67
1, 47237, Control_c, 0, 64, 21
1, 47266, Control_c, 0, 64, 0
1, 47370, Control_c, 0, 64, 11
1, 47379, Note_on_c, 0, 45, 75
1, 47384, Control_c, 0, 64, 17
1, 47413, Note_off_c, 0, 45, 67
1, 47429, Control_c, 0, 64, 11
1, 47444, Control_c, 0, 64, 0
1, 47472, Note_on_c, 0, 73, 88
1, 47486, Note_on_c, 0, 69, 68
1, 47624, Note_on_c, 0, 59, 70
1, 47624, Note_on_c, 0, 62, 64
1, 47643, Note_off_c, 0, 59, 64
1, 47646, Note_off_c, 0, 62, 63
1, 47651, Control_c, 0, 64, 53
1, 47666, Control_c, 0, 64, 64
1, 47681, Control_c, 0, 64, 66
1, 47695, Control_c, 0, 64, 65
1, 47703, Note_off_c, 0, 69, 52
1, 47710, Control_c, 0, 64, 65
1, 47712, Note_off_c, 0, 73, 59
1, 47740, Control_c, 0, 64, 64
1, 47745, Note_on_c, 0, 74, 91
1, 47754, Note_on_c, 0, 71, 77
1, 47814, Control_c, 0, 64, 64
1, 47843, Control_c, 0, 64, 63
1, 47845, Note_on_c, 0, 38, 73
1, 47880, Note_off_c, 0, 38, 63
1, 47888, Control_c, 0, 64, 62
1, 47901, Note_off_c, 0, 71, 22
1, 47903, Control_c, 0, 64, 62
1, 47918, Control_c, 0, 64, 61
1, 47933, Control_c, 0, 64, 60
1, 47948, Control_c, 0, 64, 59
1, 47950, Note_on_c, 0, 78, 87
1, 47962, Note_off_c, 0, 74, 53
1, 47963, Control_c, 0, 64, 57
1, 47964, Note_on_c, 0, 72, 63
1, 47986, Control_c, 0, 64, 56
1, 47990, Note_off_c, 0, 72, 64
1, 48000, Control_c, 0, 64, 55
1, 48010, Note_off_c, 0, 78, 65
1, 48014, Control_c, 0, 64, 54
1, 48029, Control_c, 0, 64, 53
1, 48044, Control_c, 0, 64, 53
1, 48059, Control_c, 0, 64, 53
1, 48110, Note_on_c, 0, 54, 66
1, 48113, Note_on_c, 0, 50, 66
1, 48134, Note_off_c, 0, 54, 67
1, 48142, Note_off_c, 0, 50, 67
1, 48147, Control_c, 0, 64, 53
1, 48266, Control_c, 0, 64, 52
1, 48324, Note_on_c, 0, 76, 82
1, 48340, Control_c, 0, 64, 52
1, 48342, Note_on_c, 0, 73, 70
1, 48370, Control_c, 0, 64, 51
1, 48385, Control_c, 0, 64, 39
1, 48399, Control_c, 0, 64, 0
1, 48475, Note_on_c, 0, 40, 71
1, 48526, Note_off_c, 0, 40, 61
1, 48532, Control_c, 0, 64, 69
1, 48536, Note_off_c, 0, 76, 60
1, 48547, Control_c, 0, 64, 77
1, 48562, Control_c, 0, 64, 83
1, 48577, Control_c, 0, 64, 84
1, 48579, Note_off_c, 0, 73, 47
1, 48591, Control_c, 0, 64, 83
1, 48606, Control_c, 0, 64, 83
1, 48621, Control_c, 0, 64, 82
1, 48636, Control_c, 0, 64, 81
1, 48651, Control_c, 0, 64, 81
1, 48666, Control_c, 0, 64, 80
1, 48681, Control_c, 0, 64, 80
1, 48696, Control_c, 0, 64, 79
1, 48711, Control_c, 0, 64, 78
1, 48732, Control_c, 0, 64, 76
1, 48748, Control_c, 0, 64, 71
1, 48764, Control_c, 0, 64, 63
1, 48773, Note_on_c, 0, 64, 89
1, 48779, Control_c, 0, 64, 0
1, 48790, Note_on_c, 0, 60, 68
1, 48892, Note_on_c, 0, 55, 75
1, 48896, Note_on_c, 0, 52, 73
1, 48896, Note_off_c, 0, 60, 0
1, 48896, Note_on_c, 0, 60, 11
1, 48916, Note_off_c, 0, 55, 66
1, 48922, Note_off_c, 0, 52, 65
1, 49081, Note_off_c, 0, 64, 42
1, 49134, Note_off_c, 0, 60, 62
1, 49160, Note_on_c, 0, 66, 73
1, 49187, Note_on_c, 0, 62, 37
1, 49208, Control_c, 0, 64, 40
1, 49223, Control_c, 0, 64, 38
1, 49238, Control_c, 0, 64, 27
1, 49253, Control_c, 0, 64, 0
1, 49259, Note_on_c, 0, 35, 53
1, 49260, Note_off_c, 0, 62, 0
1, 49260, Note_on_c, 0, 62, 9
1, 49292, Note_off_c, 0, 35, 65
1, 49382, Note_off_c, 0, 62, 36
1, 49393, Note_on_c, 0, 69, 61
1, 49408, Note_off_c, 0, 66, 31
1, 49413, Note_on_c, 0, 63, 46
1, 49421, Note_off_c, 0, 69, 67
1, 49440, Note_off_c, 0, 63, 56
1, 49550, Note_on_c, 0, 54, 69
1, 49557, Note_on_c, 0, 57, 55
1, 49575, Note_off_c, 0, 54, 67
1, 49581, Note_off_c, 0, 57, 59
1, 49617, Control_c, 0, 64, 11
1, 49661, Control_c, 0, 64, 14
1, 49672, Note_on_c, 0, 64, 77
1, 49676, Note_on_c, 0, 61, 71
1, 49705, Control_c, 0, 64, 17
1, 49720, Control_c, 0, 64, 19
1, 49761, Note_off_c, 0, 61, 35
1, 49779, Control_c, 0, 64, 21
1, 49805, Note_on_c, 0, 66, 74
1, 49815, Note_on_c, 0, 62, 61
1, 49825, Note_off_c, 0, 64, 61
1, 49849, Note_off_c, 0, 62, 60
1, 49861, Note_on_c, 0, 31, 69
1, 49863, Note_off_c, 0, 66, 61
1, 49883, Control_c, 0, 64, 26
1, 49887, Note_off_c, 0, 31, 64
1, 49897, Control_c, 0, 64, 30
1, 49912, Control_c, 0, 64, 32
1, 49927, Control_c, 0, 64, 14
1, 49942, Control_c, 0, 64, 0
1, 50031, Note_on_c, 0, 55, 74
1, 50032, Note_on_c, 0, 59, 65
1, 50053, Note_off_c, 0, 55, 67
1, 50059, Note_off_c, 0, 59, 64
1, 50084, Note_on_c, 0, 69, 82
1, 50086, Note_on_c, 0, 61, 78
1, 50105, Control_c, 0, 64, 60
1, 50120, Control_c, 0, 64, 65
1, 50135, Control_c, 0, 64, 66
1, 50161, Note_off_c, 0, 61, 57
1, 50165, Control_c, 0, 64, 66
1, 50209, Control_c, 0, 64, 65
1, 50229, Note_off_c, 0, 69, 53
1, 50230, Note_on_c, 0, 64, 78
1, 50231, Control_c, 0, 64, 65
1, 50236, Note_on_c, 0, 60, 68
1, 50261, Control_c, 0, 64, 64
1, 50262, Note_off_c, 0, 60, 68
1, 50280, Note_off_c, 0, 64, 64
1, 50331, Note_on_c, 0, 33, 79
1, 50350, Control_c, 0, 64, 64
1, 50365, Control_c, 0, 64, 62
1, 50369, Note_off_c, 0, 33, 63
1, 50380, Control_c, 0, 64, 60
1, 50395, Control_c, 0, 64, 56
1, 50410, Control_c, 0, 64, 54
1, 50425, Control_c, 0, 64, 53
1, 50440, Control_c, 0, 64, 53
1, 50454, Control_c, 0, 64, 52
1, 50466, Note_on_c, 0, 69, 88
1, 50469, Control_c, 0, 64, 52
1, 50479, Note_on_c, 0, 65, 68
1, 50484, Control_c, 0, 64, 51
1, 50504, Note_off_c, 0, 65, 69
1, 50514, Control_c, 0, 64, 50
1, 50528, Control_c, 0, 64, 50
1, 50543, Control_c, 0, 64, 51
1, 50554, Note_off_c, 0, 69, 63
1, 50558, Control_c, 0, 64, 56
1, 50573, Control_c, 0, 64, 62
1, 50588, Control_c, 0, 64, 66
1, 50601, Note_on_c, 0, 73, 89
1, 50602, Control_c, 0, 64, 68
1, 50604, Note_on_c, 0, 64, 78
1, 50617, Control_c, 0, 64, 69
1, 50662, Control_c, 0, 64, 69
1, 50675, Note_on_c, 0, 57, 63
1, 50676, Note_on_c, 0, 54, 70
1, 50676, Control_c, 0, 64, 68
1, 50691, Control_c, 0, 64, 67
1, 50699, Note_off_c, 0, 54, 68
1, 50705, Note_off_c, 0, 57, 65
1, 50706, Control_c, 0, 64, 66
1, 50720, Control_c, 0, 64, 65
1, 50735, Control_c, 0, 64, 63
1, 50750, Control_c, 0, 64, 61
1, 50751, Note_off_c, 0, 73, 59
1, 50752, Note_off_c, 0, 64, 57
1, 50765, Control_c, 0, 64, 57
1, 50780, Control_c, 0, 64, 52
1, 50794, Control_c, 0, 64, 48
1, 50809, Control_c, 0, 64, 47
1, 50827, Note_on_c, 0, 35, 68
1, 50836, Note_on_c, 0, 71, 86
1, 50839, Control_c, 0, 64, 46
1, 50847, Note_on_c, 0, 68, 72
1, 50856, Note_off_c, 0, 35, 65
1, 50869, Control_c, 0, 64, 47
1, 50934, Note_off_c, 0, 68, 60
1, 50951, Note_off_c, 0, 71, 64
1, 50958, Control_c, 0, 64, 46
1, 50993, Note_on_c, 0, 76, 85
1, 50996, Note_on_c, 0, 67, 75
1, 51021, Note_off_c, 0, 67, 65
1, 51032, Note_off_c, 0, 76, 61
1, 51089, Note_on_c, 0, 55, 67
1, 51092, Note_on_c, 0, 52, 71
1, 51113, Note_off_c, 0, 55, 66
1, 51118, Note_off_c, 0, 52, 65
1, 51126, Control_c, 0, 64, 47
1, 51157, Control_c, 0, 64, 47
1, 51231, Control_c, 0, 64, 48
1, 51261, Control_c, 0, 64, 49
1, 51265, Note_on_c, 0, 74, 91
1, 51275, Note_on_c, 0, 71, 79
1, 51335, Control_c, 0, 64, 49
1, 51349, Control_c, 0, 64, 50
1, 51376, Note_on_c, 0, 36, 75
1, 51379, Control_c, 0, 64, 50
1, 51394, Control_c, 0, 64, 51
1, 51399, Note_off_c, 0, 36, 64
1, 51641, Note_on_c, 0, 50, 71
1, 51646, Control_c, 0, 64, 51
1, 51647, Note_on_c, 0, 53, 60
1, 51665, Note_off_c, 0, 50, 69
1, 51671, Note_off_c, 0, 53, 61
1, 51727, Control_c, 0, 64, 52
1, 51817, Control_c, 0, 64, 53
1, 51832, Control_c, 0, 64, 53
1, 51867, Note_off_c, 0, 71, 40
1, 51876, Control_c, 0, 64, 53
1, 51888, Note_on_c, 0, 38, 82
1, 51945, Note_off_c, 0, 38, 63
1, 51952, Note_off_c, 0, 74, 18
1, 52084, Note_on_c, 0, 78, 91
1, 52093, Note_on_c, 0, 69, 75
1, 52114, Control_c, 0, 64, 51
1, 52129, Control_c, 0, 64, 32
1, 52144, Control_c, 0, 64, 0
1, 52200, Note_on_c, 0, 52, 81
1, 52203, Note_on_c, 0, 48, 77
1, 52233, Control_c, 0, 64, 63
1, 52237, Note_off_c, 0, 52, 60
1, 52246, Note_off_c, 0, 48, 62
1, 52247, Control_c, 0, 64, 72
1, 52262, Control_c, 0, 64, 80
1, 52270, Note_off_c, 0, 78, 58
1, 52277, Control_c, 0, 64, 84
1, 52294, Note_off_c, 0, 69, 53
1, 52306, Control_c, 0, 64, 83
1, 52321, Control_c, 0, 64, 82
1, 52336, Control_c, 0, 64, 80
1, 52351, Control_c, 0, 64, 79
1, 52425, Control_c, 0, 64, 78
1, 52440, Control_c, 0, 64, 76
1, 52448, Note_on_c, 0, 76, 93
1, 52449, Note_on_c, 0, 40, 81
1, 52455, Control_c, 0, 64, 73
1, 52456, Note_on_c, 0, 67, 80
1, 52477, Control_c, 0, 64, 69
1, 52491, Control_c, 0, 64, 64
1, 52493, Note_off_c, 0, 67, 63
1, 52495, Note_off_c, 0, 40, 66
1, 52506, Control_c, 0, 64, 54
1, 52521, Control_c, 0, 64, 36
1, 52536, Control_c, 0, 64, 0
1, 52564, Note_off_c, 0, 76, 63
1, 52586, Note_on_c, 0, 74, 83
1, 52593, Note_on_c, 0, 66, 75
1, 52627, Note_off_c, 0, 66, 54
1, 52699, Note_on_c, 0, 59, 72
1, 52702, Note_on_c, 0, 62, 68
1, 52726, Note_off_c, 0, 59, 65
1, 52729, Note_off_c, 0, 62, 65
1, 52881, Note_on_c, 0, 77, 76
1, 52898, Note_on_c, 0, 67, 62
1, 52912, Note_off_c, 0, 74, 31
1, 52950, Note_off_c, 0, 77, 61
1, 52979, Note_off_c, 0, 67, 59
1, 52990, Note_on_c, 0, 43, 78
1, 53019, Note_off_c, 0, 43, 66
1, 53041, Control_c, 0, 64, 61
1, 53056, Control_c, 0, 64, 68
1, 53085, Control_c, 0, 64, 66
1, 53100, Control_c, 0, 64, 63
1, 53103, Note_on_c, 0, 60, 75
1, 53108, Note_on_c, 0, 57, 70
1, 53114, Control_c, 0, 64, 56
1, 53126, Note_off_c, 0, 60, 69
1, 53129, Control_c, 0, 64, 44
1, 53133, Note_off_c, 0, 57, 66
1, 53144, Control_c, 0, 64, 38
1, 53159, Control_c, 0, 64, 36
1, 53174, Control_c, 0, 64, 36
1, 53188, Control_c, 0, 64, 34
1, 53203, Note_on_c, 0, 72, 88
1, 53203, Control_c, 0, 64, 28
1, 53217, Note_on_c, 0, 64, 82
1, 53226, Control_c, 0, 64, 0
1, 53329, Control_c, 0, 64, 17
1, 53344, Control_c, 0, 64, 21
1, 53359, Control_c, 0, 64, 24
1, 53360, Note_on_c, 0, 36, 79
1, 53372, Note_off_c, 0, 72, 55
1, 53374, Control_c, 0, 64, 26
1, 53389, Note_off_c, 0, 36, 65
1, 53403, Control_c, 0, 64, 27
1, 53418, Control_c, 0, 64, 28
1, 53433, Control_c, 0, 64, 30
1, 53447, Control_c, 0, 64, 33
1, 53477, Control_c, 0, 64, 32
1, 53489, Note_off_c, 0, 64, 61
1, 53492, Control_c, 0, 64, 29
1, 53507, Control_c, 0, 64, 28
1, 53522, Control_c, 0, 64, 30
1, 53534, Note_on_c, 0, 69, 86
1, 53537, Control_c, 0, 64, 38
1, 53546, Note_on_c, 0, 63, 75
1, 53552, Control_c, 0, 64, 45
1, 53567, Control_c, 0, 64, 51
1, 53582, Control_c, 0, 64, 53
1, 53597, Control_c, 0, 64, 54
1, 53611, Control_c, 0, 64, 53
1, 53626, Control_c, 0, 64, 52
1, 53638, Note_on_c, 0, 58, 77
1, 53641, Control_c, 0, 64, 51
1, 53642, Note_on_c, 0, 55, 69
1, 53648, Note_off_c, 0, 63, 51
1, 53656, Control_c, 0, 64, 50
1, 53660, Note_off_c, 0, 58, 69
1, 53666, Note_off_c, 0, 55, 67
1, 53671, Control_c, 0, 64, 49
1, 53716, Control_c, 0, 64, 49
1, 53743, Note_off_c, 0, 69, 60
1, 53753, Note_on_c, 0, 65, 82
1, 53760, Control_c, 0, 64, 48
1, 53760, Note_on_c, 0, 62, 73
1, 53775, Control_c, 0, 64, 47
1, 53790, Note_off_c, 0, 62, 65
1, 53790, Control_c, 0, 64, 47
1, 53811, Note_off_c, 0, 65, 60
1, 53886, Note_on_c, 0, 41, 78
1, 53920, Note_off_c, 0, 41, 65
1, 53937, Control_c, 0, 64, 47
1, 54019, Control_c, 0, 64, 47
1, 54094, Note_on_c, 0, 67, 82
1, 54102, Note_on_c, 0, 64, 74
1, 54139, Note_off_c, 0, 64, 55
1, 54167, Control_c, 0, 64, 47
1, 54182, Control_c, 0, 64, 48
1, 54197, Control_c, 0, 64, 48
1, 54214, Note_on_c, 0, 64, 36
1, 54249, Note_on_c, 0, 55, 68
1, 54256, Note_on_c, 0, 52, 61
1, 54276, Note_off_c, 0, 55, 65
1, 54281, Note_off_c, 0, 52, 60
1, 54300, Control_c, 0, 64, 49
1, 54523, Control_c, 0, 64, 48
1, 54634, Note_on_c, 0, 45, 65
1, 54663, Note_off_c, 0, 45, 65
1, 54681, Note_off_c, 0, 64, 59
1, 54783, Control_c, 0, 64, 48
1, 54819, Note_off_c, 0, 67, 53
1, 54872, Control_c, 0, 64, 48
1, 54874, Note_on_c, 0, 57, 62
1, 54875, Note_on_c, 0, 54, 69
1, 54887, Control_c, 0, 64, 44
1, 54891, Note_on_c, 0, 66, 84
1, 54896, Note_on_c, 0, 62, 74
1, 54901, Note_off_c, 0, 54, 67
1, 54901, Control_c, 0, 64, 0
1, 54904, Note_off_c, 0, 57, 65
1, 54964, Note_off_c, 0, 62, 49
1, 55019, Control_c, 0, 64, 59
1, 55034, Control_c, 0, 64, 65
1, 55044, Note_on_c, 0, 69, 83
1, 55049, Control_c, 0, 64, 67
1, 55051, Note_on_c, 0, 60, 76
1, 55056, Note_off_c, 0, 66, 57
1, 55064, Control_c, 0, 64, 66
1, 55079, Control_c, 0, 64, 66
1, 55107, Note_off_c, 0, 60, 63
1, 55108, Control_c, 0, 64, 65
1, 55129, Note_off_c, 0, 69, 63
1, 55154, Control_c, 0, 64, 65
1, 55179, Note_on_c, 0, 38, 81
1, 55198, Control_c, 0, 64, 64
1, 55206, Note_off_c, 0, 38, 68
1, 55213, Control_c, 0, 64, 64
1, 55228, Control_c, 0, 64, 63
1, 55243, Control_c, 0, 64, 61
1, 55257, Control_c, 0, 64, 59
1, 55272, Control_c, 0, 64, 56
1, 55287, Control_c, 0, 64, 52
1, 55302, Control_c, 0, 64, 43
1, 55311, Note_on_c, 0, 74, 89
1, 55316, Control_c, 0, 64, 19
1, 55318, Note_on_c, 0, 70, 80
1, 55331, Control_c, 0, 64, 0
1, 55372, Note_off_c, 0, 70, 56
1, 55435, Note_on_c, 0, 71, 88
1, 55443, Note_off_c, 0, 74, 62
1, 55447, Note_on_c, 0, 67, 76
1, 55489, Note_off_c, 0, 67, 62
1, 55500, Note_off_c, 0, 71, 66
1, 55502, Control_c, 0, 64, 51
1, 55512, Note_on_c, 0, 62, 72
1, 55513, Note_on_c, 0, 59, 74
1, 55516, Control_c, 0, 64, 56
1, 55536, Note_off_c, 0, 59, 68
1, 55537, Note_off_c, 0, 62, 66
1, 55546, Control_c, 0, 64, 55
1, 55561, Control_c, 0, 64, 54
1, 55576, Control_c, 0, 64, 54
1, 55647, Note_on_c, 0, 43, 72
1, 55650, Control_c, 0, 64, 54
1, 55665, Control_c, 0, 64, 55
1, 55676, Note_off_c, 0, 43, 63
1, 55683, Note_on_c, 0, 45, 46
1, 55709, Control_c, 0, 64, 54
1, 55716, Note_off_c, 0, 45, 56
1, 55724, Control_c, 0, 64, 47
1, 55739, Control_c, 0, 64, 0
1, 55801, Note_on_c, 0, 76, 88
1, 55808, Note_on_c, 0, 66, 80
1, 55931, Control_c, 0, 64, 59
1, 55945, Note_on_c, 0, 57, 74
1, 55947, Control_c, 0, 64, 72
1, 55948, Note_on_c, 0, 60, 69
1, 55949, Note_off_c, 0, 76, 60
1, 55962, Control_c, 0, 64, 81
1, 55968, Note_off_c, 0, 66, 59
1, 55969, Note_off_c, 0, 57, 68
1, 55975, Note_off_c, 0, 60, 69
1, 55977, Control_c, 0, 64, 88
1, 55992, Control_c, 0, 64, 89
1, 56036, Control_c, 0, 64, 88
1, 56065, Control_c, 0, 64, 88
1, 56080, Control_c, 0, 64, 87
1, 56095, Control_c, 0, 64, 86
1, 56110, Control_c, 0, 64, 85
1, 56125, Control_c, 0, 64, 84
1, 56154, Control_c, 0, 64, 84
1, 56169, Control_c, 0, 64, 83
1, 56176, Note_on_c, 0, 40, 78
1, 56184, Control_c, 0, 64, 81
1, 56199, Control_c, 0, 64, 76
1, 56205, Note_on_c, 0, 68, 90
1, 56221, Control_c, 0, 64, 69
1, 56222, Note_off_c, 0, 40, 66
1, 56224, Note_on_c, 0, 62, 73
1, 56236, Control_c, 0, 64, 61
1, 56251, Control_c, 0, 64, 0
1, 56252, Note_off_c, 0, 62, 66
1, 56321, Note_off_c, 0, 68, 60
1, 56333, Note_on_c, 0, 69, 82
1, 56336, Note_on_c, 0, 61, 82
1, 56360, Note_off_c, 0, 61, 68
1, 56374, Note_off_c, 0, 69, 60
1, 56407, Note_on_c, 0, 57, 71
1, 56409, Note_on_c, 0, 54, 73
1, 56433, Note_off_c, 0, 54, 68
1, 56436, Note_off_c, 0, 57, 61
1, 56602, Note_on_c, 0, 66, 92
1, 56616, Note_on_c, 0, 63, 77
1, 56715, Note_on_c, 0, 47, 83
1, 56774, Note_off_c, 0, 47, 63
1, 56800, Control_c, 0, 64, 66
1, 56815, Control_c, 0, 64, 76
1, 56822, Note_off_c, 0, 63, 56
1, 56830, Control_c, 0, 64, 85
1, 56844, Control_c, 0, 64, 89
1, 56860, Note_off_c, 0, 66, 60
1, 57000, Control_c, 0, 64, 87
1, 57015, Control_c, 0, 64, 77
1, 57030, Control_c, 0, 64, 61
1, 57044, Control_c, 0, 64, 0
1, 57080, Note_on_c, 0, 55, 78
1, 57083, Note_on_c, 0, 52, 84
1, 57090, Note_on_c, 0, 71, 88
1, 57096, Note_on_c, 0, 62, 82
1, 57103, Control_c, 0, 64, 62
1, 57105, Note_off_c, 0, 55, 66
1, 57111, Note_off_c, 0, 52, 68
1, 57118, Control_c, 0, 64, 69
1, 57133, Control_c, 0, 64, 70
1, 57148, Control_c, 0, 64, 69
1, 57162, Control_c, 0, 64, 67
1, 57177, Control_c, 0, 64, 66
1, 57187, Note_off_c, 0, 71, 60
1, 57192, Control_c, 0, 64, 66
1, 57206, Control_c, 0, 64, 66
1, 57224, Note_on_c, 0, 64, 80
1, 57228, Note_off_c, 0, 62, 63
1, 57230, Note_on_c, 0, 61, 70
1, 57236, Control_c, 0, 64, 67
1, 57256, Note_off_c, 0, 64, 67
1, 57257, Note_off_c, 0, 61, 66
1, 57281, Control_c, 0, 64, 67
1, 57296, Control_c, 0, 64, 67
1, 57311, Control_c, 0, 64, 66
1, 57311, Note_on_c, 0, 33, 80
1, 57325, Control_c, 0, 64, 64
1, 57340, Control_c, 0, 64, 55
1, 57346, Note_off_c, 0, 33, 63
1, 57355, Control_c, 0, 64, 0
1, 57454, Note_on_c, 0, 69, 85
1, 57460, Note_on_c, 0, 60, 78
1, 57536, Note_off_c, 0, 60, 61
1, 57549, Control_c, 0, 64, 73
1, 57554, Note_on_c, 0, 51, 84
1, 57555, Note_on_c, 0, 48, 83
1, 57564, Control_c, 0, 64, 88
1, 57566, Note_off_c, 0, 69, 63
1, 57579, Control_c, 0, 64, 108
1, 57579, Note_off_c, 0, 51, 69
1, 57586, Note_off_c, 0, 48, 65
1, 57593, Control_c, 0, 64, 109
1, 57608, Control_c, 0, 64, 109
1, 57623, Control_c, 0, 64, 107
1, 57638, Control_c, 0, 64, 105
1, 57653, Control_c, 0, 64, 103
1, 57667, Control_c, 0, 64, 102
1, 57682, Control_c, 0, 64, 101
1, 57697, Control_c, 0, 64, 100
1, 57719, Control_c, 0, 64, 97
1, 57734, Control_c, 0, 64, 94
1, 57749, Control_c, 0, 64, 89
1, 57760, Note_on_c, 0, 35, 80
1, 57764, Control_c, 0, 64, 86
1, 57779, Control_c, 0, 64, 82
1, 57793, Control_c, 0, 64, 80
1, 57801, Note_off_c, 0, 35, 64
1, 57808, Control_c, 0, 64, 78
1, 57823, Control_c, 0, 64, 76
1, 57837, Control_c, 0, 64, 74
1, 57840, Note_on_c, 0, 76, 92
1, 57844, Note_on_c, 0, 68, 82
1, 57852, Control_c, 0, 64, 73
1, 57867, Control_c, 0, 64, 71
1, 57882, Control_c, 0, 64, 69
1, 57897, Control_c, 0, 64, 68
1, 57905, Note_off_c, 0, 68, 53
1, 57911, Control_c, 0, 64, 67
1, 57967, Note_on_c, 0, 51, 84
1, 57971, Control_c, 0, 64, 65
1, 57973, Note_on_c, 0, 56, 77
1, 57985, Control_c, 0, 64, 63
1, 57996, Note_off_c, 0, 56, 71
1, 58000, Control_c, 0, 64, 59
1, 58015, Control_c, 0, 64, 52
1, 58019, Note_off_c, 0, 51, 65
1, 58029, Control_c, 0, 64, 45
1, 58032, Note_on_c, 0, 74, 89
1, 58037, Note_on_c, 0, 71, 83
1, 58044, Control_c, 0, 64, 43
1, 58050, Note_off_c, 0, 76, 30
1, 58059, Note_off_c, 0, 71, 67
1, 58059, Control_c, 0, 64, 42
1, 58074, Control_c, 0, 64, 40
1, 58078, Note_off_c, 0, 74, 65
1, 58089, Control_c, 0, 64, 39
1, 58103, Control_c, 0, 64, 38
1, 58118, Control_c, 0, 64, 37
1, 58220, Note_on_c, 0, 40, 87
1, 58262, Note_off_c, 0, 40, 65
1, 58267, Control_c, 0, 64, 35
1, 58282, Control_c, 0, 64, 30
1, 58297, Control_c, 0, 64, 24
1, 58311, Control_c, 0, 64, 11
1, 58326, Note_on_c, 0, 73, 95
1, 58327, Control_c, 0, 64, 0
1, 58331, Note_on_c, 0, 69, 84
1, 58529, Note_on_c, 0, 54, 79
1, 58529, Note_on_c, 0, 57, 79
1, 58555, Note_off_c, 0, 57, 64
1, 58557, Control_c, 0, 64, 39
1, 58562, Note_off_c, 0, 54, 67
1, 58571, Control_c, 0, 64, 51
1, 58586, Control_c, 0, 64, 52
1, 58601, Control_c, 0, 64, 52
1, 58690, Control_c, 0, 64, 49
1, 58705, Control_c, 0, 64, 0
1, 58756, Note_on_c, 0, 43, 89
1, 58762, Note_off_c, 0, 73, 30
1, 58773, Note_off_c, 0, 69, 41
1, 58794, Control_c, 0, 64, 39
1, 58798, Note_off_c, 0, 43, 66
1, 58808, Control_c, 0, 64, 66
1, 58823, Control_c, 0, 64, 72
1, 58838, Control_c, 0, 64, 73
1, 58841, Note_on_c, 0, 74, 99
1, 58843, Note_on_c, 0, 64, 90
1, 58852, Control_c, 0, 64, 73
1, 58867, Control_c, 0, 64, 71
1, 58882, Control_c, 0, 64, 67
1, 58897, Control_c, 0, 64, 61
1, 58912, Control_c, 0, 64, 35
1, 58923, Note_off_c, 0, 64, 58
1, 58927, Control_c, 0, 64, 19
1, 58941, Control_c, 0, 64, 40
1, 58956, Control_c, 0, 64, 55
1, 58957, Note_on_c, 0, 59, 68
1, 58959, Note_on_c, 0, 62, 60
1, 58960, Note_on_c, 0, 60, 67
1, 58971, Control_c, 0, 64, 62
1, 58977, Note_on_c, 0, 57, 58
1, 58979, Note_on_c, 0, 58, 29
1, 58980, Note_off_c, 0, 62, 62
1, 58983, Note_off_c, 0, 59, 67
1, 58986, Note_off_c, 0, 60, 69
1, 58986, Control_c, 0, 64, 64
1, 58997, Note_off_c, 0, 58, 39
1, 59001, Note_off_c, 0, 57, 62
1, 59001, Control_c, 0, 64, 65
1, 59031, Control_c, 0, 64, 65
1, 59038, Note_off_c, 0, 74, 61
1, 59045, Control_c, 0, 64, 64
1, 59060, Control_c, 0, 64, 64
1, 59075, Control_c, 0, 64, 63
1, 59079, Note_on_c, 0, 76, 94
1, 59087, Note_on_c, 0, 67, 85
1, 59090, Control_c, 0, 64, 59
1, 59105, Control_c, 0, 64, 11
1, 59120, Control_c, 0, 64, 0
1, 59148, Note_off_c, 0, 67, 59
1, 59193, Note_off_c, 0, 76, 59
1, 59225, Note_on_c, 0, 36, 87
1, 59260, Note_off_c, 0, 36, 64
1, 59290, Control_c, 0, 64, 61
1, 59320, Control_c, 0, 64, 0
1, 59379, Note_on_c, 0, 59, 81
1, 59382, Note_on_c, 0, 55, 85
1, 59392, Note_on_c, 0, 78, 97
1, 59393, Note_on_c, 0, 66, 92
1, 59401, Note_off_c, 0, 59, 67
1, 59415, Note_off_c, 0, 55, 64
1, 59424, Control_c, 0, 64, 72
1, 59435, Note_off_c, 0, 66, 63
1, 59439, Control_c, 0, 64, 89
1, 59445, Note_off_c, 0, 78, 67
1, 59454, Control_c, 0, 64, 98
1, 59469, Control_c, 0, 64, 98
1, 59483, Control_c, 0, 64, 95
1, 59498, Control_c, 0, 64, 90
1, 59513, Control_c, 0, 64, 82
1, 59519, Note_on_c, 0, 83, 97
1, 59525, Note_on_c, 0, 71, 83
1, 59528, Control_c, 0, 64, 69
1, 59543, Control_c, 0, 64, 0
1, 59640, Note_on_c, 0, 38, 92
1, 59646, Control_c, 0, 64, 36
1, 59659, Note_off_c, 0, 83, 57
1, 59661, Control_c, 0, 64, 74
1, 59676, Control_c, 0, 64, 83
1, 59687, Note_off_c, 0, 38, 66
1, 59689, Note_off_c, 0, 71, 64
1, 59690, Control_c, 0, 64, 86
1, 59705, Control_c, 0, 64, 83
1, 59720, Control_c, 0, 64, 81
1, 59735, Control_c, 0, 64, 78
1, 59749, Control_c, 0, 64, 75
1, 59764, Control_c, 0, 64, 73
1, 59779, Control_c, 0, 64, 72
1, 59792, Note_on_c, 0, 69, 89
1, 59793, Note_on_c, 0, 81, 95
1, 59794, Control_c, 0, 64, 70
1, 59809, Control_c, 0, 64, 67
1, 59823, Control_c, 0, 64, 63
1, 59838, Control_c, 0, 64, 43
1, 59853, Control_c, 0, 64, 0
1, 59973, Note_on_c, 0, 57, 94
1, 59978, Note_on_c, 0, 54, 85
1, 59995, Control_c, 0, 64, 72
1, 60007, Note_off_c, 0, 57, 62
1, 60010, Control_c, 0, 64, 86
1, 60014, Note_off_c, 0, 54, 63
1, 60025, Control_c, 0, 64, 95
1, 60050, Note_off_c, 0, 81, 47
1, 60083, Note_off_c, 0, 69, 57
1, 60099, Control_c, 0, 64, 96
1, 60113, Control_c, 0, 64, 100
1, 60128, Control_c, 0, 64, 103
1, 60143, Control_c, 0, 64, 102
1, 60158, Control_c, 0, 64, 87
1, 60173, Control_c, 0, 64, 64
1, 60187, Control_c, 0, 64, 0
1, 60211, Note_on_c, 0, 79, 86
1, 60214, Note_on_c, 0, 67, 80
1, 60217, Control_c, 0, 64, 29
1, 60232, Control_c, 0, 64, 66
1, 60247, Control_c, 0, 64, 79
1, 60262, Control_c, 0, 64, 95
1, 60264, Note_off_c, 0, 67, 60
1, 60277, Control_c, 0, 64, 106
1, 60299, Note_on_c, 0, 55, 86
1, 60306, Control_c, 0, 64, 101
1, 60321, Control_c, 0, 64, 94
1, 60324, Note_off_c, 0, 55, 68
1, 60336, Control_c, 0, 64, 87
1, 60351, Control_c, 0, 64, 82
1, 60366, Control_c, 0, 64, 79
1, 60380, Control_c, 0, 64, 74
1, 60395, Control_c, 0, 64, 66
1, 60405, Note_on_c, 0, 78, 84
1, 60410, Control_c, 0, 64, 0
1, 60413, Note_on_c, 0, 69, 73
1, 60417, Note_off_c, 0, 79, 59
1, 60460, Note_off_c, 0, 78, 64
1, 60467, Note_off_c, 0, 69, 59
1, 60539, Note_on_c, 0, 38, 65
1, 60590, Note_off_c, 0, 38, 57
1, 60620, Note_on_c, 0, 71, 61
1, 60621, Note_on_c, 0, 74, 61
1, 60643, Note_off_c, 0, 71, 65
1, 60655, Note_off_c, 0, 74, 65
1, 60712, Note_on_c, 0, 33, 68
1, 60712, Note_on_c, 0, 45, 75
1, 60743, Note_off_c, 0, 45, 67
1, 60748, Note_off_c, 0, 33, 62
1, 60759, Control_c, 0, 64, 63
1, 60774, Control_c, 0, 64, 76
1, 60789, Control_c, 0, 64, 83
1, 60803, Control_c, 0, 64, 84
1, 60835, Note_on_c, 0, 76, 70
1, 60841, Note_on_c, 0, 73, 68
1, 60880, Note_off_c, 0, 73, 56
1, 60895, Note_off_c, 0, 76, 57
1, 60920, Note_on_c, 0, 54, 74
1, 60922, Control_c, 0, 64, 84
1, 60936, Control_c, 0, 64, 83
1, 60943, Note_off_c, 0, 54, 66
1, 60951, Control_c, 0, 64, 80
1, 60966, Control_c, 0, 64, 74
1, 60981, Control_c, 0, 64, 64
1, 60996, Control_c, 0, 64, 0
1, 61036, Note_on_c, 0, 69, 57
1, 61040, Note_on_c, 0, 66, 58
1, 61081, Note_off_c, 0, 66, 59
1, 61117, Note_on_c, 0, 42, 81
1, 61119, Note_on_c, 0, 30, 72
1, 61135, Note_off_c, 0, 69, 60
1, 61140, Note_on_c, 0, 72, 69
1, 61141, Note_off_c, 0, 42, 68
1, 61147, Note_off_c, 0, 30, 63
1, 61149, Note_on_c, 0, 64, 62
1, 61162, Note_off_c, 0, 72, 69
1, 61171, Note_off_c, 0, 64, 66
1, 61251, Note_on_c, 0, 50, 87
1, 61277, Control_c, 0, 64, 54
1, 61281, Note_off_c, 0, 50, 69
1, 61292, Control_c, 0, 64, 64
1, 61307, Control_c, 0, 64, 55
1, 61322, Control_c, 0, 64, 0
1, 61343, Note_on_c, 0, 71, 84
1, 61350, Note_on_c, 0, 62, 75
1, 61450, Note_on_c, 0, 59, 76
1, 61472, Note_off_c, 0, 59, 69
1, 61573, Note_off_c, 0, 62, 50
1, 61632, Note_off_c, 0, 71, 64
1, 61645, Note_on_c, 0, 40, 85
1, 61710, Note_off_c, 0, 40, 63
1, 61785, Note_on_c, 0, 33, 74
1, 61785, Note_on_c, 0, 45, 83
1, 61810, Note_off_c, 0, 33, 63
1, 61821, Note_off_c, 0, 45, 66
1, 61834, Control_c, 0, 64, 67
1, 61849, Control_c, 0, 64, 70
1, 61864, Control_c, 0, 64, 69
1, 61865, Note_on_c, 0, 74, 88
1, 61865, Note_on_c, 0, 72, 79
1, 61878, Control_c, 0, 64, 67
1, 61893, Control_c, 0, 64, 65
1, 61908, Control_c, 0, 64, 63
1, 61923, Control_c, 0, 64, 62
1, 61938, Control_c, 0, 64, 63
1, 61958, Note_off_c, 0, 72, 40
1, 61964, Note_on_c, 0, 55, 81
1, 61992, Note_off_c, 0, 55, 67
1, 61997, Control_c, 0, 64, 62
1, 62005, Note_off_c, 0, 74, 65
1, 62011, Note_on_c, 0, 79, 79
1, 62011, Control_c, 0, 64, 61
1, 62019, Note_on_c, 0, 71, 74
1, 62056, Control_c, 0, 64, 62
1, 62063, Note_off_c, 0, 71, 64
1, 62071, Control_c, 0, 64, 63
1, 62086, Control_c, 0, 64, 64
1, 62095, Note_off_c, 0, 79, 61
1, 62101, Control_c, 0, 64, 65
1, 62116, Control_c, 0, 64, 65
1, 62144, Note_on_c, 0, 47, 79
1, 62169, Note_off_c, 0, 47, 69
1, 62225, Note_on_c, 0, 83, 91
1, 62240, Note_on_c, 0, 71, 62
1, 62244, Note_on_c, 0, 69, 60
1, 62256, Control_c, 0, 64, 65
1, 62262, Note_off_c, 0, 71, 62
1, 62268, Note_off_c, 0, 69, 64
1, 62271, Control_c, 0, 64, 64
1, 62286, Control_c, 0, 64, 57
1, 62301, Control_c, 0, 64, 0
1, 62317, Note_off_c, 0, 83, 49
1, 62332, Note_on_c, 0, 78, 87
1, 62338, Note_on_c, 0, 74, 78
1, 62358, Note_off_c, 0, 74, 72
1, 62382, Note_off_c, 0, 78, 64
1, 62417, Note_on_c, 0, 38, 76
1, 62455, Note_off_c, 0, 38, 63
1, 62524, Note_on_c, 0, 76, 82
1, 62540, Note_on_c, 0, 73, 65
1, 62584, Note_on_c, 0, 33, 76
1, 62630, Note_off_c, 0, 33, 59
1, 62649, Note_off_c, 0, 73, 0
1, 62649, Note_on_c, 0, 73, 11
1, 62679, Note_off_c, 0, 73, 58
1, 62699, Note_off_c, 0, 76, 62
1, 62701, Control_c, 0, 64, 61
1, 62702, Note_on_c, 0, 28, 87
1, 62703, Note_on_c, 0, 40, 83
1, 62716, Control_c, 0, 64, 76
1, 62731, Control_c, 0, 64, 81
1, 62735, Note_off_c, 0, 28, 65
1, 62745, Note_off_c, 0, 40, 64
1, 62746, Control_c, 0, 64, 81
1, 62761, Control_c, 0, 64, 78
1, 62775, Control_c, 0, 64, 74
1, 62788, Note_on_c, 0, 78, 89
1, 62790, Control_c, 0, 64, 71
1, 62792, Note_on_c, 0, 69, 84
1, 62805, Control_c, 0, 64, 69
1, 62819, Control_c, 0, 64, 68
1, 62849, Note_off_c, 0, 69, 59
1, 62864, Control_c, 0, 64, 66
1, 62879, Control_c, 0, 64, 62
1, 62886, Note_on_c, 0, 49, 88
1, 62890, Note_off_c, 0, 78, 56
1, 62894, Control_c, 0, 64, 32
1, 62908, Note_on_c, 0, 79, 83
1, 62909, Control_c, 0, 64, 0
1, 62920, Note_off_c, 0, 49, 64
1, 62925, Note_on_c, 0, 73, 40
1, 62925, Note_on_c, 0, 74, 74
1, 62955, Note_off_c, 0, 74, 71
1, 62965, Note_off_c, 0, 73, 39
1, 62974, Note_off_c, 0, 79, 62
1, 63084, Note_on_c, 0, 43, 63
1, 63109, Note_off_c, 0, 43, 58
1, 63135, Note_on_c, 0, 76, 88
1, 63138, Note_on_c, 0, 67, 78
1, 63247, Note_on_c, 0, 36, 88
1, 63254, Note_on_c, 0, 24, 76
1, 63272, Control_c, 0, 64, 63
1, 63282, Note_off_c, 0, 67, 60
1, 63285, Note_on_c, 0, 26, 45
1, 63285, Note_off_c, 0, 24, 62
1, 63287, Control_c, 0, 64, 80
1, 63302, Control_c, 0, 64, 90
1, 63303, Note_off_c, 0, 36, 63
1, 63317, Control_c, 0, 64, 92
1, 63320, Note_off_c, 0, 76, 59
1, 63326, Note_off_c, 0, 26, 52
1, 63331, Control_c, 0, 64, 90
1, 63346, Control_c, 0, 64, 87
1, 63361, Control_c, 0, 64, 85
1, 63376, Control_c, 0, 64, 83
1, 63378, Note_on_c, 0, 35, 88
1, 63391, Control_c, 0, 64, 82
1, 63406, Note_off_c, 0, 35, 68
1, 63435, Control_c, 0, 64, 82
1, 63449, Control_c, 0, 64, 78
1, 63454, Note_on_c, 0, 78, 96
1, 63460, Note_on_c, 0, 66, 84
1, 63464, Control_c, 0, 64, 70
1, 63479, Control_c, 0, 64, 0
1, 63630, Note_on_c, 0, 52, 94
1, 63639, Note_off_c, 0, 66, 60
1, 63654, Note_off_c, 0, 52, 68
1, 63657, Control_c, 0, 64, 70
1, 63672, Control_c, 0, 64, 76
1, 63687, Control_c, 0, 64, 79
1, 63727, Note_off_c, 0, 78, 58
1, 63752, Control_c, 0, 64, 73
1, 63767, Control_c, 0, 64, 30
1, 63782, Control_c, 0, 64, 0
1, 63815, Note_on_c, 0, 45, 99
1, 63820, Note_on_c, 0, 33, 82
1, 63842, Control_c, 0, 64, 56
1, 63847, Note_off_c, 0, 33, 63
1, 63856, Control_c, 0, 64, 72
1, 63863, Note_off_c, 0, 45, 67
1, 63871, Control_c, 0, 64, 86
1, 63886, Control_c, 0, 64, 100
1, 63901, Control_c, 0, 64, 103
1, 63916, Control_c, 0, 64, 103
1, 63921, Poly_aftertouch_c, 0, 35, 127
1, 63931, Control_c, 0, 64, 97
1, 63940, Note_on_c, 0, 49, 96
1, 63946, Control_c, 0, 64, 86
1, 63960, Poly_aftertouch_c, 0, 35, 0
1, 63961, Control_c, 0, 64, 71
1, 63976, Control_c, 0, 64, 0
1, 63980, Note_off_c, 0, 49, 64
1, 64012, Note_on_c, 0, 80, 92
1, 64021, Note_on_c, 0, 76, 85
1, 64088, Note_off_c, 0, 76, 57
1, 64125, Note_off_c, 0, 80, 57
1, 64149, Note_on_c, 0, 47, 94
1, 64183, Control_c, 0, 64, 60
1, 64190, Note_off_c, 0, 47, 66
1, 64197, Control_c, 0, 64, 85
1, 64212, Control_c, 0, 64, 106
1, 64225, Note_on_c, 0, 81, 99
1, 64227, Control_c, 0, 64, 127
1, 64238, Note_on_c, 0, 74, 76
1, 64259, Note_off_c, 0, 74, 71
1, 64268, Note_off_c, 0, 81, 64
1, 64286, Control_c, 0, 64, 116
1, 64301, Control_c, 0, 64, 109
1, 64316, Control_c, 0, 64, 98
1, 64325, Note_on_c, 0, 85, 101
1, 64331, Note_on_c, 0, 73, 81
1, 64331, Control_c, 0, 64, 82
1, 64345, Control_c, 0, 64, 61
1, 64353, Note_off_c, 0, 73, 70
1, 64360, Control_c, 0, 64, 0
1, 64363, Note_off_c, 0, 85, 60
1, 64399, Note_on_c, 0, 54, 80
1, 64424, Note_off_c, 0, 54, 68
1, 64459, Note_on_c, 0, 46, 12
1, 64460, Note_off_c, 0, 46, 127
1, 64517, Note_on_c, 0, 83, 82
1, 64521, Note_on_c, 0, 69, 77
1, 64528, Note_on_c, 0, 81, 78
1, 64551, Note_on_c, 0, 71, 40
1, 64552, Note_off_c, 0, 71, 127
1, 64574, Note_off_c, 0, 83, 46
1, 64575, Note_off_c, 0, 81, 0
1, 64577, Note_on_c, 0, 42, 90
1, 64579, Note_on_c, 0, 30, 66
1, 64595, Note_on_c, 0, 81, 40
1, 64605, Note_off_c, 0, 30, 61
1, 64614, Note_off_c, 0, 42, 62
1, 64629, Note_off_c, 0, 81, 59
1, 64657, Note_off_c, 0, 69, 61
1, 64679, Control_c, 0, 64, 57
1, 64694, Control_c, 0, 64, 80
1, 64709, Note_on_c, 0, 49, 96
1, 64709, Control_c, 0, 64, 90
1, 64725, Control_c, 0, 64, 95
1, 64740, Control_c, 0, 64, 94
1, 64748, Note_off_c, 0, 49, 60
1, 64755, Control_c, 0, 64, 92
1, 64769, Control_c, 0, 64, 90
1, 64784, Control_c, 0, 64, 87
1, 64799, Control_c, 0, 64, 86
1, 64805, Note_on_c, 0, 71, 86
1, 64814, Control_c, 0, 64, 85
1, 64819, Note_on_c, 0, 68, 76
1, 64828, Control_c, 0, 64, 84
1, 64843, Control_c, 0, 64, 81
1, 64858, Control_c, 0, 64, 75
1, 64873, Control_c, 0, 64, 67
1, 64887, Note_on_c, 0, 37, 75
1, 64888, Control_c, 0, 64, 0
1, 64890, Note_off_c, 0, 68, 56
1, 64929, Note_off_c, 0, 71, 61
1, 64939, Note_off_c, 0, 37, 58
1, 64989, Note_on_c, 0, 73, 83
1, 64996, Note_on_c, 0, 66, 73
1, 65019, Note_off_c, 0, 66, 68
1, 65022, Note_on_c, 0, 44, 72
1, 65041, Note_off_c, 0, 73, 61
1, 65047, Note_off_c, 0, 44, 66
1, 65099, Note_on_c, 0, 76, 82
1, 65104, Note_on_c, 0, 64, 72
1, 65129, Note_off_c, 0, 64, 70
1, 65129, Note_off_c, 0, 76, 58
1, 65188, Note_on_c, 0, 57, 70
1, 65198, Note_on_c, 0, 45, 77
1, 65222, Note_off_c, 0, 57, 67
1, 65222, Control_c, 0, 64, 45
1, 65228, Note_off_c, 0, 45, 68
1, 65235, Control_c, 0, 64, 62
1, 65250, Control_c, 0, 64, 54
1, 65265, Control_c, 0, 64, 0
1, 65274, Note_on_c, 0, 71, 77
1, 65281, Note_on_c, 0, 68, 71
1, 65345, Note_off_c, 0, 68, 52
1, 65377, Note_on_c, 0, 40, 71
1, 65383, Note_on_c, 0, 73, 78
1, 65396, Note_on_c, 0, 69, 62
1, 65398, Note_off_c, 0, 71, 62
1, 65423, Note_off_c, 0, 69, 68
1, 65429, Note_off_c, 0, 73, 59
1, 65436, Note_off_c, 0, 40, 59
1, 65510, Note_on_c, 0, 44, 77
1, 65541, Note_off_c, 0, 44, 67
1, 65591, Note_on_c, 0, 68, 85
1, 65592, Note_on_c, 0, 76, 87
1, 65606, Control_c, 0, 64, 51
1, 65615, Note_off_c, 0, 68, 64
1, 65621, Control_c, 0, 64, 76
1, 65636, Control_c, 0, 64, 86
1, 65651, Control_c, 0, 64, 94
1, 65666, Control_c, 0, 64, 93
1, 65680, Note_on_c, 0, 71, 84
1, 65690, Note_on_c, 0, 69, 68
1, 65708, Note_off_c, 0, 69, 64
1, 65711, Control_c, 0, 64, 92
1, 65714, Note_off_c, 0, 71, 66
1, 65717, Note_off_c, 0, 76, 25
1, 65725, Control_c, 0, 64, 90
1, 65740, Control_c, 0, 64, 86
1, 65747, Note_on_c, 0, 42, 70
1, 65754, Note_on_c, 0, 54, 75
1, 65755, Control_c, 0, 64, 78
1, 65770, Control_c, 0, 64, 66
1, 65774, Note_off_c, 0, 42, 66
1, 65782, Note_off_c, 0, 54, 69
1, 65785, Control_c, 0, 64, 0
1, 65845, Note_on_c, 0, 76, 83
1, 65878, Note_on_c, 0, 73, 51
1, 65913, Note_on_c, 0, 57, 66
1, 65913, Note_off_c, 0, 76, 62
1, 65936, Note_off_c, 0, 57, 64
1, 65953, Note_off_c, 0, 73, 45
1, 65968, Note_on_c, 0, 80, 84
1, 65972, Note_on_c, 0, 71, 75
1, 66071, Note_on_c, 0, 37, 85
1, 66077, Note_on_c, 0, 25, 69
1, 66081, Note_off_c, 0, 71, 35
1, 66089, Note_off_c, 0, 80, 55
1, 66102, Note_off_c, 0, 37, 67
1, 66112, Note_off_c, 0, 25, 61
1, 66147, Control_c, 0, 64, 74
1, 66162, Control_c, 0, 64, 84
1, 66163, Note_on_c, 0, 78, 94
1, 66165, Note_on_c, 0, 74, 88
1, 66176, Control_c, 0, 64, 88
1, 66182, Note_off_c, 0, 74, 73
1, 66191, Control_c, 0, 64, 85
1, 66206, Control_c, 0, 64, 81
1, 66214, Note_off_c, 0, 78, 66
1, 66221, Control_c, 0, 64, 76
1, 66236, Control_c, 0, 64, 71
1, 66250, Control_c, 0, 64, 67
1, 66257, Note_on_c, 0, 73, 92
1, 66259, Note_on_c, 0, 83, 89
1, 66265, Control_c, 0, 64, 66
1, 66280, Control_c, 0, 64, 66
1, 66288, Note_off_c, 0, 73, 61
1, 66308, Note_off_c, 0, 83, 59
1, 66326, Control_c, 0, 64, 66
1, 66340, Control_c, 0, 64, 64
1, 66354, Note_on_c, 0, 49, 84
1, 66355, Control_c, 0, 64, 61
1, 66370, Control_c, 0, 64, 0
1, 66393, Note_off_c, 0, 49, 62
1, 66465, Note_on_c, 0, 81, 77
1, 66473, Note_on_c, 0, 78, 73
1, 66516, Note_on_c, 0, 42, 83
1, 66554, Note_off_c, 0, 42, 63
1, 66643, Note_on_c, 0, 44, 94
1, 66651, Note_on_c, 0, 32, 76
1, 66652, Control_c, 0, 64, 66
1, 66666, Control_c, 0, 64, 73
1, 66674, Note_off_c, 0, 44, 64
1, 66676, Note_off_c, 0, 32, 65
1, 66681, Control_c, 0, 64, 72
1, 66703, Control_c, 0, 64, 67
1, 66718, Control_c, 0, 64, 58
1, 66733, Control_c, 0, 64, 0
1, 66806, Note_on_c, 0, 57, 89
1, 66828, Note_off_c, 0, 57, 68
1, 66933, Note_on_c, 0, 61, 91
1, 66965, Note_off_c, 0, 61, 64
1, 66972, Note_off_c, 0, 81, 18
1, 67003, Note_off_c, 0, 78, 43
1, 67042, Note_on_c, 0, 85, 92
1, 67044, Control_c, 0, 64, 61
1, 67049, Note_on_c, 0, 76, 88
1, 67059, Control_c, 0, 64, 64
1, 67073, Control_c, 0, 64, 65
1, 67075, Note_on_c, 0, 82, 50
1, 67088, Control_c, 0, 64, 67
1, 67103, Control_c, 0, 64, 69
1, 67110, Note_off_c, 0, 82, 48
1, 67119, Control_c, 0, 64, 73
1, 67134, Control_c, 0, 64, 76
1, 67149, Control_c, 0, 64, 76
1, 67159, Note_on_c, 0, 47, 91
1, 67161, Note_off_c, 0, 85, 62
1, 67162, Note_off_c, 0, 76, 58
1, 67178, Control_c, 0, 64, 76
1, 67193, Control_c, 0, 64, 75
1, 67207, Note_off_c, 0, 47, 66
1, 67208, Control_c, 0, 64, 73
1, 67222, Control_c, 0, 64, 68
1, 67237, Control_c, 0, 64, 63
1, 67252, Control_c, 0, 64, 55
1, 67262, Note_on_c, 0, 83, 93
1, 67267, Control_c, 0, 64, 44
1, 67269, Note_on_c, 0, 74, 89
1, 67282, Control_c, 0, 64, 42
1, 67297, Control_c, 0, 64, 44
1, 67306, Note_off_c, 0, 74, 65
1, 67311, Control_c, 0, 64, 45
1, 67363, Note_off_c, 0, 83, 64
1, 67365, Note_on_c, 0, 81, 90
1, 67371, Control_c, 0, 64, 44
1, 67377, Note_on_c, 0, 73, 86
1, 67386, Control_c, 0, 64, 43
1, 67415, Control_c, 0, 64, 44
1, 67430, Control_c, 0, 64, 47
1, 67431, Note_off_c, 0, 73, 61
1, 67452, Control_c, 0, 64, 50
1, 67462, Note_on_c, 0, 52, 94
1, 67467, Control_c, 0, 64, 51
1, 67483, Control_c, 0, 64, 51
1, 67497, Control_c, 0, 64, 38
1, 67512, Control_c, 0, 64, 0
1, 67517, Note_off_c, 0, 52, 65
1, 67597, Note_off_c, 0, 81, 59
1, 67624, Note_on_c, 0, 84, 94
1, 67630, Note_on_c, 0, 72, 91
1, 67660, Control_c, 0, 64, 59
1, 67663, Note_on_c, 0, 74, 45
1, 67664, Note_off_c, 0, 74, 127
1, 67675, Control_c, 0, 64, 77
1, 67690, Note_off_c, 0, 84, 63
1, 67690, Control_c, 0, 64, 86
1, 67705, Control_c, 0, 64, 89
1, 67714, Note_off_c, 0, 72, 56
1, 67747, Note_on_c, 0, 53, 94
1, 67783, Note_off_c, 0, 53, 69
1, 67794, Control_c, 0, 64, 88
1, 67809, Control_c, 0, 64, 78
1, 67823, Control_c, 0, 64, 32
1, 67838, Control_c, 0, 64, 0
1, 67900, Note_on_c, 0, 79, 93
1, 67903, Note_on_c, 0, 71, 85
1, 67949, Note_off_c, 0, 71, 62
1, 67951, Note_off_c, 0, 79, 64
1, 67988, Control_c, 0, 64, 79
1, 68002, Control_c, 0, 64, 96
1, 68017, Control_c, 0, 64, 127
1, 68018, Note_on_c, 0, 52, 94
1, 68021, Note_on_c, 0, 40, 76
1, 68050, Note_off_c, 0, 40, 65
1, 68065, Note_off_c, 0, 52, 65
1, 68119, Note_on_c, 0, 76, 90
1, 68119, Note_on_c, 0, 68, 90
1, 68150, Control_c, 0, 64, 118
1, 68164, Control_c, 0, 64, 94
1, 68166, Note_off_c, 0, 68, 59
1, 68179, Control_c, 0, 64, 69
1, 68202, Control_c, 0, 64, 0
1, 68207, Note_on_c, 0, 69, 64
1, 68209, Note_on_c, 0, 72, 82
1, 68217, Note_off_c, 0, 76, 63
1, 68247, Note_off_c, 0, 69, 65
1, 68253, Note_off_c, 0, 72, 63
1, 68280, Note_on_c, 0, 57, 79
1, 68303, Note_off_c, 0, 57, 70
1, 68394, Note_on_c, 0, 74, 89
1, 68397, Note_on_c, 0, 65, 81
1, 68480, Note_on_c, 0, 45, 86
1, 68488, Note_on_c, 0, 33, 76
1, 68520, Note_off_c, 0, 45, 64
1, 68552, Note_off_c, 0, 33, 56
1, 68627, Note_on_c, 0, 38, 94
1, 68661, Control_c, 0, 64, 52
1, 68676, Note_off_c, 0, 38, 64
1, 68676, Control_c, 0, 64, 78
1, 68691, Control_c, 0, 64, 89
1, 68706, Control_c, 0, 64, 94
1, 68716, Note_off_c, 0, 65, 57
1, 68736, Control_c, 0, 64, 93
1, 68751, Control_c, 0, 64, 91
1, 68766, Control_c, 0, 64, 89
1, 68781, Note_on_c, 0, 55, 81
1, 68781, Control_c, 0, 64, 88
1, 68795, Control_c, 0, 64, 87
1, 68805, Note_off_c, 0, 55, 68
1, 68810, Control_c, 0, 64, 84
1, 68819, Note_off_c, 0, 74, 61
1, 68825, Control_c, 0, 64, 78
1, 68840, Control_c, 0, 64, 68
1, 68855, Control_c, 0, 64, 43
1, 68859, Note_on_c, 0, 73, 91
1, 68869, Control_c, 0, 64, 0
1, 68871, Note_on_c, 0, 64, 75
1, 68898, Note_off_c, 0, 64, 68
1, 68951, Note_off_c, 0, 73, 61
1, 68978, Note_on_c, 0, 76, 93
1, 68993, Note_on_c, 0, 62, 67
1, 69001, Note_on_c, 0, 64, 58
1, 69019, Note_off_c, 0, 62, 60
1, 69022, Note_off_c, 0, 64, 63
1, 69064, Note_off_c, 0, 76, 61
1, 69073, Note_on_c, 0, 42, 91
1, 69076, Note_on_c, 0, 30, 81
1, 69106, Note_off_c, 0, 30, 66
1, 69113, Note_off_c, 0, 42, 62
1, 69113, Control_c, 0, 64, 21
1, 69128, Control_c, 0, 64, 78
1, 69142, Control_c, 0, 64, 83
1, 69157, Control_c, 0, 64, 82
1, 69172, Control_c, 0, 64, 75
1, 69175, Note_on_c, 0, 81, 84
1, 69183, Note_on_c, 0, 71, 76
1, 69186, Control_c, 0, 64, 65
1, 69201, Control_c, 0, 64, 0
1, 69228, Note_off_c, 0, 71, 60
1, 69257, Note_on_c, 0, 54, 73
1, 69284, Note_off_c, 0, 54, 69
1, 69310, Note_off_c, 0, 81, 62
1, 69340, Note_on_c, 0, 78, 84
1, 69346, Note_on_c, 0, 69, 70
1, 69371, Note_off_c, 0, 69, 68
1, 69392, Note_on_c, 0, 47, 77
1, 69394, Note_off_c, 0, 78, 62
1, 69420, Note_off_c, 0, 47, 70
1, 69497, Note_on_c, 0, 83, 96
1, 69505, Note_on_c, 0, 74, 86
1, 69514, Control_c, 0, 64, 79
1, 69529, Control_c, 0, 64, 114
1, 69539, Note_off_c, 0, 74, 62
1, 69542, Note_off_c, 0, 83, 67
1, 69544, Control_c, 0, 64, 127
1, 69604, Note_on_c, 0, 28, 80
1, 69636, Note_off_c, 0, 28, 61
1, 69724, Note_on_c, 0, 75, 88
1, 69729, Control_c, 0, 64, 109
1, 69744, Control_c, 0, 64, 84
1, 69751, Note_on_c, 0, 69, 58
1, 69759, Control_c, 0, 64, 62
1, 69773, Note_off_c, 0, 69, 61
1, 69773, Control_c, 0, 64, 0
1, 69775, Note_off_c, 0, 75, 61
1, 69807, Note_on_c, 0, 45, 78
1, 69822, Note_on_c, 0, 67, 84
1, 69822, Note_on_c, 0, 76, 83
1, 69846, Note_off_c, 0, 45, 64
1, 69858, Note_off_c, 0, 76, 64
1, 69863, Note_off_c, 0, 67, 58
1, 69951, Note_on_c, 0, 43, 87
1, 69953, Note_on_c, 0, 31, 75
1, 69980, Control_c, 0, 64, 74
1, 69982, Note_off_c, 0, 31, 63
1, 69990, Note_off_c, 0, 43, 65
1, 69995, Control_c, 0, 64, 76
1, 70010, Control_c, 0, 64, 71
1, 70024, Control_c, 0, 64, 58
1, 70039, Control_c, 0, 64, 0
1, 70042, Note_on_c, 0, 73, 96
1, 70046, Note_on_c, 0, 69, 80
1, 70119, Note_on_c, 0, 55, 72
1, 70146, Note_on_c, 0, 53, 56
1, 70153, Note_off_c, 0, 55, 62
1, 70171, Note_off_c, 0, 53, 61
1, 70223, Note_off_c, 0, 73, 54
1, 70238, Note_off_c, 0, 69, 57
1, 70239, Note_on_c, 0, 45, 86
1, 70269, Note_off_c, 0, 45, 68
1, 70316, Note_on_c, 0, 74, 87
1, 70322, Note_on_c, 0, 65, 81
1, 70351, Note_off_c, 0, 65, 65
1, 70405, Note_on_c, 0, 72, 92
1, 70412, Note_on_c, 0, 64, 83
1, 70426, Note_off_c, 0, 74, 65
1, 70480, Note_off_c, 0, 64, 62
1, 70501, Note_on_c, 0, 38, 100
1, 70504, Note_off_c, 0, 72, 59
1, 70507, Note_on_c, 0, 26, 79
1, 70533, Note_off_c, 0, 26, 64
1, 70545, Note_off_c, 0, 38, 66
1, 70552, Control_c, 0, 64, 64
1, 70566, Control_c, 0, 64, 82
1, 70581, Control_c, 0, 64, 97
1, 70596, Control_c, 0, 64, 106
1, 70611, Control_c, 0, 64, 105
1, 70613, Note_on_c, 0, 62, 85
1, 70613, Note_on_c, 0, 71, 93
1, 70638, Note_off_c, 0, 62, 64
1, 70640, Control_c, 0, 64, 104
1, 70654, Note_off_c, 0, 71, 66
1, 70655, Control_c, 0, 64, 103
1, 70670, Control_c, 0, 64, 100
1, 70685, Note_on_c, 0, 49, 23
1, 70685, Control_c, 0, 64, 95
1, 70700, Control_c, 0, 64, 84
1, 70714, Control_c, 0, 64, 69
1, 70724, Note_off_c, 0, 49, 48
1, 70729, Control_c, 0, 64, 0
1, 70736, Note_on_c, 0, 53, 89
1, 70739, Note_on_c, 0, 41, 85
1, 70777, Note_off_c, 0, 53, 66
1, 70789, Note_off_c, 0, 41, 62
1, 70827, Note_on_c, 0, 76, 81
1, 70831, Note_on_c, 0, 66, 81
1, 70860, Note_off_c, 0, 66, 64
1, 70877, Control_c, 0, 64, 53
1, 70886, Note_off_c, 0, 76, 56
1, 70892, Control_c, 0, 64, 71
1, 70907, Control_c, 0, 64, 75
1, 70915, Note_on_c, 0, 79, 86
1, 70921, Note_on_c, 0, 67, 72
1, 70921, Control_c, 0, 64, 75
1, 70936, Control_c, 0, 64, 71
1, 70948, Note_off_c, 0, 67, 63
1, 70951, Control_c, 0, 64, 56
1, 70955, Note_off_c, 0, 79, 62
1, 70966, Control_c, 0, 64, 0
1, 71003, Note_on_c, 0, 52, 89
1, 71004, Note_on_c, 0, 40, 83
1, 71042, Note_off_c, 0, 52, 62
1, 71050, Note_off_c, 0, 40, 62
1, 71100, Note_on_c, 0, 83, 93
1, 71105, Note_on_c, 0, 74, 91
1, 71172, Note_on_c, 0, 81, 81
1, 71175, Note_on_c, 0, 79, 82
1, 71177, Note_off_c, 0, 83, 66
1, 71189, Note_off_c, 0, 74, 61
1, 71216, Note_off_c, 0, 79, 57
1, 71231, Note_off_c, 0, 81, 63
1, 71296, Note_on_c, 0, 51, 95
1, 71302, Note_on_c, 0, 39, 82
1, 71330, Note_off_c, 0, 39, 68
1, 71331, Control_c, 0, 64, 61
1, 71336, Note_off_c, 0, 51, 67
1, 71345, Control_c, 0, 64, 78
1, 71360, Control_c, 0, 64, 79
1, 71375, Control_c, 0, 64, 76
1, 71383, Note_on_c, 0, 86, 92
1, 71384, Note_on_c, 0, 78, 85
1, 71389, Control_c, 0, 64, 68
1, 71390, Poly_aftertouch_c, 0, 42, 127
1, 71404, Control_c, 0, 64, 54
1, 71419, Poly_aftertouch_c, 0, 42, 0
1, 71419, Control_c, 0, 64, 0
1, 71491, Note_on_c, 0, 50, 90
1, 71494, Note_on_c, 0, 38, 85
1, 71539, Note_off_c, 0, 50, 65
1, 71565, Note_off_c, 0, 38, 48
1, 71633, Note_off_c, 0, 78, 61
1, 71646, Note_off_c, 0, 86, 62
1, 71681, Note_on_c, 0, 48, 96
1, 71686, Note_on_c, 0, 36, 86
1, 71717, Note_off_c, 0, 48, 65
1, 71724, Note_off_c, 0, 36, 63
1, 71789, Note_on_c, 0, 84, 95
1, 71794, Note_on_c, 0, 74, 88
1, 71820, Note_off_c, 0, 74, 66
1, 71876, Note_on_c, 0, 83, 92
1, 71881, Note_on_c, 0, 75, 87
1, 71899, Note_off_c, 0, 84, 64
1, 71909, Control_c, 0, 64, 73
1, 71924, Control_c, 0, 64, 88
1, 71926, Poly_aftertouch_c, 0, 36, 0
1, 71944, Note_on_c, 0, 31, 81
1, 71944, Note_on_c, 0, 43, 97
1, 71947, Control_c, 0, 64, 107
1, 71953, Note_off_c, 0, 75, 59
1, 71961, Control_c, 0, 64, 112
1, 71968, Note_off_c, 0, 31, 65
1, 71982, Note_off_c, 0, 43, 67
1, 71991, Control_c, 0, 64, 110
1, 72006, Control_c, 0, 64, 98
1, 72020, Control_c, 0, 64, 83
1, 72035, Control_c, 0, 64, 65
1, 72050, Control_c, 0, 64, 0
1, 72069, Note_off_c, 0, 83, 60
1, 72084, Note_on_c, 0, 79, 87
1, 72086, Note_on_c, 0, 76, 84
1, 72130, Note_off_c, 0, 79, 62
1, 72132, Note_off_c, 0, 76, 61
1, 72199, Note_on_c, 0, 62, 74
1, 72200, Note_on_c, 0, 59, 80
1, 72224, Note_off_c, 0, 62, 68
1, 72226, Note_off_c, 0, 59, 66
1, 72287, Control_c, 0, 64, 65
1, 72302, Control_c, 0, 64, 76
1, 72302, Note_on_c, 0, 81, 75
1, 72307, Note_on_c, 0, 71, 76
1, 72316, Control_c, 0, 64, 80
1, 72331, Control_c, 0, 64, 77
1, 72346, Control_c, 0, 64, 67
1, 72361, Control_c, 0, 64, 0
1, 72408, Note_on_c, 0, 54, 82
1, 72419, Note_off_c, 0, 81, 55
1, 72423, Note_off_c, 0, 71, 62
1, 72434, Note_off_c, 0, 54, 70
1, 72447, Note_on_c, 0, 57, 18
1, 72471, Note_on_c, 0, 59, 4
1, 72472, Note_off_c, 0, 59, 127
1, 72492, Note_off_c, 0, 57, 28
1, 72506, Note_on_c, 0, 74, 78
1, 72510, Note_on_c, 0, 72, 67
1, 72569, Note_off_c, 0, 72, 48
1, 72573, Note_off_c, 0, 74, 62
1, 72583, Note_on_c, 0, 77, 84
1, 72588, Note_on_c, 0, 71, 79
1, 72620, Note_off_c, 0, 71, 59
1, 72627, Control_c, 0, 64, 71
1, 72642, Control_c, 0, 64, 80
1, 72647, Note_off_c, 0, 77, 58
1, 72656, Note_on_c, 0, 50, 93
1, 72657, Control_c, 0, 64, 83
1, 72663, Note_on_c, 0, 38, 74
1, 72672, Control_c, 0, 64, 83
1, 72694, Control_c, 0, 64, 79
1, 72695, Note_off_c, 0, 38, 68
1, 72706, Note_off_c, 0, 50, 69
1, 72709, Control_c, 0, 64, 70
1, 72725, Control_c, 0, 64, 0
1, 72795, Note_on_c, 0, 76, 87
1, 72799, Note_on_c, 0, 67, 79
1, 72908, Note_on_c, 0, 55, 82
1, 72913, Note_on_c, 0, 59, 71
1, 72928, Note_off_c, 0, 67, 59
1, 72933, Note_off_c, 0, 55, 69
1, 72933, Note_off_c, 0, 59, 65
1, 72951, Note_off_c, 0, 76, 63
1, 73041, Note_on_c, 0, 48, 96
1, 73047, Note_on_c, 0, 36, 82
1, 73065, Control_c, 0, 64, 70
1, 73080, Control_c, 0, 64, 88
1, 73083, Note_off_c, 0, 36, 63
1, 73085, Note_off_c, 0, 48, 64
1, 73095, Control_c, 0, 64, 119
1, 73109, Control_c, 0, 64, 127
1, 73120, Note_on_c, 0, 75, 79
1, 73120, Note_on_c, 0, 79, 84
1, 73124, Control_c, 0, 64, 108
1, 73139, Control_c, 0, 64, 84
1, 73149, Note_off_c, 0, 79, 61
1, 73154, Note_off_c, 0, 75, 62
1, 73154, Control_c, 0, 64, 17
1, 73169, Control_c, 0, 64, 0
1, 73199, Note_on_c, 0, 84, 91
1, 73201, Note_on_c, 0, 76, 84
1, 73242, Note_off_c, 0, 76, 63
1, 73261, Note_off_c, 0, 84, 64
1, 73262, Poly_aftertouch_c, 0, 38, 0
1, 73301, Note_on_c, 0, 47, 101
1, 73309, Note_on_c, 0, 35, 75
1, 73332, Control_c, 0, 64, 74
1, 73333, Note_off_c, 0, 35, 64
1, 73341, Note_off_c, 0, 47, 69
1, 73347, Control_c, 0, 64, 98
1, 73361, Control_c, 0, 64, 127
1, 73377, Note_on_c, 0, 78, 90
1, 73377, Note_on_c, 0, 88, 90
1, 73397, Note_off_c, 0, 78, 68
1, 73411, Note_off_c, 0, 88, 61
1, 73469, Note_on_c, 0, 83, 83
1, 73470, Note_on_c, 0, 79, 88
1, 73472, Control_c, 0, 64, 110
1, 73487, Control_c, 0, 64, 99
1, 73502, Control_c, 0, 64, 91
1, 73517, Note_off_c, 0, 79, 59
1, 73518, Control_c, 0, 64, 85
1, 73533, Control_c, 0, 64, 77
1, 73536, Note_off_c, 0, 83, 63
1, 73547, Control_c, 0, 64, 63
1, 73559, Note_on_c, 0, 60, 83
1, 73561, Note_on_c, 0, 57, 81
1, 73562, Control_c, 0, 64, 0
1, 73580, Note_off_c, 0, 60, 71
1, 73593, Note_off_c, 0, 57, 64
1, 73679, Note_on_c, 0, 81, 98
1, 73685, Note_on_c, 0, 77, 92
1, 73813, Note_on_c, 0, 45, 97
1, 73823, Note_on_c, 0, 33, 77
1, 73835, Note_off_c, 0, 77, 60
1, 73843, Control_c, 0, 64, 70
1, 73844, Note_off_c, 0, 81, 58
1, 73851, Note_off_c, 0, 33, 63
1, 73858, Note_off_c, 0, 45, 68
1, 73858, Control_c, 0, 64, 93
1, 73872, Control_c, 0, 64, 127
1, 73913, Note_on_c, 0, 83, 103
1, 73921, Note_on_c, 0, 76, 85
1, 73951, Note_off_c, 0, 76, 61
1, 73975, Note_off_c, 0, 83, 61
1, 74006, Control_c, 0, 64, 113
1, 74013, Note_on_c, 0, 84, 98
1, 74018, Note_on_c, 0, 74, 92
1, 74021, Control_c, 0, 64, 90
1, 74036, Control_c, 0, 64, 69
1, 74050, Control_c, 0, 64, 0
1, 74090, Note_on_c, 0, 66, 89
1, 74096, Note_on_c, 0, 62, 80
1, 74108, Note_off_c, 0, 66, 73
1, 74121, Note_off_c, 0, 62, 67
1, 74163, Note_off_c, 0, 74, 65
1, 74171, Note_off_c, 0, 84, 56
1, 74237, Note_on_c, 0, 72, 91
1, 74237, Note_on_c, 0, 81, 105
1, 74355, Note_on_c, 0, 43, 105
1, 74358, Note_on_c, 0, 31, 80
1, 74382, Note_off_c, 0, 31, 65
1, 74388, Note_off_c, 0, 72, 0
1, 74398, Note_off_c, 0, 43, 68
1, 74400, Control_c, 0, 64, 66
1, 74415, Control_c, 0, 64, 83
1, 74425, Poly_aftertouch_c, 0, 72, 127
1, 74430, Control_c, 0, 64, 97
1, 74445, Control_c, 0, 64, 99
1, 74448, Poly_aftertouch_c, 0, 72, 0
1, 74455, Note_off_c, 0, 81, 54
1, 74475, Control_c, 0, 64, 98
1, 74489, Control_c, 0, 64, 97
1, 74504, Control_c, 0, 64, 92
1, 74519, Control_c, 0, 64, 81
1, 74534, Control_c, 0, 64, 63
1, 74540, Note_on_c, 0, 83, 99
1, 74542, Note_on_c, 0, 71, 88
1, 74549, Control_c, 0, 64, 0
1, 74577, Note_on_c, 0, 72, 46
1, 74578, Note_off_c, 0, 72, 127
1, 74637, Note_on_c, 0, 67, 84
1, 74639, Note_on_c, 0, 64, 89
1, 74652, Control_c, 0, 64, 53
1, 74656, Note_off_c, 0, 67, 71
1, 74667, Control_c, 0, 64, 80
1, 74674, Note_off_c, 0, 64, 63
1, 74681, Control_c, 0, 64, 106
1, 74696, Control_c, 0, 64, 127
1, 74760, Note_off_c, 0, 71, 58
1, 74800, Control_c, 0, 64, 113
1, 74814, Control_c, 0, 64, 75
1, 74829, Control_c, 0, 64, 0
1, 74831, Note_off_c, 0, 83, 62
1, 74857, Note_on_c, 0, 41, 99
1, 74865, Note_on_c, 0, 29, 91
1, 74874, Control_c, 0, 64, 59
1, 74889, Control_c, 0, 64, 70
1, 74896, Poly_aftertouch_c, 0, 34, 0
1, 74904, Control_c, 0, 64, 84
1, 74919, Control_c, 0, 64, 127
1, 74940, Note_off_c, 0, 41, 59
1, 74968, Note_off_c, 0, 29, 62
1, 74973, Poly_aftertouch_c, 0, 32, 127
1, 74985, Control_c, 0, 64, 75
1, 75000, Control_c, 0, 64, 0
1, 75014, Poly_aftertouch_c, 0, 85, 0
1, 75021, Note_on_c, 0, 40, 99
1, 75028, Poly_aftertouch_c, 0, 32, 0
1, 75032, Note_on_c, 0, 28, 86
1, 75038, Poly_aftertouch_c, 0, 32, 0
1, 75057, Note_off_c, 0, 28, 63
1, 75059, Control_c, 0, 64, 57
1, 75074, Note_off_c, 0, 40, 67
1, 75074, Control_c, 0, 64, 76
1, 75089, Control_c, 0, 64, 100
1, 75104, Control_c, 0, 64, 127
1, 75112, Note_on_c, 0, 85, 97
1, 75115, Note_on_c, 0, 79, 96
1, 75149, Control_c, 0, 64, 84
1, 75163, Control_c, 0, 64, 0
1, 75259, Note_on_c, 0, 62, 78
1, 75260, Note_on_c, 0, 65, 94
1, 75260, Note_off_c, 0, 79, 51
1, 75282, Control_c, 0, 64, 59
1, 75288, Note_off_c, 0, 85, 60
1, 75292, Note_off_c, 0, 65, 63
1, 75297, Control_c, 0, 64, 78
1, 75305, Note_off_c, 0, 62, 64
1, 75312, Control_c, 0, 64, 102
1, 75327, Control_c, 0, 64, 127
1, 75336, Note_on_c, 0, 86, 89
1, 75339, Note_on_c, 0, 82, 89
1, 75381, Note_off_c, 0, 86, 66
1, 75382, Note_off_c, 0, 82, 63
1, 75416, Control_c, 0, 64, 98
1, 75430, Control_c, 0, 64, 68
1, 75436, Poly_aftertouch_c, 0, 85, 0
1, 75445, Note_on_c, 0, 90, 82
1, 75445, Control_c, 0, 64, 0
1, 75450, Note_on_c, 0, 42, 26
1, 75452, Note_on_c, 0, 81, 75
1, 75473, Note_off_c, 0, 81, 67
1, 75476, Note_off_c, 0, 90, 64
1, 75490, Note_off_c, 0, 42, 53
1, 75503, Poly_aftertouch_c, 0, 44, 127
1, 75529, Poly_aftertouch_c, 0, 44, 0
1, 75551, Note_on_c, 0, 50, 94
1, 75553, Note_on_c, 0, 38, 75
1, 75582, Note_off_c, 0, 38, 64
1, 75592, Note_off_c, 0, 50, 65
1, 75593, Control_c, 0, 64, 68
1, 75608, Control_c, 0, 64, 85
1, 75622, Note_on_c, 0, 88, 97
1, 75623, Control_c, 0, 64, 106
1, 75633, Note_on_c, 0, 74, 77
1, 75637, Control_c, 0, 64, 122
1, 75642, Note_on_c, 0, 76, 61
1, 75656, Note_off_c, 0, 74, 71
1, 75661, Note_off_c, 0, 88, 62
1, 75665, Note_off_c, 0, 76, 56
1, 75715, Note_on_c, 0, 54, 87
1, 75718, Note_on_c, 0, 57, 82
1, 75743, Note_off_c, 0, 57, 67
1, 75757, Note_off_c, 0, 54, 68
1, 75778, Control_c, 0, 64, 117
1, 75793, Control_c, 0, 64, 108
1, 75808, Control_c, 0, 64, 99
1, 75820, Note_on_c, 0, 76, 90
1, 75823, Control_c, 0, 64, 87
1, 75837, Control_c, 0, 64, 70
1, 75838, Note_on_c, 0, 72, 61
1, 75852, Control_c, 0, 64, 0
1, 75864, Note_off_c, 0, 76, 64
1, 75864, Note_off_c, 0, 72, 65
1, 75877, Note_on_c, 0, 48, 92
1, 75883, Note_on_c, 0, 36, 77
1, 75910, Note_off_c, 0, 36, 64
1, 75923, Note_off_c, 0, 48, 66
1, 75989, Note_on_c, 0, 78, 82
1, 75991, Note_on_c, 0, 70, 78
1, 76018, Note_off_c, 0, 70, 63
1, 76020, Note_off_c, 0, 78, 60
1, 76076, Note_on_c, 0, 81, 81
1, 76081, Note_on_c, 0, 69, 70
1, 76095, Note_off_c, 0, 81, 69
1, 76099, Note_off_c, 0, 69, 67
1, 76165, Note_on_c, 0, 53, 79
1, 76169, Note_on_c, 0, 41, 59
1, 76195, Note_off_c, 0, 53, 68
1, 76197, Note_off_c, 0, 41, 57
1, 76244, Note_on_c, 0, 74, 71
1, 76252, Note_on_c, 0, 76, 66
1, 76290, Note_off_c, 0, 74, 63
1, 76293, Note_off_c, 0, 76, 50
1, 76321, Note_on_c, 0, 78, 71
1, 76335, Note_on_c, 0, 72, 58
1, 76353, Note_off_c, 0, 78, 59
1, 76356, Note_off_c, 0, 72, 64
1, 76402, Note_on_c, 0, 64, 61
1, 76410, Note_on_c, 0, 60, 60
1, 76431, Note_off_c, 0, 64, 64
1, 76446, Note_off_c, 0, 60, 66
1, 76495, Note_on_c, 0, 81, 88
1, 76496, Control_c, 0, 64, 61
1, 76501, Note_on_c, 0, 71, 80
1, 76511, Control_c, 0, 64, 75
1, 76525, Control_c, 0, 64, 80
1, 76540, Control_c, 0, 64, 80
1, 76543, Note_on_c, 0, 79, 23
1, 76544, Note_off_c, 0, 79, 127
1, 76555, Control_c, 0, 64, 76
1, 76570, Control_c, 0, 64, 70
1, 76573, Note_on_c, 0, 76, 80
1, 76577, Note_on_c, 0, 73, 79
1, 76580, Note_off_c, 0, 81, 65
1, 76585, Control_c, 0, 64, 57
1, 76587, Note_off_c, 0, 71, 64
1, 76599, Note_off_c, 0, 73, 69
1, 76600, Control_c, 0, 64, 0
1, 76601, Note_off_c, 0, 76, 64
1, 76623, Note_on_c, 0, 49, 78
1, 76631, Note_on_c, 0, 37, 66
1, 76650, Note_off_c, 0, 49, 67
1, 76660, Note_off_c, 0, 37, 65
1, 76740, Note_on_c, 0, 81, 80
1, 76754, Note_on_c, 0, 77, 63
1, 76808, Note_off_c, 0, 81, 62
1, 76823, Note_off_c, 0, 77, 48
1, 76829, Note_on_c, 0, 85, 80
1, 76833, Note_on_c, 0, 80, 72
1, 76860, Note_off_c, 0, 80, 62
1, 76892, Note_off_c, 0, 85, 63
1, 76903, Note_on_c, 0, 57, 65
1, 76906, Note_on_c, 0, 53, 66
1, 76930, Note_off_c, 0, 57, 64
1, 76934, Note_off_c, 0, 53, 68
1, 76986, Note_on_c, 0, 83, 92
1, 76986, Control_c, 0, 64, 64
1, 76993, Note_on_c, 0, 81, 84
1, 77000, Control_c, 0, 64, 56
1, 77015, Control_c, 0, 64, 0
1, 77028, Note_off_c, 0, 81, 64
1, 77044, Note_off_c, 0, 83, 66
1, 77068, Note_on_c, 0, 88, 98
1, 77073, Note_on_c, 0, 79, 86
1, 77092, Note_off_c, 0, 79, 68
1, 77109, Note_off_c, 0, 88, 65
1, 77121, Note_on_c, 0, 48, 83
1, 77124, Note_on_c, 0, 36, 68
1, 77157, Note_off_c, 0, 36, 61
1, 77161, Note_off_c, 0, 48, 63
1, 77239, Note_on_c, 0, 86, 94
1, 77243, Note_on_c, 0, 78, 88
1, 77312, Note_on_c, 0, 59, 78
1, 77316, Note_on_c, 0, 55, 79
1, 77333, Note_off_c, 0, 59, 69
1, 77341, Note_off_c, 0, 55, 68
1, 77444, Note_on_c, 0, 47, 97
1, 77450, Note_on_c, 0, 35, 85
1, 77468, Control_c, 0, 64, 51
1, 77473, Note_off_c, 0, 35, 66
1, 77482, Control_c, 0, 64, 91
1, 77485, Note_off_c, 0, 47, 70
1, 77492, Note_off_c, 0, 78, 61
1, 77498, Control_c, 0, 64, 127
1, 77550, Note_off_c, 0, 86, 64
1, 77631, Control_c, 0, 64, 108
1, 77646, Control_c, 0, 64, 85
1, 77661, Control_c, 0, 64, 65
1, 77676, Control_c, 0, 64, 0
1, 77706, Note_on_c, 0, 90, 100
1, 77710, Note_on_c, 0, 80, 97
1, 77738, Note_on_c, 0, 87, 48
1, 77763, Note_off_c, 0, 87, 37
1, 77780, Control_c, 0, 64, 74
1, 77795, Control_c, 0, 64, 94
1, 77809, Note_off_c, 0, 90, 64
1, 77810, Control_c, 0, 64, 127
1, 77810, Note_on_c, 0, 58, 98
1, 77818, Note_on_c, 0, 54, 85
1, 77840, Note_off_c, 0, 80, 60
1, 77843, Note_off_c, 0, 58, 66
1, 77858, Note_off_c, 0, 54, 66
1, 77940, Note_on_c, 0, 82, 105
1, 77941, Note_on_c, 0, 88, 89
1, 77959, Note_on_c, 0, 87, 39
1, 77965, Control_c, 0, 64, 78
1, 77980, Control_c, 0, 64, 0
1, 77980, Note_off_c, 0, 87, 37
1, 77987, Note_off_c, 0, 82, 63
1, 78026, Note_on_c, 0, 86, 94
1, 78033, Note_on_c, 0, 83, 86
1, 78054, Note_off_c, 0, 88, 57
1, 78070, Control_c, 0, 64, 65
1, 78084, Control_c, 0, 64, 71
1, 78089, Note_on_c, 0, 43, 99
1, 78095, Poly_aftertouch_c, 0, 37, 0
1, 78096, Note_on_c, 0, 31, 85
1, 78099, Control_c, 0, 64, 69
1, 78114, Control_c, 0, 64, 0
1, 78119, Note_off_c, 0, 31, 66
1, 78125, Note_on_c, 0, 34, 40
1, 78133, Note_off_c, 0, 43, 67
1, 78162, Note_off_c, 0, 34, 52
1, 78207, Note_off_c, 0, 83, 45
1, 78218, Control_c, 0, 64, 68
1, 78224, Note_off_c, 0, 86, 56
1, 78232, Control_c, 0, 64, 79
1, 78245, Note_on_c, 0, 89, 100
1, 78247, Control_c, 0, 64, 88
1, 78249, Note_on_c, 0, 81, 93
1, 78262, Control_c, 0, 64, 92
1, 78284, Note_off_c, 0, 89, 65
1, 78287, Note_on_c, 0, 86, 6
1, 78287, Note_off_c, 0, 81, 66
1, 78323, Control_c, 0, 64, 90
1, 78336, Note_on_c, 0, 64, 91
1, 78337, Note_on_c, 0, 60, 69
1, 78337, Control_c, 0, 64, 80
1, 78341, Note_off_c, 0, 86, 50
1, 78352, Control_c, 0, 64, 0
1, 78356, Note_off_c, 0, 64, 71
1, 78359, Note_on_c, 0, 57, 53
1, 78374, Note_off_c, 0, 60, 64
1, 78385, Note_off_c, 0, 57, 38
1, 78455, Control_c, 0, 64, 66
1, 78468, Note_on_c, 0, 84, 95
1, 78470, Note_on_c, 0, 76, 94
1, 78470, Control_c, 0, 64, 72
1, 78485, Control_c, 0, 64, 68
1, 78500, Control_c, 0, 64, 0
1, 78556, Note_off_c, 0, 84, 59
1, 78558, Poly_aftertouch_c, 0, 34, 127
1, 78567, Note_on_c, 0, 41, 97
1, 78573, Control_c, 0, 64, 70
1, 78579, Note_on_c, 0, 29, 70
1, 78588, Control_c, 0, 64, 91
1, 78590, Poly_aftertouch_c, 0, 34, 0
1, 78594, Note_on_c, 0, 28, 40
1, 78595, Note_on_c, 0, 40, 43
1, 78596, Note_off_c, 0, 40, 127
1, 78600, Note_off_c, 0, 76, 60
1, 78603, Control_c, 0, 64, 127
1, 78612, Note_off_c, 0, 41, 66
1, 78613, Note_off_c, 0, 29, 62
1, 78630, Poly_aftertouch_c, 0, 40, 0
1, 78637, Note_off_c, 0, 28, 49
1, 78652, Note_on_c, 0, 75, 96
1, 78654, Note_on_c, 0, 81, 94
1, 78679, Poly_aftertouch_c, 0, 32, 0
1, 78685, Control_c, 0, 64, 92
1, 78699, Control_c, 0, 64, 69
1, 78703, Note_off_c, 0, 75, 57
1, 78714, Control_c, 0, 64, 0
1, 78738, Note_on_c, 0, 77, 86
1, 78739, Note_on_c, 0, 74, 90
1, 78752, Note_off_c, 0, 81, 66
1, 78793, Note_off_c, 0, 74, 61
1, 78819, Note_on_c, 0, 46, 99
1, 78824, Note_on_c, 0, 34, 89
1, 78833, Control_c, 0, 64, 62
1, 78848, Note_off_c, 0, 34, 68
1, 78848, Control_c, 0, 64, 89
1, 78855, Note_off_c, 0, 77, 59
1, 78859, Note_off_c, 0, 46, 66
1, 78862, Control_c, 0, 64, 127
1, 78892, Control_c, 0, 64, 100
1, 78907, Control_c, 0, 64, 75
1, 78922, Control_c, 0, 64, 0
1, 78940, Note_on_c, 0, 79, 100
1, 78944, Note_on_c, 0, 71, 86
1, 79068, Note_on_c, 0, 65, 79
1, 79069, Note_on_c, 0, 62, 70
1, 79085, Control_c, 0, 64, 62
1, 79089, Note_off_c, 0, 65, 71
1, 79098, Note_off_c, 0, 62, 67
1, 79101, Control_c, 0, 64, 74
1, 79116, Control_c, 0, 64, 84
1, 79130, Control_c, 0, 64, 86
1, 79134, Note_off_c, 0, 71, 40
1, 79160, Control_c, 0, 64, 84
1, 79161, Note_off_c, 0, 79, 46
1, 79175, Control_c, 0, 64, 74
1, 79190, Control_c, 0, 64, 0
1, 79235, Note_on_c, 0, 50, 93
1, 79243, Note_on_c, 0, 38, 78
1, 79267, Note_off_c, 0, 38, 66
1, 79278, Control_c, 0, 64, 73
1, 79281, Note_off_c, 0, 50, 70
1, 79293, Control_c, 0, 64, 106
1, 79308, Control_c, 0, 64, 127
1, 79325, Note_on_c, 0, 78, 90
1, 79329, Note_on_c, 0, 74, 87
1, 79351, Note_off_c, 0, 74, 69
1, 79352, Control_c, 0, 64, 93
1, 79362, Note_off_c, 0, 78, 64
1, 79367, Control_c, 0, 64, 55
1, 79382, Control_c, 0, 64, 0
1, 79405, Note_on_c, 0, 81, 78
1, 79416, Note_on_c, 0, 77, 64
1, 79428, Note_on_c, 0, 79, 59
1, 79441, Note_off_c, 0, 77, 66
1, 79450, Note_off_c, 0, 79, 37
1, 79455, Note_off_c, 0, 81, 65
1, 79480, Note_on_c, 0, 67, 97
1, 79482, Note_on_c, 0, 64, 97
1, 79492, Control_c, 0, 64, 65
1, 79507, Control_c, 0, 64, 94
1, 79508, Note_off_c, 0, 67, 65
1, 79521, Control_c, 0, 64, 127
1, 79530, Note_off_c, 0, 64, 66
1, 79545, Note_on_c, 0, 78, 92
1, 79548, Note_on_c, 0, 86, 93
1, 79562, Poly_aftertouch_c, 0, 62, 127
1, 79563, Note_off_c, 0, 78, 68
1, 79580, Note_off_c, 0, 86, 59
1, 79599, Poly_aftertouch_c, 0, 62, 0
1, 79629, Note_on_c, 0, 79, 86
1, 79634, Note_on_c, 0, 83, 74
1, 79636, Note_on_c, 0, 81, 80
1, 79650, Note_off_c, 0, 79, 68
1, 79655, Control_c, 0, 64, 101
1, 79666, Note_off_c, 0, 83, 58
1, 79667, Note_off_c, 0, 81, 56
1, 79670, Control_c, 0, 64, 75
1, 79685, Control_c, 0, 64, 0
1, 79813, Note_on_c, 0, 43, 102
1, 79818, Note_on_c, 0, 31, 79
1, 79846, Note_off_c, 0, 31, 62
1, 79853, Note_off_c, 0, 43, 68
1, 79863, Control_c, 0, 64, 81
1, 79877, Control_c, 0, 64, 127
1, 79904, Note_on_c, 0, 74, 97
1, 79905, Note_on_c, 0, 88, 91
1, 79919, Note_on_c, 0, 86, 76
1, 79936, Note_off_c, 0, 86, 72
1, 79937, Note_off_c, 0, 88, 63
1, 79940, Note_on_c, 0, 80, 36
1, 79942, Note_off_c, 0, 74, 66
1, 79953, Note_on_c, 0, 76, 18
1, 79954, Note_off_c, 0, 76, 127
1, 79975, Note_off_c, 0, 80, 56
1, 80008, Poly_aftertouch_c, 0, 76, 0
1, 80056, Control_c, 0, 64, 88
1, 80071, Control_c, 0, 64, 28
1, 80081, Note_on_c, 0, 69, 83
1, 80086, Control_c, 0, 64, 0
1, 80090, Note_on_c, 0, 65, 69
1, 80096, Note_on_c, 0, 64, 71
1, 80100, Note_off_c, 0, 69, 73
1, 80106, Note_on_c, 0, 67, 54
1, 80117, Note_off_c, 0, 65, 68
1, 80125, Note_off_c, 0, 64, 67
1, 80130, Control_c, 0, 64, 64
1, 80132, Note_off_c, 0, 67, 38
1, 80144, Control_c, 0, 64, 75
1, 80159, Control_c, 0, 64, 85
1, 80180, Note_on_c, 0, 80, 95
1, 80182, Control_c, 0, 64, 85
1, 80190, Note_on_c, 0, 72, 77
1, 80197, Control_c, 0, 64, 72
1, 80213, Control_c, 0, 64, 0
1, 80215, Note_off_c, 0, 72, 67
1, 80253, Note_off_c, 0, 80, 47
1, 80266, Note_on_c, 0, 81, 91
1, 80272, Note_on_c, 0, 71, 92
1, 80302, Note_off_c, 0, 81, 67
1, 80306, Note_off_c, 0, 71, 64
1, 80373, Note_on_c, 0, 50, 97
1, 80380, Note_on_c, 0, 38, 76
1, 80407, Note_off_c, 0, 38, 65
1, 80416, Note_off_c, 0, 50, 68
1, 80434, Control_c, 0, 64, 54
1, 80449, Control_c, 0, 64, 82
1, 80464, Control_c, 0, 64, 84
1, 80478, Control_c, 0, 64, 71
1, 80486, Note_on_c, 0, 78, 96
1, 80493, Note_on_c, 0, 69, 83
1, 80493, Control_c, 0, 64, 0
1, 80578, Note_off_c, 0, 69, 54
1, 80597, Control_c, 0, 64, 69
1, 80609, Note_on_c, 0, 64, 84
1, 80610, Note_off_c, 0, 78, 56
1, 80612, Control_c, 0, 64, 93
1, 80614, Note_on_c, 0, 60, 80
1, 80627, Control_c, 0, 64, 127
1, 80629, Note_off_c, 0, 64, 72
1, 80643, Note_off_c, 0, 60, 66
1, 80715, Note_on_c, 0, 79, 86
1, 80718, Note_on_c, 0, 67, 83
1, 80732, Note_off_c, 0, 79, 72
1, 80737, Note_off_c, 0, 67, 71
1, 80806, Note_on_c, 0, 62, 97
1, 80813, Note_on_c, 0, 74, 83
1, 80821, Control_c, 0, 64, 116
1, 80830, Note_off_c, 0, 62, 66
1, 80832, Note_off_c, 0, 74, 73
1, 80836, Control_c, 0, 64, 74
1, 80842, Note_on_c, 0, 72, 46
1, 80843, Note_off_c, 0, 72, 127
1, 80850, Control_c, 0, 64, 0
1, 80902, Note_on_c, 0, 42, 99
1, 80907, Note_on_c, 0, 30, 86
1, 80938, Note_off_c, 0, 30, 65
1, 80962, Note_off_c, 0, 42, 65
1, 80976, Control_c, 0, 64, 78
1, 80991, Control_c, 0, 64, 127
1, 81050, Control_c, 0, 64, 103
1, 81058, Note_on_c, 0, 59, 98
1, 81062, Note_on_c, 0, 71, 94
1, 81065, Control_c, 0, 64, 59
1, 81080, Control_c, 0, 64, 0
1, 81101, Note_on_c, 0, 63, 30
1, 81101, Note_on_c, 0, 42, 6
1, 81104, Note_off_c, 0, 59, 61
1, 81109, Note_on_c, 0, 66, 17
1, 81110, Note_off_c, 0, 66, 127
1, 81111, Note_off_c, 0, 71, 65
1, 81113, Note_on_c, 0, 68, 4
1, 81129, Note_off_c, 0, 42, 53
1, 81135, Note_off_c, 0, 63, 49
1, 81139, Control_c, 0, 64, 55
1, 81154, Control_c, 0, 64, 92
1, 81158, Note_on_c, 0, 47, 97
1, 81160, Note_off_c, 0, 68, 28
1, 81164, Note_on_c, 0, 35, 81
1, 81169, Control_c, 0, 64, 127
1, 81199, Note_off_c, 0, 47, 68
1, 81213, Note_off_c, 0, 35, 63
1, 81241, Poly_aftertouch_c, 0, 37, 127
1, 81245, Note_on_c, 0, 56, 93
1, 81248, Note_on_c, 0, 68, 81
1, 81268, Note_off_c, 0, 68, 72
1, 81272, Control_c, 0, 64, 103
1, 81277, Note_off_c, 0, 56, 64
1, 81280, Note_on_c, 0, 66, 31
1, 81281, Note_off_c, 0, 66, 127
1, 81287, Control_c, 0, 64, 70
1, 81288, Poly_aftertouch_c, 0, 37, 0
1, 81301, Control_c, 0, 64, 0
1, 81329, Note_on_c, 0, 57, 93
1, 81333, Note_on_c, 0, 69, 91
1, 81359, Note_off_c, 0, 57, 65
1, 81360, Note_off_c, 0, 69, 65
1, 81489, Note_on_c, 0, 54, 91
1, 81491, Note_on_c, 0, 66, 87
1, 81517, Note_off_c, 0, 54, 67
1, 81517, Note_off_c, 0, 66, 64
1, 81579, Note_on_c, 0, 45, 93
1, 81587, Note_on_c, 0, 33, 83
1, 81619, Note_off_c, 0, 45, 68
1, 81623, Note_off_c, 0, 33, 62
1, 81644, Control_c, 0, 64, 68
1, 81659, Control_c, 0, 64, 88
1, 81662, Note_on_c, 0, 47, 83
1, 81680, Control_c, 0, 64, 127
1, 81682, Note_on_c, 0, 59, 71
1, 81693, Note_off_c, 0, 47, 68
1, 81709, Note_off_c, 0, 59, 64
1, 81724, Control_c, 0, 64, 104
1, 81739, Control_c, 0, 64, 73
1, 81754, Control_c, 0, 64, 0
1, 81757, Note_on_c, 0, 52, 95
1, 81760, Poly_aftertouch_c, 0, 48, 0
1, 81774, Note_on_c, 0, 62, 64
1, 81778, Note_on_c, 0, 64, 65
1, 81781, Note_off_c, 0, 52, 70
1, 81787, Note_on_c, 0, 61, 54
1, 81788, Note_off_c, 0, 61, 127
1, 81794, Note_off_c, 0, 62, 64
1, 81798, Note_off_c, 0, 64, 64
1, 81814, Control_c, 0, 64, 77
1, 81828, Control_c, 0, 64, 127
1, 81832, Note_on_c, 0, 44, 104
1, 81834, Note_on_c, 0, 32, 90
1, 81874, Note_off_c, 0, 32, 65
1, 81894, Note_off_c, 0, 44, 66
1, 81918, Control_c, 0, 64, 105
1, 81932, Control_c, 0, 64, 88
1, 81947, Control_c, 0, 64, 72
1, 81948, Poly_aftertouch_c, 0, 42, 0
1, 81962, Control_c, 0, 64, 32
1, 81977, Control_c, 0, 64, 0
1, 82047, Note_on_c, 0, 62, 88
1, 82095, Control_c, 0, 64, 11
1, 82100, Note_off_c, 0, 62, 63
1, 82110, Control_c, 0, 64, 30
1, 82112, Note_on_c, 0, 49, 77
1, 82139, Control_c, 0, 64, 0
1, 82154, Note_off_c, 0, 49, 63
1, 82182, Note_on_c, 0, 42, 90
1, 82222, Note_on_c, 0, 61, 103
1, 82238, Note_off_c, 0, 42, 60
1, 82243, Control_c, 0, 64, 65
1, 82249, Note_off_c, 0, 61, 62
1, 82258, Control_c, 0, 64, 76
1, 82273, Control_c, 0, 64, 81
1, 82303, Control_c, 0, 64, 78
1, 82318, Control_c, 0, 64, 74
1, 82333, Control_c, 0, 64, 66
1, 82347, Control_c, 0, 64, 0
1, 82397, Note_on_c, 0, 50, 91
1, 82459, Control_c, 0, 64, 59
1, 82465, Note_off_c, 0, 50, 60
1, 82474, Control_c, 0, 64, 72
1, 82480, Note_on_c, 0, 57, 103
1, 82489, Control_c, 0, 64, 81
1, 82503, Control_c, 0, 64, 82
1, 82511, Note_off_c, 0, 57, 69
1, 82518, Control_c, 0, 64, 81
1, 82533, Control_c, 0, 64, 77
1, 82547, Control_c, 0, 64, 74
1, 82562, Control_c, 0, 64, 70
1, 82577, Control_c, 0, 64, 69
1, 82592, Control_c, 0, 64, 68
1, 82607, Control_c, 0, 64, 65
1, 82621, Control_c, 0, 64, 0
1, 82660, Note_on_c, 0, 43, 94
1, 82711, Control_c, 0, 64, 50
1, 82726, Control_c, 0, 64, 61
1, 82736, Note_on_c, 0, 59, 98
1, 82741, Control_c, 0, 64, 46
1, 82754, Note_off_c, 0, 43, 59
1, 82755, Control_c, 0, 64, 0
1, 82765, Note_off_c, 0, 59, 67
1, 82864, Note_on_c, 0, 44, 90
1, 82920, Note_off_c, 0, 44, 61
1, 82943, Note_on_c, 0, 52, 100
1, 82947, Control_c, 0, 64, 43
1, 82962, Control_c, 0, 64, 57
1, 82977, Control_c, 0, 64, 61
1, 82988, Note_off_c, 0, 52, 66
1, 82992, Control_c, 0, 64, 62
1, 83007, Control_c, 0, 64, 47
1, 83016, Note_on_c, 0, 45, 92
1, 83021, Control_c, 0, 64, 0
1, 83068, Note_off_c, 0, 45, 64
1, 83115, Note_on_c, 0, 38, 80
1, 83148, Note_on_c, 0, 55, 95
1, 83154, Note_off_c, 0, 38, 62
1, 83272, Note_off_c, 0, 55, 59
1, 83282, Control_c, 0, 64, 17
1, 83296, Control_c, 0, 64, 33
1, 83311, Control_c, 0, 64, 34
1, 83326, Control_c, 0, 64, 0
1, 83356, Control_c, 0, 64, 34
1, 83370, Control_c, 0, 64, 57
1, 83385, Control_c, 0, 64, 65
1, 83393, Note_on_c, 0, 54, 98
1, 83400, Control_c, 0, 64, 69
1, 83415, Control_c, 0, 64, 71
1, 83444, Note_on_c, 0, 50, 81
1, 83444, Control_c, 0, 64, 69
1, 83459, Control_c, 0, 64, 65
1, 83474, Control_c, 0, 64, 57
1, 83483, Note_off_c, 0, 50, 65
1, 83483, Note_off_c, 0, 54, 59
1, 83489, Control_c, 0, 64, 62
1, 83504, Control_c, 0, 64, 66
1, 83519, Control_c, 0, 64, 70
1, 83534, Control_c, 0, 64, 73
1, 83537, Note_on_c, 0, 43, 77
1, 83548, Control_c, 0, 64, 75
1, 83552, Note_on_c, 0, 45, 60
1, 83578, Control_c, 0, 64, 73
1, 83579, Note_off_c, 0, 45, 56
1, 83588, Note_off_c, 0, 43, 63
1, 83593, Control_c, 0, 64, 70
1, 83608, Control_c, 0, 64, 65
1, 83623, Control_c, 0, 64, 0
1, 83693, Note_on_c, 0, 57, 95
1, 83714, Note_on_c, 0, 47, 86
1, 83726, Control_c, 0, 64, 64
1, 83741, Control_c, 0, 64, 66
1, 83756, Note_off_c, 0, 57, 59
1, 83756, Control_c, 0, 64, 64
1, 83770, Control_c, 0, 64, 42
1, 83785, Note_on_c, 0, 52, 81
1, 83785, Control_c, 0, 64, 0
1, 83790, Note_off_c, 0, 47, 66
1, 83830, Control_c, 0, 64, 46
1, 83843, Note_off_c, 0, 52, 63
1, 83844, Control_c, 0, 64, 64
1, 83859, Control_c, 0, 64, 69
1, 83868, Note_on_c, 0, 49, 87
1, 83874, Control_c, 0, 64, 69
1, 83880, Note_on_c, 0, 62, 95
1, 83890, Control_c, 0, 64, 67
1, 83905, Control_c, 0, 64, 63
1, 83918, Note_off_c, 0, 49, 62
1, 83927, Control_c, 0, 64, 49
1, 83942, Control_c, 0, 64, 0
1, 83972, Control_c, 0, 64, 37
1, 83973, Note_off_c, 0, 62, 53
1, 83987, Control_c, 0, 64, 61
1, 84001, Control_c, 0, 64, 67
1, 84016, Control_c, 0, 64, 66
1, 84019, Note_on_c, 0, 42, 85
1, 84031, Control_c, 0, 64, 61
1, 84046, Control_c, 0, 64, 0
1, 84088, Note_off_c, 0, 42, 60
1, 84088, Note_on_c, 0, 66, 93
1, 84090, Control_c, 0, 64, 42
1, 84105, Control_c, 0, 64, 62
1, 84119, Control_c, 0, 64, 64
1, 84134, Control_c, 0, 64, 62
1, 84149, Control_c, 0, 64, 49
1, 84160, Note_on_c, 0, 46, 58
1, 84162, Note_off_c, 0, 66, 60
1, 84164, Control_c, 0, 64, 33
1, 84171, Note_on_c, 0, 47, 78
1, 84179, Control_c, 0, 64, 47
1, 84191, Note_off_c, 0, 46, 52
1, 84193, Control_c, 0, 64, 59
1, 84208, Note_on_c, 0, 61, 95
1, 84208, Control_c, 0, 64, 65
1, 84219, Note_off_c, 0, 47, 60
1, 84223, Control_c, 0, 64, 67
1, 84238, Control_c, 0, 64, 66
1, 84239, Note_on_c, 0, 49, 81
1, 84253, Control_c, 0, 64, 65
1, 84267, Note_off_c, 0, 61, 59
1, 84267, Control_c, 0, 64, 64
1, 84273, Note_off_c, 0, 49, 62
1, 84282, Control_c, 0, 64, 62
1, 84312, Control_c, 0, 64, 61
1, 84326, Control_c, 0, 64, 58
1, 84341, Control_c, 0, 64, 48
1, 84356, Control_c, 0, 64, 32
1, 84371, Control_c, 0, 64, 28
1, 84386, Control_c, 0, 64, 29
1, 84401, Control_c, 0, 64, 34
1, 84416, Control_c, 0, 64, 37
1, 84423, Note_on_c, 0, 40, 83
1, 84431, Control_c, 0, 64, 40
1, 84446, Control_c, 0, 64, 44
1, 84461, Control_c, 0, 64, 49
1, 84475, Control_c, 0, 64, 55
1, 84490, Control_c, 0, 64, 61
1, 84505, Control_c, 0, 64, 64
1, 84507, Note_on_c, 0, 59, 97
1, 84519, Control_c, 0, 64, 66
1, 84534, Control_c, 0, 64, 67
1, 84564, Control_c, 0, 64, 67
1, 84574, Note_off_c, 0, 59, 56
1, 84579, Control_c, 0, 64, 68
1, 84582, Note_off_c, 0, 40, 39
1, 84593, Control_c, 0, 64, 67
1, 84608, Control_c, 0, 64, 66
1, 84623, Control_c, 0, 64, 65
1, 84637, Control_c, 0, 64, 63
1, 84652, Control_c, 0, 64, 59
1, 84675, Control_c, 0, 64, 11
1, 84690, Control_c, 0, 64, 0
1, 84735, Control_c, 0, 64, 34
1, 84744, Note_on_c, 0, 52, 92
1, 84750, Control_c, 0, 64, 64
1, 84765, Control_c, 0, 64, 71
1, 84780, Control_c, 0, 64, 74
1, 84794, Control_c, 0, 64, 76
1, 84809, Note_off_c, 0, 52, 57
1, 84824, Control_c, 0, 64, 73
1, 84839, Control_c, 0, 64, 66
1, 84854, Control_c, 0, 64, 28
1, 84869, Control_c, 0, 64, 35
1, 84884, Control_c, 0, 64, 62
1, 84885, Note_on_c, 0, 45, 84
1, 84898, Control_c, 0, 64, 69
1, 84913, Control_c, 0, 64, 76
1, 84915, Note_on_c, 0, 44, 32
1, 84928, Control_c, 0, 64, 80
1, 84942, Control_c, 0, 64, 79
1, 84949, Note_off_c, 0, 45, 63
1, 84955, Note_off_c, 0, 44, 31
1, 84957, Control_c, 0, 64, 72
1, 84972, Control_c, 0, 64, 32
1, 84984, Note_on_c, 0, 61, 97
1, 84987, Control_c, 0, 64, 0
1, 85046, Control_c, 0, 64, 62
1, 85060, Note_on_c, 0, 42, 83
1, 85060, Control_c, 0, 64, 72
1, 85063, Note_off_c, 0, 61, 61
1, 85075, Control_c, 0, 64, 76
1, 85090, Control_c, 0, 64, 75
1, 85105, Control_c, 0, 64, 68
1, 85114, Note_off_c, 0, 42, 63
1, 85120, Control_c, 0, 64, 52
1, 85134, Control_c, 0, 64, 0
1, 85149, Note_on_c, 0, 62, 97
1, 85179, Control_c, 0, 64, 19
1, 85194, Control_c, 0, 64, 56
1, 85208, Note_off_c, 0, 62, 60
1, 85209, Control_c, 0, 64, 61
1, 85224, Control_c, 0, 64, 48
1, 85239, Control_c, 0, 64, 0
1, 85254, Note_on_c, 0, 54, 85
1, 85313, Control_c, 0, 64, 33
1, 85322, Note_off_c, 0, 54, 64
1, 85326, Note_on_c, 0, 56, 87
1, 85328, Control_c, 0, 64, 42
1, 85342, Control_c, 0, 64, 0
1, 85370, Note_off_c, 0, 56, 63
1, 85419, Note_on_c, 0, 59, 95
1, 85518, Note_on_c, 0, 52, 89
1, 85525, Note_off_c, 0, 59, 53
1, 85528, Control_c, 0, 64, 27
1, 85543, Control_c, 0, 64, 45
1, 85558, Control_c, 0, 64, 46
1, 85560, Note_off_c, 0, 52, 63
1, 85572, Control_c, 0, 64, 46
1, 85632, Control_c, 0, 64, 47
1, 85647, Control_c, 0, 64, 51
1, 85662, Control_c, 0, 64, 58
1, 85677, Control_c, 0, 64, 64
1, 85681, Note_on_c, 0, 40, 83
1, 85691, Control_c, 0, 64, 64
1, 85706, Control_c, 0, 64, 54
1, 85721, Control_c, 0, 64, 0
1, 85742, Note_off_c, 0, 40, 61
1, 85780, Control_c, 0, 64, 14
1, 85784, Note_on_c, 0, 61, 98
1, 85795, Control_c, 0, 64, 55
1, 85810, Control_c, 0, 64, 51
1, 85825, Control_c, 0, 64, 19
1, 85839, Control_c, 0, 64, 0
1, 85876, Note_off_c, 0, 61, 58
1, 85898, Control_c, 0, 64, 14
1, 85908, Note_on_c, 0, 45, 93
1, 85913, Control_c, 0, 64, 52
1, 85928, Control_c, 0, 64, 58
1, 85943, Control_c, 0, 64, 58
1, 85966, Note_off_c, 0, 45, 64
1, 86017, Control_c, 0, 64, 58
1, 86046, Control_c, 0, 64, 59
1, 86061, Control_c, 0, 64, 60
1, 86076, Control_c, 0, 64, 62
1, 86091, Control_c, 0, 64, 63
1, 86106, Control_c, 0, 64, 62
1, 86106, Note_on_c, 0, 50, 90
1, 86121, Control_c, 0, 64, 61
1, 86136, Control_c, 0, 64, 62
1, 86149, Note_off_c, 0, 50, 68
1, 86151, Control_c, 0, 64, 64
1, 86172, Control_c, 0, 64, 66
1, 86187, Control_c, 0, 64, 68
1, 86202, Control_c, 0, 64, 69
1, 86206, Poly_aftertouch_c, 0, 42, 127
1, 86216, Control_c, 0, 64, 68
1, 86231, Control_c, 0, 64, 65
1, 86232, Poly_aftertouch_c, 0, 42, 0
1, 86246, Control_c, 0, 64, 59
1, 86261, Control_c, 0, 64, 57
1, 86276, Control_c, 0, 64, 58
1, 86289, Note_on_c, 0, 43, 88
1, 86292, Control_c, 0, 64, 60
1, 86307, Control_c, 0, 64, 62
1, 86321, Note_off_c, 0, 43, 65
1, 86321, Control_c, 0, 64, 62
1, 86336, Control_c, 0, 64, 62
1, 86351, Control_c, 0, 64, 61
1, 86366, Control_c, 0, 64, 60
1, 86381, Control_c, 0, 64, 58
1, 86395, Control_c, 0, 64, 56
1, 86410, Control_c, 0, 64, 57
1, 86425, Control_c, 0, 64, 59
1, 86440, Control_c, 0, 64, 61
1, 86450, Note_on_c, 0, 42, 87
1, 86455, Control_c, 0, 64, 59
1, 86470, Control_c, 0, 64, 40
1, 86485, Control_c, 0, 64, 0
1, 86488, Note_off_c, 0, 42, 63
1, 86529, Control_c, 0, 64, 52
1, 86544, Control_c, 0, 64, 63
1, 86559, Control_c, 0, 64, 67
1, 86562, Note_on_c, 0, 35, 84
1, 86574, Control_c, 0, 64, 70
1, 86588, Control_c, 0, 64, 71
1, 86594, Note_off_c, 0, 35, 66
1, 86603, Control_c, 0, 64, 68
1, 86618, Control_c, 0, 64, 0
1, 86682, Note_on_c, 0, 63, 95
1, 86707, Control_c, 0, 64, 44
1, 86721, Control_c, 0, 64, 65
1, 86736, Control_c, 0, 64, 69
1, 86751, Control_c, 0, 64, 71
1, 86753, Note_off_c, 0, 63, 59
1, 86766, Note_on_c, 0, 47, 88
1, 86766, Control_c, 0, 64, 72
1, 86781, Control_c, 0, 64, 71
1, 86795, Control_c, 0, 64, 70
1, 86810, Control_c, 0, 64, 67
1, 86825, Control_c, 0, 64, 62
1, 86839, Control_c, 0, 64, 0
1, 86862, Note_off_c, 0, 47, 61
1, 86923, Note_on_c, 0, 64, 100
1, 86936, Control_c, 0, 64, 55
1, 86952, Control_c, 0, 64, 70
1, 86967, Control_c, 0, 64, 78
1, 86982, Control_c, 0, 64, 87
1, 86996, Control_c, 0, 64, 89
1, 87011, Control_c, 0, 64, 87
1, 87020, Note_on_c, 0, 40, 87
1, 87026, Control_c, 0, 64, 77
1, 87040, Control_c, 0, 64, 63
1, 87054, Note_off_c, 0, 64, 56
1, 87055, Control_c, 0, 64, 0
1, 87062, Note_off_c, 0, 40, 66
1, 87086, Control_c, 0, 64, 50
1, 87101, Control_c, 0, 64, 65
1, 87116, Control_c, 0, 64, 69
1, 87131, Control_c, 0, 64, 70
1, 87145, Control_c, 0, 64, 70
1, 87147, Note_on_c, 0, 68, 95
1, 87160, Control_c, 0, 64, 67
1, 87175, Control_c, 0, 64, 63
1, 87190, Control_c, 0, 64, 42
1, 87205, Control_c, 0, 64, 0
1, 87289, Note_on_c, 0, 52, 94
1, 87303, Note_off_c, 0, 68, 37
1, 87337, Control_c, 0, 64, 36
1, 87352, Control_c, 0, 64, 49
1, 87367, Control_c, 0, 64, 51
1, 87373, Note_off_c, 0, 52, 60
1, 87382, Control_c, 0, 64, 54
1, 87385, Poly_aftertouch_c, 0, 49, 127
1, 87397, Control_c, 0, 64, 54
1, 87412, Control_c, 0, 64, 55
1, 87421, Poly_aftertouch_c, 0, 49, 0
1, 87423, Note_on_c, 0, 66, 95
1, 87427, Control_c, 0, 64, 57
1, 87442, Control_c, 0, 64, 61
1, 87456, Control_c, 0, 64, 63
1, 87486, Control_c, 0, 64, 43
1, 87501, Control_c, 0, 64, 0
1, 87544, Note_on_c, 0, 47, 85
1, 87560, Control_c, 0, 64, 43
1, 87575, Control_c, 0, 64, 64
1, 87590, Control_c, 0, 64, 65
1, 87597, Note_off_c, 0, 66, 59
1, 87619, Control_c, 0, 64, 64
1, 87634, Control_c, 0, 64, 63
1, 87644, Note_off_c, 0, 47, 59
1, 87649, Control_c, 0, 64, 62
1, 87671, Control_c, 0, 64, 61
1, 87686, Control_c, 0, 64, 54
1, 87700, Control_c, 0, 64, 0
1, 87728, Note_on_c, 0, 59, 89
1, 87784, Note_off_c, 0, 59, 64
1, 87850, Note_on_c, 0, 74, 105
1, 87908, Control_c, 0, 64, 41
1, 87923, Control_c, 0, 64, 0
1, 87927, Note_on_c, 0, 52, 85
1, 87983, Note_off_c, 0, 52, 64
1, 88012, Control_c, 0, 64, 24
1, 88027, Control_c, 0, 64, 0
1, 88063, Note_on_c, 0, 64, 94
1, 88116, Note_off_c, 0, 64, 65
1, 88130, Control_c, 0, 64, 49
1, 88145, Control_c, 0, 64, 60
1, 88160, Control_c, 0, 64, 62
1, 88175, Control_c, 0, 64, 63
1, 88190, Control_c, 0, 64, 63
1, 88205, Control_c, 0, 64, 61
1, 88217, Note_on_c, 0, 61, 92
1, 88220, Control_c, 0, 64, 59
1, 88234, Control_c, 0, 64, 54
1, 88249, Control_c, 0, 64, 36
1, 88264, Control_c, 0, 64, 0
1, 88317, Note_off_c, 0, 74, 56
1, 88325, Note_off_c, 0, 61, 61
1, 88354, Note_on_c, 0, 73, 96
1, 88397, Control_c, 0, 64, 54
1, 88419, Control_c, 0, 64, 63
1, 88427, Note_off_c, 0, 73, 63
1, 88434, Control_c, 0, 64, 67
1, 88449, Control_c, 0, 64, 69
1, 88479, Control_c, 0, 64, 67
1, 88493, Control_c, 0, 64, 67
1, 88508, Note_on_c, 0, 66, 90
1, 88508, Control_c, 0, 64, 68
1, 88523, Control_c, 0, 64, 69
1, 88538, Control_c, 0, 64, 70
1, 88553, Control_c, 0, 64, 71
1, 88556, Note_off_c, 0, 66, 62
1, 88567, Control_c, 0, 64, 71
1, 88582, Control_c, 0, 64, 70
1, 88592, Note_on_c, 0, 62, 92
1, 88597, Control_c, 0, 64, 69
1, 88612, Control_c, 0, 64, 67
1, 88627, Control_c, 0, 64, 65
1, 88641, Control_c, 0, 64, 61
1, 88656, Control_c, 0, 64, 53
1, 88671, Control_c, 0, 64, 53
1, 88686, Note_off_c, 0, 62, 57
1, 88687, Control_c, 0, 64, 58
1, 88702, Control_c, 0, 64, 60
1, 88716, Control_c, 0, 64, 61
1, 88759, Note_on_c, 0, 69, 94
1, 88776, Control_c, 0, 64, 60
1, 88820, Control_c, 0, 64, 61
1, 88821, Note_off_c, 0, 69, 63
1, 88835, Control_c, 0, 64, 61
1, 88850, Control_c, 0, 64, 62
1, 88894, Control_c, 0, 64, 57
1, 88908, Control_c, 0, 64, 0
1, 88927, Note_on_c, 0, 71, 95
1, 88986, Note_off_c, 0, 71, 66
1, 89012, Control_c, 0, 64, 61
1, 89027, Control_c, 0, 64, 66
1, 89042, Note_on_c, 0, 59, 88
1, 89042, Control_c, 0, 64, 66
1, 89057, Control_c, 0, 64, 63
1, 89072, Control_c, 0, 64, 48
1, 89087, Control_c, 0, 64, 0
1, 89131, Control_c, 0, 64, 45
1, 89136, Note_off_c, 0, 59, 59
1, 89146, Control_c, 0, 64, 62
1, 89168, Control_c, 0, 64, 66
1, 89172, Note_on_c, 0, 74, 95
1, 89182, Control_c, 0, 64, 69
1, 89197, Control_c, 0, 64, 70
1, 89212, Control_c, 0, 64, 70
1, 89222, Note_off_c, 0, 74, 67
1, 89227, Control_c, 0, 64, 70
1, 89241, Control_c, 0, 64, 66
1, 89256, Control_c, 0, 64, 0
1, 89313, Note_on_c, 0, 76, 98
1, 89315, Control_c, 0, 64, 30
1, 89330, Control_c, 0, 64, 60
1, 89360, Control_c, 0, 64, 51
1, 89375, Control_c, 0, 64, 0
1, 89381, Note_on_c, 0, 60, 79
1, 89400, Note_off_c, 0, 76, 55
1, 89427, Note_off_c, 0, 60, 66
1, 89448, Control_c, 0, 64, 21
1, 89463, Control_c, 0, 64, 17
1, 89471, Note_on_c, 0, 72, 94
1, 89478, Control_c, 0, 64, 0
1, 89542, Note_off_c, 0, 72, 50
1, 89598, Control_c, 0, 64, 30
1, 89612, Control_c, 0, 64, 45
1, 89624, Note_on_c, 0, 78, 88
1, 89627, Control_c, 0, 64, 54
1, 89642, Control_c, 0, 64, 58
1, 89672, Control_c, 0, 64, 57
1, 89681, Note_on_c, 0, 71, 93
1, 89681, Note_off_c, 0, 78, 62
1, 89716, Control_c, 0, 64, 58
1, 89731, Control_c, 0, 64, 59
1, 89746, Control_c, 0, 64, 60
1, 89761, Control_c, 0, 64, 61
1, 89770, Note_off_c, 0, 71, 60
1, 89820, Control_c, 0, 64, 62
1, 89835, Control_c, 0, 64, 63
1, 89841, Note_on_c, 0, 81, 101
1, 89849, Control_c, 0, 64, 64
1, 89864, Control_c, 0, 64, 63
1, 89879, Control_c, 0, 64, 62
1, 89893, Note_off_c, 0, 81, 66
1, 89894, Control_c, 0, 64, 63
1, 89916, Control_c, 0, 64, 64
1, 89931, Control_c, 0, 64, 66
1, 89945, Control_c, 0, 64, 69
1, 89960, Control_c, 0, 64, 70
1, 89990, Control_c, 0, 64, 69
1, 90005, Control_c, 0, 64, 68
1, 90020, Control_c, 0, 64, 67
1, 90029, Note_on_c, 0, 67, 84
1, 90050, Control_c, 0, 64, 68
1, 90064, Control_c, 0, 64, 67
1, 90079, Control_c, 0, 64, 64
1, 90094, Control_c, 0, 64, 55
1, 90106, Note_off_c, 0, 67, 63
1, 90109, Control_c, 0, 64, 36
1, 90124, Control_c, 0, 64, 46
1, 90138, Control_c, 0, 64, 59
1, 90153, Control_c, 0, 64, 64
1, 90168, Control_c, 0, 64, 67
1, 90183, Note_on_c, 0, 83, 98
1, 90183, Control_c, 0, 64, 68
1, 90212, Control_c, 0, 64, 68
1, 90242, Control_c, 0, 64, 67
1, 90271, Control_c, 0, 64, 68
1, 90302, Control_c, 0, 64, 68
1, 90317, Control_c, 0, 64, 69
1, 90332, Control_c, 0, 64, 69
1, 90370, Note_on_c, 0, 68, 41
1, 90370, Note_on_c, 0, 79, 81
1, 90381, Note_off_c, 0, 83, 59
1, 90399, Note_off_c, 0, 68, 55
1, 90421, Control_c, 0, 64, 70
1, 90425, Note_off_c, 0, 79, 64
1, 90435, Control_c, 0, 64, 73
1, 90450, Control_c, 0, 64, 75
1, 90465, Control_c, 0, 64, 75
1, 90500, Note_on_c, 0, 85, 93
1, 90524, Control_c, 0, 64, 75
1, 90539, Control_c, 0, 64, 74
1, 90554, Control_c, 0, 64, 73
1, 90568, Control_c, 0, 64, 73
1, 90598, Control_c, 0, 64, 72
1, 90610, Note_on_c, 0, 78, 86
1, 90613, Control_c, 0, 64, 69
1, 90628, Control_c, 0, 64, 66
1, 90643, Control_c, 0, 64, 63
1, 90665, Control_c, 0, 64, 54
1, 90677, Note_off_c, 0, 78, 63
1, 90680, Control_c, 0, 64, 33
1, 90685, Note_off_c, 0, 85, 51
1, 90694, Control_c, 0, 64, 0
1, 90724, Control_c, 0, 64, 36
1, 90739, Control_c, 0, 64, 47
1, 90741, Note_on_c, 0, 86, 94
1, 90753, Control_c, 0, 64, 56
1, 90768, Control_c, 0, 64, 60
1, 90783, Control_c, 0, 64, 61
1, 90787, Note_off_c, 0, 86, 69
1, 90798, Control_c, 0, 64, 60
1, 90813, Control_c, 0, 64, 59
1, 90828, Control_c, 0, 64, 57
1, 90843, Control_c, 0, 64, 56
1, 90858, Control_c, 0, 64, 55
1, 90873, Control_c, 0, 64, 53
1, 90887, Control_c, 0, 64, 51
1, 90902, Control_c, 0, 64, 44
1, 90910, Note_on_c, 0, 88, 97
1, 90917, Control_c, 0, 64, 29
1, 90932, Control_c, 0, 64, 0
1, 90966, Note_off_c, 0, 88, 64
1, 91063, Note_on_c, 0, 93, 93
1, 91105, Note_off_c, 0, 93, 66
1, 91167, Note_on_c, 0, 73, 63
1, 91173, Note_on_c, 0, 74, 65
1, 91186, Note_off_c, 0, 73, 63
1, 91191, Note_off_c, 0, 74, 65
1, 91908, Note_on_c, 0, 91, 48
1, 92089, Note_on_c, 0, 74, 28
1, 92127, Note_off_c, 0, 74, 51
1, 92336, Note_on_c, 0, 90, 49
1, 92339, Note_off_c, 0, 91, 43
1, 92483, Note_on_c, 0, 81, 50
1, 92494, Note_on_c, 0, 84, 36
1, 92524, Note_off_c, 0, 81, 62
1, 92534, Note_off_c, 0, 84, 52
1, 92888, Note_on_c, 0, 86, 42
1, 93006, Note_off_c, 0, 86, 50
1, 93018, Note_on_c, 0, 83, 35
1, 93021, Note_on_c, 0, 79, 40
1, 93022, Note_off_c, 0, 90, 45
1, 93046, Note_off_c, 0, 83, 57
1, 93060, Note_off_c, 0, 79, 49
1, 93248, Note_on_c, 0, 74, 54
1, 93293, Note_off_c, 0, 74, 60
1, 93351, Note_on_c, 0, 78, 51
1, 93356, Note_on_c, 0, 81, 44
1, 93374, Note_off_c, 0, 78, 60
1, 93380, Note_off_c, 0, 81, 59
1, 93507, Note_on_c, 0, 88, 57
1, 93737, Note_on_c, 0, 79, 38
1, 93761, Note_on_c, 0, 76, 22
1, 93772, Note_off_c, 0, 79, 54
1, 93801, Note_off_c, 0, 76, 44
1, 94015, Note_on_c, 0, 81, 43
1, 94067, Note_off_c, 0, 88, 34
1, 94164, Note_on_c, 0, 72, 44
1, 94212, Note_off_c, 0, 72, 60
1, 94408, Note_on_c, 0, 84, 37
1, 94444, Note_off_c, 0, 81, 36
1, 94470, Note_off_c, 0, 84, 53
1, 94634, Note_on_c, 0, 71, 43
1, 94679, Note_off_c, 0, 71, 63
1, 94790, Note_on_c, 0, 83, 40
1, 94977, Note_on_c, 0, 79, 39
1, 94983, Note_on_c, 0, 76, 35
1, 95009, Note_off_c, 0, 79, 56
1, 95013, Note_off_c, 0, 76, 51
1, 95204, Note_on_c, 0, 69, 39
1, 95235, Note_off_c, 0, 69, 56
1, 95424, Note_on_c, 0, 77, 40
1, 95433, Note_on_c, 0, 74, 39
1, 95452, Note_off_c, 0, 77, 58
1, 95466, Note_off_c, 0, 74, 55
1, 95666, Note_on_c, 0, 72, 36
1, 95678, Note_on_c, 0, 76, 18
1, 95704, Note_off_c, 0, 72, 49
1, 95719, Note_off_c, 0, 76, 47
1, 95730, Note_off_c, 0, 83, 47
1, 95833, Note_on_c, 0, 67, 39
1, 95863, Note_off_c, 0, 67, 52
1, 95933, Note_on_c, 0, 86, 49
1, 96194, Note_on_c, 0, 91, 43
1, 96244, Note_off_c, 0, 86, 43
1, 96326, Note_on_c, 0, 83, 46
1, 96351, Note_off_c, 0, 83, 58
1, 96354, Note_on_c, 0, 79, 21
1, 96396, Note_off_c, 0, 79, 42
1, 96557, Note_on_c, 0, 95, 46
1, 96596, Note_off_c, 0, 91, 41
1, 96694, Note_on_c, 0, 76, 49
1, 96726, Note_off_c, 0, 76, 59
1, 96923, Note_on_c, 0, 90, 49
1, 96983, Note_off_c, 0, 95, 36
1, 97076, Note_on_c, 0, 81, 47
1, 97080, Note_on_c, 0, 84, 35
1, 97109, Note_off_c, 0, 90, 54
1, 97116, Note_off_c, 0, 81, 64
1, 97119, Note_off_c, 0, 84, 55
1, 97447, Note_on_c, 0, 88, 48
1, 97577, Note_on_c, 0, 74, 52
1, 97611, Note_off_c, 0, 74, 66
1, 97896, Note_on_c, 0, 72, 52
1, 97937, Note_off_c, 0, 72, 59
1, 98119, Note_on_c, 0, 79, 47
1, 98130, Note_on_c, 0, 76, 42
1, 98152, Note_off_c, 0, 79, 57
1, 98168, Note_off_c, 0, 76, 54
1, 98263, Note_off_c, 0, 88, 56
1, 98315, Note_on_c, 0, 90, 54
1, 98443, Note_on_c, 0, 71, 49
1, 98468, Note_off_c, 0, 71, 63
1, 98494, Control_c, 0, 64, 11
1, 98635, Note_on_c, 0, 91, 51
1, 98677, Note_off_c, 0, 90, 37
1, 98802, Note_on_c, 0, 77, 42
1, 98809, Note_on_c, 0, 74, 36
1, 98835, Note_off_c, 0, 91, 36
1, 98846, Note_off_c, 0, 77, 60
1, 98855, Note_off_c, 0, 74, 51
1, 99124, Control_c, 0, 64, 14
1, 99132, Note_on_c, 0, 88, 42
1, 99154, Control_c, 0, 64, 17
1, 99316, Note_on_c, 0, 76, 48
1, 99320, Note_on_c, 0, 73, 48
1, 99345, Note_off_c, 0, 76, 61
1, 99349, Note_off_c, 0, 73, 57
1, 99583, Control_c, 0, 64, 19
1, 99744, Note_on_c, 0, 81, 44
1, 99744, Note_on_c, 0, 84, 42
1, 99769, Control_c, 0, 64, 21
1, 99775, Note_off_c, 0, 81, 63
1, 99785, Note_off_c, 0, 84, 64
1, 99919, Control_c, 0, 64, 23
1, 99993, Control_c, 0, 64, 24
1, 100129, Note_off_c, 0, 88, 40
1, 100166, Note_on_c, 0, 90, 50
1, 100185, Control_c, 0, 64, 26
1, 100429, Control_c, 0, 64, 27
1, 100434, Note_on_c, 0, 79, 48
1, 100462, Note_off_c, 0, 79, 56
1, 100578, Control_c, 0, 64, 28
1, 100592, Control_c, 0, 64, 29
1, 100607, Control_c, 0, 64, 31
1, 100622, Control_c, 0, 64, 32
1, 100637, Control_c, 0, 64, 33
1, 100668, Control_c, 0, 64, 34
1, 100683, Note_on_c, 0, 83, 55
1, 100687, Note_on_c, 0, 86, 48
1, 100697, Control_c, 0, 64, 35
1, 100710, Note_off_c, 0, 83, 66
1, 100712, Note_off_c, 0, 86, 60
1, 100742, Control_c, 0, 64, 36
1, 100944, Note_on_c, 0, 77, 51
1, 100949, Control_c, 0, 64, 35
1, 100972, Note_off_c, 0, 77, 65
1, 101112, Control_c, 0, 64, 34
1, 101127, Control_c, 0, 64, 33
1, 101145, Note_on_c, 0, 84, 43
1, 101147, Note_on_c, 0, 81, 51
1, 101149, Control_c, 0, 64, 31
1, 101163, Control_c, 0, 64, 30
1, 101170, Note_off_c, 0, 84, 59
1, 101177, Control_c, 0, 64, 28
1, 101181, Note_off_c, 0, 81, 58
1, 101192, Control_c, 0, 64, 27
1, 101221, Control_c, 0, 64, 26
1, 101266, Control_c, 0, 64, 24
1, 101278, Note_on_c, 0, 76, 53
1, 101295, Control_c, 0, 64, 23
1, 101311, Note_off_c, 0, 76, 63
1, 101455, Note_off_c, 0, 90, 41
1, 101460, Note_on_c, 0, 92, 54
1, 101578, Control_c, 0, 64, 24
1, 101657, Note_on_c, 0, 74, 53
1, 101681, Control_c, 0, 64, 26
1, 101684, Note_off_c, 0, 74, 62
1, 101726, Control_c, 0, 64, 27
1, 101827, Note_off_c, 0, 92, 55
1, 101830, Control_c, 0, 64, 28
1, 101867, Note_on_c, 0, 83, 51
1, 101874, Control_c, 0, 64, 29
1, 101875, Note_on_c, 0, 80, 35
1, 101896, Note_off_c, 0, 83, 62
1, 101913, Note_off_c, 0, 80, 51
1, 101970, Control_c, 0, 64, 30
1, 101998, Note_on_c, 0, 93, 61
1, 102152, Note_on_c, 0, 73, 45
1, 102183, Note_off_c, 0, 73, 52
1, 102253, Note_on_c, 0, 97, 60
1, 102304, Note_off_c, 0, 93, 33
1, 102327, Note_off_c, 0, 97, 52
1, 102400, Control_c, 0, 64, 31
1, 102445, Control_c, 0, 64, 32
1, 102475, Note_on_c, 0, 79, 39
1, 102484, Note_on_c, 0, 76, 34
1, 102489, Control_c, 0, 64, 33
1, 102504, Note_off_c, 0, 79, 56
1, 102518, Note_off_c, 0, 76, 50
1, 102534, Control_c, 0, 64, 34
1, 102579, Control_c, 0, 64, 35
1, 102591, Note_on_c, 0, 95, 64
1, 102675, Control_c, 0, 64, 36
1, 102836, Note_on_c, 0, 74, 44
1, 102837, Note_on_c, 0, 77, 38
1, 102838, Control_c, 0, 64, 36
1, 102865, Note_off_c, 0, 74, 55
1, 102865, Note_off_c, 0, 77, 55
1, 102947, Note_off_c, 0, 95, 55
1, 103002, Note_on_c, 0, 71, 38
1, 103032, Note_off_c, 0, 71, 52
1, 103126, Note_on_c, 0, 83, 46
1, 103286, Note_on_c, 0, 76, 41
1, 103294, Note_on_c, 0, 73, 44
1, 103315, Note_off_c, 0, 76, 56
1, 103322, Note_off_c, 0, 73, 56
1, 103478, Note_on_c, 0, 69, 40
1, 103528, Note_off_c, 0, 69, 46
1, 103668, Note_on_c, 0, 85, 51
1, 103673, Note_off_c, 0, 83, 38
1, 103866, Note_on_c, 0, 88, 49
1, 103888, Note_off_c, 0, 85, 36
1, 103959, Note_on_c, 0, 72, 41
1, 103967, Note_off_c, 0, 88, 0
1, 103967, Note_on_c, 0, 88, 8
1, 103985, Note_off_c, 0, 72, 56
1, 104277, Control_c, 0, 64, 37
1, 104312, Note_on_c, 0, 76, 42
1, 104312, Note_on_c, 0, 79, 41
1, 104340, Note_off_c, 0, 79, 57
1, 104341, Note_off_c, 0, 76, 55
1, 104432, Note_on_c, 0, 83, 46
1, 104436, Note_off_c, 0, 88, 38
1, 104603, Control_c, 0, 64, 38
1, 104662, Control_c, 0, 64, 38
1, 104719, Note_on_c, 0, 85, 45
1, 104737, Note_off_c, 0, 83, 33
1, 104838, Note_off_c, 0, 85, 32
1, 104942, Note_on_c, 0, 81, 49
1, 104944, Note_on_c, 0, 78, 50
1, 104966, Note_off_c, 0, 81, 61
1, 104967, Note_off_c, 0, 78, 60
1, 104995, Control_c, 0, 64, 39
1, 105099, Control_c, 0, 64, 40
1, 105107, Note_on_c, 0, 88, 54
1, 105129, Control_c, 0, 64, 40
1, 105298, Note_on_c, 0, 74, 50
1, 105330, Note_off_c, 0, 74, 64
1, 105515, Control_c, 0, 64, 41
1, 105577, Note_off_c, 0, 88, 36
1, 105578, Note_on_c, 0, 83, 38
1, 105685, Control_c, 0, 64, 42
1, 105698, Note_off_c, 0, 83, 58
1, 105815, Note_on_c, 0, 76, 54
1, 105844, Note_off_c, 0, 76, 62
1, 105982, Note_on_c, 0, 88, 61
1, 106144, Note_on_c, 0, 71, 40
1, 106153, Note_on_c, 0, 68, 24
1, 106172, Note_off_c, 0, 71, 60
1, 106202, Note_off_c, 0, 68, 46
1, 106494, Note_on_c, 0, 92, 51
1, 106500, Note_off_c, 0, 88, 35
1, 106639, Note_on_c, 0, 73, 47
1, 106665, Note_off_c, 0, 73, 57
1, 106805, Control_c, 0, 64, 42
1, 106849, Control_c, 0, 64, 43
1, 106908, Note_off_c, 0, 92, 37
1, 106921, Note_on_c, 0, 80, 43
1, 106922, Note_on_c, 0, 77, 36
1, 106952, Note_off_c, 0, 77, 54
1, 106954, Note_off_c, 0, 80, 61
1, 107126, Note_on_c, 0, 90, 57
1, 107317, Control_c, 0, 64, 43
1, 107326, Note_on_c, 0, 81, 42
1, 107329, Note_on_c, 0, 78, 42
1, 107353, Note_off_c, 0, 81, 58
1, 107354, Note_off_c, 0, 78, 58
1, 107471, Note_on_c, 0, 95, 65
1, 107531, Note_off_c, 0, 90, 43
1, 107589, Note_off_c, 0, 95, 37
1, 107606, Note_on_c, 0, 74, 56
1, 107639, Note_off_c, 0, 74, 66
1, 107864, Note_on_c, 0, 93, 66
1, 107888, Control_c, 0, 64, 44
1, 108005, Note_on_c, 0, 79, 55
1, 108026, Note_off_c, 0, 79, 63
1, 108095, Control_c, 0, 64, 44
1, 108110, Control_c, 0, 64, 45
1, 108125, Control_c, 0, 64, 47
1, 108140, Control_c, 0, 64, 49
1, 108154, Control_c, 0, 64, 49
1, 108169, Control_c, 0, 64, 50
1, 108184, Control_c, 0, 64, 51
1, 108197, Note_on_c, 0, 86, 56
1, 108199, Control_c, 0, 64, 51
1, 108210, Note_on_c, 0, 83, 35
1, 108213, Control_c, 0, 64, 52
1, 108216, Note_off_c, 0, 86, 63
1, 108240, Note_off_c, 0, 83, 48
1, 108258, Control_c, 0, 64, 51
1, 108273, Control_c, 0, 64, 51
1, 108287, Control_c, 0, 64, 50
1, 108302, Control_c, 0, 64, 49
1, 108308, Note_on_c, 0, 77, 58
1, 108317, Control_c, 0, 64, 49
1, 108332, Control_c, 0, 64, 48
1, 108347, Control_c, 0, 64, 48
1, 108347, Note_off_c, 0, 77, 62
1, 108376, Control_c, 0, 64, 47
1, 108523, Note_on_c, 0, 76, 46
1, 108550, Note_off_c, 0, 76, 56
1, 108769, Control_c, 0, 64, 48
1, 108883, Note_on_c, 0, 81, 48
1, 108890, Note_on_c, 0, 84, 36
1, 108910, Note_off_c, 0, 81, 64
1, 108917, Note_off_c, 0, 84, 58
1, 109080, Control_c, 0, 64, 48
1, 109288, Control_c, 0, 64, 49
1, 109289, Note_on_c, 0, 79, 47
1, 109293, Note_on_c, 0, 83, 40
1, 109318, Note_off_c, 0, 83, 59
1, 109323, Note_off_c, 0, 79, 53
1, 109385, Note_on_c, 0, 74, 53
1, 109409, Note_off_c, 0, 74, 62
1, 109673, Note_on_c, 0, 73, 53
1, 109691, Note_off_c, 0, 93, 61
1, 109711, Note_off_c, 0, 73, 59
1, 109741, Control_c, 0, 64, 49
1, 109777, Note_on_c, 0, 81, 41
1, 109785, Note_on_c, 0, 78, 12
1, 109807, Note_off_c, 0, 81, 55
1, 109825, Note_off_c, 0, 78, 40
1, 109914, Note_on_c, 0, 97, 54
1, 110039, Note_on_c, 0, 71, 47
1, 110062, Note_off_c, 0, 71, 60
1, 110320, Note_on_c, 0, 86, 38
1, 110323, Note_on_c, 0, 83, 39
1, 110350, Note_off_c, 0, 83, 52
1, 110350, Note_off_c, 0, 86, 50
1, 110415, Control_c, 0, 64, 50
1, 110433, Note_on_c, 0, 95, 60
1, 110435, Note_off_c, 0, 97, 57
1, 110594, Control_c, 0, 64, 50
1, 110595, Note_on_c, 0, 76, 35
1, 110623, Control_c, 0, 64, 51
1, 110634, Note_off_c, 0, 76, 49
1, 110712, Control_c, 0, 64, 51
1, 110801, Note_on_c, 0, 93, 52
1, 110809, Note_off_c, 0, 95, 38
1, 110860, Control_c, 0, 64, 52
1, 110971, Control_c, 0, 64, 52
1, 110986, Control_c, 0, 64, 53
1, 110992, Note_on_c, 0, 77, 45
1, 111019, Note_off_c, 0, 77, 57
1, 111045, Control_c, 0, 64, 53
1, 111061, Control_c, 0, 64, 54
1, 111076, Control_c, 0, 64, 54
1, 111091, Note_on_c, 0, 88, 65
1, 111091, Control_c, 0, 64, 55
1, 111094, Note_on_c, 0, 84, 63
1, 111108, Note_off_c, 0, 88, 65
1, 111120, Note_off_c, 0, 84, 66
1, 111120, Control_c, 0, 64, 55
1, 111149, Control_c, 0, 64, 56
1, 111256, Note_on_c, 0, 96, 55
1, 111277, Note_off_c, 0, 96, 66
1, 111295, Note_off_c, 0, 93, 41
1, 111298, Control_c, 0, 64, 55
1, 111453, Note_on_c, 0, 69, 42
1, 111486, Note_off_c, 0, 69, 60
1, 111764, Control_c, 0, 64, 56
1, 111787, Note_on_c, 0, 86, 49
1, 111819, Note_off_c, 0, 86, 54
1, 111941, Note_on_c, 0, 91, 55
1, 112204, Poly_aftertouch_c, 0, 67, 127
1, 112240, Poly_aftertouch_c, 0, 67, 0
1, 112443, Note_on_c, 0, 72, 51
1, 112483, Note_off_c, 0, 72, 62
1, 112611, Note_on_c, 0, 88, 44
1, 112777, Note_off_c, 0, 91, 41
1, 112796, Control_c, 0, 64, 56
1, 113018, Note_on_c, 0, 89, 45
1, 113030, Note_off_c, 0, 88, 36
1, 113104, Note_off_c, 0, 89, 56
1, 113211, Note_on_c, 0, 65, 41
1, 113240, Note_off_c, 0, 65, 52
1, 113247, Control_c, 0, 64, 57
1, 113321, Control_c, 0, 64, 57
1, 113366, Control_c, 0, 64, 58
1, 113395, Control_c, 0, 64, 59
1, 113440, Control_c, 0, 64, 59
1, 113519, Note_on_c, 0, 59, 48
1, 113548, Note_off_c, 0, 59, 63
1, 113672, Note_on_c, 0, 86, 51
1, 113722, Control_c, 0, 64, 60
1, 113751, Control_c, 0, 64, 60
1, 113781, Control_c, 0, 64, 61
1, 113896, Note_on_c, 0, 52, 56
1, 113930, Note_off_c, 0, 52, 63
1, 114219, Note_on_c, 0, 45, 44
1, 114251, Note_off_c, 0, 45, 58
1, 114485, Control_c, 0, 64, 61
1, 114514, Control_c, 0, 64, 62
1, 114544, Control_c, 0, 64, 62
1, 114604, Control_c, 0, 64, 63
1, 114655, Control_c, 0, 64, 63
1, 114816, Note_on_c, 0, 38, 21
1, 114861, Note_off_c, 0, 38, 45
1, 115071, Control_c, 0, 64, 64
1, 115131, Control_c, 0, 64, 64
1, 115204, Control_c, 0, 64, 64
1, 115308, Control_c, 0, 64, 63
1, 115382, Note_off_c, 0, 86, 46
1, 115464, Control_c, 0, 64, 64
1, 115493, Control_c, 0, 64, 56
1, 115508, Control_c, 0, 64, 0
1, 115545, Poly_aftertouch_c, 0, 38, 127
1, 115579, Poly_aftertouch_c, 0, 38, 0
1, 115582, Control_c, 0, 64, 67
1, 115596, Note_on_c, 0, 43, 101
1, 115596, Control_c, 0, 64, 127
1, 115597, Note_on_c, 0, 31, 80
1, 115598, Note_on_c, 0, 72, 94
1, 115599, Note_on_c, 0, 84, 92
1, 115602, Note_on_c, 0, 81, 93
1, 115619, Note_off_c, 0, 31, 68
1, 115632, Note_off_c, 0, 43, 66
1, 115635, Note_off_c, 0, 84, 65
1, 115637, Note_off_c, 0, 72, 66
1, 115642, Note_off_c, 0, 81, 58
1, 115647, Note_on_c, 0, 34, 12
1, 115649, Note_on_c, 0, 33, 32
1, 115696, Note_off_c, 0, 34, 40
1, 115704, Note_off_c, 0, 33, 42
1, 115717, Note_on_c, 0, 71, 95
1, 115724, Note_on_c, 0, 83, 89
1, 115728, Note_on_c, 0, 79, 84
1, 115748, Note_on_c, 0, 72, 45
1, 115749, Note_off_c, 0, 72, 127
1, 115756, Note_off_c, 0, 83, 60
1, 115757, Note_off_c, 0, 71, 66
1, 115759, Note_off_c, 0, 79, 53
1, 115794, Note_on_c, 0, 56, 17
1, 115841, Note_off_c, 0, 56, 55
1, 115846, Note_on_c, 0, 59, 77
1, 115846, Note_on_c, 0, 62, 85
1, 115867, Note_off_c, 0, 62, 69
1, 115891, Note_off_c, 0, 59, 59
1, 115955, Note_on_c, 0, 71, 51
1, 115958, Note_on_c, 0, 67, 88
1, 115958, Note_on_c, 0, 79, 90
1, 115969, Note_on_c, 0, 74, 77
1, 115991, Note_off_c, 0, 71, 65
1, 115992, Note_off_c, 0, 74, 70
1, 115993, Note_off_c, 0, 67, 58
1, 115995, Note_on_c, 0, 42, 45
1, 116018, Note_off_c, 0, 79, 61
1, 116026, Note_off_c, 0, 42, 56
1, 116072, Control_c, 0, 64, 99
1, 116074, Note_on_c, 0, 50, 92
1, 116084, Note_on_c, 0, 36, 57
1, 116086, Note_on_c, 0, 48, 68
1, 116086, Control_c, 0, 64, 0
1, 116087, Note_on_c, 0, 38, 67
1, 116118, Note_off_c, 0, 36, 57
1, 116118, Note_off_c, 0, 48, 37
1, 116119, Note_off_c, 0, 50, 62
1, 116121, Note_off_c, 0, 38, 57
1, 116213, Note_on_c, 0, 60, 89
1, 116214, Note_on_c, 0, 57, 90
1, 116238, Note_off_c, 0, 60, 67
1, 116260, Note_off_c, 0, 57, 64
1, 116261, Note_on_c, 0, 69, 97
1, 116262, Note_on_c, 0, 81, 89
1, 116266, Note_on_c, 0, 78, 92
1, 116271, Control_c, 0, 64, 85
1, 116275, Note_on_c, 0, 74, 84
1, 116280, Note_off_c, 0, 81, 70
1, 116286, Control_c, 0, 64, 127
1, 116291, Note_off_c, 0, 69, 66
1, 116294, Note_off_c, 0, 74, 72
1, 116307, Note_off_c, 0, 78, 64
1, 116392, Note_on_c, 0, 44, 39
1, 116407, Note_on_c, 0, 42, 18
1, 116439, Poly_aftertouch_c, 0, 46, 127
1, 116441, Note_off_c, 0, 44, 54
1, 116456, Note_on_c, 0, 50, 99
1, 116463, Note_on_c, 0, 38, 83
1, 116479, Poly_aftertouch_c, 0, 46, 0
1, 116488, Note_on_c, 0, 62, 83
1, 116488, Note_off_c, 0, 38, 65
1, 116495, Note_on_c, 0, 72, 79
1, 116499, Note_on_c, 0, 74, 80
1, 116502, Note_off_c, 0, 42, 35
1, 116508, Note_off_c, 0, 62, 73
1, 116511, Note_off_c, 0, 50, 69
1, 116514, Note_off_c, 0, 72, 70
1, 116517, Note_off_c, 0, 74, 73
1, 116586, Note_on_c, 0, 67, 101
1, 116592, Note_on_c, 0, 79, 94
1, 116595, Note_on_c, 0, 76, 85
1, 116601, Poly_aftertouch_c, 0, 64, 0
1, 116612, Note_off_c, 0, 79, 65
1, 116613, Note_off_c, 0, 76, 71
1, 116619, Note_off_c, 0, 67, 63
1, 116660, Note_on_c, 0, 55, 94
1, 116663, Note_on_c, 0, 59, 90
1, 116684, Note_off_c, 0, 59, 69
1, 116700, Note_off_c, 0, 55, 67
1, 116776, Control_c, 0, 64, 106
1, 116791, Control_c, 0, 64, 85
1, 116806, Control_c, 0, 64, 61
1, 116809, Note_on_c, 0, 72, 45
1, 116810, Note_on_c, 0, 64, 97
1, 116815, Note_on_c, 0, 76, 90
1, 116821, Control_c, 0, 64, 0
1, 116827, Note_on_c, 0, 69, 52
1, 116897, Note_on_c, 0, 48, 95
1, 116905, Note_on_c, 0, 36, 82
1, 116941, Note_off_c, 0, 48, 64
1, 116964, Note_off_c, 0, 36, 56
1, 117019, Note_off_c, 0, 64, 61
1, 117020, Note_off_c, 0, 69, 25
1, 117044, Note_on_c, 0, 47, 96
1, 117044, Note_off_c, 0, 72, 63
1, 117047, Note_off_c, 0, 76, 60
1, 117048, Note_on_c, 0, 35, 82
1, 117065, Control_c, 0, 64, 66
1, 117072, Note_off_c, 0, 35, 67
1, 117080, Control_c, 0, 64, 127
1, 117084, Note_off_c, 0, 47, 69
1, 117127, Poly_aftertouch_c, 0, 37, 127
1, 117169, Note_on_c, 0, 57, 90
1, 117176, Note_on_c, 0, 60, 76
1, 117179, Poly_aftertouch_c, 0, 37, 0
1, 117194, Note_on_c, 0, 67, 91
1, 117200, Note_on_c, 0, 79, 86
1, 117201, Note_off_c, 0, 60, 68
1, 117203, Note_off_c, 0, 57, 64
1, 117209, Note_on_c, 0, 77, 59
1, 117212, Note_off_c, 0, 67, 69
1, 117217, Note_on_c, 0, 59, 18
1, 117217, Note_on_c, 0, 76, 52
1, 117221, Note_on_c, 0, 74, 46
1, 117236, Note_off_c, 0, 77, 67
1, 117240, Note_off_c, 0, 76, 59
1, 117245, Note_off_c, 0, 79, 60
1, 117247, Note_off_c, 0, 74, 60
1, 117257, Note_off_c, 0, 59, 48
1, 117294, Note_on_c, 0, 72, 96
1, 117296, Note_on_c, 0, 81, 96
1, 117298, Note_on_c, 0, 84, 91
1, 117303, Note_on_c, 0, 76, 82
1, 117316, Note_on_c, 0, 83, 66
1, 117319, Note_on_c, 0, 80, 46
1, 117320, Note_off_c, 0, 80, 127
1, 117323, Note_off_c, 0, 76, 69
1, 117334, Note_off_c, 0, 83, 40
1, 117338, Note_off_c, 0, 72, 60
1, 117346, Note_on_c, 0, 40, 20
1, 117346, Poly_aftertouch_c, 0, 80, 0
1, 117346, Control_c, 0, 64, 75
1, 117349, Note_on_c, 0, 37, 33
1, 117349, Note_off_c, 0, 84, 62
1, 117359, Note_on_c, 0, 39, 12
1, 117361, Control_c, 0, 64, 0
1, 117379, Note_off_c, 0, 81, 58
1, 117390, Note_off_c, 0, 37, 49
1, 117394, Note_off_c, 0, 40, 43
1, 117398, Poly_aftertouch_c, 0, 38, 127
1, 117412, Note_on_c, 0, 45, 100
1, 117417, Note_on_c, 0, 33, 87
1, 117417, Note_off_c, 0, 39, 37
1, 117426, Poly_aftertouch_c, 0, 38, 0
1, 117436, Control_c, 0, 64, 67
1, 117444, Note_off_c, 0, 33, 63
1, 117451, Control_c, 0, 64, 106
1, 117456, Note_off_c, 0, 45, 68
1, 117465, Control_c, 0, 64, 127
1, 117472, Note_on_c, 0, 88, 97
1, 117474, Note_on_c, 0, 76, 99
1, 117480, Note_on_c, 0, 84, 77
1, 117501, Note_off_c, 0, 84, 71
1, 117501, Note_off_c, 0, 88, 61
1, 117502, Note_on_c, 0, 77, 45
1, 117503, Note_off_c, 0, 77, 127
1, 117505, Note_off_c, 0, 76, 62
1, 117510, Poly_aftertouch_c, 0, 35, 127
1, 117548, Poly_aftertouch_c, 0, 35, 0
1, 117568, Note_on_c, 0, 71, 96
1, 117575, Note_on_c, 0, 83, 83
1, 117593, Note_off_c, 0, 71, 65
1, 117593, Note_off_c, 0, 83, 71
1, 117665, Control_c, 0, 64, 103
1, 117669, Note_on_c, 0, 62, 96
1, 117674, Note_on_c, 0, 59, 91
1, 117680, Control_c, 0, 64, 75
1, 117689, Note_off_c, 0, 62, 70
1, 117695, Control_c, 0, 64, 63
1, 117710, Control_c, 0, 64, 64
1, 117713, Note_off_c, 0, 59, 66
1, 117725, Control_c, 0, 64, 66
1, 117739, Control_c, 0, 64, 64
1, 117754, Control_c, 0, 64, 49
1, 117769, Control_c, 0, 64, 0
1, 117793, Note_on_c, 0, 50, 97
1, 117800, Note_on_c, 0, 38, 80
1, 117828, Note_off_c, 0, 38, 65
1, 117834, Note_off_c, 0, 50, 69
1, 117859, Note_on_c, 0, 69, 97
1, 117861, Note_on_c, 0, 81, 93
1, 117868, Note_on_c, 0, 78, 90
1, 117878, Note_on_c, 0, 74, 72
1, 117897, Poly_aftertouch_c, 0, 43, 0
1, 117937, Note_on_c, 0, 60, 93
1, 117939, Note_on_c, 0, 57, 91
1, 117947, Control_c, 0, 64, 84
1, 117957, Note_off_c, 0, 60, 71
1, 117962, Control_c, 0, 64, 127
1, 117976, Note_off_c, 0, 57, 65
1, 117976, Note_off_c, 0, 69, 59
1, 117992, Note_off_c, 0, 81, 61
1, 118004, Note_off_c, 0, 74, 62
1, 118026, Note_off_c, 0, 78, 60
1, 118088, Note_on_c, 0, 71, 92
1, 118090, Note_on_c, 0, 83, 90
1, 118094, Note_on_c, 0, 79, 77
1, 118114, Note_off_c, 0, 79, 69
1, 118117, Note_off_c, 0, 71, 59
1, 118122, Note_on_c, 0, 74, 25
1, 118126, Note_off_c, 0, 83, 59
1, 118133, Note_on_c, 0, 36, 28
1, 118158, Note_off_c, 0, 74, 53
1, 118163, Poly_aftertouch_c, 0, 37, 127
1, 118174, Note_on_c, 0, 43, 97
1, 118176, Poly_aftertouch_c, 0, 78, 0
1, 118179, Note_on_c, 0, 72, 88
1, 118180, Note_on_c, 0, 31, 92
1, 118181, Note_on_c, 0, 84, 93
1, 118181, Note_off_c, 0, 36, 46
1, 118184, Control_c, 0, 64, 109
1, 118184, Note_on_c, 0, 81, 94
1, 118187, Note_on_c, 0, 34, 38
1, 118192, Note_on_c, 0, 78, 43
1, 118198, Control_c, 0, 64, 76
1, 118207, Poly_aftertouch_c, 0, 37, 0
1, 118213, Control_c, 0, 64, 0
1, 118219, Note_off_c, 0, 34, 57
1, 118223, Note_off_c, 0, 84, 63
1, 118228, Note_off_c, 0, 72, 63
1, 118228, Note_off_c, 0, 81, 61
1, 118230, Note_off_c, 0, 43, 64
1, 118231, Note_off_c, 0, 78, 53
1, 118253, Note_off_c, 0, 31, 62
1, 118336, Note_on_c, 0, 42, 102
1, 118340, Note_on_c, 0, 30, 96
1, 118370, Control_c, 0, 64, 36
1, 118373, Note_off_c, 0, 30, 67
1, 118384, Note_off_c, 0, 42, 66
1, 118385, Control_c, 0, 64, 90
1, 118386, Note_on_c, 0, 43, 54
1, 118400, Control_c, 0, 64, 127
1, 118419, Note_off_c, 0, 43, 56
1, 118434, Note_on_c, 0, 69, 99
1, 118436, Note_on_c, 0, 81, 96
1, 118438, Note_on_c, 0, 77, 87
1, 118444, Note_on_c, 0, 72, 80
1, 118474, Note_off_c, 0, 72, 56
1, 118511, Note_off_c, 0, 69, 60
1, 118513, Note_off_c, 0, 77, 61
1, 118536, Note_off_c, 0, 81, 64
1, 118582, Note_on_c, 0, 60, 88
1, 118583, Note_on_c, 0, 57, 87
1, 118601, Note_off_c, 0, 60, 74
1, 118621, Note_off_c, 0, 57, 65
1, 118681, Control_c, 0, 64, 86
1, 118696, Control_c, 0, 64, 0
1, 118710, Note_on_c, 0, 71, 98
1, 118712, Note_on_c, 0, 83, 90
1, 118713, Note_on_c, 0, 80, 80
1, 118719, Note_on_c, 0, 76, 86
1, 118740, Note_on_c, 0, 84, 40
1, 118741, Note_off_c, 0, 84, 127
1, 118798, Poly_aftertouch_c, 0, 39, 127
1, 118822, Note_on_c, 0, 47, 99
1, 118828, Note_on_c, 0, 35, 81
1, 118831, Poly_aftertouch_c, 0, 39, 0
1, 118853, Note_off_c, 0, 35, 66
1, 118865, Note_off_c, 0, 47, 69
1, 118980, Note_off_c, 0, 80, 37
1, 118999, Note_on_c, 0, 59, 97
1, 119007, Note_on_c, 0, 56, 71
1, 119007, Note_off_c, 0, 76, 0
1, 119010, Note_on_c, 0, 55, 88
1, 119018, Note_off_c, 0, 59, 68
1, 119021, Control_c, 0, 64, 84
1, 119027, Note_off_c, 0, 56, 69
1, 119033, Note_off_c, 0, 55, 70
1, 119037, Control_c, 0, 64, 127
1, 119044, Note_on_c, 0, 76, 4
1, 119044, Note_off_c, 0, 83, 61
1, 119058, Note_off_c, 0, 71, 60
1, 119145, Note_on_c, 0, 40, 94
1, 119155, Note_on_c, 0, 28, 66
1, 119173, Note_on_c, 0, 29, 52
1, 119174, Note_off_c, 0, 76, 43
1, 119185, Note_off_c, 0, 40, 66
1, 119188, Note_off_c, 0, 28, 54
1, 119213, Note_off_c, 0, 29, 51
1, 119234, Note_on_c, 0, 73, 102
1, 119235, Note_on_c, 0, 85, 93
1, 119241, Note_on_c, 0, 81, 80
1, 119250, Note_on_c, 0, 76, 70
1, 119262, Note_on_c, 0, 80, 45
1, 119267, Control_c, 0, 64, 93
1, 119272, Note_off_c, 0, 76, 63
1, 119282, Control_c, 0, 64, 60
1, 119288, Note_off_c, 0, 80, 35
1, 119292, Note_off_c, 0, 81, 64
1, 119296, Control_c, 0, 64, 0
1, 119303, Note_off_c, 0, 73, 63
1, 119307, Note_off_c, 0, 85, 65
1, 119344, Poly_aftertouch_c, 0, 38, 127
1, 119368, Note_on_c, 0, 45, 101
1, 119376, Note_on_c, 0, 33, 83
1, 119376, Poly_aftertouch_c, 0, 40, 0
1, 119381, Poly_aftertouch_c, 0, 38, 0
1, 119400, Note_off_c, 0, 33, 64
1, 119400, Control_c, 0, 64, 74
1, 119411, Note_off_c, 0, 45, 68
1, 119415, Control_c, 0, 64, 127
1, 119424, Note_on_c, 0, 35, 29
1, 119451, Note_on_c, 0, 74, 94
1, 119452, Note_on_c, 0, 81, 74
1, 119453, Note_on_c, 0, 86, 94
1, 119469, Note_off_c, 0, 35, 48
1, 119471, Note_on_c, 0, 83, 66
1, 119474, Note_off_c, 0, 81, 70
1, 119477, Note_off_c, 0, 74, 63
1, 119488, Note_off_c, 0, 83, 65
1, 119497, Note_off_c, 0, 86, 66
1, 119499, Note_on_c, 0, 76, 14
1, 119500, Note_off_c, 0, 76, 127
1, 119544, Poly_aftertouch_c, 0, 76, 0
1, 119551, Note_on_c, 0, 78, 101
1, 119552, Note_on_c, 0, 90, 101
1, 119557, Note_on_c, 0, 87, 91
1, 119579, Note_off_c, 0, 87, 68
1, 119585, Note_off_c, 0, 78, 66
1, 119590, Note_off_c, 0, 90, 62
1, 119608, Control_c, 0, 64, 80
1, 119623, Control_c, 0, 64, 0
1, 119663, Note_on_c, 0, 62, 83
1, 119665, Note_on_c, 0, 59, 86
1, 119683, Note_off_c, 0, 62, 69
1, 119687, Note_off_c, 0, 59, 66
1, 119697, Note_on_c, 0, 58, 31
1, 119701, Note_on_c, 0, 82, 58
1, 119732, Note_off_c, 0, 58, 32
1, 119741, Control_c, 0, 64, 63
1, 119749, Note_off_c, 0, 82, 59
1, 119755, Control_c, 0, 64, 127
1, 119781, Note_on_c, 0, 88, 104
1, 119781, Note_on_c, 0, 76, 110
1, 119788, Note_on_c, 0, 80, 89
1, 119791, Note_on_c, 0, 83, 81
1, 119799, Note_on_c, 0, 85, 63
1, 119816, Note_off_c, 0, 88, 64
1, 119817, Note_off_c, 0, 83, 62
1, 119817, Note_off_c, 0, 85, 65
1, 119819, Note_off_c, 0, 76, 64
1, 119834, Note_off_c, 0, 80, 64
1, 119843, Note_on_c, 0, 42, 23
1, 119853, Note_on_c, 0, 44, 13
1, 119904, Note_off_c, 0, 42, 48
1, 119909, Note_on_c, 0, 50, 94
1, 119914, Note_on_c, 0, 38, 78
1, 119916, Note_off_c, 0, 44, 46
1, 119936, Note_off_c, 0, 38, 64
1, 119944, Note_off_c, 0, 50, 70
1, 120014, Note_on_c, 0, 64, 92
1, 120020, Note_on_c, 0, 76, 85
1, 120024, Note_on_c, 0, 68, 72
1, 120038, Note_on_c, 0, 72, 56
1, 120038, Note_off_c, 0, 64, 68
1, 120041, Note_off_c, 0, 76, 62
1, 120050, Note_on_c, 0, 57, 82
1, 120050, Note_on_c, 0, 61, 83
1, 120050, Note_off_c, 0, 68, 64
1, 120059, Note_off_c, 0, 72, 62
1, 120070, Note_off_c, 0, 61, 68
1, 120076, Note_off_c, 0, 57, 65
1, 120193, Control_c, 0, 64, 118
1, 120194, Note_on_c, 0, 42, 96
1, 120194, Note_on_c, 0, 75, 50
1, 120196, Note_on_c, 0, 66, 85
1, 120197, Note_on_c, 0, 78, 95
1, 120199, Note_on_c, 0, 30, 78
1, 120207, Poly_aftertouch_c, 0, 61, 0
1, 120208, Control_c, 0, 64, 74
1, 120212, Note_on_c, 0, 74, 69
1, 120218, Note_off_c, 0, 66, 68
1, 120219, Note_off_c, 0, 75, 59
1, 120222, Note_on_c, 0, 32, 41
1, 120223, Note_off_c, 0, 42, 66
1, 120223, Control_c, 0, 64, 0
1, 120228, Note_off_c, 0, 30, 61
1, 120231, Note_off_c, 0, 74, 64
1, 120240, Note_off_c, 0, 78, 67
1, 120259, Note_off_c, 0, 32, 53
1, 120327, Control_c, 0, 64, 67
1, 120338, Note_on_c, 0, 69, 92
1, 120338, Note_on_c, 0, 81, 92
1, 120342, Control_c, 0, 64, 127
1, 120342, Note_on_c, 0, 56, 57
1, 120345, Note_on_c, 0, 76, 75
1, 120353, Note_on_c, 0, 71, 74
1, 120353, Note_on_c, 0, 73, 60
1, 120354, Note_off_c, 0, 73, 127
1, 120354, Note_off_c, 0, 81, 76
1, 120361, Note_off_c, 0, 76, 70
1, 120366, Note_off_c, 0, 69, 60
1, 120371, Note_off_c, 0, 71, 69
1, 120375, Note_off_c, 0, 56, 61
1, 120401, Poly_aftertouch_c, 0, 74, 127
1, 120422, Note_on_c, 0, 61, 93
1, 120428, Poly_aftertouch_c, 0, 74, 0
1, 120442, Note_off_c, 0, 61, 70
1, 120446, Poly_aftertouch_c, 0, 77, 0
1, 120506, Note_on_c, 0, 64, 89
1, 120512, Note_on_c, 0, 76, 74
1, 120512, Poly_aftertouch_c, 0, 54, 0
1, 120525, Note_on_c, 0, 72, 54
1, 120526, Note_off_c, 0, 72, 127
1, 120526, Note_off_c, 0, 64, 73
1, 120534, Note_off_c, 0, 76, 67
1, 120534, Control_c, 0, 64, 93
1, 120544, Note_on_c, 0, 74, 8
1, 120547, Poly_aftertouch_c, 0, 72, 0
1, 120549, Control_c, 0, 64, 69
1, 120564, Control_c, 0, 64, 0
1, 120568, Note_on_c, 0, 69, 3
1, 120583, Note_off_c, 0, 74, 0
1, 120586, Note_on_c, 0, 66, 89
1, 120591, Poly_aftertouch_c, 0, 74, 0
1, 120596, Note_on_c, 0, 77, 83
1, 120609, Note_on_c, 0, 75, 68
1, 120614, Note_off_c, 0, 69, 38
1, 120622, Note_off_c, 0, 66, 62
1, 120623, Note_off_c, 0, 77, 72
1, 120625, Note_on_c, 0, 70, 38
1, 120633, Note_off_c, 0, 75, 68
1, 120634, Note_off_c, 0, 70, 46
1, 120665, Note_on_c, 0, 41, 90
1, 120667, Note_on_c, 0, 40, 80
1, 120669, Note_on_c, 0, 28, 66
1, 120692, Note_off_c, 0, 40, 65
1, 120694, Note_off_c, 0, 41, 67
1, 120699, Note_off_c, 0, 28, 55
1, 120700, Note_on_c, 0, 29, 38
1, 120701, Note_off_c, 0, 29, 127
1, 120720, Control_c, 0, 64, 57
1, 120735, Control_c, 0, 64, 106
1, 120746, Note_on_c, 0, 73, 90
1, 120750, Control_c, 0, 64, 127
1, 120752, Note_on_c, 0, 69, 69
1, 120757, Note_on_c, 0, 71, 67
1, 120760, Note_on_c, 0, 81, 60
1, 120765, Note_off_c, 0, 73, 71
1, 120776, Note_off_c, 0, 69, 69
1, 120776, Note_off_c, 0, 71, 66
1, 120777, Note_on_c, 0, 83, 32
1, 120778, Note_off_c, 0, 81, 65
1, 120782, Note_on_c, 0, 76, 22
1, 120807, Note_off_c, 0, 83, 58
1, 120813, Note_on_c, 0, 55, 78
1, 120815, Note_on_c, 0, 52, 83
1, 120825, Note_off_c, 0, 76, 50
1, 120838, Note_off_c, 0, 55, 67
1, 120843, Note_off_c, 0, 52, 67
1, 120848, Note_on_c, 0, 64, 98
1, 120857, Note_on_c, 0, 72, 81
1, 120857, Note_on_c, 0, 76, 76
1, 120877, Note_on_c, 0, 67, 46
1, 120878, Note_off_c, 0, 72, 69
1, 120879, Note_off_c, 0, 64, 65
1, 120884, Control_c, 0, 64, 101
1, 120893, Note_off_c, 0, 76, 59
1, 120898, Control_c, 0, 64, 65
1, 120903, Note_off_c, 0, 67, 56
1, 120913, Control_c, 0, 64, 0
1, 120938, Note_on_c, 0, 38, 96
1, 120941, Note_on_c, 0, 26, 79
1, 120968, Note_off_c, 0, 26, 64
1, 120972, Control_c, 0, 64, 72
1, 120977, Note_off_c, 0, 38, 63
1, 120987, Control_c, 0, 64, 127
1, 121014, Note_on_c, 0, 69, 93
1, 121018, Note_on_c, 0, 77, 83
1, 121019, Note_on_c, 0, 81, 82
1, 121035, Note_off_c, 0, 69, 69
1, 121036, Note_off_c, 0, 81, 74
1, 121039, Note_off_c, 0, 77, 68
1, 121055, Note_on_c, 0, 71, 18
1, 121056, Note_off_c, 0, 71, 127
1, 121063, Poly_aftertouch_c, 0, 28, 0
1, 121081, Note_on_c, 0, 57, 78
1, 121083, Note_on_c, 0, 60, 71
1, 121096, Poly_aftertouch_c, 0, 71, 0
1, 121102, Note_off_c, 0, 60, 67
1, 121105, Note_off_c, 0, 57, 69
1, 121109, Note_on_c, 0, 73, 91
1, 121115, Note_on_c, 0, 85, 95
1, 121121, Note_on_c, 0, 82, 86
1, 121138, Note_off_c, 0, 82, 73
1, 121150, Control_c, 0, 64, 76
1, 121151, Note_off_c, 0, 85, 63
1, 121153, Note_off_c, 0, 73, 64
1, 121164, Control_c, 0, 64, 0
1, 121230, Note_on_c, 0, 45, 100
1, 121236, Note_on_c, 0, 78, 24
1, 121239, Control_c, 0, 64, 21
1, 121239, Note_on_c, 0, 33, 84
1, 121253, Control_c, 0, 64, 88
1, 121255, Note_on_c, 0, 35, 64
1, 121263, Note_off_c, 0, 78, 32
1, 121268, Control_c, 0, 64, 127
1, 121275, Note_on_c, 0, 37, 24
1, 121284, Note_off_c, 0, 35, 60
1, 121287, Note_off_c, 0, 45, 64
1, 121290, Note_on_c, 0, 83, 96
1, 121293, Note_on_c, 0, 71, 91
1, 121299, Note_on_c, 0, 79, 76
1, 121309, Note_on_c, 0, 77, 62
1, 121311, Note_off_c, 0, 71, 73
1, 121321, Note_on_c, 0, 72, 51
1, 121323, Note_off_c, 0, 37, 46
1, 121328, Note_off_c, 0, 77, 63
1, 121331, Note_off_c, 0, 79, 60
1, 121331, Note_off_c, 0, 83, 66
1, 121344, Note_off_c, 0, 72, 61
1, 121402, Note_on_c, 0, 88, 99
1, 121407, Note_on_c, 0, 77, 77
1, 121407, Note_on_c, 0, 76, 74
1, 121424, Note_off_c, 0, 77, 68
1, 121430, Note_off_c, 0, 33, 53
1, 121431, Note_off_c, 0, 76, 69
1, 121433, Note_off_c, 0, 88, 59
1, 121435, Note_on_c, 0, 37, 35
1, 121454, Control_c, 0, 64, 75
1, 121469, Control_c, 0, 64, 0
1, 121473, Note_off_c, 0, 37, 50
1, 121520, Note_on_c, 0, 43, 104
1, 121526, Note_on_c, 0, 31, 86
1, 121550, Note_off_c, 0, 31, 65
1, 121554, Note_on_c, 0, 34, 40
1, 121567, Note_off_c, 0, 43, 67
1, 121573, Control_c, 0, 64, 64
1, 121588, Note_on_c, 0, 80, 47
1, 121588, Control_c, 0, 64, 95
1, 121592, Note_off_c, 0, 34, 33
1, 121603, Control_c, 0, 64, 127
1, 121647, Control_c, 0, 64, 86
1, 121653, Note_off_c, 0, 80, 38
1, 121662, Control_c, 0, 64, 0
1, 121686, Note_on_c, 0, 86, 101
1, 121687, Note_on_c, 0, 74, 110
1, 121691, Note_on_c, 0, 78, 94
1, 121693, Note_on_c, 0, 81, 87
1, 121751, Control_c, 0, 64, 70
1, 121765, Control_c, 0, 64, 127
1, 121777, Note_on_c, 0, 57, 84
1, 121778, Note_on_c, 0, 54, 88
1, 121796, Note_off_c, 0, 57, 70
1, 121817, Note_off_c, 0, 54, 68
1, 121943, Control_c, 0, 64, 90
1, 121957, Control_c, 0, 64, 0
1, 121959, Note_on_c, 0, 40, 100
1, 121968, Note_on_c, 0, 28, 86
1, 121999, Note_on_c, 0, 30, 36
1, 122017, Control_c, 0, 64, 68
1, 122032, Control_c, 0, 64, 94
1, 122047, Control_c, 0, 64, 127
1, 122052, Note_off_c, 0, 40, 63
1, 122062, Note_off_c, 0, 74, 59
1, 122068, Note_off_c, 0, 28, 55
1, 122077, Note_off_c, 0, 86, 60
1, 122087, Note_off_c, 0, 81, 62
1, 122089, Note_off_c, 0, 78, 51
1, 122099, Note_on_c, 0, 32, 14
1, 122128, Note_off_c, 0, 30, 40
1, 122169, Note_on_c, 0, 39, 103
1, 122172, Note_on_c, 0, 27, 94
1, 122174, Note_off_c, 0, 32, 41
1, 122199, Note_off_c, 0, 27, 68
1, 122215, Note_off_c, 0, 39, 64
1, 122239, Note_on_c, 0, 78, 24
1, 122244, Note_on_c, 0, 87, 40
1, 122276, Note_off_c, 0, 87, 49
1, 122276, Note_off_c, 0, 78, 53
1, 122278, Control_c, 0, 64, 69
1, 122293, Control_c, 0, 64, 0
1, 122306, Note_on_c, 0, 90, 101
1, 122307, Note_on_c, 0, 78, 99
1, 122310, Note_on_c, 0, 84, 88
1, 122318, Note_on_c, 0, 87, 83
1, 122352, Control_c, 0, 64, 64
1, 122365, Note_off_c, 0, 90, 67
1, 122366, Note_off_c, 0, 84, 61
1, 122367, Control_c, 0, 64, 127
1, 122383, Note_off_c, 0, 87, 64
1, 122412, Note_off_c, 0, 78, 56
1, 122425, Note_on_c, 0, 55, 74
1, 122427, Note_on_c, 0, 59, 89
1, 122448, Note_off_c, 0, 59, 65
1, 122469, Note_off_c, 0, 55, 65
1, 122540, Note_on_c, 0, 84, 78
1, 122543, Note_on_c, 0, 88, 94
1, 122545, Note_on_c, 0, 76, 89
1, 122560, Note_on_c, 0, 79, 67
1, 122594, Note_on_c, 0, 80, 4
1, 122595, Note_off_c, 0, 80, 127
1, 122601, Note_off_c, 0, 79, 44
1, 122612, Note_off_c, 0, 88, 60
1, 122630, Note_off_c, 0, 76, 53
1, 122658, Poly_aftertouch_c, 0, 32, 127
1, 122665, Note_off_c, 0, 84, 56
1, 122672, Note_on_c, 0, 38, 93
1, 122680, Note_on_c, 0, 26, 82
1, 122706, Poly_aftertouch_c, 0, 32, 0
1, 122717, Note_off_c, 0, 38, 65
1, 122721, Note_off_c, 0, 26, 62
1, 122735, Note_on_c, 0, 86, 93
1, 122738, Note_on_c, 0, 74, 91
1, 122746, Note_on_c, 0, 82, 82
1, 122771, Note_off_c, 0, 74, 61
1, 122771, Note_off_c, 0, 82, 62
1, 122790, Note_off_c, 0, 86, 63
1, 122795, Note_on_c, 0, 37, 92
1, 122802, Note_on_c, 0, 25, 85
1, 122811, Control_c, 0, 64, 86
1, 122813, Note_on_c, 0, 27, 66
1, 122825, Control_c, 0, 64, 0
1, 122830, Note_on_c, 0, 32, 31
1, 122831, Note_off_c, 0, 32, 127
1, 122837, Note_off_c, 0, 37, 64
1, 122841, Note_off_c, 0, 25, 63
1, 122843, Note_on_c, 0, 30, 16
1, 122844, Note_off_c, 0, 30, 127
1, 122845, Note_off_c, 0, 27, 63
1, 122902, Note_on_c, 0, 36, 108
1, 122911, Note_on_c, 0, 24, 85
1, 122925, Note_on_c, 0, 27, 60
1, 122937, Control_c, 0, 64, 71
1, 122939, Note_off_c, 0, 24, 63
1, 122943, Note_off_c, 0, 36, 66
1, 122951, Note_on_c, 0, 26, 46
1, 122952, Note_off_c, 0, 26, 127
1, 122952, Control_c, 0, 64, 127
1, 122957, Note_on_c, 0, 89, 97
1, 122957, Note_off_c, 0, 27, 58
1, 122958, Note_on_c, 0, 77, 104
1, 122968, Note_on_c, 0, 84, 73
1, 122971, Note_on_c, 0, 87, 74
1, 122974, Note_on_c, 0, 82, 79
1, 122978, Note_on_c, 0, 85, 56
1, 122985, Note_on_c, 0, 81, 54
1, 122986, Poly_aftertouch_c, 0, 26, 0
1, 122986, Note_off_c, 0, 84, 67
1, 122992, Note_off_c, 0, 87, 72
1, 122992, Note_off_c, 0, 89, 61
1, 122992, Note_off_c, 0, 82, 68
1, 122999, Note_off_c, 0, 77, 64
1, 122999, Note_off_c, 0, 85, 61
1, 123005, Note_off_c, 0, 81, 62
1, 123011, Control_c, 0, 64, 104
1, 123026, Control_c, 0, 64, 57
1, 123042, Control_c, 0, 64, 0
1, 123132, Note_on_c, 0, 57, 70
1, 123137, Note_on_c, 0, 60, 90
1, 123158, Note_off_c, 0, 60, 70
1, 123170, Note_off_c, 0, 57, 64
1, 123175, Control_c, 0, 64, 62
1, 123187, Note_on_c, 0, 72, 102
1, 123187, Note_on_c, 0, 84, 92
1, 123190, Control_c, 0, 64, 127
1, 123192, Note_on_c, 0, 76, 91
1, 123196, Note_on_c, 0, 79, 83
1, 123210, Note_on_c, 0, 82, 64
1, 123221, Note_off_c, 0, 84, 64
1, 123224, Note_off_c, 0, 79, 58
1, 123230, Note_off_c, 0, 72, 59
1, 123230, Note_off_c, 0, 82, 62
1, 123236, Note_off_c, 0, 76, 63
1, 123314, Note_on_c, 0, 46, 6
1, 123351, Note_on_c, 0, 53, 91
1, 123356, Note_on_c, 0, 41, 84
1, 123372, Note_off_c, 0, 46, 51
1, 123378, Note_off_c, 0, 53, 65
1, 123389, Poly_aftertouch_c, 0, 44, 0
1, 123392, Note_on_c, 0, 69, 85
1, 123396, Note_on_c, 0, 81, 77
1, 123397, Note_on_c, 0, 77, 78
1, 123404, Note_off_c, 0, 41, 64
1, 123416, Note_off_c, 0, 81, 68
1, 123422, Note_off_c, 0, 77, 68
1, 123426, Note_off_c, 0, 69, 61
1, 123436, Poly_aftertouch_c, 0, 44, 0
1, 123488, Note_on_c, 0, 46, 94
1, 123490, Note_on_c, 0, 65, 93
1, 123491, Note_on_c, 0, 34, 90
1, 123498, Note_on_c, 0, 77, 93
1, 123507, Note_on_c, 0, 75, 73
1, 123510, Note_off_c, 0, 34, 65
1, 123510, Note_off_c, 0, 46, 68
1, 123523, Note_off_c, 0, 75, 68
1, 123525, Note_on_c, 0, 47, 44
1, 123525, Note_off_c, 0, 65, 64
1, 123528, Note_on_c, 0, 37, 28
1, 123541, Note_off_c, 0, 77, 60
1, 123545, Control_c, 0, 64, 96
1, 123555, Note_off_c, 0, 47, 56
1, 123560, Control_c, 0, 64, 65
1, 123567, Note_off_c, 0, 37, 55
1, 123575, Control_c, 0, 64, 0
1, 123589, Poly_aftertouch_c, 0, 48, 0
1, 123679, Note_on_c, 0, 79, 95
1, 123682, Note_on_c, 0, 67, 93
1, 123684, Note_on_c, 0, 74, 71
1, 123696, Note_on_c, 0, 71, 71
1, 123703, Note_on_c, 0, 72, 69
1, 123725, Note_on_c, 0, 75, 26
1, 123726, Note_off_c, 0, 75, 127
1, 123750, Note_off_c, 0, 72, 44
1, 123770, Note_on_c, 0, 65, 85
1, 123772, Note_on_c, 0, 62, 87
1, 123789, Note_off_c, 0, 65, 71
1, 123798, Note_off_c, 0, 62, 65
1, 123803, Control_c, 0, 64, 54
1, 123818, Control_c, 0, 64, 127
1, 123823, Note_off_c, 0, 71, 57
1, 123827, Note_off_c, 0, 74, 64
1, 123838, Note_off_c, 0, 79, 45
1, 123842, Note_off_c, 0, 67, 57
1, 123884, Note_on_c, 0, 50, 100
1, 123891, Note_on_c, 0, 38, 85
1, 123918, Note_off_c, 0, 38, 69
1, 123919, Note_off_c, 0, 50, 69
1, 123967, Control_c, 0, 64, 89
1, 123982, Control_c, 0, 64, 64
1, 123996, Note_on_c, 0, 69, 3
1, 123997, Control_c, 0, 64, 64
1, 124005, Note_on_c, 0, 61, 96
1, 124006, Note_on_c, 0, 64, 90
1, 124012, Control_c, 0, 64, 77
1, 124025, Note_off_c, 0, 64, 73
1, 124026, Note_on_c, 0, 66, 90
1, 124026, Control_c, 0, 64, 96
1, 124029, Note_on_c, 0, 78, 86
1, 124035, Note_off_c, 0, 69, 37
1, 124041, Note_on_c, 0, 74, 58
1, 124041, Control_c, 0, 64, 127
1, 124044, Note_off_c, 0, 61, 66
1, 124063, Note_off_c, 0, 74, 65
1, 124067, Note_off_c, 0, 66, 60
1, 124070, Note_off_c, 0, 78, 66
1, 124086, Control_c, 0, 64, 112
1, 124101, Control_c, 0, 64, 67
1, 124116, Control_c, 0, 64, 0
1, 124121, Note_on_c, 0, 69, 92
1, 124129, Note_on_c, 0, 76, 84
1, 124129, Note_on_c, 0, 81, 82
1, 124131, Note_on_c, 0, 73, 85
1, 124149, Note_on_c, 0, 79, 59
1, 124159, Note_off_c, 0, 69, 64
1, 124161, Note_off_c, 0, 73, 57
1, 124169, Note_off_c, 0, 79, 39
1, 124172, Note_off_c, 0, 76, 56
1, 124172, Note_off_c, 0, 81, 64
1, 124190, Note_on_c, 0, 39, 12
1, 124219, Poly_aftertouch_c, 0, 37, 127
1, 124229, Note_on_c, 0, 45, 105
1, 124237, Note_off_c, 0, 39, 39
1, 124238, Note_on_c, 0, 33, 88
1, 124248, Poly_aftertouch_c, 0, 37, 0
1, 124249, Control_c, 0, 64, 114
1, 124262, Note_off_c, 0, 33, 64
1, 124264, Control_c, 0, 64, 127
1, 124277, Note_off_c, 0, 45, 69
1, 124308, Note_on_c, 0, 86, 93
1, 124315, Note_on_c, 0, 74, 83
1, 124318, Note_on_c, 0, 78, 70
1, 124319, Note_on_c, 0, 76, 74
1, 124319, Note_on_c, 0, 81, 66
1, 124324, Note_off_c, 0, 86, 75
1, 124335, Note_off_c, 0, 74, 73
1, 124336, Note_off_c, 0, 81, 67
1, 124340, Note_off_c, 0, 78, 70
1, 124342, Note_off_c, 0, 76, 68
1, 124405, Control_c, 0, 64, 69
1, 124407, Note_on_c, 0, 46, 25
1, 124408, Note_on_c, 0, 71, 91
1, 124410, Note_on_c, 0, 83, 85
1, 124413, Note_on_c, 0, 44, 31
1, 124420, Control_c, 0, 64, 0
1, 124420, Note_on_c, 0, 81, 64
1, 124421, Note_on_c, 0, 69, 63
1, 124422, Note_off_c, 0, 69, 127
1, 124426, Note_on_c, 0, 42, 9
1, 124432, Note_off_c, 0, 71, 65
1, 124437, Note_off_c, 0, 83, 65
1, 124438, Note_off_c, 0, 81, 66
1, 124442, Note_on_c, 0, 74, 32
1, 124443, Note_off_c, 0, 74, 127
1, 124445, Note_off_c, 0, 46, 50
1, 124452, Note_off_c, 0, 44, 54
1, 124476, Note_on_c, 0, 52, 104
1, 124477, Note_off_c, 0, 42, 0
1, 124486, Note_on_c, 0, 40, 82
1, 124503, Poly_aftertouch_c, 0, 42, 0
1, 124514, Note_off_c, 0, 52, 67
1, 124515, Note_off_c, 0, 40, 68
1, 124675, Note_on_c, 0, 62, 91
1, 124676, Note_on_c, 0, 59, 82
1, 124708, Note_off_c, 0, 62, 60
1, 124724, Note_off_c, 0, 59, 62
1, 124745, Note_on_c, 0, 88, 90
1, 124746, Note_on_c, 0, 76, 102
1, 124746, Control_c, 0, 64, 127
1, 124747, Note_on_c, 0, 84, 94
1, 124765, Note_on_c, 0, 79, 69
1, 124777, Note_off_c, 0, 88, 64
1, 124779, Note_on_c, 0, 80, 38
1, 124782, Note_off_c, 0, 79, 64
1, 124792, Note_off_c, 0, 84, 63
1, 124792, Note_off_c, 0, 76, 59
1, 124796, Poly_aftertouch_c, 0, 57, 127
1, 124805, Note_off_c, 0, 80, 56
1, 124887, Note_on_c, 0, 64, 89
1, 124893, Note_on_c, 0, 60, 78
1, 124903, Note_off_c, 0, 64, 74
1, 124917, Poly_aftertouch_c, 0, 57, 0
1, 124917, Note_off_c, 0, 60, 70
1, 125014, Note_on_c, 0, 68, 96
1, 125016, Note_on_c, 0, 80, 89
1, 125035, Note_on_c, 0, 74, 61
1, 125044, Note_on_c, 0, 76, 49
1, 125049, Note_on_c, 0, 42, 37
1, 125050, Note_off_c, 0, 68, 67
1, 125063, Note_off_c, 0, 74, 66
1, 125071, Note_off_c, 0, 80, 62
1, 125086, Note_off_c, 0, 76, 55
1, 125101, Note_off_c, 0, 42, 50
1, 125104, Poly_aftertouch_c, 0, 77, 127
1, 125126, Note_on_c, 0, 50, 84
1, 125134, Note_on_c, 0, 38, 77
1, 125141, Poly_aftertouch_c, 0, 77, 0
1, 125155, Note_off_c, 0, 50, 67
1, 125165, Note_off_c, 0, 38, 66
1, 125181, Note_on_c, 0, 81, 79
1, 125183, Note_on_c, 0, 69, 81
1, 125196, Note_on_c, 0, 76, 49
1, 125200, Note_off_c, 0, 81, 70
1, 125205, Note_off_c, 0, 69, 69
1, 125210, Note_on_c, 0, 73, 36
1, 125224, Note_off_c, 0, 76, 57
1, 125226, Note_on_c, 0, 48, 50
1, 125235, Note_on_c, 0, 36, 84
1, 125242, Note_off_c, 0, 73, 53
1, 125260, Note_on_c, 0, 47, 39
1, 125261, Note_off_c, 0, 47, 127
1, 125264, Note_off_c, 0, 36, 66
1, 125269, Note_off_c, 0, 48, 64
1, 125278, Note_on_c, 0, 39, 20
1, 125296, Poly_aftertouch_c, 0, 47, 0
1, 125327, Note_on_c, 0, 47, 89
1, 125331, Note_on_c, 0, 35, 84
1, 125335, Note_off_c, 0, 39, 42
1, 125338, Note_on_c, 0, 73, 44
1, 125355, Note_off_c, 0, 35, 67
1, 125371, Note_off_c, 0, 47, 67
1, 125372, Note_on_c, 0, 37, 27
1, 125391, Control_c, 0, 64, 120
1, 125393, Note_off_c, 0, 73, 45
1, 125406, Control_c, 0, 64, 87
1, 125414, Note_off_c, 0, 37, 49
1, 125421, Control_c, 0, 64, 67
1, 125435, Note_on_c, 0, 66, 100
1, 125436, Control_c, 0, 64, 0
1, 125437, Note_on_c, 0, 75, 88
1, 125439, Note_on_c, 0, 52, 107
1, 125439, Note_on_c, 0, 78, 90
1, 125448, Note_on_c, 0, 40, 79
1, 125457, Note_on_c, 0, 69, 42
1, 125469, Note_on_c, 0, 42, 50
1, 125476, Note_off_c, 0, 52, 58
1, 125480, Note_off_c, 0, 40, 65
1, 125482, Note_off_c, 0, 69, 58
1, 125500, Note_off_c, 0, 42, 56
1, 125511, Note_off_c, 0, 66, 59
1, 125526, Note_off_c, 0, 75, 60
1, 125552, Note_on_c, 0, 50, 101
1, 125558, Note_off_c, 0, 78, 59
1, 125562, Note_on_c, 0, 38, 83
1, 125585, Note_on_c, 0, 42, 36
1, 125586, Note_off_c, 0, 42, 127
1, 125588, Note_off_c, 0, 50, 70
1, 125593, Note_off_c, 0, 38, 67
1, 125720, Note_on_c, 0, 43, 102
1, 125725, Note_on_c, 0, 71, 99
1, 125725, Note_on_c, 0, 31, 85
1, 125725, Note_on_c, 0, 79, 96
1, 125726, Note_on_c, 0, 74, 94
1, 125732, Control_c, 0, 64, 68
1, 125747, Note_off_c, 0, 79, 61
1, 125747, Control_c, 0, 64, 127
1, 125756, Note_off_c, 0, 31, 66
1, 125762, Note_off_c, 0, 71, 69
1, 125762, Note_off_c, 0, 74, 66
1, 125769, Note_on_c, 0, 33, 29
1, 125769, Note_on_c, 0, 34, 6
1, 125775, Note_off_c, 0, 43, 65
1, 125807, Note_off_c, 0, 33, 54
1, 125818, Note_off_c, 0, 34, 51
1, 125846, Poly_aftertouch_c, 0, 39, 0
1, 125947, Control_c, 0, 64, 126
1, 125962, Control_c, 0, 64, 108
1, 125977, Control_c, 0, 64, 98
1, 125992, Control_c, 0, 64, 91
1, 126006, Control_c, 0, 64, 85
1, 126021, Control_c, 0, 64, 79
1, 126036, Control_c, 0, 64, 73
1, 126050, Control_c, 0, 64, 67
1, 126065, Control_c, 0, 64, 61
1, 126080, Control_c, 0, 64, 56
1, 126095, Control_c, 0, 64, 54
1, 126155, Control_c, 0, 64, 53
1, 126169, Control_c, 0, 64, 50
1, 126184, Control_c, 0, 64, 46
1, 126199, Control_c, 0, 64, 39
1, 126214, Control_c, 0, 64, 33
1, 126229, Control_c, 0, 64, 28
1, 126244, Control_c, 0, 64, 19
1, 126259, Control_c, 0, 64, 0
1, 126334, End_track
0, 0, End_of_file
