0, 0, Header, 0, 1, 384
1, 0, Start_track
1, 0, Title_t, "Sonata 8, Op. 84--K. Shamray    "
1, 0, Text_t, "2006 International Piano-e-Competition Recital Round"
1, 0, Text_t, "St. Paul, Minnesota, July 2006"
1, 0, Text_t, "http://www.piano-e-competition.com/"
1, 0, Instrument_name_t, "Yamaha Disklavier Pro Mark IV concert grand piano"
1, 0, Sequencer_specific, 39, 67, 113, 0, 1, 0, 1, 0, 83, 111, 110, 97, 116, 97, 32, 56, 44, 32, 79, 112, 46, 32, 56, 52, 75, 46, 32, 83, 104, 97, 109, 114, 97, 121, 32, 32, 32, 32, 32, 32
1, 0, Sequencer_specific, 6, 67, 113, 0, 0, 0, 69
1, 0, System_exclusive, 21, 67, 113, 126, 21, 0, 2, 2, 0, 10, 10, 12, 4, 4, 10, 11, 15, 5, 6, 14, 1, 247
1, 0, Sequencer_specific, 5, 67, 123, 12, 2, 1
1, 0, Tempo, 512820
1, 0, Time_signature, 4, 2, 24, 8
1, 0, System_exclusive, 5, 126, 127, 9, 1, 247
1, 1, System_exclusive, 8, 67, 16, 76, 0, 0, 126, 0, 247
1, 2, System_exclusive, 8, 67, 16, 76, 8, 9, 7, 1, 247
1, 3, Control_c, 0, 0, 0
1, 4, Control_c, 0, 32, 0
1, 5, Program_c, 0, 0
1, 6, Control_c, 0, 7, 100
1, 95, Control_c, 0, 64, 15
1, 95, Control_c, 0, 67, 3
1, 184, Control_c, 0, 64, 31
1, 184, Control_c, 0, 67, 7
1, 273, Control_c, 0, 64, 46
1, 273, Control_c, 0, 67, 10
1, 362, Control_c, 0, 64, 63
1, 362, Control_c, 0, 67, 14
1, 452, Control_c, 0, 64, 77
1, 452, Control_c, 0, 67, 17
1, 541, Control_c, 0, 64, 94
1, 541, Control_c, 0, 67, 21
1, 630, Control_c, 0, 64, 108
1, 630, Control_c, 0, 67, 24
1, 719, Control_c, 0, 64, 127
1, 719, Control_c, 0, 67, 29
1, 908, Note_on_c, 0, 62, 49
1, 992, Note_on_c, 0, 34, 26
1, 1328, Control_c, 0, 67, 31
1, 1343, Control_c, 0, 67, 33
1, 1357, Control_c, 0, 67, 39
1, 1372, Control_c, 0, 67, 47
1, 1387, Control_c, 0, 67, 54
1, 1402, Control_c, 0, 67, 60
1, 1417, Control_c, 0, 67, 65
1, 1431, Control_c, 0, 67, 72
1, 1446, Control_c, 0, 67, 82
1, 1461, Control_c, 0, 67, 91
1, 1477, Control_c, 0, 67, 98
1, 1492, Control_c, 0, 67, 105
1, 1507, Control_c, 0, 67, 112
1, 1521, Control_c, 0, 67, 119
1, 1536, Control_c, 0, 67, 126
1, 1752, Note_on_c, 0, 53, 30
1, 1758, Note_on_c, 0, 41, 31
1, 2223, Note_on_c, 0, 60, 51
1, 2365, Note_off_c, 0, 62, 57
1, 2377, Note_off_c, 0, 34, 30
1, 2667, Note_on_c, 0, 57, 33
1, 2667, Note_on_c, 0, 48, 32
1, 2670, Note_off_c, 0, 41, 15
1, 2786, Note_off_c, 0, 48, 45
1, 2857, Note_off_c, 0, 53, 37
1, 3009, Note_on_c, 0, 63, 61
1, 3090, Note_off_c, 0, 60, 58
1, 3146, Note_off_c, 0, 57, 41
1, 3403, Note_on_c, 0, 59, 46
1, 3413, Note_on_c, 0, 56, 38
1, 3516, Note_off_c, 0, 63, 63
1, 3578, Note_off_c, 0, 56, 35
1, 3731, Note_on_c, 0, 64, 62
1, 3834, Note_off_c, 0, 59, 54
1, 4112, Note_on_c, 0, 57, 40
1, 4127, Note_on_c, 0, 60, 43
1, 4178, Note_off_c, 0, 57, 62
1, 4523, Note_on_c, 0, 72, 65
1, 4615, Note_off_c, 0, 64, 46
1, 4851, Control_c, 0, 64, 116
1, 4866, Control_c, 0, 64, 104
1, 4880, Control_c, 0, 64, 97
1, 4895, Control_c, 0, 64, 93
1, 4910, Control_c, 0, 64, 88
1, 4925, Control_c, 0, 64, 82
1, 4940, Control_c, 0, 64, 75
1, 4954, Control_c, 0, 64, 68
1, 4969, Control_c, 0, 64, 62
1, 4984, Control_c, 0, 64, 54
1, 4990, Note_on_c, 0, 34, 36
1, 4998, Control_c, 0, 64, 46
1, 5013, Control_c, 0, 64, 0
1, 5177, Control_c, 0, 64, 31
1, 5191, Control_c, 0, 64, 52
1, 5206, Control_c, 0, 64, 62
1, 5221, Control_c, 0, 64, 66
1, 5236, Control_c, 0, 64, 72
1, 5251, Control_c, 0, 64, 80
1, 5265, Control_c, 0, 64, 92
1, 5280, Control_c, 0, 64, 111
1, 5295, Control_c, 0, 64, 127
1, 5307, Note_on_c, 0, 69, 53
1, 5353, Note_on_c, 0, 49, 36
1, 5409, Note_off_c, 0, 34, 40
1, 5457, Note_off_c, 0, 72, 52
1, 5486, Note_off_c, 0, 49, 35
1, 5653, Note_on_c, 0, 65, 60
1, 5666, Note_on_c, 0, 57, 48
1, 5762, Note_off_c, 0, 57, 51
1, 5782, Note_off_c, 0, 60, 38
1, 5832, Note_off_c, 0, 69, 36
1, 5976, Note_on_c, 0, 67, 66
1, 6069, Note_off_c, 0, 65, 64
1, 6210, Note_off_c, 0, 67, 62
1, 6329, Note_on_c, 0, 60, 44
1, 6674, Note_on_c, 0, 75, 68
1, 6703, Note_on_c, 0, 66, 36
1, 6743, Note_off_c, 0, 60, 38
1, 6777, Note_off_c, 0, 66, 42
1, 7051, Control_c, 0, 67, 120
1, 7063, Note_on_c, 0, 70, 47
1, 7066, Control_c, 0, 67, 116
1, 7081, Control_c, 0, 67, 112
1, 7096, Control_c, 0, 67, 110
1, 7111, Control_c, 0, 67, 108
1, 7156, Control_c, 0, 67, 106
1, 7195, Note_off_c, 0, 75, 61
1, 7260, Control_c, 0, 67, 108
1, 7290, Control_c, 0, 67, 110
1, 7334, Control_c, 0, 67, 113
1, 7379, Control_c, 0, 67, 115
1, 7423, Control_c, 0, 67, 117
1, 7460, Note_on_c, 0, 75, 62
1, 7484, Note_on_c, 0, 45, 54
1, 7486, Note_on_c, 0, 33, 50
1, 7497, Control_c, 0, 67, 119
1, 7511, Control_c, 0, 64, 119
1, 7526, Control_c, 0, 64, 109
1, 7541, Control_c, 0, 64, 102
1, 7556, Control_c, 0, 64, 97
1, 7571, Control_c, 0, 64, 93
1, 7585, Control_c, 0, 64, 87
1, 7600, Control_c, 0, 64, 81
1, 7615, Control_c, 0, 64, 72
1, 7630, Control_c, 0, 64, 64
1, 7645, Control_c, 0, 64, 52
1, 7660, Control_c, 0, 64, 0
1, 7815, Control_c, 0, 64, 31
1, 7830, Note_off_c, 0, 70, 64
1, 7830, Control_c, 0, 64, 44
1, 7830, Control_c, 0, 67, 117
1, 7844, Control_c, 0, 64, 51
1, 7851, Note_on_c, 0, 71, 51
1, 7859, Control_c, 0, 64, 56
1, 7876, Control_c, 0, 64, 59
1, 7890, Control_c, 0, 64, 61
1, 7905, Control_c, 0, 64, 63
1, 7920, Control_c, 0, 64, 65
1, 7920, Control_c, 0, 67, 115
1, 7935, Control_c, 0, 64, 69
1, 7949, Control_c, 0, 64, 72
1, 7964, Control_c, 0, 64, 76
1, 7979, Control_c, 0, 64, 79
1, 7994, Control_c, 0, 64, 82
1, 8009, Control_c, 0, 64, 86
1, 8020, Note_off_c, 0, 71, 63
1, 8023, Control_c, 0, 64, 89
1, 8038, Control_c, 0, 64, 93
1, 8053, Control_c, 0, 64, 96
1, 8189, Note_on_c, 0, 80, 78
1, 8213, Note_on_c, 0, 72, 49
1, 8231, Control_c, 0, 64, 93
1, 8246, Control_c, 0, 64, 87
1, 8261, Control_c, 0, 64, 84
1, 8276, Control_c, 0, 64, 83
1, 8299, Note_off_c, 0, 75, 57
1, 8334, Control_c, 0, 64, 84
1, 8349, Control_c, 0, 64, 85
1, 8363, Note_off_c, 0, 72, 63
1, 8364, Control_c, 0, 64, 87
1, 8379, Control_c, 0, 64, 89
1, 8391, Note_off_c, 0, 45, 49
1, 8394, Control_c, 0, 64, 91
1, 8408, Control_c, 0, 64, 93
1, 8423, Control_c, 0, 64, 94
1, 8438, Control_c, 0, 64, 95
1, 8467, Control_c, 0, 64, 98
1, 8519, Note_off_c, 0, 33, 31
1, 8565, Note_on_c, 0, 82, 79
1, 8583, Note_on_c, 0, 74, 57
1, 8611, Note_off_c, 0, 80, 60
1, 8623, Control_c, 0, 67, 113
1, 8639, Note_off_c, 0, 74, 0
1, 8639, Note_on_c, 0, 74, 21
1, 8699, Control_c, 0, 67, 111
1, 8758, Control_c, 0, 67, 109
1, 8876, Control_c, 0, 67, 111
1, 8921, Control_c, 0, 64, 95
1, 8935, Control_c, 0, 64, 94
1, 8935, Control_c, 0, 67, 113
1, 8950, Control_c, 0, 64, 92
1, 8965, Control_c, 0, 64, 91
1, 8980, Control_c, 0, 64, 89
1, 8982, Note_off_c, 0, 74, 40
1, 8995, Control_c, 0, 64, 88
1, 9010, Control_c, 0, 64, 86
1, 9010, Note_on_c, 0, 83, 77
1, 9025, Control_c, 0, 64, 83
1, 9032, Note_on_c, 0, 75, 47
1, 9039, Note_on_c, 0, 32, 40
1, 9039, Control_c, 0, 64, 81
1, 9041, Note_on_c, 0, 44, 41
1, 9054, Control_c, 0, 64, 79
1, 9068, Note_off_c, 0, 82, 59
1, 9069, Control_c, 0, 64, 77
1, 9083, Control_c, 0, 64, 74
1, 9098, Control_c, 0, 64, 69
1, 9113, Control_c, 0, 64, 64
1, 9128, Control_c, 0, 64, 58
1, 9143, Control_c, 0, 64, 50
1, 9157, Control_c, 0, 64, 36
1, 9172, Control_c, 0, 64, 0
1, 9402, Control_c, 0, 64, 37
1, 9416, Control_c, 0, 64, 49
1, 9431, Control_c, 0, 64, 58
1, 9446, Control_c, 0, 64, 62
1, 9462, Control_c, 0, 64, 64
1, 9477, Control_c, 0, 64, 67
1, 9486, Note_on_c, 0, 71, 48
1, 9492, Control_c, 0, 64, 69
1, 9496, Note_off_c, 0, 75, 62
1, 9507, Control_c, 0, 64, 72
1, 9522, Control_c, 0, 64, 75
1, 9537, Control_c, 0, 64, 78
1, 9552, Control_c, 0, 64, 81
1, 9564, Note_off_c, 0, 83, 59
1, 9567, Control_c, 0, 64, 83
1, 9582, Control_c, 0, 64, 85
1, 9596, Control_c, 0, 64, 87
1, 9611, Control_c, 0, 64, 89
1, 9626, Control_c, 0, 64, 92
1, 9641, Control_c, 0, 64, 94
1, 9656, Control_c, 0, 64, 95
1, 9685, Control_c, 0, 64, 95
1, 9824, Note_on_c, 0, 76, 68
1, 9833, Control_c, 0, 64, 95
1, 9841, Note_on_c, 0, 68, 46
1, 9847, Note_off_c, 0, 71, 33
1, 9900, Note_off_c, 0, 68, 0
1, 9900, Note_on_c, 0, 68, 16
1, 9968, Note_off_c, 0, 44, 45
1, 9997, Note_off_c, 0, 32, 39
1, 10193, Note_on_c, 0, 64, 36
1, 10214, Note_off_c, 0, 68, 57
1, 10284, Note_off_c, 0, 76, 40
1, 10359, Control_c, 0, 67, 115
1, 10418, Control_c, 0, 67, 117
1, 10462, Control_c, 0, 64, 94
1, 10492, Control_c, 0, 64, 94
1, 10507, Control_c, 0, 64, 93
1, 10522, Control_c, 0, 64, 92
1, 10536, Control_c, 0, 64, 91
1, 10551, Control_c, 0, 64, 90
1, 10566, Control_c, 0, 64, 89
1, 10567, Note_on_c, 0, 69, 65
1, 10581, Control_c, 0, 64, 88
1, 10592, Note_on_c, 0, 48, 39
1, 10596, Control_c, 0, 64, 87
1, 10608, Note_on_c, 0, 36, 38
1, 10611, Control_c, 0, 64, 86
1, 10626, Control_c, 0, 64, 85
1, 10641, Control_c, 0, 64, 84
1, 10655, Control_c, 0, 64, 82
1, 10670, Control_c, 0, 64, 80
1, 10685, Control_c, 0, 64, 78
1, 10685, Control_c, 0, 67, 119
1, 10700, Control_c, 0, 64, 76
1, 10715, Control_c, 0, 64, 73
1, 10730, Control_c, 0, 64, 70
1, 10744, Control_c, 0, 64, 66
1, 10759, Control_c, 0, 64, 62
1, 10774, Control_c, 0, 64, 59
1, 10796, Control_c, 0, 64, 52
1, 10810, Control_c, 0, 64, 43
1, 10825, Control_c, 0, 64, 0
1, 10939, Note_off_c, 0, 64, 62
1, 10949, Note_on_c, 0, 60, 41
1, 10989, Control_c, 0, 64, 31
1, 11003, Control_c, 0, 64, 45
1, 11003, Control_c, 0, 67, 117
1, 11017, Control_c, 0, 64, 54
1, 11032, Control_c, 0, 64, 60
1, 11047, Control_c, 0, 64, 62
1, 11063, Control_c, 0, 64, 64
1, 11078, Control_c, 0, 64, 65
1, 11092, Control_c, 0, 64, 68
1, 11107, Control_c, 0, 64, 72
1, 11122, Control_c, 0, 64, 76
1, 11137, Control_c, 0, 64, 79
1, 11152, Control_c, 0, 64, 82
1, 11166, Control_c, 0, 64, 84
1, 11181, Control_c, 0, 64, 86
1, 11196, Control_c, 0, 64, 88
1, 11211, Control_c, 0, 64, 89
1, 11226, Control_c, 0, 64, 91
1, 11240, Control_c, 0, 64, 91
1, 11255, Control_c, 0, 64, 92
1, 11270, Control_c, 0, 64, 93
1, 11284, Control_c, 0, 64, 94
1, 11290, Note_off_c, 0, 48, 34
1, 11294, Note_on_c, 0, 64, 54
1, 11299, Control_c, 0, 64, 94
1, 11314, Control_c, 0, 64, 95
1, 11321, Note_on_c, 0, 57, 42
1, 11329, Control_c, 0, 64, 96
1, 11335, Note_off_c, 0, 69, 46
1, 11353, Note_off_c, 0, 36, 40
1, 11389, Note_off_c, 0, 60, 50
1, 11394, Note_off_c, 0, 57, 0
1, 11394, Note_on_c, 0, 57, 5
1, 11735, Note_on_c, 0, 52, 41
1, 11839, Note_off_c, 0, 57, 42
1, 11857, Control_c, 0, 67, 119
1, 11901, Control_c, 0, 67, 121
1, 11931, Control_c, 0, 64, 95
1, 11931, Control_c, 0, 67, 123
1, 11961, Control_c, 0, 64, 95
1, 11961, Control_c, 0, 67, 127
1, 11976, Control_c, 0, 64, 94
1, 11990, Control_c, 0, 64, 94
1, 12005, Control_c, 0, 64, 93
1, 12020, Control_c, 0, 64, 93
1, 12050, Control_c, 0, 64, 92
1, 12064, Control_c, 0, 64, 91
1, 12079, Control_c, 0, 64, 90
1, 12094, Control_c, 0, 64, 89
1, 12108, Control_c, 0, 64, 88
1, 12123, Control_c, 0, 64, 87
1, 12138, Control_c, 0, 64, 86
1, 12153, Control_c, 0, 64, 84
1, 12167, Note_on_c, 0, 59, 51
1, 12168, Control_c, 0, 64, 83
1, 12182, Control_c, 0, 64, 82
1, 12195, Note_on_c, 0, 41, 33
1, 12197, Control_c, 0, 64, 80
1, 12202, Note_on_c, 0, 29, 38
1, 12212, Control_c, 0, 64, 80
1, 12226, Control_c, 0, 64, 78
1, 12241, Control_c, 0, 64, 76
1, 12256, Control_c, 0, 64, 73
1, 12271, Control_c, 0, 64, 71
1, 12294, Control_c, 0, 64, 68
1, 12308, Control_c, 0, 64, 66
1, 12323, Control_c, 0, 64, 63
1, 12338, Control_c, 0, 64, 59
1, 12343, Note_off_c, 0, 64, 61
1, 12353, Control_c, 0, 64, 54
1, 12368, Control_c, 0, 64, 49
1, 12382, Control_c, 0, 64, 42
1, 12397, Control_c, 0, 64, 0
1, 12643, Note_on_c, 0, 56, 46
1, 12664, Control_c, 0, 64, 31
1, 12679, Control_c, 0, 64, 40
1, 12694, Control_c, 0, 64, 48
1, 12709, Control_c, 0, 64, 53
1, 12724, Control_c, 0, 64, 57
1, 12727, Note_off_c, 0, 52, 57
1, 12738, Control_c, 0, 64, 60
1, 12753, Control_c, 0, 64, 61
1, 12768, Control_c, 0, 64, 63
1, 12783, Control_c, 0, 64, 64
1, 12798, Control_c, 0, 64, 66
1, 12812, Control_c, 0, 64, 68
1, 12827, Control_c, 0, 64, 71
1, 12842, Control_c, 0, 64, 73
1, 12856, Control_c, 0, 64, 76
1, 12871, Control_c, 0, 64, 79
1, 12886, Control_c, 0, 64, 81
1, 12901, Control_c, 0, 64, 82
1, 12916, Control_c, 0, 64, 83
1, 12925, Note_off_c, 0, 59, 60
1, 12960, Control_c, 0, 64, 83
1, 13013, Note_off_c, 0, 56, 37
1, 13130, Control_c, 0, 64, 83
1, 13145, Control_c, 0, 64, 82
1, 13160, Control_c, 0, 64, 82
1, 13175, Control_c, 0, 64, 81
1, 13190, Control_c, 0, 64, 80
1, 13204, Control_c, 0, 64, 80
1, 13219, Control_c, 0, 64, 79
1, 13234, Control_c, 0, 64, 78
1, 13249, Control_c, 0, 64, 77
1, 13264, Control_c, 0, 64, 76
1, 13279, Control_c, 0, 64, 75
1, 13294, Control_c, 0, 64, 73
1, 13308, Control_c, 0, 64, 72
1, 13311, Note_on_c, 0, 60, 41
1, 13323, Control_c, 0, 64, 71
1, 13338, Control_c, 0, 64, 70
1, 13340, Note_on_c, 0, 51, 34
1, 13353, Control_c, 0, 64, 69
1, 13368, Control_c, 0, 64, 68
1, 13382, Control_c, 0, 64, 67
1, 13397, Control_c, 0, 64, 66
1, 13412, Control_c, 0, 64, 64
1, 13427, Control_c, 0, 64, 62
1, 13442, Control_c, 0, 64, 60
1, 13457, Control_c, 0, 64, 59
1, 13472, Control_c, 0, 64, 58
1, 13487, Control_c, 0, 64, 55
1, 13502, Control_c, 0, 64, 50
1, 13517, Control_c, 0, 64, 42
1, 13532, Control_c, 0, 64, 0
1, 13968, Control_c, 0, 64, 36
1, 13983, Control_c, 0, 64, 51
1, 13998, Control_c, 0, 64, 58
1, 14012, Control_c, 0, 64, 61
1, 14027, Control_c, 0, 64, 64
1, 14042, Control_c, 0, 64, 66
1, 14057, Control_c, 0, 64, 68
1, 14072, Control_c, 0, 64, 71
1, 14086, Control_c, 0, 64, 75
1, 14101, Control_c, 0, 64, 79
1, 14116, Control_c, 0, 64, 83
1, 14131, Control_c, 0, 64, 87
1, 14146, Control_c, 0, 64, 91
1, 14161, Control_c, 0, 64, 94
1, 14176, Control_c, 0, 64, 97
1, 14179, Note_off_c, 0, 51, 39
1, 14191, Control_c, 0, 64, 100
1, 14205, Control_c, 0, 64, 103
1, 14210, Note_off_c, 0, 60, 33
1, 14220, Control_c, 0, 64, 107
1, 14235, Control_c, 0, 64, 110
1, 14251, Note_off_c, 0, 29, 54
1, 14554, Control_c, 0, 64, 108
1, 14584, Control_c, 0, 64, 105
1, 14606, Note_on_c, 0, 57, 44
1, 14614, Control_c, 0, 64, 102
1, 14643, Control_c, 0, 64, 98
1, 14673, Control_c, 0, 64, 95
1, 14688, Control_c, 0, 64, 93
1, 14702, Control_c, 0, 64, 92
1, 14717, Control_c, 0, 64, 91
1, 14732, Control_c, 0, 64, 89
1, 14748, Control_c, 0, 64, 88
1, 14763, Control_c, 0, 64, 86
1, 14777, Control_c, 0, 64, 85
1, 14792, Control_c, 0, 64, 84
1, 14807, Control_c, 0, 64, 83
1, 14822, Control_c, 0, 64, 81
1, 14836, Control_c, 0, 64, 79
1, 14851, Control_c, 0, 64, 77
1, 14866, Control_c, 0, 64, 75
1, 14881, Control_c, 0, 64, 73
1, 14896, Control_c, 0, 64, 71
1, 14910, Control_c, 0, 64, 69
1, 14925, Control_c, 0, 64, 67
1, 14940, Control_c, 0, 64, 66
1, 14954, Control_c, 0, 64, 65
1, 14969, Control_c, 0, 64, 64
1, 14984, Control_c, 0, 64, 63
1, 14999, Control_c, 0, 64, 63
1, 15001, Note_on_c, 0, 48, 41
1, 15014, Control_c, 0, 64, 62
1, 15028, Control_c, 0, 64, 61
1, 15043, Control_c, 0, 64, 61
1, 15059, Control_c, 0, 64, 60
1, 15074, Control_c, 0, 64, 59
1, 15089, Control_c, 0, 64, 57
1, 15104, Control_c, 0, 64, 54
1, 15119, Control_c, 0, 64, 50
1, 15133, Control_c, 0, 64, 43
1, 15148, Control_c, 0, 64, 35
1, 15163, Control_c, 0, 64, 32
1, 15178, Control_c, 0, 64, 37
1, 15193, Control_c, 0, 64, 46
1, 15207, Control_c, 0, 64, 53
1, 15222, Control_c, 0, 64, 56
1, 15237, Control_c, 0, 64, 58
1, 15252, Control_c, 0, 64, 59
1, 15267, Control_c, 0, 64, 61
1, 15289, Control_c, 0, 64, 62
1, 15304, Control_c, 0, 64, 63
1, 15319, Control_c, 0, 64, 63
1, 15333, Control_c, 0, 64, 64
1, 15348, Control_c, 0, 64, 65
1, 15350, Note_on_c, 0, 53, 42
1, 15363, Control_c, 0, 64, 67
1, 15378, Control_c, 0, 64, 69
1, 15392, Control_c, 0, 64, 70
1, 15407, Control_c, 0, 64, 71
1, 15425, Note_off_c, 0, 48, 37
1, 15437, Control_c, 0, 64, 71
1, 15467, Control_c, 0, 64, 72
1, 15615, Control_c, 0, 64, 72
1, 15645, Control_c, 0, 64, 73
1, 15648, Note_on_c, 0, 62, 50
1, 15674, Control_c, 0, 64, 73
1, 15704, Control_c, 0, 64, 74
1, 15733, Control_c, 0, 64, 74
1, 15763, Control_c, 0, 64, 75
1, 15787, Note_off_c, 0, 57, 37
1, 15792, Control_c, 0, 64, 75
1, 15822, Control_c, 0, 64, 76
1, 15954, Note_on_c, 0, 60, 62
1, 15967, Note_off_c, 0, 53, 34
1, 15971, Control_c, 0, 64, 75
1, 15976, Note_on_c, 0, 56, 39
1, 16053, Control_c, 0, 64, 75
1, 16081, Note_off_c, 0, 62, 56
1, 16082, Control_c, 0, 64, 74
1, 16127, Control_c, 0, 64, 74
1, 16171, Control_c, 0, 64, 73
1, 16186, Control_c, 0, 64, 73
1, 16200, Control_c, 0, 64, 72
1, 16230, Control_c, 0, 64, 71
1, 16230, Control_c, 0, 67, 125
1, 16245, Control_c, 0, 67, 120
1, 16260, Control_c, 0, 64, 71
1, 16260, Control_c, 0, 67, 117
1, 16274, Control_c, 0, 64, 70
1, 16274, Control_c, 0, 67, 115
1, 16289, Control_c, 0, 64, 70
1, 16304, Control_c, 0, 64, 69
1, 16304, Control_c, 0, 67, 113
1, 16319, Control_c, 0, 64, 69
1, 16320, Note_on_c, 0, 55, 45
1, 16334, Control_c, 0, 67, 111
1, 16355, Note_off_c, 0, 56, 58
1, 16363, Control_c, 0, 64, 68
1, 16378, Control_c, 0, 64, 68
1, 16393, Control_c, 0, 64, 67
1, 16407, Control_c, 0, 64, 67
1, 16422, Control_c, 0, 64, 66
1, 16452, Control_c, 0, 64, 66
1, 16467, Control_c, 0, 64, 65
1, 16467, Control_c, 0, 67, 113
1, 16481, Control_c, 0, 64, 64
1, 16496, Control_c, 0, 64, 64
1, 16511, Control_c, 0, 64, 63
1, 16526, Control_c, 0, 64, 63
1, 16541, Control_c, 0, 64, 62
1, 16555, Control_c, 0, 64, 62
1, 16570, Control_c, 0, 64, 61
1, 16585, Control_c, 0, 64, 60
1, 16599, Control_c, 0, 64, 60
1, 16629, Control_c, 0, 64, 59
1, 16645, Control_c, 0, 64, 59
1, 16660, Control_c, 0, 64, 57
1, 16675, Control_c, 0, 64, 55
1, 16690, Control_c, 0, 64, 53
1, 16692, Note_on_c, 0, 54, 35
1, 16704, Control_c, 0, 64, 52
1, 16719, Control_c, 0, 64, 50
1, 16734, Control_c, 0, 64, 48
1, 16749, Control_c, 0, 64, 47
1, 16764, Control_c, 0, 64, 44
1, 16786, Control_c, 0, 64, 41
1, 16796, Note_off_c, 0, 55, 37
1, 16801, Control_c, 0, 64, 38
1, 16816, Control_c, 0, 64, 34
1, 16830, Control_c, 0, 64, 0
1, 17196, Note_on_c, 0, 63, 38
1, 17245, Note_off_c, 0, 60, 62
1, 17423, Control_c, 0, 64, 33
1, 17438, Control_c, 0, 64, 47
1, 17454, Control_c, 0, 64, 57
1, 17469, Control_c, 0, 64, 61
1, 17484, Control_c, 0, 64, 63
1, 17499, Control_c, 0, 64, 64
1, 17500, Note_off_c, 0, 54, 56
1, 17514, Control_c, 0, 64, 66
1, 17535, Control_c, 0, 64, 68
1, 17550, Control_c, 0, 64, 71
1, 17550, Control_c, 0, 67, 111
1, 17565, Control_c, 0, 64, 74
1, 17580, Control_c, 0, 64, 77
1, 17595, Control_c, 0, 64, 80
1, 17610, Control_c, 0, 64, 82
1, 17625, Control_c, 0, 64, 84
1, 17640, Control_c, 0, 64, 85
1, 17654, Control_c, 0, 64, 87
1, 17669, Control_c, 0, 64, 89
1, 17684, Control_c, 0, 64, 90
1, 17684, Control_c, 0, 67, 109
1, 17699, Control_c, 0, 64, 90
1, 17728, Control_c, 0, 64, 91
1, 17728, Control_c, 0, 67, 106
1, 17743, Control_c, 0, 67, 97
1, 17758, Control_c, 0, 67, 87
1, 17772, Control_c, 0, 67, 77
1, 17787, Control_c, 0, 67, 68
1, 17802, Control_c, 0, 67, 60
1, 17817, Control_c, 0, 67, 54
1, 17832, Control_c, 0, 67, 48
1, 17846, Control_c, 0, 67, 43
1, 17861, Control_c, 0, 67, 39
1, 17876, Control_c, 0, 67, 37
1, 17891, Control_c, 0, 67, 35
1, 17906, Control_c, 0, 67, 33
1, 17920, Control_c, 0, 67, 32
1, 17944, Note_on_c, 0, 62, 61
1, 17965, Control_c, 0, 67, 30
1, 17979, Control_c, 0, 64, 90
1, 17993, Note_on_c, 0, 34, 40
1, 17994, Control_c, 0, 64, 90
1, 18009, Control_c, 0, 64, 89
1, 18024, Control_c, 0, 64, 89
1, 18024, Control_c, 0, 67, 28
1, 18054, Control_c, 0, 64, 88
1, 18069, Control_c, 0, 64, 88
1, 18084, Control_c, 0, 64, 87
1, 18099, Control_c, 0, 64, 86
1, 18114, Control_c, 0, 64, 85
1, 18114, Control_c, 0, 67, 26
1, 18128, Control_c, 0, 64, 84
1, 18143, Control_c, 0, 64, 83
1, 18143, Control_c, 0, 67, 0
1, 18158, Control_c, 0, 64, 81
1, 18172, Control_c, 0, 64, 79
1, 18187, Control_c, 0, 64, 78
1, 18200, Note_off_c, 0, 41, 35
1, 18202, Control_c, 0, 64, 77
1, 18203, Note_off_c, 0, 63, 33
1, 18217, Control_c, 0, 64, 76
1, 18232, Control_c, 0, 64, 75
1, 18248, Control_c, 0, 64, 73
1, 18263, Control_c, 0, 64, 70
1, 18284, Control_c, 0, 64, 69
1, 18299, Control_c, 0, 64, 68
1, 18314, Control_c, 0, 64, 66
1, 18329, Control_c, 0, 64, 64
1, 18344, Control_c, 0, 64, 61
1, 18358, Control_c, 0, 64, 60
1, 18373, Control_c, 0, 64, 58
1, 18388, Control_c, 0, 64, 55
1, 18403, Control_c, 0, 64, 49
1, 18418, Control_c, 0, 64, 37
1, 18433, Control_c, 0, 64, 0
1, 18492, Control_c, 0, 64, 36
1, 18507, Control_c, 0, 64, 45
1, 18522, Control_c, 0, 64, 49
1, 18537, Control_c, 0, 64, 48
1, 18551, Control_c, 0, 64, 47
1, 18566, Control_c, 0, 64, 44
1, 18581, Control_c, 0, 64, 43
1, 18594, Note_on_c, 0, 53, 38
1, 18595, Control_c, 0, 64, 42
1, 18609, Note_on_c, 0, 41, 26
1, 18610, Control_c, 0, 64, 39
1, 18625, Control_c, 0, 64, 31
1, 18640, Control_c, 0, 64, 0
1, 18877, Control_c, 0, 64, 31
1, 18892, Control_c, 0, 64, 42
1, 18907, Control_c, 0, 64, 52
1, 18921, Control_c, 0, 64, 58
1, 18936, Control_c, 0, 64, 62
1, 18951, Control_c, 0, 64, 63
1, 18966, Control_c, 0, 64, 64
1, 18981, Control_c, 0, 64, 64
1, 18995, Control_c, 0, 64, 65
1, 19010, Control_c, 0, 64, 66
1, 19032, Control_c, 0, 64, 66
1, 19035, Note_on_c, 0, 60, 55
1, 19048, Control_c, 0, 64, 67
1, 19063, Control_c, 0, 64, 68
1, 19078, Control_c, 0, 64, 68
1, 19093, Control_c, 0, 64, 69
1, 19107, Control_c, 0, 64, 69
1, 19122, Control_c, 0, 64, 70
1, 19137, Control_c, 0, 64, 72
1, 19152, Control_c, 0, 64, 73
1, 19167, Control_c, 0, 64, 75
1, 19180, Note_off_c, 0, 62, 62
1, 19181, Control_c, 0, 64, 77
1, 19196, Control_c, 0, 64, 79
1, 19211, Control_c, 0, 64, 82
1, 19226, Control_c, 0, 64, 85
1, 19240, Control_c, 0, 64, 88
1, 19255, Control_c, 0, 64, 91
1, 19270, Control_c, 0, 64, 94
1, 19285, Control_c, 0, 64, 96
1, 19291, Note_off_c, 0, 34, 36
1, 19300, Control_c, 0, 64, 98
1, 19315, Control_c, 0, 64, 103
1, 19330, Control_c, 0, 64, 109
1, 19344, Control_c, 0, 64, 122
1, 19359, Control_c, 0, 64, 127
1, 19431, Note_on_c, 0, 57, 43
1, 19462, Note_on_c, 0, 48, 34
1, 19527, Note_off_c, 0, 41, 36
1, 19572, Note_off_c, 0, 48, 47
1, 19783, Note_on_c, 0, 63, 63
1, 19822, Note_off_c, 0, 53, 40
1, 19866, Note_off_c, 0, 60, 61
1, 19880, Note_off_c, 0, 57, 60
1, 20172, Note_on_c, 0, 59, 44
1, 20174, Note_on_c, 0, 56, 41
1, 20269, Note_off_c, 0, 56, 57
1, 20279, Note_off_c, 0, 63, 62
1, 20490, Note_on_c, 0, 64, 55
1, 20662, Note_off_c, 0, 64, 59
1, 20811, Note_on_c, 0, 69, 69
1, 20830, Note_on_c, 0, 60, 42
1, 20845, Note_on_c, 0, 63, 43
1, 20888, Note_off_c, 0, 59, 40
1, 20951, Note_off_c, 0, 60, 35
1, 21136, Note_on_c, 0, 72, 73
1, 21212, Note_off_c, 0, 69, 60
1, 21226, Note_off_c, 0, 63, 38
1, 21475, Note_on_c, 0, 57, 54
1, 21787, Note_on_c, 0, 79, 87
1, 21810, Note_on_c, 0, 60, 49
1, 21959, Note_off_c, 0, 72, 59
1, 22048, Note_off_c, 0, 57, 54
1, 22139, Note_off_c, 0, 60, 62
1, 22141, Note_on_c, 0, 81, 92
1, 22148, Note_on_c, 0, 63, 65
1, 22183, Note_off_c, 0, 63, 62
1, 22194, Note_off_c, 0, 79, 61
1, 22590, Note_on_c, 0, 86, 92
1, 22594, Note_on_c, 0, 82, 83
1, 22607, Control_c, 0, 64, 93
1, 22612, Note_on_c, 0, 45, 69
1, 22621, Note_on_c, 0, 33, 61
1, 22622, Control_c, 0, 64, 74
1, 22623, Note_off_c, 0, 81, 62
1, 22636, Control_c, 0, 64, 58
1, 22651, Control_c, 0, 64, 0
1, 22777, Control_c, 0, 64, 57
1, 22792, Control_c, 0, 64, 77
1, 22806, Note_off_c, 0, 33, 62
1, 22807, Control_c, 0, 64, 99
1, 22822, Control_c, 0, 64, 127
1, 22840, Note_off_c, 0, 45, 62
1, 23011, Note_on_c, 0, 79, 82
1, 23027, Note_on_c, 0, 60, 61
1, 23049, Note_off_c, 0, 86, 58
1, 23090, Note_off_c, 0, 82, 58
1, 23345, Note_on_c, 0, 72, 81
1, 23357, Note_off_c, 0, 79, 62
1, 23361, Note_on_c, 0, 63, 59
1, 23466, Note_off_c, 0, 60, 49
1, 23671, Note_on_c, 0, 74, 85
1, 23683, Note_off_c, 0, 63, 57
1, 23689, Note_on_c, 0, 67, 57
1, 23697, Note_off_c, 0, 72, 63
1, 23719, Note_off_c, 0, 67, 66
1, 23971, Control_c, 0, 67, 19
1, 24016, Control_c, 0, 67, 21
1, 24097, Note_on_c, 0, 44, 67
1, 24101, Note_on_c, 0, 66, 55
1, 24103, Note_on_c, 0, 32, 63
1, 24105, Control_c, 0, 64, 116
1, 24120, Control_c, 0, 64, 108
1, 24134, Control_c, 0, 64, 102
1, 24149, Control_c, 0, 64, 96
1, 24164, Control_c, 0, 64, 91
1, 24179, Control_c, 0, 64, 86
1, 24194, Control_c, 0, 64, 80
1, 24208, Control_c, 0, 64, 73
1, 24223, Control_c, 0, 64, 66
1, 24238, Control_c, 0, 64, 55
1, 24253, Control_c, 0, 64, 0
1, 24544, Note_on_c, 0, 75, 74
1, 24573, Note_on_c, 0, 63, 54
1, 24576, Note_off_c, 0, 74, 60
1, 24600, Note_off_c, 0, 66, 62
1, 24705, Control_c, 0, 64, 41
1, 24720, Control_c, 0, 64, 54
1, 24735, Control_c, 0, 64, 61
1, 24750, Control_c, 0, 64, 66
1, 24764, Control_c, 0, 64, 70
1, 24779, Control_c, 0, 64, 73
1, 24794, Control_c, 0, 64, 75
1, 24809, Control_c, 0, 64, 76
1, 24824, Control_c, 0, 64, 76
1, 24868, Control_c, 0, 64, 76
1, 24883, Control_c, 0, 64, 74
1, 24898, Control_c, 0, 64, 69
1, 24913, Control_c, 0, 64, 63
1, 24918, Note_on_c, 0, 66, 77
1, 24928, Control_c, 0, 64, 53
1, 24941, Note_on_c, 0, 61, 56
1, 24943, Control_c, 0, 64, 37
1, 24957, Control_c, 0, 64, 0
1, 24983, Note_off_c, 0, 63, 54
1, 25002, Control_c, 0, 64, 31
1, 25024, Control_c, 0, 64, 44
1, 25030, Note_off_c, 0, 75, 59
1, 25038, Control_c, 0, 64, 55
1, 25053, Control_c, 0, 64, 62
1, 25068, Control_c, 0, 64, 66
1, 25083, Control_c, 0, 64, 68
1, 25098, Control_c, 0, 64, 71
1, 25113, Control_c, 0, 64, 73
1, 25128, Control_c, 0, 64, 77
1, 25143, Control_c, 0, 64, 80
1, 25158, Control_c, 0, 64, 84
1, 25158, Note_off_c, 0, 44, 53
1, 25172, Control_c, 0, 64, 86
1, 25187, Control_c, 0, 64, 90
1, 25202, Control_c, 0, 64, 96
1, 25217, Control_c, 0, 64, 102
1, 25231, Control_c, 0, 64, 108
1, 25245, Control_c, 0, 64, 118
1, 25260, Control_c, 0, 64, 127
1, 25295, Note_off_c, 0, 32, 60
1, 25296, Note_on_c, 0, 59, 54
1, 25304, Control_c, 0, 67, 23
1, 25357, Note_off_c, 0, 61, 60
1, 25468, Control_c, 0, 67, 25
1, 25557, Control_c, 0, 67, 29
1, 25572, Control_c, 0, 67, 31
1, 25602, Control_c, 0, 67, 32
1, 25746, Note_on_c, 0, 38, 62
1, 25748, Note_on_c, 0, 26, 61
1, 25751, Note_on_c, 0, 58, 42
1, 25772, Control_c, 0, 64, 121
1, 25786, Control_c, 0, 64, 110
1, 25801, Control_c, 0, 64, 102
1, 25816, Control_c, 0, 64, 96
1, 25822, Note_off_c, 0, 59, 49
1, 25831, Control_c, 0, 64, 89
1, 25846, Control_c, 0, 64, 82
1, 25861, Control_c, 0, 64, 74
1, 25876, Control_c, 0, 64, 67
1, 25891, Control_c, 0, 64, 60
1, 25906, Control_c, 0, 64, 48
1, 25906, Control_c, 0, 67, 30
1, 25920, Control_c, 0, 64, 0
1, 26098, Control_c, 0, 64, 47
1, 26112, Control_c, 0, 64, 58
1, 26127, Control_c, 0, 64, 62
1, 26142, Control_c, 0, 64, 64
1, 26157, Control_c, 0, 64, 65
1, 26172, Control_c, 0, 64, 66
1, 26186, Control_c, 0, 64, 66
1, 26201, Control_c, 0, 64, 67
1, 26216, Control_c, 0, 64, 67
1, 26272, Note_on_c, 0, 69, 66
1, 26282, Note_on_c, 0, 59, 52
1, 26306, Control_c, 0, 64, 68
1, 26320, Note_off_c, 0, 66, 55
1, 26321, Control_c, 0, 64, 68
1, 26335, Control_c, 0, 64, 69
1, 26350, Control_c, 0, 64, 70
1, 26365, Control_c, 0, 64, 72
1, 26374, Note_off_c, 0, 58, 42
1, 26380, Control_c, 0, 64, 73
1, 26395, Control_c, 0, 64, 75
1, 26409, Control_c, 0, 64, 77
1, 26424, Control_c, 0, 64, 79
1, 26439, Control_c, 0, 64, 82
1, 26454, Control_c, 0, 64, 83
1, 26469, Control_c, 0, 64, 84
1, 26484, Control_c, 0, 64, 85
1, 26521, Control_c, 0, 64, 85
1, 26595, Control_c, 0, 64, 85
1, 26610, Control_c, 0, 64, 84
1, 26624, Control_c, 0, 64, 82
1, 26639, Control_c, 0, 64, 78
1, 26654, Control_c, 0, 64, 72
1, 26658, Note_on_c, 0, 61, 69
1, 26669, Control_c, 0, 64, 67
1, 26678, Note_on_c, 0, 58, 52
1, 26684, Control_c, 0, 64, 65
1, 26714, Control_c, 0, 64, 66
1, 26728, Control_c, 0, 64, 69
1, 26742, Note_off_c, 0, 59, 55
1, 26742, Control_c, 0, 64, 72
1, 26757, Control_c, 0, 64, 74
1, 26772, Control_c, 0, 64, 76
1, 26785, Note_off_c, 0, 69, 48
1, 26787, Control_c, 0, 64, 78
1, 26802, Control_c, 0, 64, 80
1, 26816, Control_c, 0, 64, 81
1, 26831, Control_c, 0, 64, 82
1, 26875, Control_c, 0, 64, 83
1, 26920, Control_c, 0, 64, 83
1, 26964, Control_c, 0, 64, 83
1, 26966, Note_off_c, 0, 38, 37
1, 27009, Control_c, 0, 64, 82
1, 27020, Note_on_c, 0, 62, 75
1, 27021, Note_off_c, 0, 58, 62
1, 27024, Control_c, 0, 64, 82
1, 27032, Note_on_c, 0, 57, 53
1, 27075, Note_off_c, 0, 61, 54
1, 27098, Control_c, 0, 64, 81
1, 27158, Control_c, 0, 64, 81
1, 27188, Control_c, 0, 64, 80
1, 27217, Control_c, 0, 64, 80
1, 27247, Control_c, 0, 64, 79
1, 27269, Control_c, 0, 64, 78
1, 27283, Control_c, 0, 64, 77
1, 27298, Control_c, 0, 64, 76
1, 27313, Control_c, 0, 64, 76
1, 27319, Note_off_c, 0, 26, 15
1, 27328, Control_c, 0, 64, 75
1, 27343, Control_c, 0, 64, 73
1, 27357, Control_c, 0, 64, 71
1, 27364, Note_off_c, 0, 57, 41
1, 27372, Control_c, 0, 64, 69
1, 27387, Control_c, 0, 64, 67
1, 27402, Note_on_c, 0, 65, 73
1, 27402, Control_c, 0, 64, 65
1, 27417, Control_c, 0, 64, 63
1, 27432, Note_on_c, 0, 56, 38
1, 27432, Control_c, 0, 64, 60
1, 27432, Note_on_c, 0, 24, 44
1, 27444, Note_on_c, 0, 36, 23
1, 27447, Control_c, 0, 64, 54
1, 27450, Note_off_c, 0, 62, 56
1, 27462, Control_c, 0, 64, 48
1, 27477, Control_c, 0, 64, 34
1, 27492, Control_c, 0, 64, 0
1, 27714, Control_c, 0, 64, 32
1, 27729, Control_c, 0, 64, 46
1, 27744, Control_c, 0, 64, 57
1, 27758, Control_c, 0, 64, 61
1, 27773, Control_c, 0, 64, 63
1, 27788, Control_c, 0, 64, 65
1, 27791, Note_off_c, 0, 56, 48
1, 27794, Note_on_c, 0, 62, 68
1, 27802, Control_c, 0, 64, 67
1, 27804, Note_off_c, 0, 36, 53
1, 27805, Note_on_c, 0, 54, 50
1, 27817, Control_c, 0, 64, 69
1, 27834, Control_c, 0, 64, 72
1, 27836, Note_off_c, 0, 65, 58
1, 27849, Control_c, 0, 64, 75
1, 27863, Control_c, 0, 64, 78
1, 27878, Control_c, 0, 64, 81
1, 27882, Note_off_c, 0, 24, 39
1, 27893, Control_c, 0, 64, 84
1, 27907, Control_c, 0, 64, 86
1, 27911, Note_off_c, 0, 54, 62
1, 27922, Control_c, 0, 64, 89
1, 27937, Control_c, 0, 64, 92
1, 27952, Control_c, 0, 64, 95
1, 27954, Note_off_c, 0, 62, 61
1, 27967, Control_c, 0, 64, 97
1, 28196, Control_c, 0, 64, 95
1, 28211, Control_c, 0, 64, 94
1, 28226, Control_c, 0, 64, 93
1, 28240, Control_c, 0, 64, 91
1, 28248, Note_on_c, 0, 57, 65
1, 28255, Control_c, 0, 64, 89
1, 28262, Note_on_c, 0, 49, 52
1, 28267, Note_on_c, 0, 42, 41
1, 28270, Control_c, 0, 64, 86
1, 28273, Note_on_c, 0, 30, 43
1, 28285, Control_c, 0, 64, 84
1, 28300, Control_c, 0, 64, 80
1, 28314, Control_c, 0, 64, 75
1, 28329, Control_c, 0, 64, 68
1, 28344, Control_c, 0, 64, 58
1, 28359, Control_c, 0, 64, 44
1, 28374, Control_c, 0, 64, 0
1, 28493, Control_c, 0, 67, 32
1, 28704, Note_on_c, 0, 60, 62
1, 28758, Note_off_c, 0, 57, 62
1, 28856, Control_c, 0, 64, 41
1, 28871, Control_c, 0, 64, 51
1, 28886, Control_c, 0, 64, 58
1, 28901, Control_c, 0, 64, 62
1, 28916, Control_c, 0, 64, 65
1, 28930, Control_c, 0, 64, 67
1, 28945, Control_c, 0, 64, 69
1, 28960, Control_c, 0, 64, 71
1, 28975, Control_c, 0, 64, 72
1, 28990, Control_c, 0, 64, 73
1, 29004, Control_c, 0, 64, 74
1, 29004, Control_c, 0, 67, 32
1, 29019, Control_c, 0, 64, 75
1, 29019, Control_c, 0, 67, 33
1, 29049, Control_c, 0, 67, 33
1, 29063, Control_c, 0, 67, 34
1, 29123, Control_c, 0, 64, 74
1, 29125, Note_off_c, 0, 49, 44
1, 29137, Control_c, 0, 64, 74
1, 29137, Control_c, 0, 67, 34
1, 29147, Note_on_c, 0, 52, 44
1, 29152, Control_c, 0, 64, 73
1, 29167, Control_c, 0, 64, 71
1, 29167, Control_c, 0, 67, 36
1, 29182, Control_c, 0, 64, 68
1, 29182, Control_c, 0, 67, 41
1, 29197, Control_c, 0, 64, 64
1, 29197, Control_c, 0, 67, 44
1, 29212, Control_c, 0, 64, 58
1, 29212, Control_c, 0, 67, 45
1, 29226, Control_c, 0, 64, 49
1, 29241, Control_c, 0, 64, 42
1, 29256, Control_c, 0, 64, 44
1, 29271, Control_c, 0, 64, 51
1, 29286, Control_c, 0, 64, 57
1, 29301, Control_c, 0, 64, 61
1, 29316, Control_c, 0, 64, 64
1, 29330, Control_c, 0, 64, 66
1, 29345, Control_c, 0, 64, 68
1, 29360, Control_c, 0, 64, 71
1, 29374, Control_c, 0, 64, 72
1, 29389, Control_c, 0, 64, 73
1, 29389, Control_c, 0, 67, 44
1, 29404, Control_c, 0, 64, 74
1, 29419, Control_c, 0, 64, 75
1, 29427, Note_off_c, 0, 30, 51
1, 29435, Control_c, 0, 64, 79
1, 29450, Control_c, 0, 64, 82
1, 29465, Control_c, 0, 64, 85
1, 29479, Control_c, 0, 64, 87
1, 29494, Control_c, 0, 64, 88
1, 29516, Control_c, 0, 64, 89
1, 29531, Control_c, 0, 64, 90
1, 29546, Control_c, 0, 64, 91
1, 29546, Control_c, 0, 67, 44
1, 29560, Control_c, 0, 64, 91
1, 29578, Note_off_c, 0, 42, 47
1, 29590, Control_c, 0, 64, 92
1, 29596, Note_on_c, 0, 51, 41
1, 29635, Control_c, 0, 64, 92
1, 29679, Control_c, 0, 67, 43
1, 29680, Note_off_c, 0, 52, 35
1, 29887, Control_c, 0, 64, 92
1, 29902, Control_c, 0, 64, 91
1, 29917, Control_c, 0, 64, 91
1, 29917, Control_c, 0, 67, 44
1, 29932, Control_c, 0, 64, 90
1, 29947, Control_c, 0, 64, 90
1, 29961, Control_c, 0, 64, 89
1, 29976, Control_c, 0, 64, 88
1, 29991, Control_c, 0, 64, 87
1, 30005, Control_c, 0, 64, 86
1, 30020, Control_c, 0, 64, 86
1, 30020, Control_c, 0, 67, 44
1, 30035, Control_c, 0, 64, 85
1, 30050, Control_c, 0, 64, 84
1, 30065, Control_c, 0, 64, 83
1, 30079, Control_c, 0, 64, 82
1, 30094, Control_c, 0, 64, 81
1, 30109, Control_c, 0, 64, 80
1, 30124, Control_c, 0, 64, 79
1, 30139, Control_c, 0, 64, 79
1, 30154, Control_c, 0, 64, 78
1, 30165, Note_on_c, 0, 58, 42
1, 30168, Control_c, 0, 64, 77
1, 30183, Control_c, 0, 64, 77
1, 30188, Note_on_c, 0, 50, 30
1, 30198, Control_c, 0, 64, 76
1, 30207, Note_on_c, 0, 34, 31
1, 30213, Control_c, 0, 64, 76
1, 30228, Control_c, 0, 64, 75
1, 30243, Control_c, 0, 64, 74
1, 30260, Note_off_c, 0, 51, 37
1, 30266, Control_c, 0, 64, 73
1, 30281, Control_c, 0, 64, 72
1, 30296, Control_c, 0, 64, 71
1, 30308, Note_off_c, 0, 60, 36
1, 30310, Control_c, 0, 64, 69
1, 30325, Control_c, 0, 64, 68
1, 30340, Control_c, 0, 64, 66
1, 30355, Control_c, 0, 64, 64
1, 30370, Control_c, 0, 64, 62
1, 30370, Control_c, 0, 67, 44
1, 30384, Control_c, 0, 64, 60
1, 30399, Control_c, 0, 64, 58
1, 30414, Control_c, 0, 64, 56
1, 30428, Control_c, 0, 64, 52
1, 30443, Control_c, 0, 64, 47
1, 30458, Control_c, 0, 64, 37
1, 30473, Control_c, 0, 64, 0
1, 30961, Control_c, 0, 64, 32
1, 30976, Control_c, 0, 64, 47
1, 30991, Control_c, 0, 64, 58
1, 31014, Control_c, 0, 64, 65
1, 31030, Control_c, 0, 64, 70
1, 31045, Control_c, 0, 64, 78
1, 31059, Control_c, 0, 64, 86
1, 31069, Note_off_c, 0, 50, 40
1, 31074, Control_c, 0, 64, 95
1, 31089, Control_c, 0, 64, 108
1, 31104, Control_c, 0, 64, 127
1, 31116, Note_off_c, 0, 58, 63
1, 31148, Control_c, 0, 67, 44
1, 31177, Control_c, 0, 67, 45
1, 31221, Control_c, 0, 67, 45
1, 31399, Control_c, 0, 67, 45
1, 31692, Note_on_c, 0, 82, 74
1, 31724, Control_c, 0, 64, 121
1, 31739, Control_c, 0, 64, 112
1, 31762, Control_c, 0, 64, 107
1, 31776, Control_c, 0, 64, 102
1, 31791, Control_c, 0, 64, 98
1, 31806, Control_c, 0, 64, 95
1, 31821, Control_c, 0, 64, 91
1, 31837, Control_c, 0, 64, 85
1, 31852, Control_c, 0, 64, 78
1, 31867, Control_c, 0, 64, 70
1, 31881, Control_c, 0, 64, 62
1, 31896, Control_c, 0, 64, 51
1, 31911, Control_c, 0, 64, 0
1, 31999, Control_c, 0, 67, 44
1, 32044, Control_c, 0, 67, 44
1, 32059, Control_c, 0, 67, 43
1, 32073, Control_c, 0, 64, 43
1, 32088, Control_c, 0, 64, 60
1, 32088, Control_c, 0, 67, 42
1, 32103, Control_c, 0, 64, 66
1, 32118, Control_c, 0, 64, 71
1, 32118, Control_c, 0, 67, 42
1, 32133, Control_c, 0, 64, 79
1, 32133, Control_c, 0, 67, 41
1, 32148, Control_c, 0, 64, 88
1, 32163, Control_c, 0, 64, 105
1, 32163, Control_c, 0, 67, 41
1, 32178, Control_c, 0, 64, 127
1, 32178, Control_c, 0, 67, 40
1, 32181, Note_off_c, 0, 34, 55
1, 32192, Control_c, 0, 67, 40
1, 32256, Note_on_c, 0, 70, 17
1, 32282, Note_off_c, 0, 82, 59
1, 32534, Note_on_c, 0, 82, 75
1, 32572, Note_off_c, 0, 70, 42
1, 32605, Note_on_c, 0, 69, 37
1, 32690, Control_c, 0, 67, 40
1, 32752, Note_off_c, 0, 82, 61
1, 32809, Control_c, 0, 67, 41
1, 32879, Note_on_c, 0, 68, 53
1, 32907, Note_off_c, 0, 69, 36
1, 32983, Note_off_c, 0, 68, 63
1, 33131, Note_on_c, 0, 84, 75
1, 33409, Control_c, 0, 67, 40
1, 33424, Note_on_c, 0, 82, 84
1, 33424, Control_c, 0, 67, 40
1, 33439, Control_c, 0, 67, 39
1, 33453, Control_c, 0, 67, 39
1, 33456, Note_off_c, 0, 84, 63
1, 33464, Note_on_c, 0, 67, 39
1, 33468, Control_c, 0, 67, 38
1, 33498, Control_c, 0, 67, 37
1, 33513, Control_c, 0, 67, 35
1, 33528, Control_c, 0, 67, 34
1, 33543, Control_c, 0, 67, 32
1, 33555, Note_off_c, 0, 82, 62
1, 33558, Control_c, 0, 67, 32
1, 33602, Control_c, 0, 67, 30
1, 33632, Control_c, 0, 67, 27
1, 33646, Control_c, 0, 67, 23
1, 33661, Control_c, 0, 67, 0
1, 33673, Note_on_c, 0, 81, 90
1, 33710, Note_on_c, 0, 66, 43
1, 33784, Note_off_c, 0, 67, 35
1, 33851, Note_off_c, 0, 66, 35
1, 33928, Note_on_c, 0, 80, 85
1, 33957, Note_on_c, 0, 65, 48
1, 33966, Note_off_c, 0, 81, 59
1, 34011, Note_off_c, 0, 65, 60
1, 34278, Note_on_c, 0, 68, 74
1, 34306, Control_c, 0, 64, 113
1, 34308, Note_on_c, 0, 64, 45
1, 34321, Control_c, 0, 64, 103
1, 34336, Control_c, 0, 64, 95
1, 34340, Note_off_c, 0, 80, 59
1, 34351, Control_c, 0, 64, 88
1, 34366, Control_c, 0, 64, 82
1, 34380, Control_c, 0, 64, 76
1, 34395, Control_c, 0, 64, 68
1, 34410, Control_c, 0, 64, 57
1, 34425, Control_c, 0, 64, 0
1, 34499, Control_c, 0, 67, 19
1, 34573, Control_c, 0, 67, 21
1, 34640, Note_on_c, 0, 61, 42
1, 34676, Control_c, 0, 64, 31
1, 34691, Control_c, 0, 64, 55
1, 34706, Control_c, 0, 64, 64
1, 34720, Control_c, 0, 64, 69
1, 34735, Control_c, 0, 64, 72
1, 34758, Control_c, 0, 64, 76
1, 34773, Control_c, 0, 64, 81
1, 34788, Control_c, 0, 64, 87
1, 34795, Note_off_c, 0, 68, 57
1, 34802, Control_c, 0, 64, 93
1, 34817, Control_c, 0, 64, 97
1, 34832, Control_c, 0, 64, 100
1, 34862, Control_c, 0, 64, 103
1, 34891, Control_c, 0, 64, 106
1, 34929, Note_on_c, 0, 68, 65
1, 34953, Note_on_c, 0, 58, 36
1, 35011, Note_off_c, 0, 61, 34
1, 35015, Note_off_c, 0, 64, 34
1, 35040, Control_c, 0, 64, 108
1, 35099, Note_off_c, 0, 68, 64
1, 35158, Control_c, 0, 64, 110
1, 35212, Note_on_c, 0, 70, 75
1, 35221, Note_on_c, 0, 54, 40
1, 35224, Note_off_c, 0, 58, 42
1, 35322, Control_c, 0, 67, 23
1, 35331, Note_off_c, 0, 54, 56
1, 35351, Control_c, 0, 64, 108
1, 35381, Control_c, 0, 64, 106
1, 35411, Control_c, 0, 64, 103
1, 35425, Control_c, 0, 64, 101
1, 35455, Control_c, 0, 64, 97
1, 35470, Control_c, 0, 64, 94
1, 35485, Control_c, 0, 64, 92
1, 35507, Control_c, 0, 64, 89
1, 35522, Control_c, 0, 64, 87
1, 35522, Control_c, 0, 67, 26
1, 35528, Note_on_c, 0, 67, 69
1, 35537, Control_c, 0, 64, 85
1, 35551, Control_c, 0, 64, 82
1, 35552, Note_on_c, 0, 59, 45
1, 35566, Control_c, 0, 64, 78
1, 35581, Control_c, 0, 64, 75
1, 35596, Control_c, 0, 64, 71
1, 35611, Control_c, 0, 64, 67
1, 35611, Control_c, 0, 67, 28
1, 35625, Control_c, 0, 64, 62
1, 35640, Control_c, 0, 64, 55
1, 35643, Note_off_c, 0, 70, 60
1, 35655, Control_c, 0, 64, 44
1, 35670, Control_c, 0, 64, 0
1, 35803, Control_c, 0, 67, 30
1, 35819, Control_c, 0, 64, 39
1, 35834, Control_c, 0, 64, 52
1, 35848, Control_c, 0, 64, 61
1, 35848, Control_c, 0, 67, 34
1, 35851, Note_on_c, 0, 55, 31
1, 35863, Control_c, 0, 64, 66
1, 35863, Control_c, 0, 67, 37
1, 35878, Control_c, 0, 64, 69
1, 35878, Control_c, 0, 67, 39
1, 35893, Control_c, 0, 64, 72
1, 35893, Control_c, 0, 67, 42
1, 35908, Control_c, 0, 64, 74
1, 35908, Control_c, 0, 67, 43
1, 35922, Control_c, 0, 64, 75
1, 35922, Control_c, 0, 67, 45
1, 35937, Control_c, 0, 64, 77
1, 35937, Control_c, 0, 67, 47
1, 35952, Control_c, 0, 64, 78
1, 35952, Control_c, 0, 67, 49
1, 35966, Control_c, 0, 64, 79
1, 35966, Control_c, 0, 67, 52
1, 35981, Control_c, 0, 64, 79
1, 35981, Control_c, 0, 67, 54
1, 35996, Control_c, 0, 67, 56
1, 36011, Control_c, 0, 67, 56
1, 36100, Control_c, 0, 64, 79
1, 36115, Control_c, 0, 64, 78
1, 36130, Control_c, 0, 64, 77
1, 36145, Control_c, 0, 64, 77
1, 36152, Note_on_c, 0, 60, 55
1, 36160, Control_c, 0, 64, 76
1, 36174, Control_c, 0, 64, 74
1, 36181, Note_on_c, 0, 52, 34
1, 36189, Control_c, 0, 64, 72
1, 36200, Note_off_c, 0, 55, 38
1, 36204, Control_c, 0, 64, 70
1, 36211, Note_off_c, 0, 67, 51
1, 36219, Control_c, 0, 64, 68
1, 36234, Control_c, 0, 64, 67
1, 36255, Control_c, 0, 64, 65
1, 36270, Control_c, 0, 64, 61
1, 36285, Control_c, 0, 64, 57
1, 36300, Control_c, 0, 64, 53
1, 36315, Control_c, 0, 64, 47
1, 36330, Control_c, 0, 64, 37
1, 36345, Control_c, 0, 64, 0
1, 36419, Control_c, 0, 67, 56
1, 36448, Control_c, 0, 67, 55
1, 36451, Note_on_c, 0, 48, 41
1, 36463, Control_c, 0, 64, 35
1, 36478, Control_c, 0, 64, 50
1, 36478, Control_c, 0, 67, 55
1, 36492, Control_c, 0, 64, 60
1, 36492, Control_c, 0, 67, 54
1, 36499, Note_off_c, 0, 52, 51
1, 36507, Control_c, 0, 64, 64
1, 36522, Control_c, 0, 64, 65
1, 36524, Note_off_c, 0, 59, 40
1, 36537, Control_c, 0, 64, 66
1, 36552, Control_c, 0, 64, 68
1, 36552, Control_c, 0, 67, 54
1, 36566, Control_c, 0, 64, 71
1, 36581, Control_c, 0, 64, 75
1, 36581, Control_c, 0, 67, 53
1, 36596, Control_c, 0, 64, 79
1, 36606, Note_off_c, 0, 48, 51
1, 36611, Control_c, 0, 64, 83
1, 36627, Control_c, 0, 64, 85
1, 36642, Control_c, 0, 64, 87
1, 36657, Control_c, 0, 64, 88
1, 36789, Control_c, 0, 64, 87
1, 36804, Control_c, 0, 64, 87
1, 36819, Control_c, 0, 64, 86
1, 36828, Note_on_c, 0, 55, 63
1, 36834, Control_c, 0, 64, 85
1, 36849, Control_c, 0, 64, 83
1, 36864, Control_c, 0, 64, 82
1, 36878, Control_c, 0, 64, 80
1, 36893, Control_c, 0, 64, 79
1, 36908, Control_c, 0, 64, 77
1, 36923, Control_c, 0, 64, 75
1, 36938, Control_c, 0, 64, 72
1, 36949, Note_off_c, 0, 60, 36
1, 36953, Control_c, 0, 64, 69
1, 36968, Control_c, 0, 64, 67
1, 36983, Control_c, 0, 64, 64
1, 37004, Control_c, 0, 64, 60
1, 37019, Control_c, 0, 64, 54
1, 37034, Control_c, 0, 64, 46
1, 37049, Control_c, 0, 64, 35
1, 37064, Control_c, 0, 64, 0
1, 37175, Note_on_c, 0, 33, 56
1, 37227, Control_c, 0, 67, 53
1, 37242, Control_c, 0, 64, 33
1, 37242, Control_c, 0, 67, 52
1, 37257, Control_c, 0, 64, 44
1, 37257, Control_c, 0, 67, 52
1, 37272, Control_c, 0, 64, 53
1, 37272, Control_c, 0, 67, 51
1, 37287, Control_c, 0, 64, 58
1, 37302, Control_c, 0, 64, 61
1, 37316, Control_c, 0, 64, 63
1, 37331, Control_c, 0, 64, 65
1, 37331, Control_c, 0, 67, 51
1, 37346, Control_c, 0, 64, 67
1, 37361, Control_c, 0, 64, 69
1, 37376, Control_c, 0, 64, 71
1, 37390, Control_c, 0, 64, 73
1, 37405, Control_c, 0, 64, 74
1, 37421, Control_c, 0, 64, 75
1, 37436, Control_c, 0, 64, 75
1, 37436, Control_c, 0, 67, 50
1, 37476, Note_on_c, 0, 62, 66
1, 37501, Note_on_c, 0, 34, 46
1, 37510, Control_c, 0, 64, 73
1, 37525, Control_c, 0, 64, 69
1, 37539, Control_c, 0, 64, 62
1, 37554, Control_c, 0, 64, 51
1, 37559, Note_off_c, 0, 55, 56
1, 37569, Control_c, 0, 64, 42
1, 37584, Control_c, 0, 64, 39
1, 37599, Control_c, 0, 64, 44
1, 37599, Control_c, 0, 67, 50
1, 37608, Note_off_c, 0, 33, 59
1, 37613, Control_c, 0, 64, 54
1, 37613, Control_c, 0, 67, 49
1, 37628, Control_c, 0, 64, 61
1, 37628, Control_c, 0, 67, 48
1, 37643, Control_c, 0, 64, 64
1, 37658, Control_c, 0, 64, 66
1, 37673, Control_c, 0, 64, 68
1, 37673, Control_c, 0, 67, 48
1, 37687, Control_c, 0, 64, 69
1, 37687, Control_c, 0, 67, 47
1, 37702, Control_c, 0, 64, 69
1, 37702, Control_c, 0, 67, 47
1, 37717, Control_c, 0, 64, 70
1, 37717, Control_c, 0, 67, 46
1, 37732, Control_c, 0, 67, 45
1, 37775, Note_on_c, 0, 60, 76
1, 37776, Note_on_c, 0, 39, 60
1, 37784, Control_c, 0, 64, 70
1, 37799, Control_c, 0, 64, 71
1, 37810, Note_off_c, 0, 62, 63
1, 37814, Control_c, 0, 64, 73
1, 37828, Control_c, 0, 64, 74
1, 37843, Control_c, 0, 64, 76
1, 37843, Control_c, 0, 67, 44
1, 37858, Control_c, 0, 64, 77
1, 37858, Control_c, 0, 67, 44
1, 37873, Control_c, 0, 64, 79
1, 37873, Control_c, 0, 67, 43
1, 37888, Control_c, 0, 64, 81
1, 37888, Control_c, 0, 67, 43
1, 37902, Control_c, 0, 64, 83
1, 37902, Control_c, 0, 67, 42
1, 37917, Control_c, 0, 64, 86
1, 37932, Control_c, 0, 64, 88
1, 37932, Control_c, 0, 67, 42
1, 37946, Control_c, 0, 64, 88
1, 37967, Note_off_c, 0, 34, 32
1, 38035, Control_c, 0, 64, 87
1, 38047, Note_on_c, 0, 61, 79
1, 38050, Control_c, 0, 64, 85
1, 38065, Control_c, 0, 64, 83
1, 38068, Note_on_c, 0, 45, 60
1, 38080, Control_c, 0, 64, 81
1, 38089, Note_off_c, 0, 39, 59
1, 38095, Control_c, 0, 64, 79
1, 38110, Control_c, 0, 64, 74
1, 38124, Control_c, 0, 64, 68
1, 38133, Note_off_c, 0, 60, 57
1, 38139, Control_c, 0, 64, 61
1, 38154, Control_c, 0, 64, 49
1, 38169, Control_c, 0, 64, 31
1, 38184, Control_c, 0, 64, 0
1, 38318, Control_c, 0, 67, 41
1, 38327, Note_on_c, 0, 42, 62
1, 38348, Control_c, 0, 64, 30
1, 38362, Control_c, 0, 64, 51
1, 38362, Control_c, 0, 67, 41
1, 38368, Note_off_c, 0, 45, 64
1, 38377, Control_c, 0, 64, 63
1, 38377, Control_c, 0, 67, 40
1, 38392, Control_c, 0, 64, 67
1, 38392, Control_c, 0, 67, 39
1, 38407, Control_c, 0, 64, 71
1, 38407, Control_c, 0, 67, 38
1, 38422, Control_c, 0, 64, 74
1, 38422, Control_c, 0, 67, 36
1, 38436, Control_c, 0, 64, 76
1, 38436, Control_c, 0, 67, 28
1, 38451, Control_c, 0, 64, 78
1, 38451, Control_c, 0, 67, 22
1, 38466, Control_c, 0, 64, 79
1, 38466, Control_c, 0, 67, 0
1, 38481, Control_c, 0, 64, 80
1, 38503, Control_c, 0, 64, 80
1, 38533, Control_c, 0, 64, 81
1, 38607, Control_c, 0, 64, 80
1, 38622, Control_c, 0, 64, 80
1, 38626, Note_on_c, 0, 66, 75
1, 38637, Control_c, 0, 64, 76
1, 38643, Note_on_c, 0, 51, 63
1, 38651, Control_c, 0, 64, 69
1, 38666, Control_c, 0, 64, 60
1, 38681, Control_c, 0, 64, 48
1, 38695, Control_c, 0, 64, 44
1, 38710, Control_c, 0, 64, 52
1, 38723, Note_off_c, 0, 61, 61
1, 38725, Control_c, 0, 64, 60
1, 38740, Control_c, 0, 64, 65
1, 38755, Control_c, 0, 64, 68
1, 38769, Control_c, 0, 64, 71
1, 38784, Control_c, 0, 64, 72
1, 38799, Control_c, 0, 64, 73
1, 38801, Note_off_c, 0, 42, 57
1, 38918, Note_on_c, 0, 64, 79
1, 38929, Note_on_c, 0, 49, 61
1, 38961, Note_off_c, 0, 51, 61
1, 38962, Control_c, 0, 64, 73
1, 38978, Note_off_c, 0, 66, 52
1, 38992, Control_c, 0, 64, 74
1, 39007, Control_c, 0, 64, 74
1, 39022, Control_c, 0, 64, 75
1, 39037, Control_c, 0, 64, 75
1, 39052, Control_c, 0, 64, 76
1, 39066, Control_c, 0, 64, 77
1, 39077, Note_off_c, 0, 64, 64
1, 39081, Control_c, 0, 64, 78
1, 39185, Control_c, 0, 64, 77
1, 39200, Control_c, 0, 64, 76
1, 39215, Control_c, 0, 64, 75
1, 39226, Note_on_c, 0, 64, 80
1, 39230, Control_c, 0, 64, 73
1, 39242, Note_on_c, 0, 54, 70
1, 39252, Control_c, 0, 64, 71
1, 39266, Control_c, 0, 64, 68
1, 39281, Control_c, 0, 64, 64
1, 39296, Control_c, 0, 64, 58
1, 39311, Control_c, 0, 64, 47
1, 39320, Note_off_c, 0, 49, 62
1, 39326, Control_c, 0, 64, 0
1, 39487, Control_c, 0, 64, 34
1, 39502, Control_c, 0, 64, 57
1, 39517, Control_c, 0, 64, 63
1, 39531, Control_c, 0, 64, 65
1, 39546, Control_c, 0, 64, 67
1, 39548, Note_on_c, 0, 57, 59
1, 39561, Control_c, 0, 64, 69
1, 39576, Control_c, 0, 64, 72
1, 39591, Control_c, 0, 64, 76
1, 39606, Control_c, 0, 64, 81
1, 39621, Control_c, 0, 64, 83
1, 39635, Control_c, 0, 64, 84
1, 39680, Control_c, 0, 64, 85
1, 39769, Control_c, 0, 64, 84
1, 39798, Control_c, 0, 64, 83
1, 39814, Control_c, 0, 64, 82
1, 39820, Note_on_c, 0, 65, 85
1, 39829, Control_c, 0, 64, 80
1, 39836, Note_off_c, 0, 64, 60
1, 39837, Note_on_c, 0, 56, 66
1, 39844, Control_c, 0, 64, 78
1, 39859, Control_c, 0, 64, 75
1, 39874, Control_c, 0, 64, 71
1, 39876, Note_off_c, 0, 57, 38
1, 39877, Note_off_c, 0, 54, 55
1, 39888, Control_c, 0, 64, 67
1, 39903, Control_c, 0, 64, 61
1, 39918, Control_c, 0, 64, 52
1, 39932, Control_c, 0, 64, 0
1, 40134, Note_on_c, 0, 50, 58
1, 40147, Control_c, 0, 64, 50
1, 40162, Control_c, 0, 64, 60
1, 40177, Control_c, 0, 64, 64
1, 40192, Control_c, 0, 64, 67
1, 40208, Note_off_c, 0, 56, 61
1, 40208, Control_c, 0, 64, 70
1, 40222, Control_c, 0, 64, 74
1, 40237, Control_c, 0, 64, 78
1, 40252, Control_c, 0, 64, 84
1, 40266, Control_c, 0, 64, 89
1, 40274, Note_off_c, 0, 50, 58
1, 40281, Control_c, 0, 64, 92
1, 40296, Control_c, 0, 64, 94
1, 40326, Control_c, 0, 64, 94
1, 40414, Control_c, 0, 64, 94
1, 40418, Note_on_c, 0, 74, 82
1, 40429, Control_c, 0, 64, 93
1, 40444, Control_c, 0, 64, 93
1, 40446, Note_on_c, 0, 53, 62
1, 40458, Control_c, 0, 64, 92
1, 40473, Control_c, 0, 64, 90
1, 40488, Control_c, 0, 64, 88
1, 40503, Control_c, 0, 64, 85
1, 40505, Note_off_c, 0, 65, 59
1, 40518, Control_c, 0, 64, 82
1, 40533, Control_c, 0, 64, 78
1, 40548, Control_c, 0, 64, 72
1, 40563, Control_c, 0, 64, 66
1, 40578, Control_c, 0, 64, 58
1, 40593, Control_c, 0, 64, 48
1, 40608, Control_c, 0, 64, 0
1, 40676, Note_on_c, 0, 46, 63
1, 40697, Control_c, 0, 64, 32
1, 40712, Control_c, 0, 64, 49
1, 40727, Control_c, 0, 64, 59
1, 40749, Control_c, 0, 64, 63
1, 40763, Control_c, 0, 64, 64
1, 40778, Control_c, 0, 64, 65
1, 40793, Control_c, 0, 64, 66
1, 40808, Control_c, 0, 64, 68
1, 40823, Control_c, 0, 64, 70
1, 40837, Control_c, 0, 64, 71
1, 40852, Control_c, 0, 64, 73
1, 40862, Note_on_c, 0, 41, 70
1, 40867, Control_c, 0, 64, 74
1, 40882, Control_c, 0, 64, 74
1, 40897, Control_c, 0, 64, 75
1, 40912, Control_c, 0, 64, 76
1, 40926, Control_c, 0, 64, 77
1, 40956, Control_c, 0, 64, 76
1, 40971, Control_c, 0, 64, 72
1, 40986, Control_c, 0, 64, 63
1, 41001, Control_c, 0, 64, 52
1, 41016, Control_c, 0, 64, 52
1, 41031, Control_c, 0, 64, 56
1, 41043, Note_on_c, 0, 42, 76
1, 41045, Control_c, 0, 64, 61
1, 41060, Control_c, 0, 64, 64
1, 41075, Control_c, 0, 64, 67
1, 41076, Note_off_c, 0, 53, 51
1, 41078, Note_off_c, 0, 46, 41
1, 41089, Control_c, 0, 64, 70
1, 41095, Note_off_c, 0, 41, 58
1, 41104, Control_c, 0, 64, 74
1, 41119, Control_c, 0, 64, 76
1, 41134, Control_c, 0, 64, 77
1, 41149, Control_c, 0, 64, 78
1, 41163, Control_c, 0, 64, 79
1, 41178, Control_c, 0, 64, 79
1, 41193, Control_c, 0, 64, 80
1, 41207, Control_c, 0, 64, 81
1, 41216, Note_on_c, 0, 38, 76
1, 41216, Note_off_c, 0, 42, 65
1, 41267, Control_c, 0, 64, 81
1, 41281, Control_c, 0, 64, 82
1, 41299, Note_on_c, 0, 72, 90
1, 41311, Note_off_c, 0, 74, 56
1, 41311, Control_c, 0, 64, 82
1, 41342, Note_off_c, 0, 38, 63
1, 41356, Control_c, 0, 64, 83
1, 41371, Control_c, 0, 64, 84
1, 41386, Control_c, 0, 64, 84
1, 41401, Control_c, 0, 64, 85
1, 41412, Note_on_c, 0, 36, 79
1, 41705, Control_c, 0, 64, 84
1, 41706, Note_on_c, 0, 70, 87
1, 41719, Control_c, 0, 64, 84
1, 41727, Note_on_c, 0, 34, 69
1, 41734, Control_c, 0, 64, 83
1, 41739, Note_off_c, 0, 72, 64
1, 41749, Control_c, 0, 64, 82
1, 41752, Note_off_c, 0, 36, 62
1, 41764, Control_c, 0, 64, 81
1, 41779, Control_c, 0, 64, 80
1, 41793, Control_c, 0, 64, 77
1, 41808, Control_c, 0, 64, 72
1, 41823, Control_c, 0, 64, 63
1, 41837, Control_c, 0, 64, 44
1, 41852, Control_c, 0, 64, 0
1, 41995, Note_on_c, 0, 81, 84
1, 42020, Note_on_c, 0, 45, 59
1, 42119, Control_c, 0, 64, 44
1, 42134, Control_c, 0, 64, 56
1, 42149, Control_c, 0, 64, 63
1, 42164, Control_c, 0, 64, 68
1, 42178, Control_c, 0, 64, 72
1, 42193, Control_c, 0, 64, 77
1, 42208, Control_c, 0, 64, 81
1, 42211, Note_off_c, 0, 45, 62
1, 42215, Note_on_c, 0, 82, 91
1, 42220, Note_off_c, 0, 34, 62
1, 42231, Control_c, 0, 64, 87
1, 42234, Note_on_c, 0, 46, 65
1, 42244, Note_off_c, 0, 81, 64
1, 42246, Control_c, 0, 64, 93
1, 42260, Control_c, 0, 64, 100
1, 42275, Control_c, 0, 64, 107
1, 42290, Control_c, 0, 64, 118
1, 42296, Note_off_c, 0, 46, 59
1, 42305, Control_c, 0, 64, 127
1, 42325, Note_off_c, 0, 82, 61
1, 42420, Note_on_c, 0, 82, 95
1, 42437, Note_on_c, 0, 47, 69
1, 42468, Note_off_c, 0, 70, 62
1, 42572, Note_off_c, 0, 47, 61
1, 42599, Note_on_c, 0, 69, 84
1, 42616, Note_on_c, 0, 59, 57
1, 42712, Note_off_c, 0, 59, 62
1, 42760, Note_on_c, 0, 70, 85
1, 42767, Note_off_c, 0, 69, 64
1, 42778, Note_on_c, 0, 60, 56
1, 42799, Note_on_c, 0, 59, 46
1, 42826, Note_off_c, 0, 59, 57
1, 42830, Note_off_c, 0, 70, 65
1, 42873, Note_off_c, 0, 82, 62
1, 42888, Note_on_c, 0, 70, 87
1, 43010, Note_on_c, 0, 61, 66
1, 43010, Control_c, 0, 64, 111
1, 43022, Note_off_c, 0, 60, 63
1, 43025, Control_c, 0, 64, 104
1, 43040, Control_c, 0, 64, 100
1, 43055, Control_c, 0, 64, 96
1, 43070, Control_c, 0, 64, 92
1, 43084, Control_c, 0, 64, 88
1, 43099, Control_c, 0, 64, 83
1, 43114, Control_c, 0, 64, 79
1, 43126, Note_on_c, 0, 84, 87
1, 43129, Control_c, 0, 64, 75
1, 43144, Control_c, 0, 64, 71
1, 43158, Control_c, 0, 64, 68
1, 43173, Control_c, 0, 64, 63
1, 43188, Control_c, 0, 64, 57
1, 43203, Control_c, 0, 64, 44
1, 43218, Control_c, 0, 64, 0
1, 43258, Note_off_c, 0, 70, 64
1, 43350, Control_c, 0, 64, 45
1, 43365, Control_c, 0, 64, 56
1, 43375, Note_on_c, 0, 69, 60
1, 43380, Control_c, 0, 64, 61
1, 43395, Control_c, 0, 64, 63
1, 43410, Control_c, 0, 64, 64
1, 43424, Control_c, 0, 64, 64
1, 43439, Control_c, 0, 64, 65
1, 43454, Control_c, 0, 64, 66
1, 43464, Note_on_c, 0, 82, 85
1, 43469, Control_c, 0, 64, 68
1, 43484, Control_c, 0, 64, 69
1, 43499, Control_c, 0, 64, 72
1, 43514, Control_c, 0, 64, 74
1, 43529, Control_c, 0, 64, 75
1, 43538, Note_off_c, 0, 84, 62
1, 43544, Control_c, 0, 64, 77
1, 43558, Control_c, 0, 64, 78
1, 43562, Note_off_c, 0, 69, 53
1, 43573, Control_c, 0, 64, 79
1, 43585, Note_on_c, 0, 68, 62
1, 43588, Control_c, 0, 64, 80
1, 43602, Control_c, 0, 64, 81
1, 43617, Control_c, 0, 64, 81
1, 43706, Control_c, 0, 64, 81
1, 43721, Control_c, 0, 64, 78
1, 43743, Control_c, 0, 64, 72
1, 43745, Note_on_c, 0, 81, 87
1, 43758, Control_c, 0, 64, 66
1, 43772, Note_off_c, 0, 68, 58
1, 43773, Control_c, 0, 64, 60
1, 43781, Note_off_c, 0, 82, 56
1, 43782, Note_on_c, 0, 67, 52
1, 43788, Control_c, 0, 64, 55
1, 43803, Control_c, 0, 64, 57
1, 43818, Control_c, 0, 64, 61
1, 43833, Control_c, 0, 64, 65
1, 43848, Control_c, 0, 64, 69
1, 43863, Control_c, 0, 64, 73
1, 43878, Control_c, 0, 64, 76
1, 43892, Control_c, 0, 64, 77
1, 43922, Control_c, 0, 64, 76
1, 43937, Control_c, 0, 64, 72
1, 43952, Control_c, 0, 64, 66
1, 43967, Control_c, 0, 64, 63
1, 43969, Note_on_c, 0, 66, 54
1, 43981, Control_c, 0, 64, 65
1, 43996, Control_c, 0, 64, 68
1, 44011, Control_c, 0, 64, 72
1, 44013, Note_on_c, 0, 80, 83
1, 44026, Control_c, 0, 64, 75
1, 44039, Note_off_c, 0, 61, 51
1, 44040, Control_c, 0, 64, 77
1, 44047, Note_off_c, 0, 67, 36
1, 44055, Control_c, 0, 64, 79
1, 44068, Note_off_c, 0, 66, 63
1, 44070, Control_c, 0, 64, 80
1, 44085, Control_c, 0, 64, 81
1, 44086, Note_off_c, 0, 81, 60
1, 44130, Note_on_c, 0, 65, 58
1, 44203, Control_c, 0, 64, 81
1, 44218, Control_c, 0, 64, 80
1, 44232, Control_c, 0, 64, 79
1, 44247, Control_c, 0, 64, 77
1, 44262, Control_c, 0, 64, 76
1, 44277, Control_c, 0, 64, 74
1, 44292, Control_c, 0, 64, 72
1, 44292, Control_c, 0, 67, 19
1, 44304, Note_off_c, 0, 65, 63
1, 44307, Control_c, 0, 64, 69
1, 44316, Note_on_c, 0, 68, 77
1, 44322, Control_c, 0, 64, 67
1, 44337, Control_c, 0, 64, 65
1, 44344, Note_on_c, 0, 64, 51
1, 44352, Control_c, 0, 64, 64
1, 44366, Control_c, 0, 64, 61
1, 44381, Control_c, 0, 64, 57
1, 44396, Control_c, 0, 64, 53
1, 44402, Note_off_c, 0, 80, 58
1, 44411, Control_c, 0, 64, 46
1, 44425, Control_c, 0, 64, 36
1, 44440, Control_c, 0, 64, 0
1, 44550, Note_on_c, 0, 56, 49
1, 44590, Note_off_c, 0, 64, 54
1, 44656, Control_c, 0, 64, 44
1, 44671, Control_c, 0, 64, 55
1, 44671, Control_c, 0, 67, 22
1, 44685, Control_c, 0, 64, 62
1, 44700, Control_c, 0, 64, 66
1, 44715, Control_c, 0, 64, 69
1, 44715, Control_c, 0, 67, 24
1, 44730, Control_c, 0, 64, 71
1, 44736, Note_on_c, 0, 58, 56
1, 44745, Control_c, 0, 64, 73
1, 44755, Note_off_c, 0, 56, 52
1, 44760, Control_c, 0, 64, 74
1, 44760, Control_c, 0, 67, 26
1, 44775, Control_c, 0, 64, 75
1, 44775, Control_c, 0, 67, 28
1, 44804, Control_c, 0, 67, 30
1, 44825, Note_off_c, 0, 68, 55
1, 44893, Control_c, 0, 64, 74
1, 44921, Note_on_c, 0, 68, 71
1, 44923, Control_c, 0, 64, 73
1, 44937, Control_c, 0, 64, 72
1, 44951, Note_on_c, 0, 61, 45
1, 44952, Control_c, 0, 64, 70
1, 44954, Note_off_c, 0, 58, 39
1, 44967, Control_c, 0, 64, 69
1, 44982, Control_c, 0, 64, 67
1, 44997, Control_c, 0, 64, 66
1, 45011, Control_c, 0, 64, 63
1, 45026, Control_c, 0, 64, 59
1, 45041, Control_c, 0, 64, 52
1, 45055, Control_c, 0, 64, 43
1, 45070, Control_c, 0, 64, 0
1, 45121, Note_on_c, 0, 52, 39
1, 45159, Control_c, 0, 64, 35
1, 45174, Control_c, 0, 64, 46
1, 45177, Note_off_c, 0, 61, 42
1, 45189, Control_c, 0, 64, 56
1, 45204, Note_on_c, 0, 70, 65
1, 45204, Control_c, 0, 64, 60
1, 45219, Control_c, 0, 64, 62
1, 45241, Control_c, 0, 64, 63
1, 45257, Note_off_c, 0, 68, 59
1, 45315, Note_on_c, 0, 56, 52
1, 45336, Note_off_c, 0, 52, 37
1, 45344, Control_c, 0, 64, 62
1, 45359, Control_c, 0, 64, 62
1, 45389, Control_c, 0, 64, 61
1, 45405, Control_c, 0, 64, 61
1, 45420, Control_c, 0, 64, 60
1, 45434, Control_c, 0, 64, 59
1, 45449, Control_c, 0, 64, 58
1, 45464, Control_c, 0, 64, 58
1, 45478, Control_c, 0, 64, 57
1, 45493, Control_c, 0, 64, 57
1, 45508, Control_c, 0, 64, 56
1, 45511, Note_off_c, 0, 56, 55
1, 45514, Note_on_c, 0, 67, 59
1, 45523, Control_c, 0, 64, 54
1, 45538, Control_c, 0, 64, 51
1, 45539, Note_on_c, 0, 58, 43
1, 45553, Control_c, 0, 64, 48
1, 45568, Control_c, 0, 64, 45
1, 45583, Control_c, 0, 64, 37
1, 45589, Note_off_c, 0, 70, 58
1, 45598, Control_c, 0, 64, 0
1, 45725, Note_on_c, 0, 51, 39
1, 45760, Control_c, 0, 64, 40
1, 45775, Control_c, 0, 64, 52
1, 45790, Control_c, 0, 64, 60
1, 45804, Control_c, 0, 64, 63
1, 45805, Note_off_c, 0, 58, 37
1, 45819, Control_c, 0, 64, 64
1, 45834, Control_c, 0, 64, 65
1, 45849, Control_c, 0, 64, 66
1, 45864, Control_c, 0, 64, 67
1, 45878, Control_c, 0, 64, 68
1, 45893, Control_c, 0, 64, 69
1, 45908, Control_c, 0, 64, 69
1, 45911, Note_on_c, 0, 55, 36
1, 45923, Control_c, 0, 64, 70
1, 45926, Note_off_c, 0, 51, 37
1, 45990, Control_c, 0, 64, 69
1, 46004, Control_c, 0, 64, 68
1, 46019, Control_c, 0, 64, 68
1, 46034, Control_c, 0, 64, 66
1, 46049, Control_c, 0, 64, 65
1, 46064, Control_c, 0, 64, 64
1, 46078, Control_c, 0, 64, 63
1, 46093, Control_c, 0, 64, 60
1, 46108, Control_c, 0, 64, 57
1, 46116, Note_on_c, 0, 60, 51
1, 46123, Note_off_c, 0, 55, 46
1, 46123, Control_c, 0, 64, 53
1, 46138, Control_c, 0, 64, 49
1, 46147, Note_on_c, 0, 57, 20
1, 46152, Note_off_c, 0, 67, 49
1, 46152, Control_c, 0, 64, 43
1, 46167, Control_c, 0, 64, 32
1, 46182, Control_c, 0, 64, 0
1, 46331, Control_c, 0, 64, 45
1, 46332, Note_on_c, 0, 48, 28
1, 46346, Control_c, 0, 64, 57
1, 46352, Note_off_c, 0, 60, 64
1, 46361, Control_c, 0, 64, 62
1, 46376, Control_c, 0, 64, 64
1, 46390, Control_c, 0, 64, 66
1, 46405, Control_c, 0, 64, 68
1, 46420, Control_c, 0, 64, 70
1, 46435, Control_c, 0, 64, 72
1, 46450, Control_c, 0, 64, 74
1, 46465, Note_off_c, 0, 57, 38
1, 46465, Control_c, 0, 64, 76
1, 46480, Control_c, 0, 64, 78
1, 46495, Control_c, 0, 64, 79
1, 46509, Control_c, 0, 64, 80
1, 46513, Note_on_c, 0, 51, 31
1, 46534, Note_off_c, 0, 48, 36
1, 46583, Control_c, 0, 64, 80
1, 46587, Note_off_c, 0, 51, 40
1, 46598, Control_c, 0, 67, 32
1, 46613, Control_c, 0, 67, 32
1, 46627, Control_c, 0, 67, 33
1, 46657, Control_c, 0, 67, 34
1, 46672, Control_c, 0, 67, 41
1, 46687, Control_c, 0, 67, 47
1, 46701, Control_c, 0, 64, 80
1, 46701, Control_c, 0, 67, 53
1, 46716, Control_c, 0, 67, 57
1, 46739, Control_c, 0, 64, 79
1, 46739, Control_c, 0, 67, 59
1, 46753, Control_c, 0, 64, 79
1, 46753, Control_c, 0, 67, 60
1, 46768, Control_c, 0, 64, 78
1, 46768, Control_c, 0, 67, 63
1, 46775, Note_on_c, 0, 43, 64
1, 46783, Control_c, 0, 64, 77
1, 46783, Control_c, 0, 67, 66
1, 46798, Control_c, 0, 64, 76
1, 46798, Control_c, 0, 67, 71
1, 46813, Control_c, 0, 64, 75
1, 46813, Control_c, 0, 67, 73
1, 46827, Control_c, 0, 64, 74
1, 46827, Control_c, 0, 67, 74
1, 46842, Control_c, 0, 64, 72
1, 46857, Control_c, 0, 64, 71
1, 46872, Control_c, 0, 64, 68
1, 46872, Control_c, 0, 67, 75
1, 46887, Control_c, 0, 64, 65
1, 46901, Control_c, 0, 64, 62
1, 46901, Control_c, 0, 67, 76
1, 46916, Control_c, 0, 64, 61
1, 46916, Control_c, 0, 67, 79
1, 46931, Control_c, 0, 64, 59
1, 46931, Control_c, 0, 67, 81
1, 46946, Control_c, 0, 64, 58
1, 46946, Control_c, 0, 67, 83
1, 46960, Control_c, 0, 64, 55
1, 46960, Control_c, 0, 67, 83
1, 46975, Control_c, 0, 64, 51
1, 46990, Control_c, 0, 64, 49
1, 47006, Note_on_c, 0, 55, 63
1, 47006, Control_c, 0, 64, 47
1, 47021, Control_c, 0, 64, 45
1, 47027, Note_on_c, 0, 33, 55
1, 47036, Control_c, 0, 64, 41
1, 47050, Control_c, 0, 64, 35
1, 47055, Note_off_c, 0, 43, 48
1, 47065, Control_c, 0, 64, 0
1, 47110, Control_c, 0, 67, 83
1, 47139, Control_c, 0, 67, 82
1, 47183, Control_c, 0, 67, 82
1, 47205, Note_on_c, 0, 50, 68
1, 47213, Control_c, 0, 67, 81
1, 47228, Note_on_c, 0, 34, 51
1, 47243, Control_c, 0, 67, 81
1, 47248, Note_off_c, 0, 55, 60
1, 47268, Note_off_c, 0, 33, 55
1, 47347, Control_c, 0, 64, 32
1, 47362, Control_c, 0, 64, 44
1, 47376, Control_c, 0, 64, 55
1, 47382, Note_off_c, 0, 34, 63
1, 47391, Control_c, 0, 64, 60
1, 47401, Note_on_c, 0, 35, 60
1, 47406, Control_c, 0, 64, 63
1, 47406, Control_c, 0, 67, 80
1, 47421, Control_c, 0, 64, 64
1, 47436, Control_c, 0, 64, 64
1, 47436, Control_c, 0, 67, 80
1, 47450, Control_c, 0, 64, 65
1, 47532, Control_c, 0, 64, 64
1, 47547, Control_c, 0, 64, 64
1, 47562, Control_c, 0, 64, 63
1, 47576, Control_c, 0, 64, 62
1, 47577, Note_on_c, 0, 62, 61
1, 47585, Note_off_c, 0, 35, 62
1, 47591, Control_c, 0, 64, 61
1, 47591, Control_c, 0, 67, 79
1, 47595, Note_on_c, 0, 34, 56
1, 47606, Control_c, 0, 64, 60
1, 47611, Note_off_c, 0, 50, 36
1, 47621, Control_c, 0, 64, 57
1, 47621, Control_c, 0, 67, 79
1, 47636, Control_c, 0, 64, 52
1, 47650, Control_c, 0, 64, 45
1, 47665, Control_c, 0, 64, 30
1, 47680, Control_c, 0, 64, 0
1, 47680, Control_c, 0, 67, 78
1, 47740, Control_c, 0, 67, 78
1, 47762, Note_on_c, 0, 60, 71
1, 47768, Note_off_c, 0, 62, 63
1, 47778, Note_on_c, 0, 39, 60
1, 47784, Control_c, 0, 64, 34
1, 47800, Control_c, 0, 64, 50
1, 47815, Control_c, 0, 64, 59
1, 47830, Control_c, 0, 64, 62
1, 47845, Control_c, 0, 64, 64
1, 47860, Control_c, 0, 64, 65
1, 47874, Control_c, 0, 64, 66
1, 47874, Control_c, 0, 67, 77
1, 47878, Note_off_c, 0, 34, 54
1, 47889, Control_c, 0, 64, 67
1, 47890, Note_off_c, 0, 60, 64
1, 47904, Control_c, 0, 64, 68
1, 47904, Control_c, 0, 67, 77
1, 47919, Control_c, 0, 64, 68
1, 47934, Control_c, 0, 64, 69
1, 47944, Note_on_c, 0, 61, 74
1, 47963, Control_c, 0, 64, 68
1, 47964, Note_on_c, 0, 42, 68
1, 47975, Note_off_c, 0, 39, 57
1, 47978, Control_c, 0, 64, 66
1, 47992, Control_c, 0, 64, 63
1, 48007, Control_c, 0, 64, 61
1, 48022, Control_c, 0, 64, 62
1, 48022, Control_c, 0, 67, 76
1, 48037, Control_c, 0, 64, 63
1, 48037, Control_c, 0, 67, 76
1, 48052, Control_c, 0, 64, 63
1, 48108, Note_off_c, 0, 42, 63
1, 48111, Control_c, 0, 64, 64
1, 48112, Note_on_c, 0, 73, 81
1, 48123, Note_off_c, 0, 61, 61
1, 48135, Note_on_c, 0, 45, 61
1, 48155, Control_c, 0, 67, 75
1, 48170, Control_c, 0, 64, 64
1, 48170, Control_c, 0, 67, 75
1, 48252, Control_c, 0, 64, 65
1, 48313, Note_on_c, 0, 66, 82
1, 48316, Note_off_c, 0, 45, 61
1, 48325, Control_c, 0, 64, 64
1, 48334, Note_on_c, 0, 49, 66
1, 48372, Note_off_c, 0, 73, 61
1, 48400, Control_c, 0, 64, 64
1, 48415, Control_c, 0, 64, 63
1, 48429, Control_c, 0, 64, 62
1, 48444, Control_c, 0, 64, 59
1, 48459, Control_c, 0, 64, 54
1, 48474, Control_c, 0, 64, 43
1, 48489, Control_c, 0, 64, 0
1, 48498, Note_on_c, 0, 51, 66
1, 48507, Note_off_c, 0, 49, 58
1, 48638, Control_c, 0, 67, 75
1, 48692, Note_on_c, 0, 78, 74
1, 48701, Note_off_c, 0, 51, 52
1, 48703, Note_on_c, 0, 54, 52
1, 48722, Note_off_c, 0, 66, 60
1, 48771, Control_c, 0, 64, 40
1, 48786, Control_c, 0, 64, 49
1, 48801, Control_c, 0, 64, 55
1, 48816, Control_c, 0, 64, 59
1, 48830, Control_c, 0, 64, 61
1, 48845, Control_c, 0, 64, 62
1, 48845, Control_c, 0, 67, 75
1, 48860, Control_c, 0, 64, 64
1, 48875, Control_c, 0, 64, 66
1, 48880, Note_on_c, 0, 76, 78
1, 48889, Control_c, 0, 64, 68
1, 48889, Control_c, 0, 67, 74
1, 48893, Note_off_c, 0, 54, 63
1, 48904, Control_c, 0, 64, 70
1, 48904, Control_c, 0, 67, 74
1, 48911, Note_on_c, 0, 57, 50
1, 48912, Note_off_c, 0, 78, 63
1, 48919, Control_c, 0, 64, 72
1, 48934, Control_c, 0, 64, 73
1, 48948, Control_c, 0, 64, 74
1, 48954, Note_off_c, 0, 57, 62
1, 48971, Control_c, 0, 64, 74
1, 49001, Control_c, 0, 64, 75
1, 49019, Note_off_c, 0, 76, 60
1, 49030, Control_c, 0, 64, 75
1, 49104, Control_c, 0, 64, 75
1, 49123, Note_on_c, 0, 76, 80
1, 49134, Control_c, 0, 64, 73
1, 49148, Note_on_c, 0, 60, 53
1, 49148, Control_c, 0, 64, 70
1, 49163, Control_c, 0, 64, 64
1, 49178, Control_c, 0, 64, 56
1, 49178, Control_c, 0, 67, 73
1, 49193, Control_c, 0, 64, 48
1, 49193, Control_c, 0, 67, 73
1, 49208, Control_c, 0, 64, 36
1, 49222, Control_c, 0, 64, 0
1, 49222, Control_c, 0, 67, 72
1, 49237, Control_c, 0, 67, 72
1, 49267, Control_c, 0, 64, 37
1, 49267, Control_c, 0, 67, 71
1, 49282, Control_c, 0, 64, 53
1, 49282, Control_c, 0, 67, 71
1, 49297, Control_c, 0, 64, 60
1, 49297, Control_c, 0, 67, 70
1, 49312, Control_c, 0, 64, 64
1, 49312, Control_c, 0, 67, 70
1, 49327, Control_c, 0, 64, 65
1, 49336, Note_off_c, 0, 60, 59
1, 49341, Note_on_c, 0, 61, 53
1, 49342, Control_c, 0, 64, 67
1, 49356, Control_c, 0, 64, 69
1, 49357, Note_off_c, 0, 76, 59
1, 49371, Control_c, 0, 64, 71
1, 49371, Control_c, 0, 67, 69
1, 49386, Control_c, 0, 64, 73
1, 49401, Control_c, 0, 64, 74
1, 49476, Control_c, 0, 64, 73
1, 49491, Control_c, 0, 64, 73
1, 49506, Control_c, 0, 64, 71
1, 49520, Control_c, 0, 64, 69
1, 49535, Control_c, 0, 64, 66
1, 49537, Note_off_c, 0, 61, 59
1, 49543, Note_on_c, 0, 69, 68
1, 49550, Control_c, 0, 64, 62
1, 49565, Control_c, 0, 64, 53
1, 49579, Control_c, 0, 64, 45
1, 49581, Note_on_c, 0, 63, 40
1, 49594, Control_c, 0, 64, 39
1, 49609, Control_c, 0, 64, 43
1, 49624, Control_c, 0, 64, 51
1, 49624, Control_c, 0, 67, 70
1, 49639, Control_c, 0, 64, 59
1, 49639, Control_c, 0, 67, 71
1, 49653, Control_c, 0, 64, 64
1, 49653, Control_c, 0, 67, 72
1, 49668, Control_c, 0, 64, 67
1, 49668, Control_c, 0, 67, 73
1, 49683, Control_c, 0, 64, 69
1, 49683, Control_c, 0, 67, 74
1, 49698, Control_c, 0, 64, 70
1, 49698, Control_c, 0, 67, 75
1, 49713, Control_c, 0, 64, 70
1, 49735, Control_c, 0, 67, 75
1, 49750, Control_c, 0, 64, 70
1, 49750, Control_c, 0, 67, 76
1, 49757, Note_off_c, 0, 69, 56
1, 49765, Control_c, 0, 64, 69
1, 49772, Note_off_c, 0, 63, 57
1, 49779, Control_c, 0, 64, 68
1, 49794, Control_c, 0, 64, 67
1, 49794, Control_c, 0, 67, 76
1, 49807, Note_on_c, 0, 77, 65
1, 49809, Control_c, 0, 64, 65
1, 49809, Control_c, 0, 67, 77
1, 49824, Control_c, 0, 64, 62
1, 49839, Control_c, 0, 64, 58
1, 49839, Control_c, 0, 67, 77
1, 49845, Note_on_c, 0, 62, 29
1, 49853, Control_c, 0, 64, 52
1, 49868, Control_c, 0, 64, 42
1, 49883, Control_c, 0, 64, 0
1, 49942, Control_c, 0, 67, 78
1, 50045, Control_c, 0, 64, 37
1, 50060, Control_c, 0, 64, 55
1, 50072, Note_off_c, 0, 77, 60
1, 50075, Note_on_c, 0, 58, 30
1, 50075, Control_c, 0, 64, 63
1, 50090, Control_c, 0, 64, 65
1, 50105, Control_c, 0, 64, 68
1, 50120, Control_c, 0, 64, 70
1, 50130, Note_off_c, 0, 62, 35
1, 50135, Control_c, 0, 64, 74
1, 50149, Control_c, 0, 64, 77
1, 50149, Control_c, 0, 67, 77
1, 50164, Control_c, 0, 64, 79
1, 50164, Control_c, 0, 67, 77
1, 50179, Control_c, 0, 64, 80
1, 50194, Control_c, 0, 64, 80
1, 50239, Control_c, 0, 64, 81
1, 50254, Control_c, 0, 64, 81
1, 50310, Note_on_c, 0, 70, 60
1, 50326, Note_off_c, 0, 58, 43
1, 50339, Note_on_c, 0, 54, 29
1, 50421, Note_off_c, 0, 54, 59
1, 50513, Control_c, 0, 67, 77
1, 50543, Control_c, 0, 67, 78
1, 50602, Control_c, 0, 64, 81
1, 50641, Note_on_c, 0, 82, 77
1, 50647, Control_c, 0, 64, 80
1, 50662, Control_c, 0, 64, 80
1, 50672, Note_on_c, 0, 53, 37
1, 50676, Control_c, 0, 64, 79
1, 50676, Control_c, 0, 67, 78
1, 50691, Control_c, 0, 64, 78
1, 50706, Control_c, 0, 64, 77
1, 50720, Control_c, 0, 64, 76
1, 50735, Control_c, 0, 64, 75
1, 50750, Control_c, 0, 64, 74
1, 50750, Control_c, 0, 67, 79
1, 50765, Control_c, 0, 64, 73
1, 50780, Control_c, 0, 64, 71
1, 50780, Control_c, 0, 67, 80
1, 50782, Note_off_c, 0, 70, 34
1, 50794, Control_c, 0, 64, 70
1, 50794, Control_c, 0, 67, 80
1, 50809, Control_c, 0, 64, 68
1, 50809, Control_c, 0, 67, 81
1, 50824, Control_c, 0, 64, 66
1, 50824, Control_c, 0, 67, 81
1, 50839, Control_c, 0, 64, 65
1, 50839, Control_c, 0, 67, 82
1, 50854, Control_c, 0, 64, 64
1, 50854, Control_c, 0, 67, 82
1, 50868, Control_c, 0, 64, 62
1, 50883, Control_c, 0, 64, 60
1, 50898, Control_c, 0, 64, 57
1, 50913, Control_c, 0, 64, 55
1, 50913, Control_c, 0, 67, 83
1, 50927, Control_c, 0, 64, 54
1, 50957, Note_on_c, 0, 46, 49
1, 50957, Control_c, 0, 64, 54
1, 50972, Control_c, 0, 64, 52
1, 50987, Control_c, 0, 64, 51
1, 51003, Control_c, 0, 67, 82
1, 51017, Control_c, 0, 64, 52
1, 51017, Control_c, 0, 67, 82
1, 51032, Control_c, 0, 64, 55
1, 51032, Control_c, 0, 67, 81
1, 51047, Control_c, 0, 64, 58
1, 51062, Note_off_c, 0, 53, 37
1, 51062, Control_c, 0, 64, 60
1, 51062, Control_c, 0, 67, 81
1, 51077, Control_c, 0, 64, 62
1, 51091, Control_c, 0, 64, 63
1, 51106, Control_c, 0, 64, 64
1, 51121, Control_c, 0, 64, 65
1, 51136, Control_c, 0, 64, 66
1, 51136, Control_c, 0, 67, 80
1, 51181, Control_c, 0, 64, 65
1, 51181, Control_c, 0, 67, 80
1, 51232, Control_c, 0, 64, 65
1, 51247, Control_c, 0, 64, 64
1, 51262, Control_c, 0, 64, 63
1, 51277, Control_c, 0, 64, 61
1, 51292, Control_c, 0, 64, 59
1, 51306, Control_c, 0, 64, 57
1, 51312, Note_on_c, 0, 41, 40
1, 51321, Control_c, 0, 64, 55
1, 51331, Note_off_c, 0, 46, 57
1, 51336, Control_c, 0, 64, 52
1, 51351, Control_c, 0, 64, 48
1, 51366, Control_c, 0, 64, 41
1, 51381, Control_c, 0, 64, 35
1, 51395, Control_c, 0, 64, 31
1, 51410, Control_c, 0, 64, 0
1, 51499, Control_c, 0, 64, 34
1, 51514, Control_c, 0, 64, 39
1, 51529, Control_c, 0, 64, 45
1, 51543, Control_c, 0, 64, 50
1, 51558, Control_c, 0, 64, 54
1, 51573, Control_c, 0, 64, 58
1, 51588, Control_c, 0, 64, 61
1, 51603, Control_c, 0, 64, 63
1, 51617, Control_c, 0, 64, 64
1, 51632, Control_c, 0, 64, 65
1, 51647, Control_c, 0, 64, 67
1, 51662, Control_c, 0, 64, 68
1, 51677, Control_c, 0, 64, 69
1, 51691, Control_c, 0, 64, 70
1, 51721, Control_c, 0, 64, 70
1, 51852, Note_on_c, 0, 34, 33
1, 51855, Control_c, 0, 64, 70
1, 51900, Control_c, 0, 64, 69
1, 51929, Control_c, 0, 64, 69
1, 51959, Control_c, 0, 64, 68
1, 51974, Note_off_c, 0, 41, 38
1, 51981, Control_c, 0, 64, 67
1, 52011, Control_c, 0, 64, 67
1, 52026, Control_c, 0, 64, 66
1, 52041, Control_c, 0, 64, 66
1, 52055, Control_c, 0, 64, 65
1, 52070, Control_c, 0, 64, 64
1, 52085, Control_c, 0, 64, 63
1, 52099, Control_c, 0, 64, 62
1, 52114, Control_c, 0, 64, 61
1, 52129, Control_c, 0, 64, 60
1, 52144, Control_c, 0, 64, 60
1, 52159, Control_c, 0, 64, 59
1, 52173, Control_c, 0, 64, 57
1, 52188, Control_c, 0, 64, 57
1, 52203, Control_c, 0, 64, 56
1, 52218, Control_c, 0, 64, 56
1, 52233, Control_c, 0, 64, 55
1, 52248, Control_c, 0, 64, 54
1, 52263, Control_c, 0, 64, 53
1, 52278, Control_c, 0, 64, 52
1, 52292, Control_c, 0, 64, 50
1, 52307, Control_c, 0, 64, 49
1, 52322, Control_c, 0, 64, 46
1, 52337, Control_c, 0, 64, 42
1, 52352, Control_c, 0, 64, 36
1, 52366, Control_c, 0, 64, 0
1, 52589, Control_c, 0, 67, 79
1, 53012, Control_c, 0, 64, 30
1, 53012, Control_c, 0, 67, 80
1, 53027, Control_c, 0, 64, 45
1, 53027, Control_c, 0, 67, 80
1, 53042, Control_c, 0, 64, 55
1, 53042, Control_c, 0, 67, 81
1, 53057, Control_c, 0, 64, 59
1, 53057, Control_c, 0, 67, 81
1, 53071, Control_c, 0, 64, 60
1, 53071, Control_c, 0, 67, 82
1, 53086, Control_c, 0, 64, 61
1, 53086, Control_c, 0, 67, 83
1, 53101, Control_c, 0, 64, 63
1, 53101, Control_c, 0, 67, 84
1, 53115, Control_c, 0, 64, 65
1, 53115, Control_c, 0, 67, 84
1, 53130, Control_c, 0, 64, 66
1, 53130, Control_c, 0, 67, 85
1, 53145, Control_c, 0, 64, 67
1, 53145, Control_c, 0, 67, 86
1, 53160, Control_c, 0, 64, 68
1, 53160, Control_c, 0, 67, 88
1, 53175, Control_c, 0, 64, 70
1, 53175, Control_c, 0, 67, 97
1, 53190, Control_c, 0, 64, 72
1, 53190, Control_c, 0, 67, 105
1, 53205, Control_c, 0, 64, 75
1, 53205, Control_c, 0, 67, 111
1, 53220, Control_c, 0, 64, 77
1, 53220, Control_c, 0, 67, 117
1, 53223, Note_off_c, 0, 82, 58
1, 53235, Control_c, 0, 64, 80
1, 53235, Control_c, 0, 67, 122
1, 53250, Control_c, 0, 64, 83
1, 53250, Control_c, 0, 67, 127
1, 53264, Control_c, 0, 64, 88
1, 53279, Control_c, 0, 64, 92
1, 53294, Control_c, 0, 64, 96
1, 53309, Control_c, 0, 64, 100
1, 53323, Control_c, 0, 64, 103
1, 53338, Control_c, 0, 64, 107
1, 53353, Control_c, 0, 64, 111
1, 53368, Control_c, 0, 64, 118
1, 53383, Control_c, 0, 64, 127
1, 53604, Note_on_c, 0, 38, 32
1, 53734, Note_on_c, 0, 39, 45
1, 53794, Note_on_c, 0, 46, 45
1, 53872, Note_on_c, 0, 45, 47
1, 53926, Note_on_c, 0, 51, 47
1, 54005, Note_on_c, 0, 54, 51
1, 54169, Note_off_c, 0, 38, 39
1, 54266, Note_on_c, 0, 58, 59
1, 54272, Control_c, 0, 64, 122
1, 54287, Control_c, 0, 64, 117
1, 54302, Control_c, 0, 64, 114
1, 54308, Note_off_c, 0, 45, 36
1, 54316, Control_c, 0, 64, 112
1, 54331, Control_c, 0, 64, 110
1, 54346, Control_c, 0, 64, 107
1, 54361, Control_c, 0, 64, 104
1, 54367, Note_off_c, 0, 54, 59
1, 54375, Control_c, 0, 64, 101
1, 54390, Control_c, 0, 64, 98
1, 54405, Control_c, 0, 64, 96
1, 54420, Control_c, 0, 64, 94
1, 54424, Note_off_c, 0, 51, 43
1, 54435, Control_c, 0, 64, 93
1, 54449, Control_c, 0, 64, 90
1, 54464, Control_c, 0, 64, 87
1, 54468, Note_off_c, 0, 39, 35
1, 54479, Control_c, 0, 64, 85
1, 54493, Control_c, 0, 64, 82
1, 54508, Control_c, 0, 64, 80
1, 54523, Control_c, 0, 64, 78
1, 54538, Control_c, 0, 64, 76
1, 54551, Note_off_c, 0, 46, 39
1, 54553, Control_c, 0, 64, 74
1, 54567, Control_c, 0, 64, 73
1, 54582, Control_c, 0, 64, 71
1, 54597, Control_c, 0, 64, 70
1, 54612, Control_c, 0, 64, 69
1, 54627, Control_c, 0, 64, 68
1, 54642, Control_c, 0, 64, 66
1, 54657, Control_c, 0, 64, 64
1, 54671, Control_c, 0, 64, 63
1, 54686, Control_c, 0, 64, 62
1, 54701, Control_c, 0, 64, 61
1, 54716, Control_c, 0, 64, 60
1, 54731, Control_c, 0, 64, 59
1, 54746, Control_c, 0, 64, 57
1, 54760, Control_c, 0, 64, 52
1, 54775, Control_c, 0, 64, 47
1, 54790, Control_c, 0, 64, 39
1, 54805, Control_c, 0, 64, 30
1, 54820, Control_c, 0, 64, 0
1, 54964, Note_on_c, 0, 54, 33
1, 54982, Note_on_c, 0, 38, 23
1, 55005, Control_c, 0, 64, 35
1, 55020, Control_c, 0, 64, 43
1, 55035, Control_c, 0, 64, 49
1, 55050, Control_c, 0, 64, 54
1, 55065, Control_c, 0, 64, 57
1, 55080, Control_c, 0, 64, 60
1, 55095, Control_c, 0, 64, 62
1, 55110, Control_c, 0, 64, 64
1, 55124, Control_c, 0, 64, 66
1, 55139, Control_c, 0, 64, 68
1, 55154, Control_c, 0, 64, 70
1, 55169, Control_c, 0, 64, 73
1, 55184, Control_c, 0, 64, 77
1, 55199, Control_c, 0, 64, 80
1, 55214, Control_c, 0, 64, 84
1, 55229, Control_c, 0, 64, 87
1, 55244, Control_c, 0, 64, 89
1, 55259, Control_c, 0, 64, 90
1, 55273, Control_c, 0, 64, 91
1, 55288, Control_c, 0, 64, 91
1, 55406, Control_c, 0, 64, 91
1, 55418, Note_on_c, 0, 67, 60
1, 55421, Control_c, 0, 64, 90
1, 55429, Note_off_c, 0, 54, 30
1, 55436, Control_c, 0, 64, 90
1, 55447, Note_on_c, 0, 55, 42
1, 55451, Control_c, 0, 64, 89
1, 55456, Note_on_c, 0, 39, 36
1, 55465, Control_c, 0, 64, 89
1, 55480, Control_c, 0, 64, 88
1, 55495, Control_c, 0, 64, 87
1, 55509, Note_off_c, 0, 34, 39
1, 55509, Note_off_c, 0, 58, 62
1, 55509, Control_c, 0, 64, 86
1, 55524, Control_c, 0, 64, 85
1, 55539, Note_off_c, 0, 38, 39
1, 55539, Control_c, 0, 64, 84
1, 55554, Control_c, 0, 64, 83
1, 55569, Control_c, 0, 64, 82
1, 55584, Control_c, 0, 64, 80
1, 55598, Control_c, 0, 64, 78
1, 55613, Control_c, 0, 64, 78
1, 55628, Control_c, 0, 64, 77
1, 55643, Control_c, 0, 64, 75
1, 55658, Control_c, 0, 64, 72
1, 55673, Control_c, 0, 64, 70
1, 55688, Control_c, 0, 64, 68
1, 55703, Control_c, 0, 64, 66
1, 55724, Control_c, 0, 64, 64
1, 55739, Control_c, 0, 64, 62
1, 55754, Control_c, 0, 64, 57
1, 55769, Control_c, 0, 64, 53
1, 55784, Control_c, 0, 64, 47
1, 55800, Control_c, 0, 64, 38
1, 55814, Control_c, 0, 64, 0
1, 55910, Note_on_c, 0, 60, 50
1, 55918, Control_c, 0, 64, 39
1, 55932, Control_c, 0, 64, 48
1, 55933, Note_on_c, 0, 44, 31
1, 55947, Control_c, 0, 64, 55
1, 55951, Note_off_c, 0, 55, 38
1, 55962, Control_c, 0, 64, 60
1, 55977, Control_c, 0, 64, 63
1, 55982, Note_off_c, 0, 39, 50
1, 55992, Control_c, 0, 64, 64
1, 56007, Control_c, 0, 64, 66
1, 56021, Control_c, 0, 64, 67
1, 56036, Control_c, 0, 64, 69
1, 56051, Control_c, 0, 64, 71
1, 56065, Control_c, 0, 64, 74
1, 56080, Control_c, 0, 64, 76
1, 56089, Note_off_c, 0, 44, 55
1, 56095, Control_c, 0, 64, 77
1, 56110, Control_c, 0, 64, 78
1, 56125, Control_c, 0, 64, 79
1, 56139, Control_c, 0, 64, 80
1, 56154, Control_c, 0, 64, 80
1, 56154, Control_c, 0, 67, 122
1, 56169, Control_c, 0, 67, 118
1, 56184, Control_c, 0, 67, 114
1, 56199, Control_c, 0, 67, 112
1, 56287, Control_c, 0, 64, 80
1, 56299, Note_on_c, 0, 65, 63
1, 56302, Control_c, 0, 64, 79
1, 56317, Control_c, 0, 64, 78
1, 56322, Note_on_c, 0, 59, 44
1, 56332, Control_c, 0, 64, 77
1, 56344, Note_on_c, 0, 43, 39
1, 56347, Control_c, 0, 64, 76
1, 56362, Control_c, 0, 64, 75
1, 56369, Note_off_c, 0, 60, 49
1, 56377, Control_c, 0, 64, 74
1, 56391, Control_c, 0, 64, 72
1, 56406, Control_c, 0, 64, 70
1, 56421, Control_c, 0, 64, 69
1, 56436, Control_c, 0, 64, 67
1, 56457, Control_c, 0, 64, 64
1, 56460, Note_off_c, 0, 67, 51
1, 56472, Control_c, 0, 64, 59
1, 56487, Control_c, 0, 64, 53
1, 56502, Control_c, 0, 64, 46
1, 56517, Control_c, 0, 64, 34
1, 56532, Control_c, 0, 64, 0
1, 56707, Note_on_c, 0, 63, 41
1, 56731, Note_on_c, 0, 47, 31
1, 56755, Control_c, 0, 64, 37
1, 56770, Control_c, 0, 64, 50
1, 56785, Control_c, 0, 64, 59
1, 56796, Note_off_c, 0, 59, 39
1, 56800, Control_c, 0, 64, 64
1, 56815, Control_c, 0, 64, 67
1, 56826, Note_off_c, 0, 65, 64
1, 56830, Control_c, 0, 64, 69
1, 56844, Control_c, 0, 64, 72
1, 56859, Control_c, 0, 64, 75
1, 56874, Control_c, 0, 64, 79
1, 56888, Control_c, 0, 64, 82
1, 56903, Control_c, 0, 64, 83
1, 56918, Control_c, 0, 64, 84
1, 57022, Control_c, 0, 64, 83
1, 57036, Control_c, 0, 64, 83
1, 57038, Note_off_c, 0, 43, 35
1, 57051, Control_c, 0, 64, 81
1, 57064, Note_on_c, 0, 70, 65
1, 57066, Control_c, 0, 64, 79
1, 57080, Note_off_c, 0, 63, 58
1, 57080, Note_on_c, 0, 48, 43
1, 57080, Control_c, 0, 64, 76
1, 57095, Note_on_c, 0, 64, 48
1, 57095, Control_c, 0, 64, 72
1, 57098, Note_off_c, 0, 47, 36
1, 57110, Control_c, 0, 64, 66
1, 57125, Control_c, 0, 64, 60
1, 57140, Control_c, 0, 64, 53
1, 57155, Control_c, 0, 64, 51
1, 57169, Control_c, 0, 64, 55
1, 57184, Control_c, 0, 64, 59
1, 57199, Control_c, 0, 64, 63
1, 57221, Control_c, 0, 64, 65
1, 57236, Control_c, 0, 64, 67
1, 57251, Control_c, 0, 64, 69
1, 57266, Control_c, 0, 64, 71
1, 57281, Control_c, 0, 64, 72
1, 57295, Control_c, 0, 64, 73
1, 57295, Control_c, 0, 67, 110
1, 57342, Note_off_c, 0, 64, 53
1, 57355, Control_c, 0, 64, 73
1, 57366, Note_off_c, 0, 48, 37
1, 57369, Control_c, 0, 64, 71
1, 57385, Control_c, 0, 64, 68
1, 57400, Control_c, 0, 64, 66
1, 57401, Note_on_c, 0, 72, 72
1, 57421, Note_on_c, 0, 51, 49
1, 57426, Note_on_c, 0, 67, 50
1, 57430, Control_c, 0, 64, 67
1, 57431, Note_off_c, 0, 70, 62
1, 57445, Control_c, 0, 64, 68
1, 57459, Control_c, 0, 64, 69
1, 57474, Control_c, 0, 64, 69
1, 57489, Control_c, 0, 64, 70
1, 57504, Control_c, 0, 64, 72
1, 57518, Control_c, 0, 64, 74
1, 57533, Control_c, 0, 64, 76
1, 57548, Control_c, 0, 64, 76
1, 57548, Control_c, 0, 67, 108
1, 57578, Control_c, 0, 67, 106
1, 57593, Control_c, 0, 67, 99
1, 57608, Control_c, 0, 67, 93
1, 57623, Control_c, 0, 67, 91
1, 57637, Control_c, 0, 67, 90
1, 57650, Note_off_c, 0, 51, 30
1, 57667, Control_c, 0, 64, 76
1, 57682, Control_c, 0, 64, 75
1, 57682, Control_c, 0, 67, 89
1, 57697, Control_c, 0, 64, 74
1, 57697, Control_c, 0, 67, 89
1, 57711, Control_c, 0, 64, 72
1, 57726, Control_c, 0, 64, 70
1, 57730, Note_off_c, 0, 67, 57
1, 57741, Control_c, 0, 64, 67
1, 57752, Note_on_c, 0, 70, 67
1, 57756, Control_c, 0, 64, 65
1, 57771, Control_c, 0, 64, 63
1, 57777, Note_on_c, 0, 66, 42
1, 57785, Control_c, 0, 64, 58
1, 57790, Note_on_c, 0, 50, 42
1, 57796, Note_off_c, 0, 72, 65
1, 57800, Control_c, 0, 64, 52
1, 57815, Control_c, 0, 64, 39
1, 57829, Control_c, 0, 64, 0
1, 57918, Control_c, 0, 67, 88
1, 57948, Control_c, 0, 67, 87
1, 57971, Control_c, 0, 67, 87
1, 57985, Control_c, 0, 67, 85
1, 58000, Control_c, 0, 67, 78
1, 58015, Control_c, 0, 67, 72
1, 58030, Control_c, 0, 67, 69
1, 58044, Control_c, 0, 67, 66
1, 58059, Control_c, 0, 67, 65
1, 58074, Control_c, 0, 67, 64
1, 58089, Control_c, 0, 67, 62
1, 58104, Control_c, 0, 64, 38
1, 58104, Control_c, 0, 67, 60
1, 58111, Note_on_c, 0, 69, 47
1, 58114, Note_on_c, 0, 60, 42
1, 58118, Control_c, 0, 64, 52
1, 58118, Control_c, 0, 67, 58
1, 58133, Control_c, 0, 64, 60
1, 58133, Control_c, 0, 67, 56
1, 58148, Control_c, 0, 64, 65
1, 58148, Control_c, 0, 67, 55
1, 58156, Note_off_c, 0, 66, 50
1, 58163, Control_c, 0, 64, 68
1, 58163, Control_c, 0, 67, 53
1, 58180, Control_c, 0, 64, 70
1, 58180, Control_c, 0, 67, 52
1, 58195, Control_c, 0, 64, 73
1, 58195, Control_c, 0, 67, 49
1, 58209, Control_c, 0, 64, 77
1, 58209, Control_c, 0, 67, 48
1, 58224, Control_c, 0, 64, 80
1, 58224, Control_c, 0, 67, 47
1, 58239, Control_c, 0, 64, 84
1, 58253, Control_c, 0, 64, 87
1, 58268, Control_c, 0, 64, 89
1, 58283, Control_c, 0, 64, 90
1, 58416, Control_c, 0, 64, 89
1, 58437, Note_on_c, 0, 79, 84
1, 58446, Control_c, 0, 64, 89
1, 58457, Note_off_c, 0, 70, 11
1, 58460, Control_c, 0, 64, 88
1, 58475, Note_on_c, 0, 68, 51
1, 58475, Control_c, 0, 64, 86
1, 58478, Note_on_c, 0, 59, 40
1, 58478, Note_off_c, 0, 69, 60
1, 58480, Note_off_c, 0, 60, 43
1, 58481, Note_off_c, 0, 50, 13
1, 58490, Control_c, 0, 64, 84
1, 58505, Control_c, 0, 64, 81
1, 58514, Note_off_c, 0, 68, 0
1, 58514, Note_on_c, 0, 68, 24
1, 58520, Control_c, 0, 64, 77
1, 58535, Control_c, 0, 64, 72
1, 58550, Control_c, 0, 64, 65
1, 58564, Control_c, 0, 64, 58
1, 58579, Control_c, 0, 64, 51
1, 58594, Control_c, 0, 64, 50
1, 58594, Control_c, 0, 67, 47
1, 58609, Control_c, 0, 64, 52
1, 58609, Control_c, 0, 67, 46
1, 58624, Control_c, 0, 64, 55
1, 58639, Control_c, 0, 64, 59
1, 58653, Control_c, 0, 64, 62
1, 58668, Control_c, 0, 64, 63
1, 58683, Control_c, 0, 64, 64
1, 58698, Control_c, 0, 64, 65
1, 58720, Control_c, 0, 64, 67
1, 58720, Control_c, 0, 67, 46
1, 58734, Control_c, 0, 64, 69
1, 58734, Control_c, 0, 67, 45
1, 58749, Control_c, 0, 64, 73
1, 58764, Control_c, 0, 64, 75
1, 58779, Control_c, 0, 64, 77
1, 58794, Control_c, 0, 64, 78
1, 58807, Note_on_c, 0, 66, 55
1, 58809, Control_c, 0, 64, 80
1, 58824, Control_c, 0, 64, 83
1, 58824, Note_off_c, 0, 59, 35
1, 58831, Note_on_c, 0, 57, 39
1, 58837, Note_off_c, 0, 68, 41
1, 58839, Control_c, 0, 64, 85
1, 58854, Control_c, 0, 64, 87
1, 58868, Control_c, 0, 64, 88
1, 58868, Control_c, 0, 67, 45
1, 58883, Control_c, 0, 64, 89
1, 58883, Control_c, 0, 67, 44
1, 59047, Control_c, 0, 64, 88
1, 59062, Control_c, 0, 64, 88
1, 59077, Control_c, 0, 64, 87
1, 59091, Control_c, 0, 64, 87
1, 59106, Control_c, 0, 64, 85
1, 59121, Control_c, 0, 64, 84
1, 59136, Control_c, 0, 64, 82
1, 59149, Note_off_c, 0, 57, 39
1, 59150, Control_c, 0, 64, 81
1, 59159, Note_on_c, 0, 75, 65
1, 59165, Control_c, 0, 64, 79
1, 59180, Control_c, 0, 64, 78
1, 59192, Note_on_c, 0, 67, 41
1, 59193, Note_on_c, 0, 59, 36
1, 59195, Control_c, 0, 64, 75
1, 59202, Note_off_c, 0, 66, 55
1, 59210, Control_c, 0, 64, 72
1, 59224, Control_c, 0, 64, 70
1, 59239, Control_c, 0, 64, 67
1, 59254, Control_c, 0, 64, 64
1, 59265, Note_off_c, 0, 79, 55
1, 59269, Control_c, 0, 64, 61
1, 59283, Control_c, 0, 64, 55
1, 59298, Control_c, 0, 64, 46
1, 59313, Control_c, 0, 64, 34
1, 59328, Control_c, 0, 64, 0
1, 59328, Control_c, 0, 67, 45
1, 59343, Control_c, 0, 67, 45
1, 59357, Control_c, 0, 67, 46
1, 59372, Control_c, 0, 67, 47
1, 59387, Control_c, 0, 67, 48
1, 59402, Control_c, 0, 67, 48
1, 59447, Control_c, 0, 67, 49
1, 59469, Control_c, 0, 67, 50
1, 59483, Control_c, 0, 67, 51
1, 59498, Control_c, 0, 67, 51
1, 59513, Control_c, 0, 67, 52
1, 59543, Control_c, 0, 67, 52
1, 59571, Note_on_c, 0, 66, 36
1, 59572, Control_c, 0, 67, 53
1, 59575, Note_on_c, 0, 58, 40
1, 59613, Note_off_c, 0, 67, 62
1, 59616, Note_off_c, 0, 59, 52
1, 59632, Control_c, 0, 67, 54
1, 59647, Control_c, 0, 67, 54
1, 59661, Control_c, 0, 67, 55
1, 59676, Control_c, 0, 64, 44
1, 59676, Control_c, 0, 67, 55
1, 59691, Control_c, 0, 64, 56
1, 59691, Control_c, 0, 67, 56
1, 59706, Control_c, 0, 64, 61
1, 59706, Control_c, 0, 67, 57
1, 59721, Control_c, 0, 64, 63
1, 59721, Control_c, 0, 67, 58
1, 59736, Control_c, 0, 64, 64
1, 59736, Control_c, 0, 67, 59
1, 59751, Control_c, 0, 64, 64
1, 59751, Control_c, 0, 67, 60
1, 59765, Control_c, 0, 67, 60
1, 59781, Control_c, 0, 64, 65
1, 59781, Control_c, 0, 67, 61
1, 59796, Control_c, 0, 67, 61
1, 59811, Control_c, 0, 64, 64
1, 59811, Control_c, 0, 67, 62
1, 59840, Control_c, 0, 64, 64
1, 59840, Control_c, 0, 67, 63
1, 59855, Control_c, 0, 64, 63
1, 59855, Control_c, 0, 67, 68
1, 59870, Control_c, 0, 64, 62
1, 59870, Control_c, 0, 67, 71
1, 59885, Control_c, 0, 64, 61
1, 59885, Control_c, 0, 67, 73
1, 59900, Control_c, 0, 64, 59
1, 59900, Control_c, 0, 67, 74
1, 59909, Note_on_c, 0, 74, 61
1, 59914, Control_c, 0, 64, 56
1, 59924, Note_on_c, 0, 63, 37
1, 59924, Note_off_c, 0, 75, 63
1, 59929, Control_c, 0, 64, 52
1, 59936, Note_on_c, 0, 55, 37
1, 59943, Note_off_c, 0, 58, 39
1, 59944, Control_c, 0, 64, 46
1, 59957, Note_off_c, 0, 66, 53
1, 59959, Control_c, 0, 64, 39
1, 59974, Control_c, 0, 64, 0
1, 60018, Control_c, 0, 67, 73
1, 60032, Control_c, 0, 64, 31
1, 60032, Control_c, 0, 67, 73
1, 60047, Control_c, 0, 64, 46
1, 60062, Control_c, 0, 64, 58
1, 60077, Control_c, 0, 64, 63
1, 60077, Control_c, 0, 67, 72
1, 60092, Control_c, 0, 64, 65
1, 60106, Control_c, 0, 64, 66
1, 60106, Control_c, 0, 67, 72
1, 60119, Note_off_c, 0, 63, 58
1, 60121, Control_c, 0, 64, 67
1, 60136, Control_c, 0, 64, 68
1, 60151, Control_c, 0, 64, 69
1, 60218, Control_c, 0, 64, 67
1, 60218, Control_c, 0, 67, 71
1, 60232, Control_c, 0, 64, 65
1, 60243, Note_off_c, 0, 55, 45
1, 60245, Note_on_c, 0, 72, 66
1, 60247, Control_c, 0, 64, 60
1, 60262, Note_on_c, 0, 61, 49
1, 60262, Control_c, 0, 64, 55
1, 60277, Control_c, 0, 64, 51
1, 60278, Note_on_c, 0, 52, 38
1, 60292, Control_c, 0, 64, 50
1, 60292, Control_c, 0, 67, 71
1, 60306, Control_c, 0, 64, 51
1, 60321, Control_c, 0, 64, 54
1, 60321, Control_c, 0, 67, 70
1, 60329, Note_off_c, 0, 74, 57
1, 60336, Control_c, 0, 64, 57
1, 60351, Control_c, 0, 64, 60
1, 60366, Control_c, 0, 64, 62
1, 60380, Control_c, 0, 64, 64
1, 60395, Control_c, 0, 64, 64
1, 60410, Control_c, 0, 64, 65
1, 60454, Control_c, 0, 67, 70
1, 60499, Control_c, 0, 64, 64
1, 60544, Control_c, 0, 64, 64
1, 60550, Note_off_c, 0, 61, 38
1, 60558, Control_c, 0, 64, 63
1, 60573, Control_c, 0, 64, 63
1, 60583, Note_on_c, 0, 70, 68
1, 60589, Control_c, 0, 64, 62
1, 60603, Note_on_c, 0, 62, 47
1, 60603, Control_c, 0, 64, 61
1, 60611, Note_on_c, 0, 47, 38
1, 60618, Control_c, 0, 64, 59
1, 60633, Control_c, 0, 64, 55
1, 60648, Control_c, 0, 64, 43
1, 60651, Note_off_c, 0, 72, 58
1, 60663, Control_c, 0, 64, 0
1, 60674, Note_off_c, 0, 52, 42
1, 60723, Control_c, 0, 64, 48
1, 60737, Control_c, 0, 64, 61
1, 60752, Control_c, 0, 64, 63
1, 60752, Control_c, 0, 67, 70
1, 60767, Control_c, 0, 67, 71
1, 60782, Control_c, 0, 64, 63
1, 60797, Control_c, 0, 64, 62
1, 60811, Control_c, 0, 64, 61
1, 60811, Control_c, 0, 67, 71
1, 60826, Control_c, 0, 64, 60
1, 60841, Control_c, 0, 64, 58
1, 60855, Control_c, 0, 64, 56
1, 60870, Control_c, 0, 64, 53
1, 60885, Control_c, 0, 64, 48
1, 60885, Control_c, 0, 67, 72
1, 60900, Control_c, 0, 64, 41
1, 60915, Control_c, 0, 64, 33
1, 60923, Note_on_c, 0, 63, 71
1, 60929, Control_c, 0, 64, 0
1, 60929, Control_c, 0, 67, 72
1, 60936, Note_off_c, 0, 47, 55
1, 60940, Note_on_c, 0, 48, 48
1, 60965, Note_off_c, 0, 62, 48
1, 60987, Note_off_c, 0, 70, 64
1, 60997, Control_c, 0, 67, 73
1, 61026, Control_c, 0, 67, 73
1, 61041, Control_c, 0, 67, 74
1, 61055, Control_c, 0, 64, 35
1, 61070, Control_c, 0, 64, 50
1, 61070, Control_c, 0, 67, 74
1, 61085, Control_c, 0, 64, 57
1, 61085, Control_c, 0, 67, 75
1, 61100, Control_c, 0, 64, 59
1, 61159, Control_c, 0, 64, 58
1, 61159, Control_c, 0, 67, 75
1, 61174, Control_c, 0, 64, 58
1, 61174, Control_c, 0, 67, 76
1, 61188, Control_c, 0, 64, 57
1, 61188, Control_c, 0, 67, 76
1, 61203, Control_c, 0, 64, 55
1, 61203, Control_c, 0, 67, 77
1, 61218, Control_c, 0, 64, 51
1, 61218, Control_c, 0, 67, 80
1, 61233, Control_c, 0, 64, 45
1, 61233, Control_c, 0, 67, 86
1, 61248, Control_c, 0, 64, 36
1, 61248, Control_c, 0, 67, 89
1, 61262, Control_c, 0, 64, 0
1, 61262, Control_c, 0, 67, 90
1, 61279, Note_on_c, 0, 54, 47
1, 61282, Note_on_c, 0, 49, 37
1, 61308, Note_off_c, 0, 48, 34
1, 61337, Control_c, 0, 64, 37
1, 61352, Control_c, 0, 64, 49
1, 61352, Control_c, 0, 67, 91
1, 61367, Control_c, 0, 64, 57
1, 61382, Control_c, 0, 64, 60
1, 61397, Control_c, 0, 64, 61
1, 61412, Control_c, 0, 64, 62
1, 61486, Control_c, 0, 64, 61
1, 61501, Control_c, 0, 64, 61
1, 61516, Control_c, 0, 64, 60
1, 61530, Control_c, 0, 64, 59
1, 61545, Control_c, 0, 64, 58
1, 61560, Control_c, 0, 64, 57
1, 61575, Control_c, 0, 64, 55
1, 61587, Note_on_c, 0, 65, 69
1, 61590, Control_c, 0, 64, 53
1, 61604, Control_c, 0, 64, 49
1, 61607, Note_on_c, 0, 56, 52
1, 61619, Control_c, 0, 64, 43
1, 61620, Note_off_c, 0, 49, 45
1, 61626, Note_on_c, 0, 48, 33
1, 61629, Note_off_c, 0, 54, 37
1, 61634, Control_c, 0, 64, 0
1, 61653, Note_off_c, 0, 63, 55
1, 61730, Control_c, 0, 64, 31
1, 61745, Control_c, 0, 64, 49
1, 61760, Control_c, 0, 64, 58
1, 61760, Control_c, 0, 67, 90
1, 61775, Control_c, 0, 64, 60
1, 61790, Control_c, 0, 64, 61
1, 61819, Control_c, 0, 64, 60
1, 61864, Control_c, 0, 64, 60
1, 61878, Control_c, 0, 64, 59
1, 61893, Control_c, 0, 64, 59
1, 61908, Control_c, 0, 64, 58
1, 61923, Control_c, 0, 64, 57
1, 61938, Control_c, 0, 64, 56
1, 61948, Note_off_c, 0, 48, 42
1, 61952, Control_c, 0, 64, 54
1, 61960, Note_on_c, 0, 66, 61
1, 61967, Control_c, 0, 64, 52
1, 61976, Note_on_c, 0, 57, 48
1, 61982, Note_off_c, 0, 56, 51
1, 61982, Control_c, 0, 64, 50
1, 61984, Note_on_c, 0, 47, 30
1, 61997, Control_c, 0, 64, 48
1, 62005, Note_off_c, 0, 65, 58
1, 62011, Control_c, 0, 64, 46
1, 62011, Control_c, 0, 67, 90
1, 62026, Control_c, 0, 64, 43
1, 62041, Control_c, 0, 64, 35
1, 62056, Control_c, 0, 64, 0
1, 62321, Note_on_c, 0, 35, 48
1, 62383, Control_c, 0, 64, 35
1, 62395, Note_off_c, 0, 47, 50
1, 62398, Control_c, 0, 64, 49
1, 62398, Control_c, 0, 67, 89
1, 62413, Control_c, 0, 64, 59
1, 62427, Control_c, 0, 64, 64
1, 62442, Control_c, 0, 64, 66
1, 62464, Control_c, 0, 64, 68
1, 62474, Note_off_c, 0, 57, 58
1, 62479, Control_c, 0, 64, 69
1, 62494, Control_c, 0, 64, 69
1, 62508, Control_c, 0, 64, 70
1, 62613, Control_c, 0, 64, 70
1, 62627, Control_c, 0, 64, 69
1, 62642, Control_c, 0, 64, 68
1, 62657, Control_c, 0, 64, 67
1, 62672, Control_c, 0, 64, 66
1, 62687, Control_c, 0, 64, 65
1, 62700, Note_on_c, 0, 57, 55
1, 62702, Control_c, 0, 64, 64
1, 62717, Control_c, 0, 64, 63
1, 62719, Note_on_c, 0, 54, 43
1, 62732, Control_c, 0, 64, 62
1, 62747, Control_c, 0, 64, 61
1, 62761, Control_c, 0, 64, 60
1, 62776, Control_c, 0, 64, 59
1, 62791, Control_c, 0, 64, 57
1, 62793, Note_off_c, 0, 66, 58
1, 62806, Control_c, 0, 64, 54
1, 62821, Control_c, 0, 64, 49
1, 62835, Control_c, 0, 64, 39
1, 62850, Control_c, 0, 64, 0
1, 63042, Note_on_c, 0, 36, 52
1, 63047, Note_off_c, 0, 35, 57
1, 63191, Control_c, 0, 64, 38
1, 63214, Control_c, 0, 64, 51
1, 63221, Note_off_c, 0, 54, 61
1, 63229, Control_c, 0, 64, 59
1, 63244, Control_c, 0, 64, 63
1, 63258, Control_c, 0, 64, 65
1, 63273, Control_c, 0, 64, 65
1, 63281, Note_off_c, 0, 57, 37
1, 63376, Control_c, 0, 64, 65
1, 63406, Control_c, 0, 64, 64
1, 63421, Control_c, 0, 64, 64
1, 63428, Note_on_c, 0, 67, 70
1, 63436, Control_c, 0, 64, 63
1, 63450, Control_c, 0, 64, 62
1, 63465, Control_c, 0, 64, 62
1, 63468, Note_on_c, 0, 53, 43
1, 63472, Note_on_c, 0, 37, 42
1, 63480, Control_c, 0, 64, 61
1, 63495, Control_c, 0, 64, 59
1, 63503, Note_off_c, 0, 36, 58
1, 63510, Control_c, 0, 64, 57
1, 63525, Control_c, 0, 64, 54
1, 63540, Control_c, 0, 64, 50
1, 63555, Control_c, 0, 64, 40
1, 63569, Control_c, 0, 64, 0
1, 63569, Control_c, 0, 67, 89
1, 63599, Control_c, 0, 67, 88
1, 63644, Control_c, 0, 64, 47
1, 63658, Control_c, 0, 64, 59
1, 63673, Control_c, 0, 64, 62
1, 63688, Control_c, 0, 64, 63
1, 63747, Control_c, 0, 64, 62
1, 63747, Control_c, 0, 67, 88
1, 63762, Control_c, 0, 64, 62
1, 63778, Control_c, 0, 64, 60
1, 63792, Control_c, 0, 64, 57
1, 63807, Control_c, 0, 64, 53
1, 63813, Note_on_c, 0, 38, 53
1, 63822, Control_c, 0, 64, 45
1, 63837, Control_c, 0, 64, 33
1, 63852, Control_c, 0, 64, 0
1, 63854, Note_off_c, 0, 37, 42
1, 63926, Control_c, 0, 64, 37
1, 63948, Control_c, 0, 64, 48
1, 63963, Control_c, 0, 64, 57
1, 63978, Control_c, 0, 64, 62
1, 63993, Control_c, 0, 64, 64
1, 64007, Control_c, 0, 64, 64
1, 64022, Control_c, 0, 67, 87
1, 64096, Control_c, 0, 64, 64
1, 64126, Control_c, 0, 64, 63
1, 64141, Control_c, 0, 64, 62
1, 64155, Control_c, 0, 64, 62
1, 64169, Control_c, 0, 64, 61
1, 64172, Note_on_c, 0, 58, 61
1, 64184, Control_c, 0, 64, 61
1, 64188, Note_on_c, 0, 54, 47
1, 64198, Control_c, 0, 64, 60
1, 64213, Control_c, 0, 64, 60
1, 64228, Control_c, 0, 64, 59
1, 64243, Control_c, 0, 64, 58
1, 64258, Control_c, 0, 64, 58
1, 64273, Control_c, 0, 64, 56
1, 64277, Note_off_c, 0, 53, 36
1, 64288, Control_c, 0, 64, 54
1, 64303, Control_c, 0, 64, 52
1, 64303, Note_off_c, 0, 67, 58
1, 64318, Control_c, 0, 64, 48
1, 64332, Control_c, 0, 64, 43
1, 64347, Control_c, 0, 64, 38
1, 64362, Control_c, 0, 64, 0
1, 64525, Note_on_c, 0, 46, 44
1, 64562, Note_off_c, 0, 38, 57
1, 64615, Control_c, 0, 67, 87
1, 64726, Control_c, 0, 64, 31
1, 64741, Control_c, 0, 64, 43
1, 64755, Control_c, 0, 64, 49
1, 64770, Control_c, 0, 64, 52
1, 64785, Control_c, 0, 64, 54
1, 64800, Control_c, 0, 64, 55
1, 64815, Control_c, 0, 64, 57
1, 64829, Control_c, 0, 64, 59
1, 64859, Control_c, 0, 64, 58
1, 64874, Control_c, 0, 64, 57
1, 64903, Control_c, 0, 64, 57
1, 64918, Control_c, 0, 64, 56
1, 64926, Note_on_c, 0, 63, 61
1, 64933, Control_c, 0, 64, 56
1, 64952, Note_on_c, 0, 55, 37
1, 64962, Control_c, 0, 64, 55
1, 64977, Control_c, 0, 64, 54
1, 64992, Control_c, 0, 64, 53
1, 65007, Control_c, 0, 64, 52
1, 65019, Note_off_c, 0, 58, 49
1, 65021, Control_c, 0, 64, 51
1, 65024, Note_off_c, 0, 54, 37
1, 65036, Control_c, 0, 64, 50
1, 65036, Control_c, 0, 67, 86
1, 65051, Control_c, 0, 64, 49
1, 65066, Control_c, 0, 64, 48
1, 65081, Control_c, 0, 64, 47
1, 65096, Control_c, 0, 64, 45
1, 65111, Control_c, 0, 64, 43
1, 65125, Control_c, 0, 64, 40
1, 65140, Control_c, 0, 64, 37
1, 65155, Control_c, 0, 64, 35
1, 65170, Control_c, 0, 64, 33
1, 65185, Control_c, 0, 64, 30
1, 65200, Control_c, 0, 64, 0
1, 65340, Note_on_c, 0, 39, 44
1, 65390, Note_off_c, 0, 46, 52
1, 65489, Control_c, 0, 64, 40
1, 65504, Control_c, 0, 64, 50
1, 65519, Control_c, 0, 64, 55
1, 65534, Control_c, 0, 64, 56
1, 65652, Control_c, 0, 64, 55
1, 65683, Control_c, 0, 64, 55
1, 65696, Note_on_c, 0, 51, 44
1, 65713, Control_c, 0, 64, 54
1, 65727, Control_c, 0, 64, 52
1, 65742, Control_c, 0, 64, 49
1, 65757, Control_c, 0, 64, 45
1, 65771, Control_c, 0, 64, 39
1, 65786, Control_c, 0, 64, 36
1, 65801, Control_c, 0, 64, 38
1, 65804, Note_off_c, 0, 39, 61
1, 65816, Control_c, 0, 64, 44
1, 65831, Control_c, 0, 64, 53
1, 65845, Control_c, 0, 64, 58
1, 65860, Control_c, 0, 64, 60
1, 65875, Control_c, 0, 64, 61
1, 65890, Control_c, 0, 64, 62
1, 65964, Control_c, 0, 64, 61
1, 65993, Control_c, 0, 64, 61
1, 66008, Control_c, 0, 64, 60
1, 66023, Control_c, 0, 64, 60
1, 66038, Control_c, 0, 64, 59
1, 66053, Note_on_c, 0, 62, 45
1, 66067, Control_c, 0, 64, 59
1, 66079, Note_off_c, 0, 63, 53
1, 66082, Control_c, 0, 64, 58
1, 66097, Control_c, 0, 64, 56
1, 66112, Control_c, 0, 64, 54
1, 66127, Control_c, 0, 64, 51
1, 66142, Control_c, 0, 64, 47
1, 66157, Control_c, 0, 64, 41
1, 66172, Control_c, 0, 64, 33
1, 66187, Control_c, 0, 64, 0
1, 66187, Control_c, 0, 67, 86
1, 66239, Control_c, 0, 64, 43
1, 66254, Control_c, 0, 64, 57
1, 66269, Control_c, 0, 64, 64
1, 66283, Control_c, 0, 64, 67
1, 66298, Control_c, 0, 64, 68
1, 66298, Control_c, 0, 67, 86
1, 66305, Note_off_c, 0, 55, 42
1, 66313, Control_c, 0, 67, 87
1, 66327, Control_c, 0, 67, 88
1, 66342, Control_c, 0, 67, 89
1, 66357, Control_c, 0, 67, 89
1, 66372, Control_c, 0, 64, 68
1, 66372, Control_c, 0, 67, 91
1, 66387, Control_c, 0, 67, 92
1, 66401, Control_c, 0, 64, 67
1, 66401, Control_c, 0, 67, 93
1, 66416, Control_c, 0, 64, 67
1, 66416, Control_c, 0, 67, 94
1, 66431, Control_c, 0, 64, 66
1, 66431, Control_c, 0, 67, 98
1, 66446, Control_c, 0, 64, 65
1, 66446, Control_c, 0, 67, 109
1, 66461, Control_c, 0, 64, 65
1, 66461, Control_c, 0, 67, 115
1, 66476, Control_c, 0, 64, 64
1, 66476, Control_c, 0, 67, 118
1, 66477, Note_on_c, 0, 63, 49
1, 66506, Control_c, 0, 64, 64
1, 66520, Control_c, 0, 64, 62
1, 66535, Control_c, 0, 64, 59
1, 66550, Control_c, 0, 64, 56
1, 66565, Control_c, 0, 64, 52
1, 66580, Control_c, 0, 64, 46
1, 66585, Note_off_c, 0, 62, 51
1, 66594, Control_c, 0, 64, 34
1, 66609, Control_c, 0, 64, 0
1, 66668, Control_c, 0, 67, 120
1, 66702, Note_on_c, 0, 61, 34
1, 66712, Control_c, 0, 64, 32
1, 66727, Control_c, 0, 64, 48
1, 66742, Control_c, 0, 64, 58
1, 66757, Control_c, 0, 64, 62
1, 66757, Control_c, 0, 67, 125
1, 66772, Control_c, 0, 64, 64
1, 66772, Control_c, 0, 67, 127
1, 66787, Control_c, 0, 64, 64
1, 66801, Control_c, 0, 64, 65
1, 66816, Control_c, 0, 64, 66
1, 66831, Control_c, 0, 64, 67
1, 66846, Control_c, 0, 64, 68
1, 66860, Control_c, 0, 64, 69
1, 66891, Note_on_c, 0, 64, 34
1, 66903, Note_off_c, 0, 61, 44
1, 66988, Control_c, 0, 64, 68
1, 67003, Control_c, 0, 64, 68
1, 67018, Control_c, 0, 64, 66
1, 67030, Note_off_c, 0, 64, 59
1, 67032, Control_c, 0, 64, 64
1, 67047, Control_c, 0, 64, 61
1, 67062, Control_c, 0, 64, 59
1, 67063, Note_on_c, 0, 65, 56
1, 67077, Control_c, 0, 64, 58
1, 67079, Note_on_c, 0, 60, 38
1, 67092, Control_c, 0, 64, 59
1, 67106, Control_c, 0, 64, 60
1, 67107, Note_off_c, 0, 63, 63
1, 67121, Control_c, 0, 64, 62
1, 67136, Control_c, 0, 64, 64
1, 67150, Control_c, 0, 64, 65
1, 67165, Control_c, 0, 64, 65
1, 67180, Control_c, 0, 64, 66
1, 67195, Control_c, 0, 64, 67
1, 67210, Control_c, 0, 64, 67
1, 67224, Control_c, 0, 64, 68
1, 67231, Note_off_c, 0, 60, 58
1, 67266, Note_on_c, 0, 63, 40
1, 67358, Note_on_c, 0, 67, 68
1, 67364, Note_off_c, 0, 65, 59
1, 67373, Control_c, 0, 64, 67
1, 67388, Control_c, 0, 64, 67
1, 67400, Note_off_c, 0, 63, 54
1, 67403, Control_c, 0, 64, 66
1, 67447, Control_c, 0, 64, 67
1, 67451, Note_on_c, 0, 59, 44
1, 67477, Control_c, 0, 64, 67
1, 67491, Control_c, 0, 64, 68
1, 67554, Note_off_c, 0, 59, 57
1, 67580, Control_c, 0, 64, 67
1, 67610, Control_c, 0, 64, 66
1, 67624, Control_c, 0, 64, 66
1, 67638, Note_on_c, 0, 68, 69
1, 67639, Control_c, 0, 64, 64
1, 67654, Control_c, 0, 64, 63
1, 67668, Control_c, 0, 64, 62
1, 67672, Note_on_c, 0, 60, 40
1, 67691, Control_c, 0, 64, 61
1, 67706, Control_c, 0, 64, 58
1, 67707, Note_off_c, 0, 67, 61
1, 67721, Control_c, 0, 64, 53
1, 67736, Control_c, 0, 64, 40
1, 67750, Control_c, 0, 64, 0
1, 67838, Note_off_c, 0, 60, 51
1, 67857, Note_on_c, 0, 56, 44
1, 67885, Control_c, 0, 64, 41
1, 67900, Control_c, 0, 64, 54
1, 67901, Note_off_c, 0, 51, 38
1, 67914, Control_c, 0, 64, 61
1, 67928, Control_c, 0, 64, 62
1, 67943, Control_c, 0, 64, 63
1, 67958, Control_c, 0, 64, 63
1, 67972, Control_c, 0, 64, 65
1, 67987, Control_c, 0, 64, 68
1, 68002, Control_c, 0, 64, 71
1, 68017, Control_c, 0, 64, 74
1, 68032, Note_off_c, 0, 56, 58
1, 68032, Control_c, 0, 64, 77
1, 68041, Note_on_c, 0, 51, 48
1, 68047, Control_c, 0, 64, 79
1, 68062, Control_c, 0, 64, 80
1, 68077, Control_c, 0, 64, 81
1, 68158, Note_off_c, 0, 51, 56
1, 68195, Control_c, 0, 64, 80
1, 68210, Note_on_c, 0, 69, 68
1, 68210, Control_c, 0, 64, 80
1, 68225, Control_c, 0, 64, 79
1, 68239, Control_c, 0, 64, 78
1, 68240, Note_on_c, 0, 52, 48
1, 68254, Control_c, 0, 64, 77
1, 68269, Control_c, 0, 64, 76
1, 68284, Control_c, 0, 64, 74
1, 68294, Note_off_c, 0, 68, 63
1, 68298, Control_c, 0, 64, 72
1, 68313, Control_c, 0, 64, 67
1, 68328, Control_c, 0, 64, 62
1, 68343, Control_c, 0, 64, 55
1, 68358, Control_c, 0, 64, 45
1, 68372, Control_c, 0, 64, 0
1, 68407, Note_on_c, 0, 49, 49
1, 68454, Control_c, 0, 64, 42
1, 68469, Control_c, 0, 64, 54
1, 68475, Note_off_c, 0, 52, 52
1, 68484, Control_c, 0, 64, 61
1, 68498, Control_c, 0, 64, 64
1, 68513, Control_c, 0, 64, 66
1, 68528, Control_c, 0, 64, 67
1, 68543, Control_c, 0, 64, 69
1, 68558, Control_c, 0, 64, 70
1, 68574, Control_c, 0, 64, 73
1, 68574, Control_c, 0, 67, 125
1, 68587, Note_on_c, 0, 45, 58
1, 68589, Control_c, 0, 64, 75
1, 68603, Control_c, 0, 64, 77
1, 68603, Control_c, 0, 67, 122
1, 68607, Note_off_c, 0, 49, 62
1, 68618, Control_c, 0, 64, 79
1, 68618, Control_c, 0, 67, 117
1, 68633, Control_c, 0, 64, 81
1, 68633, Control_c, 0, 67, 112
1, 68648, Control_c, 0, 67, 108
1, 68662, Control_c, 0, 64, 81
1, 68662, Control_c, 0, 67, 105
1, 68734, Note_off_c, 0, 45, 62
1, 68751, Control_c, 0, 64, 80
1, 68759, Note_on_c, 0, 70, 78
1, 68766, Control_c, 0, 64, 77
1, 68768, Note_on_c, 0, 46, 57
1, 68781, Control_c, 0, 64, 71
1, 68795, Control_c, 0, 64, 63
1, 68810, Control_c, 0, 64, 50
1, 68825, Control_c, 0, 64, 42
1, 68840, Control_c, 0, 64, 43
1, 68855, Note_off_c, 0, 69, 56
1, 68855, Control_c, 0, 64, 50
1, 68869, Control_c, 0, 64, 58
1, 68884, Control_c, 0, 64, 63
1, 68889, Note_off_c, 0, 46, 63
1, 68899, Control_c, 0, 64, 66
1, 68914, Control_c, 0, 64, 68
1, 68914, Control_c, 0, 67, 103
1, 68929, Control_c, 0, 64, 69
1, 68941, Note_on_c, 0, 43, 56
1, 68944, Control_c, 0, 64, 71
1, 68959, Control_c, 0, 64, 75
1, 68959, Control_c, 0, 67, 101
1, 68974, Control_c, 0, 64, 78
1, 68974, Control_c, 0, 67, 96
1, 68988, Control_c, 0, 64, 80
1, 68988, Control_c, 0, 67, 90
1, 69003, Control_c, 0, 64, 82
1, 69003, Control_c, 0, 67, 84
1, 69018, Control_c, 0, 64, 84
1, 69018, Control_c, 0, 67, 78
1, 69033, Control_c, 0, 64, 85
1, 69033, Control_c, 0, 67, 74
1, 69048, Control_c, 0, 64, 87
1, 69048, Control_c, 0, 67, 71
1, 69062, Control_c, 0, 64, 89
1, 69062, Control_c, 0, 67, 67
1, 69077, Control_c, 0, 64, 91
1, 69077, Control_c, 0, 67, 62
1, 69084, Note_off_c, 0, 43, 61
1, 69092, Control_c, 0, 64, 92
1, 69092, Control_c, 0, 67, 57
1, 69107, Control_c, 0, 64, 94
1, 69107, Control_c, 0, 67, 51
1, 69111, Note_on_c, 0, 39, 60
1, 69121, Control_c, 0, 64, 95
1, 69121, Control_c, 0, 67, 46
1, 69136, Control_c, 0, 64, 95
1, 69136, Control_c, 0, 67, 43
1, 69151, Control_c, 0, 64, 96
1, 69151, Control_c, 0, 67, 41
1, 69166, Control_c, 0, 67, 40
1, 69201, Note_off_c, 0, 39, 61
1, 69263, Control_c, 0, 67, 40
1, 69292, Control_c, 0, 67, 41
1, 69321, Control_c, 0, 64, 95
1, 69321, Control_c, 0, 67, 41
1, 69332, Note_on_c, 0, 79, 82
1, 69336, Control_c, 0, 64, 94
1, 69336, Control_c, 0, 67, 42
1, 69351, Control_c, 0, 64, 93
1, 69351, Control_c, 0, 67, 42
1, 69353, Note_on_c, 0, 40, 48
1, 69367, Control_c, 0, 64, 92
1, 69382, Control_c, 0, 64, 91
1, 69397, Control_c, 0, 64, 89
1, 69411, Control_c, 0, 64, 86
1, 69426, Control_c, 0, 64, 84
1, 69430, Note_off_c, 0, 70, 62
1, 69441, Control_c, 0, 64, 82
1, 69456, Control_c, 0, 64, 80
1, 69456, Control_c, 0, 67, 43
1, 69471, Control_c, 0, 64, 79
1, 69471, Control_c, 0, 67, 43
1, 69485, Control_c, 0, 64, 76
1, 69500, Control_c, 0, 64, 73
1, 69515, Control_c, 0, 64, 68
1, 69530, Control_c, 0, 64, 64
1, 69544, Control_c, 0, 64, 59
1, 69549, Note_on_c, 0, 36, 46
1, 69559, Control_c, 0, 64, 53
1, 69574, Control_c, 0, 64, 47
1, 69589, Control_c, 0, 64, 35
1, 69604, Control_c, 0, 64, 0
1, 69605, Note_off_c, 0, 40, 52
1, 69707, Note_on_c, 0, 31, 59
1, 69722, Control_c, 0, 64, 42
1, 69736, Note_off_c, 0, 36, 52
1, 69737, Control_c, 0, 64, 55
1, 69752, Control_c, 0, 64, 61
1, 69767, Control_c, 0, 64, 63
1, 69782, Control_c, 0, 64, 64
1, 69899, Note_on_c, 0, 77, 72
1, 69930, Control_c, 0, 64, 64
1, 69931, Note_on_c, 0, 35, 43
1, 69966, Control_c, 0, 64, 63
1, 69976, Note_off_c, 0, 31, 60
1, 69981, Control_c, 0, 64, 61
1, 69996, Control_c, 0, 64, 57
1, 70009, Note_off_c, 0, 79, 62
1, 70011, Control_c, 0, 64, 48
1, 70026, Control_c, 0, 64, 33
1, 70041, Control_c, 0, 64, 0
1, 70085, Control_c, 0, 64, 32
1, 70100, Control_c, 0, 64, 48
1, 70102, Note_on_c, 0, 32, 57
1, 70115, Control_c, 0, 64, 60
1, 70124, Note_off_c, 0, 35, 53
1, 70130, Control_c, 0, 64, 64
1, 70144, Control_c, 0, 64, 66
1, 70159, Control_c, 0, 64, 67
1, 70175, Control_c, 0, 64, 68
1, 70190, Control_c, 0, 64, 69
1, 70196, Note_on_c, 0, 75, 73
1, 70205, Control_c, 0, 64, 70
1, 70220, Control_c, 0, 64, 71
1, 70235, Control_c, 0, 64, 72
1, 70242, Note_off_c, 0, 32, 58
1, 70249, Control_c, 0, 64, 73
1, 70264, Control_c, 0, 64, 74
1, 70265, Note_on_c, 0, 42, 60
1, 70279, Control_c, 0, 64, 74
1, 70293, Note_off_c, 0, 77, 54
1, 70308, Control_c, 0, 64, 75
1, 70334, Note_off_c, 0, 42, 63
1, 70441, Note_on_c, 0, 74, 83
1, 70449, Note_on_c, 0, 41, 54
1, 70456, Control_c, 0, 64, 72
1, 70471, Control_c, 0, 64, 65
1, 70485, Control_c, 0, 64, 57
1, 70500, Control_c, 0, 64, 48
1, 70515, Control_c, 0, 64, 48
1, 70530, Control_c, 0, 64, 55
1, 70539, Note_off_c, 0, 75, 59
1, 70545, Control_c, 0, 64, 61
1, 70560, Control_c, 0, 64, 66
1, 70575, Control_c, 0, 64, 69
1, 70589, Control_c, 0, 64, 72
1, 70591, Note_off_c, 0, 41, 62
1, 70604, Control_c, 0, 64, 74
1, 70616, Note_on_c, 0, 53, 60
1, 70634, Control_c, 0, 64, 73
1, 70649, Control_c, 0, 64, 67
1, 70664, Control_c, 0, 64, 59
1, 70679, Control_c, 0, 64, 46
1, 70700, Control_c, 0, 64, 31
1, 70715, Control_c, 0, 64, 0
1, 70718, Note_off_c, 0, 74, 63
1, 70722, Note_on_c, 0, 72, 76
1, 70730, Control_c, 0, 67, 44
1, 70745, Control_c, 0, 67, 44
1, 70760, Control_c, 0, 64, 36
1, 70774, Control_c, 0, 64, 50
1, 70789, Control_c, 0, 64, 60
1, 70796, Note_off_c, 0, 53, 59
1, 70804, Control_c, 0, 64, 66
1, 70808, Note_on_c, 0, 54, 60
1, 70819, Control_c, 0, 64, 69
1, 70834, Control_c, 0, 64, 70
1, 70834, Control_c, 0, 67, 45
1, 70849, Control_c, 0, 64, 71
1, 70849, Control_c, 0, 67, 45
1, 70864, Control_c, 0, 64, 72
1, 70864, Control_c, 0, 67, 46
1, 70879, Control_c, 0, 64, 72
1, 70879, Control_c, 0, 67, 47
1, 70893, Control_c, 0, 67, 48
1, 70908, Control_c, 0, 67, 49
1, 70923, Control_c, 0, 67, 50
1, 70938, Control_c, 0, 67, 51
1, 70953, Control_c, 0, 64, 72
1, 70953, Control_c, 0, 67, 51
1, 70968, Control_c, 0, 64, 71
1, 70968, Control_c, 0, 67, 52
1, 70983, Control_c, 0, 64, 70
1, 70998, Control_c, 0, 64, 69
1, 70998, Control_c, 0, 67, 53
1, 71013, Control_c, 0, 64, 67
1, 71013, Control_c, 0, 67, 53
1, 71022, Note_off_c, 0, 54, 63
1, 71025, Note_on_c, 0, 70, 76
1, 71028, Control_c, 0, 64, 64
1, 71043, Control_c, 0, 64, 60
1, 71047, Note_on_c, 0, 55, 45
1, 71057, Control_c, 0, 64, 55
1, 71070, Note_off_c, 0, 72, 59
1, 71072, Control_c, 0, 64, 50
1, 71072, Control_c, 0, 67, 54
1, 71087, Control_c, 0, 64, 40
1, 71102, Control_c, 0, 64, 0
1, 71235, Note_on_c, 0, 58, 59
1, 71264, Control_c, 0, 67, 53
1, 71294, Control_c, 0, 64, 38
1, 71308, Note_off_c, 0, 55, 52
1, 71308, Control_c, 0, 64, 59
1, 71323, Control_c, 0, 64, 64
1, 71338, Control_c, 0, 64, 66
1, 71353, Control_c, 0, 64, 67
1, 71364, Note_off_c, 0, 70, 62
1, 71368, Control_c, 0, 64, 67
1, 71382, Control_c, 0, 64, 68
1, 71397, Control_c, 0, 64, 69
1, 71415, Note_on_c, 0, 63, 64
1, 71436, Note_off_c, 0, 58, 53
1, 71464, Control_c, 0, 64, 68
1, 71494, Control_c, 0, 64, 68
1, 71508, Control_c, 0, 64, 67
1, 71523, Control_c, 0, 64, 66
1, 71538, Control_c, 0, 64, 66
1, 71553, Control_c, 0, 64, 65
1, 71568, Control_c, 0, 64, 64
1, 71583, Control_c, 0, 64, 62
1, 71597, Control_c, 0, 64, 61
1, 71612, Control_c, 0, 64, 60
1, 71622, Note_on_c, 0, 68, 70
1, 71627, Control_c, 0, 64, 57
1, 71642, Control_c, 0, 64, 53
1, 71642, Note_off_c, 0, 63, 57
1, 71657, Control_c, 0, 64, 46
1, 71662, Note_on_c, 0, 64, 41
1, 71672, Control_c, 0, 64, 32
1, 71686, Control_c, 0, 64, 0
1, 71716, Control_c, 0, 64, 39
1, 71731, Control_c, 0, 64, 56
1, 71746, Control_c, 0, 64, 65
1, 71761, Control_c, 0, 64, 69
1, 71776, Control_c, 0, 64, 70
1, 71821, Control_c, 0, 67, 54
1, 71835, Control_c, 0, 64, 68
1, 71835, Control_c, 0, 67, 55
1, 71850, Control_c, 0, 64, 65
1, 71850, Control_c, 0, 67, 56
1, 71865, Control_c, 0, 64, 60
1, 71865, Control_c, 0, 67, 57
1, 71866, Note_off_c, 0, 64, 56
1, 71867, Note_on_c, 0, 60, 46
1, 71880, Control_c, 0, 64, 53
1, 71880, Control_c, 0, 67, 58
1, 71895, Control_c, 0, 64, 42
1, 71895, Control_c, 0, 67, 64
1, 71903, Note_on_c, 0, 67, 70
1, 71910, Control_c, 0, 64, 0
1, 71910, Control_c, 0, 67, 67
1, 71916, Note_off_c, 0, 68, 60
1, 71925, Control_c, 0, 67, 68
1, 71969, Control_c, 0, 67, 68
1, 71999, Control_c, 0, 67, 69
1, 72005, Note_off_c, 0, 60, 59
1, 72028, Control_c, 0, 67, 69
1, 72038, Note_on_c, 0, 55, 43
1, 72043, Control_c, 0, 67, 70
1, 72057, Control_c, 0, 64, 50
1, 72072, Control_c, 0, 64, 63
1, 72072, Control_c, 0, 67, 71
1, 72087, Control_c, 0, 64, 67
1, 72087, Control_c, 0, 67, 75
1, 72102, Control_c, 0, 64, 71
1, 72102, Control_c, 0, 67, 80
1, 72117, Control_c, 0, 64, 74
1, 72117, Control_c, 0, 67, 85
1, 72131, Note_off_c, 0, 55, 55
1, 72131, Control_c, 0, 64, 75
1, 72131, Control_c, 0, 67, 90
1, 72146, Control_c, 0, 64, 76
1, 72146, Control_c, 0, 67, 95
1, 72161, Control_c, 0, 64, 77
1, 72161, Control_c, 0, 67, 102
1, 72176, Control_c, 0, 67, 111
1, 72199, Control_c, 0, 67, 120
1, 72213, Control_c, 0, 67, 127
1, 72228, Control_c, 0, 64, 76
1, 72243, Control_c, 0, 64, 76
1, 72258, Control_c, 0, 64, 75
1, 72272, Control_c, 0, 64, 74
1, 72287, Control_c, 0, 64, 73
1, 72302, Note_on_c, 0, 71, 68
1, 72302, Control_c, 0, 64, 71
1, 72317, Control_c, 0, 64, 69
1, 72331, Note_on_c, 0, 56, 36
1, 72332, Control_c, 0, 64, 67
1, 72346, Control_c, 0, 64, 64
1, 72361, Control_c, 0, 64, 62
1, 72369, Note_off_c, 0, 67, 60
1, 72376, Control_c, 0, 64, 58
1, 72391, Control_c, 0, 64, 52
1, 72405, Control_c, 0, 64, 35
1, 72420, Control_c, 0, 64, 0
1, 72640, Note_on_c, 0, 47, 43
1, 72673, Control_c, 0, 64, 39
1, 72688, Control_c, 0, 64, 53
1, 72703, Control_c, 0, 64, 61
1, 72718, Control_c, 0, 64, 63
1, 72733, Note_off_c, 0, 56, 52
1, 72733, Control_c, 0, 64, 65
1, 72748, Control_c, 0, 64, 67
1, 72762, Control_c, 0, 64, 70
1, 72777, Control_c, 0, 64, 75
1, 72792, Control_c, 0, 64, 79
1, 72807, Control_c, 0, 64, 83
1, 72822, Control_c, 0, 64, 84
1, 72836, Control_c, 0, 64, 85
1, 72851, Control_c, 0, 64, 86
1, 72866, Control_c, 0, 64, 86
1, 72869, Note_on_c, 0, 39, 50
1, 72869, Note_off_c, 0, 47, 38
1, 72880, Control_c, 0, 64, 87
1, 72895, Control_c, 0, 64, 87
1, 73007, Control_c, 0, 64, 87
1, 73017, Note_off_c, 0, 39, 58
1, 73021, Control_c, 0, 64, 86
1, 73036, Control_c, 0, 64, 85
1, 73051, Control_c, 0, 64, 84
1, 73066, Control_c, 0, 64, 83
1, 73079, Note_on_c, 0, 65, 63
1, 73080, Control_c, 0, 64, 82
1, 73095, Control_c, 0, 64, 79
1, 73108, Note_on_c, 0, 35, 48
1, 73110, Control_c, 0, 64, 77
1, 73125, Control_c, 0, 64, 74
1, 73140, Control_c, 0, 64, 70
1, 73156, Control_c, 0, 64, 67
1, 73167, Note_off_c, 0, 71, 43
1, 73170, Control_c, 0, 64, 64
1, 73185, Control_c, 0, 64, 61
1, 73200, Control_c, 0, 64, 60
1, 73214, Control_c, 0, 64, 62
1, 73229, Control_c, 0, 64, 65
1, 73244, Control_c, 0, 64, 67
1, 73274, Control_c, 0, 64, 65
1, 73288, Control_c, 0, 64, 64
1, 73302, Note_off_c, 0, 35, 55
1, 73303, Control_c, 0, 64, 63
1, 73312, Note_on_c, 0, 36, 56
1, 73318, Control_c, 0, 64, 62
1, 73333, Control_c, 0, 64, 61
1, 73348, Control_c, 0, 64, 57
1, 73364, Control_c, 0, 64, 49
1, 73378, Control_c, 0, 64, 38
1, 73393, Control_c, 0, 64, 0
1, 73403, Note_on_c, 0, 63, 65
1, 73438, Control_c, 0, 64, 31
1, 73446, Note_off_c, 0, 65, 55
1, 73453, Control_c, 0, 64, 37
1, 73467, Control_c, 0, 64, 44
1, 73482, Control_c, 0, 64, 52
1, 73496, Note_off_c, 0, 36, 55
1, 73497, Control_c, 0, 64, 58
1, 73503, Note_on_c, 0, 37, 51
1, 73511, Control_c, 0, 64, 59
1, 73541, Control_c, 0, 64, 59
1, 73571, Control_c, 0, 64, 58
1, 73585, Control_c, 0, 64, 58
1, 73600, Control_c, 0, 64, 57
1, 73615, Control_c, 0, 64, 56
1, 73630, Control_c, 0, 64, 55
1, 73645, Control_c, 0, 64, 55
1, 73660, Control_c, 0, 64, 54
1, 73675, Control_c, 0, 64, 52
1, 73697, Control_c, 0, 64, 49
1, 73711, Control_c, 0, 64, 46
1, 73724, Note_on_c, 0, 58, 63
1, 73726, Control_c, 0, 64, 43
1, 73734, Note_off_c, 0, 37, 49
1, 73736, Note_on_c, 0, 38, 48
1, 73741, Control_c, 0, 64, 39
1, 73756, Control_c, 0, 64, 34
1, 73771, Control_c, 0, 64, 0
1, 73778, Note_off_c, 0, 63, 57
1, 73958, Note_on_c, 0, 42, 44
1, 74021, Note_off_c, 0, 38, 54
1, 74082, Control_c, 0, 64, 30
1, 74097, Control_c, 0, 64, 37
1, 74111, Control_c, 0, 64, 45
1, 74126, Control_c, 0, 64, 53
1, 74141, Control_c, 0, 64, 58
1, 74151, Note_off_c, 0, 42, 62
1, 74157, Control_c, 0, 64, 61
1, 74165, Note_on_c, 0, 45, 53
1, 74172, Control_c, 0, 64, 64
1, 74187, Control_c, 0, 64, 66
1, 74187, Control_c, 0, 67, 124
1, 74201, Control_c, 0, 64, 69
1, 74216, Control_c, 0, 64, 72
1, 74231, Control_c, 0, 64, 74
1, 74246, Control_c, 0, 64, 76
1, 74260, Control_c, 0, 64, 77
1, 74364, Control_c, 0, 64, 76
1, 74379, Control_c, 0, 64, 75
1, 74394, Control_c, 0, 64, 73
1, 74405, Note_on_c, 0, 70, 63
1, 74408, Control_c, 0, 64, 71
1, 74421, Note_on_c, 0, 46, 41
1, 74423, Control_c, 0, 64, 68
1, 74446, Control_c, 0, 64, 66
1, 74460, Control_c, 0, 64, 65
1, 74475, Control_c, 0, 64, 62
1, 74480, Note_off_c, 0, 45, 53
1, 74490, Control_c, 0, 64, 59
1, 74505, Control_c, 0, 64, 55
1, 74520, Control_c, 0, 64, 51
1, 74529, Note_off_c, 0, 58, 50
1, 74534, Control_c, 0, 64, 45
1, 74549, Control_c, 0, 64, 35
1, 74564, Control_c, 0, 64, 0
1, 74659, Note_on_c, 0, 50, 50
1, 74736, Note_off_c, 0, 46, 47
1, 74800, Control_c, 0, 64, 31
1, 74815, Control_c, 0, 64, 39
1, 74830, Control_c, 0, 64, 48
1, 74845, Control_c, 0, 64, 55
1, 74859, Control_c, 0, 64, 59
1, 74874, Control_c, 0, 64, 61
1, 74881, Note_off_c, 0, 50, 55
1, 74888, Note_on_c, 0, 53, 45
1, 74889, Control_c, 0, 64, 63
1, 74904, Control_c, 0, 64, 64
1, 74919, Control_c, 0, 64, 65
1, 74933, Control_c, 0, 64, 66
1, 74948, Control_c, 0, 64, 67
1, 74964, Control_c, 0, 64, 67
1, 74994, Control_c, 0, 64, 68
1, 75023, Control_c, 0, 64, 67
1, 75068, Control_c, 0, 64, 67
1, 75082, Control_c, 0, 64, 66
1, 75097, Control_c, 0, 64, 65
1, 75112, Control_c, 0, 64, 64
1, 75127, Control_c, 0, 64, 64
1, 75142, Control_c, 0, 64, 63
1, 75156, Control_c, 0, 64, 63
1, 75165, Note_on_c, 0, 63, 57
1, 75179, Control_c, 0, 64, 62
1, 75194, Control_c, 0, 64, 60
1, 75198, Note_on_c, 0, 54, 38
1, 75208, Control_c, 0, 64, 58
1, 75213, Note_off_c, 0, 53, 37
1, 75223, Control_c, 0, 64, 56
1, 75238, Control_c, 0, 64, 55
1, 75253, Control_c, 0, 64, 53
1, 75268, Control_c, 0, 64, 50
1, 75282, Control_c, 0, 64, 44
1, 75297, Control_c, 0, 64, 30
1, 75312, Control_c, 0, 64, 0
1, 75318, Note_off_c, 0, 70, 51
1, 75478, Note_on_c, 0, 55, 43
1, 75513, Note_off_c, 0, 54, 49
1, 75794, Note_on_c, 0, 43, 37
1, 75844, Note_off_c, 0, 55, 37
1, 75921, Control_c, 0, 64, 38
1, 75943, Control_c, 0, 64, 51
1, 75958, Control_c, 0, 64, 58
1, 75973, Control_c, 0, 64, 62
1, 75988, Control_c, 0, 64, 64
1, 76003, Control_c, 0, 64, 65
1, 76018, Control_c, 0, 64, 66
1, 76032, Control_c, 0, 64, 67
1, 76047, Control_c, 0, 64, 68
1, 76062, Control_c, 0, 64, 68
1, 76195, Control_c, 0, 64, 68
1, 76210, Control_c, 0, 64, 67
1, 76225, Control_c, 0, 64, 67
1, 76239, Control_c, 0, 64, 66
1, 76283, Note_on_c, 0, 39, 41
1, 76284, Control_c, 0, 64, 66
1, 76299, Control_c, 0, 64, 65
1, 76313, Control_c, 0, 64, 65
1, 76328, Control_c, 0, 64, 64
1, 76339, Note_off_c, 0, 43, 39
1, 76358, Control_c, 0, 64, 64
1, 76373, Control_c, 0, 64, 63
1, 76387, Control_c, 0, 64, 62
1, 76402, Control_c, 0, 64, 61
1, 76417, Control_c, 0, 64, 60
1, 76432, Control_c, 0, 64, 59
1, 76447, Control_c, 0, 64, 58
1, 76462, Control_c, 0, 64, 57
1, 76477, Control_c, 0, 64, 56
1, 76492, Control_c, 0, 64, 53
1, 76506, Control_c, 0, 64, 51
1, 76521, Control_c, 0, 64, 48
1, 76536, Control_c, 0, 64, 46
1, 76551, Control_c, 0, 64, 44
1, 76566, Control_c, 0, 64, 42
1, 76581, Control_c, 0, 64, 36
1, 76596, Control_c, 0, 64, 0
1, 77107, Control_c, 0, 67, 122
1, 77180, Control_c, 0, 64, 31
1, 77195, Control_c, 0, 64, 37
1, 77210, Control_c, 0, 64, 37
1, 77270, Control_c, 0, 64, 36
1, 77285, Control_c, 0, 64, 36
1, 77299, Control_c, 0, 64, 36
1, 77314, Control_c, 0, 64, 40
1, 77329, Control_c, 0, 64, 49
1, 77344, Control_c, 0, 64, 57
1, 77359, Control_c, 0, 64, 60
1, 77359, Control_c, 0, 67, 124
1, 77374, Control_c, 0, 64, 62
1, 77389, Control_c, 0, 64, 64
1, 77389, Control_c, 0, 67, 127
1, 77404, Control_c, 0, 64, 65
1, 77419, Control_c, 0, 64, 67
1, 77441, Control_c, 0, 64, 69
1, 77456, Control_c, 0, 64, 71
1, 77471, Control_c, 0, 64, 73
1, 77485, Control_c, 0, 64, 75
1, 77500, Control_c, 0, 64, 77
1, 77515, Control_c, 0, 64, 79
1, 77530, Control_c, 0, 64, 81
1, 77545, Control_c, 0, 64, 82
1, 77559, Control_c, 0, 64, 83
1, 77574, Control_c, 0, 64, 84
1, 77586, Note_off_c, 0, 39, 34
1, 77871, Control_c, 0, 64, 83
1, 77915, Control_c, 0, 64, 83
1, 77930, Control_c, 0, 64, 82
1, 77944, Control_c, 0, 64, 82
1, 77959, Control_c, 0, 64, 81
1, 77974, Control_c, 0, 64, 81
1, 77989, Control_c, 0, 64, 80
1, 78003, Control_c, 0, 64, 79
1, 78018, Control_c, 0, 64, 78
1, 78033, Control_c, 0, 64, 77
1, 78048, Control_c, 0, 64, 76
1, 78063, Control_c, 0, 64, 76
1, 78073, Note_on_c, 0, 40, 26
1, 78077, Control_c, 0, 64, 75
1, 78092, Control_c, 0, 64, 74
1, 78107, Control_c, 0, 64, 72
1, 78122, Control_c, 0, 64, 71
1, 78137, Control_c, 0, 64, 69
1, 78153, Control_c, 0, 64, 67
1, 78168, Control_c, 0, 64, 65
1, 78190, Control_c, 0, 64, 62
1, 78205, Control_c, 0, 64, 58
1, 78220, Control_c, 0, 64, 52
1, 78234, Control_c, 0, 64, 45
1, 78249, Control_c, 0, 64, 37
1, 78264, Control_c, 0, 64, 0
1, 78487, Control_c, 0, 64, 40
1, 78501, Control_c, 0, 64, 50
1, 78516, Control_c, 0, 64, 55
1, 78531, Control_c, 0, 64, 57
1, 78546, Control_c, 0, 64, 59
1, 78561, Control_c, 0, 64, 61
1, 78575, Control_c, 0, 64, 63
1, 78590, Control_c, 0, 64, 65
1, 78605, Control_c, 0, 64, 66
1, 78620, Control_c, 0, 64, 68
1, 78635, Control_c, 0, 64, 69
1, 78650, Control_c, 0, 64, 71
1, 78665, Control_c, 0, 64, 73
1, 78680, Control_c, 0, 64, 76
1, 78695, Control_c, 0, 64, 78
1, 78706, Note_off_c, 0, 40, 28
1, 78709, Control_c, 0, 64, 80
1, 78724, Control_c, 0, 64, 82
1, 78739, Control_c, 0, 64, 83
1, 78753, Control_c, 0, 64, 84
1, 78768, Control_c, 0, 64, 85
1, 78781, Note_off_c, 0, 63, 28
1, 78798, Control_c, 0, 64, 86
1, 78813, Control_c, 0, 64, 86
1, 78827, Control_c, 0, 64, 87
1, 78857, Control_c, 0, 64, 88
1, 78901, Control_c, 0, 64, 88
1, 78924, Control_c, 0, 64, 89
1, 79118, Control_c, 0, 64, 89
1, 79132, Control_c, 0, 64, 88
1, 79146, Control_c, 0, 64, 88
1, 79161, Control_c, 0, 64, 86
1, 79165, Note_on_c, 0, 62, 54
1, 79175, Control_c, 0, 64, 85
1, 79183, Note_on_c, 0, 41, 40
1, 79190, Control_c, 0, 64, 84
1, 79205, Control_c, 0, 64, 82
1, 79220, Control_c, 0, 64, 81
1, 79235, Control_c, 0, 64, 79
1, 79249, Control_c, 0, 64, 77
1, 79264, Control_c, 0, 64, 75
1, 79279, Control_c, 0, 64, 72
1, 79294, Control_c, 0, 64, 68
1, 79309, Control_c, 0, 64, 64
1, 79324, Control_c, 0, 64, 60
1, 79338, Control_c, 0, 64, 57
1, 79353, Control_c, 0, 64, 52
1, 79368, Control_c, 0, 64, 41
1, 79383, Control_c, 0, 64, 0
1, 79561, Control_c, 0, 64, 38
1, 79575, Control_c, 0, 64, 53
1, 79590, Control_c, 0, 64, 58
1, 79605, Control_c, 0, 64, 59
1, 79620, Control_c, 0, 64, 61
1, 79635, Control_c, 0, 64, 63
1, 79649, Control_c, 0, 64, 67
1, 79664, Control_c, 0, 64, 71
1, 79687, Control_c, 0, 64, 76
1, 79701, Control_c, 0, 64, 79
1, 79716, Control_c, 0, 64, 82
1, 79731, Control_c, 0, 64, 88
1, 79747, Control_c, 0, 64, 96
1, 79762, Control_c, 0, 64, 111
1, 79777, Control_c, 0, 64, 127
1, 79904, Note_on_c, 0, 34, 40
1, 79905, Note_on_c, 0, 53, 34
1, 80080, Note_off_c, 0, 34, 30
1, 80232, Note_off_c, 0, 41, 33
1, 80498, Note_on_c, 0, 60, 52
1, 80692, Note_off_c, 0, 62, 38
1, 80947, Note_on_c, 0, 48, 30
1, 80951, Note_on_c, 0, 57, 41
1, 81113, Note_off_c, 0, 48, 40
1, 81339, Note_on_c, 0, 63, 59
1, 81418, Note_off_c, 0, 53, 32
1, 81691, Note_off_c, 0, 60, 34
1, 81730, Note_on_c, 0, 56, 45
1, 81738, Note_on_c, 0, 59, 40
1, 81811, Note_off_c, 0, 57, 58
1, 81961, Note_off_c, 0, 56, 24
1, 81983, Note_off_c, 0, 63, 61
1, 82096, Note_on_c, 0, 64, 61
1, 82247, Note_off_c, 0, 59, 41
1, 82318, Control_c, 0, 67, 119
1, 82333, Control_c, 0, 67, 112
1, 82348, Control_c, 0, 67, 106
1, 82363, Control_c, 0, 67, 100
1, 82378, Control_c, 0, 67, 97
1, 82392, Control_c, 0, 67, 95
1, 82462, Note_on_c, 0, 60, 48
1, 82475, Note_on_c, 0, 57, 44
1, 82544, Note_off_c, 0, 57, 59
1, 82711, Control_c, 0, 67, 96
1, 82770, Control_c, 0, 67, 98
1, 82829, Control_c, 0, 67, 100
1, 82876, Note_on_c, 0, 72, 67
1, 82948, Control_c, 0, 67, 103
1, 82993, Control_c, 0, 67, 105
1, 83025, Note_off_c, 0, 64, 56
1, 83038, Control_c, 0, 67, 107
1, 83068, Control_c, 0, 67, 110
1, 83082, Control_c, 0, 64, 111
1, 83097, Control_c, 0, 64, 103
1, 83097, Control_c, 0, 67, 112
1, 83112, Control_c, 0, 64, 98
1, 83127, Control_c, 0, 64, 94
1, 83127, Control_c, 0, 67, 115
1, 83141, Control_c, 0, 64, 90
1, 83141, Control_c, 0, 67, 120
1, 83156, Control_c, 0, 64, 85
1, 83156, Control_c, 0, 67, 126
1, 83171, Control_c, 0, 64, 79
1, 83186, Control_c, 0, 64, 74
1, 83201, Control_c, 0, 64, 69
1, 83215, Control_c, 0, 64, 64
1, 83230, Control_c, 0, 64, 57
1, 83245, Control_c, 0, 64, 48
1, 83260, Control_c, 0, 64, 39
1, 83275, Control_c, 0, 64, 0
1, 83306, Note_on_c, 0, 34, 44
1, 83519, Control_c, 0, 64, 37
1, 83534, Control_c, 0, 64, 58
1, 83548, Control_c, 0, 64, 65
1, 83563, Control_c, 0, 64, 71
1, 83578, Control_c, 0, 64, 78
1, 83593, Control_c, 0, 64, 84
1, 83608, Control_c, 0, 64, 90
1, 83622, Control_c, 0, 64, 97
1, 83638, Control_c, 0, 64, 105
1, 83653, Control_c, 0, 64, 112
1, 83655, Note_on_c, 0, 69, 53
1, 83667, Control_c, 0, 64, 126
1, 83674, Note_on_c, 0, 49, 45
1, 83743, Note_off_c, 0, 34, 60
1, 83803, Note_off_c, 0, 49, 60
1, 83876, Note_off_c, 0, 72, 45
1, 84009, Note_on_c, 0, 65, 62
1, 84024, Note_off_c, 0, 60, 61
1, 84030, Note_on_c, 0, 57, 41
1, 84188, Note_off_c, 0, 57, 44
1, 84193, Note_off_c, 0, 69, 48
1, 84356, Note_on_c, 0, 67, 67
1, 84506, Note_off_c, 0, 65, 63
1, 84655, Control_c, 0, 67, 124
1, 84669, Control_c, 0, 67, 120
1, 84684, Control_c, 0, 67, 116
1, 84699, Control_c, 0, 67, 112
1, 84700, Note_on_c, 0, 60, 48
1, 84713, Control_c, 0, 67, 108
1, 84728, Control_c, 0, 67, 106
1, 84743, Control_c, 0, 67, 104
1, 84773, Control_c, 0, 67, 100
1, 84802, Control_c, 0, 67, 96
1, 84817, Control_c, 0, 67, 95
1, 84832, Control_c, 0, 67, 94
1, 84847, Control_c, 0, 67, 93
1, 84862, Control_c, 0, 67, 91
1, 84877, Control_c, 0, 67, 90
1, 84892, Control_c, 0, 67, 88
1, 84907, Control_c, 0, 67, 87
1, 84928, Control_c, 0, 67, 86
1, 84943, Control_c, 0, 67, 86
1, 84958, Control_c, 0, 67, 85
1, 84973, Control_c, 0, 67, 85
1, 84988, Control_c, 0, 67, 84
1, 85002, Control_c, 0, 67, 83
1, 85017, Control_c, 0, 67, 82
1, 85032, Control_c, 0, 67, 82
1, 85047, Control_c, 0, 67, 81
1, 85048, Note_on_c, 0, 75, 71
1, 85062, Control_c, 0, 67, 81
1, 85071, Note_on_c, 0, 66, 40
1, 85077, Control_c, 0, 67, 80
1, 85092, Control_c, 0, 67, 78
1, 85106, Control_c, 0, 67, 76
1, 85121, Control_c, 0, 67, 74
1, 85135, Control_c, 0, 67, 72
1, 85149, Note_off_c, 0, 66, 58
1, 85150, Control_c, 0, 67, 71
1, 85161, Note_off_c, 0, 60, 42
1, 85165, Control_c, 0, 67, 68
1, 85180, Control_c, 0, 67, 65
1, 85194, Control_c, 0, 67, 61
1, 85209, Control_c, 0, 67, 57
1, 85224, Control_c, 0, 67, 51
1, 85238, Control_c, 0, 67, 46
1, 85253, Control_c, 0, 67, 40
1, 85268, Control_c, 0, 67, 33
1, 85283, Control_c, 0, 67, 24
1, 85298, Control_c, 0, 67, 0
1, 85429, Note_on_c, 0, 70, 51
1, 85582, Note_off_c, 0, 75, 62
1, 85609, Note_off_c, 0, 67, 37
1, 85610, Control_c, 0, 67, 21
1, 85625, Control_c, 0, 67, 23
1, 85640, Control_c, 0, 67, 26
1, 85655, Control_c, 0, 67, 32
1, 85678, Control_c, 0, 67, 37
1, 85692, Control_c, 0, 67, 44
1, 85707, Control_c, 0, 67, 51
1, 85722, Control_c, 0, 67, 58
1, 85737, Control_c, 0, 67, 66
1, 85751, Control_c, 0, 67, 71
1, 85766, Control_c, 0, 67, 76
1, 85781, Control_c, 0, 67, 80
1, 85796, Control_c, 0, 67, 83
1, 85811, Control_c, 0, 67, 85
1, 85825, Note_on_c, 0, 75, 72
1, 85825, Control_c, 0, 67, 86
1, 85840, Control_c, 0, 67, 88
1, 85843, Note_on_c, 0, 33, 56
1, 85846, Note_on_c, 0, 45, 56
1, 85855, Control_c, 0, 67, 90
1, 85870, Control_c, 0, 67, 91
1, 85885, Control_c, 0, 67, 92
1, 85900, Control_c, 0, 67, 93
1, 85915, Control_c, 0, 67, 93
1, 85944, Control_c, 0, 64, 114
1, 85959, Control_c, 0, 64, 98
1, 85974, Control_c, 0, 64, 88
1, 85989, Control_c, 0, 64, 80
1, 86004, Control_c, 0, 64, 73
1, 86019, Control_c, 0, 64, 66
1, 86034, Control_c, 0, 64, 58
1, 86048, Control_c, 0, 64, 46
1, 86063, Control_c, 0, 64, 0
1, 86227, Control_c, 0, 67, 93
1, 86231, Note_on_c, 0, 71, 57
1, 86242, Control_c, 0, 67, 92
1, 86272, Control_c, 0, 67, 92
1, 86282, Note_off_c, 0, 70, 63
1, 86301, Control_c, 0, 67, 91
1, 86346, Control_c, 0, 67, 91
1, 86360, Control_c, 0, 67, 90
1, 86390, Control_c, 0, 67, 89
1, 86412, Control_c, 0, 67, 89
1, 86427, Control_c, 0, 64, 50
1, 86427, Control_c, 0, 67, 88
1, 86442, Control_c, 0, 64, 63
1, 86457, Control_c, 0, 64, 70
1, 86457, Control_c, 0, 67, 88
1, 86472, Control_c, 0, 64, 77
1, 86486, Control_c, 0, 64, 83
1, 86486, Control_c, 0, 67, 87
1, 86501, Control_c, 0, 64, 89
1, 86501, Control_c, 0, 67, 86
1, 86516, Control_c, 0, 64, 96
1, 86531, Control_c, 0, 64, 105
1, 86546, Control_c, 0, 64, 116
1, 86561, Control_c, 0, 64, 127
1, 86585, Note_on_c, 0, 80, 74
1, 86603, Note_on_c, 0, 72, 56
1, 86605, Control_c, 0, 67, 86
1, 86635, Control_c, 0, 67, 85
1, 86647, Note_off_c, 0, 71, 34
1, 86654, Note_off_c, 0, 75, 61
1, 86664, Control_c, 0, 67, 85
1, 86665, Note_off_c, 0, 72, 62
1, 86679, Control_c, 0, 67, 84
1, 86693, Control_c, 0, 67, 84
1, 86708, Control_c, 0, 67, 83
1, 86723, Control_c, 0, 67, 83
1, 86738, Control_c, 0, 67, 82
1, 86753, Control_c, 0, 67, 81
1, 86761, Note_off_c, 0, 80, 66
1, 86767, Control_c, 0, 67, 81
1, 86782, Control_c, 0, 67, 80
1, 86784, Note_off_c, 0, 45, 33
1, 86797, Control_c, 0, 67, 79
1, 86812, Control_c, 0, 67, 78
1, 86841, Control_c, 0, 67, 77
1, 86871, Control_c, 0, 67, 77
1, 86916, Control_c, 0, 67, 76
1, 86921, Note_off_c, 0, 33, 50
1, 86946, Control_c, 0, 67, 75
1, 86954, Note_on_c, 0, 82, 88
1, 86961, Control_c, 0, 67, 74
1, 86976, Control_c, 0, 67, 70
1, 86984, Note_on_c, 0, 74, 51
1, 86990, Control_c, 0, 67, 65
1, 87005, Control_c, 0, 67, 60
1, 87020, Control_c, 0, 67, 55
1, 87026, Note_off_c, 0, 74, 0
1, 87026, Note_on_c, 0, 74, 37
1, 87035, Control_c, 0, 67, 52
1, 87050, Control_c, 0, 67, 48
1, 87065, Control_c, 0, 67, 45
1, 87080, Control_c, 0, 67, 42
1, 87095, Control_c, 0, 67, 38
1, 87109, Control_c, 0, 67, 32
1, 87124, Control_c, 0, 67, 25
1, 87139, Control_c, 0, 67, 0
1, 87280, Control_c, 0, 67, 20
1, 87309, Control_c, 0, 67, 22
1, 87354, Control_c, 0, 67, 24
1, 87409, Note_on_c, 0, 83, 85
1, 87433, Note_on_c, 0, 75, 58
1, 87435, Note_on_c, 0, 44, 54
1, 87437, Note_on_c, 0, 32, 52
1, 87438, Note_off_c, 0, 74, 51
1, 87457, Control_c, 0, 64, 110
1, 87466, Note_off_c, 0, 82, 60
1, 87472, Control_c, 0, 64, 100
1, 87487, Control_c, 0, 64, 93
1, 87502, Control_c, 0, 64, 86
1, 87516, Control_c, 0, 64, 79
1, 87531, Control_c, 0, 64, 70
1, 87546, Control_c, 0, 64, 61
1, 87561, Control_c, 0, 64, 39
1, 87576, Control_c, 0, 64, 0
1, 87679, Control_c, 0, 67, 22
1, 87865, Note_on_c, 0, 71, 45
1, 87888, Note_off_c, 0, 75, 63
1, 87903, Control_c, 0, 64, 46
1, 87925, Control_c, 0, 64, 58
1, 87939, Control_c, 0, 64, 63
1, 87954, Control_c, 0, 64, 68
1, 87969, Control_c, 0, 64, 72
1, 87984, Control_c, 0, 64, 77
1, 87999, Control_c, 0, 64, 82
1, 88001, Note_off_c, 0, 83, 62
1, 88013, Control_c, 0, 64, 90
1, 88028, Control_c, 0, 64, 103
1, 88043, Control_c, 0, 64, 127
1, 88072, Control_c, 0, 67, 24
1, 88218, Note_on_c, 0, 76, 78
1, 88233, Note_on_c, 0, 68, 54
1, 88279, Note_off_c, 0, 71, 43
1, 88281, Note_off_c, 0, 68, 0
1, 88281, Note_on_c, 0, 68, 37
1, 88353, Note_off_c, 0, 44, 60
1, 88355, Note_off_c, 0, 32, 59
1, 88572, Note_on_c, 0, 64, 52
1, 88602, Note_off_c, 0, 68, 57
1, 88607, Control_c, 0, 67, 26
1, 88651, Control_c, 0, 67, 28
1, 88703, Control_c, 0, 67, 30
1, 88733, Control_c, 0, 67, 32
1, 88748, Control_c, 0, 67, 32
1, 88762, Control_c, 0, 67, 33
1, 88792, Control_c, 0, 67, 33
1, 88807, Control_c, 0, 67, 34
1, 88836, Control_c, 0, 67, 34
1, 88851, Control_c, 0, 67, 35
1, 88896, Control_c, 0, 67, 38
1, 88911, Control_c, 0, 67, 41
1, 88916, Note_on_c, 0, 69, 66
1, 88926, Control_c, 0, 67, 43
1, 88928, Note_on_c, 0, 48, 52
1, 88937, Note_on_c, 0, 36, 52
1, 88941, Control_c, 0, 67, 44
1, 88970, Control_c, 0, 67, 45
1, 89008, Note_off_c, 0, 76, 35
1, 89029, Control_c, 0, 64, 115
1, 89029, Control_c, 0, 67, 45
1, 89044, Control_c, 0, 64, 102
1, 89059, Control_c, 0, 64, 95
1, 89074, Control_c, 0, 64, 91
1, 89089, Control_c, 0, 64, 88
1, 89104, Control_c, 0, 64, 82
1, 89119, Control_c, 0, 64, 74
1, 89134, Control_c, 0, 64, 67
1, 89149, Control_c, 0, 64, 60
1, 89163, Control_c, 0, 64, 52
1, 89178, Control_c, 0, 64, 41
1, 89193, Control_c, 0, 64, 0
1, 89267, Control_c, 0, 67, 45
1, 89277, Note_on_c, 0, 60, 41
1, 89289, Note_off_c, 0, 64, 63
1, 89296, Control_c, 0, 67, 44
1, 89326, Control_c, 0, 64, 40
1, 89342, Control_c, 0, 64, 53
1, 89342, Control_c, 0, 67, 44
1, 89357, Control_c, 0, 64, 61
1, 89357, Control_c, 0, 67, 43
1, 89372, Control_c, 0, 64, 63
1, 89386, Control_c, 0, 64, 65
1, 89401, Control_c, 0, 64, 66
1, 89423, Control_c, 0, 64, 68
1, 89438, Control_c, 0, 64, 69
1, 89453, Control_c, 0, 64, 72
1, 89468, Control_c, 0, 64, 74
1, 89482, Control_c, 0, 64, 77
1, 89497, Control_c, 0, 64, 78
1, 89512, Control_c, 0, 64, 79
1, 89527, Control_c, 0, 64, 81
1, 89542, Control_c, 0, 64, 82
1, 89557, Control_c, 0, 64, 85
1, 89572, Control_c, 0, 64, 87
1, 89586, Control_c, 0, 64, 89
1, 89601, Control_c, 0, 64, 90
1, 89616, Control_c, 0, 64, 92
1, 89630, Control_c, 0, 64, 94
1, 89631, Note_on_c, 0, 64, 55
1, 89633, Note_off_c, 0, 48, 34
1, 89644, Control_c, 0, 64, 96
1, 89649, Note_on_c, 0, 57, 41
1, 89659, Control_c, 0, 64, 99
1, 89689, Control_c, 0, 64, 101
1, 89693, Note_off_c, 0, 69, 52
1, 89731, Note_off_c, 0, 36, 33
1, 89733, Note_off_c, 0, 60, 53
1, 89748, Control_c, 0, 64, 103
1, 89792, Control_c, 0, 64, 105
1, 89822, Control_c, 0, 64, 108
1, 89837, Control_c, 0, 64, 110
1, 89867, Control_c, 0, 64, 112
1, 89941, Control_c, 0, 64, 114
1, 90051, Note_on_c, 0, 52, 46
1, 90074, Control_c, 0, 67, 44
1, 90103, Control_c, 0, 67, 45
1, 90118, Control_c, 0, 67, 45
1, 90186, Control_c, 0, 67, 46
1, 90189, Note_off_c, 0, 57, 37
1, 90201, Control_c, 0, 67, 46
1, 90216, Control_c, 0, 67, 47
1, 90231, Control_c, 0, 67, 48
1, 90246, Control_c, 0, 67, 56
1, 90260, Control_c, 0, 67, 66
1, 90275, Control_c, 0, 67, 73
1, 90290, Control_c, 0, 67, 78
1, 90305, Control_c, 0, 64, 112
1, 90305, Control_c, 0, 67, 82
1, 90320, Control_c, 0, 67, 85
1, 90334, Control_c, 0, 64, 110
1, 90334, Control_c, 0, 67, 87
1, 90349, Control_c, 0, 64, 108
1, 90349, Control_c, 0, 67, 89
1, 90364, Control_c, 0, 67, 90
1, 90379, Control_c, 0, 64, 105
1, 90379, Control_c, 0, 67, 91
1, 90394, Control_c, 0, 64, 103
1, 90408, Control_c, 0, 64, 99
1, 90423, Control_c, 0, 64, 95
1, 90438, Control_c, 0, 64, 92
1, 90453, Control_c, 0, 64, 90
1, 90467, Control_c, 0, 64, 89
1, 90474, Note_on_c, 0, 59, 54
1, 90482, Control_c, 0, 64, 87
1, 90493, Note_on_c, 0, 29, 45
1, 90496, Note_on_c, 0, 41, 37
1, 90497, Control_c, 0, 64, 85
1, 90512, Control_c, 0, 64, 82
1, 90527, Control_c, 0, 64, 79
1, 90541, Control_c, 0, 64, 77
1, 90556, Control_c, 0, 64, 74
1, 90571, Control_c, 0, 64, 71
1, 90586, Control_c, 0, 64, 66
1, 90586, Control_c, 0, 67, 92
1, 90601, Control_c, 0, 64, 62
1, 90615, Control_c, 0, 64, 58
1, 90630, Control_c, 0, 64, 54
1, 90639, Note_off_c, 0, 64, 62
1, 90645, Control_c, 0, 64, 48
1, 90660, Control_c, 0, 64, 41
1, 90675, Control_c, 0, 64, 0
1, 90764, Control_c, 0, 67, 91
1, 90808, Control_c, 0, 67, 91
1, 90823, Control_c, 0, 67, 90
1, 90867, Control_c, 0, 67, 90
1, 90882, Control_c, 0, 67, 89
1, 90913, Note_on_c, 0, 56, 41
1, 90919, Control_c, 0, 67, 89
1, 90935, Control_c, 0, 67, 88
1, 90959, Note_off_c, 0, 52, 36
1, 90964, Control_c, 0, 67, 88
1, 90979, Control_c, 0, 67, 87
1, 91024, Control_c, 0, 64, 32
1, 91024, Control_c, 0, 67, 87
1, 91038, Control_c, 0, 64, 43
1, 91038, Control_c, 0, 67, 86
1, 91053, Control_c, 0, 64, 55
1, 91068, Control_c, 0, 64, 59
1, 91068, Control_c, 0, 67, 86
1, 91083, Control_c, 0, 64, 61
1, 91098, Control_c, 0, 64, 62
1, 91098, Control_c, 0, 67, 85
1, 91113, Control_c, 0, 64, 64
1, 91128, Control_c, 0, 64, 66
1, 91143, Control_c, 0, 64, 69
1, 91158, Control_c, 0, 64, 70
1, 91173, Control_c, 0, 64, 72
1, 91188, Control_c, 0, 64, 73
1, 91202, Control_c, 0, 64, 73
1, 91217, Control_c, 0, 64, 74
1, 91232, Control_c, 0, 64, 74
1, 91380, Control_c, 0, 64, 74
1, 91395, Control_c, 0, 64, 73
1, 91409, Control_c, 0, 64, 73
1, 91424, Control_c, 0, 64, 72
1, 91439, Control_c, 0, 64, 71
1, 91452, Note_on_c, 0, 60, 44
1, 91454, Control_c, 0, 64, 70
1, 91469, Control_c, 0, 64, 68
1, 91470, Note_on_c, 0, 51, 31
1, 91483, Control_c, 0, 64, 67
1, 91498, Control_c, 0, 64, 67
1, 91513, Control_c, 0, 64, 66
1, 91515, Note_off_c, 0, 56, 49
1, 91515, Note_off_c, 0, 59, 59
1, 91528, Control_c, 0, 64, 65
1, 91543, Control_c, 0, 64, 63
1, 91557, Control_c, 0, 64, 61
1, 91572, Control_c, 0, 64, 59
1, 91587, Control_c, 0, 64, 56
1, 91602, Control_c, 0, 64, 53
1, 91617, Control_c, 0, 64, 49
1, 91632, Control_c, 0, 64, 42
1, 91647, Control_c, 0, 64, 0
1, 91980, Control_c, 0, 64, 31
1, 91995, Control_c, 0, 64, 45
1, 91995, Control_c, 0, 67, 85
1, 92010, Control_c, 0, 64, 56
1, 92025, Control_c, 0, 64, 62
1, 92040, Control_c, 0, 64, 64
1, 92055, Control_c, 0, 64, 66
1, 92070, Control_c, 0, 64, 67
1, 92085, Control_c, 0, 64, 69
1, 92099, Control_c, 0, 64, 74
1, 92114, Control_c, 0, 64, 80
1, 92129, Control_c, 0, 64, 85
1, 92144, Control_c, 0, 64, 90
1, 92159, Control_c, 0, 64, 93
1, 92159, Control_c, 0, 67, 84
1, 92165, Note_off_c, 0, 29, 55
1, 92174, Control_c, 0, 64, 95
1, 92188, Control_c, 0, 64, 98
1, 92218, Control_c, 0, 64, 100
1, 92221, Note_off_c, 0, 60, 34
1, 92252, Note_off_c, 0, 51, 42
1, 92462, Control_c, 0, 64, 97
1, 92477, Control_c, 0, 64, 95
1, 92492, Note_on_c, 0, 57, 48
1, 92492, Control_c, 0, 64, 93
1, 92506, Control_c, 0, 64, 91
1, 92521, Control_c, 0, 64, 90
1, 92537, Control_c, 0, 64, 89
1, 92552, Control_c, 0, 64, 86
1, 92567, Control_c, 0, 64, 84
1, 92582, Control_c, 0, 64, 82
1, 92597, Control_c, 0, 64, 79
1, 92611, Control_c, 0, 64, 78
1, 92626, Control_c, 0, 64, 77
1, 92641, Control_c, 0, 64, 75
1, 92655, Control_c, 0, 64, 74
1, 92655, Control_c, 0, 67, 85
1, 92670, Control_c, 0, 64, 73
1, 92685, Control_c, 0, 64, 71
1, 92685, Control_c, 0, 67, 86
1, 92700, Control_c, 0, 64, 69
1, 92700, Control_c, 0, 67, 87
1, 92715, Control_c, 0, 64, 69
1, 92715, Control_c, 0, 67, 88
1, 92729, Control_c, 0, 67, 89
1, 92744, Control_c, 0, 64, 68
1, 92744, Control_c, 0, 67, 89
1, 92759, Control_c, 0, 64, 67
1, 92759, Control_c, 0, 67, 90
1, 92774, Control_c, 0, 64, 65
1, 92788, Control_c, 0, 64, 64
1, 92803, Control_c, 0, 64, 63
1, 92803, Control_c, 0, 67, 91
1, 92818, Control_c, 0, 64, 62
1, 92818, Control_c, 0, 67, 91
1, 92833, Control_c, 0, 64, 61
1, 92833, Control_c, 0, 67, 92
1, 92848, Control_c, 0, 64, 59
1, 92863, Control_c, 0, 64, 58
1, 92863, Control_c, 0, 67, 92
1, 92864, Note_on_c, 0, 48, 36
1, 92878, Control_c, 0, 64, 57
1, 92893, Control_c, 0, 64, 56
1, 92907, Control_c, 0, 64, 56
1, 92922, Control_c, 0, 64, 55
1, 92937, Control_c, 0, 64, 52
1, 92952, Control_c, 0, 64, 48
1, 92967, Control_c, 0, 64, 44
1, 92981, Control_c, 0, 64, 39
1, 92996, Control_c, 0, 64, 33
1, 92996, Control_c, 0, 67, 92
1, 93011, Control_c, 0, 64, 0
1, 93070, Control_c, 0, 67, 91
1, 93187, Note_on_c, 0, 53, 40
1, 93226, Control_c, 0, 67, 91
1, 93233, Note_off_c, 0, 48, 56
1, 93241, Control_c, 0, 67, 90
1, 93390, Control_c, 0, 67, 90
1, 93419, Control_c, 0, 67, 89
1, 93464, Control_c, 0, 64, 31
1, 93508, Control_c, 0, 64, 34
1, 93522, Note_on_c, 0, 62, 42
1, 93523, Control_c, 0, 64, 39
1, 93538, Control_c, 0, 64, 44
1, 93552, Control_c, 0, 64, 47
1, 93567, Control_c, 0, 64, 50
1, 93582, Control_c, 0, 64, 54
1, 93582, Control_c, 0, 67, 89
1, 93596, Note_off_c, 0, 57, 42
1, 93597, Control_c, 0, 64, 58
1, 93611, Control_c, 0, 64, 61
1, 93626, Control_c, 0, 64, 62
1, 93641, Control_c, 0, 64, 63
1, 93656, Control_c, 0, 64, 65
1, 93671, Control_c, 0, 64, 66
1, 93671, Control_c, 0, 67, 88
1, 93686, Control_c, 0, 64, 67
1, 93700, Control_c, 0, 64, 67
1, 93715, Control_c, 0, 64, 68
1, 93856, Note_on_c, 0, 60, 52
1, 93864, Control_c, 0, 64, 67
1, 93875, Note_on_c, 0, 56, 36
1, 93878, Control_c, 0, 64, 67
1, 93900, Control_c, 0, 64, 66
1, 93915, Control_c, 0, 64, 66
1, 93930, Control_c, 0, 64, 65
1, 93935, Note_off_c, 0, 53, 37
1, 93945, Control_c, 0, 64, 65
1, 93957, Note_off_c, 0, 62, 39
1, 93960, Control_c, 0, 64, 64
1, 93975, Control_c, 0, 64, 63
1, 93990, Control_c, 0, 64, 62
1, 94004, Control_c, 0, 64, 61
1, 94034, Control_c, 0, 64, 61
1, 94049, Control_c, 0, 64, 60
1, 94064, Control_c, 0, 64, 59
1, 94139, Control_c, 0, 64, 59
1, 94154, Control_c, 0, 64, 58
1, 94168, Control_c, 0, 64, 58
1, 94194, Note_on_c, 0, 55, 41
1, 94198, Control_c, 0, 64, 57
1, 94213, Control_c, 0, 64, 56
1, 94227, Control_c, 0, 64, 55
1, 94228, Note_off_c, 0, 56, 50
1, 94242, Control_c, 0, 64, 53
1, 94257, Control_c, 0, 64, 53
1, 94272, Control_c, 0, 64, 52
1, 94287, Control_c, 0, 64, 50
1, 94301, Control_c, 0, 64, 47
1, 94316, Control_c, 0, 64, 42
1, 94331, Control_c, 0, 64, 33
1, 94346, Control_c, 0, 64, 0
1, 94535, Note_on_c, 0, 54, 35
1, 94604, Note_off_c, 0, 55, 56
1, 94916, Control_c, 0, 67, 88
1, 94922, Note_on_c, 0, 63, 36
1, 94932, Control_c, 0, 67, 87
1, 94994, Note_off_c, 0, 60, 60
1, 95006, Control_c, 0, 64, 34
1, 95021, Control_c, 0, 64, 41
1, 95036, Control_c, 0, 64, 49
1, 95050, Control_c, 0, 64, 56
1, 95050, Control_c, 0, 67, 87
1, 95065, Control_c, 0, 64, 61
1, 95080, Control_c, 0, 64, 63
1, 95080, Control_c, 0, 67, 86
1, 95095, Control_c, 0, 64, 65
1, 95110, Control_c, 0, 64, 67
1, 95124, Control_c, 0, 64, 69
1, 95124, Control_c, 0, 67, 86
1, 95139, Control_c, 0, 64, 74
1, 95154, Control_c, 0, 64, 80
1, 95154, Control_c, 0, 67, 85
1, 95169, Control_c, 0, 64, 87
1, 95183, Control_c, 0, 64, 93
1, 95198, Control_c, 0, 64, 98
1, 95213, Control_c, 0, 64, 102
1, 95228, Control_c, 0, 64, 104
1, 95243, Control_c, 0, 67, 85
1, 95271, Note_off_c, 0, 63, 58
1, 95392, Note_on_c, 0, 62, 66
1, 95438, Note_on_c, 0, 34, 41
1, 95487, Control_c, 0, 64, 101
1, 95502, Control_c, 0, 67, 84
1, 95517, Control_c, 0, 64, 98
1, 95531, Control_c, 0, 64, 96
1, 95546, Control_c, 0, 64, 95
1, 95561, Control_c, 0, 64, 94
1, 95561, Control_c, 0, 67, 84
1, 95575, Control_c, 0, 64, 94
1, 95575, Control_c, 0, 67, 83
1, 95590, Control_c, 0, 64, 92
1, 95605, Control_c, 0, 64, 91
1, 95620, Control_c, 0, 64, 89
1, 95635, Note_off_c, 0, 41, 40
1, 95635, Control_c, 0, 64, 88
1, 95635, Control_c, 0, 67, 83
1, 95650, Control_c, 0, 64, 87
1, 95665, Control_c, 0, 64, 86
1, 95680, Control_c, 0, 64, 82
1, 95680, Control_c, 0, 67, 82
1, 95695, Control_c, 0, 64, 76
1, 95709, Control_c, 0, 64, 69
1, 95725, Control_c, 0, 64, 63
1, 95740, Control_c, 0, 64, 57
1, 95749, Note_on_c, 0, 52, 41
1, 95754, Note_on_c, 0, 37, 38
1, 95754, Control_c, 0, 64, 55
1, 95769, Control_c, 0, 64, 55
1, 95769, Control_c, 0, 67, 82
1, 95770, Note_off_c, 0, 54, 43
1, 95784, Control_c, 0, 64, 57
1, 95799, Control_c, 0, 64, 60
1, 95814, Control_c, 0, 64, 62
1, 95814, Control_c, 0, 67, 81
1, 95829, Control_c, 0, 64, 65
1, 95844, Control_c, 0, 64, 68
1, 95859, Control_c, 0, 64, 71
1, 95873, Control_c, 0, 64, 74
1, 95888, Control_c, 0, 64, 76
1, 95888, Control_c, 0, 67, 81
1, 95903, Control_c, 0, 64, 77
1, 95918, Control_c, 0, 64, 79
1, 95918, Control_c, 0, 67, 80
1, 95933, Control_c, 0, 64, 81
1, 95947, Control_c, 0, 64, 83
1, 95962, Control_c, 0, 64, 85
1, 95975, Note_on_c, 0, 41, 43
1, 95977, Control_c, 0, 64, 87
1, 95978, Note_on_c, 0, 53, 51
1, 95983, Note_off_c, 0, 37, 39
1, 95992, Control_c, 0, 64, 88
1, 95992, Control_c, 0, 67, 80
1, 96006, Control_c, 0, 64, 89
1, 96021, Control_c, 0, 64, 90
1, 96028, Note_off_c, 0, 52, 34
1, 96036, Control_c, 0, 64, 91
1, 96051, Control_c, 0, 64, 92
1, 96066, Control_c, 0, 64, 92
1, 96080, Control_c, 0, 64, 93
1, 96082, Note_off_c, 0, 41, 60
1, 96095, Control_c, 0, 64, 94
1, 96110, Control_c, 0, 64, 94
1, 96125, Control_c, 0, 64, 95
1, 96140, Control_c, 0, 64, 95
1, 96162, Control_c, 0, 64, 96
1, 96175, Note_on_c, 0, 60, 70
1, 96221, Control_c, 0, 64, 94
1, 96236, Control_c, 0, 64, 87
1, 96251, Control_c, 0, 64, 83
1, 96266, Control_c, 0, 64, 82
1, 96280, Control_c, 0, 64, 82
1, 96295, Control_c, 0, 64, 84
1, 96295, Control_c, 0, 67, 79
1, 96310, Control_c, 0, 64, 87
1, 96324, Control_c, 0, 64, 91
1, 96339, Control_c, 0, 64, 99
1, 96339, Control_c, 0, 67, 79
1, 96353, Note_off_c, 0, 62, 54
1, 96354, Control_c, 0, 64, 110
1, 96368, Control_c, 0, 64, 127
1, 96368, Control_c, 0, 67, 78
1, 96383, Control_c, 0, 67, 77
1, 96391, Note_on_c, 0, 56, 53
1, 96398, Control_c, 0, 67, 77
1, 96401, Note_on_c, 0, 44, 44
1, 96428, Control_c, 0, 67, 76
1, 96434, Note_off_c, 0, 53, 45
1, 96443, Control_c, 0, 67, 76
1, 96472, Control_c, 0, 67, 75
1, 96517, Control_c, 0, 67, 74
1, 96532, Control_c, 0, 67, 74
1, 96544, Note_off_c, 0, 60, 62
1, 96547, Control_c, 0, 67, 73
1, 96562, Control_c, 0, 67, 72
1, 96577, Control_c, 0, 67, 68
1, 96592, Control_c, 0, 67, 63
1, 96597, Note_on_c, 0, 48, 50
1, 96601, Note_off_c, 0, 34, 39
1, 96607, Control_c, 0, 67, 58
1, 96607, Note_on_c, 0, 57, 58
1, 96621, Control_c, 0, 67, 54
1, 96636, Control_c, 0, 67, 50
1, 96646, Note_off_c, 0, 56, 56
1, 96651, Control_c, 0, 67, 46
1, 96654, Note_off_c, 0, 44, 58
1, 96666, Control_c, 0, 67, 43
1, 96681, Control_c, 0, 67, 40
1, 96695, Control_c, 0, 67, 36
1, 96710, Control_c, 0, 67, 31
1, 96725, Control_c, 0, 67, 27
1, 96728, Note_off_c, 0, 48, 51
1, 96739, Control_c, 0, 67, 23
1, 96754, Control_c, 0, 67, 20
1, 96769, Control_c, 0, 67, 0
1, 96778, Note_on_c, 0, 63, 73
1, 96988, Note_on_c, 0, 51, 51
1, 96994, Note_on_c, 0, 58, 64
1, 97002, Note_off_c, 0, 57, 60
1, 97164, Note_off_c, 0, 51, 59
1, 97179, Note_on_c, 0, 59, 62
1, 97185, Note_on_c, 0, 55, 44
1, 97203, Note_off_c, 0, 58, 61
1, 97208, Note_off_c, 0, 63, 57
1, 97340, Note_off_c, 0, 55, 46
1, 97365, Note_on_c, 0, 64, 78
1, 97381, Note_on_c, 0, 58, 51
1, 97418, Note_off_c, 0, 59, 56
1, 97523, Note_off_c, 0, 64, 60
1, 97534, Note_off_c, 0, 58, 62
1, 97547, Note_on_c, 0, 59, 63
1, 97657, Note_on_c, 0, 69, 84
1, 97665, Note_off_c, 0, 59, 61
1, 97671, Note_on_c, 0, 63, 71
1, 97753, Note_on_c, 0, 60, 68
1, 97792, Note_off_c, 0, 60, 63
1, 97971, Note_on_c, 0, 72, 80
1, 97996, Note_off_c, 0, 69, 61
1, 98000, Note_on_c, 0, 67, 70
1, 98088, Control_c, 0, 64, 93
1, 98103, Control_c, 0, 64, 75
1, 98119, Control_c, 0, 64, 60
1, 98134, Control_c, 0, 64, 48
1, 98148, Control_c, 0, 64, 45
1, 98161, Note_off_c, 0, 63, 60
1, 98163, Control_c, 0, 64, 49
1, 98178, Control_c, 0, 64, 58
1, 98191, Note_on_c, 0, 66, 73
1, 98193, Control_c, 0, 64, 66
1, 98208, Control_c, 0, 64, 73
1, 98222, Control_c, 0, 64, 84
1, 98237, Control_c, 0, 64, 90
1, 98252, Control_c, 0, 64, 94
1, 98267, Control_c, 0, 64, 97
1, 98282, Control_c, 0, 64, 101
1, 98297, Control_c, 0, 64, 108
1, 98312, Control_c, 0, 64, 121
1, 98327, Control_c, 0, 64, 127
1, 98377, Note_on_c, 0, 57, 79
1, 98449, Note_off_c, 0, 66, 60
1, 98574, Note_on_c, 0, 79, 99
1, 98599, Note_on_c, 0, 60, 66
1, 98611, Note_off_c, 0, 67, 36
1, 98623, Note_off_c, 0, 72, 61
1, 98715, Note_off_c, 0, 57, 44
1, 98806, Note_on_c, 0, 63, 74
1, 98845, Note_off_c, 0, 79, 63
1, 98908, Note_on_c, 0, 81, 101
1, 99020, Note_on_c, 0, 67, 81
1, 99038, Note_off_c, 0, 63, 60
1, 99041, Note_off_c, 0, 67, 72
1, 99054, Note_off_c, 0, 60, 0
1, 99054, Note_on_c, 0, 60, 3
1, 99082, Note_off_c, 0, 60, 57
1, 99362, Note_on_c, 0, 86, 102
1, 99364, Control_c, 0, 64, 102
1, 99367, Note_on_c, 0, 82, 94
1, 99379, Control_c, 0, 64, 69
1, 99382, Note_off_c, 0, 81, 64
1, 99383, Note_on_c, 0, 45, 83
1, 99384, Note_on_c, 0, 33, 85
1, 99394, Control_c, 0, 64, 0
1, 99542, Control_c, 0, 64, 42
1, 99557, Control_c, 0, 64, 75
1, 99559, Note_off_c, 0, 33, 64
1, 99572, Control_c, 0, 64, 127
1, 99594, Note_off_c, 0, 45, 65
1, 99716, Note_on_c, 0, 48, 82
1, 99804, Note_on_c, 0, 79, 97
1, 99837, Note_off_c, 0, 86, 57
1, 99862, Note_off_c, 0, 82, 55
1, 99928, Note_on_c, 0, 51, 75
1, 100104, Note_off_c, 0, 79, 68
1, 100106, Note_on_c, 0, 72, 91
1, 100125, Note_on_c, 0, 55, 65
1, 100159, Note_off_c, 0, 51, 57
1, 100213, Note_off_c, 0, 48, 60
1, 100282, Note_off_c, 0, 55, 62
1, 100311, Note_on_c, 0, 60, 70
1, 100381, Note_on_c, 0, 74, 91
1, 100406, Note_off_c, 0, 72, 63
1, 100493, Note_on_c, 0, 63, 79
1, 100497, Note_off_c, 0, 60, 59
1, 100533, Note_off_c, 0, 63, 60
1, 100796, Note_on_c, 0, 44, 71
1, 100796, Note_on_c, 0, 66, 81
1, 100803, Note_on_c, 0, 32, 69
1, 100863, Control_c, 0, 64, 101
1, 100877, Control_c, 0, 64, 86
1, 100892, Control_c, 0, 64, 70
1, 100907, Control_c, 0, 64, 49
1, 100921, Control_c, 0, 64, 0
1, 101113, Note_on_c, 0, 63, 75
1, 101218, Control_c, 0, 64, 44
1, 101224, Note_on_c, 0, 75, 83
1, 101232, Control_c, 0, 64, 55
1, 101247, Control_c, 0, 64, 58
1, 101254, Note_off_c, 0, 66, 60
1, 101262, Control_c, 0, 64, 60
1, 101269, Note_off_c, 0, 74, 60
1, 101277, Control_c, 0, 64, 63
1, 101292, Control_c, 0, 64, 65
1, 101300, Note_off_c, 0, 63, 59
1, 101308, Control_c, 0, 64, 67
1, 101323, Control_c, 0, 64, 69
1, 101337, Control_c, 0, 64, 70
1, 101352, Control_c, 0, 64, 73
1, 101364, Note_on_c, 0, 62, 71
1, 101367, Control_c, 0, 64, 77
1, 101389, Control_c, 0, 64, 80
1, 101404, Control_c, 0, 64, 82
1, 101418, Control_c, 0, 64, 83
1, 101448, Control_c, 0, 64, 84
1, 101463, Control_c, 0, 64, 84
1, 101478, Control_c, 0, 64, 85
1, 101537, Control_c, 0, 64, 84
1, 101560, Note_on_c, 0, 66, 90
1, 101567, Control_c, 0, 64, 83
1, 101582, Note_on_c, 0, 61, 61
1, 101582, Note_off_c, 0, 62, 61
1, 101582, Control_c, 0, 64, 80
1, 101597, Control_c, 0, 64, 74
1, 101612, Control_c, 0, 64, 65
1, 101626, Control_c, 0, 64, 56
1, 101627, Note_off_c, 0, 75, 61
1, 101641, Control_c, 0, 64, 40
1, 101656, Control_c, 0, 64, 0
1, 101806, Note_on_c, 0, 60, 61
1, 101818, Control_c, 0, 64, 39
1, 101833, Control_c, 0, 64, 54
1, 101848, Control_c, 0, 64, 61
1, 101848, Control_c, 0, 67, 19
1, 101862, Control_c, 0, 64, 65
1, 101875, Note_off_c, 0, 61, 38
1, 101877, Control_c, 0, 64, 68
1, 101892, Control_c, 0, 64, 71
1, 101907, Note_off_c, 0, 44, 62
1, 101907, Control_c, 0, 64, 75
1, 101922, Control_c, 0, 64, 78
1, 101937, Control_c, 0, 64, 82
1, 101952, Control_c, 0, 64, 86
1, 101966, Control_c, 0, 64, 90
1, 101973, Note_off_c, 0, 32, 53
1, 101981, Control_c, 0, 64, 95
1, 101981, Control_c, 0, 67, 22
1, 101996, Control_c, 0, 64, 102
1, 102011, Control_c, 0, 64, 113
1, 102011, Control_c, 0, 67, 24
1, 102026, Control_c, 0, 64, 127
1, 102047, Note_on_c, 0, 59, 59
1, 102095, Note_off_c, 0, 60, 62
1, 102383, Note_on_c, 0, 26, 71
1, 102393, Note_on_c, 0, 38, 71
1, 102394, Note_on_c, 0, 58, 60
1, 102449, Control_c, 0, 64, 110
1, 102464, Control_c, 0, 64, 100
1, 102479, Control_c, 0, 64, 91
1, 102485, Note_off_c, 0, 59, 58
1, 102493, Control_c, 0, 64, 81
1, 102508, Control_c, 0, 64, 70
1, 102523, Control_c, 0, 64, 60
1, 102538, Control_c, 0, 64, 39
1, 102553, Control_c, 0, 64, 0
1, 102685, Control_c, 0, 64, 50
1, 102700, Control_c, 0, 64, 61
1, 102715, Control_c, 0, 64, 66
1, 102730, Control_c, 0, 64, 69
1, 102745, Control_c, 0, 64, 71
1, 102759, Control_c, 0, 64, 72
1, 102774, Control_c, 0, 64, 72
1, 102819, Control_c, 0, 64, 72
1, 102831, Note_on_c, 0, 69, 77
1, 102834, Control_c, 0, 64, 71
1, 102849, Control_c, 0, 64, 68
1, 102851, Note_on_c, 0, 59, 57
1, 102864, Control_c, 0, 64, 63
1, 102879, Control_c, 0, 64, 56
1, 102900, Control_c, 0, 64, 47
1, 102916, Control_c, 0, 64, 35
1, 102917, Note_off_c, 0, 66, 59
1, 102931, Control_c, 0, 64, 32
1, 102942, Note_off_c, 0, 58, 28
1, 102946, Control_c, 0, 64, 37
1, 102961, Control_c, 0, 64, 47
1, 102976, Control_c, 0, 64, 57
1, 102990, Control_c, 0, 64, 63
1, 103005, Control_c, 0, 64, 67
1, 103020, Control_c, 0, 64, 72
1, 103035, Control_c, 0, 64, 76
1, 103050, Control_c, 0, 64, 77
1, 103064, Control_c, 0, 64, 78
1, 103168, Control_c, 0, 64, 77
1, 103183, Control_c, 0, 64, 76
1, 103198, Control_c, 0, 64, 73
1, 103207, Note_on_c, 0, 61, 74
1, 103212, Control_c, 0, 64, 69
1, 103217, Note_on_c, 0, 58, 67
1, 103227, Control_c, 0, 64, 63
1, 103242, Control_c, 0, 64, 52
1, 103257, Control_c, 0, 64, 0
1, 103284, Note_off_c, 0, 59, 58
1, 103327, Note_off_c, 0, 69, 59
1, 103331, Control_c, 0, 64, 41
1, 103346, Control_c, 0, 64, 57
1, 103361, Control_c, 0, 64, 64
1, 103376, Control_c, 0, 64, 66
1, 103390, Control_c, 0, 64, 68
1, 103405, Control_c, 0, 64, 69
1, 103420, Control_c, 0, 64, 69
1, 103479, Control_c, 0, 64, 69
1, 103494, Control_c, 0, 64, 67
1, 103508, Control_c, 0, 64, 64
1, 103523, Control_c, 0, 64, 60
1, 103538, Control_c, 0, 64, 51
1, 103549, Note_on_c, 0, 62, 74
1, 103553, Control_c, 0, 64, 39
1, 103567, Note_on_c, 0, 57, 62
1, 103568, Control_c, 0, 64, 0
1, 103575, Note_off_c, 0, 58, 57
1, 103591, Note_off_c, 0, 61, 58
1, 103597, Control_c, 0, 64, 31
1, 103612, Control_c, 0, 64, 46
1, 103627, Control_c, 0, 64, 57
1, 103649, Control_c, 0, 64, 63
1, 103664, Control_c, 0, 64, 67
1, 103679, Control_c, 0, 64, 70
1, 103694, Control_c, 0, 64, 73
1, 103709, Control_c, 0, 64, 76
1, 103716, Note_off_c, 0, 38, 51
1, 103725, Control_c, 0, 64, 77
1, 103739, Control_c, 0, 64, 78
1, 103754, Control_c, 0, 64, 78
1, 103769, Control_c, 0, 64, 79
1, 103784, Control_c, 0, 64, 80
1, 103799, Control_c, 0, 64, 80
1, 103843, Control_c, 0, 64, 80
1, 103858, Control_c, 0, 64, 79
1, 103872, Control_c, 0, 64, 78
1, 103887, Control_c, 0, 64, 76
1, 103892, Note_off_c, 0, 57, 39
1, 103902, Control_c, 0, 64, 72
1, 103917, Control_c, 0, 64, 66
1, 103929, Note_on_c, 0, 65, 76
1, 103931, Control_c, 0, 64, 61
1, 103936, Note_on_c, 0, 56, 57
1, 103944, Note_off_c, 0, 26, 32
1, 103946, Note_on_c, 0, 36, 48
1, 103946, Control_c, 0, 64, 54
1, 103951, Note_on_c, 0, 24, 51
1, 103961, Control_c, 0, 64, 45
1, 103971, Note_off_c, 0, 62, 60
1, 103976, Control_c, 0, 64, 0
1, 104139, Control_c, 0, 67, 26
1, 104154, Control_c, 0, 64, 42
1, 104169, Control_c, 0, 64, 54
1, 104183, Control_c, 0, 64, 60
1, 104213, Control_c, 0, 64, 56
1, 104228, Control_c, 0, 64, 45
1, 104243, Control_c, 0, 64, 0
1, 104328, Note_on_c, 0, 62, 70
1, 104330, Note_off_c, 0, 56, 61
1, 104336, Note_on_c, 0, 54, 62
1, 104361, Control_c, 0, 64, 35
1, 104376, Control_c, 0, 64, 54
1, 104385, Note_off_c, 0, 65, 63
1, 104398, Control_c, 0, 64, 61
1, 104413, Control_c, 0, 64, 64
1, 104428, Control_c, 0, 64, 66
1, 104441, Note_off_c, 0, 36, 55
1, 104443, Control_c, 0, 64, 69
1, 104458, Control_c, 0, 64, 73
1, 104464, Note_off_c, 0, 54, 59
1, 104472, Control_c, 0, 64, 77
1, 104478, Note_off_c, 0, 24, 52
1, 104487, Control_c, 0, 64, 80
1, 104502, Control_c, 0, 64, 83
1, 104518, Control_c, 0, 64, 85
1, 104533, Control_c, 0, 64, 88
1, 104548, Control_c, 0, 64, 91
1, 104562, Control_c, 0, 64, 93
1, 104577, Control_c, 0, 64, 93
1, 104587, Note_off_c, 0, 62, 37
1, 104607, Control_c, 0, 64, 94
1, 104769, Control_c, 0, 64, 93
1, 104779, Note_on_c, 0, 57, 73
1, 104784, Control_c, 0, 64, 92
1, 104789, Note_on_c, 0, 49, 63
1, 104796, Note_on_c, 0, 30, 52
1, 104797, Note_on_c, 0, 42, 49
1, 104799, Control_c, 0, 64, 89
1, 104814, Control_c, 0, 64, 85
1, 104829, Control_c, 0, 64, 80
1, 104843, Control_c, 0, 64, 73
1, 104858, Control_c, 0, 64, 66
1, 104873, Control_c, 0, 64, 58
1, 104888, Control_c, 0, 64, 49
1, 104903, Control_c, 0, 64, 42
1, 104918, Control_c, 0, 64, 45
1, 104932, Control_c, 0, 64, 51
1, 104947, Control_c, 0, 64, 57
1, 104962, Control_c, 0, 64, 58
1, 104977, Control_c, 0, 64, 57
1, 104977, Control_c, 0, 67, 29
1, 104992, Control_c, 0, 64, 55
1, 105006, Control_c, 0, 64, 52
1, 105021, Control_c, 0, 64, 50
1, 105022, Note_off_c, 0, 49, 60
1, 105036, Control_c, 0, 64, 49
1, 105051, Control_c, 0, 64, 47
1, 105066, Control_c, 0, 64, 44
1, 105080, Control_c, 0, 64, 39
1, 105087, Note_on_c, 0, 50, 50
1, 105095, Control_c, 0, 64, 31
1, 105110, Control_c, 0, 64, 0
1, 105239, Note_on_c, 0, 60, 68
1, 105294, Note_off_c, 0, 57, 60
1, 105311, Control_c, 0, 64, 35
1, 105326, Control_c, 0, 64, 42
1, 105341, Control_c, 0, 64, 47
1, 105356, Control_c, 0, 64, 51
1, 105371, Control_c, 0, 64, 54
1, 105385, Control_c, 0, 64, 56
1, 105389, Note_off_c, 0, 50, 58
1, 105400, Control_c, 0, 64, 58
1, 105403, Note_on_c, 0, 51, 54
1, 105415, Control_c, 0, 64, 58
1, 105444, Control_c, 0, 64, 58
1, 105459, Control_c, 0, 64, 57
1, 105474, Control_c, 0, 64, 56
1, 105489, Control_c, 0, 64, 56
1, 105504, Control_c, 0, 64, 55
1, 105518, Control_c, 0, 64, 53
1, 105533, Control_c, 0, 64, 52
1, 105548, Control_c, 0, 64, 50
1, 105563, Control_c, 0, 64, 49
1, 105578, Control_c, 0, 64, 47
1, 105592, Control_c, 0, 64, 46
1, 105607, Control_c, 0, 64, 43
1, 105622, Control_c, 0, 64, 39
1, 105636, Control_c, 0, 64, 34
1, 105651, Control_c, 0, 64, 0
1, 105731, Note_on_c, 0, 52, 52
1, 105777, Note_off_c, 0, 51, 56
1, 106301, Note_on_c, 0, 51, 34
1, 106325, Note_off_c, 0, 52, 38
1, 106505, Control_c, 0, 64, 39
1, 106520, Control_c, 0, 64, 55
1, 106534, Control_c, 0, 64, 61
1, 106549, Control_c, 0, 64, 64
1, 106564, Control_c, 0, 64, 66
1, 106578, Note_off_c, 0, 30, 51
1, 106579, Control_c, 0, 64, 69
1, 106594, Control_c, 0, 64, 72
1, 106603, Note_off_c, 0, 42, 56
1, 106608, Control_c, 0, 64, 76
1, 106623, Control_c, 0, 64, 80
1, 106646, Control_c, 0, 64, 82
1, 106660, Control_c, 0, 64, 85
1, 106675, Control_c, 0, 64, 86
1, 106690, Control_c, 0, 64, 87
1, 106690, Control_c, 0, 67, 31
1, 106705, Control_c, 0, 64, 88
1, 106705, Control_c, 0, 67, 33
1, 106720, Control_c, 0, 64, 89
1, 106720, Control_c, 0, 67, 40
1, 106734, Control_c, 0, 64, 89
1, 106734, Control_c, 0, 67, 45
1, 106749, Control_c, 0, 67, 48
1, 106764, Control_c, 0, 67, 50
1, 106779, Control_c, 0, 67, 52
1, 106793, Control_c, 0, 67, 55
1, 106808, Control_c, 0, 67, 58
1, 106823, Control_c, 0, 67, 61
1, 106838, Control_c, 0, 67, 65
1, 106853, Control_c, 0, 67, 67
1, 106867, Control_c, 0, 64, 89
1, 106867, Control_c, 0, 67, 69
1, 106882, Control_c, 0, 67, 69
1, 106913, Control_c, 0, 64, 88
1, 106943, Control_c, 0, 64, 88
1, 106957, Control_c, 0, 64, 86
1, 106972, Control_c, 0, 64, 85
1, 106987, Control_c, 0, 64, 84
1, 107002, Control_c, 0, 64, 83
1, 107017, Control_c, 0, 64, 82
1, 107031, Control_c, 0, 64, 80
1, 107033, Note_on_c, 0, 58, 50
1, 107046, Control_c, 0, 64, 79
1, 107046, Control_c, 0, 67, 69
1, 107057, Note_on_c, 0, 50, 37
1, 107061, Control_c, 0, 64, 77
1, 107067, Note_on_c, 0, 34, 27
1, 107076, Control_c, 0, 64, 76
1, 107091, Control_c, 0, 64, 74
1, 107106, Control_c, 0, 64, 72
1, 107120, Control_c, 0, 64, 70
1, 107135, Control_c, 0, 64, 68
1, 107150, Control_c, 0, 64, 67
1, 107163, Note_off_c, 0, 51, 38
1, 107165, Control_c, 0, 64, 65
1, 107165, Control_c, 0, 67, 68
1, 107180, Control_c, 0, 64, 64
1, 107195, Control_c, 0, 64, 61
1, 107209, Control_c, 0, 64, 59
1, 107209, Control_c, 0, 67, 67
1, 107224, Control_c, 0, 64, 57
1, 107235, Note_off_c, 0, 60, 54
1, 107239, Control_c, 0, 67, 67
1, 107254, Control_c, 0, 64, 56
1, 107269, Control_c, 0, 64, 53
1, 107269, Control_c, 0, 67, 66
1, 107283, Control_c, 0, 64, 48
1, 107298, Control_c, 0, 64, 40
1, 107313, Control_c, 0, 64, 34
1, 107328, Control_c, 0, 64, 0
1, 107372, Control_c, 0, 67, 65
1, 107454, Control_c, 0, 67, 65
1, 107498, Control_c, 0, 67, 64
1, 107543, Control_c, 0, 67, 64
1, 108032, Control_c, 0, 67, 63
1, 108062, Control_c, 0, 67, 63
1, 108173, Control_c, 0, 64, 37
1, 108188, Control_c, 0, 64, 47
1, 108188, Control_c, 0, 67, 63
1, 108203, Control_c, 0, 64, 53
1, 108203, Control_c, 0, 67, 64
1, 108217, Control_c, 0, 64, 57
1, 108217, Control_c, 0, 67, 65
1, 108232, Control_c, 0, 64, 62
1, 108232, Control_c, 0, 67, 67
1, 108247, Control_c, 0, 64, 65
1, 108247, Control_c, 0, 67, 68
1, 108262, Control_c, 0, 64, 67
1, 108262, Control_c, 0, 67, 69
1, 108277, Control_c, 0, 64, 69
1, 108277, Control_c, 0, 67, 70
1, 108292, Control_c, 0, 64, 72
1, 108292, Control_c, 0, 67, 72
1, 108306, Control_c, 0, 64, 74
1, 108306, Control_c, 0, 67, 77
1, 108321, Control_c, 0, 64, 76
1, 108321, Control_c, 0, 67, 88
1, 108336, Control_c, 0, 64, 78
1, 108336, Control_c, 0, 67, 100
1, 108350, Control_c, 0, 64, 80
1, 108350, Control_c, 0, 67, 111
1, 108364, Control_c, 0, 64, 82
1, 108364, Control_c, 0, 67, 119
1, 108379, Control_c, 0, 64, 84
1, 108379, Control_c, 0, 67, 127
1, 108394, Control_c, 0, 64, 86
1, 108404, Note_off_c, 0, 50, 40
1, 108409, Control_c, 0, 64, 87
1, 108424, Control_c, 0, 64, 88
1, 108438, Control_c, 0, 64, 90
1, 108452, Note_off_c, 0, 58, 58
1, 108453, Control_c, 0, 64, 92
1, 108468, Control_c, 0, 64, 94
1, 108483, Control_c, 0, 64, 97
1, 108498, Control_c, 0, 64, 99
1, 108543, Control_c, 0, 64, 102
1, 108558, Control_c, 0, 64, 104
1, 108573, Control_c, 0, 64, 106
1, 108602, Control_c, 0, 64, 108
1, 108715, Note_on_c, 0, 46, 46
1, 108795, Control_c, 0, 64, 105
1, 108810, Control_c, 0, 64, 103
1, 108825, Control_c, 0, 64, 100
1, 108840, Control_c, 0, 64, 98
1, 108854, Control_c, 0, 64, 95
1, 108876, Control_c, 0, 64, 92
1, 108891, Control_c, 0, 64, 88
1, 108906, Control_c, 0, 64, 85
1, 108921, Control_c, 0, 64, 82
1, 108936, Control_c, 0, 64, 79
1, 108951, Control_c, 0, 64, 75
1, 108966, Control_c, 0, 64, 71
1, 108980, Control_c, 0, 64, 66
1, 108995, Control_c, 0, 64, 59
1, 109010, Control_c, 0, 64, 49
1, 109025, Control_c, 0, 64, 0
1, 109308, Control_c, 0, 64, 34
1, 109323, Control_c, 0, 64, 44
1, 109338, Control_c, 0, 64, 50
1, 109352, Control_c, 0, 64, 54
1, 109354, Note_on_c, 0, 81, 47
1, 109367, Control_c, 0, 64, 56
1, 109382, Control_c, 0, 64, 58
1, 109397, Control_c, 0, 64, 60
1, 109411, Control_c, 0, 64, 62
1, 109426, Control_c, 0, 64, 64
1, 109441, Control_c, 0, 64, 65
1, 109456, Control_c, 0, 64, 67
1, 109471, Control_c, 0, 64, 69
1, 109485, Control_c, 0, 64, 72
1, 109500, Control_c, 0, 64, 75
1, 109515, Control_c, 0, 64, 78
1, 109530, Control_c, 0, 64, 82
1, 109545, Control_c, 0, 64, 87
1, 109559, Control_c, 0, 64, 91
1, 109574, Control_c, 0, 64, 96
1, 109589, Control_c, 0, 64, 102
1, 109604, Control_c, 0, 64, 108
1, 109618, Control_c, 0, 64, 115
1, 109641, Control_c, 0, 64, 127
1, 109671, Control_c, 0, 67, 122
1, 109685, Control_c, 0, 67, 115
1, 109700, Control_c, 0, 67, 111
1, 109713, Note_on_c, 0, 82, 54
1, 109715, Control_c, 0, 67, 107
1, 109730, Control_c, 0, 67, 104
1, 109745, Control_c, 0, 67, 102
1, 109774, Control_c, 0, 67, 99
1, 109801, Note_off_c, 0, 82, 60
1, 109803, Control_c, 0, 67, 96
1, 109818, Control_c, 0, 67, 95
1, 109833, Control_c, 0, 67, 94
1, 109923, Note_off_c, 0, 81, 42
1, 109994, Note_on_c, 0, 83, 58
1, 109998, Note_on_c, 0, 80, 46
1, 110024, Note_off_c, 0, 80, 56
1, 110026, Control_c, 0, 67, 95
1, 110041, Control_c, 0, 67, 96
1, 110116, Control_c, 0, 67, 98
1, 110190, Control_c, 0, 67, 100
1, 110279, Control_c, 0, 64, 118
1, 110287, Note_on_c, 0, 86, 65
1, 110294, Control_c, 0, 64, 114
1, 110308, Note_off_c, 0, 83, 49
1, 110308, Control_c, 0, 64, 111
1, 110321, Note_on_c, 0, 79, 53
1, 110323, Control_c, 0, 64, 107
1, 110338, Control_c, 0, 64, 102
1, 110352, Control_c, 0, 64, 94
1, 110367, Control_c, 0, 64, 86
1, 110390, Control_c, 0, 64, 77
1, 110405, Control_c, 0, 64, 71
1, 110420, Control_c, 0, 64, 67
1, 110434, Control_c, 0, 64, 65
1, 110464, Control_c, 0, 64, 66
1, 110479, Control_c, 0, 64, 68
1, 110494, Control_c, 0, 64, 69
1, 110508, Control_c, 0, 64, 70
1, 110538, Control_c, 0, 64, 70
1, 110552, Control_c, 0, 64, 72
1, 110567, Control_c, 0, 64, 75
1, 110582, Control_c, 0, 64, 79
1, 110596, Control_c, 0, 64, 82
1, 110599, Note_off_c, 0, 79, 42
1, 110611, Control_c, 0, 64, 83
1, 110613, Note_on_c, 0, 83, 63
1, 110625, Control_c, 0, 64, 85
1, 110640, Control_c, 0, 64, 86
1, 110655, Control_c, 0, 64, 88
1, 110664, Note_off_c, 0, 86, 52
1, 110670, Control_c, 0, 64, 91
1, 110685, Control_c, 0, 64, 94
1, 110699, Control_c, 0, 64, 96
1, 110729, Control_c, 0, 64, 98
1, 110773, Control_c, 0, 64, 100
1, 110870, Note_on_c, 0, 79, 50
1, 110885, Note_off_c, 0, 83, 49
1, 110961, Note_off_c, 0, 79, 63
1, 111157, Note_on_c, 0, 74, 45
1, 111300, Control_c, 0, 67, 102
1, 111392, Note_on_c, 0, 82, 66
1, 111431, Note_on_c, 0, 73, 39
1, 111434, Control_c, 0, 64, 98
1, 111437, Note_off_c, 0, 74, 41
1, 111464, Control_c, 0, 64, 95
1, 111479, Control_c, 0, 64, 92
1, 111493, Control_c, 0, 64, 87
1, 111496, Note_off_c, 0, 73, 0
1, 111496, Note_on_c, 0, 73, 7
1, 111508, Control_c, 0, 64, 79
1, 111523, Control_c, 0, 64, 71
1, 111538, Control_c, 0, 64, 64
1, 111553, Control_c, 0, 64, 58
1, 111568, Control_c, 0, 64, 56
1, 111582, Control_c, 0, 64, 59
1, 111597, Control_c, 0, 64, 62
1, 111612, Control_c, 0, 64, 66
1, 111627, Control_c, 0, 64, 68
1, 111641, Control_c, 0, 64, 71
1, 111656, Control_c, 0, 64, 73
1, 111671, Control_c, 0, 64, 76
1, 111678, Note_on_c, 0, 78, 59
1, 111686, Control_c, 0, 64, 81
1, 111702, Control_c, 0, 64, 85
1, 111716, Note_off_c, 0, 82, 56
1, 111717, Control_c, 0, 64, 88
1, 111730, Note_off_c, 0, 73, 53
1, 111732, Control_c, 0, 64, 91
1, 111746, Control_c, 0, 64, 93
1, 111761, Control_c, 0, 64, 95
1, 111776, Control_c, 0, 64, 97
1, 111790, Control_c, 0, 64, 101
1, 111805, Control_c, 0, 64, 105
1, 111820, Control_c, 0, 64, 109
1, 111835, Control_c, 0, 64, 111
1, 111887, Control_c, 0, 64, 113
1, 111917, Control_c, 0, 64, 115
1, 111938, Note_on_c, 0, 70, 45
1, 111956, Note_off_c, 0, 78, 54
1, 112079, Control_c, 0, 64, 117
1, 112102, Note_off_c, 0, 70, 37
1, 112177, Note_on_c, 0, 61, 37
1, 112346, Control_c, 0, 64, 114
1, 112376, Control_c, 0, 64, 111
1, 112405, Control_c, 0, 64, 109
1, 112420, Control_c, 0, 64, 107
1, 112435, Control_c, 0, 64, 105
1, 112445, Note_on_c, 0, 75, 52
1, 112450, Control_c, 0, 64, 102
1, 112465, Note_off_c, 0, 61, 39
1, 112465, Control_c, 0, 64, 99
1, 112479, Control_c, 0, 64, 95
1, 112483, Note_on_c, 0, 66, 33
1, 112495, Control_c, 0, 64, 93
1, 112510, Control_c, 0, 64, 88
1, 112525, Control_c, 0, 64, 82
1, 112539, Control_c, 0, 64, 76
1, 112554, Control_c, 0, 64, 71
1, 112569, Control_c, 0, 64, 66
1, 112584, Control_c, 0, 64, 63
1, 112599, Control_c, 0, 64, 62
1, 112620, Control_c, 0, 64, 63
1, 112635, Control_c, 0, 64, 65
1, 112650, Control_c, 0, 64, 67
1, 112665, Control_c, 0, 64, 69
1, 112680, Control_c, 0, 64, 72
1, 112695, Control_c, 0, 64, 74
1, 112710, Control_c, 0, 64, 74
1, 112725, Control_c, 0, 64, 75
1, 112739, Control_c, 0, 64, 76
1, 112752, Note_on_c, 0, 71, 56
1, 112754, Control_c, 0, 64, 77
1, 112769, Control_c, 0, 64, 78
1, 112784, Control_c, 0, 64, 80
1, 112799, Control_c, 0, 64, 81
1, 112814, Control_c, 0, 64, 82
1, 112828, Control_c, 0, 64, 84
1, 112838, Note_off_c, 0, 75, 58
1, 112843, Control_c, 0, 64, 85
1, 112858, Control_c, 0, 64, 86
1, 112873, Control_c, 0, 64, 87
1, 112888, Control_c, 0, 64, 89
1, 112902, Control_c, 0, 64, 90
1, 112917, Control_c, 0, 64, 91
1, 112932, Control_c, 0, 64, 93
1, 112946, Control_c, 0, 64, 93
1, 112961, Control_c, 0, 64, 94
1, 112976, Control_c, 0, 64, 95
1, 112991, Control_c, 0, 64, 96
1, 113020, Control_c, 0, 64, 98
1, 113022, Note_on_c, 0, 63, 35
1, 113105, Note_off_c, 0, 66, 36
1, 113109, Control_c, 0, 64, 100
1, 113110, Note_off_c, 0, 63, 62
1, 113284, Note_on_c, 0, 59, 41
1, 113577, Control_c, 0, 64, 96
1, 113592, Control_c, 0, 64, 91
1, 113607, Control_c, 0, 64, 85
1, 113621, Note_on_c, 0, 65, 44
1, 113622, Control_c, 0, 64, 80
1, 113637, Control_c, 0, 64, 75
1, 113651, Control_c, 0, 64, 72
1, 113666, Control_c, 0, 64, 70
1, 113695, Control_c, 0, 64, 72
1, 113701, Note_off_c, 0, 71, 48
1, 113710, Control_c, 0, 64, 74
1, 113725, Control_c, 0, 64, 77
1, 113732, Note_off_c, 0, 59, 34
1, 113740, Control_c, 0, 64, 80
1, 113755, Control_c, 0, 64, 82
1, 113769, Control_c, 0, 64, 85
1, 113784, Control_c, 0, 64, 88
1, 113799, Control_c, 0, 64, 91
1, 113814, Control_c, 0, 64, 94
1, 113829, Control_c, 0, 64, 97
1, 113843, Control_c, 0, 64, 99
1, 113858, Control_c, 0, 64, 101
1, 113861, Note_off_c, 0, 65, 36
1, 113888, Control_c, 0, 64, 104
1, 113959, Note_on_c, 0, 66, 61
1, 113977, Control_c, 0, 64, 106
1, 114012, Note_off_c, 0, 46, 45
1, 114252, Note_on_c, 0, 67, 62
1, 114287, Note_on_c, 0, 46, 52
1, 114373, Note_off_c, 0, 34, 41
1, 114525, Note_on_c, 0, 68, 70
1, 114529, Note_off_c, 0, 66, 58
1, 114537, Note_off_c, 0, 67, 60
1, 114545, Note_on_c, 0, 65, 57
1, 114563, Control_c, 0, 67, 104
1, 114658, Note_on_c, 0, 34, 53
1, 114681, Control_c, 0, 67, 106
1, 114722, Note_off_c, 0, 34, 48
1, 114725, Control_c, 0, 64, 102
1, 114740, Control_c, 0, 64, 100
1, 114755, Control_c, 0, 64, 98
1, 114755, Control_c, 0, 67, 109
1, 114770, Control_c, 0, 64, 96
1, 114785, Control_c, 0, 64, 94
1, 114799, Control_c, 0, 64, 92
1, 114799, Control_c, 0, 67, 111
1, 114814, Control_c, 0, 64, 91
1, 114829, Control_c, 0, 64, 89
1, 114844, Control_c, 0, 64, 88
1, 114859, Control_c, 0, 64, 87
1, 114881, Control_c, 0, 64, 85
1, 114897, Control_c, 0, 64, 84
1, 114912, Control_c, 0, 64, 82
1, 114926, Note_on_c, 0, 71, 62
1, 114927, Control_c, 0, 64, 80
1, 114927, Control_c, 0, 67, 113
1, 114942, Control_c, 0, 64, 79
1, 114951, Note_off_c, 0, 68, 58
1, 114956, Note_off_c, 0, 65, 35
1, 114956, Control_c, 0, 64, 77
1, 114956, Control_c, 0, 67, 115
1, 114957, Note_on_c, 0, 64, 40
1, 114971, Control_c, 0, 64, 75
1, 114971, Control_c, 0, 67, 119
1, 114986, Control_c, 0, 64, 73
1, 114986, Control_c, 0, 67, 121
1, 114996, Note_on_c, 0, 34, 29
1, 115001, Control_c, 0, 64, 70
1, 115016, Control_c, 0, 64, 67
1, 115030, Control_c, 0, 64, 64
1, 115045, Control_c, 0, 64, 61
1, 115060, Control_c, 0, 64, 58
1, 115075, Control_c, 0, 64, 54
1, 115090, Control_c, 0, 64, 47
1, 115090, Control_c, 0, 67, 123
1, 115104, Control_c, 0, 64, 38
1, 115119, Control_c, 0, 64, 0
1, 115267, Control_c, 0, 64, 38
1, 115282, Control_c, 0, 64, 44
1, 115288, Note_on_c, 0, 68, 60
1, 115297, Control_c, 0, 64, 51
1, 115312, Control_c, 0, 64, 56
1, 115327, Control_c, 0, 64, 59
1, 115337, Note_off_c, 0, 64, 49
1, 115341, Control_c, 0, 64, 62
1, 115356, Control_c, 0, 64, 64
1, 115365, Note_off_c, 0, 71, 52
1, 115371, Control_c, 0, 64, 66
1, 115386, Control_c, 0, 64, 68
1, 115401, Control_c, 0, 64, 70
1, 115415, Control_c, 0, 64, 72
1, 115430, Control_c, 0, 64, 74
1, 115445, Control_c, 0, 64, 76
1, 115459, Control_c, 0, 64, 79
1, 115474, Control_c, 0, 64, 82
1, 115489, Control_c, 0, 64, 84
1, 115504, Control_c, 0, 64, 85
1, 115519, Control_c, 0, 64, 86
1, 115533, Control_c, 0, 64, 87
1, 115534, Note_on_c, 0, 64, 41
1, 115548, Control_c, 0, 64, 88
1, 115563, Control_c, 0, 64, 90
1, 115578, Control_c, 0, 64, 91
1, 115593, Control_c, 0, 64, 92
1, 115608, Control_c, 0, 64, 92
1, 115629, Note_off_c, 0, 64, 56
1, 115630, Control_c, 0, 64, 93
1, 115645, Control_c, 0, 64, 93
1, 115660, Control_c, 0, 64, 94
1, 115674, Control_c, 0, 64, 95
1, 115689, Control_c, 0, 64, 96
1, 115807, Note_on_c, 0, 59, 39
1, 116045, Control_c, 0, 64, 95
1, 116055, Note_on_c, 0, 67, 54
1, 116060, Control_c, 0, 64, 94
1, 116072, Note_off_c, 0, 59, 36
1, 116075, Control_c, 0, 64, 92
1, 116090, Control_c, 0, 64, 91
1, 116093, Note_on_c, 0, 58, 39
1, 116105, Control_c, 0, 64, 89
1, 116120, Control_c, 0, 64, 88
1, 116135, Control_c, 0, 64, 86
1, 116144, Note_off_c, 0, 68, 43
1, 116150, Control_c, 0, 64, 84
1, 116164, Control_c, 0, 64, 80
1, 116179, Control_c, 0, 64, 75
1, 116194, Control_c, 0, 64, 70
1, 116209, Control_c, 0, 64, 66
1, 116224, Control_c, 0, 64, 59
1, 116238, Control_c, 0, 64, 47
1, 116253, Control_c, 0, 64, 0
1, 116327, Control_c, 0, 64, 32
1, 116341, Note_on_c, 0, 63, 61
1, 116342, Control_c, 0, 64, 39
1, 116364, Control_c, 0, 64, 45
1, 116379, Control_c, 0, 64, 51
1, 116394, Control_c, 0, 64, 57
1, 116409, Note_off_c, 0, 67, 56
1, 116409, Control_c, 0, 64, 62
1, 116424, Control_c, 0, 64, 64
1, 116438, Control_c, 0, 64, 66
1, 116453, Control_c, 0, 64, 66
1, 116468, Control_c, 0, 64, 67
1, 116483, Control_c, 0, 64, 69
1, 116498, Control_c, 0, 64, 71
1, 116513, Control_c, 0, 64, 74
1, 116528, Control_c, 0, 64, 78
1, 116543, Control_c, 0, 64, 81
1, 116558, Control_c, 0, 64, 83
1, 116573, Control_c, 0, 64, 86
1, 116588, Control_c, 0, 64, 87
1, 116596, Note_off_c, 0, 58, 58
1, 116603, Control_c, 0, 64, 88
1, 116618, Control_c, 0, 64, 89
1, 116621, Note_on_c, 0, 55, 44
1, 116632, Control_c, 0, 64, 91
1, 116644, Note_off_c, 0, 63, 59
1, 116647, Control_c, 0, 64, 92
1, 116662, Control_c, 0, 64, 94
1, 116677, Control_c, 0, 64, 94
1, 116692, Control_c, 0, 64, 95
1, 116707, Control_c, 0, 64, 96
1, 116857, Note_off_c, 0, 55, 58
1, 116865, Note_on_c, 0, 51, 48
1, 117002, Control_c, 0, 64, 95
1, 117017, Control_c, 0, 64, 93
1, 117032, Control_c, 0, 64, 92
1, 117047, Control_c, 0, 64, 91
1, 117062, Control_c, 0, 64, 90
1, 117077, Control_c, 0, 64, 89
1, 117092, Control_c, 0, 64, 87
1, 117106, Control_c, 0, 64, 85
1, 117128, Control_c, 0, 64, 83
1, 117129, Note_on_c, 0, 61, 50
1, 117143, Control_c, 0, 64, 82
1, 117158, Control_c, 0, 64, 80
1, 117159, Note_on_c, 0, 52, 41
1, 117173, Control_c, 0, 64, 77
1, 117188, Control_c, 0, 64, 75
1, 117202, Control_c, 0, 64, 72
1, 117207, Note_off_c, 0, 51, 36
1, 117217, Control_c, 0, 64, 70
1, 117232, Control_c, 0, 64, 68
1, 117247, Control_c, 0, 64, 67
1, 117261, Control_c, 0, 64, 64
1, 117276, Control_c, 0, 64, 61
1, 117292, Control_c, 0, 64, 58
1, 117307, Control_c, 0, 64, 55
1, 117322, Control_c, 0, 64, 52
1, 117336, Control_c, 0, 64, 49
1, 117351, Control_c, 0, 64, 46
1, 117366, Control_c, 0, 64, 40
1, 117381, Control_c, 0, 64, 36
1, 117396, Control_c, 0, 64, 30
1, 117411, Control_c, 0, 64, 0
1, 117428, Note_on_c, 0, 57, 54
1, 117544, Note_off_c, 0, 61, 50
1, 117677, Control_c, 0, 64, 31
1, 117686, Note_on_c, 0, 49, 43
1, 117692, Control_c, 0, 64, 40
1, 117707, Control_c, 0, 64, 48
1, 117722, Note_off_c, 0, 52, 34
1, 117722, Control_c, 0, 64, 55
1, 117736, Control_c, 0, 64, 58
1, 117751, Control_c, 0, 64, 60
1, 117766, Control_c, 0, 64, 61
1, 117781, Control_c, 0, 64, 63
1, 117796, Control_c, 0, 64, 65
1, 117810, Control_c, 0, 64, 67
1, 117825, Control_c, 0, 64, 69
1, 117840, Control_c, 0, 64, 71
1, 117855, Control_c, 0, 64, 74
1, 117877, Control_c, 0, 64, 76
1, 117892, Control_c, 0, 64, 79
1, 117907, Control_c, 0, 64, 81
1, 117922, Control_c, 0, 64, 83
1, 117937, Control_c, 0, 64, 85
1, 117951, Control_c, 0, 64, 85
1, 117966, Control_c, 0, 64, 86
1, 117974, Note_on_c, 0, 52, 52
1, 117981, Control_c, 0, 64, 87
1, 117996, Control_c, 0, 64, 87
1, 118031, Note_off_c, 0, 46, 32
1, 118044, Note_off_c, 0, 34, 36
1, 118049, Note_off_c, 0, 49, 53
1, 118174, Control_c, 0, 64, 87
1, 118189, Control_c, 0, 64, 86
1, 118204, Control_c, 0, 64, 85
1, 118219, Control_c, 0, 64, 84
1, 118233, Control_c, 0, 64, 84
1, 118248, Control_c, 0, 64, 82
1, 118263, Control_c, 0, 64, 79
1, 118278, Control_c, 0, 64, 77
1, 118291, Note_on_c, 0, 33, 67
1, 118293, Control_c, 0, 64, 75
1, 118302, Note_on_c, 0, 45, 51
1, 118308, Control_c, 0, 64, 73
1, 118323, Control_c, 0, 64, 70
1, 118338, Control_c, 0, 64, 67
1, 118352, Control_c, 0, 64, 64
1, 118367, Control_c, 0, 64, 57
1, 118382, Control_c, 0, 64, 50
1, 118397, Control_c, 0, 64, 39
1, 118409, Note_off_c, 0, 45, 0
1, 118409, Note_on_c, 0, 45, 3
1, 118412, Control_c, 0, 64, 0
1, 118565, Note_on_c, 0, 53, 44
1, 118574, Control_c, 0, 64, 35
1, 118589, Control_c, 0, 64, 46
1, 118589, Control_c, 0, 67, 121
1, 118604, Control_c, 0, 64, 55
1, 118626, Control_c, 0, 64, 60
1, 118641, Control_c, 0, 64, 62
1, 118651, Note_off_c, 0, 45, 42
1, 118656, Control_c, 0, 64, 64
1, 118657, Note_off_c, 0, 52, 50
1, 118671, Control_c, 0, 64, 66
1, 118686, Control_c, 0, 64, 68
1, 118700, Control_c, 0, 64, 70
1, 118715, Control_c, 0, 64, 74
1, 118715, Control_c, 0, 67, 119
1, 118730, Control_c, 0, 64, 78
1, 118745, Control_c, 0, 64, 82
1, 118760, Control_c, 0, 64, 86
1, 118774, Control_c, 0, 64, 89
1, 118789, Control_c, 0, 64, 94
1, 118804, Control_c, 0, 64, 100
1, 118804, Control_c, 0, 67, 117
1, 118818, Control_c, 0, 64, 107
1, 118823, Note_off_c, 0, 33, 26
1, 118833, Control_c, 0, 64, 115
1, 118835, Note_on_c, 0, 54, 57
1, 118848, Control_c, 0, 64, 127
1, 118863, Control_c, 0, 67, 115
1, 118918, Note_off_c, 0, 53, 60
1, 118923, Control_c, 0, 67, 113
1, 118953, Control_c, 0, 67, 111
1, 119012, Control_c, 0, 67, 109
1, 119071, Control_c, 0, 67, 107
1, 119099, Note_on_c, 0, 55, 58
1, 119130, Note_off_c, 0, 54, 62
1, 119145, Control_c, 0, 67, 105
1, 119390, Control_c, 0, 64, 107
1, 119405, Control_c, 0, 64, 87
1, 119420, Control_c, 0, 64, 72
1, 119435, Control_c, 0, 64, 60
1, 119437, Note_on_c, 0, 56, 61
1, 119443, Note_on_c, 0, 32, 75
1, 119445, Note_off_c, 0, 55, 53
1, 119449, Note_on_c, 0, 44, 68
1, 119449, Control_c, 0, 64, 49
1, 119464, Control_c, 0, 64, 53
1, 119479, Control_c, 0, 64, 60
1, 119488, Note_off_c, 0, 57, 62
1, 119494, Control_c, 0, 64, 67
1, 119509, Control_c, 0, 64, 77
1, 119523, Control_c, 0, 64, 91
1, 119526, Note_off_c, 0, 56, 61
1, 119538, Control_c, 0, 64, 111
1, 119538, Control_c, 0, 67, 103
1, 119553, Control_c, 0, 64, 127
1, 119553, Control_c, 0, 67, 100
1, 119568, Control_c, 0, 67, 93
1, 119583, Control_c, 0, 67, 87
1, 119597, Control_c, 0, 67, 80
1, 119612, Control_c, 0, 67, 74
1, 119627, Control_c, 0, 67, 68
1, 119641, Control_c, 0, 67, 64
1, 119656, Control_c, 0, 67, 62
1, 119761, Control_c, 0, 67, 62
1, 119776, Control_c, 0, 67, 63
1, 119791, Control_c, 0, 67, 63
1, 119806, Control_c, 0, 67, 64
1, 119813, Note_on_c, 0, 79, 77
1, 119820, Control_c, 0, 67, 65
1, 119835, Control_c, 0, 64, 99
1, 119835, Control_c, 0, 67, 65
1, 119850, Control_c, 0, 64, 83
1, 119850, Control_c, 0, 67, 66
1, 119864, Control_c, 0, 64, 65
1, 119879, Control_c, 0, 64, 39
1, 119894, Control_c, 0, 64, 0
1, 120013, Control_c, 0, 67, 65
1, 120043, Control_c, 0, 64, 30
1, 120043, Control_c, 0, 67, 64
1, 120057, Control_c, 0, 64, 61
1, 120072, Control_c, 0, 64, 68
1, 120087, Control_c, 0, 64, 74
1, 120099, Note_on_c, 0, 80, 84
1, 120109, Control_c, 0, 64, 79
1, 120109, Control_c, 0, 67, 63
1, 120124, Control_c, 0, 64, 87
1, 120124, Control_c, 0, 67, 62
1, 120138, Control_c, 0, 64, 98
1, 120138, Control_c, 0, 67, 62
1, 120153, Control_c, 0, 64, 126
1, 120153, Control_c, 0, 67, 61
1, 120155, Note_off_c, 0, 32, 58
1, 120168, Control_c, 0, 67, 60
1, 120173, Note_off_c, 0, 44, 59
1, 120183, Control_c, 0, 67, 59
1, 120198, Control_c, 0, 67, 55
1, 120213, Control_c, 0, 67, 50
1, 120227, Control_c, 0, 67, 46
1, 120242, Control_c, 0, 67, 41
1, 120257, Control_c, 0, 67, 35
1, 120272, Control_c, 0, 67, 29
1, 120287, Control_c, 0, 67, 21
1, 120302, Control_c, 0, 67, 0
1, 120356, Note_on_c, 0, 81, 91
1, 120368, Note_on_c, 0, 78, 75
1, 120384, Note_off_c, 0, 79, 65
1, 120397, Note_off_c, 0, 80, 62
1, 120683, Note_off_c, 0, 78, 60
1, 120701, Note_on_c, 0, 84, 90
1, 120710, Note_on_c, 0, 77, 68
1, 120711, Note_on_c, 0, 72, 91
1, 120728, Note_on_c, 0, 60, 73
1, 120744, Note_off_c, 0, 81, 63
1, 120761, Note_off_c, 0, 72, 65
1, 120763, Note_off_c, 0, 60, 61
1, 121040, Note_on_c, 0, 80, 78
1, 121155, Note_off_c, 0, 84, 64
1, 121298, Note_off_c, 0, 77, 63
1, 121301, Note_on_c, 0, 76, 69
1, 121548, Note_off_c, 0, 76, 62
1, 121561, Note_on_c, 0, 68, 66
1, 121768, Note_on_c, 0, 75, 61
1, 121827, Note_on_c, 0, 74, 64
1, 121864, Note_off_c, 0, 75, 60
1, 121876, Note_off_c, 0, 80, 62
1, 121942, Note_off_c, 0, 74, 62
1, 122088, Note_on_c, 0, 75, 62
1, 122103, Note_off_c, 0, 68, 54
1, 122365, Note_on_c, 0, 76, 62
1, 122371, Control_c, 0, 67, 19
1, 122430, Control_c, 0, 67, 23
1, 122445, Control_c, 0, 67, 25
1, 122456, Note_off_c, 0, 75, 57
1, 122475, Control_c, 0, 67, 27
1, 122505, Control_c, 0, 67, 29
1, 122520, Control_c, 0, 67, 31
1, 122534, Control_c, 0, 67, 34
1, 122549, Control_c, 0, 67, 38
1, 122564, Control_c, 0, 67, 42
1, 122578, Control_c, 0, 67, 46
1, 122588, Note_off_c, 0, 76, 60
1, 122592, Control_c, 0, 67, 50
1, 122607, Control_c, 0, 67, 53
1, 122609, Note_on_c, 0, 77, 60
1, 122617, Note_on_c, 0, 74, 52
1, 122622, Control_c, 0, 67, 56
1, 122637, Control_c, 0, 67, 58
1, 122652, Control_c, 0, 67, 60
1, 122666, Control_c, 0, 67, 63
1, 122681, Control_c, 0, 67, 66
1, 122696, Control_c, 0, 67, 69
1, 122711, Control_c, 0, 67, 72
1, 122726, Control_c, 0, 67, 76
1, 122740, Control_c, 0, 67, 79
1, 122755, Control_c, 0, 67, 83
1, 122770, Control_c, 0, 67, 87
1, 122785, Control_c, 0, 67, 90
1, 122800, Control_c, 0, 67, 94
1, 122815, Control_c, 0, 67, 97
1, 122830, Control_c, 0, 67, 99
1, 122859, Control_c, 0, 64, 117
1, 122875, Control_c, 0, 64, 107
1, 122884, Note_off_c, 0, 74, 40
1, 122889, Control_c, 0, 64, 94
1, 122904, Control_c, 0, 64, 81
1, 122917, Note_on_c, 0, 80, 72
1, 122919, Control_c, 0, 64, 68
1, 122934, Control_c, 0, 64, 58
1, 122945, Note_on_c, 0, 73, 52
1, 122945, Note_off_c, 0, 77, 59
1, 122949, Control_c, 0, 64, 46
1, 122960, Note_on_c, 0, 32, 45
1, 122962, Note_on_c, 0, 44, 44
1, 122964, Control_c, 0, 64, 47
1, 122979, Control_c, 0, 64, 54
1, 122994, Control_c, 0, 64, 62
1, 123009, Control_c, 0, 64, 69
1, 123021, Note_off_c, 0, 44, 54
1, 123024, Control_c, 0, 64, 75
1, 123038, Control_c, 0, 64, 82
1, 123043, Note_off_c, 0, 32, 47
1, 123053, Control_c, 0, 64, 87
1, 123068, Control_c, 0, 64, 92
1, 123083, Control_c, 0, 64, 98
1, 123105, Control_c, 0, 64, 105
1, 123120, Control_c, 0, 64, 116
1, 123135, Control_c, 0, 64, 127
1, 123229, Note_on_c, 0, 77, 58
1, 123290, Note_off_c, 0, 80, 60
1, 123307, Note_off_c, 0, 73, 37
1, 123372, Control_c, 0, 67, 97
1, 123446, Control_c, 0, 67, 95
1, 123458, Note_on_c, 0, 72, 59
1, 123461, Control_c, 0, 67, 95
1, 123476, Control_c, 0, 67, 94
1, 123490, Control_c, 0, 67, 93
1, 123505, Control_c, 0, 67, 93
1, 123520, Control_c, 0, 67, 92
1, 123550, Control_c, 0, 67, 92
1, 123564, Control_c, 0, 67, 91
1, 123684, Control_c, 0, 67, 92
1, 123693, Note_off_c, 0, 72, 58
1, 123698, Control_c, 0, 67, 93
1, 123713, Control_c, 0, 67, 94
1, 123728, Control_c, 0, 67, 96
1, 123731, Note_on_c, 0, 65, 37
1, 123758, Control_c, 0, 67, 98
1, 123787, Control_c, 0, 67, 101
1, 123817, Control_c, 0, 67, 104
1, 123831, Control_c, 0, 67, 112
1, 123854, Control_c, 0, 67, 122
1, 123869, Control_c, 0, 67, 127
1, 123917, Note_on_c, 0, 72, 44
1, 123958, Control_c, 0, 64, 106
1, 123973, Control_c, 0, 64, 90
1, 123986, Note_on_c, 0, 71, 55
1, 123987, Control_c, 0, 64, 77
1, 123994, Note_on_c, 0, 62, 67
1, 124002, Control_c, 0, 64, 67
1, 124016, Note_off_c, 0, 72, 53
1, 124017, Control_c, 0, 64, 62
1, 124021, Note_on_c, 0, 50, 42
1, 124031, Control_c, 0, 64, 63
1, 124046, Control_c, 0, 64, 66
1, 124049, Note_off_c, 0, 77, 41
1, 124061, Control_c, 0, 64, 70
1, 124077, Control_c, 0, 64, 75
1, 124092, Control_c, 0, 64, 78
1, 124106, Control_c, 0, 64, 80
1, 124121, Control_c, 0, 64, 81
1, 124136, Control_c, 0, 64, 82
1, 124165, Control_c, 0, 64, 83
1, 124210, Control_c, 0, 64, 82
1, 124240, Control_c, 0, 64, 82
1, 124255, Control_c, 0, 64, 81
1, 124276, Note_on_c, 0, 52, 42
1, 124299, Control_c, 0, 64, 81
1, 124329, Control_c, 0, 64, 80
1, 124344, Control_c, 0, 64, 80
1, 124388, Control_c, 0, 64, 79
1, 124403, Control_c, 0, 64, 79
1, 124418, Control_c, 0, 64, 78
1, 124432, Control_c, 0, 64, 77
1, 124447, Control_c, 0, 64, 76
1, 124462, Control_c, 0, 64, 74
1, 124478, Control_c, 0, 64, 70
1, 124493, Control_c, 0, 64, 65
1, 124508, Control_c, 0, 64, 60
1, 124522, Note_on_c, 0, 56, 39
1, 124522, Control_c, 0, 64, 58
1, 124526, Note_off_c, 0, 52, 37
1, 124537, Control_c, 0, 64, 59
1, 124552, Control_c, 0, 64, 62
1, 124567, Control_c, 0, 64, 64
1, 124582, Control_c, 0, 64, 65
1, 124603, Control_c, 0, 64, 67
1, 124618, Control_c, 0, 64, 67
1, 124621, Note_off_c, 0, 62, 36
1, 124633, Control_c, 0, 64, 69
1, 124648, Control_c, 0, 64, 71
1, 124663, Control_c, 0, 64, 72
1, 124678, Control_c, 0, 64, 74
1, 124693, Control_c, 0, 64, 74
1, 124726, Note_off_c, 0, 71, 48
1, 124747, Note_off_c, 0, 65, 58
1, 124754, Note_on_c, 0, 53, 40
1, 124899, Control_c, 0, 64, 74
1, 124913, Control_c, 0, 64, 73
1, 124928, Control_c, 0, 64, 73
1, 124943, Control_c, 0, 64, 72
1, 124958, Control_c, 0, 64, 71
1, 124972, Control_c, 0, 64, 70
1, 124987, Control_c, 0, 64, 69
1, 125002, Control_c, 0, 64, 68
1, 125012, Note_on_c, 0, 60, 44
1, 125017, Control_c, 0, 64, 67
1, 125032, Control_c, 0, 64, 66
1, 125047, Control_c, 0, 64, 64
1, 125061, Control_c, 0, 64, 64
1, 125072, Note_off_c, 0, 56, 42
1, 125076, Control_c, 0, 64, 63
1, 125089, Note_off_c, 0, 53, 36
1, 125091, Control_c, 0, 64, 61
1, 125106, Control_c, 0, 64, 58
1, 125121, Control_c, 0, 64, 55
1, 125135, Control_c, 0, 64, 49
1, 125150, Control_c, 0, 64, 43
1, 125165, Control_c, 0, 64, 38
1, 125179, Control_c, 0, 64, 36
1, 125209, Control_c, 0, 64, 38
1, 125224, Control_c, 0, 64, 42
1, 125239, Control_c, 0, 64, 49
1, 125243, Note_on_c, 0, 62, 37
1, 125253, Control_c, 0, 64, 54
1, 125268, Control_c, 0, 64, 56
1, 125284, Control_c, 0, 64, 57
1, 125299, Control_c, 0, 64, 58
1, 125323, Note_off_c, 0, 62, 62
1, 125329, Control_c, 0, 64, 58
1, 125344, Note_on_c, 0, 63, 50
1, 125344, Control_c, 0, 64, 59
1, 125366, Control_c, 0, 64, 60
1, 125417, Note_off_c, 0, 63, 62
1, 125440, Control_c, 0, 64, 60
1, 125456, Note_on_c, 0, 64, 50
1, 125470, Control_c, 0, 64, 59
1, 125484, Control_c, 0, 64, 58
1, 125499, Control_c, 0, 64, 57
1, 125514, Control_c, 0, 64, 55
1, 125528, Note_off_c, 0, 64, 52
1, 125529, Control_c, 0, 64, 54
1, 125544, Control_c, 0, 64, 52
1, 125551, Note_on_c, 0, 67, 57
1, 125558, Control_c, 0, 64, 51
1, 125573, Control_c, 0, 64, 50
1, 125588, Control_c, 0, 64, 49
1, 125602, Control_c, 0, 64, 49
1, 125617, Note_off_c, 0, 60, 53
1, 125617, Note_off_c, 0, 67, 50
1, 125632, Control_c, 0, 64, 50
1, 125647, Control_c, 0, 64, 51
1, 125649, Note_on_c, 0, 56, 26
1, 125656, Note_on_c, 0, 66, 57
1, 125662, Control_c, 0, 64, 53
1, 125677, Control_c, 0, 64, 53
1, 125691, Control_c, 0, 64, 52
1, 125706, Note_off_c, 0, 66, 61
1, 125706, Control_c, 0, 64, 52
1, 125721, Control_c, 0, 64, 51
1, 125739, Note_on_c, 0, 68, 60
1, 125751, Control_c, 0, 64, 51
1, 125766, Control_c, 0, 64, 50
1, 125781, Control_c, 0, 64, 49
1, 125795, Control_c, 0, 64, 48
1, 125815, Note_off_c, 0, 68, 58
1, 125840, Control_c, 0, 64, 49
1, 125852, Note_on_c, 0, 59, 41
1, 125855, Control_c, 0, 64, 49
1, 125861, Note_on_c, 0, 65, 51
1, 125870, Control_c, 0, 64, 50
1, 125884, Control_c, 0, 64, 51
1, 125885, Note_off_c, 0, 56, 47
1, 125899, Control_c, 0, 64, 53
1, 125914, Control_c, 0, 64, 55
1, 125927, Note_off_c, 0, 65, 53
1, 125928, Control_c, 0, 64, 58
1, 125943, Control_c, 0, 64, 59
1, 125954, Note_on_c, 0, 69, 44
1, 125958, Control_c, 0, 64, 59
1, 125973, Control_c, 0, 64, 60
1, 125988, Control_c, 0, 64, 60
1, 125997, Note_off_c, 0, 69, 46
1, 126002, Control_c, 0, 64, 61
1, 126017, Control_c, 0, 64, 61
1, 126043, Note_on_c, 0, 68, 54
1, 126062, Control_c, 0, 64, 61
1, 126077, Note_off_c, 0, 68, 66
1, 126115, Control_c, 0, 64, 60
1, 126130, Control_c, 0, 64, 60
1, 126133, Note_on_c, 0, 70, 53
1, 126145, Control_c, 0, 64, 59
1, 126159, Control_c, 0, 64, 58
1, 126174, Control_c, 0, 64, 56
1, 126189, Control_c, 0, 64, 52
1, 126204, Control_c, 0, 64, 49
1, 126207, Note_off_c, 0, 70, 58
1, 126219, Control_c, 0, 64, 47
1, 126224, Note_on_c, 0, 52, 39
1, 126240, Note_on_c, 0, 67, 49
1, 126248, Control_c, 0, 64, 50
1, 126260, Note_off_c, 0, 59, 42
1, 126263, Control_c, 0, 64, 53
1, 126278, Control_c, 0, 64, 57
1, 126293, Control_c, 0, 64, 60
1, 126297, Note_off_c, 0, 52, 0
1, 126297, Note_on_c, 0, 52, 3
1, 126307, Control_c, 0, 64, 62
1, 126317, Note_off_c, 0, 67, 56
1, 126322, Control_c, 0, 64, 63
1, 126330, Note_on_c, 0, 71, 50
1, 126337, Control_c, 0, 64, 65
1, 126351, Control_c, 0, 64, 66
1, 126366, Control_c, 0, 64, 68
1, 126381, Control_c, 0, 64, 69
1, 126388, Note_off_c, 0, 52, 59
1, 126392, Note_off_c, 0, 71, 61
1, 126396, Control_c, 0, 64, 70
1, 126409, Note_on_c, 0, 70, 62
1, 126411, Control_c, 0, 64, 71
1, 126425, Control_c, 0, 64, 72
1, 126440, Note_off_c, 0, 70, 64
1, 126497, Note_on_c, 0, 72, 54
1, 126544, Control_c, 0, 64, 71
1, 126554, Note_off_c, 0, 72, 57
1, 126559, Control_c, 0, 64, 68
1, 126574, Control_c, 0, 64, 64
1, 126589, Control_c, 0, 64, 60
1, 126593, Note_on_c, 0, 53, 40
1, 126600, Note_on_c, 0, 69, 55
1, 126604, Control_c, 0, 64, 56
1, 126633, Control_c, 0, 64, 59
1, 126648, Control_c, 0, 64, 62
1, 126663, Control_c, 0, 64, 64
1, 126678, Control_c, 0, 64, 66
1, 126679, Note_off_c, 0, 69, 40
1, 126689, Note_on_c, 0, 73, 66
1, 126692, Control_c, 0, 64, 67
1, 126707, Control_c, 0, 64, 66
1, 126722, Control_c, 0, 64, 64
1, 126737, Control_c, 0, 64, 61
1, 126751, Control_c, 0, 64, 60
1, 126766, Control_c, 0, 64, 59
1, 126767, Note_on_c, 0, 56, 49
1, 126767, Note_off_c, 0, 73, 61
1, 126785, Note_on_c, 0, 72, 59
1, 126796, Control_c, 0, 64, 60
1, 126811, Control_c, 0, 64, 61
1, 126815, Note_off_c, 0, 72, 67
1, 126825, Control_c, 0, 64, 63
1, 126840, Control_c, 0, 64, 64
1, 126863, Control_c, 0, 64, 65
1, 126874, Note_on_c, 0, 74, 54
1, 126893, Control_c, 0, 64, 65
1, 126911, Note_off_c, 0, 74, 65
1, 126921, Note_off_c, 0, 53, 29
1, 126937, Control_c, 0, 64, 62
1, 126952, Control_c, 0, 64, 57
1, 126967, Control_c, 0, 64, 55
1, 126970, Note_on_c, 0, 59, 40
1, 126970, Note_on_c, 0, 71, 55
1, 126982, Control_c, 0, 64, 58
1, 126997, Control_c, 0, 64, 62
1, 127012, Control_c, 0, 64, 65
1, 127015, Note_off_c, 0, 71, 56
1, 127027, Control_c, 0, 64, 67
1, 127044, Note_on_c, 0, 75, 58
1, 127087, Control_c, 0, 64, 66
1, 127101, Control_c, 0, 64, 63
1, 127108, Note_off_c, 0, 75, 59
1, 127116, Control_c, 0, 64, 59
1, 127129, Note_off_c, 0, 59, 62
1, 127131, Control_c, 0, 64, 60
1, 127137, Note_on_c, 0, 74, 63
1, 127139, Note_off_c, 0, 50, 42
1, 127146, Control_c, 0, 64, 64
1, 127151, Note_off_c, 0, 56, 41
1, 127159, Note_on_c, 0, 62, 55
1, 127161, Control_c, 0, 64, 68
1, 127174, Note_off_c, 0, 74, 62
1, 127175, Control_c, 0, 64, 72
1, 127190, Control_c, 0, 64, 74
1, 127205, Control_c, 0, 64, 75
1, 127216, Note_on_c, 0, 76, 69
1, 127264, Control_c, 0, 64, 74
1, 127273, Note_off_c, 0, 76, 60
1, 127279, Control_c, 0, 64, 71
1, 127294, Control_c, 0, 64, 66
1, 127309, Control_c, 0, 64, 61
1, 127310, Note_on_c, 0, 73, 70
1, 127319, Note_off_c, 0, 62, 58
1, 127323, Control_c, 0, 64, 58
1, 127327, Note_on_c, 0, 65, 60
1, 127338, Control_c, 0, 64, 59
1, 127353, Control_c, 0, 64, 62
1, 127358, Note_off_c, 0, 73, 55
1, 127367, Control_c, 0, 64, 66
1, 127382, Control_c, 0, 64, 69
1, 127397, Control_c, 0, 64, 68
1, 127400, Note_on_c, 0, 77, 63
1, 127412, Control_c, 0, 64, 62
1, 127425, Note_off_c, 0, 65, 60
1, 127427, Control_c, 0, 64, 52
1, 127442, Control_c, 0, 64, 50
1, 127456, Control_c, 0, 64, 56
1, 127457, Note_off_c, 0, 77, 63
1, 127471, Control_c, 0, 64, 62
1, 127486, Control_c, 0, 64, 67
1, 127490, Note_on_c, 0, 76, 69
1, 127501, Control_c, 0, 64, 68
1, 127510, Note_on_c, 0, 62, 24
1, 127516, Control_c, 0, 64, 69
1, 127546, Control_c, 0, 64, 69
1, 127555, Note_off_c, 0, 76, 57
1, 127560, Control_c, 0, 64, 70
1, 127568, Note_on_c, 0, 78, 68
1, 127575, Control_c, 0, 64, 72
1, 127597, Control_c, 0, 64, 73
1, 127612, Control_c, 0, 64, 75
1, 127627, Control_c, 0, 64, 76
1, 127638, Note_off_c, 0, 62, 45
1, 127642, Control_c, 0, 64, 77
1, 127645, Note_on_c, 0, 59, 45
1, 127669, Note_on_c, 0, 75, 66
1, 127675, Note_off_c, 0, 59, 63
1, 127687, Note_off_c, 0, 78, 55
1, 127687, Control_c, 0, 64, 77
1, 127702, Control_c, 0, 64, 78
1, 127720, Note_off_c, 0, 75, 56
1, 127732, Control_c, 0, 64, 78
1, 127751, Note_on_c, 0, 76, 75
1, 127776, Control_c, 0, 64, 79
1, 127791, Control_c, 0, 64, 80
1, 127805, Control_c, 0, 64, 81
1, 127820, Control_c, 0, 64, 82
1, 127835, Control_c, 0, 64, 83
1, 127836, Note_off_c, 0, 76, 37
1, 127837, Note_on_c, 0, 77, 71
1, 127842, Note_on_c, 0, 44, 66
1, 127850, Control_c, 0, 64, 85
1, 127865, Control_c, 0, 64, 86
1, 127873, Note_off_c, 0, 44, 65
1, 127879, Control_c, 0, 64, 88
1, 127894, Control_c, 0, 64, 90
1, 127909, Control_c, 0, 64, 93
1, 127920, Note_on_c, 0, 78, 75
1, 127924, Control_c, 0, 64, 95
1, 127939, Control_c, 0, 64, 99
1, 127942, Note_off_c, 0, 77, 61
1, 127954, Control_c, 0, 64, 102
1, 127969, Control_c, 0, 64, 104
1, 127979, Note_off_c, 0, 78, 65
1, 128028, Control_c, 0, 64, 91
1, 128037, Note_on_c, 0, 81, 81
1, 128043, Control_c, 0, 64, 70
1, 128043, Note_on_c, 0, 30, 71
1, 128047, Note_on_c, 0, 42, 64
1, 128058, Control_c, 0, 64, 51
1, 128072, Control_c, 0, 64, 0
1, 128081, Note_on_c, 0, 74, 41
1, 128109, Note_off_c, 0, 74, 52
1, 128151, Note_on_c, 0, 78, 78
1, 128179, Note_off_c, 0, 81, 62
1, 128191, Control_c, 0, 64, 46
1, 128205, Control_c, 0, 64, 63
1, 128220, Control_c, 0, 64, 67
1, 128229, Note_on_c, 0, 69, 76
1, 128235, Control_c, 0, 64, 74
1, 128250, Control_c, 0, 64, 80
1, 128265, Control_c, 0, 64, 87
1, 128279, Control_c, 0, 64, 94
1, 128287, Note_off_c, 0, 78, 56
1, 128294, Note_off_c, 0, 69, 59
1, 128294, Control_c, 0, 64, 100
1, 128301, Note_on_c, 0, 74, 79
1, 128309, Control_c, 0, 64, 103
1, 128321, Note_off_c, 0, 74, 71
1, 128376, Control_c, 0, 64, 98
1, 128391, Control_c, 0, 64, 86
1, 128405, Control_c, 0, 64, 72
1, 128420, Control_c, 0, 64, 60
1, 128422, Note_on_c, 0, 84, 91
1, 128435, Control_c, 0, 64, 0
1, 128447, Note_on_c, 0, 75, 49
1, 128481, Control_c, 0, 64, 31
1, 128494, Note_off_c, 0, 75, 0
1, 128495, Control_c, 0, 64, 57
1, 128509, Note_on_c, 0, 75, 35
1, 128510, Control_c, 0, 64, 68
1, 128519, Note_on_c, 0, 80, 85
1, 128525, Control_c, 0, 64, 76
1, 128533, Note_off_c, 0, 75, 57
1, 128540, Control_c, 0, 64, 83
1, 128545, Note_off_c, 0, 84, 63
1, 128554, Control_c, 0, 64, 86
1, 128569, Control_c, 0, 64, 89
1, 128584, Control_c, 0, 64, 91
1, 128599, Control_c, 0, 64, 93
1, 128610, Note_on_c, 0, 72, 79
1, 128614, Control_c, 0, 64, 95
1, 128643, Control_c, 0, 64, 97
1, 128684, Note_off_c, 0, 72, 57
1, 128684, Note_on_c, 0, 75, 66
1, 128688, Note_off_c, 0, 80, 63
1, 128711, Note_off_c, 0, 75, 68
1, 128732, Control_c, 0, 64, 92
1, 128747, Control_c, 0, 64, 81
1, 128762, Control_c, 0, 64, 67
1, 128777, Control_c, 0, 64, 50
1, 128787, Note_on_c, 0, 81, 87
1, 128792, Control_c, 0, 64, 0
1, 128805, Note_on_c, 0, 74, 62
1, 128823, Note_off_c, 0, 74, 63
1, 128851, Control_c, 0, 64, 33
1, 128866, Control_c, 0, 64, 55
1, 128872, Note_off_c, 0, 81, 61
1, 128872, Note_on_c, 0, 78, 81
1, 128881, Control_c, 0, 64, 63
1, 128895, Control_c, 0, 64, 67
1, 128910, Control_c, 0, 64, 71
1, 128925, Control_c, 0, 64, 76
1, 128940, Control_c, 0, 64, 82
1, 128952, Note_on_c, 0, 74, 68
1, 128954, Control_c, 0, 64, 90
1, 128969, Control_c, 0, 64, 99
1, 128984, Control_c, 0, 64, 109
1, 128999, Control_c, 0, 64, 126
1, 129004, Note_off_c, 0, 74, 65
1, 129039, Note_on_c, 0, 69, 71
1, 129049, Note_off_c, 0, 78, 62
1, 129076, Note_off_c, 0, 69, 56
1, 129110, Control_c, 0, 64, 106
1, 129125, Control_c, 0, 64, 89
1, 129140, Control_c, 0, 64, 71
1, 129154, Control_c, 0, 64, 59
1, 129155, Note_on_c, 0, 77, 70
1, 129169, Control_c, 0, 64, 34
1, 129184, Control_c, 0, 64, 0
1, 129188, Note_on_c, 0, 68, 48
1, 129248, Note_off_c, 0, 68, 59
1, 129258, Control_c, 0, 64, 31
1, 129265, Note_on_c, 0, 73, 75
1, 129272, Note_off_c, 0, 77, 61
1, 129274, Control_c, 0, 64, 50
1, 129289, Control_c, 0, 64, 60
1, 129304, Control_c, 0, 64, 64
1, 129318, Control_c, 0, 64, 65
1, 129333, Control_c, 0, 64, 66
1, 129348, Control_c, 0, 64, 67
1, 129363, Control_c, 0, 64, 68
1, 129372, Note_on_c, 0, 68, 58
1, 129377, Control_c, 0, 64, 70
1, 129392, Control_c, 0, 64, 70
1, 129398, Note_off_c, 0, 68, 60
1, 129401, Note_off_c, 0, 73, 61
1, 129407, Control_c, 0, 64, 71
1, 129433, Note_on_c, 0, 65, 67
1, 129481, Control_c, 0, 64, 70
1, 129495, Control_c, 0, 64, 69
1, 129502, Note_off_c, 0, 65, 61
1, 129510, Control_c, 0, 64, 64
1, 129525, Control_c, 0, 64, 47
1, 129527, Note_on_c, 0, 72, 73
1, 129540, Control_c, 0, 64, 0
1, 129569, Note_on_c, 0, 63, 46
1, 129599, Control_c, 0, 64, 48
1, 129614, Control_c, 0, 64, 62
1, 129622, Note_off_c, 0, 72, 62
1, 129624, Note_on_c, 0, 68, 72
1, 129629, Control_c, 0, 64, 69
1, 129644, Control_c, 0, 64, 73
1, 129659, Control_c, 0, 64, 77
1, 129660, Note_off_c, 0, 63, 59
1, 129674, Control_c, 0, 64, 80
1, 129689, Control_c, 0, 64, 84
1, 129692, Note_off_c, 0, 68, 64
1, 129703, Control_c, 0, 64, 88
1, 129707, Note_on_c, 0, 60, 67
1, 129718, Control_c, 0, 64, 90
1, 129733, Control_c, 0, 64, 91
1, 129744, Note_off_c, 0, 60, 63
1, 129763, Control_c, 0, 64, 90
1, 129777, Control_c, 0, 64, 86
1, 129782, Note_on_c, 0, 56, 77
1, 129792, Control_c, 0, 64, 81
1, 129807, Control_c, 0, 64, 73
1, 129822, Control_c, 0, 64, 63
1, 129831, Note_off_c, 0, 56, 60
1, 129837, Control_c, 0, 64, 47
1, 129859, Control_c, 0, 64, 0
1, 129881, Note_on_c, 0, 64, 79
1, 129928, Note_on_c, 0, 57, 17
1, 129973, Note_off_c, 0, 57, 28
1, 129980, Note_on_c, 0, 61, 77
1, 129986, Note_off_c, 0, 64, 60
1, 129992, Control_c, 0, 64, 36
1, 130007, Control_c, 0, 64, 58
1, 130022, Control_c, 0, 64, 66
1, 130037, Control_c, 0, 64, 71
1, 130051, Control_c, 0, 64, 75
1, 130067, Control_c, 0, 64, 76
1, 130067, Note_on_c, 0, 57, 58
1, 130082, Control_c, 0, 64, 74
1, 130097, Control_c, 0, 64, 67
1, 130112, Control_c, 0, 64, 54
1, 130117, Note_off_c, 0, 57, 63
1, 130126, Control_c, 0, 64, 0
1, 130160, Note_on_c, 0, 52, 59
1, 130193, Note_off_c, 0, 61, 57
1, 130218, Note_off_c, 0, 52, 56
1, 130237, Note_on_c, 0, 60, 70
1, 130255, Note_on_c, 0, 51, 55
1, 130260, Control_c, 0, 64, 38
1, 130274, Control_c, 0, 64, 49
1, 130289, Control_c, 0, 64, 59
1, 130304, Control_c, 0, 64, 63
1, 130309, Note_off_c, 0, 42, 63
1, 130318, Note_off_c, 0, 30, 63
1, 130318, Control_c, 0, 64, 65
1, 130333, Control_c, 0, 64, 66
1, 130337, Note_off_c, 0, 60, 64
1, 130339, Note_on_c, 0, 56, 65
1, 130345, Note_off_c, 0, 51, 61
1, 130363, Control_c, 0, 64, 67
1, 130378, Control_c, 0, 64, 67
1, 130392, Control_c, 0, 64, 68
1, 130400, Note_off_c, 0, 56, 61
1, 130435, Note_on_c, 0, 48, 56
1, 130467, Control_c, 0, 64, 67
1, 130474, Note_off_c, 0, 48, 64
1, 130482, Control_c, 0, 64, 67
1, 130488, Note_on_c, 0, 45, 67
1, 130497, Control_c, 0, 64, 66
1, 130511, Control_c, 0, 64, 64
1, 130526, Control_c, 0, 64, 61
1, 130534, Note_off_c, 0, 45, 62
1, 130541, Control_c, 0, 64, 57
1, 130556, Control_c, 0, 64, 52
1, 130571, Control_c, 0, 64, 46
1, 130592, Control_c, 0, 64, 38
1, 130603, Note_on_c, 0, 53, 61
1, 130607, Control_c, 0, 64, 31
1, 130622, Control_c, 0, 64, 32
1, 130637, Control_c, 0, 64, 37
1, 130638, Note_on_c, 0, 44, 45
1, 130652, Control_c, 0, 64, 45
1, 130667, Control_c, 0, 64, 51
1, 130681, Control_c, 0, 64, 55
1, 130684, Note_off_c, 0, 44, 58
1, 130687, Note_on_c, 0, 49, 54
1, 130696, Control_c, 0, 64, 57
1, 130697, Note_off_c, 0, 53, 56
1, 130711, Control_c, 0, 64, 59
1, 130726, Control_c, 0, 64, 61
1, 130741, Control_c, 0, 64, 63
1, 130756, Control_c, 0, 64, 65
1, 130764, Note_on_c, 0, 41, 44
1, 130771, Control_c, 0, 64, 66
1, 130786, Control_c, 0, 64, 66
1, 130795, Note_off_c, 0, 49, 63
1, 130800, Control_c, 0, 64, 68
1, 130815, Control_c, 0, 64, 69
1, 130830, Control_c, 0, 64, 69
1, 130866, Note_on_c, 0, 37, 56
1, 130871, Note_off_c, 0, 41, 52
1, 130890, Control_c, 0, 64, 69
1, 130920, Control_c, 0, 64, 68
1, 130935, Control_c, 0, 64, 67
1, 130939, Note_off_c, 0, 37, 62
1, 130949, Control_c, 0, 64, 66
1, 130964, Control_c, 0, 64, 65
1, 130979, Control_c, 0, 64, 64
1, 130994, Control_c, 0, 64, 62
1, 130994, Note_on_c, 0, 36, 70
1, 131009, Control_c, 0, 64, 59
1, 131023, Control_c, 0, 64, 54
1, 131038, Control_c, 0, 64, 49
1, 131053, Control_c, 0, 64, 42
1, 131068, Control_c, 0, 64, 0
1, 131087, Note_on_c, 0, 56, 60
1, 131176, Note_on_c, 0, 62, 47
1, 131182, Note_on_c, 0, 65, 51
1, 131186, Control_c, 0, 64, 31
1, 131201, Control_c, 0, 64, 44
1, 131206, Note_off_c, 0, 56, 53
1, 131215, Control_c, 0, 64, 56
1, 131230, Control_c, 0, 64, 60
1, 131245, Control_c, 0, 64, 62
1, 131260, Control_c, 0, 64, 63
1, 131275, Note_on_c, 0, 70, 58
1, 131275, Control_c, 0, 64, 63
1, 131282, Note_off_c, 0, 65, 63
1, 131290, Control_c, 0, 64, 64
1, 131293, Note_off_c, 0, 62, 61
1, 131305, Control_c, 0, 64, 65
1, 131319, Control_c, 0, 64, 66
1, 131356, Control_c, 0, 64, 65
1, 131371, Control_c, 0, 64, 65
1, 131379, Note_on_c, 0, 35, 80
1, 131386, Control_c, 0, 64, 64
1, 131401, Control_c, 0, 64, 63
1, 131415, Control_c, 0, 64, 62
1, 131430, Control_c, 0, 64, 60
1, 131445, Control_c, 0, 64, 56
1, 131460, Control_c, 0, 64, 49
1, 131474, Control_c, 0, 64, 38
1, 131485, Note_on_c, 0, 57, 61
1, 131489, Control_c, 0, 64, 0
1, 131504, Control_c, 0, 67, 125
1, 131506, Note_off_c, 0, 36, 59
1, 131519, Control_c, 0, 67, 119
1, 131534, Control_c, 0, 67, 110
1, 131549, Control_c, 0, 67, 99
1, 131555, Note_off_c, 0, 70, 63
1, 131564, Control_c, 0, 67, 89
1, 131579, Note_off_c, 0, 57, 61
1, 131579, Control_c, 0, 67, 80
1, 131587, Note_on_c, 0, 63, 47
1, 131594, Control_c, 0, 67, 73
1, 131599, Note_on_c, 0, 66, 54
1, 131609, Control_c, 0, 64, 44
1, 131609, Control_c, 0, 67, 67
1, 131623, Control_c, 0, 64, 54
1, 131623, Control_c, 0, 67, 60
1, 131638, Note_off_c, 0, 63, 61
1, 131638, Control_c, 0, 64, 57
1, 131638, Control_c, 0, 67, 51
1, 131650, Note_on_c, 0, 71, 61
1, 131653, Control_c, 0, 64, 59
1, 131653, Control_c, 0, 67, 41
1, 131665, Note_off_c, 0, 66, 60
1, 131669, Control_c, 0, 64, 60
1, 131669, Control_c, 0, 67, 31
1, 131684, Control_c, 0, 64, 60
1, 131684, Control_c, 0, 67, 20
1, 131698, Control_c, 0, 64, 61
1, 131698, Control_c, 0, 67, 0
1, 131743, Control_c, 0, 64, 60
1, 131755, Note_on_c, 0, 38, 86
1, 131758, Control_c, 0, 64, 60
1, 131773, Control_c, 0, 64, 58
1, 131787, Control_c, 0, 64, 56
1, 131802, Control_c, 0, 64, 53
1, 131817, Control_c, 0, 64, 48
1, 131832, Control_c, 0, 64, 39
1, 131847, Control_c, 0, 64, 0
1, 131850, Note_on_c, 0, 56, 60
1, 131922, Note_off_c, 0, 71, 59
1, 131934, Note_on_c, 0, 62, 61
1, 131936, Control_c, 0, 64, 30
1, 131942, Note_on_c, 0, 65, 67
1, 131951, Note_off_c, 0, 56, 56
1, 131951, Control_c, 0, 64, 47
1, 131965, Control_c, 0, 64, 58
1, 131980, Control_c, 0, 64, 63
1, 131995, Control_c, 0, 64, 65
1, 132005, Note_off_c, 0, 35, 46
1, 132010, Control_c, 0, 64, 67
1, 132025, Note_off_c, 0, 62, 60
1, 132025, Control_c, 0, 64, 68
1, 132038, Note_on_c, 0, 70, 70
1, 132039, Control_c, 0, 64, 68
1, 132044, Note_off_c, 0, 65, 64
1, 132054, Control_c, 0, 64, 69
1, 132069, Control_c, 0, 64, 69
1, 132119, Note_on_c, 0, 39, 91
1, 132121, Control_c, 0, 64, 69
1, 132136, Control_c, 0, 64, 67
1, 132151, Control_c, 0, 64, 66
1, 132165, Control_c, 0, 64, 63
1, 132180, Control_c, 0, 64, 60
1, 132195, Control_c, 0, 64, 53
1, 132210, Control_c, 0, 64, 36
1, 132211, Note_on_c, 0, 57, 73
1, 132220, Note_off_c, 0, 38, 60
1, 132225, Control_c, 0, 64, 0
1, 132270, Note_off_c, 0, 70, 64
1, 132306, Note_on_c, 0, 63, 68
1, 132313, Note_on_c, 0, 66, 74
1, 132313, Control_c, 0, 64, 40
1, 132318, Note_off_c, 0, 57, 60
1, 132328, Control_c, 0, 64, 56
1, 132343, Control_c, 0, 64, 63
1, 132358, Control_c, 0, 64, 67
1, 132372, Control_c, 0, 64, 72
1, 132375, Note_off_c, 0, 63, 62
1, 132386, Note_on_c, 0, 71, 84
1, 132386, Note_off_c, 0, 66, 64
1, 132387, Control_c, 0, 64, 78
1, 132402, Control_c, 0, 64, 83
1, 132417, Control_c, 0, 64, 90
1, 132432, Control_c, 0, 64, 97
1, 132446, Control_c, 0, 64, 104
1, 132462, Control_c, 0, 64, 110
1, 132476, Note_off_c, 0, 71, 63
1, 132477, Control_c, 0, 64, 113
1, 132485, Note_on_c, 0, 47, 90
1, 132521, Control_c, 0, 64, 105
1, 132536, Control_c, 0, 64, 84
1, 132551, Control_c, 0, 64, 65
1, 132566, Control_c, 0, 64, 42
1, 132581, Control_c, 0, 64, 0
1, 132599, Note_off_c, 0, 39, 63
1, 132601, Note_on_c, 0, 73, 76
1, 132640, Control_c, 0, 64, 33
1, 132655, Control_c, 0, 64, 50
1, 132661, Note_off_c, 0, 73, 63
1, 132670, Control_c, 0, 64, 61
1, 132684, Note_on_c, 0, 74, 82
1, 132685, Control_c, 0, 64, 67
1, 132700, Control_c, 0, 64, 72
1, 132714, Control_c, 0, 64, 77
1, 132729, Control_c, 0, 64, 81
1, 132744, Control_c, 0, 64, 85
1, 132753, Note_off_c, 0, 74, 59
1, 132755, Note_on_c, 0, 75, 80
1, 132759, Control_c, 0, 64, 88
1, 132774, Control_c, 0, 64, 89
1, 132788, Control_c, 0, 64, 90
1, 132818, Control_c, 0, 64, 88
1, 132833, Control_c, 0, 64, 78
1, 132847, Note_off_c, 0, 75, 59
1, 132854, Note_on_c, 0, 83, 86
1, 132855, Control_c, 0, 64, 63
1, 132855, Note_on_c, 0, 44, 87
1, 132869, Note_on_c, 0, 76, 74
1, 132869, Control_c, 0, 64, 35
1, 132884, Note_off_c, 0, 47, 65
1, 132884, Control_c, 0, 64, 0
1, 132895, Note_off_c, 0, 76, 65
1, 132929, Control_c, 0, 64, 38
1, 132944, Control_c, 0, 64, 57
1, 132956, Note_on_c, 0, 80, 81
1, 132959, Control_c, 0, 64, 67
1, 132974, Control_c, 0, 64, 74
1, 132976, Note_off_c, 0, 83, 63
1, 132988, Control_c, 0, 64, 84
1, 133003, Control_c, 0, 64, 94
1, 133018, Control_c, 0, 64, 112
1, 133030, Note_on_c, 0, 76, 77
1, 133033, Control_c, 0, 64, 127
1, 133040, Note_on_c, 0, 40, 89
1, 133054, Note_off_c, 0, 44, 66
1, 133060, Note_off_c, 0, 80, 61
1, 133089, Note_off_c, 0, 76, 64
1, 133113, Note_on_c, 0, 71, 79
1, 133186, Note_off_c, 0, 40, 66
1, 133203, Note_on_c, 0, 41, 89
1, 133205, Note_on_c, 0, 77, 82
1, 133209, Note_off_c, 0, 71, 39
1, 133209, Control_c, 0, 64, 81
1, 133218, Note_on_c, 0, 68, 76
1, 133224, Control_c, 0, 64, 49
1, 133239, Control_c, 0, 64, 0
1, 133281, Note_off_c, 0, 68, 63
1, 133285, Control_c, 0, 64, 32
1, 133299, Control_c, 0, 64, 61
1, 133301, Note_on_c, 0, 73, 87
1, 133303, Note_off_c, 0, 77, 64
1, 133314, Control_c, 0, 64, 74
1, 133329, Control_c, 0, 64, 90
1, 133343, Control_c, 0, 64, 116
1, 133358, Control_c, 0, 64, 127
1, 133373, Note_on_c, 0, 68, 88
1, 133386, Note_off_c, 0, 73, 63
1, 133423, Note_off_c, 0, 68, 65
1, 133457, Note_on_c, 0, 60, 84
1, 133529, Note_off_c, 0, 60, 64
1, 133546, Note_on_c, 0, 70, 86
1, 133558, Note_on_c, 0, 29, 95
1, 133570, Note_off_c, 0, 70, 70
1, 133594, Note_off_c, 0, 41, 60
1, 133684, Note_on_c, 0, 85, 97
1, 133762, Note_on_c, 0, 87, 95
1, 133769, Note_off_c, 0, 85, 61
1, 133835, Note_on_c, 0, 88, 95
1, 133841, Note_on_c, 0, 80, 80
1, 133842, Note_off_c, 0, 87, 65
1, 133849, Note_on_c, 0, 89, 63
1, 133849, Note_off_c, 0, 89, 127
1, 133859, Note_off_c, 0, 80, 71
1, 133922, Note_off_c, 0, 88, 43
1, 133937, Note_on_c, 0, 28, 94
1, 133939, Note_on_c, 0, 91, 103
1, 133940, Note_on_c, 0, 40, 95
1, 133940, Note_on_c, 0, 84, 103
1, 133942, Note_off_c, 0, 29, 63
1, 133958, Control_c, 0, 64, 70
1, 133973, Control_c, 0, 64, 0
1, 133995, Note_off_c, 0, 84, 64
1, 134043, Note_on_c, 0, 88, 86
1, 134084, Note_off_c, 0, 91, 56
1, 134120, Note_on_c, 0, 84, 91
1, 134152, Note_off_c, 0, 88, 66
1, 134166, Control_c, 0, 64, 42
1, 134177, Note_off_c, 0, 84, 65
1, 134181, Control_c, 0, 64, 45
1, 134196, Control_c, 0, 64, 49
1, 134203, Note_on_c, 0, 79, 86
1, 134211, Control_c, 0, 64, 57
1, 134226, Control_c, 0, 64, 59
1, 134241, Control_c, 0, 64, 56
1, 134256, Control_c, 0, 64, 47
1, 134271, Control_c, 0, 64, 0
1, 134282, Note_off_c, 0, 79, 59
1, 134286, Note_on_c, 0, 87, 97
1, 134307, Note_on_c, 0, 78, 64
1, 134342, Note_off_c, 0, 78, 59
1, 134388, Note_on_c, 0, 83, 81
1, 134396, Control_c, 0, 64, 32
1, 134411, Control_c, 0, 64, 56
1, 134424, Note_off_c, 0, 87, 64
1, 134426, Control_c, 0, 64, 63
1, 134440, Control_c, 0, 64, 67
1, 134455, Control_c, 0, 64, 72
1, 134468, Note_on_c, 0, 78, 78
1, 134470, Control_c, 0, 64, 77
1, 134485, Control_c, 0, 64, 82
1, 134491, Note_off_c, 0, 83, 64
1, 134500, Control_c, 0, 64, 86
1, 134515, Control_c, 0, 64, 90
1, 134521, Note_off_c, 0, 78, 63
1, 134530, Control_c, 0, 64, 91
1, 134545, Control_c, 0, 64, 92
1, 134550, Note_on_c, 0, 75, 75
1, 134589, Control_c, 0, 64, 91
1, 134604, Control_c, 0, 64, 84
1, 134609, Note_off_c, 0, 75, 58
1, 134619, Control_c, 0, 64, 67
1, 134628, Note_on_c, 0, 82, 90
1, 134634, Control_c, 0, 64, 49
1, 134648, Note_on_c, 0, 73, 68
1, 134649, Control_c, 0, 64, 0
1, 134693, Control_c, 0, 64, 47
1, 134708, Control_c, 0, 64, 64
1, 134719, Note_on_c, 0, 78, 78
1, 134723, Control_c, 0, 64, 69
1, 134729, Note_off_c, 0, 82, 62
1, 134738, Control_c, 0, 64, 72
1, 134753, Control_c, 0, 64, 74
1, 134761, Note_off_c, 0, 73, 60
1, 134767, Control_c, 0, 64, 76
1, 134782, Control_c, 0, 64, 79
1, 134782, Control_c, 0, 67, 19
1, 134787, Note_off_c, 0, 78, 65
1, 134797, Control_c, 0, 64, 81
1, 134807, Note_on_c, 0, 70, 71
1, 134811, Control_c, 0, 64, 83
1, 134826, Control_c, 0, 64, 85
1, 134841, Control_c, 0, 64, 87
1, 134843, Note_off_c, 0, 70, 63
1, 134857, Control_c, 0, 64, 90
1, 134872, Control_c, 0, 64, 92
1, 134886, Note_on_c, 0, 66, 77
1, 134916, Control_c, 0, 67, 0
1, 134931, Control_c, 0, 64, 90
1, 134939, Note_off_c, 0, 66, 60
1, 134946, Control_c, 0, 64, 80
1, 134961, Control_c, 0, 64, 66
1, 134976, Control_c, 0, 64, 46
1, 134978, Note_on_c, 0, 74, 84
1, 134990, Control_c, 0, 64, 0
1, 134991, Note_on_c, 0, 67, 71
1, 135016, Note_off_c, 0, 67, 66
1, 135062, Note_on_c, 0, 71, 79
1, 135064, Control_c, 0, 67, 21
1, 135087, Control_c, 0, 64, 50
1, 135087, Control_c, 0, 67, 23
1, 135096, Note_off_c, 0, 74, 59
1, 135102, Control_c, 0, 64, 62
1, 135102, Control_c, 0, 67, 25
1, 135116, Control_c, 0, 64, 66
1, 135116, Control_c, 0, 67, 28
1, 135131, Control_c, 0, 64, 67
1, 135131, Control_c, 0, 67, 30
1, 135146, Control_c, 0, 64, 68
1, 135146, Control_c, 0, 67, 32
1, 135155, Note_on_c, 0, 67, 63
1, 135161, Control_c, 0, 64, 69
1, 135161, Control_c, 0, 67, 32
1, 135171, Note_off_c, 0, 71, 64
1, 135176, Control_c, 0, 64, 72
1, 135176, Control_c, 0, 67, 33
1, 135190, Control_c, 0, 64, 74
1, 135205, Control_c, 0, 64, 74
1, 135209, Note_off_c, 0, 67, 65
1, 135239, Note_on_c, 0, 62, 70
1, 135249, Control_c, 0, 64, 74
1, 135264, Control_c, 0, 64, 72
1, 135264, Control_c, 0, 67, 32
1, 135279, Control_c, 0, 64, 69
1, 135294, Control_c, 0, 64, 64
1, 135294, Control_c, 0, 67, 32
1, 135307, Note_off_c, 0, 62, 50
1, 135309, Control_c, 0, 64, 51
1, 135323, Control_c, 0, 64, 0
1, 135326, Note_on_c, 0, 68, 76
1, 135345, Note_on_c, 0, 61, 59
1, 135382, Note_off_c, 0, 61, 61
1, 135383, Control_c, 0, 67, 32
1, 135397, Control_c, 0, 67, 33
1, 135406, Note_on_c, 0, 65, 69
1, 135412, Control_c, 0, 67, 34
1, 135427, Control_c, 0, 67, 35
1, 135433, Note_off_c, 0, 68, 62
1, 135442, Control_c, 0, 64, 41
1, 135442, Control_c, 0, 67, 39
1, 135457, Control_c, 0, 64, 55
1, 135457, Control_c, 0, 67, 45
1, 135472, Control_c, 0, 64, 60
1, 135472, Control_c, 0, 67, 51
1, 135487, Control_c, 0, 64, 63
1, 135487, Control_c, 0, 67, 57
1, 135502, Control_c, 0, 64, 64
1, 135502, Control_c, 0, 67, 61
1, 135503, Note_on_c, 0, 61, 63
1, 135516, Control_c, 0, 64, 65
1, 135516, Control_c, 0, 67, 63
1, 135531, Control_c, 0, 64, 66
1, 135531, Control_c, 0, 67, 64
1, 135538, Note_off_c, 0, 65, 63
1, 135546, Control_c, 0, 64, 66
1, 135564, Note_off_c, 0, 61, 61
1, 135576, Control_c, 0, 64, 67
1, 135585, Note_on_c, 0, 56, 71
1, 135605, Control_c, 0, 64, 66
1, 135615, Note_off_c, 0, 56, 65
1, 135620, Control_c, 0, 64, 66
1, 135620, Control_c, 0, 67, 63
1, 135634, Control_c, 0, 64, 63
1, 135634, Control_c, 0, 67, 62
1, 135649, Control_c, 0, 64, 56
1, 135649, Control_c, 0, 67, 61
1, 135665, Control_c, 0, 64, 35
1, 135665, Control_c, 0, 67, 60
1, 135673, Note_on_c, 0, 64, 63
1, 135680, Control_c, 0, 64, 0
1, 135680, Control_c, 0, 67, 59
1, 135689, Note_on_c, 0, 55, 54
1, 135695, Control_c, 0, 67, 58
1, 135743, Note_off_c, 0, 55, 51
1, 135762, Note_on_c, 0, 60, 65
1, 135769, Control_c, 0, 67, 60
1, 135770, Note_off_c, 0, 64, 62
1, 135784, Control_c, 0, 67, 62
1, 135799, Control_c, 0, 67, 63
1, 135813, Control_c, 0, 64, 50
1, 135813, Control_c, 0, 67, 65
1, 135835, Control_c, 0, 64, 61
1, 135835, Control_c, 0, 67, 66
1, 135850, Control_c, 0, 64, 65
1, 135850, Control_c, 0, 67, 68
1, 135865, Control_c, 0, 64, 67
1, 135865, Control_c, 0, 67, 74
1, 135865, Note_on_c, 0, 55, 52
1, 135880, Control_c, 0, 64, 68
1, 135880, Control_c, 0, 67, 79
1, 135895, Control_c, 0, 64, 68
1, 135895, Control_c, 0, 67, 81
1, 135903, Note_off_c, 0, 60, 60
1, 135906, Note_off_c, 0, 55, 64
1, 135910, Control_c, 0, 64, 70
1, 135910, Control_c, 0, 67, 81
1, 135925, Control_c, 0, 64, 70
1, 135939, Control_c, 0, 64, 70
1, 135952, Note_on_c, 0, 52, 59
1, 135954, Control_c, 0, 64, 66
1, 135969, Control_c, 0, 64, 55
1, 135984, Control_c, 0, 64, 0
1, 135984, Control_c, 0, 67, 81
1, 136012, Note_off_c, 0, 52, 56
1, 136028, Control_c, 0, 67, 80
1, 136030, Note_on_c, 0, 59, 61
1, 136043, Control_c, 0, 67, 80
1, 136051, Note_on_c, 0, 50, 49
1, 136102, Control_c, 0, 64, 52
1, 136106, Note_off_c, 0, 59, 62
1, 136111, Note_on_c, 0, 55, 62
1, 136117, Control_c, 0, 64, 61
1, 136124, Note_off_c, 0, 40, 62
1, 136131, Control_c, 0, 64, 62
1, 136131, Control_c, 0, 67, 80
1, 136134, Note_off_c, 0, 28, 61
1, 136141, Note_off_c, 0, 50, 61
1, 136146, Control_c, 0, 64, 63
1, 136146, Control_c, 0, 67, 81
1, 136149, Note_off_c, 0, 55, 65
1, 136161, Control_c, 0, 64, 64
1, 136176, Control_c, 0, 64, 65
1, 136191, Control_c, 0, 64, 66
1, 136191, Control_c, 0, 67, 81
1, 136205, Control_c, 0, 67, 82
1, 136220, Control_c, 0, 67, 82
1, 136243, Note_on_c, 0, 47, 40
1, 136250, Control_c, 0, 67, 83
1, 136265, Control_c, 0, 64, 65
1, 136295, Control_c, 0, 64, 64
1, 136300, Note_on_c, 0, 43, 63
1, 136309, Control_c, 0, 64, 62
1, 136324, Control_c, 0, 64, 60
1, 136336, Note_off_c, 0, 47, 40
1, 136339, Control_c, 0, 64, 58
1, 136348, Note_off_c, 0, 43, 58
1, 136354, Control_c, 0, 64, 57
1, 136369, Control_c, 0, 64, 54
1, 136383, Control_c, 0, 64, 48
1, 136387, Note_on_c, 0, 51, 55
1, 136392, Note_on_c, 0, 44, 53
1, 136398, Control_c, 0, 64, 36
1, 136413, Control_c, 0, 64, 0
1, 136443, Control_c, 0, 64, 31
1, 136458, Control_c, 0, 64, 42
1, 136473, Control_c, 0, 64, 51
1, 136477, Note_on_c, 0, 48, 58
1, 136483, Note_off_c, 0, 51, 61
1, 136488, Control_c, 0, 64, 56
1, 136488, Control_c, 0, 67, 83
1, 136492, Note_off_c, 0, 44, 58
1, 136503, Control_c, 0, 64, 61
1, 136518, Control_c, 0, 64, 63
1, 136518, Control_c, 0, 67, 84
1, 136533, Control_c, 0, 64, 66
1, 136533, Control_c, 0, 67, 84
1, 136548, Control_c, 0, 64, 68
1, 136555, Note_off_c, 0, 48, 63
1, 136562, Control_c, 0, 64, 69
1, 136577, Control_c, 0, 64, 70
1, 136577, Control_c, 0, 67, 86
1, 136599, Control_c, 0, 64, 70
1, 136599, Control_c, 0, 67, 94
1, 136613, Control_c, 0, 67, 103
1, 136628, Control_c, 0, 67, 108
1, 136640, Note_on_c, 0, 39, 66
1, 136643, Control_c, 0, 67, 110
1, 136718, Control_c, 0, 64, 70
1, 136748, Control_c, 0, 64, 69
1, 136748, Note_off_c, 0, 39, 59
1, 136762, Control_c, 0, 64, 67
1, 136777, Control_c, 0, 64, 66
1, 136788, Note_on_c, 0, 40, 70
1, 136792, Control_c, 0, 64, 64
1, 136792, Control_c, 0, 67, 108
1, 136807, Control_c, 0, 64, 62
1, 136822, Control_c, 0, 64, 59
1, 136837, Control_c, 0, 64, 55
1, 136852, Control_c, 0, 64, 49
1, 136867, Control_c, 0, 64, 40
1, 136881, Control_c, 0, 64, 0
1, 136916, Note_on_c, 0, 60, 42
1, 137014, Note_on_c, 0, 69, 38
1, 137014, Control_c, 0, 67, 106
1, 137030, Note_on_c, 0, 66, 44
1, 137059, Control_c, 0, 64, 35
1, 137059, Control_c, 0, 67, 103
1, 137074, Control_c, 0, 64, 46
1, 137088, Control_c, 0, 64, 55
1, 137088, Control_c, 0, 67, 101
1, 137099, Note_off_c, 0, 60, 61
1, 137103, Control_c, 0, 64, 60
1, 137106, Note_on_c, 0, 74, 44
1, 137118, Control_c, 0, 64, 61
1, 137121, Note_off_c, 0, 69, 62
1, 137133, Control_c, 0, 64, 62
1, 137133, Control_c, 0, 67, 99
1, 137162, Control_c, 0, 64, 62
1, 137177, Control_c, 0, 64, 63
1, 137184, Note_off_c, 0, 66, 58
1, 137191, Note_on_c, 0, 39, 78
1, 137237, Control_c, 0, 64, 62
1, 137251, Control_c, 0, 64, 60
1, 137267, Control_c, 0, 64, 56
1, 137282, Control_c, 0, 64, 47
1, 137297, Control_c, 0, 64, 0
1, 137301, Note_on_c, 0, 61, 73
1, 137303, Note_off_c, 0, 40, 61
1, 137311, Control_c, 0, 67, 97
1, 137374, Note_off_c, 0, 74, 63
1, 137379, Control_c, 0, 64, 40
1, 137379, Control_c, 0, 67, 96
1, 137393, Control_c, 0, 64, 52
1, 137393, Control_c, 0, 67, 95
1, 137401, Note_on_c, 0, 70, 73
1, 137404, Note_on_c, 0, 67, 62
1, 137408, Control_c, 0, 64, 58
1, 137408, Control_c, 0, 67, 93
1, 137423, Control_c, 0, 64, 60
1, 137423, Control_c, 0, 67, 91
1, 137437, Control_c, 0, 64, 61
1, 137437, Control_c, 0, 67, 88
1, 137445, Note_off_c, 0, 61, 61
1, 137452, Control_c, 0, 64, 62
1, 137452, Control_c, 0, 67, 84
1, 137467, Control_c, 0, 64, 63
1, 137467, Control_c, 0, 67, 80
1, 137482, Control_c, 0, 64, 64
1, 137482, Control_c, 0, 67, 76
1, 137488, Note_on_c, 0, 75, 73
1, 137497, Control_c, 0, 64, 65
1, 137497, Control_c, 0, 67, 72
1, 137511, Control_c, 0, 67, 65
1, 137514, Note_off_c, 0, 67, 59
1, 137526, Control_c, 0, 67, 58
1, 137529, Note_off_c, 0, 70, 62
1, 137541, Control_c, 0, 64, 63
1, 137541, Control_c, 0, 67, 52
1, 137555, Control_c, 0, 64, 60
1, 137555, Control_c, 0, 67, 47
1, 137562, Note_on_c, 0, 42, 88
1, 137570, Control_c, 0, 64, 56
1, 137570, Control_c, 0, 67, 43
1, 137585, Control_c, 0, 64, 55
1, 137585, Control_c, 0, 67, 41
1, 137600, Control_c, 0, 64, 58
1, 137600, Control_c, 0, 67, 38
1, 137615, Control_c, 0, 64, 61
1, 137615, Control_c, 0, 67, 35
1, 137630, Control_c, 0, 64, 63
1, 137630, Control_c, 0, 67, 33
1, 137644, Control_c, 0, 64, 66
1, 137644, Control_c, 0, 67, 29
1, 137659, Control_c, 0, 64, 68
1, 137659, Control_c, 0, 67, 24
1, 137663, Note_off_c, 0, 39, 58
1, 137674, Control_c, 0, 64, 72
1, 137674, Control_c, 0, 67, 0
1, 137676, Note_on_c, 0, 60, 72
1, 137689, Control_c, 0, 64, 78
1, 137704, Control_c, 0, 64, 87
1, 137718, Control_c, 0, 64, 100
1, 137733, Control_c, 0, 64, 127
1, 137736, Note_off_c, 0, 42, 66
1, 137757, Note_on_c, 0, 66, 72
1, 137758, Note_on_c, 0, 69, 67
1, 137760, Note_off_c, 0, 75, 62
1, 137794, Note_off_c, 0, 60, 60
1, 137842, Note_on_c, 0, 74, 81
1, 137851, Note_off_c, 0, 69, 63
1, 137880, Note_off_c, 0, 66, 61
1, 137935, Note_on_c, 0, 43, 91
1, 137948, Note_on_c, 0, 41, 78
1, 137967, Note_off_c, 0, 41, 62
1, 138000, Control_c, 0, 64, 89
1, 138015, Control_c, 0, 64, 67
1, 138029, Control_c, 0, 64, 42
1, 138033, Note_on_c, 0, 61, 75
1, 138044, Control_c, 0, 64, 0
1, 138101, Note_off_c, 0, 74, 61
1, 138127, Note_on_c, 0, 67, 64
1, 138128, Note_on_c, 0, 70, 77
1, 138140, Note_off_c, 0, 61, 60
1, 138215, Note_on_c, 0, 75, 81
1, 138229, Note_off_c, 0, 67, 63
1, 138253, Note_off_c, 0, 70, 65
1, 138274, Control_c, 0, 64, 55
1, 138289, Control_c, 0, 64, 69
1, 138304, Control_c, 0, 64, 76
1, 138319, Control_c, 0, 64, 82
1, 138322, Note_on_c, 0, 51, 100
1, 138333, Control_c, 0, 64, 85
1, 138348, Control_c, 0, 64, 87
1, 138363, Control_c, 0, 64, 88
1, 138393, Control_c, 0, 64, 85
1, 138408, Note_off_c, 0, 43, 58
1, 138408, Control_c, 0, 64, 72
1, 138423, Control_c, 0, 64, 60
1, 138436, Note_on_c, 0, 64, 73
1, 138438, Control_c, 0, 64, 41
1, 138453, Control_c, 0, 64, 0
1, 138477, Note_off_c, 0, 75, 62
1, 138483, Poly_aftertouch_c, 0, 44, 0
1, 138497, Control_c, 0, 64, 47
1, 138512, Control_c, 0, 64, 62
1, 138526, Note_on_c, 0, 70, 75
1, 138527, Control_c, 0, 64, 71
1, 138527, Note_on_c, 0, 73, 83
1, 138541, Control_c, 0, 64, 81
1, 138556, Control_c, 0, 64, 93
1, 138561, Note_off_c, 0, 64, 60
1, 138571, Control_c, 0, 64, 106
1, 138585, Control_c, 0, 64, 127
1, 138616, Note_on_c, 0, 78, 86
1, 138620, Note_off_c, 0, 70, 64
1, 138635, Note_off_c, 0, 73, 63
1, 138715, Note_on_c, 0, 48, 92
1, 138719, Control_c, 0, 64, 82
1, 138733, Control_c, 0, 64, 62
1, 138748, Control_c, 0, 64, 47
1, 138750, Note_off_c, 0, 51, 61
1, 138763, Control_c, 0, 64, 56
1, 138778, Control_c, 0, 64, 65
1, 138781, Note_off_c, 0, 78, 57
1, 138793, Control_c, 0, 64, 81
1, 138807, Control_c, 0, 64, 127
1, 138817, Note_on_c, 0, 66, 84
1, 138912, Note_off_c, 0, 66, 60
1, 138923, Note_on_c, 0, 72, 72
1, 138930, Note_on_c, 0, 75, 83
1, 138940, Note_on_c, 0, 44, 97
1, 138957, Note_off_c, 0, 48, 66
1, 138961, Note_off_c, 0, 72, 61
1, 139025, Note_off_c, 0, 75, 66
1, 139026, Note_on_c, 0, 80, 92
1, 139146, Note_on_c, 0, 46, 100
1, 139147, Note_off_c, 0, 44, 66
1, 139171, Control_c, 0, 64, 102
1, 139186, Control_c, 0, 64, 61
1, 139201, Control_c, 0, 64, 0
1, 139204, Note_off_c, 0, 80, 64
1, 139259, Note_on_c, 0, 78, 89
1, 139315, Note_off_c, 0, 78, 64
1, 139319, Control_c, 0, 64, 62
1, 139334, Control_c, 0, 64, 84
1, 139337, Note_on_c, 0, 44, 34
1, 139348, Note_on_c, 0, 79, 98
1, 139349, Control_c, 0, 64, 121
1, 139363, Control_c, 0, 64, 127
1, 139373, Note_off_c, 0, 46, 0
1, 139377, Note_off_c, 0, 44, 55
1, 139410, Poly_aftertouch_c, 0, 46, 127
1, 139433, Note_on_c, 0, 82, 94
1, 139460, Note_off_c, 0, 79, 63
1, 139465, Poly_aftertouch_c, 0, 77, 0
1, 139476, Note_on_c, 0, 34, 26
1, 139497, Poly_aftertouch_c, 0, 46, 0
1, 139512, Note_off_c, 0, 82, 62
1, 139526, Note_off_c, 0, 34, 42
1, 139538, Note_on_c, 0, 86, 102
1, 139542, Note_on_c, 0, 39, 102
1, 139588, Note_off_c, 0, 86, 66
1, 139656, Note_on_c, 0, 87, 104
1, 139727, Note_off_c, 0, 87, 64
1, 139742, Note_off_c, 0, 39, 65
1, 139749, Note_on_c, 0, 37, 94
1, 139751, Note_on_c, 0, 91, 93
1, 139780, Note_on_c, 0, 90, 45
1, 139780, Note_off_c, 0, 90, 127
1, 139841, Note_on_c, 0, 94, 99
1, 139869, Note_off_c, 0, 91, 67
1, 139975, Note_off_c, 0, 94, 67
1, 139979, Note_on_c, 0, 95, 106
1, 139979, Note_off_c, 0, 37, 60
1, 139985, Note_on_c, 0, 47, 97
1, 139990, Note_on_c, 0, 35, 99
1, 140001, Note_on_c, 0, 33, 85
1, 140010, Note_off_c, 0, 95, 68
1, 140023, Note_off_c, 0, 33, 64
1, 140024, Note_on_c, 0, 45, 37
1, 140141, Note_off_c, 0, 45, 22
1, 140143, Note_on_c, 0, 78, 98
1, 140171, Control_c, 0, 64, 97
1, 140186, Control_c, 0, 64, 60
1, 140201, Control_c, 0, 64, 0
1, 140234, Note_on_c, 0, 79, 96
1, 140260, Note_off_c, 0, 78, 65
1, 140314, Note_on_c, 0, 77, 74
1, 140332, Note_on_c, 0, 80, 101
1, 140342, Control_c, 0, 64, 52
1, 140355, Note_off_c, 0, 79, 64
1, 140356, Control_c, 0, 64, 68
1, 140371, Control_c, 0, 64, 69
1, 140375, Note_off_c, 0, 77, 65
1, 140424, Note_off_c, 0, 80, 66
1, 140430, Control_c, 0, 64, 69
1, 140445, Control_c, 0, 64, 66
1, 140461, Control_c, 0, 64, 59
1, 140464, Note_on_c, 0, 83, 100
1, 140468, Note_on_c, 0, 76, 94
1, 140476, Control_c, 0, 64, 41
1, 140491, Control_c, 0, 64, 0
1, 140569, Note_on_c, 0, 80, 95
1, 140594, Control_c, 0, 64, 36
1, 140609, Control_c, 0, 64, 62
1, 140619, Note_off_c, 0, 76, 62
1, 140624, Control_c, 0, 64, 70
1, 140639, Control_c, 0, 64, 76
1, 140653, Control_c, 0, 64, 81
1, 140667, Note_on_c, 0, 71, 83
1, 140668, Note_off_c, 0, 83, 58
1, 140668, Control_c, 0, 64, 89
1, 140683, Control_c, 0, 64, 103
1, 140698, Control_c, 0, 64, 127
1, 140760, Note_on_c, 0, 76, 83
1, 140763, Note_off_c, 0, 71, 64
1, 140795, Note_off_c, 0, 80, 65
1, 140803, Note_off_c, 0, 76, 63
1, 140879, Note_on_c, 0, 86, 101
1, 140884, Note_on_c, 0, 77, 91
1, 140891, Control_c, 0, 64, 102
1, 140906, Control_c, 0, 64, 77
1, 140921, Control_c, 0, 64, 62
1, 140935, Control_c, 0, 64, 50
1, 140950, Control_c, 0, 64, 53
1, 140965, Control_c, 0, 64, 60
1, 140979, Control_c, 0, 64, 66
1, 140994, Control_c, 0, 64, 70
1, 141009, Control_c, 0, 64, 72
1, 141016, Note_on_c, 0, 82, 88
1, 141024, Control_c, 0, 64, 73
1, 141039, Control_c, 0, 64, 75
1, 141053, Control_c, 0, 64, 77
1, 141068, Control_c, 0, 64, 80
1, 141082, Note_off_c, 0, 77, 55
1, 141091, Control_c, 0, 64, 83
1, 141092, Note_off_c, 0, 86, 62
1, 141106, Control_c, 0, 64, 84
1, 141120, Note_on_c, 0, 74, 82
1, 141135, Control_c, 0, 64, 85
1, 141150, Control_c, 0, 64, 85
1, 141165, Control_c, 0, 64, 86
1, 141179, Control_c, 0, 67, 20
1, 141216, Note_on_c, 0, 77, 80
1, 141224, Control_c, 0, 67, 22
1, 141232, Note_off_c, 0, 74, 62
1, 141249, Note_off_c, 0, 82, 62
1, 141284, Control_c, 0, 64, 85
1, 141299, Control_c, 0, 64, 81
1, 141314, Control_c, 0, 64, 72
1, 141321, Note_on_c, 0, 83, 95
1, 141326, Note_off_c, 0, 77, 59
1, 141329, Control_c, 0, 64, 61
1, 141329, Control_c, 0, 67, 25
1, 141344, Control_c, 0, 64, 44
1, 141349, Note_on_c, 0, 76, 60
1, 141358, Control_c, 0, 64, 0
1, 141388, Control_c, 0, 64, 38
1, 141402, Control_c, 0, 64, 51
1, 141417, Control_c, 0, 64, 60
1, 141417, Control_c, 0, 67, 27
1, 141432, Control_c, 0, 64, 64
1, 141447, Control_c, 0, 64, 68
1, 141449, Note_on_c, 0, 80, 78
1, 141458, Note_off_c, 0, 76, 34
1, 141462, Control_c, 0, 64, 71
1, 141476, Control_c, 0, 64, 75
1, 141491, Control_c, 0, 64, 77
1, 141491, Control_c, 0, 67, 29
1, 141506, Control_c, 0, 64, 80
1, 141518, Note_off_c, 0, 83, 59
1, 141521, Control_c, 0, 64, 82
1, 141536, Control_c, 0, 64, 83
1, 141547, Note_on_c, 0, 76, 76
1, 141550, Control_c, 0, 64, 84
1, 141565, Control_c, 0, 64, 86
1, 141580, Control_c, 0, 64, 88
1, 141595, Control_c, 0, 64, 89
1, 141609, Control_c, 0, 64, 89
1, 141609, Control_c, 0, 67, 31
1, 141611, Note_off_c, 0, 76, 64
1, 141647, Note_on_c, 0, 71, 72
1, 141669, Control_c, 0, 64, 90
1, 141693, Note_off_c, 0, 80, 58
1, 141714, Control_c, 0, 64, 89
1, 141717, Note_off_c, 0, 71, 61
1, 141729, Control_c, 0, 64, 82
1, 141743, Control_c, 0, 64, 69
1, 141746, Note_on_c, 0, 79, 86
1, 141758, Control_c, 0, 64, 55
1, 141759, Note_on_c, 0, 70, 67
1, 141773, Control_c, 0, 64, 0
1, 141854, Control_c, 0, 67, 33
1, 141869, Control_c, 0, 67, 34
1, 141884, Note_on_c, 0, 75, 65
1, 141884, Control_c, 0, 64, 47
1, 141884, Control_c, 0, 67, 37
1, 141899, Control_c, 0, 64, 61
1, 141899, Control_c, 0, 67, 41
1, 141909, Note_off_c, 0, 70, 63
1, 141914, Control_c, 0, 64, 65
1, 141914, Control_c, 0, 67, 44
1, 141928, Control_c, 0, 64, 67
1, 141928, Control_c, 0, 67, 46
1, 141943, Control_c, 0, 64, 69
1, 141943, Control_c, 0, 67, 47
1, 141954, Note_off_c, 0, 79, 63
1, 141958, Control_c, 0, 64, 72
1, 141958, Control_c, 0, 67, 48
1, 141973, Control_c, 0, 64, 76
1, 141973, Control_c, 0, 67, 50
1, 141988, Control_c, 0, 64, 82
1, 141988, Control_c, 0, 67, 51
1, 141994, Note_on_c, 0, 67, 52
1, 142002, Control_c, 0, 64, 86
1, 142002, Control_c, 0, 67, 53
1, 142017, Control_c, 0, 64, 89
1, 142017, Control_c, 0, 67, 55
1, 142032, Control_c, 0, 64, 91
1, 142032, Control_c, 0, 67, 56
1, 142048, Control_c, 0, 64, 92
1, 142048, Control_c, 0, 67, 57
1, 142062, Note_off_c, 0, 67, 63
1, 142063, Control_c, 0, 64, 93
1, 142063, Control_c, 0, 67, 57
1, 142083, Note_on_c, 0, 70, 64
1, 142094, Note_off_c, 0, 75, 61
1, 142110, Note_off_c, 0, 70, 65
1, 142122, Control_c, 0, 64, 93
1, 142167, Control_c, 0, 64, 93
1, 142182, Control_c, 0, 64, 89
1, 142197, Control_c, 0, 64, 79
1, 142197, Control_c, 0, 67, 56
1, 142204, Note_on_c, 0, 83, 82
1, 142212, Control_c, 0, 64, 68
1, 142212, Control_c, 0, 67, 56
1, 142219, Note_on_c, 0, 76, 62
1, 142226, Control_c, 0, 64, 58
1, 142226, Control_c, 0, 67, 55
1, 142241, Control_c, 0, 64, 45
1, 142256, Control_c, 0, 64, 41
1, 142271, Control_c, 0, 64, 46
1, 142271, Control_c, 0, 67, 56
1, 142286, Control_c, 0, 64, 56
1, 142286, Control_c, 0, 67, 57
1, 142300, Control_c, 0, 64, 62
1, 142300, Control_c, 0, 67, 58
1, 142315, Control_c, 0, 64, 66
1, 142315, Control_c, 0, 67, 60
1, 142325, Note_on_c, 0, 80, 81
1, 142330, Control_c, 0, 64, 69
1, 142330, Control_c, 0, 67, 65
1, 142340, Note_off_c, 0, 83, 62
1, 142345, Control_c, 0, 64, 72
1, 142345, Control_c, 0, 67, 72
1, 142359, Control_c, 0, 64, 74
1, 142359, Control_c, 0, 67, 79
1, 142374, Control_c, 0, 64, 74
1, 142374, Control_c, 0, 67, 83
1, 142379, Note_off_c, 0, 76, 54
1, 142389, Control_c, 0, 67, 86
1, 142404, Control_c, 0, 67, 88
1, 142418, Control_c, 0, 64, 75
1, 142418, Control_c, 0, 67, 88
1, 142448, Control_c, 0, 64, 76
1, 142459, Note_on_c, 0, 71, 60
1, 142463, Control_c, 0, 64, 76
1, 142463, Control_c, 0, 67, 89
1, 142478, Control_c, 0, 64, 77
1, 142478, Control_c, 0, 67, 89
1, 142492, Control_c, 0, 64, 78
1, 142507, Control_c, 0, 64, 78
1, 142522, Control_c, 0, 64, 79
1, 142528, Note_off_c, 0, 71, 56
1, 142537, Control_c, 0, 64, 80
1, 142551, Control_c, 0, 64, 81
1, 142560, Note_on_c, 0, 76, 60
1, 142574, Control_c, 0, 64, 82
1, 142600, Note_off_c, 0, 76, 63
1, 142628, Note_off_c, 0, 80, 57
1, 142648, Control_c, 0, 67, 89
1, 142678, Control_c, 0, 64, 80
1, 142678, Control_c, 0, 67, 88
1, 142679, Note_on_c, 0, 86, 83
1, 142692, Note_on_c, 0, 77, 57
1, 142693, Control_c, 0, 64, 75
1, 142707, Control_c, 0, 64, 67
1, 142722, Control_c, 0, 64, 59
1, 142737, Control_c, 0, 64, 54
1, 142751, Control_c, 0, 64, 56
1, 142766, Control_c, 0, 64, 60
1, 142781, Control_c, 0, 64, 63
1, 142796, Control_c, 0, 64, 66
1, 142811, Note_on_c, 0, 82, 70
1, 142811, Control_c, 0, 64, 68
1, 142826, Control_c, 0, 64, 70
1, 142841, Control_c, 0, 64, 74
1, 142853, Note_off_c, 0, 86, 53
1, 142856, Control_c, 0, 64, 78
1, 142870, Note_off_c, 0, 77, 56
1, 142871, Control_c, 0, 64, 80
1, 142886, Control_c, 0, 64, 82
1, 142901, Control_c, 0, 64, 83
1, 142916, Control_c, 0, 64, 84
1, 142930, Control_c, 0, 64, 87
1, 142939, Note_on_c, 0, 74, 51
1, 142945, Control_c, 0, 64, 89
1, 142960, Control_c, 0, 64, 90
1, 142990, Control_c, 0, 64, 91
1, 143005, Control_c, 0, 64, 91
1, 143019, Control_c, 0, 64, 92
1, 143025, Note_off_c, 0, 74, 54
1, 143034, Control_c, 0, 64, 92
1, 143046, Note_on_c, 0, 77, 52
1, 143131, Note_off_c, 0, 82, 59
1, 143153, Control_c, 0, 64, 91
1, 143168, Control_c, 0, 64, 88
1, 143181, Note_on_c, 0, 83, 75
1, 143182, Control_c, 0, 64, 81
1, 143197, Control_c, 0, 64, 72
1, 143197, Control_c, 0, 67, 88
1, 143198, Note_off_c, 0, 77, 49
1, 143203, Note_on_c, 0, 76, 53
1, 143212, Control_c, 0, 64, 64
1, 143227, Control_c, 0, 64, 58
1, 143241, Control_c, 0, 64, 57
1, 143256, Control_c, 0, 64, 59
1, 143271, Control_c, 0, 64, 61
1, 143274, Note_off_c, 0, 76, 39
1, 143286, Control_c, 0, 64, 64
1, 143300, Control_c, 0, 64, 67
1, 143315, Control_c, 0, 64, 70
1, 143334, Note_on_c, 0, 80, 64
1, 143338, Control_c, 0, 64, 74
1, 143353, Control_c, 0, 64, 77
1, 143364, Note_off_c, 0, 83, 57
1, 143368, Control_c, 0, 64, 78
1, 143382, Control_c, 0, 64, 79
1, 143397, Control_c, 0, 64, 81
1, 143412, Control_c, 0, 64, 82
1, 143427, Control_c, 0, 64, 83
1, 143442, Control_c, 0, 64, 84
1, 143446, Note_on_c, 0, 71, 50
1, 143471, Control_c, 0, 64, 85
1, 143486, Control_c, 0, 64, 85
1, 143515, Control_c, 0, 64, 86
1, 143530, Control_c, 0, 64, 86
1, 143544, Note_off_c, 0, 71, 56
1, 143573, Note_on_c, 0, 76, 57
1, 143621, Note_off_c, 0, 76, 57
1, 143663, Note_off_c, 0, 80, 50
1, 143678, Control_c, 0, 64, 86
1, 143693, Control_c, 0, 64, 85
1, 143708, Control_c, 0, 64, 84
1, 143723, Control_c, 0, 64, 82
1, 143732, Note_on_c, 0, 86, 69
1, 143738, Control_c, 0, 64, 81
1, 143753, Control_c, 0, 64, 79
1, 143768, Control_c, 0, 64, 76
1, 143769, Note_on_c, 0, 77, 40
1, 143783, Control_c, 0, 64, 73
1, 143797, Control_c, 0, 64, 68
1, 143812, Control_c, 0, 64, 62
1, 143827, Control_c, 0, 64, 53
1, 143842, Control_c, 0, 64, 41
1, 143857, Control_c, 0, 64, 0
1, 143903, Note_on_c, 0, 82, 59
1, 143916, Control_c, 0, 67, 88
1, 143983, Note_off_c, 0, 86, 48
1, 143990, Control_c, 0, 64, 39
1, 144004, Control_c, 0, 64, 51
1, 144019, Control_c, 0, 64, 57
1, 144021, Note_off_c, 0, 77, 37
1, 144034, Control_c, 0, 64, 61
1, 144045, Note_on_c, 0, 74, 40
1, 144049, Control_c, 0, 64, 63
1, 144064, Control_c, 0, 64, 64
1, 144086, Control_c, 0, 64, 66
1, 144101, Control_c, 0, 64, 68
1, 144116, Control_c, 0, 64, 70
1, 144130, Control_c, 0, 64, 72
1, 144145, Control_c, 0, 64, 73
1, 144160, Control_c, 0, 64, 73
1, 144175, Control_c, 0, 64, 74
1, 144185, Note_off_c, 0, 74, 59
1, 144190, Control_c, 0, 64, 75
1, 144200, Note_on_c, 0, 77, 51
1, 144204, Control_c, 0, 64, 75
1, 144323, Control_c, 0, 64, 74
1, 144323, Control_c, 0, 67, 89
1, 144325, Note_off_c, 0, 82, 50
1, 144338, Control_c, 0, 64, 74
1, 144353, Control_c, 0, 64, 72
1, 144353, Control_c, 0, 67, 89
1, 144368, Control_c, 0, 64, 71
1, 144369, Note_on_c, 0, 83, 63
1, 144383, Control_c, 0, 64, 68
1, 144396, Note_off_c, 0, 77, 59
1, 144397, Control_c, 0, 64, 65
1, 144408, Note_on_c, 0, 76, 48
1, 144412, Control_c, 0, 64, 62
1, 144427, Control_c, 0, 64, 57
1, 144443, Control_c, 0, 64, 50
1, 144458, Control_c, 0, 64, 36
1, 144473, Control_c, 0, 64, 0
1, 144574, Note_off_c, 0, 76, 52
1, 144575, Note_on_c, 0, 80, 50
1, 144680, Note_off_c, 0, 83, 56
1, 144680, Control_c, 0, 64, 50
1, 144695, Control_c, 0, 64, 60
1, 144710, Control_c, 0, 64, 63
1, 144725, Control_c, 0, 64, 65
1, 144739, Control_c, 0, 64, 67
1, 144754, Control_c, 0, 64, 69
1, 144763, Note_on_c, 0, 71, 48
1, 144769, Control_c, 0, 64, 73
1, 144769, Control_c, 0, 67, 90
1, 144774, Note_off_c, 0, 47, 53
1, 144784, Control_c, 0, 64, 78
1, 144784, Control_c, 0, 67, 90
1, 144799, Control_c, 0, 64, 83
1, 144799, Control_c, 0, 67, 91
1, 144814, Control_c, 0, 64, 89
1, 144814, Control_c, 0, 67, 91
1, 144835, Control_c, 0, 64, 94
1, 144835, Control_c, 0, 67, 92
1, 144842, Note_off_c, 0, 35, 51
1, 144850, Control_c, 0, 64, 99
1, 144850, Control_c, 0, 67, 101
1, 144865, Control_c, 0, 64, 103
1, 144865, Control_c, 0, 67, 108
1, 144880, Control_c, 0, 64, 109
1, 144880, Control_c, 0, 67, 115
1, 144895, Control_c, 0, 64, 117
1, 144895, Control_c, 0, 67, 121
1, 144909, Control_c, 0, 64, 127
1, 144909, Control_c, 0, 67, 127
1, 144987, Note_on_c, 0, 76, 48
1, 145196, Note_off_c, 0, 71, 32
1, 145281, Control_c, 0, 64, 122
1, 145296, Control_c, 0, 64, 116
1, 145311, Control_c, 0, 64, 111
1, 145325, Control_c, 0, 64, 106
1, 145340, Control_c, 0, 64, 101
1, 145355, Control_c, 0, 64, 97
1, 145369, Control_c, 0, 64, 93
1, 145384, Control_c, 0, 64, 89
1, 145392, Note_on_c, 0, 83, 51
1, 145399, Control_c, 0, 64, 86
1, 145402, Note_on_c, 0, 27, 68
1, 145404, Note_on_c, 0, 39, 61
1, 145414, Control_c, 0, 64, 83
1, 145429, Control_c, 0, 64, 80
1, 145440, Note_off_c, 0, 76, 24
1, 145443, Control_c, 0, 64, 75
1, 145458, Control_c, 0, 64, 71
1, 145473, Control_c, 0, 64, 65
1, 145482, Note_off_c, 0, 80, 34
1, 145488, Control_c, 0, 64, 59
1, 145503, Control_c, 0, 64, 47
1, 145517, Control_c, 0, 64, 0
1, 145717, Control_c, 0, 64, 40
1, 145728, Note_off_c, 0, 83, 57
1, 145732, Control_c, 0, 64, 53
1, 145747, Control_c, 0, 64, 60
1, 145762, Control_c, 0, 64, 64
1, 145777, Control_c, 0, 64, 66
1, 145792, Control_c, 0, 64, 67
1, 145807, Control_c, 0, 64, 69
1, 145822, Control_c, 0, 64, 70
1, 145836, Control_c, 0, 64, 73
1, 145851, Control_c, 0, 64, 75
1, 145866, Control_c, 0, 64, 78
1, 145881, Control_c, 0, 64, 81
1, 145895, Control_c, 0, 64, 84
1, 145910, Control_c, 0, 64, 87
1, 145925, Control_c, 0, 64, 89
1, 145940, Control_c, 0, 64, 89
1, 146074, Control_c, 0, 64, 88
1, 146089, Control_c, 0, 64, 87
1, 146104, Control_c, 0, 64, 86
1, 146118, Control_c, 0, 64, 84
1, 146133, Control_c, 0, 64, 82
1, 146148, Control_c, 0, 64, 79
1, 146163, Control_c, 0, 64, 77
1, 146178, Control_c, 0, 64, 75
1, 146192, Control_c, 0, 64, 73
1, 146207, Control_c, 0, 64, 71
1, 146222, Control_c, 0, 64, 69
1, 146237, Control_c, 0, 64, 68
1, 146252, Control_c, 0, 64, 68
1, 146266, Control_c, 0, 64, 66
1, 146281, Control_c, 0, 64, 65
1, 146296, Control_c, 0, 64, 64
1, 146298, Note_on_c, 0, 71, 70
1, 146318, Control_c, 0, 64, 63
1, 146333, Control_c, 0, 64, 62
1, 146348, Control_c, 0, 64, 61
1, 146363, Control_c, 0, 64, 59
1, 146378, Control_c, 0, 64, 57
1, 146392, Control_c, 0, 64, 53
1, 146407, Control_c, 0, 64, 48
1, 146422, Control_c, 0, 64, 41
1, 146437, Control_c, 0, 64, 0
1, 146570, Control_c, 0, 64, 31
1, 146585, Control_c, 0, 64, 48
1, 146600, Control_c, 0, 64, 55
1, 146614, Control_c, 0, 64, 59
1, 146629, Control_c, 0, 64, 60
1, 146644, Control_c, 0, 64, 61
1, 146659, Control_c, 0, 64, 61
1, 146674, Control_c, 0, 64, 62
1, 146689, Control_c, 0, 64, 63
1, 146704, Control_c, 0, 64, 64
1, 146704, Control_c, 0, 67, 125
1, 146718, Control_c, 0, 64, 64
1, 146718, Control_c, 0, 67, 118
1, 146733, Control_c, 0, 67, 113
1, 146745, Note_on_c, 0, 70, 76
1, 146748, Control_c, 0, 67, 109
1, 146763, Control_c, 0, 67, 105
1, 146778, Control_c, 0, 64, 65
1, 146778, Control_c, 0, 67, 101
1, 146792, Control_c, 0, 64, 66
1, 146792, Control_c, 0, 67, 98
1, 146807, Control_c, 0, 64, 67
1, 146807, Control_c, 0, 67, 96
1, 146822, Control_c, 0, 64, 68
1, 146822, Control_c, 0, 67, 93
1, 146837, Control_c, 0, 64, 70
1, 146837, Control_c, 0, 67, 92
1, 146853, Control_c, 0, 64, 72
1, 146853, Control_c, 0, 67, 91
1, 146868, Control_c, 0, 64, 76
1, 146868, Control_c, 0, 67, 91
1, 146883, Control_c, 0, 64, 79
1, 146883, Control_c, 0, 67, 89
1, 146897, Control_c, 0, 64, 82
1, 146897, Control_c, 0, 67, 88
1, 146912, Control_c, 0, 64, 85
1, 146912, Control_c, 0, 67, 87
1, 146927, Control_c, 0, 64, 90
1, 146927, Control_c, 0, 67, 85
1, 146941, Control_c, 0, 64, 94
1, 146941, Control_c, 0, 67, 83
1, 146956, Control_c, 0, 64, 100
1, 146956, Control_c, 0, 67, 81
1, 146971, Control_c, 0, 64, 107
1, 146971, Control_c, 0, 67, 80
1, 146986, Control_c, 0, 64, 118
1, 146986, Control_c, 0, 67, 79
1, 147001, Control_c, 0, 64, 127
1, 147056, Note_off_c, 0, 71, 53
1, 147082, Control_c, 0, 67, 78
1, 147112, Note_on_c, 0, 68, 76
1, 147121, Note_on_c, 0, 60, 68
1, 147141, Control_c, 0, 67, 78
1, 147214, Note_off_c, 0, 70, 64
1, 147297, Note_off_c, 0, 60, 62
1, 147335, Control_c, 0, 67, 78
1, 147338, Note_off_c, 0, 39, 37
1, 147344, Note_off_c, 0, 27, 33
1, 147379, Control_c, 0, 67, 79
1, 147423, Control_c, 0, 67, 79
1, 147498, Note_on_c, 0, 67, 75
1, 147512, Note_on_c, 0, 59, 64
1, 147535, Note_on_c, 0, 40, 46
1, 147536, Note_on_c, 0, 28, 49
1, 147586, Control_c, 0, 64, 112
1, 147599, Note_off_c, 0, 68, 62
1, 147601, Control_c, 0, 64, 104
1, 147616, Control_c, 0, 64, 96
1, 147631, Control_c, 0, 64, 89
1, 147646, Control_c, 0, 64, 82
1, 147661, Control_c, 0, 64, 75
1, 147676, Control_c, 0, 64, 68
1, 147691, Control_c, 0, 64, 61
1, 147705, Control_c, 0, 64, 52
1, 147705, Control_c, 0, 67, 79
1, 147720, Control_c, 0, 64, 38
1, 147735, Control_c, 0, 64, 0
1, 147935, Control_c, 0, 64, 31
1, 147950, Control_c, 0, 64, 40
1, 147965, Control_c, 0, 64, 49
1, 147971, Note_on_c, 0, 58, 62
1, 147980, Control_c, 0, 64, 56
1, 147995, Control_c, 0, 64, 59
1, 148009, Control_c, 0, 64, 61
1, 148024, Control_c, 0, 64, 64
1, 148024, Control_c, 0, 67, 78
1, 148038, Control_c, 0, 64, 66
1, 148053, Control_c, 0, 64, 68
1, 148053, Control_c, 0, 67, 78
1, 148068, Control_c, 0, 64, 71
1, 148083, Control_c, 0, 64, 74
1, 148097, Control_c, 0, 64, 77
1, 148097, Control_c, 0, 67, 77
1, 148112, Control_c, 0, 64, 82
1, 148123, Note_off_c, 0, 40, 57
1, 148127, Control_c, 0, 64, 88
1, 148127, Control_c, 0, 67, 77
1, 148142, Control_c, 0, 64, 93
1, 148157, Control_c, 0, 64, 98
1, 148171, Control_c, 0, 64, 103
1, 148186, Control_c, 0, 64, 108
1, 148186, Control_c, 0, 67, 76
1, 148188, Note_off_c, 0, 59, 54
1, 148201, Control_c, 0, 64, 113
1, 148216, Control_c, 0, 64, 118
1, 148231, Control_c, 0, 64, 121
1, 148245, Control_c, 0, 64, 126
1, 148325, Note_on_c, 0, 30, 63
1, 148329, Note_on_c, 0, 42, 55
1, 148349, Control_c, 0, 64, 116
1, 148364, Control_c, 0, 64, 103
1, 148379, Control_c, 0, 64, 88
1, 148379, Control_c, 0, 67, 76
1, 148394, Control_c, 0, 64, 74
1, 148408, Control_c, 0, 64, 62
1, 148411, Note_off_c, 0, 28, 37
1, 148423, Control_c, 0, 64, 52
1, 148439, Control_c, 0, 64, 50
1, 148454, Control_c, 0, 64, 55
1, 148469, Control_c, 0, 64, 62
1, 148483, Control_c, 0, 64, 66
1, 148498, Control_c, 0, 64, 70
1, 148498, Control_c, 0, 67, 75
1, 148513, Control_c, 0, 64, 75
1, 148513, Control_c, 0, 67, 75
1, 148528, Control_c, 0, 64, 79
1, 148528, Control_c, 0, 67, 74
1, 148543, Control_c, 0, 64, 85
1, 148543, Control_c, 0, 67, 69
1, 148558, Control_c, 0, 64, 91
1, 148558, Control_c, 0, 67, 59
1, 148580, Control_c, 0, 64, 98
1, 148580, Control_c, 0, 67, 50
1, 148594, Control_c, 0, 64, 103
1, 148594, Control_c, 0, 67, 42
1, 148609, Control_c, 0, 64, 107
1, 148609, Control_c, 0, 67, 37
1, 148624, Note_off_c, 0, 30, 61
1, 148624, Control_c, 0, 64, 109
1, 148624, Control_c, 0, 67, 33
1, 148668, Control_c, 0, 64, 105
1, 148683, Control_c, 0, 64, 94
1, 148683, Control_c, 0, 67, 32
1, 148698, Control_c, 0, 64, 80
1, 148702, Note_on_c, 0, 56, 76
1, 148710, Note_on_c, 0, 32, 61
1, 148713, Control_c, 0, 64, 69
1, 148728, Control_c, 0, 64, 64
1, 148728, Control_c, 0, 67, 32
1, 148743, Control_c, 0, 64, 65
1, 148758, Control_c, 0, 64, 68
1, 148773, Control_c, 0, 64, 74
1, 148781, Note_off_c, 0, 58, 61
1, 148788, Control_c, 0, 64, 81
1, 148802, Control_c, 0, 64, 89
1, 148817, Control_c, 0, 64, 103
1, 148817, Control_c, 0, 67, 29
1, 148817, Note_off_c, 0, 32, 52
1, 148832, Control_c, 0, 64, 127
1, 148832, Control_c, 0, 67, 27
1, 148847, Control_c, 0, 67, 23
1, 148861, Control_c, 0, 67, 0
1, 148922, Note_off_c, 0, 42, 40
1, 149029, Note_off_c, 0, 56, 59
1, 149098, Control_c, 0, 64, 103
1, 149102, Note_on_c, 0, 55, 81
1, 149112, Control_c, 0, 64, 84
1, 149114, Note_on_c, 0, 33, 76
1, 149127, Control_c, 0, 64, 70
1, 149142, Note_off_c, 0, 67, 61
1, 149142, Control_c, 0, 64, 59
1, 149157, Control_c, 0, 64, 33
1, 149172, Control_c, 0, 64, 0
1, 149329, Control_c, 0, 64, 41
1, 149343, Control_c, 0, 64, 65
1, 149346, Note_off_c, 0, 55, 64
1, 149358, Control_c, 0, 64, 79
1, 149373, Control_c, 0, 64, 127
1, 149658, Note_on_c, 0, 83, 95
1, 149677, Note_on_c, 0, 39, 68
1, 150011, Note_off_c, 0, 39, 37
1, 150034, Note_on_c, 0, 81, 97
1, 150052, Note_on_c, 0, 40, 71
1, 150054, Note_on_c, 0, 49, 87
1, 150093, Control_c, 0, 64, 90
1, 150103, Note_off_c, 0, 83, 55
1, 150108, Control_c, 0, 64, 68
1, 150123, Control_c, 0, 64, 55
1, 150153, Control_c, 0, 64, 62
1, 150167, Control_c, 0, 64, 71
1, 150182, Control_c, 0, 64, 85
1, 150197, Control_c, 0, 64, 113
1, 150212, Control_c, 0, 64, 127
1, 150259, Note_off_c, 0, 33, 38
1, 150302, Note_off_c, 0, 49, 62
1, 150370, Note_on_c, 0, 79, 101
1, 150383, Note_on_c, 0, 42, 76
1, 150384, Note_on_c, 0, 51, 87
1, 150397, Note_off_c, 0, 81, 68
1, 150408, Note_off_c, 0, 40, 58
1, 150466, Note_off_c, 0, 79, 67
1, 150472, Note_off_c, 0, 42, 62
1, 150716, Note_on_c, 0, 78, 93
1, 150717, Note_on_c, 0, 76, 87
1, 150734, Note_on_c, 0, 43, 77
1, 150789, Control_c, 0, 64, 107
1, 150804, Control_c, 0, 64, 87
1, 150826, Control_c, 0, 64, 71
1, 150842, Control_c, 0, 64, 55
1, 150857, Control_c, 0, 64, 0
1, 150975, Control_c, 0, 64, 46
1, 150990, Control_c, 0, 64, 59
1, 151005, Control_c, 0, 64, 60
1, 151011, Note_off_c, 0, 51, 57
1, 151020, Control_c, 0, 64, 61
1, 151034, Control_c, 0, 64, 62
1, 151049, Control_c, 0, 64, 62
1, 151064, Note_on_c, 0, 64, 71
1, 151064, Control_c, 0, 64, 61
1, 151068, Note_on_c, 0, 52, 75
1, 151079, Control_c, 0, 64, 57
1, 151094, Control_c, 0, 64, 52
1, 151097, Note_off_c, 0, 76, 62
1, 151108, Control_c, 0, 64, 48
1, 151123, Control_c, 0, 64, 50
1, 151138, Control_c, 0, 64, 54
1, 151153, Control_c, 0, 64, 59
1, 151168, Control_c, 0, 64, 63
1, 151182, Control_c, 0, 64, 66
1, 151197, Control_c, 0, 64, 70
1, 151212, Control_c, 0, 64, 74
1, 151227, Control_c, 0, 64, 78
1, 151241, Control_c, 0, 64, 81
1, 151256, Control_c, 0, 64, 84
1, 151271, Control_c, 0, 64, 87
1, 151286, Control_c, 0, 64, 91
1, 151301, Control_c, 0, 64, 97
1, 151315, Control_c, 0, 64, 102
1, 151330, Control_c, 0, 64, 104
1, 151381, Note_on_c, 0, 74, 77
1, 151388, Note_on_c, 0, 54, 67
1, 151390, Control_c, 0, 64, 99
1, 151405, Control_c, 0, 64, 85
1, 151420, Control_c, 0, 64, 71
1, 151434, Control_c, 0, 64, 61
1, 151446, Note_off_c, 0, 52, 59
1, 151449, Control_c, 0, 64, 57
1, 151461, Note_off_c, 0, 64, 60
1, 151464, Control_c, 0, 64, 61
1, 151479, Control_c, 0, 64, 65
1, 151494, Control_c, 0, 64, 69
1, 151508, Control_c, 0, 64, 74
1, 151523, Control_c, 0, 64, 80
1, 151533, Note_on_c, 0, 55, 84
1, 151538, Control_c, 0, 64, 85
1, 151539, Note_off_c, 0, 54, 64
1, 151553, Control_c, 0, 64, 91
1, 151575, Control_c, 0, 64, 96
1, 151590, Control_c, 0, 64, 101
1, 151604, Control_c, 0, 64, 108
1, 151619, Control_c, 0, 64, 116
1, 151624, Note_off_c, 0, 55, 63
1, 151635, Control_c, 0, 64, 127
1, 151679, Note_on_c, 0, 73, 85
1, 151686, Note_on_c, 0, 57, 79
1, 151694, Note_on_c, 0, 66, 63
1, 151710, Note_off_c, 0, 74, 58
1, 151733, Note_off_c, 0, 57, 63
1, 151819, Note_on_c, 0, 58, 84
1, 151834, Note_off_c, 0, 66, 58
1, 151856, Control_c, 0, 64, 118
1, 151871, Control_c, 0, 64, 103
1, 151886, Control_c, 0, 64, 91
1, 151901, Control_c, 0, 64, 81
1, 151916, Control_c, 0, 64, 73
1, 151930, Control_c, 0, 64, 64
1, 151945, Control_c, 0, 64, 52
1, 151950, Note_off_c, 0, 58, 62
1, 151960, Control_c, 0, 64, 0
1, 152031, Note_on_c, 0, 71, 70
1, 152043, Note_on_c, 0, 59, 63
1, 152045, Note_on_c, 0, 67, 57
1, 152046, Note_off_c, 0, 73, 57
1, 152182, Control_c, 0, 64, 62
1, 152185, Note_off_c, 0, 67, 64
1, 152197, Control_c, 0, 64, 73
1, 152198, Note_off_c, 0, 59, 65
1, 152206, Note_off_c, 0, 43, 61
1, 152212, Control_c, 0, 64, 81
1, 152219, Note_off_c, 0, 78, 62
1, 152220, Note_off_c, 0, 71, 64
1, 152227, Control_c, 0, 64, 92
1, 152242, Control_c, 0, 64, 117
1, 152256, Control_c, 0, 64, 127
1, 152508, Note_on_c, 0, 88, 95
1, 152528, Note_on_c, 0, 37, 72
1, 152838, Note_on_c, 0, 83, 96
1, 152847, Note_on_c, 0, 40, 76
1, 152858, Control_c, 0, 64, 94
1, 152873, Control_c, 0, 64, 76
1, 152887, Control_c, 0, 64, 67
1, 152895, Note_off_c, 0, 88, 63
1, 152902, Control_c, 0, 64, 68
1, 152917, Control_c, 0, 64, 76
1, 152932, Control_c, 0, 64, 92
1, 152947, Control_c, 0, 64, 127
1, 153044, Note_off_c, 0, 37, 56
1, 153149, Note_on_c, 0, 79, 97
1, 153152, Note_on_c, 0, 42, 80
1, 153161, Note_off_c, 0, 40, 60
1, 153176, Note_off_c, 0, 83, 64
1, 153216, Note_off_c, 0, 79, 66
1, 153268, Note_off_c, 0, 42, 52
1, 153491, Note_on_c, 0, 78, 87
1, 153500, Note_on_c, 0, 64, 74
1, 153503, Note_on_c, 0, 76, 78
1, 153514, Note_on_c, 0, 52, 67
1, 153515, Note_on_c, 0, 43, 65
1, 153577, Control_c, 0, 64, 105
1, 153591, Control_c, 0, 64, 85
1, 153606, Control_c, 0, 64, 70
1, 153616, Note_off_c, 0, 76, 62
1, 153621, Control_c, 0, 64, 54
1, 153635, Control_c, 0, 64, 0
1, 153838, Note_on_c, 0, 74, 74
1, 153840, Note_on_c, 0, 54, 64
1, 153880, Control_c, 0, 64, 39
1, 153895, Control_c, 0, 64, 57
1, 153904, Note_off_c, 0, 52, 61
1, 153909, Control_c, 0, 64, 63
1, 153919, Note_off_c, 0, 64, 61
1, 153924, Control_c, 0, 64, 66
1, 153939, Control_c, 0, 64, 69
1, 153953, Control_c, 0, 64, 75
1, 153968, Control_c, 0, 64, 80
1, 153974, Note_on_c, 0, 55, 71
1, 153976, Note_off_c, 0, 54, 63
1, 153983, Control_c, 0, 64, 84
1, 153998, Control_c, 0, 64, 86
1, 154013, Control_c, 0, 64, 87
1, 154028, Control_c, 0, 64, 87
1, 154073, Control_c, 0, 64, 87
1, 154088, Control_c, 0, 64, 86
1, 154102, Control_c, 0, 64, 84
1, 154114, Note_off_c, 0, 55, 56
1, 154117, Control_c, 0, 64, 82
1, 154132, Control_c, 0, 64, 79
1, 154144, Note_on_c, 0, 66, 75
1, 154147, Control_c, 0, 64, 73
1, 154151, Note_on_c, 0, 73, 68
1, 154162, Control_c, 0, 64, 66
1, 154175, Note_on_c, 0, 57, 64
1, 154177, Control_c, 0, 64, 58
1, 154192, Control_c, 0, 64, 38
1, 154206, Control_c, 0, 64, 0
1, 154217, Note_off_c, 0, 74, 57
1, 154310, Control_c, 0, 64, 49
1, 154325, Control_c, 0, 64, 62
1, 154339, Control_c, 0, 64, 65
1, 154354, Control_c, 0, 64, 70
1, 154360, Note_off_c, 0, 57, 62
1, 154369, Control_c, 0, 64, 75
1, 154383, Control_c, 0, 64, 82
1, 154398, Control_c, 0, 64, 88
1, 154413, Control_c, 0, 64, 93
1, 154428, Control_c, 0, 64, 95
1, 154467, Note_off_c, 0, 66, 61
1, 154517, Control_c, 0, 64, 94
1, 154532, Control_c, 0, 64, 93
1, 154538, Note_on_c, 0, 67, 71
1, 154542, Note_on_c, 0, 71, 65
1, 154554, Control_c, 0, 64, 92
1, 154569, Control_c, 0, 64, 89
1, 154576, Note_on_c, 0, 59, 45
1, 154583, Control_c, 0, 64, 84
1, 154598, Control_c, 0, 64, 76
1, 154601, Note_off_c, 0, 73, 59
1, 154613, Control_c, 0, 64, 66
1, 154628, Control_c, 0, 64, 52
1, 154643, Control_c, 0, 64, 33
1, 154657, Control_c, 0, 64, 30
1, 154672, Control_c, 0, 64, 42
1, 154687, Control_c, 0, 64, 58
1, 154702, Control_c, 0, 64, 66
1, 154717, Control_c, 0, 64, 72
1, 154729, Note_off_c, 0, 43, 55
1, 154731, Control_c, 0, 64, 76
1, 154746, Control_c, 0, 64, 78
1, 154776, Control_c, 0, 64, 76
1, 154791, Control_c, 0, 64, 71
1, 154806, Control_c, 0, 64, 66
1, 154821, Control_c, 0, 64, 61
1, 154837, Control_c, 0, 64, 55
1, 154852, Control_c, 0, 64, 45
1, 154867, Control_c, 0, 64, 0
1, 154867, Control_c, 0, 67, 22
1, 154881, Control_c, 0, 67, 24
1, 154896, Control_c, 0, 67, 26
1, 154926, Control_c, 0, 67, 30
1, 154941, Control_c, 0, 67, 32
1, 154947, Note_on_c, 0, 47, 67
1, 154955, Control_c, 0, 67, 33
1, 154970, Control_c, 0, 67, 34
1, 154985, Control_c, 0, 67, 35
1, 155000, Control_c, 0, 67, 37
1, 155015, Control_c, 0, 67, 38
1, 155030, Control_c, 0, 67, 38
1, 155083, Note_off_c, 0, 78, 61
1, 155089, Control_c, 0, 67, 38
1, 155104, Control_c, 0, 64, 47
1, 155104, Control_c, 0, 67, 37
1, 155119, Control_c, 0, 64, 62
1, 155119, Control_c, 0, 67, 37
1, 155134, Control_c, 0, 64, 68
1, 155149, Control_c, 0, 64, 77
1, 155149, Control_c, 0, 67, 36
1, 155163, Control_c, 0, 64, 83
1, 155178, Control_c, 0, 64, 86
1, 155178, Control_c, 0, 67, 36
1, 155193, Control_c, 0, 64, 88
1, 155281, Control_c, 0, 64, 87
1, 155285, Note_on_c, 0, 73, 80
1, 155296, Control_c, 0, 64, 83
1, 155319, Note_on_c, 0, 45, 59
1, 155319, Control_c, 0, 64, 76
1, 155319, Control_c, 0, 67, 36
1, 155334, Control_c, 0, 64, 67
1, 155334, Note_off_c, 0, 47, 59
1, 155348, Control_c, 0, 64, 55
1, 155363, Control_c, 0, 64, 46
1, 155378, Control_c, 0, 64, 44
1, 155393, Control_c, 0, 64, 48
1, 155407, Control_c, 0, 64, 56
1, 155422, Control_c, 0, 64, 62
1, 155437, Control_c, 0, 64, 67
1, 155452, Control_c, 0, 64, 77
1, 155452, Control_c, 0, 67, 37
1, 155467, Control_c, 0, 64, 89
1, 155481, Control_c, 0, 64, 101
1, 155496, Control_c, 0, 64, 110
1, 155511, Control_c, 0, 64, 113
1, 155585, Control_c, 0, 67, 37
1, 155599, Control_c, 0, 64, 109
1, 155600, Note_off_c, 0, 73, 61
1, 155604, Note_off_c, 0, 45, 60
1, 155614, Control_c, 0, 64, 101
1, 155614, Control_c, 0, 67, 38
1, 155616, Note_on_c, 0, 74, 80
1, 155630, Control_c, 0, 64, 92
1, 155632, Note_on_c, 0, 43, 61
1, 155645, Control_c, 0, 64, 82
1, 155660, Control_c, 0, 64, 67
1, 155675, Control_c, 0, 64, 53
1, 155685, Note_off_c, 0, 59, 40
1, 155690, Control_c, 0, 64, 0
1, 155734, Control_c, 0, 64, 41
1, 155745, Note_off_c, 0, 71, 38
1, 155749, Control_c, 0, 64, 58
1, 155754, Note_off_c, 0, 67, 60
1, 155764, Control_c, 0, 64, 64
1, 155778, Control_c, 0, 64, 68
1, 155793, Control_c, 0, 64, 72
1, 155808, Control_c, 0, 64, 76
1, 155822, Control_c, 0, 64, 81
1, 155837, Control_c, 0, 64, 84
1, 155852, Control_c, 0, 64, 87
1, 155867, Control_c, 0, 64, 87
1, 155942, Control_c, 0, 64, 86
1, 155957, Control_c, 0, 64, 85
1, 155971, Control_c, 0, 64, 83
1, 155975, Note_on_c, 0, 76, 83
1, 155977, Note_off_c, 0, 43, 30
1, 155986, Control_c, 0, 64, 80
1, 155987, Note_on_c, 0, 42, 61
1, 155990, Note_on_c, 0, 68, 65
1, 155991, Note_on_c, 0, 71, 62
1, 156001, Control_c, 0, 64, 75
1, 156009, Note_off_c, 0, 74, 62
1, 156016, Control_c, 0, 64, 67
1, 156030, Control_c, 0, 64, 59
1, 156045, Control_c, 0, 64, 42
1, 156067, Control_c, 0, 64, 0
1, 156067, Control_c, 0, 67, 38
1, 156156, Control_c, 0, 64, 30
1, 156156, Control_c, 0, 67, 39
1, 156171, Control_c, 0, 64, 51
1, 156186, Control_c, 0, 64, 62
1, 156193, Note_off_c, 0, 71, 63
1, 156201, Control_c, 0, 64, 67
1, 156216, Control_c, 0, 64, 71
1, 156230, Control_c, 0, 64, 74
1, 156245, Control_c, 0, 64, 78
1, 156260, Control_c, 0, 64, 84
1, 156275, Control_c, 0, 64, 90
1, 156290, Control_c, 0, 64, 96
1, 156302, Note_off_c, 0, 68, 59
1, 156304, Control_c, 0, 64, 99
1, 156428, Note_on_c, 0, 69, 65
1, 156428, Note_on_c, 0, 72, 64
1, 156428, Note_off_c, 0, 42, 38
1, 156429, Note_on_c, 0, 41, 62
1, 156453, Control_c, 0, 64, 97
1, 156468, Control_c, 0, 64, 94
1, 156483, Control_c, 0, 64, 91
1, 156498, Control_c, 0, 64, 85
1, 156513, Control_c, 0, 64, 79
1, 156527, Control_c, 0, 64, 74
1, 156542, Control_c, 0, 64, 67
1, 156557, Control_c, 0, 64, 61
1, 156571, Control_c, 0, 64, 53
1, 156586, Control_c, 0, 64, 40
1, 156601, Control_c, 0, 64, 0
1, 156878, Note_on_c, 0, 77, 69
1, 156963, Note_off_c, 0, 76, 62
1, 156994, Control_c, 0, 67, 38
1, 157054, Control_c, 0, 67, 38
1, 157068, Control_c, 0, 64, 33
1, 157083, Control_c, 0, 64, 45
1, 157083, Control_c, 0, 67, 37
1, 157098, Control_c, 0, 64, 55
1, 157098, Control_c, 0, 67, 37
1, 157113, Control_c, 0, 64, 61
1, 157128, Control_c, 0, 64, 63
1, 157143, Control_c, 0, 64, 64
1, 157217, Control_c, 0, 64, 63
1, 157232, Control_c, 0, 64, 62
1, 157247, Control_c, 0, 64, 58
1, 157248, Note_on_c, 0, 79, 85
1, 157262, Control_c, 0, 64, 53
1, 157277, Control_c, 0, 64, 49
1, 157292, Control_c, 0, 64, 46
1, 157306, Note_off_c, 0, 77, 62
1, 157322, Control_c, 0, 64, 47
1, 157337, Control_c, 0, 64, 51
1, 157351, Control_c, 0, 64, 54
1, 157366, Control_c, 0, 64, 57
1, 157381, Control_c, 0, 64, 61
1, 157395, Control_c, 0, 64, 64
1, 157395, Control_c, 0, 67, 36
1, 157410, Control_c, 0, 64, 67
1, 157410, Control_c, 0, 67, 36
1, 157425, Control_c, 0, 64, 70
1, 157440, Control_c, 0, 64, 75
1, 157455, Control_c, 0, 64, 80
1, 157455, Control_c, 0, 67, 35
1, 157469, Control_c, 0, 64, 85
1, 157484, Control_c, 0, 64, 91
1, 157499, Control_c, 0, 64, 99
1, 157504, Note_off_c, 0, 69, 61
1, 157514, Control_c, 0, 64, 117
1, 157529, Control_c, 0, 64, 127
1, 157627, Note_on_c, 0, 74, 68
1, 157631, Note_on_c, 0, 71, 62
1, 157675, Note_off_c, 0, 72, 61
1, 157729, Note_off_c, 0, 74, 65
1, 157801, Note_off_c, 0, 71, 55
1, 157999, Note_on_c, 0, 40, 69
1, 158000, Note_on_c, 0, 76, 67
1, 158002, Note_on_c, 0, 72, 64
1, 158007, Note_off_c, 0, 41, 38
1, 158070, Control_c, 0, 64, 111
1, 158085, Control_c, 0, 64, 94
1, 158100, Control_c, 0, 64, 80
1, 158115, Control_c, 0, 64, 66
1, 158130, Control_c, 0, 64, 51
1, 158144, Control_c, 0, 64, 0
1, 158219, Control_c, 0, 64, 42
1, 158233, Control_c, 0, 64, 61
1, 158248, Control_c, 0, 64, 66
1, 158263, Control_c, 0, 64, 69
1, 158278, Control_c, 0, 64, 71
1, 158300, Control_c, 0, 64, 73
1, 158314, Control_c, 0, 64, 74
1, 158325, Note_off_c, 0, 79, 66
1, 158359, Control_c, 0, 64, 70
1, 158373, Note_on_c, 0, 81, 84
1, 158374, Control_c, 0, 64, 65
1, 158389, Control_c, 0, 64, 59
1, 158404, Control_c, 0, 64, 56
1, 158419, Control_c, 0, 64, 60
1, 158433, Control_c, 0, 64, 64
1, 158434, Note_off_c, 0, 76, 62
1, 158448, Control_c, 0, 64, 70
1, 158463, Control_c, 0, 64, 75
1, 158469, Note_off_c, 0, 72, 62
1, 158478, Control_c, 0, 64, 80
1, 158493, Control_c, 0, 64, 87
1, 158507, Control_c, 0, 64, 97
1, 158521, Control_c, 0, 64, 107
1, 158536, Control_c, 0, 64, 127
1, 158565, Control_c, 0, 67, 35
1, 158779, Note_on_c, 0, 83, 89
1, 158797, Note_on_c, 0, 75, 62
1, 158798, Note_on_c, 0, 78, 61
1, 158801, Note_on_c, 0, 39, 59
1, 158803, Control_c, 0, 64, 119
1, 158804, Note_off_c, 0, 81, 63
1, 158818, Control_c, 0, 64, 104
1, 158833, Control_c, 0, 64, 92
1, 158848, Control_c, 0, 64, 82
1, 158863, Control_c, 0, 64, 73
1, 158878, Control_c, 0, 64, 65
1, 158889, Note_off_c, 0, 40, 57
1, 158893, Control_c, 0, 64, 55
1, 158908, Control_c, 0, 64, 39
1, 158922, Control_c, 0, 64, 0
1, 159026, Control_c, 0, 64, 30
1, 159041, Control_c, 0, 64, 38
1, 159063, Control_c, 0, 64, 39
1, 159078, Control_c, 0, 64, 40
1, 159092, Control_c, 0, 64, 40
1, 159107, Control_c, 0, 64, 37
1, 159122, Control_c, 0, 64, 0
1, 159213, Note_on_c, 0, 85, 87
1, 159241, Note_off_c, 0, 83, 65
1, 159359, Control_c, 0, 64, 38
1, 159373, Control_c, 0, 64, 55
1, 159388, Control_c, 0, 64, 63
1, 159403, Control_c, 0, 64, 66
1, 159418, Control_c, 0, 64, 69
1, 159433, Control_c, 0, 64, 74
1, 159447, Control_c, 0, 64, 81
1, 159462, Control_c, 0, 64, 92
1, 159477, Control_c, 0, 64, 107
1, 159492, Control_c, 0, 64, 127
1, 159684, Note_on_c, 0, 86, 86
1, 159701, Note_on_c, 0, 38, 62
1, 159742, Note_off_c, 0, 85, 63
1, 159756, Note_off_c, 0, 39, 39
1, 159760, Control_c, 0, 64, 109
1, 159775, Control_c, 0, 64, 100
1, 159790, Control_c, 0, 64, 92
1, 159811, Control_c, 0, 64, 85
1, 159826, Control_c, 0, 64, 79
1, 159841, Control_c, 0, 64, 72
1, 159856, Control_c, 0, 64, 65
1, 159871, Control_c, 0, 64, 57
1, 159885, Control_c, 0, 64, 41
1, 159900, Control_c, 0, 64, 0
1, 160023, Note_off_c, 0, 75, 63
1, 160034, Control_c, 0, 64, 36
1, 160049, Control_c, 0, 64, 51
1, 160064, Control_c, 0, 64, 59
1, 160079, Control_c, 0, 64, 62
1, 160094, Control_c, 0, 64, 63
1, 160109, Control_c, 0, 64, 64
1, 160123, Control_c, 0, 64, 64
1, 160138, Control_c, 0, 64, 66
1, 160140, Note_on_c, 0, 80, 66
1, 160153, Control_c, 0, 64, 68
1, 160154, Note_on_c, 0, 77, 55
1, 160168, Control_c, 0, 64, 70
1, 160183, Control_c, 0, 64, 73
1, 160191, Note_off_c, 0, 78, 54
1, 160197, Control_c, 0, 64, 75
1, 160197, Control_c, 0, 67, 35
1, 160212, Control_c, 0, 64, 78
1, 160227, Control_c, 0, 64, 81
1, 160242, Control_c, 0, 64, 85
1, 160257, Control_c, 0, 64, 90
1, 160271, Control_c, 0, 64, 96
1, 160286, Control_c, 0, 64, 103
1, 160301, Control_c, 0, 64, 111
1, 160315, Control_c, 0, 64, 116
1, 160330, Control_c, 0, 64, 118
1, 160345, Control_c, 0, 64, 126
1, 160376, Note_off_c, 0, 80, 57
1, 160389, Control_c, 0, 67, 36
1, 160480, Control_c, 0, 64, 122
1, 160494, Control_c, 0, 64, 116
1, 160509, Control_c, 0, 64, 110
1, 160524, Control_c, 0, 64, 104
1, 160532, Note_on_c, 0, 81, 71
1, 160546, Control_c, 0, 64, 98
1, 160552, Note_on_c, 0, 78, 61
1, 160554, Note_on_c, 0, 50, 53
1, 160561, Control_c, 0, 64, 91
1, 160576, Control_c, 0, 64, 84
1, 160591, Control_c, 0, 64, 77
1, 160606, Control_c, 0, 64, 71
1, 160609, Note_off_c, 0, 77, 38
1, 160620, Control_c, 0, 64, 64
1, 160635, Control_c, 0, 64, 54
1, 160650, Control_c, 0, 64, 37
1, 160665, Control_c, 0, 64, 0
1, 160739, Control_c, 0, 67, 36
1, 160798, Control_c, 0, 67, 37
1, 160917, Control_c, 0, 64, 34
1, 160932, Control_c, 0, 64, 49
1, 160946, Control_c, 0, 64, 59
1, 160961, Control_c, 0, 64, 63
1, 160966, Note_on_c, 0, 47, 47
1, 160976, Control_c, 0, 64, 65
1, 160991, Control_c, 0, 64, 66
1, 161006, Control_c, 0, 64, 68
1, 161020, Control_c, 0, 64, 71
1, 161035, Control_c, 0, 64, 76
1, 161050, Control_c, 0, 64, 81
1, 161056, Note_off_c, 0, 50, 36
1, 161064, Control_c, 0, 64, 88
1, 161079, Control_c, 0, 64, 97
1, 161091, Note_off_c, 0, 38, 54
1, 161094, Control_c, 0, 64, 108
1, 161109, Control_c, 0, 64, 127
1, 161145, Note_off_c, 0, 47, 61
1, 161163, Note_off_c, 0, 86, 57
1, 161364, Note_on_c, 0, 74, 74
1, 161388, Note_on_c, 0, 55, 45
1, 161621, Control_c, 0, 67, 37
1, 161636, Control_c, 0, 67, 38
1, 161751, Note_off_c, 0, 55, 37
1, 161756, Note_on_c, 0, 50, 62
1, 161769, Control_c, 0, 67, 38
1, 161814, Control_c, 0, 67, 39
1, 161917, Control_c, 0, 67, 39
1, 161932, Control_c, 0, 67, 40
1, 161991, Control_c, 0, 67, 40
1, 162006, Control_c, 0, 67, 41
1, 162022, Control_c, 0, 67, 41
1, 162044, Control_c, 0, 67, 42
1, 162059, Control_c, 0, 67, 42
1, 162073, Control_c, 0, 67, 44
1, 162088, Control_c, 0, 67, 51
1, 162103, Control_c, 0, 67, 55
1, 162118, Control_c, 0, 67, 58
1, 162133, Control_c, 0, 67, 58
1, 162148, Control_c, 0, 67, 59
1, 162163, Control_c, 0, 67, 59
1, 162175, Note_on_c, 0, 59, 54
1, 162192, Control_c, 0, 64, 116
1, 162207, Control_c, 0, 64, 109
1, 162207, Control_c, 0, 67, 60
1, 162222, Control_c, 0, 64, 104
1, 162237, Control_c, 0, 64, 101
1, 162237, Control_c, 0, 67, 60
1, 162252, Control_c, 0, 64, 98
1, 162266, Control_c, 0, 64, 96
1, 162281, Control_c, 0, 64, 94
1, 162281, Control_c, 0, 67, 61
1, 162296, Control_c, 0, 64, 92
1, 162296, Control_c, 0, 67, 63
1, 162311, Control_c, 0, 64, 90
1, 162311, Control_c, 0, 67, 69
1, 162325, Control_c, 0, 64, 89
1, 162325, Control_c, 0, 67, 74
1, 162340, Control_c, 0, 64, 88
1, 162340, Control_c, 0, 67, 79
1, 162355, Control_c, 0, 64, 87
1, 162355, Control_c, 0, 67, 84
1, 162370, Control_c, 0, 64, 86
1, 162370, Control_c, 0, 67, 89
1, 162385, Control_c, 0, 64, 85
1, 162385, Control_c, 0, 67, 92
1, 162399, Control_c, 0, 64, 84
1, 162399, Control_c, 0, 67, 95
1, 162410, Note_off_c, 0, 50, 38
1, 162414, Control_c, 0, 64, 83
1, 162414, Control_c, 0, 67, 97
1, 162429, Control_c, 0, 64, 82
1, 162429, Control_c, 0, 67, 99
1, 162444, Control_c, 0, 64, 81
1, 162459, Control_c, 0, 64, 80
1, 162459, Control_c, 0, 67, 101
1, 162473, Control_c, 0, 64, 79
1, 162488, Control_c, 0, 64, 78
1, 162503, Control_c, 0, 64, 78
1, 162518, Control_c, 0, 64, 77
1, 162532, Control_c, 0, 64, 76
1, 162547, Control_c, 0, 64, 76
1, 162562, Control_c, 0, 64, 75
1, 162577, Control_c, 0, 64, 75
1, 162592, Control_c, 0, 64, 74
1, 162606, Note_on_c, 0, 54, 51
1, 162607, Control_c, 0, 64, 74
1, 162637, Control_c, 0, 64, 73
1, 162651, Control_c, 0, 64, 73
1, 162666, Control_c, 0, 64, 72
1, 162681, Control_c, 0, 64, 72
1, 162690, Note_off_c, 0, 59, 53
1, 162696, Control_c, 0, 64, 71
1, 162711, Control_c, 0, 64, 71
1, 162725, Control_c, 0, 64, 70
1, 162755, Control_c, 0, 64, 70
1, 162785, Control_c, 0, 64, 69
1, 162822, Control_c, 0, 64, 69
1, 162837, Control_c, 0, 64, 68
1, 162852, Control_c, 0, 64, 68
1, 162896, Control_c, 0, 64, 67
1, 162911, Control_c, 0, 64, 67
1, 162941, Control_c, 0, 64, 66
1, 162956, Control_c, 0, 64, 66
1, 162986, Control_c, 0, 64, 65
1, 163000, Control_c, 0, 64, 65
1, 163030, Control_c, 0, 64, 64
1, 163060, Control_c, 0, 64, 64
1, 163089, Control_c, 0, 64, 63
1, 163091, Note_on_c, 0, 62, 44
1, 163119, Control_c, 0, 64, 63
1, 163134, Control_c, 0, 64, 62
1, 163163, Control_c, 0, 64, 62
1, 163178, Control_c, 0, 64, 61
1, 163193, Control_c, 0, 64, 60
1, 163208, Control_c, 0, 64, 59
1, 163222, Control_c, 0, 64, 59
1, 163237, Control_c, 0, 64, 58
1, 163252, Control_c, 0, 64, 58
1, 163266, Control_c, 0, 64, 57
1, 163276, Note_off_c, 0, 54, 36
1, 163281, Control_c, 0, 64, 56
1, 163296, Control_c, 0, 64, 55
1, 163311, Control_c, 0, 64, 54
1, 163326, Control_c, 0, 64, 52
1, 163340, Control_c, 0, 64, 51
1, 163355, Control_c, 0, 64, 50
1, 163370, Control_c, 0, 64, 49
1, 163385, Control_c, 0, 64, 48
1, 163400, Control_c, 0, 64, 47
1, 163415, Control_c, 0, 64, 46
1, 163430, Control_c, 0, 64, 43
1, 163445, Control_c, 0, 64, 40
1, 163460, Control_c, 0, 64, 37
1, 163474, Control_c, 0, 64, 32
1, 163474, Control_c, 0, 67, 103
1, 163489, Control_c, 0, 64, 0
1, 163615, Control_c, 0, 67, 107
1, 163631, Control_c, 0, 67, 112
1, 163645, Control_c, 0, 67, 116
1, 163838, Control_c, 0, 64, 37
1, 163853, Control_c, 0, 64, 44
1, 163868, Control_c, 0, 64, 49
1, 163883, Control_c, 0, 64, 53
1, 163897, Control_c, 0, 64, 55
1, 163912, Control_c, 0, 64, 58
1, 163927, Control_c, 0, 64, 60
1, 163942, Control_c, 0, 64, 61
1, 163957, Control_c, 0, 64, 61
1, 163986, Control_c, 0, 64, 62
1, 164001, Control_c, 0, 64, 62
1, 164013, Note_on_c, 0, 50, 36
1, 164016, Control_c, 0, 64, 63
1, 164104, Control_c, 0, 64, 62
1, 164119, Control_c, 0, 64, 60
1, 164134, Control_c, 0, 64, 56
1, 164149, Control_c, 0, 64, 52
1, 164163, Control_c, 0, 64, 46
1, 164178, Control_c, 0, 64, 35
1, 164193, Control_c, 0, 64, 0
1, 164393, Control_c, 0, 64, 36
1, 164408, Control_c, 0, 64, 46
1, 164424, Control_c, 0, 64, 54
1, 164439, Control_c, 0, 64, 57
1, 164454, Control_c, 0, 64, 58
1, 164468, Control_c, 0, 64, 60
1, 164483, Control_c, 0, 64, 62
1, 164498, Control_c, 0, 64, 64
1, 164513, Control_c, 0, 64, 66
1, 164527, Control_c, 0, 64, 68
1, 164542, Control_c, 0, 64, 70
1, 164557, Control_c, 0, 64, 73
1, 164572, Control_c, 0, 64, 76
1, 164587, Control_c, 0, 64, 78
1, 164601, Control_c, 0, 64, 81
1, 164616, Control_c, 0, 64, 84
1, 164625, Note_off_c, 0, 62, 52
1, 164631, Control_c, 0, 64, 88
1, 164646, Control_c, 0, 64, 91
1, 164661, Control_c, 0, 64, 96
1, 164676, Control_c, 0, 64, 100
1, 164691, Control_c, 0, 64, 105
1, 164706, Control_c, 0, 64, 112
1, 164720, Control_c, 0, 64, 127
1, 165247, Control_c, 0, 67, 118
1, 165307, Control_c, 0, 67, 121
1, 165322, Control_c, 0, 67, 127
1, 165677, Control_c, 0, 64, 119
1, 165692, Control_c, 0, 64, 114
1, 165707, Control_c, 0, 64, 111
1, 165722, Control_c, 0, 64, 108
1, 165734, Note_on_c, 0, 38, 31
1, 165736, Control_c, 0, 64, 106
1, 165751, Control_c, 0, 64, 103
1, 165766, Control_c, 0, 64, 100
1, 165781, Control_c, 0, 64, 97
1, 165803, Control_c, 0, 64, 95
1, 165817, Control_c, 0, 64, 93
1, 165832, Control_c, 0, 64, 91
1, 165847, Control_c, 0, 64, 89
1, 165862, Control_c, 0, 64, 86
1, 165877, Control_c, 0, 64, 82
1, 165892, Control_c, 0, 64, 78
1, 165907, Control_c, 0, 64, 75
1, 165922, Control_c, 0, 64, 71
1, 165936, Control_c, 0, 64, 67
1, 165951, Control_c, 0, 64, 63
1, 165966, Control_c, 0, 64, 59
1, 165981, Control_c, 0, 64, 54
1, 165995, Control_c, 0, 64, 50
1, 166011, Control_c, 0, 64, 43
1, 166026, Control_c, 0, 64, 31
1, 166041, Control_c, 0, 64, 0
1, 166248, Control_c, 0, 64, 41
1, 166263, Control_c, 0, 64, 51
1, 166278, Control_c, 0, 64, 57
1, 166292, Control_c, 0, 64, 60
1, 166307, Control_c, 0, 64, 62
1, 166322, Control_c, 0, 64, 64
1, 166337, Control_c, 0, 64, 65
1, 166352, Control_c, 0, 64, 68
1, 166366, Control_c, 0, 64, 70
1, 166381, Control_c, 0, 64, 72
1, 166396, Control_c, 0, 64, 75
1, 166407, Note_off_c, 0, 81, 38
1, 166411, Control_c, 0, 64, 77
1, 166420, Note_off_c, 0, 78, 58
1, 166426, Control_c, 0, 64, 80
1, 166428, Note_off_c, 0, 74, 40
1, 166440, Control_c, 0, 64, 83
1, 166455, Control_c, 0, 64, 86
1, 166470, Control_c, 0, 64, 88
1, 166485, Control_c, 0, 64, 90
1, 166500, Control_c, 0, 64, 92
1, 166515, Control_c, 0, 64, 95
1, 166530, Control_c, 0, 64, 98
1, 166552, Control_c, 0, 64, 101
1, 166566, Control_c, 0, 64, 105
1, 166581, Control_c, 0, 64, 111
1, 166596, Control_c, 0, 64, 119
1, 166611, Control_c, 0, 64, 127
1, 166863, Control_c, 0, 67, 123
1, 166878, Control_c, 0, 67, 111
1, 166893, Control_c, 0, 67, 100
1, 166907, Control_c, 0, 67, 90
1, 166922, Control_c, 0, 67, 82
1, 166937, Control_c, 0, 67, 75
1, 166952, Control_c, 0, 67, 68
1, 166967, Control_c, 0, 67, 59
1, 166981, Control_c, 0, 67, 53
1, 166996, Control_c, 0, 67, 52
1, 167049, Note_off_c, 0, 50, 41
1, 167055, Control_c, 0, 67, 52
1, 167070, Control_c, 0, 67, 53
1, 167085, Control_c, 0, 67, 55
1, 167100, Control_c, 0, 67, 56
1, 167108, Note_off_c, 0, 38, 41
1, 167114, Control_c, 0, 67, 57
1, 167129, Control_c, 0, 67, 57
1, 167144, Control_c, 0, 67, 58
1, 167159, Control_c, 0, 67, 59
1, 167174, Control_c, 0, 67, 59
1, 167189, Control_c, 0, 67, 60
1, 167204, Control_c, 0, 67, 60
1, 167218, Control_c, 0, 67, 61
1, 167233, Control_c, 0, 67, 62
1, 167248, Control_c, 0, 67, 62
1, 167263, Control_c, 0, 67, 63
1, 167278, Control_c, 0, 67, 63
1, 167300, Control_c, 0, 67, 64
1, 167314, Control_c, 0, 67, 65
1, 167329, Control_c, 0, 67, 65
1, 167344, Control_c, 0, 67, 66
1, 167359, Control_c, 0, 64, 121
1, 167359, Control_c, 0, 67, 66
1, 167374, Control_c, 0, 64, 108
1, 167374, Control_c, 0, 67, 67
1, 167388, Control_c, 0, 64, 103
1, 167388, Control_c, 0, 67, 68
1, 167403, Control_c, 0, 64, 99
1, 167403, Control_c, 0, 67, 69
1, 167418, Control_c, 0, 64, 94
1, 167418, Control_c, 0, 67, 72
1, 167429, Note_on_c, 0, 62, 50
1, 167433, Control_c, 0, 64, 90
1, 167433, Control_c, 0, 67, 74
1, 167448, Control_c, 0, 64, 85
1, 167448, Control_c, 0, 67, 75
1, 167463, Control_c, 0, 64, 79
1, 167478, Control_c, 0, 64, 75
1, 167493, Control_c, 0, 64, 70
1, 167508, Control_c, 0, 64, 65
1, 167522, Control_c, 0, 64, 59
1, 167522, Control_c, 0, 67, 75
1, 167537, Control_c, 0, 64, 52
1, 167552, Control_c, 0, 64, 41
1, 167567, Control_c, 0, 64, 0
1, 167567, Control_c, 0, 67, 76
1, 167701, Control_c, 0, 64, 50
1, 167716, Control_c, 0, 64, 61
1, 167730, Control_c, 0, 64, 67
1, 167745, Control_c, 0, 64, 73
1, 167760, Control_c, 0, 64, 80
1, 167775, Control_c, 0, 64, 86
1, 167790, Control_c, 0, 64, 93
1, 167804, Control_c, 0, 64, 101
1, 167819, Control_c, 0, 64, 107
1, 167834, Control_c, 0, 64, 113
1, 167840, Note_off_c, 0, 62, 53
1, 167849, Control_c, 0, 64, 121
1, 167863, Control_c, 0, 64, 127
1, 167982, Note_on_c, 0, 62, 54
1, 168404, Control_c, 0, 67, 76
1, 168420, Control_c, 0, 67, 77
1, 168435, Control_c, 0, 67, 77
1, 168450, Control_c, 0, 67, 78
1, 168464, Control_c, 0, 67, 80
1, 168479, Control_c, 0, 67, 91
1, 168494, Control_c, 0, 67, 104
1, 168509, Control_c, 0, 67, 112
1, 168524, Control_c, 0, 67, 118
1, 168539, Control_c, 0, 67, 122
1, 168553, Control_c, 0, 67, 126
1, 168783, Control_c, 0, 64, 121
1, 168798, Control_c, 0, 64, 116
1, 168812, Control_c, 0, 64, 113
1, 168827, Control_c, 0, 64, 109
1, 168832, Note_on_c, 0, 49, 56
1, 168842, Control_c, 0, 64, 105
1, 168845, Note_on_c, 0, 31, 41
1, 168855, Note_on_c, 0, 38, 35
1, 168857, Control_c, 0, 64, 102
1, 168872, Control_c, 0, 64, 99
1, 168886, Control_c, 0, 64, 96
1, 168901, Control_c, 0, 64, 92
1, 168916, Control_c, 0, 64, 86
1, 168931, Control_c, 0, 64, 80
1, 168946, Control_c, 0, 64, 72
1, 168953, Note_off_c, 0, 62, 38
1, 168960, Control_c, 0, 64, 65
1, 168975, Control_c, 0, 64, 56
1, 168990, Control_c, 0, 64, 45
1, 169004, Control_c, 0, 64, 0
1, 169242, Control_c, 0, 64, 43
1, 169257, Control_c, 0, 64, 54
1, 169272, Control_c, 0, 64, 57
1, 169287, Control_c, 0, 64, 60
1, 169302, Control_c, 0, 64, 63
1, 169316, Control_c, 0, 64, 67
1, 169331, Control_c, 0, 64, 71
1, 169346, Control_c, 0, 64, 75
1, 169361, Control_c, 0, 64, 79
1, 169375, Control_c, 0, 64, 83
1, 169390, Control_c, 0, 64, 89
1, 169405, Control_c, 0, 64, 100
1, 169420, Control_c, 0, 64, 116
1, 169434, Control_c, 0, 64, 127
1, 169490, Note_off_c, 0, 31, 38
1, 169495, Note_off_c, 0, 38, 39
1, 169559, Note_off_c, 0, 49, 36
1, 170021, Control_c, 0, 67, 122
1, 170036, Control_c, 0, 67, 119
1, 170051, Control_c, 0, 67, 114
1, 170065, Control_c, 0, 67, 107
1, 170080, Control_c, 0, 67, 99
1, 170095, Control_c, 0, 67, 90
1, 170110, Control_c, 0, 67, 82
1, 170125, Control_c, 0, 67, 73
1, 170140, Control_c, 0, 67, 65
1, 170155, Control_c, 0, 67, 57
1, 170170, Control_c, 0, 67, 50
1, 170184, Control_c, 0, 67, 44
1, 170199, Control_c, 0, 67, 41
1, 170214, Control_c, 0, 67, 39
1, 170325, Control_c, 0, 67, 40
1, 170354, Control_c, 0, 67, 40
1, 170369, Control_c, 0, 67, 41
1, 170399, Control_c, 0, 67, 41
1, 170414, Control_c, 0, 67, 42
1, 170429, Control_c, 0, 67, 42
1, 170458, Control_c, 0, 67, 43
1, 170488, Control_c, 0, 67, 43
1, 170532, Control_c, 0, 67, 44
1, 170547, Control_c, 0, 67, 44
1, 170621, Control_c, 0, 67, 45
1, 170665, Control_c, 0, 67, 45
1, 170800, Note_on_c, 0, 86, 68
1, 170816, Note_on_c, 0, 74, 40
1, 170903, Note_off_c, 0, 74, 53
1, 171094, Note_off_c, 0, 86, 33
1, 171296, Control_c, 0, 67, 46
1, 171547, Control_c, 0, 67, 46
1, 171682, Control_c, 0, 67, 47
1, 171726, Control_c, 0, 67, 47
1, 171755, Control_c, 0, 67, 48
1, 171778, Control_c, 0, 67, 48
1, 171808, Control_c, 0, 67, 49
1, 171837, Control_c, 0, 67, 49
1, 171852, Control_c, 0, 67, 50
1, 171867, Control_c, 0, 67, 50
1, 171897, Control_c, 0, 67, 51
1, 171911, Control_c, 0, 67, 51
1, 171926, Control_c, 0, 67, 52
1, 171941, Control_c, 0, 67, 52
1, 171955, Control_c, 0, 67, 53
1, 171970, Control_c, 0, 67, 53
1, 171985, Control_c, 0, 67, 54
1, 172000, Control_c, 0, 67, 54
1, 172015, Control_c, 0, 67, 55
1, 172030, Control_c, 0, 67, 55
1, 172045, Control_c, 0, 67, 56
1, 172059, Control_c, 0, 67, 59
1, 172074, Control_c, 0, 67, 65
1, 172089, Control_c, 0, 67, 70
1, 172104, Control_c, 0, 67, 74
1, 172119, Control_c, 0, 67, 77
1, 172134, Control_c, 0, 67, 79
1, 172149, Control_c, 0, 67, 79
1, 172163, Control_c, 0, 67, 80
1, 172267, Control_c, 0, 67, 79
1, 172326, Control_c, 0, 67, 79
1, 172438, Note_on_c, 0, 85, 48
1, 172449, Note_on_c, 0, 70, 36
1, 172542, Control_c, 0, 67, 78
1, 172637, Note_on_c, 0, 82, 60
1, 172637, Note_off_c, 0, 70, 38
1, 172675, Control_c, 0, 67, 78
1, 172685, Note_on_c, 0, 67, 20
1, 172771, Note_off_c, 0, 85, 34
1, 172845, Note_off_c, 0, 67, 33
1, 172852, Note_on_c, 0, 62, 43
1, 172862, Note_on_c, 0, 79, 59
1, 172916, Note_off_c, 0, 82, 54
1, 173243, Note_on_c, 0, 82, 65
1, 173252, Note_on_c, 0, 67, 38
1, 173276, Control_c, 0, 67, 77
1, 173294, Note_off_c, 0, 62, 31
1, 173344, Note_off_c, 0, 79, 63
1, 173492, Note_off_c, 0, 82, 57
1, 173527, Control_c, 0, 67, 77
1, 173577, Note_on_c, 0, 81, 60
1, 173592, Note_on_c, 0, 69, 46
1, 173629, Note_off_c, 0, 67, 36
1, 173779, Control_c, 0, 67, 76
1, 173955, Note_on_c, 0, 74, 55
1, 173965, Note_on_c, 0, 70, 41
1, 173991, Note_off_c, 0, 69, 35
1, 174015, Note_off_c, 0, 81, 59
1, 174332, Note_on_c, 0, 81, 61
1, 174370, Note_on_c, 0, 69, 40
1, 174380, Note_off_c, 0, 70, 35
1, 174788, Note_on_c, 0, 79, 53
1, 174800, Note_on_c, 0, 67, 36
1, 174814, Note_off_c, 0, 69, 39
1, 174887, Note_off_c, 0, 74, 41
1, 174951, Note_off_c, 0, 81, 30
1, 175190, Note_off_c, 0, 67, 30
1, 175350, Note_on_c, 0, 86, 62
1, 175369, Note_on_c, 0, 74, 38
1, 175423, Note_off_c, 0, 79, 38
1, 175695, Note_off_c, 0, 86, 37
1, 175923, Control_c, 0, 67, 77
1, 175987, Note_on_c, 0, 62, 59
1, 176164, Note_off_c, 0, 74, 53
1, 176371, Note_off_c, 0, 62, 60
1, 176493, Note_on_c, 0, 62, 72
1, 176553, Control_c, 0, 64, 119
1, 176568, Control_c, 0, 64, 98
1, 176583, Control_c, 0, 64, 86
1, 176598, Control_c, 0, 64, 78
1, 176613, Control_c, 0, 64, 69
1, 176627, Control_c, 0, 64, 55
1, 176642, Control_c, 0, 64, 0
1, 176701, Control_c, 0, 64, 50
1, 176716, Control_c, 0, 64, 62
1, 176731, Control_c, 0, 64, 69
1, 176745, Control_c, 0, 64, 75
1, 176760, Control_c, 0, 64, 82
1, 176775, Control_c, 0, 64, 91
1, 176790, Control_c, 0, 64, 106
1, 176805, Control_c, 0, 64, 127
1, 176842, Note_off_c, 0, 62, 57
1, 176951, Note_on_c, 0, 62, 76
1, 177302, Control_c, 0, 67, 77
1, 177316, Control_c, 0, 67, 78
1, 177346, Control_c, 0, 67, 78
1, 177361, Control_c, 0, 67, 79
1, 177405, Control_c, 0, 67, 79
1, 177420, Control_c, 0, 67, 80
1, 177553, Control_c, 0, 67, 80
1, 177598, Control_c, 0, 64, 121
1, 177613, Control_c, 0, 64, 109
1, 177628, Control_c, 0, 64, 104
1, 177642, Control_c, 0, 64, 100
1, 177657, Control_c, 0, 64, 97
1, 177663, Note_on_c, 0, 49, 72
1, 177672, Control_c, 0, 64, 93
1, 177682, Note_on_c, 0, 31, 49
1, 177687, Control_c, 0, 64, 89
1, 177693, Note_on_c, 0, 38, 46
1, 177701, Control_c, 0, 64, 84
1, 177716, Control_c, 0, 64, 79
1, 177731, Control_c, 0, 64, 74
1, 177746, Control_c, 0, 64, 68
1, 177746, Control_c, 0, 67, 80
1, 177761, Control_c, 0, 64, 60
1, 177762, Note_off_c, 0, 62, 42
1, 177783, Control_c, 0, 64, 30
1, 177798, Control_c, 0, 64, 0
1, 177991, Control_c, 0, 67, 81
1, 178006, Control_c, 0, 64, 35
1, 178021, Control_c, 0, 64, 54
1, 178036, Control_c, 0, 64, 66
1, 178051, Control_c, 0, 64, 75
1, 178063, Note_off_c, 0, 31, 63
1, 178066, Control_c, 0, 64, 88
1, 178081, Control_c, 0, 64, 103
1, 178096, Control_c, 0, 64, 127
1, 178105, Note_off_c, 0, 49, 55
1, 178119, Note_off_c, 0, 38, 41
1, 178140, Control_c, 0, 67, 80
1, 178170, Control_c, 0, 67, 79
1, 178185, Control_c, 0, 67, 79
1, 178214, Control_c, 0, 67, 78
1, 178244, Control_c, 0, 67, 77
1, 178259, Control_c, 0, 67, 77
1, 178738, Note_on_c, 0, 86, 67
1, 178773, Note_on_c, 0, 74, 29
1, 178963, Control_c, 0, 67, 76
1, 178993, Control_c, 0, 67, 76
1, 179037, Control_c, 0, 67, 75
1, 179116, Note_on_c, 0, 82, 71
1, 179149, Note_on_c, 0, 70, 39
1, 179226, Note_off_c, 0, 86, 62
1, 179285, Note_off_c, 0, 74, 20
1, 179458, Note_on_c, 0, 84, 75
1, 179479, Note_off_c, 0, 82, 55
1, 179485, Note_on_c, 0, 62, 38
1, 179568, Note_off_c, 0, 70, 33
1, 179690, Note_on_c, 0, 73, 45
1, 179792, Note_off_c, 0, 73, 0
1, 179829, Poly_aftertouch_c, 0, 73, 127
1, 179873, Note_on_c, 0, 85, 73
1, 179901, Note_on_c, 0, 69, 40
1, 179902, Note_off_c, 0, 84, 63
1, 179909, Poly_aftertouch_c, 0, 73, 0
1, 179996, Note_off_c, 0, 85, 63
1, 180045, Control_c, 0, 67, 76
1, 180465, Note_on_c, 0, 70, 51
1, 180503, Note_off_c, 0, 62, 30
1, 180561, Note_off_c, 0, 69, 33
1, 180702, Note_on_c, 0, 81, 67
1, 180722, Note_on_c, 0, 72, 42
1, 180723, Note_off_c, 0, 70, 36
1, 180986, Control_c, 0, 67, 76
1, 181001, Control_c, 0, 67, 77
1, 181075, Control_c, 0, 64, 109
1, 181090, Control_c, 0, 64, 105
1, 181090, Control_c, 0, 67, 77
1, 181105, Control_c, 0, 64, 101
1, 181119, Control_c, 0, 64, 97
1, 181134, Control_c, 0, 64, 92
1, 181149, Control_c, 0, 64, 88
1, 181164, Control_c, 0, 64, 83
1, 181164, Control_c, 0, 67, 78
1, 181179, Control_c, 0, 64, 80
1, 181195, Control_c, 0, 64, 78
1, 181209, Control_c, 0, 64, 75
1, 181224, Control_c, 0, 64, 71
1, 181224, Control_c, 0, 67, 78
1, 181239, Control_c, 0, 64, 67
1, 181239, Control_c, 0, 67, 79
1, 181254, Control_c, 0, 64, 64
1, 181268, Control_c, 0, 64, 60
1, 181283, Control_c, 0, 64, 58
1, 181298, Control_c, 0, 64, 56
1, 181313, Control_c, 0, 64, 55
1, 181328, Control_c, 0, 64, 53
1, 181328, Control_c, 0, 67, 79
1, 181342, Control_c, 0, 64, 49
1, 181357, Control_c, 0, 64, 43
1, 181372, Control_c, 0, 64, 33
1, 181387, Control_c, 0, 64, 0
1, 181537, Note_on_c, 0, 42, 42
1, 181542, Control_c, 0, 64, 31
1, 181546, Note_on_c, 0, 30, 41
1, 181557, Control_c, 0, 64, 40
1, 181572, Control_c, 0, 64, 48
1, 181587, Control_c, 0, 64, 55
1, 181587, Control_c, 0, 67, 79
1, 181602, Control_c, 0, 64, 60
1, 181616, Control_c, 0, 64, 63
1, 181631, Control_c, 0, 64, 65
1, 181646, Control_c, 0, 64, 67
1, 181646, Control_c, 0, 67, 78
1, 181661, Control_c, 0, 64, 68
1, 181661, Control_c, 0, 67, 78
1, 181676, Control_c, 0, 64, 72
1, 181691, Control_c, 0, 64, 78
1, 181693, Note_off_c, 0, 42, 41
1, 181706, Control_c, 0, 64, 86
1, 181706, Control_c, 0, 67, 77
1, 181721, Control_c, 0, 64, 96
1, 181734, Control_c, 0, 64, 107
1, 181734, Control_c, 0, 67, 77
1, 181749, Control_c, 0, 64, 127
1, 181762, Note_off_c, 0, 30, 39
1, 181764, Control_c, 0, 67, 76
1, 181779, Control_c, 0, 67, 75
1, 181794, Control_c, 0, 67, 74
1, 181808, Control_c, 0, 67, 73
1, 181823, Control_c, 0, 67, 72
1, 181838, Control_c, 0, 67, 71
1, 181853, Control_c, 0, 67, 69
1, 181867, Control_c, 0, 67, 68
1, 181882, Control_c, 0, 67, 66
1, 181897, Control_c, 0, 67, 64
1, 181912, Control_c, 0, 67, 63
1, 181927, Control_c, 0, 67, 61
1, 181941, Control_c, 0, 67, 55
1, 181956, Control_c, 0, 67, 47
1, 181971, Control_c, 0, 67, 38
1, 181987, Control_c, 0, 67, 27
1, 182002, Control_c, 0, 67, 0
1, 182067, Note_on_c, 0, 84, 73
1, 182105, Note_on_c, 0, 75, 47
1, 182247, Note_off_c, 0, 81, 39
1, 182320, Note_off_c, 0, 72, 39
1, 182320, Control_c, 0, 67, 20
1, 182335, Control_c, 0, 67, 22
1, 182364, Control_c, 0, 67, 25
1, 182379, Control_c, 0, 67, 27
1, 182394, Control_c, 0, 67, 29
1, 182409, Control_c, 0, 67, 31
1, 182424, Control_c, 0, 67, 34
1, 182439, Control_c, 0, 67, 37
1, 182454, Control_c, 0, 67, 43
1, 182469, Control_c, 0, 67, 49
1, 182484, Control_c, 0, 67, 54
1, 182499, Control_c, 0, 67, 60
1, 182513, Control_c, 0, 67, 65
1, 182528, Control_c, 0, 67, 70
1, 182543, Control_c, 0, 67, 75
1, 182558, Control_c, 0, 67, 81
1, 182573, Control_c, 0, 64, 116
1, 182573, Control_c, 0, 67, 85
1, 182588, Control_c, 0, 64, 111
1, 182588, Control_c, 0, 67, 89
1, 182603, Control_c, 0, 64, 105
1, 182603, Control_c, 0, 67, 91
1, 182617, Control_c, 0, 64, 99
1, 182617, Control_c, 0, 67, 94
1, 182632, Control_c, 0, 64, 94
1, 182632, Control_c, 0, 67, 95
1, 182647, Control_c, 0, 64, 90
1, 182650, Note_on_c, 0, 28, 45
1, 182658, Note_on_c, 0, 40, 39
1, 182662, Control_c, 0, 64, 86
1, 182662, Control_c, 0, 67, 98
1, 182677, Control_c, 0, 64, 81
1, 182691, Control_c, 0, 64, 75
1, 182706, Control_c, 0, 64, 68
1, 182721, Control_c, 0, 64, 60
1, 182736, Control_c, 0, 64, 46
1, 182751, Control_c, 0, 64, 0
1, 182855, Control_c, 0, 64, 44
1, 182870, Control_c, 0, 64, 55
1, 182885, Control_c, 0, 64, 59
1, 182900, Control_c, 0, 64, 62
1, 182914, Control_c, 0, 64, 64
1, 182929, Control_c, 0, 64, 67
1, 182944, Control_c, 0, 64, 71
1, 182955, Note_off_c, 0, 84, 57
1, 182959, Control_c, 0, 64, 76
1, 182974, Control_c, 0, 64, 82
1, 182988, Control_c, 0, 64, 88
1, 183011, Control_c, 0, 64, 93
1, 183026, Control_c, 0, 64, 98
1, 183040, Control_c, 0, 64, 102
1, 183055, Control_c, 0, 64, 104
1, 183070, Control_c, 0, 64, 107
1, 183100, Control_c, 0, 64, 110
1, 183187, Note_on_c, 0, 83, 61
1, 183208, Note_on_c, 0, 74, 43
1, 183257, Note_off_c, 0, 75, 58
1, 183259, Note_off_c, 0, 74, 0
1, 183259, Note_on_c, 0, 74, 21
1, 183262, Control_c, 0, 64, 112
1, 183306, Control_c, 0, 64, 115
1, 183351, Control_c, 0, 64, 117
1, 183366, Control_c, 0, 64, 119
1, 183392, Note_on_c, 0, 79, 72
1, 183426, Note_off_c, 0, 83, 61
1, 183439, Control_c, 0, 64, 122
1, 183505, Note_off_c, 0, 74, 54
1, 183537, Note_off_c, 0, 79, 60
1, 183572, Control_c, 0, 64, 117
1, 183589, Control_c, 0, 64, 110
1, 183603, Control_c, 0, 64, 104
1, 183604, Note_on_c, 0, 76, 68
1, 183618, Control_c, 0, 64, 100
1, 183619, Note_on_c, 0, 72, 53
1, 183633, Control_c, 0, 64, 98
1, 183648, Control_c, 0, 64, 96
1, 183662, Control_c, 0, 64, 94
1, 183677, Control_c, 0, 64, 94
1, 183706, Note_off_c, 0, 72, 0
1, 183706, Note_on_c, 0, 72, 4
1, 183774, Control_c, 0, 67, 96
1, 183789, Control_c, 0, 64, 94
1, 183804, Control_c, 0, 64, 95
1, 183818, Control_c, 0, 64, 95
1, 183848, Control_c, 0, 64, 96
1, 183862, Control_c, 0, 67, 95
1, 183876, Note_off_c, 0, 72, 53
1, 183968, Note_on_c, 0, 79, 74
1, 183995, Note_on_c, 0, 71, 55
1, 184003, Note_off_c, 0, 76, 63
1, 184218, Control_c, 0, 64, 95
1, 184248, Control_c, 0, 64, 94
1, 184262, Control_c, 0, 64, 94
1, 184277, Control_c, 0, 64, 92
1, 184292, Control_c, 0, 64, 89
1, 184307, Control_c, 0, 64, 85
1, 184322, Control_c, 0, 64, 77
1, 184326, Note_on_c, 0, 78, 72
1, 184336, Control_c, 0, 64, 70
1, 184341, Note_on_c, 0, 70, 52
1, 184351, Control_c, 0, 64, 64
1, 184366, Control_c, 0, 64, 61
1, 184367, Note_off_c, 0, 71, 40
1, 184382, Control_c, 0, 64, 62
1, 184397, Control_c, 0, 64, 64
1, 184412, Control_c, 0, 64, 66
1, 184426, Control_c, 0, 64, 69
1, 184441, Control_c, 0, 64, 73
1, 184456, Control_c, 0, 64, 77
1, 184471, Control_c, 0, 64, 80
1, 184478, Note_off_c, 0, 79, 59
1, 184485, Control_c, 0, 64, 82
1, 184490, Note_off_c, 0, 78, 64
1, 184508, Control_c, 0, 64, 84
1, 184523, Control_c, 0, 64, 86
1, 184537, Control_c, 0, 64, 87
1, 184552, Control_c, 0, 64, 88
1, 184567, Control_c, 0, 64, 88
1, 184656, Control_c, 0, 64, 88
1, 184671, Control_c, 0, 64, 87
1, 184685, Control_c, 0, 64, 87
1, 184700, Control_c, 0, 64, 86
1, 184715, Control_c, 0, 64, 84
1, 184718, Note_on_c, 0, 71, 65
1, 184730, Control_c, 0, 64, 81
1, 184731, Note_on_c, 0, 69, 45
1, 184745, Control_c, 0, 64, 76
1, 184759, Control_c, 0, 64, 69
1, 184774, Control_c, 0, 64, 63
1, 184788, Note_off_c, 0, 70, 40
1, 184789, Control_c, 0, 64, 56
1, 184803, Control_c, 0, 64, 49
1, 184818, Control_c, 0, 64, 45
1, 184833, Control_c, 0, 64, 47
1, 184848, Control_c, 0, 64, 52
1, 184863, Control_c, 0, 64, 58
1, 184877, Control_c, 0, 64, 63
1, 184892, Control_c, 0, 64, 67
1, 184907, Control_c, 0, 64, 70
1, 184922, Control_c, 0, 64, 73
1, 184937, Control_c, 0, 64, 76
1, 184952, Control_c, 0, 64, 80
1, 184967, Control_c, 0, 64, 82
1, 184982, Control_c, 0, 64, 82
1, 185085, Control_c, 0, 64, 82
1, 185100, Control_c, 0, 64, 81
1, 185115, Control_c, 0, 64, 81
1, 185130, Control_c, 0, 64, 80
1, 185145, Control_c, 0, 64, 79
1, 185159, Control_c, 0, 64, 78
1, 185172, Note_on_c, 0, 76, 56
1, 185174, Control_c, 0, 64, 76
1, 185190, Control_c, 0, 64, 75
1, 185199, Note_on_c, 0, 67, 29
1, 185205, Control_c, 0, 64, 73
1, 185220, Control_c, 0, 64, 72
1, 185231, Note_off_c, 0, 69, 31
1, 185234, Control_c, 0, 64, 70
1, 185249, Control_c, 0, 64, 67
1, 185271, Control_c, 0, 64, 65
1, 185282, Note_off_c, 0, 71, 45
1, 185286, Control_c, 0, 64, 62
1, 185301, Control_c, 0, 64, 60
1, 185315, Control_c, 0, 64, 57
1, 185330, Control_c, 0, 64, 53
1, 185345, Control_c, 0, 64, 45
1, 185360, Control_c, 0, 64, 0
1, 185598, Control_c, 0, 64, 41
1, 185613, Control_c, 0, 64, 53
1, 185627, Control_c, 0, 64, 58
1, 185642, Control_c, 0, 64, 61
1, 185657, Control_c, 0, 64, 63
1, 185672, Control_c, 0, 64, 67
1, 185687, Control_c, 0, 64, 71
1, 185701, Control_c, 0, 64, 76
1, 185716, Control_c, 0, 64, 80
1, 185731, Control_c, 0, 64, 83
1, 185746, Control_c, 0, 64, 87
1, 185750, Note_off_c, 0, 76, 59
1, 185760, Control_c, 0, 64, 92
1, 185775, Control_c, 0, 64, 96
1, 185790, Control_c, 0, 64, 98
1, 186051, Control_c, 0, 64, 95
1, 186065, Control_c, 0, 64, 93
1, 186080, Control_c, 0, 64, 90
1, 186082, Note_on_c, 0, 74, 50
1, 186095, Control_c, 0, 64, 86
1, 186110, Control_c, 0, 64, 82
1, 186125, Control_c, 0, 64, 77
1, 186139, Control_c, 0, 64, 73
1, 186154, Control_c, 0, 64, 70
1, 186169, Control_c, 0, 64, 69
1, 186183, Control_c, 0, 64, 70
1, 186198, Control_c, 0, 64, 71
1, 186213, Control_c, 0, 64, 73
1, 186228, Control_c, 0, 64, 76
1, 186243, Control_c, 0, 64, 79
1, 186257, Control_c, 0, 64, 82
1, 186272, Control_c, 0, 64, 84
1, 186287, Control_c, 0, 64, 86
1, 186302, Control_c, 0, 64, 88
1, 186317, Control_c, 0, 64, 89
1, 186332, Control_c, 0, 64, 90
1, 186365, Note_off_c, 0, 67, 48
1, 186436, Control_c, 0, 64, 89
1, 186450, Control_c, 0, 64, 89
1, 186465, Control_c, 0, 64, 87
1, 186480, Control_c, 0, 64, 84
1, 186495, Control_c, 0, 64, 81
1, 186497, Note_on_c, 0, 71, 55
1, 186507, Note_on_c, 0, 63, 42
1, 186510, Control_c, 0, 64, 77
1, 186524, Control_c, 0, 64, 72
1, 186539, Control_c, 0, 64, 67
1, 186554, Control_c, 0, 64, 61
1, 186554, Control_c, 0, 67, 95
1, 186559, Note_off_c, 0, 74, 57
1, 186569, Control_c, 0, 64, 59
1, 186583, Control_c, 0, 64, 59
1, 186598, Control_c, 0, 64, 62
1, 186613, Control_c, 0, 64, 64
1, 186628, Control_c, 0, 64, 67
1, 186643, Control_c, 0, 64, 70
1, 186657, Control_c, 0, 64, 73
1, 186672, Control_c, 0, 64, 76
1, 186687, Control_c, 0, 64, 78
1, 186702, Control_c, 0, 64, 80
1, 186717, Control_c, 0, 64, 80
1, 186782, Note_off_c, 0, 63, 47
1, 186844, Control_c, 0, 64, 80
1, 186874, Control_c, 0, 64, 79
1, 186888, Control_c, 0, 64, 78
1, 186897, Note_on_c, 0, 62, 54
1, 186903, Control_c, 0, 64, 77
1, 186918, Note_on_c, 0, 64, 40
1, 186918, Control_c, 0, 64, 76
1, 186933, Control_c, 0, 64, 75
1, 186948, Control_c, 0, 64, 74
1, 186962, Control_c, 0, 64, 73
1, 186977, Control_c, 0, 64, 72
1, 186992, Control_c, 0, 64, 69
1, 187003, Note_off_c, 0, 71, 39
1, 187006, Control_c, 0, 64, 66
1, 187021, Control_c, 0, 64, 62
1, 187036, Control_c, 0, 64, 57
1, 187051, Control_c, 0, 64, 48
1, 187066, Control_c, 0, 64, 39
1, 187080, Control_c, 0, 64, 0
1, 187140, Control_c, 0, 64, 32
1, 187155, Control_c, 0, 64, 35
1, 187170, Control_c, 0, 64, 36
1, 187274, Note_on_c, 0, 72, 50
1, 187288, Control_c, 0, 64, 36
1, 187303, Control_c, 0, 64, 38
1, 187318, Control_c, 0, 64, 41
1, 187332, Control_c, 0, 64, 44
1, 187347, Control_c, 0, 64, 48
1, 187362, Control_c, 0, 64, 51
1, 187369, Note_off_c, 0, 64, 57
1, 187377, Control_c, 0, 64, 53
1, 187392, Control_c, 0, 64, 55
1, 187406, Control_c, 0, 64, 57
1, 187421, Control_c, 0, 64, 60
1, 187436, Control_c, 0, 64, 62
1, 187451, Control_c, 0, 64, 64
1, 187466, Control_c, 0, 64, 65
1, 187480, Control_c, 0, 64, 65
1, 187503, Control_c, 0, 64, 66
1, 187518, Control_c, 0, 64, 66
1, 187637, Control_c, 0, 64, 66
1, 187676, Note_on_c, 0, 69, 46
1, 187682, Control_c, 0, 64, 65
1, 187697, Control_c, 0, 64, 64
1, 187711, Control_c, 0, 64, 62
1, 187726, Control_c, 0, 64, 58
1, 187741, Control_c, 0, 64, 53
1, 187755, Control_c, 0, 64, 43
1, 187760, Note_off_c, 0, 72, 60
1, 187770, Control_c, 0, 64, 37
1, 187785, Control_c, 0, 64, 42
1, 187800, Control_c, 0, 64, 51
1, 187815, Control_c, 0, 64, 59
1, 187829, Control_c, 0, 64, 65
1, 187844, Control_c, 0, 64, 69
1, 187859, Control_c, 0, 64, 71
1, 187870, Note_off_c, 0, 62, 60
1, 187874, Control_c, 0, 64, 73
1, 187889, Control_c, 0, 64, 75
1, 187903, Control_c, 0, 64, 78
1, 187918, Control_c, 0, 64, 80
1, 187933, Control_c, 0, 64, 81
1, 187948, Control_c, 0, 64, 82
1, 187992, Control_c, 0, 64, 81
1, 188007, Control_c, 0, 64, 80
1, 188022, Control_c, 0, 64, 76
1, 188037, Control_c, 0, 64, 71
1, 188052, Control_c, 0, 64, 64
1, 188067, Control_c, 0, 64, 57
1, 188070, Note_on_c, 0, 70, 47
1, 188073, Note_on_c, 0, 60, 41
1, 188082, Control_c, 0, 64, 47
1, 188097, Control_c, 0, 64, 39
1, 188111, Control_c, 0, 64, 39
1, 188126, Control_c, 0, 64, 45
1, 188126, Control_c, 0, 67, 95
1, 188129, Note_off_c, 0, 69, 57
1, 188141, Control_c, 0, 64, 56
1, 188155, Control_c, 0, 64, 63
1, 188170, Control_c, 0, 64, 68
1, 188183, Note_off_c, 0, 28, 61
1, 188185, Control_c, 0, 64, 73
1, 188200, Control_c, 0, 64, 77
1, 188215, Control_c, 0, 64, 81
1, 188216, Note_off_c, 0, 40, 62
1, 188229, Control_c, 0, 64, 86
1, 188244, Control_c, 0, 64, 96
1, 188244, Control_c, 0, 67, 95
1, 188264, Note_off_c, 0, 60, 57
1, 188267, Control_c, 0, 64, 107
1, 188281, Control_c, 0, 64, 127
1, 188281, Control_c, 0, 67, 94
1, 188355, Control_c, 0, 67, 94
1, 188401, Control_c, 0, 67, 93
1, 188494, Note_on_c, 0, 71, 66
1, 188502, Note_on_c, 0, 59, 50
1, 188519, Note_on_c, 0, 47, 49
1, 188564, Note_off_c, 0, 70, 61
1, 188756, Control_c, 0, 64, 102
1, 188770, Control_c, 0, 64, 91
1, 188785, Control_c, 0, 64, 83
1, 188800, Control_c, 0, 64, 75
1, 188815, Control_c, 0, 64, 68
1, 188830, Control_c, 0, 64, 62
1, 188845, Control_c, 0, 64, 55
1, 188860, Control_c, 0, 64, 54
1, 188875, Control_c, 0, 64, 56
1, 188890, Control_c, 0, 64, 59
1, 188904, Control_c, 0, 64, 61
1, 188912, Note_on_c, 0, 68, 65
1, 188919, Control_c, 0, 64, 63
1, 188927, Note_on_c, 0, 56, 50
1, 188934, Control_c, 0, 64, 67
1, 188949, Control_c, 0, 64, 71
1, 188964, Control_c, 0, 64, 77
1, 188978, Control_c, 0, 64, 82
1, 188978, Control_c, 0, 67, 93
1, 188993, Control_c, 0, 64, 87
1, 189015, Control_c, 0, 64, 91
1, 189030, Control_c, 0, 64, 98
1, 189033, Note_off_c, 0, 71, 61
1, 189042, Note_off_c, 0, 59, 40
1, 189045, Control_c, 0, 64, 107
1, 189047, Note_off_c, 0, 56, 43
1, 189060, Control_c, 0, 64, 127
1, 189131, Note_off_c, 0, 47, 53
1, 189253, Control_c, 0, 67, 93
1, 189370, Note_on_c, 0, 67, 66
1, 189384, Note_on_c, 0, 55, 46
1, 189387, Control_c, 0, 64, 116
1, 189401, Control_c, 0, 64, 110
1, 189416, Control_c, 0, 64, 105
1, 189431, Control_c, 0, 64, 102
1, 189446, Control_c, 0, 64, 99
1, 189449, Note_off_c, 0, 68, 61
1, 189461, Control_c, 0, 64, 95
1, 189475, Control_c, 0, 64, 92
1, 189490, Control_c, 0, 64, 89
1, 189505, Control_c, 0, 64, 88
1, 189519, Control_c, 0, 64, 85
1, 189534, Control_c, 0, 64, 80
1, 189549, Control_c, 0, 64, 71
1, 189564, Control_c, 0, 64, 58
1, 189579, Control_c, 0, 64, 0
1, 189742, Control_c, 0, 67, 93
1, 189779, Control_c, 0, 67, 92
1, 189818, Note_on_c, 0, 62, 82
1, 189823, Control_c, 0, 67, 92
1, 189838, Control_c, 0, 67, 91
1, 189868, Control_c, 0, 67, 91
1, 189882, Control_c, 0, 67, 90
1, 189897, Control_c, 0, 64, 30
1, 189912, Control_c, 0, 64, 41
1, 189912, Control_c, 0, 67, 90
1, 189927, Control_c, 0, 64, 51
1, 189927, Control_c, 0, 67, 89
1, 189942, Control_c, 0, 64, 59
1, 189942, Control_c, 0, 67, 88
1, 189957, Control_c, 0, 64, 62
1, 189957, Control_c, 0, 67, 87
1, 189972, Control_c, 0, 64, 62
1, 189972, Control_c, 0, 67, 87
1, 189987, Control_c, 0, 64, 64
1, 189987, Control_c, 0, 67, 86
1, 190002, Control_c, 0, 64, 65
1, 190017, Control_c, 0, 64, 68
1, 190017, Control_c, 0, 67, 86
1, 190031, Control_c, 0, 64, 70
1, 190031, Control_c, 0, 67, 85
1, 190046, Control_c, 0, 64, 74
1, 190046, Control_c, 0, 67, 84
1, 190061, Control_c, 0, 64, 78
1, 190061, Control_c, 0, 67, 83
1, 190076, Control_c, 0, 64, 83
1, 190091, Control_c, 0, 64, 89
1, 190091, Control_c, 0, 67, 83
1, 190106, Control_c, 0, 64, 97
1, 190106, Control_c, 0, 67, 82
1, 190121, Control_c, 0, 64, 107
1, 190129, Note_on_c, 0, 27, 65
1, 190136, Control_c, 0, 64, 127
1, 190136, Control_c, 0, 67, 82
1, 190150, Control_c, 0, 67, 81
1, 190165, Control_c, 0, 67, 81
1, 190165, Note_off_c, 0, 62, 57
1, 190195, Control_c, 0, 67, 80
1, 190196, Note_on_c, 0, 34, 59
1, 190210, Control_c, 0, 67, 79
1, 190221, Note_off_c, 0, 27, 63
1, 190224, Control_c, 0, 67, 74
1, 190239, Control_c, 0, 67, 68
1, 190254, Control_c, 0, 67, 63
1, 190269, Control_c, 0, 67, 58
1, 190277, Note_on_c, 0, 62, 87
1, 190284, Control_c, 0, 67, 54
1, 190295, Note_on_c, 0, 46, 76
1, 190298, Control_c, 0, 67, 51
1, 190313, Control_c, 0, 67, 47
1, 190316, Note_off_c, 0, 34, 58
1, 190323, Note_off_c, 0, 46, 68
1, 190328, Control_c, 0, 67, 42
1, 190342, Control_c, 0, 67, 38
1, 190357, Control_c, 0, 67, 35
1, 190372, Control_c, 0, 67, 32
1, 190387, Control_c, 0, 67, 29
1, 190402, Control_c, 0, 67, 26
1, 190416, Control_c, 0, 67, 24
1, 190431, Control_c, 0, 67, 21
1, 190446, Control_c, 0, 67, 0
1, 190583, Note_off_c, 0, 62, 60
1, 190646, Control_c, 0, 67, 19
1, 190675, Control_c, 0, 67, 21
1, 190702, Note_on_c, 0, 62, 90
1, 190736, Control_c, 0, 67, 23
1, 190811, Control_c, 0, 67, 26
1, 190840, Note_off_c, 0, 55, 50
1, 190854, Note_off_c, 0, 67, 64
1, 190870, Control_c, 0, 67, 28
1, 190881, Note_off_c, 0, 62, 63
1, 190915, Control_c, 0, 67, 30
1, 190973, Control_c, 0, 67, 32
1, 191018, Control_c, 0, 67, 33
1, 191027, Note_on_c, 0, 27, 67
1, 191063, Control_c, 0, 67, 34
1, 191078, Control_c, 0, 67, 35
1, 191092, Control_c, 0, 67, 39
1, 191107, Control_c, 0, 67, 45
1, 191122, Control_c, 0, 67, 52
1, 191131, Note_on_c, 0, 34, 61
1, 191137, Control_c, 0, 67, 58
1, 191152, Control_c, 0, 67, 64
1, 191166, Control_c, 0, 67, 69
1, 191177, Note_off_c, 0, 34, 61
1, 191181, Control_c, 0, 67, 73
1, 191196, Control_c, 0, 67, 75
1, 191211, Control_c, 0, 67, 76
1, 191228, Note_off_c, 0, 27, 57
1, 191292, Control_c, 0, 67, 75
1, 191297, Note_on_c, 0, 49, 91
1, 191307, Note_on_c, 0, 54, 5
1, 191322, Control_c, 0, 67, 75
1, 191366, Note_off_c, 0, 54, 50
1, 191367, Control_c, 0, 67, 74
1, 191381, Control_c, 0, 67, 74
1, 191396, Control_c, 0, 67, 73
1, 191426, Control_c, 0, 67, 73
1, 191469, Control_c, 0, 67, 72
1, 191528, Control_c, 0, 67, 72
1, 191550, Note_off_c, 0, 49, 66
1, 191663, Control_c, 0, 67, 71
1, 191677, Control_c, 0, 67, 71
1, 191692, Control_c, 0, 67, 70
1, 191707, Control_c, 0, 67, 70
1, 191751, Control_c, 0, 67, 69
1, 191781, Control_c, 0, 67, 69
1, 191912, Note_on_c, 0, 67, 64
1, 191950, Note_on_c, 0, 55, 41
1, 192100, Control_c, 0, 67, 68
1, 192115, Control_c, 0, 67, 68
1, 192144, Control_c, 0, 67, 67
1, 192159, Control_c, 0, 67, 67
1, 192174, Control_c, 0, 67, 66
1, 192189, Control_c, 0, 67, 66
1, 192203, Control_c, 0, 67, 65
1, 192222, Note_off_c, 0, 55, 36
1, 192233, Control_c, 0, 67, 65
1, 192244, Note_off_c, 0, 67, 64
1, 192319, Note_on_c, 0, 67, 74
1, 192339, Note_on_c, 0, 55, 51
1, 192412, Control_c, 0, 67, 64
1, 192441, Control_c, 0, 67, 64
1, 192486, Control_c, 0, 67, 63
1, 192500, Control_c, 0, 67, 63
1, 192515, Control_c, 0, 67, 62
1, 192530, Control_c, 0, 67, 62
1, 192544, Control_c, 0, 67, 61
1, 192559, Control_c, 0, 67, 60
1, 192589, Control_c, 0, 67, 60
1, 192604, Control_c, 0, 67, 59
1, 192649, Control_c, 0, 67, 59
1, 192683, Note_on_c, 0, 69, 76
1, 192693, Control_c, 0, 67, 58
1, 192699, Note_on_c, 0, 57, 53
1, 192738, Control_c, 0, 67, 58
1, 192759, Control_c, 0, 67, 57
1, 192774, Control_c, 0, 67, 56
1, 192789, Control_c, 0, 67, 54
1, 192804, Control_c, 0, 67, 52
1, 192809, Note_off_c, 0, 55, 54
1, 192818, Control_c, 0, 67, 50
1, 192833, Control_c, 0, 67, 48
1, 192848, Note_off_c, 0, 67, 37
1, 192848, Control_c, 0, 67, 45
1, 192863, Control_c, 0, 67, 43
1, 192878, Control_c, 0, 67, 42
1, 192893, Control_c, 0, 67, 40
1, 192908, Control_c, 0, 67, 39
1, 192923, Control_c, 0, 67, 37
1, 192938, Control_c, 0, 67, 34
1, 192952, Control_c, 0, 67, 30
1, 192967, Control_c, 0, 67, 27
1, 192982, Control_c, 0, 67, 23
1, 192997, Control_c, 0, 67, 20
1, 193012, Control_c, 0, 67, 0
1, 193036, Note_on_c, 0, 72, 76
1, 193042, Note_on_c, 0, 60, 52
1, 193081, Note_off_c, 0, 57, 59
1, 193177, Note_off_c, 0, 69, 60
1, 193389, Note_on_c, 0, 69, 79
1, 193399, Note_on_c, 0, 57, 60
1, 193409, Note_off_c, 0, 60, 37
1, 193439, Note_off_c, 0, 72, 66
1, 193733, Note_on_c, 0, 79, 84
1, 193969, Note_off_c, 0, 69, 49
1, 194062, Note_on_c, 0, 77, 80
1, 194073, Note_on_c, 0, 60, 67
1, 194172, Note_off_c, 0, 79, 62
1, 194416, Note_on_c, 0, 69, 84
1, 194434, Note_on_c, 0, 63, 62
1, 194440, Note_off_c, 0, 77, 35
1, 194510, Control_c, 0, 64, 100
1, 194524, Control_c, 0, 64, 81
1, 194539, Control_c, 0, 64, 75
1, 194554, Control_c, 0, 64, 74
1, 194569, Control_c, 0, 64, 76
1, 194584, Control_c, 0, 64, 81
1, 194598, Control_c, 0, 64, 88
1, 194613, Control_c, 0, 64, 92
1, 194643, Control_c, 0, 64, 91
1, 194680, Note_off_c, 0, 57, 36
1, 194702, Control_c, 0, 64, 90
1, 194711, Note_off_c, 0, 60, 31
1, 194717, Control_c, 0, 64, 87
1, 194732, Control_c, 0, 64, 79
1, 194747, Control_c, 0, 64, 72
1, 194758, Note_on_c, 0, 70, 89
1, 194762, Control_c, 0, 64, 66
1, 194774, Note_on_c, 0, 67, 61
1, 194777, Control_c, 0, 64, 65
1, 194792, Control_c, 0, 64, 66
1, 194807, Control_c, 0, 64, 71
1, 194817, Note_off_c, 0, 69, 60
1, 194822, Control_c, 0, 64, 77
1, 194837, Control_c, 0, 64, 81
1, 194851, Control_c, 0, 64, 84
1, 194866, Control_c, 0, 64, 87
1, 194869, Note_off_c, 0, 63, 38
1, 194881, Control_c, 0, 64, 93
1, 194896, Control_c, 0, 64, 103
1, 194911, Control_c, 0, 64, 127
1, 194939, Note_off_c, 0, 67, 59
1, 195089, Note_on_c, 0, 71, 91
1, 195129, Note_off_c, 0, 70, 64
1, 195373, Note_off_c, 0, 71, 62
1, 195433, Note_on_c, 0, 77, 90
1, 195451, Note_on_c, 0, 73, 61
1, 195577, Note_off_c, 0, 77, 64
1, 195703, Note_on_c, 0, 78, 86
1, 195805, Note_on_c, 0, 81, 94
1, 195814, Note_on_c, 0, 77, 73
1, 195832, Note_off_c, 0, 78, 63
1, 195904, Control_c, 0, 64, 112
1, 195919, Control_c, 0, 64, 99
1, 195934, Control_c, 0, 64, 81
1, 195949, Control_c, 0, 64, 65
1, 195962, Control_c, 0, 64, 41
1, 195977, Control_c, 0, 64, 0
1, 196068, Note_off_c, 0, 73, 35
1, 196095, Control_c, 0, 64, 41
1, 196110, Control_c, 0, 64, 51
1, 196125, Control_c, 0, 64, 59
1, 196140, Control_c, 0, 64, 62
1, 196155, Control_c, 0, 64, 63
1, 196159, Note_on_c, 0, 79, 99
1, 196169, Control_c, 0, 64, 64
1, 196173, Note_on_c, 0, 75, 64
1, 196184, Control_c, 0, 64, 66
1, 196199, Control_c, 0, 64, 68
1, 196214, Control_c, 0, 64, 72
1, 196221, Note_off_c, 0, 81, 58
1, 196229, Control_c, 0, 64, 78
1, 196243, Control_c, 0, 64, 86
1, 196258, Control_c, 0, 64, 95
1, 196273, Control_c, 0, 64, 107
1, 196288, Control_c, 0, 64, 127
1, 196357, Note_off_c, 0, 77, 51
1, 196495, Note_off_c, 0, 75, 59
1, 196546, Note_on_c, 0, 89, 95
1, 196554, Note_on_c, 0, 74, 61
1, 196675, Note_off_c, 0, 79, 55
1, 196682, Control_c, 0, 64, 116
1, 196697, Control_c, 0, 64, 97
1, 196711, Control_c, 0, 64, 91
1, 196726, Control_c, 0, 64, 90
1, 196741, Control_c, 0, 64, 91
1, 196756, Control_c, 0, 64, 94
1, 196771, Control_c, 0, 64, 97
1, 196785, Control_c, 0, 64, 100
1, 196815, Control_c, 0, 64, 103
1, 196830, Control_c, 0, 64, 106
1, 196844, Control_c, 0, 64, 110
1, 196859, Control_c, 0, 64, 112
1, 196893, Note_on_c, 0, 79, 89
1, 196896, Note_on_c, 0, 72, 66
1, 196918, Control_c, 0, 64, 114
1, 196938, Note_off_c, 0, 74, 62
1, 196952, Note_off_c, 0, 89, 60
1, 196963, Control_c, 0, 64, 116
1, 197252, Note_on_c, 0, 84, 88
1, 197266, Note_on_c, 0, 69, 64
1, 197454, Note_off_c, 0, 79, 54
1, 197495, Note_off_c, 0, 72, 61
1, 197519, Control_c, 0, 64, 113
1, 197579, Control_c, 0, 64, 110
1, 197594, Control_c, 0, 64, 106
1, 197596, Note_on_c, 0, 82, 89
1, 197608, Control_c, 0, 64, 101
1, 197615, Note_on_c, 0, 67, 63
1, 197623, Control_c, 0, 64, 98
1, 197659, Note_off_c, 0, 84, 64
1, 197766, Note_off_c, 0, 69, 38
1, 197935, Note_on_c, 0, 81, 85
1, 197947, Note_on_c, 0, 65, 63
1, 197965, Note_off_c, 0, 67, 58
1, 197969, Note_off_c, 0, 82, 63
1, 197987, Control_c, 0, 64, 96
1, 198002, Control_c, 0, 64, 87
1, 198017, Control_c, 0, 64, 73
1, 198032, Control_c, 0, 64, 63
1, 198046, Control_c, 0, 64, 56
1, 198061, Control_c, 0, 64, 57
1, 198076, Control_c, 0, 64, 62
1, 198090, Control_c, 0, 64, 67
1, 198105, Control_c, 0, 64, 73
1, 198120, Control_c, 0, 64, 81
1, 198135, Control_c, 0, 64, 85
1, 198150, Control_c, 0, 64, 89
1, 198164, Control_c, 0, 64, 92
1, 198179, Control_c, 0, 64, 96
1, 198194, Control_c, 0, 64, 101
1, 198209, Control_c, 0, 64, 107
1, 198223, Control_c, 0, 64, 117
1, 198238, Control_c, 0, 64, 127
1, 198316, Note_on_c, 0, 79, 88
1, 198327, Note_on_c, 0, 63, 59
1, 198388, Note_off_c, 0, 65, 61
1, 198393, Note_off_c, 0, 81, 60
1, 198418, Note_off_c, 0, 63, 57
1, 198712, Control_c, 0, 67, 19
1, 198735, Control_c, 0, 64, 121
1, 198750, Control_c, 0, 64, 115
1, 198765, Control_c, 0, 64, 110
1, 198765, Control_c, 0, 67, 21
1, 198771, Note_on_c, 0, 80, 83
1, 198780, Control_c, 0, 64, 105
1, 198795, Control_c, 0, 64, 101
1, 198802, Note_on_c, 0, 66, 61
1, 198810, Control_c, 0, 64, 97
1, 198810, Control_c, 0, 67, 24
1, 198825, Control_c, 0, 64, 93
1, 198837, Note_off_c, 0, 79, 59
1, 198839, Control_c, 0, 64, 90
1, 198854, Control_c, 0, 64, 88
1, 198869, Control_c, 0, 64, 85
1, 198869, Control_c, 0, 67, 26
1, 198884, Control_c, 0, 64, 82
1, 198899, Control_c, 0, 64, 80
1, 198899, Control_c, 0, 67, 28
1, 198913, Control_c, 0, 64, 76
1, 198913, Control_c, 0, 67, 30
1, 198928, Control_c, 0, 64, 73
1, 198928, Control_c, 0, 67, 32
1, 198943, Control_c, 0, 64, 70
1, 198943, Control_c, 0, 67, 34
1, 198958, Control_c, 0, 64, 67
1, 198958, Control_c, 0, 67, 37
1, 198973, Control_c, 0, 64, 63
1, 198973, Control_c, 0, 67, 40
1, 198987, Control_c, 0, 64, 58
1, 198987, Control_c, 0, 67, 45
1, 199002, Control_c, 0, 64, 50
1, 199002, Control_c, 0, 67, 51
1, 199017, Control_c, 0, 64, 32
1, 199017, Control_c, 0, 67, 58
1, 199031, Control_c, 0, 64, 0
1, 199031, Control_c, 0, 67, 67
1, 199046, Control_c, 0, 67, 76
1, 199061, Control_c, 0, 67, 88
1, 199076, Control_c, 0, 67, 99
1, 199091, Control_c, 0, 67, 109
1, 199105, Control_c, 0, 67, 118
1, 199120, Control_c, 0, 67, 126
1, 199224, Control_c, 0, 64, 31
1, 199239, Control_c, 0, 64, 41
1, 199254, Control_c, 0, 64, 47
1, 199269, Control_c, 0, 64, 53
1, 199284, Control_c, 0, 64, 58
1, 199290, Note_on_c, 0, 77, 53
1, 199299, Control_c, 0, 64, 61
1, 199299, Note_on_c, 0, 26, 61
1, 199303, Note_on_c, 0, 38, 49
1, 199313, Control_c, 0, 64, 64
1, 199328, Control_c, 0, 64, 65
1, 199343, Control_c, 0, 64, 68
1, 199358, Control_c, 0, 64, 71
1, 199373, Control_c, 0, 64, 77
1, 199387, Control_c, 0, 64, 85
1, 199400, Note_off_c, 0, 38, 58
1, 199402, Control_c, 0, 64, 95
1, 199417, Control_c, 0, 64, 106
1, 199431, Control_c, 0, 64, 127
1, 199439, Note_off_c, 0, 66, 58
1, 199512, Note_off_c, 0, 80, 58
1, 199707, Note_on_c, 0, 81, 86
1, 199707, Note_off_c, 0, 26, 37
1, 199726, Note_off_c, 0, 77, 62
1, 199728, Note_on_c, 0, 76, 62
1, 200060, Note_on_c, 0, 86, 90
1, 200083, Note_off_c, 0, 76, 51
1, 200086, Note_on_c, 0, 75, 56
1, 200119, Note_off_c, 0, 81, 61
1, 200408, Note_on_c, 0, 82, 86
1, 200432, Note_on_c, 0, 74, 56
1, 200500, Note_off_c, 0, 75, 57
1, 200540, Note_off_c, 0, 86, 58
1, 200640, Note_off_c, 0, 74, 57
1, 200770, Note_on_c, 0, 72, 64
1, 201105, Note_on_c, 0, 83, 76
1, 201129, Note_on_c, 0, 71, 54
1, 201137, Note_off_c, 0, 82, 64
1, 201467, Note_on_c, 0, 87, 81
1, 201480, Note_on_c, 0, 67, 50
1, 201488, Note_off_c, 0, 72, 26
1, 201585, Note_off_c, 0, 83, 56
1, 201609, Note_off_c, 0, 71, 37
1, 201811, Note_off_c, 0, 67, 37
1, 201830, Note_on_c, 0, 84, 79
1, 201842, Note_on_c, 0, 68, 45
1, 201901, Note_off_c, 0, 87, 63
1, 202196, Note_on_c, 0, 85, 67
1, 202209, Note_on_c, 0, 69, 39
1, 202230, Note_off_c, 0, 68, 38
1, 202283, Note_off_c, 0, 84, 56
1, 202595, Note_on_c, 0, 89, 67
1, 202603, Note_on_c, 0, 71, 47
1, 202619, Note_off_c, 0, 69, 35
1, 202651, Note_off_c, 0, 71, 0
1, 202651, Note_on_c, 0, 71, 4
1, 202712, Note_off_c, 0, 85, 38
1, 202816, Note_off_c, 0, 71, 41
1, 202994, Note_on_c, 0, 93, 72
1, 202999, Note_on_c, 0, 75, 43
1, 203066, Note_off_c, 0, 89, 55
1, 203318, Note_off_c, 0, 75, 34
1, 203476, Note_on_c, 0, 86, 64
1, 203479, Note_on_c, 0, 74, 51
1, 203571, Control_c, 0, 64, 114
1, 203585, Control_c, 0, 64, 109
1, 203600, Control_c, 0, 64, 103
1, 203615, Control_c, 0, 64, 99
1, 203629, Control_c, 0, 64, 95
1, 203642, Note_off_c, 0, 93, 38
1, 203644, Control_c, 0, 64, 92
1, 203659, Control_c, 0, 64, 89
1, 203674, Control_c, 0, 64, 87
1, 203689, Control_c, 0, 64, 85
1, 203703, Control_c, 0, 64, 84
1, 203718, Control_c, 0, 64, 82
1, 203733, Control_c, 0, 64, 80
1, 203747, Control_c, 0, 64, 79
1, 203762, Control_c, 0, 64, 78
1, 203777, Control_c, 0, 64, 76
1, 203792, Control_c, 0, 64, 75
1, 203807, Control_c, 0, 64, 74
1, 203822, Control_c, 0, 64, 73
1, 203836, Control_c, 0, 64, 72
1, 203851, Control_c, 0, 64, 70
1, 203866, Control_c, 0, 64, 69
1, 203881, Control_c, 0, 64, 67
1, 203896, Control_c, 0, 64, 65
1, 203910, Control_c, 0, 64, 63
1, 203925, Control_c, 0, 64, 62
1, 203940, Control_c, 0, 64, 60
1, 203955, Control_c, 0, 64, 59
1, 203970, Control_c, 0, 64, 58
1, 203992, Control_c, 0, 64, 56
1, 204007, Control_c, 0, 64, 54
1, 204022, Control_c, 0, 64, 52
1, 204036, Control_c, 0, 64, 49
1, 204051, Control_c, 0, 64, 47
1, 204066, Control_c, 0, 64, 43
1, 204081, Control_c, 0, 64, 39
1, 204096, Control_c, 0, 64, 31
1, 204110, Control_c, 0, 64, 0
1, 204349, Note_on_c, 0, 62, 40
1, 204615, Control_c, 0, 64, 35
1, 204630, Control_c, 0, 64, 52
1, 204644, Control_c, 0, 64, 62
1, 204659, Control_c, 0, 64, 66
1, 204670, Note_off_c, 0, 86, 61
1, 204674, Control_c, 0, 64, 69
1, 204689, Control_c, 0, 64, 72
1, 204704, Control_c, 0, 64, 75
1, 204719, Control_c, 0, 64, 80
1, 204741, Control_c, 0, 64, 88
1, 204756, Control_c, 0, 64, 96
1, 204771, Control_c, 0, 64, 102
1, 204785, Control_c, 0, 64, 112
1, 204800, Control_c, 0, 64, 127
1, 204952, Note_off_c, 0, 74, 55
1, 205217, Note_on_c, 0, 50, 47
1, 205376, Note_off_c, 0, 50, 38
1, 205487, Note_off_c, 0, 62, 60
1, 206053, Note_on_c, 0, 49, 63
1, 206224, Note_off_c, 0, 49, 32
1, 206425, Note_on_c, 0, 73, 71
1, 206432, Control_c, 0, 67, 122
1, 206446, Control_c, 0, 67, 118
1, 206461, Control_c, 0, 67, 115
1, 206491, Control_c, 0, 67, 112
1, 206505, Control_c, 0, 67, 110
1, 206520, Control_c, 0, 67, 107
1, 206535, Control_c, 0, 67, 104
1, 206549, Control_c, 0, 67, 102
1, 206564, Control_c, 0, 67, 100
1, 206579, Control_c, 0, 67, 98
1, 206594, Control_c, 0, 67, 95
1, 206609, Control_c, 0, 67, 91
1, 206623, Control_c, 0, 67, 86
1, 206638, Control_c, 0, 67, 81
1, 206653, Control_c, 0, 67, 75
1, 206668, Control_c, 0, 67, 68
1, 206683, Control_c, 0, 67, 59
1, 206698, Control_c, 0, 67, 49
1, 206712, Control_c, 0, 67, 37
1, 206727, Control_c, 0, 67, 29
1, 206743, Control_c, 0, 67, 21
1, 206758, Control_c, 0, 67, 0
1, 206782, Note_on_c, 0, 62, 77
1, 206787, Note_off_c, 0, 73, 43
1, 206993, Note_off_c, 0, 62, 61
1, 207175, Note_on_c, 0, 62, 86
1, 207195, Note_on_c, 0, 58, 61
1, 207268, Note_off_c, 0, 62, 59
1, 207275, Note_off_c, 0, 58, 55
1, 207358, Note_on_c, 0, 62, 93
1, 207371, Note_on_c, 0, 55, 71
1, 207417, Control_c, 0, 67, 19
1, 207441, Note_off_c, 0, 62, 56
1, 207446, Control_c, 0, 67, 22
1, 207461, Control_c, 0, 67, 25
1, 207476, Control_c, 0, 67, 27
1, 207490, Control_c, 0, 67, 29
1, 207505, Control_c, 0, 67, 31
1, 207520, Control_c, 0, 67, 32
1, 207566, Control_c, 0, 67, 32
1, 207640, Control_c, 0, 67, 30
1, 207684, Control_c, 0, 67, 28
1, 207702, Note_on_c, 0, 49, 93
1, 207717, Note_on_c, 0, 38, 83
1, 207718, Note_on_c, 0, 31, 83
1, 207736, Control_c, 0, 67, 26
1, 207751, Control_c, 0, 64, 90
1, 207766, Control_c, 0, 64, 61
1, 207781, Control_c, 0, 64, 0
1, 207842, Note_off_c, 0, 55, 26
1, 208078, Control_c, 0, 67, 28
1, 208167, Control_c, 0, 64, 49
1, 208182, Control_c, 0, 64, 63
1, 208196, Control_c, 0, 64, 70
1, 208211, Note_off_c, 0, 31, 62
1, 208211, Control_c, 0, 64, 80
1, 208211, Control_c, 0, 67, 26
1, 208226, Control_c, 0, 64, 93
1, 208240, Control_c, 0, 64, 127
1, 208240, Control_c, 0, 67, 24
1, 208245, Note_off_c, 0, 38, 62
1, 208285, Control_c, 0, 67, 22
1, 208305, Note_off_c, 0, 49, 60
1, 208329, Control_c, 0, 67, 19
1, 208345, Control_c, 0, 67, 0
1, 208671, Note_on_c, 0, 55, 70
1, 208744, Note_on_c, 0, 61, 73
1, 208796, Note_on_c, 0, 64, 69
1, 208843, Note_off_c, 0, 64, 64
1, 208849, Note_on_c, 0, 69, 77
1, 208853, Note_off_c, 0, 61, 59
1, 208862, Note_off_c, 0, 55, 63
1, 208868, Note_off_c, 0, 69, 71
1, 208891, Poly_aftertouch_c, 0, 65, 0
1, 208900, Note_on_c, 0, 74, 85
1, 208939, Note_on_c, 0, 78, 90
1, 208979, Note_off_c, 0, 74, 61
1, 208993, Note_on_c, 0, 82, 97
1, 209020, Note_off_c, 0, 78, 64
1, 209057, Note_on_c, 0, 86, 101
1, 209070, Note_off_c, 0, 82, 69
1, 209074, Note_on_c, 0, 74, 78
1, 209104, Note_off_c, 0, 74, 63
1, 209306, Note_off_c, 0, 86, 63
1, 209947, Control_c, 0, 67, 19
1, 210189, Control_c, 0, 67, 21
1, 210293, Control_c, 0, 67, 24
1, 210308, Control_c, 0, 67, 27
1, 210337, Control_c, 0, 67, 29
1, 210471, Control_c, 0, 67, 31
1, 210505, Note_on_c, 0, 85, 74
1, 210535, Note_on_c, 0, 70, 41
1, 210689, Note_off_c, 0, 70, 33
1, 210693, Note_on_c, 0, 82, 85
1, 210713, Note_on_c, 0, 67, 50
1, 210746, Note_off_c, 0, 85, 27
1, 210894, Control_c, 0, 67, 29
1, 210931, Note_on_c, 0, 79, 87
1, 210946, Note_on_c, 0, 62, 51
1, 210968, Note_off_c, 0, 67, 34
1, 210998, Note_off_c, 0, 82, 61
1, 211318, Note_on_c, 0, 82, 78
1, 211349, Note_on_c, 0, 67, 47
1, 211422, Note_off_c, 0, 79, 62
1, 211559, Note_off_c, 0, 62, 37
1, 211616, Note_off_c, 0, 82, 59
1, 211655, Note_on_c, 0, 81, 84
1, 211688, Note_on_c, 0, 69, 44
1, 211763, Note_off_c, 0, 67, 40
1, 212014, Note_on_c, 0, 74, 78
1, 212033, Note_on_c, 0, 70, 47
1, 212052, Note_off_c, 0, 69, 36
1, 212081, Note_off_c, 0, 81, 58
1, 212371, Note_on_c, 0, 81, 77
1, 212397, Note_on_c, 0, 69, 43
1, 212475, Note_off_c, 0, 70, 41
1, 212632, Note_off_c, 0, 74, 57
1, 212770, Note_on_c, 0, 79, 61
1, 212781, Note_on_c, 0, 67, 41
1, 212793, Note_off_c, 0, 69, 48
1, 212952, Note_off_c, 0, 81, 50
1, 212973, Note_off_c, 0, 67, 39
1, 213284, Note_on_c, 0, 86, 72
1, 213322, Note_on_c, 0, 74, 37
1, 213345, Note_off_c, 0, 79, 56
1, 213504, Note_off_c, 0, 86, 62
1, 213721, Note_on_c, 0, 62, 72
1, 213802, Note_off_c, 0, 74, 42
1, 213989, Note_off_c, 0, 62, 61
1, 214228, Note_on_c, 0, 62, 79
1, 214245, Control_c, 0, 67, 31
1, 214260, Control_c, 0, 64, 93
1, 214275, Control_c, 0, 64, 77
1, 214290, Control_c, 0, 64, 63
1, 214305, Control_c, 0, 64, 44
1, 214320, Control_c, 0, 64, 0
1, 214490, Control_c, 0, 64, 45
1, 214505, Control_c, 0, 64, 64
1, 214505, Control_c, 0, 67, 32
1, 214519, Control_c, 0, 64, 71
1, 214534, Control_c, 0, 64, 81
1, 214534, Control_c, 0, 67, 32
1, 214549, Control_c, 0, 64, 92
1, 214549, Control_c, 0, 67, 33
1, 214564, Control_c, 0, 64, 107
1, 214579, Control_c, 0, 64, 127
1, 214597, Note_off_c, 0, 62, 62
1, 214653, Control_c, 0, 67, 33
1, 214668, Control_c, 0, 67, 34
1, 214682, Control_c, 0, 67, 36
1, 214697, Control_c, 0, 67, 42
1, 214707, Note_on_c, 0, 62, 75
1, 214712, Control_c, 0, 67, 49
1, 214727, Control_c, 0, 67, 54
1, 214743, Control_c, 0, 67, 58
1, 214758, Control_c, 0, 67, 59
1, 214773, Control_c, 0, 67, 60
1, 214787, Control_c, 0, 67, 60
1, 214802, Control_c, 0, 67, 61
1, 214817, Control_c, 0, 67, 62
1, 214831, Control_c, 0, 67, 64
1, 214846, Control_c, 0, 67, 66
1, 214861, Control_c, 0, 67, 71
1, 214876, Control_c, 0, 67, 73
1, 214950, Control_c, 0, 67, 73
1, 214979, Control_c, 0, 67, 74
1, 215224, Control_c, 0, 67, 73
1, 215327, Control_c, 0, 67, 73
1, 215342, Control_c, 0, 64, 111
1, 215357, Control_c, 0, 64, 96
1, 215360, Note_on_c, 0, 49, 75
1, 215372, Control_c, 0, 64, 78
1, 215381, Note_on_c, 0, 31, 49
1, 215387, Control_c, 0, 64, 63
1, 215393, Note_off_c, 0, 62, 42
1, 215400, Note_on_c, 0, 38, 34
1, 215402, Control_c, 0, 64, 0
1, 215446, Control_c, 0, 67, 74
1, 215491, Control_c, 0, 67, 75
1, 215505, Control_c, 0, 67, 75
1, 215520, Control_c, 0, 67, 77
1, 215536, Control_c, 0, 67, 83
1, 215551, Control_c, 0, 67, 89
1, 215566, Control_c, 0, 67, 94
1, 215581, Control_c, 0, 67, 99
1, 215596, Control_c, 0, 67, 101
1, 215625, Control_c, 0, 64, 58
1, 215640, Control_c, 0, 64, 70
1, 215653, Note_off_c, 0, 31, 62
1, 215654, Control_c, 0, 64, 82
1, 215669, Control_c, 0, 64, 127
1, 215675, Note_off_c, 0, 38, 49
1, 215706, Note_off_c, 0, 49, 63
1, 215714, Control_c, 0, 67, 98
1, 215743, Control_c, 0, 67, 96
1, 215758, Control_c, 0, 67, 94
1, 215773, Control_c, 0, 67, 93
1, 215788, Control_c, 0, 67, 91
1, 215802, Control_c, 0, 67, 90
1, 215817, Control_c, 0, 67, 89
1, 215832, Control_c, 0, 67, 87
1, 215847, Control_c, 0, 67, 86
1, 215861, Control_c, 0, 67, 84
1, 215876, Control_c, 0, 67, 77
1, 215891, Control_c, 0, 67, 70
1, 215906, Control_c, 0, 67, 63
1, 215921, Control_c, 0, 67, 56
1, 215935, Control_c, 0, 67, 50
1, 215950, Control_c, 0, 67, 46
1, 215973, Control_c, 0, 67, 41
1, 215987, Control_c, 0, 67, 34
1, 216002, Control_c, 0, 67, 27
1, 216017, Control_c, 0, 67, 19
1, 216032, Control_c, 0, 67, 0
1, 216189, Note_on_c, 0, 86, 72
1, 216224, Note_on_c, 0, 74, 28
1, 216398, Note_off_c, 0, 74, 28
1, 216571, Note_on_c, 0, 82, 79
1, 216605, Note_on_c, 0, 70, 41
1, 216678, Note_off_c, 0, 86, 61
1, 216909, Note_on_c, 0, 84, 76
1, 216933, Note_on_c, 0, 62, 39
1, 216946, Note_off_c, 0, 82, 59
1, 216975, Note_off_c, 0, 70, 40
1, 217110, Note_on_c, 0, 73, 48
1, 217181, Note_off_c, 0, 73, 50
1, 217298, Note_on_c, 0, 85, 79
1, 217324, Note_on_c, 0, 69, 44
1, 217329, Note_off_c, 0, 84, 64
1, 217411, Note_off_c, 0, 85, 65
1, 217707, Control_c, 0, 67, 19
1, 217737, Control_c, 0, 67, 21
1, 217781, Control_c, 0, 67, 24
1, 217840, Control_c, 0, 67, 26
1, 217866, Note_on_c, 0, 70, 50
1, 217885, Control_c, 0, 67, 28
1, 217900, Control_c, 0, 67, 30
1, 217908, Note_off_c, 0, 62, 37
1, 217915, Control_c, 0, 67, 32
1, 217921, Note_off_c, 0, 69, 37
1, 217930, Control_c, 0, 67, 32
1, 217945, Control_c, 0, 67, 33
1, 218036, Note_off_c, 0, 70, 36
1, 218084, Note_on_c, 0, 81, 74
1, 218114, Note_on_c, 0, 72, 42
1, 218323, Control_c, 0, 67, 33
1, 218338, Control_c, 0, 64, 115
1, 218338, Control_c, 0, 67, 34
1, 218353, Control_c, 0, 64, 104
1, 218368, Control_c, 0, 64, 98
1, 218368, Control_c, 0, 67, 35
1, 218382, Control_c, 0, 64, 95
1, 218382, Control_c, 0, 67, 36
1, 218397, Control_c, 0, 64, 92
1, 218397, Control_c, 0, 67, 40
1, 218412, Control_c, 0, 64, 90
1, 218412, Control_c, 0, 67, 47
1, 218427, Control_c, 0, 64, 88
1, 218427, Control_c, 0, 67, 53
1, 218442, Control_c, 0, 64, 85
1, 218442, Control_c, 0, 67, 59
1, 218457, Control_c, 0, 64, 82
1, 218457, Control_c, 0, 67, 65
1, 218472, Control_c, 0, 64, 80
1, 218472, Control_c, 0, 67, 71
1, 218487, Control_c, 0, 64, 79
1, 218487, Control_c, 0, 67, 77
1, 218502, Control_c, 0, 64, 78
1, 218502, Control_c, 0, 67, 84
1, 218517, Control_c, 0, 64, 77
1, 218517, Control_c, 0, 67, 91
1, 218531, Control_c, 0, 64, 76
1, 218531, Control_c, 0, 67, 98
1, 218546, Control_c, 0, 64, 74
1, 218546, Control_c, 0, 67, 104
1, 218561, Control_c, 0, 64, 72
1, 218561, Control_c, 0, 67, 110
1, 218575, Control_c, 0, 64, 71
1, 218575, Control_c, 0, 67, 115
1, 218590, Control_c, 0, 64, 71
1, 218590, Control_c, 0, 67, 118
1, 218605, Control_c, 0, 64, 70
1, 218605, Control_c, 0, 67, 122
1, 218620, Control_c, 0, 64, 69
1, 218620, Control_c, 0, 67, 125
1, 218635, Control_c, 0, 64, 68
1, 218635, Control_c, 0, 67, 127
1, 218649, Control_c, 0, 64, 67
1, 218664, Control_c, 0, 64, 65
1, 218679, Control_c, 0, 64, 64
1, 218694, Control_c, 0, 64, 63
1, 218708, Control_c, 0, 64, 62
1, 218725, Control_c, 0, 64, 61
1, 218740, Control_c, 0, 64, 59
1, 218754, Control_c, 0, 64, 57
1, 218769, Control_c, 0, 64, 54
1, 218784, Control_c, 0, 64, 50
1, 218798, Control_c, 0, 64, 42
1, 218813, Control_c, 0, 64, 31
1, 218828, Control_c, 0, 64, 0
1, 218884, Note_on_c, 0, 30, 53
1, 218893, Note_on_c, 0, 42, 40
1, 218984, Control_c, 0, 64, 40
1, 218999, Control_c, 0, 64, 55
1, 219013, Control_c, 0, 64, 62
1, 219017, Note_off_c, 0, 42, 45
1, 219028, Control_c, 0, 64, 66
1, 219043, Control_c, 0, 64, 70
1, 219058, Control_c, 0, 64, 75
1, 219073, Note_off_c, 0, 30, 35
1, 219073, Control_c, 0, 64, 81
1, 219087, Control_c, 0, 64, 90
1, 219102, Control_c, 0, 64, 103
1, 219117, Control_c, 0, 64, 127
1, 219191, Control_c, 0, 67, 125
1, 219220, Control_c, 0, 67, 123
1, 219250, Control_c, 0, 67, 121
1, 219280, Control_c, 0, 67, 115
1, 219295, Control_c, 0, 67, 109
1, 219310, Control_c, 0, 67, 105
1, 219324, Control_c, 0, 67, 101
1, 219339, Control_c, 0, 67, 98
1, 219354, Control_c, 0, 67, 95
1, 219357, Note_on_c, 0, 84, 75
1, 219369, Control_c, 0, 67, 91
1, 219384, Control_c, 0, 67, 87
1, 219388, Note_on_c, 0, 75, 50
1, 219398, Control_c, 0, 67, 83
1, 219413, Control_c, 0, 67, 80
1, 219428, Control_c, 0, 67, 76
1, 219443, Control_c, 0, 67, 72
1, 219458, Control_c, 0, 67, 68
1, 219472, Control_c, 0, 67, 64
1, 219480, Note_off_c, 0, 72, 37
1, 219483, Note_off_c, 0, 81, 51
1, 219487, Control_c, 0, 67, 59
1, 219502, Control_c, 0, 67, 56
1, 219517, Control_c, 0, 67, 53
1, 219533, Control_c, 0, 67, 51
1, 219548, Control_c, 0, 67, 49
1, 219563, Control_c, 0, 67, 48
1, 219577, Control_c, 0, 67, 47
1, 219651, Control_c, 0, 67, 48
1, 219666, Control_c, 0, 67, 50
1, 219681, Control_c, 0, 67, 51
1, 219703, Control_c, 0, 67, 52
1, 219718, Control_c, 0, 67, 53
1, 219733, Control_c, 0, 67, 54
1, 219748, Control_c, 0, 67, 56
1, 219762, Control_c, 0, 67, 57
1, 219777, Control_c, 0, 67, 58
1, 219792, Control_c, 0, 67, 58
1, 219807, Control_c, 0, 67, 59
1, 219822, Control_c, 0, 67, 60
1, 219836, Control_c, 0, 67, 60
1, 219851, Control_c, 0, 67, 61
1, 219866, Control_c, 0, 67, 62
1, 219881, Control_c, 0, 64, 115
1, 219881, Control_c, 0, 67, 62
1, 219896, Control_c, 0, 64, 104
1, 219896, Control_c, 0, 67, 63
1, 219909, Note_on_c, 0, 28, 63
1, 219910, Control_c, 0, 64, 95
1, 219925, Control_c, 0, 64, 87
1, 219929, Note_on_c, 0, 40, 43
1, 219940, Control_c, 0, 64, 78
1, 219954, Control_c, 0, 64, 67
1, 219969, Control_c, 0, 64, 58
1, 219984, Control_c, 0, 64, 44
1, 219999, Control_c, 0, 64, 30
1, 220028, Control_c, 0, 64, 40
1, 220043, Control_c, 0, 64, 54
1, 220058, Control_c, 0, 64, 63
1, 220073, Control_c, 0, 64, 68
1, 220088, Control_c, 0, 64, 73
1, 220103, Control_c, 0, 64, 78
1, 220111, Note_off_c, 0, 40, 49
1, 220118, Control_c, 0, 64, 82
1, 220132, Control_c, 0, 64, 86
1, 220147, Control_c, 0, 64, 92
1, 220161, Note_off_c, 0, 84, 47
1, 220162, Control_c, 0, 64, 98
1, 220177, Control_c, 0, 64, 104
1, 220192, Control_c, 0, 64, 110
1, 220207, Control_c, 0, 64, 112
1, 220356, Control_c, 0, 64, 109
1, 220370, Control_c, 0, 64, 105
1, 220385, Control_c, 0, 64, 97
1, 220400, Control_c, 0, 64, 85
1, 220411, Note_on_c, 0, 83, 53
1, 220414, Note_on_c, 0, 42, 44
1, 220415, Control_c, 0, 64, 73
1, 220428, Note_on_c, 0, 74, 34
1, 220430, Control_c, 0, 64, 64
1, 220451, Control_c, 0, 64, 56
1, 220466, Control_c, 0, 64, 55
1, 220481, Control_c, 0, 64, 58
1, 220484, Note_off_c, 0, 74, 0
1, 220484, Note_on_c, 0, 74, 20
1, 220496, Note_off_c, 0, 75, 38
1, 220496, Control_c, 0, 64, 61
1, 220511, Control_c, 0, 64, 65
1, 220526, Control_c, 0, 64, 68
1, 220541, Control_c, 0, 64, 73
1, 220556, Control_c, 0, 64, 79
1, 220571, Control_c, 0, 64, 82
1, 220585, Control_c, 0, 64, 85
1, 220600, Control_c, 0, 64, 88
1, 220600, Control_c, 0, 67, 62
1, 220615, Control_c, 0, 64, 90
1, 220623, Note_on_c, 0, 79, 68
1, 220630, Control_c, 0, 64, 92
1, 220645, Control_c, 0, 64, 96
1, 220652, Note_off_c, 0, 83, 44
1, 220659, Control_c, 0, 64, 99
1, 220674, Control_c, 0, 64, 101
1, 220720, Note_off_c, 0, 74, 40
1, 220750, Note_off_c, 0, 42, 45
1, 220763, Control_c, 0, 67, 62
1, 220827, Note_on_c, 0, 76, 69
1, 220836, Note_on_c, 0, 43, 57
1, 220846, Note_on_c, 0, 72, 49
1, 220861, Note_off_c, 0, 79, 59
1, 220867, Note_off_c, 0, 28, 30
1, 220896, Control_c, 0, 67, 61
1, 220925, Control_c, 0, 64, 103
1, 220940, Control_c, 0, 64, 107
1, 220952, Note_off_c, 0, 43, 62
1, 220955, Control_c, 0, 64, 111
1, 220970, Control_c, 0, 64, 117
1, 220985, Control_c, 0, 64, 127
1, 220985, Control_c, 0, 67, 61
1, 221000, Control_c, 0, 67, 60
1, 221074, Control_c, 0, 67, 60
1, 221149, Control_c, 0, 67, 59
1, 221191, Note_on_c, 0, 79, 72
1, 221206, Note_on_c, 0, 47, 69
1, 221220, Note_on_c, 0, 71, 56
1, 221234, Note_off_c, 0, 72, 55
1, 221239, Note_off_c, 0, 76, 55
1, 221260, Control_c, 0, 67, 59
1, 221274, Control_c, 0, 67, 58
1, 221304, Control_c, 0, 67, 58
1, 221314, Note_off_c, 0, 47, 64
1, 221334, Control_c, 0, 67, 57
1, 221378, Control_c, 0, 67, 57
1, 221408, Control_c, 0, 67, 56
1, 221468, Control_c, 0, 67, 56
1, 221539, Note_on_c, 0, 78, 68
1, 221541, Control_c, 0, 67, 55
1, 221549, Note_on_c, 0, 51, 72
1, 221552, Note_on_c, 0, 70, 57
1, 221586, Control_c, 0, 67, 55
1, 221624, Note_off_c, 0, 71, 53
1, 221645, Control_c, 0, 67, 54
1, 221677, Note_off_c, 0, 78, 61
1, 221680, Note_off_c, 0, 79, 63
1, 221689, Control_c, 0, 67, 54
1, 221704, Control_c, 0, 67, 53
1, 221733, Control_c, 0, 67, 53
1, 221748, Control_c, 0, 67, 52
1, 221778, Control_c, 0, 67, 52
1, 221793, Control_c, 0, 67, 51
1, 221808, Control_c, 0, 67, 51
1, 221823, Control_c, 0, 67, 50
1, 221838, Control_c, 0, 67, 50
1, 221852, Control_c, 0, 67, 49
1, 221884, Note_on_c, 0, 71, 69
1, 221893, Note_on_c, 0, 54, 77
1, 221897, Control_c, 0, 67, 48
1, 221899, Note_on_c, 0, 69, 57
1, 221927, Control_c, 0, 67, 48
1, 221949, Control_c, 0, 67, 47
1, 221954, Note_off_c, 0, 70, 57
1, 221994, Control_c, 0, 67, 46
1, 222023, Control_c, 0, 67, 45
1, 222053, Control_c, 0, 67, 45
1, 222068, Control_c, 0, 67, 44
1, 222083, Control_c, 0, 67, 42
1, 222097, Control_c, 0, 67, 31
1, 222112, Control_c, 0, 67, 22
1, 222127, Control_c, 0, 67, 0
1, 222203, Note_off_c, 0, 51, 36
1, 222243, Note_on_c, 0, 76, 77
1, 222249, Note_on_c, 0, 58, 77
1, 222255, Note_on_c, 0, 67, 61
1, 222304, Note_off_c, 0, 69, 38
1, 222359, Note_off_c, 0, 71, 58
1, 222403, Note_off_c, 0, 54, 57
1, 222578, Note_on_c, 0, 62, 71
1, 222636, Note_off_c, 0, 58, 65
1, 222939, Note_on_c, 0, 61, 66
1, 223021, Note_off_c, 0, 62, 60
1, 223039, Control_c, 0, 64, 116
1, 223054, Control_c, 0, 64, 99
1, 223069, Control_c, 0, 64, 90
1, 223084, Control_c, 0, 64, 84
1, 223098, Control_c, 0, 64, 83
1, 223172, Control_c, 0, 64, 83
1, 223202, Control_c, 0, 64, 82
1, 223232, Control_c, 0, 64, 80
1, 223246, Control_c, 0, 64, 78
1, 223261, Control_c, 0, 64, 75
1, 223276, Control_c, 0, 64, 71
1, 223287, Note_on_c, 0, 66, 68
1, 223290, Control_c, 0, 64, 67
1, 223305, Control_c, 0, 64, 63
1, 223320, Control_c, 0, 64, 59
1, 223335, Control_c, 0, 64, 58
1, 223350, Control_c, 0, 64, 60
1, 223364, Control_c, 0, 64, 63
1, 223379, Control_c, 0, 64, 66
1, 223394, Control_c, 0, 64, 68
1, 223409, Control_c, 0, 64, 69
1, 223424, Control_c, 0, 64, 71
1, 223446, Control_c, 0, 64, 74
1, 223461, Control_c, 0, 64, 77
1, 223476, Control_c, 0, 64, 81
1, 223491, Control_c, 0, 64, 84
1, 223505, Control_c, 0, 64, 86
1, 223520, Control_c, 0, 64, 88
1, 223536, Control_c, 0, 64, 89
1, 223551, Control_c, 0, 64, 89
1, 223566, Control_c, 0, 64, 90
1, 223581, Control_c, 0, 64, 91
1, 223595, Control_c, 0, 64, 92
1, 223610, Control_c, 0, 64, 93
1, 223625, Control_c, 0, 64, 93
1, 223643, Note_on_c, 0, 73, 68
1, 223655, Control_c, 0, 64, 93
1, 223659, Note_off_c, 0, 61, 37
1, 223670, Control_c, 0, 64, 90
1, 223685, Control_c, 0, 64, 86
1, 223700, Control_c, 0, 64, 82
1, 223715, Control_c, 0, 64, 81
1, 223744, Control_c, 0, 64, 83
1, 223759, Control_c, 0, 64, 85
1, 223774, Control_c, 0, 64, 88
1, 223789, Control_c, 0, 64, 93
1, 223803, Control_c, 0, 64, 99
1, 223818, Control_c, 0, 64, 109
1, 223833, Note_off_c, 0, 66, 34
1, 223833, Control_c, 0, 64, 127
1, 223918, Note_off_c, 0, 73, 47
1, 223996, Note_on_c, 0, 78, 57
1, 224413, Note_on_c, 0, 83, 62
1, 224432, Control_c, 0, 64, 102
1, 224445, Note_off_c, 0, 78, 56
1, 224447, Control_c, 0, 64, 85
1, 224462, Control_c, 0, 64, 71
1, 224477, Control_c, 0, 64, 56
1, 224492, Control_c, 0, 64, 0
1, 224625, Control_c, 0, 64, 54
1, 224640, Control_c, 0, 64, 74
1, 224641, Note_off_c, 0, 67, 63
1, 224654, Control_c, 0, 64, 86
1, 224669, Control_c, 0, 64, 115
1, 224674, Note_off_c, 0, 83, 64
1, 224684, Control_c, 0, 64, 127
1, 224689, Note_off_c, 0, 76, 64
1, 224902, Note_on_c, 0, 88, 103
1, 224914, Note_on_c, 0, 79, 84
1, 224920, Note_on_c, 0, 43, 75
1, 225205, Note_off_c, 0, 79, 66
1, 225280, Note_on_c, 0, 86, 97
1, 225289, Note_on_c, 0, 78, 94
1, 225292, Note_on_c, 0, 47, 79
1, 225310, Note_off_c, 0, 88, 61
1, 225323, Note_off_c, 0, 43, 55
1, 225395, Note_off_c, 0, 47, 62
1, 225462, Note_off_c, 0, 86, 59
1, 225594, Note_on_c, 0, 84, 104
1, 225598, Note_off_c, 0, 78, 62
1, 225599, Note_on_c, 0, 52, 69
1, 225604, Note_on_c, 0, 76, 94
1, 225722, Note_on_c, 0, 36, 85
1, 225737, Control_c, 0, 64, 76
1, 225743, Note_off_c, 0, 52, 49
1, 225751, Control_c, 0, 64, 42
1, 225766, Control_c, 0, 64, 0
1, 225811, Note_on_c, 0, 45, 69
1, 225840, Control_c, 0, 64, 52
1, 225855, Control_c, 0, 64, 77
1, 225870, Control_c, 0, 64, 113
1, 225872, Note_on_c, 0, 52, 76
1, 225873, Note_off_c, 0, 36, 61
1, 225877, Note_off_c, 0, 45, 66
1, 225885, Control_c, 0, 64, 127
1, 225900, Note_off_c, 0, 84, 63
1, 225946, Note_off_c, 0, 52, 62
1, 226063, Note_on_c, 0, 83, 96
1, 226067, Note_on_c, 0, 81, 89
1, 226094, Note_off_c, 0, 76, 48
1, 226098, Note_on_c, 0, 57, 80
1, 226450, Note_on_c, 0, 69, 72
1, 226465, Note_on_c, 0, 59, 76
1, 226592, Note_off_c, 0, 81, 59
1, 226763, Note_on_c, 0, 79, 79
1, 226774, Note_on_c, 0, 60, 82
1, 226947, Note_off_c, 0, 57, 42
1, 226948, Note_off_c, 0, 69, 59
1, 227009, Note_off_c, 0, 59, 37
1, 227077, Note_on_c, 0, 71, 84
1, 227078, Note_on_c, 0, 78, 74
1, 227081, Note_on_c, 0, 62, 80
1, 227085, Note_off_c, 0, 60, 66
1, 227138, Note_off_c, 0, 79, 62
1, 227279, Note_off_c, 0, 71, 61
1, 227383, Control_c, 0, 64, 112
1, 227398, Control_c, 0, 64, 85
1, 227411, Note_off_c, 0, 62, 59
1, 227412, Control_c, 0, 64, 67
1, 227419, Note_on_c, 0, 76, 82
1, 227423, Note_on_c, 0, 72, 74
1, 227427, Control_c, 0, 64, 0
1, 227428, Note_on_c, 0, 64, 81
1, 227445, Note_off_c, 0, 78, 62
1, 227485, Note_off_c, 0, 83, 62
1, 227531, Control_c, 0, 64, 48
1, 227546, Control_c, 0, 64, 76
1, 227553, Note_off_c, 0, 76, 65
1, 227561, Control_c, 0, 64, 108
1, 227576, Control_c, 0, 64, 127
1, 227587, Note_off_c, 0, 72, 63
1, 227593, Note_off_c, 0, 64, 63
1, 227823, Note_on_c, 0, 93, 97
1, 227830, Note_on_c, 0, 84, 90
1, 227840, Note_on_c, 0, 42, 73
1, 228015, Note_on_c, 0, 45, 80
1, 228017, Note_off_c, 0, 93, 64
1, 228118, Note_off_c, 0, 84, 62
1, 228125, Note_off_c, 0, 42, 58
1, 228143, Note_on_c, 0, 88, 96
1, 228151, Note_on_c, 0, 79, 104
1, 228169, Note_on_c, 0, 48, 83
1, 228239, Note_off_c, 0, 88, 65
1, 228280, Note_off_c, 0, 45, 27
1, 228373, Note_off_c, 0, 48, 63
1, 228403, Note_off_c, 0, 79, 64
1, 228438, Note_on_c, 0, 52, 75
1, 228449, Note_on_c, 0, 84, 106
1, 228451, Note_on_c, 0, 76, 92
1, 228527, Note_off_c, 0, 52, 62
1, 228547, Control_c, 0, 64, 97
1, 228553, Note_on_c, 0, 36, 88
1, 228562, Control_c, 0, 64, 60
1, 228577, Control_c, 0, 64, 0
1, 228620, Note_on_c, 0, 45, 87
1, 228665, Control_c, 0, 64, 39
1, 228670, Note_off_c, 0, 36, 62
1, 228688, Control_c, 0, 64, 68
1, 228699, Note_off_c, 0, 45, 66
1, 228701, Note_on_c, 0, 52, 84
1, 228703, Control_c, 0, 64, 86
1, 228717, Control_c, 0, 64, 127
1, 228720, Note_off_c, 0, 84, 60
1, 228743, Note_off_c, 0, 52, 63
1, 228850, Note_on_c, 0, 83, 99
1, 228853, Note_on_c, 0, 81, 93
1, 228857, Note_on_c, 0, 69, 89
1, 228878, Note_on_c, 0, 57, 89
1, 228882, Note_off_c, 0, 76, 64
1, 229022, Note_off_c, 0, 81, 61
1, 229204, Note_on_c, 0, 79, 83
1, 229207, Note_on_c, 0, 59, 79
1, 229403, Note_off_c, 0, 69, 60
1, 229512, Note_on_c, 0, 71, 92
1, 229521, Note_on_c, 0, 78, 77
1, 229525, Note_on_c, 0, 60, 85
1, 229623, Note_off_c, 0, 79, 62
1, 229732, Note_off_c, 0, 71, 63
1, 229777, Note_off_c, 0, 59, 32
1, 229840, Note_on_c, 0, 72, 86
1, 229843, Note_on_c, 0, 76, 82
1, 229853, Note_on_c, 0, 62, 78
1, 229872, Note_off_c, 0, 60, 59
1, 229901, Note_off_c, 0, 78, 61
1, 229907, Note_off_c, 0, 57, 47
1, 230060, Control_c, 0, 64, 101
1, 230075, Control_c, 0, 64, 87
1, 230089, Control_c, 0, 64, 76
1, 230104, Control_c, 0, 64, 65
1, 230119, Control_c, 0, 64, 44
1, 230134, Control_c, 0, 64, 0
1, 230205, Note_on_c, 0, 64, 88
1, 230226, Note_off_c, 0, 62, 60
1, 230304, Control_c, 0, 64, 52
1, 230319, Control_c, 0, 64, 75
1, 230334, Control_c, 0, 64, 87
1, 230349, Control_c, 0, 64, 127
1, 230353, Note_off_c, 0, 64, 65
1, 230586, Note_on_c, 0, 78, 79
1, 230600, Note_on_c, 0, 38, 90
1, 230645, Control_c, 0, 64, 102
1, 230660, Control_c, 0, 64, 96
1, 230675, Control_c, 0, 64, 96
1, 230680, Note_off_c, 0, 83, 61
1, 230705, Control_c, 0, 64, 102
1, 230720, Control_c, 0, 64, 107
1, 230735, Control_c, 0, 64, 113
1, 230750, Control_c, 0, 64, 127
1, 230890, Note_off_c, 0, 38, 64
1, 230912, Control_c, 0, 64, 96
1, 230924, Note_on_c, 0, 79, 88
1, 230927, Control_c, 0, 64, 79
1, 230944, Note_on_c, 0, 36, 90
1, 230950, Control_c, 0, 64, 66
1, 230965, Control_c, 0, 64, 55
1, 230980, Control_c, 0, 64, 47
1, 230988, Note_off_c, 0, 78, 56
1, 230994, Control_c, 0, 64, 50
1, 231009, Control_c, 0, 64, 58
1, 231024, Control_c, 0, 64, 65
1, 231031, Note_off_c, 0, 76, 60
1, 231034, Note_off_c, 0, 72, 61
1, 231038, Control_c, 0, 64, 71
1, 231053, Control_c, 0, 64, 79
1, 231068, Control_c, 0, 64, 86
1, 231083, Control_c, 0, 64, 95
1, 231098, Control_c, 0, 64, 109
1, 231112, Control_c, 0, 64, 127
1, 231254, Note_off_c, 0, 36, 55
1, 231320, Note_on_c, 0, 81, 91
1, 231320, Control_c, 0, 64, 109
1, 231334, Note_on_c, 0, 35, 87
1, 231334, Note_on_c, 0, 73, 75
1, 231334, Note_on_c, 0, 76, 72
1, 231335, Control_c, 0, 64, 85
1, 231337, Note_on_c, 0, 47, 76
1, 231340, Note_off_c, 0, 79, 65
1, 231350, Control_c, 0, 64, 70
1, 231364, Control_c, 0, 64, 61
1, 231379, Control_c, 0, 64, 54
1, 231394, Control_c, 0, 64, 53
1, 231409, Control_c, 0, 64, 55
1, 231424, Control_c, 0, 64, 58
1, 231438, Control_c, 0, 64, 61
1, 231453, Control_c, 0, 64, 65
1, 231468, Control_c, 0, 64, 69
1, 231483, Control_c, 0, 64, 77
1, 231498, Control_c, 0, 64, 87
1, 231514, Control_c, 0, 64, 103
1, 231528, Control_c, 0, 64, 127
1, 231531, Note_off_c, 0, 76, 62
1, 231536, Note_off_c, 0, 47, 57
1, 231601, Note_off_c, 0, 73, 59
1, 231611, Note_off_c, 0, 35, 51
1, 231751, Note_on_c, 0, 77, 83
1, 231758, Note_on_c, 0, 34, 86
1, 231758, Note_on_c, 0, 74, 77
1, 231759, Note_on_c, 0, 46, 90
1, 231847, Control_c, 0, 64, 114
1, 231861, Control_c, 0, 64, 88
1, 231876, Control_c, 0, 64, 70
1, 231891, Control_c, 0, 64, 54
1, 231906, Control_c, 0, 64, 0
1, 232151, Note_off_c, 0, 81, 65
1, 232202, Note_on_c, 0, 82, 88
1, 232432, Control_c, 0, 64, 42
1, 232447, Control_c, 0, 64, 54
1, 232462, Control_c, 0, 64, 62
1, 232477, Control_c, 0, 64, 70
1, 232491, Control_c, 0, 64, 79
1, 232506, Control_c, 0, 64, 91
1, 232521, Control_c, 0, 64, 104
1, 232536, Control_c, 0, 64, 127
1, 232607, Note_off_c, 0, 34, 58
1, 232618, Note_on_c, 0, 84, 94
1, 232629, Note_off_c, 0, 82, 63
1, 232757, Note_off_c, 0, 74, 57
1, 232891, Note_off_c, 0, 77, 59
1, 232983, Note_on_c, 0, 34, 76
1, 232986, Note_on_c, 0, 76, 74
1, 232986, Note_on_c, 0, 79, 76
1, 233080, Note_off_c, 0, 79, 66
1, 233147, Note_off_c, 0, 76, 52
1, 233286, Note_off_c, 0, 46, 53
1, 233357, Note_off_c, 0, 34, 58
1, 233398, Note_on_c, 0, 81, 84
1, 233403, Note_on_c, 0, 77, 75
1, 233406, Note_on_c, 0, 33, 84
1, 233410, Note_on_c, 0, 45, 80
1, 233463, Control_c, 0, 64, 87
1, 233478, Control_c, 0, 64, 67
1, 233493, Control_c, 0, 64, 44
1, 233507, Control_c, 0, 64, 0
1, 233670, Control_c, 0, 64, 37
1, 233685, Control_c, 0, 64, 57
1, 233699, Control_c, 0, 64, 63
1, 233709, Note_off_c, 0, 84, 64
1, 233714, Control_c, 0, 64, 67
1, 233729, Control_c, 0, 64, 71
1, 233744, Control_c, 0, 64, 75
1, 233758, Control_c, 0, 64, 79
1, 233773, Control_c, 0, 64, 84
1, 233788, Control_c, 0, 64, 90
1, 233803, Control_c, 0, 64, 97
1, 233807, Note_on_c, 0, 86, 97
1, 233818, Note_off_c, 0, 81, 58
1, 233818, Control_c, 0, 64, 101
1, 233833, Control_c, 0, 64, 106
1, 233848, Control_c, 0, 64, 113
1, 233862, Control_c, 0, 64, 127
1, 233891, Note_off_c, 0, 45, 58
1, 233898, Note_off_c, 0, 77, 50
1, 233999, Note_off_c, 0, 86, 60
1, 234059, Note_off_c, 0, 33, 59
1, 234220, Note_on_c, 0, 88, 101
1, 234227, Note_on_c, 0, 44, 90
1, 234230, Note_on_c, 0, 32, 85
1, 234232, Note_on_c, 0, 80, 83
1, 234232, Note_on_c, 0, 83, 84
1, 234242, Control_c, 0, 64, 112
1, 234256, Control_c, 0, 64, 91
1, 234271, Control_c, 0, 64, 77
1, 234286, Control_c, 0, 64, 64
1, 234301, Control_c, 0, 64, 0
1, 234464, Control_c, 0, 64, 47
1, 234479, Control_c, 0, 64, 60
1, 234494, Control_c, 0, 64, 64
1, 234509, Control_c, 0, 64, 65
1, 234538, Control_c, 0, 64, 65
1, 234553, Control_c, 0, 64, 64
1, 234568, Control_c, 0, 64, 60
1, 234582, Control_c, 0, 64, 50
1, 234597, Control_c, 0, 64, 0
1, 234603, Note_off_c, 0, 88, 62
1, 234627, Control_c, 0, 64, 33
1, 234638, Note_on_c, 0, 90, 101
1, 234642, Control_c, 0, 64, 55
1, 234656, Control_c, 0, 64, 66
1, 234679, Control_c, 0, 64, 72
1, 234694, Control_c, 0, 64, 77
1, 234709, Control_c, 0, 64, 80
1, 234724, Control_c, 0, 64, 82
1, 234739, Control_c, 0, 64, 86
1, 234754, Control_c, 0, 64, 91
1, 234769, Control_c, 0, 64, 99
1, 234784, Control_c, 0, 64, 109
1, 234798, Control_c, 0, 64, 127
1, 234887, Note_off_c, 0, 44, 37
1, 235009, Note_off_c, 0, 32, 25
1, 235145, Note_on_c, 0, 91, 97
1, 235153, Note_on_c, 0, 43, 84
1, 235154, Note_on_c, 0, 31, 90
1, 235198, Note_off_c, 0, 90, 61
1, 235228, Control_c, 0, 64, 115
1, 235243, Control_c, 0, 64, 97
1, 235258, Control_c, 0, 64, 84
1, 235272, Control_c, 0, 64, 70
1, 235287, Control_c, 0, 64, 53
1, 235302, Control_c, 0, 64, 0
1, 235468, Note_off_c, 0, 83, 61
1, 235636, Note_on_c, 0, 85, 80
1, 235646, Note_on_c, 0, 82, 72
1, 235659, Note_off_c, 0, 80, 59
1, 235739, Control_c, 0, 64, 37
1, 235753, Control_c, 0, 64, 57
1, 235768, Control_c, 0, 64, 65
1, 235783, Control_c, 0, 64, 73
1, 235794, Note_off_c, 0, 43, 61
1, 235798, Control_c, 0, 64, 87
1, 235809, Note_off_c, 0, 31, 62
1, 235813, Control_c, 0, 64, 103
1, 235827, Control_c, 0, 64, 127
1, 235974, Note_off_c, 0, 85, 32
1, 235981, Note_off_c, 0, 82, 59
1, 236050, Note_on_c, 0, 86, 81
1, 236063, Note_on_c, 0, 55, 76
1, 236063, Note_on_c, 0, 83, 70
1, 236468, Note_on_c, 0, 52, 65
1, 236551, Note_off_c, 0, 55, 60
1, 236585, Note_off_c, 0, 52, 61
1, 236912, Note_on_c, 0, 64, 80
1, 237207, Control_c, 0, 67, 21
1, 237222, Control_c, 0, 67, 23
1, 237237, Control_c, 0, 67, 26
1, 237252, Control_c, 0, 67, 28
1, 237267, Control_c, 0, 67, 31
1, 237282, Control_c, 0, 67, 34
1, 237296, Control_c, 0, 67, 36
1, 237311, Control_c, 0, 67, 39
1, 237326, Control_c, 0, 67, 41
1, 237341, Control_c, 0, 67, 43
1, 237348, Note_on_c, 0, 60, 64
1, 237356, Control_c, 0, 67, 44
1, 237412, Note_off_c, 0, 64, 53
1, 237458, Note_off_c, 0, 60, 64
1, 237504, Control_c, 0, 67, 44
1, 237667, Control_c, 0, 67, 43
1, 237843, Note_on_c, 0, 71, 69
1, 238104, Control_c, 0, 67, 44
1, 238119, Control_c, 0, 67, 44
1, 238134, Control_c, 0, 67, 45
1, 238149, Control_c, 0, 67, 46
1, 238164, Control_c, 0, 67, 47
1, 238179, Control_c, 0, 67, 51
1, 238194, Control_c, 0, 67, 59
1, 238209, Control_c, 0, 67, 65
1, 238223, Control_c, 0, 67, 67
1, 238234, Note_off_c, 0, 71, 32
1, 238238, Control_c, 0, 67, 68
1, 238309, Note_on_c, 0, 67, 56
1, 238327, Control_c, 0, 67, 67
1, 238356, Control_c, 0, 67, 67
1, 238406, Note_off_c, 0, 67, 61
1, 238438, Control_c, 0, 67, 66
1, 238978, Note_on_c, 0, 76, 61
1, 239134, Control_c, 0, 64, 122
1, 239149, Control_c, 0, 64, 107
1, 239171, Control_c, 0, 64, 101
1, 239186, Control_c, 0, 64, 96
1, 239201, Control_c, 0, 64, 91
1, 239216, Control_c, 0, 64, 87
1, 239231, Control_c, 0, 64, 85
1, 239231, Control_c, 0, 67, 67
1, 239245, Control_c, 0, 64, 83
1, 239260, Control_c, 0, 64, 82
1, 239275, Control_c, 0, 64, 81
1, 239275, Control_c, 0, 67, 67
1, 239290, Control_c, 0, 64, 80
1, 239304, Control_c, 0, 64, 78
1, 239304, Control_c, 0, 67, 68
1, 239319, Control_c, 0, 64, 76
1, 239334, Control_c, 0, 64, 74
1, 239334, Control_c, 0, 67, 68
1, 239349, Control_c, 0, 64, 73
1, 239349, Control_c, 0, 67, 69
1, 239364, Control_c, 0, 64, 72
1, 239378, Control_c, 0, 64, 71
1, 239378, Control_c, 0, 67, 70
1, 239393, Control_c, 0, 64, 70
1, 239393, Control_c, 0, 67, 71
1, 239408, Control_c, 0, 64, 69
1, 239408, Control_c, 0, 67, 77
1, 239423, Control_c, 0, 64, 68
1, 239423, Control_c, 0, 67, 86
1, 239438, Control_c, 0, 64, 67
1, 239438, Control_c, 0, 67, 91
1, 239452, Control_c, 0, 64, 67
1, 239452, Control_c, 0, 67, 96
1, 239467, Control_c, 0, 64, 66
1, 239467, Control_c, 0, 67, 99
1, 239482, Control_c, 0, 64, 66
1, 239482, Control_c, 0, 67, 101
1, 239498, Control_c, 0, 64, 65
1, 239498, Control_c, 0, 67, 103
1, 239527, Control_c, 0, 64, 65
1, 239527, Control_c, 0, 67, 107
1, 239542, Control_c, 0, 67, 109
1, 239557, Control_c, 0, 64, 64
1, 239557, Control_c, 0, 67, 111
1, 239587, Control_c, 0, 64, 63
1, 239587, Control_c, 0, 67, 115
1, 239601, Control_c, 0, 64, 63
1, 239601, Control_c, 0, 67, 117
1, 239616, Control_c, 0, 64, 62
1, 239616, Control_c, 0, 67, 119
1, 239631, Control_c, 0, 64, 62
1, 239631, Control_c, 0, 67, 122
1, 239646, Control_c, 0, 64, 61
1, 239646, Control_c, 0, 67, 125
1, 239661, Control_c, 0, 64, 60
1, 239661, Control_c, 0, 67, 127
1, 239675, Control_c, 0, 64, 60
1, 239690, Control_c, 0, 64, 59
1, 239705, Control_c, 0, 64, 59
1, 239720, Control_c, 0, 64, 58
1, 239735, Control_c, 0, 64, 57
1, 239750, Control_c, 0, 64, 55
1, 239765, Control_c, 0, 64, 54
1, 239780, Control_c, 0, 64, 53
1, 239794, Control_c, 0, 64, 51
1, 239809, Control_c, 0, 64, 51
1, 239824, Control_c, 0, 64, 50
1, 239839, Control_c, 0, 64, 48
1, 239854, Control_c, 0, 64, 48
1, 239868, Control_c, 0, 64, 48
1, 239883, Control_c, 0, 64, 50
1, 239898, Control_c, 0, 64, 53
1, 239920, Control_c, 0, 64, 57
1, 239935, Control_c, 0, 64, 60
1, 239949, Control_c, 0, 64, 63
1, 239964, Control_c, 0, 64, 65
1, 239979, Control_c, 0, 64, 68
1, 239994, Control_c, 0, 64, 73
1, 240009, Control_c, 0, 64, 76
1, 240019, Note_off_c, 0, 83, 38
1, 240024, Control_c, 0, 64, 78
1, 240039, Control_c, 0, 64, 79
1, 240054, Control_c, 0, 64, 79
1, 240187, Control_c, 0, 64, 79
1, 240201, Control_c, 0, 64, 78
1, 240216, Control_c, 0, 64, 78
1, 240231, Control_c, 0, 64, 77
1, 240244, Note_off_c, 0, 76, 20
1, 240245, Control_c, 0, 64, 76
1, 240248, Note_on_c, 0, 84, 48
1, 240260, Note_on_c, 0, 78, 37
1, 240260, Control_c, 0, 64, 75
1, 240275, Control_c, 0, 64, 74
1, 240278, Note_on_c, 0, 81, 38
1, 240291, Control_c, 0, 64, 72
1, 240306, Control_c, 0, 64, 71
1, 240321, Control_c, 0, 64, 69
1, 240336, Control_c, 0, 64, 66
1, 240350, Control_c, 0, 64, 64
1, 240355, Note_off_c, 0, 86, 55
1, 240365, Control_c, 0, 64, 62
1, 240380, Control_c, 0, 64, 60
1, 240395, Control_c, 0, 64, 58
1, 240410, Control_c, 0, 64, 55
1, 240424, Control_c, 0, 64, 49
1, 240439, Control_c, 0, 64, 39
1, 240454, Control_c, 0, 64, 0
1, 240787, Control_c, 0, 64, 40
1, 240802, Control_c, 0, 64, 52
1, 240817, Control_c, 0, 64, 59
1, 240832, Control_c, 0, 64, 62
1, 240847, Control_c, 0, 64, 64
1, 240862, Control_c, 0, 64, 66
1, 240876, Control_c, 0, 64, 69
1, 240891, Control_c, 0, 64, 74
1, 240894, Note_off_c, 0, 81, 41
1, 240906, Control_c, 0, 64, 78
1, 240921, Control_c, 0, 64, 81
1, 240936, Control_c, 0, 64, 84
1, 240950, Control_c, 0, 64, 87
1, 240965, Control_c, 0, 64, 90
1, 240980, Control_c, 0, 64, 94
1, 240995, Control_c, 0, 64, 96
1, 241010, Control_c, 0, 64, 99
1, 241024, Control_c, 0, 64, 102
1, 241039, Control_c, 0, 64, 107
1, 241054, Control_c, 0, 64, 112
1, 241068, Control_c, 0, 64, 116
1, 241093, Note_off_c, 0, 78, 35
1, 241114, Control_c, 0, 64, 118
1, 241129, Control_c, 0, 64, 121
1, 241144, Control_c, 0, 64, 127
1, 241336, Control_c, 0, 64, 122
1, 241365, Control_c, 0, 64, 119
1, 241395, Control_c, 0, 64, 117
1, 241418, Control_c, 0, 64, 113
1, 241433, Control_c, 0, 64, 110
1, 241447, Control_c, 0, 64, 106
1, 241455, Note_on_c, 0, 83, 68
1, 241462, Control_c, 0, 64, 103
1, 241477, Control_c, 0, 64, 100
1, 241491, Control_c, 0, 64, 96
1, 241493, Note_on_c, 0, 79, 38
1, 241506, Control_c, 0, 64, 90
1, 241521, Control_c, 0, 64, 84
1, 241536, Control_c, 0, 64, 78
1, 241544, Note_off_c, 0, 84, 53
1, 241551, Control_c, 0, 64, 71
1, 241565, Control_c, 0, 64, 63
1, 241580, Control_c, 0, 64, 46
1, 241595, Control_c, 0, 64, 0
1, 241832, Control_c, 0, 64, 39
1, 241842, Note_on_c, 0, 78, 45
1, 241847, Control_c, 0, 64, 50
1, 241862, Control_c, 0, 64, 56
1, 241877, Control_c, 0, 64, 61
1, 241893, Control_c, 0, 64, 64
1, 241908, Control_c, 0, 64, 66
1, 241922, Control_c, 0, 64, 69
1, 241937, Control_c, 0, 64, 72
1, 241952, Control_c, 0, 64, 76
1, 241967, Control_c, 0, 64, 82
1, 241982, Control_c, 0, 64, 90
1, 241996, Control_c, 0, 64, 98
1, 242011, Control_c, 0, 64, 104
1, 242026, Control_c, 0, 64, 111
1, 242040, Control_c, 0, 64, 119
1, 242055, Control_c, 0, 64, 127
1, 242084, Note_off_c, 0, 91, 28
1, 242101, Note_off_c, 0, 83, 33
1, 242167, Note_off_c, 0, 79, 41
1, 242182, Note_on_c, 0, 74, 43
1, 242323, Note_off_c, 0, 74, 36
1, 242372, Note_off_c, 0, 78, 28
1, 242531, Note_on_c, 0, 74, 47
1, 242708, Note_off_c, 0, 74, 36
1, 243217, Note_on_c, 0, 74, 35
1, 243356, Note_off_c, 0, 74, 36
1, 243571, Note_on_c, 0, 83, 68
1, 243584, Note_on_c, 0, 79, 50
1, 243672, Poly_aftertouch_c, 0, 91, 127
1, 243720, Note_off_c, 0, 79, 55
1, 243934, Note_on_c, 0, 78, 54
1, 244107, Note_off_c, 0, 83, 29
1, 244227, Poly_aftertouch_c, 0, 91, 0
1, 244297, Note_on_c, 0, 74, 46
1, 244451, Note_off_c, 0, 78, 34
1, 244498, Note_off_c, 0, 74, 34
1, 244683, Note_on_c, 0, 74, 46
1, 244820, Note_off_c, 0, 74, 37
1, 245484, Note_on_c, 0, 74, 35
1, 245542, Note_off_c, 0, 74, 0
1, 245542, Note_on_c, 0, 74, 6
1, 245720, Note_off_c, 0, 74, 40
1, 245912, Note_on_c, 0, 70, 55
1, 245929, Note_on_c, 0, 65, 49
1, 245943, Note_on_c, 0, 61, 44
1, 245971, Control_c, 0, 64, 113
1, 245986, Control_c, 0, 64, 104
1, 246001, Control_c, 0, 64, 98
1, 246015, Control_c, 0, 64, 93
1, 246030, Control_c, 0, 64, 86
1, 246045, Control_c, 0, 64, 78
1, 246060, Control_c, 0, 64, 71
1, 246075, Control_c, 0, 64, 64
1, 246089, Control_c, 0, 64, 55
1, 246104, Control_c, 0, 64, 38
1, 246119, Control_c, 0, 64, 0
1, 246307, Note_on_c, 0, 78, 59
1, 246400, Control_c, 0, 64, 49
1, 246415, Control_c, 0, 64, 60
1, 246430, Control_c, 0, 64, 63
1, 246445, Control_c, 0, 64, 65
1, 246460, Control_c, 0, 64, 66
1, 246475, Control_c, 0, 64, 69
1, 246489, Control_c, 0, 64, 73
1, 246504, Control_c, 0, 64, 79
1, 246519, Control_c, 0, 64, 84
1, 246534, Control_c, 0, 64, 87
1, 246549, Control_c, 0, 64, 90
1, 246563, Control_c, 0, 64, 93
1, 246578, Control_c, 0, 64, 96
1, 246593, Control_c, 0, 64, 99
1, 246607, Control_c, 0, 64, 101
1, 246613, Note_off_c, 0, 78, 50
1, 246622, Control_c, 0, 64, 104
1, 246637, Control_c, 0, 64, 107
1, 246660, Control_c, 0, 64, 112
1, 246674, Control_c, 0, 64, 126
1, 246683, Note_on_c, 0, 74, 53
1, 246923, Note_off_c, 0, 74, 45
1, 247072, Note_on_c, 0, 74, 53
1, 247097, Note_off_c, 0, 70, 37
1, 247115, Note_off_c, 0, 65, 37
1, 247127, Note_off_c, 0, 61, 34
1, 247429, Note_off_c, 0, 74, 34
1, 247864, Note_on_c, 0, 74, 43
1, 248098, Note_off_c, 0, 74, 51
1, 248273, Note_on_c, 0, 65, 59
1, 248289, Note_on_c, 0, 57, 42
1, 248302, Note_on_c, 0, 61, 40
1, 248306, Control_c, 0, 64, 116
1, 248321, Control_c, 0, 64, 103
1, 248336, Control_c, 0, 64, 95
1, 248351, Control_c, 0, 64, 88
1, 248365, Control_c, 0, 64, 81
1, 248380, Control_c, 0, 64, 75
1, 248395, Control_c, 0, 64, 70
1, 248409, Control_c, 0, 64, 64
1, 248424, Control_c, 0, 64, 58
1, 248439, Control_c, 0, 64, 52
1, 248454, Control_c, 0, 64, 47
1, 248469, Control_c, 0, 64, 41
1, 248484, Control_c, 0, 64, 36
1, 248499, Control_c, 0, 64, 0
1, 248679, Note_on_c, 0, 66, 49
1, 248795, Control_c, 0, 64, 41
1, 248809, Control_c, 0, 64, 53
1, 248824, Control_c, 0, 64, 60
1, 248839, Control_c, 0, 64, 63
1, 248854, Control_c, 0, 64, 66
1, 248869, Control_c, 0, 64, 67
1, 248883, Control_c, 0, 64, 68
1, 248898, Control_c, 0, 64, 69
1, 248921, Control_c, 0, 64, 71
1, 248935, Control_c, 0, 64, 71
1, 248950, Control_c, 0, 64, 72
1, 248995, Control_c, 0, 64, 71
1, 249009, Control_c, 0, 64, 70
1, 249024, Control_c, 0, 64, 67
1, 249038, Note_on_c, 0, 62, 48
1, 249039, Control_c, 0, 64, 63
1, 249054, Control_c, 0, 64, 59
1, 249085, Control_c, 0, 64, 62
1, 249096, Note_off_c, 0, 66, 33
1, 249100, Control_c, 0, 64, 65
1, 249114, Control_c, 0, 64, 67
1, 249130, Control_c, 0, 64, 69
1, 249145, Control_c, 0, 64, 71
1, 249160, Control_c, 0, 64, 74
1, 249175, Control_c, 0, 64, 77
1, 249189, Control_c, 0, 64, 80
1, 249204, Control_c, 0, 64, 83
1, 249219, Control_c, 0, 64, 85
1, 249233, Control_c, 0, 64, 86
1, 249248, Control_c, 0, 64, 86
1, 249295, Note_off_c, 0, 62, 37
1, 249351, Control_c, 0, 64, 86
1, 249366, Control_c, 0, 64, 85
1, 249381, Control_c, 0, 64, 82
1, 249396, Control_c, 0, 64, 78
1, 249411, Control_c, 0, 64, 73
1, 249426, Control_c, 0, 64, 69
1, 249436, Note_on_c, 0, 62, 45
1, 249441, Control_c, 0, 64, 68
1, 249471, Control_c, 0, 64, 68
1, 249485, Control_c, 0, 64, 69
1, 249500, Control_c, 0, 64, 69
1, 249515, Control_c, 0, 64, 71
1, 249530, Control_c, 0, 64, 73
1, 249545, Control_c, 0, 64, 76
1, 249559, Control_c, 0, 64, 80
1, 249574, Control_c, 0, 64, 82
1, 249589, Control_c, 0, 64, 85
1, 249600, Note_off_c, 0, 65, 32
1, 249604, Control_c, 0, 64, 88
1, 249619, Control_c, 0, 64, 93
1, 249633, Control_c, 0, 64, 99
1, 249655, Control_c, 0, 64, 109
1, 249670, Control_c, 0, 64, 127
1, 249681, Note_off_c, 0, 57, 36
1, 249753, Note_off_c, 0, 61, 36
1, 249841, Note_off_c, 0, 62, 34
1, 250287, Note_on_c, 0, 62, 64
1, 250760, Control_c, 0, 64, 116
1, 250775, Control_c, 0, 64, 111
1, 250790, Control_c, 0, 64, 107
1, 250804, Control_c, 0, 64, 103
1, 250819, Control_c, 0, 64, 99
1, 250834, Control_c, 0, 64, 95
1, 250844, Note_on_c, 0, 61, 44
1, 250849, Control_c, 0, 64, 92
1, 250864, Control_c, 0, 64, 89
1, 250869, Note_on_c, 0, 57, 43
1, 250869, Note_on_c, 0, 52, 32
1, 250878, Control_c, 0, 64, 87
1, 250893, Control_c, 0, 64, 84
1, 250908, Control_c, 0, 64, 81
1, 250922, Control_c, 0, 64, 78
1, 250937, Control_c, 0, 64, 75
1, 250952, Control_c, 0, 64, 73
1, 250967, Control_c, 0, 64, 70
1, 250982, Control_c, 0, 64, 68
1, 250997, Control_c, 0, 64, 65
1, 251012, Control_c, 0, 64, 63
1, 251027, Control_c, 0, 64, 60
1, 251041, Control_c, 0, 64, 58
1, 251056, Control_c, 0, 64, 55
1, 251071, Control_c, 0, 64, 51
1, 251086, Control_c, 0, 64, 46
1, 251101, Control_c, 0, 64, 37
1, 251116, Control_c, 0, 64, 0
1, 251286, Control_c, 0, 64, 33
1, 251301, Control_c, 0, 64, 45
1, 251316, Control_c, 0, 64, 55
1, 251330, Control_c, 0, 64, 61
1, 251345, Control_c, 0, 64, 64
1, 251360, Control_c, 0, 64, 67
1, 251375, Control_c, 0, 64, 69
1, 251390, Control_c, 0, 64, 72
1, 251405, Control_c, 0, 64, 76
1, 251405, Note_off_c, 0, 57, 52
1, 251420, Control_c, 0, 64, 80
1, 251435, Control_c, 0, 64, 83
1, 251450, Control_c, 0, 64, 86
1, 251465, Control_c, 0, 64, 89
1, 251480, Control_c, 0, 64, 91
1, 251495, Control_c, 0, 64, 92
1, 251509, Control_c, 0, 64, 92
1, 251712, Note_off_c, 0, 52, 42
1, 251880, Control_c, 0, 64, 92
1, 251917, Control_c, 0, 64, 91
1, 251947, Control_c, 0, 64, 91
1, 251961, Control_c, 0, 64, 90
1, 251976, Control_c, 0, 64, 90
1, 251991, Control_c, 0, 64, 89
1, 252006, Control_c, 0, 64, 88
1, 252021, Control_c, 0, 64, 88
1, 252035, Control_c, 0, 64, 87
1, 252050, Control_c, 0, 64, 86
1, 252065, Control_c, 0, 64, 85
1, 252080, Control_c, 0, 64, 84
1, 252095, Control_c, 0, 64, 83
1, 252097, Note_on_c, 0, 53, 27
1, 252098, Note_on_c, 0, 56, 28
1, 252109, Control_c, 0, 64, 82
1, 252124, Control_c, 0, 64, 80
1, 252139, Control_c, 0, 64, 79
1, 252153, Control_c, 0, 64, 77
1, 252168, Control_c, 0, 64, 75
1, 252183, Control_c, 0, 64, 72
1, 252198, Control_c, 0, 64, 69
1, 252213, Control_c, 0, 64, 66
1, 252228, Control_c, 0, 64, 63
1, 252243, Control_c, 0, 64, 61
1, 252258, Control_c, 0, 64, 58
1, 252273, Control_c, 0, 64, 56
1, 252288, Control_c, 0, 64, 54
1, 252303, Control_c, 0, 64, 51
1, 252318, Control_c, 0, 64, 46
1, 252332, Control_c, 0, 64, 38
1, 252347, Control_c, 0, 64, 0
1, 252872, Control_c, 0, 64, 41
1, 252887, Control_c, 0, 64, 50
1, 252901, Control_c, 0, 64, 56
1, 252916, Control_c, 0, 64, 60
1, 252931, Control_c, 0, 64, 63
1, 252946, Control_c, 0, 64, 67
1, 252961, Control_c, 0, 64, 70
1, 252975, Control_c, 0, 64, 73
1, 252990, Control_c, 0, 64, 75
1, 253005, Control_c, 0, 64, 78
1, 253020, Control_c, 0, 64, 82
1, 253035, Control_c, 0, 64, 86
1, 253046, Note_off_c, 0, 61, 36
1, 253049, Control_c, 0, 64, 92
1, 253064, Control_c, 0, 64, 97
1, 253065, Note_off_c, 0, 53, 40
1, 253080, Note_off_c, 0, 56, 41
1, 253080, Control_c, 0, 64, 102
1, 253095, Control_c, 0, 64, 104
1, 253124, Control_c, 0, 64, 107
1, 253139, Control_c, 0, 64, 109
1, 253154, Control_c, 0, 64, 111
1, 253933, Control_c, 0, 64, 108
1, 253992, Control_c, 0, 64, 106
1, 254001, Note_on_c, 0, 59, 24
1, 254014, Note_on_c, 0, 55, 14
1, 254021, Control_c, 0, 64, 104
1, 254051, Control_c, 0, 64, 101
1, 254081, Control_c, 0, 64, 98
1, 254095, Control_c, 0, 64, 95
1, 254110, Control_c, 0, 64, 92
1, 254125, Control_c, 0, 64, 89
1, 254147, Control_c, 0, 64, 85
1, 254162, Control_c, 0, 64, 80
1, 254177, Control_c, 0, 64, 76
1, 254192, Control_c, 0, 64, 71
1, 254207, Control_c, 0, 64, 66
1, 254221, Control_c, 0, 64, 62
1, 254236, Control_c, 0, 64, 59
1, 254251, Control_c, 0, 64, 57
1, 254266, Control_c, 0, 64, 55
1, 254280, Control_c, 0, 64, 54
1, 254295, Control_c, 0, 64, 52
1, 254310, Control_c, 0, 64, 48
1, 254325, Control_c, 0, 64, 45
1, 254340, Control_c, 0, 64, 40
1, 254354, Control_c, 0, 64, 36
1, 254370, Control_c, 0, 64, 30
1, 254385, Control_c, 0, 64, 0
1, 256075, Control_c, 0, 64, 32
1, 256090, Control_c, 0, 64, 34
1, 256105, Control_c, 0, 64, 36
1, 256119, Control_c, 0, 64, 36
1, 256134, Control_c, 0, 64, 38
1, 256149, Control_c, 0, 64, 40
1, 256164, Control_c, 0, 64, 43
1, 256179, Control_c, 0, 64, 46
1, 256193, Control_c, 0, 64, 48
1, 256208, Control_c, 0, 64, 49
1, 256223, Control_c, 0, 64, 50
1, 256237, Control_c, 0, 64, 52
1, 256252, Control_c, 0, 64, 53
1, 256269, Control_c, 0, 64, 54
1, 256328, Control_c, 0, 64, 55
1, 256342, Control_c, 0, 64, 56
1, 256357, Control_c, 0, 64, 57
1, 256387, Control_c, 0, 64, 57
1, 256410, Control_c, 0, 64, 58
1, 256424, Control_c, 0, 64, 58
1, 256439, Control_c, 0, 64, 59
1, 256454, Control_c, 0, 64, 59
1, 256468, Control_c, 0, 64, 60
1, 256483, Control_c, 0, 64, 60
1, 256498, Control_c, 0, 64, 61
1, 256513, Control_c, 0, 64, 61
1, 256542, Control_c, 0, 64, 62
1, 256557, Control_c, 0, 64, 62
1, 256572, Control_c, 0, 64, 63
1, 256587, Control_c, 0, 64, 64
1, 256616, Control_c, 0, 64, 64
1, 256631, Control_c, 0, 64, 65
1, 256646, Control_c, 0, 64, 65
1, 256661, Control_c, 0, 64, 66
1, 256675, Control_c, 0, 64, 67
1, 256735, Control_c, 0, 64, 67
1, 256765, Control_c, 0, 64, 68
1, 256795, Control_c, 0, 64, 68
1, 256854, Control_c, 0, 64, 69
1, 256883, Control_c, 0, 64, 69
1, 256928, Control_c, 0, 64, 70
1, 256942, Control_c, 0, 64, 70
1, 256957, Control_c, 0, 64, 71
1, 256972, Control_c, 0, 64, 71
1, 256987, Control_c, 0, 64, 72
1, 257031, Control_c, 0, 64, 72
1, 257046, Control_c, 0, 64, 73
1, 257062, Control_c, 0, 64, 73
1, 257209, Note_off_c, 0, 59, 21
1, 257279, Note_off_c, 0, 62, 32
1, 257321, Control_c, 0, 64, 74
1, 257344, Note_off_c, 0, 55, 41
1, 257425, Control_c, 0, 64, 74
1, 257454, Control_c, 0, 64, 75
1, 257469, Control_c, 0, 64, 76
1, 257484, Control_c, 0, 64, 76
1, 257498, Control_c, 0, 64, 77
1, 257573, Control_c, 0, 64, 76
1, 257588, Control_c, 0, 64, 76
1, 257602, Control_c, 0, 64, 75
1, 257617, Control_c, 0, 64, 74
1, 257632, Control_c, 0, 64, 73
1, 257647, Control_c, 0, 64, 72
1, 257662, Control_c, 0, 64, 70
1, 257677, Control_c, 0, 64, 68
1, 257691, Control_c, 0, 64, 66
1, 257706, Control_c, 0, 64, 64
1, 257721, Control_c, 0, 64, 63
1, 257736, Control_c, 0, 64, 61
1, 257751, Control_c, 0, 64, 59
1, 257765, Control_c, 0, 64, 57
1, 257780, Control_c, 0, 64, 54
1, 257795, Control_c, 0, 64, 51
1, 257809, Control_c, 0, 64, 49
1, 257824, Control_c, 0, 64, 48
1, 257839, Control_c, 0, 64, 45
1, 257854, Control_c, 0, 64, 43
1, 257870, Control_c, 0, 64, 43
1, 257892, Control_c, 0, 64, 43
1, 257895, Note_on_c, 0, 31, 31
1, 257907, Control_c, 0, 64, 43
1, 257921, Control_c, 0, 64, 42
1, 257951, Control_c, 0, 64, 43
1, 257981, Control_c, 0, 64, 43
1, 257996, Control_c, 0, 64, 44
1, 258002, Note_on_c, 0, 32, 36
1, 258011, Control_c, 0, 64, 46
1, 258026, Control_c, 0, 64, 50
1, 258040, Control_c, 0, 64, 55
1, 258055, Control_c, 0, 64, 57
1, 258070, Control_c, 0, 64, 57
1, 258085, Control_c, 0, 64, 58
1, 258100, Control_c, 0, 64, 58
1, 258100, Note_on_c, 0, 33, 32
1, 258103, Note_off_c, 0, 31, 33
1, 258114, Control_c, 0, 64, 59
1, 258121, Note_off_c, 0, 32, 52
1, 258144, Control_c, 0, 64, 58
1, 258159, Control_c, 0, 64, 58
1, 258167, Note_on_c, 0, 36, 32
1, 258173, Note_off_c, 0, 33, 59
1, 258214, Note_off_c, 0, 36, 58
1, 258218, Control_c, 0, 64, 57
1, 258233, Control_c, 0, 64, 55
1, 258247, Note_on_c, 0, 38, 39
1, 258247, Control_c, 0, 64, 54
1, 258262, Control_c, 0, 64, 53
1, 258292, Control_c, 0, 64, 53
1, 258302, Note_off_c, 0, 38, 60
1, 258307, Control_c, 0, 64, 54
1, 258318, Note_on_c, 0, 41, 45
1, 258321, Control_c, 0, 64, 55
1, 258336, Control_c, 0, 64, 57
1, 258351, Control_c, 0, 64, 59
1, 258366, Control_c, 0, 64, 60
1, 258374, Note_on_c, 0, 42, 56
1, 258375, Note_off_c, 0, 41, 53
1, 258381, Control_c, 0, 64, 62
1, 258395, Control_c, 0, 64, 62
1, 258425, Control_c, 0, 64, 63
1, 258440, Control_c, 0, 64, 63
1, 258446, Note_off_c, 0, 42, 62
1, 258463, Note_on_c, 0, 43, 49
1, 258470, Control_c, 0, 64, 64
1, 258485, Control_c, 0, 64, 64
1, 258514, Control_c, 0, 64, 64
1, 258519, Note_off_c, 0, 43, 52
1, 258529, Control_c, 0, 64, 62
1, 258541, Note_on_c, 0, 49, 50
1, 258544, Control_c, 0, 64, 60
1, 258559, Control_c, 0, 64, 57
1, 258574, Control_c, 0, 64, 52
1, 258588, Control_c, 0, 64, 46
1, 258603, Control_c, 0, 64, 40
1, 258613, Note_off_c, 0, 49, 56
1, 258618, Control_c, 0, 64, 32
1, 258625, Note_on_c, 0, 51, 49
1, 258640, Control_c, 0, 64, 0
1, 258696, Note_on_c, 0, 48, 51
1, 258698, Note_off_c, 0, 51, 53
1, 258715, Control_c, 0, 64, 30
1, 258730, Control_c, 0, 64, 32
1, 258744, Control_c, 0, 64, 33
1, 258759, Control_c, 0, 64, 34
1, 258774, Note_on_c, 0, 52, 51
1, 258789, Control_c, 0, 64, 33
1, 258819, Control_c, 0, 64, 33
1, 258825, Note_off_c, 0, 48, 39
1, 258829, Note_off_c, 0, 52, 62
1, 258848, Control_c, 0, 64, 0
1, 258849, Note_on_c, 0, 51, 56
1, 258906, Note_off_c, 0, 51, 58
1, 258920, Note_on_c, 0, 53, 50
1, 258992, Note_off_c, 0, 53, 58
1, 259000, Note_on_c, 0, 50, 55
1, 259048, Note_off_c, 0, 50, 56
1, 259064, Note_on_c, 0, 54, 52
1, 259114, Note_off_c, 0, 54, 62
1, 259151, Note_on_c, 0, 31, 42
1, 259233, Control_c, 0, 64, 32
1, 259248, Note_on_c, 0, 32, 41
1, 259248, Control_c, 0, 64, 38
1, 259263, Control_c, 0, 64, 45
1, 259278, Control_c, 0, 64, 49
1, 259293, Control_c, 0, 64, 51
1, 259307, Control_c, 0, 64, 51
1, 259322, Control_c, 0, 64, 52
1, 259337, Control_c, 0, 64, 53
1, 259342, Note_on_c, 0, 33, 39
1, 259352, Control_c, 0, 64, 54
1, 259367, Note_off_c, 0, 32, 36
1, 259388, Control_c, 0, 64, 54
1, 259403, Control_c, 0, 64, 53
1, 259423, Note_on_c, 0, 36, 45
1, 259433, Control_c, 0, 64, 53
1, 259448, Note_off_c, 0, 33, 60
1, 259464, Control_c, 0, 64, 52
1, 259479, Control_c, 0, 64, 53
1, 259488, Note_off_c, 0, 36, 61
1, 259493, Control_c, 0, 64, 55
1, 259495, Note_off_c, 0, 31, 38
1, 259508, Control_c, 0, 64, 57
1, 259516, Note_on_c, 0, 38, 50
1, 259523, Control_c, 0, 64, 56
1, 259538, Control_c, 0, 64, 55
1, 259553, Control_c, 0, 64, 54
1, 259567, Control_c, 0, 64, 53
1, 259574, Note_off_c, 0, 38, 61
1, 259582, Control_c, 0, 64, 50
1, 259594, Note_on_c, 0, 41, 49
1, 259597, Control_c, 0, 64, 46
1, 259613, Control_c, 0, 64, 45
1, 259628, Control_c, 0, 64, 49
1, 259642, Control_c, 0, 64, 55
1, 259655, Note_off_c, 0, 41, 55
1, 259657, Control_c, 0, 64, 56
1, 259662, Note_on_c, 0, 42, 60
1, 259672, Control_c, 0, 64, 55
1, 259686, Control_c, 0, 64, 55
1, 259701, Control_c, 0, 64, 55
1, 259716, Control_c, 0, 64, 56
1, 259727, Note_off_c, 0, 42, 62
1, 259731, Control_c, 0, 64, 59
1, 259742, Note_on_c, 0, 43, 57
1, 259746, Control_c, 0, 64, 61
1, 259761, Control_c, 0, 64, 61
1, 259790, Control_c, 0, 64, 61
1, 259805, Control_c, 0, 64, 55
1, 259817, Note_on_c, 0, 49, 61
1, 259820, Control_c, 0, 64, 0
1, 259826, Note_off_c, 0, 43, 58
1, 259898, Note_off_c, 0, 49, 55
1, 259904, Note_on_c, 0, 51, 57
1, 259974, Note_off_c, 0, 51, 60
1, 259983, Note_on_c, 0, 48, 57
1, 260027, Control_c, 0, 64, 32
1, 260051, Note_on_c, 0, 52, 55
1, 260057, Control_c, 0, 64, 0
1, 260091, Note_off_c, 0, 48, 27
1, 260101, Control_c, 0, 64, 37
1, 260108, Note_off_c, 0, 52, 63
1, 260116, Control_c, 0, 64, 46
1, 260117, Note_on_c, 0, 51, 63
1, 260131, Control_c, 0, 64, 34
1, 260154, Control_c, 0, 64, 0
1, 260195, Note_off_c, 0, 51, 60
1, 260198, Control_c, 0, 64, 33
1, 260212, Control_c, 0, 64, 48
1, 260214, Note_on_c, 0, 53, 54
1, 260227, Control_c, 0, 64, 50
1, 260242, Control_c, 0, 64, 49
1, 260257, Control_c, 0, 64, 48
1, 260290, Note_on_c, 0, 50, 49
1, 260295, Note_off_c, 0, 53, 54
1, 260303, Control_c, 0, 64, 47
1, 260317, Control_c, 0, 64, 46
1, 260332, Control_c, 0, 64, 45
1, 260347, Control_c, 0, 64, 46
1, 260353, Note_on_c, 0, 54, 50
1, 260360, Note_off_c, 0, 50, 50
1, 260361, Control_c, 0, 64, 47
1, 260390, Control_c, 0, 64, 47
1, 260401, Note_off_c, 0, 54, 63
1, 260420, Control_c, 0, 64, 43
1, 260434, Control_c, 0, 64, 0
1, 260450, Note_on_c, 0, 47, 61
1, 260653, Note_on_c, 0, 50, 44
1, 260691, Note_off_c, 0, 50, 62
1, 260725, Note_on_c, 0, 51, 60
1, 260768, Note_off_c, 0, 51, 64
1, 260812, Note_on_c, 0, 52, 61
1, 260855, Note_off_c, 0, 52, 56
1, 260899, Note_on_c, 0, 55, 53
1, 260938, Note_off_c, 0, 55, 62
1, 260969, Note_on_c, 0, 54, 68
1, 260999, Note_off_c, 0, 54, 67
1, 261057, Note_on_c, 0, 56, 62
1, 261095, Note_off_c, 0, 56, 64
1, 261133, Note_on_c, 0, 53, 57
1, 261182, Note_off_c, 0, 53, 50
1, 261208, Note_on_c, 0, 57, 55
1, 261248, Note_off_c, 0, 57, 63
1, 261289, Note_on_c, 0, 56, 58
1, 261327, Note_off_c, 0, 56, 63
1, 261366, Note_on_c, 0, 58, 56
1, 261368, Note_on_c, 0, 49, 65
1, 261409, Note_off_c, 0, 47, 61
1, 261424, Note_off_c, 0, 58, 59
1, 261437, Note_on_c, 0, 50, 64
1, 261445, Note_off_c, 0, 49, 66
1, 261448, Note_on_c, 0, 55, 52
1, 261528, Note_off_c, 0, 55, 55
1, 261536, Note_on_c, 0, 59, 50
1, 261569, Control_c, 0, 64, 40
1, 261579, Note_off_c, 0, 59, 61
1, 261583, Control_c, 0, 64, 49
1, 261598, Control_c, 0, 64, 54
1, 261605, Note_on_c, 0, 58, 59
1, 261613, Control_c, 0, 64, 57
1, 261636, Control_c, 0, 64, 58
1, 261650, Control_c, 0, 64, 60
1, 261665, Control_c, 0, 64, 61
1, 261668, Note_off_c, 0, 58, 56
1, 261680, Control_c, 0, 64, 62
1, 261690, Note_off_c, 0, 50, 61
1, 261695, Note_on_c, 0, 60, 52
1, 261695, Control_c, 0, 64, 63
1, 261698, Note_on_c, 0, 52, 62
1, 261710, Control_c, 0, 64, 63
1, 261737, Note_off_c, 0, 60, 64
1, 261739, Control_c, 0, 64, 63
1, 261754, Control_c, 0, 64, 61
1, 261769, Control_c, 0, 64, 58
1, 261782, Note_on_c, 0, 57, 59
1, 261783, Note_on_c, 0, 53, 75
1, 261783, Control_c, 0, 64, 53
1, 261798, Control_c, 0, 64, 49
1, 261800, Note_off_c, 0, 52, 59
1, 261813, Control_c, 0, 64, 48
1, 261828, Control_c, 0, 64, 50
1, 261843, Control_c, 0, 64, 53
1, 261846, Note_off_c, 0, 57, 43
1, 261859, Control_c, 0, 64, 56
1, 261865, Note_on_c, 0, 61, 60
1, 261874, Control_c, 0, 64, 58
1, 261889, Control_c, 0, 64, 58
1, 261904, Control_c, 0, 64, 57
1, 261919, Control_c, 0, 64, 57
1, 261934, Control_c, 0, 64, 56
1, 261936, Note_off_c, 0, 61, 58
1, 261949, Note_on_c, 0, 60, 64
1, 261949, Control_c, 0, 64, 53
1, 261963, Control_c, 0, 64, 43
1, 261978, Control_c, 0, 64, 0
1, 261981, Note_off_c, 0, 60, 67
1, 262022, Note_on_c, 0, 62, 64
1, 262055, Note_off_c, 0, 62, 63
1, 262067, Control_c, 0, 64, 37
1, 262081, Control_c, 0, 64, 48
1, 262096, Control_c, 0, 64, 57
1, 262104, Note_on_c, 0, 59, 59
1, 262111, Control_c, 0, 64, 61
1, 262126, Control_c, 0, 64, 63
1, 262158, Note_off_c, 0, 59, 54
1, 262170, Control_c, 0, 64, 63
1, 262176, Note_on_c, 0, 63, 61
1, 262185, Control_c, 0, 64, 60
1, 262200, Control_c, 0, 64, 50
1, 262214, Control_c, 0, 64, 31
1, 262229, Control_c, 0, 64, 0
1, 262250, Note_off_c, 0, 63, 61
1, 262262, Note_on_c, 0, 47, 69
1, 262272, Note_on_c, 0, 62, 63
1, 262274, Control_c, 0, 64, 34
1, 262288, Control_c, 0, 64, 48
1, 262295, Note_off_c, 0, 53, 58
1, 262303, Control_c, 0, 64, 57
1, 262318, Control_c, 0, 64, 63
1, 262326, Note_off_c, 0, 62, 53
1, 262333, Control_c, 0, 64, 65
1, 262348, Control_c, 0, 64, 66
1, 262352, Note_on_c, 0, 64, 55
1, 262385, Control_c, 0, 64, 62
1, 262400, Control_c, 0, 64, 45
1, 262408, Note_off_c, 0, 64, 61
1, 262414, Control_c, 0, 64, 0
1, 262439, Note_on_c, 0, 61, 71
1, 262443, Note_on_c, 0, 43, 75
1, 262451, Note_off_c, 0, 47, 63
1, 262459, Control_c, 0, 64, 32
1, 262470, Note_off_c, 0, 61, 66
1, 262474, Control_c, 0, 64, 52
1, 262488, Control_c, 0, 64, 62
1, 262503, Control_c, 0, 64, 66
1, 262514, Note_on_c, 0, 65, 77
1, 262518, Control_c, 0, 64, 67
1, 262533, Control_c, 0, 64, 66
1, 262548, Control_c, 0, 64, 62
1, 262563, Control_c, 0, 64, 54
1, 262567, Note_off_c, 0, 65, 64
1, 262578, Control_c, 0, 64, 45
1, 262587, Note_on_c, 0, 69, 70
1, 262592, Control_c, 0, 64, 45
1, 262607, Control_c, 0, 64, 51
1, 262622, Control_c, 0, 64, 60
1, 262635, Note_off_c, 0, 69, 60
1, 262637, Control_c, 0, 64, 64
1, 262652, Control_c, 0, 64, 67
1, 262664, Note_on_c, 0, 73, 75
1, 262667, Control_c, 0, 64, 70
1, 262682, Control_c, 0, 64, 72
1, 262690, Note_off_c, 0, 73, 68
1, 262691, Note_off_c, 0, 43, 63
1, 262697, Control_c, 0, 64, 74
1, 262727, Control_c, 0, 64, 68
1, 262741, Control_c, 0, 64, 55
1, 262753, Note_on_c, 0, 73, 69
1, 262756, Control_c, 0, 64, 0
1, 262768, Note_on_c, 0, 41, 53
1, 262790, Note_off_c, 0, 73, 63
1, 262801, Control_c, 0, 64, 47
1, 262801, Control_c, 0, 67, 117
1, 262816, Control_c, 0, 64, 66
1, 262816, Control_c, 0, 67, 107
1, 262831, Control_c, 0, 64, 74
1, 262831, Control_c, 0, 67, 98
1, 262835, Note_on_c, 0, 74, 70
1, 262845, Control_c, 0, 64, 82
1, 262845, Control_c, 0, 67, 91
1, 262860, Control_c, 0, 64, 84
1, 262860, Control_c, 0, 67, 82
1, 262867, Note_off_c, 0, 74, 60
1, 262875, Control_c, 0, 64, 84
1, 262875, Control_c, 0, 67, 73
1, 262887, Note_off_c, 0, 41, 62
1, 262890, Control_c, 0, 64, 79
1, 262890, Control_c, 0, 67, 64
1, 262903, Note_on_c, 0, 76, 72
1, 262904, Control_c, 0, 64, 69
1, 262904, Control_c, 0, 67, 54
1, 262911, Note_on_c, 0, 40, 57
1, 262919, Control_c, 0, 64, 55
1, 262919, Control_c, 0, 67, 46
1, 262934, Control_c, 0, 64, 39
1, 262934, Control_c, 0, 67, 40
1, 262945, Note_off_c, 0, 76, 56
1, 262949, Control_c, 0, 64, 0
1, 262949, Control_c, 0, 67, 35
1, 262964, Control_c, 0, 67, 32
1, 262968, Note_on_c, 0, 77, 73
1, 262978, Control_c, 0, 67, 29
1, 262993, Control_c, 0, 67, 25
1, 263007, Note_off_c, 0, 77, 64
1, 263008, Control_c, 0, 67, 19
1, 263023, Control_c, 0, 67, 0
1, 263026, Note_off_c, 0, 40, 63
1, 263052, Note_on_c, 0, 81, 94
1, 263066, Note_on_c, 0, 38, 59
1, 263069, Note_on_c, 0, 45, 66
1, 263075, Note_on_c, 0, 74, 59
1, 263095, Note_off_c, 0, 74, 63
1, 263111, Control_c, 0, 64, 44
1, 263122, Note_on_c, 0, 77, 76
1, 263134, Control_c, 0, 64, 59
1, 263149, Control_c, 0, 64, 63
1, 263152, Note_off_c, 0, 81, 62
1, 263163, Control_c, 0, 64, 66
1, 263178, Control_c, 0, 64, 68
1, 263193, Control_c, 0, 64, 68
1, 263209, Note_on_c, 0, 74, 66
1, 263267, Control_c, 0, 64, 68
1, 263276, Note_off_c, 0, 74, 62
1, 263282, Control_c, 0, 64, 67
1, 263297, Note_off_c, 0, 77, 63
1, 263297, Control_c, 0, 64, 64
1, 263301, Note_on_c, 0, 69, 67
1, 263311, Control_c, 0, 64, 61
1, 263326, Control_c, 0, 64, 56
1, 263341, Control_c, 0, 64, 51
1, 263344, Note_off_c, 0, 69, 60
1, 263356, Control_c, 0, 64, 41
1, 263370, Control_c, 0, 64, 0
1, 263391, Note_on_c, 0, 77, 77
1, 263391, Note_off_c, 0, 45, 63
1, 263403, Note_on_c, 0, 46, 58
1, 263408, Note_on_c, 0, 70, 63
1, 263433, Note_off_c, 0, 70, 64
1, 263472, Note_off_c, 0, 77, 62
1, 263475, Note_on_c, 0, 73, 69
1, 263475, Control_c, 0, 64, 33
1, 263490, Control_c, 0, 64, 47
1, 263505, Control_c, 0, 64, 56
1, 263520, Control_c, 0, 64, 62
1, 263534, Control_c, 0, 64, 64
1, 263545, Note_on_c, 0, 70, 64
1, 263549, Control_c, 0, 64, 65
1, 263564, Control_c, 0, 64, 65
1, 263594, Control_c, 0, 64, 66
1, 263601, Note_off_c, 0, 70, 58
1, 263624, Control_c, 0, 64, 65
1, 263627, Note_off_c, 0, 73, 56
1, 263639, Control_c, 0, 64, 65
1, 263645, Note_on_c, 0, 65, 52
1, 263653, Control_c, 0, 64, 63
1, 263668, Control_c, 0, 64, 61
1, 263672, Note_off_c, 0, 65, 60
1, 263683, Control_c, 0, 64, 57
1, 263698, Control_c, 0, 64, 51
1, 263713, Control_c, 0, 64, 41
1, 263725, Note_on_c, 0, 74, 66
1, 263727, Note_off_c, 0, 46, 64
1, 263728, Control_c, 0, 64, 0
1, 263731, Note_on_c, 0, 47, 65
1, 263749, Note_on_c, 0, 67, 51
1, 263779, Note_off_c, 0, 67, 59
1, 263791, Note_off_c, 0, 74, 63
1, 263801, Control_c, 0, 64, 33
1, 263803, Note_on_c, 0, 71, 64
1, 263816, Control_c, 0, 64, 47
1, 263831, Control_c, 0, 64, 55
1, 263846, Control_c, 0, 64, 59
1, 263860, Control_c, 0, 64, 61
1, 263883, Control_c, 0, 64, 62
1, 263886, Note_on_c, 0, 67, 50
1, 263913, Control_c, 0, 64, 62
1, 263929, Note_off_c, 0, 71, 60
1, 263948, Note_off_c, 0, 67, 64
1, 263976, Note_on_c, 0, 62, 54
1, 263986, Control_c, 0, 64, 61
1, 264001, Control_c, 0, 64, 60
1, 264004, Note_off_c, 0, 62, 63
1, 264016, Control_c, 0, 64, 56
1, 264031, Control_c, 0, 64, 50
1, 264046, Control_c, 0, 64, 39
1, 264053, Note_on_c, 0, 48, 68
1, 264057, Note_on_c, 0, 69, 63
1, 264060, Control_c, 0, 64, 0
1, 264064, Note_off_c, 0, 47, 60
1, 264080, Note_on_c, 0, 62, 59
1, 264117, Note_off_c, 0, 62, 63
1, 264123, Note_off_c, 0, 69, 62
1, 264136, Note_on_c, 0, 65, 61
1, 264150, Control_c, 0, 64, 30
1, 264165, Control_c, 0, 64, 46
1, 264179, Control_c, 0, 64, 56
1, 264194, Control_c, 0, 64, 61
1, 264206, Note_on_c, 0, 62, 53
1, 264209, Control_c, 0, 64, 63
1, 264224, Control_c, 0, 64, 64
1, 264239, Control_c, 0, 64, 65
1, 264243, Note_off_c, 0, 62, 64
1, 264255, Control_c, 0, 64, 65
1, 264294, Note_on_c, 0, 57, 57
1, 264298, Note_off_c, 0, 65, 57
1, 264299, Control_c, 0, 64, 64
1, 264314, Control_c, 0, 64, 62
1, 264329, Control_c, 0, 64, 59
1, 264331, Note_off_c, 0, 57, 64
1, 264344, Control_c, 0, 64, 52
1, 264358, Control_c, 0, 64, 40
1, 264373, Control_c, 0, 64, 0
1, 264384, Note_on_c, 0, 49, 79
1, 264389, Note_on_c, 0, 65, 65
1, 264389, Note_off_c, 0, 48, 64
1, 264395, Note_on_c, 0, 58, 51
1, 264437, Note_off_c, 0, 58, 64
1, 264449, Note_off_c, 0, 65, 62
1, 264460, Note_on_c, 0, 61, 65
1, 264476, Control_c, 0, 64, 34
1, 264491, Control_c, 0, 64, 50
1, 264506, Control_c, 0, 64, 61
1, 264521, Control_c, 0, 64, 65
1, 264530, Note_on_c, 0, 58, 65
1, 264536, Control_c, 0, 64, 67
1, 264551, Control_c, 0, 64, 68
1, 264564, Note_off_c, 0, 61, 59
1, 264566, Control_c, 0, 64, 69
1, 264577, Note_off_c, 0, 58, 59
1, 264581, Control_c, 0, 64, 70
1, 264623, Note_on_c, 0, 53, 52
1, 264625, Control_c, 0, 64, 70
1, 264647, Control_c, 0, 64, 69
1, 264662, Control_c, 0, 64, 67
1, 264667, Note_off_c, 0, 53, 64
1, 264677, Control_c, 0, 64, 63
1, 264691, Control_c, 0, 64, 54
1, 264706, Control_c, 0, 64, 36
1, 264717, Note_on_c, 0, 62, 59
1, 264721, Note_on_c, 0, 50, 81
1, 264721, Control_c, 0, 64, 0
1, 264730, Note_off_c, 0, 49, 64
1, 264748, Note_on_c, 0, 55, 49
1, 264783, Note_off_c, 0, 55, 63
1, 264783, Note_off_c, 0, 62, 62
1, 264801, Note_on_c, 0, 59, 55
1, 264810, Control_c, 0, 64, 30
1, 264825, Control_c, 0, 64, 46
1, 264840, Control_c, 0, 64, 59
1, 264854, Control_c, 0, 64, 65
1, 264869, Control_c, 0, 64, 68
1, 264879, Note_on_c, 0, 55, 59
1, 264883, Control_c, 0, 64, 70
1, 264898, Control_c, 0, 64, 71
1, 264913, Control_c, 0, 64, 72
1, 264938, Note_off_c, 0, 55, 53
1, 264961, Note_on_c, 0, 49, 58
1, 264972, Control_c, 0, 64, 71
1, 264986, Note_off_c, 0, 59, 55
1, 264987, Control_c, 0, 64, 70
1, 265001, Control_c, 0, 64, 69
1, 265016, Control_c, 0, 64, 66
1, 265018, Note_off_c, 0, 49, 60
1, 265031, Control_c, 0, 64, 64
1, 265046, Control_c, 0, 64, 59
1, 265059, Note_on_c, 0, 55, 63
1, 265061, Note_on_c, 0, 47, 71
1, 265062, Control_c, 0, 64, 47
1, 265064, Note_off_c, 0, 50, 62
1, 265077, Control_c, 0, 64, 0
1, 265126, Note_on_c, 0, 59, 48
1, 265129, Note_off_c, 0, 55, 56
1, 265136, Control_c, 0, 64, 37
1, 265151, Control_c, 0, 64, 55
1, 265166, Control_c, 0, 64, 62
1, 265180, Control_c, 0, 64, 64
1, 265195, Control_c, 0, 64, 65
1, 265209, Note_off_c, 0, 59, 59
1, 265210, Control_c, 0, 64, 66
1, 265213, Note_on_c, 0, 55, 43
1, 265262, Note_off_c, 0, 55, 59
1, 265280, Note_on_c, 0, 50, 38
1, 265310, Note_off_c, 0, 50, 60
1, 265344, Control_c, 0, 64, 65
1, 265380, Control_c, 0, 64, 65
1, 265395, Control_c, 0, 64, 63
1, 265409, Note_on_c, 0, 42, 59
1, 265410, Control_c, 0, 64, 54
1, 265412, Note_off_c, 0, 47, 64
1, 265425, Control_c, 0, 64, 32
1, 265439, Control_c, 0, 64, 0
1, 265514, Control_c, 0, 64, 35
1, 265529, Control_c, 0, 64, 56
1, 265544, Control_c, 0, 64, 63
1, 265558, Control_c, 0, 64, 65
1, 265573, Control_c, 0, 64, 65
1, 265618, Control_c, 0, 64, 64
1, 265632, Control_c, 0, 64, 56
1, 265647, Control_c, 0, 64, 0
1, 265657, Note_off_c, 0, 38, 64
1, 265661, Note_on_c, 0, 43, 63
1, 265721, Control_c, 0, 64, 40
1, 265723, Note_off_c, 0, 43, 55
1, 265736, Control_c, 0, 64, 55
1, 265740, Note_on_c, 0, 44, 74
1, 265741, Note_off_c, 0, 42, 62
1, 265751, Control_c, 0, 64, 51
1, 265758, Note_on_c, 0, 38, 48
1, 265765, Control_c, 0, 64, 41
1, 265780, Control_c, 0, 64, 36
1, 265795, Control_c, 0, 64, 47
1, 265810, Control_c, 0, 64, 58
1, 265824, Control_c, 0, 64, 56
1, 265839, Control_c, 0, 64, 51
1, 265842, Note_on_c, 0, 74, 67
1, 265855, Control_c, 0, 64, 46
1, 265870, Control_c, 0, 64, 47
1, 265885, Control_c, 0, 64, 53
1, 265900, Control_c, 0, 64, 56
1, 265908, Note_off_c, 0, 74, 58
1, 265915, Control_c, 0, 64, 51
1, 265916, Note_on_c, 0, 76, 69
1, 265929, Control_c, 0, 64, 43
1, 265944, Control_c, 0, 64, 33
1, 265959, Control_c, 0, 64, 0
1, 265966, Note_on_c, 0, 77, 76
1, 265970, Note_off_c, 0, 76, 63
1, 266015, Note_off_c, 0, 77, 64
1, 266045, Note_on_c, 0, 81, 92
1, 266052, Note_on_c, 0, 74, 85
1, 266058, Note_on_c, 0, 45, 72
1, 266058, Note_off_c, 0, 44, 66
1, 266077, Control_c, 0, 64, 43
1, 266084, Note_off_c, 0, 74, 63
1, 266092, Control_c, 0, 64, 53
1, 266107, Control_c, 0, 64, 59
1, 266129, Control_c, 0, 64, 61
1, 266132, Note_on_c, 0, 77, 83
1, 266144, Control_c, 0, 64, 62
1, 266146, Note_off_c, 0, 81, 63
1, 266159, Control_c, 0, 64, 62
1, 266174, Control_c, 0, 64, 63
1, 266188, Control_c, 0, 64, 64
1, 266203, Control_c, 0, 64, 66
1, 266217, Note_on_c, 0, 74, 73
1, 266218, Control_c, 0, 64, 68
1, 266233, Control_c, 0, 64, 69
1, 266248, Control_c, 0, 64, 70
1, 266273, Note_off_c, 0, 74, 64
1, 266298, Note_on_c, 0, 69, 69
1, 266298, Note_off_c, 0, 77, 63
1, 266333, Note_off_c, 0, 69, 62
1, 266336, Control_c, 0, 64, 67
1, 266351, Control_c, 0, 64, 59
1, 266366, Control_c, 0, 64, 41
1, 266375, Note_on_c, 0, 77, 90
1, 266380, Note_on_c, 0, 46, 72
1, 266381, Control_c, 0, 64, 0
1, 266381, Note_off_c, 0, 45, 63
1, 266393, Note_on_c, 0, 70, 71
1, 266416, Note_off_c, 0, 77, 61
1, 266423, Note_off_c, 0, 70, 61
1, 266444, Note_on_c, 0, 73, 72
1, 266455, Control_c, 0, 64, 43
1, 266470, Control_c, 0, 64, 54
1, 266485, Control_c, 0, 64, 59
1, 266499, Control_c, 0, 64, 62
1, 266514, Control_c, 0, 64, 65
1, 266529, Control_c, 0, 64, 67
1, 266535, Note_on_c, 0, 70, 69
1, 266544, Control_c, 0, 64, 70
1, 266559, Control_c, 0, 64, 72
1, 266573, Control_c, 0, 64, 74
1, 266588, Control_c, 0, 64, 75
1, 266602, Note_off_c, 0, 70, 61
1, 266603, Control_c, 0, 64, 76
1, 266604, Note_on_c, 0, 65, 74
1, 266605, Note_off_c, 0, 73, 63
1, 266618, Control_c, 0, 64, 76
1, 266635, Note_off_c, 0, 65, 67
1, 266688, Note_on_c, 0, 74, 82
1, 266693, Control_c, 0, 64, 71
1, 266700, Note_on_c, 0, 47, 71
1, 266705, Note_on_c, 0, 67, 64
1, 266708, Control_c, 0, 64, 58
1, 266712, Note_off_c, 0, 46, 62
1, 266723, Control_c, 0, 64, 0
1, 266748, Note_off_c, 0, 67, 60
1, 266755, Note_off_c, 0, 74, 63
1, 266756, Note_on_c, 0, 71, 77
1, 266811, Control_c, 0, 64, 42
1, 266826, Control_c, 0, 64, 51
1, 266834, Note_on_c, 0, 67, 60
1, 266841, Control_c, 0, 64, 59
1, 266856, Control_c, 0, 64, 63
1, 266878, Control_c, 0, 64, 66
1, 266893, Control_c, 0, 64, 67
1, 266903, Note_off_c, 0, 67, 65
1, 266908, Control_c, 0, 64, 69
1, 266916, Note_off_c, 0, 71, 62
1, 266923, Control_c, 0, 64, 69
1, 266928, Note_on_c, 0, 62, 69
1, 266937, Control_c, 0, 64, 70
1, 266963, Note_off_c, 0, 62, 65
1, 267011, Control_c, 0, 64, 65
1, 267019, Note_on_c, 0, 48, 83
1, 267025, Note_on_c, 0, 69, 70
1, 267026, Control_c, 0, 64, 49
1, 267028, Note_on_c, 0, 62, 63
1, 267034, Note_off_c, 0, 47, 65
1, 267041, Control_c, 0, 64, 0
1, 267077, Note_off_c, 0, 62, 56
1, 267081, Note_off_c, 0, 69, 62
1, 267100, Control_c, 0, 64, 31
1, 267103, Note_on_c, 0, 65, 73
1, 267114, Control_c, 0, 64, 53
1, 267129, Control_c, 0, 64, 60
1, 267144, Control_c, 0, 64, 62
1, 267159, Control_c, 0, 64, 63
1, 267171, Note_on_c, 0, 62, 76
1, 267174, Control_c, 0, 64, 64
1, 267189, Control_c, 0, 64, 65
1, 267203, Control_c, 0, 64, 66
1, 267218, Control_c, 0, 64, 66
1, 267223, Note_off_c, 0, 62, 63
1, 267249, Note_off_c, 0, 65, 62
1, 267257, Note_on_c, 0, 57, 70
1, 267288, Note_off_c, 0, 57, 64
1, 267292, Control_c, 0, 64, 64
1, 267307, Control_c, 0, 64, 51
1, 267321, Control_c, 0, 64, 0
1, 267339, Note_on_c, 0, 49, 75
1, 267340, Note_on_c, 0, 65, 85
1, 267344, Note_off_c, 0, 48, 64
1, 267344, Note_on_c, 0, 58, 72
1, 267390, Note_off_c, 0, 65, 62
1, 267392, Note_off_c, 0, 58, 53
1, 267410, Control_c, 0, 64, 43
1, 267411, Note_on_c, 0, 61, 72
1, 267425, Control_c, 0, 64, 55
1, 267440, Control_c, 0, 64, 58
1, 267456, Control_c, 0, 64, 61
1, 267471, Control_c, 0, 64, 64
1, 267486, Control_c, 0, 64, 66
1, 267495, Note_on_c, 0, 58, 70
1, 267500, Control_c, 0, 64, 67
1, 267515, Control_c, 0, 64, 68
1, 267534, Note_off_c, 0, 61, 53
1, 267541, Note_off_c, 0, 58, 61
1, 267574, Control_c, 0, 64, 67
1, 267579, Note_on_c, 0, 53, 61
1, 267589, Control_c, 0, 64, 66
1, 267604, Control_c, 0, 64, 64
1, 267623, Note_off_c, 0, 53, 63
1, 267626, Control_c, 0, 64, 60
1, 267641, Control_c, 0, 64, 49
1, 267656, Control_c, 0, 64, 0
1, 267669, Note_on_c, 0, 62, 68
1, 267678, Note_on_c, 0, 50, 66
1, 267686, Note_off_c, 0, 49, 64
1, 267699, Note_on_c, 0, 55, 49
1, 267729, Note_off_c, 0, 55, 57
1, 267742, Note_off_c, 0, 62, 63
1, 267745, Control_c, 0, 67, 21
1, 267759, Control_c, 0, 67, 23
1, 267761, Note_on_c, 0, 59, 52
1, 267789, Control_c, 0, 64, 40
1, 267789, Control_c, 0, 67, 25
1, 267804, Control_c, 0, 64, 53
1, 267819, Control_c, 0, 64, 59
1, 267825, Note_on_c, 0, 55, 50
1, 267833, Control_c, 0, 64, 61
1, 267848, Control_c, 0, 64, 62
1, 267889, Note_off_c, 0, 55, 62
1, 267893, Control_c, 0, 64, 61
1, 267905, Note_on_c, 0, 49, 50
1, 267907, Control_c, 0, 64, 61
1, 267919, Note_off_c, 0, 59, 24
1, 267922, Control_c, 0, 64, 59
1, 267937, Control_c, 0, 64, 56
1, 267952, Control_c, 0, 64, 49
1, 267956, Note_off_c, 0, 49, 62
1, 267967, Control_c, 0, 64, 37
1, 267982, Control_c, 0, 64, 0
1, 267997, Note_off_c, 0, 50, 57
1, 267998, Note_on_c, 0, 62, 40
1, 268005, Note_on_c, 0, 47, 46
1, 268017, Note_on_c, 0, 55, 43
1, 268026, Control_c, 0, 67, 27
1, 268036, Note_off_c, 0, 62, 50
1, 268044, Note_off_c, 0, 55, 57
1, 268074, Note_on_c, 0, 59, 42
1, 268100, Control_c, 0, 64, 32
1, 268115, Control_c, 0, 64, 42
1, 268120, Note_off_c, 0, 59, 64
1, 268130, Control_c, 0, 64, 50
1, 268137, Note_on_c, 0, 55, 44
1, 268144, Control_c, 0, 64, 56
1, 268155, Note_off_c, 0, 47, 63
1, 268159, Control_c, 0, 64, 59
1, 268161, Note_off_c, 0, 38, 37
1, 268174, Control_c, 0, 64, 60
1, 268188, Note_off_c, 0, 55, 55
1, 268189, Control_c, 0, 64, 61
1, 268194, Note_on_c, 0, 43, 45
1, 268249, Control_c, 0, 64, 61
1, 268250, Note_off_c, 0, 43, 64
1, 268294, Control_c, 0, 64, 61
1, 268309, Control_c, 0, 64, 59
1, 268313, Note_on_c, 0, 38, 26
1, 268323, Control_c, 0, 64, 54
1, 268338, Control_c, 0, 64, 45
1, 268353, Control_c, 0, 64, 0
1, 268400, Note_on_c, 0, 39, 49
1, 268405, Control_c, 0, 67, 29
1, 268435, Control_c, 0, 67, 33
1, 268449, Control_c, 0, 67, 37
1, 268464, Control_c, 0, 67, 39
1, 268479, Control_c, 0, 64, 35
1, 268479, Control_c, 0, 67, 40
1, 268481, Note_off_c, 0, 39, 57
1, 268494, Control_c, 0, 64, 44
1, 268494, Control_c, 0, 67, 41
1, 268500, Note_on_c, 0, 40, 41
1, 268508, Control_c, 0, 64, 51
1, 268508, Control_c, 0, 67, 41
1, 268523, Control_c, 0, 64, 53
1, 268538, Control_c, 0, 64, 54
1, 268538, Control_c, 0, 67, 42
1, 268553, Control_c, 0, 64, 55
1, 268553, Control_c, 0, 67, 42
1, 268567, Note_on_c, 0, 43, 46
1, 268568, Control_c, 0, 64, 53
1, 268568, Control_c, 0, 67, 45
1, 268582, Control_c, 0, 64, 48
1, 268582, Control_c, 0, 67, 50
1, 268597, Control_c, 0, 64, 38
1, 268597, Control_c, 0, 67, 53
1, 268610, Note_off_c, 0, 40, 61
1, 268612, Control_c, 0, 64, 38
1, 268612, Control_c, 0, 67, 55
1, 268627, Control_c, 0, 64, 49
1, 268627, Control_c, 0, 67, 56
1, 268642, Control_c, 0, 64, 59
1, 268642, Control_c, 0, 67, 57
1, 268656, Control_c, 0, 64, 64
1, 268656, Control_c, 0, 67, 58
1, 268666, Note_on_c, 0, 45, 48
1, 268671, Control_c, 0, 64, 66
1, 268671, Control_c, 0, 67, 62
1, 268686, Control_c, 0, 64, 67
1, 268686, Control_c, 0, 67, 68
1, 268700, Control_c, 0, 64, 69
1, 268700, Control_c, 0, 67, 73
1, 268714, Note_off_c, 0, 43, 59
1, 268715, Control_c, 0, 64, 72
1, 268715, Control_c, 0, 67, 79
1, 268724, Note_off_c, 0, 45, 63
1, 268730, Control_c, 0, 64, 74
1, 268730, Control_c, 0, 67, 84
1, 268736, Note_off_c, 0, 38, 53
1, 268745, Control_c, 0, 64, 75
1, 268745, Control_c, 0, 67, 89
1, 268747, Note_on_c, 0, 48, 52
1, 268760, Control_c, 0, 67, 94
1, 268775, Control_c, 0, 67, 99
1, 268790, Control_c, 0, 64, 75
1, 268790, Control_c, 0, 67, 103
1, 268799, Note_off_c, 0, 48, 60
1, 268805, Control_c, 0, 64, 74
1, 268805, Control_c, 0, 67, 107
1, 268814, Note_on_c, 0, 49, 61
1, 268820, Control_c, 0, 64, 72
1, 268820, Control_c, 0, 67, 110
1, 268834, Control_c, 0, 64, 69
1, 268834, Control_c, 0, 67, 113
1, 268849, Control_c, 0, 64, 68
1, 268849, Control_c, 0, 67, 117
1, 268864, Control_c, 0, 64, 67
1, 268864, Control_c, 0, 67, 121
1, 268879, Control_c, 0, 64, 66
1, 268879, Control_c, 0, 67, 125
1, 268886, Note_off_c, 0, 49, 63
1, 268893, Control_c, 0, 67, 127
1, 268894, Note_on_c, 0, 50, 62
1, 268908, Control_c, 0, 64, 64
1, 268923, Control_c, 0, 64, 58
1, 268932, Note_off_c, 0, 50, 62
1, 268938, Control_c, 0, 64, 46
1, 268953, Control_c, 0, 64, 0
1, 268980, Note_on_c, 0, 44, 58
1, 268982, Control_c, 0, 64, 38
1, 268997, Control_c, 0, 64, 52
1, 269012, Control_c, 0, 64, 54
1, 269039, Note_off_c, 0, 44, 63
1, 269043, Control_c, 0, 64, 55
1, 269058, Control_c, 0, 64, 57
1, 269060, Note_on_c, 0, 46, 58
1, 269072, Control_c, 0, 64, 58
1, 269097, Note_off_c, 0, 46, 66
1, 269102, Control_c, 0, 64, 56
1, 269124, Control_c, 0, 64, 55
1, 269140, Note_on_c, 0, 43, 56
1, 269168, Control_c, 0, 64, 52
1, 269183, Control_c, 0, 64, 42
1, 269193, Note_off_c, 0, 43, 61
1, 269198, Control_c, 0, 64, 0
1, 269213, Note_on_c, 0, 47, 64
1, 269213, Control_c, 0, 64, 32
1, 269228, Control_c, 0, 64, 46
1, 269243, Control_c, 0, 64, 57
1, 269247, Note_off_c, 0, 47, 66
1, 269258, Control_c, 0, 64, 59
1, 269272, Control_c, 0, 64, 57
1, 269287, Control_c, 0, 64, 54
1, 269294, Note_on_c, 0, 46, 66
1, 269302, Control_c, 0, 64, 55
1, 269317, Control_c, 0, 64, 58
1, 269325, Note_off_c, 0, 46, 64
1, 269331, Control_c, 0, 64, 57
1, 269347, Control_c, 0, 64, 49
1, 269362, Control_c, 0, 64, 32
1, 269376, Note_on_c, 0, 54, 69
1, 269377, Control_c, 0, 64, 0
1, 269406, Control_c, 0, 64, 51
1, 269421, Control_c, 0, 64, 62
1, 269422, Note_off_c, 0, 54, 59
1, 269436, Control_c, 0, 64, 65
1, 269451, Control_c, 0, 64, 65
1, 269465, Note_on_c, 0, 42, 58
1, 269466, Control_c, 0, 64, 65
1, 269526, Note_off_c, 0, 42, 63
1, 269529, Note_on_c, 0, 54, 60
1, 269559, Note_off_c, 0, 54, 65
1, 269584, Control_c, 0, 64, 64
1, 269598, Control_c, 0, 64, 58
1, 269603, Note_on_c, 0, 38, 55
1, 269613, Control_c, 0, 64, 43
1, 269628, Control_c, 0, 64, 0
1, 269691, Note_on_c, 0, 39, 61
1, 269702, Control_c, 0, 64, 32
1, 269717, Control_c, 0, 64, 49
1, 269732, Control_c, 0, 64, 58
1, 269747, Control_c, 0, 64, 60
1, 269762, Control_c, 0, 64, 61
1, 269773, Note_on_c, 0, 40, 58
1, 269791, Control_c, 0, 64, 60
1, 269800, Note_off_c, 0, 39, 55
1, 269806, Control_c, 0, 64, 50
1, 269821, Control_c, 0, 64, 0
1, 269855, Note_on_c, 0, 43, 64
1, 269874, Control_c, 0, 64, 39
1, 269879, Note_off_c, 0, 40, 63
1, 269889, Control_c, 0, 64, 57
1, 269903, Control_c, 0, 64, 63
1, 269918, Control_c, 0, 64, 64
1, 269933, Control_c, 0, 64, 65
1, 269936, Note_on_c, 0, 45, 68
1, 269947, Control_c, 0, 64, 66
1, 269962, Control_c, 0, 64, 67
1, 269970, Note_off_c, 0, 43, 63
1, 269982, Note_off_c, 0, 38, 62
1, 269992, Control_c, 0, 64, 66
1, 269999, Note_off_c, 0, 45, 62
1, 270006, Note_on_c, 0, 48, 65
1, 270007, Control_c, 0, 64, 66
1, 270021, Control_c, 0, 64, 66
1, 270036, Control_c, 0, 64, 68
1, 270051, Control_c, 0, 64, 68
1, 270066, Control_c, 0, 64, 67
1, 270080, Note_on_c, 0, 49, 71
1, 270080, Note_off_c, 0, 48, 63
1, 270081, Control_c, 0, 64, 65
1, 270095, Control_c, 0, 64, 63
1, 270125, Control_c, 0, 64, 65
1, 270140, Control_c, 0, 64, 65
1, 270150, Note_on_c, 0, 50, 65
1, 270155, Control_c, 0, 64, 64
1, 270156, Note_off_c, 0, 49, 64
1, 270170, Control_c, 0, 64, 63
1, 270185, Control_c, 0, 64, 60
1, 270197, Note_off_c, 0, 50, 61
1, 270200, Control_c, 0, 64, 58
1, 270214, Control_c, 0, 64, 46
1, 270229, Control_c, 0, 64, 0
1, 270244, Note_on_c, 0, 44, 70
1, 270303, Control_c, 0, 64, 48
1, 270304, Note_off_c, 0, 44, 65
1, 270318, Note_on_c, 0, 46, 74
1, 270318, Control_c, 0, 64, 50
1, 270333, Control_c, 0, 64, 46
1, 270347, Control_c, 0, 64, 48
1, 270353, Note_off_c, 0, 46, 67
1, 270362, Control_c, 0, 64, 55
1, 270377, Control_c, 0, 64, 61
1, 270392, Control_c, 0, 64, 54
1, 270402, Note_on_c, 0, 43, 64
1, 270407, Control_c, 0, 64, 35
1, 270421, Control_c, 0, 64, 0
1, 270447, Note_off_c, 0, 43, 63
1, 270451, Control_c, 0, 64, 44
1, 270465, Control_c, 0, 64, 63
1, 270470, Note_on_c, 0, 47, 65
1, 270480, Control_c, 0, 64, 64
1, 270495, Control_c, 0, 64, 60
1, 270510, Control_c, 0, 64, 47
1, 270510, Control_c, 0, 67, 125
1, 270511, Note_off_c, 0, 47, 63
1, 270525, Control_c, 0, 64, 43
1, 270525, Control_c, 0, 67, 116
1, 270540, Control_c, 0, 64, 53
1, 270540, Control_c, 0, 67, 103
1, 270543, Note_on_c, 0, 46, 60
1, 270554, Control_c, 0, 64, 63
1, 270554, Control_c, 0, 67, 87
1, 270569, Control_c, 0, 64, 67
1, 270569, Control_c, 0, 67, 70
1, 270579, Note_off_c, 0, 46, 64
1, 270584, Control_c, 0, 64, 67
1, 270584, Control_c, 0, 67, 51
1, 270599, Control_c, 0, 67, 32
1, 270621, Note_on_c, 0, 49, 56
1, 270621, Control_c, 0, 64, 68
1, 270621, Control_c, 0, 67, 0
1, 270636, Control_c, 0, 64, 70
1, 270652, Control_c, 0, 64, 74
1, 270667, Control_c, 0, 64, 80
1, 270674, Note_off_c, 0, 49, 60
1, 270682, Control_c, 0, 64, 85
1, 270692, Note_on_c, 0, 46, 59
1, 270696, Control_c, 0, 64, 89
1, 270711, Control_c, 0, 64, 93
1, 270726, Control_c, 0, 64, 99
1, 270741, Control_c, 0, 64, 110
1, 270753, Note_off_c, 0, 46, 60
1, 270756, Control_c, 0, 64, 127
1, 270763, Note_on_c, 0, 49, 58
1, 270804, Note_off_c, 0, 49, 61
1, 270893, Note_on_c, 0, 38, 82
1, 270963, Control_c, 0, 64, 102
1, 270977, Control_c, 0, 64, 81
1, 270992, Control_c, 0, 64, 64
1, 271007, Control_c, 0, 64, 48
1, 271022, Control_c, 0, 64, 0
1, 271085, Note_on_c, 0, 43, 48
1, 271166, Note_on_c, 0, 46, 48
1, 271211, Note_off_c, 0, 43, 53
1, 271241, Note_off_c, 0, 46, 59
1, 271243, Note_on_c, 0, 49, 50
1, 271302, Note_on_c, 0, 52, 50
1, 271303, Control_c, 0, 64, 39
1, 271313, Note_off_c, 0, 49, 56
1, 271318, Control_c, 0, 64, 51
1, 271332, Control_c, 0, 64, 58
1, 271347, Control_c, 0, 64, 61
1, 271362, Control_c, 0, 64, 63
1, 271382, Note_on_c, 0, 43, 48
1, 271384, Control_c, 0, 64, 65
1, 271399, Control_c, 0, 64, 68
1, 271414, Control_c, 0, 64, 73
1, 271428, Control_c, 0, 64, 78
1, 271436, Note_off_c, 0, 52, 37
1, 271445, Control_c, 0, 64, 84
1, 271460, Control_c, 0, 64, 89
1, 271463, Note_on_c, 0, 46, 64
1, 271469, Note_off_c, 0, 43, 58
1, 271474, Control_c, 0, 64, 93
1, 271489, Control_c, 0, 64, 99
1, 271504, Control_c, 0, 64, 105
1, 271518, Control_c, 0, 64, 111
1, 271520, Note_off_c, 0, 46, 62
1, 271531, Note_on_c, 0, 49, 58
1, 271533, Control_c, 0, 64, 115
1, 271548, Control_c, 0, 64, 117
1, 271566, Note_off_c, 0, 49, 63
1, 271635, Note_on_c, 0, 47, 87
1, 271666, Control_c, 0, 64, 114
1, 271681, Control_c, 0, 64, 109
1, 271696, Control_c, 0, 64, 103
1, 271711, Control_c, 0, 64, 98
1, 271726, Control_c, 0, 64, 94
1, 271741, Control_c, 0, 64, 90
1, 271756, Control_c, 0, 64, 86
1, 271771, Control_c, 0, 64, 82
1, 271774, Note_on_c, 0, 48, 55
1, 271786, Control_c, 0, 64, 77
1, 271800, Control_c, 0, 64, 72
1, 271815, Control_c, 0, 64, 67
1, 271830, Control_c, 0, 64, 62
1, 271842, Note_off_c, 0, 38, 61
1, 271844, Control_c, 0, 64, 57
1, 271857, Note_on_c, 0, 51, 55
1, 271859, Control_c, 0, 64, 52
1, 271874, Control_c, 0, 64, 44
1, 271889, Control_c, 0, 64, 0
1, 271917, Note_off_c, 0, 48, 51
1, 271930, Note_on_c, 0, 54, 57
1, 271943, Note_off_c, 0, 51, 60
1, 272002, Note_off_c, 0, 54, 60
1, 272004, Note_on_c, 0, 59, 59
1, 272078, Note_on_c, 0, 48, 57
1, 272103, Note_off_c, 0, 59, 56
1, 272118, Control_c, 0, 64, 32
1, 272133, Control_c, 0, 64, 47
1, 272148, Control_c, 0, 64, 57
1, 272152, Note_off_c, 0, 48, 61
1, 272163, Control_c, 0, 64, 61
1, 272164, Note_on_c, 0, 51, 62
1, 272178, Control_c, 0, 64, 63
1, 272192, Control_c, 0, 64, 65
1, 272207, Control_c, 0, 64, 67
1, 272222, Control_c, 0, 64, 69
1, 272226, Note_off_c, 0, 51, 62
1, 272231, Note_on_c, 0, 54, 54
1, 272237, Control_c, 0, 64, 72
1, 272253, Control_c, 0, 64, 74
1, 272267, Control_c, 0, 64, 75
1, 272282, Control_c, 0, 64, 76
1, 272297, Control_c, 0, 64, 78
1, 272301, Note_off_c, 0, 54, 52
1, 272312, Control_c, 0, 64, 79
1, 272327, Control_c, 0, 64, 80
1, 272342, Control_c, 0, 64, 80
1, 272346, Note_on_c, 0, 45, 88
1, 272448, Note_on_c, 0, 48, 61
1, 272475, Control_c, 0, 64, 80
1, 272476, Note_off_c, 0, 47, 47
1, 272505, Control_c, 0, 64, 78
1, 272520, Control_c, 0, 64, 76
1, 272533, Note_off_c, 0, 48, 61
1, 272534, Note_on_c, 0, 52, 66
1, 272535, Control_c, 0, 64, 73
1, 272549, Control_c, 0, 64, 68
1, 272564, Control_c, 0, 64, 63
1, 272579, Control_c, 0, 64, 55
1, 272594, Control_c, 0, 64, 42
1, 272606, Note_on_c, 0, 53, 65
1, 272609, Control_c, 0, 64, 0
1, 272623, Note_off_c, 0, 52, 59
1, 272678, Note_off_c, 0, 53, 64
1, 272697, Note_on_c, 0, 57, 58
1, 272742, Control_c, 0, 64, 32
1, 272751, Note_on_c, 0, 52, 62
1, 272757, Control_c, 0, 64, 45
1, 272769, Note_off_c, 0, 57, 64
1, 272772, Control_c, 0, 64, 55
1, 272787, Control_c, 0, 64, 62
1, 272802, Control_c, 0, 64, 65
1, 272816, Control_c, 0, 64, 68
1, 272831, Control_c, 0, 64, 70
1, 272835, Note_off_c, 0, 52, 61
1, 272837, Note_on_c, 0, 53, 63
1, 272846, Control_c, 0, 64, 72
1, 272868, Control_c, 0, 64, 75
1, 272883, Control_c, 0, 64, 78
1, 272897, Control_c, 0, 64, 81
1, 272906, Note_on_c, 0, 60, 67
1, 272910, Note_off_c, 0, 53, 63
1, 272912, Control_c, 0, 64, 84
1, 272927, Control_c, 0, 64, 86
1, 272940, Note_off_c, 0, 60, 65
1, 272942, Control_c, 0, 64, 88
1, 272957, Control_c, 0, 64, 88
1, 272972, Control_c, 0, 64, 89
1, 273026, Note_on_c, 0, 52, 91
1, 273061, Control_c, 0, 64, 87
1, 273076, Control_c, 0, 64, 80
1, 273091, Control_c, 0, 64, 66
1, 273106, Control_c, 0, 64, 50
1, 273121, Control_c, 0, 64, 0
1, 273131, Note_off_c, 0, 45, 55
1, 273136, Note_on_c, 0, 54, 57
1, 273180, Control_c, 0, 64, 46
1, 273195, Control_c, 0, 64, 59
1, 273210, Control_c, 0, 64, 65
1, 273216, Note_on_c, 0, 58, 66
1, 273216, Note_off_c, 0, 54, 62
1, 273225, Control_c, 0, 64, 70
1, 273239, Control_c, 0, 64, 73
1, 273254, Control_c, 0, 64, 76
1, 273269, Control_c, 0, 64, 79
1, 273284, Control_c, 0, 64, 82
1, 273288, Note_on_c, 0, 61, 69
1, 273297, Note_off_c, 0, 58, 63
1, 273298, Control_c, 0, 64, 84
1, 273313, Control_c, 0, 64, 84
1, 273358, Control_c, 0, 64, 84
1, 273359, Note_on_c, 0, 54, 97
1, 273371, Note_on_c, 0, 64, 67
1, 273372, Control_c, 0, 64, 80
1, 273374, Note_off_c, 0, 52, 57
1, 273378, Note_off_c, 0, 61, 57
1, 273387, Control_c, 0, 64, 68
1, 273402, Control_c, 0, 64, 54
1, 273417, Control_c, 0, 64, 0
1, 273476, Control_c, 0, 64, 34
1, 273477, Note_on_c, 0, 52, 68
1, 273491, Control_c, 0, 64, 52
1, 273506, Control_c, 0, 64, 62
1, 273520, Control_c, 0, 64, 68
1, 273530, Note_off_c, 0, 64, 61
1, 273535, Control_c, 0, 64, 74
1, 273538, Note_on_c, 0, 58, 69
1, 273550, Control_c, 0, 64, 82
1, 273560, Note_off_c, 0, 52, 59
1, 273565, Control_c, 0, 64, 92
1, 273580, Control_c, 0, 64, 107
1, 273595, Control_c, 0, 64, 127
1, 273601, Note_on_c, 0, 61, 70
1, 273620, Note_off_c, 0, 58, 64
1, 273641, Note_off_c, 0, 61, 63
1, 273708, Note_on_c, 0, 50, 94
1, 273712, Note_off_c, 0, 54, 67
1, 273765, Control_c, 0, 64, 97
1, 273780, Control_c, 0, 64, 80
1, 273795, Control_c, 0, 64, 63
1, 273810, Control_c, 0, 64, 39
1, 273824, Control_c, 0, 64, 0
1, 273831, Note_on_c, 0, 53, 63
1, 273905, Note_on_c, 0, 58, 70
1, 273912, Note_off_c, 0, 53, 60
1, 273982, Note_on_c, 0, 62, 71
1, 273993, Note_off_c, 0, 58, 62
1, 274047, Control_c, 0, 64, 40
1, 274054, Note_off_c, 0, 62, 64
1, 274055, Note_on_c, 0, 65, 77
1, 274062, Control_c, 0, 64, 51
1, 274077, Control_c, 0, 64, 58
1, 274092, Control_c, 0, 64, 62
1, 274107, Control_c, 0, 64, 64
1, 274121, Control_c, 0, 64, 67
1, 274126, Note_on_c, 0, 53, 76
1, 274136, Control_c, 0, 64, 70
1, 274151, Control_c, 0, 64, 74
1, 274154, Note_off_c, 0, 65, 63
1, 274166, Control_c, 0, 64, 78
1, 274172, Note_off_c, 0, 53, 60
1, 274181, Control_c, 0, 64, 84
1, 274195, Control_c, 0, 64, 88
1, 274196, Note_on_c, 0, 59, 71
1, 274210, Control_c, 0, 64, 91
1, 274225, Control_c, 0, 64, 93
1, 274239, Control_c, 0, 64, 94
1, 274254, Control_c, 0, 64, 94
1, 274263, Note_on_c, 0, 62, 77
1, 274264, Note_off_c, 0, 59, 63
1, 274284, Control_c, 0, 64, 95
1, 274292, Note_off_c, 0, 62, 66
1, 274375, Note_on_c, 0, 59, 96
1, 274410, Control_c, 0, 64, 94
1, 274425, Control_c, 0, 64, 90
1, 274439, Control_c, 0, 64, 83
1, 274454, Control_c, 0, 64, 73
1, 274469, Control_c, 0, 64, 62
1, 274484, Control_c, 0, 64, 34
1, 274493, Note_on_c, 0, 56, 72
1, 274499, Control_c, 0, 64, 0
1, 274540, Note_off_c, 0, 50, 51
1, 274557, Note_on_c, 0, 62, 72
1, 274558, Note_off_c, 0, 56, 62
1, 274629, Note_on_c, 0, 65, 73
1, 274643, Note_off_c, 0, 62, 61
1, 274678, Control_c, 0, 64, 54
1, 274693, Control_c, 0, 64, 61
1, 274701, Note_on_c, 0, 70, 84
1, 274707, Note_off_c, 0, 65, 66
1, 274708, Control_c, 0, 64, 63
1, 274723, Control_c, 0, 64, 65
1, 274737, Control_c, 0, 64, 68
1, 274752, Control_c, 0, 64, 72
1, 274767, Control_c, 0, 64, 77
1, 274779, Note_on_c, 0, 63, 80
1, 274782, Note_off_c, 0, 70, 65
1, 274782, Control_c, 0, 64, 84
1, 274797, Control_c, 0, 64, 89
1, 274811, Control_c, 0, 64, 93
1, 274826, Control_c, 0, 64, 97
1, 274841, Control_c, 0, 64, 102
1, 274847, Note_on_c, 0, 66, 78
1, 274856, Control_c, 0, 64, 107
1, 274862, Note_off_c, 0, 63, 61
1, 274871, Control_c, 0, 64, 113
1, 274886, Control_c, 0, 64, 119
1, 274901, Control_c, 0, 64, 122
1, 274908, Note_off_c, 0, 66, 65
1, 274914, Note_on_c, 0, 71, 81
1, 274936, Note_off_c, 0, 71, 68
1, 274960, Control_c, 0, 64, 126
1, 275022, Note_on_c, 0, 55, 95
1, 275049, Control_c, 0, 64, 115
1, 275055, Note_off_c, 0, 59, 63
1, 275063, Control_c, 0, 64, 89
1, 275078, Control_c, 0, 64, 63
1, 275093, Control_c, 0, 64, 0
1, 275152, Note_on_c, 0, 59, 80
1, 275219, Control_c, 0, 64, 38
1, 275231, Note_off_c, 0, 59, 59
1, 275234, Control_c, 0, 64, 45
1, 275245, Note_on_c, 0, 64, 72
1, 275249, Control_c, 0, 64, 50
1, 275263, Control_c, 0, 64, 56
1, 275278, Control_c, 0, 64, 60
1, 275293, Control_c, 0, 64, 60
1, 275306, Note_on_c, 0, 67, 68
1, 275306, Note_off_c, 0, 64, 62
1, 275308, Control_c, 0, 64, 61
1, 275323, Control_c, 0, 64, 60
1, 275379, Note_on_c, 0, 71, 83
1, 275381, Control_c, 0, 64, 61
1, 275387, Note_off_c, 0, 67, 63
1, 275395, Control_c, 0, 64, 61
1, 275410, Control_c, 0, 64, 62
1, 275425, Control_c, 0, 64, 63
1, 275441, Control_c, 0, 64, 64
1, 275442, Note_off_c, 0, 71, 63
1, 275446, Note_on_c, 0, 76, 81
1, 275456, Control_c, 0, 64, 66
1, 275471, Control_c, 0, 64, 68
1, 275485, Control_c, 0, 64, 69
1, 275500, Control_c, 0, 64, 70
1, 275511, Note_on_c, 0, 71, 76
1, 275513, Note_off_c, 0, 76, 64
1, 275515, Control_c, 0, 64, 71
1, 275530, Control_c, 0, 64, 72
1, 275543, Note_off_c, 0, 71, 68
1, 275545, Control_c, 0, 64, 73
1, 275559, Control_c, 0, 64, 74
1, 275574, Control_c, 0, 64, 74
1, 275577, Note_on_c, 0, 67, 79
1, 275658, Note_off_c, 0, 67, 56
1, 275664, Control_c, 0, 64, 73
1, 275674, Note_on_c, 0, 72, 72
1, 275678, Note_on_c, 0, 54, 94
1, 275678, Control_c, 0, 64, 70
1, 275693, Control_c, 0, 64, 63
1, 275708, Control_c, 0, 64, 48
1, 275723, Control_c, 0, 64, 0
1, 275746, Note_off_c, 0, 72, 60
1, 275752, Note_on_c, 0, 79, 81
1, 275762, Note_off_c, 0, 55, 54
1, 275830, Note_off_c, 0, 79, 64
1, 275833, Note_on_c, 0, 72, 73
1, 275841, Control_c, 0, 64, 46
1, 275863, Control_c, 0, 64, 61
1, 275873, Note_off_c, 0, 72, 64
1, 275878, Control_c, 0, 64, 65
1, 275893, Control_c, 0, 64, 68
1, 275908, Control_c, 0, 64, 72
1, 275911, Note_on_c, 0, 64, 74
1, 275923, Control_c, 0, 64, 77
1, 275938, Control_c, 0, 64, 81
1, 275953, Control_c, 0, 64, 83
1, 275967, Control_c, 0, 64, 84
1, 275997, Control_c, 0, 64, 83
1, 276012, Control_c, 0, 64, 81
1, 276019, Note_on_c, 0, 67, 75
1, 276024, Note_on_c, 0, 52, 91
1, 276025, Note_off_c, 0, 64, 62
1, 276026, Control_c, 0, 64, 75
1, 276041, Control_c, 0, 64, 64
1, 276056, Control_c, 0, 64, 41
1, 276060, Note_off_c, 0, 54, 62
1, 276071, Control_c, 0, 64, 0
1, 276112, Note_on_c, 0, 60, 62
1, 276126, Note_off_c, 0, 67, 62
1, 276150, Note_off_c, 0, 60, 65
1, 276160, Control_c, 0, 64, 37
1, 276174, Control_c, 0, 64, 64
1, 276189, Control_c, 0, 64, 68
1, 276204, Control_c, 0, 64, 70
1, 276213, Note_on_c, 0, 54, 69
1, 276218, Control_c, 0, 64, 71
1, 276234, Control_c, 0, 64, 74
1, 276249, Control_c, 0, 64, 76
1, 276264, Control_c, 0, 64, 78
1, 276275, Note_on_c, 0, 55, 67
1, 276290, Note_off_c, 0, 54, 62
1, 276303, Note_off_c, 0, 55, 67
1, 276350, Note_on_c, 0, 50, 87
1, 276353, Control_c, 0, 64, 76
1, 276358, Note_off_c, 0, 52, 64
1, 276368, Control_c, 0, 64, 70
1, 276382, Control_c, 0, 64, 59
1, 276397, Control_c, 0, 64, 33
1, 276412, Control_c, 0, 64, 0
1, 276466, Note_on_c, 0, 54, 66
1, 276533, Note_off_c, 0, 54, 63
1, 276537, Note_on_c, 0, 55, 64
1, 276596, Note_off_c, 0, 55, 63
1, 276615, Note_on_c, 0, 58, 70
1, 276641, Note_off_c, 0, 58, 68
1, 276692, Note_on_c, 0, 59, 67
1, 276731, Control_c, 0, 64, 32
1, 276740, Note_off_c, 0, 59, 52
1, 276746, Control_c, 0, 64, 41
1, 276761, Control_c, 0, 64, 51
1, 276773, Note_on_c, 0, 61, 60
1, 276776, Control_c, 0, 64, 59
1, 276790, Control_c, 0, 64, 63
1, 276805, Control_c, 0, 64, 65
1, 276820, Control_c, 0, 64, 67
1, 276830, Note_on_c, 0, 62, 66
1, 276835, Control_c, 0, 64, 69
1, 276838, Note_off_c, 0, 61, 60
1, 276850, Control_c, 0, 64, 71
1, 276865, Control_c, 0, 64, 75
1, 276880, Control_c, 0, 64, 78
1, 276895, Control_c, 0, 64, 80
1, 276895, Note_off_c, 0, 62, 64
1, 276899, Note_on_c, 0, 66, 72
1, 276909, Control_c, 0, 64, 80
1, 276924, Note_off_c, 0, 66, 68
1, 276983, Control_c, 0, 64, 80
1, 277007, Note_on_c, 0, 43, 83
1, 277013, Control_c, 0, 64, 78
1, 277028, Control_c, 0, 64, 75
1, 277044, Control_c, 0, 64, 69
1, 277058, Control_c, 0, 64, 60
1, 277073, Control_c, 0, 64, 0
1, 277091, Note_off_c, 0, 50, 61
1, 277124, Note_on_c, 0, 49, 67
1, 277157, Note_off_c, 0, 49, 68
1, 277177, Control_c, 0, 64, 49
1, 277192, Control_c, 0, 64, 62
1, 277197, Note_on_c, 0, 50, 74
1, 277206, Control_c, 0, 64, 67
1, 277221, Control_c, 0, 64, 70
1, 277236, Control_c, 0, 64, 74
1, 277238, Note_off_c, 0, 50, 55
1, 277251, Control_c, 0, 64, 76
1, 277263, Note_on_c, 0, 53, 72
1, 277265, Control_c, 0, 64, 79
1, 277280, Control_c, 0, 64, 79
1, 277325, Control_c, 0, 64, 79
1, 277335, Note_on_c, 0, 54, 77
1, 277336, Note_off_c, 0, 53, 62
1, 277339, Control_c, 0, 64, 77
1, 277346, Note_on_c, 0, 45, 90
1, 277362, Control_c, 0, 64, 71
1, 277377, Control_c, 0, 64, 59
1, 277389, Note_off_c, 0, 54, 62
1, 277391, Control_c, 0, 64, 0
1, 277431, Note_on_c, 0, 57, 73
1, 277462, Note_off_c, 0, 43, 59
1, 277480, Control_c, 0, 64, 39
1, 277485, Note_off_c, 0, 57, 58
1, 277495, Control_c, 0, 64, 58
1, 277501, Note_on_c, 0, 59, 66
1, 277510, Control_c, 0, 64, 66
1, 277525, Control_c, 0, 64, 71
1, 277539, Control_c, 0, 64, 74
1, 277554, Control_c, 0, 64, 76
1, 277564, Note_on_c, 0, 60, 77
1, 277566, Note_off_c, 0, 59, 64
1, 277569, Control_c, 0, 64, 78
1, 277583, Control_c, 0, 64, 78
1, 277592, Note_off_c, 0, 60, 68
1, 277598, Control_c, 0, 64, 79
1, 277613, Control_c, 0, 64, 79
1, 277668, Note_on_c, 0, 46, 91
1, 277673, Control_c, 0, 64, 78
1, 277688, Control_c, 0, 64, 74
1, 277703, Control_c, 0, 64, 64
1, 277718, Control_c, 0, 64, 46
1, 277732, Control_c, 0, 64, 0
1, 277748, Note_off_c, 0, 45, 61
1, 277773, Note_on_c, 0, 49, 69
1, 277856, Note_off_c, 0, 49, 62
1, 277858, Note_on_c, 0, 53, 69
1, 277920, Note_on_c, 0, 61, 75
1, 277959, Note_off_c, 0, 53, 60
1, 278005, Note_on_c, 0, 58, 71
1, 278006, Note_off_c, 0, 61, 62
1, 278075, Note_on_c, 0, 53, 68
1, 278078, Note_off_c, 0, 58, 64
1, 278088, Control_c, 0, 64, 45
1, 278111, Control_c, 0, 64, 56
1, 278126, Control_c, 0, 64, 61
1, 278141, Control_c, 0, 64, 64
1, 278149, Note_off_c, 0, 53, 63
1, 278156, Control_c, 0, 64, 66
1, 278157, Note_on_c, 0, 49, 64
1, 278170, Control_c, 0, 64, 67
1, 278185, Control_c, 0, 64, 68
1, 278200, Control_c, 0, 64, 69
1, 278213, Note_on_c, 0, 53, 66
1, 278214, Control_c, 0, 64, 70
1, 278215, Note_off_c, 0, 49, 64
1, 278229, Control_c, 0, 64, 71
1, 278240, Note_off_c, 0, 53, 65
1, 278244, Control_c, 0, 64, 71
1, 278274, Control_c, 0, 64, 72
1, 278358, Note_on_c, 0, 37, 94
1, 278376, Note_off_c, 0, 46, 63
1, 278406, Control_c, 0, 64, 70
1, 278421, Control_c, 0, 64, 65
1, 278436, Control_c, 0, 64, 55
1, 278451, Control_c, 0, 64, 0
1, 278485, Note_on_c, 0, 45, 68
1, 278558, Note_off_c, 0, 45, 61
1, 278561, Note_on_c, 0, 49, 70
1, 278610, Note_on_c, 0, 57, 67
1, 278627, Note_off_c, 0, 49, 62
1, 278682, Note_on_c, 0, 52, 66
1, 278687, Note_off_c, 0, 57, 63
1, 278719, Control_c, 0, 64, 31
1, 278734, Control_c, 0, 64, 47
1, 278749, Control_c, 0, 64, 58
1, 278755, Note_on_c, 0, 49, 75
1, 278761, Note_off_c, 0, 52, 63
1, 278764, Control_c, 0, 64, 63
1, 278778, Control_c, 0, 64, 65
1, 278793, Control_c, 0, 64, 67
1, 278808, Control_c, 0, 64, 70
1, 278816, Note_off_c, 0, 49, 63
1, 278823, Control_c, 0, 64, 73
1, 278829, Note_on_c, 0, 45, 74
1, 278837, Control_c, 0, 64, 78
1, 278859, Control_c, 0, 64, 82
1, 278874, Control_c, 0, 64, 86
1, 278889, Control_c, 0, 64, 88
1, 278890, Note_off_c, 0, 45, 62
1, 278903, Note_on_c, 0, 49, 72
1, 278904, Control_c, 0, 64, 89
1, 278919, Control_c, 0, 64, 91
1, 278930, Note_off_c, 0, 49, 70
1, 278934, Control_c, 0, 64, 93
1, 278949, Control_c, 0, 64, 95
1, 278963, Control_c, 0, 64, 99
1, 278978, Control_c, 0, 64, 105
1, 278993, Control_c, 0, 64, 111
1, 279006, Note_on_c, 0, 47, 95
1, 279023, Control_c, 0, 64, 99
1, 279037, Control_c, 0, 64, 71
1, 279052, Control_c, 0, 64, 35
1, 279067, Control_c, 0, 64, 0
1, 279101, Note_on_c, 0, 42, 75
1, 279117, Note_off_c, 0, 37, 61
1, 279180, Note_off_c, 0, 42, 63
1, 279184, Note_on_c, 0, 46, 81
1, 279243, Note_on_c, 0, 54, 78
1, 279274, Note_off_c, 0, 46, 64
1, 279315, Note_on_c, 0, 50, 80
1, 279336, Note_off_c, 0, 54, 63
1, 279390, Note_on_c, 0, 46, 82
1, 279397, Note_off_c, 0, 50, 63
1, 279407, Control_c, 0, 64, 50
1, 279422, Control_c, 0, 64, 61
1, 279435, Note_off_c, 0, 46, 63
1, 279438, Control_c, 0, 64, 62
1, 279452, Control_c, 0, 64, 64
1, 279461, Note_on_c, 0, 41, 76
1, 279467, Control_c, 0, 64, 68
1, 279482, Control_c, 0, 64, 73
1, 279497, Control_c, 0, 64, 80
1, 279512, Control_c, 0, 64, 88
1, 279526, Control_c, 0, 64, 97
1, 279527, Note_on_c, 0, 42, 87
1, 279530, Note_off_c, 0, 41, 61
1, 279541, Control_c, 0, 64, 108
1, 279556, Control_c, 0, 64, 127
1, 279563, Note_off_c, 0, 42, 65
1, 279664, Note_on_c, 0, 38, 101
1, 279682, Control_c, 0, 64, 87
1, 279697, Control_c, 0, 64, 58
1, 279712, Control_c, 0, 64, 0
1, 279712, Note_off_c, 0, 47, 63
1, 279770, Note_on_c, 0, 50, 81
1, 279771, Control_c, 0, 64, 59
1, 279785, Control_c, 0, 64, 71
1, 279800, Control_c, 0, 64, 81
1, 279815, Control_c, 0, 64, 91
1, 279821, Note_on_c, 0, 39, 74
1, 279831, Control_c, 0, 64, 97
1, 279837, Note_off_c, 0, 50, 62
1, 279846, Control_c, 0, 64, 106
1, 279858, Note_off_c, 0, 39, 64
1, 279860, Control_c, 0, 64, 112
1, 279875, Note_on_c, 0, 40, 84
1, 279905, Control_c, 0, 64, 108
1, 279920, Control_c, 0, 64, 96
1, 279930, Note_off_c, 0, 40, 61
1, 279934, Control_c, 0, 64, 75
1, 279949, Control_c, 0, 64, 54
1, 279964, Control_c, 0, 64, 0
1, 279982, Note_on_c, 0, 41, 95
1, 280038, Control_c, 0, 64, 49
1, 280042, Note_off_c, 0, 41, 64
1, 280052, Control_c, 0, 64, 64
1, 280067, Control_c, 0, 64, 72
1, 280082, Control_c, 0, 64, 82
1, 280097, Control_c, 0, 64, 94
1, 280112, Control_c, 0, 64, 127
1, 280122, Note_on_c, 0, 42, 98
1, 280141, Note_off_c, 0, 42, 70
1, 280251, Poly_aftertouch_c, 0, 42, 127
1, 280268, Note_off_c, 0, 38, 65
1, 280275, Control_c, 0, 64, 95
1, 280284, Poly_aftertouch_c, 0, 42, 0
1, 280290, Control_c, 0, 64, 57
1, 280293, Note_on_c, 0, 43, 101
1, 280305, Control_c, 0, 64, 0
1, 280388, Note_on_c, 0, 85, 98
1, 280402, Control_c, 0, 64, 53
1, 280416, Control_c, 0, 64, 65
1, 280431, Control_c, 0, 64, 68
1, 280446, Control_c, 0, 64, 74
1, 280456, Note_on_c, 0, 87, 90
1, 280459, Note_off_c, 0, 85, 67
1, 280461, Control_c, 0, 64, 92
1, 280475, Control_c, 0, 64, 127
1, 280509, Note_on_c, 0, 88, 97
1, 280516, Note_on_c, 0, 80, 70
1, 280527, Note_off_c, 0, 87, 65
1, 280546, Note_off_c, 0, 80, 65
1, 280574, Note_off_c, 0, 88, 62
1, 280606, Note_on_c, 0, 31, 101
1, 280607, Note_on_c, 0, 91, 99
1, 280609, Note_on_c, 0, 83, 88
1, 280615, Note_on_c, 0, 89, 86
1, 280637, Note_on_c, 0, 84, 51
1, 280637, Note_off_c, 0, 84, 127
1, 280639, Control_c, 0, 64, 86
1, 280648, Note_off_c, 0, 89, 0
1, 280648, Note_on_c, 0, 89, 50
1, 280650, Note_off_c, 0, 83, 67
1, 280654, Control_c, 0, 64, 44
1, 280669, Control_c, 0, 64, 0
1, 280691, Note_off_c, 0, 89, 0
1, 280691, Note_on_c, 0, 89, 14
1, 280696, Note_on_c, 0, 88, 87
1, 280725, Note_off_c, 0, 91, 66
1, 280734, Note_off_c, 0, 89, 53
1, 280757, Note_on_c, 0, 84, 75
1, 280772, Control_c, 0, 64, 62
1, 280785, Note_on_c, 0, 83, 27
1, 280787, Note_off_c, 0, 88, 66
1, 280787, Control_c, 0, 64, 81
1, 280801, Control_c, 0, 64, 93
1, 280812, Note_off_c, 0, 84, 67
1, 280816, Control_c, 0, 64, 98
1, 280821, Note_off_c, 0, 83, 34
1, 280842, Note_on_c, 0, 79, 89
1, 280846, Control_c, 0, 64, 100
1, 280875, Control_c, 0, 64, 102
1, 280890, Control_c, 0, 64, 100
1, 280905, Control_c, 0, 64, 87
1, 280920, Control_c, 0, 64, 70
1, 280926, Note_off_c, 0, 79, 59
1, 280933, Note_on_c, 0, 87, 99
1, 280934, Control_c, 0, 64, 53
1, 280948, Note_on_c, 0, 78, 79
1, 280949, Control_c, 0, 64, 0
1, 280979, Note_off_c, 0, 78, 58
1, 281024, Note_on_c, 0, 83, 81
1, 281024, Control_c, 0, 64, 42
1, 281039, Control_c, 0, 64, 58
1, 281049, Note_off_c, 0, 87, 64
1, 281054, Control_c, 0, 64, 64
1, 281069, Control_c, 0, 64, 67
1, 281084, Control_c, 0, 64, 70
1, 281092, Note_on_c, 0, 78, 76
1, 281106, Control_c, 0, 64, 73
1, 281121, Control_c, 0, 64, 77
1, 281130, Note_off_c, 0, 83, 65
1, 281136, Control_c, 0, 64, 81
1, 281151, Control_c, 0, 64, 84
1, 281153, Note_off_c, 0, 78, 63
1, 281163, Note_off_c, 0, 43, 57
1, 281165, Control_c, 0, 64, 84
1, 281174, Note_on_c, 0, 75, 77
1, 281180, Control_c, 0, 64, 83
1, 281195, Control_c, 0, 64, 77
1, 281210, Control_c, 0, 64, 66
1, 281217, Note_off_c, 0, 75, 60
1, 281225, Control_c, 0, 64, 55
1, 281239, Control_c, 0, 64, 44
1, 281255, Note_on_c, 0, 82, 92
1, 281269, Note_on_c, 0, 73, 76
1, 281269, Control_c, 0, 64, 50
1, 281284, Control_c, 0, 64, 55
1, 281298, Note_off_c, 0, 73, 60
1, 281299, Control_c, 0, 64, 58
1, 281313, Control_c, 0, 64, 60
1, 281327, Control_c, 0, 64, 63
1, 281342, Control_c, 0, 64, 65
1, 281345, Note_on_c, 0, 78, 82
1, 281354, Note_off_c, 0, 82, 61
1, 281356, Control_c, 0, 64, 69
1, 281371, Control_c, 0, 64, 73
1, 281386, Control_c, 0, 64, 77
1, 281399, Note_on_c, 0, 46, 86
1, 281401, Control_c, 0, 64, 81
1, 281411, Note_on_c, 0, 73, 77
1, 281416, Control_c, 0, 64, 84
1, 281425, Note_off_c, 0, 31, 54
1, 281430, Control_c, 0, 64, 86
1, 281432, Note_off_c, 0, 78, 62
1, 281445, Control_c, 0, 64, 87
1, 281455, Note_off_c, 0, 73, 65
1, 281460, Control_c, 0, 64, 88
1, 281480, Note_off_c, 0, 46, 61
1, 281508, Note_on_c, 0, 70, 49
1, 281533, Note_off_c, 0, 70, 58
1, 281549, Control_c, 0, 64, 85
1, 281551, Note_on_c, 0, 49, 91
1, 281563, Control_c, 0, 64, 68
1, 281566, Note_on_c, 0, 76, 91
1, 281576, Note_on_c, 0, 69, 73
1, 281578, Control_c, 0, 64, 43
1, 281593, Control_c, 0, 64, 0
1, 281615, Note_off_c, 0, 69, 55
1, 281641, Note_off_c, 0, 76, 59
1, 281651, Note_on_c, 0, 73, 85
1, 281682, Control_c, 0, 64, 54
1, 281697, Control_c, 0, 64, 63
1, 281712, Control_c, 0, 64, 64
1, 281724, Note_on_c, 0, 69, 74
1, 281727, Control_c, 0, 64, 65
1, 281742, Control_c, 0, 64, 66
1, 281756, Control_c, 0, 64, 67
1, 281771, Control_c, 0, 64, 68
1, 281775, Note_off_c, 0, 69, 64
1, 281786, Control_c, 0, 64, 70
1, 281813, Note_on_c, 0, 64, 66
1, 281816, Note_off_c, 0, 73, 58
1, 281816, Control_c, 0, 64, 69
1, 281831, Control_c, 0, 64, 65
1, 281853, Control_c, 0, 64, 55
1, 281868, Control_c, 0, 64, 0
1, 281873, Note_off_c, 0, 64, 58
1, 281896, Note_on_c, 0, 72, 80
1, 281906, Note_on_c, 0, 63, 68
1, 281937, Note_off_c, 0, 63, 61
1, 281942, Control_c, 0, 64, 43
1, 281957, Control_c, 0, 64, 54
1, 281962, Note_off_c, 0, 72, 58
1, 281972, Control_c, 0, 64, 60
1, 281979, Note_on_c, 0, 68, 74
1, 281986, Control_c, 0, 64, 63
1, 282001, Control_c, 0, 64, 65
1, 282016, Control_c, 0, 64, 67
1, 282031, Control_c, 0, 64, 70
1, 282037, Note_off_c, 0, 49, 62
1, 282045, Note_on_c, 0, 51, 84
1, 282046, Control_c, 0, 64, 73
1, 282049, Note_on_c, 0, 63, 64
1, 282051, Note_off_c, 0, 68, 64
1, 282061, Control_c, 0, 64, 77
1, 282076, Control_c, 0, 64, 81
1, 282091, Control_c, 0, 64, 85
1, 282094, Note_off_c, 0, 63, 59
1, 282106, Control_c, 0, 64, 88
1, 282121, Control_c, 0, 64, 92
1, 282126, Note_on_c, 0, 60, 67
1, 282135, Note_off_c, 0, 51, 55
1, 282135, Control_c, 0, 64, 94
1, 282150, Control_c, 0, 64, 96
1, 282174, Note_off_c, 0, 60, 58
1, 282204, Note_on_c, 0, 48, 94
1, 282208, Note_on_c, 0, 65, 73
1, 282210, Control_c, 0, 64, 95
1, 282225, Control_c, 0, 64, 78
1, 282231, Note_on_c, 0, 56, 62
1, 282240, Control_c, 0, 64, 54
1, 282254, Control_c, 0, 64, 0
1, 282270, Note_off_c, 0, 56, 62
1, 282291, Note_on_c, 0, 61, 77
1, 282291, Note_off_c, 0, 65, 64
1, 282314, Control_c, 0, 64, 53
1, 282328, Control_c, 0, 64, 68
1, 282343, Control_c, 0, 64, 79
1, 282348, Note_off_c, 0, 61, 55
1, 282355, Note_on_c, 0, 56, 88
1, 282358, Control_c, 0, 64, 127
1, 282401, Note_off_c, 0, 56, 64
1, 282424, Note_on_c, 0, 53, 75
1, 282447, Note_off_c, 0, 53, 68
1, 282461, Control_c, 0, 64, 118
1, 282476, Control_c, 0, 64, 74
1, 282491, Control_c, 0, 64, 57
1, 282503, Note_off_c, 0, 48, 65
1, 282505, Control_c, 0, 64, 53
1, 282515, Note_on_c, 0, 49, 109
1, 282520, Control_c, 0, 64, 63
1, 282535, Control_c, 0, 64, 73
1, 282550, Control_c, 0, 64, 97
1, 282565, Control_c, 0, 64, 127
1, 282566, Note_off_c, 0, 49, 68
1, 282592, Note_on_c, 0, 85, 99
1, 282644, Note_off_c, 0, 85, 66
1, 282672, Note_on_c, 0, 87, 93
1, 282722, Note_on_c, 0, 88, 102
1, 282728, Note_on_c, 0, 80, 81
1, 282767, Note_off_c, 0, 80, 64
1, 282783, Note_off_c, 0, 87, 59
1, 282783, Note_off_c, 0, 88, 66
1, 282834, Note_on_c, 0, 91, 108
1, 282836, Note_on_c, 0, 31, 97
1, 282836, Note_on_c, 0, 43, 102
1, 282839, Note_on_c, 0, 84, 100
1, 282855, Control_c, 0, 64, 70
1, 282870, Control_c, 0, 64, 0
1, 282887, Note_off_c, 0, 84, 65
1, 282928, Note_on_c, 0, 88, 93
1, 282968, Note_off_c, 0, 91, 58
1, 282973, Control_c, 0, 64, 35
1, 282988, Control_c, 0, 64, 67
1, 283003, Note_on_c, 0, 85, 71
1, 283003, Control_c, 0, 64, 85
1, 283003, Note_on_c, 0, 84, 81
1, 283018, Control_c, 0, 64, 127
1, 283032, Note_off_c, 0, 88, 66
1, 283047, Note_off_c, 0, 85, 67
1, 283049, Note_off_c, 0, 84, 68
1, 283063, Note_off_c, 0, 43, 59
1, 283069, Note_on_c, 0, 79, 87
1, 283146, Note_off_c, 0, 79, 59
1, 283151, Control_c, 0, 64, 115
1, 283158, Note_on_c, 0, 45, 95
1, 283160, Note_on_c, 0, 87, 91
1, 283161, Note_on_c, 0, 78, 86
1, 283164, Note_off_c, 0, 87, 0
1, 283166, Control_c, 0, 64, 74
1, 283172, Poly_aftertouch_c, 0, 87, 0
1, 283173, Note_on_c, 0, 86, 92
1, 283181, Control_c, 0, 64, 44
1, 283195, Control_c, 0, 64, 0
1, 283208, Note_off_c, 0, 78, 64
1, 283244, Note_on_c, 0, 83, 87
1, 283255, Note_off_c, 0, 86, 63
1, 283284, Control_c, 0, 64, 52
1, 283299, Control_c, 0, 64, 68
1, 283314, Note_on_c, 0, 78, 85
1, 283314, Control_c, 0, 64, 76
1, 283328, Control_c, 0, 64, 90
1, 283335, Note_off_c, 0, 83, 65
1, 283351, Control_c, 0, 64, 108
1, 283366, Note_off_c, 0, 45, 63
1, 283366, Control_c, 0, 64, 127
1, 283371, Note_off_c, 0, 78, 64
1, 283390, Note_on_c, 0, 75, 82
1, 283440, Note_off_c, 0, 75, 59
1, 283487, Note_on_c, 0, 82, 89
1, 283489, Note_on_c, 0, 46, 100
1, 283492, Note_on_c, 0, 73, 84
1, 283500, Control_c, 0, 64, 95
1, 283515, Control_c, 0, 64, 65
1, 283530, Control_c, 0, 64, 0
1, 283560, Note_off_c, 0, 73, 60
1, 283568, Note_on_c, 0, 78, 85
1, 283574, Note_off_c, 0, 82, 64
1, 283589, Control_c, 0, 64, 31
1, 283604, Control_c, 0, 64, 54
1, 283619, Control_c, 0, 64, 64
1, 283633, Control_c, 0, 64, 70
1, 283641, Note_on_c, 0, 73, 80
1, 283648, Control_c, 0, 64, 79
1, 283658, Note_off_c, 0, 78, 64
1, 283663, Control_c, 0, 64, 88
1, 283678, Note_off_c, 0, 73, 63
1, 283678, Control_c, 0, 64, 99
1, 283685, Note_off_c, 0, 31, 37
1, 283693, Control_c, 0, 64, 121
1, 283705, Note_on_c, 0, 70, 81
1, 283707, Control_c, 0, 64, 127
1, 283731, Note_off_c, 0, 70, 66
1, 283781, Control_c, 0, 64, 102
1, 283796, Control_c, 0, 64, 72
1, 283797, Note_on_c, 0, 76, 91
1, 283799, Note_on_c, 0, 69, 78
1, 283811, Control_c, 0, 64, 47
1, 283825, Control_c, 0, 64, 0
1, 283841, Note_off_c, 0, 69, 61
1, 283864, Note_on_c, 0, 73, 87
1, 283867, Note_off_c, 0, 76, 66
1, 283870, Control_c, 0, 64, 41
1, 283885, Control_c, 0, 64, 60
1, 283899, Note_off_c, 0, 46, 62
1, 283900, Control_c, 0, 64, 69
1, 283915, Control_c, 0, 64, 78
1, 283930, Control_c, 0, 64, 94
1, 283930, Note_on_c, 0, 69, 81
1, 283944, Control_c, 0, 64, 127
1, 283959, Note_on_c, 0, 47, 91
1, 283984, Note_off_c, 0, 73, 59
1, 283986, Note_off_c, 0, 69, 63
1, 284007, Note_on_c, 0, 64, 83
1, 284069, Note_off_c, 0, 64, 61
1, 284082, Note_off_c, 0, 47, 65
1, 284100, Control_c, 0, 64, 101
1, 284115, Control_c, 0, 64, 67
1, 284118, Note_on_c, 0, 48, 97
1, 284119, Note_on_c, 0, 72, 86
1, 284127, Note_on_c, 0, 47, 41
1, 284128, Note_on_c, 0, 63, 66
1, 284129, Control_c, 0, 64, 0
1, 284144, Note_off_c, 0, 47, 64
1, 284150, Note_on_c, 0, 71, 43
1, 284150, Note_off_c, 0, 71, 127
1, 284161, Note_on_c, 0, 62, 45
1, 284183, Note_off_c, 0, 63, 44
1, 284191, Note_off_c, 0, 62, 38
1, 284202, Note_on_c, 0, 68, 89
1, 284219, Control_c, 0, 64, 41
1, 284225, Note_off_c, 0, 72, 61
1, 284234, Control_c, 0, 64, 68
1, 284249, Control_c, 0, 64, 88
1, 284264, Control_c, 0, 64, 127
1, 284267, Note_on_c, 0, 63, 92
1, 284294, Note_off_c, 0, 68, 64
1, 284323, Note_off_c, 0, 63, 65
1, 284339, Note_on_c, 0, 60, 85
1, 284389, Note_off_c, 0, 60, 67
1, 284397, Control_c, 0, 64, 117
1, 284401, Note_off_c, 0, 48, 65
1, 284412, Control_c, 0, 64, 68
1, 284424, Note_on_c, 0, 49, 96
1, 284427, Control_c, 0, 64, 0
1, 284429, Note_on_c, 0, 65, 95
1, 284436, Note_on_c, 0, 56, 87
1, 284486, Control_c, 0, 64, 44
1, 284499, Note_off_c, 0, 56, 61
1, 284500, Control_c, 0, 64, 66
1, 284509, Note_on_c, 0, 61, 88
1, 284515, Control_c, 0, 64, 81
1, 284516, Note_off_c, 0, 65, 65
1, 284530, Control_c, 0, 64, 127
1, 284544, Note_off_c, 0, 49, 65
1, 284579, Note_on_c, 0, 56, 83
1, 284609, Note_off_c, 0, 61, 59
1, 284642, Note_on_c, 0, 53, 90
1, 284645, Note_off_c, 0, 56, 61
1, 284708, Control_c, 0, 64, 82
1, 284723, Control_c, 0, 64, 38
1, 284735, Note_on_c, 0, 61, 99
1, 284738, Control_c, 0, 64, 0
1, 284738, Note_on_c, 0, 54, 95
1, 284763, Note_off_c, 0, 53, 61
1, 284811, Note_off_c, 0, 54, 64
1, 284812, Control_c, 0, 64, 54
1, 284827, Control_c, 0, 64, 82
1, 284848, Control_c, 0, 64, 127
1, 284852, Note_off_c, 0, 61, 67
1, 284866, Note_on_c, 0, 58, 94
1, 285012, Note_on_c, 0, 76, 106
1, 285015, Note_on_c, 0, 54, 79
1, 285032, Note_off_c, 0, 58, 61
1, 285112, Note_off_c, 0, 54, 65
1, 285113, Note_on_c, 0, 49, 89
1, 285155, Note_off_c, 0, 49, 64
1, 285164, Note_off_c, 0, 76, 68
1, 285262, Note_on_c, 0, 77, 101
1, 285279, Note_on_c, 0, 46, 79
1, 285291, Note_on_c, 0, 76, 43
1, 285291, Note_off_c, 0, 76, 127
1, 285384, Note_on_c, 0, 37, 89
1, 285396, Note_off_c, 0, 46, 62
1, 285450, Note_off_c, 0, 77, 64
1, 285495, Note_on_c, 0, 78, 108
1, 285504, Note_on_c, 0, 75, 91
1, 285508, Note_on_c, 0, 30, 71
1, 285581, Note_off_c, 0, 37, 34
1, 285687, Note_off_c, 0, 30, 37
1, 285745, Note_off_c, 0, 78, 62
1, 285843, Note_on_c, 0, 81, 96
1, 285852, Note_on_c, 0, 74, 96
1, 285864, Note_on_c, 0, 29, 84
1, 285864, Note_on_c, 0, 41, 79
1, 285872, Note_off_c, 0, 75, 61
1, 285998, Control_c, 0, 64, 92
1, 286013, Control_c, 0, 64, 60
1, 286028, Control_c, 0, 64, 0
1, 286185, Note_on_c, 0, 77, 89
1, 286286, Note_off_c, 0, 81, 62
1, 286406, Control_c, 0, 64, 33
1, 286420, Control_c, 0, 64, 47
1, 286435, Control_c, 0, 64, 54
1, 286443, Note_on_c, 0, 73, 84
1, 286450, Control_c, 0, 64, 61
1, 286465, Control_c, 0, 64, 65
1, 286472, Note_off_c, 0, 74, 63
1, 286479, Control_c, 0, 64, 68
1, 286494, Control_c, 0, 64, 71
1, 286509, Control_c, 0, 64, 75
1, 286524, Control_c, 0, 64, 81
1, 286539, Control_c, 0, 64, 90
1, 286553, Control_c, 0, 64, 104
1, 286568, Control_c, 0, 64, 127
1, 286697, Note_on_c, 0, 65, 84
1, 286702, Control_c, 0, 64, 107
1, 286717, Control_c, 0, 64, 74
1, 286732, Note_off_c, 0, 73, 64
1, 286732, Control_c, 0, 64, 53
1, 286747, Control_c, 0, 64, 0
1, 286806, Control_c, 0, 64, 37
1, 286821, Control_c, 0, 64, 51
1, 286836, Control_c, 0, 64, 60
1, 286851, Control_c, 0, 64, 65
1, 286866, Control_c, 0, 64, 65
1, 286881, Control_c, 0, 64, 66
1, 286895, Control_c, 0, 64, 68
1, 286896, Note_on_c, 0, 72, 76
1, 286910, Control_c, 0, 64, 74
1, 286925, Control_c, 0, 64, 85
1, 286940, Note_on_c, 0, 71, 89
1, 286940, Control_c, 0, 64, 121
1, 286949, Note_off_c, 0, 65, 61
1, 286955, Control_c, 0, 64, 127
1, 287000, Note_off_c, 0, 72, 59
1, 287004, Note_off_c, 0, 77, 61
1, 287007, Note_off_c, 0, 29, 58
1, 287048, Note_off_c, 0, 41, 60
1, 287072, Note_off_c, 0, 71, 65
1, 287170, Note_on_c, 0, 72, 92
1, 287394, Note_on_c, 0, 73, 96
1, 287444, Note_off_c, 0, 72, 61
1, 287608, Note_on_c, 0, 42, 51
1, 287611, Note_on_c, 0, 74, 91
1, 287622, Note_on_c, 0, 71, 77
1, 287638, Note_off_c, 0, 73, 61
1, 287817, Note_off_c, 0, 42, 34
1, 287894, Note_on_c, 0, 77, 86
1, 287918, Note_on_c, 0, 50, 56
1, 287921, Note_on_c, 0, 41, 51
1, 287924, Note_on_c, 0, 70, 64
1, 287933, Note_off_c, 0, 71, 60
1, 287955, Note_off_c, 0, 74, 58
1, 287963, Control_c, 0, 64, 101
1, 287978, Control_c, 0, 64, 85
1, 287993, Control_c, 0, 64, 70
1, 288008, Control_c, 0, 64, 53
1, 288023, Control_c, 0, 64, 0
1, 288187, Note_on_c, 0, 74, 78
1, 288246, Control_c, 0, 64, 34
1, 288261, Control_c, 0, 64, 50
1, 288275, Control_c, 0, 64, 60
1, 288290, Control_c, 0, 64, 66
1, 288300, Note_off_c, 0, 77, 62
1, 288305, Control_c, 0, 64, 71
1, 288320, Control_c, 0, 64, 77
1, 288323, Note_off_c, 0, 70, 64
1, 288335, Control_c, 0, 64, 82
1, 288349, Control_c, 0, 64, 86
1, 288364, Control_c, 0, 64, 91
1, 288379, Control_c, 0, 64, 94
1, 288407, Note_on_c, 0, 69, 75
1, 288409, Control_c, 0, 64, 92
1, 288423, Control_c, 0, 64, 82
1, 288438, Control_c, 0, 64, 68
1, 288453, Control_c, 0, 64, 59
1, 288467, Control_c, 0, 64, 55
1, 288482, Control_c, 0, 64, 58
1, 288497, Control_c, 0, 64, 62
1, 288512, Control_c, 0, 64, 66
1, 288527, Control_c, 0, 64, 71
1, 288541, Control_c, 0, 64, 75
1, 288556, Control_c, 0, 64, 79
1, 288571, Control_c, 0, 64, 84
1, 288594, Control_c, 0, 64, 90
1, 288609, Control_c, 0, 64, 95
1, 288623, Control_c, 0, 64, 100
1, 288628, Note_off_c, 0, 41, 49
1, 288638, Control_c, 0, 64, 107
1, 288639, Note_on_c, 0, 62, 75
1, 288653, Control_c, 0, 64, 115
1, 288657, Note_on_c, 0, 53, 55
1, 288667, Control_c, 0, 64, 127
1, 288678, Note_off_c, 0, 69, 61
1, 288703, Note_off_c, 0, 50, 53
1, 288731, Note_off_c, 0, 53, 60
1, 288898, Note_on_c, 0, 69, 56
1, 288958, Note_on_c, 0, 59, 69
1, 288964, Control_c, 0, 64, 116
1, 288976, Note_on_c, 0, 68, 63
1, 288979, Control_c, 0, 64, 107
1, 288993, Note_on_c, 0, 47, 44
1, 288993, Control_c, 0, 64, 101
1, 289003, Note_off_c, 0, 69, 58
1, 289008, Control_c, 0, 64, 95
1, 289024, Control_c, 0, 64, 91
1, 289039, Control_c, 0, 64, 84
1, 289054, Control_c, 0, 64, 78
1, 289069, Control_c, 0, 64, 71
1, 289084, Control_c, 0, 64, 64
1, 289098, Control_c, 0, 64, 57
1, 289111, Note_off_c, 0, 74, 59
1, 289113, Control_c, 0, 64, 51
1, 289128, Control_c, 0, 64, 44
1, 289143, Control_c, 0, 64, 0
1, 289402, Control_c, 0, 64, 36
1, 289417, Control_c, 0, 64, 52
1, 289432, Control_c, 0, 64, 62
1, 289446, Control_c, 0, 64, 66
1, 289461, Control_c, 0, 64, 67
1, 289476, Control_c, 0, 64, 68
1, 289490, Control_c, 0, 64, 68
1, 289505, Control_c, 0, 64, 70
1, 289520, Control_c, 0, 64, 72
1, 289535, Control_c, 0, 64, 76
1, 289550, Control_c, 0, 64, 78
1, 289564, Control_c, 0, 64, 80
1, 289629, Note_on_c, 0, 61, 63
1, 289644, Note_on_c, 0, 49, 47
1, 289653, Control_c, 0, 64, 79
1, 289668, Control_c, 0, 64, 79
1, 289687, Note_off_c, 0, 62, 57
1, 289695, Note_off_c, 0, 59, 36
1, 289719, Note_off_c, 0, 47, 40
1, 289772, Control_c, 0, 64, 78
1, 289787, Control_c, 0, 64, 76
1, 289802, Control_c, 0, 64, 73
1, 289817, Control_c, 0, 64, 69
1, 289832, Control_c, 0, 64, 65
1, 289847, Control_c, 0, 64, 62
1, 289862, Control_c, 0, 64, 57
1, 289873, Note_on_c, 0, 62, 73
1, 289877, Control_c, 0, 64, 53
1, 289880, Note_off_c, 0, 49, 58
1, 289892, Control_c, 0, 64, 51
1, 289901, Note_on_c, 0, 50, 49
1, 289906, Control_c, 0, 64, 53
1, 289921, Control_c, 0, 64, 56
1, 289936, Control_c, 0, 64, 60
1, 289946, Note_off_c, 0, 61, 62
1, 289951, Control_c, 0, 64, 61
1, 289966, Control_c, 0, 64, 62
1, 289981, Control_c, 0, 64, 64
1, 289995, Control_c, 0, 64, 65
1, 290010, Control_c, 0, 64, 67
1, 290025, Control_c, 0, 64, 69
1, 290033, Note_off_c, 0, 68, 43
1, 290039, Control_c, 0, 64, 70
1, 290069, Control_c, 0, 64, 69
1, 290091, Control_c, 0, 64, 67
1, 290099, Note_on_c, 0, 64, 76
1, 290099, Note_off_c, 0, 50, 55
1, 290106, Control_c, 0, 64, 64
1, 290120, Note_on_c, 0, 52, 49
1, 290121, Control_c, 0, 64, 58
1, 290136, Control_c, 0, 64, 45
1, 290144, Note_off_c, 0, 62, 60
1, 290151, Control_c, 0, 64, 36
1, 290151, Control_c, 0, 67, 19
1, 290166, Control_c, 0, 64, 40
1, 290181, Control_c, 0, 64, 52
1, 290195, Control_c, 0, 64, 61
1, 290210, Control_c, 0, 64, 66
1, 290225, Control_c, 0, 64, 68
1, 290239, Control_c, 0, 64, 67
1, 290254, Control_c, 0, 64, 66
1, 290269, Control_c, 0, 64, 63
1, 290284, Control_c, 0, 64, 59
1, 290299, Control_c, 0, 64, 52
1, 290303, Note_on_c, 0, 65, 78
1, 290313, Control_c, 0, 64, 38
1, 290322, Note_off_c, 0, 52, 57
1, 290326, Note_on_c, 0, 50, 52
1, 290328, Control_c, 0, 64, 0
1, 290343, Control_c, 0, 67, 21
1, 290351, Note_off_c, 0, 64, 64
1, 290387, Control_c, 0, 67, 23
1, 290432, Control_c, 0, 64, 33
1, 290446, Control_c, 0, 64, 43
1, 290461, Control_c, 0, 64, 52
1, 290476, Control_c, 0, 64, 56
1, 290491, Control_c, 0, 64, 58
1, 290492, Note_off_c, 0, 50, 40
1, 290506, Note_on_c, 0, 67, 76
1, 290511, Note_off_c, 0, 65, 64
1, 290516, Note_on_c, 0, 49, 46
1, 290521, Control_c, 0, 64, 58
1, 290535, Control_c, 0, 64, 60
1, 290550, Control_c, 0, 64, 62
1, 290565, Control_c, 0, 64, 64
1, 290580, Control_c, 0, 64, 65
1, 290595, Control_c, 0, 64, 66
1, 290610, Control_c, 0, 64, 67
1, 290625, Control_c, 0, 64, 68
1, 290640, Control_c, 0, 64, 69
1, 290655, Control_c, 0, 64, 70
1, 290714, Control_c, 0, 64, 69
1, 290729, Control_c, 0, 64, 69
1, 290759, Control_c, 0, 64, 68
1, 290771, Note_on_c, 0, 56, 82
1, 290774, Control_c, 0, 64, 67
1, 290789, Control_c, 0, 64, 66
1, 290792, Note_off_c, 0, 49, 37
1, 290803, Note_on_c, 0, 47, 51
1, 290804, Control_c, 0, 64, 65
1, 290818, Control_c, 0, 64, 64
1, 290840, Control_c, 0, 64, 62
1, 290855, Control_c, 0, 64, 59
1, 290869, Control_c, 0, 64, 55
1, 290884, Control_c, 0, 64, 47
1, 290899, Control_c, 0, 64, 31
1, 290914, Control_c, 0, 64, 0
1, 290958, Note_off_c, 0, 67, 55
1, 291018, Control_c, 0, 64, 42
1, 291033, Control_c, 0, 64, 58
1, 291048, Control_c, 0, 64, 62
1, 291062, Control_c, 0, 64, 63
1, 291077, Control_c, 0, 64, 64
1, 291092, Control_c, 0, 64, 64
1, 291181, Control_c, 0, 64, 64
1, 291195, Control_c, 0, 64, 63
1, 291205, Note_on_c, 0, 55, 79
1, 291210, Control_c, 0, 64, 63
1, 291225, Control_c, 0, 64, 62
1, 291240, Control_c, 0, 64, 60
1, 291255, Control_c, 0, 64, 58
1, 291269, Control_c, 0, 64, 54
1, 291284, Control_c, 0, 64, 48
1, 291299, Control_c, 0, 64, 33
1, 291314, Control_c, 0, 64, 0
1, 291358, Control_c, 0, 67, 26
1, 291362, Note_off_c, 0, 56, 60
1, 291388, Control_c, 0, 64, 41
1, 291403, Control_c, 0, 64, 55
1, 291415, Note_on_c, 0, 41, 49
1, 291419, Control_c, 0, 64, 63
1, 291433, Control_c, 0, 64, 67
1, 291448, Control_c, 0, 64, 69
1, 291501, Note_off_c, 0, 47, 51
1, 291552, Control_c, 0, 64, 68
1, 291567, Control_c, 0, 64, 67
1, 291589, Control_c, 0, 64, 66
1, 291604, Control_c, 0, 64, 65
1, 291618, Control_c, 0, 64, 63
1, 291633, Control_c, 0, 64, 62
1, 291648, Control_c, 0, 64, 60
1, 291648, Control_c, 0, 67, 28
1, 291662, Note_on_c, 0, 58, 72
1, 291663, Control_c, 0, 64, 58
1, 291677, Note_on_c, 0, 38, 46
1, 291678, Control_c, 0, 64, 54
1, 291692, Control_c, 0, 64, 47
1, 291707, Control_c, 0, 64, 35
1, 291711, Note_off_c, 0, 41, 44
1, 291722, Control_c, 0, 64, 0
1, 291796, Control_c, 0, 67, 30
1, 291885, Control_c, 0, 64, 41
1, 291900, Control_c, 0, 64, 56
1, 291915, Control_c, 0, 64, 64
1, 291930, Control_c, 0, 64, 69
1, 291945, Control_c, 0, 64, 72
1, 291959, Control_c, 0, 64, 74
1, 291974, Control_c, 0, 64, 75
1, 291989, Control_c, 0, 64, 76
1, 292004, Control_c, 0, 64, 76
1, 292063, Control_c, 0, 64, 76
1, 292078, Control_c, 0, 64, 74
1, 292088, Note_on_c, 0, 59, 62
1, 292092, Control_c, 0, 64, 70
1, 292107, Control_c, 0, 64, 65
1, 292122, Control_c, 0, 64, 56
1, 292137, Control_c, 0, 64, 47
1, 292145, Note_off_c, 0, 58, 63
1, 292152, Control_c, 0, 64, 42
1, 292166, Control_c, 0, 64, 44
1, 292181, Control_c, 0, 64, 48
1, 292196, Control_c, 0, 64, 54
1, 292212, Control_c, 0, 64, 58
1, 292227, Control_c, 0, 64, 61
1, 292241, Control_c, 0, 64, 64
1, 292256, Control_c, 0, 64, 67
1, 292271, Control_c, 0, 64, 72
1, 292286, Control_c, 0, 64, 76
1, 292301, Control_c, 0, 64, 79
1, 292304, Note_off_c, 0, 55, 61
1, 292311, Note_off_c, 0, 38, 41
1, 292315, Control_c, 0, 64, 81
1, 292318, Note_on_c, 0, 41, 47
1, 292338, Control_c, 0, 64, 83
1, 292353, Control_c, 0, 64, 84
1, 292368, Control_c, 0, 64, 86
1, 292383, Control_c, 0, 64, 87
1, 292397, Control_c, 0, 64, 87
1, 292471, Control_c, 0, 64, 87
1, 292486, Control_c, 0, 64, 86
1, 292501, Control_c, 0, 64, 85
1, 292515, Control_c, 0, 64, 84
1, 292530, Note_on_c, 0, 67, 66
1, 292530, Control_c, 0, 64, 81
1, 292539, Note_on_c, 0, 53, 57
1, 292545, Control_c, 0, 64, 79
1, 292561, Control_c, 0, 64, 76
1, 292576, Note_on_c, 0, 35, 39
1, 292576, Control_c, 0, 64, 74
1, 292585, Note_off_c, 0, 59, 61
1, 292590, Control_c, 0, 64, 71
1, 292605, Control_c, 0, 64, 68
1, 292620, Control_c, 0, 64, 64
1, 292633, Note_off_c, 0, 41, 29
1, 292634, Control_c, 0, 64, 56
1, 292649, Control_c, 0, 64, 44
1, 292664, Control_c, 0, 64, 0
1, 292738, Control_c, 0, 64, 44
1, 292753, Control_c, 0, 64, 56
1, 292768, Control_c, 0, 64, 62
1, 292783, Control_c, 0, 64, 65
1, 292813, Control_c, 0, 64, 65
1, 292887, Control_c, 0, 64, 65
1, 292902, Control_c, 0, 67, 32
1, 292916, Control_c, 0, 64, 64
1, 292931, Control_c, 0, 64, 64
1, 292931, Control_c, 0, 67, 32
1, 292946, Control_c, 0, 64, 63
1, 292960, Control_c, 0, 64, 61
1, 292975, Control_c, 0, 64, 60
1, 292987, Note_on_c, 0, 64, 57
1, 292990, Control_c, 0, 64, 56
1, 293006, Control_c, 0, 64, 51
1, 293006, Control_c, 0, 67, 33
1, 293016, Note_on_c, 0, 36, 21
1, 293021, Control_c, 0, 64, 40
1, 293036, Control_c, 0, 64, 0
1, 293064, Note_off_c, 0, 67, 55
1, 293102, Note_off_c, 0, 35, 39
1, 293102, Control_c, 0, 67, 33
1, 293132, Control_c, 0, 64, 38
1, 293147, Control_c, 0, 64, 49
1, 293147, Control_c, 0, 67, 34
1, 293162, Control_c, 0, 64, 57
1, 293162, Control_c, 0, 67, 36
1, 293177, Control_c, 0, 64, 61
1, 293177, Control_c, 0, 67, 37
1, 293191, Control_c, 0, 64, 63
1, 293191, Control_c, 0, 67, 37
1, 293216, Note_on_c, 0, 60, 59
1, 293221, Control_c, 0, 67, 38
1, 293253, Note_off_c, 0, 64, 61
1, 293280, Control_c, 0, 64, 62
1, 293295, Control_c, 0, 64, 62
1, 293325, Control_c, 0, 64, 61
1, 293339, Control_c, 0, 67, 38
1, 293354, Control_c, 0, 64, 61
1, 293369, Control_c, 0, 64, 60
1, 293383, Control_c, 0, 64, 60
1, 293383, Control_c, 0, 67, 39
1, 293398, Control_c, 0, 64, 59
1, 293413, Control_c, 0, 64, 59
1, 293428, Control_c, 0, 64, 58
1, 293443, Control_c, 0, 64, 58
1, 293457, Control_c, 0, 64, 57
1, 293472, Control_c, 0, 64, 56
1, 293472, Control_c, 0, 67, 39
1, 293479, Note_on_c, 0, 62, 55
1, 293487, Note_off_c, 0, 53, 36
1, 293487, Control_c, 0, 64, 55
1, 293498, Note_on_c, 0, 54, 29
1, 293502, Control_c, 0, 64, 52
1, 293504, Note_on_c, 0, 34, 30
1, 293517, Control_c, 0, 64, 47
1, 293517, Control_c, 0, 67, 40
1, 293531, Control_c, 0, 64, 39
1, 293531, Control_c, 0, 67, 43
1, 293546, Control_c, 0, 64, 0
1, 293546, Control_c, 0, 67, 46
1, 293561, Control_c, 0, 67, 46
1, 293568, Note_off_c, 0, 60, 53
1, 293575, Note_off_c, 0, 36, 42
1, 293576, Control_c, 0, 67, 47
1, 293591, Control_c, 0, 67, 47
1, 293621, Control_c, 0, 67, 48
1, 293636, Control_c, 0, 67, 50
1, 293650, Control_c, 0, 67, 53
1, 293665, Control_c, 0, 67, 55
1, 293680, Control_c, 0, 67, 55
1, 293725, Control_c, 0, 67, 56
1, 293739, Control_c, 0, 67, 56
1, 293754, Control_c, 0, 67, 57
1, 293783, Control_c, 0, 67, 58
1, 293798, Control_c, 0, 67, 59
1, 293970, Note_on_c, 0, 55, 40
1, 293987, Note_on_c, 0, 35, 34
1, 294003, Note_off_c, 0, 34, 38
1, 294019, Note_off_c, 0, 54, 57
1, 294073, Control_c, 0, 67, 59
1, 294087, Control_c, 0, 67, 58
1, 294117, Control_c, 0, 67, 58
1, 294132, Control_c, 0, 64, 41
1, 294132, Control_c, 0, 67, 57
1, 294147, Control_c, 0, 64, 54
1, 294156, Note_off_c, 0, 35, 57
1, 294161, Control_c, 0, 64, 62
1, 294176, Control_c, 0, 64, 66
1, 294191, Control_c, 0, 64, 69
1, 294205, Control_c, 0, 64, 73
1, 294220, Control_c, 0, 64, 79
1, 294235, Control_c, 0, 64, 87
1, 294250, Control_c, 0, 64, 101
1, 294265, Control_c, 0, 64, 127
1, 294279, Note_off_c, 0, 62, 62
1, 294279, Control_c, 0, 67, 58
1, 294307, Note_off_c, 0, 55, 62
1, 294309, Control_c, 0, 67, 59
1, 294399, Control_c, 0, 67, 59
1, 294437, Note_on_c, 0, 32, 67
1, 294443, Control_c, 0, 67, 60
1, 294458, Control_c, 0, 67, 60
1, 294473, Control_c, 0, 67, 62
1, 294476, Note_off_c, 0, 32, 62
1, 294487, Control_c, 0, 67, 65
1, 294497, Note_on_c, 0, 33, 73
1, 294502, Control_c, 0, 64, 110
1, 294502, Control_c, 0, 67, 77
1, 294517, Control_c, 0, 64, 77
1, 294517, Control_c, 0, 67, 96
1, 294531, Control_c, 0, 64, 59
1, 294531, Control_c, 0, 67, 118
1, 294546, Control_c, 0, 64, 0
1, 294546, Control_c, 0, 67, 127
1, 294627, Note_on_c, 0, 38, 49
1, 294704, Note_off_c, 0, 38, 62
1, 294709, Note_on_c, 0, 41, 53
1, 294782, Note_off_c, 0, 41, 62
1, 294789, Note_on_c, 0, 45, 54
1, 294843, Note_off_c, 0, 45, 63
1, 294856, Note_on_c, 0, 46, 64
1, 294881, Note_off_c, 0, 46, 66
1, 294928, Note_on_c, 0, 47, 61
1, 294991, Note_off_c, 0, 47, 57
1, 295012, Note_on_c, 0, 50, 61
1, 295058, Note_off_c, 0, 50, 60
1, 295075, Note_on_c, 0, 53, 55
1, 295105, Note_off_c, 0, 53, 64
1, 295178, Note_on_c, 0, 35, 69
1, 295283, Note_off_c, 0, 33, 60
1, 295286, Note_on_c, 0, 38, 45
1, 295349, Note_off_c, 0, 38, 62
1, 295362, Note_on_c, 0, 41, 50
1, 295445, Note_off_c, 0, 41, 60
1, 295453, Note_on_c, 0, 45, 56
1, 295519, Note_off_c, 0, 45, 63
1, 295527, Note_on_c, 0, 37, 74
1, 295527, Note_on_c, 0, 46, 58
1, 295537, Note_off_c, 0, 35, 57
1, 295552, Note_off_c, 0, 46, 60
1, 295614, Note_on_c, 0, 47, 24
1, 295645, Control_c, 0, 64, 32
1, 295659, Control_c, 0, 64, 43
1, 295668, Note_off_c, 0, 47, 45
1, 295674, Control_c, 0, 64, 53
1, 295683, Note_on_c, 0, 50, 62
1, 295689, Control_c, 0, 64, 58
1, 295704, Control_c, 0, 64, 59
1, 295719, Control_c, 0, 64, 60
1, 295746, Note_off_c, 0, 50, 62
1, 295748, Control_c, 0, 64, 61
1, 295753, Note_on_c, 0, 53, 60
1, 295763, Control_c, 0, 64, 62
1, 295777, Control_c, 0, 64, 62
1, 295784, Note_off_c, 0, 53, 64
1, 295807, Control_c, 0, 64, 63
1, 295856, Note_on_c, 0, 38, 76
1, 295879, Note_off_c, 0, 37, 63
1, 295881, Control_c, 0, 64, 61
1, 295896, Control_c, 0, 64, 53
1, 295911, Control_c, 0, 64, 38
1, 295925, Control_c, 0, 64, 0
1, 295981, Note_on_c, 0, 45, 58
1, 296035, Note_off_c, 0, 45, 61
1, 296039, Note_on_c, 0, 46, 67
1, 296113, Note_off_c, 0, 46, 62
1, 296116, Note_on_c, 0, 50, 71
1, 296173, Note_off_c, 0, 50, 63
1, 296190, Note_on_c, 0, 54, 76
1, 296214, Note_off_c, 0, 54, 67
1, 296253, Note_on_c, 0, 55, 74
1, 296260, Control_c, 0, 64, 35
1, 296275, Control_c, 0, 64, 42
1, 296289, Control_c, 0, 64, 49
1, 296300, Note_off_c, 0, 55, 60
1, 296303, Control_c, 0, 64, 56
1, 296318, Control_c, 0, 64, 61
1, 296328, Note_on_c, 0, 59, 70
1, 296333, Control_c, 0, 64, 63
1, 296348, Control_c, 0, 64, 65
1, 296363, Control_c, 0, 64, 67
1, 296377, Note_off_c, 0, 59, 63
1, 296378, Control_c, 0, 64, 69
1, 296388, Note_on_c, 0, 62, 57
1, 296393, Control_c, 0, 64, 72
1, 296407, Control_c, 0, 64, 76
1, 296420, Note_off_c, 0, 62, 64
1, 296422, Control_c, 0, 64, 80
1, 296437, Control_c, 0, 64, 83
1, 296452, Control_c, 0, 64, 86
1, 296467, Control_c, 0, 64, 87
1, 296481, Control_c, 0, 64, 84
1, 296482, Note_on_c, 0, 39, 84
1, 296488, Note_off_c, 0, 38, 62
1, 296496, Control_c, 0, 64, 68
1, 296511, Control_c, 0, 64, 31
1, 296525, Control_c, 0, 64, 0
1, 296546, Note_off_c, 0, 39, 63
1, 296555, Control_c, 0, 64, 39
1, 296570, Control_c, 0, 64, 59
1, 296584, Note_on_c, 0, 40, 69
1, 296585, Control_c, 0, 64, 68
1, 296599, Control_c, 0, 64, 72
1, 296614, Control_c, 0, 64, 76
1, 296629, Control_c, 0, 64, 78
1, 296644, Control_c, 0, 64, 79
1, 296646, Note_off_c, 0, 40, 56
1, 296651, Note_on_c, 0, 45, 64
1, 296659, Control_c, 0, 64, 79
1, 296666, Note_on_c, 0, 39, 67
1, 296673, Control_c, 0, 64, 80
1, 296688, Control_c, 0, 64, 81
1, 296702, Note_off_c, 0, 45, 60
1, 296703, Control_c, 0, 64, 82
1, 296714, Note_on_c, 0, 46, 63
1, 296715, Note_off_c, 0, 39, 61
1, 296718, Control_c, 0, 64, 82
1, 296723, Note_on_c, 0, 40, 62
1, 296733, Control_c, 0, 64, 80
1, 296748, Note_off_c, 0, 46, 65
1, 296748, Control_c, 0, 64, 75
1, 296754, Note_on_c, 0, 51, 64
1, 296763, Control_c, 0, 64, 71
1, 296766, Note_off_c, 0, 40, 60
1, 296777, Control_c, 0, 64, 70
1, 296781, Note_on_c, 0, 39, 68
1, 296792, Control_c, 0, 64, 71
1, 296805, Note_off_c, 0, 51, 62
1, 296807, Control_c, 0, 64, 74
1, 296811, Note_on_c, 0, 54, 72
1, 296829, Control_c, 0, 64, 78
1, 296844, Note_off_c, 0, 54, 67
1, 296844, Control_c, 0, 64, 84
1, 296849, Note_off_c, 0, 39, 61
1, 296856, Note_on_c, 0, 40, 71
1, 296859, Control_c, 0, 64, 88
1, 296859, Control_c, 0, 67, 121
1, 296873, Note_on_c, 0, 55, 74
1, 296874, Control_c, 0, 64, 93
1, 296874, Control_c, 0, 67, 112
1, 296888, Control_c, 0, 64, 98
1, 296888, Control_c, 0, 67, 100
1, 296903, Note_on_c, 0, 39, 72
1, 296903, Control_c, 0, 64, 104
1, 296903, Control_c, 0, 67, 86
1, 296906, Note_off_c, 0, 40, 62
1, 296918, Control_c, 0, 64, 122
1, 296918, Control_c, 0, 67, 77
1, 296929, Note_off_c, 0, 55, 62
1, 296932, Control_c, 0, 64, 127
1, 296932, Control_c, 0, 67, 73
1, 296947, Note_on_c, 0, 58, 75
1, 296947, Control_c, 0, 67, 70
1, 296962, Control_c, 0, 67, 67
1, 296977, Control_c, 0, 67, 65
1, 296992, Note_on_c, 0, 38, 75
1, 296992, Control_c, 0, 67, 64
1, 296995, Note_off_c, 0, 58, 62
1, 297001, Note_on_c, 0, 63, 72
1, 297006, Note_off_c, 0, 39, 53
1, 297008, Control_c, 0, 67, 64
1, 297023, Control_c, 0, 67, 63
1, 297027, Note_off_c, 0, 63, 69
1, 297064, Note_on_c, 0, 39, 76
1, 297068, Note_off_c, 0, 38, 62
1, 297097, Control_c, 0, 64, 112
1, 297111, Control_c, 0, 64, 71
1, 297126, Control_c, 0, 64, 0
1, 297135, Note_off_c, 0, 39, 63
1, 297141, Control_c, 0, 67, 64
1, 297153, Note_on_c, 0, 40, 88
1, 297156, Control_c, 0, 67, 64
1, 297171, Control_c, 0, 67, 65
1, 297186, Control_c, 0, 67, 65
1, 297256, Note_on_c, 0, 43, 52
1, 297290, Control_c, 0, 64, 56
1, 297290, Control_c, 0, 67, 65
1, 297290, Note_off_c, 0, 40, 63
1, 297299, Note_off_c, 0, 43, 63
1, 297304, Control_c, 0, 64, 67
1, 297311, Note_on_c, 0, 48, 68
1, 297319, Control_c, 0, 64, 73
1, 297319, Control_c, 0, 67, 64
1, 297334, Control_c, 0, 64, 79
1, 297334, Control_c, 0, 67, 64
1, 297348, Control_c, 0, 64, 85
1, 297363, Control_c, 0, 64, 89
1, 297378, Control_c, 0, 64, 93
1, 297380, Note_off_c, 0, 48, 62
1, 297389, Note_on_c, 0, 52, 67
1, 297393, Control_c, 0, 64, 95
1, 297408, Control_c, 0, 64, 96
1, 297408, Control_c, 0, 67, 63
1, 297437, Control_c, 0, 64, 92
1, 297451, Note_off_c, 0, 52, 60
1, 297452, Control_c, 0, 64, 83
1, 297467, Control_c, 0, 64, 69
1, 297473, Note_on_c, 0, 53, 57
1, 297482, Control_c, 0, 64, 54
1, 297485, Note_on_c, 0, 49, 92
1, 297496, Control_c, 0, 64, 0
1, 297496, Control_c, 0, 67, 63
1, 297532, Note_off_c, 0, 53, 61
1, 297553, Note_on_c, 0, 52, 46
1, 297578, Control_c, 0, 64, 36
1, 297593, Control_c, 0, 64, 54
1, 297593, Control_c, 0, 67, 62
1, 297599, Note_off_c, 0, 52, 64
1, 297608, Control_c, 0, 64, 65
1, 297608, Control_c, 0, 67, 61
1, 297623, Control_c, 0, 64, 70
1, 297623, Control_c, 0, 67, 58
1, 297631, Note_on_c, 0, 53, 61
1, 297637, Note_off_c, 0, 49, 65
1, 297637, Control_c, 0, 64, 76
1, 297637, Control_c, 0, 67, 49
1, 297652, Control_c, 0, 64, 80
1, 297652, Control_c, 0, 67, 39
1, 297667, Control_c, 0, 64, 86
1, 297667, Control_c, 0, 67, 30
1, 297668, Note_off_c, 0, 53, 63
1, 297682, Control_c, 0, 64, 92
1, 297682, Control_c, 0, 67, 25
1, 297697, Control_c, 0, 64, 100
1, 297697, Control_c, 0, 67, 22
1, 297711, Control_c, 0, 64, 110
1, 297715, Note_on_c, 0, 54, 55
1, 297726, Control_c, 0, 64, 117
1, 297774, Note_off_c, 0, 54, 57
1, 297785, Control_c, 0, 64, 107
1, 297802, Control_c, 0, 64, 93
1, 297817, Control_c, 0, 64, 78
1, 297831, Note_on_c, 0, 55, 59
1, 297832, Control_c, 0, 64, 68
1, 297836, Note_on_c, 0, 61, 89
1, 297847, Control_c, 0, 64, 62
1, 297861, Control_c, 0, 64, 59
1, 297876, Control_c, 0, 64, 60
1, 297876, Control_c, 0, 67, 0
1, 297891, Control_c, 0, 64, 62
1, 297906, Control_c, 0, 64, 66
1, 297909, Note_off_c, 0, 55, 57
1, 297911, Note_off_c, 0, 61, 60
1, 297921, Control_c, 0, 64, 69
1, 297922, Note_on_c, 0, 56, 56
1, 297935, Control_c, 0, 64, 75
1, 297950, Control_c, 0, 64, 83
1, 297964, Note_off_c, 0, 56, 62
1, 297965, Control_c, 0, 64, 95
1, 297979, Control_c, 0, 64, 116
1, 297989, Note_on_c, 0, 57, 57
1, 297994, Control_c, 0, 64, 127
1, 298050, Note_on_c, 0, 56, 68
1, 298050, Note_off_c, 0, 57, 61
1, 298116, Note_off_c, 0, 56, 59
1, 298158, Control_c, 0, 64, 96
1, 298164, Note_on_c, 0, 57, 67
1, 298167, Note_on_c, 0, 49, 80
1, 298172, Control_c, 0, 64, 73
1, 298187, Control_c, 0, 64, 57
1, 298202, Control_c, 0, 64, 0
1, 298236, Note_off_c, 0, 57, 62
1, 298253, Note_on_c, 0, 59, 62
1, 298276, Control_c, 0, 64, 40
1, 298290, Control_c, 0, 64, 58
1, 298305, Control_c, 0, 64, 67
1, 298328, Control_c, 0, 64, 73
1, 298328, Note_off_c, 0, 59, 63
1, 298342, Note_on_c, 0, 60, 66
1, 298342, Control_c, 0, 64, 80
1, 298357, Control_c, 0, 64, 86
1, 298372, Control_c, 0, 64, 93
1, 298387, Control_c, 0, 64, 101
1, 298399, Note_off_c, 0, 60, 64
1, 298402, Control_c, 0, 64, 109
1, 298413, Note_on_c, 0, 61, 69
1, 298417, Control_c, 0, 64, 114
1, 298444, Note_off_c, 0, 61, 65
1, 298453, Note_off_c, 0, 49, 60
1, 298491, Control_c, 0, 64, 109
1, 298492, Note_on_c, 0, 47, 88
1, 298505, Note_on_c, 0, 62, 75
1, 298505, Control_c, 0, 64, 90
1, 298520, Control_c, 0, 64, 72
1, 298535, Control_c, 0, 64, 56
1, 298550, Control_c, 0, 64, 0
1, 298573, Note_off_c, 0, 62, 59
1, 298594, Note_on_c, 0, 64, 62
1, 298625, Control_c, 0, 64, 44
1, 298640, Control_c, 0, 64, 57
1, 298652, Note_off_c, 0, 64, 63
1, 298655, Control_c, 0, 64, 64
1, 298666, Note_on_c, 0, 65, 68
1, 298670, Control_c, 0, 64, 69
1, 298684, Control_c, 0, 64, 75
1, 298699, Control_c, 0, 64, 83
1, 298714, Control_c, 0, 64, 97
1, 298729, Control_c, 0, 64, 127
1, 298730, Note_off_c, 0, 65, 63
1, 298733, Note_on_c, 0, 64, 71
1, 298782, Note_off_c, 0, 64, 59
1, 298802, Control_c, 0, 64, 103
1, 298811, Note_on_c, 0, 45, 96
1, 298817, Control_c, 0, 64, 69
1, 298819, Note_on_c, 0, 65, 81
1, 298832, Control_c, 0, 64, 36
1, 298841, Note_off_c, 0, 47, 63
1, 298847, Control_c, 0, 64, 0
1, 298905, Note_on_c, 0, 66, 75
1, 298906, Control_c, 0, 64, 51
1, 298921, Control_c, 0, 64, 63
1, 298921, Note_off_c, 0, 65, 57
1, 298936, Control_c, 0, 64, 71
1, 298951, Control_c, 0, 64, 83
1, 298965, Control_c, 0, 64, 112
1, 298968, Note_on_c, 0, 68, 84
1, 298980, Control_c, 0, 64, 127
1, 298992, Note_off_c, 0, 66, 59
1, 299043, Note_on_c, 0, 69, 82
1, 299045, Note_off_c, 0, 68, 68
1, 299108, Note_off_c, 0, 69, 66
1, 299111, Note_on_c, 0, 72, 79
1, 299120, Control_c, 0, 64, 101
1, 299133, Note_off_c, 0, 72, 65
1, 299135, Control_c, 0, 64, 66
1, 299137, Note_on_c, 0, 44, 101
1, 299150, Control_c, 0, 64, 0
1, 299165, Note_off_c, 0, 45, 62
1, 299201, Note_on_c, 0, 76, 82
1, 299210, Control_c, 0, 64, 45
1, 299225, Control_c, 0, 64, 62
1, 299240, Control_c, 0, 64, 71
1, 299255, Control_c, 0, 64, 81
1, 299261, Note_on_c, 0, 77, 82
1, 299265, Note_off_c, 0, 76, 62
1, 299269, Control_c, 0, 64, 97
1, 299276, Note_on_c, 0, 75, 68
1, 299284, Control_c, 0, 64, 127
1, 299339, Note_off_c, 0, 75, 60
1, 299356, Note_on_c, 0, 78, 86
1, 299364, Note_off_c, 0, 77, 64
1, 299393, Note_off_c, 0, 78, 69
1, 299398, Note_on_c, 0, 74, 75
1, 299398, Note_on_c, 0, 81, 88
1, 299419, Control_c, 0, 64, 89
1, 299422, Note_off_c, 0, 74, 68
1, 299433, Note_off_c, 0, 81, 66
1, 299433, Control_c, 0, 64, 63
1, 299434, Note_off_c, 0, 44, 67
1, 299448, Control_c, 0, 64, 0
1, 299449, Note_on_c, 0, 42, 100
1, 299507, Note_on_c, 0, 85, 95
1, 299507, Control_c, 0, 64, 58
1, 299522, Control_c, 0, 64, 70
1, 299537, Control_c, 0, 64, 82
1, 299551, Control_c, 0, 64, 114
1, 299566, Control_c, 0, 64, 127
1, 299568, Note_on_c, 0, 86, 92
1, 299571, Note_off_c, 0, 85, 65
1, 299577, Note_off_c, 0, 42, 57
1, 299633, Note_on_c, 0, 87, 100
1, 299636, Note_off_c, 0, 86, 66
1, 299642, Note_on_c, 0, 83, 80
1, 299663, Poly_aftertouch_c, 0, 42, 127
1, 299670, Note_off_c, 0, 83, 64
1, 299680, Note_off_c, 0, 87, 67
1, 299693, Poly_aftertouch_c, 0, 42, 0
1, 299720, Note_on_c, 0, 88, 13
1, 299757, Note_on_c, 0, 91, 110
1, 299758, Note_on_c, 0, 40, 102
1, 299762, Note_on_c, 0, 84, 79
1, 299764, Note_off_c, 0, 88, 53
1, 299773, Control_c, 0, 64, 81
1, 299788, Control_c, 0, 64, 44
1, 299803, Control_c, 0, 64, 0
1, 299809, Note_off_c, 0, 84, 66
1, 299860, Note_on_c, 0, 88, 78
1, 299887, Note_off_c, 0, 91, 63
1, 299925, Note_on_c, 0, 84, 85
1, 299955, Note_off_c, 0, 88, 66
1, 299980, Note_off_c, 0, 84, 65
1, 300004, Note_on_c, 0, 79, 84
1, 300075, Note_off_c, 0, 79, 64
1, 300089, Note_on_c, 0, 87, 95
1, 300096, Note_on_c, 0, 78, 78
1, 300122, Control_c, 0, 64, 50
1, 300128, Note_off_c, 0, 78, 64
1, 300137, Control_c, 0, 64, 61
1, 300151, Control_c, 0, 64, 65
1, 300166, Control_c, 0, 64, 68
1, 300167, Note_on_c, 0, 83, 82
1, 300181, Control_c, 0, 64, 71
1, 300190, Note_off_c, 0, 87, 63
1, 300197, Control_c, 0, 64, 75
1, 300211, Control_c, 0, 64, 79
1, 300226, Control_c, 0, 64, 83
1, 300227, Note_on_c, 0, 78, 81
1, 300241, Control_c, 0, 64, 87
1, 300245, Note_off_c, 0, 40, 58
1, 300247, Note_off_c, 0, 83, 64
1, 300249, Note_on_c, 0, 39, 79
1, 300256, Control_c, 0, 64, 91
1, 300271, Control_c, 0, 64, 94
1, 300273, Note_off_c, 0, 78, 65
1, 300286, Control_c, 0, 64, 96
1, 300306, Note_off_c, 0, 39, 64
1, 300316, Note_on_c, 0, 71, 76
1, 300327, Note_on_c, 0, 40, 78
1, 300366, Note_off_c, 0, 40, 60
1, 300374, Control_c, 0, 64, 90
1, 300375, Note_off_c, 0, 71, 63
1, 300389, Control_c, 0, 64, 77
1, 300404, Control_c, 0, 64, 58
1, 300405, Note_on_c, 0, 38, 99
1, 300405, Note_on_c, 0, 78, 82
1, 300417, Note_on_c, 0, 70, 66
1, 300419, Control_c, 0, 64, 0
1, 300420, Note_on_c, 0, 40, 31
1, 300451, Note_off_c, 0, 40, 43
1, 300453, Note_off_c, 0, 70, 59
1, 300492, Note_on_c, 0, 74, 76
1, 300510, Note_off_c, 0, 78, 63
1, 300537, Control_c, 0, 64, 38
1, 300552, Control_c, 0, 64, 61
1, 300573, Note_on_c, 0, 70, 78
1, 300574, Control_c, 0, 64, 66
1, 300585, Note_off_c, 0, 74, 62
1, 300589, Control_c, 0, 64, 69
1, 300604, Control_c, 0, 64, 74
1, 300618, Note_off_c, 0, 70, 64
1, 300619, Control_c, 0, 64, 82
1, 300634, Control_c, 0, 64, 91
1, 300648, Note_on_c, 0, 66, 80
1, 300648, Control_c, 0, 64, 100
1, 300663, Control_c, 0, 64, 102
1, 300695, Note_off_c, 0, 66, 57
1, 300707, Control_c, 0, 64, 100
1, 300722, Control_c, 0, 64, 95
1, 300737, Control_c, 0, 64, 83
1, 300740, Note_on_c, 0, 73, 87
1, 300742, Note_on_c, 0, 37, 98
1, 300752, Control_c, 0, 64, 65
1, 300754, Note_on_c, 0, 64, 68
1, 300760, Note_off_c, 0, 38, 56
1, 300767, Control_c, 0, 64, 0
1, 300806, Note_off_c, 0, 64, 60
1, 300823, Note_on_c, 0, 69, 74
1, 300849, Note_off_c, 0, 73, 62
1, 300885, Control_c, 0, 64, 62
1, 300897, Note_on_c, 0, 64, 71
1, 300900, Control_c, 0, 64, 73
1, 300907, Note_off_c, 0, 69, 63
1, 300915, Control_c, 0, 64, 86
1, 300930, Control_c, 0, 64, 101
1, 300945, Control_c, 0, 64, 127
1, 300949, Note_off_c, 0, 64, 64
1, 300959, Note_on_c, 0, 61, 70
1, 300983, Note_off_c, 0, 61, 67
1, 301036, Note_off_c, 0, 37, 60
1, 301055, Note_on_c, 0, 41, 99
1, 301064, Note_on_c, 0, 69, 86
1, 301064, Control_c, 0, 64, 99
1, 301070, Note_on_c, 0, 60, 79
1, 301079, Control_c, 0, 64, 69
1, 301094, Control_c, 0, 64, 0
1, 301130, Note_off_c, 0, 60, 63
1, 301150, Note_on_c, 0, 65, 74
1, 301181, Note_off_c, 0, 69, 63
1, 301222, Note_on_c, 0, 60, 83
1, 301282, Note_off_c, 0, 60, 66
1, 301287, Note_off_c, 0, 65, 64
1, 301308, Note_on_c, 0, 57, 72
1, 301382, Note_off_c, 0, 57, 62
1, 301401, Note_on_c, 0, 65, 81
1, 301408, Note_on_c, 0, 56, 74
1, 301439, Note_off_c, 0, 56, 63
1, 301471, Control_c, 0, 64, 38
1, 301477, Note_on_c, 0, 61, 81
1, 301481, Note_off_c, 0, 65, 63
1, 301486, Control_c, 0, 64, 58
1, 301501, Control_c, 0, 64, 65
1, 301516, Control_c, 0, 64, 68
1, 301529, Note_on_c, 0, 56, 77
1, 301530, Control_c, 0, 64, 72
1, 301545, Control_c, 0, 64, 77
1, 301553, Note_off_c, 0, 61, 62
1, 301560, Control_c, 0, 64, 82
1, 301575, Control_c, 0, 64, 85
1, 301581, Note_off_c, 0, 41, 49
1, 301588, Note_off_c, 0, 56, 62
1, 301590, Control_c, 0, 64, 86
1, 301604, Control_c, 0, 64, 87
1, 301619, Note_on_c, 0, 53, 68
1, 301648, Control_c, 0, 64, 86
1, 301663, Control_c, 0, 64, 84
1, 301678, Control_c, 0, 64, 79
1, 301693, Control_c, 0, 64, 69
1, 301700, Note_off_c, 0, 53, 58
1, 301708, Control_c, 0, 64, 61
1, 301723, Control_c, 0, 64, 43
1, 301725, Note_on_c, 0, 35, 100
1, 301728, Note_on_c, 0, 62, 66
1, 301738, Control_c, 0, 64, 0
1, 301758, Note_on_c, 0, 54, 58
1, 301809, Note_off_c, 0, 62, 61
1, 301817, Note_on_c, 0, 59, 68
1, 301842, Control_c, 0, 64, 35
1, 301852, Note_off_c, 0, 54, 61
1, 301857, Control_c, 0, 64, 54
1, 301868, Note_off_c, 0, 59, 62
1, 301872, Control_c, 0, 64, 62
1, 301887, Control_c, 0, 64, 67
1, 301896, Note_on_c, 0, 50, 70
1, 301902, Control_c, 0, 64, 73
1, 301917, Control_c, 0, 64, 80
1, 301931, Control_c, 0, 64, 88
1, 301946, Control_c, 0, 64, 96
1, 301955, Note_off_c, 0, 35, 62
1, 301961, Control_c, 0, 64, 107
1, 301967, Note_on_c, 0, 47, 76
1, 301969, Note_off_c, 0, 50, 63
1, 301976, Control_c, 0, 64, 127
1, 302035, Control_c, 0, 64, 112
1, 302049, Note_off_c, 0, 47, 60
1, 302050, Control_c, 0, 64, 83
1, 302057, Note_on_c, 0, 33, 98
1, 302071, Note_on_c, 0, 54, 84
1, 302072, Control_c, 0, 64, 62
1, 302074, Note_on_c, 0, 35, 78
1, 302074, Note_off_c, 0, 35, 127
1, 302086, Control_c, 0, 64, 0
1, 302092, Note_on_c, 0, 45, 69
1, 302123, Note_off_c, 0, 45, 65
1, 302161, Control_c, 0, 64, 48
1, 302166, Note_on_c, 0, 49, 69
1, 302172, Note_off_c, 0, 54, 61
1, 302176, Control_c, 0, 64, 65
1, 302191, Control_c, 0, 64, 76
1, 302192, Note_on_c, 0, 45, 83
1, 302205, Note_off_c, 0, 33, 52
1, 302206, Control_c, 0, 64, 108
1, 302211, Note_off_c, 0, 49, 63
1, 302220, Control_c, 0, 64, 127
1, 302274, Note_on_c, 0, 42, 88
1, 302281, Note_off_c, 0, 45, 64
1, 302317, Note_off_c, 0, 42, 66
1, 302397, Note_on_c, 0, 28, 101
1, 302458, Control_c, 0, 64, 70
1, 302472, Control_c, 0, 64, 0
1, 302521, Note_on_c, 0, 41, 89
1, 302601, Note_on_c, 0, 44, 88
1, 302614, Note_off_c, 0, 41, 62
1, 302659, Note_on_c, 0, 47, 81
1, 302676, Note_off_c, 0, 44, 64
1, 302710, Control_c, 0, 64, 36
1, 302725, Control_c, 0, 64, 62
1, 302733, Note_on_c, 0, 49, 90
1, 302739, Note_off_c, 0, 47, 65
1, 302740, Control_c, 0, 64, 76
1, 302755, Control_c, 0, 64, 91
1, 302766, Note_off_c, 0, 49, 66
1, 302769, Control_c, 0, 64, 127
1, 302808, Note_on_c, 0, 50, 88
1, 302893, Note_on_c, 0, 53, 91
1, 302912, Note_off_c, 0, 50, 54
1, 302959, Note_on_c, 0, 56, 97
1, 302986, Note_off_c, 0, 53, 64
1, 303028, Note_on_c, 0, 40, 113
1, 303042, Note_off_c, 0, 56, 67
1, 303043, Note_on_c, 0, 58, 89
1, 303077, Note_off_c, 0, 58, 66
1, 303119, Note_off_c, 0, 28, 59
1, 303125, Note_on_c, 0, 59, 90
1, 303185, Note_off_c, 0, 59, 62
1, 303192, Note_on_c, 0, 62, 94
1, 303209, Poly_aftertouch_c, 0, 60, 127
1, 303249, Poly_aftertouch_c, 0, 60, 0
1, 303250, Note_on_c, 0, 65, 93
1, 303287, Note_off_c, 0, 62, 60
1, 303318, Note_on_c, 0, 67, 90
1, 303324, Note_off_c, 0, 65, 67
1, 303337, Note_off_c, 0, 67, 71
1, 303341, Note_on_c, 0, 34, 23
1, 303389, Note_on_c, 0, 68, 99
1, 303401, Note_off_c, 0, 34, 36
1, 303443, Note_off_c, 0, 68, 63
1, 303461, Note_on_c, 0, 71, 85
1, 303461, Note_on_c, 0, 72, 82
1, 303513, Note_off_c, 0, 72, 69
1, 303514, Note_off_c, 0, 71, 68
1, 303517, Note_on_c, 0, 74, 110
1, 303553, Note_off_c, 0, 74, 67
1, 303600, Control_c, 0, 64, 65
1, 303605, Note_off_c, 0, 40, 57
1, 303615, Control_c, 0, 64, 0
1, 303641, Note_on_c, 0, 57, 106
1, 303642, Note_on_c, 0, 33, 99
1, 303651, Note_on_c, 0, 31, 91
1, 303659, Control_c, 0, 64, 32
1, 303673, Note_off_c, 0, 31, 65
1, 303674, Control_c, 0, 64, 68
1, 303681, Note_off_c, 0, 57, 72
1, 303689, Control_c, 0, 64, 127
1, 303808, Note_on_c, 0, 79, 104
1, 303886, Note_on_c, 0, 80, 98
1, 303899, Note_off_c, 0, 79, 67
1, 303959, Note_on_c, 0, 78, 74
1, 303967, Note_on_c, 0, 81, 97
1, 303984, Note_off_c, 0, 78, 68
1, 303988, Note_off_c, 0, 80, 69
1, 304010, Note_off_c, 0, 81, 67
1, 304060, Note_on_c, 0, 84, 106
1, 304063, Note_on_c, 0, 77, 96
1, 304074, Control_c, 0, 64, 78
1, 304089, Control_c, 0, 64, 0
1, 304107, Note_off_c, 0, 77, 62
1, 304140, Note_on_c, 0, 81, 80
1, 304148, Control_c, 0, 64, 36
1, 304163, Control_c, 0, 64, 76
1, 304173, Note_off_c, 0, 84, 62
1, 304178, Control_c, 0, 64, 127
1, 304214, Note_on_c, 0, 77, 91
1, 304251, Note_off_c, 0, 81, 65
1, 304266, Note_off_c, 0, 77, 67
1, 304297, Note_on_c, 0, 72, 91
1, 304378, Note_on_c, 0, 80, 98
1, 304385, Note_on_c, 0, 71, 91
1, 304413, Note_off_c, 0, 72, 60
1, 304415, Note_off_c, 0, 71, 57
1, 304447, Note_on_c, 0, 79, 78
1, 304450, Note_on_c, 0, 75, 88
1, 304475, Note_off_c, 0, 80, 56
1, 304485, Note_on_c, 0, 76, 79
1, 304489, Note_off_c, 0, 79, 64
1, 304526, Note_on_c, 0, 71, 91
1, 304544, Note_off_c, 0, 75, 55
1, 304553, Note_off_c, 0, 76, 62
1, 304578, Note_off_c, 0, 71, 64
1, 304605, Note_on_c, 0, 68, 91
1, 304642, Note_off_c, 0, 68, 66
1, 304659, Control_c, 0, 64, 102
1, 304674, Control_c, 0, 64, 71
1, 304680, Note_on_c, 0, 75, 98
1, 304686, Note_on_c, 0, 66, 89
1, 304689, Control_c, 0, 64, 51
1, 304704, Control_c, 0, 64, 48
1, 304719, Control_c, 0, 64, 57
1, 304733, Note_off_c, 0, 66, 59
1, 304733, Control_c, 0, 64, 66
1, 304748, Control_c, 0, 64, 80
1, 304759, Note_on_c, 0, 71, 85
1, 304763, Control_c, 0, 64, 113
1, 304778, Control_c, 0, 64, 127
1, 304785, Note_off_c, 0, 75, 64
1, 304832, Note_on_c, 0, 66, 88
1, 304862, Note_off_c, 0, 71, 63
1, 304899, Note_off_c, 0, 66, 64
1, 304910, Note_on_c, 0, 63, 86
1, 304932, Note_off_c, 0, 63, 70
1, 304986, Control_c, 0, 64, 90
1, 304994, Note_on_c, 0, 69, 95
1, 304996, Note_on_c, 0, 62, 90
1, 305001, Control_c, 0, 64, 64
1, 305016, Control_c, 0, 64, 36
1, 305031, Control_c, 0, 64, 31
1, 305042, Note_off_c, 0, 62, 62
1, 305045, Control_c, 0, 64, 47
1, 305067, Control_c, 0, 64, 64
1, 305079, Note_on_c, 0, 66, 89
1, 305082, Control_c, 0, 64, 78
1, 305097, Control_c, 0, 64, 127
1, 305097, Note_off_c, 0, 69, 62
1, 305151, Note_on_c, 0, 62, 82
1, 305206, Note_off_c, 0, 62, 64
1, 305227, Note_on_c, 0, 57, 80
1, 305228, Note_off_c, 0, 66, 58
1, 305303, Note_on_c, 0, 65, 87
1, 305305, Control_c, 0, 64, 78
1, 305312, Note_off_c, 0, 57, 63
1, 305313, Note_on_c, 0, 56, 76
1, 305320, Control_c, 0, 64, 46
1, 305335, Control_c, 0, 64, 0
1, 305364, Control_c, 0, 64, 54
1, 305372, Note_off_c, 0, 56, 59
1, 305374, Note_on_c, 0, 61, 82
1, 305379, Control_c, 0, 64, 72
1, 305394, Control_c, 0, 64, 107
1, 305395, Note_off_c, 0, 65, 62
1, 305409, Control_c, 0, 64, 127
1, 305447, Note_on_c, 0, 56, 88
1, 305479, Note_off_c, 0, 61, 61
1, 305509, Note_off_c, 0, 56, 62
1, 305525, Note_on_c, 0, 53, 84
1, 305527, Control_c, 0, 64, 83
1, 305542, Control_c, 0, 64, 75
1, 305557, Control_c, 0, 64, 80
1, 305564, Note_off_c, 0, 33, 64
1, 305571, Control_c, 0, 64, 106
1, 305586, Control_c, 0, 64, 127
1, 305598, Note_on_c, 0, 61, 91
1, 305604, Note_on_c, 0, 54, 85
1, 305615, Note_off_c, 0, 53, 59
1, 305659, Note_on_c, 0, 58, 95
1, 305668, Note_off_c, 0, 61, 64
1, 305674, Note_off_c, 0, 54, 62
1, 305692, Note_off_c, 0, 58, 69
1, 305741, Poly_aftertouch_c, 0, 42, 0
1, 305745, Note_on_c, 0, 54, 98
1, 305777, Poly_aftertouch_c, 0, 42, 127
1, 305830, Note_on_c, 0, 49, 102
1, 305830, Note_off_c, 0, 54, 64
1, 305831, Poly_aftertouch_c, 0, 42, 0
1, 305874, Note_on_c, 0, 48, 83
1, 305877, Note_off_c, 0, 49, 63
1, 305890, Note_on_c, 0, 80, 34
1, 305896, Note_on_c, 0, 45, 73
1, 305899, Note_off_c, 0, 48, 70
1, 305901, Note_on_c, 0, 78, 29
1, 305916, Note_off_c, 0, 45, 63
1, 305923, Note_off_c, 0, 80, 56
1, 305938, Note_off_c, 0, 78, 41
1, 305947, Note_on_c, 0, 79, 93
1, 306031, Note_on_c, 0, 42, 96
1, 306068, Note_on_c, 0, 43, 48
1, 306090, Note_on_c, 0, 37, 57
1, 306092, Note_off_c, 0, 42, 65
1, 306097, Note_off_c, 0, 43, 56
1, 306105, Note_on_c, 0, 81, 98
1, 306121, Note_on_c, 0, 38, 38
1, 306123, Note_off_c, 0, 37, 58
1, 306125, Note_on_c, 0, 80, 29
1, 306125, Note_off_c, 0, 80, 127
1, 306161, Note_off_c, 0, 38, 52
1, 306173, Note_off_c, 0, 79, 52
1, 306181, Note_off_c, 0, 81, 59
1, 306218, Note_on_c, 0, 84, 98
1, 306221, Note_on_c, 0, 45, 101
1, 306222, Note_on_c, 0, 33, 109
1, 306222, Note_on_c, 0, 43, 94
1, 306224, Note_on_c, 0, 76, 97
1, 306232, Control_c, 0, 64, 101
1, 306233, Note_on_c, 0, 77, 75
1, 306234, Note_on_c, 0, 83, 66
1, 306246, Control_c, 0, 64, 65
1, 306251, Note_off_c, 0, 77, 61
1, 306258, Note_off_c, 0, 83, 40
1, 306261, Control_c, 0, 64, 0
1, 306262, Note_off_c, 0, 76, 65
1, 306311, Note_on_c, 0, 81, 96
1, 306343, Note_off_c, 0, 84, 63
1, 306353, Note_off_c, 0, 43, 58
1, 306385, Note_on_c, 0, 77, 76
1, 306415, Note_off_c, 0, 81, 64
1, 306445, Note_off_c, 0, 77, 65
1, 306453, Control_c, 0, 64, 55
1, 306468, Note_on_c, 0, 72, 86
1, 306468, Control_c, 0, 64, 73
1, 306483, Control_c, 0, 64, 73
1, 306498, Control_c, 0, 64, 69
1, 306513, Control_c, 0, 64, 62
1, 306528, Control_c, 0, 64, 55
1, 306540, Note_on_c, 0, 80, 94
1, 306543, Control_c, 0, 64, 41
1, 306564, Note_on_c, 0, 71, 78
1, 306564, Control_c, 0, 64, 0
1, 306579, Control_c, 0, 64, 31
1, 306582, Note_off_c, 0, 72, 42
1, 306596, Control_c, 0, 64, 48
1, 306610, Control_c, 0, 64, 61
1, 306617, Note_off_c, 0, 71, 39
1, 306625, Control_c, 0, 64, 68
1, 306631, Note_on_c, 0, 76, 85
1, 306640, Control_c, 0, 64, 73
1, 306655, Control_c, 0, 64, 77
1, 306656, Note_off_c, 0, 80, 64
1, 306669, Control_c, 0, 64, 81
1, 306684, Control_c, 0, 64, 89
1, 306699, Control_c, 0, 64, 104
1, 306704, Note_on_c, 0, 71, 87
1, 306714, Control_c, 0, 64, 127
1, 306728, Note_off_c, 0, 76, 64
1, 306763, Note_off_c, 0, 71, 66
1, 306776, Note_on_c, 0, 68, 86
1, 306825, Note_off_c, 0, 68, 55
1, 306847, Control_c, 0, 64, 105
1, 306850, Note_on_c, 0, 75, 95
1, 306860, Note_on_c, 0, 66, 85
1, 306862, Control_c, 0, 64, 70
1, 306877, Control_c, 0, 64, 43
1, 306892, Control_c, 0, 64, 35
1, 306907, Control_c, 0, 64, 49
1, 306921, Control_c, 0, 64, 63
1, 306930, Note_off_c, 0, 66, 52
1, 306930, Note_on_c, 0, 71, 83
1, 306936, Control_c, 0, 64, 74
1, 306951, Control_c, 0, 64, 90
1, 306962, Note_off_c, 0, 75, 61
1, 306966, Control_c, 0, 64, 127
1, 307005, Note_on_c, 0, 66, 86
1, 307041, Note_off_c, 0, 71, 63
1, 307056, Note_off_c, 0, 66, 60
1, 307070, Note_on_c, 0, 63, 87
1, 307107, Note_off_c, 0, 63, 61
1, 307158, Note_on_c, 0, 69, 91
1, 307158, Control_c, 0, 64, 98
1, 307167, Note_on_c, 0, 62, 77
1, 307173, Control_c, 0, 64, 67
1, 307187, Control_c, 0, 64, 47
1, 307202, Control_c, 0, 64, 40
1, 307206, Note_off_c, 0, 62, 56
1, 307217, Control_c, 0, 64, 50
1, 307232, Control_c, 0, 64, 61
1, 307237, Note_on_c, 0, 66, 85
1, 307247, Control_c, 0, 64, 69
1, 307254, Note_off_c, 0, 69, 62
1, 307261, Control_c, 0, 64, 79
1, 307276, Control_c, 0, 64, 93
1, 307291, Control_c, 0, 64, 108
1, 307312, Note_on_c, 0, 62, 78
1, 307314, Control_c, 0, 64, 127
1, 307373, Note_off_c, 0, 62, 64
1, 307389, Control_c, 0, 64, 82
1, 307398, Note_on_c, 0, 57, 75
1, 307404, Control_c, 0, 64, 66
1, 307405, Note_off_c, 0, 66, 61
1, 307419, Control_c, 0, 64, 61
1, 307434, Control_c, 0, 64, 64
1, 307448, Control_c, 0, 64, 69
1, 307463, Control_c, 0, 64, 77
1, 307473, Note_on_c, 0, 65, 87
1, 307477, Note_on_c, 0, 56, 81
1, 307478, Control_c, 0, 64, 91
1, 307483, Note_off_c, 0, 57, 62
1, 307492, Control_c, 0, 64, 109
1, 307507, Control_c, 0, 64, 127
1, 307518, Note_off_c, 0, 56, 55
1, 307527, Note_off_c, 0, 45, 60
1, 307548, Note_on_c, 0, 61, 89
1, 307551, Note_off_c, 0, 33, 56
1, 307558, Note_off_c, 0, 65, 64
1, 307615, Note_on_c, 0, 56, 82
1, 307633, Note_off_c, 0, 61, 62
1, 307676, Note_off_c, 0, 56, 61
1, 307691, Note_on_c, 0, 53, 80
1, 307767, Note_on_c, 0, 44, 103
1, 307770, Note_off_c, 0, 53, 36
1, 307774, Note_on_c, 0, 32, 89
1, 307774, Note_on_c, 0, 60, 85
1, 307774, Control_c, 0, 64, 107
1, 307789, Control_c, 0, 64, 70
1, 307804, Control_c, 0, 64, 36
1, 307809, Note_on_c, 0, 31, 52
1, 307813, Note_on_c, 0, 52, 38
1, 307819, Control_c, 0, 64, 0
1, 307846, Note_off_c, 0, 52, 53
1, 307851, Note_off_c, 0, 31, 48
1, 307859, Note_on_c, 0, 55, 83
1, 307873, Note_off_c, 0, 60, 61
1, 307878, Control_c, 0, 64, 56
1, 307893, Control_c, 0, 64, 69
1, 307908, Control_c, 0, 64, 81
1, 307920, Note_on_c, 0, 52, 84
1, 307923, Control_c, 0, 64, 122
1, 307938, Control_c, 0, 64, 127
1, 307946, Note_off_c, 0, 55, 63
1, 307980, Note_off_c, 0, 52, 62
1, 307986, Note_on_c, 0, 48, 82
1, 308030, Note_off_c, 0, 48, 57
1, 308033, Note_off_c, 0, 44, 63
1, 308061, Note_off_c, 0, 32, 58
1, 308098, Note_on_c, 0, 43, 112
1, 308100, Note_on_c, 0, 31, 104
1, 308123, Control_c, 0, 64, 81
1, 308138, Control_c, 0, 64, 48
1, 308153, Control_c, 0, 64, 0
1, 308176, Note_on_c, 0, 66, 64
1, 308197, Control_c, 0, 64, 53
1, 308212, Control_c, 0, 64, 69
1, 308227, Control_c, 0, 64, 81
1, 308233, Note_on_c, 0, 67, 84
1, 308242, Control_c, 0, 64, 107
1, 308257, Control_c, 0, 64, 127
1, 308263, Note_off_c, 0, 43, 63
1, 308292, Note_on_c, 0, 64, 81
1, 308302, Note_on_c, 0, 68, 88
1, 308308, Note_off_c, 0, 67, 64
1, 308310, Note_off_c, 0, 66, 56
1, 308342, Note_off_c, 0, 31, 39
1, 308343, Note_off_c, 0, 64, 62
1, 308355, Note_off_c, 0, 68, 68
1, 308384, Note_on_c, 0, 42, 103
1, 308387, Note_on_c, 0, 71, 91
1, 308388, Note_on_c, 0, 30, 89
1, 308394, Note_on_c, 0, 62, 82
1, 308414, Note_off_c, 0, 62, 71
1, 308427, Note_off_c, 0, 71, 68
1, 308500, Note_on_c, 0, 74, 99
1, 308510, Note_off_c, 0, 42, 62
1, 308522, Control_c, 0, 64, 71
1, 308528, Note_off_c, 0, 30, 60
1, 308537, Control_c, 0, 64, 0
1, 308570, Note_on_c, 0, 41, 109
1, 308573, Note_on_c, 0, 29, 104
1, 308591, Note_on_c, 0, 75, 99
1, 308604, Note_off_c, 0, 74, 59
1, 308610, Note_off_c, 0, 41, 68
1, 308615, Note_off_c, 0, 29, 65
1, 308626, Control_c, 0, 64, 63
1, 308641, Control_c, 0, 64, 117
1, 308656, Control_c, 0, 64, 127
1, 308667, Note_off_c, 0, 75, 68
1, 308679, Note_on_c, 0, 80, 90
1, 308687, Note_on_c, 0, 76, 83
1, 308692, Note_off_c, 0, 80, 66
1, 308696, Note_on_c, 0, 81, 87
1, 308749, Note_off_c, 0, 76, 53
1, 308750, Note_off_c, 0, 81, 61
1, 308832, Note_on_c, 0, 63, 119
1, 308834, Note_on_c, 0, 83, 99
1, 308838, Note_on_c, 0, 77, 67
1, 308863, Note_off_c, 0, 63, 73
1, 308910, Note_off_c, 0, 77, 60
1, 308949, Note_on_c, 0, 80, 91
1, 308963, Note_off_c, 0, 83, 63
1, 309012, Note_on_c, 0, 77, 74
1, 309050, Note_off_c, 0, 80, 63
1, 309072, Note_off_c, 0, 77, 64
1, 309091, Note_on_c, 0, 71, 81
1, 309101, Note_on_c, 0, 72, 64
1, 309121, Note_off_c, 0, 72, 64
1, 309181, Note_off_c, 0, 71, 49
1, 309184, Note_on_c, 0, 77, 84
1, 309200, Note_on_c, 0, 63, 120
1, 309229, Note_off_c, 0, 63, 73
1, 309285, Note_off_c, 0, 77, 63
1, 309289, Note_on_c, 0, 73, 84
1, 309348, Note_on_c, 0, 68, 83
1, 309364, Note_off_c, 0, 73, 62
1, 309408, Note_off_c, 0, 68, 60
1, 309419, Note_on_c, 0, 65, 81
1, 309504, Note_on_c, 0, 73, 86
1, 309512, Note_off_c, 0, 65, 0
1, 309548, Poly_aftertouch_c, 0, 65, 127
1, 309582, Note_on_c, 0, 68, 82
1, 309588, Note_off_c, 0, 73, 64
1, 309607, Poly_aftertouch_c, 0, 65, 0
1, 309627, Note_on_c, 0, 65, 53
1, 309655, Note_off_c, 0, 68, 63
1, 309692, Note_off_c, 0, 65, 63
1, 309712, Note_on_c, 0, 59, 71
1, 309740, Note_off_c, 0, 59, 68
1, 309825, Note_on_c, 0, 66, 114
1, 309839, Note_off_c, 0, 66, 74
1, 309845, Note_on_c, 0, 65, 102
1, 309860, Note_off_c, 0, 65, 76
1, 309937, Note_on_c, 0, 58, 65
1, 309968, Note_off_c, 0, 58, 67
1, 309995, Note_on_c, 0, 63, 118
1, 310012, Note_on_c, 0, 59, 77
1, 310017, Note_off_c, 0, 63, 72
1, 310077, Note_on_c, 0, 61, 90
1, 310090, Note_off_c, 0, 59, 64
1, 310132, Note_off_c, 0, 61, 63
1, 310197, Control_c, 0, 64, 73
1, 310202, Note_on_c, 0, 62, 105
1, 310212, Control_c, 0, 64, 35
1, 310227, Control_c, 0, 64, 0
1, 310269, Note_on_c, 0, 53, 71
1, 310286, Control_c, 0, 64, 55
1, 310308, Control_c, 0, 64, 65
1, 310323, Control_c, 0, 64, 73
1, 310338, Control_c, 0, 64, 88
1, 310352, Control_c, 0, 64, 127
1, 310363, Note_on_c, 0, 44, 81
1, 310376, Note_off_c, 0, 62, 68
1, 310388, Note_off_c, 0, 53, 56
1, 310432, Note_on_c, 0, 41, 65
1, 310439, Note_off_c, 0, 44, 62
1, 310501, Control_c, 0, 64, 98
1, 310516, Control_c, 0, 64, 73
1, 310516, Note_off_c, 0, 41, 60
1, 310520, Note_on_c, 0, 35, 76
1, 310530, Control_c, 0, 64, 63
1, 310541, Note_on_c, 0, 61, 114
1, 310545, Control_c, 0, 64, 64
1, 310560, Control_c, 0, 64, 71
1, 310575, Control_c, 0, 64, 86
1, 310582, Note_on_c, 0, 41, 65
1, 310591, Control_c, 0, 64, 127
1, 310627, Note_off_c, 0, 35, 55
1, 310639, Note_on_c, 0, 44, 87
1, 310642, Note_off_c, 0, 61, 64
1, 310667, Note_off_c, 0, 41, 61
1, 310704, Note_off_c, 0, 44, 65
1, 310728, Note_on_c, 0, 53, 81
1, 310761, Note_off_c, 0, 53, 64
1, 310883, Note_on_c, 0, 58, 17
1, 310889, Note_on_c, 0, 49, 104
1, 310901, Control_c, 0, 64, 82
1, 310916, Control_c, 0, 64, 55
1, 310923, Note_off_c, 0, 58, 51
1, 310931, Control_c, 0, 64, 0
1, 310974, Note_on_c, 0, 53, 74
1, 310990, Control_c, 0, 64, 51
1, 311005, Control_c, 0, 64, 67
1, 311020, Control_c, 0, 64, 80
1, 311035, Control_c, 0, 64, 113
1, 311056, Note_off_c, 0, 49, 65
1, 311057, Control_c, 0, 64, 127
1, 311063, Note_on_c, 0, 56, 80
1, 311073, Note_off_c, 0, 53, 62
1, 311107, Note_off_c, 0, 56, 62
1, 311126, Note_on_c, 0, 47, 77
1, 311211, Note_off_c, 0, 47, 60
1, 311220, Control_c, 0, 64, 104
1, 311225, Note_on_c, 0, 51, 111
1, 311235, Control_c, 0, 64, 70
1, 311250, Control_c, 0, 64, 51
1, 311265, Control_c, 0, 64, 52
1, 311280, Control_c, 0, 64, 62
1, 311290, Note_on_c, 0, 47, 83
1, 311294, Control_c, 0, 64, 74
1, 311300, Note_off_c, 0, 51, 65
1, 311309, Control_c, 0, 64, 104
1, 311324, Control_c, 0, 64, 127
1, 311366, Note_on_c, 0, 53, 78
1, 311391, Note_off_c, 0, 47, 63
1, 311414, Note_off_c, 0, 53, 65
1, 311443, Note_on_c, 0, 44, 83
1, 311491, Note_off_c, 0, 44, 61
1, 311574, Note_on_c, 0, 48, 105
1, 311646, Note_on_c, 0, 42, 79
1, 311650, Control_c, 0, 64, 76
1, 311665, Control_c, 0, 64, 39
1, 311680, Control_c, 0, 64, 0
1, 311735, Note_on_c, 0, 46, 79
1, 311743, Note_off_c, 0, 42, 63
1, 311790, Note_on_c, 0, 39, 84
1, 311837, Note_off_c, 0, 46, 64
1, 311894, Note_on_c, 0, 42, 95
1, 311895, Control_c, 0, 64, 51
1, 311898, Note_off_c, 0, 39, 60
1, 311910, Control_c, 0, 64, 61
1, 311925, Control_c, 0, 64, 67
1, 311939, Control_c, 0, 64, 73
1, 311943, Note_off_c, 0, 42, 66
1, 311954, Control_c, 0, 64, 81
1, 311969, Control_c, 0, 64, 89
1, 311983, Control_c, 0, 64, 95
1, 311998, Control_c, 0, 64, 105
1, 312013, Control_c, 0, 64, 127
1, 312059, Note_on_c, 0, 34, 87
1, 312087, Note_off_c, 0, 34, 66
1, 312207, Control_c, 0, 64, 121
1, 312222, Control_c, 0, 64, 75
1, 312233, Note_on_c, 0, 36, 101
1, 312236, Control_c, 0, 64, 63
1, 312251, Control_c, 0, 64, 64
1, 312252, Note_off_c, 0, 48, 43
1, 312266, Control_c, 0, 64, 74
1, 312275, Note_off_c, 0, 36, 66
1, 312281, Control_c, 0, 64, 97
1, 312296, Control_c, 0, 64, 127
1, 312466, Note_on_c, 0, 90, 26
1, 312514, Poly_aftertouch_c, 0, 34, 127
1, 312517, Note_off_c, 0, 90, 43
1, 312558, Poly_aftertouch_c, 0, 34, 0
1, 312573, Note_on_c, 0, 24, 106
1, 312614, Note_off_c, 0, 24, 67
1, 312651, Note_on_c, 0, 86, 94
1, 312727, Note_on_c, 0, 87, 98
1, 312748, Note_off_c, 0, 86, 60
1, 312807, Note_on_c, 0, 86, 71
1, 312807, Control_c, 0, 64, 97
1, 312808, Note_on_c, 0, 84, 60
1, 312808, Note_off_c, 0, 87, 64
1, 312814, Note_on_c, 0, 89, 87
1, 312815, Note_on_c, 0, 88, 88
1, 312822, Control_c, 0, 64, 65
1, 312835, Note_off_c, 0, 84, 66
1, 312837, Control_c, 0, 64, 0
1, 312839, Note_off_c, 0, 86, 65
1, 312895, Note_on_c, 0, 92, 99
1, 312896, Note_on_c, 0, 28, 96
1, 312897, Note_on_c, 0, 40, 97
1, 312907, Note_on_c, 0, 85, 93
1, 312917, Note_on_c, 0, 93, 80
1, 312917, Note_off_c, 0, 88, 63
1, 312922, Note_off_c, 0, 89, 58
1, 312955, Note_off_c, 0, 40, 65
1, 312955, Note_off_c, 0, 28, 64
1, 312955, Control_c, 0, 64, 55
1, 312956, Note_off_c, 0, 85, 64
1, 312968, Note_off_c, 0, 93, 63
1, 312970, Control_c, 0, 64, 85
1, 312985, Note_on_c, 0, 88, 71
1, 312986, Control_c, 0, 64, 127
1, 312993, Note_off_c, 0, 92, 61
1, 312997, Note_on_c, 0, 89, 64
1, 313029, Note_off_c, 0, 89, 0
1, 313029, Note_on_c, 0, 89, 37
1, 313053, Note_on_c, 0, 85, 83
1, 313091, Note_off_c, 0, 88, 65
1, 313120, Note_off_c, 0, 89, 43
1, 313122, Note_off_c, 0, 85, 63
1, 313129, Note_on_c, 0, 80, 81
1, 313176, Note_off_c, 0, 80, 63
1, 313208, Control_c, 0, 64, 89
1, 313222, Note_on_c, 0, 88, 82
1, 313223, Control_c, 0, 64, 71
1, 313226, Note_on_c, 0, 52, 93
1, 313229, Note_on_c, 0, 49, 85
1, 313230, Note_on_c, 0, 45, 79
1, 313238, Control_c, 0, 64, 63
1, 313239, Note_on_c, 0, 81, 63
1, 313250, Note_off_c, 0, 49, 69
1, 313253, Control_c, 0, 64, 65
1, 313268, Control_c, 0, 64, 75
1, 313283, Control_c, 0, 64, 94
1, 313286, Note_off_c, 0, 45, 62
1, 313292, Note_off_c, 0, 81, 62
1, 313304, Control_c, 0, 64, 127
1, 313321, Note_on_c, 0, 85, 82
1, 313324, Note_off_c, 0, 88, 65
1, 313403, Note_on_c, 0, 81, 72
1, 313437, Note_off_c, 0, 52, 56
1, 313446, Note_off_c, 0, 81, 61
1, 313474, Note_off_c, 0, 85, 62
1, 313475, Note_on_c, 0, 76, 74
1, 313482, Note_on_c, 0, 54, 91
1, 313497, Control_c, 0, 64, 91
1, 313512, Control_c, 0, 64, 70
1, 313527, Control_c, 0, 64, 53
1, 313533, Note_off_c, 0, 76, 62
1, 313540, Note_off_c, 0, 54, 66
1, 313542, Control_c, 0, 64, 0
1, 313557, Note_on_c, 0, 55, 101
1, 313559, Note_on_c, 0, 84, 85
1, 313566, Note_on_c, 0, 48, 75
1, 313566, Note_on_c, 0, 75, 77
1, 313568, Note_on_c, 0, 51, 84
1, 313571, Control_c, 0, 64, 42
1, 313586, Control_c, 0, 64, 61
1, 313590, Note_off_c, 0, 51, 69
1, 313598, Note_off_c, 0, 48, 67
1, 313601, Control_c, 0, 64, 72
1, 313605, Note_off_c, 0, 75, 59
1, 313616, Control_c, 0, 64, 82
1, 313630, Control_c, 0, 64, 92
1, 313643, Note_on_c, 0, 79, 83
1, 313645, Control_c, 0, 64, 102
1, 313651, Note_off_c, 0, 84, 61
1, 313660, Control_c, 0, 64, 127
1, 313705, Note_on_c, 0, 75, 83
1, 313721, Note_off_c, 0, 79, 65
1, 313751, Note_off_c, 0, 55, 63
1, 313775, Note_off_c, 0, 75, 62
1, 313781, Note_on_c, 0, 72, 81
1, 313783, Note_on_c, 0, 57, 92
1, 313831, Note_off_c, 0, 57, 67
1, 313839, Control_c, 0, 64, 93
1, 313853, Control_c, 0, 64, 63
1, 313855, Note_on_c, 0, 59, 98
1, 313855, Note_on_c, 0, 54, 97
1, 313857, Note_on_c, 0, 81, 97
1, 313858, Note_on_c, 0, 51, 89
1, 313866, Note_on_c, 0, 73, 88
1, 313868, Control_c, 0, 64, 47
1, 313875, Note_off_c, 0, 54, 72
1, 313875, Note_off_c, 0, 72, 63
1, 313883, Control_c, 0, 64, 54
1, 313897, Note_off_c, 0, 51, 64
1, 313898, Control_c, 0, 64, 64
1, 313913, Control_c, 0, 64, 77
1, 313916, Note_off_c, 0, 73, 63
1, 313927, Control_c, 0, 64, 101
1, 313936, Note_on_c, 0, 78, 92
1, 313942, Control_c, 0, 64, 127
1, 313952, Note_off_c, 0, 81, 63
1, 314000, Note_on_c, 0, 73, 91
1, 314015, Note_off_c, 0, 59, 63
1, 314026, Note_off_c, 0, 78, 62
1, 314067, Note_off_c, 0, 73, 64
1, 314074, Note_on_c, 0, 69, 83
1, 314077, Note_on_c, 0, 61, 93
1, 314098, Control_c, 0, 64, 79
1, 314113, Control_c, 0, 64, 61
1, 314126, Note_off_c, 0, 61, 67
1, 314127, Control_c, 0, 64, 55
1, 314130, Note_on_c, 0, 55, 75
1, 314136, Note_on_c, 0, 58, 90
1, 314142, Control_c, 0, 64, 62
1, 314153, Note_on_c, 0, 62, 89
1, 314157, Control_c, 0, 64, 71
1, 314162, Note_on_c, 0, 76, 99
1, 314165, Note_off_c, 0, 58, 70
1, 314171, Note_on_c, 0, 70, 81
1, 314171, Control_c, 0, 64, 87
1, 314179, Note_off_c, 0, 69, 63
1, 314186, Control_c, 0, 64, 127
1, 314192, Note_off_c, 0, 55, 65
1, 314192, Note_off_c, 0, 70, 68
1, 314194, Note_off_c, 0, 62, 63
1, 314237, Note_on_c, 0, 74, 82
1, 314251, Note_on_c, 0, 72, 66
1, 314263, Note_off_c, 0, 76, 65
1, 314270, Note_off_c, 0, 72, 40
1, 314292, Note_on_c, 0, 71, 68
1, 314302, Note_off_c, 0, 74, 61
1, 314316, Note_off_c, 0, 71, 69
1, 314326, Note_on_c, 0, 64, 68
1, 314337, Note_on_c, 0, 36, 98
1, 314351, Note_off_c, 0, 64, 67
1, 314373, Note_on_c, 0, 37, 66
1, 314391, Note_on_c, 0, 39, 88
1, 314410, Note_off_c, 0, 36, 55
1, 314415, Note_off_c, 0, 37, 62
1, 314424, Control_c, 0, 64, 94
1, 314433, Note_off_c, 0, 39, 61
1, 314439, Control_c, 0, 64, 64
1, 314453, Control_c, 0, 64, 0
1, 314471, Note_on_c, 0, 80, 99
1, 314478, Note_on_c, 0, 49, 102
1, 314479, Note_on_c, 0, 40, 97
1, 314481, Note_on_c, 0, 73, 96
1, 314560, Note_off_c, 0, 73, 64
1, 314567, Note_on_c, 0, 76, 75
1, 314576, Note_off_c, 0, 80, 66
1, 314617, Control_c, 0, 64, 60
1, 314632, Control_c, 0, 64, 72
1, 314634, Note_on_c, 0, 73, 80
1, 314647, Control_c, 0, 64, 82
1, 314656, Note_off_c, 0, 40, 57
1, 314661, Note_off_c, 0, 76, 63
1, 314662, Control_c, 0, 64, 94
1, 314676, Control_c, 0, 64, 111
1, 314681, Note_off_c, 0, 49, 65
1, 314691, Control_c, 0, 64, 127
1, 314697, Note_off_c, 0, 73, 63
1, 314705, Note_on_c, 0, 68, 83
1, 314732, Note_on_c, 0, 51, 98
1, 314747, Note_off_c, 0, 68, 62
1, 314780, Note_off_c, 0, 51, 66
1, 314780, Control_c, 0, 64, 106
1, 314802, Control_c, 0, 64, 74
1, 314803, Note_on_c, 0, 76, 92
1, 314812, Note_on_c, 0, 69, 81
1, 314815, Note_on_c, 0, 52, 102
1, 314817, Control_c, 0, 64, 53
1, 314823, Note_on_c, 0, 49, 89
1, 314827, Note_on_c, 0, 45, 83
1, 314832, Control_c, 0, 64, 0
1, 314853, Note_off_c, 0, 49, 68
1, 314866, Note_off_c, 0, 69, 60
1, 314876, Control_c, 0, 64, 51
1, 314881, Note_off_c, 0, 45, 61
1, 314891, Control_c, 0, 64, 65
1, 314892, Note_on_c, 0, 73, 90
1, 314903, Note_off_c, 0, 76, 63
1, 314906, Control_c, 0, 64, 74
1, 314921, Control_c, 0, 64, 89
1, 314935, Control_c, 0, 64, 127
1, 314958, Note_on_c, 0, 69, 79
1, 314981, Note_off_c, 0, 73, 63
1, 315015, Note_off_c, 0, 69, 64
1, 315030, Note_on_c, 0, 64, 80
1, 315032, Note_on_c, 0, 54, 93
1, 315038, Note_off_c, 0, 52, 62
1, 315083, Control_c, 0, 64, 121
1, 315093, Note_off_c, 0, 54, 61
1, 315098, Control_c, 0, 64, 71
1, 315113, Note_on_c, 0, 55, 98
1, 315113, Note_on_c, 0, 72, 93
1, 315113, Control_c, 0, 64, 33
1, 315119, Note_on_c, 0, 63, 90
1, 315119, Note_on_c, 0, 48, 78
1, 315123, Note_on_c, 0, 51, 86
1, 315128, Control_c, 0, 64, 0
1, 315128, Note_off_c, 0, 64, 64
1, 315143, Note_off_c, 0, 51, 69
1, 315155, Note_off_c, 0, 48, 63
1, 315158, Control_c, 0, 64, 42
1, 315169, Note_off_c, 0, 63, 62
1, 315173, Control_c, 0, 64, 68
1, 315183, Note_on_c, 0, 67, 90
1, 315184, Note_off_c, 0, 55, 66
1, 315188, Control_c, 0, 64, 92
1, 315195, Note_off_c, 0, 72, 63
1, 315202, Control_c, 0, 64, 127
1, 315241, Note_on_c, 0, 63, 86
1, 315262, Note_off_c, 0, 67, 65
1, 315277, Note_on_c, 0, 54, 86
1, 315302, Note_off_c, 0, 63, 63
1, 315308, Note_on_c, 0, 60, 91
1, 315331, Note_off_c, 0, 54, 62
1, 315350, Control_c, 0, 64, 99
1, 315351, Note_on_c, 0, 55, 83
1, 315352, Note_off_c, 0, 60, 69
1, 315365, Control_c, 0, 64, 64
1, 315381, Control_c, 0, 64, 0
1, 315414, Note_on_c, 0, 52, 88
1, 315418, Note_on_c, 0, 67, 104
1, 315423, Note_on_c, 0, 59, 94
1, 315423, Note_on_c, 0, 61, 106
1, 315433, Note_off_c, 0, 55, 55
1, 315469, Note_off_c, 0, 59, 66
1, 315498, Note_off_c, 0, 52, 63
1, 315499, Control_c, 0, 64, 65
1, 315503, Note_off_c, 0, 61, 68
1, 315508, Note_on_c, 0, 64, 91
1, 315514, Control_c, 0, 64, 127
1, 315547, Note_off_c, 0, 67, 61
1, 315591, Note_on_c, 0, 59, 84
1, 315618, Note_off_c, 0, 64, 65
1, 315657, Note_on_c, 0, 55, 86
1, 315677, Note_off_c, 0, 59, 57
1, 315701, Note_off_c, 0, 55, 65
1, 315729, Control_c, 0, 64, 73
1, 315744, Control_c, 0, 64, 0
1, 315748, Note_on_c, 0, 64, 102
1, 315754, Note_on_c, 0, 61, 93
1, 315831, Note_on_c, 0, 59, 89
1, 315832, Note_on_c, 0, 55, 85
1, 315832, Control_c, 0, 64, 62
1, 315843, Note_on_c, 0, 54, 81
1, 315844, Note_off_c, 0, 64, 66
1, 315847, Control_c, 0, 64, 88
1, 315858, Note_off_c, 0, 61, 62
1, 315862, Control_c, 0, 64, 127
1, 315869, Note_off_c, 0, 59, 68
1, 315876, Note_off_c, 0, 55, 63
1, 315919, Note_on_c, 0, 52, 82
1, 315936, Note_off_c, 0, 54, 63
1, 315960, Note_on_c, 0, 49, 84
1, 315977, Note_off_c, 0, 52, 64
1, 315980, Control_c, 0, 64, 85
1, 315995, Control_c, 0, 64, 53
1, 316001, Note_off_c, 0, 49, 67
1, 316010, Control_c, 0, 64, 0
1, 316058, Note_on_c, 0, 60, 93
1, 316059, Note_on_c, 0, 57, 91
1, 316099, Control_c, 0, 64, 57
1, 316114, Control_c, 0, 64, 70
1, 316126, Note_on_c, 0, 55, 87
1, 316129, Control_c, 0, 64, 78
1, 316129, Note_off_c, 0, 60, 69
1, 316131, Note_off_c, 0, 57, 66
1, 316132, Note_on_c, 0, 52, 82
1, 316143, Control_c, 0, 64, 91
1, 316158, Control_c, 0, 64, 109
1, 316162, Note_off_c, 0, 52, 65
1, 316164, Note_off_c, 0, 55, 66
1, 316174, Control_c, 0, 64, 127
1, 316187, Note_on_c, 0, 49, 77
1, 316233, Note_off_c, 0, 49, 66
1, 316246, Note_on_c, 0, 48, 82
1, 316295, Note_on_c, 0, 45, 84
1, 316299, Control_c, 0, 64, 70
1, 316314, Control_c, 0, 64, 0
1, 316317, Note_off_c, 0, 48, 66
1, 316332, Note_off_c, 0, 45, 68
1, 316344, Control_c, 0, 64, 30
1, 316359, Control_c, 0, 64, 58
1, 316364, Note_on_c, 0, 47, 98
1, 316366, Note_on_c, 0, 55, 89
1, 316374, Control_c, 0, 64, 77
1, 316389, Control_c, 0, 64, 127
1, 316433, Note_on_c, 0, 48, 90
1, 316434, Note_off_c, 0, 55, 56
1, 316437, Note_on_c, 0, 53, 78
1, 316443, Note_on_c, 0, 52, 58
1, 316448, Control_c, 0, 64, 69
1, 316463, Control_c, 0, 64, 0
1, 316466, Note_off_c, 0, 52, 58
1, 316466, Note_off_c, 0, 53, 65
1, 316476, Note_off_c, 0, 47, 50
1, 316481, Note_off_c, 0, 48, 67
1, 316493, Control_c, 0, 64, 38
1, 316507, Control_c, 0, 64, 61
1, 316510, Note_on_c, 0, 43, 81
1, 316522, Control_c, 0, 64, 78
1, 316537, Control_c, 0, 64, 127
1, 316565, Note_off_c, 0, 43, 63
1, 316569, Note_on_c, 0, 41, 87
1, 316579, Note_on_c, 0, 40, 76
1, 316601, Note_off_c, 0, 40, 62
1, 316606, Note_off_c, 0, 41, 66
1, 316626, Control_c, 0, 64, 94
1, 316627, Note_on_c, 0, 44, 96
1, 316630, Note_on_c, 0, 52, 97
1, 316641, Control_c, 0, 64, 75
1, 316655, Control_c, 0, 64, 75
1, 316670, Control_c, 0, 64, 94
1, 316674, Note_on_c, 0, 46, 4
1, 316685, Control_c, 0, 64, 127
1, 316693, Note_on_c, 0, 45, 92
1, 316697, Note_on_c, 0, 49, 93
1, 316713, Note_off_c, 0, 52, 62
1, 316738, Note_off_c, 0, 44, 63
1, 316743, Note_off_c, 0, 45, 65
1, 316753, Note_off_c, 0, 46, 43
1, 316762, Note_off_c, 0, 49, 61
1, 316777, Note_on_c, 0, 40, 89
1, 316806, Note_on_c, 0, 38, 44
1, 316806, Note_off_c, 0, 38, 127
1, 316830, Note_on_c, 0, 37, 102
1, 316850, Note_off_c, 0, 40, 65
1, 316857, Note_off_c, 0, 37, 67
1, 316858, Poly_aftertouch_c, 0, 38, 0
1, 316869, Note_on_c, 0, 38, 42
1, 316869, Note_off_c, 0, 38, 127
1, 316929, Note_on_c, 0, 73, 57
1, 316963, Note_off_c, 0, 73, 60
1, 317125, Note_on_c, 0, 85, 103
1, 317127, Note_on_c, 0, 73, 100
1, 317137, Note_on_c, 0, 51, 110
1, 317137, Control_c, 0, 64, 80
1, 317152, Control_c, 0, 64, 0
1, 317375, Control_c, 0, 64, 43
1, 317390, Control_c, 0, 64, 66
1, 317404, Control_c, 0, 64, 77
1, 317409, Note_off_c, 0, 73, 57
1, 317419, Control_c, 0, 64, 112
1, 317428, Note_off_c, 0, 85, 54
1, 317434, Control_c, 0, 64, 127
1, 317492, Note_off_c, 0, 51, 57
1, 317516, Note_on_c, 0, 83, 108
1, 317520, Note_on_c, 0, 52, 106
1, 317520, Note_on_c, 0, 71, 100
1, 317569, Note_off_c, 0, 52, 68
1, 317721, Note_off_c, 0, 71, 60
1, 317772, Note_off_c, 0, 83, 55
1, 317849, Note_on_c, 0, 81, 107
1, 317854, Note_on_c, 0, 54, 102
1, 317854, Note_on_c, 0, 69, 96
1, 317928, Note_off_c, 0, 54, 62
1, 317946, Note_off_c, 0, 81, 67
1, 317992, Note_off_c, 0, 69, 63
1, 318198, Note_on_c, 0, 80, 102
1, 318200, Note_on_c, 0, 67, 96
1, 318201, Note_on_c, 0, 73, 101
1, 318201, Note_on_c, 0, 79, 103
1, 318206, Note_on_c, 0, 55, 106
1, 318207, Note_on_c, 0, 49, 94
1, 318208, Note_on_c, 0, 45, 94
1, 318213, Control_c, 0, 64, 80
1, 318228, Control_c, 0, 64, 33
1, 318243, Control_c, 0, 64, 0
1, 318273, Note_on_c, 0, 78, 2
1, 318273, Note_off_c, 0, 78, 127
1, 318295, Note_off_c, 0, 79, 66
1, 318361, Control_c, 0, 64, 52
1, 318376, Control_c, 0, 64, 69
1, 318386, Note_off_c, 0, 45, 64
1, 318391, Control_c, 0, 64, 78
1, 318392, Note_off_c, 0, 55, 65
1, 318406, Control_c, 0, 64, 96
1, 318410, Note_off_c, 0, 67, 58
1, 318420, Control_c, 0, 64, 127
1, 318507, Note_off_c, 0, 49, 34
1, 318547, Note_on_c, 0, 65, 90
1, 318550, Note_on_c, 0, 76, 80
1, 318552, Note_on_c, 0, 56, 107
1, 318556, Note_on_c, 0, 77, 78
1, 318558, Note_on_c, 0, 48, 80
1, 318564, Note_on_c, 0, 44, 92
1, 318577, Note_off_c, 0, 73, 36
1, 318592, Control_c, 0, 64, 85
1, 318607, Control_c, 0, 64, 52
1, 318622, Control_c, 0, 64, 0
1, 318666, Control_c, 0, 64, 32
1, 318681, Control_c, 0, 64, 61
1, 318695, Control_c, 0, 64, 72
1, 318710, Control_c, 0, 64, 84
1, 318725, Control_c, 0, 64, 115
1, 318740, Control_c, 0, 64, 127
1, 318844, Note_off_c, 0, 56, 59
1, 318893, Note_on_c, 0, 57, 104
1, 318926, Note_off_c, 0, 65, 55
1, 318931, Note_off_c, 0, 44, 65
1, 318932, Note_off_c, 0, 48, 61
1, 318997, Note_off_c, 0, 80, 56
1, 319012, Note_off_c, 0, 77, 59
1, 319029, Note_off_c, 0, 76, 62
1, 319173, Note_off_c, 0, 57, 59
1, 319208, Note_on_c, 0, 58, 101
1, 319211, Note_on_c, 0, 55, 92
1, 319227, Control_c, 0, 64, 77
1, 319242, Control_c, 0, 64, 38
1, 319257, Control_c, 0, 64, 0
1, 319294, Control_c, 0, 64, 40
1, 319309, Control_c, 0, 64, 63
1, 319324, Control_c, 0, 64, 74
1, 319339, Control_c, 0, 64, 86
1, 319354, Control_c, 0, 64, 110
1, 319370, Control_c, 0, 64, 127
1, 319504, Note_off_c, 0, 55, 58
1, 319532, Note_off_c, 0, 58, 59
1, 319562, Control_c, 0, 64, 88
1, 319577, Control_c, 0, 64, 52
1, 319579, Note_on_c, 0, 61, 105
1, 319581, Note_on_c, 0, 54, 86
1, 319583, Note_on_c, 0, 57, 91
1, 319591, Control_c, 0, 64, 0
1, 319739, Control_c, 0, 64, 67
1, 319741, Note_off_c, 0, 61, 63
1, 319749, Note_off_c, 0, 54, 64
1, 319754, Control_c, 0, 64, 78
1, 319756, Note_off_c, 0, 57, 64
1, 319769, Control_c, 0, 64, 98
1, 319784, Control_c, 0, 64, 127
1, 319926, Note_on_c, 0, 85, 106
1, 319931, Note_on_c, 0, 73, 94
1, 319944, Note_on_c, 0, 51, 86
1, 319947, Control_c, 0, 64, 82
1, 319962, Control_c, 0, 64, 55
1, 319977, Control_c, 0, 64, 0
1, 320073, Control_c, 0, 64, 50
1, 320088, Control_c, 0, 64, 80
1, 320103, Control_c, 0, 64, 127
1, 320131, Note_off_c, 0, 73, 62
1, 320149, Note_off_c, 0, 85, 63
1, 320276, Note_on_c, 0, 83, 102
1, 320280, Note_on_c, 0, 71, 93
1, 320283, Note_off_c, 0, 51, 56
1, 320284, Note_on_c, 0, 56, 87
1, 320312, Control_c, 0, 64, 88
1, 320327, Control_c, 0, 64, 71
1, 320341, Control_c, 0, 64, 63
1, 320356, Control_c, 0, 64, 65
1, 320371, Control_c, 0, 64, 72
1, 320386, Control_c, 0, 64, 89
1, 320401, Control_c, 0, 64, 127
1, 320443, Note_off_c, 0, 56, 62
1, 320507, Note_off_c, 0, 71, 63
1, 320528, Note_off_c, 0, 83, 61
1, 320604, Note_on_c, 0, 81, 111
1, 320605, Note_on_c, 0, 69, 96
1, 320627, Note_on_c, 0, 54, 98
1, 320678, Note_off_c, 0, 54, 61
1, 320701, Note_off_c, 0, 81, 66
1, 320753, Note_off_c, 0, 69, 60
1, 320941, Control_c, 0, 64, 97
1, 320944, Note_on_c, 0, 80, 100
1, 320946, Note_on_c, 0, 67, 97
1, 320948, Note_on_c, 0, 79, 97
1, 320950, Note_on_c, 0, 73, 94
1, 320952, Note_on_c, 0, 55, 106
1, 320954, Note_on_c, 0, 49, 97
1, 320956, Control_c, 0, 64, 61
1, 320957, Note_on_c, 0, 45, 86
1, 320971, Control_c, 0, 64, 0
1, 321054, Note_off_c, 0, 79, 63
1, 321090, Control_c, 0, 64, 40
1, 321105, Control_c, 0, 64, 73
1, 321120, Control_c, 0, 64, 95
1, 321134, Control_c, 0, 64, 127
1, 321139, Note_off_c, 0, 45, 63
1, 321151, Note_off_c, 0, 55, 64
1, 321154, Note_off_c, 0, 67, 63
1, 321200, Note_off_c, 0, 49, 60
1, 321260, Note_off_c, 0, 73, 60
1, 321300, Note_on_c, 0, 77, 76
1, 321301, Note_on_c, 0, 76, 81
1, 321301, Note_on_c, 0, 65, 92
1, 321302, Note_on_c, 0, 56, 104
1, 321307, Note_on_c, 0, 48, 81
1, 321312, Note_on_c, 0, 44, 82
1, 321327, Control_c, 0, 64, 90
1, 321342, Control_c, 0, 64, 58
1, 321357, Control_c, 0, 64, 0
1, 321401, Control_c, 0, 64, 35
1, 321415, Control_c, 0, 64, 62
1, 321430, Control_c, 0, 64, 78
1, 321445, Control_c, 0, 64, 109
1, 321460, Control_c, 0, 64, 127
1, 321589, Note_off_c, 0, 56, 59
1, 321615, Control_c, 0, 64, 89
1, 321630, Control_c, 0, 64, 64
1, 321640, Note_on_c, 0, 57, 102
1, 321645, Control_c, 0, 64, 36
1, 321660, Control_c, 0, 64, 45
1, 321675, Control_c, 0, 64, 60
1, 321689, Control_c, 0, 64, 71
1, 321704, Control_c, 0, 64, 91
1, 321719, Control_c, 0, 64, 127
1, 321741, Note_off_c, 0, 44, 64
1, 321745, Note_off_c, 0, 48, 62
1, 321775, Note_off_c, 0, 65, 55
1, 321829, Note_off_c, 0, 80, 53
1, 321847, Note_off_c, 0, 77, 59
1, 321859, Note_off_c, 0, 76, 61
1, 321924, Note_off_c, 0, 57, 60
1, 321969, Note_on_c, 0, 58, 99
1, 321973, Note_on_c, 0, 55, 94
1, 321987, Control_c, 0, 64, 96
1, 322002, Control_c, 0, 64, 62
1, 322017, Control_c, 0, 64, 0
1, 322076, Control_c, 0, 64, 55
1, 322091, Control_c, 0, 64, 74
1, 322106, Control_c, 0, 64, 95
1, 322120, Control_c, 0, 64, 127
1, 322195, Note_off_c, 0, 55, 57
1, 322246, Note_off_c, 0, 58, 59
1, 322253, Control_c, 0, 64, 82
1, 322268, Control_c, 0, 64, 53
1, 322291, Control_c, 0, 64, 0
1, 322310, Note_on_c, 0, 61, 101
1, 322312, Note_on_c, 0, 54, 99
1, 322318, Note_on_c, 0, 57, 99
1, 322365, Control_c, 0, 64, 66
1, 322380, Control_c, 0, 64, 127
1, 322387, Note_off_c, 0, 61, 65
1, 322395, Note_off_c, 0, 57, 68
1, 322417, Note_off_c, 0, 54, 64
1, 322573, Control_c, 0, 64, 116
1, 322588, Control_c, 0, 64, 77
1, 322603, Control_c, 0, 64, 56
1, 322617, Control_c, 0, 64, 0
1, 322658, Note_on_c, 0, 32, 93
1, 322664, Note_on_c, 0, 44, 115
1, 322691, Control_c, 0, 64, 46
1, 322706, Control_c, 0, 64, 68
1, 322719, Note_off_c, 0, 44, 66
1, 322721, Control_c, 0, 64, 88
1, 322728, Note_off_c, 0, 32, 63
1, 322735, Control_c, 0, 64, 127
1, 322973, Control_c, 0, 64, 99
1, 322987, Control_c, 0, 64, 72
1, 322997, Note_on_c, 0, 57, 99
1, 322997, Note_on_c, 0, 61, 105
1, 323000, Note_on_c, 0, 54, 106
1, 323002, Control_c, 0, 64, 49
1, 323006, Note_on_c, 0, 56, 99
1, 323017, Control_c, 0, 64, 0
1, 323039, Control_c, 0, 64, 35
1, 323054, Control_c, 0, 64, 60
1, 323068, Note_off_c, 0, 56, 59
1, 323069, Control_c, 0, 64, 76
1, 323084, Control_c, 0, 64, 115
1, 323099, Control_c, 0, 64, 127
1, 323111, Note_off_c, 0, 61, 62
1, 323114, Note_off_c, 0, 57, 65
1, 323138, Note_off_c, 0, 54, 62
1, 323276, Control_c, 0, 64, 105
1, 323291, Control_c, 0, 64, 77
1, 323306, Control_c, 0, 64, 62
1, 323321, Control_c, 0, 64, 51
1, 323335, Control_c, 0, 64, 54
1, 323349, Note_on_c, 0, 32, 98
1, 323349, Note_on_c, 0, 44, 114
1, 323350, Control_c, 0, 64, 64
1, 323366, Control_c, 0, 64, 76
1, 323381, Control_c, 0, 64, 108
1, 323393, Note_off_c, 0, 32, 63
1, 323396, Control_c, 0, 64, 127
1, 323397, Note_off_c, 0, 44, 65
1, 323632, Control_c, 0, 64, 82
1, 323647, Control_c, 0, 64, 62
1, 323662, Control_c, 0, 64, 0
1, 323687, Note_on_c, 0, 61, 101
1, 323689, Note_on_c, 0, 57, 100
1, 323689, Note_on_c, 0, 53, 99
1, 323692, Note_on_c, 0, 56, 102
1, 323752, Control_c, 0, 64, 52
1, 323766, Control_c, 0, 64, 71
1, 323784, Note_off_c, 0, 56, 56
1, 323788, Control_c, 0, 64, 88
1, 323803, Control_c, 0, 64, 127
1, 323829, Note_off_c, 0, 53, 63
1, 323843, Note_off_c, 0, 61, 64
1, 323844, Note_off_c, 0, 57, 67
1, 323981, Control_c, 0, 64, 96
1, 323996, Control_c, 0, 64, 73
1, 324009, Control_c, 0, 64, 61
1, 324024, Control_c, 0, 64, 58
1, 324039, Control_c, 0, 64, 64
1, 324041, Note_on_c, 0, 32, 96
1, 324047, Note_on_c, 0, 44, 117
1, 324054, Control_c, 0, 64, 71
1, 324069, Control_c, 0, 64, 85
1, 324081, Note_off_c, 0, 32, 65
1, 324081, Note_off_c, 0, 44, 69
1, 324083, Control_c, 0, 64, 127
1, 324351, Control_c, 0, 64, 95
1, 324366, Control_c, 0, 64, 68
1, 324377, Note_on_c, 0, 57, 103
1, 324377, Note_on_c, 0, 61, 99
1, 324379, Note_on_c, 0, 53, 98
1, 324381, Control_c, 0, 64, 37
1, 324386, Note_on_c, 0, 56, 99
1, 324396, Control_c, 0, 64, 0
1, 324425, Control_c, 0, 64, 50
1, 324440, Control_c, 0, 64, 68
1, 324455, Control_c, 0, 64, 84
1, 324470, Control_c, 0, 64, 127
1, 324500, Note_off_c, 0, 56, 54
1, 324518, Note_off_c, 0, 53, 62
1, 324542, Note_off_c, 0, 57, 67
1, 324543, Note_off_c, 0, 61, 64
1, 324655, Control_c, 0, 64, 108
1, 324670, Control_c, 0, 64, 75
1, 324685, Control_c, 0, 64, 56
1, 324700, Control_c, 0, 64, 0
1, 324724, Note_on_c, 0, 32, 96
1, 324728, Note_on_c, 0, 44, 104
1, 324744, Control_c, 0, 64, 51
1, 324758, Control_c, 0, 64, 70
1, 324773, Control_c, 0, 64, 97
1, 324776, Note_off_c, 0, 32, 64
1, 324786, Note_off_c, 0, 44, 65
1, 324788, Control_c, 0, 64, 127
1, 324997, Control_c, 0, 64, 90
1, 325011, Control_c, 0, 64, 69
1, 325026, Control_c, 0, 64, 41
1, 325041, Control_c, 0, 64, 0
1, 325067, Note_on_c, 0, 61, 105
1, 325070, Note_on_c, 0, 52, 102
1, 325071, Note_on_c, 0, 57, 101
1, 325080, Note_on_c, 0, 56, 101
1, 325144, Control_c, 0, 64, 46
1, 325147, Note_on_c, 0, 53, 8
1, 325147, Note_off_c, 0, 53, 127
1, 325159, Control_c, 0, 64, 70
1, 325168, Note_off_c, 0, 56, 54
1, 325174, Control_c, 0, 64, 82
1, 325188, Control_c, 0, 64, 127
1, 325206, Note_off_c, 0, 52, 62
1, 325225, Note_off_c, 0, 57, 67
1, 325227, Note_off_c, 0, 61, 61
1, 325438, Note_on_c, 0, 48, 113
1, 325448, Control_c, 0, 64, 101
1, 325453, Note_on_c, 0, 32, 81
1, 325463, Control_c, 0, 64, 82
1, 325478, Control_c, 0, 64, 67
1, 325492, Control_c, 0, 64, 52
1, 325507, Control_c, 0, 64, 0
1, 325611, Control_c, 0, 64, 63
1, 325626, Control_c, 0, 64, 84
1, 325641, Control_c, 0, 64, 127
1, 325659, Note_off_c, 0, 48, 63
1, 325784, Note_on_c, 0, 45, 113
1, 325790, Control_c, 0, 64, 85
1, 325804, Control_c, 0, 64, 62
1, 325819, Control_c, 0, 64, 0
1, 325878, Control_c, 0, 64, 40
1, 325893, Control_c, 0, 64, 61
1, 325908, Control_c, 0, 64, 73
1, 325923, Control_c, 0, 64, 108
1, 325938, Control_c, 0, 64, 127
1, 325956, Note_off_c, 0, 32, 60
1, 326004, Note_off_c, 0, 45, 64
1, 326138, Control_c, 0, 64, 92
1, 326139, Note_on_c, 0, 41, 118
1, 326153, Control_c, 0, 64, 67
1, 326167, Control_c, 0, 64, 51
1, 326182, Control_c, 0, 64, 50
1, 326197, Control_c, 0, 64, 60
1, 326211, Control_c, 0, 64, 68
1, 326226, Control_c, 0, 64, 83
1, 326241, Control_c, 0, 64, 111
1, 326256, Control_c, 0, 64, 127
1, 326423, Note_off_c, 0, 41, 61
1, 326493, Control_c, 0, 64, 87
1, 326497, Note_on_c, 0, 38, 111
1, 326508, Control_c, 0, 64, 60
1, 326522, Control_c, 0, 64, 0
1, 326598, Control_c, 0, 64, 50
1, 326613, Control_c, 0, 64, 71
1, 326627, Control_c, 0, 64, 87
1, 326642, Control_c, 0, 64, 127
1, 326691, Note_off_c, 0, 38, 66
1, 326765, Note_on_c, 0, 37, 87
1, 326813, Note_off_c, 0, 37, 65
1, 326830, Note_on_c, 0, 36, 96
1, 326857, Control_c, 0, 64, 94
1, 326872, Control_c, 0, 64, 64
1, 326879, Note_on_c, 0, 35, 108
1, 326887, Control_c, 0, 64, 0
1, 326892, Note_off_c, 0, 36, 62
1, 326931, Control_c, 0, 64, 59
1, 326946, Control_c, 0, 64, 79
1, 326960, Control_c, 0, 64, 127
1, 327034, Note_off_c, 0, 35, 63
1, 327166, Note_on_c, 0, 34, 88
1, 327211, Note_off_c, 0, 34, 65
1, 327223, Note_on_c, 0, 33, 93
1, 327281, Note_off_c, 0, 33, 65
1, 327306, Note_on_c, 0, 32, 108
1, 327391, Control_c, 0, 64, 84
1, 327406, Control_c, 0, 64, 52
1, 327421, Control_c, 0, 64, 0
1, 328122, Note_on_c, 0, 80, 101
1, 328125, Control_c, 0, 64, 43
1, 328140, Control_c, 0, 64, 70
1, 328155, Control_c, 0, 64, 92
1, 328161, Note_off_c, 0, 80, 71
1, 328162, Note_on_c, 0, 82, 41
1, 328170, Control_c, 0, 64, 127
1, 328190, Note_off_c, 0, 82, 58
1, 328486, Note_on_c, 0, 80, 106
1, 328588, Note_off_c, 0, 80, 68
1, 328831, Note_on_c, 0, 82, 102
1, 328879, Note_off_c, 0, 32, 57
1, 328928, Note_off_c, 0, 82, 64
1, 329189, Note_on_c, 0, 80, 98
1, 329311, Note_off_c, 0, 80, 48
1, 329538, Note_on_c, 0, 79, 100
1, 329542, Note_on_c, 0, 56, 105
1, 329576, Note_off_c, 0, 56, 69
1, 329662, Note_off_c, 0, 79, 62
1, 329914, Note_on_c, 0, 78, 101
1, 329994, Note_off_c, 0, 78, 65
1, 330265, Note_on_c, 0, 66, 96
1, 330434, Note_off_c, 0, 66, 59
1, 330638, Note_on_c, 0, 68, 99
1, 330638, Note_on_c, 0, 58, 102
1, 330704, Note_off_c, 0, 68, 67
1, 330867, Note_off_c, 0, 58, 58
1, 330995, Note_on_c, 0, 59, 96
1, 330996, Note_on_c, 0, 69, 101
1, 330999, Note_on_c, 0, 50, 87
1, 331000, Note_on_c, 0, 53, 92
1, 331031, Control_c, 0, 64, 82
1, 331046, Control_c, 0, 64, 62
1, 331061, Control_c, 0, 64, 0
1, 331224, Control_c, 0, 64, 47
1, 331239, Control_c, 0, 64, 65
1, 331253, Control_c, 0, 64, 66
1, 331269, Note_off_c, 0, 69, 64
1, 331275, Control_c, 0, 64, 67
1, 331290, Control_c, 0, 64, 69
1, 331305, Control_c, 0, 64, 74
1, 331320, Control_c, 0, 64, 80
1, 331335, Control_c, 0, 64, 82
1, 331365, Control_c, 0, 64, 78
1, 331368, Note_on_c, 0, 69, 103
1, 331380, Control_c, 0, 64, 71
1, 331395, Control_c, 0, 64, 65
1, 331424, Control_c, 0, 64, 68
1, 331439, Control_c, 0, 64, 72
1, 331454, Control_c, 0, 64, 77
1, 331469, Control_c, 0, 64, 81
1, 331484, Control_c, 0, 64, 85
1, 331499, Control_c, 0, 64, 91
1, 331514, Control_c, 0, 64, 104
1, 331529, Control_c, 0, 64, 127
1, 331550, Note_off_c, 0, 69, 65
1, 331721, Control_c, 0, 64, 116
1, 331732, Note_on_c, 0, 71, 99
1, 331780, Control_c, 0, 64, 122
1, 331795, Control_c, 0, 64, 127
1, 331880, Note_off_c, 0, 53, 59
1, 331898, Note_off_c, 0, 71, 67
1, 332079, Note_on_c, 0, 69, 97
1, 332080, Note_on_c, 0, 54, 90
1, 332083, Control_c, 0, 64, 92
1, 332098, Control_c, 0, 64, 72
1, 332113, Control_c, 0, 64, 60
1, 332128, Control_c, 0, 64, 56
1, 332144, Control_c, 0, 64, 60
1, 332159, Control_c, 0, 64, 64
1, 332173, Control_c, 0, 64, 69
1, 332188, Control_c, 0, 64, 76
1, 332203, Control_c, 0, 64, 88
1, 332218, Control_c, 0, 64, 103
1, 332233, Control_c, 0, 64, 127
1, 332247, Note_off_c, 0, 69, 65
1, 332283, Note_off_c, 0, 54, 62
1, 332444, Note_on_c, 0, 68, 101
1, 332446, Note_on_c, 0, 54, 86
1, 332455, Control_c, 0, 64, 90
1, 332470, Control_c, 0, 64, 68
1, 332485, Control_c, 0, 64, 50
1, 332499, Control_c, 0, 64, 0
1, 332529, Control_c, 0, 64, 44
1, 332544, Control_c, 0, 64, 59
1, 332559, Control_c, 0, 64, 67
1, 332573, Control_c, 0, 64, 73
1, 332588, Control_c, 0, 64, 81
1, 332603, Control_c, 0, 64, 91
1, 332618, Control_c, 0, 64, 107
1, 332633, Control_c, 0, 64, 127
1, 332656, Note_off_c, 0, 68, 65
1, 332788, Control_c, 0, 64, 92
1, 332803, Control_c, 0, 64, 68
1, 332811, Note_on_c, 0, 66, 97
1, 332818, Control_c, 0, 64, 59
1, 332833, Control_c, 0, 64, 60
1, 332847, Control_c, 0, 64, 64
1, 332862, Control_c, 0, 64, 71
1, 332877, Control_c, 0, 64, 80
1, 332892, Control_c, 0, 64, 92
1, 332906, Control_c, 0, 64, 115
1, 332921, Control_c, 0, 64, 127
1, 332966, Note_off_c, 0, 66, 59
1, 333014, Note_off_c, 0, 54, 62
1, 333170, Note_on_c, 0, 54, 95
1, 333171, Note_on_c, 0, 56, 82
1, 333192, Note_off_c, 0, 59, 52
1, 333220, Note_off_c, 0, 56, 63
1, 333233, Note_off_c, 0, 50, 60
1, 333457, Note_off_c, 0, 54, 52
1, 333521, Note_on_c, 0, 30, 90
1, 333529, Note_on_c, 0, 56, 100
1, 333625, Note_off_c, 0, 56, 60
1, 333696, Note_on_c, 0, 57, 102
1, 333747, Note_off_c, 0, 57, 66
1, 333805, Control_c, 0, 64, 75
1, 333815, Note_off_c, 0, 30, 57
1, 333819, Control_c, 0, 64, 47
1, 333834, Control_c, 0, 64, 0
1, 333863, Note_on_c, 0, 29, 101
1, 333868, Note_on_c, 0, 81, 106
1, 333916, Note_off_c, 0, 29, 66
1, 333923, Control_c, 0, 64, 58
1, 333937, Control_c, 0, 64, 88
1, 333952, Control_c, 0, 64, 127
1, 334030, Note_on_c, 0, 38, 68
1, 334071, Note_on_c, 0, 45, 82
1, 334077, Note_off_c, 0, 81, 55
1, 334100, Note_off_c, 0, 38, 62
1, 334115, Note_on_c, 0, 50, 81
1, 334119, Note_off_c, 0, 45, 65
1, 334139, Note_off_c, 0, 50, 69
1, 334191, Note_on_c, 0, 53, 65
1, 334191, Note_off_c, 0, 53, 127
1, 334205, Note_on_c, 0, 81, 108
1, 334212, Note_on_c, 0, 57, 107
1, 334218, Note_on_c, 0, 55, 63
1, 334239, Note_off_c, 0, 55, 62
1, 334247, Note_off_c, 0, 57, 70
1, 334268, Note_off_c, 0, 81, 68
1, 334573, Note_on_c, 0, 83, 105
1, 334575, Note_on_c, 0, 56, 102
1, 334608, Note_off_c, 0, 56, 70
1, 334730, Note_off_c, 0, 83, 64
1, 334924, Note_on_c, 0, 81, 112
1, 334930, Note_on_c, 0, 57, 98
1, 334930, Note_on_c, 0, 62, 90
1, 334934, Note_on_c, 0, 53, 80
1, 334971, Note_off_c, 0, 57, 66
1, 334975, Note_off_c, 0, 62, 65
1, 334986, Note_off_c, 0, 53, 61
1, 335091, Note_off_c, 0, 81, 66
1, 335287, Note_on_c, 0, 80, 105
1, 335294, Note_on_c, 0, 63, 96
1, 335294, Note_on_c, 0, 54, 89
1, 335295, Note_on_c, 0, 59, 88
1, 335301, Control_c, 0, 64, 96
1, 335316, Control_c, 0, 64, 73
1, 335331, Control_c, 0, 64, 64
1, 335347, Control_c, 0, 64, 65
1, 335362, Control_c, 0, 64, 70
1, 335377, Control_c, 0, 64, 80
1, 335391, Control_c, 0, 64, 111
1, 335406, Control_c, 0, 64, 127
1, 335429, Note_off_c, 0, 80, 67
1, 335477, Note_off_c, 0, 54, 61
1, 335638, Note_on_c, 0, 79, 106
1, 335639, Note_on_c, 0, 55, 92
1, 335642, Control_c, 0, 64, 117
1, 335657, Note_off_c, 0, 59, 62
1, 335657, Control_c, 0, 64, 105
1, 335675, Note_off_c, 0, 63, 63
1, 335687, Control_c, 0, 64, 107
1, 335702, Control_c, 0, 64, 117
1, 335717, Control_c, 0, 64, 127
1, 335770, Note_off_c, 0, 79, 69
1, 335961, Control_c, 0, 64, 99
1, 335976, Control_c, 0, 64, 84
1, 335991, Control_c, 0, 64, 82
1, 335997, Note_on_c, 0, 67, 104
1, 336000, Note_on_c, 0, 59, 76
1, 336001, Note_on_c, 0, 63, 78
1, 336006, Control_c, 0, 64, 84
1, 336021, Control_c, 0, 64, 92
1, 336036, Control_c, 0, 64, 107
1, 336051, Control_c, 0, 64, 127
1, 336128, Note_off_c, 0, 59, 54
1, 336142, Note_off_c, 0, 63, 61
1, 336220, Note_off_c, 0, 67, 57
1, 336342, Note_off_c, 0, 55, 0
1, 336349, Note_on_c, 0, 69, 100
1, 336353, Note_on_c, 0, 64, 83
1, 336354, Note_on_c, 0, 60, 86
1, 336360, Note_on_c, 0, 55, 50
1, 336374, Note_off_c, 0, 64, 70
1, 336380, Note_off_c, 0, 60, 69
1, 336401, Note_off_c, 0, 55, 64
1, 336484, Note_off_c, 0, 69, 56
1, 336722, Note_on_c, 0, 62, 66
1, 336723, Note_on_c, 0, 70, 104
1, 336725, Note_on_c, 0, 57, 101
1, 336726, Control_c, 0, 64, 76
1, 336728, Note_on_c, 0, 69, 91
1, 336732, Note_on_c, 0, 28, 94
1, 336732, Note_on_c, 0, 40, 101
1, 336740, Control_c, 0, 64, 0
1, 336928, Note_off_c, 0, 70, 56
1, 336963, Control_c, 0, 64, 38
1, 336978, Control_c, 0, 64, 64
1, 336993, Control_c, 0, 64, 74
1, 337008, Control_c, 0, 64, 88
1, 337010, Note_off_c, 0, 28, 62
1, 337023, Control_c, 0, 64, 108
1, 337035, Note_off_c, 0, 40, 60
1, 337038, Control_c, 0, 64, 127
1, 337097, Note_on_c, 0, 70, 102
1, 337112, Note_off_c, 0, 57, 42
1, 337119, Note_off_c, 0, 62, 54
1, 337130, Note_off_c, 0, 69, 58
1, 337148, Note_off_c, 0, 70, 71
1, 337394, Note_on_c, 0, 56, 98
1, 337434, Note_off_c, 0, 56, 62
1, 337476, Note_on_c, 0, 56, 95
1, 337479, Note_on_c, 0, 72, 100
1, 337519, Note_off_c, 0, 56, 61
1, 337523, Note_off_c, 0, 72, 69
1, 337832, Note_on_c, 0, 70, 103
1, 337837, Note_on_c, 0, 57, 90
1, 337932, Note_off_c, 0, 70, 64
1, 338197, Note_on_c, 0, 69, 98
1, 338203, Note_on_c, 0, 62, 92
1, 338204, Note_on_c, 0, 64, 87
1, 338205, Note_on_c, 0, 58, 90
1, 338207, Note_off_c, 0, 57, 64
1, 338208, Control_c, 0, 64, 84
1, 338223, Control_c, 0, 64, 70
1, 338237, Control_c, 0, 64, 67
1, 338252, Control_c, 0, 64, 71
1, 338267, Control_c, 0, 64, 81
1, 338273, Note_off_c, 0, 58, 67
1, 338282, Control_c, 0, 64, 112
1, 338297, Control_c, 0, 64, 127
1, 338428, Note_off_c, 0, 69, 58
1, 338524, Note_off_c, 0, 62, 60
1, 338569, Note_on_c, 0, 68, 107
1, 338582, Note_off_c, 0, 64, 64
1, 338674, Note_off_c, 0, 68, 65
1, 338956, Note_on_c, 0, 54, 101
1, 338957, Note_on_c, 0, 27, 108
1, 338957, Note_on_c, 0, 39, 105
1, 338972, Control_c, 0, 64, 84
1, 338986, Control_c, 0, 64, 49
1, 339001, Control_c, 0, 64, 0
1, 339090, Control_c, 0, 64, 53
1, 339105, Control_c, 0, 64, 67
1, 339120, Control_c, 0, 64, 76
1, 339134, Control_c, 0, 64, 92
1, 339149, Control_c, 0, 64, 127
1, 339231, Note_off_c, 0, 54, 59
1, 339243, Note_off_c, 0, 39, 59
1, 339267, Note_off_c, 0, 27, 54
1, 339349, Note_on_c, 0, 56, 106
1, 339446, Note_off_c, 0, 56, 55
1, 339461, Control_c, 0, 64, 84
1, 339476, Control_c, 0, 64, 0
1, 339521, Note_on_c, 0, 57, 99
1, 339524, Note_on_c, 0, 26, 100
1, 339524, Note_on_c, 0, 38, 106
1, 339583, Note_off_c, 0, 57, 67
1, 339601, Note_off_c, 0, 26, 63
1, 339602, Control_c, 0, 64, 32
1, 339616, Control_c, 0, 64, 76
1, 339618, Note_off_c, 0, 38, 67
1, 339631, Control_c, 0, 64, 127
1, 339920, Note_on_c, 0, 86, 110
1, 339927, Note_on_c, 0, 62, 115
1, 340129, Note_off_c, 0, 62, 69
1, 340209, Note_off_c, 0, 86, 60
1, 340331, Note_on_c, 0, 86, 112
1, 340602, Note_off_c, 0, 86, 32
1, 340604, Note_on_c, 0, 88, 84
1, 340645, Note_off_c, 0, 88, 65
1, 340657, Note_on_c, 0, 90, 92
1, 340710, Note_on_c, 0, 88, 102
1, 340715, Note_on_c, 0, 62, 118
1, 340728, Note_on_c, 0, 60, 78
1, 340728, Note_off_c, 0, 60, 127
1, 340747, Note_off_c, 0, 90, 65
1, 340796, Note_on_c, 0, 60, 18
1, 340796, Note_off_c, 0, 60, 127
1, 340840, Note_off_c, 0, 62, 64
1, 340911, Note_off_c, 0, 88, 66
1, 341107, Note_on_c, 0, 86, 111
1, 341267, Note_off_c, 0, 86, 57
1, 341476, Note_on_c, 0, 85, 104
1, 341480, Note_on_c, 0, 64, 111
1, 341522, Note_off_c, 0, 64, 73
1, 341798, Note_off_c, 0, 85, 58
1, 341864, Note_on_c, 0, 84, 107
1, 342007, Note_off_c, 0, 84, 69
1, 342242, Note_on_c, 0, 72, 102
1, 342245, Note_on_c, 0, 62, 114
1, 342300, Note_off_c, 0, 62, 69
1, 342521, Note_off_c, 0, 72, 59
1, 342619, Note_on_c, 0, 74, 111
1, 342766, Note_off_c, 0, 74, 66
1, 342983, Note_on_c, 0, 44, 99
1, 342983, Note_on_c, 0, 75, 103
1, 342986, Note_on_c, 0, 53, 99
1, 342987, Note_on_c, 0, 47, 92
1, 342997, Control_c, 0, 64, 92
1, 343012, Control_c, 0, 64, 58
1, 343026, Control_c, 0, 64, 0
1, 343219, Control_c, 0, 64, 43
1, 343234, Control_c, 0, 64, 62
1, 343256, Control_c, 0, 64, 63
1, 343265, Note_off_c, 0, 75, 58
1, 343271, Control_c, 0, 64, 65
1, 343286, Control_c, 0, 64, 69
1, 343300, Control_c, 0, 64, 75
1, 343315, Control_c, 0, 64, 79
1, 343331, Control_c, 0, 64, 79
1, 343358, Note_on_c, 0, 75, 99
1, 343375, Control_c, 0, 64, 85
1, 343390, Control_c, 0, 64, 98
1, 343405, Control_c, 0, 64, 127
1, 343543, Note_off_c, 0, 75, 65
1, 343593, Note_off_c, 0, 47, 56
1, 343616, Note_off_c, 0, 44, 59
1, 343714, Note_on_c, 0, 77, 95
1, 343750, Note_off_c, 0, 53, 54
1, 343756, Note_on_c, 0, 47, 60
1, 343807, Note_on_c, 0, 49, 64
1, 343840, Note_on_c, 0, 51, 74
1, 343843, Note_off_c, 0, 47, 62
1, 343856, Note_off_c, 0, 49, 62
1, 343875, Note_on_c, 0, 53, 67
1, 343877, Note_off_c, 0, 51, 63
1, 343926, Note_off_c, 0, 53, 60
1, 343945, Note_on_c, 0, 56, 83
1, 343946, Note_on_c, 0, 54, 68
1, 343989, Note_on_c, 0, 58, 86
1, 343992, Note_off_c, 0, 54, 61
1, 344007, Note_off_c, 0, 56, 63
1, 344037, Note_off_c, 0, 58, 68
1, 344046, Note_on_c, 0, 59, 95
1, 344049, Note_on_c, 0, 75, 105
1, 344072, Note_off_c, 0, 77, 65
1, 344098, Note_off_c, 0, 59, 69
1, 344149, Note_off_c, 0, 75, 67
1, 344415, Note_on_c, 0, 74, 102
1, 344415, Note_on_c, 0, 60, 106
1, 344453, Note_off_c, 0, 60, 72
1, 344673, Note_off_c, 0, 74, 60
1, 344794, Note_on_c, 0, 72, 105
1, 344950, Note_off_c, 0, 72, 67
1, 345166, Note_on_c, 0, 62, 91
1, 345168, Note_on_c, 0, 60, 103
1, 345215, Note_off_c, 0, 62, 69
1, 345408, Note_off_c, 0, 60, 56
1, 345516, Note_on_c, 0, 62, 102
1, 345527, Note_on_c, 0, 36, 88
1, 345557, Note_off_c, 0, 62, 69
1, 345681, Note_off_c, 0, 36, 61
1, 345685, Note_on_c, 0, 75, 97
1, 345691, Note_on_c, 0, 63, 93
1, 345695, Control_c, 0, 64, 82
1, 345710, Control_c, 0, 64, 0
1, 345713, Note_on_c, 0, 35, 84
1, 345764, Note_on_c, 0, 39, 65
1, 345792, Note_on_c, 0, 44, 77
1, 345800, Note_off_c, 0, 63, 63
1, 345828, Note_off_c, 0, 75, 66
1, 345852, Note_on_c, 0, 51, 91
1, 345866, Note_off_c, 0, 39, 62
1, 345875, Control_c, 0, 64, 48
1, 345881, Note_off_c, 0, 44, 65
1, 345888, Note_on_c, 0, 49, 38
1, 345888, Note_off_c, 0, 49, 127
1, 345890, Control_c, 0, 64, 64
1, 345903, Note_off_c, 0, 35, 62
1, 345904, Control_c, 0, 64, 72
1, 345918, Note_on_c, 0, 87, 113
1, 345919, Control_c, 0, 64, 88
1, 345934, Control_c, 0, 64, 127
1, 345935, Note_off_c, 0, 51, 65
1, 346099, Note_on_c, 0, 56, 53
1, 346117, Note_off_c, 0, 87, 59
1, 346131, Note_on_c, 0, 63, 80
1, 346161, Note_on_c, 0, 65, 79
1, 346187, Note_off_c, 0, 56, 58
1, 346201, Note_off_c, 0, 63, 52
1, 346201, Note_on_c, 0, 71, 86
1, 346228, Note_off_c, 0, 65, 61
1, 346257, Note_on_c, 0, 87, 104
1, 346258, Note_off_c, 0, 71, 66
1, 346261, Note_on_c, 0, 75, 95
1, 346388, Note_off_c, 0, 75, 62
1, 346588, Note_off_c, 0, 87, 62
1, 346620, Note_on_c, 0, 89, 101
1, 346638, Note_on_c, 0, 77, 94
1, 346864, Note_off_c, 0, 77, 60
1, 346939, Note_off_c, 0, 89, 59
1, 346978, Note_on_c, 0, 75, 94
1, 346980, Note_on_c, 0, 87, 99
1, 347008, Note_on_c, 0, 83, 42
1, 347019, Note_off_c, 0, 75, 69
1, 347077, Note_off_c, 0, 83, 0
1, 347115, Poly_aftertouch_c, 0, 83, 127
1, 347228, Poly_aftertouch_c, 0, 85, 127
1, 347251, Note_off_c, 0, 87, 56
1, 347308, Poly_aftertouch_c, 0, 83, 0
1, 347322, Poly_aftertouch_c, 0, 85, 0
1, 347331, Note_on_c, 0, 86, 101
1, 347334, Note_on_c, 0, 74, 95
1, 347337, Note_on_c, 0, 57, 91
1, 347341, Note_on_c, 0, 53, 84
1, 347342, Note_on_c, 0, 48, 81
1, 347343, Control_c, 0, 64, 92
1, 347357, Control_c, 0, 64, 63
1, 347372, Control_c, 0, 64, 43
1, 347387, Control_c, 0, 64, 45
1, 347402, Control_c, 0, 64, 56
1, 347417, Control_c, 0, 64, 66
1, 347432, Control_c, 0, 64, 77
1, 347447, Control_c, 0, 64, 89
1, 347452, Note_off_c, 0, 86, 65
1, 347462, Control_c, 0, 64, 127
1, 347463, Note_off_c, 0, 74, 63
1, 347696, Note_on_c, 0, 73, 101
1, 347707, Note_on_c, 0, 49, 83
1, 347728, Control_c, 0, 64, 93
1, 347750, Control_c, 0, 64, 71
1, 347754, Note_off_c, 0, 48, 57
1, 347765, Control_c, 0, 64, 43
1, 347780, Control_c, 0, 64, 0
1, 347868, Control_c, 0, 64, 52
1, 347883, Control_c, 0, 64, 66
1, 347898, Note_off_c, 0, 73, 65
1, 347898, Control_c, 0, 64, 73
1, 347913, Control_c, 0, 64, 83
1, 347928, Control_c, 0, 64, 93
1, 347942, Control_c, 0, 64, 111
1, 347957, Control_c, 0, 64, 127
1, 348046, Control_c, 0, 64, 86
1, 348061, Control_c, 0, 64, 60
1, 348062, Note_on_c, 0, 61, 98
1, 348075, Control_c, 0, 64, 0
1, 348135, Control_c, 0, 64, 46
1, 348150, Control_c, 0, 64, 69
1, 348165, Control_c, 0, 64, 84
1, 348180, Control_c, 0, 64, 127
1, 348219, Note_off_c, 0, 53, 57
1, 348230, Note_off_c, 0, 57, 60
1, 348350, Note_off_c, 0, 61, 59
1, 348358, Control_c, 0, 64, 81
1, 348372, Control_c, 0, 64, 63
1, 348387, Control_c, 0, 64, 55
1, 348402, Control_c, 0, 64, 61
1, 348415, Note_on_c, 0, 58, 75
1, 348416, Note_on_c, 0, 54, 77
1, 348416, Note_on_c, 0, 63, 97
1, 348417, Control_c, 0, 64, 68
1, 348432, Control_c, 0, 64, 81
1, 348446, Control_c, 0, 64, 127
1, 348448, Note_off_c, 0, 58, 64
1, 348466, Note_off_c, 0, 54, 63
1, 348481, Note_off_c, 0, 49, 64
1, 348589, Note_off_c, 0, 63, 60
1, 348623, Note_on_c, 0, 64, 87
1, 348661, Control_c, 0, 64, 86
1, 348676, Control_c, 0, 64, 51
1, 348691, Control_c, 0, 64, 0
1, 348699, Note_on_c, 0, 31, 87
1, 348794, Note_on_c, 0, 43, 88
1, 348839, Control_c, 0, 64, 32
1, 348842, Note_off_c, 0, 31, 62
1, 348854, Control_c, 0, 64, 63
1, 348866, Note_off_c, 0, 43, 64
1, 348869, Control_c, 0, 64, 68
1, 348884, Control_c, 0, 64, 74
1, 348899, Control_c, 0, 64, 83
1, 348914, Control_c, 0, 64, 100
1, 348929, Control_c, 0, 64, 127
1, 348937, Note_on_c, 0, 72, 103
1, 348965, Note_on_c, 0, 52, 78
1, 348985, Note_off_c, 0, 64, 60
1, 349093, Note_off_c, 0, 52, 59
1, 349197, Note_on_c, 0, 53, 69
1, 349259, Note_on_c, 0, 54, 81
1, 349259, Note_off_c, 0, 53, 63
1, 349298, Note_off_c, 0, 54, 67
1, 349308, Note_on_c, 0, 55, 83
1, 349677, Note_on_c, 0, 70, 103
1, 349717, Note_off_c, 0, 72, 59
1, 349893, Note_on_c, 0, 57, 65
1, 349925, Note_on_c, 0, 58, 66
1, 349942, Note_off_c, 0, 57, 59
1, 349948, Note_off_c, 0, 55, 55
1, 349971, Note_on_c, 0, 60, 69
1, 349973, Note_off_c, 0, 58, 65
1, 350050, Note_on_c, 0, 61, 87
1, 350061, Note_off_c, 0, 60, 64
1, 350110, Note_off_c, 0, 61, 64
1, 350407, Note_on_c, 0, 73, 103
1, 350416, Note_on_c, 0, 64, 77
1, 350432, Note_off_c, 0, 70, 59
1, 350623, Note_on_c, 0, 65, 65
1, 350633, Note_on_c, 0, 66, 72
1, 350678, Note_off_c, 0, 65, 63
1, 350706, Note_on_c, 0, 67, 78
1, 350714, Note_off_c, 0, 66, 64
1, 350727, Note_off_c, 0, 64, 61
1, 350782, Note_on_c, 0, 68, 89
1, 350800, Note_off_c, 0, 67, 62
1, 350897, Note_off_c, 0, 73, 65
1, 351126, Note_off_c, 0, 68, 61
1, 351132, Note_on_c, 0, 74, 116
1, 351134, Note_on_c, 0, 71, 85
1, 351161, Control_c, 0, 64, 112
1, 351176, Control_c, 0, 64, 107
1, 351220, Control_c, 0, 64, 116
1, 351235, Control_c, 0, 64, 127
1, 351387, Note_off_c, 0, 74, 65
1, 351498, Note_off_c, 0, 71, 63
1, 351509, Note_on_c, 0, 74, 96
1, 351554, Note_off_c, 0, 74, 67
1, 351857, Note_on_c, 0, 82, 105
1, 351865, Control_c, 0, 64, 90
1, 351868, Note_on_c, 0, 78, 96
1, 351880, Control_c, 0, 64, 63
1, 351895, Control_c, 0, 64, 46
1, 351909, Control_c, 0, 64, 57
1, 351924, Control_c, 0, 64, 66
1, 351928, Note_on_c, 0, 81, 92
1, 351939, Control_c, 0, 64, 90
1, 351954, Control_c, 0, 64, 127
1, 352037, Note_off_c, 0, 81, 44
1, 352084, Note_off_c, 0, 78, 59
1, 352103, Note_on_c, 0, 79, 85
1, 352166, Note_on_c, 0, 78, 92
1, 352168, Note_off_c, 0, 79, 63
1, 352216, Note_on_c, 0, 77, 78
1, 352219, Note_off_c, 0, 82, 60
1, 352227, Note_off_c, 0, 78, 67
1, 352421, Note_off_c, 0, 77, 60
1, 352442, Note_on_c, 0, 78, 71
1, 352497, Note_on_c, 0, 77, 76
1, 352497, Note_off_c, 0, 78, 62
1, 352544, Note_off_c, 0, 77, 63
1, 352563, Note_on_c, 0, 76, 82
1, 352568, Control_c, 0, 64, 90
1, 352575, Note_on_c, 0, 79, 109
1, 352583, Control_c, 0, 64, 74
1, 352598, Control_c, 0, 64, 69
1, 352613, Control_c, 0, 64, 71
1, 352628, Control_c, 0, 64, 78
1, 352643, Control_c, 0, 64, 92
1, 352657, Control_c, 0, 64, 127
1, 352760, Note_off_c, 0, 79, 68
1, 352789, Note_off_c, 0, 76, 55
1, 352814, Note_on_c, 0, 77, 61
1, 352844, Note_off_c, 0, 77, 67
1, 352866, Note_on_c, 0, 76, 80
1, 352920, Note_off_c, 0, 76, 68
1, 352931, Note_on_c, 0, 75, 110
1, 353125, Note_off_c, 0, 75, 55
1, 353278, Note_on_c, 0, 77, 106
1, 353295, Note_on_c, 0, 74, 88
1, 353302, Control_c, 0, 64, 100
1, 353317, Control_c, 0, 64, 75
1, 353332, Control_c, 0, 64, 67
1, 353347, Control_c, 0, 64, 72
1, 353361, Control_c, 0, 64, 82
1, 353376, Control_c, 0, 64, 108
1, 353391, Control_c, 0, 64, 127
1, 353496, Note_on_c, 0, 75, 71
1, 353509, Note_off_c, 0, 74, 62
1, 353555, Note_on_c, 0, 74, 77
1, 353570, Note_off_c, 0, 75, 64
1, 353593, Note_off_c, 0, 74, 68
1, 353611, Note_on_c, 0, 73, 101
1, 353698, Note_off_c, 0, 73, 70
1, 353991, Note_on_c, 0, 72, 104
1, 354132, Note_off_c, 0, 72, 63
1, 354187, Note_on_c, 0, 71, 97
1, 354196, Note_on_c, 0, 32, 34
1, 354205, Note_on_c, 0, 72, 61
1, 354205, Note_off_c, 0, 72, 127
1, 354333, Control_c, 0, 64, 76
1, 354348, Note_off_c, 0, 32, 34
1, 354348, Control_c, 0, 64, 0
1, 354366, Note_on_c, 0, 42, 104
1, 354367, Note_on_c, 0, 30, 101
1, 354375, Note_on_c, 0, 68, 102
1, 354417, Note_off_c, 0, 71, 52
1, 354427, Note_on_c, 0, 29, 10
1, 354452, Control_c, 0, 64, 45
1, 354467, Control_c, 0, 64, 101
1, 354478, Note_off_c, 0, 29, 29
1, 354489, Control_c, 0, 64, 127
1, 354577, Note_off_c, 0, 42, 59
1, 354594, Note_off_c, 0, 77, 57
1, 354595, Note_off_c, 0, 68, 61
1, 354603, Note_on_c, 0, 67, 101
1, 354606, Note_off_c, 0, 30, 57
1, 354647, Note_off_c, 0, 67, 64
1, 354693, Note_on_c, 0, 42, 117
1, 354694, Note_on_c, 0, 30, 113
1, 354724, Note_off_c, 0, 30, 67
1, 354732, Note_off_c, 0, 42, 65
1, 354958, Note_on_c, 0, 90, 106
1, 354971, Note_on_c, 0, 66, 118
1, 354972, Note_on_c, 0, 54, 98
1, 354975, Note_on_c, 0, 53, 104
1, 355014, Note_off_c, 0, 53, 63
1, 355018, Note_off_c, 0, 66, 69
1, 355036, Note_off_c, 0, 54, 71
1, 355054, Note_on_c, 0, 65, 16
1, 355066, Note_off_c, 0, 90, 70
1, 355096, Note_off_c, 0, 65, 54
1, 355378, Note_on_c, 0, 90, 106
1, 355431, Note_on_c, 0, 92, 23
1, 355431, Note_off_c, 0, 92, 127
1, 355442, Note_off_c, 0, 90, 66
1, 355591, Poly_aftertouch_c, 0, 88, 127
1, 355643, Poly_aftertouch_c, 0, 88, 0
1, 355680, Poly_aftertouch_c, 0, 58, 127
1, 355784, Note_on_c, 0, 66, 113
1, 355787, Note_on_c, 0, 92, 110
1, 355789, Note_on_c, 0, 53, 92
1, 355793, Note_on_c, 0, 54, 103
1, 355800, Note_on_c, 0, 52, 85
1, 355807, Poly_aftertouch_c, 0, 58, 0
1, 355818, Note_off_c, 0, 52, 41
1, 355850, Note_off_c, 0, 66, 70
1, 355855, Note_off_c, 0, 53, 65
1, 355868, Note_off_c, 0, 54, 64
1, 355914, Note_off_c, 0, 92, 66
1, 356182, Note_on_c, 0, 90, 111
1, 356279, Note_off_c, 0, 90, 70
1, 356545, Note_on_c, 0, 68, 111
1, 356547, Note_on_c, 0, 56, 94
1, 356548, Note_on_c, 0, 89, 109
1, 356551, Note_on_c, 0, 55, 98
1, 356586, Note_on_c, 0, 60, 36
1, 356593, Note_off_c, 0, 55, 59
1, 356608, Note_off_c, 0, 68, 69
1, 356614, Note_off_c, 0, 56, 66
1, 356622, Note_off_c, 0, 60, 53
1, 356625, Note_off_c, 0, 89, 67
1, 356632, Poly_aftertouch_c, 0, 69, 127
1, 356662, Poly_aftertouch_c, 0, 69, 0
1, 356936, Note_on_c, 0, 88, 108
1, 357019, Note_off_c, 0, 88, 70
1, 357305, Note_on_c, 0, 66, 109
1, 357305, Note_on_c, 0, 76, 107
1, 357309, Note_on_c, 0, 53, 97
1, 357311, Note_on_c, 0, 54, 94
1, 357332, Note_on_c, 0, 65, 103
1, 357349, Note_on_c, 0, 64, 70
1, 357349, Note_off_c, 0, 64, 127
1, 357366, Note_off_c, 0, 66, 66
1, 357367, Note_off_c, 0, 53, 64
1, 357374, Note_off_c, 0, 65, 69
1, 357387, Note_off_c, 0, 54, 67
1, 357614, Note_off_c, 0, 76, 31
1, 357691, Note_on_c, 0, 78, 105
1, 357782, Note_off_c, 0, 78, 67
1, 358056, Note_on_c, 0, 48, 93
1, 358056, Note_on_c, 0, 51, 99
1, 358056, Note_on_c, 0, 57, 101
1, 358063, Control_c, 0, 64, 106
1, 358064, Note_on_c, 0, 79, 109
1, 358077, Control_c, 0, 64, 61
1, 358092, Control_c, 0, 64, 0
1, 358178, Note_on_c, 0, 50, 90
1, 358181, Control_c, 0, 64, 40
1, 358190, Note_off_c, 0, 51, 62
1, 358196, Control_c, 0, 64, 72
1, 358211, Control_c, 0, 64, 90
1, 358248, Control_c, 0, 64, 75
1, 358262, Note_on_c, 0, 51, 85
1, 358263, Control_c, 0, 64, 62
1, 358271, Note_off_c, 0, 50, 63
1, 358277, Control_c, 0, 64, 50
1, 358292, Control_c, 0, 64, 30
1, 358307, Control_c, 0, 64, 0
1, 358330, Note_on_c, 0, 50, 88
1, 358337, Note_off_c, 0, 51, 63
1, 358362, Note_off_c, 0, 79, 57
1, 358408, Note_on_c, 0, 51, 95
1, 358418, Note_off_c, 0, 50, 64
1, 358421, Note_on_c, 0, 79, 101
1, 358485, Control_c, 0, 64, 46
1, 358500, Control_c, 0, 64, 70
1, 358515, Control_c, 0, 64, 80
1, 358530, Control_c, 0, 64, 94
1, 358545, Control_c, 0, 64, 101
1, 358560, Control_c, 0, 64, 127
1, 358653, Note_off_c, 0, 79, 65
1, 358696, Note_off_c, 0, 51, 61
1, 358796, Note_on_c, 0, 81, 106
1, 358849, Note_on_c, 0, 51, 66
1, 358860, Note_off_c, 0, 57, 58
1, 358883, Note_off_c, 0, 48, 54
1, 358902, Note_on_c, 0, 53, 75
1, 358926, Note_on_c, 0, 55, 84
1, 358935, Note_off_c, 0, 51, 58
1, 358954, Note_off_c, 0, 53, 61
1, 358993, Note_off_c, 0, 55, 65
1, 359000, Note_on_c, 0, 57, 80
1, 359024, Note_off_c, 0, 57, 70
1, 359045, Note_on_c, 0, 59, 87
1, 359097, Note_on_c, 0, 60, 58
1, 359098, Note_off_c, 0, 59, 65
1, 359139, Note_off_c, 0, 60, 65
1, 359142, Note_off_c, 0, 81, 0
1, 359150, Note_on_c, 0, 62, 73
1, 359150, Note_on_c, 0, 79, 105
1, 359171, Note_off_c, 0, 62, 65
1, 359175, Note_on_c, 0, 63, 96
1, 359184, Poly_aftertouch_c, 0, 81, 0
1, 359208, Note_off_c, 0, 63, 69
1, 359251, Note_off_c, 0, 79, 68
1, 359467, Note_on_c, 0, 80, 8
1, 359496, Note_off_c, 0, 80, 43
1, 359513, Note_on_c, 0, 78, 100
1, 359523, Note_on_c, 0, 64, 106
1, 359552, Note_off_c, 0, 64, 73
1, 359675, Note_off_c, 0, 78, 63
1, 359912, Note_on_c, 0, 76, 102
1, 360037, Note_off_c, 0, 76, 70
1, 360274, Note_on_c, 0, 64, 103
1, 360277, Note_on_c, 0, 66, 96
1, 360312, Note_off_c, 0, 66, 66
1, 360626, Note_off_c, 0, 64, 56
1, 360646, Note_on_c, 0, 40, 94
1, 360652, Note_on_c, 0, 66, 105
1, 360689, Note_off_c, 0, 66, 71
1, 360695, Note_off_c, 0, 40, 64
1, 360829, Note_on_c, 0, 79, 101
1, 360835, Control_c, 0, 64, 111
1, 360837, Note_on_c, 0, 67, 96
1, 360849, Control_c, 0, 64, 63
1, 360864, Control_c, 0, 64, 0
1, 360894, Note_on_c, 0, 39, 81
1, 360895, Note_on_c, 0, 43, 80
1, 360929, Note_on_c, 0, 48, 78
1, 360946, Note_off_c, 0, 67, 63
1, 360969, Control_c, 0, 64, 44
1, 360970, Note_off_c, 0, 79, 69
1, 360974, Note_on_c, 0, 55, 98
1, 360984, Control_c, 0, 64, 76
1, 360999, Note_on_c, 0, 46, 54
1, 360999, Control_c, 0, 64, 111
1, 361014, Control_c, 0, 64, 127
1, 361024, Note_off_c, 0, 48, 61
1, 361028, Note_off_c, 0, 46, 56
1, 361028, Note_off_c, 0, 39, 62
1, 361031, Note_off_c, 0, 43, 61
1, 361044, Note_off_c, 0, 55, 67
1, 361067, Note_on_c, 0, 91, 109
1, 361232, Note_on_c, 0, 60, 69
1, 361251, Note_on_c, 0, 67, 75
1, 361270, Note_off_c, 0, 91, 51
1, 361281, Note_on_c, 0, 69, 73
1, 361318, Note_off_c, 0, 67, 64
1, 361329, Note_on_c, 0, 75, 93
1, 361351, Note_off_c, 0, 69, 59
1, 361362, Note_off_c, 0, 60, 63
1, 361374, Note_off_c, 0, 75, 67
1, 361421, Note_on_c, 0, 91, 110
1, 361425, Note_on_c, 0, 79, 102
1, 361553, Note_off_c, 0, 79, 64
1, 361776, Note_on_c, 0, 81, 110
1, 361777, Note_on_c, 0, 93, 110
1, 361779, Note_off_c, 0, 91, 66
1, 362003, Note_off_c, 0, 93, 62
1, 362020, Poly_aftertouch_c, 0, 86, 127
1, 362077, Poly_aftertouch_c, 0, 86, 0
1, 362085, Note_off_c, 0, 81, 58
1, 362143, Note_on_c, 0, 79, 100
1, 362146, Note_on_c, 0, 91, 106
1, 362181, Note_off_c, 0, 79, 74
1, 362500, Note_on_c, 0, 90, 103
1, 362503, Note_on_c, 0, 61, 101
1, 362503, Note_on_c, 0, 78, 97
1, 362506, Note_on_c, 0, 52, 90
1, 362509, Note_on_c, 0, 57, 92
1, 362512, Control_c, 0, 64, 81
1, 362524, Note_off_c, 0, 91, 56
1, 362527, Control_c, 0, 64, 68
1, 362542, Control_c, 0, 64, 67
1, 362557, Control_c, 0, 64, 71
1, 362572, Control_c, 0, 64, 82
1, 362587, Control_c, 0, 64, 113
1, 362601, Control_c, 0, 64, 127
1, 362608, Note_off_c, 0, 78, 64
1, 362611, Note_off_c, 0, 90, 67
1, 362784, Note_off_c, 0, 52, 59
1, 362876, Note_on_c, 0, 53, 93
1, 362883, Note_on_c, 0, 77, 102
1, 362919, Control_c, 0, 64, 116
1, 362934, Control_c, 0, 64, 83
1, 362948, Control_c, 0, 64, 68
1, 362963, Control_c, 0, 64, 60
1, 362978, Control_c, 0, 64, 60
1, 362992, Control_c, 0, 64, 62
1, 363007, Control_c, 0, 64, 68
1, 363022, Control_c, 0, 64, 76
1, 363037, Control_c, 0, 64, 88
1, 363052, Control_c, 0, 64, 104
1, 363067, Control_c, 0, 64, 127
1, 363069, Note_off_c, 0, 77, 68
1, 363215, Control_c, 0, 64, 121
1, 363230, Control_c, 0, 64, 82
1, 363244, Control_c, 0, 64, 64
1, 363249, Note_on_c, 0, 65, 102
1, 363259, Control_c, 0, 64, 47
1, 363274, Control_c, 0, 64, 43
1, 363289, Control_c, 0, 64, 50
1, 363305, Control_c, 0, 64, 61
1, 363320, Control_c, 0, 64, 67
1, 363335, Control_c, 0, 64, 74
1, 363349, Control_c, 0, 64, 85
1, 363364, Control_c, 0, 64, 99
1, 363379, Control_c, 0, 64, 127
1, 363399, Note_off_c, 0, 57, 60
1, 363490, Note_off_c, 0, 61, 57
1, 363562, Note_off_c, 0, 65, 62
1, 363594, Control_c, 0, 64, 112
1, 363609, Control_c, 0, 64, 78
1, 363618, Note_on_c, 0, 67, 99
1, 363618, Note_on_c, 0, 62, 87
1, 363623, Control_c, 0, 64, 66
1, 363624, Note_on_c, 0, 58, 79
1, 363638, Control_c, 0, 64, 65
1, 363653, Control_c, 0, 64, 70
1, 363662, Note_off_c, 0, 62, 65
1, 363668, Control_c, 0, 64, 83
1, 363673, Note_off_c, 0, 58, 65
1, 363682, Control_c, 0, 64, 112
1, 363687, Note_off_c, 0, 53, 63
1, 363698, Control_c, 0, 64, 127
1, 363711, Note_off_c, 0, 67, 64
1, 363861, Control_c, 0, 64, 75
1, 363875, Control_c, 0, 64, 0
1, 363881, Note_on_c, 0, 68, 100
1, 363886, Note_on_c, 0, 56, 89
1, 363994, Control_c, 0, 64, 70
1, 364009, Control_c, 0, 64, 127
1, 364016, Note_off_c, 0, 56, 63
1, 364040, Note_off_c, 0, 68, 69
1, 364107, Note_on_c, 0, 35, 91
1, 364107, Note_on_c, 0, 47, 97
1, 364107, Note_on_c, 0, 76, 101
1, 364143, Note_off_c, 0, 47, 65
1, 364150, Note_off_c, 0, 35, 60
1, 364358, Note_on_c, 0, 56, 72
1, 364398, Note_off_c, 0, 56, 61
1, 364404, Note_on_c, 0, 57, 75
1, 364458, Note_off_c, 0, 57, 61
1, 364460, Note_on_c, 0, 58, 81
1, 364505, Note_on_c, 0, 59, 87
1, 364519, Note_off_c, 0, 58, 61
1, 364756, Note_off_c, 0, 59, 60
1, 364876, Note_on_c, 0, 74, 101
1, 364926, Note_off_c, 0, 76, 53
1, 365105, Note_on_c, 0, 61, 72
1, 365154, Note_on_c, 0, 62, 79
1, 365188, Note_on_c, 0, 64, 79
1, 365189, Note_off_c, 0, 61, 59
1, 365204, Note_off_c, 0, 62, 64
1, 365226, Note_on_c, 0, 65, 97
1, 365239, Note_off_c, 0, 64, 61
1, 365514, Note_off_c, 0, 65, 58
1, 365592, Note_on_c, 0, 77, 99
1, 365605, Note_on_c, 0, 68, 81
1, 365635, Note_off_c, 0, 74, 60
1, 365784, Note_on_c, 0, 69, 77
1, 365821, Note_on_c, 0, 70, 76
1, 365839, Note_off_c, 0, 68, 29
1, 365850, Note_off_c, 0, 69, 63
1, 365873, Note_on_c, 0, 71, 91
1, 365881, Note_off_c, 0, 70, 66
1, 365920, Note_off_c, 0, 71, 67
1, 365944, Note_on_c, 0, 72, 105
1, 365989, Control_c, 0, 64, 98
1, 366004, Control_c, 0, 64, 87
1, 366018, Control_c, 0, 64, 88
1, 366033, Control_c, 0, 64, 101
1, 366048, Control_c, 0, 64, 127
1, 366126, Note_off_c, 0, 77, 64
1, 366325, Note_on_c, 0, 78, 116
1, 366327, Note_on_c, 0, 75, 93
1, 366341, Note_off_c, 0, 72, 56
1, 366359, Control_c, 0, 64, 92
1, 366374, Control_c, 0, 64, 75
1, 366388, Control_c, 0, 64, 71
1, 366403, Control_c, 0, 64, 78
1, 366418, Control_c, 0, 64, 102
1, 366433, Control_c, 0, 64, 127
1, 366525, Note_off_c, 0, 75, 62
1, 366555, Note_off_c, 0, 78, 64
1, 366680, Note_on_c, 0, 78, 100
1, 366735, Note_off_c, 0, 78, 66
1, 367037, Note_on_c, 0, 86, 112
1, 367058, Note_on_c, 0, 82, 96
1, 367107, Control_c, 0, 64, 84
1, 367122, Control_c, 0, 64, 78
1, 367137, Control_c, 0, 64, 87
1, 367152, Control_c, 0, 64, 127
1, 367253, Note_off_c, 0, 82, 63
1, 367273, Note_on_c, 0, 83, 86
1, 367309, Control_c, 0, 64, 102
1, 367323, Control_c, 0, 64, 76
1, 367338, Control_c, 0, 64, 67
1, 367342, Note_on_c, 0, 82, 96
1, 367353, Control_c, 0, 64, 69
1, 367353, Note_off_c, 0, 83, 64
1, 367368, Control_c, 0, 64, 77
1, 367383, Control_c, 0, 64, 94
1, 367392, Note_on_c, 0, 81, 83
1, 367397, Control_c, 0, 64, 127
1, 367416, Note_off_c, 0, 82, 63
1, 367529, Note_off_c, 0, 86, 61
1, 367612, Note_off_c, 0, 81, 62
1, 367628, Note_on_c, 0, 82, 73
1, 367650, Note_on_c, 0, 81, 79
1, 367651, Note_off_c, 0, 82, 66
1, 367693, Control_c, 0, 64, 90
1, 367696, Note_off_c, 0, 81, 67
1, 367708, Control_c, 0, 64, 65
1, 367723, Control_c, 0, 64, 41
1, 367726, Note_on_c, 0, 80, 80
1, 367729, Note_on_c, 0, 83, 113
1, 367738, Control_c, 0, 64, 0
1, 367753, Control_c, 0, 64, 37
1, 367768, Control_c, 0, 64, 55
1, 367782, Control_c, 0, 64, 71
1, 367797, Control_c, 0, 64, 100
1, 367812, Control_c, 0, 64, 127
1, 367911, Note_off_c, 0, 83, 67
1, 367923, Note_off_c, 0, 80, 60
1, 367970, Note_on_c, 0, 81, 70
1, 368012, Note_off_c, 0, 81, 66
1, 368026, Note_on_c, 0, 80, 81
1, 368058, Note_off_c, 0, 80, 64
1, 368099, Note_on_c, 0, 79, 121
1, 368453, Note_on_c, 0, 81, 106
1, 368459, Note_on_c, 0, 78, 102
1, 368479, Note_off_c, 0, 79, 63
1, 368486, Control_c, 0, 64, 102
1, 368501, Control_c, 0, 64, 69
1, 368516, Control_c, 0, 64, 43
1, 368531, Control_c, 0, 64, 33
1, 368546, Control_c, 0, 64, 48
1, 368561, Control_c, 0, 64, 64
1, 368575, Control_c, 0, 64, 86
1, 368590, Control_c, 0, 64, 127
1, 368737, Note_off_c, 0, 78, 59
1, 368823, Note_on_c, 0, 77, 97
1, 368828, Note_on_c, 0, 71, 97
1, 368868, Note_off_c, 0, 71, 70
1, 369220, Note_on_c, 0, 76, 92
1, 369225, Note_on_c, 0, 58, 118
1, 369233, Note_off_c, 0, 77, 60
1, 369275, Note_off_c, 0, 58, 60
1, 369562, Note_off_c, 0, 76, 57
1, 369568, Control_c, 0, 64, 85
1, 369583, Control_c, 0, 64, 57
1, 369598, Control_c, 0, 64, 0
1, 369665, Note_on_c, 0, 75, 83
1, 369667, Note_on_c, 0, 40, 115
1, 369670, Note_on_c, 0, 28, 110
1, 369705, Note_on_c, 0, 29, 33
1, 369705, Note_off_c, 0, 29, 127
1, 369717, Control_c, 0, 64, 53
1, 369732, Control_c, 0, 64, 88
1, 369747, Control_c, 0, 64, 127
1, 369756, Note_off_c, 0, 81, 59
1, 369765, Note_off_c, 0, 75, 64
1, 369788, Note_off_c, 0, 28, 62
1, 369804, Note_off_c, 0, 40, 67
1, 370118, Note_on_c, 0, 88, 110
1, 370120, Note_on_c, 0, 59, 95
1, 370120, Note_on_c, 0, 76, 100
1, 370123, Note_on_c, 0, 52, 93
1, 370123, Note_on_c, 0, 56, 102
1, 370157, Note_off_c, 0, 59, 69
1, 370159, Note_off_c, 0, 52, 66
1, 370164, Note_off_c, 0, 56, 67
1, 370221, Note_off_c, 0, 76, 58
1, 370230, Note_off_c, 0, 88, 63
1, 370596, Note_on_c, 0, 88, 107
1, 370597, Note_on_c, 0, 76, 111
1, 370657, Note_off_c, 0, 76, 64
1, 370685, Note_off_c, 0, 88, 67
1, 371142, Note_on_c, 0, 51, 119
1, 371144, Note_on_c, 0, 60, 98
1, 371149, Note_on_c, 0, 55, 87
1, 371153, Note_on_c, 0, 52, 83
1, 371216, Note_off_c, 0, 51, 64
1, 371605, Note_off_c, 0, 52, 38
1, 371661, Note_off_c, 0, 55, 56
1, 371692, Note_off_c, 0, 60, 54
1, 371988, Note_on_c, 0, 84, 112
1, 371991, Note_on_c, 0, 72, 107
1, 371992, Note_on_c, 0, 63, 110
1, 372008, Control_c, 0, 64, 75
1, 372023, Control_c, 0, 64, 0
1, 372349, Control_c, 0, 64, 44
1, 372364, Control_c, 0, 64, 82
1, 372370, Note_off_c, 0, 84, 63
1, 372379, Control_c, 0, 64, 127
1, 372391, Note_off_c, 0, 63, 59
1, 372402, Note_off_c, 0, 72, 60
1, 372838, Note_on_c, 0, 63, 90
1, 372838, Note_on_c, 0, 48, 89
1, 372839, Note_on_c, 0, 28, 96
1, 372841, Note_on_c, 0, 54, 96
1, 372843, Note_on_c, 0, 40, 97
1, 372843, Note_on_c, 0, 60, 86
1, 372847, Note_on_c, 0, 30, 92
1, 372891, Note_off_c, 0, 40, 64
1, 372904, Note_off_c, 0, 28, 62
1, 372905, Note_off_c, 0, 30, 65
1, 372911, Note_off_c, 0, 48, 62
1, 372975, Note_off_c, 0, 54, 60
1, 372975, Note_off_c, 0, 63, 61
1, 372979, Note_off_c, 0, 60, 63
1, 373294, Note_on_c, 0, 83, 95
1, 373309, Note_on_c, 0, 62, 80
1, 373310, Note_on_c, 0, 71, 78
1, 373442, Note_off_c, 0, 62, 49
1, 373481, Note_on_c, 0, 79, 97
1, 373496, Note_on_c, 0, 61, 81
1, 373553, Note_off_c, 0, 71, 54
1, 373564, Note_off_c, 0, 61, 63
1, 373566, Note_off_c, 0, 83, 49
1, 373682, Note_on_c, 0, 76, 103
1, 373697, Note_on_c, 0, 60, 81
1, 373768, Note_off_c, 0, 79, 64
1, 374041, Note_on_c, 0, 79, 97
1, 374047, Note_on_c, 0, 67, 85
1, 374051, Note_off_c, 0, 76, 60
1, 374057, Note_on_c, 0, 59, 80
1, 374205, Note_off_c, 0, 67, 62
1, 374232, Note_off_c, 0, 60, 60
1, 374292, Note_off_c, 0, 79, 51
1, 374390, Note_on_c, 0, 78, 95
1, 374397, Note_on_c, 0, 66, 88
1, 374406, Note_on_c, 0, 58, 89
1, 374446, Note_off_c, 0, 59, 62
1, 374581, Note_off_c, 0, 66, 59
1, 374636, Note_off_c, 0, 78, 48
1, 374725, Note_off_c, 0, 58, 61
1, 374743, Note_on_c, 0, 71, 99
1, 374748, Note_on_c, 0, 59, 92
1, 375064, Note_off_c, 0, 59, 59
1, 375075, Note_off_c, 0, 71, 65
1, 375086, Note_on_c, 0, 78, 100
1, 375091, Note_on_c, 0, 66, 94
1, 375101, Note_on_c, 0, 60, 99
1, 375122, Control_c, 0, 64, 88
1, 375137, Control_c, 0, 64, 64
1, 375151, Control_c, 0, 64, 47
1, 375166, Control_c, 0, 64, 51
1, 375181, Control_c, 0, 64, 61
1, 375196, Control_c, 0, 64, 73
1, 375211, Control_c, 0, 64, 107
1, 375226, Control_c, 0, 64, 127
1, 375254, Note_off_c, 0, 66, 61
1, 375294, Note_off_c, 0, 78, 51
1, 375464, Note_on_c, 0, 76, 103
1, 375470, Note_on_c, 0, 61, 97
1, 375499, Note_off_c, 0, 60, 64
1, 375501, Control_c, 0, 64, 74
1, 375516, Control_c, 0, 64, 51
1, 375530, Control_c, 0, 64, 0
1, 375575, Control_c, 0, 64, 62
1, 375590, Control_c, 0, 64, 84
1, 375604, Control_c, 0, 64, 127
1, 375678, Note_off_c, 0, 61, 54
1, 375797, Control_c, 0, 64, 96
1, 375812, Control_c, 0, 64, 62
1, 375827, Control_c, 0, 64, 0
1, 375828, Note_off_c, 0, 76, 62
1, 375837, Note_on_c, 0, 83, 106
1, 375840, Note_on_c, 0, 71, 113
1, 375845, Note_on_c, 0, 67, 103
1, 375956, Note_off_c, 0, 67, 65
1, 375960, Control_c, 0, 64, 59
1, 375974, Control_c, 0, 64, 127
1, 376022, Note_off_c, 0, 83, 67
1, 376028, Note_off_c, 0, 71, 64
1, 376286, Note_on_c, 0, 64, 109
1, 376288, Note_on_c, 0, 28, 91
1, 376290, Note_on_c, 0, 40, 90
1, 376331, Note_off_c, 0, 40, 65
1, 376335, Note_off_c, 0, 28, 63
1, 376564, Note_off_c, 0, 64, 65
1, 376691, Note_on_c, 0, 64, 111
1, 376695, Note_on_c, 0, 49, 91
1, 376695, Note_on_c, 0, 58, 92
1, 376698, Note_on_c, 0, 53, 88
1, 376720, Note_off_c, 0, 53, 71
1, 376724, Note_off_c, 0, 58, 66
1, 376728, Note_off_c, 0, 49, 64
1, 376990, Note_off_c, 0, 64, 63
1, 377137, Note_on_c, 0, 64, 112
1, 377274, Note_off_c, 0, 64, 68
1, 377630, Note_on_c, 0, 51, 123
1, 377634, Note_on_c, 0, 56, 97
1, 377638, Note_on_c, 0, 52, 93
1, 377641, Note_on_c, 0, 48, 76
1, 377843, Note_off_c, 0, 51, 25
1, 377959, Note_off_c, 0, 56, 60
1, 377960, Note_off_c, 0, 52, 56
1, 377989, Note_off_c, 0, 48, 61
1, 378468, Note_on_c, 0, 84, 110
1, 378472, Note_on_c, 0, 72, 105
1, 378475, Note_on_c, 0, 63, 114
1, 378496, Control_c, 0, 64, 95
1, 378511, Control_c, 0, 64, 50
1, 378526, Control_c, 0, 64, 0
1, 378822, Control_c, 0, 64, 48
1, 378837, Control_c, 0, 64, 78
1, 378851, Control_c, 0, 64, 127
1, 378857, Note_off_c, 0, 84, 67
1, 378863, Note_off_c, 0, 63, 63
1, 378880, Note_off_c, 0, 72, 60
1, 379295, Note_on_c, 0, 42, 93
1, 379296, Note_on_c, 0, 51, 94
1, 379301, Note_on_c, 0, 28, 96
1, 379304, Note_on_c, 0, 36, 100
1, 379305, Note_on_c, 0, 32, 98
1, 379346, Note_off_c, 0, 36, 65
1, 379359, Note_off_c, 0, 32, 65
1, 379363, Note_off_c, 0, 28, 63
1, 379378, Note_off_c, 0, 42, 64
1, 379421, Note_off_c, 0, 51, 63
1, 379718, Note_on_c, 0, 83, 92
1, 379728, Note_on_c, 0, 71, 80
1, 379734, Note_on_c, 0, 62, 80
1, 379796, Note_off_c, 0, 62, 57
1, 379902, Note_on_c, 0, 79, 98
1, 379912, Note_on_c, 0, 61, 79
1, 379964, Note_off_c, 0, 71, 59
1, 379972, Note_off_c, 0, 83, 54
1, 379980, Note_off_c, 0, 61, 61
1, 380115, Note_on_c, 0, 76, 99
1, 380130, Note_on_c, 0, 60, 78
1, 380198, Note_off_c, 0, 79, 67
1, 380477, Note_on_c, 0, 79, 96
1, 380480, Note_on_c, 0, 67, 85
1, 380484, Note_on_c, 0, 59, 75
1, 380505, Note_off_c, 0, 76, 57
1, 380642, Note_off_c, 0, 60, 56
1, 380649, Note_off_c, 0, 67, 60
1, 380708, Note_off_c, 0, 79, 62
1, 380836, Note_on_c, 0, 78, 94
1, 380839, Note_on_c, 0, 58, 86
1, 380840, Note_on_c, 0, 66, 90
1, 380916, Note_off_c, 0, 59, 61
1, 381015, Note_off_c, 0, 66, 58
1, 381107, Note_off_c, 0, 78, 47
1, 381187, Note_on_c, 0, 71, 96
1, 381191, Note_on_c, 0, 59, 88
1, 381265, Note_off_c, 0, 58, 37
1, 381522, Note_off_c, 0, 71, 65
1, 381538, Note_on_c, 0, 78, 101
1, 381539, Note_off_c, 0, 59, 56
1, 381541, Note_on_c, 0, 66, 98
1, 381549, Note_on_c, 0, 60, 91
1, 381564, Control_c, 0, 64, 100
1, 381579, Control_c, 0, 64, 74
1, 381593, Control_c, 0, 64, 61
1, 381608, Control_c, 0, 64, 57
1, 381623, Control_c, 0, 64, 62
1, 381638, Control_c, 0, 64, 71
1, 381653, Control_c, 0, 64, 100
1, 381669, Control_c, 0, 64, 127
1, 381717, Note_off_c, 0, 66, 58
1, 381811, Note_off_c, 0, 78, 33
1, 381895, Note_on_c, 0, 61, 93
1, 381897, Note_on_c, 0, 76, 106
1, 381921, Control_c, 0, 64, 86
1, 381928, Note_off_c, 0, 60, 62
1, 381936, Control_c, 0, 64, 65
1, 381951, Control_c, 0, 64, 49
1, 381966, Control_c, 0, 64, 55
1, 381981, Control_c, 0, 64, 66
1, 381996, Control_c, 0, 64, 84
1, 382010, Control_c, 0, 64, 127
1, 382086, Note_off_c, 0, 61, 57
1, 382269, Control_c, 0, 64, 104
1, 382284, Control_c, 0, 64, 63
1, 382288, Note_off_c, 0, 76, 59
1, 382292, Note_on_c, 0, 83, 103
1, 382294, Note_on_c, 0, 71, 107
1, 382299, Control_c, 0, 64, 0
1, 382300, Note_on_c, 0, 67, 101
1, 382425, Note_off_c, 0, 67, 67
1, 382447, Control_c, 0, 64, 50
1, 382463, Control_c, 0, 64, 76
1, 382478, Control_c, 0, 64, 91
1, 382492, Control_c, 0, 64, 127
1, 382655, Control_c, 0, 64, 98
1, 382685, Control_c, 0, 64, 127
1, 382688, Note_on_c, 0, 28, 95
1, 382688, Note_on_c, 0, 40, 99
1, 382721, Note_off_c, 0, 83, 66
1, 382732, Note_off_c, 0, 40, 65
1, 382735, Note_off_c, 0, 28, 64
1, 382744, Note_off_c, 0, 71, 64
1, 383110, Note_on_c, 0, 64, 105
1, 383116, Note_on_c, 0, 56, 84
1, 383119, Note_on_c, 0, 47, 81
1, 383120, Note_on_c, 0, 51, 81
1, 383152, Note_off_c, 0, 51, 65
1, 383161, Note_off_c, 0, 56, 64
1, 383162, Note_off_c, 0, 47, 65
1, 383359, Note_off_c, 0, 64, 67
1, 383522, Note_on_c, 0, 64, 111
1, 383672, Note_off_c, 0, 64, 69
1, 383963, Note_on_c, 0, 51, 109
1, 383973, Note_on_c, 0, 50, 91
1, 383974, Note_on_c, 0, 46, 93
1, 383977, Note_on_c, 0, 55, 84
1, 384012, Note_on_c, 0, 52, 95
1, 384028, Note_off_c, 0, 46, 67
1, 384029, Note_off_c, 0, 55, 63
1, 384038, Note_on_c, 0, 53, 49
1, 384038, Note_off_c, 0, 53, 127
1, 384058, Note_off_c, 0, 50, 51
1, 384069, Poly_aftertouch_c, 0, 53, 0
1, 384086, Note_on_c, 0, 45, 9
1, 384130, Note_off_c, 0, 45, 53
1, 384255, Note_off_c, 0, 52, 49
1, 384393, Note_on_c, 0, 28, 86
1, 384393, Note_on_c, 0, 40, 89
1, 384504, Note_off_c, 0, 28, 59
1, 384505, Note_off_c, 0, 40, 59
1, 384579, Note_on_c, 0, 40, 90
1, 384580, Note_on_c, 0, 28, 89
1, 384654, Note_off_c, 0, 40, 59
1, 384716, Note_off_c, 0, 28, 60
1, 384776, Note_on_c, 0, 27, 100
1, 384776, Note_on_c, 0, 39, 99
1, 384783, Control_c, 0, 64, 84
1, 384797, Control_c, 0, 64, 72
1, 384801, Note_off_c, 0, 51, 0
1, 384812, Control_c, 0, 64, 74
1, 384827, Control_c, 0, 64, 88
1, 384838, Poly_aftertouch_c, 0, 51, 127
1, 384842, Control_c, 0, 64, 127
1, 384897, Note_off_c, 0, 27, 63
1, 384901, Note_off_c, 0, 39, 63
1, 384919, Poly_aftertouch_c, 0, 51, 0
1, 385173, Note_on_c, 0, 64, 93
1, 385188, Note_on_c, 0, 52, 88
1, 385492, Note_off_c, 0, 64, 60
1, 385495, Note_off_c, 0, 52, 59
1, 385590, Control_c, 0, 64, 91
1, 385605, Control_c, 0, 64, 59
1, 385606, Note_on_c, 0, 64, 95
1, 385608, Note_on_c, 0, 52, 98
1, 385609, Note_on_c, 0, 38, 106
1, 385611, Note_on_c, 0, 26, 100
1, 385620, Control_c, 0, 64, 0
1, 385710, Control_c, 0, 64, 50
1, 385725, Control_c, 0, 64, 81
1, 385734, Note_off_c, 0, 64, 61
1, 385740, Control_c, 0, 64, 127
1, 385768, Note_on_c, 0, 59, 34
1, 385780, Note_off_c, 0, 52, 62
1, 385808, Note_on_c, 0, 63, 7
1, 385848, Note_off_c, 0, 59, 0
1, 385848, Note_on_c, 0, 59, 4
1, 385883, Note_off_c, 0, 26, 56
1, 385883, Note_off_c, 0, 38, 55
1, 386073, Control_c, 0, 64, 73
1, 386082, Note_on_c, 0, 66, 98
1, 386083, Note_on_c, 0, 36, 107
1, 386083, Note_on_c, 0, 54, 102
1, 386085, Note_off_c, 0, 63, 47
1, 386087, Note_on_c, 0, 24, 111
1, 386088, Control_c, 0, 64, 0
1, 386128, Note_off_c, 0, 59, 53
1, 386221, Control_c, 0, 64, 39
1, 386231, Note_off_c, 0, 24, 63
1, 386235, Control_c, 0, 64, 94
1, 386250, Control_c, 0, 64, 127
1, 386255, Note_off_c, 0, 36, 69
1, 386264, Note_off_c, 0, 54, 62
1, 386290, Note_off_c, 0, 66, 66
1, 386382, Poly_aftertouch_c, 0, 26, 0
1, 386531, Note_on_c, 0, 69, 106
1, 386533, Note_on_c, 0, 52, 98
1, 386533, Note_on_c, 0, 57, 98
1, 386539, Note_on_c, 0, 46, 82
1, 386567, Note_off_c, 0, 57, 66
1, 386571, Note_off_c, 0, 52, 68
1, 386579, Note_off_c, 0, 46, 61
1, 386715, Note_off_c, 0, 69, 69
1, 386952, Note_on_c, 0, 66, 101
1, 386953, Note_on_c, 0, 54, 100
1, 386984, Note_off_c, 0, 54, 70
1, 387197, Note_off_c, 0, 66, 58
1, 387353, Note_on_c, 0, 76, 103
1, 387718, Note_off_c, 0, 76, 57
1, 387753, Note_on_c, 0, 74, 99
1, 387761, Note_on_c, 0, 57, 92
1, 387928, Note_off_c, 0, 74, 67
1, 388151, Note_on_c, 0, 60, 90
1, 388151, Note_on_c, 0, 66, 104
1, 388425, Note_off_c, 0, 66, 61
1, 388545, Note_on_c, 0, 67, 98
1, 388549, Note_on_c, 0, 64, 85
1, 388551, Note_off_c, 0, 60, 64
1, 388579, Note_off_c, 0, 57, 60
1, 388634, Note_off_c, 0, 64, 66
1, 388706, Note_on_c, 0, 73, 21
1, 388801, Note_off_c, 0, 67, 57
1, 388939, Note_off_c, 0, 73, 48
1, 388943, Note_on_c, 0, 68, 104
1, 389051, Note_off_c, 0, 68, 69
1, 389321, Control_c, 0, 64, 118
1, 389330, Note_on_c, 0, 74, 110
1, 389332, Note_on_c, 0, 70, 102
1, 389335, Control_c, 0, 64, 74
1, 389350, Control_c, 0, 64, 62
1, 389365, Control_c, 0, 64, 63
1, 389379, Control_c, 0, 64, 71
1, 389394, Control_c, 0, 64, 90
1, 389398, Note_off_c, 0, 70, 68
1, 389409, Control_c, 0, 64, 127
1, 389495, Note_on_c, 0, 82, 37
1, 389504, Note_off_c, 0, 74, 57
1, 389621, Note_on_c, 0, 75, 88
1, 389686, Note_off_c, 0, 82, 40
1, 389698, Note_off_c, 0, 75, 61
1, 389710, Note_on_c, 0, 78, 109
1, 389713, Note_on_c, 0, 74, 104
1, 389714, Control_c, 0, 64, 109
1, 389729, Control_c, 0, 64, 67
1, 389744, Control_c, 0, 64, 34
1, 389758, Control_c, 0, 64, 0
1, 389775, Note_on_c, 0, 80, 5
1, 389775, Note_off_c, 0, 80, 127
1, 389788, Control_c, 0, 64, 53
1, 389803, Control_c, 0, 64, 74
1, 389817, Control_c, 0, 64, 113
1, 389832, Control_c, 0, 64, 127
1, 389858, Note_off_c, 0, 78, 69
1, 390084, Control_c, 0, 64, 85
1, 390099, Note_on_c, 0, 76, 107
1, 390099, Control_c, 0, 64, 70
1, 390107, Note_on_c, 0, 72, 96
1, 390114, Control_c, 0, 64, 66
1, 390128, Control_c, 0, 64, 70
1, 390143, Control_c, 0, 64, 79
1, 390158, Control_c, 0, 64, 98
1, 390169, Note_off_c, 0, 74, 53
1, 390173, Control_c, 0, 64, 127
1, 390205, Note_off_c, 0, 76, 68
1, 390462, Note_off_c, 0, 72, 58
1, 390492, Note_on_c, 0, 86, 109
1, 390493, Control_c, 0, 64, 113
1, 390495, Note_on_c, 0, 71, 100
1, 390507, Control_c, 0, 64, 104
1, 390522, Control_c, 0, 64, 107
1, 390537, Control_c, 0, 64, 127
1, 390568, Note_off_c, 0, 71, 68
1, 390646, Note_off_c, 0, 86, 66
1, 390662, Note_on_c, 0, 70, 20
1, 390704, Note_off_c, 0, 70, 39
1, 390896, Note_on_c, 0, 69, 105
1, 390896, Note_on_c, 0, 78, 116
1, 390944, Note_off_c, 0, 69, 68
1, 390960, Note_off_c, 0, 78, 61
1, 391309, Note_on_c, 0, 90, 109
1, 391311, Note_on_c, 0, 68, 114
1, 391416, Note_off_c, 0, 90, 55
1, 391417, Note_off_c, 0, 68, 59
1, 391734, Note_on_c, 0, 92, 122
1, 391743, Note_on_c, 0, 66, 115
1, 391773, Note_off_c, 0, 66, 72
1, 391797, Note_off_c, 0, 92, 67
1, 392204, Note_on_c, 0, 95, 114
1, 392211, Note_on_c, 0, 57, 107
1, 392211, Note_on_c, 0, 65, 105
1, 392257, Note_off_c, 0, 65, 68
1, 392260, Note_off_c, 0, 57, 68
1, 392272, Note_off_c, 0, 95, 53
1, 392704, Note_on_c, 0, 97, 126
1, 392705, Note_on_c, 0, 56, 113
1, 392706, Note_on_c, 0, 64, 103
1, 392742, Note_off_c, 0, 97, 68
1, 392748, Note_off_c, 0, 64, 71
1, 392750, Note_off_c, 0, 56, 71
1, 392785, Note_on_c, 0, 57, 22
1, 392814, Note_off_c, 0, 57, 56
1, 392899, Note_on_c, 0, 94, 8
1, 392899, Note_off_c, 0, 94, 127
1, 393020, Control_c, 0, 64, 76
1, 393035, Control_c, 0, 64, 0
1, 393063, Note_on_c, 0, 99, 102
1, 393064, Note_on_c, 0, 51, 103
1, 393064, Note_on_c, 0, 87, 116
1, 393066, Note_on_c, 0, 59, 107
1, 393073, Note_on_c, 0, 93, 51
1, 393095, Note_on_c, 0, 97, 49
1, 393098, Note_off_c, 0, 93, 63
1, 393104, Note_off_c, 0, 59, 72
1, 393109, Control_c, 0, 64, 127
1, 393118, Note_off_c, 0, 87, 69
1, 393121, Note_off_c, 0, 97, 60
1, 393122, Note_off_c, 0, 99, 68
1, 393123, Note_off_c, 0, 51, 68
1, 393436, Note_on_c, 0, 75, 111
1, 393448, Note_on_c, 0, 23, 105
1, 393449, Note_on_c, 0, 35, 118
1, 393482, Note_on_c, 0, 85, 36
1, 393505, Note_off_c, 0, 75, 69
1, 393512, Note_off_c, 0, 85, 36
1, 393536, Note_off_c, 0, 23, 57
1, 393546, Note_off_c, 0, 35, 66
1, 394223, Note_on_c, 0, 35, 93
1, 394284, Note_on_c, 0, 36, 62
1, 394292, Note_on_c, 0, 38, 77
1, 394316, Note_on_c, 0, 40, 88
1, 394363, Note_off_c, 0, 38, 60
1, 394366, Note_on_c, 0, 42, 64
1, 394366, Note_off_c, 0, 35, 0
1, 394369, Note_off_c, 0, 40, 66
1, 394374, Note_on_c, 0, 43, 90
1, 394384, Note_on_c, 0, 44, 89
1, 394398, Poly_aftertouch_c, 0, 35, 0
1, 394404, Note_off_c, 0, 36, 57
1, 394410, Note_off_c, 0, 42, 65
1, 394417, Note_off_c, 0, 43, 66
1, 394429, Note_on_c, 0, 47, 78
1, 394460, Note_off_c, 0, 44, 67
1, 394479, Note_off_c, 0, 47, 68
1, 394485, Note_on_c, 0, 51, 88
1, 394513, Note_off_c, 0, 51, 65
1, 394526, Note_on_c, 0, 47, 90
1, 394545, Note_on_c, 0, 48, 82
1, 394575, Note_on_c, 0, 52, 79
1, 394576, Note_off_c, 0, 48, 66
1, 394608, Note_on_c, 0, 55, 89
1, 394644, Note_on_c, 0, 54, 83
1, 394673, Note_off_c, 0, 55, 65
1, 394691, Note_on_c, 0, 57, 86
1, 394697, Note_off_c, 0, 54, 66
1, 394702, Note_off_c, 0, 52, 60
1, 394710, Note_off_c, 0, 47, 68
1, 394742, Note_on_c, 0, 59, 94
1, 394745, Note_off_c, 0, 57, 67
1, 394775, Note_off_c, 0, 59, 68
1, 394904, Control_c, 0, 64, 76
1, 394926, Control_c, 0, 64, 64
1, 394941, Control_c, 0, 64, 63
1, 394956, Control_c, 0, 64, 70
1, 394959, Note_on_c, 0, 63, 122
1, 394964, Note_on_c, 0, 51, 126
1, 394971, Control_c, 0, 64, 95
1, 394980, Note_on_c, 0, 62, 93
1, 394986, Control_c, 0, 64, 127
1, 395022, Note_off_c, 0, 62, 63
1, 395036, Note_off_c, 0, 63, 71
1, 395043, Note_off_c, 0, 51, 58
1, 396306, Note_on_c, 0, 38, 108
1, 396307, Note_on_c, 0, 46, 118
1, 396325, Note_on_c, 0, 40, 56
1, 396325, Note_off_c, 0, 40, 127
1, 396340, Note_off_c, 0, 38, 68
1, 396351, Poly_aftertouch_c, 0, 40, 0
1, 396360, Note_off_c, 0, 46, 64
1, 396423, Note_on_c, 0, 46, 113
1, 396435, Note_on_c, 0, 34, 112
1, 396481, Note_on_c, 0, 33, 40
1, 396496, Control_c, 0, 64, 69
1, 396511, Control_c, 0, 64, 0
1, 396512, Note_off_c, 0, 33, 52
1, 396763, Control_c, 0, 64, 45
1, 396778, Control_c, 0, 64, 76
1, 396793, Control_c, 0, 64, 127
1, 396866, Note_off_c, 0, 34, 59
1, 396943, Note_off_c, 0, 46, 60
1, 397047, Note_on_c, 0, 38, 93
1, 397136, Note_on_c, 0, 39, 90
1, 397158, Note_on_c, 0, 42, 84
1, 397206, Note_on_c, 0, 46, 93
1, 397219, Note_off_c, 0, 42, 66
1, 397252, Note_off_c, 0, 46, 70
1, 397262, Note_on_c, 0, 49, 99
1, 397282, Note_on_c, 0, 50, 84
1, 397306, Note_on_c, 0, 55, 81
1, 397340, Note_off_c, 0, 50, 61
1, 397359, Note_on_c, 0, 58, 89
1, 397387, Note_on_c, 0, 61, 80
1, 397392, Note_off_c, 0, 49, 64
1, 397400, Note_off_c, 0, 55, 63
1, 397419, Note_off_c, 0, 58, 65
1, 397422, Note_off_c, 0, 38, 60
1, 397429, Note_on_c, 0, 62, 97
1, 397431, Note_off_c, 0, 61, 67
1, 397484, Note_off_c, 0, 39, 36
1, 397487, Note_on_c, 0, 55, 69
1, 397497, Note_on_c, 0, 58, 91
1, 397500, Note_on_c, 0, 50, 94
1, 397511, Note_off_c, 0, 62, 60
1, 397529, Note_off_c, 0, 55, 63
1, 397546, Note_off_c, 0, 50, 63
1, 397556, Note_on_c, 0, 49, 97
1, 397565, Note_off_c, 0, 58, 69
1, 397596, Note_off_c, 0, 49, 66
1, 397636, Note_on_c, 0, 38, 104
1, 397672, Note_off_c, 0, 38, 67
1, 397856, Note_on_c, 0, 66, 112
1, 397865, Note_on_c, 0, 54, 126
1, 397892, Note_off_c, 0, 54, 71
1, 397937, Note_off_c, 0, 66, 64
1, 399380, Control_c, 0, 64, 95
1, 399395, Control_c, 0, 64, 55
1, 399418, Control_c, 0, 64, 0
1, 399452, Note_on_c, 0, 35, 113
1, 399453, Note_on_c, 0, 23, 103
1, 399626, Control_c, 0, 64, 48
1, 399640, Control_c, 0, 64, 77
1, 399655, Control_c, 0, 64, 127
1, 399752, Note_off_c, 0, 23, 62
1, 399778, Note_off_c, 0, 35, 57
1, 400245, Note_on_c, 0, 35, 75
1, 400304, Note_on_c, 0, 36, 74
1, 400331, Note_on_c, 0, 40, 81
1, 400376, Note_off_c, 0, 40, 66
1, 400376, Note_on_c, 0, 42, 70
1, 400383, Note_on_c, 0, 43, 85
1, 400393, Note_off_c, 0, 36, 54
1, 400409, Note_on_c, 0, 44, 78
1, 400420, Note_off_c, 0, 35, 54
1, 400429, Note_off_c, 0, 43, 64
1, 400433, Note_off_c, 0, 42, 64
1, 400445, Note_on_c, 0, 47, 80
1, 400474, Note_off_c, 0, 44, 65
1, 400504, Note_on_c, 0, 51, 87
1, 400507, Note_off_c, 0, 47, 64
1, 400542, Note_off_c, 0, 51, 66
1, 400564, Note_on_c, 0, 47, 56
1, 400566, Note_on_c, 0, 48, 87
1, 400593, Note_on_c, 0, 52, 81
1, 400623, Note_off_c, 0, 48, 63
1, 400635, Note_on_c, 0, 55, 88
1, 400642, Note_off_c, 0, 52, 64
1, 400646, Note_on_c, 0, 53, 69
1, 400669, Note_off_c, 0, 53, 0
1, 400684, Note_on_c, 0, 53, 70
1, 400688, Note_on_c, 0, 54, 43
1, 400692, Note_off_c, 0, 55, 66
1, 400709, Note_on_c, 0, 52, 45
1, 400716, Note_on_c, 0, 55, 68
1, 400726, Note_off_c, 0, 53, 61
1, 400730, Note_off_c, 0, 47, 0
1, 400736, Note_off_c, 0, 52, 34
1, 400767, Poly_aftertouch_c, 0, 47, 127
1, 400768, Note_off_c, 0, 55, 69
1, 400779, Note_on_c, 0, 59, 73
1, 400799, Poly_aftertouch_c, 0, 47, 0
1, 400804, Note_off_c, 0, 54, 26
1, 400805, Note_off_c, 0, 59, 65
1, 401037, Note_on_c, 0, 75, 119
1, 401040, Note_on_c, 0, 51, 100
1, 401041, Note_on_c, 0, 63, 104
1, 401090, Note_off_c, 0, 63, 70
1, 401096, Note_off_c, 0, 51, 65
1, 401139, Note_off_c, 0, 75, 61
1, 402362, Note_on_c, 0, 46, 103
1, 402365, Note_on_c, 0, 38, 108
1, 402400, Note_off_c, 0, 38, 68
1, 402429, Note_off_c, 0, 46, 62
1, 402485, Note_on_c, 0, 46, 113
1, 402501, Note_on_c, 0, 34, 104
1, 402563, Control_c, 0, 64, 76
1, 402578, Control_c, 0, 64, 0
1, 402844, Control_c, 0, 64, 59
1, 402858, Control_c, 0, 64, 88
1, 402873, Control_c, 0, 64, 127
1, 402942, Note_off_c, 0, 34, 60
1, 402999, Note_off_c, 0, 46, 60
1, 403166, Note_on_c, 0, 38, 76
1, 403246, Note_on_c, 0, 39, 81
1, 403274, Note_on_c, 0, 42, 78
1, 403318, Note_on_c, 0, 46, 85
1, 403370, Note_off_c, 0, 42, 49
1, 403374, Note_on_c, 0, 49, 88
1, 403374, Note_off_c, 0, 46, 62
1, 403411, Note_on_c, 0, 50, 78
1, 403435, Note_on_c, 0, 55, 80
1, 403464, Note_off_c, 0, 50, 62
1, 403490, Note_on_c, 0, 58, 90
1, 403521, Note_on_c, 0, 61, 76
1, 403529, Note_off_c, 0, 49, 62
1, 403530, Note_off_c, 0, 38, 59
1, 403536, Note_off_c, 0, 55, 0
1, 403554, Note_off_c, 0, 58, 62
1, 403556, Note_on_c, 0, 55, 51
1, 403559, Note_on_c, 0, 62, 93
1, 403560, Note_off_c, 0, 61, 66
1, 403586, Note_off_c, 0, 39, 39
1, 403617, Note_on_c, 0, 58, 80
1, 403632, Note_off_c, 0, 62, 61
1, 403644, Note_on_c, 0, 50, 98
1, 403669, Note_off_c, 0, 55, 59
1, 403688, Note_off_c, 0, 50, 64
1, 403690, Note_on_c, 0, 49, 97
1, 403727, Note_off_c, 0, 58, 64
1, 403738, Note_off_c, 0, 49, 68
1, 403770, Control_c, 0, 64, 85
1, 403772, Note_on_c, 0, 38, 103
1, 403785, Control_c, 0, 64, 71
1, 403800, Control_c, 0, 64, 74
1, 403807, Note_off_c, 0, 38, 68
1, 403814, Control_c, 0, 64, 92
1, 403829, Control_c, 0, 64, 127
1, 403996, Note_on_c, 0, 66, 113
1, 404006, Note_on_c, 0, 54, 114
1, 404039, Note_off_c, 0, 54, 70
1, 404078, Note_off_c, 0, 66, 61
1, 405076, Note_on_c, 0, 47, 77
1, 405145, Note_on_c, 0, 44, 87
1, 405155, Note_off_c, 0, 47, 64
1, 405197, Note_off_c, 0, 44, 67
1, 405205, Note_on_c, 0, 40, 75
1, 405267, Note_on_c, 0, 35, 103
1, 405276, Note_off_c, 0, 40, 60
1, 405328, Note_on_c, 0, 32, 93
1, 405345, Note_on_c, 0, 33, 93
1, 405389, Note_off_c, 0, 35, 0
1, 405411, Note_off_c, 0, 33, 63
1, 405419, Note_off_c, 0, 32, 55
1, 405422, Note_on_c, 0, 35, 40
1, 405441, Note_on_c, 0, 44, 99
1, 405442, Note_on_c, 0, 40, 100
1, 405442, Note_on_c, 0, 47, 102
1, 405463, Note_on_c, 0, 32, 90
1, 405467, Poly_aftertouch_c, 0, 34, 0
1, 405512, Control_c, 0, 64, 86
1, 405527, Control_c, 0, 64, 37
1, 405542, Control_c, 0, 64, 0
1, 405899, Control_c, 0, 64, 62
1, 405914, Control_c, 0, 64, 72
1, 405928, Control_c, 0, 64, 74
1, 405943, Control_c, 0, 64, 75
1, 405958, Control_c, 0, 64, 80
1, 405973, Note_off_c, 0, 32, 61
1, 405973, Control_c, 0, 64, 95
1, 405988, Control_c, 0, 64, 127
1, 405995, Note_off_c, 0, 40, 60
1, 405997, Note_off_c, 0, 35, 62
1, 406012, Note_off_c, 0, 47, 63
1, 406023, Note_off_c, 0, 44, 66
1, 406040, Note_on_c, 0, 33, 91
1, 406045, Note_on_c, 0, 35, 86
1, 406085, Note_off_c, 0, 33, 64
1, 406158, Control_c, 0, 64, 100
1, 406173, Control_c, 0, 64, 82
1, 406188, Control_c, 0, 64, 75
1, 406197, Note_on_c, 0, 47, 104
1, 406202, Control_c, 0, 64, 77
1, 406217, Control_c, 0, 64, 86
1, 406221, Note_on_c, 0, 38, 71
1, 406232, Control_c, 0, 64, 105
1, 406247, Control_c, 0, 64, 127
1, 406272, Note_off_c, 0, 38, 61
1, 406293, Note_off_c, 0, 47, 65
1, 406328, Note_on_c, 0, 40, 65
1, 406332, Note_off_c, 0, 35, 55
1, 406340, Note_on_c, 0, 47, 92
1, 406345, Poly_aftertouch_c, 0, 39, 127
1, 406370, Note_off_c, 0, 40, 0
1, 406370, Note_on_c, 0, 40, 45
1, 406391, Poly_aftertouch_c, 0, 39, 0
1, 406423, Note_on_c, 0, 49, 91
1, 406436, Note_off_c, 0, 47, 65
1, 406457, Note_on_c, 0, 42, 85
1, 406466, Note_off_c, 0, 40, 56
1, 406486, Note_on_c, 0, 51, 95
1, 406490, Note_on_c, 0, 44, 76
1, 406504, Note_off_c, 0, 49, 60
1, 406525, Note_on_c, 0, 43, 62
1, 406540, Note_off_c, 0, 51, 65
1, 406546, Note_off_c, 0, 42, 64
1, 406554, Note_off_c, 0, 44, 64
1, 406560, Note_off_c, 0, 43, 64
1, 406569, Note_on_c, 0, 52, 93
1, 406576, Note_on_c, 0, 47, 83
1, 406590, Note_on_c, 0, 46, 23
1, 406594, Note_on_c, 0, 53, 60
1, 406618, Note_off_c, 0, 53, 60
1, 406622, Note_on_c, 0, 54, 70
1, 406624, Note_off_c, 0, 52, 64
1, 406631, Note_off_c, 0, 46, 51
1, 406638, Note_on_c, 0, 55, 90
1, 406641, Note_off_c, 0, 47, 64
1, 406648, Note_off_c, 0, 54, 55
1, 406664, Note_on_c, 0, 49, 96
1, 406671, Note_on_c, 0, 51, 80
1, 406680, Note_on_c, 0, 57, 83
1, 406686, Note_off_c, 0, 55, 65
1, 406694, Note_off_c, 0, 51, 65
1, 406704, Note_off_c, 0, 57, 70
1, 406705, Note_on_c, 0, 58, 98
1, 406734, Note_off_c, 0, 58, 68
1, 406740, Note_on_c, 0, 56, 3
1, 406740, Note_off_c, 0, 49, 62
1, 406760, Note_on_c, 0, 50, 8
1, 406775, Note_off_c, 0, 50, 0
1, 406779, Note_off_c, 0, 56, 47
1, 406796, Poly_aftertouch_c, 0, 50, 0
1, 406864, Note_on_c, 0, 51, 88
1, 406887, Note_on_c, 0, 59, 116
1, 406906, Control_c, 0, 64, 110
1, 406921, Control_c, 0, 64, 64
1, 406936, Control_c, 0, 64, 0
1, 406970, Note_on_c, 0, 50, 66
1, 407009, Note_off_c, 0, 51, 63
1, 407083, Control_c, 0, 64, 41
1, 407098, Control_c, 0, 64, 53
1, 407114, Note_off_c, 0, 50, 62
1, 407114, Control_c, 0, 64, 54
1, 407116, Note_on_c, 0, 51, 83
1, 407129, Control_c, 0, 64, 59
1, 407144, Control_c, 0, 64, 64
1, 407158, Control_c, 0, 64, 67
1, 407163, Note_on_c, 0, 64, 66
1, 407168, Note_on_c, 0, 68, 93
1, 407168, Note_on_c, 0, 71, 101
1, 407173, Control_c, 0, 64, 73
1, 407187, Note_on_c, 0, 50, 81
1, 407188, Control_c, 0, 64, 84
1, 407194, Note_off_c, 0, 51, 62
1, 407203, Control_c, 0, 64, 108
1, 407218, Control_c, 0, 64, 127
1, 407274, Note_on_c, 0, 51, 79
1, 407278, Note_off_c, 0, 50, 62
1, 407341, Note_off_c, 0, 71, 65
1, 407348, Note_on_c, 0, 50, 81
1, 407352, Note_off_c, 0, 68, 63
1, 407354, Note_off_c, 0, 51, 61
1, 407390, Note_off_c, 0, 64, 60
1, 407437, Note_off_c, 0, 50, 60
1, 407438, Note_on_c, 0, 71, 107
1, 407440, Note_on_c, 0, 51, 90
1, 407440, Note_on_c, 0, 68, 99
1, 407441, Note_on_c, 0, 64, 75
1, 407523, Note_on_c, 0, 50, 87
1, 407525, Note_off_c, 0, 51, 59
1, 407570, Note_off_c, 0, 71, 68
1, 407599, Note_off_c, 0, 50, 59
1, 407601, Note_on_c, 0, 51, 88
1, 407603, Note_off_c, 0, 68, 62
1, 407640, Note_off_c, 0, 64, 59
1, 407688, Note_on_c, 0, 68, 99
1, 407688, Note_on_c, 0, 71, 104
1, 407690, Note_on_c, 0, 64, 74
1, 407691, Note_on_c, 0, 50, 93
1, 407697, Note_off_c, 0, 51, 60
1, 407774, Note_on_c, 0, 51, 87
1, 407788, Note_off_c, 0, 50, 58
1, 407841, Note_off_c, 0, 71, 58
1, 407846, Note_on_c, 0, 50, 85
1, 407852, Note_off_c, 0, 68, 56
1, 407855, Note_off_c, 0, 51, 61
1, 407914, Note_off_c, 0, 64, 57
1, 407923, Note_on_c, 0, 51, 95
1, 407931, Note_off_c, 0, 50, 62
1, 407944, Note_off_c, 0, 59, 58
1, 407953, Note_on_c, 0, 71, 109
1, 407956, Note_on_c, 0, 68, 98
1, 407957, Note_on_c, 0, 64, 71
1, 407968, Note_off_c, 0, 51, 67
1, 407972, Note_on_c, 0, 59, 51
1, 407997, Note_off_c, 0, 59, 59
1, 408085, Note_off_c, 0, 71, 62
1, 408096, Note_off_c, 0, 68, 60
1, 408146, Note_off_c, 0, 64, 56
1, 408193, Note_on_c, 0, 71, 107
1, 408195, Note_on_c, 0, 64, 80
1, 408198, Note_on_c, 0, 68, 99
1, 408241, Note_off_c, 0, 71, 70
1, 408251, Note_off_c, 0, 64, 67
1, 408259, Note_off_c, 0, 68, 70
1, 408356, Poly_aftertouch_c, 0, 30, 127
1, 408404, Poly_aftertouch_c, 0, 30, 0
1, 408449, Control_c, 0, 64, 92
1, 408464, Control_c, 0, 64, 64
1, 408478, Control_c, 0, 64, 35
1, 408493, Control_c, 0, 64, 42
1, 408508, Control_c, 0, 64, 60
1, 408523, Control_c, 0, 64, 87
1, 408535, Note_on_c, 0, 31, 94
1, 408535, Note_on_c, 0, 38, 90
1, 408537, Control_c, 0, 64, 127
1, 408538, Note_on_c, 0, 43, 112
1, 408544, Note_on_c, 0, 34, 80
1, 408570, Note_off_c, 0, 43, 71
1, 408576, Note_off_c, 0, 34, 65
1, 408588, Note_off_c, 0, 38, 64
1, 408591, Note_off_c, 0, 31, 63
1, 408597, Control_c, 0, 64, 77
1, 408612, Control_c, 0, 64, 0
1, 408626, Note_on_c, 0, 43, 126
1, 408629, Note_on_c, 0, 31, 95
1, 408630, Note_on_c, 0, 38, 101
1, 408636, Note_on_c, 0, 34, 89
1, 408686, Control_c, 0, 64, 45
1, 408701, Control_c, 0, 64, 78
1, 408716, Control_c, 0, 64, 127
1, 408742, Note_off_c, 0, 43, 68
1, 408934, Note_on_c, 0, 70, 99
1, 408934, Note_on_c, 0, 67, 82
1, 408937, Note_on_c, 0, 62, 93
1, 409013, Note_off_c, 0, 31, 60
1, 409014, Note_off_c, 0, 38, 62
1, 409017, Note_off_c, 0, 34, 61
1, 409086, Note_off_c, 0, 62, 62
1, 409092, Note_off_c, 0, 70, 64
1, 409093, Note_off_c, 0, 67, 61
1, 409187, Note_on_c, 0, 70, 107
1, 409196, Note_on_c, 0, 62, 93
1, 409196, Note_on_c, 0, 67, 86
1, 409352, Note_off_c, 0, 62, 62
1, 409357, Note_off_c, 0, 70, 61
1, 409376, Note_off_c, 0, 67, 41
1, 409433, Note_on_c, 0, 70, 111
1, 409437, Note_on_c, 0, 62, 100
1, 409437, Note_on_c, 0, 67, 67
1, 409443, Note_on_c, 0, 38, 82
1, 409471, Note_off_c, 0, 67, 62
1, 409491, Note_on_c, 0, 39, 79
1, 409519, Note_on_c, 0, 42, 80
1, 409520, Note_off_c, 0, 62, 62
1, 409534, Note_off_c, 0, 70, 66
1, 409555, Note_on_c, 0, 46, 86
1, 409566, Note_off_c, 0, 39, 62
1, 409582, Note_off_c, 0, 42, 62
1, 409615, Note_off_c, 0, 46, 63
1, 409618, Note_on_c, 0, 49, 88
1, 409686, Note_on_c, 0, 55, 78
1, 409686, Note_on_c, 0, 58, 92
1, 409687, Control_c, 0, 64, 88
1, 409701, Control_c, 0, 64, 75
1, 409715, Note_off_c, 0, 55, 66
1, 409716, Control_c, 0, 64, 73
1, 409731, Control_c, 0, 64, 80
1, 409746, Control_c, 0, 64, 107
1, 409760, Note_on_c, 0, 50, 89
1, 409761, Control_c, 0, 64, 127
1, 409763, Note_off_c, 0, 58, 62
1, 409777, Note_off_c, 0, 49, 62
1, 409784, Note_off_c, 0, 38, 61
1, 409789, Note_on_c, 0, 55, 71
1, 409838, Note_off_c, 0, 50, 59
1, 409855, Note_on_c, 0, 58, 87
1, 409899, Note_on_c, 0, 61, 89
1, 409921, Note_on_c, 0, 49, 105
1, 409923, Note_off_c, 0, 58, 66
1, 409956, Note_on_c, 0, 58, 70
1, 409968, Note_off_c, 0, 61, 63
1, 409971, Note_off_c, 0, 49, 67
1, 409992, Note_on_c, 0, 38, 100
1, 410005, Note_on_c, 0, 50, 92
1, 410018, Note_off_c, 0, 38, 68
1, 410025, Note_off_c, 0, 58, 64
1, 410048, Note_on_c, 0, 54, 16
1, 410048, Note_off_c, 0, 54, 127
1, 410082, Note_off_c, 0, 50, 45
1, 410117, Note_off_c, 0, 55, 57
1, 410182, Note_on_c, 0, 62, 107
1, 410186, Note_on_c, 0, 50, 103
1, 410189, Note_on_c, 0, 49, 107
1, 410213, Control_c, 0, 64, 94
1, 410227, Control_c, 0, 64, 57
1, 410242, Control_c, 0, 64, 0
1, 410454, Note_on_c, 0, 55, 84
1, 410462, Note_on_c, 0, 51, 92
1, 410495, Control_c, 0, 64, 31
1, 410510, Control_c, 0, 64, 56
1, 410524, Control_c, 0, 64, 68
1, 410539, Control_c, 0, 64, 77
1, 410554, Control_c, 0, 64, 94
1, 410569, Control_c, 0, 64, 127
1, 410618, Note_off_c, 0, 51, 62
1, 410638, Note_off_c, 0, 55, 63
1, 410722, Note_on_c, 0, 55, 91
1, 410730, Note_on_c, 0, 51, 96
1, 410872, Note_off_c, 0, 51, 59
1, 410886, Note_off_c, 0, 55, 62
1, 410969, Note_on_c, 0, 55, 95
1, 410972, Note_on_c, 0, 51, 95
1, 411003, Note_off_c, 0, 49, 58
1, 411010, Note_off_c, 0, 50, 62
1, 411122, Note_off_c, 0, 51, 59
1, 411127, Note_off_c, 0, 55, 58
1, 411210, Note_on_c, 0, 55, 84
1, 411217, Note_off_c, 0, 62, 59
1, 411226, Note_on_c, 0, 51, 84
1, 411265, Note_off_c, 0, 55, 63
1, 411279, Note_off_c, 0, 51, 60
1, 411414, Control_c, 0, 64, 96
1, 411421, Note_on_c, 0, 47, 95
1, 411429, Control_c, 0, 64, 62
1, 411444, Control_c, 0, 64, 0
1, 411461, Note_on_c, 0, 44, 80
1, 411492, Note_off_c, 0, 47, 64
1, 411517, Note_on_c, 0, 40, 80
1, 411518, Control_c, 0, 64, 61
1, 411532, Note_off_c, 0, 44, 61
1, 411533, Control_c, 0, 64, 88
1, 411547, Control_c, 0, 64, 127
1, 411565, Note_on_c, 0, 35, 98
1, 411632, Note_on_c, 0, 32, 93
1, 411657, Note_off_c, 0, 35, 62
1, 411682, Note_off_c, 0, 40, 0
1, 411693, Note_on_c, 0, 40, 54
1, 411695, Note_on_c, 0, 44, 97
1, 411697, Note_on_c, 0, 47, 103
1, 411703, Note_on_c, 0, 35, 91
1, 411739, Control_c, 0, 64, 92
1, 411754, Control_c, 0, 64, 49
1, 411769, Control_c, 0, 64, 0
1, 411991, Control_c, 0, 64, 52
1, 412006, Note_off_c, 0, 40, 61
1, 412006, Control_c, 0, 64, 73
1, 412010, Note_off_c, 0, 44, 63
1, 412022, Control_c, 0, 64, 127
1, 412077, Note_on_c, 0, 44, 75
1, 412082, Note_on_c, 0, 40, 77
1, 412143, Note_off_c, 0, 35, 49
1, 412159, Note_off_c, 0, 40, 60
1, 412165, Note_off_c, 0, 32, 58
1, 412249, Note_on_c, 0, 40, 77
1, 412274, Note_off_c, 0, 47, 62
1, 412279, Note_off_c, 0, 40, 66
1, 412287, Note_on_c, 0, 35, 86
1, 412293, Note_off_c, 0, 44, 64
1, 412434, Note_on_c, 0, 39, 69
1, 412440, Note_on_c, 0, 47, 98
1, 412487, Note_off_c, 0, 39, 63
1, 412511, Note_off_c, 0, 35, 0
1, 412511, Note_off_c, 0, 47, 64
1, 412516, Poly_aftertouch_c, 0, 39, 0
1, 412526, Note_on_c, 0, 39, 58
1, 412566, Note_on_c, 0, 47, 86
1, 412575, Note_off_c, 0, 39, 62
1, 412587, Note_on_c, 0, 40, 74
1, 412594, Poly_aftertouch_c, 0, 35, 0
1, 412638, Note_off_c, 0, 47, 62
1, 412639, Note_on_c, 0, 49, 86
1, 412662, Note_off_c, 0, 40, 59
1, 412675, Note_on_c, 0, 42, 85
1, 412692, Note_on_c, 0, 51, 90
1, 412703, Note_off_c, 0, 49, 63
1, 412719, Note_on_c, 0, 44, 69
1, 412729, Note_off_c, 0, 51, 63
1, 412757, Note_on_c, 0, 52, 91
1, 412757, Note_off_c, 0, 42, 62
1, 412767, Note_on_c, 0, 46, 87
1, 412776, Note_off_c, 0, 44, 65
1, 412811, Note_on_c, 0, 47, 72
1, 412815, Note_off_c, 0, 46, 65
1, 412818, Note_on_c, 0, 53, 83
1, 412831, Note_off_c, 0, 52, 60
1, 412854, Note_on_c, 0, 56, 90
1, 412877, Note_on_c, 0, 49, 93
1, 412881, Note_off_c, 0, 47, 68
1, 412883, Note_off_c, 0, 53, 64
1, 412893, Note_off_c, 0, 56, 67
1, 412899, Note_on_c, 0, 58, 103
1, 412914, Note_on_c, 0, 55, 49
1, 412914, Note_off_c, 0, 55, 127
1, 412932, Note_off_c, 0, 58, 69
1, 412997, Note_off_c, 0, 49, 61
1, 413057, Note_on_c, 0, 51, 86
1, 413068, Note_on_c, 0, 59, 108
1, 413090, Control_c, 0, 64, 78
1, 413104, Control_c, 0, 64, 42
1, 413119, Control_c, 0, 64, 0
1, 413154, Note_on_c, 0, 50, 81
1, 413187, Note_off_c, 0, 51, 63
1, 413193, Control_c, 0, 64, 31
1, 413208, Control_c, 0, 64, 54
1, 413223, Control_c, 0, 64, 62
1, 413237, Control_c, 0, 64, 66
1, 413252, Control_c, 0, 64, 70
1, 413259, Note_off_c, 0, 50, 64
1, 413267, Control_c, 0, 64, 73
1, 413268, Note_on_c, 0, 51, 76
1, 413282, Control_c, 0, 64, 75
1, 413297, Control_c, 0, 64, 78
1, 413311, Control_c, 0, 64, 82
1, 413326, Control_c, 0, 64, 85
1, 413331, Note_on_c, 0, 50, 80
1, 413334, Note_on_c, 0, 64, 73
1, 413335, Note_on_c, 0, 71, 97
1, 413340, Note_off_c, 0, 51, 59
1, 413341, Note_on_c, 0, 68, 85
1, 413341, Control_c, 0, 64, 88
1, 413356, Control_c, 0, 64, 93
1, 413371, Control_c, 0, 64, 98
1, 413385, Control_c, 0, 64, 112
1, 413400, Control_c, 0, 64, 127
1, 413418, Note_on_c, 0, 51, 77
1, 413420, Note_off_c, 0, 50, 61
1, 413486, Note_on_c, 0, 50, 77
1, 413493, Note_off_c, 0, 51, 62
1, 413494, Note_off_c, 0, 71, 65
1, 413500, Note_off_c, 0, 68, 62
1, 413527, Note_off_c, 0, 64, 62
1, 413583, Note_off_c, 0, 50, 60
1, 413586, Note_on_c, 0, 51, 81
1, 413587, Note_on_c, 0, 71, 102
1, 413589, Note_on_c, 0, 64, 69
1, 413589, Note_on_c, 0, 68, 87
1, 413680, Note_on_c, 0, 50, 86
1, 413702, Note_off_c, 0, 51, 55
1, 413741, Note_off_c, 0, 71, 63
1, 413759, Note_off_c, 0, 68, 63
1, 413766, Note_on_c, 0, 51, 78
1, 413776, Note_off_c, 0, 50, 56
1, 413787, Note_off_c, 0, 64, 57
1, 413844, Note_on_c, 0, 71, 102
1, 413846, Note_on_c, 0, 50, 90
1, 413846, Note_on_c, 0, 68, 96
1, 413849, Note_on_c, 0, 64, 72
1, 413850, Note_off_c, 0, 51, 63
1, 413927, Note_on_c, 0, 51, 86
1, 413936, Note_off_c, 0, 50, 57
1, 413973, Note_off_c, 0, 71, 64
1, 413983, Note_off_c, 0, 68, 61
1, 414002, Note_on_c, 0, 50, 85
1, 414005, Note_off_c, 0, 51, 61
1, 414045, Note_off_c, 0, 64, 49
1, 414065, Note_on_c, 0, 51, 87
1, 414067, Note_off_c, 0, 50, 63
1, 414105, Note_off_c, 0, 51, 65
1, 414110, Note_on_c, 0, 68, 95
1, 414110, Note_on_c, 0, 71, 106
1, 414112, Note_on_c, 0, 64, 79
1, 414243, Note_off_c, 0, 71, 61
1, 414246, Note_off_c, 0, 68, 62
1, 414288, Note_off_c, 0, 64, 59
1, 414298, Note_off_c, 0, 59, 57
1, 414356, Note_on_c, 0, 68, 101
1, 414357, Note_on_c, 0, 71, 99
1, 414365, Note_on_c, 0, 64, 91
1, 414392, Note_on_c, 0, 69, 37
1, 414392, Note_off_c, 0, 69, 127
1, 414407, Note_off_c, 0, 71, 70
1, 414419, Note_off_c, 0, 64, 66
1, 414430, Note_off_c, 0, 68, 69
1, 414543, Control_c, 0, 64, 98
1, 414558, Control_c, 0, 64, 60
1, 414572, Control_c, 0, 64, 0
1, 414672, Note_on_c, 0, 31, 98
1, 414676, Note_on_c, 0, 38, 94
1, 414677, Control_c, 0, 64, 50
1, 414678, Note_on_c, 0, 34, 82
1, 414678, Note_on_c, 0, 43, 113
1, 414691, Control_c, 0, 64, 84
1, 414706, Control_c, 0, 64, 127
1, 414729, Note_off_c, 0, 34, 59
1, 414730, Note_off_c, 0, 38, 62
1, 414732, Note_off_c, 0, 31, 61
1, 414739, Note_off_c, 0, 43, 62
1, 414751, Control_c, 0, 64, 93
1, 414765, Control_c, 0, 64, 62
1, 414776, Note_on_c, 0, 43, 107
1, 414777, Note_on_c, 0, 31, 100
1, 414777, Note_on_c, 0, 38, 102
1, 414780, Control_c, 0, 64, 45
1, 414785, Note_on_c, 0, 34, 81
1, 414795, Control_c, 0, 64, 60
1, 414810, Control_c, 0, 64, 83
1, 414824, Control_c, 0, 64, 127
1, 414861, Note_off_c, 0, 43, 63
1, 414958, Note_off_c, 0, 34, 58
1, 415063, Note_on_c, 0, 70, 106
1, 415065, Note_on_c, 0, 62, 97
1, 415066, Note_on_c, 0, 67, 91
1, 415203, Note_off_c, 0, 31, 57
1, 415210, Note_off_c, 0, 38, 62
1, 415228, Note_off_c, 0, 62, 62
1, 415239, Note_off_c, 0, 70, 66
1, 415252, Note_off_c, 0, 67, 57
1, 415317, Note_on_c, 0, 70, 103
1, 415323, Note_on_c, 0, 62, 94
1, 415326, Note_on_c, 0, 67, 82
1, 415471, Note_off_c, 0, 62, 61
1, 415475, Note_off_c, 0, 70, 64
1, 415480, Note_off_c, 0, 67, 52
1, 415574, Note_on_c, 0, 70, 105
1, 415579, Note_on_c, 0, 62, 93
1, 415581, Note_on_c, 0, 67, 76
1, 415587, Note_on_c, 0, 38, 79
1, 415616, Note_on_c, 0, 39, 74
1, 415653, Note_on_c, 0, 42, 78
1, 415668, Note_off_c, 0, 67, 63
1, 415692, Note_on_c, 0, 46, 83
1, 415693, Note_off_c, 0, 62, 63
1, 415704, Note_off_c, 0, 70, 62
1, 415707, Note_off_c, 0, 39, 61
1, 415724, Note_off_c, 0, 42, 61
1, 415734, Note_off_c, 0, 46, 67
1, 415748, Note_on_c, 0, 49, 87
1, 415854, Note_on_c, 0, 58, 94
1, 415859, Note_on_c, 0, 55, 74
1, 415894, Note_off_c, 0, 55, 66
1, 415934, Note_off_c, 0, 58, 64
1, 415939, Note_on_c, 0, 50, 82
1, 415943, Note_off_c, 0, 49, 62
1, 415958, Note_on_c, 0, 55, 76
1, 415963, Note_off_c, 0, 38, 62
1, 416020, Note_off_c, 0, 50, 61
1, 416049, Note_on_c, 0, 58, 81
1, 416058, Poly_aftertouch_c, 0, 45, 0
1, 416077, Note_on_c, 0, 61, 82
1, 416088, Note_on_c, 0, 49, 96
1, 416098, Note_off_c, 0, 58, 65
1, 416131, Note_off_c, 0, 49, 68
1, 416136, Note_on_c, 0, 58, 73
1, 416166, Note_on_c, 0, 38, 98
1, 416166, Note_off_c, 0, 61, 62
1, 416192, Note_on_c, 0, 50, 93
1, 416210, Note_off_c, 0, 58, 64
1, 416211, Note_off_c, 0, 38, 64
1, 416292, Note_off_c, 0, 50, 60
1, 416336, Note_off_c, 0, 55, 56
1, 416355, Note_on_c, 0, 62, 114
1, 416363, Note_on_c, 0, 50, 103
1, 416368, Note_on_c, 0, 49, 97
1, 416441, Control_c, 0, 64, 85
1, 416455, Control_c, 0, 64, 64
1, 416470, Control_c, 0, 64, 40
1, 416485, Control_c, 0, 64, 0
1, 416621, Note_on_c, 0, 55, 71
1, 416622, Note_on_c, 0, 51, 92
1, 416670, Control_c, 0, 64, 51
1, 416685, Control_c, 0, 64, 65
1, 416700, Control_c, 0, 64, 70
1, 416715, Control_c, 0, 64, 75
1, 416730, Control_c, 0, 64, 80
1, 416744, Control_c, 0, 64, 88
1, 416759, Control_c, 0, 64, 100
1, 416774, Control_c, 0, 64, 127
1, 416778, Note_off_c, 0, 55, 60
1, 416790, Note_off_c, 0, 51, 53
1, 416848, Control_c, 0, 64, 112
1, 416863, Control_c, 0, 64, 88
1, 416878, Control_c, 0, 64, 68
1, 416893, Control_c, 0, 64, 48
1, 416902, Note_on_c, 0, 51, 82
1, 416906, Note_on_c, 0, 55, 72
1, 416908, Control_c, 0, 64, 0
1, 416967, Control_c, 0, 64, 46
1, 416967, Control_c, 0, 67, 22
1, 416982, Control_c, 0, 64, 59
1, 416982, Control_c, 0, 67, 25
1, 416997, Control_c, 0, 64, 65
1, 416997, Control_c, 0, 67, 28
1, 417011, Control_c, 0, 64, 67
1, 417011, Control_c, 0, 67, 32
1, 417026, Control_c, 0, 64, 68
1, 417026, Control_c, 0, 67, 35
1, 417041, Control_c, 0, 64, 67
1, 417041, Control_c, 0, 67, 37
1, 417056, Note_off_c, 0, 55, 56
1, 417056, Control_c, 0, 64, 66
1, 417056, Control_c, 0, 67, 39
1, 417071, Control_c, 0, 64, 64
1, 417071, Control_c, 0, 67, 40
1, 417072, Note_off_c, 0, 51, 50
1, 417085, Control_c, 0, 64, 62
1, 417085, Control_c, 0, 67, 42
1, 417100, Control_c, 0, 64, 58
1, 417100, Control_c, 0, 67, 44
1, 417115, Control_c, 0, 64, 52
1, 417115, Control_c, 0, 67, 49
1, 417130, Control_c, 0, 64, 41
1, 417130, Control_c, 0, 67, 55
1, 417145, Control_c, 0, 64, 0
1, 417145, Control_c, 0, 67, 61
1, 417159, Control_c, 0, 67, 67
1, 417174, Control_c, 0, 67, 72
1, 417177, Note_on_c, 0, 55, 53
1, 417182, Note_on_c, 0, 51, 58
1, 417189, Control_c, 0, 67, 76
1, 417203, Control_c, 0, 67, 82
1, 417218, Control_c, 0, 64, 32
1, 417218, Control_c, 0, 67, 88
1, 417233, Control_c, 0, 64, 51
1, 417233, Control_c, 0, 67, 95
1, 417248, Control_c, 0, 64, 60
1, 417248, Control_c, 0, 67, 102
1, 417263, Control_c, 0, 64, 65
1, 417263, Control_c, 0, 67, 109
1, 417277, Control_c, 0, 64, 69
1, 417277, Control_c, 0, 67, 112
1, 417292, Control_c, 0, 64, 73
1, 417292, Control_c, 0, 67, 114
1, 417307, Control_c, 0, 64, 75
1, 417322, Control_c, 0, 64, 77
1, 417322, Control_c, 0, 67, 117
1, 417325, Note_off_c, 0, 55, 51
1, 417337, Control_c, 0, 64, 78
1, 417352, Control_c, 0, 64, 79
1, 417352, Control_c, 0, 67, 121
1, 417367, Control_c, 0, 64, 79
1, 417367, Control_c, 0, 67, 124
1, 417383, Note_off_c, 0, 51, 34
1, 417389, Control_c, 0, 64, 80
1, 417389, Control_c, 0, 67, 127
1, 417418, Control_c, 0, 64, 79
1, 417433, Control_c, 0, 64, 79
1, 417448, Control_c, 0, 64, 77
1, 417463, Control_c, 0, 64, 73
1, 417478, Control_c, 0, 64, 70
1, 417492, Control_c, 0, 64, 69
1, 417520, Note_on_c, 0, 51, 42
1, 417520, Note_on_c, 0, 55, 43
1, 417522, Control_c, 0, 64, 70
1, 417525, Note_off_c, 0, 49, 60
1, 417532, Note_off_c, 0, 50, 55
1, 417537, Control_c, 0, 64, 71
1, 417642, Control_c, 0, 64, 70
1, 417657, Control_c, 0, 64, 68
1, 417672, Control_c, 0, 64, 67
1, 417687, Control_c, 0, 64, 65
1, 417702, Control_c, 0, 64, 65
1, 417760, Control_c, 0, 64, 64
1, 417775, Control_c, 0, 64, 63
1, 417790, Control_c, 0, 64, 63
1, 417805, Control_c, 0, 64, 62
1, 417820, Control_c, 0, 64, 61
1, 417835, Control_c, 0, 64, 61
1, 417850, Control_c, 0, 64, 60
1, 417880, Control_c, 0, 64, 60
1, 417895, Control_c, 0, 64, 59
1, 417909, Control_c, 0, 64, 58
1, 417924, Control_c, 0, 64, 57
1, 417939, Control_c, 0, 64, 55
1, 417953, Control_c, 0, 64, 55
1, 417968, Control_c, 0, 64, 54
1, 417972, Note_off_c, 0, 62, 56
1, 417987, Note_off_c, 0, 51, 52
1, 417993, Note_off_c, 0, 55, 57
1, 417998, Control_c, 0, 64, 53
1, 418013, Control_c, 0, 64, 52
1, 418014, Note_on_c, 0, 38, 45
1, 418027, Control_c, 0, 64, 49
1, 418042, Control_c, 0, 64, 44
1, 418057, Control_c, 0, 64, 39
1, 418072, Control_c, 0, 64, 0
1, 418082, Note_off_c, 0, 38, 56
1, 418198, Note_on_c, 0, 26, 35
1, 418598, Control_c, 0, 64, 41
1, 418613, Control_c, 0, 64, 50
1, 418628, Control_c, 0, 64, 54
1, 418643, Control_c, 0, 64, 59
1, 418658, Control_c, 0, 64, 61
1, 418673, Control_c, 0, 64, 64
1, 418687, Control_c, 0, 64, 67
1, 418702, Control_c, 0, 64, 71
1, 418717, Control_c, 0, 64, 76
1, 418732, Control_c, 0, 64, 83
1, 418747, Control_c, 0, 64, 91
1, 418756, Note_off_c, 0, 26, 51
1, 418762, Control_c, 0, 64, 103
1, 418776, Control_c, 0, 64, 127
1, 419366, Note_on_c, 0, 39, 26
1, 419367, Note_on_c, 0, 38, 18
1, 419370, Note_on_c, 0, 42, 32
1, 419441, Note_off_c, 0, 39, 55
1, 419450, Note_off_c, 0, 38, 58
1, 419494, Note_on_c, 0, 43, 37
1, 419509, Note_off_c, 0, 42, 36
1, 419579, Note_off_c, 0, 43, 59
1, 419612, Note_on_c, 0, 45, 36
1, 419649, Note_on_c, 0, 46, 56
1, 419656, Note_off_c, 0, 45, 54
1, 419704, Note_off_c, 0, 46, 59
1, 419729, Note_on_c, 0, 48, 50
1, 419775, Note_off_c, 0, 48, 62
1, 419812, Note_on_c, 0, 49, 52
1, 419854, Note_off_c, 0, 49, 58
1, 419897, Note_on_c, 0, 38, 56
1, 419933, Note_off_c, 0, 38, 63
1, 419991, Note_on_c, 0, 55, 54
1, 420068, Note_off_c, 0, 55, 61
1, 420239, Note_on_c, 0, 66, 65
1, 420245, Control_c, 0, 64, 112
1, 420260, Control_c, 0, 64, 96
1, 420267, Note_on_c, 0, 55, 44
1, 420272, Note_on_c, 0, 46, 48
1, 420275, Control_c, 0, 64, 85
1, 420278, Note_on_c, 0, 50, 36
1, 420280, Note_on_c, 0, 61, 34
1, 420290, Control_c, 0, 64, 77
1, 420304, Control_c, 0, 64, 73
1, 420319, Control_c, 0, 64, 69
1, 420334, Control_c, 0, 64, 66
1, 420349, Control_c, 0, 64, 64
1, 420358, Note_off_c, 0, 46, 48
1, 420363, Control_c, 0, 64, 62
1, 420386, Control_c, 0, 64, 61
1, 420401, Control_c, 0, 64, 60
1, 420416, Control_c, 0, 64, 59
1, 420431, Control_c, 0, 64, 58
1, 420445, Control_c, 0, 64, 56
1, 420460, Control_c, 0, 64, 54
1, 420475, Control_c, 0, 64, 52
1, 420490, Control_c, 0, 64, 51
1, 420505, Control_c, 0, 64, 50
1, 420519, Control_c, 0, 64, 46
1, 420534, Control_c, 0, 64, 41
1, 420549, Control_c, 0, 64, 39
1, 420550, Note_on_c, 0, 46, 43
1, 420578, Control_c, 0, 64, 39
1, 420593, Control_c, 0, 64, 40
1, 420608, Control_c, 0, 64, 41
1, 420623, Control_c, 0, 64, 43
1, 420631, Note_off_c, 0, 46, 56
1, 420637, Control_c, 0, 64, 47
1, 420652, Control_c, 0, 64, 50
1, 420667, Control_c, 0, 64, 52
1, 420682, Control_c, 0, 64, 52
1, 420697, Control_c, 0, 64, 52
1, 420726, Control_c, 0, 64, 51
1, 420771, Control_c, 0, 64, 51
1, 420786, Control_c, 0, 64, 50
1, 420801, Control_c, 0, 64, 50
1, 420816, Control_c, 0, 64, 51
1, 420831, Control_c, 0, 64, 53
1, 420837, Note_on_c, 0, 46, 44
1, 420846, Control_c, 0, 64, 56
1, 420861, Control_c, 0, 64, 58
1, 420875, Control_c, 0, 64, 60
1, 420890, Control_c, 0, 64, 61
1, 420905, Control_c, 0, 64, 63
1, 420908, Note_off_c, 0, 46, 59
1, 420920, Control_c, 0, 64, 64
1, 420935, Control_c, 0, 64, 64
1, 420950, Control_c, 0, 64, 63
1, 420965, Control_c, 0, 64, 62
1, 420994, Control_c, 0, 64, 62
1, 421009, Control_c, 0, 64, 61
1, 421024, Control_c, 0, 64, 59
1, 421039, Control_c, 0, 64, 58
1, 421053, Control_c, 0, 64, 57
1, 421115, Note_on_c, 0, 46, 52
1, 421135, Control_c, 0, 64, 58
1, 421150, Control_c, 0, 64, 59
1, 421165, Control_c, 0, 64, 61
1, 421192, Note_off_c, 0, 46, 61
1, 421194, Control_c, 0, 64, 61
1, 421209, Control_c, 0, 64, 60
1, 421224, Control_c, 0, 64, 59
1, 421239, Control_c, 0, 64, 59
1, 421268, Control_c, 0, 64, 58
1, 421283, Control_c, 0, 64, 57
1, 421298, Control_c, 0, 64, 56
1, 421312, Control_c, 0, 64, 56
1, 421341, Control_c, 0, 64, 56
1, 421385, Control_c, 0, 64, 57
1, 421400, Control_c, 0, 64, 58
1, 421415, Control_c, 0, 64, 60
1, 421418, Note_on_c, 0, 46, 46
1, 421430, Control_c, 0, 64, 61
1, 421445, Control_c, 0, 64, 62
1, 421460, Control_c, 0, 64, 63
1, 421475, Control_c, 0, 64, 63
1, 421490, Control_c, 0, 64, 63
1, 421494, Note_off_c, 0, 46, 59
1, 421504, Control_c, 0, 64, 62
1, 421519, Control_c, 0, 64, 61
1, 421534, Control_c, 0, 64, 60
1, 421564, Control_c, 0, 64, 59
1, 421578, Control_c, 0, 64, 58
1, 421593, Control_c, 0, 64, 56
1, 421609, Control_c, 0, 64, 55
1, 421668, Control_c, 0, 64, 55
1, 421698, Control_c, 0, 64, 55
1, 421713, Control_c, 0, 64, 56
1, 421727, Control_c, 0, 64, 57
1, 421742, Control_c, 0, 64, 58
1, 421747, Note_on_c, 0, 46, 35
1, 421757, Control_c, 0, 64, 58
1, 421772, Control_c, 0, 64, 59
1, 421787, Control_c, 0, 64, 59
1, 421801, Control_c, 0, 64, 61
1, 421816, Control_c, 0, 64, 62
1, 421831, Control_c, 0, 64, 64
1, 421846, Control_c, 0, 64, 65
1, 421848, Note_off_c, 0, 46, 60
1, 421861, Control_c, 0, 64, 65
1, 421883, Control_c, 0, 64, 66
1, 421898, Control_c, 0, 64, 69
1, 421913, Control_c, 0, 64, 73
1, 421913, Note_off_c, 0, 50, 54
1, 421927, Control_c, 0, 64, 78
1, 421942, Control_c, 0, 64, 82
1, 421957, Control_c, 0, 64, 84
1, 421972, Control_c, 0, 64, 86
1, 421987, Control_c, 0, 64, 88
1, 422001, Control_c, 0, 64, 89
1, 422016, Control_c, 0, 64, 90
1, 422180, Control_c, 0, 64, 89
1, 422209, Control_c, 0, 64, 89
1, 422239, Control_c, 0, 64, 88
1, 422262, Note_on_c, 0, 38, 34
1, 422269, Control_c, 0, 64, 87
1, 422283, Control_c, 0, 64, 86
1, 422298, Control_c, 0, 64, 84
1, 422307, Note_off_c, 0, 55, 41
1, 422313, Control_c, 0, 64, 82
1, 422326, Note_off_c, 0, 66, 57
1, 422327, Control_c, 0, 64, 79
1, 422331, Note_off_c, 0, 61, 54
1, 422342, Note_off_c, 0, 38, 39
1, 422342, Control_c, 0, 64, 76
1, 422357, Control_c, 0, 64, 72
1, 422372, Control_c, 0, 64, 68
1, 422382, Note_on_c, 0, 26, 44
1, 422387, Control_c, 0, 64, 64
1, 422403, Control_c, 0, 64, 61
1, 422418, Control_c, 0, 64, 58
1, 422432, Control_c, 0, 64, 53
1, 422447, Control_c, 0, 64, 46
1, 422462, Control_c, 0, 64, 35
1, 422477, Control_c, 0, 64, 0
1, 422750, Control_c, 0, 64, 37
1, 422765, Control_c, 0, 64, 51
1, 422780, Control_c, 0, 64, 59
1, 422795, Control_c, 0, 64, 64
1, 422810, Control_c, 0, 64, 68
1, 422825, Control_c, 0, 64, 74
1, 422840, Control_c, 0, 64, 79
1, 422855, Control_c, 0, 64, 86
1, 422870, Control_c, 0, 64, 95
1, 422878, Note_off_c, 0, 26, 51
1, 422884, Control_c, 0, 64, 111
1, 422899, Control_c, 0, 64, 127
1, 423376, Note_on_c, 0, 42, 39
1, 423412, Note_on_c, 0, 38, 22
1, 423424, Note_on_c, 0, 39, 20
1, 423490, Note_off_c, 0, 39, 56
1, 423499, Note_off_c, 0, 38, 56
1, 423517, Note_on_c, 0, 43, 39
1, 423546, Note_off_c, 0, 42, 40
1, 423627, Note_off_c, 0, 43, 50
1, 423628, Note_on_c, 0, 45, 44
1, 423671, Note_off_c, 0, 45, 62
1, 423675, Note_on_c, 0, 46, 54
1, 423733, Note_off_c, 0, 46, 60
1, 423761, Note_on_c, 0, 48, 45
1, 423810, Note_off_c, 0, 48, 63
1, 423837, Note_on_c, 0, 49, 60
1, 423882, Note_off_c, 0, 49, 59
1, 423940, Note_on_c, 0, 38, 54
1, 423990, Note_off_c, 0, 38, 53
1, 424038, Note_on_c, 0, 55, 51
1, 424100, Note_off_c, 0, 55, 60
1, 424188, Control_c, 0, 64, 116
1, 424202, Control_c, 0, 64, 109
1, 424217, Control_c, 0, 64, 105
1, 424232, Control_c, 0, 64, 100
1, 424247, Control_c, 0, 64, 93
1, 424262, Control_c, 0, 64, 86
1, 424277, Control_c, 0, 64, 78
1, 424283, Note_on_c, 0, 66, 61
1, 424292, Control_c, 0, 64, 72
1, 424303, Note_on_c, 0, 46, 47
1, 424303, Note_on_c, 0, 55, 40
1, 424306, Control_c, 0, 64, 67
1, 424308, Note_on_c, 0, 50, 37
1, 424308, Note_on_c, 0, 61, 46
1, 424321, Control_c, 0, 64, 62
1, 424336, Control_c, 0, 64, 57
1, 424351, Control_c, 0, 64, 54
1, 424366, Control_c, 0, 64, 51
1, 424381, Control_c, 0, 64, 49
1, 424386, Note_off_c, 0, 46, 57
1, 424395, Control_c, 0, 64, 47
1, 424410, Control_c, 0, 64, 45
1, 424425, Control_c, 0, 64, 41
1, 424440, Control_c, 0, 64, 38
1, 424454, Control_c, 0, 64, 36
1, 424514, Control_c, 0, 64, 35
1, 424528, Control_c, 0, 64, 35
1, 424543, Control_c, 0, 64, 34
1, 424558, Control_c, 0, 64, 34
1, 424573, Control_c, 0, 64, 31
1, 424588, Control_c, 0, 64, 0
1, 424590, Note_on_c, 0, 46, 52
1, 424643, Note_off_c, 0, 46, 62
1, 424891, Note_on_c, 0, 46, 46
1, 424958, Note_off_c, 0, 46, 55
1, 425183, Note_on_c, 0, 46, 46
1, 425256, Note_off_c, 0, 46, 55
1, 425485, Control_c, 0, 64, 30
1, 425515, Control_c, 0, 64, 32
1, 425530, Control_c, 0, 64, 35
1, 425541, Note_on_c, 0, 46, 36
1, 425544, Control_c, 0, 64, 37
1, 425559, Control_c, 0, 64, 40
1, 425574, Control_c, 0, 64, 42
1, 425590, Control_c, 0, 64, 43
1, 425605, Control_c, 0, 64, 44
1, 425627, Control_c, 0, 64, 46
1, 425642, Control_c, 0, 64, 50
1, 425657, Control_c, 0, 64, 53
1, 425672, Control_c, 0, 64, 55
1, 425687, Control_c, 0, 64, 56
1, 425701, Control_c, 0, 64, 58
1, 425703, Note_off_c, 0, 46, 57
1, 425716, Control_c, 0, 64, 62
1, 425731, Control_c, 0, 64, 65
1, 425746, Control_c, 0, 64, 66
1, 425790, Control_c, 0, 64, 67
1, 425835, Control_c, 0, 64, 67
1, 425849, Control_c, 0, 64, 68
1, 425864, Control_c, 0, 64, 72
1, 425879, Control_c, 0, 64, 76
1, 425893, Control_c, 0, 64, 81
1, 425908, Control_c, 0, 64, 85
1, 425914, Note_off_c, 0, 50, 52
1, 425923, Control_c, 0, 64, 90
1, 425938, Control_c, 0, 64, 98
1, 425953, Control_c, 0, 64, 116
1, 425967, Control_c, 0, 64, 127
1, 426295, Note_on_c, 0, 38, 37
1, 426340, Note_off_c, 0, 38, 61
1, 426359, Note_off_c, 0, 55, 49
1, 426375, Control_c, 0, 64, 115
1, 426390, Control_c, 0, 64, 105
1, 426405, Control_c, 0, 64, 99
1, 426420, Note_off_c, 0, 61, 39
1, 426420, Control_c, 0, 64, 93
1, 426435, Control_c, 0, 64, 88
1, 426438, Note_off_c, 0, 66, 46
1, 426450, Control_c, 0, 64, 82
1, 426465, Control_c, 0, 64, 76
1, 426470, Note_on_c, 0, 26, 51
1, 426480, Control_c, 0, 64, 71
1, 426494, Control_c, 0, 64, 67
1, 426509, Control_c, 0, 64, 63
1, 426524, Control_c, 0, 64, 59
1, 426539, Control_c, 0, 64, 52
1, 426554, Control_c, 0, 64, 43
1, 426569, Control_c, 0, 64, 0
1, 426805, Control_c, 0, 64, 42
1, 426820, Control_c, 0, 64, 55
1, 426835, Control_c, 0, 64, 62
1, 426849, Control_c, 0, 64, 65
1, 426864, Control_c, 0, 64, 68
1, 426879, Control_c, 0, 64, 70
1, 426894, Control_c, 0, 64, 74
1, 426909, Control_c, 0, 64, 82
1, 426924, Control_c, 0, 64, 90
1, 426939, Control_c, 0, 64, 99
1, 426954, Control_c, 0, 64, 112
1, 426965, Note_off_c, 0, 26, 38
1, 426968, Control_c, 0, 64, 127
1, 427569, Control_c, 0, 64, 105
1, 427582, Note_on_c, 0, 42, 40
1, 427584, Control_c, 0, 64, 88
1, 427599, Control_c, 0, 64, 79
1, 427600, Note_on_c, 0, 38, 30
1, 427613, Control_c, 0, 64, 77
1, 427615, Note_on_c, 0, 39, 27
1, 427658, Control_c, 0, 64, 78
1, 427672, Control_c, 0, 64, 79
1, 427687, Control_c, 0, 64, 81
1, 427690, Note_on_c, 0, 43, 34
1, 427702, Control_c, 0, 64, 85
1, 427717, Control_c, 0, 64, 89
1, 427732, Control_c, 0, 64, 90
1, 427746, Control_c, 0, 64, 90
1, 427756, Note_off_c, 0, 38, 37
1, 427767, Note_off_c, 0, 39, 34
1, 427796, Note_off_c, 0, 43, 52
1, 427803, Note_on_c, 0, 45, 49
1, 427809, Note_off_c, 0, 42, 40
1, 427850, Note_off_c, 0, 45, 61
1, 427853, Note_on_c, 0, 46, 51
1, 427872, Control_c, 0, 64, 90
1, 427887, Control_c, 0, 64, 89
1, 427902, Control_c, 0, 64, 89
1, 427917, Note_off_c, 0, 46, 46
1, 427917, Control_c, 0, 64, 88
1, 427950, Note_on_c, 0, 48, 51
1, 428005, Note_off_c, 0, 48, 62
1, 428039, Note_on_c, 0, 49, 60
1, 428081, Control_c, 0, 64, 88
1, 428090, Note_off_c, 0, 49, 53
1, 428197, Note_on_c, 0, 38, 35
1, 428200, Control_c, 0, 64, 87
1, 428218, Note_on_c, 0, 36, 3
1, 428229, Control_c, 0, 64, 87
1, 428232, Note_off_c, 0, 38, 52
1, 428260, Note_off_c, 0, 36, 50
1, 428269, Note_on_c, 0, 55, 61
1, 428274, Control_c, 0, 64, 86
1, 428288, Control_c, 0, 64, 86
1, 428318, Control_c, 0, 64, 85
1, 428346, Note_off_c, 0, 55, 54
1, 428348, Control_c, 0, 64, 85
1, 428392, Control_c, 0, 64, 84
1, 428407, Control_c, 0, 64, 84
1, 428436, Control_c, 0, 64, 83
1, 428495, Control_c, 0, 64, 83
1, 428510, Control_c, 0, 64, 82
1, 428525, Control_c, 0, 64, 82
1, 428555, Control_c, 0, 64, 81
1, 428584, Control_c, 0, 64, 81
1, 428599, Control_c, 0, 64, 80
1, 428621, Control_c, 0, 64, 79
1, 428636, Control_c, 0, 64, 78
1, 428651, Control_c, 0, 64, 78
1, 428654, Note_on_c, 0, 66, 60
1, 428666, Control_c, 0, 64, 77
1, 428676, Note_on_c, 0, 55, 42
1, 428680, Note_on_c, 0, 61, 48
1, 428681, Control_c, 0, 64, 77
1, 428689, Note_on_c, 0, 50, 30
1, 428694, Note_on_c, 0, 46, 37
1, 428695, Control_c, 0, 64, 76
1, 428710, Control_c, 0, 64, 74
1, 428725, Control_c, 0, 64, 73
1, 428740, Control_c, 0, 64, 71
1, 428755, Control_c, 0, 64, 70
1, 428769, Control_c, 0, 64, 67
1, 428784, Control_c, 0, 64, 65
1, 428800, Control_c, 0, 64, 63
1, 428815, Control_c, 0, 64, 59
1, 428830, Control_c, 0, 64, 57
1, 428844, Control_c, 0, 64, 55
1, 428859, Control_c, 0, 64, 52
1, 428874, Control_c, 0, 64, 47
1, 428889, Control_c, 0, 64, 40
1, 428904, Control_c, 0, 64, 0
1, 429920, Control_c, 0, 64, 37
1, 429934, Control_c, 0, 64, 45
1, 429949, Control_c, 0, 64, 51
1, 429964, Control_c, 0, 64, 56
1, 429979, Control_c, 0, 64, 60
1, 429993, Control_c, 0, 64, 63
1, 430008, Control_c, 0, 64, 65
1, 430023, Control_c, 0, 64, 67
1, 430038, Control_c, 0, 64, 70
1, 430053, Control_c, 0, 64, 74
1, 430067, Control_c, 0, 64, 78
1, 430082, Control_c, 0, 64, 83
1, 430097, Control_c, 0, 64, 90
1, 430119, Control_c, 0, 64, 100
1, 430134, Control_c, 0, 64, 118
1, 430149, Control_c, 0, 64, 127
1, 430181, Note_off_c, 0, 46, 43
1, 430209, Note_off_c, 0, 61, 28
1, 430216, Note_off_c, 0, 55, 34
1, 430237, Note_off_c, 0, 66, 36
1, 430246, Note_off_c, 0, 50, 36
1, 430986, Note_on_c, 0, 66, 37
1, 430994, Note_on_c, 0, 46, 44
1, 430999, Note_on_c, 0, 61, 39
1, 431008, Note_on_c, 0, 55, 27
1, 431013, Note_on_c, 0, 50, 30
1, 431522, Note_off_c, 0, 55, 23
1, 431905, Note_off_c, 0, 50, 38
1, 432099, Note_off_c, 0, 46, 44
1, 433149, Note_on_c, 0, 38, 39
1, 433776, Note_on_c, 0, 37, 53
1, 433785, Note_off_c, 0, 38, 41
1, 434090, Note_off_c, 0, 37, 36
1, 434426, Note_on_c, 0, 38, 54
1, 434429, Note_on_c, 0, 54, 44
1, 434531, Control_c, 0, 64, 110
1, 434546, Control_c, 0, 64, 93
1, 434561, Control_c, 0, 64, 82
1, 434576, Control_c, 0, 64, 75
1, 434591, Control_c, 0, 64, 70
1, 434613, Control_c, 0, 64, 68
1, 434643, Control_c, 0, 64, 69
1, 434657, Control_c, 0, 64, 71
1, 434672, Control_c, 0, 64, 76
1, 434687, Control_c, 0, 64, 81
1, 434697, Note_off_c, 0, 61, 35
1, 434702, Control_c, 0, 64, 86
1, 434717, Control_c, 0, 64, 90
1, 434731, Control_c, 0, 64, 96
1, 434746, Control_c, 0, 64, 103
1, 434761, Control_c, 0, 64, 112
1, 434776, Control_c, 0, 64, 127
1, 434998, Control_c, 0, 64, 118
1, 435013, Control_c, 0, 64, 115
1, 435028, Control_c, 0, 64, 111
1, 435043, Control_c, 0, 64, 107
1, 435057, Control_c, 0, 64, 104
1, 435072, Control_c, 0, 64, 100
1, 435087, Control_c, 0, 64, 96
1, 435101, Control_c, 0, 64, 94
1, 435116, Note_on_c, 0, 61, 45
1, 435116, Control_c, 0, 64, 93
1, 435124, Note_on_c, 0, 55, 56
1, 435131, Control_c, 0, 64, 91
1, 435138, Note_on_c, 0, 46, 63
1, 435146, Control_c, 0, 64, 90
1, 435161, Control_c, 0, 64, 88
1, 435177, Control_c, 0, 64, 85
1, 435192, Control_c, 0, 64, 82
1, 435206, Control_c, 0, 64, 80
1, 435221, Control_c, 0, 64, 77
1, 435236, Control_c, 0, 64, 74
1, 435251, Control_c, 0, 64, 70
1, 435262, Note_off_c, 0, 54, 34
1, 435266, Control_c, 0, 64, 67
1, 435280, Control_c, 0, 64, 60
1, 435295, Control_c, 0, 64, 51
1, 435310, Control_c, 0, 64, 40
1, 435325, Control_c, 0, 64, 0
1, 435377, Control_c, 0, 64, 37
1, 435392, Control_c, 0, 64, 51
1, 435406, Control_c, 0, 64, 58
1, 435421, Control_c, 0, 64, 61
1, 435436, Control_c, 0, 64, 65
1, 435451, Control_c, 0, 64, 68
1, 435466, Control_c, 0, 64, 73
1, 435481, Control_c, 0, 64, 80
1, 435495, Control_c, 0, 64, 87
1, 435510, Control_c, 0, 64, 93
1, 435525, Control_c, 0, 64, 99
1, 435539, Control_c, 0, 64, 106
1, 435554, Control_c, 0, 64, 115
1, 435569, Control_c, 0, 64, 127
1, 435753, Note_off_c, 0, 38, 11
1, 435777, Control_c, 0, 64, 117
1, 435792, Control_c, 0, 64, 113
1, 435806, Control_c, 0, 64, 111
1, 435821, Control_c, 0, 64, 107
1, 435836, Control_c, 0, 64, 102
1, 435851, Control_c, 0, 64, 98
1, 435866, Control_c, 0, 64, 95
1, 435880, Control_c, 0, 64, 92
1, 435885, Note_on_c, 0, 48, 65
1, 435895, Control_c, 0, 64, 90
1, 435900, Note_on_c, 0, 56, 48
1, 435910, Control_c, 0, 64, 88
1, 435924, Control_c, 0, 64, 85
1, 435939, Control_c, 0, 64, 82
1, 435954, Control_c, 0, 64, 79
1, 435969, Control_c, 0, 64, 76
1, 435985, Control_c, 0, 64, 71
1, 435992, Note_off_c, 0, 46, 56
1, 436000, Control_c, 0, 64, 67
1, 436012, Note_off_c, 0, 55, 35
1, 436015, Control_c, 0, 64, 64
1, 436029, Control_c, 0, 64, 61
1, 436044, Control_c, 0, 64, 58
1, 436059, Control_c, 0, 64, 55
1, 436074, Control_c, 0, 64, 47
1, 436089, Control_c, 0, 64, 35
1, 436111, Control_c, 0, 64, 0
1, 436215, Control_c, 0, 64, 48
1, 436229, Control_c, 0, 64, 57
1, 436244, Control_c, 0, 64, 60
1, 436259, Control_c, 0, 64, 62
1, 436274, Control_c, 0, 64, 65
1, 436289, Control_c, 0, 64, 70
1, 436304, Control_c, 0, 64, 78
1, 436318, Control_c, 0, 64, 87
1, 436331, Note_off_c, 0, 48, 46
1, 436333, Control_c, 0, 64, 98
1, 436348, Control_c, 0, 64, 112
1, 436362, Control_c, 0, 64, 127
1, 436370, Note_off_c, 0, 56, 60
1, 436499, Note_off_c, 0, 61, 33
1, 436683, Note_off_c, 0, 66, 18
1, 436838, Control_c, 0, 67, 123
1, 436859, Control_c, 0, 67, 118
1, 436874, Control_c, 0, 67, 114
1, 436889, Control_c, 0, 67, 110
1, 436904, Control_c, 0, 67, 107
1, 436934, Control_c, 0, 67, 105
1, 436949, Note_on_c, 0, 60, 67
1, 436966, Note_on_c, 0, 57, 53
1, 436978, Note_on_c, 0, 49, 50
1, 437023, Control_c, 0, 64, 116
1, 437038, Control_c, 0, 64, 94
1, 437038, Control_c, 0, 67, 103
1, 437052, Control_c, 0, 64, 79
1, 437067, Control_c, 0, 64, 65
1, 437067, Control_c, 0, 67, 95
1, 437082, Control_c, 0, 64, 38
1, 437082, Control_c, 0, 67, 84
1, 437097, Control_c, 0, 64, 0
1, 437097, Control_c, 0, 67, 69
1, 437111, Control_c, 0, 67, 48
1, 437126, Control_c, 0, 67, 21
1, 437141, Control_c, 0, 67, 0
1, 437491, Note_on_c, 0, 66, 72
1, 437511, Control_c, 0, 64, 31
1, 437518, Note_on_c, 0, 54, 43
1, 437526, Control_c, 0, 64, 41
1, 437541, Control_c, 0, 64, 46
1, 437556, Control_c, 0, 64, 52
1, 437571, Control_c, 0, 64, 58
1, 437586, Control_c, 0, 64, 62
1, 437608, Control_c, 0, 64, 65
1, 437623, Control_c, 0, 64, 67
1, 437638, Control_c, 0, 64, 70
1, 437653, Control_c, 0, 64, 74
1, 437668, Control_c, 0, 64, 80
1, 437682, Control_c, 0, 64, 90
1, 437697, Control_c, 0, 64, 103
1, 437712, Control_c, 0, 64, 127
1, 437935, Note_on_c, 0, 50, 39
1, 438120, Note_off_c, 0, 50, 39
1, 438274, Control_c, 0, 64, 110
1, 438289, Control_c, 0, 64, 101
1, 438304, Control_c, 0, 64, 96
1, 438319, Control_c, 0, 64, 93
1, 438333, Control_c, 0, 64, 89
1, 438355, Note_on_c, 0, 62, 56
1, 438355, Control_c, 0, 64, 82
1, 438370, Control_c, 0, 64, 74
1, 438379, Note_on_c, 0, 50, 34
1, 438386, Control_c, 0, 64, 67
1, 438401, Control_c, 0, 64, 61
1, 438416, Control_c, 0, 64, 55
1, 438430, Control_c, 0, 64, 53
1, 438438, Note_off_c, 0, 66, 39
1, 438445, Control_c, 0, 64, 54
1, 438460, Control_c, 0, 64, 58
1, 438475, Control_c, 0, 64, 62
1, 438490, Control_c, 0, 64, 66
1, 438505, Control_c, 0, 64, 68
1, 438519, Control_c, 0, 64, 70
1, 438534, Control_c, 0, 64, 73
1, 438549, Control_c, 0, 64, 76
1, 438564, Control_c, 0, 64, 80
1, 438579, Control_c, 0, 64, 84
1, 438594, Control_c, 0, 64, 87
1, 438609, Control_c, 0, 64, 91
1, 438622, Note_off_c, 0, 50, 41
1, 438623, Control_c, 0, 64, 96
1, 438638, Control_c, 0, 64, 104
1, 438653, Control_c, 0, 64, 113
1, 438668, Control_c, 0, 64, 127
1, 438757, Note_off_c, 0, 49, 29
1, 438792, Note_off_c, 0, 62, 54
1, 439166, Note_on_c, 0, 62, 36
1, 439175, Note_on_c, 0, 50, 26
1, 439312, Note_off_c, 0, 54, 3
1, 439335, Note_off_c, 0, 57, 51
1, 439360, Note_off_c, 0, 50, 36
1, 439531, Note_off_c, 0, 60, 34
1, 439631, Note_on_c, 0, 56, 57
1, 439639, Note_on_c, 0, 45, 50
1, 439639, Control_c, 0, 64, 107
1, 439643, Note_on_c, 0, 53, 55
1, 439653, Control_c, 0, 64, 97
1, 439668, Control_c, 0, 64, 88
1, 439683, Control_c, 0, 64, 80
1, 439697, Control_c, 0, 64, 73
1, 439712, Control_c, 0, 64, 65
1, 439727, Control_c, 0, 64, 53
1, 439742, Control_c, 0, 64, 0
1, 439897, Control_c, 0, 64, 37
1, 439912, Control_c, 0, 64, 48
1, 439927, Control_c, 0, 64, 59
1, 439942, Control_c, 0, 64, 64
1, 439957, Control_c, 0, 64, 67
1, 439973, Control_c, 0, 64, 69
1, 439988, Control_c, 0, 64, 71
1, 440002, Control_c, 0, 64, 73
1, 440017, Control_c, 0, 64, 76
1, 440032, Control_c, 0, 64, 79
1, 440047, Control_c, 0, 64, 84
1, 440059, Note_off_c, 0, 62, 0
1, 440063, Control_c, 0, 64, 88
1, 440077, Control_c, 0, 64, 93
1, 440085, Note_on_c, 0, 66, 74
1, 440092, Control_c, 0, 64, 96
1, 440096, Poly_aftertouch_c, 0, 62, 127
1, 440101, Note_on_c, 0, 54, 54
1, 440107, Control_c, 0, 64, 98
1, 440122, Control_c, 0, 64, 102
1, 440136, Control_c, 0, 64, 109
1, 440151, Control_c, 0, 64, 127
1, 440183, Poly_aftertouch_c, 0, 62, 0
1, 440228, Note_off_c, 0, 54, 60
1, 440462, Control_c, 0, 67, 19
1, 440503, Note_on_c, 0, 50, 44
1, 440521, Control_c, 0, 67, 22
1, 440618, Control_c, 0, 67, 24
1, 440662, Control_c, 0, 67, 26
1, 440684, Note_off_c, 0, 50, 55
1, 440797, Control_c, 0, 64, 113
1, 440812, Control_c, 0, 64, 108
1, 440826, Control_c, 0, 64, 105
1, 440856, Control_c, 0, 64, 101
1, 440870, Control_c, 0, 64, 97
1, 440885, Control_c, 0, 64, 93
1, 440900, Control_c, 0, 64, 89
1, 440915, Control_c, 0, 64, 87
1, 440930, Control_c, 0, 64, 84
1, 440944, Note_on_c, 0, 62, 55
1, 440945, Control_c, 0, 64, 80
1, 440955, Note_on_c, 0, 50, 40
1, 440959, Control_c, 0, 64, 76
1, 440974, Control_c, 0, 64, 72
1, 440989, Control_c, 0, 64, 68
1, 441004, Control_c, 0, 64, 65
1, 441018, Control_c, 0, 64, 61
1, 441033, Control_c, 0, 64, 55
1, 441045, Note_off_c, 0, 66, 58
1, 441048, Control_c, 0, 64, 45
1, 441063, Control_c, 0, 64, 0
1, 441196, Control_c, 0, 64, 44
1, 441211, Control_c, 0, 64, 56
1, 441226, Control_c, 0, 64, 62
1, 441241, Control_c, 0, 64, 67
1, 441256, Control_c, 0, 64, 71
1, 441270, Control_c, 0, 64, 77
1, 441280, Note_off_c, 0, 53, 55
1, 441285, Control_c, 0, 64, 82
1, 441300, Control_c, 0, 64, 89
1, 441315, Control_c, 0, 64, 100
1, 441330, Control_c, 0, 64, 127
1, 441339, Note_off_c, 0, 45, 41
1, 441382, Note_off_c, 0, 50, 40
1, 441469, Note_off_c, 0, 62, 33
1, 441508, Note_off_c, 0, 56, 32
1, 441827, Note_on_c, 0, 62, 32
1, 441846, Note_on_c, 0, 50, 36
1, 441930, Control_c, 0, 67, 28
1, 442001, Note_off_c, 0, 50, 36
1, 442055, Note_off_c, 0, 62, 40
1, 442079, Control_c, 0, 67, 30
1, 442174, Control_c, 0, 67, 34
1, 442189, Control_c, 0, 67, 39
1, 442204, Control_c, 0, 67, 41
1, 442219, Control_c, 0, 67, 42
1, 442263, Control_c, 0, 67, 43
1, 442282, Note_on_c, 0, 52, 52
1, 442290, Note_on_c, 0, 42, 42
1, 442299, Note_on_c, 0, 48, 43
1, 442352, Control_c, 0, 64, 110
1, 442368, Control_c, 0, 64, 98
1, 442383, Control_c, 0, 64, 88
1, 442397, Control_c, 0, 64, 80
1, 442412, Control_c, 0, 64, 72
1, 442427, Control_c, 0, 64, 63
1, 442441, Control_c, 0, 64, 48
1, 442456, Control_c, 0, 64, 0
1, 442530, Control_c, 0, 67, 42
1, 442560, Control_c, 0, 67, 42
1, 442575, Control_c, 0, 64, 44
1, 442575, Control_c, 0, 67, 41
1, 442589, Control_c, 0, 64, 54
1, 442604, Control_c, 0, 64, 60
1, 442619, Control_c, 0, 64, 63
1, 442634, Control_c, 0, 64, 64
1, 442648, Control_c, 0, 64, 66
1, 442663, Control_c, 0, 64, 67
1, 442678, Control_c, 0, 64, 69
1, 442693, Control_c, 0, 64, 72
1, 442693, Control_c, 0, 67, 41
1, 442708, Control_c, 0, 64, 74
1, 442722, Control_c, 0, 64, 77
1, 442737, Control_c, 0, 64, 79
1, 442752, Control_c, 0, 64, 82
1, 442753, Note_on_c, 0, 66, 62
1, 442767, Control_c, 0, 64, 86
1, 442782, Control_c, 0, 64, 90
1, 442788, Note_on_c, 0, 54, 35
1, 442797, Control_c, 0, 64, 94
1, 442812, Control_c, 0, 64, 98
1, 442827, Control_c, 0, 64, 102
1, 442848, Control_c, 0, 64, 107
1, 442863, Control_c, 0, 64, 112
1, 442878, Control_c, 0, 64, 126
1, 442954, Note_off_c, 0, 54, 38
1, 443012, Control_c, 0, 67, 41
1, 443056, Control_c, 0, 67, 42
1, 443086, Control_c, 0, 67, 42
1, 443176, Control_c, 0, 67, 43
1, 443177, Note_on_c, 0, 50, 45
1, 443339, Control_c, 0, 67, 43
1, 443403, Note_off_c, 0, 50, 51
1, 443472, Control_c, 0, 67, 44
1, 443546, Control_c, 0, 64, 118
1, 443561, Control_c, 0, 64, 109
1, 443576, Control_c, 0, 64, 105
1, 443598, Control_c, 0, 64, 102
1, 443613, Control_c, 0, 64, 99
1, 443628, Control_c, 0, 64, 95
1, 443641, Note_on_c, 0, 62, 48
1, 443643, Control_c, 0, 64, 91
1, 443647, Note_on_c, 0, 50, 41
1, 443658, Control_c, 0, 64, 86
1, 443672, Control_c, 0, 64, 82
1, 443687, Control_c, 0, 64, 78
1, 443702, Control_c, 0, 64, 72
1, 443717, Control_c, 0, 64, 65
1, 443732, Control_c, 0, 64, 58
1, 443737, Note_off_c, 0, 66, 61
1, 443746, Control_c, 0, 64, 49
1, 443761, Control_c, 0, 64, 31
1, 443761, Control_c, 0, 67, 44
1, 443776, Control_c, 0, 64, 0
1, 443894, Control_c, 0, 64, 36
1, 443909, Control_c, 0, 64, 51
1, 443924, Control_c, 0, 64, 60
1, 443939, Control_c, 0, 64, 64
1, 443954, Control_c, 0, 64, 68
1, 443969, Control_c, 0, 64, 72
1, 443984, Control_c, 0, 64, 77
1, 443999, Control_c, 0, 64, 83
1, 444012, Note_off_c, 0, 52, 55
1, 444014, Control_c, 0, 64, 92
1, 444029, Control_c, 0, 64, 106
1, 444043, Control_c, 0, 64, 127
1, 444068, Note_off_c, 0, 50, 57
1, 444120, Note_off_c, 0, 48, 35
1, 444180, Note_off_c, 0, 42, 43
1, 444211, Note_off_c, 0, 62, 26
1, 444451, Control_c, 0, 67, 45
1, 444481, Control_c, 0, 67, 45
1, 444525, Control_c, 0, 67, 46
1, 444540, Control_c, 0, 67, 46
1, 444565, Note_on_c, 0, 62, 28
1, 444573, Note_on_c, 0, 50, 32
1, 444628, Control_c, 0, 67, 47
1, 444643, Control_c, 0, 67, 48
1, 444658, Control_c, 0, 67, 57
1, 444673, Control_c, 0, 67, 67
1, 444687, Control_c, 0, 67, 74
1, 444702, Control_c, 0, 67, 77
1, 444717, Control_c, 0, 67, 80
1, 444732, Control_c, 0, 67, 83
1, 444747, Control_c, 0, 67, 86
1, 444762, Control_c, 0, 67, 89
1, 444775, Note_off_c, 0, 50, 40
1, 444778, Control_c, 0, 67, 92
1, 444792, Control_c, 0, 67, 94
1, 444807, Control_c, 0, 67, 95
1, 444822, Control_c, 0, 67, 96
1, 444909, Note_off_c, 0, 62, 39
1, 445017, Note_on_c, 0, 49, 58
1, 445032, Note_on_c, 0, 39, 44
1, 445034, Note_on_c, 0, 43, 48
1, 445096, Control_c, 0, 64, 116
1, 445111, Control_c, 0, 64, 95
1, 445125, Control_c, 0, 64, 81
1, 445140, Control_c, 0, 64, 67
1, 445155, Control_c, 0, 64, 45
1, 445170, Control_c, 0, 64, 0
1, 445229, Control_c, 0, 64, 37
1, 445244, Control_c, 0, 64, 50
1, 445259, Control_c, 0, 64, 57
1, 445274, Control_c, 0, 64, 60
1, 445289, Control_c, 0, 64, 62
1, 445304, Control_c, 0, 64, 64
1, 445319, Control_c, 0, 64, 67
1, 445334, Control_c, 0, 64, 69
1, 445349, Control_c, 0, 64, 71
1, 445363, Control_c, 0, 64, 72
1, 445378, Control_c, 0, 64, 73
1, 445393, Control_c, 0, 64, 74
1, 445408, Control_c, 0, 64, 76
1, 445423, Control_c, 0, 64, 78
1, 445437, Control_c, 0, 64, 80
1, 445437, Control_c, 0, 67, 95
1, 445452, Control_c, 0, 64, 83
1, 445467, Control_c, 0, 64, 84
1, 445482, Control_c, 0, 64, 86
1, 445490, Note_on_c, 0, 66, 57
1, 445497, Control_c, 0, 64, 89
1, 445497, Control_c, 0, 67, 95
1, 445511, Control_c, 0, 64, 93
1, 445521, Note_on_c, 0, 54, 36
1, 445526, Control_c, 0, 64, 100
1, 445541, Control_c, 0, 64, 110
1, 445556, Control_c, 0, 64, 127
1, 445587, Control_c, 0, 67, 94
1, 445599, Note_off_c, 0, 54, 53
1, 445920, Control_c, 0, 64, 103
1, 445935, Control_c, 0, 64, 91
1, 445936, Note_on_c, 0, 50, 47
1, 445949, Control_c, 0, 64, 85
1, 445964, Control_c, 0, 64, 84
1, 445979, Control_c, 0, 64, 85
1, 445993, Control_c, 0, 64, 88
1, 446008, Control_c, 0, 64, 92
1, 446023, Control_c, 0, 64, 95
1, 446038, Control_c, 0, 64, 97
1, 446052, Control_c, 0, 64, 102
1, 446067, Control_c, 0, 64, 108
1, 446082, Control_c, 0, 64, 121
1, 446097, Control_c, 0, 64, 127
1, 446117, Note_off_c, 0, 50, 36
1, 446230, Control_c, 0, 67, 95
1, 446333, Control_c, 0, 64, 116
1, 446348, Control_c, 0, 64, 110
1, 446364, Control_c, 0, 64, 104
1, 446379, Control_c, 0, 64, 98
1, 446383, Note_on_c, 0, 62, 43
1, 446394, Control_c, 0, 64, 94
1, 446408, Control_c, 0, 64, 90
1, 446416, Note_on_c, 0, 50, 34
1, 446423, Control_c, 0, 64, 87
1, 446438, Control_c, 0, 64, 82
1, 446438, Control_c, 0, 67, 95
1, 446453, Control_c, 0, 64, 75
1, 446468, Control_c, 0, 64, 69
1, 446475, Note_off_c, 0, 66, 58
1, 446482, Control_c, 0, 64, 62
1, 446497, Control_c, 0, 64, 53
1, 446512, Control_c, 0, 64, 42
1, 446527, Control_c, 0, 64, 0
1, 446609, Control_c, 0, 67, 96
1, 446653, Control_c, 0, 64, 33
1, 446668, Control_c, 0, 64, 47
1, 446683, Control_c, 0, 64, 57
1, 446697, Control_c, 0, 64, 63
1, 446712, Control_c, 0, 64, 67
1, 446727, Control_c, 0, 64, 72
1, 446742, Control_c, 0, 64, 78
1, 446757, Control_c, 0, 64, 86
1, 446771, Control_c, 0, 64, 96
1, 446786, Control_c, 0, 64, 113
1, 446795, Note_off_c, 0, 50, 39
1, 446801, Control_c, 0, 64, 127
1, 446849, Note_off_c, 0, 43, 32
1, 446877, Note_off_c, 0, 62, 29
1, 446911, Note_off_c, 0, 49, 41
1, 446949, Control_c, 0, 67, 95
1, 446962, Note_off_c, 0, 39, 40
1, 447344, Note_on_c, 0, 62, 28
1, 447358, Note_on_c, 0, 50, 28
1, 447535, Note_off_c, 0, 50, 40
1, 447535, Control_c, 0, 67, 96
1, 447593, Note_off_c, 0, 62, 41
1, 447654, Control_c, 0, 67, 98
1, 447795, Note_on_c, 0, 46, 52
1, 447808, Note_on_c, 0, 36, 44
1, 447808, Note_on_c, 0, 40, 40
1, 447847, Control_c, 0, 64, 104
1, 447862, Control_c, 0, 64, 88
1, 447876, Control_c, 0, 64, 73
1, 447891, Control_c, 0, 64, 61
1, 447906, Control_c, 0, 64, 39
1, 447921, Control_c, 0, 64, 0
1, 447996, Control_c, 0, 67, 102
1, 448011, Control_c, 0, 64, 32
1, 448011, Control_c, 0, 67, 108
1, 448026, Control_c, 0, 64, 46
1, 448040, Control_c, 0, 64, 59
1, 448055, Control_c, 0, 64, 64
1, 448070, Control_c, 0, 64, 68
1, 448092, Control_c, 0, 64, 70
1, 448107, Control_c, 0, 64, 73
1, 448122, Control_c, 0, 64, 75
1, 448136, Control_c, 0, 64, 77
1, 448151, Control_c, 0, 64, 82
1, 448166, Control_c, 0, 64, 85
1, 448181, Control_c, 0, 64, 90
1, 448195, Control_c, 0, 64, 94
1, 448210, Control_c, 0, 64, 98
1, 448225, Control_c, 0, 64, 101
1, 448240, Control_c, 0, 64, 103
1, 448255, Control_c, 0, 64, 105
1, 448270, Control_c, 0, 64, 109
1, 448285, Control_c, 0, 64, 121
1, 448288, Note_on_c, 0, 66, 55
1, 448300, Control_c, 0, 64, 127
1, 448314, Note_on_c, 0, 54, 37
1, 448452, Note_off_c, 0, 54, 32
1, 448727, Note_on_c, 0, 50, 44
1, 448729, Control_c, 0, 64, 95
1, 448744, Control_c, 0, 64, 81
1, 448759, Control_c, 0, 64, 76
1, 448789, Control_c, 0, 64, 78
1, 448804, Control_c, 0, 64, 81
1, 448818, Control_c, 0, 64, 86
1, 448841, Control_c, 0, 64, 91
1, 448856, Control_c, 0, 64, 102
1, 448871, Control_c, 0, 64, 113
1, 448885, Control_c, 0, 64, 127
1, 448958, Note_off_c, 0, 50, 33
1, 449203, Note_on_c, 0, 62, 42
1, 449211, Control_c, 0, 64, 116
1, 449215, Note_on_c, 0, 50, 37
1, 449226, Control_c, 0, 64, 106
1, 449241, Control_c, 0, 64, 97
1, 449256, Control_c, 0, 64, 91
1, 449271, Control_c, 0, 64, 86
1, 449285, Control_c, 0, 64, 79
1, 449300, Control_c, 0, 64, 70
1, 449303, Note_off_c, 0, 66, 56
1, 449315, Control_c, 0, 64, 61
1, 449329, Control_c, 0, 64, 46
1, 449344, Control_c, 0, 64, 0
1, 449344, Control_c, 0, 67, 110
1, 449492, Control_c, 0, 64, 42
1, 449507, Control_c, 0, 64, 53
1, 449522, Control_c, 0, 64, 59
1, 449537, Control_c, 0, 64, 63
1, 449553, Control_c, 0, 64, 65
1, 449568, Control_c, 0, 64, 69
1, 449590, Control_c, 0, 64, 73
1, 449605, Control_c, 0, 64, 78
1, 449620, Control_c, 0, 64, 86
1, 449629, Note_off_c, 0, 50, 37
1, 449634, Control_c, 0, 64, 96
1, 449649, Control_c, 0, 64, 122
1, 449653, Note_off_c, 0, 40, 37
1, 449664, Control_c, 0, 64, 127
1, 449745, Note_off_c, 0, 62, 33
1, 449826, Note_off_c, 0, 36, 35
1, 449903, Note_off_c, 0, 46, 38
1, 450128, Note_on_c, 0, 62, 41
1, 450144, Note_on_c, 0, 50, 29
1, 450291, Note_off_c, 0, 50, 33
1, 450413, Note_off_c, 0, 62, 42
1, 450628, Note_on_c, 0, 45, 43
1, 450633, Note_on_c, 0, 38, 40
1, 450643, Note_on_c, 0, 36, 39
1, 450664, Control_c, 0, 64, 119
1, 450679, Control_c, 0, 64, 110
1, 450694, Control_c, 0, 64, 103
1, 450709, Control_c, 0, 64, 95
1, 450724, Control_c, 0, 64, 86
1, 450738, Control_c, 0, 64, 77
1, 450753, Control_c, 0, 64, 69
1, 450768, Control_c, 0, 64, 61
1, 450783, Control_c, 0, 64, 48
1, 450798, Control_c, 0, 64, 0
1, 450798, Control_c, 0, 67, 112
1, 450916, Control_c, 0, 64, 42
1, 450931, Control_c, 0, 64, 51
1, 450946, Control_c, 0, 64, 56
1, 450961, Control_c, 0, 64, 61
1, 450975, Control_c, 0, 64, 65
1, 450990, Control_c, 0, 64, 67
1, 451005, Control_c, 0, 64, 69
1, 451020, Control_c, 0, 64, 70
1, 451035, Control_c, 0, 64, 71
1, 451049, Control_c, 0, 64, 75
1, 451064, Control_c, 0, 64, 80
1, 451087, Control_c, 0, 64, 86
1, 451102, Control_c, 0, 64, 94
1, 451114, Note_on_c, 0, 66, 54
1, 451116, Control_c, 0, 64, 102
1, 451131, Control_c, 0, 64, 112
1, 451142, Note_on_c, 0, 54, 29
1, 451146, Control_c, 0, 64, 127
1, 451268, Note_off_c, 0, 54, 41
1, 451550, Note_on_c, 0, 50, 43
1, 451775, Note_off_c, 0, 50, 30
1, 451999, Control_c, 0, 64, 121
1, 452014, Control_c, 0, 64, 111
1, 452028, Note_on_c, 0, 62, 42
1, 452029, Control_c, 0, 64, 104
1, 452043, Control_c, 0, 64, 97
1, 452058, Control_c, 0, 64, 92
1, 452059, Note_on_c, 0, 50, 37
1, 452073, Control_c, 0, 64, 86
1, 452088, Control_c, 0, 64, 82
1, 452102, Control_c, 0, 64, 76
1, 452117, Control_c, 0, 64, 69
1, 452127, Note_off_c, 0, 66, 58
1, 452132, Control_c, 0, 64, 59
1, 452147, Control_c, 0, 64, 44
1, 452161, Control_c, 0, 64, 0
1, 452339, Control_c, 0, 64, 45
1, 452354, Control_c, 0, 64, 60
1, 452369, Control_c, 0, 64, 66
1, 452384, Control_c, 0, 64, 70
1, 452398, Control_c, 0, 64, 73
1, 452413, Control_c, 0, 64, 76
1, 452428, Control_c, 0, 64, 84
1, 452437, Note_off_c, 0, 50, 41
1, 452443, Control_c, 0, 64, 97
1, 452458, Control_c, 0, 64, 127
1, 452582, Note_off_c, 0, 62, 32
1, 452594, Note_off_c, 0, 36, 39
1, 452598, Note_off_c, 0, 38, 40
1, 452623, Note_off_c, 0, 45, 36
1, 452960, Note_on_c, 0, 62, 32
1, 452983, Note_on_c, 0, 50, 20
1, 453132, Control_c, 0, 67, 114
1, 453141, Note_off_c, 0, 50, 42
1, 453162, Control_c, 0, 67, 117
1, 453177, Control_c, 0, 67, 127
1, 453289, Note_off_c, 0, 62, 39
1, 453428, Note_on_c, 0, 45, 47
1, 453435, Note_on_c, 0, 41, 49
1, 453439, Note_on_c, 0, 35, 46
1, 453510, Control_c, 0, 64, 99
1, 453525, Control_c, 0, 64, 86
1, 453540, Control_c, 0, 64, 74
1, 453555, Control_c, 0, 64, 65
1, 453570, Control_c, 0, 64, 53
1, 453585, Control_c, 0, 64, 32
1, 453600, Control_c, 0, 64, 0
1, 453733, Control_c, 0, 64, 40
1, 453748, Control_c, 0, 64, 50
1, 453763, Control_c, 0, 64, 56
1, 453778, Control_c, 0, 64, 60
1, 453793, Control_c, 0, 64, 63
1, 453807, Control_c, 0, 64, 64
1, 453822, Control_c, 0, 64, 66
1, 453837, Control_c, 0, 64, 68
1, 453852, Control_c, 0, 64, 70
1, 453867, Control_c, 0, 64, 72
1, 453881, Control_c, 0, 64, 74
1, 453896, Control_c, 0, 64, 78
1, 453911, Control_c, 0, 64, 83
1, 453925, Note_on_c, 0, 66, 46
1, 453925, Control_c, 0, 64, 89
1, 453940, Control_c, 0, 64, 92
1, 453954, Note_on_c, 0, 54, 35
1, 453955, Control_c, 0, 64, 95
1, 453970, Control_c, 0, 64, 97
1, 453985, Control_c, 0, 64, 102
1, 453999, Control_c, 0, 64, 112
1, 454014, Control_c, 0, 64, 127
1, 454077, Note_off_c, 0, 54, 37
1, 454368, Note_on_c, 0, 50, 42
1, 454577, Note_off_c, 0, 50, 38
1, 454860, Control_c, 0, 64, 121
1, 454867, Note_on_c, 0, 62, 39
1, 454873, Note_on_c, 0, 50, 34
1, 454874, Control_c, 0, 64, 110
1, 454889, Control_c, 0, 64, 100
1, 454904, Control_c, 0, 64, 91
1, 454919, Control_c, 0, 64, 85
1, 454934, Control_c, 0, 64, 78
1, 454948, Control_c, 0, 64, 72
1, 454963, Control_c, 0, 64, 63
1, 454974, Note_off_c, 0, 66, 57
1, 454978, Control_c, 0, 64, 53
1, 454993, Control_c, 0, 64, 38
1, 455008, Control_c, 0, 64, 0
1, 455186, Control_c, 0, 64, 44
1, 455201, Control_c, 0, 64, 57
1, 455216, Control_c, 0, 64, 62
1, 455231, Control_c, 0, 64, 64
1, 455245, Control_c, 0, 64, 65
1, 455260, Control_c, 0, 64, 66
1, 455275, Control_c, 0, 64, 70
1, 455290, Control_c, 0, 64, 76
1, 455305, Control_c, 0, 64, 84
1, 455319, Note_off_c, 0, 50, 41
1, 455320, Control_c, 0, 64, 95
1, 455335, Control_c, 0, 64, 104
1, 455350, Control_c, 0, 64, 119
1, 455364, Control_c, 0, 64, 127
1, 455387, Note_off_c, 0, 62, 32
1, 455493, Note_off_c, 0, 41, 33
1, 455514, Note_off_c, 0, 45, 35
1, 455853, Note_on_c, 0, 50, 28
1, 455856, Note_on_c, 0, 62, 33
1, 456031, Note_off_c, 0, 50, 41
1, 456076, Note_off_c, 0, 62, 40
1, 456324, Note_on_c, 0, 44, 42
1, 456328, Note_on_c, 0, 40, 37
1, 456432, Control_c, 0, 64, 111
1, 456447, Control_c, 0, 64, 103
1, 456461, Control_c, 0, 64, 99
1, 456476, Control_c, 0, 64, 94
1, 456491, Control_c, 0, 64, 89
1, 456506, Control_c, 0, 64, 81
1, 456521, Control_c, 0, 64, 72
1, 456535, Control_c, 0, 64, 67
1, 456550, Control_c, 0, 64, 62
1, 456565, Control_c, 0, 64, 59
1, 456580, Control_c, 0, 64, 55
1, 456594, Control_c, 0, 64, 51
1, 456609, Control_c, 0, 64, 46
1, 456624, Control_c, 0, 64, 38
1, 456639, Control_c, 0, 64, 32
1, 456653, Control_c, 0, 64, 0
1, 456818, Note_on_c, 0, 66, 47
1, 456832, Control_c, 0, 64, 35
1, 456847, Control_c, 0, 64, 41
1, 456859, Note_on_c, 0, 54, 14
1, 456862, Control_c, 0, 64, 43
1, 456876, Control_c, 0, 64, 46
1, 456891, Control_c, 0, 64, 50
1, 456906, Control_c, 0, 64, 56
1, 456921, Control_c, 0, 64, 61
1, 456936, Control_c, 0, 64, 63
1, 456950, Control_c, 0, 64, 64
1, 456965, Control_c, 0, 64, 65
1, 456980, Control_c, 0, 64, 67
1, 456995, Control_c, 0, 64, 70
1, 457010, Control_c, 0, 64, 74
1, 457025, Control_c, 0, 64, 78
1, 457040, Control_c, 0, 64, 82
1, 457055, Control_c, 0, 64, 87
1, 457076, Control_c, 0, 64, 91
1, 457091, Control_c, 0, 64, 94
1, 457106, Control_c, 0, 64, 96
1, 457121, Control_c, 0, 64, 98
1, 457136, Control_c, 0, 64, 101
1, 457150, Control_c, 0, 64, 103
1, 457180, Control_c, 0, 64, 106
1, 457195, Control_c, 0, 64, 108
1, 457210, Control_c, 0, 64, 110
1, 457225, Control_c, 0, 64, 113
1, 457239, Control_c, 0, 64, 115
1, 457284, Control_c, 0, 64, 117
1, 457292, Note_on_c, 0, 50, 34
1, 457299, Control_c, 0, 64, 121
1, 457314, Control_c, 0, 64, 127
1, 457500, Note_off_c, 0, 50, 40
1, 457567, Note_off_c, 0, 54, 9
1, 457744, Control_c, 0, 64, 121
1, 457759, Control_c, 0, 64, 116
1, 457773, Control_c, 0, 64, 113
1, 457776, Note_on_c, 0, 62, 38
1, 457788, Control_c, 0, 64, 110
1, 457798, Note_on_c, 0, 50, 35
1, 457803, Control_c, 0, 64, 107
1, 457826, Control_c, 0, 64, 104
1, 457841, Control_c, 0, 64, 100
1, 457855, Control_c, 0, 64, 96
1, 457870, Control_c, 0, 64, 91
1, 457885, Control_c, 0, 64, 86
1, 457899, Control_c, 0, 64, 81
1, 457914, Control_c, 0, 64, 75
1, 457924, Note_off_c, 0, 66, 53
1, 457929, Control_c, 0, 64, 70
1, 457944, Control_c, 0, 64, 64
1, 457959, Control_c, 0, 64, 57
1, 457973, Control_c, 0, 64, 48
1, 457988, Control_c, 0, 64, 36
1, 458003, Control_c, 0, 64, 0
1, 458226, Control_c, 0, 64, 39
1, 458241, Control_c, 0, 64, 47
1, 458256, Control_c, 0, 64, 55
1, 458271, Control_c, 0, 64, 61
1, 458286, Control_c, 0, 64, 65
1, 458300, Control_c, 0, 64, 67
1, 458315, Control_c, 0, 64, 69
1, 458330, Control_c, 0, 64, 70
1, 458345, Control_c, 0, 64, 74
1, 458356, Note_off_c, 0, 50, 39
1, 458360, Control_c, 0, 64, 80
1, 458375, Control_c, 0, 64, 88
1, 458390, Control_c, 0, 64, 98
1, 458405, Control_c, 0, 64, 112
1, 458420, Control_c, 0, 64, 127
1, 458432, Note_off_c, 0, 62, 30
1, 458766, Note_on_c, 0, 62, 38
1, 458781, Note_on_c, 0, 50, 29
1, 458997, Note_off_c, 0, 50, 41
1, 459269, Note_on_c, 0, 50, 34
1, 459472, Control_c, 0, 64, 107
1, 459487, Control_c, 0, 64, 99
1, 459502, Control_c, 0, 64, 95
1, 459517, Control_c, 0, 64, 91
1, 459532, Control_c, 0, 64, 86
1, 459546, Control_c, 0, 64, 82
1, 459561, Control_c, 0, 64, 79
1, 459576, Control_c, 0, 64, 78
1, 459650, Control_c, 0, 64, 80
1, 459664, Control_c, 0, 64, 83
1, 459679, Control_c, 0, 64, 87
1, 459694, Control_c, 0, 64, 93
1, 459709, Control_c, 0, 64, 101
1, 459724, Control_c, 0, 64, 111
1, 459739, Control_c, 0, 64, 127
1, 459850, Note_off_c, 0, 50, 40
1, 460208, Note_on_c, 0, 50, 27
1, 460462, Note_off_c, 0, 50, 39
1, 460717, Note_on_c, 0, 50, 26
1, 461115, Note_off_c, 0, 35, 37
1, 461185, Note_off_c, 0, 50, 41
1, 461255, Note_off_c, 0, 40, 35
1, 461338, Note_off_c, 0, 44, 37
1, 461696, Note_on_c, 0, 50, 23
1, 461900, Note_off_c, 0, 50, 41
1, 462351, Note_on_c, 0, 50, 33
1, 462366, Note_on_c, 0, 38, 34
1, 462704, Control_c, 0, 64, 115
1, 462719, Control_c, 0, 64, 109
1, 462734, Control_c, 0, 64, 105
1, 462749, Control_c, 0, 64, 102
1, 462763, Control_c, 0, 64, 100
1, 462778, Control_c, 0, 64, 98
1, 462793, Control_c, 0, 64, 96
1, 462808, Control_c, 0, 64, 94
1, 462823, Control_c, 0, 64, 93
1, 462838, Control_c, 0, 64, 92
1, 462853, Control_c, 0, 64, 91
1, 462867, Control_c, 0, 64, 90
1, 462882, Control_c, 0, 64, 88
1, 462897, Control_c, 0, 64, 86
1, 462912, Control_c, 0, 64, 84
1, 462927, Control_c, 0, 64, 83
1, 462941, Control_c, 0, 64, 81
1, 462956, Control_c, 0, 64, 79
1, 462971, Control_c, 0, 64, 77
1, 462986, Control_c, 0, 64, 75
1, 463001, Control_c, 0, 64, 72
1, 463015, Control_c, 0, 64, 69
1, 463030, Control_c, 0, 64, 66
1, 463045, Control_c, 0, 64, 64
1, 463067, Control_c, 0, 64, 62
1, 463082, Control_c, 0, 64, 60
1, 463097, Control_c, 0, 64, 59
1, 463112, Control_c, 0, 64, 57
1, 463127, Control_c, 0, 64, 56
1, 463142, Control_c, 0, 64, 54
1, 463157, Control_c, 0, 64, 50
1, 463172, Control_c, 0, 64, 47
1, 463186, Control_c, 0, 64, 42
1, 463201, Control_c, 0, 64, 36
1, 463216, Control_c, 0, 64, 0
1, 463395, Control_c, 0, 64, 31
1, 463410, Control_c, 0, 64, 38
1, 463425, Control_c, 0, 64, 46
1, 463439, Control_c, 0, 64, 56
1, 463454, Control_c, 0, 64, 62
1, 463469, Control_c, 0, 64, 65
1, 463484, Control_c, 0, 64, 66
1, 463499, Control_c, 0, 64, 66
1, 463513, Control_c, 0, 64, 68
1, 463528, Control_c, 0, 64, 72
1, 463543, Control_c, 0, 64, 78
1, 463558, Control_c, 0, 64, 86
1, 463572, Control_c, 0, 64, 97
1, 463587, Control_c, 0, 64, 112
1, 463602, Control_c, 0, 64, 127
1, 463651, Note_off_c, 0, 38, 23
1, 464148, Note_off_c, 0, 50, 41
1, 464407, Note_on_c, 0, 48, 27
1, 464427, Note_on_c, 0, 36, 29
1, 464469, Control_c, 0, 64, 122
1, 464484, Control_c, 0, 64, 116
1, 464499, Control_c, 0, 64, 111
1, 464514, Control_c, 0, 64, 107
1, 464529, Control_c, 0, 64, 104
1, 464543, Control_c, 0, 64, 101
1, 464566, Control_c, 0, 64, 99
1, 464581, Control_c, 0, 64, 97
1, 464595, Control_c, 0, 64, 93
1, 464610, Control_c, 0, 64, 90
1, 464625, Control_c, 0, 64, 87
1, 464640, Control_c, 0, 64, 83
1, 464655, Control_c, 0, 64, 80
1, 464669, Control_c, 0, 64, 78
1, 464684, Control_c, 0, 64, 75
1, 464699, Control_c, 0, 64, 72
1, 464713, Control_c, 0, 64, 70
1, 464728, Control_c, 0, 64, 68
1, 464745, Control_c, 0, 64, 67
1, 464759, Control_c, 0, 64, 65
1, 464773, Control_c, 0, 64, 64
1, 464788, Control_c, 0, 64, 63
1, 464803, Control_c, 0, 64, 62
1, 464817, Control_c, 0, 64, 61
1, 464832, Control_c, 0, 64, 61
1, 464847, Control_c, 0, 64, 60
1, 464877, Control_c, 0, 64, 60
1, 464891, Control_c, 0, 64, 58
1, 464906, Control_c, 0, 64, 56
1, 464921, Control_c, 0, 64, 54
1, 464936, Control_c, 0, 64, 53
1, 464981, Control_c, 0, 64, 53
1, 464996, Control_c, 0, 64, 51
1, 465010, Control_c, 0, 64, 48
1, 465025, Control_c, 0, 64, 45
1, 465040, Control_c, 0, 64, 42
1, 465055, Control_c, 0, 64, 41
1, 465070, Control_c, 0, 64, 40
1, 465084, Control_c, 0, 64, 39
1, 465099, Control_c, 0, 64, 36
1, 465114, Control_c, 0, 64, 33
1, 465128, Control_c, 0, 64, 30
1, 465143, Control_c, 0, 64, 0
1, 466123, Control_c, 0, 64, 39
1, 466137, Control_c, 0, 64, 46
1, 466152, Control_c, 0, 64, 50
1, 466167, Control_c, 0, 64, 53
1, 466182, Control_c, 0, 64, 55
1, 466197, Control_c, 0, 64, 59
1, 466212, Control_c, 0, 64, 61
1, 466227, Control_c, 0, 64, 62
1, 466241, Control_c, 0, 64, 63
1, 466256, Control_c, 0, 64, 64
1, 466270, Control_c, 0, 64, 66
1, 466284, Control_c, 0, 64, 67
1, 466299, Control_c, 0, 64, 69
1, 466314, Control_c, 0, 64, 70
1, 466329, Control_c, 0, 64, 72
1, 466345, Control_c, 0, 64, 74
1, 466360, Control_c, 0, 64, 76
1, 466375, Control_c, 0, 64, 77
1, 466389, Control_c, 0, 64, 79
1, 466404, Control_c, 0, 64, 82
1, 466419, Control_c, 0, 64, 85
1, 466434, Control_c, 0, 64, 89
1, 466446, Note_off_c, 0, 62, 24
1, 466449, Control_c, 0, 64, 92
1, 466463, Control_c, 0, 64, 95
1, 466478, Control_c, 0, 64, 99
1, 466493, Control_c, 0, 64, 107
1, 466508, Control_c, 0, 64, 122
1, 466523, Control_c, 0, 64, 127
1, 466799, Note_off_c, 0, 48, 25
1, 466959, Note_off_c, 0, 36, 35
1, 467776, Note_on_c, 0, 62, 47
1, 467809, Note_on_c, 0, 34, 31
1, 467915, Control_c, 0, 64, 114
1, 467931, Control_c, 0, 64, 107
1, 467946, Control_c, 0, 64, 101
1, 467960, Control_c, 0, 64, 96
1, 467975, Control_c, 0, 64, 91
1, 467990, Control_c, 0, 64, 86
1, 468005, Control_c, 0, 64, 82
1, 468020, Control_c, 0, 64, 78
1, 468034, Control_c, 0, 64, 73
1, 468049, Control_c, 0, 64, 68
1, 468064, Control_c, 0, 64, 63
1, 468079, Control_c, 0, 64, 57
1, 468094, Control_c, 0, 64, 54
1, 468108, Control_c, 0, 64, 51
1, 468123, Control_c, 0, 64, 47
1, 468138, Control_c, 0, 64, 39
1, 468153, Control_c, 0, 64, 0
1, 468382, Control_c, 0, 64, 48
1, 468397, Control_c, 0, 64, 57
1, 468412, Control_c, 0, 64, 59
1, 468427, Control_c, 0, 64, 61
1, 468442, Control_c, 0, 64, 62
1, 468457, Control_c, 0, 64, 64
1, 468472, Control_c, 0, 64, 67
1, 468486, Control_c, 0, 64, 71
1, 468501, Control_c, 0, 64, 74
1, 468516, Control_c, 0, 64, 78
1, 468531, Control_c, 0, 64, 82
1, 468546, Control_c, 0, 64, 87
1, 468561, Control_c, 0, 64, 93
1, 468576, Control_c, 0, 64, 100
1, 468591, Control_c, 0, 64, 108
1, 468606, Control_c, 0, 64, 118
1, 468621, Control_c, 0, 64, 127
1, 468664, Note_on_c, 0, 41, 22
1, 468668, Note_on_c, 0, 53, 3
1, 469220, Note_on_c, 0, 60, 49
1, 469428, Note_off_c, 0, 62, 48
1, 469430, Note_off_c, 0, 34, 32
1, 469653, Note_on_c, 0, 57, 38
1, 469674, Note_on_c, 0, 48, 19
1, 469774, Note_off_c, 0, 41, 35
1, 469902, Note_off_c, 0, 48, 32
1, 469924, Note_off_c, 0, 53, 29
1, 470041, Note_on_c, 0, 63, 52
1, 470194, Note_off_c, 0, 57, 42
1, 470196, Note_off_c, 0, 60, 53
1, 470430, Note_on_c, 0, 59, 34
1, 470439, Note_on_c, 0, 56, 37
1, 470542, Note_off_c, 0, 63, 62
1, 470782, Note_off_c, 0, 56, 39
1, 470798, Note_on_c, 0, 64, 53
1, 470949, Note_off_c, 0, 59, 50
1, 471159, Note_on_c, 0, 57, 41
1, 471163, Note_on_c, 0, 60, 38
1, 471252, Note_off_c, 0, 57, 54
1, 471611, Note_on_c, 0, 72, 65
1, 471729, Note_off_c, 0, 64, 56
1, 472083, Control_c, 0, 64, 116
1, 472098, Control_c, 0, 64, 107
1, 472113, Control_c, 0, 64, 101
1, 472127, Control_c, 0, 64, 93
1, 472135, Note_on_c, 0, 34, 39
1, 472142, Control_c, 0, 64, 84
1, 472157, Control_c, 0, 64, 76
1, 472172, Control_c, 0, 64, 69
1, 472187, Control_c, 0, 64, 64
1, 472201, Control_c, 0, 64, 57
1, 472216, Control_c, 0, 64, 48
1, 472231, Control_c, 0, 64, 38
1, 472245, Control_c, 0, 64, 34
1, 472260, Control_c, 0, 64, 37
1, 472275, Control_c, 0, 64, 48
1, 472290, Control_c, 0, 64, 57
1, 472305, Control_c, 0, 64, 61
1, 472320, Control_c, 0, 64, 62
1, 472335, Control_c, 0, 64, 63
1, 472350, Control_c, 0, 64, 65
1, 472365, Control_c, 0, 64, 70
1, 472379, Control_c, 0, 64, 78
1, 472394, Control_c, 0, 64, 86
1, 472409, Control_c, 0, 64, 91
1, 472424, Control_c, 0, 64, 96
1, 472439, Control_c, 0, 64, 105
1, 472453, Control_c, 0, 64, 127
1, 472484, Note_on_c, 0, 69, 52
1, 472512, Note_on_c, 0, 49, 44
1, 472554, Note_off_c, 0, 34, 40
1, 472645, Note_off_c, 0, 72, 51
1, 472661, Note_off_c, 0, 49, 35
1, 472870, Note_on_c, 0, 65, 60
1, 472890, Note_on_c, 0, 57, 42
1, 473004, Note_off_c, 0, 57, 52
1, 473012, Note_off_c, 0, 60, 36
1, 473094, Note_off_c, 0, 69, 33
1, 473219, Note_on_c, 0, 67, 59
1, 473318, Note_off_c, 0, 65, 62
1, 473452, Note_off_c, 0, 67, 63
1, 473574, Note_on_c, 0, 60, 42
1, 473940, Note_on_c, 0, 75, 61
1, 473960, Note_on_c, 0, 66, 39
1, 474023, Note_off_c, 0, 60, 37
1, 474042, Note_off_c, 0, 66, 54
1, 474338, Note_on_c, 0, 70, 45
1, 474465, Note_off_c, 0, 75, 58
1, 474720, Note_on_c, 0, 75, 69
1, 474756, Note_on_c, 0, 45, 44
1, 474758, Note_on_c, 0, 33, 48
1, 474982, Control_c, 0, 64, 121
1, 474997, Control_c, 0, 64, 109
1, 475012, Control_c, 0, 64, 102
1, 475027, Control_c, 0, 64, 98
1, 475048, Control_c, 0, 64, 94
1, 475063, Control_c, 0, 64, 88
1, 475078, Control_c, 0, 64, 82
1, 475093, Control_c, 0, 64, 75
1, 475108, Control_c, 0, 64, 70
1, 475124, Control_c, 0, 64, 65
1, 475135, Note_on_c, 0, 71, 54
1, 475139, Control_c, 0, 64, 61
1, 475153, Control_c, 0, 64, 56
1, 475155, Note_off_c, 0, 70, 62
1, 475168, Control_c, 0, 64, 45
1, 475183, Control_c, 0, 64, 0
1, 475390, Control_c, 0, 64, 52
1, 475405, Control_c, 0, 64, 60
1, 475419, Control_c, 0, 64, 64
1, 475434, Control_c, 0, 64, 67
1, 475449, Control_c, 0, 64, 70
1, 475463, Control_c, 0, 64, 76
1, 475476, Note_on_c, 0, 80, 72
1, 475478, Control_c, 0, 64, 82
1, 475493, Control_c, 0, 64, 91
1, 475508, Control_c, 0, 64, 102
1, 475518, Note_on_c, 0, 72, 32
1, 475520, Note_off_c, 0, 75, 59
1, 475523, Control_c, 0, 64, 117
1, 475524, Note_off_c, 0, 71, 34
1, 475537, Control_c, 0, 64, 127
1, 475548, Note_off_c, 0, 72, 54
1, 475644, Note_off_c, 0, 80, 65
1, 475846, Note_off_c, 0, 45, 38
1, 475884, Note_on_c, 0, 82, 79
1, 475912, Note_on_c, 0, 74, 46
1, 475954, Note_off_c, 0, 74, 0
1, 475954, Note_on_c, 0, 74, 20
1, 476053, Note_off_c, 0, 33, 38
1, 476383, Note_on_c, 0, 83, 75
1, 476403, Note_off_c, 0, 74, 39
1, 476406, Note_on_c, 0, 75, 49
1, 476406, Control_c, 0, 64, 111
1, 476409, Note_on_c, 0, 44, 40
1, 476419, Note_on_c, 0, 32, 36
1, 476420, Control_c, 0, 64, 102
1, 476435, Control_c, 0, 64, 96
1, 476439, Note_off_c, 0, 82, 57
1, 476450, Control_c, 0, 64, 89
1, 476465, Control_c, 0, 64, 84
1, 476480, Control_c, 0, 64, 79
1, 476494, Control_c, 0, 64, 73
1, 476509, Control_c, 0, 64, 66
1, 476524, Control_c, 0, 64, 55
1, 476547, Control_c, 0, 64, 34
1, 476562, Control_c, 0, 64, 0
1, 476843, Control_c, 0, 64, 32
1, 476858, Control_c, 0, 64, 42
1, 476873, Control_c, 0, 64, 50
1, 476888, Control_c, 0, 64, 56
1, 476903, Control_c, 0, 64, 58
1, 476917, Control_c, 0, 64, 60
1, 476931, Note_on_c, 0, 71, 45
1, 476932, Control_c, 0, 64, 61
1, 476947, Control_c, 0, 64, 63
1, 476962, Control_c, 0, 64, 66
1, 476973, Note_off_c, 0, 75, 63
1, 476977, Control_c, 0, 64, 69
1, 476991, Control_c, 0, 64, 72
1, 477006, Control_c, 0, 64, 76
1, 477021, Control_c, 0, 64, 80
1, 477036, Control_c, 0, 64, 84
1, 477051, Control_c, 0, 64, 91
1, 477065, Control_c, 0, 64, 100
1, 477074, Note_off_c, 0, 83, 53
1, 477080, Control_c, 0, 64, 127
1, 477298, Note_on_c, 0, 76, 68
1, 477300, Note_off_c, 0, 71, 36
1, 477321, Note_on_c, 0, 68, 46
1, 477433, Note_off_c, 0, 32, 40
1, 477471, Note_off_c, 0, 44, 46
1, 477674, Note_on_c, 0, 64, 35
1, 477727, Note_off_c, 0, 68, 53
1, 477810, Note_off_c, 0, 76, 37
1, 478057, Note_on_c, 0, 69, 64
1, 478085, Note_on_c, 0, 48, 37
1, 478095, Note_on_c, 0, 36, 35
1, 478207, Control_c, 0, 64, 114
1, 478222, Control_c, 0, 64, 105
1, 478237, Control_c, 0, 64, 97
1, 478252, Control_c, 0, 64, 87
1, 478267, Control_c, 0, 64, 79
1, 478282, Control_c, 0, 64, 70
1, 478297, Control_c, 0, 64, 63
1, 478312, Control_c, 0, 64, 54
1, 478327, Control_c, 0, 64, 42
1, 478342, Control_c, 0, 64, 0
1, 478458, Note_on_c, 0, 60, 47
1, 478507, Note_off_c, 0, 64, 63
1, 478535, Control_c, 0, 64, 31
1, 478550, Control_c, 0, 64, 49
1, 478564, Control_c, 0, 64, 61
1, 478579, Control_c, 0, 64, 67
1, 478594, Control_c, 0, 64, 70
1, 478608, Control_c, 0, 64, 73
1, 478623, Control_c, 0, 64, 75
1, 478638, Control_c, 0, 64, 79
1, 478653, Control_c, 0, 64, 86
1, 478668, Control_c, 0, 64, 91
1, 478682, Control_c, 0, 64, 98
1, 478697, Control_c, 0, 64, 106
1, 478712, Control_c, 0, 64, 118
1, 478727, Control_c, 0, 64, 127
1, 478813, Note_off_c, 0, 48, 35
1, 478832, Note_on_c, 0, 64, 54
1, 478851, Note_off_c, 0, 36, 38
1, 478861, Note_on_c, 0, 57, 42
1, 478911, Note_off_c, 0, 69, 35
1, 478932, Note_off_c, 0, 60, 52
1, 479244, Note_on_c, 0, 52, 45
1, 479331, Note_off_c, 0, 57, 51
1, 479653, Note_on_c, 0, 59, 54
1, 479673, Note_on_c, 0, 41, 39
1, 479680, Note_on_c, 0, 29, 46
1, 479706, Control_c, 0, 64, 112
1, 479720, Control_c, 0, 64, 106
1, 479735, Control_c, 0, 64, 102
1, 479749, Control_c, 0, 64, 98
1, 479763, Control_c, 0, 64, 93
1, 479778, Control_c, 0, 64, 87
1, 479793, Control_c, 0, 64, 81
1, 479808, Control_c, 0, 64, 76
1, 479823, Control_c, 0, 64, 70
1, 479826, Note_off_c, 0, 64, 57
1, 479838, Control_c, 0, 64, 65
1, 479853, Control_c, 0, 64, 58
1, 479868, Control_c, 0, 64, 52
1, 479882, Control_c, 0, 64, 46
1, 479897, Control_c, 0, 64, 39
1, 479913, Control_c, 0, 64, 0
1, 480117, Note_on_c, 0, 56, 29
1, 480162, Note_off_c, 0, 52, 54
1, 480194, Control_c, 0, 64, 33
1, 480209, Control_c, 0, 64, 45
1, 480224, Control_c, 0, 64, 54
1, 480239, Control_c, 0, 64, 60
1, 480253, Control_c, 0, 64, 63
1, 480268, Control_c, 0, 64, 65
1, 480291, Control_c, 0, 64, 67
1, 480306, Control_c, 0, 64, 70
1, 480321, Control_c, 0, 64, 75
1, 480335, Control_c, 0, 64, 80
1, 480350, Control_c, 0, 64, 86
1, 480365, Control_c, 0, 64, 91
1, 480368, Note_off_c, 0, 59, 56
1, 480380, Control_c, 0, 64, 101
1, 480394, Control_c, 0, 64, 112
1, 480409, Control_c, 0, 64, 127
1, 480505, Note_off_c, 0, 56, 37
1, 480728, Note_on_c, 0, 60, 45
1, 480750, Control_c, 0, 64, 116
1, 480753, Note_on_c, 0, 51, 39
1, 480765, Control_c, 0, 64, 108
1, 480780, Control_c, 0, 64, 103
1, 480795, Control_c, 0, 64, 98
1, 480809, Control_c, 0, 64, 93
1, 480824, Control_c, 0, 64, 88
1, 480839, Control_c, 0, 64, 83
1, 480854, Control_c, 0, 64, 78
1, 480869, Control_c, 0, 64, 73
1, 480883, Control_c, 0, 64, 69
1, 480898, Control_c, 0, 64, 65
1, 480913, Control_c, 0, 64, 61
1, 480928, Control_c, 0, 64, 57
1, 480943, Control_c, 0, 64, 51
1, 480957, Control_c, 0, 64, 44
1, 480972, Control_c, 0, 64, 37
1, 480987, Control_c, 0, 64, 0
1, 481424, Control_c, 0, 64, 34
1, 481439, Control_c, 0, 64, 47
1, 481454, Control_c, 0, 64, 56
1, 481469, Control_c, 0, 64, 60
1, 481483, Control_c, 0, 64, 62
1, 481498, Control_c, 0, 64, 63
1, 481514, Control_c, 0, 64, 65
1, 481529, Control_c, 0, 64, 68
1, 481544, Control_c, 0, 64, 73
1, 481558, Control_c, 0, 64, 79
1, 481573, Control_c, 0, 64, 86
1, 481588, Control_c, 0, 64, 94
1, 481603, Control_c, 0, 64, 109
1, 481618, Control_c, 0, 64, 127
1, 481660, Note_off_c, 0, 29, 52
1, 481721, Note_off_c, 0, 60, 37
1, 481722, Note_off_c, 0, 51, 41
1, 481993, Note_on_c, 0, 57, 43
1, 482113, Control_c, 0, 64, 111
1, 482128, Control_c, 0, 64, 102
1, 482143, Control_c, 0, 64, 94
1, 482157, Control_c, 0, 64, 88
1, 482172, Control_c, 0, 64, 82
1, 482187, Control_c, 0, 64, 76
1, 482202, Control_c, 0, 64, 70
1, 482217, Control_c, 0, 64, 65
1, 482231, Control_c, 0, 64, 61
1, 482246, Control_c, 0, 64, 56
1, 482261, Control_c, 0, 64, 52
1, 482276, Control_c, 0, 64, 47
1, 482291, Control_c, 0, 64, 42
1, 482307, Control_c, 0, 64, 38
1, 482322, Control_c, 0, 64, 35
1, 482336, Control_c, 0, 64, 31
1, 482351, Control_c, 0, 64, 0
1, 482393, Note_on_c, 0, 48, 33
1, 482485, Control_c, 0, 64, 35
1, 482500, Control_c, 0, 64, 41
1, 482515, Control_c, 0, 64, 46
1, 482536, Control_c, 0, 64, 52
1, 482551, Control_c, 0, 64, 57
1, 482566, Control_c, 0, 64, 60
1, 482580, Control_c, 0, 64, 62
1, 482595, Control_c, 0, 64, 63
1, 482610, Control_c, 0, 64, 64
1, 482625, Control_c, 0, 64, 65
1, 482640, Control_c, 0, 64, 65
1, 482699, Control_c, 0, 64, 66
1, 482749, Note_on_c, 0, 53, 33
1, 482833, Control_c, 0, 64, 66
1, 482848, Control_c, 0, 64, 67
1, 482853, Note_off_c, 0, 48, 42
1, 482862, Control_c, 0, 64, 69
1, 482877, Control_c, 0, 64, 70
1, 482892, Control_c, 0, 64, 71
1, 482906, Control_c, 0, 64, 72
1, 482921, Control_c, 0, 64, 72
1, 482936, Control_c, 0, 64, 73
1, 482980, Control_c, 0, 64, 72
1, 482995, Control_c, 0, 64, 72
1, 483010, Control_c, 0, 64, 70
1, 483025, Control_c, 0, 64, 69
1, 483040, Control_c, 0, 64, 68
1, 483061, Note_on_c, 0, 62, 48
1, 483115, Control_c, 0, 64, 69
1, 483129, Control_c, 0, 64, 69
1, 483144, Control_c, 0, 64, 70
1, 483159, Control_c, 0, 64, 72
1, 483174, Control_c, 0, 64, 73
1, 483187, Note_off_c, 0, 57, 44
1, 483189, Control_c, 0, 64, 74
1, 483203, Control_c, 0, 64, 75
1, 483218, Control_c, 0, 64, 77
1, 483233, Control_c, 0, 64, 78
1, 483248, Control_c, 0, 64, 79
1, 483263, Control_c, 0, 64, 79
1, 483285, Control_c, 0, 64, 80
1, 483300, Control_c, 0, 64, 80
1, 483389, Control_c, 0, 64, 80
1, 483400, Note_on_c, 0, 60, 47
1, 483418, Note_on_c, 0, 56, 43
1, 483433, Control_c, 0, 64, 79
1, 483457, Note_off_c, 0, 62, 53
1, 483463, Control_c, 0, 64, 79
1, 483477, Control_c, 0, 64, 78
1, 483493, Control_c, 0, 64, 76
1, 483508, Control_c, 0, 64, 74
1, 483523, Control_c, 0, 64, 72
1, 483537, Control_c, 0, 64, 69
1, 483552, Control_c, 0, 64, 66
1, 483567, Control_c, 0, 64, 64
1, 483582, Control_c, 0, 64, 62
1, 483597, Control_c, 0, 64, 60
1, 483612, Control_c, 0, 64, 59
1, 483626, Control_c, 0, 64, 58
1, 483641, Control_c, 0, 64, 57
1, 483651, Note_off_c, 0, 53, 38
1, 483656, Control_c, 0, 64, 57
1, 483671, Control_c, 0, 64, 56
1, 483760, Control_c, 0, 64, 56
1, 483767, Note_on_c, 0, 55, 42
1, 483804, Control_c, 0, 64, 55
1, 483819, Control_c, 0, 64, 55
1, 483830, Note_off_c, 0, 56, 48
1, 483834, Control_c, 0, 64, 54
1, 483849, Control_c, 0, 64, 54
1, 483878, Control_c, 0, 64, 53
1, 483893, Control_c, 0, 64, 53
1, 483909, Control_c, 0, 64, 52
1, 483924, Control_c, 0, 64, 51
1, 483968, Control_c, 0, 64, 51
1, 483983, Control_c, 0, 64, 50
1, 483998, Control_c, 0, 64, 49
1, 484013, Control_c, 0, 64, 48
1, 484035, Control_c, 0, 64, 47
1, 484050, Control_c, 0, 64, 46
1, 484065, Control_c, 0, 64, 45
1, 484079, Control_c, 0, 64, 43
1, 484094, Control_c, 0, 64, 42
1, 484109, Control_c, 0, 64, 41
1, 484124, Control_c, 0, 64, 41
1, 484130, Note_on_c, 0, 54, 41
1, 484139, Control_c, 0, 64, 40
1, 484154, Control_c, 0, 64, 39
1, 484168, Control_c, 0, 64, 39
1, 484183, Control_c, 0, 64, 38
1, 484195, Note_off_c, 0, 55, 50
1, 484198, Control_c, 0, 64, 37
1, 484213, Control_c, 0, 64, 36
1, 484227, Control_c, 0, 64, 36
1, 484242, Control_c, 0, 64, 34
1, 484257, Control_c, 0, 64, 33
1, 484272, Control_c, 0, 64, 31
1, 484286, Control_c, 0, 64, 0
1, 484604, Note_on_c, 0, 63, 40
1, 484649, Note_off_c, 0, 60, 58
1, 484783, Control_c, 0, 64, 34
1, 484798, Control_c, 0, 64, 41
1, 484813, Control_c, 0, 64, 49
1, 484828, Control_c, 0, 64, 55
1, 484843, Control_c, 0, 64, 60
1, 484858, Control_c, 0, 64, 63
1, 484872, Control_c, 0, 64, 65
1, 484887, Control_c, 0, 64, 67
1, 484889, Note_off_c, 0, 54, 56
1, 484902, Control_c, 0, 64, 69
1, 484917, Control_c, 0, 64, 72
1, 484932, Control_c, 0, 64, 75
1, 484947, Control_c, 0, 64, 78
1, 484962, Control_c, 0, 64, 81
1, 484976, Control_c, 0, 64, 85
1, 484991, Control_c, 0, 64, 89
1, 485006, Control_c, 0, 64, 93
1, 485021, Control_c, 0, 64, 96
1, 485036, Control_c, 0, 64, 100
1, 485050, Control_c, 0, 64, 105
1, 485065, Control_c, 0, 64, 111
1, 485080, Control_c, 0, 64, 117
1, 485095, Control_c, 0, 64, 127
1, 485332, Note_on_c, 0, 62, 56
1, 485392, Note_on_c, 0, 34, 36
1, 485406, Control_c, 0, 64, 121
1, 485421, Control_c, 0, 64, 117
1, 485436, Control_c, 0, 64, 112
1, 485450, Control_c, 0, 64, 108
1, 485465, Control_c, 0, 64, 104
1, 485480, Control_c, 0, 64, 101
1, 485495, Control_c, 0, 64, 97
1, 485510, Control_c, 0, 64, 93
1, 485532, Control_c, 0, 64, 89
1, 485535, Note_off_c, 0, 63, 37
1, 485547, Control_c, 0, 64, 86
1, 485562, Control_c, 0, 64, 82
1, 485577, Control_c, 0, 64, 77
1, 485592, Control_c, 0, 64, 72
1, 485606, Control_c, 0, 64, 67
1, 485611, Note_off_c, 0, 41, 40
1, 485621, Control_c, 0, 64, 62
1, 485636, Control_c, 0, 64, 56
1, 485651, Control_c, 0, 64, 51
1, 485666, Control_c, 0, 64, 44
1, 485680, Control_c, 0, 64, 0
1, 485843, Control_c, 0, 64, 34
1, 485858, Control_c, 0, 64, 48
1, 485872, Control_c, 0, 64, 55
1, 485887, Control_c, 0, 64, 57
1, 485902, Control_c, 0, 64, 58
1, 485917, Control_c, 0, 64, 60
1, 485931, Control_c, 0, 64, 62
1, 485943, Note_on_c, 0, 41, 30
1, 485946, Control_c, 0, 64, 64
1, 485958, Note_on_c, 0, 53, 39
1, 485961, Control_c, 0, 64, 65
1, 485976, Control_c, 0, 64, 67
1, 485991, Control_c, 0, 64, 68
1, 486005, Control_c, 0, 64, 70
1, 486020, Control_c, 0, 64, 73
1, 486035, Control_c, 0, 64, 75
1, 486050, Control_c, 0, 64, 78
1, 486065, Control_c, 0, 64, 82
1, 486080, Control_c, 0, 64, 86
1, 486095, Control_c, 0, 64, 92
1, 486110, Control_c, 0, 64, 97
1, 486124, Control_c, 0, 64, 104
1, 486139, Control_c, 0, 64, 111
1, 486154, Control_c, 0, 64, 127
1, 486360, Note_on_c, 0, 60, 61
1, 486503, Note_off_c, 0, 62, 61
1, 486726, Note_off_c, 0, 34, 35
1, 486749, Note_on_c, 0, 57, 45
1, 486765, Note_on_c, 0, 48, 42
1, 486882, Note_off_c, 0, 41, 28
1, 486915, Note_off_c, 0, 53, 41
1, 487034, Note_off_c, 0, 48, 36
1, 487096, Note_on_c, 0, 63, 66
1, 487189, Note_off_c, 0, 60, 61
1, 487209, Note_off_c, 0, 57, 54
1, 487466, Note_on_c, 0, 59, 50
1, 487471, Note_on_c, 0, 56, 51
1, 487552, Note_off_c, 0, 63, 63
1, 487589, Note_off_c, 0, 56, 59
1, 487760, Note_on_c, 0, 64, 66
1, 487941, Note_off_c, 0, 64, 61
1, 488032, Note_off_c, 0, 59, 61
1, 488103, Note_on_c, 0, 69, 74
1, 488119, Note_on_c, 0, 60, 51
1, 488128, Note_on_c, 0, 63, 49
1, 488259, Note_off_c, 0, 60, 52
1, 488285, Note_off_c, 0, 63, 57
1, 488431, Note_on_c, 0, 72, 75
1, 488494, Note_off_c, 0, 69, 63
1, 488786, Note_on_c, 0, 57, 57
1, 488914, Control_c, 0, 67, 123
1, 488929, Control_c, 0, 67, 106
1, 488943, Control_c, 0, 67, 89
1, 488958, Control_c, 0, 67, 71
1, 488973, Control_c, 0, 67, 52
1, 488988, Control_c, 0, 67, 34
1, 489003, Control_c, 0, 67, 0
1, 489122, Note_off_c, 0, 72, 41
1, 489132, Note_on_c, 0, 79, 85
1, 489148, Note_on_c, 0, 60, 47
1, 489478, Note_off_c, 0, 60, 37
1, 489497, Note_off_c, 0, 57, 52
1, 489506, Note_on_c, 0, 81, 86
1, 489515, Note_on_c, 0, 63, 58
1, 489550, Note_off_c, 0, 63, 65
1, 489552, Note_off_c, 0, 79, 64
1, 489970, Note_on_c, 0, 86, 83
1, 489978, Note_on_c, 0, 82, 76
1, 489988, Control_c, 0, 64, 95
1, 489998, Note_on_c, 0, 45, 60
1, 490003, Control_c, 0, 64, 74
1, 490006, Note_on_c, 0, 33, 49
1, 490025, Control_c, 0, 64, 52
1, 490040, Control_c, 0, 64, 0
1, 490047, Note_off_c, 0, 81, 56
1, 490188, Control_c, 0, 64, 53
1, 490203, Control_c, 0, 64, 70
1, 490214, Note_off_c, 0, 33, 62
1, 490217, Control_c, 0, 64, 80
1, 490232, Control_c, 0, 64, 98
1, 490247, Control_c, 0, 64, 127
1, 490256, Note_off_c, 0, 45, 63
1, 490420, Note_on_c, 0, 79, 79
1, 490433, Note_on_c, 0, 60, 57
1, 490493, Note_off_c, 0, 82, 50
1, 490500, Note_off_c, 0, 86, 51
1, 490774, Note_on_c, 0, 72, 77
1, 490792, Note_on_c, 0, 63, 55
1, 490802, Note_off_c, 0, 79, 64
1, 490838, Note_off_c, 0, 60, 52
1, 491115, Note_on_c, 0, 74, 85
1, 491129, Note_on_c, 0, 67, 55
1, 491155, Note_off_c, 0, 72, 63
1, 491156, Note_off_c, 0, 63, 57
1, 491159, Note_off_c, 0, 67, 66
1, 491547, Note_on_c, 0, 66, 65
1, 491550, Note_on_c, 0, 32, 60
1, 491561, Note_on_c, 0, 44, 50
1, 491627, Control_c, 0, 64, 107
1, 491642, Control_c, 0, 64, 96
1, 491657, Control_c, 0, 64, 85
1, 491671, Control_c, 0, 64, 73
1, 491686, Control_c, 0, 64, 59
1, 491701, Control_c, 0, 64, 0
1, 491864, Control_c, 0, 64, 46
1, 491878, Control_c, 0, 64, 56
1, 491894, Control_c, 0, 64, 57
1, 491909, Control_c, 0, 64, 59
1, 491924, Control_c, 0, 64, 60
1, 491939, Control_c, 0, 64, 60
1, 491947, Note_on_c, 0, 75, 74
1, 491954, Control_c, 0, 64, 59
1, 491955, Note_on_c, 0, 63, 57
1, 491968, Control_c, 0, 64, 57
1, 491981, Note_off_c, 0, 74, 59
1, 491983, Control_c, 0, 64, 51
1, 491997, Note_off_c, 0, 66, 59
1, 491998, Control_c, 0, 64, 44
1, 492012, Control_c, 0, 64, 31
1, 492027, Control_c, 0, 64, 0
1, 492057, Control_c, 0, 64, 40
1, 492072, Control_c, 0, 64, 54
1, 492086, Control_c, 0, 64, 63
1, 492101, Control_c, 0, 64, 68
1, 492116, Control_c, 0, 64, 72
1, 492131, Control_c, 0, 64, 74
1, 492146, Control_c, 0, 64, 76
1, 492161, Control_c, 0, 64, 78
1, 492176, Control_c, 0, 64, 79
1, 492191, Control_c, 0, 64, 79
1, 492235, Control_c, 0, 64, 79
1, 492250, Control_c, 0, 64, 77
1, 492272, Control_c, 0, 64, 73
1, 492287, Control_c, 0, 64, 66
1, 492300, Note_on_c, 0, 66, 70
1, 492301, Control_c, 0, 64, 54
1, 492316, Control_c, 0, 64, 0
1, 492325, Note_on_c, 0, 61, 56
1, 492370, Note_off_c, 0, 63, 56
1, 492420, Control_c, 0, 64, 46
1, 492423, Note_off_c, 0, 75, 56
1, 492435, Control_c, 0, 64, 62
1, 492450, Control_c, 0, 64, 67
1, 492465, Control_c, 0, 64, 72
1, 492480, Control_c, 0, 64, 77
1, 492494, Control_c, 0, 64, 84
1, 492509, Control_c, 0, 64, 98
1, 492524, Control_c, 0, 64, 127
1, 492536, Note_off_c, 0, 44, 55
1, 492630, Note_off_c, 0, 32, 60
1, 492647, Note_on_c, 0, 59, 57
1, 492700, Note_off_c, 0, 61, 61
1, 493036, Control_c, 0, 64, 112
1, 493050, Control_c, 0, 64, 104
1, 493064, Note_on_c, 0, 58, 52
1, 493065, Control_c, 0, 64, 98
1, 493073, Note_on_c, 0, 26, 51
1, 493076, Note_on_c, 0, 38, 56
1, 493080, Control_c, 0, 64, 93
1, 493095, Control_c, 0, 64, 88
1, 493110, Control_c, 0, 64, 82
1, 493115, Note_off_c, 0, 59, 49
1, 493124, Control_c, 0, 64, 74
1, 493139, Control_c, 0, 64, 66
1, 493154, Control_c, 0, 64, 54
1, 493168, Control_c, 0, 64, 0
1, 493317, Control_c, 0, 64, 40
1, 493332, Control_c, 0, 64, 49
1, 493347, Control_c, 0, 64, 58
1, 493361, Control_c, 0, 64, 63
1, 493376, Control_c, 0, 64, 66
1, 493391, Control_c, 0, 64, 66
1, 493406, Control_c, 0, 64, 67
1, 493435, Control_c, 0, 64, 67
1, 493496, Control_c, 0, 64, 67
1, 493511, Control_c, 0, 64, 66
1, 493526, Control_c, 0, 64, 64
1, 493540, Control_c, 0, 64, 62
1, 493552, Note_on_c, 0, 69, 59
1, 493555, Control_c, 0, 64, 60
1, 493557, Note_on_c, 0, 59, 43
1, 493570, Control_c, 0, 64, 58
1, 493584, Control_c, 0, 64, 56
1, 493614, Control_c, 0, 64, 57
1, 493629, Control_c, 0, 64, 60
1, 493633, Note_off_c, 0, 58, 38
1, 493633, Note_off_c, 0, 66, 56
1, 493644, Control_c, 0, 64, 62
1, 493658, Control_c, 0, 64, 65
1, 493673, Control_c, 0, 64, 67
1, 493688, Control_c, 0, 64, 70
1, 493703, Control_c, 0, 64, 74
1, 493718, Control_c, 0, 64, 76
1, 493732, Control_c, 0, 64, 78
1, 493747, Control_c, 0, 64, 79
1, 493873, Control_c, 0, 64, 78
1, 493888, Control_c, 0, 64, 76
1, 493903, Control_c, 0, 64, 73
1, 493918, Note_on_c, 0, 61, 63
1, 493918, Control_c, 0, 64, 68
1, 493933, Control_c, 0, 64, 62
1, 493947, Control_c, 0, 64, 54
1, 493949, Note_on_c, 0, 58, 49
1, 493962, Control_c, 0, 64, 44
1, 493977, Control_c, 0, 64, 37
1, 493991, Control_c, 0, 64, 38
1, 494006, Control_c, 0, 64, 45
1, 494021, Control_c, 0, 64, 53
1, 494027, Note_off_c, 0, 59, 38
1, 494036, Control_c, 0, 64, 60
1, 494051, Control_c, 0, 64, 64
1, 494066, Control_c, 0, 64, 69
1, 494069, Note_off_c, 0, 69, 60
1, 494080, Control_c, 0, 64, 73
1, 494095, Control_c, 0, 64, 77
1, 494110, Control_c, 0, 64, 78
1, 494125, Control_c, 0, 64, 79
1, 494184, Control_c, 0, 64, 78
1, 494199, Control_c, 0, 64, 75
1, 494214, Control_c, 0, 64, 69
1, 494229, Control_c, 0, 64, 63
1, 494244, Note_off_c, 0, 58, 48
1, 494244, Control_c, 0, 64, 55
1, 494254, Note_on_c, 0, 62, 71
1, 494258, Control_c, 0, 64, 46
1, 494265, Note_on_c, 0, 57, 54
1, 494273, Control_c, 0, 64, 39
1, 494289, Control_c, 0, 64, 39
1, 494304, Control_c, 0, 64, 44
1, 494313, Note_off_c, 0, 61, 59
1, 494319, Control_c, 0, 64, 51
1, 494334, Control_c, 0, 64, 58
1, 494349, Control_c, 0, 64, 63
1, 494363, Control_c, 0, 64, 67
1, 494378, Control_c, 0, 64, 71
1, 494393, Control_c, 0, 64, 75
1, 494407, Control_c, 0, 64, 78
1, 494417, Note_off_c, 0, 38, 59
1, 494422, Control_c, 0, 64, 79
1, 494437, Control_c, 0, 64, 79
1, 494519, Control_c, 0, 64, 79
1, 494534, Control_c, 0, 64, 78
1, 494548, Control_c, 0, 64, 77
1, 494563, Control_c, 0, 64, 75
1, 494578, Control_c, 0, 64, 74
1, 494593, Control_c, 0, 64, 71
1, 494608, Control_c, 0, 64, 68
1, 494622, Control_c, 0, 64, 64
1, 494634, Note_on_c, 0, 65, 67
1, 494637, Control_c, 0, 64, 61
1, 494638, Note_on_c, 0, 56, 55
1, 494651, Note_on_c, 0, 24, 42
1, 494652, Control_c, 0, 64, 57
1, 494653, Note_on_c, 0, 36, 37
1, 494658, Note_off_c, 0, 26, 40
1, 494664, Note_off_c, 0, 57, 36
1, 494667, Control_c, 0, 64, 53
1, 494682, Note_off_c, 0, 62, 58
1, 494682, Control_c, 0, 64, 45
1, 494696, Control_c, 0, 64, 0
1, 494814, Control_c, 0, 64, 48
1, 494829, Control_c, 0, 64, 62
1, 494844, Control_c, 0, 64, 66
1, 494858, Control_c, 0, 64, 69
1, 494873, Control_c, 0, 64, 71
1, 494888, Control_c, 0, 64, 73
1, 494903, Control_c, 0, 64, 74
1, 494918, Control_c, 0, 64, 74
1, 494947, Control_c, 0, 64, 72
1, 494962, Control_c, 0, 64, 67
1, 494977, Control_c, 0, 64, 61
1, 494992, Control_c, 0, 64, 55
1, 495006, Control_c, 0, 64, 55
1, 495012, Note_off_c, 0, 56, 44
1, 495021, Control_c, 0, 64, 60
1, 495033, Note_on_c, 0, 62, 66
1, 495036, Control_c, 0, 64, 65
1, 495040, Note_on_c, 0, 54, 54
1, 495051, Control_c, 0, 64, 69
1, 495066, Control_c, 0, 64, 73
1, 495082, Control_c, 0, 64, 76
1, 495097, Control_c, 0, 64, 79
1, 495101, Note_off_c, 0, 65, 60
1, 495111, Control_c, 0, 64, 82
1, 495118, Note_off_c, 0, 36, 52
1, 495126, Control_c, 0, 64, 84
1, 495141, Control_c, 0, 64, 87
1, 495155, Control_c, 0, 64, 89
1, 495160, Note_off_c, 0, 54, 62
1, 495170, Control_c, 0, 64, 93
1, 495175, Note_off_c, 0, 24, 38
1, 495185, Control_c, 0, 64, 97
1, 495200, Control_c, 0, 64, 101
1, 495229, Control_c, 0, 64, 103
1, 495302, Note_off_c, 0, 62, 32
1, 495474, Control_c, 0, 64, 101
1, 495484, Note_on_c, 0, 57, 67
1, 495489, Control_c, 0, 64, 98
1, 495504, Control_c, 0, 64, 95
1, 495508, Note_on_c, 0, 49, 50
1, 495511, Note_on_c, 0, 42, 40
1, 495517, Note_on_c, 0, 30, 43
1, 495518, Control_c, 0, 64, 93
1, 495533, Control_c, 0, 64, 91
1, 495548, Control_c, 0, 64, 88
1, 495562, Control_c, 0, 64, 83
1, 495577, Control_c, 0, 64, 77
1, 495592, Control_c, 0, 64, 71
1, 495607, Control_c, 0, 64, 63
1, 495622, Control_c, 0, 64, 53
1, 495637, Control_c, 0, 64, 38
1, 495651, Control_c, 0, 64, 0
1, 495971, Note_on_c, 0, 60, 64
1, 496060, Control_c, 0, 64, 36
1, 496075, Control_c, 0, 64, 47
1, 496075, Note_off_c, 0, 57, 62
1, 496090, Control_c, 0, 64, 56
1, 496105, Control_c, 0, 64, 63
1, 496119, Control_c, 0, 64, 66
1, 496134, Control_c, 0, 64, 68
1, 496149, Control_c, 0, 64, 70
1, 496164, Control_c, 0, 64, 71
1, 496178, Control_c, 0, 64, 73
1, 496193, Control_c, 0, 64, 75
1, 496208, Control_c, 0, 64, 76
1, 496223, Control_c, 0, 64, 77
1, 496267, Control_c, 0, 64, 77
1, 496338, Note_off_c, 0, 49, 44
1, 496381, Note_on_c, 0, 52, 44
1, 496415, Control_c, 0, 64, 77
1, 496445, Control_c, 0, 64, 76
1, 496459, Control_c, 0, 64, 74
1, 496474, Control_c, 0, 64, 71
1, 496489, Control_c, 0, 64, 68
1, 496504, Control_c, 0, 64, 65
1, 496519, Control_c, 0, 64, 62
1, 496534, Control_c, 0, 64, 58
1, 496549, Control_c, 0, 64, 53
1, 496564, Control_c, 0, 64, 51
1, 496578, Control_c, 0, 64, 51
1, 496608, Control_c, 0, 64, 51
1, 496608, Control_c, 0, 67, 19
1, 496623, Control_c, 0, 64, 50
1, 496638, Control_c, 0, 64, 49
1, 496638, Control_c, 0, 67, 23
1, 496652, Control_c, 0, 64, 47
1, 496652, Control_c, 0, 67, 25
1, 496667, Control_c, 0, 64, 47
1, 496683, Control_c, 0, 64, 45
1, 496683, Control_c, 0, 67, 27
1, 496698, Control_c, 0, 64, 42
1, 496713, Control_c, 0, 64, 37
1, 496728, Control_c, 0, 64, 31
1, 496728, Control_c, 0, 67, 30
1, 496742, Control_c, 0, 64, 0
1, 496764, Control_c, 0, 67, 32
1, 496779, Control_c, 0, 67, 34
1, 496794, Control_c, 0, 67, 35
1, 496808, Control_c, 0, 67, 37
1, 496823, Control_c, 0, 67, 39
1, 496838, Control_c, 0, 67, 39
1, 496853, Control_c, 0, 67, 40
1, 496858, Note_on_c, 0, 51, 43
1, 496902, Note_off_c, 0, 52, 55
1, 496927, Control_c, 0, 64, 30
1, 496942, Control_c, 0, 64, 35
1, 496957, Control_c, 0, 64, 38
1, 496972, Control_c, 0, 64, 41
1, 496987, Control_c, 0, 64, 45
1, 497002, Control_c, 0, 64, 50
1, 497016, Control_c, 0, 64, 53
1, 497031, Control_c, 0, 64, 55
1, 497046, Control_c, 0, 64, 56
1, 497061, Control_c, 0, 64, 59
1, 497076, Control_c, 0, 64, 62
1, 497090, Control_c, 0, 64, 64
1, 497105, Control_c, 0, 64, 66
1, 497120, Control_c, 0, 64, 67
1, 497134, Control_c, 0, 64, 69
1, 497149, Control_c, 0, 64, 71
1, 497164, Control_c, 0, 64, 74
1, 497179, Control_c, 0, 64, 76
1, 497194, Control_c, 0, 64, 79
1, 497208, Control_c, 0, 64, 80
1, 497208, Control_c, 0, 67, 40
1, 497223, Control_c, 0, 64, 82
1, 497238, Control_c, 0, 64, 82
1, 497238, Control_c, 0, 67, 41
1, 497268, Control_c, 0, 67, 41
1, 497342, Control_c, 0, 67, 42
1, 497371, Control_c, 0, 67, 42
1, 497416, Control_c, 0, 64, 82
1, 497446, Control_c, 0, 64, 81
1, 497461, Control_c, 0, 64, 80
1, 497461, Control_c, 0, 67, 43
1, 497475, Note_on_c, 0, 58, 41
1, 497476, Control_c, 0, 64, 79
1, 497476, Control_c, 0, 67, 45
1, 497488, Note_on_c, 0, 50, 36
1, 497491, Control_c, 0, 64, 78
1, 497491, Control_c, 0, 67, 49
1, 497513, Control_c, 0, 64, 76
1, 497513, Control_c, 0, 67, 51
1, 497518, Note_on_c, 0, 34, 28
1, 497528, Control_c, 0, 64, 74
1, 497528, Control_c, 0, 67, 52
1, 497543, Control_c, 0, 64, 73
1, 497557, Control_c, 0, 64, 72
1, 497572, Control_c, 0, 64, 70
1, 497581, Note_off_c, 0, 51, 41
1, 497587, Control_c, 0, 64, 67
1, 497602, Control_c, 0, 64, 65
1, 497617, Control_c, 0, 64, 64
1, 497631, Control_c, 0, 64, 63
1, 497646, Control_c, 0, 64, 61
1, 497659, Note_off_c, 0, 42, 45
1, 497661, Control_c, 0, 64, 58
1, 497676, Control_c, 0, 64, 54
1, 497691, Control_c, 0, 64, 51
1, 497702, Note_off_c, 0, 30, 36
1, 497705, Control_c, 0, 64, 48
1, 497716, Note_off_c, 0, 60, 38
1, 497720, Control_c, 0, 64, 43
1, 497735, Control_c, 0, 64, 35
1, 497750, Control_c, 0, 64, 0
1, 498031, Control_c, 0, 67, 53
1, 498090, Control_c, 0, 67, 53
1, 498120, Control_c, 0, 67, 54
1, 498149, Control_c, 0, 67, 54
1, 498164, Control_c, 0, 67, 56
1, 498179, Control_c, 0, 67, 63
1, 498194, Control_c, 0, 67, 67
1, 498209, Control_c, 0, 67, 68
1, 498224, Control_c, 0, 64, 36
1, 498239, Control_c, 0, 64, 50
1, 498261, Control_c, 0, 64, 60
1, 498276, Control_c, 0, 64, 64
1, 498292, Control_c, 0, 64, 68
1, 498307, Control_c, 0, 64, 71
1, 498322, Control_c, 0, 64, 75
1, 498336, Control_c, 0, 64, 81
1, 498351, Control_c, 0, 64, 89
1, 498366, Control_c, 0, 64, 99
1, 498380, Control_c, 0, 64, 113
1, 498388, Note_off_c, 0, 50, 41
1, 498395, Control_c, 0, 64, 127
1, 498447, Note_off_c, 0, 58, 62
1, 498898, Control_c, 0, 67, 68
1, 498987, Control_c, 0, 67, 69
1, 499052, Note_on_c, 0, 82, 68
1, 499159, Control_c, 0, 64, 116
1, 499174, Control_c, 0, 64, 104
1, 499189, Control_c, 0, 64, 93
1, 499203, Control_c, 0, 64, 84
1, 499219, Control_c, 0, 64, 75
1, 499234, Control_c, 0, 64, 66
1, 499249, Control_c, 0, 64, 55
1, 499249, Control_c, 0, 67, 69
1, 499264, Control_c, 0, 64, 38
1, 499278, Control_c, 0, 64, 0
1, 499293, Control_c, 0, 67, 70
1, 499426, Control_c, 0, 64, 38
1, 499441, Control_c, 0, 64, 53
1, 499456, Control_c, 0, 64, 63
1, 499471, Control_c, 0, 64, 69
1, 499485, Control_c, 0, 64, 73
1, 499500, Control_c, 0, 64, 75
1, 499515, Control_c, 0, 64, 78
1, 499530, Control_c, 0, 64, 83
1, 499544, Control_c, 0, 64, 92
1, 499544, Control_c, 0, 67, 69
1, 499559, Control_c, 0, 64, 105
1, 499569, Note_off_c, 0, 34, 54
1, 499574, Control_c, 0, 64, 127
1, 499619, Control_c, 0, 67, 69
1, 499625, Note_on_c, 0, 70, 41
1, 499649, Control_c, 0, 67, 68
1, 499678, Control_c, 0, 67, 67
1, 499693, Control_c, 0, 67, 67
1, 499720, Note_off_c, 0, 82, 60
1, 499722, Control_c, 0, 67, 66
1, 499737, Control_c, 0, 67, 66
1, 499789, Control_c, 0, 67, 65
1, 499804, Control_c, 0, 67, 65
1, 499834, Control_c, 0, 67, 64
1, 499952, Note_on_c, 0, 82, 76
1, 499968, Control_c, 0, 67, 64
1, 499986, Note_on_c, 0, 69, 41
1, 500044, Note_off_c, 0, 70, 53
1, 500087, Control_c, 0, 67, 63
1, 500116, Control_c, 0, 67, 63
1, 500142, Note_off_c, 0, 82, 54
1, 500160, Control_c, 0, 67, 62
1, 500190, Control_c, 0, 67, 62
1, 500249, Control_c, 0, 67, 61
1, 500278, Control_c, 0, 67, 61
1, 500307, Note_on_c, 0, 68, 44
1, 500323, Control_c, 0, 67, 60
1, 500367, Control_c, 0, 67, 60
1, 500397, Note_off_c, 0, 69, 36
1, 500397, Control_c, 0, 67, 59
1, 500581, Note_on_c, 0, 84, 71
1, 500803, Note_off_c, 0, 68, 42
1, 500889, Note_on_c, 0, 82, 83
1, 500922, Note_on_c, 0, 67, 50
1, 500945, Note_off_c, 0, 84, 63
1, 501028, Note_off_c, 0, 67, 32
1, 501149, Note_on_c, 0, 81, 86
1, 501169, Note_off_c, 0, 82, 59
1, 501172, Note_on_c, 0, 66, 45
1, 501303, Note_off_c, 0, 66, 36
1, 501425, Note_on_c, 0, 80, 83
1, 501440, Note_on_c, 0, 65, 46
1, 501517, Note_off_c, 0, 81, 56
1, 501554, Control_c, 0, 67, 60
1, 501569, Control_c, 0, 67, 60
1, 501613, Control_c, 0, 67, 61
1, 501628, Control_c, 0, 67, 61
1, 501658, Control_c, 0, 67, 62
1, 501732, Control_c, 0, 67, 62
1, 501734, Note_off_c, 0, 65, 42
1, 501744, Note_on_c, 0, 68, 73
1, 501747, Control_c, 0, 64, 121
1, 501762, Control_c, 0, 64, 107
1, 501762, Control_c, 0, 67, 63
1, 501777, Control_c, 0, 64, 99
1, 501780, Note_on_c, 0, 64, 37
1, 501791, Control_c, 0, 64, 94
1, 501791, Control_c, 0, 67, 63
1, 501798, Note_off_c, 0, 80, 62
1, 501806, Control_c, 0, 64, 90
1, 501821, Control_c, 0, 64, 85
1, 501821, Control_c, 0, 67, 64
1, 501836, Control_c, 0, 64, 79
1, 501851, Control_c, 0, 64, 72
1, 501851, Control_c, 0, 67, 64
1, 501866, Control_c, 0, 64, 65
1, 501866, Control_c, 0, 67, 65
1, 501880, Control_c, 0, 64, 57
1, 501880, Control_c, 0, 67, 65
1, 501895, Control_c, 0, 64, 49
1, 501895, Control_c, 0, 67, 66
1, 501910, Control_c, 0, 64, 35
1, 501910, Control_c, 0, 67, 66
1, 501924, Control_c, 0, 64, 0
1, 501924, Control_c, 0, 67, 67
1, 501984, Control_c, 0, 67, 67
1, 502080, Control_c, 0, 64, 32
1, 502095, Control_c, 0, 64, 48
1, 502097, Note_on_c, 0, 61, 37
1, 502110, Control_c, 0, 64, 58
1, 502124, Control_c, 0, 64, 64
1, 502139, Control_c, 0, 64, 67
1, 502154, Control_c, 0, 64, 71
1, 502169, Control_c, 0, 64, 75
1, 502184, Control_c, 0, 64, 81
1, 502198, Control_c, 0, 64, 88
1, 502205, Note_off_c, 0, 68, 57
1, 502213, Control_c, 0, 64, 95
1, 502228, Control_c, 0, 64, 100
1, 502243, Control_c, 0, 64, 103
1, 502374, Note_on_c, 0, 68, 55
1, 502377, Control_c, 0, 64, 95
1, 502392, Control_c, 0, 64, 85
1, 502394, Note_on_c, 0, 58, 37
1, 502407, Control_c, 0, 64, 75
1, 502421, Control_c, 0, 64, 66
1, 502436, Control_c, 0, 64, 61
1, 502451, Control_c, 0, 64, 60
1, 502452, Note_off_c, 0, 61, 38
1, 502466, Control_c, 0, 64, 63
1, 502466, Control_c, 0, 67, 67
1, 502481, Control_c, 0, 64, 67
1, 502496, Control_c, 0, 64, 72
1, 502510, Control_c, 0, 64, 76
1, 502525, Control_c, 0, 64, 80
1, 502537, Note_off_c, 0, 64, 48
1, 502540, Control_c, 0, 64, 84
1, 502555, Control_c, 0, 64, 88
1, 502570, Control_c, 0, 64, 93
1, 502585, Control_c, 0, 64, 96
1, 502600, Control_c, 0, 64, 98
1, 502644, Control_c, 0, 64, 100
1, 502672, Note_on_c, 0, 70, 64
1, 502674, Note_off_c, 0, 68, 31
1, 502688, Note_off_c, 0, 58, 54
1, 502689, Note_on_c, 0, 54, 43
1, 502797, Note_off_c, 0, 54, 60
1, 502903, Control_c, 0, 64, 98
1, 502933, Control_c, 0, 64, 95
1, 502948, Control_c, 0, 64, 93
1, 502962, Control_c, 0, 64, 91
1, 502977, Control_c, 0, 64, 87
1, 502992, Control_c, 0, 64, 84
1, 502998, Note_on_c, 0, 67, 63
1, 503007, Control_c, 0, 64, 81
1, 503021, Note_on_c, 0, 59, 43
1, 503021, Control_c, 0, 64, 79
1, 503036, Control_c, 0, 64, 77
1, 503051, Control_c, 0, 64, 74
1, 503066, Control_c, 0, 64, 71
1, 503082, Control_c, 0, 64, 67
1, 503096, Control_c, 0, 64, 64
1, 503111, Control_c, 0, 64, 61
1, 503122, Note_off_c, 0, 70, 53
1, 503126, Control_c, 0, 64, 58
1, 503141, Control_c, 0, 64, 54
1, 503156, Control_c, 0, 64, 46
1, 503170, Control_c, 0, 64, 33
1, 503185, Control_c, 0, 64, 0
1, 503230, Control_c, 0, 67, 67
1, 503259, Control_c, 0, 67, 68
1, 503303, Control_c, 0, 64, 41
1, 503318, Control_c, 0, 64, 55
1, 503333, Note_on_c, 0, 55, 31
1, 503333, Control_c, 0, 64, 63
1, 503348, Control_c, 0, 64, 66
1, 503348, Control_c, 0, 67, 68
1, 503363, Control_c, 0, 64, 68
1, 503363, Control_c, 0, 67, 69
1, 503378, Control_c, 0, 64, 70
1, 503378, Control_c, 0, 67, 69
1, 503393, Control_c, 0, 64, 73
1, 503408, Control_c, 0, 64, 76
1, 503408, Control_c, 0, 67, 70
1, 503423, Control_c, 0, 64, 80
1, 503438, Control_c, 0, 64, 84
1, 503452, Control_c, 0, 64, 87
1, 503452, Control_c, 0, 67, 70
1, 503467, Control_c, 0, 64, 88
1, 503467, Control_c, 0, 67, 71
1, 503482, Control_c, 0, 64, 89
1, 503482, Control_c, 0, 67, 72
1, 503503, Control_c, 0, 67, 72
1, 503518, Control_c, 0, 67, 76
1, 503533, Control_c, 0, 67, 89
1, 503548, Control_c, 0, 67, 98
1, 503563, Control_c, 0, 67, 103
1, 503578, Control_c, 0, 67, 106
1, 503607, Control_c, 0, 64, 89
1, 503607, Control_c, 0, 67, 108
1, 503622, Control_c, 0, 64, 88
1, 503627, Note_on_c, 0, 60, 49
1, 503637, Control_c, 0, 64, 88
1, 503637, Control_c, 0, 67, 111
1, 503652, Control_c, 0, 64, 86
1, 503652, Control_c, 0, 67, 113
1, 503658, Note_on_c, 0, 52, 37
1, 503667, Control_c, 0, 64, 84
1, 503667, Control_c, 0, 67, 115
1, 503682, Control_c, 0, 64, 82
1, 503696, Control_c, 0, 64, 79
1, 503699, Note_off_c, 0, 55, 40
1, 503702, Note_off_c, 0, 67, 45
1, 503712, Control_c, 0, 64, 76
1, 503727, Control_c, 0, 64, 74
1, 503742, Control_c, 0, 64, 70
1, 503756, Control_c, 0, 64, 66
1, 503771, Control_c, 0, 64, 62
1, 503786, Control_c, 0, 64, 55
1, 503801, Control_c, 0, 64, 46
1, 503816, Control_c, 0, 64, 31
1, 503830, Control_c, 0, 64, 0
1, 503920, Control_c, 0, 64, 38
1, 503935, Control_c, 0, 64, 48
1, 503950, Control_c, 0, 64, 56
1, 503955, Note_on_c, 0, 48, 40
1, 503965, Control_c, 0, 64, 61
1, 503980, Control_c, 0, 64, 65
1, 503982, Note_off_c, 0, 59, 38
1, 503994, Control_c, 0, 64, 68
1, 504009, Control_c, 0, 64, 71
1, 504024, Control_c, 0, 64, 74
1, 504039, Control_c, 0, 64, 77
1, 504052, Note_off_c, 0, 52, 36
1, 504053, Control_c, 0, 64, 82
1, 504068, Control_c, 0, 64, 87
1, 504083, Control_c, 0, 64, 91
1, 504098, Control_c, 0, 64, 93
1, 504113, Control_c, 0, 64, 95
1, 504127, Control_c, 0, 64, 95
1, 504142, Control_c, 0, 64, 96
1, 504149, Note_off_c, 0, 48, 36
1, 504253, Control_c, 0, 64, 95
1, 504268, Control_c, 0, 64, 94
1, 504283, Control_c, 0, 64, 93
1, 504298, Control_c, 0, 64, 91
1, 504312, Note_on_c, 0, 55, 57
1, 504313, Control_c, 0, 64, 89
1, 504327, Control_c, 0, 64, 87
1, 504342, Control_c, 0, 64, 85
1, 504357, Control_c, 0, 64, 83
1, 504372, Control_c, 0, 64, 79
1, 504387, Control_c, 0, 64, 74
1, 504401, Control_c, 0, 64, 69
1, 504416, Control_c, 0, 64, 63
1, 504421, Note_off_c, 0, 60, 44
1, 504431, Control_c, 0, 64, 56
1, 504445, Control_c, 0, 64, 47
1, 504460, Control_c, 0, 64, 0
1, 504630, Note_on_c, 0, 33, 45
1, 504698, Control_c, 0, 64, 38
1, 504713, Control_c, 0, 64, 44
1, 504728, Control_c, 0, 64, 51
1, 504742, Control_c, 0, 64, 56
1, 504757, Control_c, 0, 64, 61
1, 504757, Control_c, 0, 67, 113
1, 504772, Control_c, 0, 64, 64
1, 504787, Control_c, 0, 64, 65
1, 504802, Control_c, 0, 64, 67
1, 504816, Control_c, 0, 64, 68
1, 504831, Control_c, 0, 64, 70
1, 504846, Control_c, 0, 64, 71
1, 504861, Control_c, 0, 64, 72
1, 504875, Control_c, 0, 64, 72
1, 504890, Control_c, 0, 64, 73
1, 504944, Note_on_c, 0, 34, 47
1, 504944, Note_on_c, 0, 62, 49
1, 504980, Note_off_c, 0, 55, 49
1, 505002, Control_c, 0, 64, 72
1, 505017, Control_c, 0, 64, 71
1, 505031, Control_c, 0, 64, 67
1, 505046, Control_c, 0, 64, 62
1, 505061, Control_c, 0, 64, 58
1, 505071, Note_off_c, 0, 33, 38
1, 505090, Control_c, 0, 64, 61
1, 505105, Control_c, 0, 64, 63
1, 505135, Control_c, 0, 64, 62
1, 505149, Control_c, 0, 64, 60
1, 505164, Control_c, 0, 64, 58
1, 505164, Control_c, 0, 67, 111
1, 505179, Control_c, 0, 64, 55
1, 505193, Control_c, 0, 64, 53
1, 505208, Control_c, 0, 64, 52
1, 505223, Control_c, 0, 64, 53
1, 505238, Control_c, 0, 64, 55
1, 505253, Control_c, 0, 64, 58
1, 505259, Note_on_c, 0, 60, 63
1, 505268, Control_c, 0, 64, 60
1, 505270, Note_on_c, 0, 39, 42
1, 505283, Control_c, 0, 64, 62
1, 505283, Control_c, 0, 67, 109
1, 505298, Control_c, 0, 64, 64
1, 505306, Note_off_c, 0, 62, 62
1, 505313, Control_c, 0, 64, 66
1, 505327, Control_c, 0, 64, 68
1, 505327, Control_c, 0, 67, 107
1, 505342, Control_c, 0, 64, 70
1, 505347, Note_off_c, 0, 34, 57
1, 505357, Control_c, 0, 64, 72
1, 505357, Control_c, 0, 67, 105
1, 505372, Control_c, 0, 64, 75
1, 505387, Control_c, 0, 64, 77
1, 505401, Control_c, 0, 64, 78
1, 505416, Control_c, 0, 64, 80
1, 505431, Control_c, 0, 64, 82
1, 505431, Control_c, 0, 67, 103
1, 505446, Control_c, 0, 64, 82
1, 505553, Note_on_c, 0, 61, 70
1, 505566, Control_c, 0, 64, 82
1, 505572, Note_on_c, 0, 45, 46
1, 505577, Note_off_c, 0, 39, 59
1, 505580, Control_c, 0, 64, 81
1, 505595, Control_c, 0, 64, 79
1, 505610, Control_c, 0, 64, 74
1, 505625, Control_c, 0, 64, 67
1, 505639, Control_c, 0, 64, 60
1, 505649, Note_off_c, 0, 60, 55
1, 505654, Control_c, 0, 64, 52
1, 505669, Control_c, 0, 64, 49
1, 505684, Control_c, 0, 64, 54
1, 505698, Control_c, 0, 64, 60
1, 505713, Control_c, 0, 64, 64
1, 505728, Control_c, 0, 64, 66
1, 505751, Control_c, 0, 64, 67
1, 505766, Control_c, 0, 64, 65
1, 505780, Control_c, 0, 64, 60
1, 505795, Control_c, 0, 64, 55
1, 505810, Control_c, 0, 64, 48
1, 505824, Control_c, 0, 64, 33
1, 505839, Control_c, 0, 64, 0
1, 505841, Note_on_c, 0, 42, 45
1, 505943, Control_c, 0, 64, 45
1, 505958, Control_c, 0, 64, 60
1, 505972, Control_c, 0, 64, 66
1, 505972, Control_c, 0, 67, 101
1, 505987, Control_c, 0, 64, 70
1, 506002, Control_c, 0, 64, 73
1, 506016, Control_c, 0, 64, 75
1, 506031, Control_c, 0, 64, 78
1, 506046, Control_c, 0, 64, 81
1, 506061, Control_c, 0, 64, 83
1, 506076, Control_c, 0, 64, 84
1, 506105, Control_c, 0, 67, 99
1, 506127, Note_on_c, 0, 66, 69
1, 506135, Control_c, 0, 64, 83
1, 506141, Note_on_c, 0, 51, 46
1, 506150, Control_c, 0, 64, 81
1, 506165, Control_c, 0, 64, 75
1, 506180, Control_c, 0, 64, 70
1, 506195, Control_c, 0, 64, 67
1, 506210, Control_c, 0, 64, 66
1, 506224, Control_c, 0, 64, 67
1, 506226, Note_off_c, 0, 61, 61
1, 506239, Control_c, 0, 64, 69
1, 506254, Control_c, 0, 64, 73
1, 506269, Control_c, 0, 64, 76
1, 506284, Control_c, 0, 64, 77
1, 506284, Control_c, 0, 67, 97
1, 506314, Control_c, 0, 67, 95
1, 506329, Control_c, 0, 64, 77
1, 506329, Control_c, 0, 67, 92
1, 506340, Note_off_c, 0, 45, 36
1, 506344, Control_c, 0, 64, 79
1, 506344, Control_c, 0, 67, 88
1, 506359, Control_c, 0, 64, 80
1, 506359, Control_c, 0, 67, 84
1, 506374, Control_c, 0, 64, 81
1, 506374, Control_c, 0, 67, 81
1, 506388, Control_c, 0, 67, 78
1, 506398, Note_off_c, 0, 42, 43
1, 506403, Control_c, 0, 67, 76
1, 506418, Control_c, 0, 64, 81
1, 506418, Control_c, 0, 67, 75
1, 506433, Control_c, 0, 64, 82
1, 506433, Control_c, 0, 67, 74
1, 506433, Note_on_c, 0, 64, 74
1, 506438, Note_on_c, 0, 49, 56
1, 506447, Control_c, 0, 64, 83
1, 506447, Control_c, 0, 67, 73
1, 506462, Control_c, 0, 64, 84
1, 506462, Control_c, 0, 67, 71
1, 506469, Note_off_c, 0, 51, 59
1, 506477, Control_c, 0, 64, 84
1, 506477, Control_c, 0, 67, 70
1, 506480, Note_off_c, 0, 66, 56
1, 506499, Control_c, 0, 67, 68
1, 506514, Control_c, 0, 67, 66
1, 506529, Control_c, 0, 64, 85
1, 506529, Control_c, 0, 67, 65
1, 506544, Control_c, 0, 67, 64
1, 506559, Control_c, 0, 64, 85
1, 506559, Control_c, 0, 67, 63
1, 506621, Note_off_c, 0, 64, 59
1, 506662, Control_c, 0, 64, 85
1, 506677, Control_c, 0, 64, 84
1, 506692, Control_c, 0, 64, 83
1, 506708, Control_c, 0, 64, 82
1, 506722, Control_c, 0, 64, 80
1, 506737, Control_c, 0, 64, 78
1, 506737, Control_c, 0, 67, 63
1, 506743, Note_on_c, 0, 64, 77
1, 506752, Control_c, 0, 64, 76
1, 506752, Control_c, 0, 67, 64
1, 506761, Note_on_c, 0, 54, 59
1, 506766, Control_c, 0, 64, 72
1, 506781, Control_c, 0, 64, 68
1, 506796, Control_c, 0, 64, 63
1, 506811, Control_c, 0, 64, 58
1, 506826, Control_c, 0, 64, 51
1, 506826, Control_c, 0, 67, 64
1, 506827, Note_off_c, 0, 49, 54
1, 506840, Control_c, 0, 64, 39
1, 506855, Control_c, 0, 64, 0
1, 506855, Control_c, 0, 67, 65
1, 506885, Control_c, 0, 67, 65
1, 507003, Control_c, 0, 64, 42
1, 507018, Control_c, 0, 64, 54
1, 507033, Control_c, 0, 64, 62
1, 507047, Control_c, 0, 64, 66
1, 507047, Control_c, 0, 67, 65
1, 507050, Note_on_c, 0, 57, 50
1, 507063, Control_c, 0, 64, 70
1, 507078, Control_c, 0, 64, 74
1, 507078, Control_c, 0, 67, 64
1, 507093, Control_c, 0, 64, 78
1, 507108, Control_c, 0, 64, 84
1, 507108, Control_c, 0, 67, 63
1, 507123, Control_c, 0, 64, 89
1, 507123, Control_c, 0, 67, 63
1, 507137, Control_c, 0, 64, 94
1, 507137, Control_c, 0, 67, 62
1, 507152, Control_c, 0, 64, 98
1, 507152, Control_c, 0, 67, 62
1, 507167, Control_c, 0, 64, 100
1, 507182, Control_c, 0, 67, 61
1, 507211, Control_c, 0, 67, 61
1, 507249, Control_c, 0, 67, 60
1, 507328, Note_on_c, 0, 65, 79
1, 507343, Note_off_c, 0, 57, 32
1, 507351, Note_on_c, 0, 56, 62
1, 507352, Control_c, 0, 64, 97
1, 507359, Note_off_c, 0, 64, 51
1, 507367, Control_c, 0, 64, 93
1, 507382, Control_c, 0, 64, 88
1, 507396, Control_c, 0, 64, 84
1, 507404, Note_off_c, 0, 54, 47
1, 507411, Control_c, 0, 64, 77
1, 507426, Control_c, 0, 64, 68
1, 507441, Control_c, 0, 64, 57
1, 507456, Control_c, 0, 64, 0
1, 507471, Control_c, 0, 67, 61
1, 507575, Control_c, 0, 64, 44
1, 507589, Control_c, 0, 64, 58
1, 507604, Control_c, 0, 64, 65
1, 507619, Control_c, 0, 64, 69
1, 507619, Control_c, 0, 67, 60
1, 507623, Note_on_c, 0, 50, 57
1, 507634, Control_c, 0, 64, 74
1, 507634, Control_c, 0, 67, 60
1, 507649, Control_c, 0, 64, 79
1, 507649, Control_c, 0, 67, 59
1, 507663, Control_c, 0, 64, 86
1, 507663, Control_c, 0, 67, 58
1, 507678, Control_c, 0, 64, 92
1, 507678, Control_c, 0, 67, 50
1, 507691, Note_off_c, 0, 50, 60
1, 507693, Control_c, 0, 64, 101
1, 507693, Control_c, 0, 67, 42
1, 507705, Note_off_c, 0, 56, 61
1, 507708, Control_c, 0, 64, 109
1, 507708, Control_c, 0, 67, 36
1, 507723, Control_c, 0, 64, 122
1, 507723, Control_c, 0, 67, 31
1, 507737, Control_c, 0, 64, 127
1, 507737, Control_c, 0, 67, 27
1, 507752, Control_c, 0, 67, 24
1, 507931, Control_c, 0, 64, 122
1, 507933, Note_on_c, 0, 74, 76
1, 507946, Control_c, 0, 64, 113
1, 507960, Control_c, 0, 64, 107
1, 507974, Note_on_c, 0, 53, 49
1, 507975, Control_c, 0, 64, 103
1, 507998, Control_c, 0, 64, 99
1, 508013, Control_c, 0, 64, 93
1, 508013, Control_c, 0, 67, 26
1, 508027, Control_c, 0, 64, 87
1, 508042, Control_c, 0, 64, 82
1, 508055, Note_off_c, 0, 65, 58
1, 508057, Control_c, 0, 64, 77
1, 508072, Control_c, 0, 64, 70
1, 508087, Control_c, 0, 64, 64
1, 508087, Control_c, 0, 67, 28
1, 508101, Control_c, 0, 64, 53
1, 508116, Control_c, 0, 64, 30
1, 508131, Control_c, 0, 64, 0
1, 508195, Note_on_c, 0, 46, 61
1, 508264, Control_c, 0, 64, 32
1, 508279, Control_c, 0, 64, 41
1, 508293, Control_c, 0, 64, 48
1, 508308, Control_c, 0, 64, 55
1, 508323, Control_c, 0, 64, 60
1, 508338, Control_c, 0, 64, 62
1, 508353, Control_c, 0, 64, 64
1, 508368, Control_c, 0, 64, 66
1, 508372, Note_on_c, 0, 41, 60
1, 508383, Control_c, 0, 64, 67
1, 508398, Control_c, 0, 64, 69
1, 508412, Control_c, 0, 64, 71
1, 508427, Control_c, 0, 64, 73
1, 508442, Control_c, 0, 64, 75
1, 508457, Control_c, 0, 64, 78
1, 508472, Control_c, 0, 64, 80
1, 508486, Control_c, 0, 64, 80
1, 508501, Control_c, 0, 64, 79
1, 508516, Control_c, 0, 64, 72
1, 508531, Control_c, 0, 64, 64
1, 508546, Control_c, 0, 64, 58
1, 508550, Note_off_c, 0, 46, 33
1, 508557, Note_on_c, 0, 42, 71
1, 508561, Control_c, 0, 64, 60
1, 508575, Note_off_c, 0, 53, 42
1, 508575, Control_c, 0, 64, 65
1, 508590, Control_c, 0, 64, 69
1, 508599, Note_off_c, 0, 41, 60
1, 508605, Control_c, 0, 64, 74
1, 508619, Control_c, 0, 64, 77
1, 508634, Control_c, 0, 64, 80
1, 508649, Control_c, 0, 64, 83
1, 508665, Control_c, 0, 64, 85
1, 508680, Control_c, 0, 64, 87
1, 508695, Control_c, 0, 64, 89
1, 508709, Control_c, 0, 64, 89
1, 508724, Note_on_c, 0, 38, 67
1, 508724, Control_c, 0, 64, 90
1, 508729, Note_off_c, 0, 42, 64
1, 508747, Control_c, 0, 64, 90
1, 508761, Control_c, 0, 64, 91
1, 508806, Note_on_c, 0, 72, 78
1, 508849, Note_off_c, 0, 74, 59
1, 508863, Note_off_c, 0, 38, 57
1, 508925, Note_on_c, 0, 36, 71
1, 509012, Control_c, 0, 64, 90
1, 509057, Control_c, 0, 64, 89
1, 509071, Control_c, 0, 64, 88
1, 509086, Control_c, 0, 64, 87
1, 509101, Control_c, 0, 64, 86
1, 509116, Control_c, 0, 64, 85
1, 509131, Control_c, 0, 64, 84
1, 509146, Control_c, 0, 64, 84
1, 509160, Control_c, 0, 64, 82
1, 509160, Control_c, 0, 67, 30
1, 509175, Control_c, 0, 64, 81
1, 509190, Control_c, 0, 64, 79
1, 509193, Note_on_c, 0, 70, 84
1, 509205, Control_c, 0, 64, 78
1, 509215, Note_on_c, 0, 34, 62
1, 509220, Control_c, 0, 64, 76
1, 509234, Control_c, 0, 64, 75
1, 509249, Control_c, 0, 64, 73
1, 509260, Note_off_c, 0, 72, 62
1, 509264, Control_c, 0, 64, 70
1, 509265, Note_off_c, 0, 36, 61
1, 509279, Control_c, 0, 64, 65
1, 509294, Control_c, 0, 64, 57
1, 509308, Control_c, 0, 64, 37
1, 509308, Control_c, 0, 67, 32
1, 509323, Control_c, 0, 64, 0
1, 509323, Control_c, 0, 67, 32
1, 509338, Control_c, 0, 67, 33
1, 509353, Control_c, 0, 67, 33
1, 509367, Control_c, 0, 67, 34
1, 509456, Control_c, 0, 67, 34
1, 509472, Control_c, 0, 67, 35
1, 509480, Note_on_c, 0, 81, 76
1, 509522, Note_on_c, 0, 45, 52
1, 509598, Control_c, 0, 64, 49
1, 509613, Control_c, 0, 64, 60
1, 509628, Control_c, 0, 64, 66
1, 509643, Control_c, 0, 64, 69
1, 509658, Control_c, 0, 64, 73
1, 509664, Note_off_c, 0, 34, 61
1, 509672, Control_c, 0, 64, 76
1, 509687, Control_c, 0, 64, 80
1, 509693, Note_on_c, 0, 82, 88
1, 509702, Control_c, 0, 64, 84
1, 509704, Note_on_c, 0, 46, 66
1, 509706, Note_off_c, 0, 45, 38
1, 509712, Note_off_c, 0, 81, 65
1, 509717, Control_c, 0, 64, 89
1, 509717, Control_c, 0, 67, 34
1, 509732, Control_c, 0, 64, 93
1, 509746, Control_c, 0, 64, 97
1, 509754, Note_off_c, 0, 46, 61
1, 509761, Control_c, 0, 64, 101
1, 509776, Control_c, 0, 64, 104
1, 509790, Control_c, 0, 64, 106
1, 509797, Note_off_c, 0, 82, 61
1, 509820, Control_c, 0, 64, 109
1, 509820, Control_c, 0, 67, 34
1, 509890, Note_on_c, 0, 82, 97
1, 509894, Note_on_c, 0, 47, 66
1, 509942, Note_off_c, 0, 70, 59
1, 509954, Control_c, 0, 64, 111
1, 510028, Note_off_c, 0, 47, 61
1, 510067, Note_on_c, 0, 69, 80
1, 510079, Note_on_c, 0, 59, 61
1, 510182, Note_off_c, 0, 59, 61
1, 510249, Note_on_c, 0, 70, 85
1, 510253, Note_off_c, 0, 69, 64
1, 510256, Note_on_c, 0, 60, 67
1, 510303, Control_c, 0, 67, 34
1, 510317, Control_c, 0, 67, 35
1, 510332, Control_c, 0, 67, 35
1, 510337, Note_off_c, 0, 70, 64
1, 510347, Control_c, 0, 67, 36
1, 510368, Note_off_c, 0, 82, 62
1, 510377, Control_c, 0, 64, 109
1, 510383, Note_on_c, 0, 70, 76
1, 510392, Control_c, 0, 64, 106
1, 510407, Control_c, 0, 64, 103
1, 510407, Control_c, 0, 67, 36
1, 510421, Control_c, 0, 64, 100
1, 510436, Control_c, 0, 64, 98
1, 510436, Control_c, 0, 67, 37
1, 510451, Control_c, 0, 64, 95
1, 510466, Control_c, 0, 64, 92
1, 510466, Control_c, 0, 67, 37
1, 510481, Control_c, 0, 64, 88
1, 510485, Note_on_c, 0, 61, 65
1, 510488, Note_off_c, 0, 60, 64
1, 510495, Control_c, 0, 64, 84
1, 510495, Control_c, 0, 67, 38
1, 510510, Control_c, 0, 64, 81
1, 510525, Control_c, 0, 64, 77
1, 510540, Control_c, 0, 64, 73
1, 510555, Control_c, 0, 64, 69
1, 510569, Control_c, 0, 64, 66
1, 510584, Control_c, 0, 64, 63
1, 510599, Control_c, 0, 64, 59
1, 510606, Note_on_c, 0, 84, 88
1, 510613, Control_c, 0, 64, 54
1, 510613, Control_c, 0, 67, 38
1, 510628, Control_c, 0, 64, 48
1, 510643, Control_c, 0, 64, 40
1, 510643, Control_c, 0, 67, 39
1, 510658, Control_c, 0, 64, 0
1, 510756, Note_off_c, 0, 70, 62
1, 510791, Control_c, 0, 64, 42
1, 510806, Control_c, 0, 64, 50
1, 510806, Control_c, 0, 67, 38
1, 510821, Control_c, 0, 64, 56
1, 510836, Control_c, 0, 64, 60
1, 510836, Control_c, 0, 67, 38
1, 510851, Control_c, 0, 64, 61
1, 510860, Note_on_c, 0, 69, 64
1, 510880, Control_c, 0, 64, 59
1, 510895, Control_c, 0, 64, 55
1, 510910, Control_c, 0, 64, 50
1, 510925, Control_c, 0, 64, 47
1, 510939, Control_c, 0, 64, 49
1, 510950, Note_on_c, 0, 82, 86
1, 510954, Control_c, 0, 64, 55
1, 510969, Control_c, 0, 64, 61
1, 510991, Control_c, 0, 64, 64
1, 511006, Control_c, 0, 64, 66
1, 511021, Control_c, 0, 64, 68
1, 511036, Control_c, 0, 64, 70
1, 511051, Control_c, 0, 64, 73
1, 511052, Note_off_c, 0, 84, 62
1, 511066, Control_c, 0, 64, 76
1, 511069, Note_on_c, 0, 68, 66
1, 511070, Note_off_c, 0, 69, 60
1, 511081, Control_c, 0, 64, 79
1, 511096, Control_c, 0, 64, 82
1, 511110, Control_c, 0, 64, 83
1, 511199, Control_c, 0, 64, 82
1, 511214, Control_c, 0, 64, 80
1, 511228, Control_c, 0, 64, 75
1, 511242, Note_on_c, 0, 81, 86
1, 511243, Control_c, 0, 64, 68
1, 511258, Control_c, 0, 64, 58
1, 511267, Note_off_c, 0, 68, 61
1, 511270, Note_on_c, 0, 67, 59
1, 511273, Control_c, 0, 64, 45
1, 511288, Control_c, 0, 64, 36
1, 511303, Control_c, 0, 64, 39
1, 511304, Note_off_c, 0, 82, 59
1, 511317, Control_c, 0, 64, 50
1, 511332, Control_c, 0, 64, 60
1, 511347, Control_c, 0, 64, 66
1, 511361, Control_c, 0, 64, 71
1, 511376, Control_c, 0, 64, 76
1, 511391, Control_c, 0, 64, 79
1, 511406, Control_c, 0, 64, 81
1, 511421, Control_c, 0, 64, 82
1, 511450, Control_c, 0, 64, 80
1, 511451, Note_on_c, 0, 66, 59
1, 511465, Control_c, 0, 64, 72
1, 511480, Control_c, 0, 64, 62
1, 511495, Control_c, 0, 64, 53
1, 511510, Control_c, 0, 64, 54
1, 511513, Note_on_c, 0, 80, 85
1, 511516, Note_off_c, 0, 67, 36
1, 511525, Control_c, 0, 64, 60
1, 511540, Control_c, 0, 64, 66
1, 511554, Control_c, 0, 64, 73
1, 511569, Control_c, 0, 64, 79
1, 511574, Note_off_c, 0, 66, 58
1, 511579, Note_off_c, 0, 61, 51
1, 511584, Control_c, 0, 64, 83
1, 511599, Control_c, 0, 64, 86
1, 511609, Note_off_c, 0, 81, 59
1, 511614, Control_c, 0, 64, 88
1, 511617, Note_on_c, 0, 65, 64
1, 511628, Control_c, 0, 64, 89
1, 511643, Control_c, 0, 64, 89
1, 511717, Control_c, 0, 64, 89
1, 511739, Control_c, 0, 64, 88
1, 511754, Control_c, 0, 64, 86
1, 511769, Control_c, 0, 64, 84
1, 511784, Control_c, 0, 64, 82
1, 511799, Control_c, 0, 64, 79
1, 511805, Note_off_c, 0, 65, 61
1, 511814, Control_c, 0, 64, 76
1, 511829, Control_c, 0, 64, 73
1, 511835, Note_on_c, 0, 68, 75
1, 511843, Control_c, 0, 64, 69
1, 511859, Control_c, 0, 64, 66
1, 511873, Note_on_c, 0, 64, 38
1, 511873, Control_c, 0, 64, 63
1, 511888, Control_c, 0, 64, 61
1, 511903, Note_off_c, 0, 80, 61
1, 511903, Control_c, 0, 64, 58
1, 511918, Control_c, 0, 64, 53
1, 511933, Control_c, 0, 64, 44
1, 511948, Control_c, 0, 64, 0
1, 511963, Control_c, 0, 67, 38
1, 511978, Control_c, 0, 67, 39
1, 512008, Control_c, 0, 67, 39
1, 512023, Control_c, 0, 67, 40
1, 512064, Note_on_c, 0, 56, 46
1, 512097, Control_c, 0, 67, 40
1, 512117, Note_off_c, 0, 64, 59
1, 512141, Control_c, 0, 64, 40
1, 512156, Control_c, 0, 64, 55
1, 512171, Control_c, 0, 64, 62
1, 512185, Control_c, 0, 64, 66
1, 512200, Control_c, 0, 64, 69
1, 512215, Control_c, 0, 64, 72
1, 512230, Control_c, 0, 64, 75
1, 512245, Control_c, 0, 64, 79
1, 512249, Note_on_c, 0, 58, 56
1, 512259, Control_c, 0, 64, 82
1, 512265, Note_off_c, 0, 56, 55
1, 512274, Control_c, 0, 64, 83
1, 512289, Control_c, 0, 64, 83
1, 512304, Control_c, 0, 64, 84
1, 512304, Control_c, 0, 67, 41
1, 512319, Control_c, 0, 67, 41
1, 512327, Note_off_c, 0, 68, 46
1, 512378, Control_c, 0, 64, 83
1, 512407, Control_c, 0, 64, 82
1, 512422, Control_c, 0, 64, 81
1, 512424, Note_on_c, 0, 68, 68
1, 512437, Control_c, 0, 64, 80
1, 512437, Control_c, 0, 67, 42
1, 512438, Note_on_c, 0, 61, 49
1, 512452, Control_c, 0, 64, 78
1, 512461, Note_off_c, 0, 58, 36
1, 512467, Control_c, 0, 64, 76
1, 512467, Control_c, 0, 67, 42
1, 512489, Control_c, 0, 64, 73
1, 512504, Control_c, 0, 64, 68
1, 512504, Control_c, 0, 67, 45
1, 512518, Control_c, 0, 64, 63
1, 512518, Control_c, 0, 67, 48
1, 512533, Control_c, 0, 64, 56
1, 512533, Control_c, 0, 67, 49
1, 512548, Control_c, 0, 64, 44
1, 512548, Control_c, 0, 67, 50
1, 512563, Control_c, 0, 64, 33
1, 512578, Control_c, 0, 64, 30
1, 512592, Control_c, 0, 64, 32
1, 512607, Control_c, 0, 64, 41
1, 512622, Control_c, 0, 64, 51
1, 512628, Note_on_c, 0, 52, 44
1, 512637, Control_c, 0, 64, 58
1, 512649, Note_off_c, 0, 61, 49
1, 512652, Control_c, 0, 64, 62
1, 512668, Control_c, 0, 64, 63
1, 512682, Control_c, 0, 64, 65
1, 512697, Control_c, 0, 64, 66
1, 512712, Control_c, 0, 64, 66
1, 512716, Note_on_c, 0, 70, 69
1, 512727, Control_c, 0, 64, 67
1, 512765, Note_off_c, 0, 68, 54
1, 512801, Control_c, 0, 67, 50
1, 512815, Note_on_c, 0, 56, 50
1, 512815, Control_c, 0, 64, 66
1, 512830, Control_c, 0, 64, 66
1, 512836, Note_off_c, 0, 52, 47
1, 512845, Control_c, 0, 64, 65
1, 512860, Control_c, 0, 64, 65
1, 512875, Control_c, 0, 64, 64
1, 512890, Control_c, 0, 64, 64
1, 512905, Control_c, 0, 64, 63
1, 512920, Control_c, 0, 64, 62
1, 512934, Control_c, 0, 64, 61
1, 512949, Control_c, 0, 64, 60
1, 512964, Control_c, 0, 64, 59
1, 512979, Control_c, 0, 64, 58
1, 512994, Control_c, 0, 64, 55
1, 513003, Note_off_c, 0, 56, 52
1, 513008, Control_c, 0, 64, 53
1, 513012, Note_on_c, 0, 67, 68
1, 513023, Control_c, 0, 64, 49
1, 513028, Note_on_c, 0, 58, 48
1, 513038, Control_c, 0, 64, 45
1, 513053, Control_c, 0, 64, 37
1, 513068, Control_c, 0, 64, 0
1, 513099, Note_off_c, 0, 70, 58
1, 513186, Control_c, 0, 67, 50
1, 513215, Control_c, 0, 67, 49
1, 513217, Note_on_c, 0, 51, 45
1, 513253, Control_c, 0, 64, 42
1, 513253, Control_c, 0, 67, 49
1, 513268, Control_c, 0, 64, 52
1, 513282, Control_c, 0, 64, 59
1, 513296, Note_off_c, 0, 58, 44
1, 513297, Control_c, 0, 64, 63
1, 513312, Control_c, 0, 64, 65
1, 513327, Control_c, 0, 64, 65
1, 513341, Control_c, 0, 64, 66
1, 513356, Control_c, 0, 64, 67
1, 513371, Control_c, 0, 64, 68
1, 513386, Control_c, 0, 64, 69
1, 513401, Control_c, 0, 64, 70
1, 513409, Note_on_c, 0, 55, 45
1, 513430, Control_c, 0, 67, 49
1, 513458, Note_off_c, 0, 51, 36
1, 513491, Control_c, 0, 67, 50
1, 513505, Control_c, 0, 64, 69
1, 513520, Control_c, 0, 64, 69
1, 513520, Control_c, 0, 67, 50
1, 513535, Control_c, 0, 64, 68
1, 513550, Control_c, 0, 64, 67
1, 513564, Control_c, 0, 64, 66
1, 513579, Control_c, 0, 64, 64
1, 513594, Control_c, 0, 64, 62
1, 513609, Control_c, 0, 64, 60
1, 513617, Note_on_c, 0, 60, 55
1, 513624, Control_c, 0, 64, 57
1, 513629, Note_off_c, 0, 55, 48
1, 513638, Control_c, 0, 64, 54
1, 513653, Control_c, 0, 64, 50
1, 513667, Note_on_c, 0, 57, 26
1, 513668, Control_c, 0, 64, 43
1, 513677, Note_off_c, 0, 67, 49
1, 513683, Control_c, 0, 64, 30
1, 513698, Control_c, 0, 64, 0
1, 513812, Note_on_c, 0, 48, 37
1, 513846, Control_c, 0, 64, 41
1, 513861, Control_c, 0, 64, 51
1, 513876, Control_c, 0, 64, 60
1, 513880, Note_off_c, 0, 60, 63
1, 513891, Control_c, 0, 64, 65
1, 513905, Control_c, 0, 64, 68
1, 513920, Control_c, 0, 64, 71
1, 513935, Control_c, 0, 64, 74
1, 513935, Control_c, 0, 67, 51
1, 513949, Control_c, 0, 64, 75
1, 513964, Control_c, 0, 64, 77
1, 513967, Note_off_c, 0, 57, 34
1, 513987, Control_c, 0, 64, 79
1, 513987, Control_c, 0, 67, 51
1, 514002, Control_c, 0, 64, 79
1, 514002, Control_c, 0, 67, 52
1, 514002, Note_on_c, 0, 51, 47
1, 514017, Control_c, 0, 64, 80
1, 514017, Control_c, 0, 67, 52
1, 514031, Control_c, 0, 64, 80
1, 514031, Control_c, 0, 67, 55
1, 514046, Control_c, 0, 64, 81
1, 514046, Control_c, 0, 67, 65
1, 514061, Control_c, 0, 67, 76
1, 514067, Note_off_c, 0, 51, 47
1, 514076, Control_c, 0, 67, 85
1, 514088, Note_off_c, 0, 48, 22
1, 514090, Control_c, 0, 67, 94
1, 514105, Control_c, 0, 67, 100
1, 514120, Control_c, 0, 67, 105
1, 514135, Control_c, 0, 67, 108
1, 514150, Control_c, 0, 64, 80
1, 514150, Control_c, 0, 67, 110
1, 514164, Control_c, 0, 64, 80
1, 514164, Control_c, 0, 67, 112
1, 514179, Control_c, 0, 64, 79
1, 514179, Control_c, 0, 67, 114
1, 514195, Control_c, 0, 64, 79
1, 514195, Control_c, 0, 67, 117
1, 514210, Control_c, 0, 64, 78
1, 514210, Control_c, 0, 67, 119
1, 514225, Control_c, 0, 64, 77
1, 514239, Control_c, 0, 64, 75
1, 514239, Control_c, 0, 67, 121
1, 514255, Control_c, 0, 64, 73
1, 514256, Note_on_c, 0, 43, 59
1, 514270, Control_c, 0, 64, 71
1, 514285, Control_c, 0, 64, 69
1, 514300, Control_c, 0, 64, 66
1, 514315, Control_c, 0, 64, 63
1, 514329, Control_c, 0, 64, 59
1, 514344, Control_c, 0, 64, 52
1, 514359, Control_c, 0, 64, 42
1, 514359, Control_c, 0, 67, 123
1, 514374, Control_c, 0, 64, 0
1, 514470, Note_on_c, 0, 55, 53
1, 514471, Note_on_c, 0, 33, 47
1, 514516, Note_off_c, 0, 43, 39
1, 514662, Note_on_c, 0, 50, 60
1, 514680, Note_on_c, 0, 34, 41
1, 514684, Control_c, 0, 64, 35
1, 514699, Control_c, 0, 64, 37
1, 514702, Note_off_c, 0, 33, 38
1, 514702, Note_off_c, 0, 55, 60
1, 514714, Control_c, 0, 64, 38
1, 514736, Control_c, 0, 64, 37
1, 514751, Control_c, 0, 64, 34
1, 514766, Control_c, 0, 64, 0
1, 514795, Control_c, 0, 64, 32
1, 514810, Control_c, 0, 64, 40
1, 514825, Control_c, 0, 64, 47
1, 514838, Note_off_c, 0, 34, 57
1, 514840, Control_c, 0, 64, 54
1, 514854, Control_c, 0, 64, 57
1, 514860, Note_on_c, 0, 35, 55
1, 514869, Control_c, 0, 64, 60
1, 514884, Control_c, 0, 64, 62
1, 514899, Control_c, 0, 64, 62
1, 514929, Control_c, 0, 64, 62
1, 514943, Control_c, 0, 64, 60
1, 514958, Control_c, 0, 64, 58
1, 514973, Control_c, 0, 64, 56
1, 514987, Control_c, 0, 64, 55
1, 515002, Control_c, 0, 64, 54
1, 515017, Control_c, 0, 64, 52
1, 515025, Note_on_c, 0, 62, 59
1, 515032, Control_c, 0, 64, 50
1, 515033, Note_off_c, 0, 35, 58
1, 515034, Note_on_c, 0, 34, 35
1, 515046, Note_off_c, 0, 50, 37
1, 515047, Control_c, 0, 64, 47
1, 515063, Control_c, 0, 64, 45
1, 515092, Control_c, 0, 64, 47
1, 515107, Control_c, 0, 64, 50
1, 515107, Control_c, 0, 67, 121
1, 515122, Control_c, 0, 64, 54
1, 515136, Control_c, 0, 64, 57
1, 515151, Control_c, 0, 64, 60
1, 515166, Control_c, 0, 64, 61
1, 515181, Control_c, 0, 64, 62
1, 515196, Control_c, 0, 64, 63
1, 515204, Note_on_c, 0, 60, 71
1, 515210, Control_c, 0, 64, 65
1, 515217, Note_off_c, 0, 62, 62
1, 515221, Note_on_c, 0, 39, 52
1, 515225, Control_c, 0, 64, 66
1, 515240, Control_c, 0, 64, 68
1, 515255, Control_c, 0, 64, 70
1, 515270, Control_c, 0, 64, 71
1, 515284, Control_c, 0, 64, 72
1, 515299, Control_c, 0, 64, 74
1, 515314, Control_c, 0, 64, 74
1, 515323, Note_off_c, 0, 60, 64
1, 515328, Control_c, 0, 64, 75
1, 515328, Control_c, 0, 67, 119
1, 515343, Control_c, 0, 64, 76
1, 515344, Note_off_c, 0, 34, 40
1, 515388, Note_on_c, 0, 61, 71
1, 515403, Control_c, 0, 64, 74
1, 515415, Note_on_c, 0, 42, 51
1, 515418, Control_c, 0, 64, 69
1, 515431, Note_off_c, 0, 39, 49
1, 515433, Control_c, 0, 64, 63
1, 515448, Control_c, 0, 64, 62
1, 515462, Control_c, 0, 64, 64
1, 515484, Control_c, 0, 64, 67
1, 515499, Control_c, 0, 64, 70
1, 515514, Control_c, 0, 64, 72
1, 515546, Note_off_c, 0, 42, 63
1, 515558, Control_c, 0, 64, 71
1, 515573, Control_c, 0, 64, 70
1, 515575, Note_on_c, 0, 73, 77
1, 515577, Note_off_c, 0, 61, 59
1, 515588, Control_c, 0, 64, 69
1, 515590, Note_on_c, 0, 45, 45
1, 515603, Control_c, 0, 64, 68
1, 515618, Control_c, 0, 64, 68
1, 515647, Control_c, 0, 64, 67
1, 515766, Control_c, 0, 64, 67
1, 515767, Note_on_c, 0, 66, 76
1, 515772, Note_off_c, 0, 45, 52
1, 515781, Control_c, 0, 64, 66
1, 515784, Note_on_c, 0, 49, 57
1, 515795, Control_c, 0, 64, 65
1, 515810, Control_c, 0, 64, 64
1, 515825, Control_c, 0, 64, 63
1, 515827, Note_off_c, 0, 73, 62
1, 515840, Control_c, 0, 64, 61
1, 515856, Control_c, 0, 64, 58
1, 515871, Control_c, 0, 64, 52
1, 515886, Control_c, 0, 64, 41
1, 515900, Control_c, 0, 64, 0
1, 515955, Note_on_c, 0, 51, 56
1, 515959, Control_c, 0, 64, 43
1, 515971, Note_off_c, 0, 49, 54
1, 515974, Control_c, 0, 64, 51
1, 515989, Control_c, 0, 64, 49
1, 516004, Control_c, 0, 64, 33
1, 516019, Control_c, 0, 64, 0
1, 516077, Control_c, 0, 67, 117
1, 516136, Note_on_c, 0, 78, 69
1, 516146, Note_off_c, 0, 51, 57
1, 516151, Control_c, 0, 64, 33
1, 516155, Note_on_c, 0, 54, 37
1, 516159, Note_off_c, 0, 66, 59
1, 516166, Control_c, 0, 64, 35
1, 516181, Control_c, 0, 64, 37
1, 516196, Control_c, 0, 64, 40
1, 516211, Control_c, 0, 64, 45
1, 516233, Control_c, 0, 64, 51
1, 516248, Control_c, 0, 64, 56
1, 516263, Control_c, 0, 64, 59
1, 516277, Control_c, 0, 64, 62
1, 516292, Control_c, 0, 64, 64
1, 516292, Control_c, 0, 67, 115
1, 516307, Control_c, 0, 64, 66
1, 516322, Control_c, 0, 64, 67
1, 516333, Note_off_c, 0, 54, 58
1, 516334, Note_on_c, 0, 76, 78
1, 516337, Control_c, 0, 64, 70
1, 516337, Control_c, 0, 67, 113
1, 516351, Note_on_c, 0, 57, 50
1, 516351, Control_c, 0, 64, 73
1, 516366, Control_c, 0, 64, 76
1, 516374, Note_off_c, 0, 78, 63
1, 516381, Control_c, 0, 64, 78
1, 516396, Control_c, 0, 64, 79
1, 516408, Note_off_c, 0, 57, 62
1, 516411, Control_c, 0, 64, 79
1, 516425, Control_c, 0, 67, 111
1, 516441, Control_c, 0, 64, 80
1, 516449, Note_off_c, 0, 76, 61
1, 516542, Note_on_c, 0, 76, 79
1, 516559, Control_c, 0, 64, 79
1, 516561, Note_on_c, 0, 60, 45
1, 516574, Control_c, 0, 64, 77
1, 516589, Control_c, 0, 64, 71
1, 516604, Control_c, 0, 64, 65
1, 516619, Control_c, 0, 64, 61
1, 516619, Control_c, 0, 67, 109
1, 516634, Control_c, 0, 64, 62
1, 516649, Control_c, 0, 64, 65
1, 516664, Control_c, 0, 64, 68
1, 516679, Control_c, 0, 64, 70
1, 516679, Control_c, 0, 67, 106
1, 516694, Control_c, 0, 64, 73
1, 516694, Control_c, 0, 67, 104
1, 516709, Control_c, 0, 64, 75
1, 516709, Control_c, 0, 67, 97
1, 516723, Control_c, 0, 64, 77
1, 516723, Control_c, 0, 67, 84
1, 516738, Control_c, 0, 64, 80
1, 516738, Control_c, 0, 67, 68
1, 516739, Note_on_c, 0, 61, 63
1, 516742, Note_off_c, 0, 60, 57
1, 516753, Control_c, 0, 64, 80
1, 516753, Control_c, 0, 67, 56
1, 516768, Control_c, 0, 64, 81
1, 516768, Control_c, 0, 67, 48
1, 516774, Note_off_c, 0, 76, 62
1, 516783, Control_c, 0, 67, 46
1, 516813, Control_c, 0, 67, 46
1, 516828, Control_c, 0, 67, 47
1, 516843, Control_c, 0, 64, 80
1, 516843, Control_c, 0, 67, 48
1, 516857, Control_c, 0, 64, 79
1, 516857, Control_c, 0, 67, 49
1, 516872, Control_c, 0, 64, 75
1, 516872, Control_c, 0, 67, 50
1, 516887, Control_c, 0, 64, 71
1, 516887, Control_c, 0, 67, 51
1, 516901, Control_c, 0, 64, 67
1, 516901, Control_c, 0, 67, 52
1, 516916, Control_c, 0, 64, 63
1, 516931, Control_c, 0, 64, 55
1, 516931, Control_c, 0, 67, 52
1, 516937, Note_on_c, 0, 69, 71
1, 516943, Note_off_c, 0, 61, 56
1, 516946, Control_c, 0, 64, 44
1, 516946, Control_c, 0, 67, 53
1, 516961, Control_c, 0, 64, 0
1, 516961, Control_c, 0, 67, 54
1, 516968, Note_on_c, 0, 63, 43
1, 516983, Control_c, 0, 67, 55
1, 516998, Control_c, 0, 67, 55
1, 517013, Control_c, 0, 67, 56
1, 517027, Control_c, 0, 67, 57
1, 517042, Control_c, 0, 64, 50
1, 517042, Control_c, 0, 67, 58
1, 517057, Control_c, 0, 64, 60
1, 517057, Control_c, 0, 67, 58
1, 517072, Control_c, 0, 64, 64
1, 517072, Control_c, 0, 67, 59
1, 517087, Control_c, 0, 64, 65
1, 517087, Control_c, 0, 67, 59
1, 517101, Control_c, 0, 64, 66
1, 517101, Control_c, 0, 67, 60
1, 517116, Control_c, 0, 64, 67
1, 517116, Control_c, 0, 67, 61
1, 517131, Control_c, 0, 67, 61
1, 517146, Control_c, 0, 67, 62
1, 517161, Control_c, 0, 64, 66
1, 517175, Control_c, 0, 64, 65
1, 517183, Note_off_c, 0, 63, 59
1, 517184, Note_off_c, 0, 69, 55
1, 517190, Control_c, 0, 64, 64
1, 517190, Control_c, 0, 67, 63
1, 517205, Control_c, 0, 64, 61
1, 517205, Control_c, 0, 67, 65
1, 517212, Note_on_c, 0, 77, 62
1, 517220, Control_c, 0, 64, 56
1, 517220, Control_c, 0, 67, 68
1, 517222, Note_on_c, 0, 62, 39
1, 517235, Control_c, 0, 64, 48
1, 517235, Control_c, 0, 67, 71
1, 517249, Control_c, 0, 64, 36
1, 517249, Control_c, 0, 67, 73
1, 517264, Control_c, 0, 64, 0
1, 517264, Control_c, 0, 67, 74
1, 517294, Control_c, 0, 67, 74
1, 517308, Control_c, 0, 67, 75
1, 517323, Control_c, 0, 67, 77
1, 517338, Control_c, 0, 67, 79
1, 517353, Control_c, 0, 67, 82
1, 517368, Control_c, 0, 67, 83
1, 517382, Control_c, 0, 64, 44
1, 517397, Control_c, 0, 64, 58
1, 517412, Control_c, 0, 64, 63
1, 517427, Control_c, 0, 64, 66
1, 517442, Control_c, 0, 64, 68
1, 517443, Note_off_c, 0, 77, 61
1, 517453, Note_on_c, 0, 58, 35
1, 517458, Control_c, 0, 64, 71
1, 517472, Control_c, 0, 64, 76
1, 517487, Control_c, 0, 64, 80
1, 517502, Control_c, 0, 64, 82
1, 517517, Control_c, 0, 64, 83
1, 517524, Note_off_c, 0, 62, 36
1, 517561, Control_c, 0, 67, 84
1, 517591, Control_c, 0, 67, 84
1, 517621, Control_c, 0, 64, 82
1, 517636, Control_c, 0, 64, 78
1, 517650, Control_c, 0, 64, 72
1, 517656, Note_on_c, 0, 70, 63
1, 517665, Control_c, 0, 64, 67
1, 517676, Note_off_c, 0, 58, 44
1, 517680, Control_c, 0, 64, 64
1, 517680, Control_c, 0, 67, 85
1, 517695, Control_c, 0, 64, 65
1, 517707, Note_on_c, 0, 54, 13
1, 517710, Control_c, 0, 64, 69
1, 517731, Control_c, 0, 64, 73
1, 517746, Control_c, 0, 64, 75
1, 517746, Control_c, 0, 67, 85
1, 517761, Control_c, 0, 64, 77
1, 517776, Control_c, 0, 64, 78
1, 517776, Control_c, 0, 67, 86
1, 517780, Note_off_c, 0, 54, 46
1, 517791, Control_c, 0, 64, 80
1, 517791, Control_c, 0, 67, 92
1, 517805, Control_c, 0, 64, 81
1, 517805, Control_c, 0, 67, 98
1, 517820, Control_c, 0, 64, 81
1, 517820, Control_c, 0, 67, 103
1, 517835, Control_c, 0, 67, 105
1, 517850, Control_c, 0, 67, 108
1, 517865, Control_c, 0, 67, 110
1, 517880, Control_c, 0, 67, 113
1, 517895, Control_c, 0, 67, 115
1, 517910, Control_c, 0, 67, 117
1, 517924, Control_c, 0, 64, 81
1, 517924, Control_c, 0, 67, 119
1, 517939, Control_c, 0, 64, 80
1, 517954, Control_c, 0, 64, 79
1, 517954, Control_c, 0, 67, 121
1, 517960, Note_on_c, 0, 82, 71
1, 517969, Control_c, 0, 64, 79
1, 517984, Control_c, 0, 64, 77
1, 517984, Control_c, 0, 67, 123
1, 517992, Note_on_c, 0, 53, 40
1, 517998, Control_c, 0, 64, 75
1, 518013, Control_c, 0, 64, 74
1, 518013, Control_c, 0, 67, 125
1, 518028, Control_c, 0, 64, 72
1, 518043, Control_c, 0, 64, 72
1, 518052, Note_off_c, 0, 70, 36
1, 518072, Control_c, 0, 64, 71
1, 518072, Control_c, 0, 67, 127
1, 518087, Control_c, 0, 64, 70
1, 518102, Control_c, 0, 64, 70
1, 518117, Control_c, 0, 64, 69
1, 518131, Control_c, 0, 64, 68
1, 518146, Control_c, 0, 64, 68
1, 518161, Control_c, 0, 64, 67
1, 518176, Control_c, 0, 64, 66
1, 518191, Control_c, 0, 64, 66
1, 518205, Control_c, 0, 64, 65
1, 518220, Control_c, 0, 64, 65
1, 518247, Note_on_c, 0, 46, 51
1, 518266, Control_c, 0, 64, 64
1, 518314, Note_off_c, 0, 53, 37
1, 518325, Control_c, 0, 64, 64
1, 518340, Control_c, 0, 64, 63
1, 518384, Control_c, 0, 64, 63
1, 518399, Control_c, 0, 64, 62
1, 518428, Control_c, 0, 64, 62
1, 518554, Control_c, 0, 64, 62
1, 518560, Note_on_c, 0, 41, 45
1, 518592, Note_off_c, 0, 46, 60
1, 518628, Control_c, 0, 64, 62
1, 518688, Control_c, 0, 64, 62
1, 518733, Control_c, 0, 64, 63
1, 518851, Control_c, 0, 64, 62
1, 518910, Control_c, 0, 64, 62
1, 518984, Control_c, 0, 64, 61
1, 519013, Control_c, 0, 64, 61
1, 519031, Note_on_c, 0, 34, 26
1, 519044, Control_c, 0, 64, 60
1, 519089, Control_c, 0, 64, 60
1, 519103, Control_c, 0, 64, 59
1, 519118, Control_c, 0, 64, 59
1, 519133, Control_c, 0, 64, 58
1, 519148, Control_c, 0, 64, 57
1, 519163, Control_c, 0, 64, 56
1, 519177, Control_c, 0, 64, 56
1, 519178, Note_off_c, 0, 41, 38
1, 519192, Control_c, 0, 64, 55
1, 519207, Control_c, 0, 64, 54
1, 519230, Control_c, 0, 64, 53
1, 519245, Control_c, 0, 64, 52
1, 519259, Control_c, 0, 64, 51
1, 519274, Control_c, 0, 64, 49
1, 519289, Control_c, 0, 64, 47
1, 519303, Control_c, 0, 64, 44
1, 519318, Control_c, 0, 64, 42
1, 519333, Control_c, 0, 64, 40
1, 519348, Control_c, 0, 64, 38
1, 519363, Control_c, 0, 64, 34
1, 519377, Control_c, 0, 64, 0
1, 519836, Control_c, 0, 64, 33
1, 519853, Control_c, 0, 64, 38
1, 519867, Control_c, 0, 64, 42
1, 519882, Control_c, 0, 64, 45
1, 519897, Control_c, 0, 64, 48
1, 519912, Control_c, 0, 64, 51
1, 519926, Control_c, 0, 64, 54
1, 519941, Control_c, 0, 64, 57
1, 519956, Control_c, 0, 64, 59
1, 519979, Control_c, 0, 64, 61
1, 519993, Control_c, 0, 64, 61
1, 520008, Control_c, 0, 64, 63
1, 520023, Control_c, 0, 64, 64
1, 520038, Control_c, 0, 64, 66
1, 520052, Control_c, 0, 64, 67
1, 520067, Control_c, 0, 64, 69
1, 520082, Control_c, 0, 64, 71
1, 520097, Control_c, 0, 64, 72
1, 520112, Control_c, 0, 64, 74
1, 520126, Control_c, 0, 64, 77
1, 520141, Control_c, 0, 64, 79
1, 520156, Control_c, 0, 64, 82
1, 520171, Control_c, 0, 64, 84
1, 520186, Control_c, 0, 64, 87
1, 520200, Control_c, 0, 64, 90
1, 520215, Control_c, 0, 64, 92
1, 520216, Note_off_c, 0, 82, 51
1, 520230, Control_c, 0, 64, 95
1, 520244, Control_c, 0, 64, 99
1, 520259, Control_c, 0, 64, 104
1, 520274, Control_c, 0, 64, 109
1, 520289, Control_c, 0, 64, 116
1, 520304, Control_c, 0, 64, 127
1, 520475, Note_on_c, 0, 38, 32
1, 520598, Note_on_c, 0, 39, 40
1, 520661, Note_on_c, 0, 46, 42
1, 520742, Note_off_c, 0, 38, 0
1, 520751, Note_on_c, 0, 45, 44
1, 520779, Poly_aftertouch_c, 0, 38, 127
1, 520808, Note_on_c, 0, 51, 42
1, 520895, Note_on_c, 0, 54, 46
1, 520994, Control_c, 0, 64, 118
1, 521009, Control_c, 0, 64, 112
1, 521020, Poly_aftertouch_c, 0, 38, 0
1, 521023, Control_c, 0, 64, 107
1, 521038, Control_c, 0, 64, 103
1, 521053, Control_c, 0, 64, 99
1, 521067, Control_c, 0, 64, 96
1, 521082, Control_c, 0, 64, 94
1, 521097, Control_c, 0, 64, 92
1, 521111, Note_on_c, 0, 58, 59
1, 521112, Control_c, 0, 64, 91
1, 521123, Note_off_c, 0, 45, 38
1, 521127, Control_c, 0, 64, 90
1, 521141, Control_c, 0, 64, 88
1, 521156, Control_c, 0, 64, 87
1, 521171, Control_c, 0, 64, 86
1, 521186, Control_c, 0, 64, 85
1, 521201, Control_c, 0, 64, 84
1, 521204, Note_off_c, 0, 54, 57
1, 521216, Control_c, 0, 64, 82
1, 521231, Control_c, 0, 64, 80
1, 521245, Control_c, 0, 64, 79
1, 521251, Note_off_c, 0, 39, 39
1, 521260, Control_c, 0, 64, 77
1, 521270, Note_off_c, 0, 51, 41
1, 521275, Control_c, 0, 64, 76
1, 521290, Control_c, 0, 64, 74
1, 521302, Note_off_c, 0, 46, 42
1, 521305, Control_c, 0, 64, 72
1, 521320, Control_c, 0, 64, 69
1, 521335, Control_c, 0, 64, 67
1, 521349, Control_c, 0, 64, 65
1, 521364, Control_c, 0, 64, 62
1, 521379, Control_c, 0, 64, 59
1, 521393, Control_c, 0, 64, 55
1, 521408, Control_c, 0, 64, 51
1, 521423, Control_c, 0, 64, 44
1, 521439, Control_c, 0, 64, 34
1, 521454, Control_c, 0, 64, 0
1, 521594, Control_c, 0, 64, 35
1, 521609, Control_c, 0, 64, 45
1, 521624, Control_c, 0, 64, 53
1, 521639, Control_c, 0, 64, 57
1, 521654, Control_c, 0, 64, 60
1, 521669, Control_c, 0, 64, 62
1, 521684, Control_c, 0, 64, 64
1, 521699, Control_c, 0, 64, 65
1, 521713, Control_c, 0, 64, 66
1, 521725, Note_on_c, 0, 54, 36
1, 521728, Control_c, 0, 64, 68
1, 521741, Note_on_c, 0, 38, 32
1, 521743, Control_c, 0, 64, 69
1, 521758, Control_c, 0, 64, 71
1, 521773, Control_c, 0, 64, 74
1, 521788, Control_c, 0, 64, 77
1, 521803, Control_c, 0, 64, 81
1, 521817, Control_c, 0, 64, 85
1, 521832, Control_c, 0, 64, 89
1, 521847, Control_c, 0, 64, 93
1, 521862, Control_c, 0, 64, 99
1, 521877, Control_c, 0, 64, 108
1, 521880, Note_off_c, 0, 54, 53
1, 521891, Control_c, 0, 64, 127
1, 521910, Note_off_c, 0, 58, 61
1, 522186, Note_on_c, 0, 67, 58
1, 522208, Note_on_c, 0, 39, 40
1, 522232, Note_on_c, 0, 55, 44
1, 522241, Note_off_c, 0, 34, 38
1, 522270, Control_c, 0, 64, 113
1, 522282, Note_off_c, 0, 38, 37
1, 522285, Control_c, 0, 64, 107
1, 522300, Control_c, 0, 64, 101
1, 522314, Control_c, 0, 64, 96
1, 522329, Control_c, 0, 64, 90
1, 522344, Control_c, 0, 64, 84
1, 522359, Control_c, 0, 64, 78
1, 522374, Control_c, 0, 64, 71
1, 522388, Control_c, 0, 64, 63
1, 522403, Control_c, 0, 64, 51
1, 522418, Control_c, 0, 64, 0
1, 522507, Control_c, 0, 64, 35
1, 522521, Control_c, 0, 64, 49
1, 522536, Control_c, 0, 64, 56
1, 522551, Control_c, 0, 64, 60
1, 522566, Control_c, 0, 64, 63
1, 522581, Control_c, 0, 64, 65
1, 522596, Control_c, 0, 64, 67
1, 522611, Control_c, 0, 64, 69
1, 522619, Note_on_c, 0, 60, 37
1, 522626, Control_c, 0, 64, 72
1, 522635, Note_on_c, 0, 44, 38
1, 522640, Control_c, 0, 64, 74
1, 522655, Note_off_c, 0, 55, 40
1, 522655, Control_c, 0, 64, 77
1, 522670, Control_c, 0, 64, 81
1, 522679, Note_off_c, 0, 39, 49
1, 522685, Control_c, 0, 64, 84
1, 522700, Control_c, 0, 64, 88
1, 522714, Control_c, 0, 64, 93
1, 522729, Control_c, 0, 64, 96
1, 522744, Control_c, 0, 64, 99
1, 522759, Control_c, 0, 64, 101
1, 522778, Note_off_c, 0, 44, 45
1, 522788, Control_c, 0, 64, 104
1, 522951, Control_c, 0, 64, 101
1, 522973, Note_on_c, 0, 65, 67
1, 522973, Control_c, 0, 64, 99
1, 522988, Control_c, 0, 64, 96
1, 522989, Note_off_c, 0, 60, 47
1, 523003, Control_c, 0, 64, 92
1, 523010, Note_on_c, 0, 43, 44
1, 523014, Note_on_c, 0, 59, 32
1, 523018, Control_c, 0, 64, 87
1, 523033, Control_c, 0, 64, 84
1, 523049, Control_c, 0, 64, 79
1, 523064, Control_c, 0, 64, 74
1, 523078, Control_c, 0, 64, 69
1, 523082, Note_off_c, 0, 67, 59
1, 523086, Note_off_c, 0, 59, 0
1, 523086, Note_on_c, 0, 59, 12
1, 523093, Control_c, 0, 64, 63
1, 523108, Control_c, 0, 64, 55
1, 523123, Control_c, 0, 64, 37
1, 523138, Control_c, 0, 64, 0
1, 523225, Control_c, 0, 64, 31
1, 523240, Control_c, 0, 64, 47
1, 523255, Control_c, 0, 64, 55
1, 523269, Control_c, 0, 64, 60
1, 523284, Control_c, 0, 64, 63
1, 523299, Control_c, 0, 64, 66
1, 523314, Control_c, 0, 64, 69
1, 523329, Control_c, 0, 64, 72
1, 523332, Note_on_c, 0, 47, 42
1, 523343, Control_c, 0, 64, 76
1, 523349, Note_on_c, 0, 63, 40
1, 523358, Control_c, 0, 64, 81
1, 523373, Control_c, 0, 64, 87
1, 523385, Note_off_c, 0, 59, 40
1, 523388, Control_c, 0, 64, 92
1, 523390, Note_off_c, 0, 65, 62
1, 523402, Control_c, 0, 64, 98
1, 523417, Control_c, 0, 64, 105
1, 523432, Control_c, 0, 64, 112
1, 523444, Note_off_c, 0, 63, 60
1, 523447, Control_c, 0, 64, 126
1, 523461, Note_off_c, 0, 43, 36
1, 523666, Note_on_c, 0, 70, 65
1, 523669, Control_c, 0, 64, 111
1, 523673, Note_off_c, 0, 47, 36
1, 523682, Note_on_c, 0, 48, 34
1, 523684, Control_c, 0, 64, 102
1, 523691, Note_on_c, 0, 64, 45
1, 523699, Control_c, 0, 64, 94
1, 523721, Control_c, 0, 64, 80
1, 523736, Control_c, 0, 64, 68
1, 523750, Control_c, 0, 64, 53
1, 523765, Control_c, 0, 64, 0
1, 523809, Control_c, 0, 64, 44
1, 523824, Control_c, 0, 64, 56
1, 523840, Control_c, 0, 64, 63
1, 523855, Control_c, 0, 64, 68
1, 523870, Control_c, 0, 64, 72
1, 523885, Control_c, 0, 64, 74
1, 523899, Control_c, 0, 64, 75
1, 523914, Control_c, 0, 64, 76
1, 523929, Control_c, 0, 64, 76
1, 523944, Control_c, 0, 64, 77
1, 523959, Control_c, 0, 64, 78
1, 523969, Note_off_c, 0, 64, 50
1, 523973, Control_c, 0, 64, 78
1, 523976, Note_off_c, 0, 48, 40
1, 523987, Note_on_c, 0, 72, 73
1, 523988, Control_c, 0, 64, 79
1, 524003, Control_c, 0, 64, 80
1, 524009, Note_on_c, 0, 51, 48
1, 524012, Note_on_c, 0, 67, 45
1, 524018, Control_c, 0, 64, 82
1, 524022, Note_off_c, 0, 70, 61
1, 524033, Control_c, 0, 64, 85
1, 524047, Control_c, 0, 64, 87
1, 524062, Control_c, 0, 64, 89
1, 524062, Control_c, 0, 67, 122
1, 524077, Control_c, 0, 64, 91
1, 524077, Control_c, 0, 67, 116
1, 524092, Control_c, 0, 64, 92
1, 524092, Control_c, 0, 67, 111
1, 524107, Control_c, 0, 64, 94
1, 524107, Control_c, 0, 67, 107
1, 524122, Control_c, 0, 64, 96
1, 524122, Control_c, 0, 67, 103
1, 524137, Control_c, 0, 67, 99
1, 524152, Control_c, 0, 64, 98
1, 524152, Control_c, 0, 67, 97
1, 524166, Control_c, 0, 67, 95
1, 524181, Control_c, 0, 67, 93
1, 524220, Note_off_c, 0, 51, 35
1, 524255, Control_c, 0, 64, 94
1, 524270, Control_c, 0, 64, 91
1, 524284, Control_c, 0, 64, 88
1, 524284, Control_c, 0, 67, 94
1, 524290, Note_off_c, 0, 67, 38
1, 524299, Control_c, 0, 64, 85
1, 524314, Control_c, 0, 64, 82
1, 524314, Control_c, 0, 67, 94
1, 524328, Note_on_c, 0, 70, 70
1, 524329, Control_c, 0, 64, 78
1, 524344, Control_c, 0, 64, 73
1, 524348, Note_on_c, 0, 50, 45
1, 524356, Note_on_c, 0, 66, 35
1, 524359, Control_c, 0, 64, 69
1, 524359, Control_c, 0, 67, 95
1, 524372, Note_off_c, 0, 72, 58
1, 524373, Control_c, 0, 64, 64
1, 524373, Control_c, 0, 67, 95
1, 524388, Control_c, 0, 64, 58
1, 524403, Control_c, 0, 64, 47
1, 524417, Control_c, 0, 64, 0
1, 524432, Control_c, 0, 67, 96
1, 524588, Control_c, 0, 64, 31
1, 524603, Control_c, 0, 64, 50
1, 524617, Control_c, 0, 64, 60
1, 524632, Control_c, 0, 64, 64
1, 524648, Control_c, 0, 64, 67
1, 524663, Control_c, 0, 64, 70
1, 524679, Control_c, 0, 64, 73
1, 524686, Note_on_c, 0, 69, 53
1, 524689, Note_on_c, 0, 60, 40
1, 524694, Control_c, 0, 64, 78
1, 524709, Control_c, 0, 64, 84
1, 524709, Control_c, 0, 67, 95
1, 524718, Note_off_c, 0, 66, 53
1, 524723, Control_c, 0, 64, 88
1, 524733, Note_off_c, 0, 70, 59
1, 524738, Control_c, 0, 64, 92
1, 524753, Control_c, 0, 64, 95
1, 524768, Control_c, 0, 64, 98
1, 524797, Control_c, 0, 64, 100
1, 524827, Control_c, 0, 67, 96
1, 524901, Control_c, 0, 67, 98
1, 524975, Control_c, 0, 64, 97
1, 524981, Note_off_c, 0, 50, 15
1, 524989, Control_c, 0, 64, 95
1, 525004, Control_c, 0, 64, 93
1, 525010, Note_on_c, 0, 79, 83
1, 525010, Note_off_c, 0, 69, 32
1, 525019, Control_c, 0, 64, 92
1, 525034, Control_c, 0, 64, 90
1, 525047, Note_on_c, 0, 68, 45
1, 525048, Note_on_c, 0, 59, 38
1, 525049, Control_c, 0, 64, 88
1, 525064, Control_c, 0, 64, 85
1, 525079, Control_c, 0, 64, 82
1, 525094, Control_c, 0, 64, 77
1, 525098, Note_off_c, 0, 68, 0
1, 525098, Note_on_c, 0, 68, 26
1, 525108, Control_c, 0, 64, 71
1, 525115, Note_off_c, 0, 60, 34
1, 525123, Control_c, 0, 64, 65
1, 525138, Control_c, 0, 64, 54
1, 525153, Control_c, 0, 64, 30
1, 525167, Control_c, 0, 64, 0
1, 525264, Control_c, 0, 64, 35
1, 525279, Control_c, 0, 64, 49
1, 525294, Control_c, 0, 64, 58
1, 525308, Control_c, 0, 64, 62
1, 525323, Control_c, 0, 64, 63
1, 525338, Control_c, 0, 64, 64
1, 525353, Control_c, 0, 64, 65
1, 525367, Control_c, 0, 64, 67
1, 525375, Note_off_c, 0, 68, 58
1, 525382, Control_c, 0, 64, 68
1, 525385, Note_on_c, 0, 66, 37
1, 525388, Note_on_c, 0, 57, 38
1, 525397, Control_c, 0, 64, 69
1, 525407, Note_off_c, 0, 59, 44
1, 525412, Control_c, 0, 64, 70
1, 525412, Control_c, 0, 67, 96
1, 525426, Control_c, 0, 64, 71
1, 525426, Control_c, 0, 67, 96
1, 525442, Control_c, 0, 64, 72
1, 525442, Control_c, 0, 67, 95
1, 525457, Control_c, 0, 64, 74
1, 525457, Control_c, 0, 67, 94
1, 525471, Control_c, 0, 64, 75
1, 525471, Control_c, 0, 67, 93
1, 525486, Control_c, 0, 64, 77
1, 525486, Control_c, 0, 67, 92
1, 525501, Control_c, 0, 64, 80
1, 525501, Control_c, 0, 67, 91
1, 525516, Control_c, 0, 64, 83
1, 525516, Control_c, 0, 67, 85
1, 525531, Control_c, 0, 64, 86
1, 525531, Control_c, 0, 67, 72
1, 525545, Control_c, 0, 64, 88
1, 525545, Control_c, 0, 67, 58
1, 525560, Control_c, 0, 64, 88
1, 525560, Control_c, 0, 67, 43
1, 525575, Control_c, 0, 67, 31
1, 525589, Control_c, 0, 64, 89
1, 525589, Control_c, 0, 67, 21
1, 525604, Control_c, 0, 67, 0
1, 525619, Control_c, 0, 64, 89
1, 525661, Note_off_c, 0, 57, 32
1, 525663, Control_c, 0, 64, 89
1, 525708, Control_c, 0, 64, 88
1, 525723, Control_c, 0, 64, 87
1, 525731, Note_on_c, 0, 75, 67
1, 525738, Control_c, 0, 64, 86
1, 525753, Control_c, 0, 64, 84
1, 525753, Note_off_c, 0, 66, 60
1, 525767, Control_c, 0, 64, 83
1, 525768, Note_on_c, 0, 67, 38
1, 525776, Note_on_c, 0, 59, 37
1, 525782, Control_c, 0, 64, 82
1, 525797, Control_c, 0, 64, 80
1, 525812, Control_c, 0, 64, 78
1, 525827, Control_c, 0, 64, 75
1, 525842, Control_c, 0, 64, 71
1, 525856, Control_c, 0, 64, 68
1, 525865, Note_off_c, 0, 79, 54
1, 525871, Control_c, 0, 64, 65
1, 525886, Control_c, 0, 64, 61
1, 525901, Control_c, 0, 64, 52
1, 525916, Control_c, 0, 64, 33
1, 525930, Control_c, 0, 64, 0
1, 525930, Control_c, 0, 67, 19
1, 525982, Control_c, 0, 67, 22
1, 526012, Control_c, 0, 67, 25
1, 526042, Control_c, 0, 67, 28
1, 526071, Control_c, 0, 67, 30
1, 526101, Control_c, 0, 67, 32
1, 526115, Control_c, 0, 67, 34
1, 526130, Control_c, 0, 67, 37
1, 526145, Control_c, 0, 67, 40
1, 526160, Control_c, 0, 64, 33
1, 526160, Control_c, 0, 67, 43
1, 526175, Control_c, 0, 64, 38
1, 526175, Control_c, 0, 67, 47
1, 526187, Note_on_c, 0, 66, 41
1, 526189, Control_c, 0, 64, 41
1, 526189, Control_c, 0, 67, 50
1, 526194, Note_on_c, 0, 58, 29
1, 526195, Note_off_c, 0, 67, 56
1, 526204, Control_c, 0, 64, 48
1, 526204, Control_c, 0, 67, 53
1, 526219, Control_c, 0, 64, 53
1, 526219, Control_c, 0, 67, 57
1, 526227, Note_off_c, 0, 59, 50
1, 526235, Control_c, 0, 64, 58
1, 526235, Control_c, 0, 67, 60
1, 526250, Control_c, 0, 64, 60
1, 526250, Control_c, 0, 67, 64
1, 526265, Control_c, 0, 64, 62
1, 526265, Control_c, 0, 67, 68
1, 526280, Control_c, 0, 64, 64
1, 526280, Control_c, 0, 67, 71
1, 526294, Control_c, 0, 64, 66
1, 526294, Control_c, 0, 67, 75
1, 526309, Control_c, 0, 64, 67
1, 526309, Control_c, 0, 67, 78
1, 526324, Control_c, 0, 64, 68
1, 526324, Control_c, 0, 67, 80
1, 526339, Control_c, 0, 64, 68
1, 526339, Control_c, 0, 67, 82
1, 526354, Control_c, 0, 67, 83
1, 526368, Control_c, 0, 67, 84
1, 526383, Control_c, 0, 67, 85
1, 526398, Control_c, 0, 64, 67
1, 526398, Control_c, 0, 67, 86
1, 526412, Control_c, 0, 64, 65
1, 526427, Control_c, 0, 64, 62
1, 526442, Control_c, 0, 64, 57
1, 526457, Control_c, 0, 64, 50
1, 526472, Control_c, 0, 64, 42
1, 526486, Control_c, 0, 64, 0
1, 526502, Note_on_c, 0, 74, 56
1, 526518, Note_on_c, 0, 55, 35
1, 526519, Note_on_c, 0, 63, 42
1, 526534, Note_off_c, 0, 58, 45
1, 526537, Note_off_c, 0, 66, 29
1, 526539, Note_off_c, 0, 75, 61
1, 526560, Control_c, 0, 64, 42
1, 526560, Control_c, 0, 67, 85
1, 526575, Control_c, 0, 64, 52
1, 526590, Control_c, 0, 64, 57
1, 526605, Control_c, 0, 64, 62
1, 526620, Control_c, 0, 64, 64
1, 526620, Control_c, 0, 67, 85
1, 526635, Control_c, 0, 64, 66
1, 526650, Control_c, 0, 64, 67
1, 526665, Control_c, 0, 64, 68
1, 526665, Control_c, 0, 67, 84
1, 526679, Control_c, 0, 64, 69
1, 526687, Note_off_c, 0, 63, 62
1, 526694, Control_c, 0, 64, 71
1, 526716, Control_c, 0, 64, 73
1, 526731, Control_c, 0, 64, 73
1, 526760, Control_c, 0, 64, 71
1, 526775, Control_c, 0, 64, 67
1, 526790, Control_c, 0, 64, 63
1, 526798, Note_off_c, 0, 55, 35
1, 526805, Control_c, 0, 64, 62
1, 526820, Control_c, 0, 64, 64
1, 526820, Note_on_c, 0, 72, 69
1, 526835, Control_c, 0, 64, 66
1, 526842, Note_on_c, 0, 61, 42
1, 526848, Note_on_c, 0, 52, 42
1, 526850, Control_c, 0, 64, 68
1, 526864, Control_c, 0, 64, 69
1, 526894, Control_c, 0, 64, 70
1, 526894, Control_c, 0, 67, 84
1, 526894, Note_off_c, 0, 74, 53
1, 526909, Control_c, 0, 64, 71
1, 526909, Control_c, 0, 67, 83
1, 526924, Control_c, 0, 64, 73
1, 526939, Control_c, 0, 64, 73
1, 526954, Control_c, 0, 64, 74
1, 526954, Control_c, 0, 67, 83
1, 527041, Note_off_c, 0, 61, 55
1, 527058, Control_c, 0, 64, 73
1, 527088, Control_c, 0, 64, 73
1, 527103, Control_c, 0, 64, 72
1, 527118, Control_c, 0, 64, 71
1, 527133, Control_c, 0, 64, 70
1, 527148, Control_c, 0, 64, 69
1, 527148, Control_c, 0, 67, 83
1, 527148, Note_on_c, 0, 70, 68
1, 527162, Control_c, 0, 64, 68
1, 527171, Note_on_c, 0, 47, 44
1, 527173, Note_on_c, 0, 62, 24
1, 527177, Control_c, 0, 64, 67
1, 527192, Control_c, 0, 64, 65
1, 527207, Control_c, 0, 64, 57
1, 527207, Control_c, 0, 67, 84
1, 527219, Note_off_c, 0, 72, 57
1, 527222, Control_c, 0, 64, 42
1, 527236, Control_c, 0, 64, 0
1, 527251, Control_c, 0, 67, 84
1, 527265, Note_off_c, 0, 52, 43
1, 527266, Control_c, 0, 64, 37
1, 527281, Control_c, 0, 64, 53
1, 527281, Control_c, 0, 67, 85
1, 527296, Control_c, 0, 64, 60
1, 527310, Control_c, 0, 64, 61
1, 527310, Control_c, 0, 67, 86
1, 527325, Control_c, 0, 64, 59
1, 527325, Control_c, 0, 67, 86
1, 527340, Control_c, 0, 64, 57
1, 527354, Control_c, 0, 64, 55
1, 527369, Control_c, 0, 64, 53
1, 527369, Control_c, 0, 67, 87
1, 527384, Control_c, 0, 64, 52
1, 527384, Control_c, 0, 67, 87
1, 527399, Control_c, 0, 64, 50
1, 527414, Control_c, 0, 64, 46
1, 527428, Control_c, 0, 64, 40
1, 527428, Control_c, 0, 67, 88
1, 527443, Control_c, 0, 64, 33
1, 527443, Control_c, 0, 67, 91
1, 527466, Control_c, 0, 64, 0
1, 527466, Control_c, 0, 67, 99
1, 527481, Control_c, 0, 67, 105
1, 527496, Control_c, 0, 67, 107
1, 527507, Note_on_c, 0, 63, 68
1, 527525, Note_on_c, 0, 48, 45
1, 527538, Note_off_c, 0, 47, 57
1, 527551, Note_off_c, 0, 62, 56
1, 527574, Note_off_c, 0, 70, 63
1, 527599, Control_c, 0, 64, 39
1, 527614, Control_c, 0, 64, 48
1, 527629, Control_c, 0, 64, 54
1, 527643, Control_c, 0, 64, 57
1, 527658, Control_c, 0, 64, 59
1, 527658, Control_c, 0, 67, 109
1, 527673, Control_c, 0, 64, 59
1, 527688, Control_c, 0, 64, 59
1, 527703, Control_c, 0, 64, 57
1, 527717, Control_c, 0, 64, 55
1, 527732, Control_c, 0, 64, 53
1, 527747, Control_c, 0, 64, 50
1, 527762, Control_c, 0, 64, 45
1, 527777, Control_c, 0, 64, 37
1, 527792, Control_c, 0, 64, 0
1, 527834, Note_off_c, 0, 48, 53
1, 527848, Note_on_c, 0, 54, 51
1, 527851, Note_on_c, 0, 49, 43
1, 527866, Control_c, 0, 64, 31
1, 527881, Control_c, 0, 64, 40
1, 527896, Control_c, 0, 64, 51
1, 527911, Control_c, 0, 64, 57
1, 527926, Control_c, 0, 64, 61
1, 527941, Control_c, 0, 64, 64
1, 527955, Control_c, 0, 64, 65
1, 527970, Control_c, 0, 64, 67
1, 527985, Control_c, 0, 64, 68
1, 528000, Control_c, 0, 64, 69
1, 528089, Control_c, 0, 64, 68
1, 528103, Control_c, 0, 64, 67
1, 528118, Control_c, 0, 64, 66
1, 528133, Control_c, 0, 64, 64
1, 528144, Note_off_c, 0, 49, 45
1, 528148, Control_c, 0, 64, 63
1, 528155, Note_off_c, 0, 54, 46
1, 528163, Control_c, 0, 64, 59
1, 528167, Note_on_c, 0, 65, 61
1, 528175, Note_on_c, 0, 56, 48
1, 528177, Control_c, 0, 64, 53
1, 528192, Control_c, 0, 64, 43
1, 528194, Note_on_c, 0, 48, 19
1, 528215, Control_c, 0, 64, 0
1, 528238, Note_off_c, 0, 63, 49
1, 528289, Control_c, 0, 64, 37
1, 528304, Control_c, 0, 64, 53
1, 528318, Control_c, 0, 64, 61
1, 528333, Control_c, 0, 64, 65
1, 528348, Control_c, 0, 64, 66
1, 528363, Control_c, 0, 64, 67
1, 528378, Control_c, 0, 64, 67
1, 528392, Control_c, 0, 64, 68
1, 528407, Control_c, 0, 64, 68
1, 528452, Control_c, 0, 64, 68
1, 528481, Control_c, 0, 64, 67
1, 528496, Control_c, 0, 64, 66
1, 528498, Note_off_c, 0, 48, 50
1, 528510, Control_c, 0, 64, 65
1, 528525, Control_c, 0, 64, 64
1, 528527, Note_on_c, 0, 66, 60
1, 528540, Control_c, 0, 64, 63
1, 528554, Note_on_c, 0, 47, 33
1, 528555, Note_on_c, 0, 57, 43
1, 528555, Control_c, 0, 64, 61
1, 528570, Control_c, 0, 64, 58
1, 528575, Note_off_c, 0, 65, 58
1, 528584, Control_c, 0, 64, 55
1, 528599, Control_c, 0, 64, 49
1, 528609, Note_off_c, 0, 56, 35
1, 528614, Control_c, 0, 64, 43
1, 528630, Control_c, 0, 64, 33
1, 528645, Control_c, 0, 64, 0
1, 528888, Note_on_c, 0, 35, 48
1, 528941, Control_c, 0, 64, 41
1, 528963, Control_c, 0, 64, 51
1, 528975, Note_off_c, 0, 47, 50
1, 528978, Control_c, 0, 64, 58
1, 528993, Control_c, 0, 64, 63
1, 529008, Control_c, 0, 64, 67
1, 529023, Control_c, 0, 64, 70
1, 529023, Control_c, 0, 67, 107
1, 529038, Control_c, 0, 64, 74
1, 529052, Control_c, 0, 64, 77
1, 529059, Note_off_c, 0, 57, 33
1, 529067, Control_c, 0, 64, 80
1, 529082, Control_c, 0, 64, 81
1, 529097, Control_c, 0, 64, 82
1, 529201, Control_c, 0, 64, 81
1, 529215, Control_c, 0, 64, 80
1, 529230, Control_c, 0, 64, 79
1, 529243, Note_on_c, 0, 57, 58
1, 529245, Control_c, 0, 64, 77
1, 529255, Note_on_c, 0, 54, 39
1, 529260, Control_c, 0, 64, 75
1, 529275, Control_c, 0, 64, 74
1, 529288, Note_off_c, 0, 66, 20
1, 529289, Control_c, 0, 64, 71
1, 529304, Control_c, 0, 64, 69
1, 529319, Control_c, 0, 64, 66
1, 529333, Control_c, 0, 64, 61
1, 529348, Control_c, 0, 64, 55
1, 529363, Control_c, 0, 64, 44
1, 529378, Control_c, 0, 64, 0
1, 529556, Note_on_c, 0, 36, 52
1, 529592, Note_off_c, 0, 35, 46
1, 529616, Control_c, 0, 64, 34
1, 529631, Control_c, 0, 64, 41
1, 529646, Control_c, 0, 64, 50
1, 529661, Control_c, 0, 64, 59
1, 529675, Control_c, 0, 64, 63
1, 529675, Control_c, 0, 67, 105
1, 529690, Control_c, 0, 64, 66
1, 529703, Note_off_c, 0, 54, 55
1, 529712, Control_c, 0, 64, 69
1, 529727, Control_c, 0, 64, 71
1, 529727, Control_c, 0, 67, 103
1, 529742, Control_c, 0, 64, 75
1, 529756, Control_c, 0, 64, 79
1, 529756, Control_c, 0, 67, 101
1, 529771, Control_c, 0, 64, 81
1, 529786, Control_c, 0, 64, 82
1, 529801, Control_c, 0, 64, 83
1, 529905, Control_c, 0, 64, 82
1, 529950, Control_c, 0, 64, 81
1, 529950, Note_on_c, 0, 67, 66
1, 529964, Control_c, 0, 64, 80
1, 529978, Note_on_c, 0, 53, 40
1, 529979, Control_c, 0, 64, 79
1, 529980, Note_on_c, 0, 37, 45
1, 529994, Control_c, 0, 64, 78
1, 530009, Control_c, 0, 64, 77
1, 530015, Note_off_c, 0, 57, 14
1, 530022, Note_off_c, 0, 36, 36
1, 530024, Control_c, 0, 64, 76
1, 530038, Control_c, 0, 64, 74
1, 530053, Control_c, 0, 64, 71
1, 530068, Control_c, 0, 64, 67
1, 530082, Control_c, 0, 64, 62
1, 530097, Control_c, 0, 64, 55
1, 530112, Control_c, 0, 64, 44
1, 530127, Control_c, 0, 64, 0
1, 530276, Control_c, 0, 64, 30
1, 530291, Control_c, 0, 64, 0
1, 530363, Note_on_c, 0, 38, 48
1, 530373, Note_off_c, 0, 37, 44
1, 530424, Control_c, 0, 64, 31
1, 530439, Control_c, 0, 64, 38
1, 530461, Control_c, 0, 64, 48
1, 530476, Control_c, 0, 64, 55
1, 530491, Control_c, 0, 64, 60
1, 530505, Control_c, 0, 64, 62
1, 530520, Control_c, 0, 64, 63
1, 530535, Control_c, 0, 64, 64
1, 530550, Control_c, 0, 64, 64
1, 530594, Control_c, 0, 64, 64
1, 530639, Control_c, 0, 64, 63
1, 530653, Control_c, 0, 64, 63
1, 530668, Control_c, 0, 64, 62
1, 530683, Control_c, 0, 64, 62
1, 530698, Control_c, 0, 64, 61
1, 530699, Note_on_c, 0, 58, 55
1, 530713, Control_c, 0, 64, 61
1, 530721, Note_on_c, 0, 54, 42
1, 530728, Control_c, 0, 64, 60
1, 530743, Control_c, 0, 64, 59
1, 530758, Control_c, 0, 64, 58
1, 530772, Control_c, 0, 64, 57
1, 530787, Control_c, 0, 64, 56
1, 530802, Control_c, 0, 64, 55
1, 530808, Note_off_c, 0, 53, 37
1, 530817, Control_c, 0, 64, 52
1, 530832, Control_c, 0, 64, 49
1, 530844, Note_off_c, 0, 67, 62
1, 530847, Control_c, 0, 64, 45
1, 530861, Control_c, 0, 64, 40
1, 530876, Control_c, 0, 64, 32
1, 530891, Control_c, 0, 64, 0
1, 530905, Control_c, 0, 67, 103
1, 531084, Note_on_c, 0, 46, 34
1, 531119, Note_off_c, 0, 38, 52
1, 531284, Control_c, 0, 64, 30
1, 531299, Control_c, 0, 64, 48
1, 531314, Control_c, 0, 64, 56
1, 531328, Control_c, 0, 64, 60
1, 531343, Control_c, 0, 64, 60
1, 531358, Control_c, 0, 64, 61
1, 531373, Control_c, 0, 64, 61
1, 531388, Control_c, 0, 64, 62
1, 531462, Control_c, 0, 64, 61
1, 531482, Note_on_c, 0, 63, 53
1, 531491, Note_on_c, 0, 55, 40
1, 531491, Control_c, 0, 64, 60
1, 531521, Control_c, 0, 64, 60
1, 531536, Control_c, 0, 64, 59
1, 531550, Control_c, 0, 64, 58
1, 531565, Control_c, 0, 64, 58
1, 531567, Note_off_c, 0, 54, 38
1, 531580, Note_off_c, 0, 58, 50
1, 531580, Control_c, 0, 64, 57
1, 531595, Control_c, 0, 64, 56
1, 531610, Control_c, 0, 64, 55
1, 531625, Control_c, 0, 64, 55
1, 531640, Control_c, 0, 64, 54
1, 531654, Control_c, 0, 64, 53
1, 531669, Control_c, 0, 64, 52
1, 531684, Control_c, 0, 64, 51
1, 531699, Control_c, 0, 64, 49
1, 531714, Control_c, 0, 64, 47
1, 531728, Control_c, 0, 64, 45
1, 531743, Control_c, 0, 64, 44
1, 531758, Control_c, 0, 64, 43
1, 531773, Control_c, 0, 64, 40
1, 531788, Control_c, 0, 64, 37
1, 531788, Control_c, 0, 67, 105
1, 531802, Control_c, 0, 64, 33
1, 531818, Control_c, 0, 64, 0
1, 531867, Note_on_c, 0, 39, 42
1, 531930, Note_off_c, 0, 46, 45
1, 532033, Control_c, 0, 64, 34
1, 532048, Control_c, 0, 64, 39
1, 532063, Control_c, 0, 64, 45
1, 532077, Control_c, 0, 64, 50
1, 532092, Control_c, 0, 64, 55
1, 532107, Control_c, 0, 64, 57
1, 532137, Control_c, 0, 64, 56
1, 532212, Control_c, 0, 64, 56
1, 532226, Control_c, 0, 64, 55
1, 532240, Note_on_c, 0, 51, 46
1, 532256, Control_c, 0, 64, 55
1, 532271, Control_c, 0, 64, 54
1, 532285, Control_c, 0, 64, 54
1, 532300, Control_c, 0, 64, 53
1, 532315, Control_c, 0, 64, 52
1, 532326, Note_off_c, 0, 39, 57
1, 532330, Control_c, 0, 64, 50
1, 532345, Control_c, 0, 64, 48
1, 532359, Control_c, 0, 64, 48
1, 532374, Control_c, 0, 64, 48
1, 532389, Control_c, 0, 64, 50
1, 532404, Control_c, 0, 64, 51
1, 532419, Control_c, 0, 64, 52
1, 532492, Control_c, 0, 64, 52
1, 532507, Control_c, 0, 64, 51
1, 532522, Control_c, 0, 64, 50
1, 532537, Control_c, 0, 64, 49
1, 532552, Control_c, 0, 64, 48
1, 532567, Control_c, 0, 64, 47
1, 532575, Note_on_c, 0, 62, 41
1, 532582, Control_c, 0, 64, 44
1, 532596, Control_c, 0, 64, 41
1, 532611, Control_c, 0, 64, 38
1, 532627, Control_c, 0, 64, 36
1, 532630, Note_off_c, 0, 63, 54
1, 532641, Control_c, 0, 64, 36
1, 532686, Control_c, 0, 64, 38
1, 532686, Control_c, 0, 67, 103
1, 532708, Control_c, 0, 64, 45
1, 532723, Control_c, 0, 64, 53
1, 532723, Control_c, 0, 67, 101
1, 532738, Note_off_c, 0, 55, 44
1, 532738, Control_c, 0, 64, 60
1, 532753, Control_c, 0, 64, 64
1, 532753, Control_c, 0, 67, 99
1, 532768, Control_c, 0, 64, 66
1, 532782, Control_c, 0, 64, 67
1, 532782, Control_c, 0, 67, 97
1, 532797, Control_c, 0, 64, 68
1, 532797, Control_c, 0, 67, 96
1, 532812, Control_c, 0, 64, 69
1, 532812, Control_c, 0, 67, 95
1, 532827, Control_c, 0, 64, 70
1, 532827, Control_c, 0, 67, 95
1, 532856, Control_c, 0, 67, 95
1, 532871, Control_c, 0, 67, 96
1, 532916, Control_c, 0, 64, 69
1, 532916, Control_c, 0, 67, 98
1, 532945, Control_c, 0, 64, 69
1, 532960, Control_c, 0, 64, 68
1, 532975, Control_c, 0, 64, 68
1, 532978, Note_on_c, 0, 63, 55
1, 532990, Control_c, 0, 64, 67
1, 532990, Control_c, 0, 67, 100
1, 533005, Control_c, 0, 64, 66
1, 533020, Control_c, 0, 64, 64
1, 533035, Control_c, 0, 64, 63
1, 533049, Control_c, 0, 64, 62
1, 533064, Control_c, 0, 64, 60
1, 533079, Control_c, 0, 64, 58
1, 533094, Control_c, 0, 64, 53
1, 533106, Note_off_c, 0, 62, 62
1, 533108, Control_c, 0, 64, 47
1, 533123, Control_c, 0, 64, 34
1, 533138, Control_c, 0, 64, 0
1, 533138, Control_c, 0, 67, 103
1, 533202, Note_on_c, 0, 61, 32
1, 533241, Control_c, 0, 64, 44
1, 533256, Control_c, 0, 64, 55
1, 533271, Control_c, 0, 64, 60
1, 533286, Control_c, 0, 64, 63
1, 533300, Control_c, 0, 64, 64
1, 533315, Control_c, 0, 64, 64
1, 533330, Control_c, 0, 64, 65
1, 533345, Control_c, 0, 64, 66
1, 533360, Control_c, 0, 64, 67
1, 533375, Control_c, 0, 64, 68
1, 533390, Control_c, 0, 64, 69
1, 533399, Note_on_c, 0, 64, 24
1, 533405, Control_c, 0, 64, 69
1, 533457, Note_off_c, 0, 61, 40
1, 533549, Note_off_c, 0, 64, 52
1, 533576, Control_c, 0, 64, 69
1, 533591, Note_on_c, 0, 65, 53
1, 533591, Control_c, 0, 64, 68
1, 533605, Control_c, 0, 64, 66
1, 533610, Note_on_c, 0, 60, 32
1, 533620, Control_c, 0, 64, 65
1, 533635, Control_c, 0, 64, 64
1, 533636, Note_off_c, 0, 63, 59
1, 533664, Control_c, 0, 64, 65
1, 533679, Control_c, 0, 64, 66
1, 533694, Control_c, 0, 64, 66
1, 533738, Control_c, 0, 64, 67
1, 533753, Control_c, 0, 64, 67
1, 533775, Note_off_c, 0, 60, 58
1, 533807, Note_on_c, 0, 63, 39
1, 533812, Control_c, 0, 64, 68
1, 533842, Control_c, 0, 64, 68
1, 533856, Control_c, 0, 64, 69
1, 533871, Control_c, 0, 64, 69
1, 533881, Note_on_c, 0, 67, 66
1, 533886, Control_c, 0, 64, 70
1, 533917, Note_off_c, 0, 65, 57
1, 533930, Control_c, 0, 64, 70
1, 533941, Note_off_c, 0, 63, 51
1, 533968, Note_on_c, 0, 59, 41
1, 534063, Control_c, 0, 64, 70
1, 534078, Control_c, 0, 64, 69
1, 534081, Note_off_c, 0, 59, 46
1, 534093, Control_c, 0, 64, 68
1, 534108, Control_c, 0, 64, 66
1, 534123, Control_c, 0, 64, 65
1, 534138, Control_c, 0, 64, 62
1, 534153, Control_c, 0, 64, 58
1, 534155, Note_on_c, 0, 68, 70
1, 534168, Control_c, 0, 64, 53
1, 534183, Control_c, 0, 64, 42
1, 534184, Note_on_c, 0, 60, 38
1, 534204, Control_c, 0, 64, 0
1, 534213, Note_off_c, 0, 67, 60
1, 534324, Control_c, 0, 64, 30
1, 534339, Control_c, 0, 64, 52
1, 534353, Control_c, 0, 64, 60
1, 534368, Control_c, 0, 64, 64
1, 534378, Note_on_c, 0, 56, 43
1, 534383, Control_c, 0, 64, 68
1, 534398, Control_c, 0, 64, 71
1, 534403, Note_off_c, 0, 60, 36
1, 534414, Control_c, 0, 64, 75
1, 534421, Note_off_c, 0, 51, 32
1, 534428, Control_c, 0, 64, 79
1, 534443, Control_c, 0, 64, 83
1, 534458, Control_c, 0, 64, 87
1, 534458, Control_c, 0, 67, 100
1, 534472, Control_c, 0, 64, 89
1, 534487, Control_c, 0, 64, 90
1, 534502, Control_c, 0, 64, 91
1, 534517, Control_c, 0, 64, 92
1, 534532, Control_c, 0, 64, 93
1, 534541, Note_off_c, 0, 56, 58
1, 534546, Control_c, 0, 64, 94
1, 534551, Note_on_c, 0, 51, 50
1, 534576, Control_c, 0, 64, 94
1, 534629, Note_off_c, 0, 51, 59
1, 534680, Control_c, 0, 64, 94
1, 534710, Control_c, 0, 64, 93
1, 534725, Control_c, 0, 64, 92
1, 534737, Note_on_c, 0, 69, 68
1, 534740, Control_c, 0, 64, 91
1, 534754, Control_c, 0, 64, 90
1, 534758, Note_on_c, 0, 52, 50
1, 534769, Control_c, 0, 64, 87
1, 534784, Control_c, 0, 64, 83
1, 534799, Control_c, 0, 64, 78
1, 534806, Note_off_c, 0, 68, 64
1, 534814, Control_c, 0, 64, 71
1, 534828, Control_c, 0, 64, 63
1, 534843, Control_c, 0, 64, 49
1, 534858, Control_c, 0, 64, 0
1, 534948, Note_on_c, 0, 49, 51
1, 534998, Control_c, 0, 64, 41
1, 534998, Control_c, 0, 67, 98
1, 535013, Control_c, 0, 64, 54
1, 535029, Control_c, 0, 64, 60
1, 535044, Control_c, 0, 64, 62
1, 535044, Control_c, 0, 67, 96
1, 535059, Control_c, 0, 64, 64
1, 535059, Control_c, 0, 67, 94
1, 535061, Note_off_c, 0, 52, 39
1, 535074, Control_c, 0, 64, 66
1, 535074, Control_c, 0, 67, 93
1, 535089, Control_c, 0, 64, 69
1, 535089, Control_c, 0, 67, 91
1, 535103, Control_c, 0, 64, 72
1, 535103, Control_c, 0, 67, 90
1, 535118, Control_c, 0, 64, 76
1, 535118, Control_c, 0, 67, 88
1, 535121, Note_on_c, 0, 45, 52
1, 535133, Control_c, 0, 64, 79
1, 535133, Control_c, 0, 67, 85
1, 535148, Control_c, 0, 64, 82
1, 535148, Control_c, 0, 67, 81
1, 535163, Control_c, 0, 64, 86
1, 535163, Control_c, 0, 67, 75
1, 535177, Control_c, 0, 64, 88
1, 535177, Control_c, 0, 67, 69
1, 535192, Control_c, 0, 64, 90
1, 535192, Control_c, 0, 67, 64
1, 535194, Note_off_c, 0, 49, 37
1, 535207, Control_c, 0, 67, 62
1, 535281, Control_c, 0, 64, 89
1, 535295, Control_c, 0, 64, 85
1, 535303, Note_on_c, 0, 70, 80
1, 535304, Note_off_c, 0, 45, 62
1, 535310, Control_c, 0, 64, 77
1, 535325, Control_c, 0, 64, 66
1, 535332, Note_on_c, 0, 46, 47
1, 535340, Control_c, 0, 64, 53
1, 535340, Control_c, 0, 67, 63
1, 535355, Control_c, 0, 64, 0
1, 535399, Note_off_c, 0, 69, 57
1, 535414, Control_c, 0, 64, 41
1, 535429, Control_c, 0, 64, 54
1, 535429, Control_c, 0, 67, 62
1, 535443, Control_c, 0, 64, 61
1, 535443, Control_c, 0, 67, 62
1, 535458, Control_c, 0, 64, 65
1, 535458, Control_c, 0, 67, 61
1, 535467, Note_off_c, 0, 46, 64
1, 535473, Control_c, 0, 64, 68
1, 535473, Control_c, 0, 67, 61
1, 535488, Control_c, 0, 64, 70
1, 535488, Control_c, 0, 67, 60
1, 535503, Control_c, 0, 64, 72
1, 535503, Control_c, 0, 67, 59
1, 535506, Note_on_c, 0, 43, 59
1, 535518, Control_c, 0, 64, 75
1, 535518, Control_c, 0, 67, 58
1, 535533, Control_c, 0, 64, 78
1, 535533, Control_c, 0, 67, 51
1, 535548, Control_c, 0, 64, 81
1, 535548, Control_c, 0, 67, 44
1, 535563, Control_c, 0, 64, 84
1, 535563, Control_c, 0, 67, 38
1, 535577, Control_c, 0, 64, 87
1, 535577, Control_c, 0, 67, 33
1, 535592, Control_c, 0, 64, 89
1, 535592, Control_c, 0, 67, 29
1, 535607, Control_c, 0, 64, 90
1, 535621, Control_c, 0, 64, 92
1, 535636, Control_c, 0, 64, 93
1, 535651, Control_c, 0, 64, 93
1, 535665, Note_off_c, 0, 43, 60
1, 535666, Control_c, 0, 64, 94
1, 535699, Note_on_c, 0, 39, 56
1, 535792, Control_c, 0, 67, 31
1, 535807, Control_c, 0, 67, 32
1, 535822, Control_c, 0, 64, 93
1, 535822, Control_c, 0, 67, 33
1, 535837, Control_c, 0, 64, 93
1, 535837, Control_c, 0, 67, 33
1, 535852, Control_c, 0, 64, 92
1, 535852, Control_c, 0, 67, 34
1, 535867, Control_c, 0, 64, 92
1, 535867, Control_c, 0, 67, 34
1, 535882, Control_c, 0, 64, 91
1, 535882, Control_c, 0, 67, 35
1, 535897, Control_c, 0, 64, 90
1, 535897, Note_off_c, 0, 39, 54
1, 535911, Control_c, 0, 64, 88
1, 535911, Control_c, 0, 67, 35
1, 535915, Note_on_c, 0, 79, 80
1, 535926, Control_c, 0, 64, 85
1, 535926, Control_c, 0, 67, 36
1, 535941, Control_c, 0, 64, 83
1, 535944, Note_on_c, 0, 40, 50
1, 535956, Control_c, 0, 64, 82
1, 535971, Control_c, 0, 64, 79
1, 535986, Control_c, 0, 64, 75
1, 536000, Control_c, 0, 64, 71
1, 536015, Note_off_c, 0, 70, 63
1, 536015, Control_c, 0, 64, 66
1, 536030, Control_c, 0, 64, 61
1, 536044, Control_c, 0, 64, 56
1, 536059, Control_c, 0, 64, 48
1, 536074, Control_c, 0, 64, 0
1, 536155, Note_on_c, 0, 36, 47
1, 536211, Note_off_c, 0, 40, 57
1, 536266, Control_c, 0, 64, 41
1, 536281, Control_c, 0, 64, 50
1, 536296, Control_c, 0, 64, 57
1, 536311, Control_c, 0, 64, 61
1, 536317, Note_on_c, 0, 31, 55
1, 536326, Control_c, 0, 64, 63
1, 536335, Note_off_c, 0, 36, 56
1, 536341, Control_c, 0, 64, 65
1, 536356, Control_c, 0, 64, 66
1, 536371, Control_c, 0, 64, 67
1, 536371, Control_c, 0, 67, 35
1, 536385, Control_c, 0, 64, 67
1, 536400, Control_c, 0, 64, 68
1, 536507, Note_on_c, 0, 77, 61
1, 536511, Control_c, 0, 64, 67
1, 536526, Control_c, 0, 64, 66
1, 536535, Note_on_c, 0, 35, 52
1, 536540, Control_c, 0, 64, 65
1, 536555, Control_c, 0, 64, 64
1, 536570, Control_c, 0, 64, 63
1, 536585, Note_off_c, 0, 31, 58
1, 536585, Control_c, 0, 64, 60
1, 536600, Control_c, 0, 64, 57
1, 536603, Note_off_c, 0, 79, 61
1, 536615, Control_c, 0, 64, 51
1, 536630, Control_c, 0, 64, 39
1, 536645, Control_c, 0, 64, 0
1, 536727, Note_on_c, 0, 32, 54
1, 536736, Note_off_c, 0, 35, 54
1, 536779, Control_c, 0, 64, 41
1, 536794, Control_c, 0, 64, 48
1, 536809, Note_on_c, 0, 75, 70
1, 536809, Control_c, 0, 64, 55
1, 536823, Control_c, 0, 64, 61
1, 536838, Control_c, 0, 64, 63
1, 536853, Control_c, 0, 64, 65
1, 536867, Control_c, 0, 64, 65
1, 536882, Control_c, 0, 64, 66
1, 536895, Note_off_c, 0, 32, 60
1, 536897, Control_c, 0, 64, 68
1, 536911, Note_on_c, 0, 42, 55
1, 536912, Control_c, 0, 64, 69
1, 536927, Control_c, 0, 64, 70
1, 536941, Control_c, 0, 64, 71
1, 536948, Note_off_c, 0, 77, 58
1, 536956, Control_c, 0, 64, 72
1, 536971, Control_c, 0, 64, 73
1, 536986, Control_c, 0, 64, 73
1, 536992, Note_off_c, 0, 42, 64
1, 537086, Note_on_c, 0, 74, 74
1, 537089, Control_c, 0, 64, 73
1, 537093, Note_on_c, 0, 41, 56
1, 537104, Control_c, 0, 64, 71
1, 537119, Control_c, 0, 64, 67
1, 537134, Control_c, 0, 64, 58
1, 537149, Control_c, 0, 64, 39
1, 537163, Control_c, 0, 64, 0
1, 537166, Note_off_c, 0, 75, 62
1, 537215, Control_c, 0, 64, 51
1, 537230, Control_c, 0, 64, 62
1, 537245, Control_c, 0, 64, 67
1, 537253, Note_off_c, 0, 41, 61
1, 537260, Control_c, 0, 64, 69
1, 537267, Note_on_c, 0, 53, 56
1, 537289, Control_c, 0, 64, 68
1, 537304, Control_c, 0, 64, 66
1, 537319, Control_c, 0, 64, 61
1, 537334, Control_c, 0, 64, 52
1, 537348, Control_c, 0, 64, 36
1, 537358, Note_on_c, 0, 72, 70
1, 537363, Control_c, 0, 64, 0
1, 537378, Control_c, 0, 67, 36
1, 537392, Note_off_c, 0, 74, 62
1, 537407, Control_c, 0, 67, 36
1, 537423, Control_c, 0, 67, 37
1, 537432, Note_off_c, 0, 53, 62
1, 537445, Note_on_c, 0, 54, 58
1, 537468, Control_c, 0, 64, 31
1, 537482, Control_c, 0, 64, 50
1, 537497, Control_c, 0, 64, 59
1, 537512, Control_c, 0, 64, 63
1, 537527, Control_c, 0, 64, 66
1, 537527, Control_c, 0, 67, 37
1, 537542, Control_c, 0, 64, 66
1, 537542, Control_c, 0, 67, 38
1, 537557, Control_c, 0, 64, 67
1, 537557, Control_c, 0, 67, 38
1, 537601, Control_c, 0, 64, 66
1, 537615, Control_c, 0, 64, 65
1, 537630, Control_c, 0, 64, 65
1, 537644, Note_off_c, 0, 54, 63
1, 537645, Control_c, 0, 64, 63
1, 537660, Control_c, 0, 64, 60
1, 537661, Note_on_c, 0, 70, 70
1, 537675, Control_c, 0, 64, 56
1, 537675, Control_c, 0, 67, 39
1, 537681, Note_on_c, 0, 55, 40
1, 537689, Control_c, 0, 64, 52
1, 537704, Control_c, 0, 64, 46
1, 537716, Note_off_c, 0, 72, 59
1, 537719, Control_c, 0, 64, 34
1, 537734, Control_c, 0, 64, 0
1, 537883, Note_on_c, 0, 58, 46
1, 537927, Control_c, 0, 64, 44
1, 537949, Control_c, 0, 64, 60
1, 537959, Note_off_c, 0, 55, 55
1, 537964, Control_c, 0, 64, 64
1, 537978, Control_c, 0, 64, 68
1, 537993, Control_c, 0, 64, 70
1, 538008, Control_c, 0, 64, 71
1, 538018, Note_off_c, 0, 70, 63
1, 538022, Control_c, 0, 64, 72
1, 538037, Control_c, 0, 64, 73
1, 538052, Control_c, 0, 67, 39
1, 538067, Note_on_c, 0, 63, 53
1, 538082, Control_c, 0, 67, 40
1, 538096, Control_c, 0, 67, 40
1, 538107, Note_off_c, 0, 58, 38
1, 538111, Control_c, 0, 67, 41
1, 538126, Control_c, 0, 64, 73
1, 538126, Control_c, 0, 67, 42
1, 538141, Control_c, 0, 64, 71
1, 538141, Control_c, 0, 67, 43
1, 538156, Control_c, 0, 64, 70
1, 538156, Control_c, 0, 67, 44
1, 538171, Control_c, 0, 64, 67
1, 538186, Control_c, 0, 64, 66
1, 538201, Control_c, 0, 64, 64
1, 538216, Control_c, 0, 64, 62
1, 538231, Control_c, 0, 64, 59
1, 538231, Control_c, 0, 67, 44
1, 538246, Control_c, 0, 64, 56
1, 538246, Control_c, 0, 67, 45
1, 538256, Note_on_c, 0, 68, 68
1, 538260, Control_c, 0, 64, 52
1, 538260, Control_c, 0, 67, 45
1, 538275, Control_c, 0, 64, 48
1, 538290, Note_off_c, 0, 63, 57
1, 538290, Note_on_c, 0, 64, 45
1, 538290, Control_c, 0, 64, 39
1, 538290, Control_c, 0, 67, 48
1, 538305, Control_c, 0, 64, 0
1, 538305, Control_c, 0, 67, 49
1, 538320, Control_c, 0, 67, 50
1, 538350, Control_c, 0, 67, 50
1, 538380, Control_c, 0, 64, 38
1, 538394, Control_c, 0, 64, 54
1, 538394, Control_c, 0, 67, 51
1, 538409, Control_c, 0, 64, 63
1, 538409, Control_c, 0, 67, 51
1, 538424, Control_c, 0, 64, 68
1, 538438, Control_c, 0, 64, 71
1, 538453, Control_c, 0, 64, 73
1, 538466, Note_on_c, 0, 60, 64
1, 538468, Control_c, 0, 67, 52
1, 538483, Control_c, 0, 64, 71
1, 538484, Note_off_c, 0, 64, 53
1, 538498, Control_c, 0, 64, 65
1, 538498, Control_c, 0, 67, 52
1, 538512, Control_c, 0, 64, 53
1, 538527, Control_c, 0, 64, 30
1, 538539, Note_on_c, 0, 67, 72
1, 538542, Control_c, 0, 64, 0
1, 538572, Control_c, 0, 64, 43
1, 538582, Note_off_c, 0, 68, 60
1, 538586, Control_c, 0, 64, 53
1, 538601, Control_c, 0, 64, 58
1, 538601, Control_c, 0, 67, 53
1, 538616, Control_c, 0, 64, 60
1, 538631, Control_c, 0, 64, 62
1, 538631, Control_c, 0, 67, 53
1, 538645, Control_c, 0, 64, 63
1, 538659, Note_on_c, 0, 55, 52
1, 538660, Control_c, 0, 64, 65
1, 538667, Note_off_c, 0, 60, 58
1, 538675, Control_c, 0, 64, 66
1, 538698, Control_c, 0, 64, 67
1, 538698, Control_c, 0, 67, 54
1, 538713, Control_c, 0, 64, 67
1, 538713, Control_c, 0, 67, 54
1, 538727, Control_c, 0, 67, 55
1, 538742, Control_c, 0, 67, 60
1, 538757, Control_c, 0, 64, 68
1, 538757, Control_c, 0, 67, 67
1, 538771, Control_c, 0, 67, 72
1, 538786, Control_c, 0, 67, 76
1, 538801, Note_off_c, 0, 55, 60
1, 538801, Control_c, 0, 67, 80
1, 538816, Control_c, 0, 67, 85
1, 538831, Control_c, 0, 64, 67
1, 538831, Control_c, 0, 67, 88
1, 538845, Control_c, 0, 67, 90
1, 538860, Control_c, 0, 64, 67
1, 538860, Control_c, 0, 67, 91
1, 538875, Control_c, 0, 64, 66
1, 538875, Control_c, 0, 67, 92
1, 538890, Control_c, 0, 64, 65
1, 538898, Note_on_c, 0, 71, 76
1, 538905, Control_c, 0, 64, 64
1, 538905, Control_c, 0, 67, 93
1, 538918, Note_on_c, 0, 56, 48
1, 538919, Control_c, 0, 64, 62
1, 538919, Control_c, 0, 67, 94
1, 538934, Control_c, 0, 64, 60
1, 538934, Control_c, 0, 67, 96
1, 538949, Control_c, 0, 64, 57
1, 538960, Note_off_c, 0, 67, 43
1, 538964, Control_c, 0, 64, 51
1, 538979, Control_c, 0, 64, 45
1, 538979, Control_c, 0, 67, 98
1, 538994, Control_c, 0, 64, 32
1, 539009, Control_c, 0, 64, 0
1, 539143, Control_c, 0, 67, 100
1, 539190, Note_on_c, 0, 47, 48
1, 539202, Control_c, 0, 67, 106
1, 539217, Control_c, 0, 67, 109
1, 539232, Control_c, 0, 67, 111
1, 539247, Control_c, 0, 64, 38
1, 539261, Control_c, 0, 64, 51
1, 539261, Control_c, 0, 67, 113
1, 539276, Control_c, 0, 64, 58
1, 539283, Note_off_c, 0, 56, 57
1, 539291, Control_c, 0, 64, 61
1, 539306, Control_c, 0, 64, 62
1, 539321, Control_c, 0, 64, 62
1, 539335, Control_c, 0, 64, 63
1, 539350, Control_c, 0, 64, 65
1, 539365, Control_c, 0, 64, 66
1, 539380, Control_c, 0, 64, 68
1, 539394, Control_c, 0, 64, 68
1, 539409, Control_c, 0, 64, 69
1, 539412, Note_off_c, 0, 47, 55
1, 539414, Note_on_c, 0, 39, 48
1, 539447, Control_c, 0, 64, 69
1, 539476, Control_c, 0, 64, 70
1, 539491, Control_c, 0, 67, 115
1, 539506, Control_c, 0, 64, 70
1, 539536, Control_c, 0, 67, 120
1, 539550, Control_c, 0, 67, 124
1, 539565, Control_c, 0, 67, 126
1, 539636, Note_off_c, 0, 39, 61
1, 539639, Control_c, 0, 64, 70
1, 539679, Note_on_c, 0, 65, 55
1, 539684, Control_c, 0, 64, 69
1, 539693, Note_on_c, 0, 35, 47
1, 539699, Control_c, 0, 64, 69
1, 539712, Note_off_c, 0, 71, 36
1, 539714, Control_c, 0, 64, 68
1, 539729, Control_c, 0, 64, 66
1, 539743, Control_c, 0, 64, 64
1, 539758, Control_c, 0, 64, 59
1, 539773, Control_c, 0, 64, 49
1, 539787, Control_c, 0, 64, 39
1, 539802, Control_c, 0, 64, 33
1, 539818, Control_c, 0, 64, 37
1, 539833, Control_c, 0, 64, 46
1, 539848, Control_c, 0, 64, 55
1, 539863, Control_c, 0, 64, 59
1, 539878, Control_c, 0, 64, 60
1, 539892, Control_c, 0, 64, 59
1, 539907, Note_off_c, 0, 35, 53
1, 539907, Control_c, 0, 64, 56
1, 539914, Note_on_c, 0, 36, 49
1, 539922, Control_c, 0, 64, 53
1, 539937, Control_c, 0, 64, 48
1, 539952, Control_c, 0, 64, 40
1, 539966, Control_c, 0, 64, 0
1, 539994, Note_on_c, 0, 63, 58
1, 540030, Note_off_c, 0, 65, 60
1, 540040, Control_c, 0, 64, 30
1, 540055, Control_c, 0, 64, 39
1, 540070, Control_c, 0, 64, 47
1, 540085, Control_c, 0, 64, 53
1, 540092, Note_on_c, 0, 37, 54
1, 540095, Note_off_c, 0, 36, 58
1, 540100, Control_c, 0, 64, 56
1, 540115, Control_c, 0, 64, 57
1, 540144, Control_c, 0, 64, 56
1, 540196, Control_c, 0, 64, 56
1, 540210, Control_c, 0, 64, 55
1, 540225, Control_c, 0, 64, 54
1, 540240, Control_c, 0, 64, 53
1, 540255, Control_c, 0, 64, 53
1, 540270, Control_c, 0, 64, 52
1, 540284, Control_c, 0, 64, 50
1, 540299, Control_c, 0, 64, 48
1, 540314, Control_c, 0, 64, 45
1, 540320, Note_on_c, 0, 58, 50
1, 540329, Control_c, 0, 64, 41
1, 540334, Note_on_c, 0, 38, 46
1, 540344, Control_c, 0, 64, 35
1, 540349, Note_off_c, 0, 37, 51
1, 540359, Control_c, 0, 64, 0
1, 540371, Note_off_c, 0, 63, 55
1, 540564, Note_on_c, 0, 42, 43
1, 540615, Note_off_c, 0, 38, 52
1, 540626, Control_c, 0, 64, 40
1, 540626, Control_c, 0, 67, 124
1, 540640, Control_c, 0, 64, 48
1, 540655, Control_c, 0, 64, 54
1, 540670, Control_c, 0, 64, 56
1, 540685, Control_c, 0, 64, 57
1, 540685, Control_c, 0, 67, 122
1, 540700, Control_c, 0, 64, 59
1, 540714, Control_c, 0, 64, 60
1, 540729, Control_c, 0, 64, 62
1, 540741, Note_off_c, 0, 42, 58
1, 540744, Control_c, 0, 64, 63
1, 540758, Control_c, 0, 64, 63
1, 540763, Note_on_c, 0, 45, 48
1, 540788, Control_c, 0, 64, 64
1, 540818, Control_c, 0, 64, 64
1, 540944, Control_c, 0, 64, 64
1, 540973, Control_c, 0, 64, 63
1, 540988, Control_c, 0, 64, 63
1, 541003, Control_c, 0, 64, 62
1, 541004, Note_on_c, 0, 70, 56
1, 541018, Control_c, 0, 64, 61
1, 541026, Note_on_c, 0, 46, 32
1, 541033, Control_c, 0, 64, 60
1, 541048, Control_c, 0, 64, 58
1, 541062, Control_c, 0, 64, 56
1, 541077, Control_c, 0, 64, 54
1, 541092, Control_c, 0, 64, 51
1, 541106, Note_off_c, 0, 45, 40
1, 541107, Control_c, 0, 64, 47
1, 541111, Note_off_c, 0, 58, 56
1, 541122, Control_c, 0, 64, 40
1, 541137, Control_c, 0, 64, 0
1, 541229, Note_on_c, 0, 50, 45
1, 541300, Control_c, 0, 64, 30
1, 541314, Control_c, 0, 64, 42
1, 541328, Note_off_c, 0, 46, 45
1, 541329, Control_c, 0, 64, 50
1, 541344, Control_c, 0, 64, 55
1, 541358, Control_c, 0, 64, 59
1, 541373, Control_c, 0, 64, 61
1, 541388, Control_c, 0, 64, 62
1, 541403, Control_c, 0, 64, 64
1, 541419, Control_c, 0, 64, 65
1, 541434, Control_c, 0, 64, 66
1, 541449, Control_c, 0, 64, 67
1, 541450, Note_on_c, 0, 53, 46
1, 541463, Control_c, 0, 64, 68
1, 541465, Note_off_c, 0, 50, 57
1, 541596, Control_c, 0, 64, 68
1, 541611, Control_c, 0, 64, 67
1, 541626, Control_c, 0, 64, 67
1, 541641, Control_c, 0, 64, 66
1, 541656, Control_c, 0, 64, 65
1, 541671, Control_c, 0, 64, 64
1, 541693, Control_c, 0, 64, 63
1, 541708, Control_c, 0, 64, 62
1, 541723, Control_c, 0, 64, 61
1, 541730, Note_on_c, 0, 63, 54
1, 541737, Control_c, 0, 64, 60
1, 541745, Note_on_c, 0, 54, 37
1, 541752, Control_c, 0, 64, 59
1, 541767, Control_c, 0, 64, 58
1, 541775, Note_off_c, 0, 53, 37
1, 541782, Control_c, 0, 64, 56
1, 541796, Control_c, 0, 64, 54
1, 541811, Control_c, 0, 64, 53
1, 541826, Control_c, 0, 64, 51
1, 541841, Control_c, 0, 64, 49
1, 541855, Note_off_c, 0, 70, 36
1, 541856, Control_c, 0, 64, 44
1, 541870, Control_c, 0, 64, 36
1, 541885, Control_c, 0, 64, 0
1, 542023, Note_on_c, 0, 55, 38
1, 542056, Note_off_c, 0, 54, 52
1, 542273, Control_c, 0, 64, 33
1, 542287, Control_c, 0, 64, 40
1, 542302, Control_c, 0, 64, 45
1, 542309, Note_on_c, 0, 43, 32
1, 542317, Control_c, 0, 64, 48
1, 542332, Control_c, 0, 64, 51
1, 542347, Control_c, 0, 64, 55
1, 542359, Note_off_c, 0, 55, 34
1, 542361, Control_c, 0, 64, 59
1, 542376, Control_c, 0, 64, 61
1, 542391, Control_c, 0, 64, 62
1, 542405, Control_c, 0, 64, 63
1, 542420, Control_c, 0, 64, 63
1, 542443, Control_c, 0, 64, 64
1, 542472, Control_c, 0, 64, 64
1, 542487, Control_c, 0, 64, 65
1, 542502, Control_c, 0, 64, 65
1, 542532, Control_c, 0, 64, 66
1, 542561, Control_c, 0, 64, 66
1, 542576, Control_c, 0, 64, 67
1, 542591, Control_c, 0, 64, 67
1, 542620, Control_c, 0, 64, 68
1, 542780, Note_on_c, 0, 39, 32
1, 542798, Control_c, 0, 64, 67
1, 542823, Note_off_c, 0, 43, 53
1, 542842, Control_c, 0, 64, 67
1, 542857, Control_c, 0, 64, 66
1, 542872, Control_c, 0, 64, 65
1, 542887, Control_c, 0, 64, 65
1, 542902, Control_c, 0, 64, 64
1, 542917, Control_c, 0, 64, 64
1, 542931, Control_c, 0, 64, 63
1, 542946, Control_c, 0, 64, 61
1, 542961, Control_c, 0, 64, 60
1, 542976, Control_c, 0, 64, 59
1, 542991, Control_c, 0, 64, 58
1, 543006, Control_c, 0, 64, 57
1, 543021, Control_c, 0, 64, 56
1, 543036, Control_c, 0, 64, 55
1, 543051, Control_c, 0, 64, 52
1, 543066, Control_c, 0, 64, 50
1, 543081, Control_c, 0, 64, 49
1, 543095, Control_c, 0, 64, 48
1, 543110, Control_c, 0, 64, 46
1, 543125, Control_c, 0, 64, 41
1, 543140, Control_c, 0, 64, 35
1, 543154, Control_c, 0, 64, 0
1, 543503, Control_c, 0, 67, 124
1, 543680, Control_c, 0, 64, 31
1, 543695, Control_c, 0, 64, 43
1, 543710, Control_c, 0, 64, 52
1, 543724, Control_c, 0, 64, 57
1, 543739, Control_c, 0, 64, 61
1, 543754, Control_c, 0, 64, 63
1, 543769, Control_c, 0, 64, 64
1, 543784, Control_c, 0, 64, 65
1, 543799, Control_c, 0, 64, 67
1, 543814, Control_c, 0, 64, 68
1, 543826, Note_off_c, 0, 39, 37
1, 543829, Control_c, 0, 64, 70
1, 543844, Control_c, 0, 64, 72
1, 543859, Control_c, 0, 64, 73
1, 543873, Control_c, 0, 64, 74
1, 543888, Control_c, 0, 64, 75
1, 543903, Control_c, 0, 64, 77
1, 543918, Control_c, 0, 64, 79
1, 543940, Control_c, 0, 64, 80
1, 543955, Control_c, 0, 64, 80
1, 543984, Control_c, 0, 64, 81
1, 543999, Control_c, 0, 64, 81
1, 544245, Note_on_c, 0, 39, 37
1, 544309, Control_c, 0, 64, 81
1, 544324, Control_c, 0, 64, 80
1, 544339, Control_c, 0, 64, 79
1, 544354, Control_c, 0, 64, 75
1, 544369, Control_c, 0, 64, 72
1, 544383, Control_c, 0, 64, 70
1, 544398, Control_c, 0, 64, 67
1, 544413, Control_c, 0, 64, 64
1, 544428, Control_c, 0, 64, 61
1, 544443, Control_c, 0, 64, 55
1, 544458, Control_c, 0, 64, 48
1, 544473, Control_c, 0, 64, 40
1, 544488, Control_c, 0, 64, 32
1, 544502, Control_c, 0, 64, 0
1, 544836, Control_c, 0, 64, 41
1, 544851, Control_c, 0, 64, 53
1, 544866, Control_c, 0, 64, 58
1, 544881, Control_c, 0, 64, 59
1, 544896, Control_c, 0, 64, 60
1, 544911, Control_c, 0, 64, 62
1, 544926, Control_c, 0, 64, 65
1, 544941, Control_c, 0, 64, 67
1, 544956, Control_c, 0, 64, 71
1, 544970, Control_c, 0, 64, 73
1, 544985, Control_c, 0, 64, 75
1, 545000, Control_c, 0, 64, 78
1, 545015, Control_c, 0, 64, 82
1, 545030, Control_c, 0, 64, 88
1, 545045, Control_c, 0, 64, 95
1, 545060, Control_c, 0, 64, 104
1, 545075, Control_c, 0, 64, 116
1, 545089, Control_c, 0, 64, 127
1, 545165, Note_off_c, 0, 39, 33
1, 545352, Note_off_c, 0, 63, 38
1, 545836, Note_on_c, 0, 39, 36
1, 546060, Control_c, 0, 64, 119
1, 546074, Control_c, 0, 64, 116
1, 546379, Control_c, 0, 64, 118
1, 546394, Control_c, 0, 64, 127
1, 546699, Note_on_c, 0, 79, 47
1, 546717, Note_on_c, 0, 67, 30
1, 546722, Note_on_c, 0, 55, 40
1, 546726, Note_on_c, 0, 72, 40
1, 546739, Note_on_c, 0, 48, 35
1, 546807, Note_off_c, 0, 48, 46
1, 546822, Note_off_c, 0, 72, 36
1, 546831, Note_off_c, 0, 39, 8
1, 546857, Note_off_c, 0, 55, 37
1, 546869, Note_off_c, 0, 67, 38
1, 546881, Note_off_c, 0, 79, 38
1, 547024, Control_c, 0, 67, 122
1, 547099, Control_c, 0, 67, 120
1, 547173, Control_c, 0, 67, 118
1, 547366, Control_c, 0, 67, 116
1, 547576, Note_on_c, 0, 86, 56
1, 547594, Note_on_c, 0, 62, 42
1, 547682, Note_off_c, 0, 62, 51
1, 547713, Note_off_c, 0, 86, 52
1, 548000, Note_on_c, 0, 87, 51
1, 548019, Note_on_c, 0, 63, 36
1, 548190, Note_off_c, 0, 63, 37
1, 548222, Note_off_c, 0, 87, 53
1, 548353, Note_on_c, 0, 88, 61
1, 548370, Note_on_c, 0, 61, 38
1, 548372, Note_on_c, 0, 64, 40
1, 548382, Note_on_c, 0, 85, 44
1, 548494, Note_off_c, 0, 61, 36
1, 548498, Note_off_c, 0, 85, 37
1, 548523, Note_off_c, 0, 64, 57
1, 548655, Control_c, 0, 67, 114
1, 548701, Note_on_c, 0, 91, 70
1, 548703, Note_off_c, 0, 88, 56
1, 548720, Note_on_c, 0, 67, 61
1, 548730, Note_on_c, 0, 84, 49
1, 548747, Note_on_c, 0, 60, 40
1, 548794, Note_off_c, 0, 60, 47
1, 548900, Note_off_c, 0, 91, 38
1, 549045, Note_off_c, 0, 67, 33
1, 549062, Note_on_c, 0, 87, 71
1, 549089, Note_on_c, 0, 63, 53
1, 549101, Note_off_c, 0, 84, 43
1, 549240, Note_off_c, 0, 63, 54
1, 549412, Note_on_c, 0, 60, 41
1, 549412, Note_on_c, 0, 84, 46
1, 549537, Note_off_c, 0, 87, 38
1, 549629, Note_off_c, 0, 60, 38
1, 549712, Note_off_c, 0, 84, 38
1, 549752, Note_on_c, 0, 79, 44
1, 549753, Note_on_c, 0, 55, 32
1, 549831, Note_off_c, 0, 55, 52
1, 550101, Note_on_c, 0, 87, 66
1, 550115, Note_off_c, 0, 79, 37
1, 550124, Note_on_c, 0, 63, 48
1, 550127, Note_on_c, 0, 78, 44
1, 550139, Note_on_c, 0, 54, 35
1, 550153, Control_c, 0, 64, 110
1, 550168, Control_c, 0, 64, 90
1, 550183, Control_c, 0, 64, 78
1, 550199, Control_c, 0, 64, 72
1, 550214, Control_c, 0, 64, 71
1, 550228, Control_c, 0, 64, 73
1, 550243, Control_c, 0, 64, 77
1, 550258, Control_c, 0, 64, 82
1, 550272, Control_c, 0, 64, 88
1, 550287, Control_c, 0, 64, 94
1, 550302, Control_c, 0, 64, 100
1, 550317, Control_c, 0, 64, 106
1, 550332, Control_c, 0, 64, 113
1, 550346, Control_c, 0, 64, 126
1, 550351, Note_off_c, 0, 54, 35
1, 550411, Note_off_c, 0, 78, 51
1, 550434, Note_off_c, 0, 63, 32
1, 550464, Note_on_c, 0, 83, 68
1, 550472, Note_on_c, 0, 59, 45
1, 550492, Note_off_c, 0, 87, 32
1, 550610, Note_off_c, 0, 59, 35
1, 550795, Note_on_c, 0, 51, 45
1, 550802, Note_on_c, 0, 75, 39
1, 550806, Note_off_c, 0, 83, 35
1, 550867, Note_off_c, 0, 51, 53
1, 551106, Note_off_c, 0, 75, 46
1, 551135, Note_on_c, 0, 66, 43
1, 551135, Note_on_c, 0, 42, 46
1, 551472, Note_off_c, 0, 42, 41
1, 551490, Note_off_c, 0, 66, 38
1, 551502, Control_c, 0, 64, 122
1, 551504, Note_on_c, 0, 80, 63
1, 551517, Control_c, 0, 64, 115
1, 551526, Note_on_c, 0, 56, 51
1, 551532, Control_c, 0, 64, 111
1, 551547, Note_on_c, 0, 47, 30
1, 551547, Control_c, 0, 64, 107
1, 551553, Note_on_c, 0, 71, 32
1, 551562, Control_c, 0, 64, 102
1, 551576, Control_c, 0, 64, 96
1, 551591, Control_c, 0, 64, 91
1, 551606, Control_c, 0, 64, 87
1, 551621, Control_c, 0, 64, 83
1, 551634, Control_c, 0, 64, 79
1, 551649, Control_c, 0, 64, 73
1, 551664, Control_c, 0, 64, 66
1, 551679, Control_c, 0, 64, 61
1, 551693, Control_c, 0, 64, 56
1, 551708, Control_c, 0, 64, 55
1, 551723, Control_c, 0, 64, 54
1, 551753, Control_c, 0, 64, 55
1, 551767, Control_c, 0, 64, 57
1, 551782, Control_c, 0, 64, 59
1, 551798, Control_c, 0, 64, 61
1, 551842, Control_c, 0, 64, 61
1, 551893, Note_on_c, 0, 76, 59
1, 551897, Note_on_c, 0, 52, 50
1, 551902, Control_c, 0, 64, 61
1, 551916, Control_c, 0, 64, 63
1, 551931, Control_c, 0, 64, 65
1, 551946, Control_c, 0, 64, 67
1, 551949, Note_off_c, 0, 80, 58
1, 551961, Control_c, 0, 64, 70
1, 551976, Control_c, 0, 64, 71
1, 551990, Control_c, 0, 64, 73
1, 552005, Control_c, 0, 64, 76
1, 552020, Control_c, 0, 64, 80
1, 552035, Control_c, 0, 64, 84
1, 552050, Control_c, 0, 64, 88
1, 552065, Control_c, 0, 64, 91
1, 552080, Control_c, 0, 64, 94
1, 552085, Note_off_c, 0, 47, 42
1, 552089, Note_off_c, 0, 56, 36
1, 552095, Control_c, 0, 64, 98
1, 552110, Control_c, 0, 64, 101
1, 552124, Control_c, 0, 64, 105
1, 552139, Control_c, 0, 64, 108
1, 552154, Control_c, 0, 64, 111
1, 552176, Control_c, 0, 64, 115
1, 552191, Control_c, 0, 64, 118
1, 552205, Control_c, 0, 64, 122
1, 552220, Control_c, 0, 64, 127
1, 552241, Note_on_c, 0, 44, 45
1, 552249, Note_on_c, 0, 68, 41
1, 552263, Note_off_c, 0, 52, 34
1, 552310, Note_off_c, 0, 71, 41
1, 552367, Note_off_c, 0, 68, 45
1, 552452, Note_off_c, 0, 44, 36
1, 552591, Note_on_c, 0, 40, 41
1, 552593, Note_on_c, 0, 64, 39
1, 552873, Control_c, 0, 64, 118
1, 552888, Control_c, 0, 64, 115
1, 552903, Control_c, 0, 64, 111
1, 552926, Control_c, 0, 64, 107
1, 552941, Control_c, 0, 64, 102
1, 552955, Control_c, 0, 64, 98
1, 552964, Note_on_c, 0, 70, 42
1, 552970, Control_c, 0, 64, 94
1, 552985, Note_on_c, 0, 46, 46
1, 552985, Control_c, 0, 64, 91
1, 552999, Control_c, 0, 64, 86
1, 553014, Control_c, 0, 64, 80
1, 553029, Control_c, 0, 64, 72
1, 553044, Control_c, 0, 64, 68
1, 553046, Note_off_c, 0, 76, 55
1, 553059, Control_c, 0, 64, 66
1, 553063, Note_off_c, 0, 40, 33
1, 553070, Note_off_c, 0, 64, 40
1, 553073, Control_c, 0, 64, 68
1, 553088, Control_c, 0, 64, 70
1, 553103, Control_c, 0, 64, 73
1, 553118, Control_c, 0, 64, 75
1, 553133, Control_c, 0, 64, 78
1, 553147, Control_c, 0, 64, 80
1, 553162, Control_c, 0, 64, 82
1, 553177, Control_c, 0, 64, 84
1, 553192, Control_c, 0, 64, 86
1, 553207, Control_c, 0, 64, 88
1, 553222, Control_c, 0, 64, 89
1, 553237, Control_c, 0, 64, 90
1, 553299, Note_off_c, 0, 70, 27
1, 553385, Note_off_c, 0, 46, 43
1, 553385, Control_c, 0, 64, 90
1, 553396, Note_on_c, 0, 71, 52
1, 553400, Control_c, 0, 64, 89
1, 553406, Note_on_c, 0, 47, 58
1, 553415, Control_c, 0, 64, 87
1, 553430, Control_c, 0, 64, 86
1, 553445, Control_c, 0, 64, 85
1, 553460, Control_c, 0, 64, 84
1, 553475, Control_c, 0, 64, 83
1, 553489, Control_c, 0, 64, 82
1, 553504, Control_c, 0, 64, 81
1, 553519, Control_c, 0, 64, 79
1, 553534, Control_c, 0, 64, 78
1, 553549, Control_c, 0, 64, 76
1, 553563, Control_c, 0, 64, 74
1, 553578, Control_c, 0, 64, 72
1, 553593, Control_c, 0, 64, 69
1, 553608, Control_c, 0, 64, 65
1, 553622, Control_c, 0, 64, 58
1, 553637, Control_c, 0, 64, 53
1, 553652, Control_c, 0, 64, 52
1, 553675, Control_c, 0, 64, 53
1, 553690, Control_c, 0, 64, 57
1, 553704, Control_c, 0, 64, 60
1, 553719, Control_c, 0, 64, 63
1, 553734, Control_c, 0, 64, 65
1, 553749, Control_c, 0, 64, 67
1, 553750, Note_on_c, 0, 72, 66
1, 553764, Control_c, 0, 64, 70
1, 553778, Control_c, 0, 64, 73
1, 553778, Control_c, 0, 67, 112
1, 553793, Control_c, 0, 64, 75
1, 553808, Control_c, 0, 64, 77
1, 553822, Control_c, 0, 64, 79
1, 553837, Control_c, 0, 64, 81
1, 553848, Note_off_c, 0, 47, 54
1, 553852, Control_c, 0, 64, 83
1, 553867, Control_c, 0, 64, 85
1, 553867, Control_c, 0, 67, 109
1, 553882, Control_c, 0, 64, 88
1, 553896, Control_c, 0, 64, 91
1, 553896, Control_c, 0, 67, 107
1, 553911, Control_c, 0, 64, 95
1, 553911, Control_c, 0, 67, 101
1, 553926, Control_c, 0, 64, 98
1, 553926, Control_c, 0, 67, 95
1, 553941, Control_c, 0, 64, 101
1, 553941, Control_c, 0, 67, 90
1, 553956, Control_c, 0, 64, 103
1, 553956, Control_c, 0, 67, 85
1, 553970, Control_c, 0, 64, 105
1, 553970, Control_c, 0, 67, 79
1, 553985, Control_c, 0, 67, 74
1, 554000, Control_c, 0, 64, 107
1, 554000, Control_c, 0, 67, 69
1, 554015, Control_c, 0, 67, 65
1, 554029, Control_c, 0, 64, 110
1, 554029, Control_c, 0, 67, 62
1, 554044, Control_c, 0, 67, 57
1, 554059, Control_c, 0, 67, 54
1, 554061, Note_on_c, 0, 73, 74
1, 554068, Note_off_c, 0, 71, 52
1, 554074, Control_c, 0, 67, 52
1, 554080, Note_on_c, 0, 70, 55
1, 554089, Control_c, 0, 67, 51
1, 554092, Note_on_c, 0, 42, 36
1, 554104, Control_c, 0, 67, 50
1, 554140, Note_off_c, 0, 72, 61
1, 554178, Control_c, 0, 67, 51
1, 554193, Control_c, 0, 67, 51
1, 554208, Control_c, 0, 67, 52
1, 554223, Control_c, 0, 67, 52
1, 554238, Control_c, 0, 67, 54
1, 554253, Control_c, 0, 67, 55
1, 554268, Control_c, 0, 67, 56
1, 554283, Control_c, 0, 67, 56
1, 554298, Control_c, 0, 64, 107
1, 554298, Control_c, 0, 67, 57
1, 554312, Control_c, 0, 64, 104
1, 554312, Control_c, 0, 67, 58
1, 554327, Control_c, 0, 64, 101
1, 554327, Control_c, 0, 67, 58
1, 554342, Control_c, 0, 64, 99
1, 554342, Control_c, 0, 67, 59
1, 554357, Control_c, 0, 64, 97
1, 554357, Control_c, 0, 67, 60
1, 554372, Control_c, 0, 64, 96
1, 554372, Control_c, 0, 67, 60
1, 554386, Control_c, 0, 64, 94
1, 554401, Control_c, 0, 64, 91
1, 554423, Control_c, 0, 64, 88
1, 554423, Control_c, 0, 67, 61
1, 554434, Note_off_c, 0, 70, 55
1, 554438, Control_c, 0, 64, 85
1, 554441, Note_on_c, 0, 76, 75
1, 554453, Control_c, 0, 64, 83
1, 554468, Control_c, 0, 64, 81
1, 554471, Note_on_c, 0, 37, 51
1, 554475, Note_on_c, 0, 69, 47
1, 554483, Control_c, 0, 64, 79
1, 554483, Control_c, 0, 67, 61
1, 554497, Control_c, 0, 64, 77
1, 554512, Control_c, 0, 64, 74
1, 554517, Note_off_c, 0, 69, 0
1, 554517, Note_on_c, 0, 69, 23
1, 554525, Note_off_c, 0, 73, 56
1, 554527, Control_c, 0, 64, 71
1, 554542, Control_c, 0, 64, 69
1, 554547, Note_off_c, 0, 42, 42
1, 554557, Control_c, 0, 64, 65
1, 554571, Control_c, 0, 64, 61
1, 554571, Control_c, 0, 67, 62
1, 554586, Control_c, 0, 64, 55
1, 554601, Control_c, 0, 64, 41
1, 554616, Control_c, 0, 64, 0
1, 554719, Control_c, 0, 67, 61
1, 554734, Control_c, 0, 67, 61
1, 554749, Control_c, 0, 67, 60
1, 554778, Control_c, 0, 67, 60
1, 554793, Control_c, 0, 67, 59
1, 554819, Note_on_c, 0, 73, 75
1, 554850, Note_on_c, 0, 52, 46
1, 554852, Control_c, 0, 67, 59
1, 554867, Control_c, 0, 67, 58
1, 554927, Control_c, 0, 67, 58
1, 554956, Control_c, 0, 64, 33
1, 554956, Control_c, 0, 67, 57
1, 554962, Note_off_c, 0, 69, 54
1, 554971, Control_c, 0, 64, 39
1, 554971, Note_off_c, 0, 76, 56
1, 554986, Control_c, 0, 64, 45
1, 555001, Control_c, 0, 64, 52
1, 555016, Control_c, 0, 64, 58
1, 555016, Control_c, 0, 67, 57
1, 555031, Control_c, 0, 64, 61
1, 555031, Control_c, 0, 67, 56
1, 555046, Control_c, 0, 64, 63
1, 555061, Control_c, 0, 64, 64
1, 555076, Control_c, 0, 64, 65
1, 555091, Control_c, 0, 64, 67
1, 555091, Control_c, 0, 67, 56
1, 555106, Control_c, 0, 64, 69
1, 555120, Control_c, 0, 64, 72
1, 555135, Control_c, 0, 64, 75
1, 555135, Control_c, 0, 67, 55
1, 555141, Note_on_c, 0, 69, 51
1, 555150, Control_c, 0, 64, 78
1, 555172, Control_c, 0, 64, 81
1, 555186, Control_c, 0, 64, 84
1, 555201, Control_c, 0, 64, 87
1, 555216, Control_c, 0, 64, 92
1, 555216, Control_c, 0, 67, 55
1, 555231, Control_c, 0, 64, 97
1, 555246, Control_c, 0, 64, 103
1, 555246, Control_c, 0, 67, 54
1, 555261, Control_c, 0, 64, 108
1, 555275, Control_c, 0, 64, 112
1, 555290, Control_c, 0, 64, 116
1, 555295, Note_off_c, 0, 52, 35
1, 555305, Control_c, 0, 64, 122
1, 555320, Control_c, 0, 64, 127
1, 555469, Note_on_c, 0, 64, 45
1, 555478, Note_off_c, 0, 69, 61
1, 555525, Note_off_c, 0, 37, 24
1, 555808, Note_on_c, 0, 72, 64
1, 555826, Note_on_c, 0, 36, 58
1, 555830, Note_on_c, 0, 63, 49
1, 555869, Control_c, 0, 64, 116
1, 555878, Note_off_c, 0, 73, 60
1, 555884, Note_off_c, 0, 64, 32
1, 555884, Control_c, 0, 64, 110
1, 555898, Control_c, 0, 64, 106
1, 555921, Control_c, 0, 64, 101
1, 555936, Control_c, 0, 64, 96
1, 555951, Control_c, 0, 64, 88
1, 555965, Control_c, 0, 64, 76
1, 555980, Control_c, 0, 64, 65
1, 555995, Control_c, 0, 64, 48
1, 556009, Control_c, 0, 64, 0
1, 556184, Note_on_c, 0, 68, 70
1, 556220, Note_on_c, 0, 51, 47
1, 556267, Note_off_c, 0, 72, 63
1, 556321, Control_c, 0, 64, 49
1, 556335, Control_c, 0, 64, 58
1, 556350, Control_c, 0, 64, 62
1, 556365, Control_c, 0, 64, 64
1, 556380, Control_c, 0, 64, 65
1, 556380, Control_c, 0, 67, 54
1, 556395, Control_c, 0, 64, 66
1, 556409, Control_c, 0, 64, 69
1, 556409, Control_c, 0, 67, 53
1, 556424, Control_c, 0, 64, 72
1, 556439, Control_c, 0, 64, 75
1, 556454, Control_c, 0, 64, 78
1, 556469, Control_c, 0, 64, 81
1, 556482, Note_on_c, 0, 60, 41
1, 556483, Control_c, 0, 64, 83
1, 556492, Note_off_c, 0, 63, 54
1, 556498, Control_c, 0, 64, 85
1, 556513, Control_c, 0, 64, 88
1, 556528, Control_c, 0, 64, 90
1, 556542, Control_c, 0, 64, 91
1, 556557, Control_c, 0, 64, 95
1, 556572, Control_c, 0, 64, 97
1, 556572, Control_c, 0, 67, 53
1, 556603, Control_c, 0, 64, 99
1, 556614, Note_off_c, 0, 36, 47
1, 556632, Control_c, 0, 64, 101
1, 556700, Control_c, 0, 64, 103
1, 556731, Note_off_c, 0, 51, 24
1, 556803, Control_c, 0, 67, 53
1, 556808, Note_on_c, 0, 56, 53
1, 556813, Note_off_c, 0, 60, 55
1, 556847, Control_c, 0, 67, 54
1, 556858, Note_off_c, 0, 68, 63
1, 556862, Control_c, 0, 67, 54
1, 556907, Control_c, 0, 67, 55
1, 556921, Control_c, 0, 67, 55
1, 556966, Control_c, 0, 67, 56
1, 557040, Control_c, 0, 67, 56
1, 557055, Control_c, 0, 64, 101
1, 557100, Control_c, 0, 64, 99
1, 557129, Control_c, 0, 64, 96
1, 557144, Control_c, 0, 64, 93
1, 557157, Note_on_c, 0, 66, 51
1, 557158, Control_c, 0, 64, 91
1, 557171, Note_on_c, 0, 57, 50
1, 557173, Control_c, 0, 64, 90
1, 557174, Note_on_c, 0, 35, 56
1, 557188, Control_c, 0, 64, 89
1, 557203, Control_c, 0, 64, 87
1, 557218, Control_c, 0, 64, 84
1, 557232, Control_c, 0, 64, 80
1, 557247, Control_c, 0, 64, 76
1, 557262, Control_c, 0, 64, 72
1, 557273, Note_off_c, 0, 56, 33
1, 557277, Control_c, 0, 64, 67
1, 557292, Control_c, 0, 64, 61
1, 557306, Control_c, 0, 64, 49
1, 557321, Control_c, 0, 64, 0
1, 557544, Note_on_c, 0, 62, 58
1, 557567, Control_c, 0, 64, 34
1, 557582, Control_c, 0, 64, 46
1, 557582, Control_c, 0, 67, 56
1, 557596, Control_c, 0, 64, 53
1, 557611, Control_c, 0, 64, 57
1, 557627, Control_c, 0, 64, 59
1, 557642, Control_c, 0, 64, 61
1, 557657, Control_c, 0, 64, 63
1, 557671, Control_c, 0, 64, 65
1, 557686, Control_c, 0, 64, 67
1, 557701, Control_c, 0, 64, 68
1, 557701, Control_c, 0, 67, 55
1, 557702, Note_on_c, 0, 42, 48
1, 557703, Note_off_c, 0, 66, 62
1, 557716, Control_c, 0, 64, 70
1, 557731, Control_c, 0, 64, 70
1, 557745, Control_c, 0, 64, 71
1, 557760, Control_c, 0, 64, 71
1, 557775, Control_c, 0, 64, 72
1, 557880, Note_on_c, 0, 54, 53
1, 557888, Note_on_c, 0, 50, 56
1, 557908, Control_c, 0, 64, 71
1, 557919, Note_off_c, 0, 57, 38
1, 557922, Control_c, 0, 64, 71
1, 557937, Control_c, 0, 64, 70
1, 557952, Control_c, 0, 64, 68
1, 557967, Control_c, 0, 64, 66
1, 557982, Control_c, 0, 64, 63
1, 557994, Note_off_c, 0, 42, 36
1, 557997, Control_c, 0, 64, 58
1, 558012, Control_c, 0, 64, 47
1, 558027, Control_c, 0, 64, 0
1, 558101, Control_c, 0, 64, 42
1, 558115, Control_c, 0, 64, 54
1, 558130, Control_c, 0, 64, 60
1, 558145, Control_c, 0, 64, 63
1, 558167, Control_c, 0, 64, 63
1, 558182, Control_c, 0, 64, 64
1, 558198, Control_c, 0, 64, 65
1, 558198, Control_c, 0, 67, 55
1, 558212, Control_c, 0, 64, 67
1, 558212, Control_c, 0, 67, 54
1, 558227, Control_c, 0, 64, 69
1, 558230, Note_on_c, 0, 57, 59
1, 558242, Control_c, 0, 64, 71
1, 558257, Control_c, 0, 64, 73
1, 558272, Control_c, 0, 64, 74
1, 558286, Control_c, 0, 64, 76
1, 558301, Control_c, 0, 64, 77
1, 558316, Control_c, 0, 64, 79
1, 558331, Control_c, 0, 64, 81
1, 558331, Control_c, 0, 67, 54
1, 558333, Note_off_c, 0, 54, 61
1, 558346, Control_c, 0, 64, 82
1, 558346, Control_c, 0, 67, 53
1, 558361, Control_c, 0, 64, 84
1, 558376, Control_c, 0, 64, 84
1, 558390, Control_c, 0, 64, 85
1, 558420, Control_c, 0, 64, 86
1, 558480, Control_c, 0, 67, 53
1, 558545, Note_on_c, 0, 38, 65
1, 558583, Control_c, 0, 64, 85
1, 558598, Control_c, 0, 64, 85
1, 558612, Control_c, 0, 64, 84
1, 558627, Control_c, 0, 64, 82
1, 558642, Control_c, 0, 64, 80
1, 558657, Control_c, 0, 64, 78
1, 558672, Control_c, 0, 64, 76
1, 558686, Control_c, 0, 64, 74
1, 558689, Note_off_c, 0, 35, 38
1, 558701, Control_c, 0, 64, 70
1, 558716, Control_c, 0, 64, 66
1, 558730, Control_c, 0, 64, 62
1, 558745, Control_c, 0, 64, 57
1, 558760, Control_c, 0, 64, 51
1, 558775, Control_c, 0, 64, 42
1, 558790, Control_c, 0, 64, 0
1, 558858, Note_on_c, 0, 58, 61
1, 558969, Note_off_c, 0, 57, 57
1, 558975, Control_c, 0, 64, 33
1, 558991, Control_c, 0, 64, 44
1, 559006, Control_c, 0, 64, 55
1, 559021, Control_c, 0, 64, 61
1, 559035, Control_c, 0, 64, 64
1, 559035, Control_c, 0, 67, 52
1, 559050, Control_c, 0, 64, 65
1, 559065, Control_c, 0, 64, 67
1, 559080, Control_c, 0, 64, 68
1, 559080, Control_c, 0, 67, 52
1, 559095, Control_c, 0, 64, 70
1, 559109, Control_c, 0, 64, 72
1, 559124, Control_c, 0, 64, 74
1, 559139, Control_c, 0, 64, 76
1, 559154, Control_c, 0, 64, 78
1, 559168, Control_c, 0, 64, 80
1, 559183, Control_c, 0, 64, 81
1, 559185, Note_on_c, 0, 59, 67
1, 559198, Control_c, 0, 64, 83
1, 559213, Control_c, 0, 64, 84
1, 559228, Control_c, 0, 64, 86
1, 559242, Control_c, 0, 64, 87
1, 559246, Note_off_c, 0, 58, 63
1, 559257, Control_c, 0, 64, 89
1, 559272, Control_c, 0, 64, 92
1, 559287, Control_c, 0, 64, 95
1, 559302, Control_c, 0, 64, 100
1, 559316, Control_c, 0, 64, 105
1, 559329, Note_off_c, 0, 50, 54
1, 559331, Control_c, 0, 64, 111
1, 559346, Control_c, 0, 64, 119
1, 559346, Control_c, 0, 67, 51
1, 559360, Control_c, 0, 64, 127
1, 559491, Note_on_c, 0, 60, 74
1, 559508, Control_c, 0, 67, 51
1, 559545, Note_off_c, 0, 59, 50
1, 559553, Control_c, 0, 67, 50
1, 559613, Control_c, 0, 67, 50
1, 559693, Note_off_c, 0, 62, 53
1, 559828, Control_c, 0, 64, 112
1, 559832, Note_off_c, 0, 38, 60
1, 559843, Control_c, 0, 64, 89
1, 559854, Note_on_c, 0, 61, 74
1, 559857, Control_c, 0, 64, 71
1, 559858, Note_on_c, 0, 37, 73
1, 559861, Note_on_c, 0, 49, 74
1, 559873, Control_c, 0, 64, 55
1, 559888, Control_c, 0, 64, 0
1, 559902, Note_off_c, 0, 60, 62
1, 559917, Control_c, 0, 64, 40
1, 559932, Control_c, 0, 64, 59
1, 559947, Control_c, 0, 64, 69
1, 559962, Control_c, 0, 64, 79
1, 559962, Control_c, 0, 67, 48
1, 559974, Note_off_c, 0, 61, 63
1, 559977, Control_c, 0, 64, 92
1, 559977, Control_c, 0, 67, 46
1, 559991, Control_c, 0, 64, 103
1, 559991, Control_c, 0, 67, 36
1, 560006, Control_c, 0, 64, 126
1, 560006, Control_c, 0, 67, 20
1, 560021, Control_c, 0, 67, 0
1, 560244, Control_c, 0, 64, 113
1, 560258, Control_c, 0, 64, 93
1, 560260, Note_on_c, 0, 84, 82
1, 560273, Control_c, 0, 64, 78
1, 560288, Control_c, 0, 64, 64
1, 560302, Control_c, 0, 64, 0
1, 560517, Control_c, 0, 64, 51
1, 560532, Control_c, 0, 64, 63
1, 560547, Control_c, 0, 64, 65
1, 560562, Control_c, 0, 64, 68
1, 560577, Control_c, 0, 64, 72
1, 560593, Control_c, 0, 64, 79
1, 560607, Note_on_c, 0, 85, 76
1, 560607, Control_c, 0, 64, 95
1, 560622, Control_c, 0, 64, 127
1, 560635, Note_off_c, 0, 37, 61
1, 560681, Note_off_c, 0, 49, 62
1, 560738, Note_off_c, 0, 84, 63
1, 560919, Note_on_c, 0, 86, 88
1, 560927, Note_on_c, 0, 83, 82
1, 560947, Note_off_c, 0, 85, 61
1, 561294, Note_on_c, 0, 89, 91
1, 561309, Note_on_c, 0, 65, 90
1, 561309, Note_off_c, 0, 83, 0
1, 561314, Note_on_c, 0, 82, 73
1, 561319, Note_on_c, 0, 53, 77
1, 561354, Note_off_c, 0, 65, 65
1, 561356, Note_off_c, 0, 86, 59
1, 561376, Poly_aftertouch_c, 0, 83, 0
1, 561414, Note_off_c, 0, 53, 60
1, 561668, Note_on_c, 0, 85, 81
1, 561789, Note_off_c, 0, 89, 62
1, 561875, Note_off_c, 0, 82, 60
1, 561967, Note_on_c, 0, 81, 66
1, 562269, Note_on_c, 0, 73, 65
1, 562310, Note_off_c, 0, 81, 63
1, 562511, Note_on_c, 0, 80, 73
1, 562567, Note_on_c, 0, 79, 77
1, 562606, Note_off_c, 0, 85, 64
1, 562611, Note_off_c, 0, 80, 58
1, 562730, Note_off_c, 0, 79, 64
1, 562918, Note_on_c, 0, 80, 69
1, 562974, Note_off_c, 0, 73, 56
1, 563214, Note_on_c, 0, 81, 62
1, 563537, Note_on_c, 0, 82, 67
1, 563547, Note_on_c, 0, 79, 50
1, 563579, Note_off_c, 0, 80, 54
1, 563589, Note_off_c, 0, 81, 56
1, 563616, Control_c, 0, 67, 19
1, 563646, Control_c, 0, 67, 22
1, 563676, Control_c, 0, 67, 24
1, 563720, Control_c, 0, 67, 26
1, 563735, Control_c, 0, 67, 29
1, 563750, Control_c, 0, 67, 31
1, 563765, Control_c, 0, 67, 34
1, 563780, Control_c, 0, 67, 36
1, 563795, Control_c, 0, 67, 38
1, 563810, Control_c, 0, 67, 40
1, 563825, Control_c, 0, 67, 42
1, 563840, Control_c, 0, 67, 44
1, 563854, Control_c, 0, 67, 46
1, 563869, Control_c, 0, 67, 47
1, 563884, Control_c, 0, 67, 48
1, 563899, Control_c, 0, 67, 48
1, 563907, Note_on_c, 0, 85, 68
1, 563914, Note_on_c, 0, 78, 55
1, 563914, Control_c, 0, 64, 113
1, 563929, Control_c, 0, 64, 99
1, 563930, Note_off_c, 0, 79, 36
1, 563935, Note_on_c, 0, 37, 44
1, 563938, Note_on_c, 0, 49, 41
1, 563944, Control_c, 0, 64, 87
1, 563944, Control_c, 0, 67, 49
1, 563958, Control_c, 0, 64, 77
1, 563973, Control_c, 0, 64, 68
1, 563980, Note_off_c, 0, 82, 56
1, 563988, Control_c, 0, 64, 58
1, 564003, Control_c, 0, 64, 47
1, 564018, Control_c, 0, 64, 35
1, 564032, Control_c, 0, 64, 0
1, 564062, Control_c, 0, 64, 34
1, 564062, Control_c, 0, 67, 48
1, 564076, Control_c, 0, 64, 45
1, 564076, Control_c, 0, 67, 48
1, 564091, Control_c, 0, 64, 55
1, 564091, Control_c, 0, 67, 47
1, 564106, Control_c, 0, 64, 61
1, 564106, Control_c, 0, 67, 47
1, 564121, Control_c, 0, 64, 66
1, 564121, Control_c, 0, 67, 46
1, 564136, Control_c, 0, 64, 69
1, 564158, Control_c, 0, 64, 73
1, 564158, Control_c, 0, 67, 46
1, 564173, Control_c, 0, 64, 78
1, 564173, Control_c, 0, 67, 45
1, 564188, Control_c, 0, 64, 85
1, 564203, Control_c, 0, 64, 92
1, 564218, Control_c, 0, 64, 99
1, 564218, Control_c, 0, 67, 45
1, 564232, Control_c, 0, 64, 106
1, 564247, Control_c, 0, 64, 116
1, 564259, Note_off_c, 0, 37, 40
1, 564262, Control_c, 0, 64, 127
1, 564287, Note_off_c, 0, 49, 42
1, 564327, Note_on_c, 0, 82, 63
1, 564336, Control_c, 0, 67, 44
1, 564405, Note_off_c, 0, 78, 55
1, 564415, Note_off_c, 0, 85, 64
1, 564610, Note_on_c, 0, 77, 50
1, 564796, Control_c, 0, 67, 45
1, 564826, Control_c, 0, 67, 45
1, 564870, Control_c, 0, 67, 46
1, 564904, Note_off_c, 0, 77, 62
1, 564907, Control_c, 0, 67, 46
1, 564929, Note_on_c, 0, 70, 52
1, 564951, Control_c, 0, 67, 47
1, 564981, Control_c, 0, 67, 48
1, 565011, Control_c, 0, 67, 48
1, 565040, Control_c, 0, 67, 49
1, 565055, Control_c, 0, 67, 49
1, 565115, Control_c, 0, 67, 50
1, 565142, Note_on_c, 0, 77, 49
1, 565221, Note_on_c, 0, 76, 61
1, 565232, Note_off_c, 0, 77, 45
1, 565235, Note_on_c, 0, 67, 66
1, 565259, Note_on_c, 0, 55, 52
1, 565322, Control_c, 0, 67, 49
1, 565340, Note_off_c, 0, 82, 57
1, 565563, Note_on_c, 0, 57, 48
1, 565849, Control_c, 0, 67, 50
1, 565890, Note_on_c, 0, 61, 48
1, 565921, Control_c, 0, 67, 50
1, 565966, Control_c, 0, 67, 51
1, 565992, Note_off_c, 0, 57, 37
1, 565995, Control_c, 0, 67, 51
1, 566040, Control_c, 0, 67, 52
1, 566054, Control_c, 0, 67, 60
1, 566069, Control_c, 0, 67, 68
1, 566084, Control_c, 0, 67, 72
1, 566099, Control_c, 0, 67, 75
1, 566114, Control_c, 0, 67, 77
1, 566129, Control_c, 0, 67, 79
1, 566144, Control_c, 0, 67, 80
1, 566159, Control_c, 0, 67, 82
1, 566174, Control_c, 0, 67, 85
1, 566189, Note_on_c, 0, 58, 43
1, 566189, Control_c, 0, 67, 87
1, 566204, Control_c, 0, 67, 89
1, 566205, Note_off_c, 0, 67, 40
1, 566218, Control_c, 0, 67, 91
1, 566233, Control_c, 0, 67, 92
1, 566248, Control_c, 0, 67, 93
1, 566263, Control_c, 0, 67, 95
1, 566278, Control_c, 0, 67, 97
1, 566293, Control_c, 0, 64, 122
1, 566293, Control_c, 0, 67, 99
1, 566302, Note_off_c, 0, 76, 36
1, 566308, Control_c, 0, 64, 115
1, 566308, Control_c, 0, 67, 101
1, 566323, Control_c, 0, 64, 112
1, 566323, Control_c, 0, 67, 104
1, 566337, Control_c, 0, 64, 110
1, 566337, Control_c, 0, 67, 106
1, 566352, Control_c, 0, 64, 108
1, 566352, Control_c, 0, 67, 109
1, 566367, Control_c, 0, 64, 106
1, 566367, Control_c, 0, 67, 111
1, 566382, Control_c, 0, 64, 103
1, 566404, Control_c, 0, 64, 100
1, 566404, Control_c, 0, 67, 113
1, 566418, Control_c, 0, 64, 97
1, 566433, Control_c, 0, 64, 95
1, 566448, Control_c, 0, 64, 93
1, 566463, Control_c, 0, 64, 91
1, 566478, Control_c, 0, 64, 90
1, 566493, Control_c, 0, 64, 88
1, 566501, Note_off_c, 0, 70, 38
1, 566507, Control_c, 0, 64, 86
1, 566510, Note_on_c, 0, 65, 61
1, 566522, Control_c, 0, 64, 84
1, 566537, Control_c, 0, 64, 83
1, 566552, Control_c, 0, 64, 81
1, 566567, Control_c, 0, 64, 80
1, 566582, Control_c, 0, 64, 78
1, 566596, Control_c, 0, 64, 77
1, 566611, Control_c, 0, 64, 76
1, 566626, Control_c, 0, 64, 75
1, 566641, Control_c, 0, 64, 74
1, 566656, Control_c, 0, 64, 73
1, 566670, Control_c, 0, 64, 73
1, 566685, Control_c, 0, 64, 72
1, 566700, Control_c, 0, 64, 72
1, 566715, Control_c, 0, 64, 71
1, 566730, Control_c, 0, 64, 71
1, 566744, Control_c, 0, 64, 70
1, 566746, Note_off_c, 0, 58, 36
1, 566759, Control_c, 0, 64, 69
1, 566774, Control_c, 0, 64, 69
1, 566789, Control_c, 0, 64, 68
1, 566800, Note_off_c, 0, 61, 34
1, 566803, Control_c, 0, 64, 67
1, 566815, Note_on_c, 0, 66, 47
1, 566818, Control_c, 0, 64, 67
1, 566833, Control_c, 0, 64, 66
1, 566848, Control_c, 0, 64, 65
1, 566863, Control_c, 0, 64, 64
1, 566877, Control_c, 0, 64, 62
1, 566892, Control_c, 0, 64, 60
1, 566907, Control_c, 0, 64, 57
1, 566922, Control_c, 0, 64, 53
1, 566937, Control_c, 0, 64, 47
1, 566952, Control_c, 0, 64, 37
1, 566967, Control_c, 0, 64, 0
1, 567012, Control_c, 0, 64, 35
1, 567026, Control_c, 0, 64, 44
1, 567041, Control_c, 0, 64, 52
1, 567056, Control_c, 0, 64, 57
1, 567071, Control_c, 0, 64, 61
1, 567086, Control_c, 0, 64, 63
1, 567101, Control_c, 0, 64, 64
1, 567116, Control_c, 0, 64, 66
1, 567116, Note_on_c, 0, 70, 38
1, 567130, Control_c, 0, 64, 68
1, 567153, Control_c, 0, 64, 70
1, 567168, Control_c, 0, 64, 72
1, 567182, Control_c, 0, 64, 75
1, 567197, Control_c, 0, 64, 78
1, 567212, Control_c, 0, 64, 81
1, 567226, Control_c, 0, 64, 84
1, 567241, Control_c, 0, 64, 87
1, 567247, Note_off_c, 0, 66, 36
1, 567256, Control_c, 0, 64, 90
1, 567271, Control_c, 0, 64, 93
1, 567272, Note_on_c, 0, 73, 46
1, 567286, Control_c, 0, 64, 97
1, 567300, Control_c, 0, 64, 100
1, 567315, Control_c, 0, 64, 103
1, 567330, Control_c, 0, 64, 105
1, 567345, Control_c, 0, 64, 108
1, 567360, Control_c, 0, 64, 110
1, 567375, Control_c, 0, 64, 112
1, 567405, Control_c, 0, 64, 115
1, 567413, Note_on_c, 0, 67, 54
1, 567443, Note_off_c, 0, 73, 57
1, 567449, Control_c, 0, 64, 117
1, 567449, Control_c, 0, 67, 111
1, 567499, Note_off_c, 0, 70, 40
1, 567680, Note_off_c, 0, 67, 54
1, 567709, Note_on_c, 0, 74, 69
1, 567712, Note_on_c, 0, 64, 67
1, 567730, Control_c, 0, 64, 113
1, 567745, Control_c, 0, 64, 111
1, 567745, Note_off_c, 0, 65, 54
1, 567759, Control_c, 0, 64, 107
1, 567776, Control_c, 0, 64, 100
1, 567790, Control_c, 0, 64, 89
1, 567805, Control_c, 0, 64, 76
1, 567820, Control_c, 0, 64, 63
1, 567835, Control_c, 0, 64, 50
1, 567849, Control_c, 0, 64, 37
1, 567864, Control_c, 0, 64, 36
1, 567879, Control_c, 0, 64, 42
1, 567902, Control_c, 0, 64, 50
1, 567917, Control_c, 0, 64, 56
1, 567931, Control_c, 0, 64, 60
1, 567946, Control_c, 0, 64, 63
1, 567961, Control_c, 0, 64, 64
1, 567976, Control_c, 0, 64, 66
1, 567991, Control_c, 0, 64, 67
1, 568005, Control_c, 0, 64, 69
1, 568020, Control_c, 0, 64, 71
1, 568026, Note_on_c, 0, 75, 67
1, 568035, Control_c, 0, 64, 74
1, 568035, Control_c, 0, 67, 109
1, 568049, Control_c, 0, 64, 77
1, 568064, Control_c, 0, 64, 79
1, 568079, Control_c, 0, 64, 82
1, 568094, Control_c, 0, 64, 85
1, 568110, Control_c, 0, 64, 88
1, 568112, Note_off_c, 0, 74, 59
1, 568124, Control_c, 0, 64, 92
1, 568139, Control_c, 0, 64, 98
1, 568139, Control_c, 0, 67, 107
1, 568154, Control_c, 0, 64, 104
1, 568169, Control_c, 0, 64, 113
1, 568184, Control_c, 0, 64, 127
1, 568198, Control_c, 0, 67, 105
1, 568296, Note_off_c, 0, 75, 62
1, 568332, Note_on_c, 0, 79, 82
1, 568592, Note_off_c, 0, 79, 61
1, 568681, Note_on_c, 0, 76, 74
1, 568895, Note_off_c, 0, 64, 37
1, 568962, Control_c, 0, 67, 107
1, 568991, Control_c, 0, 64, 111
1, 569006, Control_c, 0, 64, 99
1, 569021, Control_c, 0, 64, 87
1, 569032, Note_on_c, 0, 88, 91
1, 569036, Control_c, 0, 64, 74
1, 569051, Control_c, 0, 64, 63
1, 569054, Note_on_c, 0, 62, 56
1, 569065, Control_c, 0, 64, 46
1, 569080, Control_c, 0, 64, 0
1, 569127, Note_off_c, 0, 76, 46
1, 569169, Control_c, 0, 64, 56
1, 569184, Control_c, 0, 64, 69
1, 569184, Control_c, 0, 67, 105
1, 569199, Control_c, 0, 64, 78
1, 569208, Note_off_c, 0, 62, 63
1, 569214, Control_c, 0, 64, 91
1, 569214, Control_c, 0, 67, 103
1, 569222, Note_off_c, 0, 55, 63
1, 569229, Control_c, 0, 64, 102
1, 569244, Control_c, 0, 64, 127
1, 569430, Note_on_c, 0, 42, 54
1, 569438, Note_on_c, 0, 86, 83
1, 569503, Control_c, 0, 67, 100
1, 569533, Control_c, 0, 67, 98
1, 569563, Control_c, 0, 67, 96
1, 569571, Note_off_c, 0, 88, 40
1, 569578, Control_c, 0, 67, 95
1, 569593, Control_c, 0, 67, 90
1, 569607, Control_c, 0, 67, 82
1, 569621, Control_c, 0, 67, 71
1, 569636, Control_c, 0, 67, 57
1, 569651, Control_c, 0, 67, 45
1, 569666, Control_c, 0, 67, 37
1, 569680, Note_off_c, 0, 42, 50
1, 569681, Control_c, 0, 67, 31
1, 569695, Control_c, 0, 67, 28
1, 569710, Control_c, 0, 67, 26
1, 569725, Control_c, 0, 67, 23
1, 569740, Control_c, 0, 67, 0
1, 569755, Note_on_c, 0, 84, 88
1, 569757, Note_on_c, 0, 52, 79
1, 569764, Note_on_c, 0, 43, 70
1, 569865, Note_off_c, 0, 86, 56
1, 569968, Note_off_c, 0, 43, 59
1, 570023, Note_off_c, 0, 52, 59
1, 570108, Note_on_c, 0, 82, 91
1, 570114, Note_on_c, 0, 54, 88
1, 570117, Note_on_c, 0, 45, 74
1, 570158, Note_off_c, 0, 84, 64
1, 570207, Note_off_c, 0, 82, 64
1, 570556, Note_on_c, 0, 81, 90
1, 570564, Note_on_c, 0, 79, 81
1, 570565, Note_on_c, 0, 46, 65
1, 570593, Control_c, 0, 64, 109
1, 570599, Note_off_c, 0, 45, 62
1, 570608, Control_c, 0, 64, 99
1, 570623, Control_c, 0, 64, 90
1, 570637, Control_c, 0, 64, 82
1, 570652, Control_c, 0, 64, 74
1, 570667, Control_c, 0, 64, 65
1, 570682, Control_c, 0, 64, 52
1, 570697, Control_c, 0, 64, 0
1, 570845, Control_c, 0, 64, 30
1, 570860, Control_c, 0, 64, 32
1, 570875, Control_c, 0, 64, 37
1, 570894, Note_off_c, 0, 54, 59
1, 570897, Control_c, 0, 64, 45
1, 570912, Control_c, 0, 64, 50
1, 570926, Control_c, 0, 64, 54
1, 570941, Control_c, 0, 64, 55
1, 570970, Note_on_c, 0, 67, 64
1, 570981, Note_on_c, 0, 55, 49
1, 570986, Control_c, 0, 64, 56
1, 571001, Control_c, 0, 64, 57
1, 571016, Control_c, 0, 64, 60
1, 571031, Control_c, 0, 64, 61
1, 571046, Control_c, 0, 64, 62
1, 571050, Note_off_c, 0, 79, 64
1, 571060, Control_c, 0, 64, 64
1, 571075, Control_c, 0, 64, 65
1, 571090, Control_c, 0, 64, 67
1, 571105, Control_c, 0, 64, 69
1, 571120, Control_c, 0, 64, 71
1, 571134, Control_c, 0, 64, 73
1, 571149, Control_c, 0, 64, 74
1, 571164, Control_c, 0, 64, 76
1, 571179, Control_c, 0, 64, 78
1, 571193, Control_c, 0, 64, 78
1, 571208, Control_c, 0, 64, 79
1, 571210, Note_off_c, 0, 55, 60
1, 571223, Control_c, 0, 64, 80
1, 571238, Control_c, 0, 64, 81
1, 571253, Control_c, 0, 64, 81
1, 571268, Control_c, 0, 64, 82
1, 571277, Note_on_c, 0, 77, 60
1, 571283, Control_c, 0, 64, 82
1, 571288, Note_on_c, 0, 57, 54
1, 571298, Control_c, 0, 64, 83
1, 571313, Control_c, 0, 64, 84
1, 571328, Control_c, 0, 64, 86
1, 571342, Control_c, 0, 64, 87
1, 571357, Control_c, 0, 64, 89
1, 571372, Control_c, 0, 64, 92
1, 571386, Control_c, 0, 64, 94
1, 571401, Control_c, 0, 64, 97
1, 571410, Note_off_c, 0, 57, 59
1, 571416, Control_c, 0, 64, 100
1, 571420, Note_on_c, 0, 58, 70
1, 571431, Control_c, 0, 64, 103
1, 571446, Control_c, 0, 64, 105
1, 571458, Note_off_c, 0, 67, 60
1, 571460, Control_c, 0, 64, 107
1, 571490, Control_c, 0, 64, 109
1, 571527, Note_off_c, 0, 58, 62
1, 571558, Note_on_c, 0, 76, 73
1, 571561, Note_on_c, 0, 60, 73
1, 571576, Note_on_c, 0, 69, 63
1, 571598, Note_off_c, 0, 60, 62
1, 571612, Note_off_c, 0, 77, 61
1, 571704, Note_off_c, 0, 69, 57
1, 571707, Note_on_c, 0, 61, 83
1, 571749, Control_c, 0, 64, 107
1, 571780, Control_c, 0, 64, 103
1, 571795, Control_c, 0, 64, 98
1, 571810, Control_c, 0, 64, 93
1, 571824, Control_c, 0, 64, 88
1, 571839, Control_c, 0, 64, 79
1, 571842, Note_off_c, 0, 61, 56
1, 571854, Control_c, 0, 64, 68
1, 571869, Control_c, 0, 64, 45
1, 571883, Control_c, 0, 64, 0
1, 571887, Note_on_c, 0, 74, 75
1, 571900, Note_on_c, 0, 70, 67
1, 571904, Note_on_c, 0, 62, 73
1, 571931, Note_off_c, 0, 76, 61
1, 571987, Control_c, 0, 64, 56
1, 571989, Note_off_c, 0, 81, 54
1, 572002, Control_c, 0, 64, 70
1, 572011, Note_off_c, 0, 62, 63
1, 572016, Control_c, 0, 64, 80
1, 572031, Control_c, 0, 64, 98
1, 572033, Note_off_c, 0, 70, 64
1, 572046, Control_c, 0, 64, 127
1, 572049, Note_off_c, 0, 46, 63
1, 572056, Note_off_c, 0, 74, 62
1, 572286, Note_on_c, 0, 91, 95
1, 572302, Note_on_c, 0, 40, 70
1, 572621, Note_on_c, 0, 86, 92
1, 572627, Note_on_c, 0, 43, 82
1, 572690, Note_off_c, 0, 91, 61
1, 572821, Note_off_c, 0, 40, 50
1, 572943, Note_on_c, 0, 82, 96
1, 572944, Note_on_c, 0, 45, 82
1, 572970, Note_off_c, 0, 43, 59
1, 572972, Note_off_c, 0, 86, 64
1, 573012, Note_off_c, 0, 45, 63
1, 573016, Note_off_c, 0, 82, 65
1, 573316, Note_on_c, 0, 81, 92
1, 573320, Note_on_c, 0, 79, 83
1, 573325, Note_on_c, 0, 67, 81
1, 573337, Control_c, 0, 64, 108
1, 573339, Note_on_c, 0, 46, 69
1, 573340, Note_on_c, 0, 55, 72
1, 573351, Control_c, 0, 64, 95
1, 573367, Control_c, 0, 64, 85
1, 573381, Control_c, 0, 64, 76
1, 573396, Control_c, 0, 64, 66
1, 573411, Control_c, 0, 64, 52
1, 573426, Control_c, 0, 64, 0
1, 573492, Note_off_c, 0, 79, 64
1, 573500, Control_c, 0, 64, 49
1, 573515, Control_c, 0, 64, 61
1, 573530, Control_c, 0, 64, 66
1, 573544, Control_c, 0, 64, 69
1, 573559, Control_c, 0, 64, 72
1, 573574, Control_c, 0, 64, 73
1, 573588, Control_c, 0, 64, 75
1, 573600, Note_off_c, 0, 55, 63
1, 573603, Control_c, 0, 64, 77
1, 573618, Control_c, 0, 64, 80
1, 573633, Control_c, 0, 64, 82
1, 573638, Note_on_c, 0, 77, 74
1, 573648, Control_c, 0, 64, 84
1, 573650, Note_on_c, 0, 57, 65
1, 573662, Control_c, 0, 64, 85
1, 573677, Control_c, 0, 64, 87
1, 573692, Control_c, 0, 64, 89
1, 573707, Control_c, 0, 64, 91
1, 573722, Control_c, 0, 64, 93
1, 573736, Control_c, 0, 64, 96
1, 573758, Note_off_c, 0, 57, 56
1, 573766, Control_c, 0, 64, 99
1, 573788, Note_on_c, 0, 58, 80
1, 573790, Note_off_c, 0, 67, 62
1, 573796, Control_c, 0, 64, 101
1, 573936, Control_c, 0, 64, 98
1, 573939, Note_off_c, 0, 58, 62
1, 573951, Control_c, 0, 64, 96
1, 573966, Control_c, 0, 64, 90
1, 573969, Note_on_c, 0, 69, 86
1, 573973, Note_on_c, 0, 76, 78
1, 573981, Control_c, 0, 64, 82
1, 573989, Note_on_c, 0, 60, 72
1, 573996, Control_c, 0, 64, 71
1, 574010, Control_c, 0, 64, 58
1, 574016, Note_off_c, 0, 77, 63
1, 574025, Control_c, 0, 64, 0
1, 574100, Control_c, 0, 64, 35
1, 574114, Control_c, 0, 64, 55
1, 574129, Control_c, 0, 64, 64
1, 574144, Control_c, 0, 64, 70
1, 574156, Note_off_c, 0, 60, 65
1, 574159, Control_c, 0, 64, 76
1, 574174, Control_c, 0, 64, 80
1, 574189, Control_c, 0, 64, 83
1, 574204, Control_c, 0, 64, 87
1, 574213, Note_off_c, 0, 69, 60
1, 574219, Control_c, 0, 64, 90
1, 574234, Control_c, 0, 64, 92
1, 574249, Control_c, 0, 64, 93
1, 574264, Control_c, 0, 64, 93
1, 574337, Control_c, 0, 64, 93
1, 574352, Control_c, 0, 64, 92
1, 574356, Note_on_c, 0, 70, 79
1, 574362, Note_on_c, 0, 74, 76
1, 574367, Control_c, 0, 64, 89
1, 574382, Control_c, 0, 64, 83
1, 574383, Note_on_c, 0, 62, 66
1, 574397, Control_c, 0, 64, 74
1, 574411, Control_c, 0, 64, 64
1, 574426, Control_c, 0, 64, 49
1, 574441, Control_c, 0, 64, 0
1, 574464, Note_off_c, 0, 76, 60
1, 574471, Control_c, 0, 64, 39
1, 574485, Control_c, 0, 64, 55
1, 574492, Note_off_c, 0, 46, 63
1, 574500, Control_c, 0, 64, 64
1, 574515, Control_c, 0, 64, 69
1, 574529, Control_c, 0, 64, 73
1, 574544, Control_c, 0, 64, 76
1, 574559, Control_c, 0, 64, 76
1, 574641, Control_c, 0, 64, 76
1, 574656, Control_c, 0, 64, 75
1, 574671, Control_c, 0, 64, 74
1, 574685, Control_c, 0, 64, 71
1, 574700, Control_c, 0, 64, 68
1, 574715, Control_c, 0, 64, 64
1, 574730, Control_c, 0, 64, 61
1, 574739, Note_on_c, 0, 50, 75
1, 574744, Control_c, 0, 64, 55
1, 574759, Control_c, 0, 64, 45
1, 574774, Control_c, 0, 64, 0
1, 574893, Control_c, 0, 64, 42
1, 574908, Control_c, 0, 64, 61
1, 574923, Control_c, 0, 64, 67
1, 574937, Control_c, 0, 64, 71
1, 574942, Note_off_c, 0, 81, 59
1, 574952, Control_c, 0, 64, 75
1, 574967, Control_c, 0, 64, 78
1, 574982, Control_c, 0, 64, 82
1, 574997, Control_c, 0, 64, 86
1, 575012, Control_c, 0, 64, 89
1, 575027, Control_c, 0, 64, 90
1, 575042, Control_c, 0, 64, 90
1, 575072, Control_c, 0, 64, 90
1, 575087, Control_c, 0, 64, 89
1, 575089, Note_on_c, 0, 76, 80
1, 575101, Control_c, 0, 64, 84
1, 575106, Note_on_c, 0, 48, 72
1, 575116, Control_c, 0, 64, 75
1, 575123, Note_off_c, 0, 50, 61
1, 575131, Control_c, 0, 64, 65
1, 575146, Control_c, 0, 64, 53
1, 575160, Control_c, 0, 64, 40
1, 575175, Control_c, 0, 64, 40
1, 575190, Control_c, 0, 64, 48
1, 575205, Control_c, 0, 64, 57
1, 575220, Control_c, 0, 64, 63
1, 575234, Control_c, 0, 64, 67
1, 575249, Control_c, 0, 64, 71
1, 575264, Control_c, 0, 64, 74
1, 575279, Control_c, 0, 64, 77
1, 575294, Control_c, 0, 64, 80
1, 575308, Control_c, 0, 64, 82
1, 575323, Control_c, 0, 64, 84
1, 575338, Control_c, 0, 64, 86
1, 575352, Control_c, 0, 64, 87
1, 575434, Control_c, 0, 64, 86
1, 575441, Note_on_c, 0, 77, 80
1, 575449, Control_c, 0, 64, 82
1, 575454, Note_off_c, 0, 48, 65
1, 575457, Note_off_c, 0, 62, 33
1, 575462, Note_on_c, 0, 46, 65
1, 575464, Control_c, 0, 64, 74
1, 575477, Note_off_c, 0, 74, 60
1, 575479, Control_c, 0, 64, 64
1, 575487, Note_off_c, 0, 76, 63
1, 575493, Control_c, 0, 64, 51
1, 575508, Control_c, 0, 64, 33
1, 575523, Control_c, 0, 64, 0
1, 575538, Control_c, 0, 64, 31
1, 575553, Control_c, 0, 64, 48
1, 575567, Control_c, 0, 64, 59
1, 575582, Control_c, 0, 64, 64
1, 575598, Control_c, 0, 64, 68
1, 575613, Control_c, 0, 64, 72
1, 575628, Control_c, 0, 64, 76
1, 575642, Control_c, 0, 64, 79
1, 575657, Control_c, 0, 64, 84
1, 575672, Control_c, 0, 64, 90
1, 575686, Control_c, 0, 64, 96
1, 575701, Control_c, 0, 64, 102
1, 575712, Note_off_c, 0, 70, 58
1, 575716, Control_c, 0, 64, 106
1, 575731, Control_c, 0, 64, 108
1, 575762, Control_c, 0, 64, 110
1, 575787, Note_off_c, 0, 46, 45
1, 575821, Control_c, 0, 64, 105
1, 575831, Note_on_c, 0, 79, 85
1, 575836, Control_c, 0, 64, 94
1, 575843, Note_on_c, 0, 74, 68
1, 575847, Note_on_c, 0, 71, 67
1, 575848, Note_on_c, 0, 45, 64
1, 575851, Control_c, 0, 64, 79
1, 575860, Note_off_c, 0, 77, 63
1, 575865, Control_c, 0, 64, 69
1, 575880, Control_c, 0, 64, 63
1, 575895, Control_c, 0, 64, 64
1, 575909, Control_c, 0, 64, 66
1, 575924, Control_c, 0, 64, 70
1, 575939, Control_c, 0, 64, 75
1, 575954, Control_c, 0, 64, 80
1, 575969, Control_c, 0, 64, 85
1, 575984, Control_c, 0, 64, 90
1, 575999, Control_c, 0, 64, 96
1, 576001, Note_off_c, 0, 74, 63
1, 576014, Control_c, 0, 64, 100
1, 576028, Control_c, 0, 64, 105
1, 576043, Control_c, 0, 64, 109
1, 576058, Control_c, 0, 64, 111
1, 576074, Note_off_c, 0, 71, 53
1, 576228, Control_c, 0, 64, 109
1, 576243, Control_c, 0, 64, 107
1, 576273, Note_on_c, 0, 75, 60
1, 576273, Control_c, 0, 64, 104
1, 576279, Note_on_c, 0, 44, 66
1, 576279, Note_on_c, 0, 72, 57
1, 576303, Control_c, 0, 64, 99
1, 576317, Control_c, 0, 64, 95
1, 576321, Note_off_c, 0, 45, 60
1, 576332, Control_c, 0, 64, 87
1, 576347, Control_c, 0, 64, 78
1, 576362, Control_c, 0, 64, 64
1, 576377, Control_c, 0, 64, 46
1, 576391, Control_c, 0, 64, 0
1, 576676, Note_on_c, 0, 80, 81
1, 576720, Note_off_c, 0, 79, 60
1, 576888, Control_c, 0, 64, 42
1, 576903, Control_c, 0, 64, 49
1, 576918, Control_c, 0, 64, 53
1, 576932, Control_c, 0, 64, 55
1, 576947, Control_c, 0, 64, 57
1, 576992, Control_c, 0, 64, 56
1, 577006, Control_c, 0, 64, 55
1, 577021, Control_c, 0, 64, 55
1, 577036, Control_c, 0, 64, 54
1, 577051, Control_c, 0, 64, 51
1, 577059, Note_on_c, 0, 82, 86
1, 577066, Control_c, 0, 64, 49
1, 577081, Control_c, 0, 64, 48
1, 577096, Control_c, 0, 64, 48
1, 577111, Control_c, 0, 64, 49
1, 577121, Note_off_c, 0, 80, 60
1, 577125, Control_c, 0, 64, 51
1, 577140, Control_c, 0, 64, 54
1, 577155, Control_c, 0, 64, 58
1, 577170, Control_c, 0, 64, 61
1, 577185, Control_c, 0, 64, 64
1, 577200, Control_c, 0, 64, 66
1, 577214, Control_c, 0, 64, 68
1, 577229, Control_c, 0, 64, 69
1, 577244, Control_c, 0, 64, 70
1, 577246, Note_off_c, 0, 75, 64
1, 577258, Control_c, 0, 64, 71
1, 577265, Note_off_c, 0, 72, 54
1, 577273, Control_c, 0, 64, 72
1, 577288, Control_c, 0, 64, 73
1, 577318, Control_c, 0, 64, 74
1, 577363, Control_c, 0, 64, 74
1, 577378, Control_c, 0, 64, 76
1, 577393, Control_c, 0, 64, 78
1, 577408, Control_c, 0, 64, 80
1, 577416, Note_on_c, 0, 77, 62
1, 577423, Note_on_c, 0, 74, 62
1, 577423, Control_c, 0, 64, 83
1, 577437, Control_c, 0, 64, 88
1, 577452, Control_c, 0, 64, 94
1, 577467, Control_c, 0, 64, 102
1, 577482, Control_c, 0, 64, 113
1, 577496, Control_c, 0, 64, 127
1, 577513, Note_off_c, 0, 77, 62
1, 577550, Note_off_c, 0, 74, 63
1, 577799, Note_on_c, 0, 79, 70
1, 577811, Note_on_c, 0, 75, 63
1, 577813, Note_on_c, 0, 43, 65
1, 577826, Note_off_c, 0, 44, 61
1, 577844, Control_c, 0, 64, 117
1, 577859, Control_c, 0, 64, 97
1, 577874, Control_c, 0, 64, 81
1, 577889, Control_c, 0, 64, 66
1, 577903, Control_c, 0, 64, 47
1, 577918, Control_c, 0, 64, 0
1, 578008, Control_c, 0, 64, 50
1, 578011, Note_off_c, 0, 82, 65
1, 578023, Control_c, 0, 64, 63
1, 578037, Control_c, 0, 64, 69
1, 578052, Control_c, 0, 64, 73
1, 578067, Control_c, 0, 64, 75
1, 578081, Control_c, 0, 64, 77
1, 578096, Control_c, 0, 64, 80
1, 578111, Control_c, 0, 64, 84
1, 578126, Control_c, 0, 64, 86
1, 578141, Control_c, 0, 64, 87
1, 578157, Control_c, 0, 64, 88
1, 578201, Control_c, 0, 64, 87
1, 578211, Note_on_c, 0, 84, 84
1, 578216, Control_c, 0, 64, 85
1, 578231, Control_c, 0, 64, 81
1, 578244, Note_off_c, 0, 79, 65
1, 578246, Control_c, 0, 64, 79
1, 578260, Control_c, 0, 64, 80
1, 578275, Control_c, 0, 64, 81
1, 578290, Control_c, 0, 64, 84
1, 578304, Control_c, 0, 64, 87
1, 578315, Note_off_c, 0, 75, 63
1, 578319, Control_c, 0, 64, 92
1, 578334, Control_c, 0, 64, 100
1, 578349, Control_c, 0, 64, 122
1, 578364, Control_c, 0, 64, 127
1, 578468, Note_off_c, 0, 84, 58
1, 578619, Note_on_c, 0, 86, 90
1, 578630, Note_on_c, 0, 42, 59
1, 578636, Note_on_c, 0, 78, 68
1, 578644, Note_on_c, 0, 81, 54
1, 578656, Note_off_c, 0, 43, 51
1, 578667, Control_c, 0, 64, 104
1, 578682, Control_c, 0, 64, 87
1, 578697, Control_c, 0, 64, 73
1, 578711, Control_c, 0, 64, 60
1, 578726, Control_c, 0, 64, 0
1, 578801, Control_c, 0, 64, 49
1, 578816, Control_c, 0, 64, 63
1, 578830, Control_c, 0, 64, 71
1, 578845, Control_c, 0, 64, 82
1, 578860, Control_c, 0, 64, 89
1, 578875, Control_c, 0, 64, 94
1, 578890, Control_c, 0, 64, 99
1, 578904, Control_c, 0, 64, 104
1, 578918, Note_off_c, 0, 86, 61
1, 578919, Control_c, 0, 64, 108
1, 578950, Control_c, 0, 64, 110
1, 579024, Control_c, 0, 64, 108
1, 579039, Control_c, 0, 64, 103
1, 579039, Note_on_c, 0, 88, 88
1, 579054, Control_c, 0, 64, 101
1, 579235, Note_off_c, 0, 42, 31
1, 579467, Note_on_c, 0, 89, 86
1, 579488, Note_on_c, 0, 41, 62
1, 579489, Control_c, 0, 64, 97
1, 579504, Control_c, 0, 64, 94
1, 579511, Note_off_c, 0, 88, 66
1, 579519, Control_c, 0, 64, 91
1, 579534, Control_c, 0, 64, 88
1, 579549, Control_c, 0, 64, 82
1, 579564, Control_c, 0, 64, 75
1, 579579, Control_c, 0, 64, 68
1, 579593, Control_c, 0, 64, 60
1, 579608, Control_c, 0, 64, 48
1, 579623, Control_c, 0, 64, 0
1, 579737, Note_off_c, 0, 81, 58
1, 579802, Control_c, 0, 64, 46
1, 579817, Control_c, 0, 64, 58
1, 579831, Control_c, 0, 64, 62
1, 579846, Control_c, 0, 64, 64
1, 579861, Control_c, 0, 64, 65
1, 579883, Control_c, 0, 64, 66
1, 579898, Control_c, 0, 64, 69
1, 579913, Control_c, 0, 64, 71
1, 579928, Control_c, 0, 64, 74
1, 579942, Control_c, 0, 64, 77
1, 579947, Note_on_c, 0, 83, 59
1, 579953, Note_on_c, 0, 80, 54
1, 579957, Control_c, 0, 64, 79
1, 579972, Control_c, 0, 64, 81
1, 579987, Control_c, 0, 64, 83
1, 580002, Note_off_c, 0, 78, 54
1, 580002, Control_c, 0, 64, 84
1, 580017, Control_c, 0, 64, 84
1, 580031, Control_c, 0, 64, 85
1, 580046, Control_c, 0, 64, 85
1, 580061, Control_c, 0, 64, 86
1, 580075, Control_c, 0, 64, 86
1, 580085, Note_off_c, 0, 83, 62
1, 580089, Control_c, 0, 64, 87
1, 580104, Control_c, 0, 64, 87
1, 580119, Control_c, 0, 64, 88
1, 580124, Note_off_c, 0, 80, 63
1, 580134, Control_c, 0, 64, 89
1, 580148, Control_c, 0, 64, 89
1, 580282, Control_c, 0, 64, 89
1, 580297, Control_c, 0, 64, 88
1, 580312, Control_c, 0, 64, 86
1, 580317, Note_on_c, 0, 81, 59
1, 580317, Note_on_c, 0, 84, 68
1, 580327, Control_c, 0, 64, 82
1, 580330, Note_on_c, 0, 53, 46
1, 580342, Control_c, 0, 64, 77
1, 580356, Control_c, 0, 64, 72
1, 580371, Control_c, 0, 64, 66
1, 580386, Control_c, 0, 64, 61
1, 580400, Control_c, 0, 64, 52
1, 580415, Control_c, 0, 64, 32
1, 580430, Control_c, 0, 64, 0
1, 580550, Control_c, 0, 64, 34
1, 580564, Control_c, 0, 64, 47
1, 580579, Control_c, 0, 64, 58
1, 580594, Control_c, 0, 64, 63
1, 580609, Control_c, 0, 64, 65
1, 580631, Control_c, 0, 64, 67
1, 580646, Control_c, 0, 64, 69
1, 580661, Control_c, 0, 64, 72
1, 580676, Control_c, 0, 64, 74
1, 580691, Control_c, 0, 64, 78
1, 580705, Control_c, 0, 64, 81
1, 580714, Note_on_c, 0, 50, 55
1, 580720, Control_c, 0, 64, 84
1, 580735, Control_c, 0, 64, 88
1, 580750, Control_c, 0, 64, 92
1, 580765, Control_c, 0, 64, 95
1, 580766, Note_off_c, 0, 53, 37
1, 580779, Control_c, 0, 64, 99
1, 580794, Control_c, 0, 64, 105
1, 580809, Control_c, 0, 64, 117
1, 580816, Note_off_c, 0, 89, 62
1, 580820, Note_off_c, 0, 41, 49
1, 580823, Control_c, 0, 64, 127
1, 580956, Note_off_c, 0, 50, 58
1, 581110, Note_on_c, 0, 77, 68
1, 581126, Note_on_c, 0, 58, 54
1, 581410, Note_off_c, 0, 58, 30
1, 581498, Note_on_c, 0, 53, 55
1, 581707, Control_c, 0, 67, 19
1, 581766, Control_c, 0, 67, 22
1, 581810, Control_c, 0, 67, 24
1, 581840, Control_c, 0, 67, 27
1, 581869, Control_c, 0, 67, 30
1, 581894, Note_on_c, 0, 62, 52
1, 581899, Control_c, 0, 67, 33
1, 581914, Control_c, 0, 67, 34
1, 581928, Control_c, 0, 67, 37
1, 581943, Control_c, 0, 67, 40
1, 581958, Control_c, 0, 67, 44
1, 581973, Control_c, 0, 64, 114
1, 581973, Control_c, 0, 67, 48
1, 581988, Control_c, 0, 64, 107
1, 581988, Control_c, 0, 67, 52
1, 582002, Control_c, 0, 64, 104
1, 582002, Control_c, 0, 67, 56
1, 582017, Control_c, 0, 64, 101
1, 582017, Control_c, 0, 67, 59
1, 582032, Control_c, 0, 64, 99
1, 582032, Control_c, 0, 67, 62
1, 582047, Control_c, 0, 64, 97
1, 582047, Control_c, 0, 67, 66
1, 582062, Control_c, 0, 64, 95
1, 582062, Control_c, 0, 67, 71
1, 582077, Control_c, 0, 64, 92
1, 582077, Control_c, 0, 67, 75
1, 582092, Control_c, 0, 64, 89
1, 582092, Control_c, 0, 67, 80
1, 582107, Control_c, 0, 64, 88
1, 582107, Control_c, 0, 67, 87
1, 582128, Control_c, 0, 64, 86
1, 582128, Control_c, 0, 67, 93
1, 582144, Control_c, 0, 64, 85
1, 582144, Control_c, 0, 67, 99
1, 582159, Control_c, 0, 64, 84
1, 582159, Control_c, 0, 67, 104
1, 582174, Control_c, 0, 64, 83
1, 582174, Control_c, 0, 67, 109
1, 582189, Control_c, 0, 64, 82
1, 582189, Control_c, 0, 67, 113
1, 582204, Control_c, 0, 64, 80
1, 582204, Control_c, 0, 67, 116
1, 582218, Control_c, 0, 64, 79
1, 582218, Control_c, 0, 67, 119
1, 582223, Note_off_c, 0, 53, 27
1, 582233, Control_c, 0, 64, 79
1, 582233, Control_c, 0, 67, 122
1, 582248, Control_c, 0, 64, 78
1, 582248, Control_c, 0, 67, 126
1, 582263, Control_c, 0, 64, 77
1, 582277, Control_c, 0, 64, 76
1, 582292, Control_c, 0, 64, 75
1, 582307, Control_c, 0, 64, 74
1, 582322, Control_c, 0, 64, 72
1, 582328, Note_on_c, 0, 57, 43
1, 582337, Control_c, 0, 64, 70
1, 582351, Control_c, 0, 64, 68
1, 582366, Control_c, 0, 64, 67
1, 582381, Control_c, 0, 64, 65
1, 582396, Note_off_c, 0, 62, 50
1, 582396, Control_c, 0, 64, 64
1, 582411, Control_c, 0, 64, 62
1, 582426, Control_c, 0, 64, 61
1, 582440, Control_c, 0, 64, 60
1, 582455, Control_c, 0, 64, 60
1, 582559, Control_c, 0, 64, 60
1, 582768, Note_on_c, 0, 65, 48
1, 582781, Control_c, 0, 64, 60
1, 582840, Control_c, 0, 64, 59
1, 582855, Control_c, 0, 64, 59
1, 582877, Control_c, 0, 64, 58
1, 582892, Control_c, 0, 64, 58
1, 582902, Note_off_c, 0, 57, 35
1, 582907, Control_c, 0, 64, 57
1, 582922, Control_c, 0, 64, 57
1, 582937, Control_c, 0, 64, 56
1, 582953, Control_c, 0, 64, 56
1, 582967, Control_c, 0, 64, 55
1, 582982, Control_c, 0, 64, 54
1, 582997, Control_c, 0, 64, 53
1, 583012, Control_c, 0, 64, 52
1, 583026, Control_c, 0, 64, 51
1, 583041, Control_c, 0, 64, 50
1, 583056, Control_c, 0, 64, 49
1, 583071, Control_c, 0, 64, 47
1, 583087, Control_c, 0, 64, 44
1, 583101, Control_c, 0, 64, 40
1, 583116, Control_c, 0, 64, 33
1, 583131, Control_c, 0, 64, 0
1, 583427, Control_c, 0, 64, 32
1, 583442, Control_c, 0, 64, 39
1, 583457, Control_c, 0, 64, 46
1, 583472, Control_c, 0, 64, 53
1, 583487, Control_c, 0, 64, 59
1, 583501, Control_c, 0, 64, 61
1, 583516, Control_c, 0, 64, 63
1, 583531, Control_c, 0, 64, 63
1, 583546, Control_c, 0, 64, 64
1, 583561, Control_c, 0, 64, 64
1, 583575, Control_c, 0, 64, 65
1, 583590, Control_c, 0, 64, 66
1, 583627, Control_c, 0, 64, 66
1, 583653, Note_on_c, 0, 53, 34
1, 583701, Control_c, 0, 64, 66
1, 583716, Control_c, 0, 64, 65
1, 583731, Control_c, 0, 64, 65
1, 583746, Control_c, 0, 64, 63
1, 583761, Control_c, 0, 64, 61
1, 583776, Control_c, 0, 64, 57
1, 583791, Control_c, 0, 64, 51
1, 583806, Control_c, 0, 64, 42
1, 583821, Control_c, 0, 64, 0
1, 584071, Control_c, 0, 64, 34
1, 584086, Control_c, 0, 64, 43
1, 584101, Control_c, 0, 64, 52
1, 584116, Control_c, 0, 64, 58
1, 584131, Control_c, 0, 64, 61
1, 584145, Control_c, 0, 64, 62
1, 584160, Control_c, 0, 64, 64
1, 584175, Control_c, 0, 64, 66
1, 584190, Control_c, 0, 64, 68
1, 584205, Control_c, 0, 64, 71
1, 584220, Control_c, 0, 64, 74
1, 584234, Control_c, 0, 64, 78
1, 584242, Note_off_c, 0, 65, 36
1, 584249, Control_c, 0, 64, 81
1, 584264, Control_c, 0, 64, 84
1, 584279, Control_c, 0, 64, 88
1, 584294, Control_c, 0, 64, 92
1, 584308, Control_c, 0, 64, 96
1, 584323, Control_c, 0, 64, 103
1, 584338, Control_c, 0, 64, 111
1, 584353, Control_c, 0, 64, 127
1, 585228, Control_c, 0, 64, 119
1, 585242, Control_c, 0, 64, 113
1, 585257, Control_c, 0, 64, 109
1, 585262, Note_on_c, 0, 41, 31
1, 585272, Control_c, 0, 64, 106
1, 585287, Control_c, 0, 64, 103
1, 585302, Control_c, 0, 64, 101
1, 585317, Control_c, 0, 64, 98
1, 585332, Control_c, 0, 64, 95
1, 585348, Control_c, 0, 64, 92
1, 585363, Control_c, 0, 64, 89
1, 585377, Control_c, 0, 64, 87
1, 585392, Control_c, 0, 64, 84
1, 585407, Control_c, 0, 64, 80
1, 585421, Control_c, 0, 64, 75
1, 585436, Control_c, 0, 64, 71
1, 585451, Control_c, 0, 64, 67
1, 585466, Control_c, 0, 64, 64
1, 585481, Control_c, 0, 64, 60
1, 585496, Control_c, 0, 64, 55
1, 585511, Control_c, 0, 64, 49
1, 585526, Control_c, 0, 64, 37
1, 585541, Control_c, 0, 64, 0
1, 585629, Control_c, 0, 64, 32
1, 585644, Control_c, 0, 64, 42
1, 585659, Control_c, 0, 64, 51
1, 585674, Control_c, 0, 64, 57
1, 585688, Control_c, 0, 64, 61
1, 585703, Control_c, 0, 64, 63
1, 585718, Control_c, 0, 64, 65
1, 585733, Control_c, 0, 64, 66
1, 585747, Control_c, 0, 64, 69
1, 585762, Control_c, 0, 64, 72
1, 585777, Control_c, 0, 64, 75
1, 585789, Note_off_c, 0, 84, 52
1, 585792, Control_c, 0, 64, 78
1, 585807, Control_c, 0, 64, 81
1, 585821, Control_c, 0, 64, 85
1, 585823, Note_off_c, 0, 81, 41
1, 585827, Note_off_c, 0, 77, 42
1, 585836, Control_c, 0, 64, 88
1, 585851, Control_c, 0, 64, 90
1, 585874, Control_c, 0, 64, 92
1, 585889, Control_c, 0, 64, 93
1, 585903, Control_c, 0, 64, 95
1, 585918, Control_c, 0, 64, 97
1, 585933, Control_c, 0, 64, 99
1, 585962, Control_c, 0, 64, 101
1, 586230, Control_c, 0, 67, 124
1, 586244, Control_c, 0, 67, 119
1, 586259, Control_c, 0, 67, 116
1, 586274, Control_c, 0, 67, 114
1, 586363, Control_c, 0, 67, 117
1, 586384, Note_off_c, 0, 53, 31
1, 586393, Control_c, 0, 67, 119
1, 586423, Control_c, 0, 64, 99
1, 586423, Control_c, 0, 67, 121
1, 586451, Note_off_c, 0, 41, 34
1, 586452, Control_c, 0, 64, 96
1, 586452, Control_c, 0, 67, 123
1, 586467, Control_c, 0, 64, 95
1, 586482, Control_c, 0, 64, 94
1, 586497, Control_c, 0, 64, 93
1, 586497, Control_c, 0, 67, 125
1, 586511, Control_c, 0, 64, 92
1, 586526, Control_c, 0, 64, 89
1, 586541, Control_c, 0, 64, 86
1, 586556, Control_c, 0, 64, 84
1, 586570, Control_c, 0, 64, 81
1, 586585, Control_c, 0, 64, 79
1, 586600, Control_c, 0, 64, 77
1, 586623, Note_on_c, 0, 65, 53
1, 586623, Control_c, 0, 64, 74
1, 586638, Control_c, 0, 64, 72
1, 586652, Control_c, 0, 64, 69
1, 586667, Control_c, 0, 64, 67
1, 586682, Control_c, 0, 64, 64
1, 586682, Control_c, 0, 67, 127
1, 586697, Control_c, 0, 64, 60
1, 586712, Control_c, 0, 64, 55
1, 586726, Control_c, 0, 64, 49
1, 586741, Control_c, 0, 64, 40
1, 586756, Control_c, 0, 64, 0
1, 586918, Control_c, 0, 64, 35
1, 586934, Control_c, 0, 64, 52
1, 586949, Control_c, 0, 64, 64
1, 586964, Control_c, 0, 64, 69
1, 586979, Control_c, 0, 64, 75
1, 586993, Control_c, 0, 64, 79
1, 587008, Control_c, 0, 64, 83
1, 587022, Note_off_c, 0, 65, 57
1, 587023, Control_c, 0, 64, 90
1, 587038, Control_c, 0, 64, 97
1, 587053, Control_c, 0, 64, 103
1, 587067, Control_c, 0, 64, 107
1, 587097, Control_c, 0, 64, 110
1, 587112, Control_c, 0, 64, 112
1, 587127, Control_c, 0, 64, 115
1, 587162, Note_on_c, 0, 65, 49
1, 587290, Control_c, 0, 64, 117
1, 587371, Control_c, 0, 64, 119
1, 587415, Note_off_c, 0, 65, 52
1, 587475, Control_c, 0, 64, 122
1, 587519, Control_c, 0, 64, 126
1, 587905, Control_c, 0, 64, 122
1, 587950, Control_c, 0, 64, 119
1, 587964, Control_c, 0, 64, 117
1, 587979, Control_c, 0, 64, 115
1, 587994, Control_c, 0, 64, 112
1, 588009, Control_c, 0, 64, 109
1, 588039, Control_c, 0, 64, 106
1, 588062, Note_on_c, 0, 52, 48
1, 588068, Control_c, 0, 64, 103
1, 588083, Note_on_c, 0, 34, 39
1, 588083, Control_c, 0, 64, 100
1, 588087, Note_on_c, 0, 41, 37
1, 588098, Control_c, 0, 64, 98
1, 588120, Control_c, 0, 64, 95
1, 588135, Control_c, 0, 64, 93
1, 588149, Control_c, 0, 64, 91
1, 588164, Control_c, 0, 64, 88
1, 588179, Control_c, 0, 64, 84
1, 588194, Control_c, 0, 64, 81
1, 588209, Control_c, 0, 64, 77
1, 588223, Control_c, 0, 64, 74
1, 588238, Control_c, 0, 64, 70
1, 588253, Control_c, 0, 64, 66
1, 588268, Control_c, 0, 64, 61
1, 588283, Control_c, 0, 64, 55
1, 588298, Control_c, 0, 64, 48
1, 588313, Control_c, 0, 64, 34
1, 588328, Control_c, 0, 64, 0
1, 588536, Control_c, 0, 64, 44
1, 588551, Control_c, 0, 64, 53
1, 588565, Control_c, 0, 64, 57
1, 588580, Control_c, 0, 64, 59
1, 588595, Control_c, 0, 64, 61
1, 588610, Control_c, 0, 64, 63
1, 588625, Control_c, 0, 64, 65
1, 588639, Control_c, 0, 64, 67
1, 588654, Control_c, 0, 64, 68
1, 588669, Control_c, 0, 64, 70
1, 588684, Control_c, 0, 64, 72
1, 588699, Control_c, 0, 64, 75
1, 588713, Control_c, 0, 64, 80
1, 588728, Control_c, 0, 64, 85
1, 588743, Control_c, 0, 64, 89
1, 588757, Control_c, 0, 64, 94
1, 588772, Control_c, 0, 64, 100
1, 588787, Control_c, 0, 64, 111
1, 588802, Control_c, 0, 64, 127
1, 588865, Note_off_c, 0, 41, 39
1, 588922, Note_off_c, 0, 34, 40
1, 588967, Note_off_c, 0, 52, 37
1, 589388, Control_c, 0, 67, 116
1, 589403, Control_c, 0, 67, 101
1, 589418, Control_c, 0, 67, 89
1, 589433, Control_c, 0, 67, 76
1, 589448, Control_c, 0, 67, 64
1, 589462, Control_c, 0, 67, 52
1, 589477, Control_c, 0, 67, 42
1, 589492, Control_c, 0, 67, 35
1, 589507, Control_c, 0, 67, 31
1, 589536, Control_c, 0, 67, 29
1, 589706, Control_c, 0, 67, 31
1, 589736, Control_c, 0, 67, 32
1, 589751, Control_c, 0, 67, 32
1, 589766, Control_c, 0, 67, 33
1, 589825, Control_c, 0, 67, 33
1, 589840, Control_c, 0, 67, 34
1, 589943, Control_c, 0, 67, 34
1, 589963, Note_on_c, 0, 89, 72
1, 589992, Note_on_c, 0, 65, 39
1, 590059, Note_off_c, 0, 65, 54
1, 590402, Note_off_c, 0, 89, 25
1, 590752, Control_c, 0, 67, 35
1, 590931, Control_c, 0, 67, 35
1, 590975, Control_c, 0, 67, 36
1, 591034, Control_c, 0, 67, 36
1, 591049, Control_c, 0, 67, 37
1, 591079, Control_c, 0, 67, 37
1, 591094, Control_c, 0, 67, 38
1, 591131, Control_c, 0, 67, 39
1, 591146, Control_c, 0, 67, 40
1, 591160, Control_c, 0, 67, 40
1, 591175, Control_c, 0, 67, 41
1, 591190, Control_c, 0, 67, 42
1, 591205, Control_c, 0, 67, 42
1, 591220, Control_c, 0, 67, 43
1, 591234, Control_c, 0, 67, 44
1, 591249, Control_c, 0, 67, 44
1, 591279, Control_c, 0, 67, 45
1, 591309, Control_c, 0, 67, 45
1, 591324, Control_c, 0, 67, 46
1, 591338, Control_c, 0, 67, 46
1, 591353, Control_c, 0, 67, 50
1, 591368, Control_c, 0, 67, 57
1, 591383, Control_c, 0, 67, 63
1, 591398, Control_c, 0, 67, 70
1, 591413, Control_c, 0, 67, 76
1, 591428, Control_c, 0, 67, 83
1, 591442, Control_c, 0, 67, 91
1, 591457, Control_c, 0, 67, 99
1, 591472, Control_c, 0, 67, 107
1, 591486, Control_c, 0, 67, 113
1, 591501, Control_c, 0, 67, 118
1, 591516, Control_c, 0, 67, 121
1, 591531, Control_c, 0, 67, 124
1, 591546, Control_c, 0, 67, 127
1, 591598, Note_on_c, 0, 88, 56
1, 591633, Note_on_c, 0, 61, 30
1, 591793, Note_on_c, 0, 85, 59
1, 591830, Note_on_c, 0, 58, 33
1, 591935, Note_off_c, 0, 88, 24
1, 592024, Note_on_c, 0, 82, 64
1, 592032, Note_on_c, 0, 53, 30
1, 592082, Note_off_c, 0, 85, 54
1, 592085, Note_off_c, 0, 61, 26
1, 592089, Note_off_c, 0, 58, 41
1, 592415, Note_on_c, 0, 85, 55
1, 592418, Note_on_c, 0, 58, 34
1, 592505, Note_off_c, 0, 82, 36
1, 592522, Note_off_c, 0, 53, 35
1, 592705, Note_off_c, 0, 85, 53
1, 592759, Note_on_c, 0, 84, 62
1, 592784, Note_on_c, 0, 60, 33
1, 592834, Note_off_c, 0, 58, 37
1, 592987, Note_off_c, 0, 60, 36
1, 593118, Note_on_c, 0, 77, 53
1, 593130, Note_on_c, 0, 61, 31
1, 593158, Note_off_c, 0, 84, 52
1, 593470, Note_off_c, 0, 61, 36
1, 593481, Note_on_c, 0, 84, 59
1, 593513, Note_on_c, 0, 65, 29
1, 593592, Note_off_c, 0, 65, 51
1, 593913, Note_on_c, 0, 82, 56
1, 593941, Note_on_c, 0, 70, 25
1, 593967, Note_off_c, 0, 77, 36
1, 593988, Note_off_c, 0, 84, 53
1, 594131, Note_off_c, 0, 70, 36
1, 594497, Note_on_c, 0, 89, 54
1, 594531, Note_on_c, 0, 77, 27
1, 594581, Note_off_c, 0, 82, 26
1, 594721, Note_off_c, 0, 89, 34
1, 595096, Note_off_c, 0, 77, 40
1, 595187, Note_on_c, 0, 65, 55
1, 595457, Note_off_c, 0, 65, 64
1, 595466, Control_c, 0, 67, 125
1, 595682, Note_on_c, 0, 65, 70
1, 595741, Control_c, 0, 64, 115
1, 595756, Control_c, 0, 64, 109
1, 595771, Control_c, 0, 64, 105
1, 595786, Control_c, 0, 64, 98
1, 595801, Control_c, 0, 64, 88
1, 595816, Control_c, 0, 64, 76
1, 595831, Control_c, 0, 64, 65
1, 595846, Control_c, 0, 64, 49
1, 595860, Control_c, 0, 64, 0
1, 595935, Control_c, 0, 64, 41
1, 595949, Control_c, 0, 64, 56
1, 595964, Control_c, 0, 64, 63
1, 595979, Control_c, 0, 64, 67
1, 595994, Control_c, 0, 64, 71
1, 596009, Control_c, 0, 64, 75
1, 596023, Control_c, 0, 64, 80
1, 596038, Control_c, 0, 64, 88
1, 596048, Note_off_c, 0, 65, 58
1, 596053, Control_c, 0, 64, 98
1, 596068, Control_c, 0, 64, 106
1, 596082, Control_c, 0, 64, 114
1, 596097, Control_c, 0, 64, 121
1, 596112, Control_c, 0, 64, 127
1, 596164, Note_on_c, 0, 65, 69
1, 596409, Note_off_c, 0, 65, 37
1, 596609, Control_c, 0, 67, 127
1, 596891, Control_c, 0, 64, 116
1, 596905, Control_c, 0, 64, 108
1, 596919, Note_on_c, 0, 52, 65
1, 596920, Control_c, 0, 64, 102
1, 596935, Control_c, 0, 64, 97
1, 596937, Note_on_c, 0, 34, 48
1, 596940, Note_on_c, 0, 41, 39
1, 596950, Control_c, 0, 64, 92
1, 596965, Control_c, 0, 64, 88
1, 596979, Control_c, 0, 64, 81
1, 596994, Control_c, 0, 64, 73
1, 597009, Control_c, 0, 64, 65
1, 597023, Control_c, 0, 64, 53
1, 597038, Control_c, 0, 64, 0
1, 597179, Control_c, 0, 64, 40
1, 597194, Control_c, 0, 64, 55
1, 597209, Control_c, 0, 64, 63
1, 597223, Control_c, 0, 64, 68
1, 597238, Control_c, 0, 64, 72
1, 597253, Control_c, 0, 64, 77
1, 597268, Control_c, 0, 64, 82
1, 597283, Control_c, 0, 64, 94
1, 597297, Control_c, 0, 64, 126
1, 597330, Note_off_c, 0, 34, 61
1, 597336, Note_off_c, 0, 41, 39
1, 597342, Note_off_c, 0, 52, 57
1, 597941, Note_on_c, 0, 89, 72
1, 597958, Note_on_c, 0, 73, 43
1, 598290, Note_off_c, 0, 73, 37
1, 598317, Note_on_c, 0, 85, 75
1, 598330, Control_c, 0, 67, 125
1, 598349, Note_on_c, 0, 70, 47
1, 598359, Control_c, 0, 67, 123
1, 598374, Control_c, 0, 67, 120
1, 598389, Control_c, 0, 67, 117
1, 598404, Control_c, 0, 67, 113
1, 598418, Control_c, 0, 67, 109
1, 598433, Control_c, 0, 67, 105
1, 598448, Control_c, 0, 67, 99
1, 598463, Control_c, 0, 67, 93
1, 598466, Note_off_c, 0, 89, 61
1, 598478, Control_c, 0, 67, 85
1, 598493, Control_c, 0, 67, 80
1, 598497, Note_off_c, 0, 70, 52
1, 598507, Control_c, 0, 67, 75
1, 598522, Control_c, 0, 67, 71
1, 598537, Control_c, 0, 67, 68
1, 598552, Control_c, 0, 67, 65
1, 598567, Control_c, 0, 67, 64
1, 598582, Control_c, 0, 67, 64
1, 598674, Note_on_c, 0, 87, 76
1, 598698, Note_on_c, 0, 71, 35
1, 598713, Note_off_c, 0, 85, 59
1, 598737, Control_c, 0, 67, 64
1, 598752, Control_c, 0, 67, 65
1, 598767, Control_c, 0, 67, 65
1, 598782, Control_c, 0, 67, 66
1, 598796, Control_c, 0, 67, 67
1, 598810, Control_c, 0, 67, 68
1, 598840, Control_c, 0, 67, 68
1, 598855, Control_c, 0, 67, 69
1, 598871, Note_on_c, 0, 76, 57
1, 598884, Control_c, 0, 67, 69
1, 598899, Control_c, 0, 67, 70
1, 598958, Note_off_c, 0, 87, 63
1, 598993, Note_off_c, 0, 76, 25
1, 599039, Note_on_c, 0, 88, 74
1, 599048, Control_c, 0, 67, 70
1, 599077, Note_on_c, 0, 60, 38
1, 599078, Control_c, 0, 67, 71
1, 599154, Note_off_c, 0, 88, 52
1, 599315, Control_c, 0, 67, 71
1, 599335, Note_off_c, 0, 71, 33
1, 599455, Control_c, 0, 67, 72
1, 599500, Control_c, 0, 67, 72
1, 599515, Control_c, 0, 67, 73
1, 599545, Control_c, 0, 67, 74
1, 599560, Control_c, 0, 67, 74
1, 599574, Control_c, 0, 67, 75
1, 599589, Control_c, 0, 67, 76
1, 599618, Control_c, 0, 67, 77
1, 599627, Note_on_c, 0, 61, 35
1, 599648, Control_c, 0, 67, 78
1, 599663, Control_c, 0, 67, 79
1, 599678, Control_c, 0, 67, 80
1, 599692, Control_c, 0, 67, 82
1, 599707, Control_c, 0, 67, 88
1, 599723, Control_c, 0, 67, 93
1, 599738, Control_c, 0, 67, 97
1, 599748, Note_off_c, 0, 60, 33
1, 599753, Control_c, 0, 67, 102
1, 599768, Control_c, 0, 67, 106
1, 599783, Control_c, 0, 67, 110
1, 599797, Control_c, 0, 67, 113
1, 599812, Control_c, 0, 67, 116
1, 599827, Control_c, 0, 67, 118
1, 599841, Control_c, 0, 67, 120
1, 599856, Control_c, 0, 67, 122
1, 599871, Control_c, 0, 67, 124
1, 599887, Note_on_c, 0, 84, 67
1, 599901, Control_c, 0, 67, 126
1, 599917, Note_on_c, 0, 63, 40
1, 599930, Control_c, 0, 64, 111
1, 599945, Control_c, 0, 64, 101
1, 599960, Control_c, 0, 64, 95
1, 599974, Note_off_c, 0, 61, 40
1, 599975, Control_c, 0, 64, 88
1, 599989, Control_c, 0, 64, 82
1, 600004, Control_c, 0, 64, 76
1, 600019, Control_c, 0, 64, 69
1, 600034, Control_c, 0, 64, 62
1, 600049, Control_c, 0, 64, 55
1, 600064, Control_c, 0, 64, 45
1, 600078, Control_c, 0, 64, 0
1, 600263, Control_c, 0, 64, 54
1, 600278, Control_c, 0, 64, 63
1, 600293, Control_c, 0, 64, 66
1, 600308, Control_c, 0, 64, 70
1, 600323, Control_c, 0, 64, 75
1, 600338, Control_c, 0, 64, 83
1, 600353, Control_c, 0, 64, 96
1, 600359, Note_off_c, 0, 63, 62
1, 600367, Control_c, 0, 64, 116
1, 600382, Control_c, 0, 64, 127
1, 600701, Note_on_c, 0, 45, 43
1, 600727, Note_on_c, 0, 33, 28
1, 600764, Note_off_c, 0, 45, 56
1, 600795, Note_off_c, 0, 33, 58
1, 601065, Note_on_c, 0, 66, 53
1, 601091, Note_off_c, 0, 66, 60
1, 601104, Note_on_c, 0, 78, 56
1, 601276, Note_on_c, 0, 87, 86
1, 601345, Note_off_c, 0, 84, 61
1, 601851, Control_c, 0, 64, 119
1, 601866, Control_c, 0, 64, 111
1, 601879, Note_on_c, 0, 31, 44
1, 601881, Note_on_c, 0, 43, 44
1, 601881, Control_c, 0, 64, 105
1, 601895, Control_c, 0, 64, 101
1, 601910, Control_c, 0, 64, 97
1, 601925, Control_c, 0, 64, 93
1, 601939, Control_c, 0, 64, 86
1, 601954, Control_c, 0, 64, 76
1, 601969, Control_c, 0, 64, 64
1, 601984, Control_c, 0, 64, 50
1, 601999, Control_c, 0, 64, 0
1, 602043, Control_c, 0, 64, 32
1, 602058, Control_c, 0, 64, 50
1, 602073, Control_c, 0, 64, 63
1, 602088, Control_c, 0, 64, 69
1, 602102, Control_c, 0, 64, 73
1, 602118, Control_c, 0, 64, 78
1, 602133, Control_c, 0, 64, 82
1, 602148, Control_c, 0, 64, 89
1, 602163, Control_c, 0, 64, 100
1, 602178, Control_c, 0, 64, 119
1, 602192, Note_off_c, 0, 43, 36
1, 602192, Control_c, 0, 64, 127
1, 602311, Note_off_c, 0, 87, 38
1, 602347, Note_on_c, 0, 86, 55
1, 602365, Note_on_c, 0, 45, 43
1, 602368, Note_on_c, 0, 77, 41
1, 602377, Note_off_c, 0, 78, 56
1, 602454, Note_off_c, 0, 31, 58
1, 602548, Note_on_c, 0, 82, 68
1, 602564, Note_off_c, 0, 45, 43
1, 602570, Note_off_c, 0, 86, 50
1, 602645, Note_off_c, 0, 77, 51
1, 602744, Note_on_c, 0, 79, 66
1, 602747, Note_on_c, 0, 46, 53
1, 602754, Note_on_c, 0, 75, 52
1, 602775, Note_off_c, 0, 82, 57
1, 602957, Note_off_c, 0, 46, 34
1, 603096, Note_on_c, 0, 82, 69
1, 603116, Note_on_c, 0, 74, 55
1, 603121, Note_on_c, 0, 50, 46
1, 603131, Note_off_c, 0, 75, 57
1, 603151, Note_off_c, 0, 79, 58
1, 603211, Note_off_c, 0, 50, 58
1, 603432, Note_on_c, 0, 73, 62
1, 603435, Note_on_c, 0, 81, 71
1, 603441, Note_on_c, 0, 54, 61
1, 603473, Note_off_c, 0, 82, 60
1, 603495, Note_off_c, 0, 74, 37
1, 603790, Note_on_c, 0, 74, 70
1, 603794, Note_on_c, 0, 57, 69
1, 603797, Note_on_c, 0, 72, 60
1, 603809, Note_off_c, 0, 73, 53
1, 603879, Note_off_c, 0, 81, 47
1, 604157, Note_on_c, 0, 61, 71
1, 604160, Note_on_c, 0, 79, 70
1, 604169, Note_on_c, 0, 70, 58
1, 604216, Note_off_c, 0, 72, 47
1, 604262, Note_off_c, 0, 74, 55
1, 604303, Note_off_c, 0, 54, 35
1, 604330, Note_off_c, 0, 57, 56
1, 604510, Note_on_c, 0, 65, 74
1, 604529, Control_c, 0, 67, 124
1, 604564, Note_off_c, 0, 61, 61
1, 604573, Control_c, 0, 67, 121
1, 604610, Control_c, 0, 67, 118
1, 604625, Control_c, 0, 67, 116
1, 604884, Note_on_c, 0, 64, 59
1, 604907, Note_off_c, 0, 65, 61
1, 604936, Control_c, 0, 64, 114
1, 604951, Control_c, 0, 64, 105
1, 604965, Control_c, 0, 64, 99
1, 604980, Control_c, 0, 64, 95
1, 604995, Control_c, 0, 64, 92
1, 605010, Control_c, 0, 64, 91
1, 605098, Control_c, 0, 64, 90
1, 605113, Control_c, 0, 64, 90
1, 605128, Control_c, 0, 64, 89
1, 605143, Control_c, 0, 64, 87
1, 605158, Control_c, 0, 64, 85
1, 605173, Control_c, 0, 64, 84
1, 605188, Control_c, 0, 64, 82
1, 605203, Control_c, 0, 64, 80
1, 605218, Control_c, 0, 64, 77
1, 605232, Control_c, 0, 64, 73
1, 605241, Note_on_c, 0, 69, 56
1, 605247, Control_c, 0, 64, 68
1, 605262, Control_c, 0, 64, 63
1, 605277, Control_c, 0, 64, 60
1, 605291, Control_c, 0, 64, 60
1, 605307, Control_c, 0, 64, 62
1, 605322, Control_c, 0, 64, 65
1, 605344, Control_c, 0, 64, 67
1, 605359, Control_c, 0, 64, 69
1, 605374, Control_c, 0, 64, 72
1, 605388, Control_c, 0, 64, 75
1, 605403, Control_c, 0, 64, 78
1, 605418, Control_c, 0, 64, 79
1, 605433, Control_c, 0, 64, 80
1, 605448, Control_c, 0, 64, 81
1, 605622, Note_on_c, 0, 76, 56
1, 605641, Control_c, 0, 64, 80
1, 605655, Control_c, 0, 64, 78
1, 605670, Control_c, 0, 64, 77
1, 605685, Control_c, 0, 64, 77
1, 605714, Control_c, 0, 64, 77
1, 605723, Note_off_c, 0, 69, 49
1, 605729, Control_c, 0, 64, 78
1, 605744, Control_c, 0, 64, 79
1, 605759, Control_c, 0, 64, 80
1, 605774, Control_c, 0, 64, 81
1, 605788, Control_c, 0, 64, 82
1, 605803, Control_c, 0, 64, 84
1, 605814, Note_off_c, 0, 64, 62
1, 605818, Control_c, 0, 64, 86
1, 605833, Control_c, 0, 64, 88
1, 605848, Control_c, 0, 64, 89
1, 605862, Control_c, 0, 64, 90
1, 605877, Control_c, 0, 64, 91
1, 605906, Control_c, 0, 64, 91
1, 605936, Control_c, 0, 64, 92
1, 605951, Control_c, 0, 64, 93
1, 605966, Control_c, 0, 64, 94
1, 605966, Control_c, 0, 67, 114
1, 605981, Control_c, 0, 64, 95
1, 605983, Note_on_c, 0, 81, 60
1, 605996, Control_c, 0, 64, 96
1, 606036, Note_off_c, 0, 70, 58
1, 606055, Control_c, 0, 64, 98
1, 606169, Note_off_c, 0, 76, 46
1, 606197, Control_c, 0, 67, 116
1, 606226, Control_c, 0, 67, 118
1, 606285, Control_c, 0, 67, 121
1, 606345, Control_c, 0, 67, 123
1, 606360, Control_c, 0, 64, 96
1, 606375, Control_c, 0, 64, 94
1, 606390, Control_c, 0, 64, 92
1, 606391, Note_on_c, 0, 86, 55
1, 606393, Note_on_c, 0, 77, 56
1, 606404, Control_c, 0, 64, 89
1, 606419, Control_c, 0, 64, 87
1, 606434, Control_c, 0, 64, 84
1, 606449, Control_c, 0, 64, 82
1, 606464, Note_off_c, 0, 79, 39
1, 606464, Control_c, 0, 64, 78
1, 606479, Control_c, 0, 64, 75
1, 606493, Note_off_c, 0, 81, 59
1, 606493, Control_c, 0, 64, 71
1, 606508, Control_c, 0, 64, 67
1, 606523, Control_c, 0, 64, 61
1, 606538, Control_c, 0, 64, 53
1, 606553, Control_c, 0, 64, 32
1, 606568, Control_c, 0, 64, 0
1, 606568, Control_c, 0, 67, 125
1, 606642, Control_c, 0, 64, 39
1, 606656, Control_c, 0, 64, 58
1, 606671, Control_c, 0, 64, 65
1, 606686, Control_c, 0, 64, 69
1, 606701, Control_c, 0, 64, 71
1, 606716, Control_c, 0, 64, 73
1, 606730, Control_c, 0, 64, 76
1, 606745, Control_c, 0, 64, 79
1, 606760, Control_c, 0, 64, 84
1, 606775, Control_c, 0, 64, 88
1, 606790, Control_c, 0, 64, 93
1, 606797, Note_on_c, 0, 74, 59
1, 606804, Control_c, 0, 64, 97
1, 606819, Control_c, 0, 64, 101
1, 606820, Note_off_c, 0, 86, 48
1, 606821, Note_on_c, 0, 66, 37
1, 606842, Control_c, 0, 64, 105
1, 606856, Control_c, 0, 64, 108
1, 606871, Control_c, 0, 64, 112
1, 606886, Control_c, 0, 64, 119
1, 606892, Note_off_c, 0, 77, 32
1, 606901, Control_c, 0, 64, 127
1, 606946, Note_off_c, 0, 74, 58
1, 607015, Note_off_c, 0, 66, 35
1, 607179, Note_on_c, 0, 67, 60
1, 607207, Note_on_c, 0, 65, 49
1, 607212, Control_c, 0, 64, 117
1, 607227, Control_c, 0, 64, 113
1, 607242, Control_c, 0, 64, 111
1, 607253, Note_off_c, 0, 65, 0
1, 607253, Note_on_c, 0, 65, 20
1, 607271, Control_c, 0, 64, 107
1, 607286, Control_c, 0, 64, 105
1, 607301, Control_c, 0, 64, 103
1, 607316, Control_c, 0, 64, 101
1, 607352, Note_off_c, 0, 67, 60
1, 607360, Control_c, 0, 64, 99
1, 607375, Control_c, 0, 67, 127
1, 607405, Control_c, 0, 64, 97
1, 607434, Control_c, 0, 64, 95
1, 607449, Control_c, 0, 64, 93
1, 607464, Control_c, 0, 64, 92
1, 607478, Control_c, 0, 64, 91
1, 607493, Control_c, 0, 64, 89
1, 607508, Control_c, 0, 64, 88
1, 607523, Control_c, 0, 64, 86
1, 607538, Control_c, 0, 64, 84
1, 607552, Control_c, 0, 64, 81
1, 607556, Note_on_c, 0, 75, 65
1, 607565, Note_on_c, 0, 66, 38
1, 607567, Control_c, 0, 64, 79
1, 607590, Control_c, 0, 64, 77
1, 607605, Control_c, 0, 64, 75
1, 607620, Control_c, 0, 64, 72
1, 607634, Control_c, 0, 64, 70
1, 607649, Control_c, 0, 64, 68
1, 607664, Control_c, 0, 64, 68
1, 607678, Control_c, 0, 64, 67
1, 607693, Control_c, 0, 64, 66
1, 607709, Control_c, 0, 64, 64
1, 607724, Control_c, 0, 64, 59
1, 607739, Control_c, 0, 64, 50
1, 607754, Control_c, 0, 64, 31
1, 607769, Control_c, 0, 64, 0
1, 607797, Control_c, 0, 64, 39
1, 607812, Control_c, 0, 64, 57
1, 607827, Control_c, 0, 64, 65
1, 607842, Control_c, 0, 64, 69
1, 607856, Control_c, 0, 64, 71
1, 607886, Control_c, 0, 64, 72
1, 607901, Control_c, 0, 64, 72
1, 607915, Control_c, 0, 64, 74
1, 607927, Note_on_c, 0, 72, 75
1, 607930, Control_c, 0, 64, 76
1, 607936, Note_on_c, 0, 69, 44
1, 607945, Control_c, 0, 64, 78
1, 607960, Control_c, 0, 64, 81
1, 607975, Control_c, 0, 64, 83
1, 607990, Control_c, 0, 64, 86
1, 608005, Control_c, 0, 64, 89
1, 608020, Control_c, 0, 64, 93
1, 608034, Control_c, 0, 64, 98
1, 608049, Control_c, 0, 64, 109
1, 608049, Control_c, 0, 67, 125
1, 608056, Note_off_c, 0, 75, 59
1, 608064, Control_c, 0, 64, 127
1, 608083, Note_off_c, 0, 66, 25
1, 608094, Control_c, 0, 67, 123
1, 608138, Control_c, 0, 67, 121
1, 608182, Control_c, 0, 67, 119
1, 608207, Note_off_c, 0, 65, 54
1, 608208, Note_off_c, 0, 69, 49
1, 608274, Note_on_c, 0, 67, 49
1, 608280, Note_on_c, 0, 73, 79
1, 608300, Control_c, 0, 67, 117
1, 608329, Note_off_c, 0, 67, 60
1, 608330, Note_off_c, 0, 72, 63
1, 608441, Control_c, 0, 67, 115
1, 608687, Note_on_c, 0, 74, 81
1, 608694, Note_on_c, 0, 62, 69
1, 608702, Note_on_c, 0, 50, 60
1, 608710, Control_c, 0, 67, 113
1, 608725, Control_c, 0, 64, 115
1, 608739, Control_c, 0, 64, 103
1, 608750, Note_off_c, 0, 73, 60
1, 608754, Control_c, 0, 64, 88
1, 608769, Control_c, 0, 64, 73
1, 608784, Control_c, 0, 64, 60
1, 608799, Control_c, 0, 64, 36
1, 608813, Control_c, 0, 64, 0
1, 608843, Control_c, 0, 67, 111
1, 608857, Control_c, 0, 64, 34
1, 608857, Control_c, 0, 67, 103
1, 608872, Control_c, 0, 64, 49
1, 608872, Control_c, 0, 67, 93
1, 608887, Control_c, 0, 64, 59
1, 608887, Control_c, 0, 67, 84
1, 608902, Control_c, 0, 64, 65
1, 608902, Control_c, 0, 67, 76
1, 608917, Control_c, 0, 64, 69
1, 608917, Control_c, 0, 67, 69
1, 608932, Control_c, 0, 64, 72
1, 608932, Control_c, 0, 67, 61
1, 608947, Control_c, 0, 64, 75
1, 608947, Control_c, 0, 67, 54
1, 608962, Control_c, 0, 64, 78
1, 608962, Control_c, 0, 67, 49
1, 608976, Control_c, 0, 64, 81
1, 608976, Control_c, 0, 67, 43
1, 608991, Control_c, 0, 64, 84
1, 608991, Control_c, 0, 67, 39
1, 609006, Control_c, 0, 64, 87
1, 609006, Control_c, 0, 67, 35
1, 609021, Control_c, 0, 64, 90
1, 609021, Control_c, 0, 67, 32
1, 609036, Control_c, 0, 64, 93
1, 609036, Control_c, 0, 67, 30
1, 609050, Control_c, 0, 64, 96
1, 609050, Control_c, 0, 67, 28
1, 609065, Control_c, 0, 64, 101
1, 609087, Control_c, 0, 64, 107
1, 609096, Note_on_c, 0, 71, 79
1, 609102, Control_c, 0, 64, 121
1, 609102, Control_c, 0, 67, 25
1, 609116, Note_on_c, 0, 59, 50
1, 609117, Control_c, 0, 64, 127
1, 609131, Control_c, 0, 67, 22
1, 609146, Control_c, 0, 67, 19
1, 609161, Control_c, 0, 67, 0
1, 609192, Note_off_c, 0, 50, 47
1, 609207, Note_off_c, 0, 62, 56
1, 609261, Note_off_c, 0, 74, 54
1, 609424, Note_off_c, 0, 59, 29
1, 609428, Control_c, 0, 67, 19
1, 609502, Control_c, 0, 67, 21
1, 609515, Note_on_c, 0, 70, 76
1, 609540, Note_off_c, 0, 71, 62
1, 609545, Note_on_c, 0, 58, 47
1, 609680, Control_c, 0, 64, 111
1, 609695, Control_c, 0, 64, 98
1, 609710, Control_c, 0, 64, 80
1, 609710, Control_c, 0, 67, 23
1, 609725, Control_c, 0, 64, 62
1, 609740, Control_c, 0, 64, 0
1, 609769, Control_c, 0, 67, 26
1, 609939, Note_on_c, 0, 65, 92
1, 610058, Control_c, 0, 64, 40
1, 610073, Control_c, 0, 64, 58
1, 610087, Control_c, 0, 64, 64
1, 610103, Control_c, 0, 64, 69
1, 610118, Control_c, 0, 64, 74
1, 610133, Control_c, 0, 64, 79
1, 610148, Control_c, 0, 64, 87
1, 610163, Control_c, 0, 64, 101
1, 610177, Control_c, 0, 64, 127
1, 610177, Control_c, 0, 67, 24
1, 610184, Note_off_c, 0, 65, 61
1, 610264, Note_on_c, 0, 30, 59
1, 610357, Note_on_c, 0, 37, 59
1, 610371, Note_off_c, 0, 30, 60
1, 610399, Control_c, 0, 67, 22
1, 610403, Note_on_c, 0, 65, 91
1, 610440, Note_on_c, 0, 49, 61
1, 610451, Note_off_c, 0, 37, 62
1, 610470, Note_off_c, 0, 49, 66
1, 610532, Control_c, 0, 67, 20
1, 610562, Control_c, 0, 67, 0
1, 610685, Note_off_c, 0, 65, 58
1, 610845, Note_on_c, 0, 65, 85
1, 610947, Note_off_c, 0, 58, 60
1, 610954, Note_off_c, 0, 70, 62
1, 610981, Note_off_c, 0, 65, 64
1, 611147, Note_on_c, 0, 30, 50
1, 611253, Note_on_c, 0, 37, 56
1, 611290, Note_off_c, 0, 37, 61
1, 611337, Note_off_c, 0, 30, 40
1, 611412, Note_on_c, 0, 52, 91
1, 611659, Note_off_c, 0, 52, 62
1, 611689, Control_c, 0, 67, 20
1, 611720, Control_c, 0, 67, 22
1, 611749, Control_c, 0, 67, 25
1, 611764, Control_c, 0, 67, 27
1, 611779, Control_c, 0, 67, 29
1, 611794, Control_c, 0, 67, 32
1, 611809, Control_c, 0, 67, 35
1, 611823, Control_c, 0, 67, 40
1, 611838, Control_c, 0, 67, 46
1, 611853, Control_c, 0, 67, 53
1, 611868, Control_c, 0, 67, 62
1, 611883, Control_c, 0, 67, 71
1, 611898, Control_c, 0, 67, 82
1, 611913, Control_c, 0, 67, 92
1, 611928, Control_c, 0, 67, 100
1, 611942, Control_c, 0, 67, 107
1, 611957, Control_c, 0, 67, 111
1, 611972, Control_c, 0, 67, 115
1, 611987, Control_c, 0, 67, 117
1, 612031, Control_c, 0, 67, 119
1, 612060, Note_on_c, 0, 70, 70
1, 612103, Note_on_c, 0, 58, 41
1, 612282, Note_off_c, 0, 58, 61
1, 612356, Note_off_c, 0, 70, 63
1, 612438, Control_c, 0, 67, 117
1, 612473, Note_on_c, 0, 70, 81
1, 612505, Note_on_c, 0, 58, 43
1, 612543, Control_c, 0, 67, 115
1, 612646, Control_c, 0, 67, 113
1, 612750, Control_c, 0, 67, 111
1, 612782, Note_off_c, 0, 58, 36
1, 612826, Note_on_c, 0, 72, 83
1, 612861, Note_on_c, 0, 60, 43
1, 612935, Control_c, 0, 67, 109
1, 612962, Note_off_c, 0, 60, 58
1, 613036, Note_off_c, 0, 70, 0
1, 613074, Poly_aftertouch_c, 0, 70, 127
1, 613120, Poly_aftertouch_c, 0, 70, 0
1, 613179, Note_on_c, 0, 75, 76
1, 613224, Note_on_c, 0, 63, 39
1, 613308, Note_off_c, 0, 72, 62
1, 613528, Note_off_c, 0, 75, 65
1, 613534, Note_on_c, 0, 72, 80
1, 613539, Note_off_c, 0, 63, 58
1, 613548, Note_on_c, 0, 60, 42
1, 613889, Note_on_c, 0, 82, 85
1, 613940, Note_on_c, 0, 63, 47
1, 613971, Note_off_c, 0, 72, 54
1, 614080, Note_off_c, 0, 60, 34
1, 614152, Note_on_c, 0, 66, 55
1, 614159, Control_c, 0, 64, 121
1, 614174, Control_c, 0, 64, 100
1, 614189, Control_c, 0, 64, 97
1, 614198, Note_off_c, 0, 63, 59
1, 614218, Control_c, 0, 64, 106
1, 614220, Note_on_c, 0, 70, 63
1, 614230, Note_off_c, 0, 66, 62
1, 614233, Control_c, 0, 64, 127
1, 614253, Note_off_c, 0, 70, 66
1, 614274, Note_on_c, 0, 72, 56
1, 614363, Note_on_c, 0, 80, 85
1, 614378, Note_off_c, 0, 72, 54
1, 614403, Control_c, 0, 64, 116
1, 614407, Note_on_c, 0, 75, 71
1, 614418, Control_c, 0, 64, 100
1, 614433, Control_c, 0, 64, 89
1, 614448, Control_c, 0, 64, 80
1, 614453, Note_off_c, 0, 82, 57
1, 614463, Control_c, 0, 64, 70
1, 614477, Control_c, 0, 64, 60
1, 614492, Control_c, 0, 64, 51
1, 614507, Control_c, 0, 64, 53
1, 614522, Control_c, 0, 64, 60
1, 614537, Control_c, 0, 64, 68
1, 614551, Control_c, 0, 64, 75
1, 614566, Control_c, 0, 64, 80
1, 614581, Control_c, 0, 64, 81
1, 614595, Control_c, 0, 64, 83
1, 614610, Control_c, 0, 64, 86
1, 614610, Control_c, 0, 67, 107
1, 614625, Control_c, 0, 64, 90
1, 614637, Note_off_c, 0, 75, 62
1, 614640, Control_c, 0, 64, 98
1, 614655, Control_c, 0, 64, 106
1, 614670, Control_c, 0, 64, 116
1, 614685, Control_c, 0, 64, 127
1, 614759, Note_on_c, 0, 72, 87
1, 614774, Control_c, 0, 67, 105
1, 614803, Control_c, 0, 67, 102
1, 614833, Control_c, 0, 67, 97
1, 614848, Control_c, 0, 67, 92
1, 614863, Control_c, 0, 67, 84
1, 614877, Control_c, 0, 67, 74
1, 614879, Note_off_c, 0, 80, 57
1, 614893, Control_c, 0, 67, 60
1, 614908, Control_c, 0, 67, 48
1, 614923, Control_c, 0, 67, 36
1, 614938, Control_c, 0, 67, 27
1, 614953, Control_c, 0, 67, 21
1, 614967, Control_c, 0, 67, 0
1, 615116, Note_on_c, 0, 73, 91
1, 615123, Control_c, 0, 64, 100
1, 615124, Note_on_c, 0, 76, 44
1, 615129, Note_on_c, 0, 70, 66
1, 615138, Control_c, 0, 64, 78
1, 615153, Control_c, 0, 64, 69
1, 615167, Control_c, 0, 64, 67
1, 615182, Control_c, 0, 64, 70
1, 615197, Control_c, 0, 64, 77
1, 615199, Note_off_c, 0, 72, 59
1, 615212, Control_c, 0, 64, 86
1, 615226, Control_c, 0, 64, 96
1, 615241, Control_c, 0, 64, 109
1, 615256, Control_c, 0, 64, 127
1, 615299, Note_off_c, 0, 76, 39
1, 615352, Note_off_c, 0, 73, 59
1, 615437, Note_on_c, 0, 74, 92
1, 615592, Note_on_c, 0, 68, 73
1, 615596, Note_off_c, 0, 70, 53
1, 615605, Note_off_c, 0, 74, 57
1, 615651, Note_on_c, 0, 72, 72
1, 615686, Control_c, 0, 67, 19
1, 615701, Control_c, 0, 64, 99
1, 615704, Note_on_c, 0, 76, 82
1, 615716, Control_c, 0, 64, 78
1, 615731, Note_off_c, 0, 72, 50
1, 615731, Control_c, 0, 64, 63
1, 615746, Control_c, 0, 64, 59
1, 615761, Control_c, 0, 64, 62
1, 615773, Note_on_c, 0, 80, 95
1, 615776, Control_c, 0, 64, 67
1, 615786, Note_on_c, 0, 79, 83
1, 615790, Control_c, 0, 64, 75
1, 615797, Note_off_c, 0, 68, 62
1, 615803, Note_off_c, 0, 76, 62
1, 615805, Control_c, 0, 64, 87
1, 615827, Control_c, 0, 64, 98
1, 615836, Note_off_c, 0, 79, 67
1, 615841, Control_c, 0, 64, 111
1, 615856, Control_c, 0, 64, 127
1, 615988, Note_off_c, 0, 80, 61
1, 616005, Control_c, 0, 67, 21
1, 616060, Note_on_c, 0, 81, 91
1, 616110, Control_c, 0, 67, 23
1, 616155, Note_on_c, 0, 84, 99
1, 616186, Note_on_c, 0, 80, 71
1, 616196, Note_off_c, 0, 81, 60
1, 616198, Control_c, 0, 64, 89
1, 616213, Control_c, 0, 64, 72
1, 616228, Control_c, 0, 64, 63
1, 616242, Control_c, 0, 64, 64
1, 616257, Control_c, 0, 64, 68
1, 616272, Control_c, 0, 64, 75
1, 616287, Control_c, 0, 64, 87
1, 616302, Control_c, 0, 64, 99
1, 616316, Control_c, 0, 64, 111
1, 616331, Control_c, 0, 64, 127
1, 616366, Note_off_c, 0, 84, 64
1, 616498, Note_on_c, 0, 82, 95
1, 616506, Note_on_c, 0, 78, 74
1, 616525, Note_off_c, 0, 80, 63
1, 616542, Note_off_c, 0, 78, 62
1, 616837, Note_on_c, 0, 92, 98
1, 616843, Note_off_c, 0, 82, 53
1, 616880, Note_on_c, 0, 77, 59
1, 616918, Control_c, 0, 64, 99
1, 616932, Control_c, 0, 64, 78
1, 616947, Control_c, 0, 64, 70
1, 616962, Control_c, 0, 64, 70
1, 616977, Control_c, 0, 64, 74
1, 616991, Control_c, 0, 64, 83
1, 617006, Control_c, 0, 64, 95
1, 617021, Control_c, 0, 64, 117
1, 617036, Control_c, 0, 64, 127
1, 617061, Note_off_c, 0, 77, 63
1, 617067, Note_on_c, 0, 75, 65
1, 617145, Note_on_c, 0, 77, 73
1, 617148, Note_off_c, 0, 75, 51
1, 617177, Note_off_c, 0, 77, 58
1, 617179, Note_on_c, 0, 82, 97
1, 617206, Note_on_c, 0, 78, 78
1, 617213, Note_off_c, 0, 92, 64
1, 617248, Note_off_c, 0, 78, 62
1, 617538, Note_on_c, 0, 87, 95
1, 617564, Note_on_c, 0, 72, 66
1, 617591, Control_c, 0, 64, 92
1, 617595, Note_off_c, 0, 82, 58
1, 617606, Control_c, 0, 64, 76
1, 617621, Control_c, 0, 64, 67
1, 617651, Control_c, 0, 64, 71
1, 617666, Control_c, 0, 64, 78
1, 617681, Control_c, 0, 64, 85
1, 617695, Control_c, 0, 64, 91
1, 617710, Control_c, 0, 64, 94
1, 617725, Control_c, 0, 64, 100
1, 617739, Control_c, 0, 64, 106
1, 617754, Control_c, 0, 64, 113
1, 617769, Control_c, 0, 64, 122
1, 617784, Control_c, 0, 64, 127
1, 617843, Control_c, 0, 64, 112
1, 617858, Control_c, 0, 64, 98
1, 617873, Control_c, 0, 64, 88
1, 617884, Note_on_c, 0, 85, 92
1, 617887, Control_c, 0, 64, 85
1, 617893, Note_on_c, 0, 70, 69
1, 617902, Control_c, 0, 64, 86
1, 617917, Control_c, 0, 64, 88
1, 617931, Control_c, 0, 64, 92
1, 617932, Note_off_c, 0, 87, 64
1, 617946, Control_c, 0, 64, 96
1, 617961, Control_c, 0, 64, 100
1, 617976, Control_c, 0, 64, 106
1, 617991, Control_c, 0, 64, 118
1, 618006, Control_c, 0, 64, 127
1, 618219, Note_on_c, 0, 84, 92
1, 618232, Note_on_c, 0, 68, 70
1, 618237, Control_c, 0, 64, 108
1, 618250, Note_off_c, 0, 85, 63
1, 618251, Control_c, 0, 64, 85
1, 618265, Note_off_c, 0, 72, 35
1, 618266, Control_c, 0, 64, 72
1, 618281, Control_c, 0, 64, 66
1, 618296, Control_c, 0, 64, 68
1, 618311, Control_c, 0, 64, 73
1, 618325, Control_c, 0, 64, 84
1, 618340, Control_c, 0, 64, 92
1, 618355, Control_c, 0, 64, 97
1, 618369, Control_c, 0, 64, 101
1, 618384, Control_c, 0, 64, 106
1, 618392, Note_off_c, 0, 70, 37
1, 618399, Control_c, 0, 64, 113
1, 618414, Control_c, 0, 64, 127
1, 618601, Note_on_c, 0, 82, 87
1, 618601, Note_off_c, 0, 68, 57
1, 618605, Note_on_c, 0, 66, 62
1, 618650, Note_off_c, 0, 66, 52
1, 618677, Note_off_c, 0, 84, 60
1, 618866, Control_c, 0, 67, 25
1, 618912, Control_c, 0, 67, 28
1, 619027, Note_on_c, 0, 83, 87
1, 619031, Control_c, 0, 64, 111
1, 619044, Note_on_c, 0, 69, 64
1, 619046, Control_c, 0, 64, 105
1, 619061, Control_c, 0, 64, 101
1, 619069, Note_off_c, 0, 82, 59
1, 619075, Control_c, 0, 64, 97
1, 619090, Control_c, 0, 64, 94
1, 619105, Control_c, 0, 64, 90
1, 619105, Control_c, 0, 67, 30
1, 619120, Control_c, 0, 64, 86
1, 619135, Control_c, 0, 64, 81
1, 619149, Control_c, 0, 64, 76
1, 619164, Control_c, 0, 64, 70
1, 619179, Control_c, 0, 64, 64
1, 619193, Control_c, 0, 64, 60
1, 619193, Control_c, 0, 67, 33
1, 619208, Control_c, 0, 64, 55
1, 619208, Control_c, 0, 67, 36
1, 619223, Control_c, 0, 64, 49
1, 619223, Control_c, 0, 67, 42
1, 619238, Control_c, 0, 64, 42
1, 619238, Control_c, 0, 67, 49
1, 619253, Control_c, 0, 64, 30
1, 619253, Control_c, 0, 67, 58
1, 619267, Control_c, 0, 64, 0
1, 619267, Control_c, 0, 67, 71
1, 619282, Control_c, 0, 67, 83
1, 619297, Control_c, 0, 67, 96
1, 619311, Control_c, 0, 67, 111
1, 619326, Control_c, 0, 67, 125
1, 619341, Control_c, 0, 67, 127
1, 619527, Note_on_c, 0, 80, 48
1, 619548, Note_on_c, 0, 29, 61
1, 619548, Note_on_c, 0, 41, 54
1, 619600, Control_c, 0, 64, 41
1, 619615, Control_c, 0, 64, 52
1, 619630, Note_off_c, 0, 69, 49
1, 619630, Control_c, 0, 64, 59
1, 619645, Control_c, 0, 64, 61
1, 619660, Control_c, 0, 64, 64
1, 619675, Control_c, 0, 64, 67
1, 619690, Control_c, 0, 64, 71
1, 619705, Control_c, 0, 64, 77
1, 619720, Control_c, 0, 64, 84
1, 619735, Control_c, 0, 64, 91
1, 619750, Control_c, 0, 64, 101
1, 619764, Control_c, 0, 64, 119
1, 619779, Control_c, 0, 64, 127
1, 619845, Note_off_c, 0, 29, 62
1, 619900, Note_off_c, 0, 83, 57
1, 619923, Note_on_c, 0, 84, 77
1, 619942, Note_on_c, 0, 79, 54
1, 619950, Note_off_c, 0, 80, 58
1, 619980, Note_off_c, 0, 79, 0
1, 619980, Note_on_c, 0, 79, 27
1, 620001, Note_off_c, 0, 41, 37
1, 620286, Note_on_c, 0, 89, 82
1, 620311, Note_on_c, 0, 78, 53
1, 620366, Note_off_c, 0, 84, 60
1, 620381, Note_off_c, 0, 79, 42
1, 620650, Note_on_c, 0, 85, 79
1, 620671, Note_on_c, 0, 77, 55
1, 620758, Note_off_c, 0, 78, 49
1, 620941, Note_off_c, 0, 89, 37
1, 620968, Note_off_c, 0, 77, 47
1, 620997, Note_on_c, 0, 75, 56
1, 621082, Note_off_c, 0, 85, 63
1, 621362, Note_on_c, 0, 86, 70
1, 621407, Note_on_c, 0, 74, 23
1, 621425, Note_off_c, 0, 75, 36
1, 621739, Note_on_c, 0, 90, 72
1, 621758, Note_on_c, 0, 70, 43
1, 621914, Note_off_c, 0, 74, 36
1, 622104, Note_off_c, 0, 86, 57
1, 622107, Note_on_c, 0, 87, 67
1, 622116, Note_on_c, 0, 71, 45
1, 622159, Note_off_c, 0, 70, 37
1, 622194, Note_off_c, 0, 90, 61
1, 622431, Note_off_c, 0, 71, 62
1, 622472, Note_on_c, 0, 88, 65
1, 622490, Note_on_c, 0, 72, 33
1, 622546, Note_off_c, 0, 87, 63
1, 622838, Note_off_c, 0, 72, 45
1, 622850, Note_on_c, 0, 92, 69
1, 622866, Note_on_c, 0, 74, 40
1, 622950, Note_off_c, 0, 88, 59
1, 623198, Note_off_c, 0, 74, 31
1, 623267, Note_on_c, 0, 96, 68
1, 623283, Note_on_c, 0, 78, 41
1, 623374, Note_off_c, 0, 92, 53
1, 623739, Note_off_c, 0, 78, 33
1, 623741, Note_on_c, 0, 89, 67
1, 623770, Note_on_c, 0, 77, 24
1, 623804, Control_c, 0, 64, 116
1, 623819, Control_c, 0, 64, 107
1, 623834, Control_c, 0, 64, 101
1, 623849, Control_c, 0, 64, 96
1, 623863, Control_c, 0, 64, 93
1, 623878, Control_c, 0, 64, 91
1, 623893, Control_c, 0, 64, 88
1, 623896, Note_off_c, 0, 96, 41
1, 623908, Control_c, 0, 64, 85
1, 623923, Control_c, 0, 64, 82
1, 623938, Control_c, 0, 64, 80
1, 623952, Control_c, 0, 64, 79
1, 623967, Control_c, 0, 64, 78
1, 623982, Control_c, 0, 64, 77
1, 623997, Control_c, 0, 64, 76
1, 624012, Control_c, 0, 64, 76
1, 624027, Control_c, 0, 64, 75
1, 624042, Control_c, 0, 64, 74
1, 624063, Control_c, 0, 64, 74
1, 624093, Control_c, 0, 64, 73
1, 624107, Control_c, 0, 64, 73
1, 624122, Control_c, 0, 64, 72
1, 624137, Control_c, 0, 64, 71
1, 624152, Control_c, 0, 64, 70
1, 624167, Control_c, 0, 64, 69
1, 624182, Control_c, 0, 64, 68
1, 624197, Control_c, 0, 64, 67
1, 624212, Control_c, 0, 64, 65
1, 624227, Control_c, 0, 64, 63
1, 624242, Control_c, 0, 64, 62
1, 624256, Control_c, 0, 64, 60
1, 624271, Control_c, 0, 64, 59
1, 624286, Control_c, 0, 64, 59
1, 624301, Control_c, 0, 64, 58
1, 624315, Control_c, 0, 64, 57
1, 624330, Control_c, 0, 64, 55
1, 624345, Control_c, 0, 64, 52
1, 624360, Control_c, 0, 64, 49
1, 624374, Control_c, 0, 64, 47
1, 624389, Control_c, 0, 64, 45
1, 624404, Control_c, 0, 64, 43
1, 624419, Control_c, 0, 64, 40
1, 624433, Control_c, 0, 64, 34
1, 624448, Control_c, 0, 64, 0
1, 624611, Note_on_c, 0, 65, 41
1, 624790, Control_c, 0, 64, 38
1, 624812, Control_c, 0, 64, 49
1, 624827, Control_c, 0, 64, 59
1, 624842, Control_c, 0, 64, 64
1, 624856, Note_off_c, 0, 89, 62
1, 624856, Control_c, 0, 64, 67
1, 624871, Control_c, 0, 64, 70
1, 624886, Control_c, 0, 64, 73
1, 624901, Control_c, 0, 64, 77
1, 624916, Control_c, 0, 64, 82
1, 624930, Control_c, 0, 64, 88
1, 624945, Control_c, 0, 64, 96
1, 624960, Control_c, 0, 64, 105
1, 624975, Control_c, 0, 64, 127
1, 625118, Note_off_c, 0, 77, 42
1, 625443, Note_on_c, 0, 53, 45
1, 625575, Note_off_c, 0, 65, 61
1, 625626, Note_off_c, 0, 53, 34
1, 626282, Note_on_c, 0, 52, 51
1, 626459, Note_off_c, 0, 52, 36
1, 626665, Note_on_c, 0, 76, 58
1, 627008, Note_off_c, 0, 76, 55
1, 627054, Note_on_c, 0, 65, 73
1, 627059, Control_c, 0, 67, 122
1, 627074, Control_c, 0, 67, 117
1, 627089, Control_c, 0, 67, 113
1, 627104, Control_c, 0, 67, 109
1, 627119, Control_c, 0, 67, 104
1, 627133, Control_c, 0, 67, 100
1, 627148, Control_c, 0, 67, 96
1, 627163, Control_c, 0, 67, 93
1, 627178, Control_c, 0, 67, 88
1, 627193, Control_c, 0, 67, 83
1, 627208, Control_c, 0, 67, 78
1, 627223, Control_c, 0, 67, 72
1, 627237, Control_c, 0, 67, 67
1, 627252, Control_c, 0, 67, 62
1, 627267, Control_c, 0, 67, 58
1, 627282, Control_c, 0, 67, 54
1, 627288, Note_off_c, 0, 65, 58
1, 627297, Control_c, 0, 67, 50
1, 627312, Control_c, 0, 67, 47
1, 627326, Control_c, 0, 67, 43
1, 627341, Control_c, 0, 67, 40
1, 627356, Control_c, 0, 67, 38
1, 627371, Control_c, 0, 67, 37
1, 627386, Control_c, 0, 67, 36
1, 627400, Control_c, 0, 67, 35
1, 627415, Control_c, 0, 67, 35
1, 627445, Note_on_c, 0, 65, 78
1, 627473, Note_on_c, 0, 61, 49
1, 627527, Note_off_c, 0, 65, 52
1, 627534, Note_off_c, 0, 61, 37
1, 627637, Note_on_c, 0, 65, 85
1, 627661, Note_on_c, 0, 58, 56
1, 627685, Note_off_c, 0, 58, 60
1, 627727, Control_c, 0, 67, 35
1, 627756, Control_c, 0, 67, 36
1, 627771, Control_c, 0, 67, 36
1, 627786, Control_c, 0, 67, 37
1, 627824, Control_c, 0, 67, 37
1, 627971, Note_off_c, 0, 65, 58
1, 627971, Control_c, 0, 64, 112
1, 627986, Control_c, 0, 64, 105
1, 627993, Note_on_c, 0, 52, 82
1, 628001, Control_c, 0, 64, 99
1, 628014, Note_on_c, 0, 34, 56
1, 628014, Note_on_c, 0, 41, 57
1, 628015, Control_c, 0, 64, 96
1, 628030, Control_c, 0, 64, 92
1, 628045, Control_c, 0, 64, 85
1, 628060, Control_c, 0, 64, 69
1, 628074, Control_c, 0, 64, 40
1, 628089, Control_c, 0, 64, 0
1, 628119, Control_c, 0, 67, 37
1, 628192, Control_c, 0, 67, 36
1, 628326, Control_c, 0, 67, 37
1, 628385, Control_c, 0, 64, 30
1, 628400, Control_c, 0, 64, 47
1, 628415, Control_c, 0, 64, 58
1, 628430, Control_c, 0, 64, 62
1, 628445, Control_c, 0, 64, 64
1, 628460, Control_c, 0, 64, 67
1, 628475, Control_c, 0, 64, 70
1, 628475, Control_c, 0, 67, 36
1, 628490, Control_c, 0, 64, 75
1, 628504, Control_c, 0, 64, 81
1, 628504, Control_c, 0, 67, 36
1, 628519, Control_c, 0, 64, 86
1, 628534, Control_c, 0, 64, 90
1, 628557, Control_c, 0, 64, 101
1, 628572, Control_c, 0, 64, 127
1, 628597, Note_off_c, 0, 34, 58
1, 628609, Note_off_c, 0, 41, 59
1, 628645, Control_c, 0, 67, 35
1, 628675, Control_c, 0, 67, 35
1, 628719, Control_c, 0, 67, 34
1, 628762, Note_off_c, 0, 52, 34
1, 628765, Control_c, 0, 67, 34
1, 628987, Control_c, 0, 67, 33
1, 629115, Note_on_c, 0, 58, 56
1, 629177, Note_on_c, 0, 64, 60
1, 629179, Control_c, 0, 67, 33
1, 629194, Control_c, 0, 67, 32
1, 629209, Control_c, 0, 67, 32
1, 629238, Control_c, 0, 67, 22
1, 629244, Note_on_c, 0, 67, 64
1, 629253, Control_c, 0, 67, 0
1, 629278, Note_off_c, 0, 64, 61
1, 629285, Note_on_c, 0, 72, 69
1, 629346, Note_on_c, 0, 77, 78
1, 629378, Note_off_c, 0, 58, 60
1, 629389, Note_on_c, 0, 81, 80
1, 629446, Note_on_c, 0, 85, 87
1, 629459, Note_off_c, 0, 67, 29
1, 629461, Note_off_c, 0, 81, 65
1, 629502, Note_off_c, 0, 72, 48
1, 629508, Note_off_c, 0, 85, 69
1, 629512, Note_on_c, 0, 89, 103
1, 629527, Note_on_c, 0, 65, 67
1, 629542, Note_off_c, 0, 77, 34
1, 629556, Note_off_c, 0, 65, 66
1, 629799, Note_off_c, 0, 89, 33
1, 630351, Control_c, 0, 67, 19
1, 630395, Control_c, 0, 67, 21
1, 630469, Control_c, 0, 67, 23
1, 630514, Control_c, 0, 67, 26
1, 630662, Control_c, 0, 67, 28
1, 630737, Control_c, 0, 67, 30
1, 630751, Control_c, 0, 67, 34
1, 630766, Control_c, 0, 67, 39
1, 630781, Control_c, 0, 67, 43
1, 630803, Control_c, 0, 67, 46
1, 630818, Control_c, 0, 67, 48
1, 630832, Control_c, 0, 67, 49
1, 630847, Control_c, 0, 67, 50
1, 630862, Control_c, 0, 67, 52
1, 630878, Control_c, 0, 67, 54
1, 630892, Control_c, 0, 67, 56
1, 630907, Control_c, 0, 67, 58
1, 630922, Control_c, 0, 67, 60
1, 630937, Control_c, 0, 67, 60
1, 631165, Note_on_c, 0, 88, 63
1, 631194, Note_on_c, 0, 61, 33
1, 631292, Control_c, 0, 67, 60
1, 631336, Control_c, 0, 67, 59
1, 631357, Note_on_c, 0, 85, 74
1, 631375, Note_on_c, 0, 58, 47
1, 631411, Control_c, 0, 67, 59
1, 631441, Control_c, 0, 67, 58
1, 631566, Control_c, 0, 67, 58
1, 631592, Note_on_c, 0, 82, 76
1, 631593, Note_on_c, 0, 53, 47
1, 631667, Note_off_c, 0, 88, 36
1, 631671, Control_c, 0, 67, 57
1, 631688, Note_off_c, 0, 58, 36
1, 631721, Note_off_c, 0, 61, 40
1, 631721, Note_off_c, 0, 85, 63
1, 631956, Note_on_c, 0, 85, 68
1, 631971, Note_on_c, 0, 58, 46
1, 632049, Note_off_c, 0, 53, 34
1, 632136, Note_off_c, 0, 82, 49
1, 632204, Control_c, 0, 67, 58
1, 632297, Note_off_c, 0, 85, 57
1, 632317, Note_off_c, 0, 58, 37
1, 632329, Note_on_c, 0, 84, 62
1, 632333, Note_on_c, 0, 60, 44
1, 632692, Note_off_c, 0, 60, 37
1, 632729, Note_on_c, 0, 77, 51
1, 632735, Note_on_c, 0, 61, 40
1, 632824, Note_off_c, 0, 84, 57
1, 633118, Note_on_c, 0, 84, 58
1, 633138, Note_on_c, 0, 65, 46
1, 633159, Note_off_c, 0, 61, 39
1, 633299, Note_off_c, 0, 65, 52
1, 633554, Note_on_c, 0, 82, 58
1, 633566, Note_on_c, 0, 70, 46
1, 633566, Note_off_c, 0, 77, 42
1, 633637, Note_off_c, 0, 84, 48
1, 633817, Note_off_c, 0, 70, 22
1, 634111, Note_on_c, 0, 89, 57
1, 634129, Note_on_c, 0, 77, 36
1, 634139, Note_off_c, 0, 82, 30
1, 634244, Note_off_c, 0, 89, 50
1, 634525, Note_off_c, 0, 77, 53
1, 634815, Control_c, 0, 67, 58
1, 635082, Control_c, 0, 64, 122
1, 635097, Control_c, 0, 64, 111
1, 635112, Control_c, 0, 64, 104
1, 635127, Control_c, 0, 64, 99
1, 635141, Control_c, 0, 64, 95
1, 635156, Control_c, 0, 64, 91
1, 635171, Control_c, 0, 64, 86
1, 635185, Control_c, 0, 64, 81
1, 635200, Control_c, 0, 64, 76
1, 635204, Note_on_c, 0, 65, 54
1, 635215, Control_c, 0, 64, 71
1, 635230, Control_c, 0, 64, 66
1, 635245, Control_c, 0, 64, 61
1, 635259, Control_c, 0, 64, 55
1, 635274, Control_c, 0, 64, 45
1, 635297, Control_c, 0, 64, 0
1, 635489, Control_c, 0, 64, 51
1, 635504, Control_c, 0, 64, 63
1, 635504, Control_c, 0, 67, 59
1, 635518, Control_c, 0, 64, 68
1, 635533, Control_c, 0, 64, 73
1, 635533, Control_c, 0, 67, 59
1, 635548, Control_c, 0, 64, 78
1, 635563, Control_c, 0, 64, 85
1, 635578, Control_c, 0, 64, 91
1, 635593, Control_c, 0, 64, 99
1, 635608, Control_c, 0, 64, 107
1, 635623, Control_c, 0, 64, 116
1, 635638, Control_c, 0, 64, 127
1, 635638, Control_c, 0, 67, 60
1, 635651, Note_off_c, 0, 65, 38
1, 635653, Control_c, 0, 67, 60
1, 635668, Control_c, 0, 67, 61
1, 635682, Control_c, 0, 67, 62
1, 635712, Control_c, 0, 67, 62
1, 635742, Control_c, 0, 67, 63
1, 635776, Note_on_c, 0, 65, 51
1, 635787, Control_c, 0, 67, 64
1, 635802, Control_c, 0, 67, 66
1, 635816, Control_c, 0, 67, 73
1, 635831, Control_c, 0, 67, 77
1, 635846, Control_c, 0, 67, 79
1, 635861, Control_c, 0, 67, 80
1, 635876, Control_c, 0, 67, 81
1, 635890, Control_c, 0, 67, 81
1, 635905, Control_c, 0, 67, 82
1, 635934, Control_c, 0, 67, 82
1, 635950, Note_off_c, 0, 65, 60
1, 635994, Control_c, 0, 67, 83
1, 636008, Control_c, 0, 67, 83
1, 636046, Control_c, 0, 67, 84
1, 636061, Control_c, 0, 67, 90
1, 636076, Control_c, 0, 67, 98
1, 636090, Control_c, 0, 67, 106
1, 636105, Control_c, 0, 67, 113
1, 636120, Control_c, 0, 67, 119
1, 636135, Control_c, 0, 67, 126
1, 636445, Control_c, 0, 64, 115
1, 636461, Control_c, 0, 64, 110
1, 636476, Control_c, 0, 64, 106
1, 636491, Control_c, 0, 64, 104
1, 636505, Control_c, 0, 64, 102
1, 636520, Control_c, 0, 64, 99
1, 636535, Control_c, 0, 64, 96
1, 636550, Control_c, 0, 64, 93
1, 636565, Control_c, 0, 64, 90
1, 636575, Note_on_c, 0, 52, 48
1, 636580, Control_c, 0, 64, 88
1, 636594, Control_c, 0, 64, 86
1, 636602, Note_on_c, 0, 41, 31
1, 636609, Control_c, 0, 64, 83
1, 636610, Note_on_c, 0, 34, 32
1, 636624, Control_c, 0, 64, 79
1, 636639, Control_c, 0, 64, 74
1, 636654, Control_c, 0, 64, 69
1, 636669, Control_c, 0, 64, 61
1, 636684, Control_c, 0, 64, 52
1, 636699, Control_c, 0, 64, 35
1, 636713, Control_c, 0, 64, 0
1, 636943, Control_c, 0, 64, 30
1, 636958, Control_c, 0, 64, 47
1, 636972, Control_c, 0, 64, 59
1, 636987, Control_c, 0, 64, 63
1, 637001, Control_c, 0, 64, 64
1, 637016, Control_c, 0, 64, 66
1, 637031, Control_c, 0, 64, 68
1, 637045, Control_c, 0, 64, 71
1, 637060, Control_c, 0, 64, 77
1, 637075, Control_c, 0, 64, 83
1, 637089, Control_c, 0, 64, 89
1, 637104, Control_c, 0, 64, 95
1, 637119, Control_c, 0, 64, 103
1, 637130, Note_off_c, 0, 41, 36
1, 637134, Control_c, 0, 64, 118
1, 637149, Control_c, 0, 64, 127
1, 637174, Note_off_c, 0, 34, 40
1, 637389, Note_off_c, 0, 52, 34
1, 637896, Note_on_c, 0, 58, 39
1, 637981, Note_on_c, 0, 64, 42
1, 638058, Note_on_c, 0, 67, 49
1, 638064, Note_off_c, 0, 64, 57
1, 638106, Note_off_c, 0, 67, 62
1, 638115, Note_on_c, 0, 72, 59
1, 638119, Note_off_c, 0, 58, 56
1, 638150, Note_off_c, 0, 72, 64
1, 638168, Note_on_c, 0, 77, 52
1, 638222, Note_on_c, 0, 81, 56
1, 638292, Note_on_c, 0, 85, 59
1, 638311, Note_off_c, 0, 81, 51
1, 638320, Note_off_c, 0, 77, 34
1, 638401, Note_on_c, 0, 89, 72
1, 638416, Note_off_c, 0, 85, 62
1, 638425, Note_on_c, 0, 77, 44
1, 638464, Note_off_c, 0, 77, 53
1, 638505, Note_off_c, 0, 89, 62
1, 639933, Note_on_c, 0, 88, 46
1, 639949, Note_on_c, 0, 73, 36
1, 640136, Note_on_c, 0, 85, 60
1, 640160, Note_on_c, 0, 70, 39
1, 640285, Note_off_c, 0, 88, 38
1, 640364, Note_on_c, 0, 82, 62
1, 640371, Note_on_c, 0, 65, 44
1, 640392, Note_off_c, 0, 73, 30
1, 640419, Note_off_c, 0, 70, 34
1, 640455, Note_off_c, 0, 85, 62
1, 640752, Note_on_c, 0, 85, 55
1, 640759, Note_on_c, 0, 70, 42
1, 640858, Note_off_c, 0, 82, 47
1, 640960, Note_off_c, 0, 65, 36
1, 641082, Note_off_c, 0, 85, 53
1, 641142, Note_on_c, 0, 84, 55
1, 641160, Note_on_c, 0, 72, 41
1, 641167, Note_off_c, 0, 70, 32
1, 641573, Note_on_c, 0, 77, 47
1, 641587, Note_off_c, 0, 72, 34
1, 641602, Note_on_c, 0, 73, 27
1, 641632, Note_off_c, 0, 84, 57
1, 641877, Note_off_c, 0, 73, 40
1, 641981, Note_on_c, 0, 84, 52
1, 641994, Note_on_c, 0, 72, 36
1, 642162, Note_off_c, 0, 77, 28
1, 642270, Note_off_c, 0, 72, 33
1, 642467, Note_on_c, 0, 82, 49
1, 642485, Note_on_c, 0, 70, 35
1, 642546, Note_off_c, 0, 84, 37
1, 642760, Note_off_c, 0, 70, 28
1, 643139, Note_on_c, 0, 89, 44
1, 643162, Note_on_c, 0, 77, 33
1, 643175, Note_off_c, 0, 82, 28
1, 643365, Note_off_c, 0, 77, 32
1, 643468, Note_off_c, 0, 89, 28
1, 644801, Control_c, 0, 67, 120
1, 644816, Control_c, 0, 67, 110
1, 644831, Control_c, 0, 67, 101
1, 644846, Control_c, 0, 67, 94
1, 644861, Control_c, 0, 67, 91
1, 644890, Control_c, 0, 67, 92
1, 644905, Control_c, 0, 67, 95
1, 644920, Control_c, 0, 67, 99
1, 644935, Control_c, 0, 67, 103
1, 644950, Control_c, 0, 67, 108
1, 644964, Control_c, 0, 67, 120
1, 644979, Control_c, 0, 67, 127
1, 645030, Control_c, 0, 64, 104
1, 645045, Control_c, 0, 64, 92
1, 645060, Control_c, 0, 64, 84
1, 645075, Control_c, 0, 64, 75
1, 645090, Control_c, 0, 64, 66
1, 645105, Control_c, 0, 64, 57
1, 645120, Control_c, 0, 64, 47
1, 645135, Control_c, 0, 64, 39
1, 645150, Control_c, 0, 64, 31
1, 645165, Control_c, 0, 64, 0
1, 645233, Note_on_c, 0, 34, 28
1, 645323, Note_on_c, 0, 35, 25
1, 645343, Control_c, 0, 64, 33
1, 645358, Control_c, 0, 64, 40
1, 645373, Control_c, 0, 64, 49
1, 645388, Note_off_c, 0, 35, 57
1, 645388, Control_c, 0, 64, 56
1, 645402, Control_c, 0, 64, 59
1, 645415, Note_on_c, 0, 36, 34
1, 645446, Control_c, 0, 64, 59
1, 645461, Control_c, 0, 64, 59
1, 645480, Note_off_c, 0, 34, 39
1, 645490, Note_on_c, 0, 39, 35
1, 645535, Control_c, 0, 64, 59
1, 645537, Note_off_c, 0, 36, 52
1, 645565, Control_c, 0, 64, 58
1, 645579, Note_on_c, 0, 41, 35
1, 645580, Note_off_c, 0, 39, 62
1, 645613, Note_off_c, 0, 41, 44
1, 645624, Control_c, 0, 64, 57
1, 645639, Control_c, 0, 64, 56
1, 645642, Note_on_c, 0, 44, 51
1, 645683, Control_c, 0, 64, 57
1, 645698, Control_c, 0, 64, 58
1, 645731, Note_off_c, 0, 44, 62
1, 645737, Note_on_c, 0, 45, 45
1, 645779, Control_c, 0, 64, 59
1, 645799, Note_off_c, 0, 45, 63
1, 645804, Note_on_c, 0, 46, 45
1, 645824, Control_c, 0, 64, 58
1, 645834, Note_off_c, 0, 46, 62
1, 645839, Control_c, 0, 64, 58
1, 645853, Control_c, 0, 64, 57
1, 645868, Control_c, 0, 64, 56
1, 645883, Control_c, 0, 64, 53
1, 645896, Note_on_c, 0, 49, 56
1, 645898, Control_c, 0, 64, 47
1, 645913, Control_c, 0, 64, 38
1, 645928, Control_c, 0, 64, 0
1, 645969, Note_on_c, 0, 51, 53
1, 645987, Note_off_c, 0, 49, 34
1, 646057, Note_off_c, 0, 51, 55
1, 646060, Note_on_c, 0, 48, 36
1, 646110, Note_on_c, 0, 52, 46
1, 646138, Note_off_c, 0, 48, 40
1, 646156, Note_off_c, 0, 52, 64
1, 646187, Note_on_c, 0, 51, 55
1, 646273, Note_off_c, 0, 51, 60
1, 646274, Note_on_c, 0, 53, 46
1, 646330, Note_off_c, 0, 53, 59
1, 646345, Note_on_c, 0, 50, 48
1, 646404, Note_off_c, 0, 50, 53
1, 646425, Note_on_c, 0, 54, 44
1, 646466, Note_off_c, 0, 54, 63
1, 646500, Note_on_c, 0, 34, 37
1, 646558, Control_c, 0, 64, 38
1, 646571, Note_on_c, 0, 35, 42
1, 646573, Control_c, 0, 64, 47
1, 646588, Control_c, 0, 64, 53
1, 646602, Control_c, 0, 64, 54
1, 646617, Control_c, 0, 64, 53
1, 646632, Control_c, 0, 64, 49
1, 646647, Control_c, 0, 64, 45
1, 646662, Control_c, 0, 64, 42
1, 646672, Note_off_c, 0, 35, 60
1, 646676, Control_c, 0, 64, 43
1, 646679, Note_on_c, 0, 36, 43
1, 646691, Control_c, 0, 64, 49
1, 646706, Control_c, 0, 64, 54
1, 646721, Control_c, 0, 64, 58
1, 646736, Control_c, 0, 64, 59
1, 646751, Note_on_c, 0, 39, 37
1, 646765, Control_c, 0, 64, 59
1, 646780, Control_c, 0, 64, 57
1, 646785, Note_off_c, 0, 36, 60
1, 646795, Control_c, 0, 64, 56
1, 646807, Note_off_c, 0, 34, 47
1, 646810, Control_c, 0, 64, 54
1, 646825, Control_c, 0, 64, 54
1, 646825, Note_off_c, 0, 39, 61
1, 646840, Note_on_c, 0, 41, 53
1, 646840, Control_c, 0, 64, 55
1, 646855, Control_c, 0, 64, 56
1, 646870, Control_c, 0, 64, 54
1, 646885, Control_c, 0, 64, 49
1, 646894, Note_off_c, 0, 41, 55
1, 646899, Control_c, 0, 64, 40
1, 646913, Note_on_c, 0, 44, 55
1, 646914, Control_c, 0, 64, 0
1, 646973, Note_off_c, 0, 44, 58
1, 646997, Note_on_c, 0, 45, 56
1, 647004, Control_c, 0, 64, 33
1, 647018, Control_c, 0, 64, 43
1, 647033, Control_c, 0, 64, 48
1, 647048, Control_c, 0, 64, 47
1, 647055, Note_off_c, 0, 45, 61
1, 647063, Control_c, 0, 64, 46
1, 647064, Note_on_c, 0, 46, 57
1, 647092, Control_c, 0, 64, 46
1, 647096, Note_off_c, 0, 46, 65
1, 647107, Control_c, 0, 64, 45
1, 647122, Control_c, 0, 64, 33
1, 647137, Control_c, 0, 64, 0
1, 647141, Note_on_c, 0, 49, 61
1, 647222, Note_on_c, 0, 51, 55
1, 647227, Note_off_c, 0, 49, 56
1, 647272, Note_off_c, 0, 51, 59
1, 647281, Note_on_c, 0, 48, 51
1, 647339, Note_off_c, 0, 48, 49
1, 647355, Note_on_c, 0, 52, 57
1, 647395, Note_off_c, 0, 52, 65
1, 647445, Note_on_c, 0, 51, 56
1, 647501, Note_off_c, 0, 51, 58
1, 647520, Note_on_c, 0, 53, 44
1, 647574, Note_off_c, 0, 53, 56
1, 647592, Note_on_c, 0, 50, 47
1, 647648, Note_off_c, 0, 50, 55
1, 647658, Note_on_c, 0, 54, 55
1, 647707, Note_off_c, 0, 54, 62
1, 647767, Note_on_c, 0, 34, 40
1, 647812, Control_c, 0, 64, 38
1, 647827, Control_c, 0, 64, 52
1, 647836, Note_on_c, 0, 35, 54
1, 647841, Control_c, 0, 64, 58
1, 647856, Control_c, 0, 64, 60
1, 647871, Control_c, 0, 64, 61
1, 647886, Control_c, 0, 64, 60
1, 647913, Note_off_c, 0, 35, 61
1, 647930, Note_on_c, 0, 36, 49
1, 647930, Control_c, 0, 64, 60
1, 647945, Control_c, 0, 64, 58
1, 647959, Control_c, 0, 64, 55
1, 647974, Control_c, 0, 64, 53
1, 647989, Control_c, 0, 64, 54
1, 648002, Note_on_c, 0, 39, 55
1, 648004, Control_c, 0, 64, 57
1, 648026, Control_c, 0, 64, 61
1, 648038, Note_off_c, 0, 36, 58
1, 648041, Control_c, 0, 64, 62
1, 648068, Note_off_c, 0, 34, 55
1, 648071, Control_c, 0, 64, 61
1, 648082, Note_off_c, 0, 39, 62
1, 648086, Control_c, 0, 64, 60
1, 648098, Note_on_c, 0, 41, 50
1, 648101, Control_c, 0, 64, 57
1, 648115, Control_c, 0, 64, 52
1, 648130, Control_c, 0, 64, 48
1, 648145, Control_c, 0, 64, 49
1, 648149, Note_off_c, 0, 41, 54
1, 648160, Control_c, 0, 64, 52
1, 648166, Note_on_c, 0, 44, 59
1, 648174, Control_c, 0, 64, 54
1, 648189, Control_c, 0, 64, 53
1, 648204, Control_c, 0, 64, 51
1, 648218, Note_off_c, 0, 44, 60
1, 648219, Control_c, 0, 64, 50
1, 648232, Note_on_c, 0, 45, 53
1, 648234, Control_c, 0, 64, 51
1, 648248, Control_c, 0, 64, 53
1, 648263, Control_c, 0, 64, 55
1, 648278, Control_c, 0, 64, 56
1, 648293, Control_c, 0, 64, 58
1, 648295, Note_on_c, 0, 46, 67
1, 648300, Note_off_c, 0, 45, 64
1, 648308, Control_c, 0, 64, 60
1, 648322, Control_c, 0, 64, 63
1, 648330, Note_off_c, 0, 46, 67
1, 648337, Control_c, 0, 64, 65
1, 648352, Control_c, 0, 64, 65
1, 648366, Control_c, 0, 64, 58
1, 648381, Control_c, 0, 64, 33
1, 648384, Note_on_c, 0, 52, 67
1, 648396, Control_c, 0, 64, 0
1, 648481, Note_on_c, 0, 54, 59
1, 648487, Note_off_c, 0, 52, 58
1, 648534, Note_on_c, 0, 51, 62
1, 648539, Note_off_c, 0, 54, 54
1, 648590, Control_c, 0, 64, 31
1, 648590, Note_off_c, 0, 51, 63
1, 648605, Control_c, 0, 64, 38
1, 648612, Note_on_c, 0, 55, 63
1, 648619, Control_c, 0, 64, 39
1, 648634, Control_c, 0, 64, 38
1, 648642, Note_off_c, 0, 55, 66
1, 648649, Control_c, 0, 64, 36
1, 648664, Control_c, 0, 64, 0
1, 648688, Note_on_c, 0, 54, 65
1, 648767, Note_on_c, 0, 56, 70
1, 648767, Note_off_c, 0, 54, 38
1, 648830, Note_off_c, 0, 56, 61
1, 648854, Note_on_c, 0, 53, 55
1, 648926, Note_off_c, 0, 53, 62
1, 648927, Note_on_c, 0, 57, 58
1, 648953, Note_off_c, 0, 57, 64
1, 649003, Note_on_c, 0, 34, 52
1, 649057, Control_c, 0, 64, 53
1, 649066, Note_on_c, 0, 40, 49
1, 649071, Control_c, 0, 64, 64
1, 649086, Control_c, 0, 64, 64
1, 649101, Control_c, 0, 64, 65
1, 649112, Note_off_c, 0, 34, 61
1, 649115, Control_c, 0, 64, 65
1, 649130, Control_c, 0, 64, 66
1, 649145, Control_c, 0, 64, 67
1, 649157, Note_on_c, 0, 43, 51
1, 649160, Control_c, 0, 64, 67
1, 649175, Control_c, 0, 64, 68
1, 649177, Note_off_c, 0, 40, 59
1, 649189, Control_c, 0, 64, 69
1, 649204, Control_c, 0, 64, 71
1, 649216, Note_on_c, 0, 47, 59
1, 649219, Control_c, 0, 64, 72
1, 649225, Note_off_c, 0, 43, 63
1, 649234, Control_c, 0, 64, 73
1, 649250, Control_c, 0, 64, 74
1, 649254, Note_off_c, 0, 47, 66
1, 649265, Control_c, 0, 64, 76
1, 649280, Control_c, 0, 64, 79
1, 649294, Control_c, 0, 64, 82
1, 649309, Control_c, 0, 64, 85
1, 649316, Note_on_c, 0, 48, 67
1, 649324, Control_c, 0, 64, 89
1, 649339, Control_c, 0, 64, 92
1, 649354, Control_c, 0, 64, 95
1, 649368, Control_c, 0, 64, 96
1, 649382, Note_off_c, 0, 48, 62
1, 649394, Note_on_c, 0, 52, 50
1, 649412, Control_c, 0, 64, 94
1, 649427, Control_c, 0, 64, 88
1, 649442, Control_c, 0, 64, 83
1, 649454, Note_on_c, 0, 55, 69
1, 649457, Control_c, 0, 64, 79
1, 649458, Note_off_c, 0, 52, 59
1, 649472, Control_c, 0, 64, 76
1, 649487, Control_c, 0, 64, 74
1, 649502, Control_c, 0, 64, 73
1, 649523, Note_off_c, 0, 55, 62
1, 649524, Control_c, 0, 64, 72
1, 649527, Note_on_c, 0, 59, 67
1, 649538, Control_c, 0, 64, 69
1, 649553, Control_c, 0, 64, 64
1, 649559, Note_off_c, 0, 59, 67
1, 649568, Control_c, 0, 64, 51
1, 649583, Control_c, 0, 64, 0
1, 649609, Note_on_c, 0, 60, 72
1, 649627, Control_c, 0, 64, 42
1, 649642, Control_c, 0, 64, 62
1, 649657, Control_c, 0, 64, 71
1, 649672, Control_c, 0, 64, 81
1, 649684, Note_on_c, 0, 63, 71
1, 649687, Control_c, 0, 64, 94
1, 649701, Note_off_c, 0, 60, 58
1, 649702, Control_c, 0, 64, 105
1, 649702, Control_c, 0, 67, 125
1, 649716, Control_c, 0, 64, 119
1, 649716, Control_c, 0, 67, 104
1, 649732, Control_c, 0, 64, 127
1, 649732, Control_c, 0, 67, 83
1, 649736, Note_off_c, 0, 63, 63
1, 649744, Note_on_c, 0, 64, 64
1, 649746, Control_c, 0, 67, 62
1, 649761, Control_c, 0, 67, 48
1, 649776, Control_c, 0, 67, 35
1, 649791, Control_c, 0, 67, 22
1, 649794, Note_off_c, 0, 64, 64
1, 649806, Control_c, 0, 67, 0
1, 649814, Note_on_c, 0, 71, 76
1, 649836, Note_off_c, 0, 71, 70
1, 649892, Note_on_c, 0, 72, 82
1, 649925, Control_c, 0, 64, 68
1, 649939, Control_c, 0, 64, 0
1, 649962, Note_off_c, 0, 72, 65
1, 649965, Note_on_c, 0, 73, 79
1, 649984, Control_c, 0, 67, 22
1, 649999, Control_c, 0, 67, 24
1, 650028, Control_c, 0, 67, 26
1, 650035, Note_on_c, 0, 75, 73
1, 650047, Note_off_c, 0, 73, 62
1, 650059, Control_c, 0, 67, 28
1, 650085, Note_off_c, 0, 75, 64
1, 650095, Note_on_c, 0, 76, 80
1, 650180, Note_on_c, 0, 80, 88
1, 650183, Note_off_c, 0, 76, 63
1, 650184, Note_on_c, 0, 68, 102
1, 650185, Note_on_c, 0, 73, 78
1, 650207, Control_c, 0, 64, 63
1, 650211, Note_off_c, 0, 68, 69
1, 650217, Note_off_c, 0, 73, 68
1, 650222, Control_c, 0, 64, 127
1, 650237, Note_off_c, 0, 80, 67
1, 650251, Control_c, 0, 67, 31
1, 650274, Note_on_c, 0, 76, 81
1, 650274, Control_c, 0, 67, 38
1, 650289, Control_c, 0, 67, 52
1, 650304, Control_c, 0, 64, 114
1, 650304, Control_c, 0, 67, 67
1, 650318, Control_c, 0, 64, 92
1, 650318, Control_c, 0, 67, 82
1, 650333, Control_c, 0, 64, 79
1, 650333, Control_c, 0, 67, 94
1, 650348, Note_on_c, 0, 73, 75
1, 650348, Control_c, 0, 64, 74
1, 650348, Control_c, 0, 67, 110
1, 650361, Note_off_c, 0, 76, 63
1, 650362, Control_c, 0, 64, 72
1, 650362, Control_c, 0, 67, 125
1, 650377, Control_c, 0, 64, 70
1, 650377, Control_c, 0, 67, 127
1, 650392, Control_c, 0, 64, 68
1, 650400, Note_off_c, 0, 73, 63
1, 650407, Control_c, 0, 64, 66
1, 650422, Control_c, 0, 64, 62
1, 650429, Note_on_c, 0, 68, 67
1, 650437, Control_c, 0, 64, 59
1, 650451, Control_c, 0, 64, 54
1, 650455, Note_off_c, 0, 68, 66
1, 650466, Control_c, 0, 64, 45
1, 650480, Control_c, 0, 64, 0
1, 650521, Note_on_c, 0, 64, 83
1, 650522, Note_on_c, 0, 76, 74
1, 650526, Note_on_c, 0, 69, 69
1, 650542, Note_off_c, 0, 64, 69
1, 650554, Control_c, 0, 64, 42
1, 650569, Control_c, 0, 64, 56
1, 650575, Note_off_c, 0, 69, 58
1, 650584, Control_c, 0, 64, 61
1, 650587, Note_off_c, 0, 76, 64
1, 650595, Note_on_c, 0, 72, 71
1, 650599, Control_c, 0, 64, 61
1, 650629, Control_c, 0, 64, 60
1, 650643, Control_c, 0, 64, 59
1, 650658, Control_c, 0, 64, 59
1, 650673, Note_on_c, 0, 69, 63
1, 650687, Control_c, 0, 64, 58
1, 650702, Control_c, 0, 64, 58
1, 650717, Control_c, 0, 64, 57
1, 650724, Note_off_c, 0, 69, 61
1, 650732, Control_c, 0, 64, 55
1, 650747, Control_c, 0, 64, 53
1, 650754, Note_on_c, 0, 64, 64
1, 650760, Note_off_c, 0, 72, 63
1, 650761, Control_c, 0, 64, 51
1, 650776, Control_c, 0, 64, 48
1, 650791, Control_c, 0, 64, 43
1, 650806, Control_c, 0, 64, 33
1, 650818, Note_off_c, 0, 64, 62
1, 650821, Control_c, 0, 64, 0
1, 650831, Note_on_c, 0, 61, 75
1, 650837, Note_on_c, 0, 73, 74
1, 650852, Note_on_c, 0, 66, 64
1, 650852, Control_c, 0, 64, 33
1, 650865, Note_off_c, 0, 61, 64
1, 650866, Control_c, 0, 64, 47
1, 650881, Control_c, 0, 64, 55
1, 650885, Note_off_c, 0, 66, 62
1, 650896, Control_c, 0, 64, 58
1, 650911, Control_c, 0, 64, 59
1, 650912, Note_off_c, 0, 73, 62
1, 650920, Note_on_c, 0, 70, 67
1, 650926, Control_c, 0, 64, 61
1, 650940, Control_c, 0, 64, 62
1, 650989, Note_on_c, 0, 66, 59
1, 651027, Note_off_c, 0, 66, 66
1, 651037, Control_c, 0, 64, 61
1, 651052, Control_c, 0, 64, 61
1, 651066, Control_c, 0, 64, 59
1, 651070, Note_off_c, 0, 70, 63
1, 651073, Note_on_c, 0, 60, 59
1, 651081, Control_c, 0, 64, 57
1, 651096, Control_c, 0, 64, 53
1, 651111, Control_c, 0, 64, 46
1, 651125, Control_c, 0, 64, 33
1, 651127, Note_off_c, 0, 60, 62
1, 651140, Control_c, 0, 64, 0
1, 651163, Note_on_c, 0, 68, 65
1, 651169, Note_on_c, 0, 56, 75
1, 651171, Note_on_c, 0, 61, 58
1, 651185, Control_c, 0, 64, 41
1, 651194, Note_off_c, 0, 56, 66
1, 651199, Control_c, 0, 64, 55
1, 651206, Note_off_c, 0, 61, 60
1, 651214, Control_c, 0, 64, 61
1, 651228, Control_c, 0, 64, 65
1, 651243, Note_off_c, 0, 68, 64
1, 651243, Control_c, 0, 64, 66
1, 651249, Note_on_c, 0, 64, 57
1, 651302, Control_c, 0, 64, 65
1, 651314, Note_on_c, 0, 61, 64
1, 651327, Note_off_c, 0, 64, 62
1, 651332, Control_c, 0, 64, 65
1, 651347, Control_c, 0, 64, 64
1, 651362, Control_c, 0, 64, 63
1, 651369, Note_off_c, 0, 61, 60
1, 651377, Control_c, 0, 64, 61
1, 651392, Control_c, 0, 64, 58
1, 651395, Note_on_c, 0, 56, 63
1, 651407, Control_c, 0, 64, 54
1, 651422, Control_c, 0, 64, 48
1, 651426, Note_off_c, 0, 56, 63
1, 651436, Control_c, 0, 64, 39
1, 651451, Control_c, 0, 64, 0
1, 651475, Note_on_c, 0, 52, 77
1, 651479, Note_on_c, 0, 64, 67
1, 651489, Note_on_c, 0, 57, 65
1, 651505, Note_off_c, 0, 52, 66
1, 651510, Control_c, 0, 64, 43
1, 651525, Control_c, 0, 64, 57
1, 651527, Note_off_c, 0, 57, 63
1, 651538, Note_off_c, 0, 64, 64
1, 651540, Control_c, 0, 64, 63
1, 651549, Note_on_c, 0, 60, 64
1, 651555, Control_c, 0, 64, 64
1, 651584, Control_c, 0, 64, 63
1, 651599, Control_c, 0, 64, 62
1, 651614, Control_c, 0, 64, 61
1, 651630, Control_c, 0, 64, 59
1, 651630, Note_on_c, 0, 57, 63
1, 651645, Control_c, 0, 64, 58
1, 651660, Control_c, 0, 64, 57
1, 651675, Control_c, 0, 64, 55
1, 651675, Note_off_c, 0, 57, 63
1, 651689, Control_c, 0, 64, 51
1, 651699, Note_on_c, 0, 52, 60
1, 651704, Control_c, 0, 64, 45
1, 651719, Control_c, 0, 64, 34
1, 651723, Note_off_c, 0, 60, 65
1, 651733, Control_c, 0, 64, 0
1, 651776, Note_off_c, 0, 52, 62
1, 651797, Note_on_c, 0, 61, 72
1, 651799, Note_on_c, 0, 49, 78
1, 651813, Note_on_c, 0, 54, 66
1, 651830, Control_c, 0, 64, 31
1, 651841, Note_off_c, 0, 49, 64
1, 651845, Control_c, 0, 64, 50
1, 651855, Note_off_c, 0, 54, 62
1, 651860, Control_c, 0, 64, 59
1, 651873, Note_off_c, 0, 61, 60
1, 651875, Control_c, 0, 64, 61
1, 651887, Note_on_c, 0, 58, 62
1, 651919, Control_c, 0, 64, 61
1, 651933, Control_c, 0, 64, 60
1, 651948, Control_c, 0, 64, 60
1, 651951, Note_on_c, 0, 54, 61
1, 651979, Control_c, 0, 64, 59
1, 651991, Note_off_c, 0, 54, 61
1, 651994, Control_c, 0, 64, 59
1, 652009, Control_c, 0, 64, 57
1, 652023, Control_c, 0, 64, 53
1, 652028, Note_on_c, 0, 48, 60
1, 652038, Control_c, 0, 64, 49
1, 652053, Control_c, 0, 64, 43
1, 652068, Control_c, 0, 64, 0
1, 652090, Note_off_c, 0, 48, 55
1, 652118, Note_on_c, 0, 46, 74
1, 652122, Note_off_c, 0, 58, 64
1, 652131, Note_on_c, 0, 61, 59
1, 652140, Note_on_c, 0, 54, 56
1, 652170, Note_off_c, 0, 46, 64
1, 652171, Control_c, 0, 64, 40
1, 652179, Note_off_c, 0, 54, 65
1, 652186, Control_c, 0, 64, 53
1, 652201, Control_c, 0, 64, 60
1, 652203, Note_off_c, 0, 61, 63
1, 652213, Note_on_c, 0, 58, 63
1, 652215, Control_c, 0, 64, 65
1, 652230, Control_c, 0, 64, 67
1, 652245, Control_c, 0, 64, 68
1, 652260, Control_c, 0, 64, 69
1, 652266, Note_on_c, 0, 54, 56
1, 652275, Control_c, 0, 64, 70
1, 652289, Control_c, 0, 64, 70
1, 652307, Note_off_c, 0, 54, 62
1, 652334, Control_c, 0, 64, 70
1, 652343, Note_on_c, 0, 49, 51
1, 652349, Control_c, 0, 64, 67
1, 652363, Control_c, 0, 64, 61
1, 652378, Control_c, 0, 64, 50
1, 652393, Control_c, 0, 64, 32
1, 652408, Control_c, 0, 64, 0
1, 652429, Note_off_c, 0, 49, 60
1, 652437, Note_on_c, 0, 41, 65
1, 652496, Note_off_c, 0, 58, 63
1, 652498, Control_c, 0, 64, 41
1, 652520, Control_c, 0, 64, 60
1, 652535, Control_c, 0, 64, 66
1, 652550, Control_c, 0, 64, 70
1, 652564, Control_c, 0, 64, 73
1, 652579, Control_c, 0, 64, 75
1, 652579, Control_c, 0, 67, 110
1, 652594, Control_c, 0, 64, 77
1, 652594, Control_c, 0, 67, 87
1, 652609, Control_c, 0, 64, 80
1, 652609, Control_c, 0, 67, 68
1, 652624, Control_c, 0, 64, 82
1, 652624, Control_c, 0, 67, 52
1, 652638, Control_c, 0, 64, 84
1, 652638, Control_c, 0, 67, 40
1, 652653, Control_c, 0, 64, 85
1, 652653, Control_c, 0, 67, 31
1, 652668, Control_c, 0, 64, 84
1, 652668, Control_c, 0, 67, 24
1, 652683, Control_c, 0, 64, 74
1, 652683, Control_c, 0, 67, 0
1, 652692, Note_off_c, 0, 41, 62
1, 652697, Note_on_c, 0, 42, 69
1, 652698, Control_c, 0, 64, 58
1, 652712, Control_c, 0, 64, 0
1, 652752, Note_off_c, 0, 42, 64
1, 652757, Control_c, 0, 64, 52
1, 652771, Control_c, 0, 64, 62
1, 652778, Note_on_c, 0, 43, 58
1, 652786, Control_c, 0, 64, 63
1, 652801, Control_c, 0, 64, 62
1, 652816, Control_c, 0, 64, 62
1, 652830, Control_c, 0, 64, 62
1, 652854, Note_on_c, 0, 73, 64
1, 652860, Control_c, 0, 64, 61
1, 652875, Control_c, 0, 64, 59
1, 652889, Control_c, 0, 64, 55
1, 652894, Note_off_c, 0, 73, 57
1, 652904, Control_c, 0, 64, 53
1, 652919, Control_c, 0, 64, 53
1, 652929, Note_on_c, 0, 75, 61
1, 652949, Control_c, 0, 64, 51
1, 652963, Control_c, 0, 64, 47
1, 652978, Control_c, 0, 64, 40
1, 652981, Note_on_c, 0, 34, 53
1, 652985, Note_off_c, 0, 75, 62
1, 652990, Note_on_c, 0, 76, 63
1, 652993, Control_c, 0, 64, 0
1, 653023, Note_off_c, 0, 43, 60
1, 653053, Note_off_c, 0, 76, 64
1, 653060, Note_on_c, 0, 80, 84
1, 653068, Note_on_c, 0, 44, 70
1, 653078, Note_on_c, 0, 73, 75
1, 653082, Control_c, 0, 64, 30
1, 653097, Control_c, 0, 64, 48
1, 653100, Note_off_c, 0, 73, 70
1, 653112, Control_c, 0, 64, 59
1, 653127, Control_c, 0, 64, 62
1, 653141, Control_c, 0, 64, 63
1, 653154, Note_off_c, 0, 80, 62
1, 653156, Control_c, 0, 64, 65
1, 653161, Note_on_c, 0, 76, 58
1, 653171, Control_c, 0, 64, 67
1, 653186, Control_c, 0, 64, 70
1, 653201, Control_c, 0, 64, 73
1, 653216, Control_c, 0, 64, 75
1, 653219, Note_on_c, 0, 73, 67
1, 653231, Control_c, 0, 64, 75
1, 653264, Note_off_c, 0, 76, 63
1, 653268, Control_c, 0, 64, 76
1, 653294, Note_off_c, 0, 73, 62
1, 653316, Note_on_c, 0, 68, 59
1, 653342, Control_c, 0, 64, 75
1, 653344, Note_off_c, 0, 68, 65
1, 653357, Control_c, 0, 64, 73
1, 653372, Control_c, 0, 64, 67
1, 653386, Control_c, 0, 64, 58
1, 653397, Note_on_c, 0, 76, 78
1, 653401, Control_c, 0, 64, 33
1, 653412, Note_off_c, 0, 44, 62
1, 653413, Note_on_c, 0, 69, 64
1, 653413, Note_on_c, 0, 45, 64
1, 653416, Control_c, 0, 64, 0
1, 653451, Note_off_c, 0, 69, 56
1, 653463, Note_off_c, 0, 76, 62
1, 653469, Note_on_c, 0, 72, 69
1, 653475, Control_c, 0, 64, 30
1, 653490, Control_c, 0, 64, 48
1, 653505, Control_c, 0, 64, 58
1, 653520, Control_c, 0, 64, 62
1, 653535, Control_c, 0, 64, 64
1, 653550, Control_c, 0, 64, 65
1, 653562, Note_on_c, 0, 69, 63
1, 653565, Control_c, 0, 64, 65
1, 653579, Control_c, 0, 64, 66
1, 653594, Control_c, 0, 64, 67
1, 653609, Control_c, 0, 64, 67
1, 653613, Note_off_c, 0, 69, 63
1, 653624, Control_c, 0, 64, 68
1, 653636, Note_on_c, 0, 64, 64
1, 653645, Note_off_c, 0, 72, 63
1, 653683, Control_c, 0, 64, 67
1, 653689, Note_off_c, 0, 64, 61
1, 653698, Control_c, 0, 64, 64
1, 653710, Note_on_c, 0, 73, 79
1, 653712, Note_on_c, 0, 46, 82
1, 653712, Control_c, 0, 64, 55
1, 653723, Note_off_c, 0, 45, 64
1, 653727, Control_c, 0, 64, 34
1, 653742, Note_on_c, 0, 66, 45
1, 653742, Control_c, 0, 64, 0
1, 653770, Note_off_c, 0, 66, 57
1, 653787, Note_off_c, 0, 73, 60
1, 653788, Note_on_c, 0, 70, 71
1, 653801, Control_c, 0, 64, 46
1, 653816, Control_c, 0, 64, 57
1, 653831, Control_c, 0, 64, 63
1, 653846, Control_c, 0, 64, 65
1, 653855, Note_on_c, 0, 66, 61
1, 653860, Control_c, 0, 64, 67
1, 653875, Control_c, 0, 64, 70
1, 653890, Control_c, 0, 64, 73
1, 653891, Note_off_c, 0, 66, 63
1, 653905, Control_c, 0, 64, 76
1, 653915, Note_off_c, 0, 70, 63
1, 653920, Control_c, 0, 64, 77
1, 653937, Note_on_c, 0, 60, 64
1, 653987, Note_off_c, 0, 60, 59
1, 654016, Control_c, 0, 64, 73
1, 654032, Control_c, 0, 64, 66
1, 654039, Note_on_c, 0, 68, 73
1, 654047, Control_c, 0, 64, 52
1, 654048, Note_on_c, 0, 47, 88
1, 654054, Note_off_c, 0, 46, 66
1, 654057, Note_on_c, 0, 61, 55
1, 654062, Control_c, 0, 64, 0
1, 654090, Note_off_c, 0, 61, 63
1, 654129, Note_on_c, 0, 64, 62
1, 654135, Control_c, 0, 64, 35
1, 654141, Note_off_c, 0, 68, 61
1, 654150, Control_c, 0, 64, 52
1, 654165, Control_c, 0, 64, 63
1, 654180, Control_c, 0, 64, 69
1, 654193, Note_on_c, 0, 61, 65
1, 654195, Control_c, 0, 64, 77
1, 654209, Control_c, 0, 64, 88
1, 654215, Note_off_c, 0, 64, 62
1, 654225, Control_c, 0, 64, 99
1, 654240, Control_c, 0, 64, 121
1, 654255, Note_off_c, 0, 61, 61
1, 654255, Control_c, 0, 64, 127
1, 654273, Note_off_c, 0, 47, 63
1, 654291, Note_on_c, 0, 56, 47
1, 654318, Note_off_c, 0, 56, 55
1, 654358, Control_c, 0, 64, 111
1, 654369, Note_on_c, 0, 64, 66
1, 654373, Note_on_c, 0, 48, 91
1, 654373, Control_c, 0, 64, 88
1, 654386, Note_on_c, 0, 57, 65
1, 654388, Control_c, 0, 64, 68
1, 654402, Control_c, 0, 64, 43
1, 654417, Control_c, 0, 64, 0
1, 654435, Note_off_c, 0, 57, 58
1, 654439, Note_off_c, 0, 64, 61
1, 654447, Note_on_c, 0, 60, 70
1, 654492, Control_c, 0, 64, 35
1, 654507, Control_c, 0, 64, 60
1, 654522, Control_c, 0, 64, 66
1, 654529, Note_on_c, 0, 57, 73
1, 654536, Control_c, 0, 64, 71
1, 654551, Control_c, 0, 64, 78
1, 654566, Control_c, 0, 64, 87
1, 654581, Control_c, 0, 64, 101
1, 654587, Note_off_c, 0, 57, 64
1, 654596, Control_c, 0, 64, 122
1, 654600, Note_on_c, 0, 52, 71
1, 654610, Control_c, 0, 64, 127
1, 654613, Note_off_c, 0, 48, 41
1, 654620, Note_off_c, 0, 60, 64
1, 654674, Note_off_c, 0, 52, 57
1, 654699, Control_c, 0, 64, 105
1, 654701, Note_on_c, 0, 61, 72
1, 654707, Note_on_c, 0, 49, 99
1, 654710, Note_on_c, 0, 54, 73
1, 654714, Control_c, 0, 64, 73
1, 654728, Control_c, 0, 64, 50
1, 654743, Control_c, 0, 64, 0
1, 654765, Note_off_c, 0, 54, 55
1, 654796, Note_off_c, 0, 61, 59
1, 654802, Note_on_c, 0, 58, 70
1, 654810, Control_c, 0, 64, 55
1, 654825, Control_c, 0, 64, 67
1, 654840, Note_off_c, 0, 49, 65
1, 654841, Control_c, 0, 64, 79
1, 654856, Control_c, 0, 64, 110
1, 654869, Note_on_c, 0, 54, 71
1, 654870, Control_c, 0, 64, 127
1, 654921, Note_off_c, 0, 54, 59
1, 654936, Note_on_c, 0, 48, 64
1, 654964, Note_off_c, 0, 34, 56
1, 654975, Note_off_c, 0, 58, 49
1, 654990, Note_off_c, 0, 48, 58
1, 655029, Note_on_c, 0, 41, 93
1, 655031, Note_on_c, 0, 61, 71
1, 655033, Control_c, 0, 64, 74
1, 655048, Control_c, 0, 64, 42
1, 655054, Note_on_c, 0, 54, 55
1, 655063, Control_c, 0, 64, 0
1, 655090, Note_off_c, 0, 54, 65
1, 655107, Control_c, 0, 64, 55
1, 655114, Note_on_c, 0, 58, 67
1, 655115, Note_off_c, 0, 61, 61
1, 655122, Control_c, 0, 64, 70
1, 655137, Control_c, 0, 64, 82
1, 655151, Control_c, 0, 64, 107
1, 655166, Control_c, 0, 64, 127
1, 655172, Note_off_c, 0, 58, 64
1, 655179, Note_on_c, 0, 54, 67
1, 655207, Note_off_c, 0, 54, 66
1, 655213, Note_on_c, 0, 49, 68
1, 655241, Note_off_c, 0, 49, 66
1, 655259, Note_on_c, 0, 42, 81
1, 655270, Note_off_c, 0, 41, 59
1, 655311, Note_off_c, 0, 42, 66
1, 655338, Note_on_c, 0, 34, 76
1, 655344, Control_c, 0, 64, 94
1, 655350, Note_on_c, 0, 43, 101
1, 655359, Control_c, 0, 64, 57
1, 655374, Control_c, 0, 64, 0
1, 655374, Note_on_c, 0, 33, 52
1, 655412, Note_off_c, 0, 33, 53
1, 655427, Note_on_c, 0, 82, 86
1, 655448, Control_c, 0, 64, 33
1, 655463, Control_c, 0, 64, 69
1, 655477, Control_c, 0, 64, 95
1, 655483, Note_off_c, 0, 82, 61
1, 655490, Note_on_c, 0, 83, 85
1, 655492, Control_c, 0, 64, 127
1, 655579, Note_on_c, 0, 84, 79
1, 655580, Note_on_c, 0, 86, 80
1, 655589, Note_off_c, 0, 83, 61
1, 655645, Note_off_c, 0, 86, 62
1, 655649, Control_c, 0, 64, 100
1, 655650, Note_off_c, 0, 43, 53
1, 655660, Note_on_c, 0, 42, 85
1, 655660, Note_on_c, 0, 88, 99
1, 655663, Note_on_c, 0, 81, 86
1, 655663, Note_off_c, 0, 84, 63
1, 655663, Control_c, 0, 64, 67
1, 655678, Control_c, 0, 64, 0
1, 655700, Note_off_c, 0, 81, 64
1, 655750, Note_on_c, 0, 84, 91
1, 655768, Control_c, 0, 64, 53
1, 655776, Note_off_c, 0, 88, 64
1, 655782, Control_c, 0, 64, 65
1, 655797, Control_c, 0, 64, 70
1, 655812, Control_c, 0, 64, 77
1, 655821, Note_on_c, 0, 81, 75
1, 655827, Control_c, 0, 64, 85
1, 655836, Note_off_c, 0, 84, 62
1, 655841, Control_c, 0, 64, 97
1, 655856, Control_c, 0, 64, 122
1, 655871, Control_c, 0, 64, 127
1, 655887, Note_off_c, 0, 42, 63
1, 655893, Note_on_c, 0, 43, 74
1, 655896, Note_off_c, 0, 81, 58
1, 655905, Note_on_c, 0, 76, 77
1, 655930, Control_c, 0, 64, 112
1, 655945, Control_c, 0, 64, 81
1, 655947, Note_off_c, 0, 34, 61
1, 655960, Control_c, 0, 64, 62
1, 655964, Note_off_c, 0, 76, 60
1, 655974, Control_c, 0, 64, 41
1, 655983, Note_on_c, 0, 44, 87
1, 655987, Note_on_c, 0, 84, 79
1, 655989, Control_c, 0, 64, 34
1, 655990, Note_off_c, 0, 43, 58
1, 656004, Control_c, 0, 64, 47
1, 656008, Note_on_c, 0, 77, 57
1, 656019, Control_c, 0, 64, 59
1, 656031, Note_off_c, 0, 44, 65
1, 656033, Control_c, 0, 64, 66
1, 656036, Note_off_c, 0, 77, 57
1, 656048, Control_c, 0, 64, 71
1, 656063, Control_c, 0, 64, 78
1, 656072, Note_on_c, 0, 80, 82
1, 656078, Note_off_c, 0, 84, 59
1, 656078, Control_c, 0, 64, 86
1, 656093, Control_c, 0, 64, 92
1, 656107, Control_c, 0, 64, 99
1, 656122, Control_c, 0, 64, 102
1, 656137, Control_c, 0, 64, 105
1, 656146, Note_on_c, 0, 77, 58
1, 656151, Note_off_c, 0, 80, 64
1, 656152, Control_c, 0, 64, 107
1, 656167, Control_c, 0, 64, 109
1, 656175, Note_off_c, 0, 77, 64
1, 656182, Control_c, 0, 64, 111
1, 656212, Note_on_c, 0, 72, 66
1, 656220, Note_on_c, 0, 48, 76
1, 656226, Control_c, 0, 64, 108
1, 656241, Control_c, 0, 64, 97
1, 656263, Control_c, 0, 64, 81
1, 656278, Note_off_c, 0, 48, 61
1, 656278, Control_c, 0, 64, 64
1, 656281, Note_off_c, 0, 72, 59
1, 656293, Control_c, 0, 64, 35
1, 656307, Control_c, 0, 64, 0
1, 656310, Note_on_c, 0, 80, 72
1, 656320, Note_on_c, 0, 47, 57
1, 656320, Note_on_c, 0, 51, 75
1, 656320, Note_on_c, 0, 71, 60
1, 656325, Note_on_c, 0, 44, 56
1, 656352, Note_off_c, 0, 71, 66
1, 656386, Note_off_c, 0, 47, 64
1, 656391, Note_on_c, 0, 75, 71
1, 656406, Note_off_c, 0, 80, 59
1, 656412, Control_c, 0, 64, 60
1, 656427, Control_c, 0, 64, 67
1, 656442, Control_c, 0, 64, 71
1, 656453, Note_off_c, 0, 44, 64
1, 656457, Control_c, 0, 64, 76
1, 656461, Note_off_c, 0, 51, 62
1, 656463, Note_on_c, 0, 71, 69
1, 656472, Control_c, 0, 64, 82
1, 656473, Note_off_c, 0, 75, 63
1, 656486, Control_c, 0, 64, 89
1, 656501, Control_c, 0, 64, 97
1, 656510, Note_off_c, 0, 71, 63
1, 656516, Control_c, 0, 64, 101
1, 656540, Note_on_c, 0, 68, 67
1, 656552, Note_on_c, 0, 53, 86
1, 656558, Note_off_c, 0, 68, 65
1, 656575, Control_c, 0, 64, 91
1, 656590, Control_c, 0, 64, 72
1, 656593, Note_off_c, 0, 53, 66
1, 656605, Control_c, 0, 64, 43
1, 656612, Note_on_c, 0, 77, 76
1, 656613, Note_on_c, 0, 69, 75
1, 656620, Control_c, 0, 64, 0
1, 656623, Note_on_c, 0, 55, 95
1, 656631, Note_on_c, 0, 50, 82
1, 656632, Note_on_c, 0, 47, 71
1, 656665, Note_off_c, 0, 69, 60
1, 656689, Note_on_c, 0, 74, 77
1, 656694, Control_c, 0, 64, 42
1, 656695, Note_off_c, 0, 77, 60
1, 656699, Note_off_c, 0, 50, 55
1, 656709, Control_c, 0, 64, 63
1, 656724, Control_c, 0, 64, 69
1, 656738, Note_off_c, 0, 47, 47
1, 656738, Control_c, 0, 64, 78
1, 656753, Control_c, 0, 64, 90
1, 656763, Note_on_c, 0, 69, 79
1, 656768, Control_c, 0, 64, 114
1, 656769, Note_off_c, 0, 74, 63
1, 656783, Control_c, 0, 64, 127
1, 656796, Note_off_c, 0, 55, 63
1, 656819, Note_off_c, 0, 69, 62
1, 656839, Note_on_c, 0, 57, 90
1, 656840, Note_on_c, 0, 65, 82
1, 656886, Control_c, 0, 64, 99
1, 656896, Note_off_c, 0, 57, 60
1, 656897, Note_off_c, 0, 65, 63
1, 656901, Control_c, 0, 64, 67
1, 656916, Control_c, 0, 64, 0
1, 656921, Note_on_c, 0, 54, 97
1, 656931, Note_on_c, 0, 58, 90
1, 656931, Note_on_c, 0, 72, 76
1, 656935, Note_on_c, 0, 66, 76
1, 656937, Note_on_c, 0, 51, 70
1, 656953, Note_on_c, 0, 71, 53
1, 656953, Note_off_c, 0, 54, 69
1, 656963, Note_off_c, 0, 51, 66
1, 656967, Note_off_c, 0, 66, 62
1, 656972, Note_off_c, 0, 58, 62
1, 656981, Note_off_c, 0, 71, 36
1, 656990, Control_c, 0, 64, 54
1, 657012, Control_c, 0, 64, 71
1, 657016, Note_on_c, 0, 70, 85
1, 657025, Note_off_c, 0, 72, 63
1, 657027, Control_c, 0, 64, 85
1, 657042, Control_c, 0, 64, 127
1, 657070, Note_on_c, 0, 66, 81
1, 657083, Note_off_c, 0, 70, 65
1, 657103, Note_off_c, 0, 66, 63
1, 657116, Control_c, 0, 64, 92
1, 657130, Control_c, 0, 64, 69
1, 657140, Note_on_c, 0, 60, 66
1, 657145, Control_c, 0, 64, 50
1, 657160, Control_c, 0, 64, 0
1, 657185, Note_off_c, 0, 60, 63
1, 657249, Note_on_c, 0, 76, 88
1, 657252, Note_on_c, 0, 45, 85
1, 657258, Note_on_c, 0, 69, 70
1, 657260, Note_on_c, 0, 40, 70
1, 657270, Note_on_c, 0, 36, 60
1, 657309, Control_c, 0, 64, 45
1, 657313, Note_off_c, 0, 69, 59
1, 657324, Control_c, 0, 64, 57
1, 657339, Note_on_c, 0, 72, 76
1, 657339, Control_c, 0, 64, 62
1, 657351, Note_off_c, 0, 76, 60
1, 657354, Control_c, 0, 64, 67
1, 657359, Note_off_c, 0, 36, 60
1, 657368, Control_c, 0, 64, 70
1, 657383, Control_c, 0, 64, 72
1, 657388, Note_off_c, 0, 45, 65
1, 657391, Note_off_c, 0, 40, 58
1, 657398, Control_c, 0, 64, 73
1, 657407, Note_on_c, 0, 69, 70
1, 657413, Control_c, 0, 64, 73
1, 657428, Control_c, 0, 64, 74
1, 657437, Note_off_c, 0, 72, 59
1, 657441, Note_off_c, 0, 69, 62
1, 657481, Note_on_c, 0, 64, 68
1, 657487, Note_on_c, 0, 47, 81
1, 657502, Control_c, 0, 64, 72
1, 657517, Control_c, 0, 64, 65
1, 657528, Note_off_c, 0, 64, 60
1, 657532, Control_c, 0, 64, 50
1, 657546, Control_c, 0, 64, 0
1, 657557, Note_on_c, 0, 48, 97
1, 657565, Note_on_c, 0, 44, 82
1, 657565, Note_on_c, 0, 72, 77
1, 657566, Note_on_c, 0, 41, 77
1, 657567, Note_on_c, 0, 65, 74
1, 657570, Note_off_c, 0, 47, 62
1, 657590, Note_off_c, 0, 44, 70
1, 657606, Control_c, 0, 64, 30
1, 657612, Note_off_c, 0, 65, 61
1, 657621, Control_c, 0, 64, 58
1, 657635, Control_c, 0, 64, 68
1, 657637, Note_on_c, 0, 68, 85
1, 657644, Note_off_c, 0, 72, 64
1, 657650, Control_c, 0, 64, 78
1, 657665, Control_c, 0, 64, 93
1, 657670, Note_off_c, 0, 41, 62
1, 657679, Control_c, 0, 64, 113
1, 657694, Control_c, 0, 64, 127
1, 657705, Note_off_c, 0, 48, 65
1, 657709, Note_on_c, 0, 65, 82
1, 657714, Note_off_c, 0, 68, 65
1, 657768, Note_off_c, 0, 65, 62
1, 657785, Note_on_c, 0, 50, 81
1, 657787, Note_on_c, 0, 60, 77
1, 657805, Control_c, 0, 64, 103
1, 657820, Control_c, 0, 64, 83
1, 657835, Control_c, 0, 64, 65
1, 657850, Control_c, 0, 64, 0
1, 657866, Note_on_c, 0, 51, 101
1, 657866, Note_on_c, 0, 47, 88
1, 657866, Note_on_c, 0, 59, 83
1, 657867, Note_on_c, 0, 46, 58
1, 657867, Note_off_c, 0, 46, 127
1, 657869, Note_on_c, 0, 68, 90
1, 657871, Note_off_c, 0, 60, 65
1, 657875, Note_on_c, 0, 44, 74
1, 657876, Note_off_c, 0, 50, 62
1, 657919, Note_off_c, 0, 47, 66
1, 657920, Note_off_c, 0, 59, 63
1, 657938, Note_off_c, 0, 44, 67
1, 657947, Note_on_c, 0, 63, 80
1, 657953, Control_c, 0, 64, 64
1, 657956, Note_off_c, 0, 68, 63
1, 657957, Note_off_c, 0, 51, 64
1, 657968, Control_c, 0, 64, 86
1, 657983, Control_c, 0, 64, 127
1, 658017, Note_on_c, 0, 59, 81
1, 658024, Note_off_c, 0, 63, 65
1, 658077, Note_on_c, 0, 56, 88
1, 658078, Note_off_c, 0, 59, 65
1, 658089, Note_on_c, 0, 53, 93
1, 658097, Note_off_c, 0, 56, 70
1, 658117, Control_c, 0, 64, 88
1, 658132, Control_c, 0, 64, 61
1, 658134, Note_off_c, 0, 53, 67
1, 658147, Control_c, 0, 64, 0
1, 658161, Note_on_c, 0, 55, 97
1, 658168, Note_on_c, 0, 47, 81
1, 658169, Note_on_c, 0, 65, 97
1, 658177, Note_on_c, 0, 57, 82
1, 658179, Note_on_c, 0, 50, 83
1, 658204, Note_off_c, 0, 57, 64
1, 658246, Note_on_c, 0, 62, 89
1, 658251, Control_c, 0, 64, 45
1, 658266, Control_c, 0, 64, 80
1, 658271, Note_off_c, 0, 50, 58
1, 658276, Note_off_c, 0, 65, 63
1, 658281, Control_c, 0, 64, 127
1, 658299, Note_off_c, 0, 55, 50
1, 658308, Note_on_c, 0, 57, 75
1, 658323, Note_off_c, 0, 62, 64
1, 658331, Note_off_c, 0, 57, 70
1, 658340, Control_c, 0, 64, 78
1, 658355, Control_c, 0, 64, 40
1, 658369, Control_c, 0, 64, 0
1, 658386, Note_on_c, 0, 54, 72
1, 658389, Note_off_c, 0, 47, 65
1, 658431, Note_off_c, 0, 54, 63
1, 658445, Note_on_c, 0, 55, 69
1, 658519, Note_off_c, 0, 55, 55
1, 658534, Note_on_c, 0, 56, 74
1, 658584, Control_c, 0, 64, 39
1, 658599, Control_c, 0, 64, 51
1, 658614, Control_c, 0, 64, 50
1, 658616, Note_on_c, 0, 57, 70
1, 658628, Control_c, 0, 64, 51
1, 658636, Note_off_c, 0, 56, 62
1, 658643, Control_c, 0, 64, 53
1, 658658, Control_c, 0, 64, 52
1, 658673, Control_c, 0, 64, 48
1, 658688, Control_c, 0, 64, 36
1, 658691, Note_off_c, 0, 57, 63
1, 658695, Note_on_c, 0, 62, 66
1, 658702, Control_c, 0, 64, 0
1, 658761, Note_off_c, 0, 62, 61
1, 658770, Note_on_c, 0, 65, 68
1, 658806, Control_c, 0, 64, 36
1, 658814, Note_off_c, 0, 65, 62
1, 658822, Control_c, 0, 64, 49
1, 658837, Control_c, 0, 64, 55
1, 658849, Note_on_c, 0, 57, 61
1, 658851, Control_c, 0, 64, 57
1, 658866, Control_c, 0, 64, 58
1, 658881, Control_c, 0, 64, 59
1, 658896, Control_c, 0, 64, 60
1, 658898, Note_off_c, 0, 57, 59
1, 658911, Control_c, 0, 64, 61
1, 658915, Note_on_c, 0, 62, 63
1, 658925, Control_c, 0, 64, 61
1, 658955, Control_c, 0, 64, 61
1, 658969, Note_off_c, 0, 62, 59
1, 658981, Note_on_c, 0, 65, 62
1, 658985, Control_c, 0, 64, 59
1, 658999, Control_c, 0, 64, 55
1, 659011, Note_off_c, 0, 65, 66
1, 659014, Control_c, 0, 64, 50
1, 659029, Control_c, 0, 64, 45
1, 659044, Control_c, 0, 64, 45
1, 659059, Control_c, 0, 64, 49
1, 659060, Note_on_c, 0, 64, 57
1, 659073, Control_c, 0, 64, 56
1, 659088, Control_c, 0, 64, 60
1, 659103, Control_c, 0, 64, 63
1, 659118, Control_c, 0, 64, 65
1, 659133, Control_c, 0, 64, 66
1, 659147, Note_on_c, 0, 59, 58
1, 659148, Control_c, 0, 64, 67
1, 659151, Note_off_c, 0, 64, 61
1, 659156, Note_on_c, 0, 62, 61
1, 659163, Control_c, 0, 64, 67
1, 659192, Control_c, 0, 64, 67
1, 659205, Note_off_c, 0, 59, 61
1, 659207, Control_c, 0, 64, 66
1, 659215, Note_off_c, 0, 62, 61
1, 659217, Note_on_c, 0, 65, 67
1, 659222, Control_c, 0, 64, 65
1, 659230, Note_on_c, 0, 60, 58
1, 659258, Control_c, 0, 64, 66
1, 659273, Control_c, 0, 64, 68
1, 659280, Note_off_c, 0, 60, 64
1, 659286, Note_on_c, 0, 64, 61
1, 659288, Control_c, 0, 64, 71
1, 659294, Note_on_c, 0, 69, 69
1, 659298, Note_off_c, 0, 65, 65
1, 659303, Control_c, 0, 64, 74
1, 659318, Control_c, 0, 64, 77
1, 659333, Control_c, 0, 64, 80
1, 659339, Note_off_c, 0, 64, 62
1, 659348, Control_c, 0, 64, 84
1, 659359, Note_off_c, 0, 69, 62
1, 659360, Note_on_c, 0, 68, 68
1, 659363, Control_c, 0, 64, 87
1, 659366, Note_on_c, 0, 72, 78
1, 659378, Control_c, 0, 64, 89
1, 659392, Note_off_c, 0, 68, 63
1, 659392, Control_c, 0, 64, 91
1, 659407, Control_c, 0, 64, 89
1, 659412, Note_off_c, 0, 72, 67
1, 659422, Control_c, 0, 64, 79
1, 659424, Note_on_c, 0, 62, 77
1, 659424, Note_on_c, 0, 65, 82
1, 659437, Control_c, 0, 64, 66
1, 659451, Control_c, 0, 64, 57
1, 659467, Control_c, 0, 64, 60
1, 659482, Control_c, 0, 64, 66
1, 659494, Note_on_c, 0, 69, 77
1, 659497, Control_c, 0, 64, 76
1, 659500, Note_off_c, 0, 65, 64
1, 659501, Note_off_c, 0, 62, 62
1, 659507, Note_on_c, 0, 64, 70
1, 659512, Control_c, 0, 64, 87
1, 659526, Control_c, 0, 64, 102
1, 659541, Control_c, 0, 64, 127
1, 659556, Note_on_c, 0, 72, 88
1, 659561, Note_on_c, 0, 68, 89
1, 659565, Note_off_c, 0, 69, 63
1, 659567, Note_off_c, 0, 64, 63
1, 659601, Note_off_c, 0, 72, 66
1, 659617, Note_off_c, 0, 68, 66
1, 659631, Control_c, 0, 64, 78
1, 659644, Note_on_c, 0, 71, 100
1, 659646, Control_c, 0, 64, 58
1, 659655, Note_on_c, 0, 65, 91
1, 659661, Control_c, 0, 64, 42
1, 659675, Control_c, 0, 64, 49
1, 659690, Control_c, 0, 64, 61
1, 659705, Control_c, 0, 64, 70
1, 659715, Note_off_c, 0, 71, 64
1, 659716, Note_on_c, 0, 74, 91
1, 659720, Control_c, 0, 64, 80
1, 659723, Note_on_c, 0, 68, 88
1, 659735, Control_c, 0, 64, 89
1, 659743, Note_off_c, 0, 65, 63
1, 659749, Control_c, 0, 64, 93
1, 659764, Control_c, 0, 64, 96
1, 659770, Note_on_c, 0, 69, 45
1, 659771, Note_on_c, 0, 77, 86
1, 659783, Note_on_c, 0, 71, 82
1, 659790, Note_off_c, 0, 74, 64
1, 659792, Note_off_c, 0, 68, 61
1, 659794, Note_off_c, 0, 69, 58
1, 659794, Control_c, 0, 64, 100
1, 659809, Control_c, 0, 64, 103
1, 659823, Control_c, 0, 64, 108
1, 659827, Note_off_c, 0, 77, 69
1, 659828, Note_off_c, 0, 71, 67
1, 659838, Control_c, 0, 64, 111
1, 659840, Note_on_c, 0, 81, 92
1, 659853, Control_c, 0, 64, 121
1, 659860, Note_on_c, 0, 72, 90
1, 659867, Control_c, 0, 64, 127
1, 659872, Note_off_c, 0, 81, 64
1, 659916, Note_on_c, 0, 73, 103
1, 659933, Note_off_c, 0, 72, 66
1, 659945, Note_off_c, 0, 73, 72
1, 660008, Note_on_c, 0, 77, 91
1, 660072, Note_on_c, 0, 81, 79
1, 660081, Note_off_c, 0, 77, 64
1, 660130, Note_on_c, 0, 85, 104
1, 660149, Note_off_c, 0, 81, 64
1, 660244, Note_off_c, 0, 85, 63
1, 660269, Note_on_c, 0, 89, 101
1, 660271, Note_on_c, 0, 40, 119
1, 660272, Note_on_c, 0, 82, 102
1, 660275, Note_on_c, 0, 28, 116
1, 660290, Control_c, 0, 64, 109
1, 660305, Control_c, 0, 64, 70
1, 660320, Control_c, 0, 64, 0
1, 660351, Note_off_c, 0, 82, 60
1, 660383, Note_on_c, 0, 85, 92
1, 660407, Note_off_c, 0, 89, 67
1, 660439, Control_c, 0, 64, 54
1, 660449, Note_on_c, 0, 82, 91
1, 660454, Control_c, 0, 64, 78
1, 660469, Note_off_c, 0, 85, 65
1, 660469, Control_c, 0, 64, 88
1, 660483, Control_c, 0, 64, 99
1, 660488, Note_off_c, 0, 82, 65
1, 660508, Note_on_c, 0, 77, 91
1, 660513, Control_c, 0, 64, 102
1, 660528, Control_c, 0, 64, 96
1, 660541, Note_off_c, 0, 77, 54
1, 660543, Control_c, 0, 64, 77
1, 660558, Control_c, 0, 64, 57
1, 660572, Control_c, 0, 64, 0
1, 660594, Note_on_c, 0, 77, 83
1, 660597, Note_on_c, 0, 85, 98
1, 660641, Note_off_c, 0, 77, 64
1, 660646, Control_c, 0, 64, 47
1, 660661, Control_c, 0, 64, 66
1, 660676, Control_c, 0, 64, 75
1, 660677, Note_on_c, 0, 82, 90
1, 660690, Control_c, 0, 64, 93
1, 660698, Note_off_c, 0, 85, 64
1, 660705, Control_c, 0, 64, 127
1, 660739, Note_on_c, 0, 77, 83
1, 660761, Note_off_c, 0, 82, 66
1, 660776, Note_off_c, 0, 40, 56
1, 660796, Note_off_c, 0, 28, 58
1, 660806, Note_off_c, 0, 77, 61
1, 660820, Note_on_c, 0, 73, 89
1, 660865, Note_off_c, 0, 73, 62
1, 660891, Control_c, 0, 64, 108
1, 660905, Control_c, 0, 64, 71
1, 660911, Note_on_c, 0, 73, 76
1, 660911, Note_on_c, 0, 82, 91
1, 660913, Note_on_c, 0, 41, 93
1, 660919, Note_on_c, 0, 29, 90
1, 660920, Control_c, 0, 64, 35
1, 660935, Control_c, 0, 64, 0
1, 660971, Note_off_c, 0, 73, 62
1, 660999, Note_on_c, 0, 77, 74
1, 661023, Note_off_c, 0, 82, 63
1, 661038, Control_c, 0, 64, 42
1, 661053, Control_c, 0, 64, 66
1, 661068, Control_c, 0, 64, 73
1, 661080, Note_on_c, 0, 73, 81
1, 661083, Control_c, 0, 64, 82
1, 661093, Note_off_c, 0, 77, 63
1, 661097, Control_c, 0, 64, 91
1, 661103, Note_off_c, 0, 41, 62
1, 661112, Control_c, 0, 64, 105
1, 661127, Control_c, 0, 64, 127
1, 661131, Note_off_c, 0, 73, 64
1, 661139, Note_on_c, 0, 70, 76
1, 661156, Note_off_c, 0, 29, 61
1, 661179, Note_off_c, 0, 70, 61
1, 661201, Control_c, 0, 64, 118
1, 661217, Control_c, 0, 64, 77
1, 661225, Note_on_c, 0, 42, 98
1, 661228, Note_on_c, 0, 30, 92
1, 661232, Control_c, 0, 64, 49
1, 661236, Note_on_c, 0, 77, 81
1, 661246, Control_c, 0, 64, 0
1, 661247, Note_on_c, 0, 70, 62
1, 661291, Control_c, 0, 64, 53
1, 661306, Control_c, 0, 64, 71
1, 661312, Note_off_c, 0, 70, 58
1, 661319, Note_on_c, 0, 73, 84
1, 661320, Control_c, 0, 64, 77
1, 661325, Note_off_c, 0, 42, 63
1, 661327, Note_off_c, 0, 77, 64
1, 661335, Control_c, 0, 64, 71
1, 661338, Note_off_c, 0, 30, 60
1, 661350, Control_c, 0, 64, 40
1, 661365, Control_c, 0, 64, 0
1, 661385, Note_on_c, 0, 43, 96
1, 661387, Note_on_c, 0, 31, 96
1, 661393, Note_on_c, 0, 70, 86
1, 661394, Control_c, 0, 64, 41
1, 661401, Note_off_c, 0, 73, 65
1, 661409, Control_c, 0, 64, 71
1, 661424, Control_c, 0, 64, 103
1, 661427, Note_off_c, 0, 70, 67
1, 661439, Control_c, 0, 64, 127
1, 661454, Note_off_c, 0, 43, 63
1, 661462, Note_on_c, 0, 65, 85
1, 661495, Note_off_c, 0, 31, 61
1, 661518, Note_off_c, 0, 65, 64
1, 661521, Control_c, 0, 64, 82
1, 661535, Control_c, 0, 64, 56
1, 661550, Note_on_c, 0, 44, 100
1, 661550, Control_c, 0, 64, 0
1, 661551, Note_on_c, 0, 32, 102
1, 661556, Note_on_c, 0, 65, 70
1, 661557, Note_on_c, 0, 73, 91
1, 661616, Note_off_c, 0, 65, 63
1, 661628, Note_on_c, 0, 70, 83
1, 661639, Control_c, 0, 64, 51
1, 661642, Note_off_c, 0, 73, 63
1, 661653, Control_c, 0, 64, 74
1, 661668, Control_c, 0, 64, 94
1, 661683, Control_c, 0, 64, 127
1, 661691, Note_on_c, 0, 65, 79
1, 661698, Note_off_c, 0, 70, 65
1, 661753, Note_off_c, 0, 65, 64
1, 661769, Note_on_c, 0, 61, 90
1, 661799, Note_off_c, 0, 44, 64
1, 661814, Note_off_c, 0, 32, 60
1, 661823, Note_off_c, 0, 61, 61
1, 661832, Control_c, 0, 64, 116
1, 661846, Control_c, 0, 64, 66
1, 661855, Note_on_c, 0, 61, 74
1, 661858, Note_on_c, 0, 70, 87
1, 661861, Control_c, 0, 64, 0
1, 661862, Note_on_c, 0, 45, 106
1, 661866, Note_on_c, 0, 33, 106
1, 661919, Note_off_c, 0, 61, 60
1, 661920, Control_c, 0, 64, 37
1, 661931, Note_on_c, 0, 65, 81
1, 661935, Note_off_c, 0, 70, 65
1, 661935, Control_c, 0, 64, 70
1, 661950, Control_c, 0, 64, 103
1, 661965, Control_c, 0, 64, 127
1, 661974, Note_off_c, 0, 33, 64
1, 661992, Note_off_c, 0, 45, 67
1, 662004, Note_on_c, 0, 61, 80
1, 662028, Note_off_c, 0, 65, 63
1, 662057, Note_off_c, 0, 61, 62
1, 662066, Note_on_c, 0, 58, 95
1, 662107, Note_off_c, 0, 58, 67
1, 662176, Note_on_c, 0, 53, 95
1, 662188, Control_c, 0, 64, 82
1, 662203, Control_c, 0, 64, 56
1, 662218, Control_c, 0, 64, 40
1, 662233, Control_c, 0, 64, 54
1, 662255, Control_c, 0, 64, 64
1, 662262, Note_on_c, 0, 58, 89
1, 662270, Control_c, 0, 64, 74
1, 662284, Note_off_c, 0, 53, 62
1, 662284, Control_c, 0, 64, 91
1, 662299, Control_c, 0, 64, 107
1, 662314, Control_c, 0, 64, 114
1, 662320, Note_on_c, 0, 61, 91
1, 662329, Control_c, 0, 64, 127
1, 662331, Note_off_c, 0, 58, 66
1, 662358, Note_off_c, 0, 61, 68
1, 662376, Note_on_c, 0, 65, 96
1, 662391, Note_on_c, 0, 66, 92
1, 662412, Note_off_c, 0, 65, 65
1, 662456, Note_on_c, 0, 70, 91
1, 662468, Note_off_c, 0, 66, 62
1, 662505, Note_on_c, 0, 73, 88
1, 662535, Note_off_c, 0, 70, 64
1, 662552, Note_off_c, 0, 73, 69
1, 662560, Note_on_c, 0, 78, 94
1, 662591, Note_off_c, 0, 78, 69
1, 662591, Note_on_c, 0, 82, 110
1, 662608, Note_on_c, 0, 79, 67
1, 662627, Note_off_c, 0, 79, 66
1, 662631, Note_on_c, 0, 81, 52
1, 662631, Note_off_c, 0, 81, 127
1, 662654, Note_on_c, 0, 83, 34
1, 662654, Note_off_c, 0, 83, 127
1, 662660, Note_on_c, 0, 85, 95
1, 662662, Note_off_c, 0, 82, 68
1, 662715, Note_off_c, 0, 85, 67
1, 662728, Control_c, 0, 64, 75
1, 662743, Control_c, 0, 64, 37
1, 662758, Control_c, 0, 64, 0
1, 662763, Note_on_c, 0, 101, 106
1, 662765, Note_on_c, 0, 94, 109
1, 662766, Note_on_c, 0, 89, 100
1, 662768, Note_on_c, 0, 82, 102
1, 662788, Control_c, 0, 64, 41
1, 662803, Control_c, 0, 64, 75
1, 662809, Note_off_c, 0, 82, 61
1, 662814, Note_off_c, 0, 94, 62
1, 662818, Control_c, 0, 64, 127
1, 662841, Note_off_c, 0, 89, 0
1, 662842, Note_on_c, 0, 82, 66
1, 662847, Note_on_c, 0, 97, 101
1, 662853, Note_on_c, 0, 85, 94
1, 662854, Note_on_c, 0, 89, 53
1, 662863, Control_c, 0, 64, 79
1, 662865, Note_on_c, 0, 98, 89
1, 662868, Note_off_c, 0, 82, 64
1, 662877, Note_off_c, 0, 89, 58
1, 662878, Note_off_c, 0, 101, 64
1, 662878, Control_c, 0, 64, 75
1, 662892, Control_c, 0, 64, 87
1, 662905, Note_off_c, 0, 85, 65
1, 662907, Control_c, 0, 64, 127
1, 662917, Note_on_c, 0, 94, 92
1, 662936, Note_on_c, 0, 88, 87
1, 662936, Note_off_c, 0, 97, 67
1, 662939, Note_off_c, 0, 98, 64
1, 662944, Note_on_c, 0, 81, 91
1, 662956, Note_off_c, 0, 94, 69
1, 662984, Note_off_c, 0, 88, 66
1, 663002, Note_on_c, 0, 89, 84
1, 663018, Control_c, 0, 64, 122
1, 663022, Note_on_c, 0, 84, 89
1, 663026, Note_off_c, 0, 81, 65
1, 663027, Note_on_c, 0, 83, 80
1, 663033, Control_c, 0, 64, 77
1, 663046, Note_off_c, 0, 83, 65
1, 663048, Control_c, 0, 64, 65
1, 663059, Note_off_c, 0, 84, 67
1, 663063, Control_c, 0, 64, 69
1, 663078, Control_c, 0, 64, 87
1, 663088, Note_on_c, 0, 101, 104
1, 663089, Note_on_c, 0, 94, 103
1, 663093, Control_c, 0, 64, 127
1, 663097, Note_on_c, 0, 80, 96
1, 663098, Note_on_c, 0, 87, 105
1, 663110, Note_off_c, 0, 89, 61
1, 663119, Note_off_c, 0, 94, 70
1, 663136, Note_off_c, 0, 101, 67
1, 663145, Note_off_c, 0, 87, 60
1, 663152, Note_off_c, 0, 80, 66
1, 663162, Note_on_c, 0, 82, 101
1, 663194, Note_on_c, 0, 100, 76
1, 663196, Control_c, 0, 64, 98
1, 663202, Note_off_c, 0, 82, 69
1, 663202, Poly_aftertouch_c, 0, 83, 0
1, 663211, Control_c, 0, 64, 73
1, 663226, Control_c, 0, 64, 69
1, 663226, Note_off_c, 0, 100, 62
1, 663241, Control_c, 0, 64, 83
1, 663242, Note_on_c, 0, 79, 99
1, 663253, Note_on_c, 0, 86, 95
1, 663256, Control_c, 0, 64, 127
1, 663286, Control_c, 0, 64, 107
1, 663288, Note_off_c, 0, 79, 66
1, 663300, Control_c, 0, 64, 75
1, 663301, Note_off_c, 0, 86, 63
1, 663315, Control_c, 0, 64, 70
1, 663317, Note_on_c, 0, 97, 94
1, 663322, Note_on_c, 0, 82, 96
1, 663330, Control_c, 0, 64, 82
1, 663344, Control_c, 0, 64, 127
1, 663373, Note_off_c, 0, 82, 57
1, 663388, Note_on_c, 0, 94, 97
1, 663389, Control_c, 0, 64, 83
1, 663396, Note_on_c, 0, 78, 94
1, 663401, Note_off_c, 0, 97, 68
1, 663404, Control_c, 0, 64, 83
1, 663408, Note_on_c, 0, 85, 102
1, 663418, Control_c, 0, 64, 127
1, 663426, Note_off_c, 0, 78, 70
1, 663449, Note_on_c, 0, 89, 86
1, 663455, Note_off_c, 0, 94, 66
1, 663475, Note_off_c, 0, 85, 64
1, 663478, Note_on_c, 0, 81, 82
1, 663478, Control_c, 0, 64, 74
1, 663492, Control_c, 0, 64, 64
1, 663507, Control_c, 0, 64, 71
1, 663522, Control_c, 0, 64, 88
1, 663524, Poly_aftertouch_c, 0, 82, 0
1, 663530, Note_off_c, 0, 89, 57
1, 663535, Note_on_c, 0, 101, 100
1, 663536, Control_c, 0, 64, 101
1, 663539, Note_on_c, 0, 94, 89
1, 663545, Note_on_c, 0, 77, 71
1, 663548, Note_on_c, 0, 76, 82
1, 663551, Control_c, 0, 64, 87
1, 663553, Note_on_c, 0, 84, 92
1, 663558, Note_off_c, 0, 81, 66
1, 663566, Control_c, 0, 64, 65
1, 663574, Note_off_c, 0, 94, 63
1, 663581, Control_c, 0, 64, 58
1, 663586, Note_off_c, 0, 76, 62
1, 663589, Note_off_c, 0, 77, 65
1, 663596, Control_c, 0, 64, 70
1, 663601, Note_off_c, 0, 84, 67
1, 663612, Control_c, 0, 64, 90
1, 663621, Note_on_c, 0, 97, 99
1, 663627, Control_c, 0, 64, 127
1, 663628, Note_on_c, 0, 80, 97
1, 663630, Note_off_c, 0, 101, 56
1, 663641, Control_c, 0, 64, 104
1, 663656, Control_c, 0, 64, 72
1, 663671, Control_c, 0, 64, 62
1, 663684, Note_on_c, 0, 94, 91
1, 663686, Control_c, 0, 64, 70
1, 663695, Note_on_c, 0, 76, 83
1, 663697, Note_off_c, 0, 80, 67
1, 663701, Control_c, 0, 64, 91
1, 663703, Note_off_c, 0, 97, 66
1, 663712, Note_on_c, 0, 83, 92
1, 663715, Control_c, 0, 64, 127
1, 663728, Note_off_c, 0, 94, 69
1, 663745, Note_on_c, 0, 81, 47
1, 663753, Note_off_c, 0, 76, 66
1, 663766, Note_on_c, 0, 88, 92
1, 663771, Note_on_c, 0, 79, 94
1, 663773, Note_off_c, 0, 81, 35
1, 663781, Note_off_c, 0, 83, 60
1, 663825, Note_off_c, 0, 79, 68
1, 663843, Note_on_c, 0, 94, 101
1, 663846, Note_on_c, 0, 86, 91
1, 663858, Note_off_c, 0, 88, 67
1, 663862, Note_on_c, 0, 75, 77
1, 663863, Note_on_c, 0, 82, 103
1, 663864, Note_off_c, 0, 86, 71
1, 663876, Note_off_c, 0, 75, 69
1, 663879, Note_off_c, 0, 94, 69
1, 663897, Note_on_c, 0, 78, 89
1, 663908, Note_off_c, 0, 82, 69
1, 663927, Note_off_c, 0, 78, 70
1, 663997, Note_on_c, 0, 90, 38
1, 664029, Note_off_c, 0, 90, 54
1, 664132, Note_on_c, 0, 89, 99
1, 664137, Note_on_c, 0, 82, 96
1, 664138, Control_c, 0, 64, 119
1, 664143, Note_on_c, 0, 40, 105
1, 664144, Note_on_c, 0, 28, 105
1, 664153, Control_c, 0, 64, 85
1, 664167, Control_c, 0, 64, 64
1, 664182, Control_c, 0, 64, 0
1, 664238, Note_off_c, 0, 82, 66
1, 664245, Note_on_c, 0, 85, 93
1, 664257, Note_off_c, 0, 89, 65
1, 664320, Note_on_c, 0, 82, 85
1, 664326, Note_off_c, 0, 85, 66
1, 664354, Note_off_c, 0, 82, 66
1, 664381, Note_on_c, 0, 77, 73
1, 664428, Note_off_c, 0, 77, 63
1, 664429, Note_on_c, 0, 79, 3
1, 664451, Note_off_c, 0, 79, 31
1, 664466, Note_on_c, 0, 85, 98
1, 664470, Note_on_c, 0, 78, 76
1, 664479, Control_c, 0, 64, 54
1, 664492, Note_on_c, 0, 77, 70
1, 664502, Control_c, 0, 64, 72
1, 664507, Note_off_c, 0, 40, 64
1, 664512, Note_off_c, 0, 28, 63
1, 664514, Note_off_c, 0, 78, 64
1, 664517, Control_c, 0, 64, 86
1, 664532, Control_c, 0, 64, 127
1, 664537, Note_off_c, 0, 77, 58
1, 664547, Note_on_c, 0, 82, 88
1, 664554, Note_off_c, 0, 85, 66
1, 664609, Note_on_c, 0, 77, 71
1, 664621, Note_off_c, 0, 82, 65
1, 664659, Note_off_c, 0, 77, 64
1, 664697, Note_on_c, 0, 73, 68
1, 664705, Note_on_c, 0, 48, 95
1, 664708, Control_c, 0, 64, 83
1, 664709, Note_on_c, 0, 36, 83
1, 664719, Note_off_c, 0, 73, 65
1, 664723, Control_c, 0, 64, 59
1, 664737, Note_off_c, 0, 36, 66
1, 664737, Control_c, 0, 64, 0
1, 664743, Note_off_c, 0, 48, 66
1, 664780, Note_on_c, 0, 48, 91
1, 664784, Note_on_c, 0, 82, 96
1, 664785, Note_on_c, 0, 36, 101
1, 664788, Note_on_c, 0, 73, 79
1, 664839, Note_off_c, 0, 73, 61
1, 664865, Note_on_c, 0, 77, 78
1, 664880, Note_off_c, 0, 82, 62
1, 664901, Control_c, 0, 64, 56
1, 664915, Control_c, 0, 64, 66
1, 664930, Control_c, 0, 64, 73
1, 664937, Note_off_c, 0, 48, 63
1, 664943, Note_on_c, 0, 73, 81
1, 664945, Control_c, 0, 64, 83
1, 664960, Control_c, 0, 64, 95
1, 664961, Note_off_c, 0, 36, 62
1, 664975, Control_c, 0, 64, 122
1, 664989, Control_c, 0, 64, 127
1, 664999, Note_off_c, 0, 73, 62
1, 665013, Note_on_c, 0, 70, 77
1, 665020, Note_off_c, 0, 77, 62
1, 665044, Note_off_c, 0, 70, 60
1, 665078, Control_c, 0, 64, 96
1, 665093, Control_c, 0, 64, 68
1, 665104, Note_on_c, 0, 77, 89
1, 665108, Control_c, 0, 64, 32
1, 665116, Note_on_c, 0, 41, 86
1, 665120, Note_on_c, 0, 70, 76
1, 665122, Control_c, 0, 64, 0
1, 665125, Note_on_c, 0, 29, 75
1, 665163, Note_off_c, 0, 29, 65
1, 665163, Note_off_c, 0, 70, 55
1, 665167, Control_c, 0, 64, 57
1, 665176, Note_off_c, 0, 41, 62
1, 665182, Control_c, 0, 64, 73
1, 665190, Note_on_c, 0, 73, 93
1, 665196, Control_c, 0, 64, 73
1, 665211, Note_off_c, 0, 77, 63
1, 665212, Control_c, 0, 64, 61
1, 665227, Control_c, 0, 64, 0
1, 665272, Note_on_c, 0, 43, 93
1, 665272, Note_on_c, 0, 70, 93
1, 665274, Note_on_c, 0, 31, 95
1, 665280, Control_c, 0, 64, 38
1, 665294, Control_c, 0, 64, 66
1, 665295, Note_off_c, 0, 73, 65
1, 665309, Control_c, 0, 64, 84
1, 665321, Note_off_c, 0, 43, 64
1, 665324, Control_c, 0, 64, 127
1, 665325, Note_off_c, 0, 70, 67
1, 665351, Note_on_c, 0, 65, 78
1, 665379, Note_off_c, 0, 31, 60
1, 665389, Note_off_c, 0, 65, 62
1, 665412, Control_c, 0, 64, 107
1, 665426, Note_on_c, 0, 32, 96
1, 665426, Note_on_c, 0, 44, 103
1, 665427, Control_c, 0, 64, 75
1, 665433, Note_on_c, 0, 73, 95
1, 665442, Note_on_c, 0, 65, 73
1, 665442, Control_c, 0, 64, 50
1, 665457, Control_c, 0, 64, 0
1, 665479, Note_off_c, 0, 65, 63
1, 665506, Note_on_c, 0, 70, 88
1, 665526, Note_off_c, 0, 73, 65
1, 665545, Control_c, 0, 64, 42
1, 665560, Control_c, 0, 64, 60
1, 665575, Control_c, 0, 64, 70
1, 665581, Note_on_c, 0, 65, 81
1, 665590, Control_c, 0, 64, 86
1, 665605, Control_c, 0, 64, 127
1, 665628, Note_off_c, 0, 70, 62
1, 665649, Note_off_c, 0, 65, 63
1, 665661, Note_on_c, 0, 61, 78
1, 665675, Note_off_c, 0, 44, 61
1, 665683, Note_off_c, 0, 32, 59
1, 665685, Note_off_c, 0, 61, 66
1, 665739, Note_on_c, 0, 45, 100
1, 665739, Note_on_c, 0, 70, 98
1, 665743, Note_on_c, 0, 33, 93
1, 665748, Note_on_c, 0, 61, 81
1, 665753, Control_c, 0, 64, 90
1, 665768, Control_c, 0, 64, 63
1, 665783, Control_c, 0, 64, 0
1, 665800, Note_off_c, 0, 61, 60
1, 665814, Note_on_c, 0, 65, 87
1, 665830, Note_off_c, 0, 70, 66
1, 665842, Control_c, 0, 64, 54
1, 665857, Control_c, 0, 64, 70
1, 665872, Control_c, 0, 64, 85
1, 665886, Control_c, 0, 64, 127
1, 665888, Note_on_c, 0, 61, 89
1, 665909, Note_off_c, 0, 65, 64
1, 665949, Note_on_c, 0, 58, 84
1, 665949, Note_off_c, 0, 61, 63
1, 666000, Note_off_c, 0, 58, 66
1, 666013, Control_c, 0, 64, 97
1, 666028, Control_c, 0, 64, 68
1, 666043, Control_c, 0, 64, 34
1, 666058, Control_c, 0, 64, 0
1, 666060, Note_on_c, 0, 58, 84
1, 666060, Note_on_c, 0, 65, 81
1, 666069, Note_on_c, 0, 64, 73
1, 666102, Control_c, 0, 64, 36
1, 666111, Note_off_c, 0, 58, 63
1, 666117, Control_c, 0, 64, 59
1, 666126, Note_on_c, 0, 61, 89
1, 666132, Control_c, 0, 64, 69
1, 666139, Note_off_c, 0, 65, 65
1, 666147, Control_c, 0, 64, 80
1, 666162, Control_c, 0, 64, 101
1, 666174, Note_off_c, 0, 64, 24
1, 666176, Control_c, 0, 64, 127
1, 666187, Note_on_c, 0, 58, 84
1, 666210, Note_off_c, 0, 61, 62
1, 666227, Note_off_c, 0, 58, 66
1, 666253, Note_on_c, 0, 53, 84
1, 666295, Control_c, 0, 64, 80
1, 666300, Note_off_c, 0, 53, 64
1, 666309, Control_c, 0, 64, 54
1, 666314, Note_off_c, 0, 45, 62
1, 666324, Control_c, 0, 64, 0
1, 666346, Note_on_c, 0, 49, 99
1, 666347, Note_off_c, 0, 33, 50
1, 666349, Note_on_c, 0, 40, 95
1, 666393, Note_off_c, 0, 40, 66
1, 666398, Control_c, 0, 64, 53
1, 666404, Note_off_c, 0, 49, 65
1, 666413, Control_c, 0, 64, 102
1, 666428, Control_c, 0, 64, 127
1, 666532, Control_c, 0, 64, 91
1, 666547, Control_c, 0, 64, 64
1, 666561, Control_c, 0, 64, 0
1, 666716, Note_on_c, 0, 63, 81
1, 666717, Note_on_c, 0, 53, 54
1, 666761, Control_c, 0, 64, 43
1, 666774, Note_off_c, 0, 63, 62
1, 666776, Control_c, 0, 64, 62
1, 666791, Control_c, 0, 64, 67
1, 666806, Control_c, 0, 64, 73
1, 666815, Note_off_c, 0, 53, 59
1, 666821, Note_on_c, 0, 54, 58
1, 666821, Control_c, 0, 64, 80
1, 666836, Control_c, 0, 64, 88
1, 666851, Control_c, 0, 64, 95
1, 666866, Control_c, 0, 64, 102
1, 666870, Note_off_c, 0, 54, 62
1, 666880, Control_c, 0, 64, 108
1, 666889, Note_on_c, 0, 57, 69
1, 666895, Control_c, 0, 64, 110
1, 666939, Note_off_c, 0, 57, 65
1, 666952, Note_on_c, 0, 60, 56
1, 666974, Note_off_c, 0, 60, 64
1, 666985, Control_c, 0, 64, 104
1, 667000, Control_c, 0, 64, 94
1, 667015, Control_c, 0, 64, 79
1, 667030, Control_c, 0, 64, 65
1, 667044, Control_c, 0, 64, 42
1, 667058, Note_on_c, 0, 63, 67
1, 667059, Control_c, 0, 64, 0
1, 667060, Note_on_c, 0, 47, 78
1, 667068, Note_on_c, 0, 35, 69
1, 667104, Control_c, 0, 64, 31
1, 667118, Control_c, 0, 64, 51
1, 667133, Control_c, 0, 64, 61
1, 667143, Note_off_c, 0, 63, 59
1, 667144, Note_on_c, 0, 66, 67
1, 667148, Control_c, 0, 64, 67
1, 667163, Control_c, 0, 64, 72
1, 667174, Note_off_c, 0, 47, 64
1, 667178, Control_c, 0, 64, 82
1, 667188, Note_off_c, 0, 35, 61
1, 667192, Control_c, 0, 64, 93
1, 667207, Control_c, 0, 64, 112
1, 667222, Control_c, 0, 64, 127
1, 667232, Note_on_c, 0, 71, 65
1, 667262, Note_off_c, 0, 66, 60
1, 667290, Note_on_c, 0, 75, 78
1, 667305, Note_off_c, 0, 71, 64
1, 667340, Control_c, 0, 64, 97
1, 667355, Control_c, 0, 64, 64
1, 667359, Note_off_c, 0, 75, 64
1, 667370, Control_c, 0, 64, 0
1, 667372, Note_on_c, 0, 55, 100
1, 667376, Note_on_c, 0, 43, 93
1, 667378, Note_on_c, 0, 76, 87
1, 667429, Control_c, 0, 64, 63
1, 667444, Control_c, 0, 64, 92
1, 667459, Control_c, 0, 64, 127
1, 667460, Note_on_c, 0, 72, 80
1, 667489, Note_off_c, 0, 55, 62
1, 667495, Note_off_c, 0, 43, 64
1, 667501, Note_off_c, 0, 76, 61
1, 667545, Note_on_c, 0, 64, 78
1, 667567, Note_off_c, 0, 72, 61
1, 667614, Note_off_c, 0, 64, 65
1, 667614, Note_on_c, 0, 66, 83
1, 667635, Note_off_c, 0, 66, 70
1, 667675, Control_c, 0, 64, 75
1, 667689, Control_c, 0, 64, 47
1, 667703, Note_on_c, 0, 63, 104
1, 667703, Control_c, 0, 64, 0
1, 667733, Control_c, 0, 64, 48
1, 667748, Note_off_c, 0, 63, 70
1, 667748, Control_c, 0, 64, 69
1, 667763, Control_c, 0, 64, 96
1, 667778, Control_c, 0, 64, 127
1, 667786, Note_on_c, 0, 67, 85
1, 667849, Note_on_c, 0, 72, 83
1, 667862, Note_off_c, 0, 67, 62
1, 667918, Note_on_c, 0, 75, 90
1, 667942, Note_off_c, 0, 72, 61
1, 667970, Control_c, 0, 64, 78
1, 667985, Control_c, 0, 64, 53
1, 667995, Note_on_c, 0, 71, 97
1, 667998, Note_on_c, 0, 79, 97
1, 667999, Note_on_c, 0, 76, 100
1, 668000, Control_c, 0, 64, 0
1, 668007, Note_off_c, 0, 75, 62
1, 668026, Note_off_c, 0, 71, 70
1, 668028, Note_off_c, 0, 76, 72
1, 668029, Control_c, 0, 64, 49
1, 668044, Control_c, 0, 64, 71
1, 668059, Control_c, 0, 64, 108
1, 668074, Control_c, 0, 64, 127
1, 668087, Note_on_c, 0, 75, 90
1, 668123, Note_off_c, 0, 79, 64
1, 668151, Note_on_c, 0, 72, 88
1, 668178, Note_off_c, 0, 75, 64
1, 668216, Note_on_c, 0, 67, 76
1, 668235, Note_on_c, 0, 65, 51
1, 668252, Note_off_c, 0, 67, 67
1, 668259, Note_off_c, 0, 65, 63
1, 668265, Note_off_c, 0, 72, 62
1, 668303, Control_c, 0, 64, 91
1, 668304, Note_on_c, 0, 70, 117
1, 668318, Control_c, 0, 64, 58
1, 668332, Control_c, 0, 64, 0
1, 668336, Note_off_c, 0, 70, 73
1, 668362, Control_c, 0, 64, 42
1, 668377, Control_c, 0, 64, 69
1, 668390, Note_on_c, 0, 76, 96
1, 668392, Control_c, 0, 64, 98
1, 668408, Control_c, 0, 64, 127
1, 668449, Note_on_c, 0, 80, 93
1, 668477, Note_off_c, 0, 76, 58
1, 668522, Note_on_c, 0, 71, 105
1, 668525, Note_on_c, 0, 84, 91
1, 668530, Note_off_c, 0, 80, 66
1, 668567, Note_off_c, 0, 71, 67
1, 668586, Control_c, 0, 64, 91
1, 668600, Control_c, 0, 64, 59
1, 668615, Control_c, 0, 64, 0
1, 668616, Note_on_c, 0, 60, 87
1, 668617, Note_on_c, 0, 69, 103
1, 668618, Note_on_c, 0, 88, 105
1, 668620, Note_on_c, 0, 64, 89
1, 668635, Note_off_c, 0, 84, 65
1, 668708, Note_on_c, 0, 84, 100
1, 668734, Control_c, 0, 64, 53
1, 668748, Note_off_c, 0, 88, 65
1, 668749, Control_c, 0, 64, 80
1, 668754, Note_off_c, 0, 64, 65
1, 668763, Control_c, 0, 64, 127
1, 668770, Note_on_c, 0, 81, 87
1, 668787, Note_off_c, 0, 84, 64
1, 668797, Note_off_c, 0, 69, 56
1, 668809, Note_off_c, 0, 81, 67
1, 668837, Control_c, 0, 64, 68
1, 668852, Control_c, 0, 64, 0
1, 668872, Note_on_c, 0, 88, 82
1, 668878, Note_on_c, 0, 76, 76
1, 668881, Note_on_c, 0, 64, 59
1, 668882, Note_on_c, 0, 84, 67
1, 668900, Note_off_c, 0, 76, 71
1, 668900, Note_off_c, 0, 84, 66
1, 668911, Control_c, 0, 64, 37
1, 668916, Note_off_c, 0, 88, 64
1, 668926, Control_c, 0, 64, 57
1, 668941, Control_c, 0, 64, 68
1, 668950, Note_off_c, 0, 64, 61
1, 668955, Control_c, 0, 64, 81
1, 668958, Note_on_c, 0, 65, 75
1, 668965, Note_on_c, 0, 84, 85
1, 668966, Note_on_c, 0, 88, 73
1, 668970, Control_c, 0, 64, 127
1, 668971, Note_on_c, 0, 77, 76
1, 668997, Note_off_c, 0, 84, 67
1, 669000, Note_off_c, 0, 77, 69
1, 669015, Note_off_c, 0, 88, 62
1, 669025, Note_off_c, 0, 65, 63
1, 669040, Note_on_c, 0, 66, 73
1, 669048, Note_on_c, 0, 78, 80
1, 669054, Note_on_c, 0, 88, 74
1, 669065, Note_off_c, 0, 60, 59
1, 669068, Note_off_c, 0, 78, 71
1, 669073, Note_on_c, 0, 84, 71
1, 669086, Note_off_c, 0, 88, 66
1, 669089, Note_off_c, 0, 84, 66
1, 669095, Note_on_c, 0, 67, 79
1, 669095, Note_off_c, 0, 66, 63
1, 669110, Note_on_c, 0, 79, 89
1, 669148, Note_on_c, 0, 84, 82
1, 669156, Note_off_c, 0, 79, 67
1, 669159, Note_off_c, 0, 67, 61
1, 669168, Note_off_c, 0, 84, 71
1, 669174, Note_on_c, 0, 68, 94
1, 669212, Note_on_c, 0, 81, 84
1, 669224, Note_on_c, 0, 80, 42
1, 669238, Note_off_c, 0, 81, 62
1, 669240, Note_off_c, 0, 68, 64
1, 669250, Note_on_c, 0, 69, 94
1, 669254, Note_off_c, 0, 80, 54
1, 669260, Control_c, 0, 64, 77
1, 669265, Note_on_c, 0, 88, 94
1, 669275, Control_c, 0, 64, 49
1, 669277, Note_on_c, 0, 84, 98
1, 669290, Control_c, 0, 64, 0
1, 669315, Note_on_c, 0, 70, 95
1, 669319, Control_c, 0, 64, 53
1, 669328, Note_off_c, 0, 69, 61
1, 669334, Control_c, 0, 64, 71
1, 669347, Note_on_c, 0, 81, 100
1, 669349, Control_c, 0, 64, 96
1, 669359, Note_off_c, 0, 88, 63
1, 669363, Note_off_c, 0, 84, 66
1, 669364, Control_c, 0, 64, 127
1, 669391, Note_on_c, 0, 71, 92
1, 669391, Note_off_c, 0, 70, 65
1, 669411, Note_off_c, 0, 81, 65
1, 669423, Note_on_c, 0, 76, 91
1, 669447, Note_off_c, 0, 71, 68
1, 669459, Note_on_c, 0, 72, 103
1, 669459, Note_off_c, 0, 76, 63
1, 669504, Note_off_c, 0, 72, 69
1, 669542, Control_c, 0, 64, 92
1, 669557, Control_c, 0, 64, 61
1, 669566, Note_on_c, 0, 77, 107
1, 669569, Note_on_c, 0, 81, 107
1, 669572, Control_c, 0, 64, 0
1, 669601, Control_c, 0, 64, 39
1, 669616, Control_c, 0, 64, 64
1, 669631, Control_c, 0, 64, 85
1, 669646, Control_c, 0, 64, 127
1, 669650, Note_on_c, 0, 85, 99
1, 669670, Note_off_c, 0, 81, 57
1, 669706, Note_on_c, 0, 88, 91
1, 669715, Note_off_c, 0, 85, 65
1, 669781, Note_off_c, 0, 77, 64
1, 669786, Control_c, 0, 64, 94
1, 669789, Note_on_c, 0, 80, 96
1, 669790, Note_on_c, 0, 93, 98
1, 669794, Note_on_c, 0, 76, 94
1, 669799, Note_off_c, 0, 88, 66
1, 669801, Control_c, 0, 64, 62
1, 669816, Control_c, 0, 64, 0
1, 669837, Note_off_c, 0, 80, 65
1, 669843, Note_off_c, 0, 76, 62
1, 669860, Control_c, 0, 64, 41
1, 669873, Note_on_c, 0, 85, 102
1, 669874, Note_on_c, 0, 81, 99
1, 669875, Control_c, 0, 64, 67
1, 669882, Note_on_c, 0, 77, 86
1, 669885, Note_off_c, 0, 93, 65
1, 669890, Control_c, 0, 64, 89
1, 669891, Note_on_c, 0, 76, 69
1, 669905, Control_c, 0, 64, 127
1, 669906, Note_off_c, 0, 81, 70
1, 669909, Note_off_c, 0, 76, 64
1, 669912, Note_on_c, 0, 79, 33
1, 669912, Note_off_c, 0, 85, 70
1, 669917, Note_off_c, 0, 77, 67
1, 669954, Note_off_c, 0, 79, 47
1, 669957, Note_on_c, 0, 88, 96
1, 670028, Note_off_c, 0, 88, 63
1, 670034, Note_on_c, 0, 93, 99
1, 670097, Note_on_c, 0, 97, 100
1, 670099, Control_c, 0, 64, 102
1, 670102, Note_on_c, 0, 76, 96
1, 670106, Note_on_c, 0, 80, 88
1, 670114, Control_c, 0, 64, 68
1, 670125, Note_off_c, 0, 93, 63
1, 670128, Control_c, 0, 64, 37
1, 670143, Control_c, 0, 64, 0
1, 670147, Note_off_c, 0, 80, 67
1, 670158, Control_c, 0, 64, 51
1, 670164, Note_off_c, 0, 76, 61
1, 670173, Control_c, 0, 64, 69
1, 670174, Note_off_c, 0, 97, 65
1, 670182, Note_on_c, 0, 85, 104
1, 670188, Control_c, 0, 64, 97
1, 670189, Note_on_c, 0, 81, 99
1, 670190, Note_on_c, 0, 77, 95
1, 670202, Control_c, 0, 64, 127
1, 670204, Note_off_c, 0, 81, 76
1, 670220, Note_off_c, 0, 85, 68
1, 670222, Note_off_c, 0, 77, 69
1, 670239, Note_on_c, 0, 93, 20
1, 670274, Note_on_c, 0, 88, 105
1, 670284, Note_off_c, 0, 93, 41
1, 670350, Note_off_c, 0, 88, 61
1, 670359, Note_on_c, 0, 93, 103
1, 670419, Note_on_c, 0, 84, 108
1, 670430, Note_on_c, 0, 97, 107
1, 670441, Note_off_c, 0, 93, 68
1, 670462, Note_off_c, 0, 97, 72
1, 670521, Control_c, 0, 64, 96
1, 670535, Control_c, 0, 64, 57
1, 670550, Control_c, 0, 64, 0
1, 670561, Note_off_c, 0, 84, 66
1, 670589, Note_on_c, 0, 82, 100
1, 670591, Note_on_c, 0, 89, 99
1, 670597, Note_on_c, 0, 101, 106
1, 670601, Note_on_c, 0, 94, 109
1, 670639, Control_c, 0, 64, 58
1, 670642, Note_off_c, 0, 94, 68
1, 670654, Control_c, 0, 64, 99
1, 670669, Control_c, 0, 64, 127
1, 670696, Note_on_c, 0, 85, 98
1, 670699, Control_c, 0, 64, 73
1, 670705, Note_on_c, 0, 97, 100
1, 670714, Note_off_c, 0, 82, 65
1, 670714, Control_c, 0, 64, 45
1, 670721, Note_off_c, 0, 89, 65
1, 670729, Control_c, 0, 64, 0
1, 670735, Note_off_c, 0, 101, 64
1, 670743, Control_c, 0, 64, 40
1, 670758, Control_c, 0, 64, 68
1, 670765, Note_off_c, 0, 85, 65
1, 670773, Control_c, 0, 64, 82
1, 670784, Note_on_c, 0, 94, 105
1, 670788, Control_c, 0, 64, 80
1, 670794, Note_on_c, 0, 88, 96
1, 670796, Note_on_c, 0, 81, 103
1, 670803, Control_c, 0, 64, 66
1, 670818, Control_c, 0, 64, 59
1, 670824, Note_off_c, 0, 97, 66
1, 670833, Control_c, 0, 64, 69
1, 670842, Note_off_c, 0, 88, 67
1, 670848, Control_c, 0, 64, 82
1, 670851, Note_off_c, 0, 94, 68
1, 670863, Control_c, 0, 64, 85
1, 670869, Note_on_c, 0, 89, 92
1, 670874, Note_on_c, 0, 84, 103
1, 670877, Control_c, 0, 64, 71
1, 670887, Note_off_c, 0, 81, 67
1, 670888, Note_on_c, 0, 91, 59
1, 670892, Control_c, 0, 64, 56
1, 670907, Control_c, 0, 64, 61
1, 670922, Control_c, 0, 64, 78
1, 670923, Note_off_c, 0, 84, 66
1, 670937, Control_c, 0, 64, 127
1, 670944, Note_off_c, 0, 89, 0
1, 670952, Note_on_c, 0, 101, 108
1, 670953, Note_on_c, 0, 94, 102
1, 670955, Note_off_c, 0, 91, 0
1, 670955, Note_on_c, 0, 91, 26
1, 670964, Note_on_c, 0, 87, 111
1, 670965, Note_on_c, 0, 89, 27
1, 670967, Note_on_c, 0, 80, 101
1, 670975, Note_on_c, 0, 84, 48
1, 670984, Note_off_c, 0, 94, 70
1, 670995, Note_off_c, 0, 84, 63
1, 671008, Note_off_c, 0, 91, 37
1, 671013, Note_off_c, 0, 89, 38
1, 671026, Note_off_c, 0, 87, 51
1, 671042, Note_off_c, 0, 80, 63
1, 671053, Note_on_c, 0, 83, 81
1, 671055, Control_c, 0, 64, 72
1, 671062, Note_on_c, 0, 84, 73
1, 671070, Control_c, 0, 64, 62
1, 671084, Control_c, 0, 64, 72
1, 671095, Note_off_c, 0, 84, 45
1, 671099, Control_c, 0, 64, 106
1, 671114, Control_c, 0, 64, 127
1, 671119, Note_on_c, 0, 79, 101
1, 671121, Note_off_c, 0, 83, 46
1, 671122, Note_on_c, 0, 86, 102
1, 671144, Control_c, 0, 64, 89
1, 671158, Control_c, 0, 64, 77
1, 671165, Note_off_c, 0, 86, 66
1, 671172, Note_off_c, 0, 79, 56
1, 671173, Control_c, 0, 64, 85
1, 671188, Control_c, 0, 64, 127
1, 671194, Note_on_c, 0, 97, 107
1, 671199, Note_on_c, 0, 82, 98
1, 671211, Note_off_c, 0, 101, 62
1, 671239, Note_on_c, 0, 96, 71
1, 671240, Control_c, 0, 64, 89
1, 671255, Control_c, 0, 64, 83
1, 671259, Note_off_c, 0, 82, 64
1, 671259, Note_off_c, 0, 97, 60
1, 671268, Note_off_c, 0, 96, 67
1, 671270, Control_c, 0, 64, 116
1, 671284, Control_c, 0, 64, 127
1, 671289, Note_on_c, 0, 94, 73
1, 671291, Note_on_c, 0, 78, 96
1, 671292, Note_on_c, 0, 93, 94
1, 671295, Note_on_c, 0, 85, 100
1, 671314, Control_c, 0, 64, 102
1, 671322, Note_off_c, 0, 78, 70
1, 671324, Note_off_c, 0, 93, 69
1, 671328, Note_off_c, 0, 94, 64
1, 671329, Control_c, 0, 64, 69
1, 671344, Control_c, 0, 64, 57
1, 671354, Note_on_c, 0, 89, 92
1, 671358, Control_c, 0, 64, 67
1, 671367, Note_on_c, 0, 81, 77
1, 671367, Note_off_c, 0, 85, 67
1, 671373, Control_c, 0, 64, 79
1, 671388, Control_c, 0, 64, 82
1, 671403, Control_c, 0, 64, 70
1, 671418, Control_c, 0, 64, 52
1, 671432, Note_on_c, 0, 77, 83
1, 671432, Control_c, 0, 64, 57
1, 671440, Note_on_c, 0, 101, 107
1, 671444, Note_on_c, 0, 94, 95
1, 671447, Control_c, 0, 64, 74
1, 671456, Note_off_c, 0, 81, 66
1, 671458, Note_on_c, 0, 84, 79
1, 671459, Note_on_c, 0, 83, 74
1, 671462, Control_c, 0, 64, 127
1, 671471, Note_off_c, 0, 89, 61
1, 671476, Note_off_c, 0, 77, 67
1, 671479, Note_off_c, 0, 83, 71
1, 671480, Note_off_c, 0, 94, 66
1, 671506, Control_c, 0, 64, 77
1, 671521, Control_c, 0, 64, 66
1, 671522, Note_on_c, 0, 80, 102
1, 671523, Note_off_c, 0, 84, 38
1, 671527, Note_on_c, 0, 97, 105
1, 671536, Control_c, 0, 64, 71
1, 671546, Note_off_c, 0, 101, 66
1, 671551, Control_c, 0, 64, 95
1, 671559, Note_off_c, 0, 80, 68
1, 671565, Control_c, 0, 64, 127
1, 671595, Control_c, 0, 64, 94
1, 671596, Note_on_c, 0, 94, 102
1, 671610, Note_on_c, 0, 77, 75
1, 671611, Control_c, 0, 64, 87
1, 671612, Note_on_c, 0, 76, 83
1, 671614, Note_on_c, 0, 83, 93
1, 671616, Note_off_c, 0, 97, 65
1, 671626, Control_c, 0, 64, 107
1, 671640, Note_off_c, 0, 94, 70
1, 671641, Control_c, 0, 64, 127
1, 671647, Note_off_c, 0, 77, 62
1, 671653, Note_off_c, 0, 76, 62
1, 671655, Note_off_c, 0, 83, 65
1, 671670, Control_c, 0, 64, 107
1, 671674, Note_on_c, 0, 79, 32
1, 671679, Note_on_c, 0, 88, 90
1, 671685, Control_c, 0, 64, 73
1, 671700, Control_c, 0, 64, 62
1, 671714, Control_c, 0, 64, 71
1, 671729, Control_c, 0, 64, 95
1, 671740, Note_off_c, 0, 79, 64
1, 671742, Note_on_c, 0, 75, 85
1, 671744, Control_c, 0, 64, 127
1, 671750, Note_on_c, 0, 82, 102
1, 671754, Note_off_c, 0, 88, 65
1, 671757, Note_on_c, 0, 97, 97
1, 671766, Note_on_c, 0, 89, 77
1, 671774, Control_c, 0, 64, 110
1, 671778, Note_off_c, 0, 75, 68
1, 671784, Note_on_c, 0, 90, 41
1, 671788, Control_c, 0, 64, 90
1, 671791, Note_off_c, 0, 89, 66
1, 671794, Note_on_c, 0, 98, 40
1, 671803, Control_c, 0, 64, 96
1, 671814, Note_off_c, 0, 90, 54
1, 671818, Control_c, 0, 64, 127
1, 671826, Note_off_c, 0, 98, 58
1, 671826, Note_off_c, 0, 82, 65
1, 671829, Note_on_c, 0, 78, 81
1, 671837, Note_on_c, 0, 94, 100
1, 671847, Control_c, 0, 64, 109
1, 671850, Note_on_c, 0, 77, 78
1, 671859, Note_off_c, 0, 97, 64
1, 671862, Control_c, 0, 64, 65
1, 671877, Control_c, 0, 64, 48
1, 671885, Note_off_c, 0, 78, 49
1, 671885, Note_off_c, 0, 77, 55
1, 671892, Control_c, 0, 64, 61
1, 671903, Note_on_c, 0, 89, 92
1, 671905, Note_on_c, 0, 81, 96
1, 671906, Control_c, 0, 64, 74
1, 671912, Note_on_c, 0, 72, 83
1, 671912, Note_on_c, 0, 74, 87
1, 671921, Control_c, 0, 64, 110
1, 671929, Note_off_c, 0, 94, 65
1, 671936, Control_c, 0, 64, 127
1, 671957, Note_off_c, 0, 81, 65
1, 671958, Note_off_c, 0, 72, 65
1, 671966, Note_off_c, 0, 89, 65
1, 671982, Note_off_c, 0, 74, 63
1, 671992, Note_on_c, 0, 77, 89
1, 671993, Note_on_c, 0, 84, 88
1, 672047, Control_c, 0, 64, 99
1, 672062, Control_c, 0, 64, 80
1, 672067, Note_on_c, 0, 73, 91
1, 672067, Note_on_c, 0, 80, 101
1, 672070, Note_on_c, 0, 94, 96
1, 672073, Note_on_c, 0, 85, 87
1, 672077, Control_c, 0, 64, 88
1, 672087, Note_off_c, 0, 77, 58
1, 672090, Note_off_c, 0, 84, 62
1, 672092, Control_c, 0, 64, 127
1, 672118, Note_off_c, 0, 85, 65
1, 672121, Note_off_c, 0, 73, 67
1, 672133, Note_off_c, 0, 80, 60
1, 672136, Control_c, 0, 64, 94
1, 672139, Note_off_c, 0, 94, 60
1, 672146, Note_on_c, 0, 89, 91
1, 672149, Note_on_c, 0, 76, 83
1, 672151, Control_c, 0, 64, 78
1, 672166, Control_c, 0, 64, 85
1, 672181, Control_c, 0, 64, 127
1, 672219, Note_on_c, 0, 85, 92
1, 672220, Note_on_c, 0, 72, 91
1, 672220, Note_on_c, 0, 79, 96
1, 672225, Control_c, 0, 64, 81
1, 672228, Note_off_c, 0, 76, 60
1, 672238, Note_off_c, 0, 89, 64
1, 672240, Control_c, 0, 64, 65
1, 672255, Control_c, 0, 64, 69
1, 672270, Control_c, 0, 64, 92
1, 672272, Note_off_c, 0, 79, 66
1, 672273, Note_off_c, 0, 85, 67
1, 672274, Note_off_c, 0, 72, 65
1, 672285, Control_c, 0, 64, 127
1, 672299, Note_on_c, 0, 75, 94
1, 672299, Note_on_c, 0, 81, 91
1, 672315, Control_c, 0, 64, 88
1, 672330, Control_c, 0, 64, 65
1, 672344, Control_c, 0, 64, 63
1, 672359, Control_c, 0, 64, 81
1, 672374, Control_c, 0, 64, 127
1, 672376, Note_on_c, 0, 80, 96
1, 672377, Note_off_c, 0, 81, 43
1, 672380, Note_on_c, 0, 78, 99
1, 672385, Note_off_c, 0, 75, 64
1, 672386, Note_on_c, 0, 71, 78
1, 672392, Note_on_c, 0, 72, 76
1, 672419, Control_c, 0, 64, 81
1, 672424, Note_off_c, 0, 71, 65
1, 672427, Note_off_c, 0, 72, 56
1, 672434, Control_c, 0, 64, 65
1, 672437, Note_off_c, 0, 80, 63
1, 672449, Control_c, 0, 64, 68
1, 672452, Note_on_c, 0, 81, 94
1, 672454, Note_on_c, 0, 74, 82
1, 672461, Note_off_c, 0, 78, 60
1, 672464, Control_c, 0, 64, 82
1, 672479, Control_c, 0, 64, 93
1, 672494, Control_c, 0, 64, 85
1, 672508, Control_c, 0, 64, 68
1, 672523, Note_on_c, 0, 77, 96
1, 672523, Control_c, 0, 64, 64
1, 672525, Note_on_c, 0, 70, 95
1, 672530, Note_on_c, 0, 82, 94
1, 672538, Control_c, 0, 64, 80
1, 672541, Note_off_c, 0, 81, 52
1, 672542, Note_off_c, 0, 74, 63
1, 672553, Control_c, 0, 64, 127
1, 672570, Note_off_c, 0, 82, 65
1, 672575, Note_off_c, 0, 77, 64
1, 672586, Note_off_c, 0, 70, 64
1, 672598, Control_c, 0, 64, 93
1, 672601, Note_on_c, 0, 85, 94
1, 672604, Note_on_c, 0, 73, 88
1, 672612, Control_c, 0, 64, 69
1, 672627, Control_c, 0, 64, 65
1, 672640, Note_off_c, 0, 85, 66
1, 672642, Control_c, 0, 64, 77
1, 672656, Control_c, 0, 64, 107
1, 672663, Note_on_c, 0, 86, 9
1, 672671, Control_c, 0, 64, 116
1, 672677, Note_on_c, 0, 69, 88
1, 672683, Note_on_c, 0, 88, 88
1, 672684, Note_on_c, 0, 89, 89
1, 672686, Note_on_c, 0, 76, 87
1, 672686, Control_c, 0, 64, 81
1, 672694, Note_off_c, 0, 73, 62
1, 672701, Control_c, 0, 64, 61
1, 672712, Note_off_c, 0, 86, 47
1, 672716, Control_c, 0, 64, 59
1, 672738, Note_off_c, 0, 88, 65
1, 672738, Control_c, 0, 64, 72
1, 672740, Note_off_c, 0, 89, 66
1, 672741, Note_off_c, 0, 76, 63
1, 672753, Control_c, 0, 64, 99
1, 672758, Note_on_c, 0, 72, 89
1, 672762, Note_on_c, 0, 94, 97
1, 672765, Note_off_c, 0, 69, 64
1, 672768, Control_c, 0, 64, 127
1, 672783, Control_c, 0, 64, 90
1, 672798, Control_c, 0, 64, 64
1, 672812, Control_c, 0, 64, 57
1, 672827, Control_c, 0, 64, 71
1, 672835, Note_on_c, 0, 97, 89
1, 672836, Note_on_c, 0, 68, 85
1, 672842, Control_c, 0, 64, 100
1, 672845, Note_off_c, 0, 94, 63
1, 672846, Note_on_c, 0, 75, 91
1, 672856, Control_c, 0, 64, 127
1, 672857, Note_off_c, 0, 72, 51
1, 672876, Note_off_c, 0, 68, 68
1, 672886, Control_c, 0, 64, 87
1, 672896, Note_on_c, 0, 101, 87
1, 672900, Note_off_c, 0, 97, 65
1, 672901, Control_c, 0, 64, 68
1, 672916, Control_c, 0, 64, 67
1, 672921, Note_off_c, 0, 75, 62
1, 672930, Control_c, 0, 64, 84
1, 672931, Note_on_c, 0, 100, 38
1, 672931, Note_off_c, 0, 100, 127
1, 672939, Note_on_c, 0, 71, 81
1, 672945, Control_c, 0, 64, 127
1, 672946, Note_off_c, 0, 101, 64
1, 672979, Note_on_c, 0, 97, 102
1, 672985, Note_on_c, 0, 67, 67
1, 673000, Note_off_c, 0, 71, 62
1, 673002, Note_on_c, 0, 74, 81
1, 673047, Note_off_c, 0, 97, 67
1, 673048, Note_on_c, 0, 101, 97
1, 673053, Note_off_c, 0, 74, 63
1, 673063, Control_c, 0, 64, 91
1, 673075, Note_on_c, 0, 70, 88
1, 673078, Control_c, 0, 64, 63
1, 673079, Note_off_c, 0, 67, 66
1, 673093, Control_c, 0, 64, 0
1, 673105, Note_off_c, 0, 101, 61
1, 673122, Control_c, 0, 64, 44
1, 673133, Note_on_c, 0, 97, 112
1, 673137, Control_c, 0, 64, 66
1, 673140, Note_off_c, 0, 70, 62
1, 673149, Note_on_c, 0, 65, 82
1, 673152, Control_c, 0, 64, 91
1, 673154, Note_on_c, 0, 72, 90
1, 673161, Note_on_c, 0, 69, 57
1, 673167, Control_c, 0, 64, 127
1, 673173, Note_off_c, 0, 65, 61
1, 673179, Note_on_c, 0, 71, 49
1, 673200, Note_off_c, 0, 72, 62
1, 673207, Note_off_c, 0, 71, 61
1, 673214, Note_on_c, 0, 101, 98
1, 673219, Note_off_c, 0, 97, 62
1, 673227, Control_c, 0, 64, 84
1, 673242, Control_c, 0, 64, 71
1, 673257, Control_c, 0, 64, 70
1, 673266, Note_on_c, 0, 63, 85
1, 673272, Control_c, 0, 64, 77
1, 673275, Note_on_c, 0, 70, 91
1, 673285, Note_on_c, 0, 94, 100
1, 673286, Control_c, 0, 64, 86
1, 673294, Note_off_c, 0, 101, 60
1, 673295, Note_off_c, 0, 69, 62
1, 673301, Control_c, 0, 64, 89
1, 673308, Note_off_c, 0, 63, 64
1, 673312, Note_off_c, 0, 70, 67
1, 673316, Control_c, 0, 64, 84
1, 673322, Note_on_c, 0, 71, 51
1, 673331, Control_c, 0, 64, 76
1, 673346, Control_c, 0, 64, 75
1, 673347, Note_on_c, 0, 67, 80
1, 673352, Note_off_c, 0, 94, 66
1, 673352, Note_on_c, 0, 97, 86
1, 673361, Control_c, 0, 64, 76
1, 673372, Note_off_c, 0, 71, 46
1, 673376, Control_c, 0, 64, 73
1, 673391, Control_c, 0, 64, 63
1, 673396, Note_off_c, 0, 67, 62
1, 673406, Control_c, 0, 64, 51
1, 673417, Note_off_c, 0, 97, 65
1, 673421, Note_on_c, 0, 71, 88
1, 673421, Control_c, 0, 64, 56
1, 673424, Note_on_c, 0, 64, 82
1, 673435, Control_c, 0, 64, 68
1, 673438, Note_on_c, 0, 88, 86
1, 673450, Control_c, 0, 64, 94
1, 673454, Note_on_c, 0, 89, 62
1, 673465, Control_c, 0, 64, 127
1, 673468, Note_off_c, 0, 71, 66
1, 673481, Note_off_c, 0, 89, 62
1, 673489, Note_off_c, 0, 88, 66
1, 673509, Note_on_c, 0, 67, 87
1, 673517, Note_on_c, 0, 94, 96
1, 673517, Control_c, 0, 64, 107
1, 673520, Note_on_c, 0, 69, 72
1, 673532, Note_off_c, 0, 64, 41
1, 673540, Note_off_c, 0, 69, 40
1, 673547, Control_c, 0, 64, 113
1, 673556, Note_off_c, 0, 67, 65
1, 673561, Control_c, 0, 64, 102
1, 673572, Note_off_c, 0, 94, 64
1, 673576, Control_c, 0, 64, 83
1, 673587, Note_on_c, 0, 72, 88
1, 673591, Note_on_c, 0, 85, 93
1, 673591, Control_c, 0, 64, 72
1, 673603, Note_on_c, 0, 65, 83
1, 673606, Control_c, 0, 64, 75
1, 673621, Control_c, 0, 64, 94
1, 673635, Control_c, 0, 64, 127
1, 673640, Note_off_c, 0, 72, 63
1, 673644, Note_on_c, 0, 68, 92
1, 673651, Note_off_c, 0, 65, 66
1, 673665, Control_c, 0, 64, 97
1, 673666, Note_on_c, 0, 89, 90
1, 673674, Note_off_c, 0, 85, 64
1, 673680, Control_c, 0, 64, 68
1, 673695, Control_c, 0, 64, 54
1, 673696, Note_off_c, 0, 68, 67
1, 673710, Control_c, 0, 64, 62
1, 673725, Control_c, 0, 64, 73
1, 673739, Note_on_c, 0, 73, 101
1, 673740, Control_c, 0, 64, 95
1, 673741, Note_on_c, 0, 94, 90
1, 673743, Note_on_c, 0, 66, 94
1, 673748, Note_off_c, 0, 89, 64
1, 673754, Control_c, 0, 64, 127
1, 673787, Note_off_c, 0, 73, 66
1, 673795, Note_off_c, 0, 66, 55
1, 673798, Control_c, 0, 64, 119
1, 673811, Note_on_c, 0, 97, 93
1, 673813, Control_c, 0, 64, 101
1, 673828, Note_on_c, 0, 68, 82
1, 673828, Control_c, 0, 64, 79
1, 673841, Note_off_c, 0, 68, 70
1, 673843, Note_off_c, 0, 94, 65
1, 673843, Control_c, 0, 64, 58
1, 673858, Control_c, 0, 64, 0
1, 673861, Note_on_c, 0, 69, 55
1, 673872, Control_c, 0, 64, 41
1, 673883, Note_off_c, 0, 69, 62
1, 673885, Poly_aftertouch_c, 0, 66, 0
1, 673887, Control_c, 0, 64, 64
1, 673889, Note_on_c, 0, 89, 80
1, 673893, Note_on_c, 0, 74, 89
1, 673898, Note_off_c, 0, 97, 65
1, 673902, Control_c, 0, 64, 83
1, 673909, Note_on_c, 0, 67, 62
1, 673917, Control_c, 0, 64, 127
1, 673918, Note_on_c, 0, 88, 43
1, 673918, Note_off_c, 0, 88, 127
1, 673956, Note_off_c, 0, 74, 64
1, 673961, Note_on_c, 0, 94, 88
1, 673961, Control_c, 0, 64, 109
1, 673963, Note_on_c, 0, 70, 95
1, 673973, Note_off_c, 0, 67, 64
1, 673975, Note_off_c, 0, 89, 62
1, 674007, Control_c, 0, 64, 100
1, 674012, Note_off_c, 0, 94, 67
1, 674017, Note_off_c, 0, 70, 64
1, 674021, Control_c, 0, 64, 79
1, 674036, Control_c, 0, 64, 64
1, 674041, Note_on_c, 0, 75, 102
1, 674047, Note_on_c, 0, 68, 92
1, 674047, Note_on_c, 0, 84, 89
1, 674051, Control_c, 0, 64, 63
1, 674066, Control_c, 0, 64, 74
1, 674081, Control_c, 0, 64, 99
1, 674085, Note_off_c, 0, 68, 66
1, 674088, Note_off_c, 0, 84, 66
1, 674095, Control_c, 0, 64, 127
1, 674100, Note_off_c, 0, 75, 53
1, 674106, Note_on_c, 0, 89, 91
1, 674125, Control_c, 0, 64, 90
1, 674135, Note_on_c, 0, 72, 80
1, 674140, Control_c, 0, 64, 72
1, 674148, Note_off_c, 0, 89, 66
1, 674148, Note_on_c, 0, 69, 47
1, 674155, Control_c, 0, 64, 74
1, 674166, Note_off_c, 0, 72, 66
1, 674169, Control_c, 0, 64, 100
1, 674184, Control_c, 0, 64, 127
1, 674188, Note_off_c, 0, 69, 0
1, 674199, Note_on_c, 0, 69, 62
1, 674199, Note_on_c, 0, 76, 95
1, 674199, Note_on_c, 0, 83, 90
1, 674201, Note_on_c, 0, 89, 95
1, 674236, Control_c, 0, 64, 95
1, 674239, Note_off_c, 0, 89, 64
1, 674245, Note_off_c, 0, 83, 66
1, 674251, Control_c, 0, 64, 97
1, 674263, Note_off_c, 0, 69, 60
1, 674264, Note_on_c, 0, 72, 79
1, 674266, Control_c, 0, 64, 127
1, 674280, Note_off_c, 0, 76, 55
1, 674284, Note_on_c, 0, 89, 92
1, 674310, Control_c, 0, 64, 94
1, 674321, Note_off_c, 0, 72, 64
1, 674325, Control_c, 0, 64, 65
1, 674327, Note_off_c, 0, 89, 64
1, 674340, Control_c, 0, 64, 0
1, 674366, Note_on_c, 0, 89, 98
1, 674367, Note_on_c, 0, 70, 97
1, 674367, Note_on_c, 0, 77, 91
1, 674369, Note_on_c, 0, 82, 95
1, 674384, Control_c, 0, 64, 43
1, 674399, Control_c, 0, 64, 72
1, 674401, Note_off_c, 0, 82, 67
1, 674414, Control_c, 0, 64, 127
1, 674425, Note_off_c, 0, 70, 63
1, 674431, Note_off_c, 0, 77, 0
1, 674440, Note_on_c, 0, 73, 92
1, 674451, Note_on_c, 0, 85, 99
1, 674455, Poly_aftertouch_c, 0, 77, 0
1, 674463, Note_off_c, 0, 89, 65
1, 674488, Control_c, 0, 64, 117
1, 674503, Control_c, 0, 64, 102
1, 674518, Control_c, 0, 64, 88
1, 674525, Note_on_c, 0, 69, 91
1, 674525, Note_on_c, 0, 76, 87
1, 674529, Note_on_c, 0, 82, 89
1, 674532, Control_c, 0, 64, 77
1, 674538, Note_off_c, 0, 73, 63
1, 674547, Control_c, 0, 64, 75
1, 674556, Note_off_c, 0, 85, 64
1, 674562, Control_c, 0, 64, 80
1, 674571, Note_off_c, 0, 76, 66
1, 674577, Control_c, 0, 64, 88
1, 674592, Control_c, 0, 64, 87
1, 674597, Note_on_c, 0, 72, 85
1, 674598, Note_off_c, 0, 69, 62
1, 674598, Note_off_c, 0, 82, 62
1, 674599, Note_on_c, 0, 77, 81
1, 674607, Control_c, 0, 64, 75
1, 674622, Control_c, 0, 64, 62
1, 674636, Control_c, 0, 64, 56
1, 674651, Control_c, 0, 64, 67
1, 674666, Control_c, 0, 64, 81
1, 674670, Note_off_c, 0, 77, 64
1, 674674, Note_on_c, 0, 89, 107
1, 674680, Note_on_c, 0, 75, 90
1, 674681, Control_c, 0, 64, 127
1, 674688, Note_on_c, 0, 68, 83
1, 674696, Note_off_c, 0, 72, 57
1, 674710, Note_on_c, 0, 82, 41
1, 674723, Note_off_c, 0, 68, 63
1, 674725, Note_off_c, 0, 89, 66
1, 674739, Note_off_c, 0, 82, 53
1, 674756, Note_off_c, 0, 75, 60
1, 674763, Note_on_c, 0, 71, 77
1, 674834, Note_on_c, 0, 67, 79
1, 674834, Note_off_c, 0, 71, 63
1, 674837, Note_on_c, 0, 74, 76
1, 674891, Note_off_c, 0, 74, 63
1, 674917, Note_on_c, 0, 70, 81
1, 674918, Control_c, 0, 64, 119
1, 674922, Note_on_c, 0, 85, 97
1, 674923, Note_off_c, 0, 67, 63
1, 674933, Control_c, 0, 64, 101
1, 674948, Control_c, 0, 64, 90
1, 674963, Control_c, 0, 64, 81
1, 674982, Note_off_c, 0, 85, 67
1, 674986, Control_c, 0, 64, 77
1, 674999, Note_on_c, 0, 66, 87
1, 675000, Control_c, 0, 64, 78
1, 675000, Note_off_c, 0, 70, 62
1, 675002, Note_on_c, 0, 82, 96
1, 675006, Note_on_c, 0, 73, 89
1, 675015, Control_c, 0, 64, 82
1, 675030, Control_c, 0, 64, 82
1, 675043, Note_off_c, 0, 66, 65
1, 675045, Control_c, 0, 64, 76
1, 675045, Control_c, 0, 67, 21
1, 675059, Control_c, 0, 64, 70
1, 675059, Control_c, 0, 67, 23
1, 675066, Note_off_c, 0, 82, 51
1, 675074, Control_c, 0, 64, 71
1, 675081, Note_on_c, 0, 69, 72
1, 675082, Note_on_c, 0, 77, 81
1, 675089, Control_c, 0, 64, 81
1, 675089, Control_c, 0, 67, 25
1, 675093, Note_off_c, 0, 73, 63
1, 675104, Control_c, 0, 64, 92
1, 675119, Control_c, 0, 64, 90
1, 675133, Control_c, 0, 64, 78
1, 675142, Note_off_c, 0, 77, 62
1, 675148, Control_c, 0, 64, 69
1, 675153, Note_on_c, 0, 89, 103
1, 675154, Note_on_c, 0, 65, 81
1, 675163, Note_on_c, 0, 82, 89
1, 675163, Control_c, 0, 64, 74
1, 675167, Note_on_c, 0, 72, 74
1, 675170, Note_off_c, 0, 69, 62
1, 675178, Control_c, 0, 64, 95
1, 675183, Note_off_c, 0, 82, 69
1, 675194, Control_c, 0, 64, 127
1, 675199, Note_off_c, 0, 65, 59
1, 675218, Note_off_c, 0, 72, 57
1, 675236, Note_on_c, 0, 85, 105
1, 675238, Control_c, 0, 64, 77
1, 675240, Note_on_c, 0, 68, 80
1, 675248, Note_off_c, 0, 89, 61
1, 675252, Control_c, 0, 64, 59
1, 675267, Control_c, 0, 64, 62
1, 675267, Control_c, 0, 67, 23
1, 675282, Control_c, 0, 64, 71
1, 675297, Control_c, 0, 64, 84
1, 675306, Note_on_c, 0, 82, 96
1, 675307, Note_on_c, 0, 64, 75
1, 675312, Control_c, 0, 64, 113
1, 675316, Note_off_c, 0, 85, 65
1, 675321, Note_off_c, 0, 68, 62
1, 675323, Note_on_c, 0, 71, 72
1, 675326, Control_c, 0, 64, 127
1, 675342, Note_off_c, 0, 82, 67
1, 675369, Note_off_c, 0, 71, 61
1, 675378, Note_on_c, 0, 76, 83
1, 675379, Note_on_c, 0, 67, 82
1, 675379, Note_off_c, 0, 64, 62
1, 675385, Control_c, 0, 64, 116
1, 675400, Control_c, 0, 64, 79
1, 675415, Control_c, 0, 64, 60
1, 675430, Note_off_c, 0, 67, 64
1, 675430, Control_c, 0, 64, 46
1, 675445, Control_c, 0, 64, 60
1, 675454, Note_on_c, 0, 85, 93
1, 675454, Note_off_c, 0, 76, 59
1, 675458, Note_on_c, 0, 70, 87
1, 675459, Note_on_c, 0, 63, 78
1, 675460, Control_c, 0, 64, 70
1, 675466, Note_on_c, 0, 77, 70
1, 675474, Control_c, 0, 64, 85
1, 675474, Control_c, 0, 67, 25
1, 675489, Note_off_c, 0, 77, 69
1, 675489, Control_c, 0, 64, 89
1, 675504, Note_off_c, 0, 63, 62
1, 675504, Control_c, 0, 64, 76
1, 675519, Control_c, 0, 64, 60
1, 675528, Note_on_c, 0, 82, 99
1, 675534, Control_c, 0, 64, 51
1, 675535, Note_on_c, 0, 66, 80
1, 675540, Note_off_c, 0, 70, 66
1, 675548, Note_off_c, 0, 85, 63
1, 675549, Control_c, 0, 64, 62
1, 675564, Control_c, 0, 64, 72
1, 675578, Control_c, 0, 64, 86
1, 675594, Control_c, 0, 64, 102
1, 675606, Note_on_c, 0, 62, 85
1, 675606, Note_on_c, 0, 77, 83
1, 675607, Note_on_c, 0, 69, 85
1, 675609, Control_c, 0, 64, 127
1, 675609, Control_c, 0, 67, 23
1, 675611, Note_off_c, 0, 66, 63
1, 675616, Note_off_c, 0, 82, 64
1, 675656, Note_off_c, 0, 69, 61
1, 675663, Note_off_c, 0, 77, 63
1, 675668, Control_c, 0, 64, 116
1, 675678, Note_on_c, 0, 65, 80
1, 675678, Note_off_c, 0, 62, 63
1, 675683, Control_c, 0, 64, 76
1, 675685, Note_on_c, 0, 72, 78
1, 675698, Control_c, 0, 64, 60
1, 675713, Control_c, 0, 64, 61
1, 675735, Control_c, 0, 64, 69
1, 675747, Note_off_c, 0, 65, 55
1, 675749, Control_c, 0, 64, 86
1, 675760, Note_on_c, 0, 61, 80
1, 675764, Note_on_c, 0, 68, 91
1, 675764, Control_c, 0, 64, 127
1, 675764, Control_c, 0, 67, 25
1, 675770, Note_on_c, 0, 82, 90
1, 675775, Note_on_c, 0, 73, 83
1, 675784, Note_off_c, 0, 72, 61
1, 675808, Note_off_c, 0, 73, 59
1, 675808, Control_c, 0, 64, 93
1, 675811, Note_off_c, 0, 82, 63
1, 675812, Note_off_c, 0, 61, 63
1, 675823, Control_c, 0, 64, 69
1, 675829, Note_on_c, 0, 81, 35
1, 675838, Control_c, 0, 64, 62
1, 675841, Note_off_c, 0, 68, 64
1, 675841, Note_on_c, 0, 77, 77
1, 675853, Note_on_c, 0, 64, 72
1, 675853, Control_c, 0, 64, 70
1, 675865, Note_off_c, 0, 81, 44
1, 675868, Control_c, 0, 64, 83
1, 675868, Control_c, 0, 67, 23
1, 675883, Control_c, 0, 64, 112
1, 675898, Control_c, 0, 64, 127
1, 675906, Note_on_c, 0, 60, 75
1, 675912, Note_on_c, 0, 73, 82
1, 675913, Control_c, 0, 64, 115
1, 675920, Note_off_c, 0, 64, 50
1, 675924, Note_off_c, 0, 77, 63
1, 675928, Control_c, 0, 64, 99
1, 675928, Note_on_c, 0, 67, 78
1, 675942, Control_c, 0, 64, 102
1, 675954, Note_off_c, 0, 73, 65
1, 675956, Control_c, 0, 64, 127
1, 675972, Note_off_c, 0, 60, 62
1, 675985, Note_off_c, 0, 67, 0
1, 675986, Note_on_c, 0, 69, 81
1, 675986, Control_c, 0, 64, 111
1, 675998, Note_on_c, 0, 63, 75
1, 676000, Control_c, 0, 64, 77
1, 676000, Control_c, 0, 67, 21
1, 676015, Control_c, 0, 64, 63
1, 676030, Control_c, 0, 64, 64
1, 676036, Poly_aftertouch_c, 0, 67, 0
1, 676045, Control_c, 0, 64, 80
1, 676053, Note_off_c, 0, 63, 63
1, 676056, Note_on_c, 0, 58, 64
1, 676056, Note_on_c, 0, 59, 67
1, 676060, Control_c, 0, 64, 127
1, 676064, Note_on_c, 0, 68, 89
1, 676068, Note_on_c, 0, 66, 81
1, 676071, Note_off_c, 0, 69, 59
1, 676086, Note_off_c, 0, 58, 68
1, 676089, Control_c, 0, 67, 23
1, 676100, Note_off_c, 0, 59, 62
1, 676104, Control_c, 0, 64, 96
1, 676119, Control_c, 0, 64, 71
1, 676121, Note_off_c, 0, 68, 63
1, 676134, Control_c, 0, 64, 62
1, 676138, Note_on_c, 0, 62, 77
1, 676140, Note_on_c, 0, 69, 81
1, 676145, Note_off_c, 0, 66, 60
1, 676148, Control_c, 0, 64, 69
1, 676163, Control_c, 0, 64, 80
1, 676163, Control_c, 0, 67, 21
1, 676178, Control_c, 0, 64, 99
1, 676193, Control_c, 0, 64, 104
1, 676203, Note_on_c, 0, 58, 79
1, 676208, Control_c, 0, 64, 99
1, 676214, Note_on_c, 0, 65, 82
1, 676217, Note_off_c, 0, 62, 57
1, 676221, Note_on_c, 0, 70, 88
1, 676226, Note_off_c, 0, 69, 57
1, 676263, Note_off_c, 0, 58, 63
1, 676267, Control_c, 0, 64, 76
1, 676279, Note_off_c, 0, 70, 64
1, 676281, Note_off_c, 0, 65, 51
1, 676282, Control_c, 0, 64, 58
1, 676283, Note_on_c, 0, 73, 86
1, 676286, Note_on_c, 0, 61, 81
1, 676297, Control_c, 0, 64, 35
1, 676312, Control_c, 0, 64, 47
1, 676314, Note_off_c, 0, 73, 69
1, 676327, Control_c, 0, 64, 63
1, 676341, Control_c, 0, 64, 80
1, 676355, Note_on_c, 0, 57, 78
1, 676356, Control_c, 0, 64, 89
1, 676366, Note_on_c, 0, 77, 86
1, 676367, Note_off_c, 0, 61, 58
1, 676368, Note_on_c, 0, 64, 74
1, 676371, Control_c, 0, 64, 75
1, 676386, Control_c, 0, 64, 50
1, 676401, Control_c, 0, 64, 0
1, 676401, Control_c, 0, 67, 0
1, 676416, Control_c, 0, 64, 41
1, 676422, Note_off_c, 0, 77, 63
1, 676431, Control_c, 0, 64, 63
1, 676435, Note_on_c, 0, 60, 87
1, 676438, Note_on_c, 0, 82, 95
1, 676443, Note_off_c, 0, 64, 64
1, 676446, Control_c, 0, 64, 83
1, 676447, Note_off_c, 0, 57, 63
1, 676461, Control_c, 0, 64, 101
1, 676498, Control_c, 0, 64, 97
1, 676512, Note_on_c, 0, 56, 87
1, 676512, Control_c, 0, 64, 127
1, 676513, Note_on_c, 0, 85, 94
1, 676523, Note_off_c, 0, 82, 62
1, 676532, Note_on_c, 0, 63, 93
1, 676541, Note_off_c, 0, 60, 58
1, 676547, Note_off_c, 0, 56, 65
1, 676582, Note_on_c, 0, 89, 95
1, 676589, Note_off_c, 0, 85, 64
1, 676603, Note_on_c, 0, 88, 57
1, 676603, Note_off_c, 0, 88, 127
1, 676607, Note_off_c, 0, 63, 65
1, 676628, Note_on_c, 0, 55, 80
1, 676628, Note_off_c, 0, 89, 64
1, 676632, Note_on_c, 0, 59, 69
1, 676638, Note_on_c, 0, 62, 56
1, 676652, Note_on_c, 0, 85, 96
1, 676663, Note_off_c, 0, 62, 63
1, 676676, Note_off_c, 0, 55, 64
1, 676676, Control_c, 0, 64, 99
1, 676677, Note_off_c, 0, 59, 67
1, 676691, Control_c, 0, 64, 91
1, 676698, Note_on_c, 0, 86, 72
1, 676705, Control_c, 0, 64, 90
1, 676706, Note_off_c, 0, 85, 66
1, 676712, Note_on_c, 0, 89, 92
1, 676717, Note_off_c, 0, 86, 68
1, 676718, Note_on_c, 0, 91, 84
1, 676720, Control_c, 0, 64, 74
1, 676733, Note_off_c, 0, 91, 43
1, 676735, Control_c, 0, 64, 49
1, 676746, Note_off_c, 0, 89, 66
1, 676749, Control_c, 0, 64, 0
1, 676812, Note_on_c, 0, 66, 99
1, 676814, Note_on_c, 0, 54, 101
1, 676817, Note_on_c, 0, 58, 92
1, 676820, Note_on_c, 0, 94, 102
1, 676822, Note_on_c, 0, 82, 92
1, 676823, Control_c, 0, 64, 59
1, 676838, Note_off_c, 0, 58, 71
1, 676838, Control_c, 0, 64, 127
1, 676842, Note_off_c, 0, 66, 68
1, 676849, Note_off_c, 0, 54, 61
1, 676857, Note_off_c, 0, 82, 62
1, 676899, Note_off_c, 0, 94, 64
1, 676905, Note_on_c, 0, 92, 102
1, 676978, Note_on_c, 0, 90, 96
1, 676995, Note_off_c, 0, 92, 66
1, 677030, Control_c, 0, 64, 98
1, 677042, Note_on_c, 0, 65, 83
1, 677042, Note_off_c, 0, 90, 64
1, 677045, Control_c, 0, 64, 61
1, 677048, Note_on_c, 0, 89, 87
1, 677060, Control_c, 0, 64, 0
1, 677117, Note_off_c, 0, 65, 43
1, 677117, Note_on_c, 0, 63, 80
1, 677120, Control_c, 0, 64, 63
1, 677126, Note_on_c, 0, 87, 89
1, 677128, Note_off_c, 0, 89, 50
1, 677135, Control_c, 0, 64, 88
1, 677149, Control_c, 0, 64, 127
1, 677174, Note_off_c, 0, 63, 64
1, 677196, Note_on_c, 0, 85, 88
1, 677211, Note_on_c, 0, 61, 35
1, 677219, Note_on_c, 0, 62, 55
1, 677236, Note_off_c, 0, 87, 64
1, 677244, Note_off_c, 0, 62, 59
1, 677253, Note_off_c, 0, 61, 32
1, 677264, Note_on_c, 0, 84, 88
1, 677264, Note_off_c, 0, 85, 65
1, 677269, Note_on_c, 0, 60, 69
1, 677281, Note_off_c, 0, 84, 74
1, 677316, Note_on_c, 0, 82, 93
1, 677323, Note_on_c, 0, 58, 76
1, 677346, Note_off_c, 0, 82, 68
1, 677346, Note_off_c, 0, 60, 64
1, 677365, Control_c, 0, 64, 92
1, 677380, Control_c, 0, 64, 56
1, 677382, Note_off_c, 0, 58, 64
1, 677395, Control_c, 0, 64, 0
1, 677413, Note_on_c, 0, 83, 104
1, 677418, Note_on_c, 0, 71, 99
1, 677419, Note_on_c, 0, 59, 97
1, 677422, Note_on_c, 0, 52, 100
1, 677424, Note_on_c, 0, 48, 87
1, 677439, Note_off_c, 0, 83, 69
1, 677454, Control_c, 0, 64, 57
1, 677459, Note_off_c, 0, 59, 64
1, 677463, Note_off_c, 0, 52, 66
1, 677468, Note_off_c, 0, 71, 66
1, 677469, Note_off_c, 0, 48, 65
1, 677469, Control_c, 0, 64, 127
1, 677521, Note_on_c, 0, 69, 85
1, 677590, Note_on_c, 0, 67, 89
1, 677618, Note_off_c, 0, 69, 59
1, 677662, Note_on_c, 0, 66, 91
1, 677683, Note_off_c, 0, 67, 65
1, 677707, Note_off_c, 0, 66, 67
1, 677707, Control_c, 0, 64, 77
1, 677721, Control_c, 0, 64, 0
1, 677734, Note_on_c, 0, 64, 90
1, 677800, Note_on_c, 0, 62, 92
1, 677820, Note_off_c, 0, 64, 61
1, 677871, Note_on_c, 0, 61, 88
1, 677894, Note_off_c, 0, 62, 65
1, 677927, Note_off_c, 0, 61, 66
1, 677929, Note_on_c, 0, 59, 84
1, 678006, Note_on_c, 0, 60, 94
1, 678009, Note_on_c, 0, 38, 95
1, 678010, Note_on_c, 0, 42, 98
1, 678010, Note_on_c, 0, 48, 105
1, 678017, Note_off_c, 0, 59, 66
1, 678026, Control_c, 0, 64, 49
1, 678041, Control_c, 0, 64, 122
1, 678053, Note_on_c, 0, 40, 41
1, 678056, Control_c, 0, 64, 127
1, 678081, Note_off_c, 0, 42, 69
1, 678081, Note_off_c, 0, 48, 66
1, 678089, Note_off_c, 0, 38, 65
1, 678092, Note_on_c, 0, 58, 96
1, 678107, Note_off_c, 0, 40, 41
1, 678121, Note_off_c, 0, 60, 65
1, 678136, Poly_aftertouch_c, 0, 41, 0
1, 678157, Note_on_c, 0, 57, 93
1, 678198, Note_off_c, 0, 58, 66
1, 678219, Note_off_c, 0, 57, 62
1, 678238, Note_on_c, 0, 55, 81
1, 678248, Control_c, 0, 64, 67
1, 678263, Control_c, 0, 64, 0
1, 678279, Note_off_c, 0, 55, 65
1, 678292, Control_c, 0, 64, 53
1, 678302, Note_on_c, 0, 53, 70
1, 678307, Control_c, 0, 64, 77
1, 678322, Control_c, 0, 64, 127
1, 678366, Note_on_c, 0, 51, 84
1, 678403, Note_on_c, 0, 49, 93
1, 678405, Note_off_c, 0, 53, 62
1, 678436, Note_off_c, 0, 51, 65
1, 678461, Note_on_c, 0, 48, 88
1, 678467, Note_off_c, 0, 49, 65
1, 678495, Note_off_c, 0, 48, 64
1, 678515, Control_c, 0, 64, 81
1, 678530, Control_c, 0, 64, 49
1, 678544, Control_c, 0, 64, 0
1, 678588, Control_c, 0, 64, 43
1, 678603, Control_c, 0, 64, 65
1, 678604, Note_on_c, 0, 22, 101
1, 678609, Note_on_c, 0, 34, 110
1, 678618, Control_c, 0, 64, 80
1, 678633, Control_c, 0, 64, 127
1, 678638, Note_on_c, 0, 33, 60
1, 678643, Note_off_c, 0, 34, 65
1, 678653, Note_off_c, 0, 22, 65
1, 678664, Note_off_c, 0, 33, 60
1, 678908, Control_c, 0, 64, 94
1, 678923, Control_c, 0, 64, 58
1, 678938, Control_c, 0, 64, 0
1, 679256, Note_on_c, 0, 48, 84
1, 679333, Note_on_c, 0, 46, 86
1, 679338, Control_c, 0, 64, 52
1, 679352, Control_c, 0, 64, 62
1, 679363, Note_off_c, 0, 48, 65
1, 679367, Control_c, 0, 64, 62
1, 679382, Control_c, 0, 64, 64
1, 679397, Control_c, 0, 64, 65
1, 679400, Note_on_c, 0, 45, 81
1, 679411, Control_c, 0, 64, 65
1, 679431, Note_off_c, 0, 46, 65
1, 679441, Control_c, 0, 64, 61
1, 679456, Control_c, 0, 64, 47
1, 679471, Note_on_c, 0, 43, 84
1, 679471, Note_off_c, 0, 45, 65
1, 679478, Control_c, 0, 64, 0
1, 679537, Control_c, 0, 64, 41
1, 679542, Note_on_c, 0, 41, 85
1, 679547, Note_off_c, 0, 43, 44
1, 679552, Control_c, 0, 64, 61
1, 679567, Control_c, 0, 64, 71
1, 679582, Control_c, 0, 64, 79
1, 679597, Control_c, 0, 64, 89
1, 679610, Note_on_c, 0, 39, 90
1, 679612, Control_c, 0, 64, 97
1, 679627, Control_c, 0, 64, 116
1, 679639, Note_off_c, 0, 41, 63
1, 679642, Control_c, 0, 64, 127
1, 679660, Note_on_c, 0, 37, 85
1, 679689, Note_off_c, 0, 39, 63
1, 679710, Note_off_c, 0, 37, 64
1, 679714, Note_on_c, 0, 36, 91
1, 679745, Control_c, 0, 64, 100
1, 679760, Control_c, 0, 64, 75
1, 679765, Note_off_c, 0, 36, 64
1, 679774, Control_c, 0, 64, 63
1, 679789, Control_c, 0, 64, 60
1, 679797, Note_on_c, 0, 22, 91
1, 679800, Note_on_c, 0, 34, 101
1, 679804, Control_c, 0, 64, 65
1, 679819, Control_c, 0, 64, 70
1, 679834, Control_c, 0, 64, 78
1, 679839, Note_off_c, 0, 22, 64
1, 679848, Control_c, 0, 64, 88
1, 679850, Note_off_c, 0, 34, 66
1, 679863, Control_c, 0, 64, 108
1, 679878, Control_c, 0, 64, 127
1, 679903, Poly_aftertouch_c, 0, 36, 0
1, 680101, Control_c, 0, 64, 86
1, 680115, Control_c, 0, 64, 60
1, 680130, Control_c, 0, 64, 0
1, 680474, Note_on_c, 0, 40, 84
1, 680524, Control_c, 0, 64, 30
1, 680538, Control_c, 0, 64, 55
1, 680542, Note_on_c, 0, 37, 81
1, 680553, Control_c, 0, 64, 60
1, 680563, Note_off_c, 0, 40, 62
1, 680568, Control_c, 0, 64, 62
1, 680583, Control_c, 0, 64, 63
1, 680597, Control_c, 0, 64, 65
1, 680603, Note_on_c, 0, 35, 84
1, 680612, Control_c, 0, 64, 68
1, 680625, Note_off_c, 0, 37, 63
1, 680627, Control_c, 0, 64, 72
1, 680642, Control_c, 0, 64, 75
1, 680656, Note_on_c, 0, 33, 84
1, 680657, Control_c, 0, 64, 77
1, 680658, Note_off_c, 0, 35, 62
1, 680686, Control_c, 0, 64, 76
1, 680699, Note_off_c, 0, 33, 63
1, 680716, Control_c, 0, 64, 78
1, 680721, Note_on_c, 0, 30, 88
1, 680731, Control_c, 0, 64, 84
1, 680745, Control_c, 0, 64, 92
1, 680760, Control_c, 0, 64, 103
1, 680768, Note_off_c, 0, 30, 65
1, 680775, Control_c, 0, 64, 116
1, 680781, Note_on_c, 0, 28, 96
1, 680789, Control_c, 0, 64, 127
1, 680793, Note_on_c, 0, 29, 64
1, 680821, Note_off_c, 0, 28, 65
1, 680825, Note_off_c, 0, 29, 53
1, 680860, Note_on_c, 0, 25, 96
1, 680916, Note_on_c, 0, 23, 97
1, 680926, Note_off_c, 0, 25, 63
1, 680983, Note_off_c, 0, 23, 64
1, 680989, Control_c, 0, 64, 88
1, 681004, Control_c, 0, 64, 69
1, 681019, Control_c, 0, 64, 56
1, 681020, Note_on_c, 0, 21, 123
1, 681046, Note_on_c, 0, 22, 57
1, 681046, Note_off_c, 0, 22, 127
1, 681049, Control_c, 0, 64, 65
1, 681056, Note_off_c, 0, 21, 67
1, 681064, Control_c, 0, 64, 79
1, 681079, Control_c, 0, 64, 127
1, 681098, Poly_aftertouch_c, 0, 22, 0
1, 681376, Control_c, 0, 64, 86
1, 681391, Control_c, 0, 64, 65
1, 681406, Control_c, 0, 64, 48
1, 681420, Control_c, 0, 64, 0
1, 681913, Note_on_c, 0, 41, 96
1, 681921, Note_on_c, 0, 29, 101
1, 681945, Control_c, 0, 64, 48
1, 681960, Control_c, 0, 64, 87
1, 681975, Control_c, 0, 64, 127
1, 682020, Note_on_c, 0, 42, 89
1, 682040, Note_off_c, 0, 41, 61
1, 682045, Note_on_c, 0, 30, 86
1, 682075, Note_off_c, 0, 29, 64
1, 682084, Note_on_c, 0, 44, 81
1, 682098, Note_on_c, 0, 32, 81
1, 682114, Note_off_c, 0, 42, 63
1, 682137, Note_off_c, 0, 30, 63
1, 682143, Note_on_c, 0, 46, 66
1, 682143, Note_off_c, 0, 44, 66
1, 682145, Note_on_c, 0, 34, 76
1, 682166, Note_off_c, 0, 46, 63
1, 682173, Note_off_c, 0, 32, 61
1, 682183, Note_on_c, 0, 48, 81
1, 682200, Note_on_c, 0, 36, 74
1, 682208, Note_off_c, 0, 34, 63
1, 682232, Note_on_c, 0, 35, 30
1, 682253, Note_on_c, 0, 49, 81
1, 682255, Note_off_c, 0, 48, 63
1, 682271, Note_off_c, 0, 35, 46
1, 682283, Note_on_c, 0, 37, 92
1, 682296, Note_on_c, 0, 51, 87
1, 682296, Note_off_c, 0, 49, 65
1, 682308, Note_off_c, 0, 36, 48
1, 682341, Note_on_c, 0, 39, 63
1, 682342, Note_off_c, 0, 51, 60
1, 682347, Note_off_c, 0, 37, 63
1, 682354, Note_on_c, 0, 53, 92
1, 682357, Note_on_c, 0, 38, 78
1, 682388, Note_off_c, 0, 38, 64
1, 682414, Note_off_c, 0, 39, 37
1, 682420, Note_on_c, 0, 54, 113
1, 682433, Note_on_c, 0, 40, 101
1, 682453, Note_off_c, 0, 53, 63
1, 682501, Control_c, 0, 64, 97
1, 682516, Control_c, 0, 64, 59
1, 682531, Control_c, 0, 64, 0
1, 683022, Control_c, 0, 64, 35
1, 683037, Control_c, 0, 64, 49
1, 683052, Control_c, 0, 64, 56
1, 683066, Control_c, 0, 64, 61
1, 683081, Control_c, 0, 64, 64
1, 683096, Control_c, 0, 64, 66
1, 683110, Control_c, 0, 64, 68
1, 683125, Control_c, 0, 64, 72
1, 683140, Control_c, 0, 64, 79
1, 683155, Control_c, 0, 64, 88
1, 683170, Control_c, 0, 64, 100
1, 683184, Control_c, 0, 64, 126
1, 683293, Note_off_c, 0, 54, 61
1, 683377, Note_off_c, 0, 40, 56
1, 683429, Control_c, 0, 64, 105
1, 683444, Control_c, 0, 64, 62
1, 683458, Control_c, 0, 64, 0
1, 683463, Note_on_c, 0, 41, 88
1, 683464, Note_on_c, 0, 29, 91
1, 683503, Control_c, 0, 64, 44
1, 683517, Control_c, 0, 64, 71
1, 683532, Control_c, 0, 64, 96
1, 683547, Control_c, 0, 64, 127
1, 683555, Note_on_c, 0, 42, 83
1, 683571, Note_off_c, 0, 41, 60
1, 683578, Note_on_c, 0, 30, 85
1, 683603, Note_off_c, 0, 29, 63
1, 683623, Note_on_c, 0, 44, 79
1, 683639, Note_off_c, 0, 42, 63
1, 683643, Note_on_c, 0, 32, 74
1, 683660, Note_off_c, 0, 44, 66
1, 683662, Note_on_c, 0, 46, 76
1, 683675, Note_off_c, 0, 30, 62
1, 683681, Note_off_c, 0, 46, 65
1, 683687, Note_on_c, 0, 34, 76
1, 683712, Note_on_c, 0, 48, 80
1, 683717, Note_off_c, 0, 32, 60
1, 683737, Note_on_c, 0, 36, 76
1, 683739, Note_off_c, 0, 34, 63
1, 683777, Note_on_c, 0, 49, 77
1, 683779, Note_off_c, 0, 48, 63
1, 683806, Note_off_c, 0, 36, 61
1, 683815, Note_on_c, 0, 37, 92
1, 683821, Note_on_c, 0, 51, 85
1, 683835, Note_off_c, 0, 49, 65
1, 683872, Note_off_c, 0, 51, 64
1, 683874, Note_on_c, 0, 39, 96
1, 683882, Note_on_c, 0, 53, 86
1, 683889, Note_off_c, 0, 37, 62
1, 683929, Note_off_c, 0, 39, 63
1, 683941, Note_on_c, 0, 54, 104
1, 683961, Note_on_c, 0, 40, 96
1, 683988, Note_off_c, 0, 53, 63
1, 684015, Control_c, 0, 64, 112
1, 684030, Control_c, 0, 64, 65
1, 684045, Control_c, 0, 64, 0
1, 684942, Control_c, 0, 64, 34
1, 684957, Control_c, 0, 64, 42
1, 684972, Control_c, 0, 64, 50
1, 684986, Control_c, 0, 64, 56
1, 685001, Control_c, 0, 64, 59
1, 685016, Control_c, 0, 64, 60
1, 685031, Control_c, 0, 64, 60
1, 685046, Control_c, 0, 64, 61
1, 685061, Control_c, 0, 64, 63
1, 685076, Control_c, 0, 64, 65
1, 685090, Control_c, 0, 64, 67
1, 685105, Control_c, 0, 64, 69
1, 685120, Control_c, 0, 64, 71
1, 685120, Control_c, 0, 67, 19
1, 685135, Control_c, 0, 64, 75
1, 685150, Control_c, 0, 64, 82
1, 685164, Control_c, 0, 64, 89
1, 685164, Control_c, 0, 67, 21
1, 685180, Control_c, 0, 64, 99
1, 685195, Control_c, 0, 64, 113
1, 685210, Control_c, 0, 64, 127
1, 685210, Control_c, 0, 67, 24
1, 685225, Control_c, 0, 67, 26
1, 685240, Control_c, 0, 67, 29
1, 685254, Control_c, 0, 67, 32
1, 685269, Control_c, 0, 67, 33
1, 685284, Control_c, 0, 67, 35
1, 685299, Control_c, 0, 67, 36
1, 685302, Note_off_c, 0, 54, 58
1, 685313, Control_c, 0, 67, 37
1, 685316, Note_off_c, 0, 40, 57
1, 685328, Control_c, 0, 67, 41
1, 685343, Control_c, 0, 67, 46
1, 685358, Control_c, 0, 67, 51
1, 685373, Control_c, 0, 67, 56
1, 685387, Control_c, 0, 67, 60
1, 685402, Control_c, 0, 67, 64
1, 685417, Control_c, 0, 67, 66
1, 685432, Control_c, 0, 67, 67
1, 685513, Control_c, 0, 67, 67
1, 685528, Control_c, 0, 67, 68
1, 685558, Control_c, 0, 67, 69
1, 685587, Control_c, 0, 67, 73
1, 685602, Control_c, 0, 67, 80
1, 685617, Control_c, 0, 67, 85
1, 685632, Control_c, 0, 67, 90
1, 685647, Control_c, 0, 67, 95
1, 685661, Control_c, 0, 67, 100
1, 685676, Control_c, 0, 67, 106
1, 685691, Control_c, 0, 67, 112
1, 685706, Control_c, 0, 67, 118
1, 685720, Control_c, 0, 64, 115
1, 685720, Control_c, 0, 67, 125
1, 685735, Control_c, 0, 64, 105
1, 685735, Control_c, 0, 67, 127
1, 685750, Control_c, 0, 64, 98
1, 685765, Control_c, 0, 64, 94
1, 685780, Control_c, 0, 64, 90
1, 685794, Control_c, 0, 64, 86
1, 685809, Control_c, 0, 64, 82
1, 685824, Control_c, 0, 64, 78
1, 685839, Control_c, 0, 64, 74
1, 685854, Control_c, 0, 64, 71
1, 685869, Control_c, 0, 64, 69
1, 685884, Control_c, 0, 64, 67
1, 685899, Control_c, 0, 64, 64
1, 685913, Control_c, 0, 64, 61
1, 685928, Control_c, 0, 64, 58
1, 685943, Control_c, 0, 64, 57
1, 685958, Control_c, 0, 64, 56
1, 685973, Control_c, 0, 64, 55
1, 685988, Control_c, 0, 64, 53
1, 686003, Control_c, 0, 64, 49
1, 686018, Control_c, 0, 64, 43
1, 686033, Control_c, 0, 64, 37
1, 686048, Control_c, 0, 64, 34
1, 686062, Control_c, 0, 64, 33
1, 686077, Control_c, 0, 64, 31
1, 686092, Control_c, 0, 64, 0
1, 686292, Control_c, 0, 64, 38
1, 686307, Control_c, 0, 64, 46
1, 686322, Control_c, 0, 64, 55
1, 686336, Control_c, 0, 64, 59
1, 686351, Control_c, 0, 64, 61
1, 686366, Control_c, 0, 64, 62
1, 686381, Control_c, 0, 64, 63
1, 686396, Control_c, 0, 64, 65
1, 686410, Control_c, 0, 64, 67
1, 686424, Control_c, 0, 64, 70
1, 686439, Control_c, 0, 64, 72
1, 686453, Control_c, 0, 64, 74
1, 686468, Control_c, 0, 64, 76
1, 686483, Control_c, 0, 64, 78
1, 686498, Control_c, 0, 64, 80
1, 686513, Control_c, 0, 64, 82
1, 686528, Control_c, 0, 64, 85
1, 686543, Control_c, 0, 64, 88
1, 686545, Note_on_c, 0, 49, 57
1, 686557, Control_c, 0, 64, 91
1, 686565, Note_on_c, 0, 37, 43
1, 686572, Control_c, 0, 64, 94
1, 686587, Control_c, 0, 64, 98
1, 686602, Control_c, 0, 64, 102
1, 686617, Control_c, 0, 64, 107
1, 686632, Control_c, 0, 64, 110
1, 686647, Control_c, 0, 64, 116
1, 686661, Control_c, 0, 64, 127
1, 687231, Note_on_c, 0, 42, 51
1, 687238, Note_on_c, 0, 30, 38
1, 687276, Control_c, 0, 64, 117
1, 687291, Control_c, 0, 64, 108
1, 687306, Control_c, 0, 64, 102
1, 687321, Control_c, 0, 64, 97
1, 687336, Control_c, 0, 64, 93
1, 687350, Control_c, 0, 64, 89
1, 687365, Control_c, 0, 64, 84
1, 687380, Control_c, 0, 64, 77
1, 687381, Note_off_c, 0, 37, 35
1, 687395, Control_c, 0, 64, 71
1, 687410, Control_c, 0, 64, 66
1, 687413, Note_off_c, 0, 49, 52
1, 687425, Control_c, 0, 64, 62
1, 687440, Control_c, 0, 64, 60
1, 687455, Control_c, 0, 64, 58
1, 687470, Control_c, 0, 64, 55
1, 687484, Control_c, 0, 64, 51
1, 687499, Control_c, 0, 64, 46
1, 687514, Control_c, 0, 64, 38
1, 687529, Control_c, 0, 64, 0
1, 688145, Control_c, 0, 64, 30
1, 688160, Control_c, 0, 64, 36
1, 688174, Control_c, 0, 64, 42
1, 688189, Control_c, 0, 64, 47
1, 688204, Control_c, 0, 64, 53
1, 688219, Control_c, 0, 64, 57
1, 688233, Control_c, 0, 64, 60
1, 688248, Control_c, 0, 64, 62
1, 688263, Control_c, 0, 64, 64
1, 688278, Control_c, 0, 64, 66
1, 688293, Control_c, 0, 64, 69
1, 688307, Control_c, 0, 64, 73
1, 688322, Control_c, 0, 64, 78
1, 688337, Control_c, 0, 64, 82
1, 688352, Control_c, 0, 64, 88
1, 688367, Control_c, 0, 64, 95
1, 688383, Control_c, 0, 64, 104
1, 688397, Control_c, 0, 64, 119
1, 688412, Control_c, 0, 64, 127
1, 688489, Note_off_c, 0, 42, 35
1, 688826, Note_on_c, 0, 45, 42
1, 688841, Note_on_c, 0, 33, 33
1, 688864, Control_c, 0, 64, 116
1, 688879, Control_c, 0, 64, 110
1, 688894, Control_c, 0, 64, 104
1, 688903, Note_off_c, 0, 30, 41
1, 688909, Control_c, 0, 64, 96
1, 688923, Control_c, 0, 64, 89
1, 688938, Control_c, 0, 64, 84
1, 688953, Control_c, 0, 64, 80
1, 688968, Control_c, 0, 64, 76
1, 688983, Control_c, 0, 64, 71
1, 688997, Control_c, 0, 64, 66
1, 689012, Control_c, 0, 64, 59
1, 689027, Control_c, 0, 64, 55
1, 689042, Control_c, 0, 64, 52
1, 689056, Control_c, 0, 64, 49
1, 689071, Control_c, 0, 64, 45
1, 689086, Control_c, 0, 64, 35
1, 689101, Control_c, 0, 64, 0
1, 689465, Control_c, 0, 64, 30
1, 689479, Control_c, 0, 64, 35
1, 689494, Control_c, 0, 64, 40
1, 689509, Control_c, 0, 64, 44
1, 689524, Control_c, 0, 64, 48
1, 689539, Control_c, 0, 64, 51
1, 689553, Control_c, 0, 64, 54
1, 689568, Control_c, 0, 64, 57
1, 689583, Control_c, 0, 64, 59
1, 689598, Control_c, 0, 64, 62
1, 689613, Control_c, 0, 64, 64
1, 689628, Control_c, 0, 64, 65
1, 689643, Control_c, 0, 64, 67
1, 689658, Control_c, 0, 64, 70
1, 689672, Control_c, 0, 64, 74
1, 689687, Control_c, 0, 64, 78
1, 689702, Control_c, 0, 64, 82
1, 689717, Control_c, 0, 64, 87
1, 689732, Control_c, 0, 64, 91
1, 689746, Control_c, 0, 64, 94
1, 689761, Control_c, 0, 64, 97
1, 689776, Control_c, 0, 64, 99
1, 689961, Control_c, 0, 64, 97
1, 689977, Control_c, 0, 64, 96
1, 689991, Control_c, 0, 64, 95
1, 690006, Control_c, 0, 64, 93
1, 690021, Control_c, 0, 64, 92
1, 690036, Control_c, 0, 64, 89
1, 690039, Note_on_c, 0, 39, 42
1, 690050, Note_on_c, 0, 27, 37
1, 690051, Control_c, 0, 64, 85
1, 690066, Control_c, 0, 64, 82
1, 690081, Control_c, 0, 64, 78
1, 690096, Control_c, 0, 64, 75
1, 690098, Note_off_c, 0, 45, 32
1, 690110, Control_c, 0, 64, 70
1, 690125, Control_c, 0, 64, 65
1, 690140, Control_c, 0, 64, 59
1, 690155, Control_c, 0, 64, 51
1, 690157, Note_off_c, 0, 33, 49
1, 690170, Control_c, 0, 64, 40
1, 690184, Control_c, 0, 64, 0
1, 690347, Control_c, 0, 64, 41
1, 690362, Control_c, 0, 64, 55
1, 690376, Control_c, 0, 64, 62
1, 690391, Control_c, 0, 64, 66
1, 690406, Control_c, 0, 64, 70
1, 690421, Control_c, 0, 64, 73
1, 690436, Control_c, 0, 64, 77
1, 690450, Control_c, 0, 64, 83
1, 690465, Control_c, 0, 64, 89
1, 690480, Control_c, 0, 64, 96
1, 690495, Control_c, 0, 64, 103
1, 690510, Control_c, 0, 64, 107
1, 690525, Control_c, 0, 64, 110
1, 690540, Control_c, 0, 64, 112
1, 690558, Note_off_c, 0, 27, 42
1, 690570, Control_c, 0, 64, 115
1, 690685, Note_off_c, 0, 39, 39
1, 690710, Control_c, 0, 64, 112
1, 690725, Control_c, 0, 64, 109
1, 690740, Control_c, 0, 64, 107
1, 690754, Control_c, 0, 64, 105
1, 690769, Control_c, 0, 64, 102
1, 690785, Control_c, 0, 64, 98
1, 690799, Control_c, 0, 64, 93
1, 690814, Control_c, 0, 64, 88
1, 690819, Note_on_c, 0, 40, 31
1, 690827, Note_on_c, 0, 28, 31
1, 690829, Control_c, 0, 64, 83
1, 690844, Control_c, 0, 64, 78
1, 690859, Control_c, 0, 64, 72
1, 690874, Control_c, 0, 64, 66
1, 690889, Control_c, 0, 64, 58
1, 690904, Control_c, 0, 64, 43
1, 690918, Control_c, 0, 64, 0
1, 691214, Control_c, 0, 64, 44
1, 691229, Control_c, 0, 64, 57
1, 691243, Control_c, 0, 64, 63
1, 691258, Control_c, 0, 64, 67
1, 691273, Control_c, 0, 64, 70
1, 691288, Control_c, 0, 64, 75
1, 691302, Note_off_c, 0, 28, 52
1, 691303, Control_c, 0, 64, 82
1, 691317, Note_off_c, 0, 40, 56
1, 691318, Control_c, 0, 64, 93
1, 691333, Control_c, 0, 64, 112
1, 691348, Control_c, 0, 64, 127
1, 691924, Note_on_c, 0, 77, 70
1, 691946, Note_on_c, 0, 73, 57
1, 691950, Note_on_c, 0, 64, 49
1, 691952, Note_on_c, 0, 55, 42
1, 691974, Note_on_c, 0, 41, 34
1, 691981, Note_on_c, 0, 47, 32
1, 691992, Control_c, 0, 64, 114
1, 692007, Control_c, 0, 64, 107
1, 692022, Control_c, 0, 64, 102
1, 692037, Control_c, 0, 64, 96
1, 692052, Control_c, 0, 64, 91
1, 692066, Control_c, 0, 64, 85
1, 692081, Control_c, 0, 64, 80
1, 692096, Control_c, 0, 64, 74
1, 692111, Control_c, 0, 64, 69
1, 692126, Control_c, 0, 64, 63
1, 692141, Control_c, 0, 64, 56
1, 692156, Control_c, 0, 64, 50
1, 692170, Control_c, 0, 64, 44
1, 692185, Control_c, 0, 64, 35
1, 692207, Control_c, 0, 64, 0
1, 692535, Control_c, 0, 64, 31
1, 692550, Control_c, 0, 64, 38
1, 692565, Control_c, 0, 64, 47
1, 692579, Control_c, 0, 64, 56
1, 692594, Control_c, 0, 64, 62
1, 692609, Control_c, 0, 64, 65
1, 692624, Control_c, 0, 64, 67
1, 692638, Control_c, 0, 64, 69
1, 692653, Control_c, 0, 64, 72
1, 692668, Control_c, 0, 64, 77
1, 692683, Control_c, 0, 64, 82
1, 692698, Control_c, 0, 64, 90
1, 692713, Control_c, 0, 64, 97
1, 692728, Control_c, 0, 64, 107
1, 692743, Note_off_c, 0, 64, 48
1, 692743, Control_c, 0, 64, 127
1, 692808, Note_off_c, 0, 55, 47
1, 692819, Note_off_c, 0, 47, 41
1, 693025, Note_off_c, 0, 73, 38
1, 693399, Note_on_c, 0, 74, 44
1, 693402, Control_c, 0, 64, 117
1, 693417, Control_c, 0, 64, 107
1, 693418, Note_on_c, 0, 56, 37
1, 693418, Note_on_c, 0, 65, 39
1, 693432, Control_c, 0, 64, 101
1, 693434, Note_on_c, 0, 48, 34
1, 693446, Control_c, 0, 64, 98
1, 693461, Control_c, 0, 64, 96
1, 693476, Control_c, 0, 64, 93
1, 693491, Control_c, 0, 64, 89
1, 693506, Control_c, 0, 64, 84
1, 693521, Control_c, 0, 64, 80
1, 693536, Control_c, 0, 64, 77
1, 693551, Control_c, 0, 64, 74
1, 693565, Control_c, 0, 64, 70
1, 693580, Control_c, 0, 64, 66
1, 693595, Control_c, 0, 64, 62
1, 693610, Control_c, 0, 64, 57
1, 693625, Control_c, 0, 64, 54
1, 693639, Control_c, 0, 64, 50
1, 693654, Control_c, 0, 64, 45
1, 693669, Control_c, 0, 64, 37
1, 693684, Control_c, 0, 64, 0
1, 694209, Control_c, 0, 64, 30
1, 694224, Control_c, 0, 64, 41
1, 694239, Control_c, 0, 64, 50
1, 694254, Control_c, 0, 64, 57
1, 694268, Control_c, 0, 64, 60
1, 694283, Control_c, 0, 64, 62
1, 694298, Control_c, 0, 64, 64
1, 694313, Control_c, 0, 64, 67
1, 694328, Control_c, 0, 64, 70
1, 694342, Control_c, 0, 64, 75
1, 694357, Control_c, 0, 64, 79
1, 694372, Control_c, 0, 64, 83
1, 694386, Control_c, 0, 64, 88
1, 694401, Control_c, 0, 64, 95
1, 694416, Control_c, 0, 64, 104
1, 694431, Control_c, 0, 64, 119
1, 694448, Note_off_c, 0, 65, 42
1, 694454, Control_c, 0, 64, 127
1, 694475, Note_off_c, 0, 41, 35
1, 694526, Note_off_c, 0, 77, 53
1, 694690, Note_off_c, 0, 74, 29
1, 694752, Note_on_c, 0, 41, 37
1, 694810, Note_off_c, 0, 56, 32
1, 694840, Note_off_c, 0, 48, 42
1, 694973, Control_c, 0, 64, 115
1, 694987, Control_c, 0, 64, 108
1, 695002, Control_c, 0, 64, 103
1, 695017, Control_c, 0, 64, 98
1, 695032, Control_c, 0, 64, 95
1, 695047, Control_c, 0, 64, 92
1, 695062, Control_c, 0, 64, 89
1, 695077, Control_c, 0, 64, 85
1, 695091, Control_c, 0, 64, 80
1, 695105, Note_on_c, 0, 66, 59
1, 695106, Control_c, 0, 64, 76
1, 695121, Control_c, 0, 64, 71
1, 695136, Control_c, 0, 64, 68
1, 695139, Note_on_c, 0, 56, 26
1, 695150, Control_c, 0, 64, 66
1, 695151, Note_on_c, 0, 48, 23
1, 695165, Control_c, 0, 64, 63
1, 695180, Control_c, 0, 64, 56
1, 695202, Control_c, 0, 64, 47
1, 695217, Control_c, 0, 64, 34
1, 695232, Control_c, 0, 64, 0
1, 695395, Control_c, 0, 64, 33
1, 695411, Control_c, 0, 64, 49
1, 695425, Control_c, 0, 64, 59
1, 695440, Control_c, 0, 64, 65
1, 695455, Control_c, 0, 64, 70
1, 695470, Control_c, 0, 64, 76
1, 695474, Note_off_c, 0, 48, 52
1, 695485, Control_c, 0, 64, 85
1, 695499, Control_c, 0, 64, 93
1, 695514, Control_c, 0, 64, 107
1, 695529, Control_c, 0, 64, 127
1, 695530, Note_off_c, 0, 41, 40
1, 695556, Note_off_c, 0, 56, 40
1, 695920, Note_on_c, 0, 59, 37
1, 695946, Note_on_c, 0, 51, 31
1, 696337, Control_c, 0, 64, 118
1, 696352, Control_c, 0, 64, 110
1, 696368, Control_c, 0, 64, 105
1, 696382, Control_c, 0, 64, 102
1, 696397, Control_c, 0, 64, 100
1, 696427, Control_c, 0, 64, 96
1, 696442, Control_c, 0, 64, 94
1, 696457, Control_c, 0, 64, 92
1, 696471, Control_c, 0, 64, 90
1, 696486, Control_c, 0, 64, 88
1, 696501, Control_c, 0, 64, 87
1, 696516, Control_c, 0, 64, 86
1, 696531, Control_c, 0, 64, 84
1, 696545, Control_c, 0, 64, 82
1, 696560, Control_c, 0, 64, 81
1, 696575, Control_c, 0, 64, 79
1, 696589, Control_c, 0, 64, 77
1, 696604, Control_c, 0, 64, 76
1, 696619, Control_c, 0, 64, 75
1, 696634, Control_c, 0, 64, 73
1, 696649, Control_c, 0, 64, 71
1, 696663, Control_c, 0, 64, 70
1, 696678, Control_c, 0, 64, 68
1, 696701, Control_c, 0, 64, 67
1, 696715, Control_c, 0, 64, 65
1, 696730, Control_c, 0, 64, 64
1, 696745, Control_c, 0, 64, 62
1, 696760, Control_c, 0, 64, 61
1, 696767, Note_on_c, 0, 69, 47
1, 696775, Control_c, 0, 64, 60
1, 696789, Control_c, 0, 64, 59
1, 696804, Control_c, 0, 64, 58
1, 696819, Control_c, 0, 64, 57
1, 696834, Control_c, 0, 64, 54
1, 696849, Control_c, 0, 64, 50
1, 696863, Control_c, 0, 64, 44
1, 696878, Control_c, 0, 64, 37
1, 696889, Note_off_c, 0, 66, 53
1, 696893, Control_c, 0, 64, 0
1, 697056, Control_c, 0, 64, 32
1, 697070, Control_c, 0, 64, 40
1, 697085, Control_c, 0, 64, 47
1, 697100, Control_c, 0, 64, 51
1, 697114, Control_c, 0, 64, 55
1, 697129, Control_c, 0, 64, 59
1, 697144, Control_c, 0, 64, 61
1, 697160, Control_c, 0, 64, 63
1, 697175, Control_c, 0, 64, 65
1, 697190, Control_c, 0, 64, 66
1, 697205, Control_c, 0, 64, 69
1, 697219, Control_c, 0, 64, 72
1, 697234, Control_c, 0, 64, 76
1, 697249, Control_c, 0, 64, 81
1, 697264, Control_c, 0, 64, 87
1, 697279, Control_c, 0, 64, 96
1, 697293, Control_c, 0, 64, 107
1, 697308, Control_c, 0, 64, 127
1, 697496, Note_off_c, 0, 51, 37
1, 697518, Note_off_c, 0, 59, 33
1, 697788, Note_on_c, 0, 73, 47
1, 697804, Note_on_c, 0, 63, 28
1, 697805, Control_c, 0, 64, 116
1, 697813, Note_on_c, 0, 54, 28
1, 697819, Control_c, 0, 64, 110
1, 697834, Control_c, 0, 64, 105
1, 697849, Control_c, 0, 64, 101
1, 697861, Note_off_c, 0, 69, 31
1, 697864, Control_c, 0, 64, 97
1, 697879, Control_c, 0, 64, 93
1, 697894, Control_c, 0, 64, 89
1, 697909, Control_c, 0, 64, 83
1, 697924, Control_c, 0, 64, 77
1, 697938, Control_c, 0, 64, 72
1, 697953, Control_c, 0, 64, 67
1, 697968, Control_c, 0, 64, 62
1, 697983, Control_c, 0, 64, 54
1, 697998, Control_c, 0, 64, 42
1, 698013, Control_c, 0, 64, 0
1, 698347, Control_c, 0, 64, 43
1, 698361, Control_c, 0, 64, 55
1, 698376, Control_c, 0, 64, 62
1, 698391, Control_c, 0, 64, 66
1, 698406, Control_c, 0, 64, 69
1, 698421, Control_c, 0, 64, 73
1, 698435, Control_c, 0, 64, 78
1, 698450, Control_c, 0, 64, 85
1, 698465, Control_c, 0, 64, 93
1, 698469, Note_off_c, 0, 73, 51
1, 698480, Control_c, 0, 64, 102
1, 698494, Control_c, 0, 64, 113
1, 698509, Control_c, 0, 64, 127
1, 698625, Note_off_c, 0, 54, 37
1, 698770, Note_off_c, 0, 63, 41
1, 699036, Control_c, 0, 67, 123
1, 699051, Control_c, 0, 67, 121
1, 699199, Control_c, 0, 67, 123
1, 699599, Note_on_c, 0, 89, 59
1, 699615, Note_on_c, 0, 86, 46
1, 699620, Note_on_c, 0, 82, 25
1, 699629, Note_on_c, 0, 65, 29
1, 699650, Note_on_c, 0, 58, 29
1, 699674, Control_c, 0, 64, 119
1, 699696, Control_c, 0, 64, 105
1, 699711, Control_c, 0, 64, 95
1, 699726, Control_c, 0, 64, 87
1, 699740, Control_c, 0, 64, 79
1, 699755, Control_c, 0, 64, 73
1, 699770, Control_c, 0, 64, 67
1, 699785, Control_c, 0, 64, 62
1, 699800, Control_c, 0, 64, 57
1, 699814, Control_c, 0, 64, 53
1, 699829, Control_c, 0, 64, 49
1, 699829, Control_c, 0, 67, 125
1, 699844, Control_c, 0, 64, 47
1, 699859, Control_c, 0, 64, 45
1, 699873, Control_c, 0, 64, 39
1, 699888, Control_c, 0, 64, 0
1, 701683, Control_c, 0, 64, 30
1, 701727, Control_c, 0, 64, 32
1, 701772, Control_c, 0, 64, 33
1, 701786, Control_c, 0, 64, 33
1, 701801, Control_c, 0, 64, 34
1, 701816, Control_c, 0, 64, 35
1, 701830, Control_c, 0, 64, 37
1, 701845, Control_c, 0, 64, 38
1, 701860, Control_c, 0, 64, 40
1, 701919, Control_c, 0, 64, 40
1, 701942, Control_c, 0, 64, 41
1, 701957, Control_c, 0, 64, 43
1, 701987, Control_c, 0, 64, 43
1, 702016, Control_c, 0, 64, 44
1, 702031, Control_c, 0, 64, 44
1, 702046, Control_c, 0, 64, 45
1, 702121, Control_c, 0, 64, 45
1, 702135, Control_c, 0, 64, 46
1, 702165, Control_c, 0, 64, 46
1, 702209, Control_c, 0, 64, 47
1, 702224, Control_c, 0, 64, 47
1, 702239, Control_c, 0, 64, 48
1, 702253, Control_c, 0, 64, 49
1, 702268, Control_c, 0, 64, 50
1, 702283, Control_c, 0, 64, 50
1, 702298, Control_c, 0, 64, 51
1, 702313, Control_c, 0, 64, 52
1, 702327, Control_c, 0, 64, 53
1, 702342, Control_c, 0, 64, 54
1, 702357, Control_c, 0, 64, 55
1, 702372, Control_c, 0, 64, 56
1, 702387, Control_c, 0, 64, 56
1, 702401, Control_c, 0, 64, 57
1, 702416, Control_c, 0, 64, 57
1, 702446, Control_c, 0, 64, 58
1, 702461, Control_c, 0, 64, 59
1, 702475, Control_c, 0, 64, 59
1, 702505, Control_c, 0, 64, 60
1, 702550, Control_c, 0, 64, 60
1, 702565, Control_c, 0, 64, 61
1, 702595, Control_c, 0, 64, 61
1, 702653, Control_c, 0, 64, 62
1, 702690, Control_c, 0, 64, 62
1, 702750, Control_c, 0, 64, 63
1, 702780, Control_c, 0, 64, 63
1, 702825, Control_c, 0, 64, 64
1, 702839, Control_c, 0, 64, 64
1, 702869, Control_c, 0, 64, 65
1, 702884, Control_c, 0, 64, 65
1, 702899, Control_c, 0, 64, 66
1, 702929, Control_c, 0, 64, 66
1, 702944, Control_c, 0, 64, 67
1, 702958, Control_c, 0, 64, 67
1, 702973, Control_c, 0, 64, 68
1, 702988, Control_c, 0, 64, 69
1, 703003, Control_c, 0, 64, 70
1, 703018, Control_c, 0, 64, 71
1, 703033, Control_c, 0, 64, 71
1, 703063, Control_c, 0, 64, 72
1, 703077, Control_c, 0, 64, 72
1, 703107, Control_c, 0, 64, 73
1, 703122, Control_c, 0, 64, 73
1, 703137, Control_c, 0, 64, 74
1, 703166, Control_c, 0, 64, 74
1, 703737, Control_c, 0, 64, 75
1, 704063, Control_c, 0, 64, 75
1, 704137, Control_c, 0, 64, 76
1, 704233, Control_c, 0, 64, 76
1, 704322, Control_c, 0, 64, 77
1, 704456, Control_c, 0, 64, 77
1, 704545, Control_c, 0, 64, 78
1, 704604, Control_c, 0, 64, 78
1, 704693, Control_c, 0, 64, 79
1, 704812, Control_c, 0, 64, 79
1, 704916, Control_c, 0, 64, 80
1, 705027, Control_c, 0, 64, 80
1, 705101, Control_c, 0, 64, 81
1, 705279, Control_c, 0, 64, 81
1, 705683, Note_off_c, 0, 86, 31
1, 705686, Note_off_c, 0, 82, 14
1, 705729, Note_off_c, 0, 65, 28
1, 705763, Note_off_c, 0, 89, 33
1, 705790, Control_c, 0, 64, 81
1, 705820, Control_c, 0, 64, 80
1, 705827, Note_off_c, 0, 58, 28
1, 705835, Control_c, 0, 64, 80
1, 705850, Control_c, 0, 64, 79
1, 705865, Control_c, 0, 64, 79
1, 705879, Control_c, 0, 64, 78
1, 705894, Control_c, 0, 64, 78
1, 705909, Control_c, 0, 64, 77
1, 705924, Control_c, 0, 64, 77
1, 705939, Control_c, 0, 64, 76
1, 705954, Control_c, 0, 64, 75
1, 705969, Control_c, 0, 64, 75
1, 705984, Control_c, 0, 64, 74
1, 705999, Control_c, 0, 64, 74
1, 706014, Control_c, 0, 64, 73
1, 706028, Control_c, 0, 64, 73
1, 706043, Control_c, 0, 64, 72
1, 706058, Control_c, 0, 64, 71
1, 706073, Control_c, 0, 64, 69
1, 706088, Control_c, 0, 64, 68
1, 706102, Control_c, 0, 64, 67
1, 706117, Control_c, 0, 64, 66
1, 706132, Control_c, 0, 64, 66
1, 706147, Control_c, 0, 64, 65
1, 706162, Control_c, 0, 64, 64
1, 706176, Control_c, 0, 64, 62
1, 706191, Control_c, 0, 64, 61
1, 706206, Control_c, 0, 64, 60
1, 706220, Control_c, 0, 64, 59
1, 706250, Control_c, 0, 64, 58
1, 706265, Control_c, 0, 64, 58
1, 706280, Control_c, 0, 64, 57
1, 706294, Control_c, 0, 64, 56
1, 706309, Control_c, 0, 64, 56
1, 706324, Control_c, 0, 64, 55
1, 706339, Control_c, 0, 64, 55
1, 706354, Control_c, 0, 64, 54
1, 706369, Control_c, 0, 64, 53
1, 706383, Control_c, 0, 64, 53
1, 706413, Control_c, 0, 64, 52
1, 706435, Control_c, 0, 64, 52
1, 706450, Control_c, 0, 64, 51
1, 706465, Control_c, 0, 64, 51
1, 706495, Control_c, 0, 64, 50
1, 706509, Control_c, 0, 64, 50
1, 706524, Control_c, 0, 64, 49
1, 706539, Control_c, 0, 64, 48
1, 706554, Control_c, 0, 64, 47
1, 706569, Control_c, 0, 64, 47
1, 706598, Control_c, 0, 64, 46
1, 706628, Control_c, 0, 64, 46
1, 706643, Control_c, 0, 64, 45
1, 706658, Control_c, 0, 64, 44
1, 706673, Control_c, 0, 64, 44
1, 706702, Control_c, 0, 64, 43
1, 706732, Control_c, 0, 64, 43
1, 706792, Control_c, 0, 64, 42
1, 706911, Control_c, 0, 64, 42
1, 706940, Control_c, 0, 64, 41
1, 707014, Control_c, 0, 64, 41
1, 707318, Control_c, 0, 64, 40
1, 707643, Control_c, 0, 64, 40
1, 707687, Control_c, 0, 67, 122
1, 707702, Control_c, 0, 64, 39
1, 707717, Control_c, 0, 67, 120
1, 707746, Control_c, 0, 67, 117
1, 707761, Control_c, 0, 67, 112
1, 707776, Control_c, 0, 67, 101
1, 707790, Control_c, 0, 67, 90
1, 707805, Control_c, 0, 67, 78
1, 707820, Control_c, 0, 67, 66
1, 707835, Control_c, 0, 67, 51
1, 707850, Control_c, 0, 67, 39
1, 707865, Control_c, 0, 67, 26
1, 707880, Control_c, 0, 67, 0
1, 707946, Control_c, 0, 64, 39
1, 708124, Control_c, 0, 64, 39
1, 708140, Control_c, 0, 64, 40
1, 708154, Control_c, 0, 64, 40
1, 708169, Control_c, 0, 64, 41
1, 708184, Control_c, 0, 64, 42
1, 708199, Control_c, 0, 64, 43
1, 708214, Control_c, 0, 64, 45
1, 708229, Control_c, 0, 64, 48
1, 708243, Control_c, 0, 64, 51
1, 708258, Control_c, 0, 64, 54
1, 708273, Control_c, 0, 64, 56
1, 708288, Control_c, 0, 64, 57
1, 708303, Control_c, 0, 64, 58
1, 708318, Control_c, 0, 64, 59
1, 708332, Control_c, 0, 64, 61
1, 708348, Control_c, 0, 64, 62
1, 708363, Control_c, 0, 64, 64
1, 708378, Control_c, 0, 64, 65
1, 708393, Control_c, 0, 64, 67
1, 708407, Control_c, 0, 64, 69
1, 708422, Control_c, 0, 64, 71
1, 708437, Control_c, 0, 64, 74
1, 708452, Control_c, 0, 64, 76
1, 708467, Control_c, 0, 64, 79
1, 708482, Control_c, 0, 64, 82
1, 708496, Control_c, 0, 64, 87
1, 708511, Control_c, 0, 64, 93
1, 708526, Control_c, 0, 64, 102
1, 708541, Control_c, 0, 64, 127
1, 708614, Control_c, 0, 67, 19
1, 708644, Control_c, 0, 67, 24
1, 708659, Control_c, 0, 67, 26
1, 708682, Control_c, 0, 67, 28
1, 708711, Control_c, 0, 67, 31
1, 708726, Control_c, 0, 67, 34
1, 708741, Control_c, 0, 67, 36
1, 708756, Control_c, 0, 67, 39
1, 708770, Control_c, 0, 67, 42
1, 708785, Control_c, 0, 67, 44
1, 708800, Control_c, 0, 67, 46
1, 708802, Note_on_c, 0, 68, 53
1, 708815, Control_c, 0, 67, 48
1, 708829, Control_c, 0, 67, 50
1, 708837, Note_on_c, 0, 49, 17
1, 708837, Note_on_c, 0, 63, 42
1, 708844, Control_c, 0, 67, 53
1, 708849, Note_on_c, 0, 65, 37
1, 708859, Control_c, 0, 67, 58
1, 708874, Control_c, 0, 67, 63
1, 708878, Note_on_c, 0, 37, 24
1, 708889, Control_c, 0, 67, 68
1, 708903, Control_c, 0, 67, 74
1, 708918, Control_c, 0, 67, 79
1, 708933, Control_c, 0, 67, 84
1, 708947, Note_off_c, 0, 37, 54
1, 708947, Control_c, 0, 67, 88
1, 708962, Note_off_c, 0, 63, 51
1, 708962, Control_c, 0, 67, 93
1, 708977, Control_c, 0, 67, 96
1, 708982, Note_off_c, 0, 49, 40
1, 708992, Control_c, 0, 67, 100
1, 709005, Note_off_c, 0, 65, 41
1, 709007, Control_c, 0, 67, 103
1, 709022, Control_c, 0, 67, 107
1, 709036, Control_c, 0, 67, 112
1, 709051, Control_c, 0, 67, 118
1, 709066, Control_c, 0, 67, 123
1, 709081, Control_c, 0, 67, 127
1, 709349, Control_c, 0, 64, 112
1, 709363, Control_c, 0, 64, 101
1, 709378, Control_c, 0, 64, 91
1, 709393, Control_c, 0, 64, 82
1, 709408, Control_c, 0, 64, 72
1, 709430, Control_c, 0, 64, 64
1, 709445, Control_c, 0, 64, 52
1, 709460, Control_c, 0, 64, 48
1, 709475, Control_c, 0, 64, 52
1, 709484, Note_on_c, 0, 56, 40
1, 709487, Note_on_c, 0, 65, 23
1, 709490, Control_c, 0, 64, 58
1, 709493, Note_on_c, 0, 61, 34
1, 709504, Note_on_c, 0, 44, 17
1, 709504, Control_c, 0, 64, 63
1, 709519, Control_c, 0, 64, 67
1, 709534, Control_c, 0, 64, 72
1, 709542, Note_off_c, 0, 56, 58
1, 709549, Control_c, 0, 64, 77
1, 709562, Note_off_c, 0, 44, 47
1, 709564, Control_c, 0, 64, 80
1, 709564, Note_off_c, 0, 61, 61
1, 709574, Note_off_c, 0, 65, 50
1, 709578, Control_c, 0, 64, 81
1, 709593, Control_c, 0, 64, 83
1, 709608, Control_c, 0, 64, 84
1, 709623, Control_c, 0, 64, 85
1, 709638, Control_c, 0, 64, 85
1, 709682, Control_c, 0, 64, 86
1, 709800, Control_c, 0, 64, 85
1, 709844, Control_c, 0, 64, 85
1, 709874, Control_c, 0, 64, 84
1, 709904, Control_c, 0, 64, 84
1, 709919, Control_c, 0, 64, 83
1, 709934, Control_c, 0, 64, 82
1, 709949, Control_c, 0, 64, 82
1, 709979, Control_c, 0, 64, 81
1, 709993, Control_c, 0, 64, 81
1, 710008, Control_c, 0, 64, 80
1, 710023, Control_c, 0, 64, 79
1, 710038, Control_c, 0, 64, 79
1, 710083, Control_c, 0, 64, 78
1, 710113, Control_c, 0, 64, 77
1, 710127, Control_c, 0, 64, 76
1, 710142, Control_c, 0, 64, 73
1, 710157, Control_c, 0, 64, 69
1, 710179, Control_c, 0, 64, 64
1, 710183, Note_on_c, 0, 70, 44
1, 710193, Control_c, 0, 64, 60
1, 710194, Note_on_c, 0, 44, 31
1, 710198, Note_on_c, 0, 60, 29
1, 710204, Note_on_c, 0, 64, 27
1, 710207, Note_on_c, 0, 32, 21
1, 710208, Control_c, 0, 64, 57
1, 710219, Note_off_c, 0, 68, 47
1, 710223, Control_c, 0, 64, 57
1, 710238, Control_c, 0, 64, 60
1, 710253, Control_c, 0, 64, 63
1, 710268, Control_c, 0, 64, 65
1, 710282, Control_c, 0, 64, 67
1, 710297, Control_c, 0, 64, 69
1, 710312, Control_c, 0, 64, 72
1, 710327, Control_c, 0, 64, 74
1, 710339, Note_off_c, 0, 44, 39
1, 710342, Control_c, 0, 64, 76
1, 710343, Note_on_c, 0, 68, 58
1, 710357, Control_c, 0, 64, 78
1, 710369, Note_off_c, 0, 70, 47
1, 710372, Control_c, 0, 64, 80
1, 710387, Control_c, 0, 64, 81
1, 710402, Control_c, 0, 64, 82
1, 710417, Control_c, 0, 64, 82
1, 710425, Note_off_c, 0, 64, 51
1, 710431, Control_c, 0, 64, 83
1, 710464, Note_off_c, 0, 68, 61
1, 710501, Note_on_c, 0, 67, 51
1, 710522, Note_off_c, 0, 60, 47
1, 710566, Note_off_c, 0, 32, 39
1, 710611, Note_off_c, 0, 67, 62
1, 710618, Note_on_c, 0, 68, 60
1, 710639, Control_c, 0, 64, 82
1, 710654, Control_c, 0, 64, 81
1, 710668, Control_c, 0, 64, 80
1, 710683, Control_c, 0, 64, 79
1, 710698, Control_c, 0, 64, 77
1, 710712, Control_c, 0, 64, 74
1, 710727, Control_c, 0, 64, 71
1, 710741, Note_off_c, 0, 68, 59
1, 710744, Control_c, 0, 64, 68
1, 710759, Control_c, 0, 64, 64
1, 710773, Control_c, 0, 64, 61
1, 710788, Control_c, 0, 64, 55
1, 710803, Control_c, 0, 64, 46
1, 710817, Control_c, 0, 64, 0
1, 710825, Note_on_c, 0, 73, 59
1, 710858, Note_on_c, 0, 65, 39
1, 710861, Note_on_c, 0, 61, 36
1, 710863, Note_on_c, 0, 37, 24
1, 710884, Note_on_c, 0, 49, 26
1, 710943, Control_c, 0, 64, 48
1, 710958, Control_c, 0, 64, 60
1, 710973, Control_c, 0, 64, 66
1, 710988, Note_off_c, 0, 73, 61
1, 710988, Control_c, 0, 64, 71
1, 711003, Control_c, 0, 64, 76
1, 711017, Control_c, 0, 64, 82
1, 711032, Control_c, 0, 64, 90
1, 711034, Note_off_c, 0, 37, 41
1, 711045, Note_off_c, 0, 49, 41
1, 711047, Control_c, 0, 64, 103
1, 711062, Control_c, 0, 64, 127
1, 711341, Note_on_c, 0, 68, 58
1, 711382, Note_off_c, 0, 61, 25
1, 711388, Note_off_c, 0, 68, 56
1, 711415, Note_off_c, 0, 65, 41
1, 711416, Control_c, 0, 64, 122
1, 711431, Control_c, 0, 64, 93
1, 711446, Control_c, 0, 64, 80
1, 711461, Control_c, 0, 64, 71
1, 711476, Control_c, 0, 64, 64
1, 711486, Note_on_c, 0, 68, 52
1, 711490, Control_c, 0, 64, 61
1, 711499, Note_on_c, 0, 56, 37
1, 711505, Control_c, 0, 64, 63
1, 711509, Note_on_c, 0, 44, 32
1, 711519, Note_on_c, 0, 61, 28
1, 711520, Control_c, 0, 64, 66
1, 711521, Note_on_c, 0, 65, 22
1, 711536, Control_c, 0, 64, 72
1, 711551, Control_c, 0, 64, 78
1, 711565, Control_c, 0, 64, 83
1, 711570, Note_off_c, 0, 65, 50
1, 711573, Note_off_c, 0, 56, 60
1, 711573, Note_off_c, 0, 44, 57
1, 711580, Control_c, 0, 64, 87
1, 711588, Note_off_c, 0, 68, 57
1, 711595, Control_c, 0, 64, 91
1, 711610, Control_c, 0, 64, 95
1, 711618, Note_off_c, 0, 61, 39
1, 711625, Control_c, 0, 64, 100
1, 711639, Control_c, 0, 64, 103
1, 711654, Control_c, 0, 64, 105
1, 711823, Note_on_c, 0, 68, 61
1, 711838, Note_on_c, 0, 65, 50
1, 711844, Note_on_c, 0, 61, 38
1, 711926, Note_off_c, 0, 65, 38
1, 711956, Note_off_c, 0, 61, 36
1, 711988, Control_c, 0, 64, 103
1, 712032, Control_c, 0, 64, 99
1, 712047, Control_c, 0, 64, 97
1, 712062, Control_c, 0, 64, 94
1, 712077, Control_c, 0, 64, 90
1, 712091, Control_c, 0, 64, 85
1, 712106, Control_c, 0, 64, 77
1, 712121, Control_c, 0, 64, 67
1, 712136, Control_c, 0, 64, 53
1, 712151, Control_c, 0, 64, 36
1, 712152, Note_on_c, 0, 66, 49
1, 712154, Note_off_c, 0, 68, 36
1, 712163, Note_on_c, 0, 63, 44
1, 712165, Control_c, 0, 64, 0
1, 712170, Note_on_c, 0, 60, 38
1, 712177, Note_on_c, 0, 44, 30
1, 712180, Control_c, 0, 64, 34
1, 712187, Note_on_c, 0, 32, 32
1, 712195, Control_c, 0, 64, 46
1, 712210, Control_c, 0, 64, 56
1, 712217, Note_off_c, 0, 63, 62
1, 712217, Note_off_c, 0, 60, 64
1, 712225, Control_c, 0, 64, 62
1, 712239, Control_c, 0, 64, 67
1, 712241, Note_off_c, 0, 66, 62
1, 712254, Control_c, 0, 64, 71
1, 712269, Control_c, 0, 64, 73
1, 712283, Control_c, 0, 64, 74
1, 712298, Control_c, 0, 64, 74
1, 712313, Control_c, 0, 64, 75
1, 712374, Control_c, 0, 64, 74
1, 712388, Control_c, 0, 64, 74
1, 712403, Control_c, 0, 64, 72
1, 712426, Control_c, 0, 64, 70
1, 712441, Control_c, 0, 64, 67
1, 712456, Control_c, 0, 64, 63
1, 712470, Control_c, 0, 64, 57
1, 712485, Control_c, 0, 64, 49
1, 712500, Control_c, 0, 64, 41
1, 712504, Note_on_c, 0, 65, 60
1, 712515, Control_c, 0, 64, 37
1, 712524, Note_on_c, 0, 61, 38
1, 712530, Control_c, 0, 64, 39
1, 712541, Note_on_c, 0, 58, 26
1, 712544, Control_c, 0, 64, 47
1, 712559, Control_c, 0, 64, 55
1, 712571, Note_off_c, 0, 44, 51
1, 712574, Control_c, 0, 64, 61
1, 712588, Control_c, 0, 64, 64
1, 712603, Control_c, 0, 64, 67
1, 712618, Control_c, 0, 64, 69
1, 712620, Note_off_c, 0, 65, 58
1, 712621, Note_off_c, 0, 58, 59
1, 712633, Control_c, 0, 64, 72
1, 712648, Control_c, 0, 64, 74
1, 712650, Note_off_c, 0, 61, 35
1, 712662, Control_c, 0, 64, 75
1, 712677, Control_c, 0, 64, 75
1, 712717, Note_off_c, 0, 32, 39
1, 712751, Control_c, 0, 64, 75
1, 712766, Control_c, 0, 64, 73
1, 712781, Control_c, 0, 64, 71
1, 712795, Control_c, 0, 64, 69
1, 712810, Control_c, 0, 64, 66
1, 712825, Control_c, 0, 64, 61
1, 712840, Control_c, 0, 64, 55
1, 712854, Note_on_c, 0, 63, 51
1, 712855, Control_c, 0, 64, 45
1, 712866, Note_on_c, 0, 49, 41
1, 712867, Note_on_c, 0, 57, 39
1, 712870, Control_c, 0, 64, 0
1, 712870, Note_on_c, 0, 60, 40
1, 712882, Note_on_c, 0, 37, 36
1, 713018, Control_c, 0, 64, 42
1, 713033, Control_c, 0, 64, 61
1, 713048, Control_c, 0, 64, 67
1, 713062, Control_c, 0, 64, 73
1, 713077, Control_c, 0, 64, 81
1, 713092, Control_c, 0, 64, 91
1, 713106, Control_c, 0, 64, 105
1, 713121, Note_off_c, 0, 57, 36
1, 713121, Control_c, 0, 64, 127
1, 713124, Note_off_c, 0, 37, 39
1, 713126, Note_off_c, 0, 63, 34
1, 713130, Note_off_c, 0, 49, 42
1, 713140, Note_off_c, 0, 60, 37
1, 713376, Note_on_c, 0, 63, 52
1, 713389, Note_on_c, 0, 57, 46
1, 713406, Note_on_c, 0, 60, 37
1, 713446, Note_off_c, 0, 63, 52
1, 713450, Note_off_c, 0, 60, 48
1, 713472, Control_c, 0, 64, 99
1, 713486, Control_c, 0, 64, 84
1, 713495, Note_off_c, 0, 57, 0
1, 713501, Control_c, 0, 64, 74
1, 713514, Note_on_c, 0, 63, 33
1, 713516, Control_c, 0, 64, 70
1, 713517, Note_on_c, 0, 57, 32
1, 713531, Control_c, 0, 64, 71
1, 713537, Note_on_c, 0, 60, 41
1, 713538, Note_on_c, 0, 56, 45
1, 713543, Note_on_c, 0, 44, 38
1, 713545, Control_c, 0, 64, 74
1, 713560, Control_c, 0, 64, 79
1, 713575, Control_c, 0, 64, 84
1, 713590, Control_c, 0, 64, 89
1, 713603, Note_off_c, 0, 60, 51
1, 713604, Note_off_c, 0, 56, 61
1, 713605, Control_c, 0, 64, 95
1, 713611, Note_off_c, 0, 44, 60
1, 713619, Control_c, 0, 64, 100
1, 713634, Control_c, 0, 64, 104
1, 713652, Note_off_c, 0, 57, 38
1, 713663, Note_off_c, 0, 63, 37
1, 713797, Control_c, 0, 64, 101
1, 713812, Control_c, 0, 64, 94
1, 713827, Control_c, 0, 64, 82
1, 713842, Control_c, 0, 64, 72
1, 713857, Control_c, 0, 64, 65
1, 713860, Note_on_c, 0, 63, 59
1, 713871, Control_c, 0, 64, 63
1, 713880, Note_on_c, 0, 57, 50
1, 713886, Control_c, 0, 64, 63
1, 713889, Note_on_c, 0, 60, 39
1, 713901, Control_c, 0, 64, 65
1, 713923, Control_c, 0, 64, 67
1, 713939, Control_c, 0, 64, 70
1, 713954, Control_c, 0, 64, 74
1, 713955, Note_off_c, 0, 60, 61
1, 713968, Control_c, 0, 64, 79
1, 713983, Control_c, 0, 64, 82
1, 713998, Control_c, 0, 64, 84
1, 714013, Control_c, 0, 64, 86
1, 714072, Control_c, 0, 64, 85
1, 714087, Control_c, 0, 64, 85
1, 714102, Control_c, 0, 64, 84
1, 714104, Note_off_c, 0, 57, 49
1, 714116, Control_c, 0, 64, 82
1, 714131, Control_c, 0, 64, 78
1, 714146, Control_c, 0, 64, 74
1, 714161, Control_c, 0, 64, 69
1, 714175, Control_c, 0, 64, 63
1, 714190, Control_c, 0, 64, 54
1, 714205, Control_c, 0, 64, 37
1, 714220, Note_on_c, 0, 65, 57
1, 714220, Control_c, 0, 64, 0
1, 714230, Note_on_c, 0, 44, 43
1, 714233, Note_on_c, 0, 61, 39
1, 714235, Note_on_c, 0, 32, 32
1, 714244, Note_on_c, 0, 58, 38
1, 714257, Note_off_c, 0, 63, 53
1, 714265, Control_c, 0, 64, 43
1, 714280, Control_c, 0, 64, 56
1, 714294, Control_c, 0, 64, 63
1, 714309, Control_c, 0, 64, 67
1, 714310, Note_off_c, 0, 58, 64
1, 714310, Note_off_c, 0, 61, 62
1, 714314, Note_off_c, 0, 65, 64
1, 714324, Control_c, 0, 64, 70
1, 714339, Control_c, 0, 64, 71
1, 714354, Control_c, 0, 64, 72
1, 714368, Control_c, 0, 64, 72
1, 714383, Control_c, 0, 64, 73
1, 714413, Control_c, 0, 64, 72
1, 714428, Control_c, 0, 64, 71
1, 714442, Control_c, 0, 64, 69
1, 714457, Control_c, 0, 64, 65
1, 714472, Control_c, 0, 64, 59
1, 714486, Control_c, 0, 64, 50
1, 714501, Control_c, 0, 64, 33
1, 714516, Control_c, 0, 64, 0
1, 714557, Note_on_c, 0, 66, 60
1, 714573, Note_on_c, 0, 63, 44
1, 714584, Note_on_c, 0, 60, 33
1, 714590, Control_c, 0, 64, 30
1, 714605, Control_c, 0, 64, 49
1, 714613, Note_off_c, 0, 44, 56
1, 714620, Control_c, 0, 64, 62
1, 714627, Note_off_c, 0, 63, 54
1, 714635, Control_c, 0, 64, 66
1, 714649, Control_c, 0, 64, 69
1, 714672, Control_c, 0, 64, 71
1, 714686, Note_off_c, 0, 66, 63
1, 714686, Control_c, 0, 64, 73
1, 714691, Note_off_c, 0, 60, 39
1, 714701, Control_c, 0, 64, 74
1, 714716, Control_c, 0, 64, 74
1, 714777, Control_c, 0, 64, 74
1, 714791, Control_c, 0, 64, 72
1, 714806, Control_c, 0, 64, 69
1, 714815, Note_off_c, 0, 32, 36
1, 714821, Control_c, 0, 64, 65
1, 714836, Control_c, 0, 64, 59
1, 714851, Control_c, 0, 64, 51
1, 714865, Control_c, 0, 64, 37
1, 714880, Control_c, 0, 64, 0
1, 714908, Note_on_c, 0, 67, 44
1, 714918, Note_on_c, 0, 64, 43
1, 714920, Note_on_c, 0, 49, 39
1, 714925, Note_on_c, 0, 61, 36
1, 714933, Note_on_c, 0, 37, 29
1, 715028, Control_c, 0, 64, 47
1, 715043, Control_c, 0, 64, 64
1, 715058, Control_c, 0, 64, 71
1, 715073, Control_c, 0, 64, 80
1, 715082, Note_off_c, 0, 61, 58
1, 715082, Note_off_c, 0, 67, 63
1, 715083, Note_off_c, 0, 64, 60
1, 715088, Control_c, 0, 64, 88
1, 715103, Control_c, 0, 64, 99
1, 715117, Control_c, 0, 64, 127
1, 715171, Note_off_c, 0, 37, 40
1, 715190, Note_off_c, 0, 49, 44
1, 715436, Note_on_c, 0, 77, 74
1, 715486, Note_on_c, 0, 68, 23
1, 715499, Note_on_c, 0, 65, 20
1, 715526, Note_off_c, 0, 68, 51
1, 715537, Note_off_c, 0, 77, 61
1, 715587, Note_off_c, 0, 65, 39
1, 715600, Control_c, 0, 64, 107
1, 715612, Note_on_c, 0, 77, 66
1, 715614, Control_c, 0, 64, 90
1, 715621, Note_on_c, 0, 68, 58
1, 715629, Control_c, 0, 64, 71
1, 715630, Note_on_c, 0, 73, 60
1, 715642, Note_on_c, 0, 56, 44
1, 715644, Control_c, 0, 64, 57
1, 715651, Note_on_c, 0, 44, 35
1, 715658, Control_c, 0, 64, 0
1, 715703, Control_c, 0, 64, 39
1, 715718, Control_c, 0, 64, 56
1, 715733, Control_c, 0, 64, 65
1, 715735, Note_off_c, 0, 56, 56
1, 715747, Control_c, 0, 64, 69
1, 715761, Note_off_c, 0, 44, 52
1, 715762, Control_c, 0, 64, 73
1, 715777, Control_c, 0, 64, 76
1, 715792, Control_c, 0, 64, 78
1, 715806, Control_c, 0, 64, 81
1, 715821, Control_c, 0, 64, 83
1, 715836, Control_c, 0, 64, 84
1, 715851, Control_c, 0, 64, 84
1, 716103, Control_c, 0, 64, 84
1, 716118, Control_c, 0, 64, 83
1, 716132, Control_c, 0, 64, 83
1, 716147, Control_c, 0, 64, 82
1, 716185, Control_c, 0, 64, 82
1, 716214, Control_c, 0, 64, 81
1, 716229, Control_c, 0, 64, 80
1, 716244, Control_c, 0, 64, 78
1, 716258, Control_c, 0, 64, 76
1, 716273, Control_c, 0, 64, 72
1, 716288, Control_c, 0, 64, 66
1, 716303, Control_c, 0, 64, 58
1, 716318, Control_c, 0, 64, 40
1, 716334, Control_c, 0, 64, 0
1, 716339, Note_on_c, 0, 44, 37
1, 716354, Note_on_c, 0, 32, 33
1, 716393, Control_c, 0, 64, 46
1, 716408, Control_c, 0, 64, 59
1, 716423, Control_c, 0, 64, 66
1, 716437, Control_c, 0, 64, 70
1, 716452, Control_c, 0, 64, 73
1, 716467, Control_c, 0, 64, 76
1, 716481, Control_c, 0, 64, 80
1, 716491, Note_off_c, 0, 44, 37
1, 716496, Control_c, 0, 64, 84
1, 716507, Note_off_c, 0, 32, 35
1, 716511, Control_c, 0, 64, 88
1, 716515, Note_off_c, 0, 73, 58
1, 716526, Control_c, 0, 64, 91
1, 716541, Control_c, 0, 64, 91
1, 716570, Control_c, 0, 64, 92
1, 716600, Control_c, 0, 64, 92
1, 716615, Control_c, 0, 64, 93
1, 716669, Note_on_c, 0, 75, 63
1, 716688, Control_c, 0, 64, 93
1, 716700, Note_on_c, 0, 72, 46
1, 716703, Note_on_c, 0, 67, 36
1, 716703, Control_c, 0, 64, 94
1, 716718, Control_c, 0, 64, 94
1, 716727, Note_off_c, 0, 77, 57
1, 716733, Control_c, 0, 64, 95
1, 716748, Control_c, 0, 64, 95
1, 716800, Note_off_c, 0, 68, 53
1, 716906, Note_off_c, 0, 75, 55
1, 716933, Control_c, 0, 64, 95
1, 716936, Note_off_c, 0, 72, 34
1, 716948, Control_c, 0, 64, 94
1, 716963, Control_c, 0, 64, 92
1, 716978, Control_c, 0, 64, 91
1, 716992, Control_c, 0, 64, 88
1, 717007, Control_c, 0, 64, 85
1, 717022, Control_c, 0, 64, 79
1, 717037, Control_c, 0, 64, 74
1, 717052, Control_c, 0, 64, 69
1, 717064, Note_on_c, 0, 75, 59
1, 717067, Control_c, 0, 64, 63
1, 717070, Note_on_c, 0, 72, 44
1, 717081, Control_c, 0, 64, 55
1, 717086, Note_on_c, 0, 66, 40
1, 717096, Control_c, 0, 64, 43
1, 717106, Note_on_c, 0, 37, 25
1, 717109, Note_on_c, 0, 49, 25
1, 717111, Control_c, 0, 64, 0
1, 717112, Note_off_c, 0, 67, 41
1, 717132, Note_off_c, 0, 66, 0
1, 717132, Note_on_c, 0, 66, 4
1, 717216, Note_off_c, 0, 72, 60
1, 717231, Control_c, 0, 64, 50
1, 717246, Control_c, 0, 64, 60
1, 717260, Control_c, 0, 64, 65
1, 717275, Control_c, 0, 64, 68
1, 717288, Note_off_c, 0, 66, 47
1, 717290, Control_c, 0, 64, 71
1, 717304, Control_c, 0, 64, 76
1, 717319, Control_c, 0, 64, 83
1, 717334, Control_c, 0, 64, 89
1, 717346, Note_off_c, 0, 49, 41
1, 717349, Control_c, 0, 64, 94
1, 717364, Control_c, 0, 64, 98
1, 717365, Note_off_c, 0, 37, 40
1, 717378, Control_c, 0, 64, 101
1, 717393, Control_c, 0, 64, 103
1, 717423, Control_c, 0, 64, 105
1, 717580, Note_on_c, 0, 73, 57
1, 717603, Note_off_c, 0, 75, 60
1, 717604, Note_on_c, 0, 66, 37
1, 717609, Note_on_c, 0, 70, 34
1, 717630, Control_c, 0, 64, 103
1, 717643, Note_off_c, 0, 70, 51
1, 717645, Control_c, 0, 64, 101
1, 717661, Note_off_c, 0, 73, 58
1, 717667, Control_c, 0, 64, 98
1, 717672, Note_off_c, 0, 66, 44
1, 717682, Control_c, 0, 64, 94
1, 717697, Control_c, 0, 64, 89
1, 717711, Control_c, 0, 64, 84
1, 717726, Control_c, 0, 64, 75
1, 717741, Control_c, 0, 64, 65
1, 717756, Control_c, 0, 64, 51
1, 717758, Note_on_c, 0, 73, 53
1, 717762, Note_on_c, 0, 70, 45
1, 717768, Note_on_c, 0, 44, 42
1, 717770, Note_on_c, 0, 56, 35
1, 717771, Control_c, 0, 64, 0
1, 717777, Note_on_c, 0, 65, 39
1, 717860, Control_c, 0, 64, 46
1, 717873, Note_off_c, 0, 56, 55
1, 717875, Control_c, 0, 64, 60
1, 717890, Control_c, 0, 64, 66
1, 717897, Note_off_c, 0, 44, 56
1, 717905, Control_c, 0, 64, 69
1, 717906, Note_off_c, 0, 65, 55
1, 717920, Control_c, 0, 64, 71
1, 717931, Note_off_c, 0, 70, 48
1, 717935, Control_c, 0, 64, 74
1, 717946, Note_off_c, 0, 73, 53
1, 717950, Control_c, 0, 64, 76
1, 717965, Control_c, 0, 64, 80
1, 717980, Control_c, 0, 64, 82
1, 717995, Control_c, 0, 64, 83
1, 718069, Control_c, 0, 64, 81
1, 718083, Control_c, 0, 64, 77
1, 718098, Control_c, 0, 64, 71
1, 718104, Note_on_c, 0, 73, 65
1, 718113, Control_c, 0, 64, 64
1, 718116, Note_on_c, 0, 70, 59
1, 718123, Note_on_c, 0, 64, 43
1, 718128, Control_c, 0, 64, 59
1, 718158, Control_c, 0, 64, 61
1, 718173, Control_c, 0, 64, 64
1, 718188, Control_c, 0, 64, 67
1, 718202, Control_c, 0, 64, 70
1, 718217, Control_c, 0, 64, 74
1, 718232, Control_c, 0, 64, 77
1, 718247, Control_c, 0, 64, 80
1, 718261, Control_c, 0, 64, 82
1, 718276, Note_off_c, 0, 64, 60
1, 718276, Control_c, 0, 64, 84
1, 718291, Control_c, 0, 64, 84
1, 718310, Note_off_c, 0, 70, 50
1, 718316, Note_off_c, 0, 73, 53
1, 718395, Control_c, 0, 64, 84
1, 718417, Control_c, 0, 64, 82
1, 718432, Control_c, 0, 64, 80
1, 718447, Control_c, 0, 64, 75
1, 718453, Note_on_c, 0, 73, 68
1, 718461, Control_c, 0, 64, 68
1, 718463, Note_on_c, 0, 70, 58
1, 718476, Control_c, 0, 64, 59
1, 718480, Note_on_c, 0, 44, 33
1, 718480, Note_on_c, 0, 65, 50
1, 718491, Control_c, 0, 64, 43
1, 718492, Note_on_c, 0, 32, 30
1, 718506, Control_c, 0, 64, 0
1, 718536, Note_off_c, 0, 65, 0
1, 718536, Note_on_c, 0, 65, 10
1, 718580, Control_c, 0, 64, 47
1, 718595, Control_c, 0, 64, 60
1, 718609, Control_c, 0, 64, 66
1, 718624, Control_c, 0, 64, 71
1, 718639, Control_c, 0, 64, 74
1, 718654, Control_c, 0, 64, 76
1, 718661, Note_off_c, 0, 65, 55
1, 718661, Note_off_c, 0, 73, 58
1, 718662, Note_off_c, 0, 70, 55
1, 718668, Control_c, 0, 64, 79
1, 718683, Control_c, 0, 64, 80
1, 718698, Control_c, 0, 64, 81
1, 718744, Control_c, 0, 64, 80
1, 718758, Control_c, 0, 64, 75
1, 718773, Control_c, 0, 64, 67
1, 718783, Note_on_c, 0, 73, 70
1, 718788, Control_c, 0, 64, 57
1, 718793, Note_on_c, 0, 70, 63
1, 718803, Control_c, 0, 64, 45
1, 718813, Note_on_c, 0, 66, 46
1, 718818, Control_c, 0, 64, 40
1, 718832, Note_off_c, 0, 44, 51
1, 718832, Control_c, 0, 64, 47
1, 718847, Control_c, 0, 64, 56
1, 718862, Control_c, 0, 64, 62
1, 718876, Control_c, 0, 64, 66
1, 718888, Note_off_c, 0, 66, 0
1, 718888, Note_on_c, 0, 66, 3
1, 718891, Control_c, 0, 64, 70
1, 718906, Control_c, 0, 64, 74
1, 718921, Control_c, 0, 64, 79
1, 718931, Note_off_c, 0, 32, 40
1, 718936, Control_c, 0, 64, 82
1, 718946, Note_off_c, 0, 66, 42
1, 718951, Control_c, 0, 64, 84
1, 718966, Note_off_c, 0, 70, 56
1, 718966, Control_c, 0, 64, 85
1, 718989, Note_off_c, 0, 73, 38
1, 719055, Control_c, 0, 64, 84
1, 719070, Control_c, 0, 64, 83
1, 719084, Control_c, 0, 64, 80
1, 719099, Control_c, 0, 64, 77
1, 719114, Control_c, 0, 64, 70
1, 719129, Control_c, 0, 64, 63
1, 719136, Note_on_c, 0, 73, 69
1, 719142, Note_on_c, 0, 70, 58
1, 719144, Control_c, 0, 64, 53
1, 719166, Control_c, 0, 64, 31
1, 719169, Note_on_c, 0, 65, 48
1, 719179, Note_on_c, 0, 49, 36
1, 719180, Control_c, 0, 64, 0
1, 719189, Note_on_c, 0, 37, 27
1, 719221, Note_off_c, 0, 65, 0
1, 719221, Note_on_c, 0, 65, 20
1, 719284, Control_c, 0, 64, 31
1, 719299, Control_c, 0, 64, 53
1, 719314, Control_c, 0, 64, 64
1, 719315, Note_off_c, 0, 73, 62
1, 719321, Note_off_c, 0, 70, 61
1, 719329, Control_c, 0, 64, 69
1, 719344, Control_c, 0, 64, 74
1, 719358, Control_c, 0, 64, 80
1, 719369, Note_off_c, 0, 37, 40
1, 719372, Control_c, 0, 64, 86
1, 719380, Note_off_c, 0, 49, 41
1, 719387, Control_c, 0, 64, 94
1, 719401, Control_c, 0, 64, 103
1, 719416, Control_c, 0, 64, 113
1, 719431, Control_c, 0, 64, 115
1, 719550, Note_off_c, 0, 65, 41
1, 719654, Control_c, 0, 64, 113
1, 719675, Note_on_c, 0, 72, 63
1, 719693, Note_on_c, 0, 69, 51
1, 719699, Note_on_c, 0, 64, 42
1, 719699, Control_c, 0, 64, 111
1, 719729, Control_c, 0, 64, 109
1, 719756, Note_off_c, 0, 72, 56
1, 719759, Control_c, 0, 64, 107
1, 719761, Note_off_c, 0, 69, 51
1, 719780, Note_off_c, 0, 64, 37
1, 719788, Control_c, 0, 64, 103
1, 719803, Control_c, 0, 64, 97
1, 719818, Control_c, 0, 64, 92
1, 719832, Control_c, 0, 64, 85
1, 719847, Control_c, 0, 64, 78
1, 719861, Note_on_c, 0, 72, 67
1, 719862, Control_c, 0, 64, 68
1, 719872, Note_on_c, 0, 68, 53
1, 719877, Control_c, 0, 64, 56
1, 719887, Note_on_c, 0, 63, 42
1, 719889, Note_on_c, 0, 44, 38
1, 719892, Control_c, 0, 64, 0
1, 719895, Note_on_c, 0, 56, 45
1, 719985, Note_off_c, 0, 56, 52
1, 719988, Control_c, 0, 64, 44
1, 720003, Control_c, 0, 64, 58
1, 720018, Control_c, 0, 64, 66
1, 720032, Control_c, 0, 64, 69
1, 720047, Control_c, 0, 64, 72
1, 720048, Note_off_c, 0, 44, 38
1, 720062, Control_c, 0, 64, 73
1, 720077, Control_c, 0, 64, 74
1, 720082, Note_off_c, 0, 63, 60
1, 720092, Control_c, 0, 64, 76
1, 720106, Control_c, 0, 64, 77
1, 720121, Control_c, 0, 64, 77
1, 720151, Control_c, 0, 64, 78
1, 720218, Note_on_c, 0, 62, 58
1, 720269, Control_c, 0, 64, 77
1, 720298, Control_c, 0, 64, 77
1, 720313, Control_c, 0, 64, 76
1, 720329, Control_c, 0, 64, 75
1, 720344, Control_c, 0, 64, 75
1, 720359, Control_c, 0, 64, 74
1, 720374, Control_c, 0, 64, 74
1, 720389, Control_c, 0, 64, 73
1, 720403, Control_c, 0, 64, 72
1, 720418, Control_c, 0, 64, 71
1, 720433, Control_c, 0, 64, 70
1, 720447, Control_c, 0, 64, 69
1, 720462, Control_c, 0, 64, 69
1, 720477, Control_c, 0, 64, 68
1, 720492, Control_c, 0, 64, 67
1, 720507, Control_c, 0, 64, 66
1, 720522, Control_c, 0, 64, 64
1, 720537, Control_c, 0, 64, 62
1, 720552, Control_c, 0, 64, 60
1, 720567, Control_c, 0, 64, 55
1, 720581, Control_c, 0, 64, 45
1, 720596, Control_c, 0, 64, 0
1, 720597, Note_on_c, 0, 61, 38
1, 720609, Note_on_c, 0, 44, 39
1, 720614, Note_on_c, 0, 32, 34
1, 720635, Note_off_c, 0, 62, 38
1, 720662, Control_c, 0, 64, 43
1, 720677, Control_c, 0, 64, 54
1, 720692, Control_c, 0, 64, 61
1, 720707, Control_c, 0, 64, 64
1, 720715, Note_off_c, 0, 61, 61
1, 720722, Control_c, 0, 64, 65
1, 720781, Control_c, 0, 64, 64
1, 720796, Control_c, 0, 64, 63
1, 720811, Control_c, 0, 64, 60
1, 720826, Control_c, 0, 64, 55
1, 720841, Control_c, 0, 64, 46
1, 720855, Control_c, 0, 64, 0
1, 720951, Note_on_c, 0, 60, 38
1, 720960, Control_c, 0, 64, 34
1, 720974, Control_c, 0, 64, 50
1, 720989, Control_c, 0, 64, 60
1, 721004, Control_c, 0, 64, 65
1, 721019, Control_c, 0, 64, 67
1, 721030, Note_off_c, 0, 60, 60
1, 721034, Control_c, 0, 64, 68
1, 721042, Note_off_c, 0, 44, 56
1, 721044, Note_off_c, 0, 68, 52
1, 721048, Control_c, 0, 64, 69
1, 721063, Control_c, 0, 64, 71
1, 721078, Control_c, 0, 64, 73
1, 721080, Note_off_c, 0, 72, 38
1, 721093, Control_c, 0, 64, 75
1, 721108, Control_c, 0, 64, 76
1, 721124, Control_c, 0, 64, 77
1, 721227, Control_c, 0, 64, 76
1, 721242, Control_c, 0, 64, 76
1, 721257, Control_c, 0, 64, 75
1, 721271, Control_c, 0, 64, 74
1, 721286, Control_c, 0, 64, 73
1, 721301, Control_c, 0, 64, 70
1, 721316, Control_c, 0, 64, 67
1, 721317, Note_on_c, 0, 72, 54
1, 721321, Note_off_c, 0, 32, 22
1, 721331, Control_c, 0, 64, 64
1, 721337, Note_on_c, 0, 68, 46
1, 721344, Note_on_c, 0, 49, 43
1, 721345, Note_on_c, 0, 59, 32
1, 721346, Control_c, 0, 64, 60
1, 721360, Control_c, 0, 64, 54
1, 721362, Note_on_c, 0, 37, 29
1, 721375, Control_c, 0, 64, 42
1, 721390, Control_c, 0, 64, 0
1, 721507, Note_off_c, 0, 59, 56
1, 721516, Control_c, 0, 64, 48
1, 721531, Control_c, 0, 64, 59
1, 721546, Control_c, 0, 64, 64
1, 721560, Control_c, 0, 64, 68
1, 721575, Control_c, 0, 64, 71
1, 721588, Note_off_c, 0, 68, 53
1, 721590, Control_c, 0, 64, 75
1, 721604, Control_c, 0, 64, 81
1, 721605, Note_off_c, 0, 49, 44
1, 721610, Note_off_c, 0, 37, 40
1, 721618, Control_c, 0, 64, 86
1, 721633, Control_c, 0, 64, 91
1, 721648, Control_c, 0, 64, 94
1, 721663, Control_c, 0, 64, 97
1, 721822, Note_off_c, 0, 72, 36
1, 721836, Note_on_c, 0, 70, 57
1, 721863, Note_on_c, 0, 60, 39
1, 721896, Note_off_c, 0, 60, 54
1, 721914, Control_c, 0, 64, 96
1, 721930, Control_c, 0, 64, 94
1, 721944, Note_off_c, 0, 70, 51
1, 721945, Control_c, 0, 64, 93
1, 721960, Control_c, 0, 64, 90
1, 721974, Control_c, 0, 64, 87
1, 721989, Control_c, 0, 64, 81
1, 722004, Control_c, 0, 64, 71
1, 722009, Note_on_c, 0, 70, 46
1, 722018, Control_c, 0, 64, 61
1, 722026, Note_on_c, 0, 61, 45
1, 722032, Note_on_c, 0, 56, 40
1, 722033, Control_c, 0, 64, 41
1, 722040, Note_on_c, 0, 66, 43
1, 722044, Note_on_c, 0, 44, 36
1, 722048, Control_c, 0, 64, 0
1, 722099, Note_off_c, 0, 66, 59
1, 722108, Control_c, 0, 64, 51
1, 722113, Note_off_c, 0, 56, 61
1, 722123, Control_c, 0, 64, 62
1, 722127, Note_off_c, 0, 44, 59
1, 722128, Note_off_c, 0, 61, 56
1, 722137, Control_c, 0, 64, 68
1, 722160, Control_c, 0, 64, 71
1, 722174, Control_c, 0, 64, 74
1, 722189, Control_c, 0, 64, 76
1, 722204, Control_c, 0, 64, 78
1, 722212, Note_off_c, 0, 70, 64
1, 722219, Control_c, 0, 64, 81
1, 722233, Control_c, 0, 64, 83
1, 722248, Control_c, 0, 64, 84
1, 722352, Control_c, 0, 64, 83
1, 722367, Control_c, 0, 64, 81
1, 722382, Control_c, 0, 64, 75
1, 722389, Note_on_c, 0, 63, 63
1, 722396, Note_on_c, 0, 60, 53
1, 722397, Control_c, 0, 64, 66
1, 722399, Note_on_c, 0, 57, 48
1, 722412, Control_c, 0, 64, 60
1, 722426, Control_c, 0, 64, 57
1, 722441, Control_c, 0, 64, 60
1, 722456, Control_c, 0, 64, 63
1, 722471, Control_c, 0, 64, 66
1, 722479, Note_off_c, 0, 60, 61
1, 722486, Control_c, 0, 64, 69
1, 722500, Control_c, 0, 64, 70
1, 722515, Control_c, 0, 64, 72
1, 722519, Note_off_c, 0, 57, 42
1, 722530, Control_c, 0, 64, 73
1, 722544, Control_c, 0, 64, 74
1, 722559, Control_c, 0, 64, 75
1, 722633, Control_c, 0, 64, 74
1, 722648, Control_c, 0, 64, 74
1, 722663, Note_off_c, 0, 63, 54
1, 722663, Control_c, 0, 64, 72
1, 722678, Control_c, 0, 64, 70
1, 722692, Control_c, 0, 64, 66
1, 722707, Control_c, 0, 64, 59
1, 722723, Control_c, 0, 64, 46
1, 722730, Note_on_c, 0, 65, 63
1, 722738, Control_c, 0, 64, 0
1, 722743, Note_on_c, 0, 44, 33
1, 722747, Note_on_c, 0, 58, 44
1, 722749, Note_on_c, 0, 61, 36
1, 722760, Note_on_c, 0, 32, 29
1, 722797, Control_c, 0, 64, 38
1, 722812, Control_c, 0, 64, 53
1, 722817, Note_off_c, 0, 61, 55
1, 722827, Control_c, 0, 64, 62
1, 722832, Note_off_c, 0, 65, 64
1, 722841, Control_c, 0, 64, 65
1, 722851, Note_off_c, 0, 58, 53
1, 722856, Control_c, 0, 64, 67
1, 722871, Control_c, 0, 64, 67
1, 722886, Control_c, 0, 64, 68
1, 722983, Control_c, 0, 64, 67
1, 722997, Control_c, 0, 64, 64
1, 723012, Control_c, 0, 64, 59
1, 723027, Control_c, 0, 64, 49
1, 723042, Control_c, 0, 64, 0
1, 723085, Note_on_c, 0, 66, 51
1, 723091, Note_on_c, 0, 59, 39
1, 723104, Note_on_c, 0, 62, 34
1, 723131, Control_c, 0, 64, 41
1, 723146, Control_c, 0, 64, 55
1, 723161, Control_c, 0, 64, 62
1, 723165, Note_off_c, 0, 44, 56
1, 723165, Note_off_c, 0, 59, 60
1, 723175, Control_c, 0, 64, 66
1, 723190, Control_c, 0, 64, 68
1, 723205, Control_c, 0, 64, 70
1, 723220, Control_c, 0, 64, 72
1, 723235, Note_off_c, 0, 62, 37
1, 723235, Control_c, 0, 64, 74
1, 723244, Note_off_c, 0, 66, 56
1, 723249, Control_c, 0, 64, 75
1, 723264, Control_c, 0, 64, 76
1, 723265, Note_off_c, 0, 32, 40
1, 723354, Control_c, 0, 64, 75
1, 723368, Control_c, 0, 64, 74
1, 723383, Control_c, 0, 64, 71
1, 723398, Control_c, 0, 64, 67
1, 723413, Control_c, 0, 64, 63
1, 723428, Control_c, 0, 64, 58
1, 723442, Control_c, 0, 64, 51
1, 723457, Control_c, 0, 64, 42
1, 723472, Note_on_c, 0, 67, 50
1, 723472, Control_c, 0, 64, 0
1, 723474, Note_on_c, 0, 64, 39
1, 723482, Note_on_c, 0, 58, 45
1, 723488, Note_on_c, 0, 49, 37
1, 723503, Note_on_c, 0, 37, 26
1, 723603, Note_off_c, 0, 64, 60
1, 723621, Control_c, 0, 64, 46
1, 723636, Control_c, 0, 64, 60
1, 723658, Control_c, 0, 64, 65
1, 723673, Control_c, 0, 64, 69
1, 723688, Control_c, 0, 64, 73
1, 723702, Control_c, 0, 64, 79
1, 723717, Control_c, 0, 64, 84
1, 723723, Note_off_c, 0, 37, 41
1, 723732, Control_c, 0, 64, 91
1, 723738, Note_off_c, 0, 49, 45
1, 723747, Control_c, 0, 64, 96
1, 723762, Control_c, 0, 64, 100
1, 723784, Note_off_c, 0, 58, 28
1, 723792, Control_c, 0, 64, 102
1, 723836, Control_c, 0, 64, 104
1, 723990, Note_off_c, 0, 67, 41
1, 724046, Note_on_c, 0, 68, 50
1, 724065, Note_on_c, 0, 65, 44
1, 724071, Note_on_c, 0, 57, 30
1, 724087, Control_c, 0, 64, 102
1, 724106, Note_off_c, 0, 68, 59
1, 724114, Note_off_c, 0, 65, 45
1, 724117, Control_c, 0, 64, 99
1, 724147, Control_c, 0, 64, 95
1, 724162, Control_c, 0, 64, 92
1, 724176, Control_c, 0, 64, 88
1, 724191, Control_c, 0, 64, 84
1, 724192, Note_off_c, 0, 57, 35
1, 724206, Control_c, 0, 64, 79
1, 724221, Control_c, 0, 64, 73
1, 724228, Note_on_c, 0, 68, 56
1, 724230, Note_on_c, 0, 65, 51
1, 724236, Control_c, 0, 64, 66
1, 724241, Note_on_c, 0, 56, 39
1, 724251, Control_c, 0, 64, 58
1, 724256, Note_on_c, 0, 44, 31
1, 724266, Control_c, 0, 64, 44
1, 724280, Control_c, 0, 64, 0
1, 724407, Control_c, 0, 64, 49
1, 724421, Control_c, 0, 64, 60
1, 724436, Control_c, 0, 64, 64
1, 724442, Note_off_c, 0, 56, 58
1, 724451, Control_c, 0, 64, 68
1, 724454, Note_off_c, 0, 65, 61
1, 724466, Control_c, 0, 64, 71
1, 724481, Control_c, 0, 64, 75
1, 724495, Control_c, 0, 64, 80
1, 724501, Note_off_c, 0, 44, 44
1, 724510, Control_c, 0, 64, 85
1, 724525, Control_c, 0, 64, 89
1, 724540, Control_c, 0, 64, 93
1, 724555, Control_c, 0, 64, 96
1, 724565, Note_off_c, 0, 68, 62
1, 724570, Control_c, 0, 64, 98
1, 724585, Control_c, 0, 64, 100
1, 724600, Control_c, 0, 64, 103
1, 724615, Control_c, 0, 64, 106
1, 724629, Control_c, 0, 64, 108
1, 724629, Control_c, 0, 67, 124
1, 724644, Control_c, 0, 67, 119
1, 724659, Control_c, 0, 64, 110
1, 724659, Control_c, 0, 67, 108
1, 724674, Control_c, 0, 67, 96
1, 724689, Control_c, 0, 67, 83
1, 724703, Control_c, 0, 67, 71
1, 724718, Control_c, 0, 67, 60
1, 724733, Control_c, 0, 67, 51
1, 724747, Control_c, 0, 67, 43
1, 724762, Control_c, 0, 67, 40
1, 724821, Control_c, 0, 67, 42
1, 724836, Control_c, 0, 67, 43
1, 724851, Control_c, 0, 67, 45
1, 724866, Control_c, 0, 64, 108
1, 724866, Control_c, 0, 67, 47
1, 724881, Control_c, 0, 67, 48
1, 724895, Control_c, 0, 64, 106
1, 724895, Control_c, 0, 67, 49
1, 724910, Control_c, 0, 64, 103
1, 724910, Control_c, 0, 67, 50
1, 724925, Control_c, 0, 64, 100
1, 724925, Control_c, 0, 67, 51
1, 724940, Control_c, 0, 64, 97
1, 724940, Control_c, 0, 67, 52
1, 724954, Control_c, 0, 64, 95
1, 724954, Control_c, 0, 67, 53
1, 724969, Control_c, 0, 64, 92
1, 724969, Control_c, 0, 67, 53
1, 724984, Control_c, 0, 64, 88
1, 724999, Control_c, 0, 64, 85
1, 724999, Control_c, 0, 67, 54
1, 725014, Control_c, 0, 64, 80
1, 725029, Control_c, 0, 64, 76
1, 725029, Control_c, 0, 67, 54
1, 725044, Control_c, 0, 64, 72
1, 725048, Note_on_c, 0, 69, 56
1, 725059, Control_c, 0, 64, 68
1, 725074, Control_c, 0, 64, 64
1, 725080, Note_on_c, 0, 55, 42
1, 725084, Note_on_c, 0, 57, 43
1, 725089, Control_c, 0, 64, 59
1, 725089, Note_on_c, 0, 64, 29
1, 725101, Note_on_c, 0, 33, 31
1, 725101, Note_on_c, 0, 45, 20
1, 725103, Control_c, 0, 64, 54
1, 725118, Control_c, 0, 64, 49
1, 725133, Control_c, 0, 64, 43
1, 725156, Control_c, 0, 64, 34
1, 725170, Control_c, 0, 64, 0
1, 725393, Control_c, 0, 64, 34
1, 725408, Control_c, 0, 64, 53
1, 725422, Control_c, 0, 64, 62
1, 725437, Control_c, 0, 64, 66
1, 725452, Control_c, 0, 64, 71
1, 725467, Control_c, 0, 64, 77
1, 725482, Control_c, 0, 64, 85
1, 725485, Note_off_c, 0, 69, 62
1, 725494, Note_off_c, 0, 57, 60
1, 725496, Note_off_c, 0, 55, 62
1, 725497, Control_c, 0, 64, 98
1, 725497, Control_c, 0, 67, 54
1, 725509, Note_off_c, 0, 64, 57
1, 725512, Control_c, 0, 64, 127
1, 725528, Note_off_c, 0, 33, 54
1, 725541, Control_c, 0, 67, 53
1, 725601, Note_off_c, 0, 45, 41
1, 725718, Control_c, 0, 67, 54
1, 725733, Control_c, 0, 67, 54
1, 725777, Control_c, 0, 67, 55
1, 725792, Control_c, 0, 67, 55
1, 725837, Control_c, 0, 67, 56
1, 725904, Control_c, 0, 64, 121
1, 725911, Note_on_c, 0, 69, 71
1, 725920, Control_c, 0, 64, 112
1, 725935, Control_c, 0, 64, 107
1, 725939, Note_on_c, 0, 66, 48
1, 725949, Control_c, 0, 64, 103
1, 725962, Note_on_c, 0, 64, 41
1, 725964, Control_c, 0, 64, 99
1, 725964, Control_c, 0, 67, 56
1, 725979, Control_c, 0, 64, 95
1, 725993, Control_c, 0, 64, 91
1, 725993, Control_c, 0, 67, 57
1, 726008, Control_c, 0, 64, 88
1, 726008, Control_c, 0, 67, 59
1, 726023, Control_c, 0, 64, 85
1, 726023, Control_c, 0, 67, 62
1, 726038, Control_c, 0, 64, 82
1, 726038, Control_c, 0, 67, 63
1, 726053, Control_c, 0, 64, 79
1, 726053, Control_c, 0, 67, 65
1, 726067, Control_c, 0, 64, 75
1, 726067, Control_c, 0, 67, 67
1, 726082, Control_c, 0, 64, 72
1, 726082, Control_c, 0, 67, 71
1, 726097, Control_c, 0, 64, 68
1, 726097, Control_c, 0, 67, 79
1, 726112, Control_c, 0, 64, 65
1, 726112, Control_c, 0, 67, 90
1, 726127, Control_c, 0, 64, 62
1, 726127, Control_c, 0, 67, 103
1, 726141, Control_c, 0, 64, 58
1, 726141, Control_c, 0, 67, 115
1, 726156, Control_c, 0, 64, 54
1, 726156, Control_c, 0, 67, 126
1, 726171, Control_c, 0, 64, 49
1, 726186, Control_c, 0, 64, 38
1, 726200, Control_c, 0, 64, 0
1, 726334, Control_c, 0, 64, 38
1, 726336, Note_on_c, 0, 50, 47
1, 726340, Note_on_c, 0, 38, 45
1, 726349, Control_c, 0, 64, 51
1, 726364, Control_c, 0, 64, 58
1, 726379, Control_c, 0, 64, 62
1, 726393, Control_c, 0, 64, 64
1, 726408, Control_c, 0, 64, 66
1, 726418, Note_off_c, 0, 66, 30
1, 726418, Note_off_c, 0, 50, 59
1, 726423, Control_c, 0, 64, 67
1, 726438, Control_c, 0, 64, 69
1, 726443, Note_off_c, 0, 38, 61
1, 726453, Control_c, 0, 64, 69
1, 726467, Control_c, 0, 64, 70
1, 726541, Control_c, 0, 64, 69
1, 726556, Control_c, 0, 64, 69
1, 726571, Control_c, 0, 64, 68
1, 726585, Control_c, 0, 64, 67
1, 726600, Control_c, 0, 64, 67
1, 726615, Control_c, 0, 64, 65
1, 726630, Control_c, 0, 64, 64
1, 726653, Control_c, 0, 64, 62
1, 726667, Control_c, 0, 64, 60
1, 726682, Control_c, 0, 64, 57
1, 726697, Control_c, 0, 64, 56
1, 726704, Note_on_c, 0, 66, 37
1, 726707, Note_on_c, 0, 62, 37
1, 726712, Control_c, 0, 64, 55
1, 726728, Control_c, 0, 64, 53
1, 726742, Control_c, 0, 64, 50
1, 726757, Control_c, 0, 64, 47
1, 726772, Control_c, 0, 64, 42
1, 726781, Note_off_c, 0, 64, 53
1, 726787, Control_c, 0, 64, 35
1, 726802, Control_c, 0, 64, 0
1, 726994, Control_c, 0, 64, 43
1, 727009, Control_c, 0, 64, 52
1, 727023, Control_c, 0, 64, 58
1, 727038, Control_c, 0, 64, 62
1, 727048, Note_on_c, 0, 57, 44
1, 727053, Control_c, 0, 64, 64
1, 727068, Control_c, 0, 64, 65
1, 727074, Note_on_c, 0, 45, 35
1, 727083, Control_c, 0, 64, 67
1, 727098, Control_c, 0, 64, 69
1, 727098, Note_off_c, 0, 62, 60
1, 727113, Control_c, 0, 64, 71
1, 727123, Note_off_c, 0, 57, 62
1, 727128, Control_c, 0, 64, 72
1, 727131, Note_off_c, 0, 45, 58
1, 727142, Control_c, 0, 64, 73
1, 727186, Note_off_c, 0, 66, 56
1, 727246, Control_c, 0, 64, 72
1, 727261, Control_c, 0, 64, 72
1, 727276, Control_c, 0, 64, 71
1, 727290, Control_c, 0, 64, 69
1, 727305, Control_c, 0, 64, 67
1, 727320, Control_c, 0, 64, 64
1, 727334, Control_c, 0, 64, 62
1, 727349, Control_c, 0, 64, 60
1, 727364, Control_c, 0, 64, 58
1, 727379, Control_c, 0, 64, 56
1, 727402, Note_on_c, 0, 71, 56
1, 727402, Control_c, 0, 64, 54
1, 727416, Control_c, 0, 64, 53
1, 727431, Control_c, 0, 64, 52
1, 727435, Note_on_c, 0, 65, 32
1, 727438, Note_on_c, 0, 61, 37
1, 727441, Note_off_c, 0, 69, 62
1, 727461, Control_c, 0, 64, 53
1, 727476, Control_c, 0, 64, 55
1, 727490, Control_c, 0, 64, 55
1, 727505, Control_c, 0, 64, 56
1, 727521, Control_c, 0, 64, 55
1, 727551, Control_c, 0, 64, 55
1, 727560, Note_on_c, 0, 69, 64
1, 727565, Control_c, 0, 64, 54
1, 727580, Note_off_c, 0, 71, 58
1, 727580, Control_c, 0, 64, 53
1, 727595, Control_c, 0, 64, 51
1, 727610, Control_c, 0, 64, 49
1, 727625, Control_c, 0, 64, 44
1, 727639, Control_c, 0, 64, 35
1, 727654, Control_c, 0, 64, 0
1, 727712, Note_on_c, 0, 68, 67
1, 727718, Note_off_c, 0, 69, 58
1, 727730, Note_on_c, 0, 45, 39
1, 727742, Note_on_c, 0, 33, 37
1, 727749, Note_off_c, 0, 65, 47
1, 727772, Control_c, 0, 64, 35
1, 727787, Control_c, 0, 64, 54
1, 727802, Control_c, 0, 64, 61
1, 727807, Note_off_c, 0, 45, 56
1, 727817, Control_c, 0, 64, 64
1, 727823, Note_off_c, 0, 33, 53
1, 727832, Control_c, 0, 64, 66
1, 727846, Control_c, 0, 64, 66
1, 727849, Note_off_c, 0, 61, 51
1, 727861, Note_on_c, 0, 69, 70
1, 727861, Control_c, 0, 64, 67
1, 727884, Note_off_c, 0, 68, 59
1, 727920, Control_c, 0, 64, 66
1, 727935, Control_c, 0, 64, 66
1, 727950, Control_c, 0, 64, 65
1, 727965, Control_c, 0, 64, 63
1, 727980, Control_c, 0, 64, 61
1, 727995, Control_c, 0, 64, 59
1, 728010, Control_c, 0, 64, 56
1, 728025, Control_c, 0, 64, 54
1, 728039, Control_c, 0, 64, 50
1, 728054, Control_c, 0, 64, 42
1, 728069, Control_c, 0, 64, 31
1, 728083, Control_c, 0, 64, 0
1, 728087, Note_on_c, 0, 74, 67
1, 728116, Note_off_c, 0, 69, 60
1, 728139, Note_on_c, 0, 66, 38
1, 728140, Note_on_c, 0, 62, 27
1, 728374, Control_c, 0, 64, 37
1, 728388, Control_c, 0, 64, 52
1, 728403, Control_c, 0, 64, 60
1, 728418, Control_c, 0, 64, 64
1, 728433, Control_c, 0, 64, 65
1, 728448, Control_c, 0, 64, 66
1, 728454, Note_on_c, 0, 50, 33
1, 728457, Note_on_c, 0, 38, 25
1, 728463, Control_c, 0, 64, 67
1, 728478, Control_c, 0, 64, 69
1, 728493, Control_c, 0, 64, 70
1, 728522, Control_c, 0, 64, 70
1, 728552, Control_c, 0, 64, 71
1, 728567, Control_c, 0, 64, 71
1, 728582, Control_c, 0, 64, 72
1, 728596, Control_c, 0, 64, 72
1, 728605, Note_on_c, 0, 69, 61
1, 728626, Control_c, 0, 64, 73
1, 728630, Note_off_c, 0, 50, 43
1, 728635, Note_off_c, 0, 38, 40
1, 728666, Note_off_c, 0, 62, 55
1, 728670, Note_off_c, 0, 74, 41
1, 728687, Note_off_c, 0, 69, 62
1, 728692, Note_off_c, 0, 66, 56
1, 728744, Control_c, 0, 64, 72
1, 728759, Note_on_c, 0, 69, 64
1, 728759, Control_c, 0, 64, 70
1, 728774, Control_c, 0, 64, 67
1, 728788, Control_c, 0, 64, 60
1, 728790, Note_on_c, 0, 66, 29
1, 728803, Control_c, 0, 64, 48
1, 728818, Control_c, 0, 64, 34
1, 728824, Note_on_c, 0, 62, 25
1, 728833, Control_c, 0, 64, 0
1, 728862, Control_c, 0, 64, 40
1, 728877, Control_c, 0, 64, 55
1, 728900, Control_c, 0, 64, 63
1, 728915, Control_c, 0, 64, 68
1, 728915, Control_c, 0, 67, 122
1, 728929, Control_c, 0, 64, 72
1, 728929, Control_c, 0, 67, 112
1, 728944, Control_c, 0, 64, 74
1, 728944, Control_c, 0, 67, 103
1, 728959, Control_c, 0, 64, 76
1, 728959, Control_c, 0, 67, 95
1, 728974, Control_c, 0, 64, 77
1, 728974, Control_c, 0, 67, 88
1, 728978, Note_off_c, 0, 69, 50
1, 728985, Note_off_c, 0, 66, 52
1, 728988, Control_c, 0, 64, 79
1, 728988, Control_c, 0, 67, 84
1, 728990, Note_off_c, 0, 62, 37
1, 729003, Control_c, 0, 64, 80
1, 729003, Control_c, 0, 67, 81
1, 729018, Control_c, 0, 64, 80
1, 729018, Control_c, 0, 67, 80
1, 729077, Control_c, 0, 64, 80
1, 729092, Control_c, 0, 64, 76
1, 729107, Control_c, 0, 64, 69
1, 729123, Control_c, 0, 64, 62
1, 729124, Note_on_c, 0, 69, 58
1, 729132, Note_on_c, 0, 66, 43
1, 729135, Note_on_c, 0, 62, 41
1, 729137, Control_c, 0, 64, 54
1, 729152, Control_c, 0, 64, 53
1, 729157, Note_on_c, 0, 57, 42
1, 729167, Control_c, 0, 64, 57
1, 729169, Note_on_c, 0, 45, 24
1, 729182, Control_c, 0, 64, 63
1, 729197, Control_c, 0, 64, 67
1, 729197, Control_c, 0, 67, 80
1, 729211, Note_off_c, 0, 57, 63
1, 729211, Control_c, 0, 64, 70
1, 729211, Control_c, 0, 67, 81
1, 729226, Control_c, 0, 64, 73
1, 729228, Note_off_c, 0, 45, 55
1, 729241, Control_c, 0, 64, 75
1, 729241, Control_c, 0, 67, 81
1, 729256, Control_c, 0, 64, 76
1, 729262, Note_off_c, 0, 62, 53
1, 729271, Control_c, 0, 64, 77
1, 729289, Note_off_c, 0, 66, 55
1, 729301, Control_c, 0, 67, 82
1, 729315, Control_c, 0, 67, 83
1, 729330, Control_c, 0, 67, 84
1, 729345, Control_c, 0, 67, 85
1, 729360, Control_c, 0, 67, 86
1, 729375, Control_c, 0, 67, 88
1, 729390, Control_c, 0, 64, 76
1, 729390, Control_c, 0, 67, 88
1, 729405, Control_c, 0, 64, 75
1, 729405, Control_c, 0, 67, 89
1, 729419, Control_c, 0, 64, 73
1, 729419, Control_c, 0, 67, 90
1, 729434, Control_c, 0, 64, 70
1, 729434, Control_c, 0, 67, 90
1, 729449, Control_c, 0, 64, 67
1, 729449, Control_c, 0, 67, 91
1, 729464, Control_c, 0, 64, 63
1, 729464, Control_c, 0, 67, 92
1, 729476, Note_on_c, 0, 67, 48
1, 729479, Control_c, 0, 64, 57
1, 729479, Control_c, 0, 67, 93
1, 729493, Control_c, 0, 64, 47
1, 729493, Control_c, 0, 67, 94
1, 729494, Note_on_c, 0, 61, 41
1, 729496, Note_on_c, 0, 64, 38
1, 729508, Note_off_c, 0, 69, 48
1, 729508, Control_c, 0, 64, 0
1, 729508, Control_c, 0, 67, 96
1, 729523, Control_c, 0, 67, 98
1, 729537, Control_c, 0, 67, 104
1, 729552, Control_c, 0, 67, 108
1, 729567, Control_c, 0, 67, 113
1, 729582, Control_c, 0, 64, 45
1, 729582, Control_c, 0, 67, 118
1, 729587, Note_off_c, 0, 64, 56
1, 729597, Control_c, 0, 64, 58
1, 729597, Control_c, 0, 67, 124
1, 729611, Control_c, 0, 64, 63
1, 729611, Control_c, 0, 67, 127
1, 729624, Note_off_c, 0, 67, 64
1, 729626, Control_c, 0, 64, 64
1, 729678, Control_c, 0, 64, 64
1, 729690, Note_off_c, 0, 61, 60
1, 729693, Control_c, 0, 64, 63
1, 729708, Control_c, 0, 64, 62
1, 729723, Control_c, 0, 64, 60
1, 729737, Control_c, 0, 64, 57
1, 729752, Control_c, 0, 64, 52
1, 729767, Control_c, 0, 64, 47
1, 729782, Control_c, 0, 64, 38
1, 729797, Control_c, 0, 64, 0
1, 729819, Note_on_c, 0, 66, 42
1, 729837, Note_on_c, 0, 59, 43
1, 729851, Note_on_c, 0, 62, 33
1, 729857, Note_on_c, 0, 45, 27
1, 729864, Note_on_c, 0, 33, 27
1, 729915, Control_c, 0, 64, 40
1, 729930, Control_c, 0, 64, 54
1, 729943, Note_off_c, 0, 62, 46
1, 729945, Control_c, 0, 64, 62
1, 729959, Control_c, 0, 64, 65
1, 729961, Note_off_c, 0, 59, 62
1, 729974, Control_c, 0, 64, 66
1, 729980, Note_off_c, 0, 45, 54
1, 729989, Control_c, 0, 64, 67
1, 729992, Note_off_c, 0, 33, 48
1, 730004, Control_c, 0, 64, 67
1, 730067, Note_off_c, 0, 66, 54
1, 730093, Control_c, 0, 64, 67
1, 730108, Control_c, 0, 64, 66
1, 730123, Control_c, 0, 64, 66
1, 730138, Control_c, 0, 64, 65
1, 730153, Control_c, 0, 64, 64
1, 730167, Control_c, 0, 64, 62
1, 730180, Note_on_c, 0, 64, 56
1, 730180, Note_on_c, 0, 58, 70
1, 730182, Control_c, 0, 64, 59
1, 730189, Note_on_c, 0, 61, 51
1, 730197, Control_c, 0, 64, 54
1, 730212, Control_c, 0, 64, 46
1, 730227, Control_c, 0, 64, 31
1, 730241, Control_c, 0, 64, 0
1, 730427, Control_c, 0, 64, 38
1, 730441, Control_c, 0, 64, 48
1, 730456, Control_c, 0, 64, 55
1, 730471, Control_c, 0, 64, 59
1, 730485, Control_c, 0, 64, 62
1, 730500, Control_c, 0, 64, 64
1, 730513, Note_off_c, 0, 61, 49
1, 730515, Control_c, 0, 64, 66
1, 730527, Note_off_c, 0, 64, 53
1, 730530, Control_c, 0, 64, 68
1, 730539, Note_on_c, 0, 50, 35
1, 730545, Control_c, 0, 64, 71
1, 730559, Note_on_c, 0, 38, 29
1, 730559, Control_c, 0, 64, 74
1, 730574, Control_c, 0, 64, 78
1, 730589, Control_c, 0, 64, 80
1, 730605, Control_c, 0, 64, 82
1, 730620, Control_c, 0, 64, 83
1, 730677, Note_on_c, 0, 64, 51
1, 730677, Note_off_c, 0, 38, 36
1, 730686, Note_off_c, 0, 50, 34
1, 730704, Note_on_c, 0, 61, 38
1, 730708, Control_c, 0, 64, 82
1, 730724, Control_c, 0, 64, 82
1, 730739, Control_c, 0, 64, 81
1, 730754, Control_c, 0, 64, 79
1, 730769, Control_c, 0, 64, 77
1, 730779, Note_off_c, 0, 64, 55
1, 730783, Control_c, 0, 64, 74
1, 730798, Control_c, 0, 64, 70
1, 730799, Note_off_c, 0, 61, 37
1, 730813, Control_c, 0, 64, 67
1, 730828, Control_c, 0, 64, 63
1, 730843, Control_c, 0, 64, 56
1, 730857, Control_c, 0, 64, 45
1, 730870, Note_on_c, 0, 64, 42
1, 730872, Control_c, 0, 64, 0
1, 730889, Note_on_c, 0, 61, 23
1, 731006, Control_c, 0, 64, 37
1, 731021, Control_c, 0, 64, 45
1, 731035, Control_c, 0, 64, 51
1, 731050, Control_c, 0, 64, 57
1, 731065, Control_c, 0, 64, 60
1, 731080, Control_c, 0, 64, 62
1, 731083, Note_off_c, 0, 61, 41
1, 731095, Control_c, 0, 64, 63
1, 731098, Note_off_c, 0, 64, 36
1, 731109, Control_c, 0, 64, 64
1, 731124, Control_c, 0, 64, 65
1, 731146, Control_c, 0, 64, 66
1, 731161, Control_c, 0, 64, 68
1, 731176, Control_c, 0, 64, 70
1, 731190, Control_c, 0, 64, 71
1, 731205, Control_c, 0, 64, 72
1, 731220, Control_c, 0, 64, 74
1, 731227, Note_on_c, 0, 64, 41
1, 731235, Control_c, 0, 64, 76
1, 731238, Note_on_c, 0, 57, 48
1, 731244, Note_on_c, 0, 61, 29
1, 731250, Control_c, 0, 64, 79
1, 731262, Note_on_c, 0, 45, 31
1, 731265, Control_c, 0, 64, 84
1, 731280, Control_c, 0, 64, 89
1, 731295, Control_c, 0, 64, 95
1, 731309, Control_c, 0, 64, 100
1, 731324, Control_c, 0, 64, 103
1, 731327, Note_off_c, 0, 58, 61
1, 731328, Note_off_c, 0, 57, 61
1, 731334, Note_off_c, 0, 45, 51
1, 731339, Control_c, 0, 64, 106
1, 731395, Note_off_c, 0, 61, 39
1, 731503, Control_c, 0, 64, 102
1, 731518, Control_c, 0, 64, 98
1, 731532, Control_c, 0, 64, 93
1, 731547, Control_c, 0, 64, 88
1, 731551, Note_on_c, 0, 66, 56
1, 731555, Note_on_c, 0, 61, 66
1, 731562, Note_on_c, 0, 62, 51
1, 731562, Control_c, 0, 64, 83
1, 731566, Note_off_c, 0, 64, 57
1, 731577, Control_c, 0, 64, 76
1, 731592, Control_c, 0, 64, 68
1, 731606, Control_c, 0, 64, 57
1, 731621, Control_c, 0, 64, 31
1, 731636, Control_c, 0, 64, 0
1, 731677, Note_off_c, 0, 62, 61
1, 731695, Control_c, 0, 64, 42
1, 731701, Note_off_c, 0, 66, 59
1, 731710, Control_c, 0, 64, 54
1, 731725, Control_c, 0, 64, 58
1, 731754, Control_c, 0, 64, 57
1, 731769, Control_c, 0, 64, 54
1, 731784, Control_c, 0, 64, 53
1, 731799, Control_c, 0, 64, 51
1, 731813, Control_c, 0, 64, 48
1, 731828, Control_c, 0, 64, 42
1, 731843, Control_c, 0, 64, 0
1, 731913, Note_on_c, 0, 64, 49
1, 731913, Note_on_c, 0, 67, 57
1, 731936, Note_on_c, 0, 45, 41
1, 731949, Note_on_c, 0, 33, 27
1, 731995, Note_off_c, 0, 64, 63
1, 732013, Control_c, 0, 64, 45
1, 732028, Control_c, 0, 64, 58
1, 732035, Note_off_c, 0, 33, 57
1, 732043, Control_c, 0, 64, 63
1, 732048, Note_off_c, 0, 67, 64
1, 732051, Note_off_c, 0, 45, 59
1, 732058, Control_c, 0, 64, 66
1, 732073, Control_c, 0, 64, 67
1, 732088, Control_c, 0, 64, 67
1, 732103, Control_c, 0, 64, 68
1, 732118, Control_c, 0, 64, 69
1, 732206, Control_c, 0, 64, 68
1, 732216, Note_off_c, 0, 61, 60
1, 732221, Control_c, 0, 64, 68
1, 732236, Control_c, 0, 64, 67
1, 732251, Control_c, 0, 64, 65
1, 732262, Note_on_c, 0, 62, 73
1, 732265, Control_c, 0, 64, 63
1, 732266, Note_on_c, 0, 68, 59
1, 732279, Note_on_c, 0, 65, 48
1, 732280, Control_c, 0, 64, 60
1, 732295, Control_c, 0, 64, 56
1, 732311, Control_c, 0, 64, 50
1, 732326, Control_c, 0, 64, 38
1, 732341, Control_c, 0, 64, 0
1, 732481, Note_off_c, 0, 65, 60
1, 732488, Control_c, 0, 64, 34
1, 732503, Control_c, 0, 64, 54
1, 732518, Control_c, 0, 64, 63
1, 732533, Control_c, 0, 64, 68
1, 732548, Control_c, 0, 64, 71
1, 732555, Note_off_c, 0, 68, 65
1, 732562, Control_c, 0, 64, 75
1, 732577, Control_c, 0, 64, 79
1, 732592, Control_c, 0, 64, 84
1, 732606, Note_on_c, 0, 50, 49
1, 732607, Control_c, 0, 64, 89
1, 732610, Note_on_c, 0, 38, 41
1, 732622, Control_c, 0, 64, 96
1, 732644, Control_c, 0, 64, 102
1, 732659, Control_c, 0, 64, 105
1, 732688, Control_c, 0, 64, 107
1, 732718, Control_c, 0, 64, 109
1, 732726, Note_off_c, 0, 50, 37
1, 732770, Note_off_c, 0, 38, 34
1, 732776, Note_on_c, 0, 78, 88
1, 732806, Note_on_c, 0, 69, 42
1, 732839, Note_off_c, 0, 62, 48
1, 732854, Note_off_c, 0, 69, 0
1, 732854, Note_on_c, 0, 69, 7
1, 732881, Control_c, 0, 67, 124
1, 732886, Note_off_c, 0, 78, 61
1, 732896, Control_c, 0, 67, 121
1, 732925, Control_c, 0, 64, 107
1, 732940, Control_c, 0, 64, 105
1, 732955, Control_c, 0, 64, 103
1, 732970, Note_on_c, 0, 78, 78
1, 732970, Control_c, 0, 64, 100
1, 732978, Note_on_c, 0, 74, 72
1, 732985, Control_c, 0, 64, 97
1, 732995, Note_off_c, 0, 69, 50
1, 733000, Control_c, 0, 64, 93
1, 733014, Control_c, 0, 64, 90
1, 733029, Control_c, 0, 64, 86
1, 733029, Control_c, 0, 67, 123
1, 733044, Control_c, 0, 64, 82
1, 733059, Control_c, 0, 64, 78
1, 733074, Control_c, 0, 64, 71
1, 733074, Control_c, 0, 67, 125
1, 733088, Control_c, 0, 64, 64
1, 733104, Control_c, 0, 64, 54
1, 733104, Control_c, 0, 67, 127
1, 733119, Control_c, 0, 64, 40
1, 733134, Control_c, 0, 64, 0
1, 733322, Note_on_c, 0, 69, 57
1, 733335, Note_on_c, 0, 57, 48
1, 733353, Note_on_c, 0, 45, 31
1, 733356, Control_c, 0, 64, 34
1, 733371, Control_c, 0, 64, 53
1, 733393, Control_c, 0, 64, 61
1, 733408, Control_c, 0, 64, 65
1, 733408, Control_c, 0, 67, 124
1, 733423, Control_c, 0, 64, 68
1, 733435, Note_off_c, 0, 45, 54
1, 733436, Note_off_c, 0, 57, 58
1, 733438, Control_c, 0, 64, 70
1, 733438, Control_c, 0, 67, 121
1, 733453, Control_c, 0, 64, 73
1, 733467, Control_c, 0, 64, 76
1, 733467, Control_c, 0, 67, 119
1, 733482, Control_c, 0, 64, 78
1, 733497, Control_c, 0, 64, 79
1, 733497, Control_c, 0, 67, 114
1, 733511, Control_c, 0, 64, 80
1, 733511, Control_c, 0, 67, 106
1, 733526, Control_c, 0, 67, 98
1, 733541, Control_c, 0, 67, 91
1, 733556, Control_c, 0, 67, 84
1, 733571, Control_c, 0, 67, 80
1, 733585, Control_c, 0, 67, 78
1, 733601, Control_c, 0, 67, 77
1, 733616, Control_c, 0, 67, 76
1, 733630, Control_c, 0, 67, 75
1, 733645, Control_c, 0, 67, 75
1, 733660, Control_c, 0, 64, 79
1, 733675, Control_c, 0, 64, 79
1, 733679, Note_on_c, 0, 68, 75
1, 733690, Control_c, 0, 64, 78
1, 733704, Control_c, 0, 64, 78
1, 733719, Control_c, 0, 64, 77
1, 733734, Control_c, 0, 64, 75
1, 733749, Control_c, 0, 64, 74
1, 733764, Control_c, 0, 64, 72
1, 733764, Control_c, 0, 67, 75
1, 733778, Control_c, 0, 64, 70
1, 733778, Control_c, 0, 67, 76
1, 733793, Note_off_c, 0, 69, 37
1, 733793, Control_c, 0, 64, 68
1, 733793, Control_c, 0, 67, 78
1, 733808, Control_c, 0, 64, 65
1, 733808, Control_c, 0, 67, 80
1, 733823, Control_c, 0, 64, 63
1, 733823, Control_c, 0, 67, 82
1, 733838, Control_c, 0, 64, 59
1, 733838, Control_c, 0, 67, 84
1, 733843, Note_off_c, 0, 74, 62
1, 733852, Control_c, 0, 64, 55
1, 733852, Control_c, 0, 67, 86
1, 733867, Control_c, 0, 64, 50
1, 733867, Control_c, 0, 67, 87
1, 733882, Control_c, 0, 64, 42
1, 733882, Control_c, 0, 67, 89
1, 733897, Control_c, 0, 64, 0
1, 733897, Control_c, 0, 67, 90
1, 733913, Control_c, 0, 67, 91
1, 733927, Control_c, 0, 67, 92
1, 733942, Control_c, 0, 67, 95
1, 733957, Control_c, 0, 67, 99
1, 733972, Control_c, 0, 67, 103
1, 733987, Control_c, 0, 67, 105
1, 734016, Control_c, 0, 67, 108
1, 734037, Note_on_c, 0, 76, 71
1, 734041, Note_on_c, 0, 73, 58
1, 734054, Note_on_c, 0, 33, 45
1, 734055, Note_on_c, 0, 45, 46
1, 734102, Note_off_c, 0, 78, 61
1, 734142, Control_c, 0, 64, 43
1, 734157, Control_c, 0, 64, 57
1, 734157, Control_c, 0, 67, 106
1, 734172, Control_c, 0, 64, 65
1, 734172, Control_c, 0, 67, 104
1, 734187, Control_c, 0, 64, 70
1, 734187, Control_c, 0, 67, 102
1, 734188, Note_off_c, 0, 45, 61
1, 734192, Note_off_c, 0, 33, 57
1, 734201, Control_c, 0, 64, 75
1, 734216, Control_c, 0, 64, 79
1, 734216, Control_c, 0, 67, 99
1, 734231, Control_c, 0, 64, 82
1, 734246, Control_c, 0, 64, 86
1, 734246, Control_c, 0, 67, 97
1, 734261, Control_c, 0, 64, 89
1, 734269, Note_off_c, 0, 76, 60
1, 734276, Control_c, 0, 64, 91
1, 734293, Note_off_c, 0, 73, 61
1, 734379, Control_c, 0, 64, 90
1, 734394, Control_c, 0, 64, 89
1, 734408, Control_c, 0, 64, 88
1, 734423, Control_c, 0, 64, 87
1, 734437, Note_on_c, 0, 76, 72
1, 734438, Control_c, 0, 64, 85
1, 734449, Note_on_c, 0, 73, 61
1, 734453, Note_on_c, 0, 67, 61
1, 734453, Control_c, 0, 64, 83
1, 734453, Control_c, 0, 67, 99
1, 734467, Control_c, 0, 64, 81
1, 734482, Control_c, 0, 64, 79
1, 734497, Control_c, 0, 64, 77
1, 734512, Control_c, 0, 64, 74
1, 734527, Control_c, 0, 64, 70
1, 734541, Control_c, 0, 64, 66
1, 734556, Control_c, 0, 64, 61
1, 734556, Control_c, 0, 67, 101
1, 734571, Control_c, 0, 64, 54
1, 734577, Note_off_c, 0, 68, 62
1, 734586, Control_c, 0, 64, 47
1, 734601, Control_c, 0, 64, 32
1, 734616, Control_c, 0, 64, 0
1, 734616, Control_c, 0, 67, 104
1, 734660, Control_c, 0, 67, 106
1, 734809, Note_on_c, 0, 50, 40
1, 734815, Note_on_c, 0, 38, 32
1, 734839, Control_c, 0, 64, 33
1, 734854, Control_c, 0, 64, 47
1, 734869, Control_c, 0, 64, 59
1, 734890, Control_c, 0, 64, 63
1, 734905, Control_c, 0, 64, 65
1, 734920, Control_c, 0, 64, 66
1, 734935, Control_c, 0, 64, 66
1, 734935, Control_c, 0, 67, 104
1, 734950, Control_c, 0, 64, 67
1, 734959, Note_off_c, 0, 73, 51
1, 734964, Control_c, 0, 64, 68
1, 734973, Note_on_c, 0, 74, 63
1, 734979, Note_off_c, 0, 50, 37
1, 734991, Note_on_c, 0, 71, 44
1, 734994, Note_off_c, 0, 38, 43
1, 735048, Note_off_c, 0, 76, 57
1, 735067, Note_off_c, 0, 71, 60
1, 735069, Control_c, 0, 64, 68
1, 735081, Note_off_c, 0, 74, 62
1, 735083, Control_c, 0, 64, 67
1, 735098, Control_c, 0, 64, 66
1, 735113, Control_c, 0, 64, 65
1, 735128, Control_c, 0, 64, 63
1, 735143, Control_c, 0, 64, 60
1, 735147, Note_on_c, 0, 74, 57
1, 735157, Control_c, 0, 64, 54
1, 735158, Note_on_c, 0, 71, 48
1, 735172, Control_c, 0, 64, 44
1, 735187, Control_c, 0, 64, 0
1, 735261, Control_c, 0, 67, 102
1, 735275, Control_c, 0, 64, 48
1, 735290, Control_c, 0, 64, 60
1, 735290, Control_c, 0, 67, 100
1, 735305, Control_c, 0, 64, 65
1, 735319, Note_off_c, 0, 71, 60
1, 735320, Control_c, 0, 64, 68
1, 735335, Control_c, 0, 64, 69
1, 735349, Control_c, 0, 64, 71
1, 735349, Control_c, 0, 67, 98
1, 735355, Note_off_c, 0, 67, 61
1, 735364, Control_c, 0, 64, 73
1, 735379, Control_c, 0, 64, 74
1, 735394, Control_c, 0, 64, 75
1, 735403, Note_off_c, 0, 74, 59
1, 735468, Control_c, 0, 64, 73
1, 735483, Control_c, 0, 64, 70
1, 735498, Control_c, 0, 64, 64
1, 735504, Note_on_c, 0, 74, 62
1, 735510, Note_on_c, 0, 65, 59
1, 735513, Note_on_c, 0, 71, 49
1, 735513, Control_c, 0, 64, 56
1, 735523, Note_on_c, 0, 57, 42
1, 735528, Control_c, 0, 64, 44
1, 735542, Note_on_c, 0, 45, 24
1, 735543, Control_c, 0, 64, 32
1, 735558, Control_c, 0, 64, 0
1, 735572, Control_c, 0, 64, 32
1, 735587, Control_c, 0, 64, 42
1, 735587, Control_c, 0, 67, 96
1, 735602, Control_c, 0, 64, 51
1, 735602, Control_c, 0, 67, 96
1, 735617, Control_c, 0, 64, 58
1, 735617, Control_c, 0, 67, 95
1, 735636, Note_off_c, 0, 57, 56
1, 735639, Control_c, 0, 64, 63
1, 735639, Control_c, 0, 67, 94
1, 735654, Control_c, 0, 64, 67
1, 735654, Control_c, 0, 67, 93
1, 735656, Note_off_c, 0, 45, 50
1, 735669, Control_c, 0, 64, 71
1, 735669, Control_c, 0, 67, 91
1, 735684, Control_c, 0, 64, 74
1, 735684, Control_c, 0, 67, 87
1, 735699, Control_c, 0, 64, 77
1, 735699, Control_c, 0, 67, 82
1, 735713, Control_c, 0, 64, 79
1, 735713, Control_c, 0, 67, 78
1, 735728, Control_c, 0, 64, 81
1, 735728, Control_c, 0, 67, 76
1, 735734, Note_off_c, 0, 74, 58
1, 735743, Control_c, 0, 64, 82
1, 735743, Control_c, 0, 67, 75
1, 735758, Control_c, 0, 67, 74
1, 735760, Note_off_c, 0, 65, 64
1, 735773, Note_off_c, 0, 71, 60
1, 735802, Control_c, 0, 64, 81
1, 735817, Control_c, 0, 64, 80
1, 735832, Control_c, 0, 64, 77
1, 735847, Control_c, 0, 64, 73
1, 735849, Note_on_c, 0, 74, 72
1, 735858, Note_on_c, 0, 71, 57
1, 735862, Control_c, 0, 64, 67
1, 735870, Note_on_c, 0, 66, 54
1, 735876, Control_c, 0, 64, 57
1, 735891, Control_c, 0, 64, 41
1, 735906, Control_c, 0, 64, 0
1, 735995, Control_c, 0, 64, 45
1, 736010, Control_c, 0, 64, 61
1, 736024, Control_c, 0, 64, 68
1, 736024, Control_c, 0, 67, 75
1, 736039, Control_c, 0, 64, 73
1, 736054, Control_c, 0, 64, 78
1, 736069, Control_c, 0, 64, 81
1, 736084, Control_c, 0, 64, 83
1, 736088, Note_off_c, 0, 74, 59
1, 736098, Control_c, 0, 64, 84
1, 736103, Note_off_c, 0, 71, 56
1, 736152, Note_off_c, 0, 66, 59
1, 736158, Control_c, 0, 64, 83
1, 736172, Control_c, 0, 64, 81
1, 736187, Control_c, 0, 64, 75
1, 736187, Control_c, 0, 67, 75
1, 736197, Note_on_c, 0, 74, 82
1, 736202, Control_c, 0, 64, 68
1, 736202, Control_c, 0, 67, 76
1, 736207, Note_on_c, 0, 71, 61
1, 736207, Note_on_c, 0, 67, 62
1, 736217, Control_c, 0, 64, 58
1, 736231, Control_c, 0, 64, 37
1, 736232, Note_on_c, 0, 45, 40
1, 736234, Note_on_c, 0, 33, 40
1, 736246, Control_c, 0, 64, 0
1, 736276, Control_c, 0, 67, 75
1, 736291, Control_c, 0, 67, 75
1, 736321, Control_c, 0, 64, 39
1, 736321, Control_c, 0, 67, 74
1, 736333, Note_off_c, 0, 45, 60
1, 736336, Control_c, 0, 64, 56
1, 736339, Note_off_c, 0, 33, 57
1, 736351, Control_c, 0, 64, 66
1, 736351, Control_c, 0, 67, 74
1, 736366, Control_c, 0, 64, 71
1, 736366, Control_c, 0, 67, 73
1, 736389, Control_c, 0, 64, 76
1, 736389, Control_c, 0, 67, 72
1, 736403, Control_c, 0, 64, 81
1, 736403, Control_c, 0, 67, 72
1, 736406, Note_off_c, 0, 67, 63
1, 736418, Control_c, 0, 64, 85
1, 736418, Control_c, 0, 67, 71
1, 736433, Control_c, 0, 64, 91
1, 736433, Control_c, 0, 67, 67
1, 736434, Note_off_c, 0, 74, 60
1, 736443, Note_off_c, 0, 71, 61
1, 736448, Control_c, 0, 64, 96
1, 736448, Control_c, 0, 67, 64
1, 736462, Control_c, 0, 64, 98
1, 736462, Control_c, 0, 67, 63
1, 736477, Control_c, 0, 67, 61
1, 736492, Control_c, 0, 67, 61
1, 736566, Control_c, 0, 64, 96
1, 736581, Control_c, 0, 64, 94
1, 736595, Control_c, 0, 64, 93
1, 736604, Note_on_c, 0, 74, 76
1, 736610, Control_c, 0, 64, 91
1, 736610, Control_c, 0, 67, 61
1, 736618, Note_on_c, 0, 71, 59
1, 736625, Control_c, 0, 64, 88
1, 736625, Control_c, 0, 67, 62
1, 736631, Note_on_c, 0, 66, 52
1, 736640, Control_c, 0, 64, 84
1, 736654, Control_c, 0, 64, 79
1, 736654, Control_c, 0, 67, 62
1, 736669, Control_c, 0, 64, 75
1, 736669, Control_c, 0, 67, 63
1, 736684, Control_c, 0, 64, 71
1, 736699, Control_c, 0, 64, 67
1, 736699, Control_c, 0, 67, 63
1, 736714, Control_c, 0, 64, 62
1, 736728, Control_c, 0, 64, 56
1, 736743, Control_c, 0, 64, 49
1, 736743, Control_c, 0, 67, 64
1, 736758, Control_c, 0, 64, 32
1, 736772, Control_c, 0, 64, 0
1, 736772, Control_c, 0, 67, 65
1, 736787, Control_c, 0, 67, 65
1, 736802, Control_c, 0, 67, 66
1, 736817, Control_c, 0, 67, 67
1, 736832, Control_c, 0, 67, 68
1, 736846, Control_c, 0, 67, 68
1, 736861, Control_c, 0, 67, 69
1, 736876, Control_c, 0, 67, 70
1, 736891, Control_c, 0, 67, 71
1, 736906, Control_c, 0, 67, 72
1, 736920, Control_c, 0, 67, 73
1, 736935, Control_c, 0, 67, 74
1, 736950, Control_c, 0, 67, 76
1, 736953, Note_off_c, 0, 71, 64
1, 736965, Control_c, 0, 67, 77
1, 736979, Control_c, 0, 67, 79
1, 736986, Note_on_c, 0, 50, 34
1, 736994, Control_c, 0, 67, 82
1, 737009, Control_c, 0, 64, 35
1, 737009, Control_c, 0, 67, 85
1, 737010, Note_on_c, 0, 38, 19
1, 737024, Control_c, 0, 64, 43
1, 737024, Control_c, 0, 67, 88
1, 737039, Control_c, 0, 64, 49
1, 737039, Control_c, 0, 67, 91
1, 737054, Control_c, 0, 64, 54
1, 737054, Control_c, 0, 67, 92
1, 737069, Control_c, 0, 64, 57
1, 737069, Control_c, 0, 67, 94
1, 737084, Control_c, 0, 64, 60
1, 737084, Control_c, 0, 67, 94
1, 737099, Control_c, 0, 64, 61
1, 737122, Control_c, 0, 64, 62
1, 737135, Note_on_c, 0, 73, 64
1, 737137, Control_c, 0, 64, 64
1, 737149, Note_on_c, 0, 70, 52
1, 737151, Control_c, 0, 64, 65
1, 737166, Control_c, 0, 64, 67
1, 737175, Note_off_c, 0, 74, 57
1, 737181, Control_c, 0, 64, 69
1, 737196, Control_c, 0, 64, 71
1, 737211, Control_c, 0, 64, 72
1, 737225, Control_c, 0, 64, 74
1, 737236, Note_off_c, 0, 38, 41
1, 737240, Control_c, 0, 64, 74
1, 737241, Note_off_c, 0, 50, 41
1, 737255, Control_c, 0, 64, 75
1, 737260, Note_off_c, 0, 66, 55
1, 737276, Note_off_c, 0, 70, 57
1, 737280, Note_off_c, 0, 73, 60
1, 737299, Control_c, 0, 67, 94
1, 737343, Note_on_c, 0, 73, 57
1, 737355, Note_on_c, 0, 69, 57
1, 737373, Note_on_c, 0, 65, 44
1, 737373, Control_c, 0, 64, 75
1, 737388, Control_c, 0, 64, 74
1, 737388, Control_c, 0, 67, 94
1, 737403, Control_c, 0, 64, 73
1, 737418, Control_c, 0, 64, 72
1, 737418, Note_off_c, 0, 65, 0
1, 737418, Note_on_c, 0, 65, 15
1, 737432, Control_c, 0, 64, 69
1, 737447, Control_c, 0, 64, 66
1, 737462, Control_c, 0, 64, 62
1, 737462, Control_c, 0, 67, 95
1, 737477, Control_c, 0, 64, 58
1, 737492, Control_c, 0, 64, 53
1, 737507, Control_c, 0, 64, 47
1, 737522, Control_c, 0, 64, 36
1, 737537, Control_c, 0, 64, 0
1, 737537, Note_on_c, 0, 64, 53
1, 737557, Note_off_c, 0, 65, 59
1, 737610, Control_c, 0, 67, 95
1, 737655, Control_c, 0, 67, 96
1, 737705, Note_on_c, 0, 57, 45
1, 737718, Note_on_c, 0, 45, 33
1, 737729, Control_c, 0, 64, 38
1, 737743, Control_c, 0, 64, 54
1, 737758, Control_c, 0, 64, 61
1, 737773, Control_c, 0, 64, 64
1, 737788, Control_c, 0, 64, 65
1, 737823, Note_off_c, 0, 57, 55
1, 737836, Note_off_c, 0, 64, 53
1, 737844, Note_on_c, 0, 63, 52
1, 737862, Note_off_c, 0, 45, 37
1, 737900, Control_c, 0, 64, 64
1, 737915, Control_c, 0, 64, 64
1, 737930, Control_c, 0, 64, 63
1, 737945, Control_c, 0, 64, 63
1, 737960, Control_c, 0, 64, 61
1, 737974, Control_c, 0, 64, 60
1, 737989, Control_c, 0, 64, 58
1, 738004, Control_c, 0, 64, 56
1, 738004, Control_c, 0, 67, 98
1, 738018, Control_c, 0, 64, 54
1, 738018, Control_c, 0, 67, 101
1, 738033, Control_c, 0, 64, 51
1, 738033, Control_c, 0, 67, 112
1, 738048, Control_c, 0, 64, 47
1, 738048, Control_c, 0, 67, 123
1, 738050, Note_on_c, 0, 62, 53
1, 738059, Note_off_c, 0, 63, 61
1, 738063, Control_c, 0, 64, 41
1, 738063, Control_c, 0, 67, 127
1, 738078, Control_c, 0, 64, 33
1, 738093, Control_c, 0, 64, 0
1, 738213, Note_off_c, 0, 62, 57
1, 738219, Note_on_c, 0, 61, 49
1, 738403, Note_on_c, 0, 45, 33
1, 738408, Note_on_c, 0, 33, 38
1, 738426, Note_off_c, 0, 69, 55
1, 738463, Control_c, 0, 64, 42
1, 738478, Control_c, 0, 64, 54
1, 738492, Control_c, 0, 64, 61
1, 738507, Control_c, 0, 64, 65
1, 738522, Control_c, 0, 64, 67
1, 738537, Control_c, 0, 64, 69
1, 738551, Control_c, 0, 64, 71
1, 738563, Note_off_c, 0, 45, 39
1, 738565, Note_on_c, 0, 60, 52
1, 738566, Control_c, 0, 64, 73
1, 738581, Control_c, 0, 64, 74
1, 738582, Note_off_c, 0, 33, 41
1, 738596, Control_c, 0, 64, 75
1, 738681, Note_off_c, 0, 73, 47
1, 738723, Control_c, 0, 64, 74
1, 738738, Control_c, 0, 64, 73
1, 738753, Control_c, 0, 64, 72
1, 738768, Control_c, 0, 64, 71
1, 738783, Control_c, 0, 64, 71
1, 738797, Control_c, 0, 64, 70
1, 738799, Note_on_c, 0, 73, 65
1, 738812, Control_c, 0, 64, 68
1, 738822, Note_on_c, 0, 69, 50
1, 738827, Control_c, 0, 64, 67
1, 738842, Control_c, 0, 64, 65
1, 738857, Control_c, 0, 64, 63
1, 738872, Control_c, 0, 64, 59
1, 738887, Control_c, 0, 64, 55
1, 738902, Control_c, 0, 64, 51
1, 738917, Control_c, 0, 64, 45
1, 738931, Control_c, 0, 64, 36
1, 738942, Note_off_c, 0, 61, 36
1, 738946, Control_c, 0, 64, 0
1, 739153, Control_c, 0, 64, 36
1, 739168, Control_c, 0, 64, 50
1, 739182, Control_c, 0, 64, 59
1, 739185, Note_on_c, 0, 50, 37
1, 739187, Note_on_c, 0, 38, 34
1, 739188, Note_off_c, 0, 73, 63
1, 739197, Control_c, 0, 64, 63
1, 739212, Control_c, 0, 64, 64
1, 739227, Control_c, 0, 64, 65
1, 739242, Control_c, 0, 64, 67
1, 739257, Control_c, 0, 64, 69
1, 739272, Control_c, 0, 64, 71
1, 739287, Control_c, 0, 64, 72
1, 739302, Control_c, 0, 64, 73
1, 739316, Control_c, 0, 64, 74
1, 739337, Note_on_c, 0, 71, 63
1, 739357, Note_on_c, 0, 68, 43
1, 739385, Note_off_c, 0, 69, 35
1, 739388, Note_off_c, 0, 50, 40
1, 739406, Note_off_c, 0, 38, 39
1, 739437, Note_off_c, 0, 71, 59
1, 739453, Note_off_c, 0, 68, 63
1, 739457, Control_c, 0, 64, 73
1, 739471, Control_c, 0, 64, 72
1, 739486, Control_c, 0, 64, 70
1, 739502, Control_c, 0, 64, 68
1, 739517, Control_c, 0, 64, 66
1, 739522, Note_on_c, 0, 71, 54
1, 739532, Control_c, 0, 64, 63
1, 739540, Note_on_c, 0, 67, 42
1, 739546, Control_c, 0, 64, 58
1, 739561, Control_c, 0, 64, 47
1, 739576, Control_c, 0, 64, 0
1, 739626, Note_off_c, 0, 67, 57
1, 739665, Control_c, 0, 64, 42
1, 739680, Control_c, 0, 64, 56
1, 739692, Note_off_c, 0, 60, 58
1, 739695, Control_c, 0, 64, 62
1, 739710, Control_c, 0, 64, 65
1, 739725, Control_c, 0, 64, 67
1, 739740, Control_c, 0, 64, 67
1, 739743, Note_off_c, 0, 71, 56
1, 739754, Control_c, 0, 64, 68
1, 739769, Control_c, 0, 64, 68
1, 739843, Control_c, 0, 64, 67
1, 739858, Control_c, 0, 64, 66
1, 739872, Control_c, 0, 64, 62
1, 739887, Control_c, 0, 64, 56
1, 739888, Note_on_c, 0, 64, 51
1, 739902, Control_c, 0, 64, 43
1, 739907, Note_on_c, 0, 61, 28
1, 739908, Note_on_c, 0, 45, 31
1, 739912, Note_on_c, 0, 57, 35
1, 739916, Note_on_c, 0, 58, 38
1, 739917, Control_c, 0, 64, 0
1, 739976, Control_c, 0, 64, 42
1, 739990, Control_c, 0, 64, 52
1, 740005, Control_c, 0, 64, 59
1, 740013, Note_off_c, 0, 61, 54
1, 740020, Control_c, 0, 64, 64
1, 740023, Note_off_c, 0, 57, 51
1, 740035, Control_c, 0, 64, 66
1, 740050, Note_off_c, 0, 45, 40
1, 740050, Control_c, 0, 64, 67
1, 740080, Control_c, 0, 64, 67
1, 740132, Note_off_c, 0, 58, 48
1, 740147, Control_c, 0, 64, 67
1, 740161, Control_c, 0, 64, 66
1, 740176, Control_c, 0, 64, 65
1, 740191, Control_c, 0, 64, 64
1, 740205, Control_c, 0, 64, 60
1, 740216, Note_on_c, 0, 66, 55
1, 740220, Control_c, 0, 64, 53
1, 740232, Note_on_c, 0, 59, 41
1, 740232, Note_on_c, 0, 62, 41
1, 740234, Note_off_c, 0, 64, 56
1, 740235, Control_c, 0, 64, 39
1, 740250, Control_c, 0, 64, 0
1, 740325, Control_c, 0, 64, 33
1, 740339, Control_c, 0, 64, 51
1, 740354, Control_c, 0, 64, 60
1, 740360, Note_off_c, 0, 59, 59
1, 740369, Control_c, 0, 64, 64
1, 740384, Control_c, 0, 64, 65
1, 740398, Control_c, 0, 64, 66
1, 740399, Note_off_c, 0, 62, 58
1, 740413, Control_c, 0, 64, 67
1, 740458, Control_c, 0, 64, 66
1, 740473, Control_c, 0, 64, 66
1, 740488, Control_c, 0, 64, 65
1, 740502, Control_c, 0, 64, 63
1, 740517, Control_c, 0, 64, 60
1, 740531, Note_off_c, 0, 66, 44
1, 740532, Control_c, 0, 64, 56
1, 740546, Control_c, 0, 64, 47
1, 740561, Control_c, 0, 64, 35
1, 740576, Control_c, 0, 64, 0
1, 740588, Note_on_c, 0, 67, 48
1, 740606, Note_on_c, 0, 63, 44
1, 740611, Note_on_c, 0, 33, 31
1, 740612, Note_on_c, 0, 45, 28
1, 740620, Note_on_c, 0, 60, 41
1, 740694, Control_c, 0, 64, 45
1, 740709, Control_c, 0, 64, 58
1, 740710, Note_off_c, 0, 63, 62
1, 740724, Control_c, 0, 64, 63
1, 740738, Control_c, 0, 64, 65
1, 740741, Note_off_c, 0, 60, 46
1, 740747, Note_off_c, 0, 45, 52
1, 740753, Control_c, 0, 64, 66
1, 740754, Note_off_c, 0, 33, 48
1, 740768, Control_c, 0, 64, 66
1, 740783, Control_c, 0, 64, 67
1, 740907, Note_off_c, 0, 67, 52
1, 740909, Control_c, 0, 64, 66
1, 740924, Control_c, 0, 64, 66
1, 740939, Control_c, 0, 64, 65
1, 740953, Control_c, 0, 64, 64
1, 740968, Control_c, 0, 64, 63
1, 740983, Control_c, 0, 64, 63
1, 740998, Note_on_c, 0, 68, 58
1, 740998, Control_c, 0, 64, 62
1, 741013, Control_c, 0, 64, 62
1, 741018, Note_on_c, 0, 65, 51
1, 741019, Note_on_c, 0, 59, 44
1, 741027, Control_c, 0, 64, 61
1, 741042, Control_c, 0, 64, 59
1, 741057, Control_c, 0, 64, 58
1, 741072, Control_c, 0, 64, 56
1, 741088, Control_c, 0, 64, 54
1, 741104, Control_c, 0, 64, 52
1, 741118, Control_c, 0, 64, 46
1, 741133, Control_c, 0, 64, 32
1, 741148, Control_c, 0, 64, 0
1, 741281, Control_c, 0, 64, 32
1, 741284, Note_off_c, 0, 59, 57
1, 741296, Control_c, 0, 64, 46
1, 741311, Control_c, 0, 64, 54
1, 741326, Control_c, 0, 64, 57
1, 741355, Control_c, 0, 64, 57
1, 741370, Control_c, 0, 64, 58
1, 741385, Control_c, 0, 64, 59
1, 741400, Control_c, 0, 64, 60
1, 741417, Note_on_c, 0, 50, 36
1, 741420, Note_on_c, 0, 38, 22
1, 741430, Control_c, 0, 64, 59
1, 741444, Control_c, 0, 64, 59
1, 741459, Control_c, 0, 64, 59
1, 741474, Control_c, 0, 64, 61
1, 741489, Control_c, 0, 64, 62
1, 741504, Note_off_c, 0, 65, 43
1, 741504, Control_c, 0, 64, 63
1, 741518, Control_c, 0, 64, 63
1, 741533, Control_c, 0, 64, 64
1, 741545, Note_on_c, 0, 69, 53
1, 741548, Control_c, 0, 64, 65
1, 741560, Note_on_c, 0, 58, 43
1, 741562, Control_c, 0, 64, 68
1, 741577, Control_c, 0, 64, 70
1, 741592, Control_c, 0, 64, 71
1, 741607, Control_c, 0, 64, 72
1, 741630, Control_c, 0, 64, 73
1, 741635, Note_off_c, 0, 68, 33
1, 741635, Poly_aftertouch_c, 0, 66, 127
1, 741644, Control_c, 0, 64, 74
1, 741671, Note_off_c, 0, 69, 56
1, 741680, Poly_aftertouch_c, 0, 66, 0
1, 741692, Note_off_c, 0, 58, 39
1, 741727, Note_off_c, 0, 50, 40
1, 741767, Note_on_c, 0, 69, 47
1, 741777, Control_c, 0, 64, 73
1, 741783, Note_on_c, 0, 66, 36
1, 741792, Control_c, 0, 64, 73
1, 741793, Note_off_c, 0, 38, 39
1, 741799, Note_on_c, 0, 57, 38
1, 741822, Control_c, 0, 64, 72
1, 741837, Control_c, 0, 64, 71
1, 741851, Control_c, 0, 64, 69
1, 741866, Control_c, 0, 64, 68
1, 741881, Control_c, 0, 64, 66
1, 741897, Control_c, 0, 64, 64
1, 741912, Control_c, 0, 64, 62
1, 741927, Control_c, 0, 64, 58
1, 741941, Control_c, 0, 64, 53
1, 741956, Control_c, 0, 64, 50
1, 741971, Control_c, 0, 64, 48
1, 741986, Control_c, 0, 64, 47
1, 742000, Control_c, 0, 64, 46
1, 742015, Control_c, 0, 64, 43
1, 742030, Control_c, 0, 64, 41
1, 742045, Control_c, 0, 64, 40
1, 742060, Control_c, 0, 64, 41
1, 742074, Control_c, 0, 64, 42
1, 742089, Control_c, 0, 64, 42
1, 742104, Control_c, 0, 64, 43
1, 742119, Control_c, 0, 64, 44
1, 742124, Note_on_c, 0, 45, 46
1, 742134, Control_c, 0, 64, 47
1, 742148, Control_c, 0, 64, 50
1, 742163, Control_c, 0, 64, 54
1, 742178, Control_c, 0, 64, 58
1, 742193, Control_c, 0, 64, 61
1, 742208, Control_c, 0, 64, 63
1, 742223, Control_c, 0, 64, 64
1, 742238, Control_c, 0, 64, 66
1, 742253, Control_c, 0, 64, 67
1, 742267, Control_c, 0, 64, 69
1, 742282, Control_c, 0, 64, 70
1, 742297, Control_c, 0, 64, 70
1, 742452, Control_c, 0, 64, 70
1, 742467, Control_c, 0, 64, 69
1, 742482, Control_c, 0, 64, 69
1, 742497, Control_c, 0, 64, 68
1, 742512, Control_c, 0, 64, 65
1, 742514, Note_on_c, 0, 38, 41
1, 742526, Control_c, 0, 64, 63
1, 742541, Control_c, 0, 64, 59
1, 742556, Control_c, 0, 64, 56
1, 742571, Control_c, 0, 64, 57
1, 742586, Control_c, 0, 64, 60
1, 742600, Control_c, 0, 64, 63
1, 742610, Note_off_c, 0, 45, 37
1, 742615, Control_c, 0, 64, 64
1, 742630, Control_c, 0, 64, 64
1, 742645, Control_c, 0, 64, 65
1, 742690, Control_c, 0, 64, 64
1, 742705, Control_c, 0, 64, 63
1, 742720, Control_c, 0, 64, 62
1, 742735, Control_c, 0, 64, 60
1, 742749, Control_c, 0, 64, 56
1, 742764, Control_c, 0, 64, 52
1, 742779, Control_c, 0, 64, 45
1, 742794, Control_c, 0, 64, 0
1, 742932, Note_on_c, 0, 30, 36
1, 742967, Note_off_c, 0, 38, 41
1, 743034, Note_off_c, 0, 57, 55
1, 743034, Note_off_c, 0, 69, 58
1, 743046, Control_c, 0, 64, 46
1, 743060, Control_c, 0, 64, 59
1, 743075, Note_off_c, 0, 66, 59
1, 743075, Control_c, 0, 64, 64
1, 743090, Control_c, 0, 64, 67
1, 743105, Control_c, 0, 64, 69
1, 743127, Control_c, 0, 64, 71
1, 743127, Control_c, 0, 67, 125
1, 743141, Control_c, 0, 64, 74
1, 743156, Control_c, 0, 64, 78
1, 743156, Control_c, 0, 67, 122
1, 743171, Control_c, 0, 64, 81
1, 743186, Control_c, 0, 64, 84
1, 743186, Control_c, 0, 67, 119
1, 743201, Control_c, 0, 64, 87
1, 743201, Control_c, 0, 67, 117
1, 743215, Control_c, 0, 64, 90
1, 743230, Control_c, 0, 64, 94
1, 743230, Control_c, 0, 67, 115
1, 743245, Control_c, 0, 64, 99
1, 743245, Control_c, 0, 67, 110
1, 743260, Control_c, 0, 64, 106
1, 743260, Control_c, 0, 67, 104
1, 743275, Control_c, 0, 64, 112
1, 743275, Control_c, 0, 67, 97
1, 743290, Control_c, 0, 64, 116
1, 743290, Control_c, 0, 67, 90
1, 743305, Control_c, 0, 64, 118
1, 743305, Control_c, 0, 67, 82
1, 743320, Control_c, 0, 64, 121
1, 743320, Control_c, 0, 67, 77
1, 743335, Control_c, 0, 64, 127
1, 743335, Control_c, 0, 67, 73
1, 743350, Control_c, 0, 67, 71
1, 743364, Control_c, 0, 67, 70
1, 743379, Control_c, 0, 67, 69
1, 743409, Control_c, 0, 67, 68
1, 743454, Note_off_c, 0, 30, 40
1, 743497, Note_on_c, 0, 69, 78
1, 743535, Note_on_c, 0, 57, 56
1, 743588, Control_c, 0, 67, 68
1, 743662, Control_c, 0, 64, 122
1, 743677, Control_c, 0, 64, 116
1, 743692, Control_c, 0, 64, 112
1, 743707, Control_c, 0, 64, 109
1, 743721, Control_c, 0, 64, 105
1, 743736, Control_c, 0, 64, 101
1, 743751, Control_c, 0, 64, 98
1, 743765, Control_c, 0, 64, 94
1, 743780, Control_c, 0, 64, 90
1, 743795, Control_c, 0, 64, 87
1, 743810, Control_c, 0, 64, 82
1, 743825, Control_c, 0, 64, 76
1, 743839, Control_c, 0, 64, 64
1, 743854, Control_c, 0, 64, 43
1, 743877, Control_c, 0, 64, 0
1, 743877, Control_c, 0, 67, 68
1, 743936, Control_c, 0, 67, 69
1, 743995, Note_on_c, 0, 65, 46
1, 744008, Note_on_c, 0, 60, 50
1, 744039, Control_c, 0, 67, 69
1, 744069, Control_c, 0, 67, 70
1, 744232, Control_c, 0, 64, 39
1, 744247, Control_c, 0, 64, 48
1, 744262, Control_c, 0, 64, 55
1, 744262, Control_c, 0, 67, 70
1, 744277, Control_c, 0, 64, 59
1, 744292, Control_c, 0, 64, 62
1, 744307, Control_c, 0, 64, 64
1, 744321, Control_c, 0, 64, 67
1, 744336, Control_c, 0, 64, 71
1, 744351, Control_c, 0, 64, 78
1, 744353, Note_on_c, 0, 41, 49
1, 744357, Note_on_c, 0, 29, 50
1, 744366, Control_c, 0, 64, 89
1, 744371, Note_off_c, 0, 57, 59
1, 744381, Control_c, 0, 64, 111
1, 744393, Note_off_c, 0, 69, 61
1, 744396, Control_c, 0, 64, 127
1, 744413, Note_off_c, 0, 60, 62
1, 744421, Note_off_c, 0, 65, 33
1, 744441, Note_off_c, 0, 29, 61
1, 744444, Note_off_c, 0, 41, 59
1, 744456, Control_c, 0, 67, 70
1, 744485, Control_c, 0, 67, 69
1, 744500, Control_c, 0, 67, 69
1, 744727, Note_on_c, 0, 72, 78
1, 744748, Note_on_c, 0, 48, 51
1, 744766, Note_on_c, 0, 60, 49
1, 744847, Control_c, 0, 67, 68
1, 744861, Control_c, 0, 67, 68
1, 744876, Control_c, 0, 67, 67
1, 744891, Control_c, 0, 67, 66
1, 744906, Control_c, 0, 67, 65
1, 744921, Control_c, 0, 67, 64
1, 744935, Control_c, 0, 67, 56
1, 744950, Control_c, 0, 67, 50
1, 744965, Note_off_c, 0, 60, 63
1, 744965, Control_c, 0, 67, 45
1, 744980, Control_c, 0, 67, 41
1, 744995, Control_c, 0, 67, 39
1, 745010, Control_c, 0, 67, 36
1, 745025, Control_c, 0, 67, 34
1, 745029, Note_on_c, 0, 67, 84
1, 745039, Control_c, 0, 67, 32
1, 745049, Note_on_c, 0, 64, 63
1, 745054, Control_c, 0, 67, 30
1, 745062, Note_on_c, 0, 52, 48
1, 745069, Control_c, 0, 67, 28
1, 745076, Note_off_c, 0, 72, 53
1, 745084, Control_c, 0, 67, 25
1, 745099, Control_c, 0, 67, 21
1, 745114, Control_c, 0, 67, 0
1, 745325, Note_off_c, 0, 64, 55
1, 745355, Note_on_c, 0, 72, 83
1, 745374, Note_on_c, 0, 55, 57
1, 745383, Note_off_c, 0, 67, 59
1, 745386, Note_on_c, 0, 60, 73
1, 745436, Note_off_c, 0, 52, 55
1, 745525, Note_off_c, 0, 48, 37
1, 745704, Note_on_c, 0, 66, 80
1, 745733, Note_on_c, 0, 63, 56
1, 745740, Note_off_c, 0, 60, 59
1, 745741, Note_on_c, 0, 59, 47
1, 745743, Control_c, 0, 64, 113
1, 745744, Note_off_c, 0, 55, 56
1, 745758, Control_c, 0, 64, 100
1, 745773, Control_c, 0, 64, 89
1, 745788, Control_c, 0, 64, 78
1, 745800, Note_off_c, 0, 72, 58
1, 745803, Control_c, 0, 64, 66
1, 745818, Control_c, 0, 64, 51
1, 745833, Control_c, 0, 64, 0
1, 745922, Control_c, 0, 64, 44
1, 745937, Control_c, 0, 64, 60
1, 745952, Control_c, 0, 64, 67
1, 745962, Note_off_c, 0, 63, 64
1, 745967, Control_c, 0, 64, 72
1, 745982, Control_c, 0, 64, 77
1, 745997, Control_c, 0, 64, 81
1, 746012, Control_c, 0, 64, 87
1, 746026, Control_c, 0, 64, 96
1, 746032, Note_off_c, 0, 59, 62
1, 746041, Control_c, 0, 64, 103
1, 746053, Note_on_c, 0, 57, 57
1, 746056, Control_c, 0, 64, 109
1, 746071, Control_c, 0, 64, 115
1, 746085, Control_c, 0, 64, 119
1, 746100, Control_c, 0, 64, 127
1, 746120, Note_off_c, 0, 57, 62
1, 746168, Note_on_c, 0, 65, 80
1, 746200, Note_on_c, 0, 62, 60
1, 746235, Note_off_c, 0, 66, 51
1, 746249, Note_off_c, 0, 65, 56
1, 746360, Control_c, 0, 64, 112
1, 746375, Control_c, 0, 64, 104
1, 746390, Control_c, 0, 64, 98
1, 746399, Note_on_c, 0, 74, 81
1, 746405, Control_c, 0, 64, 92
1, 746420, Control_c, 0, 64, 87
1, 746434, Control_c, 0, 64, 80
1, 746439, Note_on_c, 0, 65, 39
1, 746440, Note_off_c, 0, 62, 45
1, 746449, Note_on_c, 0, 58, 51
1, 746449, Control_c, 0, 64, 73
1, 746464, Control_c, 0, 64, 65
1, 746479, Control_c, 0, 64, 56
1, 746493, Control_c, 0, 64, 33
1, 746508, Control_c, 0, 64, 0
1, 746716, Control_c, 0, 64, 36
1, 746731, Control_c, 0, 64, 56
1, 746743, Note_on_c, 0, 41, 48
1, 746746, Control_c, 0, 64, 62
1, 746761, Control_c, 0, 64, 65
1, 746776, Control_c, 0, 64, 67
1, 746778, Note_off_c, 0, 65, 52
1, 746790, Control_c, 0, 64, 69
1, 746805, Control_c, 0, 64, 72
1, 746820, Control_c, 0, 64, 76
1, 746835, Control_c, 0, 64, 80
1, 746850, Control_c, 0, 64, 82
1, 746872, Control_c, 0, 64, 84
1, 746887, Control_c, 0, 64, 84
1, 746891, Note_on_c, 0, 77, 76
1, 746901, Note_off_c, 0, 74, 60
1, 747020, Control_c, 0, 64, 83
1, 747035, Control_c, 0, 64, 78
1, 747050, Control_c, 0, 64, 71
1, 747063, Note_on_c, 0, 74, 76
1, 747064, Control_c, 0, 64, 62
1, 747079, Control_c, 0, 64, 47
1, 747088, Note_on_c, 0, 46, 44
1, 747088, Note_on_c, 0, 64, 56
1, 747094, Control_c, 0, 64, 0
1, 747137, Note_off_c, 0, 77, 58
1, 747153, Control_c, 0, 64, 30
1, 747168, Control_c, 0, 64, 49
1, 747177, Note_off_c, 0, 41, 52
1, 747183, Control_c, 0, 64, 61
1, 747198, Control_c, 0, 64, 66
1, 747213, Control_c, 0, 64, 70
1, 747228, Control_c, 0, 64, 73
1, 747242, Control_c, 0, 64, 76
1, 747257, Control_c, 0, 64, 80
1, 747272, Control_c, 0, 64, 85
1, 747281, Note_off_c, 0, 64, 56
1, 747287, Control_c, 0, 64, 91
1, 747302, Control_c, 0, 64, 98
1, 747316, Control_c, 0, 64, 104
1, 747331, Control_c, 0, 64, 110
1, 747338, Note_off_c, 0, 58, 52
1, 747346, Control_c, 0, 64, 117
1, 747361, Control_c, 0, 64, 127
1, 747392, Note_on_c, 0, 65, 69
1, 747409, Note_on_c, 0, 50, 57
1, 747421, Note_off_c, 0, 65, 67
1, 747422, Note_off_c, 0, 74, 61
1, 747542, Note_off_c, 0, 46, 40
1, 747714, Note_on_c, 0, 74, 85
1, 747734, Note_off_c, 0, 50, 59
1, 747746, Note_on_c, 0, 53, 54
1, 747784, Control_c, 0, 64, 119
1, 747799, Control_c, 0, 64, 114
1, 747813, Control_c, 0, 64, 110
1, 747828, Control_c, 0, 64, 105
1, 747843, Control_c, 0, 64, 102
1, 747857, Control_c, 0, 64, 99
1, 747872, Control_c, 0, 64, 95
1, 747887, Control_c, 0, 64, 91
1, 747902, Control_c, 0, 64, 85
1, 747917, Control_c, 0, 64, 80
1, 747931, Control_c, 0, 64, 73
1, 747946, Control_c, 0, 64, 67
1, 747961, Control_c, 0, 64, 60
1, 747976, Control_c, 0, 64, 50
1, 747991, Control_c, 0, 64, 37
1, 748006, Control_c, 0, 64, 0
1, 748061, Note_on_c, 0, 75, 80
1, 748078, Note_on_c, 0, 60, 49
1, 748082, Note_on_c, 0, 56, 50
1, 748169, Control_c, 0, 64, 45
1, 748184, Control_c, 0, 64, 60
1, 748199, Note_off_c, 0, 56, 57
1, 748199, Control_c, 0, 64, 67
1, 748213, Control_c, 0, 64, 71
1, 748228, Control_c, 0, 64, 76
1, 748243, Control_c, 0, 64, 79
1, 748257, Control_c, 0, 64, 81
1, 748273, Control_c, 0, 64, 84
1, 748279, Note_off_c, 0, 75, 64
1, 748288, Control_c, 0, 64, 85
1, 748303, Control_c, 0, 64, 85
1, 748366, Note_off_c, 0, 60, 63
1, 748385, Note_on_c, 0, 76, 88
1, 748409, Note_on_c, 0, 61, 46
1, 748414, Note_on_c, 0, 57, 44
1, 748414, Note_on_c, 0, 73, 59
1, 748414, Control_c, 0, 64, 84
1, 748429, Control_c, 0, 64, 82
1, 748436, Note_off_c, 0, 74, 53
1, 748444, Control_c, 0, 64, 78
1, 748459, Control_c, 0, 64, 70
1, 748474, Control_c, 0, 64, 58
1, 748488, Control_c, 0, 64, 0
1, 748562, Control_c, 0, 64, 45
1, 748577, Control_c, 0, 64, 60
1, 748592, Control_c, 0, 64, 66
1, 748607, Control_c, 0, 64, 70
1, 748622, Control_c, 0, 64, 73
1, 748636, Control_c, 0, 64, 74
1, 748666, Control_c, 0, 64, 72
1, 748680, Control_c, 0, 64, 64
1, 748695, Control_c, 0, 64, 49
1, 748710, Control_c, 0, 64, 31
1, 748721, Note_on_c, 0, 58, 58
1, 748725, Note_off_c, 0, 57, 58
1, 748725, Control_c, 0, 64, 35
1, 748726, Note_on_c, 0, 62, 58
1, 748740, Control_c, 0, 64, 49
1, 748743, Note_off_c, 0, 61, 55
1, 748754, Control_c, 0, 64, 61
1, 748769, Control_c, 0, 64, 67
1, 748784, Control_c, 0, 64, 73
1, 748799, Control_c, 0, 64, 79
1, 748814, Control_c, 0, 64, 84
1, 748828, Control_c, 0, 64, 87
1, 748843, Control_c, 0, 64, 91
1, 748858, Control_c, 0, 64, 94
1, 748873, Control_c, 0, 64, 96
1, 748889, Note_off_c, 0, 58, 56
1, 748903, Control_c, 0, 64, 98
1, 749022, Note_on_c, 0, 77, 74
1, 749036, Control_c, 0, 64, 96
1, 749037, Note_on_c, 0, 63, 57
1, 749038, Note_off_c, 0, 73, 56
1, 749042, Note_on_c, 0, 69, 61
1, 749051, Control_c, 0, 64, 94
1, 749052, Note_off_c, 0, 62, 47
1, 749059, Note_on_c, 0, 59, 46
1, 749064, Note_off_c, 0, 76, 61
1, 749066, Control_c, 0, 64, 90
1, 749082, Control_c, 0, 64, 83
1, 749097, Control_c, 0, 64, 73
1, 749118, Control_c, 0, 64, 62
1, 749133, Control_c, 0, 64, 0
1, 749207, Control_c, 0, 64, 38
1, 749222, Control_c, 0, 64, 59
1, 749237, Control_c, 0, 64, 66
1, 749252, Control_c, 0, 64, 71
1, 749267, Control_c, 0, 64, 74
1, 749282, Control_c, 0, 64, 75
1, 749296, Control_c, 0, 64, 76
1, 749311, Control_c, 0, 64, 77
1, 749326, Control_c, 0, 64, 78
1, 749356, Control_c, 0, 64, 77
1, 749371, Control_c, 0, 64, 73
1, 749374, Note_on_c, 0, 79, 83
1, 749379, Note_off_c, 0, 59, 37
1, 749385, Control_c, 0, 64, 65
1, 749398, Note_on_c, 0, 60, 46
1, 749400, Note_on_c, 0, 64, 52
1, 749400, Control_c, 0, 64, 55
1, 749405, Note_off_c, 0, 77, 64
1, 749415, Control_c, 0, 64, 46
1, 749430, Control_c, 0, 64, 49
1, 749432, Note_off_c, 0, 63, 59
1, 749444, Control_c, 0, 64, 56
1, 749459, Control_c, 0, 64, 61
1, 749472, Note_off_c, 0, 60, 65
1, 749474, Control_c, 0, 64, 66
1, 749489, Control_c, 0, 64, 70
1, 749503, Control_c, 0, 64, 74
1, 749518, Control_c, 0, 64, 79
1, 749533, Control_c, 0, 64, 82
1, 749548, Control_c, 0, 64, 83
1, 749563, Control_c, 0, 64, 84
1, 749577, Control_c, 0, 64, 85
1, 749592, Control_c, 0, 64, 85
1, 749681, Control_c, 0, 64, 85
1, 749693, Note_on_c, 0, 74, 82
1, 749696, Control_c, 0, 64, 84
1, 749705, Note_off_c, 0, 64, 62
1, 749711, Control_c, 0, 64, 82
1, 749719, Note_on_c, 0, 70, 53
1, 749726, Control_c, 0, 64, 79
1, 749732, Note_on_c, 0, 62, 46
1, 749734, Note_on_c, 0, 58, 42
1, 749741, Control_c, 0, 64, 75
1, 749755, Note_off_c, 0, 69, 38
1, 749756, Control_c, 0, 64, 67
1, 749770, Control_c, 0, 64, 56
1, 749785, Control_c, 0, 64, 0
1, 749799, Note_off_c, 0, 79, 64
1, 749866, Control_c, 0, 64, 50
1, 749882, Control_c, 0, 64, 62
1, 749897, Control_c, 0, 64, 68
1, 749912, Control_c, 0, 64, 71
1, 749927, Control_c, 0, 64, 73
1, 749941, Control_c, 0, 64, 74
1, 749942, Note_off_c, 0, 70, 58
1, 750015, Control_c, 0, 64, 72
1, 750020, Note_off_c, 0, 62, 46
1, 750030, Note_on_c, 0, 76, 77
1, 750030, Control_c, 0, 64, 67
1, 750033, Note_off_c, 0, 58, 51
1, 750045, Control_c, 0, 64, 60
1, 750054, Note_on_c, 0, 59, 41
1, 750060, Control_c, 0, 64, 45
1, 750063, Note_on_c, 0, 71, 51
1, 750067, Note_off_c, 0, 74, 59
1, 750068, Note_on_c, 0, 56, 36
1, 750074, Control_c, 0, 64, 0
1, 750133, Control_c, 0, 64, 38
1, 750148, Control_c, 0, 64, 53
1, 750163, Control_c, 0, 64, 63
1, 750178, Control_c, 0, 64, 67
1, 750193, Control_c, 0, 64, 71
1, 750207, Control_c, 0, 64, 73
1, 750222, Control_c, 0, 64, 75
1, 750237, Control_c, 0, 64, 75
1, 750339, Note_off_c, 0, 56, 39
1, 750340, Control_c, 0, 64, 74
1, 750342, Note_off_c, 0, 59, 58
1, 750353, Note_off_c, 0, 53, 40
1, 750355, Control_c, 0, 64, 73
1, 750370, Control_c, 0, 64, 71
1, 750380, Note_on_c, 0, 77, 71
1, 750382, Note_off_c, 0, 71, 60
1, 750385, Control_c, 0, 64, 68
1, 750393, Note_on_c, 0, 69, 51
1, 750396, Note_off_c, 0, 76, 60
1, 750400, Control_c, 0, 64, 64
1, 750414, Note_on_c, 0, 60, 39
1, 750414, Control_c, 0, 64, 58
1, 750418, Note_on_c, 0, 57, 15
1, 750429, Control_c, 0, 64, 46
1, 750444, Control_c, 0, 64, 0
1, 750533, Control_c, 0, 64, 39
1, 750548, Control_c, 0, 64, 57
1, 750563, Control_c, 0, 64, 65
1, 750578, Control_c, 0, 64, 68
1, 750593, Control_c, 0, 64, 69
1, 750614, Control_c, 0, 64, 69
1, 750629, Control_c, 0, 67, 19
1, 750659, Control_c, 0, 64, 69
1, 750674, Control_c, 0, 64, 68
1, 750689, Control_c, 0, 64, 66
1, 750704, Control_c, 0, 64, 62
1, 750719, Control_c, 0, 64, 54
1, 750719, Control_c, 0, 67, 22
1, 750734, Control_c, 0, 64, 40
1, 750739, Note_off_c, 0, 69, 60
1, 750739, Note_on_c, 0, 71, 65
1, 750743, Note_off_c, 0, 60, 42
1, 750749, Control_c, 0, 64, 0
1, 750754, Note_off_c, 0, 57, 45
1, 750757, Note_on_c, 0, 55, 46
1, 750763, Note_on_c, 0, 49, 44
1, 750763, Control_c, 0, 67, 24
1, 750766, Note_off_c, 0, 77, 57
1, 750767, Note_on_c, 0, 67, 43
1, 750837, Control_c, 0, 64, 31
1, 750852, Control_c, 0, 64, 48
1, 750867, Control_c, 0, 64, 60
1, 750867, Control_c, 0, 67, 26
1, 750881, Control_c, 0, 64, 64
1, 750896, Control_c, 0, 64, 66
1, 750896, Control_c, 0, 67, 28
1, 750911, Control_c, 0, 64, 66
1, 750926, Control_c, 0, 64, 67
1, 750926, Control_c, 0, 67, 30
1, 750941, Control_c, 0, 67, 32
1, 750955, Control_c, 0, 67, 32
1, 750970, Control_c, 0, 64, 66
1, 750970, Control_c, 0, 67, 33
1, 750985, Control_c, 0, 64, 66
1, 750999, Control_c, 0, 64, 65
1, 751014, Control_c, 0, 64, 64
1, 751029, Control_c, 0, 64, 63
1, 751029, Control_c, 0, 67, 33
1, 751044, Control_c, 0, 64, 61
1, 751044, Control_c, 0, 67, 34
1, 751059, Control_c, 0, 64, 60
1, 751073, Control_c, 0, 64, 58
1, 751088, Control_c, 0, 64, 56
1, 751100, Note_on_c, 0, 72, 64
1, 751103, Control_c, 0, 64, 54
1, 751110, Note_on_c, 0, 59, 48
1, 751117, Note_off_c, 0, 55, 42
1, 751118, Note_on_c, 0, 53, 31
1, 751118, Control_c, 0, 64, 51
1, 751121, Note_off_c, 0, 71, 59
1, 751133, Note_on_c, 0, 56, 32
1, 751133, Control_c, 0, 64, 47
1, 751145, Note_off_c, 0, 49, 40
1, 751148, Note_off_c, 0, 67, 55
1, 751148, Control_c, 0, 64, 39
1, 751163, Control_c, 0, 64, 0
1, 751252, Control_c, 0, 67, 34
1, 751281, Control_c, 0, 67, 35
1, 751296, Control_c, 0, 67, 35
1, 751311, Control_c, 0, 67, 36
1, 751326, Control_c, 0, 67, 37
1, 751341, Control_c, 0, 67, 43
1, 751362, Control_c, 0, 67, 47
1, 751377, Control_c, 0, 67, 51
1, 751392, Control_c, 0, 67, 54
1, 751407, Control_c, 0, 67, 58
1, 751422, Control_c, 0, 67, 63
1, 751437, Control_c, 0, 67, 66
1, 751452, Control_c, 0, 67, 69
1, 751464, Note_off_c, 0, 59, 40
1, 751467, Control_c, 0, 67, 70
1, 751482, Control_c, 0, 67, 71
1, 751484, Note_on_c, 0, 60, 48
1, 751492, Note_off_c, 0, 56, 44
1, 751499, Note_on_c, 0, 57, 37
1, 751616, Control_c, 0, 64, 50
1, 751628, Note_off_c, 0, 72, 42
1, 751631, Control_c, 0, 64, 64
1, 751645, Control_c, 0, 64, 71
1, 751660, Control_c, 0, 64, 80
1, 751664, Note_off_c, 0, 57, 57
1, 751675, Control_c, 0, 64, 88
1, 751690, Control_c, 0, 64, 94
1, 751705, Control_c, 0, 64, 99
1, 751705, Control_c, 0, 67, 70
1, 751720, Control_c, 0, 64, 103
1, 751720, Note_off_c, 0, 53, 40
1, 751823, Control_c, 0, 64, 99
1, 751838, Control_c, 0, 64, 95
1, 751853, Control_c, 0, 64, 92
1, 751868, Control_c, 0, 64, 89
1, 751881, Note_on_c, 0, 69, 73
1, 751883, Control_c, 0, 64, 86
1, 751897, Control_c, 0, 64, 84
1, 751897, Control_c, 0, 67, 71
1, 751911, Note_on_c, 0, 57, 57
1, 751912, Control_c, 0, 64, 80
1, 751922, Note_off_c, 0, 60, 58
1, 751927, Control_c, 0, 64, 76
1, 751942, Control_c, 0, 64, 73
1, 751957, Control_c, 0, 64, 70
1, 751971, Control_c, 0, 64, 67
1, 751986, Control_c, 0, 64, 63
1, 752001, Control_c, 0, 64, 58
1, 752016, Control_c, 0, 64, 47
1, 752030, Control_c, 0, 64, 0
1, 752172, Control_c, 0, 67, 70
1, 752186, Control_c, 0, 64, 35
1, 752186, Control_c, 0, 67, 70
1, 752201, Control_c, 0, 64, 49
1, 752216, Control_c, 0, 64, 59
1, 752230, Control_c, 0, 64, 62
1, 752245, Control_c, 0, 64, 64
1, 752260, Control_c, 0, 64, 64
1, 752260, Control_c, 0, 67, 69
1, 752267, Note_on_c, 0, 65, 44
1, 752274, Note_on_c, 0, 60, 33
1, 752276, Control_c, 0, 64, 65
1, 752276, Control_c, 0, 67, 69
1, 752291, Control_c, 0, 64, 66
1, 752306, Control_c, 0, 64, 68
1, 752321, Control_c, 0, 64, 69
1, 752335, Control_c, 0, 64, 71
1, 752350, Control_c, 0, 64, 73
1, 752365, Control_c, 0, 64, 76
1, 752380, Control_c, 0, 64, 79
1, 752395, Control_c, 0, 64, 83
1, 752409, Control_c, 0, 64, 87
1, 752424, Control_c, 0, 64, 90
1, 752424, Control_c, 0, 67, 68
1, 752439, Control_c, 0, 64, 93
1, 752453, Control_c, 0, 64, 98
1, 752468, Control_c, 0, 64, 103
1, 752483, Control_c, 0, 64, 110
1, 752498, Control_c, 0, 64, 118
1, 752513, Control_c, 0, 64, 127
1, 752521, Note_off_c, 0, 57, 59
1, 752561, Note_off_c, 0, 65, 58
1, 752576, Note_off_c, 0, 69, 61
1, 752578, Note_on_c, 0, 41, 62
1, 752593, Note_off_c, 0, 60, 41
1, 752602, Note_on_c, 0, 29, 46
1, 752720, Control_c, 0, 67, 68
1, 752876, Control_c, 0, 67, 67
1, 752925, Note_on_c, 0, 72, 81
1, 752948, Note_on_c, 0, 60, 55
1, 752949, Note_on_c, 0, 40, 57
1, 753024, Control_c, 0, 67, 67
1, 753039, Control_c, 0, 67, 66
1, 753053, Control_c, 0, 67, 66
1, 753069, Control_c, 0, 67, 65
1, 753084, Control_c, 0, 67, 64
1, 753099, Control_c, 0, 67, 63
1, 753114, Control_c, 0, 67, 63
1, 753129, Control_c, 0, 67, 62
1, 753130, Note_off_c, 0, 60, 56
1, 753173, Control_c, 0, 67, 62
1, 753254, Note_on_c, 0, 67, 84
1, 753262, Control_c, 0, 64, 122
1, 753275, Note_on_c, 0, 39, 69
1, 753276, Control_c, 0, 64, 113
1, 753279, Note_on_c, 0, 59, 61
1, 753291, Control_c, 0, 64, 108
1, 753306, Control_c, 0, 64, 103
1, 753321, Control_c, 0, 64, 95
1, 753321, Control_c, 0, 67, 62
1, 753324, Note_off_c, 0, 40, 45
1, 753333, Note_off_c, 0, 41, 29
1, 753336, Control_c, 0, 64, 79
1, 753349, Note_off_c, 0, 72, 62
1, 753351, Control_c, 0, 64, 61
1, 753351, Control_c, 0, 67, 63
1, 753365, Control_c, 0, 64, 0
1, 753368, Note_off_c, 0, 29, 54
1, 753455, Control_c, 0, 64, 34
1, 753469, Control_c, 0, 64, 55
1, 753484, Control_c, 0, 64, 63
1, 753499, Control_c, 0, 64, 66
1, 753514, Control_c, 0, 64, 69
1, 753529, Control_c, 0, 64, 71
1, 753543, Control_c, 0, 64, 74
1, 753558, Control_c, 0, 64, 79
1, 753573, Control_c, 0, 64, 85
1, 753577, Note_on_c, 0, 72, 88
1, 753588, Control_c, 0, 64, 91
1, 753610, Control_c, 0, 64, 98
1, 753625, Note_off_c, 0, 67, 61
1, 753625, Control_c, 0, 64, 104
1, 753640, Control_c, 0, 64, 109
1, 753642, Note_off_c, 0, 39, 62
1, 753655, Control_c, 0, 64, 116
1, 753661, Note_off_c, 0, 59, 61
1, 753669, Control_c, 0, 64, 127
1, 753848, Control_c, 0, 67, 63
1, 753878, Control_c, 0, 67, 64
1, 753923, Note_on_c, 0, 66, 83
1, 753923, Control_c, 0, 67, 64
1, 753938, Control_c, 0, 67, 65
1, 753944, Note_on_c, 0, 58, 56
1, 753968, Control_c, 0, 64, 113
1, 753982, Control_c, 0, 64, 103
1, 753997, Control_c, 0, 64, 93
1, 754003, Note_off_c, 0, 72, 59
1, 754012, Control_c, 0, 64, 82
1, 754012, Control_c, 0, 67, 65
1, 754026, Control_c, 0, 64, 74
1, 754026, Control_c, 0, 67, 66
1, 754041, Control_c, 0, 64, 67
1, 754056, Control_c, 0, 64, 58
1, 754071, Control_c, 0, 64, 39
1, 754086, Control_c, 0, 64, 0
1, 754086, Control_c, 0, 67, 66
1, 754248, Control_c, 0, 64, 36
1, 754251, Note_on_c, 0, 38, 75
1, 754263, Control_c, 0, 64, 47
1, 754278, Control_c, 0, 64, 56
1, 754292, Control_c, 0, 64, 62
1, 754307, Control_c, 0, 64, 65
1, 754322, Control_c, 0, 64, 66
1, 754337, Control_c, 0, 64, 69
1, 754359, Control_c, 0, 64, 72
1, 754374, Control_c, 0, 64, 76
1, 754374, Control_c, 0, 67, 66
1, 754381, Note_off_c, 0, 58, 62
1, 754389, Control_c, 0, 64, 81
1, 754395, Note_on_c, 0, 65, 80
1, 754404, Control_c, 0, 64, 89
1, 754419, Control_c, 0, 64, 96
1, 754422, Note_off_c, 0, 66, 60
1, 754433, Control_c, 0, 64, 104
1, 754448, Control_c, 0, 64, 113
1, 754463, Control_c, 0, 64, 127
1, 754591, Note_on_c, 0, 74, 79
1, 754611, Note_off_c, 0, 65, 63
1, 754612, Note_on_c, 0, 60, 59
1, 754623, Note_on_c, 0, 44, 59
1, 754626, Control_c, 0, 64, 103
1, 754641, Control_c, 0, 64, 82
1, 754656, Control_c, 0, 64, 65
1, 754671, Control_c, 0, 64, 43
1, 754686, Control_c, 0, 64, 0
1, 754716, Control_c, 0, 64, 32
1, 754731, Control_c, 0, 64, 53
1, 754746, Control_c, 0, 64, 64
1, 754749, Note_off_c, 0, 60, 53
1, 754760, Control_c, 0, 64, 70
1, 754760, Control_c, 0, 67, 65
1, 754765, Note_on_c, 0, 45, 78
1, 754774, Note_off_c, 0, 44, 63
1, 754775, Control_c, 0, 64, 75
1, 754775, Control_c, 0, 67, 65
1, 754790, Control_c, 0, 64, 78
1, 754790, Control_c, 0, 67, 64
1, 754805, Control_c, 0, 64, 82
1, 754805, Control_c, 0, 67, 63
1, 754820, Control_c, 0, 64, 85
1, 754820, Control_c, 0, 67, 62
1, 754835, Control_c, 0, 64, 88
1, 754835, Control_c, 0, 67, 61
1, 754849, Control_c, 0, 64, 91
1, 754849, Control_c, 0, 67, 61
1, 754864, Control_c, 0, 64, 95
1, 754864, Control_c, 0, 67, 60
1, 754874, Note_off_c, 0, 38, 59
1, 754879, Control_c, 0, 64, 98
1, 754894, Control_c, 0, 64, 102
1, 754909, Control_c, 0, 64, 105
1, 754909, Control_c, 0, 67, 60
1, 754911, Note_off_c, 0, 45, 62
1, 754913, Note_on_c, 0, 46, 70
1, 754913, Note_on_c, 0, 62, 77
1, 754923, Control_c, 0, 64, 107
1, 754923, Control_c, 0, 67, 59
1, 754938, Control_c, 0, 64, 110
1, 754938, Control_c, 0, 67, 59
1, 754953, Control_c, 0, 64, 113
1, 754953, Control_c, 0, 67, 58
1, 754967, Control_c, 0, 64, 127
1, 754967, Control_c, 0, 67, 58
1, 754982, Control_c, 0, 67, 57
1, 754987, Note_off_c, 0, 46, 61
1, 755008, Note_off_c, 0, 62, 54
1, 755051, Note_on_c, 0, 77, 86
1, 755056, Note_off_c, 0, 74, 64
1, 755086, Control_c, 0, 67, 57
1, 755138, Control_c, 0, 67, 56
1, 755228, Note_on_c, 0, 74, 91
1, 755234, Note_on_c, 0, 47, 73
1, 755247, Note_on_c, 0, 65, 77
1, 755256, Control_c, 0, 64, 95
1, 755271, Control_c, 0, 64, 69
1, 755286, Control_c, 0, 64, 38
1, 755301, Control_c, 0, 64, 0
1, 755324, Note_off_c, 0, 77, 42
1, 755363, Note_on_c, 0, 50, 77
1, 755389, Control_c, 0, 64, 45
1, 755404, Control_c, 0, 64, 64
1, 755404, Control_c, 0, 67, 55
1, 755419, Control_c, 0, 64, 68
1, 755419, Control_c, 0, 67, 54
1, 755434, Control_c, 0, 64, 71
1, 755434, Control_c, 0, 67, 53
1, 755442, Note_off_c, 0, 47, 61
1, 755448, Control_c, 0, 64, 75
1, 755448, Control_c, 0, 67, 51
1, 755463, Control_c, 0, 64, 79
1, 755463, Control_c, 0, 67, 45
1, 755479, Control_c, 0, 64, 84
1, 755479, Control_c, 0, 67, 35
1, 755481, Note_off_c, 0, 65, 61
1, 755494, Control_c, 0, 64, 91
1, 755494, Control_c, 0, 67, 22
1, 755509, Control_c, 0, 64, 101
1, 755509, Control_c, 0, 67, 0
1, 755521, Note_on_c, 0, 69, 86
1, 755524, Control_c, 0, 64, 112
1, 755529, Note_on_c, 0, 53, 81
1, 755539, Control_c, 0, 64, 127
1, 755539, Note_off_c, 0, 74, 64
1, 755542, Note_off_c, 0, 50, 61
1, 755577, Note_off_c, 0, 69, 64
1, 755625, Note_off_c, 0, 53, 62
1, 755650, Note_on_c, 0, 57, 84
1, 755695, Note_off_c, 0, 57, 61
1, 755905, Note_on_c, 0, 81, 100
1, 755943, Note_on_c, 0, 73, 70
1, 755960, Control_c, 0, 64, 96
1, 755975, Control_c, 0, 64, 78
1, 755990, Control_c, 0, 64, 62
1, 756004, Control_c, 0, 64, 0
1, 756097, Note_on_c, 0, 69, 74
1, 756168, Control_c, 0, 64, 44
1, 756183, Control_c, 0, 64, 70
1, 756197, Control_c, 0, 64, 78
1, 756212, Control_c, 0, 64, 86
1, 756227, Control_c, 0, 64, 89
1, 756241, Note_on_c, 0, 66, 72
1, 756242, Control_c, 0, 64, 97
1, 756257, Control_c, 0, 64, 110
1, 756266, Note_off_c, 0, 73, 61
1, 756273, Control_c, 0, 64, 127
1, 756374, Note_on_c, 0, 78, 92
1, 756380, Note_off_c, 0, 69, 62
1, 756382, Note_on_c, 0, 62, 77
1, 756389, Note_off_c, 0, 66, 65
1, 756412, Note_off_c, 0, 81, 59
1, 756415, Note_off_c, 0, 62, 63
1, 756569, Control_c, 0, 64, 119
1, 756584, Control_c, 0, 64, 96
1, 756606, Control_c, 0, 64, 77
1, 756617, Note_on_c, 0, 74, 91
1, 756621, Control_c, 0, 64, 62
1, 756635, Control_c, 0, 64, 0
1, 756650, Note_on_c, 0, 58, 70
1, 756650, Control_c, 0, 67, 19
1, 756653, Note_off_c, 0, 78, 64
1, 756769, Control_c, 0, 67, 21
1, 756828, Control_c, 0, 64, 53
1, 756828, Control_c, 0, 67, 24
1, 756843, Control_c, 0, 64, 66
1, 756847, Note_off_c, 0, 58, 65
1, 756858, Control_c, 0, 64, 72
1, 756858, Control_c, 0, 67, 27
1, 756873, Control_c, 0, 64, 82
1, 756888, Control_c, 0, 64, 101
1, 756902, Control_c, 0, 64, 127
1, 756902, Control_c, 0, 67, 29
1, 756946, Control_c, 0, 67, 31
1, 757044, Note_on_c, 0, 69, 68
1, 757057, Note_on_c, 0, 62, 60
1, 757067, Note_on_c, 0, 34, 62
1, 757072, Note_on_c, 0, 46, 62
1, 757118, Note_off_c, 0, 46, 62
1, 757126, Note_off_c, 0, 34, 61
1, 757249, Note_off_c, 0, 62, 61
1, 757258, Note_on_c, 0, 73, 84
1, 757273, Note_on_c, 0, 49, 61
1, 757279, Note_off_c, 0, 74, 61
1, 757306, Note_off_c, 0, 69, 64
1, 757402, Note_off_c, 0, 73, 63
1, 757470, Note_on_c, 0, 81, 90
1, 757487, Note_on_c, 0, 52, 51
1, 757494, Note_off_c, 0, 49, 54
1, 757503, Control_c, 0, 67, 29
1, 757598, Note_off_c, 0, 52, 61
1, 757631, Note_on_c, 0, 76, 90
1, 757640, Note_on_c, 0, 57, 63
1, 757726, Note_off_c, 0, 81, 61
1, 757789, Note_on_c, 0, 73, 84
1, 757790, Note_on_c, 0, 61, 67
1, 757795, Note_off_c, 0, 57, 61
1, 757853, Note_off_c, 0, 76, 55
1, 757946, Note_on_c, 0, 69, 79
1, 757957, Note_on_c, 0, 64, 76
1, 757963, Control_c, 0, 64, 116
1, 757972, Note_off_c, 0, 73, 60
1, 757978, Control_c, 0, 64, 112
1, 757992, Control_c, 0, 64, 107
1, 757996, Note_off_c, 0, 61, 52
1, 757998, Note_off_c, 0, 69, 63
1, 758007, Control_c, 0, 64, 104
1, 758022, Control_c, 0, 64, 102
1, 758022, Control_c, 0, 67, 31
1, 758037, Control_c, 0, 64, 100
1, 758052, Control_c, 0, 64, 97
1, 758066, Control_c, 0, 64, 95
1, 758081, Control_c, 0, 64, 93
1, 758081, Control_c, 0, 67, 32
1, 758104, Control_c, 0, 64, 91
1, 758119, Control_c, 0, 64, 88
1, 758134, Control_c, 0, 64, 86
1, 758134, Control_c, 0, 67, 32
1, 758144, Note_on_c, 0, 69, 74
1, 758148, Control_c, 0, 64, 83
1, 758148, Control_c, 0, 67, 33
1, 758163, Control_c, 0, 64, 79
1, 758178, Control_c, 0, 64, 75
1, 758178, Control_c, 0, 67, 34
1, 758192, Control_c, 0, 64, 70
1, 758192, Control_c, 0, 67, 35
1, 758195, Note_off_c, 0, 64, 54
1, 758207, Control_c, 0, 64, 64
1, 758207, Control_c, 0, 67, 37
1, 758222, Control_c, 0, 64, 57
1, 758222, Control_c, 0, 67, 37
1, 758237, Control_c, 0, 64, 47
1, 758237, Control_c, 0, 67, 38
1, 758252, Control_c, 0, 64, 31
1, 758266, Control_c, 0, 64, 0
1, 758266, Control_c, 0, 67, 38
1, 758281, Control_c, 0, 67, 40
1, 758296, Control_c, 0, 67, 43
1, 758310, Note_on_c, 0, 64, 75
1, 758311, Control_c, 0, 67, 47
1, 758326, Control_c, 0, 67, 51
1, 758341, Control_c, 0, 67, 53
1, 758355, Control_c, 0, 67, 56
1, 758366, Note_off_c, 0, 69, 47
1, 758370, Control_c, 0, 67, 58
1, 758385, Control_c, 0, 67, 60
1, 758400, Control_c, 0, 67, 63
1, 758415, Control_c, 0, 67, 64
1, 758430, Control_c, 0, 67, 65
1, 758445, Control_c, 0, 67, 66
1, 758472, Note_on_c, 0, 61, 70
1, 758474, Control_c, 0, 64, 42
1, 758486, Note_off_c, 0, 64, 59
1, 758489, Control_c, 0, 64, 54
1, 758504, Control_c, 0, 64, 60
1, 758518, Control_c, 0, 64, 62
1, 758533, Control_c, 0, 64, 63
1, 758548, Control_c, 0, 64, 64
1, 758563, Control_c, 0, 64, 65
1, 758578, Control_c, 0, 64, 65
1, 758592, Control_c, 0, 64, 67
1, 758607, Control_c, 0, 64, 68
1, 758612, Note_off_c, 0, 61, 58
1, 758622, Control_c, 0, 64, 68
1, 758629, Note_on_c, 0, 57, 63
1, 758637, Control_c, 0, 64, 69
1, 758652, Control_c, 0, 64, 69
1, 758668, Control_c, 0, 64, 70
1, 758682, Control_c, 0, 64, 70
1, 758704, Note_off_c, 0, 57, 62
1, 758712, Control_c, 0, 64, 71
1, 758727, Control_c, 0, 67, 65
1, 758741, Control_c, 0, 67, 65
1, 758801, Control_c, 0, 64, 70
1, 758824, Note_on_c, 0, 64, 70
1, 758830, Control_c, 0, 64, 70
1, 758853, Control_c, 0, 64, 69
1, 758856, Note_on_c, 0, 61, 49
1, 758864, Note_on_c, 0, 57, 50
1, 758868, Control_c, 0, 64, 69
1, 758883, Control_c, 0, 64, 68
1, 758897, Control_c, 0, 64, 66
1, 758912, Control_c, 0, 64, 66
1, 758927, Control_c, 0, 64, 66
1, 758941, Control_c, 0, 64, 67
1, 758956, Control_c, 0, 64, 68
1, 758971, Control_c, 0, 64, 68
1, 758981, Note_off_c, 0, 57, 61
1, 758986, Control_c, 0, 64, 69
1, 759045, Control_c, 0, 64, 68
1, 759060, Control_c, 0, 64, 67
1, 759075, Control_c, 0, 64, 65
1, 759089, Control_c, 0, 64, 60
1, 759104, Control_c, 0, 64, 53
1, 759119, Control_c, 0, 64, 40
1, 759134, Control_c, 0, 64, 0
1, 759148, Control_c, 0, 67, 64
1, 759158, Note_on_c, 0, 36, 60
1, 759163, Control_c, 0, 67, 64
1, 759164, Note_on_c, 0, 59, 39
1, 759170, Note_on_c, 0, 55, 46
1, 759176, Note_off_c, 0, 61, 49
1, 759238, Control_c, 0, 64, 36
1, 759253, Control_c, 0, 64, 53
1, 759253, Control_c, 0, 67, 63
1, 759253, Note_off_c, 0, 59, 63
1, 759268, Control_c, 0, 64, 63
1, 759283, Control_c, 0, 64, 67
1, 759283, Control_c, 0, 67, 63
1, 759297, Control_c, 0, 64, 70
1, 759312, Control_c, 0, 64, 71
1, 759327, Control_c, 0, 64, 72
1, 759330, Note_off_c, 0, 55, 62
1, 759341, Control_c, 0, 64, 73
1, 759356, Control_c, 0, 64, 74
1, 759371, Control_c, 0, 67, 63
1, 759386, Control_c, 0, 64, 74
1, 759401, Control_c, 0, 67, 64
1, 759461, Control_c, 0, 64, 74
1, 759476, Control_c, 0, 64, 73
1, 759491, Control_c, 0, 64, 71
1, 759506, Control_c, 0, 64, 67
1, 759509, Note_on_c, 0, 65, 67
1, 759520, Control_c, 0, 64, 62
1, 759530, Note_on_c, 0, 57, 49
1, 759532, Note_on_c, 0, 38, 50
1, 759535, Control_c, 0, 64, 52
1, 759537, Note_on_c, 0, 53, 44
1, 759540, Note_off_c, 0, 64, 62
1, 759543, Note_off_c, 0, 36, 41
1, 759550, Control_c, 0, 64, 35
1, 759564, Control_c, 0, 64, 0
1, 759646, Control_c, 0, 64, 49
1, 759661, Control_c, 0, 64, 60
1, 759676, Control_c, 0, 64, 65
1, 759690, Control_c, 0, 64, 67
1, 759705, Control_c, 0, 64, 67
1, 759750, Control_c, 0, 64, 67
1, 759764, Control_c, 0, 64, 66
1, 759779, Control_c, 0, 64, 63
1, 759794, Control_c, 0, 64, 58
1, 759809, Control_c, 0, 64, 49
1, 759824, Control_c, 0, 64, 32
1, 759838, Control_c, 0, 64, 0
1, 759861, Note_off_c, 0, 38, 59
1, 759876, Note_on_c, 0, 40, 50
1, 759957, Control_c, 0, 64, 40
1, 759971, Control_c, 0, 64, 57
1, 759986, Control_c, 0, 64, 64
1, 760001, Control_c, 0, 64, 68
1, 760016, Control_c, 0, 64, 72
1, 760031, Control_c, 0, 64, 77
1, 760045, Note_off_c, 0, 65, 36
1, 760046, Control_c, 0, 64, 81
1, 760061, Note_off_c, 0, 40, 60
1, 760061, Control_c, 0, 64, 85
1, 760075, Control_c, 0, 64, 87
1, 760090, Control_c, 0, 64, 89
1, 760090, Control_c, 0, 67, 64
1, 760105, Control_c, 0, 64, 89
1, 760105, Control_c, 0, 67, 65
1, 760120, Control_c, 0, 67, 65
1, 760135, Control_c, 0, 64, 90
1, 760135, Control_c, 0, 67, 66
1, 760150, Control_c, 0, 67, 67
1, 760164, Control_c, 0, 67, 67
1, 760179, Control_c, 0, 67, 68
1, 760194, Control_c, 0, 64, 89
1, 760209, Control_c, 0, 64, 88
1, 760209, Control_c, 0, 67, 68
1, 760224, Control_c, 0, 64, 87
1, 760238, Control_c, 0, 64, 85
1, 760238, Control_c, 0, 67, 69
1, 760253, Control_c, 0, 64, 82
1, 760253, Control_c, 0, 67, 70
1, 760264, Note_on_c, 0, 41, 51
1, 760269, Control_c, 0, 64, 79
1, 760269, Control_c, 0, 67, 74
1, 760284, Control_c, 0, 64, 75
1, 760284, Control_c, 0, 67, 79
1, 760299, Control_c, 0, 64, 71
1, 760299, Control_c, 0, 67, 82
1, 760313, Control_c, 0, 64, 67
1, 760313, Control_c, 0, 67, 87
1, 760328, Control_c, 0, 64, 62
1, 760328, Control_c, 0, 67, 91
1, 760350, Control_c, 0, 64, 54
1, 760350, Control_c, 0, 67, 95
1, 760365, Control_c, 0, 64, 43
1, 760365, Control_c, 0, 67, 99
1, 760380, Control_c, 0, 64, 0
1, 760380, Control_c, 0, 67, 103
1, 760394, Control_c, 0, 67, 106
1, 760409, Control_c, 0, 67, 109
1, 760424, Control_c, 0, 67, 111
1, 760439, Control_c, 0, 67, 113
1, 760454, Control_c, 0, 67, 115
1, 760466, Note_off_c, 0, 53, 46
1, 760484, Control_c, 0, 67, 117
1, 760511, Note_on_c, 0, 59, 42
1, 760514, Note_on_c, 0, 55, 37
1, 760546, Note_off_c, 0, 57, 46
1, 760573, Control_c, 0, 64, 35
1, 760587, Control_c, 0, 64, 44
1, 760602, Control_c, 0, 64, 49
1, 760617, Control_c, 0, 64, 54
1, 760617, Control_c, 0, 67, 119
1, 760632, Control_c, 0, 64, 58
1, 760639, Note_off_c, 0, 55, 52
1, 760647, Control_c, 0, 64, 61
1, 760661, Note_off_c, 0, 59, 63
1, 760661, Control_c, 0, 64, 63
1, 760676, Control_c, 0, 64, 64
1, 760687, Note_on_c, 0, 60, 51
1, 760691, Control_c, 0, 64, 65
1, 760691, Control_c, 0, 67, 124
1, 760698, Note_on_c, 0, 57, 38
1, 760706, Control_c, 0, 64, 65
1, 760706, Control_c, 0, 67, 127
1, 760720, Control_c, 0, 64, 66
1, 760735, Control_c, 0, 64, 67
1, 760797, Note_off_c, 0, 60, 65
1, 760840, Note_off_c, 0, 57, 57
1, 760842, Note_on_c, 0, 62, 59
1, 760860, Note_on_c, 0, 50, 37
1, 760865, Note_on_c, 0, 59, 41
1, 760954, Note_off_c, 0, 41, 35
1, 760957, Note_off_c, 0, 59, 53
1, 760973, Control_c, 0, 64, 67
1, 760987, Control_c, 0, 64, 68
1, 761002, Control_c, 0, 64, 69
1, 761003, Note_off_c, 0, 62, 63
1, 761017, Control_c, 0, 64, 70
1, 761019, Note_on_c, 0, 64, 53
1, 761026, Note_on_c, 0, 45, 50
1, 761032, Control_c, 0, 64, 71
1, 761032, Note_on_c, 0, 60, 45
1, 761047, Control_c, 0, 64, 72
1, 761050, Note_off_c, 0, 50, 41
1, 761062, Control_c, 0, 64, 72
1, 761077, Control_c, 0, 64, 73
1, 761099, Control_c, 0, 64, 73
1, 761140, Note_off_c, 0, 64, 64
1, 761143, Control_c, 0, 64, 73
1, 761155, Note_off_c, 0, 45, 60
1, 761158, Control_c, 0, 64, 72
1, 761173, Control_c, 0, 64, 71
1, 761176, Note_on_c, 0, 65, 62
1, 761177, Note_off_c, 0, 60, 58
1, 761187, Note_on_c, 0, 53, 53
1, 761199, Note_on_c, 0, 62, 49
1, 761217, Control_c, 0, 64, 72
1, 761247, Control_c, 0, 64, 72
1, 761283, Note_off_c, 0, 62, 31
1, 761313, Note_off_c, 0, 53, 60
1, 761330, Note_off_c, 0, 65, 64
1, 761341, Note_on_c, 0, 67, 59
1, 761353, Note_on_c, 0, 48, 50
1, 761363, Note_on_c, 0, 64, 46
1, 761411, Control_c, 0, 64, 72
1, 761426, Control_c, 0, 64, 71
1, 761441, Control_c, 0, 64, 68
1, 761455, Control_c, 0, 64, 65
1, 761468, Note_off_c, 0, 67, 65
1, 761470, Control_c, 0, 64, 62
1, 761485, Control_c, 0, 64, 59
1, 761494, Note_off_c, 0, 64, 57
1, 761502, Note_on_c, 0, 69, 51
1, 761512, Note_on_c, 0, 57, 46
1, 761515, Control_c, 0, 64, 59
1, 761523, Note_on_c, 0, 65, 42
1, 761529, Control_c, 0, 64, 60
1, 761532, Note_off_c, 0, 48, 36
1, 761544, Control_c, 0, 64, 61
1, 761559, Control_c, 0, 64, 63
1, 761574, Control_c, 0, 64, 64
1, 761589, Control_c, 0, 64, 65
1, 761604, Control_c, 0, 64, 64
1, 761607, Note_off_c, 0, 65, 30
1, 761618, Control_c, 0, 64, 62
1, 761633, Control_c, 0, 64, 59
1, 761648, Control_c, 0, 64, 58
1, 761662, Note_off_c, 0, 57, 60
1, 761662, Note_off_c, 0, 69, 63
1, 761662, Control_c, 0, 64, 58
1, 761675, Note_on_c, 0, 71, 55
1, 761677, Control_c, 0, 64, 60
1, 761688, Note_on_c, 0, 52, 38
1, 761692, Control_c, 0, 64, 62
1, 761695, Note_on_c, 0, 67, 44
1, 761707, Control_c, 0, 64, 63
1, 761722, Control_c, 0, 64, 65
1, 761736, Control_c, 0, 64, 66
1, 761751, Control_c, 0, 64, 67
1, 761766, Control_c, 0, 64, 68
1, 761781, Control_c, 0, 64, 69
1, 761796, Control_c, 0, 64, 69
1, 761797, Note_off_c, 0, 71, 65
1, 761810, Control_c, 0, 64, 70
1, 761825, Control_c, 0, 64, 71
1, 761827, Note_off_c, 0, 52, 53
1, 761843, Note_off_c, 0, 67, 53
1, 761846, Note_on_c, 0, 72, 57
1, 761848, Control_c, 0, 64, 72
1, 761864, Control_c, 0, 64, 73
1, 761867, Note_on_c, 0, 60, 36
1, 761876, Note_on_c, 0, 69, 38
1, 761879, Control_c, 0, 64, 74
1, 761893, Control_c, 0, 64, 75
1, 761908, Control_c, 0, 64, 76
1, 761935, Note_off_c, 0, 69, 37
1, 761995, Note_off_c, 0, 72, 62
1, 761997, Control_c, 0, 64, 75
1, 762012, Control_c, 0, 64, 74
1, 762016, Note_off_c, 0, 60, 53
1, 762017, Note_on_c, 0, 74, 58
1, 762027, Control_c, 0, 64, 73
1, 762040, Note_on_c, 0, 55, 45
1, 762041, Control_c, 0, 64, 71
1, 762042, Note_on_c, 0, 71, 42
1, 762056, Control_c, 0, 64, 71
1, 762071, Control_c, 0, 64, 70
1, 762115, Control_c, 0, 64, 71
1, 762145, Control_c, 0, 64, 71
1, 762149, Note_off_c, 0, 74, 65
1, 762190, Note_off_c, 0, 71, 37
1, 762196, Note_on_c, 0, 76, 75
1, 762229, Note_on_c, 0, 64, 39
1, 762267, Note_off_c, 0, 55, 38
1, 762270, Poly_aftertouch_c, 0, 72, 127
1, 762367, Control_c, 0, 64, 71
1, 762382, Control_c, 0, 64, 70
1, 762397, Control_c, 0, 64, 70
1, 762401, Note_off_c, 0, 64, 55
1, 762409, Note_on_c, 0, 57, 45
1, 762412, Control_c, 0, 64, 69
1, 762427, Control_c, 0, 64, 68
1, 762441, Control_c, 0, 64, 66
1, 762456, Control_c, 0, 64, 64
1, 762471, Control_c, 0, 64, 60
1, 762485, Control_c, 0, 64, 51
1, 762500, Control_c, 0, 64, 38
1, 762515, Control_c, 0, 64, 0
1, 762574, Note_on_c, 0, 60, 44
1, 762627, Control_c, 0, 64, 36
1, 762641, Control_c, 0, 64, 43
1, 762656, Control_c, 0, 64, 50
1, 762672, Control_c, 0, 64, 55
1, 762687, Control_c, 0, 64, 59
1, 762702, Control_c, 0, 64, 61
1, 762716, Control_c, 0, 64, 63
1, 762726, Note_off_c, 0, 60, 59
1, 762731, Control_c, 0, 64, 64
1, 762741, Note_on_c, 0, 62, 44
1, 762746, Control_c, 0, 64, 66
1, 762761, Control_c, 0, 64, 68
1, 762776, Control_c, 0, 64, 70
1, 762790, Control_c, 0, 64, 72
1, 762805, Control_c, 0, 64, 74
1, 762820, Control_c, 0, 64, 76
1, 762835, Control_c, 0, 64, 78
1, 762850, Control_c, 0, 64, 79
1, 762863, Note_off_c, 0, 57, 36
1, 762864, Control_c, 0, 64, 80
1, 762879, Control_c, 0, 64, 81
1, 762887, Note_off_c, 0, 62, 60
1, 762913, Note_on_c, 0, 64, 42
1, 763056, Control_c, 0, 64, 80
1, 763086, Control_c, 0, 64, 80
1, 763101, Control_c, 0, 64, 79
1, 763116, Control_c, 0, 64, 79
1, 763131, Control_c, 0, 64, 78
1, 763140, Note_on_c, 0, 77, 52
1, 763146, Control_c, 0, 64, 78
1, 763159, Note_on_c, 0, 65, 42
1, 763161, Control_c, 0, 64, 77
1, 763165, Note_off_c, 0, 64, 36
1, 763176, Control_c, 0, 64, 76
1, 763190, Control_c, 0, 64, 75
1, 763205, Control_c, 0, 64, 73
1, 763220, Control_c, 0, 64, 72
1, 763234, Control_c, 0, 64, 70
1, 763249, Control_c, 0, 64, 68
1, 763264, Control_c, 0, 64, 66
1, 763279, Control_c, 0, 64, 64
1, 763294, Control_c, 0, 64, 61
1, 763308, Control_c, 0, 64, 58
1, 763323, Control_c, 0, 64, 53
1, 763345, Control_c, 0, 64, 45
1, 763360, Control_c, 0, 64, 0
1, 763495, Control_c, 0, 64, 40
1, 763509, Control_c, 0, 64, 49
1, 763524, Control_c, 0, 64, 56
1, 763539, Control_c, 0, 64, 59
1, 763553, Control_c, 0, 64, 61
1, 763568, Control_c, 0, 64, 63
1, 763583, Control_c, 0, 64, 64
1, 763583, Control_c, 0, 67, 125
1, 763598, Control_c, 0, 64, 65
1, 763612, Control_c, 0, 64, 65
1, 763656, Control_c, 0, 64, 64
1, 763671, Control_c, 0, 64, 62
1, 763686, Control_c, 0, 64, 59
1, 763701, Control_c, 0, 64, 54
1, 763716, Control_c, 0, 64, 48
1, 763730, Control_c, 0, 64, 41
1, 763745, Control_c, 0, 64, 32
1, 763760, Control_c, 0, 64, 0
1, 763856, Note_on_c, 0, 79, 49
1, 763875, Note_on_c, 0, 67, 35
1, 763894, Control_c, 0, 64, 32
1, 763908, Note_off_c, 0, 77, 59
1, 763909, Control_c, 0, 64, 44
1, 763924, Control_c, 0, 64, 53
1, 763938, Control_c, 0, 64, 58
1, 763953, Control_c, 0, 64, 60
1, 763968, Control_c, 0, 64, 62
1, 763983, Control_c, 0, 64, 62
1, 764012, Control_c, 0, 64, 62
1, 764027, Control_c, 0, 64, 59
1, 764042, Control_c, 0, 64, 54
1, 764056, Control_c, 0, 64, 46
1, 764071, Control_c, 0, 64, 37
1, 764094, Control_c, 0, 64, 0
1, 764138, Control_c, 0, 64, 33
1, 764153, Control_c, 0, 64, 42
1, 764168, Control_c, 0, 64, 52
1, 764183, Control_c, 0, 64, 57
1, 764198, Control_c, 0, 64, 60
1, 764201, Note_off_c, 0, 76, 47
1, 764212, Control_c, 0, 64, 62
1, 764227, Control_c, 0, 64, 64
1, 764232, Note_on_c, 0, 80, 53
1, 764232, Note_off_c, 0, 67, 38
1, 764242, Control_c, 0, 64, 66
1, 764243, Note_off_c, 0, 79, 48
1, 764258, Control_c, 0, 64, 68
1, 764260, Note_on_c, 0, 68, 20
1, 764273, Control_c, 0, 64, 71
1, 764284, Poly_aftertouch_c, 0, 72, 0
1, 764287, Control_c, 0, 64, 73
1, 764290, Note_off_c, 0, 80, 62
1, 764302, Control_c, 0, 64, 76
1, 764317, Control_c, 0, 64, 79
1, 764332, Control_c, 0, 64, 82
1, 764332, Note_off_c, 0, 65, 42
1, 764347, Control_c, 0, 64, 85
1, 764361, Control_c, 0, 64, 87
1, 764376, Control_c, 0, 64, 89
1, 764376, Control_c, 0, 67, 123
1, 764391, Control_c, 0, 64, 90
1, 764406, Control_c, 0, 64, 91
1, 764421, Control_c, 0, 64, 91
1, 764436, Note_off_c, 0, 68, 40
1, 764509, Control_c, 0, 64, 91
1, 764524, Control_c, 0, 64, 90
1, 764539, Control_c, 0, 64, 88
1, 764553, Control_c, 0, 64, 86
1, 764568, Control_c, 0, 64, 84
1, 764583, Control_c, 0, 64, 81
1, 764583, Control_c, 0, 67, 125
1, 764598, Control_c, 0, 64, 77
1, 764613, Control_c, 0, 64, 73
1, 764627, Control_c, 0, 64, 67
1, 764642, Control_c, 0, 64, 61
1, 764657, Control_c, 0, 64, 54
1, 764672, Control_c, 0, 64, 37
1, 764687, Control_c, 0, 64, 0
1, 764701, Note_on_c, 0, 81, 80
1, 764722, Note_on_c, 0, 78, 49
1, 764749, Note_on_c, 0, 64, 25
1, 764749, Note_on_c, 0, 69, 31
1, 764750, Note_on_c, 0, 66, 33
1, 764778, Note_on_c, 0, 76, 21
1, 764782, Note_off_c, 0, 78, 0
1, 764782, Note_on_c, 0, 78, 21
1, 764863, Note_off_c, 0, 69, 47
1, 764872, Control_c, 0, 64, 51
1, 764887, Control_c, 0, 64, 62
1, 764902, Control_c, 0, 64, 66
1, 764905, Note_off_c, 0, 66, 48
1, 764916, Control_c, 0, 64, 72
1, 764917, Note_off_c, 0, 64, 54
1, 764931, Control_c, 0, 64, 79
1, 764946, Control_c, 0, 64, 89
1, 764961, Control_c, 0, 64, 100
1, 764976, Control_c, 0, 64, 116
1, 764991, Control_c, 0, 64, 127
1, 765001, Note_off_c, 0, 81, 45
1, 765005, Control_c, 0, 67, 127
1, 765043, Note_off_c, 0, 78, 38
1, 765117, Note_off_c, 0, 76, 43
1, 765126, Note_on_c, 0, 69, 39
1, 765158, Note_off_c, 0, 69, 60
1, 765497, Note_on_c, 0, 66, 39
1, 765503, Note_on_c, 0, 62, 50
1, 765504, Note_on_c, 0, 45, 40
1, 765505, Note_on_c, 0, 69, 36
1, 765508, Note_on_c, 0, 38, 43
1, 765557, Note_off_c, 0, 38, 57
1, 765558, Note_off_c, 0, 66, 54
1, 765566, Note_off_c, 0, 45, 62
1, 765571, Note_off_c, 0, 69, 41
1, 765675, Note_off_c, 0, 62, 33
1, 765862, Note_on_c, 0, 57, 52
1, 765892, Note_off_c, 0, 57, 64
1, 766208, Note_on_c, 0, 83, 64
1, 766228, Control_c, 0, 64, 107
1, 766243, Control_c, 0, 64, 93
1, 766245, Note_on_c, 0, 77, 32
1, 766249, Note_on_c, 0, 73, 37
1, 766255, Note_on_c, 0, 65, 34
1, 766257, Note_on_c, 0, 61, 22
1, 766258, Control_c, 0, 64, 81
1, 766273, Control_c, 0, 64, 76
1, 766288, Control_c, 0, 64, 75
1, 766339, Control_c, 0, 64, 74
1, 766354, Control_c, 0, 64, 73
1, 766369, Control_c, 0, 64, 72
1, 766398, Note_on_c, 0, 81, 71
1, 766399, Control_c, 0, 64, 73
1, 766401, Note_on_c, 0, 66, 42
1, 766401, Note_off_c, 0, 65, 40
1, 766404, Note_off_c, 0, 83, 57
1, 766410, Note_off_c, 0, 77, 20
1, 766428, Control_c, 0, 64, 72
1, 766443, Control_c, 0, 64, 72
1, 766444, Note_off_c, 0, 73, 44
1, 766458, Control_c, 0, 64, 71
1, 766487, Control_c, 0, 64, 70
1, 766502, Control_c, 0, 64, 67
1, 766517, Control_c, 0, 64, 63
1, 766517, Control_c, 0, 67, 125
1, 766527, Note_off_c, 0, 66, 45
1, 766532, Control_c, 0, 64, 62
1, 766541, Note_on_c, 0, 80, 80
1, 766547, Note_off_c, 0, 81, 62
1, 766547, Control_c, 0, 64, 65
1, 766562, Control_c, 0, 64, 68
1, 766571, Note_on_c, 0, 67, 50
1, 766577, Control_c, 0, 64, 71
1, 766577, Control_c, 0, 67, 123
1, 766592, Control_c, 0, 64, 72
1, 766607, Control_c, 0, 64, 73
1, 766616, Note_off_c, 0, 67, 60
1, 766622, Control_c, 0, 64, 73
1, 766636, Control_c, 0, 64, 74
1, 766667, Control_c, 0, 64, 73
1, 766680, Note_off_c, 0, 61, 51
1, 766681, Control_c, 0, 64, 71
1, 766694, Note_on_c, 0, 81, 81
1, 766696, Control_c, 0, 64, 70
1, 766697, Note_on_c, 0, 68, 52
1, 766711, Control_c, 0, 64, 69
1, 766719, Note_off_c, 0, 80, 58
1, 766726, Control_c, 0, 64, 68
1, 766741, Control_c, 0, 64, 66
1, 766741, Control_c, 0, 67, 125
1, 766756, Control_c, 0, 64, 64
1, 766771, Control_c, 0, 64, 62
1, 766785, Control_c, 0, 64, 60
1, 766800, Control_c, 0, 64, 59
1, 766815, Control_c, 0, 64, 58
1, 766827, Note_off_c, 0, 68, 45
1, 766830, Control_c, 0, 64, 56
1, 766845, Control_c, 0, 64, 53
1, 766860, Control_c, 0, 64, 47
1, 766874, Control_c, 0, 64, 38
1, 766889, Control_c, 0, 64, 0
1, 766889, Control_c, 0, 67, 127
1, 766899, Note_off_c, 0, 81, 62
1, 766909, Note_on_c, 0, 86, 76
1, 766940, Note_on_c, 0, 78, 46
1, 766949, Note_on_c, 0, 74, 39
1, 766953, Note_on_c, 0, 69, 31
1, 766955, Note_on_c, 0, 62, 35
1, 767119, Control_c, 0, 64, 38
1, 767134, Control_c, 0, 64, 49
1, 767148, Control_c, 0, 64, 60
1, 767163, Control_c, 0, 64, 66
1, 767178, Control_c, 0, 64, 69
1, 767193, Control_c, 0, 64, 70
1, 767197, Note_off_c, 0, 86, 56
1, 767207, Control_c, 0, 64, 71
1, 767222, Control_c, 0, 64, 73
1, 767237, Control_c, 0, 64, 76
1, 767252, Control_c, 0, 64, 79
1, 767267, Control_c, 0, 64, 83
1, 767281, Control_c, 0, 64, 85
1, 767296, Control_c, 0, 64, 87
1, 767307, Note_on_c, 0, 57, 39
1, 767311, Control_c, 0, 64, 90
1, 767314, Note_off_c, 0, 69, 39
1, 767326, Control_c, 0, 64, 93
1, 767341, Note_off_c, 0, 57, 58
1, 767341, Control_c, 0, 64, 96
1, 767341, Control_c, 0, 67, 125
1, 767342, Note_off_c, 0, 62, 35
1, 767355, Control_c, 0, 64, 99
1, 767370, Control_c, 0, 64, 101
1, 767385, Control_c, 0, 64, 103
1, 767400, Control_c, 0, 64, 106
1, 767414, Control_c, 0, 64, 108
1, 767429, Control_c, 0, 64, 110
1, 767444, Control_c, 0, 64, 113
1, 767447, Note_on_c, 0, 81, 67
1, 767460, Control_c, 0, 64, 119
1, 767475, Control_c, 0, 64, 127
1, 767487, Note_off_c, 0, 74, 37
1, 767489, Note_off_c, 0, 78, 60
1, 767508, Note_off_c, 0, 81, 61
1, 767610, Note_on_c, 0, 81, 62
1, 767622, Note_on_c, 0, 78, 56
1, 767627, Note_on_c, 0, 74, 47
1, 767640, Note_on_c, 0, 45, 48
1, 767640, Note_on_c, 0, 57, 43
1, 767646, Note_off_c, 0, 81, 64
1, 767655, Note_off_c, 0, 78, 64
1, 767662, Note_off_c, 0, 74, 57
1, 767702, Note_off_c, 0, 57, 55
1, 767816, Control_c, 0, 67, 127
1, 767942, Control_c, 0, 64, 119
1, 767957, Control_c, 0, 64, 116
1, 767972, Note_on_c, 0, 69, 53
1, 767985, Note_on_c, 0, 38, 47
1, 767986, Control_c, 0, 64, 113
1, 767987, Note_off_c, 0, 45, 15
1, 767990, Note_on_c, 0, 66, 47
1, 768007, Note_on_c, 0, 62, 33
1, 768016, Control_c, 0, 64, 111
1, 768025, Note_off_c, 0, 38, 60
1, 768045, Control_c, 0, 64, 109
1, 768073, Note_off_c, 0, 62, 60
1, 768075, Control_c, 0, 64, 107
1, 768078, Note_off_c, 0, 66, 55
1, 768104, Control_c, 0, 64, 105
1, 768148, Control_c, 0, 64, 102
1, 768178, Control_c, 0, 64, 99
1, 768193, Control_c, 0, 64, 96
1, 768208, Control_c, 0, 64, 93
1, 768222, Control_c, 0, 64, 90
1, 768237, Control_c, 0, 64, 87
1, 768253, Control_c, 0, 64, 84
1, 768268, Control_c, 0, 64, 79
1, 768283, Control_c, 0, 64, 74
1, 768298, Control_c, 0, 64, 67
1, 768300, Note_on_c, 0, 67, 49
1, 768306, Note_on_c, 0, 57, 63
1, 768313, Control_c, 0, 64, 58
1, 768315, Note_on_c, 0, 61, 42
1, 768321, Note_on_c, 0, 64, 30
1, 768327, Control_c, 0, 64, 44
1, 768335, Note_off_c, 0, 69, 39
1, 768342, Control_c, 0, 64, 0
1, 768431, Control_c, 0, 64, 39
1, 768446, Control_c, 0, 64, 53
1, 768447, Note_off_c, 0, 64, 41
1, 768461, Control_c, 0, 64, 57
1, 768471, Note_off_c, 0, 61, 35
1, 768486, Note_off_c, 0, 67, 54
1, 768491, Control_c, 0, 64, 56
1, 768505, Control_c, 0, 64, 55
1, 768520, Control_c, 0, 64, 54
1, 768535, Control_c, 0, 64, 53
1, 768550, Control_c, 0, 64, 50
1, 768565, Control_c, 0, 64, 46
1, 768586, Control_c, 0, 64, 40
1, 768601, Control_c, 0, 64, 30
1, 768616, Control_c, 0, 64, 0
1, 768646, Note_on_c, 0, 66, 52
1, 768648, Note_on_c, 0, 59, 65
1, 768663, Note_on_c, 0, 62, 38
1, 768743, Note_off_c, 0, 57, 54
1, 768765, Control_c, 0, 64, 31
1, 768766, Note_off_c, 0, 62, 62
1, 768779, Control_c, 0, 64, 48
1, 768794, Control_c, 0, 64, 55
1, 768809, Control_c, 0, 64, 58
1, 768824, Control_c, 0, 64, 60
1, 768853, Control_c, 0, 64, 58
1, 768868, Control_c, 0, 64, 56
1, 768883, Control_c, 0, 64, 55
1, 768898, Control_c, 0, 64, 53
1, 768913, Control_c, 0, 64, 51
1, 768927, Control_c, 0, 64, 46
1, 768942, Control_c, 0, 64, 39
1, 768957, Control_c, 0, 64, 0
1, 769001, Note_on_c, 0, 60, 63
1, 769005, Note_off_c, 0, 66, 42
1, 769008, Note_on_c, 0, 64, 43
1, 769015, Note_on_c, 0, 61, 42
1, 769057, Note_off_c, 0, 59, 63
1, 769283, Control_c, 0, 64, 52
1, 769298, Control_c, 0, 64, 62
1, 769313, Control_c, 0, 64, 65
1, 769336, Control_c, 0, 64, 69
1, 769350, Control_c, 0, 64, 74
1, 769360, Note_on_c, 0, 52, 54
1, 769365, Control_c, 0, 64, 80
1, 769380, Control_c, 0, 64, 85
1, 769395, Control_c, 0, 64, 89
1, 769408, Note_off_c, 0, 60, 53
1, 769409, Control_c, 0, 64, 91
1, 769424, Note_off_c, 0, 61, 34
1, 769424, Control_c, 0, 64, 92
1, 769426, Note_off_c, 0, 64, 37
1, 769439, Control_c, 0, 64, 93
1, 769441, Note_off_c, 0, 52, 58
1, 769454, Control_c, 0, 64, 93
1, 769469, Control_c, 0, 64, 94
1, 769505, Note_on_c, 0, 64, 49
1, 769519, Note_on_c, 0, 61, 54
1, 769581, Note_off_c, 0, 64, 57
1, 769589, Note_off_c, 0, 61, 51
1, 769602, Control_c, 0, 64, 92
1, 769617, Control_c, 0, 64, 86
1, 769632, Control_c, 0, 64, 78
1, 769647, Control_c, 0, 64, 70
1, 769662, Control_c, 0, 64, 65
1, 769668, Note_on_c, 0, 61, 29
1, 769671, Note_on_c, 0, 64, 43
1, 769691, Control_c, 0, 64, 67
1, 769706, Control_c, 0, 64, 70
1, 769708, Note_on_c, 0, 45, 39
1, 769720, Control_c, 0, 64, 74
1, 769727, Note_off_c, 0, 64, 62
1, 769735, Control_c, 0, 64, 76
1, 769750, Control_c, 0, 64, 79
1, 769765, Control_c, 0, 64, 81
1, 769767, Note_off_c, 0, 61, 61
1, 769780, Control_c, 0, 64, 82
1, 769794, Control_c, 0, 64, 83
1, 769809, Control_c, 0, 64, 83
1, 769855, Control_c, 0, 64, 84
1, 769914, Control_c, 0, 64, 83
1, 769929, Control_c, 0, 64, 82
1, 769944, Control_c, 0, 64, 78
1, 769955, Note_off_c, 0, 45, 34
1, 769959, Control_c, 0, 64, 71
1, 769973, Control_c, 0, 64, 66
1, 769988, Control_c, 0, 64, 65
1, 769988, Control_c, 0, 67, 125
1, 770003, Control_c, 0, 64, 66
1, 770011, Note_on_c, 0, 76, 75
1, 770017, Control_c, 0, 64, 67
1, 770021, Note_on_c, 0, 73, 55
1, 770032, Control_c, 0, 64, 70
1, 770036, Note_on_c, 0, 38, 44
1, 770043, Note_on_c, 0, 72, 32
1, 770047, Control_c, 0, 64, 73
1, 770047, Control_c, 0, 67, 123
1, 770062, Control_c, 0, 64, 76
1, 770076, Note_off_c, 0, 38, 61
1, 770085, Control_c, 0, 64, 78
1, 770085, Control_c, 0, 67, 121
1, 770090, Note_off_c, 0, 72, 48
1, 770097, Poly_aftertouch_c, 0, 67, 127
1, 770099, Control_c, 0, 64, 81
1, 770099, Control_c, 0, 67, 119
1, 770114, Control_c, 0, 64, 83
1, 770115, Note_off_c, 0, 73, 62
1, 770129, Control_c, 0, 64, 84
1, 770129, Control_c, 0, 67, 112
1, 770144, Control_c, 0, 64, 85
1, 770144, Control_c, 0, 67, 101
1, 770159, Control_c, 0, 64, 87
1, 770159, Control_c, 0, 67, 90
1, 770173, Control_c, 0, 64, 88
1, 770173, Control_c, 0, 67, 81
1, 770188, Control_c, 0, 64, 89
1, 770188, Control_c, 0, 67, 73
1, 770203, Control_c, 0, 64, 91
1, 770203, Control_c, 0, 67, 68
1, 770218, Control_c, 0, 64, 91
1, 770218, Control_c, 0, 67, 66
1, 770232, Control_c, 0, 64, 92
1, 770232, Control_c, 0, 67, 65
1, 770273, Note_off_c, 0, 76, 54
1, 770291, Poly_aftertouch_c, 0, 67, 0
1, 770321, Control_c, 0, 67, 66
1, 770336, Control_c, 0, 64, 90
1, 770348, Note_on_c, 0, 78, 66
1, 770351, Control_c, 0, 64, 84
1, 770360, Note_on_c, 0, 63, 69
1, 770366, Control_c, 0, 64, 74
1, 770370, Note_on_c, 0, 71, 55
1, 770380, Control_c, 0, 64, 65
1, 770395, Control_c, 0, 64, 53
1, 770410, Control_c, 0, 64, 43
1, 770425, Control_c, 0, 64, 44
1, 770440, Control_c, 0, 64, 52
1, 770447, Note_off_c, 0, 71, 63
1, 770455, Control_c, 0, 64, 61
1, 770470, Control_c, 0, 64, 66
1, 770485, Control_c, 0, 64, 70
1, 770499, Control_c, 0, 64, 74
1, 770504, Note_off_c, 0, 78, 60
1, 770514, Control_c, 0, 64, 75
1, 770573, Control_c, 0, 64, 74
1, 770588, Control_c, 0, 64, 73
1, 770603, Control_c, 0, 64, 70
1, 770617, Control_c, 0, 64, 66
1, 770632, Control_c, 0, 64, 62
1, 770648, Control_c, 0, 64, 57
1, 770663, Control_c, 0, 64, 49
1, 770678, Control_c, 0, 64, 34
1, 770688, Note_on_c, 0, 79, 67
1, 770691, Note_on_c, 0, 60, 70
1, 770693, Control_c, 0, 64, 0
1, 770697, Note_on_c, 0, 76, 57
1, 770705, Note_on_c, 0, 70, 57
1, 770713, Note_off_c, 0, 63, 62
1, 770769, Note_off_c, 0, 70, 60
1, 770771, Note_off_c, 0, 76, 62
1, 770781, Control_c, 0, 64, 50
1, 770796, Control_c, 0, 64, 63
1, 770819, Control_c, 0, 64, 69
1, 770822, Note_off_c, 0, 79, 64
1, 770834, Control_c, 0, 64, 71
1, 770848, Control_c, 0, 64, 72
1, 770848, Control_c, 0, 67, 65
1, 770893, Control_c, 0, 64, 72
1, 770908, Control_c, 0, 64, 70
1, 770922, Control_c, 0, 64, 67
1, 770937, Control_c, 0, 64, 64
1, 770952, Control_c, 0, 64, 59
1, 770967, Control_c, 0, 64, 54
1, 770981, Control_c, 0, 64, 48
1, 770996, Control_c, 0, 64, 38
1, 771011, Control_c, 0, 64, 0
1, 771042, Note_on_c, 0, 80, 77
1, 771047, Note_off_c, 0, 60, 65
1, 771058, Note_on_c, 0, 77, 53
1, 771065, Note_on_c, 0, 58, 54
1, 771066, Note_on_c, 0, 73, 50
1, 771085, Control_c, 0, 67, 66
1, 771218, Control_c, 0, 64, 45
1, 771227, Note_off_c, 0, 73, 63
1, 771227, Note_off_c, 0, 77, 62
1, 771233, Control_c, 0, 64, 61
1, 771248, Control_c, 0, 64, 66
1, 771263, Control_c, 0, 64, 71
1, 771269, Note_off_c, 0, 80, 65
1, 771278, Control_c, 0, 64, 77
1, 771293, Control_c, 0, 64, 82
1, 771307, Control_c, 0, 64, 86
1, 771322, Control_c, 0, 64, 89
1, 771337, Control_c, 0, 64, 90
1, 771337, Control_c, 0, 67, 65
1, 771366, Control_c, 0, 64, 87
1, 771366, Control_c, 0, 67, 65
1, 771381, Note_on_c, 0, 57, 58
1, 771381, Control_c, 0, 64, 75
1, 771396, Control_c, 0, 64, 60
1, 771411, Control_c, 0, 64, 0
1, 771442, Control_c, 0, 67, 64
1, 771453, Note_off_c, 0, 58, 35
1, 771471, Control_c, 0, 64, 31
1, 771486, Control_c, 0, 64, 54
1, 771501, Control_c, 0, 64, 66
1, 771501, Control_c, 0, 67, 64
1, 771516, Control_c, 0, 64, 74
1, 771516, Control_c, 0, 67, 63
1, 771518, Note_on_c, 0, 90, 85
1, 771525, Note_off_c, 0, 57, 64
1, 771528, Note_on_c, 0, 81, 59
1, 771531, Control_c, 0, 64, 84
1, 771531, Control_c, 0, 67, 63
1, 771534, Note_on_c, 0, 78, 59
1, 771545, Control_c, 0, 64, 93
1, 771560, Control_c, 0, 64, 103
1, 771582, Control_c, 0, 64, 127
1, 771589, Note_off_c, 0, 78, 57
1, 771597, Control_c, 0, 67, 63
1, 771599, Note_off_c, 0, 81, 59
1, 771612, Control_c, 0, 67, 64
1, 771617, Note_off_c, 0, 90, 62
1, 771626, Control_c, 0, 67, 65
1, 771641, Control_c, 0, 67, 66
1, 771656, Control_c, 0, 67, 67
1, 771671, Control_c, 0, 67, 68
1, 771686, Control_c, 0, 67, 68
1, 771701, Control_c, 0, 64, 95
1, 771701, Control_c, 0, 67, 69
1, 771716, Control_c, 0, 64, 71
1, 771728, Note_on_c, 0, 90, 81
1, 771731, Control_c, 0, 64, 50
1, 771733, Note_on_c, 0, 78, 80
1, 771745, Control_c, 0, 64, 0
1, 771749, Note_on_c, 0, 86, 55
1, 771753, Note_on_c, 0, 81, 70
1, 771790, Control_c, 0, 64, 54
1, 771805, Control_c, 0, 64, 69
1, 771810, Note_off_c, 0, 78, 65
1, 771820, Control_c, 0, 64, 80
1, 771835, Control_c, 0, 64, 97
1, 771850, Control_c, 0, 64, 121
1, 771865, Control_c, 0, 64, 127
1, 771865, Control_c, 0, 67, 68
1, 771879, Control_c, 0, 67, 67
1, 771894, Control_c, 0, 67, 66
1, 771923, Control_c, 0, 67, 65
1, 771983, Control_c, 0, 67, 65
1, 772025, Note_off_c, 0, 81, 57
1, 772097, Note_on_c, 0, 45, 55
1, 772102, Note_on_c, 0, 38, 54
1, 772129, Note_off_c, 0, 45, 64
1, 772136, Note_off_c, 0, 38, 63
1, 772137, Note_off_c, 0, 86, 62
1, 772205, Control_c, 0, 67, 65
1, 772220, Control_c, 0, 67, 66
1, 772235, Control_c, 0, 67, 67
1, 772250, Control_c, 0, 67, 68
1, 772265, Control_c, 0, 67, 69
1, 772280, Control_c, 0, 67, 69
1, 772294, Control_c, 0, 67, 70
1, 772309, Control_c, 0, 67, 71
1, 772332, Control_c, 0, 67, 71
1, 772361, Control_c, 0, 67, 72
1, 772376, Control_c, 0, 67, 72
1, 772391, Control_c, 0, 67, 73
1, 772436, Note_on_c, 0, 82, 73
1, 772458, Note_on_c, 0, 66, 60
1, 772473, Note_on_c, 0, 56, 50
1, 772485, Note_off_c, 0, 90, 43
1, 772488, Note_off_c, 0, 82, 62
1, 772741, Note_off_c, 0, 56, 37
1, 772746, Control_c, 0, 67, 72
1, 772780, Note_on_c, 0, 88, 77
1, 772794, Note_on_c, 0, 86, 68
1, 772801, Note_on_c, 0, 85, 66
1, 772804, Note_on_c, 0, 65, 55
1, 772821, Note_off_c, 0, 86, 49
1, 772822, Note_on_c, 0, 55, 40
1, 772834, Note_off_c, 0, 66, 40
1, 772849, Note_off_c, 0, 85, 58
1, 772872, Note_off_c, 0, 88, 65
1, 772983, Note_off_c, 0, 65, 38
1, 773115, Note_off_c, 0, 55, 36
1, 773161, Note_on_c, 0, 88, 90
1, 773169, Control_c, 0, 64, 117
1, 773175, Note_on_c, 0, 85, 72
1, 773184, Control_c, 0, 64, 98
1, 773185, Note_on_c, 0, 64, 54
1, 773197, Note_on_c, 0, 78, 57
1, 773199, Control_c, 0, 64, 83
1, 773214, Control_c, 0, 64, 69
1, 773218, Note_on_c, 0, 54, 28
1, 773229, Control_c, 0, 64, 59
1, 773239, Note_off_c, 0, 78, 0
1, 773239, Note_on_c, 0, 78, 34
1, 773243, Control_c, 0, 64, 52
1, 773258, Control_c, 0, 64, 56
1, 773273, Control_c, 0, 64, 60
1, 773288, Control_c, 0, 64, 64
1, 773303, Control_c, 0, 64, 66
1, 773317, Control_c, 0, 64, 70
1, 773332, Control_c, 0, 64, 74
1, 773347, Control_c, 0, 64, 80
1, 773362, Control_c, 0, 64, 83
1, 773368, Note_off_c, 0, 85, 63
1, 773376, Control_c, 0, 64, 84
1, 773391, Note_off_c, 0, 54, 41
1, 773421, Control_c, 0, 64, 85
1, 773434, Note_off_c, 0, 78, 51
1, 773436, Control_c, 0, 64, 86
1, 773449, Note_off_c, 0, 64, 51
1, 773451, Control_c, 0, 64, 88
1, 773466, Control_c, 0, 64, 91
1, 773481, Control_c, 0, 64, 92
1, 773495, Control_c, 0, 64, 93
1, 773500, Note_on_c, 0, 63, 46
1, 773510, Control_c, 0, 64, 93
1, 773525, Control_c, 0, 64, 94
1, 773537, Note_on_c, 0, 53, 15
1, 773540, Control_c, 0, 64, 96
1, 773582, Note_off_c, 0, 53, 52
1, 773589, Note_off_c, 0, 63, 60
1, 773614, Control_c, 0, 67, 73
1, 773648, Note_on_c, 0, 86, 82
1, 773658, Control_c, 0, 67, 73
1, 773673, Note_off_c, 0, 88, 64
1, 773686, Note_on_c, 0, 83, 49
1, 773687, Control_c, 0, 67, 74
1, 773717, Control_c, 0, 67, 74
1, 773718, Note_off_c, 0, 83, 48
1, 773732, Control_c, 0, 67, 75
1, 773747, Control_c, 0, 67, 75
1, 773761, Control_c, 0, 67, 76
1, 773765, Note_off_c, 0, 86, 61
1, 773776, Control_c, 0, 64, 95
1, 773791, Control_c, 0, 64, 89
1, 773806, Control_c, 0, 64, 78
1, 773829, Control_c, 0, 64, 66
1, 773836, Note_on_c, 0, 86, 80
1, 773844, Control_c, 0, 64, 58
1, 773847, Note_on_c, 0, 62, 47
1, 773859, Control_c, 0, 64, 60
1, 773864, Note_on_c, 0, 79, 59
1, 773865, Note_on_c, 0, 83, 38
1, 773870, Note_on_c, 0, 52, 27
1, 773874, Control_c, 0, 64, 64
1, 773889, Control_c, 0, 64, 69
1, 773889, Control_c, 0, 67, 77
1, 773904, Control_c, 0, 64, 76
1, 773905, Note_off_c, 0, 83, 48
1, 773911, Note_off_c, 0, 62, 61
1, 773913, Note_off_c, 0, 52, 49
1, 773918, Control_c, 0, 64, 82
1, 773918, Control_c, 0, 67, 78
1, 773925, Note_off_c, 0, 79, 57
1, 773928, Note_off_c, 0, 86, 63
1, 773933, Control_c, 0, 64, 88
1, 773933, Control_c, 0, 67, 79
1, 773948, Control_c, 0, 64, 95
1, 773948, Control_c, 0, 67, 80
1, 773963, Control_c, 0, 64, 100
1, 773963, Control_c, 0, 67, 81
1, 773978, Control_c, 0, 64, 104
1, 773978, Control_c, 0, 67, 88
1, 773992, Control_c, 0, 67, 97
1, 774007, Control_c, 0, 67, 107
1, 774022, Control_c, 0, 67, 115
1, 774037, Control_c, 0, 67, 121
1, 774052, Control_c, 0, 67, 126
1, 774081, Control_c, 0, 64, 102
1, 774096, Control_c, 0, 64, 98
1, 774111, Control_c, 0, 64, 93
1, 774125, Control_c, 0, 64, 87
1, 774140, Control_c, 0, 64, 79
1, 774155, Control_c, 0, 64, 72
1, 774170, Control_c, 0, 64, 65
1, 774185, Control_c, 0, 64, 58
1, 774199, Control_c, 0, 64, 49
1, 774214, Control_c, 0, 64, 35
1, 774217, Note_on_c, 0, 74, 53
1, 774229, Control_c, 0, 64, 0
1, 774235, Note_on_c, 0, 65, 52
1, 774241, Note_on_c, 0, 53, 34
1, 774244, Note_on_c, 0, 71, 48
1, 774250, Note_on_c, 0, 44, 39
1, 774282, Poly_aftertouch_c, 0, 38, 127
1, 774284, Note_on_c, 0, 38, 3
1, 774333, Control_c, 0, 64, 30
1, 774348, Control_c, 0, 64, 49
1, 774363, Control_c, 0, 64, 60
1, 774378, Control_c, 0, 64, 64
1, 774392, Control_c, 0, 64, 67
1, 774407, Control_c, 0, 64, 69
1, 774422, Control_c, 0, 64, 71
1, 774423, Note_off_c, 0, 44, 57
1, 774437, Control_c, 0, 64, 72
1, 774439, Note_off_c, 0, 53, 37
1, 774441, Note_off_c, 0, 74, 51
1, 774443, Note_off_c, 0, 38, 38
1, 774447, Note_off_c, 0, 65, 58
1, 774452, Control_c, 0, 64, 73
1, 774452, Note_off_c, 0, 71, 52
1, 774525, Control_c, 0, 64, 71
1, 774540, Control_c, 0, 64, 68
1, 774555, Control_c, 0, 64, 62
1, 774578, Control_c, 0, 64, 53
1, 774582, Note_on_c, 0, 74, 55
1, 774583, Note_on_c, 0, 38, 41
1, 774592, Note_on_c, 0, 66, 44
1, 774592, Control_c, 0, 64, 37
1, 774598, Note_on_c, 0, 45, 38
1, 774598, Note_on_c, 0, 71, 44
1, 774606, Note_on_c, 0, 53, 27
1, 774607, Control_c, 0, 64, 0
1, 774667, Control_c, 0, 64, 44
1, 774682, Control_c, 0, 64, 57
1, 774697, Control_c, 0, 64, 63
1, 774712, Control_c, 0, 64, 67
1, 774727, Control_c, 0, 64, 70
1, 774741, Control_c, 0, 64, 73
1, 774744, Note_off_c, 0, 45, 57
1, 774756, Control_c, 0, 64, 75
1, 774767, Note_off_c, 0, 38, 60
1, 774768, Note_off_c, 0, 53, 48
1, 774771, Control_c, 0, 64, 77
1, 774786, Control_c, 0, 64, 78
1, 774788, Note_off_c, 0, 74, 47
1, 774801, Control_c, 0, 64, 79
1, 774805, Note_off_c, 0, 66, 50
1, 774807, Note_off_c, 0, 71, 37
1, 774815, Control_c, 0, 64, 79
1, 774875, Control_c, 0, 64, 78
1, 774889, Control_c, 0, 64, 73
1, 774904, Control_c, 0, 64, 67
1, 774918, Note_on_c, 0, 74, 51
1, 774919, Control_c, 0, 64, 59
1, 774920, Note_on_c, 0, 46, 52
1, 774923, Note_on_c, 0, 67, 46
1, 774929, Note_on_c, 0, 53, 40
1, 774934, Control_c, 0, 64, 47
1, 774940, Note_on_c, 0, 71, 34
1, 774943, Note_on_c, 0, 38, 16
1, 774948, Control_c, 0, 64, 37
1, 774978, Control_c, 0, 64, 45
1, 774993, Control_c, 0, 64, 55
1, 775008, Control_c, 0, 64, 63
1, 775022, Control_c, 0, 64, 68
1, 775037, Control_c, 0, 64, 73
1, 775052, Control_c, 0, 64, 76
1, 775067, Control_c, 0, 64, 78
1, 775082, Control_c, 0, 64, 80
1, 775093, Note_off_c, 0, 38, 38
1, 775096, Control_c, 0, 64, 83
1, 775102, Note_off_c, 0, 46, 51
1, 775111, Control_c, 0, 64, 84
1, 775126, Control_c, 0, 64, 85
1, 775128, Note_off_c, 0, 53, 34
1, 775130, Note_off_c, 0, 74, 36
1, 775139, Note_off_c, 0, 67, 38
1, 775154, Note_off_c, 0, 71, 34
1, 775215, Control_c, 0, 64, 84
1, 775230, Control_c, 0, 64, 83
1, 775245, Control_c, 0, 64, 79
1, 775259, Control_c, 0, 64, 75
1, 775274, Control_c, 0, 64, 68
1, 775289, Control_c, 0, 64, 59
1, 775304, Control_c, 0, 64, 38
1, 775326, Note_on_c, 0, 71, 34
1, 775326, Control_c, 0, 64, 0
1, 775330, Note_on_c, 0, 53, 35
1, 775332, Note_on_c, 0, 74, 43
1, 775337, Note_on_c, 0, 38, 31
1, 775337, Note_on_c, 0, 66, 42
1, 775343, Note_on_c, 0, 45, 29
1, 775415, Control_c, 0, 64, 50
1, 775430, Control_c, 0, 64, 65
1, 775445, Control_c, 0, 64, 73
1, 775460, Note_off_c, 0, 66, 63
1, 775460, Note_off_c, 0, 38, 55
1, 775460, Control_c, 0, 64, 82
1, 775468, Note_off_c, 0, 71, 58
1, 775473, Note_off_c, 0, 74, 63
1, 775475, Control_c, 0, 64, 91
1, 775481, Note_off_c, 0, 53, 61
1, 775482, Note_off_c, 0, 45, 53
1, 775490, Control_c, 0, 64, 104
1, 775505, Control_c, 0, 64, 127
1, 775534, Control_c, 0, 67, 118
1, 775549, Control_c, 0, 67, 108
1, 775564, Control_c, 0, 67, 95
1, 775579, Control_c, 0, 67, 84
1, 775594, Control_c, 0, 67, 76
1, 775609, Control_c, 0, 67, 69
1, 775624, Control_c, 0, 67, 66
1, 775638, Control_c, 0, 67, 63
1, 775653, Control_c, 0, 67, 58
1, 775668, Control_c, 0, 67, 54
1, 775683, Control_c, 0, 67, 49
1, 775697, Control_c, 0, 67, 44
1, 775712, Control_c, 0, 67, 38
1, 775727, Control_c, 0, 67, 33
1, 775742, Control_c, 0, 67, 28
1, 775757, Control_c, 0, 67, 24
1, 775771, Note_on_c, 0, 85, 81
1, 775788, Note_on_c, 0, 69, 65
1, 775803, Note_on_c, 0, 81, 50
1, 775831, Control_c, 0, 67, 22
1, 775841, Note_on_c, 0, 65, 26
1, 775909, Note_off_c, 0, 81, 45
1, 775929, Note_off_c, 0, 65, 39
1, 775934, Control_c, 0, 67, 0
1, 775949, Note_on_c, 0, 80, 54
1, 775951, Note_on_c, 0, 64, 54
1, 776139, Note_off_c, 0, 80, 56
1, 776142, Note_on_c, 0, 79, 60
1, 776143, Note_off_c, 0, 64, 57
1, 776145, Note_on_c, 0, 63, 63
1, 776208, Control_c, 0, 64, 99
1, 776223, Control_c, 0, 64, 81
1, 776239, Control_c, 0, 64, 64
1, 776254, Control_c, 0, 64, 48
1, 776268, Control_c, 0, 64, 0
1, 776312, Control_c, 0, 64, 45
1, 776327, Control_c, 0, 64, 59
1, 776342, Control_c, 0, 64, 66
1, 776357, Control_c, 0, 64, 69
1, 776372, Control_c, 0, 64, 71
1, 776387, Control_c, 0, 64, 73
1, 776400, Note_off_c, 0, 69, 60
1, 776402, Control_c, 0, 64, 74
1, 776417, Control_c, 0, 64, 76
1, 776432, Control_c, 0, 64, 79
1, 776436, Note_off_c, 0, 85, 63
1, 776447, Control_c, 0, 64, 80
1, 776461, Control_c, 0, 64, 81
1, 776476, Control_c, 0, 64, 82
1, 776485, Note_on_c, 0, 84, 84
1, 776491, Control_c, 0, 64, 83
1, 776504, Note_on_c, 0, 68, 62
1, 776520, Control_c, 0, 64, 83
1, 776535, Control_c, 0, 64, 84
1, 776550, Control_c, 0, 64, 84
1, 776608, Note_off_c, 0, 68, 62
1, 776639, Note_on_c, 0, 83, 83
1, 776649, Note_on_c, 0, 67, 56
1, 776695, Note_off_c, 0, 84, 62
1, 776698, Control_c, 0, 64, 84
1, 776712, Control_c, 0, 64, 83
1, 776727, Control_c, 0, 64, 82
1, 776742, Control_c, 0, 64, 82
1, 776757, Control_c, 0, 64, 81
1, 776771, Note_off_c, 0, 67, 25
1, 776772, Control_c, 0, 64, 79
1, 776786, Control_c, 0, 64, 77
1, 776801, Control_c, 0, 64, 73
1, 776824, Control_c, 0, 64, 69
1, 776838, Control_c, 0, 64, 65
1, 776853, Control_c, 0, 64, 60
1, 776853, Control_c, 0, 67, 19
1, 776858, Note_on_c, 0, 82, 79
1, 776868, Control_c, 0, 64, 55
1, 776883, Control_c, 0, 64, 48
1, 776896, Note_off_c, 0, 83, 62
1, 776898, Control_c, 0, 64, 0
1, 776910, Note_on_c, 0, 66, 34
1, 776912, Control_c, 0, 67, 22
1, 776957, Control_c, 0, 67, 25
1, 776972, Control_c, 0, 67, 27
1, 776984, Note_off_c, 0, 79, 40
1, 776986, Control_c, 0, 64, 48
1, 776986, Control_c, 0, 67, 30
1, 776994, Note_off_c, 0, 63, 63
1, 777001, Control_c, 0, 64, 61
1, 777001, Control_c, 0, 67, 32
1, 777016, Control_c, 0, 64, 66
1, 777016, Control_c, 0, 67, 35
1, 777032, Control_c, 0, 64, 70
1, 777032, Control_c, 0, 67, 39
1, 777048, Control_c, 0, 64, 72
1, 777048, Control_c, 0, 67, 43
1, 777063, Control_c, 0, 64, 74
1, 777063, Control_c, 0, 67, 46
1, 777078, Control_c, 0, 64, 75
1, 777078, Control_c, 0, 67, 50
1, 777092, Control_c, 0, 64, 76
1, 777092, Control_c, 0, 67, 53
1, 777107, Control_c, 0, 64, 76
1, 777107, Control_c, 0, 67, 56
1, 777122, Control_c, 0, 67, 58
1, 777136, Control_c, 0, 67, 61
1, 777151, Control_c, 0, 64, 76
1, 777151, Control_c, 0, 67, 66
1, 777166, Control_c, 0, 64, 75
1, 777166, Control_c, 0, 67, 70
1, 777181, Control_c, 0, 64, 73
1, 777181, Control_c, 0, 67, 75
1, 777196, Control_c, 0, 64, 69
1, 777196, Control_c, 0, 67, 79
1, 777210, Control_c, 0, 64, 64
1, 777210, Control_c, 0, 67, 83
1, 777216, Note_on_c, 0, 81, 63
1, 777225, Control_c, 0, 64, 52
1, 777225, Control_c, 0, 67, 87
1, 777240, Control_c, 0, 64, 35
1, 777240, Control_c, 0, 67, 91
1, 777244, Note_on_c, 0, 73, 50
1, 777246, Note_on_c, 0, 57, 42
1, 777247, Note_off_c, 0, 82, 57
1, 777254, Control_c, 0, 64, 0
1, 777254, Control_c, 0, 67, 92
1, 777269, Control_c, 0, 67, 93
1, 777284, Control_c, 0, 64, 35
1, 777299, Control_c, 0, 64, 53
1, 777314, Control_c, 0, 64, 64
1, 777318, Note_off_c, 0, 73, 62
1, 777329, Control_c, 0, 64, 72
1, 777329, Control_c, 0, 67, 94
1, 777344, Control_c, 0, 64, 80
1, 777344, Note_off_c, 0, 81, 64
1, 777359, Control_c, 0, 64, 86
1, 777374, Control_c, 0, 64, 91
1, 777383, Note_off_c, 0, 66, 59
1, 777389, Control_c, 0, 64, 96
1, 777403, Control_c, 0, 64, 99
1, 777410, Note_off_c, 0, 57, 63
1, 777418, Control_c, 0, 67, 93
1, 777492, Control_c, 0, 67, 94
1, 777507, Control_c, 0, 64, 96
1, 777522, Control_c, 0, 64, 92
1, 777522, Control_c, 0, 67, 94
1, 777536, Control_c, 0, 64, 88
1, 777551, Control_c, 0, 64, 85
1, 777573, Control_c, 0, 64, 81
1, 777588, Control_c, 0, 64, 77
1, 777603, Control_c, 0, 64, 72
1, 777618, Control_c, 0, 64, 68
1, 777633, Control_c, 0, 64, 64
1, 777641, Note_on_c, 0, 73, 70
1, 777648, Control_c, 0, 64, 61
1, 777649, Note_on_c, 0, 60, 66
1, 777654, Note_on_c, 0, 69, 53
1, 777662, Control_c, 0, 64, 57
1, 777677, Control_c, 0, 64, 50
1, 777692, Control_c, 0, 64, 35
1, 777707, Control_c, 0, 64, 0
1, 777707, Control_c, 0, 67, 94
1, 777780, Control_c, 0, 67, 93
1, 777809, Control_c, 0, 64, 34
1, 777809, Control_c, 0, 67, 93
1, 777824, Control_c, 0, 64, 51
1, 777824, Control_c, 0, 67, 92
1, 777840, Control_c, 0, 64, 60
1, 777855, Control_c, 0, 64, 62
1, 777870, Control_c, 0, 64, 62
1, 777944, Note_off_c, 0, 60, 64
1, 778003, Control_c, 0, 64, 63
1, 778007, Note_on_c, 0, 55, 48
1, 778015, Note_on_c, 0, 46, 47
1, 778016, Note_off_c, 0, 69, 59
1, 778018, Control_c, 0, 64, 64
1, 778032, Control_c, 0, 64, 66
1, 778047, Control_c, 0, 64, 68
1, 778047, Control_c, 0, 67, 93
1, 778062, Control_c, 0, 64, 70
1, 778077, Control_c, 0, 64, 72
1, 778077, Control_c, 0, 67, 93
1, 778092, Control_c, 0, 64, 74
1, 778107, Control_c, 0, 64, 76
1, 778122, Control_c, 0, 64, 78
1, 778137, Control_c, 0, 64, 81
1, 778147, Note_on_c, 0, 71, 71
1, 778149, Note_off_c, 0, 46, 57
1, 778152, Control_c, 0, 64, 82
1, 778152, Control_c, 0, 67, 94
1, 778158, Note_on_c, 0, 68, 46
1, 778164, Note_off_c, 0, 73, 61
1, 778167, Note_on_c, 0, 61, 53
1, 778181, Control_c, 0, 64, 82
1, 778193, Note_off_c, 0, 68, 65
1, 778196, Note_off_c, 0, 55, 35
1, 778244, Note_off_c, 0, 61, 58
1, 778263, Note_off_c, 0, 71, 61
1, 778270, Control_c, 0, 64, 82
1, 778284, Control_c, 0, 64, 79
1, 778307, Control_c, 0, 64, 73
1, 778322, Control_c, 0, 64, 64
1, 778336, Control_c, 0, 64, 45
1, 778336, Control_c, 0, 67, 94
1, 778339, Note_on_c, 0, 71, 65
1, 778350, Note_on_c, 0, 47, 41
1, 778351, Control_c, 0, 64, 0
1, 778351, Control_c, 0, 67, 93
1, 778360, Note_on_c, 0, 38, 47
1, 778361, Note_on_c, 0, 62, 53
1, 778370, Note_on_c, 0, 67, 32
1, 778381, Control_c, 0, 67, 93
1, 778396, Control_c, 0, 64, 32
1, 778396, Control_c, 0, 67, 92
1, 778410, Control_c, 0, 64, 50
1, 778411, Note_off_c, 0, 67, 58
1, 778425, Control_c, 0, 64, 62
1, 778429, Note_off_c, 0, 47, 64
1, 778437, Note_off_c, 0, 62, 62
1, 778440, Control_c, 0, 64, 67
1, 778454, Note_off_c, 0, 38, 63
1, 778455, Control_c, 0, 64, 71
1, 778470, Control_c, 0, 64, 74
1, 778484, Control_c, 0, 64, 77
1, 778499, Control_c, 0, 64, 78
1, 778514, Control_c, 0, 64, 79
1, 778528, Control_c, 0, 64, 79
1, 778533, Note_off_c, 0, 71, 39
1, 778602, Control_c, 0, 64, 79
1, 778617, Control_c, 0, 64, 78
1, 778633, Control_c, 0, 64, 75
1, 778648, Control_c, 0, 64, 70
1, 778662, Control_c, 0, 64, 63
1, 778677, Control_c, 0, 64, 51
1, 778678, Note_on_c, 0, 64, 66
1, 778692, Control_c, 0, 64, 0
1, 778692, Control_c, 0, 67, 92
1, 778695, Note_on_c, 0, 55, 48
1, 778702, Note_on_c, 0, 34, 62
1, 778706, Control_c, 0, 67, 91
1, 778708, Note_on_c, 0, 62, 29
1, 778717, Note_on_c, 0, 46, 46
1, 778721, Control_c, 0, 67, 90
1, 778736, Control_c, 0, 67, 89
1, 778751, Control_c, 0, 67, 88
1, 778766, Control_c, 0, 67, 87
1, 778781, Control_c, 0, 67, 85
1, 778796, Control_c, 0, 64, 47
1, 778796, Control_c, 0, 67, 85
1, 778810, Control_c, 0, 64, 61
1, 778810, Control_c, 0, 67, 84
1, 778820, Note_off_c, 0, 62, 45
1, 778825, Control_c, 0, 64, 66
1, 778825, Control_c, 0, 67, 84
1, 778840, Control_c, 0, 64, 69
1, 778840, Control_c, 0, 67, 83
1, 778846, Note_off_c, 0, 46, 62
1, 778855, Control_c, 0, 64, 72
1, 778870, Control_c, 0, 64, 73
1, 778882, Note_off_c, 0, 55, 62
1, 778885, Control_c, 0, 64, 75
1, 778900, Control_c, 0, 64, 77
1, 778914, Control_c, 0, 64, 78
1, 778916, Note_off_c, 0, 34, 61
1, 778974, Control_c, 0, 64, 77
1, 778974, Control_c, 0, 67, 84
1, 778988, Control_c, 0, 64, 75
1, 778988, Control_c, 0, 67, 84
1, 778995, Note_off_c, 0, 64, 59
1, 779003, Control_c, 0, 64, 71
1, 779018, Note_on_c, 0, 66, 74
1, 779018, Control_c, 0, 64, 63
1, 779032, Control_c, 0, 64, 49
1, 779035, Note_on_c, 0, 57, 60
1, 779037, Note_on_c, 0, 49, 66
1, 779042, Note_on_c, 0, 61, 53
1, 779047, Control_c, 0, 64, 0
1, 779073, Note_on_c, 0, 38, 49
1, 779126, Note_off_c, 0, 38, 62
1, 779144, Control_c, 0, 64, 46
1, 779144, Control_c, 0, 67, 84
1, 779145, Note_off_c, 0, 57, 61
1, 779159, Control_c, 0, 64, 59
1, 779174, Control_c, 0, 64, 65
1, 779174, Control_c, 0, 67, 83
1, 779174, Note_off_c, 0, 49, 62
1, 779188, Control_c, 0, 64, 69
1, 779203, Control_c, 0, 64, 72
1, 779203, Control_c, 0, 67, 82
1, 779218, Control_c, 0, 64, 74
1, 779218, Control_c, 0, 67, 81
1, 779232, Control_c, 0, 64, 76
1, 779247, Control_c, 0, 64, 77
1, 779247, Control_c, 0, 67, 81
1, 779262, Control_c, 0, 64, 77
1, 779290, Note_off_c, 0, 61, 27
1, 779322, Control_c, 0, 64, 76
1, 779337, Control_c, 0, 64, 73
1, 779341, Note_off_c, 0, 66, 50
1, 779352, Control_c, 0, 64, 68
1, 779366, Note_on_c, 0, 67, 73
1, 779367, Control_c, 0, 64, 62
1, 779373, Note_on_c, 0, 52, 62
1, 779377, Note_on_c, 0, 60, 59
1, 779382, Control_c, 0, 64, 50
1, 779383, Note_on_c, 0, 40, 56
1, 779386, Note_on_c, 0, 58, 56
1, 779396, Control_c, 0, 64, 0
1, 779456, Control_c, 0, 67, 80
1, 779466, Note_off_c, 0, 60, 55
1, 779471, Control_c, 0, 67, 80
1, 779486, Control_c, 0, 64, 53
1, 779486, Control_c, 0, 67, 79
1, 779501, Control_c, 0, 64, 64
1, 779501, Control_c, 0, 67, 78
1, 779507, Note_off_c, 0, 52, 57
1, 779516, Control_c, 0, 64, 68
1, 779516, Control_c, 0, 67, 77
1, 779530, Control_c, 0, 64, 72
1, 779530, Control_c, 0, 67, 77
1, 779545, Control_c, 0, 64, 73
1, 779545, Control_c, 0, 67, 76
1, 779560, Control_c, 0, 64, 75
1, 779560, Control_c, 0, 67, 76
1, 779568, Note_off_c, 0, 58, 46
1, 779575, Control_c, 0, 64, 76
1, 779575, Control_c, 0, 67, 75
1, 779587, Note_off_c, 0, 40, 38
1, 779590, Control_c, 0, 64, 76
1, 779590, Control_c, 0, 67, 73
1, 779604, Control_c, 0, 64, 77
1, 779604, Control_c, 0, 67, 72
1, 779619, Control_c, 0, 67, 72
1, 779649, Control_c, 0, 67, 71
1, 779663, Control_c, 0, 64, 76
1, 779678, Control_c, 0, 64, 76
1, 779693, Control_c, 0, 64, 75
1, 779708, Control_c, 0, 64, 73
1, 779723, Control_c, 0, 64, 70
1, 779724, Note_on_c, 0, 68, 79
1, 779737, Control_c, 0, 64, 67
1, 779738, Note_on_c, 0, 59, 59
1, 779752, Control_c, 0, 64, 63
1, 779752, Control_c, 0, 67, 71
1, 779755, Note_on_c, 0, 56, 57
1, 779762, Note_on_c, 0, 55, 49
1, 779767, Control_c, 0, 64, 58
1, 779776, Note_off_c, 0, 67, 60
1, 779781, Note_on_c, 0, 43, 36
1, 779782, Control_c, 0, 64, 49
1, 779782, Control_c, 0, 67, 70
1, 779797, Control_c, 0, 64, 0
1, 779797, Control_c, 0, 67, 70
1, 779819, Control_c, 0, 67, 69
1, 779834, Control_c, 0, 67, 66
1, 779849, Control_c, 0, 67, 64
1, 779863, Control_c, 0, 67, 62
1, 779878, Control_c, 0, 67, 60
1, 779893, Control_c, 0, 67, 58
1, 779908, Control_c, 0, 67, 55
1, 779923, Control_c, 0, 67, 52
1, 779928, Note_off_c, 0, 55, 54
1, 779937, Control_c, 0, 64, 52
1, 779937, Control_c, 0, 67, 48
1, 779952, Control_c, 0, 64, 63
1, 779952, Control_c, 0, 67, 45
1, 779967, Control_c, 0, 64, 67
1, 779967, Control_c, 0, 67, 44
1, 779982, Control_c, 0, 64, 70
1, 779982, Control_c, 0, 67, 43
1, 779997, Control_c, 0, 64, 73
1, 779997, Control_c, 0, 67, 43
1, 780010, Note_off_c, 0, 56, 61
1, 780012, Control_c, 0, 64, 75
1, 780020, Note_off_c, 0, 59, 63
1, 780026, Control_c, 0, 64, 77
1, 780026, Control_c, 0, 67, 42
1, 780041, Control_c, 0, 64, 78
1, 780049, Note_off_c, 0, 43, 40
1, 780070, Control_c, 0, 64, 77
1, 780085, Control_c, 0, 64, 72
1, 780100, Control_c, 0, 64, 64
1, 780107, Note_on_c, 0, 53, 52
1, 780112, Note_on_c, 0, 41, 39
1, 780115, Control_c, 0, 64, 55
1, 780129, Control_c, 0, 64, 55
1, 780129, Control_c, 0, 67, 43
1, 780144, Control_c, 0, 64, 60
1, 780159, Control_c, 0, 64, 65
1, 780159, Control_c, 0, 67, 43
1, 780174, Control_c, 0, 64, 68
1, 780174, Control_c, 0, 67, 44
1, 780188, Control_c, 0, 64, 71
1, 780188, Control_c, 0, 67, 44
1, 780189, Note_off_c, 0, 53, 59
1, 780203, Control_c, 0, 64, 74
1, 780218, Control_c, 0, 64, 77
1, 780234, Control_c, 0, 64, 80
1, 780247, Note_on_c, 0, 69, 76
1, 780249, Control_c, 0, 64, 82
1, 780256, Note_off_c, 0, 68, 62
1, 780264, Control_c, 0, 64, 82
1, 780270, Note_off_c, 0, 41, 34
1, 780274, Note_on_c, 0, 61, 47
1, 780278, Control_c, 0, 64, 83
1, 780279, Note_on_c, 0, 56, 49
1, 780308, Control_c, 0, 64, 83
1, 780314, Note_off_c, 0, 61, 46
1, 780338, Control_c, 0, 67, 45
1, 780352, Control_c, 0, 67, 45
1, 780366, Note_off_c, 0, 56, 37
1, 780397, Control_c, 0, 64, 83
1, 780412, Control_c, 0, 64, 82
1, 780426, Control_c, 0, 64, 81
1, 780441, Control_c, 0, 64, 78
1, 780456, Control_c, 0, 64, 74
1, 780457, Note_on_c, 0, 62, 57
1, 780464, Note_on_c, 0, 57, 48
1, 780471, Control_c, 0, 64, 68
1, 780477, Note_on_c, 0, 54, 61
1, 780486, Control_c, 0, 64, 59
1, 780489, Note_on_c, 0, 42, 42
1, 780501, Control_c, 0, 64, 34
1, 780501, Control_c, 0, 67, 46
1, 780515, Control_c, 0, 64, 0
1, 780582, Control_c, 0, 64, 36
1, 780582, Control_c, 0, 67, 46
1, 780597, Control_c, 0, 64, 57
1, 780612, Control_c, 0, 64, 65
1, 780627, Control_c, 0, 64, 67
1, 780656, Control_c, 0, 64, 66
1, 780671, Control_c, 0, 64, 66
1, 780685, Control_c, 0, 64, 65
1, 780700, Control_c, 0, 64, 62
1, 780715, Control_c, 0, 64, 57
1, 780730, Control_c, 0, 64, 44
1, 780745, Control_c, 0, 64, 0
1, 780760, Control_c, 0, 67, 47
1, 780793, Note_off_c, 0, 42, 52
1, 780820, Note_on_c, 0, 38, 54
1, 780849, Control_c, 0, 67, 48
1, 780908, Control_c, 0, 64, 46
1, 780923, Control_c, 0, 64, 62
1, 780931, Note_off_c, 0, 38, 61
1, 780938, Control_c, 0, 64, 69
1, 780938, Control_c, 0, 67, 48
1, 780946, Note_off_c, 0, 54, 63
1, 780952, Control_c, 0, 64, 75
1, 780967, Control_c, 0, 64, 81
1, 780982, Control_c, 0, 64, 85
1, 780997, Control_c, 0, 64, 87
1, 781011, Control_c, 0, 64, 88
1, 781027, Control_c, 0, 64, 89
1, 781057, Control_c, 0, 67, 49
1, 781087, Control_c, 0, 67, 49
1, 781101, Control_c, 0, 64, 88
1, 781116, Control_c, 0, 64, 86
1, 781131, Control_c, 0, 64, 80
1, 781146, Control_c, 0, 64, 71
1, 781157, Note_on_c, 0, 38, 56
1, 781161, Control_c, 0, 64, 60
1, 781161, Control_c, 0, 67, 50
1, 781175, Control_c, 0, 64, 41
1, 781175, Control_c, 0, 67, 50
1, 781190, Control_c, 0, 64, 0
1, 781190, Control_c, 0, 67, 51
1, 781205, Control_c, 0, 67, 51
1, 781219, Control_c, 0, 64, 51
1, 781219, Control_c, 0, 67, 52
1, 781234, Control_c, 0, 64, 63
1, 781234, Control_c, 0, 67, 53
1, 781249, Control_c, 0, 64, 69
1, 781249, Control_c, 0, 67, 55
1, 781264, Control_c, 0, 64, 72
1, 781264, Control_c, 0, 67, 56
1, 781279, Control_c, 0, 64, 74
1, 781279, Control_c, 0, 67, 57
1, 781294, Control_c, 0, 67, 57
1, 781316, Control_c, 0, 67, 58
1, 781346, Control_c, 0, 67, 59
1, 781361, Control_c, 0, 67, 59
1, 781376, Control_c, 0, 67, 60
1, 781390, Control_c, 0, 67, 63
1, 781405, Control_c, 0, 64, 73
1, 781405, Control_c, 0, 67, 68
1, 781420, Control_c, 0, 64, 70
1, 781420, Control_c, 0, 67, 74
1, 781434, Control_c, 0, 64, 67
1, 781434, Control_c, 0, 67, 76
1, 781449, Control_c, 0, 64, 64
1, 781449, Control_c, 0, 67, 77
1, 781464, Control_c, 0, 64, 60
1, 781479, Control_c, 0, 64, 55
1, 781494, Control_c, 0, 64, 46
1, 781508, Control_c, 0, 64, 0
1, 781529, Note_off_c, 0, 38, 62
1, 781544, Note_on_c, 0, 33, 44
1, 781627, Control_c, 0, 67, 77
1, 781657, Control_c, 0, 64, 41
1, 781672, Control_c, 0, 64, 56
1, 781687, Control_c, 0, 64, 64
1, 781692, Note_off_c, 0, 33, 54
1, 781701, Control_c, 0, 64, 69
1, 781716, Control_c, 0, 64, 73
1, 781731, Control_c, 0, 64, 74
1, 781746, Control_c, 0, 64, 75
1, 781761, Control_c, 0, 64, 75
1, 781775, Control_c, 0, 64, 76
1, 781836, Control_c, 0, 67, 77
1, 781850, Control_c, 0, 64, 75
1, 781850, Control_c, 0, 67, 78
1, 781851, Note_off_c, 0, 57, 55
1, 781862, Note_off_c, 0, 62, 58
1, 781865, Control_c, 0, 64, 73
1, 781880, Control_c, 0, 64, 70
1, 781884, Note_off_c, 0, 69, 57
1, 781895, Control_c, 0, 64, 65
1, 781910, Control_c, 0, 64, 58
1, 781924, Control_c, 0, 64, 38
1, 781939, Control_c, 0, 64, 0
1, 781969, Control_c, 0, 67, 78
1, 781984, Control_c, 0, 67, 79
1, 781998, Control_c, 0, 67, 79
1, 781999, Note_on_c, 0, 45, 46
1, 782013, Control_c, 0, 67, 80
1, 782015, Note_on_c, 0, 33, 24
1, 782028, Control_c, 0, 67, 83
1, 782050, Control_c, 0, 67, 87
1, 782065, Control_c, 0, 67, 89
1, 782080, Control_c, 0, 67, 91
1, 782095, Control_c, 0, 67, 94
1, 782110, Control_c, 0, 67, 97
1, 782124, Control_c, 0, 67, 104
1, 782139, Control_c, 0, 67, 111
1, 782154, Control_c, 0, 67, 118
1, 782169, Control_c, 0, 67, 125
1, 782184, Control_c, 0, 67, 127
1, 782199, Control_c, 0, 64, 33
1, 782213, Control_c, 0, 64, 54
1, 782228, Control_c, 0, 64, 65
1, 782243, Control_c, 0, 64, 78
1, 782248, Note_off_c, 0, 33, 57
1, 782257, Control_c, 0, 64, 127
1, 782264, Note_off_c, 0, 45, 62
1, 782602, Note_on_c, 0, 81, 45
1, 782615, Note_on_c, 0, 69, 19
1, 782626, Note_on_c, 0, 77, 22
1, 782636, Note_off_c, 0, 81, 0
1, 782636, Note_on_c, 0, 81, 8
1, 782642, Note_on_c, 0, 65, 36
1, 782774, Note_off_c, 0, 81, 54
1, 782782, Note_off_c, 0, 77, 40
1, 782783, Note_off_c, 0, 69, 40
1, 782789, Note_off_c, 0, 65, 35
1, 783043, Note_on_c, 0, 81, 66
1, 783062, Note_on_c, 0, 60, 39
1, 783062, Note_on_c, 0, 69, 35
1, 783072, Note_on_c, 0, 72, 40
1, 783124, Note_off_c, 0, 60, 62
1, 783139, Note_off_c, 0, 72, 55
1, 783159, Note_off_c, 0, 81, 59
1, 783171, Note_off_c, 0, 69, 34
1, 783406, Note_on_c, 0, 81, 66
1, 783432, Note_on_c, 0, 57, 39
1, 783446, Note_on_c, 0, 72, 33
1, 783488, Note_off_c, 0, 81, 57
1, 783523, Note_off_c, 0, 72, 37
1, 783593, Note_on_c, 0, 52, 38
1, 783664, Note_off_c, 0, 52, 50
1, 783679, Note_off_c, 0, 57, 31
1, 783781, Note_on_c, 0, 76, 65
1, 783790, Note_on_c, 0, 64, 48
1, 783802, Note_on_c, 0, 72, 43
1, 783822, Note_off_c, 0, 64, 63
1, 783883, Note_off_c, 0, 72, 52
1, 783919, Note_off_c, 0, 76, 56
1, 784111, Control_c, 0, 64, 99
1, 784126, Control_c, 0, 64, 80
1, 784141, Control_c, 0, 64, 69
1, 784155, Control_c, 0, 64, 62
1, 784157, Note_on_c, 0, 76, 58
1, 784168, Note_on_c, 0, 33, 51
1, 784170, Control_c, 0, 64, 60
1, 784175, Note_on_c, 0, 72, 41
1, 784182, Note_on_c, 0, 45, 39
1, 784185, Control_c, 0, 64, 62
1, 784200, Control_c, 0, 64, 65
1, 784215, Control_c, 0, 64, 69
1, 784231, Control_c, 0, 64, 73
1, 784245, Control_c, 0, 64, 77
1, 784251, Note_off_c, 0, 45, 49
1, 784256, Note_off_c, 0, 72, 51
1, 784260, Control_c, 0, 64, 81
1, 784263, Note_off_c, 0, 33, 55
1, 784275, Control_c, 0, 64, 84
1, 784290, Control_c, 0, 64, 86
1, 784312, Note_off_c, 0, 76, 50
1, 784313, Control_c, 0, 64, 87
1, 784327, Control_c, 0, 64, 87
1, 784342, Control_c, 0, 64, 88
1, 784357, Control_c, 0, 64, 88
1, 784372, Control_c, 0, 64, 89
1, 784431, Control_c, 0, 64, 88
1, 784446, Control_c, 0, 64, 86
1, 784460, Control_c, 0, 64, 81
1, 784475, Control_c, 0, 64, 74
1, 784490, Control_c, 0, 64, 68
1, 784505, Control_c, 0, 64, 64
1, 784520, Control_c, 0, 64, 65
1, 784528, Note_on_c, 0, 76, 51
1, 784531, Note_on_c, 0, 45, 44
1, 784534, Control_c, 0, 64, 68
1, 784546, Note_on_c, 0, 33, 40
1, 784546, Note_on_c, 0, 67, 37
1, 784549, Control_c, 0, 64, 72
1, 784564, Control_c, 0, 64, 76
1, 784578, Control_c, 0, 64, 80
1, 784586, Note_off_c, 0, 45, 63
1, 784593, Control_c, 0, 64, 84
1, 784595, Note_off_c, 0, 33, 60
1, 784608, Control_c, 0, 64, 88
1, 784623, Control_c, 0, 64, 91
1, 784629, Note_off_c, 0, 67, 48
1, 784629, Note_off_c, 0, 76, 55
1, 784638, Control_c, 0, 64, 94
1, 784653, Control_c, 0, 64, 97
1, 784668, Control_c, 0, 64, 101
1, 784683, Control_c, 0, 64, 107
1, 784698, Control_c, 0, 64, 111
1, 784713, Control_c, 0, 64, 113
1, 784757, Control_c, 0, 64, 116
1, 784890, Note_on_c, 0, 76, 60
1, 784900, Note_on_c, 0, 64, 41
1, 784907, Note_on_c, 0, 55, 42
1, 784915, Note_on_c, 0, 67, 33
1, 784992, Note_off_c, 0, 76, 60
1, 785008, Note_off_c, 0, 55, 59
1, 785011, Note_off_c, 0, 64, 59
1, 785018, Note_off_c, 0, 67, 41
1, 785253, Note_on_c, 0, 71, 65
1, 785273, Note_on_c, 0, 55, 40
1, 785279, Note_on_c, 0, 67, 40
1, 785288, Note_on_c, 0, 59, 36
1, 785344, Note_off_c, 0, 59, 59
1, 785351, Note_off_c, 0, 55, 57
1, 785363, Note_off_c, 0, 71, 58
1, 785392, Note_off_c, 0, 67, 42
1, 785565, Control_c, 0, 64, 113
1, 785580, Control_c, 0, 64, 111
1, 785594, Control_c, 0, 64, 109
1, 785609, Control_c, 0, 64, 107
1, 785614, Note_on_c, 0, 71, 58
1, 785624, Note_on_c, 0, 55, 45
1, 785637, Note_on_c, 0, 67, 47
1, 785639, Control_c, 0, 64, 105
1, 785693, Note_off_c, 0, 67, 46
1, 785698, Control_c, 0, 64, 103
1, 785729, Note_off_c, 0, 71, 59
1, 785787, Control_c, 0, 64, 101
1, 785801, Note_on_c, 0, 50, 47
1, 785848, Note_off_c, 0, 55, 28
1, 785854, Control_c, 0, 64, 98
1, 785875, Note_off_c, 0, 50, 60
1, 785884, Control_c, 0, 64, 95
1, 785899, Control_c, 0, 64, 94
1, 785914, Control_c, 0, 64, 91
1, 785929, Control_c, 0, 64, 88
1, 785944, Control_c, 0, 64, 85
1, 785959, Control_c, 0, 64, 83
1, 785973, Control_c, 0, 64, 81
1, 785988, Note_on_c, 0, 71, 62
1, 785988, Control_c, 0, 64, 79
1, 785997, Note_on_c, 0, 62, 45
1, 786003, Control_c, 0, 64, 78
1, 786018, Control_c, 0, 64, 76
1, 786032, Control_c, 0, 64, 75
1, 786077, Control_c, 0, 64, 75
1, 786092, Control_c, 0, 64, 76
1, 786106, Control_c, 0, 64, 76
1, 786116, Note_off_c, 0, 62, 54
1, 786132, Note_off_c, 0, 71, 60
1, 786150, Control_c, 0, 64, 77
1, 786239, Control_c, 0, 64, 76
1, 786254, Control_c, 0, 64, 76
1, 786269, Control_c, 0, 64, 75
1, 786284, Control_c, 0, 64, 72
1, 786298, Control_c, 0, 64, 65
1, 786313, Control_c, 0, 64, 57
1, 786328, Control_c, 0, 64, 45
1, 786343, Control_c, 0, 64, 31
1, 786350, Note_on_c, 0, 71, 58
1, 786358, Control_c, 0, 64, 0
1, 786361, Note_on_c, 0, 62, 43
1, 786361, Note_on_c, 0, 33, 35
1, 786364, Note_on_c, 0, 45, 37
1, 786388, Control_c, 0, 64, 34
1, 786403, Control_c, 0, 64, 46
1, 786417, Control_c, 0, 64, 57
1, 786432, Control_c, 0, 64, 63
1, 786447, Control_c, 0, 64, 67
1, 786462, Control_c, 0, 64, 70
1, 786477, Control_c, 0, 64, 72
1, 786491, Control_c, 0, 64, 74
1, 786493, Note_off_c, 0, 33, 36
1, 786495, Note_off_c, 0, 45, 36
1, 786506, Control_c, 0, 64, 75
1, 786521, Control_c, 0, 64, 76
1, 786536, Control_c, 0, 64, 77
1, 786549, Note_off_c, 0, 62, 32
1, 786551, Note_off_c, 0, 71, 53
1, 786558, Control_c, 0, 64, 78
1, 786573, Control_c, 0, 64, 78
1, 786633, Control_c, 0, 64, 78
1, 786647, Control_c, 0, 64, 75
1, 786662, Control_c, 0, 64, 70
1, 786677, Control_c, 0, 64, 64
1, 786692, Control_c, 0, 64, 56
1, 786707, Control_c, 0, 64, 52
1, 786713, Note_on_c, 0, 66, 56
1, 786720, Note_on_c, 0, 62, 41
1, 786722, Control_c, 0, 64, 54
1, 786728, Note_on_c, 0, 45, 42
1, 786737, Control_c, 0, 64, 59
1, 786740, Note_on_c, 0, 33, 37
1, 786752, Control_c, 0, 64, 63
1, 786766, Control_c, 0, 64, 65
1, 786781, Control_c, 0, 64, 68
1, 786788, Note_off_c, 0, 45, 62
1, 786790, Note_off_c, 0, 33, 62
1, 786796, Control_c, 0, 64, 70
1, 786811, Control_c, 0, 64, 74
1, 786826, Control_c, 0, 64, 76
1, 786829, Note_off_c, 0, 62, 60
1, 786841, Control_c, 0, 64, 77
1, 786845, Note_off_c, 0, 66, 57
1, 786856, Control_c, 0, 64, 77
1, 786886, Control_c, 0, 64, 78
1, 786901, Control_c, 0, 64, 78
1, 786915, Control_c, 0, 64, 79
1, 787019, Control_c, 0, 64, 78
1, 787034, Control_c, 0, 64, 77
1, 787048, Control_c, 0, 64, 74
1, 787063, Control_c, 0, 64, 71
1, 787068, Note_on_c, 0, 66, 56
1, 787078, Control_c, 0, 64, 68
1, 787085, Note_on_c, 0, 62, 49
1, 787091, Note_on_c, 0, 54, 43
1, 787091, Note_on_c, 0, 50, 42
1, 787093, Control_c, 0, 64, 67
1, 787108, Control_c, 0, 64, 68
1, 787122, Control_c, 0, 64, 69
1, 787137, Control_c, 0, 64, 70
1, 787152, Control_c, 0, 64, 71
1, 787161, Note_off_c, 0, 62, 59
1, 787166, Control_c, 0, 64, 72
1, 787181, Control_c, 0, 64, 73
1, 787196, Control_c, 0, 64, 74
1, 787205, Note_off_c, 0, 66, 60
1, 787209, Note_off_c, 0, 54, 37
1, 787211, Note_off_c, 0, 50, 36
1, 787211, Control_c, 0, 64, 75
1, 787255, Control_c, 0, 64, 75
1, 787337, Control_c, 0, 64, 75
1, 787352, Control_c, 0, 64, 74
1, 787367, Control_c, 0, 64, 73
1, 787381, Control_c, 0, 64, 71
1, 787396, Control_c, 0, 64, 67
1, 787411, Control_c, 0, 64, 63
1, 787427, Control_c, 0, 64, 60
1, 787442, Control_c, 0, 64, 60
1, 787443, Note_on_c, 0, 66, 57
1, 787448, Note_on_c, 0, 54, 46
1, 787457, Control_c, 0, 64, 61
1, 787458, Note_on_c, 0, 57, 46
1, 787466, Note_on_c, 0, 45, 39
1, 787471, Control_c, 0, 64, 63
1, 787486, Control_c, 0, 64, 65
1, 787501, Control_c, 0, 64, 67
1, 787516, Control_c, 0, 64, 70
1, 787531, Control_c, 0, 64, 71
1, 787545, Control_c, 0, 64, 73
1, 787560, Control_c, 0, 64, 74
1, 787566, Note_off_c, 0, 45, 51
1, 787575, Note_off_c, 0, 54, 37
1, 787580, Note_off_c, 0, 66, 48
1, 787589, Control_c, 0, 64, 74
1, 787622, Note_off_c, 0, 57, 37
1, 787634, Control_c, 0, 64, 75
1, 787708, Control_c, 0, 64, 74
1, 787723, Control_c, 0, 64, 74
1, 787738, Control_c, 0, 64, 73
1, 787753, Control_c, 0, 64, 73
1, 787768, Control_c, 0, 64, 72
1, 787783, Control_c, 0, 64, 72
1, 787804, Note_on_c, 0, 66, 53
1, 787815, Note_on_c, 0, 57, 43
1, 787871, Control_c, 0, 64, 72
1, 787962, Note_off_c, 0, 57, 37
1, 787983, Note_off_c, 0, 66, 36
1, 788004, Control_c, 0, 64, 73
1, 788101, Control_c, 0, 64, 72
1, 788116, Control_c, 0, 64, 72
1, 788130, Control_c, 0, 64, 69
1, 788145, Control_c, 0, 64, 65
1, 788160, Control_c, 0, 64, 58
1, 788175, Note_on_c, 0, 61, 48
1, 788175, Control_c, 0, 64, 51
1, 788179, Note_on_c, 0, 33, 52
1, 788182, Note_on_c, 0, 57, 41
1, 788190, Control_c, 0, 64, 48
1, 788198, Note_on_c, 0, 45, 23
1, 788204, Control_c, 0, 64, 51
1, 788220, Control_c, 0, 64, 56
1, 788235, Control_c, 0, 64, 60
1, 788244, Note_off_c, 0, 45, 51
1, 788250, Control_c, 0, 64, 64
1, 788264, Control_c, 0, 64, 66
1, 788279, Control_c, 0, 64, 69
1, 788293, Control_c, 0, 64, 72
1, 788308, Control_c, 0, 64, 75
1, 788323, Control_c, 0, 64, 78
1, 788338, Control_c, 0, 64, 82
1, 788344, Note_off_c, 0, 33, 50
1, 788352, Control_c, 0, 64, 85
1, 788367, Control_c, 0, 64, 90
1, 788368, Note_off_c, 0, 61, 50
1, 788382, Control_c, 0, 64, 95
1, 788397, Control_c, 0, 64, 102
1, 788412, Control_c, 0, 64, 108
1, 788427, Control_c, 0, 64, 113
1, 788442, Control_c, 0, 64, 118
1, 788442, Control_c, 0, 67, 125
1, 788457, Control_c, 0, 64, 126
1, 788486, Control_c, 0, 67, 123
1, 788512, Note_on_c, 0, 37, 69
1, 788512, Note_on_c, 0, 61, 66
1, 788516, Control_c, 0, 67, 120
1, 788519, Note_off_c, 0, 57, 42
1, 788522, Note_on_c, 0, 56, 53
1, 788531, Control_c, 0, 67, 114
1, 788545, Control_c, 0, 67, 106
1, 788560, Control_c, 0, 67, 98
1, 788575, Control_c, 0, 67, 91
1, 788590, Control_c, 0, 67, 85
1, 788600, Note_off_c, 0, 37, 59
1, 788605, Control_c, 0, 67, 79
1, 788619, Note_off_c, 0, 56, 61
1, 788619, Control_c, 0, 67, 73
1, 788634, Control_c, 0, 67, 68
1, 788644, Note_off_c, 0, 61, 59
1, 788649, Control_c, 0, 67, 62
1, 788664, Control_c, 0, 67, 57
1, 788665, Note_on_c, 0, 38, 82
1, 788679, Control_c, 0, 67, 52
1, 788693, Control_c, 0, 67, 48
1, 788708, Control_c, 0, 67, 44
1, 788723, Control_c, 0, 67, 41
1, 788737, Control_c, 0, 67, 39
1, 788752, Control_c, 0, 67, 37
1, 788767, Control_c, 0, 67, 35
1, 788782, Control_c, 0, 67, 35
1, 788849, Control_c, 0, 64, 113
1, 788864, Control_c, 0, 64, 105
1, 788878, Control_c, 0, 64, 100
1, 788893, Control_c, 0, 64, 93
1, 788908, Control_c, 0, 64, 82
1, 788909, Note_on_c, 0, 55, 86
1, 788922, Note_on_c, 0, 39, 74
1, 788923, Control_c, 0, 64, 71
1, 788937, Note_on_c, 0, 51, 59
1, 788938, Control_c, 0, 64, 61
1, 788952, Control_c, 0, 64, 43
1, 788967, Control_c, 0, 64, 0
1, 788972, Note_off_c, 0, 38, 62
1, 789072, Control_c, 0, 67, 34
1, 789102, Control_c, 0, 67, 34
1, 789142, Note_on_c, 0, 58, 72
1, 789193, Note_off_c, 0, 51, 62
1, 789205, Control_c, 0, 67, 34
1, 789220, Control_c, 0, 64, 51
1, 789220, Control_c, 0, 67, 35
1, 789235, Control_c, 0, 64, 66
1, 789250, Control_c, 0, 64, 67
1, 789250, Control_c, 0, 67, 35
1, 789264, Control_c, 0, 64, 70
1, 789271, Note_off_c, 0, 55, 62
1, 789279, Control_c, 0, 64, 72
1, 789279, Control_c, 0, 67, 36
1, 789288, Note_on_c, 0, 63, 67
1, 789294, Control_c, 0, 64, 75
1, 789306, Note_on_c, 0, 54, 80
1, 789309, Control_c, 0, 64, 79
1, 789324, Control_c, 0, 64, 83
1, 789328, Note_off_c, 0, 58, 64
1, 789339, Control_c, 0, 64, 85
1, 789354, Control_c, 0, 64, 86
1, 789383, Control_c, 0, 64, 86
1, 789402, Note_off_c, 0, 63, 63
1, 789428, Control_c, 0, 64, 87
1, 789451, Note_on_c, 0, 67, 80
1, 789457, Control_c, 0, 67, 36
1, 789472, Control_c, 0, 67, 37
1, 789501, Control_c, 0, 67, 37
1, 789516, Control_c, 0, 67, 38
1, 789539, Control_c, 0, 64, 87
1, 789554, Control_c, 0, 67, 38
1, 789568, Control_c, 0, 64, 88
1, 789568, Control_c, 0, 67, 39
1, 789573, Note_off_c, 0, 54, 60
1, 789583, Control_c, 0, 67, 39
1, 789598, Control_c, 0, 64, 87
1, 789613, Control_c, 0, 64, 87
1, 789625, Note_on_c, 0, 70, 82
1, 789628, Control_c, 0, 64, 83
1, 789628, Control_c, 0, 67, 40
1, 789634, Note_off_c, 0, 39, 61
1, 789642, Control_c, 0, 64, 78
1, 789655, Note_on_c, 0, 55, 61
1, 789657, Control_c, 0, 64, 75
1, 789686, Note_off_c, 0, 67, 39
1, 789701, Control_c, 0, 64, 76
1, 789716, Control_c, 0, 64, 78
1, 789731, Control_c, 0, 64, 78
1, 789746, Control_c, 0, 64, 79
1, 789762, Control_c, 0, 64, 79
1, 789771, Note_on_c, 0, 75, 78
1, 789776, Control_c, 0, 64, 81
1, 789790, Note_off_c, 0, 70, 66
1, 789791, Control_c, 0, 64, 82
1, 789791, Control_c, 0, 67, 40
1, 789806, Control_c, 0, 64, 83
1, 789822, Control_c, 0, 64, 83
1, 789822, Control_c, 0, 67, 41
1, 789837, Control_c, 0, 64, 84
1, 789837, Control_c, 0, 67, 42
1, 789852, Control_c, 0, 67, 42
1, 789866, Control_c, 0, 67, 43
1, 789873, Note_off_c, 0, 75, 63
1, 789881, Control_c, 0, 67, 44
1, 789896, Control_c, 0, 67, 44
1, 789911, Control_c, 0, 67, 45
1, 789925, Control_c, 0, 67, 45
1, 789938, Note_on_c, 0, 79, 81
1, 789940, Control_c, 0, 67, 46
1, 789951, Note_on_c, 0, 58, 59
1, 789955, Control_c, 0, 64, 83
1, 789955, Control_c, 0, 67, 46
1, 789983, Note_off_c, 0, 55, 35
1, 789985, Control_c, 0, 64, 83
1, 789985, Control_c, 0, 67, 47
1, 790014, Control_c, 0, 67, 48
1, 790029, Control_c, 0, 67, 48
1, 790044, Control_c, 0, 64, 82
1, 790044, Control_c, 0, 67, 49
1, 790059, Control_c, 0, 67, 50
1, 790073, Control_c, 0, 67, 51
1, 790088, Control_c, 0, 67, 54
1, 790098, Note_on_c, 0, 82, 82
1, 790103, Control_c, 0, 64, 82
1, 790103, Control_c, 0, 67, 58
1, 790117, Control_c, 0, 67, 63
1, 790132, Control_c, 0, 67, 67
1, 790147, Control_c, 0, 64, 81
1, 790147, Control_c, 0, 67, 70
1, 790162, Control_c, 0, 64, 81
1, 790162, Control_c, 0, 67, 73
1, 790177, Control_c, 0, 64, 80
1, 790177, Control_c, 0, 67, 75
1, 790192, Control_c, 0, 64, 80
1, 790192, Control_c, 0, 67, 77
1, 790198, Note_off_c, 0, 79, 38
1, 790206, Control_c, 0, 64, 79
1, 790206, Control_c, 0, 67, 78
1, 790221, Control_c, 0, 64, 79
1, 790221, Control_c, 0, 67, 79
1, 790236, Control_c, 0, 64, 78
1, 790236, Control_c, 0, 67, 80
1, 790251, Control_c, 0, 64, 77
1, 790251, Control_c, 0, 67, 80
1, 790265, Note_on_c, 0, 87, 75
1, 790266, Control_c, 0, 64, 76
1, 790266, Control_c, 0, 67, 81
1, 790281, Control_c, 0, 64, 75
1, 790281, Control_c, 0, 67, 83
1, 790296, Note_on_c, 0, 59, 36
1, 790303, Note_off_c, 0, 58, 37
1, 790303, Control_c, 0, 64, 72
1, 790303, Control_c, 0, 67, 84
1, 790317, Control_c, 0, 64, 67
1, 790317, Control_c, 0, 67, 85
1, 790332, Control_c, 0, 64, 60
1, 790347, Control_c, 0, 64, 52
1, 790347, Control_c, 0, 67, 85
1, 790348, Note_off_c, 0, 82, 60
1, 790362, Control_c, 0, 64, 46
1, 790377, Control_c, 0, 64, 45
1, 790391, Control_c, 0, 64, 48
1, 790406, Control_c, 0, 64, 52
1, 790421, Control_c, 0, 64, 53
1, 790436, Control_c, 0, 64, 55
1, 790438, Note_on_c, 0, 91, 73
1, 790451, Control_c, 0, 64, 59
1, 790455, Note_off_c, 0, 87, 64
1, 790466, Control_c, 0, 64, 62
1, 790481, Control_c, 0, 64, 64
1, 790496, Control_c, 0, 64, 65
1, 790510, Control_c, 0, 64, 66
1, 790525, Control_c, 0, 64, 68
1, 790540, Control_c, 0, 64, 72
1, 790549, Note_off_c, 0, 59, 54
1, 790555, Control_c, 0, 64, 75
1, 790570, Control_c, 0, 64, 78
1, 790581, Note_off_c, 0, 91, 60
1, 790585, Control_c, 0, 64, 80
1, 790585, Control_c, 0, 67, 85
1, 790599, Control_c, 0, 64, 82
1, 790605, Note_on_c, 0, 92, 73
1, 790615, Control_c, 0, 64, 84
1, 790617, Note_on_c, 0, 60, 46
1, 790630, Control_c, 0, 64, 86
1, 790645, Control_c, 0, 64, 88
1, 790645, Control_c, 0, 67, 84
1, 790645, Note_off_c, 0, 60, 60
1, 790660, Control_c, 0, 64, 90
1, 790674, Control_c, 0, 64, 91
1, 790689, Control_c, 0, 64, 91
1, 790704, Control_c, 0, 64, 92
1, 790719, Control_c, 0, 64, 92
1, 790783, Note_on_c, 0, 93, 65
1, 790804, Note_off_c, 0, 92, 58
1, 790822, Control_c, 0, 67, 85
1, 790837, Control_c, 0, 67, 85
1, 790852, Control_c, 0, 64, 92
1, 790867, Control_c, 0, 64, 91
1, 790882, Control_c, 0, 64, 89
1, 790896, Control_c, 0, 64, 85
1, 790906, Note_off_c, 0, 93, 64
1, 790911, Control_c, 0, 64, 79
1, 790926, Control_c, 0, 64, 70
1, 790940, Control_c, 0, 64, 56
1, 790955, Control_c, 0, 64, 0
1, 790985, Control_c, 0, 67, 86
1, 790997, Note_on_c, 0, 45, 46
1, 790999, Note_on_c, 0, 33, 46
1, 791000, Control_c, 0, 67, 86
1, 791082, Control_c, 0, 67, 86
1, 791096, Control_c, 0, 67, 85
1, 791106, Note_off_c, 0, 33, 64
1, 791111, Control_c, 0, 64, 65
1, 791119, Note_off_c, 0, 45, 63
1, 791126, Control_c, 0, 64, 78
1, 791126, Control_c, 0, 67, 85
1, 791140, Control_c, 0, 64, 91
1, 791140, Control_c, 0, 67, 84
1, 791155, Control_c, 0, 64, 110
1, 791170, Control_c, 0, 64, 127
1, 791185, Control_c, 0, 67, 85
1, 791229, Control_c, 0, 67, 85
1, 791259, Control_c, 0, 67, 86
1, 791274, Control_c, 0, 67, 87
1, 791288, Control_c, 0, 67, 87
1, 791390, Note_on_c, 0, 93, 78
1, 791393, Control_c, 0, 67, 87
1, 791399, Note_on_c, 0, 89, 66
1, 791400, Note_on_c, 0, 77, 59
1, 791401, Note_on_c, 0, 81, 59
1, 791408, Control_c, 0, 67, 86
1, 791436, Note_off_c, 0, 89, 58
1, 791457, Note_off_c, 0, 77, 53
1, 791458, Note_off_c, 0, 81, 47
1, 791478, Note_off_c, 0, 93, 62
1, 791497, Control_c, 0, 67, 86
1, 791512, Control_c, 0, 67, 85
1, 791601, Control_c, 0, 67, 86
1, 791631, Control_c, 0, 67, 86
1, 791754, Note_on_c, 0, 93, 76
1, 791758, Note_on_c, 0, 81, 54
1, 791763, Note_on_c, 0, 84, 66
1, 791765, Note_on_c, 0, 72, 53
1, 791818, Note_off_c, 0, 72, 61
1, 791822, Note_off_c, 0, 81, 51
1, 791825, Note_off_c, 0, 84, 56
1, 791825, Note_off_c, 0, 93, 64
1, 791904, Control_c, 0, 67, 86
1, 791919, Control_c, 0, 67, 85
1, 792125, Note_on_c, 0, 93, 72
1, 792139, Note_on_c, 0, 84, 65
1, 792142, Note_on_c, 0, 69, 54
1, 792147, Note_on_c, 0, 60, 47
1, 792194, Note_off_c, 0, 93, 57
1, 792204, Note_off_c, 0, 69, 46
1, 792241, Note_off_c, 0, 60, 37
1, 792247, Note_off_c, 0, 84, 33
1, 792484, Note_on_c, 0, 88, 73
1, 792493, Note_on_c, 0, 64, 44
1, 792497, Note_on_c, 0, 60, 47
1, 792497, Note_on_c, 0, 84, 59
1, 792527, Note_off_c, 0, 64, 59
1, 792542, Note_off_c, 0, 84, 60
1, 792557, Note_off_c, 0, 60, 61
1, 792588, Note_off_c, 0, 88, 61
1, 792684, Control_c, 0, 67, 86
1, 792698, Control_c, 0, 67, 86
1, 792800, Control_c, 0, 64, 105
1, 792815, Control_c, 0, 64, 87
1, 792830, Control_c, 0, 64, 78
1, 792836, Note_on_c, 0, 88, 68
1, 792845, Control_c, 0, 64, 75
1, 792858, Note_on_c, 0, 45, 53
1, 792859, Note_on_c, 0, 84, 52
1, 792859, Control_c, 0, 64, 75
1, 792859, Control_c, 0, 67, 86
1, 792862, Note_on_c, 0, 33, 50
1, 792874, Control_c, 0, 64, 76
1, 792889, Control_c, 0, 64, 79
1, 792897, Note_off_c, 0, 84, 59
1, 792904, Control_c, 0, 64, 82
1, 792908, Note_off_c, 0, 45, 60
1, 792918, Note_off_c, 0, 33, 63
1, 792919, Control_c, 0, 64, 86
1, 792934, Control_c, 0, 64, 89
1, 792949, Control_c, 0, 64, 92
1, 792964, Control_c, 0, 64, 93
1, 792979, Control_c, 0, 64, 94
1, 792991, Note_off_c, 0, 88, 41
1, 793053, Control_c, 0, 64, 94
1, 793113, Control_c, 0, 64, 93
1, 793128, Control_c, 0, 64, 87
1, 793142, Control_c, 0, 64, 76
1, 793157, Control_c, 0, 64, 65
1, 793172, Control_c, 0, 64, 58
1, 793201, Control_c, 0, 64, 61
1, 793205, Note_on_c, 0, 88, 75
1, 793216, Control_c, 0, 64, 65
1, 793217, Note_on_c, 0, 79, 63
1, 793218, Note_on_c, 0, 45, 54
1, 793223, Note_on_c, 0, 33, 44
1, 793231, Control_c, 0, 64, 70
1, 793246, Control_c, 0, 64, 74
1, 793250, Note_off_c, 0, 45, 65
1, 793251, Note_off_c, 0, 33, 54
1, 793260, Control_c, 0, 64, 77
1, 793260, Control_c, 0, 67, 85
1, 793262, Note_off_c, 0, 79, 61
1, 793265, Note_off_c, 0, 88, 65
1, 793283, Control_c, 0, 64, 81
1, 793283, Control_c, 0, 67, 85
1, 793298, Control_c, 0, 64, 84
1, 793298, Control_c, 0, 67, 84
1, 793313, Control_c, 0, 64, 87
1, 793327, Control_c, 0, 64, 91
1, 793342, Control_c, 0, 64, 94
1, 793342, Control_c, 0, 67, 85
1, 793357, Control_c, 0, 64, 98
1, 793357, Control_c, 0, 67, 85
1, 793372, Control_c, 0, 64, 101
1, 793387, Control_c, 0, 64, 104
1, 793387, Control_c, 0, 67, 86
1, 793402, Control_c, 0, 64, 107
1, 793416, Control_c, 0, 64, 109
1, 793446, Control_c, 0, 64, 111
1, 793475, Control_c, 0, 64, 114
1, 793490, Control_c, 0, 64, 117
1, 793505, Control_c, 0, 64, 121
1, 793520, Control_c, 0, 64, 126
1, 793575, Note_on_c, 0, 88, 74
1, 793578, Note_on_c, 0, 76, 62
1, 793579, Control_c, 0, 67, 86
1, 793588, Note_on_c, 0, 79, 64
1, 793590, Note_on_c, 0, 67, 57
1, 793623, Control_c, 0, 67, 85
1, 793651, Note_off_c, 0, 67, 56
1, 793658, Note_off_c, 0, 79, 57
1, 793673, Note_off_c, 0, 76, 40
1, 793676, Note_off_c, 0, 88, 50
1, 793933, Note_on_c, 0, 83, 71
1, 793939, Note_on_c, 0, 71, 58
1, 793940, Note_on_c, 0, 67, 50
1, 793941, Note_on_c, 0, 79, 61
1, 793969, Note_off_c, 0, 71, 67
1, 793979, Note_off_c, 0, 67, 64
1, 793998, Note_off_c, 0, 79, 61
1, 794000, Note_off_c, 0, 83, 61
1, 794120, Control_c, 0, 67, 86
1, 794305, Note_on_c, 0, 83, 69
1, 794306, Note_on_c, 0, 55, 50
1, 794317, Note_on_c, 0, 79, 64
1, 794349, Note_off_c, 0, 79, 65
1, 794371, Note_off_c, 0, 83, 59
1, 794463, Note_on_c, 0, 50, 45
1, 794505, Note_off_c, 0, 55, 26
1, 794579, Control_c, 0, 64, 122
1, 794610, Control_c, 0, 64, 118
1, 794640, Control_c, 0, 64, 116
1, 794640, Control_c, 0, 67, 86
1, 794658, Note_on_c, 0, 83, 72
1, 794677, Note_on_c, 0, 74, 55
1, 794678, Note_on_c, 0, 62, 50
1, 794699, Control_c, 0, 64, 114
1, 794713, Note_off_c, 0, 62, 64
1, 794728, Note_off_c, 0, 74, 54
1, 794728, Control_c, 0, 64, 112
1, 794741, Note_off_c, 0, 83, 59
1, 794763, Note_off_c, 0, 50, 40
1, 794773, Control_c, 0, 64, 110
1, 794840, Control_c, 0, 67, 87
1, 794869, Control_c, 0, 67, 87
1, 794884, Control_c, 0, 64, 108
1, 794943, Control_c, 0, 64, 105
1, 794958, Control_c, 0, 64, 100
1, 794973, Control_c, 0, 64, 92
1, 794988, Control_c, 0, 64, 79
1, 795003, Control_c, 0, 64, 67
1, 795018, Control_c, 0, 64, 53
1, 795032, Control_c, 0, 64, 33
1, 795035, Note_on_c, 0, 83, 63
1, 795039, Note_on_c, 0, 45, 48
1, 795044, Note_on_c, 0, 74, 52
1, 795047, Control_c, 0, 64, 0
1, 795053, Note_on_c, 0, 33, 52
1, 795062, Control_c, 0, 67, 87
1, 795077, Control_c, 0, 64, 44
1, 795092, Control_c, 0, 64, 57
1, 795106, Control_c, 0, 64, 64
1, 795121, Control_c, 0, 64, 68
1, 795136, Control_c, 0, 64, 71
1, 795139, Note_off_c, 0, 33, 50
1, 795140, Note_off_c, 0, 45, 52
1, 795151, Control_c, 0, 64, 73
1, 795153, Note_off_c, 0, 74, 60
1, 795166, Control_c, 0, 64, 75
1, 795177, Note_off_c, 0, 83, 49
1, 795180, Control_c, 0, 64, 77
1, 795195, Control_c, 0, 64, 78
1, 795210, Control_c, 0, 64, 80
1, 795224, Control_c, 0, 64, 82
1, 795239, Control_c, 0, 64, 83
1, 795254, Control_c, 0, 64, 84
1, 795269, Control_c, 0, 64, 85
1, 795284, Control_c, 0, 64, 85
1, 795328, Control_c, 0, 64, 84
1, 795343, Control_c, 0, 64, 81
1, 795358, Control_c, 0, 64, 74
1, 795373, Control_c, 0, 64, 65
1, 795387, Control_c, 0, 64, 62
1, 795392, Note_on_c, 0, 78, 60
1, 795399, Note_on_c, 0, 45, 51
1, 795399, Note_on_c, 0, 74, 53
1, 795403, Control_c, 0, 64, 63
1, 795405, Note_on_c, 0, 33, 49
1, 795418, Control_c, 0, 64, 65
1, 795433, Control_c, 0, 64, 69
1, 795441, Note_off_c, 0, 45, 62
1, 795442, Note_off_c, 0, 33, 64
1, 795448, Control_c, 0, 64, 72
1, 795448, Control_c, 0, 67, 86
1, 795462, Control_c, 0, 64, 75
1, 795462, Control_c, 0, 67, 86
1, 795477, Control_c, 0, 64, 78
1, 795477, Control_c, 0, 67, 85
1, 795489, Note_off_c, 0, 74, 60
1, 795492, Note_off_c, 0, 78, 62
1, 795492, Control_c, 0, 64, 81
1, 795507, Control_c, 0, 64, 84
1, 795522, Control_c, 0, 64, 87
1, 795544, Control_c, 0, 64, 89
1, 795559, Control_c, 0, 64, 91
1, 795574, Control_c, 0, 64, 92
1, 795589, Control_c, 0, 64, 93
1, 795618, Control_c, 0, 64, 93
1, 795633, Control_c, 0, 67, 86
1, 795707, Control_c, 0, 64, 94
1, 795768, Note_on_c, 0, 78, 62
1, 795779, Note_on_c, 0, 66, 49
1, 795788, Note_on_c, 0, 62, 47
1, 795791, Note_on_c, 0, 74, 47
1, 795796, Control_c, 0, 67, 85
1, 795843, Note_off_c, 0, 74, 62
1, 795847, Note_off_c, 0, 66, 34
1, 795867, Note_off_c, 0, 62, 46
1, 795872, Note_off_c, 0, 78, 61
1, 796141, Note_on_c, 0, 78, 62
1, 796146, Note_on_c, 0, 69, 51
1, 796150, Note_on_c, 0, 57, 53
1, 796150, Note_on_c, 0, 66, 51
1, 796209, Note_off_c, 0, 66, 56
1, 796213, Note_off_c, 0, 57, 61
1, 796237, Note_off_c, 0, 78, 51
1, 796295, Note_off_c, 0, 69, 31
1, 796503, Note_on_c, 0, 78, 61
1, 796523, Note_on_c, 0, 69, 50
1, 796595, Note_off_c, 0, 69, 55
1, 796646, Note_off_c, 0, 78, 40
1, 796797, Control_c, 0, 64, 91
1, 796811, Control_c, 0, 64, 79
1, 796826, Control_c, 0, 64, 66
1, 796841, Control_c, 0, 64, 51
1, 796856, Control_c, 0, 64, 36
1, 796867, Note_on_c, 0, 73, 55
1, 796870, Note_on_c, 0, 69, 48
1, 796871, Control_c, 0, 64, 36
1, 796885, Note_on_c, 0, 45, 39
1, 796885, Control_c, 0, 64, 45
1, 796885, Control_c, 0, 67, 84
1, 796893, Note_on_c, 0, 33, 42
1, 796900, Control_c, 0, 64, 58
1, 796900, Control_c, 0, 67, 84
1, 796915, Control_c, 0, 64, 65
1, 796915, Control_c, 0, 67, 82
1, 796919, Note_off_c, 0, 69, 61
1, 796930, Control_c, 0, 64, 71
1, 796930, Control_c, 0, 67, 81
1, 796945, Control_c, 0, 64, 78
1, 796945, Control_c, 0, 67, 80
1, 796957, Note_off_c, 0, 45, 62
1, 796959, Control_c, 0, 64, 86
1, 796959, Control_c, 0, 67, 78
1, 796963, Note_off_c, 0, 33, 62
1, 796974, Control_c, 0, 64, 94
1, 796974, Control_c, 0, 67, 77
1, 796989, Control_c, 0, 64, 104
1, 796989, Control_c, 0, 67, 75
1, 797005, Control_c, 0, 64, 118
1, 797005, Control_c, 0, 67, 74
1, 797027, Control_c, 0, 64, 127
1, 797027, Control_c, 0, 67, 73
1, 797042, Control_c, 0, 67, 71
1, 797056, Note_off_c, 0, 73, 37
1, 797057, Control_c, 0, 67, 70
1, 797071, Control_c, 0, 67, 69
1, 797086, Control_c, 0, 67, 67
1, 797101, Control_c, 0, 67, 62
1, 797116, Control_c, 0, 67, 54
1, 797131, Control_c, 0, 67, 48
1, 797146, Control_c, 0, 67, 41
1, 797152, Note_on_c, 0, 73, 68
1, 797161, Control_c, 0, 67, 34
1, 797168, Note_on_c, 0, 61, 51
1, 797169, Note_on_c, 0, 68, 57
1, 797175, Control_c, 0, 67, 27
1, 797190, Control_c, 0, 67, 19
1, 797205, Control_c, 0, 67, 0
1, 797216, Note_off_c, 0, 61, 60
1, 797223, Note_off_c, 0, 73, 62
1, 797226, Note_on_c, 0, 56, 80
1, 797239, Note_off_c, 0, 68, 61
1, 797388, Note_off_c, 0, 56, 62
1, 797623, Note_on_c, 0, 55, 90
1, 797647, Note_on_c, 0, 39, 64
1, 797647, Note_on_c, 0, 51, 54
1, 797650, Control_c, 0, 64, 116
1, 797665, Control_c, 0, 64, 95
1, 797680, Control_c, 0, 64, 80
1, 797694, Control_c, 0, 64, 66
1, 797709, Control_c, 0, 64, 46
1, 797724, Control_c, 0, 64, 0
1, 797859, Note_on_c, 0, 58, 73
1, 797906, Note_off_c, 0, 51, 62
1, 797910, Control_c, 0, 64, 54
1, 797924, Control_c, 0, 64, 67
1, 797939, Control_c, 0, 64, 69
1, 797954, Control_c, 0, 64, 71
1, 797969, Control_c, 0, 64, 72
1, 797984, Control_c, 0, 64, 75
1, 797998, Control_c, 0, 64, 79
1, 798007, Note_off_c, 0, 55, 61
1, 798011, Note_on_c, 0, 54, 77
1, 798013, Control_c, 0, 64, 85
1, 798016, Note_on_c, 0, 63, 73
1, 798028, Control_c, 0, 64, 91
1, 798043, Control_c, 0, 64, 98
1, 798058, Control_c, 0, 64, 104
1, 798059, Note_off_c, 0, 58, 65
1, 798073, Control_c, 0, 64, 110
1, 798088, Control_c, 0, 64, 117
1, 798103, Control_c, 0, 64, 127
1, 798131, Note_off_c, 0, 63, 64
1, 798186, Note_on_c, 0, 67, 77
1, 798270, Note_off_c, 0, 54, 56
1, 798280, Control_c, 0, 64, 92
1, 798295, Control_c, 0, 64, 72
1, 798310, Control_c, 0, 64, 59
1, 798324, Control_c, 0, 64, 51
1, 798339, Control_c, 0, 64, 55
1, 798347, Note_on_c, 0, 55, 63
1, 798347, Note_on_c, 0, 70, 75
1, 798354, Control_c, 0, 64, 62
1, 798369, Control_c, 0, 64, 69
1, 798383, Control_c, 0, 64, 76
1, 798384, Note_off_c, 0, 39, 62
1, 798398, Control_c, 0, 64, 81
1, 798413, Control_c, 0, 64, 85
1, 798428, Control_c, 0, 64, 87
1, 798437, Note_off_c, 0, 67, 53
1, 798443, Control_c, 0, 64, 90
1, 798458, Control_c, 0, 64, 92
1, 798472, Control_c, 0, 64, 95
1, 798487, Control_c, 0, 64, 98
1, 798502, Control_c, 0, 64, 101
1, 798514, Note_on_c, 0, 75, 71
1, 798517, Control_c, 0, 64, 103
1, 798545, Note_off_c, 0, 70, 65
1, 798554, Control_c, 0, 64, 105
1, 798630, Note_off_c, 0, 75, 62
1, 798691, Note_on_c, 0, 58, 47
1, 798693, Note_on_c, 0, 79, 77
1, 798720, Note_off_c, 0, 55, 44
1, 798867, Note_on_c, 0, 82, 63
1, 798998, Control_c, 0, 64, 103
1, 799012, Note_off_c, 0, 58, 45
1, 799013, Control_c, 0, 64, 101
1, 799028, Control_c, 0, 64, 98
1, 799028, Control_c, 0, 67, 20
1, 799035, Note_off_c, 0, 79, 23
1, 799043, Control_c, 0, 64, 96
1, 799051, Note_on_c, 0, 87, 62
1, 799055, Note_on_c, 0, 59, 38
1, 799058, Control_c, 0, 64, 90
1, 799058, Control_c, 0, 67, 22
1, 799072, Control_c, 0, 64, 84
1, 799087, Control_c, 0, 64, 74
1, 799087, Control_c, 0, 67, 25
1, 799102, Control_c, 0, 64, 63
1, 799112, Note_off_c, 0, 82, 58
1, 799117, Control_c, 0, 64, 47
1, 799117, Control_c, 0, 67, 27
1, 799132, Control_c, 0, 64, 0
1, 799191, Control_c, 0, 67, 29
1, 799221, Control_c, 0, 64, 43
1, 799229, Note_on_c, 0, 91, 73
1, 799230, Note_off_c, 0, 87, 64
1, 799236, Control_c, 0, 64, 51
1, 799250, Control_c, 0, 67, 33
1, 799265, Control_c, 0, 64, 49
1, 799265, Control_c, 0, 67, 35
1, 799287, Control_c, 0, 64, 48
1, 799287, Control_c, 0, 67, 35
1, 799302, Control_c, 0, 64, 52
1, 799317, Control_c, 0, 64, 59
1, 799332, Control_c, 0, 64, 64
1, 799347, Control_c, 0, 64, 67
1, 799361, Control_c, 0, 64, 70
1, 799376, Control_c, 0, 64, 72
1, 799391, Control_c, 0, 64, 74
1, 799396, Note_off_c, 0, 59, 49
1, 799407, Control_c, 0, 64, 78
1, 799422, Control_c, 0, 64, 81
1, 799436, Control_c, 0, 64, 83
1, 799438, Note_on_c, 0, 60, 52
1, 799439, Note_on_c, 0, 92, 77
1, 799445, Note_off_c, 0, 91, 57
1, 799451, Control_c, 0, 64, 84
1, 799466, Control_c, 0, 64, 85
1, 799473, Note_off_c, 0, 60, 66
1, 799481, Control_c, 0, 64, 86
1, 799497, Control_c, 0, 64, 87
1, 799511, Control_c, 0, 64, 88
1, 799526, Control_c, 0, 64, 89
1, 799541, Control_c, 0, 64, 90
1, 799556, Control_c, 0, 67, 36
1, 799571, Control_c, 0, 64, 90
1, 799571, Control_c, 0, 67, 37
1, 799585, Control_c, 0, 64, 91
1, 799585, Control_c, 0, 67, 37
1, 799600, Control_c, 0, 67, 40
1, 799615, Control_c, 0, 67, 46
1, 799629, Control_c, 0, 67, 53
1, 799644, Control_c, 0, 67, 62
1, 799659, Control_c, 0, 67, 72
1, 799674, Control_c, 0, 67, 80
1, 799689, Control_c, 0, 67, 87
1, 799704, Control_c, 0, 67, 93
1, 799718, Control_c, 0, 67, 98
1, 799733, Control_c, 0, 67, 103
1, 799743, Note_off_c, 0, 92, 59
1, 799748, Control_c, 0, 64, 89
1, 799748, Control_c, 0, 67, 106
1, 799763, Control_c, 0, 64, 85
1, 799763, Control_c, 0, 67, 108
1, 799778, Control_c, 0, 64, 78
1, 799793, Control_c, 0, 64, 68
1, 799793, Control_c, 0, 67, 110
1, 799808, Control_c, 0, 64, 54
1, 799822, Control_c, 0, 64, 0
1, 799822, Control_c, 0, 67, 112
1, 799862, Note_on_c, 0, 32, 55
1, 799867, Control_c, 0, 67, 114
1, 799868, Note_on_c, 0, 44, 50
1, 799985, Control_c, 0, 64, 46
1, 800000, Control_c, 0, 64, 63
1, 800005, Note_off_c, 0, 32, 62
1, 800015, Control_c, 0, 64, 68
1, 800031, Note_off_c, 0, 44, 64
1, 800037, Control_c, 0, 64, 75
1, 800052, Control_c, 0, 64, 85
1, 800067, Control_c, 0, 64, 113
1, 800082, Control_c, 0, 64, 127
1, 800350, Note_on_c, 0, 92, 78
1, 800359, Note_on_c, 0, 80, 55
1, 800364, Note_on_c, 0, 88, 56
1, 800404, Note_off_c, 0, 88, 58
1, 800445, Note_off_c, 0, 92, 64
1, 800562, Note_off_c, 0, 80, 54
1, 800588, Note_on_c, 0, 76, 48
1, 800738, Note_off_c, 0, 76, 42
1, 800771, Note_on_c, 0, 92, 74
1, 800785, Note_on_c, 0, 83, 52
1, 800792, Note_on_c, 0, 80, 42
1, 800856, Note_off_c, 0, 92, 57
1, 800902, Note_off_c, 0, 83, 43
1, 800935, Note_off_c, 0, 80, 44
1, 800960, Note_on_c, 0, 71, 55
1, 800991, Note_off_c, 0, 71, 66
1, 801141, Note_on_c, 0, 92, 75
1, 801155, Note_on_c, 0, 83, 56
1, 801168, Note_on_c, 0, 68, 45
1, 801203, Note_off_c, 0, 83, 48
1, 801236, Note_off_c, 0, 92, 58
1, 801332, Note_on_c, 0, 59, 42
1, 801450, Note_off_c, 0, 59, 48
1, 801513, Note_on_c, 0, 87, 72
1, 801541, Note_on_c, 0, 83, 54
1, 801555, Note_on_c, 0, 63, 42
1, 801561, Note_off_c, 0, 68, 37
1, 801680, Note_off_c, 0, 87, 51
1, 801683, Note_off_c, 0, 83, 36
1, 801719, Note_off_c, 0, 63, 57
1, 801726, Note_on_c, 0, 59, 38
1, 801754, Note_off_c, 0, 59, 61
1, 801898, Note_on_c, 0, 87, 68
1, 801922, Note_on_c, 0, 83, 53
1, 801923, Note_on_c, 0, 56, 47
1, 802052, Note_off_c, 0, 87, 56
1, 802084, Note_off_c, 0, 56, 35
1, 802085, Note_off_c, 0, 83, 42
1, 802092, Note_on_c, 0, 44, 51
1, 802128, Note_off_c, 0, 44, 63
1, 802301, Note_on_c, 0, 87, 69
1, 802310, Note_on_c, 0, 78, 52
1, 802313, Control_c, 0, 64, 91
1, 802318, Note_on_c, 0, 32, 52
1, 802328, Control_c, 0, 64, 74
1, 802343, Control_c, 0, 64, 65
1, 802357, Control_c, 0, 64, 61
1, 802372, Control_c, 0, 64, 64
1, 802387, Control_c, 0, 64, 67
1, 802402, Control_c, 0, 64, 73
1, 802417, Control_c, 0, 64, 79
1, 802423, Note_off_c, 0, 78, 62
1, 802431, Control_c, 0, 64, 86
1, 802439, Note_off_c, 0, 87, 59
1, 802446, Control_c, 0, 64, 92
1, 802461, Control_c, 0, 64, 98
1, 802477, Control_c, 0, 64, 103
1, 802491, Note_on_c, 0, 44, 60
1, 802492, Control_c, 0, 64, 109
1, 802506, Control_c, 0, 64, 116
1, 802515, Note_off_c, 0, 32, 59
1, 802521, Note_off_c, 0, 44, 65
1, 802521, Control_c, 0, 64, 127
1, 802686, Note_on_c, 0, 87, 70
1, 802698, Note_on_c, 0, 75, 54
1, 802702, Note_on_c, 0, 78, 54
1, 802808, Note_off_c, 0, 78, 60
1, 802827, Note_off_c, 0, 75, 55
1, 802878, Note_on_c, 0, 66, 63
1, 803036, Note_off_c, 0, 66, 51
1, 803052, Note_off_c, 0, 87, 15
1, 803072, Note_on_c, 0, 82, 72
1, 803095, Note_on_c, 0, 78, 50
1, 803099, Note_on_c, 0, 70, 40
1, 803170, Note_off_c, 0, 78, 62
1, 803196, Note_off_c, 0, 82, 62
1, 803221, Note_off_c, 0, 70, 43
1, 803257, Note_on_c, 0, 66, 51
1, 803276, Note_off_c, 0, 66, 63
1, 803448, Note_on_c, 0, 82, 71
1, 803460, Note_on_c, 0, 78, 59
1, 803474, Note_on_c, 0, 58, 45
1, 803532, Note_off_c, 0, 78, 60
1, 803560, Note_off_c, 0, 82, 62
1, 803614, Note_off_c, 0, 58, 52
1, 803635, Note_on_c, 0, 54, 46
1, 803782, Note_off_c, 0, 54, 54
1, 803826, Note_on_c, 0, 82, 70
1, 803848, Note_on_c, 0, 73, 44
1, 803856, Note_on_c, 0, 58, 45
1, 803932, Note_off_c, 0, 73, 60
1, 803934, Note_off_c, 0, 82, 60
1, 804029, Note_on_c, 0, 49, 45
1, 804032, Note_off_c, 0, 58, 43
1, 804061, Note_off_c, 0, 49, 57
1, 804212, Control_c, 0, 64, 109
1, 804219, Note_on_c, 0, 82, 66
1, 804226, Control_c, 0, 64, 90
1, 804235, Note_on_c, 0, 32, 46
1, 804241, Control_c, 0, 64, 73
1, 804249, Note_on_c, 0, 73, 32
1, 804256, Control_c, 0, 64, 55
1, 804271, Control_c, 0, 64, 31
1, 804286, Control_c, 0, 64, 0
1, 804300, Control_c, 0, 64, 32
1, 804315, Control_c, 0, 64, 48
1, 804330, Control_c, 0, 64, 60
1, 804345, Control_c, 0, 64, 66
1, 804360, Control_c, 0, 64, 70
1, 804375, Control_c, 0, 64, 74
1, 804390, Control_c, 0, 64, 77
1, 804393, Note_off_c, 0, 73, 36
1, 804394, Note_on_c, 0, 44, 57
1, 804396, Note_off_c, 0, 32, 54
1, 804404, Control_c, 0, 64, 79
1, 804419, Control_c, 0, 64, 82
1, 804434, Control_c, 0, 64, 85
1, 804435, Note_off_c, 0, 44, 63
1, 804449, Control_c, 0, 64, 88
1, 804450, Note_off_c, 0, 82, 47
1, 804464, Control_c, 0, 64, 89
1, 804493, Control_c, 0, 64, 90
1, 804559, Control_c, 0, 64, 89
1, 804574, Control_c, 0, 64, 88
1, 804589, Control_c, 0, 64, 86
1, 804602, Note_on_c, 0, 77, 64
1, 804604, Control_c, 0, 64, 83
1, 804619, Note_on_c, 0, 73, 54
1, 804619, Control_c, 0, 64, 81
1, 804628, Note_on_c, 0, 53, 40
1, 804634, Control_c, 0, 64, 80
1, 804664, Control_c, 0, 64, 81
1, 804679, Control_c, 0, 64, 82
1, 804693, Control_c, 0, 64, 82
1, 804696, Note_off_c, 0, 73, 56
1, 804708, Control_c, 0, 64, 83
1, 804713, Note_off_c, 0, 77, 63
1, 804723, Control_c, 0, 64, 83
1, 804738, Control_c, 0, 64, 84
1, 804753, Control_c, 0, 64, 84
1, 804768, Control_c, 0, 64, 85
1, 804768, Note_off_c, 0, 53, 42
1, 804781, Note_on_c, 0, 44, 53
1, 804783, Control_c, 0, 64, 85
1, 804798, Control_c, 0, 64, 86
1, 804818, Note_off_c, 0, 44, 64
1, 804827, Control_c, 0, 64, 86
1, 804931, Control_c, 0, 64, 86
1, 804945, Control_c, 0, 64, 85
1, 804960, Control_c, 0, 64, 84
1, 804975, Control_c, 0, 64, 81
1, 804990, Note_on_c, 0, 77, 64
1, 804991, Control_c, 0, 64, 77
1, 805004, Note_on_c, 0, 73, 57
1, 805005, Note_on_c, 0, 65, 56
1, 805006, Control_c, 0, 64, 72
1, 805021, Control_c, 0, 64, 67
1, 805036, Control_c, 0, 64, 63
1, 805050, Control_c, 0, 64, 63
1, 805065, Control_c, 0, 64, 64
1, 805080, Control_c, 0, 64, 66
1, 805095, Control_c, 0, 64, 69
1, 805110, Control_c, 0, 64, 71
1, 805124, Control_c, 0, 64, 73
1, 805139, Control_c, 0, 64, 75
1, 805154, Control_c, 0, 64, 77
1, 805168, Control_c, 0, 64, 78
1, 805172, Note_off_c, 0, 73, 60
1, 805174, Note_off_c, 0, 77, 61
1, 805183, Control_c, 0, 64, 80
1, 805188, Note_on_c, 0, 61, 51
1, 805189, Note_off_c, 0, 65, 53
1, 805198, Control_c, 0, 64, 82
1, 805213, Control_c, 0, 64, 83
1, 805228, Control_c, 0, 64, 83
1, 805257, Control_c, 0, 64, 84
1, 805324, Control_c, 0, 64, 84
1, 805356, Note_off_c, 0, 61, 37
1, 805387, Note_on_c, 0, 77, 65
1, 805406, Note_on_c, 0, 65, 33
1, 805410, Note_on_c, 0, 68, 48
1, 805472, Control_c, 0, 64, 85
1, 805501, Control_c, 0, 64, 85
1, 805509, Note_off_c, 0, 68, 57
1, 805519, Note_off_c, 0, 77, 60
1, 805572, Note_on_c, 0, 56, 50
1, 805589, Note_off_c, 0, 65, 38
1, 805641, Note_off_c, 0, 56, 54
1, 805767, Note_on_c, 0, 77, 62
1, 805783, Note_on_c, 0, 68, 51
1, 805897, Note_off_c, 0, 77, 57
1, 805902, Note_off_c, 0, 68, 34
1, 806059, Control_c, 0, 64, 85
1, 806073, Control_c, 0, 64, 84
1, 806103, Control_c, 0, 64, 83
1, 806117, Control_c, 0, 64, 83
1, 806132, Control_c, 0, 64, 81
1, 806147, Control_c, 0, 64, 79
1, 806162, Control_c, 0, 64, 74
1, 806177, Control_c, 0, 64, 67
1, 806187, Note_on_c, 0, 72, 56
1, 806191, Control_c, 0, 64, 58
1, 806193, Note_on_c, 0, 68, 47
1, 806199, Note_on_c, 0, 44, 43
1, 806206, Control_c, 0, 64, 46
1, 806212, Note_on_c, 0, 32, 37
1, 806221, Control_c, 0, 64, 41
1, 806236, Control_c, 0, 64, 46
1, 806251, Control_c, 0, 64, 55
1, 806265, Control_c, 0, 64, 62
1, 806280, Control_c, 0, 64, 67
1, 806292, Note_off_c, 0, 72, 64
1, 806295, Control_c, 0, 64, 72
1, 806296, Note_off_c, 0, 68, 63
1, 806310, Control_c, 0, 64, 77
1, 806324, Control_c, 0, 64, 81
1, 806339, Control_c, 0, 64, 83
1, 806354, Control_c, 0, 64, 84
1, 806369, Control_c, 0, 64, 84
1, 806384, Control_c, 0, 64, 85
1, 806517, Control_c, 0, 64, 84
1, 806547, Control_c, 0, 64, 84
1, 806562, Control_c, 0, 64, 83
1, 806577, Control_c, 0, 64, 82
1, 806592, Control_c, 0, 64, 81
1, 806607, Control_c, 0, 64, 80
1, 806622, Control_c, 0, 64, 79
1, 806625, Note_on_c, 0, 60, 66
1, 806637, Control_c, 0, 64, 77
1, 806651, Note_on_c, 0, 56, 48
1, 806652, Control_c, 0, 64, 75
1, 806667, Control_c, 0, 64, 71
1, 806682, Control_c, 0, 64, 65
1, 806696, Control_c, 0, 64, 57
1, 806711, Control_c, 0, 64, 45
1, 806726, Control_c, 0, 64, 36
1, 806740, Control_c, 0, 64, 37
1, 806755, Control_c, 0, 64, 46
1, 806769, Note_off_c, 0, 44, 53
1, 806777, Control_c, 0, 64, 56
1, 806792, Control_c, 0, 64, 63
1, 806807, Control_c, 0, 64, 67
1, 806822, Control_c, 0, 64, 72
1, 806837, Control_c, 0, 64, 76
1, 806852, Control_c, 0, 64, 81
1, 806867, Control_c, 0, 64, 84
1, 806882, Control_c, 0, 64, 88
1, 806896, Control_c, 0, 64, 90
1, 806896, Control_c, 0, 67, 112
1, 806911, Control_c, 0, 64, 91
1, 806918, Note_off_c, 0, 60, 47
1, 806959, Note_off_c, 0, 32, 32
1, 807028, Control_c, 0, 64, 90
1, 807043, Control_c, 0, 64, 90
1, 807057, Control_c, 0, 64, 88
1, 807072, Control_c, 0, 64, 86
1, 807086, Note_on_c, 0, 60, 64
1, 807087, Control_c, 0, 64, 84
1, 807098, Note_on_c, 0, 46, 43
1, 807100, Note_on_c, 0, 54, 53
1, 807102, Control_c, 0, 64, 81
1, 807111, Note_on_c, 0, 34, 34
1, 807117, Control_c, 0, 64, 78
1, 807132, Control_c, 0, 64, 74
1, 807146, Control_c, 0, 64, 69
1, 807161, Control_c, 0, 64, 64
1, 807176, Note_off_c, 0, 56, 52
1, 807176, Control_c, 0, 64, 57
1, 807180, Note_off_c, 0, 46, 0
1, 807180, Note_on_c, 0, 46, 3
1, 807191, Control_c, 0, 64, 49
1, 807206, Control_c, 0, 64, 36
1, 807220, Control_c, 0, 64, 0
1, 807525, Control_c, 0, 64, 42
1, 807540, Control_c, 0, 64, 57
1, 807555, Control_c, 0, 64, 64
1, 807569, Control_c, 0, 64, 68
1, 807584, Control_c, 0, 64, 70
1, 807599, Control_c, 0, 64, 71
1, 807614, Control_c, 0, 64, 72
1, 807620, Note_off_c, 0, 60, 58
1, 807629, Control_c, 0, 64, 74
1, 807643, Control_c, 0, 64, 76
1, 807658, Control_c, 0, 64, 77
1, 807673, Control_c, 0, 64, 79
1, 807687, Control_c, 0, 64, 79
1, 807702, Control_c, 0, 64, 80
1, 807733, Control_c, 0, 64, 80
1, 807866, Control_c, 0, 64, 80
1, 807881, Control_c, 0, 64, 79
1, 807895, Note_off_c, 0, 54, 22
1, 807895, Control_c, 0, 64, 78
1, 807910, Control_c, 0, 64, 77
1, 807925, Control_c, 0, 64, 76
1, 807938, Note_on_c, 0, 60, 49
1, 807940, Control_c, 0, 64, 74
1, 807954, Note_on_c, 0, 53, 35
1, 807955, Control_c, 0, 64, 71
1, 807970, Control_c, 0, 64, 68
1, 807985, Control_c, 0, 64, 65
1, 807999, Control_c, 0, 64, 61
1, 808014, Control_c, 0, 64, 55
1, 808029, Control_c, 0, 64, 46
1, 808044, Control_c, 0, 64, 0
1, 808259, Control_c, 0, 64, 38
1, 808274, Control_c, 0, 64, 55
1, 808289, Control_c, 0, 64, 64
1, 808304, Control_c, 0, 64, 69
1, 808318, Control_c, 0, 64, 74
1, 808333, Control_c, 0, 64, 79
1, 808348, Control_c, 0, 64, 82
1, 808356, Note_off_c, 0, 46, 41
1, 808357, Note_off_c, 0, 34, 53
1, 808363, Control_c, 0, 64, 86
1, 808378, Control_c, 0, 64, 91
1, 808393, Control_c, 0, 64, 97
1, 808408, Control_c, 0, 64, 103
1, 808423, Control_c, 0, 64, 109
1, 808438, Control_c, 0, 64, 113
1, 808441, Note_off_c, 0, 60, 32
1, 808526, Control_c, 0, 67, 115
1, 808585, Control_c, 0, 67, 117
1, 808608, Note_off_c, 0, 53, 34
1, 808615, Control_c, 0, 64, 111
1, 808644, Control_c, 0, 64, 107
1, 808644, Control_c, 0, 67, 119
1, 808659, Control_c, 0, 64, 105
1, 808659, Control_c, 0, 67, 127
1, 808674, Control_c, 0, 64, 103
1, 808689, Control_c, 0, 64, 101
1, 808704, Control_c, 0, 64, 99
1, 808733, Control_c, 0, 64, 94
1, 808748, Control_c, 0, 64, 91
1, 808763, Control_c, 0, 64, 88
1, 808778, Control_c, 0, 64, 86
1, 808792, Control_c, 0, 64, 83
1, 808796, Note_on_c, 0, 60, 41
1, 808807, Control_c, 0, 64, 81
1, 808810, Note_on_c, 0, 51, 38
1, 808812, Note_on_c, 0, 48, 34
1, 808822, Control_c, 0, 64, 78
1, 808827, Note_on_c, 0, 36, 30
1, 808837, Control_c, 0, 64, 75
1, 808852, Control_c, 0, 64, 72
1, 808867, Control_c, 0, 64, 69
1, 808882, Control_c, 0, 64, 66
1, 808897, Control_c, 0, 64, 61
1, 808911, Control_c, 0, 64, 55
1, 808926, Control_c, 0, 64, 45
1, 808941, Control_c, 0, 64, 31
1, 808956, Control_c, 0, 64, 0
1, 809304, Control_c, 0, 64, 49
1, 809319, Control_c, 0, 64, 60
1, 809333, Control_c, 0, 64, 64
1, 809348, Control_c, 0, 64, 67
1, 809363, Control_c, 0, 64, 70
1, 809378, Control_c, 0, 64, 74
1, 809393, Control_c, 0, 64, 79
1, 809407, Control_c, 0, 64, 86
1, 809414, Note_off_c, 0, 60, 59
1, 809422, Control_c, 0, 64, 92
1, 809436, Note_off_c, 0, 51, 51
1, 809437, Control_c, 0, 64, 98
1, 809452, Control_c, 0, 64, 101
1, 809466, Control_c, 0, 64, 103
1, 809514, Note_off_c, 0, 48, 35
1, 809528, Note_off_c, 0, 36, 40
1, 809615, Control_c, 0, 64, 100
1, 809630, Control_c, 0, 64, 98
1, 809645, Control_c, 0, 64, 95
1, 809659, Control_c, 0, 64, 92
1, 809674, Control_c, 0, 64, 89
1, 809689, Control_c, 0, 64, 86
1, 809692, Note_on_c, 0, 44, 72
1, 809704, Control_c, 0, 64, 83
1, 809719, Control_c, 0, 64, 80
1, 809733, Control_c, 0, 64, 76
1, 809748, Control_c, 0, 64, 73
1, 809770, Control_c, 0, 64, 70
1, 809786, Control_c, 0, 64, 67
1, 809801, Control_c, 0, 64, 65
1, 809816, Control_c, 0, 64, 62
1, 809831, Control_c, 0, 64, 58
1, 809845, Control_c, 0, 64, 52
1, 809860, Control_c, 0, 64, 41
1, 809875, Control_c, 0, 64, 0
1, 809915, Note_on_c, 0, 56, 48
1, 810086, Note_on_c, 0, 60, 50
1, 810088, Note_on_c, 0, 65, 50
1, 810095, Note_on_c, 0, 68, 59
1, 810095, Note_off_c, 0, 56, 54
1, 810152, Note_off_c, 0, 65, 62
1, 810164, Note_off_c, 0, 60, 61
1, 810172, Control_c, 0, 64, 46
1, 810187, Control_c, 0, 64, 57
1, 810195, Note_off_c, 0, 68, 62
1, 810202, Control_c, 0, 64, 61
1, 810217, Control_c, 0, 64, 61
1, 810231, Control_c, 0, 64, 60
1, 810246, Control_c, 0, 64, 57
1, 810261, Control_c, 0, 64, 53
1, 810270, Note_on_c, 0, 57, 60
1, 810275, Control_c, 0, 64, 50
1, 810290, Control_c, 0, 64, 47
1, 810305, Control_c, 0, 64, 42
1, 810320, Control_c, 0, 64, 34
1, 810335, Control_c, 0, 64, 0
1, 810428, Note_off_c, 0, 57, 33
1, 810429, Note_on_c, 0, 69, 55
1, 810440, Note_on_c, 0, 61, 49
1, 810443, Note_on_c, 0, 66, 47
1, 810452, Note_on_c, 0, 37, 46
1, 810522, Note_off_c, 0, 69, 61
1, 810535, Control_c, 0, 64, 46
1, 810537, Note_off_c, 0, 61, 51
1, 810537, Note_off_c, 0, 66, 57
1, 810550, Control_c, 0, 64, 55
1, 810564, Control_c, 0, 64, 57
1, 810579, Control_c, 0, 64, 56
1, 810595, Control_c, 0, 64, 54
1, 810610, Control_c, 0, 64, 52
1, 810625, Control_c, 0, 64, 51
1, 810632, Note_on_c, 0, 58, 56
1, 810640, Control_c, 0, 64, 49
1, 810655, Control_c, 0, 64, 45
1, 810669, Control_c, 0, 64, 39
1, 810684, Control_c, 0, 64, 30
1, 810699, Control_c, 0, 64, 0
1, 810742, Note_off_c, 0, 58, 54
1, 810793, Note_on_c, 0, 70, 47
1, 810804, Note_on_c, 0, 61, 38
1, 810806, Note_on_c, 0, 66, 45
1, 810846, Control_c, 0, 64, 49
1, 810859, Note_off_c, 0, 66, 55
1, 810861, Control_c, 0, 64, 59
1, 810876, Control_c, 0, 64, 63
1, 810890, Note_off_c, 0, 61, 60
1, 810891, Control_c, 0, 64, 64
1, 810906, Control_c, 0, 64, 65
1, 810933, Note_off_c, 0, 70, 38
1, 810936, Control_c, 0, 64, 65
1, 810957, Note_on_c, 0, 59, 58
1, 811039, Control_c, 0, 64, 65
1, 811069, Control_c, 0, 64, 64
1, 811084, Control_c, 0, 64, 63
1, 811098, Note_off_c, 0, 59, 55
1, 811099, Control_c, 0, 64, 58
1, 811113, Control_c, 0, 64, 50
1, 811128, Control_c, 0, 64, 42
1, 811135, Note_on_c, 0, 46, 63
1, 811141, Note_on_c, 0, 71, 50
1, 811143, Control_c, 0, 64, 43
1, 811144, Note_on_c, 0, 68, 43
1, 811153, Note_on_c, 0, 63, 42
1, 811158, Control_c, 0, 64, 51
1, 811172, Control_c, 0, 64, 58
1, 811180, Note_off_c, 0, 44, 61
1, 811187, Control_c, 0, 64, 62
1, 811202, Control_c, 0, 64, 65
1, 811217, Control_c, 0, 64, 66
1, 811231, Control_c, 0, 64, 67
1, 811254, Control_c, 0, 64, 68
1, 811269, Control_c, 0, 64, 69
1, 811284, Note_off_c, 0, 68, 47
1, 811284, Control_c, 0, 64, 69
1, 811286, Note_off_c, 0, 71, 59
1, 811289, Note_off_c, 0, 63, 60
1, 811309, Note_on_c, 0, 44, 69
1, 811309, Note_off_c, 0, 46, 64
1, 811313, Control_c, 0, 64, 70
1, 811314, Note_on_c, 0, 60, 63
1, 811318, Note_off_c, 0, 37, 39
1, 811389, Control_c, 0, 64, 69
1, 811404, Control_c, 0, 64, 69
1, 811418, Control_c, 0, 64, 68
1, 811433, Control_c, 0, 64, 67
1, 811440, Note_off_c, 0, 44, 59
1, 811448, Control_c, 0, 64, 64
1, 811460, Note_on_c, 0, 72, 68
1, 811462, Control_c, 0, 64, 60
1, 811463, Note_on_c, 0, 43, 75
1, 811469, Note_off_c, 0, 60, 58
1, 811475, Note_on_c, 0, 69, 49
1, 811477, Control_c, 0, 64, 53
1, 811479, Note_on_c, 0, 64, 44
1, 811492, Control_c, 0, 64, 47
1, 811507, Control_c, 0, 64, 38
1, 811522, Control_c, 0, 64, 0
1, 811552, Note_off_c, 0, 69, 60
1, 811564, Note_off_c, 0, 72, 59
1, 811599, Note_off_c, 0, 64, 62
1, 811616, Note_on_c, 0, 44, 81
1, 811623, Note_on_c, 0, 61, 68
1, 811624, Note_off_c, 0, 43, 62
1, 811772, Note_off_c, 0, 61, 57
1, 811803, Note_on_c, 0, 73, 61
1, 811812, Note_on_c, 0, 49, 77
1, 811816, Note_on_c, 0, 70, 53
1, 811816, Note_off_c, 0, 44, 65
1, 811819, Note_on_c, 0, 65, 46
1, 811940, Note_off_c, 0, 65, 46
1, 811975, Note_off_c, 0, 70, 36
1, 811979, Note_on_c, 0, 62, 58
1, 811982, Note_off_c, 0, 73, 61
1, 812136, Control_c, 0, 64, 36
1, 812151, Control_c, 0, 64, 46
1, 812155, Note_off_c, 0, 62, 59
1, 812164, Note_on_c, 0, 74, 61
1, 812166, Control_c, 0, 64, 53
1, 812179, Note_on_c, 0, 66, 43
1, 812182, Control_c, 0, 64, 57
1, 812193, Note_on_c, 0, 71, 40
1, 812197, Control_c, 0, 64, 61
1, 812212, Control_c, 0, 64, 63
1, 812227, Control_c, 0, 64, 65
1, 812241, Note_off_c, 0, 71, 44
1, 812241, Control_c, 0, 64, 66
1, 812248, Note_off_c, 0, 74, 56
1, 812256, Control_c, 0, 64, 67
1, 812286, Control_c, 0, 64, 67
1, 812301, Control_c, 0, 64, 63
1, 812316, Note_off_c, 0, 66, 59
1, 812316, Control_c, 0, 64, 57
1, 812331, Control_c, 0, 64, 42
1, 812331, Control_c, 0, 67, 125
1, 812337, Note_on_c, 0, 44, 66
1, 812339, Note_on_c, 0, 63, 60
1, 812346, Control_c, 0, 64, 0
1, 812361, Note_off_c, 0, 49, 55
1, 812375, Control_c, 0, 64, 35
1, 812390, Control_c, 0, 64, 53
1, 812404, Control_c, 0, 64, 63
1, 812404, Control_c, 0, 67, 123
1, 812419, Control_c, 0, 64, 70
1, 812432, Note_off_c, 0, 44, 64
1, 812434, Control_c, 0, 64, 72
1, 812434, Control_c, 0, 67, 121
1, 812464, Control_c, 0, 64, 71
1, 812464, Control_c, 0, 67, 117
1, 812478, Note_off_c, 0, 63, 59
1, 812478, Control_c, 0, 64, 67
1, 812478, Control_c, 0, 67, 113
1, 812493, Control_c, 0, 64, 59
1, 812493, Control_c, 0, 67, 109
1, 812503, Note_on_c, 0, 75, 52
1, 812508, Control_c, 0, 64, 45
1, 812508, Control_c, 0, 67, 106
1, 812512, Note_on_c, 0, 67, 47
1, 812523, Control_c, 0, 64, 0
1, 812523, Control_c, 0, 67, 104
1, 812524, Note_on_c, 0, 72, 39
1, 812538, Control_c, 0, 67, 101
1, 812552, Control_c, 0, 67, 98
1, 812560, Note_on_c, 0, 45, 44
1, 812567, Control_c, 0, 67, 96
1, 812575, Note_off_c, 0, 72, 43
1, 812582, Control_c, 0, 64, 40
1, 812582, Control_c, 0, 67, 95
1, 812597, Control_c, 0, 64, 55
1, 812597, Control_c, 0, 67, 94
1, 812611, Control_c, 0, 64, 62
1, 812611, Control_c, 0, 67, 93
1, 812626, Control_c, 0, 64, 65
1, 812626, Control_c, 0, 67, 91
1, 812641, Note_off_c, 0, 67, 62
1, 812641, Control_c, 0, 64, 67
1, 812641, Control_c, 0, 67, 85
1, 812656, Control_c, 0, 64, 68
1, 812656, Control_c, 0, 67, 75
1, 812663, Note_off_c, 0, 45, 42
1, 812665, Note_off_c, 0, 75, 55
1, 812671, Control_c, 0, 64, 69
1, 812671, Control_c, 0, 67, 65
1, 812681, Note_on_c, 0, 64, 56
1, 812685, Control_c, 0, 67, 57
1, 812700, Control_c, 0, 67, 52
1, 812715, Control_c, 0, 67, 51
1, 812730, Control_c, 0, 67, 51
1, 812745, Control_c, 0, 64, 68
1, 812745, Control_c, 0, 67, 50
1, 812767, Control_c, 0, 64, 67
1, 812782, Control_c, 0, 64, 65
1, 812797, Control_c, 0, 64, 62
1, 812811, Control_c, 0, 64, 59
1, 812826, Control_c, 0, 64, 54
1, 812841, Control_c, 0, 64, 50
1, 812849, Note_off_c, 0, 64, 61
1, 812852, Note_on_c, 0, 76, 63
1, 812854, Note_on_c, 0, 73, 56
1, 812856, Control_c, 0, 64, 42
1, 812861, Note_on_c, 0, 44, 73
1, 812864, Note_on_c, 0, 68, 48
1, 812871, Control_c, 0, 64, 0
1, 812943, Note_off_c, 0, 76, 62
1, 812945, Control_c, 0, 64, 33
1, 812960, Control_c, 0, 64, 47
1, 812975, Control_c, 0, 64, 57
1, 812979, Note_off_c, 0, 73, 53
1, 812990, Control_c, 0, 64, 62
1, 813005, Control_c, 0, 64, 64
1, 813020, Control_c, 0, 64, 65
1, 813023, Note_off_c, 0, 68, 61
1, 813032, Note_on_c, 0, 66, 69
1, 813079, Control_c, 0, 64, 64
1, 813094, Control_c, 0, 64, 63
1, 813109, Control_c, 0, 64, 62
1, 813124, Control_c, 0, 64, 60
1, 813139, Control_c, 0, 64, 56
1, 813153, Control_c, 0, 64, 49
1, 813168, Control_c, 0, 64, 38
1, 813183, Control_c, 0, 64, 0
1, 813195, Note_on_c, 0, 78, 61
1, 813201, Note_on_c, 0, 42, 63
1, 813205, Note_off_c, 0, 66, 55
1, 813208, Note_on_c, 0, 70, 51
1, 813213, Note_on_c, 0, 75, 49
1, 813249, Note_off_c, 0, 44, 60
1, 813287, Control_c, 0, 64, 39
1, 813301, Control_c, 0, 64, 59
1, 813316, Control_c, 0, 64, 67
1, 813318, Note_off_c, 0, 42, 65
1, 813329, Note_off_c, 0, 75, 55
1, 813331, Control_c, 0, 64, 69
1, 813346, Control_c, 0, 64, 68
1, 813347, Note_off_c, 0, 78, 58
1, 813353, Note_off_c, 0, 70, 61
1, 813361, Control_c, 0, 64, 65
1, 813361, Control_c, 0, 67, 49
1, 813375, Control_c, 0, 64, 59
1, 813383, Note_on_c, 0, 67, 59
1, 813390, Control_c, 0, 64, 47
1, 813405, Control_c, 0, 64, 0
1, 813546, Control_c, 0, 67, 49
1, 813560, Note_on_c, 0, 79, 62
1, 813568, Note_on_c, 0, 74, 54
1, 813571, Note_on_c, 0, 71, 53
1, 813576, Control_c, 0, 67, 48
1, 813579, Note_on_c, 0, 41, 51
1, 813605, Control_c, 0, 64, 50
1, 813609, Note_off_c, 0, 67, 39
1, 813620, Control_c, 0, 64, 62
1, 813634, Control_c, 0, 64, 67
1, 813649, Control_c, 0, 64, 71
1, 813658, Note_off_c, 0, 79, 64
1, 813664, Control_c, 0, 64, 75
1, 813679, Note_off_c, 0, 71, 64
1, 813679, Control_c, 0, 64, 81
1, 813679, Control_c, 0, 67, 47
1, 813694, Control_c, 0, 64, 91
1, 813699, Note_off_c, 0, 74, 63
1, 813708, Control_c, 0, 64, 106
1, 813708, Control_c, 0, 67, 47
1, 813723, Control_c, 0, 64, 127
1, 813779, Note_on_c, 0, 40, 65
1, 813786, Note_off_c, 0, 41, 46
1, 813812, Control_c, 0, 67, 47
1, 813827, Control_c, 0, 67, 48
1, 813842, Control_c, 0, 64, 108
1, 813842, Control_c, 0, 67, 49
1, 813857, Control_c, 0, 64, 96
1, 813857, Control_c, 0, 67, 49
1, 813872, Control_c, 0, 64, 87
1, 813887, Control_c, 0, 64, 79
1, 813887, Control_c, 0, 67, 50
1, 813902, Control_c, 0, 64, 69
1, 813902, Control_c, 0, 67, 50
1, 813917, Control_c, 0, 64, 57
1, 813917, Control_c, 0, 67, 51
1, 813931, Control_c, 0, 64, 37
1, 813931, Control_c, 0, 67, 51
1, 813946, Control_c, 0, 64, 0
1, 814039, Note_on_c, 0, 68, 87
1, 814109, Control_c, 0, 67, 51
1, 814123, Note_on_c, 0, 49, 65
1, 814123, Control_c, 0, 67, 50
1, 814168, Control_c, 0, 67, 50
1, 814182, Control_c, 0, 67, 49
1, 814197, Control_c, 0, 67, 47
1, 814212, Control_c, 0, 64, 60
1, 814212, Control_c, 0, 67, 46
1, 814221, Note_off_c, 0, 40, 62
1, 814227, Control_c, 0, 64, 71
1, 814227, Control_c, 0, 67, 43
1, 814242, Control_c, 0, 64, 80
1, 814242, Control_c, 0, 67, 37
1, 814254, Note_off_c, 0, 49, 63
1, 814264, Control_c, 0, 64, 97
1, 814264, Control_c, 0, 67, 26
1, 814279, Control_c, 0, 64, 127
1, 814279, Control_c, 0, 67, 0
1, 814359, Note_on_c, 0, 80, 68
1, 814387, Note_on_c, 0, 64, 59
1, 814557, Note_on_c, 0, 76, 71
1, 814557, Note_off_c, 0, 64, 42
1, 814565, Note_on_c, 0, 61, 55
1, 814693, Note_off_c, 0, 61, 50
1, 814696, Note_off_c, 0, 80, 51
1, 814715, Note_on_c, 0, 72, 68
1, 814740, Note_on_c, 0, 56, 54
1, 814770, Note_off_c, 0, 56, 63
1, 814774, Note_off_c, 0, 76, 62
1, 814793, Note_off_c, 0, 68, 31
1, 814879, Note_on_c, 0, 73, 70
1, 814906, Note_on_c, 0, 52, 51
1, 814915, Note_off_c, 0, 72, 59
1, 815016, Note_off_c, 0, 73, 58
1, 815029, Note_off_c, 0, 52, 55
1, 815051, Note_on_c, 0, 69, 58
1, 815057, Note_on_c, 0, 49, 50
1, 815153, Note_off_c, 0, 69, 58
1, 815198, Note_on_c, 0, 44, 43
1, 815213, Note_off_c, 0, 49, 37
1, 815221, Note_on_c, 0, 64, 54
1, 815285, Note_off_c, 0, 44, 59
1, 815307, Note_on_c, 0, 40, 51
1, 815319, Note_off_c, 0, 64, 63
1, 815375, Note_on_c, 0, 65, 64
1, 815400, Control_c, 0, 64, 115
1, 815415, Control_c, 0, 64, 107
1, 815429, Control_c, 0, 64, 101
1, 815444, Control_c, 0, 64, 97
1, 815459, Control_c, 0, 64, 92
1, 815474, Control_c, 0, 64, 87
1, 815489, Control_c, 0, 64, 82
1, 815503, Control_c, 0, 64, 79
1, 815518, Control_c, 0, 64, 74
1, 815533, Control_c, 0, 64, 69
1, 815548, Control_c, 0, 64, 63
1, 815562, Note_on_c, 0, 70, 73
1, 815563, Control_c, 0, 64, 57
1, 815577, Note_off_c, 0, 40, 55
1, 815577, Control_c, 0, 64, 50
1, 815592, Control_c, 0, 64, 38
1, 815598, Note_on_c, 0, 66, 46
1, 815604, Note_on_c, 0, 39, 46
1, 815607, Control_c, 0, 64, 0
1, 815616, Note_off_c, 0, 65, 58
1, 815681, Control_c, 0, 64, 34
1, 815696, Control_c, 0, 64, 53
1, 815711, Control_c, 0, 64, 64
1, 815720, Note_on_c, 0, 68, 77
1, 815721, Note_off_c, 0, 39, 62
1, 815726, Control_c, 0, 64, 68
1, 815748, Control_c, 0, 64, 71
1, 815751, Note_on_c, 0, 41, 50
1, 815763, Control_c, 0, 64, 73
1, 815768, Note_off_c, 0, 70, 63
1, 815777, Control_c, 0, 64, 74
1, 815792, Control_c, 0, 64, 74
1, 815807, Control_c, 0, 64, 75
1, 815836, Control_c, 0, 64, 76
1, 815866, Note_off_c, 0, 68, 62
1, 815881, Control_c, 0, 64, 75
1, 815888, Note_off_c, 0, 41, 56
1, 815893, Note_on_c, 0, 67, 73
1, 815896, Control_c, 0, 64, 70
1, 815897, Note_on_c, 0, 42, 58
1, 815911, Control_c, 0, 64, 62
1, 815926, Control_c, 0, 64, 56
1, 815955, Control_c, 0, 64, 60
1, 815970, Control_c, 0, 64, 64
1, 815985, Control_c, 0, 64, 67
1, 816000, Control_c, 0, 64, 68
1, 816026, Note_on_c, 0, 68, 77
1, 816029, Control_c, 0, 64, 68
1, 816044, Control_c, 0, 64, 67
1, 816059, Control_c, 0, 64, 65
1, 816063, Note_off_c, 0, 67, 57
1, 816067, Note_off_c, 0, 42, 59
1, 816068, Note_on_c, 0, 44, 57
1, 816074, Control_c, 0, 64, 64
1, 816089, Control_c, 0, 64, 62
1, 816103, Control_c, 0, 64, 61
1, 816103, Control_c, 0, 67, 19
1, 816118, Control_c, 0, 64, 59
1, 816119, Note_off_c, 0, 66, 59
1, 816133, Control_c, 0, 64, 57
1, 816147, Control_c, 0, 64, 55
1, 816147, Control_c, 0, 67, 22
1, 816162, Control_c, 0, 64, 53
1, 816178, Control_c, 0, 64, 51
1, 816178, Control_c, 0, 67, 25
1, 816193, Control_c, 0, 64, 47
1, 816208, Control_c, 0, 64, 39
1, 816223, Control_c, 0, 64, 0
1, 816230, Note_on_c, 0, 73, 72
1, 816248, Note_on_c, 0, 65, 59
1, 816254, Note_on_c, 0, 46, 46
1, 816262, Note_off_c, 0, 44, 50
1, 816262, Note_off_c, 0, 68, 61
1, 816397, Note_off_c, 0, 46, 54
1, 816400, Control_c, 0, 64, 44
1, 816415, Control_c, 0, 64, 54
1, 816418, Note_on_c, 0, 48, 48
1, 816430, Control_c, 0, 64, 59
1, 816444, Control_c, 0, 64, 60
1, 816512, Control_c, 0, 64, 60
1, 816526, Control_c, 0, 64, 59
1, 816541, Control_c, 0, 64, 56
1, 816556, Control_c, 0, 64, 51
1, 816571, Control_c, 0, 64, 46
1, 816578, Note_off_c, 0, 48, 63
1, 816585, Control_c, 0, 64, 43
1, 816600, Control_c, 0, 64, 42
1, 816611, Note_on_c, 0, 49, 40
1, 816615, Control_c, 0, 64, 40
1, 816630, Control_c, 0, 64, 39
1, 816644, Control_c, 0, 64, 38
1, 816659, Control_c, 0, 64, 39
1, 816674, Control_c, 0, 64, 41
1, 816689, Control_c, 0, 64, 46
1, 816704, Control_c, 0, 64, 51
1, 816719, Control_c, 0, 64, 54
1, 816733, Control_c, 0, 64, 56
1, 816748, Control_c, 0, 64, 59
1, 816763, Note_on_c, 0, 68, 60
1, 816763, Control_c, 0, 64, 61
1, 816778, Control_c, 0, 64, 63
1, 816787, Note_on_c, 0, 51, 36
1, 816788, Note_off_c, 0, 73, 55
1, 816793, Control_c, 0, 64, 63
1, 816804, Note_off_c, 0, 49, 42
1, 816808, Control_c, 0, 64, 64
1, 816846, Note_off_c, 0, 68, 63
1, 816897, Control_c, 0, 64, 63
1, 816912, Control_c, 0, 64, 62
1, 816912, Note_off_c, 0, 51, 56
1, 816926, Control_c, 0, 64, 60
1, 816928, Note_on_c, 0, 68, 63
1, 816941, Control_c, 0, 64, 55
1, 816951, Note_on_c, 0, 53, 39
1, 816956, Control_c, 0, 64, 48
1, 816972, Control_c, 0, 64, 37
1, 816987, Control_c, 0, 64, 0
1, 817016, Control_c, 0, 64, 31
1, 817031, Control_c, 0, 64, 48
1, 817040, Note_off_c, 0, 65, 40
1, 817046, Control_c, 0, 64, 60
1, 817061, Control_c, 0, 64, 65
1, 817075, Note_off_c, 0, 68, 64
1, 817075, Control_c, 0, 64, 67
1, 817077, Note_off_c, 0, 53, 61
1, 817090, Control_c, 0, 64, 69
1, 817103, Note_on_c, 0, 54, 46
1, 817105, Control_c, 0, 64, 70
1, 817120, Control_c, 0, 64, 70
1, 817193, Control_c, 0, 64, 70
1, 817208, Control_c, 0, 64, 69
1, 817223, Control_c, 0, 64, 67
1, 817238, Control_c, 0, 64, 65
1, 817261, Control_c, 0, 64, 62
1, 817270, Note_on_c, 0, 68, 66
1, 817275, Control_c, 0, 64, 56
1, 817281, Note_off_c, 0, 54, 58
1, 817290, Control_c, 0, 64, 48
1, 817297, Note_on_c, 0, 56, 43
1, 817297, Note_on_c, 0, 64, 42
1, 817305, Control_c, 0, 64, 33
1, 817320, Control_c, 0, 64, 0
1, 817349, Control_c, 0, 64, 37
1, 817352, Note_off_c, 0, 64, 0
1, 817352, Note_on_c, 0, 64, 4
1, 817364, Control_c, 0, 64, 53
1, 817379, Control_c, 0, 64, 61
1, 817394, Control_c, 0, 64, 64
1, 817408, Control_c, 0, 64, 65
1, 817430, Note_off_c, 0, 56, 57
1, 817447, Note_on_c, 0, 58, 45
1, 817453, Control_c, 0, 64, 64
1, 817497, Control_c, 0, 64, 64
1, 817512, Control_c, 0, 64, 63
1, 817526, Control_c, 0, 64, 62
1, 817541, Control_c, 0, 64, 61
1, 817556, Control_c, 0, 64, 59
1, 817563, Note_off_c, 0, 58, 62
1, 817571, Control_c, 0, 64, 57
1, 817586, Control_c, 0, 64, 52
1, 817586, Control_c, 0, 67, 27
1, 817601, Control_c, 0, 64, 43
1, 817606, Note_off_c, 0, 64, 51
1, 817607, Note_on_c, 0, 66, 57
1, 817616, Control_c, 0, 64, 0
1, 817618, Note_on_c, 0, 59, 37
1, 817625, Note_on_c, 0, 63, 49
1, 817660, Note_off_c, 0, 68, 56
1, 817711, Note_off_c, 0, 63, 62
1, 817719, Control_c, 0, 64, 42
1, 817734, Control_c, 0, 64, 55
1, 817736, Note_off_c, 0, 66, 63
1, 817738, Note_off_c, 0, 59, 61
1, 817749, Control_c, 0, 64, 60
1, 817765, Control_c, 0, 64, 61
1, 817777, Note_on_c, 0, 60, 42
1, 817810, Control_c, 0, 64, 60
1, 817824, Control_c, 0, 64, 60
1, 817839, Control_c, 0, 64, 58
1, 817854, Control_c, 0, 64, 57
1, 817869, Control_c, 0, 64, 54
1, 817884, Control_c, 0, 64, 51
1, 817898, Control_c, 0, 64, 45
1, 817913, Control_c, 0, 64, 34
1, 817928, Control_c, 0, 64, 0
1, 817939, Note_off_c, 0, 60, 64
1, 817958, Note_on_c, 0, 65, 55
1, 817975, Note_on_c, 0, 61, 38
1, 818039, Control_c, 0, 64, 33
1, 818054, Control_c, 0, 64, 50
1, 818069, Control_c, 0, 64, 60
1, 818084, Control_c, 0, 64, 64
1, 818085, Note_off_c, 0, 61, 62
1, 818098, Control_c, 0, 64, 65
1, 818113, Control_c, 0, 64, 66
1, 818128, Control_c, 0, 64, 66
1, 818137, Note_off_c, 0, 65, 57
1, 818246, Control_c, 0, 64, 66
1, 818276, Control_c, 0, 64, 65
1, 818290, Note_on_c, 0, 63, 54
1, 818291, Control_c, 0, 64, 65
1, 818297, Note_on_c, 0, 56, 85
1, 818305, Control_c, 0, 64, 64
1, 818307, Note_on_c, 0, 57, 52
1, 818313, Note_on_c, 0, 60, 47
1, 818320, Control_c, 0, 64, 63
1, 818335, Control_c, 0, 64, 60
1, 818349, Control_c, 0, 64, 55
1, 818364, Control_c, 0, 64, 42
1, 818379, Control_c, 0, 64, 0
1, 818409, Control_c, 0, 67, 25
1, 818483, Control_c, 0, 64, 37
1, 818498, Control_c, 0, 64, 58
1, 818498, Control_c, 0, 67, 23
1, 818513, Control_c, 0, 64, 65
1, 818528, Control_c, 0, 64, 68
1, 818542, Control_c, 0, 64, 70
1, 818549, Note_off_c, 0, 60, 57
1, 818557, Control_c, 0, 64, 72
1, 818558, Note_off_c, 0, 63, 60
1, 818573, Control_c, 0, 64, 74
1, 818588, Control_c, 0, 64, 75
1, 818588, Control_c, 0, 67, 21
1, 818603, Control_c, 0, 64, 75
1, 818645, Note_on_c, 0, 43, 52
1, 818772, Control_c, 0, 64, 76
1, 818802, Control_c, 0, 64, 76
1, 818811, Note_on_c, 0, 63, 59
1, 818820, Note_on_c, 0, 60, 48
1, 818832, Control_c, 0, 64, 77
1, 818847, Control_c, 0, 64, 77
1, 818884, Note_off_c, 0, 60, 58
1, 818889, Note_off_c, 0, 63, 58
1, 818901, Note_off_c, 0, 43, 50
1, 818921, Control_c, 0, 64, 77
1, 818936, Control_c, 0, 64, 75
1, 818951, Control_c, 0, 64, 70
1, 818966, Control_c, 0, 64, 63
1, 818972, Note_on_c, 0, 63, 51
1, 818978, Note_on_c, 0, 60, 50
1, 818980, Note_on_c, 0, 44, 52
1, 818980, Control_c, 0, 64, 48
1, 818995, Control_c, 0, 64, 0
1, 819098, Control_c, 0, 64, 48
1, 819113, Control_c, 0, 64, 64
1, 819121, Note_off_c, 0, 60, 49
1, 819128, Control_c, 0, 64, 69
1, 819133, Note_off_c, 0, 56, 61
1, 819143, Control_c, 0, 64, 75
1, 819152, Note_off_c, 0, 63, 55
1, 819158, Control_c, 0, 64, 83
1, 819172, Control_c, 0, 64, 96
1, 819187, Control_c, 0, 64, 127
1, 819219, Note_off_c, 0, 44, 62
1, 819317, Note_on_c, 0, 60, 49
1, 819318, Note_on_c, 0, 37, 54
1, 819323, Note_on_c, 0, 63, 60
1, 819381, Note_off_c, 0, 37, 62
1, 819389, Note_off_c, 0, 60, 62
1, 819395, Control_c, 0, 67, 19
1, 819400, Note_off_c, 0, 57, 62
1, 819425, Control_c, 0, 67, 0
1, 819654, Note_on_c, 0, 65, 68
1, 819665, Note_on_c, 0, 60, 49
1, 819670, Note_on_c, 0, 58, 72
1, 819674, Note_on_c, 0, 61, 53
1, 819697, Note_off_c, 0, 63, 58
1, 819714, Control_c, 0, 64, 97
1, 819729, Control_c, 0, 64, 79
1, 819744, Control_c, 0, 64, 67
1, 819759, Control_c, 0, 64, 61
1, 819774, Control_c, 0, 64, 62
1, 819787, Note_off_c, 0, 61, 61
1, 819789, Control_c, 0, 64, 65
1, 819803, Control_c, 0, 64, 68
1, 819810, Note_off_c, 0, 65, 65
1, 819818, Control_c, 0, 64, 69
1, 819827, Note_on_c, 0, 56, 75
1, 819833, Control_c, 0, 64, 67
1, 819848, Control_c, 0, 64, 64
1, 819863, Control_c, 0, 64, 61
1, 819877, Control_c, 0, 64, 55
1, 819881, Note_off_c, 0, 58, 64
1, 819892, Control_c, 0, 64, 47
1, 819907, Control_c, 0, 64, 0
1, 819976, Note_on_c, 0, 66, 69
1, 819986, Note_on_c, 0, 55, 79
1, 819986, Note_on_c, 0, 63, 55
1, 820000, Note_off_c, 0, 56, 59
1, 820070, Note_off_c, 0, 60, 60
1, 820083, Note_off_c, 0, 63, 63
1, 820114, Control_c, 0, 64, 51
1, 820123, Note_off_c, 0, 66, 65
1, 820129, Control_c, 0, 64, 64
1, 820144, Control_c, 0, 64, 70
1, 820147, Note_on_c, 0, 56, 82
1, 820159, Control_c, 0, 64, 76
1, 820174, Control_c, 0, 64, 79
1, 820176, Note_off_c, 0, 55, 64
1, 820189, Control_c, 0, 64, 80
1, 820218, Control_c, 0, 64, 79
1, 820233, Control_c, 0, 64, 77
1, 820256, Control_c, 0, 64, 73
1, 820271, Control_c, 0, 64, 67
1, 820286, Control_c, 0, 64, 60
1, 820300, Control_c, 0, 64, 43
1, 820315, Control_c, 0, 64, 0
1, 820353, Note_on_c, 0, 67, 76
1, 820367, Note_on_c, 0, 64, 60
1, 820378, Note_on_c, 0, 61, 75
1, 820386, Note_on_c, 0, 63, 49
1, 820416, Note_off_c, 0, 56, 60
1, 820537, Control_c, 0, 64, 54
1, 820552, Control_c, 0, 64, 70
1, 820555, Note_off_c, 0, 64, 61
1, 820567, Control_c, 0, 64, 77
1, 820582, Control_c, 0, 64, 90
1, 820585, Note_off_c, 0, 63, 63
1, 820597, Control_c, 0, 64, 106
1, 820597, Control_c, 0, 67, 19
1, 820606, Note_off_c, 0, 67, 64
1, 820612, Control_c, 0, 64, 127
1, 820706, Note_off_c, 0, 61, 40
1, 820719, Note_on_c, 0, 44, 56
1, 820850, Note_on_c, 0, 77, 87
1, 820869, Note_on_c, 0, 68, 74
1, 820893, Note_on_c, 0, 56, 73
1, 820897, Note_off_c, 0, 68, 63
1, 820951, Note_off_c, 0, 56, 60
1, 820957, Note_off_c, 0, 77, 62
1, 821053, Note_on_c, 0, 77, 85
1, 821077, Note_on_c, 0, 56, 58
1, 821080, Control_c, 0, 67, 0
1, 821089, Note_on_c, 0, 73, 53
1, 821109, Control_c, 0, 64, 105
1, 821124, Control_c, 0, 64, 96
1, 821139, Control_c, 0, 64, 87
1, 821154, Control_c, 0, 64, 77
1, 821168, Control_c, 0, 64, 65
1, 821183, Control_c, 0, 64, 48
1, 821198, Control_c, 0, 64, 0
1, 821240, Note_off_c, 0, 44, 61
1, 821256, Control_c, 0, 64, 34
1, 821270, Control_c, 0, 64, 50
1, 821285, Control_c, 0, 64, 59
1, 821300, Control_c, 0, 64, 62
1, 821315, Control_c, 0, 64, 63
1, 821390, Note_on_c, 0, 68, 64
1, 821404, Control_c, 0, 64, 62
1, 821419, Control_c, 0, 64, 61
1, 821433, Control_c, 0, 64, 60
1, 821448, Control_c, 0, 64, 58
1, 821463, Control_c, 0, 64, 56
1, 821478, Control_c, 0, 64, 54
1, 821492, Control_c, 0, 64, 54
1, 821507, Control_c, 0, 64, 54
1, 821522, Control_c, 0, 64, 56
1, 821534, Note_on_c, 0, 53, 72
1, 821537, Control_c, 0, 64, 58
1, 821552, Control_c, 0, 64, 59
1, 821566, Control_c, 0, 64, 61
1, 821581, Control_c, 0, 64, 63
1, 821596, Control_c, 0, 64, 65
1, 821611, Control_c, 0, 64, 66
1, 821626, Control_c, 0, 64, 68
1, 821640, Control_c, 0, 64, 69
1, 821655, Control_c, 0, 64, 70
1, 821712, Note_on_c, 0, 67, 68
1, 821715, Note_on_c, 0, 46, 77
1, 821755, Note_off_c, 0, 73, 55
1, 821776, Note_off_c, 0, 53, 59
1, 821798, Note_off_c, 0, 68, 60
1, 821827, Control_c, 0, 64, 69
1, 821857, Control_c, 0, 64, 68
1, 821861, Note_off_c, 0, 46, 65
1, 821863, Note_on_c, 0, 44, 79
1, 821871, Control_c, 0, 64, 67
1, 821886, Control_c, 0, 64, 66
1, 821901, Control_c, 0, 64, 64
1, 821915, Control_c, 0, 64, 61
1, 821930, Control_c, 0, 64, 59
1, 821945, Control_c, 0, 64, 57
1, 821960, Control_c, 0, 64, 54
1, 821975, Control_c, 0, 64, 51
1, 821975, Control_c, 0, 67, 19
1, 821989, Control_c, 0, 64, 42
1, 822004, Control_c, 0, 64, 0
1, 822016, Note_off_c, 0, 44, 66
1, 822034, Note_on_c, 0, 43, 76
1, 822034, Note_on_c, 0, 75, 78
1, 822051, Note_on_c, 0, 66, 61
1, 822053, Note_on_c, 0, 72, 61
1, 822072, Note_off_c, 0, 77, 62
1, 822099, Note_off_c, 0, 67, 60
1, 822174, Note_off_c, 0, 56, 44
1, 822189, Note_on_c, 0, 44, 89
1, 822197, Control_c, 0, 64, 39
1, 822209, Note_off_c, 0, 66, 63
1, 822212, Control_c, 0, 64, 61
1, 822216, Note_off_c, 0, 75, 62
1, 822223, Note_off_c, 0, 43, 62
1, 822227, Control_c, 0, 64, 67
1, 822231, Note_off_c, 0, 72, 60
1, 822242, Control_c, 0, 64, 71
1, 822256, Control_c, 0, 64, 74
1, 822271, Control_c, 0, 64, 76
1, 822271, Control_c, 0, 67, 21
1, 822315, Control_c, 0, 64, 75
1, 822330, Control_c, 0, 64, 74
1, 822345, Control_c, 0, 64, 71
1, 822360, Control_c, 0, 64, 66
1, 822375, Control_c, 0, 64, 60
1, 822389, Control_c, 0, 64, 46
1, 822404, Control_c, 0, 64, 0
1, 822425, Note_off_c, 0, 44, 63
1, 822429, Note_on_c, 0, 75, 70
1, 822443, Note_on_c, 0, 72, 55
1, 822453, Note_on_c, 0, 66, 55
1, 822455, Note_on_c, 0, 57, 72
1, 822606, Control_c, 0, 64, 50
1, 822620, Control_c, 0, 64, 64
1, 822635, Control_c, 0, 64, 70
1, 822639, Note_off_c, 0, 57, 63
1, 822650, Control_c, 0, 64, 79
1, 822665, Control_c, 0, 64, 93
1, 822677, Note_off_c, 0, 72, 63
1, 822680, Control_c, 0, 64, 127
1, 822779, Note_off_c, 0, 66, 53
1, 822823, Note_on_c, 0, 37, 59
1, 822960, Note_on_c, 0, 73, 71
1, 822973, Note_on_c, 0, 64, 56
1, 822977, Note_on_c, 0, 46, 78
1, 822985, Note_on_c, 0, 70, 50
1, 823013, Note_off_c, 0, 75, 61
1, 823050, Control_c, 0, 67, 23
1, 823062, Note_off_c, 0, 46, 61
1, 823077, Note_off_c, 0, 73, 60
1, 823078, Note_off_c, 0, 70, 52
1, 823080, Control_c, 0, 64, 110
1, 823087, Note_off_c, 0, 64, 60
1, 823095, Control_c, 0, 64, 97
1, 823110, Control_c, 0, 64, 88
1, 823125, Control_c, 0, 64, 79
1, 823139, Control_c, 0, 64, 70
1, 823154, Note_on_c, 0, 73, 69
1, 823154, Control_c, 0, 64, 62
1, 823164, Note_on_c, 0, 46, 58
1, 823169, Control_c, 0, 64, 48
1, 823169, Note_on_c, 0, 70, 42
1, 823180, Note_on_c, 0, 65, 47
1, 823184, Control_c, 0, 64, 0
1, 823294, Control_c, 0, 64, 52
1, 823309, Control_c, 0, 64, 65
1, 823324, Control_c, 0, 64, 73
1, 823339, Control_c, 0, 64, 82
1, 823354, Control_c, 0, 64, 89
1, 823356, Note_off_c, 0, 73, 62
1, 823363, Note_off_c, 0, 70, 60
1, 823364, Note_off_c, 0, 37, 40
1, 823369, Control_c, 0, 64, 92
1, 823384, Control_c, 0, 64, 94
1, 823399, Control_c, 0, 64, 94
1, 823443, Control_c, 0, 64, 94
1, 823447, Note_off_c, 0, 65, 49
1, 823458, Control_c, 0, 64, 93
1, 823473, Control_c, 0, 64, 88
1, 823488, Control_c, 0, 64, 77
1, 823489, Note_on_c, 0, 73, 75
1, 823494, Note_on_c, 0, 62, 74
1, 823500, Note_on_c, 0, 34, 70
1, 823503, Control_c, 0, 64, 65
1, 823505, Note_on_c, 0, 70, 57
1, 823518, Control_c, 0, 64, 46
1, 823533, Control_c, 0, 64, 0
1, 823607, Control_c, 0, 64, 38
1, 823622, Control_c, 0, 64, 56
1, 823636, Control_c, 0, 64, 66
1, 823651, Control_c, 0, 64, 73
1, 823666, Control_c, 0, 64, 81
1, 823681, Control_c, 0, 64, 85
1, 823695, Control_c, 0, 64, 87
1, 823703, Note_off_c, 0, 70, 54
1, 823710, Control_c, 0, 64, 87
1, 823716, Note_off_c, 0, 73, 38
1, 823725, Control_c, 0, 64, 88
1, 823731, Note_off_c, 0, 34, 62
1, 823740, Control_c, 0, 64, 87
1, 823784, Control_c, 0, 64, 86
1, 823792, Note_off_c, 0, 62, 58
1, 823799, Control_c, 0, 64, 82
1, 823814, Control_c, 0, 64, 75
1, 823829, Control_c, 0, 64, 65
1, 823834, Note_on_c, 0, 73, 61
1, 823840, Note_on_c, 0, 63, 72
1, 823840, Note_on_c, 0, 70, 60
1, 823841, Note_on_c, 0, 35, 62
1, 823843, Control_c, 0, 64, 49
1, 823858, Control_c, 0, 64, 0
1, 823947, Control_c, 0, 64, 50
1, 823962, Control_c, 0, 64, 62
1, 823977, Control_c, 0, 64, 68
1, 823999, Control_c, 0, 64, 76
1, 824013, Control_c, 0, 64, 82
1, 824028, Control_c, 0, 64, 86
1, 824041, Note_off_c, 0, 70, 35
1, 824043, Control_c, 0, 64, 89
1, 824058, Control_c, 0, 64, 90
1, 824073, Control_c, 0, 64, 91
1, 824094, Note_off_c, 0, 73, 36
1, 824115, Note_off_c, 0, 35, 59
1, 824117, Control_c, 0, 64, 90
1, 824132, Control_c, 0, 64, 87
1, 824138, Note_off_c, 0, 63, 58
1, 824147, Control_c, 0, 64, 80
1, 824163, Control_c, 0, 64, 71
1, 824177, Note_on_c, 0, 73, 76
1, 824178, Control_c, 0, 64, 56
1, 824181, Note_on_c, 0, 64, 72
1, 824185, Note_on_c, 0, 70, 62
1, 824185, Note_on_c, 0, 36, 55
1, 824192, Control_c, 0, 64, 0
1, 824296, Control_c, 0, 64, 56
1, 824310, Control_c, 0, 64, 68
1, 824322, Note_off_c, 0, 73, 63
1, 824325, Control_c, 0, 64, 75
1, 824330, Note_off_c, 0, 64, 64
1, 824340, Control_c, 0, 64, 85
1, 824348, Note_off_c, 0, 36, 56
1, 824355, Control_c, 0, 64, 92
1, 824360, Note_off_c, 0, 70, 65
1, 824370, Control_c, 0, 64, 99
1, 824384, Control_c, 0, 64, 105
1, 824399, Control_c, 0, 64, 107
1, 824503, Control_c, 0, 64, 105
1, 824517, Control_c, 0, 64, 102
1, 824532, Control_c, 0, 64, 98
1, 824540, Note_on_c, 0, 63, 78
1, 824547, Control_c, 0, 64, 95
1, 824562, Control_c, 0, 64, 90
1, 824564, Note_on_c, 0, 36, 56
1, 824577, Control_c, 0, 64, 85
1, 824591, Control_c, 0, 64, 79
1, 824606, Control_c, 0, 64, 73
1, 824621, Control_c, 0, 64, 66
1, 824636, Control_c, 0, 64, 58
1, 824651, Control_c, 0, 64, 40
1, 824656, Note_off_c, 0, 46, 37
1, 824666, Control_c, 0, 64, 0
1, 824755, Note_on_c, 0, 66, 83
1, 824781, Note_on_c, 0, 37, 55
1, 824821, Control_c, 0, 64, 49
1, 824836, Control_c, 0, 64, 61
1, 824847, Note_off_c, 0, 63, 60
1, 824850, Control_c, 0, 64, 65
1, 824865, Control_c, 0, 64, 68
1, 824880, Control_c, 0, 64, 71
1, 824895, Control_c, 0, 64, 72
1, 824910, Control_c, 0, 64, 74
1, 824912, Note_on_c, 0, 73, 82
1, 824917, Note_on_c, 0, 45, 66
1, 824925, Control_c, 0, 64, 77
1, 824940, Control_c, 0, 64, 79
1, 824956, Control_c, 0, 64, 79
1, 824971, Control_c, 0, 64, 79
1, 824986, Control_c, 0, 64, 73
1, 825001, Control_c, 0, 64, 65
1, 825015, Control_c, 0, 64, 59
1, 825026, Note_off_c, 0, 66, 56
1, 825030, Control_c, 0, 64, 61
1, 825045, Note_off_c, 0, 45, 56
1, 825045, Control_c, 0, 64, 66
1, 825055, Note_off_c, 0, 36, 35
1, 825059, Control_c, 0, 64, 72
1, 825065, Note_on_c, 0, 76, 80
1, 825069, Note_on_c, 0, 44, 66
1, 825074, Control_c, 0, 64, 78
1, 825081, Note_off_c, 0, 37, 53
1, 825089, Control_c, 0, 64, 84
1, 825104, Control_c, 0, 64, 87
1, 825119, Control_c, 0, 64, 89
1, 825134, Control_c, 0, 64, 89
1, 825134, Control_c, 0, 67, 25
1, 825137, Note_off_c, 0, 73, 43
1, 825149, Control_c, 0, 64, 90
1, 825208, Control_c, 0, 64, 89
1, 825208, Note_off_c, 0, 44, 63
1, 825215, Note_on_c, 0, 72, 83
1, 825223, Control_c, 0, 64, 85
1, 825238, Control_c, 0, 64, 75
1, 825240, Note_off_c, 0, 76, 60
1, 825243, Note_on_c, 0, 52, 64
1, 825252, Control_c, 0, 64, 64
1, 825267, Control_c, 0, 64, 50
1, 825282, Control_c, 0, 64, 36
1, 825297, Control_c, 0, 64, 41
1, 825312, Control_c, 0, 64, 52
1, 825326, Control_c, 0, 64, 61
1, 825341, Control_c, 0, 64, 65
1, 825356, Control_c, 0, 64, 69
1, 825357, Note_off_c, 0, 72, 61
1, 825366, Note_off_c, 0, 52, 61
1, 825367, Note_on_c, 0, 63, 75
1, 825371, Control_c, 0, 64, 72
1, 825385, Note_on_c, 0, 51, 67
1, 825386, Control_c, 0, 64, 76
1, 825401, Control_c, 0, 64, 79
1, 825415, Control_c, 0, 64, 80
1, 825430, Control_c, 0, 64, 80
1, 825459, Control_c, 0, 64, 81
1, 825527, Control_c, 0, 64, 80
1, 825545, Note_on_c, 0, 71, 81
1, 825550, Note_off_c, 0, 51, 54
1, 825556, Control_c, 0, 64, 79
1, 825570, Note_off_c, 0, 63, 59
1, 825571, Control_c, 0, 64, 76
1, 825580, Note_on_c, 0, 59, 41
1, 825586, Control_c, 0, 64, 68
1, 825601, Control_c, 0, 64, 59
1, 825615, Control_c, 0, 64, 39
1, 825630, Control_c, 0, 64, 0
1, 825674, Control_c, 0, 64, 39
1, 825674, Control_c, 0, 67, 27
1, 825685, Note_off_c, 0, 71, 63
1, 825689, Control_c, 0, 64, 56
1, 825704, Note_on_c, 0, 62, 72
1, 825704, Control_c, 0, 64, 62
1, 825718, Note_off_c, 0, 59, 61
1, 825719, Control_c, 0, 64, 63
1, 825726, Note_on_c, 0, 58, 59
1, 825733, Control_c, 0, 64, 63
1, 825748, Control_c, 0, 64, 61
1, 825764, Control_c, 0, 64, 57
1, 825779, Control_c, 0, 64, 53
1, 825794, Control_c, 0, 64, 49
1, 825809, Control_c, 0, 64, 45
1, 825824, Control_c, 0, 64, 42
1, 825838, Control_c, 0, 64, 36
1, 825838, Control_c, 0, 67, 29
1, 825853, Control_c, 0, 64, 0
1, 825882, Note_on_c, 0, 70, 71
1, 825883, Note_off_c, 0, 58, 58
1, 825891, Note_on_c, 0, 54, 49
1, 825941, Note_off_c, 0, 62, 61
1, 826001, Control_c, 0, 64, 49
1, 826016, Control_c, 0, 64, 60
1, 826031, Control_c, 0, 64, 64
1, 826046, Control_c, 0, 64, 65
1, 826061, Control_c, 0, 64, 64
1, 826063, Note_off_c, 0, 54, 63
1, 826075, Control_c, 0, 64, 62
1, 826079, Note_on_c, 0, 53, 45
1, 826090, Control_c, 0, 64, 57
1, 826105, Control_c, 0, 64, 46
1, 826120, Control_c, 0, 64, 0
1, 826241, Note_on_c, 0, 61, 63
1, 826260, Control_c, 0, 64, 37
1, 826275, Control_c, 0, 64, 50
1, 826290, Control_c, 0, 64, 61
1, 826305, Control_c, 0, 64, 63
1, 826320, Control_c, 0, 64, 64
1, 826328, Note_off_c, 0, 70, 60
1, 826335, Control_c, 0, 64, 65
1, 826350, Control_c, 0, 64, 67
1, 826355, Note_off_c, 0, 53, 59
1, 826364, Control_c, 0, 64, 70
1, 826379, Control_c, 0, 64, 74
1, 826394, Control_c, 0, 64, 77
1, 826397, Note_on_c, 0, 60, 69
1, 826402, Note_on_c, 0, 52, 43
1, 826408, Note_off_c, 0, 61, 60
1, 826408, Control_c, 0, 64, 79
1, 826423, Control_c, 0, 64, 79
1, 826542, Control_c, 0, 64, 79
1, 826558, Control_c, 0, 64, 78
1, 826573, Control_c, 0, 64, 77
1, 826586, Note_off_c, 0, 52, 58
1, 826587, Control_c, 0, 64, 75
1, 826597, Note_off_c, 0, 60, 65
1, 826602, Control_c, 0, 64, 74
1, 826603, Note_on_c, 0, 59, 73
1, 826617, Control_c, 0, 64, 72
1, 826631, Control_c, 0, 64, 70
1, 826634, Note_on_c, 0, 51, 57
1, 826646, Control_c, 0, 64, 68
1, 826661, Control_c, 0, 64, 66
1, 826676, Control_c, 0, 64, 63
1, 826691, Control_c, 0, 64, 60
1, 826705, Control_c, 0, 64, 51
1, 826720, Control_c, 0, 64, 0
1, 826789, Note_on_c, 0, 68, 65
1, 826869, Control_c, 0, 64, 39
1, 826883, Control_c, 0, 64, 50
1, 826898, Control_c, 0, 64, 57
1, 826913, Control_c, 0, 64, 60
1, 826928, Control_c, 0, 64, 60
1, 826939, Note_off_c, 0, 59, 51
1, 826944, Note_on_c, 0, 72, 59
1, 826958, Control_c, 0, 64, 58
1, 826969, Note_off_c, 0, 68, 62
1, 826979, Control_c, 0, 64, 53
1, 826994, Control_c, 0, 64, 48
1, 827009, Control_c, 0, 64, 40
1, 827024, Control_c, 0, 64, 0
1, 827098, Control_c, 0, 64, 43
1, 827111, Note_off_c, 0, 72, 57
1, 827113, Control_c, 0, 64, 55
1, 827119, Note_on_c, 0, 44, 64
1, 827121, Note_on_c, 0, 70, 55
1, 827122, Note_on_c, 0, 64, 53
1, 827128, Control_c, 0, 64, 62
1, 827136, Note_on_c, 0, 67, 32
1, 827143, Control_c, 0, 64, 66
1, 827158, Control_c, 0, 64, 69
1, 827173, Control_c, 0, 64, 71
1, 827187, Control_c, 0, 64, 73
1, 827190, Note_off_c, 0, 51, 38
1, 827202, Control_c, 0, 64, 74
1, 827208, Note_off_c, 0, 64, 60
1, 827217, Control_c, 0, 64, 74
1, 827224, Note_off_c, 0, 44, 62
1, 827227, Note_off_c, 0, 67, 54
1, 827228, Note_off_c, 0, 70, 60
1, 827276, Control_c, 0, 64, 74
1, 827291, Control_c, 0, 64, 73
1, 827305, Control_c, 0, 64, 71
1, 827311, Note_on_c, 0, 70, 57
1, 827320, Control_c, 0, 64, 67
1, 827324, Note_on_c, 0, 44, 64
1, 827334, Note_on_c, 0, 66, 42
1, 827335, Control_c, 0, 64, 62
1, 827339, Note_on_c, 0, 65, 53
1, 827350, Control_c, 0, 64, 53
1, 827366, Control_c, 0, 64, 30
1, 827381, Control_c, 0, 64, 0
1, 827423, Note_off_c, 0, 65, 64
1, 827434, Note_off_c, 0, 66, 61
1, 827440, Control_c, 0, 64, 43
1, 827451, Note_off_c, 0, 70, 65
1, 827454, Control_c, 0, 64, 57
1, 827469, Control_c, 0, 64, 64
1, 827484, Control_c, 0, 64, 66
1, 827499, Control_c, 0, 64, 66
1, 827543, Control_c, 0, 64, 66
1, 827573, Control_c, 0, 64, 65
1, 827588, Control_c, 0, 64, 64
1, 827602, Control_c, 0, 64, 62
1, 827617, Control_c, 0, 64, 61
1, 827632, Control_c, 0, 64, 59
1, 827647, Control_c, 0, 64, 55
1, 827661, Control_c, 0, 64, 50
1, 827669, Note_on_c, 0, 63, 70
1, 827676, Control_c, 0, 64, 39
1, 827691, Control_c, 0, 64, 0
1, 827694, Note_on_c, 0, 59, 50
1, 827701, Note_on_c, 0, 60, 37
1, 827787, Note_off_c, 0, 60, 46
1, 827788, Control_c, 0, 64, 43
1, 827803, Control_c, 0, 64, 56
1, 827816, Note_off_c, 0, 59, 60
1, 827817, Control_c, 0, 64, 63
1, 827832, Control_c, 0, 64, 67
1, 827847, Control_c, 0, 64, 69
1, 827861, Control_c, 0, 64, 69
1, 827876, Control_c, 0, 64, 70
1, 827966, Control_c, 0, 64, 69
1, 827980, Control_c, 0, 64, 68
1, 827995, Control_c, 0, 64, 66
1, 828010, Control_c, 0, 64, 63
1, 828025, Control_c, 0, 64, 60
1, 828025, Note_on_c, 0, 65, 60
1, 828029, Note_off_c, 0, 44, 58
1, 828040, Note_on_c, 0, 58, 43
1, 828040, Note_off_c, 0, 63, 48
1, 828040, Control_c, 0, 64, 54
1, 828050, Note_on_c, 0, 46, 57
1, 828054, Control_c, 0, 64, 43
1, 828059, Note_on_c, 0, 61, 38
1, 828069, Control_c, 0, 64, 0
1, 828159, Control_c, 0, 64, 40
1, 828174, Note_off_c, 0, 61, 57
1, 828174, Control_c, 0, 64, 56
1, 828177, Note_off_c, 0, 65, 64
1, 828183, Note_off_c, 0, 58, 63
1, 828189, Control_c, 0, 64, 60
1, 828209, Note_on_c, 0, 44, 58
1, 828219, Control_c, 0, 64, 58
1, 828233, Control_c, 0, 64, 57
1, 828248, Control_c, 0, 64, 55
1, 828263, Control_c, 0, 64, 53
1, 828264, Note_off_c, 0, 46, 38
1, 828277, Control_c, 0, 64, 49
1, 828292, Control_c, 0, 64, 43
1, 828307, Control_c, 0, 64, 32
1, 828322, Control_c, 0, 64, 0
1, 828368, Note_off_c, 0, 44, 58
1, 828377, Note_on_c, 0, 66, 56
1, 828383, Note_on_c, 0, 62, 52
1, 828386, Note_on_c, 0, 59, 51
1, 828392, Note_on_c, 0, 43, 47
1, 828499, Note_off_c, 0, 59, 61
1, 828522, Control_c, 0, 64, 35
1, 828537, Control_c, 0, 64, 55
1, 828551, Note_on_c, 0, 44, 59
1, 828551, Note_off_c, 0, 43, 59
1, 828552, Control_c, 0, 64, 64
1, 828566, Control_c, 0, 64, 67
1, 828566, Control_c, 0, 67, 27
1, 828568, Note_off_c, 0, 62, 56
1, 828581, Control_c, 0, 64, 70
1, 828594, Note_off_c, 0, 66, 51
1, 828596, Control_c, 0, 64, 72
1, 828610, Control_c, 0, 64, 73
1, 828625, Control_c, 0, 64, 74
1, 828640, Control_c, 0, 64, 74
1, 828684, Control_c, 0, 64, 74
1, 828729, Control_c, 0, 64, 73
1, 828744, Control_c, 0, 64, 71
1, 828751, Note_off_c, 0, 44, 57
1, 828758, Control_c, 0, 64, 69
1, 828773, Control_c, 0, 64, 66
1, 828777, Note_on_c, 0, 67, 70
1, 828788, Control_c, 0, 64, 64
1, 828793, Note_on_c, 0, 64, 48
1, 828803, Note_on_c, 0, 56, 66
1, 828803, Note_on_c, 0, 61, 48
1, 828803, Control_c, 0, 64, 63
1, 828818, Control_c, 0, 64, 61
1, 828833, Control_c, 0, 64, 60
1, 828848, Control_c, 0, 64, 58
1, 828863, Control_c, 0, 64, 55
1, 828877, Control_c, 0, 64, 50
1, 828892, Control_c, 0, 64, 42
1, 828907, Control_c, 0, 64, 0
1, 829241, Control_c, 0, 64, 37
1, 829256, Control_c, 0, 64, 52
1, 829271, Control_c, 0, 64, 60
1, 829286, Control_c, 0, 64, 62
1, 829301, Control_c, 0, 64, 63
1, 829315, Note_on_c, 0, 46, 57
1, 829315, Control_c, 0, 64, 64
1, 829330, Control_c, 0, 64, 66
1, 829345, Control_c, 0, 64, 67
1, 829360, Control_c, 0, 64, 68
1, 829369, Note_off_c, 0, 56, 53
1, 829375, Control_c, 0, 64, 69
1, 829389, Control_c, 0, 64, 69
1, 829405, Note_off_c, 0, 64, 56
1, 829507, Control_c, 0, 64, 68
1, 829514, Note_on_c, 0, 68, 64
1, 829522, Control_c, 0, 64, 66
1, 829533, Note_on_c, 0, 44, 59
1, 829537, Control_c, 0, 64, 62
1, 829542, Note_on_c, 0, 65, 50
1, 829545, Note_off_c, 0, 46, 48
1, 829548, Note_off_c, 0, 67, 62
1, 829551, Control_c, 0, 64, 56
1, 829566, Control_c, 0, 64, 47
1, 829581, Control_c, 0, 64, 41
1, 829596, Control_c, 0, 64, 42
1, 829611, Control_c, 0, 64, 47
1, 829626, Control_c, 0, 64, 54
1, 829641, Control_c, 0, 64, 59
1, 829656, Control_c, 0, 64, 62
1, 829657, Note_on_c, 0, 43, 52
1, 829671, Control_c, 0, 64, 65
1, 829686, Control_c, 0, 64, 68
1, 829700, Note_off_c, 0, 44, 55
1, 829700, Control_c, 0, 64, 70
1, 829715, Control_c, 0, 64, 72
1, 829730, Control_c, 0, 64, 73
1, 829745, Control_c, 0, 64, 74
1, 829760, Control_c, 0, 64, 75
1, 829796, Note_off_c, 0, 43, 62
1, 829835, Control_c, 0, 64, 73
1, 829847, Note_on_c, 0, 44, 56
1, 829849, Control_c, 0, 64, 70
1, 829864, Control_c, 0, 64, 67
1, 829879, Control_c, 0, 64, 67
1, 829894, Control_c, 0, 64, 67
1, 829909, Control_c, 0, 64, 68
1, 829923, Control_c, 0, 64, 70
1, 829938, Control_c, 0, 64, 70
1, 829975, Control_c, 0, 67, 29
1, 829987, Note_off_c, 0, 44, 64
1, 830004, Control_c, 0, 64, 69
1, 830018, Note_on_c, 0, 36, 62
1, 830019, Control_c, 0, 64, 68
1, 830034, Control_c, 0, 64, 67
1, 830049, Control_c, 0, 64, 66
1, 830064, Control_c, 0, 64, 65
1, 830079, Control_c, 0, 64, 63
1, 830094, Control_c, 0, 64, 60
1, 830109, Control_c, 0, 64, 58
1, 830124, Control_c, 0, 64, 56
1, 830138, Control_c, 0, 64, 54
1, 830153, Control_c, 0, 64, 52
1, 830156, Note_off_c, 0, 36, 58
1, 830168, Control_c, 0, 64, 50
1, 830183, Control_c, 0, 64, 47
1, 830198, Control_c, 0, 64, 42
1, 830201, Note_on_c, 0, 39, 53
1, 830213, Control_c, 0, 64, 36
1, 830228, Control_c, 0, 64, 0
1, 830347, Note_off_c, 0, 39, 61
1, 830375, Note_on_c, 0, 31, 44
1, 830580, Note_on_c, 0, 35, 48
1, 830619, Note_off_c, 0, 31, 37
1, 830788, Note_on_c, 0, 36, 38
1, 830813, Control_c, 0, 64, 34
1, 830820, Note_off_c, 0, 35, 33
1, 830828, Control_c, 0, 64, 46
1, 830843, Control_c, 0, 64, 55
1, 830858, Control_c, 0, 64, 60
1, 830872, Control_c, 0, 64, 60
1, 830887, Control_c, 0, 64, 61
1, 830917, Control_c, 0, 64, 60
1, 830940, Note_off_c, 0, 65, 55
1, 830946, Control_c, 0, 64, 59
1, 830961, Control_c, 0, 64, 58
1, 830976, Control_c, 0, 64, 55
1, 830979, Note_off_c, 0, 61, 60
1, 830991, Control_c, 0, 64, 53
1, 830996, Note_off_c, 0, 68, 54
1, 831006, Control_c, 0, 64, 49
1, 831021, Control_c, 0, 64, 42
1, 831036, Control_c, 0, 64, 0
1, 831073, Note_off_c, 0, 36, 52
1, 831088, Note_on_c, 0, 32, 48
1, 831258, Control_c, 0, 67, 32
1, 831272, Control_c, 0, 67, 32
1, 831287, Control_c, 0, 67, 35
1, 831302, Control_c, 0, 67, 44
1, 831317, Control_c, 0, 67, 53
1, 831331, Control_c, 0, 67, 61
1, 831348, Control_c, 0, 67, 70
1, 831363, Control_c, 0, 64, 47
1, 831363, Control_c, 0, 67, 80
1, 831377, Control_c, 0, 64, 62
1, 831377, Control_c, 0, 67, 93
1, 831392, Control_c, 0, 64, 71
1, 831392, Control_c, 0, 67, 110
1, 831407, Note_off_c, 0, 32, 63
1, 831407, Control_c, 0, 64, 85
1, 831407, Control_c, 0, 67, 127
1, 831421, Control_c, 0, 64, 113
1, 831436, Control_c, 0, 64, 127
1, 831757, Note_on_c, 0, 92, 67
1, 831761, Note_on_c, 0, 68, 45
1, 831766, Note_on_c, 0, 88, 54
1, 831768, Note_on_c, 0, 64, 45
1, 831805, Note_off_c, 0, 88, 61
1, 831832, Note_off_c, 0, 64, 46
1, 831847, Note_off_c, 0, 92, 54
1, 831863, Note_off_c, 0, 68, 40
1, 832143, Note_on_c, 0, 92, 66
1, 832160, Note_on_c, 0, 68, 51
1, 832161, Note_on_c, 0, 59, 31
1, 832167, Note_on_c, 0, 83, 50
1, 832202, Note_off_c, 0, 68, 61
1, 832213, Note_off_c, 0, 83, 53
1, 832215, Note_off_c, 0, 59, 50
1, 832225, Note_off_c, 0, 92, 62
1, 832517, Note_on_c, 0, 92, 63
1, 832535, Note_on_c, 0, 56, 46
1, 832550, Note_on_c, 0, 83, 46
1, 832573, Note_off_c, 0, 83, 59
1, 832579, Note_off_c, 0, 92, 65
1, 832705, Note_on_c, 0, 51, 41
1, 832858, Note_off_c, 0, 51, 0
1, 832882, Note_on_c, 0, 87, 64
1, 832895, Note_on_c, 0, 83, 49
1, 832896, Poly_aftertouch_c, 0, 51, 127
1, 832896, Note_on_c, 0, 63, 45
1, 832948, Note_off_c, 0, 63, 62
1, 832953, Note_off_c, 0, 56, 40
1, 832974, Note_off_c, 0, 83, 47
1, 832985, Poly_aftertouch_c, 0, 51, 0
1, 832989, Note_off_c, 0, 87, 58
1, 833223, Control_c, 0, 64, 110
1, 833238, Control_c, 0, 64, 88
1, 833253, Control_c, 0, 64, 72
1, 833268, Control_c, 0, 64, 58
1, 833274, Note_on_c, 0, 87, 61
1, 833282, Control_c, 0, 64, 54
1, 833288, Note_on_c, 0, 44, 41
1, 833291, Note_on_c, 0, 83, 48
1, 833297, Control_c, 0, 64, 59
1, 833298, Note_on_c, 0, 32, 39
1, 833312, Control_c, 0, 64, 64
1, 833326, Control_c, 0, 64, 69
1, 833341, Control_c, 0, 64, 73
1, 833352, Note_off_c, 0, 83, 47
1, 833356, Control_c, 0, 64, 77
1, 833363, Note_off_c, 0, 44, 58
1, 833365, Note_off_c, 0, 32, 56
1, 833371, Control_c, 0, 64, 79
1, 833386, Control_c, 0, 64, 83
1, 833400, Control_c, 0, 64, 87
1, 833415, Control_c, 0, 64, 91
1, 833419, Note_off_c, 0, 87, 42
1, 833430, Control_c, 0, 64, 94
1, 833445, Control_c, 0, 64, 96
1, 833460, Control_c, 0, 64, 99
1, 833474, Control_c, 0, 64, 101
1, 833504, Control_c, 0, 64, 104
1, 833625, Note_on_c, 0, 87, 66
1, 833638, Note_on_c, 0, 32, 41
1, 833643, Note_on_c, 0, 44, 40
1, 833646, Note_on_c, 0, 78, 48
1, 833687, Note_off_c, 0, 32, 60
1, 833689, Note_off_c, 0, 44, 63
1, 833696, Note_off_c, 0, 78, 53
1, 833698, Note_off_c, 0, 87, 62
1, 833779, Control_c, 0, 64, 107
1, 833809, Control_c, 0, 64, 109
1, 833898, Control_c, 0, 64, 111
1, 834007, Note_on_c, 0, 87, 67
1, 834015, Note_on_c, 0, 78, 49
1, 834020, Note_on_c, 0, 63, 50
1, 834037, Note_on_c, 0, 54, 35
1, 834068, Note_off_c, 0, 78, 43
1, 834088, Note_off_c, 0, 87, 57
1, 834093, Note_off_c, 0, 63, 55
1, 834112, Note_off_c, 0, 54, 40
1, 834209, Control_c, 0, 64, 113
1, 834371, Note_on_c, 0, 82, 67
1, 834386, Note_on_c, 0, 78, 46
1, 834389, Note_on_c, 0, 54, 40
1, 834401, Note_on_c, 0, 58, 41
1, 834443, Note_off_c, 0, 58, 53
1, 834448, Note_off_c, 0, 54, 51
1, 834448, Note_off_c, 0, 82, 59
1, 834479, Note_off_c, 0, 78, 38
1, 834744, Note_on_c, 0, 82, 65
1, 834757, Note_on_c, 0, 78, 53
1, 834765, Note_on_c, 0, 54, 43
1, 834802, Note_off_c, 0, 78, 48
1, 834828, Note_off_c, 0, 82, 57
1, 834923, Note_on_c, 0, 49, 44
1, 834981, Note_off_c, 0, 54, 38
1, 835032, Control_c, 0, 64, 106
1, 835046, Control_c, 0, 64, 97
1, 835061, Control_c, 0, 64, 89
1, 835076, Control_c, 0, 64, 84
1, 835090, Control_c, 0, 64, 82
1, 835105, Control_c, 0, 64, 82
1, 835110, Note_on_c, 0, 82, 64
1, 835129, Note_on_c, 0, 73, 41
1, 835133, Note_on_c, 0, 61, 43
1, 835135, Control_c, 0, 64, 82
1, 835150, Control_c, 0, 64, 83
1, 835164, Control_c, 0, 64, 84
1, 835176, Note_off_c, 0, 61, 63
1, 835179, Control_c, 0, 64, 85
1, 835194, Control_c, 0, 64, 87
1, 835209, Note_off_c, 0, 49, 54
1, 835209, Control_c, 0, 64, 88
1, 835221, Note_off_c, 0, 73, 49
1, 835226, Note_off_c, 0, 82, 53
1, 835232, Control_c, 0, 64, 89
1, 835246, Control_c, 0, 64, 89
1, 835261, Control_c, 0, 64, 90
1, 835276, Control_c, 0, 64, 90
1, 835291, Control_c, 0, 64, 91
1, 835305, Control_c, 0, 64, 91
1, 835395, Control_c, 0, 64, 91
1, 835410, Control_c, 0, 64, 88
1, 835424, Control_c, 0, 64, 83
1, 835439, Control_c, 0, 64, 75
1, 835454, Control_c, 0, 64, 64
1, 835468, Control_c, 0, 64, 53
1, 835483, Control_c, 0, 64, 46
1, 835488, Note_on_c, 0, 82, 51
1, 835493, Note_on_c, 0, 73, 46
1, 835497, Note_on_c, 0, 44, 56
1, 835498, Control_c, 0, 64, 49
1, 835504, Note_on_c, 0, 32, 44
1, 835513, Control_c, 0, 64, 55
1, 835528, Control_c, 0, 64, 61
1, 835543, Control_c, 0, 64, 64
1, 835549, Note_off_c, 0, 44, 62
1, 835558, Control_c, 0, 64, 68
1, 835564, Note_off_c, 0, 32, 59
1, 835573, Control_c, 0, 64, 71
1, 835581, Note_off_c, 0, 73, 53
1, 835587, Control_c, 0, 64, 75
1, 835602, Control_c, 0, 64, 79
1, 835617, Control_c, 0, 64, 83
1, 835632, Control_c, 0, 64, 85
1, 835647, Control_c, 0, 64, 87
1, 835661, Control_c, 0, 64, 89
1, 835676, Control_c, 0, 64, 90
1, 835691, Control_c, 0, 64, 92
1, 835706, Control_c, 0, 64, 93
1, 835720, Control_c, 0, 64, 94
1, 835735, Control_c, 0, 64, 94
1, 835739, Note_off_c, 0, 82, 37
1, 835750, Control_c, 0, 64, 95
1, 835765, Control_c, 0, 64, 95
1, 835839, Control_c, 0, 64, 92
1, 835854, Control_c, 0, 64, 84
1, 835868, Control_c, 0, 64, 75
1, 835881, Note_on_c, 0, 77, 58
1, 835883, Control_c, 0, 64, 70
1, 835886, Note_on_c, 0, 53, 74
1, 835898, Control_c, 0, 64, 69
1, 835911, Note_on_c, 0, 49, 59
1, 835913, Control_c, 0, 64, 70
1, 835918, Note_on_c, 0, 73, 38
1, 835928, Control_c, 0, 64, 74
1, 835942, Control_c, 0, 64, 79
1, 835949, Note_off_c, 0, 49, 57
1, 835957, Control_c, 0, 64, 84
1, 835980, Control_c, 0, 64, 89
1, 835994, Control_c, 0, 64, 95
1, 836009, Control_c, 0, 64, 101
1, 836024, Control_c, 0, 64, 107
1, 836029, Note_off_c, 0, 53, 54
1, 836039, Control_c, 0, 64, 117
1, 836054, Note_off_c, 0, 77, 58
1, 836054, Control_c, 0, 64, 127
1, 836294, Note_on_c, 0, 77, 59
1, 836312, Note_on_c, 0, 68, 50
1, 836352, Note_off_c, 0, 73, 42
1, 836366, Control_c, 0, 67, 125
1, 836381, Control_c, 0, 67, 121
1, 836396, Control_c, 0, 67, 117
1, 836410, Control_c, 0, 67, 114
1, 836415, Note_off_c, 0, 68, 55
1, 836425, Control_c, 0, 67, 112
1, 836440, Control_c, 0, 67, 110
1, 836538, Note_off_c, 0, 77, 33
1, 836617, Control_c, 0, 64, 104
1, 836632, Control_c, 0, 64, 89
1, 836647, Control_c, 0, 64, 80
1, 836659, Note_on_c, 0, 72, 61
1, 836662, Control_c, 0, 64, 79
1, 836677, Control_c, 0, 64, 79
1, 836681, Note_on_c, 0, 32, 47
1, 836683, Note_on_c, 0, 68, 39
1, 836691, Control_c, 0, 64, 81
1, 836706, Control_c, 0, 64, 84
1, 836729, Control_c, 0, 64, 87
1, 836743, Control_c, 0, 64, 91
1, 836750, Note_off_c, 0, 32, 57
1, 836758, Control_c, 0, 64, 97
1, 836773, Control_c, 0, 64, 102
1, 836775, Note_off_c, 0, 72, 60
1, 836788, Control_c, 0, 64, 107
1, 836803, Control_c, 0, 64, 111
1, 836803, Control_c, 0, 67, 108
1, 836817, Control_c, 0, 64, 116
1, 836832, Control_c, 0, 64, 121
1, 836835, Note_off_c, 0, 68, 36
1, 836847, Control_c, 0, 64, 127
1, 837011, Control_c, 0, 64, 111
1, 837026, Control_c, 0, 64, 99
1, 837040, Control_c, 0, 64, 88
1, 837042, Note_on_c, 0, 72, 62
1, 837044, Note_on_c, 0, 56, 78
1, 837055, Control_c, 0, 64, 78
1, 837069, Note_on_c, 0, 63, 37
1, 837070, Control_c, 0, 64, 72
1, 837085, Control_c, 0, 64, 70
1, 837114, Control_c, 0, 64, 72
1, 837129, Control_c, 0, 64, 74
1, 837144, Control_c, 0, 64, 78
1, 837159, Control_c, 0, 64, 82
1, 837174, Control_c, 0, 64, 86
1, 837188, Control_c, 0, 64, 91
1, 837195, Note_off_c, 0, 63, 41
1, 837203, Control_c, 0, 64, 95
1, 837218, Control_c, 0, 64, 99
1, 837233, Control_c, 0, 64, 101
1, 837263, Control_c, 0, 64, 104
1, 837292, Control_c, 0, 64, 106
1, 837330, Note_off_c, 0, 56, 55
1, 837411, Control_c, 0, 64, 102
1, 837418, Note_on_c, 0, 66, 58
1, 837421, Note_on_c, 0, 51, 81
1, 837426, Control_c, 0, 64, 95
1, 837440, Control_c, 0, 64, 83
1, 837450, Note_off_c, 0, 72, 39
1, 837451, Note_on_c, 0, 48, 53
1, 837455, Control_c, 0, 64, 71
1, 837464, Note_on_c, 0, 63, 36
1, 837478, Control_c, 0, 64, 61
1, 837492, Control_c, 0, 64, 50
1, 837507, Control_c, 0, 64, 46
1, 837522, Control_c, 0, 64, 50
1, 837537, Control_c, 0, 64, 56
1, 837552, Control_c, 0, 64, 62
1, 837566, Control_c, 0, 64, 66
1, 837581, Control_c, 0, 64, 72
1, 837582, Note_off_c, 0, 66, 57
1, 837596, Control_c, 0, 64, 79
1, 837611, Control_c, 0, 64, 86
1, 837626, Control_c, 0, 64, 91
1, 837640, Control_c, 0, 64, 96
1, 837655, Control_c, 0, 64, 100
1, 837671, Control_c, 0, 64, 102
1, 837715, Control_c, 0, 64, 104
1, 837739, Note_off_c, 0, 63, 40
1, 837776, Control_c, 0, 64, 99
1, 837790, Control_c, 0, 64, 92
1, 837800, Note_on_c, 0, 66, 61
1, 837803, Note_on_c, 0, 56, 84
1, 837805, Control_c, 0, 64, 81
1, 837820, Control_c, 0, 64, 69
1, 837835, Note_on_c, 0, 58, 39
1, 837835, Control_c, 0, 64, 57
1, 837850, Control_c, 0, 64, 40
1, 837864, Control_c, 0, 64, 37
1, 837879, Control_c, 0, 64, 44
1, 837894, Control_c, 0, 64, 55
1, 837900, Note_off_c, 0, 51, 49
1, 837904, Note_off_c, 0, 58, 57
1, 837909, Control_c, 0, 64, 63
1, 837923, Control_c, 0, 64, 69
1, 837938, Control_c, 0, 64, 78
1, 837953, Control_c, 0, 64, 87
1, 837968, Control_c, 0, 64, 94
1, 837968, Control_c, 0, 67, 106
1, 837983, Control_c, 0, 64, 99
1, 837997, Control_c, 0, 64, 104
1, 838012, Control_c, 0, 64, 107
1, 838012, Control_c, 0, 67, 100
1, 838027, Control_c, 0, 64, 109
1, 838027, Control_c, 0, 67, 95
1, 838042, Control_c, 0, 67, 91
1, 838043, Note_off_c, 0, 48, 29
1, 838057, Control_c, 0, 64, 111
1, 838057, Control_c, 0, 67, 88
1, 838061, Note_off_c, 0, 56, 51
1, 838071, Control_c, 0, 67, 84
1, 838086, Control_c, 0, 67, 82
1, 838101, Control_c, 0, 67, 81
1, 838115, Control_c, 0, 67, 81
1, 838145, Control_c, 0, 67, 80
1, 838167, Note_on_c, 0, 63, 68
1, 838173, Note_on_c, 0, 49, 84
1, 838190, Control_c, 0, 64, 105
1, 838192, Note_on_c, 0, 46, 67
1, 838192, Note_on_c, 0, 58, 49
1, 838212, Control_c, 0, 64, 95
1, 838221, Note_off_c, 0, 66, 61
1, 838227, Control_c, 0, 64, 80
1, 838241, Control_c, 0, 64, 64
1, 838256, Control_c, 0, 64, 31
1, 838271, Control_c, 0, 64, 0
1, 838315, Control_c, 0, 64, 40
1, 838330, Control_c, 0, 64, 58
1, 838345, Control_c, 0, 64, 66
1, 838360, Control_c, 0, 64, 72
1, 838375, Control_c, 0, 64, 77
1, 838383, Note_off_c, 0, 63, 61
1, 838390, Control_c, 0, 64, 80
1, 838405, Control_c, 0, 64, 83
1, 838419, Control_c, 0, 64, 86
1, 838434, Control_c, 0, 64, 88
1, 838434, Control_c, 0, 67, 80
1, 838448, Control_c, 0, 64, 91
1, 838463, Control_c, 0, 64, 94
1, 838467, Note_off_c, 0, 58, 55
1, 838478, Control_c, 0, 64, 97
1, 838493, Control_c, 0, 64, 99
1, 838519, Note_off_c, 0, 46, 54
1, 838522, Note_off_c, 0, 49, 61
1, 838522, Control_c, 0, 64, 96
1, 838538, Control_c, 0, 64, 84
1, 838552, Note_on_c, 0, 63, 63
1, 838553, Control_c, 0, 64, 75
1, 838553, Control_c, 0, 67, 80
1, 838568, Control_c, 0, 64, 71
1, 838572, Note_on_c, 0, 54, 50
1, 838583, Control_c, 0, 64, 72
1, 838598, Control_c, 0, 64, 76
1, 838612, Control_c, 0, 64, 80
1, 838612, Control_c, 0, 67, 81
1, 838627, Control_c, 0, 64, 82
1, 838654, Note_off_c, 0, 54, 63
1, 838672, Control_c, 0, 64, 84
1, 838684, Note_off_c, 0, 63, 62
1, 838686, Control_c, 0, 64, 88
1, 838701, Control_c, 0, 64, 94
1, 838713, Note_on_c, 0, 48, 79
1, 838716, Note_on_c, 0, 44, 76
1, 838716, Control_c, 0, 64, 100
1, 838731, Control_c, 0, 64, 104
1, 838745, Control_c, 0, 64, 107
1, 838771, Note_off_c, 0, 48, 63
1, 838775, Control_c, 0, 64, 109
1, 838790, Control_c, 0, 64, 112
1, 838805, Control_c, 0, 64, 116
1, 838923, Control_c, 0, 64, 113
1, 838938, Control_c, 0, 64, 109
1, 838953, Control_c, 0, 64, 103
1, 838975, Control_c, 0, 64, 97
1, 838988, Note_on_c, 0, 58, 85
1, 838990, Note_on_c, 0, 49, 74
1, 838990, Control_c, 0, 64, 90
1, 838991, Note_on_c, 0, 54, 61
1, 839005, Control_c, 0, 64, 81
1, 839017, Note_on_c, 0, 51, 40
1, 839019, Control_c, 0, 64, 72
1, 839033, Note_off_c, 0, 44, 58
1, 839034, Control_c, 0, 64, 62
1, 839049, Control_c, 0, 64, 39
1, 839063, Control_c, 0, 64, 0
1, 839168, Control_c, 0, 67, 80
1, 839198, Control_c, 0, 64, 43
1, 839198, Control_c, 0, 67, 80
1, 839212, Control_c, 0, 64, 58
1, 839227, Control_c, 0, 64, 63
1, 839240, Note_off_c, 0, 54, 53
1, 839242, Control_c, 0, 64, 68
1, 839256, Control_c, 0, 64, 73
1, 839256, Control_c, 0, 67, 80
1, 839271, Control_c, 0, 64, 78
1, 839271, Control_c, 0, 67, 81
1, 839286, Control_c, 0, 64, 79
1, 839301, Control_c, 0, 67, 81
1, 839302, Note_off_c, 0, 51, 40
1, 839316, Control_c, 0, 67, 82
1, 839332, Control_c, 0, 67, 83
1, 839347, Control_c, 0, 64, 78
1, 839347, Control_c, 0, 67, 83
1, 839361, Control_c, 0, 64, 71
1, 839361, Control_c, 0, 67, 84
1, 839370, Note_on_c, 0, 54, 60
1, 839376, Control_c, 0, 64, 60
1, 839376, Control_c, 0, 67, 84
1, 839382, Note_on_c, 0, 46, 59
1, 839391, Control_c, 0, 64, 35
1, 839391, Control_c, 0, 67, 85
1, 839406, Control_c, 0, 64, 0
1, 839421, Control_c, 0, 67, 86
1, 839435, Control_c, 0, 64, 36
1, 839435, Control_c, 0, 67, 86
1, 839450, Control_c, 0, 64, 57
1, 839465, Control_c, 0, 64, 66
1, 839470, Note_off_c, 0, 46, 62
1, 839480, Control_c, 0, 64, 72
1, 839480, Control_c, 0, 67, 87
1, 839494, Control_c, 0, 64, 77
1, 839494, Control_c, 0, 67, 88
1, 839509, Control_c, 0, 64, 80
1, 839509, Control_c, 0, 67, 89
1, 839524, Control_c, 0, 64, 82
1, 839524, Control_c, 0, 67, 90
1, 839539, Control_c, 0, 64, 84
1, 839539, Control_c, 0, 67, 91
1, 839554, Control_c, 0, 64, 86
1, 839554, Control_c, 0, 67, 91
1, 839568, Control_c, 0, 64, 88
1, 839568, Control_c, 0, 67, 92
1, 839583, Control_c, 0, 64, 89
1, 839583, Control_c, 0, 67, 92
1, 839598, Control_c, 0, 64, 89
1, 839598, Control_c, 0, 67, 94
1, 839613, Control_c, 0, 67, 96
1, 839628, Control_c, 0, 67, 100
1, 839642, Control_c, 0, 64, 88
1, 839642, Control_c, 0, 67, 108
1, 839657, Control_c, 0, 64, 81
1, 839657, Control_c, 0, 67, 117
1, 839672, Control_c, 0, 64, 70
1, 839672, Control_c, 0, 67, 124
1, 839686, Control_c, 0, 64, 58
1, 839686, Control_c, 0, 67, 127
1, 839700, Note_off_c, 0, 54, 61
1, 839701, Control_c, 0, 64, 48
1, 839724, Control_c, 0, 64, 52
1, 839725, Note_on_c, 0, 51, 45
1, 839739, Control_c, 0, 64, 61
1, 839754, Control_c, 0, 64, 68
1, 839768, Control_c, 0, 64, 74
1, 839783, Control_c, 0, 64, 78
1, 839789, Note_off_c, 0, 51, 56
1, 839798, Control_c, 0, 64, 78
1, 839821, Note_on_c, 0, 53, 54
1, 839828, Control_c, 0, 64, 76
1, 839842, Control_c, 0, 64, 67
1, 839857, Control_c, 0, 64, 56
1, 839872, Control_c, 0, 64, 31
1, 839883, Note_off_c, 0, 53, 59
1, 839886, Control_c, 0, 64, 0
1, 839907, Note_on_c, 0, 54, 50
1, 839946, Control_c, 0, 64, 31
1, 839952, Note_off_c, 0, 54, 62
1, 839961, Control_c, 0, 64, 52
1, 839963, Note_on_c, 0, 56, 64
1, 839976, Control_c, 0, 64, 63
1, 839988, Note_off_c, 0, 56, 65
1, 839990, Control_c, 0, 64, 66
1, 840005, Control_c, 0, 64, 66
1, 840028, Note_on_c, 0, 57, 58
1, 840050, Control_c, 0, 64, 67
1, 840063, Note_off_c, 0, 57, 66
1, 840065, Note_off_c, 0, 49, 64
1, 840065, Control_c, 0, 64, 68
1, 840079, Control_c, 0, 64, 68
1, 840094, Control_c, 0, 64, 69
1, 840099, Note_on_c, 0, 60, 58
1, 840109, Control_c, 0, 64, 69
1, 840140, Control_c, 0, 64, 70
1, 840152, Note_off_c, 0, 60, 61
1, 840173, Note_on_c, 0, 61, 55
1, 840220, Note_off_c, 0, 61, 62
1, 840221, Note_off_c, 0, 58, 56
1, 840244, Note_on_c, 0, 63, 42
1, 840270, Note_off_c, 0, 63, 57
1, 840332, Control_c, 0, 64, 69
1, 840343, Note_on_c, 0, 54, 54
1, 840347, Control_c, 0, 64, 68
1, 840362, Control_c, 0, 64, 66
1, 840377, Control_c, 0, 64, 61
1, 840391, Control_c, 0, 64, 53
1, 840406, Control_c, 0, 64, 38
1, 840421, Control_c, 0, 64, 0
1, 840431, Note_on_c, 0, 56, 47
1, 840505, Note_on_c, 0, 58, 54
1, 840581, Note_on_c, 0, 60, 52
1, 840628, Note_off_c, 0, 58, 57
1, 840649, Note_on_c, 0, 61, 55
1, 840652, Note_off_c, 0, 54, 33
1, 840666, Control_c, 0, 64, 37
1, 840681, Control_c, 0, 64, 51
1, 840696, Control_c, 0, 64, 58
1, 840710, Control_c, 0, 64, 61
1, 840721, Note_on_c, 0, 63, 52
1, 840725, Control_c, 0, 64, 63
1, 840740, Control_c, 0, 64, 65
1, 840744, Note_off_c, 0, 56, 0
1, 840755, Control_c, 0, 64, 67
1, 840770, Note_off_c, 0, 63, 61
1, 840770, Control_c, 0, 64, 70
1, 840780, Poly_aftertouch_c, 0, 56, 127
1, 840784, Control_c, 0, 64, 73
1, 840786, Note_on_c, 0, 65, 52
1, 840799, Control_c, 0, 64, 75
1, 840807, Note_off_c, 0, 61, 49
1, 840811, Note_on_c, 0, 66, 65
1, 840814, Control_c, 0, 64, 78
1, 840819, Note_off_c, 0, 65, 66
1, 840829, Control_c, 0, 64, 80
1, 840837, Note_off_c, 0, 60, 42
1, 840843, Control_c, 0, 64, 82
1, 840845, Note_off_c, 0, 66, 64
1, 840856, Note_on_c, 0, 68, 57
1, 840858, Control_c, 0, 64, 84
1, 840861, Poly_aftertouch_c, 0, 56, 0
1, 840873, Control_c, 0, 64, 84
1, 840875, Note_on_c, 0, 70, 52
1, 840878, Note_off_c, 0, 68, 61
1, 840888, Control_c, 0, 64, 85
1, 840900, Note_off_c, 0, 70, 39
1, 840903, Control_c, 0, 64, 86
1, 840915, Note_on_c, 0, 72, 70
1, 840918, Control_c, 0, 64, 87
1, 840933, Control_c, 0, 64, 88
1, 840952, Note_off_c, 0, 72, 59
1, 840962, Note_on_c, 0, 73, 74
1, 840999, Note_off_c, 0, 73, 63
1, 841008, Note_on_c, 0, 75, 50
1, 841031, Note_off_c, 0, 75, 59
1, 841052, Note_on_c, 0, 77, 74
1, 841081, Control_c, 0, 64, 87
1, 841090, Note_off_c, 0, 77, 59
1, 841096, Control_c, 0, 64, 87
1, 841111, Control_c, 0, 64, 86
1, 841119, Note_on_c, 0, 78, 60
1, 841126, Control_c, 0, 64, 83
1, 841141, Control_c, 0, 64, 80
1, 841147, Note_off_c, 0, 78, 63
1, 841156, Control_c, 0, 64, 75
1, 841171, Control_c, 0, 64, 68
1, 841186, Control_c, 0, 64, 60
1, 841207, Control_c, 0, 64, 48
1, 841222, Control_c, 0, 64, 0
1, 841284, Note_on_c, 0, 81, 69
1, 841299, Note_on_c, 0, 77, 41
1, 841311, Note_on_c, 0, 72, 50
1, 841314, Note_on_c, 0, 32, 49
1, 841323, Note_on_c, 0, 44, 36
1, 841445, Control_c, 0, 64, 45
1, 841459, Control_c, 0, 64, 64
1, 841463, Note_off_c, 0, 32, 62
1, 841466, Note_off_c, 0, 72, 63
1, 841468, Note_off_c, 0, 77, 63
1, 841474, Control_c, 0, 64, 76
1, 841484, Note_off_c, 0, 81, 65
1, 841484, Note_off_c, 0, 44, 57
1, 841489, Control_c, 0, 64, 100
1, 841504, Control_c, 0, 64, 127
1, 841780, Note_on_c, 0, 94, 83
1, 841803, Note_on_c, 0, 90, 55
1, 841810, Note_on_c, 0, 82, 47
1, 841824, Note_off_c, 0, 90, 60
1, 841842, Note_off_c, 0, 94, 65
1, 841968, Note_off_c, 0, 82, 43
1, 841982, Note_on_c, 0, 78, 50
1, 842079, Note_off_c, 0, 78, 52
1, 842168, Note_on_c, 0, 94, 80
1, 842195, Note_on_c, 0, 85, 51
1, 842196, Note_on_c, 0, 82, 35
1, 842218, Note_off_c, 0, 85, 58
1, 842222, Note_off_c, 0, 94, 66
1, 842316, Note_off_c, 0, 82, 43
1, 842342, Note_on_c, 0, 73, 56
1, 842375, Note_off_c, 0, 73, 65
1, 842541, Note_on_c, 0, 94, 78
1, 842559, Note_on_c, 0, 85, 60
1, 842582, Note_on_c, 0, 70, 33
1, 842592, Note_off_c, 0, 85, 60
1, 842606, Note_off_c, 0, 94, 64
1, 842720, Note_on_c, 0, 61, 47
1, 842897, Note_on_c, 0, 89, 81
1, 842901, Note_off_c, 0, 61, 36
1, 842920, Note_on_c, 0, 85, 61
1, 842924, Note_off_c, 0, 70, 40
1, 842930, Note_on_c, 0, 65, 42
1, 842952, Note_off_c, 0, 85, 56
1, 843003, Note_off_c, 0, 89, 61
1, 843078, Note_off_c, 0, 65, 61
1, 843100, Note_on_c, 0, 61, 40
1, 843129, Note_off_c, 0, 61, 58
1, 843261, Note_on_c, 0, 89, 77
1, 843286, Note_on_c, 0, 85, 60
1, 843289, Note_on_c, 0, 58, 46
1, 843390, Note_off_c, 0, 85, 30
1, 843424, Note_off_c, 0, 58, 39
1, 843459, Note_on_c, 0, 44, 49
1, 843467, Note_off_c, 0, 89, 37
1, 843493, Note_off_c, 0, 44, 64
1, 843647, Note_on_c, 0, 89, 75
1, 843661, Control_c, 0, 64, 90
1, 843669, Note_on_c, 0, 32, 49
1, 843670, Note_on_c, 0, 80, 51
1, 843676, Control_c, 0, 64, 69
1, 843691, Control_c, 0, 64, 52
1, 843706, Control_c, 0, 64, 0
1, 843735, Control_c, 0, 64, 38
1, 843750, Control_c, 0, 64, 56
1, 843758, Note_off_c, 0, 32, 0
1, 843758, Note_on_c, 0, 32, 3
1, 843765, Control_c, 0, 64, 65
1, 843779, Control_c, 0, 64, 71
1, 843794, Control_c, 0, 64, 76
1, 843797, Note_off_c, 0, 80, 60
1, 843809, Control_c, 0, 64, 79
1, 843824, Control_c, 0, 64, 85
1, 843837, Note_on_c, 0, 44, 50
1, 843839, Control_c, 0, 64, 94
1, 843843, Note_off_c, 0, 32, 57
1, 843854, Control_c, 0, 64, 106
1, 843866, Note_off_c, 0, 44, 56
1, 843869, Control_c, 0, 64, 127
1, 843885, Note_off_c, 0, 89, 58
1, 844027, Note_on_c, 0, 89, 82
1, 844047, Note_on_c, 0, 80, 48
1, 844048, Note_on_c, 0, 77, 48
1, 844080, Note_off_c, 0, 80, 49
1, 844182, Note_off_c, 0, 89, 59
1, 844194, Note_off_c, 0, 77, 41
1, 844232, Note_on_c, 0, 68, 48
1, 844396, Note_off_c, 0, 68, 36
1, 844399, Note_on_c, 0, 84, 80
1, 844435, Note_on_c, 0, 72, 32
1, 844440, Note_on_c, 0, 80, 43
1, 844492, Note_off_c, 0, 80, 43
1, 844513, Note_off_c, 0, 84, 62
1, 844589, Note_on_c, 0, 68, 60
1, 844593, Note_off_c, 0, 72, 41
1, 844619, Note_off_c, 0, 68, 66
1, 844774, Note_on_c, 0, 84, 72
1, 844793, Note_on_c, 0, 80, 59
1, 844806, Note_on_c, 0, 60, 53
1, 844867, Note_off_c, 0, 80, 58
1, 844888, Note_off_c, 0, 84, 62
1, 844969, Note_on_c, 0, 56, 59
1, 844985, Note_off_c, 0, 60, 37
1, 845145, Note_off_c, 0, 56, 38
1, 845161, Note_on_c, 0, 84, 70
1, 845171, Note_on_c, 0, 60, 39
1, 845188, Note_on_c, 0, 75, 52
1, 845255, Note_off_c, 0, 75, 59
1, 845267, Note_off_c, 0, 84, 59
1, 845291, Note_off_c, 0, 60, 36
1, 845323, Note_on_c, 0, 51, 52
1, 845358, Note_off_c, 0, 51, 64
1, 845514, Control_c, 0, 64, 112
1, 845529, Control_c, 0, 64, 88
1, 845538, Note_on_c, 0, 84, 69
1, 845544, Control_c, 0, 64, 72
1, 845550, Note_on_c, 0, 32, 43
1, 845554, Note_on_c, 0, 75, 42
1, 845559, Control_c, 0, 64, 58
1, 845574, Control_c, 0, 64, 0
1, 845648, Control_c, 0, 64, 33
1, 845663, Control_c, 0, 64, 52
1, 845678, Control_c, 0, 64, 62
1, 845682, Note_off_c, 0, 75, 59
1, 845699, Control_c, 0, 64, 67
1, 845714, Control_c, 0, 64, 70
1, 845726, Note_off_c, 0, 32, 58
1, 845730, Control_c, 0, 64, 74
1, 845732, Note_on_c, 0, 44, 45
1, 845745, Control_c, 0, 64, 79
1, 845760, Control_c, 0, 64, 87
1, 845765, Note_off_c, 0, 44, 56
1, 845775, Control_c, 0, 64, 96
1, 845790, Control_c, 0, 64, 103
1, 845804, Control_c, 0, 64, 109
1, 845819, Control_c, 0, 64, 113
1, 845834, Control_c, 0, 64, 116
1, 845848, Control_c, 0, 64, 121
1, 845863, Control_c, 0, 64, 127
1, 845923, Control_c, 0, 64, 106
1, 845938, Control_c, 0, 64, 86
1, 845947, Note_on_c, 0, 78, 68
1, 845953, Control_c, 0, 64, 72
1, 845959, Note_on_c, 0, 54, 87
1, 845962, Note_off_c, 0, 84, 42
1, 845968, Control_c, 0, 64, 65
1, 845981, Note_on_c, 0, 75, 38
1, 845982, Control_c, 0, 64, 65
1, 845988, Note_on_c, 0, 46, 41
1, 845991, Note_on_c, 0, 51, 40
1, 845997, Control_c, 0, 64, 70
1, 846012, Control_c, 0, 64, 77
1, 846027, Note_off_c, 0, 51, 52
1, 846027, Control_c, 0, 64, 86
1, 846042, Control_c, 0, 64, 92
1, 846051, Note_off_c, 0, 54, 63
1, 846057, Control_c, 0, 64, 101
1, 846057, Control_c, 0, 67, 120
1, 846072, Control_c, 0, 64, 127
1, 846072, Control_c, 0, 67, 112
1, 846086, Control_c, 0, 67, 104
1, 846101, Control_c, 0, 67, 94
1, 846102, Note_off_c, 0, 46, 46
1, 846116, Control_c, 0, 67, 86
1, 846117, Note_off_c, 0, 78, 59
1, 846131, Control_c, 0, 67, 76
1, 846146, Control_c, 0, 67, 68
1, 846161, Control_c, 0, 67, 59
1, 846175, Control_c, 0, 67, 52
1, 846190, Control_c, 0, 67, 46
1, 846205, Control_c, 0, 67, 40
1, 846220, Control_c, 0, 67, 35
1, 846235, Control_c, 0, 67, 30
1, 846249, Control_c, 0, 67, 27
1, 846264, Control_c, 0, 67, 24
1, 846279, Control_c, 0, 67, 21
1, 846287, Note_off_c, 0, 75, 33
1, 846294, Control_c, 0, 67, 0
1, 846372, Note_on_c, 0, 78, 66
1, 846395, Note_on_c, 0, 32, 54
1, 846396, Note_on_c, 0, 70, 44
1, 846443, Note_off_c, 0, 32, 59
1, 846480, Note_off_c, 0, 70, 59
1, 846717, Note_off_c, 0, 78, 42
1, 846761, Note_on_c, 0, 73, 69
1, 846776, Note_on_c, 0, 70, 48
1, 846861, Note_off_c, 0, 73, 61
1, 846878, Note_off_c, 0, 70, 62
1, 847160, Note_on_c, 0, 58, 76
1, 847162, Note_on_c, 0, 73, 59
1, 847168, Note_on_c, 0, 65, 36
1, 847190, Control_c, 0, 64, 102
1, 847202, Note_on_c, 0, 44, 46
1, 847212, Control_c, 0, 64, 80
1, 847227, Control_c, 0, 64, 62
1, 847242, Control_c, 0, 64, 44
1, 847257, Control_c, 0, 64, 38
1, 847272, Control_c, 0, 64, 43
1, 847286, Control_c, 0, 64, 54
1, 847301, Control_c, 0, 64, 62
1, 847316, Control_c, 0, 64, 69
1, 847329, Note_off_c, 0, 65, 47
1, 847332, Control_c, 0, 64, 75
1, 847347, Control_c, 0, 64, 82
1, 847362, Control_c, 0, 64, 88
1, 847376, Control_c, 0, 64, 93
1, 847391, Control_c, 0, 64, 99
1, 847406, Control_c, 0, 64, 105
1, 847420, Control_c, 0, 64, 112
1, 847435, Control_c, 0, 64, 118
1, 847450, Control_c, 0, 64, 127
1, 847489, Note_off_c, 0, 58, 61
1, 847505, Note_off_c, 0, 44, 43
1, 847539, Note_on_c, 0, 68, 66
1, 847539, Note_off_c, 0, 73, 57
1, 847539, Control_c, 0, 64, 116
1, 847541, Note_on_c, 0, 53, 79
1, 847553, Note_on_c, 0, 65, 52
1, 847553, Control_c, 0, 64, 103
1, 847567, Note_on_c, 0, 49, 59
1, 847568, Control_c, 0, 64, 87
1, 847583, Control_c, 0, 64, 70
1, 847598, Control_c, 0, 64, 54
1, 847613, Control_c, 0, 64, 0
1, 847657, Control_c, 0, 64, 37
1, 847672, Control_c, 0, 64, 55
1, 847678, Note_off_c, 0, 68, 54
1, 847687, Control_c, 0, 64, 64
1, 847702, Control_c, 0, 64, 69
1, 847717, Control_c, 0, 64, 76
1, 847732, Control_c, 0, 64, 80
1, 847746, Control_c, 0, 64, 85
1, 847761, Control_c, 0, 64, 91
1, 847776, Control_c, 0, 64, 97
1, 847791, Control_c, 0, 64, 104
1, 847806, Control_c, 0, 64, 110
1, 847820, Control_c, 0, 64, 113
1, 847879, Note_off_c, 0, 49, 31
1, 847903, Note_off_c, 0, 65, 64
1, 847907, Note_on_c, 0, 68, 74
1, 847915, Note_on_c, 0, 58, 83
1, 847924, Note_off_c, 0, 53, 58
1, 847924, Control_c, 0, 64, 100
1, 847931, Note_on_c, 0, 61, 54
1, 847939, Control_c, 0, 64, 83
1, 847961, Control_c, 0, 64, 67
1, 847967, Note_on_c, 0, 44, 41
1, 847976, Control_c, 0, 64, 48
1, 847991, Control_c, 0, 64, 0
1, 847997, Note_off_c, 0, 61, 48
1, 848021, Control_c, 0, 64, 46
1, 848035, Control_c, 0, 64, 61
1, 848050, Control_c, 0, 64, 70
1, 848065, Control_c, 0, 64, 79
1, 848080, Control_c, 0, 64, 89
1, 848085, Note_off_c, 0, 58, 60
1, 848095, Control_c, 0, 64, 96
1, 848109, Control_c, 0, 64, 101
1, 848149, Note_off_c, 0, 44, 44
1, 848259, Control_c, 0, 64, 97
1, 848274, Control_c, 0, 64, 93
1, 848286, Note_on_c, 0, 65, 68
1, 848289, Control_c, 0, 64, 87
1, 848294, Note_on_c, 0, 51, 81
1, 848304, Control_c, 0, 64, 81
1, 848312, Note_on_c, 0, 63, 55
1, 848315, Note_on_c, 0, 47, 58
1, 848318, Control_c, 0, 64, 70
1, 848333, Control_c, 0, 64, 60
1, 848348, Control_c, 0, 64, 36
1, 848355, Note_off_c, 0, 68, 64
1, 848363, Control_c, 0, 64, 0
1, 848466, Control_c, 0, 64, 57
1, 848481, Control_c, 0, 64, 66
1, 848482, Note_off_c, 0, 65, 60
1, 848496, Control_c, 0, 64, 70
1, 848511, Control_c, 0, 64, 76
1, 848525, Control_c, 0, 64, 82
1, 848540, Control_c, 0, 64, 91
1, 848555, Control_c, 0, 64, 103
1, 848570, Control_c, 0, 64, 126
1, 848614, Note_off_c, 0, 51, 47
1, 848642, Note_off_c, 0, 47, 37
1, 848664, Note_on_c, 0, 65, 74
1, 848673, Note_on_c, 0, 56, 62
1, 848709, Note_off_c, 0, 63, 62
1, 848719, Note_off_c, 0, 56, 59
1, 848769, Control_c, 0, 64, 106
1, 848784, Control_c, 0, 64, 77
1, 848799, Control_c, 0, 64, 61
1, 848802, Note_on_c, 0, 46, 76
1, 848805, Note_on_c, 0, 49, 79
1, 848814, Control_c, 0, 64, 54
1, 848829, Control_c, 0, 64, 60
1, 848844, Control_c, 0, 64, 67
1, 848859, Control_c, 0, 64, 77
1, 848874, Control_c, 0, 64, 94
1, 848888, Control_c, 0, 64, 127
1, 848991, Note_off_c, 0, 46, 63
1, 849035, Note_off_c, 0, 49, 33
1, 849100, Note_on_c, 0, 63, 82
1, 849102, Note_on_c, 0, 62, 74
1, 849108, Note_on_c, 0, 58, 70
1, 849111, Note_on_c, 0, 54, 70
1, 849142, Control_c, 0, 64, 116
1, 849156, Control_c, 0, 64, 95
1, 849171, Control_c, 0, 64, 82
1, 849186, Control_c, 0, 64, 70
1, 849200, Control_c, 0, 64, 56
1, 849215, Control_c, 0, 64, 0
1, 849259, Note_off_c, 0, 65, 62
1, 849479, Note_on_c, 0, 57, 75
1, 849533, Control_c, 0, 64, 32
1, 849548, Control_c, 0, 64, 50
1, 849563, Control_c, 0, 64, 61
1, 849578, Control_c, 0, 64, 65
1, 849592, Control_c, 0, 64, 67
1, 849607, Control_c, 0, 64, 68
1, 849637, Control_c, 0, 64, 69
1, 849637, Control_c, 0, 67, 19
1, 849651, Control_c, 0, 64, 70
1, 849665, Control_c, 0, 64, 71
1, 849680, Control_c, 0, 67, 21
1, 849710, Control_c, 0, 67, 25
1, 849726, Control_c, 0, 67, 29
1, 849740, Control_c, 0, 67, 32
1, 849755, Control_c, 0, 64, 70
1, 849755, Control_c, 0, 67, 35
1, 849770, Control_c, 0, 64, 68
1, 849770, Control_c, 0, 67, 40
1, 849785, Control_c, 0, 64, 66
1, 849785, Control_c, 0, 67, 46
1, 849800, Control_c, 0, 64, 62
1, 849800, Control_c, 0, 67, 55
1, 849815, Control_c, 0, 64, 56
1, 849815, Control_c, 0, 67, 66
1, 849829, Control_c, 0, 64, 48
1, 849829, Control_c, 0, 67, 76
1, 849841, Note_on_c, 0, 53, 57
1, 849844, Control_c, 0, 64, 41
1, 849844, Control_c, 0, 67, 85
1, 849859, Control_c, 0, 64, 31
1, 849859, Control_c, 0, 67, 92
1, 849860, Note_off_c, 0, 57, 61
1, 849874, Control_c, 0, 64, 0
1, 849874, Control_c, 0, 67, 97
1, 849889, Control_c, 0, 67, 100
1, 849903, Control_c, 0, 64, 34
1, 849918, Control_c, 0, 64, 46
1, 849933, Control_c, 0, 64, 57
1, 849947, Control_c, 0, 64, 63
1, 849962, Control_c, 0, 64, 66
1, 849971, Note_off_c, 0, 53, 62
1, 849977, Control_c, 0, 64, 67
1, 849992, Control_c, 0, 64, 68
1, 850007, Control_c, 0, 64, 69
1, 850111, Control_c, 0, 64, 68
1, 850126, Control_c, 0, 64, 68
1, 850140, Control_c, 0, 64, 67
1, 850155, Control_c, 0, 64, 67
1, 850170, Control_c, 0, 64, 66
1, 850185, Control_c, 0, 64, 64
1, 850207, Control_c, 0, 64, 62
1, 850221, Control_c, 0, 64, 58
1, 850232, Note_on_c, 0, 53, 55
1, 850236, Control_c, 0, 64, 55
1, 850251, Control_c, 0, 64, 54
1, 850266, Control_c, 0, 64, 56
1, 850281, Control_c, 0, 64, 60
1, 850295, Control_c, 0, 64, 62
1, 850310, Control_c, 0, 64, 64
1, 850325, Control_c, 0, 64, 64
1, 850340, Control_c, 0, 64, 65
1, 850385, Control_c, 0, 64, 64
1, 850400, Control_c, 0, 64, 64
1, 850415, Control_c, 0, 64, 63
1, 850430, Control_c, 0, 64, 62
1, 850430, Control_c, 0, 67, 102
1, 850445, Control_c, 0, 64, 61
1, 850459, Control_c, 0, 64, 60
1, 850474, Control_c, 0, 64, 59
1, 850489, Control_c, 0, 64, 58
1, 850489, Control_c, 0, 67, 105
1, 850504, Control_c, 0, 64, 55
1, 850504, Control_c, 0, 67, 109
1, 850519, Control_c, 0, 64, 53
1, 850519, Control_c, 0, 67, 115
1, 850534, Control_c, 0, 64, 50
1, 850534, Control_c, 0, 67, 117
1, 850549, Control_c, 0, 64, 45
1, 850564, Control_c, 0, 64, 37
1, 850579, Control_c, 0, 64, 0
1, 850597, Note_on_c, 0, 52, 48
1, 850603, Note_off_c, 0, 53, 56
1, 850657, Note_off_c, 0, 58, 58
1, 850683, Control_c, 0, 64, 46
1, 850698, Control_c, 0, 64, 60
1, 850712, Control_c, 0, 64, 65
1, 850727, Control_c, 0, 64, 66
1, 850730, Note_off_c, 0, 52, 61
1, 850742, Control_c, 0, 64, 67
1, 850757, Control_c, 0, 64, 68
1, 850771, Control_c, 0, 64, 68
1, 850831, Control_c, 0, 64, 68
1, 850853, Note_off_c, 0, 62, 33
1, 850860, Control_c, 0, 64, 67
1, 850875, Control_c, 0, 64, 65
1, 850890, Control_c, 0, 64, 64
1, 850905, Control_c, 0, 64, 62
1, 850919, Control_c, 0, 64, 60
1, 850934, Control_c, 0, 64, 58
1, 850957, Control_c, 0, 64, 55
1, 850965, Note_on_c, 0, 52, 50
1, 850971, Control_c, 0, 64, 51
1, 850986, Control_c, 0, 64, 48
1, 851001, Control_c, 0, 64, 48
1, 851016, Control_c, 0, 64, 51
1, 851031, Control_c, 0, 64, 56
1, 851045, Control_c, 0, 64, 60
1, 851060, Control_c, 0, 64, 62
1, 851075, Control_c, 0, 64, 64
1, 851090, Control_c, 0, 64, 65
1, 851104, Control_c, 0, 64, 67
1, 851164, Control_c, 0, 64, 66
1, 851178, Control_c, 0, 64, 66
1, 851193, Control_c, 0, 64, 64
1, 851208, Control_c, 0, 64, 62
1, 851223, Control_c, 0, 64, 59
1, 851238, Control_c, 0, 64, 55
1, 851252, Control_c, 0, 64, 51
1, 851267, Control_c, 0, 64, 44
1, 851282, Control_c, 0, 64, 31
1, 851297, Control_c, 0, 64, 0
1, 851336, Note_off_c, 0, 52, 52
1, 851351, Note_on_c, 0, 48, 36
1, 851386, Control_c, 0, 64, 33
1, 851401, Control_c, 0, 64, 52
1, 851416, Control_c, 0, 64, 61
1, 851431, Control_c, 0, 64, 64
1, 851446, Control_c, 0, 64, 66
1, 851461, Control_c, 0, 64, 67
1, 851476, Control_c, 0, 64, 69
1, 851491, Control_c, 0, 64, 70
1, 851503, Note_off_c, 0, 63, 59
1, 851506, Control_c, 0, 64, 71
1, 851520, Control_c, 0, 64, 71
1, 851523, Note_off_c, 0, 54, 56
1, 851546, Note_off_c, 0, 48, 41
1, 851624, Control_c, 0, 64, 71
1, 851654, Control_c, 0, 64, 70
1, 851683, Control_c, 0, 64, 70
1, 851717, Note_on_c, 0, 48, 38
1, 851809, Control_c, 0, 64, 69
1, 851854, Control_c, 0, 64, 69
1, 851868, Control_c, 0, 64, 67
1, 851883, Control_c, 0, 64, 66
1, 851898, Control_c, 0, 64, 65
1, 851898, Control_c, 0, 67, 119
1, 851913, Control_c, 0, 64, 64
1, 851927, Control_c, 0, 64, 63
1, 851942, Control_c, 0, 64, 61
1, 851957, Control_c, 0, 64, 60
1, 851972, Control_c, 0, 64, 59
1, 851987, Control_c, 0, 64, 57
1, 851987, Control_c, 0, 67, 121
1, 852001, Control_c, 0, 64, 56
1, 852016, Control_c, 0, 64, 55
1, 852016, Control_c, 0, 67, 125
1, 852031, Control_c, 0, 64, 54
1, 852031, Control_c, 0, 67, 127
1, 852046, Control_c, 0, 64, 52
1, 852061, Control_c, 0, 64, 51
1, 852075, Control_c, 0, 64, 49
1, 852090, Control_c, 0, 64, 46
1, 852105, Control_c, 0, 64, 43
1, 852121, Control_c, 0, 64, 39
1, 852123, Note_off_c, 0, 48, 34
1, 852135, Control_c, 0, 64, 35
1, 852138, Note_on_c, 0, 41, 30
1, 852150, Control_c, 0, 64, 31
1, 852165, Control_c, 0, 64, 0
1, 852269, Control_c, 0, 64, 37
1, 852284, Control_c, 0, 64, 49
1, 852299, Control_c, 0, 64, 59
1, 852314, Control_c, 0, 64, 63
1, 852328, Control_c, 0, 64, 64
1, 852343, Control_c, 0, 64, 65
1, 852373, Control_c, 0, 64, 66
1, 852388, Note_off_c, 0, 41, 41
1, 852484, Control_c, 0, 64, 65
1, 852498, Control_c, 0, 64, 65
1, 852513, Control_c, 0, 64, 64
1, 852528, Control_c, 0, 64, 63
1, 852543, Control_c, 0, 64, 62
1, 852558, Control_c, 0, 64, 61
1, 852572, Note_on_c, 0, 39, 33
1, 852573, Control_c, 0, 64, 59
1, 852588, Control_c, 0, 64, 56
1, 852603, Control_c, 0, 64, 53
1, 852617, Control_c, 0, 64, 50
1, 852632, Control_c, 0, 64, 42
1, 852647, Control_c, 0, 64, 0
1, 852721, Control_c, 0, 64, 47
1, 852736, Control_c, 0, 64, 61
1, 852750, Control_c, 0, 64, 67
1, 852765, Control_c, 0, 64, 72
1, 852780, Control_c, 0, 64, 76
1, 852795, Control_c, 0, 64, 81
1, 852810, Control_c, 0, 64, 85
1, 852824, Control_c, 0, 64, 89
1, 852827, Note_off_c, 0, 39, 40
1, 852839, Control_c, 0, 64, 92
1, 852854, Control_c, 0, 64, 95
1, 852883, Control_c, 0, 64, 97
1, 852988, Control_c, 0, 64, 95
1, 853003, Control_c, 0, 64, 93
1, 853018, Control_c, 0, 64, 90
1, 853032, Control_c, 0, 64, 87
1, 853047, Control_c, 0, 64, 83
1, 853062, Control_c, 0, 64, 78
1, 853077, Control_c, 0, 64, 73
1, 853092, Control_c, 0, 64, 65
1, 853106, Control_c, 0, 64, 58
1, 853107, Note_on_c, 0, 68, 66
1, 853121, Control_c, 0, 64, 44
1, 853136, Control_c, 0, 64, 0
1, 853139, Note_on_c, 0, 65, 44
1, 853151, Note_on_c, 0, 63, 42
1, 853351, Control_c, 0, 64, 34
1, 853366, Control_c, 0, 64, 57
1, 853381, Control_c, 0, 64, 68
1, 853396, Control_c, 0, 64, 90
1, 853409, Note_off_c, 0, 65, 57
1, 853411, Control_c, 0, 64, 127
1, 853412, Note_off_c, 0, 63, 62
1, 853450, Note_off_c, 0, 68, 65
1, 853715, Note_on_c, 0, 92, 76
1, 853751, Note_on_c, 0, 68, 20
1, 853870, Note_off_c, 0, 68, 42
1, 853922, Note_off_c, 0, 92, 59
1, 854085, Note_on_c, 0, 80, 51
1, 854106, Note_on_c, 0, 56, 41
1, 854156, Note_off_c, 0, 56, 54
1, 854162, Note_off_c, 0, 80, 58
1, 854430, Note_on_c, 0, 80, 55
1, 854465, Note_off_c, 0, 80, 63
1, 854482, Note_on_c, 0, 56, 41
1, 854549, Note_off_c, 0, 56, 51
1, 854818, Note_on_c, 0, 70, 52
1, 854835, Note_on_c, 0, 64, 34
1, 854844, Note_on_c, 0, 60, 31
1, 854849, Control_c, 0, 64, 114
1, 854862, Note_on_c, 0, 44, 21
1, 854863, Control_c, 0, 64, 104
1, 854878, Control_c, 0, 64, 98
1, 854893, Control_c, 0, 64, 93
1, 854908, Control_c, 0, 64, 90
1, 854923, Control_c, 0, 64, 87
1, 854937, Control_c, 0, 64, 84
1, 854938, Note_off_c, 0, 44, 43
1, 854952, Control_c, 0, 64, 81
1, 854967, Control_c, 0, 64, 78
1, 854982, Control_c, 0, 64, 76
1, 854997, Control_c, 0, 64, 74
1, 855002, Note_on_c, 0, 68, 59
1, 855011, Control_c, 0, 64, 73
1, 855026, Control_c, 0, 64, 72
1, 855029, Note_off_c, 0, 70, 35
1, 855041, Control_c, 0, 64, 70
1, 855056, Control_c, 0, 64, 68
1, 855071, Control_c, 0, 64, 67
1, 855086, Control_c, 0, 64, 64
1, 855101, Control_c, 0, 64, 62
1, 855116, Control_c, 0, 64, 61
1, 855130, Control_c, 0, 64, 60
1, 855133, Note_off_c, 0, 68, 57
1, 855156, Note_on_c, 0, 67, 56
1, 855160, Control_c, 0, 64, 62
1, 855160, Note_on_c, 0, 44, 49
1, 855163, Note_off_c, 0, 64, 38
1, 855175, Control_c, 0, 64, 64
1, 855190, Control_c, 0, 64, 67
1, 855204, Control_c, 0, 64, 70
1, 855209, Note_off_c, 0, 44, 62
1, 855219, Control_c, 0, 64, 72
1, 855232, Note_off_c, 0, 60, 61
1, 855234, Control_c, 0, 64, 73
1, 855293, Control_c, 0, 64, 72
1, 855297, Note_off_c, 0, 67, 63
1, 855303, Note_on_c, 0, 68, 65
1, 855309, Control_c, 0, 64, 71
1, 855324, Control_c, 0, 64, 70
1, 855339, Control_c, 0, 64, 68
1, 855353, Control_c, 0, 64, 67
1, 855368, Control_c, 0, 64, 65
1, 855383, Control_c, 0, 64, 63
1, 855398, Control_c, 0, 64, 61
1, 855413, Control_c, 0, 64, 58
1, 855428, Control_c, 0, 64, 54
1, 855449, Control_c, 0, 64, 47
1, 855464, Control_c, 0, 64, 32
1, 855479, Control_c, 0, 64, 0
1, 855495, Note_off_c, 0, 68, 56
1, 855539, Note_on_c, 0, 73, 56
1, 855554, Note_on_c, 0, 65, 44
1, 855569, Note_on_c, 0, 44, 40
1, 855571, Note_on_c, 0, 61, 40
1, 855658, Control_c, 0, 64, 45
1, 855673, Control_c, 0, 64, 63
1, 855673, Note_off_c, 0, 61, 61
1, 855681, Note_off_c, 0, 65, 63
1, 855687, Control_c, 0, 64, 70
1, 855702, Control_c, 0, 64, 76
1, 855717, Control_c, 0, 64, 82
1, 855724, Note_off_c, 0, 73, 64
1, 855732, Control_c, 0, 64, 91
1, 855747, Control_c, 0, 64, 105
1, 855761, Control_c, 0, 64, 127
1, 855792, Note_off_c, 0, 44, 40
1, 855884, Note_on_c, 0, 32, 44
1, 855922, Note_off_c, 0, 32, 58
1, 855949, Note_on_c, 0, 92, 72
1, 856112, Note_on_c, 0, 68, 70
1, 856183, Note_off_c, 0, 68, 54
1, 856272, Note_off_c, 0, 92, 60
1, 856277, Note_on_c, 0, 80, 67
1, 856293, Note_on_c, 0, 68, 74
1, 856312, Note_off_c, 0, 80, 64
1, 856323, Note_on_c, 0, 61, 38
1, 856326, Note_on_c, 0, 65, 41
1, 856367, Note_off_c, 0, 68, 54
1, 856386, Note_off_c, 0, 65, 48
1, 856403, Note_off_c, 0, 61, 53
1, 856570, Control_c, 0, 64, 119
1, 856584, Control_c, 0, 64, 97
1, 856599, Control_c, 0, 64, 82
1, 856614, Control_c, 0, 64, 69
1, 856629, Control_c, 0, 64, 54
1, 856636, Note_on_c, 0, 80, 74
1, 856639, Note_on_c, 0, 68, 66
1, 856643, Control_c, 0, 64, 0
1, 856670, Note_on_c, 0, 65, 45
1, 856682, Note_on_c, 0, 56, 36
1, 856682, Note_on_c, 0, 61, 35
1, 856688, Control_c, 0, 64, 44
1, 856703, Control_c, 0, 64, 59
1, 856716, Note_off_c, 0, 65, 64
1, 856717, Control_c, 0, 64, 66
1, 856732, Control_c, 0, 64, 70
1, 856737, Note_off_c, 0, 61, 58
1, 856746, Note_off_c, 0, 56, 46
1, 856747, Control_c, 0, 64, 75
1, 856762, Control_c, 0, 64, 79
1, 856777, Control_c, 0, 64, 83
1, 856789, Note_off_c, 0, 68, 58
1, 856791, Control_c, 0, 64, 87
1, 856806, Control_c, 0, 64, 89
1, 856821, Control_c, 0, 64, 89
1, 856895, Control_c, 0, 64, 89
1, 856911, Control_c, 0, 64, 87
1, 856933, Control_c, 0, 64, 84
1, 856948, Control_c, 0, 64, 77
1, 856963, Control_c, 0, 64, 69
1, 856978, Control_c, 0, 64, 58
1, 856993, Control_c, 0, 64, 30
1, 857007, Control_c, 0, 64, 0
1, 857008, Note_off_c, 0, 80, 54
1, 857014, Note_on_c, 0, 68, 49
1, 857017, Note_on_c, 0, 66, 60
1, 857041, Note_on_c, 0, 60, 49
1, 857050, Note_on_c, 0, 63, 42
1, 857066, Control_c, 0, 64, 32
1, 857081, Control_c, 0, 64, 53
1, 857096, Control_c, 0, 64, 65
1, 857111, Control_c, 0, 64, 69
1, 857113, Note_off_c, 0, 63, 62
1, 857116, Note_off_c, 0, 66, 64
1, 857120, Note_off_c, 0, 60, 64
1, 857126, Control_c, 0, 64, 72
1, 857140, Control_c, 0, 64, 74
1, 857155, Control_c, 0, 64, 75
1, 857169, Control_c, 0, 64, 76
1, 857184, Control_c, 0, 64, 76
1, 857244, Control_c, 0, 64, 76
1, 857258, Control_c, 0, 64, 75
1, 857265, Note_off_c, 0, 68, 35
1, 857273, Control_c, 0, 64, 72
1, 857288, Control_c, 0, 64, 68
1, 857303, Control_c, 0, 64, 64
1, 857318, Control_c, 0, 64, 58
1, 857332, Control_c, 0, 64, 50
1, 857347, Control_c, 0, 64, 35
1, 857362, Control_c, 0, 64, 0
1, 857375, Note_on_c, 0, 68, 54
1, 857381, Note_on_c, 0, 65, 67
1, 857401, Note_on_c, 0, 58, 48
1, 857412, Note_on_c, 0, 61, 39
1, 857451, Control_c, 0, 64, 45
1, 857465, Control_c, 0, 64, 60
1, 857480, Control_c, 0, 64, 66
1, 857494, Note_off_c, 0, 65, 64
1, 857495, Control_c, 0, 64, 70
1, 857505, Note_off_c, 0, 58, 60
1, 857506, Note_off_c, 0, 61, 57
1, 857510, Control_c, 0, 64, 72
1, 857525, Control_c, 0, 64, 74
1, 857539, Control_c, 0, 64, 75
1, 857554, Control_c, 0, 64, 76
1, 857628, Control_c, 0, 64, 75
1, 857643, Control_c, 0, 64, 72
1, 857658, Control_c, 0, 64, 67
1, 857673, Control_c, 0, 64, 61
1, 857695, Control_c, 0, 64, 48
1, 857711, Control_c, 0, 64, 0
1, 857742, Note_on_c, 0, 56, 39
1, 857747, Note_on_c, 0, 63, 68
1, 857754, Note_off_c, 0, 68, 63
1, 857767, Note_on_c, 0, 60, 50
1, 857804, Note_on_c, 0, 57, 32
1, 857844, Control_c, 0, 64, 53
1, 857859, Control_c, 0, 64, 66
1, 857872, Note_off_c, 0, 56, 60
1, 857874, Control_c, 0, 64, 74
1, 857888, Control_c, 0, 64, 86
1, 857903, Control_c, 0, 64, 96
1, 857918, Control_c, 0, 64, 105
1, 857927, Note_off_c, 0, 60, 64
1, 857933, Control_c, 0, 64, 122
1, 857938, Note_off_c, 0, 63, 64
1, 857948, Control_c, 0, 64, 127
1, 857953, Note_off_c, 0, 57, 55
1, 858120, Note_on_c, 0, 56, 46
1, 858195, Note_off_c, 0, 56, 40
1, 858272, Note_on_c, 0, 63, 65
1, 858303, Note_on_c, 0, 57, 31
1, 858337, Poly_aftertouch_c, 0, 60, 127
1, 858355, Note_off_c, 0, 63, 60
1, 858364, Note_off_c, 0, 57, 41
1, 858439, Note_on_c, 0, 57, 41
1, 858441, Note_on_c, 0, 63, 58
1, 858451, Note_on_c, 0, 44, 32
1, 858484, Note_off_c, 0, 57, 61
1, 858490, Note_off_c, 0, 44, 56
1, 858504, Poly_aftertouch_c, 0, 60, 0
1, 858533, Note_off_c, 0, 63, 61
1, 858643, Note_on_c, 0, 63, 70
1, 858676, Note_off_c, 0, 63, 66
1, 858764, Note_on_c, 0, 32, 53
1, 858809, Note_off_c, 0, 32, 59
1, 858851, Note_on_c, 0, 92, 83
1, 859165, Note_on_c, 0, 80, 61
1, 859171, Note_off_c, 0, 92, 64
1, 859192, Note_on_c, 0, 65, 59
1, 859205, Note_off_c, 0, 80, 60
1, 859215, Note_on_c, 0, 61, 43
1, 859234, Note_on_c, 0, 64, 17
1, 859234, Note_off_c, 0, 64, 127
1, 859238, Note_on_c, 0, 58, 37
1, 859313, Note_off_c, 0, 61, 53
1, 859343, Note_off_c, 0, 58, 43
1, 859402, Control_c, 0, 64, 119
1, 859417, Control_c, 0, 64, 112
1, 859432, Control_c, 0, 64, 108
1, 859447, Control_c, 0, 64, 104
1, 859448, Note_off_c, 0, 65, 59
1, 859461, Control_c, 0, 64, 98
1, 859476, Control_c, 0, 64, 92
1, 859491, Control_c, 0, 64, 86
1, 859506, Control_c, 0, 64, 78
1, 859521, Control_c, 0, 64, 68
1, 859524, Note_on_c, 0, 80, 69
1, 859527, Note_on_c, 0, 66, 71
1, 859535, Control_c, 0, 64, 56
1, 859547, Note_on_c, 0, 63, 60
1, 859550, Control_c, 0, 64, 30
1, 859558, Note_on_c, 0, 60, 46
1, 859565, Control_c, 0, 64, 0
1, 859609, Control_c, 0, 64, 35
1, 859624, Control_c, 0, 64, 53
1, 859639, Control_c, 0, 64, 64
1, 859653, Control_c, 0, 64, 69
1, 859668, Control_c, 0, 64, 76
1, 859673, Note_off_c, 0, 63, 54
1, 859683, Control_c, 0, 64, 83
1, 859698, Control_c, 0, 64, 86
1, 859713, Control_c, 0, 64, 88
1, 859727, Control_c, 0, 64, 89
1, 859744, Note_off_c, 0, 60, 60
1, 859745, Note_off_c, 0, 66, 61
1, 859787, Control_c, 0, 64, 87
1, 859802, Control_c, 0, 64, 84
1, 859816, Control_c, 0, 64, 79
1, 859823, Note_off_c, 0, 80, 58
1, 859831, Control_c, 0, 64, 71
1, 859846, Control_c, 0, 64, 64
1, 859861, Control_c, 0, 64, 54
1, 859875, Note_on_c, 0, 68, 42
1, 859876, Control_c, 0, 64, 33
1, 859891, Control_c, 0, 64, 0
1, 859907, Note_on_c, 0, 67, 78
1, 859919, Note_on_c, 0, 64, 60
1, 859936, Note_on_c, 0, 61, 54
1, 860076, Control_c, 0, 64, 56
1, 860091, Control_c, 0, 64, 66
1, 860106, Control_c, 0, 64, 71
1, 860121, Control_c, 0, 64, 80
1, 860133, Note_off_c, 0, 67, 63
1, 860136, Control_c, 0, 64, 91
1, 860151, Control_c, 0, 64, 111
1, 860154, Note_off_c, 0, 68, 34
1, 860155, Note_off_c, 0, 64, 64
1, 860165, Control_c, 0, 64, 127
1, 860184, Note_off_c, 0, 61, 55
1, 860314, Note_on_c, 0, 56, 61
1, 860455, Note_on_c, 0, 77, 77
1, 860479, Note_on_c, 0, 68, 60
1, 860491, Control_c, 0, 67, 123
1, 860496, Note_off_c, 0, 56, 35
1, 860504, Note_on_c, 0, 65, 50
1, 860506, Control_c, 0, 67, 118
1, 860521, Control_c, 0, 67, 115
1, 860536, Control_c, 0, 67, 112
1, 860546, Note_off_c, 0, 68, 57
1, 860559, Note_off_c, 0, 77, 62
1, 860565, Control_c, 0, 64, 113
1, 860565, Control_c, 0, 67, 110
1, 860580, Control_c, 0, 64, 96
1, 860594, Control_c, 0, 64, 83
1, 860609, Control_c, 0, 64, 70
1, 860624, Control_c, 0, 64, 55
1, 860635, Note_on_c, 0, 77, 78
1, 860639, Note_off_c, 0, 65, 39
1, 860639, Control_c, 0, 64, 0
1, 860663, Note_on_c, 0, 68, 55
1, 860666, Note_on_c, 0, 73, 53
1, 860689, Note_on_c, 0, 44, 55
1, 860717, Note_off_c, 0, 68, 0
1, 860717, Note_on_c, 0, 68, 12
1, 860750, Control_c, 0, 67, 112
1, 860824, Control_c, 0, 64, 50
1, 860837, Note_off_c, 0, 44, 64
1, 860839, Control_c, 0, 64, 71
1, 860854, Control_c, 0, 64, 78
1, 860867, Note_off_c, 0, 68, 59
1, 860869, Control_c, 0, 64, 91
1, 860883, Note_off_c, 0, 77, 64
1, 860884, Control_c, 0, 64, 103
1, 860897, Note_off_c, 0, 73, 65
1, 860899, Control_c, 0, 64, 127
1, 861054, Note_on_c, 0, 92, 73
1, 861065, Note_on_c, 0, 44, 36
1, 861131, Note_off_c, 0, 44, 58
1, 861241, Control_c, 0, 67, 110
1, 861355, Note_off_c, 0, 92, 55
1, 861390, Note_on_c, 0, 32, 42
1, 861398, Note_on_c, 0, 80, 62
1, 861444, Note_off_c, 0, 32, 61
1, 861458, Note_off_c, 0, 80, 62
1, 861589, Control_c, 0, 67, 113
1, 861677, Control_c, 0, 67, 115
1, 861774, Note_on_c, 0, 75, 71
1, 861786, Note_on_c, 0, 80, 62
1, 861793, Note_on_c, 0, 72, 51
1, 861797, Note_on_c, 0, 67, 53
1, 861861, Note_off_c, 0, 72, 0
1, 861861, Note_on_c, 0, 72, 8
1, 861948, Note_off_c, 0, 75, 62
1, 861951, Note_off_c, 0, 67, 42
1, 861963, Note_off_c, 0, 72, 55
1, 862004, Control_c, 0, 67, 117
1, 862108, Control_c, 0, 64, 116
1, 862122, Control_c, 0, 64, 94
1, 862137, Control_c, 0, 64, 79
1, 862152, Control_c, 0, 64, 65
1, 862162, Note_on_c, 0, 75, 72
1, 862162, Note_off_c, 0, 80, 55
1, 862167, Control_c, 0, 64, 37
1, 862182, Note_on_c, 0, 72, 58
1, 862189, Control_c, 0, 64, 0
1, 862201, Note_on_c, 0, 68, 25
1, 862225, Note_on_c, 0, 66, 43
1, 862234, Control_c, 0, 67, 119
1, 862308, Control_c, 0, 64, 39
1, 862323, Control_c, 0, 64, 63
1, 862337, Control_c, 0, 64, 72
1, 862348, Note_off_c, 0, 75, 64
1, 862352, Control_c, 0, 64, 84
1, 862359, Note_off_c, 0, 72, 55
1, 862367, Control_c, 0, 64, 106
1, 862381, Control_c, 0, 64, 127
1, 862398, Note_off_c, 0, 66, 63
1, 862404, Note_off_c, 0, 68, 49
1, 862426, Control_c, 0, 67, 121
1, 862550, Note_on_c, 0, 56, 60
1, 862601, Note_off_c, 0, 56, 47
1, 862700, Note_on_c, 0, 73, 69
1, 862727, Note_on_c, 0, 70, 48
1, 862730, Note_on_c, 0, 66, 41
1, 862771, Note_off_c, 0, 70, 53
1, 862782, Note_off_c, 0, 66, 53
1, 862790, Note_off_c, 0, 73, 57
1, 862857, Control_c, 0, 64, 103
1, 862871, Control_c, 0, 64, 82
1, 862886, Control_c, 0, 64, 68
1, 862892, Note_on_c, 0, 73, 70
1, 862901, Control_c, 0, 64, 52
1, 862902, Note_on_c, 0, 70, 52
1, 862908, Note_on_c, 0, 65, 51
1, 862916, Control_c, 0, 64, 0
1, 862917, Note_on_c, 0, 44, 47
1, 862982, Note_off_c, 0, 65, 0
1, 862982, Note_on_c, 0, 65, 27
1, 862982, Control_c, 0, 64, 44
1, 862997, Control_c, 0, 64, 59
1, 863012, Control_c, 0, 64, 66
1, 863027, Control_c, 0, 64, 71
1, 863030, Note_off_c, 0, 44, 62
1, 863042, Note_off_c, 0, 65, 64
1, 863042, Control_c, 0, 64, 76
1, 863056, Note_off_c, 0, 70, 64
1, 863057, Control_c, 0, 64, 80
1, 863059, Note_off_c, 0, 73, 63
1, 863072, Control_c, 0, 64, 84
1, 863086, Control_c, 0, 64, 88
1, 863101, Control_c, 0, 64, 93
1, 863116, Control_c, 0, 64, 96
1, 863131, Control_c, 0, 64, 99
1, 863146, Control_c, 0, 64, 101
1, 863265, Control_c, 0, 64, 86
1, 863269, Note_on_c, 0, 73, 76
1, 863279, Control_c, 0, 64, 72
1, 863295, Control_c, 0, 64, 61
1, 863296, Note_on_c, 0, 70, 53
1, 863301, Note_on_c, 0, 64, 46
1, 863309, Note_on_c, 0, 44, 38
1, 863310, Control_c, 0, 64, 53
1, 863325, Control_c, 0, 64, 55
1, 863340, Control_c, 0, 64, 60
1, 863355, Control_c, 0, 64, 66
1, 863369, Control_c, 0, 64, 72
1, 863384, Control_c, 0, 64, 78
1, 863384, Control_c, 0, 67, 119
1, 863399, Control_c, 0, 64, 86
1, 863405, Note_off_c, 0, 44, 50
1, 863414, Control_c, 0, 64, 98
1, 863414, Control_c, 0, 67, 116
1, 863428, Control_c, 0, 64, 127
1, 863428, Control_c, 0, 67, 114
1, 863443, Control_c, 0, 67, 112
1, 863458, Control_c, 0, 67, 110
1, 863462, Note_off_c, 0, 64, 52
1, 863502, Control_c, 0, 67, 108
1, 863523, Note_off_c, 0, 73, 36
1, 863525, Note_off_c, 0, 70, 32
1, 863561, Control_c, 0, 64, 117
1, 863576, Control_c, 0, 64, 109
1, 863591, Control_c, 0, 67, 101
1, 863606, Control_c, 0, 64, 111
1, 863606, Control_c, 0, 67, 94
1, 863620, Control_c, 0, 64, 121
1, 863620, Control_c, 0, 67, 88
1, 863625, Note_on_c, 0, 73, 82
1, 863632, Note_on_c, 0, 70, 71
1, 863635, Control_c, 0, 64, 127
1, 863635, Control_c, 0, 67, 82
1, 863650, Control_c, 0, 67, 74
1, 863651, Note_on_c, 0, 32, 45
1, 863651, Note_on_c, 0, 65, 37
1, 863673, Control_c, 0, 67, 66
1, 863688, Control_c, 0, 67, 58
1, 863691, Note_off_c, 0, 65, 55
1, 863692, Note_off_c, 0, 32, 53
1, 863702, Control_c, 0, 67, 49
1, 863705, Note_off_c, 0, 70, 64
1, 863711, Note_off_c, 0, 73, 63
1, 863717, Control_c, 0, 67, 41
1, 863732, Control_c, 0, 67, 33
1, 863746, Control_c, 0, 67, 29
1, 863850, Control_c, 0, 67, 31
1, 863894, Control_c, 0, 67, 32
1, 863923, Control_c, 0, 67, 32
1, 863938, Control_c, 0, 67, 33
1, 863952, Control_c, 0, 67, 34
1, 863967, Control_c, 0, 67, 34
1, 863982, Control_c, 0, 64, 89
1, 863993, Note_on_c, 0, 92, 83
1, 863995, Note_on_c, 0, 73, 77
1, 863997, Control_c, 0, 64, 70
1, 864011, Note_on_c, 0, 70, 60
1, 864012, Control_c, 0, 64, 55
1, 864017, Note_on_c, 0, 66, 52
1, 864026, Control_c, 0, 64, 41
1, 864041, Control_c, 0, 64, 43
1, 864056, Control_c, 0, 64, 54
1, 864071, Control_c, 0, 64, 63
1, 864086, Control_c, 0, 64, 69
1, 864102, Control_c, 0, 64, 77
1, 864116, Control_c, 0, 64, 86
1, 864116, Control_c, 0, 67, 35
1, 864131, Control_c, 0, 64, 97
1, 864146, Control_c, 0, 64, 105
1, 864161, Control_c, 0, 64, 108
1, 864161, Control_c, 0, 67, 35
1, 864207, Note_off_c, 0, 66, 53
1, 864210, Note_off_c, 0, 73, 58
1, 864214, Note_off_c, 0, 70, 49
1, 864220, Control_c, 0, 67, 36
1, 864235, Control_c, 0, 67, 37
1, 864249, Control_c, 0, 64, 105
1, 864249, Control_c, 0, 67, 38
1, 864264, Control_c, 0, 64, 97
1, 864264, Control_c, 0, 67, 38
1, 864279, Control_c, 0, 64, 88
1, 864279, Control_c, 0, 67, 39
1, 864294, Control_c, 0, 64, 78
1, 864309, Control_c, 0, 64, 69
1, 864324, Control_c, 0, 64, 60
1, 864336, Note_off_c, 0, 92, 63
1, 864339, Control_c, 0, 64, 44
1, 864353, Control_c, 0, 64, 0
1, 864373, Note_on_c, 0, 80, 63
1, 864382, Note_on_c, 0, 73, 78
1, 864383, Control_c, 0, 67, 40
1, 864386, Note_on_c, 0, 70, 63
1, 864437, Note_on_c, 0, 65, 44
1, 864523, Control_c, 0, 67, 40
1, 864538, Control_c, 0, 64, 40
1, 864538, Control_c, 0, 67, 41
1, 864553, Control_c, 0, 64, 64
1, 864553, Control_c, 0, 67, 41
1, 864568, Control_c, 0, 64, 76
1, 864568, Control_c, 0, 67, 42
1, 864574, Note_off_c, 0, 80, 37
1, 864578, Note_off_c, 0, 73, 64
1, 864583, Control_c, 0, 64, 95
1, 864583, Control_c, 0, 67, 43
1, 864585, Note_off_c, 0, 70, 64
1, 864598, Control_c, 0, 64, 127
1, 864598, Control_c, 0, 67, 43
1, 864600, Note_off_c, 0, 65, 65
1, 864701, Control_c, 0, 67, 44
1, 864716, Control_c, 0, 67, 44
1, 864756, Note_on_c, 0, 80, 72
1, 864773, Note_on_c, 0, 56, 44
1, 864775, Control_c, 0, 67, 45
1, 864781, Note_off_c, 0, 80, 67
1, 864790, Control_c, 0, 67, 48
1, 864805, Control_c, 0, 67, 54
1, 864820, Control_c, 0, 67, 59
1, 864835, Control_c, 0, 67, 65
1, 864849, Control_c, 0, 67, 70
1, 864850, Note_off_c, 0, 56, 0
1, 864850, Note_on_c, 0, 56, 11
1, 864864, Control_c, 0, 67, 74
1, 864879, Control_c, 0, 67, 78
1, 864895, Control_c, 0, 67, 79
1, 864937, Note_on_c, 0, 72, 72
1, 864948, Note_on_c, 0, 69, 58
1, 864954, Note_on_c, 0, 64, 47
1, 864977, Note_off_c, 0, 64, 58
1, 864984, Control_c, 0, 67, 80
1, 865033, Note_off_c, 0, 69, 33
1, 865048, Note_off_c, 0, 72, 45
1, 865072, Note_off_c, 0, 56, 36
1, 865123, Note_on_c, 0, 72, 59
1, 865130, Note_on_c, 0, 68, 60
1, 865131, Control_c, 0, 64, 100
1, 865131, Control_c, 0, 67, 80
1, 865146, Control_c, 0, 64, 84
1, 865146, Control_c, 0, 67, 81
1, 865166, Note_on_c, 0, 63, 28
1, 865169, Control_c, 0, 64, 66
1, 865176, Note_on_c, 0, 44, 34
1, 865184, Control_c, 0, 64, 49
1, 865198, Control_c, 0, 64, 0
1, 865228, Control_c, 0, 64, 35
1, 865243, Control_c, 0, 64, 55
1, 865258, Control_c, 0, 64, 66
1, 865272, Control_c, 0, 64, 72
1, 865272, Control_c, 0, 67, 81
1, 865282, Note_off_c, 0, 44, 55
1, 865286, Note_off_c, 0, 63, 54
1, 865287, Control_c, 0, 64, 77
1, 865302, Control_c, 0, 64, 80
1, 865316, Control_c, 0, 64, 81
1, 865331, Control_c, 0, 64, 82
1, 865331, Control_c, 0, 67, 81
1, 865361, Control_c, 0, 64, 82
1, 865361, Control_c, 0, 67, 80
1, 865376, Control_c, 0, 67, 80
1, 865435, Control_c, 0, 64, 81
1, 865450, Control_c, 0, 64, 78
1, 865465, Control_c, 0, 64, 71
1, 865480, Control_c, 0, 64, 61
1, 865495, Control_c, 0, 64, 44
1, 865495, Control_c, 0, 67, 79
1, 865504, Note_on_c, 0, 62, 51
1, 865510, Control_c, 0, 64, 0
1, 865528, Note_on_c, 0, 44, 39
1, 865539, Control_c, 0, 64, 32
1, 865554, Control_c, 0, 64, 51
1, 865569, Control_c, 0, 64, 63
1, 865584, Control_c, 0, 64, 68
1, 865596, Note_off_c, 0, 44, 52
1, 865598, Control_c, 0, 64, 71
1, 865613, Control_c, 0, 64, 75
1, 865628, Control_c, 0, 64, 78
1, 865643, Control_c, 0, 64, 82
1, 865643, Control_c, 0, 67, 79
1, 865658, Control_c, 0, 64, 85
1, 865672, Control_c, 0, 64, 87
1, 865672, Control_c, 0, 67, 78
1, 865688, Control_c, 0, 64, 89
1, 865703, Control_c, 0, 64, 91
1, 865733, Control_c, 0, 64, 89
1, 865747, Control_c, 0, 64, 82
1, 865762, Control_c, 0, 64, 71
1, 865777, Control_c, 0, 64, 68
1, 865792, Control_c, 0, 64, 69
1, 865807, Control_c, 0, 64, 72
1, 865821, Control_c, 0, 64, 77
1, 865836, Control_c, 0, 64, 84
1, 865847, Note_on_c, 0, 32, 46
1, 865851, Control_c, 0, 64, 94
1, 865861, Note_on_c, 0, 61, 58
1, 865866, Control_c, 0, 64, 106
1, 865867, Note_off_c, 0, 62, 51
1, 865881, Control_c, 0, 64, 127
1, 865884, Note_off_c, 0, 32, 60
1, 865900, Note_off_c, 0, 61, 60
1, 865901, Note_off_c, 0, 72, 59
1, 865933, Control_c, 0, 67, 78
1, 865952, Note_off_c, 0, 68, 63
1, 866240, Note_on_c, 0, 92, 79
1, 866241, Note_on_c, 0, 60, 47
1, 866279, Note_off_c, 0, 60, 53
1, 866437, Control_c, 0, 67, 78
1, 866452, Control_c, 0, 67, 79
1, 866512, Control_c, 0, 67, 79
1, 866526, Control_c, 0, 67, 80
1, 866541, Control_c, 0, 64, 119
1, 866556, Control_c, 0, 64, 107
1, 866571, Control_c, 0, 64, 102
1, 866571, Control_c, 0, 67, 80
1, 866586, Control_c, 0, 64, 97
1, 866601, Control_c, 0, 64, 92
1, 866616, Control_c, 0, 64, 85
1, 866622, Note_on_c, 0, 80, 51
1, 866625, Note_on_c, 0, 72, 75
1, 866631, Control_c, 0, 64, 76
1, 866645, Control_c, 0, 64, 64
1, 866648, Note_on_c, 0, 68, 55
1, 866657, Note_on_c, 0, 59, 42
1, 866660, Control_c, 0, 64, 47
1, 866660, Control_c, 0, 67, 80
1, 866675, Note_off_c, 0, 92, 61
1, 866682, Control_c, 0, 64, 0
1, 866741, Control_c, 0, 67, 79
1, 866756, Control_c, 0, 67, 78
1, 866771, Control_c, 0, 64, 48
1, 866771, Control_c, 0, 67, 78
1, 866772, Note_off_c, 0, 80, 62
1, 866786, Control_c, 0, 64, 62
1, 866786, Control_c, 0, 67, 77
1, 866801, Control_c, 0, 64, 67
1, 866801, Control_c, 0, 67, 77
1, 866816, Control_c, 0, 64, 71
1, 866831, Control_c, 0, 64, 75
1, 866831, Control_c, 0, 67, 76
1, 866845, Control_c, 0, 64, 80
1, 866860, Control_c, 0, 64, 85
1, 866875, Control_c, 0, 64, 89
1, 866884, Note_off_c, 0, 59, 58
1, 866890, Control_c, 0, 64, 91
1, 866890, Control_c, 0, 67, 76
1, 866901, Note_off_c, 0, 72, 61
1, 866904, Control_c, 0, 64, 93
1, 866917, Note_off_c, 0, 68, 61
1, 866919, Control_c, 0, 64, 93
1, 866934, Control_c, 0, 64, 94
1, 866964, Control_c, 0, 64, 94
1, 867008, Control_c, 0, 67, 76
1, 867016, Note_on_c, 0, 80, 67
1, 867141, Control_c, 0, 67, 77
1, 867169, Note_on_c, 0, 70, 61
1, 867170, Control_c, 0, 64, 94
1, 867182, Note_on_c, 0, 60, 45
1, 867185, Control_c, 0, 64, 93
1, 867188, Note_on_c, 0, 67, 50
1, 867200, Control_c, 0, 64, 92
1, 867215, Control_c, 0, 64, 91
1, 867215, Control_c, 0, 67, 77
1, 867225, Note_off_c, 0, 67, 65
1, 867226, Note_off_c, 0, 60, 65
1, 867230, Control_c, 0, 64, 89
1, 867230, Control_c, 0, 67, 78
1, 867245, Control_c, 0, 64, 86
1, 867260, Control_c, 0, 64, 81
1, 867260, Control_c, 0, 67, 79
1, 867275, Control_c, 0, 64, 76
1, 867279, Note_off_c, 0, 70, 39
1, 867290, Control_c, 0, 64, 69
1, 867305, Control_c, 0, 64, 62
1, 867320, Control_c, 0, 64, 51
1, 867334, Control_c, 0, 64, 0
1, 867334, Control_c, 0, 67, 79
1, 867376, Note_off_c, 0, 80, 47
1, 867379, Control_c, 0, 67, 80
1, 867380, Note_on_c, 0, 70, 63
1, 867385, Note_on_c, 0, 68, 53
1, 867398, Note_on_c, 0, 66, 46
1, 867438, Note_on_c, 0, 61, 43
1, 867461, Control_c, 0, 64, 57
1, 867465, Note_off_c, 0, 68, 63
1, 867475, Control_c, 0, 64, 66
1, 867490, Control_c, 0, 64, 72
1, 867505, Control_c, 0, 64, 81
1, 867507, Note_off_c, 0, 66, 62
1, 867513, Note_off_c, 0, 70, 64
1, 867519, Control_c, 0, 64, 90
1, 867530, Note_off_c, 0, 61, 60
1, 867534, Control_c, 0, 64, 100
1, 867549, Control_c, 0, 64, 113
1, 867564, Control_c, 0, 64, 126
1, 867697, Control_c, 0, 64, 122
1, 867712, Control_c, 0, 64, 113
1, 867726, Control_c, 0, 64, 105
1, 867741, Control_c, 0, 64, 96
1, 867756, Control_c, 0, 64, 84
1, 867763, Note_on_c, 0, 63, 65
1, 867771, Control_c, 0, 64, 75
1, 867783, Note_on_c, 0, 60, 44
1, 867786, Control_c, 0, 64, 67
1, 867787, Note_on_c, 0, 56, 48
1, 867796, Note_on_c, 0, 57, 40
1, 867800, Control_c, 0, 64, 60
1, 867815, Control_c, 0, 64, 55
1, 867830, Control_c, 0, 64, 56
1, 867845, Control_c, 0, 64, 60
1, 867860, Control_c, 0, 64, 65
1, 867866, Note_off_c, 0, 60, 63
1, 867874, Control_c, 0, 64, 69
1, 867889, Control_c, 0, 64, 73
1, 867904, Control_c, 0, 64, 76
1, 867919, Control_c, 0, 64, 78
1, 867933, Control_c, 0, 64, 79
1, 867948, Control_c, 0, 64, 79
1, 867954, Note_off_c, 0, 57, 36
1, 867956, Note_off_c, 0, 56, 43
1, 868008, Control_c, 0, 64, 79
1, 868023, Control_c, 0, 64, 78
1, 868037, Control_c, 0, 64, 75
1, 868052, Control_c, 0, 64, 71
1, 868056, Note_off_c, 0, 63, 63
1, 868067, Control_c, 0, 64, 66
1, 868083, Control_c, 0, 64, 59
1, 868097, Control_c, 0, 64, 50
1, 868112, Control_c, 0, 64, 33
1, 868115, Note_on_c, 0, 65, 64
1, 868127, Control_c, 0, 64, 0
1, 868133, Note_on_c, 0, 58, 41
1, 868135, Note_on_c, 0, 44, 40
1, 868142, Note_on_c, 0, 61, 39
1, 868209, Control_c, 0, 64, 47
1, 868218, Note_off_c, 0, 61, 59
1, 868223, Control_c, 0, 64, 60
1, 868227, Note_off_c, 0, 58, 64
1, 868235, Note_off_c, 0, 44, 60
1, 868238, Control_c, 0, 64, 66
1, 868253, Control_c, 0, 64, 70
1, 868268, Control_c, 0, 64, 73
1, 868283, Control_c, 0, 64, 75
1, 868297, Control_c, 0, 64, 76
1, 868312, Control_c, 0, 64, 78
1, 868327, Control_c, 0, 64, 78
1, 868342, Control_c, 0, 64, 79
1, 868351, Note_off_c, 0, 65, 57
1, 868387, Control_c, 0, 64, 78
1, 868402, Control_c, 0, 64, 77
1, 868416, Control_c, 0, 64, 73
1, 868431, Control_c, 0, 64, 68
1, 868446, Control_c, 0, 64, 59
1, 868446, Control_c, 0, 67, 79
1, 868461, Control_c, 0, 64, 46
1, 868470, Note_on_c, 0, 66, 55
1, 868476, Control_c, 0, 64, 0
1, 868476, Control_c, 0, 67, 79
1, 868485, Note_on_c, 0, 59, 45
1, 868497, Note_on_c, 0, 44, 34
1, 868498, Note_on_c, 0, 62, 36
1, 868536, Control_c, 0, 64, 38
1, 868550, Control_c, 0, 64, 56
1, 868565, Control_c, 0, 64, 64
1, 868572, Note_off_c, 0, 59, 56
1, 868577, Note_off_c, 0, 44, 56
1, 868580, Control_c, 0, 64, 67
1, 868595, Control_c, 0, 64, 70
1, 868610, Control_c, 0, 64, 73
1, 868624, Control_c, 0, 64, 75
1, 868639, Control_c, 0, 64, 80
1, 868643, Note_off_c, 0, 62, 40
1, 868654, Control_c, 0, 64, 84
1, 868658, Note_off_c, 0, 66, 55
1, 868668, Control_c, 0, 64, 86
1, 868683, Control_c, 0, 64, 87
1, 868742, Control_c, 0, 64, 87
1, 868757, Control_c, 0, 64, 86
1, 868772, Control_c, 0, 64, 83
1, 868787, Control_c, 0, 64, 80
1, 868802, Control_c, 0, 64, 75
1, 868816, Control_c, 0, 64, 69
1, 868831, Control_c, 0, 64, 60
1, 868846, Control_c, 0, 64, 38
1, 868861, Control_c, 0, 64, 0
1, 868875, Note_on_c, 0, 67, 56
1, 868877, Note_on_c, 0, 64, 46
1, 868890, Note_on_c, 0, 58, 47
1, 868913, Note_on_c, 0, 44, 26
1, 868944, Control_c, 0, 64, 31
1, 868959, Control_c, 0, 64, 53
1, 868973, Control_c, 0, 64, 65
1, 868988, Note_off_c, 0, 58, 62
1, 868988, Control_c, 0, 64, 70
1, 869003, Control_c, 0, 64, 76
1, 869017, Note_off_c, 0, 64, 63
1, 869018, Control_c, 0, 64, 82
1, 869019, Note_off_c, 0, 67, 64
1, 869033, Control_c, 0, 64, 90
1, 869047, Control_c, 0, 64, 108
1, 869062, Control_c, 0, 64, 127
1, 869121, Control_c, 0, 67, 79
1, 869136, Control_c, 0, 67, 80
1, 869196, Note_off_c, 0, 44, 40
1, 869264, Note_on_c, 0, 32, 38
1, 869300, Note_off_c, 0, 32, 59
1, 869317, Note_on_c, 0, 92, 71
1, 869561, Note_on_c, 0, 68, 57
1, 869591, Note_on_c, 0, 57, 33
1, 869602, Note_on_c, 0, 65, 33
1, 869638, Note_off_c, 0, 57, 56
1, 869647, Note_off_c, 0, 68, 60
1, 869654, Note_off_c, 0, 65, 55
1, 869752, Control_c, 0, 64, 110
1, 869767, Control_c, 0, 64, 100
1, 869782, Control_c, 0, 64, 92
1, 869782, Control_c, 0, 67, 80
1, 869796, Control_c, 0, 64, 85
1, 869796, Control_c, 0, 67, 81
1, 869811, Control_c, 0, 64, 77
1, 869826, Control_c, 0, 64, 69
1, 869832, Note_on_c, 0, 80, 40
1, 869839, Note_off_c, 0, 92, 55
1, 869841, Note_on_c, 0, 68, 49
1, 869841, Control_c, 0, 64, 60
1, 869851, Note_on_c, 0, 65, 36
1, 869856, Control_c, 0, 64, 47
1, 869856, Control_c, 0, 67, 81
1, 869856, Note_on_c, 0, 56, 38
1, 869870, Control_c, 0, 64, 0
1, 869870, Control_c, 0, 67, 82
1, 869885, Control_c, 0, 67, 82
1, 869944, Control_c, 0, 67, 83
1, 869988, Control_c, 0, 64, 43
1, 870003, Control_c, 0, 64, 58
1, 870018, Control_c, 0, 64, 64
1, 870030, Note_off_c, 0, 80, 62
1, 870033, Control_c, 0, 64, 68
1, 870048, Control_c, 0, 64, 72
1, 870062, Control_c, 0, 64, 76
1, 870062, Control_c, 0, 67, 82
1, 870077, Control_c, 0, 64, 81
1, 870092, Control_c, 0, 64, 87
1, 870092, Control_c, 0, 67, 81
1, 870107, Control_c, 0, 64, 93
1, 870107, Control_c, 0, 67, 81
1, 870113, Note_off_c, 0, 68, 53
1, 870121, Control_c, 0, 64, 97
1, 870151, Control_c, 0, 67, 80
1, 870160, Note_off_c, 0, 56, 38
1, 870171, Note_off_c, 0, 65, 43
1, 870181, Control_c, 0, 67, 80
1, 870240, Control_c, 0, 67, 79
1, 870354, Note_on_c, 0, 79, 66
1, 870359, Control_c, 0, 64, 96
1, 870374, Control_c, 0, 64, 94
1, 870388, Control_c, 0, 64, 93
1, 870399, Note_on_c, 0, 76, 48
1, 870401, Note_on_c, 0, 67, 19
1, 870403, Control_c, 0, 64, 90
1, 870426, Control_c, 0, 64, 84
1, 870440, Control_c, 0, 64, 76
1, 870441, Note_on_c, 0, 64, 33
1, 870455, Control_c, 0, 64, 65
1, 870470, Control_c, 0, 64, 57
1, 870485, Control_c, 0, 64, 55
1, 870500, Control_c, 0, 64, 58
1, 870500, Control_c, 0, 67, 79
1, 870515, Control_c, 0, 64, 62
1, 870515, Control_c, 0, 67, 78
1, 870530, Control_c, 0, 64, 66
1, 870530, Control_c, 0, 67, 77
1, 870545, Control_c, 0, 64, 69
1, 870545, Control_c, 0, 67, 77
1, 870560, Control_c, 0, 64, 72
1, 870560, Control_c, 0, 67, 76
1, 870570, Note_off_c, 0, 67, 51
1, 870575, Control_c, 0, 64, 75
1, 870589, Control_c, 0, 64, 78
1, 870597, Note_off_c, 0, 64, 58
1, 870604, Control_c, 0, 64, 80
1, 870607, Note_off_c, 0, 76, 46
1, 870619, Control_c, 0, 64, 80
1, 870634, Control_c, 0, 64, 81
1, 870644, Note_off_c, 0, 79, 65
1, 870649, Control_c, 0, 64, 81
1, 870663, Control_c, 0, 64, 82
1, 870678, Control_c, 0, 64, 82
1, 870708, Control_c, 0, 64, 82
1, 870723, Control_c, 0, 64, 79
1, 870725, Note_on_c, 0, 80, 84
1, 870737, Control_c, 0, 64, 72
1, 870752, Control_c, 0, 64, 63
1, 870762, Note_on_c, 0, 65, 45
1, 870762, Note_on_c, 0, 77, 45
1, 870767, Control_c, 0, 64, 55
1, 870767, Control_c, 0, 67, 75
1, 870771, Note_on_c, 0, 61, 44
1, 870782, Control_c, 0, 64, 54
1, 870782, Control_c, 0, 67, 74
1, 870797, Control_c, 0, 64, 57
1, 870797, Control_c, 0, 67, 74
1, 870811, Control_c, 0, 64, 62
1, 870811, Control_c, 0, 67, 73
1, 870826, Control_c, 0, 64, 66
1, 870826, Control_c, 0, 67, 73
1, 870841, Control_c, 0, 64, 70
1, 870841, Control_c, 0, 67, 72
1, 870855, Control_c, 0, 64, 74
1, 870855, Control_c, 0, 67, 71
1, 870870, Control_c, 0, 64, 79
1, 870870, Control_c, 0, 67, 70
1, 870875, Note_off_c, 0, 61, 59
1, 870885, Control_c, 0, 64, 84
1, 870885, Control_c, 0, 67, 69
1, 870900, Control_c, 0, 64, 88
1, 870900, Control_c, 0, 67, 68
1, 870908, Note_off_c, 0, 65, 58
1, 870915, Control_c, 0, 64, 90
1, 870915, Control_c, 0, 67, 67
1, 870927, Note_off_c, 0, 77, 63
1, 870929, Control_c, 0, 64, 91
1, 870929, Control_c, 0, 67, 67
1, 870944, Control_c, 0, 64, 92
1, 870959, Control_c, 0, 64, 92
1, 871034, Control_c, 0, 64, 89
1, 871049, Control_c, 0, 64, 82
1, 871055, Note_on_c, 0, 79, 85
1, 871063, Control_c, 0, 64, 71
1, 871076, Note_off_c, 0, 80, 29
1, 871078, Control_c, 0, 64, 62
1, 871080, Note_on_c, 0, 67, 53
1, 871085, Note_on_c, 0, 76, 52
1, 871089, Note_on_c, 0, 57, 48
1, 871093, Control_c, 0, 64, 55
1, 871108, Control_c, 0, 64, 55
1, 871123, Control_c, 0, 64, 60
1, 871137, Control_c, 0, 64, 66
1, 871142, Note_off_c, 0, 76, 0
1, 871142, Note_on_c, 0, 76, 24
1, 871159, Control_c, 0, 64, 71
1, 871174, Control_c, 0, 64, 76
1, 871189, Control_c, 0, 64, 80
1, 871204, Control_c, 0, 64, 82
1, 871218, Control_c, 0, 64, 85
1, 871233, Note_off_c, 0, 67, 61
1, 871233, Control_c, 0, 64, 88
1, 871248, Control_c, 0, 64, 89
1, 871263, Control_c, 0, 64, 91
1, 871341, Note_off_c, 0, 57, 33
1, 871383, Control_c, 0, 64, 90
1, 871398, Control_c, 0, 64, 89
1, 871413, Control_c, 0, 64, 88
1, 871428, Control_c, 0, 64, 87
1, 871442, Control_c, 0, 64, 85
1, 871442, Control_c, 0, 67, 67
1, 871452, Note_off_c, 0, 76, 39
1, 871457, Control_c, 0, 64, 82
1, 871466, Note_on_c, 0, 80, 72
1, 871472, Note_on_c, 0, 65, 53
1, 871472, Control_c, 0, 64, 79
1, 871472, Control_c, 0, 67, 68
1, 871483, Note_on_c, 0, 77, 52
1, 871487, Control_c, 0, 64, 75
1, 871495, Note_on_c, 0, 56, 41
1, 871502, Control_c, 0, 64, 71
1, 871517, Control_c, 0, 64, 67
1, 871531, Control_c, 0, 64, 62
1, 871546, Control_c, 0, 64, 52
1, 871561, Control_c, 0, 64, 39
1, 871561, Control_c, 0, 67, 68
1, 871570, Note_off_c, 0, 79, 54
1, 871576, Control_c, 0, 64, 0
1, 871576, Control_c, 0, 67, 70
1, 871591, Control_c, 0, 67, 71
1, 871606, Control_c, 0, 67, 73
1, 871621, Control_c, 0, 67, 74
1, 871635, Control_c, 0, 67, 76
1, 871650, Control_c, 0, 67, 78
1, 871665, Control_c, 0, 67, 79
1, 871676, Note_off_c, 0, 56, 53
1, 871677, Note_on_c, 0, 55, 46
1, 871679, Control_c, 0, 67, 81
1, 871694, Control_c, 0, 67, 83
1, 871709, Control_c, 0, 67, 89
1, 871724, Control_c, 0, 67, 102
1, 871739, Control_c, 0, 67, 115
1, 871754, Control_c, 0, 67, 125
1, 871768, Control_c, 0, 67, 127
1, 871843, Note_on_c, 0, 56, 50
1, 871849, Note_off_c, 0, 55, 54
1, 872044, Note_off_c, 0, 56, 58
1, 872049, Note_on_c, 0, 55, 46
1, 872266, Note_on_c, 0, 56, 44
1, 872277, Note_off_c, 0, 55, 48
1, 872372, Note_off_c, 0, 65, 60
1, 872428, Control_c, 0, 64, 33
1, 872442, Control_c, 0, 64, 50
1, 872457, Control_c, 0, 64, 58
1, 872472, Control_c, 0, 64, 63
1, 872487, Control_c, 0, 64, 66
1, 872502, Control_c, 0, 64, 69
1, 872516, Control_c, 0, 64, 72
1, 872531, Control_c, 0, 64, 74
1, 872541, Note_off_c, 0, 77, 58
1, 872546, Control_c, 0, 64, 76
1, 872561, Control_c, 0, 64, 77
1, 872576, Control_c, 0, 64, 79
1, 872590, Control_c, 0, 64, 80
1, 872598, Note_off_c, 0, 56, 33
1, 872605, Control_c, 0, 64, 80
1, 872677, Note_on_c, 0, 79, 61
1, 872688, Note_on_c, 0, 67, 47
1, 872692, Note_on_c, 0, 76, 48
1, 872707, Note_on_c, 0, 57, 20
1, 872737, Note_off_c, 0, 80, 20
1, 872790, Control_c, 0, 64, 80
1, 872820, Control_c, 0, 64, 79
1, 872834, Control_c, 0, 64, 79
1, 872864, Control_c, 0, 64, 78
1, 872865, Note_off_c, 0, 67, 36
1, 872895, Control_c, 0, 64, 78
1, 872910, Control_c, 0, 64, 77
1, 872939, Control_c, 0, 64, 77
1, 872954, Control_c, 0, 64, 76
1, 872969, Control_c, 0, 64, 76
1, 872984, Control_c, 0, 64, 75
1, 872998, Note_off_c, 0, 57, 36
1, 872999, Control_c, 0, 64, 74
1, 873013, Control_c, 0, 64, 73
1, 873028, Control_c, 0, 64, 73
1, 873043, Control_c, 0, 64, 72
1, 873058, Control_c, 0, 64, 72
1, 873073, Control_c, 0, 64, 71
1, 873083, Note_on_c, 0, 80, 51
1, 873087, Control_c, 0, 64, 70
1, 873098, Note_on_c, 0, 77, 40
1, 873098, Note_off_c, 0, 76, 25
1, 873102, Control_c, 0, 64, 69
1, 873106, Note_on_c, 0, 56, 30
1, 873117, Control_c, 0, 64, 68
1, 873118, Note_on_c, 0, 65, 28
1, 873132, Control_c, 0, 64, 67
1, 873132, Note_off_c, 0, 79, 57
1, 873147, Control_c, 0, 64, 67
1, 873162, Control_c, 0, 64, 66
1, 873177, Control_c, 0, 64, 66
1, 873192, Control_c, 0, 64, 65
1, 873206, Control_c, 0, 64, 64
1, 873221, Control_c, 0, 64, 62
1, 873236, Control_c, 0, 64, 61
1, 873251, Control_c, 0, 64, 60
1, 873265, Control_c, 0, 64, 59
1, 873280, Control_c, 0, 64, 58
1, 873295, Control_c, 0, 64, 57
1, 873310, Control_c, 0, 64, 57
1, 873325, Control_c, 0, 64, 56
1, 873339, Control_c, 0, 64, 55
1, 873354, Control_c, 0, 64, 54
1, 873369, Control_c, 0, 64, 54
1, 873383, Control_c, 0, 64, 53
1, 873398, Control_c, 0, 64, 52
1, 873421, Control_c, 0, 64, 51
1, 873436, Control_c, 0, 64, 49
1, 873451, Control_c, 0, 64, 48
1, 873465, Control_c, 0, 64, 47
1, 873480, Control_c, 0, 64, 46
1, 873495, Control_c, 0, 64, 45
1, 873510, Control_c, 0, 64, 43
1, 873525, Control_c, 0, 64, 41
1, 873539, Control_c, 0, 64, 38
1, 873554, Control_c, 0, 64, 32
1, 873569, Control_c, 0, 64, 0
1, 873719, Control_c, 0, 67, 123
1, 873734, Control_c, 0, 64, 30
1, 873734, Control_c, 0, 67, 113
1, 873749, Control_c, 0, 64, 44
1, 873749, Control_c, 0, 67, 104
1, 873763, Control_c, 0, 64, 51
1, 873763, Control_c, 0, 67, 98
1, 873778, Control_c, 0, 64, 58
1, 873778, Control_c, 0, 67, 94
1, 873793, Control_c, 0, 64, 63
1, 873793, Control_c, 0, 67, 90
1, 873808, Control_c, 0, 64, 66
1, 873808, Control_c, 0, 67, 87
1, 873823, Control_c, 0, 64, 69
1, 873823, Control_c, 0, 67, 83
1, 873837, Control_c, 0, 64, 73
1, 873837, Control_c, 0, 67, 78
1, 873852, Control_c, 0, 64, 79
1, 873852, Control_c, 0, 67, 72
1, 873867, Control_c, 0, 64, 85
1, 873867, Control_c, 0, 67, 67
1, 873881, Control_c, 0, 64, 90
1, 873881, Control_c, 0, 67, 61
1, 873896, Control_c, 0, 64, 93
1, 873896, Control_c, 0, 67, 55
1, 873911, Control_c, 0, 64, 96
1, 873911, Control_c, 0, 67, 51
1, 873926, Control_c, 0, 64, 98
1, 873926, Control_c, 0, 67, 48
1, 873941, Control_c, 0, 64, 101
1, 873941, Control_c, 0, 67, 47
1, 873955, Control_c, 0, 64, 103
1, 873955, Control_c, 0, 67, 46
1, 873970, Control_c, 0, 64, 105
1, 873970, Control_c, 0, 67, 46
1, 873985, Control_c, 0, 67, 44
1, 874000, Control_c, 0, 64, 107
1, 874000, Control_c, 0, 67, 42
1, 874015, Control_c, 0, 64, 109
1, 874015, Control_c, 0, 67, 40
1, 874029, Control_c, 0, 64, 112
1, 874029, Control_c, 0, 67, 39
1, 874033, Note_on_c, 0, 82, 77
1, 874044, Note_on_c, 0, 58, 43
1, 874044, Control_c, 0, 64, 114
1, 874044, Control_c, 0, 67, 38
1, 874059, Control_c, 0, 67, 37
1, 874074, Control_c, 0, 64, 116
1, 874074, Control_c, 0, 67, 37
1, 874089, Control_c, 0, 67, 36
1, 874104, Control_c, 0, 64, 118
1, 874119, Control_c, 0, 64, 121
1, 874119, Control_c, 0, 67, 35
1, 874134, Control_c, 0, 67, 34
1, 874134, Note_off_c, 0, 56, 39
1, 874155, Control_c, 0, 67, 33
1, 874170, Control_c, 0, 67, 30
1, 874185, Control_c, 0, 67, 28
1, 874200, Control_c, 0, 64, 126
1, 874200, Control_c, 0, 67, 26
1, 874214, Control_c, 0, 67, 22
1, 874216, Note_off_c, 0, 65, 41
1, 874229, Control_c, 0, 67, 0
1, 874238, Note_off_c, 0, 77, 53
1, 874249, Note_off_c, 0, 80, 59
1, 874452, Control_c, 0, 64, 121
1, 874483, Control_c, 0, 64, 117
1, 874495, Note_on_c, 0, 76, 29
1, 874497, Note_on_c, 0, 79, 45
1, 874506, Note_on_c, 0, 67, 36
1, 874512, Control_c, 0, 64, 114
1, 874516, Note_on_c, 0, 57, 37
1, 874542, Control_c, 0, 64, 112
1, 874572, Control_c, 0, 64, 110
1, 874601, Control_c, 0, 64, 107
1, 874614, Note_off_c, 0, 67, 48
1, 874614, Note_off_c, 0, 76, 44
1, 874616, Control_c, 0, 64, 104
1, 874630, Control_c, 0, 64, 102
1, 874660, Control_c, 0, 64, 99
1, 874690, Control_c, 0, 64, 97
1, 874697, Note_off_c, 0, 79, 38
1, 874704, Control_c, 0, 64, 95
1, 874719, Control_c, 0, 64, 93
1, 874727, Note_off_c, 0, 57, 39
1, 874734, Control_c, 0, 64, 91
1, 874749, Control_c, 0, 64, 90
1, 874764, Control_c, 0, 64, 88
1, 874778, Control_c, 0, 64, 87
1, 874793, Control_c, 0, 64, 85
1, 874808, Control_c, 0, 64, 84
1, 874822, Control_c, 0, 64, 82
1, 874837, Control_c, 0, 64, 81
1, 874852, Control_c, 0, 64, 80
1, 874867, Control_c, 0, 64, 78
1, 874882, Control_c, 0, 64, 77
1, 874888, Note_on_c, 0, 80, 45
1, 874891, Note_on_c, 0, 77, 40
1, 874904, Control_c, 0, 64, 76
1, 874912, Note_on_c, 0, 65, 38
1, 874919, Control_c, 0, 64, 74
1, 874922, Note_on_c, 0, 56, 36
1, 874934, Control_c, 0, 64, 73
1, 874949, Control_c, 0, 64, 71
1, 874964, Control_c, 0, 64, 70
1, 874978, Control_c, 0, 64, 68
1, 874993, Control_c, 0, 64, 66
1, 875008, Control_c, 0, 64, 65
1, 875023, Control_c, 0, 64, 64
1, 875037, Control_c, 0, 64, 62
1, 875052, Control_c, 0, 64, 59
1, 875067, Control_c, 0, 64, 55
1, 875082, Control_c, 0, 64, 50
1, 875097, Control_c, 0, 64, 42
1, 875111, Control_c, 0, 64, 0
1, 875213, Note_off_c, 0, 58, 57
1, 875230, Control_c, 0, 64, 51
1, 875234, Note_off_c, 0, 82, 63
1, 875245, Control_c, 0, 64, 60
1, 875260, Control_c, 0, 64, 63
1, 875275, Control_c, 0, 64, 63
1, 875290, Control_c, 0, 64, 63
1, 875305, Control_c, 0, 64, 61
1, 875320, Control_c, 0, 64, 58
1, 875335, Control_c, 0, 64, 50
1, 875350, Control_c, 0, 64, 40
1, 875365, Control_c, 0, 64, 0
1, 875453, Control_c, 0, 64, 39
1, 875468, Control_c, 0, 64, 49
1, 875483, Control_c, 0, 64, 57
1, 875498, Control_c, 0, 64, 61
1, 875503, Note_on_c, 0, 82, 78
1, 875513, Control_c, 0, 64, 63
1, 875524, Note_on_c, 0, 58, 31
1, 875527, Control_c, 0, 64, 65
1, 875542, Control_c, 0, 64, 66
1, 875557, Control_c, 0, 64, 67
1, 875571, Control_c, 0, 64, 70
1, 875586, Control_c, 0, 64, 73
1, 875601, Control_c, 0, 64, 74
1, 875609, Note_off_c, 0, 58, 58
1, 875616, Control_c, 0, 64, 75
1, 875630, Note_off_c, 0, 82, 63
1, 875727, Control_c, 0, 64, 74
1, 875742, Control_c, 0, 64, 74
1, 875757, Control_c, 0, 64, 73
1, 875772, Control_c, 0, 64, 72
1, 875779, Note_on_c, 0, 83, 74
1, 875786, Control_c, 0, 64, 71
1, 875801, Control_c, 0, 64, 69
1, 875816, Control_c, 0, 64, 67
1, 875818, Note_on_c, 0, 59, 35
1, 875831, Control_c, 0, 64, 65
1, 875846, Control_c, 0, 64, 63
1, 875860, Control_c, 0, 64, 61
1, 875875, Control_c, 0, 64, 59
1, 875890, Control_c, 0, 64, 57
1, 875905, Control_c, 0, 64, 54
1, 875920, Control_c, 0, 64, 49
1, 875934, Control_c, 0, 64, 38
1, 875949, Control_c, 0, 64, 0
1, 876247, Control_c, 0, 64, 34
1, 876262, Control_c, 0, 64, 47
1, 876276, Control_c, 0, 64, 56
1, 876291, Control_c, 0, 64, 61
1, 876306, Control_c, 0, 64, 65
1, 876321, Control_c, 0, 64, 69
1, 876336, Control_c, 0, 64, 73
1, 876340, Note_off_c, 0, 56, 56
1, 876350, Control_c, 0, 64, 77
1, 876365, Control_c, 0, 64, 79
1, 876365, Control_c, 0, 67, 21
1, 876380, Control_c, 0, 64, 81
1, 876380, Control_c, 0, 67, 23
1, 876395, Control_c, 0, 67, 25
1, 876432, Control_c, 0, 67, 28
1, 876447, Control_c, 0, 67, 30
1, 876462, Control_c, 0, 67, 32
1, 876476, Control_c, 0, 64, 80
1, 876476, Control_c, 0, 67, 38
1, 876491, Control_c, 0, 64, 80
1, 876491, Control_c, 0, 67, 46
1, 876506, Control_c, 0, 64, 79
1, 876506, Control_c, 0, 67, 55
1, 876521, Control_c, 0, 64, 78
1, 876521, Control_c, 0, 67, 62
1, 876536, Control_c, 0, 64, 77
1, 876536, Control_c, 0, 67, 68
1, 876550, Control_c, 0, 64, 77
1, 876550, Control_c, 0, 67, 75
1, 876565, Control_c, 0, 64, 76
1, 876565, Control_c, 0, 67, 83
1, 876580, Control_c, 0, 64, 75
1, 876580, Control_c, 0, 67, 90
1, 876595, Control_c, 0, 64, 74
1, 876595, Control_c, 0, 67, 95
1, 876609, Control_c, 0, 64, 73
1, 876609, Control_c, 0, 67, 100
1, 876620, Note_on_c, 0, 56, 42
1, 876624, Control_c, 0, 64, 72
1, 876624, Control_c, 0, 67, 103
1, 876639, Control_c, 0, 64, 72
1, 876639, Control_c, 0, 67, 105
1, 876654, Control_c, 0, 64, 71
1, 876669, Control_c, 0, 64, 71
1, 876669, Control_c, 0, 67, 108
1, 876683, Control_c, 0, 64, 69
1, 876698, Control_c, 0, 64, 68
1, 876713, Control_c, 0, 64, 67
1, 876728, Control_c, 0, 64, 66
1, 876743, Control_c, 0, 64, 65
1, 876757, Control_c, 0, 64, 65
1, 876787, Control_c, 0, 64, 64
1, 876802, Control_c, 0, 64, 64
1, 876813, Note_on_c, 0, 55, 59
1, 876817, Control_c, 0, 64, 63
1, 876826, Note_off_c, 0, 56, 56
1, 876831, Control_c, 0, 64, 63
1, 876846, Control_c, 0, 64, 62
1, 876861, Control_c, 0, 64, 61
1, 876877, Control_c, 0, 64, 61
1, 876892, Control_c, 0, 64, 60
1, 876906, Control_c, 0, 64, 59
1, 876921, Control_c, 0, 64, 58
1, 876936, Control_c, 0, 64, 57
1, 876951, Control_c, 0, 64, 55
1, 876966, Control_c, 0, 64, 54
1, 876980, Note_on_c, 0, 56, 63
1, 876981, Control_c, 0, 64, 52
1, 876983, Note_off_c, 0, 55, 60
1, 876995, Control_c, 0, 64, 50
1, 877010, Control_c, 0, 64, 47
1, 877025, Control_c, 0, 64, 42
1, 877040, Control_c, 0, 64, 35
1, 877055, Control_c, 0, 64, 0
1, 877164, Note_off_c, 0, 56, 58
1, 877168, Note_on_c, 0, 55, 48
1, 877347, Note_off_c, 0, 55, 54
1, 877362, Note_on_c, 0, 56, 49
1, 877447, Control_c, 0, 64, 46
1, 877462, Control_c, 0, 64, 59
1, 877477, Control_c, 0, 64, 63
1, 877492, Control_c, 0, 64, 64
1, 877506, Control_c, 0, 64, 65
1, 877519, Note_off_c, 0, 65, 47
1, 877521, Control_c, 0, 64, 66
1, 877536, Control_c, 0, 64, 68
1, 877541, Note_off_c, 0, 77, 49
1, 877550, Control_c, 0, 64, 70
1, 877565, Control_c, 0, 64, 73
1, 877580, Control_c, 0, 64, 75
1, 877595, Control_c, 0, 64, 76
1, 877618, Note_off_c, 0, 56, 38
1, 877633, Note_off_c, 0, 80, 58
1, 877700, Control_c, 0, 64, 75
1, 877715, Control_c, 0, 64, 72
1, 877729, Control_c, 0, 64, 71
1, 877742, Note_on_c, 0, 57, 48
1, 877744, Note_on_c, 0, 76, 46
1, 877745, Note_on_c, 0, 67, 48
1, 877747, Note_on_c, 0, 79, 41
1, 877759, Control_c, 0, 64, 71
1, 877773, Control_c, 0, 64, 73
1, 877788, Control_c, 0, 64, 75
1, 877803, Control_c, 0, 64, 76
1, 877818, Control_c, 0, 64, 78
1, 877833, Control_c, 0, 64, 79
1, 877839, Note_off_c, 0, 79, 64
1, 877848, Control_c, 0, 64, 80
1, 877863, Control_c, 0, 64, 81
1, 877878, Control_c, 0, 64, 82
1, 877893, Control_c, 0, 64, 83
1, 877905, Note_off_c, 0, 67, 37
1, 877907, Note_off_c, 0, 76, 57
1, 877927, Note_off_c, 0, 57, 36
1, 878018, Control_c, 0, 64, 82
1, 878033, Control_c, 0, 64, 81
1, 878048, Control_c, 0, 64, 81
1, 878063, Control_c, 0, 64, 80
1, 878077, Control_c, 0, 64, 80
1, 878092, Control_c, 0, 64, 79
1, 878106, Control_c, 0, 64, 78
1, 878121, Control_c, 0, 64, 77
1, 878135, Control_c, 0, 64, 75
1, 878150, Control_c, 0, 64, 74
1, 878165, Control_c, 0, 64, 73
1, 878170, Note_on_c, 0, 80, 36
1, 878177, Note_on_c, 0, 65, 43
1, 878179, Control_c, 0, 64, 71
1, 878182, Note_on_c, 0, 56, 31
1, 878182, Note_on_c, 0, 77, 36
1, 878194, Control_c, 0, 64, 70
1, 878209, Control_c, 0, 64, 68
1, 878224, Control_c, 0, 64, 65
1, 878239, Control_c, 0, 64, 63
1, 878253, Control_c, 0, 64, 60
1, 878268, Control_c, 0, 64, 57
1, 878283, Control_c, 0, 64, 52
1, 878298, Control_c, 0, 64, 45
1, 878313, Control_c, 0, 64, 0
1, 878481, Note_off_c, 0, 59, 57
1, 878527, Note_off_c, 0, 83, 61
1, 878537, Control_c, 0, 64, 47
1, 878551, Control_c, 0, 64, 59
1, 878566, Control_c, 0, 64, 63
1, 878581, Control_c, 0, 64, 64
1, 878595, Control_c, 0, 64, 65
1, 878610, Control_c, 0, 64, 67
1, 878625, Control_c, 0, 64, 68
1, 878647, Control_c, 0, 64, 69
1, 878662, Control_c, 0, 64, 71
1, 878677, Control_c, 0, 64, 71
1, 878677, Control_c, 0, 67, 106
1, 878692, Control_c, 0, 64, 72
1, 878706, Control_c, 0, 64, 72
1, 878706, Control_c, 0, 67, 101
1, 878721, Control_c, 0, 67, 99
1, 878736, Control_c, 0, 64, 73
1, 878736, Control_c, 0, 67, 95
1, 878751, Control_c, 0, 64, 73
1, 878751, Control_c, 0, 67, 92
1, 878766, Control_c, 0, 67, 88
1, 878781, Control_c, 0, 67, 79
1, 878795, Control_c, 0, 64, 74
1, 878795, Control_c, 0, 67, 66
1, 878810, Control_c, 0, 67, 50
1, 878825, Control_c, 0, 67, 32
1, 878840, Control_c, 0, 67, 0
1, 878900, Control_c, 0, 64, 73
1, 878915, Control_c, 0, 64, 72
1, 878929, Control_c, 0, 64, 70
1, 878944, Control_c, 0, 64, 68
1, 878959, Control_c, 0, 64, 65
1, 878974, Control_c, 0, 64, 62
1, 878989, Control_c, 0, 64, 58
1, 879003, Control_c, 0, 64, 55
1, 879004, Note_on_c, 0, 83, 74
1, 879018, Control_c, 0, 64, 53
1, 879020, Note_on_c, 0, 59, 35
1, 879033, Control_c, 0, 64, 52
1, 879063, Control_c, 0, 64, 53
1, 879077, Control_c, 0, 64, 55
1, 879092, Control_c, 0, 64, 58
1, 879107, Control_c, 0, 64, 62
1, 879121, Control_c, 0, 64, 64
1, 879136, Control_c, 0, 64, 66
1, 879151, Control_c, 0, 64, 68
1, 879166, Control_c, 0, 64, 70
1, 879181, Control_c, 0, 64, 72
1, 879195, Control_c, 0, 64, 74
1, 879210, Control_c, 0, 64, 76
1, 879225, Control_c, 0, 64, 78
1, 879240, Control_c, 0, 64, 79
1, 879255, Control_c, 0, 64, 80
1, 879258, Note_off_c, 0, 83, 60
1, 879271, Control_c, 0, 64, 81
1, 879286, Control_c, 0, 64, 81
1, 879300, Control_c, 0, 64, 82
1, 879335, Note_off_c, 0, 59, 40
1, 879471, Control_c, 0, 67, 19
1, 879515, Control_c, 0, 64, 81
1, 879515, Control_c, 0, 67, 22
1, 879544, Control_c, 0, 64, 81
1, 879544, Control_c, 0, 67, 24
1, 879559, Control_c, 0, 64, 80
1, 879574, Control_c, 0, 64, 80
1, 879574, Control_c, 0, 67, 26
1, 879604, Control_c, 0, 67, 29
1, 879619, Control_c, 0, 64, 79
1, 879619, Control_c, 0, 67, 32
1, 879634, Control_c, 0, 64, 79
1, 879634, Control_c, 0, 67, 34
1, 879648, Control_c, 0, 64, 78
1, 879648, Control_c, 0, 67, 35
1, 879663, Control_c, 0, 64, 77
1, 879663, Control_c, 0, 67, 37
1, 879678, Control_c, 0, 64, 76
1, 879678, Control_c, 0, 67, 40
1, 879693, Control_c, 0, 64, 75
1, 879693, Control_c, 0, 67, 42
1, 879708, Control_c, 0, 64, 74
1, 879708, Control_c, 0, 67, 45
1, 879723, Control_c, 0, 64, 73
1, 879723, Control_c, 0, 67, 47
1, 879738, Control_c, 0, 64, 72
1, 879738, Control_c, 0, 67, 49
1, 879752, Control_c, 0, 64, 71
1, 879752, Control_c, 0, 67, 50
1, 879767, Control_c, 0, 64, 70
1, 879767, Control_c, 0, 67, 51
1, 879782, Control_c, 0, 64, 69
1, 879782, Control_c, 0, 67, 51
1, 879797, Control_c, 0, 64, 67
1, 879797, Control_c, 0, 67, 52
1, 879812, Control_c, 0, 64, 66
1, 879812, Control_c, 0, 67, 53
1, 879826, Control_c, 0, 64, 65
1, 879826, Control_c, 0, 67, 53
1, 879841, Control_c, 0, 64, 65
1, 879841, Control_c, 0, 67, 54
1, 879856, Control_c, 0, 64, 64
1, 879856, Control_c, 0, 67, 56
1, 879871, Control_c, 0, 64, 63
1, 879871, Control_c, 0, 67, 58
1, 879886, Control_c, 0, 64, 62
1, 879886, Control_c, 0, 67, 60
1, 879900, Control_c, 0, 64, 60
1, 879900, Control_c, 0, 67, 61
1, 879915, Control_c, 0, 64, 58
1, 879915, Control_c, 0, 67, 62
1, 879930, Control_c, 0, 64, 57
1, 879930, Control_c, 0, 67, 62
1, 879944, Control_c, 0, 64, 56
1, 879958, Note_on_c, 0, 84, 65
1, 879959, Control_c, 0, 64, 55
1, 879974, Control_c, 0, 64, 53
1, 879985, Note_on_c, 0, 60, 22
1, 879989, Control_c, 0, 64, 48
1, 880004, Control_c, 0, 64, 40
1, 880004, Control_c, 0, 67, 63
1, 880018, Control_c, 0, 64, 0
1, 880220, Control_c, 0, 67, 62
1, 880338, Control_c, 0, 67, 63
1, 880353, Control_c, 0, 64, 46
1, 880367, Control_c, 0, 64, 62
1, 880382, Control_c, 0, 64, 70
1, 880382, Control_c, 0, 67, 63
1, 880397, Control_c, 0, 64, 81
1, 880397, Control_c, 0, 67, 64
1, 880411, Note_off_c, 0, 65, 56
1, 880412, Control_c, 0, 64, 98
1, 880427, Control_c, 0, 64, 119
1, 880427, Control_c, 0, 67, 64
1, 880441, Note_off_c, 0, 60, 46
1, 880441, Control_c, 0, 64, 127
1, 880441, Control_c, 0, 67, 65
1, 880456, Control_c, 0, 67, 71
1, 880471, Control_c, 0, 67, 80
1, 880486, Control_c, 0, 67, 87
1, 880488, Note_off_c, 0, 56, 47
1, 880501, Control_c, 0, 67, 94
1, 880516, Control_c, 0, 67, 102
1, 880531, Control_c, 0, 67, 111
1, 880546, Control_c, 0, 67, 119
1, 880561, Control_c, 0, 67, 126
1, 880608, Note_off_c, 0, 77, 43
1, 880614, Note_off_c, 0, 84, 56
1, 880650, Note_off_c, 0, 80, 56
1, 880904, Note_on_c, 0, 44, 38
1, 881532, Control_c, 0, 64, 117
1, 881547, Control_c, 0, 64, 113
1, 881562, Control_c, 0, 64, 109
1, 881577, Control_c, 0, 64, 105
1, 881591, Control_c, 0, 64, 101
1, 881606, Control_c, 0, 64, 97
1, 881621, Control_c, 0, 64, 94
1, 881636, Control_c, 0, 64, 92
1, 881658, Control_c, 0, 64, 90
1, 881674, Control_c, 0, 64, 88
1, 881689, Control_c, 0, 64, 86
1, 881703, Control_c, 0, 64, 84
1, 881718, Control_c, 0, 64, 82
1, 881719, Note_on_c, 0, 56, 66
1, 881733, Control_c, 0, 64, 80
1, 881747, Control_c, 0, 64, 79
1, 881762, Control_c, 0, 64, 78
1, 881777, Control_c, 0, 64, 77
1, 881792, Control_c, 0, 64, 75
1, 881807, Control_c, 0, 64, 73
1, 881822, Control_c, 0, 64, 71
1, 881836, Control_c, 0, 64, 70
1, 881851, Control_c, 0, 64, 67
1, 881866, Control_c, 0, 64, 64
1, 881881, Control_c, 0, 64, 59
1, 881896, Control_c, 0, 64, 53
1, 881911, Control_c, 0, 64, 44
1, 881926, Control_c, 0, 64, 31
1, 881940, Control_c, 0, 64, 0
1, 881968, Note_on_c, 0, 36, 39
1, 882103, Control_c, 0, 64, 38
1, 882118, Control_c, 0, 64, 49
1, 882133, Control_c, 0, 64, 55
1, 882147, Control_c, 0, 64, 58
1, 882158, Note_off_c, 0, 44, 46
1, 882162, Control_c, 0, 64, 61
1, 882175, Note_on_c, 0, 37, 48
1, 882177, Control_c, 0, 64, 63
1, 882192, Control_c, 0, 64, 64
1, 882207, Control_c, 0, 64, 66
1, 882221, Control_c, 0, 64, 68
1, 882236, Control_c, 0, 64, 70
1, 882251, Control_c, 0, 64, 73
1, 882266, Control_c, 0, 64, 77
1, 882275, Note_off_c, 0, 36, 39
1, 882281, Control_c, 0, 64, 79
1, 882295, Control_c, 0, 64, 82
1, 882310, Control_c, 0, 64, 85
1, 882325, Control_c, 0, 64, 87
1, 882340, Control_c, 0, 64, 89
1, 882353, Note_on_c, 0, 39, 49
1, 882355, Control_c, 0, 64, 91
1, 882436, Note_off_c, 0, 37, 36
1, 882482, Control_c, 0, 64, 90
1, 882497, Control_c, 0, 64, 89
1, 882512, Control_c, 0, 64, 88
1, 882526, Control_c, 0, 64, 87
1, 882537, Note_off_c, 0, 39, 55
1, 882541, Control_c, 0, 64, 85
1, 882544, Note_on_c, 0, 41, 49
1, 882546, Note_on_c, 0, 68, 54
1, 882556, Control_c, 0, 64, 84
1, 882570, Control_c, 0, 64, 81
1, 882585, Control_c, 0, 64, 78
1, 882600, Control_c, 0, 64, 75
1, 882614, Control_c, 0, 64, 71
1, 882629, Control_c, 0, 64, 67
1, 882644, Control_c, 0, 64, 61
1, 882659, Control_c, 0, 64, 50
1, 882674, Control_c, 0, 64, 36
1, 882689, Control_c, 0, 64, 0
1, 882710, Note_on_c, 0, 42, 51
1, 882732, Note_off_c, 0, 41, 45
1, 882866, Control_c, 0, 64, 36
1, 882874, Note_on_c, 0, 44, 57
1, 882881, Control_c, 0, 64, 47
1, 882885, Note_off_c, 0, 42, 54
1, 882895, Control_c, 0, 64, 55
1, 882910, Control_c, 0, 64, 59
1, 882925, Control_c, 0, 64, 60
1, 882930, Note_off_c, 0, 68, 55
1, 882940, Control_c, 0, 64, 62
1, 882955, Control_c, 0, 64, 64
1, 882955, Control_c, 0, 67, 119
1, 882969, Control_c, 0, 64, 67
1, 882969, Control_c, 0, 67, 114
1, 882984, Control_c, 0, 64, 71
1, 882984, Control_c, 0, 67, 109
1, 882999, Control_c, 0, 64, 74
1, 882999, Control_c, 0, 67, 106
1, 883014, Control_c, 0, 64, 76
1, 883014, Control_c, 0, 67, 102
1, 883029, Control_c, 0, 64, 78
1, 883029, Control_c, 0, 67, 100
1, 883031, Note_on_c, 0, 46, 65
1, 883035, Note_off_c, 0, 44, 55
1, 883044, Control_c, 0, 64, 80
1, 883044, Control_c, 0, 67, 98
1, 883059, Control_c, 0, 64, 80
1, 883073, Control_c, 0, 64, 81
1, 883184, Note_off_c, 0, 46, 61
1, 883184, Control_c, 0, 64, 81
1, 883199, Control_c, 0, 64, 80
1, 883209, Note_on_c, 0, 58, 63
1, 883214, Control_c, 0, 64, 79
1, 883222, Note_on_c, 0, 48, 40
1, 883229, Control_c, 0, 64, 79
1, 883243, Control_c, 0, 64, 77
1, 883244, Note_off_c, 0, 56, 59
1, 883258, Control_c, 0, 64, 76
1, 883274, Control_c, 0, 64, 74
1, 883289, Control_c, 0, 64, 74
1, 883318, Control_c, 0, 67, 100
1, 883348, Control_c, 0, 64, 73
1, 883366, Note_off_c, 0, 48, 60
1, 883389, Note_on_c, 0, 49, 52
1, 883389, Note_on_c, 0, 56, 67
1, 883392, Control_c, 0, 67, 102
1, 883407, Control_c, 0, 64, 73
1, 883422, Note_off_c, 0, 58, 61
1, 883422, Control_c, 0, 64, 72
1, 883437, Control_c, 0, 64, 71
1, 883452, Control_c, 0, 64, 70
1, 883467, Control_c, 0, 64, 69
1, 883482, Control_c, 0, 64, 67
1, 883497, Control_c, 0, 64, 66
1, 883512, Control_c, 0, 64, 65
1, 883526, Control_c, 0, 64, 63
1, 883541, Control_c, 0, 64, 62
1, 883547, Note_on_c, 0, 51, 58
1, 883554, Note_on_c, 0, 55, 77
1, 883556, Note_off_c, 0, 49, 55
1, 883556, Control_c, 0, 64, 60
1, 883560, Note_off_c, 0, 56, 61
1, 883571, Control_c, 0, 64, 58
1, 883586, Control_c, 0, 64, 56
1, 883600, Control_c, 0, 64, 54
1, 883615, Control_c, 0, 64, 53
1, 883630, Control_c, 0, 64, 51
1, 883645, Control_c, 0, 64, 49
1, 883660, Control_c, 0, 64, 47
1, 883674, Control_c, 0, 64, 44
1, 883689, Control_c, 0, 64, 40
1, 883704, Control_c, 0, 64, 34
1, 883711, Note_on_c, 0, 56, 82
1, 883713, Note_off_c, 0, 51, 52
1, 883718, Control_c, 0, 64, 0
1, 883728, Note_on_c, 0, 53, 49
1, 883746, Note_off_c, 0, 55, 60
1, 883900, Note_on_c, 0, 61, 77
1, 883903, Note_off_c, 0, 53, 61
1, 883924, Note_on_c, 0, 52, 48
1, 883939, Note_off_c, 0, 56, 61
1, 884054, Note_off_c, 0, 52, 63
1, 884068, Control_c, 0, 64, 43
1, 884072, Note_on_c, 0, 53, 46
1, 884083, Control_c, 0, 64, 52
1, 884098, Control_c, 0, 64, 58
1, 884113, Control_c, 0, 64, 62
1, 884128, Control_c, 0, 64, 64
1, 884142, Control_c, 0, 64, 66
1, 884157, Control_c, 0, 64, 67
1, 884172, Control_c, 0, 64, 69
1, 884187, Control_c, 0, 64, 70
1, 884202, Control_c, 0, 64, 73
1, 884216, Control_c, 0, 64, 75
1, 884231, Control_c, 0, 64, 76
1, 884241, Note_off_c, 0, 53, 59
1, 884246, Control_c, 0, 64, 77
1, 884255, Note_on_c, 0, 54, 55
1, 884261, Control_c, 0, 64, 78
1, 884276, Control_c, 0, 64, 80
1, 884290, Control_c, 0, 64, 82
1, 884305, Control_c, 0, 64, 84
1, 884320, Control_c, 0, 64, 85
1, 884330, Note_off_c, 0, 61, 58
1, 884334, Control_c, 0, 64, 85
1, 884400, Note_on_c, 0, 56, 74
1, 884404, Note_off_c, 0, 54, 62
1, 884409, Control_c, 0, 64, 81
1, 884424, Control_c, 0, 64, 69
1, 884439, Control_c, 0, 64, 54
1, 884454, Control_c, 0, 64, 0
1, 884483, Control_c, 0, 64, 45
1, 884498, Control_c, 0, 64, 64
1, 884513, Control_c, 0, 64, 71
1, 884518, Note_off_c, 0, 56, 61
1, 884528, Control_c, 0, 64, 79
1, 884542, Control_c, 0, 64, 83
1, 884557, Control_c, 0, 64, 85
1, 884572, Control_c, 0, 64, 86
1, 884582, Note_on_c, 0, 56, 63
1, 884662, Note_off_c, 0, 56, 58
1, 884746, Note_on_c, 0, 58, 61
1, 884757, Control_c, 0, 64, 85
1, 884772, Control_c, 0, 64, 84
1, 884787, Control_c, 0, 64, 84
1, 884802, Control_c, 0, 64, 83
1, 884816, Control_c, 0, 64, 82
1, 884831, Control_c, 0, 64, 81
1, 884846, Control_c, 0, 64, 80
1, 884846, Control_c, 0, 67, 104
1, 884862, Control_c, 0, 64, 78
1, 884877, Control_c, 0, 64, 76
1, 884891, Control_c, 0, 64, 74
1, 884903, Note_off_c, 0, 58, 61
1, 884906, Control_c, 0, 64, 72
1, 884921, Control_c, 0, 64, 70
1, 884926, Note_on_c, 0, 56, 74
1, 884926, Note_on_c, 0, 60, 56
1, 884936, Control_c, 0, 64, 68
1, 884951, Control_c, 0, 64, 66
1, 884965, Control_c, 0, 64, 65
1, 884965, Control_c, 0, 67, 106
1, 884980, Control_c, 0, 64, 63
1, 884995, Control_c, 0, 64, 61
1, 885010, Control_c, 0, 64, 58
1, 885025, Control_c, 0, 64, 55
1, 885039, Control_c, 0, 64, 52
1, 885054, Control_c, 0, 64, 49
1, 885069, Control_c, 0, 64, 47
1, 885069, Control_c, 0, 67, 108
1, 885083, Control_c, 0, 64, 46
1, 885094, Note_off_c, 0, 60, 56
1, 885098, Control_c, 0, 64, 44
1, 885099, Note_on_c, 0, 61, 58
1, 885113, Control_c, 0, 64, 42
1, 885113, Control_c, 0, 67, 110
1, 885128, Control_c, 0, 64, 39
1, 885143, Control_c, 0, 64, 37
1, 885157, Control_c, 0, 64, 37
1, 885157, Control_c, 0, 67, 112
1, 885172, Control_c, 0, 64, 36
1, 885202, Control_c, 0, 64, 36
1, 885217, Control_c, 0, 64, 35
1, 885232, Control_c, 0, 64, 34
1, 885232, Control_c, 0, 67, 114
1, 885247, Control_c, 0, 64, 34
1, 885268, Note_off_c, 0, 61, 58
1, 885270, Note_on_c, 0, 63, 58
1, 885275, Note_on_c, 0, 54, 60
1, 885306, Control_c, 0, 64, 34
1, 885315, Note_off_c, 0, 56, 57
1, 885321, Control_c, 0, 64, 36
1, 885336, Control_c, 0, 64, 40
1, 885351, Control_c, 0, 64, 46
1, 885365, Control_c, 0, 64, 52
1, 885387, Control_c, 0, 64, 55
1, 885402, Control_c, 0, 64, 56
1, 885417, Control_c, 0, 64, 56
1, 885431, Note_off_c, 0, 63, 63
1, 885432, Control_c, 0, 64, 55
1, 885435, Note_off_c, 0, 54, 61
1, 885446, Control_c, 0, 64, 53
1, 885446, Control_c, 0, 67, 112
1, 885459, Note_on_c, 0, 65, 60
1, 885461, Control_c, 0, 64, 51
1, 885476, Control_c, 0, 64, 49
1, 885491, Control_c, 0, 64, 46
1, 885506, Control_c, 0, 64, 41
1, 885521, Control_c, 0, 64, 36
1, 885521, Control_c, 0, 67, 110
1, 885536, Control_c, 0, 64, 31
1, 885551, Control_c, 0, 64, 0
1, 885637, Note_on_c, 0, 66, 58
1, 885643, Note_on_c, 0, 53, 52
1, 885643, Note_off_c, 0, 65, 56
1, 885714, Control_c, 0, 67, 108
1, 885774, Note_off_c, 0, 53, 63
1, 885774, Control_c, 0, 64, 42
1, 885774, Control_c, 0, 67, 106
1, 885788, Control_c, 0, 64, 53
1, 885803, Control_c, 0, 64, 56
1, 885820, Note_on_c, 0, 68, 56
1, 885827, Note_off_c, 0, 66, 59
1, 885848, Control_c, 0, 64, 56
1, 885877, Control_c, 0, 64, 57
1, 885906, Control_c, 0, 64, 56
1, 885966, Control_c, 0, 64, 56
1, 885980, Control_c, 0, 64, 55
1, 885995, Control_c, 0, 64, 55
1, 886003, Note_on_c, 0, 69, 64
1, 886010, Control_c, 0, 64, 54
1, 886017, Note_on_c, 0, 52, 52
1, 886018, Note_off_c, 0, 68, 64
1, 886025, Control_c, 0, 64, 54
1, 886039, Control_c, 0, 64, 53
1, 886054, Control_c, 0, 64, 51
1, 886069, Control_c, 0, 64, 50
1, 886084, Control_c, 0, 64, 49
1, 886099, Control_c, 0, 64, 46
1, 886114, Control_c, 0, 64, 40
1, 886136, Control_c, 0, 64, 0
1, 886195, Control_c, 0, 67, 104
1, 886201, Note_on_c, 0, 71, 54
1, 886254, Control_c, 0, 64, 39
1, 886269, Control_c, 0, 64, 52
1, 886284, Control_c, 0, 64, 59
1, 886284, Control_c, 0, 67, 101
1, 886299, Control_c, 0, 64, 62
1, 886299, Control_c, 0, 67, 99
1, 886314, Control_c, 0, 64, 64
1, 886329, Control_c, 0, 64, 65
1, 886344, Control_c, 0, 64, 67
1, 886344, Control_c, 0, 67, 97
1, 886358, Control_c, 0, 64, 69
1, 886365, Note_on_c, 0, 73, 58
1, 886366, Note_off_c, 0, 71, 60
1, 886373, Control_c, 0, 64, 71
1, 886388, Control_c, 0, 64, 73
1, 886403, Control_c, 0, 64, 75
1, 886418, Control_c, 0, 64, 77
1, 886433, Control_c, 0, 64, 78
1, 886447, Control_c, 0, 64, 78
1, 886463, Control_c, 0, 64, 79
1, 886516, Note_off_c, 0, 73, 57
1, 886529, Note_on_c, 0, 74, 61
1, 886582, Control_c, 0, 67, 99
1, 886597, Control_c, 0, 64, 78
1, 886611, Control_c, 0, 64, 78
1, 886626, Control_c, 0, 64, 77
1, 886641, Control_c, 0, 64, 77
1, 886655, Control_c, 0, 64, 76
1, 886670, Control_c, 0, 64, 74
1, 886685, Control_c, 0, 64, 73
1, 886700, Control_c, 0, 64, 70
1, 886715, Control_c, 0, 64, 67
1, 886716, Note_off_c, 0, 74, 59
1, 886728, Note_on_c, 0, 70, 63
1, 886729, Control_c, 0, 64, 64
1, 886730, Note_on_c, 0, 75, 51
1, 886735, Note_off_c, 0, 69, 55
1, 886744, Control_c, 0, 64, 61
1, 886754, Note_on_c, 0, 47, 42
1, 886759, Control_c, 0, 64, 57
1, 886774, Control_c, 0, 64, 51
1, 886789, Control_c, 0, 64, 38
1, 886803, Control_c, 0, 64, 0
1, 886809, Note_off_c, 0, 52, 30
1, 886922, Note_off_c, 0, 75, 60
1, 886926, Note_on_c, 0, 76, 57
1, 887092, Control_c, 0, 64, 41
1, 887100, Note_off_c, 0, 76, 63
1, 887107, Control_c, 0, 64, 47
1, 887121, Note_on_c, 0, 78, 51
1, 887122, Control_c, 0, 64, 52
1, 887136, Control_c, 0, 64, 56
1, 887151, Control_c, 0, 64, 60
1, 887166, Control_c, 0, 64, 62
1, 887181, Control_c, 0, 64, 65
1, 887196, Control_c, 0, 64, 67
1, 887211, Control_c, 0, 64, 69
1, 887226, Control_c, 0, 64, 71
1, 887241, Control_c, 0, 64, 74
1, 887256, Control_c, 0, 64, 77
1, 887271, Control_c, 0, 64, 79
1, 887284, Note_on_c, 0, 80, 61
1, 887286, Control_c, 0, 64, 81
1, 887300, Control_c, 0, 64, 81
1, 887309, Note_off_c, 0, 78, 61
1, 887315, Control_c, 0, 64, 82
1, 887377, Note_off_c, 0, 70, 54
1, 887390, Control_c, 0, 64, 81
1, 887405, Control_c, 0, 64, 81
1, 887419, Control_c, 0, 64, 80
1, 887434, Control_c, 0, 64, 79
1, 887449, Control_c, 0, 64, 76
1, 887464, Control_c, 0, 64, 74
1, 887479, Control_c, 0, 64, 71
1, 887483, Note_on_c, 0, 71, 58
1, 887490, Note_on_c, 0, 41, 37
1, 887491, Note_off_c, 0, 80, 62
1, 887493, Control_c, 0, 64, 69
1, 887506, Note_on_c, 0, 81, 46
1, 887508, Control_c, 0, 64, 67
1, 887515, Note_off_c, 0, 47, 36
1, 887523, Control_c, 0, 64, 65
1, 887538, Control_c, 0, 64, 62
1, 887552, Control_c, 0, 64, 58
1, 887567, Control_c, 0, 64, 55
1, 887582, Control_c, 0, 64, 51
1, 887597, Control_c, 0, 64, 45
1, 887611, Control_c, 0, 64, 32
1, 887634, Control_c, 0, 64, 0
1, 887681, Note_off_c, 0, 81, 58
1, 887685, Note_on_c, 0, 82, 58
1, 887841, Control_c, 0, 64, 32
1, 887856, Control_c, 0, 64, 44
1, 887871, Control_c, 0, 64, 55
1, 887882, Note_on_c, 0, 83, 57
1, 887885, Control_c, 0, 64, 61
1, 887890, Note_off_c, 0, 82, 57
1, 887900, Control_c, 0, 64, 63
1, 887915, Control_c, 0, 64, 65
1, 887926, Note_off_c, 0, 41, 50
1, 887930, Control_c, 0, 64, 68
1, 887945, Control_c, 0, 64, 71
1, 887959, Control_c, 0, 64, 75
1, 887974, Control_c, 0, 64, 79
1, 887989, Control_c, 0, 64, 84
1, 888004, Control_c, 0, 64, 88
1, 888019, Control_c, 0, 64, 93
1, 888034, Control_c, 0, 64, 95
1, 888076, Note_on_c, 0, 84, 67
1, 888090, Note_off_c, 0, 83, 48
1, 888102, Note_on_c, 0, 75, 35
1, 888108, Control_c, 0, 64, 97
1, 888128, Note_off_c, 0, 71, 35
1, 888149, Note_off_c, 0, 75, 0
1, 888186, Poly_aftertouch_c, 0, 75, 127
1, 888203, Note_off_c, 0, 84, 57
1, 888331, Control_c, 0, 64, 96
1, 888342, Note_on_c, 0, 84, 67
1, 888346, Control_c, 0, 64, 95
1, 888356, Note_on_c, 0, 74, 58
1, 888361, Control_c, 0, 64, 94
1, 888374, Note_on_c, 0, 40, 36
1, 888376, Control_c, 0, 64, 93
1, 888397, Control_c, 0, 64, 91
1, 888412, Control_c, 0, 64, 88
1, 888420, Poly_aftertouch_c, 0, 75, 0
1, 888427, Control_c, 0, 64, 82
1, 888442, Control_c, 0, 64, 74
1, 888457, Control_c, 0, 64, 65
1, 888472, Control_c, 0, 64, 59
1, 888487, Control_c, 0, 64, 58
1, 888502, Control_c, 0, 64, 61
1, 888516, Control_c, 0, 64, 63
1, 888531, Control_c, 0, 64, 66
1, 888546, Control_c, 0, 64, 69
1, 888561, Control_c, 0, 64, 73
1, 888576, Control_c, 0, 64, 76
1, 888582, Note_on_c, 0, 42, 46
1, 888590, Control_c, 0, 64, 77
1, 888605, Control_c, 0, 64, 77
1, 888620, Control_c, 0, 64, 78
1, 888634, Control_c, 0, 64, 78
1, 888664, Control_c, 0, 64, 79
1, 888695, Note_off_c, 0, 40, 36
1, 888738, Control_c, 0, 64, 78
1, 888747, Note_on_c, 0, 43, 50
1, 888753, Control_c, 0, 64, 77
1, 888768, Control_c, 0, 64, 73
1, 888769, Note_off_c, 0, 42, 35
1, 888782, Control_c, 0, 64, 66
1, 888797, Control_c, 0, 64, 61
1, 888812, Control_c, 0, 64, 58
1, 888827, Control_c, 0, 64, 57
1, 888842, Control_c, 0, 64, 56
1, 888857, Control_c, 0, 64, 52
1, 888872, Control_c, 0, 64, 50
1, 888887, Control_c, 0, 64, 54
1, 888902, Control_c, 0, 64, 59
1, 888913, Note_off_c, 0, 43, 56
1, 888917, Control_c, 0, 64, 63
1, 888931, Control_c, 0, 64, 64
1, 888943, Note_on_c, 0, 44, 36
1, 888961, Control_c, 0, 64, 64
1, 888976, Control_c, 0, 64, 66
1, 888991, Control_c, 0, 64, 71
1, 889005, Control_c, 0, 64, 74
1, 889020, Control_c, 0, 64, 76
1, 889035, Control_c, 0, 64, 78
1, 889050, Control_c, 0, 64, 78
1, 889065, Control_c, 0, 64, 79
1, 889080, Control_c, 0, 64, 79
1, 889091, Note_off_c, 0, 44, 42
1, 889095, Control_c, 0, 64, 80
1, 889176, Control_c, 0, 64, 79
1, 889191, Control_c, 0, 64, 78
1, 889206, Control_c, 0, 64, 77
1, 889220, Control_c, 0, 64, 75
1, 889235, Control_c, 0, 64, 73
1, 889250, Control_c, 0, 64, 71
1, 889265, Control_c, 0, 64, 69
1, 889269, Note_on_c, 0, 44, 33
1, 889280, Control_c, 0, 64, 67
1, 889295, Control_c, 0, 64, 64
1, 889310, Control_c, 0, 64, 61
1, 889324, Control_c, 0, 64, 56
1, 889339, Control_c, 0, 64, 50
1, 889354, Control_c, 0, 64, 39
1, 889369, Control_c, 0, 64, 0
1, 889577, Control_c, 0, 67, 101
1, 889667, Control_c, 0, 67, 103
1, 889681, Control_c, 0, 64, 39
1, 889696, Control_c, 0, 64, 53
1, 889711, Control_c, 0, 64, 59
1, 889726, Control_c, 0, 64, 62
1, 889726, Control_c, 0, 67, 105
1, 889741, Control_c, 0, 64, 64
1, 889755, Control_c, 0, 64, 66
1, 889770, Control_c, 0, 64, 68
1, 889785, Control_c, 0, 64, 72
1, 889785, Control_c, 0, 67, 107
1, 889800, Control_c, 0, 64, 75
1, 889815, Control_c, 0, 64, 79
1, 889825, Note_off_c, 0, 74, 37
1, 889829, Control_c, 0, 64, 82
1, 889829, Control_c, 0, 67, 110
1, 889844, Control_c, 0, 64, 85
1, 889859, Control_c, 0, 64, 88
1, 889859, Control_c, 0, 67, 112
1, 889881, Control_c, 0, 64, 94
1, 889896, Control_c, 0, 64, 100
1, 889896, Control_c, 0, 67, 115
1, 889911, Control_c, 0, 64, 109
1, 889926, Control_c, 0, 64, 127
1, 889926, Control_c, 0, 67, 117
1, 889941, Control_c, 0, 67, 120
1, 889955, Note_off_c, 0, 84, 34
1, 889955, Control_c, 0, 67, 127
1, 890013, Note_off_c, 0, 44, 46
1, 890341, Control_c, 0, 64, 121
1, 890355, Control_c, 0, 64, 116
1, 890370, Control_c, 0, 64, 113
1, 890385, Control_c, 0, 64, 110
1, 890400, Control_c, 0, 64, 106
1, 890414, Control_c, 0, 64, 103
1, 890429, Control_c, 0, 64, 101
1, 890444, Control_c, 0, 64, 99
1, 890460, Control_c, 0, 64, 97
1, 890475, Control_c, 0, 64, 94
1, 890490, Control_c, 0, 64, 92
1, 890502, Note_on_c, 0, 85, 44
1, 890504, Control_c, 0, 64, 91
1, 890519, Control_c, 0, 64, 89
1, 890526, Note_on_c, 0, 73, 34
1, 890528, Note_on_c, 0, 37, 27
1, 890534, Control_c, 0, 64, 88
1, 890549, Control_c, 0, 64, 87
1, 890564, Control_c, 0, 64, 85
1, 890578, Control_c, 0, 64, 83
1, 890593, Control_c, 0, 64, 82
1, 890608, Control_c, 0, 64, 80
1, 890630, Control_c, 0, 64, 78
1, 890645, Control_c, 0, 64, 75
1, 890660, Control_c, 0, 64, 72
1, 890675, Control_c, 0, 64, 70
1, 890690, Control_c, 0, 64, 67
1, 890704, Control_c, 0, 64, 64
1, 890719, Control_c, 0, 64, 62
1, 890734, Control_c, 0, 64, 59
1, 890749, Control_c, 0, 64, 56
1, 890764, Control_c, 0, 64, 53
1, 890778, Control_c, 0, 64, 50
1, 890793, Control_c, 0, 64, 46
1, 890808, Control_c, 0, 64, 40
1, 890823, Control_c, 0, 64, 33
1, 890836, Control_c, 0, 64, 0
1, 891162, Control_c, 0, 64, 34
1, 891177, Control_c, 0, 64, 40
1, 891192, Control_c, 0, 64, 46
1, 891207, Control_c, 0, 64, 53
1, 891222, Control_c, 0, 64, 58
1, 891236, Control_c, 0, 64, 61
1, 891252, Control_c, 0, 64, 62
1, 891282, Control_c, 0, 64, 63
1, 891297, Control_c, 0, 64, 64
1, 891312, Control_c, 0, 64, 64
1, 891319, Note_off_c, 0, 73, 25
1, 891326, Control_c, 0, 64, 65
1, 891341, Control_c, 0, 64, 65
1, 891378, Control_c, 0, 64, 66
1, 891396, Note_off_c, 0, 85, 34
1, 891556, Control_c, 0, 64, 65
1, 891586, Control_c, 0, 64, 65
1, 891592, Note_off_c, 0, 37, 17
1, 891631, Control_c, 0, 64, 64
1, 891675, Control_c, 0, 64, 64
1, 891705, Control_c, 0, 64, 63
1, 891749, Control_c, 0, 64, 63
1, 892231, Control_c, 0, 64, 62
1, 892645, Control_c, 0, 64, 62
1, 892854, Control_c, 0, 64, 61
1, 893054, Control_c, 0, 64, 62
1, 893054, Control_c, 0, 67, 100
1, 893068, Control_c, 0, 67, 61
1, 893083, Control_c, 0, 67, 0
1, 893098, Control_c, 0, 64, 62
1, 893142, Control_c, 0, 64, 61
1, 893156, Control_c, 0, 64, 58
1, 893171, Control_c, 0, 64, 52
1, 893186, Control_c, 0, 64, 44
1, 893201, Control_c, 0, 64, 0
1, 893230, Control_c, 0, 67, 26
1, 893245, Control_c, 0, 67, 40
1, 893260, Control_c, 0, 67, 62
1, 893275, Control_c, 0, 67, 91
1, 893290, Control_c, 0, 67, 123
1, 893304, Control_c, 0, 67, 127
1, 893393, Control_c, 0, 64, 43
1, 893408, Control_c, 0, 64, 61
1, 893423, Control_c, 0, 64, 62
1, 893438, Control_c, 0, 64, 57
1, 893453, Control_c, 0, 64, 35
1, 893459, Note_on_c, 0, 34, 58
1, 893459, Note_on_c, 0, 46, 60
1, 893468, Control_c, 0, 64, 0
1, 893468, Note_on_c, 0, 58, 59
1, 893485, Note_off_c, 0, 46, 63
1, 893491, Note_off_c, 0, 34, 63
1, 893517, Note_off_c, 0, 58, 61
1, 893552, Note_on_c, 0, 62, 57
1, 893587, Note_off_c, 0, 62, 64
1, 893614, Note_on_c, 0, 65, 54
1, 893686, Note_on_c, 0, 39, 61
1, 893687, Note_off_c, 0, 65, 62
1, 893697, Note_on_c, 0, 51, 38
1, 893703, Note_on_c, 0, 59, 53
1, 893715, Note_off_c, 0, 39, 62
1, 893731, Note_off_c, 0, 51, 32
1, 893734, Note_off_c, 0, 59, 65
1, 893764, Note_on_c, 0, 63, 48
1, 893826, Note_off_c, 0, 63, 61
1, 893832, Note_on_c, 0, 65, 58
1, 893897, Note_on_c, 0, 56, 61
1, 893907, Note_on_c, 0, 60, 53
1, 893909, Note_on_c, 0, 44, 48
1, 893909, Note_off_c, 0, 65, 62
1, 893919, Note_off_c, 0, 56, 61
1, 893938, Note_off_c, 0, 44, 56
1, 893948, Note_off_c, 0, 60, 62
1, 893982, Note_on_c, 0, 64, 52
1, 894021, Note_off_c, 0, 64, 63
1, 894040, Note_on_c, 0, 65, 65
1, 894112, Note_on_c, 0, 51, 63
1, 894115, Note_on_c, 0, 59, 55
1, 894117, Note_on_c, 0, 39, 59
1, 894117, Note_off_c, 0, 65, 62
1, 894133, Note_off_c, 0, 51, 64
1, 894145, Note_off_c, 0, 39, 60
1, 894152, Note_off_c, 0, 59, 60
1, 894172, Note_on_c, 0, 63, 62
1, 894235, Note_off_c, 0, 63, 63
1, 894251, Note_on_c, 0, 65, 66
1, 894292, Note_off_c, 0, 65, 60
1, 894313, Note_on_c, 0, 58, 68
1, 894320, Control_c, 0, 64, 46
1, 894324, Note_on_c, 0, 46, 65
1, 894329, Note_on_c, 0, 34, 57
1, 894335, Control_c, 0, 64, 49
1, 894341, Note_off_c, 0, 58, 67
1, 894350, Control_c, 0, 64, 51
1, 894372, Control_c, 0, 64, 59
1, 894381, Note_on_c, 0, 62, 76
1, 894387, Control_c, 0, 64, 61
1, 894417, Control_c, 0, 64, 61
1, 894432, Control_c, 0, 64, 60
1, 894433, Note_off_c, 0, 62, 63
1, 894450, Note_on_c, 0, 65, 72
1, 894463, Control_c, 0, 64, 61
1, 894477, Control_c, 0, 64, 61
1, 894479, Note_off_c, 0, 34, 62
1, 894481, Note_off_c, 0, 46, 64
1, 894492, Control_c, 0, 64, 61
1, 894497, Note_off_c, 0, 65, 64
1, 894507, Control_c, 0, 64, 60
1, 894513, Note_on_c, 0, 70, 81
1, 894522, Control_c, 0, 64, 59
1, 894532, Note_off_c, 0, 70, 72
1, 894537, Control_c, 0, 64, 59
1, 894551, Control_c, 0, 64, 58
1, 894566, Control_c, 0, 64, 56
1, 894576, Note_on_c, 0, 74, 82
1, 894581, Control_c, 0, 64, 56
1, 894595, Control_c, 0, 64, 55
1, 894601, Note_off_c, 0, 74, 65
1, 894610, Control_c, 0, 64, 56
1, 894625, Control_c, 0, 64, 56
1, 894636, Note_on_c, 0, 77, 74
1, 894669, Control_c, 0, 64, 57
1, 894684, Control_c, 0, 64, 52
1, 894686, Note_off_c, 0, 77, 62
1, 894699, Control_c, 0, 64, 0
1, 894706, Note_on_c, 0, 82, 84
1, 894928, Note_on_c, 0, 56, 64
1, 894930, Note_on_c, 0, 63, 68
1, 894936, Note_on_c, 0, 60, 55
1, 894958, Note_off_c, 0, 56, 64
1, 894958, Note_off_c, 0, 63, 68
1, 894960, Note_off_c, 0, 60, 61
1, 895175, Note_on_c, 0, 61, 62
1, 895177, Note_on_c, 0, 58, 55
1, 895195, Note_on_c, 0, 54, 45
1, 895202, Note_off_c, 0, 82, 60
1, 895247, Note_on_c, 0, 84, 71
1, 895307, Note_off_c, 0, 84, 63
1, 895315, Note_on_c, 0, 80, 73
1, 895315, Note_off_c, 0, 61, 0
1, 895334, Note_on_c, 0, 61, 23
1, 895359, Control_c, 0, 64, 48
1, 895374, Note_off_c, 0, 80, 62
1, 895374, Control_c, 0, 64, 57
1, 895375, Note_on_c, 0, 75, 75
1, 895389, Control_c, 0, 64, 43
1, 895397, Note_off_c, 0, 75, 70
1, 895404, Control_c, 0, 64, 0
1, 895430, Note_on_c, 0, 72, 75
1, 895482, Note_off_c, 0, 72, 63
1, 895499, Note_on_c, 0, 68, 77
1, 895535, Note_off_c, 0, 58, 22
1, 895537, Control_c, 0, 64, 42
1, 895550, Note_off_c, 0, 68, 66
1, 895552, Note_off_c, 0, 61, 58
1, 895552, Control_c, 0, 64, 58
1, 895566, Control_c, 0, 64, 64
1, 895575, Note_on_c, 0, 82, 93
1, 895577, Note_off_c, 0, 54, 65
1, 895581, Control_c, 0, 64, 68
1, 895596, Control_c, 0, 64, 74
1, 895611, Control_c, 0, 64, 77
1, 895626, Control_c, 0, 64, 72
1, 895641, Control_c, 0, 64, 59
1, 895656, Control_c, 0, 64, 0
1, 895715, Control_c, 0, 64, 39
1, 895730, Control_c, 0, 64, 49
1, 895744, Control_c, 0, 64, 53
1, 895759, Control_c, 0, 64, 52
1, 895774, Control_c, 0, 64, 32
1, 895789, Control_c, 0, 64, 0
1, 895802, Note_on_c, 0, 59, 72
1, 895802, Note_on_c, 0, 56, 69
1, 895807, Note_on_c, 0, 52, 60
1, 895823, Note_off_c, 0, 59, 70
1, 895831, Note_off_c, 0, 56, 64
1, 895838, Note_off_c, 0, 52, 64
1, 896049, Note_on_c, 0, 58, 79
1, 896058, Note_on_c, 0, 55, 61
1, 896078, Note_on_c, 0, 51, 48
1, 896120, Note_off_c, 0, 82, 62
1, 896125, Note_on_c, 0, 80, 73
1, 896186, Note_off_c, 0, 80, 64
1, 896191, Note_on_c, 0, 76, 79
1, 896225, Note_off_c, 0, 76, 65
1, 896227, Control_c, 0, 64, 39
1, 896241, Control_c, 0, 64, 45
1, 896256, Control_c, 0, 64, 48
1, 896258, Note_on_c, 0, 71, 65
1, 896271, Control_c, 0, 64, 50
1, 896286, Control_c, 0, 64, 50
1, 896288, Note_off_c, 0, 71, 65
1, 896315, Control_c, 0, 64, 50
1, 896328, Note_on_c, 0, 68, 73
1, 896360, Control_c, 0, 64, 50
1, 896374, Control_c, 0, 64, 51
1, 896396, Note_on_c, 0, 63, 61
1, 896404, Control_c, 0, 64, 51
1, 896408, Note_off_c, 0, 68, 63
1, 896434, Control_c, 0, 64, 46
1, 896438, Note_off_c, 0, 58, 66
1, 896440, Note_off_c, 0, 55, 64
1, 896449, Control_c, 0, 64, 0
1, 896458, Note_off_c, 0, 63, 57
1, 896460, Note_off_c, 0, 51, 64
1, 896464, Note_on_c, 0, 70, 79
1, 896704, Note_on_c, 0, 50, 66
1, 896705, Note_off_c, 0, 70, 65
1, 896723, Control_c, 0, 64, 50
1, 896738, Control_c, 0, 64, 53
1, 896753, Control_c, 0, 64, 54
1, 896758, Note_on_c, 0, 46, 72
1, 896768, Control_c, 0, 64, 55
1, 896776, Note_off_c, 0, 50, 51
1, 896782, Control_c, 0, 64, 57
1, 896797, Control_c, 0, 64, 58
1, 896812, Control_c, 0, 64, 58
1, 896825, Note_on_c, 0, 43, 67
1, 896833, Note_off_c, 0, 46, 64
1, 896842, Control_c, 0, 64, 59
1, 896872, Control_c, 0, 64, 58
1, 896887, Control_c, 0, 64, 52
1, 896892, Note_off_c, 0, 43, 65
1, 896896, Note_on_c, 0, 39, 84
1, 896901, Note_on_c, 0, 51, 72
1, 896902, Control_c, 0, 64, 0
1, 896923, Note_off_c, 0, 39, 69
1, 896932, Note_off_c, 0, 51, 65
1, 896975, Note_on_c, 0, 55, 61
1, 897036, Note_off_c, 0, 55, 59
1, 897056, Note_on_c, 0, 58, 60
1, 897128, Note_on_c, 0, 52, 62
1, 897134, Note_on_c, 0, 40, 75
1, 897146, Note_off_c, 0, 58, 60
1, 897161, Note_off_c, 0, 40, 65
1, 897189, Note_off_c, 0, 52, 61
1, 897210, Note_on_c, 0, 56, 55
1, 897272, Note_on_c, 0, 58, 60
1, 897276, Note_off_c, 0, 56, 59
1, 897360, Note_on_c, 0, 53, 63
1, 897369, Note_on_c, 0, 31, 82
1, 897373, Note_off_c, 0, 58, 63
1, 897397, Note_off_c, 0, 31, 67
1, 897430, Note_off_c, 0, 53, 63
1, 897447, Note_on_c, 0, 57, 60
1, 897502, Note_off_c, 0, 57, 60
1, 897530, Note_on_c, 0, 58, 61
1, 897596, Note_on_c, 0, 52, 64
1, 897604, Note_on_c, 0, 34, 83
1, 897621, Note_off_c, 0, 58, 60
1, 897627, Note_off_c, 0, 34, 65
1, 897663, Note_off_c, 0, 52, 62
1, 897678, Note_on_c, 0, 56, 66
1, 897725, Note_off_c, 0, 56, 61
1, 897746, Note_on_c, 0, 58, 68
1, 897804, Note_off_c, 0, 58, 65
1, 897817, Note_on_c, 0, 51, 72
1, 897820, Note_on_c, 0, 39, 84
1, 897840, Note_off_c, 0, 51, 65
1, 897888, Control_c, 0, 67, 124
1, 897891, Note_on_c, 0, 55, 68
1, 897902, Control_c, 0, 67, 118
1, 897917, Control_c, 0, 67, 114
1, 897932, Control_c, 0, 67, 110
1, 897934, Note_off_c, 0, 55, 56
1, 897946, Control_c, 0, 67, 107
1, 897957, Note_on_c, 0, 58, 73
1, 897961, Control_c, 0, 67, 104
1, 897976, Control_c, 0, 67, 101
1, 897991, Control_c, 0, 67, 96
1, 898006, Control_c, 0, 64, 31
1, 898006, Control_c, 0, 67, 89
1, 898010, Note_off_c, 0, 58, 65
1, 898020, Control_c, 0, 64, 40
1, 898020, Control_c, 0, 67, 81
1, 898029, Note_on_c, 0, 63, 77
1, 898035, Control_c, 0, 64, 47
1, 898035, Control_c, 0, 67, 72
1, 898050, Note_off_c, 0, 63, 69
1, 898050, Control_c, 0, 64, 49
1, 898050, Control_c, 0, 67, 61
1, 898064, Control_c, 0, 67, 50
1, 898079, Control_c, 0, 64, 48
1, 898079, Control_c, 0, 67, 38
1, 898094, Control_c, 0, 67, 22
1, 898099, Note_on_c, 0, 67, 77
1, 898102, Note_off_c, 0, 39, 63
1, 898117, Control_c, 0, 64, 47
1, 898117, Control_c, 0, 67, 0
1, 898132, Control_c, 0, 64, 45
1, 898136, Note_off_c, 0, 67, 63
1, 898146, Control_c, 0, 64, 40
1, 898161, Control_c, 0, 64, 35
1, 898176, Note_on_c, 0, 70, 76
1, 898176, Control_c, 0, 64, 33
1, 898191, Control_c, 0, 64, 33
1, 898199, Note_off_c, 0, 70, 70
1, 898206, Control_c, 0, 64, 0
1, 898236, Note_on_c, 0, 75, 88
1, 898250, Control_c, 0, 64, 47
1, 898264, Control_c, 0, 64, 69
1, 898279, Control_c, 0, 64, 109
1, 898294, Control_c, 0, 64, 127
1, 898324, Control_c, 0, 64, 102
1, 898339, Control_c, 0, 64, 92
1, 898354, Control_c, 0, 64, 90
1, 898369, Control_c, 0, 64, 91
1, 898383, Control_c, 0, 64, 97
1, 898398, Control_c, 0, 64, 127
1, 898404, Note_off_c, 0, 75, 63
1, 898467, Note_on_c, 0, 37, 90
1, 898473, Control_c, 0, 64, 86
1, 898488, Control_c, 0, 64, 37
1, 898493, Note_off_c, 0, 37, 66
1, 898503, Control_c, 0, 64, 0
1, 898696, Note_on_c, 0, 47, 93
1, 898698, Note_on_c, 0, 35, 91
1, 898704, Note_on_c, 0, 83, 96
1, 898706, Note_on_c, 0, 84, 98
1, 898725, Control_c, 0, 64, 54
1, 898727, Note_off_c, 0, 35, 66
1, 898729, Note_off_c, 0, 47, 67
1, 898740, Control_c, 0, 64, 127
1, 898764, Note_on_c, 0, 78, 91
1, 898776, Note_off_c, 0, 84, 62
1, 898793, Note_off_c, 0, 83, 65
1, 898800, Note_off_c, 0, 78, 69
1, 898829, Note_on_c, 0, 75, 92
1, 898848, Note_off_c, 0, 75, 68
1, 898922, Note_on_c, 0, 74, 89
1, 898969, Control_c, 0, 64, 94
1, 898984, Control_c, 0, 64, 73
1, 898990, Note_off_c, 0, 74, 66
1, 898999, Note_on_c, 0, 68, 50
1, 898999, Note_off_c, 0, 68, 127
1, 898999, Note_on_c, 0, 69, 85
1, 898999, Control_c, 0, 64, 62
1, 899014, Control_c, 0, 64, 44
1, 899029, Control_c, 0, 64, 0
1, 899054, Note_on_c, 0, 66, 89
1, 899060, Note_off_c, 0, 69, 65
1, 899076, Note_off_c, 0, 66, 70
1, 899137, Note_on_c, 0, 65, 98
1, 899203, Note_off_c, 0, 65, 69
1, 899207, Note_on_c, 0, 60, 80
1, 899271, Note_off_c, 0, 60, 63
1, 899272, Note_on_c, 0, 57, 77
1, 899299, Note_off_c, 0, 57, 68
1, 899326, Note_on_c, 0, 56, 72
1, 899388, Note_off_c, 0, 56, 61
1, 899406, Note_on_c, 0, 51, 76
1, 899483, Note_on_c, 0, 47, 59
1, 899509, Note_off_c, 0, 51, 60
1, 899522, Note_off_c, 0, 47, 66
1, 899529, Note_on_c, 0, 46, 69
1, 899549, Control_c, 0, 64, 37
1, 899553, Note_off_c, 0, 46, 67
1, 899558, Note_on_c, 0, 49, 81
1, 899564, Control_c, 0, 64, 62
1, 899576, Note_off_c, 0, 49, 68
1, 899593, Control_c, 0, 64, 45
1, 899608, Control_c, 0, 64, 0
1, 899620, Note_on_c, 0, 50, 18
1, 899692, Note_off_c, 0, 50, 60
1, 899706, Note_on_c, 0, 53, 74
1, 899754, Note_on_c, 0, 34, 88
1, 899755, Note_off_c, 0, 53, 62
1, 899762, Note_on_c, 0, 58, 84
1, 899777, Note_off_c, 0, 34, 66
1, 899781, Note_off_c, 0, 58, 73
1, 899830, Note_on_c, 0, 62, 88
1, 899887, Note_off_c, 0, 62, 62
1, 899889, Note_on_c, 0, 65, 85
1, 899952, Note_on_c, 0, 70, 109
1, 899952, Note_off_c, 0, 65, 67
1, 899955, Note_on_c, 0, 58, 107
1, 899973, Note_off_c, 0, 58, 71
1, 899981, Note_off_c, 0, 70, 73
1, 899985, Control_c, 0, 64, 57
1, 900000, Control_c, 0, 64, 127
1, 900179, Control_c, 0, 64, 113
1, 900194, Control_c, 0, 64, 76
1, 900208, Control_c, 0, 64, 54
1, 900223, Control_c, 0, 64, 0
1, 900428, Note_on_c, 0, 59, 96
1, 900429, Note_on_c, 0, 55, 96
1, 900431, Note_on_c, 0, 52, 95
1, 900453, Control_c, 0, 64, 51
1, 900467, Control_c, 0, 64, 75
1, 900482, Control_c, 0, 64, 66
1, 900497, Control_c, 0, 64, 39
1, 900512, Control_c, 0, 64, 0
1, 900697, Note_on_c, 0, 47, 96
1, 900721, Note_off_c, 0, 47, 69
1, 900820, Note_on_c, 0, 47, 82
1, 900867, Note_off_c, 0, 47, 65
1, 900928, Control_c, 0, 64, 30
1, 900943, Control_c, 0, 64, 45
1, 900949, Note_on_c, 0, 48, 96
1, 900957, Control_c, 0, 64, 0
1, 900970, Note_off_c, 0, 48, 72
1, 901068, Note_on_c, 0, 48, 82
1, 901099, Note_off_c, 0, 48, 67
1, 901190, Note_on_c, 0, 47, 86
1, 901215, Note_off_c, 0, 47, 70
1, 901314, Note_on_c, 0, 47, 75
1, 901339, Note_off_c, 0, 47, 68
1, 901425, Note_on_c, 0, 48, 87
1, 901451, Note_off_c, 0, 48, 70
1, 901551, Note_on_c, 0, 48, 75
1, 901576, Note_off_c, 0, 48, 66
1, 901653, Note_on_c, 0, 47, 83
1, 901678, Note_off_c, 0, 47, 69
1, 901776, Note_on_c, 0, 48, 77
1, 901801, Note_off_c, 0, 48, 67
1, 901809, Control_c, 0, 67, 19
1, 901891, Control_c, 0, 67, 22
1, 901899, Note_on_c, 0, 47, 84
1, 901921, Note_off_c, 0, 47, 71
1, 901965, Control_c, 0, 67, 24
1, 902009, Note_on_c, 0, 47, 65
1, 902009, Control_c, 0, 67, 26
1, 902024, Control_c, 0, 67, 29
1, 902038, Control_c, 0, 67, 31
1, 902041, Note_off_c, 0, 47, 65
1, 902053, Control_c, 0, 67, 33
1, 902069, Control_c, 0, 67, 36
1, 902073, Note_off_c, 0, 52, 55
1, 902080, Note_off_c, 0, 55, 57
1, 902084, Control_c, 0, 67, 39
1, 902099, Control_c, 0, 67, 43
1, 902113, Control_c, 0, 67, 47
1, 902128, Control_c, 0, 67, 49
1, 902130, Note_on_c, 0, 42, 77
1, 902143, Control_c, 0, 67, 50
1, 902157, Note_off_c, 0, 59, 55
1, 902161, Note_off_c, 0, 42, 68
1, 902173, Control_c, 0, 67, 51
1, 902250, Note_on_c, 0, 43, 64
1, 902279, Note_off_c, 0, 43, 64
1, 902306, Control_c, 0, 67, 50
1, 902375, Note_on_c, 0, 59, 58
1, 902381, Control_c, 0, 67, 50
1, 902383, Note_on_c, 0, 44, 54
1, 902384, Note_on_c, 0, 51, 56
1, 902387, Note_on_c, 0, 56, 53
1, 902395, Control_c, 0, 67, 49
1, 902411, Note_off_c, 0, 44, 58
1, 902425, Control_c, 0, 67, 49
1, 902485, Control_c, 0, 67, 48
1, 902501, Note_on_c, 0, 39, 58
1, 902533, Note_off_c, 0, 39, 63
1, 902610, Control_c, 0, 67, 48
1, 902624, Note_on_c, 0, 46, 72
1, 902650, Note_off_c, 0, 46, 66
1, 902700, Control_c, 0, 67, 47
1, 902736, Note_on_c, 0, 44, 82
1, 902759, Control_c, 0, 67, 47
1, 902761, Note_off_c, 0, 44, 67
1, 902774, Control_c, 0, 67, 46
1, 902789, Control_c, 0, 67, 46
1, 902804, Control_c, 0, 67, 45
1, 902859, Note_on_c, 0, 47, 85
1, 902881, Note_off_c, 0, 47, 69
1, 902971, Note_on_c, 0, 50, 85
1, 902996, Control_c, 0, 67, 45
1, 903000, Note_off_c, 0, 50, 65
1, 903010, Control_c, 0, 67, 44
1, 903091, Note_on_c, 0, 47, 84
1, 903099, Control_c, 0, 67, 44
1, 903117, Note_off_c, 0, 47, 69
1, 903129, Control_c, 0, 67, 43
1, 903200, Note_on_c, 0, 43, 84
1, 903228, Note_off_c, 0, 43, 69
1, 903315, Note_on_c, 0, 44, 93
1, 903344, Note_off_c, 0, 44, 69
1, 903389, Control_c, 0, 67, 43
1, 903443, Note_on_c, 0, 39, 79
1, 903463, Note_off_c, 0, 39, 66
1, 903493, Control_c, 0, 67, 42
1, 903561, Note_on_c, 0, 44, 75
1, 903585, Note_off_c, 0, 44, 66
1, 903674, Note_on_c, 0, 46, 73
1, 903698, Note_off_c, 0, 46, 66
1, 903730, Control_c, 0, 67, 42
1, 903745, Control_c, 0, 67, 41
1, 903809, Note_on_c, 0, 44, 61
1, 903818, Control_c, 0, 67, 41
1, 903833, Control_c, 0, 67, 40
1, 903848, Control_c, 0, 67, 40
1, 903863, Control_c, 0, 64, 50
1, 903863, Control_c, 0, 67, 39
1, 903877, Control_c, 0, 64, 66
1, 903892, Control_c, 0, 64, 72
1, 903892, Control_c, 0, 67, 39
1, 903907, Control_c, 0, 64, 82
1, 903922, Control_c, 0, 64, 99
1, 903922, Control_c, 0, 67, 38
1, 903937, Control_c, 0, 64, 127
1, 903953, Note_off_c, 0, 44, 63
1, 904027, Control_c, 0, 64, 71
1, 904027, Control_c, 0, 67, 38
1, 904032, Note_off_c, 0, 51, 60
1, 904042, Control_c, 0, 64, 0
1, 904042, Control_c, 0, 67, 37
1, 904051, Note_on_c, 0, 47, 74
1, 904056, Control_c, 0, 67, 35
1, 904071, Control_c, 0, 67, 30
1, 904077, Note_off_c, 0, 59, 61
1, 904086, Control_c, 0, 67, 23
1, 904087, Note_off_c, 0, 56, 51
1, 904101, Control_c, 0, 67, 0
1, 904110, Note_on_c, 0, 48, 84
1, 904115, Note_off_c, 0, 47, 63
1, 904123, Control_c, 0, 64, 53
1, 904138, Control_c, 0, 64, 66
1, 904140, Note_on_c, 0, 49, 87
1, 904153, Control_c, 0, 64, 83
1, 904164, Note_off_c, 0, 48, 66
1, 904168, Control_c, 0, 64, 127
1, 904190, Note_off_c, 0, 49, 64
1, 904191, Note_on_c, 0, 51, 95
1, 904230, Note_off_c, 0, 51, 63
1, 904247, Note_on_c, 0, 59, 98
1, 904248, Note_on_c, 0, 52, 103
1, 904248, Note_on_c, 0, 55, 98
1, 904286, Control_c, 0, 64, 102
1, 904301, Control_c, 0, 64, 61
1, 904316, Control_c, 0, 64, 0
1, 904346, Control_c, 0, 67, 26
1, 904361, Control_c, 0, 67, 36
1, 904376, Control_c, 0, 67, 45
1, 904390, Control_c, 0, 67, 46
1, 904450, Control_c, 0, 67, 45
1, 904464, Control_c, 0, 67, 43
1, 904479, Control_c, 0, 67, 42
1, 904494, Control_c, 0, 67, 41
1, 904509, Control_c, 0, 67, 41
1, 904521, Note_on_c, 0, 47, 97
1, 904524, Control_c, 0, 67, 40
1, 904547, Note_off_c, 0, 47, 70
1, 904554, Control_c, 0, 67, 39
1, 904569, Control_c, 0, 67, 39
1, 904613, Control_c, 0, 67, 40
1, 904627, Control_c, 0, 67, 42
1, 904642, Control_c, 0, 67, 43
1, 904645, Note_on_c, 0, 47, 91
1, 904657, Control_c, 0, 67, 43
1, 904683, Note_off_c, 0, 47, 64
1, 904687, Control_c, 0, 67, 44
1, 904700, Note_off_c, 0, 52, 0
1, 904731, Control_c, 0, 67, 43
1, 904738, Poly_aftertouch_c, 0, 52, 127
1, 904746, Control_c, 0, 67, 42
1, 904760, Note_on_c, 0, 48, 96
1, 904760, Control_c, 0, 67, 41
1, 904788, Note_off_c, 0, 48, 68
1, 904790, Control_c, 0, 67, 41
1, 904820, Control_c, 0, 67, 40
1, 904873, Control_c, 0, 67, 41
1, 904898, Note_on_c, 0, 48, 83
1, 904925, Note_off_c, 0, 48, 70
1, 905011, Note_on_c, 0, 47, 86
1, 905021, Control_c, 0, 67, 41
1, 905033, Note_off_c, 0, 47, 71
1, 905051, Control_c, 0, 67, 40
1, 905094, Control_c, 0, 67, 41
1, 905109, Control_c, 0, 67, 42
1, 905121, Note_on_c, 0, 47, 73
1, 905124, Control_c, 0, 67, 42
1, 905138, Control_c, 0, 67, 43
1, 905152, Note_off_c, 0, 47, 69
1, 905213, Control_c, 0, 67, 43
1, 905228, Control_c, 0, 67, 42
1, 905242, Control_c, 0, 67, 42
1, 905244, Note_on_c, 0, 48, 87
1, 905257, Control_c, 0, 67, 41
1, 905269, Note_off_c, 0, 48, 69
1, 905287, Control_c, 0, 67, 41
1, 905346, Control_c, 0, 67, 41
1, 905361, Control_c, 0, 67, 42
1, 905367, Note_on_c, 0, 48, 80
1, 905390, Control_c, 0, 67, 42
1, 905391, Note_off_c, 0, 48, 70
1, 905479, Control_c, 0, 67, 42
1, 905481, Note_on_c, 0, 47, 75
1, 905507, Note_off_c, 0, 47, 67
1, 905509, Control_c, 0, 67, 41
1, 905609, Note_on_c, 0, 48, 78
1, 905635, Note_off_c, 0, 48, 69
1, 905636, Control_c, 0, 67, 42
1, 905728, Note_on_c, 0, 47, 81
1, 905753, Note_off_c, 0, 47, 68
1, 905813, Control_c, 0, 67, 42
1, 905828, Note_on_c, 0, 47, 67
1, 905828, Control_c, 0, 67, 43
1, 905843, Control_c, 0, 67, 44
1, 905858, Control_c, 0, 67, 45
1, 905860, Note_off_c, 0, 47, 67
1, 905871, Note_off_c, 0, 55, 60
1, 905873, Control_c, 0, 67, 46
1, 905876, Poly_aftertouch_c, 0, 52, 0
1, 905887, Control_c, 0, 67, 47
1, 905902, Control_c, 0, 67, 49
1, 905917, Control_c, 0, 67, 52
1, 905919, Note_off_c, 0, 59, 52
1, 905932, Control_c, 0, 67, 63
1, 905947, Control_c, 0, 67, 76
1, 905948, Note_on_c, 0, 42, 71
1, 905961, Control_c, 0, 67, 84
1, 905976, Control_c, 0, 67, 89
1, 905982, Note_off_c, 0, 42, 67
1, 905991, Control_c, 0, 67, 93
1, 906006, Control_c, 0, 67, 94
1, 906065, Note_on_c, 0, 43, 65
1, 906095, Control_c, 0, 67, 94
1, 906100, Note_off_c, 0, 43, 64
1, 906110, Control_c, 0, 67, 93
1, 906125, Control_c, 0, 67, 92
1, 906140, Control_c, 0, 67, 92
1, 906154, Control_c, 0, 67, 91
1, 906169, Control_c, 0, 67, 90
1, 906184, Note_on_c, 0, 59, 62
1, 906194, Note_on_c, 0, 44, 58
1, 906196, Note_on_c, 0, 56, 54
1, 906199, Control_c, 0, 67, 90
1, 906205, Note_on_c, 0, 51, 51
1, 906220, Note_off_c, 0, 44, 60
1, 906302, Control_c, 0, 67, 89
1, 906322, Note_on_c, 0, 39, 53
1, 906358, Note_off_c, 0, 39, 58
1, 906446, Note_on_c, 0, 46, 67
1, 906473, Note_off_c, 0, 46, 66
1, 906533, Control_c, 0, 67, 89
1, 906560, Note_on_c, 0, 44, 71
1, 906563, Control_c, 0, 67, 88
1, 906579, Note_off_c, 0, 56, 43
1, 906583, Note_off_c, 0, 51, 58
1, 906584, Note_off_c, 0, 44, 67
1, 906607, Control_c, 0, 67, 88
1, 906666, Control_c, 0, 67, 87
1, 906674, Note_on_c, 0, 55, 66
1, 906685, Note_on_c, 0, 50, 60
1, 906690, Note_on_c, 0, 43, 69
1, 906717, Note_off_c, 0, 43, 65
1, 906725, Control_c, 0, 67, 87
1, 906755, Control_c, 0, 67, 86
1, 906799, Control_c, 0, 67, 86
1, 906801, Note_on_c, 0, 38, 72
1, 906828, Control_c, 0, 67, 85
1, 906832, Note_off_c, 0, 38, 65
1, 906888, Control_c, 0, 67, 85
1, 906903, Control_c, 0, 67, 84
1, 906920, Note_on_c, 0, 45, 73
1, 906933, Control_c, 0, 67, 84
1, 906946, Note_off_c, 0, 45, 66
1, 906948, Control_c, 0, 67, 83
1, 906962, Control_c, 0, 67, 83
1, 906977, Control_c, 0, 67, 82
1, 906978, Note_off_c, 0, 50, 51
1, 907034, Note_on_c, 0, 43, 76
1, 907057, Note_off_c, 0, 43, 67
1, 907132, Control_c, 0, 67, 82
1, 907156, Note_on_c, 0, 54, 73
1, 907158, Note_on_c, 0, 42, 87
1, 907166, Note_on_c, 0, 49, 62
1, 907186, Note_off_c, 0, 42, 70
1, 907203, Note_off_c, 0, 55, 57
1, 907222, Control_c, 0, 67, 82
1, 907279, Note_on_c, 0, 37, 83
1, 907301, Note_off_c, 0, 37, 65
1, 907393, Note_on_c, 0, 44, 93
1, 907425, Note_off_c, 0, 44, 67
1, 907493, Note_off_c, 0, 54, 62
1, 907512, Note_on_c, 0, 42, 93
1, 907537, Note_off_c, 0, 42, 71
1, 907537, Note_off_c, 0, 49, 62
1, 907562, Control_c, 0, 67, 82
1, 907577, Control_c, 0, 67, 81
1, 907591, Control_c, 0, 67, 80
1, 907606, Control_c, 0, 67, 79
1, 907621, Control_c, 0, 67, 76
1, 907622, Note_on_c, 0, 53, 83
1, 907630, Note_on_c, 0, 48, 80
1, 907633, Note_on_c, 0, 41, 93
1, 907636, Control_c, 0, 67, 72
1, 907651, Control_c, 0, 67, 69
1, 907666, Control_c, 0, 67, 68
1, 907668, Note_off_c, 0, 41, 65
1, 907711, Control_c, 0, 67, 69
1, 907725, Control_c, 0, 67, 70
1, 907753, Note_on_c, 0, 36, 86
1, 907779, Note_off_c, 0, 36, 66
1, 907799, Control_c, 0, 67, 69
1, 907814, Control_c, 0, 67, 69
1, 907829, Control_c, 0, 67, 68
1, 907851, Control_c, 0, 67, 67
1, 907866, Control_c, 0, 67, 66
1, 907881, Control_c, 0, 67, 62
1, 907884, Note_on_c, 0, 43, 82
1, 907895, Control_c, 0, 67, 50
1, 907910, Control_c, 0, 67, 37
1, 907913, Note_off_c, 0, 43, 69
1, 907922, Note_off_c, 0, 48, 61
1, 907925, Control_c, 0, 67, 22
1, 907935, Note_off_c, 0, 53, 58
1, 907940, Control_c, 0, 67, 0
1, 907984, Control_c, 0, 67, 20
1, 907988, Note_on_c, 0, 41, 86
1, 907999, Control_c, 0, 67, 22
1, 908016, Note_off_c, 0, 41, 67
1, 908089, Control_c, 0, 67, 20
1, 908117, Note_on_c, 0, 52, 76
1, 908119, Control_c, 0, 67, 0
1, 908124, Note_on_c, 0, 35, 83
1, 908131, Note_on_c, 0, 47, 61
1, 908149, Note_off_c, 0, 35, 66
1, 908155, Note_off_c, 0, 52, 63
1, 908158, Note_off_c, 0, 59, 59
1, 908161, Note_off_c, 0, 47, 65
1, 908207, Control_c, 0, 67, 19
1, 908222, Control_c, 0, 67, 22
1, 908247, Note_on_c, 0, 40, 71
1, 908275, Note_off_c, 0, 40, 66
1, 908341, Control_c, 0, 67, 20
1, 908366, Note_on_c, 0, 33, 75
1, 908369, Note_on_c, 0, 52, 75
1, 908397, Note_off_c, 0, 33, 66
1, 908401, Note_off_c, 0, 52, 67
1, 908459, Control_c, 0, 67, 23
1, 908485, Note_on_c, 0, 40, 70
1, 908512, Note_off_c, 0, 40, 65
1, 908548, Control_c, 0, 67, 20
1, 908563, Control_c, 0, 67, 0
1, 908611, Note_on_c, 0, 31, 84
1, 908612, Note_on_c, 0, 52, 81
1, 908641, Note_off_c, 0, 52, 68
1, 908644, Note_off_c, 0, 31, 65
1, 908703, Control_c, 0, 67, 19
1, 908727, Note_on_c, 0, 40, 71
1, 908756, Note_off_c, 0, 40, 65
1, 908823, Control_c, 0, 67, 0
1, 908837, Note_on_c, 0, 64, 82
1, 908838, Note_on_c, 0, 30, 83
1, 908842, Note_on_c, 0, 50, 79
1, 908870, Note_off_c, 0, 30, 68
1, 908874, Note_off_c, 0, 50, 66
1, 908880, Note_off_c, 0, 64, 64
1, 908942, Control_c, 0, 67, 20
1, 908950, Note_on_c, 0, 40, 81
1, 908989, Note_off_c, 0, 40, 63
1, 909016, Control_c, 0, 67, 0
1, 909074, Note_on_c, 0, 64, 97
1, 909076, Note_on_c, 0, 52, 91
1, 909078, Note_on_c, 0, 26, 84
1, 909078, Note_on_c, 0, 28, 82
1, 909090, Control_c, 0, 64, 45
1, 909103, Note_off_c, 0, 26, 64
1, 909104, Control_c, 0, 64, 39
1, 909105, Note_off_c, 0, 52, 65
1, 909106, Note_off_c, 0, 64, 67
1, 909111, Note_off_c, 0, 28, 66
1, 909119, Control_c, 0, 64, 0
1, 909176, Note_on_c, 0, 40, 92
1, 909222, Note_off_c, 0, 40, 61
1, 909309, Note_on_c, 0, 24, 92
1, 909311, Note_on_c, 0, 71, 103
1, 909314, Note_on_c, 0, 26, 87
1, 909314, Note_on_c, 0, 57, 95
1, 909335, Note_off_c, 0, 24, 66
1, 909347, Note_off_c, 0, 57, 68
1, 909352, Note_off_c, 0, 26, 67
1, 909353, Note_off_c, 0, 71, 66
1, 909425, Note_on_c, 0, 41, 95
1, 909440, Note_on_c, 0, 40, 75
1, 909470, Note_off_c, 0, 40, 61
1, 909472, Note_off_c, 0, 41, 62
1, 909556, Control_c, 0, 64, 59
1, 909557, Note_on_c, 0, 24, 109
1, 909560, Note_on_c, 0, 71, 106
1, 909561, Note_on_c, 0, 59, 96
1, 909571, Control_c, 0, 64, 81
1, 909586, Note_off_c, 0, 59, 65
1, 909586, Control_c, 0, 64, 71
1, 909589, Note_off_c, 0, 71, 71
1, 909598, Note_off_c, 0, 24, 66
1, 909601, Control_c, 0, 64, 0
1, 909669, Note_on_c, 0, 41, 101
1, 909714, Note_off_c, 0, 41, 64
1, 909793, Note_on_c, 0, 76, 109
1, 909794, Note_on_c, 0, 62, 105
1, 909794, Control_c, 0, 64, 49
1, 909797, Note_on_c, 0, 24, 107
1, 909809, Control_c, 0, 64, 127
1, 909821, Note_off_c, 0, 24, 72
1, 909825, Note_on_c, 0, 26, 40
1, 909829, Note_off_c, 0, 62, 68
1, 909830, Note_off_c, 0, 76, 67
1, 909839, Control_c, 0, 64, 65
1, 909854, Control_c, 0, 64, 0
1, 909862, Note_off_c, 0, 26, 45
1, 909889, Note_on_c, 0, 41, 102
1, 909918, Note_off_c, 0, 41, 65
1, 909947, Note_on_c, 0, 40, 26
1, 909947, Note_off_c, 0, 40, 127
1, 910034, Note_on_c, 0, 22, 120
1, 910035, Note_on_c, 0, 34, 106
1, 910035, Note_on_c, 0, 77, 99
1, 910037, Note_on_c, 0, 65, 105
1, 910054, Note_off_c, 0, 22, 66
1, 910054, Note_on_c, 0, 35, 72
1, 910061, Control_c, 0, 64, 50
1, 910062, Note_on_c, 0, 70, 26
1, 910071, Note_off_c, 0, 34, 65
1, 910076, Note_off_c, 0, 35, 62
1, 910076, Control_c, 0, 64, 127
1, 910077, Note_on_c, 0, 23, 33
1, 910077, Note_off_c, 0, 23, 127
1, 910086, Note_off_c, 0, 70, 49
1, 910123, Note_on_c, 0, 74, 85
1, 910126, Poly_aftertouch_c, 0, 23, 0
1, 910137, Note_off_c, 0, 65, 55
1, 910140, Note_off_c, 0, 77, 64
1, 910173, Poly_aftertouch_c, 0, 22, 127
1, 910199, Note_on_c, 0, 70, 95
1, 910209, Poly_aftertouch_c, 0, 22, 0
1, 910216, Note_off_c, 0, 74, 65
1, 910274, Note_on_c, 0, 62, 106
1, 910275, Note_on_c, 0, 53, 100
1, 910287, Note_on_c, 0, 58, 79
1, 910289, Note_on_c, 0, 77, 100
1, 910291, Note_on_c, 0, 65, 96
1, 910301, Note_off_c, 0, 62, 69
1, 910301, Note_off_c, 0, 53, 64
1, 910310, Note_off_c, 0, 58, 68
1, 910334, Note_off_c, 0, 65, 64
1, 910342, Note_off_c, 0, 70, 26
1, 910370, Note_on_c, 0, 74, 87
1, 910379, Note_off_c, 0, 77, 64
1, 910442, Note_on_c, 0, 70, 94
1, 910466, Note_off_c, 0, 74, 65
1, 910499, Control_c, 0, 64, 89
1, 910514, Control_c, 0, 64, 69
1, 910516, Note_on_c, 0, 62, 102
1, 910524, Note_on_c, 0, 53, 88
1, 910529, Note_off_c, 0, 70, 65
1, 910529, Control_c, 0, 64, 61
1, 910530, Note_on_c, 0, 65, 93
1, 910531, Note_on_c, 0, 52, 72
1, 910534, Note_on_c, 0, 77, 83
1, 910537, Note_on_c, 0, 79, 87
1, 910540, Note_on_c, 0, 57, 68
1, 910543, Control_c, 0, 64, 66
1, 910545, Note_on_c, 0, 56, 59
1, 910550, Note_off_c, 0, 52, 41
1, 910551, Note_off_c, 0, 62, 66
1, 910555, Note_off_c, 0, 79, 73
1, 910556, Note_off_c, 0, 53, 66
1, 910558, Control_c, 0, 64, 77
1, 910560, Note_off_c, 0, 57, 63
1, 910569, Note_off_c, 0, 56, 58
1, 910573, Control_c, 0, 64, 103
1, 910579, Note_off_c, 0, 65, 65
1, 910588, Control_c, 0, 64, 127
1, 910602, Note_on_c, 0, 74, 96
1, 910617, Note_off_c, 0, 77, 64
1, 910683, Note_on_c, 0, 70, 91
1, 910700, Note_off_c, 0, 74, 65
1, 910720, Note_on_c, 0, 71, 71
1, 910721, Control_c, 0, 64, 84
1, 910736, Control_c, 0, 64, 62
1, 910751, Control_c, 0, 64, 32
1, 910753, Note_off_c, 0, 71, 58
1, 910755, Note_on_c, 0, 62, 106
1, 910756, Note_on_c, 0, 53, 100
1, 910763, Note_off_c, 0, 70, 52
1, 910763, Note_on_c, 0, 58, 91
1, 910766, Note_on_c, 0, 77, 93
1, 910766, Control_c, 0, 64, 0
1, 910770, Note_on_c, 0, 65, 87
1, 910795, Control_c, 0, 64, 36
1, 910810, Control_c, 0, 64, 61
1, 910825, Control_c, 0, 64, 82
1, 910838, Note_on_c, 0, 74, 89
1, 910840, Control_c, 0, 64, 127
1, 910849, Note_off_c, 0, 62, 39
1, 910849, Note_off_c, 0, 65, 47
1, 910853, Note_off_c, 0, 77, 64
1, 910863, Note_off_c, 0, 53, 62
1, 910866, Note_off_c, 0, 58, 65
1, 910924, Note_on_c, 0, 70, 92
1, 910939, Note_off_c, 0, 74, 63
1, 910981, Control_c, 0, 64, 80
1, 910995, Control_c, 0, 64, 59
1, 911008, Note_on_c, 0, 64, 100
1, 911010, Control_c, 0, 64, 0
1, 911011, Note_on_c, 0, 55, 90
1, 911013, Note_on_c, 0, 58, 97
1, 911013, Note_on_c, 0, 77, 95
1, 911017, Note_on_c, 0, 65, 91
1, 911035, Note_off_c, 0, 70, 61
1, 911040, Control_c, 0, 64, 44
1, 911049, Note_off_c, 0, 64, 70
1, 911055, Control_c, 0, 64, 73
1, 911067, Note_off_c, 0, 55, 65
1, 911067, Note_off_c, 0, 58, 65
1, 911070, Control_c, 0, 64, 127
1, 911070, Note_off_c, 0, 65, 63
1, 911089, Note_on_c, 0, 74, 93
1, 911104, Note_off_c, 0, 77, 63
1, 911171, Note_on_c, 0, 70, 93
1, 911183, Note_off_c, 0, 74, 64
1, 911202, Control_c, 0, 64, 96
1, 911218, Control_c, 0, 64, 66
1, 911233, Control_c, 0, 64, 0
1, 911243, Note_off_c, 0, 70, 62
1, 911245, Note_on_c, 0, 62, 103
1, 911249, Note_on_c, 0, 53, 95
1, 911254, Note_on_c, 0, 58, 77
1, 911258, Note_on_c, 0, 77, 93
1, 911261, Note_on_c, 0, 65, 88
1, 911263, Control_c, 0, 64, 33
1, 911278, Control_c, 0, 64, 58
1, 911282, Note_off_c, 0, 62, 69
1, 911291, Note_on_c, 0, 56, 35
1, 911291, Note_off_c, 0, 53, 66
1, 911292, Control_c, 0, 64, 76
1, 911294, Note_off_c, 0, 58, 63
1, 911307, Control_c, 0, 64, 127
1, 911312, Note_off_c, 0, 65, 65
1, 911324, Note_off_c, 0, 56, 34
1, 911332, Note_on_c, 0, 74, 93
1, 911335, Note_on_c, 0, 57, 7
1, 911337, Note_off_c, 0, 77, 63
1, 911368, Note_off_c, 0, 57, 38
1, 911405, Note_on_c, 0, 70, 94
1, 911415, Note_off_c, 0, 74, 61
1, 911440, Control_c, 0, 64, 94
1, 911455, Control_c, 0, 64, 64
1, 911470, Control_c, 0, 64, 0
1, 911480, Note_on_c, 0, 64, 98
1, 911484, Note_on_c, 0, 55, 91
1, 911490, Note_on_c, 0, 58, 88
1, 911490, Note_off_c, 0, 70, 66
1, 911493, Note_on_c, 0, 77, 98
1, 911495, Note_on_c, 0, 65, 90
1, 911514, Control_c, 0, 64, 35
1, 911529, Control_c, 0, 64, 67
1, 911544, Control_c, 0, 64, 97
1, 911553, Note_off_c, 0, 65, 59
1, 911559, Control_c, 0, 64, 127
1, 911567, Note_on_c, 0, 74, 93
1, 911575, Note_off_c, 0, 77, 64
1, 911619, Note_off_c, 0, 64, 55
1, 911640, Note_off_c, 0, 58, 57
1, 911654, Note_on_c, 0, 70, 92
1, 911669, Note_off_c, 0, 74, 64
1, 911685, Control_c, 0, 64, 108
1, 911699, Control_c, 0, 64, 72
1, 911714, Control_c, 0, 64, 50
1, 911726, Note_off_c, 0, 55, 62
1, 911729, Control_c, 0, 64, 36
1, 911734, Note_on_c, 0, 62, 98
1, 911738, Note_on_c, 0, 53, 87
1, 911739, Note_on_c, 0, 58, 89
1, 911744, Note_on_c, 0, 77, 85
1, 911744, Control_c, 0, 64, 53
1, 911745, Note_on_c, 0, 65, 89
1, 911751, Note_off_c, 0, 70, 61
1, 911759, Control_c, 0, 64, 66
1, 911760, Note_off_c, 0, 58, 70
1, 911767, Note_off_c, 0, 62, 66
1, 911774, Note_on_c, 0, 76, 43
1, 911774, Control_c, 0, 64, 88
1, 911776, Note_off_c, 0, 53, 64
1, 911789, Control_c, 0, 64, 127
1, 911797, Note_off_c, 0, 65, 63
1, 911803, Note_off_c, 0, 76, 40
1, 911815, Note_on_c, 0, 74, 90
1, 911818, Note_off_c, 0, 77, 65
1, 911886, Note_on_c, 0, 70, 89
1, 911903, Note_off_c, 0, 74, 63
1, 911922, Control_c, 0, 64, 73
1, 911937, Control_c, 0, 64, 32
1, 911951, Control_c, 0, 64, 0
1, 911959, Note_off_c, 0, 70, 64
1, 911961, Note_on_c, 0, 64, 96
1, 911963, Note_on_c, 0, 55, 92
1, 911968, Note_on_c, 0, 77, 95
1, 911971, Note_on_c, 0, 58, 85
1, 911973, Note_on_c, 0, 65, 91
1, 911996, Control_c, 0, 64, 52
1, 912011, Control_c, 0, 64, 72
1, 912023, Note_off_c, 0, 65, 65
1, 912027, Control_c, 0, 64, 127
1, 912041, Note_on_c, 0, 74, 91
1, 912046, Note_off_c, 0, 77, 65
1, 912073, Note_off_c, 0, 64, 59
1, 912105, Note_off_c, 0, 58, 61
1, 912117, Note_on_c, 0, 70, 85
1, 912123, Note_off_c, 0, 74, 65
1, 912145, Control_c, 0, 64, 116
1, 912160, Control_c, 0, 64, 66
1, 912174, Control_c, 0, 64, 0
1, 912184, Note_off_c, 0, 55, 61
1, 912203, Note_on_c, 0, 62, 94
1, 912203, Note_on_c, 0, 53, 83
1, 912203, Note_on_c, 0, 77, 91
1, 912204, Control_c, 0, 64, 34
1, 912208, Note_on_c, 0, 58, 85
1, 912208, Note_on_c, 0, 65, 95
1, 912210, Note_off_c, 0, 70, 41
1, 912219, Control_c, 0, 64, 71
1, 912234, Control_c, 0, 64, 127
1, 912248, Note_off_c, 0, 62, 65
1, 912251, Note_off_c, 0, 58, 61
1, 912252, Note_off_c, 0, 65, 64
1, 912260, Note_off_c, 0, 53, 62
1, 912277, Note_on_c, 0, 74, 92
1, 912286, Note_off_c, 0, 77, 64
1, 912353, Note_on_c, 0, 70, 89
1, 912360, Control_c, 0, 64, 77
1, 912369, Note_off_c, 0, 74, 65
1, 912374, Control_c, 0, 64, 45
1, 912389, Control_c, 0, 64, 0
1, 912404, Control_c, 0, 64, 43
1, 912412, Note_off_c, 0, 70, 66
1, 912419, Control_c, 0, 64, 67
1, 912432, Note_on_c, 0, 64, 84
1, 912434, Control_c, 0, 64, 127
1, 912438, Note_on_c, 0, 55, 77
1, 912440, Note_on_c, 0, 65, 88
1, 912443, Note_on_c, 0, 58, 65
1, 912456, Note_off_c, 0, 64, 65
1, 912464, Note_off_c, 0, 55, 68
1, 912465, Note_off_c, 0, 58, 62
1, 912479, Note_off_c, 0, 65, 67
1, 912492, Control_c, 0, 64, 92
1, 912507, Control_c, 0, 64, 70
1, 912517, Note_on_c, 0, 62, 85
1, 912522, Control_c, 0, 64, 56
1, 912522, Control_c, 0, 67, 26
1, 912537, Control_c, 0, 64, 47
1, 912537, Control_c, 0, 67, 42
1, 912552, Control_c, 0, 64, 45
1, 912552, Control_c, 0, 67, 68
1, 912567, Control_c, 0, 64, 49
1, 912567, Control_c, 0, 67, 94
1, 912572, Note_on_c, 0, 58, 82
1, 912581, Note_off_c, 0, 62, 63
1, 912581, Control_c, 0, 64, 53
1, 912581, Control_c, 0, 67, 117
1, 912596, Control_c, 0, 64, 56
1, 912596, Control_c, 0, 67, 127
1, 912608, Note_off_c, 0, 58, 66
1, 912611, Control_c, 0, 64, 50
1, 912626, Control_c, 0, 64, 0
1, 912649, Note_on_c, 0, 53, 76
1, 912730, Note_off_c, 0, 53, 60
1, 912732, Note_on_c, 0, 50, 69
1, 912781, Note_off_c, 0, 50, 60
1, 912797, Note_on_c, 0, 46, 54
1, 912848, Note_off_c, 0, 46, 65
1, 912877, Note_on_c, 0, 53, 69
1, 912882, Note_on_c, 0, 41, 60
1, 912894, Note_on_c, 0, 65, 79
1, 912906, Note_off_c, 0, 53, 64
1, 912906, Note_off_c, 0, 41, 61
1, 912954, Note_off_c, 0, 65, 61
1, 912972, Note_on_c, 0, 69, 67
1, 913017, Note_off_c, 0, 69, 57
1, 913051, Note_on_c, 0, 72, 73
1, 913114, Note_off_c, 0, 72, 62
1, 913127, Note_on_c, 0, 46, 64
1, 913131, Note_on_c, 0, 66, 68
1, 913134, Note_on_c, 0, 58, 50
1, 913157, Note_off_c, 0, 46, 65
1, 913159, Note_off_c, 0, 58, 59
1, 913161, Note_off_c, 0, 66, 65
1, 913201, Note_on_c, 0, 70, 71
1, 913267, Note_off_c, 0, 70, 62
1, 913279, Note_on_c, 0, 72, 68
1, 913348, Note_on_c, 0, 63, 77
1, 913354, Note_off_c, 0, 72, 63
1, 913358, Note_on_c, 0, 67, 67
1, 913368, Note_on_c, 0, 51, 54
1, 913371, Note_off_c, 0, 63, 71
1, 913394, Note_off_c, 0, 51, 59
1, 913411, Note_off_c, 0, 67, 59
1, 913424, Note_on_c, 0, 71, 65
1, 913494, Note_off_c, 0, 71, 57
1, 913509, Note_on_c, 0, 72, 66
1, 913583, Note_off_c, 0, 72, 61
1, 913586, Note_on_c, 0, 58, 60
1, 913592, Note_on_c, 0, 46, 52
1, 913592, Note_on_c, 0, 66, 73
1, 913607, Note_off_c, 0, 58, 63
1, 913623, Note_off_c, 0, 46, 57
1, 913623, Note_off_c, 0, 66, 63
1, 913661, Note_on_c, 0, 70, 73
1, 913723, Note_off_c, 0, 70, 64
1, 913744, Note_on_c, 0, 72, 69
1, 913797, Note_off_c, 0, 72, 61
1, 913811, Note_on_c, 0, 41, 38
1, 913814, Note_on_c, 0, 53, 26
1, 913816, Note_on_c, 0, 65, 69
1, 913820, Control_c, 0, 64, 45
1, 913842, Control_c, 0, 64, 50
1, 913857, Control_c, 0, 64, 53
1, 913872, Control_c, 0, 64, 57
1, 913887, Control_c, 0, 64, 59
1, 913888, Note_off_c, 0, 65, 62
1, 913893, Note_off_c, 0, 41, 53
1, 913899, Note_on_c, 0, 69, 71
1, 913902, Control_c, 0, 64, 61
1, 913912, Note_off_c, 0, 53, 56
1, 913917, Control_c, 0, 64, 62
1, 913932, Control_c, 0, 64, 63
1, 913946, Control_c, 0, 64, 63
1, 913956, Note_off_c, 0, 69, 63
1, 913972, Note_on_c, 0, 72, 75
1, 913976, Control_c, 0, 64, 63
1, 913995, Note_off_c, 0, 72, 70
1, 914048, Note_on_c, 0, 77, 79
1, 914088, Note_off_c, 0, 77, 64
1, 914109, Control_c, 0, 64, 64
1, 914109, Control_c, 0, 67, 120
1, 914117, Note_on_c, 0, 81, 75
1, 914124, Control_c, 0, 64, 66
1, 914124, Control_c, 0, 67, 108
1, 914138, Control_c, 0, 64, 67
1, 914138, Control_c, 0, 67, 95
1, 914153, Control_c, 0, 64, 69
1, 914153, Control_c, 0, 67, 83
1, 914168, Control_c, 0, 64, 71
1, 914168, Control_c, 0, 67, 73
1, 914170, Note_off_c, 0, 81, 63
1, 914179, Note_on_c, 0, 84, 81
1, 914183, Control_c, 0, 64, 74
1, 914183, Control_c, 0, 67, 66
1, 914198, Control_c, 0, 64, 76
1, 914198, Control_c, 0, 67, 59
1, 914212, Control_c, 0, 64, 78
1, 914212, Control_c, 0, 67, 55
1, 914227, Control_c, 0, 64, 80
1, 914227, Control_c, 0, 67, 54
1, 914235, Note_off_c, 0, 84, 64
1, 914250, Note_on_c, 0, 89, 97
1, 914257, Control_c, 0, 64, 75
1, 914272, Control_c, 0, 64, 59
1, 914272, Control_c, 0, 67, 54
1, 914287, Control_c, 0, 64, 0
1, 914287, Control_c, 0, 67, 57
1, 914301, Control_c, 0, 67, 59
1, 914316, Control_c, 0, 67, 60
1, 914331, Control_c, 0, 67, 61
1, 914346, Control_c, 0, 67, 61
1, 914361, Control_c, 0, 67, 62
1, 914492, Note_on_c, 0, 63, 65
1, 914500, Note_on_c, 0, 70, 70
1, 914505, Note_on_c, 0, 67, 58
1, 914510, Control_c, 0, 67, 62
1, 914524, Note_off_c, 0, 70, 70
1, 914525, Control_c, 0, 67, 63
1, 914526, Note_off_c, 0, 67, 65
1, 914528, Note_off_c, 0, 63, 65
1, 914569, Control_c, 0, 67, 63
1, 914584, Control_c, 0, 67, 64
1, 914744, Note_on_c, 0, 68, 64
1, 914770, Note_on_c, 0, 65, 48
1, 914771, Note_on_c, 0, 61, 43
1, 914819, Note_off_c, 0, 89, 61
1, 914832, Note_on_c, 0, 91, 72
1, 914859, Control_c, 0, 67, 63
1, 914892, Note_off_c, 0, 91, 63
1, 914898, Note_on_c, 0, 87, 76
1, 914903, Control_c, 0, 67, 63
1, 914918, Control_c, 0, 64, 31
1, 914933, Control_c, 0, 64, 36
1, 914948, Control_c, 0, 64, 43
1, 914948, Control_c, 0, 67, 62
1, 914951, Note_off_c, 0, 87, 65
1, 914962, Control_c, 0, 64, 49
1, 914968, Note_on_c, 0, 82, 80
1, 914977, Control_c, 0, 64, 52
1, 914991, Note_off_c, 0, 82, 67
1, 914992, Control_c, 0, 64, 54
1, 915007, Control_c, 0, 64, 54
1, 915022, Control_c, 0, 64, 55
1, 915041, Note_on_c, 0, 79, 74
1, 915051, Control_c, 0, 64, 55
1, 915066, Control_c, 0, 64, 56
1, 915079, Note_off_c, 0, 79, 64
1, 915095, Control_c, 0, 64, 55
1, 915096, Note_on_c, 0, 75, 69
1, 915110, Control_c, 0, 64, 49
1, 915125, Control_c, 0, 64, 33
1, 915140, Control_c, 0, 64, 0
1, 915158, Note_off_c, 0, 65, 42
1, 915160, Note_off_c, 0, 75, 64
1, 915168, Note_off_c, 0, 68, 60
1, 915182, Note_on_c, 0, 89, 85
1, 915184, Control_c, 0, 64, 47
1, 915190, Note_off_c, 0, 61, 63
1, 915199, Control_c, 0, 64, 60
1, 915215, Control_c, 0, 64, 65
1, 915230, Control_c, 0, 64, 66
1, 915245, Control_c, 0, 64, 67
1, 915259, Control_c, 0, 67, 62
1, 915274, Control_c, 0, 64, 66
1, 915289, Control_c, 0, 64, 65
1, 915304, Control_c, 0, 67, 63
1, 915318, Control_c, 0, 67, 63
1, 915341, Control_c, 0, 67, 64
1, 915371, Control_c, 0, 64, 64
1, 915386, Control_c, 0, 64, 56
1, 915400, Control_c, 0, 64, 0
1, 915415, Control_c, 0, 67, 64
1, 915419, Note_on_c, 0, 59, 55
1, 915428, Note_on_c, 0, 63, 47
1, 915428, Note_on_c, 0, 66, 54
1, 915445, Control_c, 0, 67, 65
1, 915449, Note_off_c, 0, 66, 61
1, 915451, Note_off_c, 0, 59, 65
1, 915454, Note_off_c, 0, 63, 58
1, 915460, Control_c, 0, 67, 66
1, 915489, Control_c, 0, 67, 67
1, 915504, Control_c, 0, 67, 67
1, 915518, Control_c, 0, 67, 68
1, 915533, Control_c, 0, 67, 68
1, 915547, Control_c, 0, 67, 69
1, 915652, Control_c, 0, 67, 69
1, 915666, Control_c, 0, 67, 70
1, 915673, Note_on_c, 0, 65, 59
1, 915681, Control_c, 0, 64, 40
1, 915681, Control_c, 0, 67, 75
1, 915685, Note_on_c, 0, 58, 43
1, 915688, Note_on_c, 0, 62, 49
1, 915696, Control_c, 0, 64, 42
1, 915696, Control_c, 0, 67, 80
1, 915710, Control_c, 0, 64, 44
1, 915710, Control_c, 0, 67, 85
1, 915720, Note_off_c, 0, 89, 63
1, 915725, Control_c, 0, 64, 49
1, 915725, Control_c, 0, 67, 87
1, 915736, Note_on_c, 0, 87, 59
1, 915740, Control_c, 0, 64, 53
1, 915740, Control_c, 0, 67, 88
1, 915755, Control_c, 0, 64, 57
1, 915755, Control_c, 0, 67, 89
1, 915770, Control_c, 0, 64, 59
1, 915770, Control_c, 0, 67, 89
1, 915784, Control_c, 0, 64, 60
1, 915798, Note_on_c, 0, 83, 68
1, 915799, Control_c, 0, 64, 61
1, 915799, Control_c, 0, 67, 90
1, 915806, Note_off_c, 0, 87, 62
1, 915814, Control_c, 0, 64, 61
1, 915814, Control_c, 0, 67, 91
1, 915829, Control_c, 0, 64, 62
1, 915829, Control_c, 0, 67, 97
1, 915831, Note_off_c, 0, 83, 64
1, 915843, Control_c, 0, 67, 104
1, 915858, Control_c, 0, 67, 109
1, 915873, Note_on_c, 0, 78, 62
1, 915873, Control_c, 0, 64, 62
1, 915873, Control_c, 0, 67, 111
1, 915901, Note_off_c, 0, 78, 65
1, 915937, Note_on_c, 0, 75, 67
1, 916011, Note_on_c, 0, 70, 71
1, 916024, Note_off_c, 0, 75, 59
1, 916057, Note_off_c, 0, 65, 64
1, 916066, Note_off_c, 0, 62, 63
1, 916095, Note_off_c, 0, 58, 65
1, 916099, Note_on_c, 0, 77, 72
1, 916101, Note_off_c, 0, 70, 64
1, 916119, Control_c, 0, 64, 60
1, 916134, Control_c, 0, 64, 56
1, 916148, Control_c, 0, 64, 53
1, 916148, Control_c, 0, 67, 113
1, 916163, Control_c, 0, 64, 51
1, 916178, Control_c, 0, 64, 49
1, 916193, Control_c, 0, 64, 41
1, 916208, Control_c, 0, 64, 0
1, 916237, Control_c, 0, 67, 115
1, 916252, Control_c, 0, 67, 117
1, 916301, Note_off_c, 0, 77, 65
1, 916311, Control_c, 0, 64, 43
1, 916326, Control_c, 0, 64, 57
1, 916340, Control_c, 0, 64, 62
1, 916346, Note_on_c, 0, 53, 59
1, 916355, Control_c, 0, 64, 64
1, 916370, Control_c, 0, 64, 65
1, 916385, Control_c, 0, 64, 67
1, 916400, Control_c, 0, 64, 68
1, 916406, Note_on_c, 0, 50, 65
1, 916415, Control_c, 0, 64, 71
1, 916430, Control_c, 0, 64, 74
1, 916433, Note_off_c, 0, 53, 60
1, 916443, Note_off_c, 0, 50, 63
1, 916445, Control_c, 0, 64, 77
1, 916446, Note_on_c, 0, 41, 62
1, 916460, Control_c, 0, 64, 79
1, 916470, Note_off_c, 0, 41, 65
1, 916474, Control_c, 0, 64, 82
1, 916474, Control_c, 0, 67, 115
1, 916489, Control_c, 0, 64, 83
1, 916504, Control_c, 0, 64, 84
1, 916519, Control_c, 0, 64, 85
1, 916535, Note_on_c, 0, 46, 95
1, 916541, Note_on_c, 0, 34, 84
1, 916546, Note_on_c, 0, 58, 71
1, 916548, Control_c, 0, 64, 81
1, 916555, Note_off_c, 0, 46, 69
1, 916563, Note_off_c, 0, 34, 66
1, 916563, Control_c, 0, 64, 64
1, 916578, Control_c, 0, 64, 0
1, 916603, Note_off_c, 0, 58, 62
1, 916627, Note_on_c, 0, 62, 73
1, 916637, Control_c, 0, 67, 117
1, 916681, Note_off_c, 0, 62, 60
1, 916704, Note_on_c, 0, 65, 62
1, 916755, Control_c, 0, 67, 115
1, 916777, Note_on_c, 0, 59, 59
1, 916779, Note_off_c, 0, 65, 62
1, 916785, Note_on_c, 0, 51, 75
1, 916796, Note_on_c, 0, 39, 59
1, 916811, Note_off_c, 0, 51, 66
1, 916823, Note_off_c, 0, 39, 58
1, 916853, Note_off_c, 0, 59, 62
1, 916859, Note_on_c, 0, 63, 55
1, 916932, Note_on_c, 0, 65, 65
1, 916934, Note_off_c, 0, 63, 63
1, 917013, Note_on_c, 0, 60, 62
1, 917015, Note_off_c, 0, 65, 63
1, 917016, Control_c, 0, 67, 113
1, 917022, Note_on_c, 0, 56, 73
1, 917035, Note_on_c, 0, 44, 56
1, 917049, Note_off_c, 0, 56, 65
1, 917061, Note_off_c, 0, 44, 60
1, 917074, Note_off_c, 0, 60, 60
1, 917085, Note_on_c, 0, 64, 58
1, 917144, Note_off_c, 0, 64, 61
1, 917163, Note_on_c, 0, 65, 62
1, 917224, Control_c, 0, 67, 110
1, 917247, Note_on_c, 0, 59, 61
1, 917253, Note_on_c, 0, 51, 62
1, 917253, Note_off_c, 0, 65, 60
1, 917264, Note_on_c, 0, 39, 50
1, 917281, Note_off_c, 0, 51, 64
1, 917294, Note_off_c, 0, 39, 51
1, 917304, Note_off_c, 0, 59, 58
1, 917318, Note_on_c, 0, 63, 63
1, 917393, Note_off_c, 0, 63, 62
1, 917400, Note_on_c, 0, 65, 66
1, 917453, Note_off_c, 0, 65, 61
1, 917474, Note_on_c, 0, 58, 69
1, 917476, Note_on_c, 0, 46, 59
1, 917490, Note_on_c, 0, 34, 42
1, 917490, Control_c, 0, 64, 38
1, 917502, Note_off_c, 0, 58, 67
1, 917505, Control_c, 0, 64, 51
1, 917520, Control_c, 0, 64, 58
1, 917535, Control_c, 0, 64, 60
1, 917546, Note_on_c, 0, 62, 71
1, 917550, Control_c, 0, 64, 61
1, 917579, Control_c, 0, 67, 108
1, 917601, Control_c, 0, 64, 61
1, 917607, Note_off_c, 0, 62, 61
1, 917617, Control_c, 0, 64, 62
1, 917626, Note_on_c, 0, 65, 74
1, 917632, Control_c, 0, 64, 63
1, 917647, Note_off_c, 0, 34, 56
1, 917647, Control_c, 0, 64, 64
1, 917647, Control_c, 0, 67, 106
1, 917660, Note_off_c, 0, 46, 63
1, 917661, Control_c, 0, 64, 64
1, 917674, Note_off_c, 0, 65, 63
1, 917676, Control_c, 0, 64, 65
1, 917686, Note_on_c, 0, 70, 82
1, 917705, Note_off_c, 0, 70, 72
1, 917706, Control_c, 0, 67, 104
1, 917750, Note_on_c, 0, 74, 84
1, 917750, Control_c, 0, 64, 64
1, 917765, Control_c, 0, 64, 63
1, 917780, Control_c, 0, 64, 60
1, 917789, Note_off_c, 0, 74, 61
1, 917795, Control_c, 0, 64, 55
1, 917810, Control_c, 0, 64, 40
1, 917816, Note_on_c, 0, 77, 76
1, 917825, Control_c, 0, 64, 0
1, 917864, Note_off_c, 0, 77, 64
1, 917877, Note_on_c, 0, 82, 101
1, 917899, Note_off_c, 0, 82, 69
1, 917899, Control_c, 0, 64, 54
1, 917913, Control_c, 0, 64, 74
1, 917928, Control_c, 0, 64, 108
1, 917943, Control_c, 0, 64, 127
1, 918031, Control_c, 0, 67, 106
1, 918046, Control_c, 0, 64, 102
1, 918061, Control_c, 0, 64, 82
1, 918076, Control_c, 0, 64, 68
1, 918091, Control_c, 0, 64, 54
1, 918105, Control_c, 0, 64, 0
1, 918131, Note_on_c, 0, 68, 60
1, 918136, Note_on_c, 0, 82, 63
1, 918157, Note_on_c, 0, 56, 20
1, 918159, Note_off_c, 0, 68, 64
1, 918180, Control_c, 0, 64, 38
1, 918194, Control_c, 0, 64, 45
1, 918194, Control_c, 0, 67, 104
1, 918195, Note_on_c, 0, 58, 47
1, 918201, Note_off_c, 0, 56, 40
1, 918209, Control_c, 0, 64, 53
1, 918211, Note_on_c, 0, 70, 60
1, 918224, Control_c, 0, 64, 59
1, 918230, Note_off_c, 0, 70, 64
1, 918239, Control_c, 0, 64, 62
1, 918244, Note_off_c, 0, 82, 61
1, 918252, Note_off_c, 0, 58, 61
1, 918254, Control_c, 0, 64, 64
1, 918269, Control_c, 0, 64, 64
1, 918269, Control_c, 0, 67, 101
1, 918277, Note_on_c, 0, 72, 74
1, 918282, Note_on_c, 0, 60, 50
1, 918284, Control_c, 0, 64, 65
1, 918284, Control_c, 0, 67, 99
1, 918299, Control_c, 0, 64, 66
1, 918299, Control_c, 0, 67, 94
1, 918308, Note_off_c, 0, 60, 62
1, 918313, Control_c, 0, 64, 67
1, 918313, Control_c, 0, 67, 86
1, 918324, Note_on_c, 0, 62, 62
1, 918328, Control_c, 0, 64, 68
1, 918328, Control_c, 0, 67, 76
1, 918343, Note_off_c, 0, 72, 54
1, 918350, Control_c, 0, 64, 70
1, 918350, Control_c, 0, 67, 66
1, 918364, Note_on_c, 0, 74, 72
1, 918365, Control_c, 0, 64, 72
1, 918365, Control_c, 0, 67, 53
1, 918368, Note_on_c, 0, 82, 75
1, 918380, Control_c, 0, 64, 74
1, 918380, Control_c, 0, 67, 36
1, 918394, Control_c, 0, 64, 77
1, 918394, Control_c, 0, 67, 0
1, 918399, Note_off_c, 0, 74, 60
1, 918410, Control_c, 0, 64, 80
1, 918421, Note_off_c, 0, 62, 62
1, 918425, Control_c, 0, 64, 83
1, 918428, Note_on_c, 0, 75, 78
1, 918434, Note_off_c, 0, 82, 62
1, 918440, Control_c, 0, 64, 86
1, 918447, Note_on_c, 0, 64, 46
1, 918448, Note_off_c, 0, 75, 71
1, 918455, Control_c, 0, 64, 91
1, 918469, Control_c, 0, 64, 98
1, 918479, Note_on_c, 0, 77, 89
1, 918484, Control_c, 0, 64, 109
1, 918492, Note_off_c, 0, 64, 51
1, 918499, Control_c, 0, 64, 127
1, 918519, Note_on_c, 0, 67, 71
1, 918531, Note_off_c, 0, 77, 64
1, 918547, Note_on_c, 0, 79, 93
1, 918552, Poly_aftertouch_c, 0, 65, 0
1, 918604, Note_on_c, 0, 68, 81
1, 918610, Note_on_c, 0, 80, 92
1, 918618, Note_off_c, 0, 67, 60
1, 918633, Note_off_c, 0, 79, 67
1, 918659, Note_on_c, 0, 82, 99
1, 918667, Note_off_c, 0, 80, 62
1, 918672, Note_on_c, 0, 69, 45
1, 918673, Note_off_c, 0, 68, 61
1, 918696, Note_off_c, 0, 69, 57
1, 918704, Note_off_c, 0, 82, 67
1, 918707, Control_c, 0, 64, 103
1, 918722, Control_c, 0, 64, 63
1, 918736, Control_c, 0, 64, 0
1, 918749, Note_on_c, 0, 71, 103
1, 918752, Note_on_c, 0, 64, 95
1, 918752, Note_on_c, 0, 67, 91
1, 918753, Note_on_c, 0, 83, 101
1, 918772, Note_off_c, 0, 71, 73
1, 918796, Control_c, 0, 64, 48
1, 918797, Note_off_c, 0, 67, 71
1, 918805, Note_off_c, 0, 64, 54
1, 918810, Control_c, 0, 64, 88
1, 918825, Control_c, 0, 64, 127
1, 918836, Note_on_c, 0, 76, 94
1, 918862, Note_off_c, 0, 83, 61
1, 918905, Note_on_c, 0, 74, 94
1, 918916, Note_off_c, 0, 76, 65
1, 918946, Note_off_c, 0, 74, 66
1, 918973, Note_on_c, 0, 72, 82
1, 918987, Control_c, 0, 64, 107
1, 919002, Control_c, 0, 64, 71
1, 919017, Control_c, 0, 64, 47
1, 919032, Control_c, 0, 64, 0
1, 919043, Note_on_c, 0, 71, 82
1, 919047, Note_off_c, 0, 72, 64
1, 919099, Note_off_c, 0, 71, 66
1, 919100, Note_on_c, 0, 69, 83
1, 919125, Note_off_c, 0, 69, 65
1, 919173, Control_c, 0, 64, 47
1, 919187, Note_on_c, 0, 46, 87
1, 919187, Control_c, 0, 64, 65
1, 919193, Note_on_c, 0, 34, 72
1, 919195, Note_on_c, 0, 68, 90
1, 919199, Note_on_c, 0, 82, 82
1, 919202, Control_c, 0, 64, 72
1, 919214, Note_off_c, 0, 46, 71
1, 919217, Note_off_c, 0, 34, 66
1, 919219, Control_c, 0, 64, 78
1, 919220, Note_off_c, 0, 82, 70
1, 919234, Control_c, 0, 64, 85
1, 919248, Control_c, 0, 64, 99
1, 919263, Control_c, 0, 64, 127
1, 919269, Note_off_c, 0, 68, 64
1, 919277, Note_on_c, 0, 70, 85
1, 919326, Note_off_c, 0, 70, 66
1, 919338, Control_c, 0, 64, 90
1, 919347, Note_on_c, 0, 72, 89
1, 919353, Control_c, 0, 64, 59
1, 919367, Control_c, 0, 64, 0
1, 919412, Control_c, 0, 64, 58
1, 919416, Note_on_c, 0, 74, 91
1, 919422, Note_off_c, 0, 72, 63
1, 919427, Control_c, 0, 64, 77
1, 919428, Note_on_c, 0, 67, 85
1, 919441, Control_c, 0, 64, 127
1, 919479, Note_on_c, 0, 75, 89
1, 919485, Note_off_c, 0, 74, 63
1, 919486, Note_on_c, 0, 66, 88
1, 919515, Note_off_c, 0, 67, 60
1, 919536, Note_off_c, 0, 75, 66
1, 919552, Note_on_c, 0, 77, 88
1, 919554, Note_on_c, 0, 65, 78
1, 919593, Note_off_c, 0, 77, 68
1, 919598, Note_off_c, 0, 66, 58
1, 919619, Control_c, 0, 64, 97
1, 919625, Note_on_c, 0, 71, 100
1, 919628, Note_on_c, 0, 64, 89
1, 919630, Note_on_c, 0, 83, 107
1, 919631, Note_on_c, 0, 67, 96
1, 919634, Control_c, 0, 64, 60
1, 919637, Note_on_c, 0, 77, 67
1, 919640, Note_off_c, 0, 65, 63
1, 919649, Control_c, 0, 64, 0
1, 919656, Note_off_c, 0, 77, 63
1, 919693, Control_c, 0, 64, 42
1, 919706, Note_on_c, 0, 76, 93
1, 919708, Control_c, 0, 64, 78
1, 919723, Control_c, 0, 64, 127
1, 919733, Note_off_c, 0, 83, 61
1, 919756, Note_off_c, 0, 71, 66
1, 919760, Note_off_c, 0, 67, 64
1, 919769, Note_on_c, 0, 74, 94
1, 919786, Note_off_c, 0, 64, 66
1, 919786, Note_off_c, 0, 76, 66
1, 919816, Note_off_c, 0, 74, 65
1, 919844, Note_on_c, 0, 72, 88
1, 919909, Note_on_c, 0, 71, 90
1, 919913, Note_off_c, 0, 72, 62
1, 919951, Note_on_c, 0, 69, 90
1, 919959, Note_off_c, 0, 71, 57
1, 919977, Note_off_c, 0, 69, 66
1, 919997, Control_c, 0, 64, 110
1, 920013, Control_c, 0, 64, 57
1, 920028, Control_c, 0, 64, 0
1, 920066, Note_on_c, 0, 46, 98
1, 920071, Note_on_c, 0, 56, 93
1, 920072, Note_on_c, 0, 34, 87
1, 920078, Note_on_c, 0, 70, 62
1, 920095, Note_off_c, 0, 70, 65
1, 920099, Note_off_c, 0, 34, 68
1, 920101, Control_c, 0, 64, 71
1, 920101, Control_c, 0, 67, 21
1, 920102, Note_off_c, 0, 46, 68
1, 920115, Control_c, 0, 64, 127
1, 920115, Control_c, 0, 67, 25
1, 920130, Control_c, 0, 67, 29
1, 920140, Note_off_c, 0, 56, 63
1, 920145, Control_c, 0, 67, 32
1, 920157, Note_on_c, 0, 58, 73
1, 920160, Control_c, 0, 67, 35
1, 920175, Control_c, 0, 67, 41
1, 920177, Note_off_c, 0, 58, 61
1, 920180, Note_on_c, 0, 59, 59
1, 920189, Control_c, 0, 67, 51
1, 920200, Note_off_c, 0, 59, 64
1, 920204, Control_c, 0, 64, 101
1, 920204, Control_c, 0, 67, 68
1, 920219, Control_c, 0, 64, 68
1, 920219, Control_c, 0, 67, 85
1, 920233, Control_c, 0, 64, 0
1, 920233, Control_c, 0, 67, 96
1, 920235, Note_on_c, 0, 60, 86
1, 920248, Control_c, 0, 67, 101
1, 920263, Control_c, 0, 67, 106
1, 920278, Control_c, 0, 67, 109
1, 920293, Control_c, 0, 67, 111
1, 920299, Note_on_c, 0, 62, 92
1, 920352, Note_off_c, 0, 60, 32
1, 920368, Note_on_c, 0, 63, 85
1, 920391, Note_off_c, 0, 62, 58
1, 920437, Note_on_c, 0, 65, 81
1, 920438, Note_off_c, 0, 63, 67
1, 920481, Note_off_c, 0, 65, 63
1, 920519, Note_on_c, 0, 56, 72
1, 920600, Note_on_c, 0, 58, 72
1, 920604, Note_off_c, 0, 56, 62
1, 920641, Control_c, 0, 67, 114
1, 920648, Note_off_c, 0, 58, 66
1, 920656, Control_c, 0, 64, 38
1, 920663, Note_on_c, 0, 60, 71
1, 920671, Control_c, 0, 64, 40
1, 920701, Control_c, 0, 64, 41
1, 920715, Control_c, 0, 64, 43
1, 920725, Note_off_c, 0, 60, 64
1, 920730, Control_c, 0, 64, 46
1, 920730, Control_c, 0, 67, 117
1, 920743, Note_on_c, 0, 62, 66
1, 920745, Control_c, 0, 64, 48
1, 920745, Control_c, 0, 67, 120
1, 920759, Control_c, 0, 67, 123
1, 920788, Control_c, 0, 67, 125
1, 920797, Note_on_c, 0, 63, 71
1, 920818, Note_off_c, 0, 62, 59
1, 920849, Control_c, 0, 64, 49
1, 920877, Note_on_c, 0, 65, 74
1, 920884, Note_off_c, 0, 63, 61
1, 920893, Control_c, 0, 64, 49
1, 920908, Control_c, 0, 64, 49
1, 920921, Note_off_c, 0, 65, 63
1, 920923, Control_c, 0, 64, 44
1, 920937, Control_c, 0, 64, 31
1, 920952, Note_on_c, 0, 56, 65
1, 920952, Control_c, 0, 64, 0
1, 921024, Note_off_c, 0, 56, 61
1, 921029, Note_on_c, 0, 58, 62
1, 921085, Note_off_c, 0, 58, 65
1, 921090, Note_on_c, 0, 60, 64
1, 921135, Note_off_c, 0, 60, 62
1, 921158, Note_on_c, 0, 62, 62
1, 921223, Note_on_c, 0, 63, 61
1, 921229, Note_off_c, 0, 62, 57
1, 921298, Note_on_c, 0, 65, 67
1, 921316, Note_off_c, 0, 63, 61
1, 921338, Note_off_c, 0, 65, 66
1, 921376, Note_on_c, 0, 56, 58
1, 921444, Note_off_c, 0, 56, 60
1, 921455, Note_on_c, 0, 58, 63
1, 921512, Note_on_c, 0, 59, 56
1, 921526, Note_off_c, 0, 58, 64
1, 921578, Note_on_c, 0, 60, 64
1, 921581, Note_off_c, 0, 59, 60
1, 921581, Control_c, 0, 67, 123
1, 921612, Control_c, 0, 64, 32
1, 921627, Control_c, 0, 64, 35
1, 921627, Control_c, 0, 67, 121
1, 921642, Control_c, 0, 64, 37
1, 921645, Note_on_c, 0, 62, 60
1, 921649, Note_off_c, 0, 60, 59
1, 921657, Control_c, 0, 64, 39
1, 921672, Control_c, 0, 67, 119
1, 921686, Control_c, 0, 64, 40
1, 921697, Note_on_c, 0, 63, 76
1, 921701, Control_c, 0, 64, 41
1, 921701, Control_c, 0, 67, 116
1, 921716, Control_c, 0, 64, 43
1, 921717, Note_off_c, 0, 62, 63
1, 921731, Control_c, 0, 64, 48
1, 921731, Control_c, 0, 67, 113
1, 921733, Note_off_c, 0, 63, 63
1, 921746, Control_c, 0, 64, 56
1, 921746, Control_c, 0, 67, 110
1, 921760, Control_c, 0, 64, 62
1, 921760, Control_c, 0, 67, 107
1, 921775, Control_c, 0, 64, 65
1, 921775, Control_c, 0, 67, 97
1, 921778, Note_on_c, 0, 64, 95
1, 921782, Note_on_c, 0, 60, 99
1, 921784, Note_on_c, 0, 57, 98
1, 921790, Control_c, 0, 64, 62
1, 921790, Control_c, 0, 67, 84
1, 921804, Control_c, 0, 64, 33
1, 921804, Control_c, 0, 67, 76
1, 921819, Control_c, 0, 64, 0
1, 921819, Control_c, 0, 67, 73
1, 921849, Control_c, 0, 67, 75
1, 921864, Control_c, 0, 67, 77
1, 921879, Control_c, 0, 67, 79
1, 921894, Control_c, 0, 67, 79
1, 921939, Control_c, 0, 67, 79
1, 922012, Control_c, 0, 67, 80
1, 922027, Control_c, 0, 67, 81
1, 922042, Control_c, 0, 67, 82
1, 922050, Note_on_c, 0, 52, 84
1, 922057, Control_c, 0, 67, 84
1, 922072, Control_c, 0, 67, 85
1, 922085, Note_off_c, 0, 52, 66
1, 922094, Control_c, 0, 67, 86
1, 922123, Control_c, 0, 67, 87
1, 922138, Control_c, 0, 67, 87
1, 922168, Control_c, 0, 67, 88
1, 922177, Note_on_c, 0, 52, 83
1, 922183, Control_c, 0, 67, 88
1, 922202, Note_off_c, 0, 52, 68
1, 922286, Control_c, 0, 67, 88
1, 922301, Control_c, 0, 67, 87
1, 922309, Note_on_c, 0, 53, 78
1, 922335, Note_off_c, 0, 53, 68
1, 922429, Note_on_c, 0, 53, 74
1, 922455, Note_off_c, 0, 53, 67
1, 922549, Note_on_c, 0, 52, 70
1, 922572, Note_off_c, 0, 52, 65
1, 922661, Note_on_c, 0, 52, 72
1, 922693, Note_off_c, 0, 52, 65
1, 922775, Note_on_c, 0, 53, 71
1, 922806, Note_off_c, 0, 53, 67
1, 922915, Note_on_c, 0, 53, 72
1, 922942, Note_off_c, 0, 53, 66
1, 923022, Note_on_c, 0, 52, 76
1, 923050, Note_off_c, 0, 52, 67
1, 923144, Note_on_c, 0, 53, 72
1, 923170, Note_off_c, 0, 53, 66
1, 923260, Note_on_c, 0, 52, 72
1, 923289, Note_off_c, 0, 52, 67
1, 923378, Note_on_c, 0, 52, 68
1, 923408, Note_off_c, 0, 52, 65
1, 923435, Note_off_c, 0, 60, 60
1, 923441, Note_off_c, 0, 57, 58
1, 923486, Note_on_c, 0, 47, 52
1, 923490, Note_off_c, 0, 64, 60
1, 923512, Note_off_c, 0, 47, 60
1, 923591, Control_c, 0, 67, 88
1, 923602, Note_on_c, 0, 48, 66
1, 923627, Note_off_c, 0, 48, 64
1, 923717, Note_on_c, 0, 49, 64
1, 923724, Note_on_c, 0, 64, 63
1, 923725, Control_c, 0, 67, 87
1, 923734, Note_on_c, 0, 56, 54
1, 923739, Note_off_c, 0, 49, 63
1, 923746, Note_on_c, 0, 61, 45
1, 923799, Control_c, 0, 67, 86
1, 923828, Control_c, 0, 67, 85
1, 923837, Note_on_c, 0, 44, 71
1, 923843, Control_c, 0, 67, 85
1, 923858, Control_c, 0, 67, 83
1, 923860, Note_off_c, 0, 44, 67
1, 923873, Control_c, 0, 67, 82
1, 923888, Control_c, 0, 67, 80
1, 923903, Control_c, 0, 67, 77
1, 923918, Control_c, 0, 67, 75
1, 923932, Control_c, 0, 67, 72
1, 923947, Control_c, 0, 67, 70
1, 923956, Note_on_c, 0, 51, 81
1, 923962, Control_c, 0, 67, 64
1, 923976, Control_c, 0, 67, 53
1, 923980, Note_off_c, 0, 51, 68
1, 923991, Control_c, 0, 67, 38
1, 924007, Control_c, 0, 67, 24
1, 924022, Control_c, 0, 67, 0
1, 924060, Note_on_c, 0, 49, 88
1, 924081, Note_off_c, 0, 49, 71
1, 924172, Note_on_c, 0, 60, 93
1, 924216, Note_off_c, 0, 60, 66
1, 924284, Note_on_c, 0, 55, 88
1, 924308, Note_off_c, 0, 55, 67
1, 924414, Note_on_c, 0, 52, 71
1, 924442, Note_off_c, 0, 52, 67
1, 924444, Control_c, 0, 67, 20
1, 924459, Control_c, 0, 67, 22
1, 924518, Note_on_c, 0, 48, 78
1, 924518, Control_c, 0, 67, 24
1, 924542, Note_off_c, 0, 48, 66
1, 924563, Control_c, 0, 67, 27
1, 924644, Note_on_c, 0, 49, 78
1, 924672, Note_off_c, 0, 49, 68
1, 924755, Note_on_c, 0, 44, 74
1, 924776, Note_off_c, 0, 44, 68
1, 924878, Note_on_c, 0, 49, 63
1, 924907, Note_off_c, 0, 49, 65
1, 924985, Note_on_c, 0, 51, 70
1, 925015, Note_off_c, 0, 51, 63
1, 925136, Note_on_c, 0, 49, 52
1, 925209, Control_c, 0, 64, 58
1, 925223, Control_c, 0, 64, 70
1, 925238, Control_c, 0, 64, 76
1, 925253, Control_c, 0, 64, 84
1, 925268, Control_c, 0, 64, 90
1, 925283, Control_c, 0, 64, 102
1, 925285, Note_off_c, 0, 49, 64
1, 925297, Control_c, 0, 64, 108
1, 925312, Control_c, 0, 64, 98
1, 925327, Control_c, 0, 64, 70
1, 925327, Control_c, 0, 67, 24
1, 925342, Control_c, 0, 64, 0
1, 925342, Control_c, 0, 67, 22
1, 925371, Control_c, 0, 67, 19
1, 925376, Note_off_c, 0, 56, 56
1, 925378, Note_on_c, 0, 52, 73
1, 925386, Control_c, 0, 67, 0
1, 925401, Control_c, 0, 64, 47
1, 925416, Control_c, 0, 64, 64
1, 925418, Note_off_c, 0, 52, 63
1, 925418, Note_off_c, 0, 64, 56
1, 925424, Note_on_c, 0, 53, 78
1, 925430, Control_c, 0, 64, 71
1, 925445, Control_c, 0, 64, 79
1, 925458, Note_on_c, 0, 54, 83
1, 925460, Control_c, 0, 64, 87
1, 925462, Note_off_c, 0, 61, 51
1, 925475, Note_off_c, 0, 53, 61
1, 925475, Control_c, 0, 64, 94
1, 925490, Control_c, 0, 64, 105
1, 925499, Note_on_c, 0, 56, 93
1, 925504, Control_c, 0, 64, 127
1, 925507, Note_off_c, 0, 54, 62
1, 925549, Note_off_c, 0, 56, 63
1, 925567, Note_on_c, 0, 57, 96
1, 925567, Note_on_c, 0, 64, 101
1, 925569, Note_on_c, 0, 60, 101
1, 925578, Control_c, 0, 64, 109
1, 925594, Control_c, 0, 64, 60
1, 925609, Control_c, 0, 64, 0
1, 925639, Control_c, 0, 67, 19
1, 925653, Control_c, 0, 67, 22
1, 925668, Control_c, 0, 67, 24
1, 925757, Control_c, 0, 67, 22
1, 925802, Control_c, 0, 67, 20
1, 925828, Note_on_c, 0, 52, 89
1, 925855, Note_off_c, 0, 52, 67
1, 925957, Note_on_c, 0, 52, 85
1, 925957, Control_c, 0, 67, 22
1, 925987, Note_off_c, 0, 52, 66
1, 926067, Note_on_c, 0, 53, 88
1, 926097, Note_off_c, 0, 53, 67
1, 926193, Note_on_c, 0, 53, 83
1, 926220, Note_off_c, 0, 53, 66
1, 926304, Note_on_c, 0, 52, 83
1, 926326, Note_off_c, 0, 52, 70
1, 926431, Note_on_c, 0, 52, 75
1, 926458, Note_off_c, 0, 52, 68
1, 926544, Note_on_c, 0, 53, 80
1, 926575, Note_off_c, 0, 53, 69
1, 926670, Note_on_c, 0, 53, 78
1, 926698, Note_off_c, 0, 53, 66
1, 926777, Note_on_c, 0, 52, 81
1, 926800, Note_off_c, 0, 52, 69
1, 926905, Note_on_c, 0, 53, 63
1, 926929, Note_off_c, 0, 53, 63
1, 926949, Note_off_c, 0, 57, 60
1, 926964, Note_off_c, 0, 60, 58
1, 927008, Note_on_c, 0, 52, 60
1, 927039, Note_off_c, 0, 52, 64
1, 927046, Control_c, 0, 67, 19
1, 927047, Note_off_c, 0, 64, 67
1, 927061, Control_c, 0, 67, 0
1, 927119, Note_on_c, 0, 57, 67
1, 927149, Note_off_c, 0, 57, 66
1, 927253, Note_on_c, 0, 60, 58
1, 927275, Note_off_c, 0, 60, 63
1, 927358, Note_on_c, 0, 64, 51
1, 927412, Note_off_c, 0, 64, 54
1, 927468, Note_on_c, 0, 75, 79
1, 927476, Note_on_c, 0, 66, 69
1, 927477, Note_on_c, 0, 68, 66
1, 927484, Control_c, 0, 64, 34
1, 927486, Note_on_c, 0, 71, 52
1, 927495, Note_off_c, 0, 68, 65
1, 927498, Control_c, 0, 64, 71
1, 927501, Note_off_c, 0, 66, 67
1, 927509, Note_off_c, 0, 71, 58
1, 927510, Note_off_c, 0, 75, 65
1, 927513, Control_c, 0, 64, 127
1, 927736, Note_on_c, 0, 66, 66
1, 927797, Note_off_c, 0, 66, 61
1, 927802, Note_on_c, 0, 71, 70
1, 927869, Control_c, 0, 64, 113
1, 927871, Note_on_c, 0, 75, 76
1, 927882, Note_off_c, 0, 71, 61
1, 927884, Control_c, 0, 64, 83
1, 927899, Control_c, 0, 64, 69
1, 927902, Note_on_c, 0, 63, 9
1, 927914, Control_c, 0, 64, 61
1, 927929, Control_c, 0, 64, 60
1, 927943, Control_c, 0, 64, 63
1, 927955, Note_on_c, 0, 80, 77
1, 927958, Control_c, 0, 64, 68
1, 927960, Note_off_c, 0, 75, 63
1, 927963, Note_on_c, 0, 56, 56
1, 927968, Note_on_c, 0, 78, 66
1, 927973, Control_c, 0, 64, 74
1, 927976, Note_on_c, 0, 58, 44
1, 927978, Note_off_c, 0, 63, 42
1, 927989, Control_c, 0, 64, 79
1, 927996, Note_off_c, 0, 56, 63
1, 928004, Control_c, 0, 64, 84
1, 928006, Note_off_c, 0, 58, 54
1, 928012, Note_off_c, 0, 80, 63
1, 928019, Control_c, 0, 64, 88
1, 928020, Note_on_c, 0, 75, 67
1, 928029, Note_off_c, 0, 78, 60
1, 928034, Control_c, 0, 64, 93
1, 928048, Control_c, 0, 64, 98
1, 928070, Control_c, 0, 64, 105
1, 928085, Control_c, 0, 64, 127
1, 928111, Note_on_c, 0, 71, 71
1, 928112, Note_off_c, 0, 75, 62
1, 928168, Note_off_c, 0, 71, 63
1, 928180, Note_on_c, 0, 66, 54
1, 928219, Note_off_c, 0, 66, 62
1, 928233, Note_on_c, 0, 71, 65
1, 928261, Note_off_c, 0, 71, 66
1, 928331, Note_on_c, 0, 75, 77
1, 928332, Note_on_c, 0, 63, 55
1, 928365, Note_off_c, 0, 63, 65
1, 928388, Note_off_c, 0, 75, 60
1, 928404, Note_on_c, 0, 80, 80
1, 928410, Note_on_c, 0, 68, 77
1, 928418, Note_on_c, 0, 78, 59
1, 928432, Note_off_c, 0, 68, 70
1, 928442, Note_off_c, 0, 78, 62
1, 928479, Note_on_c, 0, 82, 85
1, 928482, Note_off_c, 0, 80, 61
1, 928533, Note_on_c, 0, 80, 70
1, 928538, Note_on_c, 0, 78, 65
1, 928539, Note_off_c, 0, 82, 64
1, 928593, Note_off_c, 0, 78, 63
1, 928604, Note_off_c, 0, 80, 66
1, 928608, Note_on_c, 0, 82, 89
1, 928625, Note_off_c, 0, 82, 72
1, 928699, Note_on_c, 0, 66, 74
1, 928761, Note_off_c, 0, 66, 60
1, 928798, Note_on_c, 0, 63, 67
1, 928819, Control_c, 0, 64, 91
1, 928834, Control_c, 0, 64, 69
1, 928849, Control_c, 0, 64, 53
1, 928864, Control_c, 0, 64, 49
1, 928868, Note_on_c, 0, 80, 77
1, 928874, Note_on_c, 0, 78, 72
1, 928878, Control_c, 0, 64, 57
1, 928888, Note_on_c, 0, 56, 58
1, 928893, Control_c, 0, 64, 63
1, 928894, Note_on_c, 0, 58, 64
1, 928899, Note_off_c, 0, 63, 57
1, 928908, Control_c, 0, 64, 69
1, 928923, Control_c, 0, 64, 76
1, 928926, Note_off_c, 0, 56, 63
1, 928929, Note_off_c, 0, 58, 66
1, 928938, Control_c, 0, 64, 84
1, 928941, Note_on_c, 0, 75, 75
1, 928943, Note_off_c, 0, 80, 62
1, 928953, Control_c, 0, 64, 91
1, 928953, Note_off_c, 0, 78, 55
1, 928967, Control_c, 0, 64, 98
1, 928982, Control_c, 0, 64, 109
1, 928997, Control_c, 0, 64, 127
1, 929017, Note_on_c, 0, 71, 77
1, 929032, Note_off_c, 0, 75, 62
1, 929074, Note_off_c, 0, 71, 63
1, 929080, Note_on_c, 0, 66, 76
1, 929144, Note_on_c, 0, 71, 75
1, 929146, Note_off_c, 0, 66, 63
1, 929170, Note_off_c, 0, 71, 69
1, 929211, Note_on_c, 0, 63, 66
1, 929238, Note_on_c, 0, 75, 79
1, 929239, Note_off_c, 0, 63, 68
1, 929286, Note_off_c, 0, 75, 62
1, 929296, Note_on_c, 0, 70, 71
1, 929304, Note_on_c, 0, 80, 83
1, 929308, Control_c, 0, 64, 96
1, 929313, Note_on_c, 0, 78, 69
1, 929322, Control_c, 0, 64, 69
1, 929337, Control_c, 0, 64, 43
1, 929338, Note_off_c, 0, 70, 59
1, 929338, Note_off_c, 0, 78, 68
1, 929352, Note_off_c, 0, 80, 64
1, 929352, Control_c, 0, 64, 0
1, 929389, Note_on_c, 0, 82, 93
1, 929390, Note_on_c, 0, 68, 70
1, 929397, Control_c, 0, 64, 41
1, 929412, Control_c, 0, 64, 57
1, 929427, Control_c, 0, 64, 64
1, 929434, Note_off_c, 0, 68, 60
1, 929441, Control_c, 0, 64, 67
1, 929443, Note_on_c, 0, 78, 72
1, 929453, Note_on_c, 0, 80, 82
1, 929454, Note_off_c, 0, 82, 63
1, 929456, Control_c, 0, 64, 69
1, 929471, Control_c, 0, 64, 73
1, 929472, Note_on_c, 0, 66, 64
1, 929486, Control_c, 0, 64, 76
1, 929496, Note_off_c, 0, 78, 63
1, 929497, Note_off_c, 0, 66, 66
1, 929501, Control_c, 0, 64, 80
1, 929506, Note_on_c, 0, 82, 86
1, 929510, Note_off_c, 0, 80, 65
1, 929515, Control_c, 0, 64, 85
1, 929527, Note_off_c, 0, 82, 68
1, 929530, Control_c, 0, 64, 92
1, 929540, Note_on_c, 0, 64, 70
1, 929545, Control_c, 0, 64, 100
1, 929560, Control_c, 0, 64, 108
1, 929582, Control_c, 0, 64, 118
1, 929596, Note_off_c, 0, 64, 60
1, 929598, Control_c, 0, 64, 127
1, 929625, Note_on_c, 0, 63, 69
1, 929680, Note_off_c, 0, 63, 64
1, 929710, Note_on_c, 0, 61, 61
1, 929731, Control_c, 0, 64, 99
1, 929745, Note_off_c, 0, 61, 63
1, 929745, Control_c, 0, 64, 78
1, 929760, Control_c, 0, 64, 62
1, 929767, Note_on_c, 0, 80, 81
1, 929776, Control_c, 0, 64, 36
1, 929781, Note_on_c, 0, 78, 67
1, 929787, Note_on_c, 0, 59, 65
1, 929791, Control_c, 0, 64, 0
1, 929806, Control_c, 0, 64, 32
1, 929820, Control_c, 0, 64, 46
1, 929835, Control_c, 0, 64, 58
1, 929844, Note_off_c, 0, 59, 60
1, 929850, Control_c, 0, 64, 64
1, 929865, Note_on_c, 0, 58, 67
1, 929865, Control_c, 0, 64, 69
1, 929880, Control_c, 0, 64, 75
1, 929895, Control_c, 0, 64, 81
1, 929909, Control_c, 0, 64, 86
1, 929924, Control_c, 0, 64, 92
1, 929931, Note_off_c, 0, 58, 63
1, 929939, Control_c, 0, 64, 101
1, 929940, Note_on_c, 0, 56, 73
1, 929954, Control_c, 0, 64, 116
1, 929969, Control_c, 0, 64, 127
1, 929982, Note_off_c, 0, 80, 63
1, 929990, Note_off_c, 0, 78, 62
1, 930004, Poly_aftertouch_c, 0, 82, 127
1, 930006, Note_off_c, 0, 56, 59
1, 930011, Note_on_c, 0, 54, 75
1, 930046, Poly_aftertouch_c, 0, 82, 0
1, 930085, Note_on_c, 0, 80, 86
1, 930088, Note_on_c, 0, 78, 81
1, 930096, Note_off_c, 0, 54, 61
1, 930098, Note_on_c, 0, 56, 74
1, 930109, Note_off_c, 0, 78, 69
1, 930111, Note_off_c, 0, 80, 61
1, 930140, Note_off_c, 0, 56, 56
1, 930157, Note_on_c, 0, 58, 80
1, 930160, Note_on_c, 0, 80, 89
1, 930167, Note_on_c, 0, 78, 83
1, 930187, Note_off_c, 0, 78, 71
1, 930198, Note_off_c, 0, 80, 63
1, 930226, Note_off_c, 0, 58, 63
1, 930231, Note_on_c, 0, 56, 82
1, 930233, Note_on_c, 0, 80, 96
1, 930234, Note_on_c, 0, 78, 103
1, 930270, Note_off_c, 0, 56, 66
1, 930288, Note_on_c, 0, 54, 81
1, 930351, Note_off_c, 0, 54, 63
1, 930383, Note_on_c, 0, 52, 90
1, 930392, Note_off_c, 0, 78, 61
1, 930392, Note_off_c, 0, 80, 63
1, 930458, Note_off_c, 0, 52, 50
1, 930462, Note_on_c, 0, 51, 89
1, 930512, Note_off_c, 0, 51, 67
1, 930528, Note_on_c, 0, 49, 90
1, 930559, Note_on_c, 0, 80, 89
1, 930564, Note_on_c, 0, 78, 86
1, 930586, Note_off_c, 0, 78, 67
1, 930587, Note_off_c, 0, 49, 63
1, 930601, Note_off_c, 0, 80, 62
1, 930612, Note_on_c, 0, 47, 94
1, 930637, Note_on_c, 0, 80, 94
1, 930639, Note_on_c, 0, 78, 98
1, 930670, Note_off_c, 0, 78, 61
1, 930674, Note_off_c, 0, 80, 67
1, 930693, Note_on_c, 0, 46, 92
1, 930699, Note_off_c, 0, 47, 61
1, 930709, Note_on_c, 0, 78, 95
1, 930713, Note_on_c, 0, 80, 92
1, 930732, Poly_aftertouch_c, 0, 47, 0
1, 930740, Note_off_c, 0, 78, 70
1, 930743, Note_on_c, 0, 47, 40
1, 930744, Note_off_c, 0, 80, 69
1, 930753, Note_on_c, 0, 44, 76
1, 930763, Note_off_c, 0, 46, 62
1, 930768, Note_off_c, 0, 47, 60
1, 930798, Note_off_c, 0, 44, 67
1, 930805, Note_on_c, 0, 42, 90
1, 930863, Note_off_c, 0, 42, 66
1, 930923, Note_on_c, 0, 40, 84
1, 930950, Note_on_c, 0, 78, 112
1, 931002, Note_on_c, 0, 77, 63
1, 931014, Note_on_c, 0, 39, 93
1, 931039, Note_off_c, 0, 40, 61
1, 931063, Note_on_c, 0, 37, 81
1, 931073, Note_off_c, 0, 39, 65
1, 931086, Note_off_c, 0, 37, 64
1, 931092, Note_off_c, 0, 77, 64
1, 931145, Note_off_c, 0, 78, 0
1, 931168, Control_c, 0, 64, 69
1, 931182, Poly_aftertouch_c, 0, 78, 127
1, 931183, Control_c, 0, 64, 0
1, 931197, Poly_aftertouch_c, 0, 78, 0
1, 931242, Note_on_c, 0, 83, 107
1, 931244, Note_on_c, 0, 35, 105
1, 931244, Note_on_c, 0, 47, 103
1, 931317, Control_c, 0, 64, 41
1, 931332, Control_c, 0, 64, 84
1, 931339, Note_off_c, 0, 35, 64
1, 931343, Note_on_c, 0, 76, 84
1, 931347, Control_c, 0, 64, 127
1, 931354, Note_off_c, 0, 47, 69
1, 931382, Note_off_c, 0, 76, 61
1, 931414, Note_on_c, 0, 70, 85
1, 931431, Note_off_c, 0, 83, 64
1, 931453, Note_off_c, 0, 70, 61
1, 931505, Note_on_c, 0, 83, 113
1, 931510, Note_on_c, 0, 71, 105
1, 931535, Note_off_c, 0, 71, 69
1, 931588, Note_on_c, 0, 75, 84
1, 931626, Note_off_c, 0, 75, 65
1, 931673, Note_on_c, 0, 70, 75
1, 931722, Note_off_c, 0, 83, 59
1, 931727, Note_off_c, 0, 70, 63
1, 931755, Note_on_c, 0, 77, 98
1, 931758, Note_on_c, 0, 65, 110
1, 931793, Note_off_c, 0, 65, 73
1, 931846, Note_on_c, 0, 75, 89
1, 931874, Note_off_c, 0, 77, 62
1, 931915, Note_off_c, 0, 75, 60
1, 931930, Note_on_c, 0, 70, 83
1, 931993, Control_c, 0, 64, 122
1, 932008, Control_c, 0, 64, 73
1, 932011, Note_off_c, 0, 70, 60
1, 932017, Note_on_c, 0, 78, 106
1, 932023, Control_c, 0, 64, 46
1, 932026, Note_on_c, 0, 66, 112
1, 932038, Control_c, 0, 64, 0
1, 932063, Note_off_c, 0, 66, 69
1, 932083, Control_c, 0, 64, 56
1, 932095, Note_on_c, 0, 75, 87
1, 932097, Control_c, 0, 64, 71
1, 932112, Control_c, 0, 64, 89
1, 932127, Control_c, 0, 64, 127
1, 932136, Note_off_c, 0, 78, 62
1, 932152, Note_off_c, 0, 75, 66
1, 932170, Note_on_c, 0, 70, 83
1, 932217, Note_off_c, 0, 70, 65
1, 932259, Control_c, 0, 64, 112
1, 932274, Control_c, 0, 64, 78
1, 932276, Note_on_c, 0, 79, 107
1, 932288, Note_on_c, 0, 67, 103
1, 932289, Control_c, 0, 64, 61
1, 932304, Control_c, 0, 64, 38
1, 932319, Control_c, 0, 64, 0
1, 932334, Control_c, 0, 64, 32
1, 932348, Control_c, 0, 64, 51
1, 932353, Note_on_c, 0, 74, 79
1, 932363, Control_c, 0, 64, 69
1, 932378, Control_c, 0, 64, 88
1, 932393, Control_c, 0, 64, 127
1, 932422, Note_off_c, 0, 79, 63
1, 932423, Note_off_c, 0, 67, 62
1, 932432, Note_on_c, 0, 71, 76
1, 932453, Note_off_c, 0, 74, 60
1, 932491, Note_off_c, 0, 71, 60
1, 932524, Note_on_c, 0, 79, 105
1, 932530, Note_on_c, 0, 69, 94
1, 932530, Note_on_c, 0, 67, 93
1, 932574, Note_off_c, 0, 69, 65
1, 932578, Note_off_c, 0, 67, 69
1, 932598, Note_on_c, 0, 74, 87
1, 932658, Note_off_c, 0, 74, 64
1, 932673, Note_on_c, 0, 71, 77
1, 932695, Note_off_c, 0, 79, 64
1, 932718, Note_off_c, 0, 71, 64
1, 932756, Control_c, 0, 64, 113
1, 932771, Control_c, 0, 64, 72
1, 932774, Note_on_c, 0, 74, 100
1, 932786, Note_on_c, 0, 62, 103
1, 932786, Control_c, 0, 64, 51
1, 932801, Control_c, 0, 64, 0
1, 932831, Control_c, 0, 64, 42
1, 932843, Note_on_c, 0, 71, 85
1, 932846, Control_c, 0, 64, 59
1, 932861, Control_c, 0, 64, 73
1, 932875, Control_c, 0, 64, 89
1, 932890, Control_c, 0, 64, 127
1, 932913, Note_on_c, 0, 67, 82
1, 932922, Note_off_c, 0, 62, 59
1, 932929, Note_off_c, 0, 71, 58
1, 932951, Note_off_c, 0, 74, 46
1, 932961, Poly_aftertouch_c, 0, 64, 0
1, 932974, Note_off_c, 0, 67, 63
1, 933037, Note_on_c, 0, 76, 101
1, 933039, Note_on_c, 0, 64, 92
1, 933079, Note_off_c, 0, 64, 67
1, 933084, Note_off_c, 0, 76, 64
1, 933127, Control_c, 0, 64, 107
1, 933142, Control_c, 0, 64, 81
1, 933151, Note_on_c, 0, 77, 101
1, 933157, Control_c, 0, 64, 60
1, 933160, Note_on_c, 0, 62, 94
1, 933171, Control_c, 0, 64, 0
1, 933196, Note_off_c, 0, 62, 65
1, 933201, Note_off_c, 0, 77, 64
1, 933274, Note_on_c, 0, 73, 103
1, 933282, Note_on_c, 0, 61, 105
1, 933305, Control_c, 0, 64, 32
1, 933327, Control_c, 0, 64, 61
1, 933335, Note_on_c, 0, 68, 85
1, 933342, Control_c, 0, 64, 71
1, 933357, Control_c, 0, 64, 80
1, 933371, Control_c, 0, 64, 92
1, 933386, Control_c, 0, 64, 103
1, 933393, Note_on_c, 0, 65, 88
1, 933401, Control_c, 0, 64, 127
1, 933412, Note_off_c, 0, 68, 61
1, 933424, Note_off_c, 0, 65, 64
1, 933432, Note_off_c, 0, 73, 59
1, 933517, Note_off_c, 0, 61, 57
1, 933534, Note_on_c, 0, 71, 99
1, 933534, Control_c, 0, 64, 109
1, 933543, Note_on_c, 0, 62, 87
1, 933549, Control_c, 0, 64, 88
1, 933564, Control_c, 0, 64, 80
1, 933583, Note_off_c, 0, 71, 66
1, 933591, Note_off_c, 0, 62, 63
1, 933594, Control_c, 0, 64, 81
1, 933609, Control_c, 0, 64, 81
1, 933624, Control_c, 0, 64, 80
1, 933639, Control_c, 0, 64, 74
1, 933654, Control_c, 0, 64, 66
1, 933657, Note_on_c, 0, 73, 99
1, 933664, Note_on_c, 0, 61, 82
1, 933669, Control_c, 0, 64, 53
1, 933684, Control_c, 0, 64, 33
1, 933695, Note_off_c, 0, 73, 69
1, 933699, Control_c, 0, 64, 0
1, 933713, Note_off_c, 0, 61, 64
1, 933781, Note_on_c, 0, 59, 93
1, 933781, Note_on_c, 0, 81, 110
1, 933803, Control_c, 0, 64, 39
1, 933817, Control_c, 0, 64, 60
1, 933831, Note_off_c, 0, 81, 67
1, 933832, Control_c, 0, 64, 66
1, 933847, Control_c, 0, 64, 71
1, 933862, Control_c, 0, 64, 76
1, 933877, Control_c, 0, 64, 81
1, 933892, Control_c, 0, 64, 87
1, 933898, Note_on_c, 0, 79, 106
1, 933906, Control_c, 0, 64, 97
1, 933921, Control_c, 0, 64, 112
1, 933936, Control_c, 0, 64, 127
1, 933943, Note_off_c, 0, 79, 66
1, 933992, Note_off_c, 0, 59, 53
1, 934013, Note_on_c, 0, 74, 111
1, 934017, Note_on_c, 0, 58, 87
1, 934064, Note_off_c, 0, 74, 66
1, 934069, Note_off_c, 0, 58, 65
1, 934129, Note_on_c, 0, 76, 104
1, 934139, Note_on_c, 0, 59, 92
1, 934164, Note_off_c, 0, 59, 69
1, 934168, Note_off_c, 0, 76, 70
1, 934195, Control_c, 0, 64, 101
1, 934210, Control_c, 0, 64, 67
1, 934225, Control_c, 0, 64, 0
1, 934254, Note_on_c, 0, 73, 107
1, 934261, Note_on_c, 0, 69, 103
1, 934308, Note_off_c, 0, 69, 67
1, 934312, Control_c, 0, 64, 63
1, 934327, Control_c, 0, 64, 78
1, 934342, Control_c, 0, 64, 92
1, 934357, Control_c, 0, 64, 121
1, 934370, Note_on_c, 0, 67, 97
1, 934372, Control_c, 0, 64, 127
1, 934417, Note_off_c, 0, 67, 66
1, 934441, Note_off_c, 0, 73, 63
1, 934483, Note_on_c, 0, 62, 90
1, 934503, Note_on_c, 0, 78, 100
1, 934506, Note_off_c, 0, 62, 70
1, 934545, Note_off_c, 0, 78, 68
1, 934611, Note_on_c, 0, 77, 99
1, 934652, Note_off_c, 0, 77, 64
1, 934684, Control_c, 0, 64, 87
1, 934699, Control_c, 0, 64, 60
1, 934714, Control_c, 0, 64, 0
1, 934718, Note_on_c, 0, 58, 84
1, 934731, Note_on_c, 0, 66, 89
1, 934743, Control_c, 0, 64, 43
1, 934758, Control_c, 0, 64, 65
1, 934773, Control_c, 0, 64, 80
1, 934788, Control_c, 0, 64, 127
1, 934798, Note_off_c, 0, 58, 57
1, 934801, Note_on_c, 0, 70, 90
1, 934809, Note_off_c, 0, 66, 62
1, 934837, Note_on_c, 0, 46, 75
1, 934846, Note_off_c, 0, 70, 68
1, 934849, Poly_aftertouch_c, 0, 59, 0
1, 934887, Note_on_c, 0, 78, 57
1, 934887, Note_off_c, 0, 78, 127
1, 934905, Note_on_c, 0, 42, 57
1, 934905, Note_off_c, 0, 42, 127
1, 934911, Note_off_c, 0, 46, 63
1, 934914, Note_on_c, 0, 43, 67
1, 934938, Note_off_c, 0, 43, 62
1, 934955, Note_on_c, 0, 82, 95
1, 935012, Note_off_c, 0, 82, 62
1, 935028, Note_on_c, 0, 85, 94
1, 935084, Note_on_c, 0, 90, 96
1, 935106, Control_c, 0, 64, 75
1, 935109, Note_off_c, 0, 85, 63
1, 935121, Control_c, 0, 64, 0
1, 935132, Note_on_c, 0, 91, 54
1, 935157, Note_off_c, 0, 91, 57
1, 935168, Note_off_c, 0, 90, 58
1, 935178, Note_on_c, 0, 95, 101
1, 935183, Note_on_c, 0, 83, 99
1, 935184, Note_on_c, 0, 44, 99
1, 935185, Note_on_c, 0, 56, 109
1, 935226, Control_c, 0, 64, 61
1, 935240, Control_c, 0, 64, 111
1, 935255, Note_off_c, 0, 83, 62
1, 935255, Control_c, 0, 64, 127
1, 935263, Note_on_c, 0, 87, 94
1, 935266, Note_off_c, 0, 44, 67
1, 935292, Note_off_c, 0, 56, 58
1, 935293, Note_off_c, 0, 95, 65
1, 935301, Poly_aftertouch_c, 0, 57, 0
1, 935330, Note_on_c, 0, 83, 82
1, 935330, Note_off_c, 0, 87, 64
1, 935364, Note_off_c, 0, 83, 64
1, 935433, Note_on_c, 0, 83, 98
1, 935436, Note_on_c, 0, 71, 91
1, 935509, Note_on_c, 0, 75, 84
1, 935565, Note_off_c, 0, 75, 61
1, 935585, Note_off_c, 0, 71, 59
1, 935590, Note_on_c, 0, 70, 83
1, 935653, Note_off_c, 0, 83, 60
1, 935666, Note_on_c, 0, 65, 97
1, 935680, Note_on_c, 0, 78, 55
1, 935686, Note_on_c, 0, 77, 92
1, 935696, Note_off_c, 0, 65, 69
1, 935708, Note_off_c, 0, 78, 0
1, 935708, Note_on_c, 0, 78, 28
1, 935710, Note_off_c, 0, 70, 62
1, 935744, Note_off_c, 0, 78, 53
1, 935760, Note_on_c, 0, 75, 83
1, 935773, Note_off_c, 0, 77, 61
1, 935824, Note_off_c, 0, 75, 62
1, 935834, Note_on_c, 0, 70, 80
1, 935855, Control_c, 0, 64, 94
1, 935870, Control_c, 0, 64, 59
1, 935884, Control_c, 0, 64, 0
1, 935895, Note_off_c, 0, 70, 58
1, 935917, Note_on_c, 0, 78, 103
1, 935920, Note_on_c, 0, 46, 109
1, 935973, Control_c, 0, 64, 50
1, 935989, Control_c, 0, 64, 73
1, 936004, Control_c, 0, 64, 89
1, 936008, Note_on_c, 0, 71, 74
1, 936019, Control_c, 0, 64, 127
1, 936046, Note_off_c, 0, 78, 38
1, 936065, Note_off_c, 0, 46, 63
1, 936078, Control_c, 0, 64, 81
1, 936083, Note_on_c, 0, 66, 77
1, 936086, Note_off_c, 0, 71, 63
1, 936093, Control_c, 0, 64, 53
1, 936107, Control_c, 0, 64, 0
1, 936140, Note_off_c, 0, 66, 63
1, 936176, Note_on_c, 0, 79, 101
1, 936177, Note_on_c, 0, 47, 109
1, 936262, Note_on_c, 0, 74, 78
1, 936286, Control_c, 0, 64, 53
1, 936295, Note_off_c, 0, 47, 68
1, 936307, Control_c, 0, 64, 80
1, 936316, Note_off_c, 0, 79, 62
1, 936322, Control_c, 0, 64, 102
1, 936337, Control_c, 0, 64, 127
1, 936364, Note_on_c, 0, 66, 67
1, 936366, Note_off_c, 0, 74, 51
1, 936401, Note_off_c, 0, 66, 61
1, 936446, Note_on_c, 0, 79, 100
1, 936451, Note_on_c, 0, 67, 92
1, 936500, Note_off_c, 0, 67, 63
1, 936524, Note_on_c, 0, 74, 82
1, 936571, Note_off_c, 0, 74, 65
1, 936608, Note_on_c, 0, 66, 70
1, 936628, Note_off_c, 0, 79, 63
1, 936637, Note_off_c, 0, 66, 65
1, 936691, Note_on_c, 0, 62, 96
1, 936693, Note_on_c, 0, 74, 93
1, 936697, Note_on_c, 0, 72, 92
1, 936719, Note_off_c, 0, 62, 67
1, 936755, Note_on_c, 0, 70, 88
1, 936759, Note_off_c, 0, 74, 63
1, 936767, Note_off_c, 0, 72, 59
1, 936789, Note_on_c, 0, 71, 58
1, 936818, Note_off_c, 0, 70, 64
1, 936819, Note_off_c, 0, 71, 66
1, 936837, Note_on_c, 0, 66, 82
1, 936866, Note_off_c, 0, 66, 63
1, 936935, Note_on_c, 0, 79, 101
1, 936944, Poly_aftertouch_c, 0, 78, 0
1, 936952, Note_on_c, 0, 67, 70
1, 936974, Note_off_c, 0, 79, 71
1, 936975, Note_off_c, 0, 67, 69
1, 937061, Note_on_c, 0, 83, 103
1, 937067, Note_on_c, 0, 71, 69
1, 937087, Note_off_c, 0, 83, 70
1, 937088, Note_off_c, 0, 71, 67
1, 937159, Control_c, 0, 64, 84
1, 937174, Control_c, 0, 64, 48
1, 937189, Control_c, 0, 64, 0
1, 937197, Note_on_c, 0, 76, 103
1, 937212, Note_on_c, 0, 64, 70
1, 937285, Note_on_c, 0, 71, 69
1, 937320, Note_on_c, 0, 59, 64
1, 937323, Note_off_c, 0, 71, 64
1, 937323, Control_c, 0, 64, 39
1, 937327, Note_on_c, 0, 67, 70
1, 937338, Control_c, 0, 64, 62
1, 937353, Control_c, 0, 64, 68
1, 937361, Note_off_c, 0, 67, 65
1, 937364, Note_off_c, 0, 76, 66
1, 937368, Control_c, 0, 64, 72
1, 937382, Control_c, 0, 64, 74
1, 937397, Control_c, 0, 64, 77
1, 937411, Note_off_c, 0, 59, 52
1, 937412, Control_c, 0, 64, 80
1, 937418, Note_off_c, 0, 64, 53
1, 937427, Control_c, 0, 64, 84
1, 937433, Note_on_c, 0, 57, 69
1, 937436, Note_on_c, 0, 78, 91
1, 937442, Control_c, 0, 64, 89
1, 937456, Control_c, 0, 64, 93
1, 937471, Control_c, 0, 64, 98
1, 937486, Control_c, 0, 64, 103
1, 937501, Note_off_c, 0, 78, 63
1, 937501, Control_c, 0, 64, 110
1, 937516, Control_c, 0, 64, 126
1, 937543, Note_off_c, 0, 57, 59
1, 937544, Note_on_c, 0, 55, 75
1, 937552, Note_on_c, 0, 79, 94
1, 937576, Note_off_c, 0, 55, 63
1, 937591, Note_off_c, 0, 79, 68
1, 937668, Note_on_c, 0, 81, 96
1, 937673, Note_on_c, 0, 52, 88
1, 937719, Note_off_c, 0, 81, 67
1, 937741, Note_off_c, 0, 52, 59
1, 937773, Note_on_c, 0, 83, 108
1, 937775, Note_on_c, 0, 50, 76
1, 937780, Note_on_c, 0, 48, 73
1, 937821, Note_off_c, 0, 48, 61
1, 937835, Note_off_c, 0, 83, 67
1, 937852, Note_off_c, 0, 50, 63
1, 937886, Note_on_c, 0, 84, 104
1, 937893, Note_on_c, 0, 48, 81
1, 937938, Note_off_c, 0, 84, 68
1, 937946, Note_off_c, 0, 48, 67
1, 937959, Note_on_c, 0, 47, 91
1, 937988, Note_on_c, 0, 86, 109
1, 938000, Note_off_c, 0, 47, 63
1, 938017, Note_off_c, 0, 86, 68
1, 938116, Control_c, 0, 64, 85
1, 938131, Control_c, 0, 64, 55
1, 938135, Note_on_c, 0, 87, 112
1, 938142, Note_on_c, 0, 46, 85
1, 938146, Control_c, 0, 64, 0
1, 938219, Note_on_c, 0, 51, 85
1, 938262, Note_off_c, 0, 46, 65
1, 938265, Control_c, 0, 64, 61
1, 938277, Note_on_c, 0, 55, 77
1, 938279, Control_c, 0, 64, 75
1, 938294, Control_c, 0, 64, 88
1, 938309, Control_c, 0, 64, 116
1, 938316, Note_off_c, 0, 51, 62
1, 938323, Control_c, 0, 64, 127
1, 938337, Note_off_c, 0, 55, 64
1, 938350, Note_on_c, 0, 62, 83
1, 938358, Note_off_c, 0, 87, 62
1, 938385, Note_on_c, 0, 86, 103
1, 938417, Note_off_c, 0, 62, 62
1, 938457, Note_on_c, 0, 63, 84
1, 938482, Note_off_c, 0, 86, 61
1, 938486, Note_on_c, 0, 89, 100
1, 938521, Note_on_c, 0, 67, 91
1, 938523, Note_off_c, 0, 63, 63
1, 938572, Note_off_c, 0, 67, 68
1, 938625, Note_on_c, 0, 85, 101
1, 938629, Note_on_c, 0, 75, 97
1, 938646, Note_off_c, 0, 89, 62
1, 938658, Control_c, 0, 64, 71
1, 938673, Control_c, 0, 64, 0
1, 938874, Note_on_c, 0, 39, 96
1, 938875, Note_on_c, 0, 84, 94
1, 938903, Note_off_c, 0, 85, 60
1, 938909, Control_c, 0, 64, 55
1, 938924, Control_c, 0, 64, 68
1, 938939, Control_c, 0, 64, 73
1, 938954, Control_c, 0, 64, 81
1, 938968, Control_c, 0, 64, 92
1, 938983, Control_c, 0, 64, 111
1, 938992, Note_on_c, 0, 87, 96
1, 938992, Note_off_c, 0, 84, 66
1, 938998, Control_c, 0, 64, 127
1, 939043, Control_c, 0, 64, 116
1, 939058, Control_c, 0, 64, 94
1, 939073, Control_c, 0, 64, 75
1, 939088, Control_c, 0, 64, 58
1, 939102, Control_c, 0, 64, 0
1, 939109, Note_off_c, 0, 39, 57
1, 939116, Note_on_c, 0, 44, 93
1, 939126, Note_on_c, 0, 83, 96
1, 939151, Note_off_c, 0, 87, 62
1, 939189, Note_off_c, 0, 75, 53
1, 939222, Control_c, 0, 64, 59
1, 939237, Control_c, 0, 64, 78
1, 939251, Control_c, 0, 64, 95
1, 939266, Control_c, 0, 64, 127
1, 939347, Control_c, 0, 64, 80
1, 939362, Control_c, 0, 64, 54
1, 939377, Control_c, 0, 64, 0
1, 939379, Note_on_c, 0, 82, 96
1, 939379, Note_off_c, 0, 83, 59
1, 939382, Note_on_c, 0, 75, 98
1, 939387, Note_on_c, 0, 46, 89
1, 939415, Note_off_c, 0, 44, 60
1, 939446, Note_off_c, 0, 82, 61
1, 939451, Note_off_c, 0, 46, 65
1, 939451, Control_c, 0, 64, 53
1, 939466, Control_c, 0, 64, 68
1, 939481, Control_c, 0, 64, 79
1, 939490, Note_on_c, 0, 85, 88
1, 939496, Control_c, 0, 64, 106
1, 939511, Control_c, 0, 64, 127
1, 939525, Note_off_c, 0, 75, 63
1, 939574, Note_off_c, 0, 85, 63
1, 939599, Control_c, 0, 64, 116
1, 939614, Control_c, 0, 64, 70
1, 939621, Note_on_c, 0, 75, 101
1, 939623, Note_on_c, 0, 81, 95
1, 939627, Note_on_c, 0, 47, 92
1, 939629, Control_c, 0, 64, 0
1, 939688, Control_c, 0, 64, 43
1, 939703, Control_c, 0, 64, 69
1, 939718, Control_c, 0, 64, 91
1, 939722, Note_off_c, 0, 75, 62
1, 939732, Control_c, 0, 64, 127
1, 939763, Note_off_c, 0, 81, 52
1, 939851, Note_off_c, 0, 47, 58
1, 939875, Note_on_c, 0, 48, 79
1, 939882, Note_on_c, 0, 80, 98
1, 939925, Note_off_c, 0, 80, 68
1, 939931, Note_off_c, 0, 48, 65
1, 939964, Note_on_c, 0, 47, 73
1, 939976, Note_on_c, 0, 83, 96
1, 939989, Note_off_c, 0, 47, 71
1, 940011, Note_off_c, 0, 83, 68
1, 940096, Control_c, 0, 64, 80
1, 940111, Control_c, 0, 64, 39
1, 940122, Note_on_c, 0, 87, 103
1, 940126, Control_c, 0, 64, 0
1, 940128, Note_on_c, 0, 46, 86
1, 940129, Note_on_c, 0, 54, 3
1, 940157, Note_off_c, 0, 54, 36
1, 940196, Note_on_c, 0, 51, 82
1, 940205, Note_on_c, 0, 88, 69
1, 940214, Control_c, 0, 64, 43
1, 940229, Control_c, 0, 64, 74
1, 940244, Note_off_c, 0, 46, 62
1, 940244, Control_c, 0, 64, 108
1, 940257, Note_on_c, 0, 55, 74
1, 940260, Control_c, 0, 64, 127
1, 940292, Note_off_c, 0, 51, 62
1, 940295, Note_off_c, 0, 88, 64
1, 940304, Note_off_c, 0, 87, 59
1, 940316, Note_off_c, 0, 55, 63
1, 940319, Note_on_c, 0, 62, 87
1, 940371, Note_on_c, 0, 86, 102
1, 940394, Note_off_c, 0, 62, 62
1, 940426, Note_on_c, 0, 63, 89
1, 940468, Note_off_c, 0, 86, 62
1, 940474, Note_on_c, 0, 89, 101
1, 940499, Note_on_c, 0, 67, 90
1, 940505, Note_off_c, 0, 63, 63
1, 940542, Note_off_c, 0, 67, 68
1, 940608, Note_on_c, 0, 85, 106
1, 940611, Note_on_c, 0, 75, 99
1, 940629, Note_off_c, 0, 89, 63
1, 940630, Control_c, 0, 64, 68
1, 940645, Control_c, 0, 64, 0
1, 940858, Note_on_c, 0, 39, 91
1, 940861, Note_on_c, 0, 84, 92
1, 940876, Control_c, 0, 64, 47
1, 940891, Control_c, 0, 64, 65
1, 940898, Note_off_c, 0, 85, 62
1, 940905, Control_c, 0, 64, 69
1, 940920, Control_c, 0, 64, 75
1, 940935, Control_c, 0, 64, 85
1, 940949, Control_c, 0, 64, 99
1, 940964, Control_c, 0, 64, 127
1, 940973, Note_on_c, 0, 87, 96
1, 940978, Note_off_c, 0, 84, 64
1, 940981, Note_off_c, 0, 39, 60
1, 941052, Control_c, 0, 64, 95
1, 941067, Control_c, 0, 64, 69
1, 941082, Control_c, 0, 64, 0
1, 941095, Note_on_c, 0, 44, 92
1, 941096, Note_on_c, 0, 83, 95
1, 941120, Note_off_c, 0, 87, 63
1, 941144, Note_off_c, 0, 75, 54
1, 941171, Control_c, 0, 64, 61
1, 941186, Control_c, 0, 64, 78
1, 941201, Control_c, 0, 64, 109
1, 941216, Control_c, 0, 64, 127
1, 941304, Control_c, 0, 64, 76
1, 941319, Control_c, 0, 64, 39
1, 941334, Control_c, 0, 64, 0
1, 941335, Note_on_c, 0, 82, 89
1, 941335, Note_on_c, 0, 75, 89
1, 941341, Note_on_c, 0, 46, 91
1, 941341, Note_off_c, 0, 83, 61
1, 941347, Note_off_c, 0, 44, 57
1, 941378, Control_c, 0, 64, 45
1, 941389, Note_off_c, 0, 46, 66
1, 941389, Note_off_c, 0, 82, 64
1, 941393, Control_c, 0, 64, 66
1, 941408, Control_c, 0, 64, 79
1, 941422, Control_c, 0, 64, 127
1, 941440, Note_on_c, 0, 85, 91
1, 941469, Note_off_c, 0, 75, 62
1, 941508, Note_off_c, 0, 85, 65
1, 941548, Control_c, 0, 64, 99
1, 941563, Control_c, 0, 64, 61
1, 941579, Control_c, 0, 64, 0
1, 941582, Note_on_c, 0, 81, 97
1, 941585, Note_on_c, 0, 47, 81
1, 941588, Note_on_c, 0, 75, 90
1, 941624, Control_c, 0, 64, 32
1, 941639, Control_c, 0, 64, 66
1, 941645, Note_off_c, 0, 75, 64
1, 941653, Control_c, 0, 64, 88
1, 941668, Control_c, 0, 64, 127
1, 941767, Note_off_c, 0, 47, 56
1, 941813, Note_on_c, 0, 48, 54
1, 941813, Note_on_c, 0, 80, 82
1, 941833, Note_off_c, 0, 81, 56
1, 941863, Note_off_c, 0, 80, 66
1, 941871, Note_off_c, 0, 48, 62
1, 941923, Note_on_c, 0, 83, 84
1, 941946, Note_off_c, 0, 83, 67
1, 941949, Control_c, 0, 64, 119
1, 941964, Control_c, 0, 64, 79
1, 941979, Control_c, 0, 64, 57
1, 941994, Control_c, 0, 64, 0
1, 942024, Control_c, 0, 67, 22
1, 942039, Control_c, 0, 67, 25
1, 942043, Note_on_c, 0, 46, 45
1, 942053, Control_c, 0, 67, 30
1, 942068, Control_c, 0, 67, 39
1, 942071, Note_on_c, 0, 75, 72
1, 942083, Control_c, 0, 67, 49
1, 942097, Control_c, 0, 64, 40
1, 942097, Control_c, 0, 67, 60
1, 942102, Note_off_c, 0, 75, 66
1, 942110, Note_on_c, 0, 51, 52
1, 942112, Control_c, 0, 64, 61
1, 942112, Control_c, 0, 67, 70
1, 942127, Control_c, 0, 64, 48
1, 942127, Control_c, 0, 67, 79
1, 942141, Note_on_c, 0, 55, 59
1, 942142, Control_c, 0, 64, 0
1, 942142, Control_c, 0, 67, 84
1, 942157, Control_c, 0, 67, 87
1, 942164, Note_off_c, 0, 51, 58
1, 942168, Note_off_c, 0, 46, 56
1, 942171, Control_c, 0, 67, 89
1, 942173, Note_on_c, 0, 74, 76
1, 942186, Note_off_c, 0, 55, 61
1, 942186, Control_c, 0, 67, 90
1, 942195, Note_off_c, 0, 74, 69
1, 942201, Control_c, 0, 67, 92
1, 942216, Control_c, 0, 67, 93
1, 942231, Control_c, 0, 67, 95
1, 942260, Control_c, 0, 67, 97
1, 942304, Note_on_c, 0, 69, 70
1, 942312, Control_c, 0, 64, 40
1, 942313, Note_on_c, 0, 77, 65
1, 942327, Control_c, 0, 64, 55
1, 942342, Control_c, 0, 64, 58
1, 942345, Note_off_c, 0, 77, 61
1, 942417, Control_c, 0, 64, 57
1, 942432, Control_c, 0, 64, 55
1, 942434, Note_on_c, 0, 73, 62
1, 942447, Control_c, 0, 64, 51
1, 942462, Control_c, 0, 64, 46
1, 942464, Note_off_c, 0, 73, 67
1, 942476, Control_c, 0, 64, 37
1, 942491, Control_c, 0, 64, 0
1, 942532, Note_off_c, 0, 69, 37
1, 942549, Note_on_c, 0, 68, 75
1, 942552, Note_on_c, 0, 77, 71
1, 942596, Control_c, 0, 64, 43
1, 942596, Control_c, 0, 67, 95
1, 942602, Note_off_c, 0, 77, 59
1, 942610, Control_c, 0, 64, 56
1, 942610, Control_c, 0, 67, 94
1, 942625, Control_c, 0, 64, 61
1, 942625, Control_c, 0, 67, 94
1, 942640, Control_c, 0, 64, 64
1, 942655, Control_c, 0, 64, 65
1, 942670, Control_c, 0, 64, 67
1, 942671, Note_on_c, 0, 72, 72
1, 942684, Control_c, 0, 64, 69
1, 942684, Control_c, 0, 67, 94
1, 942696, Note_off_c, 0, 72, 68
1, 942699, Control_c, 0, 64, 71
1, 942714, Control_c, 0, 64, 72
1, 942743, Control_c, 0, 64, 69
1, 942758, Control_c, 0, 64, 62
1, 942773, Control_c, 0, 64, 45
1, 942778, Note_off_c, 0, 68, 64
1, 942788, Control_c, 0, 64, 0
1, 942796, Note_on_c, 0, 77, 81
1, 942800, Note_on_c, 0, 67, 74
1, 942802, Control_c, 0, 67, 93
1, 942817, Control_c, 0, 67, 92
1, 942832, Control_c, 0, 67, 91
1, 942844, Note_off_c, 0, 77, 61
1, 942847, Control_c, 0, 64, 34
1, 942847, Control_c, 0, 67, 90
1, 942862, Control_c, 0, 64, 51
1, 942862, Control_c, 0, 67, 89
1, 942876, Control_c, 0, 64, 62
1, 942891, Control_c, 0, 64, 67
1, 942906, Control_c, 0, 64, 69
1, 942909, Note_on_c, 0, 71, 84
1, 942921, Control_c, 0, 64, 71
1, 942921, Control_c, 0, 67, 89
1, 942934, Note_off_c, 0, 71, 65
1, 942936, Control_c, 0, 64, 71
1, 942966, Control_c, 0, 64, 67
1, 942981, Control_c, 0, 64, 55
1, 942995, Control_c, 0, 64, 0
1, 943025, Control_c, 0, 67, 89
1, 943027, Note_on_c, 0, 66, 79
1, 943031, Note_off_c, 0, 67, 47
1, 943036, Note_on_c, 0, 77, 93
1, 943047, Control_c, 0, 64, 36
1, 943047, Control_c, 0, 67, 87
1, 943062, Control_c, 0, 64, 60
1, 943062, Control_c, 0, 67, 85
1, 943076, Control_c, 0, 64, 70
1, 943076, Control_c, 0, 67, 84
1, 943088, Note_off_c, 0, 77, 65
1, 943091, Control_c, 0, 64, 75
1, 943103, Note_off_c, 0, 66, 64
1, 943106, Control_c, 0, 64, 74
1, 943121, Control_c, 0, 64, 64
1, 943136, Control_c, 0, 64, 0
1, 943147, Note_on_c, 0, 70, 95
1, 943149, Note_on_c, 0, 67, 85
1, 943151, Control_c, 0, 67, 83
1, 943166, Control_c, 0, 67, 82
1, 943175, Note_off_c, 0, 70, 70
1, 943201, Note_off_c, 0, 67, 65
1, 943255, Control_c, 0, 67, 80
1, 943268, Note_on_c, 0, 77, 95
1, 943270, Control_c, 0, 67, 79
1, 943271, Note_on_c, 0, 68, 95
1, 943285, Control_c, 0, 67, 77
1, 943300, Control_c, 0, 64, 50
1, 943300, Control_c, 0, 67, 72
1, 943310, Note_off_c, 0, 77, 70
1, 943315, Control_c, 0, 64, 69
1, 943315, Control_c, 0, 67, 66
1, 943329, Control_c, 0, 64, 77
1, 943329, Control_c, 0, 67, 58
1, 943344, Control_c, 0, 64, 84
1, 943344, Control_c, 0, 67, 54
1, 943359, Control_c, 0, 64, 86
1, 943359, Control_c, 0, 67, 53
1, 943374, Note_on_c, 0, 71, 99
1, 943374, Control_c, 0, 64, 87
1, 943374, Control_c, 0, 67, 52
1, 943389, Control_c, 0, 64, 88
1, 943404, Control_c, 0, 64, 86
1, 943404, Control_c, 0, 67, 52
1, 943413, Note_off_c, 0, 71, 67
1, 943418, Control_c, 0, 64, 76
1, 943418, Control_c, 0, 67, 51
1, 943433, Control_c, 0, 64, 52
1, 943433, Control_c, 0, 67, 50
1, 943448, Control_c, 0, 64, 0
1, 943448, Control_c, 0, 67, 44
1, 943463, Control_c, 0, 67, 31
1, 943478, Control_c, 0, 67, 0
1, 943491, Note_off_c, 0, 68, 66
1, 943505, Note_on_c, 0, 77, 104
1, 943508, Note_on_c, 0, 69, 95
1, 943522, Control_c, 0, 64, 40
1, 943537, Control_c, 0, 64, 70
1, 943551, Note_off_c, 0, 69, 64
1, 943551, Control_c, 0, 64, 87
1, 943563, Note_off_c, 0, 77, 65
1, 943566, Control_c, 0, 64, 127
1, 943606, Note_on_c, 0, 72, 95
1, 943637, Note_off_c, 0, 72, 69
1, 943669, Control_c, 0, 64, 114
1, 943684, Control_c, 0, 64, 71
1, 943699, Control_c, 0, 64, 36
1, 943714, Control_c, 0, 64, 0
1, 943758, Note_on_c, 0, 70, 105
1, 943759, Control_c, 0, 64, 55
1, 943765, Note_on_c, 0, 78, 109
1, 943774, Control_c, 0, 64, 67
1, 943796, Control_c, 0, 64, 75
1, 943800, Note_off_c, 0, 70, 69
1, 943809, Note_on_c, 0, 68, 30
1, 943809, Note_off_c, 0, 68, 127
1, 943811, Control_c, 0, 64, 85
1, 943825, Control_c, 0, 64, 96
1, 943840, Control_c, 0, 64, 127
1, 943944, Control_c, 0, 64, 118
1, 943958, Control_c, 0, 64, 71
1, 943969, Note_off_c, 0, 78, 60
1, 943974, Control_c, 0, 64, 0
1, 944033, Note_on_c, 0, 47, 103
1, 944035, Note_on_c, 0, 35, 98
1, 944035, Note_on_c, 0, 83, 105
1, 944093, Control_c, 0, 64, 66
1, 944108, Control_c, 0, 64, 97
1, 944116, Note_off_c, 0, 35, 63
1, 944122, Control_c, 0, 64, 127
1, 944134, Note_off_c, 0, 47, 67
1, 944136, Note_on_c, 0, 75, 76
1, 944180, Note_off_c, 0, 75, 64
1, 944217, Note_on_c, 0, 70, 86
1, 944232, Note_off_c, 0, 83, 67
1, 944254, Note_off_c, 0, 70, 62
1, 944300, Note_on_c, 0, 71, 102
1, 944304, Note_on_c, 0, 83, 109
1, 944329, Note_off_c, 0, 71, 70
1, 944401, Note_on_c, 0, 75, 79
1, 944431, Note_off_c, 0, 75, 64
1, 944477, Note_on_c, 0, 70, 74
1, 944515, Note_off_c, 0, 83, 57
1, 944522, Note_off_c, 0, 70, 63
1, 944554, Note_on_c, 0, 77, 97
1, 944557, Note_on_c, 0, 65, 104
1, 944635, Note_off_c, 0, 65, 41
1, 944644, Note_on_c, 0, 75, 88
1, 944674, Note_off_c, 0, 77, 62
1, 944705, Note_off_c, 0, 75, 63
1, 944723, Note_on_c, 0, 70, 78
1, 944793, Note_off_c, 0, 70, 59
1, 944806, Note_on_c, 0, 78, 109
1, 944812, Note_on_c, 0, 66, 109
1, 944841, Note_off_c, 0, 66, 70
1, 944886, Note_on_c, 0, 75, 91
1, 944918, Note_off_c, 0, 78, 63
1, 944936, Note_off_c, 0, 75, 66
1, 944960, Note_on_c, 0, 70, 82
1, 945006, Note_off_c, 0, 70, 65
1, 945035, Control_c, 0, 64, 86
1, 945049, Control_c, 0, 64, 60
1, 945064, Note_on_c, 0, 79, 112
1, 945064, Control_c, 0, 64, 0
1, 945072, Note_on_c, 0, 67, 112
1, 945141, Note_on_c, 0, 74, 88
1, 945153, Control_c, 0, 64, 55
1, 945168, Control_c, 0, 64, 73
1, 945183, Control_c, 0, 64, 92
1, 945197, Control_c, 0, 64, 127
1, 945210, Note_off_c, 0, 79, 62
1, 945210, Note_on_c, 0, 71, 77
1, 945212, Note_off_c, 0, 67, 64
1, 945235, Note_off_c, 0, 74, 61
1, 945270, Note_off_c, 0, 71, 64
1, 945323, Note_on_c, 0, 79, 103
1, 945327, Note_on_c, 0, 67, 103
1, 945366, Note_off_c, 0, 67, 71
1, 945384, Note_on_c, 0, 74, 89
1, 945447, Note_off_c, 0, 74, 61
1, 945467, Note_on_c, 0, 71, 68
1, 945470, Note_off_c, 0, 79, 65
1, 945499, Note_off_c, 0, 71, 65
1, 945545, Control_c, 0, 64, 104
1, 945558, Note_on_c, 0, 74, 108
1, 945560, Control_c, 0, 64, 68
1, 945576, Control_c, 0, 64, 0
1, 945580, Note_on_c, 0, 62, 99
1, 945628, Note_on_c, 0, 71, 88
1, 945635, Control_c, 0, 64, 52
1, 945650, Control_c, 0, 64, 68
1, 945665, Control_c, 0, 64, 82
1, 945680, Control_c, 0, 64, 127
1, 945692, Note_on_c, 0, 67, 80
1, 945696, Note_off_c, 0, 74, 61
1, 945702, Note_off_c, 0, 71, 60
1, 945720, Note_on_c, 0, 73, 46
1, 945746, Note_off_c, 0, 73, 57
1, 945748, Note_off_c, 0, 67, 64
1, 945752, Note_off_c, 0, 62, 59
1, 945817, Note_on_c, 0, 64, 81
1, 945818, Note_on_c, 0, 76, 106
1, 945860, Note_off_c, 0, 76, 63
1, 945863, Note_off_c, 0, 64, 62
1, 945917, Control_c, 0, 64, 114
1, 945929, Note_on_c, 0, 77, 100
1, 945932, Control_c, 0, 64, 78
1, 945943, Note_on_c, 0, 62, 94
1, 945946, Control_c, 0, 64, 55
1, 945961, Control_c, 0, 64, 0
1, 945977, Note_off_c, 0, 77, 67
1, 945986, Note_off_c, 0, 62, 64
1, 946067, Note_on_c, 0, 73, 109
1, 946073, Note_on_c, 0, 61, 101
1, 946102, Control_c, 0, 64, 41
1, 946117, Control_c, 0, 64, 70
1, 946132, Control_c, 0, 64, 88
1, 946135, Note_on_c, 0, 68, 90
1, 946146, Control_c, 0, 64, 127
1, 946164, Note_off_c, 0, 73, 61
1, 946191, Note_off_c, 0, 68, 67
1, 946196, Note_on_c, 0, 65, 87
1, 946202, Note_on_c, 0, 73, 66
1, 946231, Note_off_c, 0, 65, 60
1, 946231, Note_off_c, 0, 73, 65
1, 946286, Note_off_c, 0, 61, 58
1, 946316, Note_on_c, 0, 62, 85
1, 946316, Note_on_c, 0, 71, 98
1, 946364, Note_off_c, 0, 62, 62
1, 946364, Note_off_c, 0, 71, 66
1, 946399, Control_c, 0, 64, 107
1, 946414, Control_c, 0, 64, 86
1, 946429, Note_on_c, 0, 73, 100
1, 946429, Control_c, 0, 64, 65
1, 946433, Note_on_c, 0, 61, 85
1, 946443, Control_c, 0, 64, 37
1, 946458, Control_c, 0, 64, 0
1, 946468, Note_off_c, 0, 73, 70
1, 946481, Note_off_c, 0, 61, 63
1, 946553, Note_on_c, 0, 81, 110
1, 946555, Note_on_c, 0, 59, 97
1, 946576, Control_c, 0, 64, 45
1, 946591, Control_c, 0, 64, 68
1, 946606, Control_c, 0, 64, 74
1, 946607, Note_off_c, 0, 81, 68
1, 946621, Control_c, 0, 64, 81
1, 946635, Control_c, 0, 64, 84
1, 946650, Control_c, 0, 64, 89
1, 946665, Note_on_c, 0, 79, 105
1, 946665, Control_c, 0, 64, 97
1, 946680, Control_c, 0, 64, 111
1, 946695, Control_c, 0, 64, 127
1, 946705, Note_off_c, 0, 79, 67
1, 946726, Note_off_c, 0, 59, 60
1, 946781, Note_on_c, 0, 58, 91
1, 946790, Note_on_c, 0, 74, 104
1, 946829, Note_off_c, 0, 58, 66
1, 946829, Note_off_c, 0, 74, 70
1, 946898, Note_on_c, 0, 76, 103
1, 946908, Note_on_c, 0, 60, 92
1, 946915, Note_on_c, 0, 59, 67
1, 946924, Control_c, 0, 64, 83
1, 946927, Note_off_c, 0, 60, 72
1, 946930, Note_off_c, 0, 59, 68
1, 946939, Control_c, 0, 64, 55
1, 946941, Note_off_c, 0, 76, 69
1, 946954, Control_c, 0, 64, 0
1, 947022, Note_on_c, 0, 73, 102
1, 947028, Note_on_c, 0, 69, 99
1, 947073, Control_c, 0, 64, 63
1, 947079, Note_off_c, 0, 69, 67
1, 947087, Control_c, 0, 64, 87
1, 947102, Control_c, 0, 64, 98
1, 947117, Control_c, 0, 64, 100
1, 947140, Note_on_c, 0, 67, 94
1, 947147, Control_c, 0, 64, 113
1, 947158, Note_on_c, 0, 65, 68
1, 947158, Note_off_c, 0, 65, 127
1, 947162, Control_c, 0, 64, 127
1, 947193, Note_off_c, 0, 67, 67
1, 947201, Note_off_c, 0, 73, 61
1, 947255, Note_on_c, 0, 62, 95
1, 947266, Note_on_c, 0, 78, 97
1, 947285, Note_off_c, 0, 62, 65
1, 947309, Note_off_c, 0, 78, 68
1, 947374, Note_on_c, 0, 77, 95
1, 947384, Control_c, 0, 64, 103
1, 947399, Control_c, 0, 64, 67
1, 947414, Control_c, 0, 64, 0
1, 947416, Note_off_c, 0, 77, 66
1, 947475, Note_on_c, 0, 66, 87
1, 947485, Note_on_c, 0, 58, 72
1, 947518, Control_c, 0, 64, 39
1, 947521, Note_off_c, 0, 66, 65
1, 947540, Control_c, 0, 64, 67
1, 947552, Note_off_c, 0, 58, 55
1, 947555, Control_c, 0, 64, 72
1, 947558, Note_on_c, 0, 70, 82
1, 947570, Control_c, 0, 64, 74
1, 947571, Note_off_c, 0, 70, 71
1, 947603, Note_on_c, 0, 49, 72
1, 947629, Control_c, 0, 64, 75
1, 947641, Note_on_c, 0, 78, 91
1, 947643, Control_c, 0, 64, 74
1, 947658, Note_off_c, 0, 49, 65
1, 947658, Control_c, 0, 64, 72
1, 947666, Note_on_c, 0, 46, 50
1, 947673, Control_c, 0, 64, 63
1, 947684, Note_off_c, 0, 78, 64
1, 947688, Control_c, 0, 64, 46
1, 947699, Note_off_c, 0, 46, 66
1, 947703, Control_c, 0, 64, 0
1, 947721, Note_on_c, 0, 84, 101
1, 947732, Control_c, 0, 64, 46
1, 947735, Note_on_c, 0, 85, 45
1, 947735, Note_off_c, 0, 85, 127
1, 947741, Note_on_c, 0, 49, 83
1, 947748, Control_c, 0, 64, 66
1, 947763, Control_c, 0, 64, 81
1, 947778, Control_c, 0, 64, 127
1, 947786, Note_off_c, 0, 49, 61
1, 947813, Note_on_c, 0, 42, 87
1, 947840, Note_on_c, 0, 41, 57
1, 947848, Note_on_c, 0, 85, 78
1, 947863, Note_off_c, 0, 42, 64
1, 947867, Note_off_c, 0, 41, 55
1, 947872, Note_off_c, 0, 84, 62
1, 947881, Control_c, 0, 64, 95
1, 947896, Control_c, 0, 64, 62
1, 947911, Control_c, 0, 64, 0
1, 947935, Note_on_c, 0, 43, 88
1, 947940, Note_on_c, 0, 45, 86
1, 948012, Note_on_c, 0, 49, 80
1, 948013, Note_off_c, 0, 45, 63
1, 948015, Control_c, 0, 64, 51
1, 948024, Note_off_c, 0, 43, 63
1, 948030, Control_c, 0, 64, 77
1, 948045, Control_c, 0, 64, 86
1, 948060, Control_c, 0, 64, 97
1, 948067, Note_off_c, 0, 85, 60
1, 948087, Note_on_c, 0, 53, 78
1, 948090, Control_c, 0, 64, 103
1, 948101, Note_off_c, 0, 49, 64
1, 948105, Control_c, 0, 64, 107
1, 948139, Note_off_c, 0, 53, 63
1, 948149, Control_c, 0, 64, 93
1, 948164, Control_c, 0, 64, 74
1, 948166, Note_on_c, 0, 59, 70
1, 948179, Control_c, 0, 64, 56
1, 948190, Note_on_c, 0, 84, 85
1, 948194, Control_c, 0, 64, 0
1, 948195, Note_on_c, 0, 75, 88
1, 948197, Note_off_c, 0, 59, 67
1, 948209, Control_c, 0, 64, 41
1, 948223, Control_c, 0, 64, 62
1, 948238, Control_c, 0, 64, 77
1, 948253, Control_c, 0, 64, 107
1, 948257, Note_off_c, 0, 75, 57
1, 948261, Note_on_c, 0, 55, 75
1, 948267, Control_c, 0, 64, 127
1, 948293, Note_off_c, 0, 84, 62
1, 948298, Note_on_c, 0, 87, 98
1, 948330, Note_off_c, 0, 55, 58
1, 948341, Note_on_c, 0, 65, 70
1, 948348, Note_off_c, 0, 87, 67
1, 948409, Control_c, 0, 64, 98
1, 948423, Control_c, 0, 64, 72
1, 948433, Note_on_c, 0, 73, 101
1, 948438, Control_c, 0, 64, 64
1, 948440, Note_on_c, 0, 79, 105
1, 948442, Note_on_c, 0, 83, 106
1, 948444, Note_off_c, 0, 65, 60
1, 948453, Control_c, 0, 64, 66
1, 948463, Note_off_c, 0, 73, 69
1, 948467, Control_c, 0, 64, 74
1, 948482, Control_c, 0, 64, 87
1, 948497, Control_c, 0, 64, 126
1, 948564, Note_off_c, 0, 83, 61
1, 948615, Control_c, 0, 64, 94
1, 948630, Control_c, 0, 64, 73
1, 948645, Control_c, 0, 64, 53
1, 948659, Control_c, 0, 64, 0
1, 948679, Note_on_c, 0, 74, 80
1, 948686, Note_on_c, 0, 82, 77
1, 948704, Note_on_c, 0, 37, 85
1, 948740, Note_off_c, 0, 74, 61
1, 948773, Note_off_c, 0, 79, 61
1, 948779, Control_c, 0, 64, 49
1, 948786, Note_off_c, 0, 82, 60
1, 948794, Control_c, 0, 64, 62
1, 948807, Note_on_c, 0, 85, 73
1, 948809, Control_c, 0, 64, 69
1, 948816, Note_on_c, 0, 76, 77
1, 948824, Control_c, 0, 64, 77
1, 948836, Note_off_c, 0, 37, 56
1, 948838, Control_c, 0, 64, 82
1, 948853, Control_c, 0, 64, 83
1, 948859, Note_off_c, 0, 85, 64
1, 948868, Control_c, 0, 64, 82
1, 948883, Control_c, 0, 64, 77
1, 948888, Note_off_c, 0, 76, 58
1, 948898, Control_c, 0, 64, 68
1, 948913, Control_c, 0, 64, 51
1, 948928, Control_c, 0, 64, 0
1, 948941, Note_on_c, 0, 42, 92
1, 948945, Note_on_c, 0, 81, 88
1, 948948, Note_on_c, 0, 77, 77
1, 949038, Control_c, 0, 64, 49
1, 949053, Control_c, 0, 64, 65
1, 949068, Control_c, 0, 64, 73
1, 949083, Control_c, 0, 64, 83
1, 949085, Note_off_c, 0, 42, 64
1, 949098, Control_c, 0, 64, 93
1, 949112, Control_c, 0, 64, 99
1, 949142, Control_c, 0, 64, 92
1, 949144, Note_off_c, 0, 81, 59
1, 949157, Control_c, 0, 64, 74
1, 949172, Control_c, 0, 64, 54
1, 949187, Control_c, 0, 64, 0
1, 949194, Note_on_c, 0, 80, 76
1, 949195, Note_on_c, 0, 44, 90
1, 949195, Note_off_c, 0, 77, 57
1, 949197, Note_on_c, 0, 71, 78
1, 949259, Control_c, 0, 64, 49
1, 949269, Note_off_c, 0, 44, 64
1, 949274, Control_c, 0, 64, 65
1, 949287, Note_off_c, 0, 80, 60
1, 949288, Control_c, 0, 64, 75
1, 949303, Control_c, 0, 64, 93
1, 949318, Note_on_c, 0, 83, 84
1, 949318, Control_c, 0, 64, 127
1, 949393, Control_c, 0, 64, 101
1, 949395, Note_off_c, 0, 71, 57
1, 949407, Control_c, 0, 64, 66
1, 949422, Control_c, 0, 64, 38
1, 949434, Note_on_c, 0, 45, 85
1, 949436, Note_on_c, 0, 75, 92
1, 949437, Control_c, 0, 64, 0
1, 949440, Note_on_c, 0, 79, 87
1, 949452, Control_c, 0, 64, 45
1, 949452, Note_off_c, 0, 83, 59
1, 949467, Control_c, 0, 64, 60
1, 949481, Control_c, 0, 64, 71
1, 949496, Control_c, 0, 64, 82
1, 949507, Note_off_c, 0, 75, 66
1, 949507, Note_off_c, 0, 79, 66
1, 949511, Control_c, 0, 64, 104
1, 949526, Control_c, 0, 64, 127
1, 949542, Note_off_c, 0, 45, 55
1, 949548, Note_on_c, 0, 46, 93
1, 949634, Note_off_c, 0, 46, 64
1, 949667, Note_on_c, 0, 74, 94
1, 949668, Note_on_c, 0, 45, 80
1, 949670, Note_on_c, 0, 78, 85
1, 949682, Note_on_c, 0, 77, 89
1, 949712, Note_off_c, 0, 74, 66
1, 949712, Note_off_c, 0, 78, 38
1, 949718, Note_off_c, 0, 77, 59
1, 949768, Note_on_c, 0, 42, 96
1, 949769, Note_off_c, 0, 45, 63
1, 949790, Note_on_c, 0, 81, 96
1, 949795, Note_on_c, 0, 83, 79
1, 949809, Note_off_c, 0, 83, 68
1, 949813, Note_off_c, 0, 42, 66
1, 949824, Note_off_c, 0, 81, 67
1, 949875, Control_c, 0, 64, 84
1, 949890, Control_c, 0, 64, 51
1, 949905, Control_c, 0, 64, 0
1, 949915, Note_on_c, 0, 85, 107
1, 949923, Note_on_c, 0, 43, 87
1, 949992, Note_on_c, 0, 49, 87
1, 950009, Control_c, 0, 64, 51
1, 950021, Note_off_c, 0, 43, 62
1, 950024, Control_c, 0, 64, 77
1, 950038, Control_c, 0, 64, 98
1, 950052, Note_on_c, 0, 53, 75
1, 950053, Control_c, 0, 64, 127
1, 950075, Note_off_c, 0, 85, 64
1, 950075, Note_off_c, 0, 49, 64
1, 950129, Note_off_c, 0, 53, 62
1, 950137, Note_on_c, 0, 60, 76
1, 950142, Note_on_c, 0, 59, 66
1, 950157, Note_on_c, 0, 84, 100
1, 950162, Note_on_c, 0, 75, 86
1, 950162, Note_off_c, 0, 60, 63
1, 950168, Note_off_c, 0, 59, 69
1, 950171, Control_c, 0, 64, 95
1, 950186, Control_c, 0, 64, 79
1, 950201, Control_c, 0, 64, 77
1, 950215, Note_off_c, 0, 75, 61
1, 950216, Control_c, 0, 64, 81
1, 950231, Control_c, 0, 64, 88
1, 950233, Note_on_c, 0, 55, 90
1, 950243, Note_off_c, 0, 84, 60
1, 950245, Control_c, 0, 64, 97
1, 950260, Note_on_c, 0, 87, 100
1, 950260, Control_c, 0, 64, 107
1, 950275, Control_c, 0, 64, 118
1, 950290, Control_c, 0, 64, 127
1, 950293, Note_off_c, 0, 55, 62
1, 950300, Note_off_c, 0, 87, 68
1, 950306, Note_on_c, 0, 65, 84
1, 950335, Control_c, 0, 64, 116
1, 950344, Note_on_c, 0, 86, 16
1, 950349, Control_c, 0, 64, 86
1, 950365, Control_c, 0, 64, 67
1, 950378, Note_off_c, 0, 86, 44
1, 950380, Control_c, 0, 64, 53
1, 950393, Note_on_c, 0, 83, 107
1, 950394, Note_on_c, 0, 73, 100
1, 950395, Note_on_c, 0, 79, 100
1, 950395, Control_c, 0, 64, 55
1, 950404, Note_off_c, 0, 65, 62
1, 950409, Control_c, 0, 64, 68
1, 950421, Note_off_c, 0, 73, 69
1, 950424, Control_c, 0, 64, 89
1, 950439, Control_c, 0, 64, 127
1, 950525, Note_off_c, 0, 83, 61
1, 950565, Control_c, 0, 64, 102
1, 950580, Control_c, 0, 64, 73
1, 950595, Control_c, 0, 64, 48
1, 950609, Control_c, 0, 64, 0
1, 950642, Note_on_c, 0, 74, 84
1, 950646, Note_on_c, 0, 82, 96
1, 950649, Note_on_c, 0, 37, 94
1, 950688, Note_off_c, 0, 79, 61
1, 950705, Note_off_c, 0, 74, 61
1, 950713, Control_c, 0, 64, 62
1, 950728, Control_c, 0, 64, 75
1, 950737, Note_off_c, 0, 82, 64
1, 950743, Control_c, 0, 64, 95
1, 950758, Control_c, 0, 64, 127
1, 950761, Note_on_c, 0, 85, 98
1, 950765, Note_on_c, 0, 76, 93
1, 950817, Note_off_c, 0, 85, 66
1, 950829, Note_off_c, 0, 76, 60
1, 950832, Control_c, 0, 64, 101
1, 950847, Control_c, 0, 64, 70
1, 950854, Note_off_c, 0, 37, 58
1, 950861, Control_c, 0, 64, 32
1, 950876, Control_c, 0, 64, 0
1, 950880, Note_on_c, 0, 42, 98
1, 950887, Note_on_c, 0, 77, 91
1, 950888, Note_on_c, 0, 81, 99
1, 950950, Control_c, 0, 64, 46
1, 950965, Control_c, 0, 64, 70
1, 950979, Control_c, 0, 64, 88
1, 950994, Control_c, 0, 64, 127
1, 951083, Control_c, 0, 64, 93
1, 951091, Note_off_c, 0, 81, 60
1, 951098, Control_c, 0, 64, 62
1, 951113, Control_c, 0, 64, 0
1, 951131, Note_on_c, 0, 44, 101
1, 951139, Note_on_c, 0, 80, 95
1, 951140, Note_on_c, 0, 71, 92
1, 951150, Note_off_c, 0, 77, 43
1, 951168, Note_off_c, 0, 44, 68
1, 951173, Control_c, 0, 64, 57
1, 951188, Control_c, 0, 64, 74
1, 951203, Control_c, 0, 64, 127
1, 951208, Note_off_c, 0, 42, 23
1, 951231, Note_off_c, 0, 80, 55
1, 951248, Note_on_c, 0, 83, 100
1, 951329, Control_c, 0, 64, 75
1, 951344, Control_c, 0, 64, 40
1, 951358, Control_c, 0, 64, 0
1, 951370, Note_on_c, 0, 45, 104
1, 951372, Note_on_c, 0, 79, 104
1, 951375, Note_on_c, 0, 75, 97
1, 951393, Note_off_c, 0, 83, 63
1, 951402, Note_off_c, 0, 71, 0
1, 951402, Note_on_c, 0, 71, 10
1, 951403, Control_c, 0, 64, 40
1, 951411, Note_off_c, 0, 75, 68
1, 951411, Note_off_c, 0, 79, 69
1, 951412, Note_off_c, 0, 45, 67
1, 951417, Control_c, 0, 64, 68
1, 951426, Note_off_c, 0, 71, 24
1, 951432, Control_c, 0, 64, 94
1, 951447, Control_c, 0, 64, 127
1, 951551, Control_c, 0, 64, 92
1, 951565, Control_c, 0, 64, 61
1, 951580, Control_c, 0, 64, 0
1, 951614, Note_on_c, 0, 46, 95
1, 951619, Note_on_c, 0, 78, 106
1, 951669, Control_c, 0, 64, 52
1, 951683, Control_c, 0, 64, 83
1, 951697, Note_on_c, 0, 66, 87
1, 951698, Control_c, 0, 64, 127
1, 951706, Note_off_c, 0, 78, 67
1, 951722, Note_off_c, 0, 66, 65
1, 951751, Note_on_c, 0, 54, 94
1, 951757, Control_c, 0, 64, 79
1, 951772, Control_c, 0, 64, 50
1, 951787, Control_c, 0, 64, 0
1, 951789, Note_off_c, 0, 46, 66
1, 951797, Note_off_c, 0, 54, 66
1, 951864, Note_on_c, 0, 47, 94
1, 951865, Note_on_c, 0, 83, 106
1, 951876, Control_c, 0, 64, 30
1, 951891, Control_c, 0, 64, 68
1, 951906, Control_c, 0, 64, 85
1, 951920, Control_c, 0, 64, 127
1, 951949, Note_on_c, 0, 69, 68
1, 951955, Note_on_c, 0, 71, 74
1, 951961, Note_off_c, 0, 83, 67
1, 951969, Note_off_c, 0, 69, 66
1, 951974, Note_off_c, 0, 71, 68
1, 951980, Control_c, 0, 64, 109
1, 951995, Control_c, 0, 64, 67
1, 952010, Control_c, 0, 64, 0
1, 952013, Note_on_c, 0, 59, 89
1, 952056, Note_off_c, 0, 47, 63
1, 952071, Note_off_c, 0, 59, 64
1, 952107, Control_c, 0, 64, 43
1, 952118, Note_on_c, 0, 83, 90
1, 952121, Control_c, 0, 64, 68
1, 952133, Note_on_c, 0, 47, 88
1, 952136, Control_c, 0, 64, 80
1, 952138, Note_on_c, 0, 84, 48
1, 952138, Note_off_c, 0, 84, 127
1, 952151, Control_c, 0, 64, 95
1, 952166, Control_c, 0, 64, 104
1, 952180, Control_c, 0, 64, 116
1, 952184, Note_on_c, 0, 71, 89
1, 952195, Control_c, 0, 64, 127
1, 952206, Note_off_c, 0, 83, 60
1, 952210, Note_off_c, 0, 71, 67
1, 952258, Note_on_c, 0, 59, 82
1, 952269, Control_c, 0, 64, 91
1, 952280, Note_off_c, 0, 47, 63
1, 952284, Control_c, 0, 64, 63
1, 952299, Control_c, 0, 64, 0
1, 952307, Note_off_c, 0, 59, 63
1, 952357, Note_on_c, 0, 77, 95
1, 952371, Note_on_c, 0, 41, 90
1, 952388, Control_c, 0, 64, 64
1, 952403, Control_c, 0, 64, 82
1, 952417, Note_off_c, 0, 77, 58
1, 952418, Control_c, 0, 64, 95
1, 952421, Note_on_c, 0, 65, 86
1, 952447, Control_c, 0, 64, 88
1, 952462, Control_c, 0, 64, 72
1, 952466, Note_off_c, 0, 65, 64
1, 952469, Note_on_c, 0, 75, 11
1, 952477, Control_c, 0, 64, 50
1, 952492, Control_c, 0, 64, 0
1, 952507, Note_off_c, 0, 75, 41
1, 952508, Note_on_c, 0, 53, 77
1, 952548, Note_off_c, 0, 41, 62
1, 952557, Note_off_c, 0, 53, 62
1, 952586, Note_on_c, 0, 78, 91
1, 952599, Note_on_c, 0, 42, 90
1, 952610, Control_c, 0, 64, 63
1, 952624, Control_c, 0, 64, 75
1, 952639, Control_c, 0, 64, 78
1, 952640, Note_off_c, 0, 78, 68
1, 952654, Control_c, 0, 64, 79
1, 952664, Note_on_c, 0, 66, 79
1, 952684, Control_c, 0, 64, 78
1, 952687, Note_off_c, 0, 66, 69
1, 952698, Control_c, 0, 64, 67
1, 952713, Control_c, 0, 64, 52
1, 952728, Note_on_c, 0, 54, 84
1, 952728, Control_c, 0, 64, 0
1, 952768, Note_off_c, 0, 42, 63
1, 952782, Note_off_c, 0, 54, 62
1, 952839, Note_on_c, 0, 79, 99
1, 952839, Note_on_c, 0, 43, 91
1, 952855, Control_c, 0, 64, 43
1, 952870, Control_c, 0, 64, 67
1, 952885, Control_c, 0, 64, 75
1, 952900, Control_c, 0, 64, 79
1, 952915, Note_on_c, 0, 67, 80
1, 952924, Note_off_c, 0, 79, 62
1, 952941, Note_off_c, 0, 67, 67
1, 952944, Control_c, 0, 64, 76
1, 952959, Control_c, 0, 64, 67
1, 952967, Note_on_c, 0, 55, 74
1, 952974, Control_c, 0, 64, 46
1, 952989, Control_c, 0, 64, 0
1, 952991, Note_off_c, 0, 43, 63
1, 953023, Note_off_c, 0, 55, 63
1, 953074, Note_on_c, 0, 43, 92
1, 953078, Control_c, 0, 64, 33
1, 953080, Note_on_c, 0, 79, 99
1, 953093, Control_c, 0, 64, 69
1, 953108, Control_c, 0, 64, 97
1, 953123, Control_c, 0, 64, 127
1, 953143, Note_on_c, 0, 67, 84
1, 953152, Note_off_c, 0, 79, 63
1, 953188, Note_off_c, 0, 67, 61
1, 953196, Control_c, 0, 64, 96
1, 953199, Note_on_c, 0, 55, 83
1, 953201, Note_off_c, 0, 43, 61
1, 953211, Control_c, 0, 64, 68
1, 953226, Control_c, 0, 64, 0
1, 953253, Note_off_c, 0, 55, 65
1, 953316, Note_on_c, 0, 74, 97
1, 953321, Note_on_c, 0, 38, 85
1, 953345, Control_c, 0, 64, 36
1, 953360, Control_c, 0, 64, 71
1, 953374, Note_off_c, 0, 74, 61
1, 953374, Control_c, 0, 64, 95
1, 953383, Note_on_c, 0, 62, 78
1, 953389, Control_c, 0, 64, 101
1, 953404, Control_c, 0, 64, 78
1, 953419, Control_c, 0, 64, 60
1, 953434, Control_c, 0, 64, 53
1, 953437, Note_off_c, 0, 62, 63
1, 953447, Note_on_c, 0, 50, 72
1, 953448, Control_c, 0, 64, 60
1, 953463, Control_c, 0, 64, 64
1, 953478, Control_c, 0, 64, 58
1, 953493, Control_c, 0, 64, 0
1, 953498, Note_off_c, 0, 38, 62
1, 953498, Note_off_c, 0, 50, 60
1, 953578, Note_on_c, 0, 64, 79
1, 953583, Note_on_c, 0, 40, 72
1, 953617, Note_off_c, 0, 40, 65
1, 953617, Note_off_c, 0, 64, 65
1, 953694, Note_on_c, 0, 65, 92
1, 953700, Note_on_c, 0, 41, 74
1, 953724, Note_off_c, 0, 41, 65
1, 953742, Note_off_c, 0, 65, 61
1, 953809, Note_on_c, 0, 37, 96
1, 953809, Note_on_c, 0, 61, 93
1, 953827, Control_c, 0, 64, 55
1, 953835, Note_off_c, 0, 37, 70
1, 953842, Control_c, 0, 64, 82
1, 953847, Note_off_c, 0, 61, 67
1, 953857, Control_c, 0, 64, 127
1, 953874, Note_on_c, 0, 49, 88
1, 953909, Note_off_c, 0, 49, 62
1, 953960, Control_c, 0, 64, 91
1, 953966, Note_on_c, 0, 49, 76
1, 953975, Control_c, 0, 64, 64
1, 953990, Control_c, 0, 64, 0
1, 954010, Note_off_c, 0, 49, 63
1, 954058, Note_on_c, 0, 63, 78
1, 954082, Note_off_c, 0, 63, 69
1, 954082, Note_on_c, 0, 39, 68
1, 954112, Note_off_c, 0, 39, 63
1, 954178, Note_on_c, 0, 64, 71
1, 954180, Note_on_c, 0, 62, 77
1, 954187, Note_on_c, 0, 40, 67
1, 954201, Note_off_c, 0, 64, 70
1, 954203, Note_off_c, 0, 62, 69
1, 954214, Note_off_c, 0, 40, 65
1, 954298, Note_on_c, 0, 60, 89
1, 954306, Note_on_c, 0, 36, 77
1, 954323, Control_c, 0, 64, 50
1, 954338, Control_c, 0, 64, 77
1, 954347, Note_off_c, 0, 60, 66
1, 954354, Control_c, 0, 64, 101
1, 954369, Note_on_c, 0, 48, 83
1, 954369, Control_c, 0, 64, 127
1, 954397, Note_off_c, 0, 48, 64
1, 954442, Control_c, 0, 64, 83
1, 954448, Note_on_c, 0, 48, 75
1, 954457, Control_c, 0, 64, 64
1, 954472, Control_c, 0, 64, 31
1, 954479, Note_off_c, 0, 48, 66
1, 954481, Note_off_c, 0, 36, 59
1, 954487, Control_c, 0, 64, 0
1, 954545, Note_on_c, 0, 62, 88
1, 954562, Note_on_c, 0, 38, 69
1, 954598, Note_off_c, 0, 62, 63
1, 954600, Note_off_c, 0, 38, 65
1, 954666, Note_on_c, 0, 63, 88
1, 954684, Note_on_c, 0, 39, 68
1, 954684, Note_off_c, 0, 63, 73
1, 954711, Note_off_c, 0, 39, 64
1, 954787, Note_on_c, 0, 59, 85
1, 954791, Note_on_c, 0, 35, 66
1, 954813, Control_c, 0, 64, 45
1, 954827, Control_c, 0, 64, 69
1, 954836, Note_off_c, 0, 59, 65
1, 954842, Control_c, 0, 64, 85
1, 954857, Control_c, 0, 64, 127
1, 954863, Note_on_c, 0, 47, 73
1, 954887, Note_off_c, 0, 47, 67
1, 954916, Control_c, 0, 64, 116
1, 954931, Control_c, 0, 64, 85
1, 954934, Note_on_c, 0, 47, 64
1, 954946, Control_c, 0, 64, 68
1, 954955, Note_off_c, 0, 47, 64
1, 954961, Control_c, 0, 64, 52
1, 954967, Note_off_c, 0, 35, 56
1, 954976, Control_c, 0, 64, 0
1, 955044, Note_on_c, 0, 61, 71
1, 955049, Note_on_c, 0, 37, 55
1, 955074, Note_off_c, 0, 61, 68
1, 955080, Note_off_c, 0, 37, 55
1, 955153, Note_on_c, 0, 62, 80
1, 955159, Note_on_c, 0, 38, 61
1, 955188, Note_off_c, 0, 62, 64
1, 955190, Note_off_c, 0, 38, 64
1, 955265, Note_on_c, 0, 34, 53
1, 955266, Note_on_c, 0, 58, 80
1, 955295, Control_c, 0, 64, 56
1, 955297, Note_off_c, 0, 34, 43
1, 955310, Control_c, 0, 64, 69
1, 955316, Note_off_c, 0, 58, 62
1, 955325, Control_c, 0, 64, 77
1, 955337, Note_on_c, 0, 46, 78
1, 955340, Control_c, 0, 64, 89
1, 955354, Control_c, 0, 64, 103
1, 955364, Note_off_c, 0, 46, 69
1, 955366, Poly_aftertouch_c, 0, 33, 0
1, 955369, Control_c, 0, 64, 127
1, 955414, Control_c, 0, 64, 107
1, 955426, Note_on_c, 0, 46, 81
1, 955429, Control_c, 0, 64, 86
1, 955444, Control_c, 0, 64, 68
1, 955449, Note_off_c, 0, 46, 67
1, 955458, Control_c, 0, 64, 48
1, 955473, Control_c, 0, 64, 0
1, 955516, Note_on_c, 0, 54, 86
1, 955537, Note_on_c, 0, 42, 80
1, 955602, Note_on_c, 0, 49, 67
1, 955606, Control_c, 0, 64, 39
1, 955621, Control_c, 0, 64, 59
1, 955636, Control_c, 0, 64, 66
1, 955650, Control_c, 0, 64, 72
1, 955651, Note_off_c, 0, 49, 62
1, 955665, Control_c, 0, 64, 80
1, 955673, Note_on_c, 0, 46, 64
1, 955680, Control_c, 0, 64, 87
1, 955689, Note_off_c, 0, 54, 63
1, 955695, Control_c, 0, 64, 88
1, 955710, Control_c, 0, 64, 86
1, 955715, Note_off_c, 0, 42, 63
1, 955724, Control_c, 0, 64, 77
1, 955730, Note_off_c, 0, 46, 60
1, 955739, Control_c, 0, 64, 64
1, 955754, Control_c, 0, 64, 37
1, 955767, Note_on_c, 0, 59, 76
1, 955769, Control_c, 0, 64, 0
1, 955786, Note_on_c, 0, 47, 73
1, 955858, Note_on_c, 0, 51, 67
1, 955890, Note_off_c, 0, 47, 63
1, 955895, Control_c, 0, 64, 57
1, 955909, Control_c, 0, 64, 70
1, 955924, Control_c, 0, 64, 83
1, 955933, Note_off_c, 0, 51, 60
1, 955939, Control_c, 0, 64, 108
1, 955942, Note_on_c, 0, 46, 57
1, 955946, Note_off_c, 0, 59, 61
1, 955955, Control_c, 0, 64, 127
1, 955985, Control_c, 0, 64, 121
1, 955996, Note_off_c, 0, 46, 60
1, 955999, Control_c, 0, 64, 88
1, 956014, Control_c, 0, 64, 67
1, 956029, Control_c, 0, 64, 41
1, 956037, Note_on_c, 0, 59, 75
1, 956043, Note_on_c, 0, 47, 63
1, 956044, Control_c, 0, 64, 0
1, 956102, Note_on_c, 0, 51, 63
1, 956118, Control_c, 0, 64, 42
1, 956133, Control_c, 0, 64, 60
1, 956145, Note_off_c, 0, 47, 56
1, 956147, Control_c, 0, 64, 69
1, 956154, Note_off_c, 0, 51, 55
1, 956162, Control_c, 0, 64, 76
1, 956177, Control_c, 0, 64, 80
1, 956185, Note_on_c, 0, 46, 59
1, 956207, Control_c, 0, 64, 79
1, 956222, Control_c, 0, 64, 75
1, 956235, Note_off_c, 0, 46, 56
1, 956237, Control_c, 0, 64, 67
1, 956252, Control_c, 0, 64, 57
1, 956267, Control_c, 0, 64, 33
1, 956279, Note_on_c, 0, 53, 72
1, 956281, Control_c, 0, 64, 0
1, 956291, Note_on_c, 0, 41, 57
1, 956292, Note_off_c, 0, 59, 49
1, 956385, Control_c, 0, 64, 49
1, 956399, Control_c, 0, 64, 62
1, 956401, Note_on_c, 0, 51, 31
1, 956414, Control_c, 0, 64, 67
1, 956429, Control_c, 0, 64, 68
1, 956444, Control_c, 0, 64, 68
1, 956448, Note_on_c, 0, 46, 51
1, 956451, Note_off_c, 0, 53, 59
1, 956452, Note_off_c, 0, 51, 45
1, 956459, Control_c, 0, 64, 67
1, 956472, Note_off_c, 0, 41, 51
1, 956473, Control_c, 0, 64, 64
1, 956488, Control_c, 0, 64, 57
1, 956503, Control_c, 0, 64, 41
1, 956525, Control_c, 0, 64, 0
1, 956531, Note_off_c, 0, 46, 54
1, 956545, Note_on_c, 0, 42, 56
1, 956547, Note_on_c, 0, 54, 71
1, 956614, Control_c, 0, 64, 33
1, 956629, Control_c, 0, 64, 54
1, 956630, Note_on_c, 0, 51, 55
1, 956644, Control_c, 0, 64, 65
1, 956659, Control_c, 0, 64, 70
1, 956668, Note_off_c, 0, 51, 65
1, 956673, Control_c, 0, 64, 74
1, 956688, Control_c, 0, 64, 75
1, 956707, Note_on_c, 0, 46, 43
1, 956732, Control_c, 0, 64, 74
1, 956747, Note_off_c, 0, 46, 61
1, 956748, Control_c, 0, 64, 72
1, 956754, Note_off_c, 0, 54, 61
1, 956763, Control_c, 0, 64, 67
1, 956778, Control_c, 0, 64, 58
1, 956791, Note_off_c, 0, 42, 23
1, 956793, Control_c, 0, 64, 32
1, 956802, Note_on_c, 0, 55, 70
1, 956808, Control_c, 0, 64, 0
1, 956815, Note_on_c, 0, 43, 66
1, 956896, Control_c, 0, 64, 43
1, 956902, Note_on_c, 0, 50, 45
1, 956905, Note_off_c, 0, 43, 61
1, 956911, Control_c, 0, 64, 61
1, 956926, Control_c, 0, 64, 70
1, 956941, Control_c, 0, 64, 79
1, 956949, Note_off_c, 0, 55, 56
1, 956955, Note_on_c, 0, 47, 48
1, 956955, Control_c, 0, 64, 87
1, 956959, Note_off_c, 0, 50, 59
1, 956970, Control_c, 0, 64, 90
1, 957000, Control_c, 0, 64, 88
1, 957015, Control_c, 0, 64, 78
1, 957026, Note_off_c, 0, 47, 52
1, 957030, Control_c, 0, 64, 65
1, 957045, Control_c, 0, 64, 41
1, 957060, Control_c, 0, 64, 0
1, 957065, Note_on_c, 0, 55, 66
1, 957074, Note_on_c, 0, 43, 54
1, 957132, Note_on_c, 0, 50, 53
1, 957134, Control_c, 0, 64, 49
1, 957148, Control_c, 0, 64, 63
1, 957163, Control_c, 0, 64, 70
1, 957170, Note_off_c, 0, 50, 63
1, 957178, Control_c, 0, 64, 78
1, 957182, Note_off_c, 0, 43, 51
1, 957193, Control_c, 0, 64, 86
1, 957208, Control_c, 0, 64, 89
1, 957217, Note_on_c, 0, 47, 46
1, 957237, Control_c, 0, 64, 89
1, 957252, Note_off_c, 0, 47, 60
1, 957252, Control_c, 0, 64, 83
1, 957274, Control_c, 0, 64, 69
1, 957289, Control_c, 0, 64, 43
1, 957304, Control_c, 0, 64, 0
1, 957331, Note_on_c, 0, 50, 58
1, 957332, Note_on_c, 0, 38, 55
1, 957348, Control_c, 0, 64, 36
1, 957351, Note_off_c, 0, 55, 39
1, 957363, Control_c, 0, 64, 54
1, 957378, Control_c, 0, 64, 56
1, 957393, Control_c, 0, 64, 45
1, 957408, Control_c, 0, 64, 0
1, 957411, Note_on_c, 0, 47, 42
1, 957452, Control_c, 0, 64, 37
1, 957467, Control_c, 0, 64, 48
1, 957477, Note_off_c, 0, 47, 56
1, 957482, Control_c, 0, 64, 49
1, 957494, Note_off_c, 0, 38, 37
1, 957495, Note_on_c, 0, 43, 27
1, 957497, Control_c, 0, 64, 47
1, 957519, Note_off_c, 0, 50, 51
1, 957527, Control_c, 0, 64, 47
1, 957542, Control_c, 0, 64, 44
1, 957557, Control_c, 0, 64, 32
1, 957572, Control_c, 0, 64, 0
1, 957577, Note_on_c, 0, 52, 59
1, 957585, Note_on_c, 0, 40, 43
1, 957585, Note_off_c, 0, 43, 35
1, 957630, Note_off_c, 0, 52, 53
1, 957640, Note_off_c, 0, 40, 60
1, 957705, Note_on_c, 0, 53, 62
1, 957715, Note_on_c, 0, 41, 40
1, 957737, Note_off_c, 0, 53, 64
1, 957749, Note_off_c, 0, 41, 43
1, 957839, Control_c, 0, 64, 44
1, 957853, Control_c, 0, 64, 62
1, 957856, Note_on_c, 0, 37, 47
1, 957868, Control_c, 0, 64, 65
1, 957879, Note_on_c, 0, 44, 60
1, 957883, Control_c, 0, 64, 67
1, 957923, Note_off_c, 0, 44, 65
1, 957942, Control_c, 0, 64, 66
1, 957957, Control_c, 0, 64, 65
1, 957960, Note_on_c, 0, 41, 48
1, 957972, Control_c, 0, 64, 64
1, 957987, Control_c, 0, 64, 62
1, 957998, Note_off_c, 0, 41, 47
1, 958001, Control_c, 0, 64, 59
1, 958024, Control_c, 0, 64, 53
1, 958039, Control_c, 0, 64, 45
1, 958043, Note_off_c, 0, 37, 43
1, 958053, Control_c, 0, 64, 32
1, 958068, Control_c, 0, 64, 0
1, 958093, Note_on_c, 0, 39, 48
1, 958094, Note_on_c, 0, 51, 62
1, 958137, Note_off_c, 0, 39, 54
1, 958159, Note_off_c, 0, 51, 61
1, 958222, Note_on_c, 0, 40, 52
1, 958225, Note_on_c, 0, 52, 60
1, 958250, Note_off_c, 0, 40, 56
1, 958261, Note_off_c, 0, 52, 64
1, 958350, Control_c, 0, 64, 37
1, 958355, Note_on_c, 0, 36, 54
1, 958356, Note_on_c, 0, 48, 59
1, 958365, Control_c, 0, 64, 61
1, 958380, Control_c, 0, 64, 69
1, 958395, Control_c, 0, 64, 74
1, 958410, Control_c, 0, 64, 76
1, 958455, Control_c, 0, 64, 76
1, 958469, Control_c, 0, 64, 75
1, 958478, Note_off_c, 0, 36, 56
1, 958484, Control_c, 0, 64, 73
1, 958499, Control_c, 0, 64, 70
1, 958502, Note_off_c, 0, 48, 59
1, 958514, Control_c, 0, 64, 64
1, 958528, Control_c, 0, 64, 55
1, 958543, Control_c, 0, 64, 38
1, 958558, Control_c, 0, 64, 0
1, 958594, Note_on_c, 0, 40, 53
1, 958606, Note_on_c, 0, 52, 49
1, 958625, Note_off_c, 0, 40, 61
1, 958663, Note_off_c, 0, 52, 55
1, 958725, Note_on_c, 0, 43, 44
1, 958730, Note_on_c, 0, 55, 45
1, 958756, Note_off_c, 0, 55, 57
1, 958758, Note_off_c, 0, 43, 48
1, 958866, Note_on_c, 0, 49, 51
1, 958867, Note_on_c, 0, 37, 63
1, 958876, Control_c, 0, 64, 51
1, 958891, Control_c, 0, 64, 63
1, 958901, Note_off_c, 0, 37, 64
1, 958906, Control_c, 0, 64, 65
1, 958920, Control_c, 0, 64, 65
1, 958935, Control_c, 0, 64, 66
1, 958938, Note_on_c, 0, 44, 47
1, 958962, Note_off_c, 0, 49, 57
1, 958980, Control_c, 0, 64, 65
1, 958985, Note_off_c, 0, 44, 56
1, 958994, Control_c, 0, 64, 65
1, 959009, Control_c, 0, 64, 64
1, 959024, Control_c, 0, 64, 62
1, 959027, Note_on_c, 0, 41, 33
1, 959039, Control_c, 0, 64, 60
1, 959054, Control_c, 0, 64, 57
1, 959064, Note_off_c, 0, 41, 50
1, 959069, Control_c, 0, 64, 53
1, 959084, Control_c, 0, 64, 45
1, 959098, Control_c, 0, 64, 0
1, 959119, Note_on_c, 0, 30, 64
1, 959122, Note_on_c, 0, 51, 54
1, 959153, Note_off_c, 0, 30, 62
1, 959184, Note_off_c, 0, 51, 59
1, 959252, Note_on_c, 0, 31, 65
1, 959253, Note_on_c, 0, 52, 57
1, 959291, Note_off_c, 0, 52, 63
1, 959291, Note_off_c, 0, 31, 64
1, 959385, Note_on_c, 0, 48, 60
1, 959398, Note_on_c, 0, 36, 53
1, 959411, Control_c, 0, 64, 49
1, 959425, Control_c, 0, 64, 65
1, 959440, Control_c, 0, 64, 70
1, 959444, Note_off_c, 0, 36, 62
1, 959455, Control_c, 0, 64, 76
1, 959470, Control_c, 0, 64, 81
1, 959485, Control_c, 0, 64, 91
1, 959499, Control_c, 0, 64, 99
1, 959514, Control_c, 0, 64, 104
1, 959557, Note_off_c, 0, 48, 56
1, 959596, Control_c, 0, 64, 111
1, 959611, Control_c, 0, 64, 127
1, 959618, Note_on_c, 0, 40, 61
1, 959618, Note_on_c, 0, 52, 71
1, 959640, Control_c, 0, 64, 103
1, 959654, Note_off_c, 0, 40, 62
1, 959655, Control_c, 0, 64, 68
1, 959669, Control_c, 0, 64, 0
1, 959673, Note_off_c, 0, 52, 62
1, 959722, Note_on_c, 0, 43, 88
1, 959724, Note_on_c, 0, 55, 85
1, 959747, Note_off_c, 0, 43, 70
1, 959752, Note_off_c, 0, 55, 66
1, 959832, Control_c, 0, 64, 61
1, 959847, Control_c, 0, 64, 127
1, 959855, Note_on_c, 0, 36, 100
1, 959862, Note_on_c, 0, 48, 104
1, 959943, Note_off_c, 0, 48, 66
1, 959948, Note_on_c, 0, 52, 90
1, 959948, Note_on_c, 0, 40, 86
1, 959985, Note_off_c, 0, 36, 60
1, 960012, Note_on_c, 0, 55, 90
1, 960020, Note_off_c, 0, 52, 64
1, 960027, Note_on_c, 0, 43, 90
1, 960036, Note_off_c, 0, 40, 62
1, 960049, Note_off_c, 0, 55, 67
1, 960081, Note_off_c, 0, 43, 64
1, 960098, Note_on_c, 0, 48, 83
1, 960104, Note_on_c, 0, 60, 88
1, 960131, Note_off_c, 0, 48, 62
1, 960157, Note_off_c, 0, 60, 67
1, 960171, Note_on_c, 0, 72, 88
1, 960183, Note_on_c, 0, 52, 88
1, 960242, Note_on_c, 0, 60, 80
1, 960242, Note_off_c, 0, 72, 62
1, 960248, Note_on_c, 0, 63, 76
1, 960252, Note_off_c, 0, 52, 61
1, 960272, Note_on_c, 0, 55, 85
1, 960286, Note_off_c, 0, 63, 65
1, 960293, Note_on_c, 0, 62, 24
1, 960293, Note_off_c, 0, 62, 127
1, 960293, Note_off_c, 0, 60, 64
1, 960314, Control_c, 0, 64, 94
1, 960329, Control_c, 0, 64, 60
1, 960332, Poly_aftertouch_c, 0, 62, 0
1, 960333, Note_on_c, 0, 72, 105
1, 960333, Note_off_c, 0, 55, 63
1, 960344, Control_c, 0, 64, 0
1, 960353, Note_on_c, 0, 60, 85
1, 960388, Control_c, 0, 64, 38
1, 960395, Note_off_c, 0, 60, 66
1, 960403, Control_c, 0, 64, 63
1, 960415, Note_on_c, 0, 67, 86
1, 960418, Control_c, 0, 64, 75
1, 960421, Note_on_c, 0, 55, 86
1, 960433, Control_c, 0, 64, 87
1, 960437, Note_off_c, 0, 72, 62
1, 960447, Control_c, 0, 64, 93
1, 960462, Control_c, 0, 64, 95
1, 960470, Note_off_c, 0, 55, 64
1, 960478, Control_c, 0, 64, 97
1, 960495, Note_on_c, 0, 64, 83
1, 960496, Note_on_c, 0, 52, 78
1, 960505, Note_off_c, 0, 67, 63
1, 960507, Control_c, 0, 64, 99
1, 960522, Control_c, 0, 64, 103
1, 960537, Note_off_c, 0, 64, 64
1, 960537, Control_c, 0, 64, 108
1, 960538, Note_off_c, 0, 52, 61
1, 960552, Control_c, 0, 64, 127
1, 960571, Note_on_c, 0, 60, 76
1, 960589, Note_on_c, 0, 48, 76
1, 960597, Note_off_c, 0, 60, 68
1, 960634, Note_off_c, 0, 48, 59
1, 960634, Note_on_c, 0, 55, 86
1, 960652, Note_on_c, 0, 43, 86
1, 960670, Control_c, 0, 64, 83
1, 960685, Control_c, 0, 64, 62
1, 960699, Control_c, 0, 64, 0
1, 960705, Note_on_c, 0, 52, 82
1, 960705, Note_off_c, 0, 55, 64
1, 960711, Note_off_c, 0, 43, 63
1, 960712, Note_on_c, 0, 40, 82
1, 960758, Note_off_c, 0, 52, 65
1, 960768, Note_off_c, 0, 40, 62
1, 960798, Note_on_c, 0, 48, 98
1, 960804, Note_on_c, 0, 36, 97
1, 960849, Control_c, 0, 64, 62
1, 960863, Control_c, 0, 64, 104
1, 960866, Note_off_c, 0, 48, 67
1, 960878, Control_c, 0, 64, 127
1, 960884, Note_on_c, 0, 52, 81
1, 960888, Note_on_c, 0, 40, 85
1, 960908, Control_c, 0, 64, 92
1, 960915, Note_off_c, 0, 36, 63
1, 960923, Control_c, 0, 64, 93
1, 960938, Control_c, 0, 64, 109
1, 960950, Note_off_c, 0, 52, 60
1, 960953, Control_c, 0, 64, 127
1, 960956, Note_on_c, 0, 55, 74
1, 960962, Note_on_c, 0, 57, 68
1, 960966, Note_on_c, 0, 43, 89
1, 960980, Note_off_c, 0, 40, 62
1, 960992, Note_off_c, 0, 57, 67
1, 961000, Note_off_c, 0, 55, 64
1, 961021, Note_off_c, 0, 43, 64
1, 961037, Note_on_c, 0, 47, 70
1, 961048, Note_on_c, 0, 59, 94
1, 961066, Note_off_c, 0, 47, 66
1, 961078, Control_c, 0, 64, 66
1, 961093, Control_c, 0, 64, 38
1, 961099, Note_off_c, 0, 59, 67
1, 961108, Control_c, 0, 64, 48
1, 961117, Note_on_c, 0, 52, 86
1, 961122, Control_c, 0, 64, 62
1, 961124, Note_on_c, 0, 71, 81
1, 961136, Note_on_c, 0, 69, 67
1, 961137, Control_c, 0, 64, 75
1, 961152, Control_c, 0, 64, 98
1, 961159, Note_off_c, 0, 69, 55
1, 961167, Control_c, 0, 64, 127
1, 961173, Note_off_c, 0, 71, 51
1, 961176, Note_on_c, 0, 59, 80
1, 961186, Note_off_c, 0, 52, 62
1, 961197, Note_on_c, 0, 55, 81
1, 961197, Control_c, 0, 64, 102
1, 961212, Control_c, 0, 64, 74
1, 961227, Control_c, 0, 64, 45
1, 961230, Note_off_c, 0, 59, 62
1, 961242, Control_c, 0, 64, 0
1, 961250, Note_off_c, 0, 55, 63
1, 961263, Note_on_c, 0, 71, 101
1, 961274, Note_on_c, 0, 59, 66
1, 961301, Control_c, 0, 64, 49
1, 961314, Note_off_c, 0, 59, 65
1, 961316, Control_c, 0, 64, 60
1, 961330, Control_c, 0, 64, 63
1, 961331, Note_on_c, 0, 67, 88
1, 961343, Note_off_c, 0, 71, 64
1, 961345, Control_c, 0, 64, 63
1, 961349, Note_on_c, 0, 55, 70
1, 961388, Note_off_c, 0, 55, 59
1, 961390, Control_c, 0, 64, 64
1, 961404, Control_c, 0, 64, 65
1, 961406, Note_on_c, 0, 64, 82
1, 961410, Note_off_c, 0, 67, 66
1, 961412, Note_on_c, 0, 52, 65
1, 961419, Control_c, 0, 64, 67
1, 961434, Control_c, 0, 64, 69
1, 961440, Note_off_c, 0, 52, 65
1, 961446, Note_off_c, 0, 64, 66
1, 961448, Control_c, 0, 64, 73
1, 961463, Control_c, 0, 64, 78
1, 961478, Control_c, 0, 64, 89
1, 961482, Note_on_c, 0, 59, 77
1, 961493, Control_c, 0, 64, 109
1, 961501, Note_on_c, 0, 47, 77
1, 961508, Control_c, 0, 64, 127
1, 961513, Note_off_c, 0, 59, 64
1, 961554, Note_off_c, 0, 47, 62
1, 961556, Note_on_c, 0, 55, 84
1, 961571, Note_on_c, 0, 43, 77
1, 961615, Note_off_c, 0, 43, 60
1, 961622, Note_on_c, 0, 40, 73
1, 961622, Note_on_c, 0, 52, 82
1, 961629, Note_off_c, 0, 55, 65
1, 961642, Control_c, 0, 64, 100
1, 961657, Control_c, 0, 64, 62
1, 961672, Control_c, 0, 64, 0
1, 961673, Note_off_c, 0, 52, 64
1, 961676, Note_off_c, 0, 40, 61
1, 961707, Note_on_c, 0, 48, 96
1, 961711, Note_on_c, 0, 36, 94
1, 961745, Control_c, 0, 64, 35
1, 961768, Control_c, 0, 64, 72
1, 961778, Note_off_c, 0, 48, 63
1, 961783, Control_c, 0, 64, 91
1, 961792, Note_on_c, 0, 50, 91
1, 961798, Control_c, 0, 64, 85
1, 961808, Note_on_c, 0, 38, 90
1, 961813, Control_c, 0, 64, 64
1, 961827, Control_c, 0, 64, 54
1, 961829, Note_off_c, 0, 36, 63
1, 961842, Control_c, 0, 64, 67
1, 961853, Note_on_c, 0, 55, 88
1, 961856, Note_off_c, 0, 50, 64
1, 961857, Control_c, 0, 64, 87
1, 961871, Control_c, 0, 64, 127
1, 961875, Note_on_c, 0, 43, 86
1, 961888, Note_off_c, 0, 38, 64
1, 961890, Note_off_c, 0, 55, 66
1, 961930, Note_off_c, 0, 43, 64
1, 961938, Note_on_c, 0, 57, 99
1, 961942, Note_on_c, 0, 45, 66
1, 961945, Control_c, 0, 64, 102
1, 961960, Control_c, 0, 64, 56
1, 961972, Note_off_c, 0, 45, 65
1, 961975, Control_c, 0, 64, 0
1, 961990, Note_off_c, 0, 57, 66
1, 962012, Note_on_c, 0, 69, 90
1, 962018, Note_on_c, 0, 50, 81
1, 962035, Control_c, 0, 64, 54
1, 962050, Control_c, 0, 64, 59
1, 962064, Control_c, 0, 64, 46
1, 962064, Note_off_c, 0, 69, 61
1, 962079, Control_c, 0, 64, 0
1, 962083, Note_on_c, 0, 57, 85
1, 962098, Note_off_c, 0, 50, 59
1, 962106, Note_on_c, 0, 53, 72
1, 962137, Note_off_c, 0, 57, 64
1, 962144, Note_off_c, 0, 53, 60
1, 962153, Control_c, 0, 64, 54
1, 962157, Note_on_c, 0, 69, 101
1, 962165, Note_on_c, 0, 62, 34
1, 962168, Control_c, 0, 64, 72
1, 962171, Note_on_c, 0, 57, 70
1, 962183, Control_c, 0, 64, 87
1, 962196, Note_off_c, 0, 62, 49
1, 962198, Control_c, 0, 64, 117
1, 962201, Note_off_c, 0, 57, 68
1, 962212, Control_c, 0, 64, 127
1, 962225, Note_on_c, 0, 65, 77
1, 962237, Note_off_c, 0, 69, 61
1, 962243, Note_on_c, 0, 53, 68
1, 962272, Note_off_c, 0, 53, 65
1, 962291, Note_on_c, 0, 50, 71
1, 962291, Note_on_c, 0, 62, 76
1, 962311, Note_off_c, 0, 65, 65
1, 962318, Note_off_c, 0, 50, 68
1, 962342, Note_off_c, 0, 62, 63
1, 962377, Note_on_c, 0, 57, 79
1, 962386, Note_on_c, 0, 45, 74
1, 962406, Note_off_c, 0, 57, 65
1, 962435, Note_off_c, 0, 45, 56
1, 962456, Note_on_c, 0, 41, 79
1, 962461, Note_on_c, 0, 52, 63
1, 962461, Note_on_c, 0, 53, 64
1, 962480, Control_c, 0, 64, 101
1, 962494, Control_c, 0, 64, 87
1, 962496, Note_off_c, 0, 53, 64
1, 962513, Note_off_c, 0, 41, 61
1, 962517, Control_c, 0, 64, 71
1, 962527, Note_off_c, 0, 52, 63
1, 962529, Note_on_c, 0, 38, 74
1, 962532, Control_c, 0, 64, 48
1, 962534, Note_on_c, 0, 50, 66
1, 962543, Note_on_c, 0, 48, 62
1, 962547, Control_c, 0, 64, 0
1, 962567, Note_off_c, 0, 48, 63
1, 962574, Note_off_c, 0, 50, 63
1, 962582, Note_off_c, 0, 38, 63
1, 962618, Note_on_c, 0, 36, 85
1, 962623, Note_on_c, 0, 48, 84
1, 962650, Control_c, 0, 64, 51
1, 962658, Note_off_c, 0, 48, 65
1, 962665, Control_c, 0, 64, 66
1, 962680, Control_c, 0, 64, 48
1, 962693, Note_on_c, 0, 62, 87
1, 962694, Control_c, 0, 64, 0
1, 962695, Note_on_c, 0, 38, 80
1, 962709, Note_off_c, 0, 36, 57
1, 962712, Note_off_c, 0, 62, 72
1, 962740, Control_c, 0, 64, 55
1, 962755, Control_c, 0, 64, 78
1, 962762, Note_on_c, 0, 43, 84
1, 962766, Note_off_c, 0, 38, 64
1, 962769, Control_c, 0, 64, 117
1, 962771, Note_on_c, 0, 62, 75
1, 962773, Note_on_c, 0, 64, 73
1, 962784, Control_c, 0, 64, 127
1, 962795, Note_off_c, 0, 64, 70
1, 962795, Note_off_c, 0, 62, 69
1, 962808, Note_off_c, 0, 43, 65
1, 962819, Note_on_c, 0, 45, 70
1, 962838, Note_on_c, 0, 62, 93
1, 962842, Note_off_c, 0, 45, 64
1, 962858, Control_c, 0, 64, 97
1, 962873, Control_c, 0, 64, 65
1, 962887, Control_c, 0, 64, 53
1, 962890, Note_off_c, 0, 62, 63
1, 962892, Note_on_c, 0, 50, 83
1, 962902, Note_on_c, 0, 74, 93
1, 962902, Control_c, 0, 64, 60
1, 962917, Control_c, 0, 64, 65
1, 962932, Control_c, 0, 64, 64
1, 962935, Note_off_c, 0, 74, 71
1, 962947, Control_c, 0, 64, 54
1, 962962, Control_c, 0, 64, 0
1, 962963, Note_off_c, 0, 50, 63
1, 962965, Note_on_c, 0, 53, 82
1, 962978, Note_on_c, 0, 74, 74
1, 963012, Note_off_c, 0, 74, 0
1, 963023, Note_off_c, 0, 53, 59
1, 963049, Poly_aftertouch_c, 0, 74, 127
1, 963073, Poly_aftertouch_c, 0, 74, 0
1, 963081, Control_c, 0, 64, 61
1, 963084, Note_on_c, 0, 53, 75
1, 963095, Control_c, 0, 64, 127
1, 963135, Note_on_c, 0, 50, 80
1, 963139, Note_off_c, 0, 53, 64
1, 963141, Control_c, 0, 64, 104
1, 963155, Control_c, 0, 64, 83
1, 963170, Note_off_c, 0, 50, 62
1, 963170, Control_c, 0, 64, 57
1, 963185, Control_c, 0, 64, 0
1, 963215, Note_on_c, 0, 62, 94
1, 963231, Note_on_c, 0, 45, 79
1, 963231, Note_off_c, 0, 62, 70
1, 963260, Control_c, 0, 64, 38
1, 963269, Note_on_c, 0, 62, 102
1, 963281, Control_c, 0, 64, 79
1, 963296, Control_c, 0, 64, 118
1, 963307, Note_on_c, 0, 38, 93
1, 963310, Note_off_c, 0, 62, 66
1, 963311, Control_c, 0, 64, 101
1, 963324, Note_off_c, 0, 45, 58
1, 963325, Control_c, 0, 64, 64
1, 963340, Control_c, 0, 64, 0
1, 963386, Note_off_c, 0, 38, 61
1, 963388, Note_on_c, 0, 41, 86
1, 963442, Note_off_c, 0, 41, 63
1, 963446, Note_on_c, 0, 50, 86
1, 963479, Note_off_c, 0, 50, 63
1, 963506, Note_on_c, 0, 35, 77
1, 963531, Note_on_c, 0, 47, 76
1, 963531, Control_c, 0, 64, 41
1, 963546, Control_c, 0, 64, 65
1, 963561, Control_c, 0, 64, 69
1, 963576, Control_c, 0, 64, 70
1, 963588, Note_off_c, 0, 47, 61
1, 963591, Control_c, 0, 64, 71
1, 963591, Note_off_c, 0, 35, 57
1, 963594, Note_on_c, 0, 38, 69
1, 963604, Note_on_c, 0, 50, 76
1, 963606, Control_c, 0, 64, 73
1, 963620, Control_c, 0, 64, 73
1, 963654, Note_off_c, 0, 50, 60
1, 963661, Note_on_c, 0, 42, 71
1, 963664, Note_off_c, 0, 38, 63
1, 963665, Control_c, 0, 64, 73
1, 963675, Note_on_c, 0, 54, 74
1, 963695, Note_off_c, 0, 54, 69
1, 963709, Control_c, 0, 64, 72
1, 963711, Note_off_c, 0, 42, 63
1, 963724, Control_c, 0, 64, 69
1, 963737, Note_on_c, 0, 47, 57
1, 963739, Control_c, 0, 64, 66
1, 963754, Note_on_c, 0, 59, 74
1, 963754, Control_c, 0, 64, 62
1, 963764, Note_off_c, 0, 47, 68
1, 963769, Control_c, 0, 64, 57
1, 963783, Control_c, 0, 64, 53
1, 963797, Note_off_c, 0, 59, 61
1, 963798, Control_c, 0, 64, 48
1, 963813, Control_c, 0, 64, 41
1, 963819, Note_on_c, 0, 50, 69
1, 963828, Control_c, 0, 64, 31
1, 963829, Note_on_c, 0, 71, 75
1, 963842, Control_c, 0, 64, 0
1, 963873, Note_off_c, 0, 71, 60
1, 963880, Note_off_c, 0, 50, 61
1, 963898, Note_on_c, 0, 54, 73
1, 963901, Note_on_c, 0, 59, 70
1, 963938, Note_off_c, 0, 59, 62
1, 963948, Note_off_c, 0, 54, 60
1, 963982, Note_on_c, 0, 71, 77
1, 963993, Note_on_c, 0, 59, 52
1, 964014, Control_c, 0, 64, 48
1, 964029, Control_c, 0, 64, 56
1, 964044, Control_c, 0, 64, 56
1, 964047, Note_off_c, 0, 59, 63
1, 964054, Note_off_c, 0, 71, 62
1, 964059, Control_c, 0, 64, 55
1, 964062, Note_on_c, 0, 66, 74
1, 964077, Note_on_c, 0, 54, 50
1, 964088, Control_c, 0, 64, 56
1, 964103, Control_c, 0, 64, 57
1, 964105, Note_off_c, 0, 54, 53
1, 964118, Control_c, 0, 64, 59
1, 964133, Control_c, 0, 64, 60
1, 964139, Note_on_c, 0, 62, 74
1, 964143, Note_off_c, 0, 66, 61
1, 964144, Note_on_c, 0, 50, 46
1, 964147, Control_c, 0, 64, 62
1, 964162, Control_c, 0, 64, 64
1, 964164, Note_off_c, 0, 62, 68
1, 964175, Note_off_c, 0, 50, 50
1, 964177, Control_c, 0, 64, 66
1, 964192, Control_c, 0, 64, 68
1, 964207, Control_c, 0, 64, 72
1, 964215, Note_on_c, 0, 59, 70
1, 964220, Note_on_c, 0, 47, 72
1, 964221, Control_c, 0, 64, 78
1, 964236, Control_c, 0, 64, 89
1, 964242, Note_off_c, 0, 59, 66
1, 964251, Control_c, 0, 64, 109
1, 964259, Note_off_c, 0, 47, 61
1, 964265, Control_c, 0, 64, 127
1, 964276, Note_on_c, 0, 54, 84
1, 964282, Note_on_c, 0, 42, 82
1, 964310, Note_off_c, 0, 42, 68
1, 964310, Control_c, 0, 64, 90
1, 964325, Control_c, 0, 64, 66
1, 964334, Note_on_c, 0, 38, 78
1, 964339, Control_c, 0, 64, 0
1, 964345, Note_on_c, 0, 50, 78
1, 964353, Note_off_c, 0, 54, 64
1, 964392, Note_off_c, 0, 38, 64
1, 964392, Note_off_c, 0, 50, 63
1, 964428, Note_on_c, 0, 35, 98
1, 964434, Note_on_c, 0, 47, 98
1, 964503, Control_c, 0, 64, 53
1, 964509, Note_on_c, 0, 39, 91
1, 964514, Note_on_c, 0, 51, 87
1, 964518, Control_c, 0, 64, 85
1, 964527, Note_off_c, 0, 47, 61
1, 964530, Note_off_c, 0, 35, 62
1, 964532, Control_c, 0, 64, 127
1, 964577, Note_on_c, 0, 54, 94
1, 964580, Note_on_c, 0, 42, 91
1, 964583, Note_off_c, 0, 39, 63
1, 964585, Note_off_c, 0, 51, 63
1, 964610, Note_off_c, 0, 54, 65
1, 964621, Note_off_c, 0, 42, 66
1, 964649, Note_on_c, 0, 46, 86
1, 964673, Note_off_c, 0, 46, 70
1, 964676, Note_on_c, 0, 59, 77
1, 964680, Control_c, 0, 64, 68
1, 964681, Note_on_c, 0, 60, 80
1, 964695, Control_c, 0, 64, 0
1, 964713, Note_off_c, 0, 59, 65
1, 964716, Note_off_c, 0, 60, 66
1, 964741, Control_c, 0, 64, 53
1, 964744, Note_on_c, 0, 70, 82
1, 964747, Note_on_c, 0, 51, 79
1, 964762, Control_c, 0, 64, 70
1, 964777, Control_c, 0, 64, 74
1, 964792, Control_c, 0, 64, 70
1, 964807, Control_c, 0, 64, 56
1, 964811, Note_on_c, 0, 58, 89
1, 964816, Note_on_c, 0, 54, 90
1, 964819, Note_off_c, 0, 51, 59
1, 964822, Control_c, 0, 64, 0
1, 964830, Note_off_c, 0, 70, 63
1, 964838, Note_on_c, 0, 62, 55
1, 964838, Note_off_c, 0, 62, 127
1, 964864, Note_off_c, 0, 58, 65
1, 964875, Note_off_c, 0, 54, 64
1, 964892, Note_on_c, 0, 70, 94
1, 964909, Note_on_c, 0, 58, 71
1, 964941, Control_c, 0, 64, 54
1, 964955, Control_c, 0, 64, 67
1, 964959, Note_off_c, 0, 58, 62
1, 964969, Note_on_c, 0, 66, 81
1, 964970, Control_c, 0, 64, 65
1, 964984, Note_on_c, 0, 54, 68
1, 964985, Control_c, 0, 64, 57
1, 964986, Note_off_c, 0, 70, 64
1, 965000, Control_c, 0, 64, 54
1, 965015, Control_c, 0, 64, 60
1, 965022, Note_off_c, 0, 54, 45
1, 965030, Control_c, 0, 64, 64
1, 965042, Note_on_c, 0, 63, 84
1, 965044, Control_c, 0, 64, 67
1, 965059, Control_c, 0, 64, 67
1, 965060, Note_off_c, 0, 66, 64
1, 965074, Control_c, 0, 64, 68
1, 965081, Note_off_c, 0, 63, 68
1, 965088, Control_c, 0, 64, 70
1, 965103, Control_c, 0, 64, 72
1, 965117, Note_on_c, 0, 58, 79
1, 965118, Control_c, 0, 64, 72
1, 965129, Note_on_c, 0, 46, 69
1, 965133, Control_c, 0, 64, 65
1, 965144, Note_off_c, 0, 58, 68
1, 965148, Control_c, 0, 64, 31
1, 965162, Control_c, 0, 64, 0
1, 965164, Note_off_c, 0, 46, 61
1, 965195, Note_on_c, 0, 42, 69
1, 965195, Note_on_c, 0, 54, 79
1, 965239, Note_off_c, 0, 42, 63
1, 965265, Note_on_c, 0, 39, 55
1, 965265, Note_on_c, 0, 51, 78
1, 965275, Note_off_c, 0, 54, 63
1, 965309, Note_off_c, 0, 51, 63
1, 965310, Note_off_c, 0, 39, 60
1, 965340, Note_on_c, 0, 35, 66
1, 965347, Note_on_c, 0, 47, 78
1, 965404, Note_off_c, 0, 47, 63
1, 965406, Note_off_c, 0, 35, 61
1, 965411, Note_on_c, 0, 37, 69
1, 965420, Note_on_c, 0, 49, 72
1, 965429, Control_c, 0, 64, 42
1, 965444, Control_c, 0, 64, 62
1, 965459, Control_c, 0, 64, 65
1, 965460, Note_off_c, 0, 49, 64
1, 965473, Note_off_c, 0, 37, 61
1, 965477, Note_on_c, 0, 54, 80
1, 965480, Note_on_c, 0, 42, 57
1, 965497, Note_off_c, 0, 54, 68
1, 965525, Control_c, 0, 64, 67
1, 965528, Note_off_c, 0, 42, 64
1, 965541, Control_c, 0, 64, 71
1, 965550, Note_on_c, 0, 44, 45
1, 965569, Note_on_c, 0, 56, 77
1, 965571, Control_c, 0, 64, 65
1, 965583, Note_off_c, 0, 44, 55
1, 965585, Control_c, 0, 64, 58
1, 965600, Control_c, 0, 64, 50
1, 965615, Control_c, 0, 64, 45
1, 965618, Note_off_c, 0, 56, 61
1, 965630, Note_on_c, 0, 49, 64
1, 965630, Control_c, 0, 64, 44
1, 965641, Note_on_c, 0, 68, 78
1, 965645, Control_c, 0, 64, 42
1, 965659, Control_c, 0, 64, 0
1, 965685, Note_off_c, 0, 49, 62
1, 965694, Note_off_c, 0, 68, 60
1, 965704, Note_on_c, 0, 56, 70
1, 965710, Note_on_c, 0, 52, 58
1, 965736, Note_off_c, 0, 56, 64
1, 965747, Note_off_c, 0, 52, 60
1, 965776, Note_on_c, 0, 68, 84
1, 965787, Note_on_c, 0, 56, 56
1, 965820, Note_off_c, 0, 56, 62
1, 965838, Note_off_c, 0, 68, 63
1, 965847, Note_on_c, 0, 52, 59
1, 965857, Note_on_c, 0, 64, 70
1, 965895, Note_off_c, 0, 52, 62
1, 965918, Note_on_c, 0, 49, 56
1, 965922, Note_off_c, 0, 64, 63
1, 965923, Note_on_c, 0, 61, 77
1, 965953, Note_off_c, 0, 61, 65
1, 965973, Note_off_c, 0, 49, 62
1, 966011, Note_on_c, 0, 64, 75
1, 966012, Note_on_c, 0, 52, 52
1, 966044, Note_off_c, 0, 52, 62
1, 966044, Control_c, 0, 67, 19
1, 966071, Note_off_c, 0, 64, 57
1, 966078, Note_on_c, 0, 48, 53
1, 966088, Note_on_c, 0, 60, 63
1, 966104, Control_c, 0, 67, 22
1, 966115, Note_off_c, 0, 48, 65
1, 966139, Note_on_c, 0, 45, 62
1, 966141, Note_off_c, 0, 60, 62
1, 966154, Note_on_c, 0, 57, 66
1, 966177, Note_off_c, 0, 45, 65
1, 966178, Control_c, 0, 67, 24
1, 966196, Note_off_c, 0, 57, 59
1, 966223, Control_c, 0, 67, 27
1, 966232, Note_on_c, 0, 64, 71
1, 966232, Note_on_c, 0, 49, 73
1, 966237, Control_c, 0, 67, 30
1, 966259, Control_c, 0, 67, 35
1, 966274, Control_c, 0, 67, 42
1, 966289, Control_c, 0, 67, 51
1, 966290, Note_off_c, 0, 49, 60
1, 966292, Note_off_c, 0, 64, 59
1, 966304, Control_c, 0, 67, 56
1, 966318, Control_c, 0, 67, 58
1, 966321, Note_on_c, 0, 44, 70
1, 966321, Note_on_c, 0, 61, 64
1, 966334, Control_c, 0, 67, 58
1, 966378, Note_off_c, 0, 61, 59
1, 966380, Note_on_c, 0, 56, 70
1, 966386, Note_off_c, 0, 44, 62
1, 966399, Note_on_c, 0, 40, 57
1, 966426, Note_off_c, 0, 56, 58
1, 966438, Control_c, 0, 67, 58
1, 966444, Note_off_c, 0, 40, 62
1, 966453, Control_c, 0, 67, 57
1, 966467, Control_c, 0, 67, 56
1, 966469, Note_on_c, 0, 61, 66
1, 966470, Note_on_c, 0, 39, 87
1, 966496, Note_off_c, 0, 39, 69
1, 966497, Control_c, 0, 67, 56
1, 966536, Note_off_c, 0, 61, 62
1, 966539, Note_on_c, 0, 56, 68
1, 966542, Control_c, 0, 67, 56
1, 966572, Control_c, 0, 67, 57
1, 966582, Note_off_c, 0, 56, 60
1, 966586, Control_c, 0, 67, 57
1, 966624, Note_on_c, 0, 52, 52
1, 966681, Note_off_c, 0, 52, 59
1, 966690, Control_c, 0, 67, 57
1, 966720, Note_on_c, 0, 37, 76
1, 966720, Control_c, 0, 67, 56
1, 966721, Note_on_c, 0, 56, 56
1, 966749, Control_c, 0, 67, 56
1, 966752, Note_off_c, 0, 37, 67
1, 966793, Note_off_c, 0, 56, 58
1, 966802, Note_on_c, 0, 52, 58
1, 966823, Control_c, 0, 67, 56
1, 966850, Note_off_c, 0, 52, 62
1, 966853, Control_c, 0, 67, 57
1, 966884, Note_on_c, 0, 49, 55
1, 966913, Note_off_c, 0, 49, 65
1, 966956, Control_c, 0, 67, 56
1, 966966, Note_on_c, 0, 52, 62
1, 966974, Note_on_c, 0, 36, 60
1, 966986, Control_c, 0, 67, 56
1, 967008, Control_c, 0, 67, 55
1, 967013, Note_off_c, 0, 36, 63
1, 967037, Note_off_c, 0, 52, 62
1, 967038, Control_c, 0, 67, 55
1, 967039, Note_on_c, 0, 49, 66
1, 967067, Control_c, 0, 64, 51
1, 967067, Control_c, 0, 67, 54
1, 967082, Control_c, 0, 64, 58
1, 967090, Note_on_c, 0, 43, 63
1, 967097, Control_c, 0, 64, 59
1, 967097, Control_c, 0, 67, 54
1, 967112, Control_c, 0, 67, 53
1, 967127, Control_c, 0, 67, 52
1, 967130, Note_off_c, 0, 43, 65
1, 967143, Control_c, 0, 64, 60
1, 967143, Control_c, 0, 67, 51
1, 967157, Control_c, 0, 64, 61
1, 967157, Control_c, 0, 67, 50
1, 967163, Note_off_c, 0, 49, 63
1, 967172, Control_c, 0, 67, 49
1, 967184, Note_on_c, 0, 56, 94
1, 967187, Note_on_c, 0, 52, 92
1, 967187, Control_c, 0, 64, 59
1, 967187, Control_c, 0, 67, 48
1, 967191, Note_on_c, 0, 44, 92
1, 967202, Control_c, 0, 64, 43
1, 967202, Control_c, 0, 67, 47
1, 967216, Control_c, 0, 64, 0
1, 967216, Control_c, 0, 67, 46
1, 967276, Control_c, 0, 67, 48
1, 967290, Control_c, 0, 67, 50
1, 967305, Control_c, 0, 67, 54
1, 967320, Control_c, 0, 67, 56
1, 967335, Control_c, 0, 67, 58
1, 967350, Control_c, 0, 67, 59
1, 967364, Control_c, 0, 67, 59
1, 967462, Note_on_c, 0, 35, 80
1, 967483, Control_c, 0, 67, 59
1, 967493, Note_off_c, 0, 35, 66
1, 967498, Control_c, 0, 67, 58
1, 967502, Note_on_c, 0, 36, 14
1, 967502, Note_off_c, 0, 36, 127
1, 967543, Control_c, 0, 67, 59
1, 967572, Control_c, 0, 67, 59
1, 967579, Note_on_c, 0, 47, 79
1, 967587, Control_c, 0, 67, 60
1, 967601, Control_c, 0, 67, 60
1, 967616, Control_c, 0, 67, 61
1, 967624, Note_off_c, 0, 47, 63
1, 967631, Control_c, 0, 67, 62
1, 967646, Control_c, 0, 67, 62
1, 967661, Control_c, 0, 67, 63
1, 967712, Note_on_c, 0, 36, 85
1, 967741, Note_off_c, 0, 36, 69
1, 967816, Control_c, 0, 67, 63
1, 967831, Control_c, 0, 67, 64
1, 967832, Note_on_c, 0, 48, 72
1, 967846, Control_c, 0, 67, 64
1, 967861, Control_c, 0, 67, 65
1, 967870, Note_off_c, 0, 48, 62
1, 967876, Control_c, 0, 67, 66
1, 967890, Control_c, 0, 67, 70
1, 967905, Control_c, 0, 67, 74
1, 967920, Control_c, 0, 67, 77
1, 967936, Control_c, 0, 67, 78
1, 967956, Note_on_c, 0, 35, 79
1, 967989, Note_off_c, 0, 35, 63
1, 968075, Note_off_c, 0, 44, 63
1, 968077, Note_on_c, 0, 47, 62
1, 968089, Note_off_c, 0, 56, 51
1, 968093, Note_off_c, 0, 52, 56
1, 968114, Control_c, 0, 67, 77
1, 968129, Control_c, 0, 67, 77
1, 968159, Control_c, 0, 67, 76
1, 968161, Note_off_c, 0, 47, 64
1, 968188, Control_c, 0, 67, 75
1, 968203, Control_c, 0, 67, 75
1, 968212, Note_on_c, 0, 56, 83
1, 968217, Note_on_c, 0, 52, 77
1, 968220, Note_on_c, 0, 44, 81
1, 968262, Control_c, 0, 67, 74
1, 968306, Control_c, 0, 67, 75
1, 968321, Control_c, 0, 67, 76
1, 968336, Control_c, 0, 67, 77
1, 968366, Control_c, 0, 67, 77
1, 968381, Control_c, 0, 67, 78
1, 968411, Control_c, 0, 67, 77
1, 968425, Control_c, 0, 67, 76
1, 968440, Control_c, 0, 67, 76
1, 968455, Control_c, 0, 67, 75
1, 968458, Note_on_c, 0, 35, 74
1, 968470, Control_c, 0, 67, 74
1, 968485, Control_c, 0, 67, 74
1, 968496, Note_off_c, 0, 35, 63
1, 968566, Control_c, 0, 67, 74
1, 968581, Control_c, 0, 67, 75
1, 968587, Note_on_c, 0, 47, 65
1, 968622, Note_off_c, 0, 47, 66
1, 968700, Control_c, 0, 67, 74
1, 968714, Control_c, 0, 67, 74
1, 968724, Note_on_c, 0, 36, 80
1, 968729, Control_c, 0, 67, 73
1, 968757, Note_off_c, 0, 36, 68
1, 968760, Control_c, 0, 67, 73
1, 968848, Note_on_c, 0, 48, 66
1, 968888, Note_off_c, 0, 48, 60
1, 968923, Control_c, 0, 67, 73
1, 968965, Note_on_c, 0, 35, 76
1, 968981, Control_c, 0, 67, 74
1, 968996, Note_off_c, 0, 35, 66
1, 969026, Control_c, 0, 67, 74
1, 969055, Control_c, 0, 67, 75
1, 969056, Note_off_c, 0, 56, 57
1, 969078, Note_on_c, 0, 47, 64
1, 969085, Control_c, 0, 67, 75
1, 969093, Note_off_c, 0, 52, 43
1, 969096, Note_off_c, 0, 44, 55
1, 969100, Control_c, 0, 67, 76
1, 969107, Note_off_c, 0, 47, 65
1, 969232, Note_on_c, 0, 49, 69
1, 969258, Note_on_c, 0, 40, 52
1, 969262, Note_on_c, 0, 44, 42
1, 969329, Control_c, 0, 67, 76
1, 969344, Control_c, 0, 67, 77
1, 969374, Control_c, 0, 67, 77
1, 969383, Note_off_c, 0, 44, 0
1, 969383, Note_on_c, 0, 44, 16
1, 969448, Control_c, 0, 67, 77
1, 969463, Control_c, 0, 67, 76
1, 969478, Control_c, 0, 67, 76
1, 969484, Note_on_c, 0, 32, 61
1, 969508, Control_c, 0, 67, 75
1, 969517, Note_off_c, 0, 32, 63
1, 969598, Note_on_c, 0, 47, 59
1, 969612, Control_c, 0, 67, 76
1, 969644, Note_off_c, 0, 47, 63
1, 969716, Control_c, 0, 67, 75
1, 969731, Control_c, 0, 67, 75
1, 969733, Note_on_c, 0, 34, 66
1, 969761, Note_off_c, 0, 34, 63
1, 969834, Control_c, 0, 67, 75
1, 969861, Note_on_c, 0, 46, 55
1, 969892, Note_off_c, 0, 46, 64
1, 969952, Control_c, 0, 67, 75
1, 969966, Note_on_c, 0, 32, 63
1, 970007, Note_off_c, 0, 32, 63
1, 970098, Note_on_c, 0, 47, 52
1, 970159, Note_off_c, 0, 47, 61
1, 970197, Control_c, 0, 67, 74
1, 970226, Note_on_c, 0, 34, 56
1, 970241, Control_c, 0, 67, 74
1, 970257, Note_off_c, 0, 34, 62
1, 970316, Control_c, 0, 67, 74
1, 970354, Note_on_c, 0, 46, 51
1, 970387, Note_off_c, 0, 46, 64
1, 970435, Control_c, 0, 67, 74
1, 970468, Note_on_c, 0, 32, 62
1, 970499, Note_off_c, 0, 32, 62
1, 970581, Note_on_c, 0, 47, 50
1, 970622, Note_off_c, 0, 47, 64
1, 970709, Note_on_c, 0, 34, 60
1, 970745, Note_off_c, 0, 34, 65
1, 970846, Note_on_c, 0, 46, 50
1, 970886, Note_off_c, 0, 46, 60
1, 970967, Note_on_c, 0, 32, 56
1, 971006, Note_off_c, 0, 32, 59
1, 971082, Note_on_c, 0, 47, 41
1, 971135, Note_off_c, 0, 47, 61
1, 971211, Note_on_c, 0, 34, 53
1, 971248, Note_off_c, 0, 34, 63
1, 971329, Note_on_c, 0, 46, 43
1, 971368, Note_off_c, 0, 46, 61
1, 971453, Note_on_c, 0, 32, 48
1, 971506, Note_off_c, 0, 32, 60
1, 971568, Note_on_c, 0, 47, 38
1, 971634, Note_off_c, 0, 47, 64
1, 971709, Note_on_c, 0, 34, 46
1, 971750, Note_off_c, 0, 34, 58
1, 971839, Note_on_c, 0, 46, 41
1, 971872, Note_off_c, 0, 46, 58
1, 971952, Note_on_c, 0, 32, 53
1, 971988, Note_off_c, 0, 32, 62
1, 972074, Note_on_c, 0, 47, 46
1, 972125, Note_off_c, 0, 47, 63
1, 972214, Note_on_c, 0, 34, 47
1, 972267, Note_off_c, 0, 34, 59
1, 972479, Note_on_c, 0, 46, 38
1, 972514, Note_off_c, 0, 46, 63
1, 972621, Control_c, 0, 67, 74
1, 972727, Note_on_c, 0, 32, 44
1, 972770, Note_off_c, 0, 32, 61
1, 972829, Control_c, 0, 67, 74
1, 972859, Control_c, 0, 67, 73
1, 972874, Control_c, 0, 67, 73
1, 972903, Control_c, 0, 67, 72
1, 972933, Control_c, 0, 64, 36
1, 972948, Control_c, 0, 64, 43
1, 972963, Control_c, 0, 64, 49
1, 972964, Note_on_c, 0, 47, 48
1, 972978, Control_c, 0, 64, 51
1, 972979, Note_off_c, 0, 40, 54
1, 973000, Control_c, 0, 64, 48
1, 973000, Control_c, 0, 67, 73
1, 973010, Note_off_c, 0, 47, 65
1, 973015, Control_c, 0, 64, 33
1, 973015, Control_c, 0, 67, 75
1, 973016, Note_off_c, 0, 44, 58
1, 973029, Control_c, 0, 64, 0
1, 973029, Control_c, 0, 67, 77
1, 973030, Note_off_c, 0, 49, 57
1, 973044, Control_c, 0, 67, 78
1, 973059, Control_c, 0, 67, 78
1, 973074, Control_c, 0, 67, 80
1, 973089, Control_c, 0, 67, 81
1, 973103, Control_c, 0, 67, 88
1, 973118, Control_c, 0, 67, 96
1, 973133, Control_c, 0, 67, 99
1, 973208, Control_c, 0, 67, 101
1, 973222, Note_on_c, 0, 46, 46
1, 973222, Control_c, 0, 67, 104
1, 973226, Note_on_c, 0, 34, 45
1, 973245, Note_on_c, 0, 58, 64
1, 973255, Note_off_c, 0, 46, 54
1, 973258, Note_off_c, 0, 34, 50
1, 973267, Control_c, 0, 67, 106
1, 973276, Note_off_c, 0, 58, 68
1, 973319, Note_on_c, 0, 62, 60
1, 973359, Note_off_c, 0, 62, 60
1, 973386, Control_c, 0, 67, 104
1, 973387, Note_on_c, 0, 65, 65
1, 973440, Note_off_c, 0, 65, 64
1, 973452, Note_on_c, 0, 39, 53
1, 973453, Note_on_c, 0, 59, 62
1, 973465, Note_on_c, 0, 51, 36
1, 973480, Note_off_c, 0, 39, 56
1, 973494, Note_off_c, 0, 59, 61
1, 973505, Note_off_c, 0, 51, 31
1, 973524, Note_on_c, 0, 63, 58
1, 973589, Note_off_c, 0, 63, 59
1, 973602, Note_on_c, 0, 65, 62
1, 973639, Control_c, 0, 67, 101
1, 973653, Control_c, 0, 67, 99
1, 973662, Note_on_c, 0, 56, 80
1, 973669, Note_on_c, 0, 60, 67
1, 973673, Note_off_c, 0, 65, 62
1, 973676, Note_on_c, 0, 44, 63
1, 973683, Control_c, 0, 67, 96
1, 973685, Note_off_c, 0, 56, 69
1, 973702, Note_off_c, 0, 44, 64
1, 973714, Note_off_c, 0, 60, 62
1, 973754, Note_on_c, 0, 64, 55
1, 973794, Control_c, 0, 67, 98
1, 973800, Note_off_c, 0, 64, 62
1, 973821, Note_on_c, 0, 65, 63
1, 973902, Note_on_c, 0, 51, 76
1, 973902, Note_on_c, 0, 59, 58
1, 973908, Note_off_c, 0, 65, 61
1, 973914, Note_on_c, 0, 39, 61
1, 973926, Note_off_c, 0, 51, 66
1, 973943, Note_off_c, 0, 39, 62
1, 973967, Note_off_c, 0, 59, 62
1, 973977, Note_on_c, 0, 63, 62
1, 974045, Control_c, 0, 67, 100
1, 974050, Note_off_c, 0, 63, 61
1, 974060, Note_on_c, 0, 65, 61
1, 974108, Note_off_c, 0, 65, 63
1, 974126, Note_on_c, 0, 58, 68
1, 974138, Note_on_c, 0, 46, 62
1, 974149, Control_c, 0, 64, 35
1, 974150, Note_off_c, 0, 58, 67
1, 974155, Note_on_c, 0, 34, 41
1, 974164, Control_c, 0, 64, 34
1, 974178, Control_c, 0, 64, 38
1, 974193, Control_c, 0, 64, 46
1, 974204, Note_on_c, 0, 62, 71
1, 974208, Control_c, 0, 64, 53
1, 974223, Control_c, 0, 64, 57
1, 974223, Control_c, 0, 67, 98
1, 974238, Control_c, 0, 64, 58
1, 974247, Note_off_c, 0, 62, 60
1, 974252, Control_c, 0, 64, 59
1, 974267, Control_c, 0, 64, 60
1, 974272, Note_on_c, 0, 65, 71
1, 974282, Control_c, 0, 64, 61
1, 974296, Control_c, 0, 64, 62
1, 974311, Control_c, 0, 64, 62
1, 974319, Note_off_c, 0, 34, 58
1, 974320, Note_off_c, 0, 65, 63
1, 974328, Note_off_c, 0, 46, 62
1, 974337, Note_on_c, 0, 70, 77
1, 974357, Control_c, 0, 64, 62
1, 974358, Note_off_c, 0, 70, 71
1, 974403, Note_on_c, 0, 74, 78
1, 974416, Control_c, 0, 64, 61
1, 974416, Control_c, 0, 67, 95
1, 974429, Note_off_c, 0, 74, 64
1, 974431, Control_c, 0, 64, 61
1, 974431, Control_c, 0, 67, 95
1, 974446, Control_c, 0, 64, 60
1, 974446, Control_c, 0, 67, 94
1, 974471, Note_on_c, 0, 77, 71
1, 974475, Control_c, 0, 67, 95
1, 974513, Control_c, 0, 67, 95
1, 974524, Note_off_c, 0, 77, 60
1, 974527, Control_c, 0, 64, 58
1, 974539, Note_on_c, 0, 82, 92
1, 974542, Control_c, 0, 64, 36
1, 974557, Control_c, 0, 64, 0
1, 974557, Control_c, 0, 67, 97
1, 974773, Note_on_c, 0, 63, 67
1, 974775, Note_on_c, 0, 56, 58
1, 974791, Note_on_c, 0, 60, 36
1, 974799, Note_off_c, 0, 63, 67
1, 974804, Note_off_c, 0, 56, 62
1, 974823, Note_off_c, 0, 60, 54
1, 975016, Note_on_c, 0, 61, 59
1, 975031, Note_on_c, 0, 58, 47
1, 975037, Note_on_c, 0, 54, 40
1, 975092, Note_off_c, 0, 82, 59
1, 975101, Note_on_c, 0, 84, 70
1, 975170, Note_off_c, 0, 84, 59
1, 975180, Note_on_c, 0, 80, 72
1, 975195, Control_c, 0, 64, 31
1, 975209, Control_c, 0, 64, 32
1, 975220, Note_off_c, 0, 61, 0
1, 975220, Note_on_c, 0, 61, 5
1, 975224, Control_c, 0, 64, 34
1, 975246, Control_c, 0, 64, 36
1, 975249, Note_off_c, 0, 80, 56
1, 975252, Note_on_c, 0, 75, 64
1, 975261, Control_c, 0, 64, 39
1, 975276, Control_c, 0, 64, 42
1, 975288, Note_off_c, 0, 75, 62
1, 975291, Control_c, 0, 64, 45
1, 975306, Control_c, 0, 64, 47
1, 975315, Note_on_c, 0, 72, 68
1, 975321, Control_c, 0, 64, 47
1, 975349, Note_off_c, 0, 72, 62
1, 975369, Note_off_c, 0, 58, 35
1, 975383, Note_on_c, 0, 68, 61
1, 975410, Control_c, 0, 64, 48
1, 975424, Control_c, 0, 64, 50
1, 975439, Control_c, 0, 64, 53
1, 975449, Note_off_c, 0, 68, 65
1, 975451, Note_off_c, 0, 61, 57
1, 975455, Control_c, 0, 64, 56
1, 975462, Note_on_c, 0, 82, 85
1, 975469, Control_c, 0, 64, 60
1, 975479, Note_off_c, 0, 54, 60
1, 975484, Control_c, 0, 64, 64
1, 975499, Control_c, 0, 64, 66
1, 975514, Control_c, 0, 64, 68
1, 975514, Control_c, 0, 67, 96
1, 975529, Control_c, 0, 64, 70
1, 975529, Control_c, 0, 67, 95
1, 975543, Control_c, 0, 64, 70
1, 975558, Control_c, 0, 64, 71
1, 975573, Control_c, 0, 64, 71
1, 975588, Control_c, 0, 67, 95
1, 975662, Control_c, 0, 64, 71
1, 975676, Control_c, 0, 64, 67
1, 975676, Control_c, 0, 67, 94
1, 975691, Control_c, 0, 64, 58
1, 975691, Control_c, 0, 67, 94
1, 975699, Note_on_c, 0, 56, 68
1, 975702, Note_on_c, 0, 59, 64
1, 975704, Note_on_c, 0, 52, 55
1, 975706, Control_c, 0, 64, 33
1, 975706, Control_c, 0, 67, 93
1, 975721, Control_c, 0, 64, 0
1, 975726, Note_off_c, 0, 56, 64
1, 975728, Note_off_c, 0, 59, 68
1, 975735, Note_off_c, 0, 52, 65
1, 975750, Control_c, 0, 67, 94
1, 975765, Control_c, 0, 67, 94
1, 975810, Control_c, 0, 67, 95
1, 975824, Control_c, 0, 67, 95
1, 975854, Control_c, 0, 67, 96
1, 975884, Control_c, 0, 67, 95
1, 975939, Note_on_c, 0, 58, 74
1, 975954, Note_on_c, 0, 55, 56
1, 975961, Note_on_c, 0, 51, 49
1, 976023, Note_off_c, 0, 82, 61
1, 976024, Note_on_c, 0, 80, 74
1, 976097, Note_on_c, 0, 76, 72
1, 976098, Note_off_c, 0, 80, 65
1, 976134, Note_off_c, 0, 76, 65
1, 976161, Note_on_c, 0, 71, 69
1, 976200, Note_off_c, 0, 71, 63
1, 976203, Control_c, 0, 67, 97
1, 976230, Note_on_c, 0, 68, 77
1, 976298, Note_on_c, 0, 63, 70
1, 976312, Note_off_c, 0, 68, 59
1, 976366, Control_c, 0, 67, 96
1, 976377, Note_off_c, 0, 55, 63
1, 976379, Note_off_c, 0, 58, 66
1, 976381, Note_on_c, 0, 70, 80
1, 976381, Control_c, 0, 67, 95
1, 976384, Note_off_c, 0, 63, 63
1, 976398, Note_off_c, 0, 51, 64
1, 976441, Control_c, 0, 67, 96
1, 976499, Control_c, 0, 67, 98
1, 976618, Control_c, 0, 64, 32
1, 976623, Note_off_c, 0, 70, 64
1, 976633, Control_c, 0, 64, 56
1, 976637, Note_on_c, 0, 50, 59
1, 976647, Control_c, 0, 64, 57
1, 976677, Control_c, 0, 64, 58
1, 976692, Control_c, 0, 64, 59
1, 976694, Note_on_c, 0, 46, 64
1, 976707, Control_c, 0, 64, 60
1, 976713, Note_off_c, 0, 50, 46
1, 976745, Control_c, 0, 64, 60
1, 976768, Note_off_c, 0, 46, 63
1, 976769, Note_on_c, 0, 43, 65
1, 976831, Note_on_c, 0, 39, 80
1, 976831, Note_off_c, 0, 43, 65
1, 976834, Control_c, 0, 64, 54
1, 976834, Control_c, 0, 67, 96
1, 976838, Note_on_c, 0, 51, 69
1, 976849, Control_c, 0, 64, 0
1, 976849, Control_c, 0, 67, 96
1, 976859, Note_off_c, 0, 39, 66
1, 976864, Control_c, 0, 67, 95
1, 976888, Note_off_c, 0, 51, 60
1, 976921, Note_on_c, 0, 55, 59
1, 976937, Control_c, 0, 67, 96
1, 976971, Note_off_c, 0, 55, 59
1, 976996, Note_on_c, 0, 58, 57
1, 977041, Control_c, 0, 67, 95
1, 977069, Note_on_c, 0, 52, 59
1, 977070, Note_on_c, 0, 40, 67
1, 977082, Note_off_c, 0, 58, 56
1, 977099, Note_off_c, 0, 40, 65
1, 977123, Note_off_c, 0, 52, 60
1, 977148, Note_on_c, 0, 56, 57
1, 977219, Note_off_c, 0, 56, 60
1, 977222, Note_on_c, 0, 58, 58
1, 977306, Note_on_c, 0, 31, 73
1, 977306, Note_on_c, 0, 53, 57
1, 977321, Note_off_c, 0, 58, 62
1, 977322, Control_c, 0, 67, 95
1, 977332, Note_off_c, 0, 31, 63
1, 977371, Note_off_c, 0, 53, 62
1, 977383, Note_on_c, 0, 57, 59
1, 977450, Note_off_c, 0, 57, 62
1, 977465, Note_on_c, 0, 58, 63
1, 977540, Note_on_c, 0, 34, 77
1, 977540, Note_on_c, 0, 52, 58
1, 977562, Note_off_c, 0, 34, 65
1, 977563, Note_off_c, 0, 58, 57
1, 977610, Note_on_c, 0, 56, 72
1, 977610, Note_off_c, 0, 52, 61
1, 977678, Note_off_c, 0, 56, 62
1, 977689, Note_on_c, 0, 58, 72
1, 977729, Control_c, 0, 67, 94
1, 977743, Note_off_c, 0, 58, 64
1, 977754, Note_on_c, 0, 51, 68
1, 977756, Note_on_c, 0, 39, 89
1, 977759, Control_c, 0, 64, 41
1, 977774, Control_c, 0, 64, 57
1, 977777, Note_off_c, 0, 51, 66
1, 977789, Control_c, 0, 64, 54
1, 977789, Control_c, 0, 67, 93
1, 977804, Control_c, 0, 64, 40
1, 977804, Control_c, 0, 67, 92
1, 977818, Control_c, 0, 64, 0
1, 977818, Control_c, 0, 67, 91
1, 977821, Note_on_c, 0, 55, 72
1, 977833, Control_c, 0, 67, 90
1, 977848, Control_c, 0, 67, 90
1, 977862, Control_c, 0, 67, 89
1, 977877, Control_c, 0, 67, 88
1, 977887, Note_off_c, 0, 55, 63
1, 977896, Note_on_c, 0, 58, 78
1, 977907, Control_c, 0, 67, 88
1, 977922, Control_c, 0, 64, 31
1, 977922, Control_c, 0, 67, 87
1, 977936, Control_c, 0, 64, 43
1, 977951, Control_c, 0, 64, 51
1, 977951, Control_c, 0, 67, 86
1, 977956, Note_off_c, 0, 58, 65
1, 977968, Note_on_c, 0, 63, 77
1, 977981, Control_c, 0, 64, 47
1, 977981, Control_c, 0, 67, 85
1, 977989, Note_off_c, 0, 63, 69
1, 977996, Control_c, 0, 64, 40
1, 977996, Control_c, 0, 67, 84
1, 978010, Control_c, 0, 64, 0
1, 978010, Control_c, 0, 67, 83
1, 978025, Control_c, 0, 67, 83
1, 978035, Note_on_c, 0, 67, 79
1, 978079, Note_off_c, 0, 67, 63
1, 978102, Note_on_c, 0, 70, 79
1, 978113, Note_off_c, 0, 39, 63
1, 978149, Note_off_c, 0, 70, 66
1, 978176, Note_on_c, 0, 75, 88
1, 978188, Control_c, 0, 67, 82
1, 978203, Control_c, 0, 67, 81
1, 978218, Control_c, 0, 67, 75
1, 978233, Control_c, 0, 67, 60
1, 978255, Control_c, 0, 64, 52
1, 978255, Control_c, 0, 67, 35
1, 978269, Control_c, 0, 64, 73
1, 978269, Control_c, 0, 67, 0
1, 978284, Control_c, 0, 64, 81
1, 978299, Control_c, 0, 64, 90
1, 978315, Control_c, 0, 64, 91
1, 978330, Control_c, 0, 64, 93
1, 978345, Control_c, 0, 64, 96
1, 978360, Control_c, 0, 64, 101
1, 978373, Note_off_c, 0, 75, 65
1, 978374, Control_c, 0, 64, 127
1, 978422, Note_on_c, 0, 37, 91
1, 978449, Control_c, 0, 64, 115
1, 978455, Note_off_c, 0, 37, 66
1, 978464, Control_c, 0, 64, 60
1, 978479, Control_c, 0, 64, 0
1, 978650, Note_on_c, 0, 35, 93
1, 978651, Note_on_c, 0, 47, 103
1, 978652, Note_on_c, 0, 83, 104
1, 978671, Control_c, 0, 64, 84
1, 978680, Note_off_c, 0, 47, 68
1, 978686, Control_c, 0, 64, 127
1, 978689, Note_off_c, 0, 35, 61
1, 978725, Note_on_c, 0, 78, 96
1, 978752, Note_off_c, 0, 83, 64
1, 978772, Note_off_c, 0, 78, 68
1, 978793, Note_on_c, 0, 75, 86
1, 978811, Note_off_c, 0, 75, 72
1, 978867, Note_on_c, 0, 74, 90
1, 978938, Note_off_c, 0, 74, 65
1, 978939, Note_on_c, 0, 69, 87
1, 979007, Note_on_c, 0, 66, 89
1, 979008, Note_off_c, 0, 69, 65
1, 979024, Note_off_c, 0, 66, 74
1, 979064, Control_c, 0, 64, 75
1, 979079, Control_c, 0, 64, 47
1, 979093, Control_c, 0, 64, 0
1, 979094, Note_on_c, 0, 65, 96
1, 979157, Note_on_c, 0, 60, 84
1, 979163, Note_off_c, 0, 65, 66
1, 979224, Note_off_c, 0, 60, 65
1, 979232, Note_on_c, 0, 57, 75
1, 979273, Note_off_c, 0, 57, 64
1, 979293, Note_on_c, 0, 56, 70
1, 979361, Note_off_c, 0, 56, 62
1, 979365, Note_on_c, 0, 51, 77
1, 979376, Control_c, 0, 64, 36
1, 979390, Control_c, 0, 64, 61
1, 979405, Control_c, 0, 64, 57
1, 979420, Control_c, 0, 64, 31
1, 979424, Note_off_c, 0, 51, 64
1, 979434, Control_c, 0, 64, 0
1, 979438, Note_on_c, 0, 47, 63
1, 979479, Note_on_c, 0, 46, 76
1, 979490, Note_off_c, 0, 47, 64
1, 979506, Note_off_c, 0, 46, 66
1, 979509, Note_on_c, 0, 49, 85
1, 979539, Control_c, 0, 64, 52
1, 979547, Note_off_c, 0, 49, 68
1, 979553, Control_c, 0, 64, 78
1, 979568, Control_c, 0, 64, 113
1, 979583, Note_on_c, 0, 50, 88
1, 979583, Control_c, 0, 64, 127
1, 979598, Control_c, 0, 64, 111
1, 979613, Control_c, 0, 64, 68
1, 979628, Control_c, 0, 64, 0
1, 979643, Note_off_c, 0, 50, 63
1, 979652, Note_on_c, 0, 53, 81
1, 979704, Note_on_c, 0, 34, 102
1, 979715, Note_on_c, 0, 58, 93
1, 979720, Note_off_c, 0, 53, 65
1, 979726, Note_off_c, 0, 34, 71
1, 979738, Control_c, 0, 64, 58
1, 979752, Note_off_c, 0, 58, 68
1, 979753, Control_c, 0, 64, 93
1, 979768, Control_c, 0, 64, 104
1, 979783, Control_c, 0, 64, 83
1, 979796, Note_on_c, 0, 62, 94
1, 979798, Control_c, 0, 64, 52
1, 979813, Control_c, 0, 64, 0
1, 979864, Note_on_c, 0, 65, 91
1, 979871, Note_off_c, 0, 62, 61
1, 979932, Note_off_c, 0, 65, 67
1, 979936, Note_on_c, 0, 70, 107
1, 979938, Note_on_c, 0, 58, 116
1, 979959, Note_on_c, 0, 59, 72
1, 979962, Control_c, 0, 64, 34
1, 979965, Note_off_c, 0, 70, 70
1, 979977, Control_c, 0, 64, 69
1, 979977, Note_off_c, 0, 59, 66
1, 979992, Control_c, 0, 64, 104
1, 980006, Control_c, 0, 64, 127
1, 980010, Note_on_c, 0, 59, 48
1, 980037, Note_on_c, 0, 60, 31
1, 980112, Poly_aftertouch_c, 0, 56, 127
1, 980139, Control_c, 0, 64, 104
1, 980154, Control_c, 0, 64, 68
1, 980156, Poly_aftertouch_c, 0, 56, 0
1, 980169, Control_c, 0, 64, 0
1, 980176, Note_off_c, 0, 59, 0
1, 980179, Note_on_c, 0, 82, 91
1, 980182, Note_off_c, 0, 60, 21
1, 980213, Poly_aftertouch_c, 0, 59, 127
1, 980254, Note_on_c, 0, 86, 90
1, 980263, Note_off_c, 0, 82, 62
1, 980263, Poly_aftertouch_c, 0, 59, 0
1, 980323, Note_on_c, 0, 89, 92
1, 980323, Note_off_c, 0, 86, 64
1, 980392, Note_off_c, 0, 89, 65
1, 980398, Note_on_c, 0, 63, 94
1, 980403, Note_on_c, 0, 83, 92
1, 980436, Control_c, 0, 64, 61
1, 980451, Control_c, 0, 64, 82
1, 980465, Control_c, 0, 64, 112
1, 980475, Note_on_c, 0, 87, 87
1, 980487, Control_c, 0, 64, 127
1, 980495, Note_off_c, 0, 83, 64
1, 980556, Note_on_c, 0, 89, 90
1, 980562, Note_off_c, 0, 87, 67
1, 980606, Control_c, 0, 64, 110
1, 980618, Note_off_c, 0, 63, 57
1, 980621, Control_c, 0, 64, 68
1, 980632, Note_on_c, 0, 64, 94
1, 980635, Control_c, 0, 64, 30
1, 980638, Note_off_c, 0, 89, 62
1, 980640, Note_on_c, 0, 84, 94
1, 980650, Control_c, 0, 64, 0
1, 980665, Note_on_c, 0, 63, 21
1, 980695, Control_c, 0, 64, 55
1, 980701, Note_off_c, 0, 63, 45
1, 980710, Control_c, 0, 64, 68
1, 980711, Note_on_c, 0, 88, 93
1, 980725, Control_c, 0, 64, 75
1, 980728, Note_off_c, 0, 84, 62
1, 980740, Control_c, 0, 64, 83
1, 980755, Control_c, 0, 64, 90
1, 980770, Control_c, 0, 64, 97
1, 980776, Note_on_c, 0, 89, 90
1, 980783, Note_off_c, 0, 88, 66
1, 980785, Control_c, 0, 64, 104
1, 980799, Control_c, 0, 64, 107
1, 980814, Control_c, 0, 64, 96
1, 980829, Control_c, 0, 64, 70
1, 980844, Control_c, 0, 64, 0
1, 980850, Note_off_c, 0, 64, 60
1, 980853, Note_on_c, 0, 68, 101
1, 980854, Note_off_c, 0, 89, 63
1, 980863, Note_on_c, 0, 83, 93
1, 980888, Control_c, 0, 64, 38
1, 980903, Control_c, 0, 64, 69
1, 980918, Control_c, 0, 64, 92
1, 980931, Note_off_c, 0, 83, 63
1, 980933, Control_c, 0, 64, 127
1, 980934, Note_on_c, 0, 87, 94
1, 980977, Control_c, 0, 64, 113
1, 980984, Note_off_c, 0, 68, 64
1, 980992, Control_c, 0, 64, 75
1, 981005, Note_on_c, 0, 89, 94
1, 981007, Control_c, 0, 64, 53
1, 981014, Note_off_c, 0, 87, 64
1, 981021, Control_c, 0, 64, 0
1, 981066, Control_c, 0, 64, 57
1, 981080, Control_c, 0, 64, 73
1, 981083, Note_on_c, 0, 82, 94
1, 981083, Note_on_c, 0, 70, 101
1, 981094, Note_off_c, 0, 89, 63
1, 981095, Control_c, 0, 64, 97
1, 981110, Control_c, 0, 64, 127
1, 981124, Note_off_c, 0, 58, 61
1, 981132, Note_off_c, 0, 82, 66
1, 981137, Note_off_c, 0, 70, 65
1, 981147, Note_on_c, 0, 86, 88
1, 981193, Note_off_c, 0, 86, 65
1, 981199, Note_on_c, 0, 89, 88
1, 981217, Note_off_c, 0, 89, 73
1, 981266, Control_c, 0, 64, 91
1, 981281, Control_c, 0, 64, 64
1, 981281, Control_c, 0, 67, 21
1, 981295, Control_c, 0, 64, 0
1, 981295, Control_c, 0, 67, 28
1, 981310, Control_c, 0, 67, 37
1, 981318, Note_on_c, 0, 68, 83
1, 981325, Control_c, 0, 67, 50
1, 981333, Note_on_c, 0, 58, 73
1, 981340, Control_c, 0, 67, 64
1, 981355, Control_c, 0, 67, 75
1, 981369, Control_c, 0, 67, 84
1, 981372, Note_off_c, 0, 68, 64
1, 981384, Control_c, 0, 67, 90
1, 981395, Note_on_c, 0, 77, 74
1, 981399, Control_c, 0, 67, 94
1, 981413, Control_c, 0, 67, 96
1, 981470, Note_on_c, 0, 73, 77
1, 981472, Note_off_c, 0, 77, 62
1, 981519, Note_off_c, 0, 73, 58
1, 981539, Note_off_c, 0, 58, 51
1, 981548, Note_on_c, 0, 70, 71
1, 981554, Note_on_c, 0, 56, 62
1, 981609, Note_off_c, 0, 70, 64
1, 981629, Note_on_c, 0, 78, 71
1, 981700, Note_off_c, 0, 78, 63
1, 981706, Note_on_c, 0, 75, 67
1, 981724, Note_off_c, 0, 56, 57
1, 981738, Note_off_c, 0, 75, 63
1, 981756, Control_c, 0, 67, 96
1, 981771, Note_on_c, 0, 54, 49
1, 981775, Note_on_c, 0, 71, 71
1, 981785, Control_c, 0, 67, 95
1, 981800, Control_c, 0, 64, 30
1, 981815, Control_c, 0, 64, 0
1, 981825, Note_off_c, 0, 71, 61
1, 981846, Note_on_c, 0, 80, 77
1, 981873, Note_off_c, 0, 80, 65
1, 981874, Control_c, 0, 67, 94
1, 981918, Control_c, 0, 67, 94
1, 981926, Note_on_c, 0, 81, 79
1, 981963, Control_c, 0, 67, 93
1, 981995, Note_on_c, 0, 53, 48
1, 982000, Control_c, 0, 67, 92
1, 982002, Note_on_c, 0, 77, 79
1, 982002, Note_off_c, 0, 54, 59
1, 982004, Note_off_c, 0, 81, 63
1, 982015, Control_c, 0, 67, 92
1, 982029, Note_off_c, 0, 53, 63
1, 982030, Control_c, 0, 64, 42
1, 982030, Control_c, 0, 67, 91
1, 982044, Control_c, 0, 64, 55
1, 982059, Control_c, 0, 64, 59
1, 982071, Note_on_c, 0, 72, 74
1, 982074, Note_off_c, 0, 77, 63
1, 982074, Control_c, 0, 64, 61
1, 982107, Note_off_c, 0, 72, 64
1, 982118, Control_c, 0, 67, 92
1, 982133, Control_c, 0, 64, 60
1, 982136, Note_on_c, 0, 69, 71
1, 982148, Control_c, 0, 64, 59
1, 982163, Control_c, 0, 64, 53
1, 982178, Control_c, 0, 64, 38
1, 982192, Control_c, 0, 64, 0
1, 982194, Note_off_c, 0, 69, 55
1, 982209, Note_on_c, 0, 58, 79
1, 982211, Note_on_c, 0, 70, 81
1, 982222, Control_c, 0, 64, 43
1, 982233, Note_off_c, 0, 58, 69
1, 982236, Control_c, 0, 64, 61
1, 982251, Control_c, 0, 64, 68
1, 982266, Control_c, 0, 64, 73
1, 982272, Note_on_c, 0, 65, 74
1, 982281, Control_c, 0, 64, 75
1, 982281, Control_c, 0, 67, 91
1, 982296, Control_c, 0, 67, 91
1, 982302, Note_off_c, 0, 70, 61
1, 982312, Control_c, 0, 67, 90
1, 982327, Control_c, 0, 67, 90
1, 982329, Note_off_c, 0, 65, 65
1, 982352, Note_on_c, 0, 46, 77
1, 982352, Note_on_c, 0, 62, 66
1, 982356, Control_c, 0, 64, 72
1, 982371, Control_c, 0, 64, 58
1, 982380, Note_off_c, 0, 62, 66
1, 982382, Note_off_c, 0, 46, 68
1, 982386, Control_c, 0, 64, 0
1, 982386, Control_c, 0, 67, 88
1, 982401, Control_c, 0, 67, 86
1, 982415, Control_c, 0, 67, 84
1, 982430, Control_c, 0, 64, 40
1, 982430, Control_c, 0, 67, 82
1, 982432, Note_on_c, 0, 46, 83
1, 982445, Control_c, 0, 64, 62
1, 982445, Control_c, 0, 67, 81
1, 982460, Control_c, 0, 64, 61
1, 982460, Control_c, 0, 67, 80
1, 982465, Note_off_c, 0, 46, 65
1, 982475, Control_c, 0, 64, 55
1, 982490, Control_c, 0, 64, 32
1, 982505, Control_c, 0, 64, 0
1, 982505, Control_c, 0, 67, 81
1, 982507, Note_on_c, 0, 50, 72
1, 982534, Control_c, 0, 64, 36
1, 982549, Control_c, 0, 64, 48
1, 982564, Control_c, 0, 64, 50
1, 982571, Note_off_c, 0, 50, 62
1, 982578, Control_c, 0, 64, 52
1, 982593, Control_c, 0, 64, 56
1, 982596, Note_on_c, 0, 53, 59
1, 982608, Control_c, 0, 64, 61
1, 982608, Control_c, 0, 67, 81
1, 982609, Note_on_c, 0, 54, 55
1, 982623, Control_c, 0, 64, 63
1, 982627, Note_off_c, 0, 53, 64
1, 982635, Note_off_c, 0, 54, 58
1, 982660, Note_on_c, 0, 57, 69
1, 982682, Control_c, 0, 67, 81
1, 982697, Control_c, 0, 67, 80
1, 982712, Control_c, 0, 67, 78
1, 982719, Note_on_c, 0, 62, 66
1, 982724, Note_off_c, 0, 57, 64
1, 982734, Control_c, 0, 67, 75
1, 982749, Control_c, 0, 67, 65
1, 982764, Control_c, 0, 67, 51
1, 982779, Control_c, 0, 67, 37
1, 982784, Note_on_c, 0, 65, 77
1, 982792, Note_off_c, 0, 62, 59
1, 982793, Control_c, 0, 67, 21
1, 982808, Control_c, 0, 64, 64
1, 982808, Control_c, 0, 67, 0
1, 982823, Control_c, 0, 64, 64
1, 982829, Note_off_c, 0, 65, 66
1, 982838, Control_c, 0, 64, 66
1, 982853, Control_c, 0, 64, 70
1, 982862, Note_on_c, 0, 70, 103
1, 982867, Control_c, 0, 64, 85
1, 982882, Control_c, 0, 64, 127
1, 982887, Note_off_c, 0, 70, 72
1, 982941, Control_c, 0, 64, 86
1, 982956, Control_c, 0, 64, 56
1, 982971, Control_c, 0, 64, 0
1, 983015, Control_c, 0, 67, 22
1, 983030, Control_c, 0, 67, 27
1, 983045, Control_c, 0, 67, 30
1, 983138, Note_on_c, 0, 34, 69
1, 983208, Control_c, 0, 64, 36
1, 983217, Note_on_c, 0, 38, 68
1, 983223, Control_c, 0, 64, 55
1, 983223, Control_c, 0, 67, 27
1, 983238, Control_c, 0, 64, 62
1, 983253, Control_c, 0, 64, 64
1, 983253, Control_c, 0, 67, 25
1, 983268, Control_c, 0, 64, 64
1, 983283, Note_on_c, 0, 41, 82
1, 983283, Control_c, 0, 64, 66
1, 983283, Control_c, 0, 67, 23
1, 983286, Note_off_c, 0, 38, 61
1, 983297, Control_c, 0, 64, 68
1, 983312, Control_c, 0, 64, 76
1, 983312, Control_c, 0, 67, 20
1, 983326, Note_off_c, 0, 34, 48
1, 983326, Note_off_c, 0, 41, 62
1, 983327, Control_c, 0, 64, 88
1, 983327, Control_c, 0, 67, 0
1, 983342, Control_c, 0, 64, 110
1, 983354, Note_on_c, 0, 45, 87
1, 983357, Control_c, 0, 64, 127
1, 983404, Note_on_c, 0, 50, 81
1, 983420, Note_off_c, 0, 45, 63
1, 983469, Note_on_c, 0, 53, 92
1, 983485, Note_off_c, 0, 50, 66
1, 983518, Note_off_c, 0, 53, 69
1, 983571, Note_on_c, 0, 58, 114
1, 983616, Control_c, 0, 64, 74
1, 983631, Control_c, 0, 64, 0
1, 983824, Control_c, 0, 64, 30
1, 983839, Control_c, 0, 64, 0
1, 983843, Note_on_c, 0, 70, 88
1, 983844, Note_on_c, 0, 46, 67
1, 983883, Control_c, 0, 67, 20
1, 983898, Control_c, 0, 67, 26
1, 983899, Note_off_c, 0, 70, 65
1, 983914, Control_c, 0, 67, 30
1, 983921, Note_on_c, 0, 74, 81
1, 983929, Control_c, 0, 67, 33
1, 983944, Control_c, 0, 67, 35
1, 983959, Control_c, 0, 67, 38
1, 983970, Note_off_c, 0, 74, 62
1, 983974, Control_c, 0, 67, 41
1, 983986, Note_on_c, 0, 77, 84
1, 983988, Control_c, 0, 67, 44
1, 984003, Control_c, 0, 67, 46
1, 984031, Note_off_c, 0, 77, 67
1, 984062, Control_c, 0, 64, 40
1, 984062, Control_c, 0, 67, 46
1, 984064, Note_on_c, 0, 51, 71
1, 984071, Note_on_c, 0, 71, 84
1, 984072, Note_off_c, 0, 46, 61
1, 984077, Control_c, 0, 64, 54
1, 984092, Control_c, 0, 64, 38
1, 984106, Control_c, 0, 64, 0
1, 984122, Note_off_c, 0, 71, 65
1, 984139, Note_on_c, 0, 75, 79
1, 984201, Note_off_c, 0, 75, 67
1, 984219, Note_on_c, 0, 77, 83
1, 984247, Control_c, 0, 67, 45
1, 984262, Control_c, 0, 67, 45
1, 984277, Control_c, 0, 67, 44
1, 984292, Control_c, 0, 67, 43
1, 984294, Note_off_c, 0, 51, 55
1, 984295, Note_on_c, 0, 52, 70
1, 984296, Note_off_c, 0, 77, 63
1, 984304, Note_on_c, 0, 72, 74
1, 984306, Control_c, 0, 67, 42
1, 984321, Control_c, 0, 64, 51
1, 984321, Control_c, 0, 67, 41
1, 984336, Control_c, 0, 64, 56
1, 984351, Control_c, 0, 64, 38
1, 984360, Note_off_c, 0, 72, 64
1, 984365, Control_c, 0, 64, 0
1, 984374, Note_on_c, 0, 76, 74
1, 984430, Note_off_c, 0, 76, 63
1, 984439, Note_on_c, 0, 77, 80
1, 984510, Note_off_c, 0, 77, 59
1, 984513, Control_c, 0, 67, 41
1, 984526, Note_on_c, 0, 71, 73
1, 984528, Control_c, 0, 67, 39
1, 984531, Note_on_c, 0, 56, 68
1, 984543, Control_c, 0, 64, 39
1, 984543, Control_c, 0, 67, 38
1, 984557, Control_c, 0, 64, 59
1, 984569, Note_off_c, 0, 58, 58
1, 984572, Control_c, 0, 64, 43
1, 984575, Note_off_c, 0, 52, 62
1, 984581, Note_off_c, 0, 71, 62
1, 984587, Control_c, 0, 64, 0
1, 984604, Note_on_c, 0, 75, 70
1, 984617, Control_c, 0, 67, 38
1, 984631, Control_c, 0, 67, 39
1, 984646, Control_c, 0, 67, 39
1, 984667, Note_off_c, 0, 75, 62
1, 984671, Note_on_c, 0, 77, 74
1, 984715, Note_off_c, 0, 56, 62
1, 984743, Note_off_c, 0, 77, 62
1, 984746, Note_on_c, 0, 58, 66
1, 984752, Note_on_c, 0, 70, 73
1, 984766, Control_c, 0, 67, 39
1, 984780, Control_c, 0, 64, 58
1, 984795, Control_c, 0, 64, 59
1, 984802, Note_off_c, 0, 70, 63
1, 984809, Note_on_c, 0, 74, 73
1, 984810, Control_c, 0, 64, 55
1, 984825, Control_c, 0, 64, 54
1, 984840, Control_c, 0, 64, 55
1, 984853, Note_off_c, 0, 74, 62
1, 984854, Control_c, 0, 64, 56
1, 984867, Note_on_c, 0, 77, 62
1, 984868, Note_off_c, 0, 58, 60
1, 984869, Control_c, 0, 64, 57
1, 984869, Control_c, 0, 67, 39
1, 984883, Note_off_c, 0, 77, 66
1, 984884, Control_c, 0, 64, 53
1, 984884, Control_c, 0, 67, 40
1, 984899, Control_c, 0, 64, 0
1, 984980, Control_c, 0, 67, 39
1, 984986, Note_on_c, 0, 56, 78
1, 984988, Note_on_c, 0, 46, 68
1, 985010, Control_c, 0, 67, 39
1, 985044, Note_off_c, 0, 56, 62
1, 985054, Control_c, 0, 67, 39
1, 985065, Note_on_c, 0, 65, 76
1, 985069, Control_c, 0, 67, 40
1, 985084, Control_c, 0, 67, 41
1, 985099, Control_c, 0, 67, 42
1, 985114, Control_c, 0, 67, 43
1, 985136, Note_off_c, 0, 65, 65
1, 985137, Note_on_c, 0, 61, 72
1, 985175, Note_off_c, 0, 46, 61
1, 985180, Note_off_c, 0, 61, 61
1, 985187, Control_c, 0, 67, 42
1, 985202, Control_c, 0, 67, 41
1, 985214, Note_on_c, 0, 44, 74
1, 985217, Control_c, 0, 67, 40
1, 985222, Note_on_c, 0, 58, 72
1, 985232, Control_c, 0, 67, 39
1, 985247, Control_c, 0, 67, 38
1, 985262, Control_c, 0, 67, 37
1, 985283, Note_off_c, 0, 58, 64
1, 985318, Note_on_c, 0, 66, 62
1, 985351, Control_c, 0, 67, 38
1, 985357, Note_off_c, 0, 44, 59
1, 985366, Control_c, 0, 67, 38
1, 985387, Note_on_c, 0, 63, 52
1, 985387, Note_off_c, 0, 66, 62
1, 985434, Note_off_c, 0, 63, 61
1, 985454, Control_c, 0, 67, 38
1, 985456, Note_on_c, 0, 59, 61
1, 985461, Note_on_c, 0, 42, 66
1, 985509, Note_off_c, 0, 59, 59
1, 985525, Note_on_c, 0, 68, 66
1, 985583, Note_off_c, 0, 68, 63
1, 985601, Note_on_c, 0, 69, 72
1, 985648, Control_c, 0, 67, 37
1, 985657, Note_off_c, 0, 42, 63
1, 985668, Note_off_c, 0, 69, 62
1, 985674, Note_on_c, 0, 41, 50
1, 985676, Note_on_c, 0, 65, 70
1, 985692, Control_c, 0, 64, 42
1, 985692, Control_c, 0, 67, 37
1, 985704, Note_off_c, 0, 41, 60
1, 985707, Control_c, 0, 64, 56
1, 985730, Control_c, 0, 64, 55
1, 985739, Note_on_c, 0, 60, 72
1, 985741, Note_off_c, 0, 65, 63
1, 985745, Control_c, 0, 64, 55
1, 985745, Control_c, 0, 67, 37
1, 985759, Control_c, 0, 67, 38
1, 985774, Control_c, 0, 64, 56
1, 985778, Note_off_c, 0, 60, 62
1, 985789, Control_c, 0, 64, 57
1, 985789, Control_c, 0, 67, 38
1, 985799, Note_on_c, 0, 57, 69
1, 985803, Control_c, 0, 64, 58
1, 985803, Control_c, 0, 67, 39
1, 985825, Note_off_c, 0, 57, 67
1, 985833, Control_c, 0, 64, 54
1, 985848, Control_c, 0, 64, 30
1, 985863, Control_c, 0, 64, 0
1, 985898, Note_on_c, 0, 34, 54
1, 985907, Control_c, 0, 67, 35
1, 985922, Control_c, 0, 67, 0
1, 985938, Control_c, 0, 64, 39
1, 985967, Control_c, 0, 64, 0
1, 985970, Note_off_c, 0, 34, 61
1, 985978, Note_on_c, 0, 38, 53
1, 985997, Control_c, 0, 64, 34
1, 986011, Control_c, 0, 64, 45
1, 986026, Control_c, 0, 64, 50
1, 986041, Control_c, 0, 64, 51
1, 986043, Note_on_c, 0, 41, 57
1, 986069, Note_off_c, 0, 38, 63
1, 986071, Control_c, 0, 64, 51
1, 986085, Control_c, 0, 64, 53
1, 986087, Note_off_c, 0, 41, 63
1, 986100, Control_c, 0, 64, 55
1, 986115, Control_c, 0, 64, 56
1, 986123, Note_on_c, 0, 45, 65
1, 986129, Control_c, 0, 64, 54
1, 986144, Control_c, 0, 64, 51
1, 986159, Control_c, 0, 64, 48
1, 986174, Control_c, 0, 64, 46
1, 986187, Note_off_c, 0, 45, 61
1, 986189, Control_c, 0, 64, 42
1, 986197, Note_on_c, 0, 50, 52
1, 986204, Control_c, 0, 64, 33
1, 986219, Control_c, 0, 64, 0
1, 986252, Note_off_c, 0, 50, 55
1, 986268, Note_on_c, 0, 53, 51
1, 986329, Note_off_c, 0, 53, 53
1, 986356, Note_on_c, 0, 58, 75
1, 986368, Control_c, 0, 64, 33
1, 986383, Control_c, 0, 64, 60
1, 986385, Note_off_c, 0, 58, 69
1, 986398, Control_c, 0, 64, 71
1, 986412, Control_c, 0, 64, 71
1, 986427, Control_c, 0, 64, 70
1, 986442, Control_c, 0, 64, 65
1, 986451, Note_on_c, 0, 45, 64
1, 986457, Control_c, 0, 64, 63
1, 986479, Control_c, 0, 64, 61
1, 986494, Control_c, 0, 64, 60
1, 986508, Control_c, 0, 64, 58
1, 986522, Note_off_c, 0, 45, 60
1, 986523, Control_c, 0, 64, 55
1, 986538, Note_on_c, 0, 50, 55
1, 986538, Control_c, 0, 64, 52
1, 986553, Control_c, 0, 64, 48
1, 986567, Control_c, 0, 64, 42
1, 986569, Note_off_c, 0, 50, 64
1, 986582, Control_c, 0, 64, 37
1, 986597, Control_c, 0, 64, 0
1, 986602, Note_on_c, 0, 53, 50
1, 986666, Note_off_c, 0, 53, 55
1, 986680, Note_on_c, 0, 34, 55
1, 986773, Note_on_c, 0, 38, 62
1, 986773, Note_off_c, 0, 34, 60
1, 986836, Note_off_c, 0, 38, 62
1, 986850, Note_on_c, 0, 41, 54
1, 986900, Note_off_c, 0, 41, 57
1, 986912, Note_on_c, 0, 34, 58
1, 986985, Note_off_c, 0, 34, 61
1, 986987, Note_on_c, 0, 38, 64
1, 987028, Note_off_c, 0, 38, 65
1, 987041, Control_c, 0, 64, 38
1, 987044, Note_on_c, 0, 41, 60
1, 987056, Control_c, 0, 64, 47
1, 987071, Control_c, 0, 64, 56
1, 987073, Note_off_c, 0, 41, 64
1, 987086, Control_c, 0, 64, 60
1, 987100, Note_on_c, 0, 45, 63
1, 987102, Control_c, 0, 64, 62
1, 987117, Control_c, 0, 64, 63
1, 987131, Control_c, 0, 64, 64
1, 987146, Control_c, 0, 64, 66
1, 987158, Note_off_c, 0, 45, 62
1, 987161, Control_c, 0, 64, 67
1, 987162, Note_on_c, 0, 50, 60
1, 987190, Control_c, 0, 64, 67
1, 987211, Note_off_c, 0, 50, 60
1, 987214, Note_on_c, 0, 53, 59
1, 987295, Note_off_c, 0, 53, 62
1, 987302, Control_c, 0, 64, 64
1, 987307, Note_on_c, 0, 58, 79
1, 987317, Control_c, 0, 64, 55
1, 987331, Control_c, 0, 64, 0
1, 987770, Note_on_c, 0, 46, 102
1, 987790, Control_c, 0, 64, 43
1, 987799, Note_off_c, 0, 58, 65
1, 987805, Control_c, 0, 64, 69
1, 987820, Control_c, 0, 64, 107
1, 987835, Control_c, 0, 64, 127
1, 987992, Poly_aftertouch_c, 0, 49, 127
1, 988037, Poly_aftertouch_c, 0, 49, 0
1, 988094, Poly_aftertouch_c, 0, 75, 127
1, 988124, Control_c, 0, 64, 101
1, 988139, Control_c, 0, 64, 82
1, 988154, Control_c, 0, 64, 72
1, 988169, Control_c, 0, 64, 65
1, 988185, Control_c, 0, 64, 59
1, 988199, Control_c, 0, 64, 58
1, 988214, Control_c, 0, 64, 60
1, 988229, Control_c, 0, 64, 63
1, 988244, Control_c, 0, 64, 64
1, 988259, Control_c, 0, 64, 66
1, 988273, Control_c, 0, 64, 69
1, 988288, Control_c, 0, 64, 73
1, 988303, Control_c, 0, 64, 79
1, 988307, Poly_aftertouch_c, 0, 75, 0
1, 988318, Control_c, 0, 64, 90
1, 988321, Note_on_c, 0, 80, 106
1, 988322, Note_on_c, 0, 68, 110
1, 988324, Note_on_c, 0, 56, 109
1, 988332, Control_c, 0, 64, 127
1, 988356, Note_off_c, 0, 46, 68
1, 988358, Note_off_c, 0, 56, 70
1, 988364, Note_off_c, 0, 68, 70
1, 988367, Note_off_c, 0, 80, 72
1, 988862, Note_on_c, 0, 46, 118
1, 988891, Note_off_c, 0, 46, 72
1, 989370, Note_on_c, 0, 80, 107
1, 989373, Note_on_c, 0, 68, 106
1, 989376, Note_on_c, 0, 56, 118
1, 989405, Note_off_c, 0, 56, 71
1, 989411, Note_off_c, 0, 68, 70
1, 989415, Note_off_c, 0, 80, 70
1, 989834, Note_on_c, 0, 51, 106
1, 989864, Note_off_c, 0, 51, 67
1, 989922, Note_on_c, 0, 52, 107
1, 990156, Control_c, 0, 64, 116
1, 990170, Control_c, 0, 64, 85
1, 990185, Control_c, 0, 64, 72
1, 990200, Control_c, 0, 64, 71
1, 990222, Control_c, 0, 64, 75
1, 990237, Control_c, 0, 64, 79
1, 990252, Control_c, 0, 64, 80
1, 990282, Control_c, 0, 64, 78
1, 990297, Control_c, 0, 64, 76
1, 990312, Control_c, 0, 64, 72
1, 990326, Control_c, 0, 64, 66
1, 990341, Control_c, 0, 64, 58
1, 990356, Control_c, 0, 64, 55
1, 990371, Control_c, 0, 64, 58
1, 990386, Control_c, 0, 64, 60
1, 990401, Control_c, 0, 64, 61
1, 990416, Control_c, 0, 64, 65
1, 990419, Note_on_c, 0, 46, 105
1, 990419, Note_on_c, 0, 80, 109
1, 990421, Note_on_c, 0, 68, 106
1, 990431, Control_c, 0, 64, 80
1, 990440, Note_off_c, 0, 52, 60
1, 990446, Control_c, 0, 64, 127
1, 990455, Note_off_c, 0, 46, 72
1, 990462, Note_off_c, 0, 68, 68
1, 990466, Note_off_c, 0, 80, 69
1, 990847, Note_on_c, 0, 46, 120
1, 990878, Note_off_c, 0, 46, 71
1, 990948, Note_on_c, 0, 42, 124
1, 990985, Note_off_c, 0, 42, 68
1, 991450, Note_on_c, 0, 80, 105
1, 991450, Note_on_c, 0, 53, 112
1, 991450, Note_on_c, 0, 68, 104
1, 991480, Note_off_c, 0, 53, 72
1, 991492, Note_off_c, 0, 68, 69
1, 991495, Note_off_c, 0, 80, 69
1, 991562, Poly_aftertouch_c, 0, 70, 0
1, 991886, Note_on_c, 0, 52, 109
1, 991918, Note_off_c, 0, 52, 70
1, 991987, Note_on_c, 0, 48, 113
1, 992076, Control_c, 0, 64, 80
1, 992090, Control_c, 0, 64, 55
1, 992105, Control_c, 0, 64, 40
1, 992120, Control_c, 0, 64, 55
1, 992135, Control_c, 0, 64, 67
1, 992150, Control_c, 0, 64, 89
1, 992164, Control_c, 0, 64, 127
1, 992254, Note_off_c, 0, 48, 63
1, 992499, Note_on_c, 0, 80, 104
1, 992499, Note_on_c, 0, 68, 101
1, 992509, Note_on_c, 0, 42, 125
1, 992536, Note_off_c, 0, 42, 71
1, 992541, Note_off_c, 0, 68, 70
1, 992542, Note_off_c, 0, 80, 71
1, 993054, Note_on_c, 0, 36, 108
1, 993054, Note_on_c, 0, 38, 107
1, 993078, Note_off_c, 0, 36, 65
1, 993084, Note_off_c, 0, 38, 68
1, 993611, Note_on_c, 0, 68, 112
1, 993611, Note_on_c, 0, 80, 111
1, 993619, Note_on_c, 0, 48, 116
1, 993648, Note_off_c, 0, 48, 74
1, 993659, Note_off_c, 0, 68, 71
1, 993662, Note_off_c, 0, 80, 71
1, 993966, Control_c, 0, 64, 90
1, 993981, Control_c, 0, 64, 31
1, 993996, Control_c, 0, 64, 0
1, 994231, Note_on_c, 0, 37, 114
1, 994233, Note_on_c, 0, 25, 105
1, 994261, Note_off_c, 0, 37, 67
1, 994263, Control_c, 0, 64, 41
1, 994268, Note_off_c, 0, 25, 67
1, 994277, Control_c, 0, 64, 89
1, 994293, Control_c, 0, 64, 127
1, 994530, Control_c, 0, 64, 109
1, 994545, Control_c, 0, 64, 70
1, 994559, Control_c, 0, 64, 31
1, 994574, Note_on_c, 0, 56, 84
1, 994574, Control_c, 0, 64, 0
1, 994579, Note_on_c, 0, 44, 65
1, 994604, Note_off_c, 0, 56, 65
1, 994604, Control_c, 0, 67, 19
1, 994606, Note_off_c, 0, 44, 60
1, 994619, Control_c, 0, 67, 32
1, 994634, Control_c, 0, 67, 49
1, 994649, Control_c, 0, 67, 71
1, 994664, Control_c, 0, 67, 100
1, 994679, Control_c, 0, 67, 127
1, 994869, Note_on_c, 0, 56, 75
1, 994878, Note_on_c, 0, 44, 62
1, 994895, Note_off_c, 0, 56, 66
1, 994902, Note_off_c, 0, 44, 61
1, 995142, Note_on_c, 0, 56, 68
1, 995147, Note_on_c, 0, 44, 55
1, 995170, Note_off_c, 0, 56, 64
1, 995173, Note_off_c, 0, 44, 62
1, 995400, Note_on_c, 0, 44, 70
1, 995409, Note_on_c, 0, 56, 53
1, 995429, Note_off_c, 0, 44, 66
1, 995433, Note_off_c, 0, 56, 58
1, 995680, Note_on_c, 0, 43, 73
1, 995683, Note_on_c, 0, 56, 64
1, 995707, Note_off_c, 0, 43, 66
1, 995711, Note_off_c, 0, 56, 64
1, 995951, Note_on_c, 0, 44, 73
1, 995952, Note_on_c, 0, 56, 66
1, 995980, Note_off_c, 0, 56, 64
1, 995981, Note_off_c, 0, 44, 65
1, 996226, Note_on_c, 0, 56, 54
1, 996232, Note_on_c, 0, 44, 57
1, 996252, Note_off_c, 0, 56, 62
1, 996259, Note_off_c, 0, 44, 64
1, 996494, Note_on_c, 0, 44, 58
1, 996501, Note_on_c, 0, 56, 51
1, 996524, Note_off_c, 0, 44, 65
1, 996527, Note_off_c, 0, 56, 58
1, 996755, Note_on_c, 0, 56, 60
1, 996759, Note_on_c, 0, 44, 55
1, 996785, Note_off_c, 0, 56, 63
1, 996787, Note_off_c, 0, 44, 60
1, 997034, Note_on_c, 0, 44, 73
1, 997036, Note_on_c, 0, 56, 62
1, 997049, Note_on_c, 0, 32, 50
1, 997066, Note_off_c, 0, 44, 66
1, 997068, Note_off_c, 0, 56, 63
1, 997084, Note_off_c, 0, 32, 63
1, 997303, Note_on_c, 0, 44, 50
1, 997310, Note_on_c, 0, 43, 60
1, 997329, Note_on_c, 0, 33, 37
1, 997340, Note_off_c, 0, 43, 64
1, 997343, Note_off_c, 0, 44, 64
1, 997361, Note_off_c, 0, 33, 46
1, 997576, Note_on_c, 0, 56, 59
1, 997579, Note_on_c, 0, 44, 68
1, 997596, Note_on_c, 0, 32, 46
1, 997610, Note_off_c, 0, 56, 62
1, 997853, Note_on_c, 0, 56, 59
1, 997890, Note_off_c, 0, 56, 61
1, 997907, Note_off_c, 0, 32, 61
1, 997947, Note_off_c, 0, 44, 38
1, 998125, Note_on_c, 0, 56, 50
1, 998129, Note_on_c, 0, 32, 50
1, 998130, Note_on_c, 0, 53, 52
1, 998408, Note_on_c, 0, 34, 60
1, 998425, Note_off_c, 0, 32, 60
1, 998443, Note_off_c, 0, 34, 65
1, 998480, Note_off_c, 0, 53, 56
1, 998482, Note_off_c, 0, 56, 54
1, 998681, Note_on_c, 0, 36, 65
1, 998717, Note_off_c, 0, 36, 65
1, 998947, Note_on_c, 0, 37, 69
1, 998953, Note_on_c, 0, 53, 52
1, 998956, Note_on_c, 0, 56, 41
1, 998992, Note_off_c, 0, 37, 63
1, 999229, Note_on_c, 0, 38, 71
1, 999262, Note_off_c, 0, 38, 65
1, 999266, Note_off_c, 0, 53, 58
1, 999299, Note_off_c, 0, 56, 46
1, 999504, Note_on_c, 0, 56, 58
1, 999505, Note_on_c, 0, 39, 73
1, 999507, Note_on_c, 0, 55, 55
1, 999540, Note_off_c, 0, 39, 66
1, 999773, Note_on_c, 0, 41, 75
1, 999815, Note_off_c, 0, 41, 63
1, 1000053, Note_on_c, 0, 42, 78
1, 1000093, Note_off_c, 0, 42, 64
1, 1000113, Note_off_c, 0, 55, 58
1, 1000119, Note_off_c, 0, 56, 47
1, 1000309, Note_on_c, 0, 41, 74
1, 1000319, Note_on_c, 0, 55, 50
1, 1000322, Note_on_c, 0, 56, 47
1, 1000346, Note_off_c, 0, 41, 64
1, 1000582, Note_on_c, 0, 39, 71
1, 1000622, Note_off_c, 0, 39, 61
1, 1000839, Note_off_c, 0, 55, 62
1, 1000858, Note_on_c, 0, 48, 78
1, 1000890, Note_off_c, 0, 48, 68
1, 1000890, Note_off_c, 0, 56, 56
1, 1001119, Note_on_c, 0, 56, 67
1, 1001123, Note_on_c, 0, 46, 67
1, 1001131, Note_on_c, 0, 49, 58
1, 1001159, Note_off_c, 0, 46, 67
1, 1001162, Note_off_c, 0, 56, 61
1, 1001163, Note_off_c, 0, 49, 65
1, 1001386, Note_on_c, 0, 45, 75
1, 1001386, Note_on_c, 0, 55, 67
1, 1001387, Note_on_c, 0, 51, 68
1, 1001417, Note_off_c, 0, 45, 69
1, 1001419, Note_off_c, 0, 51, 65
1, 1001424, Note_off_c, 0, 55, 65
1, 1001673, Note_on_c, 0, 56, 68
1, 1001680, Note_on_c, 0, 53, 53
1, 1001688, Note_on_c, 0, 49, 53
1, 1001693, Note_on_c, 0, 44, 57
1, 1001737, Control_c, 0, 64, 32
1, 1001752, Control_c, 0, 64, 40
1, 1001767, Control_c, 0, 64, 44
1, 1001797, Control_c, 0, 64, 43
1, 1001811, Control_c, 0, 64, 41
1, 1001841, Control_c, 0, 64, 40
1, 1001856, Control_c, 0, 64, 38
1, 1001871, Control_c, 0, 64, 35
1, 1001885, Control_c, 0, 64, 31
1, 1001900, Control_c, 0, 64, 0
1, 1001943, Note_on_c, 0, 32, 59
1, 1001963, Note_off_c, 0, 44, 64
1, 1001985, Note_off_c, 0, 32, 61
1, 1001997, Note_off_c, 0, 49, 56
1, 1001999, Note_off_c, 0, 56, 56
1, 1002012, Note_off_c, 0, 53, 60
1, 1002214, Note_on_c, 0, 44, 64
1, 1002216, Note_on_c, 0, 56, 50
1, 1002226, Note_on_c, 0, 53, 47
1, 1002261, Note_on_c, 0, 32, 22
1, 1002292, Note_off_c, 0, 44, 55
1, 1002482, Note_on_c, 0, 46, 71
1, 1002524, Note_off_c, 0, 46, 62
1, 1002536, Note_off_c, 0, 32, 57
1, 1002549, Note_off_c, 0, 53, 62
1, 1002577, Note_off_c, 0, 56, 61
1, 1002746, Note_on_c, 0, 48, 69
1, 1002778, Note_off_c, 0, 48, 67
1, 1003017, Note_on_c, 0, 56, 59
1, 1003031, Note_on_c, 0, 49, 70
1, 1003037, Note_on_c, 0, 44, 54
1, 1003039, Note_on_c, 0, 53, 50
1, 1003085, Note_off_c, 0, 49, 62
1, 1003295, Note_on_c, 0, 50, 73
1, 1003339, Note_off_c, 0, 50, 61
1, 1003343, Note_off_c, 0, 44, 63
1, 1003345, Note_off_c, 0, 53, 41
1, 1003355, Note_off_c, 0, 56, 58
1, 1003559, Note_on_c, 0, 51, 77
1, 1003561, Note_on_c, 0, 56, 58
1, 1003562, Note_on_c, 0, 55, 58
1, 1003607, Note_off_c, 0, 51, 63
1, 1003827, Note_on_c, 0, 53, 78
1, 1003864, Note_off_c, 0, 53, 64
1, 1004090, Note_on_c, 0, 54, 86
1, 1004128, Note_off_c, 0, 54, 61
1, 1004134, Note_off_c, 0, 55, 57
1, 1004137, Note_off_c, 0, 56, 57
1, 1004361, Note_on_c, 0, 56, 65
1, 1004363, Note_on_c, 0, 53, 85
1, 1004371, Note_on_c, 0, 55, 51
1, 1004393, Note_off_c, 0, 53, 65
1, 1004638, Note_on_c, 0, 51, 85
1, 1004670, Note_off_c, 0, 56, 62
1, 1004677, Note_off_c, 0, 51, 61
1, 1004861, Note_off_c, 0, 55, 52
1, 1004899, Note_on_c, 0, 59, 78
1, 1004936, Note_off_c, 0, 59, 64
1, 1005168, Note_on_c, 0, 68, 80
1, 1005177, Note_on_c, 0, 58, 67
1, 1005178, Note_on_c, 0, 56, 65
1, 1005184, Note_on_c, 0, 61, 60
1, 1005212, Note_off_c, 0, 58, 66
1, 1005216, Note_off_c, 0, 56, 64
1, 1005216, Note_off_c, 0, 68, 65
1, 1005222, Note_off_c, 0, 61, 64
1, 1005433, Note_on_c, 0, 67, 80
1, 1005440, Note_on_c, 0, 63, 67
1, 1005442, Note_on_c, 0, 57, 74
1, 1005446, Note_on_c, 0, 55, 54
1, 1005466, Note_off_c, 0, 57, 69
1, 1005467, Note_off_c, 0, 63, 68
1, 1005467, Note_off_c, 0, 67, 65
1, 1005470, Note_off_c, 0, 55, 58
1, 1005695, Note_on_c, 0, 68, 75
1, 1005702, Note_on_c, 0, 56, 86
1, 1005702, Note_on_c, 0, 61, 58
1, 1005717, Note_on_c, 0, 65, 53
1, 1005718, Control_c, 0, 64, 43
1, 1005726, Note_off_c, 0, 61, 62
1, 1005733, Control_c, 0, 64, 46
1, 1005739, Note_off_c, 0, 68, 64
1, 1005740, Note_off_c, 0, 65, 60
1, 1005748, Control_c, 0, 64, 33
1, 1005763, Control_c, 0, 64, 0
1, 1005977, Note_on_c, 0, 68, 78
1, 1005990, Note_on_c, 0, 65, 52
1, 1006006, Note_on_c, 0, 61, 45
1, 1006022, Note_off_c, 0, 68, 63
1, 1006036, Note_off_c, 0, 65, 49
1, 1006039, Note_off_c, 0, 61, 59
1, 1006238, Note_on_c, 0, 67, 74
1, 1006243, Note_on_c, 0, 65, 59
1, 1006247, Note_on_c, 0, 61, 57
1, 1006262, Note_off_c, 0, 67, 69
1, 1006269, Note_off_c, 0, 65, 63
1, 1006285, Note_off_c, 0, 61, 62
1, 1006496, Control_c, 0, 64, 39
1, 1006505, Note_on_c, 0, 80, 100
1, 1006511, Control_c, 0, 64, 68
1, 1006525, Control_c, 0, 64, 84
1, 1006534, Note_on_c, 0, 65, 68
1, 1006537, Note_off_c, 0, 80, 70
1, 1006540, Control_c, 0, 64, 105
1, 1006555, Control_c, 0, 64, 117
1, 1006559, Note_on_c, 0, 61, 35
1, 1006570, Control_c, 0, 64, 127
1, 1006593, Note_off_c, 0, 61, 48
1, 1006602, Note_off_c, 0, 65, 39
1, 1006608, Note_off_c, 0, 56, 48
1, 1006755, Control_c, 0, 64, 122
1, 1006770, Control_c, 0, 64, 99
1, 1006779, Note_on_c, 0, 56, 73
1, 1006781, Note_on_c, 0, 65, 68
1, 1006785, Control_c, 0, 64, 88
1, 1006790, Note_on_c, 0, 61, 58
1, 1006799, Control_c, 0, 64, 81
1, 1006804, Note_off_c, 0, 65, 63
1, 1006811, Note_off_c, 0, 61, 63
1, 1006814, Control_c, 0, 64, 76
1, 1006823, Note_off_c, 0, 56, 61
1, 1006829, Control_c, 0, 64, 70
1, 1006844, Control_c, 0, 64, 66
1, 1006859, Control_c, 0, 64, 62
1, 1006873, Control_c, 0, 64, 57
1, 1006888, Control_c, 0, 64, 55
1, 1006903, Control_c, 0, 64, 54
1, 1006918, Control_c, 0, 64, 53
1, 1006933, Control_c, 0, 64, 49
1, 1006948, Control_c, 0, 64, 44
1, 1006963, Control_c, 0, 64, 36
1, 1006978, Control_c, 0, 64, 0
1, 1007025, Note_on_c, 0, 68, 95
1, 1007039, Note_on_c, 0, 55, 66
1, 1007039, Note_on_c, 0, 64, 65
1, 1007055, Note_on_c, 0, 60, 47
1, 1007059, Note_off_c, 0, 64, 66
1, 1007072, Note_off_c, 0, 55, 63
1, 1007085, Note_off_c, 0, 60, 56
1, 1007280, Note_off_c, 0, 68, 64
1, 1007297, Note_on_c, 0, 65, 80
1, 1007303, Note_on_c, 0, 61, 65
1, 1007310, Note_on_c, 0, 56, 65
1, 1007319, Control_c, 0, 64, 58
1, 1007334, Control_c, 0, 64, 70
1, 1007347, Note_off_c, 0, 61, 56
1, 1007348, Control_c, 0, 64, 72
1, 1007363, Control_c, 0, 64, 72
1, 1007393, Control_c, 0, 64, 73
1, 1007408, Control_c, 0, 64, 73
1, 1007445, Control_c, 0, 64, 74
1, 1007548, Control_c, 0, 64, 73
1, 1007554, Note_off_c, 0, 65, 0
1, 1007563, Control_c, 0, 64, 69
1, 1007565, Note_on_c, 0, 44, 76
1, 1007568, Note_on_c, 0, 65, 45
1, 1007577, Note_on_c, 0, 61, 61
1, 1007578, Control_c, 0, 64, 63
1, 1007593, Control_c, 0, 64, 52
1, 1007594, Note_off_c, 0, 44, 69
1, 1007605, Note_off_c, 0, 65, 66
1, 1007607, Note_off_c, 0, 61, 64
1, 1007608, Control_c, 0, 64, 30
1, 1007613, Note_off_c, 0, 56, 61
1, 1007622, Control_c, 0, 64, 0
1, 1007825, Note_on_c, 0, 43, 74
1, 1007830, Note_on_c, 0, 56, 71
1, 1007830, Note_on_c, 0, 65, 77
1, 1007836, Note_on_c, 0, 61, 60
1, 1007845, Control_c, 0, 64, 55
1, 1007847, Note_off_c, 0, 43, 65
1, 1007857, Note_off_c, 0, 65, 67
1, 1007860, Control_c, 0, 64, 62
1, 1007868, Note_off_c, 0, 61, 64
1, 1007875, Control_c, 0, 64, 55
1, 1007890, Control_c, 0, 64, 33
1, 1007905, Control_c, 0, 64, 0
1, 1008093, Note_on_c, 0, 73, 97
1, 1008102, Note_on_c, 0, 65, 69
1, 1008106, Note_on_c, 0, 61, 69
1, 1008112, Control_c, 0, 64, 43
1, 1008122, Note_off_c, 0, 65, 66
1, 1008127, Control_c, 0, 64, 62
1, 1008129, Note_off_c, 0, 73, 68
1, 1008130, Note_off_c, 0, 56, 62
1, 1008133, Note_off_c, 0, 61, 65
1, 1008142, Control_c, 0, 64, 66
1, 1008157, Control_c, 0, 64, 68
1, 1008171, Control_c, 0, 64, 70
1, 1008194, Control_c, 0, 64, 72
1, 1008209, Control_c, 0, 64, 74
1, 1008224, Control_c, 0, 64, 76
1, 1008239, Control_c, 0, 64, 76
1, 1008268, Control_c, 0, 64, 77
1, 1008297, Control_c, 0, 64, 76
1, 1008312, Control_c, 0, 64, 76
1, 1008327, Control_c, 0, 64, 73
1, 1008342, Control_c, 0, 64, 69
1, 1008357, Control_c, 0, 64, 64
1, 1008364, Note_on_c, 0, 44, 62
1, 1008371, Control_c, 0, 64, 57
1, 1008386, Control_c, 0, 64, 46
1, 1008401, Control_c, 0, 64, 0
1, 1008409, Note_off_c, 0, 44, 64
1, 1008635, Note_on_c, 0, 56, 71
1, 1008638, Note_on_c, 0, 46, 56
1, 1008685, Note_off_c, 0, 46, 61
1, 1008890, Note_on_c, 0, 47, 64
1, 1008926, Note_off_c, 0, 47, 67
1, 1008963, Note_off_c, 0, 56, 63
1, 1009163, Note_on_c, 0, 48, 66
1, 1009202, Note_off_c, 0, 48, 63
1, 1009425, Note_on_c, 0, 49, 72
1, 1009433, Note_on_c, 0, 53, 53
1, 1009434, Note_on_c, 0, 56, 54
1, 1009467, Note_off_c, 0, 49, 64
1, 1009691, Note_on_c, 0, 50, 81
1, 1009732, Note_off_c, 0, 50, 61
1, 1009755, Note_off_c, 0, 56, 59
1, 1009756, Note_off_c, 0, 53, 60
1, 1009953, Note_on_c, 0, 55, 65
1, 1009956, Note_on_c, 0, 56, 65
1, 1009958, Note_on_c, 0, 51, 81
1, 1009991, Note_off_c, 0, 51, 66
1, 1010217, Note_on_c, 0, 53, 83
1, 1010254, Note_off_c, 0, 53, 64
1, 1010486, Note_on_c, 0, 54, 86
1, 1010520, Note_off_c, 0, 54, 65
1, 1010539, Note_off_c, 0, 56, 58
1, 1010549, Note_off_c, 0, 55, 59
1, 1010746, Note_on_c, 0, 53, 77
1, 1010748, Note_on_c, 0, 56, 60
1, 1010750, Note_on_c, 0, 55, 56
1, 1010786, Note_off_c, 0, 53, 62
1, 1011002, Note_on_c, 0, 51, 82
1, 1011028, Note_off_c, 0, 56, 61
1, 1011039, Note_off_c, 0, 51, 63
1, 1011159, Note_off_c, 0, 55, 57
1, 1011264, Note_on_c, 0, 60, 87
1, 1011300, Note_off_c, 0, 60, 67
1, 1011529, Note_on_c, 0, 68, 80
1, 1011535, Note_on_c, 0, 58, 70
1, 1011539, Note_on_c, 0, 61, 67
1, 1011541, Note_on_c, 0, 56, 66
1, 1011562, Note_off_c, 0, 58, 69
1, 1011566, Note_off_c, 0, 61, 65
1, 1011569, Note_off_c, 0, 56, 64
1, 1011574, Note_off_c, 0, 68, 63
1, 1011779, Note_on_c, 0, 67, 80
1, 1011780, Note_on_c, 0, 63, 78
1, 1011781, Note_on_c, 0, 55, 66
1, 1011786, Note_on_c, 0, 57, 79
1, 1011807, Note_off_c, 0, 67, 65
1, 1011808, Note_off_c, 0, 55, 67
1, 1011810, Note_off_c, 0, 57, 70
1, 1011810, Note_off_c, 0, 63, 67
1, 1012039, Note_on_c, 0, 61, 69
1, 1012045, Note_on_c, 0, 68, 81
1, 1012049, Note_on_c, 0, 56, 89
1, 1012057, Control_c, 0, 64, 48
1, 1012066, Note_off_c, 0, 61, 67
1, 1012066, Note_on_c, 0, 65, 50
1, 1012072, Control_c, 0, 64, 52
1, 1012073, Note_off_c, 0, 68, 67
1, 1012087, Control_c, 0, 64, 39
1, 1012093, Note_off_c, 0, 65, 56
1, 1012102, Control_c, 0, 64, 0
1, 1012313, Note_on_c, 0, 68, 82
1, 1012315, Note_on_c, 0, 65, 58
1, 1012323, Note_on_c, 0, 61, 58
1, 1012343, Note_off_c, 0, 68, 65
1, 1012355, Note_off_c, 0, 65, 65
1, 1012359, Note_off_c, 0, 61, 63
1, 1012568, Note_on_c, 0, 67, 83
1, 1012579, Note_on_c, 0, 65, 65
1, 1012584, Note_on_c, 0, 61, 52
1, 1012597, Note_off_c, 0, 67, 67
1, 1012609, Note_off_c, 0, 65, 66
1, 1012617, Note_off_c, 0, 61, 63
1, 1012830, Note_on_c, 0, 80, 101
1, 1012835, Control_c, 0, 64, 41
1, 1012850, Control_c, 0, 64, 68
1, 1012861, Note_off_c, 0, 80, 72
1, 1012864, Note_on_c, 0, 65, 60
1, 1012865, Control_c, 0, 64, 79
1, 1012868, Note_on_c, 0, 61, 53
1, 1012880, Control_c, 0, 64, 95
1, 1012890, Note_off_c, 0, 65, 63
1, 1012895, Control_c, 0, 64, 106
1, 1012898, Note_off_c, 0, 61, 62
1, 1012905, Note_off_c, 0, 56, 57
1, 1012910, Control_c, 0, 64, 119
1, 1012925, Control_c, 0, 64, 127
1, 1013087, Control_c, 0, 64, 105
1, 1013100, Note_on_c, 0, 65, 76
1, 1013102, Control_c, 0, 64, 94
1, 1013104, Note_on_c, 0, 56, 80
1, 1013106, Note_on_c, 0, 61, 63
1, 1013117, Control_c, 0, 64, 82
1, 1013125, Note_off_c, 0, 65, 68
1, 1013132, Control_c, 0, 64, 71
1, 1013134, Note_off_c, 0, 61, 66
1, 1013144, Note_off_c, 0, 56, 61
1, 1013147, Control_c, 0, 64, 62
1, 1013161, Control_c, 0, 64, 51
1, 1013176, Control_c, 0, 64, 42
1, 1013191, Control_c, 0, 64, 36
1, 1013205, Control_c, 0, 64, 30
1, 1013220, Control_c, 0, 64, 0
1, 1013362, Note_on_c, 0, 55, 75
1, 1013363, Note_on_c, 0, 64, 73
1, 1013367, Note_on_c, 0, 68, 83
1, 1013374, Note_on_c, 0, 60, 58
1, 1013384, Note_off_c, 0, 64, 70
1, 1013396, Note_off_c, 0, 60, 63
1, 1013402, Note_off_c, 0, 55, 64
1, 1013629, Note_on_c, 0, 65, 87
1, 1013634, Note_on_c, 0, 56, 72
1, 1013634, Note_off_c, 0, 68, 66
1, 1013641, Note_on_c, 0, 61, 55
1, 1013643, Control_c, 0, 64, 54
1, 1013658, Control_c, 0, 64, 71
1, 1013673, Note_off_c, 0, 61, 64
1, 1013673, Control_c, 0, 64, 73
1, 1013688, Control_c, 0, 64, 73
1, 1013718, Control_c, 0, 64, 75
1, 1013732, Control_c, 0, 64, 75
1, 1013747, Control_c, 0, 64, 76
1, 1013762, Control_c, 0, 64, 76
1, 1013769, Note_off_c, 0, 65, 52
1, 1013792, Control_c, 0, 64, 77
1, 1013836, Control_c, 0, 64, 76
1, 1013866, Control_c, 0, 64, 75
1, 1013881, Control_c, 0, 64, 73
1, 1013893, Note_on_c, 0, 65, 76
1, 1013896, Control_c, 0, 64, 67
1, 1013899, Note_on_c, 0, 44, 78
1, 1013909, Note_on_c, 0, 61, 50
1, 1013910, Control_c, 0, 64, 56
1, 1013920, Note_off_c, 0, 65, 64
1, 1013925, Control_c, 0, 64, 35
1, 1013926, Note_off_c, 0, 44, 69
1, 1013935, Note_off_c, 0, 61, 64
1, 1013940, Control_c, 0, 64, 0
1, 1013941, Note_off_c, 0, 56, 62
1, 1014157, Note_on_c, 0, 43, 75
1, 1014161, Note_on_c, 0, 65, 63
1, 1014162, Control_c, 0, 64, 41
1, 1014183, Note_on_c, 0, 61, 50
1, 1014183, Note_on_c, 0, 56, 53
1, 1014184, Control_c, 0, 64, 62
1, 1014188, Note_off_c, 0, 43, 67
1, 1014199, Control_c, 0, 64, 60
1, 1014204, Note_off_c, 0, 65, 62
1, 1014214, Control_c, 0, 64, 48
1, 1014215, Note_off_c, 0, 61, 63
1, 1014229, Control_c, 0, 64, 0
1, 1014442, Note_on_c, 0, 73, 89
1, 1014450, Note_on_c, 0, 65, 44
1, 1014451, Note_on_c, 0, 61, 51
1, 1014451, Control_c, 0, 64, 42
1, 1014466, Note_off_c, 0, 56, 61
1, 1014466, Control_c, 0, 64, 60
1, 1014472, Note_off_c, 0, 73, 68
1, 1014476, Note_off_c, 0, 61, 56
1, 1014478, Note_off_c, 0, 65, 56
1, 1014481, Control_c, 0, 64, 65
1, 1014496, Control_c, 0, 64, 68
1, 1014511, Control_c, 0, 64, 69
1, 1014525, Control_c, 0, 64, 72
1, 1014540, Control_c, 0, 64, 74
1, 1014555, Control_c, 0, 64, 77
1, 1014570, Control_c, 0, 64, 79
1, 1014645, Control_c, 0, 64, 78
1, 1014659, Control_c, 0, 64, 76
1, 1014674, Control_c, 0, 64, 72
1, 1014689, Control_c, 0, 64, 67
1, 1014704, Control_c, 0, 64, 60
1, 1014705, Note_on_c, 0, 44, 65
1, 1014719, Control_c, 0, 64, 53
1, 1014733, Control_c, 0, 64, 43
1, 1014737, Note_off_c, 0, 44, 67
1, 1014748, Control_c, 0, 64, 0
1, 1014968, Note_on_c, 0, 61, 71
1, 1014973, Note_on_c, 0, 46, 65
1, 1014997, Note_off_c, 0, 61, 65
1, 1015005, Note_off_c, 0, 46, 62
1, 1015244, Note_on_c, 0, 47, 56
1, 1015250, Note_on_c, 0, 56, 61
1, 1015279, Note_off_c, 0, 47, 66
1, 1015492, Note_on_c, 0, 44, 68
1, 1015497, Note_on_c, 0, 48, 56
1, 1015532, Note_off_c, 0, 48, 66
1, 1015533, Note_off_c, 0, 56, 61
1, 1015550, Note_off_c, 0, 44, 62
1, 1015769, Note_on_c, 0, 45, 68
1, 1015775, Note_on_c, 0, 56, 62
1, 1015776, Note_on_c, 0, 49, 65
1, 1015781, Note_on_c, 0, 53, 54
1, 1015808, Note_off_c, 0, 49, 64
1, 1015816, Note_off_c, 0, 45, 62
1, 1016028, Note_on_c, 0, 50, 78
1, 1016048, Note_on_c, 0, 46, 48
1, 1016064, Note_off_c, 0, 50, 62
1, 1016079, Note_off_c, 0, 46, 56
1, 1016124, Note_off_c, 0, 53, 62
1, 1016132, Note_off_c, 0, 56, 60
1, 1016295, Note_on_c, 0, 48, 69
1, 1016297, Note_on_c, 0, 51, 74
1, 1016299, Note_on_c, 0, 56, 70
1, 1016302, Note_on_c, 0, 55, 65
1, 1016336, Note_off_c, 0, 48, 63
1, 1016336, Note_off_c, 0, 51, 64
1, 1016554, Note_on_c, 0, 53, 77
1, 1016560, Note_on_c, 0, 49, 70
1, 1016587, Note_off_c, 0, 53, 66
1, 1016597, Note_off_c, 0, 49, 65
1, 1016824, Note_on_c, 0, 50, 72
1, 1016824, Note_on_c, 0, 54, 81
1, 1016860, Note_off_c, 0, 55, 61
1, 1016864, Note_off_c, 0, 50, 62
1, 1016866, Note_off_c, 0, 54, 66
1, 1016868, Note_off_c, 0, 56, 60
1, 1017087, Note_on_c, 0, 53, 79
1, 1017092, Note_on_c, 0, 56, 65
1, 1017095, Note_on_c, 0, 55, 61
1, 1017101, Note_on_c, 0, 49, 64
1, 1017134, Note_off_c, 0, 49, 63
1, 1017134, Note_off_c, 0, 53, 62
1, 1017349, Note_on_c, 0, 51, 81
1, 1017354, Note_on_c, 0, 48, 76
1, 1017383, Note_off_c, 0, 51, 65
1, 1017399, Note_off_c, 0, 48, 62
1, 1017474, Note_off_c, 0, 56, 61
1, 1017537, Control_c, 0, 64, 32
1, 1017551, Control_c, 0, 64, 37
1, 1017575, Note_off_c, 0, 55, 56
1, 1017581, Control_c, 0, 64, 0
1, 1017613, Note_on_c, 0, 59, 89
1, 1017655, Note_off_c, 0, 59, 64
1, 1017866, Note_on_c, 0, 68, 84
1, 1017873, Note_on_c, 0, 58, 83
1, 1017876, Note_on_c, 0, 56, 71
1, 1017879, Note_on_c, 0, 61, 65
1, 1017903, Note_off_c, 0, 56, 64
1, 1017903, Note_off_c, 0, 58, 68
1, 1017906, Note_off_c, 0, 68, 66
1, 1017908, Note_off_c, 0, 61, 65
1, 1018123, Note_on_c, 0, 67, 82
1, 1018126, Note_on_c, 0, 55, 73
1, 1018127, Note_on_c, 0, 63, 77
1, 1018132, Note_on_c, 0, 57, 86
1, 1018151, Note_off_c, 0, 55, 68
1, 1018151, Control_c, 0, 64, 32
1, 1018159, Note_off_c, 0, 67, 66
1, 1018162, Note_off_c, 0, 63, 63
1, 1018166, Note_off_c, 0, 57, 65
1, 1018166, Control_c, 0, 64, 0
1, 1018384, Note_on_c, 0, 61, 73
1, 1018385, Note_on_c, 0, 68, 92
1, 1018386, Note_on_c, 0, 56, 93
1, 1018397, Note_on_c, 0, 65, 69
1, 1018404, Control_c, 0, 64, 44
1, 1018408, Note_off_c, 0, 61, 66
1, 1018417, Note_off_c, 0, 65, 67
1, 1018419, Control_c, 0, 64, 67
1, 1018421, Note_off_c, 0, 68, 66
1, 1018433, Control_c, 0, 64, 68
1, 1018448, Control_c, 0, 64, 66
1, 1018463, Control_c, 0, 64, 60
1, 1018478, Control_c, 0, 64, 52
1, 1018493, Control_c, 0, 64, 38
1, 1018508, Control_c, 0, 64, 0
1, 1018674, Note_on_c, 0, 80, 91
1, 1018675, Note_on_c, 0, 65, 66
1, 1018681, Note_on_c, 0, 61, 58
1, 1018708, Control_c, 0, 64, 48
1, 1018722, Control_c, 0, 64, 61
1, 1018737, Note_off_c, 0, 65, 61
1, 1018737, Control_c, 0, 64, 65
1, 1018752, Control_c, 0, 64, 67
1, 1018764, Note_off_c, 0, 61, 58
1, 1018767, Control_c, 0, 64, 69
1, 1018782, Control_c, 0, 64, 69
1, 1018793, Note_off_c, 0, 80, 65
1, 1018826, Control_c, 0, 64, 68
1, 1018841, Control_c, 0, 64, 66
1, 1018856, Control_c, 0, 64, 62
1, 1018871, Control_c, 0, 64, 52
1, 1018886, Control_c, 0, 64, 0
1, 1018932, Note_on_c, 0, 79, 94
1, 1018942, Note_on_c, 0, 66, 63
1, 1018948, Note_on_c, 0, 62, 56
1, 1018960, Control_c, 0, 64, 39
1, 1018975, Control_c, 0, 64, 58
1, 1018990, Control_c, 0, 64, 66
1, 1018991, Note_off_c, 0, 79, 67
1, 1019005, Control_c, 0, 64, 71
1, 1019006, Note_off_c, 0, 62, 58
1, 1019020, Control_c, 0, 64, 74
1, 1019034, Control_c, 0, 64, 76
1, 1019080, Control_c, 0, 64, 72
1, 1019092, Note_off_c, 0, 66, 36
1, 1019095, Control_c, 0, 64, 58
1, 1019110, Control_c, 0, 64, 0
1, 1019168, Control_c, 0, 64, 46
1, 1019183, Control_c, 0, 64, 54
1, 1019187, Note_on_c, 0, 80, 96
1, 1019189, Note_on_c, 0, 65, 73
1, 1019198, Control_c, 0, 64, 36
1, 1019202, Note_on_c, 0, 61, 57
1, 1019213, Control_c, 0, 64, 0
1, 1019224, Note_off_c, 0, 80, 67
1, 1019239, Note_off_c, 0, 61, 62
1, 1019242, Note_off_c, 0, 65, 62
1, 1019390, Control_c, 0, 64, 41
1, 1019405, Control_c, 0, 64, 0
1, 1019445, Note_on_c, 0, 80, 98
1, 1019452, Note_on_c, 0, 65, 73
1, 1019459, Note_on_c, 0, 61, 62
1, 1019476, Note_off_c, 0, 80, 70
1, 1019496, Note_off_c, 0, 61, 60
1, 1019497, Note_off_c, 0, 65, 63
1, 1019685, Note_on_c, 0, 68, 98
1, 1019688, Note_on_c, 0, 65, 69
1, 1019700, Note_on_c, 0, 61, 61
1, 1019715, Note_off_c, 0, 68, 69
1, 1019729, Note_off_c, 0, 65, 66
1, 1019737, Note_off_c, 0, 61, 61
1, 1019938, Note_on_c, 0, 77, 95
1, 1019952, Note_on_c, 0, 65, 73
1, 1019958, Note_on_c, 0, 61, 69
1, 1019977, Control_c, 0, 64, 56
1, 1019992, Control_c, 0, 64, 63
1, 1020004, Note_off_c, 0, 56, 59
1, 1020006, Control_c, 0, 64, 63
1, 1020051, Control_c, 0, 64, 63
1, 1020066, Control_c, 0, 64, 61
1, 1020080, Control_c, 0, 64, 57
1, 1020095, Control_c, 0, 64, 49
1, 1020110, Control_c, 0, 64, 35
1, 1020124, Control_c, 0, 64, 0
1, 1020201, Note_on_c, 0, 56, 84
1, 1020240, Note_off_c, 0, 56, 62
1, 1020264, Note_off_c, 0, 61, 0
1, 1020264, Note_off_c, 0, 77, 63
1, 1020300, Poly_aftertouch_c, 0, 61, 127
1, 1020451, Note_on_c, 0, 80, 101
1, 1020457, Note_on_c, 0, 56, 87
1, 1020486, Control_c, 0, 64, 35
1, 1020501, Control_c, 0, 64, 61
1, 1020504, Note_off_c, 0, 56, 58
1, 1020516, Control_c, 0, 64, 65
1, 1020560, Control_c, 0, 64, 65
1, 1020575, Control_c, 0, 64, 63
1, 1020590, Control_c, 0, 64, 56
1, 1020604, Control_c, 0, 64, 36
1, 1020619, Control_c, 0, 64, 0
1, 1020673, Poly_aftertouch_c, 0, 61, 0
1, 1020698, Note_on_c, 0, 56, 92
1, 1020717, Note_off_c, 0, 65, 63
1, 1020724, Control_c, 0, 64, 38
1, 1020739, Control_c, 0, 64, 65
1, 1020753, Control_c, 0, 64, 72
1, 1020768, Control_c, 0, 64, 74
1, 1020773, Note_on_c, 0, 61, 39
1, 1020783, Control_c, 0, 64, 75
1, 1020798, Control_c, 0, 64, 75
1, 1020813, Control_c, 0, 64, 76
1, 1020827, Control_c, 0, 64, 77
1, 1020831, Note_off_c, 0, 56, 59
1, 1020842, Control_c, 0, 64, 77
1, 1020851, Note_off_c, 0, 61, 63
1, 1020857, Note_on_c, 0, 65, 68
1, 1020857, Control_c, 0, 64, 78
1, 1020872, Control_c, 0, 64, 79
1, 1020887, Control_c, 0, 64, 80
1, 1020902, Control_c, 0, 64, 82
1, 1020903, Note_off_c, 0, 65, 66
1, 1020905, Note_off_c, 0, 80, 63
1, 1020913, Note_on_c, 0, 85, 105
1, 1020924, Control_c, 0, 64, 82
1, 1020929, Note_on_c, 0, 69, 84
1, 1020946, Note_off_c, 0, 69, 71
1, 1020949, Note_off_c, 0, 85, 71
1, 1020953, Control_c, 0, 64, 82
1, 1020968, Control_c, 0, 64, 76
1, 1020983, Control_c, 0, 64, 63
1, 1020998, Control_c, 0, 64, 0
1, 1021210, Note_on_c, 0, 80, 99
1, 1021213, Note_on_c, 0, 65, 99
1, 1021427, Control_c, 0, 64, 39
1, 1021443, Control_c, 0, 64, 64
1, 1021458, Control_c, 0, 64, 72
1, 1021473, Control_c, 0, 64, 80
1, 1021483, Note_off_c, 0, 80, 67
1, 1021488, Control_c, 0, 64, 86
1, 1021502, Control_c, 0, 64, 92
1, 1021517, Control_c, 0, 64, 101
1, 1021532, Control_c, 0, 64, 115
1, 1021547, Control_c, 0, 64, 127
1, 1021650, Control_c, 0, 64, 114
1, 1021673, Control_c, 0, 64, 90
1, 1021688, Control_c, 0, 64, 68
1, 1021702, Control_c, 0, 64, 50
1, 1021717, Control_c, 0, 64, 0
1, 1021727, Note_on_c, 0, 79, 89
1, 1021728, Note_on_c, 0, 60, 54
1, 1021738, Note_on_c, 0, 64, 63
1, 1021758, Note_off_c, 0, 65, 47
1, 1021762, Control_c, 0, 64, 46
1, 1021776, Control_c, 0, 64, 63
1, 1021791, Control_c, 0, 64, 70
1, 1021806, Control_c, 0, 64, 72
1, 1021821, Control_c, 0, 64, 71
1, 1021836, Control_c, 0, 64, 69
1, 1021850, Control_c, 0, 64, 65
1, 1021865, Control_c, 0, 64, 60
1, 1021879, Note_off_c, 0, 64, 49
1, 1021881, Control_c, 0, 64, 51
1, 1021885, Note_off_c, 0, 60, 51
1, 1021895, Control_c, 0, 64, 33
1, 1021910, Control_c, 0, 64, 0
1, 1021987, Note_on_c, 0, 78, 92
1, 1021996, Note_on_c, 0, 64, 70
1, 1021997, Note_on_c, 0, 60, 71
1, 1022014, Control_c, 0, 64, 42
1, 1022029, Note_off_c, 0, 79, 64
1, 1022029, Control_c, 0, 64, 61
1, 1022029, Control_c, 0, 67, 122
1, 1022040, Note_off_c, 0, 64, 64
1, 1022043, Control_c, 0, 64, 66
1, 1022043, Control_c, 0, 67, 116
1, 1022048, Note_off_c, 0, 60, 63
1, 1022058, Control_c, 0, 64, 69
1, 1022058, Control_c, 0, 67, 111
1, 1022073, Control_c, 0, 67, 107
1, 1022088, Control_c, 0, 64, 69
1, 1022088, Control_c, 0, 67, 104
1, 1022237, Control_c, 0, 64, 68
1, 1022244, Note_on_c, 0, 77, 88
1, 1022252, Control_c, 0, 64, 64
1, 1022257, Note_on_c, 0, 65, 77
1, 1022258, Note_off_c, 0, 78, 62
1, 1022260, Note_on_c, 0, 61, 72
1, 1022267, Control_c, 0, 64, 55
1, 1022282, Control_c, 0, 64, 0
1, 1022452, Control_c, 0, 67, 106
1, 1022508, Note_on_c, 0, 75, 84
1, 1022514, Note_on_c, 0, 56, 75
1, 1022532, Note_off_c, 0, 77, 63
1, 1022541, Control_c, 0, 67, 108
1, 1022571, Control_c, 0, 67, 110
1, 1022574, Note_off_c, 0, 56, 60
1, 1022615, Control_c, 0, 67, 112
1, 1022660, Control_c, 0, 67, 115
1, 1022763, Note_on_c, 0, 73, 90
1, 1022771, Note_on_c, 0, 56, 73
1, 1022800, Note_off_c, 0, 75, 61
1, 1022837, Control_c, 0, 67, 113
1, 1022840, Note_off_c, 0, 56, 60
1, 1022851, Control_c, 0, 64, 47
1, 1022863, Note_off_c, 0, 65, 61
1, 1022866, Control_c, 0, 64, 67
1, 1022866, Control_c, 0, 67, 111
1, 1022881, Control_c, 0, 64, 73
1, 1022896, Control_c, 0, 64, 77
1, 1022911, Control_c, 0, 64, 77
1, 1022926, Control_c, 0, 64, 78
1, 1022934, Note_off_c, 0, 61, 60
1, 1022967, Note_off_c, 0, 73, 61
1, 1022985, Control_c, 0, 67, 109
1, 1023015, Control_c, 0, 64, 76
1, 1023021, Note_on_c, 0, 74, 91
1, 1023030, Control_c, 0, 64, 69
1, 1023039, Note_on_c, 0, 62, 68
1, 1023045, Note_on_c, 0, 60, 61
1, 1023045, Control_c, 0, 64, 61
1, 1023060, Control_c, 0, 64, 43
1, 1023075, Control_c, 0, 64, 0
1, 1023201, Control_c, 0, 67, 111
1, 1023289, Control_c, 0, 64, 53
1, 1023304, Control_c, 0, 67, 113
1, 1023308, Note_off_c, 0, 62, 57
1, 1023319, Control_c, 0, 64, 43
1, 1023321, Note_on_c, 0, 63, 55
1, 1023325, Note_off_c, 0, 60, 60
1, 1023328, Note_on_c, 0, 59, 49
1, 1023334, Control_c, 0, 64, 33
1, 1023343, Note_off_c, 0, 74, 60
1, 1023349, Control_c, 0, 64, 31
1, 1023364, Control_c, 0, 64, 35
1, 1023379, Control_c, 0, 64, 34
1, 1023394, Control_c, 0, 64, 0
1, 1023414, Note_on_c, 0, 75, 77
1, 1023457, Note_off_c, 0, 75, 63
1, 1023529, Note_on_c, 0, 68, 89
1, 1023531, Note_off_c, 0, 59, 56
1, 1023547, Note_on_c, 0, 60, 57
1, 1023553, Note_on_c, 0, 64, 57
1, 1023560, Note_off_c, 0, 68, 66
1, 1023584, Note_off_c, 0, 63, 60
1, 1023673, Note_off_c, 0, 64, 58
1, 1023793, Control_c, 0, 67, 111
1, 1023796, Note_on_c, 0, 68, 86
1, 1023817, Note_on_c, 0, 65, 63
1, 1023825, Note_on_c, 0, 61, 59
1, 1023826, Note_off_c, 0, 60, 59
1, 1023838, Control_c, 0, 64, 40
1, 1023853, Control_c, 0, 64, 0
1, 1024055, Note_on_c, 0, 56, 85
1, 1024091, Note_off_c, 0, 56, 61
1, 1024309, Note_off_c, 0, 68, 59
1, 1024319, Note_on_c, 0, 55, 70
1, 1024322, Note_on_c, 0, 73, 85
1, 1024356, Note_off_c, 0, 55, 65
1, 1024406, Note_off_c, 0, 61, 0
1, 1024406, Note_on_c, 0, 61, 15
1, 1024575, Note_on_c, 0, 56, 90
1, 1024586, Control_c, 0, 64, 49
1, 1024601, Control_c, 0, 64, 67
1, 1024605, Note_off_c, 0, 61, 57
1, 1024616, Control_c, 0, 64, 71
1, 1024622, Note_off_c, 0, 65, 44
1, 1024632, Control_c, 0, 64, 72
1, 1024758, Control_c, 0, 64, 70
1, 1024773, Control_c, 0, 64, 66
1, 1024776, Note_off_c, 0, 73, 34
1, 1024787, Control_c, 0, 64, 61
1, 1024802, Control_c, 0, 64, 60
1, 1024830, Note_on_c, 0, 80, 86
1, 1024832, Control_c, 0, 64, 59
1, 1024842, Note_on_c, 0, 65, 69
1, 1024847, Control_c, 0, 64, 56
1, 1024848, Note_on_c, 0, 61, 51
1, 1024861, Control_c, 0, 64, 49
1, 1024869, Note_off_c, 0, 80, 64
1, 1024869, Note_off_c, 0, 65, 68
1, 1024876, Control_c, 0, 64, 36
1, 1024884, Note_off_c, 0, 61, 64
1, 1024891, Control_c, 0, 64, 0
1, 1025093, Note_on_c, 0, 60, 59
1, 1025093, Note_on_c, 0, 80, 91
1, 1025099, Control_c, 0, 64, 42
1, 1025104, Note_on_c, 0, 64, 54
1, 1025113, Control_c, 0, 64, 54
1, 1025125, Note_off_c, 0, 80, 65
1, 1025125, Note_off_c, 0, 64, 61
1, 1025128, Control_c, 0, 64, 55
1, 1025131, Note_off_c, 0, 60, 63
1, 1025143, Control_c, 0, 64, 52
1, 1025158, Control_c, 0, 64, 44
1, 1025173, Control_c, 0, 64, 0
1, 1025347, Note_on_c, 0, 80, 85
1, 1025350, Control_c, 0, 64, 43
1, 1025355, Note_on_c, 0, 61, 60
1, 1025364, Note_on_c, 0, 65, 50
1, 1025365, Control_c, 0, 64, 62
1, 1025365, Control_c, 0, 67, 109
1, 1025380, Control_c, 0, 64, 66
1, 1025387, Note_off_c, 0, 61, 64
1, 1025389, Note_off_c, 0, 65, 59
1, 1025394, Control_c, 0, 64, 70
1, 1025394, Control_c, 0, 67, 107
1, 1025395, Note_off_c, 0, 56, 56
1, 1025417, Control_c, 0, 64, 74
1, 1025432, Control_c, 0, 64, 77
1, 1025432, Control_c, 0, 67, 105
1, 1025447, Control_c, 0, 64, 81
1, 1025462, Control_c, 0, 64, 85
1, 1025477, Control_c, 0, 64, 89
1, 1025477, Control_c, 0, 67, 103
1, 1025492, Control_c, 0, 64, 91
1, 1025507, Control_c, 0, 64, 92
1, 1025578, Note_off_c, 0, 80, 63
1, 1025581, Control_c, 0, 64, 92
1, 1025602, Note_on_c, 0, 79, 104
1, 1025610, Control_c, 0, 64, 91
1, 1025613, Note_on_c, 0, 72, 76
1, 1025613, Note_on_c, 0, 76, 82
1, 1025615, Note_on_c, 0, 67, 75
1, 1025625, Control_c, 0, 67, 98
1, 1025636, Note_off_c, 0, 72, 65
1, 1025639, Note_off_c, 0, 67, 69
1, 1025640, Control_c, 0, 67, 90
1, 1025655, Control_c, 0, 64, 92
1, 1025655, Control_c, 0, 67, 78
1, 1025669, Control_c, 0, 64, 92
1, 1025669, Control_c, 0, 67, 64
1, 1025684, Control_c, 0, 64, 93
1, 1025684, Control_c, 0, 67, 49
1, 1025699, Control_c, 0, 64, 95
1, 1025699, Control_c, 0, 67, 29
1, 1025714, Control_c, 0, 64, 98
1, 1025714, Control_c, 0, 67, 0
1, 1025729, Control_c, 0, 64, 100
1, 1025799, Note_off_c, 0, 76, 55
1, 1025859, Note_off_c, 0, 79, 59
1, 1025860, Note_on_c, 0, 80, 88
1, 1025862, Note_on_c, 0, 56, 64
1, 1025877, Control_c, 0, 64, 92
1, 1025890, Note_off_c, 0, 56, 63
1, 1025892, Control_c, 0, 64, 84
1, 1025901, Note_off_c, 0, 80, 64
1, 1025906, Control_c, 0, 64, 75
1, 1025921, Control_c, 0, 64, 66
1, 1025936, Control_c, 0, 64, 57
1, 1025951, Control_c, 0, 64, 38
1, 1025966, Control_c, 0, 64, 0
1, 1026097, Note_on_c, 0, 80, 96
1, 1026112, Note_on_c, 0, 72, 94
1, 1026120, Note_on_c, 0, 67, 80
1, 1026122, Note_on_c, 0, 64, 72
1, 1026124, Note_on_c, 0, 79, 97
1, 1026128, Note_off_c, 0, 80, 71
1, 1026129, Control_c, 0, 64, 34
1, 1026143, Control_c, 0, 64, 63
1, 1026151, Note_off_c, 0, 67, 64
1, 1026154, Note_off_c, 0, 64, 66
1, 1026166, Control_c, 0, 64, 75
1, 1026181, Control_c, 0, 64, 90
1, 1026195, Control_c, 0, 64, 99
1, 1026199, Note_off_c, 0, 72, 0
1, 1026210, Control_c, 0, 64, 102
1, 1026222, Note_on_c, 0, 72, 6
1, 1026267, Note_off_c, 0, 72, 49
1, 1026293, Poly_aftertouch_c, 0, 67, 127
1, 1026360, Control_c, 0, 64, 98
1, 1026365, Note_on_c, 0, 80, 89
1, 1026366, Note_on_c, 0, 56, 75
1, 1026374, Control_c, 0, 64, 89
1, 1026380, Note_off_c, 0, 79, 66
1, 1026389, Control_c, 0, 64, 81
1, 1026391, Note_off_c, 0, 80, 66
1, 1026402, Note_off_c, 0, 56, 61
1, 1026404, Control_c, 0, 64, 72
1, 1026416, Poly_aftertouch_c, 0, 67, 0
1, 1026419, Control_c, 0, 64, 65
1, 1026434, Control_c, 0, 64, 58
1, 1026449, Control_c, 0, 64, 51
1, 1026449, Control_c, 0, 67, 20
1, 1026464, Control_c, 0, 64, 47
1, 1026479, Control_c, 0, 64, 44
1, 1026479, Control_c, 0, 67, 23
1, 1026493, Control_c, 0, 64, 41
1, 1026508, Control_c, 0, 64, 33
1, 1026523, Control_c, 0, 64, 0
1, 1026628, Note_on_c, 0, 56, 67
1, 1026637, Note_on_c, 0, 80, 95
1, 1026668, Note_off_c, 0, 80, 64
1, 1026669, Note_off_c, 0, 56, 63
1, 1026860, Note_on_c, 0, 80, 91
1, 1026878, Note_on_c, 0, 72, 73
1, 1026880, Note_on_c, 0, 64, 67
1, 1026881, Note_on_c, 0, 67, 66
1, 1026884, Note_on_c, 0, 79, 102
1, 1026887, Note_off_c, 0, 80, 70
1, 1026893, Control_c, 0, 64, 46
1, 1026901, Note_off_c, 0, 72, 69
1, 1026905, Note_off_c, 0, 67, 67
1, 1026908, Control_c, 0, 64, 71
1, 1026917, Note_off_c, 0, 64, 67
1, 1026930, Control_c, 0, 64, 82
1, 1026945, Control_c, 0, 64, 96
1, 1026960, Control_c, 0, 64, 102
1, 1026974, Control_c, 0, 64, 111
1, 1026989, Control_c, 0, 64, 126
1, 1027094, Control_c, 0, 64, 116
1, 1027109, Control_c, 0, 64, 105
1, 1027123, Note_on_c, 0, 81, 94
1, 1027123, Control_c, 0, 64, 94
1, 1027125, Note_on_c, 0, 56, 79
1, 1027138, Control_c, 0, 64, 84
1, 1027141, Note_off_c, 0, 79, 67
1, 1027150, Note_off_c, 0, 56, 69
1, 1027153, Control_c, 0, 64, 75
1, 1027161, Note_off_c, 0, 81, 66
1, 1027168, Control_c, 0, 64, 66
1, 1027183, Control_c, 0, 64, 58
1, 1027197, Control_c, 0, 64, 48
1, 1027212, Control_c, 0, 64, 34
1, 1027227, Control_c, 0, 64, 0
1, 1027257, Control_c, 0, 67, 25
1, 1027379, Note_on_c, 0, 80, 95
1, 1027385, Note_on_c, 0, 61, 68
1, 1027412, Note_off_c, 0, 61, 67
1, 1027420, Note_off_c, 0, 80, 67
1, 1027631, Note_on_c, 0, 82, 102
1, 1027634, Note_on_c, 0, 67, 71
1, 1027638, Note_on_c, 0, 64, 67
1, 1027680, Note_off_c, 0, 64, 63
1, 1027684, Note_off_c, 0, 67, 63
1, 1027684, Note_off_c, 0, 82, 66
1, 1027888, Note_on_c, 0, 80, 95
1, 1027895, Note_on_c, 0, 65, 72
1, 1027900, Note_on_c, 0, 68, 71
1, 1027926, Note_off_c, 0, 68, 67
1, 1027933, Note_off_c, 0, 80, 66
1, 1027939, Note_off_c, 0, 65, 63
1, 1028136, Note_on_c, 0, 78, 96
1, 1028139, Note_on_c, 0, 66, 71
1, 1028148, Note_on_c, 0, 70, 67
1, 1028154, Control_c, 0, 64, 35
1, 1028164, Note_off_c, 0, 66, 68
1, 1028169, Control_c, 0, 64, 48
1, 1028170, Note_off_c, 0, 78, 67
1, 1028183, Control_c, 0, 64, 46
1, 1028184, Note_off_c, 0, 70, 64
1, 1028228, Control_c, 0, 64, 42
1, 1028243, Control_c, 0, 64, 0
1, 1028386, Note_on_c, 0, 68, 99
1, 1028398, Note_on_c, 0, 60, 65
1, 1028399, Note_on_c, 0, 63, 64
1, 1028425, Note_off_c, 0, 68, 66
1, 1028428, Control_c, 0, 64, 39
1, 1028437, Note_off_c, 0, 60, 66
1, 1028443, Note_off_c, 0, 63, 63
1, 1028443, Control_c, 0, 64, 58
1, 1028458, Control_c, 0, 64, 57
1, 1028472, Control_c, 0, 64, 53
1, 1028487, Control_c, 0, 64, 49
1, 1028502, Control_c, 0, 64, 50
1, 1028502, Control_c, 0, 67, 28
1, 1028517, Control_c, 0, 64, 51
1, 1028517, Control_c, 0, 67, 32
1, 1028532, Control_c, 0, 64, 53
1, 1028532, Control_c, 0, 67, 39
1, 1028546, Control_c, 0, 64, 52
1, 1028546, Control_c, 0, 67, 47
1, 1028561, Control_c, 0, 64, 50
1, 1028561, Control_c, 0, 67, 54
1, 1028576, Control_c, 0, 64, 45
1, 1028576, Control_c, 0, 67, 55
1, 1028590, Control_c, 0, 64, 0
1, 1028648, Note_on_c, 0, 56, 98
1, 1028652, Note_on_c, 0, 63, 65
1, 1028656, Note_on_c, 0, 60, 61
1, 1028680, Note_off_c, 0, 56, 64
1, 1028687, Note_off_c, 0, 60, 67
1, 1028694, Note_off_c, 0, 63, 61
1, 1028872, Control_c, 0, 67, 55
1, 1028887, Control_c, 0, 67, 54
1, 1028900, Note_on_c, 0, 55, 97
1, 1028902, Control_c, 0, 64, 46
1, 1028912, Note_on_c, 0, 60, 57
1, 1028914, Note_on_c, 0, 63, 64
1, 1028917, Control_c, 0, 64, 52
1, 1028932, Control_c, 0, 64, 36
1, 1028933, Note_off_c, 0, 55, 65
1, 1028947, Control_c, 0, 64, 0
1, 1028950, Note_off_c, 0, 60, 64
1, 1028950, Note_off_c, 0, 63, 63
1, 1029094, Control_c, 0, 67, 53
1, 1029109, Control_c, 0, 67, 53
1, 1029124, Control_c, 0, 67, 52
1, 1029139, Control_c, 0, 67, 51
1, 1029167, Note_on_c, 0, 68, 96
1, 1029176, Note_on_c, 0, 63, 64
1, 1029176, Control_c, 0, 64, 46
1, 1029190, Note_on_c, 0, 60, 34
1, 1029191, Control_c, 0, 64, 59
1, 1029206, Control_c, 0, 64, 65
1, 1029211, Note_off_c, 0, 63, 64
1, 1029220, Control_c, 0, 64, 70
1, 1029223, Note_off_c, 0, 60, 51
1, 1029235, Control_c, 0, 64, 73
1, 1029250, Control_c, 0, 64, 76
1, 1029250, Control_c, 0, 67, 51
1, 1029265, Control_c, 0, 64, 78
1, 1029280, Control_c, 0, 64, 78
1, 1029280, Control_c, 0, 67, 50
1, 1029294, Control_c, 0, 64, 79
1, 1029354, Control_c, 0, 64, 78
1, 1029399, Control_c, 0, 64, 79
1, 1029418, Note_on_c, 0, 60, 37
1, 1029430, Note_off_c, 0, 68, 65
1, 1029430, Note_on_c, 0, 63, 59
1, 1029462, Note_off_c, 0, 63, 64
1, 1029471, Note_off_c, 0, 60, 65
1, 1029503, Control_c, 0, 64, 79
1, 1029518, Control_c, 0, 64, 80
1, 1029533, Control_c, 0, 64, 81
1, 1029533, Control_c, 0, 67, 51
1, 1029592, Control_c, 0, 67, 51
1, 1029636, Control_c, 0, 64, 80
1, 1029651, Control_c, 0, 64, 75
1, 1029666, Control_c, 0, 64, 61
1, 1029680, Note_on_c, 0, 56, 95
1, 1029681, Control_c, 0, 64, 34
1, 1029685, Note_on_c, 0, 60, 59
1, 1029690, Note_on_c, 0, 63, 61
1, 1029696, Control_c, 0, 64, 0
1, 1029719, Note_off_c, 0, 60, 67
1, 1029725, Note_off_c, 0, 63, 65
1, 1029740, Control_c, 0, 64, 40
1, 1029755, Control_c, 0, 64, 63
1, 1029770, Control_c, 0, 64, 69
1, 1029785, Control_c, 0, 64, 71
1, 1029800, Control_c, 0, 64, 70
1, 1029814, Control_c, 0, 64, 67
1, 1029829, Control_c, 0, 64, 66
1, 1029844, Control_c, 0, 64, 66
1, 1029859, Control_c, 0, 64, 69
1, 1029874, Control_c, 0, 64, 72
1, 1029889, Control_c, 0, 64, 75
1, 1029910, Control_c, 0, 64, 78
1, 1029925, Control_c, 0, 64, 80
1, 1029937, Note_on_c, 0, 60, 69
1, 1029939, Note_on_c, 0, 63, 69
1, 1029940, Control_c, 0, 64, 81
1, 1029945, Note_off_c, 0, 56, 62
1, 1029963, Note_off_c, 0, 60, 69
1, 1029963, Note_off_c, 0, 63, 69
1, 1029999, Control_c, 0, 64, 81
1, 1030014, Control_c, 0, 64, 79
1, 1030029, Control_c, 0, 64, 78
1, 1030044, Control_c, 0, 64, 77
1, 1030059, Control_c, 0, 67, 52
1, 1030074, Control_c, 0, 67, 52
1, 1030148, Control_c, 0, 64, 76
1, 1030162, Control_c, 0, 64, 70
1, 1030177, Control_c, 0, 64, 59
1, 1030192, Control_c, 0, 64, 0
1, 1030199, Note_on_c, 0, 44, 87
1, 1030202, Note_on_c, 0, 63, 72
1, 1030213, Note_on_c, 0, 60, 49
1, 1030243, Note_off_c, 0, 60, 55
1, 1030246, Note_off_c, 0, 44, 64
1, 1030253, Note_off_c, 0, 63, 61
1, 1030445, Control_c, 0, 67, 52
1, 1030453, Note_on_c, 0, 60, 69
1, 1030455, Note_on_c, 0, 63, 74
1, 1030455, Note_on_c, 0, 43, 93
1, 1030474, Control_c, 0, 67, 51
1, 1030483, Note_off_c, 0, 43, 69
1, 1030485, Note_off_c, 0, 60, 66
1, 1030485, Note_off_c, 0, 63, 65
1, 1030592, Control_c, 0, 67, 52
1, 1030704, Control_c, 0, 67, 51
1, 1030725, Note_on_c, 0, 60, 67
1, 1030727, Note_on_c, 0, 56, 95
1, 1030727, Note_on_c, 0, 63, 68
1, 1030733, Control_c, 0, 67, 50
1, 1030748, Control_c, 0, 64, 45
1, 1030763, Control_c, 0, 64, 59
1, 1030765, Note_off_c, 0, 63, 64
1, 1030768, Note_off_c, 0, 60, 65
1, 1030778, Control_c, 0, 64, 53
1, 1030792, Control_c, 0, 64, 44
1, 1030807, Control_c, 0, 64, 36
1, 1030822, Control_c, 0, 64, 35
1, 1030837, Control_c, 0, 64, 0
1, 1030983, Note_on_c, 0, 60, 76
1, 1030985, Control_c, 0, 64, 46
1, 1030985, Control_c, 0, 67, 50
1, 1030986, Note_on_c, 0, 63, 66
1, 1031000, Control_c, 0, 64, 59
1, 1031000, Control_c, 0, 67, 49
1, 1031015, Control_c, 0, 64, 64
1, 1031016, Note_off_c, 0, 60, 68
1, 1031016, Note_off_c, 0, 63, 66
1, 1031031, Control_c, 0, 64, 66
1, 1031046, Control_c, 0, 64, 66
1, 1031083, Note_off_c, 0, 56, 62
1, 1031090, Control_c, 0, 64, 66
1, 1031090, Control_c, 0, 67, 50
1, 1031105, Control_c, 0, 64, 65
1, 1031120, Control_c, 0, 64, 65
1, 1031135, Control_c, 0, 64, 64
1, 1031135, Control_c, 0, 67, 50
1, 1031233, Note_on_c, 0, 44, 94
1, 1031238, Control_c, 0, 64, 63
1, 1031246, Note_on_c, 0, 60, 78
1, 1031246, Note_on_c, 0, 63, 75
1, 1031253, Control_c, 0, 64, 58
1, 1031253, Control_c, 0, 67, 50
1, 1031268, Control_c, 0, 64, 45
1, 1031282, Note_off_c, 0, 60, 67
1, 1031282, Control_c, 0, 64, 0
1, 1031286, Note_off_c, 0, 63, 62
1, 1031327, Control_c, 0, 67, 50
1, 1031356, Control_c, 0, 67, 51
1, 1031496, Note_on_c, 0, 63, 77
1, 1031499, Note_on_c, 0, 60, 74
1, 1031512, Control_c, 0, 64, 51
1, 1031523, Note_off_c, 0, 60, 70
1, 1031525, Note_off_c, 0, 63, 67
1, 1031527, Note_off_c, 0, 44, 65
1, 1031527, Control_c, 0, 64, 63
1, 1031527, Control_c, 0, 67, 51
1, 1031542, Control_c, 0, 64, 62
1, 1031556, Control_c, 0, 64, 60
1, 1031571, Control_c, 0, 64, 59
1, 1031601, Control_c, 0, 67, 51
1, 1031616, Control_c, 0, 67, 52
1, 1031631, Control_c, 0, 67, 52
1, 1031661, Control_c, 0, 64, 58
1, 1031661, Control_c, 0, 67, 53
1, 1031676, Control_c, 0, 64, 58
1, 1031705, Control_c, 0, 64, 57
1, 1031720, Control_c, 0, 64, 56
1, 1031734, Control_c, 0, 64, 50
1, 1031749, Control_c, 0, 64, 0
1, 1031749, Control_c, 0, 67, 52
1, 1031753, Note_on_c, 0, 56, 92
1, 1031755, Note_on_c, 0, 63, 78
1, 1031759, Note_on_c, 0, 60, 74
1, 1031782, Note_off_c, 0, 63, 66
1, 1031788, Note_off_c, 0, 60, 67
1, 1031791, Note_off_c, 0, 56, 65
1, 1031999, Note_on_c, 0, 55, 87
1, 1032006, Note_on_c, 0, 63, 79
1, 1032019, Note_on_c, 0, 60, 67
1, 1032031, Note_off_c, 0, 63, 65
1, 1032034, Note_off_c, 0, 55, 65
1, 1032038, Note_off_c, 0, 60, 67
1, 1032268, Note_on_c, 0, 68, 100
1, 1032279, Note_on_c, 0, 63, 68
1, 1032292, Control_c, 0, 67, 52
1, 1032295, Note_on_c, 0, 60, 64
1, 1032305, Note_off_c, 0, 63, 68
1, 1032306, Control_c, 0, 64, 51
1, 1032306, Control_c, 0, 67, 51
1, 1032314, Note_off_c, 0, 60, 65
1, 1032321, Control_c, 0, 64, 71
1, 1032336, Control_c, 0, 64, 75
1, 1032350, Control_c, 0, 64, 76
1, 1032423, Control_c, 0, 64, 75
1, 1032453, Control_c, 0, 64, 75
1, 1032483, Control_c, 0, 64, 74
1, 1032497, Control_c, 0, 64, 73
1, 1032512, Control_c, 0, 64, 70
1, 1032527, Control_c, 0, 64, 65
1, 1032530, Note_on_c, 0, 44, 91
1, 1032533, Note_on_c, 0, 63, 76
1, 1032533, Note_on_c, 0, 60, 75
1, 1032542, Control_c, 0, 64, 58
1, 1032557, Control_c, 0, 64, 36
1, 1032561, Note_off_c, 0, 60, 66
1, 1032563, Note_off_c, 0, 63, 67
1, 1032572, Control_c, 0, 64, 0
1, 1032573, Note_off_c, 0, 44, 64
1, 1032616, Control_c, 0, 67, 52
1, 1032632, Control_c, 0, 67, 52
1, 1032647, Control_c, 0, 67, 53
1, 1032736, Control_c, 0, 67, 52
1, 1032766, Control_c, 0, 67, 52
1, 1032776, Note_on_c, 0, 60, 74
1, 1032777, Note_on_c, 0, 43, 95
1, 1032780, Control_c, 0, 67, 51
1, 1032781, Note_on_c, 0, 63, 78
1, 1032795, Control_c, 0, 67, 51
1, 1032800, Note_off_c, 0, 60, 71
1, 1032807, Note_off_c, 0, 63, 69
1, 1032810, Control_c, 0, 64, 44
1, 1032810, Control_c, 0, 67, 50
1, 1032815, Note_off_c, 0, 43, 63
1, 1032819, Note_off_c, 0, 68, 65
1, 1032825, Control_c, 0, 64, 54
1, 1032840, Control_c, 0, 64, 40
1, 1032854, Control_c, 0, 64, 0
1, 1032869, Control_c, 0, 64, 31
1, 1032884, Control_c, 0, 64, 44
1, 1032906, Control_c, 0, 64, 55
1, 1032906, Control_c, 0, 67, 51
1, 1032921, Control_c, 0, 64, 61
1, 1032935, Control_c, 0, 64, 62
1, 1032935, Control_c, 0, 67, 52
1, 1032950, Control_c, 0, 64, 63
1, 1032995, Control_c, 0, 64, 61
1, 1033010, Control_c, 0, 64, 52
1, 1033010, Control_c, 0, 67, 52
1, 1033025, Control_c, 0, 64, 0
1, 1033025, Control_c, 0, 67, 51
1, 1033033, Note_on_c, 0, 68, 101
1, 1033040, Control_c, 0, 67, 51
1, 1033054, Control_c, 0, 67, 50
1, 1033099, Control_c, 0, 67, 51
1, 1033114, Control_c, 0, 67, 52
1, 1033128, Control_c, 0, 67, 52
1, 1033143, Control_c, 0, 67, 53
1, 1033173, Control_c, 0, 67, 54
1, 1033187, Control_c, 0, 67, 54
1, 1033232, Control_c, 0, 67, 55
1, 1033247, Control_c, 0, 67, 55
1, 1033297, Note_on_c, 0, 60, 66
1, 1033302, Note_on_c, 0, 63, 60
1, 1033304, Note_on_c, 0, 44, 110
1, 1033305, Control_c, 0, 67, 55
1, 1033329, Note_off_c, 0, 44, 69
1, 1033384, Note_off_c, 0, 63, 33
1, 1033394, Control_c, 0, 67, 55
1, 1033403, Note_off_c, 0, 60, 56
1, 1033440, Control_c, 0, 67, 56
1, 1033484, Control_c, 0, 67, 55
1, 1033529, Control_c, 0, 64, 33
1, 1033529, Control_c, 0, 67, 55
1, 1033544, Control_c, 0, 64, 0
1, 1033556, Note_on_c, 0, 43, 105
1, 1033559, Note_on_c, 0, 60, 74
1, 1033564, Note_on_c, 0, 63, 70
1, 1033582, Note_off_c, 0, 43, 69
1, 1033588, Control_c, 0, 67, 54
1, 1033624, Note_off_c, 0, 60, 59
1, 1033671, Note_off_c, 0, 63, 47
1, 1033773, Control_c, 0, 67, 53
1, 1033803, Control_c, 0, 67, 53
1, 1033818, Control_c, 0, 67, 52
1, 1033825, Note_on_c, 0, 56, 118
1, 1033839, Note_on_c, 0, 63, 70
1, 1033839, Note_on_c, 0, 60, 66
1, 1033848, Control_c, 0, 64, 50
1, 1033848, Control_c, 0, 67, 52
1, 1033853, Note_off_c, 0, 56, 67
1, 1033862, Control_c, 0, 64, 67
1, 1033877, Control_c, 0, 64, 73
1, 1033892, Control_c, 0, 64, 80
1, 1033907, Control_c, 0, 64, 85
1, 1033922, Control_c, 0, 64, 90
1, 1033936, Control_c, 0, 64, 95
1, 1033951, Control_c, 0, 64, 103
1, 1033966, Control_c, 0, 64, 112
1, 1033981, Control_c, 0, 64, 122
1, 1033981, Control_c, 0, 67, 52
1, 1033996, Control_c, 0, 64, 127
1, 1034000, Note_off_c, 0, 60, 59
1, 1034083, Note_on_c, 0, 59, 72
1, 1034099, Control_c, 0, 64, 116
1, 1034114, Control_c, 0, 64, 107
1, 1034128, Control_c, 0, 64, 98
1, 1034134, Note_off_c, 0, 59, 64
1, 1034143, Control_c, 0, 64, 90
1, 1034143, Control_c, 0, 67, 53
1, 1034158, Control_c, 0, 64, 84
1, 1034158, Control_c, 0, 67, 54
1, 1034173, Control_c, 0, 64, 80
1, 1034173, Control_c, 0, 67, 55
1, 1034188, Control_c, 0, 64, 77
1, 1034188, Control_c, 0, 67, 56
1, 1034202, Control_c, 0, 64, 74
1, 1034218, Control_c, 0, 64, 72
1, 1034233, Control_c, 0, 64, 69
1, 1034233, Control_c, 0, 67, 57
1, 1034248, Control_c, 0, 64, 65
1, 1034263, Control_c, 0, 64, 62
1, 1034278, Control_c, 0, 64, 55
1, 1034292, Control_c, 0, 64, 42
1, 1034307, Control_c, 0, 64, 0
1, 1034307, Control_c, 0, 67, 56
1, 1034337, Control_c, 0, 67, 56
1, 1034340, Note_on_c, 0, 44, 106
1, 1034342, Note_on_c, 0, 60, 79
1, 1034357, Note_off_c, 0, 68, 60
1, 1034369, Note_off_c, 0, 63, 58
1, 1034379, Note_off_c, 0, 60, 68
1, 1034381, Control_c, 0, 64, 39
1, 1034404, Control_c, 0, 64, 58
1, 1034419, Control_c, 0, 64, 65
1, 1034433, Control_c, 0, 64, 70
1, 1034448, Control_c, 0, 64, 75
1, 1034463, Control_c, 0, 64, 78
1, 1034463, Control_c, 0, 67, 55
1, 1034478, Control_c, 0, 64, 81
1, 1034478, Control_c, 0, 67, 54
1, 1034493, Control_c, 0, 64, 83
1, 1034493, Control_c, 0, 67, 53
1, 1034507, Control_c, 0, 64, 86
1, 1034507, Control_c, 0, 67, 53
1, 1034522, Control_c, 0, 64, 88
1, 1034522, Control_c, 0, 67, 52
1, 1034537, Control_c, 0, 64, 90
1, 1034549, Note_off_c, 0, 44, 63
1, 1034551, Control_c, 0, 64, 92
1, 1034566, Control_c, 0, 64, 92
1, 1034581, Control_c, 0, 64, 93
1, 1034581, Control_c, 0, 67, 52
1, 1034604, Note_on_c, 0, 59, 86
1, 1034628, Note_off_c, 0, 59, 69
1, 1034655, Control_c, 0, 64, 92
1, 1034670, Control_c, 0, 64, 89
1, 1034685, Control_c, 0, 64, 85
1, 1034699, Control_c, 0, 64, 81
1, 1034714, Control_c, 0, 64, 78
1, 1034714, Control_c, 0, 67, 52
1, 1034729, Control_c, 0, 64, 76
1, 1034744, Control_c, 0, 64, 74
1, 1034744, Control_c, 0, 67, 53
1, 1034758, Control_c, 0, 64, 72
1, 1034773, Control_c, 0, 64, 71
1, 1034788, Control_c, 0, 64, 70
1, 1034832, Control_c, 0, 64, 66
1, 1034847, Note_on_c, 0, 68, 99
1, 1034847, Control_c, 0, 64, 36
1, 1034847, Control_c, 0, 67, 53
1, 1034850, Note_on_c, 0, 58, 53
1, 1034852, Note_on_c, 0, 56, 89
1, 1034852, Note_on_c, 0, 61, 85
1, 1034862, Control_c, 0, 64, 0
1, 1034885, Note_off_c, 0, 58, 54
1, 1034886, Note_off_c, 0, 56, 62
1, 1034891, Note_off_c, 0, 61, 60
1, 1034891, Note_off_c, 0, 68, 71
1, 1034891, Control_c, 0, 67, 54
1, 1034906, Control_c, 0, 67, 54
1, 1034936, Control_c, 0, 67, 55
1, 1035040, Control_c, 0, 67, 54
1, 1035055, Control_c, 0, 67, 54
1, 1035070, Control_c, 0, 67, 53
1, 1035100, Control_c, 0, 67, 53
1, 1035103, Note_on_c, 0, 67, 97
1, 1035108, Note_on_c, 0, 55, 78
1, 1035108, Note_on_c, 0, 63, 82
1, 1035123, Note_on_c, 0, 57, 54
1, 1035130, Note_off_c, 0, 55, 69
1, 1035130, Note_off_c, 0, 63, 69
1, 1035153, Note_off_c, 0, 57, 60
1, 1035163, Note_off_c, 0, 67, 67
1, 1035181, Control_c, 0, 67, 53
1, 1035196, Control_c, 0, 67, 54
1, 1035211, Control_c, 0, 67, 54
1, 1035241, Control_c, 0, 67, 55
1, 1035344, Control_c, 0, 67, 54
1, 1035369, Note_on_c, 0, 68, 83
1, 1035374, Note_on_c, 0, 61, 77
1, 1035377, Note_on_c, 0, 65, 75
1, 1035386, Note_on_c, 0, 56, 67
1, 1035389, Control_c, 0, 67, 54
1, 1035421, Note_off_c, 0, 56, 64
1, 1035448, Control_c, 0, 64, 33
1, 1035463, Control_c, 0, 64, 46
1, 1035478, Control_c, 0, 64, 53
1, 1035478, Control_c, 0, 67, 54
1, 1035493, Control_c, 0, 64, 55
1, 1035507, Control_c, 0, 64, 56
1, 1035522, Control_c, 0, 64, 56
1, 1035537, Control_c, 0, 64, 57
1, 1035552, Control_c, 0, 64, 57
1, 1035567, Control_c, 0, 67, 55
1, 1035611, Control_c, 0, 64, 57
1, 1035626, Control_c, 0, 64, 56
1, 1035633, Note_on_c, 0, 56, 70
1, 1035641, Control_c, 0, 64, 55
1, 1035641, Control_c, 0, 67, 55
1, 1035655, Control_c, 0, 64, 54
1, 1035655, Control_c, 0, 67, 56
1, 1035663, Note_off_c, 0, 56, 65
1, 1035670, Control_c, 0, 64, 54
1, 1035670, Control_c, 0, 67, 56
1, 1035685, Control_c, 0, 64, 53
1, 1035685, Control_c, 0, 67, 57
1, 1035699, Control_c, 0, 64, 52
1, 1035699, Control_c, 0, 67, 58
1, 1035708, Note_off_c, 0, 61, 56
1, 1035714, Control_c, 0, 64, 52
1, 1035720, Note_off_c, 0, 65, 60
1, 1035729, Control_c, 0, 64, 51
1, 1035729, Control_c, 0, 67, 60
1, 1035744, Control_c, 0, 67, 65
1, 1035752, Note_off_c, 0, 68, 55
1, 1035759, Control_c, 0, 67, 71
1, 1035773, Control_c, 0, 67, 76
1, 1035788, Control_c, 0, 67, 81
1, 1035803, Control_c, 0, 67, 82
1, 1035819, Control_c, 0, 67, 83
1, 1035849, Control_c, 0, 64, 49
1, 1035864, Control_c, 0, 64, 42
1, 1035875, Note_on_c, 0, 68, 65
1, 1035878, Control_c, 0, 64, 0
1, 1035901, Note_on_c, 0, 61, 55
1, 1035901, Note_on_c, 0, 65, 56
1, 1035904, Note_on_c, 0, 44, 51
1, 1036147, Note_on_c, 0, 46, 66
1, 1036183, Note_off_c, 0, 46, 68
1, 1036199, Note_off_c, 0, 44, 53
1, 1036227, Note_off_c, 0, 65, 63
1, 1036239, Note_off_c, 0, 61, 59
1, 1036242, Note_off_c, 0, 68, 59
1, 1036396, Note_on_c, 0, 48, 62
1, 1036448, Note_off_c, 0, 48, 62
1, 1036596, Control_c, 0, 67, 83
1, 1036611, Control_c, 0, 67, 82
1, 1036662, Note_on_c, 0, 53, 57
1, 1036670, Note_on_c, 0, 56, 50
1, 1036671, Note_on_c, 0, 49, 57
1, 1036703, Note_off_c, 0, 49, 65
1, 1036917, Control_c, 0, 67, 82
1, 1036930, Note_on_c, 0, 50, 64
1, 1036963, Note_off_c, 0, 50, 64
1, 1036995, Note_off_c, 0, 53, 54
1, 1037016, Note_off_c, 0, 56, 52
1, 1037183, Control_c, 0, 67, 81
1, 1037187, Note_on_c, 0, 56, 56
1, 1037192, Note_on_c, 0, 51, 70
1, 1037192, Note_on_c, 0, 55, 56
1, 1037213, Control_c, 0, 67, 81
1, 1037233, Note_off_c, 0, 51, 64
1, 1037444, Control_c, 0, 67, 80
1, 1037458, Note_on_c, 0, 53, 77
1, 1037458, Control_c, 0, 67, 80
1, 1037488, Control_c, 0, 67, 79
1, 1037502, Note_off_c, 0, 53, 61
1, 1037681, Control_c, 0, 67, 78
1, 1037695, Control_c, 0, 67, 78
1, 1037718, Note_on_c, 0, 54, 81
1, 1037725, Control_c, 0, 67, 77
1, 1037740, Control_c, 0, 67, 77
1, 1037756, Note_off_c, 0, 55, 61
1, 1037761, Note_off_c, 0, 56, 54
1, 1037764, Note_off_c, 0, 54, 62
1, 1037829, Control_c, 0, 67, 77
1, 1037858, Control_c, 0, 67, 78
1, 1037947, Control_c, 0, 67, 77
1, 1037970, Note_on_c, 0, 53, 86
1, 1037979, Note_on_c, 0, 56, 60
1, 1037982, Note_on_c, 0, 55, 53
1, 1038007, Note_off_c, 0, 53, 64
1, 1038021, Control_c, 0, 67, 76
1, 1038095, Control_c, 0, 67, 77
1, 1038155, Note_off_c, 0, 56, 61
1, 1038206, Control_c, 0, 67, 76
1, 1038222, Control_c, 0, 67, 75
1, 1038234, Note_on_c, 0, 51, 88
1, 1038237, Control_c, 0, 67, 74
1, 1038267, Control_c, 0, 67, 73
1, 1038277, Note_off_c, 0, 51, 62
1, 1038385, Control_c, 0, 67, 74
1, 1038474, Control_c, 0, 67, 73
1, 1038489, Control_c, 0, 67, 72
1, 1038491, Note_on_c, 0, 60, 89
1, 1038492, Note_off_c, 0, 55, 34
1, 1038504, Control_c, 0, 67, 71
1, 1038518, Control_c, 0, 67, 70
1, 1038528, Note_off_c, 0, 60, 67
1, 1038737, Note_on_c, 0, 68, 90
1, 1038740, Control_c, 0, 67, 69
1, 1038742, Note_on_c, 0, 56, 79
1, 1038746, Note_on_c, 0, 58, 78
1, 1038748, Note_on_c, 0, 61, 70
1, 1038755, Control_c, 0, 67, 67
1, 1038769, Note_off_c, 0, 56, 66
1, 1038770, Control_c, 0, 67, 66
1, 1038774, Note_off_c, 0, 61, 67
1, 1038776, Note_off_c, 0, 58, 68
1, 1038779, Note_off_c, 0, 68, 68
1, 1038784, Control_c, 0, 67, 63
1, 1038799, Control_c, 0, 67, 60
1, 1038814, Control_c, 0, 67, 58
1, 1038829, Control_c, 0, 67, 57
1, 1038844, Control_c, 0, 67, 56
1, 1038858, Control_c, 0, 67, 56
1, 1038873, Control_c, 0, 67, 55
1, 1038911, Control_c, 0, 67, 55
1, 1038940, Control_c, 0, 67, 54
1, 1038970, Control_c, 0, 67, 54
1, 1038985, Control_c, 0, 67, 53
1, 1038999, Note_on_c, 0, 67, 82
1, 1038999, Control_c, 0, 67, 49
1, 1039002, Note_on_c, 0, 63, 78
1, 1039004, Note_on_c, 0, 55, 67
1, 1039006, Note_on_c, 0, 57, 87
1, 1039015, Control_c, 0, 67, 44
1, 1039030, Control_c, 0, 67, 38
1, 1039031, Note_off_c, 0, 63, 67
1, 1039033, Note_off_c, 0, 55, 67
1, 1039036, Note_off_c, 0, 57, 68
1, 1039043, Note_off_c, 0, 67, 62
1, 1039045, Control_c, 0, 67, 34
1, 1039060, Control_c, 0, 67, 33
1, 1039252, Control_c, 0, 67, 33
1, 1039255, Note_on_c, 0, 68, 90
1, 1039258, Note_on_c, 0, 61, 72
1, 1039258, Note_on_c, 0, 65, 79
1, 1039261, Note_on_c, 0, 56, 97
1, 1039267, Control_c, 0, 64, 35
1, 1039278, Note_off_c, 0, 61, 65
1, 1039279, Note_off_c, 0, 65, 71
1, 1039282, Control_c, 0, 64, 66
1, 1039282, Control_c, 0, 67, 28
1, 1039290, Note_off_c, 0, 68, 67
1, 1039297, Control_c, 0, 64, 76
1, 1039312, Control_c, 0, 64, 79
1, 1039312, Control_c, 0, 67, 25
1, 1039341, Control_c, 0, 64, 76
1, 1039356, Control_c, 0, 64, 69
1, 1039371, Control_c, 0, 64, 59
1, 1039386, Control_c, 0, 64, 37
1, 1039401, Control_c, 0, 64, 0
1, 1039528, Note_on_c, 0, 80, 100
1, 1039538, Note_on_c, 0, 61, 65
1, 1039539, Note_on_c, 0, 65, 67
1, 1039548, Control_c, 0, 64, 31
1, 1039548, Control_c, 0, 67, 23
1, 1039563, Control_c, 0, 64, 50
1, 1039563, Control_c, 0, 67, 21
1, 1039578, Control_c, 0, 64, 61
1, 1039585, Note_off_c, 0, 65, 62
1, 1039593, Control_c, 0, 64, 66
1, 1039604, Note_off_c, 0, 61, 61
1, 1039608, Control_c, 0, 64, 69
1, 1039622, Control_c, 0, 64, 72
1, 1039645, Control_c, 0, 64, 74
1, 1039660, Control_c, 0, 64, 75
1, 1039660, Control_c, 0, 67, 0
1, 1039663, Note_off_c, 0, 80, 65
1, 1039674, Control_c, 0, 64, 77
1, 1039689, Control_c, 0, 64, 78
1, 1039719, Control_c, 0, 64, 77
1, 1039734, Control_c, 0, 64, 70
1, 1039748, Control_c, 0, 64, 58
1, 1039763, Control_c, 0, 64, 30
1, 1039778, Control_c, 0, 64, 0
1, 1039785, Note_on_c, 0, 79, 102
1, 1039795, Note_on_c, 0, 62, 64
1, 1039801, Note_on_c, 0, 66, 64
1, 1039808, Control_c, 0, 64, 33
1, 1039824, Control_c, 0, 64, 54
1, 1039838, Control_c, 0, 64, 64
1, 1039848, Note_off_c, 0, 79, 66
1, 1039853, Control_c, 0, 64, 68
1, 1039855, Note_off_c, 0, 62, 62
1, 1039868, Control_c, 0, 64, 71
1, 1039872, Note_off_c, 0, 66, 49
1, 1039883, Control_c, 0, 64, 73
1, 1039897, Control_c, 0, 64, 74
1, 1039912, Control_c, 0, 64, 75
1, 1039927, Control_c, 0, 64, 76
1, 1039957, Control_c, 0, 64, 75
1, 1039971, Control_c, 0, 64, 73
1, 1039986, Control_c, 0, 64, 70
1, 1040001, Control_c, 0, 64, 66
1, 1040016, Control_c, 0, 64, 61
1, 1040031, Control_c, 0, 64, 50
1, 1040042, Note_on_c, 0, 80, 98
1, 1040045, Control_c, 0, 64, 37
1, 1040045, Control_c, 0, 67, 19
1, 1040055, Note_on_c, 0, 65, 62
1, 1040057, Note_on_c, 0, 61, 60
1, 1040060, Control_c, 0, 64, 0
1, 1040081, Note_off_c, 0, 80, 67
1, 1040088, Note_off_c, 0, 65, 63
1, 1040096, Note_off_c, 0, 61, 60
1, 1040119, Control_c, 0, 67, 21
1, 1040164, Control_c, 0, 67, 23
1, 1040282, Note_on_c, 0, 80, 99
1, 1040294, Note_on_c, 0, 65, 65
1, 1040295, Note_on_c, 0, 61, 66
1, 1040313, Note_off_c, 0, 80, 70
1, 1040327, Note_off_c, 0, 65, 64
1, 1040336, Note_off_c, 0, 61, 60
1, 1040394, Control_c, 0, 67, 25
1, 1040438, Control_c, 0, 67, 27
1, 1040525, Note_on_c, 0, 68, 105
1, 1040527, Control_c, 0, 64, 36
1, 1040534, Note_on_c, 0, 65, 67
1, 1040537, Note_on_c, 0, 61, 62
1, 1040542, Control_c, 0, 64, 0
1, 1040556, Note_off_c, 0, 68, 70
1, 1040571, Note_off_c, 0, 65, 61
1, 1040576, Note_off_c, 0, 61, 59
1, 1040783, Note_on_c, 0, 77, 96
1, 1040807, Note_on_c, 0, 61, 62
1, 1040808, Note_on_c, 0, 65, 63
1, 1040814, Note_on_c, 0, 79, 38
1, 1040814, Note_off_c, 0, 79, 127
1, 1040824, Control_c, 0, 64, 50
1, 1040838, Control_c, 0, 64, 63
1, 1040849, Note_off_c, 0, 56, 57
1, 1040853, Control_c, 0, 64, 64
1, 1040898, Control_c, 0, 64, 65
1, 1040957, Control_c, 0, 64, 64
1, 1041028, Note_on_c, 0, 56, 92
1, 1041032, Control_c, 0, 64, 63
1, 1041046, Control_c, 0, 64, 52
1, 1041061, Control_c, 0, 64, 0
1, 1041061, Control_c, 0, 67, 25
1, 1041076, Note_off_c, 0, 56, 65
1, 1041106, Note_off_c, 0, 77, 60
1, 1041288, Note_on_c, 0, 80, 102
1, 1041288, Note_on_c, 0, 55, 86
1, 1041321, Note_off_c, 0, 55, 64
1, 1041335, Control_c, 0, 64, 58
1, 1041350, Control_c, 0, 64, 64
1, 1041365, Control_c, 0, 64, 53
1, 1041380, Control_c, 0, 64, 0
1, 1041526, Note_on_c, 0, 56, 91
1, 1041528, Note_off_c, 0, 61, 60
1, 1041549, Note_off_c, 0, 65, 61
1, 1041558, Control_c, 0, 64, 50
1, 1041573, Control_c, 0, 64, 78
1, 1041588, Control_c, 0, 64, 96
1, 1041603, Control_c, 0, 64, 127
1, 1041659, Note_on_c, 0, 61, 74
1, 1041666, Note_off_c, 0, 56, 60
1, 1041699, Note_on_c, 0, 65, 78
1, 1041705, Note_off_c, 0, 61, 62
1, 1041739, Note_off_c, 0, 65, 64
1, 1041750, Note_off_c, 0, 80, 63
1, 1041758, Note_on_c, 0, 85, 109
1, 1041767, Note_on_c, 0, 69, 104
1, 1041787, Note_off_c, 0, 85, 73
1, 1041795, Note_off_c, 0, 69, 68
1, 1041824, Control_c, 0, 64, 68
1, 1041824, Control_c, 0, 67, 28
1, 1041839, Control_c, 0, 64, 0
1, 1041891, Control_c, 0, 67, 30
1, 1042024, Control_c, 0, 67, 28
1, 1042027, Note_on_c, 0, 80, 100
1, 1042034, Note_on_c, 0, 65, 106
1, 1042054, Control_c, 0, 64, 57
1, 1042054, Control_c, 0, 67, 26
1, 1042068, Note_off_c, 0, 65, 71
1, 1042069, Control_c, 0, 64, 79
1, 1042084, Control_c, 0, 64, 98
1, 1042099, Control_c, 0, 64, 127
1, 1042265, Note_on_c, 0, 73, 120
1, 1042287, Note_off_c, 0, 73, 72
1, 1042352, Control_c, 0, 67, 28
1, 1042462, Note_off_c, 0, 80, 55
1, 1042522, Note_on_c, 0, 79, 96
1, 1042526, Note_on_c, 0, 56, 110
1, 1042559, Control_c, 0, 64, 83
1, 1042574, Control_c, 0, 64, 62
1, 1042589, Control_c, 0, 64, 0
1, 1042671, Control_c, 0, 67, 30
1, 1042775, Note_on_c, 0, 78, 90
1, 1042799, Note_off_c, 0, 79, 62
1, 1042804, Control_c, 0, 64, 39
1, 1042818, Control_c, 0, 64, 48
1, 1042833, Control_c, 0, 64, 43
1, 1042847, Control_c, 0, 64, 44
1, 1042862, Control_c, 0, 64, 45
1, 1042877, Control_c, 0, 64, 49
1, 1042892, Control_c, 0, 64, 51
1, 1042907, Control_c, 0, 64, 51
1, 1042921, Control_c, 0, 64, 49
1, 1042936, Control_c, 0, 64, 48
1, 1042951, Control_c, 0, 64, 47
1, 1042981, Control_c, 0, 64, 46
1, 1042996, Control_c, 0, 64, 40
1, 1043011, Control_c, 0, 64, 0
1, 1043024, Note_off_c, 0, 78, 65
1, 1043029, Note_on_c, 0, 77, 82
1, 1043056, Control_c, 0, 64, 41
1, 1043071, Control_c, 0, 64, 53
1, 1043085, Control_c, 0, 64, 59
1, 1043100, Control_c, 0, 64, 62
1, 1043130, Control_c, 0, 64, 62
1, 1043145, Control_c, 0, 64, 63
1, 1043145, Control_c, 0, 67, 28
1, 1043175, Control_c, 0, 64, 63
1, 1043204, Control_c, 0, 64, 63
1, 1043219, Control_c, 0, 64, 61
1, 1043233, Control_c, 0, 64, 54
1, 1043248, Control_c, 0, 64, 41
1, 1043263, Control_c, 0, 64, 0
1, 1043270, Note_on_c, 0, 75, 90
1, 1043283, Note_on_c, 0, 60, 78
1, 1043294, Note_on_c, 0, 57, 69
1, 1043295, Note_off_c, 0, 77, 63
1, 1043322, Control_c, 0, 64, 49
1, 1043337, Control_c, 0, 64, 62
1, 1043352, Control_c, 0, 64, 66
1, 1043367, Control_c, 0, 64, 69
1, 1043389, Control_c, 0, 64, 71
1, 1043404, Control_c, 0, 64, 72
1, 1043419, Control_c, 0, 64, 73
1, 1043419, Control_c, 0, 67, 26
1, 1043434, Control_c, 0, 64, 72
1, 1043448, Control_c, 0, 64, 66
1, 1043453, Note_off_c, 0, 60, 58
1, 1043463, Control_c, 0, 64, 51
1, 1043478, Control_c, 0, 64, 0
1, 1043483, Note_off_c, 0, 57, 60
1, 1043522, Control_c, 0, 64, 32
1, 1043523, Note_on_c, 0, 73, 105
1, 1043537, Note_on_c, 0, 58, 75
1, 1043537, Control_c, 0, 64, 54
1, 1043541, Note_on_c, 0, 61, 82
1, 1043550, Note_off_c, 0, 75, 65
1, 1043552, Control_c, 0, 64, 65
1, 1043552, Control_c, 0, 67, 24
1, 1043566, Control_c, 0, 64, 71
1, 1043570, Note_off_c, 0, 73, 69
1, 1043581, Control_c, 0, 64, 77
1, 1043596, Control_c, 0, 64, 82
1, 1043596, Control_c, 0, 67, 22
1, 1043611, Control_c, 0, 64, 87
1, 1043626, Control_c, 0, 64, 93
1, 1043640, Control_c, 0, 64, 101
1, 1043655, Control_c, 0, 64, 108
1, 1043670, Control_c, 0, 64, 112
1, 1043679, Note_off_c, 0, 58, 57
1, 1043753, Note_off_c, 0, 61, 62
1, 1043759, Control_c, 0, 64, 100
1, 1043774, Control_c, 0, 64, 76
1, 1043783, Note_on_c, 0, 74, 100
1, 1043789, Control_c, 0, 64, 52
1, 1043798, Note_on_c, 0, 62, 71
1, 1043804, Control_c, 0, 64, 0
1, 1043809, Note_on_c, 0, 60, 59
1, 1043863, Control_c, 0, 64, 54
1, 1043878, Control_c, 0, 64, 66
1, 1043893, Control_c, 0, 64, 71
1, 1043908, Control_c, 0, 64, 75
1, 1043923, Control_c, 0, 64, 76
1, 1043938, Control_c, 0, 64, 75
1, 1043953, Control_c, 0, 64, 69
1, 1043968, Control_c, 0, 64, 58
1, 1043983, Control_c, 0, 64, 0
1, 1044009, Note_off_c, 0, 62, 55
1, 1044039, Note_off_c, 0, 60, 63
1, 1044042, Control_c, 0, 64, 55
1, 1044056, Control_c, 0, 64, 66
1, 1044057, Note_on_c, 0, 63, 62
1, 1044059, Note_on_c, 0, 59, 53
1, 1044071, Control_c, 0, 64, 71
1, 1044086, Control_c, 0, 64, 72
1, 1044101, Control_c, 0, 64, 72
1, 1044116, Control_c, 0, 64, 65
1, 1044138, Note_off_c, 0, 74, 61
1, 1044138, Control_c, 0, 64, 56
1, 1044151, Note_on_c, 0, 75, 79
1, 1044153, Control_c, 0, 64, 46
1, 1044167, Control_c, 0, 64, 40
1, 1044182, Control_c, 0, 64, 44
1, 1044195, Note_off_c, 0, 75, 63
1, 1044197, Control_c, 0, 64, 56
1, 1044212, Control_c, 0, 64, 64
1, 1044227, Control_c, 0, 64, 71
1, 1044242, Control_c, 0, 64, 76
1, 1044257, Control_c, 0, 64, 78
1, 1044263, Note_on_c, 0, 68, 98
1, 1044269, Note_off_c, 0, 63, 63
1, 1044271, Control_c, 0, 64, 79
1, 1044275, Note_on_c, 0, 60, 68
1, 1044275, Note_off_c, 0, 59, 38
1, 1044276, Note_on_c, 0, 64, 71
1, 1044286, Control_c, 0, 64, 78
1, 1044296, Note_off_c, 0, 68, 67
1, 1044301, Control_c, 0, 64, 71
1, 1044316, Control_c, 0, 64, 56
1, 1044331, Control_c, 0, 64, 0
1, 1044373, Note_off_c, 0, 64, 62
1, 1044376, Control_c, 0, 67, 24
1, 1044539, Note_on_c, 0, 68, 101
1, 1044543, Note_off_c, 0, 60, 62
1, 1044546, Note_on_c, 0, 65, 83
1, 1044546, Note_on_c, 0, 61, 83
1, 1044568, Control_c, 0, 64, 55
1, 1044569, Note_off_c, 0, 56, 59
1, 1044582, Control_c, 0, 64, 70
1, 1044597, Control_c, 0, 64, 72
1, 1044673, Control_c, 0, 64, 71
1, 1044687, Control_c, 0, 64, 67
1, 1044702, Control_c, 0, 64, 57
1, 1044717, Control_c, 0, 64, 0
1, 1044779, Note_off_c, 0, 61, 59
1, 1044780, Note_on_c, 0, 56, 101
1, 1044805, Control_c, 0, 64, 58
1, 1044807, Note_off_c, 0, 65, 65
1, 1044812, Note_off_c, 0, 56, 67
1, 1044820, Control_c, 0, 64, 70
1, 1044850, Control_c, 0, 64, 61
1, 1044865, Control_c, 0, 64, 0
1, 1044972, Note_off_c, 0, 68, 56
1, 1045033, Note_on_c, 0, 73, 89
1, 1045041, Note_on_c, 0, 55, 98
1, 1045050, Control_c, 0, 64, 45
1, 1045065, Control_c, 0, 64, 60
1, 1045073, Note_off_c, 0, 55, 65
1, 1045080, Control_c, 0, 64, 44
1, 1045095, Control_c, 0, 64, 0
1, 1045278, Note_on_c, 0, 56, 95
1, 1045317, Control_c, 0, 64, 63
1, 1045331, Control_c, 0, 64, 71
1, 1045334, Note_off_c, 0, 73, 64
1, 1045346, Control_c, 0, 64, 74
1, 1045361, Control_c, 0, 64, 74
1, 1045422, Control_c, 0, 64, 73
1, 1045436, Control_c, 0, 64, 70
1, 1045451, Control_c, 0, 64, 65
1, 1045466, Control_c, 0, 64, 56
1, 1045481, Control_c, 0, 64, 38
1, 1045496, Control_c, 0, 64, 0
1, 1045534, Note_on_c, 0, 80, 95
1, 1045539, Note_on_c, 0, 61, 65
1, 1045543, Note_on_c, 0, 65, 55
1, 1045569, Note_off_c, 0, 65, 62
1, 1045569, Note_off_c, 0, 80, 66
1, 1045570, Control_c, 0, 64, 41
1, 1045573, Note_off_c, 0, 61, 65
1, 1045584, Control_c, 0, 64, 54
1, 1045599, Control_c, 0, 64, 60
1, 1045614, Control_c, 0, 64, 61
1, 1045636, Control_c, 0, 64, 60
1, 1045651, Control_c, 0, 64, 58
1, 1045666, Control_c, 0, 64, 54
1, 1045681, Control_c, 0, 64, 44
1, 1045696, Control_c, 0, 64, 0
1, 1045784, Note_on_c, 0, 80, 99
1, 1045791, Note_on_c, 0, 64, 66
1, 1045799, Control_c, 0, 64, 44
1, 1045800, Note_on_c, 0, 60, 55
1, 1045814, Control_c, 0, 64, 61
1, 1045818, Note_off_c, 0, 80, 67
1, 1045821, Note_off_c, 0, 64, 63
1, 1045829, Control_c, 0, 64, 66
1, 1045834, Note_off_c, 0, 60, 66
1, 1045843, Control_c, 0, 64, 68
1, 1045858, Control_c, 0, 64, 70
1, 1045873, Control_c, 0, 64, 71
1, 1045888, Control_c, 0, 64, 72
1, 1045917, Control_c, 0, 64, 72
1, 1045932, Control_c, 0, 64, 66
1, 1045947, Control_c, 0, 64, 54
1, 1045962, Control_c, 0, 64, 0
1, 1046034, Note_on_c, 0, 80, 102
1, 1046036, Control_c, 0, 64, 45
1, 1046037, Note_on_c, 0, 61, 77
1, 1046042, Note_on_c, 0, 65, 75
1, 1046051, Control_c, 0, 64, 62
1, 1046051, Control_c, 0, 67, 21
1, 1046060, Note_off_c, 0, 61, 68
1, 1046066, Control_c, 0, 64, 70
1, 1046066, Note_off_c, 0, 65, 69
1, 1046081, Control_c, 0, 64, 79
1, 1046081, Control_c, 0, 67, 0
1, 1046081, Note_off_c, 0, 56, 62
1, 1046096, Control_c, 0, 64, 89
1, 1046110, Control_c, 0, 64, 99
1, 1046125, Control_c, 0, 64, 106
1, 1046140, Control_c, 0, 64, 113
1, 1046154, Control_c, 0, 64, 119
1, 1046278, Note_on_c, 0, 79, 105
1, 1046283, Note_on_c, 0, 72, 84
1, 1046284, Note_on_c, 0, 67, 79
1, 1046290, Note_on_c, 0, 76, 84
1, 1046297, Note_off_c, 0, 80, 37
1, 1046305, Note_off_c, 0, 67, 72
1, 1046305, Note_off_c, 0, 72, 68
1, 1046314, Note_off_c, 0, 76, 65
1, 1046319, Control_c, 0, 64, 122
1, 1046325, Note_off_c, 0, 79, 68
1, 1046348, Control_c, 0, 64, 126
1, 1046428, Note_on_c, 0, 76, 31
1, 1046467, Note_off_c, 0, 76, 49
1, 1046525, Note_on_c, 0, 56, 77
1, 1046528, Note_on_c, 0, 80, 96
1, 1046549, Note_off_c, 0, 56, 66
1, 1046565, Note_off_c, 0, 80, 62
1, 1046577, Control_c, 0, 64, 121
1, 1046592, Control_c, 0, 64, 103
1, 1046607, Control_c, 0, 64, 85
1, 1046622, Control_c, 0, 64, 71
1, 1046637, Control_c, 0, 64, 58
1, 1046652, Control_c, 0, 64, 32
1, 1046666, Control_c, 0, 64, 0
1, 1046764, Note_on_c, 0, 80, 111
1, 1046776, Note_on_c, 0, 72, 97
1, 1046780, Note_on_c, 0, 67, 88
1, 1046785, Note_on_c, 0, 79, 103
1, 1046790, Note_on_c, 0, 64, 72
1, 1046793, Note_off_c, 0, 80, 72
1, 1046799, Note_on_c, 0, 65, 72
1, 1046800, Control_c, 0, 64, 48
1, 1046809, Note_off_c, 0, 72, 67
1, 1046811, Note_off_c, 0, 67, 69
1, 1046815, Note_off_c, 0, 64, 69
1, 1046815, Control_c, 0, 64, 82
1, 1046815, Note_off_c, 0, 65, 69
1, 1046829, Control_c, 0, 64, 127
1, 1047001, Note_on_c, 0, 80, 97
1, 1047013, Note_off_c, 0, 79, 63
1, 1047015, Note_on_c, 0, 56, 84
1, 1047030, Note_off_c, 0, 80, 69
1, 1047038, Note_off_c, 0, 56, 70
1, 1047262, Note_on_c, 0, 56, 88
1, 1047268, Note_on_c, 0, 80, 91
1, 1047269, Note_on_c, 0, 92, 110
1, 1047290, Note_on_c, 0, 93, 68
1, 1047300, Note_off_c, 0, 80, 67
1, 1047301, Note_off_c, 0, 56, 62
1, 1047306, Note_off_c, 0, 92, 67
1, 1047306, Note_off_c, 0, 93, 67
1, 1047371, Control_c, 0, 64, 95
1, 1047386, Control_c, 0, 64, 79
1, 1047400, Control_c, 0, 64, 65
1, 1047415, Control_c, 0, 64, 37
1, 1047430, Control_c, 0, 64, 0
1, 1047473, Note_on_c, 0, 92, 93
1, 1047506, Note_on_c, 0, 91, 101
1, 1047509, Note_on_c, 0, 72, 96
1, 1047510, Note_off_c, 0, 92, 68
1, 1047514, Note_on_c, 0, 67, 87
1, 1047516, Note_on_c, 0, 64, 83
1, 1047516, Note_on_c, 0, 79, 101
1, 1047537, Note_off_c, 0, 72, 70
1, 1047538, Note_off_c, 0, 67, 68
1, 1047543, Note_off_c, 0, 64, 69
1, 1047548, Control_c, 0, 64, 33
1, 1047563, Control_c, 0, 64, 65
1, 1047569, Note_off_c, 0, 79, 69
1, 1047572, Note_off_c, 0, 91, 65
1, 1047578, Control_c, 0, 64, 82
1, 1047593, Control_c, 0, 64, 119
1, 1047607, Control_c, 0, 64, 127
1, 1047748, Note_on_c, 0, 56, 94
1, 1047752, Note_on_c, 0, 81, 100
1, 1047777, Note_on_c, 0, 88, 35
1, 1047784, Note_off_c, 0, 56, 64
1, 1047784, Note_off_c, 0, 81, 68
1, 1047812, Note_off_c, 0, 88, 45
1, 1047927, Control_c, 0, 64, 84
1, 1047942, Control_c, 0, 64, 62
1, 1047956, Control_c, 0, 64, 0
1, 1047990, Note_on_c, 0, 61, 85
1, 1047994, Note_on_c, 0, 92, 110
1, 1047997, Note_on_c, 0, 80, 94
1, 1048003, Note_on_c, 0, 93, 98
1, 1048011, Note_off_c, 0, 61, 69
1, 1048016, Control_c, 0, 64, 42
1, 1048018, Note_off_c, 0, 80, 67
1, 1048023, Note_off_c, 0, 93, 67
1, 1048031, Control_c, 0, 64, 61
1, 1048044, Note_off_c, 0, 92, 63
1, 1048046, Control_c, 0, 64, 71
1, 1048061, Control_c, 0, 64, 82
1, 1048075, Control_c, 0, 64, 95
1, 1048090, Control_c, 0, 64, 99
1, 1048135, Control_c, 0, 64, 91
1, 1048150, Control_c, 0, 64, 77
1, 1048164, Control_c, 0, 64, 60
1, 1048179, Control_c, 0, 64, 0
1, 1048230, Note_on_c, 0, 67, 97
1, 1048238, Note_on_c, 0, 94, 100
1, 1048239, Note_on_c, 0, 64, 86
1, 1048256, Note_off_c, 0, 64, 73
1, 1048260, Note_off_c, 0, 67, 69
1, 1048268, Control_c, 0, 64, 49
1, 1048283, Control_c, 0, 64, 72
1, 1048297, Control_c, 0, 64, 84
1, 1048299, Note_on_c, 0, 92, 92
1, 1048312, Control_c, 0, 64, 100
1, 1048320, Note_off_c, 0, 94, 66
1, 1048351, Note_on_c, 0, 90, 83
1, 1048374, Note_off_c, 0, 92, 66
1, 1048399, Note_off_c, 0, 90, 65
1, 1048405, Note_on_c, 0, 89, 86
1, 1048416, Control_c, 0, 64, 86
1, 1048430, Control_c, 0, 64, 65
1, 1048445, Control_c, 0, 64, 0
1, 1048457, Note_off_c, 0, 89, 64
1, 1048465, Note_on_c, 0, 68, 86
1, 1048465, Note_on_c, 0, 87, 96
1, 1048467, Note_on_c, 0, 65, 80
1, 1048490, Note_off_c, 0, 65, 71
1, 1048490, Control_c, 0, 64, 43
1, 1048493, Note_off_c, 0, 68, 65
1, 1048505, Control_c, 0, 64, 67
1, 1048520, Control_c, 0, 64, 78
1, 1048526, Note_on_c, 0, 85, 89
1, 1048535, Control_c, 0, 64, 96
1, 1048539, Note_off_c, 0, 87, 66
1, 1048549, Control_c, 0, 64, 105
1, 1048558, Note_off_c, 0, 85, 67
1, 1048565, Note_on_c, 0, 84, 78
1, 1048594, Control_c, 0, 64, 97
1, 1048609, Control_c, 0, 64, 87
1, 1048628, Note_on_c, 0, 82, 96
1, 1048632, Control_c, 0, 64, 73
1, 1048639, Note_off_c, 0, 84, 68
1, 1048647, Control_c, 0, 64, 57
1, 1048661, Control_c, 0, 64, 0
1, 1048682, Note_on_c, 0, 80, 104
1, 1048694, Note_on_c, 0, 70, 94
1, 1048695, Note_off_c, 0, 82, 68
1, 1048696, Note_on_c, 0, 66, 84
1, 1048712, Note_off_c, 0, 80, 72
1, 1048715, Note_off_c, 0, 66, 69
1, 1048721, Control_c, 0, 64, 55
1, 1048723, Note_off_c, 0, 70, 68
1, 1048735, Control_c, 0, 64, 77
1, 1048750, Control_c, 0, 64, 127
1, 1048794, Control_c, 0, 64, 89
1, 1048809, Control_c, 0, 64, 65
1, 1048809, Control_c, 0, 67, 19
1, 1048824, Control_c, 0, 64, 35
1, 1048839, Control_c, 0, 64, 0
1, 1048938, Note_on_c, 0, 68, 106
1, 1048950, Note_on_c, 0, 60, 76
1, 1048953, Note_on_c, 0, 63, 78
1, 1048957, Control_c, 0, 67, 0
1, 1048967, Note_off_c, 0, 68, 74
1, 1048977, Note_off_c, 0, 60, 67
1, 1048979, Note_off_c, 0, 63, 67
1, 1048986, Control_c, 0, 64, 63
1, 1049001, Control_c, 0, 64, 83
1, 1049016, Control_c, 0, 64, 85
1, 1049031, Control_c, 0, 64, 84
1, 1049031, Control_c, 0, 67, 20
1, 1049046, Control_c, 0, 64, 80
1, 1049046, Control_c, 0, 67, 22
1, 1049075, Control_c, 0, 67, 24
1, 1049090, Control_c, 0, 64, 79
1, 1049104, Control_c, 0, 64, 77
1, 1049119, Control_c, 0, 64, 72
1, 1049134, Control_c, 0, 64, 64
1, 1049149, Control_c, 0, 64, 47
1, 1049164, Control_c, 0, 64, 0
1, 1049198, Note_on_c, 0, 56, 112
1, 1049201, Note_on_c, 0, 63, 78
1, 1049202, Note_on_c, 0, 60, 72
1, 1049208, Control_c, 0, 64, 53
1, 1049220, Note_off_c, 0, 56, 68
1, 1049223, Control_c, 0, 64, 68
1, 1049230, Note_off_c, 0, 60, 68
1, 1049237, Note_off_c, 0, 63, 63
1, 1049238, Control_c, 0, 64, 72
1, 1049253, Control_c, 0, 64, 70
1, 1049268, Control_c, 0, 64, 59
1, 1049283, Control_c, 0, 64, 36
1, 1049297, Control_c, 0, 64, 0
1, 1049297, Control_c, 0, 67, 26
1, 1049327, Control_c, 0, 67, 28
1, 1049457, Note_on_c, 0, 55, 111
1, 1049464, Note_on_c, 0, 60, 73
1, 1049466, Note_on_c, 0, 63, 76
1, 1049469, Control_c, 0, 64, 37
1, 1049469, Control_c, 0, 67, 26
1, 1049483, Note_off_c, 0, 55, 69
1, 1049483, Control_c, 0, 64, 64
1, 1049495, Note_off_c, 0, 60, 69
1, 1049498, Control_c, 0, 64, 72
1, 1049500, Note_off_c, 0, 63, 63
1, 1049513, Control_c, 0, 64, 73
1, 1049542, Control_c, 0, 64, 72
1, 1049557, Control_c, 0, 64, 68
1, 1049572, Control_c, 0, 64, 62
1, 1049587, Control_c, 0, 64, 53
1, 1049602, Control_c, 0, 64, 36
1, 1049617, Control_c, 0, 64, 0
1, 1049707, Note_on_c, 0, 68, 105
1, 1049714, Note_on_c, 0, 63, 80
1, 1049715, Note_on_c, 0, 60, 73
1, 1049721, Control_c, 0, 67, 23
1, 1049735, Control_c, 0, 64, 53
1, 1049744, Note_off_c, 0, 60, 66
1, 1049750, Control_c, 0, 64, 68
1, 1049754, Note_off_c, 0, 63, 61
1, 1049765, Control_c, 0, 64, 79
1, 1049780, Control_c, 0, 64, 104
1, 1049782, Note_off_c, 0, 68, 53
1, 1049795, Control_c, 0, 64, 127
1, 1049955, Note_on_c, 0, 63, 81
1, 1049957, Note_on_c, 0, 60, 74
1, 1049990, Note_off_c, 0, 60, 68
1, 1050004, Note_off_c, 0, 63, 62
1, 1050187, Control_c, 0, 64, 88
1, 1050203, Control_c, 0, 64, 62
1, 1050213, Note_on_c, 0, 56, 105
1, 1050213, Note_on_c, 0, 60, 80
1, 1050214, Note_on_c, 0, 63, 82
1, 1050218, Control_c, 0, 64, 31
1, 1050232, Control_c, 0, 64, 0
1, 1050247, Control_c, 0, 64, 44
1, 1050253, Note_off_c, 0, 60, 63
1, 1050262, Control_c, 0, 64, 61
1, 1050267, Note_off_c, 0, 63, 61
1, 1050277, Control_c, 0, 64, 72
1, 1050292, Control_c, 0, 64, 85
1, 1050306, Control_c, 0, 64, 118
1, 1050321, Control_c, 0, 64, 127
1, 1050409, Note_off_c, 0, 56, 59
1, 1050452, Note_on_c, 0, 63, 80
1, 1050453, Note_on_c, 0, 60, 76
1, 1050471, Note_off_c, 0, 63, 73
1, 1050481, Note_on_c, 0, 59, 46
1, 1050482, Note_off_c, 0, 60, 68
1, 1050505, Note_off_c, 0, 59, 59
1, 1050647, Control_c, 0, 64, 87
1, 1050662, Control_c, 0, 64, 62
1, 1050677, Control_c, 0, 64, 0
1, 1050705, Note_on_c, 0, 32, 109
1, 1050707, Note_on_c, 0, 60, 77
1, 1050713, Note_on_c, 0, 63, 78
1, 1050736, Control_c, 0, 64, 56
1, 1050742, Note_off_c, 0, 32, 65
1, 1050750, Control_c, 0, 64, 72
1, 1050765, Note_off_c, 0, 60, 64
1, 1050765, Control_c, 0, 64, 91
1, 1050780, Control_c, 0, 64, 127
1, 1050795, Control_c, 0, 67, 25
1, 1050824, Control_c, 0, 64, 102
1, 1050839, Note_off_c, 0, 63, 53
1, 1050839, Control_c, 0, 64, 78
1, 1050854, Control_c, 0, 64, 60
1, 1050854, Control_c, 0, 67, 27
1, 1050876, Control_c, 0, 64, 0
1, 1050965, Control_c, 0, 67, 25
1, 1050972, Note_on_c, 0, 31, 111
1, 1050979, Note_on_c, 0, 63, 82
1, 1050980, Control_c, 0, 64, 45
1, 1050989, Note_on_c, 0, 59, 51
1, 1050996, Note_on_c, 0, 60, 58
1, 1050996, Control_c, 0, 64, 73
1, 1050996, Control_c, 0, 67, 23
1, 1051006, Note_off_c, 0, 31, 67
1, 1051011, Control_c, 0, 64, 86
1, 1051018, Note_off_c, 0, 60, 66
1, 1051021, Note_off_c, 0, 59, 65
1, 1051026, Control_c, 0, 64, 110
1, 1051031, Note_off_c, 0, 63, 65
1, 1051041, Control_c, 0, 64, 114
1, 1051070, Control_c, 0, 67, 25
1, 1051085, Control_c, 0, 64, 109
1, 1051099, Control_c, 0, 64, 92
1, 1051114, Control_c, 0, 64, 74
1, 1051114, Control_c, 0, 67, 27
1, 1051129, Control_c, 0, 64, 56
1, 1051144, Control_c, 0, 64, 0
1, 1051203, Control_c, 0, 67, 25
1, 1051227, Note_on_c, 0, 56, 110
1, 1051228, Note_on_c, 0, 60, 80
1, 1051228, Note_on_c, 0, 63, 88
1, 1051262, Control_c, 0, 67, 23
1, 1051277, Control_c, 0, 64, 42
1, 1051292, Control_c, 0, 64, 74
1, 1051307, Control_c, 0, 64, 96
1, 1051322, Control_c, 0, 64, 127
1, 1051343, Note_off_c, 0, 63, 48
1, 1051360, Note_off_c, 0, 56, 63
1, 1051363, Note_off_c, 0, 60, 60
1, 1051441, Control_c, 0, 67, 21
1, 1051455, Control_c, 0, 67, 0
1, 1051469, Note_on_c, 0, 60, 82
1, 1051473, Note_on_c, 0, 63, 82
1, 1051506, Note_off_c, 0, 63, 64
1, 1051512, Note_on_c, 0, 55, 70
1, 1051530, Note_on_c, 0, 57, 50
1, 1051559, Note_off_c, 0, 57, 57
1, 1051570, Note_on_c, 0, 48, 76
1, 1051574, Note_on_c, 0, 47, 72
1, 1051575, Note_off_c, 0, 55, 65
1, 1051587, Note_on_c, 0, 50, 60
1, 1051588, Note_off_c, 0, 60, 59
1, 1051590, Note_on_c, 0, 45, 84
1, 1051611, Note_off_c, 0, 50, 61
1, 1051623, Note_off_c, 0, 48, 65
1, 1051636, Note_off_c, 0, 47, 45
1, 1051639, Note_off_c, 0, 45, 65
1, 1051726, Note_on_c, 0, 63, 99
1, 1051727, Note_on_c, 0, 44, 109
1, 1051729, Note_on_c, 0, 60, 89
1, 1051729, Control_c, 0, 64, 96
1, 1051744, Control_c, 0, 64, 54
1, 1051759, Control_c, 0, 64, 0
1, 1051822, Note_off_c, 0, 63, 60
1, 1051872, Note_off_c, 0, 60, 60
1, 1051968, Control_c, 0, 64, 55
1, 1051977, Note_on_c, 0, 60, 88
1, 1051980, Note_on_c, 0, 63, 88
1, 1051983, Control_c, 0, 64, 72
1, 1051995, Note_off_c, 0, 44, 67
1, 1051997, Control_c, 0, 64, 87
1, 1052012, Control_c, 0, 64, 127
1, 1052013, Note_off_c, 0, 63, 67
1, 1052016, Note_off_c, 0, 60, 65
1, 1052190, Control_c, 0, 64, 69
1, 1052204, Control_c, 0, 64, 0
1, 1052226, Note_on_c, 0, 56, 102
1, 1052230, Note_on_c, 0, 63, 102
1, 1052240, Note_on_c, 0, 60, 80
1, 1052249, Control_c, 0, 64, 34
1, 1052256, Note_off_c, 0, 63, 66
1, 1052261, Note_off_c, 0, 60, 68
1, 1052264, Note_off_c, 0, 56, 68
1, 1052264, Control_c, 0, 64, 66
1, 1052279, Control_c, 0, 64, 87
1, 1052293, Control_c, 0, 64, 105
1, 1052308, Control_c, 0, 64, 85
1, 1052323, Control_c, 0, 64, 63
1, 1052328, Poly_aftertouch_c, 0, 59, 0
1, 1052338, Control_c, 0, 64, 0
1, 1052480, Note_on_c, 0, 55, 90
1, 1052487, Note_on_c, 0, 61, 86
1, 1052489, Note_on_c, 0, 64, 87
1, 1052508, Note_off_c, 0, 64, 73
1, 1052508, Control_c, 0, 64, 35
1, 1052514, Note_off_c, 0, 55, 67
1, 1052522, Note_off_c, 0, 61, 64
1, 1052523, Control_c, 0, 64, 69
1, 1052538, Control_c, 0, 64, 74
1, 1052553, Control_c, 0, 64, 66
1, 1052568, Control_c, 0, 64, 40
1, 1052583, Control_c, 0, 64, 0
1, 1052734, Note_on_c, 0, 68, 104
1, 1052744, Note_on_c, 0, 62, 84
1, 1052745, Note_on_c, 0, 65, 83
1, 1052761, Control_c, 0, 64, 32
1, 1052765, Note_off_c, 0, 65, 71
1, 1052773, Note_off_c, 0, 62, 68
1, 1052776, Control_c, 0, 64, 64
1, 1052791, Control_c, 0, 64, 79
1, 1052806, Control_c, 0, 64, 92
1, 1052820, Control_c, 0, 64, 104
1, 1052835, Control_c, 0, 64, 127
1, 1052924, Control_c, 0, 64, 82
1, 1052938, Control_c, 0, 64, 61
1, 1052953, Control_c, 0, 64, 0
1, 1052976, Note_on_c, 0, 65, 93
1, 1052978, Note_on_c, 0, 44, 103
1, 1052979, Note_on_c, 0, 62, 83
1, 1052998, Control_c, 0, 64, 45
1, 1053012, Note_off_c, 0, 62, 64
1, 1053013, Control_c, 0, 64, 62
1, 1053014, Note_off_c, 0, 44, 68
1, 1053016, Note_off_c, 0, 65, 65
1, 1053027, Control_c, 0, 64, 71
1, 1053042, Control_c, 0, 64, 82
1, 1053057, Control_c, 0, 64, 98
1, 1053071, Control_c, 0, 64, 114
1, 1053101, Control_c, 0, 64, 98
1, 1053124, Control_c, 0, 64, 76
1, 1053139, Control_c, 0, 64, 56
1, 1053153, Control_c, 0, 64, 0
1, 1053234, Note_on_c, 0, 63, 98
1, 1053235, Note_on_c, 0, 43, 106
1, 1053244, Note_on_c, 0, 66, 81
1, 1053269, Note_off_c, 0, 66, 68
1, 1053269, Note_off_c, 0, 43, 67
1, 1053271, Control_c, 0, 64, 54
1, 1053276, Note_off_c, 0, 63, 66
1, 1053286, Control_c, 0, 64, 103
1, 1053287, Note_off_c, 0, 68, 60
1, 1053301, Control_c, 0, 64, 127
1, 1053375, Control_c, 0, 64, 89
1, 1053390, Control_c, 0, 64, 60
1, 1053405, Control_c, 0, 64, 0
1, 1053480, Note_on_c, 0, 67, 98
1, 1053484, Note_on_c, 0, 64, 85
1, 1053487, Note_on_c, 0, 58, 108
1, 1053503, Note_on_c, 0, 56, 68
1, 1053503, Note_off_c, 0, 56, 127
1, 1053509, Control_c, 0, 64, 45
1, 1053514, Note_off_c, 0, 58, 70
1, 1053516, Note_off_c, 0, 64, 68
1, 1053520, Note_off_c, 0, 67, 70
1, 1053524, Control_c, 0, 64, 70
1, 1053539, Control_c, 0, 64, 83
1, 1053554, Control_c, 0, 64, 114
1, 1053568, Control_c, 0, 64, 127
1, 1053687, Control_c, 0, 64, 105
1, 1053701, Control_c, 0, 64, 71
1, 1053716, Control_c, 0, 64, 48
1, 1053731, Control_c, 0, 64, 0
1, 1053735, Note_on_c, 0, 56, 119
1, 1053744, Note_on_c, 0, 67, 82
1, 1053749, Note_on_c, 0, 65, 76
1, 1053751, Note_on_c, 0, 64, 77
1, 1053760, Note_off_c, 0, 56, 68
1, 1053760, Control_c, 0, 64, 51
1, 1053771, Note_off_c, 0, 67, 67
1, 1053772, Note_off_c, 0, 64, 70
1, 1053775, Control_c, 0, 64, 68
1, 1053781, Note_off_c, 0, 65, 68
1, 1053790, Control_c, 0, 64, 94
1, 1053805, Control_c, 0, 64, 127
1, 1053901, Control_c, 0, 64, 109
1, 1053916, Control_c, 0, 64, 70
1, 1053931, Control_c, 0, 64, 41
1, 1053946, Control_c, 0, 64, 0
1, 1053983, Note_on_c, 0, 55, 118
1, 1053984, Note_on_c, 0, 67, 97
1, 1053990, Note_on_c, 0, 65, 93
1, 1053990, Control_c, 0, 64, 58
1, 1054005, Control_c, 0, 64, 75
1, 1054008, Note_off_c, 0, 55, 72
1, 1054013, Note_on_c, 0, 57, 48
1, 1054013, Note_off_c, 0, 57, 127
1, 1054016, Note_off_c, 0, 67, 69
1, 1054019, Control_c, 0, 64, 127
1, 1054020, Note_off_c, 0, 65, 68
1, 1054139, Control_c, 0, 64, 81
1, 1054154, Control_c, 0, 64, 56
1, 1054168, Control_c, 0, 64, 0
1, 1054228, Control_c, 0, 64, 47
1, 1054231, Note_on_c, 0, 80, 121
1, 1054233, Note_on_c, 0, 68, 119
1, 1054239, Note_on_c, 0, 66, 96
1, 1054243, Control_c, 0, 64, 60
1, 1054258, Control_c, 0, 64, 65
1, 1054259, Note_off_c, 0, 80, 74
1, 1054265, Note_off_c, 0, 68, 69
1, 1054270, Note_off_c, 0, 66, 60
1, 1054273, Control_c, 0, 64, 70
1, 1054288, Control_c, 0, 64, 77
1, 1054303, Control_c, 0, 64, 93
1, 1054317, Control_c, 0, 64, 127
1, 1054475, Note_on_c, 0, 68, 110
1, 1054480, Note_on_c, 0, 66, 92
1, 1054507, Note_off_c, 0, 66, 62
1, 1054509, Note_off_c, 0, 68, 68
1, 1054729, Note_on_c, 0, 68, 113
1, 1054734, Note_on_c, 0, 56, 123
1, 1054739, Note_on_c, 0, 66, 93
1, 1054757, Note_off_c, 0, 56, 71
1, 1054762, Note_off_c, 0, 68, 72
1, 1054779, Note_off_c, 0, 66, 59
1, 1055013, Note_on_c, 0, 32, 117
1, 1055048, Note_on_c, 0, 31, 59
1, 1055050, Note_off_c, 0, 32, 67
1, 1055082, Note_off_c, 0, 31, 54
1, 1055259, Control_c, 0, 64, 107
1, 1055263, Note_on_c, 0, 73, 88
1, 1055265, Note_on_c, 0, 80, 100
1, 1055266, Note_on_c, 0, 68, 101
1, 1055267, Note_on_c, 0, 77, 77
1, 1055269, Note_on_c, 0, 58, 109
1, 1055275, Note_on_c, 0, 53, 101
1, 1055276, Note_on_c, 0, 44, 81
1, 1055278, Note_on_c, 0, 49, 84
1, 1055289, Control_c, 0, 64, 127
1, 1055302, Note_off_c, 0, 44, 67
1, 1055316, Note_off_c, 0, 58, 70
1, 1055324, Note_off_c, 0, 49, 66
1, 1055328, Note_off_c, 0, 53, 66
1, 1055331, Note_off_c, 0, 77, 64
1, 1055336, Note_off_c, 0, 68, 68
1, 1055337, Note_off_c, 0, 73, 66
1, 1055337, Note_off_c, 0, 80, 71
1, 1055410, Note_on_c, 0, 72, 43
1, 1055436, Note_off_c, 0, 72, 55
1, 1055441, Note_on_c, 0, 71, 26
1, 1055474, Control_c, 0, 64, 111
1, 1055487, Note_off_c, 0, 71, 45
1, 1055489, Control_c, 0, 64, 72
1, 1055504, Control_c, 0, 64, 53
1, 1055519, Control_c, 0, 64, 36
1, 1055522, Note_on_c, 0, 71, 89
1, 1055522, Note_on_c, 0, 67, 102
1, 1055523, Note_on_c, 0, 79, 101
1, 1055524, Note_on_c, 0, 74, 99
1, 1055527, Note_on_c, 0, 62, 99
1, 1055530, Note_on_c, 0, 48, 84
1, 1055530, Note_on_c, 0, 57, 106
1, 1055534, Control_c, 0, 64, 51
1, 1055537, Note_on_c, 0, 53, 85
1, 1055549, Control_c, 0, 64, 70
1, 1055553, Note_off_c, 0, 74, 68
1, 1055557, Note_off_c, 0, 62, 67
1, 1055563, Note_off_c, 0, 57, 70
1, 1055563, Control_c, 0, 64, 127
1, 1055564, Note_off_c, 0, 71, 67
1, 1055566, Note_off_c, 0, 53, 66
1, 1055566, Note_off_c, 0, 67, 67
1, 1055573, Note_off_c, 0, 48, 64
1, 1055582, Note_off_c, 0, 79, 68
1, 1055682, Control_c, 0, 64, 91
1, 1055697, Control_c, 0, 64, 70
1, 1055712, Control_c, 0, 64, 50
1, 1055727, Control_c, 0, 64, 0
1, 1055778, Note_on_c, 0, 80, 102
1, 1055781, Note_on_c, 0, 68, 107
1, 1055781, Note_on_c, 0, 73, 104
1, 1055782, Note_on_c, 0, 58, 109
1, 1055785, Note_on_c, 0, 44, 95
1, 1055785, Note_on_c, 0, 77, 89
1, 1055787, Note_on_c, 0, 53, 98
1, 1055789, Note_on_c, 0, 49, 93
1, 1055814, Note_off_c, 0, 58, 72
1, 1055817, Control_c, 0, 64, 59
1, 1055825, Note_off_c, 0, 53, 65
1, 1055826, Note_off_c, 0, 68, 67
1, 1055832, Control_c, 0, 64, 127
1, 1055832, Note_off_c, 0, 77, 67
1, 1055833, Note_off_c, 0, 80, 70
1, 1055834, Note_off_c, 0, 73, 67
1, 1055835, Note_off_c, 0, 44, 66
1, 1055838, Note_on_c, 0, 69, 9
1, 1055839, Note_off_c, 0, 49, 63
1, 1055883, Note_off_c, 0, 69, 48
1, 1056034, Note_on_c, 0, 33, 104
1, 1056070, Note_off_c, 0, 33, 66
1, 1056136, Poly_aftertouch_c, 0, 32, 0
1, 1056175, Poly_aftertouch_c, 0, 32, 0
1, 1056239, Control_c, 0, 64, 80
1, 1056253, Control_c, 0, 64, 63
1, 1056268, Note_on_c, 0, 44, 104
1, 1056268, Control_c, 0, 64, 57
1, 1056279, Note_on_c, 0, 31, 100
1, 1056283, Control_c, 0, 64, 66
1, 1056287, Note_on_c, 0, 33, 86
1, 1056297, Control_c, 0, 64, 82
1, 1056301, Note_off_c, 0, 44, 69
1, 1056312, Control_c, 0, 64, 127
1, 1056313, Note_off_c, 0, 31, 67
1, 1056313, Note_off_c, 0, 33, 57
1, 1056431, Control_c, 0, 64, 77
1, 1056446, Control_c, 0, 64, 51
1, 1056461, Control_c, 0, 64, 0
1, 1056542, Note_on_c, 0, 32, 108
1, 1056542, Note_on_c, 0, 44, 112
1, 1056564, Control_c, 0, 64, 52
1, 1056579, Control_c, 0, 64, 127
1, 1056591, Note_off_c, 0, 32, 65
1, 1056591, Note_off_c, 0, 44, 68
1, 1056789, Note_on_c, 0, 80, 101
1, 1056790, Note_on_c, 0, 73, 101
1, 1056792, Note_on_c, 0, 68, 105
1, 1056795, Note_on_c, 0, 58, 103
1, 1056796, Note_on_c, 0, 77, 89
1, 1056800, Note_on_c, 0, 44, 89
1, 1056801, Note_on_c, 0, 53, 94
1, 1056802, Note_on_c, 0, 49, 91
1, 1056829, Note_off_c, 0, 44, 68
1, 1056835, Note_on_c, 0, 69, 33
1, 1056837, Note_off_c, 0, 58, 69
1, 1056838, Note_off_c, 0, 53, 66
1, 1056839, Note_off_c, 0, 68, 69
1, 1056845, Note_off_c, 0, 73, 67
1, 1056848, Note_off_c, 0, 80, 71
1, 1056849, Note_off_c, 0, 49, 63
1, 1056853, Note_off_c, 0, 77, 65
1, 1056875, Note_off_c, 0, 69, 56
1, 1057002, Control_c, 0, 64, 73
1, 1057017, Control_c, 0, 64, 42
1, 1057032, Control_c, 0, 64, 0
1, 1057037, Note_on_c, 0, 67, 102
1, 1057037, Note_on_c, 0, 79, 101
1, 1057039, Note_on_c, 0, 62, 101
1, 1057039, Note_on_c, 0, 71, 84
1, 1057040, Note_on_c, 0, 74, 101
1, 1057044, Note_on_c, 0, 57, 96
1, 1057045, Note_on_c, 0, 48, 80
1, 1057048, Note_on_c, 0, 53, 82
1, 1057061, Control_c, 0, 64, 36
1, 1057075, Note_off_c, 0, 62, 67
1, 1057076, Note_off_c, 0, 57, 69
1, 1057077, Control_c, 0, 64, 71
1, 1057078, Note_off_c, 0, 67, 69
1, 1057081, Note_off_c, 0, 53, 68
1, 1057083, Note_off_c, 0, 74, 67
1, 1057090, Note_off_c, 0, 71, 67
1, 1057090, Note_off_c, 0, 48, 66
1, 1057092, Control_c, 0, 64, 127
1, 1057093, Note_off_c, 0, 79, 67
1, 1057239, Control_c, 0, 64, 89
1, 1057254, Control_c, 0, 64, 64
1, 1057269, Control_c, 0, 64, 0
1, 1057289, Note_on_c, 0, 79, 103
1, 1057290, Note_on_c, 0, 67, 100
1, 1057292, Note_on_c, 0, 74, 101
1, 1057295, Note_on_c, 0, 71, 103
1, 1057295, Note_on_c, 0, 58, 99
1, 1057296, Note_on_c, 0, 44, 89
1, 1057300, Note_on_c, 0, 49, 92
1, 1057301, Note_on_c, 0, 53, 97
1, 1057328, Note_off_c, 0, 58, 69
1, 1057328, Control_c, 0, 64, 42
1, 1057331, Note_off_c, 0, 53, 68
1, 1057333, Note_on_c, 0, 59, 45
1, 1057334, Note_off_c, 0, 67, 68
1, 1057334, Note_off_c, 0, 71, 70
1, 1057337, Note_off_c, 0, 74, 66
1, 1057339, Note_off_c, 0, 49, 66
1, 1057343, Note_off_c, 0, 79, 69
1, 1057343, Note_off_c, 0, 44, 68
1, 1057343, Control_c, 0, 64, 70
1, 1057358, Control_c, 0, 64, 127
1, 1057365, Note_off_c, 0, 59, 56
1, 1057507, Control_c, 0, 64, 118
1, 1057522, Control_c, 0, 64, 77
1, 1057537, Control_c, 0, 64, 61
1, 1057537, Note_on_c, 0, 80, 100
1, 1057540, Note_on_c, 0, 68, 103
1, 1057542, Note_on_c, 0, 73, 94
1, 1057546, Note_on_c, 0, 77, 83
1, 1057547, Note_on_c, 0, 32, 108
1, 1057552, Control_c, 0, 64, 51
1, 1057567, Control_c, 0, 64, 60
1, 1057576, Note_off_c, 0, 77, 64
1, 1057577, Note_off_c, 0, 32, 68
1, 1057577, Note_off_c, 0, 68, 67
1, 1057578, Note_off_c, 0, 80, 69
1, 1057579, Note_off_c, 0, 73, 66
1, 1057582, Control_c, 0, 64, 75
1, 1057596, Control_c, 0, 64, 127
1, 1057699, Poly_aftertouch_c, 0, 33, 0
1, 1057737, Control_c, 0, 64, 115
1, 1057751, Control_c, 0, 64, 66
1, 1057766, Control_c, 0, 64, 0
1, 1057783, Note_on_c, 0, 31, 99
1, 1057796, Control_c, 0, 64, 33
1, 1057811, Control_c, 0, 64, 69
1, 1057820, Note_off_c, 0, 31, 66
1, 1057825, Control_c, 0, 64, 127
1, 1057899, Control_c, 0, 64, 73
1, 1057914, Control_c, 0, 64, 37
1, 1057929, Control_c, 0, 64, 0
1, 1058038, Note_on_c, 0, 32, 99
1, 1058038, Note_on_c, 0, 44, 105
1, 1058061, Control_c, 0, 64, 61
1, 1058076, Control_c, 0, 64, 127
1, 1058082, Note_off_c, 0, 44, 67
1, 1058083, Note_off_c, 0, 32, 65
1, 1058105, Note_on_c, 0, 46, 2
1, 1058106, Note_on_c, 0, 45, 6
1, 1058146, Note_off_c, 0, 45, 37
1, 1058148, Note_off_c, 0, 46, 47
1, 1058282, Note_on_c, 0, 85, 124
1, 1058310, Note_off_c, 0, 85, 74
1, 1058396, Control_c, 0, 64, 62
1, 1058411, Control_c, 0, 64, 0
1, 1058545, Note_on_c, 0, 80, 122
1, 1058546, Note_on_c, 0, 73, 118
1, 1058559, Control_c, 0, 64, 44
1, 1058568, Note_off_c, 0, 73, 74
1, 1058574, Control_c, 0, 64, 84
1, 1058576, Note_off_c, 0, 80, 72
1, 1058589, Control_c, 0, 64, 127
1, 1058809, Note_on_c, 0, 68, 114
1, 1058829, Note_off_c, 0, 68, 75
1, 1059049, Note_on_c, 0, 79, 105
1, 1059263, Control_c, 0, 64, 101
1, 1059278, Control_c, 0, 64, 63
1, 1059293, Control_c, 0, 64, 39
1, 1059299, Note_on_c, 0, 78, 96
1, 1059307, Note_on_c, 0, 44, 79
1, 1059307, Control_c, 0, 64, 52
1, 1059319, Note_off_c, 0, 79, 59
1, 1059322, Control_c, 0, 64, 64
1, 1059337, Control_c, 0, 64, 74
1, 1059352, Note_on_c, 0, 49, 69
1, 1059352, Control_c, 0, 64, 96
1, 1059367, Control_c, 0, 64, 127
1, 1059395, Note_on_c, 0, 52, 76
1, 1059414, Note_off_c, 0, 44, 60
1, 1059426, Note_off_c, 0, 49, 63
1, 1059432, Note_on_c, 0, 57, 89
1, 1059456, Note_off_c, 0, 52, 63
1, 1059476, Note_off_c, 0, 57, 65
1, 1059522, Note_off_c, 0, 78, 66
1, 1059537, Note_on_c, 0, 61, 111
1, 1059541, Note_on_c, 0, 77, 97
1, 1059560, Note_off_c, 0, 61, 69
1, 1059783, Control_c, 0, 64, 97
1, 1059798, Note_on_c, 0, 75, 99
1, 1059798, Control_c, 0, 64, 64
1, 1059808, Note_on_c, 0, 56, 121
1, 1059812, Control_c, 0, 64, 0
1, 1059820, Note_off_c, 0, 77, 69
1, 1059894, Control_c, 0, 64, 49
1, 1059909, Control_c, 0, 64, 64
1, 1059924, Control_c, 0, 64, 63
1, 1059938, Control_c, 0, 64, 56
1, 1059953, Control_c, 0, 64, 35
1, 1059968, Control_c, 0, 64, 0
1, 1059997, Control_c, 0, 64, 43
1, 1060012, Control_c, 0, 64, 60
1, 1060027, Control_c, 0, 64, 68
1, 1060042, Control_c, 0, 64, 73
1, 1060053, Note_on_c, 0, 73, 110
1, 1060057, Control_c, 0, 64, 77
1, 1060072, Control_c, 0, 64, 81
1, 1060077, Note_off_c, 0, 75, 63
1, 1060087, Control_c, 0, 64, 86
1, 1060088, Note_off_c, 0, 73, 71
1, 1060102, Control_c, 0, 64, 92
1, 1060117, Control_c, 0, 64, 100
1, 1060132, Control_c, 0, 64, 110
1, 1060146, Control_c, 0, 64, 127
1, 1060171, Poly_aftertouch_c, 0, 55, 127
1, 1060219, Poly_aftertouch_c, 0, 55, 0
1, 1060309, Control_c, 0, 64, 95
1, 1060312, Note_on_c, 0, 74, 107
1, 1060315, Note_on_c, 0, 62, 80
1, 1060324, Note_on_c, 0, 60, 67
1, 1060324, Control_c, 0, 64, 66
1, 1060339, Control_c, 0, 64, 45
1, 1060354, Control_c, 0, 64, 51
1, 1060369, Control_c, 0, 64, 66
1, 1060383, Control_c, 0, 64, 78
1, 1060398, Control_c, 0, 64, 98
1, 1060413, Control_c, 0, 64, 126
1, 1060487, Control_c, 0, 64, 119
1, 1060498, Note_off_c, 0, 62, 58
1, 1060502, Control_c, 0, 64, 100
1, 1060517, Control_c, 0, 64, 96
1, 1060518, Note_off_c, 0, 60, 61
1, 1060554, Note_on_c, 0, 59, 56
1, 1060561, Control_c, 0, 64, 88
1, 1060572, Note_on_c, 0, 63, 66
1, 1060576, Control_c, 0, 64, 78
1, 1060592, Control_c, 0, 64, 69
1, 1060613, Control_c, 0, 64, 67
1, 1060624, Note_off_c, 0, 74, 59
1, 1060628, Control_c, 0, 64, 70
1, 1060643, Control_c, 0, 64, 74
1, 1060658, Control_c, 0, 64, 79
1, 1060659, Note_on_c, 0, 75, 89
1, 1060673, Control_c, 0, 64, 82
1, 1060688, Control_c, 0, 64, 86
1, 1060694, Note_off_c, 0, 75, 68
1, 1060703, Control_c, 0, 64, 89
1, 1060717, Control_c, 0, 64, 92
1, 1060732, Control_c, 0, 64, 93
1, 1060762, Control_c, 0, 64, 94
1, 1060777, Control_c, 0, 64, 96
1, 1060789, Note_on_c, 0, 68, 104
1, 1060792, Control_c, 0, 64, 99
1, 1060793, Note_off_c, 0, 63, 60
1, 1060795, Note_on_c, 0, 64, 72
1, 1060800, Note_on_c, 0, 60, 67
1, 1060807, Control_c, 0, 64, 106
1, 1060813, Note_off_c, 0, 68, 67
1, 1060818, Note_off_c, 0, 59, 46
1, 1060821, Control_c, 0, 64, 127
1, 1060860, Note_off_c, 0, 64, 59
1, 1060940, Control_c, 0, 64, 87
1, 1060955, Control_c, 0, 64, 59
1, 1060969, Control_c, 0, 64, 0
1, 1060997, Note_off_c, 0, 60, 56
1, 1061036, Note_on_c, 0, 61, 93
1, 1061039, Note_on_c, 0, 65, 84
1, 1061045, Note_on_c, 0, 68, 108
1, 1061057, Note_on_c, 0, 67, 95
1, 1061058, Note_off_c, 0, 65, 74
1, 1061058, Control_c, 0, 64, 60
1, 1061059, Note_on_c, 0, 55, 58
1, 1061068, Note_off_c, 0, 61, 66
1, 1061073, Control_c, 0, 64, 72
1, 1061078, Note_off_c, 0, 56, 60
1, 1061082, Note_off_c, 0, 55, 61
1, 1061087, Control_c, 0, 64, 86
1, 1061093, Note_off_c, 0, 67, 42
1, 1061102, Control_c, 0, 64, 127
1, 1061278, Note_off_c, 0, 68, 60
1, 1061281, Note_on_c, 0, 41, 101
1, 1061281, Note_on_c, 0, 32, 99
1, 1061282, Note_on_c, 0, 37, 99
1, 1061313, Note_off_c, 0, 41, 64
1, 1061320, Note_off_c, 0, 37, 66
1, 1061323, Note_off_c, 0, 32, 65
1, 1061450, Poly_aftertouch_c, 0, 75, 127
1, 1061451, Control_c, 0, 64, 78
1, 1061466, Control_c, 0, 64, 50
1, 1061481, Control_c, 0, 64, 0
1, 1061507, Poly_aftertouch_c, 0, 75, 0
1, 1061510, Control_c, 0, 64, 33
1, 1061525, Control_c, 0, 64, 59
1, 1061534, Note_on_c, 0, 73, 103
1, 1061534, Note_on_c, 0, 40, 100
1, 1061536, Note_on_c, 0, 31, 95
1, 1061536, Note_on_c, 0, 35, 100
1, 1061540, Control_c, 0, 64, 79
1, 1061546, Note_on_c, 0, 72, 97
1, 1061555, Control_c, 0, 64, 127
1, 1061561, Note_off_c, 0, 72, 77
1, 1061564, Note_off_c, 0, 40, 66
1, 1061567, Note_off_c, 0, 73, 70
1, 1061570, Note_off_c, 0, 35, 66
1, 1061573, Note_off_c, 0, 31, 61
1, 1061658, Control_c, 0, 64, 70
1, 1061673, Control_c, 0, 64, 0
1, 1061811, Note_on_c, 0, 32, 96
1, 1061811, Note_on_c, 0, 92, 108
1, 1061811, Note_on_c, 0, 37, 100
1, 1061811, Note_on_c, 0, 41, 98
1, 1061811, Note_on_c, 0, 80, 103
1, 1061813, Note_on_c, 0, 85, 97
1, 1061815, Note_on_c, 0, 89, 98
1, 1061835, Control_c, 0, 64, 58
1, 1061847, Note_off_c, 0, 41, 67
1, 1061850, Control_c, 0, 64, 100
1, 1061853, Note_off_c, 0, 37, 68
1, 1061856, Note_off_c, 0, 32, 65
1, 1061865, Note_off_c, 0, 92, 70
1, 1061865, Control_c, 0, 64, 127
1, 1061871, Note_off_c, 0, 85, 65
1, 1061881, Note_off_c, 0, 80, 59
1, 1061883, Note_off_c, 0, 89, 63
1, 1062055, Note_on_c, 0, 65, 90
1, 1062058, Note_on_c, 0, 92, 102
1, 1062059, Note_on_c, 0, 80, 106
1, 1062063, Note_on_c, 0, 61, 81
1, 1062063, Note_on_c, 0, 85, 99
1, 1062065, Note_on_c, 0, 89, 81
1, 1062087, Note_off_c, 0, 89, 70
1, 1062092, Note_off_c, 0, 92, 72
1, 1062096, Note_off_c, 0, 80, 65
1, 1062098, Note_off_c, 0, 65, 68
1, 1062099, Note_off_c, 0, 85, 67
1, 1062109, Note_off_c, 0, 61, 65
1, 1062148, Poly_aftertouch_c, 0, 60, 127
1, 1062185, Poly_aftertouch_c, 0, 60, 0
1, 1062200, Poly_aftertouch_c, 0, 91, 0
1, 1062308, Note_on_c, 0, 79, 103
1, 1062308, Note_on_c, 0, 91, 101
1, 1062314, Note_on_c, 0, 66, 99
1, 1062314, Note_on_c, 0, 86, 96
1, 1062315, Note_on_c, 0, 83, 94
1, 1062315, Note_on_c, 0, 62, 94
1, 1062334, Note_off_c, 0, 86, 65
1, 1062337, Note_off_c, 0, 83, 65
1, 1062341, Note_off_c, 0, 79, 70
1, 1062348, Note_off_c, 0, 62, 68
1, 1062348, Note_off_c, 0, 66, 67
1, 1062363, Note_off_c, 0, 91, 66
1, 1062497, Control_c, 0, 64, 96
1, 1062512, Control_c, 0, 64, 67
1, 1062526, Control_c, 0, 64, 0
1, 1062559, Note_on_c, 0, 92, 107
1, 1062561, Note_on_c, 0, 80, 118
1, 1062562, Note_on_c, 0, 85, 101
1, 1062566, Note_on_c, 0, 89, 98
1, 1062570, Note_on_c, 0, 65, 106
1, 1062572, Note_on_c, 0, 61, 101
1, 1062598, Note_off_c, 0, 80, 69
1, 1062598, Note_off_c, 0, 65, 68
1, 1062600, Control_c, 0, 64, 59
1, 1062607, Note_off_c, 0, 89, 67
1, 1062607, Note_off_c, 0, 92, 70
1, 1062609, Note_off_c, 0, 61, 69
1, 1062609, Note_off_c, 0, 85, 68
1, 1062615, Control_c, 0, 64, 90
1, 1062630, Control_c, 0, 64, 127
1, 1062661, Poly_aftertouch_c, 0, 60, 127
1, 1062686, Poly_aftertouch_c, 0, 60, 0
1, 1062811, Note_on_c, 0, 41, 99
1, 1062816, Note_on_c, 0, 37, 84
1, 1062824, Note_on_c, 0, 31, 83
1, 1062826, Note_on_c, 0, 36, 88
1, 1062829, Note_on_c, 0, 34, 73
1, 1062831, Note_on_c, 0, 32, 62
1, 1062858, Note_off_c, 0, 41, 64
1, 1062860, Note_off_c, 0, 37, 61
1, 1062866, Note_off_c, 0, 36, 64
1, 1062866, Note_off_c, 0, 34, 63
1, 1062870, Note_off_c, 0, 31, 63
1, 1062878, Note_off_c, 0, 32, 46
1, 1063013, Poly_aftertouch_c, 0, 34, 127
1, 1063045, Poly_aftertouch_c, 0, 34, 0
1, 1063054, Note_on_c, 0, 56, 104
1, 1063059, Poly_aftertouch_c, 0, 30, 0
1, 1063059, Note_on_c, 0, 31, 98
1, 1063059, Note_on_c, 0, 40, 99
1, 1063062, Note_on_c, 0, 35, 92
1, 1063072, Note_on_c, 0, 33, 73
1, 1063086, Note_off_c, 0, 56, 69
1, 1063092, Note_off_c, 0, 40, 66
1, 1063098, Note_off_c, 0, 33, 37
1, 1063098, Note_off_c, 0, 35, 64
1, 1063100, Note_off_c, 0, 31, 63
1, 1063186, Control_c, 0, 64, 89
1, 1063200, Control_c, 0, 64, 61
1, 1063215, Control_c, 0, 64, 0
1, 1063310, Note_on_c, 0, 85, 102
1, 1063310, Note_on_c, 0, 89, 86
1, 1063312, Note_on_c, 0, 32, 95
1, 1063314, Note_on_c, 0, 37, 103
1, 1063314, Note_on_c, 0, 41, 100
1, 1063318, Note_on_c, 0, 92, 94
1, 1063347, Note_off_c, 0, 41, 66
1, 1063348, Control_c, 0, 64, 52
1, 1063352, Note_off_c, 0, 89, 66
1, 1063355, Note_off_c, 0, 37, 67
1, 1063356, Note_off_c, 0, 85, 66
1, 1063357, Note_off_c, 0, 32, 65
1, 1063363, Control_c, 0, 64, 127
1, 1063394, Note_on_c, 0, 94, 97
1, 1063401, Note_off_c, 0, 92, 65
1, 1063430, Poly_aftertouch_c, 0, 35, 0
1, 1063446, Note_off_c, 0, 94, 68
1, 1063460, Note_on_c, 0, 92, 95
1, 1063531, Note_on_c, 0, 94, 98
1, 1063531, Note_off_c, 0, 92, 63
1, 1063547, Note_on_c, 0, 65, 97
1, 1063552, Note_on_c, 0, 61, 96
1, 1063579, Note_off_c, 0, 65, 66
1, 1063580, Note_off_c, 0, 61, 63
1, 1063591, Note_off_c, 0, 94, 67
1, 1063609, Note_on_c, 0, 92, 88
1, 1063648, Note_on_c, 0, 94, 91
1, 1063657, Note_off_c, 0, 92, 67
1, 1063697, Note_off_c, 0, 94, 69
1, 1063716, Note_on_c, 0, 91, 87
1, 1063717, Note_on_c, 0, 90, 65
1, 1063737, Note_off_c, 0, 91, 65
1, 1063757, Note_on_c, 0, 93, 2
1, 1063757, Note_off_c, 0, 93, 127
1, 1063757, Note_off_c, 0, 90, 61
1, 1063789, Note_on_c, 0, 91, 105
1, 1063796, Note_on_c, 0, 66, 106
1, 1063797, Note_on_c, 0, 83, 99
1, 1063798, Note_on_c, 0, 62, 100
1, 1063825, Note_off_c, 0, 83, 68
1, 1063827, Note_off_c, 0, 91, 70
1, 1063827, Note_off_c, 0, 66, 69
1, 1063830, Note_off_c, 0, 62, 70
1, 1063934, Control_c, 0, 64, 107
1, 1063949, Control_c, 0, 64, 73
1, 1063963, Control_c, 0, 64, 40
1, 1063978, Control_c, 0, 64, 0
1, 1064039, Note_on_c, 0, 92, 107
1, 1064041, Note_on_c, 0, 80, 106
1, 1064044, Note_on_c, 0, 85, 101
1, 1064049, Note_on_c, 0, 61, 100
1, 1064050, Note_on_c, 0, 65, 111
1, 1064051, Note_on_c, 0, 89, 94
1, 1064077, Note_off_c, 0, 65, 71
1, 1064077, Note_off_c, 0, 80, 70
1, 1064081, Note_off_c, 0, 92, 71
1, 1064082, Note_off_c, 0, 85, 69
1, 1064082, Control_c, 0, 64, 50
1, 1064086, Note_off_c, 0, 89, 68
1, 1064089, Note_off_c, 0, 61, 69
1, 1064096, Control_c, 0, 64, 104
1, 1064111, Control_c, 0, 64, 127
1, 1064298, Note_on_c, 0, 37, 98
1, 1064298, Note_on_c, 0, 41, 98
1, 1064301, Note_on_c, 0, 32, 92
1, 1064335, Note_off_c, 0, 41, 64
1, 1064340, Note_off_c, 0, 37, 66
1, 1064353, Note_off_c, 0, 32, 64
1, 1064459, Control_c, 0, 64, 90
1, 1064474, Control_c, 0, 64, 68
1, 1064489, Control_c, 0, 64, 46
1, 1064503, Control_c, 0, 64, 0
1, 1064548, Control_c, 0, 64, 31
1, 1064555, Note_on_c, 0, 56, 101
1, 1064557, Note_on_c, 0, 40, 101
1, 1064557, Note_on_c, 0, 35, 101
1, 1064559, Note_on_c, 0, 31, 97
1, 1064563, Control_c, 0, 64, 66
1, 1064579, Control_c, 0, 64, 127
1, 1064584, Note_off_c, 0, 56, 69
1, 1064591, Note_off_c, 0, 40, 66
1, 1064599, Note_off_c, 0, 31, 62
1, 1064601, Note_off_c, 0, 35, 65
1, 1064639, Control_c, 0, 64, 81
1, 1064653, Control_c, 0, 64, 0
1, 1064808, Note_on_c, 0, 32, 85
1, 1064813, Note_on_c, 0, 37, 101
1, 1064814, Note_on_c, 0, 41, 100
1, 1064846, Control_c, 0, 64, 74
1, 1064850, Note_off_c, 0, 41, 66
1, 1064859, Note_off_c, 0, 37, 67
1, 1064860, Note_off_c, 0, 32, 64
1, 1064861, Control_c, 0, 64, 127
1, 1064873, Note_on_c, 0, 80, 40
1, 1064907, Note_off_c, 0, 80, 54
1, 1064929, Poly_aftertouch_c, 0, 36, 0
1, 1065053, Note_on_c, 0, 56, 94
1, 1065053, Note_on_c, 0, 65, 102
1, 1065060, Note_on_c, 0, 92, 112
1, 1065061, Note_on_c, 0, 80, 99
1, 1065067, Note_on_c, 0, 62, 84
1, 1065075, Note_off_c, 0, 56, 67
1, 1065081, Note_on_c, 0, 57, 69
1, 1065081, Note_off_c, 0, 65, 68
1, 1065087, Note_off_c, 0, 62, 70
1, 1065094, Note_off_c, 0, 80, 69
1, 1065105, Note_off_c, 0, 92, 68
1, 1065108, Note_off_c, 0, 57, 63
1, 1065123, Note_on_c, 0, 82, 12
1, 1065123, Note_off_c, 0, 82, 127
1, 1065177, Poly_aftertouch_c, 0, 82, 0
1, 1065306, Note_on_c, 0, 92, 104
1, 1065307, Note_on_c, 0, 79, 101
1, 1065314, Note_on_c, 0, 60, 101
1, 1065314, Note_on_c, 0, 64, 88
1, 1065339, Note_off_c, 0, 60, 70
1, 1065341, Note_off_c, 0, 64, 66
1, 1065341, Note_off_c, 0, 79, 70
1, 1065345, Note_off_c, 0, 92, 70
1, 1065356, Note_on_c, 0, 88, 22
1, 1065395, Note_off_c, 0, 88, 55
1, 1065550, Control_c, 0, 64, 72
1, 1065564, Note_on_c, 0, 92, 114
1, 1065565, Control_c, 0, 64, 0
1, 1065567, Note_on_c, 0, 79, 103
1, 1065570, Note_on_c, 0, 60, 92
1, 1065570, Note_on_c, 0, 64, 92
1, 1065654, Control_c, 0, 64, 52
1, 1065669, Control_c, 0, 64, 61
1, 1065684, Control_c, 0, 64, 63
1, 1065699, Control_c, 0, 64, 67
1, 1065713, Control_c, 0, 64, 73
1, 1065725, Note_off_c, 0, 79, 61
1, 1065728, Control_c, 0, 64, 82
1, 1065743, Control_c, 0, 64, 89
1, 1065773, Control_c, 0, 64, 88
1, 1065788, Control_c, 0, 64, 87
1, 1065817, Control_c, 0, 64, 88
1, 1065824, Note_on_c, 0, 80, 94
1, 1065830, Note_on_c, 0, 56, 78
1, 1065832, Control_c, 0, 64, 92
1, 1065837, Note_off_c, 0, 92, 63
1, 1065854, Control_c, 0, 64, 103
1, 1065869, Control_c, 0, 64, 127
1, 1065872, Note_off_c, 0, 80, 66
1, 1065925, Note_off_c, 0, 60, 49
1, 1065929, Note_off_c, 0, 64, 58
1, 1066068, Note_on_c, 0, 61, 83
1, 1066070, Note_on_c, 0, 65, 89
1, 1066070, Note_on_c, 0, 92, 115
1, 1066075, Note_on_c, 0, 79, 104
1, 1066097, Note_off_c, 0, 65, 65
1, 1066098, Note_off_c, 0, 79, 68
1, 1066098, Note_off_c, 0, 92, 75
1, 1066109, Note_off_c, 0, 61, 61
1, 1066285, Control_c, 0, 64, 100
1, 1066299, Control_c, 0, 64, 69
1, 1066314, Note_off_c, 0, 56, 60
1, 1066314, Control_c, 0, 64, 48
1, 1066316, Note_on_c, 0, 93, 104
1, 1066319, Note_on_c, 0, 66, 106
1, 1066321, Note_on_c, 0, 62, 94
1, 1066324, Note_on_c, 0, 79, 113
1, 1066324, Note_on_c, 0, 92, 109
1, 1066329, Control_c, 0, 64, 39
1, 1066344, Control_c, 0, 64, 56
1, 1066358, Control_c, 0, 64, 69
1, 1066361, Note_off_c, 0, 93, 68
1, 1066373, Control_c, 0, 64, 91
1, 1066385, Note_off_c, 0, 79, 59
1, 1066388, Control_c, 0, 64, 127
1, 1066391, Note_off_c, 0, 62, 0
1, 1066428, Poly_aftertouch_c, 0, 62, 127
1, 1066441, Note_off_c, 0, 92, 61
1, 1066455, Poly_aftertouch_c, 0, 88, 127
1, 1066566, Note_off_c, 0, 66, 60
1, 1066568, Poly_aftertouch_c, 0, 62, 0
1, 1066569, Note_on_c, 0, 56, 92
1, 1066570, Note_on_c, 0, 80, 98
1, 1066605, Poly_aftertouch_c, 0, 88, 0
1, 1066617, Note_off_c, 0, 80, 67
1, 1066766, Control_c, 0, 64, 113
1, 1066781, Control_c, 0, 64, 81
1, 1066796, Control_c, 0, 64, 70
1, 1066810, Note_on_c, 0, 92, 115
1, 1066810, Control_c, 0, 64, 71
1, 1066815, Note_on_c, 0, 61, 82
1, 1066815, Note_on_c, 0, 79, 97
1, 1066817, Note_on_c, 0, 65, 94
1, 1066825, Control_c, 0, 64, 80
1, 1066840, Control_c, 0, 64, 101
1, 1066840, Note_off_c, 0, 92, 74
1, 1066841, Note_off_c, 0, 79, 68
1, 1066844, Note_off_c, 0, 61, 64
1, 1066855, Control_c, 0, 64, 127
1, 1066864, Note_off_c, 0, 65, 63
1, 1067019, Control_c, 0, 64, 82
1, 1067034, Control_c, 0, 64, 62
1, 1067039, Note_off_c, 0, 56, 59
1, 1067048, Control_c, 0, 64, 0
1, 1067051, Note_on_c, 0, 93, 101
1, 1067056, Note_on_c, 0, 79, 109
1, 1067057, Note_on_c, 0, 64, 105
1, 1067057, Note_on_c, 0, 92, 116
1, 1067060, Note_on_c, 0, 60, 101
1, 1067078, Control_c, 0, 64, 33
1, 1067088, Note_off_c, 0, 60, 72
1, 1067090, Note_off_c, 0, 93, 69
1, 1067091, Note_off_c, 0, 64, 71
1, 1067092, Control_c, 0, 64, 57
1, 1067100, Note_off_c, 0, 79, 68
1, 1067107, Control_c, 0, 64, 75
1, 1067122, Control_c, 0, 64, 127
1, 1067148, Note_off_c, 0, 92, 66
1, 1067236, Poly_aftertouch_c, 0, 88, 127
1, 1067270, Control_c, 0, 64, 99
1, 1067285, Control_c, 0, 64, 64
1, 1067296, Poly_aftertouch_c, 0, 88, 0
1, 1067299, Control_c, 0, 64, 0
1, 1067302, Note_on_c, 0, 78, 102
1, 1067302, Note_on_c, 0, 93, 100
1, 1067305, Note_on_c, 0, 56, 102
1, 1067317, Note_on_c, 0, 55, 87
1, 1067329, Control_c, 0, 64, 44
1, 1067332, Note_off_c, 0, 55, 71
1, 1067347, Note_off_c, 0, 56, 62
1, 1067347, Note_off_c, 0, 78, 68
1, 1067350, Note_off_c, 0, 93, 70
1, 1067352, Control_c, 0, 64, 68
1, 1067367, Control_c, 0, 64, 94
1, 1067381, Control_c, 0, 64, 127
1, 1067514, Control_c, 0, 64, 75
1, 1067529, Control_c, 0, 64, 53
1, 1067544, Control_c, 0, 64, 0
1, 1067560, Note_on_c, 0, 77, 89
1, 1067560, Note_on_c, 0, 92, 112
1, 1067560, Control_c, 0, 64, 42
1, 1067562, Note_on_c, 0, 68, 114
1, 1067574, Control_c, 0, 64, 62
1, 1067589, Note_off_c, 0, 77, 68
1, 1067589, Control_c, 0, 64, 82
1, 1067596, Note_off_c, 0, 68, 69
1, 1067597, Note_off_c, 0, 92, 72
1, 1067604, Control_c, 0, 64, 127
1, 1067752, Control_c, 0, 64, 116
1, 1067768, Control_c, 0, 64, 69
1, 1067783, Control_c, 0, 64, 0
1, 1067803, Note_on_c, 0, 94, 108
1, 1067809, Note_on_c, 0, 76, 110
1, 1067813, Note_on_c, 0, 72, 92
1, 1067850, Note_on_c, 0, 73, 29
1, 1067850, Note_off_c, 0, 73, 127
1, 1067857, Control_c, 0, 64, 60
1, 1067864, Note_on_c, 0, 92, 87
1, 1067872, Control_c, 0, 64, 82
1, 1067887, Control_c, 0, 64, 127
1, 1067901, Note_off_c, 0, 94, 65
1, 1067910, Note_on_c, 0, 90, 88
1, 1067920, Poly_aftertouch_c, 0, 70, 127
1, 1067935, Note_off_c, 0, 76, 60
1, 1067940, Note_off_c, 0, 92, 66
1, 1067960, Note_off_c, 0, 90, 66
1, 1067961, Poly_aftertouch_c, 0, 70, 0
1, 1067982, Note_on_c, 0, 89, 87
1, 1067986, Note_off_c, 0, 72, 60
1, 1067990, Control_c, 0, 64, 81
1, 1068005, Control_c, 0, 64, 53
1, 1068014, Note_on_c, 0, 88, 47
1, 1068020, Control_c, 0, 64, 0
1, 1068022, Note_off_c, 0, 89, 66
1, 1068033, Note_on_c, 0, 71, 96
1, 1068035, Control_c, 0, 64, 38
1, 1068039, Note_on_c, 0, 65, 92
1, 1068041, Note_off_c, 0, 88, 61
1, 1068042, Note_on_c, 0, 87, 95
1, 1068050, Control_c, 0, 64, 60
1, 1068064, Control_c, 0, 64, 76
1, 1068079, Control_c, 0, 64, 104
1, 1068080, Note_off_c, 0, 71, 64
1, 1068101, Control_c, 0, 64, 127
1, 1068117, Note_on_c, 0, 85, 87
1, 1068125, Note_off_c, 0, 87, 65
1, 1068131, Note_on_c, 0, 84, 88
1, 1068133, Note_off_c, 0, 85, 74
1, 1068199, Note_on_c, 0, 82, 95
1, 1068209, Note_off_c, 0, 84, 66
1, 1068220, Control_c, 0, 64, 82
1, 1068235, Control_c, 0, 64, 55
1, 1068250, Control_c, 0, 64, 0
1, 1068256, Note_on_c, 0, 80, 105
1, 1068259, Note_off_c, 0, 65, 59
1, 1068262, Note_on_c, 0, 70, 93
1, 1068263, Note_on_c, 0, 66, 87
1, 1068274, Note_off_c, 0, 82, 68
1, 1068285, Note_off_c, 0, 70, 70
1, 1068287, Note_off_c, 0, 80, 72
1, 1068291, Note_off_c, 0, 66, 68
1, 1068294, Control_c, 0, 64, 63
1, 1068308, Control_c, 0, 64, 95
1, 1068322, Control_c, 0, 64, 127
1, 1068396, Control_c, 0, 64, 77
1, 1068411, Control_c, 0, 64, 44
1, 1068426, Control_c, 0, 64, 0
1, 1068514, Note_on_c, 0, 68, 116
1, 1068521, Note_on_c, 0, 63, 98
1, 1068521, Note_on_c, 0, 60, 96
1, 1068539, Note_off_c, 0, 63, 70
1, 1068544, Note_off_c, 0, 68, 74
1, 1068545, Control_c, 0, 64, 67
1, 1068546, Note_off_c, 0, 60, 70
1, 1068560, Control_c, 0, 64, 127
1, 1068724, Control_c, 0, 64, 81
1, 1068738, Control_c, 0, 64, 37
1, 1068753, Control_c, 0, 64, 0
1, 1068775, Note_on_c, 0, 56, 94
1, 1068779, Note_on_c, 0, 32, 100
1, 1068779, Note_on_c, 0, 51, 85
1, 1068781, Note_on_c, 0, 48, 81
1, 1068812, Control_c, 0, 64, 60
1, 1068816, Note_off_c, 0, 32, 65
1, 1068817, Note_off_c, 0, 48, 63
1, 1068825, Note_off_c, 0, 56, 64
1, 1068827, Note_off_c, 0, 51, 61
1, 1068827, Control_c, 0, 64, 87
1, 1068849, Control_c, 0, 64, 105
1, 1068864, Control_c, 0, 64, 91
1, 1068879, Control_c, 0, 64, 66
1, 1068894, Control_c, 0, 64, 45
1, 1068909, Control_c, 0, 64, 0
1, 1069028, Note_on_c, 0, 31, 99
1, 1069028, Note_on_c, 0, 47, 80
1, 1069028, Note_on_c, 0, 56, 86
1, 1069031, Note_on_c, 0, 51, 83
1, 1069042, Control_c, 0, 64, 61
1, 1069057, Control_c, 0, 64, 82
1, 1069061, Note_off_c, 0, 47, 65
1, 1069064, Note_off_c, 0, 31, 66
1, 1069071, Note_off_c, 0, 56, 64
1, 1069071, Control_c, 0, 64, 83
1, 1069076, Note_off_c, 0, 51, 62
1, 1069086, Control_c, 0, 64, 81
1, 1069101, Control_c, 0, 64, 77
1, 1069116, Control_c, 0, 64, 78
1, 1069131, Control_c, 0, 64, 79
1, 1069145, Control_c, 0, 64, 78
1, 1069160, Control_c, 0, 64, 71
1, 1069175, Control_c, 0, 64, 62
1, 1069190, Control_c, 0, 64, 42
1, 1069205, Control_c, 0, 64, 0
1, 1069271, Note_on_c, 0, 44, 112
1, 1069279, Note_on_c, 0, 56, 87
1, 1069282, Note_on_c, 0, 48, 80
1, 1069284, Note_on_c, 0, 51, 81
1, 1069308, Control_c, 0, 64, 41
1, 1069323, Control_c, 0, 64, 67
1, 1069338, Control_c, 0, 64, 63
1, 1069353, Control_c, 0, 64, 32
1, 1069368, Control_c, 0, 64, 0
1, 1069447, Note_off_c, 0, 48, 40
1, 1069466, Note_off_c, 0, 51, 55
1, 1069469, Note_off_c, 0, 56, 53
1, 1069532, Control_c, 0, 64, 40
1, 1069541, Note_on_c, 0, 56, 77
1, 1069544, Note_on_c, 0, 51, 68
1, 1069547, Note_on_c, 0, 48, 77
1, 1069547, Control_c, 0, 64, 63
1, 1069562, Control_c, 0, 64, 71
1, 1069576, Control_c, 0, 64, 82
1, 1069598, Control_c, 0, 64, 95
1, 1069609, Note_off_c, 0, 48, 61
1, 1069610, Note_off_c, 0, 56, 62
1, 1069612, Note_off_c, 0, 51, 61
1, 1069613, Control_c, 0, 64, 110
1, 1069628, Control_c, 0, 64, 127
1, 1069747, Control_c, 0, 64, 91
1, 1069762, Control_c, 0, 64, 63
1, 1069771, Note_off_c, 0, 44, 63
1, 1069776, Control_c, 0, 64, 0
1, 1069779, Note_on_c, 0, 32, 95
1, 1069789, Note_on_c, 0, 56, 81
1, 1069791, Note_on_c, 0, 48, 76
1, 1069793, Note_on_c, 0, 51, 77
1, 1069821, Control_c, 0, 64, 42
1, 1069832, Note_off_c, 0, 48, 63
1, 1069836, Control_c, 0, 64, 70
1, 1069838, Note_off_c, 0, 56, 63
1, 1069848, Note_off_c, 0, 51, 61
1, 1069851, Control_c, 0, 64, 91
1, 1069866, Control_c, 0, 64, 119
1, 1069881, Control_c, 0, 64, 90
1, 1069895, Control_c, 0, 64, 64
1, 1069910, Control_c, 0, 64, 0
1, 1070043, Control_c, 0, 64, 39
1, 1070045, Note_on_c, 0, 44, 113
1, 1070058, Control_c, 0, 64, 66
1, 1070073, Control_c, 0, 64, 76
1, 1070077, Note_off_c, 0, 44, 67
1, 1070087, Control_c, 0, 64, 89
1, 1070102, Control_c, 0, 64, 104
1, 1070110, Note_off_c, 0, 32, 62
1, 1070117, Control_c, 0, 64, 127
1, 1070222, Control_c, 0, 64, 97
1, 1070237, Control_c, 0, 64, 72
1, 1070252, Control_c, 0, 64, 55
1, 1070266, Control_c, 0, 64, 0
1, 1070313, Note_on_c, 0, 56, 84
1, 1070315, Note_on_c, 0, 32, 83
1, 1070325, Control_c, 0, 64, 33
1, 1070348, Control_c, 0, 64, 57
1, 1070358, Note_off_c, 0, 32, 64
1, 1070363, Control_c, 0, 64, 68
1, 1070367, Note_off_c, 0, 56, 62
1, 1070378, Control_c, 0, 64, 77
1, 1070393, Control_c, 0, 64, 87
1, 1070407, Control_c, 0, 64, 95
1, 1070422, Control_c, 0, 64, 97
1, 1070466, Control_c, 0, 64, 92
1, 1070481, Control_c, 0, 64, 79
1, 1070496, Control_c, 0, 64, 64
1, 1070511, Control_c, 0, 64, 36
1, 1070525, Control_c, 0, 64, 0
1, 1070566, Note_on_c, 0, 55, 79
1, 1070567, Note_on_c, 0, 31, 82
1, 1070585, Control_c, 0, 64, 44
1, 1070597, Note_off_c, 0, 31, 67
1, 1070599, Control_c, 0, 64, 62
1, 1070605, Note_off_c, 0, 55, 62
1, 1070614, Control_c, 0, 64, 74
1, 1070629, Control_c, 0, 64, 97
1, 1070644, Control_c, 0, 64, 127
1, 1070763, Control_c, 0, 64, 95
1, 1070778, Control_c, 0, 64, 76
1, 1070792, Control_c, 0, 64, 67
1, 1070807, Control_c, 0, 64, 65
1, 1070811, Note_on_c, 0, 68, 93
1, 1070814, Note_on_c, 0, 44, 88
1, 1070822, Control_c, 0, 64, 67
1, 1070836, Control_c, 0, 64, 74
1, 1070851, Control_c, 0, 64, 82
1, 1070853, Note_off_c, 0, 44, 63
1, 1070856, Note_off_c, 0, 68, 66
1, 1070866, Control_c, 0, 64, 93
1, 1070881, Control_c, 0, 64, 107
1, 1070896, Control_c, 0, 64, 127
1, 1071030, Control_c, 0, 64, 89
1, 1071045, Control_c, 0, 64, 79
1, 1071061, Note_on_c, 0, 56, 90
1, 1071063, Note_on_c, 0, 32, 98
1, 1071074, Control_c, 0, 64, 83
1, 1071097, Control_c, 0, 64, 91
1, 1071112, Control_c, 0, 64, 105
1, 1071114, Note_off_c, 0, 32, 63
1, 1071121, Note_off_c, 0, 56, 62
1, 1071127, Control_c, 0, 64, 127
1, 1071311, Note_on_c, 0, 55, 77
1, 1071312, Note_on_c, 0, 31, 100
1, 1071338, Note_off_c, 0, 55, 66
1, 1071348, Note_off_c, 0, 31, 65
1, 1071556, Note_on_c, 0, 79, 102
1, 1071556, Note_on_c, 0, 80, 100
1, 1071558, Note_on_c, 0, 54, 108
1, 1071565, Note_on_c, 0, 55, 93
1, 1071585, Note_off_c, 0, 55, 72
1, 1071593, Note_off_c, 0, 54, 66
1, 1071601, Note_off_c, 0, 79, 72
1, 1071611, Note_off_c, 0, 80, 69
1, 1071800, Note_on_c, 0, 32, 100
1, 1071803, Note_on_c, 0, 68, 121
1, 1071843, Note_off_c, 0, 68, 70
1, 1071854, Note_off_c, 0, 32, 64
1, 1072035, Note_on_c, 0, 31, 99
1, 1072039, Note_on_c, 0, 67, 97
1, 1072068, Note_off_c, 0, 31, 63
1, 1072078, Note_off_c, 0, 67, 63
1, 1072260, Control_c, 0, 64, 94
1, 1072274, Control_c, 0, 64, 62
1, 1072289, Control_c, 0, 64, 0
1, 1072303, Note_on_c, 0, 90, 101
1, 1072303, Note_on_c, 0, 92, 109
1, 1072313, Note_on_c, 0, 56, 118
1, 1072419, Note_off_c, 0, 92, 68
1, 1072426, Note_off_c, 0, 90, 67
1, 1072467, Control_c, 0, 64, 35
1, 1072482, Control_c, 0, 64, 60
1, 1072496, Control_c, 0, 64, 62
1, 1072511, Control_c, 0, 64, 64
1, 1072526, Control_c, 0, 64, 67
1, 1072541, Control_c, 0, 64, 69
1, 1072557, Control_c, 0, 64, 69
1, 1072617, Note_on_c, 0, 80, 108
1, 1072630, Note_on_c, 0, 75, 79
1, 1072631, Note_on_c, 0, 72, 87
1, 1072653, Control_c, 0, 64, 70
1, 1072668, Control_c, 0, 64, 72
1, 1072683, Control_c, 0, 64, 76
1, 1072696, Note_off_c, 0, 56, 63
1, 1072698, Control_c, 0, 64, 84
1, 1072712, Control_c, 0, 64, 101
1, 1072727, Control_c, 0, 64, 127
1, 1072739, Note_off_c, 0, 72, 52
1, 1072773, Note_off_c, 0, 75, 55
1, 1072790, Note_off_c, 0, 80, 70
1, 1072921, Note_on_c, 0, 79, 111
1, 1072939, Note_on_c, 0, 71, 89
1, 1073011, Note_off_c, 0, 71, 59
1, 1073058, Note_off_c, 0, 79, 64
1, 1073072, Note_on_c, 0, 51, 102
1, 1073088, Note_on_c, 0, 52, 86
1, 1073105, Note_off_c, 0, 52, 69
1, 1073109, Note_off_c, 0, 51, 67
1, 1073203, Note_on_c, 0, 79, 105
1, 1073216, Note_on_c, 0, 52, 100
1, 1073216, Note_on_c, 0, 68, 100
1, 1073219, Note_on_c, 0, 71, 73
1, 1073219, Note_on_c, 0, 74, 79
1, 1073261, Control_c, 0, 64, 68
1, 1073276, Control_c, 0, 64, 0
1, 1073359, Note_off_c, 0, 68, 52
1, 1073384, Note_off_c, 0, 74, 53
1, 1073433, Note_off_c, 0, 71, 58
1, 1073500, Note_on_c, 0, 71, 51
1, 1073504, Note_on_c, 0, 68, 74
1, 1073504, Note_on_c, 0, 74, 71
1, 1073535, Control_c, 0, 64, 47
1, 1073550, Control_c, 0, 64, 64
1, 1073565, Control_c, 0, 64, 70
1, 1073580, Control_c, 0, 64, 80
1, 1073595, Control_c, 0, 64, 101
1, 1073606, Note_off_c, 0, 79, 63
1, 1073610, Control_c, 0, 64, 127
1, 1073667, Note_off_c, 0, 68, 62
1, 1073684, Note_off_c, 0, 74, 62
1, 1073692, Note_off_c, 0, 71, 62
1, 1073737, Note_on_c, 0, 80, 99
1, 1073749, Note_on_c, 0, 74, 69
1, 1073750, Note_on_c, 0, 71, 68
1, 1073755, Note_on_c, 0, 68, 90
1, 1073773, Control_c, 0, 64, 94
1, 1073787, Control_c, 0, 64, 82
1, 1073817, Control_c, 0, 64, 88
1, 1073832, Control_c, 0, 64, 103
1, 1073847, Control_c, 0, 64, 127
1, 1073893, Note_off_c, 0, 68, 61
1, 1073902, Note_off_c, 0, 74, 57
1, 1073914, Note_off_c, 0, 71, 62
1, 1073983, Note_on_c, 0, 74, 75
1, 1073989, Note_on_c, 0, 71, 65
1, 1073993, Note_on_c, 0, 68, 76
1, 1074071, Note_off_c, 0, 68, 62
1, 1074073, Note_off_c, 0, 74, 60
1, 1074118, Note_off_c, 0, 71, 52
1, 1074225, Control_c, 0, 64, 85
1, 1074240, Control_c, 0, 64, 69
1, 1074251, Note_on_c, 0, 71, 93
1, 1074251, Note_on_c, 0, 59, 88
1, 1074255, Control_c, 0, 64, 63
1, 1074257, Note_on_c, 0, 74, 80
1, 1074267, Note_on_c, 0, 56, 75
1, 1074270, Control_c, 0, 64, 65
1, 1074285, Control_c, 0, 64, 72
1, 1074290, Note_off_c, 0, 59, 65
1, 1074292, Note_off_c, 0, 56, 65
1, 1074299, Control_c, 0, 64, 85
1, 1074301, Note_off_c, 0, 71, 65
1, 1074312, Note_off_c, 0, 74, 63
1, 1074314, Control_c, 0, 64, 110
1, 1074329, Control_c, 0, 64, 127
1, 1074447, Control_c, 0, 64, 91
1, 1074462, Control_c, 0, 64, 70
1, 1074477, Control_c, 0, 64, 55
1, 1074492, Control_c, 0, 64, 38
1, 1074504, Note_on_c, 0, 70, 93
1, 1074507, Control_c, 0, 64, 39
1, 1074513, Note_on_c, 0, 56, 93
1, 1074513, Note_on_c, 0, 58, 89
1, 1074515, Note_on_c, 0, 74, 73
1, 1074522, Control_c, 0, 64, 52
1, 1074537, Control_c, 0, 64, 64
1, 1074549, Note_off_c, 0, 58, 67
1, 1074550, Note_off_c, 0, 56, 64
1, 1074552, Control_c, 0, 64, 74
1, 1074558, Note_off_c, 0, 70, 67
1, 1074566, Control_c, 0, 64, 88
1, 1074573, Note_off_c, 0, 74, 60
1, 1074581, Control_c, 0, 64, 107
1, 1074596, Control_c, 0, 64, 127
1, 1074758, Control_c, 0, 64, 84
1, 1074769, Note_on_c, 0, 70, 100
1, 1074773, Note_on_c, 0, 56, 95
1, 1074773, Note_on_c, 0, 58, 95
1, 1074773, Control_c, 0, 64, 58
1, 1074777, Note_on_c, 0, 74, 82
1, 1074788, Control_c, 0, 64, 0
1, 1074855, Control_c, 0, 64, 49
1, 1074870, Control_c, 0, 64, 64
1, 1074885, Control_c, 0, 64, 71
1, 1074899, Control_c, 0, 64, 81
1, 1074914, Control_c, 0, 64, 97
1, 1074929, Control_c, 0, 64, 127
1, 1074933, Note_off_c, 0, 70, 56
1, 1074936, Note_off_c, 0, 74, 57
1, 1075004, Note_off_c, 0, 56, 58
1, 1075034, Note_on_c, 0, 70, 81
1, 1075051, Note_on_c, 0, 74, 67
1, 1075124, Note_off_c, 0, 74, 52
1, 1075131, Note_off_c, 0, 58, 53
1, 1075148, Note_off_c, 0, 70, 62
1, 1075196, Note_off_c, 0, 80, 61
1, 1075270, Note_on_c, 0, 59, 70
1, 1075272, Note_on_c, 0, 71, 92
1, 1075273, Note_on_c, 0, 56, 85
1, 1075279, Note_on_c, 0, 74, 86
1, 1075281, Note_off_c, 0, 52, 57
1, 1075294, Note_off_c, 0, 59, 69
1, 1075295, Note_off_c, 0, 71, 67
1, 1075298, Note_off_c, 0, 56, 68
1, 1075306, Note_off_c, 0, 74, 65
1, 1075434, Control_c, 0, 64, 92
1, 1075449, Control_c, 0, 64, 66
1, 1075464, Control_c, 0, 64, 0
1, 1075550, Note_on_c, 0, 58, 99
1, 1075555, Note_on_c, 0, 34, 102
1, 1075555, Note_on_c, 0, 46, 107
1, 1075604, Control_c, 0, 64, 61
1, 1075608, Note_off_c, 0, 46, 68
1, 1075615, Note_off_c, 0, 34, 66
1, 1075619, Control_c, 0, 64, 104
1, 1075634, Control_c, 0, 64, 127
1, 1075694, Note_off_c, 0, 58, 64
1, 1075838, Note_on_c, 0, 68, 92
1, 1075841, Note_on_c, 0, 56, 92
1, 1075842, Note_on_c, 0, 64, 81
1, 1075957, Note_off_c, 0, 56, 59
1, 1075979, Note_off_c, 0, 68, 59
1, 1076013, Note_off_c, 0, 64, 58
1, 1076061, Note_on_c, 0, 67, 102
1, 1076063, Note_on_c, 0, 57, 97
1, 1076100, Note_off_c, 0, 67, 68
1, 1076102, Note_off_c, 0, 57, 66
1, 1076212, Control_c, 0, 64, 73
1, 1076227, Control_c, 0, 64, 0
1, 1076287, Note_on_c, 0, 46, 100
1, 1076287, Note_on_c, 0, 58, 110
1, 1076288, Note_on_c, 0, 34, 98
1, 1076317, Control_c, 0, 64, 52
1, 1076320, Note_off_c, 0, 58, 70
1, 1076324, Note_off_c, 0, 46, 67
1, 1076338, Control_c, 0, 64, 74
1, 1076343, Note_off_c, 0, 34, 63
1, 1076353, Control_c, 0, 64, 82
1, 1076368, Control_c, 0, 64, 105
1, 1076382, Control_c, 0, 64, 127
1, 1076401, Note_on_c, 0, 42, 98
1, 1076402, Note_on_c, 0, 30, 114
1, 1076402, Note_on_c, 0, 54, 120
1, 1076429, Note_off_c, 0, 54, 71
1, 1076434, Note_off_c, 0, 42, 68
1, 1076439, Note_off_c, 0, 30, 62
1, 1076678, Note_on_c, 0, 55, 88
1, 1076681, Note_on_c, 0, 67, 86
1, 1076688, Note_on_c, 0, 57, 79
1, 1076702, Note_on_c, 0, 63, 44
1, 1076711, Note_off_c, 0, 57, 69
1, 1076716, Note_off_c, 0, 55, 65
1, 1076717, Note_on_c, 0, 62, 51
1, 1076732, Note_off_c, 0, 63, 55
1, 1076743, Note_off_c, 0, 62, 58
1, 1076748, Note_off_c, 0, 67, 65
1, 1076940, Note_on_c, 0, 67, 81
1, 1076944, Note_on_c, 0, 63, 80
1, 1076946, Note_on_c, 0, 55, 80
1, 1076947, Note_on_c, 0, 57, 79
1, 1076981, Note_off_c, 0, 57, 66
1, 1076986, Note_off_c, 0, 55, 61
1, 1076993, Note_off_c, 0, 63, 64
1, 1077002, Note_off_c, 0, 67, 64
1, 1077199, Note_on_c, 0, 67, 94
1, 1077202, Note_on_c, 0, 63, 89
1, 1077204, Note_on_c, 0, 55, 92
1, 1077205, Note_on_c, 0, 57, 90
1, 1077237, Note_off_c, 0, 55, 64
1, 1077238, Note_off_c, 0, 67, 69
1, 1077239, Note_off_c, 0, 63, 63
1, 1077244, Note_off_c, 0, 57, 63
1, 1077455, Note_on_c, 0, 80, 102
1, 1077465, Note_on_c, 0, 75, 85
1, 1077467, Note_on_c, 0, 72, 87
1, 1077502, Note_off_c, 0, 75, 51
1, 1077506, Note_off_c, 0, 72, 60
1, 1077586, Note_off_c, 0, 80, 65
1, 1077712, Note_on_c, 0, 79, 102
1, 1077721, Note_on_c, 0, 71, 92
1, 1077727, Note_on_c, 0, 74, 79
1, 1077748, Note_off_c, 0, 74, 69
1, 1077762, Note_off_c, 0, 71, 64
1, 1077821, Note_off_c, 0, 79, 68
1, 1077953, Control_c, 0, 64, 89
1, 1077966, Note_on_c, 0, 54, 89
1, 1077966, Note_on_c, 0, 68, 114
1, 1077966, Note_on_c, 0, 79, 109
1, 1077968, Control_c, 0, 64, 70
1, 1077970, Note_on_c, 0, 74, 111
1, 1077971, Note_on_c, 0, 56, 103
1, 1077974, Note_on_c, 0, 71, 100
1, 1077983, Control_c, 0, 64, 67
1, 1077998, Control_c, 0, 64, 77
1, 1078007, Note_off_c, 0, 54, 66
1, 1078010, Note_off_c, 0, 68, 72
1, 1078013, Control_c, 0, 64, 127
1, 1078015, Note_off_c, 0, 56, 66
1, 1078096, Note_off_c, 0, 74, 55
1, 1078115, Note_off_c, 0, 71, 59
1, 1078248, Note_on_c, 0, 71, 84
1, 1078248, Note_on_c, 0, 74, 85
1, 1078302, Note_off_c, 0, 74, 61
1, 1078360, Note_off_c, 0, 71, 61
1, 1078489, Note_on_c, 0, 80, 99
1, 1078495, Note_on_c, 0, 72, 81
1, 1078497, Note_on_c, 0, 75, 76
1, 1078500, Note_off_c, 0, 79, 55
1, 1078513, Note_off_c, 0, 72, 72
1, 1078518, Note_off_c, 0, 75, 70
1, 1078527, Note_off_c, 0, 80, 71
1, 1078732, Control_c, 0, 64, 85
1, 1078747, Control_c, 0, 64, 50
1, 1078756, Note_on_c, 0, 65, 107
1, 1078759, Note_on_c, 0, 77, 107
1, 1078762, Control_c, 0, 64, 0
1, 1078924, Control_c, 0, 64, 54
1, 1078939, Control_c, 0, 64, 73
1, 1078955, Control_c, 0, 64, 85
1, 1078970, Control_c, 0, 64, 127
1, 1079011, Note_on_c, 0, 74, 92
1, 1079011, Note_on_c, 0, 80, 97
1, 1079016, Note_on_c, 0, 72, 92
1, 1079040, Note_off_c, 0, 65, 66
1, 1079067, Note_off_c, 0, 77, 55
1, 1079080, Note_off_c, 0, 74, 60
1, 1079122, Note_off_c, 0, 72, 61
1, 1079231, Note_off_c, 0, 80, 62
1, 1079264, Note_on_c, 0, 81, 101
1, 1079268, Note_on_c, 0, 75, 91
1, 1079269, Note_on_c, 0, 71, 96
1, 1079303, Note_off_c, 0, 71, 64
1, 1079307, Note_off_c, 0, 75, 65
1, 1079327, Note_off_c, 0, 81, 64
1, 1079399, Note_on_c, 0, 76, 103
1, 1079420, Note_on_c, 0, 64, 105
1, 1079457, Note_off_c, 0, 76, 64
1, 1079461, Note_off_c, 0, 64, 69
1, 1079507, Note_on_c, 0, 81, 106
1, 1079509, Note_on_c, 0, 60, 106
1, 1079512, Note_on_c, 0, 80, 99
1, 1079514, Note_on_c, 0, 72, 108
1, 1079525, Note_on_c, 0, 75, 60
1, 1079527, Note_on_c, 0, 76, 93
1, 1079554, Control_c, 0, 64, 77
1, 1079569, Control_c, 0, 64, 0
1, 1079611, Note_off_c, 0, 75, 63
1, 1079614, Note_off_c, 0, 76, 61
1, 1079731, Note_off_c, 0, 80, 61
1, 1079762, Control_c, 0, 64, 48
1, 1079777, Control_c, 0, 64, 65
1, 1079780, Note_on_c, 0, 80, 72
1, 1079792, Control_c, 0, 64, 71
1, 1079807, Control_c, 0, 64, 83
1, 1079822, Control_c, 0, 64, 104
1, 1079831, Note_off_c, 0, 80, 64
1, 1079836, Note_off_c, 0, 72, 58
1, 1079837, Control_c, 0, 64, 127
1, 1079956, Note_off_c, 0, 81, 62
1, 1080022, Note_on_c, 0, 82, 108
1, 1080030, Note_on_c, 0, 76, 95
1, 1080055, Note_on_c, 0, 80, 35
1, 1080095, Note_off_c, 0, 80, 55
1, 1080156, Note_off_c, 0, 76, 0
1, 1080156, Note_on_c, 0, 76, 7
1, 1080201, Note_off_c, 0, 76, 57
1, 1080283, Note_on_c, 0, 76, 80
1, 1080284, Note_on_c, 0, 79, 89
1, 1080293, Note_off_c, 0, 60, 65
1, 1080302, Note_off_c, 0, 82, 59
1, 1080304, Note_off_c, 0, 79, 72
1, 1080304, Note_off_c, 0, 76, 69
1, 1080496, Control_c, 0, 64, 99
1, 1080511, Control_c, 0, 64, 68
1, 1080526, Control_c, 0, 64, 41
1, 1080530, Note_on_c, 0, 70, 103
1, 1080534, Note_on_c, 0, 63, 80
1, 1080537, Note_on_c, 0, 60, 77
1, 1080537, Note_on_c, 0, 66, 88
1, 1080541, Control_c, 0, 64, 0
1, 1080557, Control_c, 0, 64, 45
1, 1080570, Note_off_c, 0, 60, 69
1, 1080571, Note_off_c, 0, 63, 64
1, 1080572, Control_c, 0, 64, 63
1, 1080573, Note_off_c, 0, 66, 63
1, 1080584, Note_off_c, 0, 70, 67
1, 1080586, Control_c, 0, 64, 77
1, 1080601, Control_c, 0, 64, 93
1, 1080616, Control_c, 0, 64, 91
1, 1080631, Control_c, 0, 64, 76
1, 1080646, Control_c, 0, 64, 65
1, 1080660, Control_c, 0, 64, 52
1, 1080675, Control_c, 0, 64, 33
1, 1080690, Control_c, 0, 64, 0
1, 1080777, Note_on_c, 0, 69, 95
1, 1080786, Note_on_c, 0, 55, 85
1, 1080786, Note_on_c, 0, 61, 86
1, 1080786, Note_on_c, 0, 65, 85
1, 1080794, Control_c, 0, 64, 55
1, 1080809, Control_c, 0, 64, 68
1, 1080831, Control_c, 0, 64, 73
1, 1080832, Note_off_c, 0, 61, 61
1, 1080832, Note_off_c, 0, 69, 68
1, 1080833, Note_off_c, 0, 55, 64
1, 1080835, Note_off_c, 0, 65, 64
1, 1080846, Control_c, 0, 64, 78
1, 1080860, Control_c, 0, 64, 79
1, 1080875, Control_c, 0, 64, 80
1, 1080919, Control_c, 0, 64, 79
1, 1080934, Control_c, 0, 64, 74
1, 1080949, Control_c, 0, 64, 64
1, 1080964, Control_c, 0, 64, 44
1, 1080979, Control_c, 0, 64, 0
1, 1081038, Note_on_c, 0, 69, 97
1, 1081040, Note_on_c, 0, 55, 91
1, 1081041, Note_on_c, 0, 61, 97
1, 1081047, Note_on_c, 0, 65, 92
1, 1081083, Control_c, 0, 64, 30
1, 1081097, Control_c, 0, 64, 67
1, 1081112, Control_c, 0, 64, 86
1, 1081127, Control_c, 0, 64, 127
1, 1081165, Note_off_c, 0, 65, 55
1, 1081203, Poly_aftertouch_c, 0, 58, 127
1, 1081244, Poly_aftertouch_c, 0, 58, 0
1, 1081249, Note_off_c, 0, 61, 60
1, 1081288, Note_on_c, 0, 65, 92
1, 1081435, Note_off_c, 0, 65, 43
1, 1081487, Note_off_c, 0, 55, 53
1, 1081500, Note_on_c, 0, 63, 78
1, 1081506, Note_on_c, 0, 60, 79
1, 1081521, Note_on_c, 0, 70, 96
1, 1081521, Note_off_c, 0, 63, 70
1, 1081524, Note_on_c, 0, 66, 91
1, 1081527, Note_off_c, 0, 60, 70
1, 1081533, Note_off_c, 0, 69, 61
1, 1081558, Note_off_c, 0, 70, 71
1, 1081560, Note_off_c, 0, 66, 65
1, 1081698, Control_c, 0, 64, 77
1, 1081713, Control_c, 0, 64, 46
1, 1081727, Control_c, 0, 64, 0
1, 1081793, Note_on_c, 0, 30, 111
1, 1081793, Note_on_c, 0, 42, 106
1, 1081795, Note_on_c, 0, 54, 126
1, 1081801, Control_c, 0, 64, 55
1, 1081816, Control_c, 0, 64, 91
1, 1081831, Control_c, 0, 64, 127
1, 1081832, Note_off_c, 0, 54, 69
1, 1081852, Note_off_c, 0, 42, 66
1, 1081859, Note_off_c, 0, 30, 65
1, 1081881, Poly_aftertouch_c, 0, 34, 127
1, 1081927, Poly_aftertouch_c, 0, 34, 0
1, 1082057, Note_on_c, 0, 82, 109
1, 1082062, Note_on_c, 0, 73, 98
1, 1082064, Note_on_c, 0, 80, 94
1, 1082169, Note_off_c, 0, 80, 62
1, 1082180, Note_off_c, 0, 73, 60
1, 1082213, Note_off_c, 0, 82, 59
1, 1082299, Note_on_c, 0, 72, 104
1, 1082299, Note_on_c, 0, 83, 107
1, 1082302, Note_on_c, 0, 79, 88
1, 1082350, Note_off_c, 0, 79, 66
1, 1082359, Note_off_c, 0, 72, 61
1, 1082396, Note_off_c, 0, 83, 55
1, 1082604, Note_on_c, 0, 70, 90
1, 1082605, Note_on_c, 0, 78, 102
1, 1082605, Note_on_c, 0, 83, 107
1, 1082606, Note_on_c, 0, 38, 119
1, 1082608, Note_on_c, 0, 26, 105
1, 1082608, Note_on_c, 0, 82, 103
1, 1082636, Note_on_c, 0, 71, 50
1, 1082662, Note_off_c, 0, 71, 63
1, 1082699, Control_c, 0, 64, 90
1, 1082714, Control_c, 0, 64, 57
1, 1082728, Control_c, 0, 64, 0
1, 1082755, Note_off_c, 0, 82, 59
1, 1082805, Note_off_c, 0, 70, 64
1, 1082813, Note_off_c, 0, 78, 58
1, 1082886, Note_on_c, 0, 82, 88
1, 1082889, Note_on_c, 0, 78, 90
1, 1082890, Note_on_c, 0, 70, 96
1, 1082952, Control_c, 0, 64, 36
1, 1082965, Note_off_c, 0, 83, 63
1, 1082966, Control_c, 0, 64, 69
1, 1082981, Control_c, 0, 64, 93
1, 1082996, Control_c, 0, 64, 127
1, 1083040, Note_off_c, 0, 70, 61
1, 1083051, Note_off_c, 0, 82, 62
1, 1083056, Note_off_c, 0, 78, 60
1, 1083133, Note_on_c, 0, 84, 108
1, 1083137, Control_c, 0, 64, 95
1, 1083138, Note_on_c, 0, 78, 98
1, 1083138, Note_on_c, 0, 82, 96
1, 1083139, Note_on_c, 0, 70, 105
1, 1083152, Control_c, 0, 64, 64
1, 1083167, Control_c, 0, 64, 0
1, 1083186, Note_off_c, 0, 82, 61
1, 1083204, Note_on_c, 0, 77, 63
1, 1083211, Control_c, 0, 64, 40
1, 1083217, Note_on_c, 0, 81, 50
1, 1083226, Control_c, 0, 64, 64
1, 1083241, Control_c, 0, 64, 80
1, 1083241, Note_off_c, 0, 77, 63
1, 1083247, Note_off_c, 0, 81, 55
1, 1083248, Note_off_c, 0, 78, 55
1, 1083255, Control_c, 0, 64, 127
1, 1083295, Note_off_c, 0, 70, 62
1, 1083380, Note_on_c, 0, 82, 98
1, 1083381, Note_on_c, 0, 78, 97
1, 1083384, Note_on_c, 0, 70, 102
1, 1083411, Note_off_c, 0, 38, 58
1, 1083442, Note_off_c, 0, 26, 61
1, 1083632, Note_on_c, 0, 46, 108
1, 1083635, Note_on_c, 0, 34, 105
1, 1083769, Note_off_c, 0, 46, 65
1, 1083772, Note_off_c, 0, 34, 64
1, 1083896, Note_on_c, 0, 52, 109
1, 1083899, Note_on_c, 0, 40, 106
1, 1084010, Note_off_c, 0, 40, 64
1, 1084025, Note_off_c, 0, 52, 68
1, 1084054, Note_off_c, 0, 70, 57
1, 1084108, Control_c, 0, 64, 98
1, 1084122, Control_c, 0, 64, 73
1, 1084137, Control_c, 0, 64, 64
1, 1084152, Control_c, 0, 64, 65
1, 1084167, Control_c, 0, 64, 72
1, 1084168, Note_on_c, 0, 59, 100
1, 1084171, Note_on_c, 0, 60, 94
1, 1084172, Note_on_c, 0, 48, 96
1, 1084174, Note_on_c, 0, 47, 97
1, 1084182, Control_c, 0, 64, 87
1, 1084184, Note_off_c, 0, 60, 73
1, 1084196, Control_c, 0, 64, 127
1, 1084207, Note_off_c, 0, 47, 63
1, 1084237, Note_off_c, 0, 48, 66
1, 1084240, Note_off_c, 0, 59, 62
1, 1084258, Note_on_c, 0, 60, 14
1, 1084275, Note_off_c, 0, 84, 66
1, 1084281, Note_off_c, 0, 60, 57
1, 1084301, Note_off_c, 0, 78, 61
1, 1084305, Note_off_c, 0, 82, 59
1, 1084389, Control_c, 0, 64, 98
1, 1084404, Control_c, 0, 64, 66
1, 1084416, Note_on_c, 0, 60, 81
1, 1084419, Control_c, 0, 64, 51
1, 1084434, Control_c, 0, 64, 59
1, 1084448, Control_c, 0, 64, 69
1, 1084463, Control_c, 0, 64, 95
1, 1084478, Control_c, 0, 64, 127
1, 1084491, Note_on_c, 0, 61, 78
1, 1084508, Note_off_c, 0, 60, 65
1, 1084535, Note_on_c, 0, 63, 76
1, 1084542, Note_off_c, 0, 61, 64
1, 1084546, Note_on_c, 0, 62, 92
1, 1084558, Note_off_c, 0, 63, 61
1, 1084571, Note_off_c, 0, 62, 73
1, 1084581, Note_on_c, 0, 65, 86
1, 1084618, Note_off_c, 0, 65, 67
1, 1084661, Note_on_c, 0, 66, 92
1, 1084715, Note_on_c, 0, 68, 92
1, 1084743, Note_off_c, 0, 66, 64
1, 1084758, Note_on_c, 0, 70, 91
1, 1084767, Note_off_c, 0, 68, 69
1, 1084794, Note_off_c, 0, 70, 71
1, 1084800, Note_on_c, 0, 71, 89
1, 1084816, Note_on_c, 0, 69, 52
1, 1084816, Note_off_c, 0, 69, 127
1, 1084832, Note_off_c, 0, 71, 70
1, 1084854, Note_on_c, 0, 72, 92
1, 1084899, Note_on_c, 0, 73, 87
1, 1084903, Note_off_c, 0, 72, 68
1, 1084934, Note_on_c, 0, 75, 90
1, 1084955, Note_off_c, 0, 73, 67
1, 1084975, Note_off_c, 0, 75, 70
1, 1084979, Note_on_c, 0, 77, 89
1, 1085022, Note_off_c, 0, 77, 68
1, 1085033, Note_on_c, 0, 78, 97
1, 1085078, Note_on_c, 0, 80, 97
1, 1085099, Poly_aftertouch_c, 0, 79, 0
1, 1085116, Note_off_c, 0, 78, 66
1, 1085125, Note_on_c, 0, 82, 95
1, 1085137, Note_off_c, 0, 80, 71
1, 1085173, Note_off_c, 0, 82, 67
1, 1085176, Note_on_c, 0, 83, 96
1, 1085200, Note_on_c, 0, 84, 74
1, 1085248, Note_on_c, 0, 85, 86
1, 1085287, Note_off_c, 0, 83, 68
1, 1085294, Note_off_c, 0, 84, 61
1, 1085298, Note_on_c, 0, 86, 83
1, 1085307, Note_on_c, 0, 88, 108
1, 1085325, Note_off_c, 0, 85, 65
1, 1085341, Note_off_c, 0, 86, 66
1, 1085378, Note_on_c, 0, 103, 101
1, 1085380, Note_off_c, 0, 88, 66
1, 1085402, Note_on_c, 0, 101, 49
1, 1085427, Note_on_c, 0, 89, 123
1, 1085432, Note_on_c, 0, 102, 104
1, 1085438, Note_on_c, 0, 104, 108
1, 1085438, Note_on_c, 0, 92, 114
1, 1085458, Note_off_c, 0, 101, 0
1, 1085458, Note_on_c, 0, 101, 63
1, 1085459, Note_off_c, 0, 89, 77
1, 1085488, Note_off_c, 0, 92, 72
1, 1085498, Note_off_c, 0, 103, 61
1, 1085501, Note_off_c, 0, 102, 59
1, 1085504, Note_off_c, 0, 101, 64
1, 1085511, Note_off_c, 0, 104, 68
1, 1085680, Control_c, 0, 64, 76
1, 1085694, Control_c, 0, 64, 0
1, 1085711, Note_on_c, 0, 34, 103
1, 1085714, Note_on_c, 0, 44, 105
1, 1085718, Note_on_c, 0, 33, 94
1, 1085729, Note_on_c, 0, 45, 84
1, 1085729, Note_on_c, 0, 46, 61
1, 1085729, Note_off_c, 0, 46, 127
1, 1085739, Control_c, 0, 64, 49
1, 1085748, Note_off_c, 0, 45, 66
1, 1085753, Note_off_c, 0, 33, 63
1, 1085753, Note_off_c, 0, 44, 67
1, 1085754, Control_c, 0, 64, 81
1, 1085768, Note_off_c, 0, 34, 62
1, 1085769, Control_c, 0, 64, 127
1, 1085902, Control_c, 0, 64, 77
1, 1085917, Control_c, 0, 64, 50
1, 1085932, Control_c, 0, 64, 0
1, 1085957, Note_on_c, 0, 45, 111
1, 1085958, Note_on_c, 0, 33, 104
1, 1085976, Control_c, 0, 64, 46
1, 1085990, Note_off_c, 0, 45, 70
1, 1085991, Control_c, 0, 64, 68
1, 1086004, Note_off_c, 0, 33, 67
1, 1086006, Control_c, 0, 64, 77
1, 1086020, Control_c, 0, 64, 93
1, 1086035, Control_c, 0, 64, 127
1, 1086192, Control_c, 0, 64, 92
1, 1086207, Control_c, 0, 64, 70
1, 1086216, Note_on_c, 0, 45, 114
1, 1086217, Note_on_c, 0, 33, 109
1, 1086222, Control_c, 0, 64, 49
1, 1086237, Control_c, 0, 64, 0
1, 1086274, Note_on_c, 0, 32, 45
1, 1086281, Control_c, 0, 64, 56
1, 1086296, Control_c, 0, 64, 76
1, 1086310, Note_off_c, 0, 32, 59
1, 1086311, Control_c, 0, 64, 99
1, 1086325, Control_c, 0, 64, 127
1, 1086340, Control_c, 0, 64, 100
1, 1086355, Control_c, 0, 64, 73
1, 1086370, Control_c, 0, 64, 54
1, 1086385, Control_c, 0, 64, 44
1, 1086399, Note_off_c, 0, 45, 62
1, 1086399, Control_c, 0, 64, 56
1, 1086414, Control_c, 0, 64, 64
1, 1086429, Control_c, 0, 64, 74
1, 1086443, Control_c, 0, 64, 89
1, 1086458, Control_c, 0, 64, 127
1, 1086469, Note_on_c, 0, 45, 100
1, 1086526, Note_off_c, 0, 45, 58
1, 1086592, Note_off_c, 0, 33, 61
1, 1086681, Control_c, 0, 64, 73
1, 1086695, Note_on_c, 0, 44, 100
1, 1086696, Control_c, 0, 64, 51
1, 1086701, Note_on_c, 0, 32, 94
1, 1086710, Control_c, 0, 64, 32
1, 1086725, Control_c, 0, 64, 44
1, 1086740, Control_c, 0, 64, 60
1, 1086755, Control_c, 0, 64, 73
1, 1086770, Control_c, 0, 64, 98
1, 1086778, Note_off_c, 0, 32, 63
1, 1086784, Control_c, 0, 64, 127
1, 1086896, Control_c, 0, 64, 78
1, 1086911, Control_c, 0, 64, 65
1, 1086925, Control_c, 0, 64, 64
1, 1086940, Control_c, 0, 64, 71
1, 1086950, Note_on_c, 0, 32, 97
1, 1086955, Control_c, 0, 64, 82
1, 1086970, Note_off_c, 0, 44, 67
1, 1086970, Control_c, 0, 64, 103
1, 1086985, Control_c, 0, 64, 127
1, 1086992, Note_off_c, 0, 32, 63
1, 1087118, Control_c, 0, 64, 104
1, 1087133, Control_c, 0, 64, 67
1, 1087147, Control_c, 0, 64, 0
1, 1087187, Note_on_c, 0, 44, 106
1, 1087192, Note_on_c, 0, 32, 103
1, 1087207, Control_c, 0, 64, 54
1, 1087221, Control_c, 0, 64, 86
1, 1087228, Note_off_c, 0, 44, 67
1, 1087234, Note_on_c, 0, 31, 34
1, 1087236, Note_off_c, 0, 32, 63
1, 1087236, Control_c, 0, 64, 127
1, 1087271, Note_off_c, 0, 31, 52
1, 1087295, Control_c, 0, 67, 19
1, 1087325, Control_c, 0, 64, 80
1, 1087340, Control_c, 0, 64, 52
1, 1087355, Control_c, 0, 64, 0
1, 1087385, Control_c, 0, 67, 0
1, 1087436, Note_on_c, 0, 43, 115
1, 1087442, Note_on_c, 0, 31, 102
1, 1087459, Control_c, 0, 64, 57
1, 1087473, Control_c, 0, 64, 74
1, 1087479, Note_off_c, 0, 31, 60
1, 1087488, Control_c, 0, 64, 89
1, 1087492, Note_off_c, 0, 43, 61
1, 1087503, Control_c, 0, 64, 127
1, 1087547, Control_c, 0, 67, 19
1, 1087614, Control_c, 0, 67, 0
1, 1087659, Control_c, 0, 64, 91
1, 1087673, Control_c, 0, 64, 61
1, 1087688, Control_c, 0, 64, 0
1, 1087695, Note_on_c, 0, 43, 109
1, 1087701, Note_on_c, 0, 31, 97
1, 1087733, Control_c, 0, 64, 30
1, 1087748, Control_c, 0, 64, 58
1, 1087763, Control_c, 0, 64, 73
1, 1087778, Control_c, 0, 64, 107
1, 1087783, Note_off_c, 0, 31, 61
1, 1087793, Control_c, 0, 64, 127
1, 1087897, Control_c, 0, 64, 92
1, 1087912, Control_c, 0, 64, 67
1, 1087927, Control_c, 0, 64, 48
1, 1087942, Control_c, 0, 64, 48
1, 1087946, Note_on_c, 0, 31, 95
1, 1087957, Control_c, 0, 64, 60
1, 1087971, Control_c, 0, 64, 68
1, 1087986, Control_c, 0, 64, 84
1, 1088001, Control_c, 0, 64, 127
1, 1088031, Note_off_c, 0, 43, 64
1, 1088134, Note_off_c, 0, 31, 60
1, 1088178, Control_c, 0, 64, 93
1, 1088183, Note_on_c, 0, 44, 98
1, 1088193, Note_on_c, 0, 32, 82
1, 1088193, Control_c, 0, 64, 62
1, 1088208, Control_c, 0, 64, 0
1, 1088246, Note_off_c, 0, 32, 62
1, 1088252, Control_c, 0, 64, 60
1, 1088267, Control_c, 0, 64, 85
1, 1088282, Control_c, 0, 64, 127
1, 1088378, Control_c, 0, 64, 113
1, 1088393, Control_c, 0, 64, 67
1, 1088408, Control_c, 0, 64, 0
1, 1088433, Note_on_c, 0, 32, 92
1, 1088452, Control_c, 0, 64, 47
1, 1088454, Note_off_c, 0, 44, 66
1, 1088467, Control_c, 0, 64, 68
1, 1088472, Note_off_c, 0, 32, 64
1, 1088482, Control_c, 0, 64, 91
1, 1088496, Control_c, 0, 64, 127
1, 1088572, Control_c, 0, 64, 106
1, 1088586, Control_c, 0, 64, 68
1, 1088601, Control_c, 0, 64, 0
1, 1088667, Note_on_c, 0, 44, 106
1, 1088669, Note_on_c, 0, 32, 101
1, 1088675, Control_c, 0, 64, 31
1, 1088690, Control_c, 0, 64, 67
1, 1088705, Control_c, 0, 64, 103
1, 1088706, Note_off_c, 0, 44, 67
1, 1088717, Note_off_c, 0, 32, 62
1, 1088720, Control_c, 0, 64, 127
1, 1088809, Control_c, 0, 64, 98
1, 1088824, Control_c, 0, 64, 65
1, 1088838, Control_c, 0, 64, 0
1, 1088913, Note_on_c, 0, 45, 112
1, 1088914, Note_on_c, 0, 33, 99
1, 1088927, Control_c, 0, 64, 39
1, 1088942, Control_c, 0, 64, 68
1, 1088950, Note_off_c, 0, 45, 67
1, 1088957, Control_c, 0, 64, 103
1, 1088964, Note_off_c, 0, 33, 65
1, 1088972, Control_c, 0, 64, 127
1, 1089031, Control_c, 0, 67, 19
1, 1089083, Control_c, 0, 67, 0
1, 1089127, Control_c, 0, 64, 108
1, 1089142, Control_c, 0, 64, 68
1, 1089157, Control_c, 0, 64, 0
1, 1089174, Note_on_c, 0, 45, 117
1, 1089176, Note_on_c, 0, 33, 102
1, 1089216, Control_c, 0, 64, 33
1, 1089231, Control_c, 0, 64, 62
1, 1089245, Control_c, 0, 64, 83
1, 1089260, Control_c, 0, 64, 127
1, 1089365, Control_c, 0, 64, 74
1, 1089372, Note_off_c, 0, 45, 51
1, 1089380, Control_c, 0, 64, 32
1, 1089395, Control_c, 0, 64, 0
1, 1089424, Control_c, 0, 64, 47
1, 1089438, Note_on_c, 0, 45, 90
1, 1089439, Control_c, 0, 64, 68
1, 1089454, Control_c, 0, 64, 85
1, 1089468, Control_c, 0, 64, 127
1, 1089515, Note_off_c, 0, 45, 63
1, 1089661, Control_c, 0, 64, 81
1, 1089676, Control_c, 0, 64, 45
1, 1089677, Note_on_c, 0, 44, 100
1, 1089684, Note_on_c, 0, 32, 83
1, 1089687, Note_off_c, 0, 33, 51
1, 1089691, Control_c, 0, 64, 0
1, 1089735, Control_c, 0, 64, 60
1, 1089750, Control_c, 0, 64, 80
1, 1089754, Note_off_c, 0, 32, 62
1, 1089765, Control_c, 0, 64, 127
1, 1089891, Control_c, 0, 64, 80
1, 1089906, Control_c, 0, 64, 56
1, 1089921, Control_c, 0, 64, 0
1, 1089930, Note_on_c, 0, 32, 90
1, 1089950, Control_c, 0, 64, 40
1, 1089957, Note_off_c, 0, 44, 65
1, 1089965, Control_c, 0, 64, 63
1, 1089980, Control_c, 0, 64, 85
1, 1089984, Note_off_c, 0, 32, 64
1, 1089994, Control_c, 0, 64, 127
1, 1090113, Control_c, 0, 64, 89
1, 1090128, Control_c, 0, 64, 63
1, 1090144, Control_c, 0, 64, 0
1, 1090166, Note_on_c, 0, 44, 98
1, 1090169, Note_on_c, 0, 32, 88
1, 1090188, Control_c, 0, 64, 32
1, 1090203, Control_c, 0, 64, 65
1, 1090217, Control_c, 0, 64, 97
1, 1090227, Note_off_c, 0, 44, 66
1, 1090232, Control_c, 0, 64, 127
1, 1090246, Note_off_c, 0, 32, 58
1, 1090306, Control_c, 0, 64, 104
1, 1090321, Control_c, 0, 64, 70
1, 1090336, Control_c, 0, 64, 33
1, 1090351, Control_c, 0, 64, 0
1, 1090419, Note_on_c, 0, 43, 103
1, 1090422, Note_on_c, 0, 31, 89
1, 1090425, Control_c, 0, 64, 37
1, 1090440, Control_c, 0, 64, 67
1, 1090455, Control_c, 0, 64, 96
1, 1090469, Note_off_c, 0, 31, 62
1, 1090470, Control_c, 0, 64, 127
1, 1090479, Note_off_c, 0, 43, 63
1, 1090580, Control_c, 0, 64, 104
1, 1090595, Control_c, 0, 64, 77
1, 1090610, Control_c, 0, 64, 57
1, 1090625, Control_c, 0, 64, 0
1, 1090675, Note_on_c, 0, 43, 113
1, 1090681, Note_on_c, 0, 31, 91
1, 1090699, Control_c, 0, 64, 40
1, 1090714, Control_c, 0, 64, 70
1, 1090723, Note_off_c, 0, 31, 58
1, 1090729, Control_c, 0, 64, 110
1, 1090743, Control_c, 0, 64, 127
1, 1090832, Control_c, 0, 64, 122
1, 1090847, Control_c, 0, 64, 71
1, 1090862, Control_c, 0, 64, 35
1, 1090877, Control_c, 0, 64, 0
1, 1090906, Control_c, 0, 64, 53
1, 1090921, Note_on_c, 0, 31, 83
1, 1090921, Control_c, 0, 64, 77
1, 1090937, Control_c, 0, 64, 127
1, 1090997, Note_off_c, 0, 43, 61
1, 1091129, Control_c, 0, 64, 73
1, 1091144, Control_c, 0, 64, 0
1, 1091155, Note_off_c, 0, 31, 60
1, 1091182, Note_on_c, 0, 44, 92
1, 1091194, Note_on_c, 0, 32, 71
1, 1091218, Control_c, 0, 67, 21
1, 1091227, Note_off_c, 0, 32, 65
1, 1091233, Control_c, 0, 67, 24
1, 1091248, Control_c, 0, 67, 26
1, 1091278, Control_c, 0, 67, 30
1, 1091314, Control_c, 0, 64, 33
1, 1091314, Control_c, 0, 67, 34
1, 1091329, Control_c, 0, 64, 36
1, 1091329, Control_c, 0, 67, 37
1, 1091344, Control_c, 0, 64, 0
1, 1091344, Control_c, 0, 67, 40
1, 1091359, Control_c, 0, 67, 44
1, 1091374, Control_c, 0, 67, 48
1, 1091388, Control_c, 0, 67, 51
1, 1091403, Control_c, 0, 64, 52
1, 1091403, Control_c, 0, 67, 56
1, 1091418, Control_c, 0, 64, 62
1, 1091418, Control_c, 0, 67, 63
1, 1091433, Control_c, 0, 64, 66
1, 1091433, Control_c, 0, 67, 72
1, 1091443, Note_on_c, 0, 68, 105
1, 1091448, Control_c, 0, 64, 71
1, 1091448, Control_c, 0, 67, 78
1, 1091462, Control_c, 0, 64, 81
1, 1091462, Control_c, 0, 67, 83
1, 1091475, Note_off_c, 0, 68, 71
1, 1091477, Control_c, 0, 64, 115
1, 1091477, Control_c, 0, 67, 88
1, 1091481, Note_on_c, 0, 32, 44
1, 1091481, Note_off_c, 0, 44, 60
1, 1091492, Control_c, 0, 64, 127
1, 1091492, Control_c, 0, 67, 93
1, 1091507, Control_c, 0, 67, 97
1, 1091520, Note_off_c, 0, 32, 47
1, 1091521, Control_c, 0, 67, 101
1, 1091536, Control_c, 0, 67, 106
1, 1091551, Control_c, 0, 67, 109
1, 1091565, Control_c, 0, 67, 113
1, 1091580, Control_c, 0, 67, 117
1, 1091595, Control_c, 0, 67, 121
1, 1091610, Control_c, 0, 67, 126
1, 1091695, Note_on_c, 0, 32, 77
1, 1091699, Note_on_c, 0, 44, 71
1, 1091735, Note_off_c, 0, 44, 64
1, 1091755, Note_off_c, 0, 32, 55
1, 1091951, Note_on_c, 0, 33, 82
1, 1091957, Note_on_c, 0, 45, 73
1, 1091987, Note_off_c, 0, 45, 65
1, 1092002, Note_off_c, 0, 33, 60
1, 1092122, Control_c, 0, 64, 114
1, 1092136, Control_c, 0, 64, 80
1, 1092151, Control_c, 0, 64, 60
1, 1092166, Control_c, 0, 64, 0
1, 1092209, Note_on_c, 0, 55, 111
1, 1092223, Note_on_c, 0, 33, 81
1, 1092226, Control_c, 0, 64, 53
1, 1092232, Note_on_c, 0, 45, 76
1, 1092241, Control_c, 0, 64, 71
1, 1092241, Note_off_c, 0, 55, 70
1, 1092255, Control_c, 0, 64, 97
1, 1092261, Note_off_c, 0, 45, 65
1, 1092270, Control_c, 0, 64, 127
1, 1092448, Control_c, 0, 67, 124
1, 1092477, Control_c, 0, 67, 122
1, 1092492, Note_on_c, 0, 45, 73
1, 1092539, Note_off_c, 0, 45, 55
1, 1092582, Control_c, 0, 67, 120
1, 1092626, Control_c, 0, 67, 118
1, 1092715, Control_c, 0, 67, 116
1, 1092735, Note_off_c, 0, 33, 53
1, 1092735, Note_on_c, 0, 32, 57
1, 1092737, Note_on_c, 0, 44, 58
1, 1092759, Control_c, 0, 67, 113
1, 1092765, Note_on_c, 0, 81, 74
1, 1092789, Control_c, 0, 67, 110
1, 1092811, Control_c, 0, 67, 107
1, 1092816, Note_on_c, 0, 83, 77
1, 1092820, Note_off_c, 0, 81, 62
1, 1092822, Note_off_c, 0, 32, 53
1, 1092826, Control_c, 0, 67, 104
1, 1092841, Control_c, 0, 67, 99
1, 1092856, Control_c, 0, 67, 95
1, 1092871, Control_c, 0, 67, 93
1, 1092875, Note_on_c, 0, 85, 84
1, 1092886, Note_off_c, 0, 83, 64
1, 1092908, Note_on_c, 0, 87, 92
1, 1092914, Note_off_c, 0, 85, 68
1, 1092915, Control_c, 0, 67, 93
1, 1092945, Control_c, 0, 67, 92
1, 1092952, Note_off_c, 0, 87, 71
1, 1092954, Note_on_c, 0, 88, 107
1, 1092956, Note_on_c, 0, 32, 75
1, 1092959, Control_c, 0, 67, 92
1, 1092974, Note_off_c, 0, 44, 63
1, 1092974, Control_c, 0, 67, 91
1, 1092995, Note_off_c, 0, 32, 63
1, 1093004, Control_c, 0, 67, 90
1, 1093048, Control_c, 0, 67, 91
1, 1093063, Control_c, 0, 67, 91
1, 1093182, Control_c, 0, 67, 91
1, 1093197, Control_c, 0, 67, 90
1, 1093204, Note_on_c, 0, 44, 75
1, 1093206, Note_on_c, 0, 87, 90
1, 1093209, Note_on_c, 0, 32, 64
1, 1093218, Note_off_c, 0, 88, 63
1, 1093223, Note_off_c, 0, 87, 72
1, 1093231, Note_off_c, 0, 32, 69
1, 1093236, Note_off_c, 0, 44, 67
1, 1093390, Control_c, 0, 67, 91
1, 1093452, Note_on_c, 0, 43, 76
1, 1093454, Note_on_c, 0, 31, 67
1, 1093466, Note_on_c, 0, 81, 87
1, 1093479, Control_c, 0, 67, 91
1, 1093486, Note_off_c, 0, 43, 65
1, 1093489, Note_off_c, 0, 31, 62
1, 1093508, Control_c, 0, 67, 92
1, 1093519, Note_on_c, 0, 83, 83
1, 1093524, Note_off_c, 0, 81, 61
1, 1093573, Note_on_c, 0, 85, 85
1, 1093594, Note_off_c, 0, 83, 63
1, 1093612, Note_on_c, 0, 87, 90
1, 1093618, Note_off_c, 0, 85, 68
1, 1093620, Control_c, 0, 67, 93
1, 1093655, Note_off_c, 0, 87, 71
1, 1093662, Note_on_c, 0, 88, 106
1, 1093670, Note_on_c, 0, 43, 99
1, 1093677, Note_on_c, 0, 31, 89
1, 1093679, Control_c, 0, 64, 86
1, 1093694, Control_c, 0, 64, 64
1, 1093708, Control_c, 0, 64, 47
1, 1093708, Control_c, 0, 67, 93
1, 1093709, Note_off_c, 0, 31, 66
1, 1093723, Control_c, 0, 64, 48
1, 1093738, Control_c, 0, 64, 59
1, 1093738, Control_c, 0, 67, 94
1, 1093753, Control_c, 0, 64, 69
1, 1093767, Control_c, 0, 64, 87
1, 1093767, Control_c, 0, 67, 95
1, 1093782, Control_c, 0, 64, 127
1, 1093782, Control_c, 0, 67, 95
1, 1093797, Control_c, 0, 67, 96
1, 1093871, Control_c, 0, 67, 95
1, 1093886, Control_c, 0, 67, 94
1, 1093916, Control_c, 0, 67, 94
1, 1093930, Note_on_c, 0, 87, 88
1, 1093931, Control_c, 0, 67, 93
1, 1093932, Note_on_c, 0, 31, 69
1, 1093935, Note_off_c, 0, 88, 63
1, 1093936, Note_off_c, 0, 43, 64
1, 1093946, Note_off_c, 0, 87, 74
1, 1094124, Control_c, 0, 67, 93
1, 1094139, Note_on_c, 0, 32, 57
1, 1094139, Control_c, 0, 67, 92
1, 1094144, Note_on_c, 0, 44, 73
1, 1094150, Note_off_c, 0, 31, 58
1, 1094154, Control_c, 0, 67, 91
1, 1094169, Control_c, 0, 67, 91
1, 1094174, Note_off_c, 0, 32, 60
1, 1094175, Note_off_c, 0, 44, 67
1, 1094183, Note_on_c, 0, 81, 84
1, 1094183, Control_c, 0, 67, 90
1, 1094213, Control_c, 0, 67, 90
1, 1094231, Note_on_c, 0, 83, 78
1, 1094236, Note_off_c, 0, 81, 63
1, 1094243, Control_c, 0, 67, 90
1, 1094272, Control_c, 0, 67, 91
1, 1094280, Note_on_c, 0, 85, 85
1, 1094287, Control_c, 0, 67, 91
1, 1094308, Note_off_c, 0, 83, 63
1, 1094324, Note_on_c, 0, 87, 94
1, 1094324, Control_c, 0, 67, 92
1, 1094330, Note_off_c, 0, 85, 68
1, 1094354, Control_c, 0, 64, 96
1, 1094354, Control_c, 0, 67, 93
1, 1094369, Control_c, 0, 64, 62
1, 1094383, Control_c, 0, 64, 0
1, 1094384, Note_off_c, 0, 87, 70
1, 1094388, Note_on_c, 0, 67, 105
1, 1094390, Note_on_c, 0, 88, 104
1, 1094413, Control_c, 0, 64, 35
1, 1094413, Control_c, 0, 67, 92
1, 1094428, Control_c, 0, 64, 60
1, 1094430, Note_off_c, 0, 67, 69
1, 1094443, Control_c, 0, 64, 81
1, 1094457, Control_c, 0, 64, 127
1, 1094546, Control_c, 0, 67, 92
1, 1094648, Note_on_c, 0, 87, 84
1, 1094655, Note_off_c, 0, 88, 66
1, 1094663, Note_on_c, 0, 44, 70
1, 1094664, Note_on_c, 0, 32, 68
1, 1094681, Note_off_c, 0, 87, 63
1, 1094753, Control_c, 0, 67, 92
1, 1094768, Control_c, 0, 67, 93
1, 1094783, Control_c, 0, 67, 93
1, 1094843, Control_c, 0, 67, 94
1, 1094844, Note_off_c, 0, 32, 56
1, 1094857, Control_c, 0, 67, 94
1, 1094867, Note_off_c, 0, 44, 57
1, 1094908, Note_on_c, 0, 45, 69
1, 1094908, Note_on_c, 0, 33, 69
1, 1094938, Note_off_c, 0, 45, 65
1, 1094942, Note_off_c, 0, 33, 63
1, 1094962, Control_c, 0, 67, 95
1, 1094977, Control_c, 0, 67, 96
1, 1095006, Control_c, 0, 67, 98
1, 1095058, Control_c, 0, 64, 97
1, 1095073, Control_c, 0, 64, 65
1, 1095087, Control_c, 0, 64, 0
1, 1095087, Control_c, 0, 67, 100
1, 1095147, Control_c, 0, 67, 98
1, 1095156, Note_on_c, 0, 54, 109
1, 1095167, Note_on_c, 0, 33, 90
1, 1095171, Note_on_c, 0, 45, 82
1, 1095177, Control_c, 0, 64, 54
1, 1095185, Note_off_c, 0, 54, 70
1, 1095192, Control_c, 0, 64, 90
1, 1095206, Control_c, 0, 64, 127
1, 1095213, Note_off_c, 0, 45, 63
1, 1095281, Control_c, 0, 67, 100
1, 1095414, Control_c, 0, 67, 98
1, 1095433, Note_on_c, 0, 45, 77
1, 1095493, Note_off_c, 0, 45, 55
1, 1095503, Control_c, 0, 67, 96
1, 1095532, Control_c, 0, 67, 96
1, 1095547, Control_c, 0, 67, 95
1, 1095676, Note_off_c, 0, 33, 52
1, 1095698, Note_on_c, 0, 69, 74
1, 1095702, Note_on_c, 0, 32, 47
1, 1095705, Note_on_c, 0, 44, 45
1, 1095756, Note_on_c, 0, 71, 78
1, 1095760, Note_off_c, 0, 69, 60
1, 1095786, Note_off_c, 0, 32, 52
1, 1095814, Note_on_c, 0, 73, 79
1, 1095830, Note_off_c, 0, 71, 64
1, 1095851, Note_on_c, 0, 75, 81
1, 1095857, Note_off_c, 0, 73, 67
1, 1095901, Note_off_c, 0, 75, 69
1, 1095907, Note_on_c, 0, 76, 104
1, 1095921, Note_on_c, 0, 32, 77
1, 1095946, Note_off_c, 0, 32, 65
1, 1095967, Note_off_c, 0, 44, 39
1, 1096119, Control_c, 0, 64, 100
1, 1096134, Control_c, 0, 64, 85
1, 1096148, Control_c, 0, 64, 78
1, 1096158, Note_on_c, 0, 44, 89
1, 1096160, Note_on_c, 0, 75, 79
1, 1096163, Control_c, 0, 64, 81
1, 1096166, Note_on_c, 0, 32, 75
1, 1096171, Note_off_c, 0, 76, 60
1, 1096178, Control_c, 0, 64, 93
1, 1096179, Note_off_c, 0, 75, 72
1, 1096191, Note_off_c, 0, 32, 62
1, 1096193, Control_c, 0, 64, 127
1, 1096194, Note_off_c, 0, 44, 65
1, 1096237, Control_c, 0, 64, 101
1, 1096252, Control_c, 0, 64, 76
1, 1096267, Control_c, 0, 64, 63
1, 1096282, Control_c, 0, 64, 54
1, 1096296, Control_c, 0, 64, 46
1, 1096311, Control_c, 0, 64, 37
1, 1096326, Control_c, 0, 64, 31
1, 1096355, Control_c, 0, 64, 41
1, 1096370, Control_c, 0, 64, 56
1, 1096385, Control_c, 0, 64, 65
1, 1096400, Control_c, 0, 64, 71
1, 1096415, Control_c, 0, 64, 78
1, 1096417, Note_on_c, 0, 43, 78
1, 1096420, Note_on_c, 0, 81, 76
1, 1096429, Control_c, 0, 64, 84
1, 1096429, Control_c, 0, 67, 95
1, 1096430, Note_on_c, 0, 31, 48
1, 1096444, Control_c, 0, 64, 89
1, 1096444, Control_c, 0, 67, 94
1, 1096447, Note_off_c, 0, 43, 67
1, 1096459, Control_c, 0, 64, 98
1, 1096468, Note_off_c, 0, 31, 44
1, 1096473, Note_on_c, 0, 83, 73
1, 1096473, Control_c, 0, 64, 110
1, 1096476, Note_off_c, 0, 81, 62
1, 1096488, Control_c, 0, 64, 127
1, 1096522, Note_on_c, 0, 85, 84
1, 1096537, Note_off_c, 0, 83, 63
1, 1096573, Note_on_c, 0, 87, 82
1, 1096584, Note_off_c, 0, 85, 65
1, 1096616, Control_c, 0, 67, 94
1, 1096625, Note_off_c, 0, 87, 69
1, 1096627, Note_on_c, 0, 88, 101
1, 1096631, Control_c, 0, 64, 112
1, 1096631, Control_c, 0, 67, 93
1, 1096640, Note_on_c, 0, 43, 105
1, 1096646, Control_c, 0, 64, 86
1, 1096646, Note_on_c, 0, 31, 86
1, 1096660, Control_c, 0, 64, 78
1, 1096675, Control_c, 0, 64, 79
1, 1096688, Note_off_c, 0, 31, 62
1, 1096690, Control_c, 0, 64, 87
1, 1096705, Control_c, 0, 64, 104
1, 1096720, Control_c, 0, 64, 127
1, 1096778, Control_c, 0, 67, 94
1, 1096867, Control_c, 0, 64, 115
1, 1096867, Control_c, 0, 67, 93
1, 1096882, Control_c, 0, 64, 121
1, 1096894, Note_on_c, 0, 31, 70
1, 1096897, Note_on_c, 0, 87, 82
1, 1096897, Control_c, 0, 64, 127
1, 1096903, Note_off_c, 0, 88, 63
1, 1096905, Note_off_c, 0, 43, 65
1, 1096915, Note_off_c, 0, 87, 72
1, 1096941, Control_c, 0, 67, 93
1, 1097001, Control_c, 0, 67, 92
1, 1097045, Control_c, 0, 67, 92
1, 1097060, Control_c, 0, 67, 91
1, 1097075, Control_c, 0, 67, 90
1, 1097090, Control_c, 0, 67, 88
1, 1097104, Control_c, 0, 67, 87
1, 1097119, Control_c, 0, 67, 82
1, 1097120, Note_on_c, 0, 44, 76
1, 1097120, Note_on_c, 0, 32, 59
1, 1097134, Control_c, 0, 67, 73
1, 1097137, Note_off_c, 0, 31, 61
1, 1097145, Note_on_c, 0, 81, 79
1, 1097149, Control_c, 0, 67, 63
1, 1097154, Note_off_c, 0, 44, 66
1, 1097156, Note_off_c, 0, 32, 61
1, 1097164, Control_c, 0, 67, 51
1, 1097178, Control_c, 0, 67, 36
1, 1097191, Note_on_c, 0, 83, 80
1, 1097193, Control_c, 0, 67, 20
1, 1097198, Note_off_c, 0, 81, 62
1, 1097208, Control_c, 0, 67, 0
1, 1097241, Note_on_c, 0, 85, 83
1, 1097254, Note_off_c, 0, 83, 64
1, 1097275, Note_on_c, 0, 87, 89
1, 1097279, Note_off_c, 0, 85, 68
1, 1097304, Control_c, 0, 64, 78
1, 1097319, Control_c, 0, 64, 49
1, 1097335, Control_c, 0, 64, 0
1, 1097339, Note_off_c, 0, 87, 69
1, 1097342, Note_on_c, 0, 55, 107
1, 1097344, Note_on_c, 0, 88, 98
1, 1097380, Control_c, 0, 64, 57
1, 1097389, Note_off_c, 0, 55, 68
1, 1097394, Control_c, 0, 64, 83
1, 1097409, Control_c, 0, 64, 127
1, 1097537, Note_off_c, 0, 88, 63
1, 1097584, Note_on_c, 0, 86, 78
1, 1097615, Note_off_c, 0, 86, 59
1, 1097621, Note_on_c, 0, 44, 68
1, 1097622, Note_on_c, 0, 87, 81
1, 1097630, Note_on_c, 0, 32, 63
1, 1097661, Note_off_c, 0, 87, 60
1, 1097673, Note_on_c, 0, 86, 82
1, 1097692, Note_off_c, 0, 32, 56
1, 1097713, Note_on_c, 0, 87, 89
1, 1097717, Note_off_c, 0, 86, 64
1, 1097747, Note_off_c, 0, 44, 55
1, 1097752, Note_on_c, 0, 86, 68
1, 1097756, Note_off_c, 0, 87, 65
1, 1097827, Note_off_c, 0, 86, 66
1, 1097833, Note_on_c, 0, 45, 102
1, 1097834, Note_on_c, 0, 33, 89
1, 1097868, Note_off_c, 0, 45, 64
1, 1097876, Note_off_c, 0, 33, 64
1, 1097912, Control_c, 0, 64, 89
1, 1097926, Control_c, 0, 64, 52
1, 1097941, Control_c, 0, 64, 0
1, 1097941, Control_c, 0, 67, 19
1, 1097956, Control_c, 0, 67, 28
1, 1097971, Control_c, 0, 67, 37
1, 1097986, Control_c, 0, 67, 48
1, 1098000, Control_c, 0, 67, 58
1, 1098015, Control_c, 0, 67, 65
1, 1098030, Control_c, 0, 67, 68
1, 1098052, Control_c, 0, 67, 71
1, 1098067, Control_c, 0, 67, 74
1, 1098082, Control_c, 0, 67, 77
1, 1098091, Note_on_c, 0, 42, 116
1, 1098097, Control_c, 0, 67, 79
1, 1098108, Note_on_c, 0, 33, 92
1, 1098111, Note_on_c, 0, 45, 87
1, 1098112, Control_c, 0, 64, 58
1, 1098112, Control_c, 0, 67, 82
1, 1098120, Note_off_c, 0, 42, 67
1, 1098128, Control_c, 0, 64, 77
1, 1098128, Control_c, 0, 67, 86
1, 1098143, Control_c, 0, 64, 127
1, 1098143, Control_c, 0, 67, 92
1, 1098144, Note_off_c, 0, 45, 65
1, 1098157, Control_c, 0, 67, 101
1, 1098172, Control_c, 0, 67, 107
1, 1098187, Control_c, 0, 67, 110
1, 1098321, Control_c, 0, 67, 107
1, 1098350, Control_c, 0, 67, 104
1, 1098374, Note_on_c, 0, 45, 74
1, 1098456, Note_off_c, 0, 45, 58
1, 1098617, Note_on_c, 0, 57, 79
1, 1098632, Note_on_c, 0, 32, 58
1, 1098632, Note_on_c, 0, 44, 63
1, 1098644, Note_off_c, 0, 33, 57
1, 1098673, Note_on_c, 0, 59, 70
1, 1098673, Note_off_c, 0, 57, 63
1, 1098692, Note_off_c, 0, 32, 56
1, 1098720, Note_on_c, 0, 61, 77
1, 1098733, Note_off_c, 0, 59, 63
1, 1098752, Note_on_c, 0, 63, 87
1, 1098757, Note_off_c, 0, 61, 66
1, 1098822, Note_on_c, 0, 64, 92
1, 1098822, Note_off_c, 0, 63, 67
1, 1098831, Control_c, 0, 64, 94
1, 1098837, Note_on_c, 0, 32, 87
1, 1098846, Control_c, 0, 64, 75
1, 1098860, Note_off_c, 0, 44, 65
1, 1098861, Control_c, 0, 64, 67
1, 1098876, Control_c, 0, 64, 69
1, 1098888, Note_off_c, 0, 32, 62
1, 1098891, Control_c, 0, 64, 78
1, 1098906, Control_c, 0, 64, 93
1, 1098921, Control_c, 0, 64, 115
1, 1098951, Control_c, 0, 64, 105
1, 1098966, Control_c, 0, 64, 97
1, 1098980, Control_c, 0, 64, 88
1, 1098995, Control_c, 0, 64, 79
1, 1099010, Control_c, 0, 64, 68
1, 1099025, Control_c, 0, 64, 57
1, 1099040, Control_c, 0, 64, 41
1, 1099055, Control_c, 0, 64, 39
1, 1099069, Note_on_c, 0, 63, 79
1, 1099070, Control_c, 0, 64, 53
1, 1099076, Note_on_c, 0, 44, 86
1, 1099079, Note_off_c, 0, 64, 61
1, 1099082, Note_on_c, 0, 32, 74
1, 1099085, Control_c, 0, 64, 65
1, 1099095, Note_off_c, 0, 63, 68
1, 1099099, Control_c, 0, 64, 75
1, 1099111, Note_off_c, 0, 32, 64
1, 1099114, Control_c, 0, 64, 88
1, 1099120, Note_off_c, 0, 44, 64
1, 1099129, Control_c, 0, 64, 100
1, 1099144, Control_c, 0, 64, 102
1, 1099188, Control_c, 0, 64, 100
1, 1099203, Control_c, 0, 64, 91
1, 1099218, Control_c, 0, 64, 76
1, 1099233, Control_c, 0, 64, 61
1, 1099247, Control_c, 0, 64, 0
1, 1099306, Control_c, 0, 64, 43
1, 1099306, Control_c, 0, 67, 102
1, 1099321, Control_c, 0, 64, 63
1, 1099326, Note_on_c, 0, 31, 65
1, 1099326, Note_on_c, 0, 43, 80
1, 1099336, Control_c, 0, 64, 77
1, 1099338, Note_on_c, 0, 69, 70
1, 1099351, Control_c, 0, 64, 87
1, 1099361, Note_off_c, 0, 31, 64
1, 1099364, Note_off_c, 0, 43, 63
1, 1099366, Control_c, 0, 64, 86
1, 1099379, Note_on_c, 0, 71, 76
1, 1099380, Control_c, 0, 64, 79
1, 1099382, Note_off_c, 0, 69, 62
1, 1099395, Control_c, 0, 64, 73
1, 1099410, Control_c, 0, 64, 68
1, 1099425, Control_c, 0, 64, 64
1, 1099426, Note_on_c, 0, 73, 81
1, 1099438, Note_off_c, 0, 71, 64
1, 1099440, Control_c, 0, 64, 60
1, 1099454, Control_c, 0, 64, 51
1, 1099463, Note_on_c, 0, 75, 79
1, 1099469, Control_c, 0, 64, 0
1, 1099473, Note_off_c, 0, 73, 65
1, 1099520, Note_on_c, 0, 76, 98
1, 1099523, Note_off_c, 0, 75, 69
1, 1099528, Note_on_c, 0, 43, 101
1, 1099535, Note_on_c, 0, 31, 86
1, 1099551, Control_c, 0, 64, 45
1, 1099566, Control_c, 0, 64, 66
1, 1099571, Note_off_c, 0, 31, 67
1, 1099580, Control_c, 0, 64, 83
1, 1099595, Control_c, 0, 64, 127
1, 1099767, Note_off_c, 0, 76, 58
1, 1099771, Note_on_c, 0, 75, 72
1, 1099784, Note_on_c, 0, 31, 65
1, 1099795, Note_off_c, 0, 75, 69
1, 1099833, Note_off_c, 0, 31, 55
1, 1099922, Control_c, 0, 64, 95
1, 1099937, Control_c, 0, 64, 61
1, 1099952, Control_c, 0, 64, 0
1, 1099974, Note_off_c, 0, 43, 37
1, 1100060, Note_on_c, 0, 33, 61
1, 1100106, Note_on_c, 0, 35, 66
1, 1100146, Note_on_c, 0, 37, 72
1, 1100178, Note_off_c, 0, 35, 62
1, 1100208, Note_on_c, 0, 38, 64
1, 1100208, Note_off_c, 0, 37, 62
1, 1100218, Control_c, 0, 64, 46
1, 1100218, Control_c, 0, 67, 99
1, 1100233, Note_on_c, 0, 66, 122
1, 1100233, Control_c, 0, 64, 82
1, 1100233, Control_c, 0, 67, 97
1, 1100237, Note_on_c, 0, 40, 82
1, 1100238, Note_off_c, 0, 38, 67
1, 1100247, Control_c, 0, 64, 127
1, 1100247, Control_c, 0, 67, 94
1, 1100262, Note_off_c, 0, 66, 71
1, 1100262, Control_c, 0, 67, 91
1, 1100277, Control_c, 0, 67, 83
1, 1100300, Control_c, 0, 67, 65
1, 1100315, Control_c, 0, 67, 44
1, 1100329, Control_c, 0, 67, 23
1, 1100344, Control_c, 0, 67, 0
1, 1100425, Note_off_c, 0, 33, 38
1, 1100475, Note_on_c, 0, 39, 70
1, 1100477, Note_off_c, 0, 40, 60
1, 1100510, Note_off_c, 0, 39, 64
1, 1100746, Note_on_c, 0, 43, 56
1, 1100765, Note_on_c, 0, 44, 73
1, 1100775, Control_c, 0, 64, 103
1, 1100790, Control_c, 0, 64, 75
1, 1100805, Control_c, 0, 64, 54
1, 1100809, Note_on_c, 0, 46, 73
1, 1100820, Control_c, 0, 64, 0
1, 1100830, Note_off_c, 0, 44, 64
1, 1100847, Note_on_c, 0, 48, 74
1, 1100858, Note_off_c, 0, 46, 64
1, 1100888, Note_off_c, 0, 43, 60
1, 1100929, Note_on_c, 0, 50, 85
1, 1100940, Note_on_c, 0, 53, 114
1, 1100951, Note_off_c, 0, 48, 61
1, 1100983, Control_c, 0, 64, 64
1, 1100998, Control_c, 0, 64, 127
1, 1101049, Control_c, 0, 67, 19
1, 1101079, Control_c, 0, 67, 22
1, 1101109, Control_c, 0, 64, 89
1, 1101124, Control_c, 0, 64, 65
1, 1101139, Control_c, 0, 64, 0
1, 1101186, Note_off_c, 0, 50, 61
1, 1101195, Note_on_c, 0, 65, 90
1, 1101198, Note_on_c, 0, 49, 72
1, 1101198, Control_c, 0, 64, 35
1, 1101201, Note_on_c, 0, 61, 82
1, 1101209, Note_on_c, 0, 55, 49
1, 1101213, Control_c, 0, 64, 65
1, 1101221, Note_off_c, 0, 49, 67
1, 1101221, Note_off_c, 0, 61, 69
1, 1101227, Control_c, 0, 64, 75
1, 1101235, Note_off_c, 0, 55, 56
1, 1101241, Note_off_c, 0, 65, 65
1, 1101242, Control_c, 0, 64, 70
1, 1101256, Control_c, 0, 64, 47
1, 1101270, Control_c, 0, 64, 0
1, 1101315, Control_c, 0, 67, 24
1, 1101440, Note_on_c, 0, 64, 80
1, 1101448, Note_on_c, 0, 60, 71
1, 1101452, Note_on_c, 0, 54, 65
1, 1101456, Note_on_c, 0, 31, 63
1, 1101464, Control_c, 0, 64, 50
1, 1101475, Note_off_c, 0, 60, 69
1, 1101479, Control_c, 0, 64, 53
1, 1101481, Note_off_c, 0, 54, 65
1, 1101491, Note_on_c, 0, 32, 64
1, 1101493, Note_off_c, 0, 64, 61
1, 1101493, Control_c, 0, 64, 0
1, 1101493, Control_c, 0, 67, 26
1, 1101539, Note_on_c, 0, 34, 67
1, 1101547, Note_off_c, 0, 31, 56
1, 1101553, Control_c, 0, 64, 46
1, 1101559, Note_off_c, 0, 32, 62
1, 1101568, Control_c, 0, 64, 62
1, 1101583, Control_c, 0, 64, 63
1, 1101584, Note_on_c, 0, 36, 73
1, 1101590, Note_off_c, 0, 34, 64
1, 1101627, Control_c, 0, 64, 64
1, 1101642, Control_c, 0, 64, 68
1, 1101646, Note_off_c, 0, 36, 63
1, 1101657, Control_c, 0, 64, 74
1, 1101672, Control_c, 0, 64, 80
1, 1101672, Control_c, 0, 67, 24
1, 1101679, Note_on_c, 0, 37, 95
1, 1101683, Note_on_c, 0, 64, 94
1, 1101686, Note_on_c, 0, 60, 85
1, 1101686, Control_c, 0, 64, 82
1, 1101687, Note_on_c, 0, 54, 88
1, 1101701, Control_c, 0, 64, 74
1, 1101708, Note_off_c, 0, 37, 67
1, 1101716, Control_c, 0, 64, 55
1, 1101716, Control_c, 0, 67, 22
1, 1101731, Control_c, 0, 64, 0
1, 1101797, Control_c, 0, 67, 24
1, 1101925, Note_on_c, 0, 44, 97
1, 1101931, Control_c, 0, 64, 33
1, 1101939, Note_on_c, 0, 32, 77
1, 1101946, Control_c, 0, 64, 39
1, 1101961, Control_c, 0, 64, 0
1, 1101967, Note_off_c, 0, 44, 67
1, 1101970, Note_off_c, 0, 32, 64
1, 1101979, Note_off_c, 0, 60, 56
1, 1102082, Note_off_c, 0, 64, 62
1, 1102101, Note_off_c, 0, 54, 61
1, 1102168, Note_on_c, 0, 65, 75
1, 1102170, Note_on_c, 0, 55, 62
1, 1102170, Note_on_c, 0, 61, 66
1, 1102173, Note_on_c, 0, 43, 88
1, 1102183, Note_on_c, 0, 31, 71
1, 1102198, Control_c, 0, 64, 47
1, 1102201, Note_off_c, 0, 43, 68
1, 1102209, Note_off_c, 0, 31, 63
1, 1102213, Control_c, 0, 64, 56
1, 1102228, Control_c, 0, 64, 37
1, 1102242, Control_c, 0, 64, 0
1, 1102242, Control_c, 0, 67, 26
1, 1102361, Control_c, 0, 67, 28
1, 1102363, Note_off_c, 0, 53, 51
1, 1102388, Note_off_c, 0, 55, 62
1, 1102419, Note_off_c, 0, 61, 63
1, 1102433, Note_on_c, 0, 43, 95
1, 1102435, Control_c, 0, 64, 57
1, 1102437, Note_off_c, 0, 65, 66
1, 1102448, Note_on_c, 0, 31, 72
1, 1102450, Control_c, 0, 64, 76
1, 1102465, Control_c, 0, 64, 94
1, 1102476, Note_off_c, 0, 31, 63
1, 1102480, Control_c, 0, 64, 127
1, 1102524, Control_c, 0, 67, 30
1, 1102576, Control_c, 0, 67, 32
1, 1102590, Control_c, 0, 64, 101
1, 1102590, Control_c, 0, 67, 32
1, 1102592, Note_on_c, 0, 73, 29
1, 1102605, Control_c, 0, 64, 87
1, 1102605, Control_c, 0, 67, 34
1, 1102620, Control_c, 0, 64, 76
1, 1102620, Control_c, 0, 67, 37
1, 1102632, Note_off_c, 0, 73, 54
1, 1102635, Control_c, 0, 64, 66
1, 1102635, Control_c, 0, 67, 40
1, 1102650, Control_c, 0, 64, 61
1, 1102650, Control_c, 0, 67, 44
1, 1102665, Control_c, 0, 64, 57
1, 1102665, Control_c, 0, 67, 46
1, 1102680, Control_c, 0, 64, 54
1, 1102680, Control_c, 0, 67, 48
1, 1102695, Note_on_c, 0, 71, 64
1, 1102695, Control_c, 0, 64, 47
1, 1102695, Control_c, 0, 67, 50
1, 1102709, Control_c, 0, 64, 0
1, 1102709, Control_c, 0, 67, 53
1, 1102715, Note_on_c, 0, 31, 39
1, 1102724, Control_c, 0, 67, 55
1, 1102736, Note_off_c, 0, 43, 60
1, 1102739, Control_c, 0, 67, 58
1, 1102741, Note_off_c, 0, 71, 64
1, 1102748, Note_on_c, 0, 72, 62
1, 1102754, Control_c, 0, 67, 62
1, 1102769, Control_c, 0, 67, 66
1, 1102784, Control_c, 0, 67, 71
1, 1102798, Control_c, 0, 67, 74
1, 1102800, Note_off_c, 0, 72, 62
1, 1102813, Control_c, 0, 67, 76
1, 1102820, Note_on_c, 0, 73, 60
1, 1102847, Note_off_c, 0, 73, 66
1, 1102847, Note_on_c, 0, 75, 66
1, 1102872, Control_c, 0, 67, 75
1, 1102879, Note_off_c, 0, 75, 64
1, 1102883, Note_off_c, 0, 31, 51
1, 1102887, Control_c, 0, 67, 74
1, 1102902, Note_on_c, 0, 32, 61
1, 1102902, Control_c, 0, 64, 61
1, 1102906, Note_on_c, 0, 44, 68
1, 1102908, Note_on_c, 0, 72, 78
1, 1102918, Control_c, 0, 64, 74
1, 1102933, Note_off_c, 0, 44, 66
1, 1102933, Control_c, 0, 64, 86
1, 1102934, Note_off_c, 0, 32, 63
1, 1102947, Note_on_c, 0, 73, 70
1, 1102947, Control_c, 0, 64, 93
1, 1102952, Note_off_c, 0, 72, 63
1, 1102962, Control_c, 0, 64, 95
1, 1103025, Note_off_c, 0, 73, 61
1, 1103026, Note_on_c, 0, 75, 69
1, 1103051, Control_c, 0, 67, 75
1, 1103058, Note_off_c, 0, 75, 63
1, 1103065, Control_c, 0, 67, 75
1, 1103071, Note_on_c, 0, 77, 63
1, 1103080, Control_c, 0, 64, 89
1, 1103095, Control_c, 0, 64, 78
1, 1103110, Control_c, 0, 64, 67
1, 1103124, Note_on_c, 0, 56, 60
1, 1103125, Control_c, 0, 64, 56
1, 1103139, Control_c, 0, 64, 49
1, 1103139, Control_c, 0, 67, 75
1, 1103142, Note_off_c, 0, 77, 60
1, 1103148, Note_on_c, 0, 73, 68
1, 1103154, Control_c, 0, 64, 55
1, 1103169, Control_c, 0, 64, 62
1, 1103169, Control_c, 0, 67, 74
1, 1103171, Note_off_c, 0, 56, 58
1, 1103178, Note_on_c, 0, 75, 64
1, 1103178, Note_off_c, 0, 73, 64
1, 1103181, Note_on_c, 0, 58, 60
1, 1103184, Control_c, 0, 64, 66
1, 1103199, Control_c, 0, 64, 67
1, 1103199, Control_c, 0, 67, 75
1, 1103213, Control_c, 0, 67, 75
1, 1103220, Note_off_c, 0, 75, 62
1, 1103228, Control_c, 0, 67, 76
1, 1103237, Note_off_c, 0, 58, 55
1, 1103241, Note_on_c, 0, 60, 53
1, 1103255, Note_on_c, 0, 77, 67
1, 1103258, Control_c, 0, 64, 66
1, 1103273, Control_c, 0, 64, 66
1, 1103279, Note_off_c, 0, 60, 67
1, 1103295, Control_c, 0, 64, 64
1, 1103297, Note_off_c, 0, 77, 63
1, 1103301, Note_on_c, 0, 61, 57
1, 1103310, Control_c, 0, 64, 62
1, 1103310, Control_c, 0, 67, 75
1, 1103311, Note_on_c, 0, 78, 64
1, 1103325, Control_c, 0, 64, 59
1, 1103325, Control_c, 0, 67, 75
1, 1103340, Control_c, 0, 64, 56
1, 1103349, Note_off_c, 0, 78, 64
1, 1103354, Note_off_c, 0, 61, 49
1, 1103362, Note_on_c, 0, 58, 61
1, 1103369, Control_c, 0, 64, 60
1, 1103384, Control_c, 0, 64, 64
1, 1103399, Control_c, 0, 64, 67
1, 1103401, Note_on_c, 0, 76, 40
1, 1103413, Control_c, 0, 64, 69
1, 1103423, Note_on_c, 0, 60, 59
1, 1103425, Note_off_c, 0, 58, 63
1, 1103428, Note_on_c, 0, 77, 67
1, 1103428, Control_c, 0, 67, 74
1, 1103433, Note_off_c, 0, 76, 47
1, 1103443, Control_c, 0, 64, 69
1, 1103443, Control_c, 0, 67, 74
1, 1103458, Control_c, 0, 64, 67
1, 1103473, Control_c, 0, 64, 65
1, 1103474, Note_off_c, 0, 60, 63
1, 1103479, Note_off_c, 0, 77, 62
1, 1103479, Note_on_c, 0, 78, 74
1, 1103481, Note_on_c, 0, 61, 55
1, 1103487, Control_c, 0, 64, 63
1, 1103503, Control_c, 0, 64, 58
1, 1103514, Note_off_c, 0, 61, 64
1, 1103518, Control_c, 0, 64, 52
1, 1103523, Note_off_c, 0, 78, 57
1, 1103523, Note_on_c, 0, 63, 59
1, 1103533, Control_c, 0, 64, 42
1, 1103542, Note_on_c, 0, 80, 79
1, 1103547, Control_c, 0, 64, 32
1, 1103547, Control_c, 0, 67, 72
1, 1103562, Control_c, 0, 64, 0
1, 1103562, Control_c, 0, 67, 70
1, 1103568, Note_off_c, 0, 63, 54
1, 1103577, Control_c, 0, 67, 68
1, 1103588, Note_off_c, 0, 80, 60
1, 1103592, Control_c, 0, 64, 37
1, 1103592, Control_c, 0, 67, 66
1, 1103595, Note_on_c, 0, 60, 61
1, 1103596, Note_on_c, 0, 77, 76
1, 1103607, Control_c, 0, 64, 49
1, 1103607, Control_c, 0, 67, 65
1, 1103622, Control_c, 0, 64, 59
1, 1103634, Note_on_c, 0, 78, 72
1, 1103635, Note_off_c, 0, 60, 64
1, 1103637, Control_c, 0, 64, 64
1, 1103642, Note_off_c, 0, 77, 61
1, 1103643, Note_on_c, 0, 61, 56
1, 1103651, Control_c, 0, 64, 66
1, 1103651, Control_c, 0, 67, 64
1, 1103666, Control_c, 0, 64, 67
1, 1103681, Control_c, 0, 64, 68
1, 1103692, Note_on_c, 0, 80, 78
1, 1103693, Note_on_c, 0, 63, 57
1, 1103695, Note_off_c, 0, 78, 64
1, 1103696, Control_c, 0, 64, 68
1, 1103696, Control_c, 0, 67, 64
1, 1103699, Note_off_c, 0, 61, 60
1, 1103711, Control_c, 0, 67, 63
1, 1103726, Control_c, 0, 64, 65
1, 1103726, Control_c, 0, 67, 62
1, 1103738, Note_on_c, 0, 65, 67
1, 1103741, Control_c, 0, 64, 58
1, 1103741, Control_c, 0, 67, 60
1, 1103742, Note_off_c, 0, 63, 63
1, 1103753, Note_on_c, 0, 82, 82
1, 1103755, Note_off_c, 0, 80, 66
1, 1103756, Control_c, 0, 64, 47
1, 1103756, Control_c, 0, 67, 58
1, 1103771, Control_c, 0, 64, 46
1, 1103771, Control_c, 0, 67, 52
1, 1103786, Control_c, 0, 64, 55
1, 1103786, Control_c, 0, 67, 46
1, 1103796, Note_on_c, 0, 78, 88
1, 1103797, Note_off_c, 0, 65, 53
1, 1103800, Control_c, 0, 64, 63
1, 1103800, Control_c, 0, 67, 39
1, 1103801, Note_off_c, 0, 82, 62
1, 1103805, Note_on_c, 0, 61, 79
1, 1103815, Control_c, 0, 64, 69
1, 1103815, Control_c, 0, 67, 31
1, 1103830, Control_c, 0, 64, 75
1, 1103830, Control_c, 0, 67, 24
1, 1103845, Control_c, 0, 64, 80
1, 1103845, Control_c, 0, 67, 0
1, 1103855, Note_off_c, 0, 78, 63
1, 1103856, Note_on_c, 0, 63, 68
1, 1103857, Note_on_c, 0, 80, 84
1, 1103857, Note_off_c, 0, 61, 60
1, 1103860, Control_c, 0, 64, 84
1, 1103875, Control_c, 0, 64, 87
1, 1103889, Control_c, 0, 64, 91
1, 1103892, Note_on_c, 0, 82, 72
1, 1103897, Note_off_c, 0, 80, 65
1, 1103899, Note_on_c, 0, 65, 73
1, 1103904, Control_c, 0, 64, 95
1, 1103907, Note_off_c, 0, 63, 56
1, 1103917, Note_off_c, 0, 82, 70
1, 1103919, Control_c, 0, 64, 97
1, 1103937, Note_on_c, 0, 84, 81
1, 1103949, Note_off_c, 0, 65, 63
1, 1103961, Note_on_c, 0, 66, 68
1, 1103963, Control_c, 0, 64, 87
1, 1103978, Note_off_c, 0, 84, 63
1, 1103978, Control_c, 0, 64, 69
1, 1103988, Note_on_c, 0, 80, 81
1, 1103992, Note_off_c, 0, 66, 63
1, 1103993, Control_c, 0, 64, 50
1, 1104008, Control_c, 0, 64, 0
1, 1104021, Note_on_c, 0, 64, 77
1, 1104021, Note_on_c, 0, 82, 86
1, 1104022, Control_c, 0, 64, 44
1, 1104041, Note_off_c, 0, 80, 64
1, 1104045, Control_c, 0, 64, 60
1, 1104060, Note_off_c, 0, 82, 62
1, 1104060, Control_c, 0, 64, 70
1, 1104075, Control_c, 0, 64, 82
1, 1104082, Note_on_c, 0, 84, 90
1, 1104084, Note_on_c, 0, 66, 79
1, 1104090, Note_off_c, 0, 64, 59
1, 1104090, Control_c, 0, 64, 100
1, 1104104, Control_c, 0, 64, 116
1, 1104119, Note_on_c, 0, 65, 66
1, 1104119, Control_c, 0, 64, 111
1, 1104134, Control_c, 0, 64, 84
1, 1104137, Note_off_c, 0, 65, 66
1, 1104149, Control_c, 0, 64, 67
1, 1104149, Note_on_c, 0, 85, 87
1, 1104150, Note_off_c, 0, 84, 63
1, 1104161, Note_off_c, 0, 66, 65
1, 1104164, Control_c, 0, 64, 56
1, 1104178, Control_c, 0, 64, 58
1, 1104183, Note_off_c, 0, 85, 67
1, 1104191, Note_on_c, 0, 82, 70
1, 1104192, Note_on_c, 0, 70, 58
1, 1104193, Control_c, 0, 64, 63
1, 1104197, Note_on_c, 0, 68, 55
1, 1104208, Control_c, 0, 64, 68
1, 1104209, Note_off_c, 0, 82, 67
1, 1104222, Note_off_c, 0, 70, 49
1, 1104222, Control_c, 0, 64, 73
1, 1104225, Note_off_c, 0, 68, 52
1, 1104229, Note_on_c, 0, 84, 88
1, 1104237, Control_c, 0, 64, 83
1, 1104252, Control_c, 0, 64, 104
1, 1104262, Note_on_c, 0, 66, 17
1, 1104262, Note_off_c, 0, 66, 127
1, 1104267, Control_c, 0, 64, 127
1, 1104271, Note_on_c, 0, 68, 88
1, 1104284, Note_on_c, 0, 85, 94
1, 1104290, Note_off_c, 0, 84, 61
1, 1104298, Note_on_c, 0, 70, 76
1, 1104321, Note_off_c, 0, 68, 66
1, 1104327, Note_on_c, 0, 87, 97
1, 1104330, Note_off_c, 0, 70, 65
1, 1104337, Note_off_c, 0, 85, 68
1, 1104362, Note_off_c, 0, 87, 66
1, 1104415, Control_c, 0, 64, 73
1, 1104420, Note_on_c, 0, 92, 109
1, 1104423, Note_on_c, 0, 73, 71
1, 1104426, Note_on_c, 0, 74, 83
1, 1104429, Control_c, 0, 64, 0
1, 1104441, Note_off_c, 0, 74, 43
1, 1104442, Note_off_c, 0, 73, 42
1, 1104474, Control_c, 0, 64, 51
1, 1104481, Note_on_c, 0, 90, 92
1, 1104489, Note_off_c, 0, 92, 65
1, 1104489, Control_c, 0, 64, 73
1, 1104504, Control_c, 0, 64, 96
1, 1104519, Note_off_c, 0, 90, 67
1, 1104519, Control_c, 0, 64, 127
1, 1104531, Note_on_c, 0, 89, 88
1, 1104549, Control_c, 0, 64, 98
1, 1104564, Control_c, 0, 64, 69
1, 1104579, Control_c, 0, 64, 38
1, 1104583, Note_off_c, 0, 89, 62
1, 1104584, Note_on_c, 0, 72, 82
1, 1104593, Note_on_c, 0, 87, 93
1, 1104593, Control_c, 0, 64, 0
1, 1104608, Control_c, 0, 64, 44
1, 1104623, Control_c, 0, 64, 67
1, 1104626, Note_off_c, 0, 72, 61
1, 1104638, Control_c, 0, 64, 82
1, 1104644, Note_on_c, 0, 70, 88
1, 1104649, Note_on_c, 0, 85, 82
1, 1104653, Control_c, 0, 64, 104
1, 1104668, Control_c, 0, 64, 118
1, 1104668, Note_off_c, 0, 87, 65
1, 1104671, Note_off_c, 0, 70, 68
1, 1104688, Note_off_c, 0, 85, 67
1, 1104703, Note_on_c, 0, 84, 86
1, 1104727, Control_c, 0, 64, 112
1, 1104742, Control_c, 0, 64, 93
1, 1104754, Note_off_c, 0, 84, 64
1, 1104757, Control_c, 0, 64, 75
1, 1104772, Control_c, 0, 64, 62
1, 1104775, Note_on_c, 0, 82, 72
1, 1104793, Control_c, 0, 64, 50
1, 1104808, Control_c, 0, 64, 48
1, 1104815, Note_on_c, 0, 80, 82
1, 1104822, Note_on_c, 0, 68, 70
1, 1104823, Control_c, 0, 64, 56
1, 1104838, Control_c, 0, 64, 69
1, 1104843, Note_off_c, 0, 68, 68
1, 1104853, Control_c, 0, 64, 84
1, 1104853, Note_off_c, 0, 82, 62
1, 1104857, Note_on_c, 0, 66, 79
1, 1104865, Note_on_c, 0, 78, 79
1, 1104868, Control_c, 0, 64, 116
1, 1104883, Control_c, 0, 64, 127
1, 1104887, Note_off_c, 0, 80, 66
1, 1104888, Note_off_c, 0, 66, 63
1, 1104904, Note_off_c, 0, 78, 67
1, 1104920, Note_on_c, 0, 77, 85
1, 1104925, Note_on_c, 0, 67, 81
1, 1104930, Note_on_c, 0, 65, 88
1, 1104957, Note_off_c, 0, 67, 65
1, 1104969, Note_on_c, 0, 75, 67
1, 1104969, Note_off_c, 0, 77, 65
1, 1104971, Note_off_c, 0, 65, 63
1, 1104987, Note_off_c, 0, 75, 66
1, 1104990, Note_on_c, 0, 74, 56
1, 1105014, Note_off_c, 0, 74, 62
1, 1105023, Note_on_c, 0, 63, 102
1, 1105046, Note_off_c, 0, 63, 69
1, 1105074, Note_on_c, 0, 68, 99
1, 1105090, Control_c, 0, 64, 97
1, 1105105, Control_c, 0, 64, 62
1, 1105119, Control_c, 0, 64, 0
1, 1105133, Note_on_c, 0, 66, 78
1, 1105134, Control_c, 0, 64, 33
1, 1105140, Note_off_c, 0, 68, 65
1, 1105149, Control_c, 0, 64, 59
1, 1105163, Control_c, 0, 64, 79
1, 1105168, Note_off_c, 0, 66, 65
1, 1105178, Control_c, 0, 64, 85
1, 1105180, Note_on_c, 0, 65, 86
1, 1105193, Control_c, 0, 64, 83
1, 1105208, Control_c, 0, 64, 69
1, 1105223, Control_c, 0, 64, 53
1, 1105234, Note_on_c, 0, 63, 87
1, 1105237, Control_c, 0, 64, 0
1, 1105239, Note_off_c, 0, 65, 66
1, 1105287, Note_on_c, 0, 61, 83
1, 1105291, Note_on_c, 0, 44, 106
1, 1105297, Note_on_c, 0, 32, 92
1, 1105308, Note_off_c, 0, 63, 64
1, 1105313, Control_c, 0, 64, 31
1, 1105328, Note_off_c, 0, 44, 69
1, 1105328, Control_c, 0, 64, 72
1, 1105330, Note_off_c, 0, 61, 65
1, 1105333, Note_off_c, 0, 32, 64
1, 1105339, Note_on_c, 0, 60, 88
1, 1105342, Control_c, 0, 64, 77
1, 1105357, Control_c, 0, 64, 65
1, 1105372, Control_c, 0, 64, 0
1, 1105408, Note_on_c, 0, 58, 85
1, 1105415, Note_off_c, 0, 60, 68
1, 1105447, Note_on_c, 0, 56, 79
1, 1105492, Note_off_c, 0, 58, 62
1, 1105500, Note_on_c, 0, 54, 84
1, 1105506, Control_c, 0, 64, 56
1, 1105520, Control_c, 0, 64, 80
1, 1105523, Note_on_c, 0, 43, 107
1, 1105523, Note_off_c, 0, 56, 63
1, 1105535, Note_on_c, 0, 31, 101
1, 1105542, Control_c, 0, 64, 75
1, 1105550, Note_off_c, 0, 54, 65
1, 1105557, Control_c, 0, 64, 60
1, 1105559, Note_off_c, 0, 31, 69
1, 1105561, Note_on_c, 0, 53, 83
1, 1105563, Note_off_c, 0, 43, 69
1, 1105572, Control_c, 0, 64, 0
1, 1105587, Control_c, 0, 64, 32
1, 1105602, Control_c, 0, 64, 56
1, 1105616, Control_c, 0, 64, 68
1, 1105618, Note_on_c, 0, 51, 90
1, 1105628, Note_off_c, 0, 53, 63
1, 1105631, Control_c, 0, 64, 72
1, 1105646, Control_c, 0, 64, 72
1, 1105661, Control_c, 0, 64, 68
1, 1105675, Control_c, 0, 64, 66
1, 1105678, Note_on_c, 0, 49, 78
1, 1105690, Control_c, 0, 64, 60
1, 1105701, Note_off_c, 0, 51, 63
1, 1105705, Control_c, 0, 64, 36
1, 1105720, Control_c, 0, 64, 0
1, 1105735, Note_off_c, 0, 49, 68
1, 1105767, Note_on_c, 0, 48, 91
1, 1105773, Note_on_c, 0, 43, 110
1, 1105777, Note_on_c, 0, 31, 95
1, 1105779, Control_c, 0, 64, 37
1, 1105793, Control_c, 0, 64, 62
1, 1105808, Control_c, 0, 64, 72
1, 1105823, Control_c, 0, 64, 95
1, 1105838, Control_c, 0, 64, 127
1, 1105841, Note_on_c, 0, 49, 86
1, 1105843, Note_off_c, 0, 48, 60
1, 1105880, Note_off_c, 0, 49, 62
1, 1105899, Note_on_c, 0, 48, 78
1, 1105916, Note_off_c, 0, 31, 60
1, 1105936, Note_on_c, 0, 49, 73
1, 1105942, Note_off_c, 0, 48, 66
1, 1105970, Note_off_c, 0, 49, 65
1, 1105971, Control_c, 0, 64, 87
1, 1105985, Control_c, 0, 64, 63
1, 1105999, Note_on_c, 0, 48, 81
1, 1106000, Control_c, 0, 64, 32
1, 1106015, Control_c, 0, 64, 0
1, 1106025, Note_on_c, 0, 31, 91
1, 1106030, Note_on_c, 0, 49, 83
1, 1106030, Control_c, 0, 64, 51
1, 1106045, Note_off_c, 0, 48, 65
1, 1106045, Control_c, 0, 64, 69
1, 1106060, Control_c, 0, 64, 95
1, 1106075, Control_c, 0, 64, 127
1, 1106082, Note_on_c, 0, 48, 77
1, 1106087, Note_off_c, 0, 49, 62
1, 1106119, Note_on_c, 0, 49, 76
1, 1106133, Note_off_c, 0, 43, 64
1, 1106134, Note_off_c, 0, 48, 65
1, 1106145, Note_off_c, 0, 49, 69
1, 1106209, Control_c, 0, 64, 79
1, 1106224, Control_c, 0, 64, 0
1, 1106236, Note_off_c, 0, 31, 63
1, 1106268, Note_on_c, 0, 44, 100
1, 1106288, Note_on_c, 0, 32, 72
1, 1106309, Note_off_c, 0, 32, 64
1, 1106510, Note_on_c, 0, 66, 121
1, 1106513, Control_c, 0, 64, 45
1, 1106528, Control_c, 0, 64, 85
1, 1106539, Note_off_c, 0, 66, 72
1, 1106543, Control_c, 0, 64, 127
1, 1106543, Note_off_c, 0, 44, 63
1, 1106568, Note_on_c, 0, 32, 27
1, 1106611, Note_off_c, 0, 32, 52
1, 1106759, Note_on_c, 0, 32, 77
1, 1106768, Note_on_c, 0, 44, 73
1, 1106799, Note_off_c, 0, 44, 65
1, 1106810, Note_off_c, 0, 32, 59
1, 1107011, Note_on_c, 0, 45, 85
1, 1107014, Note_on_c, 0, 33, 82
1, 1107046, Note_off_c, 0, 45, 67
1, 1107067, Note_off_c, 0, 33, 60
1, 1107187, Control_c, 0, 64, 78
1, 1107202, Control_c, 0, 64, 45
1, 1107217, Control_c, 0, 64, 0
1, 1107273, Note_on_c, 0, 53, 115
1, 1107288, Note_on_c, 0, 33, 88
1, 1107294, Note_on_c, 0, 45, 92
1, 1107306, Note_off_c, 0, 53, 70
1, 1107306, Control_c, 0, 64, 54
1, 1107321, Control_c, 0, 64, 127
1, 1107343, Note_off_c, 0, 45, 63
1, 1107549, Note_on_c, 0, 45, 77
1, 1107652, Note_off_c, 0, 45, 55
1, 1107786, Note_off_c, 0, 33, 49
1, 1107830, Note_on_c, 0, 32, 53
1, 1107840, Note_on_c, 0, 44, 52
1, 1107841, Note_on_c, 0, 69, 66
1, 1107886, Note_on_c, 0, 71, 70
1, 1107897, Note_off_c, 0, 69, 61
1, 1107903, Note_off_c, 0, 32, 55
1, 1107938, Note_on_c, 0, 73, 79
1, 1107957, Note_off_c, 0, 71, 64
1, 1107968, Note_on_c, 0, 75, 84
1, 1107980, Note_off_c, 0, 73, 66
1, 1108012, Note_off_c, 0, 75, 70
1, 1108015, Note_on_c, 0, 76, 107
1, 1108024, Note_on_c, 0, 32, 77
1, 1108052, Note_off_c, 0, 44, 63
1, 1108054, Control_c, 0, 64, 101
1, 1108065, Note_off_c, 0, 32, 62
1, 1108069, Control_c, 0, 64, 86
1, 1108084, Control_c, 0, 64, 82
1, 1108114, Control_c, 0, 64, 81
1, 1108129, Control_c, 0, 64, 78
1, 1108144, Control_c, 0, 64, 75
1, 1108159, Control_c, 0, 64, 71
1, 1108173, Control_c, 0, 64, 69
1, 1108188, Control_c, 0, 64, 68
1, 1108218, Control_c, 0, 64, 70
1, 1108233, Control_c, 0, 64, 73
1, 1108248, Control_c, 0, 64, 77
1, 1108262, Control_c, 0, 64, 80
1, 1108264, Note_on_c, 0, 75, 75
1, 1108264, Note_off_c, 0, 76, 60
1, 1108275, Note_on_c, 0, 44, 78
1, 1108277, Control_c, 0, 64, 82
1, 1108282, Note_on_c, 0, 32, 62
1, 1108287, Note_off_c, 0, 75, 68
1, 1108292, Control_c, 0, 64, 82
1, 1108308, Note_off_c, 0, 32, 65
1, 1108317, Note_off_c, 0, 44, 64
1, 1108351, Control_c, 0, 67, 19
1, 1108395, Control_c, 0, 64, 82
1, 1108410, Control_c, 0, 64, 79
1, 1108425, Control_c, 0, 64, 75
1, 1108440, Control_c, 0, 64, 69
1, 1108454, Control_c, 0, 64, 64
1, 1108469, Control_c, 0, 64, 58
1, 1108484, Control_c, 0, 64, 53
1, 1108499, Control_c, 0, 64, 54
1, 1108515, Control_c, 0, 64, 60
1, 1108536, Note_on_c, 0, 43, 71
1, 1108537, Note_on_c, 0, 57, 79
1, 1108537, Control_c, 0, 64, 65
1, 1108540, Note_on_c, 0, 31, 55
1, 1108552, Control_c, 0, 64, 69
1, 1108564, Note_off_c, 0, 43, 64
1, 1108567, Control_c, 0, 64, 72
1, 1108567, Control_c, 0, 67, 0
1, 1108576, Note_off_c, 0, 31, 59
1, 1108582, Control_c, 0, 64, 75
1, 1108587, Note_on_c, 0, 59, 76
1, 1108594, Note_off_c, 0, 57, 64
1, 1108597, Control_c, 0, 64, 77
1, 1108611, Control_c, 0, 64, 79
1, 1108626, Control_c, 0, 64, 82
1, 1108639, Note_on_c, 0, 61, 78
1, 1108641, Control_c, 0, 64, 85
1, 1108655, Note_off_c, 0, 59, 64
1, 1108656, Control_c, 0, 64, 86
1, 1108671, Note_on_c, 0, 63, 87
1, 1108678, Note_off_c, 0, 61, 64
1, 1108700, Control_c, 0, 64, 82
1, 1108715, Control_c, 0, 64, 70
1, 1108716, Note_off_c, 0, 63, 69
1, 1108722, Note_on_c, 0, 64, 96
1, 1108728, Note_on_c, 0, 43, 109
1, 1108730, Control_c, 0, 64, 60
1, 1108732, Note_on_c, 0, 31, 89
1, 1108744, Control_c, 0, 64, 52
1, 1108759, Control_c, 0, 64, 58
1, 1108774, Control_c, 0, 64, 67
1, 1108789, Control_c, 0, 64, 80
1, 1108804, Control_c, 0, 64, 126
1, 1108816, Note_off_c, 0, 31, 58
1, 1108979, Note_on_c, 0, 63, 77
1, 1108985, Note_off_c, 0, 64, 61
1, 1109001, Note_on_c, 0, 31, 62
1, 1109001, Note_off_c, 0, 63, 68
1, 1109034, Note_off_c, 0, 43, 63
1, 1109159, Control_c, 0, 64, 118
1, 1109174, Control_c, 0, 64, 84
1, 1109189, Control_c, 0, 64, 72
1, 1109203, Control_c, 0, 64, 73
1, 1109218, Control_c, 0, 64, 82
1, 1109229, Note_on_c, 0, 44, 75
1, 1109232, Note_on_c, 0, 32, 61
1, 1109233, Control_c, 0, 64, 101
1, 1109238, Note_on_c, 0, 81, 78
1, 1109248, Control_c, 0, 64, 127
1, 1109253, Note_off_c, 0, 31, 59
1, 1109262, Note_off_c, 0, 44, 66
1, 1109279, Note_off_c, 0, 32, 62
1, 1109300, Note_on_c, 0, 83, 85
1, 1109301, Note_off_c, 0, 81, 64
1, 1109347, Note_on_c, 0, 85, 88
1, 1109362, Note_off_c, 0, 83, 64
1, 1109379, Note_on_c, 0, 87, 91
1, 1109382, Note_off_c, 0, 85, 70
1, 1109428, Note_off_c, 0, 87, 71
1, 1109434, Control_c, 0, 64, 74
1, 1109440, Note_on_c, 0, 88, 96
1, 1109449, Control_c, 0, 64, 38
1, 1109459, Note_on_c, 0, 53, 112
1, 1109464, Control_c, 0, 64, 0
1, 1109506, Note_off_c, 0, 53, 70
1, 1109508, Control_c, 0, 64, 64
1, 1109523, Control_c, 0, 64, 104
1, 1109538, Control_c, 0, 64, 127
1, 1109607, Poly_aftertouch_c, 0, 87, 127
1, 1109638, Poly_aftertouch_c, 0, 87, 0
1, 1109652, Note_off_c, 0, 88, 66
1, 1109668, Note_on_c, 0, 86, 70
1, 1109700, Note_off_c, 0, 86, 63
1, 1109710, Note_on_c, 0, 87, 79
1, 1109735, Note_on_c, 0, 44, 74
1, 1109744, Note_on_c, 0, 32, 66
1, 1109746, Note_off_c, 0, 87, 62
1, 1109757, Note_on_c, 0, 86, 86
1, 1109799, Note_on_c, 0, 87, 79
1, 1109804, Note_off_c, 0, 86, 65
1, 1109830, Note_off_c, 0, 87, 55
1, 1109834, Note_off_c, 0, 44, 62
1, 1109845, Note_on_c, 0, 86, 82
1, 1109880, Note_on_c, 0, 87, 91
1, 1109892, Note_off_c, 0, 86, 66
1, 1109892, Note_off_c, 0, 87, 72
1, 1109894, Note_on_c, 0, 88, 92
1, 1109911, Note_off_c, 0, 88, 73
1, 1109914, Note_on_c, 0, 45, 96
1, 1109926, Note_on_c, 0, 33, 82
1, 1109952, Note_off_c, 0, 45, 66
1, 1109960, Note_off_c, 0, 33, 65
1, 1109977, Note_off_c, 0, 32, 24
1, 1110012, Control_c, 0, 64, 103
1, 1110034, Control_c, 0, 64, 57
1, 1110048, Control_c, 0, 64, 0
1, 1110211, Note_on_c, 0, 33, 87
1, 1110211, Note_on_c, 0, 40, 106
1, 1110212, Control_c, 0, 64, 43
1, 1110216, Note_on_c, 0, 37, 89
1, 1110227, Control_c, 0, 64, 69
1, 1110240, Note_off_c, 0, 40, 68
1, 1110242, Control_c, 0, 64, 84
1, 1110257, Control_c, 0, 64, 127
1, 1110317, Note_off_c, 0, 37, 61
1, 1110470, Note_on_c, 0, 37, 70
1, 1110708, Note_on_c, 0, 32, 52
1, 1110722, Poly_aftertouch_c, 0, 58, 127
1, 1110730, Note_on_c, 0, 57, 83
1, 1110761, Poly_aftertouch_c, 0, 58, 0
1, 1110764, Note_off_c, 0, 33, 60
1, 1110789, Note_on_c, 0, 59, 79
1, 1110795, Note_off_c, 0, 57, 64
1, 1110803, Note_off_c, 0, 32, 56
1, 1110842, Note_on_c, 0, 61, 79
1, 1110861, Note_off_c, 0, 59, 63
1, 1110872, Note_on_c, 0, 63, 86
1, 1110884, Note_off_c, 0, 61, 64
1, 1110925, Note_on_c, 0, 32, 87
1, 1110926, Note_off_c, 0, 63, 68
1, 1110929, Note_on_c, 0, 64, 96
1, 1110939, Note_off_c, 0, 37, 63
1, 1110965, Note_off_c, 0, 32, 62
1, 1111080, Control_c, 0, 64, 94
1, 1111095, Control_c, 0, 64, 73
1, 1111110, Control_c, 0, 64, 56
1, 1111125, Control_c, 0, 64, 36
1, 1111139, Control_c, 0, 64, 0
1, 1111154, Control_c, 0, 64, 32
1, 1111166, Note_on_c, 0, 44, 95
1, 1111169, Control_c, 0, 64, 53
1, 1111172, Note_on_c, 0, 63, 79
1, 1111173, Note_on_c, 0, 32, 90
1, 1111184, Control_c, 0, 64, 68
1, 1111187, Note_off_c, 0, 64, 60
1, 1111191, Note_off_c, 0, 44, 71
1, 1111199, Note_off_c, 0, 32, 65
1, 1111199, Control_c, 0, 64, 87
1, 1111203, Note_off_c, 0, 63, 66
1, 1111214, Control_c, 0, 64, 102
1, 1111229, Control_c, 0, 64, 88
1, 1111244, Control_c, 0, 64, 67
1, 1111259, Control_c, 0, 64, 44
1, 1111273, Control_c, 0, 64, 0
1, 1111377, Control_c, 0, 64, 60
1, 1111392, Control_c, 0, 64, 76
1, 1111406, Control_c, 0, 64, 101
1, 1111408, Note_on_c, 0, 43, 96
1, 1111417, Note_on_c, 0, 31, 79
1, 1111421, Control_c, 0, 64, 115
1, 1111425, Note_on_c, 0, 69, 77
1, 1111436, Control_c, 0, 64, 107
1, 1111445, Note_off_c, 0, 31, 65
1, 1111449, Note_off_c, 0, 43, 62
1, 1111451, Control_c, 0, 64, 100
1, 1111466, Control_c, 0, 64, 96
1, 1111477, Note_off_c, 0, 69, 62
1, 1111479, Note_on_c, 0, 71, 76
1, 1111480, Control_c, 0, 64, 93
1, 1111495, Control_c, 0, 64, 84
1, 1111510, Control_c, 0, 64, 68
1, 1111530, Note_on_c, 0, 73, 78
1, 1111532, Control_c, 0, 64, 51
1, 1111547, Control_c, 0, 64, 0
1, 1111551, Note_off_c, 0, 71, 63
1, 1111591, Note_on_c, 0, 75, 68
1, 1111601, Note_off_c, 0, 73, 64
1, 1111645, Note_off_c, 0, 75, 69
1, 1111650, Note_on_c, 0, 76, 87
1, 1111652, Note_on_c, 0, 43, 102
1, 1111665, Note_on_c, 0, 31, 87
1, 1111666, Control_c, 0, 64, 64
1, 1111676, Note_off_c, 0, 76, 65
1, 1111680, Control_c, 0, 64, 87
1, 1111695, Control_c, 0, 64, 127
1, 1111698, Note_off_c, 0, 31, 61
1, 1111754, Control_c, 0, 64, 111
1, 1111769, Control_c, 0, 64, 97
1, 1111784, Control_c, 0, 64, 80
1, 1111799, Control_c, 0, 64, 63
1, 1111808, Poly_aftertouch_c, 0, 31, 0
1, 1111814, Control_c, 0, 64, 0
1, 1111873, Control_c, 0, 64, 50
1, 1111885, Note_on_c, 0, 68, 99
1, 1111885, Note_on_c, 0, 80, 103
1, 1111888, Note_on_c, 0, 73, 91
1, 1111888, Control_c, 0, 64, 76
1, 1111900, Note_on_c, 0, 31, 75
1, 1111903, Control_c, 0, 64, 127
1, 1111910, Note_off_c, 0, 73, 68
1, 1111917, Note_off_c, 0, 68, 64
1, 1111921, Note_off_c, 0, 80, 71
1, 1111944, Note_off_c, 0, 43, 61
1, 1111947, Control_c, 0, 64, 89
1, 1111962, Control_c, 0, 64, 67
1, 1111977, Control_c, 0, 64, 41
1, 1111992, Control_c, 0, 64, 0
1, 1112126, Note_on_c, 0, 79, 105
1, 1112129, Note_on_c, 0, 69, 99
1, 1112132, Note_on_c, 0, 72, 91
1, 1112135, Note_on_c, 0, 44, 90
1, 1112136, Note_on_c, 0, 32, 73
1, 1112140, Control_c, 0, 64, 33
1, 1112147, Note_off_c, 0, 72, 73
1, 1112154, Control_c, 0, 64, 75
1, 1112155, Note_off_c, 0, 69, 67
1, 1112160, Note_off_c, 0, 79, 71
1, 1112162, Note_off_c, 0, 31, 62
1, 1112164, Note_off_c, 0, 44, 68
1, 1112167, Note_off_c, 0, 32, 65
1, 1112169, Control_c, 0, 64, 127
1, 1112243, Control_c, 0, 64, 86
1, 1112258, Control_c, 0, 64, 58
1, 1112281, Control_c, 0, 64, 0
1, 1112381, Note_on_c, 0, 64, 111
1, 1112387, Note_on_c, 0, 79, 105
1, 1112390, Note_on_c, 0, 69, 97
1, 1112393, Note_on_c, 0, 72, 91
1, 1112414, Control_c, 0, 64, 59
1, 1112418, Note_off_c, 0, 64, 73
1, 1112419, Note_off_c, 0, 72, 64
1, 1112428, Control_c, 0, 64, 76
1, 1112431, Note_off_c, 0, 69, 65
1, 1112434, Note_off_c, 0, 79, 62
1, 1112443, Control_c, 0, 64, 96
1, 1112458, Control_c, 0, 64, 127
1, 1112480, Note_on_c, 0, 79, 66
1, 1112509, Note_off_c, 0, 79, 68
1, 1112630, Note_on_c, 0, 44, 80
1, 1112643, Note_on_c, 0, 32, 68
1, 1112721, Note_off_c, 0, 44, 56
1, 1112739, Note_off_c, 0, 32, 35
1, 1112850, Note_on_c, 0, 80, 94
1, 1112851, Note_on_c, 0, 68, 95
1, 1112857, Note_on_c, 0, 73, 81
1, 1112864, Note_on_c, 0, 33, 74
1, 1112867, Note_on_c, 0, 45, 71
1, 1112874, Note_off_c, 0, 68, 66
1, 1112877, Note_off_c, 0, 73, 71
1, 1112886, Note_off_c, 0, 80, 63
1, 1112896, Note_off_c, 0, 45, 64
1, 1112902, Note_off_c, 0, 33, 64
1, 1112948, Control_c, 0, 67, 21
1, 1112963, Control_c, 0, 67, 24
1, 1112977, Control_c, 0, 67, 28
1, 1112992, Control_c, 0, 64, 89
1, 1112992, Control_c, 0, 67, 36
1, 1113007, Control_c, 0, 64, 59
1, 1113007, Control_c, 0, 67, 43
1, 1113029, Control_c, 0, 64, 0
1, 1113029, Control_c, 0, 67, 51
1, 1113044, Control_c, 0, 67, 56
1, 1113059, Control_c, 0, 67, 57
1, 1113089, Control_c, 0, 67, 58
1, 1113130, Note_on_c, 0, 51, 112
1, 1113148, Control_c, 0, 64, 36
1, 1113148, Control_c, 0, 67, 59
1, 1113152, Note_on_c, 0, 33, 86
1, 1113155, Note_off_c, 0, 51, 72
1, 1113155, Note_on_c, 0, 45, 84
1, 1113163, Control_c, 0, 64, 68
1, 1113163, Control_c, 0, 67, 60
1, 1113177, Control_c, 0, 64, 90
1, 1113177, Control_c, 0, 67, 63
1, 1113187, Note_off_c, 0, 45, 64
1, 1113192, Control_c, 0, 64, 127
1, 1113192, Control_c, 0, 67, 67
1, 1113207, Control_c, 0, 67, 73
1, 1113222, Control_c, 0, 67, 76
1, 1113238, Control_c, 0, 67, 77
1, 1113267, Control_c, 0, 67, 78
1, 1113282, Control_c, 0, 67, 77
1, 1113313, Control_c, 0, 67, 76
1, 1113327, Control_c, 0, 67, 76
1, 1113342, Control_c, 0, 67, 74
1, 1113357, Control_c, 0, 67, 73
1, 1113372, Control_c, 0, 67, 72
1, 1113387, Control_c, 0, 67, 72
1, 1113401, Control_c, 0, 67, 70
1, 1113411, Note_on_c, 0, 45, 68
1, 1113416, Control_c, 0, 67, 69
1, 1113431, Control_c, 0, 67, 69
1, 1113474, Note_off_c, 0, 45, 59
1, 1113594, Control_c, 0, 67, 69
1, 1113623, Control_c, 0, 67, 70
1, 1113639, Note_off_c, 0, 33, 53
1, 1113661, Note_on_c, 0, 44, 60
1, 1113663, Note_on_c, 0, 32, 49
1, 1113682, Note_on_c, 0, 81, 75
1, 1113682, Control_c, 0, 67, 70
1, 1113697, Control_c, 0, 67, 71
1, 1113719, Note_off_c, 0, 32, 59
1, 1113733, Note_off_c, 0, 81, 62
1, 1113734, Note_on_c, 0, 83, 76
1, 1113742, Control_c, 0, 67, 71
1, 1113757, Control_c, 0, 67, 72
1, 1113786, Note_on_c, 0, 85, 84
1, 1113804, Note_off_c, 0, 83, 64
1, 1113825, Note_on_c, 0, 87, 90
1, 1113836, Note_off_c, 0, 85, 67
1, 1113864, Note_on_c, 0, 32, 87
1, 1113870, Note_on_c, 0, 88, 100
1, 1113875, Note_off_c, 0, 87, 68
1, 1113888, Note_off_c, 0, 44, 63
1, 1113906, Note_off_c, 0, 32, 62
1, 1113927, Control_c, 0, 67, 73
1, 1113941, Control_c, 0, 67, 74
1, 1113956, Control_c, 0, 67, 75
1, 1113971, Control_c, 0, 67, 75
1, 1113986, Control_c, 0, 67, 76
1, 1114001, Control_c, 0, 67, 76
1, 1114016, Control_c, 0, 64, 111
1, 1114016, Control_c, 0, 67, 77
1, 1114031, Control_c, 0, 64, 104
1, 1114045, Control_c, 0, 64, 98
1, 1114045, Control_c, 0, 67, 77
1, 1114060, Control_c, 0, 64, 92
1, 1114060, Control_c, 0, 67, 78
1, 1114075, Control_c, 0, 64, 83
1, 1114090, Control_c, 0, 64, 74
1, 1114105, Control_c, 0, 64, 67
1, 1114116, Note_on_c, 0, 44, 72
1, 1114116, Note_on_c, 0, 87, 83
1, 1114120, Control_c, 0, 64, 64
1, 1114124, Note_off_c, 0, 88, 63
1, 1114127, Note_on_c, 0, 32, 63
1, 1114135, Control_c, 0, 64, 66
1, 1114135, Control_c, 0, 67, 80
1, 1114136, Note_off_c, 0, 87, 70
1, 1114150, Control_c, 0, 64, 67
1, 1114150, Control_c, 0, 67, 89
1, 1114156, Note_off_c, 0, 44, 65
1, 1114159, Note_off_c, 0, 32, 63
1, 1114165, Control_c, 0, 67, 102
1, 1114180, Control_c, 0, 64, 65
1, 1114180, Control_c, 0, 67, 113
1, 1114195, Control_c, 0, 64, 63
1, 1114195, Control_c, 0, 67, 123
1, 1114210, Control_c, 0, 64, 61
1, 1114210, Control_c, 0, 67, 127
1, 1114224, Control_c, 0, 64, 61
1, 1114239, Control_c, 0, 64, 60
1, 1114254, Control_c, 0, 64, 59
1, 1114269, Control_c, 0, 64, 57
1, 1114284, Control_c, 0, 64, 56
1, 1114298, Control_c, 0, 64, 54
1, 1114313, Control_c, 0, 64, 53
1, 1114328, Control_c, 0, 64, 55
1, 1114343, Control_c, 0, 64, 58
1, 1114357, Control_c, 0, 64, 62
1, 1114372, Note_on_c, 0, 43, 71
1, 1114372, Control_c, 0, 64, 66
1, 1114379, Note_on_c, 0, 31, 54
1, 1114384, Note_on_c, 0, 69, 66
1, 1114387, Control_c, 0, 64, 69
1, 1114402, Note_off_c, 0, 43, 67
1, 1114402, Control_c, 0, 64, 68
1, 1114409, Note_off_c, 0, 31, 58
1, 1114417, Control_c, 0, 64, 65
1, 1114428, Note_off_c, 0, 69, 60
1, 1114430, Note_on_c, 0, 71, 72
1, 1114431, Control_c, 0, 64, 63
1, 1114446, Control_c, 0, 64, 61
1, 1114461, Control_c, 0, 64, 60
1, 1114475, Control_c, 0, 64, 57
1, 1114481, Note_on_c, 0, 73, 68
1, 1114490, Control_c, 0, 64, 53
1, 1114501, Note_off_c, 0, 71, 62
1, 1114505, Control_c, 0, 64, 47
1, 1114528, Control_c, 0, 64, 36
1, 1114542, Note_on_c, 0, 75, 69
1, 1114542, Note_off_c, 0, 73, 65
1, 1114543, Control_c, 0, 64, 0
1, 1114584, Note_on_c, 0, 31, 82
1, 1114584, Note_on_c, 0, 43, 98
1, 1114587, Note_off_c, 0, 75, 68
1, 1114588, Note_on_c, 0, 76, 96
1, 1114602, Control_c, 0, 64, 60
1, 1114617, Control_c, 0, 64, 76
1, 1114631, Note_off_c, 0, 31, 62
1, 1114631, Control_c, 0, 64, 109
1, 1114631, Control_c, 0, 67, 124
1, 1114646, Control_c, 0, 64, 127
1, 1114646, Control_c, 0, 67, 119
1, 1114661, Control_c, 0, 67, 113
1, 1114675, Control_c, 0, 67, 104
1, 1114690, Control_c, 0, 67, 98
1, 1114705, Control_c, 0, 67, 93
1, 1114720, Control_c, 0, 67, 90
1, 1114735, Control_c, 0, 67, 89
1, 1114749, Control_c, 0, 67, 89
1, 1114839, Note_on_c, 0, 75, 68
1, 1114844, Note_off_c, 0, 76, 61
1, 1114848, Note_off_c, 0, 43, 62
1, 1114854, Note_on_c, 0, 31, 24
1, 1114854, Control_c, 0, 67, 89
1, 1114863, Note_off_c, 0, 75, 67
1, 1114874, Note_off_c, 0, 31, 60
1, 1114883, Control_c, 0, 67, 90
1, 1114898, Control_c, 0, 67, 91
1, 1114913, Control_c, 0, 67, 92
1, 1114928, Control_c, 0, 67, 92
1, 1114943, Control_c, 0, 67, 93
1, 1114958, Control_c, 0, 67, 93
1, 1114988, Control_c, 0, 67, 94
1, 1115003, Control_c, 0, 64, 100
1, 1115018, Control_c, 0, 64, 78
1, 1115018, Control_c, 0, 67, 95
1, 1115032, Control_c, 0, 64, 59
1, 1115032, Control_c, 0, 67, 95
1, 1115047, Control_c, 0, 64, 0
1, 1115077, Control_c, 0, 67, 96
1, 1115108, Note_on_c, 0, 49, 69
1, 1115151, Control_c, 0, 67, 95
1, 1115173, Note_on_c, 0, 51, 56
1, 1115179, Note_off_c, 0, 49, 63
1, 1115180, Control_c, 0, 64, 41
1, 1115191, Note_on_c, 0, 53, 71
1, 1115195, Control_c, 0, 64, 53
1, 1115201, Note_off_c, 0, 51, 64
1, 1115210, Control_c, 0, 64, 54
1, 1115225, Control_c, 0, 64, 57
1, 1115225, Control_c, 0, 67, 95
1, 1115226, Note_off_c, 0, 53, 64
1, 1115240, Control_c, 0, 64, 60
1, 1115240, Control_c, 0, 67, 94
1, 1115254, Control_c, 0, 64, 61
1, 1115255, Note_on_c, 0, 54, 81
1, 1115277, Control_c, 0, 64, 62
1, 1115277, Control_c, 0, 67, 94
1, 1115292, Control_c, 0, 64, 63
1, 1115292, Control_c, 0, 67, 93
1, 1115295, Note_on_c, 0, 63, 108
1, 1115306, Control_c, 0, 64, 66
1, 1115306, Control_c, 0, 67, 92
1, 1115321, Control_c, 0, 64, 70
1, 1115324, Note_off_c, 0, 63, 71
1, 1115326, Note_on_c, 0, 55, 78
1, 1115331, Note_off_c, 0, 54, 64
1, 1115336, Control_c, 0, 64, 77
1, 1115351, Control_c, 0, 64, 84
1, 1115366, Control_c, 0, 64, 93
1, 1115380, Control_c, 0, 64, 105
1, 1115395, Control_c, 0, 64, 127
1, 1115454, Control_c, 0, 67, 93
1, 1115469, Control_c, 0, 67, 93
1, 1115498, Control_c, 0, 67, 94
1, 1115528, Control_c, 0, 67, 94
1, 1115548, Note_on_c, 0, 54, 71
1, 1115549, Note_off_c, 0, 55, 61
1, 1115572, Note_off_c, 0, 54, 70
1, 1115632, Control_c, 0, 67, 95
1, 1115647, Control_c, 0, 67, 95
1, 1115751, Control_c, 0, 67, 96
1, 1115808, Note_on_c, 0, 31, 65
1, 1115808, Note_on_c, 0, 43, 62
1, 1115860, Note_off_c, 0, 43, 62
1, 1115988, Control_c, 0, 64, 116
1, 1115988, Control_c, 0, 67, 95
1, 1116003, Control_c, 0, 64, 77
1, 1116003, Control_c, 0, 67, 95
1, 1116025, Control_c, 0, 64, 55
1, 1116025, Control_c, 0, 67, 94
1, 1116040, Control_c, 0, 64, 0
1, 1116048, Note_on_c, 0, 44, 74
1, 1116051, Note_on_c, 0, 50, 110
1, 1116052, Note_on_c, 0, 32, 73
1, 1116055, Control_c, 0, 67, 93
1, 1116061, Note_off_c, 0, 31, 41
1, 1116070, Control_c, 0, 64, 34
1, 1116070, Control_c, 0, 67, 92
1, 1116078, Note_off_c, 0, 44, 69
1, 1116085, Control_c, 0, 64, 58
1, 1116085, Control_c, 0, 67, 92
1, 1116088, Note_off_c, 0, 32, 64
1, 1116100, Control_c, 0, 64, 72
1, 1116100, Control_c, 0, 67, 91
1, 1116115, Control_c, 0, 64, 82
1, 1116115, Control_c, 0, 67, 90
1, 1116129, Control_c, 0, 64, 92
1, 1116144, Control_c, 0, 64, 95
1, 1116144, Control_c, 0, 67, 91
1, 1116159, Control_c, 0, 67, 92
1, 1116174, Control_c, 0, 67, 93
1, 1116189, Control_c, 0, 67, 94
1, 1116203, Control_c, 0, 67, 94
1, 1116218, Control_c, 0, 67, 95
1, 1116233, Control_c, 0, 67, 96
1, 1116247, Control_c, 0, 64, 96
1, 1116262, Control_c, 0, 64, 92
1, 1116277, Control_c, 0, 64, 85
1, 1116292, Control_c, 0, 64, 73
1, 1116298, Note_on_c, 0, 44, 79
1, 1116301, Note_on_c, 0, 32, 74
1, 1116307, Control_c, 0, 64, 63
1, 1116307, Control_c, 0, 67, 95
1, 1116321, Control_c, 0, 64, 50
1, 1116321, Control_c, 0, 67, 95
1, 1116322, Note_off_c, 0, 32, 65
1, 1116333, Note_off_c, 0, 44, 63
1, 1116336, Control_c, 0, 64, 34
1, 1116351, Control_c, 0, 64, 0
1, 1116381, Control_c, 0, 67, 96
1, 1116425, Control_c, 0, 67, 98
1, 1116515, Control_c, 0, 67, 96
1, 1116541, Note_on_c, 0, 43, 80
1, 1116544, Control_c, 0, 64, 39
1, 1116550, Note_on_c, 0, 31, 65
1, 1116559, Control_c, 0, 64, 47
1, 1116574, Control_c, 0, 64, 52
1, 1116586, Note_off_c, 0, 31, 64
1, 1116589, Control_c, 0, 64, 55
1, 1116591, Note_off_c, 0, 43, 61
1, 1116604, Control_c, 0, 64, 57
1, 1116618, Control_c, 0, 64, 58
1, 1116633, Control_c, 0, 64, 59
1, 1116648, Control_c, 0, 64, 59
1, 1116678, Control_c, 0, 64, 59
1, 1116693, Control_c, 0, 64, 56
1, 1116708, Control_c, 0, 64, 51
1, 1116723, Control_c, 0, 64, 45
1, 1116737, Control_c, 0, 64, 42
1, 1116752, Control_c, 0, 64, 43
1, 1116774, Control_c, 0, 64, 46
1, 1116774, Control_c, 0, 67, 96
1, 1116789, Control_c, 0, 64, 52
1, 1116789, Control_c, 0, 67, 95
1, 1116804, Control_c, 0, 64, 57
1, 1116806, Note_on_c, 0, 43, 79
1, 1116818, Control_c, 0, 64, 62
1, 1116819, Note_on_c, 0, 31, 57
1, 1116833, Control_c, 0, 64, 67
1, 1116848, Control_c, 0, 64, 72
1, 1116861, Note_off_c, 0, 31, 60
1, 1116863, Control_c, 0, 64, 78
1, 1116878, Control_c, 0, 64, 84
1, 1116893, Control_c, 0, 64, 89
1, 1116907, Control_c, 0, 64, 91
1, 1116922, Control_c, 0, 64, 92
1, 1116952, Control_c, 0, 64, 93
1, 1116967, Control_c, 0, 67, 97
1, 1116997, Control_c, 0, 64, 92
1, 1117012, Control_c, 0, 64, 88
1, 1117026, Control_c, 0, 64, 82
1, 1117041, Control_c, 0, 64, 77
1, 1117056, Control_c, 0, 64, 76
1, 1117065, Note_on_c, 0, 31, 56
1, 1117085, Control_c, 0, 64, 78
1, 1117100, Control_c, 0, 64, 79
1, 1117110, Note_off_c, 0, 43, 61
1, 1117115, Control_c, 0, 64, 81
1, 1117130, Control_c, 0, 64, 82
1, 1117144, Control_c, 0, 64, 83
1, 1117159, Control_c, 0, 64, 84
1, 1117174, Control_c, 0, 67, 99
1, 1117248, Control_c, 0, 64, 83
1, 1117263, Control_c, 0, 64, 78
1, 1117265, Note_off_c, 0, 31, 38
1, 1117277, Control_c, 0, 64, 69
1, 1117286, Note_on_c, 0, 44, 65
1, 1117293, Control_c, 0, 64, 58
1, 1117300, Note_on_c, 0, 32, 50
1, 1117308, Control_c, 0, 64, 45
1, 1117323, Control_c, 0, 64, 42
1, 1117338, Control_c, 0, 64, 49
1, 1117353, Control_c, 0, 64, 58
1, 1117364, Note_off_c, 0, 32, 53
1, 1117367, Control_c, 0, 64, 63
1, 1117382, Control_c, 0, 64, 68
1, 1117397, Control_c, 0, 64, 71
1, 1117397, Control_c, 0, 67, 101
1, 1117412, Control_c, 0, 64, 73
1, 1117427, Control_c, 0, 64, 74
1, 1117441, Control_c, 0, 64, 75
1, 1117534, Note_on_c, 0, 32, 52
1, 1117538, Control_c, 0, 64, 74
1, 1117553, Control_c, 0, 64, 72
1, 1117567, Control_c, 0, 64, 70
1, 1117575, Note_off_c, 0, 32, 59
1, 1117582, Control_c, 0, 64, 69
1, 1117587, Note_off_c, 0, 44, 60
1, 1117597, Control_c, 0, 64, 68
1, 1117671, Control_c, 0, 64, 69
1, 1117686, Control_c, 0, 64, 69
1, 1117700, Control_c, 0, 64, 70
1, 1117745, Control_c, 0, 64, 67
1, 1117760, Control_c, 0, 64, 61
1, 1117763, Note_on_c, 0, 56, 85
1, 1117769, Note_on_c, 0, 47, 73
1, 1117770, Note_on_c, 0, 32, 76
1, 1117770, Note_on_c, 0, 51, 75
1, 1117771, Note_on_c, 0, 44, 72
1, 1117775, Control_c, 0, 64, 48
1, 1117775, Control_c, 0, 67, 98
1, 1117790, Control_c, 0, 64, 0
1, 1117790, Control_c, 0, 67, 96
1, 1117801, Note_off_c, 0, 47, 67
1, 1117805, Control_c, 0, 67, 95
1, 1117818, Note_off_c, 0, 44, 64
1, 1117819, Control_c, 0, 67, 94
1, 1117823, Note_off_c, 0, 32, 62
1, 1117826, Note_off_c, 0, 51, 63
1, 1117827, Note_off_c, 0, 56, 62
1, 1117834, Control_c, 0, 67, 95
1, 1117843, Note_off_c, 0, 50, 0
1, 1117849, Control_c, 0, 67, 96
1, 1117870, Note_on_c, 0, 50, 37
1, 1117893, Control_c, 0, 67, 98
1, 1117982, Control_c, 0, 67, 95
1, 1117997, Control_c, 0, 67, 94
1, 1118012, Control_c, 0, 67, 93
1, 1118015, Note_on_c, 0, 55, 87
1, 1118018, Note_on_c, 0, 52, 82
1, 1118019, Note_on_c, 0, 48, 78
1, 1118021, Note_on_c, 0, 36, 72
1, 1118022, Note_on_c, 0, 43, 72
1, 1118026, Control_c, 0, 67, 92
1, 1118041, Control_c, 0, 67, 90
1, 1118061, Note_off_c, 0, 48, 62
1, 1118065, Note_off_c, 0, 43, 63
1, 1118070, Note_off_c, 0, 36, 62
1, 1118082, Note_off_c, 0, 55, 61
1, 1118086, Control_c, 0, 67, 91
1, 1118089, Note_off_c, 0, 52, 61
1, 1118102, Control_c, 0, 67, 93
1, 1118116, Control_c, 0, 67, 94
1, 1118131, Control_c, 0, 67, 96
1, 1118205, Control_c, 0, 67, 95
1, 1118220, Control_c, 0, 67, 94
1, 1118234, Control_c, 0, 67, 92
1, 1118249, Control_c, 0, 67, 92
1, 1118272, Control_c, 0, 67, 91
1, 1118282, Note_on_c, 0, 55, 84
1, 1118287, Control_c, 0, 67, 90
1, 1118288, Note_on_c, 0, 52, 76
1, 1118291, Note_on_c, 0, 48, 80
1, 1118296, Note_on_c, 0, 43, 75
1, 1118297, Note_on_c, 0, 36, 72
1, 1118302, Control_c, 0, 64, 33
1, 1118302, Control_c, 0, 67, 90
1, 1118316, Control_c, 0, 64, 46
1, 1118316, Control_c, 0, 67, 89
1, 1118331, Control_c, 0, 64, 57
1, 1118346, Control_c, 0, 64, 64
1, 1118361, Control_c, 0, 64, 69
1, 1118376, Control_c, 0, 64, 74
1, 1118390, Control_c, 0, 64, 79
1, 1118390, Control_c, 0, 67, 90
1, 1118401, Note_off_c, 0, 43, 57
1, 1118405, Control_c, 0, 64, 82
1, 1118405, Control_c, 0, 67, 90
1, 1118420, Control_c, 0, 64, 84
1, 1118420, Control_c, 0, 67, 91
1, 1118435, Control_c, 0, 64, 84
1, 1118464, Control_c, 0, 64, 83
1, 1118480, Control_c, 0, 64, 79
1, 1118480, Control_c, 0, 67, 90
1, 1118495, Control_c, 0, 64, 74
1, 1118510, Control_c, 0, 64, 73
1, 1118524, Control_c, 0, 67, 90
1, 1118526, Note_on_c, 0, 43, 65
1, 1118539, Note_off_c, 0, 55, 60
1, 1118539, Control_c, 0, 64, 74
1, 1118550, Note_off_c, 0, 52, 61
1, 1118554, Control_c, 0, 64, 75
1, 1118569, Control_c, 0, 64, 76
1, 1118584, Control_c, 0, 64, 77
1, 1118587, Note_off_c, 0, 43, 63
1, 1118597, Note_off_c, 0, 48, 59
1, 1118613, Control_c, 0, 64, 77
1, 1118628, Control_c, 0, 67, 90
1, 1118642, Control_c, 0, 67, 91
1, 1118657, Control_c, 0, 67, 91
1, 1118732, Control_c, 0, 64, 76
1, 1118747, Control_c, 0, 64, 71
1, 1118762, Control_c, 0, 64, 66
1, 1118767, Note_on_c, 0, 56, 73
1, 1118774, Note_on_c, 0, 51, 64
1, 1118777, Note_on_c, 0, 44, 62
1, 1118777, Note_on_c, 0, 47, 58
1, 1118777, Control_c, 0, 64, 58
1, 1118777, Control_c, 0, 67, 91
1, 1118782, Note_on_c, 0, 32, 59
1, 1118791, Control_c, 0, 64, 51
1, 1118791, Control_c, 0, 67, 90
1, 1118806, Control_c, 0, 64, 47
1, 1118821, Control_c, 0, 64, 44
1, 1118830, Note_off_c, 0, 36, 43
1, 1118836, Control_c, 0, 64, 41
1, 1118850, Control_c, 0, 64, 38
1, 1118850, Control_c, 0, 67, 91
1, 1118865, Control_c, 0, 64, 36
1, 1118865, Control_c, 0, 67, 91
1, 1118880, Control_c, 0, 64, 34
1, 1118886, Note_off_c, 0, 32, 39
1, 1118886, Note_off_c, 0, 44, 54
1, 1118955, Control_c, 0, 64, 34
1, 1118970, Control_c, 0, 64, 34
1, 1118970, Control_c, 0, 67, 91
1, 1118985, Control_c, 0, 64, 37
1, 1118985, Control_c, 0, 67, 90
1, 1119000, Control_c, 0, 64, 43
1, 1119006, Note_on_c, 0, 32, 63
1, 1119006, Note_on_c, 0, 44, 68
1, 1119021, Control_c, 0, 64, 52
1, 1119036, Control_c, 0, 64, 58
1, 1119036, Control_c, 0, 67, 90
1, 1119051, Control_c, 0, 64, 60
1, 1119051, Control_c, 0, 67, 89
1, 1119054, Note_off_c, 0, 44, 64
1, 1119058, Note_off_c, 0, 56, 61
1, 1119061, Note_off_c, 0, 47, 64
1, 1119065, Note_off_c, 0, 32, 61
1, 1119066, Control_c, 0, 64, 61
1, 1119067, Note_off_c, 0, 51, 62
1, 1119081, Control_c, 0, 64, 60
1, 1119095, Control_c, 0, 67, 90
1, 1119110, Control_c, 0, 64, 61
1, 1119110, Control_c, 0, 67, 90
1, 1119155, Control_c, 0, 64, 60
1, 1119170, Control_c, 0, 64, 60
1, 1119170, Control_c, 0, 67, 91
1, 1119185, Control_c, 0, 64, 59
1, 1119200, Control_c, 0, 64, 58
1, 1119215, Control_c, 0, 64, 54
1, 1119215, Control_c, 0, 67, 90
1, 1119229, Control_c, 0, 64, 49
1, 1119244, Control_c, 0, 64, 41
1, 1119245, Note_on_c, 0, 56, 86
1, 1119250, Note_on_c, 0, 51, 73
1, 1119252, Note_on_c, 0, 47, 71
1, 1119253, Note_on_c, 0, 32, 79
1, 1119253, Note_on_c, 0, 44, 79
1, 1119259, Control_c, 0, 64, 33
1, 1119259, Control_c, 0, 67, 90
1, 1119273, Control_c, 0, 64, 0
1, 1119273, Control_c, 0, 67, 89
1, 1119299, Note_off_c, 0, 44, 62
1, 1119301, Note_off_c, 0, 47, 63
1, 1119305, Note_off_c, 0, 32, 61
1, 1119309, Note_off_c, 0, 56, 63
1, 1119312, Note_off_c, 0, 51, 62
1, 1119333, Control_c, 0, 67, 90
1, 1119347, Control_c, 0, 67, 91
1, 1119362, Control_c, 0, 67, 92
1, 1119377, Control_c, 0, 67, 92
1, 1119451, Control_c, 0, 67, 92
1, 1119465, Control_c, 0, 67, 91
1, 1119480, Control_c, 0, 67, 90
1, 1119492, Note_on_c, 0, 55, 80
1, 1119495, Note_on_c, 0, 48, 74
1, 1119500, Note_on_c, 0, 36, 68
1, 1119500, Note_on_c, 0, 52, 70
1, 1119506, Note_on_c, 0, 43, 62
1, 1119510, Control_c, 0, 67, 90
1, 1119540, Control_c, 0, 67, 89
1, 1119542, Note_off_c, 0, 36, 63
1, 1119543, Note_off_c, 0, 43, 65
1, 1119546, Note_off_c, 0, 48, 62
1, 1119557, Note_off_c, 0, 55, 61
1, 1119567, Note_off_c, 0, 52, 61
1, 1119569, Control_c, 0, 67, 90
1, 1119584, Control_c, 0, 67, 90
1, 1119599, Control_c, 0, 67, 91
1, 1119614, Control_c, 0, 64, 30
1, 1119629, Control_c, 0, 64, 35
1, 1119629, Control_c, 0, 67, 92
1, 1119644, Control_c, 0, 64, 40
1, 1119658, Control_c, 0, 64, 46
1, 1119673, Control_c, 0, 64, 49
1, 1119689, Control_c, 0, 64, 49
1, 1119689, Control_c, 0, 67, 91
1, 1119704, Control_c, 0, 64, 47
1, 1119704, Control_c, 0, 67, 91
1, 1119718, Control_c, 0, 64, 46
1, 1119718, Control_c, 0, 67, 90
1, 1119748, Note_on_c, 0, 55, 74
1, 1119753, Note_on_c, 0, 48, 65
1, 1119754, Note_on_c, 0, 52, 63
1, 1119770, Control_c, 0, 64, 48
1, 1119770, Control_c, 0, 67, 90
1, 1119778, Note_on_c, 0, 43, 62
1, 1119781, Note_on_c, 0, 36, 58
1, 1119785, Control_c, 0, 64, 52
1, 1119785, Control_c, 0, 67, 89
1, 1119800, Control_c, 0, 64, 58
1, 1119815, Control_c, 0, 64, 63
1, 1119829, Control_c, 0, 64, 68
1, 1119844, Control_c, 0, 64, 72
1, 1119850, Note_off_c, 0, 43, 54
1, 1119859, Control_c, 0, 64, 74
1, 1119874, Control_c, 0, 64, 76
1, 1119874, Control_c, 0, 67, 90
1, 1119889, Control_c, 0, 64, 76
1, 1119903, Control_c, 0, 67, 90
1, 1119918, Control_c, 0, 64, 75
1, 1119933, Control_c, 0, 64, 70
1, 1119948, Control_c, 0, 64, 64
1, 1119963, Control_c, 0, 64, 59
1, 1119976, Control_c, 0, 64, 58
1, 1119976, Control_c, 0, 67, 90
1, 1119991, Control_c, 0, 64, 61
1, 1120006, Control_c, 0, 64, 65
1, 1120009, Note_off_c, 0, 55, 49
1, 1120017, Note_on_c, 0, 43, 54
1, 1120020, Control_c, 0, 64, 68
1, 1120035, Note_off_c, 0, 52, 61
1, 1120035, Control_c, 0, 64, 71
1, 1120050, Control_c, 0, 64, 75
1, 1120065, Control_c, 0, 64, 79
1, 1120074, Note_off_c, 0, 43, 62
1, 1120080, Control_c, 0, 64, 84
1, 1120085, Note_off_c, 0, 48, 58
1, 1120094, Control_c, 0, 64, 87
1, 1120109, Control_c, 0, 64, 88
1, 1120124, Control_c, 0, 64, 89
1, 1120154, Control_c, 0, 67, 90
1, 1120198, Control_c, 0, 64, 88
1, 1120213, Control_c, 0, 64, 86
1, 1120228, Control_c, 0, 64, 82
1, 1120243, Control_c, 0, 64, 77
1, 1120248, Note_on_c, 0, 56, 67
1, 1120257, Note_on_c, 0, 44, 61
1, 1120258, Note_on_c, 0, 51, 58
1, 1120258, Control_c, 0, 64, 72
1, 1120261, Note_on_c, 0, 47, 54
1, 1120265, Note_on_c, 0, 32, 56
1, 1120273, Control_c, 0, 64, 66
1, 1120287, Control_c, 0, 64, 62
1, 1120301, Note_off_c, 0, 36, 30
1, 1120302, Control_c, 0, 64, 59
1, 1120315, Note_off_c, 0, 44, 64
1, 1120317, Control_c, 0, 64, 57
1, 1120319, Note_off_c, 0, 32, 60
1, 1120347, Control_c, 0, 64, 57
1, 1120361, Control_c, 0, 64, 58
1, 1120361, Control_c, 0, 67, 91
1, 1120376, Control_c, 0, 64, 57
1, 1120391, Control_c, 0, 67, 91
1, 1120465, Control_c, 0, 64, 57
1, 1120481, Control_c, 0, 64, 55
1, 1120496, Control_c, 0, 64, 53
1, 1120496, Control_c, 0, 67, 91
1, 1120511, Note_on_c, 0, 44, 72
1, 1120512, Note_on_c, 0, 32, 71
1, 1120517, Control_c, 0, 64, 51
1, 1120532, Control_c, 0, 64, 50
1, 1120547, Control_c, 0, 64, 49
1, 1120550, Note_off_c, 0, 44, 64
1, 1120562, Control_c, 0, 64, 48
1, 1120568, Note_off_c, 0, 32, 61
1, 1120577, Control_c, 0, 64, 47
1, 1120577, Control_c, 0, 67, 91
1, 1120592, Control_c, 0, 64, 46
1, 1120592, Control_c, 0, 67, 92
1, 1120607, Control_c, 0, 64, 45
1, 1120607, Control_c, 0, 67, 92
1, 1120622, Control_c, 0, 64, 44
1, 1120622, Control_c, 0, 67, 93
1, 1120636, Control_c, 0, 64, 44
1, 1120636, Control_c, 0, 67, 93
1, 1120649, Note_off_c, 0, 47, 37
1, 1120651, Control_c, 0, 64, 43
1, 1120671, Note_off_c, 0, 56, 28
1, 1120681, Control_c, 0, 64, 43
1, 1120696, Control_c, 0, 64, 42
1, 1120717, Note_off_c, 0, 51, 30
1, 1120723, Note_off_c, 0, 50, 31
1, 1120726, Control_c, 0, 64, 42
1, 1120741, Control_c, 0, 67, 93
1, 1120753, Note_on_c, 0, 42, 73
1, 1120756, Control_c, 0, 64, 41
1, 1120758, Note_on_c, 0, 30, 66
1, 1120771, Control_c, 0, 64, 41
1, 1120786, Control_c, 0, 64, 40
1, 1120798, Note_off_c, 0, 42, 63
1, 1120800, Control_c, 0, 64, 39
1, 1120805, Note_off_c, 0, 30, 62
1, 1120830, Control_c, 0, 64, 39
1, 1120830, Control_c, 0, 67, 93
1, 1120844, Control_c, 0, 64, 38
1, 1120859, Control_c, 0, 64, 37
1, 1120874, Control_c, 0, 64, 37
1, 1120889, Control_c, 0, 64, 36
1, 1120948, Control_c, 0, 64, 37
1, 1120977, Control_c, 0, 64, 37
1, 1120992, Note_on_c, 0, 41, 64
1, 1120992, Control_c, 0, 64, 38
1, 1121002, Note_on_c, 0, 29, 59
1, 1121007, Control_c, 0, 64, 40
1, 1121022, Control_c, 0, 64, 42
1, 1121031, Note_off_c, 0, 41, 61
1, 1121036, Control_c, 0, 64, 42
1, 1121045, Note_off_c, 0, 29, 61
1, 1121051, Control_c, 0, 64, 41
1, 1121066, Control_c, 0, 64, 39
1, 1121081, Control_c, 0, 64, 36
1, 1121096, Control_c, 0, 64, 35
1, 1121111, Control_c, 0, 64, 33
1, 1121125, Control_c, 0, 64, 30
1, 1121140, Control_c, 0, 64, 0
1, 1121200, Control_c, 0, 64, 33
1, 1121215, Control_c, 0, 64, 42
1, 1121229, Control_c, 0, 64, 55
1, 1121229, Control_c, 0, 67, 93
1, 1121236, Note_on_c, 0, 63, 105
1, 1121244, Control_c, 0, 64, 64
1, 1121244, Control_c, 0, 67, 92
1, 1121266, Note_on_c, 0, 40, 58
1, 1121266, Note_on_c, 0, 28, 62
1, 1121266, Control_c, 0, 64, 72
1, 1121277, Note_off_c, 0, 63, 68
1, 1121281, Control_c, 0, 64, 84
1, 1121281, Control_c, 0, 67, 92
1, 1121297, Control_c, 0, 64, 91
1, 1121298, Note_off_c, 0, 40, 63
1, 1121312, Control_c, 0, 64, 95
1, 1121341, Control_c, 0, 64, 97
1, 1121401, Control_c, 0, 67, 92
1, 1121415, Control_c, 0, 64, 99
1, 1121415, Control_c, 0, 67, 93
1, 1121430, Control_c, 0, 67, 93
1, 1121462, Note_off_c, 0, 28, 52
1, 1121510, Note_on_c, 0, 42, 65
1, 1121517, Note_on_c, 0, 30, 56
1, 1121567, Note_off_c, 0, 30, 56
1, 1121577, Note_off_c, 0, 42, 47
1, 1121593, Control_c, 0, 67, 94
1, 1121608, Control_c, 0, 67, 94
1, 1121712, Control_c, 0, 64, 97
1, 1121727, Control_c, 0, 64, 95
1, 1121741, Control_c, 0, 64, 93
1, 1121743, Note_on_c, 0, 43, 65
1, 1121748, Note_on_c, 0, 31, 64
1, 1121756, Control_c, 0, 64, 90
1, 1121771, Control_c, 0, 64, 85
1, 1121785, Control_c, 0, 64, 80
1, 1121790, Note_off_c, 0, 43, 58
1, 1121800, Control_c, 0, 64, 76
1, 1121815, Control_c, 0, 64, 75
1, 1121830, Control_c, 0, 64, 74
1, 1121845, Control_c, 0, 64, 73
1, 1121859, Control_c, 0, 64, 71
1, 1121874, Control_c, 0, 64, 67
1, 1121889, Control_c, 0, 64, 64
1, 1121904, Control_c, 0, 64, 63
1, 1121963, Control_c, 0, 67, 94
1, 1121978, Control_c, 0, 67, 93
1, 1121993, Control_c, 0, 67, 93
1, 1122002, Note_on_c, 0, 44, 74
1, 1122002, Note_on_c, 0, 50, 111
1, 1122003, Note_on_c, 0, 32, 67
1, 1122015, Control_c, 0, 64, 63
1, 1122015, Control_c, 0, 67, 92
1, 1122022, Note_off_c, 0, 31, 56
1, 1122030, Control_c, 0, 64, 65
1, 1122030, Control_c, 0, 67, 92
1, 1122040, Note_off_c, 0, 44, 68
1, 1122045, Control_c, 0, 67, 91
1, 1122051, Note_off_c, 0, 32, 64
1, 1122060, Control_c, 0, 64, 64
1, 1122060, Control_c, 0, 67, 91
1, 1122074, Control_c, 0, 64, 62
1, 1122074, Control_c, 0, 67, 90
1, 1122090, Control_c, 0, 64, 61
1, 1122090, Control_c, 0, 67, 91
1, 1122105, Control_c, 0, 67, 92
1, 1122120, Control_c, 0, 67, 94
1, 1122135, Control_c, 0, 67, 96
1, 1122150, Control_c, 0, 64, 60
1, 1122164, Control_c, 0, 64, 59
1, 1122179, Control_c, 0, 64, 59
1, 1122237, Control_c, 0, 64, 58
1, 1122252, Control_c, 0, 64, 58
1, 1122254, Note_on_c, 0, 44, 80
1, 1122256, Note_on_c, 0, 32, 79
1, 1122267, Control_c, 0, 64, 56
1, 1122267, Control_c, 0, 67, 95
1, 1122282, Control_c, 0, 64, 54
1, 1122282, Control_c, 0, 67, 95
1, 1122291, Note_off_c, 0, 32, 64
1, 1122292, Note_off_c, 0, 44, 65
1, 1122297, Control_c, 0, 64, 53
1, 1122312, Control_c, 0, 64, 51
1, 1122327, Control_c, 0, 64, 49
1, 1122342, Control_c, 0, 64, 47
1, 1122356, Control_c, 0, 64, 46
1, 1122371, Control_c, 0, 64, 46
1, 1122371, Control_c, 0, 67, 95
1, 1122386, Control_c, 0, 64, 46
1, 1122415, Control_c, 0, 64, 47
1, 1122460, Control_c, 0, 64, 46
1, 1122475, Control_c, 0, 64, 46
1, 1122489, Control_c, 0, 64, 45
1, 1122489, Control_c, 0, 67, 94
1, 1122504, Control_c, 0, 64, 45
1, 1122504, Control_c, 0, 67, 94
1, 1122505, Note_on_c, 0, 43, 82
1, 1122518, Note_on_c, 0, 31, 64
1, 1122519, Control_c, 0, 64, 44
1, 1122519, Control_c, 0, 67, 93
1, 1122534, Control_c, 0, 64, 42
1, 1122549, Control_c, 0, 64, 41
1, 1122551, Note_off_c, 0, 31, 64
1, 1122556, Note_off_c, 0, 43, 64
1, 1122563, Control_c, 0, 64, 40
1, 1122593, Control_c, 0, 67, 94
1, 1122607, Control_c, 0, 67, 94
1, 1122622, Control_c, 0, 64, 39
1, 1122637, Control_c, 0, 67, 95
1, 1122652, Control_c, 0, 64, 39
1, 1122681, Control_c, 0, 64, 38
1, 1122726, Control_c, 0, 64, 39
1, 1122726, Control_c, 0, 67, 94
1, 1122741, Control_c, 0, 64, 43
1, 1122763, Control_c, 0, 64, 50
1, 1122763, Control_c, 0, 67, 94
1, 1122770, Note_on_c, 0, 43, 84
1, 1122778, Control_c, 0, 64, 60
1, 1122778, Control_c, 0, 67, 93
1, 1122793, Note_on_c, 0, 31, 57
1, 1122793, Control_c, 0, 64, 66
1, 1122793, Control_c, 0, 67, 93
1, 1122808, Control_c, 0, 64, 73
1, 1122822, Control_c, 0, 64, 80
1, 1122822, Control_c, 0, 67, 92
1, 1122828, Note_off_c, 0, 31, 63
1, 1122837, Control_c, 0, 64, 87
1, 1122852, Control_c, 0, 64, 92
1, 1122867, Control_c, 0, 64, 97
1, 1122867, Control_c, 0, 67, 93
1, 1122883, Control_c, 0, 64, 100
1, 1122898, Control_c, 0, 67, 93
1, 1122927, Control_c, 0, 67, 94
1, 1123023, Note_on_c, 0, 31, 57
1, 1123087, Note_off_c, 0, 43, 61
1, 1123164, Control_c, 0, 64, 98
1, 1123194, Control_c, 0, 64, 96
1, 1123209, Control_c, 0, 64, 93
1, 1123224, Control_c, 0, 64, 86
1, 1123238, Control_c, 0, 64, 76
1, 1123253, Control_c, 0, 64, 66
1, 1123259, Note_on_c, 0, 44, 67
1, 1123268, Control_c, 0, 64, 56
1, 1123269, Note_off_c, 0, 31, 59
1, 1123278, Note_on_c, 0, 32, 57
1, 1123283, Control_c, 0, 64, 53
1, 1123298, Control_c, 0, 64, 57
1, 1123312, Control_c, 0, 64, 63
1, 1123327, Control_c, 0, 64, 68
1, 1123342, Control_c, 0, 64, 73
1, 1123345, Note_off_c, 0, 32, 55
1, 1123356, Control_c, 0, 64, 77
1, 1123371, Control_c, 0, 64, 80
1, 1123386, Control_c, 0, 64, 82
1, 1123401, Control_c, 0, 64, 82
1, 1123430, Control_c, 0, 64, 83
1, 1123490, Control_c, 0, 64, 82
1, 1123496, Note_on_c, 0, 32, 64
1, 1123512, Control_c, 0, 64, 80
1, 1123526, Note_off_c, 0, 44, 62
1, 1123527, Control_c, 0, 64, 75
1, 1123542, Control_c, 0, 64, 70
1, 1123543, Note_off_c, 0, 32, 59
1, 1123557, Control_c, 0, 64, 65
1, 1123571, Control_c, 0, 64, 61
1, 1123586, Control_c, 0, 64, 60
1, 1123601, Control_c, 0, 67, 94
1, 1123631, Control_c, 0, 64, 60
1, 1123645, Control_c, 0, 64, 61
1, 1123645, Control_c, 0, 67, 95
1, 1123660, Control_c, 0, 64, 61
1, 1123675, Control_c, 0, 64, 62
1, 1123691, Control_c, 0, 64, 61
1, 1123706, Control_c, 0, 64, 57
1, 1123722, Control_c, 0, 64, 48
1, 1123722, Control_c, 0, 67, 94
1, 1123736, Control_c, 0, 64, 32
1, 1123743, Note_on_c, 0, 56, 73
1, 1123749, Note_on_c, 0, 44, 56
1, 1123749, Note_on_c, 0, 51, 65
1, 1123751, Control_c, 0, 64, 0
1, 1123752, Note_on_c, 0, 47, 61
1, 1123752, Note_on_c, 0, 32, 56
1, 1123781, Control_c, 0, 67, 95
1, 1123783, Note_off_c, 0, 44, 65
1, 1123783, Note_off_c, 0, 51, 65
1, 1123787, Note_off_c, 0, 47, 66
1, 1123790, Note_off_c, 0, 32, 62
1, 1123798, Note_off_c, 0, 56, 61
1, 1123810, Control_c, 0, 67, 98
1, 1123973, Control_c, 0, 67, 96
1, 1123987, Note_on_c, 0, 55, 67
1, 1123987, Control_c, 0, 67, 95
1, 1123996, Note_on_c, 0, 48, 60
1, 1123999, Note_on_c, 0, 52, 63
1, 1123999, Note_on_c, 0, 36, 54
1, 1124007, Note_on_c, 0, 43, 51
1, 1124038, Note_off_c, 0, 36, 63
1, 1124042, Note_off_c, 0, 43, 64
1, 1124047, Note_off_c, 0, 48, 59
1, 1124047, Control_c, 0, 64, 33
1, 1124047, Control_c, 0, 67, 96
1, 1124053, Note_off_c, 0, 52, 58
1, 1124057, Note_off_c, 0, 55, 59
1, 1124062, Control_c, 0, 64, 41
1, 1124077, Control_c, 0, 64, 47
1, 1124077, Control_c, 0, 67, 98
1, 1124091, Control_c, 0, 64, 51
1, 1124106, Control_c, 0, 64, 51
1, 1124121, Control_c, 0, 64, 50
1, 1124136, Control_c, 0, 64, 49
1, 1124151, Control_c, 0, 64, 47
1, 1124166, Control_c, 0, 64, 46
1, 1124180, Control_c, 0, 64, 45
1, 1124195, Control_c, 0, 64, 45
1, 1124225, Control_c, 0, 64, 46
1, 1124240, Control_c, 0, 64, 48
1, 1124261, Control_c, 0, 64, 51
1, 1124272, Note_on_c, 0, 55, 61
1, 1124276, Control_c, 0, 64, 55
1, 1124276, Control_c, 0, 67, 96
1, 1124279, Note_on_c, 0, 52, 53
1, 1124291, Control_c, 0, 64, 58
1, 1124293, Note_on_c, 0, 36, 46
1, 1124296, Note_on_c, 0, 48, 37
1, 1124303, Note_on_c, 0, 43, 44
1, 1124306, Control_c, 0, 64, 61
1, 1124321, Control_c, 0, 64, 64
1, 1124336, Control_c, 0, 64, 66
1, 1124351, Control_c, 0, 64, 69
1, 1124366, Control_c, 0, 64, 73
1, 1124380, Control_c, 0, 64, 77
1, 1124383, Note_off_c, 0, 52, 58
1, 1124389, Note_off_c, 0, 43, 52
1, 1124395, Control_c, 0, 64, 82
1, 1124409, Note_off_c, 0, 50, 57
1, 1124410, Control_c, 0, 64, 87
1, 1124410, Control_c, 0, 67, 98
1, 1124425, Control_c, 0, 64, 93
1, 1124440, Control_c, 0, 64, 99
1, 1124455, Control_c, 0, 64, 106
1, 1124469, Control_c, 0, 64, 110
1, 1124485, Control_c, 0, 67, 100
1, 1124515, Control_c, 0, 67, 102
1, 1124534, Note_on_c, 0, 43, 47
1, 1124545, Note_off_c, 0, 48, 36
1, 1124559, Control_c, 0, 64, 107
1, 1124562, Note_off_c, 0, 43, 57
1, 1124574, Control_c, 0, 64, 105
1, 1124589, Control_c, 0, 64, 102
1, 1124589, Note_off_c, 0, 36, 40
1, 1124591, Note_off_c, 0, 55, 60
1, 1124604, Control_c, 0, 64, 99
1, 1124605, Note_on_c, 0, 56, 60
1, 1124618, Control_c, 0, 64, 96
1, 1124633, Control_c, 0, 64, 95
1, 1124633, Control_c, 0, 67, 104
1, 1124648, Control_c, 0, 64, 94
1, 1124649, Note_on_c, 0, 51, 61
1, 1124678, Control_c, 0, 64, 93
1, 1124688, Note_off_c, 0, 56, 46
1, 1124692, Control_c, 0, 64, 93
1, 1124703, Note_on_c, 0, 47, 56
1, 1124722, Control_c, 0, 64, 92
1, 1124726, Note_off_c, 0, 51, 54
1, 1124736, Control_c, 0, 64, 90
1, 1124751, Control_c, 0, 64, 86
1, 1124755, Note_on_c, 0, 44, 81
1, 1124761, Note_on_c, 0, 32, 73
1, 1124766, Control_c, 0, 64, 79
1, 1124781, Control_c, 0, 64, 71
1, 1124786, Note_off_c, 0, 47, 62
1, 1124796, Note_off_c, 0, 44, 63
1, 1124796, Control_c, 0, 64, 63
1, 1124807, Note_off_c, 0, 32, 62
1, 1124810, Control_c, 0, 64, 55
1, 1124810, Control_c, 0, 67, 102
1, 1124825, Control_c, 0, 64, 48
1, 1124840, Control_c, 0, 64, 45
1, 1124870, Control_c, 0, 64, 46
1, 1124899, Control_c, 0, 67, 105
1, 1124944, Control_c, 0, 64, 46
1, 1124974, Control_c, 0, 64, 46
1, 1125010, Control_c, 0, 64, 45
1, 1125018, Note_on_c, 0, 44, 68
1, 1125019, Note_on_c, 0, 32, 66
1, 1125025, Control_c, 0, 64, 45
1, 1125040, Control_c, 0, 64, 44
1, 1125050, Note_off_c, 0, 44, 65
1, 1125055, Control_c, 0, 64, 43
1, 1125057, Note_off_c, 0, 32, 60
1, 1125070, Control_c, 0, 64, 42
1, 1125129, Control_c, 0, 64, 42
1, 1125255, Note_on_c, 0, 42, 59
1, 1125263, Note_on_c, 0, 30, 54
1, 1125278, Control_c, 0, 64, 41
1, 1125293, Note_off_c, 0, 42, 63
1, 1125302, Note_off_c, 0, 30, 64
1, 1125337, Control_c, 0, 67, 107
1, 1125382, Control_c, 0, 67, 112
1, 1125397, Control_c, 0, 64, 41
1, 1125397, Control_c, 0, 67, 114
1, 1125484, Note_on_c, 0, 41, 62
1, 1125501, Note_on_c, 0, 29, 54
1, 1125534, Note_off_c, 0, 41, 60
1, 1125537, Note_off_c, 0, 29, 64
1, 1125707, Control_c, 0, 64, 43
1, 1125722, Control_c, 0, 64, 49
1, 1125728, Note_on_c, 0, 40, 75
1, 1125737, Control_c, 0, 64, 58
1, 1125737, Control_c, 0, 67, 112
1, 1125742, Note_on_c, 0, 28, 64
1, 1125759, Control_c, 0, 64, 64
1, 1125774, Control_c, 0, 64, 71
1, 1125774, Control_c, 0, 67, 110
1, 1125784, Note_off_c, 0, 28, 63
1, 1125789, Control_c, 0, 64, 77
1, 1125804, Control_c, 0, 64, 78
1, 1125833, Control_c, 0, 64, 77
1, 1125848, Control_c, 0, 64, 75
1, 1125863, Control_c, 0, 64, 72
1, 1125878, Control_c, 0, 64, 71
1, 1125893, Control_c, 0, 64, 70
1, 1125907, Control_c, 0, 64, 69
1, 1125922, Control_c, 0, 64, 67
1, 1125937, Control_c, 0, 64, 65
1, 1125952, Control_c, 0, 64, 63
1, 1125967, Control_c, 0, 64, 61
1, 1125982, Control_c, 0, 64, 60
1, 1125990, Note_on_c, 0, 30, 68
1, 1125997, Control_c, 0, 64, 58
1, 1126012, Control_c, 0, 64, 57
1, 1126026, Control_c, 0, 64, 55
1, 1126035, Note_off_c, 0, 30, 64
1, 1126041, Control_c, 0, 64, 52
1, 1126056, Control_c, 0, 64, 49
1, 1126071, Control_c, 0, 64, 48
1, 1126131, Control_c, 0, 64, 48
1, 1126241, Note_on_c, 0, 31, 70
1, 1126250, Control_c, 0, 64, 47
1, 1126287, Note_off_c, 0, 31, 62
1, 1126309, Control_c, 0, 64, 47
1, 1126398, Control_c, 0, 64, 48
1, 1126472, Control_c, 0, 64, 47
1, 1126489, Note_on_c, 0, 28, 66
1, 1126546, Note_off_c, 0, 28, 61
1, 1126598, Control_c, 0, 64, 47
1, 1126731, Note_on_c, 0, 30, 62
1, 1126775, Control_c, 0, 64, 46
1, 1126783, Note_off_c, 0, 30, 63
1, 1126819, Control_c, 0, 64, 46
1, 1126864, Control_c, 0, 64, 45
1, 1126879, Control_c, 0, 64, 45
1, 1126953, Control_c, 0, 64, 45
1, 1126967, Note_on_c, 0, 31, 60
1, 1126968, Control_c, 0, 64, 46
1, 1126983, Control_c, 0, 64, 47
1, 1126998, Control_c, 0, 64, 48
1, 1127021, Note_off_c, 0, 31, 62
1, 1127043, Control_c, 0, 64, 47
1, 1127072, Control_c, 0, 64, 47
1, 1127087, Control_c, 0, 64, 46
1, 1127102, Control_c, 0, 64, 45
1, 1127117, Control_c, 0, 64, 43
1, 1127131, Control_c, 0, 64, 42
1, 1127146, Control_c, 0, 64, 39
1, 1127161, Control_c, 0, 64, 35
1, 1127176, Control_c, 0, 64, 32
1, 1127191, Control_c, 0, 64, 32
1, 1127205, Control_c, 0, 64, 36
1, 1127212, Note_on_c, 0, 28, 61
1, 1127220, Control_c, 0, 64, 47
1, 1127235, Control_c, 0, 64, 58
1, 1127257, Control_c, 0, 64, 64
1, 1127270, Note_off_c, 0, 28, 60
1, 1127272, Control_c, 0, 64, 65
1, 1127284, Note_off_c, 0, 40, 59
1, 1127287, Control_c, 0, 64, 65
1, 1127302, Control_c, 0, 64, 64
1, 1127346, Control_c, 0, 64, 63
1, 1127361, Control_c, 0, 64, 62
1, 1127376, Control_c, 0, 64, 61
1, 1127391, Control_c, 0, 64, 60
1, 1127405, Control_c, 0, 64, 59
1, 1127420, Control_c, 0, 64, 58
1, 1127435, Control_c, 0, 64, 57
1, 1127450, Control_c, 0, 64, 56
1, 1127457, Note_on_c, 0, 30, 54
1, 1127461, Note_on_c, 0, 42, 49
1, 1127465, Control_c, 0, 64, 55
1, 1127479, Control_c, 0, 64, 55
1, 1127494, Control_c, 0, 64, 54
1, 1127497, Note_off_c, 0, 42, 62
1, 1127506, Note_off_c, 0, 30, 59
1, 1127509, Control_c, 0, 64, 54
1, 1127524, Control_c, 0, 64, 53
1, 1127524, Control_c, 0, 67, 112
1, 1127568, Control_c, 0, 64, 52
1, 1127583, Control_c, 0, 64, 52
1, 1127598, Control_c, 0, 64, 51
1, 1127696, Note_on_c, 0, 31, 55
1, 1127722, Note_on_c, 0, 43, 18
1, 1127739, Note_off_c, 0, 31, 59
1, 1127746, Control_c, 0, 64, 51
1, 1127761, Control_c, 0, 64, 50
1, 1127764, Note_off_c, 0, 43, 43
1, 1127776, Note_on_c, 0, 47, 40
1, 1127776, Control_c, 0, 64, 51
1, 1127817, Note_on_c, 0, 44, 49
1, 1127866, Note_on_c, 0, 39, 57
1, 1127872, Note_off_c, 0, 44, 58
1, 1127901, Note_off_c, 0, 47, 41
1, 1127910, Control_c, 0, 64, 50
1, 1127926, Note_on_c, 0, 32, 63
1, 1127934, Note_off_c, 0, 39, 58
1, 1127940, Control_c, 0, 64, 49
1, 1127954, Control_c, 0, 64, 49
1, 1127967, Note_off_c, 0, 32, 61
1, 1127969, Control_c, 0, 64, 48
1, 1127984, Control_c, 0, 64, 48
1, 1128035, Control_c, 0, 64, 47
1, 1128035, Control_c, 0, 67, 114
1, 1128050, Control_c, 0, 64, 47
1, 1128065, Control_c, 0, 64, 46
1, 1128095, Control_c, 0, 64, 45
1, 1128110, Control_c, 0, 64, 45
1, 1128125, Control_c, 0, 64, 44
1, 1128140, Control_c, 0, 64, 44
1, 1128154, Control_c, 0, 64, 43
1, 1128169, Note_on_c, 0, 32, 57
1, 1128184, Control_c, 0, 64, 43
1, 1128199, Control_c, 0, 64, 42
1, 1128220, Note_off_c, 0, 32, 62
1, 1128228, Control_c, 0, 64, 42
1, 1128347, Control_c, 0, 64, 41
1, 1128414, Note_on_c, 0, 31, 55
1, 1128450, Control_c, 0, 64, 41
1, 1128455, Note_off_c, 0, 31, 60
1, 1128569, Control_c, 0, 64, 41
1, 1128614, Control_c, 0, 64, 42
1, 1128643, Control_c, 0, 64, 42
1, 1128658, Control_c, 0, 64, 43
1, 1128673, Control_c, 0, 64, 44
1, 1128676, Note_on_c, 0, 31, 60
1, 1128688, Control_c, 0, 64, 46
1, 1128703, Control_c, 0, 64, 48
1, 1128718, Control_c, 0, 64, 48
1, 1128733, Control_c, 0, 64, 50
1, 1128755, Control_c, 0, 64, 53
1, 1128770, Control_c, 0, 64, 55
1, 1128784, Control_c, 0, 64, 57
1, 1128799, Control_c, 0, 64, 58
1, 1128814, Control_c, 0, 64, 58
1, 1128844, Control_c, 0, 64, 57
1, 1128858, Control_c, 0, 64, 57
1, 1128873, Control_c, 0, 64, 56
1, 1128888, Control_c, 0, 64, 55
1, 1128903, Control_c, 0, 64, 54
1, 1128918, Control_c, 0, 64, 53
1, 1128932, Control_c, 0, 64, 53
1, 1128940, Note_on_c, 0, 44, 54
1, 1128947, Control_c, 0, 64, 53
1, 1128963, Control_c, 0, 64, 54
1, 1128977, Control_c, 0, 64, 55
1, 1128992, Control_c, 0, 64, 57
1, 1128992, Control_c, 0, 67, 112
1, 1129007, Control_c, 0, 64, 58
1, 1129022, Control_c, 0, 64, 59
1, 1129067, Control_c, 0, 64, 58
1, 1129081, Control_c, 0, 64, 57
1, 1129096, Control_c, 0, 64, 55
1, 1129111, Control_c, 0, 64, 54
1, 1129126, Control_c, 0, 64, 53
1, 1129141, Control_c, 0, 64, 52
1, 1129156, Control_c, 0, 64, 51
1, 1129170, Control_c, 0, 64, 50
1, 1129185, Control_c, 0, 64, 51
1, 1129194, Note_on_c, 0, 32, 49
1, 1129200, Control_c, 0, 64, 55
1, 1129215, Control_c, 0, 64, 61
1, 1129230, Control_c, 0, 64, 66
1, 1129245, Control_c, 0, 64, 72
1, 1129259, Control_c, 0, 64, 79
1, 1129260, Note_off_c, 0, 31, 59
1, 1129272, Note_off_c, 0, 32, 59
1, 1129275, Note_off_c, 0, 44, 56
1, 1129275, Control_c, 0, 64, 83
1, 1129290, Control_c, 0, 64, 84
1, 1129349, Control_c, 0, 64, 83
1, 1129364, Control_c, 0, 64, 82
1, 1129379, Control_c, 0, 64, 81
1, 1129393, Control_c, 0, 64, 79
1, 1129408, Control_c, 0, 64, 75
1, 1129423, Control_c, 0, 64, 70
1, 1129428, Note_on_c, 0, 32, 49
1, 1129435, Note_on_c, 0, 44, 51
1, 1129438, Control_c, 0, 64, 66
1, 1129453, Control_c, 0, 64, 62
1, 1129467, Control_c, 0, 64, 59
1, 1129479, Note_off_c, 0, 32, 59
1, 1129482, Control_c, 0, 64, 56
1, 1129505, Control_c, 0, 64, 54
1, 1129520, Control_c, 0, 64, 53
1, 1129534, Control_c, 0, 64, 52
1, 1129564, Control_c, 0, 64, 52
1, 1129579, Control_c, 0, 64, 51
1, 1129594, Control_c, 0, 64, 51
1, 1129623, Note_off_c, 0, 44, 0
1, 1129623, Control_c, 0, 64, 50
1, 1129638, Control_c, 0, 64, 50
1, 1129651, Note_on_c, 0, 44, 20
1, 1129653, Control_c, 0, 64, 49
1, 1129668, Control_c, 0, 64, 49
1, 1129675, Note_on_c, 0, 32, 59
1, 1129682, Control_c, 0, 64, 48
1, 1129697, Control_c, 0, 64, 47
1, 1129712, Control_c, 0, 64, 47
1, 1129722, Note_off_c, 0, 32, 57
1, 1129726, Control_c, 0, 64, 46
1, 1129741, Control_c, 0, 64, 46
1, 1129756, Control_c, 0, 64, 45
1, 1129771, Control_c, 0, 64, 45
1, 1129786, Control_c, 0, 64, 44
1, 1129800, Control_c, 0, 64, 44
1, 1129815, Control_c, 0, 64, 43
1, 1129860, Control_c, 0, 64, 43
1, 1129889, Control_c, 0, 64, 42
1, 1129904, Control_c, 0, 64, 42
1, 1129916, Note_on_c, 0, 31, 55
1, 1129934, Control_c, 0, 64, 43
1, 1129949, Control_c, 0, 64, 44
1, 1129964, Control_c, 0, 64, 45
1, 1129964, Note_off_c, 0, 31, 62
1, 1130038, Control_c, 0, 64, 44
1, 1130067, Control_c, 0, 64, 44
1, 1130113, Control_c, 0, 64, 44
1, 1130172, Control_c, 0, 64, 45
1, 1130173, Note_on_c, 0, 31, 49
1, 1130187, Control_c, 0, 64, 47
1, 1130202, Control_c, 0, 64, 51
1, 1130217, Control_c, 0, 64, 55
1, 1130231, Control_c, 0, 64, 58
1, 1130252, Note_off_c, 0, 44, 53
1, 1130253, Control_c, 0, 64, 60
1, 1130268, Control_c, 0, 64, 60
1, 1130283, Control_c, 0, 64, 61
1, 1130342, Control_c, 0, 64, 60
1, 1130357, Control_c, 0, 64, 60
1, 1130372, Control_c, 0, 64, 59
1, 1130387, Control_c, 0, 64, 59
1, 1130417, Control_c, 0, 64, 58
1, 1130431, Control_c, 0, 64, 57
1, 1130432, Note_on_c, 0, 44, 46
1, 1130446, Control_c, 0, 64, 56
1, 1130460, Control_c, 0, 64, 55
1, 1130489, Control_c, 0, 64, 56
1, 1130504, Control_c, 0, 64, 57
1, 1130519, Control_c, 0, 64, 58
1, 1130534, Control_c, 0, 64, 59
1, 1130578, Control_c, 0, 64, 58
1, 1130593, Control_c, 0, 64, 58
1, 1130608, Control_c, 0, 64, 57
1, 1130638, Control_c, 0, 64, 58
1, 1130652, Control_c, 0, 64, 59
1, 1130667, Control_c, 0, 64, 61
1, 1130667, Note_on_c, 0, 32, 50
1, 1130672, Note_off_c, 0, 31, 55
1, 1130682, Control_c, 0, 64, 62
1, 1130697, Control_c, 0, 64, 63
1, 1130712, Control_c, 0, 64, 64
1, 1130724, Note_off_c, 0, 32, 55
1, 1130727, Control_c, 0, 64, 64
1, 1130756, Control_c, 0, 64, 64
1, 1130771, Control_c, 0, 64, 63
1, 1130786, Control_c, 0, 64, 62
1, 1130801, Control_c, 0, 64, 61
1, 1130815, Control_c, 0, 64, 61
1, 1130830, Control_c, 0, 64, 60
1, 1130845, Control_c, 0, 64, 59
1, 1130860, Control_c, 0, 64, 58
1, 1130876, Control_c, 0, 64, 57
1, 1130890, Control_c, 0, 64, 56
1, 1130905, Control_c, 0, 64, 56
1, 1130918, Note_on_c, 0, 32, 50
1, 1130920, Control_c, 0, 64, 55
1, 1130935, Control_c, 0, 64, 55
1, 1130950, Control_c, 0, 64, 54
1, 1130959, Note_off_c, 0, 32, 60
1, 1130964, Control_c, 0, 64, 53
1, 1130979, Control_c, 0, 64, 52
1, 1131016, Control_c, 0, 64, 52
1, 1131046, Control_c, 0, 64, 51
1, 1131150, Control_c, 0, 64, 51
1, 1131153, Note_on_c, 0, 32, 52
1, 1131165, Control_c, 0, 64, 50
1, 1131194, Control_c, 0, 64, 50
1, 1131204, Note_off_c, 0, 32, 60
1, 1131225, Control_c, 0, 64, 49
1, 1131254, Control_c, 0, 64, 49
1, 1131298, Control_c, 0, 64, 48
1, 1131328, Control_c, 0, 64, 48
1, 1131358, Control_c, 0, 64, 47
1, 1131387, Control_c, 0, 64, 47
1, 1131403, Note_on_c, 0, 31, 45
1, 1131416, Control_c, 0, 64, 47
1, 1131446, Control_c, 0, 64, 48
1, 1131461, Control_c, 0, 64, 49
1, 1131468, Note_off_c, 0, 31, 59
1, 1131476, Control_c, 0, 64, 50
1, 1131490, Control_c, 0, 64, 50
1, 1131505, Control_c, 0, 64, 51
1, 1131520, Control_c, 0, 64, 50
1, 1131594, Control_c, 0, 64, 50
1, 1131624, Control_c, 0, 64, 50
1, 1131654, Control_c, 0, 64, 51
1, 1131654, Note_on_c, 0, 31, 41
1, 1131669, Control_c, 0, 64, 52
1, 1131684, Control_c, 0, 64, 54
1, 1131699, Control_c, 0, 64, 55
1, 1131714, Control_c, 0, 64, 57
1, 1131729, Control_c, 0, 64, 59
1, 1131751, Control_c, 0, 64, 60
1, 1131755, Note_off_c, 0, 44, 44
1, 1131766, Control_c, 0, 64, 61
1, 1131781, Control_c, 0, 64, 62
1, 1131795, Control_c, 0, 64, 62
1, 1131810, Control_c, 0, 64, 64
1, 1131825, Control_c, 0, 64, 65
1, 1131840, Control_c, 0, 64, 66
1, 1131855, Control_c, 0, 64, 68
1, 1131869, Control_c, 0, 64, 69
1, 1131884, Control_c, 0, 64, 71
1, 1131899, Control_c, 0, 64, 74
1, 1131914, Control_c, 0, 64, 77
1, 1131918, Note_on_c, 0, 44, 44
1, 1131928, Control_c, 0, 64, 79
1, 1131943, Control_c, 0, 64, 82
1, 1131958, Control_c, 0, 64, 85
1, 1131973, Control_c, 0, 64, 87
1, 1131988, Control_c, 0, 64, 90
1, 1132003, Control_c, 0, 64, 92
1, 1132018, Control_c, 0, 64, 95
1, 1132047, Control_c, 0, 64, 97
1, 1132191, Note_on_c, 0, 32, 42
1, 1132238, Note_off_c, 0, 31, 36
1, 1132269, Note_off_c, 0, 32, 49
1, 1132314, Control_c, 0, 64, 96
1, 1132328, Control_c, 0, 64, 95
1, 1132343, Control_c, 0, 64, 93
1, 1132358, Control_c, 0, 64, 91
1, 1132373, Control_c, 0, 64, 88
1, 1132387, Control_c, 0, 64, 86
1, 1132402, Control_c, 0, 64, 83
1, 1132417, Control_c, 0, 64, 81
1, 1132432, Control_c, 0, 64, 78
1, 1132447, Control_c, 0, 64, 75
1, 1132457, Note_on_c, 0, 68, 69
1, 1132462, Control_c, 0, 64, 73
1, 1132477, Control_c, 0, 64, 70
1, 1132500, Control_c, 0, 64, 66
1, 1132515, Control_c, 0, 64, 63
1, 1132530, Control_c, 0, 64, 58
1, 1132538, Note_on_c, 0, 32, 23
1, 1132544, Control_c, 0, 64, 49
1, 1132559, Control_c, 0, 64, 33
1, 1132574, Control_c, 0, 64, 0
1, 1132663, Control_c, 0, 64, 41
1, 1132677, Control_c, 0, 64, 55
1, 1132677, Control_c, 0, 67, 110
1, 1132692, Control_c, 0, 64, 62
1, 1132706, Note_off_c, 0, 32, 43
1, 1132707, Control_c, 0, 64, 66
1, 1132707, Control_c, 0, 67, 108
1, 1132722, Control_c, 0, 64, 69
1, 1132737, Control_c, 0, 64, 73
1, 1132751, Control_c, 0, 64, 78
1, 1132766, Control_c, 0, 64, 86
1, 1132781, Control_c, 0, 64, 98
1, 1132781, Control_c, 0, 67, 106
1, 1132796, Control_c, 0, 64, 127
1, 1132822, Note_off_c, 0, 68, 61
1, 1132871, Note_on_c, 0, 32, 34
1, 1132900, Control_c, 0, 67, 104
1, 1132944, Note_off_c, 0, 32, 47
1, 1132996, Note_on_c, 0, 68, 68
1, 1133033, Poly_aftertouch_c, 0, 70, 127
1, 1133048, Control_c, 0, 67, 102
1, 1133111, Poly_aftertouch_c, 0, 70, 0
1, 1133112, Note_off_c, 0, 68, 63
1, 1133173, Note_on_c, 0, 32, 36
1, 1133195, Control_c, 0, 67, 100
1, 1133340, Note_off_c, 0, 32, 39
1, 1133427, Control_c, 0, 67, 102
1, 1133457, Control_c, 0, 67, 104
1, 1133501, Control_c, 0, 67, 106
1, 1133575, Control_c, 0, 67, 108
1, 1133590, Control_c, 0, 64, 111
1, 1133605, Control_c, 0, 64, 102
1, 1133619, Control_c, 0, 64, 94
1, 1133634, Control_c, 0, 64, 87
1, 1133649, Control_c, 0, 64, 82
1, 1133661, Note_on_c, 0, 55, 63
1, 1133664, Control_c, 0, 64, 78
1, 1133679, Control_c, 0, 64, 74
1, 1133693, Control_c, 0, 64, 71
1, 1133705, Note_on_c, 0, 33, 38
1, 1133708, Control_c, 0, 64, 67
1, 1133723, Control_c, 0, 64, 63
1, 1133738, Control_c, 0, 64, 58
1, 1133753, Control_c, 0, 64, 50
1, 1133753, Control_c, 0, 67, 110
1, 1133767, Control_c, 0, 64, 37
1, 1133782, Control_c, 0, 64, 0
1, 1133887, Control_c, 0, 67, 112
1, 1133946, Control_c, 0, 67, 114
1, 1133997, Control_c, 0, 64, 39
1, 1133997, Control_c, 0, 67, 116
1, 1134012, Control_c, 0, 64, 53
1, 1134027, Control_c, 0, 64, 61
1, 1134027, Control_c, 0, 67, 118
1, 1134042, Control_c, 0, 64, 65
1, 1134057, Control_c, 0, 64, 68
1, 1134057, Control_c, 0, 67, 120
1, 1134072, Control_c, 0, 64, 70
1, 1134072, Control_c, 0, 67, 127
1, 1134087, Control_c, 0, 64, 73
1, 1134102, Control_c, 0, 64, 76
1, 1134116, Control_c, 0, 64, 81
1, 1134131, Control_c, 0, 64, 86
1, 1134146, Control_c, 0, 64, 93
1, 1134161, Control_c, 0, 64, 100
1, 1134176, Control_c, 0, 64, 109
1, 1134181, Note_off_c, 0, 33, 39
1, 1134191, Control_c, 0, 64, 127
1, 1134228, Note_on_c, 0, 32, 32
1, 1134298, Note_off_c, 0, 55, 55
1, 1134373, Note_off_c, 0, 44, 45
1, 1134375, Note_off_c, 0, 32, 34
1, 1134693, Control_c, 0, 64, 119
1, 1134707, Control_c, 0, 64, 89
1, 1134722, Control_c, 0, 64, 83
1, 1134745, Control_c, 0, 64, 84
1, 1134752, Note_on_c, 0, 56, 39
1, 1134760, Control_c, 0, 64, 91
1, 1134774, Control_c, 0, 64, 106
1, 1134789, Control_c, 0, 64, 127
1, 1134816, Note_on_c, 0, 61, 52
1, 1134882, Note_off_c, 0, 56, 35
1, 1134888, Note_on_c, 0, 64, 51
1, 1134915, Note_off_c, 0, 61, 45
1, 1134933, Note_on_c, 0, 67, 48
1, 1134950, Note_off_c, 0, 64, 59
1, 1134966, Note_off_c, 0, 67, 65
1, 1135001, Note_on_c, 0, 68, 58
1, 1135065, Note_on_c, 0, 73, 60
1, 1135126, Note_off_c, 0, 68, 35
1, 1135139, Note_on_c, 0, 76, 55
1, 1135173, Note_off_c, 0, 73, 55
1, 1135304, Note_off_c, 0, 76, 48
1, 1135317, Note_on_c, 0, 92, 94
1, 1135333, Note_on_c, 0, 80, 63
1, 1135359, Note_off_c, 0, 92, 68
1, 1135592, Note_off_c, 0, 80, 28
1, 1135672, Note_on_c, 0, 68, 52
1, 1135676, Note_on_c, 0, 76, 52
1, 1135677, Note_on_c, 0, 80, 35
1, 1135681, Note_on_c, 0, 73, 46
1, 1135718, Note_off_c, 0, 73, 61
1, 1135719, Note_off_c, 0, 76, 61
1, 1135765, Note_off_c, 0, 68, 51
1, 1135846, Note_off_c, 0, 80, 29
1, 1135951, Note_on_c, 0, 80, 19
1, 1135955, Note_on_c, 0, 67, 52
1, 1135960, Note_on_c, 0, 76, 49
1, 1135961, Note_on_c, 0, 73, 49
1, 1136003, Note_off_c, 0, 76, 59
1, 1136012, Note_off_c, 0, 73, 53
1, 1136052, Note_off_c, 0, 67, 56
1, 1136241, Note_on_c, 0, 67, 56
1, 1136245, Note_on_c, 0, 73, 49
1, 1136259, Note_on_c, 0, 76, 44
1, 1136290, Note_off_c, 0, 76, 55
1, 1136295, Note_off_c, 0, 73, 50
1, 1136522, Note_on_c, 0, 76, 41
1, 1136523, Note_on_c, 0, 73, 39
1, 1136541, Note_off_c, 0, 67, 37
1, 1136573, Note_off_c, 0, 73, 55
1, 1136593, Note_off_c, 0, 80, 38
1, 1136594, Note_off_c, 0, 76, 53
1, 1136754, Note_on_c, 0, 79, 62
1, 1136761, Note_on_c, 0, 91, 67
1, 1136787, Note_on_c, 0, 68, 35
1, 1136879, Note_off_c, 0, 91, 39
1, 1136918, Note_off_c, 0, 68, 27
1, 1136948, Note_on_c, 0, 88, 74
1, 1136963, Note_on_c, 0, 76, 62
1, 1136972, Note_off_c, 0, 79, 40
1, 1137015, Note_off_c, 0, 88, 58
1, 1137147, Note_on_c, 0, 73, 66
1, 1137153, Note_off_c, 0, 76, 51
1, 1137157, Note_on_c, 0, 85, 65
1, 1137207, Note_off_c, 0, 85, 62
1, 1137216, Note_off_c, 0, 73, 63
1, 1137495, Note_on_c, 0, 68, 57
1, 1137542, Note_off_c, 0, 68, 56
1, 1137593, Note_on_c, 0, 88, 81
1, 1137759, Note_on_c, 0, 67, 49
1, 1137788, Note_off_c, 0, 67, 62
1, 1138029, Note_on_c, 0, 87, 82
1, 1138060, Note_on_c, 0, 76, 49
1, 1138071, Note_on_c, 0, 68, 38
1, 1138074, Note_on_c, 0, 69, 34
1, 1138090, Note_off_c, 0, 88, 56
1, 1138120, Note_off_c, 0, 69, 46
1, 1138136, Note_off_c, 0, 76, 50
1, 1138185, Control_c, 0, 64, 121
1, 1138200, Control_c, 0, 64, 115
1, 1138230, Control_c, 0, 64, 112
1, 1138245, Control_c, 0, 64, 105
1, 1138260, Control_c, 0, 64, 96
1, 1138275, Control_c, 0, 64, 88
1, 1138289, Control_c, 0, 64, 84
1, 1138304, Control_c, 0, 64, 83
1, 1138338, Note_on_c, 0, 76, 52
1, 1138343, Note_on_c, 0, 69, 44
1, 1138349, Control_c, 0, 64, 84
1, 1138363, Control_c, 0, 64, 84
1, 1138378, Control_c, 0, 64, 85
1, 1138379, Note_off_c, 0, 76, 46
1, 1138393, Control_c, 0, 64, 85
1, 1138395, Note_off_c, 0, 69, 51
1, 1138407, Control_c, 0, 64, 86
1, 1138447, Note_on_c, 0, 80, 77
1, 1138504, Control_c, 0, 64, 84
1, 1138513, Note_off_c, 0, 87, 58
1, 1138519, Control_c, 0, 64, 82
1, 1138534, Control_c, 0, 64, 77
1, 1138549, Control_c, 0, 64, 72
1, 1138563, Control_c, 0, 64, 67
1, 1138578, Control_c, 0, 64, 65
1, 1138596, Note_on_c, 0, 70, 53
1, 1138608, Control_c, 0, 64, 67
1, 1138611, Note_on_c, 0, 76, 46
1, 1138622, Control_c, 0, 64, 70
1, 1138637, Control_c, 0, 64, 72
1, 1138645, Note_off_c, 0, 70, 55
1, 1138652, Note_off_c, 0, 76, 57
1, 1138652, Control_c, 0, 64, 74
1, 1138667, Control_c, 0, 64, 74
1, 1138727, Control_c, 0, 64, 74
1, 1138741, Control_c, 0, 64, 73
1, 1138756, Control_c, 0, 64, 72
1, 1138771, Control_c, 0, 64, 70
1, 1138786, Control_c, 0, 64, 67
1, 1138801, Control_c, 0, 64, 65
1, 1138815, Control_c, 0, 64, 63
1, 1138819, Note_on_c, 0, 87, 78
1, 1138830, Note_off_c, 0, 80, 62
1, 1138830, Control_c, 0, 64, 62
1, 1138838, Note_on_c, 0, 77, 44
1, 1138845, Control_c, 0, 64, 64
1, 1138846, Note_on_c, 0, 71, 40
1, 1138861, Control_c, 0, 64, 67
1, 1138876, Control_c, 0, 64, 70
1, 1138891, Control_c, 0, 64, 74
1, 1138901, Note_off_c, 0, 77, 52
1, 1138905, Control_c, 0, 64, 76
1, 1138920, Control_c, 0, 64, 78
1, 1138935, Control_c, 0, 64, 79
1, 1138942, Note_off_c, 0, 71, 39
1, 1138950, Control_c, 0, 64, 80
1, 1138965, Control_c, 0, 64, 81
1, 1139024, Control_c, 0, 64, 79
1, 1139038, Control_c, 0, 64, 75
1, 1139053, Control_c, 0, 64, 70
1, 1139068, Control_c, 0, 64, 65
1, 1139083, Control_c, 0, 64, 64
1, 1139097, Note_on_c, 0, 78, 51
1, 1139098, Control_c, 0, 64, 65
1, 1139112, Note_on_c, 0, 72, 44
1, 1139112, Control_c, 0, 64, 69
1, 1139127, Control_c, 0, 64, 73
1, 1139142, Control_c, 0, 64, 76
1, 1139154, Note_off_c, 0, 72, 53
1, 1139157, Control_c, 0, 64, 78
1, 1139168, Note_off_c, 0, 78, 56
1, 1139172, Control_c, 0, 64, 80
1, 1139187, Control_c, 0, 64, 82
1, 1139202, Control_c, 0, 64, 83
1, 1139217, Control_c, 0, 64, 84
1, 1139217, Note_on_c, 0, 85, 73
1, 1139238, Control_c, 0, 64, 85
1, 1139249, Note_off_c, 0, 87, 64
1, 1139268, Control_c, 0, 64, 84
1, 1139283, Control_c, 0, 64, 80
1, 1139298, Control_c, 0, 64, 75
1, 1139312, Control_c, 0, 64, 71
1, 1139327, Control_c, 0, 64, 70
1, 1139342, Control_c, 0, 64, 70
1, 1139357, Control_c, 0, 64, 72
1, 1139366, Note_on_c, 0, 79, 49
1, 1139371, Note_on_c, 0, 73, 49
1, 1139372, Control_c, 0, 64, 75
1, 1139386, Control_c, 0, 64, 78
1, 1139397, Note_off_c, 0, 79, 59
1, 1139401, Control_c, 0, 64, 81
1, 1139416, Note_off_c, 0, 73, 57
1, 1139416, Control_c, 0, 64, 83
1, 1139431, Control_c, 0, 64, 84
1, 1139446, Control_c, 0, 64, 85
1, 1139506, Control_c, 0, 64, 86
1, 1139564, Control_c, 0, 64, 85
1, 1139579, Control_c, 0, 64, 84
1, 1139594, Control_c, 0, 64, 82
1, 1139609, Control_c, 0, 64, 79
1, 1139624, Control_c, 0, 64, 73
1, 1139638, Control_c, 0, 64, 66
1, 1139654, Control_c, 0, 64, 56
1, 1139659, Note_on_c, 0, 92, 76
1, 1139669, Control_c, 0, 64, 37
1, 1139674, Note_on_c, 0, 78, 43
1, 1139684, Note_on_c, 0, 74, 45
1, 1139684, Control_c, 0, 64, 0
1, 1139714, Note_off_c, 0, 85, 55
1, 1139773, Control_c, 0, 64, 34
1, 1139787, Control_c, 0, 64, 54
1, 1139802, Control_c, 0, 64, 64
1, 1139817, Control_c, 0, 64, 68
1, 1139819, Note_off_c, 0, 74, 57
1, 1139824, Note_off_c, 0, 78, 46
1, 1139832, Control_c, 0, 64, 69
1, 1139847, Control_c, 0, 64, 70
1, 1139861, Control_c, 0, 64, 70
1, 1139876, Control_c, 0, 64, 72
1, 1139891, Control_c, 0, 64, 73
1, 1139906, Control_c, 0, 64, 73
1, 1139921, Control_c, 0, 64, 74
1, 1139935, Control_c, 0, 64, 74
1, 1139950, Control_c, 0, 64, 76
1, 1139954, Note_on_c, 0, 78, 42
1, 1139963, Note_on_c, 0, 74, 47
1, 1139965, Control_c, 0, 64, 78
1, 1139987, Control_c, 0, 64, 81
1, 1140002, Control_c, 0, 64, 84
1, 1140017, Control_c, 0, 64, 87
1, 1140032, Note_off_c, 0, 74, 51
1, 1140032, Control_c, 0, 64, 91
1, 1140033, Note_off_c, 0, 78, 52
1, 1140047, Control_c, 0, 64, 94
1, 1140061, Control_c, 0, 64, 98
1, 1140076, Control_c, 0, 64, 102
1, 1140091, Control_c, 0, 64, 107
1, 1140106, Control_c, 0, 64, 115
1, 1140121, Control_c, 0, 64, 127
1, 1140140, Note_off_c, 0, 68, 35
1, 1140246, Note_on_c, 0, 78, 31
1, 1140252, Note_on_c, 0, 74, 28
1, 1140280, Note_off_c, 0, 78, 44
1, 1140287, Note_off_c, 0, 74, 42
1, 1140522, Control_c, 0, 64, 116
1, 1140537, Control_c, 0, 64, 111
1, 1140552, Control_c, 0, 64, 107
1, 1140553, Note_on_c, 0, 32, 36
1, 1140566, Control_c, 0, 64, 103
1, 1140581, Control_c, 0, 64, 101
1, 1140595, Note_off_c, 0, 32, 50
1, 1140610, Control_c, 0, 64, 98
1, 1140640, Control_c, 0, 64, 94
1, 1140655, Control_c, 0, 64, 92
1, 1140670, Control_c, 0, 64, 90
1, 1140684, Control_c, 0, 64, 90
1, 1140714, Control_c, 0, 64, 89
1, 1140736, Control_c, 0, 64, 89
1, 1140751, Control_c, 0, 64, 88
1, 1140766, Control_c, 0, 64, 87
1, 1140781, Control_c, 0, 64, 87
1, 1140796, Note_on_c, 0, 32, 55
1, 1140796, Control_c, 0, 64, 86
1, 1140810, Control_c, 0, 64, 86
1, 1140825, Control_c, 0, 64, 85
1, 1140840, Control_c, 0, 64, 85
1, 1140855, Control_c, 0, 64, 84
1, 1140859, Note_off_c, 0, 32, 51
1, 1140870, Control_c, 0, 64, 83
1, 1140884, Control_c, 0, 64, 82
1, 1140899, Control_c, 0, 64, 82
1, 1140914, Control_c, 0, 64, 81
1, 1140928, Control_c, 0, 64, 80
1, 1140943, Control_c, 0, 64, 80
1, 1140957, Control_c, 0, 64, 79
1, 1140972, Control_c, 0, 64, 78
1, 1140987, Control_c, 0, 64, 77
1, 1141002, Control_c, 0, 64, 77
1, 1141017, Control_c, 0, 64, 76
1, 1141032, Control_c, 0, 64, 76
1, 1141047, Note_on_c, 0, 33, 57
1, 1141047, Control_c, 0, 64, 75
1, 1141062, Control_c, 0, 64, 74
1, 1141076, Control_c, 0, 64, 73
1, 1141083, Note_off_c, 0, 33, 63
1, 1141091, Control_c, 0, 64, 72
1, 1141106, Control_c, 0, 64, 71
1, 1141121, Control_c, 0, 64, 70
1, 1141135, Control_c, 0, 64, 69
1, 1141150, Control_c, 0, 64, 68
1, 1141165, Control_c, 0, 64, 68
1, 1141180, Control_c, 0, 64, 67
1, 1141195, Control_c, 0, 64, 67
1, 1141209, Control_c, 0, 64, 66
1, 1141239, Control_c, 0, 64, 66
1, 1141255, Control_c, 0, 64, 65
1, 1141270, Control_c, 0, 64, 65
1, 1141285, Control_c, 0, 64, 64
1, 1141300, Control_c, 0, 64, 63
1, 1141306, Note_on_c, 0, 33, 56
1, 1141314, Control_c, 0, 64, 62
1, 1141329, Control_c, 0, 64, 60
1, 1141344, Control_c, 0, 64, 58
1, 1141358, Control_c, 0, 64, 56
1, 1141373, Control_c, 0, 64, 53
1, 1141388, Control_c, 0, 64, 50
1, 1141403, Control_c, 0, 64, 45
1, 1141418, Control_c, 0, 64, 37
1, 1141432, Control_c, 0, 64, 32
1, 1141462, Control_c, 0, 64, 0
1, 1141580, Note_on_c, 0, 44, 47
1, 1141677, Control_c, 0, 64, 35
1, 1141693, Control_c, 0, 64, 46
1, 1141707, Control_c, 0, 64, 55
1, 1141722, Control_c, 0, 64, 60
1, 1141737, Control_c, 0, 64, 62
1, 1141751, Control_c, 0, 64, 64
1, 1141766, Control_c, 0, 64, 65
1, 1141781, Control_c, 0, 64, 66
1, 1141796, Control_c, 0, 64, 68
1, 1141811, Control_c, 0, 64, 70
1, 1141813, Note_on_c, 0, 32, 44
1, 1141825, Control_c, 0, 64, 71
1, 1141828, Note_off_c, 0, 33, 50
1, 1141840, Control_c, 0, 64, 71
1, 1141864, Note_off_c, 0, 32, 57
1, 1141879, Note_off_c, 0, 44, 58
1, 1142004, Control_c, 0, 64, 71
1, 1142019, Control_c, 0, 64, 70
1, 1142033, Control_c, 0, 64, 69
1, 1142048, Control_c, 0, 64, 67
1, 1142063, Control_c, 0, 64, 65
1, 1142065, Note_on_c, 0, 44, 52
1, 1142078, Control_c, 0, 64, 64
1, 1142084, Note_on_c, 0, 32, 42
1, 1142093, Control_c, 0, 64, 62
1, 1142108, Control_c, 0, 64, 60
1, 1142123, Control_c, 0, 64, 58
1, 1142131, Note_off_c, 0, 32, 56
1, 1142138, Control_c, 0, 64, 56
1, 1142153, Control_c, 0, 64, 55
1, 1142168, Control_c, 0, 64, 54
1, 1142182, Control_c, 0, 64, 53
1, 1142197, Control_c, 0, 64, 53
1, 1142212, Control_c, 0, 64, 52
1, 1142234, Control_c, 0, 64, 51
1, 1142289, Note_off_c, 0, 44, 0
1, 1142312, Note_on_c, 0, 44, 26
1, 1142323, Control_c, 0, 64, 51
1, 1142326, Note_on_c, 0, 32, 55
1, 1142338, Control_c, 0, 64, 50
1, 1142352, Control_c, 0, 64, 50
1, 1142367, Control_c, 0, 64, 49
1, 1142382, Control_c, 0, 64, 49
1, 1142383, Note_off_c, 0, 32, 58
1, 1142397, Control_c, 0, 64, 48
1, 1142412, Control_c, 0, 64, 47
1, 1142442, Control_c, 0, 64, 47
1, 1142456, Control_c, 0, 64, 46
1, 1142471, Control_c, 0, 64, 45
1, 1142486, Control_c, 0, 64, 44
1, 1142501, Control_c, 0, 64, 43
1, 1142515, Control_c, 0, 64, 42
1, 1142530, Control_c, 0, 64, 42
1, 1142560, Control_c, 0, 64, 42
1, 1142568, Note_on_c, 0, 31, 56
1, 1142574, Control_c, 0, 64, 43
1, 1142589, Control_c, 0, 64, 45
1, 1142604, Control_c, 0, 64, 48
1, 1142619, Control_c, 0, 64, 53
1, 1142624, Note_off_c, 0, 31, 60
1, 1142634, Control_c, 0, 64, 56
1, 1142648, Control_c, 0, 64, 59
1, 1142663, Control_c, 0, 64, 60
1, 1142678, Control_c, 0, 64, 61
1, 1142693, Control_c, 0, 64, 62
1, 1142707, Control_c, 0, 64, 63
1, 1142782, Control_c, 0, 64, 63
1, 1142797, Control_c, 0, 64, 65
1, 1142812, Control_c, 0, 64, 67
1, 1142826, Note_off_c, 0, 92, 64
1, 1142826, Control_c, 0, 64, 69
1, 1142831, Note_on_c, 0, 31, 47
1, 1142841, Control_c, 0, 64, 71
1, 1142857, Control_c, 0, 64, 73
1, 1142871, Control_c, 0, 64, 75
1, 1142886, Control_c, 0, 64, 77
1, 1142901, Control_c, 0, 64, 80
1, 1142916, Control_c, 0, 64, 83
1, 1142921, Note_off_c, 0, 44, 44
1, 1142931, Control_c, 0, 64, 85
1, 1142946, Control_c, 0, 64, 88
1, 1142961, Control_c, 0, 64, 90
1, 1142983, Control_c, 0, 64, 91
1, 1142998, Control_c, 0, 64, 92
1, 1143012, Control_c, 0, 64, 92
1, 1143136, Note_on_c, 0, 44, 39
1, 1143175, Control_c, 0, 64, 92
1, 1143190, Control_c, 0, 64, 91
1, 1143205, Control_c, 0, 64, 90
1, 1143220, Control_c, 0, 64, 89
1, 1143235, Control_c, 0, 64, 88
1, 1143242, Note_off_c, 0, 44, 0
1, 1143250, Control_c, 0, 64, 88
1, 1143265, Control_c, 0, 64, 86
1, 1143279, Poly_aftertouch_c, 0, 44, 127
1, 1143279, Control_c, 0, 64, 84
1, 1143294, Control_c, 0, 64, 82
1, 1143309, Control_c, 0, 64, 78
1, 1143315, Note_on_c, 0, 68, 65
1, 1143324, Control_c, 0, 64, 76
1, 1143338, Control_c, 0, 64, 74
1, 1143353, Control_c, 0, 64, 71
1, 1143368, Control_c, 0, 64, 67
1, 1143383, Control_c, 0, 64, 63
1, 1143398, Control_c, 0, 64, 59
1, 1143412, Control_c, 0, 64, 51
1, 1143427, Control_c, 0, 64, 38
1, 1143442, Control_c, 0, 64, 0
1, 1143504, Note_on_c, 0, 32, 27
1, 1143515, Poly_aftertouch_c, 0, 44, 0
1, 1143549, Note_off_c, 0, 31, 34
1, 1143552, Poly_aftertouch_c, 0, 44, 127
1, 1143590, Control_c, 0, 64, 30
1, 1143604, Control_c, 0, 64, 54
1, 1143619, Control_c, 0, 64, 61
1, 1143634, Control_c, 0, 64, 64
1, 1143642, Note_off_c, 0, 68, 63
1, 1143650, Control_c, 0, 64, 67
1, 1143665, Control_c, 0, 64, 70
1, 1143668, Note_off_c, 0, 32, 50
1, 1143680, Control_c, 0, 64, 74
1, 1143694, Control_c, 0, 64, 78
1, 1143709, Control_c, 0, 64, 83
1, 1143732, Control_c, 0, 64, 86
1, 1143747, Control_c, 0, 64, 88
1, 1143761, Control_c, 0, 64, 89
1, 1143776, Control_c, 0, 64, 90
1, 1143780, Note_on_c, 0, 68, 78
1, 1143791, Control_c, 0, 64, 91
1, 1143806, Note_on_c, 0, 32, 43
1, 1143806, Control_c, 0, 64, 95
1, 1143821, Control_c, 0, 64, 99
1, 1143835, Control_c, 0, 64, 105
1, 1143850, Control_c, 0, 64, 110
1, 1143865, Control_c, 0, 64, 114
1, 1143873, Note_off_c, 0, 32, 49
1, 1143880, Control_c, 0, 64, 118
1, 1143895, Control_c, 0, 64, 127
1, 1143968, Note_on_c, 0, 70, 18
1, 1143984, Control_c, 0, 67, 121
1, 1143999, Control_c, 0, 67, 115
1, 1144014, Control_c, 0, 67, 108
1, 1144028, Control_c, 0, 67, 101
1, 1144036, Note_off_c, 0, 68, 62
1, 1144043, Control_c, 0, 67, 96
1, 1144044, Note_on_c, 0, 32, 52
1, 1144058, Control_c, 0, 67, 91
1, 1144072, Control_c, 0, 67, 87
1, 1144087, Control_c, 0, 67, 83
1, 1144102, Control_c, 0, 67, 78
1, 1144117, Control_c, 0, 67, 72
1, 1144125, Note_off_c, 0, 32, 54
1, 1144132, Control_c, 0, 67, 69
1, 1144140, Note_off_c, 0, 70, 0
1, 1144147, Control_c, 0, 67, 68
1, 1144153, Note_on_c, 0, 68, 82
1, 1144162, Control_c, 0, 67, 68
1, 1144177, Poly_aftertouch_c, 0, 70, 127
1, 1144207, Control_c, 0, 64, 86
1, 1144222, Control_c, 0, 64, 71
1, 1144236, Control_c, 0, 64, 64
1, 1144240, Poly_aftertouch_c, 0, 70, 0
1, 1144251, Control_c, 0, 64, 63
1, 1144266, Control_c, 0, 64, 66
1, 1144280, Control_c, 0, 64, 71
1, 1144295, Control_c, 0, 64, 78
1, 1144301, Note_on_c, 0, 33, 62
1, 1144310, Control_c, 0, 64, 88
1, 1144317, Note_off_c, 0, 68, 65
1, 1144325, Control_c, 0, 64, 99
1, 1144340, Control_c, 0, 64, 119
1, 1144354, Control_c, 0, 64, 127
1, 1144433, Note_off_c, 0, 33, 36
1, 1144600, Control_c, 0, 67, 68
1, 1144615, Control_c, 0, 67, 69
1, 1144689, Control_c, 0, 64, 110
1, 1144703, Control_c, 0, 64, 102
1, 1144703, Control_c, 0, 67, 69
1, 1144705, Note_on_c, 0, 55, 91
1, 1144718, Control_c, 0, 64, 97
1, 1144733, Control_c, 0, 64, 92
1, 1144745, Note_on_c, 0, 33, 49
1, 1144748, Control_c, 0, 64, 86
1, 1144748, Control_c, 0, 67, 70
1, 1144763, Control_c, 0, 64, 81
1, 1144777, Control_c, 0, 64, 76
1, 1144792, Control_c, 0, 64, 71
1, 1144807, Control_c, 0, 64, 66
1, 1144822, Control_c, 0, 64, 61
1, 1144837, Control_c, 0, 64, 55
1, 1144851, Control_c, 0, 64, 47
1, 1144866, Control_c, 0, 64, 0
1, 1144881, Control_c, 0, 67, 70
1, 1144910, Control_c, 0, 67, 71
1, 1144940, Control_c, 0, 64, 56
1, 1144940, Control_c, 0, 67, 71
1, 1144955, Control_c, 0, 64, 69
1, 1144955, Control_c, 0, 67, 72
1, 1144970, Control_c, 0, 64, 79
1, 1144970, Control_c, 0, 67, 72
1, 1144985, Control_c, 0, 64, 91
1, 1144985, Control_c, 0, 67, 73
1, 1145000, Control_c, 0, 64, 95
1, 1145000, Control_c, 0, 67, 74
1, 1145014, Control_c, 0, 64, 96
1, 1145014, Control_c, 0, 67, 76
1, 1145029, Control_c, 0, 67, 77
1, 1145044, Control_c, 0, 64, 94
1, 1145044, Control_c, 0, 67, 79
1, 1145059, Control_c, 0, 64, 89
1, 1145059, Control_c, 0, 67, 81
1, 1145074, Control_c, 0, 64, 81
1, 1145074, Control_c, 0, 67, 83
1, 1145089, Control_c, 0, 64, 69
1, 1145089, Control_c, 0, 67, 87
1, 1145103, Control_c, 0, 64, 52
1, 1145103, Control_c, 0, 67, 96
1, 1145118, Control_c, 0, 64, 0
1, 1145118, Control_c, 0, 67, 112
1, 1145133, Control_c, 0, 67, 127
1, 1145169, Note_off_c, 0, 33, 56
1, 1145201, Note_on_c, 0, 32, 55
1, 1145289, Control_c, 0, 64, 57
1, 1145304, Control_c, 0, 64, 68
1, 1145313, Note_off_c, 0, 32, 62
1, 1145314, Note_off_c, 0, 55, 61
1, 1145319, Control_c, 0, 64, 76
1, 1145333, Control_c, 0, 64, 88
1, 1145348, Control_c, 0, 64, 103
1, 1145358, Poly_aftertouch_c, 0, 44, 0
1, 1145363, Control_c, 0, 64, 127
1, 1145610, Note_on_c, 0, 56, 36
1, 1145686, Note_on_c, 0, 61, 53
1, 1145752, Note_on_c, 0, 64, 55
1, 1145782, Note_on_c, 0, 67, 53
1, 1145786, Note_off_c, 0, 56, 39
1, 1145810, Note_off_c, 0, 64, 62
1, 1145822, Note_off_c, 0, 61, 35
1, 1145830, Note_off_c, 0, 67, 62
1, 1145855, Note_on_c, 0, 68, 58
1, 1145900, Note_on_c, 0, 73, 61
1, 1145951, Note_off_c, 0, 68, 59
1, 1145959, Note_on_c, 0, 76, 54
1, 1146003, Note_off_c, 0, 73, 60
1, 1146098, Note_on_c, 0, 92, 94
1, 1146117, Note_on_c, 0, 80, 75
1, 1146126, Note_off_c, 0, 76, 61
1, 1146139, Note_off_c, 0, 92, 68
1, 1146305, Note_off_c, 0, 80, 47
1, 1146422, Note_on_c, 0, 68, 66
1, 1146428, Note_on_c, 0, 73, 55
1, 1146432, Note_on_c, 0, 76, 58
1, 1146445, Note_on_c, 0, 80, 24
1, 1146460, Note_off_c, 0, 73, 64
1, 1146464, Note_off_c, 0, 76, 65
1, 1146481, Note_off_c, 0, 80, 45
1, 1146487, Note_off_c, 0, 68, 52
1, 1146693, Note_on_c, 0, 67, 70
1, 1146696, Note_on_c, 0, 73, 60
1, 1146701, Note_on_c, 0, 76, 56
1, 1146737, Note_on_c, 0, 80, 12
1, 1146737, Note_off_c, 0, 73, 63
1, 1146740, Note_off_c, 0, 76, 65
1, 1146785, Note_off_c, 0, 80, 40
1, 1146786, Control_c, 0, 67, 119
1, 1146788, Note_off_c, 0, 67, 39
1, 1146801, Control_c, 0, 67, 112
1, 1146816, Control_c, 0, 67, 106
1, 1146830, Control_c, 0, 67, 103
1, 1146846, Control_c, 0, 67, 99
1, 1146861, Control_c, 0, 67, 97
1, 1146876, Control_c, 0, 67, 94
1, 1146891, Control_c, 0, 67, 91
1, 1146905, Control_c, 0, 67, 88
1, 1146920, Control_c, 0, 67, 87
1, 1146935, Control_c, 0, 67, 85
1, 1146950, Control_c, 0, 67, 84
1, 1146959, Note_on_c, 0, 67, 67
1, 1146965, Control_c, 0, 67, 83
1, 1146971, Note_on_c, 0, 73, 54
1, 1146978, Note_on_c, 0, 76, 52
1, 1146979, Control_c, 0, 67, 81
1, 1146994, Control_c, 0, 67, 79
1, 1147009, Note_off_c, 0, 73, 60
1, 1147009, Note_off_c, 0, 76, 63
1, 1147009, Control_c, 0, 67, 79
1, 1147039, Control_c, 0, 67, 79
1, 1147053, Control_c, 0, 67, 80
1, 1147083, Control_c, 0, 67, 81
1, 1147098, Control_c, 0, 67, 82
1, 1147113, Control_c, 0, 67, 83
1, 1147128, Control_c, 0, 67, 83
1, 1147143, Control_c, 0, 67, 84
1, 1147158, Control_c, 0, 67, 84
1, 1147172, Control_c, 0, 67, 85
1, 1147187, Control_c, 0, 67, 86
1, 1147202, Control_c, 0, 67, 86
1, 1147217, Control_c, 0, 67, 87
1, 1147246, Control_c, 0, 67, 87
1, 1147250, Note_on_c, 0, 73, 40
1, 1147250, Note_off_c, 0, 67, 61
1, 1147252, Note_on_c, 0, 76, 36
1, 1147261, Control_c, 0, 67, 88
1, 1147276, Control_c, 0, 67, 88
1, 1147290, Control_c, 0, 67, 89
1, 1147364, Control_c, 0, 67, 90
1, 1147379, Control_c, 0, 67, 90
1, 1147416, Note_off_c, 0, 73, 0
1, 1147420, Note_off_c, 0, 76, 24
1, 1147453, Poly_aftertouch_c, 0, 73, 127
1, 1147486, Note_on_c, 0, 79, 63
1, 1147489, Note_on_c, 0, 91, 73
1, 1147495, Note_on_c, 0, 68, 50
1, 1147567, Poly_aftertouch_c, 0, 73, 0
1, 1147600, Note_off_c, 0, 91, 55
1, 1147674, Note_off_c, 0, 68, 39
1, 1147684, Note_on_c, 0, 76, 71
1, 1147684, Note_on_c, 0, 88, 69
1, 1147684, Control_c, 0, 67, 90
1, 1147699, Control_c, 0, 67, 89
1, 1147710, Note_off_c, 0, 79, 49
1, 1147790, Note_off_c, 0, 88, 50
1, 1147882, Note_on_c, 0, 73, 66
1, 1147882, Note_off_c, 0, 76, 57
1, 1147888, Note_on_c, 0, 85, 71
1, 1147937, Note_off_c, 0, 73, 63
1, 1147938, Note_off_c, 0, 85, 65
1, 1148208, Note_on_c, 0, 68, 45
1, 1148284, Note_on_c, 0, 88, 85
1, 1148284, Note_off_c, 0, 68, 57
1, 1148312, Note_on_c, 0, 80, 57
1, 1148341, Note_off_c, 0, 80, 50
1, 1148388, Control_c, 0, 67, 89
1, 1148402, Control_c, 0, 67, 88
1, 1148405, Note_on_c, 0, 80, 28
1, 1148445, Note_on_c, 0, 67, 53
1, 1148465, Note_off_c, 0, 80, 0
1, 1148465, Note_on_c, 0, 80, 11
1, 1148482, Note_off_c, 0, 67, 64
1, 1148535, Control_c, 0, 67, 89
1, 1148550, Control_c, 0, 67, 90
1, 1148565, Control_c, 0, 67, 90
1, 1148577, Note_off_c, 0, 80, 39
1, 1148594, Control_c, 0, 67, 91
1, 1148609, Control_c, 0, 67, 91
1, 1148639, Control_c, 0, 67, 92
1, 1148682, Note_on_c, 0, 87, 83
1, 1148698, Control_c, 0, 64, 94
1, 1148703, Note_on_c, 0, 79, 70
1, 1148708, Note_off_c, 0, 88, 64
1, 1148713, Control_c, 0, 64, 75
1, 1148721, Note_on_c, 0, 76, 61
1, 1148722, Note_on_c, 0, 68, 57
1, 1148728, Control_c, 0, 64, 65
1, 1148738, Note_on_c, 0, 69, 44
1, 1148742, Control_c, 0, 64, 63
1, 1148757, Control_c, 0, 64, 67
1, 1148772, Control_c, 0, 64, 73
1, 1148780, Note_off_c, 0, 69, 57
1, 1148787, Control_c, 0, 64, 85
1, 1148788, Note_off_c, 0, 76, 61
1, 1148802, Control_c, 0, 64, 94
1, 1148816, Control_c, 0, 64, 99
1, 1148831, Control_c, 0, 64, 102
1, 1148920, Control_c, 0, 64, 96
1, 1148935, Control_c, 0, 64, 84
1, 1148949, Control_c, 0, 64, 71
1, 1148972, Control_c, 0, 64, 62
1, 1148987, Control_c, 0, 64, 58
1, 1148990, Note_on_c, 0, 69, 52
1, 1148993, Note_on_c, 0, 76, 56
1, 1149001, Control_c, 0, 64, 62
1, 1149016, Control_c, 0, 64, 66
1, 1149031, Control_c, 0, 64, 73
1, 1149040, Note_off_c, 0, 69, 56
1, 1149046, Control_c, 0, 64, 79
1, 1149054, Note_off_c, 0, 76, 55
1, 1149061, Control_c, 0, 64, 82
1, 1149075, Control_c, 0, 64, 85
1, 1149090, Control_c, 0, 64, 87
1, 1149095, Note_on_c, 0, 80, 80
1, 1149101, Note_on_c, 0, 78, 67
1, 1149104, Note_off_c, 0, 79, 62
1, 1149105, Control_c, 0, 64, 88
1, 1149120, Control_c, 0, 64, 89
1, 1149135, Control_c, 0, 64, 89
1, 1149146, Note_off_c, 0, 87, 62
1, 1149164, Control_c, 0, 64, 89
1, 1149164, Control_c, 0, 67, 91
1, 1149180, Control_c, 0, 64, 88
1, 1149224, Control_c, 0, 64, 89
1, 1149235, Note_on_c, 0, 70, 59
1, 1149236, Note_on_c, 0, 76, 64
1, 1149240, Control_c, 0, 64, 91
1, 1149255, Control_c, 0, 64, 95
1, 1149266, Note_off_c, 0, 76, 66
1, 1149270, Note_off_c, 0, 70, 65
1, 1149270, Control_c, 0, 64, 99
1, 1149270, Control_c, 0, 67, 91
1, 1149275, Note_off_c, 0, 78, 61
1, 1149285, Control_c, 0, 64, 103
1, 1149285, Control_c, 0, 67, 90
1, 1149289, Note_off_c, 0, 68, 57
1, 1149299, Control_c, 0, 64, 106
1, 1149314, Control_c, 0, 64, 109
1, 1149329, Control_c, 0, 64, 112
1, 1149344, Control_c, 0, 64, 115
1, 1149359, Control_c, 0, 64, 117
1, 1149359, Control_c, 0, 67, 91
1, 1149373, Control_c, 0, 67, 91
1, 1149462, Control_c, 0, 64, 112
1, 1149477, Control_c, 0, 64, 97
1, 1149488, Note_on_c, 0, 87, 83
1, 1149492, Control_c, 0, 64, 75
1, 1149501, Note_on_c, 0, 77, 64
1, 1149501, Note_off_c, 0, 80, 64
1, 1149505, Note_on_c, 0, 79, 61
1, 1149507, Control_c, 0, 64, 61
1, 1149522, Control_c, 0, 64, 45
1, 1149528, Note_on_c, 0, 71, 43
1, 1149536, Control_c, 0, 64, 42
1, 1149542, Note_on_c, 0, 68, 33
1, 1149551, Control_c, 0, 64, 49
1, 1149566, Control_c, 0, 64, 59
1, 1149581, Control_c, 0, 64, 67
1, 1149592, Note_off_c, 0, 79, 64
1, 1149596, Control_c, 0, 64, 73
1, 1149610, Control_c, 0, 64, 80
1, 1149610, Control_c, 0, 67, 92
1, 1149619, Note_off_c, 0, 71, 58
1, 1149625, Control_c, 0, 64, 85
1, 1149625, Control_c, 0, 67, 92
1, 1149640, Control_c, 0, 64, 89
1, 1149655, Control_c, 0, 64, 91
1, 1149669, Note_off_c, 0, 77, 57
1, 1149670, Control_c, 0, 64, 93
1, 1149684, Control_c, 0, 64, 93
1, 1149736, Control_c, 0, 67, 93
1, 1149751, Control_c, 0, 67, 93
1, 1149766, Control_c, 0, 64, 92
1, 1149766, Control_c, 0, 67, 94
1, 1149781, Control_c, 0, 64, 84
1, 1149781, Control_c, 0, 67, 95
1, 1149795, Note_on_c, 0, 78, 59
1, 1149796, Control_c, 0, 64, 70
1, 1149796, Control_c, 0, 67, 96
1, 1149811, Note_on_c, 0, 72, 44
1, 1149811, Control_c, 0, 64, 57
1, 1149825, Control_c, 0, 64, 40
1, 1149825, Control_c, 0, 67, 98
1, 1149840, Control_c, 0, 64, 38
1, 1149854, Note_off_c, 0, 72, 56
1, 1149855, Control_c, 0, 64, 47
1, 1149870, Control_c, 0, 64, 60
1, 1149885, Control_c, 0, 64, 69
1, 1149889, Note_on_c, 0, 85, 76
1, 1149899, Control_c, 0, 64, 75
1, 1149909, Note_on_c, 0, 81, 47
1, 1149914, Control_c, 0, 64, 79
1, 1149919, Note_off_c, 0, 87, 66
1, 1149929, Control_c, 0, 64, 80
1, 1149930, Note_off_c, 0, 78, 48
1, 1149959, Control_c, 0, 64, 79
1, 1149973, Control_c, 0, 64, 75
1, 1149988, Control_c, 0, 64, 66
1, 1150003, Control_c, 0, 64, 58
1, 1150005, Note_off_c, 0, 81, 58
1, 1150017, Control_c, 0, 64, 54
1, 1150032, Control_c, 0, 64, 58
1, 1150048, Control_c, 0, 64, 64
1, 1150050, Note_on_c, 0, 79, 53
1, 1150063, Note_on_c, 0, 73, 45
1, 1150063, Control_c, 0, 64, 70
1, 1150078, Control_c, 0, 64, 78
1, 1150093, Control_c, 0, 64, 87
1, 1150100, Note_off_c, 0, 79, 62
1, 1150108, Control_c, 0, 64, 91
1, 1150120, Note_off_c, 0, 73, 54
1, 1150122, Control_c, 0, 64, 95
1, 1150137, Control_c, 0, 64, 99
1, 1150152, Control_c, 0, 64, 103
1, 1150167, Control_c, 0, 64, 105
1, 1150270, Control_c, 0, 64, 101
1, 1150285, Control_c, 0, 64, 96
1, 1150300, Control_c, 0, 64, 90
1, 1150314, Control_c, 0, 64, 82
1, 1150329, Control_c, 0, 64, 75
1, 1150344, Control_c, 0, 64, 68
1, 1150359, Control_c, 0, 64, 61
1, 1150363, Note_on_c, 0, 92, 71
1, 1150374, Control_c, 0, 64, 48
1, 1150386, Note_on_c, 0, 80, 43
1, 1150389, Control_c, 0, 64, 0
1, 1150398, Note_on_c, 0, 78, 34
1, 1150401, Note_on_c, 0, 74, 43
1, 1150424, Note_off_c, 0, 85, 59
1, 1150485, Control_c, 0, 67, 100
1, 1150529, Control_c, 0, 67, 105
1, 1150544, Control_c, 0, 64, 36
1, 1150544, Control_c, 0, 67, 117
1, 1150559, Note_off_c, 0, 78, 50
1, 1150559, Control_c, 0, 64, 51
1, 1150559, Control_c, 0, 67, 125
1, 1150561, Note_off_c, 0, 74, 50
1, 1150574, Control_c, 0, 64, 57
1, 1150574, Control_c, 0, 67, 127
1, 1150589, Control_c, 0, 64, 59
1, 1150604, Control_c, 0, 64, 60
1, 1150619, Control_c, 0, 64, 62
1, 1150633, Control_c, 0, 64, 64
1, 1150648, Control_c, 0, 64, 66
1, 1150663, Control_c, 0, 64, 67
1, 1150678, Control_c, 0, 64, 68
1, 1150685, Note_on_c, 0, 78, 28
1, 1150686, Note_on_c, 0, 74, 46
1, 1150693, Control_c, 0, 64, 69
1, 1150708, Control_c, 0, 64, 71
1, 1150722, Control_c, 0, 64, 75
1, 1150737, Control_c, 0, 64, 79
1, 1150752, Control_c, 0, 64, 84
1, 1150758, Note_off_c, 0, 74, 55
1, 1150766, Control_c, 0, 64, 90
1, 1150775, Note_off_c, 0, 78, 38
1, 1150781, Control_c, 0, 64, 96
1, 1150796, Control_c, 0, 64, 102
1, 1150811, Control_c, 0, 64, 109
1, 1150826, Control_c, 0, 64, 121
1, 1150842, Control_c, 0, 64, 127
1, 1150852, Note_off_c, 0, 68, 35
1, 1150960, Note_on_c, 0, 78, 54
1, 1150973, Note_on_c, 0, 74, 33
1, 1150986, Note_off_c, 0, 78, 64
1, 1151008, Note_off_c, 0, 74, 43
1, 1151352, Control_c, 0, 64, 121
1, 1151361, Note_on_c, 0, 32, 41
1, 1151367, Control_c, 0, 64, 113
1, 1151382, Control_c, 0, 64, 109
1, 1151397, Note_off_c, 0, 32, 58
1, 1151397, Control_c, 0, 64, 107
1, 1151411, Control_c, 0, 64, 104
1, 1151441, Control_c, 0, 64, 101
1, 1151471, Control_c, 0, 64, 98
1, 1151501, Control_c, 0, 64, 96
1, 1151516, Control_c, 0, 64, 95
1, 1151531, Control_c, 0, 64, 94
1, 1151545, Control_c, 0, 64, 93
1, 1151560, Control_c, 0, 64, 91
1, 1151575, Control_c, 0, 64, 90
1, 1151589, Control_c, 0, 64, 88
1, 1151604, Control_c, 0, 64, 86
1, 1151616, Note_on_c, 0, 32, 47
1, 1151619, Control_c, 0, 64, 84
1, 1151635, Control_c, 0, 64, 83
1, 1151650, Control_c, 0, 64, 81
1, 1151665, Control_c, 0, 64, 80
1, 1151680, Control_c, 0, 64, 79
1, 1151681, Note_off_c, 0, 32, 58
1, 1151694, Control_c, 0, 64, 78
1, 1151709, Control_c, 0, 64, 76
1, 1151724, Control_c, 0, 64, 75
1, 1151739, Control_c, 0, 64, 74
1, 1151754, Control_c, 0, 64, 74
1, 1151768, Control_c, 0, 64, 73
1, 1151783, Control_c, 0, 64, 72
1, 1151798, Control_c, 0, 64, 70
1, 1151812, Control_c, 0, 64, 69
1, 1151827, Control_c, 0, 64, 67
1, 1151842, Control_c, 0, 64, 66
1, 1151857, Control_c, 0, 64, 65
1, 1151863, Note_on_c, 0, 33, 57
1, 1151901, Note_off_c, 0, 33, 61
1, 1152027, Control_c, 0, 64, 64
1, 1152057, Control_c, 0, 64, 64
1, 1152086, Control_c, 0, 64, 63
1, 1152101, Control_c, 0, 64, 62
1, 1152116, Control_c, 0, 64, 62
1, 1152131, Control_c, 0, 64, 61
1, 1152144, Note_on_c, 0, 33, 53
1, 1152146, Control_c, 0, 64, 60
1, 1152160, Control_c, 0, 64, 58
1, 1152175, Control_c, 0, 64, 57
1, 1152190, Control_c, 0, 64, 55
1, 1152205, Control_c, 0, 64, 53
1, 1152219, Control_c, 0, 64, 50
1, 1152234, Control_c, 0, 64, 48
1, 1152249, Control_c, 0, 64, 44
1, 1152264, Control_c, 0, 64, 41
1, 1152279, Control_c, 0, 64, 38
1, 1152294, Control_c, 0, 64, 36
1, 1152309, Control_c, 0, 64, 34
1, 1152324, Control_c, 0, 64, 32
1, 1152338, Control_c, 0, 64, 30
1, 1152353, Control_c, 0, 64, 0
1, 1152405, Note_on_c, 0, 44, 43
1, 1152427, Control_c, 0, 64, 32
1, 1152443, Control_c, 0, 64, 35
1, 1152458, Control_c, 0, 64, 41
1, 1152473, Control_c, 0, 64, 48
1, 1152488, Control_c, 0, 64, 54
1, 1152502, Control_c, 0, 64, 57
1, 1152517, Control_c, 0, 64, 59
1, 1152532, Control_c, 0, 64, 60
1, 1152547, Control_c, 0, 64, 62
1, 1152562, Control_c, 0, 64, 64
1, 1152577, Control_c, 0, 64, 66
1, 1152591, Control_c, 0, 64, 68
1, 1152606, Control_c, 0, 64, 69
1, 1152621, Control_c, 0, 64, 71
1, 1152635, Control_c, 0, 64, 72
1, 1152649, Note_on_c, 0, 32, 40
1, 1152650, Control_c, 0, 64, 73
1, 1152665, Control_c, 0, 64, 73
1, 1152675, Note_off_c, 0, 33, 52
1, 1152712, Note_off_c, 0, 32, 55
1, 1152751, Note_off_c, 0, 44, 42
1, 1152836, Control_c, 0, 64, 73
1, 1152850, Control_c, 0, 64, 72
1, 1152865, Control_c, 0, 64, 70
1, 1152880, Control_c, 0, 64, 67
1, 1152895, Control_c, 0, 64, 65
1, 1152908, Note_on_c, 0, 44, 48
1, 1152909, Control_c, 0, 64, 64
1, 1152926, Note_on_c, 0, 32, 41
1, 1152939, Control_c, 0, 64, 65
1, 1152964, Note_off_c, 0, 32, 60
1, 1152983, Control_c, 0, 64, 65
1, 1152998, Control_c, 0, 64, 64
1, 1153013, Control_c, 0, 64, 64
1, 1153028, Control_c, 0, 64, 63
1, 1153042, Control_c, 0, 64, 63
1, 1153057, Control_c, 0, 64, 62
1, 1153072, Control_c, 0, 64, 60
1, 1153087, Control_c, 0, 64, 59
1, 1153102, Control_c, 0, 64, 59
1, 1153131, Control_c, 0, 64, 58
1, 1153146, Control_c, 0, 64, 58
1, 1153161, Control_c, 0, 64, 57
1, 1153164, Note_on_c, 0, 32, 54
1, 1153176, Control_c, 0, 64, 56
1, 1153191, Control_c, 0, 64, 56
1, 1153205, Note_off_c, 0, 32, 60
1, 1153206, Control_c, 0, 64, 55
1, 1153221, Control_c, 0, 64, 54
1, 1153236, Control_c, 0, 64, 53
1, 1153251, Control_c, 0, 64, 52
1, 1153266, Control_c, 0, 64, 51
1, 1153280, Control_c, 0, 64, 49
1, 1153295, Control_c, 0, 64, 47
1, 1153310, Control_c, 0, 64, 46
1, 1153325, Control_c, 0, 64, 45
1, 1153340, Control_c, 0, 64, 44
1, 1153355, Control_c, 0, 64, 44
1, 1153399, Control_c, 0, 64, 45
1, 1153414, Control_c, 0, 64, 48
1, 1153415, Note_on_c, 0, 31, 55
1, 1153429, Control_c, 0, 64, 52
1, 1153444, Control_c, 0, 64, 56
1, 1153465, Control_c, 0, 64, 59
1, 1153467, Note_off_c, 0, 31, 60
1, 1153480, Control_c, 0, 64, 60
1, 1153525, Control_c, 0, 64, 60
1, 1153540, Control_c, 0, 64, 59
1, 1153555, Control_c, 0, 64, 58
1, 1153570, Control_c, 0, 64, 56
1, 1153585, Control_c, 0, 64, 54
1, 1153599, Control_c, 0, 64, 52
1, 1153614, Control_c, 0, 64, 51
1, 1153629, Control_c, 0, 64, 50
1, 1153659, Control_c, 0, 64, 51
1, 1153673, Control_c, 0, 64, 53
1, 1153688, Control_c, 0, 64, 56
1, 1153689, Note_on_c, 0, 31, 48
1, 1153703, Control_c, 0, 64, 58
1, 1153718, Control_c, 0, 64, 61
1, 1153733, Control_c, 0, 64, 63
1, 1153747, Control_c, 0, 64, 65
1, 1153762, Control_c, 0, 64, 67
1, 1153775, Note_off_c, 0, 44, 44
1, 1153777, Control_c, 0, 64, 70
1, 1153791, Control_c, 0, 64, 72
1, 1153804, Note_off_c, 0, 92, 64
1, 1153806, Control_c, 0, 64, 75
1, 1153821, Control_c, 0, 64, 77
1, 1153836, Control_c, 0, 64, 80
1, 1153846, Note_off_c, 0, 80, 59
1, 1153851, Control_c, 0, 64, 83
1, 1153865, Control_c, 0, 64, 85
1, 1153880, Control_c, 0, 64, 87
1, 1153895, Control_c, 0, 64, 88
1, 1153910, Control_c, 0, 64, 89
1, 1153925, Control_c, 0, 64, 90
1, 1153939, Control_c, 0, 64, 91
1, 1153943, Note_on_c, 0, 44, 45
1, 1153954, Control_c, 0, 64, 91
1, 1153984, Control_c, 0, 64, 92
1, 1154219, Note_on_c, 0, 32, 45
1, 1154220, Note_off_c, 0, 31, 56
1, 1154259, Control_c, 0, 64, 91
1, 1154289, Note_off_c, 0, 32, 44
1, 1154303, Control_c, 0, 64, 91
1, 1154318, Control_c, 0, 64, 90
1, 1154333, Control_c, 0, 64, 89
1, 1154348, Control_c, 0, 64, 88
1, 1154363, Control_c, 0, 64, 87
1, 1154377, Control_c, 0, 64, 86
1, 1154392, Control_c, 0, 64, 83
1, 1154407, Control_c, 0, 64, 80
1, 1154422, Control_c, 0, 64, 78
1, 1154437, Control_c, 0, 64, 75
1, 1154452, Control_c, 0, 64, 72
1, 1154467, Control_c, 0, 64, 70
1, 1154482, Note_on_c, 0, 67, 68
1, 1154482, Control_c, 0, 64, 66
1, 1154497, Control_c, 0, 64, 62
1, 1154512, Control_c, 0, 64, 56
1, 1154526, Control_c, 0, 64, 50
1, 1154541, Control_c, 0, 64, 42
1, 1154554, Note_on_c, 0, 32, 28
1, 1154556, Control_c, 0, 64, 0
1, 1154630, Control_c, 0, 64, 39
1, 1154645, Control_c, 0, 64, 52
1, 1154660, Control_c, 0, 64, 60
1, 1154675, Control_c, 0, 64, 65
1, 1154682, Note_off_c, 0, 32, 43
1, 1154689, Control_c, 0, 64, 68
1, 1154704, Control_c, 0, 64, 71
1, 1154719, Control_c, 0, 64, 75
1, 1154733, Control_c, 0, 64, 81
1, 1154748, Control_c, 0, 64, 87
1, 1154763, Control_c, 0, 64, 93
1, 1154778, Control_c, 0, 64, 100
1, 1154793, Control_c, 0, 64, 105
1, 1154807, Control_c, 0, 64, 109
1, 1154819, Note_off_c, 0, 67, 57
1, 1154822, Control_c, 0, 64, 112
1, 1154837, Note_on_c, 0, 32, 40
1, 1154838, Control_c, 0, 64, 114
1, 1154853, Control_c, 0, 64, 117
1, 1154868, Control_c, 0, 64, 119
1, 1154913, Note_off_c, 0, 32, 55
1, 1154935, Note_on_c, 0, 67, 79
1, 1154994, Control_c, 0, 64, 113
1, 1155009, Control_c, 0, 64, 102
1, 1155024, Control_c, 0, 64, 86
1, 1155038, Control_c, 0, 64, 71
1, 1155053, Control_c, 0, 64, 60
1, 1155068, Control_c, 0, 64, 49
1, 1155083, Control_c, 0, 64, 51
1, 1155098, Control_c, 0, 64, 58
1, 1155101, Note_on_c, 0, 33, 52
1, 1155112, Control_c, 0, 64, 65
1, 1155112, Control_c, 0, 67, 120
1, 1155127, Control_c, 0, 64, 71
1, 1155127, Control_c, 0, 67, 104
1, 1155142, Control_c, 0, 64, 78
1, 1155142, Control_c, 0, 67, 90
1, 1155156, Control_c, 0, 64, 86
1, 1155156, Control_c, 0, 67, 76
1, 1155171, Control_c, 0, 64, 98
1, 1155171, Control_c, 0, 67, 62
1, 1155186, Control_c, 0, 64, 114
1, 1155186, Control_c, 0, 67, 50
1, 1155201, Control_c, 0, 64, 127
1, 1155201, Control_c, 0, 67, 39
1, 1155216, Control_c, 0, 67, 31
1, 1155230, Note_off_c, 0, 33, 35
1, 1155230, Control_c, 0, 67, 25
1, 1155257, Note_off_c, 0, 67, 57
1, 1155394, Control_c, 0, 64, 107
1, 1155409, Control_c, 0, 64, 95
1, 1155424, Control_c, 0, 64, 85
1, 1155434, Note_on_c, 0, 54, 76
1, 1155438, Control_c, 0, 64, 75
1, 1155438, Control_c, 0, 67, 27
1, 1155453, Control_c, 0, 64, 66
1, 1155468, Control_c, 0, 64, 52
1, 1155483, Control_c, 0, 64, 31
1, 1155498, Control_c, 0, 64, 0
1, 1155501, Note_on_c, 0, 33, 41
1, 1155542, Control_c, 0, 67, 30
1, 1155601, Control_c, 0, 67, 32
1, 1155616, Control_c, 0, 67, 32
1, 1155632, Control_c, 0, 67, 33
1, 1155647, Control_c, 0, 64, 49
1, 1155647, Control_c, 0, 67, 34
1, 1155661, Control_c, 0, 64, 69
1, 1155661, Control_c, 0, 67, 35
1, 1155676, Control_c, 0, 64, 80
1, 1155676, Control_c, 0, 67, 35
1, 1155691, Control_c, 0, 64, 99
1, 1155691, Control_c, 0, 67, 36
1, 1155708, Note_off_c, 0, 54, 64
1, 1155713, Note_off_c, 0, 33, 54
1, 1155713, Control_c, 0, 64, 127
1, 1155921, Note_on_c, 0, 33, 44
1, 1155978, Control_c, 0, 67, 37
1, 1155993, Control_c, 0, 67, 38
1, 1156008, Control_c, 0, 67, 39
1, 1156023, Control_c, 0, 67, 43
1, 1156038, Control_c, 0, 67, 49
1, 1156053, Control_c, 0, 67, 57
1, 1156068, Control_c, 0, 67, 63
1, 1156083, Control_c, 0, 67, 70
1, 1156097, Control_c, 0, 67, 78
1, 1156112, Control_c, 0, 67, 86
1, 1156127, Control_c, 0, 67, 95
1, 1156142, Control_c, 0, 67, 104
1, 1156153, Note_on_c, 0, 92, 86
1, 1156157, Control_c, 0, 67, 112
1, 1156172, Control_c, 0, 67, 119
1, 1156184, Note_on_c, 0, 80, 53
1, 1156186, Control_c, 0, 67, 126
1, 1156201, Note_off_c, 0, 33, 53
1, 1156216, Control_c, 0, 64, 97
1, 1156231, Control_c, 0, 64, 78
1, 1156241, Note_off_c, 0, 80, 0
1, 1156241, Note_on_c, 0, 80, 32
1, 1156246, Control_c, 0, 64, 62
1, 1156260, Control_c, 0, 64, 0
1, 1156285, Note_on_c, 0, 32, 47
1, 1156304, Control_c, 0, 64, 42
1, 1156319, Control_c, 0, 64, 63
1, 1156334, Control_c, 0, 64, 76
1, 1156345, Note_off_c, 0, 32, 61
1, 1156349, Control_c, 0, 64, 95
1, 1156364, Control_c, 0, 64, 127
1, 1156370, Note_off_c, 0, 44, 42
1, 1156567, Note_on_c, 0, 88, 86
1, 1156587, Note_on_c, 0, 85, 63
1, 1156604, Note_on_c, 0, 73, 68
1, 1156605, Note_off_c, 0, 92, 64
1, 1156619, Note_off_c, 0, 80, 43
1, 1156637, Note_on_c, 0, 64, 29
1, 1156646, Note_off_c, 0, 73, 56
1, 1156670, Note_off_c, 0, 64, 45
1, 1156853, Note_on_c, 0, 56, 54
1, 1156952, Note_on_c, 0, 90, 89
1, 1156960, Note_off_c, 0, 56, 47
1, 1156965, Note_on_c, 0, 81, 71
1, 1156966, Note_off_c, 0, 85, 63
1, 1156972, Note_off_c, 0, 88, 64
1, 1157088, Note_on_c, 0, 64, 50
1, 1157179, Note_off_c, 0, 64, 47
1, 1157261, Note_off_c, 0, 81, 59
1, 1157344, Note_on_c, 0, 91, 91
1, 1157376, Note_on_c, 0, 61, 52
1, 1157377, Note_off_c, 0, 90, 66
1, 1157378, Note_on_c, 0, 82, 51
1, 1157417, Note_off_c, 0, 82, 0
1, 1157417, Note_on_c, 0, 82, 22
1, 1157450, Note_off_c, 0, 82, 57
1, 1157625, Note_on_c, 0, 63, 49
1, 1157857, Note_on_c, 0, 77, 60
1, 1157862, Note_on_c, 0, 69, 54
1, 1157889, Note_off_c, 0, 69, 61
1, 1157895, Note_off_c, 0, 77, 58
1, 1157928, Note_off_c, 0, 63, 41
1, 1157972, Note_off_c, 0, 61, 36
1, 1158154, Note_on_c, 0, 87, 82
1, 1158173, Note_on_c, 0, 78, 63
1, 1158202, Note_on_c, 0, 73, 51
1, 1158226, Control_c, 0, 64, 108
1, 1158241, Note_off_c, 0, 91, 58
1, 1158241, Control_c, 0, 64, 98
1, 1158256, Control_c, 0, 64, 92
1, 1158271, Control_c, 0, 64, 89
1, 1158285, Control_c, 0, 64, 88
1, 1158315, Control_c, 0, 64, 88
1, 1158330, Control_c, 0, 64, 85
1, 1158345, Control_c, 0, 64, 79
1, 1158360, Control_c, 0, 64, 70
1, 1158375, Control_c, 0, 64, 61
1, 1158389, Control_c, 0, 64, 51
1, 1158404, Control_c, 0, 64, 44
1, 1158419, Control_c, 0, 64, 45
1, 1158434, Control_c, 0, 64, 52
1, 1158437, Note_on_c, 0, 56, 49
1, 1158448, Control_c, 0, 64, 60
1, 1158463, Control_c, 0, 64, 64
1, 1158473, Note_off_c, 0, 56, 60
1, 1158478, Control_c, 0, 64, 65
1, 1158522, Control_c, 0, 64, 65
1, 1158552, Control_c, 0, 64, 64
1, 1158581, Control_c, 0, 64, 63
1, 1158596, Control_c, 0, 64, 61
1, 1158611, Control_c, 0, 64, 58
1, 1158626, Control_c, 0, 64, 53
1, 1158641, Control_c, 0, 64, 50
1, 1158655, Control_c, 0, 64, 49
1, 1158667, Note_off_c, 0, 73, 35
1, 1158670, Control_c, 0, 64, 52
1, 1158671, Note_on_c, 0, 55, 60
1, 1158685, Control_c, 0, 64, 56
1, 1158707, Control_c, 0, 64, 61
1, 1158722, Control_c, 0, 64, 63
1, 1158736, Note_off_c, 0, 55, 59
1, 1158737, Control_c, 0, 64, 65
1, 1158752, Control_c, 0, 64, 66
1, 1158767, Control_c, 0, 64, 67
1, 1158781, Control_c, 0, 64, 68
1, 1158796, Control_c, 0, 64, 68
1, 1158811, Control_c, 0, 64, 69
1, 1158901, Control_c, 0, 64, 68
1, 1158917, Control_c, 0, 64, 67
1, 1158931, Control_c, 0, 64, 63
1, 1158946, Control_c, 0, 64, 58
1, 1158957, Note_on_c, 0, 55, 48
1, 1158961, Control_c, 0, 64, 55
1, 1158976, Control_c, 0, 64, 58
1, 1158991, Control_c, 0, 64, 62
1, 1159005, Control_c, 0, 64, 65
1, 1159020, Control_c, 0, 64, 69
1, 1159035, Control_c, 0, 64, 73
1, 1159050, Control_c, 0, 64, 76
1, 1159065, Control_c, 0, 64, 80
1, 1159069, Note_off_c, 0, 78, 57
1, 1159079, Control_c, 0, 64, 82
1, 1159094, Control_c, 0, 64, 83
1, 1159109, Control_c, 0, 64, 84
1, 1159124, Control_c, 0, 64, 85
1, 1159232, Note_on_c, 0, 66, 36
1, 1159238, Note_on_c, 0, 63, 37
1, 1159242, Control_c, 0, 64, 85
1, 1159257, Control_c, 0, 64, 84
1, 1159272, Control_c, 0, 64, 83
1, 1159287, Control_c, 0, 64, 81
1, 1159302, Control_c, 0, 64, 79
1, 1159317, Control_c, 0, 64, 75
1, 1159326, Note_on_c, 0, 90, 80
1, 1159331, Control_c, 0, 64, 72
1, 1159346, Control_c, 0, 64, 67
1, 1159352, Note_on_c, 0, 81, 48
1, 1159359, Note_off_c, 0, 87, 63
1, 1159361, Control_c, 0, 64, 61
1, 1159366, Note_off_c, 0, 55, 55
1, 1159376, Control_c, 0, 64, 51
1, 1159391, Control_c, 0, 64, 0
1, 1159394, Note_off_c, 0, 81, 0
1, 1159394, Note_on_c, 0, 81, 24
1, 1159496, Note_on_c, 0, 56, 49
1, 1159502, Control_c, 0, 64, 42
1, 1159517, Control_c, 0, 64, 62
1, 1159531, Control_c, 0, 64, 69
1, 1159532, Note_off_c, 0, 63, 57
1, 1159534, Note_off_c, 0, 66, 53
1, 1159546, Control_c, 0, 64, 75
1, 1159559, Note_off_c, 0, 56, 61
1, 1159561, Control_c, 0, 64, 82
1, 1159576, Control_c, 0, 64, 88
1, 1159591, Control_c, 0, 64, 98
1, 1159605, Control_c, 0, 64, 114
1, 1159620, Control_c, 0, 64, 127
1, 1159788, Note_on_c, 0, 32, 49
1, 1159840, Note_off_c, 0, 32, 59
1, 1160051, Note_on_c, 0, 32, 44
1, 1160105, Note_off_c, 0, 32, 54
1, 1160144, Note_off_c, 0, 90, 42
1, 1160165, Note_on_c, 0, 89, 67
1, 1160186, Note_on_c, 0, 80, 43
1, 1160259, Note_off_c, 0, 81, 43
1, 1160348, Note_on_c, 0, 31, 45
1, 1160375, Note_on_c, 0, 85, 73
1, 1160416, Note_off_c, 0, 31, 50
1, 1160425, Note_off_c, 0, 89, 52
1, 1160429, Note_off_c, 0, 80, 47
1, 1160591, Control_c, 0, 64, 117
1, 1160605, Note_on_c, 0, 82, 73
1, 1160606, Control_c, 0, 64, 107
1, 1160621, Note_on_c, 0, 78, 54
1, 1160621, Control_c, 0, 64, 96
1, 1160635, Note_on_c, 0, 31, 40
1, 1160636, Control_c, 0, 64, 86
1, 1160650, Control_c, 0, 64, 75
1, 1160664, Note_off_c, 0, 85, 50
1, 1160665, Control_c, 0, 64, 69
1, 1160680, Control_c, 0, 64, 67
1, 1160694, Control_c, 0, 64, 68
1, 1160709, Control_c, 0, 64, 71
1, 1160724, Control_c, 0, 64, 74
1, 1160739, Control_c, 0, 64, 77
1, 1160754, Control_c, 0, 64, 79
1, 1160769, Control_c, 0, 64, 80
1, 1160783, Control_c, 0, 64, 81
1, 1160798, Control_c, 0, 64, 82
1, 1160828, Control_c, 0, 64, 81
1, 1160843, Control_c, 0, 64, 78
1, 1160858, Control_c, 0, 64, 73
1, 1160873, Control_c, 0, 64, 69
1, 1160876, Note_on_c, 0, 44, 44
1, 1160888, Control_c, 0, 64, 68
1, 1160902, Control_c, 0, 64, 69
1, 1160917, Control_c, 0, 64, 70
1, 1160932, Control_c, 0, 64, 73
1, 1160954, Control_c, 0, 64, 76
1, 1160969, Control_c, 0, 64, 77
1, 1160983, Control_c, 0, 64, 79
1, 1160998, Control_c, 0, 64, 79
1, 1161007, Note_on_c, 0, 85, 75
1, 1161013, Control_c, 0, 64, 80
1, 1161022, Note_off_c, 0, 78, 53
1, 1161028, Note_on_c, 0, 77, 52
1, 1161028, Control_c, 0, 64, 80
1, 1161043, Control_c, 0, 64, 81
1, 1161053, Note_off_c, 0, 82, 58
1, 1161058, Control_c, 0, 64, 82
1, 1161073, Control_c, 0, 64, 83
1, 1161084, Note_off_c, 0, 31, 38
1, 1161087, Control_c, 0, 64, 83
1, 1161126, Note_on_c, 0, 32, 43
1, 1161139, Note_off_c, 0, 77, 37
1, 1161179, Note_off_c, 0, 44, 16
1, 1161185, Note_off_c, 0, 32, 59
1, 1161296, Control_c, 0, 64, 83
1, 1161311, Control_c, 0, 64, 82
1, 1161325, Control_c, 0, 64, 81
1, 1161340, Control_c, 0, 64, 79
1, 1161355, Control_c, 0, 64, 76
1, 1161370, Control_c, 0, 64, 71
1, 1161385, Control_c, 0, 64, 66
1, 1161399, Control_c, 0, 64, 60
1, 1161404, Note_on_c, 0, 84, 74
1, 1161414, Control_c, 0, 64, 56
1, 1161421, Note_on_c, 0, 76, 47
1, 1161429, Control_c, 0, 64, 56
1, 1161430, Note_on_c, 0, 44, 45
1, 1161439, Note_on_c, 0, 32, 33
1, 1161440, Note_off_c, 0, 85, 62
1, 1161444, Control_c, 0, 64, 60
1, 1161459, Control_c, 0, 64, 63
1, 1161473, Control_c, 0, 64, 67
1, 1161488, Control_c, 0, 64, 71
1, 1161494, Note_off_c, 0, 32, 46
1, 1161503, Control_c, 0, 64, 75
1, 1161517, Control_c, 0, 64, 78
1, 1161532, Control_c, 0, 64, 79
1, 1161547, Control_c, 0, 64, 81
1, 1161562, Control_c, 0, 64, 82
1, 1161577, Control_c, 0, 64, 83
1, 1161651, Control_c, 0, 64, 82
1, 1161666, Control_c, 0, 64, 78
1, 1161681, Control_c, 0, 64, 72
1, 1161698, Note_on_c, 0, 32, 46
1, 1161703, Control_c, 0, 64, 67
1, 1161718, Control_c, 0, 64, 64
1, 1161732, Control_c, 0, 64, 65
1, 1161747, Control_c, 0, 64, 68
1, 1161762, Note_off_c, 0, 32, 51
1, 1161762, Control_c, 0, 64, 71
1, 1161777, Control_c, 0, 64, 72
1, 1161813, Note_off_c, 0, 76, 59
1, 1161816, Note_on_c, 0, 77, 62
1, 1161821, Note_on_c, 0, 75, 51
1, 1161845, Note_off_c, 0, 84, 62
1, 1161865, Control_c, 0, 64, 71
1, 1161880, Control_c, 0, 64, 70
1, 1161895, Control_c, 0, 64, 69
1, 1161911, Control_c, 0, 64, 69
1, 1161934, Note_off_c, 0, 75, 53
1, 1161940, Control_c, 0, 64, 69
1, 1161955, Control_c, 0, 64, 70
1, 1161970, Control_c, 0, 64, 71
1, 1161971, Note_on_c, 0, 31, 40
1, 1161985, Control_c, 0, 64, 73
1, 1162000, Control_c, 0, 64, 74
1, 1162015, Control_c, 0, 64, 75
1, 1162026, Note_off_c, 0, 31, 58
1, 1162030, Control_c, 0, 64, 75
1, 1162164, Control_c, 0, 64, 75
1, 1162178, Control_c, 0, 64, 74
1, 1162208, Control_c, 0, 64, 73
1, 1162223, Control_c, 0, 64, 72
1, 1162237, Note_on_c, 0, 82, 66
1, 1162238, Control_c, 0, 64, 70
1, 1162253, Control_c, 0, 64, 68
1, 1162256, Note_on_c, 0, 73, 50
1, 1162267, Control_c, 0, 64, 65
1, 1162272, Note_on_c, 0, 31, 33
1, 1162282, Control_c, 0, 64, 61
1, 1162297, Control_c, 0, 64, 57
1, 1162298, Note_off_c, 0, 77, 56
1, 1162312, Control_c, 0, 64, 58
1, 1162327, Control_c, 0, 64, 60
1, 1162329, Note_off_c, 0, 44, 45
1, 1162341, Control_c, 0, 64, 64
1, 1162356, Control_c, 0, 64, 66
1, 1162371, Control_c, 0, 64, 66
1, 1162386, Control_c, 0, 64, 65
1, 1162401, Control_c, 0, 64, 63
1, 1162415, Control_c, 0, 64, 61
1, 1162430, Control_c, 0, 64, 58
1, 1162453, Control_c, 0, 64, 54
1, 1162468, Control_c, 0, 64, 46
1, 1162482, Control_c, 0, 64, 33
1, 1162497, Control_c, 0, 64, 0
1, 1162514, Note_on_c, 0, 44, 33
1, 1162542, Control_c, 0, 64, 30
1, 1162556, Control_c, 0, 64, 51
1, 1162571, Control_c, 0, 64, 62
1, 1162586, Control_c, 0, 64, 68
1, 1162601, Control_c, 0, 64, 73
1, 1162616, Control_c, 0, 64, 77
1, 1162630, Control_c, 0, 64, 79
1, 1162645, Control_c, 0, 64, 83
1, 1162658, Control_c, 0, 64, 86
1, 1162659, Note_off_c, 0, 82, 62
1, 1162673, Control_c, 0, 64, 87
1, 1162684, Note_off_c, 0, 73, 62
1, 1162688, Control_c, 0, 64, 88
1, 1162767, Note_on_c, 0, 32, 41
1, 1162806, Note_off_c, 0, 31, 38
1, 1162836, Note_off_c, 0, 32, 53
1, 1162852, Control_c, 0, 64, 87
1, 1162867, Control_c, 0, 64, 87
1, 1162882, Control_c, 0, 64, 86
1, 1162896, Control_c, 0, 64, 84
1, 1162911, Control_c, 0, 64, 83
1, 1162926, Control_c, 0, 64, 82
1, 1162941, Control_c, 0, 64, 80
1, 1162956, Control_c, 0, 64, 78
1, 1162970, Control_c, 0, 64, 75
1, 1162985, Control_c, 0, 64, 73
1, 1162992, Note_off_c, 0, 44, 0
1, 1163000, Control_c, 0, 64, 71
1, 1163015, Control_c, 0, 64, 70
1, 1163030, Poly_aftertouch_c, 0, 44, 127
1, 1163030, Control_c, 0, 64, 69
1, 1163040, Note_on_c, 0, 56, 54
1, 1163044, Control_c, 0, 64, 68
1, 1163045, Note_on_c, 0, 32, 36
1, 1163059, Control_c, 0, 64, 66
1, 1163074, Control_c, 0, 64, 65
1, 1163085, Note_off_c, 0, 56, 60
1, 1163088, Control_c, 0, 64, 65
1, 1163097, Note_off_c, 0, 32, 57
1, 1163103, Control_c, 0, 64, 64
1, 1163118, Control_c, 0, 64, 63
1, 1163133, Control_c, 0, 64, 62
1, 1163148, Control_c, 0, 64, 61
1, 1163180, Poly_aftertouch_c, 0, 44, 0
1, 1163215, Control_c, 0, 64, 60
1, 1163244, Control_c, 0, 64, 60
1, 1163259, Control_c, 0, 64, 59
1, 1163274, Control_c, 0, 64, 59
1, 1163289, Control_c, 0, 64, 58
1, 1163294, Note_on_c, 0, 56, 46
1, 1163303, Control_c, 0, 64, 57
1, 1163304, Note_on_c, 0, 32, 49
1, 1163321, Note_on_c, 0, 44, 9
1, 1163333, Control_c, 0, 64, 57
1, 1163348, Control_c, 0, 64, 56
1, 1163357, Note_off_c, 0, 56, 47
1, 1163358, Note_off_c, 0, 32, 53
1, 1163363, Control_c, 0, 64, 55
1, 1163377, Control_c, 0, 64, 54
1, 1163392, Control_c, 0, 64, 53
1, 1163407, Control_c, 0, 64, 52
1, 1163422, Control_c, 0, 64, 51
1, 1163436, Control_c, 0, 64, 50
1, 1163451, Control_c, 0, 64, 49
1, 1163466, Control_c, 0, 64, 48
1, 1163481, Control_c, 0, 64, 47
1, 1163496, Control_c, 0, 64, 47
1, 1163550, Note_on_c, 0, 55, 51
1, 1163555, Note_on_c, 0, 33, 48
1, 1163556, Control_c, 0, 64, 47
1, 1163570, Control_c, 0, 64, 48
1, 1163585, Control_c, 0, 64, 50
1, 1163600, Control_c, 0, 64, 53
1, 1163615, Control_c, 0, 64, 57
1, 1163616, Note_off_c, 0, 33, 61
1, 1163630, Control_c, 0, 64, 58
1, 1163634, Note_off_c, 0, 55, 53
1, 1163660, Control_c, 0, 64, 58
1, 1163749, Control_c, 0, 64, 57
1, 1163779, Note_off_c, 0, 44, 0
1, 1163779, Control_c, 0, 64, 58
1, 1163808, Control_c, 0, 64, 59
1, 1163815, Poly_aftertouch_c, 0, 44, 127
1, 1163817, Note_on_c, 0, 55, 40
1, 1163823, Control_c, 0, 64, 60
1, 1163827, Note_on_c, 0, 33, 46
1, 1163837, Control_c, 0, 64, 61
1, 1163852, Control_c, 0, 64, 63
1, 1163867, Control_c, 0, 64, 65
1, 1163868, Poly_aftertouch_c, 0, 44, 0
1, 1163882, Control_c, 0, 64, 66
1, 1163897, Control_c, 0, 64, 67
1, 1163912, Control_c, 0, 64, 67
1, 1163926, Control_c, 0, 64, 68
1, 1163949, Control_c, 0, 64, 69
1, 1163964, Control_c, 0, 64, 70
1, 1164086, Note_on_c, 0, 44, 38
1, 1164126, Control_c, 0, 64, 69
1, 1164216, Control_c, 0, 64, 69
1, 1164245, Control_c, 0, 64, 68
1, 1164275, Control_c, 0, 64, 68
1, 1164290, Control_c, 0, 64, 67
1, 1164305, Control_c, 0, 64, 67
1, 1164319, Control_c, 0, 64, 66
1, 1164332, Note_off_c, 0, 33, 38
1, 1164334, Control_c, 0, 64, 64
1, 1164343, Note_on_c, 0, 56, 45
1, 1164349, Control_c, 0, 64, 60
1, 1164351, Note_on_c, 0, 32, 33
1, 1164354, Note_off_c, 0, 55, 33
1, 1164364, Control_c, 0, 64, 54
1, 1164379, Control_c, 0, 64, 46
1, 1164393, Control_c, 0, 64, 41
1, 1164408, Control_c, 0, 64, 42
1, 1164424, Control_c, 0, 64, 49
1, 1164425, Note_off_c, 0, 32, 50
1, 1164439, Control_c, 0, 64, 57
1, 1164454, Control_c, 0, 64, 62
1, 1164468, Control_c, 0, 64, 65
1, 1164483, Control_c, 0, 64, 68
1, 1164498, Control_c, 0, 64, 70
1, 1164513, Control_c, 0, 64, 72
1, 1164528, Control_c, 0, 64, 74
1, 1164542, Control_c, 0, 64, 75
1, 1164554, Note_off_c, 0, 56, 61
1, 1164557, Control_c, 0, 64, 76
1, 1164601, Note_on_c, 0, 32, 46
1, 1164646, Note_off_c, 0, 32, 54
1, 1164698, Control_c, 0, 64, 75
1, 1164713, Control_c, 0, 64, 74
1, 1164724, Note_off_c, 0, 44, 44
1, 1164728, Control_c, 0, 64, 74
1, 1164742, Control_c, 0, 64, 73
1, 1164757, Control_c, 0, 64, 72
1, 1164772, Control_c, 0, 64, 70
1, 1164787, Control_c, 0, 64, 69
1, 1164802, Control_c, 0, 64, 68
1, 1164817, Control_c, 0, 64, 66
1, 1164831, Control_c, 0, 64, 65
1, 1164846, Control_c, 0, 64, 64
1, 1164847, Note_on_c, 0, 44, 48
1, 1164861, Control_c, 0, 64, 63
1, 1164863, Note_on_c, 0, 32, 43
1, 1164876, Control_c, 0, 64, 62
1, 1164891, Control_c, 0, 64, 62
1, 1164906, Control_c, 0, 64, 61
1, 1164915, Note_off_c, 0, 32, 52
1, 1164921, Control_c, 0, 64, 60
1, 1164932, Note_off_c, 0, 44, 61
1, 1164936, Control_c, 0, 64, 60
1, 1164950, Control_c, 0, 64, 58
1, 1164965, Control_c, 0, 64, 58
1, 1164980, Control_c, 0, 64, 57
1, 1164994, Control_c, 0, 64, 56
1, 1165009, Control_c, 0, 64, 55
1, 1165024, Control_c, 0, 64, 53
1, 1165039, Control_c, 0, 64, 50
1, 1165054, Control_c, 0, 64, 49
1, 1165068, Control_c, 0, 64, 47
1, 1165083, Control_c, 0, 64, 46
1, 1165098, Control_c, 0, 64, 46
1, 1165113, Control_c, 0, 64, 46
1, 1165121, Note_on_c, 0, 45, 51
1, 1165126, Note_on_c, 0, 31, 40
1, 1165128, Control_c, 0, 64, 49
1, 1165142, Control_c, 0, 64, 54
1, 1165157, Control_c, 0, 64, 57
1, 1165172, Control_c, 0, 64, 59
1, 1165181, Note_off_c, 0, 31, 57
1, 1165185, Note_off_c, 0, 45, 52
1, 1165186, Control_c, 0, 64, 60
1, 1165201, Control_c, 0, 64, 59
1, 1165247, Control_c, 0, 64, 59
1, 1165262, Control_c, 0, 64, 58
1, 1165277, Control_c, 0, 64, 56
1, 1165291, Control_c, 0, 64, 54
1, 1165306, Control_c, 0, 64, 52
1, 1165321, Control_c, 0, 64, 51
1, 1165336, Control_c, 0, 64, 51
1, 1165351, Control_c, 0, 64, 54
1, 1165365, Control_c, 0, 64, 58
1, 1165380, Control_c, 0, 64, 61
1, 1165388, Note_on_c, 0, 31, 38
1, 1165390, Note_on_c, 0, 45, 46
1, 1165395, Control_c, 0, 64, 65
1, 1165410, Control_c, 0, 64, 68
1, 1165425, Control_c, 0, 64, 72
1, 1165447, Control_c, 0, 64, 76
1, 1165454, Note_off_c, 0, 45, 63
1, 1165462, Control_c, 0, 64, 78
1, 1165477, Control_c, 0, 64, 81
1, 1165491, Control_c, 0, 64, 83
1, 1165506, Control_c, 0, 64, 85
1, 1165521, Control_c, 0, 64, 87
1, 1165536, Control_c, 0, 64, 89
1, 1165551, Control_c, 0, 64, 89
1, 1165677, Note_on_c, 0, 45, 47
1, 1165705, Note_off_c, 0, 45, 56
1, 1165744, Control_c, 0, 64, 89
1, 1165759, Control_c, 0, 64, 88
1, 1165773, Control_c, 0, 64, 88
1, 1165788, Control_c, 0, 64, 87
1, 1165803, Control_c, 0, 64, 86
1, 1165817, Control_c, 0, 64, 84
1, 1165832, Control_c, 0, 64, 81
1, 1165847, Control_c, 0, 64, 80
1, 1165862, Control_c, 0, 64, 78
1, 1165877, Control_c, 0, 64, 77
1, 1165891, Control_c, 0, 64, 75
1, 1165906, Control_c, 0, 64, 73
1, 1165910, Note_on_c, 0, 65, 63
1, 1165921, Control_c, 0, 64, 71
1, 1165936, Control_c, 0, 64, 68
1, 1165950, Control_c, 0, 64, 65
1, 1165965, Control_c, 0, 64, 63
1, 1165980, Control_c, 0, 64, 59
1, 1165995, Control_c, 0, 64, 55
1, 1166011, Control_c, 0, 64, 49
1, 1166026, Control_c, 0, 64, 42
1, 1166035, Note_off_c, 0, 31, 37
1, 1166040, Control_c, 0, 64, 0
1, 1166065, Note_on_c, 0, 32, 36
1, 1166072, Note_on_c, 0, 44, 29
1, 1166196, Control_c, 0, 64, 33
1, 1166211, Control_c, 0, 64, 52
1, 1166226, Control_c, 0, 64, 62
1, 1166240, Control_c, 0, 64, 66
1, 1166255, Control_c, 0, 64, 69
1, 1166268, Note_off_c, 0, 65, 64
1, 1166270, Control_c, 0, 64, 71
1, 1166284, Note_off_c, 0, 32, 43
1, 1166285, Control_c, 0, 64, 71
1, 1166300, Control_c, 0, 64, 72
1, 1166311, Note_off_c, 0, 44, 41
1, 1166314, Control_c, 0, 64, 73
1, 1166329, Control_c, 0, 64, 74
1, 1166344, Control_c, 0, 64, 75
1, 1166359, Control_c, 0, 64, 76
1, 1166374, Control_c, 0, 64, 76
1, 1166379, Note_on_c, 0, 65, 73
1, 1166388, Control_c, 0, 64, 77
1, 1166414, Note_on_c, 0, 32, 40
1, 1166417, Control_c, 0, 64, 78
1, 1166432, Control_c, 0, 64, 79
1, 1166435, Poly_aftertouch_c, 0, 44, 127
1, 1166447, Control_c, 0, 64, 81
1, 1166462, Control_c, 0, 64, 82
1, 1166477, Control_c, 0, 64, 84
1, 1166492, Control_c, 0, 64, 86
1, 1166495, Note_off_c, 0, 32, 42
1, 1166507, Control_c, 0, 64, 89
1, 1166521, Control_c, 0, 64, 94
1, 1166536, Control_c, 0, 64, 101
1, 1166551, Control_c, 0, 64, 113
1, 1166565, Control_c, 0, 64, 127
1, 1166668, Note_off_c, 0, 65, 62
1, 1166674, Note_on_c, 0, 32, 40
1, 1166796, Note_on_c, 0, 65, 77
1, 1166922, Control_c, 0, 64, 121
1, 1166926, Note_off_c, 0, 32, 38
1, 1166944, Control_c, 0, 64, 93
1, 1166959, Control_c, 0, 64, 83
1, 1166974, Control_c, 0, 64, 77
1, 1166988, Control_c, 0, 64, 75
1, 1166995, Note_on_c, 0, 33, 41
1, 1166997, Poly_aftertouch_c, 0, 44, 0
1, 1167018, Control_c, 0, 64, 76
1, 1167029, Note_off_c, 0, 33, 53
1, 1167033, Control_c, 0, 64, 81
1, 1167048, Control_c, 0, 64, 87
1, 1167062, Control_c, 0, 64, 96
1, 1167077, Control_c, 0, 64, 111
1, 1167092, Control_c, 0, 64, 127
1, 1167180, Note_off_c, 0, 65, 57
1, 1167375, Note_on_c, 0, 52, 70
1, 1167389, Control_c, 0, 64, 110
1, 1167404, Control_c, 0, 64, 100
1, 1167419, Control_c, 0, 64, 90
1, 1167434, Control_c, 0, 64, 80
1, 1167448, Note_on_c, 0, 33, 30
1, 1167449, Control_c, 0, 64, 73
1, 1167463, Control_c, 0, 64, 66
1, 1167478, Control_c, 0, 64, 59
1, 1167493, Control_c, 0, 64, 47
1, 1167508, Control_c, 0, 64, 0
1, 1167563, Poly_aftertouch_c, 0, 44, 127
1, 1167596, Control_c, 0, 64, 33
1, 1167612, Control_c, 0, 64, 51
1, 1167627, Control_c, 0, 64, 63
1, 1167642, Control_c, 0, 64, 68
1, 1167645, Poly_aftertouch_c, 0, 44, 0
1, 1167657, Control_c, 0, 64, 72
1, 1167672, Control_c, 0, 64, 74
1, 1167689, Poly_aftertouch_c, 0, 44, 127
1, 1167723, Control_c, 0, 64, 74
1, 1167738, Control_c, 0, 64, 72
1, 1167753, Control_c, 0, 64, 69
1, 1167768, Control_c, 0, 64, 65
1, 1167783, Control_c, 0, 64, 60
1, 1167797, Note_off_c, 0, 33, 46
1, 1167797, Control_c, 0, 64, 50
1, 1167812, Control_c, 0, 64, 0
1, 1167873, Note_on_c, 0, 32, 40
1, 1167975, Control_c, 0, 64, 36
1, 1167990, Control_c, 0, 64, 56
1, 1167992, Note_off_c, 0, 32, 61
1, 1168005, Control_c, 0, 64, 64
1, 1168019, Control_c, 0, 64, 72
1, 1168034, Control_c, 0, 64, 85
1, 1168049, Control_c, 0, 64, 101
1, 1168056, Note_off_c, 0, 52, 61
1, 1168057, Poly_aftertouch_c, 0, 44, 0
1, 1168064, Control_c, 0, 64, 127
1, 1168331, Note_on_c, 0, 56, 44
1, 1168405, Note_on_c, 0, 61, 49
1, 1168455, Note_off_c, 0, 56, 50
1, 1168486, Note_on_c, 0, 64, 50
1, 1168537, Note_off_c, 0, 61, 36
1, 1168538, Note_on_c, 0, 67, 50
1, 1168551, Note_off_c, 0, 64, 62
1, 1168574, Note_off_c, 0, 67, 66
1, 1168581, Note_on_c, 0, 68, 64
1, 1168590, Control_c, 0, 67, 119
1, 1168605, Control_c, 0, 67, 92
1, 1168620, Control_c, 0, 67, 62
1, 1168635, Control_c, 0, 67, 27
1, 1168643, Note_on_c, 0, 73, 62
1, 1168650, Control_c, 0, 67, 0
1, 1168700, Note_off_c, 0, 68, 48
1, 1168706, Note_on_c, 0, 76, 53
1, 1168728, Note_off_c, 0, 73, 60
1, 1168884, Note_on_c, 0, 92, 92
1, 1168888, Note_on_c, 0, 80, 65
1, 1168898, Note_off_c, 0, 76, 36
1, 1168929, Note_off_c, 0, 92, 67
1, 1169035, Note_off_c, 0, 80, 56
1, 1169255, Note_on_c, 0, 68, 58
1, 1169257, Note_on_c, 0, 73, 53
1, 1169260, Note_on_c, 0, 76, 54
1, 1169306, Note_off_c, 0, 76, 57
1, 1169336, Poly_aftertouch_c, 0, 80, 127
1, 1169343, Note_off_c, 0, 73, 37
1, 1169347, Note_off_c, 0, 68, 52
1, 1169372, Poly_aftertouch_c, 0, 80, 0
1, 1169522, Note_on_c, 0, 67, 61
1, 1169538, Note_on_c, 0, 73, 41
1, 1169540, Note_on_c, 0, 76, 51
1, 1169586, Note_off_c, 0, 76, 54
1, 1169595, Note_off_c, 0, 73, 43
1, 1169623, Note_off_c, 0, 67, 58
1, 1169797, Note_on_c, 0, 67, 56
1, 1169811, Note_on_c, 0, 76, 47
1, 1169813, Note_on_c, 0, 73, 43
1, 1169878, Note_off_c, 0, 73, 47
1, 1169878, Note_off_c, 0, 76, 56
1, 1169940, Control_c, 0, 67, 20
1, 1170015, Control_c, 0, 67, 22
1, 1170092, Note_on_c, 0, 76, 36
1, 1170098, Note_off_c, 0, 67, 35
1, 1170101, Note_on_c, 0, 73, 43
1, 1170144, Note_off_c, 0, 76, 53
1, 1170155, Note_off_c, 0, 73, 46
1, 1170373, Note_on_c, 0, 79, 53
1, 1170376, Note_on_c, 0, 91, 72
1, 1170385, Note_on_c, 0, 68, 44
1, 1170478, Note_off_c, 0, 91, 54
1, 1170501, Note_off_c, 0, 68, 50
1, 1170567, Note_on_c, 0, 76, 64
1, 1170567, Note_on_c, 0, 88, 70
1, 1170587, Note_off_c, 0, 79, 51
1, 1170592, Control_c, 0, 67, 24
1, 1170606, Control_c, 0, 67, 26
1, 1170621, Control_c, 0, 67, 28
1, 1170651, Control_c, 0, 67, 30
1, 1170664, Note_off_c, 0, 88, 52
1, 1170688, Control_c, 0, 67, 33
1, 1170703, Control_c, 0, 67, 36
1, 1170718, Control_c, 0, 67, 39
1, 1170732, Control_c, 0, 67, 41
1, 1170747, Control_c, 0, 67, 43
1, 1170762, Control_c, 0, 67, 44
1, 1170777, Control_c, 0, 67, 45
1, 1170787, Note_off_c, 0, 76, 47
1, 1170792, Control_c, 0, 67, 46
1, 1170807, Note_on_c, 0, 85, 61
1, 1170808, Control_c, 0, 67, 46
1, 1170808, Note_on_c, 0, 73, 62
1, 1170843, Note_off_c, 0, 85, 65
1, 1170895, Note_off_c, 0, 73, 63
1, 1170926, Control_c, 0, 67, 46
1, 1170955, Control_c, 0, 67, 45
1, 1171015, Control_c, 0, 67, 45
1, 1171118, Note_on_c, 0, 68, 51
1, 1171178, Note_off_c, 0, 68, 53
1, 1171223, Control_c, 0, 67, 44
1, 1171232, Note_on_c, 0, 88, 84
1, 1171267, Control_c, 0, 67, 44
1, 1171269, Note_on_c, 0, 80, 50
1, 1171282, Control_c, 0, 67, 43
1, 1171326, Control_c, 0, 67, 42
1, 1171329, Note_off_c, 0, 80, 0
1, 1171329, Note_on_c, 0, 80, 25
1, 1171370, Control_c, 0, 67, 42
1, 1171378, Note_on_c, 0, 67, 54
1, 1171400, Control_c, 0, 67, 41
1, 1171416, Note_off_c, 0, 67, 60
1, 1171442, Note_off_c, 0, 80, 38
1, 1171635, Note_on_c, 0, 87, 87
1, 1171657, Note_on_c, 0, 79, 62
1, 1171661, Control_c, 0, 64, 103
1, 1171668, Note_off_c, 0, 88, 64
1, 1171672, Note_on_c, 0, 76, 53
1, 1171676, Control_c, 0, 64, 82
1, 1171679, Note_on_c, 0, 68, 42
1, 1171679, Note_on_c, 0, 69, 54
1, 1171691, Control_c, 0, 64, 72
1, 1171705, Control_c, 0, 64, 70
1, 1171720, Control_c, 0, 64, 72
1, 1171735, Control_c, 0, 64, 76
1, 1171736, Note_off_c, 0, 79, 0
1, 1171736, Note_on_c, 0, 79, 32
1, 1171750, Control_c, 0, 64, 82
1, 1171755, Note_off_c, 0, 69, 55
1, 1171765, Control_c, 0, 64, 88
1, 1171779, Control_c, 0, 64, 94
1, 1171783, Note_off_c, 0, 76, 36
1, 1171794, Control_c, 0, 64, 99
1, 1171809, Control_c, 0, 64, 101
1, 1171898, Control_c, 0, 64, 98
1, 1171913, Control_c, 0, 64, 88
1, 1171913, Control_c, 0, 67, 42
1, 1171927, Control_c, 0, 64, 77
1, 1171942, Control_c, 0, 64, 68
1, 1171942, Control_c, 0, 67, 43
1, 1171955, Note_on_c, 0, 69, 47
1, 1171956, Note_on_c, 0, 76, 51
1, 1171957, Control_c, 0, 64, 62
1, 1171972, Control_c, 0, 64, 61
1, 1171972, Control_c, 0, 67, 43
1, 1171986, Control_c, 0, 64, 64
1, 1172001, Control_c, 0, 64, 69
1, 1172001, Control_c, 0, 67, 44
1, 1172016, Control_c, 0, 64, 76
1, 1172016, Control_c, 0, 67, 44
1, 1172031, Control_c, 0, 64, 79
1, 1172031, Control_c, 0, 67, 45
1, 1172046, Control_c, 0, 64, 78
1, 1172046, Control_c, 0, 67, 45
1, 1172058, Note_off_c, 0, 76, 37
1, 1172060, Control_c, 0, 64, 73
1, 1172060, Control_c, 0, 67, 46
1, 1172075, Control_c, 0, 64, 68
1, 1172079, Note_off_c, 0, 69, 50
1, 1172083, Note_on_c, 0, 80, 78
1, 1172090, Control_c, 0, 64, 63
1, 1172095, Note_on_c, 0, 78, 60
1, 1172098, Note_off_c, 0, 79, 61
1, 1172105, Control_c, 0, 64, 62
1, 1172135, Control_c, 0, 64, 64
1, 1172150, Note_off_c, 0, 87, 59
1, 1172150, Control_c, 0, 64, 67
1, 1172164, Control_c, 0, 64, 71
1, 1172186, Control_c, 0, 64, 75
1, 1172201, Control_c, 0, 64, 79
1, 1172216, Control_c, 0, 64, 82
1, 1172218, Note_on_c, 0, 76, 61
1, 1172224, Note_on_c, 0, 70, 51
1, 1172231, Control_c, 0, 64, 84
1, 1172246, Control_c, 0, 64, 87
1, 1172254, Note_off_c, 0, 76, 62
1, 1172259, Note_off_c, 0, 78, 59
1, 1172260, Control_c, 0, 64, 90
1, 1172260, Control_c, 0, 67, 45
1, 1172273, Note_off_c, 0, 70, 57
1, 1172275, Control_c, 0, 64, 93
1, 1172290, Control_c, 0, 64, 96
1, 1172305, Control_c, 0, 64, 98
1, 1172334, Control_c, 0, 64, 101
1, 1172364, Control_c, 0, 64, 104
1, 1172469, Control_c, 0, 64, 102
1, 1172483, Note_on_c, 0, 87, 74
1, 1172483, Control_c, 0, 64, 91
1, 1172488, Note_on_c, 0, 77, 63
1, 1172498, Control_c, 0, 64, 76
1, 1172513, Control_c, 0, 64, 62
1, 1172515, Note_on_c, 0, 71, 44
1, 1172516, Note_off_c, 0, 80, 63
1, 1172528, Control_c, 0, 64, 57
1, 1172543, Control_c, 0, 64, 59
1, 1172558, Control_c, 0, 64, 64
1, 1172573, Control_c, 0, 64, 70
1, 1172588, Control_c, 0, 64, 78
1, 1172602, Control_c, 0, 64, 85
1, 1172612, Note_off_c, 0, 71, 60
1, 1172617, Control_c, 0, 64, 89
1, 1172632, Control_c, 0, 64, 92
1, 1172647, Control_c, 0, 64, 94
1, 1172662, Control_c, 0, 64, 96
1, 1172681, Note_off_c, 0, 77, 58
1, 1172735, Control_c, 0, 64, 95
1, 1172750, Control_c, 0, 64, 86
1, 1172765, Control_c, 0, 64, 75
1, 1172765, Control_c, 0, 67, 46
1, 1172780, Control_c, 0, 64, 69
1, 1172786, Note_on_c, 0, 78, 49
1, 1172802, Note_on_c, 0, 72, 44
1, 1172809, Control_c, 0, 64, 75
1, 1172824, Control_c, 0, 64, 82
1, 1172839, Control_c, 0, 64, 90
1, 1172854, Control_c, 0, 64, 96
1, 1172869, Control_c, 0, 64, 99
1, 1172883, Control_c, 0, 67, 46
1, 1172889, Note_off_c, 0, 78, 34
1, 1172898, Control_c, 0, 64, 101
1, 1172913, Control_c, 0, 67, 47
1, 1172928, Note_off_c, 0, 72, 34
1, 1172930, Note_on_c, 0, 85, 68
1, 1172939, Note_on_c, 0, 81, 55
1, 1172956, Note_off_c, 0, 87, 66
1, 1172980, Control_c, 0, 64, 98
1, 1172995, Control_c, 0, 64, 94
1, 1172995, Control_c, 0, 67, 47
1, 1173009, Control_c, 0, 64, 89
1, 1173009, Control_c, 0, 67, 48
1, 1173024, Control_c, 0, 64, 80
1, 1173024, Control_c, 0, 67, 48
1, 1173039, Control_c, 0, 64, 71
1, 1173039, Control_c, 0, 67, 50
1, 1173054, Control_c, 0, 64, 60
1, 1173054, Control_c, 0, 67, 58
1, 1173069, Control_c, 0, 64, 42
1, 1173069, Control_c, 0, 67, 64
1, 1173083, Control_c, 0, 64, 0
1, 1173083, Control_c, 0, 67, 66
1, 1173098, Control_c, 0, 67, 66
1, 1173113, Control_c, 0, 67, 67
1, 1173121, Note_on_c, 0, 79, 45
1, 1173123, Note_on_c, 0, 73, 39
1, 1173142, Control_c, 0, 64, 49
1, 1173142, Control_c, 0, 67, 68
1, 1173157, Control_c, 0, 64, 61
1, 1173157, Control_c, 0, 67, 70
1, 1173161, Note_off_c, 0, 81, 50
1, 1173172, Control_c, 0, 64, 67
1, 1173172, Control_c, 0, 67, 75
1, 1173187, Note_off_c, 0, 79, 64
1, 1173187, Control_c, 0, 64, 72
1, 1173187, Control_c, 0, 67, 77
1, 1173203, Control_c, 0, 64, 76
1, 1173203, Control_c, 0, 67, 77
1, 1173218, Control_c, 0, 64, 80
1, 1173223, Note_off_c, 0, 73, 59
1, 1173232, Control_c, 0, 64, 86
1, 1173247, Control_c, 0, 64, 94
1, 1173262, Control_c, 0, 64, 102
1, 1173277, Control_c, 0, 64, 111
1, 1173292, Control_c, 0, 64, 116
1, 1173306, Control_c, 0, 67, 78
1, 1173336, Control_c, 0, 67, 79
1, 1173411, Control_c, 0, 64, 113
1, 1173425, Control_c, 0, 64, 111
1, 1173425, Control_c, 0, 67, 79
1, 1173440, Control_c, 0, 64, 107
1, 1173440, Control_c, 0, 67, 80
1, 1173455, Control_c, 0, 64, 102
1, 1173455, Control_c, 0, 67, 80
1, 1173470, Control_c, 0, 64, 95
1, 1173470, Control_c, 0, 67, 87
1, 1173485, Control_c, 0, 64, 88
1, 1173485, Control_c, 0, 67, 91
1, 1173499, Control_c, 0, 64, 81
1, 1173499, Control_c, 0, 67, 92
1, 1173504, Note_on_c, 0, 92, 75
1, 1173514, Control_c, 0, 64, 74
1, 1173529, Control_c, 0, 64, 68
1, 1173533, Note_on_c, 0, 80, 47
1, 1173544, Control_c, 0, 64, 61
1, 1173554, Note_on_c, 0, 78, 31
1, 1173557, Note_on_c, 0, 74, 30
1, 1173558, Control_c, 0, 64, 49
1, 1173566, Note_off_c, 0, 85, 53
1, 1173573, Control_c, 0, 64, 0
1, 1173573, Control_c, 0, 67, 93
1, 1173592, Note_off_c, 0, 80, 0
1, 1173592, Note_on_c, 0, 80, 4
1, 1173758, Control_c, 0, 67, 93
1, 1173773, Control_c, 0, 64, 35
1, 1173788, Control_c, 0, 64, 52
1, 1173789, Note_off_c, 0, 74, 51
1, 1173799, Note_off_c, 0, 78, 45
1, 1173803, Control_c, 0, 64, 62
1, 1173818, Control_c, 0, 64, 66
1, 1173832, Control_c, 0, 64, 68
1, 1173847, Control_c, 0, 64, 70
1, 1173862, Control_c, 0, 64, 72
1, 1173876, Control_c, 0, 64, 74
1, 1173891, Control_c, 0, 64, 77
1, 1173906, Control_c, 0, 64, 79
1, 1173921, Control_c, 0, 64, 81
1, 1173927, Note_on_c, 0, 78, 46
1, 1173936, Control_c, 0, 64, 84
1, 1173944, Note_on_c, 0, 74, 38
1, 1173950, Control_c, 0, 64, 86
1, 1173965, Control_c, 0, 64, 88
1, 1173965, Control_c, 0, 67, 94
1, 1173980, Control_c, 0, 64, 90
1, 1173980, Control_c, 0, 67, 94
1, 1173995, Control_c, 0, 64, 93
1, 1173995, Control_c, 0, 67, 95
1, 1174011, Control_c, 0, 64, 98
1, 1174011, Control_c, 0, 67, 95
1, 1174024, Note_off_c, 0, 74, 49
1, 1174026, Control_c, 0, 64, 102
1, 1174026, Control_c, 0, 67, 98
1, 1174041, Control_c, 0, 64, 107
1, 1174041, Control_c, 0, 67, 108
1, 1174048, Note_off_c, 0, 78, 36
1, 1174055, Control_c, 0, 64, 111
1, 1174055, Control_c, 0, 67, 116
1, 1174070, Control_c, 0, 64, 117
1, 1174070, Control_c, 0, 67, 125
1, 1174085, Control_c, 0, 64, 127
1, 1174085, Control_c, 0, 67, 127
1, 1174132, Note_off_c, 0, 68, 40
1, 1174294, Note_on_c, 0, 74, 28
1, 1174296, Note_on_c, 0, 78, 33
1, 1174327, Note_off_c, 0, 74, 52
1, 1174327, Note_off_c, 0, 78, 56
1, 1174772, Note_on_c, 0, 32, 34
1, 1174820, Note_off_c, 0, 32, 57
1, 1175058, Note_on_c, 0, 32, 35
1, 1175101, Note_off_c, 0, 32, 53
1, 1175321, Note_on_c, 0, 32, 45
1, 1175369, Note_off_c, 0, 32, 57
1, 1175610, Note_on_c, 0, 32, 35
1, 1175687, Control_c, 0, 64, 108
1, 1175701, Control_c, 0, 64, 98
1, 1175716, Control_c, 0, 64, 93
1, 1175731, Control_c, 0, 64, 90
1, 1175745, Control_c, 0, 64, 87
1, 1175760, Control_c, 0, 64, 84
1, 1175775, Control_c, 0, 64, 80
1, 1175790, Control_c, 0, 64, 76
1, 1175805, Control_c, 0, 64, 71
1, 1175819, Control_c, 0, 64, 68
1, 1175834, Control_c, 0, 64, 66
1, 1175849, Control_c, 0, 64, 64
1, 1175864, Note_on_c, 0, 44, 42
1, 1175864, Control_c, 0, 64, 62
1, 1175894, Control_c, 0, 64, 64
1, 1175909, Control_c, 0, 64, 68
1, 1175931, Control_c, 0, 64, 71
1, 1175946, Control_c, 0, 64, 73
1, 1175960, Control_c, 0, 64, 75
1, 1175975, Control_c, 0, 64, 77
1, 1175990, Control_c, 0, 64, 80
1, 1175993, Note_off_c, 0, 32, 40
1, 1176005, Control_c, 0, 64, 82
1, 1176020, Control_c, 0, 64, 85
1, 1176034, Control_c, 0, 64, 87
1, 1176049, Control_c, 0, 64, 89
1, 1176064, Control_c, 0, 64, 92
1, 1176078, Control_c, 0, 64, 95
1, 1176079, Note_off_c, 0, 92, 51
1, 1176093, Control_c, 0, 64, 98
1, 1176108, Control_c, 0, 64, 101
1, 1176123, Control_c, 0, 64, 104
1, 1176135, Note_on_c, 0, 32, 40
1, 1176138, Control_c, 0, 64, 106
1, 1176153, Control_c, 0, 64, 109
1, 1176168, Control_c, 0, 64, 112
1, 1176169, Note_off_c, 0, 80, 44
1, 1176183, Control_c, 0, 64, 116
1, 1176212, Note_off_c, 0, 32, 41
1, 1176213, Control_c, 0, 64, 118
1, 1176242, Control_c, 0, 64, 121
1, 1176257, Control_c, 0, 64, 126
1, 1176410, Note_on_c, 0, 32, 38
1, 1176463, Note_off_c, 0, 32, 44
1, 1176700, Note_on_c, 0, 32, 35
1, 1176749, Note_off_c, 0, 32, 46
1, 1176966, Note_on_c, 0, 32, 34
1, 1177017, Note_off_c, 0, 32, 45
1, 1177250, Note_on_c, 0, 80, 66
1, 1177256, Note_off_c, 0, 44, 36
1, 1177286, Note_on_c, 0, 32, 26
1, 1177342, Note_off_c, 0, 80, 60
1, 1177590, Note_on_c, 0, 44, 32
1, 1177697, Note_off_c, 0, 32, 36
1, 1177883, Note_on_c, 0, 32, 24
1, 1177981, Note_off_c, 0, 32, 32
1, 1178236, Control_c, 0, 64, 109
1, 1178237, Note_on_c, 0, 68, 60
1, 1178251, Control_c, 0, 64, 90
1, 1178262, Note_on_c, 0, 56, 44
1, 1178266, Control_c, 0, 64, 75
1, 1178277, Note_on_c, 0, 31, 42
1, 1178280, Control_c, 0, 64, 64
1, 1178295, Control_c, 0, 64, 53
1, 1178310, Control_c, 0, 64, 53
1, 1178325, Control_c, 0, 64, 57
1, 1178340, Control_c, 0, 64, 62
1, 1178345, Note_off_c, 0, 31, 53
1, 1178354, Control_c, 0, 64, 65
1, 1178369, Control_c, 0, 64, 67
1, 1178384, Control_c, 0, 64, 67
1, 1178399, Control_c, 0, 64, 68
1, 1178414, Control_c, 0, 64, 69
1, 1178428, Control_c, 0, 64, 72
1, 1178443, Control_c, 0, 64, 74
1, 1178458, Control_c, 0, 64, 74
1, 1178487, Control_c, 0, 64, 72
1, 1178502, Control_c, 0, 64, 66
1, 1178517, Control_c, 0, 64, 62
1, 1178532, Control_c, 0, 64, 60
1, 1178547, Control_c, 0, 64, 62
1, 1178559, Note_on_c, 0, 31, 42
1, 1178562, Control_c, 0, 64, 65
1, 1178576, Control_c, 0, 64, 69
1, 1178591, Control_c, 0, 64, 73
1, 1178606, Control_c, 0, 64, 75
1, 1178620, Note_off_c, 0, 31, 55
1, 1178621, Control_c, 0, 64, 76
1, 1178636, Control_c, 0, 64, 77
1, 1178651, Control_c, 0, 64, 78
1, 1178665, Control_c, 0, 64, 78
1, 1178710, Control_c, 0, 64, 77
1, 1178725, Control_c, 0, 64, 73
1, 1178739, Control_c, 0, 64, 69
1, 1178754, Control_c, 0, 64, 66
1, 1178769, Control_c, 0, 64, 65
1, 1178773, Note_off_c, 0, 44, 0
1, 1178784, Control_c, 0, 64, 66
1, 1178800, Control_c, 0, 64, 67
1, 1178812, Poly_aftertouch_c, 0, 44, 127
1, 1178815, Control_c, 0, 64, 69
1, 1178830, Control_c, 0, 64, 71
1, 1178843, Note_on_c, 0, 31, 35
1, 1178844, Control_c, 0, 64, 73
1, 1178859, Control_c, 0, 64, 75
1, 1178874, Control_c, 0, 64, 78
1, 1178889, Control_c, 0, 64, 79
1, 1178903, Control_c, 0, 64, 80
1, 1178919, Note_off_c, 0, 31, 58
1, 1178955, Control_c, 0, 64, 80
1, 1179074, Control_c, 0, 64, 80
1, 1179089, Control_c, 0, 64, 79
1, 1179103, Control_c, 0, 64, 77
1, 1179118, Control_c, 0, 64, 75
1, 1179133, Control_c, 0, 64, 74
1, 1179148, Control_c, 0, 64, 74
1, 1179163, Control_c, 0, 64, 73
1, 1179177, Control_c, 0, 64, 72
1, 1179192, Control_c, 0, 64, 70
1, 1179207, Control_c, 0, 64, 69
1, 1179217, Note_on_c, 0, 31, 37
1, 1179221, Poly_aftertouch_c, 0, 44, 0
1, 1179221, Control_c, 0, 64, 67
1, 1179236, Control_c, 0, 64, 65
1, 1179251, Control_c, 0, 64, 63
1, 1179266, Control_c, 0, 64, 60
1, 1179281, Control_c, 0, 64, 57
1, 1179295, Control_c, 0, 64, 53
1, 1179310, Control_c, 0, 64, 47
1, 1179325, Control_c, 0, 64, 0
1, 1179503, Control_c, 0, 64, 44
1, 1179518, Control_c, 0, 64, 55
1, 1179533, Control_c, 0, 64, 60
1, 1179548, Control_c, 0, 64, 62
1, 1179562, Control_c, 0, 64, 64
1, 1179577, Control_c, 0, 64, 66
1, 1179593, Control_c, 0, 64, 69
1, 1179605, Note_off_c, 0, 56, 55
1, 1179608, Control_c, 0, 64, 72
1, 1179623, Control_c, 0, 64, 75
1, 1179637, Control_c, 0, 64, 78
1, 1179652, Control_c, 0, 64, 80
1, 1179674, Control_c, 0, 64, 83
1, 1179689, Control_c, 0, 64, 85
1, 1179704, Control_c, 0, 64, 87
1, 1179718, Control_c, 0, 64, 88
1, 1179733, Control_c, 0, 64, 90
1, 1179748, Control_c, 0, 64, 91
1, 1179753, Note_off_c, 0, 68, 60
1, 1179763, Control_c, 0, 64, 93
1, 1179778, Control_c, 0, 64, 95
1, 1179793, Control_c, 0, 64, 98
1, 1179808, Control_c, 0, 64, 101
1, 1179837, Control_c, 0, 64, 103
1, 1179882, Control_c, 0, 64, 105
1, 1179907, Note_on_c, 0, 44, 29
1, 1180031, Control_c, 0, 64, 107
1, 1180130, Note_off_c, 0, 31, 37
1, 1180149, Control_c, 0, 64, 109
1, 1180235, Note_on_c, 0, 80, 64
1, 1180567, Note_on_c, 0, 31, 37
1, 1180643, Note_off_c, 0, 31, 43
1, 1180940, Note_on_c, 0, 31, 33
1, 1181015, Control_c, 0, 64, 107
1, 1181030, Control_c, 0, 64, 105
1, 1181060, Control_c, 0, 64, 101
1, 1181074, Control_c, 0, 64, 99
1, 1181089, Control_c, 0, 64, 97
1, 1181104, Control_c, 0, 64, 96
1, 1181119, Control_c, 0, 64, 94
1, 1181134, Control_c, 0, 64, 93
1, 1181149, Control_c, 0, 64, 91
1, 1181171, Control_c, 0, 64, 90
1, 1181186, Control_c, 0, 64, 89
1, 1181202, Control_c, 0, 64, 87
1, 1181217, Control_c, 0, 64, 85
1, 1181232, Control_c, 0, 64, 84
1, 1181246, Control_c, 0, 64, 82
1, 1181261, Control_c, 0, 64, 81
1, 1181276, Control_c, 0, 64, 80
1, 1181289, Note_on_c, 0, 81, 55
1, 1181290, Control_c, 0, 64, 78
1, 1181305, Control_c, 0, 64, 76
1, 1181320, Control_c, 0, 64, 75
1, 1181335, Control_c, 0, 64, 74
1, 1181350, Control_c, 0, 64, 72
1, 1181364, Control_c, 0, 64, 69
1, 1181374, Note_off_c, 0, 80, 40
1, 1181379, Control_c, 0, 64, 66
1, 1181394, Control_c, 0, 64, 61
1, 1181409, Control_c, 0, 64, 55
1, 1181423, Control_c, 0, 64, 49
1, 1181438, Control_c, 0, 64, 40
1, 1181453, Control_c, 0, 64, 30
1, 1181468, Control_c, 0, 64, 0
1, 1181557, Control_c, 0, 64, 37
1, 1181572, Control_c, 0, 64, 47
1, 1181587, Control_c, 0, 64, 56
1, 1181602, Control_c, 0, 64, 61
1, 1181616, Control_c, 0, 64, 65
1, 1181631, Control_c, 0, 64, 67
1, 1181646, Control_c, 0, 64, 68
1, 1181661, Control_c, 0, 64, 70
1, 1181676, Control_c, 0, 64, 73
1, 1181690, Control_c, 0, 64, 77
1, 1181705, Control_c, 0, 64, 80
1, 1181720, Control_c, 0, 64, 83
1, 1181735, Control_c, 0, 64, 86
1, 1181750, Control_c, 0, 64, 88
1, 1181764, Control_c, 0, 64, 90
1, 1181779, Control_c, 0, 64, 92
1, 1181794, Control_c, 0, 64, 94
1, 1181809, Control_c, 0, 64, 96
1, 1181823, Control_c, 0, 64, 98
1, 1181841, Note_off_c, 0, 31, 33
1, 1181853, Control_c, 0, 64, 101
1, 1181883, Control_c, 0, 64, 103
1, 1181920, Control_c, 0, 64, 105
1, 1181940, Note_off_c, 0, 81, 35
1, 1181950, Control_c, 0, 64, 107
1, 1182262, Control_c, 0, 64, 105
1, 1182321, Control_c, 0, 64, 102
1, 1182351, Control_c, 0, 64, 100
1, 1182372, Note_on_c, 0, 82, 42
1, 1182395, Control_c, 0, 64, 97
1, 1182408, Note_on_c, 0, 30, 14
1, 1182410, Control_c, 0, 64, 96
1, 1182425, Control_c, 0, 64, 94
1, 1182440, Control_c, 0, 64, 92
1, 1182455, Control_c, 0, 64, 89
1, 1182469, Control_c, 0, 64, 87
1, 1182484, Control_c, 0, 64, 84
1, 1182499, Control_c, 0, 64, 81
1, 1182514, Control_c, 0, 64, 77
1, 1182529, Control_c, 0, 64, 74
1, 1182544, Control_c, 0, 64, 70
1, 1182558, Control_c, 0, 64, 67
1, 1182573, Control_c, 0, 64, 64
1, 1182588, Control_c, 0, 64, 60
1, 1182603, Control_c, 0, 64, 58
1, 1182618, Control_c, 0, 64, 56
1, 1182633, Control_c, 0, 64, 56
1, 1182647, Control_c, 0, 64, 55
1, 1182669, Control_c, 0, 64, 53
1, 1182684, Control_c, 0, 64, 50
1, 1182699, Control_c, 0, 64, 46
1, 1182714, Control_c, 0, 64, 41
1, 1182729, Control_c, 0, 64, 38
1, 1182744, Control_c, 0, 64, 33
1, 1182759, Control_c, 0, 64, 0
1, 1183070, Control_c, 0, 64, 31
1, 1183085, Control_c, 0, 64, 39
1, 1183100, Control_c, 0, 64, 46
1, 1183115, Control_c, 0, 64, 54
1, 1183130, Control_c, 0, 64, 58
1, 1183144, Control_c, 0, 64, 60
1, 1183159, Control_c, 0, 64, 61
1, 1183174, Control_c, 0, 64, 62
1, 1183188, Control_c, 0, 64, 63
1, 1183203, Control_c, 0, 64, 65
1, 1183218, Control_c, 0, 64, 67
1, 1183233, Control_c, 0, 64, 69
1, 1183248, Control_c, 0, 64, 70
1, 1183262, Control_c, 0, 64, 71
1, 1183277, Control_c, 0, 64, 73
1, 1183292, Control_c, 0, 64, 75
1, 1183307, Control_c, 0, 64, 77
1, 1183322, Control_c, 0, 64, 80
1, 1183337, Control_c, 0, 64, 83
1, 1183352, Control_c, 0, 64, 86
1, 1183367, Control_c, 0, 64, 89
1, 1183381, Control_c, 0, 64, 91
1, 1183382, Note_off_c, 0, 30, 38
1, 1183396, Control_c, 0, 64, 93
1, 1183400, Note_off_c, 0, 44, 36
1, 1183418, Control_c, 0, 64, 96
1, 1183433, Control_c, 0, 64, 99
1, 1183448, Control_c, 0, 64, 101
1, 1183492, Control_c, 0, 64, 104
1, 1183522, Control_c, 0, 64, 107
1, 1183729, Note_on_c, 0, 83, 62
1, 1183805, Control_c, 0, 64, 104
1, 1183841, Note_off_c, 0, 82, 30
1, 1183879, Control_c, 0, 64, 101
1, 1183893, Control_c, 0, 64, 99
1, 1183908, Control_c, 0, 64, 96
1, 1183923, Control_c, 0, 64, 93
1, 1183938, Control_c, 0, 64, 90
1, 1183953, Control_c, 0, 64, 87
1, 1183967, Control_c, 0, 64, 82
1, 1183982, Control_c, 0, 64, 76
1, 1183997, Control_c, 0, 64, 70
1, 1184011, Control_c, 0, 64, 65
1, 1184026, Control_c, 0, 64, 61
1, 1184041, Control_c, 0, 64, 56
1, 1184056, Control_c, 0, 64, 53
1, 1184071, Control_c, 0, 64, 49
1, 1184085, Control_c, 0, 64, 43
1, 1184100, Control_c, 0, 64, 36
1, 1184115, Control_c, 0, 64, 0
1, 1184240, Note_on_c, 0, 69, 34
1, 1184359, Control_c, 0, 64, 32
1, 1184374, Control_c, 0, 64, 39
1, 1184390, Control_c, 0, 64, 48
1, 1184405, Control_c, 0, 64, 55
1, 1184420, Control_c, 0, 64, 59
1, 1184434, Control_c, 0, 64, 61
1, 1184449, Control_c, 0, 64, 63
1, 1184464, Control_c, 0, 64, 64
1, 1184479, Control_c, 0, 64, 65
1, 1184494, Control_c, 0, 64, 67
1, 1184509, Control_c, 0, 64, 69
1, 1184523, Control_c, 0, 64, 71
1, 1184538, Control_c, 0, 64, 73
1, 1184553, Control_c, 0, 64, 75
1, 1184568, Control_c, 0, 64, 77
1, 1184583, Control_c, 0, 64, 80
1, 1184598, Control_c, 0, 64, 83
1, 1184612, Note_on_c, 0, 63, 36
1, 1184613, Control_c, 0, 64, 85
1, 1184628, Control_c, 0, 64, 88
1, 1184642, Control_c, 0, 64, 91
1, 1184657, Control_c, 0, 64, 93
1, 1184672, Control_c, 0, 64, 95
1, 1184687, Control_c, 0, 64, 97
1, 1184702, Control_c, 0, 64, 100
1, 1184716, Control_c, 0, 64, 104
1, 1184731, Control_c, 0, 64, 109
1, 1184746, Control_c, 0, 64, 113
1, 1184760, Control_c, 0, 64, 117
1, 1184775, Control_c, 0, 64, 127
1, 1184830, Note_on_c, 0, 82, 61
1, 1184847, Note_off_c, 0, 69, 19
1, 1184849, Note_on_c, 0, 73, 44
1, 1184872, Note_off_c, 0, 83, 40
1, 1185096, Note_off_c, 0, 73, 34
1, 1185269, Note_on_c, 0, 85, 65
1, 1185298, Note_off_c, 0, 82, 57
1, 1185532, Note_off_c, 0, 63, 42
1, 1185614, Note_on_c, 0, 81, 69
1, 1185636, Note_on_c, 0, 77, 49
1, 1185711, Note_off_c, 0, 85, 51
1, 1185905, Note_on_c, 0, 59, 39
1, 1186160, Note_on_c, 0, 63, 42
1, 1186243, Control_c, 0, 64, 119
1, 1186258, Control_c, 0, 64, 114
1, 1186260, Note_off_c, 0, 59, 38
1, 1186273, Control_c, 0, 64, 110
1, 1186288, Control_c, 0, 64, 107
1, 1186303, Control_c, 0, 64, 105
1, 1186318, Control_c, 0, 64, 102
1, 1186332, Control_c, 0, 64, 100
1, 1186344, Note_on_c, 0, 80, 63
1, 1186347, Control_c, 0, 64, 98
1, 1186362, Control_c, 0, 64, 95
1, 1186377, Control_c, 0, 64, 89
1, 1186379, Note_on_c, 0, 72, 42
1, 1186379, Note_off_c, 0, 77, 42
1, 1186392, Control_c, 0, 64, 82
1, 1186413, Control_c, 0, 64, 75
1, 1186422, Note_off_c, 0, 81, 37
1, 1186428, Control_c, 0, 64, 70
1, 1186443, Control_c, 0, 64, 67
1, 1186458, Control_c, 0, 64, 68
1, 1186473, Control_c, 0, 64, 69
1, 1186488, Control_c, 0, 64, 72
1, 1186503, Control_c, 0, 64, 74
1, 1186518, Control_c, 0, 64, 76
1, 1186532, Control_c, 0, 64, 79
1, 1186547, Control_c, 0, 64, 82
1, 1186551, Note_off_c, 0, 72, 54
1, 1186562, Control_c, 0, 64, 84
1, 1186577, Control_c, 0, 64, 86
1, 1186592, Control_c, 0, 64, 88
1, 1186606, Control_c, 0, 64, 89
1, 1186621, Control_c, 0, 64, 90
1, 1186636, Control_c, 0, 64, 90
1, 1186666, Control_c, 0, 64, 91
1, 1186686, Note_on_c, 0, 83, 76
1, 1186695, Control_c, 0, 64, 91
1, 1186702, Note_off_c, 0, 63, 35
1, 1186705, Note_on_c, 0, 74, 60
1, 1186715, Note_on_c, 0, 66, 48
1, 1186720, Note_off_c, 0, 80, 60
1, 1186817, Note_off_c, 0, 66, 44
1, 1186933, Control_c, 0, 64, 91
1, 1186948, Control_c, 0, 64, 90
1, 1186962, Control_c, 0, 64, 89
1, 1186977, Control_c, 0, 64, 88
1, 1186992, Control_c, 0, 64, 86
1, 1187007, Control_c, 0, 64, 84
1, 1187022, Control_c, 0, 64, 82
1, 1187026, Note_on_c, 0, 79, 70
1, 1187036, Control_c, 0, 64, 79
1, 1187048, Note_on_c, 0, 75, 47
1, 1187051, Control_c, 0, 64, 75
1, 1187054, Note_off_c, 0, 74, 40
1, 1187066, Control_c, 0, 64, 69
1, 1187068, Note_on_c, 0, 71, 44
1, 1187081, Control_c, 0, 64, 63
1, 1187096, Control_c, 0, 64, 56
1, 1187111, Control_c, 0, 64, 49
1, 1187126, Control_c, 0, 64, 43
1, 1187130, Note_off_c, 0, 83, 50
1, 1187141, Control_c, 0, 64, 38
1, 1187162, Control_c, 0, 64, 38
1, 1187177, Control_c, 0, 64, 40
1, 1187192, Control_c, 0, 64, 46
1, 1187207, Control_c, 0, 64, 53
1, 1187222, Control_c, 0, 64, 59
1, 1187236, Control_c, 0, 64, 62
1, 1187251, Control_c, 0, 64, 65
1, 1187266, Control_c, 0, 64, 67
1, 1187281, Control_c, 0, 64, 69
1, 1187296, Control_c, 0, 64, 73
1, 1187310, Control_c, 0, 64, 76
1, 1187318, Note_on_c, 0, 64, 35
1, 1187325, Control_c, 0, 64, 79
1, 1187340, Control_c, 0, 64, 82
1, 1187355, Control_c, 0, 64, 84
1, 1187370, Control_c, 0, 64, 87
1, 1187385, Control_c, 0, 64, 88
1, 1187400, Control_c, 0, 64, 89
1, 1187415, Control_c, 0, 64, 90
1, 1187421, Note_off_c, 0, 71, 32
1, 1187430, Control_c, 0, 64, 91
1, 1187445, Control_c, 0, 64, 92
1, 1187460, Control_c, 0, 64, 92
1, 1187524, Note_on_c, 0, 59, 43
1, 1187576, Note_off_c, 0, 64, 61
1, 1187609, Control_c, 0, 64, 92
1, 1187638, Control_c, 0, 64, 91
1, 1187653, Control_c, 0, 64, 91
1, 1187668, Control_c, 0, 64, 89
1, 1187683, Control_c, 0, 64, 88
1, 1187698, Control_c, 0, 64, 87
1, 1187707, Note_on_c, 0, 78, 60
1, 1187713, Control_c, 0, 64, 86
1, 1187727, Control_c, 0, 64, 84
1, 1187736, Note_on_c, 0, 69, 41
1, 1187742, Control_c, 0, 64, 83
1, 1187757, Control_c, 0, 64, 81
1, 1187762, Note_off_c, 0, 75, 52
1, 1187764, Note_off_c, 0, 79, 56
1, 1187772, Control_c, 0, 64, 78
1, 1187786, Control_c, 0, 64, 75
1, 1187801, Control_c, 0, 64, 69
1, 1187816, Control_c, 0, 64, 62
1, 1187831, Control_c, 0, 64, 52
1, 1187846, Control_c, 0, 64, 40
1, 1187860, Control_c, 0, 64, 35
1, 1187875, Control_c, 0, 64, 38
1, 1187890, Control_c, 0, 64, 47
1, 1187913, Control_c, 0, 64, 57
1, 1187928, Control_c, 0, 64, 63
1, 1187942, Control_c, 0, 64, 67
1, 1187957, Control_c, 0, 64, 70
1, 1187972, Control_c, 0, 64, 73
1, 1187986, Control_c, 0, 64, 74
1, 1188001, Control_c, 0, 64, 76
1, 1188016, Control_c, 0, 64, 78
1, 1188031, Control_c, 0, 64, 80
1, 1188038, Note_on_c, 0, 81, 69
1, 1188046, Control_c, 0, 64, 83
1, 1188060, Control_c, 0, 64, 86
1, 1188070, Note_off_c, 0, 78, 58
1, 1188075, Control_c, 0, 64, 89
1, 1188090, Control_c, 0, 64, 92
1, 1188104, Control_c, 0, 64, 94
1, 1188119, Control_c, 0, 64, 96
1, 1188134, Control_c, 0, 64, 98
1, 1188149, Control_c, 0, 64, 101
1, 1188164, Control_c, 0, 64, 105
1, 1188179, Control_c, 0, 64, 107
1, 1188223, Control_c, 0, 64, 109
1, 1188357, Control_c, 0, 64, 107
1, 1188372, Control_c, 0, 64, 105
1, 1188378, Note_on_c, 0, 77, 63
1, 1188387, Control_c, 0, 64, 103
1, 1188397, Note_on_c, 0, 73, 55
1, 1188401, Control_c, 0, 64, 98
1, 1188416, Control_c, 0, 64, 93
1, 1188431, Control_c, 0, 64, 88
1, 1188440, Note_off_c, 0, 69, 40
1, 1188446, Control_c, 0, 64, 83
1, 1188461, Control_c, 0, 64, 77
1, 1188476, Control_c, 0, 64, 71
1, 1188491, Control_c, 0, 64, 65
1, 1188506, Control_c, 0, 64, 58
1, 1188521, Control_c, 0, 64, 51
1, 1188535, Control_c, 0, 64, 46
1, 1188550, Control_c, 0, 64, 45
1, 1188565, Control_c, 0, 64, 49
1, 1188569, Note_off_c, 0, 81, 38
1, 1188580, Control_c, 0, 64, 55
1, 1188595, Control_c, 0, 64, 60
1, 1188598, Note_off_c, 0, 59, 36
1, 1188609, Control_c, 0, 64, 64
1, 1188624, Control_c, 0, 64, 67
1, 1188628, Note_on_c, 0, 58, 44
1, 1188639, Control_c, 0, 64, 70
1, 1188661, Control_c, 0, 64, 73
1, 1188676, Control_c, 0, 64, 77
1, 1188691, Control_c, 0, 64, 80
1, 1188706, Control_c, 0, 64, 83
1, 1188720, Control_c, 0, 64, 85
1, 1188735, Control_c, 0, 64, 89
1, 1188750, Control_c, 0, 64, 92
1, 1188765, Control_c, 0, 64, 97
1, 1188780, Control_c, 0, 64, 100
1, 1188795, Control_c, 0, 64, 102
1, 1188839, Control_c, 0, 64, 104
1, 1188855, Note_on_c, 0, 59, 43
1, 1188887, Note_off_c, 0, 58, 36
1, 1189030, Control_c, 0, 64, 101
1, 1189060, Control_c, 0, 64, 99
1, 1189075, Control_c, 0, 64, 97
1, 1189090, Control_c, 0, 64, 94
1, 1189105, Control_c, 0, 64, 92
1, 1189120, Control_c, 0, 64, 91
1, 1189134, Control_c, 0, 64, 89
1, 1189149, Control_c, 0, 64, 87
1, 1189164, Control_c, 0, 64, 84
1, 1189169, Note_on_c, 0, 76, 50
1, 1189171, Note_off_c, 0, 73, 33
1, 1189179, Control_c, 0, 64, 82
1, 1189187, Note_on_c, 0, 72, 39
1, 1189194, Note_on_c, 0, 55, 37
1, 1189194, Control_c, 0, 64, 80
1, 1189209, Control_c, 0, 64, 78
1, 1189224, Control_c, 0, 64, 76
1, 1189239, Control_c, 0, 64, 73
1, 1189239, Note_off_c, 0, 59, 32
1, 1189248, Note_off_c, 0, 77, 48
1, 1189254, Control_c, 0, 64, 71
1, 1189269, Control_c, 0, 64, 68
1, 1189284, Control_c, 0, 64, 65
1, 1189298, Control_c, 0, 64, 63
1, 1189313, Control_c, 0, 64, 60
1, 1189328, Control_c, 0, 64, 57
1, 1189343, Control_c, 0, 64, 52
1, 1189357, Control_c, 0, 64, 45
1, 1189372, Control_c, 0, 64, 36
1, 1189387, Control_c, 0, 64, 0
1, 1189618, Control_c, 0, 64, 33
1, 1189632, Control_c, 0, 64, 46
1, 1189647, Control_c, 0, 64, 57
1, 1189662, Control_c, 0, 64, 62
1, 1189676, Control_c, 0, 64, 63
1, 1189691, Control_c, 0, 64, 64
1, 1189706, Control_c, 0, 64, 65
1, 1189721, Control_c, 0, 64, 66
1, 1189736, Control_c, 0, 64, 68
1, 1189750, Control_c, 0, 64, 70
1, 1189765, Control_c, 0, 64, 71
1, 1189780, Control_c, 0, 64, 72
1, 1189856, Note_on_c, 0, 60, 35
1, 1189913, Control_c, 0, 64, 71
1, 1189928, Control_c, 0, 64, 71
1, 1189943, Control_c, 0, 64, 70
1, 1189958, Control_c, 0, 64, 68
1, 1189973, Control_c, 0, 64, 65
1, 1189988, Control_c, 0, 64, 63
1, 1189999, Note_off_c, 0, 55, 39
1, 1190003, Control_c, 0, 64, 59
1, 1190018, Control_c, 0, 64, 53
1, 1190033, Control_c, 0, 64, 44
1, 1190047, Control_c, 0, 64, 0
1, 1190188, Control_c, 0, 64, 41
1, 1190203, Control_c, 0, 64, 53
1, 1190218, Control_c, 0, 64, 61
1, 1190233, Control_c, 0, 64, 64
1, 1190248, Control_c, 0, 64, 65
1, 1190262, Control_c, 0, 64, 66
1, 1190277, Control_c, 0, 64, 67
1, 1190292, Control_c, 0, 64, 69
1, 1190306, Control_c, 0, 64, 72
1, 1190321, Control_c, 0, 64, 74
1, 1190336, Control_c, 0, 64, 75
1, 1190351, Control_c, 0, 64, 77
1, 1190366, Control_c, 0, 64, 77
1, 1190411, Control_c, 0, 64, 78
1, 1190497, Note_on_c, 0, 64, 34
1, 1190559, Control_c, 0, 64, 77
1, 1190595, Note_off_c, 0, 60, 41
1, 1190603, Control_c, 0, 64, 77
1, 1190633, Control_c, 0, 64, 76
1, 1190647, Control_c, 0, 64, 74
1, 1190662, Control_c, 0, 64, 73
1, 1190677, Control_c, 0, 64, 72
1, 1190692, Control_c, 0, 64, 71
1, 1190706, Control_c, 0, 64, 69
1, 1190721, Control_c, 0, 64, 67
1, 1190736, Control_c, 0, 64, 65
1, 1190751, Control_c, 0, 64, 64
1, 1190766, Control_c, 0, 64, 63
1, 1190782, Control_c, 0, 64, 62
1, 1190796, Control_c, 0, 64, 60
1, 1190811, Control_c, 0, 64, 58
1, 1190826, Control_c, 0, 64, 56
1, 1190841, Control_c, 0, 64, 55
1, 1190856, Control_c, 0, 64, 54
1, 1190870, Control_c, 0, 64, 54
1, 1190885, Control_c, 0, 64, 53
1, 1190908, Control_c, 0, 64, 51
1, 1190922, Note_on_c, 0, 79, 49
1, 1190923, Control_c, 0, 64, 48
1, 1190937, Control_c, 0, 64, 47
1, 1190982, Control_c, 0, 64, 46
1, 1190997, Control_c, 0, 64, 44
1, 1191003, Note_off_c, 0, 76, 47
1, 1191011, Control_c, 0, 64, 41
1, 1191026, Control_c, 0, 64, 40
1, 1191041, Control_c, 0, 64, 43
1, 1191056, Control_c, 0, 64, 49
1, 1191071, Control_c, 0, 64, 57
1, 1191085, Control_c, 0, 64, 61
1, 1191100, Control_c, 0, 64, 63
1, 1191114, Control_c, 0, 64, 65
1, 1191128, Control_c, 0, 64, 68
1, 1191143, Control_c, 0, 64, 72
1, 1191158, Control_c, 0, 64, 77
1, 1191169, Note_off_c, 0, 64, 51
1, 1191173, Control_c, 0, 64, 82
1, 1191188, Control_c, 0, 64, 86
1, 1191202, Control_c, 0, 64, 90
1, 1191217, Control_c, 0, 64, 94
1, 1191232, Control_c, 0, 64, 99
1, 1191246, Control_c, 0, 64, 106
1, 1191261, Control_c, 0, 64, 118
1, 1191276, Control_c, 0, 64, 127
1, 1191412, Note_on_c, 0, 83, 70
1, 1191574, Note_off_c, 0, 79, 37
1, 1191586, Note_off_c, 0, 72, 38
1, 1191655, Control_c, 0, 64, 118
1, 1191670, Control_c, 0, 64, 109
1, 1191684, Control_c, 0, 64, 100
1, 1191699, Control_c, 0, 64, 93
1, 1191714, Control_c, 0, 64, 87
1, 1191729, Control_c, 0, 64, 82
1, 1191744, Control_c, 0, 64, 79
1, 1191758, Control_c, 0, 64, 73
1, 1191773, Control_c, 0, 64, 68
1, 1191788, Control_c, 0, 64, 62
1, 1191803, Control_c, 0, 64, 55
1, 1191818, Control_c, 0, 64, 48
1, 1191832, Control_c, 0, 64, 41
1, 1191847, Control_c, 0, 64, 33
1, 1191862, Control_c, 0, 64, 0
1, 1191937, Control_c, 0, 64, 40
1, 1191951, Control_c, 0, 64, 52
1, 1191966, Control_c, 0, 64, 57
1, 1191970, Note_on_c, 0, 69, 35
1, 1191981, Control_c, 0, 64, 59
1, 1191996, Control_c, 0, 64, 61
1, 1192011, Control_c, 0, 64, 63
1, 1192025, Control_c, 0, 64, 65
1, 1192040, Control_c, 0, 64, 66
1, 1192055, Control_c, 0, 64, 68
1, 1192070, Control_c, 0, 64, 69
1, 1192084, Control_c, 0, 64, 71
1, 1192099, Control_c, 0, 64, 73
1, 1192114, Control_c, 0, 64, 75
1, 1192129, Control_c, 0, 64, 77
1, 1192143, Control_c, 0, 64, 79
1, 1192158, Control_c, 0, 64, 80
1, 1192169, Note_on_c, 0, 82, 66
1, 1192173, Control_c, 0, 64, 81
1, 1192188, Control_c, 0, 64, 82
1, 1192203, Control_c, 0, 64, 84
1, 1192205, Note_on_c, 0, 73, 40
1, 1192217, Note_off_c, 0, 83, 39
1, 1192217, Control_c, 0, 64, 86
1, 1192232, Control_c, 0, 64, 88
1, 1192244, Note_on_c, 0, 63, 36
1, 1192247, Control_c, 0, 64, 91
1, 1192262, Control_c, 0, 64, 92
1, 1192270, Note_off_c, 0, 69, 35
1, 1192277, Control_c, 0, 64, 94
1, 1192292, Control_c, 0, 64, 97
1, 1192306, Control_c, 0, 64, 101
1, 1192321, Control_c, 0, 64, 106
1, 1192336, Control_c, 0, 64, 112
1, 1192351, Control_c, 0, 64, 118
1, 1192366, Control_c, 0, 64, 126
1, 1192378, Note_off_c, 0, 73, 25
1, 1192441, Note_on_c, 0, 59, 15
1, 1192451, Note_off_c, 0, 63, 38
1, 1192496, Note_on_c, 0, 85, 72
1, 1192509, Note_off_c, 0, 82, 50
1, 1192561, Poly_aftertouch_c, 0, 73, 127
1, 1192617, Poly_aftertouch_c, 0, 73, 0
1, 1192639, Note_on_c, 0, 53, 36
1, 1192644, Note_off_c, 0, 59, 39
1, 1192667, Note_off_c, 0, 85, 59
1, 1192819, Note_on_c, 0, 81, 70
1, 1192832, Note_on_c, 0, 77, 59
1, 1193229, Note_on_c, 0, 59, 53
1, 1193252, Note_off_c, 0, 53, 34
1, 1193404, Note_on_c, 0, 80, 70
1, 1193415, Note_on_c, 0, 72, 59
1, 1193421, Note_off_c, 0, 59, 51
1, 1193421, Note_off_c, 0, 77, 54
1, 1193433, Note_on_c, 0, 63, 51
1, 1193441, Note_off_c, 0, 81, 38
1, 1193520, Note_off_c, 0, 72, 61
1, 1193574, Note_off_c, 0, 63, 62
1, 1193616, Note_on_c, 0, 69, 53
1, 1193690, Note_on_c, 0, 83, 70
1, 1193690, Note_off_c, 0, 80, 61
1, 1193690, Note_on_c, 0, 74, 71
1, 1193761, Control_c, 0, 64, 121
1, 1193764, Note_off_c, 0, 69, 36
1, 1193776, Control_c, 0, 64, 116
1, 1193788, Note_on_c, 0, 59, 42
1, 1193790, Control_c, 0, 64, 114
1, 1193805, Control_c, 0, 64, 112
1, 1193835, Control_c, 0, 64, 108
1, 1193849, Control_c, 0, 64, 105
1, 1193864, Control_c, 0, 64, 101
1, 1193879, Control_c, 0, 64, 97
1, 1193901, Control_c, 0, 64, 94
1, 1193916, Control_c, 0, 64, 90
1, 1193931, Control_c, 0, 64, 86
1, 1193946, Control_c, 0, 64, 82
1, 1193961, Control_c, 0, 64, 77
1, 1193976, Control_c, 0, 64, 73
1, 1193986, Note_on_c, 0, 79, 73
1, 1193991, Control_c, 0, 64, 68
1, 1193996, Note_on_c, 0, 75, 60
1, 1194006, Control_c, 0, 64, 62
1, 1194020, Control_c, 0, 64, 52
1, 1194035, Note_on_c, 0, 71, 41
1, 1194035, Note_off_c, 0, 74, 59
1, 1194035, Control_c, 0, 64, 34
1, 1194050, Control_c, 0, 64, 0
1, 1194056, Note_off_c, 0, 83, 54
1, 1194140, Control_c, 0, 64, 39
1, 1194154, Control_c, 0, 64, 54
1, 1194156, Note_off_c, 0, 59, 35
1, 1194169, Control_c, 0, 64, 60
1, 1194184, Control_c, 0, 64, 63
1, 1194199, Control_c, 0, 64, 63
1, 1194214, Control_c, 0, 64, 64
1, 1194224, Note_off_c, 0, 71, 44
1, 1194228, Control_c, 0, 64, 65
1, 1194241, Note_on_c, 0, 64, 21
1, 1194243, Control_c, 0, 64, 67
1, 1194258, Control_c, 0, 64, 69
1, 1194272, Control_c, 0, 64, 70
1, 1194287, Control_c, 0, 64, 72
1, 1194302, Control_c, 0, 64, 73
1, 1194317, Control_c, 0, 64, 74
1, 1194332, Control_c, 0, 64, 75
1, 1194346, Control_c, 0, 64, 75
1, 1194376, Control_c, 0, 64, 76
1, 1194411, Note_on_c, 0, 59, 40
1, 1194441, Note_off_c, 0, 64, 40
1, 1194524, Control_c, 0, 64, 75
1, 1194539, Control_c, 0, 64, 74
1, 1194554, Control_c, 0, 64, 70
1, 1194569, Control_c, 0, 64, 65
1, 1194584, Control_c, 0, 64, 57
1, 1194587, Note_on_c, 0, 78, 59
1, 1194598, Control_c, 0, 64, 48
1, 1194599, Note_on_c, 0, 69, 43
1, 1194613, Control_c, 0, 64, 40
1, 1194628, Note_off_c, 0, 79, 58
1, 1194628, Control_c, 0, 64, 37
1, 1194650, Control_c, 0, 64, 40
1, 1194665, Control_c, 0, 64, 47
1, 1194678, Note_off_c, 0, 75, 59
1, 1194679, Control_c, 0, 64, 55
1, 1194694, Control_c, 0, 64, 61
1, 1194709, Control_c, 0, 64, 65
1, 1194724, Control_c, 0, 64, 69
1, 1194739, Control_c, 0, 64, 72
1, 1194754, Control_c, 0, 64, 74
1, 1194769, Control_c, 0, 64, 76
1, 1194784, Control_c, 0, 64, 78
1, 1194799, Control_c, 0, 64, 81
1, 1194814, Control_c, 0, 64, 83
1, 1194829, Control_c, 0, 64, 85
1, 1194843, Control_c, 0, 64, 87
1, 1194859, Control_c, 0, 64, 87
1, 1194874, Control_c, 0, 64, 88
1, 1194898, Note_on_c, 0, 81, 66
1, 1194903, Control_c, 0, 64, 88
1, 1194951, Note_off_c, 0, 78, 58
1, 1195192, Note_on_c, 0, 77, 62
1, 1195214, Control_c, 0, 64, 88
1, 1195221, Note_on_c, 0, 73, 48
1, 1195229, Control_c, 0, 64, 87
1, 1195244, Control_c, 0, 64, 87
1, 1195259, Control_c, 0, 64, 86
1, 1195274, Control_c, 0, 64, 85
1, 1195288, Control_c, 0, 64, 84
1, 1195296, Note_off_c, 0, 69, 35
1, 1195303, Control_c, 0, 64, 81
1, 1195318, Control_c, 0, 64, 77
1, 1195333, Control_c, 0, 64, 70
1, 1195348, Control_c, 0, 64, 62
1, 1195362, Control_c, 0, 64, 51
1, 1195374, Note_off_c, 0, 81, 45
1, 1195377, Control_c, 0, 64, 38
1, 1195400, Control_c, 0, 64, 0
1, 1195413, Note_on_c, 0, 58, 32
1, 1195419, Note_off_c, 0, 59, 38
1, 1195429, Control_c, 0, 64, 33
1, 1195444, Control_c, 0, 64, 46
1, 1195459, Control_c, 0, 64, 56
1, 1195474, Control_c, 0, 64, 62
1, 1195489, Control_c, 0, 64, 66
1, 1195503, Control_c, 0, 64, 68
1, 1195518, Control_c, 0, 64, 71
1, 1195533, Control_c, 0, 64, 73
1, 1195548, Control_c, 0, 64, 75
1, 1195564, Control_c, 0, 64, 78
1, 1195579, Control_c, 0, 64, 80
1, 1195593, Control_c, 0, 64, 81
1, 1195607, Control_c, 0, 64, 82
1, 1195613, Note_on_c, 0, 59, 37
1, 1195622, Control_c, 0, 64, 83
1, 1195654, Note_off_c, 0, 58, 35
1, 1195785, Control_c, 0, 64, 83
1, 1195800, Control_c, 0, 64, 82
1, 1195815, Control_c, 0, 64, 81
1, 1195830, Control_c, 0, 64, 80
1, 1195844, Control_c, 0, 64, 79
1, 1195859, Control_c, 0, 64, 78
1, 1195866, Note_off_c, 0, 59, 36
1, 1195874, Note_off_c, 0, 73, 46
1, 1195874, Control_c, 0, 64, 77
1, 1195879, Note_on_c, 0, 76, 53
1, 1195889, Control_c, 0, 64, 76
1, 1195904, Control_c, 0, 64, 74
1, 1195911, Note_on_c, 0, 60, 26
1, 1195918, Note_on_c, 0, 72, 24
1, 1195918, Control_c, 0, 64, 73
1, 1195933, Control_c, 0, 64, 71
1, 1195948, Control_c, 0, 64, 68
1, 1195963, Control_c, 0, 64, 66
1, 1195978, Control_c, 0, 64, 63
1, 1195983, Note_off_c, 0, 77, 37
1, 1195992, Control_c, 0, 64, 58
1, 1196007, Control_c, 0, 64, 54
1, 1196022, Control_c, 0, 64, 47
1, 1196036, Control_c, 0, 64, 31
1, 1196051, Control_c, 0, 64, 0
1, 1196192, Control_c, 0, 64, 41
1, 1196207, Control_c, 0, 64, 54
1, 1196222, Control_c, 0, 64, 61
1, 1196237, Control_c, 0, 64, 64
1, 1196245, Note_off_c, 0, 76, 58
1, 1196251, Control_c, 0, 64, 65
1, 1196262, Note_off_c, 0, 72, 55
1, 1196281, Control_c, 0, 64, 66
1, 1196291, Note_on_c, 0, 64, 36
1, 1196296, Control_c, 0, 64, 67
1, 1196311, Control_c, 0, 64, 68
1, 1196325, Control_c, 0, 64, 69
1, 1196340, Control_c, 0, 64, 72
1, 1196355, Control_c, 0, 64, 74
1, 1196371, Control_c, 0, 64, 79
1, 1196386, Control_c, 0, 64, 85
1, 1196401, Control_c, 0, 64, 93
1, 1196415, Control_c, 0, 64, 101
1, 1196430, Control_c, 0, 64, 111
1, 1196445, Control_c, 0, 64, 127
1, 1196481, Note_off_c, 0, 64, 55
1, 1196495, Note_off_c, 0, 60, 44
1, 1196653, Control_c, 0, 67, 121
1, 1196667, Control_c, 0, 67, 115
1, 1196682, Control_c, 0, 67, 111
1, 1196694, Note_on_c, 0, 67, 74
1, 1196712, Control_c, 0, 67, 109
1, 1196927, Control_c, 0, 64, 109
1, 1196941, Control_c, 0, 64, 99
1, 1196956, Control_c, 0, 64, 91
1, 1196971, Control_c, 0, 64, 81
1, 1196986, Control_c, 0, 64, 72
1, 1197000, Control_c, 0, 64, 64
1, 1197015, Control_c, 0, 64, 54
1, 1197030, Control_c, 0, 64, 40
1, 1197031, Note_on_c, 0, 49, 54
1, 1197045, Control_c, 0, 64, 0
1, 1197165, Control_c, 0, 64, 48
1, 1197180, Control_c, 0, 64, 60
1, 1197195, Control_c, 0, 64, 65
1, 1197210, Control_c, 0, 64, 68
1, 1197224, Control_c, 0, 64, 71
1, 1197239, Control_c, 0, 64, 75
1, 1197254, Control_c, 0, 64, 78
1, 1197269, Control_c, 0, 64, 83
1, 1197284, Control_c, 0, 64, 89
1, 1197285, Note_on_c, 0, 52, 49
1, 1197298, Control_c, 0, 64, 94
1, 1197313, Control_c, 0, 64, 99
1, 1197328, Control_c, 0, 64, 103
1, 1197339, Note_off_c, 0, 49, 59
1, 1197343, Control_c, 0, 64, 107
1, 1197372, Control_c, 0, 64, 111
1, 1197387, Control_c, 0, 64, 113
1, 1197397, Note_on_c, 0, 66, 76
1, 1197402, Control_c, 0, 64, 116
1, 1197410, Note_off_c, 0, 52, 60
1, 1197431, Note_on_c, 0, 53, 49
1, 1197446, Control_c, 0, 64, 118
1, 1197461, Control_c, 0, 64, 121
1, 1197476, Note_off_c, 0, 67, 58
1, 1197476, Control_c, 0, 64, 127
1, 1197486, Note_off_c, 0, 53, 55
1, 1197580, Note_on_c, 0, 55, 67
1, 1197684, Note_on_c, 0, 69, 77
1, 1197754, Note_off_c, 0, 66, 53
1, 1197782, Note_on_c, 0, 59, 75
1, 1197834, Note_off_c, 0, 55, 58
1, 1197898, Control_c, 0, 64, 122
1, 1197913, Control_c, 0, 64, 116
1, 1197928, Control_c, 0, 64, 111
1, 1197942, Control_c, 0, 64, 106
1, 1197957, Control_c, 0, 64, 103
1, 1197973, Control_c, 0, 64, 99
1, 1197987, Note_on_c, 0, 65, 79
1, 1197988, Control_c, 0, 64, 96
1, 1198003, Note_off_c, 0, 69, 48
1, 1198003, Control_c, 0, 64, 92
1, 1198018, Control_c, 0, 64, 88
1, 1198033, Control_c, 0, 64, 84
1, 1198047, Control_c, 0, 64, 79
1, 1198048, Note_off_c, 0, 59, 52
1, 1198062, Control_c, 0, 64, 74
1, 1198077, Control_c, 0, 64, 68
1, 1198077, Control_c, 0, 67, 111
1, 1198092, Control_c, 0, 64, 62
1, 1198107, Control_c, 0, 64, 52
1, 1198121, Control_c, 0, 64, 37
1, 1198136, Control_c, 0, 64, 0
1, 1198203, Note_on_c, 0, 66, 53
1, 1198269, Control_c, 0, 64, 43
1, 1198284, Control_c, 0, 64, 55
1, 1198299, Control_c, 0, 64, 61
1, 1198313, Control_c, 0, 64, 63
1, 1198328, Control_c, 0, 64, 64
1, 1198343, Control_c, 0, 64, 65
1, 1198358, Control_c, 0, 64, 66
1, 1198361, Note_off_c, 0, 66, 62
1, 1198373, Control_c, 0, 64, 67
1, 1198393, Note_on_c, 0, 67, 54
1, 1198395, Control_c, 0, 64, 68
1, 1198410, Control_c, 0, 64, 70
1, 1198425, Control_c, 0, 64, 71
1, 1198439, Control_c, 0, 64, 71
1, 1198469, Control_c, 0, 67, 113
1, 1198528, Control_c, 0, 64, 70
1, 1198543, Control_c, 0, 64, 67
1, 1198554, Note_off_c, 0, 65, 62
1, 1198557, Note_on_c, 0, 64, 59
1, 1198558, Control_c, 0, 64, 61
1, 1198572, Control_c, 0, 64, 50
1, 1198575, Note_off_c, 0, 67, 58
1, 1198587, Note_on_c, 0, 68, 56
1, 1198587, Control_c, 0, 64, 39
1, 1198596, Note_on_c, 0, 56, 34
1, 1198602, Control_c, 0, 64, 0
1, 1198632, Control_c, 0, 64, 38
1, 1198647, Control_c, 0, 64, 49
1, 1198662, Control_c, 0, 64, 59
1, 1198677, Control_c, 0, 64, 63
1, 1198692, Control_c, 0, 64, 66
1, 1198706, Control_c, 0, 64, 67
1, 1198721, Control_c, 0, 64, 67
1, 1198756, Note_off_c, 0, 68, 63
1, 1198766, Control_c, 0, 64, 67
1, 1198781, Control_c, 0, 64, 66
1, 1198796, Control_c, 0, 64, 63
1, 1198801, Note_on_c, 0, 71, 55
1, 1198811, Control_c, 0, 64, 58
1, 1198826, Control_c, 0, 64, 47
1, 1198841, Control_c, 0, 64, 0
1, 1198870, Note_on_c, 0, 67, 68
1, 1198879, Note_off_c, 0, 64, 59
1, 1198888, Note_off_c, 0, 56, 42
1, 1198894, Note_on_c, 0, 58, 48
1, 1198930, Control_c, 0, 64, 40
1, 1198944, Control_c, 0, 64, 53
1, 1198959, Control_c, 0, 64, 61
1, 1198970, Note_off_c, 0, 71, 48
1, 1198974, Control_c, 0, 64, 65
1, 1198988, Control_c, 0, 64, 67
1, 1198996, Note_on_c, 0, 75, 54
1, 1199003, Control_c, 0, 64, 68
1, 1199018, Control_c, 0, 64, 69
1, 1199033, Control_c, 0, 64, 71
1, 1199048, Control_c, 0, 64, 73
1, 1199062, Control_c, 0, 64, 74
1, 1199077, Control_c, 0, 64, 75
1, 1199188, Control_c, 0, 64, 74
1, 1199202, Note_off_c, 0, 58, 58
1, 1199203, Control_c, 0, 64, 74
1, 1199218, Control_c, 0, 64, 73
1, 1199222, Note_on_c, 0, 79, 64
1, 1199232, Note_on_c, 0, 63, 59
1, 1199233, Control_c, 0, 64, 71
1, 1199235, Note_off_c, 0, 75, 57
1, 1199248, Control_c, 0, 64, 69
1, 1199257, Note_on_c, 0, 59, 41
1, 1199260, Note_off_c, 0, 67, 37
1, 1199262, Control_c, 0, 64, 67
1, 1199277, Control_c, 0, 64, 65
1, 1199292, Control_c, 0, 64, 62
1, 1199307, Control_c, 0, 64, 58
1, 1199322, Control_c, 0, 64, 52
1, 1199336, Control_c, 0, 64, 43
1, 1199350, Control_c, 0, 64, 0
1, 1199395, Control_c, 0, 67, 115
1, 1199531, Note_on_c, 0, 83, 57
1, 1199541, Note_off_c, 0, 79, 49
1, 1199543, Control_c, 0, 64, 38
1, 1199559, Control_c, 0, 64, 51
1, 1199574, Control_c, 0, 64, 59
1, 1199589, Control_c, 0, 64, 63
1, 1199604, Control_c, 0, 64, 65
1, 1199618, Control_c, 0, 64, 67
1, 1199633, Control_c, 0, 64, 69
1, 1199648, Control_c, 0, 64, 71
1, 1199663, Control_c, 0, 64, 73
1, 1199678, Control_c, 0, 64, 76
1, 1199692, Control_c, 0, 64, 78
1, 1199707, Control_c, 0, 64, 80
1, 1199718, Note_on_c, 0, 71, 55
1, 1199722, Control_c, 0, 64, 80
1, 1199767, Note_off_c, 0, 83, 38
1, 1199779, Note_off_c, 0, 63, 61
1, 1199784, Note_off_c, 0, 59, 39
1, 1199796, Control_c, 0, 67, 113
1, 1199870, Control_c, 0, 64, 80
1, 1199878, Note_on_c, 0, 62, 57
1, 1199896, Note_on_c, 0, 53, 40
1, 1199907, Control_c, 0, 64, 78
1, 1199922, Control_c, 0, 64, 75
1, 1199937, Control_c, 0, 64, 66
1, 1199952, Control_c, 0, 64, 56
1, 1199966, Control_c, 0, 64, 37
1, 1199981, Control_c, 0, 64, 0
1, 1200010, Control_c, 0, 64, 33
1, 1200025, Control_c, 0, 64, 49
1, 1200040, Control_c, 0, 64, 59
1, 1200055, Control_c, 0, 64, 62
1, 1200070, Control_c, 0, 64, 62
1, 1200144, Control_c, 0, 67, 111
1, 1200159, Control_c, 0, 64, 63
1, 1200174, Control_c, 0, 64, 64
1, 1200189, Control_c, 0, 64, 65
1, 1200204, Control_c, 0, 64, 66
1, 1200206, Note_on_c, 0, 65, 62
1, 1200218, Control_c, 0, 64, 67
1, 1200221, Note_off_c, 0, 62, 61
1, 1200233, Control_c, 0, 64, 68
1, 1200263, Control_c, 0, 64, 68
1, 1200278, Control_c, 0, 64, 69
1, 1200382, Control_c, 0, 64, 68
1, 1200412, Control_c, 0, 64, 68
1, 1200427, Control_c, 0, 64, 67
1, 1200441, Control_c, 0, 64, 66
1, 1200456, Control_c, 0, 64, 66
1, 1200471, Control_c, 0, 64, 65
1, 1200486, Control_c, 0, 64, 64
1, 1200487, Note_on_c, 0, 61, 58
1, 1200492, Note_off_c, 0, 65, 56
1, 1200501, Control_c, 0, 64, 63
1, 1200503, Note_on_c, 0, 57, 42
1, 1200516, Control_c, 0, 64, 62
1, 1200530, Note_off_c, 0, 53, 58
1, 1200531, Control_c, 0, 64, 61
1, 1200546, Control_c, 0, 64, 59
1, 1200560, Control_c, 0, 64, 56
1, 1200575, Control_c, 0, 64, 54
1, 1200590, Control_c, 0, 64, 51
1, 1200605, Control_c, 0, 64, 47
1, 1200620, Control_c, 0, 64, 39
1, 1200620, Control_c, 0, 67, 113
1, 1200641, Control_c, 0, 64, 0
1, 1200686, Control_c, 0, 67, 115
1, 1200707, Note_on_c, 0, 75, 56
1, 1200716, Note_off_c, 0, 71, 59
1, 1200775, Control_c, 0, 67, 117
1, 1200834, Control_c, 0, 67, 119
1, 1200879, Control_c, 0, 67, 121
1, 1200906, Note_off_c, 0, 75, 49
1, 1200941, Note_on_c, 0, 63, 34
1, 1200953, Control_c, 0, 67, 123
1, 1201121, Note_off_c, 0, 57, 54
1, 1201147, Note_on_c, 0, 60, 47
1, 1201154, Note_off_c, 0, 61, 50
1, 1201157, Note_on_c, 0, 56, 42
1, 1201184, Note_off_c, 0, 63, 54
1, 1201420, Control_c, 0, 67, 121
1, 1201435, Control_c, 0, 64, 45
1, 1201450, Control_c, 0, 64, 59
1, 1201450, Control_c, 0, 67, 119
1, 1201464, Control_c, 0, 64, 64
1, 1201479, Control_c, 0, 64, 68
1, 1201494, Control_c, 0, 64, 72
1, 1201494, Control_c, 0, 67, 117
1, 1201509, Control_c, 0, 64, 77
1, 1201524, Control_c, 0, 64, 83
1, 1201538, Control_c, 0, 64, 90
1, 1201553, Control_c, 0, 64, 96
1, 1201568, Control_c, 0, 64, 99
1, 1201601, Note_off_c, 0, 60, 39
1, 1201746, Control_c, 0, 64, 97
1, 1201753, Note_on_c, 0, 60, 44
1, 1201761, Control_c, 0, 64, 96
1, 1201776, Control_c, 0, 64, 94
1, 1201790, Control_c, 0, 64, 91
1, 1201805, Control_c, 0, 64, 89
1, 1201820, Control_c, 0, 64, 87
1, 1201835, Control_c, 0, 64, 85
1, 1201850, Control_c, 0, 64, 81
1, 1201864, Control_c, 0, 64, 77
1, 1201879, Control_c, 0, 64, 72
1, 1201894, Control_c, 0, 64, 69
1, 1201908, Control_c, 0, 64, 65
1, 1201923, Control_c, 0, 64, 59
1, 1201938, Control_c, 0, 64, 50
1, 1201954, Control_c, 0, 64, 31
1, 1201969, Control_c, 0, 64, 0
1, 1202058, Control_c, 0, 64, 46
1, 1202073, Control_c, 0, 64, 58
1, 1202087, Control_c, 0, 64, 62
1, 1202102, Control_c, 0, 64, 65
1, 1202117, Control_c, 0, 64, 67
1, 1202139, Control_c, 0, 64, 69
1, 1202154, Control_c, 0, 64, 71
1, 1202169, Control_c, 0, 64, 74
1, 1202184, Control_c, 0, 64, 77
1, 1202199, Control_c, 0, 64, 79
1, 1202213, Control_c, 0, 64, 81
1, 1202228, Control_c, 0, 64, 81
1, 1202243, Control_c, 0, 64, 82
1, 1202363, Note_off_c, 0, 60, 37
1, 1202418, Note_on_c, 0, 63, 42
1, 1202421, Control_c, 0, 64, 81
1, 1202436, Control_c, 0, 64, 81
1, 1202451, Control_c, 0, 64, 80
1, 1202466, Control_c, 0, 64, 79
1, 1202480, Control_c, 0, 64, 78
1, 1202495, Control_c, 0, 64, 76
1, 1202510, Control_c, 0, 64, 74
1, 1202525, Control_c, 0, 64, 70
1, 1202540, Control_c, 0, 64, 66
1, 1202555, Control_c, 0, 64, 61
1, 1202570, Control_c, 0, 64, 55
1, 1202585, Control_c, 0, 64, 46
1, 1202600, Control_c, 0, 64, 0
1, 1202674, Control_c, 0, 64, 33
1, 1202688, Control_c, 0, 64, 47
1, 1202703, Control_c, 0, 64, 57
1, 1202718, Control_c, 0, 64, 63
1, 1202732, Control_c, 0, 64, 65
1, 1202747, Control_c, 0, 64, 67
1, 1202758, Note_off_c, 0, 56, 54
1, 1202763, Control_c, 0, 64, 70
1, 1202778, Control_c, 0, 64, 73
1, 1202793, Control_c, 0, 64, 77
1, 1202808, Control_c, 0, 64, 83
1, 1202823, Control_c, 0, 64, 91
1, 1202823, Control_c, 0, 67, 115
1, 1202837, Control_c, 0, 64, 100
1, 1202852, Control_c, 0, 64, 112
1, 1202867, Control_c, 0, 64, 127
1, 1203127, Note_on_c, 0, 67, 59
1, 1203304, Control_c, 0, 64, 116
1, 1203318, Control_c, 0, 64, 105
1, 1203333, Control_c, 0, 64, 99
1, 1203348, Control_c, 0, 64, 94
1, 1203363, Control_c, 0, 64, 90
1, 1203378, Control_c, 0, 64, 86
1, 1203378, Note_off_c, 0, 63, 38
1, 1203392, Control_c, 0, 64, 81
1, 1203407, Control_c, 0, 64, 75
1, 1203407, Control_c, 0, 67, 117
1, 1203422, Control_c, 0, 64, 70
1, 1203437, Control_c, 0, 64, 67
1, 1203452, Control_c, 0, 64, 64
1, 1203467, Control_c, 0, 64, 61
1, 1203481, Control_c, 0, 64, 57
1, 1203496, Control_c, 0, 64, 51
1, 1203500, Note_on_c, 0, 37, 47
1, 1203511, Control_c, 0, 64, 39
1, 1203526, Control_c, 0, 64, 0
1, 1203616, Control_c, 0, 64, 44
1, 1203638, Control_c, 0, 64, 59
1, 1203653, Control_c, 0, 64, 65
1, 1203667, Control_c, 0, 64, 69
1, 1203682, Control_c, 0, 64, 72
1, 1203697, Control_c, 0, 64, 75
1, 1203712, Control_c, 0, 64, 78
1, 1203727, Control_c, 0, 64, 84
1, 1203741, Control_c, 0, 64, 91
1, 1203756, Control_c, 0, 64, 98
1, 1203765, Note_off_c, 0, 37, 59
1, 1203771, Control_c, 0, 64, 105
1, 1203786, Note_on_c, 0, 43, 43
1, 1203786, Control_c, 0, 64, 112
1, 1203801, Control_c, 0, 64, 126
1, 1203933, Note_on_c, 0, 66, 64
1, 1203964, Note_on_c, 0, 47, 46
1, 1204001, Note_off_c, 0, 43, 34
1, 1204046, Note_off_c, 0, 67, 57
1, 1204072, Note_off_c, 0, 47, 58
1, 1204126, Note_on_c, 0, 53, 54
1, 1204167, Note_off_c, 0, 53, 62
1, 1204229, Note_on_c, 0, 69, 69
1, 1204262, Note_off_c, 0, 66, 61
1, 1204329, Note_on_c, 0, 55, 48
1, 1204537, Note_on_c, 0, 65, 78
1, 1204568, Note_on_c, 0, 64, 47
1, 1204608, Control_c, 0, 64, 107
1, 1204623, Control_c, 0, 64, 86
1, 1204638, Control_c, 0, 64, 73
1, 1204644, Note_off_c, 0, 69, 47
1, 1204653, Control_c, 0, 64, 64
1, 1204668, Control_c, 0, 64, 58
1, 1204672, Note_off_c, 0, 55, 36
1, 1204682, Control_c, 0, 64, 56
1, 1204697, Control_c, 0, 64, 58
1, 1204712, Control_c, 0, 64, 62
1, 1204726, Control_c, 0, 64, 65
1, 1204741, Control_c, 0, 64, 69
1, 1204756, Control_c, 0, 64, 74
1, 1204768, Note_on_c, 0, 59, 61
1, 1204771, Control_c, 0, 64, 79
1, 1204786, Control_c, 0, 64, 83
1, 1204800, Control_c, 0, 64, 87
1, 1204800, Control_c, 0, 67, 115
1, 1204815, Control_c, 0, 64, 92
1, 1204830, Control_c, 0, 64, 95
1, 1204835, Note_off_c, 0, 64, 37
1, 1204845, Control_c, 0, 64, 99
1, 1204860, Control_c, 0, 64, 103
1, 1204874, Control_c, 0, 64, 106
1, 1204889, Control_c, 0, 64, 108
1, 1204904, Control_c, 0, 64, 111
1, 1204919, Control_c, 0, 64, 113
1, 1204925, Note_off_c, 0, 59, 57
1, 1204934, Control_c, 0, 64, 116
1, 1204944, Note_on_c, 0, 55, 54
1, 1205009, Note_off_c, 0, 55, 61
1, 1205055, Note_off_c, 0, 65, 55
1, 1205112, Control_c, 0, 64, 110
1, 1205115, Note_on_c, 0, 64, 66
1, 1205131, Note_on_c, 0, 56, 70
1, 1205133, Control_c, 0, 64, 102
1, 1205148, Control_c, 0, 64, 92
1, 1205164, Control_c, 0, 64, 83
1, 1205179, Control_c, 0, 64, 80
1, 1205209, Control_c, 0, 64, 81
1, 1205224, Control_c, 0, 64, 83
1, 1205238, Control_c, 0, 64, 86
1, 1205253, Control_c, 0, 64, 89
1, 1205268, Control_c, 0, 64, 91
1, 1205283, Control_c, 0, 64, 93
1, 1205298, Control_c, 0, 64, 94
1, 1205309, Note_off_c, 0, 56, 43
1, 1205402, Control_c, 0, 64, 93
1, 1205416, Control_c, 0, 64, 88
1, 1205421, Note_on_c, 0, 67, 80
1, 1205431, Control_c, 0, 64, 81
1, 1205436, Note_on_c, 0, 58, 72
1, 1205446, Control_c, 0, 64, 73
1, 1205455, Note_off_c, 0, 64, 53
1, 1205461, Control_c, 0, 64, 64
1, 1205475, Control_c, 0, 64, 55
1, 1205490, Control_c, 0, 64, 46
1, 1205505, Control_c, 0, 64, 46
1, 1205520, Control_c, 0, 64, 53
1, 1205535, Control_c, 0, 64, 60
1, 1205549, Control_c, 0, 64, 65
1, 1205564, Control_c, 0, 64, 69
1, 1205579, Control_c, 0, 64, 74
1, 1205594, Control_c, 0, 64, 80
1, 1205609, Control_c, 0, 64, 84
1, 1205623, Control_c, 0, 64, 87
1, 1205623, Control_c, 0, 67, 113
1, 1205638, Control_c, 0, 64, 90
1, 1205653, Control_c, 0, 64, 91
1, 1205668, Control_c, 0, 64, 92
1, 1205712, Control_c, 0, 64, 92
1, 1205749, Note_on_c, 0, 63, 78
1, 1205771, Note_on_c, 0, 59, 51
1, 1205771, Control_c, 0, 64, 92
1, 1205786, Control_c, 0, 64, 91
1, 1205801, Control_c, 0, 64, 91
1, 1205816, Control_c, 0, 64, 90
1, 1205831, Note_off_c, 0, 58, 39
1, 1205831, Control_c, 0, 64, 88
1, 1205845, Note_off_c, 0, 67, 61
1, 1205846, Control_c, 0, 64, 86
1, 1205861, Control_c, 0, 64, 82
1, 1205882, Control_c, 0, 64, 78
1, 1205897, Control_c, 0, 64, 73
1, 1205912, Control_c, 0, 64, 67
1, 1205927, Control_c, 0, 64, 61
1, 1205942, Control_c, 0, 64, 51
1, 1205958, Control_c, 0, 64, 0
1, 1205973, Control_c, 0, 67, 115
1, 1206007, Note_on_c, 0, 43, 63
1, 1206105, Control_c, 0, 64, 35
1, 1206120, Control_c, 0, 64, 54
1, 1206135, Control_c, 0, 64, 61
1, 1206150, Control_c, 0, 64, 65
1, 1206165, Control_c, 0, 64, 67
1, 1206179, Control_c, 0, 64, 68
1, 1206194, Control_c, 0, 64, 70
1, 1206209, Control_c, 0, 64, 71
1, 1206224, Control_c, 0, 64, 73
1, 1206239, Control_c, 0, 64, 74
1, 1206239, Note_on_c, 0, 36, 69
1, 1206253, Control_c, 0, 64, 75
1, 1206268, Control_c, 0, 64, 75
1, 1206283, Control_c, 0, 64, 76
1, 1206297, Control_c, 0, 64, 76
1, 1206406, Note_on_c, 0, 62, 71
1, 1206419, Note_on_c, 0, 54, 56
1, 1206421, Note_off_c, 0, 43, 61
1, 1206454, Note_off_c, 0, 59, 57
1, 1206475, Control_c, 0, 64, 75
1, 1206484, Note_off_c, 0, 63, 54
1, 1206490, Control_c, 0, 64, 71
1, 1206505, Control_c, 0, 64, 63
1, 1206519, Control_c, 0, 64, 55
1, 1206534, Control_c, 0, 64, 47
1, 1206549, Control_c, 0, 64, 41
1, 1206564, Control_c, 0, 64, 41
1, 1206579, Control_c, 0, 64, 43
1, 1206594, Control_c, 0, 64, 46
1, 1206607, Note_on_c, 0, 43, 71
1, 1206609, Control_c, 0, 64, 53
1, 1206631, Control_c, 0, 64, 58
1, 1206646, Control_c, 0, 64, 62
1, 1206660, Control_c, 0, 64, 64
1, 1206675, Control_c, 0, 64, 66
1, 1206690, Control_c, 0, 64, 66
1, 1206704, Control_c, 0, 64, 67
1, 1206719, Control_c, 0, 64, 69
1, 1206722, Note_on_c, 0, 65, 76
1, 1206731, Note_off_c, 0, 54, 61
1, 1206734, Control_c, 0, 64, 72
1, 1206737, Note_on_c, 0, 53, 57
1, 1206746, Note_off_c, 0, 62, 60
1, 1206750, Control_c, 0, 64, 74
1, 1206765, Control_c, 0, 64, 75
1, 1206778, Note_off_c, 0, 36, 59
1, 1206780, Control_c, 0, 64, 75
1, 1206795, Control_c, 0, 64, 76
1, 1206809, Control_c, 0, 64, 77
1, 1206824, Control_c, 0, 64, 79
1, 1206833, Note_on_c, 0, 45, 68
1, 1206835, Note_off_c, 0, 43, 63
1, 1206839, Control_c, 0, 64, 80
1, 1206854, Control_c, 0, 64, 81
1, 1206869, Control_c, 0, 64, 81
1, 1206898, Control_c, 0, 64, 82
1, 1207002, Control_c, 0, 64, 81
1, 1207017, Note_off_c, 0, 45, 59
1, 1207023, Note_on_c, 0, 61, 73
1, 1207032, Control_c, 0, 64, 81
1, 1207046, Note_on_c, 0, 57, 54
1, 1207047, Control_c, 0, 64, 79
1, 1207060, Note_on_c, 0, 47, 53
1, 1207062, Control_c, 0, 64, 78
1, 1207076, Control_c, 0, 64, 75
1, 1207091, Control_c, 0, 64, 71
1, 1207104, Note_off_c, 0, 53, 38
1, 1207106, Control_c, 0, 64, 65
1, 1207120, Control_c, 0, 64, 57
1, 1207135, Control_c, 0, 64, 40
1, 1207150, Control_c, 0, 64, 0
1, 1207203, Note_off_c, 0, 65, 58
1, 1207294, Note_on_c, 0, 53, 43
1, 1207317, Note_off_c, 0, 47, 56
1, 1207327, Control_c, 0, 64, 33
1, 1207342, Control_c, 0, 64, 48
1, 1207357, Control_c, 0, 64, 58
1, 1207380, Control_c, 0, 64, 62
1, 1207395, Control_c, 0, 64, 63
1, 1207409, Control_c, 0, 64, 64
1, 1207424, Control_c, 0, 64, 66
1, 1207439, Control_c, 0, 64, 68
1, 1207453, Control_c, 0, 64, 72
1, 1207468, Control_c, 0, 64, 76
1, 1207483, Control_c, 0, 64, 81
1, 1207498, Control_c, 0, 64, 84
1, 1207513, Control_c, 0, 64, 88
1, 1207527, Control_c, 0, 64, 90
1, 1207542, Control_c, 0, 64, 91
1, 1207558, Control_c, 0, 64, 92
1, 1207561, Note_off_c, 0, 53, 60
1, 1207573, Control_c, 0, 64, 92
1, 1207582, Note_on_c, 0, 52, 48
1, 1207681, Note_off_c, 0, 61, 27
1, 1207811, Control_c, 0, 64, 92
1, 1207825, Control_c, 0, 64, 91
1, 1207840, Control_c, 0, 64, 90
1, 1207855, Control_c, 0, 64, 89
1, 1207862, Note_on_c, 0, 60, 53
1, 1207870, Control_c, 0, 64, 88
1, 1207885, Control_c, 0, 64, 87
1, 1207892, Note_on_c, 0, 51, 35
1, 1207900, Control_c, 0, 64, 85
1, 1207909, Note_on_c, 0, 56, 43
1, 1207914, Control_c, 0, 64, 83
1, 1207929, Control_c, 0, 64, 80
1, 1207934, Note_off_c, 0, 57, 41
1, 1207944, Control_c, 0, 64, 78
1, 1207948, Note_off_c, 0, 52, 31
1, 1207959, Control_c, 0, 64, 75
1, 1207974, Control_c, 0, 64, 71
1, 1207989, Control_c, 0, 64, 68
1, 1208004, Control_c, 0, 64, 63
1, 1208018, Control_c, 0, 64, 58
1, 1208033, Control_c, 0, 64, 52
1, 1208048, Control_c, 0, 64, 45
1, 1208063, Control_c, 0, 64, 35
1, 1208077, Control_c, 0, 64, 0
1, 1208248, Control_c, 0, 67, 117
1, 1208322, Control_c, 0, 67, 119
1, 1208382, Control_c, 0, 64, 31
1, 1208397, Control_c, 0, 64, 39
1, 1208412, Control_c, 0, 64, 49
1, 1208427, Control_c, 0, 64, 56
1, 1208442, Control_c, 0, 64, 60
1, 1208446, Note_on_c, 0, 63, 42
1, 1208456, Control_c, 0, 64, 61
1, 1208457, Note_on_c, 0, 48, 32
1, 1208460, Note_on_c, 0, 55, 40
1, 1208460, Note_off_c, 0, 60, 56
1, 1208471, Control_c, 0, 64, 62
1, 1208486, Control_c, 0, 64, 64
1, 1208500, Control_c, 0, 64, 66
1, 1208513, Note_off_c, 0, 56, 52
1, 1208515, Control_c, 0, 64, 69
1, 1208530, Control_c, 0, 64, 71
1, 1208537, Note_off_c, 0, 51, 42
1, 1208545, Control_c, 0, 64, 74
1, 1208560, Control_c, 0, 64, 77
1, 1208574, Control_c, 0, 64, 80
1, 1208583, Note_off_c, 0, 55, 62
1, 1208589, Control_c, 0, 64, 84
1, 1208604, Control_c, 0, 64, 88
1, 1208619, Control_c, 0, 64, 90
1, 1208634, Control_c, 0, 64, 92
1, 1208648, Control_c, 0, 64, 93
1, 1208663, Control_c, 0, 64, 94
1, 1208680, Note_off_c, 0, 63, 36
1, 1208692, Control_c, 0, 64, 94
1, 1208797, Control_c, 0, 64, 94
1, 1208826, Control_c, 0, 64, 93
1, 1208841, Control_c, 0, 64, 92
1, 1208855, Note_on_c, 0, 63, 55
1, 1208856, Control_c, 0, 64, 90
1, 1208878, Control_c, 0, 64, 89
1, 1208883, Note_on_c, 0, 59, 49
1, 1208890, Note_on_c, 0, 54, 42
1, 1208893, Control_c, 0, 64, 87
1, 1208907, Control_c, 0, 64, 84
1, 1208922, Control_c, 0, 64, 81
1, 1208937, Control_c, 0, 64, 78
1, 1208952, Control_c, 0, 64, 75
1, 1208967, Control_c, 0, 64, 71
1, 1208982, Control_c, 0, 64, 67
1, 1208997, Control_c, 0, 64, 63
1, 1209011, Control_c, 0, 64, 55
1, 1209026, Control_c, 0, 64, 46
1, 1209026, Note_off_c, 0, 48, 39
1, 1209041, Control_c, 0, 64, 34
1, 1209056, Control_c, 0, 64, 0
1, 1209245, Note_off_c, 0, 59, 40
1, 1209279, Control_c, 0, 64, 33
1, 1209282, Note_on_c, 0, 66, 46
1, 1209294, Control_c, 0, 64, 44
1, 1209300, Note_on_c, 0, 61, 38
1, 1209309, Control_c, 0, 64, 54
1, 1209316, Note_on_c, 0, 51, 24
1, 1209318, Note_off_c, 0, 63, 57
1, 1209323, Control_c, 0, 64, 59
1, 1209338, Control_c, 0, 64, 62
1, 1209341, Note_off_c, 0, 54, 44
1, 1209353, Control_c, 0, 64, 64
1, 1209368, Control_c, 0, 64, 66
1, 1209383, Control_c, 0, 64, 68
1, 1209397, Control_c, 0, 64, 72
1, 1209412, Control_c, 0, 64, 75
1, 1209417, Note_off_c, 0, 66, 58
1, 1209427, Control_c, 0, 64, 78
1, 1209441, Control_c, 0, 64, 80
1, 1209456, Control_c, 0, 64, 81
1, 1209471, Control_c, 0, 64, 82
1, 1209486, Control_c, 0, 64, 83
1, 1209501, Control_c, 0, 64, 84
1, 1209559, Note_off_c, 0, 61, 35
1, 1209605, Control_c, 0, 64, 83
1, 1209621, Note_on_c, 0, 66, 55
1, 1209624, Note_off_c, 0, 51, 41
1, 1209627, Control_c, 0, 64, 83
1, 1209641, Note_on_c, 0, 57, 44
1, 1209642, Control_c, 0, 64, 81
1, 1209644, Note_on_c, 0, 62, 38
1, 1209656, Control_c, 0, 64, 79
1, 1209671, Control_c, 0, 64, 75
1, 1209686, Control_c, 0, 64, 69
1, 1209701, Control_c, 0, 64, 60
1, 1209716, Control_c, 0, 64, 44
1, 1209730, Control_c, 0, 64, 0
1, 1209804, Control_c, 0, 64, 37
1, 1209804, Control_c, 0, 67, 117
1, 1209819, Control_c, 0, 64, 47
1, 1209834, Control_c, 0, 64, 55
1, 1209849, Control_c, 0, 64, 60
1, 1209864, Control_c, 0, 64, 63
1, 1209879, Control_c, 0, 64, 65
1, 1209894, Control_c, 0, 64, 67
1, 1209909, Note_off_c, 0, 62, 41
1, 1209909, Control_c, 0, 64, 70
1, 1209923, Control_c, 0, 64, 73
1, 1209938, Control_c, 0, 64, 77
1, 1209952, Note_on_c, 0, 69, 59
1, 1209953, Control_c, 0, 64, 82
1, 1209955, Note_off_c, 0, 66, 58
1, 1209968, Control_c, 0, 64, 87
1, 1209969, Note_on_c, 0, 54, 26
1, 1209983, Note_on_c, 0, 61, 36
1, 1209983, Control_c, 0, 64, 91
1, 1209998, Control_c, 0, 64, 99
1, 1210013, Control_c, 0, 64, 104
1, 1210022, Note_off_c, 0, 54, 59
1, 1210022, Note_off_c, 0, 61, 62
1, 1210028, Control_c, 0, 64, 108
1, 1210043, Note_off_c, 0, 57, 38
1, 1210043, Control_c, 0, 64, 112
1, 1210058, Control_c, 0, 64, 116
1, 1210072, Control_c, 0, 64, 119
1, 1210088, Note_off_c, 0, 69, 56
1, 1210102, Control_c, 0, 64, 122
1, 1210256, Note_on_c, 0, 69, 65
1, 1210264, Control_c, 0, 64, 119
1, 1210278, Note_on_c, 0, 65, 52
1, 1210279, Control_c, 0, 64, 115
1, 1210287, Note_on_c, 0, 60, 48
1, 1210294, Control_c, 0, 64, 104
1, 1210309, Control_c, 0, 64, 92
1, 1210324, Control_c, 0, 64, 78
1, 1210338, Control_c, 0, 64, 64
1, 1210353, Control_c, 0, 64, 46
1, 1210353, Control_c, 0, 67, 115
1, 1210376, Control_c, 0, 64, 0
1, 1210494, Control_c, 0, 64, 43
1, 1210509, Control_c, 0, 64, 56
1, 1210524, Control_c, 0, 64, 61
1, 1210539, Control_c, 0, 64, 63
1, 1210553, Control_c, 0, 64, 64
1, 1210568, Control_c, 0, 64, 66
1, 1210582, Note_off_c, 0, 60, 60
1, 1210583, Control_c, 0, 64, 68
1, 1210583, Control_c, 0, 67, 113
1, 1210591, Note_off_c, 0, 65, 36
1, 1210595, Note_on_c, 0, 75, 63
1, 1210597, Control_c, 0, 64, 73
1, 1210603, Note_on_c, 0, 67, 55
1, 1210607, Note_off_c, 0, 69, 60
1, 1210612, Control_c, 0, 64, 77
1, 1210615, Note_on_c, 0, 57, 42
1, 1210627, Control_c, 0, 64, 82
1, 1210642, Control_c, 0, 64, 87
1, 1210654, Note_off_c, 0, 67, 62
1, 1210657, Control_c, 0, 64, 92
1, 1210672, Control_c, 0, 64, 96
1, 1210672, Control_c, 0, 67, 111
1, 1210687, Control_c, 0, 64, 100
1, 1210702, Control_c, 0, 64, 103
1, 1210712, Note_off_c, 0, 57, 37
1, 1210717, Control_c, 0, 64, 106
1, 1210717, Control_c, 0, 67, 108
1, 1210730, Note_off_c, 0, 75, 60
1, 1210731, Control_c, 0, 64, 108
1, 1210747, Control_c, 0, 67, 106
1, 1210762, Control_c, 0, 64, 111
1, 1210776, Control_c, 0, 67, 97
1, 1210791, Control_c, 0, 67, 89
1, 1210806, Control_c, 0, 67, 82
1, 1210821, Control_c, 0, 67, 75
1, 1210836, Control_c, 0, 67, 69
1, 1210851, Control_c, 0, 67, 64
1, 1210866, Control_c, 0, 67, 60
1, 1210880, Control_c, 0, 67, 57
1, 1210895, Control_c, 0, 67, 55
1, 1210910, Control_c, 0, 67, 53
1, 1210925, Control_c, 0, 67, 51
1, 1210935, Note_on_c, 0, 72, 77
1, 1210940, Control_c, 0, 64, 107
1, 1210940, Control_c, 0, 67, 50
1, 1210955, Note_on_c, 0, 68, 55
1, 1210955, Control_c, 0, 64, 105
1, 1210969, Control_c, 0, 67, 49
1, 1210973, Note_on_c, 0, 63, 48
1, 1210984, Control_c, 0, 64, 101
1, 1210999, Control_c, 0, 64, 96
1, 1211000, Note_off_c, 0, 68, 0
1, 1211000, Note_on_c, 0, 68, 37
1, 1211013, Control_c, 0, 64, 89
1, 1211013, Control_c, 0, 67, 49
1, 1211028, Control_c, 0, 64, 82
1, 1211043, Control_c, 0, 64, 73
1, 1211043, Control_c, 0, 67, 48
1, 1211058, Control_c, 0, 64, 63
1, 1211073, Control_c, 0, 64, 47
1, 1211073, Control_c, 0, 67, 48
1, 1211087, Control_c, 0, 64, 0
1, 1211087, Control_c, 0, 67, 47
1, 1211102, Control_c, 0, 67, 47
1, 1211125, Control_c, 0, 67, 44
1, 1211140, Control_c, 0, 67, 41
1, 1211155, Control_c, 0, 67, 38
1, 1211169, Control_c, 0, 67, 36
1, 1211184, Control_c, 0, 67, 34
1, 1211199, Control_c, 0, 67, 32
1, 1211214, Control_c, 0, 67, 28
1, 1211228, Control_c, 0, 67, 23
1, 1211243, Control_c, 0, 64, 47
1, 1211243, Control_c, 0, 67, 0
1, 1211258, Control_c, 0, 64, 58
1, 1211273, Control_c, 0, 64, 63
1, 1211288, Control_c, 0, 64, 66
1, 1211302, Control_c, 0, 64, 69
1, 1211317, Control_c, 0, 64, 73
1, 1211326, Note_on_c, 0, 75, 63
1, 1211332, Control_c, 0, 64, 78
1, 1211337, Note_on_c, 0, 60, 32
1, 1211347, Control_c, 0, 64, 84
1, 1211349, Note_on_c, 0, 67, 54
1, 1211362, Control_c, 0, 64, 91
1, 1211366, Note_off_c, 0, 72, 59
1, 1211375, Note_off_c, 0, 63, 56
1, 1211376, Control_c, 0, 64, 99
1, 1211386, Note_off_c, 0, 67, 65
1, 1211391, Control_c, 0, 64, 107
1, 1211399, Note_off_c, 0, 68, 51
1, 1211406, Control_c, 0, 64, 116
1, 1211420, Control_c, 0, 64, 127
1, 1211444, Note_off_c, 0, 75, 62
1, 1211643, Note_on_c, 0, 75, 85
1, 1211657, Note_on_c, 0, 66, 53
1, 1211668, Note_on_c, 0, 71, 59
1, 1211703, Control_c, 0, 64, 116
1, 1211718, Control_c, 0, 64, 105
1, 1211723, Note_off_c, 0, 71, 0
1, 1211723, Note_on_c, 0, 71, 37
1, 1211733, Control_c, 0, 64, 92
1, 1211748, Control_c, 0, 64, 77
1, 1211763, Control_c, 0, 64, 64
1, 1211771, Note_off_c, 0, 60, 44
1, 1211778, Control_c, 0, 64, 42
1, 1211792, Control_c, 0, 64, 0
1, 1211873, Control_c, 0, 64, 34
1, 1211888, Control_c, 0, 64, 50
1, 1211903, Control_c, 0, 64, 61
1, 1211918, Control_c, 0, 64, 65
1, 1211933, Control_c, 0, 64, 68
1, 1211948, Control_c, 0, 64, 69
1, 1211963, Control_c, 0, 64, 71
1, 1211977, Control_c, 0, 64, 75
1, 1211989, Note_on_c, 0, 63, 44
1, 1211992, Control_c, 0, 64, 82
1, 1211992, Note_on_c, 0, 78, 72
1, 1212006, Note_off_c, 0, 71, 52
1, 1212007, Control_c, 0, 64, 90
1, 1212019, Note_on_c, 0, 73, 58
1, 1212022, Control_c, 0, 64, 99
1, 1212037, Control_c, 0, 64, 111
1, 1212051, Control_c, 0, 64, 127
1, 1212059, Note_off_c, 0, 75, 61
1, 1212061, Note_off_c, 0, 66, 57
1, 1212082, Note_off_c, 0, 73, 62
1, 1212085, Note_off_c, 0, 63, 60
1, 1212107, Note_off_c, 0, 78, 63
1, 1212288, Note_on_c, 0, 78, 90
1, 1212300, Note_on_c, 0, 69, 68
1, 1212305, Note_on_c, 0, 74, 75
1, 1212378, Control_c, 0, 64, 90
1, 1212393, Control_c, 0, 64, 67
1, 1212407, Control_c, 0, 64, 48
1, 1212422, Control_c, 0, 64, 0
1, 1212466, Control_c, 0, 64, 40
1, 1212481, Control_c, 0, 64, 57
1, 1212496, Control_c, 0, 64, 65
1, 1212511, Control_c, 0, 64, 69
1, 1212526, Control_c, 0, 64, 72
1, 1212541, Control_c, 0, 64, 75
1, 1212556, Control_c, 0, 64, 79
1, 1212571, Control_c, 0, 64, 84
1, 1212585, Control_c, 0, 64, 91
1, 1212600, Control_c, 0, 64, 98
1, 1212603, Note_on_c, 0, 66, 57
1, 1212616, Note_on_c, 0, 81, 81
1, 1212622, Control_c, 0, 64, 106
1, 1212624, Note_on_c, 0, 73, 64
1, 1212626, Note_off_c, 0, 74, 39
1, 1212637, Control_c, 0, 64, 121
1, 1212652, Control_c, 0, 64, 127
1, 1212655, Note_off_c, 0, 78, 62
1, 1212684, Note_off_c, 0, 69, 57
1, 1212688, Note_off_c, 0, 73, 63
1, 1212699, Note_off_c, 0, 66, 60
1, 1212715, Note_off_c, 0, 81, 65
1, 1212934, Note_on_c, 0, 81, 101
1, 1212939, Note_on_c, 0, 72, 75
1, 1212947, Note_on_c, 0, 77, 81
1, 1213008, Control_c, 0, 64, 107
1, 1213023, Control_c, 0, 64, 80
1, 1213038, Control_c, 0, 64, 62
1, 1213053, Control_c, 0, 64, 0
1, 1213127, Control_c, 0, 64, 45
1, 1213143, Control_c, 0, 64, 58
1, 1213158, Control_c, 0, 64, 64
1, 1213172, Control_c, 0, 64, 67
1, 1213187, Control_c, 0, 64, 70
1, 1213202, Control_c, 0, 64, 73
1, 1213212, Note_off_c, 0, 77, 57
1, 1213216, Control_c, 0, 64, 77
1, 1213231, Control_c, 0, 64, 82
1, 1213246, Control_c, 0, 64, 89
1, 1213259, Note_on_c, 0, 84, 88
1, 1213260, Note_on_c, 0, 79, 82
1, 1213261, Control_c, 0, 64, 96
1, 1213271, Note_on_c, 0, 69, 71
1, 1213276, Control_c, 0, 64, 104
1, 1213281, Note_off_c, 0, 81, 63
1, 1213290, Control_c, 0, 64, 127
1, 1213316, Note_off_c, 0, 79, 66
1, 1213323, Note_off_c, 0, 72, 57
1, 1213377, Note_off_c, 0, 84, 66
1, 1213603, Note_on_c, 0, 84, 98
1, 1213608, Note_on_c, 0, 80, 90
1, 1213617, Note_on_c, 0, 75, 76
1, 1213653, Control_c, 0, 64, 93
1, 1213668, Control_c, 0, 64, 66
1, 1213683, Control_c, 0, 64, 0
1, 1213742, Control_c, 0, 64, 43
1, 1213757, Control_c, 0, 64, 63
1, 1213772, Control_c, 0, 64, 73
1, 1213787, Control_c, 0, 64, 93
1, 1213802, Control_c, 0, 64, 127
1, 1213905, Note_off_c, 0, 75, 58
1, 1213918, Note_off_c, 0, 69, 53
1, 1213947, Note_on_c, 0, 87, 104
1, 1213955, Note_on_c, 0, 72, 78
1, 1213956, Note_on_c, 0, 79, 92
1, 1213957, Note_off_c, 0, 84, 64
1, 1213962, Note_off_c, 0, 80, 64
1, 1213998, Note_off_c, 0, 72, 68
1, 1214118, Note_off_c, 0, 87, 55
1, 1214422, Note_on_c, 0, 87, 101
1, 1214436, Note_on_c, 0, 33, 90
1, 1214548, Note_off_c, 0, 79, 28
1, 1214564, Control_c, 0, 64, 105
1, 1214579, Control_c, 0, 64, 84
1, 1214594, Control_c, 0, 64, 68
1, 1214609, Control_c, 0, 64, 43
1, 1214624, Control_c, 0, 64, 0
1, 1214706, Note_on_c, 0, 39, 90
1, 1214817, Control_c, 0, 64, 52
1, 1214832, Control_c, 0, 64, 72
1, 1214847, Control_c, 0, 64, 82
1, 1214869, Control_c, 0, 64, 104
1, 1214884, Note_off_c, 0, 33, 59
1, 1214884, Control_c, 0, 64, 127
1, 1214893, Note_on_c, 0, 43, 92
1, 1214910, Note_off_c, 0, 39, 62
1, 1214946, Note_off_c, 0, 43, 64
1, 1215067, Note_on_c, 0, 86, 91
1, 1215080, Note_on_c, 0, 77, 85
1, 1215086, Note_off_c, 0, 87, 62
1, 1215095, Note_on_c, 0, 45, 76
1, 1215259, Note_on_c, 0, 51, 84
1, 1215349, Note_on_c, 0, 89, 99
1, 1215358, Note_off_c, 0, 86, 64
1, 1215413, Note_off_c, 0, 51, 61
1, 1215426, Note_on_c, 0, 55, 78
1, 1215441, Note_off_c, 0, 45, 61
1, 1215458, Note_off_c, 0, 55, 64
1, 1215647, Note_on_c, 0, 85, 93
1, 1215649, Note_on_c, 0, 81, 89
1, 1215662, Note_on_c, 0, 67, 79
1, 1215683, Note_off_c, 0, 77, 62
1, 1215699, Note_off_c, 0, 89, 61
1, 1215707, Control_c, 0, 64, 114
1, 1215722, Control_c, 0, 64, 82
1, 1215737, Control_c, 0, 64, 66
1, 1215752, Control_c, 0, 64, 58
1, 1215766, Control_c, 0, 64, 60
1, 1215781, Control_c, 0, 64, 65
1, 1215796, Control_c, 0, 64, 73
1, 1215811, Control_c, 0, 64, 82
1, 1215826, Control_c, 0, 64, 93
1, 1215841, Control_c, 0, 64, 111
1, 1215856, Control_c, 0, 64, 127
1, 1215864, Note_on_c, 0, 63, 68
1, 1216034, Note_on_c, 0, 55, 73
1, 1216093, Note_off_c, 0, 67, 49
1, 1216213, Note_on_c, 0, 84, 84
1, 1216219, Note_on_c, 0, 76, 85
1, 1216231, Note_off_c, 0, 81, 60
1, 1216249, Note_off_c, 0, 85, 61
1, 1216256, Note_off_c, 0, 55, 37
1, 1216319, Note_off_c, 0, 63, 32
1, 1216501, Control_c, 0, 67, 19
1, 1216514, Note_on_c, 0, 87, 89
1, 1216519, Note_on_c, 0, 78, 86
1, 1216530, Control_c, 0, 67, 22
1, 1216545, Control_c, 0, 64, 113
1, 1216552, Note_off_c, 0, 76, 62
1, 1216554, Note_off_c, 0, 84, 64
1, 1216559, Control_c, 0, 64, 103
1, 1216559, Control_c, 0, 67, 26
1, 1216574, Control_c, 0, 67, 28
1, 1216604, Control_c, 0, 67, 31
1, 1216619, Control_c, 0, 67, 34
1, 1216634, Control_c, 0, 64, 105
1, 1216634, Control_c, 0, 67, 37
1, 1216649, Control_c, 0, 67, 41
1, 1216663, Control_c, 0, 67, 45
1, 1216678, Control_c, 0, 67, 49
1, 1216693, Control_c, 0, 67, 52
1, 1216708, Control_c, 0, 67, 54
1, 1216719, Note_off_c, 0, 78, 63
1, 1216723, Control_c, 0, 67, 55
1, 1216738, Control_c, 0, 67, 56
1, 1216767, Control_c, 0, 67, 56
1, 1216824, Note_on_c, 0, 83, 81
1, 1216824, Note_on_c, 0, 79, 78
1, 1216827, Control_c, 0, 64, 102
1, 1216841, Control_c, 0, 67, 57
1, 1216856, Control_c, 0, 64, 99
1, 1216871, Control_c, 0, 67, 57
1, 1216875, Note_off_c, 0, 87, 60
1, 1216886, Control_c, 0, 64, 94
1, 1216901, Control_c, 0, 64, 91
1, 1216915, Control_c, 0, 64, 87
1, 1216915, Control_c, 0, 67, 58
1, 1216930, Control_c, 0, 64, 84
1, 1216930, Control_c, 0, 67, 58
1, 1216945, Control_c, 0, 64, 80
1, 1216959, Control_c, 0, 64, 75
1, 1216959, Control_c, 0, 67, 59
1, 1216974, Control_c, 0, 64, 69
1, 1216974, Control_c, 0, 67, 62
1, 1216989, Control_c, 0, 64, 64
1, 1216989, Control_c, 0, 67, 66
1, 1217004, Control_c, 0, 64, 58
1, 1217004, Control_c, 0, 67, 69
1, 1217019, Control_c, 0, 64, 52
1, 1217019, Control_c, 0, 67, 71
1, 1217033, Control_c, 0, 64, 44
1, 1217033, Control_c, 0, 67, 73
1, 1217048, Control_c, 0, 64, 31
1, 1217048, Control_c, 0, 67, 76
1, 1217063, Control_c, 0, 64, 0
1, 1217063, Control_c, 0, 67, 78
1, 1217078, Control_c, 0, 67, 81
1, 1217093, Control_c, 0, 67, 85
1, 1217115, Control_c, 0, 67, 88
1, 1217130, Control_c, 0, 67, 91
1, 1217146, Control_c, 0, 67, 94
1, 1217161, Control_c, 0, 67, 96
1, 1217190, Control_c, 0, 67, 98
1, 1217220, Control_c, 0, 64, 45
1, 1217235, Control_c, 0, 64, 58
1, 1217250, Control_c, 0, 64, 63
1, 1217264, Control_c, 0, 64, 65
1, 1217279, Control_c, 0, 64, 67
1, 1217294, Control_c, 0, 64, 68
1, 1217309, Control_c, 0, 64, 70
1, 1217324, Control_c, 0, 64, 72
1, 1217338, Control_c, 0, 64, 74
1, 1217353, Control_c, 0, 64, 75
1, 1217368, Control_c, 0, 64, 76
1, 1217382, Control_c, 0, 64, 76
1, 1217421, Note_on_c, 0, 82, 72
1, 1217424, Note_on_c, 0, 73, 62
1, 1217428, Note_on_c, 0, 32, 56
1, 1217471, Control_c, 0, 64, 76
1, 1217486, Note_off_c, 0, 83, 54
1, 1217486, Control_c, 0, 64, 74
1, 1217501, Control_c, 0, 64, 68
1, 1217516, Control_c, 0, 64, 59
1, 1217531, Control_c, 0, 64, 33
1, 1217537, Note_off_c, 0, 79, 61
1, 1217546, Control_c, 0, 64, 0
1, 1217620, Control_c, 0, 64, 44
1, 1217635, Control_c, 0, 64, 60
1, 1217635, Control_c, 0, 67, 96
1, 1217638, Note_on_c, 0, 39, 61
1, 1217650, Control_c, 0, 64, 66
1, 1217650, Control_c, 0, 67, 95
1, 1217664, Control_c, 0, 64, 70
1, 1217664, Control_c, 0, 67, 94
1, 1217679, Control_c, 0, 64, 74
1, 1217679, Control_c, 0, 67, 93
1, 1217694, Control_c, 0, 64, 78
1, 1217694, Control_c, 0, 67, 93
1, 1217708, Control_c, 0, 64, 82
1, 1217708, Control_c, 0, 67, 92
1, 1217723, Control_c, 0, 64, 89
1, 1217723, Control_c, 0, 67, 91
1, 1217731, Note_off_c, 0, 32, 53
1, 1217736, Note_on_c, 0, 85, 82
1, 1217738, Control_c, 0, 64, 98
1, 1217753, Control_c, 0, 64, 108
1, 1217768, Control_c, 0, 64, 127
1, 1217807, Note_off_c, 0, 82, 62
1, 1217824, Note_on_c, 0, 44, 63
1, 1217830, Note_off_c, 0, 39, 59
1, 1217864, Control_c, 0, 67, 91
1, 1217877, Note_off_c, 0, 44, 63
1, 1217879, Control_c, 0, 67, 90
1, 1218047, Note_on_c, 0, 81, 79
1, 1218058, Note_on_c, 0, 77, 68
1, 1218066, Note_on_c, 0, 51, 57
1, 1218117, Control_c, 0, 64, 102
1, 1218127, Note_off_c, 0, 85, 65
1, 1218132, Control_c, 0, 64, 85
1, 1218145, Note_off_c, 0, 73, 35
1, 1218147, Control_c, 0, 64, 73
1, 1218162, Control_c, 0, 64, 67
1, 1218177, Control_c, 0, 64, 66
1, 1218192, Control_c, 0, 64, 68
1, 1218192, Control_c, 0, 67, 91
1, 1218207, Control_c, 0, 64, 71
1, 1218221, Control_c, 0, 64, 74
1, 1218236, Control_c, 0, 64, 78
1, 1218236, Control_c, 0, 67, 91
1, 1218251, Control_c, 0, 64, 82
1, 1218265, Note_on_c, 0, 56, 65
1, 1218266, Control_c, 0, 64, 87
1, 1218280, Control_c, 0, 64, 91
1, 1218295, Control_c, 0, 64, 93
1, 1218310, Control_c, 0, 64, 95
1, 1218325, Control_c, 0, 64, 98
1, 1218339, Control_c, 0, 64, 100
1, 1218351, Note_off_c, 0, 77, 62
1, 1218354, Control_c, 0, 64, 102
1, 1218384, Control_c, 0, 64, 104
1, 1218399, Control_c, 0, 67, 92
1, 1218428, Control_c, 0, 67, 92
1, 1218458, Control_c, 0, 67, 93
1, 1218459, Note_on_c, 0, 58, 61
1, 1218473, Control_c, 0, 67, 93
1, 1218488, Control_c, 0, 67, 94
1, 1218488, Note_off_c, 0, 51, 33
1, 1218499, Note_off_c, 0, 81, 41
1, 1218503, Control_c, 0, 67, 95
1, 1218518, Control_c, 0, 67, 96
1, 1218561, Note_off_c, 0, 56, 37
1, 1218613, Control_c, 0, 64, 101
1, 1218613, Control_c, 0, 67, 98
1, 1218643, Control_c, 0, 64, 98
1, 1218658, Control_c, 0, 64, 96
1, 1218673, Control_c, 0, 64, 93
1, 1218683, Note_on_c, 0, 80, 59
1, 1218684, Note_on_c, 0, 68, 65
1, 1218687, Note_off_c, 0, 58, 59
1, 1218687, Control_c, 0, 64, 89
1, 1218690, Note_on_c, 0, 76, 54
1, 1218702, Control_c, 0, 64, 86
1, 1218708, Note_on_c, 0, 59, 44
1, 1218717, Control_c, 0, 64, 80
1, 1218733, Control_c, 0, 64, 73
1, 1218748, Control_c, 0, 64, 64
1, 1218762, Control_c, 0, 64, 51
1, 1218777, Control_c, 0, 64, 0
1, 1218837, Control_c, 0, 67, 100
1, 1218865, Note_off_c, 0, 76, 62
1, 1218866, Control_c, 0, 64, 39
1, 1218881, Control_c, 0, 64, 59
1, 1218896, Control_c, 0, 64, 66
1, 1218905, Note_off_c, 0, 59, 38
1, 1218911, Control_c, 0, 64, 68
1, 1218923, Note_on_c, 0, 51, 47
1, 1218926, Control_c, 0, 64, 70
1, 1218941, Control_c, 0, 64, 71
1, 1218955, Control_c, 0, 64, 74
1, 1218970, Control_c, 0, 64, 80
1, 1218985, Control_c, 0, 64, 86
1, 1218991, Note_off_c, 0, 51, 55
1, 1219000, Control_c, 0, 64, 91
1, 1219015, Control_c, 0, 64, 96
1, 1219029, Control_c, 0, 64, 99
1, 1219044, Control_c, 0, 64, 102
1, 1219074, Control_c, 0, 64, 105
1, 1219081, Note_on_c, 0, 71, 70
1, 1219103, Control_c, 0, 64, 107
1, 1219237, Note_off_c, 0, 68, 36
1, 1219248, Note_off_c, 0, 80, 51
1, 1219340, Control_c, 0, 64, 104
1, 1219340, Control_c, 0, 67, 103
1, 1219362, Control_c, 0, 64, 102
1, 1219362, Control_c, 0, 67, 110
1, 1219377, Control_c, 0, 64, 99
1, 1219377, Control_c, 0, 67, 120
1, 1219392, Control_c, 0, 64, 96
1, 1219392, Control_c, 0, 67, 127
1, 1219395, Note_on_c, 0, 75, 68
1, 1219407, Control_c, 0, 64, 92
1, 1219422, Control_c, 0, 64, 88
1, 1219427, Note_on_c, 0, 33, 53
1, 1219436, Control_c, 0, 64, 82
1, 1219451, Control_c, 0, 64, 76
1, 1219466, Control_c, 0, 64, 69
1, 1219480, Control_c, 0, 64, 59
1, 1219495, Control_c, 0, 64, 44
1, 1219510, Control_c, 0, 64, 0
1, 1219539, Note_off_c, 0, 71, 53
1, 1219674, Control_c, 0, 64, 51
1, 1219689, Control_c, 0, 64, 61
1, 1219702, Note_on_c, 0, 39, 44
1, 1219703, Control_c, 0, 64, 66
1, 1219718, Control_c, 0, 64, 71
1, 1219733, Control_c, 0, 64, 75
1, 1219748, Control_c, 0, 64, 80
1, 1219763, Control_c, 0, 64, 85
1, 1219777, Control_c, 0, 64, 91
1, 1219792, Control_c, 0, 64, 97
1, 1219807, Note_off_c, 0, 33, 34
1, 1219807, Control_c, 0, 64, 103
1, 1219822, Control_c, 0, 64, 111
1, 1219837, Control_c, 0, 64, 127
1, 1219877, Note_on_c, 0, 43, 49
1, 1219907, Note_off_c, 0, 39, 32
1, 1219928, Note_off_c, 0, 43, 61
1, 1220020, Note_on_c, 0, 74, 62
1, 1220021, Note_off_c, 0, 75, 59
1, 1220038, Note_on_c, 0, 65, 62
1, 1220084, Note_on_c, 0, 45, 53
1, 1220125, Control_c, 0, 64, 105
1, 1220140, Control_c, 0, 64, 91
1, 1220155, Control_c, 0, 64, 81
1, 1220170, Control_c, 0, 64, 75
1, 1220184, Control_c, 0, 64, 74
1, 1220214, Control_c, 0, 64, 75
1, 1220229, Control_c, 0, 64, 76
1, 1220244, Control_c, 0, 64, 78
1, 1220258, Control_c, 0, 64, 81
1, 1220272, Note_on_c, 0, 51, 55
1, 1220273, Control_c, 0, 64, 84
1, 1220288, Control_c, 0, 64, 86
1, 1220303, Control_c, 0, 64, 88
1, 1220318, Note_on_c, 0, 77, 65
1, 1220318, Control_c, 0, 64, 89
1, 1220330, Note_off_c, 0, 74, 61
1, 1220333, Control_c, 0, 64, 90
1, 1220344, Note_off_c, 0, 45, 36
1, 1220348, Control_c, 0, 64, 91
1, 1220363, Control_c, 0, 64, 92
1, 1220378, Control_c, 0, 64, 93
1, 1220393, Control_c, 0, 64, 94
1, 1220397, Note_off_c, 0, 51, 53
1, 1220407, Control_c, 0, 64, 95
1, 1220419, Note_on_c, 0, 55, 49
1, 1220422, Control_c, 0, 64, 96
1, 1220455, Note_off_c, 0, 55, 65
1, 1220541, Control_c, 0, 64, 95
1, 1220556, Control_c, 0, 64, 95
1, 1220571, Control_c, 0, 64, 93
1, 1220586, Control_c, 0, 64, 92
1, 1220600, Control_c, 0, 64, 91
1, 1220615, Control_c, 0, 64, 89
1, 1220630, Control_c, 0, 64, 87
1, 1220631, Note_on_c, 0, 73, 70
1, 1220640, Note_off_c, 0, 65, 62
1, 1220645, Control_c, 0, 64, 84
1, 1220655, Note_on_c, 0, 69, 45
1, 1220660, Control_c, 0, 64, 81
1, 1220674, Control_c, 0, 64, 78
1, 1220680, Note_on_c, 0, 67, 42
1, 1220689, Control_c, 0, 64, 75
1, 1220704, Control_c, 0, 64, 71
1, 1220719, Control_c, 0, 64, 66
1, 1220733, Control_c, 0, 64, 59
1, 1220748, Control_c, 0, 64, 48
1, 1220763, Control_c, 0, 64, 0
1, 1220792, Note_off_c, 0, 77, 59
1, 1220837, Control_c, 0, 64, 41
1, 1220859, Control_c, 0, 64, 56
1, 1220874, Control_c, 0, 64, 64
1, 1220883, Note_on_c, 0, 63, 39
1, 1220889, Control_c, 0, 64, 67
1, 1220904, Control_c, 0, 64, 69
1, 1220919, Control_c, 0, 64, 70
1, 1220933, Control_c, 0, 64, 71
1, 1220948, Control_c, 0, 64, 73
1, 1220952, Note_off_c, 0, 67, 37
1, 1220963, Control_c, 0, 64, 75
1, 1220965, Note_off_c, 0, 69, 62
1, 1220978, Control_c, 0, 64, 76
1, 1220993, Control_c, 0, 64, 78
1, 1221007, Control_c, 0, 64, 79
1, 1221022, Control_c, 0, 64, 79
1, 1221052, Control_c, 0, 64, 80
1, 1221060, Note_on_c, 0, 55, 42
1, 1221109, Note_off_c, 0, 63, 37
1, 1221138, Note_off_c, 0, 55, 33
1, 1221230, Control_c, 0, 64, 79
1, 1221231, Note_on_c, 0, 72, 57
1, 1221245, Note_on_c, 0, 64, 40
1, 1221245, Control_c, 0, 64, 78
1, 1221257, Note_off_c, 0, 73, 53
1, 1221260, Control_c, 0, 64, 76
1, 1221275, Control_c, 0, 64, 72
1, 1221290, Control_c, 0, 64, 67
1, 1221305, Control_c, 0, 64, 62
1, 1221320, Control_c, 0, 64, 60
1, 1221335, Control_c, 0, 64, 61
1, 1221349, Control_c, 0, 64, 64
1, 1221364, Control_c, 0, 64, 67
1, 1221379, Control_c, 0, 64, 69
1, 1221394, Control_c, 0, 64, 70
1, 1221423, Control_c, 0, 64, 69
1, 1221438, Control_c, 0, 64, 68
1, 1221453, Control_c, 0, 64, 67
1, 1221468, Control_c, 0, 64, 65
1, 1221482, Control_c, 0, 64, 64
1, 1221497, Control_c, 0, 64, 63
1, 1221512, Control_c, 0, 64, 61
1, 1221527, Control_c, 0, 64, 59
1, 1221542, Control_c, 0, 64, 56
1, 1221549, Note_on_c, 0, 75, 57
1, 1221556, Note_on_c, 0, 66, 47
1, 1221556, Control_c, 0, 64, 54
1, 1221571, Control_c, 0, 64, 55
1, 1221574, Note_off_c, 0, 72, 50
1, 1221586, Control_c, 0, 64, 57
1, 1221588, Note_off_c, 0, 64, 37
1, 1221609, Control_c, 0, 64, 61
1, 1221624, Control_c, 0, 64, 63
1, 1221638, Control_c, 0, 64, 66
1, 1221653, Control_c, 0, 64, 68
1, 1221668, Control_c, 0, 64, 71
1, 1221682, Control_c, 0, 64, 74
1, 1221697, Control_c, 0, 64, 77
1, 1221712, Control_c, 0, 64, 79
1, 1221722, Note_off_c, 0, 66, 60
1, 1221727, Control_c, 0, 64, 81
1, 1221742, Control_c, 0, 64, 82
1, 1221860, Control_c, 0, 64, 82
1, 1221874, Control_c, 0, 64, 81
1, 1221887, Note_on_c, 0, 71, 53
1, 1221889, Control_c, 0, 64, 80
1, 1221898, Note_on_c, 0, 67, 41
1, 1221904, Control_c, 0, 64, 78
1, 1221919, Control_c, 0, 64, 76
1, 1221935, Control_c, 0, 64, 74
1, 1221950, Control_c, 0, 64, 72
1, 1221965, Control_c, 0, 64, 70
1, 1221979, Control_c, 0, 64, 68
1, 1221994, Control_c, 0, 64, 64
1, 1222006, Note_off_c, 0, 75, 46
1, 1222009, Control_c, 0, 64, 60
1, 1222024, Control_c, 0, 64, 51
1, 1222039, Control_c, 0, 64, 40
1, 1222053, Control_c, 0, 64, 0
1, 1222098, Control_c, 0, 64, 38
1, 1222113, Control_c, 0, 64, 48
1, 1222127, Control_c, 0, 64, 56
1, 1222142, Control_c, 0, 64, 61
1, 1222157, Control_c, 0, 64, 63
1, 1222172, Control_c, 0, 64, 65
1, 1222187, Control_c, 0, 64, 65
1, 1222202, Control_c, 0, 64, 66
1, 1222217, Control_c, 0, 64, 67
1, 1222232, Control_c, 0, 64, 67
1, 1222246, Control_c, 0, 64, 68
1, 1222261, Control_c, 0, 64, 70
1, 1222276, Control_c, 0, 64, 72
1, 1222291, Control_c, 0, 64, 73
1, 1222305, Control_c, 0, 64, 75
1, 1222320, Control_c, 0, 64, 77
1, 1222335, Control_c, 0, 64, 79
1, 1222357, Control_c, 0, 64, 81
1, 1222372, Control_c, 0, 64, 83
1, 1222387, Control_c, 0, 64, 84
1, 1222461, Control_c, 0, 64, 84
1, 1222468, Note_on_c, 0, 70, 51
1, 1222476, Control_c, 0, 64, 81
1, 1222491, Control_c, 0, 64, 76
1, 1222500, Note_on_c, 0, 32, 38
1, 1222502, Note_on_c, 0, 61, 36
1, 1222505, Control_c, 0, 64, 69
1, 1222520, Control_c, 0, 64, 64
1, 1222524, Note_off_c, 0, 67, 36
1, 1222535, Control_c, 0, 64, 59
1, 1222550, Control_c, 0, 64, 57
1, 1222563, Note_off_c, 0, 71, 36
1, 1222565, Control_c, 0, 64, 59
1, 1222579, Control_c, 0, 64, 62
1, 1222594, Control_c, 0, 64, 65
1, 1222609, Control_c, 0, 64, 69
1, 1222623, Control_c, 0, 64, 72
1, 1222638, Control_c, 0, 64, 75
1, 1222653, Control_c, 0, 64, 78
1, 1222668, Control_c, 0, 64, 80
1, 1222683, Control_c, 0, 64, 81
1, 1222697, Control_c, 0, 64, 82
1, 1222712, Control_c, 0, 64, 83
1, 1222722, Note_on_c, 0, 39, 43
1, 1222728, Control_c, 0, 64, 83
1, 1222743, Control_c, 0, 64, 84
1, 1222754, Note_off_c, 0, 32, 38
1, 1222758, Control_c, 0, 64, 84
1, 1222773, Control_c, 0, 64, 85
1, 1222817, Control_c, 0, 64, 85
1, 1222821, Note_on_c, 0, 73, 53
1, 1222866, Note_off_c, 0, 70, 57
1, 1222915, Note_off_c, 0, 39, 42
1, 1222920, Note_on_c, 0, 44, 48
1, 1222957, Note_off_c, 0, 44, 64
1, 1223054, Control_c, 0, 64, 85
1, 1223069, Control_c, 0, 64, 84
1, 1223084, Control_c, 0, 64, 84
1, 1223121, Control_c, 0, 64, 83
1, 1223135, Control_c, 0, 64, 83
1, 1223150, Control_c, 0, 64, 82
1, 1223165, Control_c, 0, 64, 82
1, 1223175, Note_on_c, 0, 69, 49
1, 1223180, Control_c, 0, 64, 81
1, 1223195, Control_c, 0, 64, 80
1, 1223201, Note_on_c, 0, 65, 41
1, 1223204, Note_on_c, 0, 51, 32
1, 1223209, Control_c, 0, 64, 80
1, 1223224, Control_c, 0, 64, 79
1, 1223239, Control_c, 0, 64, 77
1, 1223254, Control_c, 0, 64, 75
1, 1223269, Control_c, 0, 64, 73
1, 1223278, Note_off_c, 0, 61, 31
1, 1223284, Control_c, 0, 64, 70
1, 1223299, Control_c, 0, 64, 67
1, 1223303, Note_off_c, 0, 73, 38
1, 1223314, Control_c, 0, 64, 62
1, 1223329, Control_c, 0, 64, 56
1, 1223344, Control_c, 0, 64, 46
1, 1223359, Control_c, 0, 64, 33
1, 1223373, Control_c, 0, 64, 0
1, 1223403, Note_on_c, 0, 56, 43
1, 1223418, Control_c, 0, 64, 30
1, 1223433, Control_c, 0, 64, 38
1, 1223447, Control_c, 0, 64, 47
1, 1223462, Control_c, 0, 64, 57
1, 1223477, Control_c, 0, 64, 61
1, 1223492, Control_c, 0, 64, 64
1, 1223507, Control_c, 0, 64, 65
1, 1223516, Note_off_c, 0, 51, 40
1, 1223522, Control_c, 0, 64, 66
1, 1223537, Control_c, 0, 64, 66
1, 1223552, Control_c, 0, 64, 67
1, 1223567, Control_c, 0, 64, 68
1, 1223597, Control_c, 0, 64, 68
1, 1223600, Note_on_c, 0, 58, 43
1, 1223640, Note_off_c, 0, 56, 37
1, 1223685, Control_c, 0, 64, 68
1, 1223730, Control_c, 0, 64, 67
1, 1223759, Control_c, 0, 64, 67
1, 1223774, Control_c, 0, 64, 66
1, 1223788, Note_off_c, 0, 58, 51
1, 1223804, Control_c, 0, 64, 66
1, 1223812, Note_off_c, 0, 65, 39
1, 1223818, Control_c, 0, 64, 65
1, 1223821, Note_on_c, 0, 59, 25
1, 1223828, Note_on_c, 0, 68, 33
1, 1223833, Control_c, 0, 64, 64
1, 1223837, Note_on_c, 0, 64, 36
1, 1223856, Control_c, 0, 64, 64
1, 1223871, Control_c, 0, 64, 63
1, 1223885, Control_c, 0, 64, 63
1, 1223890, Note_off_c, 0, 69, 40
1, 1223900, Control_c, 0, 64, 62
1, 1223915, Control_c, 0, 64, 61
1, 1223930, Control_c, 0, 64, 59
1, 1223945, Control_c, 0, 64, 56
1, 1223959, Control_c, 0, 64, 53
1, 1223974, Control_c, 0, 64, 48
1, 1223989, Control_c, 0, 64, 42
1, 1224004, Control_c, 0, 64, 33
1, 1224019, Control_c, 0, 64, 0
1, 1224040, Note_on_c, 0, 61, 35
1, 1224040, Note_off_c, 0, 59, 42
1, 1224107, Control_c, 0, 64, 32
1, 1224122, Control_c, 0, 64, 37
1, 1224137, Control_c, 0, 64, 44
1, 1224151, Control_c, 0, 64, 51
1, 1224166, Control_c, 0, 64, 56
1, 1224181, Control_c, 0, 64, 58
1, 1224196, Control_c, 0, 64, 59
1, 1224201, Note_off_c, 0, 64, 62
1, 1224211, Control_c, 0, 64, 60
1, 1224220, Note_off_c, 0, 68, 57
1, 1224226, Control_c, 0, 64, 61
1, 1224241, Control_c, 0, 64, 62
1, 1224256, Control_c, 0, 64, 63
1, 1224270, Control_c, 0, 64, 64
1, 1224285, Control_c, 0, 64, 64
1, 1224296, Note_on_c, 0, 62, 28
1, 1224330, Control_c, 0, 64, 65
1, 1224345, Control_c, 0, 64, 66
1, 1224352, Note_off_c, 0, 61, 43
1, 1224360, Control_c, 0, 64, 66
1, 1224375, Control_c, 0, 64, 68
1, 1224390, Control_c, 0, 64, 69
1, 1224405, Control_c, 0, 64, 71
1, 1224420, Control_c, 0, 64, 73
1, 1224435, Control_c, 0, 64, 75
1, 1224435, Control_c, 0, 67, 119
1, 1224447, Note_off_c, 0, 62, 53
1, 1224449, Control_c, 0, 64, 77
1, 1224449, Control_c, 0, 67, 93
1, 1224464, Control_c, 0, 64, 79
1, 1224464, Control_c, 0, 67, 64
1, 1224479, Control_c, 0, 67, 34
1, 1224493, Control_c, 0, 64, 74
1, 1224493, Control_c, 0, 67, 0
1, 1224508, Control_c, 0, 64, 61
1, 1224523, Control_c, 0, 64, 0
1, 1224535, Note_on_c, 0, 59, 65
1, 1224535, Note_on_c, 0, 63, 73
1, 1224539, Note_on_c, 0, 56, 73
1, 1224634, Control_c, 0, 67, 21
1, 1224649, Control_c, 0, 67, 28
1, 1224664, Control_c, 0, 67, 40
1, 1224679, Control_c, 0, 67, 62
1, 1224694, Control_c, 0, 67, 91
1, 1224708, Control_c, 0, 67, 120
1, 1224723, Control_c, 0, 67, 127
1, 1224813, Note_on_c, 0, 27, 76
1, 1224818, Note_on_c, 0, 39, 64
1, 1224844, Note_off_c, 0, 39, 60
1, 1224845, Note_off_c, 0, 27, 64
1, 1224944, Note_on_c, 0, 51, 64
1, 1224978, Note_off_c, 0, 51, 65
1, 1225080, Note_on_c, 0, 40, 61
1, 1225081, Note_on_c, 0, 28, 66
1, 1225105, Note_off_c, 0, 40, 56
1, 1225111, Note_off_c, 0, 28, 62
1, 1225211, Note_on_c, 0, 52, 56
1, 1225242, Note_off_c, 0, 52, 64
1, 1225335, Note_on_c, 0, 27, 52
1, 1225349, Note_on_c, 0, 39, 40
1, 1225383, Note_off_c, 0, 39, 45
1, 1225415, Note_off_c, 0, 27, 51
1, 1225500, Note_on_c, 0, 51, 44
1, 1225531, Note_off_c, 0, 51, 58
1, 1225947, Note_on_c, 0, 51, 42
1, 1225990, Note_off_c, 0, 63, 44
1, 1225996, Note_off_c, 0, 59, 56
1, 1225997, Note_off_c, 0, 56, 57
1, 1226246, Note_on_c, 0, 63, 48
1, 1226256, Note_on_c, 0, 59, 42
1, 1226262, Note_off_c, 0, 51, 50
1, 1226273, Note_on_c, 0, 56, 36
1, 1226742, Note_on_c, 0, 27, 77
1, 1226752, Note_on_c, 0, 39, 61
1, 1226772, Note_off_c, 0, 27, 64
1, 1226778, Note_off_c, 0, 39, 58
1, 1226889, Note_on_c, 0, 51, 58
1, 1226924, Note_off_c, 0, 51, 62
1, 1226998, Note_on_c, 0, 27, 68
1, 1227001, Note_on_c, 0, 39, 67
1, 1227026, Note_off_c, 0, 27, 64
1, 1227032, Note_off_c, 0, 39, 63
1, 1227131, Note_on_c, 0, 51, 59
1, 1227162, Note_off_c, 0, 51, 63
1, 1227236, Note_on_c, 0, 40, 56
1, 1227246, Note_on_c, 0, 28, 55
1, 1227269, Note_off_c, 0, 40, 64
1, 1227282, Note_off_c, 0, 28, 64
1, 1227382, Note_on_c, 0, 52, 44
1, 1227419, Note_off_c, 0, 52, 51
1, 1227508, Note_on_c, 0, 27, 49
1, 1227524, Note_on_c, 0, 39, 30
1, 1227541, Note_off_c, 0, 27, 59
1, 1227565, Note_off_c, 0, 39, 41
1, 1227692, Note_on_c, 0, 51, 49
1, 1227867, Control_c, 0, 64, 34
1, 1227882, Control_c, 0, 64, 47
1, 1227897, Control_c, 0, 64, 57
1, 1227912, Control_c, 0, 64, 63
1, 1227926, Control_c, 0, 64, 66
1, 1227941, Control_c, 0, 64, 69
1, 1227944, Note_off_c, 0, 63, 56
1, 1227953, Note_off_c, 0, 59, 52
1, 1227956, Control_c, 0, 64, 73
1, 1227971, Control_c, 0, 64, 76
1, 1227986, Control_c, 0, 64, 81
1, 1227994, Note_off_c, 0, 56, 41
1, 1228000, Control_c, 0, 64, 87
1, 1228015, Control_c, 0, 64, 91
1, 1228030, Control_c, 0, 64, 96
1, 1228237, Control_c, 0, 64, 95
1, 1228252, Control_c, 0, 64, 94
1, 1228267, Control_c, 0, 64, 93
1, 1228282, Control_c, 0, 64, 92
1, 1228297, Control_c, 0, 64, 90
1, 1228313, Control_c, 0, 64, 88
1, 1228328, Control_c, 0, 64, 86
1, 1228349, Control_c, 0, 64, 85
1, 1228364, Control_c, 0, 64, 83
1, 1228379, Control_c, 0, 64, 82
1, 1228381, Note_on_c, 0, 63, 42
1, 1228385, Note_on_c, 0, 59, 40
1, 1228393, Control_c, 0, 64, 80
1, 1228400, Note_on_c, 0, 56, 39
1, 1228408, Control_c, 0, 64, 78
1, 1228423, Control_c, 0, 64, 76
1, 1228438, Control_c, 0, 64, 74
1, 1228453, Control_c, 0, 64, 72
1, 1228468, Control_c, 0, 64, 70
1, 1228483, Control_c, 0, 64, 68
1, 1228498, Control_c, 0, 64, 66
1, 1228513, Control_c, 0, 64, 64
1, 1228527, Control_c, 0, 64, 62
1, 1228542, Control_c, 0, 64, 57
1, 1228556, Control_c, 0, 64, 52
1, 1228571, Control_c, 0, 64, 47
1, 1228586, Control_c, 0, 64, 43
1, 1228600, Control_c, 0, 64, 38
1, 1228615, Control_c, 0, 64, 32
1, 1228630, Control_c, 0, 64, 0
1, 1228734, Control_c, 0, 64, 33
1, 1228748, Control_c, 0, 64, 39
1, 1228763, Control_c, 0, 64, 47
1, 1228778, Control_c, 0, 64, 53
1, 1228793, Control_c, 0, 64, 55
1, 1228808, Control_c, 0, 64, 57
1, 1228823, Control_c, 0, 64, 59
1, 1228837, Control_c, 0, 64, 63
1, 1228852, Control_c, 0, 64, 66
1, 1228867, Control_c, 0, 64, 70
1, 1228881, Note_off_c, 0, 63, 63
1, 1228882, Control_c, 0, 64, 74
1, 1228896, Note_off_c, 0, 59, 64
1, 1228897, Control_c, 0, 64, 77
1, 1228903, Note_off_c, 0, 56, 61
1, 1228912, Control_c, 0, 64, 80
1, 1228912, Note_off_c, 0, 51, 56
1, 1228927, Control_c, 0, 64, 82
1, 1228941, Control_c, 0, 64, 83
1, 1228956, Control_c, 0, 64, 84
1, 1228971, Control_c, 0, 64, 85
1, 1228985, Control_c, 0, 64, 86
1, 1229127, Control_c, 0, 64, 85
1, 1229142, Control_c, 0, 64, 84
1, 1229157, Control_c, 0, 64, 82
1, 1229171, Control_c, 0, 64, 80
1, 1229186, Control_c, 0, 64, 78
1, 1229201, Control_c, 0, 64, 77
1, 1229216, Control_c, 0, 64, 74
1, 1229231, Control_c, 0, 64, 71
1, 1229246, Control_c, 0, 64, 66
1, 1229254, Note_on_c, 0, 39, 72
1, 1229261, Control_c, 0, 64, 63
1, 1229276, Control_c, 0, 64, 59
1, 1229283, Note_off_c, 0, 39, 64
1, 1229290, Control_c, 0, 64, 57
1, 1229305, Control_c, 0, 64, 55
1, 1229320, Control_c, 0, 64, 53
1, 1229335, Control_c, 0, 64, 51
1, 1229350, Control_c, 0, 64, 50
1, 1229364, Control_c, 0, 64, 48
1, 1229374, Note_on_c, 0, 27, 60
1, 1229379, Control_c, 0, 64, 45
1, 1229394, Control_c, 0, 64, 41
1, 1229406, Note_off_c, 0, 27, 64
1, 1229409, Control_c, 0, 64, 37
1, 1229423, Control_c, 0, 64, 35
1, 1229438, Control_c, 0, 64, 33
1, 1229453, Control_c, 0, 64, 31
1, 1229468, Control_c, 0, 64, 0
1, 1229494, Note_on_c, 0, 40, 59
1, 1229523, Note_off_c, 0, 40, 63
1, 1229589, Note_on_c, 0, 28, 53
1, 1229623, Note_off_c, 0, 28, 64
1, 1229715, Note_on_c, 0, 45, 71
1, 1229742, Note_off_c, 0, 45, 65
1, 1229820, Note_on_c, 0, 33, 56
1, 1229859, Note_off_c, 0, 33, 63
1, 1229961, Note_on_c, 0, 41, 64
1, 1229987, Note_off_c, 0, 41, 65
1, 1230065, Note_on_c, 0, 29, 56
1, 1230096, Note_off_c, 0, 29, 60
1, 1230183, Note_on_c, 0, 48, 68
1, 1230215, Note_off_c, 0, 48, 68
1, 1230298, Note_on_c, 0, 36, 62
1, 1230330, Note_off_c, 0, 36, 63
1, 1230411, Note_on_c, 0, 44, 70
1, 1230438, Note_off_c, 0, 44, 66
1, 1230510, Note_on_c, 0, 32, 66
1, 1230542, Note_off_c, 0, 32, 62
1, 1230649, Note_on_c, 0, 47, 68
1, 1230679, Note_off_c, 0, 47, 66
1, 1230754, Note_on_c, 0, 35, 63
1, 1230784, Note_off_c, 0, 35, 63
1, 1230876, Note_on_c, 0, 51, 68
1, 1230917, Note_off_c, 0, 51, 64
1, 1230987, Note_on_c, 0, 39, 54
1, 1231017, Note_off_c, 0, 39, 61
1, 1231096, Note_on_c, 0, 54, 74
1, 1231131, Note_off_c, 0, 54, 64
1, 1231210, Note_on_c, 0, 42, 65
1, 1231237, Note_off_c, 0, 42, 65
1, 1231340, Note_on_c, 0, 50, 76
1, 1231368, Note_off_c, 0, 50, 67
1, 1231440, Note_on_c, 0, 38, 66
1, 1231468, Note_off_c, 0, 38, 64
1, 1231569, Note_on_c, 0, 57, 76
1, 1231598, Note_off_c, 0, 57, 67
1, 1231680, Note_on_c, 0, 45, 71
1, 1231707, Note_off_c, 0, 45, 66
1, 1231794, Note_on_c, 0, 53, 73
1, 1231822, Note_off_c, 0, 53, 66
1, 1231882, Note_on_c, 0, 41, 70
1, 1231912, Note_off_c, 0, 41, 62
1, 1232012, Note_on_c, 0, 60, 80
1, 1232047, Note_off_c, 0, 60, 66
1, 1232122, Note_on_c, 0, 48, 78
1, 1232148, Note_off_c, 0, 48, 69
1, 1232243, Note_on_c, 0, 56, 89
1, 1232277, Note_off_c, 0, 56, 64
1, 1232328, Note_on_c, 0, 44, 82
1, 1232356, Note_off_c, 0, 44, 69
1, 1232456, Note_on_c, 0, 63, 93
1, 1232496, Note_off_c, 0, 63, 67
1, 1232565, Note_on_c, 0, 51, 86
1, 1232588, Note_off_c, 0, 51, 70
1, 1232641, Control_c, 0, 67, 120
1, 1232656, Control_c, 0, 67, 110
1, 1232671, Note_on_c, 0, 59, 89
1, 1232671, Control_c, 0, 67, 98
1, 1232686, Control_c, 0, 67, 80
1, 1232701, Control_c, 0, 67, 63
1, 1232713, Note_off_c, 0, 59, 63
1, 1232716, Control_c, 0, 67, 45
1, 1232730, Control_c, 0, 67, 27
1, 1232745, Control_c, 0, 67, 0
1, 1232763, Note_on_c, 0, 47, 95
1, 1232791, Note_off_c, 0, 47, 69
1, 1232882, Note_on_c, 0, 60, 98
1, 1232884, Note_on_c, 0, 63, 96
1, 1232885, Note_on_c, 0, 57, 101
1, 1232930, Control_c, 0, 64, 68
1, 1232945, Control_c, 0, 64, 127
1, 1233109, Control_c, 0, 64, 97
1, 1233124, Control_c, 0, 64, 62
1, 1233133, Note_on_c, 0, 52, 95
1, 1233139, Control_c, 0, 64, 0
1, 1233152, Note_off_c, 0, 52, 72
1, 1233252, Note_on_c, 0, 52, 92
1, 1233272, Control_c, 0, 67, 21
1, 1233288, Note_off_c, 0, 52, 66
1, 1233334, Note_off_c, 0, 57, 0
1, 1233356, Note_on_c, 0, 57, 45
1, 1233361, Control_c, 0, 64, 39
1, 1233365, Note_on_c, 0, 53, 98
1, 1233376, Control_c, 0, 64, 0
1, 1233389, Note_off_c, 0, 53, 66
1, 1233482, Note_on_c, 0, 53, 93
1, 1233511, Note_off_c, 0, 53, 66
1, 1233596, Note_on_c, 0, 52, 95
1, 1233618, Note_off_c, 0, 52, 70
1, 1233707, Note_on_c, 0, 52, 91
1, 1233738, Note_off_c, 0, 52, 66
1, 1233821, Note_on_c, 0, 53, 97
1, 1233848, Note_off_c, 0, 53, 66
1, 1233934, Note_on_c, 0, 53, 91
1, 1233962, Note_off_c, 0, 53, 65
1, 1234005, Control_c, 0, 67, 23
1, 1234039, Note_on_c, 0, 52, 93
1, 1234062, Note_off_c, 0, 52, 70
1, 1234147, Note_on_c, 0, 53, 85
1, 1234168, Note_off_c, 0, 63, 60
1, 1234179, Note_off_c, 0, 53, 65
1, 1234212, Control_c, 0, 64, 36
1, 1234227, Control_c, 0, 64, 50
1, 1234242, Control_c, 0, 64, 43
1, 1234257, Note_on_c, 0, 64, 88
1, 1234257, Control_c, 0, 64, 0
1, 1234274, Note_on_c, 0, 52, 81
1, 1234296, Note_off_c, 0, 52, 69
1, 1234346, Note_off_c, 0, 60, 56
1, 1234373, Note_on_c, 0, 52, 81
1, 1234383, Control_c, 0, 67, 25
1, 1234427, Control_c, 0, 67, 27
1, 1234440, Note_off_c, 0, 52, 51
1, 1234443, Note_off_c, 0, 57, 54
1, 1234457, Control_c, 0, 67, 33
1, 1234472, Control_c, 0, 67, 42
1, 1234486, Note_on_c, 0, 47, 68
1, 1234486, Control_c, 0, 67, 53
1, 1234501, Control_c, 0, 67, 67
1, 1234514, Note_off_c, 0, 47, 67
1, 1234516, Control_c, 0, 67, 83
1, 1234531, Control_c, 0, 67, 96
1, 1234546, Control_c, 0, 67, 106
1, 1234561, Control_c, 0, 67, 111
1, 1234591, Note_off_c, 0, 64, 61
1, 1234595, Note_on_c, 0, 48, 73
1, 1234620, Note_off_c, 0, 48, 67
1, 1234723, Note_on_c, 0, 63, 74
1, 1234731, Note_on_c, 0, 49, 62
1, 1234737, Note_on_c, 0, 56, 62
1, 1234744, Note_on_c, 0, 61, 48
1, 1234754, Note_off_c, 0, 49, 67
1, 1234841, Note_on_c, 0, 44, 63
1, 1234871, Note_off_c, 0, 44, 65
1, 1234947, Note_on_c, 0, 51, 76
1, 1234972, Note_off_c, 0, 51, 66
1, 1234976, Control_c, 0, 67, 108
1, 1235006, Control_c, 0, 67, 106
1, 1235035, Control_c, 0, 67, 104
1, 1235065, Control_c, 0, 67, 101
1, 1235069, Note_on_c, 0, 49, 89
1, 1235096, Note_off_c, 0, 49, 72
1, 1235132, Control_c, 0, 67, 99
1, 1235161, Control_c, 0, 67, 97
1, 1235191, Note_on_c, 0, 52, 99
1, 1235217, Note_off_c, 0, 52, 65
1, 1235292, Note_on_c, 0, 55, 88
1, 1235334, Note_off_c, 0, 55, 63
1, 1235353, Control_c, 0, 67, 95
1, 1235368, Control_c, 0, 67, 93
1, 1235383, Control_c, 0, 67, 88
1, 1235398, Control_c, 0, 67, 82
1, 1235399, Note_on_c, 0, 66, 80
1, 1235413, Control_c, 0, 67, 76
1, 1235413, Note_on_c, 0, 52, 85
1, 1235423, Note_off_c, 0, 63, 61
1, 1235427, Control_c, 0, 67, 69
1, 1235442, Control_c, 0, 67, 56
1, 1235443, Note_off_c, 0, 52, 67
1, 1235457, Control_c, 0, 67, 45
1, 1235472, Control_c, 0, 67, 36
1, 1235486, Control_c, 0, 67, 32
1, 1235511, Note_on_c, 0, 48, 89
1, 1235532, Control_c, 0, 64, 46
1, 1235537, Note_off_c, 0, 48, 69
1, 1235547, Control_c, 0, 64, 48
1, 1235562, Control_c, 0, 64, 36
1, 1235576, Control_c, 0, 64, 0
1, 1235621, Control_c, 0, 67, 30
1, 1235628, Note_on_c, 0, 64, 87
1, 1235637, Note_on_c, 0, 49, 93
1, 1235638, Note_off_c, 0, 66, 62
1, 1235667, Note_off_c, 0, 49, 67
1, 1235680, Control_c, 0, 67, 32
1, 1235695, Control_c, 0, 67, 35
1, 1235709, Control_c, 0, 67, 37
1, 1235724, Control_c, 0, 67, 38
1, 1235753, Note_on_c, 0, 44, 86
1, 1235778, Note_off_c, 0, 44, 71
1, 1235783, Control_c, 0, 67, 38
1, 1235798, Control_c, 0, 67, 37
1, 1235813, Control_c, 0, 67, 36
1, 1235836, Control_c, 0, 67, 36
1, 1235850, Control_c, 0, 67, 35
1, 1235865, Control_c, 0, 67, 34
1, 1235875, Note_on_c, 0, 49, 86
1, 1235880, Control_c, 0, 67, 34
1, 1235901, Note_off_c, 0, 49, 68
1, 1235909, Control_c, 0, 67, 33
1, 1235939, Control_c, 0, 67, 32
1, 1235954, Control_c, 0, 67, 32
1, 1235977, Note_on_c, 0, 51, 85
1, 1236009, Note_off_c, 0, 51, 66
1, 1236044, Control_c, 0, 67, 30
1, 1236094, Note_on_c, 0, 49, 88
1, 1236102, Control_c, 0, 67, 27
1, 1236117, Control_c, 0, 67, 21
1, 1236132, Control_c, 0, 64, 62
1, 1236132, Control_c, 0, 67, 0
1, 1236147, Control_c, 0, 64, 104
1, 1236162, Control_c, 0, 64, 127
1, 1236206, Note_off_c, 0, 49, 66
1, 1236216, Note_off_c, 0, 61, 54
1, 1236247, Note_off_c, 0, 56, 61
1, 1236281, Control_c, 0, 64, 114
1, 1236294, Note_off_c, 0, 64, 58
1, 1236296, Control_c, 0, 64, 64
1, 1236311, Control_c, 0, 64, 0
1, 1236325, Note_on_c, 0, 52, 85
1, 1236383, Note_on_c, 0, 53, 86
1, 1236414, Note_off_c, 0, 52, 62
1, 1236415, Note_on_c, 0, 54, 90
1, 1236418, Note_off_c, 0, 53, 65
1, 1236454, Note_on_c, 0, 56, 99
1, 1236462, Note_off_c, 0, 54, 61
1, 1236489, Control_c, 0, 64, 58
1, 1236493, Note_off_c, 0, 56, 66
1, 1236504, Control_c, 0, 64, 101
1, 1236519, Control_c, 0, 64, 127
1, 1236519, Note_on_c, 0, 60, 103
1, 1236520, Note_on_c, 0, 63, 99
1, 1236521, Note_on_c, 0, 57, 102
1, 1236630, Control_c, 0, 64, 78
1, 1236630, Control_c, 0, 67, 21
1, 1236644, Control_c, 0, 64, 50
1, 1236644, Control_c, 0, 67, 25
1, 1236659, Control_c, 0, 64, 0
1, 1236674, Control_c, 0, 67, 23
1, 1236689, Control_c, 0, 67, 21
1, 1236704, Control_c, 0, 67, 0
1, 1236781, Note_on_c, 0, 52, 98
1, 1236801, Note_off_c, 0, 52, 69
1, 1236896, Control_c, 0, 67, 22
1, 1236898, Note_on_c, 0, 52, 92
1, 1236911, Control_c, 0, 67, 24
1, 1236939, Note_off_c, 0, 52, 63
1, 1236985, Control_c, 0, 67, 21
1, 1236999, Control_c, 0, 67, 19
1, 1237014, Control_c, 0, 67, 0
1, 1237017, Note_on_c, 0, 53, 99
1, 1237044, Note_off_c, 0, 53, 66
1, 1237134, Control_c, 0, 67, 19
1, 1237135, Note_on_c, 0, 53, 91
1, 1237166, Note_off_c, 0, 53, 65
1, 1237223, Control_c, 0, 67, 0
1, 1237250, Note_on_c, 0, 52, 91
1, 1237280, Note_off_c, 0, 52, 67
1, 1237363, Control_c, 0, 67, 19
1, 1237375, Note_on_c, 0, 52, 88
1, 1237407, Note_off_c, 0, 52, 65
1, 1237494, Note_on_c, 0, 53, 88
1, 1237497, Control_c, 0, 67, 0
1, 1237516, Note_off_c, 0, 53, 70
1, 1237586, Control_c, 0, 67, 20
1, 1237612, Note_on_c, 0, 53, 82
1, 1237635, Note_off_c, 0, 53, 69
1, 1237707, Note_on_c, 0, 52, 90
1, 1237739, Note_off_c, 0, 52, 65
1, 1237817, Note_on_c, 0, 53, 79
1, 1237852, Note_off_c, 0, 63, 57
1, 1237863, Note_off_c, 0, 53, 59
1, 1237926, Note_on_c, 0, 52, 84
1, 1237927, Control_c, 0, 67, 0
1, 1237944, Note_on_c, 0, 64, 75
1, 1237947, Note_off_c, 0, 52, 71
1, 1238007, Note_off_c, 0, 60, 55
1, 1238045, Control_c, 0, 67, 19
1, 1238052, Note_on_c, 0, 52, 71
1, 1238112, Control_c, 0, 67, 22
1, 1238127, Control_c, 0, 67, 24
1, 1238142, Control_c, 0, 67, 26
1, 1238150, Note_off_c, 0, 52, 31
1, 1238157, Control_c, 0, 67, 30
1, 1238172, Control_c, 0, 67, 39
1, 1238177, Note_on_c, 0, 47, 59
1, 1238186, Control_c, 0, 67, 54
1, 1238201, Control_c, 0, 67, 67
1, 1238207, Note_off_c, 0, 47, 66
1, 1238216, Control_c, 0, 67, 77
1, 1238226, Note_off_c, 0, 57, 19
1, 1238227, Note_off_c, 0, 64, 63
1, 1238231, Control_c, 0, 67, 84
1, 1238246, Control_c, 0, 67, 90
1, 1238260, Control_c, 0, 67, 94
1, 1238276, Control_c, 0, 67, 97
1, 1238300, Note_on_c, 0, 48, 58
1, 1238325, Note_off_c, 0, 48, 61
1, 1238424, Note_on_c, 0, 64, 70
1, 1238430, Note_on_c, 0, 49, 55
1, 1238441, Note_on_c, 0, 61, 45
1, 1238448, Note_on_c, 0, 56, 52
1, 1238455, Note_off_c, 0, 49, 61
1, 1238512, Note_off_c, 0, 56, 0
1, 1238512, Note_on_c, 0, 56, 16
1, 1238523, Note_on_c, 0, 44, 48
1, 1238552, Note_off_c, 0, 44, 57
1, 1238642, Note_on_c, 0, 51, 67
1, 1238646, Control_c, 0, 67, 95
1, 1238661, Control_c, 0, 67, 94
1, 1238671, Note_off_c, 0, 51, 64
1, 1238676, Control_c, 0, 67, 93
1, 1238773, Note_off_c, 0, 56, 45
1, 1238774, Note_on_c, 0, 49, 59
1, 1238788, Note_off_c, 0, 61, 50
1, 1238797, Note_off_c, 0, 49, 62
1, 1238832, Control_c, 0, 67, 93
1, 1238847, Control_c, 0, 67, 92
1, 1238889, Note_on_c, 0, 60, 63
1, 1238906, Note_on_c, 0, 55, 49
1, 1238912, Note_on_c, 0, 48, 56
1, 1238922, Control_c, 0, 67, 92
1, 1238936, Control_c, 0, 67, 91
1, 1238937, Note_off_c, 0, 48, 62
1, 1238951, Control_c, 0, 67, 91
1, 1238966, Control_c, 0, 67, 90
1, 1238981, Control_c, 0, 67, 89
1, 1238996, Control_c, 0, 67, 89
1, 1239010, Control_c, 0, 67, 88
1, 1239014, Note_on_c, 0, 43, 73
1, 1239035, Note_off_c, 0, 43, 67
1, 1239068, Control_c, 0, 67, 88
1, 1239098, Control_c, 0, 67, 87
1, 1239103, Note_off_c, 0, 55, 54
1, 1239113, Control_c, 0, 67, 87
1, 1239128, Control_c, 0, 67, 86
1, 1239136, Note_on_c, 0, 50, 74
1, 1239142, Control_c, 0, 67, 86
1, 1239162, Note_off_c, 0, 50, 67
1, 1239248, Note_on_c, 0, 48, 76
1, 1239272, Note_off_c, 0, 48, 67
1, 1239291, Control_c, 0, 67, 85
1, 1239361, Note_on_c, 0, 59, 69
1, 1239370, Note_on_c, 0, 47, 76
1, 1239374, Note_on_c, 0, 54, 59
1, 1239392, Note_off_c, 0, 60, 60
1, 1239393, Note_off_c, 0, 47, 67
1, 1239424, Control_c, 0, 67, 85
1, 1239453, Control_c, 0, 67, 84
1, 1239468, Control_c, 0, 67, 84
1, 1239478, Note_on_c, 0, 42, 82
1, 1239483, Control_c, 0, 67, 83
1, 1239499, Control_c, 0, 67, 82
1, 1239503, Note_off_c, 0, 42, 68
1, 1239514, Control_c, 0, 67, 81
1, 1239529, Control_c, 0, 67, 80
1, 1239558, Control_c, 0, 67, 79
1, 1239596, Control_c, 0, 67, 79
1, 1239603, Note_on_c, 0, 49, 86
1, 1239610, Control_c, 0, 67, 78
1, 1239625, Control_c, 0, 67, 75
1, 1239640, Control_c, 0, 67, 71
1, 1239640, Note_off_c, 0, 49, 64
1, 1239655, Control_c, 0, 67, 68
1, 1239669, Control_c, 0, 67, 65
1, 1239684, Control_c, 0, 67, 62
1, 1239699, Control_c, 0, 67, 59
1, 1239714, Control_c, 0, 67, 56
1, 1239718, Note_on_c, 0, 47, 82
1, 1239729, Control_c, 0, 67, 52
1, 1239734, Note_off_c, 0, 59, 61
1, 1239740, Note_off_c, 0, 47, 69
1, 1239744, Control_c, 0, 67, 49
1, 1239758, Control_c, 0, 67, 45
1, 1239773, Control_c, 0, 67, 42
1, 1239780, Note_off_c, 0, 54, 62
1, 1239788, Control_c, 0, 67, 38
1, 1239803, Control_c, 0, 67, 36
1, 1239818, Control_c, 0, 67, 34
1, 1239832, Note_on_c, 0, 58, 81
1, 1239832, Control_c, 0, 67, 33
1, 1239840, Note_on_c, 0, 53, 73
1, 1239840, Note_on_c, 0, 46, 88
1, 1239847, Control_c, 0, 67, 33
1, 1239855, Poly_aftertouch_c, 0, 60, 127
1, 1239862, Control_c, 0, 67, 32
1, 1239863, Note_off_c, 0, 46, 72
1, 1239891, Control_c, 0, 67, 29
1, 1239892, Poly_aftertouch_c, 0, 60, 0
1, 1239906, Control_c, 0, 67, 27
1, 1239921, Control_c, 0, 67, 24
1, 1239936, Control_c, 0, 67, 20
1, 1239950, Note_on_c, 0, 41, 88
1, 1239950, Control_c, 0, 67, 0
1, 1239981, Note_off_c, 0, 41, 66
1, 1240066, Note_on_c, 0, 48, 80
1, 1240093, Note_off_c, 0, 48, 68
1, 1240099, Control_c, 0, 64, 48
1, 1240114, Control_c, 0, 64, 49
1, 1240129, Control_c, 0, 64, 0
1, 1240131, Note_off_c, 0, 53, 58
1, 1240173, Control_c, 0, 64, 35
1, 1240188, Control_c, 0, 64, 47
1, 1240193, Note_off_c, 0, 58, 61
1, 1240201, Note_on_c, 0, 47, 54
1, 1240202, Control_c, 0, 64, 54
1, 1240217, Control_c, 0, 64, 55
1, 1240227, Note_off_c, 0, 47, 58
1, 1240231, Note_on_c, 0, 46, 10
1, 1240231, Note_off_c, 0, 46, 127
1, 1240232, Control_c, 0, 64, 52
1, 1240247, Control_c, 0, 64, 38
1, 1240262, Control_c, 0, 64, 0
1, 1240299, Note_on_c, 0, 57, 83
1, 1240305, Note_on_c, 0, 40, 90
1, 1240305, Note_on_c, 0, 52, 80
1, 1240307, Control_c, 0, 64, 48
1, 1240329, Control_c, 0, 64, 64
1, 1240335, Note_off_c, 0, 57, 68
1, 1240338, Note_off_c, 0, 52, 68
1, 1240344, Control_c, 0, 64, 67
1, 1240346, Note_off_c, 0, 40, 66
1, 1240346, Note_off_c, 0, 64, 62
1, 1240374, Control_c, 0, 64, 67
1, 1240388, Control_c, 0, 64, 66
1, 1240403, Control_c, 0, 64, 65
1, 1240418, Control_c, 0, 64, 61
1, 1240433, Control_c, 0, 64, 54
1, 1240444, Note_on_c, 0, 45, 65
1, 1240448, Control_c, 0, 64, 38
1, 1240463, Control_c, 0, 64, 0
1, 1240466, Note_off_c, 0, 45, 63
1, 1240552, Control_c, 0, 64, 44
1, 1240554, Note_on_c, 0, 57, 80
1, 1240559, Note_on_c, 0, 38, 76
1, 1240567, Control_c, 0, 64, 0
1, 1240577, Note_off_c, 0, 57, 70
1, 1240586, Note_off_c, 0, 38, 64
1, 1240669, Note_on_c, 0, 45, 77
1, 1240697, Note_off_c, 0, 45, 65
1, 1240774, Control_c, 0, 64, 30
1, 1240789, Control_c, 0, 64, 62
1, 1240790, Note_on_c, 0, 36, 76
1, 1240790, Note_on_c, 0, 57, 87
1, 1240804, Control_c, 0, 64, 52
1, 1240809, Note_off_c, 0, 57, 72
1, 1240818, Control_c, 0, 64, 0
1, 1240821, Note_off_c, 0, 36, 66
1, 1240824, Note_on_c, 0, 35, 34
1, 1240824, Note_off_c, 0, 35, 127
1, 1240902, Note_on_c, 0, 45, 84
1, 1240929, Note_off_c, 0, 45, 69
1, 1241011, Control_c, 0, 64, 36
1, 1241022, Note_on_c, 0, 35, 88
1, 1241023, Note_on_c, 0, 55, 88
1, 1241026, Note_on_c, 0, 69, 83
1, 1241026, Control_c, 0, 64, 66
1, 1241041, Control_c, 0, 64, 60
1, 1241047, Note_off_c, 0, 55, 69
1, 1241050, Note_on_c, 0, 33, 52
1, 1241050, Note_off_c, 0, 33, 127
1, 1241052, Note_off_c, 0, 35, 67
1, 1241056, Control_c, 0, 64, 0
1, 1241062, Note_off_c, 0, 69, 65
1, 1241098, Poly_aftertouch_c, 0, 33, 0
1, 1241147, Note_on_c, 0, 45, 86
1, 1241180, Note_off_c, 0, 45, 66
1, 1241256, Control_c, 0, 64, 35
1, 1241260, Note_on_c, 0, 69, 97
1, 1241261, Note_on_c, 0, 33, 95
1, 1241264, Note_on_c, 0, 57, 91
1, 1241271, Control_c, 0, 64, 89
1, 1241286, Note_off_c, 0, 57, 70
1, 1241286, Control_c, 0, 64, 127
1, 1241295, Note_off_c, 0, 69, 67
1, 1241299, Note_off_c, 0, 33, 67
1, 1241301, Control_c, 0, 64, 64
1, 1241316, Control_c, 0, 64, 0
1, 1241371, Note_on_c, 0, 45, 101
1, 1241413, Note_off_c, 0, 45, 67
1, 1241489, Note_on_c, 0, 31, 104
1, 1241494, Control_c, 0, 64, 67
1, 1241497, Note_on_c, 0, 62, 93
1, 1241499, Note_on_c, 0, 74, 95
1, 1241509, Control_c, 0, 64, 127
1, 1241523, Control_c, 0, 64, 85
1, 1241524, Note_on_c, 0, 76, 37
1, 1241524, Note_off_c, 0, 76, 127
1, 1241524, Note_off_c, 0, 62, 63
1, 1241529, Note_off_c, 0, 31, 64
1, 1241530, Note_off_c, 0, 74, 68
1, 1241533, Note_on_c, 0, 29, 32
1, 1241533, Note_off_c, 0, 29, 127
1, 1241538, Control_c, 0, 64, 0
1, 1241602, Note_on_c, 0, 45, 110
1, 1241646, Note_off_c, 0, 45, 67
1, 1241722, Note_on_c, 0, 29, 108
1, 1241723, Note_on_c, 0, 64, 98
1, 1241723, Note_on_c, 0, 76, 102
1, 1241730, Control_c, 0, 64, 73
1, 1241739, Note_on_c, 0, 77, 53
1, 1241739, Note_off_c, 0, 77, 127
1, 1241745, Control_c, 0, 64, 127
1, 1241751, Note_off_c, 0, 76, 71
1, 1241753, Note_off_c, 0, 64, 64
1, 1241763, Note_off_c, 0, 29, 67
1, 1241775, Control_c, 0, 64, 63
1, 1241789, Control_c, 0, 64, 0
1, 1241843, Note_on_c, 0, 45, 107
1, 1241887, Note_off_c, 0, 45, 70
1, 1241961, Control_c, 0, 64, 31
1, 1241965, Note_on_c, 0, 81, 102
1, 1241966, Note_on_c, 0, 29, 116
1, 1241968, Note_on_c, 0, 67, 94
1, 1241976, Control_c, 0, 64, 127
1, 1242001, Note_off_c, 0, 67, 69
1, 1242001, Note_off_c, 0, 81, 68
1, 1242004, Note_off_c, 0, 29, 66
1, 1242020, Control_c, 0, 64, 94
1, 1242035, Control_c, 0, 64, 66
1, 1242050, Control_c, 0, 64, 0
1, 1242062, Note_on_c, 0, 45, 108
1, 1242085, Note_off_c, 0, 45, 66
1, 1242108, Note_on_c, 0, 43, 30
1, 1242149, Note_off_c, 0, 43, 30
1, 1242187, Note_on_c, 0, 75, 27
1, 1242224, Note_off_c, 0, 75, 0
1, 1242227, Note_on_c, 0, 82, 108
1, 1242228, Note_on_c, 0, 39, 116
1, 1242228, Note_on_c, 0, 27, 108
1, 1242228, Note_on_c, 0, 70, 99
1, 1242249, Note_off_c, 0, 27, 73
1, 1242257, Control_c, 0, 64, 72
1, 1242263, Note_off_c, 0, 39, 67
1, 1242272, Control_c, 0, 64, 127
1, 1242276, Poly_aftertouch_c, 0, 75, 0
1, 1242288, Note_off_c, 0, 70, 58
1, 1242327, Note_on_c, 0, 79, 89
1, 1242327, Note_off_c, 0, 82, 60
1, 1242394, Note_on_c, 0, 75, 82
1, 1242427, Note_off_c, 0, 79, 65
1, 1242469, Note_on_c, 0, 67, 96
1, 1242470, Note_on_c, 0, 69, 100
1, 1242473, Note_off_c, 0, 75, 66
1, 1242477, Note_on_c, 0, 59, 79
1, 1242477, Note_on_c, 0, 64, 80
1, 1242480, Note_on_c, 0, 82, 95
1, 1242481, Note_on_c, 0, 70, 93
1, 1242487, Note_on_c, 0, 63, 66
1, 1242489, Note_off_c, 0, 69, 68
1, 1242493, Note_off_c, 0, 59, 71
1, 1242493, Note_off_c, 0, 67, 67
1, 1242497, Note_off_c, 0, 64, 71
1, 1242508, Note_off_c, 0, 63, 64
1, 1242548, Note_on_c, 0, 60, 4
1, 1242561, Note_on_c, 0, 79, 91
1, 1242572, Note_off_c, 0, 82, 60
1, 1242578, Note_off_c, 0, 70, 53
1, 1242592, Note_off_c, 0, 60, 45
1, 1242640, Note_on_c, 0, 75, 88
1, 1242661, Note_off_c, 0, 79, 67
1, 1242710, Control_c, 0, 64, 97
1, 1242717, Note_on_c, 0, 67, 104
1, 1242720, Note_on_c, 0, 58, 95
1, 1242723, Note_on_c, 0, 63, 89
1, 1242725, Control_c, 0, 64, 78
1, 1242730, Note_on_c, 0, 70, 92
1, 1242730, Note_on_c, 0, 82, 94
1, 1242733, Note_off_c, 0, 75, 56
1, 1242740, Control_c, 0, 64, 72
1, 1242748, Note_off_c, 0, 67, 71
1, 1242749, Note_off_c, 0, 63, 67
1, 1242755, Control_c, 0, 64, 74
1, 1242758, Note_off_c, 0, 58, 67
1, 1242769, Control_c, 0, 64, 83
1, 1242784, Control_c, 0, 64, 121
1, 1242799, Control_c, 0, 64, 127
1, 1242803, Note_on_c, 0, 79, 88
1, 1242820, Note_off_c, 0, 70, 61
1, 1242820, Note_off_c, 0, 82, 63
1, 1242826, Poly_aftertouch_c, 0, 59, 0
1, 1242878, Note_on_c, 0, 75, 84
1, 1242904, Note_off_c, 0, 79, 66
1, 1242932, Control_c, 0, 64, 95
1, 1242947, Control_c, 0, 64, 71
1, 1242958, Note_on_c, 0, 67, 105
1, 1242960, Note_on_c, 0, 58, 97
1, 1242962, Control_c, 0, 64, 56
1, 1242964, Note_on_c, 0, 82, 103
1, 1242966, Note_on_c, 0, 63, 85
1, 1242967, Note_on_c, 0, 70, 90
1, 1242971, Note_off_c, 0, 75, 53
1, 1242976, Control_c, 0, 64, 49
1, 1242991, Control_c, 0, 64, 57
1, 1243006, Control_c, 0, 64, 68
1, 1243021, Control_c, 0, 64, 82
1, 1243035, Control_c, 0, 64, 127
1, 1243038, Note_on_c, 0, 79, 88
1, 1243041, Note_on_c, 0, 62, 12
1, 1243042, Note_off_c, 0, 70, 58
1, 1243058, Note_off_c, 0, 82, 60
1, 1243080, Note_off_c, 0, 67, 56
1, 1243083, Note_off_c, 0, 63, 60
1, 1243084, Note_off_c, 0, 62, 58
1, 1243098, Note_off_c, 0, 58, 61
1, 1243109, Note_on_c, 0, 75, 87
1, 1243136, Note_off_c, 0, 79, 66
1, 1243169, Control_c, 0, 64, 117
1, 1243184, Control_c, 0, 64, 75
1, 1243199, Control_c, 0, 64, 49
1, 1243205, Note_on_c, 0, 82, 101
1, 1243208, Note_on_c, 0, 70, 92
1, 1243209, Note_on_c, 0, 69, 103
1, 1243210, Note_off_c, 0, 75, 61
1, 1243213, Note_on_c, 0, 63, 96
1, 1243213, Control_c, 0, 64, 0
1, 1243216, Note_on_c, 0, 60, 84
1, 1243228, Control_c, 0, 64, 31
1, 1243233, Note_on_c, 0, 61, 68
1, 1243243, Control_c, 0, 64, 55
1, 1243255, Note_off_c, 0, 61, 39
1, 1243258, Control_c, 0, 64, 72
1, 1243273, Control_c, 0, 64, 101
1, 1243286, Note_on_c, 0, 79, 90
1, 1243287, Control_c, 0, 64, 127
1, 1243301, Note_off_c, 0, 82, 62
1, 1243302, Note_off_c, 0, 70, 61
1, 1243360, Note_off_c, 0, 63, 55
1, 1243366, Note_off_c, 0, 69, 61
1, 1243368, Note_on_c, 0, 75, 91
1, 1243393, Note_off_c, 0, 79, 65
1, 1243399, Control_c, 0, 64, 83
1, 1243413, Control_c, 0, 64, 63
1, 1243428, Control_c, 0, 64, 47
1, 1243438, Note_off_c, 0, 60, 62
1, 1243443, Control_c, 0, 64, 51
1, 1243450, Note_off_c, 0, 75, 63
1, 1243451, Note_on_c, 0, 82, 93
1, 1243452, Note_on_c, 0, 67, 106
1, 1243457, Note_on_c, 0, 58, 85
1, 1243458, Control_c, 0, 64, 61
1, 1243459, Note_on_c, 0, 63, 102
1, 1243462, Note_on_c, 0, 70, 85
1, 1243473, Control_c, 0, 64, 69
1, 1243488, Control_c, 0, 64, 81
1, 1243495, Note_off_c, 0, 67, 69
1, 1243503, Control_c, 0, 64, 110
1, 1243506, Note_off_c, 0, 63, 64
1, 1243514, Note_off_c, 0, 58, 64
1, 1243518, Control_c, 0, 64, 127
1, 1243524, Note_off_c, 0, 70, 51
1, 1243527, Note_on_c, 0, 79, 85
1, 1243534, Note_off_c, 0, 82, 60
1, 1243596, Note_on_c, 0, 75, 81
1, 1243621, Note_off_c, 0, 79, 66
1, 1243651, Control_c, 0, 64, 99
1, 1243666, Control_c, 0, 64, 68
1, 1243681, Control_c, 0, 64, 44
1, 1243685, Note_on_c, 0, 82, 95
1, 1243686, Note_on_c, 0, 69, 106
1, 1243691, Note_on_c, 0, 70, 87
1, 1243691, Note_off_c, 0, 75, 60
1, 1243694, Note_on_c, 0, 63, 90
1, 1243696, Control_c, 0, 64, 0
1, 1243697, Note_on_c, 0, 60, 71
1, 1243711, Control_c, 0, 64, 35
1, 1243725, Control_c, 0, 64, 57
1, 1243740, Control_c, 0, 64, 74
1, 1243755, Control_c, 0, 64, 119
1, 1243760, Note_off_c, 0, 69, 52
1, 1243762, Note_on_c, 0, 79, 85
1, 1243767, Note_off_c, 0, 70, 58
1, 1243769, Note_off_c, 0, 82, 60
1, 1243770, Control_c, 0, 64, 127
1, 1243786, Note_off_c, 0, 63, 58
1, 1243835, Note_on_c, 0, 75, 85
1, 1243857, Note_off_c, 0, 79, 66
1, 1243888, Control_c, 0, 64, 79
1, 1243903, Control_c, 0, 64, 56
1, 1243913, Note_off_c, 0, 60, 55
1, 1243918, Control_c, 0, 64, 48
1, 1243921, Note_on_c, 0, 67, 101
1, 1243922, Note_on_c, 0, 82, 93
1, 1243924, Note_off_c, 0, 75, 53
1, 1243924, Note_on_c, 0, 58, 83
1, 1243925, Note_on_c, 0, 70, 85
1, 1243927, Note_on_c, 0, 63, 89
1, 1243933, Control_c, 0, 64, 61
1, 1243948, Control_c, 0, 64, 73
1, 1243955, Note_off_c, 0, 67, 70
1, 1243960, Note_off_c, 0, 63, 64
1, 1243962, Control_c, 0, 64, 117
1, 1243969, Note_off_c, 0, 58, 64
1, 1243974, Note_off_c, 0, 70, 65
1, 1243977, Control_c, 0, 64, 127
1, 1244000, Note_on_c, 0, 79, 89
1, 1244006, Note_off_c, 0, 82, 61
1, 1244076, Note_on_c, 0, 75, 86
1, 1244097, Note_off_c, 0, 79, 66
1, 1244118, Control_c, 0, 64, 85
1, 1244132, Control_c, 0, 64, 57
1, 1244147, Control_c, 0, 64, 0
1, 1244155, Note_on_c, 0, 69, 97
1, 1244162, Note_on_c, 0, 63, 87
1, 1244166, Note_on_c, 0, 82, 97
1, 1244167, Note_on_c, 0, 60, 77
1, 1244170, Note_on_c, 0, 70, 89
1, 1244186, Note_off_c, 0, 75, 59
1, 1244192, Control_c, 0, 64, 61
1, 1244194, Note_off_c, 0, 69, 67
1, 1244207, Control_c, 0, 64, 94
1, 1244207, Note_off_c, 0, 63, 65
1, 1244213, Note_off_c, 0, 60, 64
1, 1244222, Note_off_c, 0, 70, 64
1, 1244222, Control_c, 0, 64, 127
1, 1244241, Note_on_c, 0, 79, 88
1, 1244241, Note_off_c, 0, 82, 65
1, 1244315, Note_on_c, 0, 75, 84
1, 1244338, Note_off_c, 0, 79, 64
1, 1244341, Control_c, 0, 64, 73
1, 1244356, Control_c, 0, 64, 0
1, 1244393, Note_on_c, 0, 58, 78
1, 1244393, Note_on_c, 0, 67, 93
1, 1244397, Note_on_c, 0, 63, 71
1, 1244400, Note_on_c, 0, 82, 94
1, 1244401, Control_c, 0, 64, 31
1, 1244401, Note_on_c, 0, 70, 86
1, 1244403, Note_off_c, 0, 75, 65
1, 1244415, Control_c, 0, 64, 67
1, 1244429, Note_off_c, 0, 63, 66
1, 1244430, Control_c, 0, 64, 122
1, 1244437, Note_off_c, 0, 67, 65
1, 1244445, Control_c, 0, 64, 127
1, 1244453, Note_off_c, 0, 58, 61
1, 1244453, Note_off_c, 0, 70, 64
1, 1244469, Note_on_c, 0, 79, 87
1, 1244477, Note_off_c, 0, 82, 63
1, 1244533, Note_on_c, 0, 75, 82
1, 1244555, Note_off_c, 0, 79, 67
1, 1244586, Note_off_c, 0, 75, 67
1, 1244606, Note_on_c, 0, 70, 89
1, 1244607, Note_on_c, 0, 69, 79
1, 1244612, Note_on_c, 0, 60, 75
1, 1244615, Note_on_c, 0, 63, 62
1, 1244629, Note_off_c, 0, 69, 70
1, 1244635, Note_off_c, 0, 60, 70
1, 1244635, Note_off_c, 0, 63, 64
1, 1244636, Note_off_c, 0, 70, 66
1, 1244652, Control_c, 0, 64, 101
1, 1244666, Control_c, 0, 64, 68
1, 1244681, Control_c, 0, 64, 0
1, 1244684, Note_on_c, 0, 67, 93
1, 1244696, Control_c, 0, 67, 25
1, 1244711, Control_c, 0, 67, 28
1, 1244741, Control_c, 0, 67, 32
1, 1244748, Note_on_c, 0, 63, 83
1, 1244753, Note_off_c, 0, 67, 67
1, 1244755, Control_c, 0, 67, 39
1, 1244770, Control_c, 0, 67, 48
1, 1244785, Control_c, 0, 67, 59
1, 1244785, Note_off_c, 0, 63, 65
1, 1244800, Control_c, 0, 67, 71
1, 1244822, Control_c, 0, 67, 87
1, 1244833, Note_on_c, 0, 58, 67
1, 1244837, Control_c, 0, 67, 104
1, 1244852, Control_c, 0, 64, 58
1, 1244852, Control_c, 0, 67, 121
1, 1244866, Control_c, 0, 64, 68
1, 1244866, Control_c, 0, 67, 127
1, 1244881, Control_c, 0, 64, 66
1, 1244896, Control_c, 0, 64, 55
1, 1244900, Note_on_c, 0, 55, 54
1, 1244901, Note_off_c, 0, 58, 64
1, 1244911, Control_c, 0, 64, 43
1, 1244926, Control_c, 0, 64, 53
1, 1244940, Control_c, 0, 64, 63
1, 1244943, Note_off_c, 0, 55, 63
1, 1244955, Control_c, 0, 64, 69
1, 1244958, Note_on_c, 0, 51, 77
1, 1244970, Control_c, 0, 64, 71
1, 1244981, Note_off_c, 0, 51, 66
1, 1245030, Control_c, 0, 64, 70
1, 1245045, Control_c, 0, 64, 60
1, 1245060, Control_c, 0, 64, 0
1, 1245062, Note_on_c, 0, 46, 81
1, 1245068, Note_on_c, 0, 34, 75
1, 1245080, Note_on_c, 0, 58, 78
1, 1245084, Note_off_c, 0, 46, 68
1, 1245096, Note_off_c, 0, 34, 63
1, 1245111, Note_off_c, 0, 58, 68
1, 1245165, Note_on_c, 0, 62, 62
1, 1245203, Note_off_c, 0, 62, 62
1, 1245220, Note_on_c, 0, 65, 68
1, 1245287, Note_off_c, 0, 65, 62
1, 1245313, Note_on_c, 0, 51, 65
1, 1245315, Note_on_c, 0, 39, 61
1, 1245316, Note_on_c, 0, 59, 63
1, 1245336, Note_off_c, 0, 51, 62
1, 1245342, Note_off_c, 0, 39, 60
1, 1245346, Note_off_c, 0, 59, 65
1, 1245377, Note_on_c, 0, 63, 59
1, 1245435, Note_off_c, 0, 63, 60
1, 1245459, Note_on_c, 0, 65, 64
1, 1245527, Note_on_c, 0, 56, 75
1, 1245528, Note_off_c, 0, 65, 61
1, 1245538, Note_on_c, 0, 60, 65
1, 1245545, Note_on_c, 0, 44, 49
1, 1245551, Note_off_c, 0, 56, 65
1, 1245582, Note_off_c, 0, 44, 56
1, 1245588, Note_off_c, 0, 60, 62
1, 1245613, Note_on_c, 0, 64, 56
1, 1245656, Note_off_c, 0, 64, 62
1, 1245682, Note_on_c, 0, 65, 70
1, 1245757, Note_off_c, 0, 65, 58
1, 1245765, Note_on_c, 0, 51, 50
1, 1245774, Note_on_c, 0, 39, 46
1, 1245779, Note_on_c, 0, 59, 57
1, 1245792, Note_off_c, 0, 51, 57
1, 1245808, Note_off_c, 0, 39, 47
1, 1245816, Note_off_c, 0, 59, 59
1, 1245837, Note_on_c, 0, 63, 68
1, 1245891, Note_off_c, 0, 63, 64
1, 1245920, Note_on_c, 0, 65, 68
1, 1245964, Note_off_c, 0, 65, 64
1, 1245973, Control_c, 0, 64, 31
1, 1245982, Note_on_c, 0, 58, 73
1, 1245987, Control_c, 0, 64, 53
1, 1245995, Note_on_c, 0, 34, 42
1, 1245997, Note_on_c, 0, 46, 46
1, 1246002, Control_c, 0, 64, 56
1, 1246005, Note_off_c, 0, 58, 70
1, 1246017, Control_c, 0, 64, 57
1, 1246032, Control_c, 0, 64, 59
1, 1246046, Control_c, 0, 64, 60
1, 1246060, Note_on_c, 0, 62, 69
1, 1246061, Note_off_c, 0, 46, 61
1, 1246061, Control_c, 0, 64, 61
1, 1246066, Note_off_c, 0, 34, 62
1, 1246098, Note_off_c, 0, 62, 61
1, 1246118, Note_on_c, 0, 65, 78
1, 1246151, Control_c, 0, 64, 61
1, 1246165, Control_c, 0, 64, 62
1, 1246168, Note_off_c, 0, 65, 65
1, 1246180, Control_c, 0, 64, 62
1, 1246190, Note_on_c, 0, 70, 74
1, 1246206, Note_off_c, 0, 70, 66
1, 1246249, Note_on_c, 0, 74, 82
1, 1246283, Note_off_c, 0, 74, 62
1, 1246323, Note_on_c, 0, 77, 75
1, 1246380, Note_off_c, 0, 77, 63
1, 1246380, Control_c, 0, 64, 62
1, 1246380, Note_on_c, 0, 82, 99
1, 1246395, Control_c, 0, 64, 46
1, 1246410, Control_c, 0, 64, 0
1, 1246624, Note_on_c, 0, 63, 70
1, 1246624, Note_on_c, 0, 56, 61
1, 1246640, Note_on_c, 0, 60, 40
1, 1246650, Note_off_c, 0, 63, 68
1, 1246653, Note_off_c, 0, 56, 64
1, 1246672, Note_off_c, 0, 60, 56
1, 1246840, Control_c, 0, 67, 106
1, 1246855, Control_c, 0, 67, 81
1, 1246869, Control_c, 0, 67, 66
1, 1246884, Control_c, 0, 67, 58
1, 1246888, Note_on_c, 0, 61, 54
1, 1246899, Control_c, 0, 67, 56
1, 1246913, Note_on_c, 0, 54, 45
1, 1246923, Note_off_c, 0, 82, 57
1, 1246923, Note_on_c, 0, 58, 23
1, 1246967, Note_on_c, 0, 84, 69
1, 1246973, Control_c, 0, 67, 56
1, 1247024, Note_off_c, 0, 84, 62
1, 1247033, Control_c, 0, 67, 57
1, 1247036, Note_on_c, 0, 80, 77
1, 1247095, Note_off_c, 0, 80, 62
1, 1247099, Control_c, 0, 67, 57
1, 1247101, Note_on_c, 0, 75, 72
1, 1247125, Note_off_c, 0, 75, 67
1, 1247143, Control_c, 0, 67, 58
1, 1247164, Note_on_c, 0, 72, 70
1, 1247173, Control_c, 0, 67, 58
1, 1247203, Control_c, 0, 67, 59
1, 1247203, Note_off_c, 0, 72, 65
1, 1247239, Note_on_c, 0, 68, 73
1, 1247302, Note_off_c, 0, 68, 64
1, 1247312, Note_off_c, 0, 61, 56
1, 1247316, Note_on_c, 0, 82, 93
1, 1247325, Note_off_c, 0, 58, 52
1, 1247350, Note_off_c, 0, 54, 63
1, 1247350, Control_c, 0, 64, 51
1, 1247350, Control_c, 0, 67, 59
1, 1247365, Control_c, 0, 64, 60
1, 1247394, Control_c, 0, 64, 59
1, 1247454, Control_c, 0, 64, 60
1, 1247468, Control_c, 0, 64, 61
1, 1247484, Control_c, 0, 64, 63
1, 1247499, Control_c, 0, 64, 63
1, 1247514, Control_c, 0, 64, 60
1, 1247529, Control_c, 0, 64, 39
1, 1247529, Control_c, 0, 67, 59
1, 1247544, Control_c, 0, 64, 0
1, 1247544, Control_c, 0, 67, 58
1, 1247551, Note_on_c, 0, 56, 65
1, 1247551, Note_on_c, 0, 59, 63
1, 1247555, Note_on_c, 0, 52, 57
1, 1247558, Control_c, 0, 67, 58
1, 1247578, Note_off_c, 0, 59, 67
1, 1247580, Note_off_c, 0, 56, 63
1, 1247582, Note_off_c, 0, 52, 63
1, 1247662, Control_c, 0, 67, 58
1, 1247677, Control_c, 0, 67, 59
1, 1247810, Note_on_c, 0, 58, 78
1, 1247829, Note_on_c, 0, 55, 57
1, 1247832, Control_c, 0, 67, 59
1, 1247838, Note_on_c, 0, 51, 48
1, 1247893, Note_off_c, 0, 82, 59
1, 1247897, Note_on_c, 0, 80, 68
1, 1247921, Control_c, 0, 67, 60
1, 1247936, Control_c, 0, 67, 62
1, 1247951, Control_c, 0, 67, 63
1, 1247956, Note_on_c, 0, 76, 72
1, 1247960, Note_off_c, 0, 80, 63
1, 1247966, Control_c, 0, 67, 64
1, 1247981, Control_c, 0, 67, 65
1, 1248002, Note_off_c, 0, 76, 62
1, 1248031, Note_on_c, 0, 71, 72
1, 1248039, Control_c, 0, 67, 65
1, 1248054, Control_c, 0, 67, 66
1, 1248069, Control_c, 0, 67, 67
1, 1248070, Note_off_c, 0, 71, 62
1, 1248100, Note_on_c, 0, 68, 77
1, 1248168, Note_on_c, 0, 63, 74
1, 1248179, Note_off_c, 0, 68, 61
1, 1248228, Note_off_c, 0, 55, 64
1, 1248230, Note_off_c, 0, 58, 66
1, 1248232, Note_off_c, 0, 63, 63
1, 1248246, Control_c, 0, 64, 33
1, 1248249, Note_on_c, 0, 70, 81
1, 1248252, Note_off_c, 0, 51, 64
1, 1248261, Control_c, 0, 64, 0
1, 1248336, Control_c, 0, 67, 67
1, 1248351, Control_c, 0, 67, 68
1, 1248485, Note_off_c, 0, 70, 64
1, 1248499, Control_c, 0, 67, 69
1, 1248502, Note_on_c, 0, 50, 63
1, 1248514, Control_c, 0, 64, 52
1, 1248514, Control_c, 0, 67, 71
1, 1248529, Control_c, 0, 64, 59
1, 1248529, Control_c, 0, 67, 73
1, 1248544, Control_c, 0, 64, 59
1, 1248544, Control_c, 0, 67, 77
1, 1248565, Control_c, 0, 67, 80
1, 1248572, Note_off_c, 0, 50, 57
1, 1248577, Note_on_c, 0, 46, 66
1, 1248580, Control_c, 0, 67, 81
1, 1248643, Note_on_c, 0, 43, 61
1, 1248644, Note_off_c, 0, 46, 65
1, 1248654, Control_c, 0, 64, 59
1, 1248684, Control_c, 0, 67, 80
1, 1248699, Control_c, 0, 64, 57
1, 1248699, Control_c, 0, 67, 80
1, 1248708, Note_on_c, 0, 39, 82
1, 1248710, Note_on_c, 0, 51, 69
1, 1248712, Note_off_c, 0, 43, 65
1, 1248714, Control_c, 0, 64, 47
1, 1248714, Control_c, 0, 67, 79
1, 1248729, Control_c, 0, 64, 0
1, 1248729, Control_c, 0, 67, 79
1, 1248735, Note_off_c, 0, 39, 68
1, 1248744, Control_c, 0, 67, 78
1, 1248774, Note_off_c, 0, 51, 61
1, 1248789, Control_c, 0, 67, 80
1, 1248797, Note_on_c, 0, 55, 55
1, 1248804, Control_c, 0, 67, 80
1, 1248818, Control_c, 0, 67, 81
1, 1248851, Note_off_c, 0, 55, 60
1, 1248881, Note_on_c, 0, 58, 52
1, 1248893, Control_c, 0, 67, 80
1, 1248907, Control_c, 0, 67, 79
1, 1248937, Control_c, 0, 67, 78
1, 1248947, Note_on_c, 0, 52, 61
1, 1248951, Note_off_c, 0, 58, 58
1, 1248953, Note_on_c, 0, 40, 68
1, 1248982, Note_off_c, 0, 40, 64
1, 1248991, Note_off_c, 0, 52, 58
1, 1249018, Note_on_c, 0, 56, 60
1, 1249093, Note_off_c, 0, 56, 60
1, 1249105, Note_on_c, 0, 58, 56
1, 1249160, Control_c, 0, 67, 78
1, 1249175, Control_c, 0, 67, 77
1, 1249177, Note_off_c, 0, 58, 63
1, 1249179, Note_on_c, 0, 53, 57
1, 1249182, Note_on_c, 0, 31, 71
1, 1249189, Control_c, 0, 67, 76
1, 1249213, Note_off_c, 0, 31, 66
1, 1249234, Control_c, 0, 67, 77
1, 1249242, Note_off_c, 0, 53, 61
1, 1249259, Note_on_c, 0, 57, 60
1, 1249263, Control_c, 0, 67, 77
1, 1249321, Note_off_c, 0, 57, 61
1, 1249359, Note_on_c, 0, 58, 54
1, 1249375, Control_c, 0, 67, 77
1, 1249404, Control_c, 0, 67, 76
1, 1249412, Note_on_c, 0, 34, 75
1, 1249414, Note_on_c, 0, 52, 62
1, 1249419, Control_c, 0, 67, 75
1, 1249436, Note_off_c, 0, 58, 54
1, 1249442, Note_off_c, 0, 34, 66
1, 1249486, Note_off_c, 0, 52, 60
1, 1249493, Control_c, 0, 67, 76
1, 1249502, Note_on_c, 0, 56, 63
1, 1249522, Control_c, 0, 67, 76
1, 1249537, Control_c, 0, 67, 77
1, 1249570, Note_off_c, 0, 56, 59
1, 1249583, Note_on_c, 0, 58, 64
1, 1249611, Control_c, 0, 67, 76
1, 1249626, Control_c, 0, 64, 47
1, 1249641, Control_c, 0, 64, 56
1, 1249641, Note_on_c, 0, 39, 73
1, 1249644, Note_off_c, 0, 58, 61
1, 1249654, Note_on_c, 0, 51, 75
1, 1249655, Control_c, 0, 64, 46
1, 1249670, Control_c, 0, 64, 0
1, 1249677, Note_off_c, 0, 51, 67
1, 1249714, Control_c, 0, 67, 75
1, 1249731, Note_on_c, 0, 55, 66
1, 1249787, Note_off_c, 0, 55, 61
1, 1249798, Note_on_c, 0, 58, 72
1, 1249845, Note_off_c, 0, 58, 64
1, 1249874, Note_on_c, 0, 62, 69
1, 1249893, Note_off_c, 0, 62, 63
1, 1249893, Control_c, 0, 67, 75
1, 1249908, Control_c, 0, 64, 34
1, 1249908, Control_c, 0, 67, 74
1, 1249922, Control_c, 0, 64, 38
1, 1249922, Control_c, 0, 67, 74
1, 1249937, Note_on_c, 0, 67, 86
1, 1249937, Control_c, 0, 64, 39
1, 1249952, Control_c, 0, 64, 39
1, 1249967, Control_c, 0, 64, 35
1, 1249982, Control_c, 0, 64, 0
1, 1249982, Control_c, 0, 67, 73
1, 1249983, Note_off_c, 0, 67, 65
1, 1249993, Note_off_c, 0, 39, 63
1, 1249997, Control_c, 0, 67, 72
1, 1250005, Note_on_c, 0, 70, 81
1, 1250011, Control_c, 0, 67, 71
1, 1250026, Control_c, 0, 67, 71
1, 1250041, Control_c, 0, 67, 70
1, 1250045, Note_off_c, 0, 70, 61
1, 1250064, Control_c, 0, 67, 70
1, 1250069, Note_on_c, 0, 71, 32
1, 1250079, Note_on_c, 0, 75, 93
1, 1250093, Control_c, 0, 67, 69
1, 1250103, Note_off_c, 0, 71, 32
1, 1250108, Control_c, 0, 67, 68
1, 1250123, Control_c, 0, 64, 47
1, 1250123, Control_c, 0, 67, 67
1, 1250137, Control_c, 0, 64, 80
1, 1250137, Control_c, 0, 67, 67
1, 1250152, Control_c, 0, 64, 127
1, 1250248, Note_off_c, 0, 75, 63
1, 1250300, Control_c, 0, 64, 103
1, 1250312, Note_on_c, 0, 37, 91
1, 1250315, Control_c, 0, 64, 58
1, 1250330, Control_c, 0, 64, 0
1, 1250330, Control_c, 0, 67, 67
1, 1250345, Control_c, 0, 67, 70
1, 1250348, Note_off_c, 0, 37, 65
1, 1250360, Control_c, 0, 67, 72
1, 1250374, Control_c, 0, 67, 73
1, 1250389, Control_c, 0, 67, 73
1, 1250478, Control_c, 0, 67, 73
1, 1250493, Control_c, 0, 67, 71
1, 1250508, Control_c, 0, 67, 70
1, 1250523, Control_c, 0, 67, 67
1, 1250531, Note_on_c, 0, 35, 91
1, 1250533, Note_on_c, 0, 47, 95
1, 1250535, Note_on_c, 0, 83, 103
1, 1250537, Control_c, 0, 64, 68
1, 1250537, Control_c, 0, 67, 64
1, 1250552, Control_c, 0, 64, 127
1, 1250552, Control_c, 0, 67, 60
1, 1250557, Note_off_c, 0, 47, 69
1, 1250562, Note_off_c, 0, 35, 64
1, 1250567, Control_c, 0, 67, 56
1, 1250582, Control_c, 0, 67, 50
1, 1250597, Control_c, 0, 67, 47
1, 1250611, Control_c, 0, 67, 46
1, 1250613, Note_on_c, 0, 78, 93
1, 1250626, Control_c, 0, 67, 43
1, 1250631, Note_off_c, 0, 83, 65
1, 1250641, Control_c, 0, 67, 40
1, 1250655, Control_c, 0, 67, 40
1, 1250658, Note_off_c, 0, 78, 69
1, 1250684, Note_on_c, 0, 75, 92
1, 1250687, Control_c, 0, 67, 41
1, 1250701, Control_c, 0, 67, 42
1, 1250710, Note_off_c, 0, 75, 64
1, 1250731, Control_c, 0, 67, 42
1, 1250745, Control_c, 0, 67, 43
1, 1250760, Control_c, 0, 67, 43
1, 1250765, Note_on_c, 0, 74, 84
1, 1250775, Control_c, 0, 67, 45
1, 1250790, Control_c, 0, 67, 47
1, 1250813, Control_c, 0, 67, 48
1, 1250827, Control_c, 0, 67, 50
1, 1250842, Control_c, 0, 64, 111
1, 1250842, Control_c, 0, 67, 52
1, 1250853, Note_off_c, 0, 74, 65
1, 1250854, Note_on_c, 0, 69, 78
1, 1250857, Control_c, 0, 64, 102
1, 1250857, Control_c, 0, 67, 53
1, 1250872, Control_c, 0, 64, 100
1, 1250901, Control_c, 0, 64, 95
1, 1250901, Control_c, 0, 67, 52
1, 1250913, Note_on_c, 0, 66, 88
1, 1250916, Control_c, 0, 64, 86
1, 1250918, Note_off_c, 0, 69, 66
1, 1250931, Control_c, 0, 64, 73
1, 1250938, Note_off_c, 0, 66, 67
1, 1250946, Control_c, 0, 64, 59
1, 1250960, Control_c, 0, 64, 0
1, 1250975, Control_c, 0, 67, 53
1, 1250990, Control_c, 0, 67, 53
1, 1250995, Note_on_c, 0, 65, 96
1, 1251021, Control_c, 0, 67, 54
1, 1251035, Control_c, 0, 67, 54
1, 1251070, Note_on_c, 0, 60, 79
1, 1251075, Note_off_c, 0, 65, 67
1, 1251129, Note_off_c, 0, 60, 64
1, 1251139, Note_on_c, 0, 57, 75
1, 1251167, Note_off_c, 0, 57, 67
1, 1251196, Note_on_c, 0, 56, 70
1, 1251257, Control_c, 0, 67, 53
1, 1251263, Note_off_c, 0, 56, 61
1, 1251272, Control_c, 0, 64, 63
1, 1251275, Note_on_c, 0, 51, 75
1, 1251287, Control_c, 0, 64, 69
1, 1251302, Control_c, 0, 64, 68
1, 1251316, Control_c, 0, 64, 64
1, 1251316, Control_c, 0, 67, 52
1, 1251331, Control_c, 0, 64, 61
1, 1251331, Control_c, 0, 67, 51
1, 1251346, Control_c, 0, 64, 60
1, 1251346, Control_c, 0, 67, 50
1, 1251361, Control_c, 0, 64, 59
1, 1251361, Control_c, 0, 67, 50
1, 1251373, Note_on_c, 0, 47, 61
1, 1251376, Control_c, 0, 64, 59
1, 1251376, Control_c, 0, 67, 49
1, 1251391, Control_c, 0, 64, 55
1, 1251391, Control_c, 0, 67, 49
1, 1251395, Note_off_c, 0, 51, 64
1, 1251400, Note_on_c, 0, 46, 75
1, 1251402, Note_off_c, 0, 47, 65
1, 1251406, Control_c, 0, 64, 54
1, 1251421, Control_c, 0, 64, 61
1, 1251424, Note_on_c, 0, 49, 87
1, 1251426, Note_off_c, 0, 46, 67
1, 1251435, Control_c, 0, 64, 70
1, 1251435, Control_c, 0, 67, 48
1, 1251450, Control_c, 0, 64, 87
1, 1251465, Control_c, 0, 64, 127
1, 1251468, Note_off_c, 0, 49, 68
1, 1251480, Control_c, 0, 64, 98
1, 1251495, Control_c, 0, 64, 65
1, 1251501, Note_on_c, 0, 50, 84
1, 1251510, Control_c, 0, 64, 0
1, 1251540, Control_c, 0, 67, 49
1, 1251574, Note_off_c, 0, 50, 61
1, 1251578, Note_on_c, 0, 53, 82
1, 1251621, Control_c, 0, 67, 48
1, 1251635, Note_on_c, 0, 34, 102
1, 1251636, Control_c, 0, 67, 47
1, 1251645, Note_off_c, 0, 53, 63
1, 1251648, Note_on_c, 0, 58, 91
1, 1251650, Control_c, 0, 67, 46
1, 1251656, Note_off_c, 0, 34, 69
1, 1251665, Note_off_c, 0, 58, 75
1, 1251665, Control_c, 0, 67, 45
1, 1251680, Control_c, 0, 64, 63
1, 1251686, Note_on_c, 0, 59, 49
1, 1251686, Note_off_c, 0, 59, 127
1, 1251695, Control_c, 0, 64, 60
1, 1251710, Control_c, 0, 64, 0
1, 1251720, Note_on_c, 0, 62, 91
1, 1251725, Control_c, 0, 67, 46
1, 1251740, Control_c, 0, 67, 46
1, 1251755, Control_c, 0, 67, 47
1, 1251792, Note_off_c, 0, 62, 59
1, 1251794, Note_on_c, 0, 65, 85
1, 1251829, Control_c, 0, 67, 46
1, 1251844, Control_c, 0, 67, 46
1, 1251856, Note_on_c, 0, 58, 105
1, 1251857, Note_off_c, 0, 65, 69
1, 1251859, Note_on_c, 0, 70, 105
1, 1251886, Note_off_c, 0, 70, 69
1, 1251902, Control_c, 0, 64, 70
1, 1251902, Control_c, 0, 67, 46
1, 1251917, Control_c, 0, 64, 109
1, 1251917, Control_c, 0, 67, 47
1, 1251932, Control_c, 0, 64, 127
1, 1251932, Control_c, 0, 67, 48
1, 1251947, Control_c, 0, 67, 51
1, 1251962, Control_c, 0, 67, 53
1, 1251976, Control_c, 0, 67, 54
1, 1251991, Control_c, 0, 67, 55
1, 1252006, Control_c, 0, 64, 94
1, 1252006, Control_c, 0, 67, 55
1, 1252017, Note_off_c, 0, 58, 57
1, 1252021, Control_c, 0, 64, 74
1, 1252036, Control_c, 0, 64, 60
1, 1252050, Control_c, 0, 64, 34
1, 1252050, Control_c, 0, 67, 56
1, 1252065, Control_c, 0, 64, 0
1, 1252065, Control_c, 0, 67, 58
1, 1252080, Control_c, 0, 67, 62
1, 1252095, Control_c, 0, 67, 66
1, 1252109, Control_c, 0, 67, 68
1, 1252124, Control_c, 0, 67, 69
1, 1252130, Note_on_c, 0, 82, 71
1, 1252131, Note_on_c, 0, 68, 65
1, 1252133, Note_on_c, 0, 56, 55
1, 1252139, Control_c, 0, 67, 69
1, 1252154, Control_c, 0, 67, 70
1, 1252163, Note_off_c, 0, 68, 64
1, 1252184, Control_c, 0, 64, 36
1, 1252199, Control_c, 0, 64, 42
1, 1252199, Control_c, 0, 67, 69
1, 1252205, Note_off_c, 0, 56, 52
1, 1252214, Control_c, 0, 64, 45
1, 1252214, Control_c, 0, 67, 69
1, 1252218, Note_on_c, 0, 70, 65
1, 1252219, Note_on_c, 0, 58, 62
1, 1252228, Control_c, 0, 64, 49
1, 1252228, Control_c, 0, 67, 68
1, 1252242, Note_off_c, 0, 82, 61
1, 1252243, Control_c, 0, 64, 53
1, 1252243, Control_c, 0, 67, 68
1, 1252246, Note_off_c, 0, 70, 68
1, 1252258, Control_c, 0, 64, 56
1, 1252258, Control_c, 0, 67, 67
1, 1252273, Control_c, 0, 64, 58
1, 1252273, Control_c, 0, 67, 67
1, 1252288, Control_c, 0, 64, 58
1, 1252288, Control_c, 0, 67, 66
1, 1252289, Note_off_c, 0, 58, 62
1, 1252290, Note_on_c, 0, 72, 68
1, 1252309, Note_on_c, 0, 60, 66
1, 1252311, Control_c, 0, 67, 65
1, 1252326, Control_c, 0, 67, 64
1, 1252340, Control_c, 0, 64, 59
1, 1252340, Control_c, 0, 67, 63
1, 1252348, Note_off_c, 0, 60, 66
1, 1252355, Control_c, 0, 64, 61
1, 1252355, Control_c, 0, 67, 62
1, 1252357, Note_off_c, 0, 72, 61
1, 1252364, Note_on_c, 0, 82, 82
1, 1252370, Control_c, 0, 64, 62
1, 1252370, Control_c, 0, 67, 61
1, 1252380, Note_on_c, 0, 62, 70
1, 1252385, Control_c, 0, 64, 63
1, 1252385, Control_c, 0, 67, 60
1, 1252396, Note_on_c, 0, 74, 46
1, 1252400, Control_c, 0, 64, 64
1, 1252400, Control_c, 0, 67, 59
1, 1252414, Control_c, 0, 64, 66
1, 1252414, Control_c, 0, 67, 57
1, 1252419, Note_off_c, 0, 74, 58
1, 1252429, Control_c, 0, 64, 67
1, 1252429, Control_c, 0, 67, 54
1, 1252430, Note_off_c, 0, 82, 57
1, 1252434, Note_off_c, 0, 62, 61
1, 1252439, Note_on_c, 0, 75, 71
1, 1252444, Control_c, 0, 64, 69
1, 1252444, Control_c, 0, 67, 51
1, 1252452, Note_on_c, 0, 63, 73
1, 1252454, Note_off_c, 0, 75, 68
1, 1252459, Control_c, 0, 64, 71
1, 1252459, Control_c, 0, 67, 42
1, 1252474, Control_c, 0, 64, 74
1, 1252474, Control_c, 0, 67, 29
1, 1252487, Note_on_c, 0, 77, 92
1, 1252488, Control_c, 0, 64, 76
1, 1252488, Control_c, 0, 67, 0
1, 1252503, Control_c, 0, 64, 80
1, 1252518, Note_on_c, 0, 65, 81
1, 1252518, Control_c, 0, 64, 83
1, 1252521, Note_off_c, 0, 63, 63
1, 1252533, Control_c, 0, 64, 87
1, 1252543, Note_off_c, 0, 77, 61
1, 1252548, Control_c, 0, 64, 93
1, 1252553, Note_on_c, 0, 79, 100
1, 1252560, Note_off_c, 0, 65, 65
1, 1252562, Control_c, 0, 64, 105
1, 1252567, Note_on_c, 0, 67, 75
1, 1252577, Control_c, 0, 64, 127
1, 1252622, Note_on_c, 0, 80, 100
1, 1252637, Note_off_c, 0, 79, 67
1, 1252643, Note_on_c, 0, 68, 92
1, 1252653, Note_off_c, 0, 67, 61
1, 1252673, Note_on_c, 0, 70, 71
1, 1252681, Note_off_c, 0, 80, 71
1, 1252688, Note_on_c, 0, 82, 93
1, 1252719, Note_off_c, 0, 68, 59
1, 1252725, Control_c, 0, 64, 100
1, 1252729, Note_off_c, 0, 82, 67
1, 1252740, Control_c, 0, 64, 63
1, 1252743, Note_off_c, 0, 70, 65
1, 1252755, Control_c, 0, 64, 0
1, 1252774, Note_on_c, 0, 71, 87
1, 1252774, Note_on_c, 0, 64, 87
1, 1252775, Note_on_c, 0, 83, 102
1, 1252778, Note_on_c, 0, 68, 38
1, 1252784, Note_on_c, 0, 67, 93
1, 1252814, Control_c, 0, 64, 52
1, 1252825, Note_off_c, 0, 64, 64
1, 1252829, Control_c, 0, 64, 77
1, 1252843, Control_c, 0, 64, 114
1, 1252858, Control_c, 0, 64, 127
1, 1252862, Note_on_c, 0, 76, 88
1, 1252866, Note_off_c, 0, 67, 66
1, 1252884, Note_off_c, 0, 83, 62
1, 1252887, Note_off_c, 0, 71, 59
1, 1252900, Note_off_c, 0, 68, 40
1, 1252935, Note_on_c, 0, 74, 92
1, 1252949, Note_off_c, 0, 76, 65
1, 1252977, Note_off_c, 0, 74, 66
1, 1253000, Note_on_c, 0, 72, 89
1, 1253036, Control_c, 0, 64, 86
1, 1253058, Control_c, 0, 64, 62
1, 1253073, Control_c, 0, 64, 0
1, 1253078, Note_off_c, 0, 72, 61
1, 1253081, Note_on_c, 0, 71, 85
1, 1253130, Note_off_c, 0, 71, 67
1, 1253131, Note_on_c, 0, 69, 83
1, 1253163, Note_off_c, 0, 69, 65
1, 1253218, Note_on_c, 0, 46, 87
1, 1253220, Note_on_c, 0, 34, 76
1, 1253223, Control_c, 0, 64, 55
1, 1253230, Note_on_c, 0, 68, 95
1, 1253237, Control_c, 0, 64, 65
1, 1253242, Note_off_c, 0, 46, 70
1, 1253247, Note_off_c, 0, 34, 67
1, 1253253, Control_c, 0, 64, 68
1, 1253262, Note_on_c, 0, 81, 37
1, 1253268, Control_c, 0, 64, 73
1, 1253282, Control_c, 0, 64, 80
1, 1253294, Note_off_c, 0, 81, 37
1, 1253297, Control_c, 0, 64, 91
1, 1253302, Note_off_c, 0, 68, 64
1, 1253312, Control_c, 0, 64, 102
1, 1253327, Control_c, 0, 64, 122
1, 1253329, Note_on_c, 0, 71, 76
1, 1253342, Control_c, 0, 64, 127
1, 1253358, Note_off_c, 0, 71, 62
1, 1253371, Control_c, 0, 64, 81
1, 1253386, Control_c, 0, 64, 47
1, 1253391, Note_on_c, 0, 72, 87
1, 1253401, Control_c, 0, 64, 0
1, 1253458, Note_on_c, 0, 67, 84
1, 1253460, Control_c, 0, 64, 59
1, 1253466, Note_on_c, 0, 74, 93
1, 1253467, Note_off_c, 0, 72, 59
1, 1253475, Control_c, 0, 64, 66
1, 1253504, Control_c, 0, 64, 63
1, 1253519, Control_c, 0, 64, 61
1, 1253521, Note_on_c, 0, 66, 88
1, 1253527, Note_on_c, 0, 75, 91
1, 1253532, Note_off_c, 0, 74, 65
1, 1253534, Control_c, 0, 64, 64
1, 1253549, Note_off_c, 0, 67, 62
1, 1253549, Control_c, 0, 64, 71
1, 1253564, Control_c, 0, 64, 82
1, 1253576, Note_off_c, 0, 75, 67
1, 1253579, Control_c, 0, 64, 89
1, 1253592, Note_on_c, 0, 65, 76
1, 1253594, Control_c, 0, 64, 89
1, 1253600, Note_on_c, 0, 77, 91
1, 1253609, Control_c, 0, 64, 83
1, 1253623, Control_c, 0, 64, 72
1, 1253638, Control_c, 0, 64, 57
1, 1253642, Note_off_c, 0, 77, 68
1, 1253647, Note_off_c, 0, 66, 52
1, 1253653, Control_c, 0, 64, 0
1, 1253677, Note_on_c, 0, 71, 102
1, 1253678, Note_on_c, 0, 64, 91
1, 1253679, Note_on_c, 0, 67, 97
1, 1253680, Note_on_c, 0, 83, 103
1, 1253681, Note_off_c, 0, 65, 50
1, 1253689, Note_on_c, 0, 77, 54
1, 1253710, Note_off_c, 0, 77, 63
1, 1253756, Control_c, 0, 64, 60
1, 1253764, Note_on_c, 0, 76, 97
1, 1253771, Control_c, 0, 64, 67
1, 1253786, Control_c, 0, 64, 58
1, 1253788, Note_off_c, 0, 83, 65
1, 1253808, Control_c, 0, 64, 0
1, 1253824, Note_off_c, 0, 71, 68
1, 1253838, Control_c, 0, 64, 54
1, 1253839, Note_on_c, 0, 74, 98
1, 1253848, Note_off_c, 0, 67, 67
1, 1253851, Note_off_c, 0, 76, 66
1, 1253853, Control_c, 0, 64, 73
1, 1253864, Note_off_c, 0, 64, 68
1, 1253868, Control_c, 0, 64, 105
1, 1253883, Note_off_c, 0, 74, 69
1, 1253883, Control_c, 0, 64, 127
1, 1253898, Control_c, 0, 64, 116
1, 1253912, Note_on_c, 0, 72, 97
1, 1253913, Control_c, 0, 64, 109
1, 1253958, Control_c, 0, 64, 103
1, 1253972, Control_c, 0, 64, 77
1, 1253975, Note_off_c, 0, 72, 60
1, 1253978, Note_on_c, 0, 71, 87
1, 1253987, Control_c, 0, 64, 59
1, 1254001, Control_c, 0, 64, 0
1, 1254024, Note_on_c, 0, 69, 89
1, 1254029, Note_off_c, 0, 71, 68
1, 1254054, Note_off_c, 0, 69, 67
1, 1254131, Note_on_c, 0, 46, 100
1, 1254134, Control_c, 0, 64, 57
1, 1254135, Note_on_c, 0, 34, 82
1, 1254139, Note_on_c, 0, 56, 101
1, 1254149, Control_c, 0, 64, 78
1, 1254150, Note_on_c, 0, 70, 69
1, 1254159, Note_off_c, 0, 34, 66
1, 1254163, Note_off_c, 0, 46, 66
1, 1254164, Control_c, 0, 64, 122
1, 1254167, Note_off_c, 0, 70, 66
1, 1254178, Control_c, 0, 64, 127
1, 1254197, Note_off_c, 0, 56, 64
1, 1254218, Note_on_c, 0, 58, 92
1, 1254223, Control_c, 0, 67, 20
1, 1254238, Control_c, 0, 67, 22
1, 1254261, Note_off_c, 0, 58, 65
1, 1254268, Control_c, 0, 64, 91
1, 1254268, Control_c, 0, 67, 27
1, 1254282, Control_c, 0, 64, 63
1, 1254282, Control_c, 0, 67, 31
1, 1254297, Control_c, 0, 64, 0
1, 1254297, Control_c, 0, 67, 35
1, 1254299, Note_on_c, 0, 60, 86
1, 1254312, Control_c, 0, 67, 39
1, 1254327, Control_c, 0, 67, 44
1, 1254342, Control_c, 0, 67, 46
1, 1254357, Control_c, 0, 67, 47
1, 1254366, Note_on_c, 0, 62, 83
1, 1254371, Control_c, 0, 67, 47
1, 1254376, Note_off_c, 0, 60, 62
1, 1254386, Control_c, 0, 67, 46
1, 1254401, Control_c, 0, 67, 46
1, 1254437, Note_on_c, 0, 63, 84
1, 1254455, Note_off_c, 0, 62, 61
1, 1254508, Note_on_c, 0, 65, 81
1, 1254509, Note_off_c, 0, 63, 66
1, 1254539, Note_off_c, 0, 65, 68
1, 1254557, Control_c, 0, 67, 45
1, 1254599, Note_on_c, 0, 56, 69
1, 1254630, Control_c, 0, 64, 30
1, 1254645, Control_c, 0, 64, 51
1, 1254660, Control_c, 0, 64, 41
1, 1254676, Note_on_c, 0, 58, 73
1, 1254676, Control_c, 0, 64, 0
1, 1254676, Note_off_c, 0, 56, 61
1, 1254730, Note_off_c, 0, 58, 66
1, 1254753, Note_on_c, 0, 60, 79
1, 1254795, Note_off_c, 0, 60, 63
1, 1254816, Note_on_c, 0, 62, 75
1, 1254891, Note_on_c, 0, 63, 70
1, 1254896, Note_off_c, 0, 62, 60
1, 1254955, Note_on_c, 0, 65, 70
1, 1254963, Note_off_c, 0, 63, 63
1, 1254989, Note_off_c, 0, 65, 66
1, 1255025, Note_on_c, 0, 56, 59
1, 1255060, Control_c, 0, 64, 45
1, 1255075, Control_c, 0, 64, 62
1, 1255090, Control_c, 0, 64, 65
1, 1255095, Note_on_c, 0, 58, 67
1, 1255101, Note_off_c, 0, 56, 59
1, 1255105, Control_c, 0, 64, 65
1, 1255120, Control_c, 0, 64, 65
1, 1255135, Control_c, 0, 67, 45
1, 1255162, Note_on_c, 0, 60, 58
1, 1255165, Control_c, 0, 67, 44
1, 1255180, Note_off_c, 0, 58, 63
1, 1255191, Note_off_c, 0, 60, 66
1, 1255194, Control_c, 0, 64, 64
1, 1255224, Control_c, 0, 64, 63
1, 1255232, Note_on_c, 0, 62, 65
1, 1255239, Control_c, 0, 64, 61
1, 1255253, Control_c, 0, 64, 58
1, 1255268, Control_c, 0, 64, 54
1, 1255283, Control_c, 0, 64, 50
1, 1255305, Control_c, 0, 64, 45
1, 1255315, Note_off_c, 0, 62, 59
1, 1255317, Note_on_c, 0, 63, 63
1, 1255320, Control_c, 0, 64, 36
1, 1255320, Control_c, 0, 67, 45
1, 1255335, Control_c, 0, 64, 0
1, 1255335, Control_c, 0, 67, 45
1, 1255350, Control_c, 0, 67, 46
1, 1255364, Control_c, 0, 67, 46
1, 1255372, Note_off_c, 0, 63, 58
1, 1255382, Note_on_c, 0, 64, 65
1, 1255439, Control_c, 0, 67, 46
1, 1255451, Note_on_c, 0, 70, 79
1, 1255452, Note_on_c, 0, 65, 75
1, 1255453, Control_c, 0, 67, 45
1, 1255454, Note_on_c, 0, 68, 82
1, 1255469, Control_c, 0, 67, 45
1, 1255472, Note_off_c, 0, 70, 72
1, 1255473, Note_off_c, 0, 64, 61
1, 1255476, Note_off_c, 0, 68, 71
1, 1255484, Control_c, 0, 67, 44
1, 1255499, Control_c, 0, 64, 56
1, 1255514, Control_c, 0, 64, 69
1, 1255528, Control_c, 0, 64, 73
1, 1255543, Control_c, 0, 64, 76
1, 1255558, Control_c, 0, 64, 77
1, 1255573, Control_c, 0, 64, 78
1, 1255588, Control_c, 0, 64, 81
1, 1255603, Control_c, 0, 64, 84
1, 1255617, Control_c, 0, 64, 89
1, 1255632, Control_c, 0, 64, 92
1, 1255647, Control_c, 0, 64, 93
1, 1255653, Note_off_c, 0, 65, 63
1, 1255691, Control_c, 0, 64, 85
1, 1255706, Control_c, 0, 64, 66
1, 1255710, Note_on_c, 0, 33, 75
1, 1255721, Control_c, 0, 64, 0
1, 1255765, Control_c, 0, 67, 45
1, 1255780, Control_c, 0, 67, 46
1, 1255795, Control_c, 0, 67, 47
1, 1255810, Control_c, 0, 67, 48
1, 1255845, Note_off_c, 0, 33, 55
1, 1255898, Control_c, 0, 67, 48
1, 1255913, Control_c, 0, 67, 47
1, 1255943, Note_on_c, 0, 32, 63
1, 1255949, Note_on_c, 0, 51, 62
1, 1255973, Note_off_c, 0, 32, 62
1, 1256017, Control_c, 0, 67, 47
1, 1256040, Note_on_c, 0, 56, 54
1, 1256050, Note_off_c, 0, 51, 50
1, 1256095, Note_off_c, 0, 56, 59
1, 1256114, Note_on_c, 0, 59, 49
1, 1256143, Control_c, 0, 67, 46
1, 1256157, Control_c, 0, 67, 46
1, 1256172, Control_c, 0, 67, 45
1, 1256187, Note_on_c, 0, 52, 62
1, 1256187, Control_c, 0, 67, 45
1, 1256188, Note_on_c, 0, 38, 73
1, 1256190, Note_off_c, 0, 59, 53
1, 1256202, Control_c, 0, 67, 44
1, 1256219, Note_off_c, 0, 38, 67
1, 1256248, Note_off_c, 0, 52, 59
1, 1256268, Note_on_c, 0, 56, 59
1, 1256310, Note_off_c, 0, 56, 60
1, 1256330, Note_on_c, 0, 59, 48
1, 1256411, Control_c, 0, 67, 44
1, 1256426, Control_c, 0, 67, 43
1, 1256430, Note_on_c, 0, 43, 73
1, 1256432, Note_on_c, 0, 53, 61
1, 1256441, Control_c, 0, 67, 42
1, 1256456, Note_off_c, 0, 43, 65
1, 1256468, Note_off_c, 0, 59, 48
1, 1256482, Note_off_c, 0, 53, 57
1, 1256505, Note_on_c, 0, 56, 63
1, 1256545, Control_c, 0, 67, 43
1, 1256549, Note_off_c, 0, 56, 57
1, 1256583, Note_on_c, 0, 59, 58
1, 1256618, Control_c, 0, 67, 42
1, 1256648, Control_c, 0, 67, 42
1, 1256661, Note_on_c, 0, 38, 65
1, 1256672, Note_on_c, 0, 52, 63
1, 1256690, Note_off_c, 0, 38, 64
1, 1256694, Note_off_c, 0, 59, 60
1, 1256718, Note_off_c, 0, 52, 60
1, 1256735, Note_on_c, 0, 56, 65
1, 1256764, Note_off_c, 0, 56, 63
1, 1256781, Control_c, 0, 67, 42
1, 1256819, Note_on_c, 0, 59, 49
1, 1256885, Note_on_c, 0, 32, 61
1, 1256893, Control_c, 0, 67, 41
1, 1256907, Control_c, 0, 64, 50
1, 1256907, Control_c, 0, 67, 40
1, 1256909, Note_on_c, 0, 51, 61
1, 1256913, Note_off_c, 0, 32, 59
1, 1256922, Control_c, 0, 64, 64
1, 1256922, Control_c, 0, 67, 40
1, 1256929, Note_off_c, 0, 59, 50
1, 1256937, Control_c, 0, 64, 66
1, 1256937, Control_c, 0, 67, 39
1, 1256952, Control_c, 0, 64, 66
1, 1256966, Note_off_c, 0, 51, 53
1, 1256967, Control_c, 0, 64, 67
1, 1256967, Control_c, 0, 67, 39
1, 1256977, Note_on_c, 0, 56, 73
1, 1256981, Control_c, 0, 64, 68
1, 1256981, Control_c, 0, 67, 38
1, 1256996, Control_c, 0, 64, 68
1, 1256996, Control_c, 0, 67, 37
1, 1257011, Control_c, 0, 64, 69
1, 1257038, Note_off_c, 0, 56, 60
1, 1257040, Control_c, 0, 67, 37
1, 1257055, Control_c, 0, 64, 68
1, 1257055, Control_c, 0, 67, 38
1, 1257060, Note_on_c, 0, 59, 52
1, 1257071, Control_c, 0, 64, 67
1, 1257086, Control_c, 0, 64, 66
1, 1257086, Control_c, 0, 67, 39
1, 1257098, Note_off_c, 0, 59, 66
1, 1257101, Control_c, 0, 64, 63
1, 1257105, Note_on_c, 0, 63, 72
1, 1257116, Control_c, 0, 64, 59
1, 1257116, Control_c, 0, 67, 39
1, 1257130, Control_c, 0, 64, 50
1, 1257145, Control_c, 0, 64, 31
1, 1257145, Control_c, 0, 67, 40
1, 1257160, Control_c, 0, 64, 0
1, 1257177, Note_off_c, 0, 63, 64
1, 1257183, Note_on_c, 0, 68, 80
1, 1257204, Control_c, 0, 67, 40
1, 1257219, Control_c, 0, 67, 41
1, 1257237, Note_off_c, 0, 68, 66
1, 1257248, Control_c, 0, 67, 41
1, 1257251, Note_on_c, 0, 71, 83
1, 1257270, Note_off_c, 0, 71, 73
1, 1257308, Control_c, 0, 67, 38
1, 1257318, Note_on_c, 0, 75, 96
1, 1257323, Control_c, 0, 67, 33
1, 1257338, Control_c, 0, 67, 24
1, 1257353, Control_c, 0, 67, 0
1, 1257383, Control_c, 0, 64, 43
1, 1257397, Control_c, 0, 64, 58
1, 1257412, Control_c, 0, 64, 63
1, 1257427, Control_c, 0, 64, 65
1, 1257441, Control_c, 0, 64, 64
1, 1257456, Control_c, 0, 64, 55
1, 1257471, Control_c, 0, 64, 0
1, 1257552, Control_c, 0, 64, 69
1, 1257561, Note_on_c, 0, 42, 97
1, 1257566, Note_on_c, 0, 30, 101
1, 1257567, Control_c, 0, 64, 127
1, 1257583, Note_off_c, 0, 75, 64
1, 1257594, Note_off_c, 0, 42, 68
1, 1257603, Note_off_c, 0, 30, 62
1, 1257642, Control_c, 0, 64, 69
1, 1257656, Control_c, 0, 64, 0
1, 1257809, Note_on_c, 0, 40, 105
1, 1257811, Note_on_c, 0, 28, 105
1, 1257812, Note_on_c, 0, 83, 108
1, 1257818, Control_c, 0, 64, 39
1, 1257833, Note_off_c, 0, 28, 72
1, 1257833, Control_c, 0, 64, 88
1, 1257841, Note_on_c, 0, 29, 39
1, 1257841, Note_off_c, 0, 29, 127
1, 1257841, Note_off_c, 0, 40, 68
1, 1257848, Control_c, 0, 64, 127
1, 1257883, Poly_aftertouch_c, 0, 29, 0
1, 1257892, Note_on_c, 0, 80, 93
1, 1257915, Note_off_c, 0, 83, 70
1, 1257957, Note_off_c, 0, 80, 67
1, 1257970, Note_on_c, 0, 76, 88
1, 1257986, Note_off_c, 0, 76, 73
1, 1258042, Note_on_c, 0, 74, 88
1, 1258128, Note_on_c, 0, 70, 90
1, 1258155, Note_off_c, 0, 74, 61
1, 1258181, Note_off_c, 0, 70, 70
1, 1258188, Note_on_c, 0, 67, 80
1, 1258221, Note_off_c, 0, 67, 70
1, 1258249, Control_c, 0, 64, 105
1, 1258263, Control_c, 0, 64, 73
1, 1258274, Note_on_c, 0, 65, 96
1, 1258278, Control_c, 0, 64, 47
1, 1258301, Control_c, 0, 64, 0
1, 1258350, Note_on_c, 0, 61, 83
1, 1258372, Note_off_c, 0, 65, 65
1, 1258408, Note_off_c, 0, 61, 63
1, 1258428, Note_on_c, 0, 56, 89
1, 1258471, Note_off_c, 0, 56, 61
1, 1258498, Note_on_c, 0, 57, 71
1, 1258574, Note_on_c, 0, 51, 80
1, 1258591, Note_off_c, 0, 57, 57
1, 1258655, Note_on_c, 0, 47, 63
1, 1258662, Note_off_c, 0, 51, 59
1, 1258704, Note_on_c, 0, 46, 73
1, 1258704, Note_off_c, 0, 47, 65
1, 1258726, Note_on_c, 0, 49, 85
1, 1258736, Note_off_c, 0, 46, 66
1, 1258747, Control_c, 0, 64, 64
1, 1258762, Control_c, 0, 64, 72
1, 1258769, Note_off_c, 0, 49, 66
1, 1258776, Control_c, 0, 64, 68
1, 1258791, Control_c, 0, 64, 50
1, 1258805, Note_on_c, 0, 50, 86
1, 1258806, Control_c, 0, 64, 0
1, 1258869, Note_on_c, 0, 53, 82
1, 1258872, Note_off_c, 0, 50, 62
1, 1258926, Note_on_c, 0, 34, 99
1, 1258940, Note_on_c, 0, 58, 96
1, 1258940, Note_off_c, 0, 53, 63
1, 1258945, Note_off_c, 0, 34, 72
1, 1258963, Note_off_c, 0, 58, 70
1, 1258968, Control_c, 0, 64, 67
1, 1258983, Control_c, 0, 64, 85
1, 1258998, Control_c, 0, 64, 74
1, 1259013, Control_c, 0, 64, 51
1, 1259016, Note_on_c, 0, 62, 89
1, 1259028, Control_c, 0, 64, 0
1, 1259097, Note_on_c, 0, 65, 90
1, 1259117, Note_off_c, 0, 62, 60
1, 1259165, Note_on_c, 0, 58, 108
1, 1259166, Note_on_c, 0, 70, 104
1, 1259168, Note_off_c, 0, 65, 70
1, 1259178, Note_on_c, 0, 56, 90
1, 1259196, Note_off_c, 0, 70, 71
1, 1259206, Note_off_c, 0, 56, 0
1, 1259213, Control_c, 0, 64, 65
1, 1259221, Note_on_c, 0, 56, 32
1, 1259228, Control_c, 0, 64, 89
1, 1259243, Control_c, 0, 64, 127
1, 1259245, Note_off_c, 0, 56, 58
1, 1259308, Note_on_c, 0, 59, 57
1, 1259368, Note_off_c, 0, 59, 0
1, 1259368, Note_on_c, 0, 59, 11
1, 1259376, Control_c, 0, 64, 97
1, 1259391, Control_c, 0, 64, 68
1, 1259406, Control_c, 0, 64, 33
1, 1259411, Note_off_c, 0, 59, 45
1, 1259420, Control_c, 0, 64, 0
1, 1259432, Note_on_c, 0, 82, 90
1, 1259481, Control_c, 0, 64, 46
1, 1259496, Control_c, 0, 64, 60
1, 1259508, Note_on_c, 0, 86, 86
1, 1259511, Control_c, 0, 64, 59
1, 1259512, Note_off_c, 0, 82, 62
1, 1259525, Control_c, 0, 64, 49
1, 1259540, Control_c, 0, 64, 0
1, 1259582, Note_on_c, 0, 89, 88
1, 1259586, Note_off_c, 0, 86, 65
1, 1259645, Note_on_c, 0, 63, 85
1, 1259661, Note_on_c, 0, 83, 87
1, 1259673, Control_c, 0, 64, 54
1, 1259675, Note_off_c, 0, 89, 65
1, 1259688, Control_c, 0, 64, 68
1, 1259703, Control_c, 0, 64, 74
1, 1259717, Control_c, 0, 64, 84
1, 1259732, Control_c, 0, 64, 94
1, 1259734, Note_on_c, 0, 87, 81
1, 1259746, Note_off_c, 0, 83, 64
1, 1259747, Control_c, 0, 64, 117
1, 1259761, Control_c, 0, 64, 127
1, 1259816, Note_on_c, 0, 89, 85
1, 1259827, Note_off_c, 0, 87, 65
1, 1259858, Control_c, 0, 64, 93
1, 1259873, Control_c, 0, 64, 66
1, 1259881, Note_on_c, 0, 64, 87
1, 1259888, Control_c, 0, 64, 0
1, 1259895, Note_on_c, 0, 84, 93
1, 1259899, Note_off_c, 0, 89, 62
1, 1259929, Note_off_c, 0, 63, 28
1, 1259932, Control_c, 0, 64, 32
1, 1259947, Control_c, 0, 64, 59
1, 1259962, Control_c, 0, 64, 69
1, 1259968, Note_on_c, 0, 88, 97
1, 1259976, Note_off_c, 0, 84, 63
1, 1259976, Control_c, 0, 64, 77
1, 1259991, Control_c, 0, 64, 89
1, 1260006, Control_c, 0, 64, 105
1, 1260021, Control_c, 0, 64, 127
1, 1260036, Note_on_c, 0, 89, 93
1, 1260047, Note_off_c, 0, 88, 66
1, 1260095, Control_c, 0, 64, 74
1, 1260110, Control_c, 0, 64, 41
1, 1260111, Note_off_c, 0, 64, 59
1, 1260116, Note_on_c, 0, 68, 100
1, 1260125, Control_c, 0, 64, 0
1, 1260128, Note_off_c, 0, 89, 57
1, 1260128, Note_on_c, 0, 83, 93
1, 1260155, Control_c, 0, 64, 44
1, 1260169, Control_c, 0, 64, 68
1, 1260184, Control_c, 0, 64, 89
1, 1260198, Note_on_c, 0, 87, 86
1, 1260199, Control_c, 0, 64, 127
1, 1260205, Note_off_c, 0, 83, 62
1, 1260214, Note_off_c, 0, 68, 59
1, 1260274, Control_c, 0, 64, 91
1, 1260274, Note_on_c, 0, 89, 92
1, 1260289, Note_off_c, 0, 87, 63
1, 1260289, Control_c, 0, 64, 64
1, 1260304, Control_c, 0, 64, 0
1, 1260333, Control_c, 0, 64, 36
1, 1260347, Note_on_c, 0, 70, 86
1, 1260348, Control_c, 0, 64, 62
1, 1260353, Note_on_c, 0, 82, 93
1, 1260363, Control_c, 0, 64, 77
1, 1260370, Note_off_c, 0, 89, 63
1, 1260378, Control_c, 0, 64, 100
1, 1260386, Note_off_c, 0, 58, 59
1, 1260390, Note_off_c, 0, 70, 64
1, 1260392, Control_c, 0, 64, 127
1, 1260402, Note_off_c, 0, 82, 66
1, 1260417, Note_on_c, 0, 86, 91
1, 1260471, Note_on_c, 0, 89, 82
1, 1260471, Note_off_c, 0, 86, 66
1, 1260492, Note_off_c, 0, 89, 70
1, 1260526, Control_c, 0, 64, 98
1, 1260548, Control_c, 0, 64, 60
1, 1260563, Control_c, 0, 64, 0
1, 1260587, Note_on_c, 0, 58, 65
1, 1260597, Note_on_c, 0, 68, 79
1, 1260607, Control_c, 0, 67, 25
1, 1260622, Control_c, 0, 67, 31
1, 1260637, Control_c, 0, 67, 39
1, 1260650, Note_off_c, 0, 68, 63
1, 1260652, Control_c, 0, 67, 50
1, 1260666, Control_c, 0, 67, 63
1, 1260671, Note_on_c, 0, 77, 63
1, 1260681, Control_c, 0, 67, 74
1, 1260696, Control_c, 0, 67, 84
1, 1260711, Control_c, 0, 67, 92
1, 1260726, Control_c, 0, 67, 95
1, 1260737, Note_on_c, 0, 73, 77
1, 1260740, Control_c, 0, 67, 96
1, 1260747, Note_off_c, 0, 77, 63
1, 1260783, Note_off_c, 0, 73, 58
1, 1260817, Note_on_c, 0, 56, 61
1, 1260817, Note_on_c, 0, 70, 77
1, 1260829, Control_c, 0, 67, 98
1, 1260831, Note_off_c, 0, 58, 55
1, 1260881, Note_off_c, 0, 70, 63
1, 1260902, Note_on_c, 0, 78, 78
1, 1260971, Note_on_c, 0, 75, 72
1, 1260976, Note_off_c, 0, 78, 63
1, 1261013, Note_off_c, 0, 75, 61
1, 1261016, Note_off_c, 0, 56, 61
1, 1261037, Control_c, 0, 64, 43
1, 1261047, Note_on_c, 0, 71, 72
1, 1261052, Control_c, 0, 64, 0
1, 1261055, Note_on_c, 0, 54, 53
1, 1261101, Note_off_c, 0, 71, 60
1, 1261112, Note_on_c, 0, 80, 75
1, 1261159, Note_off_c, 0, 80, 65
1, 1261192, Note_on_c, 0, 81, 80
1, 1261251, Note_off_c, 0, 54, 63
1, 1261256, Note_on_c, 0, 53, 58
1, 1261261, Note_off_c, 0, 81, 62
1, 1261263, Note_on_c, 0, 77, 72
1, 1261275, Control_c, 0, 64, 52
1, 1261275, Control_c, 0, 67, 96
1, 1261296, Control_c, 0, 64, 63
1, 1261302, Note_off_c, 0, 53, 65
1, 1261311, Control_c, 0, 64, 64
1, 1261336, Note_on_c, 0, 72, 77
1, 1261344, Note_off_c, 0, 77, 64
1, 1261356, Control_c, 0, 64, 64
1, 1261368, Note_off_c, 0, 72, 63
1, 1261371, Control_c, 0, 64, 62
1, 1261386, Control_c, 0, 64, 59
1, 1261401, Control_c, 0, 64, 54
1, 1261406, Note_on_c, 0, 69, 68
1, 1261415, Control_c, 0, 64, 44
1, 1261430, Control_c, 0, 64, 0
1, 1261443, Note_off_c, 0, 69, 58
1, 1261478, Note_on_c, 0, 58, 74
1, 1261485, Note_on_c, 0, 70, 77
1, 1261490, Control_c, 0, 67, 95
1, 1261502, Note_off_c, 0, 58, 69
1, 1261505, Control_c, 0, 64, 38
1, 1261520, Control_c, 0, 64, 60
1, 1261535, Control_c, 0, 64, 67
1, 1261544, Note_on_c, 0, 65, 67
1, 1261564, Control_c, 0, 64, 65
1, 1261575, Note_off_c, 0, 70, 60
1, 1261579, Control_c, 0, 64, 64
1, 1261594, Control_c, 0, 64, 62
1, 1261606, Note_off_c, 0, 65, 65
1, 1261609, Control_c, 0, 64, 62
1, 1261609, Control_c, 0, 67, 95
1, 1261613, Note_on_c, 0, 62, 68
1, 1261623, Control_c, 0, 64, 57
1, 1261625, Note_on_c, 0, 46, 77
1, 1261638, Control_c, 0, 64, 0
1, 1261648, Note_off_c, 0, 62, 66
1, 1261653, Control_c, 0, 67, 94
1, 1261654, Note_off_c, 0, 46, 67
1, 1261668, Control_c, 0, 67, 92
1, 1261683, Control_c, 0, 67, 91
1, 1261697, Control_c, 0, 67, 91
1, 1261707, Note_on_c, 0, 46, 80
1, 1261712, Control_c, 0, 64, 54
1, 1261727, Control_c, 0, 64, 57
1, 1261734, Note_off_c, 0, 46, 68
1, 1261741, Control_c, 0, 64, 43
1, 1261756, Control_c, 0, 64, 0
1, 1261772, Note_on_c, 0, 50, 68
1, 1261815, Control_c, 0, 67, 91
1, 1261854, Note_off_c, 0, 50, 63
1, 1261866, Note_on_c, 0, 53, 69
1, 1261876, Control_c, 0, 64, 47
1, 1261891, Control_c, 0, 64, 55
1, 1261896, Note_off_c, 0, 53, 67
1, 1261905, Control_c, 0, 64, 56
1, 1261920, Control_c, 0, 64, 57
1, 1261935, Control_c, 0, 64, 58
1, 1261950, Control_c, 0, 64, 58
1, 1261961, Note_on_c, 0, 57, 48
1, 1261965, Control_c, 0, 64, 58
1, 1261979, Control_c, 0, 64, 56
1, 1261979, Control_c, 0, 67, 91
1, 1261985, Note_on_c, 0, 55, 18
1, 1261994, Control_c, 0, 64, 53
1, 1261994, Control_c, 0, 67, 90
1, 1262002, Note_on_c, 0, 62, 71
1, 1262009, Control_c, 0, 64, 55
1, 1262013, Note_off_c, 0, 57, 63
1, 1262024, Control_c, 0, 64, 59
1, 1262025, Note_off_c, 0, 55, 29
1, 1262046, Control_c, 0, 64, 63
1, 1262061, Control_c, 0, 64, 65
1, 1262061, Control_c, 0, 67, 89
1, 1262075, Note_on_c, 0, 65, 72
1, 1262076, Control_c, 0, 64, 67
1, 1262076, Control_c, 0, 67, 87
1, 1262086, Note_off_c, 0, 62, 61
1, 1262091, Control_c, 0, 64, 68
1, 1262091, Control_c, 0, 67, 83
1, 1262106, Control_c, 0, 64, 69
1, 1262106, Control_c, 0, 67, 79
1, 1262116, Note_off_c, 0, 65, 66
1, 1262120, Control_c, 0, 64, 72
1, 1262120, Control_c, 0, 67, 70
1, 1262135, Control_c, 0, 64, 78
1, 1262135, Control_c, 0, 67, 58
1, 1262150, Control_c, 0, 64, 98
1, 1262150, Control_c, 0, 67, 48
1, 1262152, Note_on_c, 0, 70, 101
1, 1262164, Control_c, 0, 64, 127
1, 1262164, Control_c, 0, 67, 39
1, 1262176, Note_off_c, 0, 70, 72
1, 1262179, Control_c, 0, 67, 29
1, 1262194, Control_c, 0, 67, 0
1, 1262237, Control_c, 0, 64, 95
1, 1262237, Control_c, 0, 67, 20
1, 1262252, Control_c, 0, 64, 66
1, 1262252, Control_c, 0, 67, 26
1, 1262267, Control_c, 0, 64, 0
1, 1262267, Control_c, 0, 67, 29
1, 1262282, Control_c, 0, 67, 32
1, 1262297, Control_c, 0, 67, 34
1, 1262311, Control_c, 0, 67, 35
1, 1262326, Control_c, 0, 67, 35
1, 1262341, Control_c, 0, 67, 37
1, 1262356, Control_c, 0, 67, 40
1, 1262370, Control_c, 0, 67, 43
1, 1262385, Control_c, 0, 67, 45
1, 1262415, Control_c, 0, 67, 45
1, 1262416, Note_on_c, 0, 34, 69
1, 1262430, Control_c, 0, 67, 44
1, 1262459, Control_c, 0, 64, 35
1, 1262459, Control_c, 0, 67, 44
1, 1262474, Control_c, 0, 64, 51
1, 1262474, Control_c, 0, 67, 43
1, 1262489, Control_c, 0, 64, 61
1, 1262489, Control_c, 0, 67, 42
1, 1262495, Note_on_c, 0, 38, 73
1, 1262504, Control_c, 0, 64, 63
1, 1262504, Control_c, 0, 67, 41
1, 1262519, Control_c, 0, 64, 64
1, 1262519, Control_c, 0, 67, 40
1, 1262534, Control_c, 0, 64, 65
1, 1262534, Control_c, 0, 67, 39
1, 1262548, Control_c, 0, 64, 67
1, 1262548, Control_c, 0, 67, 38
1, 1262556, Note_on_c, 0, 41, 84
1, 1262558, Note_off_c, 0, 38, 65
1, 1262563, Control_c, 0, 64, 71
1, 1262563, Control_c, 0, 67, 36
1, 1262578, Control_c, 0, 64, 77
1, 1262578, Control_c, 0, 67, 34
1, 1262593, Control_c, 0, 64, 87
1, 1262593, Control_c, 0, 67, 32
1, 1262601, Note_off_c, 0, 34, 52
1, 1262605, Note_off_c, 0, 41, 63
1, 1262608, Control_c, 0, 64, 99
1, 1262608, Control_c, 0, 67, 30
1, 1262618, Note_on_c, 0, 45, 94
1, 1262623, Control_c, 0, 64, 127
1, 1262623, Control_c, 0, 67, 27
1, 1262637, Control_c, 0, 67, 19
1, 1262652, Control_c, 0, 67, 0
1, 1262671, Note_off_c, 0, 45, 68
1, 1262680, Note_on_c, 0, 50, 85
1, 1262745, Note_on_c, 0, 53, 85
1, 1262746, Note_off_c, 0, 50, 67
1, 1262769, Note_on_c, 0, 52, 48
1, 1262769, Note_off_c, 0, 52, 127
1, 1262772, Note_off_c, 0, 53, 70
1, 1262840, Note_on_c, 0, 58, 106
1, 1262882, Control_c, 0, 64, 104
1, 1262897, Control_c, 0, 64, 59
1, 1262912, Control_c, 0, 64, 0
1, 1263118, Note_on_c, 0, 46, 62
1, 1263125, Note_on_c, 0, 70, 85
1, 1263180, Note_off_c, 0, 70, 66
1, 1263193, Control_c, 0, 67, 21
1, 1263204, Note_on_c, 0, 74, 78
1, 1263223, Control_c, 0, 67, 24
1, 1263238, Control_c, 0, 67, 27
1, 1263253, Control_c, 0, 67, 30
1, 1263267, Note_off_c, 0, 74, 61
1, 1263267, Control_c, 0, 67, 32
1, 1263273, Note_on_c, 0, 77, 70
1, 1263282, Control_c, 0, 67, 32
1, 1263317, Note_off_c, 0, 77, 64
1, 1263326, Control_c, 0, 67, 32
1, 1263346, Note_on_c, 0, 51, 66
1, 1263353, Note_off_c, 0, 46, 59
1, 1263355, Note_on_c, 0, 71, 80
1, 1263356, Control_c, 0, 64, 36
1, 1263371, Control_c, 0, 64, 32
1, 1263386, Control_c, 0, 64, 33
1, 1263401, Control_c, 0, 64, 38
1, 1263413, Note_off_c, 0, 71, 63
1, 1263416, Control_c, 0, 64, 42
1, 1263424, Note_on_c, 0, 75, 73
1, 1263446, Control_c, 0, 64, 38
1, 1263461, Control_c, 0, 64, 34
1, 1263476, Control_c, 0, 64, 32
1, 1263490, Control_c, 0, 64, 30
1, 1263502, Note_off_c, 0, 75, 64
1, 1263505, Control_c, 0, 64, 0
1, 1263506, Note_on_c, 0, 77, 74
1, 1263558, Control_c, 0, 67, 29
1, 1263571, Note_off_c, 0, 51, 64
1, 1263586, Note_on_c, 0, 52, 69
1, 1263587, Control_c, 0, 67, 27
1, 1263589, Note_on_c, 0, 72, 78
1, 1263593, Note_off_c, 0, 77, 62
1, 1263616, Control_c, 0, 67, 24
1, 1263631, Control_c, 0, 64, 45
1, 1263646, Control_c, 0, 64, 53
1, 1263656, Note_off_c, 0, 72, 63
1, 1263661, Control_c, 0, 64, 48
1, 1263675, Note_on_c, 0, 76, 73
1, 1263676, Control_c, 0, 64, 34
1, 1263690, Control_c, 0, 64, 0
1, 1263717, Note_off_c, 0, 76, 58
1, 1263737, Note_on_c, 0, 77, 66
1, 1263822, Note_off_c, 0, 77, 59
1, 1263825, Note_on_c, 0, 71, 76
1, 1263838, Note_on_c, 0, 56, 74
1, 1263839, Control_c, 0, 67, 22
1, 1263842, Note_off_c, 0, 52, 58
1, 1263874, Note_off_c, 0, 58, 60
1, 1263884, Note_off_c, 0, 71, 64
1, 1263911, Note_on_c, 0, 75, 66
1, 1263966, Note_off_c, 0, 75, 61
1, 1263974, Note_on_c, 0, 77, 72
1, 1264025, Note_off_c, 0, 56, 63
1, 1264057, Note_off_c, 0, 77, 54
1, 1264060, Note_on_c, 0, 70, 73
1, 1264061, Note_on_c, 0, 58, 69
1, 1264076, Control_c, 0, 64, 32
1, 1264091, Control_c, 0, 64, 57
1, 1264106, Control_c, 0, 64, 60
1, 1264112, Note_off_c, 0, 70, 60
1, 1264122, Note_on_c, 0, 74, 77
1, 1264150, Control_c, 0, 64, 60
1, 1264165, Control_c, 0, 64, 61
1, 1264176, Note_off_c, 0, 74, 63
1, 1264180, Control_c, 0, 64, 61
1, 1264183, Note_off_c, 0, 58, 57
1, 1264188, Note_on_c, 0, 77, 61
1, 1264206, Note_off_c, 0, 77, 64
1, 1264209, Control_c, 0, 64, 60
1, 1264224, Control_c, 0, 64, 50
1, 1264239, Control_c, 0, 64, 0
1, 1264307, Note_on_c, 0, 46, 67
1, 1264314, Note_on_c, 0, 56, 76
1, 1264322, Control_c, 0, 64, 44
1, 1264337, Control_c, 0, 64, 39
1, 1264352, Control_c, 0, 64, 0
1, 1264358, Note_off_c, 0, 56, 56
1, 1264389, Note_on_c, 0, 65, 71
1, 1264443, Note_off_c, 0, 65, 64
1, 1264468, Note_on_c, 0, 61, 65
1, 1264486, Note_off_c, 0, 46, 57
1, 1264498, Note_off_c, 0, 61, 63
1, 1264533, Note_on_c, 0, 44, 56
1, 1264541, Note_on_c, 0, 58, 67
1, 1264605, Note_off_c, 0, 58, 62
1, 1264624, Note_on_c, 0, 66, 65
1, 1264693, Note_off_c, 0, 66, 61
1, 1264700, Note_on_c, 0, 63, 62
1, 1264715, Note_off_c, 0, 44, 55
1, 1264740, Note_off_c, 0, 63, 62
1, 1264742, Note_on_c, 0, 42, 48
1, 1264750, Control_c, 0, 64, 37
1, 1264765, Note_on_c, 0, 59, 61
1, 1264765, Control_c, 0, 64, 40
1, 1264780, Control_c, 0, 64, 0
1, 1264820, Note_off_c, 0, 59, 58
1, 1264838, Note_on_c, 0, 68, 67
1, 1264876, Note_off_c, 0, 68, 65
1, 1264900, Note_on_c, 0, 69, 69
1, 1264957, Control_c, 0, 67, 20
1, 1264972, Control_c, 0, 67, 0
1, 1264973, Note_off_c, 0, 69, 61
1, 1264974, Note_on_c, 0, 41, 53
1, 1264984, Note_on_c, 0, 65, 62
1, 1264987, Note_off_c, 0, 42, 57
1, 1265002, Control_c, 0, 64, 32
1, 1265007, Note_off_c, 0, 41, 63
1, 1265017, Control_c, 0, 64, 53
1, 1265039, Control_c, 0, 64, 57
1, 1265052, Note_off_c, 0, 65, 64
1, 1265057, Note_on_c, 0, 60, 65
1, 1265095, Note_off_c, 0, 60, 66
1, 1265100, Control_c, 0, 64, 56
1, 1265115, Control_c, 0, 64, 54
1, 1265118, Note_on_c, 0, 57, 57
1, 1265130, Control_c, 0, 64, 51
1, 1265144, Control_c, 0, 64, 44
1, 1265147, Note_off_c, 0, 57, 65
1, 1265159, Control_c, 0, 64, 0
1, 1265215, Note_on_c, 0, 34, 51
1, 1265262, Control_c, 0, 64, 36
1, 1265277, Control_c, 0, 64, 0
1, 1265285, Note_off_c, 0, 34, 62
1, 1265307, Note_on_c, 0, 38, 51
1, 1265351, Control_c, 0, 64, 32
1, 1265365, Note_on_c, 0, 41, 52
1, 1265366, Control_c, 0, 64, 45
1, 1265369, Note_off_c, 0, 38, 63
1, 1265380, Control_c, 0, 64, 47
1, 1265395, Note_off_c, 0, 41, 64
1, 1265395, Control_c, 0, 64, 48
1, 1265410, Control_c, 0, 64, 52
1, 1265425, Control_c, 0, 64, 57
1, 1265433, Note_on_c, 0, 45, 62
1, 1265440, Control_c, 0, 64, 59
1, 1265455, Control_c, 0, 64, 58
1, 1265470, Control_c, 0, 64, 54
1, 1265485, Control_c, 0, 64, 49
1, 1265497, Note_off_c, 0, 45, 60
1, 1265500, Control_c, 0, 64, 48
1, 1265503, Note_on_c, 0, 50, 58
1, 1265514, Control_c, 0, 64, 49
1, 1265529, Control_c, 0, 64, 49
1, 1265544, Control_c, 0, 64, 48
1, 1265554, Note_off_c, 0, 50, 59
1, 1265559, Control_c, 0, 64, 46
1, 1265574, Control_c, 0, 64, 44
1, 1265574, Note_on_c, 0, 53, 57
1, 1265588, Control_c, 0, 64, 41
1, 1265603, Control_c, 0, 64, 33
1, 1265618, Control_c, 0, 64, 0
1, 1265664, Note_on_c, 0, 58, 80
1, 1265684, Note_off_c, 0, 53, 34
1, 1265687, Note_off_c, 0, 58, 71
1, 1265692, Control_c, 0, 64, 47
1, 1265706, Control_c, 0, 64, 60
1, 1265721, Control_c, 0, 64, 63
1, 1265747, Note_on_c, 0, 45, 62
1, 1265751, Control_c, 0, 64, 62
1, 1265818, Control_c, 0, 64, 63
1, 1265820, Note_off_c, 0, 45, 62
1, 1265829, Note_on_c, 0, 50, 62
1, 1265848, Control_c, 0, 64, 63
1, 1265885, Note_off_c, 0, 50, 60
1, 1265894, Note_on_c, 0, 53, 58
1, 1265923, Control_c, 0, 64, 63
1, 1265932, Note_off_c, 0, 53, 65
1, 1265937, Control_c, 0, 64, 62
1, 1265952, Control_c, 0, 64, 58
1, 1265967, Control_c, 0, 64, 48
1, 1265982, Control_c, 0, 64, 0
1, 1265988, Note_on_c, 0, 34, 52
1, 1266069, Note_on_c, 0, 38, 57
1, 1266090, Note_off_c, 0, 34, 52
1, 1266108, Note_off_c, 0, 38, 65
1, 1266120, Note_on_c, 0, 41, 67
1, 1266186, Note_off_c, 0, 41, 61
1, 1266190, Control_c, 0, 64, 46
1, 1266200, Note_on_c, 0, 34, 78
1, 1266204, Control_c, 0, 64, 69
1, 1266219, Control_c, 0, 64, 106
1, 1266220, Note_on_c, 0, 62, 86
1, 1266234, Control_c, 0, 64, 127
1, 1266267, Note_off_c, 0, 34, 60
1, 1266272, Note_on_c, 0, 41, 82
1, 1266280, Note_on_c, 0, 65, 90
1, 1266289, Note_off_c, 0, 62, 61
1, 1266325, Note_off_c, 0, 41, 62
1, 1266337, Note_off_c, 0, 65, 67
1, 1266348, Note_on_c, 0, 44, 85
1, 1266351, Note_on_c, 0, 70, 88
1, 1266363, Note_off_c, 0, 70, 73
1, 1266383, Note_on_c, 0, 71, 50
1, 1266386, Note_on_c, 0, 48, 77
1, 1266403, Note_off_c, 0, 44, 65
1, 1266407, Note_off_c, 0, 71, 61
1, 1266421, Note_on_c, 0, 74, 83
1, 1266426, Note_on_c, 0, 72, 80
1, 1266429, Note_off_c, 0, 48, 65
1, 1266436, Note_on_c, 0, 50, 73
1, 1266445, Note_off_c, 0, 72, 72
1, 1266459, Note_off_c, 0, 50, 68
1, 1266476, Note_off_c, 0, 74, 61
1, 1266478, Note_on_c, 0, 52, 39
1, 1266482, Note_on_c, 0, 76, 79
1, 1266483, Note_on_c, 0, 77, 79
1, 1266510, Note_off_c, 0, 52, 56
1, 1266515, Note_off_c, 0, 76, 64
1, 1266517, Note_on_c, 0, 58, 102
1, 1266538, Note_off_c, 0, 77, 66
1, 1266543, Note_on_c, 0, 82, 104
1, 1266545, Note_on_c, 0, 57, 87
1, 1266552, Note_off_c, 0, 58, 67
1, 1266567, Note_off_c, 0, 57, 70
1, 1266588, Note_off_c, 0, 82, 70
1, 1266672, Control_c, 0, 64, 82
1, 1266687, Control_c, 0, 64, 30
1, 1266701, Control_c, 0, 64, 0
1, 1266817, Note_on_c, 0, 83, 107
1, 1266824, Note_on_c, 0, 30, 106
1, 1266825, Note_on_c, 0, 42, 111
1, 1266850, Control_c, 0, 64, 47
1, 1266865, Control_c, 0, 64, 100
1, 1266880, Control_c, 0, 64, 127
1, 1266889, Note_off_c, 0, 42, 65
1, 1266899, Note_off_c, 0, 30, 65
1, 1267013, Control_c, 0, 64, 105
1, 1267027, Control_c, 0, 64, 61
1, 1267042, Control_c, 0, 64, 0
1, 1267079, Note_off_c, 0, 83, 50
1, 1267116, Note_on_c, 0, 88, 113
1, 1267121, Note_on_c, 0, 28, 101
1, 1267121, Note_on_c, 0, 40, 110
1, 1267160, Control_c, 0, 64, 32
1, 1267175, Control_c, 0, 64, 73
1, 1267190, Control_c, 0, 64, 127
1, 1267201, Note_off_c, 0, 28, 65
1, 1267213, Note_on_c, 0, 80, 96
1, 1267217, Note_off_c, 0, 40, 69
1, 1267264, Note_off_c, 0, 80, 68
1, 1267297, Note_on_c, 0, 75, 85
1, 1267319, Note_off_c, 0, 88, 65
1, 1267336, Note_off_c, 0, 75, 64
1, 1267393, Note_on_c, 0, 88, 116
1, 1267410, Note_on_c, 0, 76, 102
1, 1267424, Note_off_c, 0, 76, 76
1, 1267483, Note_on_c, 0, 80, 89
1, 1267527, Note_off_c, 0, 80, 67
1, 1267561, Note_on_c, 0, 75, 86
1, 1267592, Note_off_c, 0, 88, 62
1, 1267638, Note_off_c, 0, 75, 60
1, 1267650, Note_on_c, 0, 82, 109
1, 1267654, Note_on_c, 0, 70, 110
1, 1267673, Note_off_c, 0, 70, 70
1, 1267729, Note_on_c, 0, 80, 97
1, 1267741, Note_off_c, 0, 82, 66
1, 1267783, Note_off_c, 0, 80, 67
1, 1267806, Note_on_c, 0, 75, 79
1, 1267849, Note_off_c, 0, 75, 63
1, 1267899, Note_on_c, 0, 71, 116
1, 1267899, Note_on_c, 0, 83, 111
1, 1267928, Note_off_c, 0, 71, 73
1, 1267977, Note_on_c, 0, 80, 94
1, 1267992, Note_off_c, 0, 83, 65
1, 1268015, Note_off_c, 0, 80, 67
1, 1268047, Note_on_c, 0, 75, 81
1, 1268097, Note_off_c, 0, 75, 62
1, 1268139, Control_c, 0, 64, 85
1, 1268154, Note_on_c, 0, 84, 103
1, 1268154, Control_c, 0, 64, 56
1, 1268161, Note_on_c, 0, 72, 116
1, 1268169, Control_c, 0, 64, 0
1, 1268227, Control_c, 0, 64, 53
1, 1268229, Note_on_c, 0, 79, 89
1, 1268242, Control_c, 0, 64, 68
1, 1268258, Control_c, 0, 64, 84
1, 1268273, Control_c, 0, 64, 127
1, 1268296, Note_off_c, 0, 84, 63
1, 1268297, Note_on_c, 0, 76, 76
1, 1268300, Note_off_c, 0, 72, 57
1, 1268318, Note_off_c, 0, 79, 64
1, 1268358, Note_off_c, 0, 76, 63
1, 1268394, Note_on_c, 0, 72, 111
1, 1268397, Note_on_c, 0, 84, 110
1, 1268439, Note_off_c, 0, 72, 68
1, 1268462, Note_on_c, 0, 79, 89
1, 1268529, Note_off_c, 0, 79, 63
1, 1268547, Note_on_c, 0, 76, 77
1, 1268570, Note_off_c, 0, 84, 66
1, 1268594, Note_off_c, 0, 76, 63
1, 1268641, Note_on_c, 0, 79, 106
1, 1268642, Control_c, 0, 64, 85
1, 1268655, Note_on_c, 0, 67, 96
1, 1268657, Control_c, 0, 64, 64
1, 1268672, Control_c, 0, 64, 46
1, 1268687, Control_c, 0, 64, 47
1, 1268702, Control_c, 0, 64, 56
1, 1268714, Note_on_c, 0, 76, 91
1, 1268717, Control_c, 0, 64, 66
1, 1268731, Control_c, 0, 64, 75
1, 1268746, Control_c, 0, 64, 89
1, 1268761, Control_c, 0, 64, 127
1, 1268795, Note_off_c, 0, 76, 61
1, 1268801, Note_on_c, 0, 72, 80
1, 1268841, Note_off_c, 0, 79, 34
1, 1268859, Note_off_c, 0, 67, 61
1, 1268876, Note_off_c, 0, 72, 61
1, 1268908, Note_on_c, 0, 81, 104
1, 1268910, Note_on_c, 0, 69, 98
1, 1268950, Note_off_c, 0, 69, 66
1, 1268954, Note_off_c, 0, 81, 67
1, 1269028, Note_on_c, 0, 81, 96
1, 1269038, Note_on_c, 0, 67, 96
1, 1269066, Note_off_c, 0, 81, 64
1, 1269074, Note_off_c, 0, 67, 70
1, 1269082, Control_c, 0, 64, 86
1, 1269097, Control_c, 0, 64, 61
1, 1269111, Control_c, 0, 64, 0
1, 1269149, Note_on_c, 0, 78, 102
1, 1269160, Note_on_c, 0, 66, 100
1, 1269211, Note_on_c, 0, 73, 86
1, 1269212, Note_off_c, 0, 78, 65
1, 1269215, Control_c, 0, 64, 36
1, 1269229, Control_c, 0, 64, 68
1, 1269244, Control_c, 0, 64, 89
1, 1269250, Note_off_c, 0, 73, 65
1, 1269259, Control_c, 0, 64, 127
1, 1269267, Note_on_c, 0, 70, 82
1, 1269285, Note_off_c, 0, 70, 72
1, 1269375, Note_off_c, 0, 66, 59
1, 1269397, Note_on_c, 0, 76, 98
1, 1269407, Note_on_c, 0, 77, 74
1, 1269413, Note_on_c, 0, 67, 92
1, 1269433, Note_off_c, 0, 77, 53
1, 1269437, Note_off_c, 0, 76, 67
1, 1269461, Note_off_c, 0, 67, 64
1, 1269515, Note_on_c, 0, 78, 100
1, 1269532, Note_on_c, 0, 66, 86
1, 1269547, Note_on_c, 0, 77, 76
1, 1269555, Note_off_c, 0, 78, 68
1, 1269561, Note_off_c, 0, 77, 69
1, 1269573, Note_off_c, 0, 66, 64
1, 1269607, Control_c, 0, 64, 100
1, 1269622, Control_c, 0, 64, 65
1, 1269637, Control_c, 0, 64, 0
1, 1269647, Note_on_c, 0, 64, 100
1, 1269651, Note_on_c, 0, 86, 113
1, 1269700, Note_off_c, 0, 86, 67
1, 1269711, Control_c, 0, 64, 53
1, 1269726, Control_c, 0, 64, 67
1, 1269741, Control_c, 0, 64, 74
1, 1269755, Control_c, 0, 64, 82
1, 1269765, Note_on_c, 0, 84, 115
1, 1269770, Control_c, 0, 64, 89
1, 1269785, Control_c, 0, 64, 96
1, 1269800, Control_c, 0, 64, 104
1, 1269812, Note_off_c, 0, 84, 67
1, 1269815, Control_c, 0, 64, 119
1, 1269829, Control_c, 0, 64, 127
1, 1269843, Note_off_c, 0, 64, 54
1, 1269881, Note_on_c, 0, 63, 89
1, 1269885, Note_on_c, 0, 79, 107
1, 1269927, Note_off_c, 0, 79, 69
1, 1269931, Note_off_c, 0, 63, 63
1, 1269995, Note_on_c, 0, 81, 104
1, 1270005, Note_on_c, 0, 62, 80
1, 1270008, Note_on_c, 0, 64, 77
1, 1270027, Note_off_c, 0, 64, 73
1, 1270028, Note_off_c, 0, 62, 70
1, 1270034, Note_off_c, 0, 81, 67
1, 1270082, Control_c, 0, 64, 78
1, 1270096, Control_c, 0, 64, 46
1, 1270111, Control_c, 0, 64, 0
1, 1270123, Note_on_c, 0, 78, 121
1, 1270125, Note_on_c, 0, 74, 103
1, 1270171, Control_c, 0, 64, 34
1, 1270178, Note_off_c, 0, 74, 68
1, 1270186, Control_c, 0, 64, 67
1, 1270200, Control_c, 0, 64, 88
1, 1270215, Control_c, 0, 64, 127
1, 1270236, Note_on_c, 0, 72, 101
1, 1270311, Note_off_c, 0, 72, 63
1, 1270340, Note_off_c, 0, 78, 57
1, 1270358, Note_on_c, 0, 67, 87
1, 1270367, Note_on_c, 0, 83, 100
1, 1270387, Note_off_c, 0, 67, 68
1, 1270428, Note_off_c, 0, 83, 65
1, 1270472, Note_on_c, 0, 82, 108
1, 1270503, Note_off_c, 0, 82, 69
1, 1270564, Control_c, 0, 64, 85
1, 1270578, Control_c, 0, 64, 61
1, 1270582, Note_on_c, 0, 63, 85
1, 1270593, Control_c, 0, 64, 31
1, 1270597, Note_on_c, 0, 71, 91
1, 1270608, Control_c, 0, 64, 40
1, 1270622, Control_c, 0, 64, 56
1, 1270637, Control_c, 0, 64, 68
1, 1270650, Note_on_c, 0, 59, 74
1, 1270654, Control_c, 0, 64, 80
1, 1270655, Note_off_c, 0, 63, 64
1, 1270668, Control_c, 0, 64, 100
1, 1270671, Note_off_c, 0, 71, 61
1, 1270674, Note_on_c, 0, 74, 87
1, 1270683, Control_c, 0, 64, 127
1, 1270692, Note_on_c, 0, 51, 69
1, 1270718, Note_off_c, 0, 59, 63
1, 1270719, Note_off_c, 0, 74, 64
1, 1270725, Note_on_c, 0, 83, 88
1, 1270734, Note_on_c, 0, 81, 71
1, 1270747, Note_off_c, 0, 83, 69
1, 1270751, Note_off_c, 0, 51, 65
1, 1270751, Note_off_c, 0, 81, 67
1, 1270752, Note_on_c, 0, 47, 93
1, 1270790, Note_off_c, 0, 47, 63
1, 1270818, Note_on_c, 0, 87, 99
1, 1270873, Note_off_c, 0, 87, 66
1, 1270908, Note_on_c, 0, 91, 75
1, 1270916, Note_on_c, 0, 90, 45
1, 1270934, Control_c, 0, 64, 104
1, 1270947, Note_on_c, 0, 95, 82
1, 1270948, Note_on_c, 0, 96, 79
1, 1270949, Control_c, 0, 64, 65
1, 1270954, Note_off_c, 0, 91, 63
1, 1270955, Note_off_c, 0, 90, 48
1, 1270964, Control_c, 0, 64, 0
1, 1270971, Note_off_c, 0, 96, 69
1, 1271044, Note_off_c, 0, 95, 67
1, 1271047, Note_on_c, 0, 100, 106
1, 1271053, Note_on_c, 0, 88, 103
1, 1271056, Note_on_c, 0, 37, 97
1, 1271056, Note_on_c, 0, 49, 107
1, 1271090, Control_c, 0, 64, 44
1, 1271105, Control_c, 0, 64, 89
1, 1271120, Control_c, 0, 64, 127
1, 1271125, Note_off_c, 0, 88, 66
1, 1271127, Note_off_c, 0, 37, 64
1, 1271130, Note_on_c, 0, 92, 93
1, 1271130, Note_off_c, 0, 49, 59
1, 1271161, Note_off_c, 0, 100, 70
1, 1271194, Note_off_c, 0, 92, 66
1, 1271197, Note_on_c, 0, 88, 92
1, 1271227, Note_off_c, 0, 88, 66
1, 1271315, Note_on_c, 0, 76, 99
1, 1271315, Note_on_c, 0, 88, 89
1, 1271318, Note_on_c, 0, 86, 92
1, 1271348, Note_on_c, 0, 74, 36
1, 1271348, Note_off_c, 0, 74, 127
1, 1271360, Note_off_c, 0, 76, 65
1, 1271396, Note_on_c, 0, 80, 58
1, 1271408, Note_off_c, 0, 88, 65
1, 1271420, Note_on_c, 0, 79, 56
1, 1271421, Note_off_c, 0, 80, 39
1, 1271441, Note_off_c, 0, 79, 64
1, 1271470, Note_on_c, 0, 75, 73
1, 1271521, Note_off_c, 0, 86, 61
1, 1271551, Note_on_c, 0, 70, 96
1, 1271551, Note_on_c, 0, 82, 101
1, 1271574, Note_off_c, 0, 75, 63
1, 1271578, Note_off_c, 0, 70, 70
1, 1271625, Note_on_c, 0, 80, 91
1, 1271643, Note_off_c, 0, 82, 65
1, 1271670, Note_off_c, 0, 80, 69
1, 1271692, Note_on_c, 0, 75, 79
1, 1271729, Control_c, 0, 64, 88
1, 1271738, Note_off_c, 0, 75, 64
1, 1271743, Control_c, 0, 64, 63
1, 1271758, Control_c, 0, 64, 0
1, 1271808, Note_on_c, 0, 51, 100
1, 1271809, Note_on_c, 0, 83, 112
1, 1271810, Note_on_c, 0, 39, 101
1, 1271884, Control_c, 0, 64, 43
1, 1271888, Note_on_c, 0, 76, 85
1, 1271899, Control_c, 0, 64, 68
1, 1271914, Control_c, 0, 64, 87
1, 1271929, Control_c, 0, 64, 127
1, 1271950, Note_off_c, 0, 76, 65
1, 1271966, Note_on_c, 0, 71, 77
1, 1271988, Control_c, 0, 64, 81
1, 1272002, Control_c, 0, 64, 56
1, 1272005, Note_off_c, 0, 51, 58
1, 1272017, Control_c, 0, 64, 0
1, 1272020, Note_off_c, 0, 83, 61
1, 1272024, Note_off_c, 0, 39, 57
1, 1272027, Note_off_c, 0, 71, 59
1, 1272063, Note_on_c, 0, 84, 109
1, 1272068, Note_on_c, 0, 52, 103
1, 1272069, Note_on_c, 0, 40, 98
1, 1272150, Control_c, 0, 64, 53
1, 1272154, Note_on_c, 0, 79, 75
1, 1272159, Note_off_c, 0, 40, 65
1, 1272165, Control_c, 0, 64, 79
1, 1272180, Control_c, 0, 64, 100
1, 1272188, Note_off_c, 0, 52, 66
1, 1272195, Note_off_c, 0, 84, 64
1, 1272195, Control_c, 0, 64, 127
1, 1272218, Note_on_c, 0, 71, 75
1, 1272269, Note_off_c, 0, 79, 63
1, 1272299, Note_off_c, 0, 71, 62
1, 1272312, Note_on_c, 0, 84, 102
1, 1272314, Note_on_c, 0, 72, 88
1, 1272367, Note_off_c, 0, 72, 63
1, 1272383, Note_on_c, 0, 79, 85
1, 1272444, Note_off_c, 0, 79, 65
1, 1272475, Note_on_c, 0, 71, 72
1, 1272510, Note_off_c, 0, 84, 58
1, 1272554, Note_on_c, 0, 79, 103
1, 1272557, Note_off_c, 0, 71, 61
1, 1272567, Note_on_c, 0, 67, 89
1, 1272630, Note_on_c, 0, 76, 88
1, 1272659, Note_off_c, 0, 79, 63
1, 1272695, Note_off_c, 0, 76, 64
1, 1272698, Note_on_c, 0, 71, 81
1, 1272746, Note_off_c, 0, 71, 61
1, 1272796, Note_off_c, 0, 67, 52
1, 1272797, Note_on_c, 0, 72, 72
1, 1272810, Note_on_c, 0, 84, 105
1, 1272855, Note_off_c, 0, 84, 67
1, 1272883, Note_off_c, 0, 72, 62
1, 1272915, Note_on_c, 0, 76, 83
1, 1272921, Note_on_c, 0, 88, 101
1, 1272943, Note_off_c, 0, 76, 63
1, 1272948, Note_off_c, 0, 88, 69
1, 1273003, Control_c, 0, 64, 81
1, 1273017, Control_c, 0, 64, 55
1, 1273032, Control_c, 0, 64, 0
1, 1273052, Note_on_c, 0, 81, 99
1, 1273077, Note_on_c, 0, 69, 77
1, 1273113, Note_on_c, 0, 76, 77
1, 1273166, Control_c, 0, 64, 34
1, 1273178, Note_on_c, 0, 72, 76
1, 1273181, Control_c, 0, 64, 63
1, 1273187, Note_off_c, 0, 76, 64
1, 1273196, Control_c, 0, 64, 70
1, 1273211, Control_c, 0, 64, 72
1, 1273212, Note_on_c, 0, 64, 38
1, 1273217, Note_off_c, 0, 72, 63
1, 1273217, Note_on_c, 0, 65, 54
1, 1273219, Note_off_c, 0, 81, 68
1, 1273226, Control_c, 0, 64, 73
1, 1273240, Control_c, 0, 64, 75
1, 1273241, Note_off_c, 0, 65, 62
1, 1273255, Control_c, 0, 64, 77
1, 1273277, Control_c, 0, 64, 78
1, 1273282, Note_off_c, 0, 69, 51
1, 1273292, Control_c, 0, 64, 80
1, 1273300, Note_on_c, 0, 83, 97
1, 1273307, Control_c, 0, 64, 81
1, 1273320, Note_on_c, 0, 62, 56
1, 1273321, Control_c, 0, 64, 82
1, 1273336, Control_c, 0, 64, 83
1, 1273351, Control_c, 0, 64, 83
1, 1273359, Note_off_c, 0, 64, 36
1, 1273360, Note_off_c, 0, 83, 63
1, 1273366, Control_c, 0, 64, 84
1, 1273381, Control_c, 0, 64, 85
1, 1273396, Control_c, 0, 64, 87
1, 1273411, Control_c, 0, 64, 91
1, 1273411, Note_on_c, 0, 84, 100
1, 1273426, Control_c, 0, 64, 95
1, 1273430, Note_on_c, 0, 60, 69
1, 1273435, Note_off_c, 0, 62, 57
1, 1273440, Control_c, 0, 64, 100
1, 1273449, Note_off_c, 0, 84, 67
1, 1273455, Control_c, 0, 64, 105
1, 1273458, Note_off_c, 0, 60, 68
1, 1273470, Control_c, 0, 64, 108
1, 1273485, Control_c, 0, 64, 112
1, 1273500, Control_c, 0, 64, 119
1, 1273515, Control_c, 0, 64, 127
1, 1273527, Note_on_c, 0, 86, 99
1, 1273542, Note_on_c, 0, 57, 89
1, 1273581, Note_off_c, 0, 86, 66
1, 1273635, Note_on_c, 0, 55, 89
1, 1273636, Note_on_c, 0, 88, 104
1, 1273650, Note_off_c, 0, 57, 62
1, 1273689, Note_off_c, 0, 88, 67
1, 1273737, Note_off_c, 0, 55, 59
1, 1273742, Note_on_c, 0, 89, 105
1, 1273747, Note_on_c, 0, 53, 79
1, 1273792, Note_off_c, 0, 89, 67
1, 1273808, Note_off_c, 0, 53, 65
1, 1273828, Note_on_c, 0, 52, 76
1, 1273848, Note_on_c, 0, 91, 110
1, 1273863, Note_off_c, 0, 52, 63
1, 1273874, Note_off_c, 0, 91, 69
1, 1273959, Control_c, 0, 64, 101
1, 1273974, Control_c, 0, 64, 72
1, 1273989, Control_c, 0, 64, 41
1, 1274001, Note_on_c, 0, 91, 107
1, 1274002, Note_on_c, 0, 51, 87
1, 1274004, Control_c, 0, 64, 0
1, 1274006, Note_on_c, 0, 92, 91
1, 1274099, Note_on_c, 0, 56, 81
1, 1274130, Control_c, 0, 64, 42
1, 1274144, Control_c, 0, 64, 67
1, 1274158, Note_on_c, 0, 60, 80
1, 1274159, Control_c, 0, 64, 75
1, 1274167, Note_off_c, 0, 91, 38
1, 1274170, Note_off_c, 0, 51, 55
1, 1274174, Control_c, 0, 64, 83
1, 1274186, Note_off_c, 0, 56, 62
1, 1274189, Control_c, 0, 64, 88
1, 1274204, Control_c, 0, 64, 93
1, 1274208, Note_off_c, 0, 92, 63
1, 1274219, Note_off_c, 0, 60, 63
1, 1274219, Control_c, 0, 64, 97
1, 1274234, Control_c, 0, 64, 101
1, 1274237, Note_on_c, 0, 67, 78
1, 1274249, Control_c, 0, 64, 105
1, 1274254, Note_on_c, 0, 65, 50
1, 1274257, Note_on_c, 0, 91, 102
1, 1274278, Control_c, 0, 64, 107
1, 1274279, Note_off_c, 0, 65, 58
1, 1274323, Control_c, 0, 64, 110
1, 1274327, Note_on_c, 0, 68, 91
1, 1274337, Note_off_c, 0, 67, 57
1, 1274338, Control_c, 0, 64, 113
1, 1274353, Control_c, 0, 64, 118
1, 1274368, Control_c, 0, 64, 127
1, 1274370, Note_on_c, 0, 94, 112
1, 1274374, Note_off_c, 0, 91, 57
1, 1274407, Note_on_c, 0, 72, 89
1, 1274409, Note_off_c, 0, 68, 65
1, 1274448, Note_off_c, 0, 72, 68
1, 1274498, Note_on_c, 0, 90, 106
1, 1274502, Note_on_c, 0, 80, 100
1, 1274516, Note_off_c, 0, 94, 66
1, 1274531, Control_c, 0, 64, 90
1, 1274545, Control_c, 0, 64, 64
1, 1274560, Control_c, 0, 64, 0
1, 1274739, Note_on_c, 0, 44, 90
1, 1274744, Note_on_c, 0, 89, 96
1, 1274776, Control_c, 0, 64, 30
1, 1274788, Note_off_c, 0, 90, 61
1, 1274791, Control_c, 0, 64, 59
1, 1274806, Control_c, 0, 64, 68
1, 1274820, Control_c, 0, 64, 72
1, 1274835, Control_c, 0, 64, 76
1, 1274850, Control_c, 0, 64, 80
1, 1274864, Note_on_c, 0, 92, 96
1, 1274865, Control_c, 0, 64, 83
1, 1274868, Note_off_c, 0, 89, 65
1, 1274880, Control_c, 0, 64, 84
1, 1274894, Control_c, 0, 64, 84
1, 1274924, Control_c, 0, 64, 83
1, 1274939, Control_c, 0, 64, 79
1, 1274954, Control_c, 0, 64, 67
1, 1274965, Note_off_c, 0, 80, 62
1, 1274968, Control_c, 0, 64, 43
1, 1274983, Control_c, 0, 64, 0
1, 1274991, Note_on_c, 0, 49, 95
1, 1274995, Note_on_c, 0, 88, 99
1, 1275014, Note_off_c, 0, 92, 61
1, 1275022, Note_off_c, 0, 44, 59
1, 1275072, Control_c, 0, 64, 60
1, 1275081, Note_off_c, 0, 49, 66
1, 1275087, Control_c, 0, 64, 75
1, 1275101, Control_c, 0, 64, 89
1, 1275116, Control_c, 0, 64, 103
1, 1275131, Control_c, 0, 64, 115
1, 1275146, Control_c, 0, 64, 127
1, 1275205, Control_c, 0, 64, 103
1, 1275220, Control_c, 0, 64, 72
1, 1275231, Note_on_c, 0, 87, 92
1, 1275232, Note_on_c, 0, 80, 97
1, 1275235, Control_c, 0, 64, 42
1, 1275239, Note_off_c, 0, 88, 60
1, 1275242, Note_on_c, 0, 51, 96
1, 1275250, Control_c, 0, 64, 0
1, 1275293, Note_off_c, 0, 87, 66
1, 1275294, Control_c, 0, 64, 43
1, 1275299, Note_off_c, 0, 51, 64
1, 1275309, Control_c, 0, 64, 62
1, 1275324, Control_c, 0, 64, 72
1, 1275338, Control_c, 0, 64, 86
1, 1275340, Note_on_c, 0, 90, 92
1, 1275353, Control_c, 0, 64, 108
1, 1275361, Note_off_c, 0, 80, 63
1, 1275368, Control_c, 0, 64, 127
1, 1275423, Note_off_c, 0, 90, 62
1, 1275443, Control_c, 0, 64, 118
1, 1275458, Control_c, 0, 64, 79
1, 1275473, Control_c, 0, 64, 59
1, 1275474, Note_on_c, 0, 86, 96
1, 1275475, Note_on_c, 0, 80, 94
1, 1275478, Note_on_c, 0, 52, 91
1, 1275488, Control_c, 0, 64, 0
1, 1275503, Control_c, 0, 64, 40
1, 1275524, Control_c, 0, 64, 56
1, 1275531, Note_off_c, 0, 80, 66
1, 1275539, Control_c, 0, 64, 67
1, 1275554, Control_c, 0, 64, 79
1, 1275557, Note_off_c, 0, 86, 67
1, 1275569, Control_c, 0, 64, 100
1, 1275584, Control_c, 0, 64, 127
1, 1275712, Note_off_c, 0, 52, 59
1, 1275726, Note_on_c, 0, 85, 104
1, 1275727, Note_on_c, 0, 53, 81
1, 1275743, Note_on_c, 0, 86, 94
1, 1275763, Note_off_c, 0, 85, 61
1, 1275780, Note_off_c, 0, 86, 64
1, 1275781, Note_off_c, 0, 53, 65
1, 1275819, Note_on_c, 0, 52, 84
1, 1275830, Note_on_c, 0, 88, 104
1, 1275855, Note_off_c, 0, 52, 60
1, 1275865, Note_off_c, 0, 88, 70
1, 1275939, Control_c, 0, 64, 92
1, 1275954, Control_c, 0, 64, 62
1, 1275969, Control_c, 0, 64, 0
1, 1275974, Note_on_c, 0, 92, 110
1, 1275991, Note_on_c, 0, 51, 65
1, 1275995, Note_on_c, 0, 49, 66
1, 1276023, Note_on_c, 0, 50, 46
1, 1276023, Note_on_c, 0, 91, 74
1, 1276052, Note_off_c, 0, 50, 56
1, 1276058, Note_off_c, 0, 49, 60
1, 1276067, Note_on_c, 0, 56, 86
1, 1276088, Control_c, 0, 64, 32
1, 1276103, Control_c, 0, 64, 63
1, 1276117, Control_c, 0, 64, 74
1, 1276131, Note_on_c, 0, 60, 79
1, 1276132, Control_c, 0, 64, 83
1, 1276142, Note_off_c, 0, 91, 59
1, 1276147, Control_c, 0, 64, 93
1, 1276161, Control_c, 0, 64, 105
1, 1276168, Note_off_c, 0, 92, 59
1, 1276168, Note_off_c, 0, 56, 59
1, 1276176, Control_c, 0, 64, 127
1, 1276195, Note_on_c, 0, 67, 89
1, 1276195, Note_off_c, 0, 60, 63
1, 1276215, Note_off_c, 0, 51, 21
1, 1276216, Note_on_c, 0, 91, 103
1, 1276309, Note_off_c, 0, 67, 64
1, 1276315, Note_on_c, 0, 68, 90
1, 1276320, Note_off_c, 0, 91, 63
1, 1276333, Note_on_c, 0, 94, 104
1, 1276398, Note_off_c, 0, 68, 64
1, 1276398, Note_on_c, 0, 72, 93
1, 1276442, Note_off_c, 0, 72, 69
1, 1276460, Note_on_c, 0, 90, 108
1, 1276462, Note_on_c, 0, 80, 99
1, 1276470, Note_off_c, 0, 94, 41
1, 1276554, Control_c, 0, 64, 94
1, 1276569, Control_c, 0, 64, 74
1, 1276584, Control_c, 0, 64, 57
1, 1276598, Control_c, 0, 64, 0
1, 1276705, Note_on_c, 0, 44, 91
1, 1276705, Note_on_c, 0, 89, 92
1, 1276737, Note_off_c, 0, 90, 60
1, 1276747, Control_c, 0, 64, 37
1, 1276761, Control_c, 0, 64, 63
1, 1276776, Control_c, 0, 64, 70
1, 1276791, Control_c, 0, 64, 76
1, 1276806, Control_c, 0, 64, 81
1, 1276821, Control_c, 0, 64, 85
1, 1276822, Note_on_c, 0, 92, 96
1, 1276823, Note_off_c, 0, 89, 61
1, 1276836, Control_c, 0, 64, 87
1, 1276865, Control_c, 0, 64, 86
1, 1276880, Control_c, 0, 64, 82
1, 1276895, Control_c, 0, 64, 69
1, 1276909, Control_c, 0, 64, 54
1, 1276924, Control_c, 0, 64, 0
1, 1276928, Note_off_c, 0, 80, 59
1, 1276938, Note_off_c, 0, 44, 57
1, 1276948, Note_on_c, 0, 49, 93
1, 1276951, Note_on_c, 0, 88, 100
1, 1276968, Note_off_c, 0, 92, 64
1, 1277036, Control_c, 0, 64, 54
1, 1277051, Control_c, 0, 64, 69
1, 1277066, Control_c, 0, 64, 76
1, 1277081, Control_c, 0, 64, 86
1, 1277095, Control_c, 0, 64, 94
1, 1277110, Control_c, 0, 64, 101
1, 1277125, Control_c, 0, 64, 103
1, 1277155, Control_c, 0, 64, 97
1, 1277170, Control_c, 0, 64, 76
1, 1277185, Control_c, 0, 64, 55
1, 1277200, Control_c, 0, 64, 0
1, 1277200, Note_on_c, 0, 87, 87
1, 1277202, Note_on_c, 0, 80, 95
1, 1277206, Note_on_c, 0, 51, 84
1, 1277224, Note_off_c, 0, 49, 59
1, 1277226, Note_off_c, 0, 88, 60
1, 1277253, Note_off_c, 0, 51, 66
1, 1277259, Control_c, 0, 64, 54
1, 1277271, Note_off_c, 0, 87, 65
1, 1277274, Control_c, 0, 64, 65
1, 1277288, Control_c, 0, 64, 75
1, 1277303, Control_c, 0, 64, 85
1, 1277310, Note_on_c, 0, 90, 89
1, 1277318, Control_c, 0, 64, 96
1, 1277333, Control_c, 0, 64, 105
1, 1277341, Note_off_c, 0, 80, 60
1, 1277348, Control_c, 0, 64, 112
1, 1277392, Control_c, 0, 64, 107
1, 1277407, Control_c, 0, 64, 83
1, 1277414, Note_off_c, 0, 90, 62
1, 1277421, Control_c, 0, 64, 60
1, 1277436, Control_c, 0, 64, 0
1, 1277441, Note_on_c, 0, 52, 82
1, 1277441, Note_on_c, 0, 80, 95
1, 1277443, Note_on_c, 0, 86, 89
1, 1277495, Control_c, 0, 64, 59
1, 1277498, Note_off_c, 0, 80, 65
1, 1277510, Control_c, 0, 64, 71
1, 1277525, Control_c, 0, 64, 85
1, 1277539, Control_c, 0, 64, 127
1, 1277650, Note_off_c, 0, 52, 52
1, 1277683, Note_on_c, 0, 85, 90
1, 1277691, Note_on_c, 0, 53, 70
1, 1277717, Note_off_c, 0, 86, 61
1, 1277727, Note_off_c, 0, 53, 64
1, 1277762, Note_off_c, 0, 85, 65
1, 1277808, Note_on_c, 0, 88, 90
1, 1277829, Note_off_c, 0, 88, 68
1, 1277874, Control_c, 0, 64, 102
1, 1277885, Poly_aftertouch_c, 0, 52, 0
1, 1277889, Control_c, 0, 64, 64
1, 1277904, Control_c, 0, 64, 0
1, 1277933, Note_on_c, 0, 51, 40
1, 1277951, Note_on_c, 0, 80, 87
1, 1277978, Control_c, 0, 64, 31
1, 1277984, Note_off_c, 0, 80, 64
1, 1277993, Control_c, 0, 64, 63
1, 1278002, Note_on_c, 0, 56, 54
1, 1278007, Control_c, 0, 64, 68
1, 1278022, Control_c, 0, 64, 67
1, 1278037, Control_c, 0, 64, 63
1, 1278041, Note_on_c, 0, 60, 73
1, 1278046, Note_off_c, 0, 51, 59
1, 1278050, Note_on_c, 0, 79, 83
1, 1278052, Control_c, 0, 64, 61
1, 1278057, Note_off_c, 0, 56, 57
1, 1278076, Note_off_c, 0, 79, 68
1, 1278080, Note_off_c, 0, 60, 62
1, 1278082, Control_c, 0, 64, 62
1, 1278097, Control_c, 0, 64, 61
1, 1278111, Control_c, 0, 64, 58
1, 1278126, Control_c, 0, 64, 48
1, 1278141, Control_c, 0, 64, 0
1, 1278177, Note_on_c, 0, 82, 81
1, 1278180, Note_on_c, 0, 74, 75
1, 1278219, Note_off_c, 0, 82, 60
1, 1278230, Control_c, 0, 64, 41
1, 1278244, Control_c, 0, 64, 55
1, 1278259, Control_c, 0, 64, 57
1, 1278274, Control_c, 0, 64, 51
1, 1278289, Control_c, 0, 64, 31
1, 1278300, Note_on_c, 0, 78, 79
1, 1278304, Control_c, 0, 64, 0
1, 1278331, Note_off_c, 0, 78, 63
1, 1278362, Note_off_c, 0, 74, 55
1, 1278410, Note_on_c, 0, 73, 77
1, 1278419, Note_on_c, 0, 82, 82
1, 1278422, Control_c, 0, 64, 36
1, 1278437, Control_c, 0, 64, 59
1, 1278452, Control_c, 0, 64, 62
1, 1278478, Note_off_c, 0, 82, 60
1, 1278539, Note_on_c, 0, 77, 80
1, 1278562, Control_c, 0, 64, 61
1, 1278572, Note_off_c, 0, 77, 64
1, 1278577, Control_c, 0, 64, 57
1, 1278592, Control_c, 0, 64, 39
1, 1278607, Control_c, 0, 64, 0
1, 1278645, Note_off_c, 0, 73, 62
1, 1278654, Note_on_c, 0, 72, 85
1, 1278657, Note_on_c, 0, 82, 90
1, 1278682, Control_c, 0, 64, 42
1, 1278697, Control_c, 0, 64, 59
1, 1278711, Note_off_c, 0, 82, 64
1, 1278712, Control_c, 0, 64, 64
1, 1278727, Control_c, 0, 64, 66
1, 1278769, Note_on_c, 0, 76, 87
1, 1278785, Control_c, 0, 64, 65
1, 1278800, Control_c, 0, 64, 60
1, 1278814, Note_off_c, 0, 76, 66
1, 1278815, Control_c, 0, 64, 44
1, 1278830, Control_c, 0, 64, 0
1, 1278838, Note_off_c, 0, 72, 62
1, 1278875, Note_on_c, 0, 71, 92
1, 1278888, Note_on_c, 0, 82, 102
1, 1278905, Control_c, 0, 64, 42
1, 1278920, Control_c, 0, 64, 63
1, 1278926, Note_off_c, 0, 82, 65
1, 1278932, Note_off_c, 0, 71, 66
1, 1278934, Control_c, 0, 64, 69
1, 1278949, Control_c, 0, 64, 70
1, 1278978, Control_c, 0, 64, 69
1, 1278993, Control_c, 0, 64, 65
1, 1278994, Note_on_c, 0, 75, 92
1, 1278997, Note_on_c, 0, 72, 94
1, 1279008, Control_c, 0, 64, 56
1, 1279023, Control_c, 0, 64, 0
1, 1279049, Note_off_c, 0, 75, 63
1, 1279052, Note_off_c, 0, 72, 63
1, 1279114, Note_on_c, 0, 82, 100
1, 1279115, Note_on_c, 0, 73, 99
1, 1279156, Control_c, 0, 64, 54
1, 1279171, Control_c, 0, 64, 72
1, 1279184, Note_off_c, 0, 82, 60
1, 1279185, Control_c, 0, 64, 81
1, 1279200, Control_c, 0, 64, 87
1, 1279215, Control_c, 0, 64, 88
1, 1279227, Note_on_c, 0, 76, 103
1, 1279245, Control_c, 0, 64, 87
1, 1279267, Control_c, 0, 64, 78
1, 1279282, Control_c, 0, 64, 58
1, 1279286, Note_off_c, 0, 76, 63
1, 1279297, Control_c, 0, 64, 0
1, 1279329, Note_off_c, 0, 73, 62
1, 1279349, Note_on_c, 0, 82, 108
1, 1279351, Note_on_c, 0, 74, 100
1, 1279371, Control_c, 0, 64, 32
1, 1279385, Control_c, 0, 64, 64
1, 1279391, Note_off_c, 0, 74, 70
1, 1279400, Control_c, 0, 64, 76
1, 1279401, Note_off_c, 0, 82, 66
1, 1279415, Control_c, 0, 64, 98
1, 1279430, Control_c, 0, 64, 127
1, 1279450, Note_on_c, 0, 77, 96
1, 1279483, Note_off_c, 0, 77, 68
1, 1279505, Control_c, 0, 64, 75
1, 1279520, Control_c, 0, 64, 41
1, 1279534, Control_c, 0, 64, 0
1, 1279593, Note_on_c, 0, 75, 101
1, 1279594, Control_c, 0, 64, 46
1, 1279608, Note_on_c, 0, 84, 112
1, 1279608, Note_on_c, 0, 83, 101
1, 1279608, Control_c, 0, 64, 67
1, 1279623, Control_c, 0, 64, 76
1, 1279627, Note_off_c, 0, 75, 70
1, 1279638, Control_c, 0, 64, 91
1, 1279653, Control_c, 0, 64, 127
1, 1279715, Poly_aftertouch_c, 0, 73, 0
1, 1279831, Control_c, 0, 64, 116
1, 1279846, Control_c, 0, 64, 70
1, 1279850, Note_off_c, 0, 84, 28
1, 1279861, Control_c, 0, 64, 0
1, 1279863, Note_off_c, 0, 83, 58
1, 1279885, Note_on_c, 0, 40, 99
1, 1279888, Note_on_c, 0, 28, 98
1, 1279888, Note_on_c, 0, 88, 101
1, 1279934, Control_c, 0, 64, 44
1, 1279949, Control_c, 0, 64, 68
1, 1279964, Control_c, 0, 64, 88
1, 1279971, Note_off_c, 0, 28, 63
1, 1279979, Control_c, 0, 64, 127
1, 1279990, Note_on_c, 0, 80, 91
1, 1279990, Note_off_c, 0, 40, 68
1, 1280049, Note_off_c, 0, 80, 66
1, 1280078, Note_on_c, 0, 75, 73
1, 1280090, Note_off_c, 0, 88, 67
1, 1280103, Note_off_c, 0, 75, 67
1, 1280149, Note_on_c, 0, 76, 115
1, 1280159, Note_on_c, 0, 88, 114
1, 1280185, Note_off_c, 0, 76, 71
1, 1280245, Note_on_c, 0, 80, 90
1, 1280291, Note_off_c, 0, 80, 66
1, 1280329, Note_on_c, 0, 75, 79
1, 1280401, Note_off_c, 0, 75, 59
1, 1280413, Note_on_c, 0, 82, 102
1, 1280421, Note_on_c, 0, 70, 109
1, 1280431, Note_off_c, 0, 88, 60
1, 1280445, Note_off_c, 0, 70, 71
1, 1280497, Note_on_c, 0, 80, 90
1, 1280520, Note_off_c, 0, 82, 62
1, 1280565, Note_on_c, 0, 75, 77
1, 1280593, Note_off_c, 0, 80, 59
1, 1280630, Note_off_c, 0, 75, 62
1, 1280654, Control_c, 0, 64, 87
1, 1280660, Note_on_c, 0, 83, 107
1, 1280661, Note_on_c, 0, 71, 113
1, 1280669, Control_c, 0, 64, 65
1, 1280683, Control_c, 0, 64, 34
1, 1280698, Control_c, 0, 64, 0
1, 1280728, Control_c, 0, 64, 41
1, 1280742, Note_on_c, 0, 80, 84
1, 1280743, Control_c, 0, 64, 60
1, 1280765, Control_c, 0, 64, 70
1, 1280780, Control_c, 0, 64, 83
1, 1280795, Control_c, 0, 64, 102
1, 1280809, Control_c, 0, 64, 127
1, 1280817, Note_on_c, 0, 75, 75
1, 1280818, Note_off_c, 0, 80, 62
1, 1280846, Note_off_c, 0, 71, 59
1, 1280855, Note_off_c, 0, 83, 62
1, 1280869, Note_off_c, 0, 75, 64
1, 1280898, Control_c, 0, 64, 87
1, 1280913, Control_c, 0, 64, 66
1, 1280920, Note_on_c, 0, 84, 103
1, 1280928, Control_c, 0, 64, 43
1, 1280929, Note_on_c, 0, 72, 111
1, 1280943, Control_c, 0, 64, 0
1, 1280972, Control_c, 0, 64, 38
1, 1280987, Control_c, 0, 64, 55
1, 1281002, Control_c, 0, 64, 65
1, 1281009, Note_on_c, 0, 79, 65
1, 1281016, Note_on_c, 0, 77, 69
1, 1281017, Control_c, 0, 64, 75
1, 1281033, Control_c, 0, 64, 90
1, 1281048, Control_c, 0, 64, 127
1, 1281085, Note_off_c, 0, 72, 59
1, 1281089, Note_off_c, 0, 77, 56
1, 1281090, Note_off_c, 0, 84, 61
1, 1281097, Note_on_c, 0, 74, 55
1, 1281098, Note_on_c, 0, 76, 64
1, 1281110, Note_off_c, 0, 79, 63
1, 1281122, Control_c, 0, 64, 116
1, 1281132, Note_off_c, 0, 74, 62
1, 1281136, Control_c, 0, 64, 78
1, 1281151, Control_c, 0, 64, 61
1, 1281161, Note_off_c, 0, 76, 61
1, 1281166, Control_c, 0, 64, 52
1, 1281177, Note_on_c, 0, 84, 102
1, 1281179, Note_on_c, 0, 72, 111
1, 1281180, Control_c, 0, 64, 58
1, 1281195, Control_c, 0, 64, 64
1, 1281210, Control_c, 0, 64, 70
1, 1281225, Control_c, 0, 64, 79
1, 1281234, Note_off_c, 0, 72, 66
1, 1281240, Control_c, 0, 64, 94
1, 1281245, Note_on_c, 0, 79, 88
1, 1281254, Control_c, 0, 64, 127
1, 1281301, Note_off_c, 0, 79, 66
1, 1281319, Note_on_c, 0, 76, 74
1, 1281368, Note_off_c, 0, 76, 63
1, 1281415, Note_on_c, 0, 79, 100
1, 1281418, Control_c, 0, 64, 85
1, 1281424, Note_off_c, 0, 84, 54
1, 1281427, Note_on_c, 0, 67, 95
1, 1281432, Control_c, 0, 64, 64
1, 1281447, Control_c, 0, 64, 38
1, 1281462, Control_c, 0, 64, 0
1, 1281468, Note_on_c, 0, 81, 46
1, 1281477, Control_c, 0, 64, 33
1, 1281488, Note_on_c, 0, 76, 72
1, 1281492, Control_c, 0, 64, 58
1, 1281494, Note_off_c, 0, 81, 57
1, 1281513, Control_c, 0, 64, 73
1, 1281528, Control_c, 0, 64, 91
1, 1281543, Control_c, 0, 64, 127
1, 1281548, Note_off_c, 0, 79, 48
1, 1281582, Note_on_c, 0, 72, 75
1, 1281593, Note_off_c, 0, 76, 55
1, 1281634, Note_off_c, 0, 67, 60
1, 1281677, Note_on_c, 0, 69, 87
1, 1281680, Note_on_c, 0, 81, 98
1, 1281686, Note_off_c, 0, 72, 36
1, 1281707, Control_c, 0, 64, 91
1, 1281722, Note_off_c, 0, 69, 63
1, 1281722, Control_c, 0, 64, 70
1, 1281726, Note_off_c, 0, 81, 65
1, 1281737, Control_c, 0, 64, 53
1, 1281751, Control_c, 0, 64, 0
1, 1281802, Note_on_c, 0, 67, 89
1, 1281808, Note_on_c, 0, 81, 99
1, 1281808, Note_on_c, 0, 82, 64
1, 1281808, Note_off_c, 0, 82, 127
1, 1281838, Note_off_c, 0, 67, 67
1, 1281854, Note_off_c, 0, 81, 63
1, 1281919, Note_on_c, 0, 78, 102
1, 1281921, Note_on_c, 0, 66, 101
1, 1281975, Control_c, 0, 64, 59
1, 1281987, Note_on_c, 0, 73, 88
1, 1281990, Control_c, 0, 64, 68
1, 1281998, Note_off_c, 0, 78, 63
1, 1282004, Control_c, 0, 64, 71
1, 1282019, Control_c, 0, 64, 74
1, 1282034, Control_c, 0, 64, 78
1, 1282035, Note_off_c, 0, 73, 66
1, 1282048, Note_on_c, 0, 70, 70
1, 1282049, Control_c, 0, 64, 83
1, 1282064, Control_c, 0, 64, 87
1, 1282072, Note_off_c, 0, 70, 70
1, 1282078, Control_c, 0, 64, 91
1, 1282093, Control_c, 0, 64, 92
1, 1282123, Control_c, 0, 64, 91
1, 1282137, Control_c, 0, 64, 89
1, 1282139, Note_off_c, 0, 66, 59
1, 1282152, Control_c, 0, 64, 79
1, 1282164, Note_on_c, 0, 76, 98
1, 1282167, Control_c, 0, 64, 64
1, 1282169, Note_on_c, 0, 67, 78
1, 1282182, Control_c, 0, 64, 39
1, 1282197, Control_c, 0, 64, 0
1, 1282208, Note_off_c, 0, 76, 67
1, 1282214, Note_off_c, 0, 67, 62
1, 1282294, Note_on_c, 0, 78, 97
1, 1282297, Note_on_c, 0, 66, 84
1, 1282327, Note_off_c, 0, 78, 69
1, 1282335, Note_off_c, 0, 66, 66
1, 1282415, Note_on_c, 0, 86, 99
1, 1282417, Note_on_c, 0, 64, 87
1, 1282426, Control_c, 0, 64, 48
1, 1282441, Control_c, 0, 64, 64
1, 1282455, Control_c, 0, 64, 66
1, 1282470, Note_off_c, 0, 86, 66
1, 1282470, Control_c, 0, 64, 67
1, 1282500, Control_c, 0, 64, 67
1, 1282515, Control_c, 0, 64, 68
1, 1282529, Control_c, 0, 64, 69
1, 1282531, Note_on_c, 0, 84, 106
1, 1282544, Control_c, 0, 64, 71
1, 1282559, Control_c, 0, 64, 72
1, 1282574, Control_c, 0, 64, 73
1, 1282579, Note_off_c, 0, 84, 64
1, 1282589, Control_c, 0, 64, 73
1, 1282601, Note_off_c, 0, 64, 55
1, 1282647, Note_on_c, 0, 63, 81
1, 1282654, Note_on_c, 0, 79, 104
1, 1282664, Control_c, 0, 64, 73
1, 1282679, Control_c, 0, 64, 70
1, 1282690, Note_off_c, 0, 79, 71
1, 1282694, Control_c, 0, 64, 63
1, 1282695, Note_off_c, 0, 63, 63
1, 1282708, Control_c, 0, 64, 47
1, 1282723, Control_c, 0, 64, 0
1, 1282758, Note_on_c, 0, 81, 106
1, 1282761, Note_on_c, 0, 64, 88
1, 1282798, Note_off_c, 0, 64, 64
1, 1282802, Note_off_c, 0, 81, 65
1, 1282883, Note_on_c, 0, 78, 106
1, 1282886, Note_on_c, 0, 74, 103
1, 1282916, Control_c, 0, 64, 44
1, 1282931, Control_c, 0, 64, 73
1, 1282942, Note_off_c, 0, 74, 62
1, 1282946, Control_c, 0, 64, 85
1, 1282960, Control_c, 0, 64, 92
1, 1282975, Control_c, 0, 64, 92
1, 1282990, Control_c, 0, 64, 93
1, 1282996, Note_on_c, 0, 72, 90
1, 1283012, Control_c, 0, 64, 95
1, 1283027, Control_c, 0, 64, 96
1, 1283042, Control_c, 0, 64, 98
1, 1283090, Note_off_c, 0, 72, 63
1, 1283100, Note_off_c, 0, 78, 58
1, 1283127, Note_on_c, 0, 67, 76
1, 1283134, Note_on_c, 0, 83, 95
1, 1283143, Note_on_c, 0, 65, 58
1, 1283148, Note_off_c, 0, 67, 72
1, 1283164, Note_off_c, 0, 65, 63
1, 1283189, Note_off_c, 0, 83, 65
1, 1283219, Control_c, 0, 64, 95
1, 1283233, Control_c, 0, 64, 90
1, 1283236, Note_on_c, 0, 82, 98
1, 1283248, Control_c, 0, 64, 76
1, 1283263, Control_c, 0, 64, 58
1, 1283270, Note_off_c, 0, 82, 68
1, 1283278, Control_c, 0, 64, 0
1, 1283347, Note_on_c, 0, 71, 77
1, 1283363, Note_on_c, 0, 63, 52
1, 1283367, Control_c, 0, 64, 38
1, 1283382, Control_c, 0, 64, 61
1, 1283386, Note_off_c, 0, 71, 64
1, 1283397, Control_c, 0, 64, 66
1, 1283411, Control_c, 0, 64, 68
1, 1283414, Note_on_c, 0, 59, 64
1, 1283427, Control_c, 0, 64, 69
1, 1283433, Note_on_c, 0, 75, 20
1, 1283436, Note_off_c, 0, 63, 59
1, 1283442, Control_c, 0, 64, 70
1, 1283457, Control_c, 0, 64, 70
1, 1283471, Control_c, 0, 64, 71
1, 1283476, Note_off_c, 0, 75, 35
1, 1283486, Control_c, 0, 64, 72
1, 1283488, Note_off_c, 0, 59, 62
1, 1283492, Note_on_c, 0, 54, 64
1, 1283493, Note_on_c, 0, 83, 84
1, 1283501, Control_c, 0, 64, 72
1, 1283516, Control_c, 0, 64, 73
1, 1283524, Note_on_c, 0, 51, 60
1, 1283531, Control_c, 0, 64, 74
1, 1283546, Control_c, 0, 64, 74
1, 1283547, Note_off_c, 0, 54, 64
1, 1283549, Note_off_c, 0, 83, 64
1, 1283571, Note_on_c, 0, 90, 96
1, 1283575, Control_c, 0, 64, 75
1, 1283585, Note_off_c, 0, 51, 60
1, 1283605, Control_c, 0, 64, 75
1, 1283615, Note_on_c, 0, 54, 78
1, 1283620, Control_c, 0, 64, 76
1, 1283635, Control_c, 0, 64, 76
1, 1283649, Control_c, 0, 64, 77
1, 1283664, Control_c, 0, 64, 77
1, 1283667, Note_off_c, 0, 54, 64
1, 1283679, Control_c, 0, 64, 78
1, 1283693, Control_c, 0, 64, 78
1, 1283699, Note_on_c, 0, 47, 92
1, 1283708, Control_c, 0, 64, 79
1, 1283734, Note_off_c, 0, 47, 62
1, 1283775, Control_c, 0, 64, 70
1, 1283790, Control_c, 0, 64, 42
1, 1283805, Control_c, 0, 64, 0
1, 1283814, Note_on_c, 0, 48, 98
1, 1283904, Note_on_c, 0, 54, 80
1, 1283908, Control_c, 0, 64, 57
1, 1283923, Control_c, 0, 64, 77
1, 1283930, Note_off_c, 0, 48, 62
1, 1283938, Control_c, 0, 64, 80
1, 1283943, Note_off_c, 0, 90, 54
1, 1283954, Control_c, 0, 64, 84
1, 1283969, Control_c, 0, 64, 84
1, 1283983, Note_on_c, 0, 58, 79
1, 1283983, Control_c, 0, 64, 89
1, 1283992, Note_off_c, 0, 54, 63
1, 1283998, Control_c, 0, 64, 92
1, 1284013, Control_c, 0, 64, 94
1, 1284027, Control_c, 0, 64, 96
1, 1284028, Note_off_c, 0, 58, 66
1, 1284050, Note_on_c, 0, 64, 78
1, 1284056, Note_on_c, 0, 89, 96
1, 1284057, Note_on_c, 0, 80, 91
1, 1284072, Control_c, 0, 64, 99
1, 1284087, Control_c, 0, 64, 101
1, 1284094, Note_off_c, 0, 64, 63
1, 1284101, Control_c, 0, 64, 105
1, 1284116, Control_c, 0, 64, 110
1, 1284131, Control_c, 0, 64, 127
1, 1284139, Note_on_c, 0, 60, 80
1, 1284165, Note_on_c, 0, 92, 104
1, 1284174, Note_off_c, 0, 89, 60
1, 1284187, Note_off_c, 0, 80, 55
1, 1284189, Note_off_c, 0, 60, 62
1, 1284194, Note_on_c, 0, 70, 88
1, 1284214, Note_off_c, 0, 92, 69
1, 1284233, Note_off_c, 0, 70, 68
1, 1284292, Note_on_c, 0, 78, 103
1, 1284303, Note_on_c, 0, 84, 108
1, 1284305, Note_on_c, 0, 88, 104
1, 1284310, Control_c, 0, 64, 104
1, 1284324, Note_off_c, 0, 78, 68
1, 1284324, Control_c, 0, 64, 69
1, 1284339, Control_c, 0, 64, 0
1, 1284437, Note_off_c, 0, 88, 56
1, 1284552, Note_on_c, 0, 79, 84
1, 1284556, Note_on_c, 0, 87, 86
1, 1284559, Note_on_c, 0, 42, 79
1, 1284569, Control_c, 0, 64, 43
1, 1284584, Control_c, 0, 64, 58
1, 1284591, Note_off_c, 0, 84, 61
1, 1284598, Control_c, 0, 64, 63
1, 1284606, Note_off_c, 0, 79, 66
1, 1284613, Control_c, 0, 64, 66
1, 1284628, Control_c, 0, 64, 69
1, 1284643, Control_c, 0, 64, 71
1, 1284656, Note_off_c, 0, 87, 63
1, 1284658, Control_c, 0, 64, 74
1, 1284672, Note_on_c, 0, 90, 80
1, 1284673, Control_c, 0, 64, 75
1, 1284685, Note_on_c, 0, 81, 78
1, 1284717, Control_c, 0, 64, 74
1, 1284732, Control_c, 0, 64, 69
1, 1284736, Note_off_c, 0, 90, 62
1, 1284738, Note_off_c, 0, 42, 61
1, 1284747, Control_c, 0, 64, 60
1, 1284753, Note_off_c, 0, 81, 61
1, 1284762, Control_c, 0, 64, 31
1, 1284777, Control_c, 0, 64, 0
1, 1284795, Note_on_c, 0, 47, 85
1, 1284802, Note_on_c, 0, 86, 91
1, 1284805, Note_on_c, 0, 82, 87
1, 1284865, Control_c, 0, 64, 30
1, 1284880, Control_c, 0, 64, 62
1, 1284895, Control_c, 0, 64, 75
1, 1284910, Control_c, 0, 64, 88
1, 1284924, Control_c, 0, 64, 106
1, 1284939, Control_c, 0, 64, 117
1, 1284954, Control_c, 0, 64, 127
1, 1284969, Control_c, 0, 64, 118
1, 1284984, Control_c, 0, 64, 95
1, 1284985, Note_off_c, 0, 47, 61
1, 1284998, Control_c, 0, 64, 73
1, 1285000, Note_off_c, 0, 86, 57
1, 1285013, Control_c, 0, 64, 50
1, 1285029, Control_c, 0, 64, 0
1, 1285035, Note_on_c, 0, 49, 88
1, 1285046, Note_on_c, 0, 85, 87
1, 1285051, Note_on_c, 0, 76, 80
1, 1285060, Note_off_c, 0, 82, 63
1, 1285082, Note_on_c, 0, 48, 45
1, 1285100, Note_off_c, 0, 49, 63
1, 1285103, Control_c, 0, 64, 55
1, 1285111, Note_off_c, 0, 48, 56
1, 1285118, Control_c, 0, 64, 66
1, 1285133, Control_c, 0, 64, 73
1, 1285147, Control_c, 0, 64, 83
1, 1285162, Control_c, 0, 64, 98
1, 1285167, Note_on_c, 0, 88, 91
1, 1285169, Note_off_c, 0, 85, 63
1, 1285177, Control_c, 0, 64, 113
1, 1285192, Control_c, 0, 64, 127
1, 1285236, Control_c, 0, 64, 117
1, 1285259, Control_c, 0, 64, 85
1, 1285274, Control_c, 0, 64, 60
1, 1285277, Note_off_c, 0, 76, 56
1, 1285287, Note_on_c, 0, 50, 86
1, 1285288, Control_c, 0, 64, 0
1, 1285302, Note_on_c, 0, 80, 93
1, 1285302, Note_on_c, 0, 84, 100
1, 1285329, Note_off_c, 0, 88, 63
1, 1285333, Control_c, 0, 64, 34
1, 1285348, Control_c, 0, 64, 57
1, 1285362, Control_c, 0, 64, 68
1, 1285368, Note_off_c, 0, 80, 66
1, 1285372, Note_off_c, 0, 84, 66
1, 1285377, Control_c, 0, 64, 74
1, 1285379, Note_off_c, 0, 50, 60
1, 1285392, Control_c, 0, 64, 81
1, 1285406, Note_on_c, 0, 51, 89
1, 1285407, Control_c, 0, 64, 88
1, 1285421, Control_c, 0, 64, 96
1, 1285436, Control_c, 0, 64, 107
1, 1285451, Control_c, 0, 64, 127
1, 1285478, Note_off_c, 0, 51, 65
1, 1285524, Note_on_c, 0, 83, 103
1, 1285526, Note_on_c, 0, 79, 96
1, 1285529, Note_on_c, 0, 50, 93
1, 1285569, Note_off_c, 0, 79, 67
1, 1285573, Note_off_c, 0, 83, 67
1, 1285599, Note_off_c, 0, 50, 59
1, 1285629, Note_on_c, 0, 47, 96
1, 1285634, Note_on_c, 0, 86, 106
1, 1285668, Note_off_c, 0, 47, 65
1, 1285678, Note_off_c, 0, 86, 65
1, 1285718, Control_c, 0, 64, 95
1, 1285733, Control_c, 0, 64, 65
1, 1285747, Control_c, 0, 64, 0
1, 1285768, Note_on_c, 0, 48, 94
1, 1285768, Note_on_c, 0, 90, 104
1, 1285779, Note_on_c, 0, 91, 96
1, 1285850, Note_on_c, 0, 54, 80
1, 1285852, Control_c, 0, 64, 44
1, 1285867, Control_c, 0, 64, 71
1, 1285882, Control_c, 0, 64, 82
1, 1285895, Note_off_c, 0, 48, 55
1, 1285896, Control_c, 0, 64, 99
1, 1285910, Note_on_c, 0, 58, 90
1, 1285911, Control_c, 0, 64, 118
1, 1285926, Control_c, 0, 64, 127
1, 1285938, Note_off_c, 0, 54, 61
1, 1285951, Note_off_c, 0, 91, 55
1, 1285966, Note_off_c, 0, 90, 52
1, 1285968, Note_off_c, 0, 58, 63
1, 1286002, Note_on_c, 0, 65, 84
1, 1286035, Note_on_c, 0, 89, 102
1, 1286037, Note_on_c, 0, 80, 93
1, 1286042, Note_off_c, 0, 65, 67
1, 1286090, Note_off_c, 0, 80, 64
1, 1286091, Note_on_c, 0, 60, 78
1, 1286112, Note_off_c, 0, 89, 59
1, 1286141, Note_on_c, 0, 92, 102
1, 1286154, Note_off_c, 0, 60, 63
1, 1286160, Note_on_c, 0, 70, 92
1, 1286194, Note_off_c, 0, 92, 70
1, 1286196, Note_off_c, 0, 70, 69
1, 1286257, Note_on_c, 0, 78, 100
1, 1286259, Control_c, 0, 64, 113
1, 1286274, Control_c, 0, 64, 70
1, 1286275, Note_on_c, 0, 88, 106
1, 1286281, Note_on_c, 0, 84, 89
1, 1286284, Note_on_c, 0, 83, 95
1, 1286289, Control_c, 0, 64, 33
1, 1286293, Note_off_c, 0, 78, 70
1, 1286303, Control_c, 0, 64, 0
1, 1286318, Control_c, 0, 64, 50
1, 1286325, Note_off_c, 0, 83, 55
1, 1286333, Control_c, 0, 64, 68
1, 1286348, Control_c, 0, 64, 86
1, 1286363, Control_c, 0, 64, 127
1, 1286408, Control_c, 0, 64, 88
1, 1286422, Control_c, 0, 64, 65
1, 1286437, Control_c, 0, 64, 0
1, 1286445, Note_off_c, 0, 88, 64
1, 1286509, Note_on_c, 0, 79, 93
1, 1286510, Note_on_c, 0, 42, 88
1, 1286512, Note_on_c, 0, 87, 91
1, 1286551, Note_off_c, 0, 84, 64
1, 1286556, Control_c, 0, 64, 51
1, 1286564, Note_off_c, 0, 79, 66
1, 1286570, Control_c, 0, 64, 71
1, 1286585, Control_c, 0, 64, 78
1, 1286600, Control_c, 0, 64, 88
1, 1286615, Control_c, 0, 64, 91
1, 1286618, Note_off_c, 0, 87, 62
1, 1286631, Control_c, 0, 64, 97
1, 1286632, Note_on_c, 0, 90, 94
1, 1286636, Note_on_c, 0, 81, 95
1, 1286646, Control_c, 0, 64, 102
1, 1286673, Note_off_c, 0, 42, 59
1, 1286690, Control_c, 0, 64, 98
1, 1286694, Note_off_c, 0, 90, 64
1, 1286705, Control_c, 0, 64, 78
1, 1286715, Note_off_c, 0, 81, 61
1, 1286719, Control_c, 0, 64, 57
1, 1286734, Control_c, 0, 64, 0
1, 1286753, Note_on_c, 0, 47, 94
1, 1286763, Note_on_c, 0, 86, 102
1, 1286765, Note_on_c, 0, 82, 96
1, 1286792, Note_off_c, 0, 47, 69
1, 1286801, Control_c, 0, 64, 55
1, 1286816, Control_c, 0, 64, 77
1, 1286831, Control_c, 0, 64, 127
1, 1286949, Control_c, 0, 64, 79
1, 1286964, Control_c, 0, 64, 0
1, 1286969, Note_off_c, 0, 86, 58
1, 1286998, Note_on_c, 0, 49, 98
1, 1287008, Note_on_c, 0, 85, 98
1, 1287009, Note_on_c, 0, 76, 92
1, 1287023, Control_c, 0, 64, 38
1, 1287025, Note_off_c, 0, 82, 63
1, 1287033, Note_off_c, 0, 49, 68
1, 1287038, Control_c, 0, 64, 71
1, 1287052, Control_c, 0, 64, 105
1, 1287058, Note_off_c, 0, 85, 68
1, 1287067, Control_c, 0, 64, 127
1, 1287121, Note_on_c, 0, 56, 99
1, 1287124, Note_on_c, 0, 88, 100
1, 1287126, Control_c, 0, 64, 103
1, 1287129, Note_off_c, 0, 76, 0
1, 1287129, Note_on_c, 0, 76, 20
1, 1287141, Control_c, 0, 64, 70
1, 1287156, Control_c, 0, 64, 0
1, 1287165, Note_off_c, 0, 56, 65
1, 1287180, Note_off_c, 0, 76, 63
1, 1287209, Note_off_c, 0, 88, 61
1, 1287245, Note_on_c, 0, 84, 104
1, 1287248, Note_on_c, 0, 53, 91
1, 1287255, Note_on_c, 0, 79, 95
1, 1287271, Note_on_c, 0, 80, 56
1, 1287271, Note_off_c, 0, 79, 75
1, 1287275, Control_c, 0, 64, 68
1, 1287278, Note_off_c, 0, 84, 71
1, 1287290, Control_c, 0, 64, 127
1, 1287290, Note_off_c, 0, 53, 65
1, 1287295, Note_off_c, 0, 80, 37
1, 1287393, Control_c, 0, 64, 104
1, 1287408, Control_c, 0, 64, 64
1, 1287424, Control_c, 0, 64, 0
1, 1287488, Note_on_c, 0, 52, 90
1, 1287490, Note_on_c, 0, 88, 107
1, 1287535, Control_c, 0, 64, 38
1, 1287549, Control_c, 0, 64, 71
1, 1287564, Control_c, 0, 64, 70
1, 1287570, Note_on_c, 0, 76, 88
1, 1287579, Control_c, 0, 64, 53
1, 1287587, Note_off_c, 0, 88, 66
1, 1287593, Note_off_c, 0, 76, 67
1, 1287594, Control_c, 0, 64, 0
1, 1287636, Note_on_c, 0, 64, 74
1, 1287651, Note_off_c, 0, 52, 61
1, 1287668, Note_off_c, 0, 64, 67
1, 1287728, Control_c, 0, 64, 62
1, 1287734, Note_on_c, 0, 93, 110
1, 1287743, Control_c, 0, 64, 72
1, 1287746, Note_on_c, 0, 57, 82
1, 1287761, Note_on_c, 0, 59, 61
1, 1287772, Control_c, 0, 64, 71
1, 1287787, Control_c, 0, 64, 70
1, 1287802, Control_c, 0, 64, 71
1, 1287809, Note_on_c, 0, 81, 83
1, 1287830, Note_off_c, 0, 93, 65
1, 1287831, Control_c, 0, 64, 69
1, 1287833, Note_off_c, 0, 81, 67
1, 1287846, Control_c, 0, 64, 61
1, 1287861, Control_c, 0, 64, 34
1, 1287875, Control_c, 0, 64, 0
1, 1287895, Note_on_c, 0, 69, 82
1, 1287899, Note_off_c, 0, 59, 19
1, 1287913, Note_off_c, 0, 57, 63
1, 1287964, Note_off_c, 0, 69, 58
1, 1287979, Control_c, 0, 64, 48
1, 1287982, Note_on_c, 0, 93, 103
1, 1287993, Control_c, 0, 64, 72
1, 1288001, Note_on_c, 0, 57, 83
1, 1288008, Control_c, 0, 64, 79
1, 1288023, Control_c, 0, 64, 81
1, 1288037, Note_off_c, 0, 93, 68
1, 1288038, Control_c, 0, 64, 80
1, 1288044, Note_on_c, 0, 81, 82
1, 1288053, Control_c, 0, 64, 80
1, 1288068, Control_c, 0, 64, 79
1, 1288080, Note_off_c, 0, 81, 61
1, 1288083, Control_c, 0, 64, 75
1, 1288098, Control_c, 0, 64, 64
1, 1288113, Control_c, 0, 64, 0
1, 1288116, Note_off_c, 0, 57, 64
1, 1288126, Note_on_c, 0, 69, 76
1, 1288163, Note_off_c, 0, 69, 65
1, 1288223, Note_on_c, 0, 87, 101
1, 1288232, Note_on_c, 0, 51, 83
1, 1288254, Control_c, 0, 64, 52
1, 1288269, Control_c, 0, 64, 79
1, 1288284, Control_c, 0, 64, 90
1, 1288286, Note_off_c, 0, 87, 67
1, 1288298, Control_c, 0, 64, 97
1, 1288306, Note_on_c, 0, 75, 76
1, 1288313, Control_c, 0, 64, 95
1, 1288328, Control_c, 0, 64, 88
1, 1288329, Note_off_c, 0, 75, 70
1, 1288343, Control_c, 0, 64, 71
1, 1288358, Control_c, 0, 64, 40
1, 1288372, Control_c, 0, 64, 0
1, 1288382, Note_on_c, 0, 63, 76
1, 1288412, Note_off_c, 0, 63, 65
1, 1288419, Note_off_c, 0, 51, 62
1, 1288470, Note_on_c, 0, 88, 100
1, 1288470, Note_on_c, 0, 52, 91
1, 1288476, Control_c, 0, 64, 48
1, 1288491, Control_c, 0, 64, 78
1, 1288506, Control_c, 0, 64, 109
1, 1288521, Control_c, 0, 64, 127
1, 1288542, Note_on_c, 0, 76, 90
1, 1288566, Note_off_c, 0, 76, 66
1, 1288574, Note_off_c, 0, 88, 65
1, 1288580, Control_c, 0, 64, 88
1, 1288595, Control_c, 0, 64, 65
1, 1288610, Control_c, 0, 64, 0
1, 1288612, Note_on_c, 0, 64, 79
1, 1288632, Note_off_c, 0, 52, 61
1, 1288662, Note_off_c, 0, 64, 62
1, 1288709, Note_on_c, 0, 53, 99
1, 1288713, Control_c, 0, 64, 38
1, 1288717, Note_on_c, 0, 89, 102
1, 1288728, Control_c, 0, 64, 70
1, 1288743, Control_c, 0, 64, 102
1, 1288758, Control_c, 0, 64, 127
1, 1288795, Note_on_c, 0, 77, 85
1, 1288814, Note_off_c, 0, 89, 63
1, 1288826, Note_off_c, 0, 77, 62
1, 1288831, Control_c, 0, 64, 102
1, 1288846, Control_c, 0, 64, 64
1, 1288857, Note_on_c, 0, 65, 72
1, 1288861, Control_c, 0, 64, 0
1, 1288876, Note_off_c, 0, 53, 61
1, 1288914, Note_off_c, 0, 65, 62
1, 1288950, Control_c, 0, 64, 64
1, 1288958, Note_on_c, 0, 89, 98
1, 1288961, Note_on_c, 0, 53, 79
1, 1288965, Control_c, 0, 64, 78
1, 1288980, Control_c, 0, 64, 96
1, 1289002, Control_c, 0, 64, 126
1, 1289036, Note_on_c, 0, 77, 80
1, 1289058, Note_off_c, 0, 89, 63
1, 1289062, Note_off_c, 0, 77, 65
1, 1289097, Note_on_c, 0, 65, 82
1, 1289107, Note_off_c, 0, 53, 62
1, 1289121, Control_c, 0, 64, 111
1, 1289133, Note_off_c, 0, 65, 61
1, 1289136, Control_c, 0, 64, 73
1, 1289151, Control_c, 0, 64, 0
1, 1289207, Note_on_c, 0, 48, 81
1, 1289207, Note_on_c, 0, 84, 97
1, 1289226, Control_c, 0, 64, 58
1, 1289240, Control_c, 0, 64, 74
1, 1289255, Control_c, 0, 64, 90
1, 1289270, Control_c, 0, 64, 127
1, 1289275, Note_on_c, 0, 72, 83
1, 1289311, Note_off_c, 0, 72, 62
1, 1289313, Note_off_c, 0, 84, 66
1, 1289340, Note_on_c, 0, 60, 88
1, 1289350, Note_off_c, 0, 48, 58
1, 1289359, Control_c, 0, 64, 67
1, 1289374, Control_c, 0, 64, 0
1, 1289385, Note_off_c, 0, 60, 67
1, 1289442, Note_on_c, 0, 88, 107
1, 1289449, Note_on_c, 0, 52, 98
1, 1289463, Control_c, 0, 64, 41
1, 1289478, Control_c, 0, 64, 68
1, 1289493, Control_c, 0, 64, 83
1, 1289508, Control_c, 0, 64, 127
1, 1289523, Note_on_c, 0, 76, 90
1, 1289555, Note_off_c, 0, 76, 65
1, 1289557, Note_off_c, 0, 88, 68
1, 1289585, Note_on_c, 0, 64, 91
1, 1289610, Note_off_c, 0, 52, 61
1, 1289611, Control_c, 0, 64, 111
1, 1289626, Control_c, 0, 64, 70
1, 1289629, Note_off_c, 0, 64, 67
1, 1289640, Control_c, 0, 64, 0
1, 1289688, Note_on_c, 0, 93, 111
1, 1289695, Note_on_c, 0, 57, 104
1, 1289729, Control_c, 0, 64, 58
1, 1289752, Control_c, 0, 64, 76
1, 1289767, Control_c, 0, 64, 96
1, 1289776, Note_on_c, 0, 81, 91
1, 1289781, Control_c, 0, 64, 127
1, 1289808, Note_off_c, 0, 93, 68
1, 1289813, Note_off_c, 0, 81, 62
1, 1289842, Control_c, 0, 64, 94
1, 1289855, Note_on_c, 0, 69, 85
1, 1289857, Control_c, 0, 64, 55
1, 1289871, Control_c, 0, 64, 0
1, 1289872, Note_off_c, 0, 57, 60
1, 1289916, Note_off_c, 0, 69, 63
1, 1289935, Note_on_c, 0, 93, 104
1, 1289945, Control_c, 0, 64, 62
1, 1289959, Note_on_c, 0, 57, 90
1, 1289960, Control_c, 0, 64, 78
1, 1289975, Control_c, 0, 64, 91
1, 1289990, Control_c, 0, 64, 103
1, 1289991, Note_off_c, 0, 93, 68
1, 1290004, Control_c, 0, 64, 109
1, 1290008, Note_on_c, 0, 81, 82
1, 1290019, Control_c, 0, 64, 122
1, 1290034, Control_c, 0, 64, 127
1, 1290052, Note_off_c, 0, 81, 65
1, 1290071, Note_off_c, 0, 57, 63
1, 1290076, Note_on_c, 0, 69, 85
1, 1290078, Control_c, 0, 64, 108
1, 1290093, Control_c, 0, 64, 81
1, 1290108, Control_c, 0, 64, 59
1, 1290111, Poly_aftertouch_c, 0, 79, 0
1, 1290120, Note_off_c, 0, 69, 63
1, 1290123, Control_c, 0, 64, 0
1, 1290177, Note_on_c, 0, 87, 97
1, 1290186, Note_on_c, 0, 51, 93
1, 1290211, Control_c, 0, 64, 34
1, 1290226, Control_c, 0, 64, 68
1, 1290241, Control_c, 0, 64, 97
1, 1290243, Note_on_c, 0, 75, 83
1, 1290247, Note_off_c, 0, 87, 66
1, 1290256, Control_c, 0, 64, 127
1, 1290288, Note_off_c, 0, 75, 61
1, 1290313, Note_on_c, 0, 63, 90
1, 1290316, Control_c, 0, 64, 113
1, 1290330, Control_c, 0, 64, 72
1, 1290345, Control_c, 0, 64, 0
1, 1290356, Note_off_c, 0, 51, 61
1, 1290366, Note_off_c, 0, 63, 64
1, 1290408, Note_on_c, 0, 88, 99
1, 1290414, Note_on_c, 0, 52, 96
1, 1290449, Control_c, 0, 64, 66
1, 1290463, Control_c, 0, 64, 83
1, 1290477, Note_on_c, 0, 76, 89
1, 1290478, Control_c, 0, 64, 127
1, 1290508, Note_off_c, 0, 88, 63
1, 1290521, Note_off_c, 0, 76, 66
1, 1290558, Note_on_c, 0, 64, 86
1, 1290560, Control_c, 0, 64, 82
1, 1290575, Control_c, 0, 64, 54
1, 1290584, Note_off_c, 0, 52, 58
1, 1290590, Control_c, 0, 64, 0
1, 1290612, Note_off_c, 0, 64, 65
1, 1290661, Note_on_c, 0, 89, 105
1, 1290668, Note_on_c, 0, 53, 94
1, 1290679, Control_c, 0, 64, 49
1, 1290692, Control_c, 0, 64, 72
1, 1290707, Control_c, 0, 64, 88
1, 1290722, Control_c, 0, 64, 127
1, 1290731, Note_on_c, 0, 77, 88
1, 1290760, Note_off_c, 0, 89, 62
1, 1290769, Note_off_c, 0, 77, 65
1, 1290803, Note_on_c, 0, 65, 84
1, 1290811, Control_c, 0, 64, 81
1, 1290819, Note_off_c, 0, 53, 62
1, 1290825, Control_c, 0, 64, 43
1, 1290840, Control_c, 0, 64, 0
1, 1290871, Note_off_c, 0, 65, 62
1, 1290885, Control_c, 0, 64, 38
1, 1290895, Note_on_c, 0, 89, 98
1, 1290900, Control_c, 0, 64, 71
1, 1290908, Note_on_c, 0, 53, 96
1, 1290915, Control_c, 0, 64, 127
1, 1290965, Note_on_c, 0, 77, 89
1, 1290997, Note_off_c, 0, 89, 63
1, 1291001, Note_off_c, 0, 77, 66
1, 1291018, Control_c, 0, 64, 86
1, 1291033, Control_c, 0, 64, 51
1, 1291034, Note_on_c, 0, 65, 87
1, 1291048, Control_c, 0, 64, 0
1, 1291050, Note_off_c, 0, 53, 60
1, 1291082, Note_off_c, 0, 65, 62
1, 1291107, Control_c, 0, 64, 31
1, 1291122, Control_c, 0, 64, 71
1, 1291129, Note_on_c, 0, 84, 104
1, 1291136, Control_c, 0, 64, 127
1, 1291152, Note_on_c, 0, 48, 92
1, 1291186, Note_on_c, 0, 72, 79
1, 1291192, Note_off_c, 0, 84, 62
1, 1291207, Note_off_c, 0, 72, 72
1, 1291225, Control_c, 0, 64, 103
1, 1291248, Control_c, 0, 64, 59
1, 1291263, Control_c, 0, 64, 0
1, 1291272, Note_on_c, 0, 60, 79
1, 1291293, Note_off_c, 0, 48, 43
1, 1291293, Note_off_c, 0, 60, 72
1, 1291322, Control_c, 0, 67, 21
1, 1291337, Control_c, 0, 67, 26
1, 1291351, Control_c, 0, 67, 40
1, 1291366, Control_c, 0, 67, 63
1, 1291381, Control_c, 0, 67, 93
1, 1291396, Control_c, 0, 67, 114
1, 1291398, Note_on_c, 0, 65, 75
1, 1291411, Control_c, 0, 67, 127
1, 1291416, Note_on_c, 0, 41, 57
1, 1291451, Note_on_c, 0, 53, 53
1, 1291454, Note_off_c, 0, 65, 58
1, 1291475, Note_off_c, 0, 53, 60
1, 1291529, Note_off_c, 0, 41, 48
1, 1291547, Note_on_c, 0, 53, 68
1, 1291575, Note_off_c, 0, 53, 66
1, 1291650, Note_on_c, 0, 60, 74
1, 1291663, Note_on_c, 0, 36, 70
1, 1291704, Note_off_c, 0, 60, 44
1, 1291708, Note_on_c, 0, 48, 66
1, 1291723, Note_off_c, 0, 36, 53
1, 1291735, Note_off_c, 0, 48, 66
1, 1291821, Note_on_c, 0, 48, 64
1, 1291848, Note_off_c, 0, 48, 68
1, 1291896, Note_on_c, 0, 60, 73
1, 1291916, Note_on_c, 0, 36, 65
1, 1291955, Note_on_c, 0, 48, 62
1, 1291958, Note_off_c, 0, 60, 59
1, 1291990, Note_off_c, 0, 48, 66
1, 1292016, Note_off_c, 0, 36, 50
1, 1292059, Note_on_c, 0, 48, 67
1, 1292090, Note_off_c, 0, 48, 66
1, 1292143, Note_on_c, 0, 66, 82
1, 1292146, Control_c, 0, 64, 35
1, 1292161, Control_c, 0, 64, 0
1, 1292162, Note_on_c, 0, 42, 73
1, 1292186, Note_off_c, 0, 42, 67
1, 1292192, Note_on_c, 0, 54, 74
1, 1292221, Note_off_c, 0, 66, 61
1, 1292222, Note_off_c, 0, 54, 67
1, 1292319, Note_on_c, 0, 54, 58
1, 1292343, Note_off_c, 0, 54, 61
1, 1292388, Note_on_c, 0, 65, 79
1, 1292399, Note_on_c, 0, 41, 56
1, 1292442, Note_on_c, 0, 53, 70
1, 1292456, Note_off_c, 0, 41, 48
1, 1292460, Note_off_c, 0, 65, 62
1, 1292472, Note_off_c, 0, 53, 66
1, 1292530, Note_on_c, 0, 53, 62
1, 1292563, Note_off_c, 0, 53, 65
1, 1292629, Note_on_c, 0, 64, 75
1, 1292634, Note_on_c, 0, 40, 65
1, 1292674, Note_off_c, 0, 40, 59
1, 1292688, Note_on_c, 0, 52, 70
1, 1292697, Note_off_c, 0, 64, 59
1, 1292717, Note_off_c, 0, 52, 67
1, 1292788, Note_on_c, 0, 52, 66
1, 1292817, Note_off_c, 0, 52, 65
1, 1292865, Control_c, 0, 64, 39
1, 1292873, Note_on_c, 0, 64, 82
1, 1292880, Control_c, 0, 64, 30
1, 1292885, Note_on_c, 0, 40, 71
1, 1292895, Control_c, 0, 64, 0
1, 1292936, Note_on_c, 0, 52, 68
1, 1292957, Note_off_c, 0, 64, 61
1, 1292965, Note_off_c, 0, 52, 65
1, 1292986, Note_off_c, 0, 40, 55
1, 1293012, Note_on_c, 0, 52, 79
1, 1293037, Note_off_c, 0, 52, 68
1, 1293103, Control_c, 0, 64, 52
1, 1293114, Note_on_c, 0, 69, 93
1, 1293118, Control_c, 0, 64, 57
1, 1293125, Note_on_c, 0, 45, 83
1, 1293133, Control_c, 0, 64, 44
1, 1293148, Control_c, 0, 64, 0
1, 1293178, Note_on_c, 0, 57, 77
1, 1293183, Note_off_c, 0, 45, 60
1, 1293186, Note_off_c, 0, 69, 62
1, 1293192, Control_c, 0, 64, 31
1, 1293204, Note_off_c, 0, 57, 68
1, 1293207, Control_c, 0, 64, 54
1, 1293222, Control_c, 0, 64, 64
1, 1293237, Control_c, 0, 64, 68
1, 1293252, Control_c, 0, 64, 71
1, 1293256, Note_on_c, 0, 57, 79
1, 1293267, Control_c, 0, 64, 73
1, 1293282, Control_c, 0, 64, 74
1, 1293286, Note_off_c, 0, 57, 64
1, 1293311, Control_c, 0, 64, 69
1, 1293326, Control_c, 0, 64, 52
1, 1293340, Control_c, 0, 64, 0
1, 1293350, Note_on_c, 0, 67, 89
1, 1293355, Control_c, 0, 67, 105
1, 1293362, Note_on_c, 0, 43, 82
1, 1293370, Control_c, 0, 67, 67
1, 1293385, Control_c, 0, 67, 21
1, 1293389, Note_off_c, 0, 43, 71
1, 1293400, Control_c, 0, 67, 0
1, 1293403, Note_off_c, 0, 67, 65
1, 1293472, Note_on_c, 0, 66, 90
1, 1293476, Note_on_c, 0, 42, 90
1, 1293508, Note_off_c, 0, 66, 58
1, 1293511, Note_off_c, 0, 42, 69
1, 1293513, Note_on_c, 0, 67, 52
1, 1293513, Note_off_c, 0, 67, 127
1, 1293591, Note_on_c, 0, 70, 99
1, 1293600, Control_c, 0, 64, 32
1, 1293608, Note_on_c, 0, 46, 97
1, 1293614, Control_c, 0, 64, 68
1, 1293629, Control_c, 0, 64, 98
1, 1293640, Note_off_c, 0, 46, 63
1, 1293644, Control_c, 0, 64, 127
1, 1293665, Note_on_c, 0, 58, 78
1, 1293673, Note_off_c, 0, 70, 66
1, 1293678, Poly_aftertouch_c, 0, 71, 127
1, 1293686, Note_off_c, 0, 58, 70
1, 1293711, Poly_aftertouch_c, 0, 71, 0
1, 1293723, Note_on_c, 0, 58, 83
1, 1293750, Note_off_c, 0, 58, 68
1, 1293762, Control_c, 0, 64, 82
1, 1293776, Control_c, 0, 64, 62
1, 1293791, Control_c, 0, 64, 0
1, 1293846, Note_on_c, 0, 84, 81
1, 1293853, Note_on_c, 0, 72, 77
1, 1293869, Note_on_c, 0, 57, 58
1, 1293940, Control_c, 0, 64, 55
1, 1293955, Note_off_c, 0, 57, 58
1, 1293955, Control_c, 0, 64, 62
1, 1293968, Note_on_c, 0, 82, 84
1, 1293970, Control_c, 0, 64, 64
1, 1293977, Note_on_c, 0, 58, 65
1, 1293985, Control_c, 0, 64, 66
1, 1294000, Control_c, 0, 64, 66
1, 1294009, Note_off_c, 0, 72, 62
1, 1294012, Note_off_c, 0, 84, 63
1, 1294015, Control_c, 0, 64, 67
1, 1294044, Control_c, 0, 64, 66
1, 1294059, Control_c, 0, 64, 64
1, 1294072, Note_off_c, 0, 82, 61
1, 1294074, Control_c, 0, 64, 56
1, 1294078, Note_off_c, 0, 58, 59
1, 1294087, Note_on_c, 0, 74, 87
1, 1294088, Note_on_c, 0, 59, 62
1, 1294089, Control_c, 0, 64, 33
1, 1294103, Control_c, 0, 64, 0
1, 1294148, Control_c, 0, 64, 45
1, 1294153, Note_off_c, 0, 59, 59
1, 1294162, Control_c, 0, 64, 61
1, 1294177, Control_c, 0, 64, 68
1, 1294192, Note_on_c, 0, 76, 91
1, 1294192, Control_c, 0, 64, 74
1, 1294201, Note_on_c, 0, 60, 68
1, 1294207, Control_c, 0, 64, 78
1, 1294215, Note_off_c, 0, 74, 59
1, 1294222, Control_c, 0, 64, 81
1, 1294244, Control_c, 0, 64, 83
1, 1294274, Control_c, 0, 64, 80
1, 1294289, Control_c, 0, 64, 67
1, 1294304, Control_c, 0, 64, 49
1, 1294311, Note_off_c, 0, 60, 60
1, 1294315, Note_on_c, 0, 81, 91
1, 1294317, Note_on_c, 0, 61, 69
1, 1294318, Note_off_c, 0, 76, 60
1, 1294318, Control_c, 0, 64, 0
1, 1294322, Note_on_c, 0, 69, 84
1, 1294348, Control_c, 0, 64, 41
1, 1294362, Control_c, 0, 64, 57
1, 1294377, Control_c, 0, 64, 65
1, 1294392, Control_c, 0, 64, 69
1, 1294407, Control_c, 0, 64, 72
1, 1294421, Note_on_c, 0, 63, 81
1, 1294422, Control_c, 0, 64, 75
1, 1294423, Note_on_c, 0, 79, 97
1, 1294423, Note_off_c, 0, 61, 60
1, 1294425, Note_off_c, 0, 81, 59
1, 1294437, Control_c, 0, 64, 80
1, 1294452, Control_c, 0, 64, 87
1, 1294456, Note_off_c, 0, 79, 70
1, 1294467, Control_c, 0, 64, 94
1, 1294474, Note_off_c, 0, 69, 25
1, 1294482, Control_c, 0, 64, 99
1, 1294487, Note_off_c, 0, 63, 65
1, 1294511, Control_c, 0, 64, 93
1, 1294522, Note_on_c, 0, 64, 66
1, 1294526, Control_c, 0, 64, 72
1, 1294537, Note_on_c, 0, 65, 70
1, 1294541, Control_c, 0, 64, 40
1, 1294555, Note_on_c, 0, 82, 110
1, 1294556, Control_c, 0, 64, 0
1, 1294560, Note_on_c, 0, 70, 91
1, 1294570, Control_c, 0, 64, 30
1, 1294584, Note_off_c, 0, 70, 69
1, 1294584, Note_off_c, 0, 82, 70
1, 1294585, Control_c, 0, 64, 53
1, 1294598, Note_off_c, 0, 64, 0
1, 1294598, Note_off_c, 0, 65, 0
1, 1294600, Control_c, 0, 64, 67
1, 1294611, Note_on_c, 0, 65, 69
1, 1294616, Control_c, 0, 64, 77
1, 1294631, Control_c, 0, 64, 90
1, 1294635, Poly_aftertouch_c, 0, 64, 0
1, 1294646, Control_c, 0, 64, 97
1, 1294660, Control_c, 0, 64, 101
1, 1294681, Note_on_c, 0, 66, 88
1, 1294687, Note_off_c, 0, 65, 64
1, 1294690, Control_c, 0, 64, 103
1, 1294720, Note_off_c, 0, 66, 67
1, 1294734, Control_c, 0, 64, 107
1, 1294748, Note_on_c, 0, 69, 84
1, 1294749, Control_c, 0, 64, 110
1, 1294764, Control_c, 0, 64, 115
1, 1294778, Control_c, 0, 64, 117
1, 1294793, Control_c, 0, 64, 121
1, 1294794, Note_on_c, 0, 77, 90
1, 1294797, Note_off_c, 0, 69, 65
1, 1294808, Control_c, 0, 64, 127
1, 1294823, Note_on_c, 0, 72, 93
1, 1294847, Note_off_c, 0, 77, 64
1, 1294885, Note_on_c, 0, 78, 95
1, 1294893, Note_off_c, 0, 72, 65
1, 1294894, Note_on_c, 0, 73, 96
1, 1294921, Note_off_c, 0, 78, 69
1, 1294939, Note_off_c, 0, 73, 69
1, 1295000, Note_on_c, 0, 77, 106
1, 1295011, Note_on_c, 0, 89, 111
1, 1295040, Note_off_c, 0, 77, 70
1, 1295045, Note_off_c, 0, 89, 71
1, 1295171, Control_c, 0, 64, 85
1, 1295186, Control_c, 0, 64, 58
1, 1295201, Control_c, 0, 64, 0
1, 1295270, Note_on_c, 0, 36, 105
1, 1295305, Control_c, 0, 64, 56
1, 1295312, Note_off_c, 0, 36, 66
1, 1295319, Control_c, 0, 64, 104
1, 1295334, Control_c, 0, 64, 127
1, 1295454, Control_c, 0, 64, 91
1, 1295469, Control_c, 0, 64, 56
1, 1295483, Control_c, 0, 64, 0
1, 1295565, Note_on_c, 0, 53, 103
1, 1295577, Note_on_c, 0, 41, 100
1, 1295631, Control_c, 0, 64, 74
1, 1295646, Control_c, 0, 64, 127
1, 1295666, Note_on_c, 0, 45, 91
1, 1295667, Note_on_c, 0, 57, 93
1, 1295671, Poly_aftertouch_c, 0, 61, 127
1, 1295675, Note_off_c, 0, 53, 63
1, 1295678, Note_on_c, 0, 61, 11
1, 1295714, Note_off_c, 0, 61, 44
1, 1295715, Note_off_c, 0, 41, 55
1, 1295747, Note_on_c, 0, 60, 91
1, 1295753, Note_off_c, 0, 57, 63
1, 1295754, Note_on_c, 0, 48, 89
1, 1295761, Note_off_c, 0, 45, 65
1, 1295777, Note_off_c, 0, 60, 67
1, 1295803, Note_off_c, 0, 48, 65
1, 1295825, Note_on_c, 0, 53, 77
1, 1295828, Note_on_c, 0, 65, 96
1, 1295851, Note_off_c, 0, 53, 67
1, 1295884, Note_off_c, 0, 65, 65
1, 1295894, Note_on_c, 0, 77, 90
1, 1295900, Note_on_c, 0, 57, 88
1, 1295920, Control_c, 0, 64, 89
1, 1295935, Control_c, 0, 64, 63
1, 1295949, Note_off_c, 0, 77, 63
1, 1295949, Control_c, 0, 64, 0
1, 1295963, Note_off_c, 0, 57, 63
1, 1295973, Note_on_c, 0, 60, 80
1, 1295978, Note_on_c, 0, 65, 83
1, 1296011, Note_off_c, 0, 65, 66
1, 1296029, Note_off_c, 0, 60, 65
1, 1296051, Note_on_c, 0, 77, 97
1, 1296069, Control_c, 0, 64, 31
1, 1296073, Note_on_c, 0, 65, 58
1, 1296083, Note_on_c, 0, 64, 37
1, 1296083, Control_c, 0, 64, 68
1, 1296098, Control_c, 0, 64, 81
1, 1296100, Note_off_c, 0, 65, 67
1, 1296112, Note_off_c, 0, 64, 61
1, 1296113, Control_c, 0, 64, 83
1, 1296128, Control_c, 0, 64, 84
1, 1296130, Note_on_c, 0, 60, 69
1, 1296133, Note_on_c, 0, 72, 88
1, 1296141, Note_off_c, 0, 77, 63
1, 1296157, Control_c, 0, 64, 86
1, 1296170, Note_off_c, 0, 60, 61
1, 1296172, Control_c, 0, 64, 86
1, 1296196, Note_on_c, 0, 57, 67
1, 1296210, Note_on_c, 0, 69, 84
1, 1296214, Note_off_c, 0, 72, 64
1, 1296218, Control_c, 0, 64, 87
1, 1296232, Control_c, 0, 64, 89
1, 1296234, Note_off_c, 0, 57, 63
1, 1296247, Control_c, 0, 64, 91
1, 1296254, Note_off_c, 0, 69, 63
1, 1296262, Control_c, 0, 64, 93
1, 1296277, Control_c, 0, 64, 96
1, 1296283, Note_on_c, 0, 65, 84
1, 1296290, Note_on_c, 0, 53, 68
1, 1296292, Control_c, 0, 64, 102
1, 1296306, Control_c, 0, 64, 116
1, 1296321, Control_c, 0, 64, 127
1, 1296322, Note_off_c, 0, 65, 63
1, 1296351, Note_off_c, 0, 53, 58
1, 1296356, Note_on_c, 0, 48, 78
1, 1296361, Note_on_c, 0, 60, 79
1, 1296365, Control_c, 0, 64, 113
1, 1296380, Control_c, 0, 64, 93
1, 1296395, Control_c, 0, 64, 77
1, 1296409, Note_off_c, 0, 48, 63
1, 1296410, Control_c, 0, 64, 63
1, 1296425, Control_c, 0, 64, 0
1, 1296426, Note_on_c, 0, 45, 80
1, 1296429, Note_on_c, 0, 57, 85
1, 1296438, Note_off_c, 0, 60, 65
1, 1296489, Note_off_c, 0, 45, 63
1, 1296500, Note_off_c, 0, 57, 65
1, 1296521, Note_on_c, 0, 41, 101
1, 1296528, Note_on_c, 0, 53, 95
1, 1296551, Control_c, 0, 64, 33
1, 1296565, Control_c, 0, 64, 63
1, 1296580, Control_c, 0, 64, 101
1, 1296595, Control_c, 0, 64, 127
1, 1296608, Note_off_c, 0, 53, 64
1, 1296611, Note_on_c, 0, 45, 89
1, 1296612, Note_on_c, 0, 57, 89
1, 1296635, Note_off_c, 0, 41, 61
1, 1296679, Note_on_c, 0, 60, 85
1, 1296681, Note_off_c, 0, 57, 64
1, 1296685, Note_on_c, 0, 48, 87
1, 1296687, Note_off_c, 0, 45, 64
1, 1296719, Note_off_c, 0, 60, 67
1, 1296735, Note_off_c, 0, 48, 65
1, 1296755, Note_on_c, 0, 52, 73
1, 1296769, Note_on_c, 0, 64, 91
1, 1296782, Note_off_c, 0, 52, 68
1, 1296818, Control_c, 0, 64, 122
1, 1296825, Note_off_c, 0, 64, 64
1, 1296832, Control_c, 0, 64, 75
1, 1296838, Note_on_c, 0, 57, 80
1, 1296841, Note_on_c, 0, 76, 90
1, 1296847, Control_c, 0, 64, 59
1, 1296862, Control_c, 0, 64, 47
1, 1296877, Control_c, 0, 64, 42
1, 1296891, Control_c, 0, 64, 33
1, 1296898, Note_off_c, 0, 57, 63
1, 1296900, Note_off_c, 0, 76, 61
1, 1296906, Control_c, 0, 64, 0
1, 1296914, Note_on_c, 0, 60, 78
1, 1296914, Note_on_c, 0, 64, 78
1, 1296929, Note_on_c, 0, 68, 59
1, 1296953, Note_off_c, 0, 68, 57
1, 1296957, Note_off_c, 0, 64, 62
1, 1296967, Note_off_c, 0, 60, 63
1, 1296987, Note_on_c, 0, 64, 64
1, 1296987, Note_on_c, 0, 76, 105
1, 1297011, Control_c, 0, 64, 60
1, 1297026, Control_c, 0, 64, 80
1, 1297041, Note_off_c, 0, 64, 62
1, 1297041, Control_c, 0, 64, 98
1, 1297055, Control_c, 0, 64, 127
1, 1297065, Note_on_c, 0, 72, 85
1, 1297068, Note_on_c, 0, 60, 70
1, 1297073, Note_off_c, 0, 76, 63
1, 1297096, Note_off_c, 0, 60, 68
1, 1297134, Note_on_c, 0, 57, 62
1, 1297140, Note_on_c, 0, 69, 81
1, 1297148, Note_off_c, 0, 72, 63
1, 1297164, Note_off_c, 0, 57, 65
1, 1297178, Note_off_c, 0, 69, 62
1, 1297214, Note_on_c, 0, 64, 73
1, 1297218, Note_on_c, 0, 52, 71
1, 1297254, Note_off_c, 0, 64, 66
1, 1297267, Note_off_c, 0, 52, 60
1, 1297290, Note_on_c, 0, 60, 85
1, 1297299, Note_on_c, 0, 48, 68
1, 1297340, Note_off_c, 0, 48, 58
1, 1297345, Control_c, 0, 64, 112
1, 1297354, Note_on_c, 0, 45, 76
1, 1297359, Control_c, 0, 64, 82
1, 1297373, Note_on_c, 0, 57, 75
1, 1297374, Control_c, 0, 64, 62
1, 1297377, Note_off_c, 0, 60, 65
1, 1297389, Control_c, 0, 64, 0
1, 1297415, Note_off_c, 0, 45, 63
1, 1297433, Note_off_c, 0, 57, 64
1, 1297447, Note_on_c, 0, 41, 91
1, 1297452, Note_on_c, 0, 53, 97
1, 1297492, Control_c, 0, 64, 65
1, 1297506, Control_c, 0, 64, 104
1, 1297521, Control_c, 0, 64, 127
1, 1297526, Note_on_c, 0, 55, 87
1, 1297531, Note_off_c, 0, 53, 64
1, 1297534, Note_on_c, 0, 43, 86
1, 1297559, Note_off_c, 0, 41, 61
1, 1297586, Note_on_c, 0, 60, 85
1, 1297588, Note_off_c, 0, 55, 64
1, 1297601, Note_off_c, 0, 43, 64
1, 1297604, Note_on_c, 0, 48, 84
1, 1297625, Note_off_c, 0, 60, 66
1, 1297652, Note_off_c, 0, 48, 63
1, 1297671, Note_on_c, 0, 50, 52
1, 1297674, Note_on_c, 0, 62, 89
1, 1297699, Note_off_c, 0, 50, 55
1, 1297729, Control_c, 0, 64, 80
1, 1297732, Note_off_c, 0, 62, 62
1, 1297741, Note_on_c, 0, 55, 77
1, 1297744, Control_c, 0, 64, 58
1, 1297750, Note_on_c, 0, 74, 93
1, 1297759, Control_c, 0, 64, 0
1, 1297801, Note_off_c, 0, 74, 57
1, 1297815, Note_off_c, 0, 55, 63
1, 1297819, Note_on_c, 0, 62, 85
1, 1297825, Note_on_c, 0, 58, 75
1, 1297827, Note_on_c, 0, 66, 71
1, 1297864, Note_off_c, 0, 62, 61
1, 1297879, Note_off_c, 0, 58, 60
1, 1297899, Note_on_c, 0, 74, 98
1, 1297902, Note_on_c, 0, 62, 54
1, 1297912, Note_off_c, 0, 66, 54
1, 1297937, Control_c, 0, 64, 37
1, 1297952, Control_c, 0, 64, 70
1, 1297957, Note_off_c, 0, 62, 61
1, 1297959, Note_on_c, 0, 58, 57
1, 1297967, Control_c, 0, 64, 87
1, 1297971, Note_on_c, 0, 70, 87
1, 1297975, Note_off_c, 0, 74, 64
1, 1297989, Control_c, 0, 64, 96
1, 1297992, Note_off_c, 0, 58, 67
1, 1298028, Note_on_c, 0, 55, 67
1, 1298054, Note_on_c, 0, 67, 80
1, 1298058, Note_off_c, 0, 55, 64
1, 1298066, Note_off_c, 0, 70, 64
1, 1298084, Note_off_c, 0, 67, 64
1, 1298117, Note_on_c, 0, 50, 68
1, 1298124, Note_on_c, 0, 62, 75
1, 1298154, Note_off_c, 0, 62, 63
1, 1298157, Note_off_c, 0, 50, 54
1, 1298189, Note_on_c, 0, 46, 75
1, 1298192, Note_on_c, 0, 58, 79
1, 1298226, Control_c, 0, 64, 94
1, 1298238, Note_off_c, 0, 46, 66
1, 1298241, Control_c, 0, 64, 88
1, 1298253, Note_on_c, 0, 43, 72
1, 1298256, Control_c, 0, 64, 75
1, 1298263, Note_on_c, 0, 55, 81
1, 1298271, Control_c, 0, 64, 57
1, 1298275, Note_off_c, 0, 58, 64
1, 1298285, Control_c, 0, 64, 0
1, 1298307, Note_off_c, 0, 43, 63
1, 1298310, Note_off_c, 0, 55, 66
1, 1298340, Note_on_c, 0, 41, 88
1, 1298346, Note_on_c, 0, 53, 87
1, 1298374, Control_c, 0, 64, 48
1, 1298389, Control_c, 0, 64, 84
1, 1298392, Note_off_c, 0, 53, 60
1, 1298403, Control_c, 0, 64, 127
1, 1298415, Note_off_c, 0, 41, 59
1, 1298416, Note_on_c, 0, 43, 83
1, 1298418, Note_on_c, 0, 67, 90
1, 1298418, Control_c, 0, 64, 103
1, 1298433, Control_c, 0, 64, 68
1, 1298448, Control_c, 0, 64, 51
1, 1298450, Poly_aftertouch_c, 0, 55, 0
1, 1298451, Note_off_c, 0, 67, 69
1, 1298462, Control_c, 0, 64, 52
1, 1298477, Control_c, 0, 64, 63
1, 1298486, Note_on_c, 0, 48, 80
1, 1298487, Note_off_c, 0, 43, 64
1, 1298492, Note_on_c, 0, 65, 68
1, 1298492, Note_on_c, 0, 67, 74
1, 1298492, Control_c, 0, 64, 70
1, 1298507, Control_c, 0, 64, 71
1, 1298515, Note_off_c, 0, 67, 67
1, 1298519, Note_off_c, 0, 65, 67
1, 1298522, Control_c, 0, 64, 66
1, 1298532, Note_off_c, 0, 48, 63
1, 1298537, Control_c, 0, 64, 57
1, 1298540, Note_on_c, 0, 50, 63
1, 1298552, Control_c, 0, 64, 44
1, 1298564, Note_on_c, 0, 67, 87
1, 1298567, Control_c, 0, 64, 0
1, 1298567, Note_off_c, 0, 50, 65
1, 1298618, Note_off_c, 0, 67, 65
1, 1298620, Note_on_c, 0, 55, 83
1, 1298634, Note_on_c, 0, 79, 93
1, 1298667, Note_off_c, 0, 79, 71
1, 1298707, Note_on_c, 0, 79, 98
1, 1298715, Note_off_c, 0, 55, 58
1, 1298744, Poly_aftertouch_c, 0, 77, 0
1, 1298748, Note_off_c, 0, 79, 72
1, 1298762, Note_on_c, 0, 58, 17
1, 1298772, Note_on_c, 0, 62, 75
1, 1298781, Note_on_c, 0, 79, 107
1, 1298815, Note_off_c, 0, 79, 72
1, 1298817, Note_off_c, 0, 58, 0
1, 1298817, Note_on_c, 0, 58, 19
1, 1298827, Control_c, 0, 64, 76
1, 1298838, Note_off_c, 0, 62, 62
1, 1298841, Control_c, 0, 64, 127
1, 1298871, Note_off_c, 0, 58, 63
1, 1298886, Control_c, 0, 64, 103
1, 1298886, Note_on_c, 0, 55, 77
1, 1298901, Control_c, 0, 64, 77
1, 1298910, Note_off_c, 0, 55, 67
1, 1298915, Control_c, 0, 64, 52
1, 1298930, Control_c, 0, 64, 0
1, 1298941, Note_on_c, 0, 67, 92
1, 1298951, Note_on_c, 0, 65, 72
1, 1298954, Note_off_c, 0, 67, 70
1, 1298968, Note_off_c, 0, 65, 41
1, 1298969, Note_on_c, 0, 50, 82
1, 1299002, Note_on_c, 0, 67, 82
1, 1299005, Control_c, 0, 64, 46
1, 1299006, Note_on_c, 0, 65, 97
1, 1299020, Control_c, 0, 64, 102
1, 1299034, Control_c, 0, 64, 127
1, 1299035, Note_off_c, 0, 67, 68
1, 1299039, Note_on_c, 0, 41, 86
1, 1299039, Note_off_c, 0, 50, 58
1, 1299042, Note_off_c, 0, 65, 58
1, 1299064, Control_c, 0, 64, 66
1, 1299078, Control_c, 0, 64, 0
1, 1299119, Note_off_c, 0, 41, 61
1, 1299127, Note_on_c, 0, 46, 86
1, 1299177, Note_on_c, 0, 55, 74
1, 1299181, Note_off_c, 0, 46, 61
1, 1299204, Note_off_c, 0, 55, 65
1, 1299264, Note_on_c, 0, 52, 79
1, 1299270, Note_on_c, 0, 38, 58
1, 1299275, Note_on_c, 0, 40, 62
1, 1299285, Control_c, 0, 64, 59
1, 1299300, Control_c, 0, 64, 66
1, 1299314, Note_off_c, 0, 38, 64
1, 1299315, Control_c, 0, 64, 47
1, 1299329, Note_off_c, 0, 52, 61
1, 1299330, Control_c, 0, 64, 0
1, 1299348, Note_on_c, 0, 55, 71
1, 1299356, Note_on_c, 0, 43, 70
1, 1299360, Control_c, 0, 64, 32
1, 1299375, Control_c, 0, 64, 56
1, 1299389, Note_off_c, 0, 55, 64
1, 1299389, Control_c, 0, 64, 62
1, 1299405, Control_c, 0, 64, 62
1, 1299418, Note_on_c, 0, 59, 61
1, 1299420, Note_off_c, 0, 43, 63
1, 1299420, Control_c, 0, 64, 61
1, 1299422, Note_on_c, 0, 47, 60
1, 1299435, Control_c, 0, 64, 61
1, 1299437, Note_off_c, 0, 59, 64
1, 1299447, Note_off_c, 0, 40, 59
1, 1299464, Control_c, 0, 64, 62
1, 1299478, Note_off_c, 0, 47, 63
1, 1299487, Control_c, 0, 64, 64
1, 1299501, Control_c, 0, 64, 65
1, 1299504, Note_on_c, 0, 52, 61
1, 1299516, Control_c, 0, 64, 65
1, 1299521, Note_on_c, 0, 64, 49
1, 1299532, Note_off_c, 0, 52, 65
1, 1299542, Note_on_c, 0, 62, 30
1, 1299545, Note_off_c, 0, 64, 61
1, 1299561, Control_c, 0, 64, 65
1, 1299572, Note_on_c, 0, 76, 81
1, 1299575, Control_c, 0, 64, 64
1, 1299580, Note_off_c, 0, 62, 30
1, 1299590, Control_c, 0, 64, 63
1, 1299598, Note_on_c, 0, 55, 64
1, 1299605, Control_c, 0, 64, 62
1, 1299625, Note_off_c, 0, 76, 63
1, 1299635, Control_c, 0, 64, 61
1, 1299638, Note_off_c, 0, 55, 61
1, 1299640, Note_on_c, 0, 64, 67
1, 1299649, Control_c, 0, 64, 59
1, 1299660, Note_on_c, 0, 59, 70
1, 1299664, Control_c, 0, 64, 54
1, 1299676, Note_off_c, 0, 64, 64
1, 1299680, Control_c, 0, 64, 48
1, 1299695, Control_c, 0, 64, 42
1, 1299709, Control_c, 0, 64, 39
1, 1299710, Note_off_c, 0, 59, 61
1, 1299724, Control_c, 0, 64, 42
1, 1299728, Note_on_c, 0, 76, 80
1, 1299739, Control_c, 0, 64, 46
1, 1299750, Note_on_c, 0, 64, 57
1, 1299754, Control_c, 0, 64, 50
1, 1299769, Control_c, 0, 64, 54
1, 1299776, Note_off_c, 0, 64, 63
1, 1299783, Control_c, 0, 64, 58
1, 1299798, Control_c, 0, 64, 60
1, 1299805, Note_off_c, 0, 76, 61
1, 1299806, Note_on_c, 0, 71, 75
1, 1299813, Control_c, 0, 64, 62
1, 1299815, Note_on_c, 0, 59, 51
1, 1299828, Control_c, 0, 64, 64
1, 1299843, Control_c, 0, 64, 65
1, 1299849, Note_off_c, 0, 59, 66
1, 1299857, Control_c, 0, 64, 67
1, 1299872, Control_c, 0, 64, 69
1, 1299881, Note_on_c, 0, 55, 68
1, 1299881, Note_on_c, 0, 67, 75
1, 1299884, Note_off_c, 0, 71, 64
1, 1299887, Control_c, 0, 64, 72
1, 1299902, Control_c, 0, 64, 76
1, 1299906, Note_off_c, 0, 55, 65
1, 1299914, Note_off_c, 0, 67, 65
1, 1299917, Control_c, 0, 64, 82
1, 1299932, Control_c, 0, 64, 89
1, 1299947, Control_c, 0, 64, 105
1, 1299948, Note_on_c, 0, 64, 80
1, 1299956, Note_on_c, 0, 52, 83
1, 1299962, Control_c, 0, 64, 127
1, 1299971, Note_off_c, 0, 64, 68
1, 1300011, Note_off_c, 0, 52, 61
1, 1300027, Note_on_c, 0, 47, 81
1, 1300027, Note_on_c, 0, 59, 70
1, 1300028, Note_on_c, 0, 57, 79
1, 1300035, Control_c, 0, 64, 105
1, 1300050, Control_c, 0, 64, 68
1, 1300065, Control_c, 0, 64, 0
1, 1300069, Note_off_c, 0, 47, 67
1, 1300073, Note_on_c, 0, 43, 82
1, 1300082, Note_on_c, 0, 55, 89
1, 1300090, Note_off_c, 0, 57, 62
1, 1300090, Note_off_c, 0, 59, 63
1, 1300137, Note_off_c, 0, 55, 65
1, 1300139, Note_off_c, 0, 43, 64
1, 1300178, Note_on_c, 0, 40, 97
1, 1300180, Note_on_c, 0, 52, 99
1, 1300236, Control_c, 0, 64, 54
1, 1300251, Control_c, 0, 64, 74
1, 1300264, Note_on_c, 0, 56, 86
1, 1300266, Control_c, 0, 64, 80
1, 1300278, Note_on_c, 0, 44, 85
1, 1300278, Note_off_c, 0, 52, 61
1, 1300281, Control_c, 0, 64, 88
1, 1300296, Control_c, 0, 64, 92
1, 1300302, Note_off_c, 0, 40, 60
1, 1300311, Control_c, 0, 64, 108
1, 1300325, Control_c, 0, 64, 127
1, 1300335, Note_on_c, 0, 59, 88
1, 1300340, Note_on_c, 0, 47, 89
1, 1300346, Note_off_c, 0, 56, 64
1, 1300355, Note_off_c, 0, 44, 64
1, 1300370, Note_off_c, 0, 59, 67
1, 1300409, Note_off_c, 0, 47, 64
1, 1300424, Note_on_c, 0, 51, 83
1, 1300435, Note_on_c, 0, 63, 93
1, 1300448, Note_off_c, 0, 51, 69
1, 1300492, Note_off_c, 0, 63, 65
1, 1300503, Control_c, 0, 64, 92
1, 1300504, Note_on_c, 0, 75, 87
1, 1300516, Note_on_c, 0, 56, 86
1, 1300518, Control_c, 0, 64, 50
1, 1300532, Control_c, 0, 64, 0
1, 1300572, Note_on_c, 0, 63, 93
1, 1300573, Note_off_c, 0, 56, 63
1, 1300587, Note_on_c, 0, 59, 78
1, 1300589, Note_off_c, 0, 75, 62
1, 1300625, Note_off_c, 0, 63, 64
1, 1300640, Note_off_c, 0, 59, 64
1, 1300652, Note_on_c, 0, 75, 97
1, 1300665, Control_c, 0, 64, 36
1, 1300667, Note_on_c, 0, 63, 69
1, 1300680, Control_c, 0, 64, 67
1, 1300695, Control_c, 0, 64, 68
1, 1300707, Note_on_c, 0, 74, 72
1, 1300710, Note_off_c, 0, 63, 62
1, 1300710, Control_c, 0, 64, 62
1, 1300725, Control_c, 0, 64, 62
1, 1300734, Note_on_c, 0, 71, 84
1, 1300738, Note_on_c, 0, 59, 61
1, 1300740, Control_c, 0, 64, 68
1, 1300746, Note_off_c, 0, 75, 53
1, 1300750, Note_off_c, 0, 74, 57
1, 1300755, Control_c, 0, 64, 77
1, 1300770, Control_c, 0, 64, 89
1, 1300785, Control_c, 0, 64, 98
1, 1300785, Note_off_c, 0, 59, 63
1, 1300798, Note_on_c, 0, 56, 73
1, 1300799, Control_c, 0, 64, 101
1, 1300802, Note_on_c, 0, 68, 88
1, 1300820, Note_off_c, 0, 71, 65
1, 1300826, Note_off_c, 0, 56, 64
1, 1300844, Note_off_c, 0, 68, 67
1, 1300858, Control_c, 0, 67, 20
1, 1300867, Note_on_c, 0, 63, 82
1, 1300870, Note_on_c, 0, 51, 83
1, 1300873, Control_c, 0, 67, 29
1, 1300887, Note_off_c, 0, 63, 71
1, 1300888, Control_c, 0, 64, 95
1, 1300888, Control_c, 0, 67, 36
1, 1300903, Control_c, 0, 64, 76
1, 1300903, Control_c, 0, 67, 41
1, 1300918, Control_c, 0, 64, 46
1, 1300918, Control_c, 0, 67, 47
1, 1300932, Control_c, 0, 64, 0
1, 1300932, Control_c, 0, 67, 55
1, 1300937, Note_off_c, 0, 51, 60
1, 1300943, Note_on_c, 0, 59, 78
1, 1300947, Control_c, 0, 67, 61
1, 1300957, Note_on_c, 0, 47, 65
1, 1300962, Control_c, 0, 67, 65
1, 1300984, Control_c, 0, 67, 66
1, 1301024, Note_off_c, 0, 59, 62
1, 1301035, Note_off_c, 0, 47, 60
1, 1301038, Note_on_c, 0, 44, 70
1, 1301039, Note_on_c, 0, 57, 75
1, 1301074, Control_c, 0, 67, 65
1, 1301086, Note_off_c, 0, 57, 62
1, 1301103, Control_c, 0, 67, 65
1, 1301109, Note_on_c, 0, 52, 78
1, 1301120, Note_off_c, 0, 44, 63
1, 1301124, Note_on_c, 0, 40, 69
1, 1301133, Control_c, 0, 64, 41
1, 1301148, Control_c, 0, 64, 49
1, 1301163, Control_c, 0, 64, 0
1, 1301178, Control_c, 0, 67, 65
1, 1301183, Note_on_c, 0, 54, 83
1, 1301190, Note_off_c, 0, 52, 60
1, 1301198, Note_on_c, 0, 42, 73
1, 1301201, Note_off_c, 0, 40, 63
1, 1301237, Note_off_c, 0, 54, 65
1, 1301237, Control_c, 0, 64, 51
1, 1301247, Note_on_c, 0, 59, 77
1, 1301252, Control_c, 0, 64, 59
1, 1301260, Note_off_c, 0, 42, 64
1, 1301267, Control_c, 0, 64, 61
1, 1301267, Note_on_c, 0, 47, 66
1, 1301276, Note_off_c, 0, 59, 66
1, 1301281, Control_c, 0, 64, 64
1, 1301296, Control_c, 0, 64, 67
1, 1301311, Control_c, 0, 64, 69
1, 1301317, Note_off_c, 0, 47, 62
1, 1301326, Control_c, 0, 67, 66
1, 1301328, Note_on_c, 0, 49, 70
1, 1301332, Note_on_c, 0, 61, 87
1, 1301354, Note_off_c, 0, 49, 65
1, 1301355, Control_c, 0, 64, 68
1, 1301370, Control_c, 0, 64, 68
1, 1301385, Control_c, 0, 64, 65
1, 1301391, Note_off_c, 0, 61, 62
1, 1301399, Control_c, 0, 64, 58
1, 1301402, Note_on_c, 0, 73, 84
1, 1301413, Note_on_c, 0, 54, 78
1, 1301414, Control_c, 0, 64, 0
1, 1301466, Note_off_c, 0, 73, 60
1, 1301474, Note_off_c, 0, 54, 62
1, 1301476, Note_on_c, 0, 61, 78
1, 1301486, Note_on_c, 0, 57, 76
1, 1301524, Note_off_c, 0, 61, 60
1, 1301534, Note_off_c, 0, 57, 61
1, 1301547, Note_on_c, 0, 73, 93
1, 1301558, Note_on_c, 0, 61, 71
1, 1301563, Control_c, 0, 67, 66
1, 1301577, Control_c, 0, 64, 35
1, 1301577, Control_c, 0, 67, 69
1, 1301592, Control_c, 0, 64, 62
1, 1301592, Control_c, 0, 67, 71
1, 1301607, Control_c, 0, 64, 52
1, 1301607, Control_c, 0, 67, 75
1, 1301610, Note_off_c, 0, 61, 61
1, 1301620, Note_off_c, 0, 73, 62
1, 1301622, Control_c, 0, 64, 0
1, 1301622, Control_c, 0, 67, 79
1, 1301625, Note_on_c, 0, 69, 68
1, 1301637, Note_on_c, 0, 57, 63
1, 1301637, Control_c, 0, 67, 82
1, 1301652, Control_c, 0, 67, 85
1, 1301667, Control_c, 0, 67, 86
1, 1301681, Control_c, 0, 67, 86
1, 1301695, Note_off_c, 0, 57, 62
1, 1301698, Note_on_c, 0, 66, 76
1, 1301701, Note_off_c, 0, 69, 63
1, 1301710, Note_on_c, 0, 54, 64
1, 1301747, Note_off_c, 0, 66, 63
1, 1301777, Note_off_c, 0, 54, 62
1, 1301792, Control_c, 0, 67, 87
1, 1301799, Note_on_c, 0, 69, 78
1, 1301807, Note_on_c, 0, 57, 69
1, 1301808, Control_c, 0, 67, 88
1, 1301823, Control_c, 0, 67, 92
1, 1301838, Control_c, 0, 67, 98
1, 1301846, Note_off_c, 0, 57, 62
1, 1301852, Control_c, 0, 67, 105
1, 1301867, Control_c, 0, 67, 109
1, 1301868, Note_off_c, 0, 69, 61
1, 1301869, Note_on_c, 0, 65, 62
1, 1301879, Note_on_c, 0, 53, 59
1, 1301882, Control_c, 0, 67, 114
1, 1301897, Control_c, 0, 67, 117
1, 1301911, Control_c, 0, 67, 122
1, 1301923, Note_off_c, 0, 53, 63
1, 1301926, Control_c, 0, 67, 126
1, 1301938, Note_off_c, 0, 65, 62
1, 1301943, Note_on_c, 0, 62, 64
1, 1301974, Note_on_c, 0, 50, 29
1, 1301999, Note_off_c, 0, 62, 55
1, 1302002, Note_off_c, 0, 50, 47
1, 1302037, Note_on_c, 0, 69, 63
1, 1302046, Note_on_c, 0, 54, 69
1, 1302085, Note_off_c, 0, 69, 56
1, 1302088, Note_off_c, 0, 54, 62
1, 1302119, Note_on_c, 0, 66, 62
1, 1302171, Note_off_c, 0, 66, 57
1, 1302182, Note_on_c, 0, 61, 62
1, 1302196, Note_on_c, 0, 45, 55
1, 1302240, Note_off_c, 0, 61, 62
1, 1302242, Note_off_c, 0, 45, 64
1, 1302272, Note_on_c, 0, 50, 52
1, 1302278, Note_on_c, 0, 65, 68
1, 1302316, Note_off_c, 0, 50, 62
1, 1302333, Note_off_c, 0, 65, 63
1, 1302341, Note_on_c, 0, 62, 58
1, 1302344, Note_on_c, 0, 45, 59
1, 1302373, Note_off_c, 0, 62, 64
1, 1302379, Note_off_c, 0, 45, 63
1, 1302423, Note_on_c, 0, 41, 51
1, 1302426, Note_on_c, 0, 57, 54
1, 1302460, Note_off_c, 0, 41, 57
1, 1302482, Note_off_c, 0, 57, 58
1, 1302507, Note_on_c, 0, 45, 62
1, 1302513, Note_on_c, 0, 61, 54
1, 1302550, Note_off_c, 0, 45, 59
1, 1302574, Note_off_c, 0, 61, 60
1, 1302585, Note_on_c, 0, 57, 63
1, 1302610, Note_on_c, 0, 41, 35
1, 1302627, Note_off_c, 0, 57, 63
1, 1302645, Note_off_c, 0, 41, 41
1, 1302664, Note_on_c, 0, 54, 68
1, 1302696, Note_off_c, 0, 54, 64
1, 1302732, Note_on_c, 0, 42, 45
1, 1302751, Note_on_c, 0, 57, 58
1, 1302769, Note_off_c, 0, 42, 62
1, 1302787, Note_off_c, 0, 57, 65
1, 1302794, Note_on_c, 0, 54, 59
1, 1302800, Note_on_c, 0, 37, 60
1, 1302832, Note_off_c, 0, 37, 63
1, 1302843, Note_off_c, 0, 54, 62
1, 1302865, Note_on_c, 0, 33, 21
1, 1302868, Note_on_c, 0, 49, 65
1, 1302892, Note_off_c, 0, 49, 68
1, 1302910, Note_off_c, 0, 33, 28
1, 1302993, Note_on_c, 0, 53, 76
1, 1302996, Note_on_c, 0, 50, 81
1, 1303277, Note_on_c, 0, 45, 88
1, 1303280, Note_on_c, 0, 33, 88
1, 1303299, Note_off_c, 0, 45, 70
1, 1303308, Note_off_c, 0, 33, 69
1, 1303412, Note_on_c, 0, 45, 71
1, 1303439, Note_off_c, 0, 45, 66
1, 1303536, Note_on_c, 0, 46, 82
1, 1303542, Note_on_c, 0, 34, 75
1, 1303559, Note_off_c, 0, 46, 67
1, 1303565, Note_off_c, 0, 34, 65
1, 1303661, Note_on_c, 0, 46, 54
1, 1303691, Note_off_c, 0, 46, 64
1, 1303703, Note_off_c, 0, 50, 56
1, 1303709, Note_off_c, 0, 53, 63
1, 1303780, Note_on_c, 0, 45, 65
1, 1303786, Note_on_c, 0, 33, 63
1, 1303803, Note_off_c, 0, 45, 64
1, 1303816, Note_off_c, 0, 33, 64
1, 1303891, Note_on_c, 0, 53, 73
1, 1303894, Note_on_c, 0, 45, 69
1, 1303898, Note_on_c, 0, 50, 73
1, 1303923, Note_off_c, 0, 45, 64
1, 1303929, Note_off_c, 0, 50, 64
1, 1303948, Note_off_c, 0, 53, 62
1, 1304022, Note_on_c, 0, 53, 66
1, 1304031, Note_on_c, 0, 50, 78
1, 1304031, Note_on_c, 0, 46, 68
1, 1304032, Note_on_c, 0, 34, 61
1, 1304056, Note_off_c, 0, 46, 66
1, 1304064, Note_off_c, 0, 34, 63
1, 1304100, Note_off_c, 0, 50, 0
1, 1304134, Note_on_c, 0, 50, 25
1, 1304143, Note_on_c, 0, 46, 68
1, 1304177, Note_off_c, 0, 46, 68
1, 1304279, Note_on_c, 0, 45, 67
1, 1304282, Note_on_c, 0, 33, 64
1, 1304309, Note_off_c, 0, 45, 65
1, 1304311, Note_off_c, 0, 33, 64
1, 1304408, Note_on_c, 0, 46, 75
1, 1304436, Note_off_c, 0, 46, 66
1, 1304525, Note_on_c, 0, 45, 73
1, 1304529, Note_on_c, 0, 33, 73
1, 1304554, Note_off_c, 0, 33, 65
1, 1304554, Note_off_c, 0, 45, 66
1, 1304653, Note_on_c, 0, 45, 67
1, 1304687, Note_off_c, 0, 45, 66
1, 1304732, Note_off_c, 0, 50, 45
1, 1304775, Note_off_c, 0, 53, 37
1, 1304782, Note_on_c, 0, 28, 73
1, 1304793, Note_on_c, 0, 40, 48
1, 1304807, Note_off_c, 0, 28, 64
1, 1304827, Note_off_c, 0, 40, 36
1, 1304847, Control_c, 0, 67, 113
1, 1304862, Control_c, 0, 67, 102
1, 1304877, Control_c, 0, 67, 92
1, 1304886, Note_on_c, 0, 53, 77
1, 1304889, Note_on_c, 0, 50, 68
1, 1304892, Control_c, 0, 67, 82
1, 1304895, Note_on_c, 0, 29, 76
1, 1304907, Control_c, 0, 67, 73
1, 1304919, Note_off_c, 0, 29, 65
1, 1304919, Note_off_c, 0, 50, 65
1, 1304921, Control_c, 0, 67, 65
1, 1304934, Note_off_c, 0, 53, 59
1, 1304936, Control_c, 0, 67, 56
1, 1304951, Control_c, 0, 67, 49
1, 1304966, Control_c, 0, 67, 43
1, 1304980, Control_c, 0, 67, 37
1, 1304996, Control_c, 0, 64, 32
1, 1304996, Control_c, 0, 67, 33
1, 1305011, Control_c, 0, 64, 36
1, 1305011, Control_c, 0, 67, 32
1, 1305013, Note_on_c, 0, 42, 90
1, 1305014, Note_on_c, 0, 53, 75
1, 1305015, Note_on_c, 0, 49, 79
1, 1305017, Note_on_c, 0, 30, 74
1, 1305026, Control_c, 0, 64, 0
1, 1305036, Note_on_c, 0, 29, 54
1, 1305038, Note_off_c, 0, 42, 70
1, 1305054, Note_off_c, 0, 30, 62
1, 1305070, Control_c, 0, 67, 32
1, 1305071, Note_off_c, 0, 29, 43
1, 1305085, Control_c, 0, 67, 33
1, 1305100, Control_c, 0, 67, 33
1, 1305128, Note_on_c, 0, 37, 89
1, 1305155, Note_off_c, 0, 37, 69
1, 1305256, Note_on_c, 0, 44, 86
1, 1305262, Control_c, 0, 67, 34
1, 1305284, Note_off_c, 0, 44, 69
1, 1305377, Note_on_c, 0, 42, 89
1, 1305402, Note_off_c, 0, 42, 70
1, 1305502, Note_on_c, 0, 45, 88
1, 1305542, Note_off_c, 0, 45, 63
1, 1305613, Note_on_c, 0, 48, 78
1, 1305640, Control_c, 0, 67, 34
1, 1305645, Note_off_c, 0, 48, 67
1, 1305655, Control_c, 0, 67, 35
1, 1305685, Control_c, 0, 67, 35
1, 1305721, Note_off_c, 0, 49, 60
1, 1305740, Note_on_c, 0, 45, 80
1, 1305757, Note_off_c, 0, 53, 57
1, 1305773, Note_off_c, 0, 45, 66
1, 1305773, Control_c, 0, 67, 36
1, 1305854, Note_on_c, 0, 41, 72
1, 1305858, Note_on_c, 0, 53, 75
1, 1305860, Note_on_c, 0, 49, 74
1, 1305894, Note_off_c, 0, 41, 54
1, 1305895, Note_off_c, 0, 53, 62
1, 1305897, Note_off_c, 0, 49, 62
1, 1305974, Note_on_c, 0, 42, 81
1, 1305984, Note_on_c, 0, 49, 81
1, 1305987, Note_on_c, 0, 53, 74
1, 1306005, Note_off_c, 0, 42, 67
1, 1306041, Control_c, 0, 67, 36
1, 1306056, Control_c, 0, 67, 37
1, 1306070, Control_c, 0, 67, 37
1, 1306085, Note_on_c, 0, 37, 75
1, 1306085, Control_c, 0, 67, 38
1, 1306115, Control_c, 0, 67, 38
1, 1306117, Note_off_c, 0, 37, 67
1, 1306203, Note_on_c, 0, 42, 72
1, 1306244, Note_off_c, 0, 42, 68
1, 1306330, Control_c, 0, 67, 38
1, 1306339, Note_on_c, 0, 44, 60
1, 1306359, Control_c, 0, 67, 37
1, 1306366, Note_off_c, 0, 44, 59
1, 1306374, Control_c, 0, 67, 36
1, 1306389, Control_c, 0, 67, 36
1, 1306433, Control_c, 0, 67, 35
1, 1306448, Control_c, 0, 67, 35
1, 1306461, Note_on_c, 0, 42, 77
1, 1306463, Control_c, 0, 64, 45
1, 1306463, Control_c, 0, 67, 34
1, 1306478, Control_c, 0, 64, 67
1, 1306493, Control_c, 0, 64, 74
1, 1306508, Control_c, 0, 64, 83
1, 1306513, Note_off_c, 0, 42, 64
1, 1306523, Control_c, 0, 64, 90
1, 1306538, Control_c, 0, 64, 102
1, 1306552, Control_c, 0, 64, 127
1, 1306567, Control_c, 0, 67, 34
1, 1306582, Control_c, 0, 67, 36
1, 1306597, Control_c, 0, 67, 37
1, 1306627, Control_c, 0, 67, 38
1, 1306642, Control_c, 0, 64, 95
1, 1306650, Note_off_c, 0, 49, 62
1, 1306657, Control_c, 0, 64, 71
1, 1306657, Control_c, 0, 67, 39
1, 1306672, Control_c, 0, 64, 46
1, 1306687, Control_c, 0, 64, 0
1, 1306732, Note_on_c, 0, 45, 74
1, 1306785, Note_off_c, 0, 45, 62
1, 1306797, Note_on_c, 0, 47, 70
1, 1306805, Control_c, 0, 64, 41
1, 1306805, Control_c, 0, 67, 38
1, 1306819, Control_c, 0, 64, 70
1, 1306819, Control_c, 0, 67, 38
1, 1306831, Note_on_c, 0, 48, 69
1, 1306834, Control_c, 0, 64, 87
1, 1306834, Control_c, 0, 67, 37
1, 1306840, Note_off_c, 0, 47, 64
1, 1306846, Note_on_c, 0, 46, 4
1, 1306846, Note_off_c, 0, 46, 127
1, 1306849, Control_c, 0, 64, 117
1, 1306849, Control_c, 0, 67, 37
1, 1306864, Control_c, 0, 64, 127
1, 1306864, Control_c, 0, 67, 36
1, 1306879, Control_c, 0, 67, 34
1, 1306884, Note_on_c, 0, 49, 87
1, 1306892, Note_off_c, 0, 53, 61
1, 1306893, Control_c, 0, 67, 33
1, 1306903, Poly_aftertouch_c, 0, 46, 0
1, 1306908, Control_c, 0, 67, 32
1, 1306916, Note_off_c, 0, 48, 63
1, 1306938, Note_on_c, 0, 53, 85
1, 1306938, Control_c, 0, 64, 108
1, 1306939, Note_off_c, 0, 49, 64
1, 1306940, Note_on_c, 0, 50, 97
1, 1306953, Control_c, 0, 64, 66
1, 1306975, Control_c, 0, 64, 0
1, 1306990, Control_c, 0, 67, 33
1, 1307005, Control_c, 0, 67, 35
1, 1307019, Control_c, 0, 67, 38
1, 1307034, Control_c, 0, 67, 40
1, 1307049, Control_c, 0, 67, 41
1, 1307137, Control_c, 0, 67, 40
1, 1307152, Control_c, 0, 67, 39
1, 1307168, Control_c, 0, 67, 39
1, 1307198, Control_c, 0, 67, 38
1, 1307212, Note_on_c, 0, 45, 91
1, 1307213, Control_c, 0, 67, 38
1, 1307219, Note_on_c, 0, 33, 75
1, 1307235, Note_off_c, 0, 45, 70
1, 1307252, Note_off_c, 0, 33, 66
1, 1307331, Control_c, 0, 67, 39
1, 1307338, Note_on_c, 0, 45, 92
1, 1307345, Control_c, 0, 67, 40
1, 1307360, Control_c, 0, 67, 40
1, 1307378, Note_off_c, 0, 45, 64
1, 1307436, Control_c, 0, 67, 40
1, 1307450, Control_c, 0, 67, 39
1, 1307459, Note_on_c, 0, 46, 93
1, 1307463, Note_on_c, 0, 34, 79
1, 1307465, Control_c, 0, 67, 39
1, 1307481, Note_off_c, 0, 46, 72
1, 1307492, Note_off_c, 0, 34, 67
1, 1307524, Control_c, 0, 67, 39
1, 1307539, Control_c, 0, 67, 40
1, 1307569, Control_c, 0, 67, 40
1, 1307584, Control_c, 0, 67, 41
1, 1307590, Note_on_c, 0, 46, 80
1, 1307599, Control_c, 0, 67, 41
1, 1307622, Note_off_c, 0, 46, 67
1, 1307668, Note_off_c, 0, 53, 50
1, 1307674, Note_off_c, 0, 50, 40
1, 1307688, Control_c, 0, 64, 52
1, 1307703, Control_c, 0, 64, 53
1, 1307705, Note_on_c, 0, 45, 80
1, 1307723, Note_on_c, 0, 33, 59
1, 1307724, Control_c, 0, 64, 0
1, 1307736, Note_off_c, 0, 45, 66
1, 1307739, Control_c, 0, 67, 41
1, 1307753, Note_off_c, 0, 33, 62
1, 1307754, Control_c, 0, 67, 40
1, 1307769, Control_c, 0, 67, 40
1, 1307828, Note_on_c, 0, 57, 75
1, 1307828, Control_c, 0, 67, 40
1, 1307830, Note_on_c, 0, 45, 66
1, 1307839, Note_on_c, 0, 50, 66
1, 1307839, Note_on_c, 0, 53, 62
1, 1307843, Control_c, 0, 67, 41
1, 1307858, Control_c, 0, 67, 41
1, 1307865, Note_off_c, 0, 45, 66
1, 1307873, Note_off_c, 0, 53, 61
1, 1307876, Note_off_c, 0, 50, 63
1, 1307888, Note_off_c, 0, 57, 62
1, 1307946, Control_c, 0, 67, 40
1, 1307951, Note_on_c, 0, 46, 82
1, 1307955, Note_on_c, 0, 34, 66
1, 1307960, Note_on_c, 0, 53, 74
1, 1307960, Control_c, 0, 67, 40
1, 1307962, Note_on_c, 0, 50, 74
1, 1307977, Note_off_c, 0, 46, 68
1, 1307989, Note_off_c, 0, 34, 63
1, 1308049, Control_c, 0, 67, 40
1, 1308064, Control_c, 0, 67, 41
1, 1308082, Note_on_c, 0, 46, 72
1, 1308109, Note_off_c, 0, 46, 66
1, 1308205, Note_on_c, 0, 45, 78
1, 1308213, Control_c, 0, 67, 41
1, 1308222, Note_on_c, 0, 33, 57
1, 1308234, Note_off_c, 0, 45, 66
1, 1308255, Note_off_c, 0, 33, 64
1, 1308328, Note_on_c, 0, 46, 81
1, 1308356, Note_off_c, 0, 46, 68
1, 1308445, Note_on_c, 0, 45, 79
1, 1308449, Note_on_c, 0, 33, 72
1, 1308451, Control_c, 0, 64, 37
1, 1308472, Control_c, 0, 64, 55
1, 1308472, Control_c, 0, 67, 41
1, 1308477, Note_off_c, 0, 45, 66
1, 1308487, Control_c, 0, 64, 46
1, 1308490, Note_off_c, 0, 33, 65
1, 1308502, Control_c, 0, 64, 0
1, 1308577, Control_c, 0, 64, 30
1, 1308577, Control_c, 0, 67, 42
1, 1308578, Note_on_c, 0, 45, 68
1, 1308591, Control_c, 0, 64, 0
1, 1308591, Control_c, 0, 67, 42
1, 1308615, Note_off_c, 0, 45, 66
1, 1308646, Note_off_c, 0, 50, 45
1, 1308654, Note_off_c, 0, 53, 53
1, 1308697, Note_on_c, 0, 40, 69
1, 1308702, Note_on_c, 0, 28, 66
1, 1308726, Note_off_c, 0, 40, 65
1, 1308732, Note_off_c, 0, 28, 62
1, 1308739, Control_c, 0, 67, 42
1, 1308754, Control_c, 0, 67, 41
1, 1308769, Control_c, 0, 67, 40
1, 1308784, Control_c, 0, 67, 39
1, 1308798, Control_c, 0, 67, 39
1, 1308806, Note_on_c, 0, 57, 76
1, 1308814, Note_on_c, 0, 50, 66
1, 1308817, Note_on_c, 0, 29, 79
1, 1308825, Note_on_c, 0, 41, 59
1, 1308828, Control_c, 0, 67, 38
1, 1308831, Note_on_c, 0, 53, 51
1, 1308843, Control_c, 0, 67, 37
1, 1308849, Note_off_c, 0, 29, 68
1, 1308849, Note_off_c, 0, 41, 59
1, 1308850, Note_off_c, 0, 50, 65
1, 1308857, Note_off_c, 0, 53, 59
1, 1308857, Control_c, 0, 67, 37
1, 1308863, Note_off_c, 0, 57, 64
1, 1308887, Control_c, 0, 67, 36
1, 1308931, Note_on_c, 0, 53, 77
1, 1308931, Control_c, 0, 64, 49
1, 1308933, Note_on_c, 0, 30, 88
1, 1308933, Note_on_c, 0, 42, 95
1, 1308934, Note_on_c, 0, 49, 87
1, 1308946, Control_c, 0, 64, 64
1, 1308961, Control_c, 0, 64, 58
1, 1308961, Control_c, 0, 67, 38
1, 1308966, Note_off_c, 0, 30, 66
1, 1308974, Note_off_c, 0, 42, 61
1, 1308976, Control_c, 0, 64, 0
1, 1308976, Control_c, 0, 67, 39
1, 1308992, Control_c, 0, 67, 41
1, 1309006, Control_c, 0, 67, 44
1, 1309021, Control_c, 0, 67, 45
1, 1309036, Control_c, 0, 67, 46
1, 1309051, Control_c, 0, 67, 48
1, 1309052, Note_on_c, 0, 37, 94
1, 1309066, Control_c, 0, 67, 49
1, 1309077, Note_off_c, 0, 37, 70
1, 1309110, Control_c, 0, 67, 47
1, 1309125, Control_c, 0, 67, 46
1, 1309140, Control_c, 0, 67, 45
1, 1309176, Note_on_c, 0, 44, 96
1, 1309219, Note_off_c, 0, 44, 65
1, 1309253, Note_off_c, 0, 49, 62
1, 1309295, Control_c, 0, 67, 44
1, 1309300, Note_on_c, 0, 42, 95
1, 1309325, Note_off_c, 0, 42, 70
1, 1309325, Control_c, 0, 64, 47
1, 1309325, Control_c, 0, 67, 44
1, 1309340, Control_c, 0, 64, 60
1, 1309342, Note_off_c, 0, 53, 64
1, 1309355, Control_c, 0, 64, 61
1, 1309399, Control_c, 0, 64, 62
1, 1309420, Note_on_c, 0, 53, 90
1, 1309429, Control_c, 0, 64, 61
1, 1309444, Control_c, 0, 64, 59
1, 1309459, Control_c, 0, 67, 43
1, 1309474, Note_off_c, 0, 53, 62
1, 1309474, Control_c, 0, 64, 59
1, 1309489, Control_c, 0, 64, 57
1, 1309504, Control_c, 0, 64, 43
1, 1309519, Control_c, 0, 64, 0
1, 1309528, Note_on_c, 0, 48, 83
1, 1309548, Control_c, 0, 67, 44
1, 1309578, Note_off_c, 0, 48, 66
1, 1309622, Control_c, 0, 64, 30
1, 1309637, Control_c, 0, 64, 41
1, 1309646, Note_on_c, 0, 45, 74
1, 1309652, Control_c, 0, 64, 34
1, 1309652, Control_c, 0, 67, 43
1, 1309667, Control_c, 0, 64, 0
1, 1309682, Control_c, 0, 67, 43
1, 1309696, Control_c, 0, 67, 42
1, 1309703, Note_off_c, 0, 45, 62
1, 1309711, Control_c, 0, 67, 42
1, 1309726, Control_c, 0, 67, 41
1, 1309755, Note_on_c, 0, 41, 75
1, 1309766, Note_on_c, 0, 65, 97
1, 1309776, Note_on_c, 0, 58, 79
1, 1309779, Note_on_c, 0, 62, 69
1, 1309788, Note_off_c, 0, 41, 64
1, 1309801, Note_off_c, 0, 58, 70
1, 1309801, Control_c, 0, 67, 40
1, 1309812, Note_off_c, 0, 62, 63
1, 1309816, Control_c, 0, 67, 40
1, 1309819, Note_off_c, 0, 65, 65
1, 1309869, Note_on_c, 0, 65, 93
1, 1309878, Note_on_c, 0, 58, 86
1, 1309884, Note_on_c, 0, 62, 77
1, 1309888, Note_on_c, 0, 42, 83
1, 1309890, Control_c, 0, 67, 40
1, 1309904, Control_c, 0, 67, 43
1, 1309917, Note_off_c, 0, 42, 70
1, 1309919, Control_c, 0, 67, 44
1, 1309934, Control_c, 0, 67, 46
1, 1309971, Control_c, 0, 67, 47
1, 1310001, Control_c, 0, 67, 46
1, 1310016, Note_on_c, 0, 37, 68
1, 1310016, Control_c, 0, 67, 46
1, 1310031, Control_c, 0, 67, 45
1, 1310043, Note_on_c, 0, 38, 59
1, 1310043, Note_off_c, 0, 37, 59
1, 1310045, Control_c, 0, 67, 45
1, 1310072, Note_off_c, 0, 38, 55
1, 1310075, Control_c, 0, 67, 44
1, 1310134, Control_c, 0, 67, 44
1, 1310137, Note_on_c, 0, 42, 68
1, 1310162, Note_off_c, 0, 42, 65
1, 1310208, Control_c, 0, 67, 44
1, 1310237, Control_c, 0, 67, 45
1, 1310252, Note_on_c, 0, 44, 74
1, 1310291, Note_off_c, 0, 44, 64
1, 1310386, Note_on_c, 0, 42, 70
1, 1310416, Control_c, 0, 64, 57
1, 1310431, Control_c, 0, 64, 69
1, 1310440, Note_off_c, 0, 42, 64
1, 1310445, Control_c, 0, 64, 75
1, 1310460, Control_c, 0, 64, 82
1, 1310460, Control_c, 0, 67, 46
1, 1310475, Control_c, 0, 64, 88
1, 1310475, Control_c, 0, 67, 47
1, 1310489, Control_c, 0, 64, 92
1, 1310489, Control_c, 0, 67, 48
1, 1310504, Control_c, 0, 64, 94
1, 1310519, Control_c, 0, 67, 49
1, 1310528, Note_off_c, 0, 58, 58
1, 1310534, Control_c, 0, 64, 95
1, 1310534, Control_c, 0, 67, 50
1, 1310554, Note_off_c, 0, 62, 60
1, 1310563, Control_c, 0, 64, 94
1, 1310563, Control_c, 0, 67, 51
1, 1310579, Control_c, 0, 64, 93
1, 1310579, Control_c, 0, 67, 53
1, 1310594, Control_c, 0, 64, 88
1, 1310594, Control_c, 0, 67, 59
1, 1310609, Control_c, 0, 64, 81
1, 1310609, Control_c, 0, 67, 69
1, 1310622, Note_on_c, 0, 43, 57
1, 1310624, Control_c, 0, 64, 72
1, 1310624, Control_c, 0, 67, 80
1, 1310639, Control_c, 0, 64, 64
1, 1310639, Control_c, 0, 67, 92
1, 1310642, Note_off_c, 0, 65, 46
1, 1310653, Control_c, 0, 64, 56
1, 1310653, Control_c, 0, 67, 101
1, 1310668, Control_c, 0, 64, 44
1, 1310668, Control_c, 0, 67, 107
1, 1310683, Control_c, 0, 64, 0
1, 1310683, Control_c, 0, 67, 113
1, 1310696, Note_off_c, 0, 43, 63
1, 1310698, Control_c, 0, 67, 119
1, 1310716, Note_on_c, 0, 44, 63
1, 1310720, Control_c, 0, 67, 126
1, 1310774, Note_off_c, 0, 44, 61
1, 1310788, Note_on_c, 0, 45, 64
1, 1310878, Note_on_c, 0, 58, 65
1, 1310880, Note_off_c, 0, 45, 56
1, 1310889, Note_on_c, 0, 46, 56
1, 1310914, Note_on_c, 0, 34, 48
1, 1310946, Note_off_c, 0, 58, 64
1, 1310970, Note_on_c, 0, 62, 65
1, 1311030, Note_off_c, 0, 62, 62
1, 1311063, Note_on_c, 0, 65, 55
1, 1311066, Note_off_c, 0, 46, 58
1, 1311110, Note_off_c, 0, 65, 63
1, 1311118, Note_on_c, 0, 45, 62
1, 1311120, Note_on_c, 0, 59, 65
1, 1311149, Control_c, 0, 64, 31
1, 1311164, Control_c, 0, 64, 48
1, 1311179, Control_c, 0, 64, 60
1, 1311194, Control_c, 0, 64, 64
1, 1311209, Control_c, 0, 64, 66
1, 1311224, Control_c, 0, 64, 66
1, 1311239, Control_c, 0, 64, 67
1, 1311253, Control_c, 0, 64, 68
1, 1311256, Note_off_c, 0, 59, 58
1, 1311261, Note_off_c, 0, 45, 58
1, 1311268, Control_c, 0, 64, 68
1, 1311298, Control_c, 0, 64, 68
1, 1311312, Control_c, 0, 64, 65
1, 1311327, Control_c, 0, 64, 60
1, 1311342, Control_c, 0, 64, 48
1, 1311357, Control_c, 0, 64, 0
1, 1311366, Note_on_c, 0, 60, 66
1, 1311367, Note_on_c, 0, 46, 63
1, 1311417, Control_c, 0, 64, 42
1, 1311432, Control_c, 0, 64, 57
1, 1311432, Note_off_c, 0, 60, 61
1, 1311435, Note_on_c, 0, 64, 65
1, 1311447, Control_c, 0, 64, 61
1, 1311469, Control_c, 0, 64, 59
1, 1311484, Control_c, 0, 64, 50
1, 1311498, Control_c, 0, 64, 31
1, 1311504, Note_off_c, 0, 64, 63
1, 1311513, Control_c, 0, 64, 0
1, 1311516, Note_on_c, 0, 65, 69
1, 1311560, Note_off_c, 0, 46, 63
1, 1311590, Note_on_c, 0, 47, 70
1, 1311590, Note_on_c, 0, 61, 76
1, 1311594, Note_off_c, 0, 65, 64
1, 1311632, Control_c, 0, 64, 44
1, 1311647, Control_c, 0, 64, 64
1, 1311662, Control_c, 0, 64, 73
1, 1311668, Note_off_c, 0, 61, 62
1, 1311677, Control_c, 0, 64, 86
1, 1311691, Control_c, 0, 64, 105
1, 1311706, Control_c, 0, 64, 127
1, 1311722, Note_off_c, 0, 47, 63
1, 1311780, Control_c, 0, 64, 100
1, 1311795, Control_c, 0, 64, 75
1, 1311809, Control_c, 0, 64, 54
1, 1311824, Control_c, 0, 64, 0
1, 1311840, Note_on_c, 0, 62, 73
1, 1311847, Note_on_c, 0, 48, 67
1, 1311883, Control_c, 0, 64, 61
1, 1311898, Control_c, 0, 64, 75
1, 1311898, Control_c, 0, 67, 124
1, 1311912, Note_off_c, 0, 62, 62
1, 1311913, Control_c, 0, 64, 100
1, 1311913, Control_c, 0, 67, 121
1, 1311916, Note_off_c, 0, 48, 61
1, 1311919, Note_on_c, 0, 65, 65
1, 1311927, Control_c, 0, 64, 127
1, 1311942, Control_c, 0, 67, 119
1, 1311972, Control_c, 0, 64, 114
1, 1311972, Control_c, 0, 67, 115
1, 1311982, Note_off_c, 0, 65, 65
1, 1311987, Note_on_c, 0, 70, 74
1, 1311987, Control_c, 0, 64, 68
1, 1311987, Control_c, 0, 67, 112
1, 1312002, Control_c, 0, 64, 33
1, 1312002, Control_c, 0, 67, 108
1, 1312006, Note_off_c, 0, 70, 70
1, 1312017, Control_c, 0, 64, 0
1, 1312017, Control_c, 0, 67, 105
1, 1312031, Control_c, 0, 67, 101
1, 1312046, Control_c, 0, 67, 98
1, 1312049, Note_off_c, 0, 34, 62
1, 1312061, Control_c, 0, 64, 60
1, 1312061, Control_c, 0, 67, 94
1, 1312069, Note_on_c, 0, 69, 72
1, 1312072, Note_on_c, 0, 49, 54
1, 1312076, Control_c, 0, 64, 76
1, 1312076, Control_c, 0, 67, 88
1, 1312091, Control_c, 0, 64, 93
1, 1312091, Control_c, 0, 67, 78
1, 1312103, Note_off_c, 0, 49, 35
1, 1312106, Control_c, 0, 64, 114
1, 1312106, Control_c, 0, 67, 66
1, 1312121, Control_c, 0, 64, 119
1, 1312121, Control_c, 0, 67, 54
1, 1312127, Note_off_c, 0, 69, 61
1, 1312135, Control_c, 0, 67, 43
1, 1312139, Note_on_c, 0, 74, 82
1, 1312150, Control_c, 0, 67, 35
1, 1312165, Control_c, 0, 64, 117
1, 1312165, Control_c, 0, 67, 31
1, 1312195, Control_c, 0, 64, 115
1, 1312212, Note_on_c, 0, 77, 77
1, 1312216, Note_off_c, 0, 74, 62
1, 1312218, Control_c, 0, 64, 110
1, 1312233, Control_c, 0, 64, 91
1, 1312247, Control_c, 0, 64, 68
1, 1312262, Control_c, 0, 64, 36
1, 1312271, Note_off_c, 0, 77, 64
1, 1312277, Control_c, 0, 64, 0
1, 1312284, Note_on_c, 0, 82, 96
1, 1312307, Control_c, 0, 67, 28
1, 1312321, Control_c, 0, 64, 45
1, 1312336, Control_c, 0, 64, 64
1, 1312336, Control_c, 0, 67, 26
1, 1312351, Control_c, 0, 64, 72
1, 1312353, Note_on_c, 0, 50, 5
1, 1312359, Note_on_c, 0, 53, 67
1, 1312365, Control_c, 0, 64, 82
1, 1312380, Control_c, 0, 64, 88
1, 1312380, Control_c, 0, 67, 23
1, 1312383, Note_off_c, 0, 50, 39
1, 1312395, Control_c, 0, 64, 91
1, 1312395, Control_c, 0, 67, 20
1, 1312410, Control_c, 0, 64, 92
1, 1312410, Control_c, 0, 67, 0
1, 1312425, Control_c, 0, 64, 92
1, 1312435, Note_on_c, 0, 58, 78
1, 1312440, Note_off_c, 0, 53, 63
1, 1312467, Note_off_c, 0, 58, 66
1, 1312470, Control_c, 0, 64, 89
1, 1312484, Control_c, 0, 64, 73
1, 1312499, Control_c, 0, 64, 53
1, 1312514, Control_c, 0, 64, 0
1, 1312528, Note_on_c, 0, 57, 78
1, 1312558, Control_c, 0, 64, 31
1, 1312562, Note_off_c, 0, 57, 67
1, 1312573, Control_c, 0, 64, 62
1, 1312588, Control_c, 0, 64, 75
1, 1312600, Note_on_c, 0, 62, 78
1, 1312603, Control_c, 0, 64, 82
1, 1312631, Note_off_c, 0, 62, 62
1, 1312632, Control_c, 0, 64, 77
1, 1312637, Note_off_c, 0, 82, 55
1, 1312647, Control_c, 0, 64, 70
1, 1312662, Control_c, 0, 64, 61
1, 1312668, Note_on_c, 0, 65, 65
1, 1312676, Control_c, 0, 64, 38
1, 1312691, Control_c, 0, 64, 0
1, 1312715, Note_off_c, 0, 65, 57
1, 1312744, Note_on_c, 0, 66, 74
1, 1312771, Note_on_c, 0, 69, 72
1, 1312825, Control_c, 0, 64, 39
1, 1312839, Control_c, 0, 64, 61
1, 1312841, Note_on_c, 0, 78, 70
1, 1312847, Note_off_c, 0, 69, 61
1, 1312854, Control_c, 0, 64, 69
1, 1312869, Control_c, 0, 64, 76
1, 1312884, Control_c, 0, 64, 86
1, 1312899, Control_c, 0, 64, 94
1, 1312902, Note_off_c, 0, 78, 63
1, 1312905, Note_on_c, 0, 82, 75
1, 1312914, Control_c, 0, 64, 99
1, 1312944, Control_c, 0, 64, 96
1, 1312965, Control_c, 0, 64, 81
1, 1312972, Note_off_c, 0, 66, 61
1, 1312980, Control_c, 0, 64, 60
1, 1312991, Note_off_c, 0, 82, 57
1, 1312996, Control_c, 0, 64, 0
1, 1313006, Note_on_c, 0, 70, 81
1, 1313018, Note_on_c, 0, 55, 72
1, 1313056, Control_c, 0, 64, 40
1, 1313070, Control_c, 0, 64, 63
1, 1313077, Note_off_c, 0, 55, 62
1, 1313084, Note_off_c, 0, 70, 64
1, 1313085, Control_c, 0, 64, 77
1, 1313100, Control_c, 0, 64, 103
1, 1313114, Control_c, 0, 64, 127
1, 1313218, Control_c, 0, 64, 83
1, 1313233, Control_c, 0, 64, 59
1, 1313248, Control_c, 0, 64, 0
1, 1313257, Note_on_c, 0, 65, 80
1, 1313258, Note_on_c, 0, 71, 75
1, 1313292, Control_c, 0, 64, 30
1, 1313307, Control_c, 0, 64, 59
1, 1313322, Control_c, 0, 64, 71
1, 1313334, Note_on_c, 0, 78, 76
1, 1313337, Control_c, 0, 64, 88
1, 1313345, Note_off_c, 0, 71, 61
1, 1313352, Control_c, 0, 64, 127
1, 1313400, Note_on_c, 0, 82, 79
1, 1313401, Note_off_c, 0, 78, 65
1, 1313432, Note_off_c, 0, 65, 58
1, 1313441, Control_c, 0, 64, 89
1, 1313455, Control_c, 0, 64, 64
1, 1313457, Note_off_c, 0, 82, 63
1, 1313470, Control_c, 0, 64, 0
1, 1313487, Note_on_c, 0, 54, 83
1, 1313488, Note_on_c, 0, 72, 87
1, 1313514, Control_c, 0, 64, 42
1, 1313529, Control_c, 0, 64, 63
1, 1313534, Note_off_c, 0, 54, 65
1, 1313544, Control_c, 0, 64, 74
1, 1313559, Control_c, 0, 64, 93
1, 1313573, Control_c, 0, 64, 127
1, 1313634, Note_off_c, 0, 72, 56
1, 1313677, Control_c, 0, 64, 116
1, 1313692, Control_c, 0, 64, 73
1, 1313714, Control_c, 0, 64, 46
1, 1313729, Control_c, 0, 64, 0
1, 1313737, Note_on_c, 0, 64, 81
1, 1313748, Note_on_c, 0, 73, 85
1, 1313759, Control_c, 0, 64, 41
1, 1313774, Control_c, 0, 64, 65
1, 1313790, Control_c, 0, 64, 82
1, 1313798, Note_off_c, 0, 73, 65
1, 1313805, Control_c, 0, 64, 127
1, 1313821, Note_on_c, 0, 74, 90
1, 1313893, Note_off_c, 0, 74, 57
1, 1313893, Control_c, 0, 64, 80
1, 1313896, Note_on_c, 0, 77, 77
1, 1313908, Note_off_c, 0, 64, 55
1, 1313908, Control_c, 0, 64, 58
1, 1313923, Control_c, 0, 64, 33
1, 1313937, Control_c, 0, 64, 46
1, 1313952, Control_c, 0, 64, 62
1, 1313954, Note_off_c, 0, 77, 64
1, 1313958, Note_on_c, 0, 53, 84
1, 1313963, Note_on_c, 0, 82, 96
1, 1313967, Control_c, 0, 64, 76
1, 1313982, Control_c, 0, 64, 117
1, 1313991, Note_off_c, 0, 53, 63
1, 1313993, Note_off_c, 0, 82, 66
1, 1313997, Control_c, 0, 64, 127
1, 1314035, Note_on_c, 0, 86, 97
1, 1314100, Note_on_c, 0, 89, 92
1, 1314105, Note_off_c, 0, 86, 62
1, 1314130, Control_c, 0, 64, 80
1, 1314145, Control_c, 0, 64, 56
1, 1314160, Control_c, 0, 64, 0
1, 1314172, Note_on_c, 0, 63, 85
1, 1314180, Note_on_c, 0, 94, 106
1, 1314187, Note_off_c, 0, 89, 48
1, 1314204, Control_c, 0, 64, 48
1, 1314219, Control_c, 0, 64, 67
1, 1314231, Note_off_c, 0, 63, 63
1, 1314234, Control_c, 0, 64, 81
1, 1314243, Note_on_c, 0, 89, 82
1, 1314248, Note_on_c, 0, 62, 88
1, 1314249, Control_c, 0, 64, 119
1, 1314252, Note_off_c, 0, 94, 68
1, 1314263, Note_off_c, 0, 89, 70
1, 1314263, Control_c, 0, 64, 127
1, 1314289, Poly_aftertouch_c, 0, 92, 0
1, 1314325, Note_on_c, 0, 60, 81
1, 1314330, Note_off_c, 0, 62, 62
1, 1314337, Control_c, 0, 64, 104
1, 1314352, Control_c, 0, 64, 75
1, 1314367, Control_c, 0, 64, 64
1, 1314382, Control_c, 0, 64, 65
1, 1314384, Note_off_c, 0, 60, 59
1, 1314397, Control_c, 0, 64, 71
1, 1314400, Note_on_c, 0, 58, 83
1, 1314407, Note_on_c, 0, 82, 104
1, 1314411, Control_c, 0, 64, 80
1, 1314426, Control_c, 0, 64, 92
1, 1314428, Note_off_c, 0, 82, 67
1, 1314428, Note_off_c, 0, 58, 66
1, 1314441, Control_c, 0, 64, 102
1, 1314463, Control_c, 0, 64, 108
1, 1314478, Control_c, 0, 64, 118
1, 1314493, Control_c, 0, 64, 127
1, 1314497, Note_on_c, 0, 53, 83
1, 1314510, Poly_aftertouch_c, 0, 57, 127
1, 1314548, Poly_aftertouch_c, 0, 57, 0
1, 1314553, Note_off_c, 0, 53, 62
1, 1314556, Note_on_c, 0, 50, 87
1, 1314577, Note_off_c, 0, 50, 70
1, 1314627, Control_c, 0, 64, 112
1, 1314642, Control_c, 0, 64, 83
1, 1314658, Control_c, 0, 64, 61
1, 1314672, Note_on_c, 0, 46, 94
1, 1314673, Control_c, 0, 64, 0
1, 1314679, Note_on_c, 0, 58, 83
1, 1314685, Note_on_c, 0, 34, 78
1, 1314763, Note_off_c, 0, 58, 64
1, 1314765, Note_on_c, 0, 62, 71
1, 1314833, Note_on_c, 0, 65, 78
1, 1314839, Note_off_c, 0, 62, 64
1, 1314917, Note_off_c, 0, 46, 56
1, 1314923, Note_off_c, 0, 65, 66
1, 1314925, Note_on_c, 0, 59, 79
1, 1314928, Note_on_c, 0, 45, 88
1, 1314968, Control_c, 0, 64, 33
1, 1314983, Control_c, 0, 64, 65
1, 1314998, Control_c, 0, 64, 78
1, 1315013, Control_c, 0, 64, 92
1, 1315015, Note_off_c, 0, 59, 64
1, 1315027, Control_c, 0, 64, 106
1, 1315042, Control_c, 0, 64, 127
1, 1315138, Note_off_c, 0, 45, 61
1, 1315161, Note_on_c, 0, 44, 83
1, 1315161, Control_c, 0, 64, 83
1, 1315166, Note_on_c, 0, 60, 82
1, 1315176, Control_c, 0, 64, 61
1, 1315191, Control_c, 0, 64, 50
1, 1315213, Control_c, 0, 64, 58
1, 1315228, Control_c, 0, 64, 67
1, 1315242, Control_c, 0, 64, 76
1, 1315248, Note_on_c, 0, 64, 74
1, 1315257, Control_c, 0, 64, 88
1, 1315272, Control_c, 0, 64, 96
1, 1315278, Note_off_c, 0, 60, 60
1, 1315316, Control_c, 0, 64, 92
1, 1315323, Note_off_c, 0, 44, 61
1, 1315331, Note_on_c, 0, 65, 82
1, 1315331, Control_c, 0, 64, 74
1, 1315334, Note_on_c, 0, 43, 73
1, 1315346, Note_off_c, 0, 64, 62
1, 1315346, Control_c, 0, 64, 55
1, 1315361, Control_c, 0, 64, 0
1, 1315403, Note_on_c, 0, 42, 93
1, 1315406, Note_on_c, 0, 61, 96
1, 1315406, Control_c, 0, 64, 48
1, 1315420, Note_off_c, 0, 65, 66
1, 1315421, Control_c, 0, 64, 65
1, 1315423, Note_off_c, 0, 43, 63
1, 1315436, Control_c, 0, 64, 77
1, 1315442, Note_off_c, 0, 61, 65
1, 1315451, Control_c, 0, 64, 102
1, 1315465, Control_c, 0, 64, 127
1, 1315555, Note_off_c, 0, 42, 61
1, 1315571, Note_on_c, 0, 41, 95
1, 1315573, Note_off_c, 0, 34, 60
1, 1315584, Control_c, 0, 64, 91
1, 1315599, Control_c, 0, 64, 59
1, 1315614, Control_c, 0, 64, 0
1, 1315618, Note_off_c, 0, 41, 64
1, 1315650, Note_on_c, 0, 40, 99
1, 1315656, Note_on_c, 0, 61, 94
1, 1315658, Control_c, 0, 64, 46
1, 1315659, Note_on_c, 0, 41, 50
1, 1315673, Control_c, 0, 64, 75
1, 1315683, Note_off_c, 0, 41, 58
1, 1315688, Control_c, 0, 64, 127
1, 1315709, Note_off_c, 0, 61, 64
1, 1315741, Note_on_c, 0, 62, 95
1, 1315762, Control_c, 0, 64, 101
1, 1315776, Control_c, 0, 64, 64
1, 1315791, Control_c, 0, 64, 37
1, 1315806, Control_c, 0, 64, 41
1, 1315808, Note_off_c, 0, 62, 61
1, 1315814, Note_on_c, 0, 65, 87
1, 1315821, Control_c, 0, 64, 58
1, 1315835, Control_c, 0, 64, 70
1, 1315845, Note_off_c, 0, 40, 62
1, 1315850, Control_c, 0, 64, 88
1, 1315865, Control_c, 0, 64, 127
1, 1315869, Note_on_c, 0, 41, 96
1, 1315886, Note_on_c, 0, 70, 94
1, 1315886, Note_off_c, 0, 65, 63
1, 1315904, Note_off_c, 0, 41, 66
1, 1315918, Note_off_c, 0, 70, 69
1, 1315969, Note_on_c, 0, 74, 96
1, 1316024, Note_off_c, 0, 74, 64
1, 1316038, Note_on_c, 0, 77, 95
1, 1316065, Control_c, 0, 64, 74
1, 1316080, Control_c, 0, 64, 0
1, 1316109, Note_on_c, 0, 82, 105
1, 1316111, Note_off_c, 0, 77, 64
1, 1316118, Note_on_c, 0, 56, 97
1, 1316169, Note_on_c, 0, 83, 14
1, 1316184, Control_c, 0, 64, 54
1, 1316199, Note_on_c, 0, 60, 81
1, 1316199, Control_c, 0, 64, 77
1, 1316214, Control_c, 0, 64, 86
1, 1316215, Note_off_c, 0, 56, 61
1, 1316229, Control_c, 0, 64, 98
1, 1316243, Control_c, 0, 64, 101
1, 1316258, Control_c, 0, 64, 127
1, 1316268, Note_on_c, 0, 63, 83
1, 1316276, Note_off_c, 0, 60, 64
1, 1316308, Note_off_c, 0, 83, 54
1, 1316314, Note_off_c, 0, 63, 66
1, 1316326, Note_on_c, 0, 68, 89
1, 1316368, Note_off_c, 0, 68, 67
1, 1316412, Note_on_c, 0, 72, 86
1, 1316480, Control_c, 0, 64, 73
1, 1316491, Note_off_c, 0, 72, 65
1, 1316495, Control_c, 0, 64, 0
1, 1316497, Note_on_c, 0, 75, 75
1, 1316523, Note_off_c, 0, 75, 66
1, 1316567, Note_on_c, 0, 73, 114
1, 1316571, Note_on_c, 0, 70, 95
1, 1316572, Note_on_c, 0, 67, 97
1, 1316592, Note_on_c, 0, 66, 49
1, 1316598, Note_off_c, 0, 67, 66
1, 1316605, Note_off_c, 0, 73, 70
1, 1316610, Note_off_c, 0, 70, 71
1, 1316613, Control_c, 0, 64, 74
1, 1316620, Note_off_c, 0, 66, 37
1, 1316628, Control_c, 0, 64, 127
1, 1316658, Note_off_c, 0, 82, 62
1, 1316676, Note_on_c, 0, 84, 92
1, 1316754, Note_on_c, 0, 80, 99
1, 1316765, Note_off_c, 0, 84, 65
1, 1316819, Note_on_c, 0, 75, 88
1, 1316853, Note_off_c, 0, 80, 64
1, 1316859, Note_off_c, 0, 75, 68
1, 1316901, Note_on_c, 0, 72, 83
1, 1316959, Note_on_c, 0, 68, 93
1, 1316993, Control_c, 0, 64, 93
1, 1317008, Note_on_c, 0, 75, 32
1, 1317008, Control_c, 0, 64, 69
1, 1317013, Note_off_c, 0, 72, 43
1, 1317022, Control_c, 0, 64, 55
1, 1317038, Note_on_c, 0, 63, 93
1, 1317039, Note_off_c, 0, 75, 63
1, 1317051, Note_on_c, 0, 82, 106
1, 1317052, Control_c, 0, 64, 63
1, 1317053, Note_off_c, 0, 68, 63
1, 1317067, Control_c, 0, 64, 74
1, 1317081, Control_c, 0, 64, 89
1, 1317087, Note_off_c, 0, 82, 72
1, 1317096, Control_c, 0, 64, 127
1, 1317099, Note_off_c, 0, 63, 65
1, 1317131, Note_on_c, 0, 68, 91
1, 1317184, Note_off_c, 0, 68, 62
1, 1317207, Note_on_c, 0, 59, 90
1, 1317254, Note_off_c, 0, 59, 64
1, 1317276, Note_on_c, 0, 64, 95
1, 1317338, Note_off_c, 0, 64, 62
1, 1317340, Note_on_c, 0, 56, 94
1, 1317370, Note_off_c, 0, 56, 68
1, 1317412, Note_on_c, 0, 60, 83
1, 1317417, Note_on_c, 0, 59, 77
1, 1317437, Note_off_c, 0, 59, 72
1, 1317437, Note_off_c, 0, 60, 70
1, 1317474, Control_c, 0, 64, 83
1, 1317489, Control_c, 0, 64, 49
1, 1317504, Control_c, 0, 64, 0
1, 1317517, Note_on_c, 0, 53, 100
1, 1317522, Note_on_c, 0, 50, 94
1, 1317537, Note_on_c, 0, 58, 69
1, 1317546, Note_on_c, 0, 57, 94
1, 1317579, Note_off_c, 0, 57, 67
1, 1317582, Note_off_c, 0, 58, 63
1, 1317593, Control_c, 0, 64, 54
1, 1317607, Control_c, 0, 64, 78
1, 1317621, Note_on_c, 0, 62, 89
1, 1317622, Control_c, 0, 64, 92
1, 1317637, Control_c, 0, 64, 127
1, 1317663, Note_off_c, 0, 53, 63
1, 1317674, Note_off_c, 0, 50, 61
1, 1317684, Note_off_c, 0, 62, 63
1, 1317697, Note_on_c, 0, 65, 95
1, 1317763, Note_off_c, 0, 65, 67
1, 1317769, Note_on_c, 0, 70, 101
1, 1317785, Note_off_c, 0, 70, 74
1, 1317816, Note_on_c, 0, 71, 41
1, 1317844, Note_on_c, 0, 74, 94
1, 1317846, Note_off_c, 0, 71, 60
1, 1317850, Note_on_c, 0, 76, 85
1, 1317888, Note_on_c, 0, 48, 85
1, 1317892, Note_off_c, 0, 74, 62
1, 1317905, Note_on_c, 0, 77, 102
1, 1317928, Note_off_c, 0, 76, 58
1, 1317964, Control_c, 0, 64, 85
1, 1317969, Note_off_c, 0, 77, 65
1, 1317975, Note_on_c, 0, 47, 73
1, 1317977, Note_on_c, 0, 51, 85
1, 1317978, Control_c, 0, 64, 54
1, 1317987, Note_on_c, 0, 54, 89
1, 1317987, Note_on_c, 0, 82, 108
1, 1317988, Note_off_c, 0, 48, 65
1, 1317993, Control_c, 0, 64, 0
1, 1318037, Note_off_c, 0, 51, 65
1, 1318044, Note_off_c, 0, 54, 67
1, 1318064, Note_off_c, 0, 47, 65
1, 1318066, Note_on_c, 0, 59, 92
1, 1318068, Control_c, 0, 64, 66
1, 1318083, Control_c, 0, 64, 88
1, 1318097, Control_c, 0, 64, 127
1, 1318127, Note_off_c, 0, 59, 64
1, 1318166, Note_on_c, 0, 62, 90
1, 1318176, Note_on_c, 0, 63, 36
1, 1318210, Note_on_c, 0, 66, 91
1, 1318215, Note_off_c, 0, 63, 36
1, 1318221, Note_off_c, 0, 62, 64
1, 1318247, Note_off_c, 0, 66, 67
1, 1318282, Note_on_c, 0, 71, 95
1, 1318304, Note_on_c, 0, 69, 40
1, 1318331, Note_off_c, 0, 69, 55
1, 1318331, Note_off_c, 0, 71, 66
1, 1318366, Note_on_c, 0, 74, 87
1, 1318387, Note_on_c, 0, 75, 26
1, 1318389, Note_on_c, 0, 72, 38
1, 1318416, Control_c, 0, 64, 65
1, 1318417, Note_off_c, 0, 72, 58
1, 1318417, Note_off_c, 0, 74, 62
1, 1318426, Note_off_c, 0, 75, 31
1, 1318430, Control_c, 0, 64, 0
1, 1318454, Note_on_c, 0, 69, 89
1, 1318456, Note_on_c, 0, 76, 104
1, 1318460, Note_on_c, 0, 72, 101
1, 1318462, Note_on_c, 0, 74, 96
1, 1318501, Note_off_c, 0, 69, 67
1, 1318503, Note_off_c, 0, 74, 66
1, 1318504, Control_c, 0, 64, 62
1, 1318505, Note_off_c, 0, 76, 68
1, 1318514, Note_off_c, 0, 72, 71
1, 1318516, Note_off_c, 0, 82, 62
1, 1318519, Control_c, 0, 64, 127
1, 1318544, Note_on_c, 0, 84, 103
1, 1318607, Note_on_c, 0, 80, 97
1, 1318624, Note_off_c, 0, 84, 65
1, 1318677, Note_on_c, 0, 75, 98
1, 1318700, Note_on_c, 0, 74, 86
1, 1318707, Note_off_c, 0, 80, 63
1, 1318723, Note_off_c, 0, 74, 64
1, 1318751, Note_off_c, 0, 75, 61
1, 1318758, Note_on_c, 0, 68, 106
1, 1318805, Note_off_c, 0, 68, 70
1, 1318830, Note_on_c, 0, 60, 93
1, 1318854, Note_on_c, 0, 75, 32
1, 1318878, Note_off_c, 0, 60, 69
1, 1318890, Note_off_c, 0, 75, 61
1, 1318914, Note_on_c, 0, 82, 113
1, 1318919, Note_on_c, 0, 62, 95
1, 1318920, Note_on_c, 0, 60, 94
1, 1318938, Note_on_c, 0, 80, 66
1, 1318938, Note_off_c, 0, 80, 127
1, 1318958, Note_off_c, 0, 82, 71
1, 1318968, Note_off_c, 0, 62, 65
1, 1319014, Note_on_c, 0, 54, 109
1, 1319028, Note_on_c, 0, 48, 86
1, 1319031, Note_on_c, 0, 50, 84
1, 1319041, Note_off_c, 0, 60, 62
1, 1319042, Note_off_c, 0, 54, 70
1, 1319049, Note_off_c, 0, 48, 71
1, 1319059, Note_on_c, 0, 55, 48
1, 1319059, Note_off_c, 0, 55, 127
1, 1319070, Note_off_c, 0, 50, 61
1, 1319135, Note_on_c, 0, 69, 20
1, 1319148, Control_c, 0, 64, 77
1, 1319163, Note_off_c, 0, 69, 51
1, 1319163, Control_c, 0, 64, 0
1, 1319178, Note_on_c, 0, 78, 94
1, 1319180, Note_on_c, 0, 68, 108
1, 1319187, Note_on_c, 0, 48, 125
1, 1319192, Note_on_c, 0, 38, 111
1, 1319197, Note_on_c, 0, 39, 94
1, 1319203, Note_on_c, 0, 36, 75
1, 1319207, Control_c, 0, 64, 42
1, 1319209, Note_on_c, 0, 37, 66
1, 1319209, Note_off_c, 0, 37, 127
1, 1319215, Note_off_c, 0, 38, 66
1, 1319216, Note_off_c, 0, 48, 73
1, 1319222, Control_c, 0, 64, 72
1, 1319224, Note_off_c, 0, 36, 64
1, 1319237, Control_c, 0, 64, 127
1, 1319242, Note_off_c, 0, 78, 67
1, 1319251, Note_off_c, 0, 39, 56
1, 1319256, Note_off_c, 0, 68, 58
1, 1319333, Note_on_c, 0, 69, 72
1, 1319371, Control_c, 0, 64, 84
1, 1319386, Control_c, 0, 64, 37
1, 1319393, Note_on_c, 0, 39, 42
1, 1319401, Control_c, 0, 64, 0
1, 1319418, Note_off_c, 0, 69, 54
1, 1319423, Note_off_c, 0, 39, 50
1, 1319486, Note_on_c, 0, 74, 101
1, 1319487, Note_on_c, 0, 46, 109
1, 1319487, Note_on_c, 0, 65, 100
1, 1319488, Note_on_c, 0, 34, 97
1, 1319489, Note_on_c, 0, 70, 112
1, 1319493, Note_on_c, 0, 38, 98
1, 1319520, Control_c, 0, 64, 64
1, 1319521, Note_on_c, 0, 69, 59
1, 1319522, Note_on_c, 0, 71, 94
1, 1319534, Control_c, 0, 64, 127
1, 1319538, Note_off_c, 0, 69, 65
1, 1319560, Note_off_c, 0, 46, 60
1, 1319569, Note_off_c, 0, 38, 66
1, 1319570, Note_off_c, 0, 34, 64
1, 1319571, Note_off_c, 0, 65, 66
1, 1319576, Note_off_c, 0, 74, 60
1, 1319581, Note_off_c, 0, 70, 66
1, 1319582, Note_off_c, 0, 71, 68
1, 1319602, Poly_aftertouch_c, 0, 35, 127
1, 1319642, Poly_aftertouch_c, 0, 35, 0
1, 1319767, Note_on_c, 0, 56, 106
1, 1319769, Note_on_c, 0, 52, 93
1, 1319769, Note_on_c, 0, 88, 116
1, 1319773, Note_on_c, 0, 83, 102
1, 1319773, Note_on_c, 0, 50, 88
1, 1319785, Note_on_c, 0, 53, 75
1, 1319787, Note_on_c, 0, 49, 61
1, 1319815, Note_off_c, 0, 49, 58
1, 1319820, Note_off_c, 0, 53, 0
1, 1319820, Note_on_c, 0, 53, 43
1, 1319821, Note_off_c, 0, 50, 60
1, 1319856, Note_off_c, 0, 56, 61
1, 1319871, Note_off_c, 0, 52, 61
1, 1319871, Note_on_c, 0, 92, 109
1, 1319873, Note_off_c, 0, 53, 61
1, 1319880, Note_off_c, 0, 88, 68
1, 1319886, Note_off_c, 0, 83, 61
1, 1319934, Note_on_c, 0, 91, 82
1, 1319945, Note_on_c, 0, 95, 109
1, 1319946, Note_off_c, 0, 92, 64
1, 1319952, Note_off_c, 0, 91, 69
1, 1319976, Poly_aftertouch_c, 0, 53, 127
1, 1319990, Note_off_c, 0, 95, 70
1, 1320002, Poly_aftertouch_c, 0, 53, 0
1, 1320023, Note_on_c, 0, 53, 89
1, 1320026, Note_on_c, 0, 58, 106
1, 1320029, Note_on_c, 0, 50, 97
1, 1320036, Note_on_c, 0, 94, 112
1, 1320041, Note_on_c, 0, 89, 100
1, 1320062, Note_off_c, 0, 50, 63
1, 1320062, Note_off_c, 0, 58, 72
1, 1320069, Note_on_c, 0, 91, 35
1, 1320072, Note_off_c, 0, 53, 66
1, 1320083, Note_off_c, 0, 94, 69
1, 1320095, Note_off_c, 0, 89, 61
1, 1320113, Note_on_c, 0, 98, 92
1, 1320116, Note_on_c, 0, 100, 86
1, 1320136, Note_off_c, 0, 91, 0
1, 1320136, Note_on_c, 0, 91, 27
1, 1320175, Note_off_c, 0, 100, 68
1, 1320176, Note_off_c, 0, 91, 41
1, 1320190, Note_on_c, 0, 101, 102
1, 1320195, Note_off_c, 0, 98, 67
1, 1320223, Note_off_c, 0, 101, 64
1, 1320278, Note_on_c, 0, 56, 95
1, 1320280, Note_on_c, 0, 61, 99
1, 1320280, Note_on_c, 0, 64, 102
1, 1320289, Note_on_c, 0, 89, 110
1, 1320300, Note_on_c, 0, 60, 79
1, 1320302, Note_on_c, 0, 83, 89
1, 1320303, Note_on_c, 0, 62, 85
1, 1320303, Note_on_c, 0, 84, 84
1, 1320314, Note_off_c, 0, 64, 70
1, 1320318, Note_off_c, 0, 60, 70
1, 1320323, Note_off_c, 0, 62, 71
1, 1320324, Note_off_c, 0, 61, 66
1, 1320328, Note_off_c, 0, 56, 67
1, 1320332, Note_off_c, 0, 83, 57
1, 1320348, Note_off_c, 0, 84, 62
1, 1320377, Note_on_c, 0, 92, 84
1, 1320384, Note_on_c, 0, 93, 95
1, 1320386, Note_off_c, 0, 89, 66
1, 1320404, Note_off_c, 0, 92, 0
1, 1320404, Note_on_c, 0, 92, 41
1, 1320450, Note_off_c, 0, 92, 63
1, 1320450, Note_on_c, 0, 95, 101
1, 1320458, Note_off_c, 0, 93, 66
1, 1320489, Note_off_c, 0, 95, 68
1, 1320548, Note_on_c, 0, 62, 64
1, 1320548, Note_on_c, 0, 70, 114
1, 1320548, Note_on_c, 0, 82, 104
1, 1320551, Note_on_c, 0, 65, 103
1, 1320551, Note_on_c, 0, 77, 93
1, 1320588, Note_off_c, 0, 70, 72
1, 1320602, Note_off_c, 0, 65, 70
1, 1320611, Note_off_c, 0, 62, 63
1, 1320628, Note_on_c, 0, 86, 84
1, 1320629, Note_off_c, 0, 82, 60
1, 1320653, Note_on_c, 0, 84, 59
1, 1320653, Note_off_c, 0, 84, 127
1, 1320655, Note_off_c, 0, 77, 64
1, 1320710, Note_on_c, 0, 89, 107
1, 1320722, Note_off_c, 0, 86, 65
1, 1320767, Note_off_c, 0, 89, 66
1, 1320802, Note_on_c, 0, 64, 107
1, 1320803, Note_on_c, 0, 56, 107
1, 1320804, Note_on_c, 0, 61, 96
1, 1320805, Note_on_c, 0, 88, 106
1, 1320811, Note_on_c, 0, 83, 94
1, 1320834, Note_off_c, 0, 56, 65
1, 1320836, Note_off_c, 0, 64, 71
1, 1320843, Note_off_c, 0, 61, 68
1, 1320845, Note_on_c, 0, 57, 52
1, 1320870, Note_off_c, 0, 57, 57
1, 1320894, Note_on_c, 0, 92, 102
1, 1320901, Note_off_c, 0, 88, 64
1, 1320906, Note_off_c, 0, 83, 60
1, 1320964, Note_off_c, 0, 92, 70
1, 1320974, Note_on_c, 0, 95, 85
1, 1320980, Note_on_c, 0, 93, 85
1, 1320987, Note_on_c, 0, 51, 8
1, 1321024, Note_off_c, 0, 93, 62
1, 1321025, Note_off_c, 0, 95, 66
1, 1321038, Note_off_c, 0, 51, 50
1, 1321059, Note_on_c, 0, 58, 109
1, 1321061, Note_on_c, 0, 94, 108
1, 1321063, Note_on_c, 0, 50, 98
1, 1321063, Note_on_c, 0, 53, 108
1, 1321064, Note_on_c, 0, 89, 97
1, 1321087, Note_on_c, 0, 91, 55
1, 1321087, Note_off_c, 0, 91, 127
1, 1321100, Note_off_c, 0, 50, 66
1, 1321103, Note_off_c, 0, 58, 70
1, 1321106, Note_off_c, 0, 53, 70
1, 1321133, Note_off_c, 0, 94, 53
1, 1321138, Note_on_c, 0, 98, 92
1, 1321166, Note_on_c, 0, 96, 56
1, 1321166, Note_off_c, 0, 96, 127
1, 1321174, Note_off_c, 0, 89, 64
1, 1321229, Note_on_c, 0, 101, 99
1, 1321231, Note_off_c, 0, 98, 67
1, 1321260, Note_off_c, 0, 101, 63
1, 1321262, Note_on_c, 0, 100, 48
1, 1321290, Note_off_c, 0, 100, 63
1, 1321320, Note_on_c, 0, 64, 98
1, 1321325, Note_on_c, 0, 56, 78
1, 1321325, Note_on_c, 0, 88, 102
1, 1321327, Note_on_c, 0, 62, 99
1, 1321327, Note_on_c, 0, 83, 96
1, 1321329, Note_on_c, 0, 57, 95
1, 1321339, Note_on_c, 0, 65, 53
1, 1321339, Note_off_c, 0, 65, 127
1, 1321342, Note_off_c, 0, 56, 65
1, 1321354, Note_on_c, 0, 61, 41
1, 1321354, Note_off_c, 0, 61, 127
1, 1321361, Note_off_c, 0, 64, 69
1, 1321367, Note_off_c, 0, 62, 66
1, 1321371, Note_off_c, 0, 57, 62
1, 1321405, Note_on_c, 0, 92, 100
1, 1321407, Note_off_c, 0, 83, 42
1, 1321412, Note_off_c, 0, 88, 64
1, 1321469, Note_off_c, 0, 92, 70
1, 1321475, Note_on_c, 0, 95, 105
1, 1321498, Note_on_c, 0, 61, 10
1, 1321508, Note_off_c, 0, 95, 66
1, 1321523, Note_off_c, 0, 61, 0
1, 1321549, Poly_aftertouch_c, 0, 61, 0
1, 1321576, Note_on_c, 0, 70, 114
1, 1321578, Note_on_c, 0, 82, 96
1, 1321580, Note_on_c, 0, 65, 109
1, 1321583, Note_on_c, 0, 62, 98
1, 1321586, Note_on_c, 0, 76, 80
1, 1321586, Note_on_c, 0, 77, 80
1, 1321591, Note_on_c, 0, 81, 95
1, 1321611, Note_on_c, 0, 63, 34
1, 1321616, Note_off_c, 0, 70, 72
1, 1321625, Note_off_c, 0, 65, 71
1, 1321630, Note_off_c, 0, 62, 66
1, 1321639, Note_off_c, 0, 81, 62
1, 1321643, Note_off_c, 0, 63, 33
1, 1321669, Note_off_c, 0, 76, 61
1, 1321678, Note_on_c, 0, 86, 79
1, 1321681, Note_off_c, 0, 77, 63
1, 1321681, Note_on_c, 0, 84, 78
1, 1321693, Note_off_c, 0, 82, 47
1, 1321736, Note_on_c, 0, 89, 98
1, 1321740, Note_off_c, 0, 84, 61
1, 1321750, Note_off_c, 0, 86, 63
1, 1321805, Note_off_c, 0, 89, 65
1, 1321832, Note_on_c, 0, 64, 103
1, 1321836, Note_on_c, 0, 56, 105
1, 1321836, Note_on_c, 0, 61, 94
1, 1321837, Note_on_c, 0, 88, 103
1, 1321840, Note_on_c, 0, 83, 94
1, 1321864, Note_off_c, 0, 64, 72
1, 1321869, Note_off_c, 0, 61, 68
1, 1321876, Note_off_c, 0, 56, 67
1, 1321903, Note_off_c, 0, 83, 60
1, 1321925, Note_on_c, 0, 92, 101
1, 1321934, Note_off_c, 0, 88, 65
1, 1321999, Note_off_c, 0, 92, 70
1, 1322006, Note_on_c, 0, 95, 97
1, 1322059, Poly_aftertouch_c, 0, 54, 127
1, 1322062, Note_off_c, 0, 95, 66
1, 1322098, Note_on_c, 0, 58, 107
1, 1322098, Note_on_c, 0, 94, 100
1, 1322099, Note_on_c, 0, 89, 98
1, 1322100, Note_on_c, 0, 50, 96
1, 1322101, Note_on_c, 0, 53, 99
1, 1322134, Note_off_c, 0, 50, 65
1, 1322145, Note_off_c, 0, 58, 68
1, 1322151, Note_off_c, 0, 53, 65
1, 1322164, Note_off_c, 0, 94, 61
1, 1322177, Note_on_c, 0, 98, 81
1, 1322180, Poly_aftertouch_c, 0, 54, 0
1, 1322187, Note_on_c, 0, 96, 80
1, 1322203, Note_off_c, 0, 89, 60
1, 1322203, Note_off_c, 0, 96, 64
1, 1322252, Note_on_c, 0, 101, 101
1, 1322256, Note_off_c, 0, 98, 67
1, 1322287, Note_off_c, 0, 101, 61
1, 1322307, Note_on_c, 0, 100, 37
1, 1322337, Note_off_c, 0, 100, 38
1, 1322350, Note_on_c, 0, 56, 98
1, 1322353, Note_on_c, 0, 64, 99
1, 1322356, Note_on_c, 0, 61, 101
1, 1322357, Note_on_c, 0, 83, 92
1, 1322357, Note_on_c, 0, 88, 98
1, 1322361, Note_on_c, 0, 89, 76
1, 1322378, Note_off_c, 0, 89, 66
1, 1322385, Note_off_c, 0, 64, 70
1, 1322387, Note_off_c, 0, 56, 68
1, 1322392, Note_off_c, 0, 61, 70
1, 1322399, Note_on_c, 0, 60, 34
1, 1322419, Note_on_c, 0, 57, 24
1, 1322419, Note_off_c, 0, 83, 63
1, 1322433, Note_on_c, 0, 92, 101
1, 1322434, Note_off_c, 0, 60, 54
1, 1322444, Note_off_c, 0, 88, 62
1, 1322456, Note_off_c, 0, 57, 53
1, 1322494, Note_off_c, 0, 92, 70
1, 1322500, Note_on_c, 0, 95, 88
1, 1322533, Note_off_c, 0, 95, 62
1, 1322608, Note_on_c, 0, 77, 91
1, 1322613, Note_on_c, 0, 70, 109
1, 1322615, Note_on_c, 0, 65, 104
1, 1322618, Note_on_c, 0, 62, 90
1, 1322629, Note_on_c, 0, 71, 86
1, 1322642, Note_off_c, 0, 71, 73
1, 1322647, Note_off_c, 0, 70, 71
1, 1322652, Note_off_c, 0, 65, 68
1, 1322655, Note_off_c, 0, 62, 67
1, 1322664, Note_off_c, 0, 77, 63
1, 1322704, Note_on_c, 0, 89, 85
1, 1322718, Note_on_c, 0, 88, 67
1, 1322736, Note_off_c, 0, 88, 65
1, 1322741, Poly_aftertouch_c, 0, 69, 0
1, 1322751, Note_off_c, 0, 89, 67
1, 1322778, Note_on_c, 0, 89, 78
1, 1322813, Note_off_c, 0, 89, 66
1, 1322859, Note_on_c, 0, 64, 92
1, 1322861, Note_on_c, 0, 56, 92
1, 1322861, Note_on_c, 0, 61, 93
1, 1322866, Note_on_c, 0, 89, 100
1, 1322892, Note_off_c, 0, 64, 66
1, 1322897, Note_off_c, 0, 61, 63
1, 1322907, Note_off_c, 0, 56, 64
1, 1322921, Note_off_c, 0, 89, 64
1, 1322939, Note_on_c, 0, 101, 105
1, 1322977, Note_off_c, 0, 101, 66
1, 1323018, Note_on_c, 0, 101, 93
1, 1323060, Note_off_c, 0, 101, 66
1, 1323101, Note_on_c, 0, 50, 100
1, 1323101, Note_on_c, 0, 58, 101
1, 1323104, Note_on_c, 0, 101, 105
1, 1323106, Note_on_c, 0, 53, 98
1, 1323115, Note_on_c, 0, 59, 85
1, 1323129, Note_off_c, 0, 59, 72
1, 1323129, Note_off_c, 0, 101, 69
1, 1323136, Note_off_c, 0, 58, 69
1, 1323142, Note_off_c, 0, 50, 66
1, 1323145, Note_off_c, 0, 53, 69
1, 1323278, Control_c, 0, 64, 73
1, 1323293, Control_c, 0, 64, 40
1, 1323308, Control_c, 0, 64, 0
1, 1323365, Note_on_c, 0, 81, 98
1, 1323368, Note_on_c, 0, 77, 89
1, 1323371, Note_on_c, 0, 72, 96
1, 1323371, Note_on_c, 0, 48, 99
1, 1323373, Note_on_c, 0, 40, 106
1, 1323375, Note_on_c, 0, 41, 97
1, 1323398, Control_c, 0, 64, 45
1, 1323401, Note_off_c, 0, 48, 68
1, 1323405, Note_off_c, 0, 41, 67
1, 1323407, Note_off_c, 0, 40, 66
1, 1323407, Note_off_c, 0, 81, 65
1, 1323413, Control_c, 0, 64, 91
1, 1323413, Note_off_c, 0, 77, 68
1, 1323414, Note_off_c, 0, 72, 70
1, 1323427, Control_c, 0, 64, 127
1, 1323494, Control_c, 0, 64, 97
1, 1323509, Control_c, 0, 64, 63
1, 1323523, Control_c, 0, 64, 0
1, 1323565, Note_on_c, 0, 65, 73
1, 1323628, Note_off_c, 0, 65, 58
1, 1323652, Poly_aftertouch_c, 0, 37, 0
1, 1323661, Note_on_c, 0, 65, 91
1, 1323661, Note_on_c, 0, 77, 97
1, 1323662, Note_on_c, 0, 46, 111
1, 1323663, Note_on_c, 0, 74, 100
1, 1323664, Note_on_c, 0, 34, 98
1, 1323668, Note_on_c, 0, 38, 93
1, 1323672, Control_c, 0, 64, 45
1, 1323687, Control_c, 0, 64, 92
1, 1323698, Note_on_c, 0, 35, 62
1, 1323702, Control_c, 0, 64, 127
1, 1323714, Note_off_c, 0, 46, 69
1, 1323719, Note_off_c, 0, 65, 67
1, 1323724, Note_off_c, 0, 77, 67
1, 1323726, Note_off_c, 0, 35, 59
1, 1323729, Note_off_c, 0, 38, 65
1, 1323731, Note_off_c, 0, 34, 64
1, 1323737, Note_off_c, 0, 74, 69
1, 1323789, Poly_aftertouch_c, 0, 33, 0
1, 1323913, Poly_aftertouch_c, 0, 51, 127
1, 1323945, Note_on_c, 0, 56, 105
1, 1323948, Note_on_c, 0, 49, 91
1, 1323949, Note_on_c, 0, 76, 102
1, 1323950, Note_on_c, 0, 71, 96
1, 1323951, Note_on_c, 0, 52, 89
1, 1323991, Note_off_c, 0, 56, 66
1, 1324001, Note_off_c, 0, 71, 62
1, 1324007, Note_off_c, 0, 52, 62
1, 1324009, Note_off_c, 0, 49, 62
1, 1324035, Note_on_c, 0, 80, 100
1, 1324040, Note_off_c, 0, 76, 66
1, 1324112, Note_off_c, 0, 80, 68
1, 1324113, Note_on_c, 0, 83, 96
1, 1324128, Poly_aftertouch_c, 0, 51, 0
1, 1324161, Note_off_c, 0, 83, 69
1, 1324210, Note_on_c, 0, 58, 112
1, 1324212, Note_on_c, 0, 82, 97
1, 1324216, Note_on_c, 0, 53, 94
1, 1324220, Note_on_c, 0, 50, 93
1, 1324220, Note_on_c, 0, 77, 77
1, 1324223, Note_on_c, 0, 51, 40
1, 1324242, Note_off_c, 0, 50, 66
1, 1324254, Note_off_c, 0, 53, 67
1, 1324256, Note_off_c, 0, 58, 67
1, 1324256, Note_on_c, 0, 79, 32
1, 1324262, Note_off_c, 0, 82, 64
1, 1324267, Note_off_c, 0, 51, 47
1, 1324292, Note_on_c, 0, 86, 93
1, 1324300, Note_off_c, 0, 79, 32
1, 1324315, Note_off_c, 0, 77, 63
1, 1324366, Note_on_c, 0, 89, 89
1, 1324366, Note_off_c, 0, 86, 67
1, 1324385, Note_off_c, 0, 89, 70
1, 1324460, Note_on_c, 0, 61, 108
1, 1324462, Note_on_c, 0, 52, 93
1, 1324465, Note_on_c, 0, 76, 98
1, 1324466, Note_on_c, 0, 56, 95
1, 1324471, Note_on_c, 0, 71, 84
1, 1324479, Poly_aftertouch_c, 0, 88, 0
1, 1324489, Note_off_c, 0, 61, 70
1, 1324498, Note_off_c, 0, 52, 67
1, 1324501, Note_off_c, 0, 56, 64
1, 1324533, Note_off_c, 0, 71, 60
1, 1324543, Note_on_c, 0, 80, 95
1, 1324553, Note_off_c, 0, 76, 62
1, 1324608, Note_off_c, 0, 80, 70
1, 1324616, Note_on_c, 0, 83, 97
1, 1324654, Note_off_c, 0, 83, 64
1, 1324687, Control_c, 0, 64, 101
1, 1324702, Control_c, 0, 64, 85
1, 1324707, Note_on_c, 0, 53, 105
1, 1324707, Note_on_c, 0, 62, 115
1, 1324716, Control_c, 0, 64, 82
1, 1324718, Note_on_c, 0, 65, 94
1, 1324724, Note_on_c, 0, 58, 73
1, 1324726, Note_on_c, 0, 71, 88
1, 1324731, Control_c, 0, 64, 83
1, 1324739, Note_off_c, 0, 53, 69
1, 1324739, Note_off_c, 0, 62, 72
1, 1324745, Note_off_c, 0, 58, 72
1, 1324746, Control_c, 0, 64, 87
1, 1324761, Control_c, 0, 64, 96
1, 1324776, Control_c, 0, 64, 127
1, 1324785, Note_off_c, 0, 71, 63
1, 1324808, Note_off_c, 0, 65, 55
1, 1324810, Note_on_c, 0, 74, 79
1, 1324882, Note_on_c, 0, 77, 88
1, 1324882, Note_off_c, 0, 74, 64
1, 1324962, Control_c, 0, 64, 83
1, 1324963, Note_off_c, 0, 77, 67
1, 1324977, Control_c, 0, 64, 70
1, 1324979, Note_on_c, 0, 52, 88
1, 1324979, Note_on_c, 0, 61, 103
1, 1324984, Note_on_c, 0, 56, 99
1, 1324989, Note_on_c, 0, 76, 94
1, 1324992, Note_on_c, 0, 71, 88
1, 1324992, Control_c, 0, 64, 66
1, 1325007, Control_c, 0, 64, 68
1, 1325021, Control_c, 0, 64, 74
1, 1325036, Control_c, 0, 64, 91
1, 1325051, Control_c, 0, 64, 127
1, 1325072, Note_on_c, 0, 80, 92
1, 1325072, Note_off_c, 0, 61, 56
1, 1325083, Note_off_c, 0, 76, 65
1, 1325085, Note_off_c, 0, 71, 59
1, 1325117, Note_off_c, 0, 52, 0
1, 1325137, Note_off_c, 0, 80, 70
1, 1325147, Note_on_c, 0, 83, 98
1, 1325150, Note_off_c, 0, 56, 34
1, 1325154, Poly_aftertouch_c, 0, 52, 127
1, 1325202, Note_off_c, 0, 83, 69
1, 1325206, Poly_aftertouch_c, 0, 52, 0
1, 1325214, Control_c, 0, 64, 96
1, 1325229, Control_c, 0, 64, 79
1, 1325239, Note_on_c, 0, 58, 109
1, 1325240, Note_on_c, 0, 82, 98
1, 1325244, Control_c, 0, 64, 74
1, 1325248, Note_on_c, 0, 77, 81
1, 1325250, Note_on_c, 0, 50, 85
1, 1325250, Note_on_c, 0, 53, 90
1, 1325259, Control_c, 0, 64, 75
1, 1325266, Note_on_c, 0, 51, 17
1, 1325266, Note_off_c, 0, 51, 127
1, 1325274, Control_c, 0, 64, 80
1, 1325288, Control_c, 0, 64, 91
1, 1325302, Note_off_c, 0, 82, 58
1, 1325303, Control_c, 0, 64, 127
1, 1325305, Note_off_c, 0, 50, 0
1, 1325308, Note_off_c, 0, 58, 0
1, 1325309, Note_off_c, 0, 53, 59
1, 1325314, Note_on_c, 0, 86, 90
1, 1325320, Note_on_c, 0, 50, 58
1, 1325325, Note_off_c, 0, 77, 41
1, 1325344, Poly_aftertouch_c, 0, 58, 0
1, 1325391, Note_on_c, 0, 89, 100
1, 1325395, Note_off_c, 0, 86, 66
1, 1325425, Note_off_c, 0, 89, 63
1, 1325452, Control_c, 0, 64, 117
1, 1325466, Control_c, 0, 64, 87
1, 1325481, Control_c, 0, 64, 80
1, 1325488, Note_on_c, 0, 61, 107
1, 1325491, Note_on_c, 0, 56, 96
1, 1325495, Note_on_c, 0, 52, 87
1, 1325495, Note_on_c, 0, 76, 94
1, 1325496, Control_c, 0, 64, 81
1, 1325499, Note_on_c, 0, 71, 86
1, 1325511, Control_c, 0, 64, 89
1, 1325517, Note_off_c, 0, 50, 40
1, 1325524, Note_off_c, 0, 56, 69
1, 1325524, Note_off_c, 0, 61, 66
1, 1325525, Note_off_c, 0, 52, 68
1, 1325526, Control_c, 0, 64, 106
1, 1325540, Control_c, 0, 64, 127
1, 1325557, Note_off_c, 0, 71, 61
1, 1325576, Note_on_c, 0, 80, 93
1, 1325592, Note_off_c, 0, 76, 65
1, 1325649, Note_on_c, 0, 83, 90
1, 1325649, Note_off_c, 0, 80, 68
1, 1325726, Control_c, 0, 64, 81
1, 1325732, Note_off_c, 0, 83, 58
1, 1325740, Control_c, 0, 64, 55
1, 1325753, Note_on_c, 0, 62, 99
1, 1325754, Note_on_c, 0, 74, 94
1, 1325755, Control_c, 0, 64, 0
1, 1325761, Note_on_c, 0, 53, 90
1, 1325768, Note_on_c, 0, 58, 83
1, 1325800, Control_c, 0, 64, 35
1, 1325815, Control_c, 0, 64, 60
1, 1325830, Control_c, 0, 64, 74
1, 1325845, Control_c, 0, 64, 109
1, 1325846, Note_on_c, 0, 77, 87
1, 1325848, Note_off_c, 0, 74, 56
1, 1325860, Control_c, 0, 64, 127
1, 1325871, Note_off_c, 0, 62, 59
1, 1325875, Note_off_c, 0, 53, 62
1, 1325876, Note_off_c, 0, 58, 64
1, 1325881, Note_off_c, 0, 77, 67
1, 1325924, Note_on_c, 0, 77, 80
1, 1325958, Note_off_c, 0, 77, 65
1, 1325978, Control_c, 0, 64, 92
1, 1325993, Control_c, 0, 64, 78
1, 1326000, Note_on_c, 0, 51, 77
1, 1326006, Note_on_c, 0, 61, 101
1, 1326008, Control_c, 0, 64, 75
1, 1326009, Note_on_c, 0, 56, 91
1, 1326011, Note_on_c, 0, 77, 87
1, 1326023, Control_c, 0, 64, 78
1, 1326036, Note_off_c, 0, 51, 66
1, 1326037, Control_c, 0, 64, 86
1, 1326052, Control_c, 0, 64, 101
1, 1326058, Note_on_c, 0, 52, 49
1, 1326065, Note_off_c, 0, 77, 64
1, 1326067, Control_c, 0, 64, 127
1, 1326095, Note_on_c, 0, 82, 96
1, 1326096, Note_off_c, 0, 52, 47
1, 1326104, Note_off_c, 0, 61, 58
1, 1326130, Note_off_c, 0, 82, 68
1, 1326170, Note_on_c, 0, 82, 95
1, 1326181, Note_off_c, 0, 56, 39
1, 1326206, Note_off_c, 0, 82, 66
1, 1326230, Control_c, 0, 64, 85
1, 1326244, Control_c, 0, 64, 64
1, 1326256, Note_on_c, 0, 82, 99
1, 1326259, Note_on_c, 0, 58, 99
1, 1326259, Control_c, 0, 64, 47
1, 1326262, Note_on_c, 0, 50, 90
1, 1326266, Note_on_c, 0, 53, 89
1, 1326274, Control_c, 0, 64, 44
1, 1326289, Control_c, 0, 64, 56
1, 1326292, Note_off_c, 0, 82, 70
1, 1326304, Control_c, 0, 64, 66
1, 1326319, Control_c, 0, 64, 80
1, 1326326, Note_off_c, 0, 50, 0
1, 1326334, Control_c, 0, 64, 127
1, 1326339, Note_on_c, 0, 86, 101
1, 1326349, Note_off_c, 0, 53, 56
1, 1326363, Poly_aftertouch_c, 0, 50, 127
1, 1326379, Note_off_c, 0, 86, 66
1, 1326382, Note_off_c, 0, 58, 66
1, 1326393, Note_on_c, 0, 50, 3
1, 1326441, Note_on_c, 0, 86, 100
1, 1326474, Control_c, 0, 64, 92
1, 1326478, Note_off_c, 0, 86, 65
1, 1326489, Control_c, 0, 64, 69
1, 1326504, Note_on_c, 0, 61, 104
1, 1326504, Control_c, 0, 64, 54
1, 1326507, Note_on_c, 0, 52, 82
1, 1326510, Note_on_c, 0, 56, 91
1, 1326515, Note_on_c, 0, 86, 96
1, 1326519, Control_c, 0, 64, 49
1, 1326525, Note_off_c, 0, 50, 36
1, 1326534, Control_c, 0, 64, 58
1, 1326545, Note_off_c, 0, 61, 67
1, 1326547, Note_off_c, 0, 56, 67
1, 1326548, Note_off_c, 0, 52, 64
1, 1326548, Control_c, 0, 64, 69
1, 1326562, Note_off_c, 0, 86, 66
1, 1326564, Control_c, 0, 64, 85
1, 1326579, Control_c, 0, 64, 127
1, 1326599, Note_on_c, 0, 82, 99
1, 1326640, Note_off_c, 0, 82, 66
1, 1326671, Note_on_c, 0, 82, 96
1, 1326715, Note_off_c, 0, 82, 68
1, 1326727, Control_c, 0, 64, 84
1, 1326741, Control_c, 0, 64, 59
1, 1326756, Control_c, 0, 64, 0
1, 1326757, Note_on_c, 0, 62, 105
1, 1326760, Note_on_c, 0, 77, 93
1, 1326763, Note_on_c, 0, 82, 97
1, 1326766, Note_on_c, 0, 53, 95
1, 1326767, Note_on_c, 0, 58, 90
1, 1326799, Note_off_c, 0, 82, 67
1, 1326800, Control_c, 0, 64, 36
1, 1326803, Note_off_c, 0, 62, 65
1, 1326804, Note_off_c, 0, 77, 63
1, 1326805, Note_off_c, 0, 53, 58
1, 1326812, Note_off_c, 0, 58, 59
1, 1326815, Control_c, 0, 64, 60
1, 1326830, Control_c, 0, 64, 74
1, 1326842, Note_on_c, 0, 86, 99
1, 1326845, Control_c, 0, 64, 127
1, 1326916, Note_off_c, 0, 86, 65
1, 1326923, Note_on_c, 0, 91, 89
1, 1326931, Note_on_c, 0, 89, 82
1, 1326978, Control_c, 0, 64, 102
1, 1326984, Note_off_c, 0, 91, 63
1, 1326987, Note_off_c, 0, 89, 58
1, 1326993, Control_c, 0, 64, 68
1, 1327008, Control_c, 0, 64, 0
1, 1327014, Note_on_c, 0, 61, 103
1, 1327014, Note_on_c, 0, 88, 106
1, 1327016, Note_on_c, 0, 52, 95
1, 1327018, Note_on_c, 0, 56, 97
1, 1327023, Note_on_c, 0, 83, 81
1, 1327031, Note_on_c, 0, 84, 81
1, 1327036, Note_on_c, 0, 89, 41
1, 1327052, Control_c, 0, 64, 42
1, 1327056, Note_off_c, 0, 83, 66
1, 1327059, Note_off_c, 0, 84, 64
1, 1327067, Control_c, 0, 64, 68
1, 1327075, Note_off_c, 0, 61, 64
1, 1327082, Control_c, 0, 64, 103
1, 1327097, Note_on_c, 0, 92, 100
1, 1327097, Control_c, 0, 64, 127
1, 1327099, Note_off_c, 0, 88, 59
1, 1327157, Note_off_c, 0, 52, 52
1, 1327163, Note_off_c, 0, 92, 70
1, 1327169, Note_on_c, 0, 95, 92
1, 1327170, Note_off_c, 0, 89, 47
1, 1327171, Note_off_c, 0, 56, 52
1, 1327227, Note_off_c, 0, 95, 67
1, 1327237, Control_c, 0, 64, 103
1, 1327252, Control_c, 0, 64, 93
1, 1327259, Note_on_c, 0, 50, 93
1, 1327261, Note_on_c, 0, 58, 114
1, 1327267, Control_c, 0, 64, 94
1, 1327269, Note_on_c, 0, 89, 91
1, 1327269, Note_on_c, 0, 94, 101
1, 1327270, Note_on_c, 0, 53, 99
1, 1327282, Control_c, 0, 64, 103
1, 1327294, Note_off_c, 0, 58, 71
1, 1327297, Control_c, 0, 64, 127
1, 1327303, Note_off_c, 0, 50, 66
1, 1327305, Note_off_c, 0, 53, 68
1, 1327316, Note_off_c, 0, 94, 67
1, 1327338, Note_on_c, 0, 98, 101
1, 1327414, Note_on_c, 0, 101, 101
1, 1327416, Control_c, 0, 64, 73
1, 1327417, Note_off_c, 0, 98, 67
1, 1327431, Control_c, 0, 64, 0
1, 1327461, Note_off_c, 0, 101, 66
1, 1327464, Note_off_c, 0, 89, 58
1, 1327520, Note_on_c, 0, 101, 106
1, 1327527, Note_on_c, 0, 46, 112
1, 1327528, Note_on_c, 0, 34, 106
1, 1327550, Control_c, 0, 64, 43
1, 1327551, Note_off_c, 0, 101, 64
1, 1327554, Note_on_c, 0, 33, 63
1, 1327555, Note_off_c, 0, 46, 68
1, 1327565, Control_c, 0, 64, 76
1, 1327571, Note_off_c, 0, 34, 67
1, 1327580, Control_c, 0, 64, 127
1, 1327583, Note_off_c, 0, 33, 58
1, 1327727, Control_c, 0, 64, 92
1, 1327742, Control_c, 0, 64, 60
1, 1327757, Control_c, 0, 64, 0
1, 1327802, Note_on_c, 0, 29, 100
1, 1327802, Note_on_c, 0, 41, 104
1, 1327876, Control_c, 0, 64, 62
1, 1327890, Control_c, 0, 64, 93
1, 1327902, Note_on_c, 0, 53, 85
1, 1327905, Control_c, 0, 64, 127
1, 1327957, Control_c, 0, 64, 109
1, 1327972, Control_c, 0, 64, 73
1, 1327985, Note_on_c, 0, 58, 83
1, 1327986, Note_off_c, 0, 41, 60
1, 1327987, Control_c, 0, 64, 47
1, 1327988, Note_on_c, 0, 65, 83
1, 1327989, Note_on_c, 0, 62, 71
1, 1327993, Note_off_c, 0, 29, 60
1, 1327994, Note_off_c, 0, 53, 63
1, 1328002, Control_c, 0, 64, 0
1, 1328051, Note_off_c, 0, 65, 58
1, 1328051, Note_off_c, 0, 58, 61
1, 1328083, Note_on_c, 0, 41, 109
1, 1328083, Note_off_c, 0, 62, 44
1, 1328085, Note_on_c, 0, 29, 97
1, 1328120, Control_c, 0, 64, 39
1, 1328134, Control_c, 0, 64, 75
1, 1328149, Control_c, 0, 64, 109
1, 1328165, Control_c, 0, 64, 127
1, 1328168, Note_on_c, 0, 53, 86
1, 1328182, Note_off_c, 0, 29, 64
1, 1328197, Note_off_c, 0, 41, 63
1, 1328230, Note_on_c, 0, 62, 66
1, 1328233, Note_on_c, 0, 58, 83
1, 1328235, Note_on_c, 0, 65, 77
1, 1328239, Note_off_c, 0, 53, 63
1, 1328285, Note_off_c, 0, 58, 64
1, 1328297, Note_off_c, 0, 65, 62
1, 1328299, Control_c, 0, 64, 122
1, 1328313, Control_c, 0, 64, 70
1, 1328328, Control_c, 0, 64, 0
1, 1328355, Note_on_c, 0, 47, 109
1, 1328358, Note_on_c, 0, 35, 101
1, 1328363, Note_off_c, 0, 62, 35
1, 1328396, Note_on_c, 0, 36, 34
1, 1328396, Note_off_c, 0, 36, 127
1, 1328432, Control_c, 0, 64, 63
1, 1328447, Control_c, 0, 64, 84
1, 1328450, Note_on_c, 0, 53, 80
1, 1328462, Control_c, 0, 64, 127
1, 1328515, Note_off_c, 0, 47, 63
1, 1328521, Note_on_c, 0, 62, 73
1, 1328522, Note_on_c, 0, 65, 72
1, 1328523, Note_on_c, 0, 58, 73
1, 1328538, Note_off_c, 0, 53, 61
1, 1328559, Note_off_c, 0, 35, 56
1, 1328565, Control_c, 0, 64, 103
1, 1328574, Note_off_c, 0, 65, 60
1, 1328580, Control_c, 0, 64, 66
1, 1328586, Note_off_c, 0, 58, 64
1, 1328592, Note_off_c, 0, 62, 63
1, 1328595, Control_c, 0, 64, 0
1, 1328616, Note_on_c, 0, 46, 100
1, 1328620, Note_on_c, 0, 34, 96
1, 1328706, Control_c, 0, 64, 63
1, 1328709, Note_on_c, 0, 54, 79
1, 1328721, Control_c, 0, 64, 98
1, 1328736, Control_c, 0, 64, 127
1, 1328761, Note_on_c, 0, 59, 61
1, 1328765, Note_off_c, 0, 46, 61
1, 1328766, Note_on_c, 0, 63, 85
1, 1328768, Note_on_c, 0, 66, 84
1, 1328778, Note_off_c, 0, 54, 62
1, 1328787, Note_off_c, 0, 59, 66
1, 1328795, Note_off_c, 0, 63, 66
1, 1328802, Note_off_c, 0, 66, 64
1, 1328839, Control_c, 0, 64, 79
1, 1328853, Note_off_c, 0, 34, 57
1, 1328854, Control_c, 0, 64, 47
1, 1328869, Control_c, 0, 64, 0
1, 1328883, Note_on_c, 0, 45, 104
1, 1328886, Note_on_c, 0, 33, 99
1, 1328928, Control_c, 0, 64, 32
1, 1328943, Control_c, 0, 64, 62
1, 1328959, Control_c, 0, 64, 80
1, 1328974, Note_on_c, 0, 55, 82
1, 1328974, Control_c, 0, 64, 127
1, 1329034, Note_on_c, 0, 60, 68
1, 1329038, Note_off_c, 0, 45, 61
1, 1329039, Note_on_c, 0, 67, 83
1, 1329041, Note_on_c, 0, 64, 73
1, 1329043, Note_off_c, 0, 33, 61
1, 1329046, Note_off_c, 0, 55, 64
1, 1329073, Note_off_c, 0, 64, 63
1, 1329077, Control_c, 0, 64, 84
1, 1329085, Note_off_c, 0, 60, 63
1, 1329090, Note_off_c, 0, 67, 64
1, 1329092, Control_c, 0, 64, 50
1, 1329106, Control_c, 0, 64, 0
1, 1329141, Note_on_c, 0, 45, 107
1, 1329142, Note_on_c, 0, 33, 97
1, 1329181, Control_c, 0, 64, 58
1, 1329196, Control_c, 0, 64, 81
1, 1329210, Control_c, 0, 64, 127
1, 1329219, Note_on_c, 0, 55, 85
1, 1329252, Note_off_c, 0, 33, 62
1, 1329255, Note_off_c, 0, 45, 63
1, 1329279, Note_on_c, 0, 60, 70
1, 1329279, Note_on_c, 0, 67, 80
1, 1329283, Note_on_c, 0, 64, 78
1, 1329293, Note_off_c, 0, 55, 64
1, 1329318, Note_off_c, 0, 60, 65
1, 1329327, Note_off_c, 0, 64, 63
1, 1329331, Note_off_c, 0, 67, 65
1, 1329359, Control_c, 0, 64, 68
1, 1329373, Control_c, 0, 64, 0
1, 1329396, Note_on_c, 0, 50, 105
1, 1329402, Note_on_c, 0, 38, 101
1, 1329455, Control_c, 0, 64, 66
1, 1329470, Control_c, 0, 64, 127
1, 1329472, Note_on_c, 0, 56, 82
1, 1329528, Note_on_c, 0, 65, 59
1, 1329529, Note_on_c, 0, 61, 74
1, 1329536, Note_on_c, 0, 68, 82
1, 1329540, Note_off_c, 0, 56, 63
1, 1329544, Note_off_c, 0, 50, 59
1, 1329548, Note_off_c, 0, 38, 63
1, 1329562, Note_off_c, 0, 65, 67
1, 1329566, Note_off_c, 0, 61, 62
1, 1329571, Note_off_c, 0, 68, 67
1, 1329603, Control_c, 0, 64, 66
1, 1329618, Control_c, 0, 64, 0
1, 1329633, Control_c, 0, 64, 42
1, 1329648, Control_c, 0, 64, 69
1, 1329655, Note_on_c, 0, 48, 99
1, 1329662, Control_c, 0, 64, 127
1, 1329663, Note_on_c, 0, 36, 95
1, 1329701, Note_off_c, 0, 48, 68
1, 1329703, Note_off_c, 0, 36, 61
1, 1329721, Control_c, 0, 64, 73
1, 1329724, Note_on_c, 0, 65, 77
1, 1329736, Control_c, 0, 64, 0
1, 1329784, Note_on_c, 0, 47, 103
1, 1329789, Note_on_c, 0, 69, 81
1, 1329789, Note_on_c, 0, 35, 103
1, 1329792, Note_on_c, 0, 77, 82
1, 1329795, Note_on_c, 0, 75, 77
1, 1329803, Note_off_c, 0, 65, 63
1, 1329812, Note_off_c, 0, 35, 69
1, 1329822, Note_off_c, 0, 47, 68
1, 1329824, Note_off_c, 0, 69, 63
1, 1329828, Note_off_c, 0, 77, 66
1, 1329839, Note_off_c, 0, 75, 62
1, 1329915, Control_c, 0, 64, 58
1, 1329918, Note_on_c, 0, 51, 104
1, 1329921, Note_on_c, 0, 39, 106
1, 1329929, Control_c, 0, 64, 74
1, 1329944, Control_c, 0, 64, 105
1, 1329959, Control_c, 0, 64, 127
1, 1329962, Note_on_c, 0, 60, 77
1, 1330025, Note_on_c, 0, 67, 84
1, 1330033, Note_on_c, 0, 69, 73
1, 1330036, Note_off_c, 0, 60, 65
1, 1330038, Note_on_c, 0, 72, 70
1, 1330042, Note_on_c, 0, 74, 74
1, 1330042, Note_off_c, 0, 51, 62
1, 1330049, Note_off_c, 0, 39, 62
1, 1330054, Note_off_c, 0, 69, 70
1, 1330063, Note_off_c, 0, 67, 66
1, 1330066, Note_off_c, 0, 74, 68
1, 1330078, Note_off_c, 0, 72, 63
1, 1330123, Control_c, 0, 64, 76
1, 1330137, Control_c, 0, 64, 39
1, 1330152, Control_c, 0, 64, 0
1, 1330164, Note_on_c, 0, 53, 106
1, 1330167, Control_c, 0, 64, 48
1, 1330168, Note_on_c, 0, 41, 101
1, 1330189, Control_c, 0, 64, 67
1, 1330204, Control_c, 0, 64, 90
1, 1330209, Note_off_c, 0, 41, 63
1, 1330210, Note_off_c, 0, 53, 68
1, 1330218, Control_c, 0, 64, 127
1, 1330239, Note_on_c, 0, 69, 72
1, 1330292, Note_on_c, 0, 81, 85
1, 1330292, Note_on_c, 0, 72, 78
1, 1330292, Control_c, 0, 64, 104
1, 1330295, Note_on_c, 0, 79, 81
1, 1330300, Note_on_c, 0, 51, 96
1, 1330304, Note_on_c, 0, 39, 105
1, 1330305, Note_off_c, 0, 69, 64
1, 1330307, Control_c, 0, 64, 68
1, 1330322, Note_off_c, 0, 79, 65
1, 1330322, Control_c, 0, 64, 0
1, 1330325, Note_off_c, 0, 72, 65
1, 1330327, Note_off_c, 0, 51, 66
1, 1330329, Note_off_c, 0, 39, 60
1, 1330329, Note_off_c, 0, 81, 64
1, 1330427, Control_c, 0, 64, 64
1, 1330430, Note_on_c, 0, 43, 109
1, 1330434, Note_on_c, 0, 31, 107
1, 1330442, Control_c, 0, 64, 127
1, 1330462, Note_off_c, 0, 31, 64
1, 1330467, Note_off_c, 0, 43, 67
1, 1330498, Note_on_c, 0, 61, 78
1, 1330545, Control_c, 0, 64, 79
1, 1330552, Note_on_c, 0, 73, 76
1, 1330554, Note_on_c, 0, 67, 67
1, 1330557, Note_off_c, 0, 61, 64
1, 1330561, Note_on_c, 0, 57, 109
1, 1330561, Control_c, 0, 64, 43
1, 1330566, Note_on_c, 0, 69, 56
1, 1330567, Note_on_c, 0, 45, 95
1, 1330572, Note_off_c, 0, 67, 68
1, 1330576, Control_c, 0, 64, 0
1, 1330588, Note_off_c, 0, 69, 62
1, 1330591, Control_c, 0, 64, 53
1, 1330595, Note_off_c, 0, 45, 67
1, 1330597, Note_off_c, 0, 57, 70
1, 1330601, Note_off_c, 0, 73, 65
1, 1330605, Control_c, 0, 64, 73
1, 1330620, Control_c, 0, 64, 127
1, 1330650, Control_c, 0, 64, 88
1, 1330665, Control_c, 0, 64, 47
1, 1330678, Note_on_c, 0, 62, 100
1, 1330679, Control_c, 0, 64, 0
1, 1330687, Note_on_c, 0, 50, 88
1, 1330709, Note_on_c, 0, 69, 75
1, 1330713, Note_off_c, 0, 50, 65
1, 1330714, Note_on_c, 0, 52, 49
1, 1330714, Note_off_c, 0, 52, 127
1, 1330719, Note_off_c, 0, 62, 68
1, 1330724, Control_c, 0, 64, 54
1, 1330739, Control_c, 0, 64, 54
1, 1330753, Control_c, 0, 64, 0
1, 1330790, Note_on_c, 0, 76, 76
1, 1330795, Note_on_c, 0, 80, 88
1, 1330798, Control_c, 0, 64, 57
1, 1330799, Note_on_c, 0, 60, 105
1, 1330801, Note_on_c, 0, 81, 80
1, 1330805, Note_on_c, 0, 48, 97
1, 1330813, Note_off_c, 0, 69, 62
1, 1330813, Control_c, 0, 64, 75
1, 1330820, Note_off_c, 0, 76, 67
1, 1330827, Control_c, 0, 64, 77
1, 1330834, Note_off_c, 0, 60, 72
1, 1330834, Note_off_c, 0, 80, 68
1, 1330835, Note_off_c, 0, 48, 65
1, 1330842, Control_c, 0, 64, 72
1, 1330844, Note_off_c, 0, 81, 64
1, 1330857, Control_c, 0, 64, 60
1, 1330872, Control_c, 0, 64, 39
1, 1330886, Control_c, 0, 64, 0
1, 1330933, Note_on_c, 0, 63, 115
1, 1330938, Note_on_c, 0, 51, 100
1, 1330954, Control_c, 0, 64, 42
1, 1330963, Note_off_c, 0, 51, 69
1, 1330964, Note_off_c, 0, 63, 72
1, 1330968, Control_c, 0, 64, 76
1, 1330975, Note_on_c, 0, 69, 82
1, 1330983, Control_c, 0, 64, 127
1, 1331048, Note_on_c, 0, 81, 91
1, 1331051, Note_on_c, 0, 79, 86
1, 1331065, Note_off_c, 0, 69, 64
1, 1331068, Note_on_c, 0, 73, 50
1, 1331071, Note_on_c, 0, 72, 69
1, 1331082, Note_off_c, 0, 79, 63
1, 1331083, Note_off_c, 0, 81, 63
1, 1331088, Note_off_c, 0, 72, 67
1, 1331091, Note_off_c, 0, 73, 58
1, 1331160, Control_c, 0, 64, 88
1, 1331174, Note_on_c, 0, 58, 98
1, 1331175, Control_c, 0, 64, 62
1, 1331190, Control_c, 0, 64, 54
1, 1331205, Control_c, 0, 64, 67
1, 1331213, Note_off_c, 0, 58, 69
1, 1331217, Note_on_c, 0, 64, 73
1, 1331220, Control_c, 0, 64, 84
1, 1331234, Note_on_c, 0, 68, 38
1, 1331234, Control_c, 0, 64, 127
1, 1331242, Note_on_c, 0, 67, 56
1, 1331264, Note_off_c, 0, 67, 65
1, 1331265, Note_off_c, 0, 64, 61
1, 1331266, Note_off_c, 0, 68, 56
1, 1331291, Note_on_c, 0, 59, 104
1, 1331315, Note_on_c, 0, 65, 79
1, 1331318, Note_off_c, 0, 59, 71
1, 1331322, Note_on_c, 0, 69, 72
1, 1331323, Control_c, 0, 64, 93
1, 1331338, Control_c, 0, 64, 61
1, 1331354, Control_c, 0, 64, 0
1, 1331357, Note_off_c, 0, 69, 62
1, 1331375, Note_off_c, 0, 65, 59
1, 1331413, Control_c, 0, 64, 32
1, 1331428, Control_c, 0, 64, 67
1, 1331440, Note_on_c, 0, 62, 86
1, 1331441, Note_on_c, 0, 70, 101
1, 1331443, Control_c, 0, 64, 91
1, 1331449, Note_on_c, 0, 82, 124
1, 1331457, Control_c, 0, 64, 127
1, 1331464, Note_off_c, 0, 82, 69
1, 1331482, Note_off_c, 0, 62, 63
1, 1331485, Note_off_c, 0, 70, 68
1, 1331514, Note_on_c, 0, 65, 13
1, 1331562, Poly_aftertouch_c, 0, 80, 0
1, 1331664, Control_c, 0, 64, 87
1, 1331666, Note_off_c, 0, 65, 0
1, 1331687, Control_c, 0, 64, 62
1, 1331699, Note_on_c, 0, 70, 84
1, 1331702, Control_c, 0, 64, 52
1, 1331705, Note_on_c, 0, 62, 82
1, 1331716, Control_c, 0, 64, 64
1, 1331720, Poly_aftertouch_c, 0, 65, 0
1, 1331730, Note_off_c, 0, 62, 68
1, 1331731, Control_c, 0, 64, 78
1, 1331733, Note_off_c, 0, 70, 68
1, 1331746, Control_c, 0, 64, 83
1, 1331761, Control_c, 0, 64, 78
1, 1331761, Control_c, 0, 67, 38
1, 1331776, Control_c, 0, 64, 65
1, 1331776, Control_c, 0, 67, 80
1, 1331789, Note_on_c, 0, 62, 72
1, 1331790, Control_c, 0, 64, 51
1, 1331790, Control_c, 0, 67, 79
1, 1331805, Control_c, 0, 64, 34
1, 1331805, Control_c, 0, 67, 80
1, 1331807, Note_on_c, 0, 53, 61
1, 1331811, Note_on_c, 0, 55, 53
1, 1331820, Control_c, 0, 64, 0
1, 1331820, Control_c, 0, 67, 83
1, 1331839, Note_off_c, 0, 53, 64
1, 1331840, Note_off_c, 0, 55, 62
1, 1331853, Note_on_c, 0, 65, 76
1, 1331862, Note_off_c, 0, 62, 60
1, 1331864, Control_c, 0, 67, 84
1, 1331867, Note_on_c, 0, 58, 52
1, 1331879, Control_c, 0, 67, 85
1, 1331881, Note_off_c, 0, 65, 65
1, 1331892, Note_off_c, 0, 58, 59
1, 1331894, Control_c, 0, 67, 86
1, 1331908, Control_c, 0, 67, 87
1, 1331923, Control_c, 0, 67, 88
1, 1331938, Control_c, 0, 64, 34
1, 1331938, Control_c, 0, 67, 90
1, 1331950, Note_on_c, 0, 58, 80
1, 1331953, Note_on_c, 0, 65, 90
1, 1331953, Control_c, 0, 64, 61
1, 1331953, Control_c, 0, 67, 93
1, 1331968, Control_c, 0, 64, 73
1, 1331968, Control_c, 0, 67, 98
1, 1331971, Note_off_c, 0, 58, 71
1, 1331983, Control_c, 0, 64, 83
1, 1331983, Control_c, 0, 67, 105
1, 1331995, Note_off_c, 0, 65, 62
1, 1331998, Control_c, 0, 64, 87
1, 1331998, Control_c, 0, 67, 113
1, 1332012, Control_c, 0, 64, 86
1, 1332012, Control_c, 0, 67, 122
1, 1332024, Note_on_c, 0, 50, 63
1, 1332027, Control_c, 0, 64, 80
1, 1332027, Control_c, 0, 67, 127
1, 1332041, Note_on_c, 0, 58, 80
1, 1332042, Control_c, 0, 64, 68
1, 1332057, Control_c, 0, 64, 54
1, 1332072, Control_c, 0, 64, 0
1, 1332072, Note_off_c, 0, 58, 67
1, 1332095, Note_off_c, 0, 50, 62
1, 1332104, Note_on_c, 0, 53, 66
1, 1332114, Note_on_c, 0, 62, 81
1, 1332142, Note_off_c, 0, 53, 64
1, 1332166, Note_off_c, 0, 62, 63
1, 1332202, Note_on_c, 0, 65, 91
1, 1332206, Control_c, 0, 64, 39
1, 1332209, Note_on_c, 0, 58, 51
1, 1332221, Control_c, 0, 64, 63
1, 1332233, Note_off_c, 0, 58, 60
1, 1332236, Control_c, 0, 64, 50
1, 1332238, Note_off_c, 0, 65, 64
1, 1332250, Control_c, 0, 64, 0
1, 1332279, Note_on_c, 0, 62, 78
1, 1332291, Note_on_c, 0, 53, 61
1, 1332315, Note_off_c, 0, 62, 63
1, 1332347, Note_off_c, 0, 53, 56
1, 1332358, Note_on_c, 0, 71, 85
1, 1332378, Note_on_c, 0, 57, 57
1, 1332388, Note_off_c, 0, 71, 67
1, 1332403, Note_off_c, 0, 57, 62
1, 1332443, Note_on_c, 0, 71, 89
1, 1332449, Note_on_c, 0, 62, 65
1, 1332465, Control_c, 0, 64, 61
1, 1332474, Note_off_c, 0, 71, 70
1, 1332480, Control_c, 0, 64, 66
1, 1332485, Note_off_c, 0, 62, 61
1, 1332495, Control_c, 0, 64, 57
1, 1332510, Control_c, 0, 64, 0
1, 1332528, Note_on_c, 0, 57, 61
1, 1332537, Note_on_c, 0, 65, 82
1, 1332570, Note_off_c, 0, 65, 66
1, 1332580, Note_off_c, 0, 57, 58
1, 1332612, Note_on_c, 0, 70, 84
1, 1332621, Note_on_c, 0, 62, 54
1, 1332635, Note_off_c, 0, 70, 66
1, 1332662, Note_off_c, 0, 62, 62
1, 1332691, Note_on_c, 0, 66, 61
1, 1332695, Note_on_c, 0, 70, 104
1, 1332718, Control_c, 0, 64, 58
1, 1332724, Note_off_c, 0, 70, 71
1, 1332732, Control_c, 0, 64, 71
1, 1332747, Control_c, 0, 64, 60
1, 1332762, Control_c, 0, 64, 0
1, 1332775, Note_on_c, 0, 57, 44
1, 1332784, Note_on_c, 0, 62, 73
1, 1332814, Note_off_c, 0, 62, 64
1, 1332832, Note_off_c, 0, 57, 57
1, 1332850, Note_on_c, 0, 63, 51
1, 1332860, Note_on_c, 0, 69, 76
1, 1332880, Note_off_c, 0, 66, 38
1, 1332887, Note_off_c, 0, 69, 65
1, 1332912, Note_off_c, 0, 63, 59
1, 1332940, Control_c, 0, 67, 124
1, 1332946, Note_on_c, 0, 69, 98
1, 1332950, Note_on_c, 0, 67, 57
1, 1332970, Control_c, 0, 64, 64
1, 1332975, Note_off_c, 0, 69, 69
1, 1332985, Control_c, 0, 64, 91
1, 1332991, Note_off_c, 0, 67, 62
1, 1333000, Control_c, 0, 64, 127
1, 1333000, Control_c, 0, 67, 127
1, 1333018, Note_on_c, 0, 63, 58
1, 1333043, Note_on_c, 0, 60, 80
1, 1333089, Note_off_c, 0, 60, 62
1, 1333092, Note_off_c, 0, 63, 62
1, 1333111, Note_on_c, 0, 58, 58
1, 1333122, Note_on_c, 0, 67, 74
1, 1333133, Control_c, 0, 64, 93
1, 1333137, Note_off_c, 0, 58, 65
1, 1333148, Control_c, 0, 64, 71
1, 1333153, Note_off_c, 0, 67, 64
1, 1333163, Control_c, 0, 64, 44
1, 1333185, Control_c, 0, 64, 0
1, 1333185, Control_c, 0, 67, 124
1, 1333200, Control_c, 0, 67, 121
1, 1333203, Note_on_c, 0, 55, 65
1, 1333206, Note_on_c, 0, 69, 97
1, 1333215, Control_c, 0, 67, 119
1, 1333229, Control_c, 0, 67, 117
1, 1333238, Note_off_c, 0, 69, 66
1, 1333244, Control_c, 0, 64, 64
1, 1333259, Control_c, 0, 64, 95
1, 1333273, Control_c, 0, 64, 127
1, 1333273, Control_c, 0, 67, 120
1, 1333277, Note_off_c, 0, 55, 61
1, 1333288, Control_c, 0, 67, 122
1, 1333291, Note_on_c, 0, 60, 78
1, 1333301, Note_on_c, 0, 46, 64
1, 1333318, Control_c, 0, 67, 124
1, 1333333, Control_c, 0, 64, 87
1, 1333340, Note_off_c, 0, 60, 62
1, 1333348, Control_c, 0, 64, 67
1, 1333363, Control_c, 0, 64, 47
1, 1333368, Note_on_c, 0, 67, 84
1, 1333375, Note_on_c, 0, 51, 58
1, 1333376, Control_c, 0, 64, 0
1, 1333378, Note_off_c, 0, 46, 60
1, 1333391, Control_c, 0, 67, 122
1, 1333405, Note_off_c, 0, 67, 64
1, 1333417, Note_off_c, 0, 51, 64
1, 1333433, Note_on_c, 0, 55, 64
1, 1333435, Control_c, 0, 67, 120
1, 1333450, Control_c, 0, 67, 118
1, 1333454, Note_on_c, 0, 74, 105
1, 1333464, Note_off_c, 0, 55, 64
1, 1333479, Control_c, 0, 64, 30
1, 1333479, Control_c, 0, 67, 114
1, 1333494, Control_c, 0, 64, 68
1, 1333494, Control_c, 0, 67, 108
1, 1333503, Note_off_c, 0, 74, 60
1, 1333509, Control_c, 0, 64, 127
1, 1333509, Control_c, 0, 67, 103
1, 1333522, Note_on_c, 0, 58, 76
1, 1333524, Control_c, 0, 67, 100
1, 1333541, Note_on_c, 0, 64, 75
1, 1333560, Note_on_c, 0, 65, 72
1, 1333578, Note_off_c, 0, 65, 67
1, 1333581, Note_off_c, 0, 58, 62
1, 1333583, Control_c, 0, 67, 98
1, 1333584, Note_off_c, 0, 64, 62
1, 1333621, Note_on_c, 0, 67, 83
1, 1333628, Note_on_c, 0, 64, 49
1, 1333628, Control_c, 0, 67, 96
1, 1333643, Control_c, 0, 64, 81
1, 1333658, Control_c, 0, 64, 53
1, 1333658, Control_c, 0, 67, 96
1, 1333658, Note_off_c, 0, 64, 65
1, 1333664, Note_off_c, 0, 67, 63
1, 1333672, Control_c, 0, 64, 0
1, 1333672, Control_c, 0, 67, 95
1, 1333687, Control_c, 0, 67, 94
1, 1333691, Note_on_c, 0, 66, 75
1, 1333694, Note_on_c, 0, 72, 104
1, 1333702, Control_c, 0, 67, 93
1, 1333717, Control_c, 0, 64, 55
1, 1333717, Control_c, 0, 67, 90
1, 1333726, Note_off_c, 0, 72, 70
1, 1333732, Control_c, 0, 64, 81
1, 1333732, Control_c, 0, 67, 84
1, 1333735, Note_off_c, 0, 66, 56
1, 1333747, Control_c, 0, 64, 127
1, 1333747, Control_c, 0, 67, 72
1, 1333762, Control_c, 0, 67, 50
1, 1333768, Note_on_c, 0, 63, 75
1, 1333777, Control_c, 0, 67, 0
1, 1333782, Note_on_c, 0, 67, 97
1, 1333792, Control_c, 0, 64, 122
1, 1333807, Control_c, 0, 64, 67
1, 1333821, Control_c, 0, 64, 0
1, 1333826, Note_off_c, 0, 67, 64
1, 1333849, Note_off_c, 0, 63, 60
1, 1333856, Note_on_c, 0, 68, 81
1, 1333859, Note_on_c, 0, 71, 97
1, 1333896, Note_off_c, 0, 68, 64
1, 1333896, Note_off_c, 0, 71, 65
1, 1333944, Note_on_c, 0, 69, 98
1, 1333949, Note_on_c, 0, 75, 81
1, 1333949, Note_off_c, 0, 75, 127
1, 1333955, Note_on_c, 0, 74, 99
1, 1333962, Control_c, 0, 64, 59
1, 1333965, Note_on_c, 0, 73, 71
1, 1333967, Poly_aftertouch_c, 0, 75, 0
1, 1333973, Note_off_c, 0, 69, 66
1, 1333977, Control_c, 0, 64, 78
1, 1333987, Note_off_c, 0, 73, 70
1, 1333992, Note_off_c, 0, 74, 69
1, 1333992, Control_c, 0, 64, 94
1, 1334007, Control_c, 0, 64, 127
1, 1334035, Note_on_c, 0, 74, 95
1, 1334081, Note_off_c, 0, 74, 62
1, 1334096, Note_on_c, 0, 71, 89
1, 1334125, Control_c, 0, 64, 78
1, 1334138, Note_off_c, 0, 71, 66
1, 1334140, Control_c, 0, 64, 46
1, 1334155, Control_c, 0, 64, 0
1, 1334184, Control_c, 0, 64, 48
1, 1334186, Note_on_c, 0, 68, 83
1, 1334187, Note_on_c, 0, 77, 102
1, 1334199, Control_c, 0, 64, 70
1, 1334214, Control_c, 0, 64, 127
1, 1334218, Note_off_c, 0, 77, 70
1, 1334246, Note_off_c, 0, 68, 63
1, 1334269, Note_on_c, 0, 58, 81
1, 1334273, Control_c, 0, 64, 97
1, 1334288, Control_c, 0, 64, 63
1, 1334302, Control_c, 0, 64, 34
1, 1334308, Note_off_c, 0, 58, 67
1, 1334317, Control_c, 0, 64, 58
1, 1334324, Note_on_c, 0, 75, 111
1, 1334332, Control_c, 0, 64, 77
1, 1334340, Note_on_c, 0, 59, 53
1, 1334347, Control_c, 0, 64, 127
1, 1334348, Note_off_c, 0, 75, 76
1, 1334376, Control_c, 0, 64, 107
1, 1334391, Control_c, 0, 64, 64
1, 1334406, Control_c, 0, 64, 0
1, 1334415, Note_on_c, 0, 64, 62
1, 1334430, Note_off_c, 0, 59, 57
1, 1334436, Control_c, 0, 64, 46
1, 1334442, Note_on_c, 0, 67, 102
1, 1334448, Note_off_c, 0, 64, 64
1, 1334451, Control_c, 0, 64, 66
1, 1334466, Control_c, 0, 64, 81
1, 1334481, Control_c, 0, 64, 88
1, 1334484, Note_off_c, 0, 67, 69
1, 1334492, Note_on_c, 0, 65, 83
1, 1334495, Control_c, 0, 64, 74
1, 1334510, Control_c, 0, 64, 38
1, 1334525, Control_c, 0, 64, 0
1, 1334540, Control_c, 0, 64, 40
1, 1334553, Note_off_c, 0, 65, 63
1, 1334555, Control_c, 0, 64, 62
1, 1334556, Note_on_c, 0, 69, 106
1, 1334570, Control_c, 0, 64, 79
1, 1334575, Note_on_c, 0, 66, 87
1, 1334585, Control_c, 0, 64, 81
1, 1334593, Note_off_c, 0, 69, 70
1, 1334600, Control_c, 0, 64, 70
1, 1334615, Control_c, 0, 64, 47
1, 1334630, Control_c, 0, 64, 54
1, 1334635, Note_off_c, 0, 66, 60
1, 1334644, Control_c, 0, 64, 67
1, 1334659, Control_c, 0, 64, 67
1, 1334660, Note_on_c, 0, 67, 83
1, 1334681, Control_c, 0, 64, 61
1, 1334683, Note_on_c, 0, 74, 113
1, 1334696, Control_c, 0, 64, 37
1, 1334710, Note_off_c, 0, 74, 72
1, 1334711, Control_c, 0, 64, 43
1, 1334725, Control_c, 0, 64, 64
1, 1334728, Note_off_c, 0, 67, 59
1, 1334740, Control_c, 0, 64, 75
1, 1334746, Note_on_c, 0, 68, 95
1, 1334755, Control_c, 0, 64, 74
1, 1334770, Control_c, 0, 64, 60
1, 1334785, Control_c, 0, 64, 0
1, 1334803, Note_on_c, 0, 72, 109
1, 1334814, Note_off_c, 0, 68, 67
1, 1334815, Control_c, 0, 64, 41
1, 1334822, Note_on_c, 0, 69, 91
1, 1334829, Control_c, 0, 64, 64
1, 1334841, Note_off_c, 0, 72, 71
1, 1334842, Note_on_c, 0, 79, 49
1, 1334842, Note_off_c, 0, 79, 127
1, 1334844, Control_c, 0, 64, 63
1, 1334859, Control_c, 0, 64, 47
1, 1334874, Control_c, 0, 64, 0
1, 1334875, Note_off_c, 0, 69, 67
1, 1334913, Note_on_c, 0, 71, 91
1, 1334919, Control_c, 0, 64, 59
1, 1334932, Note_on_c, 0, 74, 110
1, 1334934, Control_c, 0, 64, 76
1, 1334940, Note_on_c, 0, 75, 69
1, 1334949, Control_c, 0, 64, 94
1, 1334957, Note_off_c, 0, 74, 73
1, 1334958, Note_off_c, 0, 75, 68
1, 1334964, Control_c, 0, 64, 127
1, 1335010, Note_on_c, 0, 66, 94
1, 1335031, Note_off_c, 0, 71, 64
1, 1335068, Note_on_c, 0, 69, 65
1, 1335098, Note_off_c, 0, 66, 61
1, 1335133, Note_off_c, 0, 69, 63
1, 1335135, Note_on_c, 0, 74, 98
1, 1335180, Note_on_c, 0, 82, 126
1, 1335196, Note_off_c, 0, 74, 64
1, 1335203, Note_off_c, 0, 82, 73
1, 1335233, Note_on_c, 0, 70, 89
1, 1335245, Note_on_c, 0, 69, 91
1, 1335259, Note_off_c, 0, 70, 69
1, 1335262, Note_on_c, 0, 74, 15
1, 1335280, Note_off_c, 0, 69, 67
1, 1335296, Note_on_c, 0, 83, 122
1, 1335309, Note_off_c, 0, 74, 50
1, 1335322, Note_off_c, 0, 83, 77
1, 1335452, Note_on_c, 0, 94, 125
1, 1335454, Note_on_c, 0, 82, 114
1, 1335463, Note_on_c, 0, 83, 107
1, 1335473, Note_off_c, 0, 83, 76
1, 1335475, Note_off_c, 0, 94, 74
1, 1335486, Note_off_c, 0, 82, 71
1, 1335491, Note_on_c, 0, 84, 42
1, 1335491, Note_off_c, 0, 84, 127
1, 1335547, Note_on_c, 0, 83, 25
1, 1335581, Note_off_c, 0, 83, 41
1, 1335623, Control_c, 0, 64, 66
1, 1335638, Control_c, 0, 64, 0
1, 1335728, Note_on_c, 0, 49, 21
1, 1335758, Note_off_c, 0, 49, 47
1, 1335849, Note_on_c, 0, 46, 116
1, 1335853, Note_on_c, 0, 34, 108
1, 1335855, Note_on_c, 0, 22, 115
1, 1335875, Control_c, 0, 64, 43
1, 1335882, Note_on_c, 0, 25, 46
1, 1335882, Note_off_c, 0, 25, 127
1, 1335888, Note_on_c, 0, 21, 61
1, 1335890, Control_c, 0, 64, 127
1, 1335914, Note_off_c, 0, 34, 65
1, 1335926, Note_off_c, 0, 46, 67
1, 1335932, Note_off_c, 0, 21, 46
1, 1335935, Note_off_c, 0, 22, 63
1, 1335950, Poly_aftertouch_c, 0, 25, 0
1, 1336217, Note_on_c, 0, 63, 95
1, 1336223, Note_on_c, 0, 66, 99
1, 1336227, Note_on_c, 0, 70, 110
1, 1336227, Note_on_c, 0, 77, 100
1, 1336227, Note_on_c, 0, 82, 109
1, 1336242, Note_on_c, 0, 81, 98
1, 1336245, Note_on_c, 0, 71, 80
1, 1336247, Note_on_c, 0, 64, 88
1, 1336248, Note_on_c, 0, 89, 70
1, 1336254, Note_on_c, 0, 72, 62
1, 1336258, Note_on_c, 0, 61, 55
1, 1336261, Note_off_c, 0, 71, 63
1, 1336266, Note_off_c, 0, 89, 67
1, 1336273, Note_off_c, 0, 63, 61
1, 1336273, Note_off_c, 0, 72, 64
1, 1336284, Note_off_c, 0, 61, 62
1, 1336284, Note_off_c, 0, 66, 69
1, 1336287, Note_off_c, 0, 70, 69
1, 1336290, Note_off_c, 0, 64, 65
1, 1336291, Note_off_c, 0, 81, 54
1, 1336321, Note_on_c, 0, 86, 82
1, 1336341, Note_off_c, 0, 82, 53
1, 1336352, Note_off_c, 0, 77, 62
1, 1336415, Note_off_c, 0, 86, 62
1, 1336416, Note_on_c, 0, 89, 99
1, 1336430, Note_on_c, 0, 91, 58
1, 1336430, Note_off_c, 0, 91, 127
1, 1336433, Note_on_c, 0, 88, 46
1, 1336460, Note_off_c, 0, 88, 61
1, 1336475, Note_off_c, 0, 89, 68
1, 1336500, Note_on_c, 0, 64, 101
1, 1336502, Note_on_c, 0, 56, 106
1, 1336503, Note_on_c, 0, 61, 97
1, 1336508, Note_on_c, 0, 86, 92
1, 1336508, Note_on_c, 0, 88, 101
1, 1336511, Note_on_c, 0, 83, 85
1, 1336531, Note_off_c, 0, 64, 70
1, 1336536, Note_off_c, 0, 61, 68
1, 1336543, Note_off_c, 0, 56, 64
1, 1336579, Note_off_c, 0, 86, 55
1, 1336599, Note_on_c, 0, 91, 99
1, 1336603, Note_off_c, 0, 88, 67
1, 1336612, Note_off_c, 0, 83, 65
1, 1336669, Note_off_c, 0, 91, 68
1, 1336675, Note_on_c, 0, 95, 100
1, 1336698, Poly_aftertouch_c, 0, 49, 127
1, 1336731, Note_off_c, 0, 95, 68
1, 1336738, Poly_aftertouch_c, 0, 49, 0
1, 1336776, Note_on_c, 0, 53, 102
1, 1336776, Note_on_c, 0, 58, 109
1, 1336776, Note_on_c, 0, 94, 110
1, 1336776, Note_on_c, 0, 50, 101
1, 1336776, Note_on_c, 0, 89, 101
1, 1336812, Note_off_c, 0, 50, 66
1, 1336824, Note_off_c, 0, 58, 63
1, 1336827, Note_off_c, 0, 53, 66
1, 1336827, Note_off_c, 0, 94, 69
1, 1336860, Note_off_c, 0, 89, 0
1, 1336861, Note_on_c, 0, 98, 98
1, 1336875, Note_on_c, 0, 89, 38
1, 1336910, Note_off_c, 0, 89, 45
1, 1336954, Note_off_c, 0, 98, 69
1, 1336962, Note_on_c, 0, 101, 88
1, 1336979, Note_off_c, 0, 101, 72
1, 1336999, Note_on_c, 0, 100, 30
1, 1337025, Note_off_c, 0, 100, 55
1, 1337046, Note_on_c, 0, 56, 98
1, 1337046, Note_on_c, 0, 64, 95
1, 1337050, Note_on_c, 0, 88, 108
1, 1337051, Note_on_c, 0, 60, 99
1, 1337053, Note_on_c, 0, 83, 97
1, 1337064, Note_on_c, 0, 59, 40
1, 1337068, Note_on_c, 0, 62, 58
1, 1337068, Note_off_c, 0, 62, 127
1, 1337080, Note_off_c, 0, 64, 68
1, 1337088, Note_off_c, 0, 60, 69
1, 1337089, Note_off_c, 0, 59, 59
1, 1337092, Note_off_c, 0, 56, 66
1, 1337105, Note_off_c, 0, 83, 59
1, 1337133, Note_off_c, 0, 88, 38
1, 1337134, Note_on_c, 0, 92, 101
1, 1337195, Note_off_c, 0, 92, 71
1, 1337215, Note_on_c, 0, 93, 105
1, 1337220, Note_on_c, 0, 91, 56
1, 1337241, Note_off_c, 0, 91, 60
1, 1337272, Note_off_c, 0, 93, 67
1, 1337317, Note_on_c, 0, 70, 112
1, 1337320, Note_on_c, 0, 62, 83
1, 1337320, Note_on_c, 0, 65, 104
1, 1337323, Note_on_c, 0, 81, 98
1, 1337326, Note_on_c, 0, 77, 75
1, 1337327, Note_on_c, 0, 82, 63
1, 1337329, Note_on_c, 0, 76, 80
1, 1337348, Note_off_c, 0, 76, 72
1, 1337360, Note_off_c, 0, 70, 69
1, 1337371, Note_off_c, 0, 65, 69
1, 1337374, Note_off_c, 0, 81, 60
1, 1337380, Note_off_c, 0, 62, 64
1, 1337386, Note_off_c, 0, 82, 57
1, 1337395, Note_off_c, 0, 77, 57
1, 1337399, Note_on_c, 0, 86, 81
1, 1337479, Note_on_c, 0, 89, 93
1, 1337494, Note_off_c, 0, 86, 64
1, 1337566, Note_off_c, 0, 89, 69
1, 1337574, Note_on_c, 0, 61, 95
1, 1337574, Note_on_c, 0, 64, 93
1, 1337575, Note_on_c, 0, 56, 99
1, 1337581, Note_on_c, 0, 88, 93
1, 1337589, Note_on_c, 0, 83, 85
1, 1337608, Note_off_c, 0, 64, 65
1, 1337609, Note_off_c, 0, 61, 66
1, 1337620, Note_off_c, 0, 56, 64
1, 1337672, Note_on_c, 0, 92, 99
1, 1337682, Note_off_c, 0, 88, 66
1, 1337690, Note_off_c, 0, 83, 40
1, 1337694, Poly_aftertouch_c, 0, 62, 0
1, 1337738, Note_on_c, 0, 93, 61
1, 1337739, Note_off_c, 0, 92, 67
1, 1337751, Note_on_c, 0, 96, 92
1, 1337753, Note_on_c, 0, 95, 86
1, 1337757, Note_off_c, 0, 93, 64
1, 1337809, Note_off_c, 0, 96, 66
1, 1337810, Note_off_c, 0, 95, 65
1, 1337838, Note_on_c, 0, 58, 112
1, 1337842, Note_on_c, 0, 53, 103
1, 1337843, Note_on_c, 0, 50, 87
1, 1337845, Note_on_c, 0, 94, 105
1, 1337846, Note_on_c, 0, 89, 95
1, 1337873, Note_off_c, 0, 50, 62
1, 1337874, Note_off_c, 0, 58, 69
1, 1337888, Note_off_c, 0, 53, 66
1, 1337892, Note_off_c, 0, 94, 68
1, 1337902, Note_off_c, 0, 89, 61
1, 1337929, Note_on_c, 0, 98, 96
1, 1337996, Note_on_c, 0, 101, 89
1, 1337999, Note_off_c, 0, 98, 68
1, 1338022, Note_off_c, 0, 101, 63
1, 1338105, Note_on_c, 0, 64, 102
1, 1338105, Note_on_c, 0, 83, 95
1, 1338105, Note_on_c, 0, 88, 99
1, 1338108, Note_on_c, 0, 56, 105
1, 1338112, Note_on_c, 0, 61, 83
1, 1338112, Note_off_c, 0, 61, 127
1, 1338122, Note_on_c, 0, 62, 84
1, 1338136, Note_off_c, 0, 64, 71
1, 1338141, Note_off_c, 0, 62, 71
1, 1338142, Note_off_c, 0, 56, 67
1, 1338153, Note_off_c, 0, 83, 63
1, 1338174, Note_off_c, 0, 88, 56
1, 1338189, Note_on_c, 0, 92, 96
1, 1338218, Note_off_c, 0, 92, 67
1, 1338282, Note_on_c, 0, 86, 101
1, 1338309, Poly_aftertouch_c, 0, 91, 0
1, 1338320, Note_off_c, 0, 86, 66
1, 1338329, Control_c, 0, 64, 96
1, 1338344, Control_c, 0, 64, 63
1, 1338359, Control_c, 0, 64, 40
1, 1338360, Note_on_c, 0, 62, 100
1, 1338362, Note_on_c, 0, 53, 94
1, 1338372, Note_on_c, 0, 58, 79
1, 1338374, Control_c, 0, 64, 52
1, 1338378, Note_on_c, 0, 86, 101
1, 1338388, Control_c, 0, 64, 66
1, 1338403, Control_c, 0, 64, 82
1, 1338425, Control_c, 0, 64, 127
1, 1338433, Note_on_c, 0, 84, 34
1, 1338433, Note_off_c, 0, 86, 65
1, 1338465, Note_off_c, 0, 84, 54
1, 1338469, Note_on_c, 0, 89, 107
1, 1338475, Note_off_c, 0, 62, 67
1, 1338483, Note_off_c, 0, 58, 62
1, 1338493, Note_off_c, 0, 53, 60
1, 1338507, Note_off_c, 0, 89, 69
1, 1338508, Note_on_c, 0, 65, 88
1, 1338550, Note_on_c, 0, 89, 100
1, 1338569, Note_on_c, 0, 64, 9
1, 1338585, Note_off_c, 0, 89, 67
1, 1338598, Note_off_c, 0, 65, 63
1, 1338603, Note_off_c, 0, 64, 0
1, 1338627, Poly_aftertouch_c, 0, 64, 0
1, 1338634, Note_on_c, 0, 89, 97
1, 1338639, Note_on_c, 0, 64, 67
1, 1338642, Note_on_c, 0, 59, 79
1, 1338642, Note_on_c, 0, 68, 100
1, 1338677, Note_off_c, 0, 89, 68
1, 1338696, Note_off_c, 0, 59, 62
1, 1338714, Note_on_c, 0, 94, 105
1, 1338722, Note_off_c, 0, 64, 62
1, 1338738, Note_off_c, 0, 68, 65
1, 1338749, Note_off_c, 0, 94, 71
1, 1338760, Note_on_c, 0, 71, 99
1, 1338788, Note_on_c, 0, 94, 107
1, 1338807, Note_off_c, 0, 71, 66
1, 1338821, Note_off_c, 0, 94, 70
1, 1338886, Note_on_c, 0, 95, 104
1, 1338887, Note_on_c, 0, 94, 81
1, 1338887, Note_off_c, 0, 94, 127
1, 1338888, Note_on_c, 0, 65, 100
1, 1338892, Note_on_c, 0, 74, 95
1, 1338894, Note_on_c, 0, 76, 101
1, 1338899, Note_on_c, 0, 71, 76
1, 1338910, Poly_aftertouch_c, 0, 94, 0
1, 1338919, Note_off_c, 0, 95, 67
1, 1338935, Note_off_c, 0, 76, 64
1, 1338949, Note_off_c, 0, 71, 66
1, 1338950, Note_off_c, 0, 74, 66
1, 1338959, Note_on_c, 0, 72, 5
1, 1338959, Note_off_c, 0, 72, 127
1, 1338966, Note_on_c, 0, 98, 106
1, 1338982, Note_off_c, 0, 65, 55
1, 1339004, Note_on_c, 0, 76, 93
1, 1339006, Note_off_c, 0, 98, 69
1, 1339053, Note_off_c, 0, 76, 64
1, 1339068, Note_on_c, 0, 98, 93
1, 1339068, Note_on_c, 0, 100, 89
1, 1339087, Note_off_c, 0, 100, 74
1, 1339104, Note_off_c, 0, 98, 65
1, 1339130, Note_on_c, 0, 59, 82
1, 1339135, Note_on_c, 0, 64, 84
1, 1339137, Note_on_c, 0, 68, 101
1, 1339139, Note_on_c, 0, 98, 92
1, 1339179, Note_off_c, 0, 59, 63
1, 1339192, Note_off_c, 0, 98, 67
1, 1339209, Note_off_c, 0, 64, 63
1, 1339232, Note_on_c, 0, 94, 101
1, 1339236, Note_off_c, 0, 68, 62
1, 1339260, Note_on_c, 0, 71, 83
1, 1339267, Note_off_c, 0, 94, 70
1, 1339272, Note_on_c, 0, 69, 71
1, 1339295, Note_off_c, 0, 69, 55
1, 1339315, Note_off_c, 0, 71, 64
1, 1339317, Note_on_c, 0, 94, 104
1, 1339352, Note_off_c, 0, 94, 69
1, 1339390, Note_on_c, 0, 62, 92
1, 1339392, Note_on_c, 0, 53, 85
1, 1339397, Control_c, 0, 64, 68
1, 1339399, Note_on_c, 0, 58, 82
1, 1339399, Note_on_c, 0, 94, 104
1, 1339412, Control_c, 0, 64, 47
1, 1339427, Control_c, 0, 64, 46
1, 1339429, Note_off_c, 0, 94, 72
1, 1339441, Control_c, 0, 64, 58
1, 1339446, Note_off_c, 0, 53, 56
1, 1339456, Control_c, 0, 64, 67
1, 1339471, Control_c, 0, 64, 79
1, 1339474, Note_off_c, 0, 58, 62
1, 1339474, Note_off_c, 0, 62, 60
1, 1339486, Control_c, 0, 64, 97
1, 1339490, Note_on_c, 0, 89, 104
1, 1339501, Control_c, 0, 64, 127
1, 1339506, Note_on_c, 0, 65, 85
1, 1339524, Note_off_c, 0, 89, 67
1, 1339569, Note_on_c, 0, 89, 105
1, 1339590, Note_off_c, 0, 65, 63
1, 1339599, Note_off_c, 0, 89, 68
1, 1339644, Note_on_c, 0, 68, 97
1, 1339648, Note_on_c, 0, 59, 68
1, 1339650, Note_on_c, 0, 89, 109
1, 1339653, Note_on_c, 0, 64, 80
1, 1339678, Note_off_c, 0, 89, 71
1, 1339697, Note_off_c, 0, 59, 58
1, 1339719, Note_off_c, 0, 64, 62
1, 1339730, Note_off_c, 0, 68, 62
1, 1339751, Note_on_c, 0, 71, 91
1, 1339830, Note_on_c, 0, 86, 116
1, 1339856, Note_off_c, 0, 71, 63
1, 1339858, Note_off_c, 0, 86, 69
1, 1339903, Note_on_c, 0, 74, 91
1, 1339906, Note_on_c, 0, 86, 110
1, 1339926, Note_on_c, 0, 70, 69
1, 1339936, Note_on_c, 0, 65, 62
1, 1339939, Note_on_c, 0, 64, 57
1, 1339947, Note_off_c, 0, 86, 70
1, 1339951, Note_off_c, 0, 70, 70
1, 1339962, Note_off_c, 0, 64, 61
1, 1339969, Note_off_c, 0, 74, 66
1, 1340013, Note_off_c, 0, 65, 62
1, 1340022, Note_on_c, 0, 76, 85
1, 1340080, Note_off_c, 0, 76, 64
1, 1340081, Note_on_c, 0, 89, 109
1, 1340146, Note_off_c, 0, 89, 60
1, 1340161, Note_on_c, 0, 68, 86
1, 1340163, Note_on_c, 0, 59, 79
1, 1340165, Note_on_c, 0, 77, 106
1, 1340170, Note_on_c, 0, 64, 69
1, 1340191, Note_on_c, 0, 87, 64
1, 1340192, Note_on_c, 0, 88, 62
1, 1340192, Note_off_c, 0, 88, 127
1, 1340196, Note_off_c, 0, 77, 70
1, 1340205, Note_off_c, 0, 64, 65
1, 1340206, Note_on_c, 0, 86, 42
1, 1340206, Note_off_c, 0, 86, 127
1, 1340210, Note_off_c, 0, 87, 64
1, 1340221, Note_off_c, 0, 68, 65
1, 1340234, Note_on_c, 0, 71, 96
1, 1340240, Note_off_c, 0, 59, 65
1, 1340261, Note_off_c, 0, 71, 67
1, 1340326, Note_on_c, 0, 89, 105
1, 1340362, Note_off_c, 0, 89, 67
1, 1340369, Control_c, 0, 64, 88
1, 1340384, Control_c, 0, 64, 63
1, 1340398, Control_c, 0, 64, 45
1, 1340413, Control_c, 0, 64, 54
1, 1340414, Note_on_c, 0, 89, 106
1, 1340428, Note_on_c, 0, 50, 91
1, 1340428, Control_c, 0, 64, 63
1, 1340431, Note_on_c, 0, 53, 91
1, 1340431, Note_on_c, 0, 58, 85
1, 1340439, Note_on_c, 0, 57, 94
1, 1340443, Control_c, 0, 64, 72
1, 1340444, Note_on_c, 0, 60, 68
1, 1340457, Note_off_c, 0, 89, 69
1, 1340457, Control_c, 0, 64, 90
1, 1340463, Note_off_c, 0, 60, 67
1, 1340472, Control_c, 0, 64, 127
1, 1340489, Note_off_c, 0, 53, 55
1, 1340493, Note_off_c, 0, 57, 46
1, 1340507, Note_off_c, 0, 58, 29
1, 1340513, Note_on_c, 0, 94, 86
1, 1340527, Note_off_c, 0, 50, 61
1, 1340527, Note_off_c, 0, 94, 68
1, 1340532, Note_on_c, 0, 95, 74
1, 1340545, Note_on_c, 0, 62, 92
1, 1340552, Note_off_c, 0, 95, 70
1, 1340589, Note_off_c, 0, 62, 65
1, 1340591, Note_on_c, 0, 94, 63
1, 1340591, Note_on_c, 0, 95, 89
1, 1340609, Note_off_c, 0, 95, 71
1, 1340621, Note_off_c, 0, 94, 54
1, 1340677, Note_on_c, 0, 59, 78
1, 1340677, Note_on_c, 0, 64, 86
1, 1340680, Note_on_c, 0, 95, 107
1, 1340689, Note_on_c, 0, 56, 60
1, 1340717, Note_off_c, 0, 95, 64
1, 1340718, Note_off_c, 0, 56, 52
1, 1340758, Note_on_c, 0, 98, 106
1, 1340761, Note_off_c, 0, 59, 60
1, 1340787, Note_on_c, 0, 68, 96
1, 1340794, Note_off_c, 0, 64, 42
1, 1340800, Note_off_c, 0, 98, 67
1, 1340821, Note_off_c, 0, 68, 68
1, 1340854, Note_on_c, 0, 100, 92
1, 1340875, Note_off_c, 0, 100, 69
1, 1340925, Note_on_c, 0, 98, 107
1, 1340932, Note_on_c, 0, 70, 84
1, 1340935, Note_on_c, 0, 65, 84
1, 1340940, Note_on_c, 0, 62, 73
1, 1340942, Note_on_c, 0, 71, 94
1, 1340942, Note_on_c, 0, 100, 35
1, 1340942, Note_off_c, 0, 100, 127
1, 1340951, Note_on_c, 0, 64, 66
1, 1340953, Note_off_c, 0, 70, 56
1, 1340960, Note_off_c, 0, 65, 67
1, 1340964, Note_off_c, 0, 98, 69
1, 1340985, Note_off_c, 0, 62, 60
1, 1340986, Note_off_c, 0, 71, 64
1, 1340988, Note_off_c, 0, 64, 42
1, 1341020, Note_on_c, 0, 101, 100
1, 1341021, Note_on_c, 0, 74, 94
1, 1341057, Note_off_c, 0, 101, 66
1, 1341062, Note_off_c, 0, 74, 67
1, 1341102, Note_on_c, 0, 101, 94
1, 1341141, Note_off_c, 0, 101, 65
1, 1341161, Note_on_c, 0, 64, 86
1, 1341167, Note_on_c, 0, 56, 74
1, 1341171, Note_on_c, 0, 59, 75
1, 1341182, Note_on_c, 0, 60, 60
1, 1341182, Note_on_c, 0, 101, 96
1, 1341212, Note_on_c, 0, 103, 40
1, 1341212, Note_off_c, 0, 103, 127
1, 1341217, Note_off_c, 0, 59, 62
1, 1341225, Note_off_c, 0, 64, 60
1, 1341227, Note_off_c, 0, 60, 43
1, 1341242, Note_off_c, 0, 56, 36
1, 1341257, Note_on_c, 0, 98, 100
1, 1341259, Note_on_c, 0, 68, 99
1, 1341271, Note_off_c, 0, 101, 31
1, 1341295, Note_off_c, 0, 98, 68
1, 1341306, Note_off_c, 0, 68, 66
1, 1341337, Note_on_c, 0, 98, 91
1, 1341349, Note_on_c, 0, 96, 76
1, 1341369, Note_off_c, 0, 96, 39
1, 1341390, Note_off_c, 0, 98, 66
1, 1341399, Control_c, 0, 64, 84
1, 1341420, Note_on_c, 0, 94, 116
1, 1341420, Note_on_c, 0, 50, 88
1, 1341421, Note_on_c, 0, 53, 88
1, 1341421, Control_c, 0, 64, 64
1, 1341423, Note_on_c, 0, 58, 96
1, 1341436, Control_c, 0, 64, 56
1, 1341447, Note_off_c, 0, 94, 72
1, 1341451, Control_c, 0, 64, 62
1, 1341466, Control_c, 0, 64, 69
1, 1341481, Control_c, 0, 64, 84
1, 1341484, Note_off_c, 0, 50, 56
1, 1341486, Note_off_c, 0, 53, 61
1, 1341495, Control_c, 0, 64, 127
1, 1341501, Note_off_c, 0, 58, 54
1, 1341519, Note_on_c, 0, 62, 89
1, 1341577, Note_off_c, 0, 62, 64
1, 1341602, Note_on_c, 0, 74, 102
1, 1341639, Note_off_c, 0, 74, 70
1, 1341658, Note_on_c, 0, 59, 77
1, 1341671, Note_on_c, 0, 63, 31
1, 1341671, Note_on_c, 0, 74, 103
1, 1341673, Note_on_c, 0, 64, 81
1, 1341682, Note_on_c, 0, 56, 45
1, 1341702, Note_off_c, 0, 74, 69
1, 1341704, Note_off_c, 0, 63, 57
1, 1341713, Note_off_c, 0, 56, 34
1, 1341723, Note_off_c, 0, 59, 64
1, 1341741, Note_off_c, 0, 64, 60
1, 1341758, Note_on_c, 0, 68, 90
1, 1341814, Note_off_c, 0, 68, 62
1, 1341846, Note_on_c, 0, 89, 94
1, 1341868, Note_off_c, 0, 89, 65
1, 1341910, Note_on_c, 0, 89, 103
1, 1341917, Note_on_c, 0, 65, 77
1, 1341928, Note_on_c, 0, 62, 53
1, 1341929, Note_on_c, 0, 71, 87
1, 1341947, Note_off_c, 0, 89, 70
1, 1341951, Note_on_c, 0, 70, 20
1, 1341969, Note_off_c, 0, 71, 67
1, 1341972, Note_off_c, 0, 65, 65
1, 1341975, Note_off_c, 0, 62, 0
1, 1341975, Note_on_c, 0, 62, 21
1, 1341993, Note_off_c, 0, 70, 55
1, 1341994, Note_on_c, 0, 74, 89
1, 1342029, Note_off_c, 0, 62, 56
1, 1342032, Note_off_c, 0, 74, 62
1, 1342089, Note_on_c, 0, 77, 98
1, 1342111, Note_off_c, 0, 77, 67
1, 1342118, Control_c, 0, 64, 89
1, 1342133, Control_c, 0, 64, 62
1, 1342148, Control_c, 0, 64, 45
1, 1342168, Note_on_c, 0, 77, 100
1, 1342169, Control_c, 0, 64, 57
1, 1342171, Note_on_c, 0, 48, 85
1, 1342172, Note_on_c, 0, 57, 93
1, 1342179, Note_on_c, 0, 53, 74
1, 1342184, Control_c, 0, 64, 68
1, 1342199, Control_c, 0, 64, 108
1, 1342203, Note_off_c, 0, 77, 69
1, 1342214, Control_c, 0, 64, 127
1, 1342226, Note_off_c, 0, 53, 57
1, 1342243, Note_off_c, 0, 57, 61
1, 1342257, Note_on_c, 0, 64, 87
1, 1342284, Poly_aftertouch_c, 0, 56, 0
1, 1342309, Note_off_c, 0, 48, 62
1, 1342317, Control_c, 0, 64, 109
1, 1342323, Note_off_c, 0, 64, 55
1, 1342332, Control_c, 0, 64, 72
1, 1342344, Note_on_c, 0, 89, 101
1, 1342347, Control_c, 0, 64, 47
1, 1342350, Note_on_c, 0, 77, 85
1, 1342362, Control_c, 0, 64, 0
1, 1342366, Note_off_c, 0, 89, 64
1, 1342374, Note_off_c, 0, 77, 66
1, 1342407, Control_c, 0, 64, 45
1, 1342422, Control_c, 0, 64, 63
1, 1342424, Note_on_c, 0, 91, 89
1, 1342428, Note_on_c, 0, 56, 96
1, 1342428, Note_on_c, 0, 89, 97
1, 1342429, Note_on_c, 0, 47, 77
1, 1342430, Note_on_c, 0, 52, 83
1, 1342436, Control_c, 0, 64, 72
1, 1342451, Control_c, 0, 64, 87
1, 1342455, Note_off_c, 0, 89, 63
1, 1342455, Note_off_c, 0, 91, 66
1, 1342466, Control_c, 0, 64, 127
1, 1342477, Note_off_c, 0, 52, 63
1, 1342488, Note_off_c, 0, 56, 62
1, 1342502, Note_off_c, 0, 47, 62
1, 1342519, Note_on_c, 0, 94, 95
1, 1342524, Poly_aftertouch_c, 0, 77, 0
1, 1342538, Note_on_c, 0, 62, 72
1, 1342553, Note_on_c, 0, 60, 56
1, 1342558, Note_off_c, 0, 94, 67
1, 1342576, Note_off_c, 0, 60, 62
1, 1342583, Note_off_c, 0, 62, 61
1, 1342596, Note_on_c, 0, 94, 97
1, 1342641, Note_off_c, 0, 94, 69
1, 1342677, Note_on_c, 0, 94, 98
1, 1342678, Note_on_c, 0, 62, 98
1, 1342679, Note_on_c, 0, 53, 92
1, 1342681, Note_on_c, 0, 58, 88
1, 1342702, Note_off_c, 0, 58, 72
1, 1342717, Note_off_c, 0, 62, 66
1, 1342722, Note_off_c, 0, 94, 66
1, 1342735, Note_off_c, 0, 53, 62
1, 1342763, Note_on_c, 0, 98, 101
1, 1342791, Note_on_c, 0, 69, 86
1, 1342808, Note_off_c, 0, 98, 67
1, 1342848, Note_on_c, 0, 98, 84
1, 1342854, Note_off_c, 0, 69, 62
1, 1342887, Note_off_c, 0, 98, 66
1, 1342929, Note_on_c, 0, 98, 105
1, 1342932, Note_on_c, 0, 59, 84
1, 1342933, Note_on_c, 0, 64, 81
1, 1342933, Note_on_c, 0, 68, 99
1, 1342937, Note_on_c, 0, 86, 82
1, 1342940, Note_on_c, 0, 88, 87
1, 1342946, Note_on_c, 0, 97, 81
1, 1342946, Note_off_c, 0, 97, 127
1, 1342956, Note_off_c, 0, 86, 71
1, 1342958, Note_off_c, 0, 88, 73
1, 1342973, Note_off_c, 0, 98, 66
1, 1342976, Note_off_c, 0, 64, 66
1, 1342985, Note_off_c, 0, 68, 64
1, 1342998, Note_off_c, 0, 59, 61
1, 1343028, Note_on_c, 0, 101, 103
1, 1343042, Note_on_c, 0, 74, 90
1, 1343063, Note_off_c, 0, 101, 65
1, 1343079, Note_off_c, 0, 74, 62
1, 1343111, Note_on_c, 0, 89, 63
1, 1343112, Note_on_c, 0, 101, 95
1, 1343140, Note_off_c, 0, 89, 68
1, 1343143, Note_off_c, 0, 101, 68
1, 1343165, Note_on_c, 0, 53, 86
1, 1343172, Note_on_c, 0, 62, 90
1, 1343176, Note_on_c, 0, 58, 83
1, 1343187, Note_on_c, 0, 101, 93
1, 1343192, Note_on_c, 0, 89, 88
1, 1343206, Note_on_c, 0, 100, 55
1, 1343209, Note_off_c, 0, 89, 73
1, 1343223, Note_off_c, 0, 58, 65
1, 1343231, Note_off_c, 0, 100, 63
1, 1343231, Note_off_c, 0, 101, 65
1, 1343236, Note_off_c, 0, 53, 59
1, 1343255, Note_on_c, 0, 69, 87
1, 1343274, Note_on_c, 0, 98, 97
1, 1343275, Note_off_c, 0, 62, 44
1, 1343295, Note_off_c, 0, 69, 65
1, 1343309, Note_off_c, 0, 98, 66
1, 1343353, Note_on_c, 0, 98, 98
1, 1343394, Control_c, 0, 64, 95
1, 1343398, Note_off_c, 0, 98, 66
1, 1343408, Control_c, 0, 64, 62
1, 1343423, Control_c, 0, 64, 0
1, 1343428, Note_on_c, 0, 47, 91
1, 1343428, Note_on_c, 0, 98, 97
1, 1343429, Note_on_c, 0, 52, 88
1, 1343429, Note_on_c, 0, 86, 103
1, 1343436, Note_on_c, 0, 44, 73
1, 1343458, Note_off_c, 0, 98, 70
1, 1343459, Note_off_c, 0, 86, 67
1, 1343468, Control_c, 0, 64, 42
1, 1343469, Note_off_c, 0, 44, 68
1, 1343483, Control_c, 0, 64, 72
1, 1343497, Note_off_c, 0, 47, 63
1, 1343498, Control_c, 0, 64, 112
1, 1343513, Control_c, 0, 64, 127
1, 1343517, Note_on_c, 0, 59, 91
1, 1343521, Note_off_c, 0, 52, 60
1, 1343535, Poly_aftertouch_c, 0, 51, 0
1, 1343589, Note_off_c, 0, 59, 62
1, 1343599, Note_on_c, 0, 76, 108
1, 1343630, Note_off_c, 0, 76, 70
1, 1343664, Note_on_c, 0, 53, 80
1, 1343665, Note_on_c, 0, 50, 75
1, 1343673, Note_on_c, 0, 58, 83
1, 1343676, Note_on_c, 0, 76, 99
1, 1343679, Note_on_c, 0, 77, 88
1, 1343701, Note_off_c, 0, 77, 68
1, 1343702, Note_off_c, 0, 76, 67
1, 1343715, Note_off_c, 0, 53, 63
1, 1343724, Note_off_c, 0, 58, 66
1, 1343730, Note_off_c, 0, 50, 61
1, 1343761, Note_on_c, 0, 64, 87
1, 1343849, Note_off_c, 0, 64, 37
1, 1343856, Note_on_c, 0, 101, 106
1, 1343859, Note_on_c, 0, 89, 86
1, 1343868, Note_on_c, 0, 91, 86
1, 1343879, Note_off_c, 0, 101, 65
1, 1343881, Note_off_c, 0, 89, 70
1, 1343886, Note_off_c, 0, 91, 71
1, 1343903, Note_on_c, 0, 64, 64
1, 1343908, Note_on_c, 0, 56, 74
1, 1343921, Note_on_c, 0, 100, 103
1, 1343922, Note_on_c, 0, 59, 65
1, 1343922, Note_on_c, 0, 101, 99
1, 1343926, Note_on_c, 0, 60, 67
1, 1343926, Note_on_c, 0, 89, 98
1, 1343927, Note_on_c, 0, 88, 90
1, 1343941, Note_off_c, 0, 89, 72
1, 1343942, Note_off_c, 0, 88, 74
1, 1343953, Note_off_c, 0, 101, 63
1, 1343954, Note_off_c, 0, 100, 70
1, 1343970, Note_off_c, 0, 59, 57
1, 1343986, Note_on_c, 0, 71, 106
1, 1344004, Note_off_c, 0, 64, 43
1, 1344010, Note_off_c, 0, 60, 30
1, 1344018, Note_off_c, 0, 71, 68
1, 1344028, Note_off_c, 0, 56, 63
1, 1344082, Control_c, 0, 64, 105
1, 1344085, Note_on_c, 0, 74, 111
1, 1344097, Control_c, 0, 64, 83
1, 1344112, Note_off_c, 0, 74, 73
1, 1344112, Control_c, 0, 64, 80
1, 1344128, Control_c, 0, 64, 86
1, 1344143, Control_c, 0, 64, 116
1, 1344148, Note_on_c, 0, 74, 96
1, 1344157, Control_c, 0, 64, 127
1, 1344163, Note_on_c, 0, 50, 95
1, 1344164, Note_on_c, 0, 41, 88
1, 1344173, Note_off_c, 0, 74, 73
1, 1344178, Note_on_c, 0, 51, 46
1, 1344178, Note_off_c, 0, 51, 127
1, 1344181, Note_on_c, 0, 47, 60
1, 1344201, Note_on_c, 0, 43, 37
1, 1344201, Note_off_c, 0, 43, 127
1, 1344207, Note_off_c, 0, 50, 65
1, 1344210, Note_off_c, 0, 47, 56
1, 1344225, Note_on_c, 0, 57, 73
1, 1344227, Note_off_c, 0, 41, 63
1, 1344231, Control_c, 0, 64, 105
1, 1344235, Note_on_c, 0, 55, 54
1, 1344243, Note_off_c, 0, 57, 65
1, 1344246, Control_c, 0, 64, 61
1, 1344257, Note_off_c, 0, 55, 58
1, 1344261, Control_c, 0, 64, 0
1, 1344350, Note_on_c, 0, 94, 108
1, 1344360, Note_on_c, 0, 82, 95
1, 1344377, Note_off_c, 0, 82, 71
1, 1344380, Note_on_c, 0, 95, 51
1, 1344383, Note_off_c, 0, 94, 68
1, 1344414, Note_off_c, 0, 95, 61
1, 1344427, Note_on_c, 0, 49, 107
1, 1344430, Note_on_c, 0, 40, 87
1, 1344431, Note_on_c, 0, 94, 102
1, 1344434, Note_on_c, 0, 44, 93
1, 1344434, Note_on_c, 0, 82, 106
1, 1344439, Note_on_c, 0, 41, 71
1, 1344446, Control_c, 0, 64, 51
1, 1344460, Note_off_c, 0, 40, 66
1, 1344461, Note_off_c, 0, 41, 62
1, 1344461, Control_c, 0, 64, 68
1, 1344464, Note_off_c, 0, 49, 68
1, 1344465, Note_off_c, 0, 82, 68
1, 1344470, Note_off_c, 0, 94, 68
1, 1344476, Control_c, 0, 64, 79
1, 1344479, Note_off_c, 0, 44, 63
1, 1344491, Control_c, 0, 64, 127
1, 1344610, Note_on_c, 0, 94, 105
1, 1344614, Note_on_c, 0, 82, 89
1, 1344639, Note_off_c, 0, 82, 64
1, 1344649, Note_off_c, 0, 94, 63
1, 1344670, Note_on_c, 0, 40, 80
1, 1344672, Note_on_c, 0, 82, 96
1, 1344673, Note_on_c, 0, 49, 102
1, 1344673, Note_on_c, 0, 94, 97
1, 1344680, Note_on_c, 0, 44, 74
1, 1344702, Note_on_c, 0, 43, 66
1, 1344704, Note_off_c, 0, 82, 67
1, 1344705, Note_off_c, 0, 40, 66
1, 1344711, Note_off_c, 0, 94, 66
1, 1344711, Note_off_c, 0, 49, 63
1, 1344719, Note_off_c, 0, 44, 49
1, 1344726, Note_off_c, 0, 43, 60
1, 1344732, Note_on_c, 0, 39, 3
1, 1344774, Note_off_c, 0, 39, 36
1, 1344884, Note_on_c, 0, 69, 74
1, 1344901, Note_off_c, 0, 69, 66
1, 1344928, Note_on_c, 0, 51, 90
1, 1344935, Note_on_c, 0, 61, 93
1, 1344939, Note_on_c, 0, 69, 87
1, 1344941, Note_on_c, 0, 56, 85
1, 1344953, Note_off_c, 0, 69, 73
1, 1344957, Note_off_c, 0, 61, 68
1, 1344962, Note_off_c, 0, 56, 69
1, 1344973, Poly_aftertouch_c, 0, 70, 127
1, 1344984, Note_off_c, 0, 51, 66
1, 1345020, Poly_aftertouch_c, 0, 70, 0
1, 1345028, Note_on_c, 0, 69, 11
1, 1345066, Note_off_c, 0, 69, 40
1, 1345134, Note_on_c, 0, 94, 105
1, 1345146, Note_on_c, 0, 82, 87
1, 1345171, Note_off_c, 0, 82, 73
1, 1345176, Note_off_c, 0, 94, 64
1, 1345192, Note_on_c, 0, 49, 65
1, 1345196, Note_on_c, 0, 40, 74
1, 1345204, Note_on_c, 0, 44, 77
1, 1345214, Note_on_c, 0, 94, 95
1, 1345215, Note_on_c, 0, 95, 3
1, 1345215, Note_off_c, 0, 95, 127
1, 1345218, Note_on_c, 0, 82, 100
1, 1345242, Note_off_c, 0, 82, 64
1, 1345246, Poly_aftertouch_c, 0, 95, 0
1, 1345251, Note_off_c, 0, 94, 66
1, 1345256, Note_off_c, 0, 44, 61
1, 1345258, Note_off_c, 0, 40, 62
1, 1345280, Note_on_c, 0, 37, 82
1, 1345285, Note_off_c, 0, 49, 62
1, 1345358, Control_c, 0, 64, 93
1, 1345365, Note_off_c, 0, 37, 61
1, 1345370, Note_on_c, 0, 82, 90
1, 1345371, Note_on_c, 0, 94, 99
1, 1345373, Control_c, 0, 64, 62
1, 1345388, Control_c, 0, 64, 0
1, 1345394, Note_off_c, 0, 94, 62
1, 1345399, Note_off_c, 0, 82, 61
1, 1345437, Note_on_c, 0, 94, 106
1, 1345438, Note_on_c, 0, 82, 97
1, 1345438, Note_on_c, 0, 36, 92
1, 1345439, Note_on_c, 0, 48, 96
1, 1345442, Note_on_c, 0, 40, 84
1, 1345450, Note_on_c, 0, 41, 76
1, 1345471, Note_off_c, 0, 94, 70
1, 1345473, Note_off_c, 0, 82, 66
1, 1345477, Note_off_c, 0, 48, 70
1, 1345477, Control_c, 0, 64, 58
1, 1345483, Note_off_c, 0, 40, 65
1, 1345486, Note_off_c, 0, 36, 64
1, 1345487, Note_off_c, 0, 41, 66
1, 1345492, Control_c, 0, 64, 82
1, 1345506, Control_c, 0, 64, 127
1, 1345615, Note_on_c, 0, 70, 100
1, 1345648, Note_off_c, 0, 70, 71
1, 1345683, Note_on_c, 0, 60, 95
1, 1345683, Note_on_c, 0, 70, 100
1, 1345685, Note_on_c, 0, 48, 82
1, 1345691, Note_on_c, 0, 52, 90
1, 1345714, Note_off_c, 0, 70, 69
1, 1345716, Note_off_c, 0, 52, 68
1, 1345716, Note_off_c, 0, 60, 67
1, 1345730, Note_off_c, 0, 48, 63
1, 1345874, Note_on_c, 0, 94, 101
1, 1345877, Note_on_c, 0, 82, 80
1, 1345905, Note_off_c, 0, 94, 63
1, 1345908, Note_off_c, 0, 82, 65
1, 1345953, Note_on_c, 0, 48, 89
1, 1345956, Note_on_c, 0, 36, 77
1, 1345957, Note_on_c, 0, 40, 86
1, 1345960, Note_on_c, 0, 94, 100
1, 1345975, Note_on_c, 0, 82, 77
1, 1345979, Note_off_c, 0, 48, 67
1, 1345990, Note_off_c, 0, 82, 68
1, 1345990, Note_off_c, 0, 40, 64
1, 1345992, Note_off_c, 0, 36, 64
1, 1345995, Note_off_c, 0, 94, 65
1, 1346038, Note_on_c, 0, 82, 100
1, 1346091, Note_off_c, 0, 82, 63
1, 1346124, Note_on_c, 0, 94, 101
1, 1346187, Note_on_c, 0, 36, 85
1, 1346187, Note_on_c, 0, 48, 89
1, 1346188, Note_on_c, 0, 40, 91
1, 1346188, Note_on_c, 0, 82, 100
1, 1346213, Note_off_c, 0, 48, 66
1, 1346215, Note_off_c, 0, 94, 65
1, 1346223, Note_off_c, 0, 36, 61
1, 1346228, Note_off_c, 0, 82, 66
1, 1346229, Note_off_c, 0, 40, 64
1, 1346315, Control_c, 0, 64, 93
1, 1346329, Control_c, 0, 64, 65
1, 1346344, Control_c, 0, 64, 0
1, 1346377, Note_on_c, 0, 82, 100
1, 1346384, Note_on_c, 0, 70, 81
1, 1346404, Note_off_c, 0, 70, 72
1, 1346437, Note_off_c, 0, 82, 59
1, 1346438, Note_on_c, 0, 40, 86
1, 1346441, Note_on_c, 0, 49, 97
1, 1346441, Note_on_c, 0, 70, 97
1, 1346444, Note_on_c, 0, 44, 95
1, 1346462, Control_c, 0, 64, 40
1, 1346477, Control_c, 0, 64, 75
1, 1346478, Note_off_c, 0, 70, 65
1, 1346479, Note_off_c, 0, 40, 64
1, 1346479, Note_off_c, 0, 49, 65
1, 1346486, Note_off_c, 0, 44, 67
1, 1346492, Control_c, 0, 64, 115
1, 1346507, Control_c, 0, 64, 127
1, 1346636, Note_on_c, 0, 58, 70
1, 1346652, Note_on_c, 0, 57, 79
1, 1346662, Note_off_c, 0, 58, 66
1, 1346676, Note_off_c, 0, 57, 70
1, 1346692, Note_on_c, 0, 40, 75
1, 1346694, Note_on_c, 0, 49, 94
1, 1346705, Note_on_c, 0, 44, 79
1, 1346721, Note_on_c, 0, 41, 37
1, 1346721, Note_off_c, 0, 41, 127
1, 1346735, Note_on_c, 0, 58, 29
1, 1346735, Note_off_c, 0, 58, 127
1, 1346739, Note_off_c, 0, 40, 63
1, 1346747, Note_off_c, 0, 49, 62
1, 1346753, Note_off_c, 0, 44, 63
1, 1346882, Note_on_c, 0, 94, 100
1, 1346889, Note_on_c, 0, 82, 95
1, 1346907, Note_off_c, 0, 82, 70
1, 1346917, Note_off_c, 0, 94, 64
1, 1346942, Note_on_c, 0, 40, 90
1, 1346942, Note_on_c, 0, 49, 100
1, 1346949, Note_on_c, 0, 94, 98
1, 1346949, Note_on_c, 0, 44, 89
1, 1346952, Note_on_c, 0, 82, 104
1, 1346971, Note_off_c, 0, 44, 71
1, 1346978, Note_off_c, 0, 82, 67
1, 1346983, Note_off_c, 0, 94, 67
1, 1346985, Note_off_c, 0, 49, 58
1, 1346990, Note_off_c, 0, 40, 62
1, 1347093, Control_c, 0, 64, 80
1, 1347108, Control_c, 0, 64, 47
1, 1347123, Control_c, 0, 64, 0
1, 1347124, Note_on_c, 0, 94, 96
1, 1347134, Note_on_c, 0, 82, 85
1, 1347146, Note_off_c, 0, 94, 64
1, 1347152, Note_off_c, 0, 82, 72
1, 1347184, Note_on_c, 0, 82, 104
1, 1347185, Note_on_c, 0, 94, 98
1, 1347195, Note_on_c, 0, 36, 91
1, 1347196, Control_c, 0, 64, 34
1, 1347197, Note_on_c, 0, 48, 98
1, 1347198, Note_on_c, 0, 40, 96
1, 1347211, Control_c, 0, 64, 72
1, 1347215, Note_off_c, 0, 94, 69
1, 1347218, Note_off_c, 0, 82, 68
1, 1347226, Control_c, 0, 64, 127
1, 1347238, Note_off_c, 0, 48, 68
1, 1347250, Note_off_c, 0, 36, 63
1, 1347261, Note_off_c, 0, 40, 64
1, 1347357, Note_on_c, 0, 70, 105
1, 1347374, Note_on_c, 0, 69, 84
1, 1347385, Note_off_c, 0, 70, 69
1, 1347391, Note_off_c, 0, 69, 73
1, 1347433, Note_on_c, 0, 69, 97
1, 1347438, Note_on_c, 0, 36, 91
1, 1347440, Note_on_c, 0, 40, 90
1, 1347440, Note_on_c, 0, 48, 104
1, 1347457, Note_off_c, 0, 69, 70
1, 1347476, Note_off_c, 0, 48, 69
1, 1347487, Note_off_c, 0, 36, 62
1, 1347623, Note_on_c, 0, 94, 110
1, 1347623, Note_on_c, 0, 106, 102
1, 1347647, Note_on_c, 0, 107, 62
1, 1347647, Note_off_c, 0, 107, 127
1, 1347650, Note_off_c, 0, 94, 69
1, 1347657, Note_off_c, 0, 106, 63
1, 1347662, Note_on_c, 0, 108, 32
1, 1347662, Note_off_c, 0, 108, 127
1, 1347671, Note_off_c, 0, 40, 60
1, 1347690, Note_on_c, 0, 38, 97
1, 1347692, Note_on_c, 0, 49, 111
1, 1347694, Note_on_c, 0, 94, 104
1, 1347698, Note_on_c, 0, 106, 104
1, 1347699, Note_on_c, 0, 42, 80
1, 1347704, Note_on_c, 0, 41, 101
1, 1347710, Note_on_c, 0, 104, 88
1, 1347713, Note_on_c, 0, 93, 76
1, 1347715, Note_on_c, 0, 105, 72
1, 1347715, Note_off_c, 0, 105, 127
1, 1347725, Note_off_c, 0, 106, 70
1, 1347725, Note_off_c, 0, 104, 46
1, 1347728, Note_off_c, 0, 93, 69
1, 1347730, Note_off_c, 0, 49, 71
1, 1347731, Note_off_c, 0, 94, 69
1, 1347732, Note_off_c, 0, 38, 66
1, 1347743, Note_off_c, 0, 41, 65
1, 1347767, Note_off_c, 0, 42, 58
1, 1347856, Control_c, 0, 64, 89
1, 1347871, Control_c, 0, 64, 35
1, 1347886, Control_c, 0, 64, 0
1, 1348010, Poly_aftertouch_c, 0, 54, 127
1, 1348127, Note_on_c, 0, 58, 99
1, 1348130, Note_on_c, 0, 50, 99
1, 1348139, Note_on_c, 0, 34, 107
1, 1348140, Note_on_c, 0, 22, 113
1, 1348160, Note_on_c, 0, 56, 77
1, 1348175, Control_c, 0, 64, 36
1, 1348184, Note_off_c, 0, 56, 66
1, 1348186, Note_off_c, 0, 34, 67
1, 1348187, Poly_aftertouch_c, 0, 54, 0
1, 1348190, Control_c, 0, 64, 127
1, 1348192, Note_on_c, 0, 21, 43
1, 1348201, Note_off_c, 0, 22, 64
1, 1348214, Note_off_c, 0, 50, 65
1, 1348226, Note_off_c, 0, 58, 69
1, 1348238, Note_off_c, 0, 21, 51
1, 1348486, Control_c, 0, 64, 63
1, 1348501, Control_c, 0, 64, 0
1, 1348818, Note_on_c, 0, 65, 95
1, 1348820, Note_on_c, 0, 61, 106
1, 1348821, Note_on_c, 0, 58, 97
1, 1348856, Control_c, 0, 64, 65
1, 1348871, Control_c, 0, 64, 46
1, 1348886, Control_c, 0, 64, 0
1, 1348939, Control_c, 0, 64, 50
1, 1348953, Control_c, 0, 64, 54
1, 1348968, Control_c, 0, 64, 42
1, 1348981, Note_on_c, 0, 59, 19
1, 1348983, Control_c, 0, 64, 0
1, 1349087, Control_c, 0, 64, 36
1, 1349102, Control_c, 0, 64, 59
1, 1349105, Note_on_c, 0, 53, 96
1, 1349114, Note_on_c, 0, 41, 73
1, 1349117, Control_c, 0, 64, 61
1, 1349120, Note_off_c, 0, 59, 40
1, 1349132, Control_c, 0, 64, 52
1, 1349136, Note_off_c, 0, 53, 66
1, 1349146, Control_c, 0, 64, 36
1, 1349148, Note_off_c, 0, 41, 65
1, 1349161, Control_c, 0, 64, 0
1, 1349203, Note_off_c, 0, 58, 55
1, 1349230, Note_on_c, 0, 53, 88
1, 1349242, Note_on_c, 0, 58, 55
1, 1349271, Note_off_c, 0, 53, 63
1, 1349361, Note_on_c, 0, 54, 97
1, 1349363, Note_on_c, 0, 42, 91
1, 1349368, Control_c, 0, 64, 34
1, 1349383, Control_c, 0, 64, 33
1, 1349385, Note_off_c, 0, 54, 68
1, 1349389, Note_off_c, 0, 42, 69
1, 1349397, Control_c, 0, 64, 34
1, 1349412, Control_c, 0, 64, 37
1, 1349442, Control_c, 0, 64, 35
1, 1349457, Control_c, 0, 64, 31
1, 1349481, Note_on_c, 0, 54, 85
1, 1349516, Control_c, 0, 64, 0
1, 1349536, Note_off_c, 0, 54, 63
1, 1349613, Note_on_c, 0, 53, 88
1, 1349614, Note_on_c, 0, 41, 76
1, 1349636, Note_off_c, 0, 53, 69
1, 1349662, Note_off_c, 0, 41, 63
1, 1349749, Note_on_c, 0, 53, 78
1, 1349794, Note_off_c, 0, 53, 62
1, 1350128, Note_on_c, 0, 53, 97
1, 1350130, Note_on_c, 0, 41, 84
1, 1350132, Control_c, 0, 64, 38
1, 1350147, Control_c, 0, 64, 63
1, 1350154, Note_off_c, 0, 53, 66
1, 1350162, Control_c, 0, 64, 84
1, 1350167, Note_off_c, 0, 41, 63
1, 1350176, Control_c, 0, 64, 105
1, 1350191, Control_c, 0, 64, 95
1, 1350206, Control_c, 0, 64, 71
1, 1350220, Control_c, 0, 64, 53
1, 1350235, Control_c, 0, 64, 0
1, 1350250, Note_on_c, 0, 53, 97
1, 1350289, Note_off_c, 0, 53, 64
1, 1350378, Note_on_c, 0, 54, 100
1, 1350382, Note_on_c, 0, 42, 97
1, 1350406, Control_c, 0, 64, 59
1, 1350413, Note_off_c, 0, 42, 71
1, 1350421, Note_off_c, 0, 54, 68
1, 1350421, Control_c, 0, 64, 90
1, 1350435, Control_c, 0, 64, 110
1, 1350495, Control_c, 0, 64, 103
1, 1350509, Note_on_c, 0, 54, 103
1, 1350509, Control_c, 0, 64, 89
1, 1350525, Control_c, 0, 64, 80
1, 1350540, Control_c, 0, 64, 77
1, 1350545, Note_on_c, 0, 57, 67
1, 1350555, Control_c, 0, 64, 80
1, 1350560, Note_off_c, 0, 54, 64
1, 1350570, Control_c, 0, 64, 92
1, 1350576, Note_off_c, 0, 57, 65
1, 1350585, Control_c, 0, 64, 112
1, 1350600, Control_c, 0, 64, 127
1, 1350605, Note_off_c, 0, 65, 61
1, 1350610, Note_off_c, 0, 61, 59
1, 1350631, Note_off_c, 0, 58, 40
1, 1350674, Control_c, 0, 64, 71
1, 1350689, Control_c, 0, 64, 0
1, 1350941, Control_c, 0, 64, 64
1, 1350950, Note_on_c, 0, 56, 72
1, 1350956, Control_c, 0, 64, 112
1, 1350959, Note_on_c, 0, 41, 77
1, 1350970, Control_c, 0, 64, 127
1, 1350977, Note_off_c, 0, 56, 66
1, 1350999, Note_on_c, 0, 61, 84
1, 1351013, Note_on_c, 0, 45, 78
1, 1351037, Note_off_c, 0, 61, 62
1, 1351069, Note_on_c, 0, 50, 79
1, 1351079, Note_on_c, 0, 65, 89
1, 1351084, Note_off_c, 0, 45, 66
1, 1351125, Note_off_c, 0, 50, 66
1, 1351138, Note_on_c, 0, 57, 110
1, 1351153, Note_off_c, 0, 65, 59
1, 1351154, Note_on_c, 0, 72, 103
1, 1351159, Note_off_c, 0, 41, 65
1, 1351171, Note_on_c, 0, 73, 62
1, 1351174, Note_on_c, 0, 43, 70
1, 1351174, Note_off_c, 0, 43, 127
1, 1351175, Note_off_c, 0, 57, 72
1, 1351178, Note_off_c, 0, 72, 66
1, 1351191, Note_off_c, 0, 73, 62
1, 1351291, Poly_aftertouch_c, 0, 45, 0
1, 1351335, Control_c, 0, 64, 103
1, 1351349, Control_c, 0, 64, 56
1, 1351364, Control_c, 0, 64, 0
1, 1351660, Control_c, 0, 64, 52
1, 1351665, Note_on_c, 0, 56, 76
1, 1351669, Note_on_c, 0, 29, 83
1, 1351675, Control_c, 0, 64, 70
1, 1351689, Control_c, 0, 64, 76
1, 1351704, Control_c, 0, 64, 84
1, 1351719, Control_c, 0, 64, 89
1, 1351720, Note_off_c, 0, 56, 62
1, 1351734, Note_on_c, 0, 61, 91
1, 1351734, Control_c, 0, 64, 97
1, 1351740, Note_on_c, 0, 33, 59
1, 1351749, Control_c, 0, 64, 110
1, 1351764, Control_c, 0, 64, 127
1, 1351770, Note_on_c, 0, 35, 37
1, 1351786, Note_on_c, 0, 65, 89
1, 1351790, Note_on_c, 0, 38, 77
1, 1351812, Note_off_c, 0, 61, 61
1, 1351812, Note_off_c, 0, 33, 61
1, 1351849, Note_off_c, 0, 65, 69
1, 1351856, Note_off_c, 0, 35, 39
1, 1351864, Note_on_c, 0, 37, 93
1, 1351866, Note_on_c, 0, 64, 109
1, 1351880, Note_off_c, 0, 38, 63
1, 1351907, Note_off_c, 0, 37, 67
1, 1351911, Note_off_c, 0, 64, 70
1, 1351914, Note_off_c, 0, 29, 63
1, 1351979, Control_c, 0, 64, 61
1, 1351993, Control_c, 0, 64, 0
1, 1352139, Note_on_c, 0, 29, 76
1, 1352154, Note_on_c, 0, 54, 91
1, 1352171, Control_c, 0, 64, 50
1, 1352186, Control_c, 0, 64, 127
1, 1352196, Note_on_c, 0, 33, 89
1, 1352208, Note_on_c, 0, 59, 79
1, 1352215, Note_off_c, 0, 54, 63
1, 1352237, Note_off_c, 0, 29, 63
1, 1352250, Note_on_c, 0, 36, 86
1, 1352251, Note_off_c, 0, 33, 66
1, 1352265, Note_off_c, 0, 59, 65
1, 1352270, Note_on_c, 0, 63, 93
1, 1352289, Note_off_c, 0, 63, 72
1, 1352303, Note_off_c, 0, 36, 62
1, 1352349, Control_c, 0, 64, 71
1, 1352364, Control_c, 0, 64, 0
1, 1352447, Note_on_c, 0, 22, 108
1, 1352447, Note_on_c, 0, 34, 103
1, 1352452, Note_on_c, 0, 46, 112
1, 1352453, Control_c, 0, 64, 58
1, 1352467, Control_c, 0, 64, 86
1, 1352470, Note_on_c, 0, 21, 74
1, 1352476, Note_off_c, 0, 46, 70
1, 1352482, Control_c, 0, 64, 127
1, 1352488, Note_off_c, 0, 22, 63
1, 1352490, Note_off_c, 0, 34, 66
1, 1352505, Note_off_c, 0, 21, 55
1, 1352876, Control_c, 0, 64, 92
1, 1352890, Control_c, 0, 64, 70
1, 1352905, Control_c, 0, 64, 48
1, 1352921, Control_c, 0, 64, 0
1, 1352921, End_track
0, 0, End_of_file
