0, 0, Header, 0, 1, 384
1, 0, Start_track
1, 0, Title_t, "BachPF_BWV867--Sham             "
1, 0, Text_t, "2011 ePiano Junior Competition"
1, 0, Text_t, "captured in spring and summer 2011"
1, 0, Text_t, "http://www.piano-e-competition.com/"
1, 0, Text_t, "standard-resolution version"
1, 0, Text_t, "File processed for distribution with software designed and coded by Dr. John Q. Walker, founder of Zenph Sound Innovations"
1, 0, Instrument_name_t, "Yamaha Disklavier Pro Mark IV concert grand piano, model DCFIIISM4PRO"
1, 0, Sequencer_specific, 39, 67, 113, 0, 1, 0, 1, 0, 66, 97, 99, 104, 32, 80, 70, 95, 66, 87, 86, 56, 54, 55, 32, 32, 65, 114, 105, 115, 116, 111, 32, 83, 104, 97, 109, 32, 32, 32, 32, 32
1, 0, Sequencer_specific, 6, 67, 113, 0, 0, 0, 69
1, 0, System_exclusive, 21, 67, 113, 126, 21, 0, 2, 2, 2, 5, 12, 8, 4, 14, 1, 0, 10, 12, 11, 6, 3, 247
1, 0, Sequencer_specific, 5, 67, 123, 12, 2, 1
1, 0, Tempo, 512820
1, 0, Time_signature, 4, 2, 24, 8
1, 0, System_exclusive, 5, 126, 127, 9, 1, 247
1, 1, System_exclusive, 8, 67, 16, 76, 0, 0, 126, 0, 247
1, 2, System_exclusive, 8, 67, 16, 76, 8, 9, 7, 1, 247
1, 3, Control_c, 0, 0, 108
1, 3, Control_c, 1, 0, 108
1, 3, Control_c, 2, 0, 0
1, 3, Control_c, 3, 0, 0
1, 3, Control_c, 4, 0, 0
1, 3, Control_c, 5, 0, 0
1, 3, Control_c, 6, 0, 0
1, 3, Control_c, 7, 0, 0
1, 3, Control_c, 8, 0, 0
1, 3, Control_c, 9, 0, 127
1, 3, Control_c, 10, 0, 0
1, 3, Control_c, 11, 0, 0
1, 3, Control_c, 12, 0, 0
1, 3, Control_c, 13, 0, 0
1, 3, Control_c, 14, 0, 0
1, 3, Control_c, 15, 0, 0
1, 4, Control_c, 0, 32, 0
1, 4, Control_c, 1, 32, 0
1, 4, Control_c, 2, 32, 0
1, 4, Control_c, 3, 32, 0
1, 4, Control_c, 4, 32, 0
1, 4, Control_c, 5, 32, 0
1, 4, Control_c, 6, 32, 0
1, 4, Control_c, 7, 32, 0
1, 4, Control_c, 8, 32, 0
1, 4, Control_c, 9, 32, 0
1, 4, Control_c, 10, 32, 0
1, 4, Control_c, 11, 32, 0
1, 4, Control_c, 12, 32, 0
1, 4, Control_c, 13, 32, 0
1, 4, Control_c, 14, 32, 0
1, 4, Control_c, 15, 32, 0
1, 5, Program_c, 0, 0
1, 5, Program_c, 1, 0
1, 5, Program_c, 2, 0
1, 5, Program_c, 3, 0
1, 5, Program_c, 4, 0
1, 5, Program_c, 5, 0
1, 5, Program_c, 6, 0
1, 5, Program_c, 7, 0
1, 5, Program_c, 8, 0
1, 5, Program_c, 9, 0
1, 5, Program_c, 10, 0
1, 5, Program_c, 11, 0
1, 5, Program_c, 12, 0
1, 5, Program_c, 13, 0
1, 5, Program_c, 14, 0
1, 5, Program_c, 15, 0
1, 6, Control_c, 0, 7, 100
1, 6, Control_c, 1, 7, 100
1, 6, Control_c, 2, 7, 100
1, 6, Control_c, 3, 7, 100
1, 6, Control_c, 4, 7, 100
1, 6, Control_c, 5, 7, 100
1, 6, Control_c, 6, 7, 100
1, 6, Control_c, 7, 7, 100
1, 6, Control_c, 8, 7, 100
1, 6, Control_c, 9, 7, 100
1, 6, Control_c, 10, 7, 100
1, 6, Control_c, 11, 7, 100
1, 6, Control_c, 12, 7, 100
1, 6, Control_c, 13, 7, 100
1, 6, Control_c, 14, 7, 100
1, 6, Control_c, 15, 7, 100
1, 42, Control_c, 0, 64, 15
1, 79, Control_c, 0, 64, 31
1, 116, Control_c, 0, 64, 46
1, 153, Control_c, 0, 64, 63
1, 190, Control_c, 0, 64, 77
1, 226, Control_c, 0, 64, 94
1, 263, Control_c, 0, 64, 108
1, 300, Control_c, 0, 64, 127
1, 381, Note_on_c, 0, 61, 60
1, 396, Note_on_c, 0, 58, 45
1, 481, Control_c, 0, 64, 93
1, 496, Control_c, 0, 64, 80
1, 511, Control_c, 0, 64, 71
1, 526, Control_c, 0, 64, 66
1, 541, Control_c, 0, 64, 62
1, 556, Control_c, 0, 64, 55
1, 571, Control_c, 0, 64, 49
1, 585, Control_c, 0, 64, 45
1, 600, Control_c, 0, 64, 43
1, 615, Control_c, 0, 64, 43
1, 659, Control_c, 0, 64, 44
1, 674, Control_c, 0, 64, 48
1, 696, Control_c, 0, 64, 56
1, 711, Control_c, 0, 64, 61
1, 726, Control_c, 0, 64, 64
1, 741, Control_c, 0, 64, 66
1, 756, Control_c, 0, 64, 69
1, 771, Control_c, 0, 64, 72
1, 773, Note_off_c, 0, 58, 30
1, 787, Control_c, 0, 64, 76
1, 802, Control_c, 0, 64, 83
1, 816, Control_c, 0, 64, 91
1, 831, Control_c, 0, 64, 99
1, 846, Control_c, 0, 64, 102
1, 890, Control_c, 0, 64, 101
1, 905, Control_c, 0, 64, 100
1, 920, Control_c, 0, 64, 99
1, 934, Control_c, 0, 64, 98
1, 949, Control_c, 0, 64, 97
1, 964, Control_c, 0, 64, 95
1, 976, Note_on_c, 0, 70, 50
1, 979, Control_c, 0, 64, 93
1, 993, Note_on_c, 0, 58, 31
1, 994, Control_c, 0, 64, 90
1, 998, Note_on_c, 0, 65, 36
1, 1009, Control_c, 0, 64, 87
1, 1024, Control_c, 0, 64, 85
1, 1039, Control_c, 0, 64, 82
1, 1053, Control_c, 0, 64, 81
1, 1068, Control_c, 0, 64, 78
1, 1083, Control_c, 0, 64, 75
1, 1098, Control_c, 0, 64, 73
1, 1113, Control_c, 0, 64, 71
1, 1128, Control_c, 0, 64, 69
1, 1142, Control_c, 0, 64, 69
1, 1157, Control_c, 0, 64, 67
1, 1172, Control_c, 0, 64, 66
1, 1187, Control_c, 0, 64, 64
1, 1202, Control_c, 0, 64, 62
1, 1216, Control_c, 0, 64, 61
1, 1231, Control_c, 0, 64, 60
1, 1246, Control_c, 0, 64, 59
1, 1261, Control_c, 0, 64, 57
1, 1276, Control_c, 0, 64, 55
1, 1278, Note_on_c, 0, 72, 64
1, 1290, Control_c, 0, 64, 54
1, 1305, Control_c, 0, 64, 53
1, 1320, Control_c, 0, 64, 51
1, 1334, Control_c, 0, 64, 49
1, 1349, Control_c, 0, 64, 47
1, 1363, Note_off_c, 0, 58, 43
1, 1364, Control_c, 0, 64, 46
1, 1379, Control_c, 0, 64, 45
1, 1390, Note_off_c, 0, 70, 53
1, 1394, Control_c, 0, 64, 44
1, 1408, Control_c, 0, 64, 42
1, 1423, Control_c, 0, 64, 39
1, 1446, Control_c, 0, 64, 36
1, 1461, Control_c, 0, 64, 34
1, 1476, Control_c, 0, 64, 32
1, 1490, Control_c, 0, 64, 30
1, 1505, Control_c, 0, 64, 27
1, 1520, Control_c, 0, 64, 23
1, 1534, Control_c, 0, 64, 17
1, 1549, Control_c, 0, 64, 11
1, 1564, Control_c, 0, 64, 0
1, 1604, Note_on_c, 0, 73, 55
1, 1615, Note_on_c, 0, 70, 41
1, 1616, Note_on_c, 0, 58, 25
1, 1724, Note_off_c, 0, 72, 52
1, 1870, Note_off_c, 0, 65, 35
1, 1891, Control_c, 0, 64, 36
1, 1906, Control_c, 0, 64, 55
1, 1921, Control_c, 0, 64, 63
1, 1936, Control_c, 0, 64, 69
1, 1951, Control_c, 0, 64, 82
1, 1965, Control_c, 0, 64, 127
1, 1975, Note_off_c, 0, 61, 57
1, 2032, Note_off_c, 0, 73, 56
1, 2037, Note_off_c, 0, 70, 37
1, 2048, Note_off_c, 0, 58, 40
1, 2234, Note_on_c, 0, 65, 71
1, 2240, Note_on_c, 0, 73, 64
1, 2240, Note_on_c, 0, 70, 58
1, 2255, Note_on_c, 0, 61, 55
1, 2259, Note_on_c, 0, 58, 46
1, 2327, Control_c, 0, 64, 104
1, 2342, Control_c, 0, 64, 91
1, 2356, Control_c, 0, 64, 84
1, 2371, Control_c, 0, 64, 78
1, 2387, Control_c, 0, 64, 74
1, 2402, Control_c, 0, 64, 68
1, 2417, Control_c, 0, 64, 63
1, 2432, Control_c, 0, 64, 53
1, 2447, Control_c, 0, 64, 40
1, 2461, Control_c, 0, 64, 25
1, 2476, Control_c, 0, 64, 18
1, 2491, Control_c, 0, 64, 17
1, 2506, Control_c, 0, 64, 16
1, 2565, Control_c, 0, 64, 20
1, 2580, Control_c, 0, 64, 31
1, 2595, Note_off_c, 0, 58, 38
1, 2595, Control_c, 0, 64, 44
1, 2609, Control_c, 0, 64, 55
1, 2624, Control_c, 0, 64, 60
1, 2639, Control_c, 0, 64, 63
1, 2654, Control_c, 0, 64, 67
1, 2669, Control_c, 0, 64, 75
1, 2684, Control_c, 0, 64, 94
1, 2699, Control_c, 0, 64, 127
1, 2726, Note_off_c, 0, 70, 33
1, 2752, Note_off_c, 0, 73, 38
1, 2876, Control_c, 0, 64, 123
1, 2891, Control_c, 0, 64, 107
1, 2906, Control_c, 0, 64, 100
1, 2907, Note_on_c, 0, 73, 56
1, 2910, Note_on_c, 0, 63, 52
1, 2912, Note_on_c, 0, 66, 50
1, 2916, Note_on_c, 0, 70, 47
1, 2919, Note_on_c, 0, 58, 41
1, 2921, Control_c, 0, 64, 94
1, 2943, Control_c, 0, 64, 91
1, 2958, Control_c, 0, 64, 87
1, 2973, Control_c, 0, 64, 83
1, 2987, Control_c, 0, 64, 79
1, 3002, Control_c, 0, 64, 74
1, 3017, Control_c, 0, 64, 70
1, 3032, Control_c, 0, 64, 67
1, 3042, Note_off_c, 0, 61, 30
1, 3047, Control_c, 0, 64, 63
1, 3061, Control_c, 0, 64, 60
1, 3076, Control_c, 0, 64, 54
1, 3091, Control_c, 0, 64, 48
1, 3105, Control_c, 0, 64, 42
1, 3119, Note_off_c, 0, 65, 46
1, 3120, Control_c, 0, 64, 35
1, 3135, Control_c, 0, 64, 32
1, 3150, Control_c, 0, 64, 29
1, 3165, Control_c, 0, 64, 26
1, 3181, Control_c, 0, 64, 24
1, 3196, Control_c, 0, 64, 22
1, 3210, Control_c, 0, 64, 21
1, 3284, Control_c, 0, 64, 24
1, 3299, Control_c, 0, 64, 37
1, 3311, Note_off_c, 0, 58, 33
1, 3314, Control_c, 0, 64, 48
1, 3329, Control_c, 0, 64, 54
1, 3344, Control_c, 0, 64, 58
1, 3358, Control_c, 0, 64, 60
1, 3373, Control_c, 0, 64, 63
1, 3388, Control_c, 0, 64, 67
1, 3402, Control_c, 0, 64, 71
1, 3417, Control_c, 0, 64, 75
1, 3432, Control_c, 0, 64, 78
1, 3462, Control_c, 0, 64, 77
1, 3477, Control_c, 0, 64, 76
1, 3492, Control_c, 0, 64, 74
1, 3507, Control_c, 0, 64, 73
1, 3521, Control_c, 0, 64, 73
1, 3522, Note_on_c, 0, 58, 38
1, 3526, Note_on_c, 0, 72, 48
1, 3531, Note_on_c, 0, 69, 38
1, 3536, Control_c, 0, 64, 72
1, 3551, Control_c, 0, 64, 70
1, 3566, Control_c, 0, 64, 68
1, 3581, Control_c, 0, 64, 67
1, 3595, Control_c, 0, 64, 66
1, 3610, Control_c, 0, 64, 65
1, 3616, Note_off_c, 0, 73, 55
1, 3625, Control_c, 0, 64, 64
1, 3638, Note_off_c, 0, 70, 51
1, 3640, Control_c, 0, 64, 62
1, 3655, Control_c, 0, 64, 61
1, 3677, Control_c, 0, 64, 59
1, 3692, Control_c, 0, 64, 56
1, 3706, Control_c, 0, 64, 54
1, 3721, Control_c, 0, 64, 52
1, 3735, Control_c, 0, 64, 49
1, 3750, Control_c, 0, 64, 45
1, 3765, Control_c, 0, 64, 36
1, 3780, Control_c, 0, 64, 24
1, 3795, Control_c, 0, 64, 9
1, 3809, Control_c, 0, 64, 0
1, 3838, Note_on_c, 0, 73, 65
1, 3843, Note_on_c, 0, 70, 55
1, 3936, Note_off_c, 0, 72, 51
1, 4002, Note_off_c, 0, 58, 40
1, 4157, Note_on_c, 0, 72, 57
1, 4162, Note_on_c, 0, 75, 64
1, 4174, Note_on_c, 0, 58, 41
1, 4273, Note_off_c, 0, 69, 44
1, 4316, Note_off_c, 0, 73, 37
1, 4336, Note_off_c, 0, 70, 36
1, 4484, Control_c, 0, 64, 12
1, 4499, Control_c, 0, 64, 48
1, 4514, Control_c, 0, 64, 63
1, 4529, Control_c, 0, 64, 73
1, 4544, Control_c, 0, 64, 95
1, 4548, Note_off_c, 0, 72, 63
1, 4558, Control_c, 0, 64, 127
1, 4584, Note_off_c, 0, 75, 60
1, 4595, Note_off_c, 0, 63, 51
1, 4607, Note_off_c, 0, 66, 36
1, 4678, Note_off_c, 0, 58, 36
1, 4794, Note_on_c, 0, 66, 70
1, 4797, Note_on_c, 0, 58, 51
1, 4797, Note_on_c, 0, 75, 64
1, 4800, Note_on_c, 0, 72, 56
1, 4804, Note_on_c, 0, 63, 59
1, 4805, Note_on_c, 0, 69, 53
1, 4811, Note_on_c, 0, 60, 58
1, 4855, Control_c, 0, 64, 112
1, 4870, Control_c, 0, 64, 98
1, 4885, Control_c, 0, 64, 88
1, 4900, Control_c, 0, 64, 80
1, 4915, Control_c, 0, 64, 73
1, 4929, Control_c, 0, 64, 68
1, 4944, Control_c, 0, 64, 64
1, 4959, Control_c, 0, 64, 61
1, 4973, Control_c, 0, 64, 58
1, 4988, Control_c, 0, 64, 55
1, 5003, Control_c, 0, 64, 52
1, 5018, Control_c, 0, 64, 49
1, 5033, Control_c, 0, 64, 47
1, 5048, Control_c, 0, 64, 43
1, 5063, Control_c, 0, 64, 34
1, 5078, Control_c, 0, 64, 23
1, 5093, Control_c, 0, 64, 11
1, 5107, Control_c, 0, 64, 0
1, 5146, Note_off_c, 0, 58, 29
1, 5222, Note_off_c, 0, 69, 32
1, 5224, Note_off_c, 0, 63, 51
1, 5284, Note_off_c, 0, 72, 36
1, 5310, Note_off_c, 0, 75, 35
1, 5465, Note_on_c, 0, 65, 49
1, 5474, Note_on_c, 0, 58, 34
1, 5474, Note_on_c, 0, 61, 46
1, 5480, Note_on_c, 0, 72, 49
1, 5480, Note_on_c, 0, 75, 56
1, 5533, Note_off_c, 0, 60, 56
1, 5660, Note_off_c, 0, 66, 50
1, 5896, Note_off_c, 0, 58, 42
1, 6073, Note_on_c, 0, 70, 44
1, 6076, Note_on_c, 0, 73, 53
1, 6088, Note_on_c, 0, 58, 36
1, 6184, Note_off_c, 0, 75, 58
1, 6205, Note_off_c, 0, 72, 58
1, 6370, Note_on_c, 0, 75, 70
1, 6374, Note_on_c, 0, 72, 60
1, 6462, Note_off_c, 0, 73, 56
1, 6493, Note_off_c, 0, 58, 42
1, 6703, Note_on_c, 0, 77, 66
1, 6714, Note_on_c, 0, 73, 56
1, 6721, Note_on_c, 0, 58, 38
1, 6814, Note_off_c, 0, 70, 42
1, 6827, Note_off_c, 0, 72, 58
1, 6888, Note_off_c, 0, 75, 37
1, 7012, Control_c, 0, 64, 32
1, 7027, Control_c, 0, 64, 55
1, 7042, Control_c, 0, 64, 64
1, 7057, Control_c, 0, 64, 75
1, 7072, Control_c, 0, 64, 106
1, 7087, Control_c, 0, 64, 127
1, 7099, Note_off_c, 0, 65, 35
1, 7113, Note_off_c, 0, 61, 37
1, 7117, Note_off_c, 0, 58, 49
1, 7120, Note_off_c, 0, 77, 54
1, 7148, Note_off_c, 0, 73, 54
1, 7317, Note_on_c, 0, 65, 72
1, 7322, Note_on_c, 0, 70, 63
1, 7325, Note_on_c, 0, 77, 69
1, 7331, Note_on_c, 0, 58, 53
1, 7333, Note_on_c, 0, 73, 58
1, 7334, Note_on_c, 0, 61, 60
1, 7368, Control_c, 0, 64, 100
1, 7383, Control_c, 0, 64, 87
1, 7398, Control_c, 0, 64, 74
1, 7421, Control_c, 0, 64, 65
1, 7436, Control_c, 0, 64, 56
1, 7450, Control_c, 0, 64, 44
1, 7465, Control_c, 0, 64, 36
1, 7480, Control_c, 0, 64, 31
1, 7495, Control_c, 0, 64, 19
1, 7510, Control_c, 0, 64, 0
1, 7657, Control_c, 0, 64, 33
1, 7660, Note_off_c, 0, 73, 39
1, 7662, Note_off_c, 0, 58, 55
1, 7672, Control_c, 0, 64, 51
1, 7687, Control_c, 0, 64, 57
1, 7702, Control_c, 0, 64, 61
1, 7717, Control_c, 0, 64, 64
1, 7721, Note_off_c, 0, 77, 54
1, 7731, Control_c, 0, 64, 69
1, 7746, Control_c, 0, 64, 81
1, 7761, Control_c, 0, 64, 127
1, 8041, Note_on_c, 0, 69, 70
1, 8044, Control_c, 0, 64, 105
1, 8045, Note_on_c, 0, 77, 70
1, 8047, Note_on_c, 0, 58, 34
1, 8053, Note_on_c, 0, 73, 54
1, 8059, Control_c, 0, 64, 96
1, 8060, Note_on_c, 0, 60, 42
1, 8073, Control_c, 0, 64, 89
1, 8088, Control_c, 0, 64, 83
1, 8103, Control_c, 0, 64, 78
1, 8118, Control_c, 0, 64, 73
1, 8133, Control_c, 0, 64, 68
1, 8147, Control_c, 0, 64, 64
1, 8162, Control_c, 0, 64, 61
1, 8184, Control_c, 0, 64, 58
1, 8197, Note_off_c, 0, 70, 37
1, 8199, Control_c, 0, 64, 57
1, 8214, Control_c, 0, 64, 55
1, 8228, Control_c, 0, 64, 52
1, 8243, Note_off_c, 0, 61, 38
1, 8243, Control_c, 0, 64, 46
1, 8258, Control_c, 0, 64, 43
1, 8273, Control_c, 0, 64, 40
1, 8288, Control_c, 0, 64, 38
1, 8303, Control_c, 0, 64, 34
1, 8318, Control_c, 0, 64, 24
1, 8333, Control_c, 0, 64, 0
1, 8350, Note_off_c, 0, 65, 49
1, 8475, Note_off_c, 0, 58, 39
1, 8658, Note_on_c, 0, 72, 50
1, 8658, Note_on_c, 0, 75, 58
1, 8668, Note_on_c, 0, 58, 37
1, 8741, Note_off_c, 0, 73, 39
1, 8806, Note_off_c, 0, 77, 53
1, 8964, Note_on_c, 0, 77, 66
1, 8965, Note_on_c, 0, 73, 62
1, 9017, Note_off_c, 0, 72, 58
1, 9057, Note_off_c, 0, 75, 54
1, 9111, Note_off_c, 0, 58, 30
1, 9153, Note_off_c, 0, 73, 64
1, 9306, Note_on_c, 0, 58, 36
1, 9311, Note_on_c, 0, 78, 74
1, 9313, Note_on_c, 0, 75, 63
1, 9456, Note_off_c, 0, 77, 54
1, 9600, Control_c, 0, 64, 25
1, 9615, Control_c, 0, 64, 48
1, 9630, Control_c, 0, 64, 60
1, 9644, Control_c, 0, 64, 66
1, 9659, Control_c, 0, 64, 73
1, 9675, Note_off_c, 0, 75, 60
1, 9682, Control_c, 0, 64, 88
1, 9695, Note_off_c, 0, 69, 52
1, 9697, Control_c, 0, 64, 127
1, 9715, Note_off_c, 0, 78, 48
1, 9742, Note_off_c, 0, 58, 43
1, 9757, Note_off_c, 0, 60, 30
1, 9936, Note_on_c, 0, 58, 43
1, 9939, Note_on_c, 0, 60, 43
1, 9940, Note_on_c, 0, 69, 78
1, 9945, Note_on_c, 0, 78, 72
1, 9948, Note_on_c, 0, 75, 61
1, 9948, Control_c, 0, 64, 104
1, 9963, Control_c, 0, 64, 91
1, 9978, Control_c, 0, 64, 82
1, 9993, Control_c, 0, 64, 76
1, 10008, Control_c, 0, 64, 70
1, 10023, Control_c, 0, 64, 66
1, 10038, Control_c, 0, 64, 63
1, 10052, Control_c, 0, 64, 60
1, 10067, Control_c, 0, 64, 54
1, 10082, Control_c, 0, 64, 45
1, 10097, Control_c, 0, 64, 35
1, 10112, Control_c, 0, 64, 29
1, 10126, Control_c, 0, 64, 26
1, 10141, Control_c, 0, 64, 23
1, 10156, Control_c, 0, 64, 19
1, 10170, Control_c, 0, 64, 15
1, 10185, Control_c, 0, 64, 11
1, 10200, Control_c, 0, 64, 9
1, 10244, Control_c, 0, 64, 0
1, 10427, Note_off_c, 0, 60, 34
1, 10467, Note_off_c, 0, 75, 35
1, 10481, Note_off_c, 0, 58, 41
1, 10493, Note_off_c, 0, 78, 33
1, 10700, Note_on_c, 0, 70, 58
1, 10702, Note_on_c, 0, 78, 55
1, 10704, Note_on_c, 0, 75, 57
1, 10712, Note_on_c, 0, 58, 25
1, 10899, Note_off_c, 0, 69, 62
1, 10979, Control_c, 0, 64, 9
1, 10993, Control_c, 0, 64, 11
1, 11023, Control_c, 0, 64, 12
1, 11067, Control_c, 0, 64, 13
1, 11144, Note_off_c, 0, 58, 40
1, 11374, Note_on_c, 0, 58, 50
1, 11382, Note_on_c, 0, 77, 52
1, 11383, Note_on_c, 0, 73, 31
1, 11495, Note_off_c, 0, 75, 35
1, 11677, Note_on_c, 0, 60, 66
1, 11680, Note_on_c, 0, 75, 62
1, 11737, Note_off_c, 0, 78, 37
1, 11739, Note_off_c, 0, 77, 57
1, 11876, Note_off_c, 0, 58, 37
1, 12020, Note_on_c, 0, 61, 53
1, 12032, Note_on_c, 0, 77, 58
1, 12123, Note_off_c, 0, 75, 52
1, 12157, Note_off_c, 0, 60, 55
1, 12329, Control_c, 0, 64, 23
1, 12344, Control_c, 0, 64, 36
1, 12359, Control_c, 0, 64, 49
1, 12374, Control_c, 0, 64, 58
1, 12388, Control_c, 0, 64, 64
1, 12403, Control_c, 0, 64, 68
1, 12405, Note_off_c, 0, 70, 38
1, 12418, Control_c, 0, 64, 76
1, 12424, Note_off_c, 0, 77, 55
1, 12433, Control_c, 0, 64, 93
1, 12447, Control_c, 0, 64, 127
1, 12463, Note_off_c, 0, 73, 40
1, 12496, Note_off_c, 0, 61, 35
1, 12636, Note_on_c, 0, 70, 71
1, 12638, Note_on_c, 0, 61, 51
1, 12640, Control_c, 0, 64, 105
1, 12640, Note_on_c, 0, 73, 56
1, 12644, Note_on_c, 0, 77, 63
1, 12655, Control_c, 0, 64, 93
1, 12677, Control_c, 0, 64, 83
1, 12692, Control_c, 0, 64, 76
1, 12706, Control_c, 0, 64, 72
1, 12721, Control_c, 0, 64, 69
1, 12736, Control_c, 0, 64, 67
1, 12750, Control_c, 0, 64, 63
1, 12766, Control_c, 0, 64, 57
1, 12781, Control_c, 0, 64, 50
1, 12796, Control_c, 0, 64, 47
1, 12811, Control_c, 0, 64, 47
1, 12941, Note_off_c, 0, 77, 54
1, 12944, Control_c, 0, 64, 47
1, 13086, Note_off_c, 0, 61, 37
1, 13126, Note_off_c, 0, 70, 49
1, 13329, Note_on_c, 0, 67, 50
1, 13340, Note_on_c, 0, 61, 44
1, 13340, Note_on_c, 0, 70, 47
1, 13341, Note_on_c, 0, 77, 52
1, 13601, Note_off_c, 0, 73, 57
1, 13826, Control_c, 0, 64, 47
1, 13959, Note_on_c, 0, 66, 44
1, 13966, Note_on_c, 0, 75, 51
1, 13970, Note_on_c, 0, 60, 40
1, 14075, Note_off_c, 0, 61, 35
1, 14261, Note_on_c, 0, 61, 66
1, 14264, Note_on_c, 0, 73, 57
1, 14282, Note_off_c, 0, 77, 52
1, 14295, Note_off_c, 0, 67, 22
1, 14320, Note_off_c, 0, 75, 62
1, 14429, Note_off_c, 0, 60, 33
1, 14593, Note_on_c, 0, 63, 60
1, 14599, Note_on_c, 0, 72, 54
1, 14706, Note_off_c, 0, 73, 54
1, 14742, Note_off_c, 0, 70, 56
1, 14759, Note_off_c, 0, 66, 54
1, 14767, Note_off_c, 0, 61, 53
1, 15024, Note_off_c, 0, 63, 47
1, 15187, Note_on_c, 0, 73, 66
1, 15192, Note_on_c, 0, 66, 64
1, 15192, Note_on_c, 0, 70, 54
1, 15192, Note_on_c, 0, 63, 58
1, 15329, Note_off_c, 0, 72, 54
1, 15481, Note_on_c, 0, 75, 74
1, 15529, Control_c, 0, 64, 46
1, 15561, Note_off_c, 0, 63, 51
1, 15565, Note_off_c, 0, 73, 61
1, 15603, Control_c, 0, 64, 46
1, 15865, Note_on_c, 0, 63, 63
1, 15870, Note_on_c, 0, 65, 54
1, 15872, Note_on_c, 0, 69, 54
1, 16046, Note_off_c, 0, 70, 51
1, 16116, Note_off_c, 0, 66, 49
1, 16484, Note_on_c, 0, 77, 69
1, 16490, Note_on_c, 0, 61, 44
1, 16494, Note_on_c, 0, 70, 50
1, 16595, Note_off_c, 0, 69, 40
1, 16649, Note_off_c, 0, 63, 38
1, 16682, Note_off_c, 0, 75, 62
1, 16762, Control_c, 0, 64, 45
1, 16769, Note_on_c, 0, 63, 62
1, 16781, Note_on_c, 0, 72, 74
1, 16791, Control_c, 0, 64, 45
1, 16806, Control_c, 0, 64, 44
1, 16821, Control_c, 0, 64, 44
1, 16836, Control_c, 0, 64, 43
1, 16842, Note_off_c, 0, 65, 38
1, 16851, Control_c, 0, 64, 42
1, 16854, Note_off_c, 0, 70, 62
1, 16865, Control_c, 0, 64, 40
1, 16880, Control_c, 0, 64, 39
1, 16895, Control_c, 0, 64, 37
1, 16909, Control_c, 0, 64, 35
1, 16924, Control_c, 0, 64, 32
1, 16939, Control_c, 0, 64, 28
1, 16954, Control_c, 0, 64, 24
1, 16969, Control_c, 0, 64, 17
1, 16983, Control_c, 0, 64, 0
1, 17076, Note_off_c, 0, 61, 30
1, 17097, Note_on_c, 0, 65, 67
1, 17109, Note_on_c, 0, 73, 76
1, 17219, Note_off_c, 0, 72, 61
1, 17248, Note_off_c, 0, 63, 58
1, 17553, Note_off_c, 0, 65, 34
1, 17714, Note_on_c, 0, 65, 68
1, 17714, Note_on_c, 0, 79, 78
1, 17883, Note_off_c, 0, 77, 52
1, 18021, Note_on_c, 0, 81, 77
1, 18152, Note_off_c, 0, 79, 65
1, 18179, Note_off_c, 0, 65, 37
1, 18426, Note_on_c, 0, 65, 54
1, 18426, Note_on_c, 0, 66, 58
1, 18437, Note_on_c, 0, 82, 71
1, 18640, Note_off_c, 0, 81, 59
1, 19070, Note_on_c, 0, 63, 50
1, 19079, Note_on_c, 0, 72, 65
1, 19168, Note_off_c, 0, 65, 36
1, 19170, Note_off_c, 0, 73, 55
1, 19362, Note_on_c, 0, 61, 48
1, 19368, Note_on_c, 0, 73, 67
1, 19465, Note_off_c, 0, 63, 34
1, 19695, Note_off_c, 0, 72, 20
1, 19723, Note_on_c, 0, 75, 57
1, 19724, Note_on_c, 0, 60, 36
1, 19875, Note_off_c, 0, 61, 32
1, 19923, Note_off_c, 0, 73, 49
1, 20341, Note_on_c, 0, 58, 35
1, 20346, Note_on_c, 0, 81, 53
1, 20432, Note_off_c, 0, 82, 59
1, 20454, Note_off_c, 0, 60, 41
1, 20639, Note_on_c, 0, 82, 63
1, 20763, Note_off_c, 0, 81, 57
1, 21045, Note_on_c, 0, 57, 31
1, 21049, Note_on_c, 0, 84, 59
1, 21217, Note_off_c, 0, 58, 40
1, 21253, Note_off_c, 0, 82, 60
1, 21357, Control_c, 0, 64, 23
1, 21372, Control_c, 0, 64, 44
1, 21387, Control_c, 0, 64, 52
1, 21402, Control_c, 0, 64, 57
1, 21416, Control_c, 0, 64, 62
1, 21421, Note_off_c, 0, 75, 49
1, 21431, Control_c, 0, 64, 68
1, 21446, Control_c, 0, 64, 76
1, 21461, Control_c, 0, 64, 94
1, 21476, Control_c, 0, 64, 127
1, 21677, Control_c, 0, 64, 119
1, 21692, Control_c, 0, 64, 107
1, 21697, Note_on_c, 0, 78, 60
1, 21700, Note_on_c, 0, 75, 48
1, 21706, Control_c, 0, 64, 99
1, 21721, Control_c, 0, 64, 94
1, 21736, Control_c, 0, 64, 89
1, 21751, Control_c, 0, 64, 85
1, 21766, Control_c, 0, 64, 82
1, 21780, Control_c, 0, 64, 79
1, 21795, Control_c, 0, 64, 77
1, 21810, Control_c, 0, 64, 76
1, 21825, Control_c, 0, 64, 74
1, 21840, Control_c, 0, 64, 72
1, 21854, Control_c, 0, 64, 70
1, 21869, Control_c, 0, 64, 68
1, 21884, Control_c, 0, 64, 67
1, 21899, Control_c, 0, 64, 66
1, 21914, Control_c, 0, 64, 66
1, 21929, Control_c, 0, 64, 64
1, 21944, Control_c, 0, 64, 63
1, 21958, Control_c, 0, 64, 63
1, 21973, Control_c, 0, 64, 62
1, 21988, Control_c, 0, 64, 61
1, 21994, Note_on_c, 0, 77, 61
1, 22003, Control_c, 0, 64, 59
1, 22006, Note_on_c, 0, 73, 49
1, 22018, Control_c, 0, 64, 57
1, 22033, Control_c, 0, 64, 56
1, 22038, Note_off_c, 0, 75, 59
1, 22047, Control_c, 0, 64, 56
1, 22062, Control_c, 0, 64, 54
1, 22077, Control_c, 0, 64, 51
1, 22092, Control_c, 0, 64, 47
1, 22106, Control_c, 0, 64, 43
1, 22121, Control_c, 0, 64, 41
1, 22136, Control_c, 0, 64, 40
1, 22151, Control_c, 0, 64, 39
1, 22210, Control_c, 0, 64, 42
1, 22225, Control_c, 0, 64, 49
1, 22240, Control_c, 0, 64, 55
1, 22254, Control_c, 0, 64, 58
1, 22267, Note_off_c, 0, 73, 56
1, 22269, Control_c, 0, 64, 61
1, 22284, Control_c, 0, 64, 62
1, 22298, Control_c, 0, 64, 63
1, 22313, Control_c, 0, 64, 64
1, 22344, Control_c, 0, 64, 63
1, 22359, Note_on_c, 0, 75, 53
1, 22359, Control_c, 0, 64, 63
1, 22371, Note_on_c, 0, 72, 42
1, 22389, Control_c, 0, 64, 62
1, 22411, Control_c, 0, 64, 61
1, 22426, Control_c, 0, 64, 60
1, 22441, Control_c, 0, 64, 59
1, 22456, Control_c, 0, 64, 58
1, 22471, Control_c, 0, 64, 56
1, 22485, Control_c, 0, 64, 54
1, 22500, Control_c, 0, 64, 52
1, 22506, Note_off_c, 0, 78, 21
1, 22515, Control_c, 0, 64, 52
1, 22529, Control_c, 0, 64, 51
1, 22544, Note_off_c, 0, 84, 27
1, 22544, Control_c, 0, 64, 50
1, 22553, Note_off_c, 0, 57, 36
1, 22559, Control_c, 0, 64, 48
1, 22574, Control_c, 0, 64, 47
1, 22589, Control_c, 0, 64, 46
1, 22590, Note_off_c, 0, 66, 33
1, 22603, Control_c, 0, 64, 46
1, 22616, Note_off_c, 0, 77, 46
1, 22618, Control_c, 0, 64, 44
1, 22633, Control_c, 0, 64, 42
1, 22648, Control_c, 0, 64, 40
1, 22663, Control_c, 0, 64, 39
1, 22677, Control_c, 0, 64, 38
1, 22692, Control_c, 0, 64, 38
1, 22707, Control_c, 0, 64, 36
1, 22722, Control_c, 0, 64, 34
1, 22736, Control_c, 0, 64, 32
1, 22751, Control_c, 0, 64, 31
1, 22766, Control_c, 0, 64, 30
1, 22781, Control_c, 0, 64, 30
1, 22796, Control_c, 0, 64, 29
1, 22811, Control_c, 0, 64, 28
1, 22826, Control_c, 0, 64, 28
1, 22841, Control_c, 0, 64, 27
1, 22856, Control_c, 0, 64, 26
1, 22870, Control_c, 0, 64, 26
1, 22885, Control_c, 0, 64, 25
1, 22900, Control_c, 0, 64, 25
1, 22915, Control_c, 0, 64, 24
1, 22978, Note_on_c, 0, 84, 63
1, 22989, Control_c, 0, 64, 24
1, 22994, Note_on_c, 0, 57, 37
1, 23145, Control_c, 0, 64, 23
1, 23276, Note_on_c, 0, 58, 45
1, 23276, Note_on_c, 0, 82, 69
1, 23344, Note_off_c, 0, 84, 47
1, 23437, Note_off_c, 0, 57, 23
1, 23635, Note_on_c, 0, 81, 55
1, 23640, Note_on_c, 0, 60, 41
1, 23741, Note_off_c, 0, 82, 54
1, 23782, Control_c, 0, 64, 23
1, 23818, Note_off_c, 0, 58, 38
1, 23885, Note_off_c, 0, 72, 44
1, 23923, Control_c, 0, 64, 22
1, 23955, Note_off_c, 0, 75, 57
1, 23968, Control_c, 0, 64, 21
1, 23983, Control_c, 0, 64, 21
1, 23997, Control_c, 0, 64, 20
1, 24012, Control_c, 0, 64, 19
1, 24027, Control_c, 0, 64, 18
1, 24072, Control_c, 0, 64, 17
1, 24146, Control_c, 0, 64, 17
1, 24175, Control_c, 0, 64, 16
1, 24236, Note_on_c, 0, 72, 47
1, 24237, Note_on_c, 0, 75, 59
1, 24279, Control_c, 0, 64, 15
1, 24382, Control_c, 0, 64, 13
1, 24456, Control_c, 0, 64, 12
1, 24505, Note_off_c, 0, 72, 39
1, 24518, Note_on_c, 0, 70, 49
1, 24522, Note_on_c, 0, 73, 61
1, 24590, Control_c, 0, 64, 11
1, 24791, Control_c, 0, 64, 9
1, 24823, Note_off_c, 0, 75, 24
1, 24867, Note_on_c, 0, 69, 42
1, 24874, Note_on_c, 0, 72, 49
1, 24939, Control_c, 0, 64, 0
1, 24996, Note_off_c, 0, 70, 43
1, 25032, Note_off_c, 0, 73, 46
1, 25138, Note_off_c, 0, 81, 54
1, 25172, Note_off_c, 0, 60, 35
1, 25487, Note_on_c, 0, 81, 53
1, 25492, Note_on_c, 0, 60, 35
1, 25775, Note_on_c, 0, 61, 32
1, 25789, Note_on_c, 0, 84, 57
1, 25902, Note_off_c, 0, 81, 35
1, 25925, Note_off_c, 0, 60, 36
1, 26191, Note_on_c, 0, 63, 32
1, 26203, Note_on_c, 0, 77, 49
1, 26345, Note_off_c, 0, 84, 55
1, 26360, Note_off_c, 0, 61, 42
1, 26405, Note_off_c, 0, 69, 58
1, 26490, Note_off_c, 0, 72, 61
1, 26802, Note_on_c, 0, 69, 37
1, 26804, Note_on_c, 0, 65, 26
1, 27103, Note_on_c, 0, 70, 48
1, 27112, Note_on_c, 0, 67, 36
1, 27210, Note_off_c, 0, 69, 36
1, 27270, Note_off_c, 0, 65, 40
1, 27441, Note_on_c, 0, 72, 53
1, 27446, Note_on_c, 0, 69, 36
1, 27541, Note_off_c, 0, 70, 29
1, 27557, Note_off_c, 0, 67, 44
1, 27629, Control_c, 0, 64, 9
1, 27652, Control_c, 0, 64, 19
1, 27666, Control_c, 0, 64, 28
1, 27681, Control_c, 0, 64, 35
1, 27696, Control_c, 0, 64, 41
1, 27711, Control_c, 0, 64, 48
1, 27725, Control_c, 0, 64, 52
1, 27740, Control_c, 0, 64, 56
1, 27755, Control_c, 0, 64, 59
1, 27762, Note_off_c, 0, 63, 40
1, 27770, Control_c, 0, 64, 61
1, 27785, Control_c, 0, 64, 64
1, 27799, Control_c, 0, 64, 68
1, 27814, Note_off_c, 0, 72, 49
1, 27814, Control_c, 0, 64, 73
1, 27829, Control_c, 0, 64, 80
1, 27844, Control_c, 0, 64, 86
1, 27859, Control_c, 0, 64, 89
1, 27888, Control_c, 0, 64, 87
1, 27903, Control_c, 0, 64, 86
1, 27917, Control_c, 0, 64, 84
1, 27932, Control_c, 0, 64, 83
1, 27948, Control_c, 0, 64, 82
1, 27963, Control_c, 0, 64, 80
1, 27978, Control_c, 0, 64, 78
1, 27993, Control_c, 0, 64, 76
1, 28008, Control_c, 0, 64, 74
1, 28022, Control_c, 0, 64, 73
1, 28037, Control_c, 0, 64, 72
1, 28051, Note_on_c, 0, 72, 53
1, 28052, Control_c, 0, 64, 71
1, 28067, Control_c, 0, 64, 70
1, 28071, Note_on_c, 0, 63, 38
1, 28082, Control_c, 0, 64, 68
1, 28096, Control_c, 0, 64, 67
1, 28111, Control_c, 0, 64, 66
1, 28126, Control_c, 0, 64, 65
1, 28141, Control_c, 0, 64, 65
1, 28156, Control_c, 0, 64, 64
1, 28171, Control_c, 0, 64, 63
1, 28186, Control_c, 0, 64, 62
1, 28200, Control_c, 0, 64, 61
1, 28215, Control_c, 0, 64, 60
1, 28230, Control_c, 0, 64, 60
1, 28245, Control_c, 0, 64, 58
1, 28260, Control_c, 0, 64, 57
1, 28275, Control_c, 0, 64, 57
1, 28289, Control_c, 0, 64, 56
1, 28304, Control_c, 0, 64, 55
1, 28319, Control_c, 0, 64, 54
1, 28333, Control_c, 0, 64, 54
1, 28337, Note_on_c, 0, 73, 66
1, 28340, Note_on_c, 0, 61, 51
1, 28363, Control_c, 0, 64, 53
1, 28378, Control_c, 0, 64, 51
1, 28400, Control_c, 0, 64, 50
1, 28415, Control_c, 0, 64, 49
1, 28430, Control_c, 0, 64, 48
1, 28445, Control_c, 0, 64, 48
1, 28460, Control_c, 0, 64, 47
1, 28475, Control_c, 0, 64, 45
1, 28489, Control_c, 0, 64, 43
1, 28504, Control_c, 0, 64, 42
1, 28515, Note_off_c, 0, 63, 36
1, 28519, Control_c, 0, 64, 41
1, 28534, Control_c, 0, 64, 41
1, 28548, Control_c, 0, 64, 40
1, 28563, Control_c, 0, 64, 39
1, 28567, Note_off_c, 0, 72, 29
1, 28578, Control_c, 0, 64, 38
1, 28593, Control_c, 0, 64, 37
1, 28608, Control_c, 0, 64, 36
1, 28622, Control_c, 0, 64, 36
1, 28637, Control_c, 0, 64, 35
1, 28652, Control_c, 0, 64, 35
1, 28666, Note_on_c, 0, 60, 47
1, 28667, Control_c, 0, 64, 34
1, 28688, Note_on_c, 0, 75, 62
1, 28696, Control_c, 0, 64, 34
1, 28711, Control_c, 0, 64, 33
1, 28726, Control_c, 0, 64, 33
1, 28742, Control_c, 0, 64, 32
1, 28756, Control_c, 0, 64, 32
1, 28786, Control_c, 0, 64, 31
1, 28799, Note_off_c, 0, 61, 49
1, 28801, Control_c, 0, 64, 31
1, 28831, Control_c, 0, 64, 30
1, 28861, Note_off_c, 0, 73, 38
1, 28905, Control_c, 0, 64, 30
1, 28964, Control_c, 0, 64, 29
1, 29008, Control_c, 0, 64, 29
1, 29023, Control_c, 0, 64, 28
1, 29053, Control_c, 0, 64, 28
1, 29083, Control_c, 0, 64, 27
1, 29083, Note_off_c, 0, 60, 50
1, 29088, Note_off_c, 0, 69, 35
1, 29098, Control_c, 0, 64, 26
1, 29127, Control_c, 0, 64, 26
1, 29149, Control_c, 0, 64, 25
1, 29193, Control_c, 0, 64, 25
1, 29223, Control_c, 0, 64, 24
1, 29267, Control_c, 0, 64, 24
1, 29286, Note_on_c, 0, 72, 63
1, 29290, Note_on_c, 0, 69, 51
1, 29297, Note_on_c, 0, 60, 51
1, 29341, Control_c, 0, 64, 23
1, 29415, Control_c, 0, 64, 23
1, 29564, Note_on_c, 0, 73, 66
1, 29567, Note_on_c, 0, 58, 61
1, 29571, Note_on_c, 0, 70, 62
1, 29593, Control_c, 0, 64, 22
1, 29613, Note_off_c, 0, 75, 56
1, 29646, Note_off_c, 0, 72, 56
1, 29783, Note_off_c, 0, 69, 33
1, 29891, Note_on_c, 0, 72, 58
1, 29901, Note_on_c, 0, 75, 68
1, 29904, Note_on_c, 0, 57, 52
1, 30018, Note_off_c, 0, 60, 37
1, 30058, Note_off_c, 0, 73, 39
1, 30059, Note_off_c, 0, 58, 51
1, 30153, Note_off_c, 0, 70, 37
1, 30486, Note_on_c, 0, 55, 61
1, 30499, Note_on_c, 0, 69, 61
1, 30577, Note_off_c, 0, 57, 55
1, 30646, Control_c, 0, 64, 21
1, 30706, Note_off_c, 0, 72, 36
1, 30790, Note_on_c, 0, 53, 57
1, 30795, Control_c, 0, 64, 21
1, 30858, Note_off_c, 0, 55, 55
1, 31166, Note_on_c, 0, 65, 39
1, 31171, Note_on_c, 0, 58, 51
1, 31390, Note_off_c, 0, 53, 56
1, 31396, Control_c, 0, 64, 21
1, 31411, Control_c, 0, 64, 25
1, 31426, Control_c, 0, 64, 29
1, 31440, Control_c, 0, 64, 32
1, 31455, Control_c, 0, 64, 34
1, 31456, Note_off_c, 0, 69, 30
1, 31470, Control_c, 0, 64, 37
1, 31485, Control_c, 0, 64, 39
1, 31500, Control_c, 0, 64, 43
1, 31514, Control_c, 0, 64, 45
1, 31529, Control_c, 0, 64, 48
1, 31544, Control_c, 0, 64, 51
1, 31558, Control_c, 0, 64, 54
1, 31573, Note_off_c, 0, 77, 46
1, 31573, Control_c, 0, 64, 59
1, 31588, Control_c, 0, 64, 61
1, 31603, Control_c, 0, 64, 63
1, 31618, Control_c, 0, 64, 64
1, 31632, Control_c, 0, 64, 65
1, 31647, Control_c, 0, 64, 65
1, 31736, Control_c, 0, 64, 65
1, 31766, Control_c, 0, 64, 64
1, 31780, Note_on_c, 0, 77, 59
1, 31781, Control_c, 0, 64, 64
1, 31788, Note_on_c, 0, 73, 53
1, 31795, Control_c, 0, 64, 63
1, 31810, Control_c, 0, 64, 62
1, 31825, Control_c, 0, 64, 60
1, 31840, Control_c, 0, 64, 59
1, 31855, Control_c, 0, 64, 59
1, 31870, Control_c, 0, 64, 57
1, 31883, Note_off_c, 0, 75, 52
1, 31885, Control_c, 0, 64, 55
1, 31900, Control_c, 0, 64, 53
1, 31914, Control_c, 0, 64, 52
1, 31930, Control_c, 0, 64, 51
1, 31945, Control_c, 0, 64, 49
1, 31959, Control_c, 0, 64, 47
1, 31974, Control_c, 0, 64, 44
1, 31989, Control_c, 0, 64, 42
1, 32004, Control_c, 0, 64, 40
1, 32019, Control_c, 0, 64, 38
1, 32034, Control_c, 0, 64, 36
1, 32049, Control_c, 0, 64, 34
1, 32063, Control_c, 0, 64, 32
1, 32070, Note_on_c, 0, 75, 62
1, 32076, Note_on_c, 0, 72, 57
1, 32078, Control_c, 0, 64, 29
1, 32093, Control_c, 0, 64, 24
1, 32108, Control_c, 0, 64, 17
1, 32123, Control_c, 0, 64, 0
1, 32135, Note_off_c, 0, 73, 53
1, 32211, Note_off_c, 0, 77, 51
1, 32418, Note_on_c, 0, 73, 52
1, 32419, Note_on_c, 0, 70, 39
1, 32505, Note_off_c, 0, 75, 57
1, 32508, Note_off_c, 0, 72, 55
1, 32767, Control_c, 0, 64, 43
1, 32782, Control_c, 0, 64, 59
1, 32797, Control_c, 0, 64, 65
1, 32812, Control_c, 0, 64, 69
1, 32813, Note_off_c, 0, 70, 53
1, 32827, Control_c, 0, 64, 77
1, 32842, Control_c, 0, 64, 89
1, 32857, Control_c, 0, 64, 119
1, 32872, Control_c, 0, 64, 127
1, 33041, Control_c, 0, 64, 113
1, 33055, Note_on_c, 0, 75, 51
1, 33056, Control_c, 0, 64, 102
1, 33062, Note_on_c, 0, 69, 40
1, 33069, Note_on_c, 0, 66, 30
1, 33071, Control_c, 0, 64, 95
1, 33086, Control_c, 0, 64, 88
1, 33101, Control_c, 0, 64, 81
1, 33116, Control_c, 0, 64, 76
1, 33128, Note_off_c, 0, 73, 56
1, 33131, Control_c, 0, 64, 72
1, 33146, Control_c, 0, 64, 69
1, 33160, Control_c, 0, 64, 67
1, 33175, Control_c, 0, 64, 65
1, 33182, Note_off_c, 0, 65, 37
1, 33190, Control_c, 0, 64, 63
1, 33204, Control_c, 0, 64, 61
1, 33219, Control_c, 0, 64, 58
1, 33234, Control_c, 0, 64, 55
1, 33249, Control_c, 0, 64, 54
1, 33264, Control_c, 0, 64, 53
1, 33278, Control_c, 0, 64, 51
1, 33293, Control_c, 0, 64, 47
1, 33308, Control_c, 0, 64, 46
1, 33352, Control_c, 0, 64, 46
1, 33360, Note_on_c, 0, 72, 52
1, 33367, Control_c, 0, 64, 44
1, 33373, Note_on_c, 0, 63, 35
1, 33382, Control_c, 0, 64, 42
1, 33397, Control_c, 0, 64, 40
1, 33441, Control_c, 0, 64, 40
1, 33489, Note_off_c, 0, 66, 37
1, 33515, Control_c, 0, 64, 39
1, 33639, Note_off_c, 0, 75, 31
1, 33719, Note_on_c, 0, 65, 32
1, 33726, Note_on_c, 0, 73, 43
1, 33732, Note_on_c, 0, 70, 31
1, 33801, Note_off_c, 0, 72, 36
1, 33849, Note_off_c, 0, 69, 36
1, 33858, Note_off_c, 0, 63, 39
1, 33938, Control_c, 0, 64, 42
1, 33952, Control_c, 0, 64, 45
1, 33967, Control_c, 0, 64, 47
1, 33982, Control_c, 0, 64, 51
1, 33997, Control_c, 0, 64, 55
1, 34012, Control_c, 0, 64, 59
1, 34026, Control_c, 0, 64, 62
1, 34041, Control_c, 0, 64, 64
1, 34056, Control_c, 0, 64, 66
1, 34071, Control_c, 0, 64, 69
1, 34086, Control_c, 0, 64, 72
1, 34100, Control_c, 0, 64, 75
1, 34112, Note_off_c, 0, 70, 42
1, 34115, Note_off_c, 0, 73, 35
1, 34115, Control_c, 0, 64, 77
1, 34130, Control_c, 0, 64, 80
1, 34145, Control_c, 0, 64, 83
1, 34159, Control_c, 0, 64, 86
1, 34174, Control_c, 0, 64, 87
1, 34189, Control_c, 0, 64, 88
1, 34264, Control_c, 0, 64, 87
1, 34279, Control_c, 0, 64, 87
1, 34293, Control_c, 0, 64, 86
1, 34308, Control_c, 0, 64, 85
1, 34323, Control_c, 0, 64, 85
1, 34338, Control_c, 0, 64, 83
1, 34353, Control_c, 0, 64, 82
1, 34368, Control_c, 0, 64, 80
1, 34390, Control_c, 0, 64, 78
1, 34405, Control_c, 0, 64, 76
1, 34421, Control_c, 0, 64, 75
1, 34426, Note_on_c, 0, 70, 52
1, 34427, Note_on_c, 0, 61, 35
1, 34436, Control_c, 0, 64, 73
1, 34451, Control_c, 0, 64, 72
1, 34465, Control_c, 0, 64, 70
1, 34480, Control_c, 0, 64, 69
1, 34495, Control_c, 0, 64, 68
1, 34510, Control_c, 0, 64, 67
1, 34525, Control_c, 0, 64, 66
1, 34539, Control_c, 0, 64, 65
1, 34554, Control_c, 0, 64, 64
1, 34569, Control_c, 0, 64, 64
1, 34583, Control_c, 0, 64, 63
1, 34598, Control_c, 0, 64, 63
1, 34613, Control_c, 0, 64, 62
1, 34628, Control_c, 0, 64, 61
1, 34643, Control_c, 0, 64, 59
1, 34657, Control_c, 0, 64, 58
1, 34672, Control_c, 0, 64, 57
1, 34687, Control_c, 0, 64, 56
1, 34702, Control_c, 0, 64, 54
1, 34717, Control_c, 0, 64, 50
1, 34725, Note_off_c, 0, 58, 32
1, 34728, Note_on_c, 0, 72, 70
1, 34732, Control_c, 0, 64, 45
1, 34735, Note_on_c, 0, 60, 57
1, 34747, Control_c, 0, 64, 41
1, 34761, Control_c, 0, 64, 37
1, 34776, Control_c, 0, 64, 31
1, 34791, Control_c, 0, 64, 21
1, 34806, Control_c, 0, 64, 0
1, 34838, Note_off_c, 0, 65, 36
1, 34839, Note_off_c, 0, 70, 56
1, 35056, Note_on_c, 0, 73, 63
1, 35059, Note_on_c, 0, 58, 48
1, 35080, Note_off_c, 0, 61, 29
1, 35150, Note_off_c, 0, 60, 56
1, 35152, Note_off_c, 0, 72, 58
1, 35348, Control_c, 0, 64, 28
1, 35362, Control_c, 0, 64, 42
1, 35377, Control_c, 0, 64, 52
1, 35392, Control_c, 0, 64, 57
1, 35406, Control_c, 0, 64, 61
1, 35421, Control_c, 0, 64, 64
1, 35436, Control_c, 0, 64, 71
1, 35451, Control_c, 0, 64, 83
1, 35466, Control_c, 0, 64, 121
1, 35477, Note_off_c, 0, 73, 54
1, 35480, Control_c, 0, 64, 127
1, 35703, Control_c, 0, 64, 108
1, 35705, Note_on_c, 0, 65, 43
1, 35712, Note_on_c, 0, 56, 42
1, 35712, Note_on_c, 0, 70, 53
1, 35715, Note_on_c, 0, 73, 62
1, 35718, Control_c, 0, 64, 97
1, 35733, Control_c, 0, 64, 90
1, 35747, Control_c, 0, 64, 83
1, 35762, Control_c, 0, 64, 76
1, 35777, Control_c, 0, 64, 71
1, 35792, Control_c, 0, 64, 65
1, 35806, Note_off_c, 0, 58, 33
1, 35806, Control_c, 0, 64, 59
1, 35821, Control_c, 0, 64, 51
1, 35836, Control_c, 0, 64, 45
1, 35851, Control_c, 0, 64, 44
1, 35866, Control_c, 0, 64, 42
1, 35888, Control_c, 0, 64, 40
1, 35903, Control_c, 0, 64, 37
1, 35916, Control_c, 0, 64, 35
1, 35932, Control_c, 0, 64, 35
1, 36021, Control_c, 0, 64, 38
1, 36035, Control_c, 0, 64, 44
1, 36050, Control_c, 0, 64, 51
1, 36065, Control_c, 0, 64, 56
1, 36080, Control_c, 0, 64, 61
1, 36095, Control_c, 0, 64, 64
1, 36109, Control_c, 0, 64, 67
1, 36124, Control_c, 0, 64, 71
1, 36139, Control_c, 0, 64, 77
1, 36154, Control_c, 0, 64, 90
1, 36169, Control_c, 0, 64, 118
1, 36183, Control_c, 0, 64, 127
1, 36204, Note_off_c, 0, 73, 39
1, 36209, Note_off_c, 0, 70, 35
1, 36332, Control_c, 0, 64, 110
1, 36347, Control_c, 0, 64, 103
1, 36361, Control_c, 0, 64, 95
1, 36376, Control_c, 0, 64, 89
1, 36381, Note_on_c, 0, 63, 38
1, 36384, Note_on_c, 0, 55, 32
1, 36391, Note_on_c, 0, 70, 37
1, 36391, Control_c, 0, 64, 83
1, 36392, Note_on_c, 0, 73, 48
1, 36406, Control_c, 0, 64, 80
1, 36421, Control_c, 0, 64, 78
1, 36435, Control_c, 0, 64, 75
1, 36450, Control_c, 0, 64, 71
1, 36465, Control_c, 0, 64, 67
1, 36480, Control_c, 0, 64, 64
1, 36495, Control_c, 0, 64, 61
1, 36499, Note_off_c, 0, 65, 36
1, 36502, Note_off_c, 0, 56, 35
1, 36509, Control_c, 0, 64, 57
1, 36524, Control_c, 0, 64, 52
1, 36539, Control_c, 0, 64, 47
1, 36553, Control_c, 0, 64, 46
1, 36568, Control_c, 0, 64, 44
1, 36583, Control_c, 0, 64, 40
1, 36598, Control_c, 0, 64, 35
1, 36613, Control_c, 0, 64, 31
1, 36635, Control_c, 0, 64, 27
1, 36650, Control_c, 0, 64, 22
1, 36665, Control_c, 0, 64, 15
1, 36680, Control_c, 0, 64, 0
1, 36851, Note_off_c, 0, 63, 37
1, 37000, Note_on_c, 0, 72, 61
1, 37002, Note_on_c, 0, 63, 47
1, 37002, Note_on_c, 0, 68, 49
1, 37005, Note_on_c, 0, 56, 44
1, 37109, Note_off_c, 0, 70, 45
1, 37124, Note_off_c, 0, 55, 43
1, 37164, Note_off_c, 0, 73, 36
1, 37299, Note_on_c, 0, 70, 67
1, 37307, Note_on_c, 0, 55, 59
1, 37352, Note_off_c, 0, 72, 58
1, 37405, Note_off_c, 0, 56, 38
1, 37408, Note_off_c, 0, 63, 36
1, 37474, Note_off_c, 0, 68, 48
1, 37637, Note_on_c, 0, 72, 63
1, 37638, Note_on_c, 0, 53, 52
1, 37718, Note_off_c, 0, 55, 61
1, 37769, Note_off_c, 0, 70, 52
1, 38127, Note_off_c, 0, 72, 54
1, 38288, Note_on_c, 0, 65, 49
1, 38290, Note_on_c, 0, 72, 57
1, 38293, Note_on_c, 0, 68, 51
1, 38294, Note_on_c, 0, 51, 46
1, 38428, Note_off_c, 0, 53, 36
1, 38623, Control_c, 0, 64, 26
1, 38638, Control_c, 0, 64, 40
1, 38653, Control_c, 0, 64, 48
1, 38668, Control_c, 0, 64, 54
1, 38683, Control_c, 0, 64, 59
1, 38697, Control_c, 0, 64, 62
1, 38712, Control_c, 0, 64, 64
1, 38727, Control_c, 0, 64, 65
1, 38742, Control_c, 0, 64, 66
1, 38757, Control_c, 0, 64, 66
1, 38771, Control_c, 0, 64, 66
1, 38777, Note_off_c, 0, 68, 38
1, 38778, Note_off_c, 0, 65, 35
1, 38786, Control_c, 0, 64, 65
1, 38791, Note_off_c, 0, 72, 30
1, 38815, Control_c, 0, 64, 65
1, 38845, Control_c, 0, 64, 64
1, 38883, Control_c, 0, 64, 64
1, 38897, Control_c, 0, 64, 63
1, 38912, Control_c, 0, 64, 63
1, 38927, Control_c, 0, 64, 62
1, 38942, Control_c, 0, 64, 61
1, 38957, Control_c, 0, 64, 61
1, 38969, Note_on_c, 0, 50, 32
1, 38971, Note_on_c, 0, 65, 41
1, 38972, Control_c, 0, 64, 60
1, 38972, Note_on_c, 0, 68, 42
1, 38976, Note_on_c, 0, 72, 49
1, 38986, Control_c, 0, 64, 60
1, 39001, Control_c, 0, 64, 59
1, 39016, Control_c, 0, 64, 58
1, 39030, Control_c, 0, 64, 57
1, 39045, Control_c, 0, 64, 56
1, 39060, Control_c, 0, 64, 56
1, 39075, Control_c, 0, 64, 55
1, 39090, Control_c, 0, 64, 54
1, 39092, Note_off_c, 0, 51, 30
1, 39105, Control_c, 0, 64, 52
1, 39120, Control_c, 0, 64, 52
1, 39150, Control_c, 0, 64, 51
1, 39165, Control_c, 0, 64, 51
1, 39180, Control_c, 0, 64, 50
1, 39195, Control_c, 0, 64, 49
1, 39224, Control_c, 0, 64, 49
1, 39254, Control_c, 0, 64, 48
1, 39269, Control_c, 0, 64, 48
1, 39283, Control_c, 0, 64, 47
1, 39358, Control_c, 0, 64, 47
1, 39402, Control_c, 0, 64, 46
1, 39415, Note_off_c, 0, 65, 29
1, 39461, Control_c, 0, 64, 46
1, 39506, Control_c, 0, 64, 45
1, 39565, Control_c, 0, 64, 45
1, 39582, Note_on_c, 0, 67, 43
1, 39584, Note_on_c, 0, 65, 32
1, 39588, Note_on_c, 0, 55, 46
1, 39594, Note_on_c, 0, 70, 52
1, 39646, Control_c, 0, 64, 44
1, 39680, Note_off_c, 0, 68, 35
1, 39749, Control_c, 0, 64, 44
1, 39843, Note_off_c, 0, 50, 40
1, 39853, Note_off_c, 0, 72, 19
1, 39892, Note_on_c, 0, 53, 63
1, 39898, Note_on_c, 0, 68, 62
1, 39912, Control_c, 0, 64, 43
1, 39960, Note_off_c, 0, 70, 50
1, 40031, Note_off_c, 0, 55, 38
1, 40151, Note_off_c, 0, 65, 30
1, 40229, Note_on_c, 0, 52, 55
1, 40237, Note_on_c, 0, 70, 57
1, 40293, Note_off_c, 0, 67, 32
1, 40326, Note_off_c, 0, 53, 52
1, 40338, Note_off_c, 0, 68, 50
1, 40498, Control_c, 0, 64, 44
1, 40513, Control_c, 0, 64, 45
1, 40528, Control_c, 0, 64, 46
1, 40542, Control_c, 0, 64, 48
1, 40557, Control_c, 0, 64, 50
1, 40572, Control_c, 0, 64, 52
1, 40587, Control_c, 0, 64, 55
1, 40601, Control_c, 0, 64, 59
1, 40616, Control_c, 0, 64, 62
1, 40631, Control_c, 0, 64, 64
1, 40646, Control_c, 0, 64, 66
1, 40661, Control_c, 0, 64, 69
1, 40676, Control_c, 0, 64, 75
1, 40690, Control_c, 0, 64, 84
1, 40705, Control_c, 0, 64, 91
1, 40721, Control_c, 0, 64, 92
1, 40736, Control_c, 0, 64, 92
1, 40751, Control_c, 0, 64, 90
1, 40763, Note_off_c, 0, 70, 50
1, 40765, Control_c, 0, 64, 88
1, 40780, Control_c, 0, 64, 87
1, 40795, Control_c, 0, 64, 86
1, 40810, Control_c, 0, 64, 85
1, 40825, Control_c, 0, 64, 83
1, 40840, Control_c, 0, 64, 81
1, 40854, Control_c, 0, 64, 79
1, 40869, Control_c, 0, 64, 78
1, 40880, Note_on_c, 0, 65, 62
1, 40884, Control_c, 0, 64, 76
1, 40887, Note_on_c, 0, 67, 53
1, 40889, Note_on_c, 0, 70, 62
1, 40896, Note_on_c, 0, 55, 40
1, 40899, Control_c, 0, 64, 75
1, 40914, Control_c, 0, 64, 73
1, 40929, Control_c, 0, 64, 71
1, 40944, Control_c, 0, 64, 69
1, 40959, Control_c, 0, 64, 68
1, 40973, Control_c, 0, 64, 67
1, 40988, Control_c, 0, 64, 65
1, 41003, Control_c, 0, 64, 63
1, 41017, Control_c, 0, 64, 62
1, 41023, Note_off_c, 0, 52, 36
1, 41032, Control_c, 0, 64, 60
1, 41047, Control_c, 0, 64, 58
1, 41062, Control_c, 0, 64, 55
1, 41077, Control_c, 0, 64, 53
1, 41091, Control_c, 0, 64, 51
1, 41106, Control_c, 0, 64, 51
1, 41129, Control_c, 0, 64, 50
1, 41144, Control_c, 0, 64, 49
1, 41158, Control_c, 0, 64, 49
1, 41173, Control_c, 0, 64, 48
1, 41203, Control_c, 0, 64, 48
1, 41217, Control_c, 0, 64, 47
1, 41247, Control_c, 0, 64, 47
1, 41292, Control_c, 0, 64, 46
1, 41306, Control_c, 0, 64, 46
1, 41351, Control_c, 0, 64, 45
1, 41409, Note_off_c, 0, 70, 30
1, 41415, Note_off_c, 0, 67, 34
1, 41469, Control_c, 0, 64, 45
1, 41498, Control_c, 0, 64, 44
1, 41570, Note_on_c, 0, 67, 36
1, 41576, Note_on_c, 0, 64, 43
1, 41585, Note_on_c, 0, 70, 42
1, 41597, Note_on_c, 0, 48, 32
1, 41633, Control_c, 0, 64, 44
1, 41722, Control_c, 0, 64, 43
1, 41770, Note_off_c, 0, 55, 37
1, 41783, Note_off_c, 0, 65, 33
1, 41796, Control_c, 0, 64, 43
1, 41937, Control_c, 0, 64, 42
1, 42011, Control_c, 0, 64, 42
1, 42115, Control_c, 0, 64, 41
1, 42169, Note_on_c, 0, 60, 41
1, 42177, Note_on_c, 0, 68, 54
1, 42179, Note_on_c, 0, 53, 38
1, 42182, Note_on_c, 0, 65, 31
1, 42271, Note_off_c, 0, 67, 41
1, 42324, Control_c, 0, 64, 41
1, 42342, Note_off_c, 0, 64, 38
1, 42467, Note_on_c, 0, 51, 62
1, 42480, Note_on_c, 0, 67, 62
1, 42493, Note_off_c, 0, 48, 40
1, 42501, Control_c, 0, 64, 40
1, 42536, Note_off_c, 0, 68, 54
1, 42545, Control_c, 0, 64, 40
1, 42577, Note_off_c, 0, 70, 37
1, 42590, Control_c, 0, 64, 39
1, 42701, Control_c, 0, 64, 39
1, 42755, Note_off_c, 0, 53, 38
1, 42821, Note_on_c, 0, 49, 55
1, 42821, Note_on_c, 0, 68, 60
1, 42864, Control_c, 0, 64, 38
1, 42914, Note_off_c, 0, 67, 57
1, 42972, Note_off_c, 0, 60, 45
1, 42996, Note_off_c, 0, 51, 53
1, 43000, Note_off_c, 0, 65, 41
1, 43117, Control_c, 0, 64, 39
1, 43132, Control_c, 0, 64, 40
1, 43147, Control_c, 0, 64, 44
1, 43161, Control_c, 0, 64, 51
1, 43176, Control_c, 0, 64, 57
1, 43191, Control_c, 0, 64, 61
1, 43206, Control_c, 0, 64, 64
1, 43221, Control_c, 0, 64, 67
1, 43235, Control_c, 0, 64, 74
1, 43250, Control_c, 0, 64, 91
1, 43265, Control_c, 0, 64, 127
1, 43303, Note_off_c, 0, 68, 37
1, 43423, Note_on_c, 0, 60, 59
1, 43428, Note_on_c, 0, 48, 43
1, 43429, Note_on_c, 0, 68, 65
1, 43432, Note_on_c, 0, 65, 51
1, 43450, Control_c, 0, 64, 110
1, 43465, Control_c, 0, 64, 101
1, 43480, Control_c, 0, 64, 94
1, 43494, Control_c, 0, 64, 86
1, 43509, Control_c, 0, 64, 79
1, 43524, Control_c, 0, 64, 73
1, 43539, Control_c, 0, 64, 67
1, 43552, Note_off_c, 0, 49, 34
1, 43554, Control_c, 0, 64, 61
1, 43568, Control_c, 0, 64, 53
1, 43583, Control_c, 0, 64, 45
1, 43598, Control_c, 0, 64, 42
1, 43612, Control_c, 0, 64, 41
1, 43701, Control_c, 0, 64, 44
1, 43716, Control_c, 0, 64, 51
1, 43731, Control_c, 0, 64, 57
1, 43746, Control_c, 0, 64, 62
1, 43761, Control_c, 0, 64, 65
1, 43776, Control_c, 0, 64, 68
1, 43791, Control_c, 0, 64, 74
1, 43806, Control_c, 0, 64, 89
1, 43820, Control_c, 0, 64, 127
1, 43898, Note_off_c, 0, 65, 35
1, 43937, Note_off_c, 0, 68, 29
1, 43999, Control_c, 0, 64, 110
1, 44014, Control_c, 0, 64, 106
1, 44029, Control_c, 0, 64, 102
1, 44043, Control_c, 0, 64, 98
1, 44058, Control_c, 0, 64, 93
1, 44073, Control_c, 0, 64, 90
1, 44088, Control_c, 0, 64, 88
1, 44103, Control_c, 0, 64, 86
1, 44117, Note_on_c, 0, 68, 49
1, 44118, Note_on_c, 0, 65, 39
1, 44120, Note_on_c, 0, 46, 37
1, 44121, Note_on_c, 0, 61, 44
1, 44124, Control_c, 0, 64, 83
1, 44139, Control_c, 0, 64, 81
1, 44154, Control_c, 0, 64, 78
1, 44169, Control_c, 0, 64, 76
1, 44184, Control_c, 0, 64, 72
1, 44198, Control_c, 0, 64, 69
1, 44213, Control_c, 0, 64, 64
1, 44228, Control_c, 0, 64, 58
1, 44242, Control_c, 0, 64, 51
1, 44257, Control_c, 0, 64, 47
1, 44267, Note_off_c, 0, 48, 39
1, 44272, Control_c, 0, 64, 44
1, 44285, Note_off_c, 0, 60, 57
1, 44287, Control_c, 0, 64, 42
1, 44302, Control_c, 0, 64, 40
1, 44316, Control_c, 0, 64, 39
1, 44331, Control_c, 0, 64, 38
1, 44390, Control_c, 0, 64, 39
1, 44405, Control_c, 0, 64, 45
1, 44420, Control_c, 0, 64, 51
1, 44434, Control_c, 0, 64, 57
1, 44449, Control_c, 0, 64, 62
1, 44464, Control_c, 0, 64, 65
1, 44479, Control_c, 0, 64, 69
1, 44494, Control_c, 0, 64, 80
1, 44509, Control_c, 0, 64, 117
1, 44524, Note_off_c, 0, 61, 35
1, 44524, Control_c, 0, 64, 127
1, 44577, Note_off_c, 0, 46, 36
1, 44604, Note_off_c, 0, 65, 36
1, 44741, Note_on_c, 0, 67, 58
1, 44745, Note_on_c, 0, 58, 44
1, 44748, Note_on_c, 0, 61, 47
1, 44750, Note_on_c, 0, 46, 28
1, 44792, Control_c, 0, 64, 101
1, 44807, Control_c, 0, 64, 90
1, 44821, Control_c, 0, 64, 82
1, 44836, Control_c, 0, 64, 74
1, 44851, Control_c, 0, 64, 67
1, 44873, Control_c, 0, 64, 59
1, 44879, Note_off_c, 0, 68, 53
1, 44888, Control_c, 0, 64, 48
1, 44902, Control_c, 0, 64, 43
1, 45046, Note_on_c, 0, 68, 67
1, 45065, Control_c, 0, 64, 42
1, 45135, Note_off_c, 0, 67, 60
1, 45154, Control_c, 0, 64, 42
1, 45169, Control_c, 0, 64, 41
1, 45174, Note_off_c, 0, 46, 41
1, 45184, Control_c, 0, 64, 41
1, 45213, Control_c, 0, 64, 40
1, 45228, Control_c, 0, 64, 39
1, 45243, Control_c, 0, 64, 38
1, 45257, Control_c, 0, 64, 38
1, 45272, Control_c, 0, 64, 37
1, 45287, Control_c, 0, 64, 36
1, 45302, Control_c, 0, 64, 34
1, 45317, Control_c, 0, 64, 33
1, 45332, Control_c, 0, 64, 31
1, 45347, Control_c, 0, 64, 29
1, 45362, Control_c, 0, 64, 26
1, 45363, Note_on_c, 0, 70, 68
1, 45367, Note_on_c, 0, 46, 50
1, 45376, Control_c, 0, 64, 24
1, 45391, Control_c, 0, 64, 18
1, 45406, Control_c, 0, 64, 11
1, 45421, Control_c, 0, 64, 0
1, 45474, Note_off_c, 0, 68, 60
1, 45477, Poly_aftertouch_c, 0, 53, 127
1, 45552, Note_off_c, 0, 61, 58
1, 45557, Note_off_c, 0, 58, 37
1, 45690, Poly_aftertouch_c, 0, 53, 0
1, 45726, Control_c, 0, 64, 32
1, 45741, Control_c, 0, 64, 52
1, 45756, Control_c, 0, 64, 60
1, 45770, Control_c, 0, 64, 67
1, 45785, Control_c, 0, 64, 81
1, 45800, Control_c, 0, 64, 127
1, 45878, Note_off_c, 0, 46, 37
1, 45980, Note_on_c, 0, 67, 71
1, 45985, Note_on_c, 0, 61, 56
1, 45988, Note_on_c, 0, 58, 53
1, 45996, Note_on_c, 0, 46, 53
1, 46023, Control_c, 0, 64, 106
1, 46037, Control_c, 0, 64, 91
1, 46052, Control_c, 0, 64, 79
1, 46067, Control_c, 0, 64, 70
1, 46081, Control_c, 0, 64, 63
1, 46096, Control_c, 0, 64, 48
1, 46111, Control_c, 0, 64, 24
1, 46126, Control_c, 0, 64, 17
1, 46141, Control_c, 0, 64, 15
1, 46151, Note_off_c, 0, 70, 62
1, 46155, Control_c, 0, 64, 0
1, 46229, Control_c, 0, 64, 23
1, 46244, Control_c, 0, 64, 45
1, 46259, Control_c, 0, 64, 57
1, 46274, Control_c, 0, 64, 63
1, 46289, Control_c, 0, 64, 68
1, 46304, Control_c, 0, 64, 78
1, 46319, Control_c, 0, 64, 127
1, 46404, Note_off_c, 0, 46, 38
1, 46619, Note_on_c, 0, 64, 73
1, 46620, Note_on_c, 0, 46, 47
1, 46626, Note_on_c, 0, 55, 49
1, 46631, Note_on_c, 0, 60, 59
1, 46651, Control_c, 0, 64, 112
1, 46666, Control_c, 0, 64, 99
1, 46681, Control_c, 0, 64, 87
1, 46696, Control_c, 0, 64, 75
1, 46710, Control_c, 0, 64, 66
1, 46725, Control_c, 0, 64, 57
1, 46729, Note_off_c, 0, 61, 61
1, 46740, Control_c, 0, 64, 41
1, 46755, Control_c, 0, 64, 29
1, 46760, Note_off_c, 0, 58, 54
1, 46769, Note_off_c, 0, 67, 56
1, 46770, Control_c, 0, 64, 26
1, 46784, Control_c, 0, 64, 23
1, 46799, Control_c, 0, 64, 13
1, 46814, Control_c, 0, 64, 0
1, 46858, Control_c, 0, 64, 9
1, 46873, Control_c, 0, 64, 34
1, 46888, Control_c, 0, 64, 54
1, 46903, Control_c, 0, 64, 62
1, 46918, Control_c, 0, 64, 66
1, 46932, Control_c, 0, 64, 72
1, 46947, Control_c, 0, 64, 81
1, 46962, Control_c, 0, 64, 92
1, 46977, Control_c, 0, 64, 115
1, 46992, Control_c, 0, 64, 127
1, 47019, Note_off_c, 0, 60, 51
1, 47168, Poly_aftertouch_c, 0, 54, 127
1, 47178, Control_c, 0, 64, 119
1, 47193, Control_c, 0, 64, 105
1, 47207, Control_c, 0, 64, 98
1, 47222, Control_c, 0, 64, 93
1, 47229, Note_on_c, 0, 65, 67
1, 47232, Note_on_c, 0, 56, 48
1, 47234, Note_on_c, 0, 72, 84
1, 47237, Control_c, 0, 64, 88
1, 47240, Note_on_c, 0, 44, 50
1, 47252, Control_c, 0, 64, 83
1, 47266, Control_c, 0, 64, 77
1, 47281, Control_c, 0, 64, 72
1, 47296, Control_c, 0, 64, 69
1, 47300, Note_off_c, 0, 55, 8
1, 47311, Control_c, 0, 64, 66
1, 47326, Control_c, 0, 64, 64
1, 47341, Control_c, 0, 64, 61
1, 47356, Control_c, 0, 64, 57
1, 47371, Control_c, 0, 64, 53
1, 47386, Control_c, 0, 64, 48
1, 47388, Note_off_c, 0, 64, 59
1, 47400, Control_c, 0, 64, 40
1, 47415, Control_c, 0, 64, 26
1, 47430, Control_c, 0, 64, 0
1, 47436, Poly_aftertouch_c, 0, 54, 0
1, 47439, Note_off_c, 0, 46, 25
1, 47537, Note_on_c, 0, 64, 66
1, 47612, Note_off_c, 0, 65, 59
1, 47877, Note_on_c, 0, 65, 61
1, 47880, Note_on_c, 0, 49, 39
1, 47985, Note_off_c, 0, 44, 61
1, 48009, Note_off_c, 0, 64, 58
1, 48104, Control_c, 0, 64, 34
1, 48119, Control_c, 0, 64, 46
1, 48134, Control_c, 0, 64, 53
1, 48149, Control_c, 0, 64, 58
1, 48164, Control_c, 0, 64, 62
1, 48179, Control_c, 0, 64, 65
1, 48193, Control_c, 0, 64, 69
1, 48208, Control_c, 0, 64, 76
1, 48223, Control_c, 0, 64, 85
1, 48238, Control_c, 0, 64, 99
1, 48253, Control_c, 0, 64, 127
1, 48260, Note_off_c, 0, 65, 60
1, 48291, Note_off_c, 0, 49, 34
1, 48345, Note_off_c, 0, 56, 41
1, 48487, Note_on_c, 0, 65, 52
1, 48487, Note_on_c, 0, 70, 62
1, 48489, Control_c, 0, 64, 103
1, 48490, Note_on_c, 0, 55, 39
1, 48502, Note_on_c, 0, 49, 30
1, 48504, Control_c, 0, 64, 92
1, 48519, Control_c, 0, 64, 86
1, 48534, Control_c, 0, 64, 81
1, 48549, Control_c, 0, 64, 78
1, 48563, Control_c, 0, 64, 75
1, 48578, Control_c, 0, 64, 72
1, 48593, Control_c, 0, 64, 69
1, 48616, Control_c, 0, 64, 66
1, 48631, Control_c, 0, 64, 65
1, 48645, Control_c, 0, 64, 63
1, 48660, Control_c, 0, 64, 61
1, 48675, Control_c, 0, 64, 60
1, 48689, Control_c, 0, 64, 58
1, 48705, Control_c, 0, 64, 57
1, 48720, Control_c, 0, 64, 55
1, 48735, Control_c, 0, 64, 54
1, 48750, Control_c, 0, 64, 51
1, 48765, Control_c, 0, 64, 49
1, 48779, Control_c, 0, 64, 47
1, 48793, Note_on_c, 0, 53, 45
1, 48794, Control_c, 0, 64, 45
1, 48797, Note_on_c, 0, 68, 65
1, 48809, Control_c, 0, 64, 43
1, 48824, Control_c, 0, 64, 41
1, 48839, Control_c, 0, 64, 39
1, 48853, Control_c, 0, 64, 38
1, 48855, Note_off_c, 0, 72, 53
1, 48868, Control_c, 0, 64, 37
1, 48883, Control_c, 0, 64, 35
1, 48898, Control_c, 0, 64, 32
1, 48903, Note_off_c, 0, 70, 56
1, 48907, Note_off_c, 0, 55, 35
1, 48912, Control_c, 0, 64, 30
1, 48927, Note_off_c, 0, 49, 32
1, 48927, Control_c, 0, 64, 27
1, 48941, Note_off_c, 0, 65, 44
1, 48942, Control_c, 0, 64, 23
1, 48957, Control_c, 0, 64, 17
1, 48972, Control_c, 0, 64, 0
1, 49127, Note_on_c, 0, 70, 60
1, 49132, Note_on_c, 0, 49, 28
1, 49135, Note_on_c, 0, 55, 40
1, 49135, Note_on_c, 0, 65, 48
1, 49247, Note_off_c, 0, 53, 35
1, 49248, Note_off_c, 0, 68, 52
1, 49380, Control_c, 0, 64, 22
1, 49395, Control_c, 0, 64, 41
1, 49410, Control_c, 0, 64, 57
1, 49425, Control_c, 0, 64, 65
1, 49439, Control_c, 0, 64, 75
1, 49442, Note_off_c, 0, 70, 59
1, 49454, Control_c, 0, 64, 127
1, 49492, Note_off_c, 0, 55, 35
1, 49752, Note_on_c, 0, 70, 80
1, 49757, Note_on_c, 0, 55, 41
1, 49763, Note_on_c, 0, 64, 53
1, 49765, Note_on_c, 0, 48, 39
1, 49796, Control_c, 0, 64, 99
1, 49810, Control_c, 0, 64, 86
1, 49811, Note_off_c, 0, 65, 55
1, 49825, Control_c, 0, 64, 79
1, 49840, Control_c, 0, 64, 74
1, 49854, Control_c, 0, 64, 69
1, 49869, Control_c, 0, 64, 64
1, 49884, Control_c, 0, 64, 59
1, 49899, Control_c, 0, 64, 54
1, 49914, Control_c, 0, 64, 52
1, 49928, Control_c, 0, 64, 50
1, 49943, Control_c, 0, 64, 47
1, 49958, Control_c, 0, 64, 40
1, 49973, Control_c, 0, 64, 33
1, 49988, Control_c, 0, 64, 26
1, 50003, Control_c, 0, 64, 21
1, 50018, Control_c, 0, 64, 15
1, 50033, Control_c, 0, 64, 0
1, 50047, Note_on_c, 0, 46, 45
1, 50048, Note_on_c, 0, 62, 64
1, 50134, Note_off_c, 0, 64, 55
1, 50173, Note_off_c, 0, 48, 38
1, 50241, Note_off_c, 0, 55, 36
1, 50294, Note_off_c, 0, 49, 4
1, 50402, Note_on_c, 0, 55, 38
1, 50405, Note_on_c, 0, 64, 53
1, 50413, Note_on_c, 0, 48, 41
1, 50474, Note_off_c, 0, 46, 50
1, 50492, Note_off_c, 0, 62, 59
1, 50632, Control_c, 0, 64, 19
1, 50647, Control_c, 0, 64, 32
1, 50662, Control_c, 0, 64, 45
1, 50677, Control_c, 0, 64, 53
1, 50691, Control_c, 0, 64, 60
1, 50706, Control_c, 0, 64, 66
1, 50721, Control_c, 0, 64, 72
1, 50736, Control_c, 0, 64, 85
1, 50751, Control_c, 0, 64, 108
1, 50766, Control_c, 0, 64, 127
1, 50802, Note_off_c, 0, 48, 36
1, 50817, Note_off_c, 0, 64, 37
1, 50902, Note_off_c, 0, 55, 32
1, 51002, Note_on_c, 0, 68, 58
1, 51004, Note_on_c, 0, 64, 39
1, 51009, Note_on_c, 0, 48, 39
1, 51010, Control_c, 0, 64, 100
1, 51019, Note_on_c, 0, 60, 39
1, 51025, Control_c, 0, 64, 87
1, 51040, Control_c, 0, 64, 81
1, 51055, Control_c, 0, 64, 78
1, 51070, Control_c, 0, 64, 74
1, 51084, Control_c, 0, 64, 70
1, 51100, Control_c, 0, 64, 66
1, 51115, Control_c, 0, 64, 64
1, 51130, Control_c, 0, 64, 62
1, 51145, Control_c, 0, 64, 62
1, 51159, Control_c, 0, 64, 60
1, 51174, Control_c, 0, 64, 58
1, 51189, Control_c, 0, 64, 56
1, 51204, Control_c, 0, 64, 54
1, 51219, Control_c, 0, 64, 53
1, 51234, Control_c, 0, 64, 51
1, 51249, Control_c, 0, 64, 50
1, 51263, Control_c, 0, 64, 49
1, 51278, Control_c, 0, 64, 48
1, 51298, Note_on_c, 0, 67, 60
1, 51364, Note_off_c, 0, 68, 52
1, 51385, Note_off_c, 0, 64, 56
1, 51422, Note_off_c, 0, 60, 47
1, 51441, Control_c, 0, 64, 48
1, 51455, Control_c, 0, 64, 47
1, 51456, Note_off_c, 0, 48, 36
1, 51470, Control_c, 0, 64, 47
1, 51485, Control_c, 0, 64, 46
1, 51499, Control_c, 0, 64, 45
1, 51529, Control_c, 0, 64, 45
1, 51544, Control_c, 0, 64, 44
1, 51559, Control_c, 0, 64, 44
1, 51574, Control_c, 0, 64, 43
1, 51589, Control_c, 0, 64, 43
1, 51628, Note_on_c, 0, 68, 52
1, 51631, Note_on_c, 0, 64, 45
1, 51633, Note_on_c, 0, 60, 39
1, 51647, Note_on_c, 0, 48, 35
1, 51729, Note_off_c, 0, 67, 54
1, 51762, Note_off_c, 0, 70, 28
1, 51833, Control_c, 0, 64, 43
1, 51848, Control_c, 0, 64, 46
1, 51863, Control_c, 0, 64, 50
1, 51878, Control_c, 0, 64, 56
1, 51893, Control_c, 0, 64, 61
1, 51908, Control_c, 0, 64, 65
1, 51913, Note_off_c, 0, 68, 62
1, 51923, Control_c, 0, 64, 71
1, 51937, Control_c, 0, 64, 80
1, 51952, Control_c, 0, 64, 93
1, 51967, Note_off_c, 0, 64, 35
1, 51967, Control_c, 0, 64, 123
1, 51982, Control_c, 0, 64, 127
1, 51998, Note_off_c, 0, 48, 34
1, 52037, Note_off_c, 0, 60, 36
1, 52264, Control_c, 0, 64, 116
1, 52278, Control_c, 0, 64, 107
1, 52292, Note_on_c, 0, 68, 53
1, 52293, Control_c, 0, 64, 100
1, 52301, Note_on_c, 0, 41, 31
1, 52307, Note_on_c, 0, 65, 37
1, 52308, Control_c, 0, 64, 94
1, 52310, Note_on_c, 0, 60, 33
1, 52322, Control_c, 0, 64, 90
1, 52337, Control_c, 0, 64, 87
1, 52360, Control_c, 0, 64, 85
1, 52375, Control_c, 0, 64, 81
1, 52390, Control_c, 0, 64, 77
1, 52404, Control_c, 0, 64, 73
1, 52419, Control_c, 0, 64, 71
1, 52434, Control_c, 0, 64, 69
1, 52449, Control_c, 0, 64, 67
1, 52464, Control_c, 0, 64, 65
1, 52478, Control_c, 0, 64, 63
1, 52493, Control_c, 0, 64, 62
1, 52508, Control_c, 0, 64, 61
1, 52523, Control_c, 0, 64, 60
1, 52537, Control_c, 0, 64, 59
1, 52552, Control_c, 0, 64, 57
1, 52567, Control_c, 0, 64, 56
1, 52582, Control_c, 0, 64, 55
1, 52596, Control_c, 0, 64, 55
1, 52600, Note_on_c, 0, 63, 59
1, 52611, Control_c, 0, 64, 54
1, 52626, Control_c, 0, 64, 53
1, 52641, Control_c, 0, 64, 52
1, 52656, Control_c, 0, 64, 52
1, 52671, Control_c, 0, 64, 51
1, 52686, Control_c, 0, 64, 51
1, 52701, Control_c, 0, 64, 50
1, 52716, Control_c, 0, 64, 50
1, 52731, Control_c, 0, 64, 49
1, 52745, Control_c, 0, 64, 49
1, 52760, Control_c, 0, 64, 48
1, 52775, Control_c, 0, 64, 48
1, 52805, Control_c, 0, 64, 47
1, 52835, Control_c, 0, 64, 47
1, 52879, Control_c, 0, 64, 46
1, 52924, Control_c, 0, 64, 46
1, 52998, Control_c, 0, 64, 45
1, 53033, Note_on_c, 0, 61, 53
1, 53037, Note_on_c, 0, 46, 28
1, 53233, Note_off_c, 0, 41, 43
1, 53245, Note_off_c, 0, 63, 56
1, 53249, Note_off_c, 0, 65, 41
1, 53302, Control_c, 0, 64, 47
1, 53317, Control_c, 0, 64, 48
1, 53332, Control_c, 0, 64, 49
1, 53347, Control_c, 0, 64, 50
1, 53361, Control_c, 0, 64, 53
1, 53376, Control_c, 0, 64, 57
1, 53391, Control_c, 0, 64, 61
1, 53406, Control_c, 0, 64, 64
1, 53420, Control_c, 0, 64, 67
1, 53435, Control_c, 0, 64, 71
1, 53450, Note_off_c, 0, 46, 39
1, 53450, Control_c, 0, 64, 77
1, 53465, Control_c, 0, 64, 83
1, 53478, Note_off_c, 0, 60, 41
1, 53479, Control_c, 0, 64, 92
1, 53496, Control_c, 0, 64, 105
1, 53511, Note_off_c, 0, 61, 49
1, 53511, Control_c, 0, 64, 127
1, 53723, Note_on_c, 0, 66, 56
1, 53728, Note_on_c, 0, 61, 40
1, 53741, Note_on_c, 0, 46, 26
1, 53741, Note_on_c, 0, 58, 32
1, 53747, Control_c, 0, 64, 111
1, 53762, Control_c, 0, 64, 102
1, 53777, Control_c, 0, 64, 92
1, 53792, Control_c, 0, 64, 82
1, 53806, Control_c, 0, 64, 74
1, 53821, Control_c, 0, 64, 67
1, 53836, Control_c, 0, 64, 63
1, 53858, Control_c, 0, 64, 61
1, 53873, Control_c, 0, 64, 60
1, 53902, Control_c, 0, 64, 60
1, 53917, Control_c, 0, 64, 63
1, 53932, Control_c, 0, 64, 66
1, 53947, Control_c, 0, 64, 72
1, 53962, Control_c, 0, 64, 85
1, 53976, Control_c, 0, 64, 104
1, 53991, Control_c, 0, 64, 127
1, 53993, Note_off_c, 0, 58, 46
1, 54035, Note_on_c, 0, 57, 49
1, 54035, Note_on_c, 0, 65, 66
1, 54066, Control_c, 0, 64, 94
1, 54081, Control_c, 0, 64, 77
1, 54096, Control_c, 0, 64, 67
1, 54110, Control_c, 0, 64, 62
1, 54125, Control_c, 0, 64, 61
1, 54126, Note_off_c, 0, 68, 35
1, 54136, Note_off_c, 0, 66, 59
1, 54140, Control_c, 0, 64, 61
1, 54155, Control_c, 0, 64, 63
1, 54170, Control_c, 0, 64, 68
1, 54176, Note_off_c, 0, 61, 51
1, 54184, Control_c, 0, 64, 77
1, 54199, Control_c, 0, 64, 98
1, 54212, Note_off_c, 0, 57, 61
1, 54214, Control_c, 0, 64, 127
1, 54272, Note_off_c, 0, 46, 40
1, 54370, Note_on_c, 0, 66, 68
1, 54378, Control_c, 0, 64, 105
1, 54382, Note_on_c, 0, 58, 47
1, 54385, Note_on_c, 0, 61, 51
1, 54387, Note_on_c, 0, 46, 46
1, 54392, Control_c, 0, 64, 88
1, 54407, Control_c, 0, 64, 78
1, 54422, Control_c, 0, 64, 71
1, 54437, Control_c, 0, 64, 67
1, 54452, Control_c, 0, 64, 64
1, 54466, Control_c, 0, 64, 60
1, 54481, Control_c, 0, 64, 55
1, 54496, Control_c, 0, 64, 51
1, 54505, Note_off_c, 0, 65, 60
1, 54511, Control_c, 0, 64, 47
1, 54525, Control_c, 0, 64, 43
1, 54540, Control_c, 0, 64, 39
1, 54555, Control_c, 0, 64, 36
1, 54570, Control_c, 0, 64, 35
1, 54622, Control_c, 0, 64, 39
1, 54636, Control_c, 0, 64, 46
1, 54651, Control_c, 0, 64, 53
1, 54666, Control_c, 0, 64, 60
1, 54680, Control_c, 0, 64, 65
1, 54695, Control_c, 0, 64, 73
1, 54710, Control_c, 0, 64, 106
1, 54725, Control_c, 0, 64, 127
1, 54813, Note_off_c, 0, 46, 51
1, 54971, Note_on_c, 0, 54, 58
1, 54972, Note_on_c, 0, 73, 77
1, 54975, Note_on_c, 0, 70, 61
1, 54981, Note_on_c, 0, 46, 46
1, 55006, Control_c, 0, 64, 95
1, 55021, Control_c, 0, 64, 81
1, 55036, Control_c, 0, 64, 71
1, 55050, Control_c, 0, 64, 65
1, 55058, Note_off_c, 0, 66, 60
1, 55065, Control_c, 0, 64, 60
1, 55080, Control_c, 0, 64, 56
1, 55096, Control_c, 0, 64, 56
1, 55126, Control_c, 0, 64, 59
1, 55140, Control_c, 0, 64, 64
1, 55155, Control_c, 0, 64, 69
1, 55170, Control_c, 0, 64, 77
1, 55185, Control_c, 0, 64, 79
1, 55200, Control_c, 0, 64, 78
1, 55214, Control_c, 0, 64, 76
1, 55229, Control_c, 0, 64, 75
1, 55244, Control_c, 0, 64, 74
1, 55246, Note_off_c, 0, 58, 32
1, 55259, Control_c, 0, 64, 73
1, 55262, Note_on_c, 0, 53, 64
1, 55273, Note_on_c, 0, 69, 76
1, 55274, Control_c, 0, 64, 71
1, 55288, Control_c, 0, 64, 69
1, 55303, Control_c, 0, 64, 66
1, 55318, Control_c, 0, 64, 66
1, 55324, Note_off_c, 0, 70, 60
1, 55333, Control_c, 0, 64, 65
1, 55355, Control_c, 0, 64, 64
1, 55370, Control_c, 0, 64, 60
1, 55385, Control_c, 0, 64, 58
1, 55400, Control_c, 0, 64, 56
1, 55407, Note_off_c, 0, 54, 35
1, 55415, Control_c, 0, 64, 55
1, 55429, Control_c, 0, 64, 53
1, 55444, Control_c, 0, 64, 50
1, 55459, Note_off_c, 0, 46, 36
1, 55459, Control_c, 0, 64, 45
1, 55474, Control_c, 0, 64, 40
1, 55489, Control_c, 0, 64, 37
1, 55503, Control_c, 0, 64, 34
1, 55518, Control_c, 0, 64, 30
1, 55533, Control_c, 0, 64, 25
1, 55547, Control_c, 0, 64, 17
1, 55562, Control_c, 0, 64, 11
1, 55577, Control_c, 0, 64, 0
1, 55612, Note_on_c, 0, 54, 70
1, 55627, Note_on_c, 0, 70, 62
1, 55638, Note_on_c, 0, 46, 38
1, 55673, Note_off_c, 0, 61, 35
1, 55721, Note_off_c, 0, 69, 60
1, 55811, Note_off_c, 0, 53, 54
1, 56110, Note_off_c, 0, 46, 57
1, 56238, Note_on_c, 0, 46, 46
1, 56249, Note_on_c, 0, 72, 72
1, 56346, Note_off_c, 0, 70, 51
1, 56540, Note_on_c, 0, 70, 82
1, 56631, Note_off_c, 0, 72, 56
1, 56667, Control_c, 0, 64, 24
1, 56682, Control_c, 0, 64, 43
1, 56698, Control_c, 0, 64, 52
1, 56713, Control_c, 0, 64, 57
1, 56716, Note_off_c, 0, 46, 36
1, 56728, Control_c, 0, 64, 61
1, 56742, Control_c, 0, 64, 65
1, 56757, Control_c, 0, 64, 69
1, 56772, Control_c, 0, 64, 73
1, 56787, Control_c, 0, 64, 79
1, 56801, Control_c, 0, 64, 85
1, 56816, Control_c, 0, 64, 92
1, 56831, Control_c, 0, 64, 98
1, 56868, Control_c, 0, 64, 94
1, 56880, Note_on_c, 0, 76, 81
1, 56882, Note_on_c, 0, 55, 48
1, 56883, Control_c, 0, 64, 90
1, 56884, Note_on_c, 0, 72, 66
1, 56893, Note_on_c, 0, 46, 45
1, 56898, Control_c, 0, 64, 85
1, 56913, Control_c, 0, 64, 80
1, 56927, Control_c, 0, 64, 73
1, 56942, Control_c, 0, 64, 68
1, 56957, Control_c, 0, 64, 63
1, 56971, Note_off_c, 0, 73, 58
1, 56972, Control_c, 0, 64, 61
1, 56987, Control_c, 0, 64, 58
1, 57001, Control_c, 0, 64, 52
1, 57003, Note_off_c, 0, 54, 62
1, 57016, Control_c, 0, 64, 30
1, 57018, Note_off_c, 0, 70, 59
1, 57031, Control_c, 0, 64, 0
1, 57149, Control_c, 0, 64, 46
1, 57163, Poly_aftertouch_c, 0, 74, 127
1, 57164, Control_c, 0, 64, 60
1, 57179, Control_c, 0, 64, 66
1, 57193, Control_c, 0, 64, 73
1, 57208, Control_c, 0, 64, 90
1, 57223, Control_c, 0, 64, 127
1, 57273, Note_off_c, 0, 55, 57
1, 57276, Poly_aftertouch_c, 0, 74, 0
1, 57277, Note_off_c, 0, 72, 61
1, 57491, Control_c, 0, 64, 95
1, 57497, Note_on_c, 0, 44, 50
1, 57499, Note_on_c, 0, 56, 49
1, 57506, Control_c, 0, 64, 76
1, 57507, Note_on_c, 0, 72, 83
1, 57514, Note_on_c, 0, 65, 63
1, 57521, Control_c, 0, 64, 65
1, 57536, Control_c, 0, 64, 57
1, 57550, Control_c, 0, 64, 48
1, 57565, Control_c, 0, 64, 47
1, 57565, Note_off_c, 0, 46, 51
1, 57580, Note_off_c, 0, 76, 57
1, 57602, Control_c, 0, 64, 52
1, 57616, Control_c, 0, 64, 59
1, 57631, Control_c, 0, 64, 66
1, 57646, Control_c, 0, 64, 72
1, 57661, Control_c, 0, 64, 83
1, 57670, Note_off_c, 0, 65, 56
1, 57676, Control_c, 0, 64, 97
1, 57691, Control_c, 0, 64, 116
1, 57705, Control_c, 0, 64, 127
1, 57746, Note_off_c, 0, 56, 63
1, 57779, Control_c, 0, 64, 108
1, 57793, Note_on_c, 0, 55, 67
1, 57794, Control_c, 0, 64, 92
1, 57799, Note_on_c, 0, 67, 82
1, 57809, Control_c, 0, 64, 79
1, 57823, Control_c, 0, 64, 67
1, 57838, Control_c, 0, 64, 54
1, 57853, Control_c, 0, 64, 0
1, 58137, Note_on_c, 0, 77, 88
1, 58141, Note_on_c, 0, 49, 40
1, 58141, Note_on_c, 0, 53, 48
1, 58150, Note_on_c, 0, 68, 61
1, 58245, Note_off_c, 0, 67, 52
1, 58278, Note_off_c, 0, 55, 55
1, 58287, Note_off_c, 0, 72, 57
1, 58314, Note_off_c, 0, 44, 58
1, 58454, Control_c, 0, 64, 37
1, 58469, Control_c, 0, 64, 51
1, 58483, Control_c, 0, 64, 60
1, 58498, Control_c, 0, 64, 68
1, 58511, Note_off_c, 0, 68, 58
1, 58513, Control_c, 0, 64, 84
1, 58528, Control_c, 0, 64, 127
1, 58761, Note_on_c, 0, 72, 82
1, 58764, Note_on_c, 0, 68, 77
1, 58764, Note_on_c, 0, 48, 59
1, 58779, Control_c, 0, 64, 107
1, 58794, Control_c, 0, 64, 97
1, 58809, Control_c, 0, 64, 89
1, 58824, Control_c, 0, 64, 82
1, 58838, Control_c, 0, 64, 76
1, 58853, Control_c, 0, 64, 70
1, 58856, Note_off_c, 0, 49, 37
1, 58868, Control_c, 0, 64, 65
1, 58883, Control_c, 0, 64, 60
1, 58898, Control_c, 0, 64, 53
1, 58913, Control_c, 0, 64, 49
1, 58928, Control_c, 0, 64, 45
1, 58943, Control_c, 0, 64, 42
1, 58957, Control_c, 0, 64, 37
1, 58972, Control_c, 0, 64, 31
1, 58987, Control_c, 0, 64, 24
1, 59002, Control_c, 0, 64, 18
1, 59017, Control_c, 0, 64, 15
1, 59032, Control_c, 0, 64, 11
1, 59046, Control_c, 0, 64, 0
1, 59289, Note_off_c, 0, 68, 57
1, 59389, Note_on_c, 0, 73, 78
1, 59392, Note_on_c, 0, 46, 61
1, 59397, Note_on_c, 0, 68, 71
1, 59468, Note_off_c, 0, 48, 58
1, 59475, Note_off_c, 0, 72, 55
1, 59632, Control_c, 0, 64, 23
1, 59647, Control_c, 0, 64, 37
1, 59661, Control_c, 0, 64, 47
1, 59676, Control_c, 0, 64, 54
1, 59691, Control_c, 0, 64, 60
1, 59706, Control_c, 0, 64, 65
1, 59721, Control_c, 0, 64, 73
1, 59735, Control_c, 0, 64, 104
1, 59750, Control_c, 0, 64, 127
1, 60042, Note_on_c, 0, 52, 68
1, 60043, Note_on_c, 0, 49, 64
1, 60047, Note_on_c, 0, 67, 65
1, 60050, Note_on_c, 0, 70, 80
1, 60103, Note_off_c, 0, 53, 62
1, 60114, Control_c, 0, 64, 101
1, 60129, Control_c, 0, 64, 91
1, 60144, Control_c, 0, 64, 83
1, 60159, Control_c, 0, 64, 77
1, 60174, Control_c, 0, 64, 71
1, 60189, Control_c, 0, 64, 65
1, 60203, Control_c, 0, 64, 56
1, 60204, Note_off_c, 0, 68, 56
1, 60218, Control_c, 0, 64, 45
1, 60224, Note_off_c, 0, 46, 62
1, 60233, Control_c, 0, 64, 35
1, 60248, Control_c, 0, 64, 30
1, 60263, Control_c, 0, 64, 26
1, 60278, Control_c, 0, 64, 21
1, 60292, Control_c, 0, 64, 0
1, 60335, Note_off_c, 0, 77, 44
1, 60338, Note_on_c, 0, 68, 84
1, 60341, Note_on_c, 0, 53, 79
1, 60421, Note_off_c, 0, 52, 59
1, 60432, Note_off_c, 0, 67, 59
1, 60439, Note_off_c, 0, 70, 57
1, 60681, Note_on_c, 0, 70, 70
1, 60686, Note_on_c, 0, 76, 84
1, 60695, Note_on_c, 0, 55, 62
1, 60701, Note_on_c, 0, 48, 58
1, 60803, Note_off_c, 0, 68, 52
1, 60816, Note_off_c, 0, 49, 49
1, 60820, Note_off_c, 0, 53, 61
1, 60859, Note_off_c, 0, 73, 58
1, 61175, Note_off_c, 0, 55, 38
1, 61207, Note_off_c, 0, 48, 37
1, 61213, Note_off_c, 0, 70, 56
1, 61340, Note_on_c, 0, 48, 63
1, 61345, Note_on_c, 0, 72, 86
1, 61345, Note_on_c, 0, 55, 59
1, 61346, Note_on_c, 0, 70, 70
1, 61762, Note_off_c, 0, 55, 38
1, 61783, Note_off_c, 0, 72, 53
1, 61788, Note_off_c, 0, 70, 42
1, 61810, Note_off_c, 0, 48, 35
1, 62139, Note_on_c, 0, 70, 53
1, 62147, Note_on_c, 0, 77, 73
1, 62150, Note_on_c, 0, 72, 57
1, 62150, Note_on_c, 0, 41, 38
1, 62152, Note_on_c, 0, 53, 39
1, 62332, Note_off_c, 0, 76, 56
1, 62391, Control_c, 0, 64, 21
1, 62406, Control_c, 0, 64, 29
1, 62420, Control_c, 0, 64, 34
1, 62435, Control_c, 0, 64, 41
1, 62450, Control_c, 0, 64, 46
1, 62465, Control_c, 0, 64, 50
1, 62480, Control_c, 0, 64, 54
1, 62494, Control_c, 0, 64, 57
1, 62509, Control_c, 0, 64, 60
1, 62524, Control_c, 0, 64, 62
1, 62539, Control_c, 0, 64, 65
1, 62554, Control_c, 0, 64, 68
1, 62568, Control_c, 0, 64, 74
1, 62580, Note_off_c, 0, 72, 63
1, 62583, Control_c, 0, 64, 83
1, 62598, Control_c, 0, 64, 93
1, 62612, Control_c, 0, 64, 102
1, 62627, Control_c, 0, 64, 110
1, 62642, Control_c, 0, 64, 113
1, 62731, Control_c, 0, 64, 111
1, 62746, Control_c, 0, 64, 108
1, 62761, Control_c, 0, 64, 107
1, 62791, Control_c, 0, 64, 106
1, 62805, Control_c, 0, 64, 105
1, 62820, Control_c, 0, 64, 102
1, 62842, Control_c, 0, 64, 100
1, 62857, Control_c, 0, 64, 97
1, 62865, Note_on_c, 0, 72, 57
1, 62871, Note_on_c, 0, 68, 51
1, 62872, Control_c, 0, 64, 94
1, 62886, Control_c, 0, 64, 92
1, 62901, Control_c, 0, 64, 89
1, 62916, Control_c, 0, 64, 86
1, 62931, Control_c, 0, 64, 85
1, 62946, Control_c, 0, 64, 83
1, 62961, Control_c, 0, 64, 81
1, 62967, Note_off_c, 0, 70, 61
1, 62976, Control_c, 0, 64, 79
1, 62991, Control_c, 0, 64, 78
1, 63005, Control_c, 0, 64, 77
1, 63020, Control_c, 0, 64, 76
1, 63035, Control_c, 0, 64, 74
1, 63050, Control_c, 0, 64, 72
1, 63065, Control_c, 0, 64, 71
1, 63080, Control_c, 0, 64, 70
1, 63095, Control_c, 0, 64, 69
1, 63110, Control_c, 0, 64, 67
1, 63125, Control_c, 0, 64, 65
1, 63140, Control_c, 0, 64, 64
1, 63155, Control_c, 0, 64, 64
1, 63169, Control_c, 0, 64, 63
1, 63175, Note_on_c, 0, 70, 54
1, 63181, Note_on_c, 0, 67, 43
1, 63184, Control_c, 0, 64, 62
1, 63199, Control_c, 0, 64, 61
1, 63214, Control_c, 0, 64, 60
1, 63229, Control_c, 0, 64, 60
1, 63243, Control_c, 0, 64, 59
1, 63258, Control_c, 0, 64, 59
1, 63270, Note_off_c, 0, 68, 36
1, 63273, Control_c, 0, 64, 57
1, 63288, Control_c, 0, 64, 57
1, 63290, Note_off_c, 0, 72, 34
1, 63317, Control_c, 0, 64, 56
1, 63332, Control_c, 0, 64, 55
1, 63347, Control_c, 0, 64, 55
1, 63361, Control_c, 0, 64, 54
1, 63391, Control_c, 0, 64, 54
1, 63406, Control_c, 0, 64, 53
1, 63421, Control_c, 0, 64, 53
1, 63435, Control_c, 0, 64, 52
1, 63468, Note_off_c, 0, 77, 25
1, 63480, Control_c, 0, 64, 52
1, 63495, Control_c, 0, 64, 51
1, 63509, Control_c, 0, 64, 51
1, 63541, Note_on_c, 0, 72, 48
1, 63554, Control_c, 0, 64, 50
1, 63558, Note_on_c, 0, 68, 22
1, 63569, Control_c, 0, 64, 50
1, 63591, Control_c, 0, 64, 49
1, 63635, Control_c, 0, 64, 49
1, 63650, Control_c, 0, 64, 48
1, 63655, Note_off_c, 0, 70, 33
1, 63665, Control_c, 0, 64, 48
1, 63695, Control_c, 0, 64, 47
1, 63709, Control_c, 0, 64, 47
1, 63724, Control_c, 0, 64, 46
1, 63725, Note_off_c, 0, 67, 36
1, 63739, Control_c, 0, 64, 46
1, 63753, Note_off_c, 0, 53, 38
1, 63754, Control_c, 0, 64, 45
1, 63769, Control_c, 0, 64, 44
1, 63771, Note_off_c, 0, 41, 37
1, 63784, Control_c, 0, 64, 44
1, 63798, Control_c, 0, 64, 43
1, 63813, Control_c, 0, 64, 42
1, 63828, Control_c, 0, 64, 41
1, 63843, Control_c, 0, 64, 41
1, 63858, Control_c, 0, 64, 40
1, 63873, Control_c, 0, 64, 40
1, 63888, Control_c, 0, 64, 39
1, 63903, Control_c, 0, 64, 39
1, 63933, Control_c, 0, 64, 38
1, 63962, Control_c, 0, 64, 38
1, 64022, Control_c, 0, 64, 37
1, 64222, Note_on_c, 0, 77, 45
1, 64227, Note_on_c, 0, 53, 36
1, 64299, Note_off_c, 0, 53, 57
1, 64543, Note_on_c, 0, 75, 54
1, 64563, Note_off_c, 0, 77, 46
1, 64940, Note_on_c, 0, 58, 37
1, 64943, Note_on_c, 0, 74, 48
1, 65050, Note_off_c, 0, 75, 32
1, 65051, Note_off_c, 0, 72, 35
1, 65146, Note_off_c, 0, 68, 38
1, 65385, Control_c, 0, 64, 38
1, 65459, Control_c, 0, 64, 38
1, 65603, Note_on_c, 0, 71, 48
1, 65618, Note_on_c, 0, 68, 27
1, 65906, Note_on_c, 0, 70, 55
1, 65908, Note_on_c, 0, 66, 43
1, 65966, Note_off_c, 0, 68, 40
1, 66041, Note_off_c, 0, 71, 50
1, 66252, Control_c, 0, 64, 39
1, 66270, Note_on_c, 0, 65, 35
1, 66276, Note_on_c, 0, 68, 43
1, 66420, Note_off_c, 0, 66, 29
1, 66460, Note_off_c, 0, 70, 31
1, 66467, Note_off_c, 0, 58, 43
1, 66487, Note_off_c, 0, 74, 49
1, 66922, Note_on_c, 0, 75, 53
1, 66934, Note_on_c, 0, 58, 32
1, 67000, Note_off_c, 0, 58, 55
1, 67230, Note_on_c, 0, 77, 55
1, 67334, Note_off_c, 0, 75, 52
1, 67616, Note_on_c, 0, 51, 37
1, 67623, Note_on_c, 0, 78, 50
1, 67778, Note_off_c, 0, 77, 35
1, 67805, Note_off_c, 0, 68, 35
1, 67847, Note_off_c, 0, 65, 38
1, 67899, Control_c, 0, 64, 39
1, 67914, Control_c, 0, 64, 41
1, 67929, Control_c, 0, 64, 44
1, 67944, Control_c, 0, 64, 47
1, 67959, Control_c, 0, 64, 51
1, 67973, Control_c, 0, 64, 55
1, 67988, Control_c, 0, 64, 58
1, 68003, Control_c, 0, 64, 60
1, 68018, Control_c, 0, 64, 63
1, 68032, Control_c, 0, 64, 65
1, 68047, Control_c, 0, 64, 67
1, 68062, Control_c, 0, 64, 71
1, 68085, Control_c, 0, 64, 78
1, 68100, Control_c, 0, 64, 88
1, 68114, Control_c, 0, 64, 99
1, 68127, Control_c, 0, 64, 104
1, 68142, Control_c, 0, 64, 105
1, 68172, Control_c, 0, 64, 103
1, 68186, Control_c, 0, 64, 102
1, 68201, Control_c, 0, 64, 101
1, 68216, Control_c, 0, 64, 100
1, 68231, Control_c, 0, 64, 99
1, 68246, Control_c, 0, 64, 97
1, 68255, Note_on_c, 0, 66, 47
1, 68261, Control_c, 0, 64, 94
1, 68276, Control_c, 0, 64, 92
1, 68282, Note_on_c, 0, 63, 34
1, 68291, Control_c, 0, 64, 90
1, 68305, Control_c, 0, 64, 88
1, 68320, Control_c, 0, 64, 86
1, 68335, Control_c, 0, 64, 84
1, 68350, Control_c, 0, 64, 81
1, 68365, Control_c, 0, 64, 80
1, 68379, Control_c, 0, 64, 79
1, 68394, Control_c, 0, 64, 78
1, 68409, Control_c, 0, 64, 77
1, 68423, Control_c, 0, 64, 75
1, 68438, Control_c, 0, 64, 74
1, 68453, Control_c, 0, 64, 73
1, 68468, Control_c, 0, 64, 72
1, 68470, Poly_aftertouch_c, 0, 52, 127
1, 68483, Control_c, 0, 64, 71
1, 68497, Poly_aftertouch_c, 0, 53, 127
1, 68497, Control_c, 0, 64, 70
1, 68512, Control_c, 0, 64, 69
1, 68527, Control_c, 0, 64, 68
1, 68542, Control_c, 0, 64, 67
1, 68557, Control_c, 0, 64, 66
1, 68561, Note_on_c, 0, 68, 61
1, 68562, Note_on_c, 0, 65, 44
1, 68571, Control_c, 0, 64, 64
1, 68586, Control_c, 0, 64, 63
1, 68601, Control_c, 0, 64, 63
1, 68616, Control_c, 0, 64, 62
1, 68630, Control_c, 0, 64, 62
1, 68645, Control_c, 0, 64, 60
1, 68660, Control_c, 0, 64, 59
1, 68676, Control_c, 0, 64, 58
1, 68683, Note_off_c, 0, 66, 46
1, 68706, Control_c, 0, 64, 58
1, 68720, Control_c, 0, 64, 57
1, 68735, Control_c, 0, 64, 55
1, 68750, Control_c, 0, 64, 54
1, 68752, Note_off_c, 0, 63, 38
1, 68780, Control_c, 0, 64, 54
1, 68794, Control_c, 0, 64, 53
1, 68809, Control_c, 0, 64, 53
1, 68832, Control_c, 0, 64, 52
1, 68847, Control_c, 0, 64, 51
1, 68877, Control_c, 0, 64, 51
1, 68892, Control_c, 0, 64, 50
1, 68907, Control_c, 0, 64, 50
1, 68936, Control_c, 0, 64, 49
1, 68944, Note_on_c, 0, 70, 50
1, 68950, Note_on_c, 0, 66, 44
1, 68966, Control_c, 0, 64, 49
1, 68981, Control_c, 0, 64, 48
1, 69010, Control_c, 0, 64, 48
1, 69069, Control_c, 0, 64, 47
1, 69081, Note_off_c, 0, 51, 33
1, 69084, Control_c, 0, 64, 47
1, 69104, Poly_aftertouch_c, 0, 53, 0
1, 69119, Poly_aftertouch_c, 0, 52, 0
1, 69126, Note_off_c, 0, 65, 35
1, 69128, Control_c, 0, 64, 46
1, 69131, Note_off_c, 0, 68, 33
1, 69142, Note_off_c, 0, 78, 44
1, 69143, Control_c, 0, 64, 46
1, 69173, Control_c, 0, 64, 45
1, 69203, Control_c, 0, 64, 45
1, 69233, Control_c, 0, 64, 44
1, 69262, Control_c, 0, 64, 44
1, 69292, Control_c, 0, 64, 43
1, 69321, Control_c, 0, 64, 43
1, 69351, Control_c, 0, 64, 42
1, 69380, Control_c, 0, 64, 42
1, 69454, Control_c, 0, 64, 41
1, 69530, Control_c, 0, 64, 41
1, 69585, Note_on_c, 0, 51, 43
1, 69590, Note_on_c, 0, 75, 53
1, 69676, Note_off_c, 0, 51, 50
1, 69903, Note_on_c, 0, 73, 50
1, 69915, Note_off_c, 0, 75, 54
1, 70159, Control_c, 0, 64, 40
1, 70284, Note_on_c, 0, 72, 43
1, 70333, Poly_aftertouch_c, 0, 56, 127
1, 70398, Note_off_c, 0, 73, 37
1, 70446, Note_off_c, 0, 70, 40
1, 70503, Note_off_c, 0, 66, 39
1, 70597, Poly_aftertouch_c, 0, 56, 0
1, 70907, Note_on_c, 0, 60, 41
1, 70911, Note_on_c, 0, 63, 38
1, 71194, Note_on_c, 0, 61, 45
1, 71207, Note_on_c, 0, 65, 46
1, 71322, Note_off_c, 0, 63, 31
1, 71342, Note_off_c, 0, 60, 34
1, 71543, Note_on_c, 0, 63, 36
1, 71544, Note_on_c, 0, 66, 45
1, 71638, Note_off_c, 0, 65, 35
1, 71673, Note_off_c, 0, 61, 36
1, 71701, Note_off_c, 0, 72, 44
1, 72166, Note_on_c, 0, 73, 47
1, 72168, Note_on_c, 0, 56, 36
1, 72245, Note_off_c, 0, 56, 53
1, 72467, Note_on_c, 0, 75, 54
1, 72534, Note_off_c, 0, 73, 50
1, 72847, Note_on_c, 0, 49, 23
1, 72860, Note_off_c, 0, 66, 31
1, 72863, Note_on_c, 0, 77, 47
1, 72960, Note_off_c, 0, 75, 48
1, 73075, Note_off_c, 0, 63, 37
1, 73444, Poly_aftertouch_c, 0, 76, 127
1, 73513, Note_on_c, 0, 68, 44
1, 73526, Note_on_c, 0, 65, 18
1, 73807, Note_on_c, 0, 63, 42
1, 73810, Note_on_c, 0, 66, 48
1, 73889, Note_off_c, 0, 68, 52
1, 73905, Note_off_c, 0, 65, 43
1, 73999, Poly_aftertouch_c, 0, 51, 127
1, 74166, Note_on_c, 0, 61, 22
1, 74174, Note_on_c, 0, 65, 39
1, 74288, Note_off_c, 0, 63, 44
1, 74293, Note_off_c, 0, 66, 45
1, 74327, Control_c, 0, 64, 41
1, 74341, Control_c, 0, 64, 43
1, 74356, Control_c, 0, 64, 46
1, 74371, Control_c, 0, 64, 49
1, 74386, Control_c, 0, 64, 52
1, 74401, Control_c, 0, 64, 56
1, 74415, Control_c, 0, 64, 59
1, 74430, Control_c, 0, 64, 62
1, 74445, Control_c, 0, 64, 64
1, 74460, Control_c, 0, 64, 67
1, 74474, Control_c, 0, 64, 72
1, 74482, Note_off_c, 0, 49, 39
1, 74489, Control_c, 0, 64, 83
1, 74504, Control_c, 0, 64, 106
1, 74519, Control_c, 0, 64, 127
1, 74536, Poly_aftertouch_c, 0, 51, 0
1, 74548, Note_off_c, 0, 61, 36
1, 74550, Note_off_c, 0, 65, 33
1, 74786, Control_c, 0, 64, 121
1, 74801, Control_c, 0, 64, 116
1, 74822, Control_c, 0, 64, 110
1, 74831, Note_on_c, 0, 73, 51
1, 74837, Control_c, 0, 64, 103
1, 74844, Note_on_c, 0, 65, 36
1, 74852, Control_c, 0, 64, 98
1, 74857, Note_on_c, 0, 49, 24
1, 74861, Note_on_c, 0, 61, 19
1, 74867, Control_c, 0, 64, 95
1, 74881, Control_c, 0, 64, 92
1, 74896, Control_c, 0, 64, 90
1, 74911, Control_c, 0, 64, 87
1, 74926, Control_c, 0, 64, 83
1, 74941, Control_c, 0, 64, 80
1, 74956, Control_c, 0, 64, 78
1, 74971, Control_c, 0, 64, 75
1, 74986, Control_c, 0, 64, 73
1, 75001, Control_c, 0, 64, 70
1, 75015, Control_c, 0, 64, 66
1, 75030, Control_c, 0, 64, 64
1, 75045, Control_c, 0, 64, 63
1, 75060, Control_c, 0, 64, 60
1, 75075, Control_c, 0, 64, 58
1, 75090, Control_c, 0, 64, 57
1, 75105, Poly_aftertouch_c, 0, 76, 0
1, 75105, Control_c, 0, 64, 56
1, 75120, Control_c, 0, 64, 56
1, 75132, Note_on_c, 0, 72, 52
1, 75135, Control_c, 0, 64, 55
1, 75150, Control_c, 0, 64, 54
1, 75164, Control_c, 0, 64, 53
1, 75174, Note_off_c, 0, 61, 39
1, 75179, Control_c, 0, 64, 51
1, 75199, Note_off_c, 0, 77, 22
1, 75238, Control_c, 0, 64, 52
1, 75251, Note_off_c, 0, 65, 58
1, 75253, Control_c, 0, 64, 54
1, 75268, Control_c, 0, 64, 56
1, 75283, Control_c, 0, 64, 57
1, 75297, Control_c, 0, 64, 57
1, 75327, Control_c, 0, 64, 57
1, 75371, Control_c, 0, 64, 56
1, 75386, Control_c, 0, 64, 56
1, 75401, Control_c, 0, 64, 55
1, 75431, Control_c, 0, 64, 55
1, 75445, Control_c, 0, 64, 54
1, 75460, Control_c, 0, 64, 53
1, 75475, Control_c, 0, 64, 52
1, 75490, Note_on_c, 0, 61, 24
1, 75490, Control_c, 0, 64, 51
1, 75491, Note_on_c, 0, 70, 49
1, 75504, Note_on_c, 0, 54, 27
1, 75504, Control_c, 0, 64, 51
1, 75509, Note_on_c, 0, 66, 33
1, 75519, Control_c, 0, 64, 50
1, 75534, Control_c, 0, 64, 49
1, 75545, Note_off_c, 0, 73, 30
1, 75549, Control_c, 0, 64, 48
1, 75571, Control_c, 0, 64, 47
1, 75586, Control_c, 0, 64, 46
1, 75601, Control_c, 0, 64, 45
1, 75612, Note_off_c, 0, 72, 53
1, 75615, Control_c, 0, 64, 44
1, 75630, Control_c, 0, 64, 43
1, 75683, Note_off_c, 0, 49, 41
1, 75734, Control_c, 0, 64, 43
1, 75749, Control_c, 0, 64, 46
1, 75763, Control_c, 0, 64, 51
1, 75778, Control_c, 0, 64, 55
1, 75793, Control_c, 0, 64, 59
1, 75808, Control_c, 0, 64, 63
1, 75822, Control_c, 0, 64, 65
1, 75830, Note_off_c, 0, 70, 59
1, 75837, Control_c, 0, 64, 69
1, 75851, Note_off_c, 0, 61, 39
1, 75852, Control_c, 0, 64, 78
1, 75868, Control_c, 0, 64, 93
1, 75883, Control_c, 0, 64, 127
1, 75901, Note_off_c, 0, 66, 39
1, 75929, Note_off_c, 0, 54, 37
1, 76110, Note_on_c, 0, 70, 67
1, 76122, Note_on_c, 0, 61, 27
1, 76122, Note_on_c, 0, 66, 41
1, 76126, Note_on_c, 0, 54, 31
1, 76164, Control_c, 0, 64, 113
1, 76179, Control_c, 0, 64, 105
1, 76193, Control_c, 0, 64, 99
1, 76208, Control_c, 0, 64, 93
1, 76223, Control_c, 0, 64, 88
1, 76238, Control_c, 0, 64, 83
1, 76253, Control_c, 0, 64, 78
1, 76268, Control_c, 0, 64, 72
1, 76282, Control_c, 0, 64, 67
1, 76297, Control_c, 0, 64, 63
1, 76319, Control_c, 0, 64, 57
1, 76334, Control_c, 0, 64, 54
1, 76349, Control_c, 0, 64, 52
1, 76365, Control_c, 0, 64, 52
1, 76380, Control_c, 0, 64, 51
1, 76393, Note_on_c, 0, 53, 46
1, 76394, Control_c, 0, 64, 50
1, 76409, Control_c, 0, 64, 49
1, 76448, Note_off_c, 0, 61, 48
1, 76453, Control_c, 0, 64, 50
1, 76468, Control_c, 0, 64, 52
1, 76483, Control_c, 0, 64, 56
1, 76498, Control_c, 0, 64, 60
1, 76512, Control_c, 0, 64, 63
1, 76527, Control_c, 0, 64, 66
1, 76542, Control_c, 0, 64, 69
1, 76557, Control_c, 0, 64, 73
1, 76572, Control_c, 0, 64, 78
1, 76587, Control_c, 0, 64, 85
1, 76587, Note_off_c, 0, 70, 54
1, 76601, Control_c, 0, 64, 94
1, 76616, Control_c, 0, 64, 98
1, 76631, Control_c, 0, 64, 99
1, 76662, Control_c, 0, 64, 98
1, 76677, Control_c, 0, 64, 98
1, 76691, Control_c, 0, 64, 97
1, 76721, Control_c, 0, 64, 96
1, 76736, Control_c, 0, 64, 94
1, 76747, Note_on_c, 0, 63, 28
1, 76747, Note_on_c, 0, 78, 66
1, 76750, Note_on_c, 0, 70, 44
1, 76750, Note_on_c, 0, 51, 35
1, 76750, Control_c, 0, 64, 92
1, 76765, Control_c, 0, 64, 90
1, 76780, Control_c, 0, 64, 86
1, 76795, Control_c, 0, 64, 82
1, 76810, Control_c, 0, 64, 78
1, 76825, Control_c, 0, 64, 74
1, 76840, Control_c, 0, 64, 70
1, 76849, Note_off_c, 0, 66, 37
1, 76855, Control_c, 0, 64, 66
1, 76867, Note_off_c, 0, 53, 36
1, 76869, Control_c, 0, 64, 60
1, 76884, Control_c, 0, 64, 52
1, 76890, Note_off_c, 0, 54, 35
1, 76899, Control_c, 0, 64, 44
1, 76914, Control_c, 0, 64, 37
1, 76928, Control_c, 0, 64, 34
1, 76943, Control_c, 0, 64, 33
1, 76958, Control_c, 0, 64, 32
1, 77002, Control_c, 0, 64, 34
1, 77017, Control_c, 0, 64, 44
1, 77032, Control_c, 0, 64, 56
1, 77047, Control_c, 0, 64, 62
1, 77069, Control_c, 0, 64, 66
1, 77071, Note_off_c, 0, 78, 58
1, 77084, Control_c, 0, 64, 72
1, 77084, Note_off_c, 0, 70, 49
1, 77099, Control_c, 0, 64, 83
1, 77114, Control_c, 0, 64, 111
1, 77129, Control_c, 0, 64, 127
1, 77130, Note_off_c, 0, 63, 36
1, 77134, Note_off_c, 0, 51, 40
1, 77365, Note_on_c, 0, 78, 71
1, 77369, Note_on_c, 0, 70, 59
1, 77372, Note_on_c, 0, 63, 50
1, 77374, Note_on_c, 0, 51, 65
1, 77409, Control_c, 0, 64, 107
1, 77424, Control_c, 0, 64, 95
1, 77439, Control_c, 0, 64, 85
1, 77454, Control_c, 0, 64, 78
1, 77470, Control_c, 0, 64, 74
1, 77484, Control_c, 0, 64, 70
1, 77499, Control_c, 0, 64, 66
1, 77514, Control_c, 0, 64, 61
1, 77529, Control_c, 0, 64, 54
1, 77544, Control_c, 0, 64, 51
1, 77558, Control_c, 0, 64, 51
1, 77588, Control_c, 0, 64, 50
1, 77603, Control_c, 0, 64, 49
1, 77618, Control_c, 0, 64, 48
1, 77633, Control_c, 0, 64, 47
1, 77648, Control_c, 0, 64, 46
1, 77663, Control_c, 0, 64, 46
1, 77671, Note_on_c, 0, 77, 77
1, 77675, Note_on_c, 0, 65, 55
1, 77707, Control_c, 0, 64, 45
1, 77737, Control_c, 0, 64, 45
1, 77751, Control_c, 0, 64, 44
1, 77781, Control_c, 0, 64, 44
1, 77788, Note_off_c, 0, 63, 54
1, 77791, Note_off_c, 0, 70, 35
1, 77796, Control_c, 0, 64, 43
1, 77818, Control_c, 0, 64, 43
1, 77862, Control_c, 0, 64, 42
1, 77863, Note_off_c, 0, 78, 38
1, 78020, Note_on_c, 0, 75, 66
1, 78023, Note_on_c, 0, 70, 56
1, 78024, Note_on_c, 0, 60, 54
1, 78029, Note_on_c, 0, 66, 46
1, 78144, Control_c, 0, 64, 42
1, 78152, Note_off_c, 0, 65, 51
1, 78158, Control_c, 0, 64, 41
1, 78173, Note_off_c, 0, 51, 61
1, 78173, Control_c, 0, 64, 40
1, 78188, Note_off_c, 0, 77, 50
1, 78188, Control_c, 0, 64, 40
1, 78203, Control_c, 0, 64, 39
1, 78218, Control_c, 0, 64, 38
1, 78232, Control_c, 0, 64, 36
1, 78247, Control_c, 0, 64, 33
1, 78263, Control_c, 0, 64, 33
1, 78322, Control_c, 0, 64, 34
1, 78337, Control_c, 0, 64, 46
1, 78352, Control_c, 0, 64, 58
1, 78353, Note_off_c, 0, 60, 62
1, 78364, Note_off_c, 0, 70, 55
1, 78367, Control_c, 0, 64, 66
1, 78381, Control_c, 0, 64, 74
1, 78396, Control_c, 0, 64, 102
1, 78411, Control_c, 0, 64, 127
1, 78438, Note_off_c, 0, 75, 64
1, 78459, Note_off_c, 0, 66, 58
1, 78631, Note_on_c, 0, 75, 88
1, 78637, Note_on_c, 0, 66, 59
1, 78643, Note_on_c, 0, 60, 53
1, 78645, Note_on_c, 0, 69, 61
1, 78684, Control_c, 0, 64, 113
1, 78699, Control_c, 0, 64, 99
1, 78713, Control_c, 0, 64, 92
1, 78728, Control_c, 0, 64, 88
1, 78743, Control_c, 0, 64, 83
1, 78758, Control_c, 0, 64, 78
1, 78773, Control_c, 0, 64, 72
1, 78787, Control_c, 0, 64, 67
1, 78802, Control_c, 0, 64, 64
1, 78817, Control_c, 0, 64, 62
1, 78832, Control_c, 0, 64, 60
1, 78847, Control_c, 0, 64, 58
1, 78861, Control_c, 0, 64, 56
1, 78876, Control_c, 0, 64, 54
1, 78885, Note_off_c, 0, 69, 38
1, 78891, Control_c, 0, 64, 53
1, 78906, Control_c, 0, 64, 52
1, 78921, Control_c, 0, 64, 49
1, 78924, Note_on_c, 0, 58, 70
1, 78928, Note_on_c, 0, 70, 77
1, 78935, Control_c, 0, 64, 47
1, 78950, Control_c, 0, 64, 44
1, 78953, Note_off_c, 0, 60, 58
1, 78965, Control_c, 0, 64, 41
1, 78978, Note_off_c, 0, 66, 59
1, 78980, Control_c, 0, 64, 39
1, 78995, Control_c, 0, 64, 38
1, 79010, Control_c, 0, 64, 36
1, 79025, Control_c, 0, 64, 35
1, 79039, Control_c, 0, 64, 34
1, 79251, Note_off_c, 0, 70, 38
1, 79293, Note_on_c, 0, 84, 81
1, 79308, Note_on_c, 0, 57, 45
1, 79308, Note_on_c, 0, 66, 50
1, 79308, Note_on_c, 0, 72, 53
1, 79396, Note_off_c, 0, 58, 51
1, 79445, Note_off_c, 0, 75, 56
1, 79478, Control_c, 0, 64, 34
1, 79507, Control_c, 0, 64, 33
1, 79596, Control_c, 0, 64, 34
1, 79610, Control_c, 0, 64, 43
1, 79625, Control_c, 0, 64, 53
1, 79640, Control_c, 0, 64, 60
1, 79654, Control_c, 0, 64, 64
1, 79669, Control_c, 0, 64, 69
1, 79684, Control_c, 0, 64, 81
1, 79696, Note_off_c, 0, 57, 36
1, 79699, Control_c, 0, 64, 127
1, 79710, Note_off_c, 0, 84, 61
1, 79719, Note_off_c, 0, 72, 36
1, 79901, Note_on_c, 0, 65, 49
1, 79906, Note_on_c, 0, 84, 85
1, 79907, Control_c, 0, 64, 112
1, 79915, Note_on_c, 0, 57, 42
1, 79918, Note_on_c, 0, 72, 59
1, 79922, Control_c, 0, 64, 105
1, 79937, Control_c, 0, 64, 100
1, 79952, Control_c, 0, 64, 94
1, 79967, Control_c, 0, 64, 91
1, 79982, Control_c, 0, 64, 87
1, 79997, Control_c, 0, 64, 84
1, 80012, Control_c, 0, 64, 81
1, 80026, Control_c, 0, 64, 78
1, 80041, Control_c, 0, 64, 74
1, 80062, Note_off_c, 0, 66, 38
1, 80063, Control_c, 0, 64, 71
1, 80078, Control_c, 0, 64, 68
1, 80092, Control_c, 0, 64, 65
1, 80108, Control_c, 0, 64, 62
1, 80123, Control_c, 0, 64, 59
1, 80138, Control_c, 0, 64, 58
1, 80153, Control_c, 0, 64, 58
1, 80167, Control_c, 0, 64, 56
1, 80182, Control_c, 0, 64, 55
1, 80197, Control_c, 0, 64, 53
1, 80212, Control_c, 0, 64, 51
1, 80216, Note_on_c, 0, 82, 77
1, 80227, Control_c, 0, 64, 50
1, 80241, Control_c, 0, 64, 49
1, 80256, Control_c, 0, 64, 47
1, 80271, Control_c, 0, 64, 46
1, 80286, Control_c, 0, 64, 44
1, 80301, Control_c, 0, 64, 43
1, 80316, Control_c, 0, 64, 41
1, 80331, Control_c, 0, 64, 40
1, 80345, Control_c, 0, 64, 39
1, 80360, Control_c, 0, 64, 38
1, 80375, Control_c, 0, 64, 37
1, 80390, Control_c, 0, 64, 36
1, 80405, Control_c, 0, 64, 36
1, 80414, Note_off_c, 0, 72, 59
1, 80420, Control_c, 0, 64, 35
1, 80449, Control_c, 0, 64, 35
1, 80464, Control_c, 0, 64, 34
1, 80478, Control_c, 0, 64, 33
1, 80493, Control_c, 0, 64, 33
1, 80508, Control_c, 0, 64, 32
1, 80538, Control_c, 0, 64, 31
1, 80552, Control_c, 0, 64, 31
1, 80582, Control_c, 0, 64, 30
1, 80609, Note_on_c, 0, 81, 66
1, 80612, Note_on_c, 0, 72, 58
1, 80612, Control_c, 0, 64, 30
1, 80617, Note_on_c, 0, 77, 59
1, 80625, Note_on_c, 0, 63, 39
1, 80626, Control_c, 0, 64, 29
1, 80641, Control_c, 0, 64, 28
1, 80657, Control_c, 0, 64, 28
1, 80672, Control_c, 0, 64, 27
1, 80687, Control_c, 0, 64, 26
1, 80701, Control_c, 0, 64, 25
1, 80716, Control_c, 0, 64, 24
1, 80731, Control_c, 0, 64, 22
1, 80746, Control_c, 0, 64, 19
1, 80761, Control_c, 0, 64, 16
1, 80772, Note_off_c, 0, 65, 36
1, 80775, Control_c, 0, 64, 12
1, 80790, Note_off_c, 0, 84, 50
1, 80790, Control_c, 0, 64, 0
1, 80810, Note_off_c, 0, 57, 37
1, 80811, Note_off_c, 0, 82, 62
1, 80976, Control_c, 0, 64, 36
1, 80990, Control_c, 0, 64, 51
1, 81005, Control_c, 0, 64, 58
1, 81020, Control_c, 0, 64, 62
1, 81035, Control_c, 0, 64, 65
1, 81050, Control_c, 0, 64, 74
1, 81064, Control_c, 0, 64, 103
1, 81079, Control_c, 0, 64, 127
1, 81091, Note_off_c, 0, 77, 52
1, 81106, Note_off_c, 0, 81, 37
1, 81116, Note_off_c, 0, 72, 49
1, 81225, Note_on_c, 0, 81, 65
1, 81227, Note_on_c, 0, 77, 59
1, 81238, Note_on_c, 0, 72, 63
1, 81244, Note_on_c, 0, 65, 36
1, 81270, Note_off_c, 0, 63, 27
1, 81272, Control_c, 0, 64, 113
1, 81287, Control_c, 0, 64, 101
1, 81301, Control_c, 0, 64, 92
1, 81316, Control_c, 0, 64, 86
1, 81331, Control_c, 0, 64, 82
1, 81346, Control_c, 0, 64, 78
1, 81361, Control_c, 0, 64, 75
1, 81375, Control_c, 0, 64, 71
1, 81390, Control_c, 0, 64, 68
1, 81405, Control_c, 0, 64, 65
1, 81420, Control_c, 0, 64, 63
1, 81435, Control_c, 0, 64, 62
1, 81451, Control_c, 0, 64, 61
1, 81466, Control_c, 0, 64, 61
1, 81480, Control_c, 0, 64, 59
1, 81495, Control_c, 0, 64, 58
1, 81510, Control_c, 0, 64, 56
1, 81513, Note_on_c, 0, 63, 55
1, 81524, Control_c, 0, 64, 56
1, 81562, Control_c, 0, 64, 54
1, 81577, Control_c, 0, 64, 53
1, 81591, Control_c, 0, 64, 52
1, 81605, Control_c, 0, 64, 52
1, 81611, Note_off_c, 0, 72, 60
1, 81620, Control_c, 0, 64, 51
1, 81635, Control_c, 0, 64, 50
1, 81650, Control_c, 0, 64, 49
1, 81651, Note_off_c, 0, 65, 36
1, 81665, Control_c, 0, 64, 48
1, 81669, Note_off_c, 0, 77, 54
1, 81694, Control_c, 0, 64, 48
1, 81709, Control_c, 0, 64, 47
1, 81724, Control_c, 0, 64, 45
1, 81738, Control_c, 0, 64, 44
1, 81753, Control_c, 0, 64, 44
1, 81768, Control_c, 0, 64, 43
1, 81783, Control_c, 0, 64, 42
1, 81798, Control_c, 0, 64, 40
1, 81812, Control_c, 0, 64, 38
1, 81827, Control_c, 0, 64, 37
1, 81833, Note_on_c, 0, 77, 54
1, 81841, Note_on_c, 0, 62, 41
1, 81841, Note_on_c, 0, 70, 54
1, 81842, Control_c, 0, 64, 36
1, 81848, Note_on_c, 0, 82, 61
1, 81857, Control_c, 0, 64, 35
1, 81872, Control_c, 0, 64, 32
1, 81887, Control_c, 0, 64, 29
1, 81901, Control_c, 0, 64, 23
1, 81916, Control_c, 0, 64, 16
1, 81931, Control_c, 0, 64, 0
1, 81969, Note_off_c, 0, 63, 52
1, 81989, Note_off_c, 0, 81, 55
1, 82109, Control_c, 0, 64, 11
1, 82123, Control_c, 0, 64, 32
1, 82138, Control_c, 0, 64, 47
1, 82153, Control_c, 0, 64, 54
1, 82168, Control_c, 0, 64, 59
1, 82183, Control_c, 0, 64, 64
1, 82197, Control_c, 0, 64, 70
1, 82209, Note_off_c, 0, 77, 53
1, 82212, Control_c, 0, 64, 84
1, 82227, Control_c, 0, 64, 127
1, 82262, Note_off_c, 0, 62, 34
1, 82286, Note_off_c, 0, 70, 30
1, 82308, Note_off_c, 0, 82, 38
1, 82467, Note_on_c, 0, 82, 67
1, 82469, Note_on_c, 0, 77, 57
1, 82471, Note_on_c, 0, 70, 52
1, 82473, Control_c, 0, 64, 123
1, 82477, Note_on_c, 0, 62, 44
1, 82488, Control_c, 0, 64, 107
1, 82502, Control_c, 0, 64, 99
1, 82517, Control_c, 0, 64, 92
1, 82532, Control_c, 0, 64, 85
1, 82546, Control_c, 0, 64, 80
1, 82561, Control_c, 0, 64, 76
1, 82576, Control_c, 0, 64, 74
1, 82591, Control_c, 0, 64, 71
1, 82606, Control_c, 0, 64, 68
1, 82621, Control_c, 0, 64, 66
1, 82635, Control_c, 0, 64, 65
1, 82650, Control_c, 0, 64, 64
1, 82665, Control_c, 0, 64, 62
1, 82679, Control_c, 0, 64, 61
1, 82709, Control_c, 0, 64, 60
1, 82724, Control_c, 0, 64, 59
1, 82739, Control_c, 0, 64, 57
1, 82742, Note_on_c, 0, 80, 69
1, 82754, Control_c, 0, 64, 56
1, 82769, Control_c, 0, 64, 55
1, 82799, Control_c, 0, 64, 55
1, 82814, Control_c, 0, 64, 53
1, 82819, Note_off_c, 0, 77, 59
1, 82828, Control_c, 0, 64, 51
1, 82843, Control_c, 0, 64, 50
1, 82858, Control_c, 0, 64, 49
1, 82872, Control_c, 0, 64, 49
1, 82873, Note_off_c, 0, 70, 52
1, 82887, Control_c, 0, 64, 48
1, 82902, Control_c, 0, 64, 46
1, 82917, Control_c, 0, 64, 45
1, 82932, Control_c, 0, 64, 45
1, 82961, Control_c, 0, 64, 44
1, 82976, Control_c, 0, 64, 43
1, 82991, Control_c, 0, 64, 42
1, 83006, Control_c, 0, 64, 41
1, 83020, Control_c, 0, 64, 41
1, 83035, Control_c, 0, 64, 40
1, 83073, Control_c, 0, 64, 39
1, 83088, Control_c, 0, 64, 39
1, 83103, Control_c, 0, 64, 38
1, 83118, Control_c, 0, 64, 38
1, 83133, Control_c, 0, 64, 37
1, 83143, Note_on_c, 0, 70, 49
1, 83145, Note_on_c, 0, 77, 62
1, 83146, Note_on_c, 0, 78, 62
1, 83147, Control_c, 0, 64, 37
1, 83151, Note_on_c, 0, 63, 34
1, 83162, Control_c, 0, 64, 36
1, 83177, Control_c, 0, 64, 36
1, 83192, Control_c, 0, 64, 35
1, 83222, Control_c, 0, 64, 35
1, 83251, Control_c, 0, 64, 34
1, 83281, Control_c, 0, 64, 34
1, 83296, Control_c, 0, 64, 33
1, 83303, Note_off_c, 0, 82, 50
1, 83325, Note_off_c, 0, 62, 35
1, 83338, Note_off_c, 0, 80, 50
1, 83369, Control_c, 0, 64, 34
1, 83384, Control_c, 0, 64, 38
1, 83399, Control_c, 0, 64, 45
1, 83414, Control_c, 0, 64, 51
1, 83429, Control_c, 0, 64, 56
1, 83443, Control_c, 0, 64, 59
1, 83458, Control_c, 0, 64, 62
1, 83473, Control_c, 0, 64, 65
1, 83488, Control_c, 0, 64, 70
1, 83502, Control_c, 0, 64, 82
1, 83517, Control_c, 0, 64, 113
1, 83526, Note_off_c, 0, 78, 38
1, 83530, Note_off_c, 0, 77, 57
1, 83532, Control_c, 0, 64, 127
1, 83572, Note_off_c, 0, 70, 37
1, 83593, Note_off_c, 0, 63, 39
1, 83770, Note_on_c, 0, 78, 57
1, 83781, Note_on_c, 0, 75, 48
1, 83783, Note_on_c, 0, 70, 45
1, 83784, Control_c, 0, 64, 110
1, 83801, Note_on_c, 0, 63, 42
1, 83806, Control_c, 0, 64, 96
1, 83821, Control_c, 0, 64, 90
1, 83836, Control_c, 0, 64, 87
1, 83853, Control_c, 0, 64, 84
1, 83868, Control_c, 0, 64, 77
1, 83882, Control_c, 0, 64, 70
1, 83897, Control_c, 0, 64, 65
1, 83912, Control_c, 0, 64, 61
1, 83926, Control_c, 0, 64, 58
1, 83941, Control_c, 0, 64, 56
1, 83956, Control_c, 0, 64, 50
1, 83971, Control_c, 0, 64, 43
1, 83986, Control_c, 0, 64, 33
1, 84000, Control_c, 0, 64, 27
1, 84015, Control_c, 0, 64, 25
1, 84030, Control_c, 0, 64, 24
1, 84080, Note_on_c, 0, 61, 42
1, 84104, Control_c, 0, 64, 28
1, 84119, Control_c, 0, 64, 40
1, 84134, Control_c, 0, 64, 49
1, 84149, Control_c, 0, 64, 56
1, 84164, Control_c, 0, 64, 61
1, 84169, Note_off_c, 0, 78, 35
1, 84173, Note_off_c, 0, 75, 53
1, 84179, Control_c, 0, 64, 64
1, 84194, Control_c, 0, 64, 66
1, 84199, Note_off_c, 0, 70, 43
1, 84208, Control_c, 0, 64, 69
1, 84223, Control_c, 0, 64, 75
1, 84238, Control_c, 0, 64, 84
1, 84253, Control_c, 0, 64, 94
1, 84268, Control_c, 0, 64, 107
1, 84282, Control_c, 0, 64, 127
1, 84400, Control_c, 0, 64, 109
1, 84408, Note_on_c, 0, 60, 41
1, 84414, Note_on_c, 0, 75, 47
1, 84415, Control_c, 0, 64, 100
1, 84417, Note_off_c, 0, 63, 14
1, 84417, Note_on_c, 0, 78, 51
1, 84423, Note_on_c, 0, 70, 41
1, 84430, Control_c, 0, 64, 94
1, 84445, Control_c, 0, 64, 89
1, 84460, Control_c, 0, 64, 81
1, 84474, Control_c, 0, 64, 73
1, 84489, Control_c, 0, 64, 67
1, 84504, Control_c, 0, 64, 61
1, 84516, Note_off_c, 0, 61, 35
1, 84519, Control_c, 0, 64, 56
1, 84534, Control_c, 0, 64, 51
1, 84556, Control_c, 0, 64, 47
1, 84571, Control_c, 0, 64, 41
1, 84586, Control_c, 0, 64, 36
1, 84600, Control_c, 0, 64, 33
1, 84615, Control_c, 0, 64, 32
1, 84645, Control_c, 0, 64, 34
1, 84661, Control_c, 0, 64, 43
1, 84676, Control_c, 0, 64, 54
1, 84691, Control_c, 0, 64, 60
1, 84705, Control_c, 0, 64, 64
1, 84720, Control_c, 0, 64, 67
1, 84727, Note_off_c, 0, 70, 37
1, 84735, Control_c, 0, 64, 71
1, 84749, Control_c, 0, 64, 80
1, 84764, Control_c, 0, 64, 99
1, 84779, Control_c, 0, 64, 127
1, 84781, Note_off_c, 0, 60, 30
1, 84832, Note_off_c, 0, 75, 30
1, 84838, Note_off_c, 0, 78, 30
1, 85031, Control_c, 0, 64, 109
1, 85042, Note_on_c, 0, 78, 57
1, 85044, Note_on_c, 0, 75, 45
1, 85045, Note_on_c, 0, 60, 33
1, 85046, Note_on_c, 0, 69, 43
1, 85046, Control_c, 0, 64, 96
1, 85061, Control_c, 0, 64, 89
1, 85076, Control_c, 0, 64, 84
1, 85091, Control_c, 0, 64, 78
1, 85105, Control_c, 0, 64, 70
1, 85120, Control_c, 0, 64, 65
1, 85135, Control_c, 0, 64, 61
1, 85149, Control_c, 0, 64, 60
1, 85164, Control_c, 0, 64, 59
1, 85179, Control_c, 0, 64, 58
1, 85194, Control_c, 0, 64, 56
1, 85209, Control_c, 0, 64, 54
1, 85223, Control_c, 0, 64, 52
1, 85238, Control_c, 0, 64, 51
1, 85253, Control_c, 0, 64, 49
1, 85268, Control_c, 0, 64, 47
1, 85283, Control_c, 0, 64, 45
1, 85305, Control_c, 0, 64, 42
1, 85320, Control_c, 0, 64, 39
1, 85335, Control_c, 0, 64, 36
1, 85347, Note_on_c, 0, 70, 64
1, 85350, Control_c, 0, 64, 33
1, 85357, Note_on_c, 0, 58, 43
1, 85364, Control_c, 0, 64, 28
1, 85379, Control_c, 0, 64, 25
1, 85383, Note_off_c, 0, 60, 38
1, 85394, Control_c, 0, 64, 23
1, 85409, Control_c, 0, 64, 22
1, 85454, Control_c, 0, 64, 24
1, 85461, Note_off_c, 0, 75, 58
1, 85465, Note_off_c, 0, 78, 58
1, 85469, Control_c, 0, 64, 38
1, 85473, Note_off_c, 0, 69, 56
1, 85484, Control_c, 0, 64, 52
1, 85499, Control_c, 0, 64, 60
1, 85514, Control_c, 0, 64, 63
1, 85528, Control_c, 0, 64, 66
1, 85543, Control_c, 0, 64, 72
1, 85558, Control_c, 0, 64, 83
1, 85572, Control_c, 0, 64, 107
1, 85587, Control_c, 0, 64, 127
1, 85658, Note_on_c, 0, 57, 40
1, 85678, Note_on_c, 0, 75, 56
1, 85684, Note_on_c, 0, 72, 58
1, 85687, Note_on_c, 0, 78, 57
1, 85691, Control_c, 0, 64, 118
1, 85706, Control_c, 0, 64, 101
1, 85720, Control_c, 0, 64, 88
1, 85735, Control_c, 0, 64, 79
1, 85750, Control_c, 0, 64, 72
1, 85765, Control_c, 0, 64, 67
1, 85777, Note_off_c, 0, 58, 29
1, 85780, Control_c, 0, 64, 62
1, 85788, Note_off_c, 0, 70, 54
1, 85795, Control_c, 0, 64, 55
1, 85809, Control_c, 0, 64, 44
1, 85824, Control_c, 0, 64, 35
1, 85839, Control_c, 0, 64, 29
1, 85854, Control_c, 0, 64, 27
1, 85869, Control_c, 0, 64, 26
1, 85884, Control_c, 0, 64, 26
1, 85943, Control_c, 0, 64, 30
1, 85958, Control_c, 0, 64, 44
1, 85972, Control_c, 0, 64, 55
1, 85987, Control_c, 0, 64, 62
1, 86002, Control_c, 0, 64, 65
1, 86017, Control_c, 0, 64, 69
1, 86032, Control_c, 0, 64, 77
1, 86045, Note_off_c, 0, 57, 54
1, 86054, Control_c, 0, 64, 94
1, 86069, Control_c, 0, 64, 127
1, 86082, Note_off_c, 0, 75, 52
1, 86103, Note_off_c, 0, 78, 32
1, 86156, Note_off_c, 0, 72, 25
1, 86321, Control_c, 0, 64, 117
1, 86322, Note_on_c, 0, 77, 63
1, 86323, Note_on_c, 0, 73, 54
1, 86336, Note_on_c, 0, 65, 37
1, 86336, Control_c, 0, 64, 102
1, 86342, Note_on_c, 0, 57, 32
1, 86350, Control_c, 0, 64, 92
1, 86365, Control_c, 0, 64, 83
1, 86380, Control_c, 0, 64, 72
1, 86394, Control_c, 0, 64, 66
1, 86409, Control_c, 0, 64, 60
1, 86424, Control_c, 0, 64, 55
1, 86439, Control_c, 0, 64, 53
1, 86454, Control_c, 0, 64, 52
1, 86468, Control_c, 0, 64, 51
1, 86558, Control_c, 0, 64, 49
1, 86573, Control_c, 0, 64, 48
1, 86587, Control_c, 0, 64, 47
1, 86602, Control_c, 0, 64, 46
1, 86617, Control_c, 0, 64, 45
1, 86627, Note_on_c, 0, 63, 52
1, 86627, Note_on_c, 0, 72, 66
1, 86632, Control_c, 0, 64, 43
1, 86647, Control_c, 0, 64, 42
1, 86662, Control_c, 0, 64, 42
1, 86676, Control_c, 0, 64, 41
1, 86713, Note_off_c, 0, 73, 63
1, 86720, Control_c, 0, 64, 41
1, 86722, Note_off_c, 0, 65, 53
1, 86746, Note_off_c, 0, 77, 56
1, 86959, Note_on_c, 0, 61, 48
1, 86962, Note_on_c, 0, 70, 56
1, 86966, Note_on_c, 0, 58, 35
1, 86969, Note_on_c, 0, 77, 63
1, 87062, Note_off_c, 0, 63, 52
1, 87088, Note_off_c, 0, 57, 44
1, 87106, Note_off_c, 0, 72, 52
1, 87188, Control_c, 0, 64, 43
1, 87203, Control_c, 0, 64, 46
1, 87217, Control_c, 0, 64, 51
1, 87232, Control_c, 0, 64, 56
1, 87247, Control_c, 0, 64, 61
1, 87262, Control_c, 0, 64, 65
1, 87277, Control_c, 0, 64, 69
1, 87291, Control_c, 0, 64, 77
1, 87303, Note_off_c, 0, 70, 57
1, 87306, Control_c, 0, 64, 104
1, 87321, Control_c, 0, 64, 127
1, 87332, Note_off_c, 0, 61, 38
1, 87365, Note_off_c, 0, 77, 61
1, 87386, Note_off_c, 0, 58, 40
1, 87565, Control_c, 0, 64, 121
1, 87578, Note_on_c, 0, 78, 70
1, 87580, Control_c, 0, 64, 98
1, 87581, Note_on_c, 0, 70, 63
1, 87586, Note_on_c, 0, 58, 51
1, 87596, Control_c, 0, 64, 82
1, 87604, Note_on_c, 0, 61, 48
1, 87611, Control_c, 0, 64, 74
1, 87625, Control_c, 0, 64, 70
1, 87640, Control_c, 0, 64, 68
1, 87655, Control_c, 0, 64, 67
1, 87670, Control_c, 0, 64, 65
1, 87685, Control_c, 0, 64, 61
1, 87699, Control_c, 0, 64, 58
1, 87714, Control_c, 0, 64, 56
1, 87729, Control_c, 0, 64, 55
1, 87759, Control_c, 0, 64, 54
1, 87774, Control_c, 0, 64, 53
1, 87789, Control_c, 0, 64, 53
1, 87869, Note_on_c, 0, 56, 60
1, 87876, Note_on_c, 0, 77, 79
1, 87878, Control_c, 0, 64, 50
1, 87893, Control_c, 0, 64, 39
1, 87908, Control_c, 0, 64, 0
1, 87926, Note_off_c, 0, 78, 63
1, 87967, Note_off_c, 0, 61, 55
1, 88006, Note_off_c, 0, 70, 56
1, 88086, Control_c, 0, 64, 30
1, 88101, Control_c, 0, 64, 37
1, 88115, Control_c, 0, 64, 42
1, 88130, Control_c, 0, 64, 45
1, 88145, Control_c, 0, 64, 47
1, 88159, Control_c, 0, 64, 48
1, 88187, Note_off_c, 0, 58, 25
1, 88204, Control_c, 0, 64, 47
1, 88218, Note_on_c, 0, 70, 63
1, 88219, Control_c, 0, 64, 44
1, 88220, Note_on_c, 0, 75, 73
1, 88224, Note_on_c, 0, 61, 49
1, 88227, Note_on_c, 0, 54, 44
1, 88234, Control_c, 0, 64, 39
1, 88248, Control_c, 0, 64, 32
1, 88263, Control_c, 0, 64, 20
1, 88278, Control_c, 0, 64, 0
1, 88310, Note_off_c, 0, 56, 57
1, 88340, Note_off_c, 0, 77, 54
1, 88448, Control_c, 0, 64, 40
1, 88463, Control_c, 0, 64, 53
1, 88478, Control_c, 0, 64, 60
1, 88493, Control_c, 0, 64, 64
1, 88508, Control_c, 0, 64, 67
1, 88522, Control_c, 0, 64, 75
1, 88537, Control_c, 0, 64, 89
1, 88552, Control_c, 0, 64, 127
1, 88567, Note_off_c, 0, 75, 55
1, 88629, Note_off_c, 0, 54, 35
1, 88632, Note_off_c, 0, 61, 35
1, 88650, Note_off_c, 0, 70, 54
1, 88886, Note_on_c, 0, 54, 45
1, 88886, Note_on_c, 0, 60, 39
1, 88888, Note_on_c, 0, 69, 70
1, 88892, Note_on_c, 0, 75, 70
1, 88894, Control_c, 0, 64, 113
1, 88909, Control_c, 0, 64, 104
1, 88924, Control_c, 0, 64, 96
1, 88938, Control_c, 0, 64, 90
1, 88953, Control_c, 0, 64, 84
1, 88968, Control_c, 0, 64, 80
1, 88982, Control_c, 0, 64, 74
1, 88997, Control_c, 0, 64, 70
1, 89012, Control_c, 0, 64, 66
1, 89027, Control_c, 0, 64, 61
1, 89050, Control_c, 0, 64, 57
1, 89065, Control_c, 0, 64, 53
1, 89079, Control_c, 0, 64, 51
1, 89092, Control_c, 0, 64, 49
1, 89107, Control_c, 0, 64, 46
1, 89121, Control_c, 0, 64, 39
1, 89136, Control_c, 0, 64, 27
1, 89151, Control_c, 0, 64, 0
1, 89176, Note_on_c, 0, 61, 64
1, 89183, Note_on_c, 0, 73, 77
1, 89185, Note_on_c, 0, 70, 72
1, 89190, Note_off_c, 0, 60, 61
1, 89190, Note_on_c, 0, 53, 52
1, 89228, Note_off_c, 0, 54, 63
1, 89253, Note_off_c, 0, 75, 62
1, 89270, Note_off_c, 0, 69, 60
1, 89329, Control_c, 0, 64, 45
1, 89344, Control_c, 0, 64, 61
1, 89359, Control_c, 0, 64, 66
1, 89374, Control_c, 0, 64, 74
1, 89378, Note_off_c, 0, 70, 56
1, 89388, Control_c, 0, 64, 94
1, 89403, Control_c, 0, 64, 127
1, 89455, Note_off_c, 0, 61, 57
1, 89526, Note_on_c, 0, 63, 60
1, 89531, Note_on_c, 0, 70, 65
1, 89533, Note_on_c, 0, 51, 60
1, 89535, Note_on_c, 0, 72, 77
1, 89553, Control_c, 0, 64, 108
1, 89567, Control_c, 0, 64, 88
1, 89582, Control_c, 0, 64, 76
1, 89590, Note_off_c, 0, 73, 64
1, 89597, Control_c, 0, 64, 68
1, 89611, Control_c, 0, 64, 63
1, 89626, Control_c, 0, 64, 56
1, 89628, Note_off_c, 0, 53, 39
1, 89641, Control_c, 0, 64, 46
1, 89656, Control_c, 0, 64, 37
1, 89671, Control_c, 0, 64, 28
1, 89685, Control_c, 0, 64, 23
1, 89700, Control_c, 0, 64, 21
1, 89715, Control_c, 0, 64, 20
1, 89759, Control_c, 0, 64, 26
1, 89774, Control_c, 0, 64, 43
1, 89797, Control_c, 0, 64, 55
1, 89812, Control_c, 0, 64, 62
1, 89822, Note_off_c, 0, 63, 59
1, 89826, Control_c, 0, 64, 68
1, 89841, Control_c, 0, 64, 77
1, 89856, Control_c, 0, 64, 106
1, 89858, Note_off_c, 0, 72, 52
1, 89871, Control_c, 0, 64, 127
1, 89907, Note_off_c, 0, 51, 62
1, 89922, Note_off_c, 0, 70, 56
1, 90142, Note_on_c, 0, 69, 70
1, 90147, Note_on_c, 0, 72, 77
1, 90147, Note_on_c, 0, 65, 69
1, 90150, Note_on_c, 0, 51, 65
1, 90167, Control_c, 0, 64, 113
1, 90182, Control_c, 0, 64, 86
1, 90197, Control_c, 0, 64, 69
1, 90211, Control_c, 0, 64, 58
1, 90226, Control_c, 0, 64, 35
1, 90242, Control_c, 0, 64, 18
1, 90272, Control_c, 0, 64, 21
1, 90287, Control_c, 0, 64, 40
1, 90302, Control_c, 0, 64, 55
1, 90316, Control_c, 0, 64, 63
1, 90317, Note_off_c, 0, 69, 63
1, 90331, Control_c, 0, 64, 68
1, 90346, Control_c, 0, 64, 76
1, 90360, Control_c, 0, 64, 90
1, 90375, Control_c, 0, 64, 127
1, 90442, Note_on_c, 0, 73, 84
1, 90446, Note_on_c, 0, 70, 79
1, 90456, Note_on_c, 0, 49, 69
1, 90464, Control_c, 0, 64, 90
1, 90479, Control_c, 0, 64, 71
1, 90483, Note_off_c, 0, 72, 62
1, 90494, Control_c, 0, 64, 63
1, 90508, Control_c, 0, 64, 54
1, 90523, Control_c, 0, 64, 47
1, 90546, Control_c, 0, 64, 46
1, 90561, Control_c, 0, 64, 50
1, 90575, Control_c, 0, 64, 60
1, 90590, Control_c, 0, 64, 66
1, 90601, Note_off_c, 0, 70, 62
1, 90605, Control_c, 0, 64, 72
1, 90618, Note_off_c, 0, 51, 54
1, 90620, Control_c, 0, 64, 82
1, 90624, Note_off_c, 0, 65, 60
1, 90635, Control_c, 0, 64, 95
1, 90649, Control_c, 0, 64, 127
1, 90738, Control_c, 0, 64, 107
1, 90753, Control_c, 0, 64, 91
1, 90767, Control_c, 0, 64, 80
1, 90782, Control_c, 0, 64, 73
1, 90784, Note_on_c, 0, 75, 84
1, 90785, Note_on_c, 0, 69, 64
1, 90788, Note_on_c, 0, 66, 64
1, 90797, Control_c, 0, 64, 68
1, 90812, Control_c, 0, 64, 64
1, 90813, Note_on_c, 0, 50, 41
1, 90823, Note_on_c, 0, 48, 54
1, 90827, Control_c, 0, 64, 59
1, 90839, Note_off_c, 0, 73, 60
1, 90841, Control_c, 0, 64, 51
1, 90856, Control_c, 0, 64, 41
1, 90871, Control_c, 0, 64, 28
1, 90872, Note_off_c, 0, 49, 62
1, 90880, Note_off_c, 0, 50, 63
1, 90886, Control_c, 0, 64, 0
1, 91065, Control_c, 0, 64, 41
1, 91080, Control_c, 0, 64, 58
1, 91095, Control_c, 0, 64, 65
1, 91104, Note_off_c, 0, 48, 59
1, 91109, Control_c, 0, 64, 73
1, 91124, Control_c, 0, 64, 97
1, 91127, Note_off_c, 0, 66, 55
1, 91130, Note_off_c, 0, 69, 58
1, 91139, Control_c, 0, 64, 127
1, 91220, Note_off_c, 0, 75, 55
1, 91372, Note_on_c, 0, 72, 86
1, 91375, Note_on_c, 0, 66, 73
1, 91376, Note_on_c, 0, 69, 73
1, 91384, Control_c, 0, 64, 96
1, 91388, Note_on_c, 0, 48, 73
1, 91399, Control_c, 0, 64, 78
1, 91414, Control_c, 0, 64, 64
1, 91428, Control_c, 0, 64, 48
1, 91443, Control_c, 0, 64, 22
1, 91458, Control_c, 0, 64, 12
1, 91488, Control_c, 0, 64, 21
1, 91503, Control_c, 0, 64, 44
1, 91518, Control_c, 0, 64, 57
1, 91526, Note_off_c, 0, 69, 59
1, 91533, Control_c, 0, 64, 64
1, 91547, Control_c, 0, 64, 69
1, 91562, Control_c, 0, 64, 77
1, 91577, Control_c, 0, 64, 91
1, 91591, Control_c, 0, 64, 127
1, 91664, Note_on_c, 0, 46, 72
1, 91667, Note_on_c, 0, 70, 77
1, 91672, Note_on_c, 0, 73, 83
1, 91680, Control_c, 0, 64, 98
1, 91695, Control_c, 0, 64, 83
1, 91710, Control_c, 0, 64, 72
1, 91725, Control_c, 0, 64, 66
1, 91739, Control_c, 0, 64, 61
1, 91754, Control_c, 0, 64, 54
1, 91760, Note_off_c, 0, 72, 57
1, 91769, Control_c, 0, 64, 48
1, 91780, Note_off_c, 0, 48, 59
1, 91783, Control_c, 0, 64, 44
1, 91798, Control_c, 0, 64, 40
1, 91813, Control_c, 0, 64, 36
1, 91818, Note_off_c, 0, 66, 55
1, 91828, Control_c, 0, 64, 31
1, 91844, Control_c, 0, 64, 24
1, 91859, Control_c, 0, 64, 17
1, 91874, Control_c, 0, 64, 0
1, 92013, Note_on_c, 0, 45, 65
1, 92019, Note_on_c, 0, 75, 84
1, 92024, Note_on_c, 0, 65, 67
1, 92024, Note_on_c, 0, 72, 74
1, 92135, Note_off_c, 0, 46, 54
1, 92139, Note_off_c, 0, 73, 37
1, 92183, Note_off_c, 0, 70, 54
1, 92462, Note_off_c, 0, 45, 49
1, 92517, Note_off_c, 0, 65, 55
1, 92636, Note_on_c, 0, 41, 72
1, 92642, Note_on_c, 0, 70, 66
1, 92647, Note_on_c, 0, 73, 75
1, 92651, Note_on_c, 0, 65, 68
1, 92697, Note_off_c, 0, 72, 61
1, 92697, Note_off_c, 0, 75, 62
1, 92949, Note_on_c, 0, 72, 73
1, 92961, Note_on_c, 0, 69, 72
1, 92998, Note_off_c, 0, 70, 62
1, 93051, Note_off_c, 0, 73, 41
1, 93104, Note_off_c, 0, 65, 53
1, 93145, Note_off_c, 0, 41, 29
1, 93341, Note_on_c, 0, 65, 59
1, 93342, Note_on_c, 0, 73, 73
1, 93346, Note_on_c, 0, 46, 54
1, 93346, Note_on_c, 0, 70, 67
1, 93515, Note_off_c, 0, 72, 35
1, 93559, Note_off_c, 0, 69, 55
1, 93756, Note_off_c, 0, 46, 35
1, 93999, Note_on_c, 0, 46, 50
1, 94300, Note_on_c, 0, 44, 70
1, 94434, Note_off_c, 0, 46, 58
1, 94626, Note_on_c, 0, 42, 71
1, 94797, Note_off_c, 0, 44, 57
1, 94940, Note_off_c, 0, 70, 54
1, 94979, Note_off_c, 0, 65, 33
1, 95134, Note_off_c, 0, 42, 28
1, 95240, Note_on_c, 0, 42, 74
1, 95250, Note_on_c, 0, 70, 76
1, 95253, Note_on_c, 0, 65, 62
1, 95536, Note_on_c, 0, 41, 69
1, 95616, Note_off_c, 0, 42, 59
1, 95648, Note_off_c, 0, 65, 61
1, 95682, Note_off_c, 0, 70, 60
1, 95936, Note_on_c, 0, 39, 60
1, 95938, Note_on_c, 0, 70, 68
1, 95939, Note_on_c, 0, 66, 60
1, 96093, Note_off_c, 0, 41, 52
1, 96443, Note_off_c, 0, 39, 40
1, 96576, Note_on_c, 0, 39, 52
1, 96581, Note_on_c, 0, 78, 71
1, 96889, Note_on_c, 0, 77, 73
1, 96979, Note_off_c, 0, 78, 64
1, 96995, Note_off_c, 0, 73, 60
1, 97044, Note_off_c, 0, 39, 34
1, 97195, Note_on_c, 0, 75, 65
1, 97203, Note_on_c, 0, 39, 43
1, 97457, Note_off_c, 0, 77, 29
1, 97514, Note_on_c, 0, 73, 62
1, 97584, Note_off_c, 0, 75, 60
1, 97611, Note_off_c, 0, 39, 39
1, 97648, Note_off_c, 0, 66, 61
1, 97650, Note_off_c, 0, 70, 59
1, 97838, Note_on_c, 0, 66, 50
1, 97839, Note_on_c, 0, 72, 59
1, 97846, Note_on_c, 0, 39, 32
1, 97850, Note_on_c, 0, 63, 44
1, 97907, Note_off_c, 0, 73, 64
1, 98043, Note_off_c, 0, 63, 60
1, 98164, Note_on_c, 0, 70, 54
1, 98174, Note_on_c, 0, 61, 44
1, 98271, Note_off_c, 0, 39, 37
1, 98276, Note_off_c, 0, 66, 54
1, 98320, Note_off_c, 0, 72, 42
1, 98422, Note_off_c, 0, 61, 37
1, 98599, Note_on_c, 0, 69, 49
1, 98603, Note_on_c, 0, 60, 37
1, 98606, Note_on_c, 0, 41, 31
1, 98606, Note_on_c, 0, 65, 34
1, 98735, Note_off_c, 0, 70, 33
1, 98857, Control_c, 0, 64, 31
1, 98872, Control_c, 0, 64, 45
1, 98887, Control_c, 0, 64, 53
1, 98902, Control_c, 0, 64, 58
1, 98916, Control_c, 0, 64, 61
1, 98931, Control_c, 0, 64, 64
1, 98946, Control_c, 0, 64, 67
1, 98951, Note_off_c, 0, 41, 42
1, 98961, Control_c, 0, 64, 75
1, 98975, Control_c, 0, 64, 87
1, 98990, Control_c, 0, 64, 110
1, 98995, Note_off_c, 0, 65, 34
1, 99005, Control_c, 0, 64, 127
1, 99052, Note_off_c, 0, 60, 34
1, 99097, Note_off_c, 0, 69, 38
1, 99419, Note_on_c, 0, 65, 42
1, 99435, Note_on_c, 0, 57, 31
1, 99438, Note_on_c, 0, 53, 30
1, 99450, Control_c, 0, 64, 123
1, 99465, Control_c, 0, 64, 115
1, 99480, Control_c, 0, 64, 108
1, 99495, Control_c, 0, 64, 103
1, 99510, Control_c, 0, 64, 100
1, 99532, Control_c, 0, 64, 100
1, 99547, Control_c, 0, 64, 99
1, 99561, Control_c, 0, 64, 98
1, 99576, Control_c, 0, 64, 95
1, 99591, Control_c, 0, 64, 93
1, 99605, Control_c, 0, 64, 92
1, 99620, Control_c, 0, 64, 91
1, 99635, Control_c, 0, 64, 89
1, 99650, Control_c, 0, 64, 88
1, 99665, Control_c, 0, 64, 87
1, 99680, Control_c, 0, 64, 87
1, 99694, Control_c, 0, 64, 86
1, 99709, Control_c, 0, 64, 84
1, 99724, Control_c, 0, 64, 83
1, 99751, Note_on_c, 0, 58, 41
1, 99754, Control_c, 0, 64, 82
1, 99756, Note_on_c, 0, 67, 53
1, 99784, Control_c, 0, 64, 81
1, 99798, Control_c, 0, 64, 80
1, 99844, Control_c, 0, 64, 79
1, 99858, Control_c, 0, 64, 78
1, 99873, Control_c, 0, 64, 78
1, 99918, Control_c, 0, 64, 77
1, 99927, Note_off_c, 0, 53, 39
1, 99933, Control_c, 0, 64, 76
1, 99963, Control_c, 0, 64, 76
1, 99992, Control_c, 0, 64, 75
1, 100007, Control_c, 0, 64, 74
1, 100021, Control_c, 0, 64, 74
1, 100066, Control_c, 0, 64, 73
1, 100067, Note_off_c, 0, 65, 23
1, 100081, Control_c, 0, 64, 72
1, 100095, Control_c, 0, 64, 71
1, 100109, Note_on_c, 0, 60, 34
1, 100110, Control_c, 0, 64, 70
1, 100112, Note_on_c, 0, 53, 15
1, 100114, Note_on_c, 0, 69, 51
1, 100125, Control_c, 0, 64, 70
1, 100140, Control_c, 0, 64, 69
1, 100155, Control_c, 0, 64, 67
1, 100169, Control_c, 0, 64, 65
1, 100184, Control_c, 0, 64, 64
1, 100199, Control_c, 0, 64, 63
1, 100208, Note_off_c, 0, 67, 33
1, 100214, Control_c, 0, 64, 61
1, 100227, Note_off_c, 0, 57, 36
1, 100228, Control_c, 0, 64, 57
1, 100243, Control_c, 0, 64, 51
1, 100258, Control_c, 0, 64, 43
1, 100281, Control_c, 0, 64, 35
1, 100283, Note_off_c, 0, 58, 36
1, 100296, Control_c, 0, 64, 27
1, 100310, Control_c, 0, 64, 23
1, 100323, Control_c, 0, 64, 21
1, 100353, Control_c, 0, 64, 22
1, 100368, Control_c, 0, 64, 30
1, 100383, Control_c, 0, 64, 42
1, 100398, Control_c, 0, 64, 51
1, 100413, Control_c, 0, 64, 57
1, 100427, Control_c, 0, 64, 61
1, 100442, Control_c, 0, 64, 64
1, 100457, Control_c, 0, 64, 67
1, 100472, Control_c, 0, 64, 71
1, 100487, Control_c, 0, 64, 77
1, 100501, Control_c, 0, 64, 88
1, 100516, Control_c, 0, 64, 123
1, 100527, Note_off_c, 0, 53, 39
1, 100531, Control_c, 0, 64, 127
1, 100535, Note_off_c, 0, 60, 38
1, 100535, Note_off_c, 0, 69, 38
1, 100782, Note_on_c, 0, 63, 66
1, 100800, Note_on_c, 0, 69, 50
1, 100803, Note_on_c, 0, 60, 37
1, 100818, Note_on_c, 0, 65, 36
1, 100826, Note_on_c, 0, 53, 21
1, 100828, Control_c, 0, 64, 114
1, 100842, Control_c, 0, 64, 102
1, 100857, Control_c, 0, 64, 93
1, 100872, Control_c, 0, 64, 84
1, 100887, Control_c, 0, 64, 76
1, 100902, Control_c, 0, 64, 68
1, 100917, Control_c, 0, 64, 62
1, 100932, Control_c, 0, 64, 55
1, 100946, Control_c, 0, 64, 48
1, 100961, Control_c, 0, 64, 47
1, 100976, Control_c, 0, 64, 46
1, 101043, Control_c, 0, 64, 49
1, 101057, Control_c, 0, 64, 56
1, 101072, Control_c, 0, 64, 61
1, 101087, Control_c, 0, 64, 65
1, 101102, Control_c, 0, 64, 68
1, 101117, Control_c, 0, 64, 73
1, 101122, Note_off_c, 0, 65, 38
1, 101131, Control_c, 0, 64, 79
1, 101143, Note_off_c, 0, 69, 34
1, 101146, Control_c, 0, 64, 86
1, 101160, Note_off_c, 0, 53, 40
1, 101161, Control_c, 0, 64, 96
1, 101176, Control_c, 0, 64, 113
1, 101191, Control_c, 0, 64, 127
1, 101513, Note_on_c, 0, 61, 54
1, 101518, Control_c, 0, 64, 117
1, 101520, Note_on_c, 0, 69, 53
1, 101525, Note_on_c, 0, 65, 47
1, 101533, Control_c, 0, 64, 106
1, 101547, Control_c, 0, 64, 99
1, 101553, Note_on_c, 0, 53, 25
1, 101554, Note_on_c, 0, 58, 33
1, 101562, Control_c, 0, 64, 93
1, 101577, Control_c, 0, 64, 89
1, 101592, Control_c, 0, 64, 83
1, 101607, Control_c, 0, 64, 78
1, 101621, Control_c, 0, 64, 73
1, 101636, Control_c, 0, 64, 71
1, 101651, Control_c, 0, 64, 67
1, 101665, Control_c, 0, 64, 63
1, 101671, Note_off_c, 0, 63, 32
1, 101680, Control_c, 0, 64, 57
1, 101695, Control_c, 0, 64, 49
1, 101710, Control_c, 0, 64, 43
1, 101725, Control_c, 0, 64, 39
1, 101739, Control_c, 0, 64, 31
1, 101754, Control_c, 0, 64, 17
1, 101777, Control_c, 0, 64, 0
1, 101778, Note_off_c, 0, 60, 41
1, 101975, Note_off_c, 0, 53, 39
1, 102175, Note_on_c, 0, 53, 31
1, 102175, Note_on_c, 0, 67, 47
1, 102183, Note_on_c, 0, 64, 37
1, 102282, Note_off_c, 0, 69, 37
1, 102305, Note_off_c, 0, 65, 57
1, 102482, Note_on_c, 0, 69, 62
1, 102483, Note_on_c, 0, 65, 55
1, 102567, Note_off_c, 0, 67, 58
1, 102608, Note_off_c, 0, 53, 39
1, 102705, Note_off_c, 0, 64, 29
1, 102833, Note_on_c, 0, 70, 55
1, 102837, Note_on_c, 0, 67, 50
1, 102848, Note_on_c, 0, 53, 38
1, 102956, Note_off_c, 0, 69, 35
1, 103029, Note_off_c, 0, 65, 35
1, 103119, Control_c, 0, 64, 15
1, 103134, Control_c, 0, 64, 43
1, 103149, Control_c, 0, 64, 54
1, 103164, Control_c, 0, 64, 60
1, 103179, Control_c, 0, 64, 65
1, 103186, Note_off_c, 0, 67, 64
1, 103193, Control_c, 0, 64, 69
1, 103208, Control_c, 0, 64, 79
1, 103223, Control_c, 0, 64, 102
1, 103237, Control_c, 0, 64, 127
1, 103269, Note_off_c, 0, 70, 49
1, 103272, Note_off_c, 0, 58, 39
1, 103274, Note_off_c, 0, 61, 29
1, 103304, Note_off_c, 0, 53, 39
1, 103475, Note_on_c, 0, 67, 61
1, 103480, Note_on_c, 0, 64, 57
1, 103481, Note_on_c, 0, 70, 69
1, 103486, Note_on_c, 0, 61, 60
1, 103493, Note_on_c, 0, 53, 50
1, 103541, Control_c, 0, 64, 105
1, 103556, Control_c, 0, 64, 93
1, 103571, Control_c, 0, 64, 85
1, 103586, Control_c, 0, 64, 79
1, 103600, Control_c, 0, 64, 73
1, 103615, Control_c, 0, 64, 67
1, 103630, Control_c, 0, 64, 62
1, 103644, Control_c, 0, 64, 56
1, 103659, Control_c, 0, 64, 52
1, 103674, Control_c, 0, 64, 49
1, 103689, Control_c, 0, 64, 47
1, 103704, Control_c, 0, 64, 44
1, 103719, Control_c, 0, 64, 40
1, 103734, Control_c, 0, 64, 37
1, 103749, Control_c, 0, 64, 33
1, 103763, Control_c, 0, 64, 29
1, 103778, Control_c, 0, 64, 26
1, 103793, Control_c, 0, 64, 23
1, 103808, Control_c, 0, 64, 20
1, 103823, Control_c, 0, 64, 17
1, 103838, Control_c, 0, 64, 13
1, 103853, Control_c, 0, 64, 11
1, 103868, Control_c, 0, 64, 0
1, 103957, Note_off_c, 0, 53, 28
1, 104000, Note_off_c, 0, 64, 36
1, 104004, Note_off_c, 0, 70, 32
1, 104032, Note_off_c, 0, 67, 31
1, 104154, Note_on_c, 0, 67, 61
1, 104156, Note_on_c, 0, 60, 52
1, 104158, Note_on_c, 0, 64, 52
1, 104159, Note_on_c, 0, 53, 34
1, 104159, Note_on_c, 0, 70, 61
1, 104328, Note_off_c, 0, 61, 58
1, 104394, Control_c, 0, 64, 13
1, 104409, Control_c, 0, 64, 22
1, 104423, Control_c, 0, 64, 29
1, 104438, Control_c, 0, 64, 36
1, 104453, Control_c, 0, 64, 44
1, 104467, Control_c, 0, 64, 50
1, 104482, Control_c, 0, 64, 55
1, 104492, Note_off_c, 0, 64, 49
1, 104497, Control_c, 0, 64, 60
1, 104512, Control_c, 0, 64, 63
1, 104527, Control_c, 0, 64, 67
1, 104541, Control_c, 0, 64, 76
1, 104556, Control_c, 0, 64, 94
1, 104571, Control_c, 0, 64, 127
1, 104573, Note_off_c, 0, 60, 39
1, 104635, Note_off_c, 0, 53, 31
1, 104805, Note_on_c, 0, 69, 62
1, 104807, Note_on_c, 0, 65, 45
1, 104816, Note_on_c, 0, 60, 49
1, 104837, Note_on_c, 0, 53, 28
1, 104846, Control_c, 0, 64, 107
1, 104848, Note_off_c, 0, 70, 39
1, 104861, Control_c, 0, 64, 99
1, 104876, Control_c, 0, 64, 92
1, 104890, Control_c, 0, 64, 87
1, 104905, Control_c, 0, 64, 83
1, 104920, Control_c, 0, 64, 78
1, 104928, Note_off_c, 0, 67, 55
1, 104935, Control_c, 0, 64, 75
1, 104950, Control_c, 0, 64, 71
1, 104965, Control_c, 0, 64, 67
1, 104980, Control_c, 0, 64, 64
1, 104995, Control_c, 0, 64, 61
1, 105009, Control_c, 0, 64, 56
1, 105024, Control_c, 0, 64, 50
1, 105039, Control_c, 0, 64, 44
1, 105054, Control_c, 0, 64, 37
1, 105069, Control_c, 0, 64, 28
1, 105084, Control_c, 0, 64, 12
1, 105098, Control_c, 0, 64, 0
1, 105105, Note_on_c, 0, 70, 70
1, 105107, Note_on_c, 0, 67, 64
1, 105110, Note_on_c, 0, 61, 59
1, 105237, Note_off_c, 0, 69, 38
1, 105242, Note_off_c, 0, 60, 55
1, 105244, Note_off_c, 0, 53, 40
1, 105257, Note_off_c, 0, 65, 37
1, 105436, Note_on_c, 0, 63, 58
1, 105449, Note_on_c, 0, 72, 72
1, 105453, Note_on_c, 0, 53, 48
1, 105455, Note_on_c, 0, 69, 65
1, 105564, Note_off_c, 0, 70, 63
1, 105585, Note_off_c, 0, 61, 56
1, 105591, Note_off_c, 0, 67, 57
1, 105773, Control_c, 0, 64, 47
1, 105788, Control_c, 0, 64, 64
1, 105802, Control_c, 0, 64, 70
1, 105817, Control_c, 0, 64, 92
1, 105832, Control_c, 0, 64, 127
1, 105838, Note_off_c, 0, 63, 51
1, 105846, Note_off_c, 0, 69, 57
1, 105908, Note_off_c, 0, 53, 32
1, 105909, Note_off_c, 0, 72, 56
1, 106077, Note_on_c, 0, 65, 74
1, 106077, Note_on_c, 0, 72, 80
1, 106077, Note_on_c, 0, 63, 66
1, 106080, Note_on_c, 0, 53, 60
1, 106081, Note_on_c, 0, 69, 74
1, 106128, Control_c, 0, 64, 98
1, 106143, Control_c, 0, 64, 82
1, 106158, Control_c, 0, 64, 70
1, 106173, Control_c, 0, 64, 61
1, 106187, Control_c, 0, 64, 40
1, 106202, Control_c, 0, 64, 0
1, 106405, Control_c, 0, 64, 42
1, 106419, Control_c, 0, 64, 60
1, 106434, Control_c, 0, 64, 67
1, 106449, Control_c, 0, 64, 81
1, 106463, Control_c, 0, 64, 127
1, 106473, Note_off_c, 0, 69, 59
1, 106546, Note_off_c, 0, 72, 58
1, 106565, Note_off_c, 0, 53, 33
1, 106576, Note_off_c, 0, 65, 33
1, 106731, Note_on_c, 0, 61, 63
1, 106734, Note_on_c, 0, 65, 64
1, 106734, Note_on_c, 0, 72, 78
1, 106737, Note_on_c, 0, 53, 52
1, 106740, Note_on_c, 0, 69, 68
1, 106774, Control_c, 0, 64, 104
1, 106789, Control_c, 0, 64, 86
1, 106804, Control_c, 0, 64, 74
1, 106819, Control_c, 0, 64, 65
1, 106834, Control_c, 0, 64, 51
1, 106849, Control_c, 0, 64, 16
1, 106863, Control_c, 0, 64, 0
1, 106887, Note_off_c, 0, 63, 57
1, 107049, Control_c, 0, 64, 35
1, 107063, Control_c, 0, 64, 60
1, 107078, Control_c, 0, 64, 67
1, 107093, Control_c, 0, 64, 78
1, 107108, Control_c, 0, 64, 127
1, 107120, Note_off_c, 0, 61, 57
1, 107153, Note_off_c, 0, 53, 60
1, 107242, Note_off_c, 0, 72, 59
1, 107369, Note_on_c, 0, 70, 73
1, 107380, Note_on_c, 0, 67, 67
1, 107387, Note_on_c, 0, 61, 55
1, 107388, Note_on_c, 0, 53, 56
1, 107404, Control_c, 0, 64, 115
1, 107419, Control_c, 0, 64, 97
1, 107433, Control_c, 0, 64, 88
1, 107448, Control_c, 0, 64, 81
1, 107449, Note_off_c, 0, 69, 39
1, 107463, Control_c, 0, 64, 76
1, 107478, Control_c, 0, 64, 70
1, 107493, Control_c, 0, 64, 65
1, 107507, Control_c, 0, 64, 59
1, 107522, Control_c, 0, 64, 50
1, 107537, Control_c, 0, 64, 45
1, 107552, Control_c, 0, 64, 42
1, 107567, Control_c, 0, 64, 38
1, 107582, Control_c, 0, 64, 33
1, 107597, Control_c, 0, 64, 25
1, 107612, Control_c, 0, 64, 13
1, 107627, Control_c, 0, 64, 0
1, 107680, Note_on_c, 0, 72, 81
1, 107682, Note_on_c, 0, 60, 71
1, 107686, Note_on_c, 0, 69, 74
1, 107736, Note_off_c, 0, 67, 57
1, 107752, Note_off_c, 0, 70, 58
1, 107788, Note_off_c, 0, 61, 54
1, 107894, Note_off_c, 0, 69, 62
1, 107904, Note_off_c, 0, 53, 58
1, 108019, Note_on_c, 0, 58, 68
1, 108026, Note_on_c, 0, 53, 63
1, 108026, Note_on_c, 0, 73, 81
1, 108031, Note_on_c, 0, 70, 72
1, 108129, Note_off_c, 0, 72, 60
1, 108167, Note_off_c, 0, 60, 58
1, 108360, Control_c, 0, 64, 35
1, 108375, Control_c, 0, 64, 63
1, 108390, Control_c, 0, 64, 81
1, 108390, Note_off_c, 0, 65, 51
1, 108405, Control_c, 0, 64, 127
1, 108435, Note_off_c, 0, 73, 64
1, 108441, Note_off_c, 0, 53, 58
1, 108447, Note_off_c, 0, 58, 60
1, 108447, Note_off_c, 0, 70, 52
1, 108649, Note_on_c, 0, 73, 87
1, 108652, Note_on_c, 0, 70, 75
1, 108654, Note_on_c, 0, 65, 81
1, 108655, Note_on_c, 0, 58, 77
1, 108656, Note_on_c, 0, 53, 67
1, 108739, Control_c, 0, 64, 91
1, 108753, Control_c, 0, 64, 66
1, 108768, Control_c, 0, 64, 0
1, 108950, Note_on_c, 0, 56, 86
1, 109006, Note_off_c, 0, 58, 60
1, 109063, Note_off_c, 0, 65, 61
1, 109090, Note_off_c, 0, 53, 58
1, 109094, Control_c, 0, 64, 21
1, 109105, Note_off_c, 0, 70, 58
1, 109109, Control_c, 0, 64, 56
1, 109124, Control_c, 0, 64, 65
1, 109127, Note_off_c, 0, 73, 57
1, 109138, Control_c, 0, 64, 76
1, 109153, Control_c, 0, 64, 114
1, 109168, Control_c, 0, 64, 127
1, 109345, Note_on_c, 0, 70, 71
1, 109353, Note_on_c, 0, 66, 82
1, 109355, Note_on_c, 0, 73, 85
1, 109363, Note_on_c, 0, 54, 64
1, 109367, Note_on_c, 0, 53, 62
1, 109368, Control_c, 0, 64, 105
1, 109383, Control_c, 0, 64, 90
1, 109398, Control_c, 0, 64, 81
1, 109414, Control_c, 0, 64, 75
1, 109429, Control_c, 0, 64, 71
1, 109443, Control_c, 0, 64, 67
1, 109458, Control_c, 0, 64, 62
1, 109473, Control_c, 0, 64, 50
1, 109483, Note_off_c, 0, 56, 53
1, 109488, Control_c, 0, 64, 33
1, 109503, Control_c, 0, 64, 0
1, 109636, Control_c, 0, 64, 40
1, 109651, Control_c, 0, 64, 61
1, 109666, Control_c, 0, 64, 69
1, 109681, Control_c, 0, 64, 83
1, 109695, Control_c, 0, 64, 127
1, 109722, Note_off_c, 0, 53, 61
1, 109755, Note_off_c, 0, 54, 63
1, 109767, Note_off_c, 0, 66, 55
1, 109781, Note_off_c, 0, 73, 62
1, 109816, Note_off_c, 0, 70, 52
1, 109999, Note_on_c, 0, 54, 70
1, 110002, Note_on_c, 0, 51, 72
1, 110002, Note_on_c, 0, 72, 82
1, 110013, Note_on_c, 0, 69, 73
1, 110014, Note_on_c, 0, 66, 81
1, 110043, Control_c, 0, 64, 93
1, 110059, Control_c, 0, 64, 68
1, 110074, Control_c, 0, 64, 42
1, 110088, Control_c, 0, 64, 0
1, 110148, Control_c, 0, 64, 32
1, 110162, Control_c, 0, 64, 57
1, 110177, Control_c, 0, 64, 65
1, 110192, Control_c, 0, 64, 71
1, 110208, Control_c, 0, 64, 82
1, 110223, Control_c, 0, 64, 113
1, 110238, Control_c, 0, 64, 127
1, 110313, Note_on_c, 0, 53, 81
1, 110314, Note_on_c, 0, 70, 72
1, 110315, Note_on_c, 0, 49, 72
1, 110315, Note_on_c, 0, 73, 88
1, 110341, Control_c, 0, 64, 97
1, 110347, Note_off_c, 0, 54, 64
1, 110347, Note_off_c, 0, 72, 61
1, 110348, Note_off_c, 0, 69, 59
1, 110356, Control_c, 0, 64, 72
1, 110357, Note_off_c, 0, 51, 62
1, 110371, Control_c, 0, 64, 54
1, 110385, Control_c, 0, 64, 0
1, 110459, Control_c, 0, 64, 44
1, 110461, Note_off_c, 0, 70, 64
1, 110474, Control_c, 0, 64, 63
1, 110489, Control_c, 0, 64, 71
1, 110504, Control_c, 0, 64, 97
1, 110518, Control_c, 0, 64, 127
1, 110592, Note_off_c, 0, 66, 43
1, 110681, Note_on_c, 0, 69, 73
1, 110681, Note_on_c, 0, 75, 93
1, 110684, Note_on_c, 0, 66, 83
1, 110684, Note_on_c, 0, 72, 73
1, 110685, Note_on_c, 0, 51, 75
1, 110688, Note_on_c, 0, 54, 73
1, 110691, Note_on_c, 0, 48, 61
1, 110711, Control_c, 0, 64, 107
1, 110726, Control_c, 0, 64, 86
1, 110741, Control_c, 0, 64, 74
1, 110743, Note_off_c, 0, 73, 61
1, 110763, Control_c, 0, 64, 66
1, 110774, Note_off_c, 0, 49, 63
1, 110778, Control_c, 0, 64, 58
1, 110783, Note_off_c, 0, 53, 54
1, 110792, Control_c, 0, 64, 43
1, 110806, Control_c, 0, 64, 0
1, 110969, Control_c, 0, 64, 48
1, 110983, Control_c, 0, 64, 59
1, 110998, Control_c, 0, 64, 65
1, 111014, Control_c, 0, 64, 75
1, 111029, Control_c, 0, 64, 110
1, 111044, Control_c, 0, 64, 127
1, 111093, Note_off_c, 0, 66, 59
1, 111099, Note_off_c, 0, 54, 53
1, 111108, Note_off_c, 0, 51, 59
1, 111115, Note_off_c, 0, 48, 58
1, 111126, Note_off_c, 0, 69, 57
1, 111152, Note_off_c, 0, 75, 55
1, 111161, Note_off_c, 0, 72, 60
1, 111385, Note_on_c, 0, 51, 72
1, 111386, Note_on_c, 0, 75, 95
1, 111387, Note_on_c, 0, 66, 81
1, 111387, Note_on_c, 0, 72, 80
1, 111388, Note_on_c, 0, 54, 79
1, 111388, Note_on_c, 0, 69, 79
1, 111397, Note_on_c, 0, 48, 64
1, 111429, Control_c, 0, 64, 91
1, 111444, Control_c, 0, 64, 76
1, 111459, Control_c, 0, 64, 66
1, 111474, Control_c, 0, 64, 59
1, 111488, Control_c, 0, 64, 43
1, 111511, Control_c, 0, 64, 12
1, 111526, Control_c, 0, 64, 0
1, 111570, Control_c, 0, 64, 28
1, 111585, Control_c, 0, 64, 50
1, 111600, Control_c, 0, 64, 60
1, 111614, Note_off_c, 0, 72, 61
1, 111614, Control_c, 0, 64, 68
1, 111629, Control_c, 0, 64, 77
1, 111644, Control_c, 0, 64, 104
1, 111658, Control_c, 0, 64, 127
1, 111837, Note_on_c, 0, 46, 64
1, 111838, Note_on_c, 0, 49, 60
1, 111845, Note_on_c, 0, 73, 75
1, 111848, Note_on_c, 0, 77, 88
1, 111882, Control_c, 0, 64, 99
1, 111897, Control_c, 0, 64, 82
1, 111908, Note_off_c, 0, 48, 53
1, 111911, Control_c, 0, 64, 74
1, 111926, Control_c, 0, 64, 67
1, 111929, Note_off_c, 0, 75, 57
1, 111941, Control_c, 0, 64, 62
1, 111955, Control_c, 0, 64, 52
1, 111961, Note_off_c, 0, 51, 52
1, 111970, Control_c, 0, 64, 33
1, 111985, Control_c, 0, 64, 0
1, 112044, Control_c, 0, 64, 33
1, 112059, Control_c, 0, 64, 55
1, 112074, Control_c, 0, 64, 64
1, 112089, Control_c, 0, 64, 71
1, 112104, Control_c, 0, 64, 85
1, 112119, Control_c, 0, 64, 127
1, 112168, Note_off_c, 0, 49, 57
1, 112168, Note_off_c, 0, 66, 45
1, 112174, Note_off_c, 0, 54, 35
1, 112176, Note_off_c, 0, 69, 57
1, 112185, Note_off_c, 0, 77, 60
1, 112208, Note_off_c, 0, 73, 63
1, 112276, Note_off_c, 0, 46, 34
1, 112526, Note_on_c, 0, 69, 57
1, 112530, Note_on_c, 0, 78, 81
1, 112533, Note_on_c, 0, 54, 53
1, 112534, Note_on_c, 0, 51, 53
1, 112537, Note_on_c, 0, 72, 61
1, 112539, Note_on_c, 0, 66, 61
1, 112541, Control_c, 0, 64, 119
1, 112542, Note_on_c, 0, 75, 68
1, 112544, Note_on_c, 0, 45, 41
1, 112544, Note_on_c, 0, 48, 49
1, 112555, Control_c, 0, 64, 107
1, 112570, Control_c, 0, 64, 107
1, 112585, Control_c, 0, 64, 104
1, 112601, Control_c, 0, 64, 97
1, 112616, Control_c, 0, 64, 89
1, 112631, Control_c, 0, 64, 81
1, 112646, Control_c, 0, 64, 75
1, 112660, Control_c, 0, 64, 72
1, 112675, Control_c, 0, 64, 69
1, 112690, Control_c, 0, 64, 66
1, 112705, Control_c, 0, 64, 63
1, 112720, Control_c, 0, 64, 59
1, 112734, Control_c, 0, 64, 54
1, 112749, Control_c, 0, 64, 49
1, 112764, Control_c, 0, 64, 45
1, 112778, Control_c, 0, 64, 41
1, 112793, Control_c, 0, 64, 38
1, 112808, Control_c, 0, 64, 36
1, 112823, Control_c, 0, 64, 32
1, 112838, Control_c, 0, 64, 30
1, 112852, Control_c, 0, 64, 29
1, 113038, Control_c, 0, 64, 29
1, 113920, Control_c, 0, 64, 30
1, 116317, Note_off_c, 0, 45, 23
1, 116326, Note_off_c, 0, 48, 32
1, 116331, Note_off_c, 0, 72, 37
1, 116337, Note_off_c, 0, 66, 34
1, 116343, Note_off_c, 0, 51, 35
1, 116352, Note_off_c, 0, 78, 31
1, 116354, Note_off_c, 0, 54, 36
1, 116391, Note_off_c, 0, 69, 40
1, 116428, Note_off_c, 0, 75, 29
1, 117108, Control_c, 0, 64, 30
1, 117182, Control_c, 0, 64, 31
1, 117197, Control_c, 0, 64, 31
1, 117212, Control_c, 0, 64, 32
1, 117256, Control_c, 0, 64, 32
1, 117271, Control_c, 0, 64, 33
1, 117286, Control_c, 0, 64, 33
1, 117330, Control_c, 0, 64, 34
1, 117344, Control_c, 0, 64, 34
1, 117405, Control_c, 0, 64, 35
1, 117449, Control_c, 0, 64, 35
1, 117768, Control_c, 0, 64, 36
1, 117853, Note_on_c, 0, 77, 79
1, 117861, Note_on_c, 0, 65, 40
1, 117863, Note_on_c, 0, 57, 40
1, 117866, Note_on_c, 0, 72, 58
1, 118020, Control_c, 0, 64, 36
1, 118094, Control_c, 0, 64, 38
1, 118109, Control_c, 0, 64, 40
1, 118123, Control_c, 0, 64, 41
1, 118138, Control_c, 0, 64, 44
1, 118153, Control_c, 0, 64, 47
1, 118167, Control_c, 0, 64, 51
1, 118182, Control_c, 0, 64, 55
1, 118198, Control_c, 0, 64, 58
1, 118213, Control_c, 0, 64, 61
1, 118228, Control_c, 0, 64, 63
1, 118251, Control_c, 0, 64, 65
1, 118266, Control_c, 0, 64, 67
1, 118280, Control_c, 0, 64, 70
1, 118295, Control_c, 0, 64, 74
1, 118310, Control_c, 0, 64, 79
1, 118325, Control_c, 0, 64, 86
1, 118340, Control_c, 0, 64, 93
1, 118354, Control_c, 0, 64, 101
1, 118356, Note_off_c, 0, 65, 27
1, 118369, Control_c, 0, 64, 109
1, 118384, Control_c, 0, 64, 115
1, 118398, Control_c, 0, 64, 117
1, 118428, Control_c, 0, 64, 118
1, 118443, Control_c, 0, 64, 119
1, 118458, Control_c, 0, 64, 123
1, 118472, Control_c, 0, 64, 127
1, 118532, Control_c, 0, 64, 123
1, 118546, Control_c, 0, 64, 121
1, 118561, Control_c, 0, 64, 117
1, 118576, Control_c, 0, 64, 114
1, 118590, Control_c, 0, 64, 111
1, 118605, Control_c, 0, 64, 108
1, 118620, Control_c, 0, 64, 105
1, 118626, Note_on_c, 0, 73, 60
1, 118632, Note_on_c, 0, 70, 51
1, 118635, Control_c, 0, 64, 102
1, 118638, Note_on_c, 0, 58, 37
1, 118644, Note_on_c, 0, 65, 39
1, 118650, Control_c, 0, 64, 99
1, 118665, Control_c, 0, 64, 95
1, 118680, Control_c, 0, 64, 91
1, 118695, Control_c, 0, 64, 87
1, 118710, Control_c, 0, 64, 83
1, 118725, Control_c, 0, 64, 79
1, 118726, Note_off_c, 0, 72, 36
1, 118739, Control_c, 0, 64, 74
1, 118754, Control_c, 0, 64, 70
1, 118769, Control_c, 0, 64, 67
1, 118773, Note_off_c, 0, 77, 44
1, 118784, Control_c, 0, 64, 64
1, 118798, Control_c, 0, 64, 60
1, 118799, Note_off_c, 0, 57, 37
1, 118813, Control_c, 0, 64, 55
1, 118828, Control_c, 0, 64, 48
1, 118843, Control_c, 0, 64, 43
1, 118858, Control_c, 0, 64, 41
1, 118902, Control_c, 0, 64, 41
1, 118916, Control_c, 0, 64, 47
1, 118931, Control_c, 0, 64, 54
1, 118946, Control_c, 0, 64, 60
1, 118961, Control_c, 0, 64, 64
1, 118976, Control_c, 0, 64, 68
1, 118999, Control_c, 0, 64, 75
1, 119014, Control_c, 0, 64, 84
1, 119020, Note_off_c, 0, 58, 41
1, 119029, Control_c, 0, 64, 99
1, 119035, Note_off_c, 0, 70, 36
1, 119044, Control_c, 0, 64, 127
1, 119103, Note_off_c, 0, 65, 40
1, 119169, Note_off_c, 0, 73, 37
1, 119283, Note_on_c, 0, 75, 76
1, 119287, Note_on_c, 0, 70, 65
1, 119288, Note_on_c, 0, 58, 66
1, 119296, Note_on_c, 0, 54, 54
1, 119310, Control_c, 0, 64, 117
1, 119325, Control_c, 0, 64, 105
1, 119339, Control_c, 0, 64, 99
1, 119354, Control_c, 0, 64, 94
1, 119369, Control_c, 0, 64, 91
1, 119384, Control_c, 0, 64, 87
1, 119399, Control_c, 0, 64, 84
1, 119413, Control_c, 0, 64, 81
1, 119428, Control_c, 0, 64, 79
1, 119443, Control_c, 0, 64, 77
1, 119458, Control_c, 0, 64, 74
1, 119473, Control_c, 0, 64, 72
1, 119488, Control_c, 0, 64, 71
1, 119503, Control_c, 0, 64, 70
1, 119517, Control_c, 0, 64, 68
1, 119532, Control_c, 0, 64, 65
1, 119547, Control_c, 0, 64, 62
1, 119562, Control_c, 0, 64, 61
1, 119577, Control_c, 0, 64, 60
1, 119580, Note_on_c, 0, 66, 60
1, 119582, Note_on_c, 0, 72, 75
1, 119587, Note_on_c, 0, 51, 62
1, 119592, Control_c, 0, 64, 60
1, 119607, Control_c, 0, 64, 58
1, 119621, Control_c, 0, 64, 56
1, 119636, Control_c, 0, 64, 55
1, 119645, Note_off_c, 0, 54, 57
1, 119666, Control_c, 0, 64, 54
1, 119679, Note_off_c, 0, 70, 55
1, 119681, Control_c, 0, 64, 52
1, 119695, Control_c, 0, 64, 47
1, 119710, Control_c, 0, 64, 40
1, 119725, Control_c, 0, 64, 36
1, 119747, Control_c, 0, 64, 34
1, 119762, Control_c, 0, 64, 33
1, 119786, Note_off_c, 0, 75, 54
1, 119807, Control_c, 0, 64, 33
1, 119851, Control_c, 0, 64, 32
1, 119901, Note_off_c, 0, 66, 56
1, 119911, Control_c, 0, 64, 32
1, 119967, Note_on_c, 0, 70, 58
1, 119967, Note_on_c, 0, 73, 73
1, 119971, Note_on_c, 0, 53, 64
1, 119973, Note_on_c, 0, 65, 54
1, 120087, Note_off_c, 0, 72, 57
1, 120126, Note_off_c, 0, 58, 54
1, 120130, Note_off_c, 0, 51, 49
1, 120222, Control_c, 0, 64, 34
1, 120236, Control_c, 0, 64, 38
1, 120251, Control_c, 0, 64, 43
1, 120266, Control_c, 0, 64, 48
1, 120281, Control_c, 0, 64, 55
1, 120296, Control_c, 0, 64, 60
1, 120310, Control_c, 0, 64, 64
1, 120325, Control_c, 0, 64, 69
1, 120340, Control_c, 0, 64, 76
1, 120355, Control_c, 0, 64, 90
1, 120370, Control_c, 0, 64, 127
1, 120406, Note_off_c, 0, 65, 61
1, 120682, Note_on_c, 0, 72, 62
1, 120683, Note_on_c, 0, 63, 50
1, 120687, Note_on_c, 0, 69, 50
1, 120698, Note_on_c, 0, 41, 40
1, 120719, Control_c, 0, 64, 108
1, 120734, Control_c, 0, 64, 100
1, 120749, Control_c, 0, 64, 94
1, 120749, Note_off_c, 0, 70, 59
1, 120756, Note_off_c, 0, 73, 61
1, 120764, Control_c, 0, 64, 90
1, 120778, Control_c, 0, 64, 85
1, 120793, Control_c, 0, 64, 80
1, 120808, Control_c, 0, 64, 76
1, 120823, Control_c, 0, 64, 73
1, 120838, Control_c, 0, 64, 69
1, 120853, Control_c, 0, 64, 65
1, 120867, Control_c, 0, 64, 60
1, 120882, Control_c, 0, 64, 53
1, 120897, Control_c, 0, 64, 48
1, 120912, Control_c, 0, 64, 45
1, 120927, Control_c, 0, 64, 43
1, 120941, Control_c, 0, 64, 40
1, 120956, Control_c, 0, 64, 35
1, 120971, Control_c, 0, 64, 31
1, 120985, Control_c, 0, 64, 28
1, 121000, Control_c, 0, 64, 28
1, 121015, Control_c, 0, 64, 27
1, 121041, Note_on_c, 0, 70, 60
1, 121089, Control_c, 0, 64, 27
1, 121178, Control_c, 0, 64, 27
1, 121179, Note_off_c, 0, 69, 39
1, 121182, Note_off_c, 0, 72, 38
1, 121193, Control_c, 0, 64, 28
1, 121208, Control_c, 0, 64, 34
1, 121223, Control_c, 0, 64, 42
1, 121245, Control_c, 0, 64, 52
1, 121260, Control_c, 0, 64, 58
1, 121274, Control_c, 0, 64, 62
1, 121288, Control_c, 0, 64, 65
1, 121303, Control_c, 0, 64, 68
1, 121314, Note_off_c, 0, 70, 54
1, 121318, Control_c, 0, 64, 73
1, 121333, Control_c, 0, 64, 79
1, 121348, Control_c, 0, 64, 87
1, 121362, Note_off_c, 0, 63, 36
1, 121363, Control_c, 0, 64, 99
1, 121378, Control_c, 0, 64, 123
1, 121393, Control_c, 0, 64, 127
1, 121547, Note_on_c, 0, 70, 58
1, 121557, Note_on_c, 0, 62, 41
1, 121563, Note_on_c, 0, 46, 31
1, 121571, Control_c, 0, 64, 111
1, 121586, Control_c, 0, 64, 104
1, 121601, Control_c, 0, 64, 99
1, 121615, Control_c, 0, 64, 95
1, 121630, Control_c, 0, 64, 90
1, 121645, Control_c, 0, 64, 85
1, 121660, Control_c, 0, 64, 80
1, 121675, Control_c, 0, 64, 76
1, 121689, Control_c, 0, 64, 72
1, 121704, Control_c, 0, 64, 67
1, 121719, Control_c, 0, 64, 63
1, 121732, Note_off_c, 0, 41, 42
1, 121734, Control_c, 0, 64, 57
1, 121749, Control_c, 0, 64, 50
1, 121763, Control_c, 0, 64, 45
1, 121778, Control_c, 0, 64, 43
1, 121793, Control_c, 0, 64, 41
1, 121808, Control_c, 0, 64, 39
1, 121822, Control_c, 0, 64, 39
1, 121852, Control_c, 0, 64, 40
1, 121867, Control_c, 0, 64, 46
1, 121882, Control_c, 0, 64, 52
1, 121896, Control_c, 0, 64, 57
1, 121911, Control_c, 0, 64, 61
1, 121926, Control_c, 0, 64, 64
1, 121941, Control_c, 0, 64, 66
1, 121956, Control_c, 0, 64, 69
1, 121967, Note_off_c, 0, 53, 32
1, 121971, Control_c, 0, 64, 73
1, 121993, Control_c, 0, 64, 78
1, 121998, Note_off_c, 0, 46, 34
1, 122008, Control_c, 0, 64, 85
1, 122022, Control_c, 0, 64, 94
1, 122037, Control_c, 0, 64, 113
1, 122052, Control_c, 0, 64, 127
1, 122090, Note_off_c, 0, 62, 27
1, 122364, Control_c, 0, 64, 121
1, 122370, Note_on_c, 0, 65, 42
1, 122379, Control_c, 0, 64, 105
1, 122384, Note_on_c, 0, 46, 21
1, 122385, Note_on_c, 0, 62, 36
1, 122389, Note_on_c, 0, 53, 26
1, 122394, Control_c, 0, 64, 97
1, 122409, Control_c, 0, 64, 91
1, 122424, Control_c, 0, 64, 83
1, 122438, Control_c, 0, 64, 75
1, 122453, Control_c, 0, 64, 67
1, 122468, Control_c, 0, 64, 61
1, 122483, Control_c, 0, 64, 56
1, 122498, Control_c, 0, 64, 57
1, 122512, Control_c, 0, 64, 62
1, 122527, Control_c, 0, 64, 65
1, 122538, Note_off_c, 0, 62, 53
1, 122542, Control_c, 0, 64, 69
1, 122557, Control_c, 0, 64, 72
1, 122571, Control_c, 0, 64, 75
1, 122586, Control_c, 0, 64, 77
1, 122601, Control_c, 0, 64, 77
1, 122660, Control_c, 0, 64, 77
1, 122675, Control_c, 0, 64, 76
1, 122695, Note_on_c, 0, 66, 53
1, 122707, Note_on_c, 0, 63, 47
1, 122710, Note_on_c, 0, 51, 47
1, 122719, Control_c, 0, 64, 76
1, 122742, Control_c, 0, 64, 75
1, 122757, Control_c, 0, 64, 73
1, 122771, Control_c, 0, 64, 72
1, 122780, Note_off_c, 0, 65, 51
1, 122786, Control_c, 0, 64, 72
1, 122801, Control_c, 0, 64, 71
1, 122816, Control_c, 0, 64, 69
1, 122831, Control_c, 0, 64, 68
1, 122845, Control_c, 0, 64, 68
1, 122860, Note_off_c, 0, 46, 48
1, 122860, Control_c, 0, 64, 67
1, 122875, Control_c, 0, 64, 67
1, 122890, Control_c, 0, 64, 65
1, 122905, Control_c, 0, 64, 64
1, 122963, Control_c, 0, 64, 63
1, 122978, Control_c, 0, 64, 63
1, 123024, Control_c, 0, 64, 62
1, 123036, Note_on_c, 0, 46, 24
1, 123037, Note_on_c, 0, 65, 47
1, 123037, Note_on_c, 0, 68, 55
1, 123039, Control_c, 0, 64, 61
1, 123043, Note_on_c, 0, 50, 40
1, 123054, Control_c, 0, 64, 61
1, 123098, Control_c, 0, 64, 60
1, 123113, Control_c, 0, 64, 60
1, 123128, Control_c, 0, 64, 58
1, 123129, Note_off_c, 0, 66, 36
1, 123142, Note_off_c, 0, 51, 50
1, 123142, Control_c, 0, 64, 57
1, 123157, Control_c, 0, 64, 57
1, 123187, Control_c, 0, 64, 56
1, 123202, Control_c, 0, 64, 55
1, 123209, Note_off_c, 0, 63, 30
1, 123217, Control_c, 0, 64, 55
1, 123232, Control_c, 0, 64, 54
1, 123247, Control_c, 0, 64, 53
1, 123261, Control_c, 0, 64, 53
1, 123276, Control_c, 0, 64, 52
1, 123291, Control_c, 0, 64, 52
1, 123306, Control_c, 0, 64, 51
1, 123346, Note_on_c, 0, 48, 53
1, 123350, Control_c, 0, 64, 51
1, 123380, Control_c, 0, 64, 50
1, 123409, Control_c, 0, 64, 50
1, 123454, Note_off_c, 0, 53, 22
1, 123468, Control_c, 0, 64, 49
1, 123487, Note_off_c, 0, 65, 56
1, 123506, Note_off_c, 0, 68, 47
1, 123515, Note_off_c, 0, 46, 40
1, 123521, Control_c, 0, 64, 49
1, 123539, Note_off_c, 0, 50, 34
1, 123549, Control_c, 0, 64, 48
1, 123593, Control_c, 0, 64, 48
1, 123623, Control_c, 0, 64, 47
1, 123667, Control_c, 0, 64, 47
1, 123670, Note_on_c, 0, 51, 57
1, 123682, Note_on_c, 0, 68, 56
1, 123688, Note_on_c, 0, 65, 55
1, 123691, Note_on_c, 0, 46, 29
1, 123697, Control_c, 0, 64, 46
1, 123727, Control_c, 0, 64, 46
1, 123756, Control_c, 0, 64, 45
1, 123787, Control_c, 0, 64, 45
1, 123810, Note_off_c, 0, 48, 56
1, 123816, Control_c, 0, 64, 44
1, 123831, Control_c, 0, 64, 44
1, 123861, Control_c, 0, 64, 43
1, 123876, Control_c, 0, 64, 43
1, 123905, Control_c, 0, 64, 42
1, 123935, Control_c, 0, 64, 42
1, 123999, Note_on_c, 0, 50, 49
1, 124112, Note_off_c, 0, 51, 38
1, 124122, Note_off_c, 0, 65, 37
1, 124143, Control_c, 0, 64, 42
1, 124157, Control_c, 0, 64, 45
1, 124160, Note_off_c, 0, 68, 33
1, 124172, Control_c, 0, 64, 49
1, 124187, Control_c, 0, 64, 56
1, 124201, Control_c, 0, 64, 61
1, 124216, Control_c, 0, 64, 64
1, 124239, Control_c, 0, 64, 66
1, 124254, Control_c, 0, 64, 69
1, 124269, Control_c, 0, 64, 73
1, 124275, Note_off_c, 0, 46, 39
1, 124283, Note_off_c, 0, 50, 37
1, 124284, Control_c, 0, 64, 79
1, 124298, Control_c, 0, 64, 86
1, 124313, Control_c, 0, 64, 94
1, 124328, Control_c, 0, 64, 104
1, 124343, Control_c, 0, 64, 115
1, 124358, Control_c, 0, 64, 121
1, 124416, Control_c, 0, 64, 118
1, 124431, Control_c, 0, 64, 112
1, 124446, Control_c, 0, 64, 107
1, 124461, Control_c, 0, 64, 104
1, 124475, Note_on_c, 0, 68, 55
1, 124476, Control_c, 0, 64, 101
1, 124477, Note_on_c, 0, 65, 48
1, 124483, Note_on_c, 0, 50, 35
1, 124490, Control_c, 0, 64, 98
1, 124498, Note_on_c, 0, 46, 33
1, 124505, Control_c, 0, 64, 95
1, 124520, Control_c, 0, 64, 92
1, 124535, Control_c, 0, 64, 87
1, 124550, Control_c, 0, 64, 83
1, 124564, Control_c, 0, 64, 78
1, 124579, Control_c, 0, 64, 75
1, 124595, Control_c, 0, 64, 74
1, 124610, Control_c, 0, 64, 73
1, 124625, Control_c, 0, 64, 70
1, 124639, Control_c, 0, 64, 67
1, 124654, Control_c, 0, 64, 64
1, 124669, Control_c, 0, 64, 63
1, 124684, Control_c, 0, 64, 62
1, 124699, Control_c, 0, 64, 62
1, 124713, Control_c, 0, 64, 60
1, 124728, Control_c, 0, 64, 58
1, 124743, Control_c, 0, 64, 58
1, 124758, Control_c, 0, 64, 57
1, 124773, Control_c, 0, 64, 57
1, 124788, Control_c, 0, 64, 55
1, 124803, Control_c, 0, 64, 54
1, 124818, Control_c, 0, 64, 53
1, 124847, Control_c, 0, 64, 52
1, 124862, Control_c, 0, 64, 52
1, 124877, Control_c, 0, 64, 51
1, 124892, Control_c, 0, 64, 51
1, 124921, Control_c, 0, 64, 50
1, 124929, Note_off_c, 0, 46, 32
1, 124936, Control_c, 0, 64, 50
1, 124951, Control_c, 0, 64, 49
1, 124966, Control_c, 0, 64, 49
1, 125238, Note_on_c, 0, 66, 50
1, 125241, Note_on_c, 0, 51, 35
1, 125247, Note_on_c, 0, 63, 36
1, 125274, Note_on_c, 0, 46, 8
1, 125417, Note_off_c, 0, 65, 37
1, 125419, Note_off_c, 0, 68, 35
1, 125426, Note_off_c, 0, 50, 41
1, 125581, Note_on_c, 0, 53, 48
1, 125751, Note_off_c, 0, 51, 43
1, 125789, Note_off_c, 0, 46, 40
1, 126037, Note_on_c, 0, 54, 40
1, 126055, Note_on_c, 0, 46, 29
1, 126210, Note_off_c, 0, 53, 48
1, 126272, Control_c, 0, 64, 49
1, 126286, Control_c, 0, 64, 50
1, 126301, Control_c, 0, 64, 51
1, 126316, Control_c, 0, 64, 53
1, 126331, Control_c, 0, 64, 55
1, 126346, Control_c, 0, 64, 57
1, 126360, Control_c, 0, 64, 59
1, 126375, Control_c, 0, 64, 61
1, 126390, Control_c, 0, 64, 63
1, 126404, Control_c, 0, 64, 65
1, 126419, Control_c, 0, 64, 69
1, 126434, Control_c, 0, 64, 73
1, 126449, Control_c, 0, 64, 79
1, 126464, Control_c, 0, 64, 86
1, 126486, Control_c, 0, 64, 97
1, 126501, Control_c, 0, 64, 116
1, 126516, Control_c, 0, 64, 127
1, 126536, Note_off_c, 0, 46, 25
1, 126565, Note_off_c, 0, 54, 39
1, 127038, Note_on_c, 0, 65, 42
1, 127041, Note_on_c, 0, 62, 37
1, 127050, Control_c, 0, 64, 123
1, 127050, Note_on_c, 0, 54, 33
1, 127065, Control_c, 0, 64, 115
1, 127073, Note_on_c, 0, 46, 30
1, 127080, Control_c, 0, 64, 107
1, 127095, Control_c, 0, 64, 100
1, 127109, Control_c, 0, 64, 94
1, 127124, Control_c, 0, 64, 90
1, 127139, Control_c, 0, 64, 86
1, 127154, Control_c, 0, 64, 83
1, 127169, Control_c, 0, 64, 77
1, 127183, Control_c, 0, 64, 72
1, 127190, Note_off_c, 0, 63, 39
1, 127198, Control_c, 0, 64, 68
1, 127213, Control_c, 0, 64, 65
1, 127235, Control_c, 0, 64, 62
1, 127250, Control_c, 0, 64, 60
1, 127265, Control_c, 0, 64, 56
1, 127280, Control_c, 0, 64, 54
1, 127295, Control_c, 0, 64, 53
1, 127309, Control_c, 0, 64, 52
1, 127324, Control_c, 0, 64, 51
1, 127339, Control_c, 0, 64, 51
1, 127354, Control_c, 0, 64, 50
1, 127369, Control_c, 0, 64, 49
1, 127383, Control_c, 0, 64, 48
1, 127413, Control_c, 0, 64, 48
1, 127457, Control_c, 0, 64, 47
1, 127550, Note_on_c, 0, 63, 41
1, 127554, Note_on_c, 0, 60, 37
1, 127624, Note_off_c, 0, 66, 29
1, 127703, Note_off_c, 0, 62, 37
1, 127720, Note_off_c, 0, 65, 36
1, 127768, Note_off_c, 0, 46, 39
1, 128364, Note_on_c, 0, 53, 24
1, 128369, Note_on_c, 0, 62, 29
1, 128371, Note_on_c, 0, 65, 33
1, 128400, Note_on_c, 0, 46, 17
1, 128574, Note_off_c, 0, 63, 36
1, 128590, Note_off_c, 0, 54, 42
1, 128595, Note_off_c, 0, 60, 43
1, 133036, Note_off_c, 0, 46, 23
1, 133131, Note_off_c, 0, 53, 29
1, 133156, Note_off_c, 0, 62, 24
1, 133213, Note_off_c, 0, 65, 24
1, 133223, Note_off_c, 0, 70, 28
1, 134655, Control_c, 0, 64, 47
1, 135604, Note_on_c, 0, 70, 48
1, 136494, Note_on_c, 0, 65, 34
1, 136710, Note_off_c, 0, 70, 26
1, 137324, Control_c, 0, 64, 46
1, 137456, Note_off_c, 0, 65, 38
1, 137916, Note_on_c, 0, 78, 53
1, 138314, Note_on_c, 0, 77, 59
1, 138402, Note_off_c, 0, 78, 50
1, 138729, Note_on_c, 0, 75, 61
1, 138861, Note_off_c, 0, 77, 52
1, 139157, Note_on_c, 0, 73, 51
1, 139165, Note_on_c, 0, 65, 59
1, 139295, Note_off_c, 0, 75, 51
1, 139597, Note_on_c, 0, 72, 60
1, 139689, Note_off_c, 0, 73, 51
1, 139926, Control_c, 0, 64, 46
1, 140008, Note_on_c, 0, 73, 53
1, 140021, Note_on_c, 0, 58, 39
1, 140128, Note_off_c, 0, 72, 55
1, 140217, Note_off_c, 0, 65, 37
1, 140428, Note_on_c, 0, 75, 52
1, 140509, Note_off_c, 0, 73, 56
1, 140762, Note_off_c, 0, 58, 35
1, 140818, Note_on_c, 0, 77, 58
1, 140874, Note_off_c, 0, 75, 59
1, 141248, Note_off_c, 0, 77, 56
1, 141254, Note_on_c, 0, 76, 53
1, 141263, Note_on_c, 0, 73, 42
1, 141338, Note_off_c, 0, 76, 56
1, 141439, Note_on_c, 0, 77, 65
1, 141528, Note_off_c, 0, 77, 59
1, 141672, Note_on_c, 0, 79, 65
1, 141675, Note_on_c, 0, 72, 47
1, 141770, Note_off_c, 0, 73, 34
1, 142067, Note_on_c, 0, 70, 58
1, 142193, Note_off_c, 0, 72, 50
1, 142476, Note_on_c, 0, 68, 57
1, 142604, Note_off_c, 0, 70, 50
1, 142831, Note_on_c, 0, 67, 40
1, 142840, Note_on_c, 0, 80, 58
1, 142861, Note_off_c, 0, 79, 57
1, 142939, Note_off_c, 0, 80, 61
1, 142958, Note_off_c, 0, 68, 36
1, 143034, Note_on_c, 0, 79, 60
1, 143111, Note_off_c, 0, 79, 60
1, 143247, Note_on_c, 0, 68, 49
1, 143255, Note_on_c, 0, 77, 64
1, 143375, Note_off_c, 0, 67, 47
1, 143645, Note_on_c, 0, 70, 56
1, 143880, Note_off_c, 0, 68, 31
1, 144068, Note_on_c, 0, 72, 51
1, 144252, Note_off_c, 0, 70, 37
1, 144459, Note_on_c, 0, 75, 48
1, 144468, Note_off_c, 0, 77, 38
1, 144524, Note_off_c, 0, 75, 56
1, 144644, Note_on_c, 0, 73, 52
1, 144712, Note_off_c, 0, 73, 52
1, 144857, Note_on_c, 0, 75, 55
1, 145237, Note_on_c, 0, 77, 65
1, 145241, Note_off_c, 0, 72, 35
1, 145243, Note_on_c, 0, 70, 45
1, 145322, Note_off_c, 0, 70, 53
1, 145324, Note_off_c, 0, 75, 53
1, 145419, Note_on_c, 0, 69, 55
1, 145514, Note_off_c, 0, 69, 55
1, 145642, Note_on_c, 0, 70, 51
1, 145644, Note_on_c, 0, 78, 66
1, 145766, Note_off_c, 0, 77, 55
1, 146027, Note_on_c, 0, 72, 58
1, 146147, Note_off_c, 0, 70, 38
1, 146453, Note_on_c, 0, 73, 50
1, 146656, Note_off_c, 0, 72, 38
1, 146838, Note_on_c, 0, 77, 46
1, 146900, Note_off_c, 0, 78, 54
1, 146954, Note_off_c, 0, 77, 42
1, 147028, Note_on_c, 0, 75, 57
1, 147088, Control_c, 0, 64, 45
1, 147100, Note_off_c, 0, 75, 54
1, 147237, Note_on_c, 0, 77, 67
1, 147604, Note_on_c, 0, 72, 51
1, 147609, Note_on_c, 0, 79, 68
1, 147665, Note_off_c, 0, 73, 36
1, 147718, Note_off_c, 0, 72, 57
1, 147718, Note_off_c, 0, 77, 56
1, 147794, Note_on_c, 0, 70, 51
1, 147950, Note_off_c, 0, 70, 32
1, 147994, Note_on_c, 0, 80, 69
1, 148018, Note_on_c, 0, 72, 58
1, 148125, Note_off_c, 0, 79, 54
1, 148363, Note_on_c, 0, 74, 67
1, 148467, Note_off_c, 0, 72, 54
1, 148775, Note_on_c, 0, 75, 61
1, 148959, Note_off_c, 0, 74, 52
1, 149178, Note_on_c, 0, 79, 54
1, 149219, Note_off_c, 0, 80, 57
1, 149266, Note_off_c, 0, 79, 59
1, 149349, Control_c, 0, 64, 45
1, 149361, Note_on_c, 0, 77, 71
1, 149434, Note_off_c, 0, 77, 57
1, 149560, Note_on_c, 0, 79, 69
1, 149818, Note_off_c, 0, 75, 50
1, 149875, Control_c, 0, 64, 44
1, 149947, Note_on_c, 0, 81, 72
1, 149954, Note_on_c, 0, 73, 67
1, 150024, Note_off_c, 0, 79, 62
1, 150051, Note_off_c, 0, 73, 62
1, 150134, Note_on_c, 0, 72, 71
1, 150198, Note_off_c, 0, 72, 63
1, 150358, Note_on_c, 0, 82, 70
1, 150361, Note_on_c, 0, 58, 67
1, 150367, Note_on_c, 0, 73, 62
1, 150429, Note_off_c, 0, 81, 61
1, 150760, Note_on_c, 0, 75, 69
1, 150862, Note_off_c, 0, 73, 53
1, 151169, Note_on_c, 0, 77, 62
1, 151169, Note_on_c, 0, 53, 45
1, 151269, Note_off_c, 0, 75, 37
1, 151335, Note_off_c, 0, 58, 48
1, 151565, Note_on_c, 0, 81, 46
1, 151565, Control_c, 0, 64, 44
1, 151600, Note_off_c, 0, 82, 26
1, 151628, Note_off_c, 0, 81, 55
1, 151737, Note_on_c, 0, 79, 59
1, 151800, Note_off_c, 0, 79, 60
1, 151868, Note_off_c, 0, 53, 37
1, 151948, Note_on_c, 0, 81, 60
1, 152313, Note_on_c, 0, 82, 68
1, 152315, Note_on_c, 0, 66, 65
1, 152323, Note_on_c, 0, 75, 57
1, 152343, Note_off_c, 0, 81, 63
1, 152349, Note_off_c, 0, 77, 57
1, 152403, Control_c, 0, 64, 43
1, 152408, Note_off_c, 0, 75, 61
1, 152489, Note_on_c, 0, 73, 71
1, 152564, Note_off_c, 0, 73, 55
1, 152707, Note_on_c, 0, 65, 62
1, 152707, Note_on_c, 0, 84, 80
1, 152718, Note_on_c, 0, 75, 65
1, 152760, Note_off_c, 0, 66, 58
1, 152767, Note_off_c, 0, 82, 58
1, 153095, Note_on_c, 0, 63, 71
1, 153163, Note_off_c, 0, 65, 55
1, 153404, Control_c, 0, 64, 43
1, 153485, Control_c, 0, 64, 42
1, 153501, Note_on_c, 0, 53, 70
1, 153501, Note_on_c, 0, 61, 55
1, 153555, Note_off_c, 0, 63, 56
1, 153574, Control_c, 0, 64, 42
1, 153677, Note_off_c, 0, 84, 38
1, 153764, Note_off_c, 0, 75, 61
1, 153837, Note_off_c, 0, 61, 61
1, 153883, Note_on_c, 0, 60, 54
1, 153890, Note_on_c, 0, 82, 65
1, 153894, Note_on_c, 0, 73, 62
1, 153953, Note_off_c, 0, 73, 60
1, 153962, Note_off_c, 0, 82, 63
1, 154057, Note_on_c, 0, 75, 65
1, 154060, Note_on_c, 0, 81, 62
1, 154097, Note_off_c, 0, 60, 58
1, 154138, Note_off_c, 0, 75, 51
1, 154143, Note_off_c, 0, 81, 56
1, 154282, Note_on_c, 0, 46, 50
1, 154284, Note_on_c, 0, 82, 62
1, 154288, Note_on_c, 0, 73, 60
1, 154290, Note_on_c, 0, 58, 45
1, 154388, Note_off_c, 0, 53, 58
1, 154507, Note_off_c, 0, 58, 60
1, 154540, Note_off_c, 0, 73, 58
1, 154648, Control_c, 0, 64, 41
1, 154671, Note_on_c, 0, 80, 68
1, 154674, Note_on_c, 0, 60, 64
1, 154680, Note_on_c, 0, 72, 60
1, 154725, Note_off_c, 0, 60, 60
1, 154843, Note_on_c, 0, 61, 75
1, 154844, Note_off_c, 0, 72, 60
1, 154901, Control_c, 0, 64, 41
1, 154901, Note_off_c, 0, 46, 63
1, 154922, Note_off_c, 0, 61, 59
1, 155051, Note_on_c, 0, 78, 74
1, 155054, Note_on_c, 0, 70, 62
1, 155059, Note_on_c, 0, 63, 61
1, 155071, Note_off_c, 0, 82, 57
1, 155148, Note_off_c, 0, 80, 58
1, 155294, Control_c, 0, 64, 40
1, 155423, Note_on_c, 0, 61, 59
1, 155425, Note_on_c, 0, 77, 72
1, 155428, Note_on_c, 0, 65, 64
1, 155486, Note_off_c, 0, 63, 56
1, 155501, Control_c, 0, 64, 40
1, 155507, Note_off_c, 0, 78, 59
1, 155619, Control_c, 0, 64, 39
1, 155821, Control_c, 0, 64, 39
1, 155834, Note_on_c, 0, 66, 60
1, 155837, Note_on_c, 0, 75, 64
1, 155843, Note_on_c, 0, 60, 47
1, 155902, Note_off_c, 0, 61, 36
1, 155930, Note_off_c, 0, 77, 62
1, 155953, Note_off_c, 0, 65, 58
1, 156027, Note_off_c, 0, 70, 57
1, 156213, Note_on_c, 0, 58, 42
1, 156218, Note_on_c, 0, 69, 53
1, 156221, Note_off_c, 0, 60, 51
1, 156273, Note_off_c, 0, 69, 55
1, 156386, Note_on_c, 0, 70, 56
1, 156449, Note_off_c, 0, 70, 52
1, 156494, Note_off_c, 0, 66, 49
1, 156592, Note_on_c, 0, 65, 28
1, 156609, Note_on_c, 0, 57, 37
1, 156609, Note_on_c, 0, 72, 59
1, 156668, Note_off_c, 0, 58, 37
1, 156730, Note_off_c, 0, 75, 58
1, 156985, Note_on_c, 0, 69, 47
1, 156988, Note_on_c, 0, 53, 40
1, 156988, Note_on_c, 0, 77, 66
1, 156993, Note_on_c, 0, 63, 43
1, 156995, Note_off_c, 0, 57, 50
1, 157003, Note_off_c, 0, 72, 64
1, 157068, Note_off_c, 0, 77, 62
1, 157134, Note_off_c, 0, 63, 59
1, 157157, Note_on_c, 0, 78, 77
1, 157267, Note_off_c, 0, 78, 56
1, 157361, Note_on_c, 0, 55, 41
1, 157373, Note_on_c, 0, 77, 79
1, 157376, Note_on_c, 0, 70, 61
1, 157379, Note_on_c, 0, 61, 50
1, 157431, Note_off_c, 0, 69, 53
1, 157467, Note_off_c, 0, 65, 46
1, 157503, Note_off_c, 0, 53, 41
1, 157727, Note_on_c, 0, 60, 56
1, 157733, Note_off_c, 0, 55, 55
1, 157735, Note_on_c, 0, 75, 82
1, 157739, Note_on_c, 0, 57, 47
1, 157748, Note_on_c, 0, 72, 70
1, 157783, Note_off_c, 0, 61, 48
1, 157792, Control_c, 0, 64, 39
1, 157822, Control_c, 0, 64, 43
1, 157825, Note_off_c, 0, 77, 52
1, 157825, Note_off_c, 0, 70, 60
1, 157837, Control_c, 0, 64, 49
1, 157851, Control_c, 0, 64, 57
1, 157866, Control_c, 0, 64, 62
1, 157873, Note_off_c, 0, 60, 62
1, 157881, Control_c, 0, 64, 66
1, 157891, Note_off_c, 0, 57, 64
1, 157896, Control_c, 0, 64, 72
1, 157911, Control_c, 0, 64, 84
1, 157932, Control_c, 0, 64, 114
1, 157947, Control_c, 0, 64, 127
1, 157955, Note_off_c, 0, 75, 61
1, 158144, Note_on_c, 0, 46, 74
1, 158152, Note_on_c, 0, 58, 63
1, 158152, Note_on_c, 0, 73, 86
1, 158168, Note_on_c, 0, 61, 65
1, 158201, Control_c, 0, 64, 105
1, 158216, Control_c, 0, 64, 94
1, 158230, Control_c, 0, 64, 85
1, 158245, Control_c, 0, 64, 78
1, 158260, Control_c, 0, 64, 74
1, 158275, Control_c, 0, 64, 70
1, 158289, Control_c, 0, 64, 67
1, 158304, Control_c, 0, 64, 64
1, 158319, Control_c, 0, 64, 60
1, 158334, Control_c, 0, 64, 57
1, 158349, Control_c, 0, 64, 55
1, 158366, Note_off_c, 0, 72, 62
1, 158368, Note_off_c, 0, 61, 55
1, 158378, Control_c, 0, 64, 54
1, 158393, Control_c, 0, 64, 53
1, 158408, Control_c, 0, 64, 52
1, 158423, Control_c, 0, 64, 50
1, 158437, Control_c, 0, 64, 49
1, 158452, Control_c, 0, 64, 49
1, 158467, Control_c, 0, 64, 48
1, 158481, Control_c, 0, 64, 47
1, 158496, Control_c, 0, 64, 46
1, 158507, Note_off_c, 0, 58, 51
1, 158511, Control_c, 0, 64, 45
1, 158526, Control_c, 0, 64, 43
1, 158541, Note_on_c, 0, 48, 58
1, 158541, Note_on_c, 0, 70, 66
1, 158541, Control_c, 0, 64, 43
1, 158545, Note_on_c, 0, 63, 61
1, 158555, Control_c, 0, 64, 42
1, 158570, Control_c, 0, 64, 41
1, 158585, Control_c, 0, 64, 40
1, 158586, Note_off_c, 0, 63, 59
1, 158600, Control_c, 0, 64, 38
1, 158615, Control_c, 0, 64, 37
1, 158620, Note_off_c, 0, 70, 61
1, 158630, Control_c, 0, 64, 36
1, 158645, Control_c, 0, 64, 35
1, 158660, Control_c, 0, 64, 34
1, 158681, Control_c, 0, 64, 33
1, 158696, Control_c, 0, 64, 31
1, 158711, Control_c, 0, 64, 30
1, 158713, Note_on_c, 0, 69, 70
1, 158726, Control_c, 0, 64, 30
1, 158741, Control_c, 0, 64, 29
1, 158774, Note_off_c, 0, 69, 60
1, 158924, Note_on_c, 0, 49, 48
1, 158924, Note_on_c, 0, 70, 63
1, 158929, Note_on_c, 0, 65, 54
1, 158937, Note_on_c, 0, 41, 51
1, 159009, Note_off_c, 0, 48, 59
1, 159026, Note_off_c, 0, 46, 53
1, 159304, Note_on_c, 0, 51, 57
1, 159315, Note_on_c, 0, 66, 61
1, 159319, Control_c, 0, 64, 30
1, 159334, Control_c, 0, 64, 32
1, 159349, Control_c, 0, 64, 35
1, 159364, Control_c, 0, 64, 38
1, 159378, Control_c, 0, 64, 41
1, 159393, Control_c, 0, 64, 46
1, 159408, Control_c, 0, 64, 52
1, 159417, Note_off_c, 0, 49, 61
1, 159430, Control_c, 0, 64, 57
1, 159445, Control_c, 0, 64, 61
1, 159446, Note_off_c, 0, 65, 58
1, 159460, Control_c, 0, 64, 64
1, 159475, Control_c, 0, 64, 66
1, 159490, Control_c, 0, 64, 70
1, 159504, Control_c, 0, 64, 78
1, 159519, Control_c, 0, 64, 92
1, 159534, Control_c, 0, 64, 114
1, 159542, Note_off_c, 0, 73, 55
1, 159549, Control_c, 0, 64, 127
1, 159709, Note_on_c, 0, 72, 78
1, 159717, Note_on_c, 0, 53, 42
1, 159720, Note_on_c, 0, 60, 55
1, 159742, Control_c, 0, 64, 117
1, 159757, Control_c, 0, 64, 106
1, 159772, Control_c, 0, 64, 95
1, 159787, Control_c, 0, 64, 88
1, 159801, Control_c, 0, 64, 83
1, 159816, Control_c, 0, 64, 80
1, 159831, Control_c, 0, 64, 77
1, 159846, Control_c, 0, 64, 73
1, 159849, Note_off_c, 0, 41, 44
1, 159861, Control_c, 0, 64, 69
1, 159876, Control_c, 0, 64, 67
1, 159888, Note_off_c, 0, 51, 59
1, 159891, Control_c, 0, 64, 64
1, 159906, Control_c, 0, 64, 63
1, 159921, Control_c, 0, 64, 61
1, 159935, Control_c, 0, 64, 59
1, 159950, Control_c, 0, 64, 58
1, 159958, Note_off_c, 0, 66, 36
1, 159965, Control_c, 0, 64, 57
1, 159980, Control_c, 0, 64, 56
1, 159995, Control_c, 0, 64, 55
1, 160009, Control_c, 0, 64, 55
1, 160024, Control_c, 0, 64, 54
1, 160039, Control_c, 0, 64, 53
1, 160053, Control_c, 0, 64, 53
1, 160083, Control_c, 0, 64, 52
1, 160096, Note_on_c, 0, 54, 63
1, 160180, Control_c, 0, 64, 52
1, 160183, Note_off_c, 0, 53, 56
1, 160498, Note_on_c, 0, 68, 59
1, 160499, Note_on_c, 0, 56, 41
1, 160501, Note_on_c, 0, 65, 49
1, 160502, Note_on_c, 0, 53, 44
1, 160645, Note_off_c, 0, 70, 57
1, 160651, Note_off_c, 0, 54, 34
1, 160708, Note_off_c, 0, 60, 47
1, 160858, Note_on_c, 0, 51, 54
1, 160863, Note_off_c, 0, 53, 54
1, 161260, Note_on_c, 0, 70, 62
1, 161268, Note_on_c, 0, 58, 40
1, 161271, Note_on_c, 0, 50, 30
1, 161327, Note_off_c, 0, 56, 45
1, 161338, Note_off_c, 0, 51, 36
1, 161455, Note_off_c, 0, 72, 56
1, 161471, Note_off_c, 0, 50, 46
1, 161507, Control_c, 0, 64, 52
1, 161521, Control_c, 0, 64, 54
1, 161536, Control_c, 0, 64, 55
1, 161551, Control_c, 0, 64, 56
1, 161566, Control_c, 0, 64, 57
1, 161581, Control_c, 0, 64, 57
1, 161596, Control_c, 0, 64, 58
1, 161638, Note_on_c, 0, 62, 49
1, 161664, Note_on_c, 0, 46, 34
1, 161691, Note_off_c, 0, 65, 61
1, 161706, Control_c, 0, 64, 57
1, 161781, Control_c, 0, 64, 57
1, 161811, Control_c, 0, 64, 56
1, 161885, Control_c, 0, 64, 56
1, 161929, Control_c, 0, 64, 55
1, 162003, Control_c, 0, 64, 55
1, 162024, Note_on_c, 0, 63, 64
1, 162025, Note_on_c, 0, 48, 38
1, 162062, Control_c, 0, 64, 54
1, 162137, Control_c, 0, 64, 54
1, 162153, Note_off_c, 0, 62, 57
1, 162174, Note_off_c, 0, 46, 37
1, 162392, Note_on_c, 0, 50, 35
1, 162398, Note_on_c, 0, 65, 65
1, 162541, Note_off_c, 0, 48, 38
1, 162554, Note_off_c, 0, 68, 58
1, 162586, Note_off_c, 0, 63, 58
1, 162603, Control_c, 0, 64, 53
1, 162797, Note_on_c, 0, 66, 60
1, 162799, Note_on_c, 0, 51, 39
1, 162845, Note_off_c, 0, 50, 41
1, 163033, Note_off_c, 0, 65, 58
1, 163178, Note_on_c, 0, 53, 44
1, 163178, Note_on_c, 0, 63, 65
1, 163228, Note_off_c, 0, 51, 41
1, 163244, Note_off_c, 0, 63, 57
1, 163350, Note_on_c, 0, 62, 56
1, 163413, Note_off_c, 0, 62, 56
1, 163426, Control_c, 0, 64, 53
1, 163557, Note_on_c, 0, 63, 50
1, 163566, Note_on_c, 0, 51, 42
1, 163635, Note_off_c, 0, 53, 29
1, 163691, Note_off_c, 0, 58, 36
1, 163693, Control_c, 0, 64, 52
1, 163708, Control_c, 0, 64, 52
1, 163739, Control_c, 0, 64, 51
1, 163768, Control_c, 0, 64, 51
1, 163783, Control_c, 0, 64, 50
1, 163798, Control_c, 0, 64, 50
1, 163931, Note_on_c, 0, 49, 34
1, 163933, Note_on_c, 0, 75, 55
1, 164034, Note_off_c, 0, 70, 60
1, 164086, Note_off_c, 0, 51, 31
1, 164316, Note_on_c, 0, 68, 52
1, 164322, Note_on_c, 0, 60, 29
1, 164323, Note_on_c, 0, 48, 28
1, 164377, Note_off_c, 0, 49, 33
1, 164474, Note_off_c, 0, 60, 46
1, 164502, Note_off_c, 0, 48, 52
1, 164539, Note_off_c, 0, 75, 32
1, 164720, Note_on_c, 0, 48, 43
1, 164734, Note_on_c, 0, 44, 26
1, 165078, Note_on_c, 0, 49, 40
1, 165083, Note_on_c, 0, 46, 34
1, 165164, Note_off_c, 0, 48, 36
1, 165225, Note_off_c, 0, 44, 37
1, 165448, Note_off_c, 0, 49, 52
1, 165450, Control_c, 0, 64, 50
1, 165465, Control_c, 0, 64, 51
1, 165465, Note_on_c, 0, 48, 40
1, 165469, Note_on_c, 0, 51, 43
1, 165509, Control_c, 0, 64, 51
1, 165536, Note_off_c, 0, 66, 39
1, 165557, Note_off_c, 0, 46, 38
1, 165568, Control_c, 0, 64, 52
1, 165583, Control_c, 0, 64, 52
1, 165598, Control_c, 0, 64, 54
1, 165613, Control_c, 0, 64, 57
1, 165625, Note_off_c, 0, 63, 54
1, 165627, Control_c, 0, 64, 61
1, 165642, Control_c, 0, 64, 65
1, 165657, Control_c, 0, 64, 69
1, 165671, Control_c, 0, 64, 74
1, 165674, Note_off_c, 0, 51, 63
1, 165686, Control_c, 0, 64, 81
1, 165701, Control_c, 0, 64, 89
1, 165716, Control_c, 0, 64, 98
1, 165731, Control_c, 0, 64, 114
1, 165745, Control_c, 0, 64, 127
1, 165850, Control_c, 0, 64, 123
1, 165855, Note_on_c, 0, 49, 50
1, 165864, Control_c, 0, 64, 110
1, 165865, Note_on_c, 0, 61, 38
1, 165867, Note_on_c, 0, 65, 47
1, 165879, Control_c, 0, 64, 103
1, 165888, Note_on_c, 0, 53, 32
1, 165894, Control_c, 0, 64, 97
1, 165909, Control_c, 0, 64, 88
1, 165910, Note_off_c, 0, 48, 41
1, 165924, Control_c, 0, 64, 80
1, 165938, Control_c, 0, 64, 74
1, 165953, Control_c, 0, 64, 70
1, 165968, Control_c, 0, 64, 67
1, 165983, Control_c, 0, 64, 65
1, 165998, Control_c, 0, 64, 62
1, 166012, Control_c, 0, 64, 57
1, 166027, Control_c, 0, 64, 52
1, 166042, Control_c, 0, 64, 47
1, 166057, Control_c, 0, 64, 44
1, 166071, Control_c, 0, 64, 40
1, 166086, Control_c, 0, 64, 36
1, 166101, Control_c, 0, 64, 30
1, 166113, Note_off_c, 0, 53, 18
1, 166117, Control_c, 0, 64, 27
1, 166132, Control_c, 0, 64, 26
1, 166236, Note_on_c, 0, 51, 58
1, 166243, Control_c, 0, 64, 30
1, 166258, Control_c, 0, 64, 37
1, 166273, Control_c, 0, 64, 45
1, 166288, Control_c, 0, 64, 53
1, 166302, Control_c, 0, 64, 59
1, 166317, Control_c, 0, 64, 64
1, 166332, Control_c, 0, 64, 69
1, 166340, Note_off_c, 0, 65, 58
1, 166347, Control_c, 0, 64, 76
1, 166362, Control_c, 0, 64, 88
1, 166376, Control_c, 0, 64, 111
1, 166391, Control_c, 0, 64, 127
1, 166610, Note_on_c, 0, 70, 61
1, 166610, Note_on_c, 0, 73, 72
1, 166617, Note_on_c, 0, 65, 45
1, 166619, Note_on_c, 0, 53, 33
1, 166631, Note_on_c, 0, 46, 34
1, 166658, Control_c, 0, 64, 104
1, 166669, Note_off_c, 0, 68, 54
1, 166672, Control_c, 0, 64, 95
1, 166687, Control_c, 0, 64, 90
1, 166702, Control_c, 0, 64, 85
1, 166717, Control_c, 0, 64, 81
1, 166732, Control_c, 0, 64, 76
1, 166747, Control_c, 0, 64, 71
1, 166756, Note_off_c, 0, 49, 52
1, 166762, Control_c, 0, 64, 68
1, 166762, Note_off_c, 0, 51, 43
1, 166776, Control_c, 0, 64, 65
1, 166780, Note_off_c, 0, 61, 36
1, 166791, Control_c, 0, 64, 64
1, 166806, Control_c, 0, 64, 62
1, 166821, Control_c, 0, 64, 60
1, 166835, Control_c, 0, 64, 58
1, 166850, Control_c, 0, 64, 56
1, 166865, Control_c, 0, 64, 55
1, 166880, Control_c, 0, 64, 53
1, 166894, Control_c, 0, 64, 51
1, 166917, Control_c, 0, 64, 49
1, 166932, Control_c, 0, 64, 48
1, 166947, Control_c, 0, 64, 47
1, 166963, Control_c, 0, 64, 46
1, 166978, Control_c, 0, 64, 45
1, 166991, Note_on_c, 0, 54, 61
1, 166993, Control_c, 0, 64, 44
1, 167007, Control_c, 0, 64, 44
1, 167022, Control_c, 0, 64, 43
1, 167024, Note_off_c, 0, 53, 43
1, 167037, Control_c, 0, 64, 43
1, 167052, Control_c, 0, 64, 42
1, 167066, Control_c, 0, 64, 42
1, 167111, Control_c, 0, 64, 41
1, 167126, Control_c, 0, 64, 41
1, 167140, Control_c, 0, 64, 40
1, 167170, Control_c, 0, 64, 39
1, 167185, Control_c, 0, 64, 39
1, 167200, Control_c, 0, 64, 38
1, 167215, Control_c, 0, 64, 37
1, 167230, Control_c, 0, 64, 36
1, 167333, Control_c, 0, 64, 36
1, 167358, Note_on_c, 0, 53, 60
1, 167363, Note_on_c, 0, 72, 67
1, 167370, Note_on_c, 0, 68, 57
1, 167371, Note_on_c, 0, 56, 45
1, 167378, Note_off_c, 0, 54, 60
1, 167405, Note_off_c, 0, 70, 64
1, 167504, Note_off_c, 0, 46, 58
1, 167522, Note_off_c, 0, 73, 41
1, 167555, Control_c, 0, 64, 35
1, 167564, Note_off_c, 0, 56, 56
1, 167696, Control_c, 0, 64, 34
1, 167736, Note_on_c, 0, 58, 76
1, 167812, Note_off_c, 0, 58, 62
1, 167816, Control_c, 0, 64, 34
1, 167889, Control_c, 0, 64, 33
1, 167896, Note_on_c, 0, 60, 79
1, 167963, Control_c, 0, 64, 33
1, 167990, Note_off_c, 0, 60, 62
1, 168067, Control_c, 0, 64, 32
1, 168094, Note_on_c, 0, 73, 69
1, 168097, Note_on_c, 0, 58, 56
1, 168097, Note_on_c, 0, 77, 82
1, 168109, Note_on_c, 0, 49, 40
1, 168127, Control_c, 0, 64, 32
1, 168164, Note_off_c, 0, 72, 54
1, 168201, Control_c, 0, 64, 31
1, 168234, Note_off_c, 0, 53, 60
1, 168245, Control_c, 0, 64, 31
1, 168304, Control_c, 0, 64, 30
1, 168318, Note_off_c, 0, 68, 55
1, 168487, Note_on_c, 0, 56, 67
1, 168525, Note_off_c, 0, 58, 58
1, 168852, Note_on_c, 0, 70, 69
1, 168860, Note_on_c, 0, 54, 57
1, 168881, Note_on_c, 0, 51, 56
1, 168893, Note_off_c, 0, 56, 53
1, 168943, Note_off_c, 0, 49, 64
1, 168965, Note_off_c, 0, 65, 59
1, 169038, Control_c, 0, 64, 31
1, 169179, Control_c, 0, 64, 31
1, 169219, Note_on_c, 0, 56, 63
1, 169224, Note_on_c, 0, 68, 66
1, 169227, Note_on_c, 0, 72, 76
1, 169229, Note_on_c, 0, 53, 48
1, 169253, Control_c, 0, 64, 32
1, 169267, Note_off_c, 0, 54, 59
1, 169281, Note_off_c, 0, 77, 62
1, 169298, Note_off_c, 0, 70, 57
1, 169339, Note_off_c, 0, 73, 48
1, 169343, Control_c, 0, 64, 32
1, 169361, Note_off_c, 0, 51, 33
1, 169373, Control_c, 0, 64, 33
1, 169402, Control_c, 0, 64, 33
1, 169461, Control_c, 0, 64, 34
1, 169475, Note_off_c, 0, 68, 63
1, 169476, Control_c, 0, 64, 34
1, 169599, Note_on_c, 0, 54, 56
1, 169605, Note_on_c, 0, 70, 67
1, 169608, Note_on_c, 0, 75, 78
1, 169612, Note_on_c, 0, 58, 52
1, 169614, Note_on_c, 0, 66, 67
1, 169637, Note_off_c, 0, 53, 38
1, 169660, Note_off_c, 0, 56, 58
1, 169683, Note_off_c, 0, 72, 60
1, 169743, Control_c, 0, 64, 35
1, 169769, Note_off_c, 0, 58, 58
1, 169817, Control_c, 0, 64, 35
1, 169865, Note_off_c, 0, 66, 52
1, 169980, Note_on_c, 0, 60, 67
1, 169990, Note_on_c, 0, 73, 82
1, 169995, Note_on_c, 0, 65, 64
1, 170056, Note_off_c, 0, 60, 60
1, 170061, Note_off_c, 0, 70, 57
1, 170110, Note_off_c, 0, 75, 60
1, 170139, Note_off_c, 0, 65, 61
1, 170148, Note_on_c, 0, 61, 69
1, 170226, Note_off_c, 0, 61, 58
1, 170372, Note_on_c, 0, 63, 65
1, 170373, Note_on_c, 0, 68, 75
1, 170376, Note_on_c, 0, 56, 50
1, 170377, Note_on_c, 0, 72, 78
1, 170405, Note_off_c, 0, 73, 66
1, 170473, Note_off_c, 0, 54, 56
1, 170748, Note_on_c, 0, 53, 67
1, 171105, Note_on_c, 0, 73, 76
1, 171106, Note_on_c, 0, 65, 72
1, 171114, Note_on_c, 0, 51, 63
1, 171206, Note_off_c, 0, 53, 59
1, 171217, Note_off_c, 0, 72, 54
1, 171218, Note_off_c, 0, 63, 52
1, 171384, Note_off_c, 0, 56, 29
1, 171495, Note_on_c, 0, 49, 61
1, 171544, Note_off_c, 0, 51, 57
1, 171882, Note_on_c, 0, 56, 67
1, 171891, Note_on_c, 0, 63, 59
1, 171961, Note_off_c, 0, 65, 57
1, 171979, Note_off_c, 0, 49, 57
1, 172160, Control_c, 0, 64, 41
1, 172175, Control_c, 0, 64, 45
1, 172189, Control_c, 0, 64, 50
1, 172204, Control_c, 0, 64, 54
1, 172219, Control_c, 0, 64, 58
1, 172234, Control_c, 0, 64, 62
1, 172249, Control_c, 0, 64, 67
1, 172259, Note_on_c, 0, 70, 77
1, 172263, Control_c, 0, 64, 73
1, 172278, Control_c, 0, 64, 83
1, 172293, Control_c, 0, 64, 104
1, 172302, Note_off_c, 0, 73, 62
1, 172307, Control_c, 0, 64, 127
1, 172359, Note_off_c, 0, 68, 59
1, 172605, Control_c, 0, 64, 115
1, 172619, Control_c, 0, 64, 96
1, 172627, Note_on_c, 0, 72, 81
1, 172628, Note_on_c, 0, 44, 51
1, 172632, Note_on_c, 0, 68, 74
1, 172634, Control_c, 0, 64, 87
1, 172649, Control_c, 0, 64, 81
1, 172664, Control_c, 0, 64, 75
1, 172674, Note_off_c, 0, 70, 63
1, 172679, Control_c, 0, 64, 71
1, 172694, Control_c, 0, 64, 67
1, 172709, Control_c, 0, 64, 63
1, 172724, Control_c, 0, 64, 59
1, 172738, Control_c, 0, 64, 55
1, 172753, Control_c, 0, 64, 49
1, 172768, Control_c, 0, 64, 41
1, 172783, Control_c, 0, 64, 30
1, 172798, Control_c, 0, 64, 15
1, 172812, Control_c, 0, 64, 0
1, 172872, Control_c, 0, 64, 17
1, 172886, Control_c, 0, 64, 38
1, 172908, Control_c, 0, 64, 52
1, 172923, Control_c, 0, 64, 58
1, 172931, Note_off_c, 0, 68, 59
1, 172938, Control_c, 0, 64, 63
1, 172953, Control_c, 0, 64, 66
1, 172968, Control_c, 0, 64, 72
1, 172983, Control_c, 0, 64, 82
1, 172998, Control_c, 0, 64, 103
1, 173012, Control_c, 0, 64, 127
1, 173016, Note_on_c, 0, 66, 73
1, 173037, Note_off_c, 0, 44, 59
1, 173156, Note_off_c, 0, 63, 62
1, 173183, Note_off_c, 0, 66, 62
1, 173408, Note_on_c, 0, 49, 31
1, 173413, Control_c, 0, 64, 109
1, 173422, Note_on_c, 0, 73, 74
1, 173423, Note_on_c, 0, 61, 44
1, 173427, Note_on_c, 0, 65, 57
1, 173427, Control_c, 0, 64, 98
1, 173442, Control_c, 0, 64, 92
1, 173457, Control_c, 0, 64, 86
1, 173472, Control_c, 0, 64, 82
1, 173487, Control_c, 0, 64, 77
1, 173502, Control_c, 0, 64, 71
1, 173517, Control_c, 0, 64, 65
1, 173531, Control_c, 0, 64, 61
1, 173532, Note_off_c, 0, 72, 55
1, 173546, Control_c, 0, 64, 56
1, 173561, Control_c, 0, 64, 54
1, 173576, Control_c, 0, 64, 52
1, 173591, Control_c, 0, 64, 52
1, 173606, Control_c, 0, 64, 52
1, 173621, Control_c, 0, 64, 57
1, 173635, Control_c, 0, 64, 63
1, 173657, Control_c, 0, 64, 69
1, 173672, Note_off_c, 0, 61, 60
1, 173672, Control_c, 0, 64, 75
1, 173687, Control_c, 0, 64, 80
1, 173701, Control_c, 0, 64, 82
1, 173731, Control_c, 0, 64, 82
1, 173746, Control_c, 0, 64, 81
1, 173760, Control_c, 0, 64, 80
1, 173775, Control_c, 0, 64, 79
1, 173790, Control_c, 0, 64, 78
1, 173805, Control_c, 0, 64, 76
1, 173809, Note_on_c, 0, 60, 48
1, 173820, Control_c, 0, 64, 74
1, 173829, Note_on_c, 0, 63, 57
1, 173834, Control_c, 0, 64, 73
1, 173849, Control_c, 0, 64, 72
1, 173864, Control_c, 0, 64, 71
1, 173879, Control_c, 0, 64, 69
1, 173894, Control_c, 0, 64, 68
1, 173908, Control_c, 0, 64, 67
1, 173923, Control_c, 0, 64, 66
1, 173925, Note_off_c, 0, 65, 50
1, 173938, Control_c, 0, 64, 65
1, 173952, Control_c, 0, 64, 64
1, 173967, Control_c, 0, 64, 64
1, 173982, Control_c, 0, 64, 62
1, 173997, Control_c, 0, 64, 61
1, 174012, Control_c, 0, 64, 61
1, 174041, Control_c, 0, 64, 60
1, 174056, Control_c, 0, 64, 60
1, 174071, Control_c, 0, 64, 59
1, 174079, Note_off_c, 0, 49, 41
1, 174086, Control_c, 0, 64, 59
1, 174117, Control_c, 0, 64, 58
1, 174202, Note_on_c, 0, 61, 41
1, 174208, Note_on_c, 0, 68, 57
1, 174213, Note_on_c, 0, 65, 43
1, 174233, Note_off_c, 0, 60, 35
1, 174253, Note_off_c, 0, 56, 44
1, 174280, Control_c, 0, 64, 58
1, 174339, Control_c, 0, 64, 57
1, 174343, Note_off_c, 0, 63, 38
1, 174369, Note_off_c, 0, 73, 54
1, 174383, Control_c, 0, 64, 57
1, 174465, Control_c, 0, 64, 56
1, 174495, Control_c, 0, 64, 56
1, 174525, Control_c, 0, 64, 55
1, 174594, Note_on_c, 0, 66, 37
1, 174606, Note_on_c, 0, 63, 43
1, 174625, Note_off_c, 0, 61, 46
1, 174639, Note_off_c, 0, 65, 31
1, 174808, Note_off_c, 0, 68, 61
1, 175003, Note_on_c, 0, 65, 42
1, 175019, Note_on_c, 0, 68, 46
1, 175163, Note_off_c, 0, 66, 34
1, 175195, Note_off_c, 0, 63, 30
1, 175408, Note_on_c, 0, 83, 64
1, 175586, Note_off_c, 0, 65, 35
1, 175780, Note_on_c, 0, 82, 66
1, 175785, Note_on_c, 0, 65, 30
1, 175797, Note_on_c, 0, 62, 31
1, 175870, Note_off_c, 0, 83, 57
1, 175990, Note_off_c, 0, 68, 31
1, 176178, Note_on_c, 0, 80, 64
1, 176258, Control_c, 0, 64, 55
1, 176261, Note_off_c, 0, 82, 58
1, 176376, Control_c, 0, 64, 54
1, 176496, Control_c, 0, 64, 54
1, 176580, Note_on_c, 0, 70, 69
1, 176585, Note_on_c, 0, 78, 59
1, 176587, Note_on_c, 0, 63, 34
1, 176620, Note_off_c, 0, 65, 40
1, 176623, Note_off_c, 0, 62, 40
1, 176681, Control_c, 0, 64, 53
1, 176688, Note_off_c, 0, 80, 43
1, 176933, Control_c, 0, 64, 53
1, 176969, Note_off_c, 0, 63, 30
1, 176970, Note_on_c, 0, 77, 58
1, 177052, Note_off_c, 0, 78, 50
1, 177363, Note_on_c, 0, 63, 58
1, 177378, Note_on_c, 0, 78, 56
1, 177487, Note_off_c, 0, 77, 50
1, 177645, Note_off_c, 0, 70, 26
1, 177743, Note_on_c, 0, 80, 57
1, 177748, Note_on_c, 0, 65, 36
1, 177828, Note_off_c, 0, 78, 57
1, 178131, Note_on_c, 0, 66, 43
1, 178134, Note_on_c, 0, 82, 62
1, 178192, Note_off_c, 0, 80, 58
1, 178278, Note_off_c, 0, 63, 50
1, 178402, Note_off_c, 0, 65, 0
1, 178439, Poly_aftertouch_c, 0, 65, 127
1, 178510, Note_on_c, 0, 78, 67
1, 178520, Note_on_c, 0, 81, 61
1, 178533, Note_on_c, 0, 63, 39
1, 178535, Note_off_c, 0, 82, 60
1, 178590, Note_off_c, 0, 81, 64
1, 178624, Poly_aftertouch_c, 0, 65, 0
1, 178644, Note_off_c, 0, 66, 35
1, 178690, Note_on_c, 0, 82, 62
1, 178759, Note_off_c, 0, 82, 63
1, 178906, Note_on_c, 0, 77, 81
1, 178914, Note_on_c, 0, 69, 43
1, 178914, Note_on_c, 0, 84, 70
1, 178944, Note_off_c, 0, 78, 63
1, 179059, Note_off_c, 0, 63, 36
1, 179195, Control_c, 0, 64, 52
1, 179225, Note_off_c, 0, 69, 59
1, 179269, Control_c, 0, 64, 52
1, 179282, Note_on_c, 0, 67, 56
1, 179288, Note_on_c, 0, 75, 83
1, 179326, Note_off_c, 0, 77, 60
1, 179350, Note_off_c, 0, 67, 58
1, 179443, Note_on_c, 0, 65, 62
1, 179461, Control_c, 0, 64, 51
1, 179495, Note_off_c, 0, 65, 59
1, 179674, Note_on_c, 0, 58, 75
1, 179676, Note_on_c, 0, 73, 68
1, 179677, Note_on_c, 0, 70, 68
1, 179723, Note_off_c, 0, 75, 63
1, 179737, Control_c, 0, 64, 51
1, 180016, Note_off_c, 0, 70, 55
1, 180054, Note_on_c, 0, 82, 78
1, 180059, Note_on_c, 0, 77, 63
1, 180142, Note_off_c, 0, 84, 40
1, 180250, Note_off_c, 0, 77, 62
1, 180353, Note_off_c, 0, 73, 40
1, 180435, Note_on_c, 0, 53, 58
1, 180437, Note_on_c, 0, 75, 67
1, 180441, Note_on_c, 0, 72, 52
1, 180623, Note_off_c, 0, 58, 37
1, 180819, Note_on_c, 0, 81, 64
1, 180883, Note_off_c, 0, 82, 57
1, 180884, Note_off_c, 0, 75, 57
1, 180989, Note_off_c, 0, 72, 61
1, 181151, Note_off_c, 0, 53, 47
1, 181200, Note_on_c, 0, 82, 64
1, 181203, Note_on_c, 0, 70, 54
1, 181212, Note_on_c, 0, 74, 47
1, 181331, Note_off_c, 0, 81, 58
1, 181573, Note_on_c, 0, 66, 62
1, 181771, Note_off_c, 0, 74, 60
1, 181959, Note_on_c, 0, 75, 60
1, 181961, Note_on_c, 0, 65, 50
1, 182027, Control_c, 0, 64, 50
1, 182084, Note_off_c, 0, 66, 53
1, 182336, Note_on_c, 0, 63, 44
1, 182484, Note_off_c, 0, 65, 37
1, 182720, Note_on_c, 0, 77, 47
1, 182722, Note_on_c, 0, 62, 36
1, 182886, Note_off_c, 0, 63, 37
1, 182891, Note_off_c, 0, 75, 54
1, 183098, Note_on_c, 0, 58, 43
1, 183256, Note_off_c, 0, 62, 37
1, 183482, Note_on_c, 0, 60, 47
1, 183486, Note_on_c, 0, 80, 62
1, 183628, Note_off_c, 0, 58, 37
1, 183664, Note_off_c, 0, 82, 55
1, 183844, Note_on_c, 0, 62, 59
1, 183916, Note_off_c, 0, 60, 63
1, 184236, Note_on_c, 0, 78, 66
1, 184238, Note_on_c, 0, 51, 68
1, 184242, Note_on_c, 0, 63, 48
1, 184320, Note_off_c, 0, 80, 63
1, 184328, Note_off_c, 0, 62, 57
1, 184416, Note_off_c, 0, 77, 59
1, 184599, Note_off_c, 0, 63, 52
1, 184621, Note_on_c, 0, 75, 64
1, 184629, Note_on_c, 0, 53, 48
1, 184686, Note_off_c, 0, 75, 59
1, 184791, Note_on_c, 0, 74, 55
1, 184837, Note_off_c, 0, 74, 59
1, 184993, Note_on_c, 0, 75, 61
1, 185001, Note_on_c, 0, 54, 49
1, 185020, Note_on_c, 0, 46, 42
1, 185136, Note_off_c, 0, 53, 52
1, 185151, Note_off_c, 0, 51, 36
1, 185360, Note_off_c, 0, 78, 37
1, 185378, Note_on_c, 0, 56, 55
1, 185425, Note_off_c, 0, 54, 65
1, 185757, Note_on_c, 0, 77, 66
1, 185768, Note_on_c, 0, 58, 48
1, 185847, Note_off_c, 0, 46, 57
1, 185887, Note_off_c, 0, 56, 62
1, 185992, Control_c, 0, 64, 50
1, 186097, Control_c, 0, 64, 49
1, 186141, Note_on_c, 0, 59, 67
1, 186260, Control_c, 0, 64, 49
1, 186266, Note_off_c, 0, 58, 62
1, 186385, Control_c, 0, 64, 48
1, 186540, Note_on_c, 0, 61, 51
1, 186542, Note_on_c, 0, 73, 60
1, 186543, Note_on_c, 0, 76, 64
1, 186546, Note_on_c, 0, 58, 49
1, 186658, Note_off_c, 0, 75, 46
1, 186692, Note_off_c, 0, 59, 53
1, 186732, Note_off_c, 0, 77, 55
1, 186799, Control_c, 0, 64, 48
1, 186913, Note_on_c, 0, 56, 53
1, 186946, Note_off_c, 0, 58, 46
1, 187318, Note_on_c, 0, 55, 30
1, 187318, Note_on_c, 0, 63, 33
1, 187319, Note_on_c, 0, 75, 55
1, 187323, Note_off_c, 0, 56, 35
1, 187369, Note_off_c, 0, 76, 59
1, 187389, Note_off_c, 0, 61, 56
1, 187492, Note_off_c, 0, 55, 49
1, 187540, Note_off_c, 0, 75, 61
1, 187683, Note_on_c, 0, 55, 44
1, 187688, Note_on_c, 0, 51, 49
1, 187696, Note_on_c, 0, 75, 56
1, 187758, Note_off_c, 0, 75, 59
1, 187857, Note_on_c, 0, 76, 68
1, 187957, Note_off_c, 0, 76, 63
1, 188040, Note_on_c, 0, 53, 38
1, 188054, Note_on_c, 0, 56, 60
1, 188060, Note_on_c, 0, 75, 73
1, 188099, Note_off_c, 0, 73, 43
1, 188110, Note_off_c, 0, 63, 38
1, 188120, Note_off_c, 0, 55, 51
1, 188163, Note_off_c, 0, 51, 30
1, 188208, Control_c, 0, 64, 47
1, 188415, Note_on_c, 0, 73, 77
1, 188421, Note_on_c, 0, 58, 50
1, 188422, Note_on_c, 0, 55, 60
1, 188436, Note_off_c, 0, 53, 49
1, 188471, Note_off_c, 0, 56, 55
1, 188537, Note_off_c, 0, 75, 56
1, 188539, Note_off_c, 0, 70, 60
1, 188565, Control_c, 0, 64, 48
1, 188579, Control_c, 0, 64, 55
1, 188594, Control_c, 0, 64, 61
1, 188609, Control_c, 0, 64, 66
1, 188624, Control_c, 0, 64, 75
1, 188647, Control_c, 0, 64, 127
1, 188711, Note_off_c, 0, 58, 53
1, 188811, Note_on_c, 0, 56, 56
1, 188811, Note_on_c, 0, 59, 52
1, 188818, Note_on_c, 0, 71, 75
1, 188829, Note_on_c, 0, 68, 62
1, 188838, Control_c, 0, 64, 105
1, 188851, Note_off_c, 0, 55, 58
1, 188853, Control_c, 0, 64, 90
1, 188868, Control_c, 0, 64, 79
1, 188883, Control_c, 0, 64, 69
1, 188893, Note_off_c, 0, 73, 57
1, 188898, Control_c, 0, 64, 60
1, 188913, Control_c, 0, 64, 40
1, 188928, Control_c, 0, 64, 17
1, 188973, Control_c, 0, 64, 18
1, 188987, Control_c, 0, 64, 39
1, 189002, Control_c, 0, 64, 58
1, 189011, Note_off_c, 0, 68, 61
1, 189017, Control_c, 0, 64, 67
1, 189031, Control_c, 0, 64, 76
1, 189046, Control_c, 0, 64, 110
1, 189052, Note_off_c, 0, 56, 61
1, 189061, Control_c, 0, 64, 127
1, 189188, Note_on_c, 0, 54, 63
1, 189191, Note_on_c, 0, 58, 69
1, 189193, Note_on_c, 0, 70, 84
1, 189224, Control_c, 0, 64, 104
1, 189238, Control_c, 0, 64, 93
1, 189253, Control_c, 0, 64, 84
1, 189268, Control_c, 0, 64, 77
1, 189276, Note_off_c, 0, 71, 58
1, 189284, Control_c, 0, 64, 70
1, 189299, Control_c, 0, 64, 64
1, 189302, Note_off_c, 0, 59, 56
1, 189314, Control_c, 0, 64, 58
1, 189328, Control_c, 0, 64, 53
1, 189343, Control_c, 0, 64, 50
1, 189358, Control_c, 0, 64, 49
1, 189373, Control_c, 0, 64, 47
1, 189396, Control_c, 0, 64, 46
1, 189410, Control_c, 0, 64, 45
1, 189441, Control_c, 0, 64, 45
1, 189470, Control_c, 0, 64, 44
1, 189515, Control_c, 0, 64, 44
1, 189566, Note_on_c, 0, 56, 66
1, 189566, Note_on_c, 0, 71, 76
1, 189567, Note_on_c, 0, 80, 86
1, 189572, Note_on_c, 0, 76, 69
1, 189575, Note_on_c, 0, 52, 51
1, 189598, Note_off_c, 0, 54, 57
1, 189618, Control_c, 0, 64, 43
1, 189626, Note_off_c, 0, 58, 52
1, 189662, Control_c, 0, 64, 43
1, 189708, Note_off_c, 0, 70, 30
1, 189736, Control_c, 0, 64, 42
1, 189882, Note_off_c, 0, 52, 46
1, 189885, Control_c, 0, 64, 42
1, 189931, Note_off_c, 0, 56, 65
1, 189938, Note_on_c, 0, 54, 80
1, 189946, Note_on_c, 0, 51, 60
1, 190303, Note_on_c, 0, 49, 55
1, 190303, Note_on_c, 0, 52, 76
1, 190312, Note_on_c, 0, 70, 71
1, 190317, Note_off_c, 0, 51, 62
1, 190350, Note_off_c, 0, 71, 62
1, 190351, Note_off_c, 0, 54, 58
1, 190406, Note_off_c, 0, 76, 60
1, 190466, Note_off_c, 0, 49, 57
1, 190471, Note_on_c, 0, 75, 79
1, 190515, Control_c, 0, 64, 41
1, 190547, Note_off_c, 0, 75, 62
1, 190624, Note_off_c, 0, 80, 53
1, 190659, Note_on_c, 0, 73, 91
1, 190660, Note_on_c, 0, 46, 64
1, 190817, Note_off_c, 0, 70, 60
1, 190914, Note_off_c, 0, 52, 58
1, 191007, Note_on_c, 0, 51, 61
1, 191033, Note_on_c, 0, 79, 87
1, 191056, Note_off_c, 0, 46, 61
1, 191160, Control_c, 0, 64, 41
1, 191165, Note_off_c, 0, 73, 58
1, 191175, Control_c, 0, 64, 40
1, 191189, Control_c, 0, 64, 39
1, 191199, Note_on_c, 0, 76, 81
1, 191204, Control_c, 0, 64, 39
1, 191263, Control_c, 0, 64, 38
1, 191277, Note_off_c, 0, 76, 64
1, 191278, Control_c, 0, 64, 36
1, 191293, Control_c, 0, 64, 31
1, 191307, Control_c, 0, 64, 26
1, 191322, Control_c, 0, 64, 20
1, 191337, Control_c, 0, 64, 0
1, 191369, Note_on_c, 0, 39, 67
1, 191375, Note_on_c, 0, 75, 91
1, 191474, Note_off_c, 0, 75, 62
1, 191530, Control_c, 0, 64, 63
1, 191539, Note_on_c, 0, 73, 93
1, 191545, Control_c, 0, 64, 82
1, 191560, Control_c, 0, 64, 127
1, 191584, Note_off_c, 0, 79, 64
1, 191588, Note_off_c, 0, 39, 36
1, 191632, Note_off_c, 0, 73, 64
1, 191750, Note_on_c, 0, 72, 62
1, 191758, Note_on_c, 0, 44, 54
1, 191761, Note_on_c, 0, 68, 90
1, 191761, Note_on_c, 0, 80, 87
1, 191790, Control_c, 0, 64, 96
1, 191804, Control_c, 0, 64, 78
1, 191819, Control_c, 0, 64, 69
1, 191834, Control_c, 0, 64, 63
1, 191849, Note_off_c, 0, 51, 38
1, 191849, Control_c, 0, 64, 51
1, 191864, Control_c, 0, 64, 30
1, 191879, Control_c, 0, 64, 0
1, 192110, Note_on_c, 0, 56, 76
1, 192114, Note_off_c, 0, 80, 61
1, 192160, Note_off_c, 0, 72, 64
1, 192475, Note_on_c, 0, 46, 38
1, 192483, Note_on_c, 0, 54, 49
1, 192492, Note_on_c, 0, 61, 81
1, 192511, Poly_aftertouch_c, 0, 67, 127
1, 192537, Poly_aftertouch_c, 0, 67, 0
1, 192559, Note_off_c, 0, 68, 53
1, 192573, Note_off_c, 0, 44, 51
1, 192616, Note_off_c, 0, 56, 30
1, 192836, Note_off_c, 0, 46, 52
1, 192846, Note_on_c, 0, 53, 71
1, 192851, Note_on_c, 0, 44, 61
1, 192865, Note_off_c, 0, 54, 38
1, 193175, Note_off_c, 0, 61, 56
1, 193228, Note_on_c, 0, 42, 63
1, 193229, Note_on_c, 0, 51, 71
1, 193282, Note_off_c, 0, 44, 57
1, 193330, Note_off_c, 0, 53, 56
1, 193626, Note_on_c, 0, 49, 50
1, 193627, Note_on_c, 0, 77, 83
1, 193700, Note_off_c, 0, 42, 59
1, 193703, Note_off_c, 0, 51, 60
1, 193979, Note_on_c, 0, 75, 82
1, 193984, Note_on_c, 0, 54, 47
1, 193989, Note_on_c, 0, 58, 56
1, 194053, Note_off_c, 0, 77, 54
1, 194067, Note_off_c, 0, 49, 55
1, 194352, Note_on_c, 0, 73, 77
1, 194419, Note_off_c, 0, 75, 60
1, 194738, Note_on_c, 0, 72, 71
1, 194738, Note_on_c, 0, 56, 43
1, 194784, Note_off_c, 0, 73, 61
1, 194794, Note_off_c, 0, 58, 33
1, 195112, Note_on_c, 0, 68, 64
1, 195115, Note_on_c, 0, 66, 62
1, 195124, Note_on_c, 0, 53, 42
1, 195223, Note_off_c, 0, 54, 49
1, 195295, Note_off_c, 0, 56, 36
1, 195296, Note_off_c, 0, 72, 38
1, 195480, Note_on_c, 0, 54, 60
1, 195486, Note_on_c, 0, 70, 76
1, 195487, Note_on_c, 0, 65, 73
1, 195523, Note_off_c, 0, 66, 61
1, 195557, Note_off_c, 0, 68, 59
1, 195667, Note_off_c, 0, 53, 32
1, 195849, Note_on_c, 0, 72, 80
1, 195855, Note_on_c, 0, 56, 60
1, 195856, Note_on_c, 0, 63, 73
1, 195874, Note_off_c, 0, 70, 63
1, 195889, Note_off_c, 0, 65, 59
1, 195907, Note_off_c, 0, 54, 58
1, 196229, Note_on_c, 0, 61, 69
1, 196229, Note_on_c, 0, 73, 81
1, 196233, Note_on_c, 0, 58, 59
1, 196261, Note_off_c, 0, 63, 51
1, 196290, Note_off_c, 0, 72, 57
1, 196302, Note_off_c, 0, 56, 56
1, 196329, Note_off_c, 0, 61, 61
1, 196595, Note_on_c, 0, 66, 73
1, 196992, Note_on_c, 0, 54, 61
1, 197113, Note_off_c, 0, 58, 28
1, 197341, Note_on_c, 0, 65, 64
1, 197478, Note_off_c, 0, 66, 38
1, 197719, Note_on_c, 0, 56, 44
1, 197724, Note_on_c, 0, 63, 59
1, 197844, Note_off_c, 0, 65, 61
1, 197871, Note_off_c, 0, 54, 36
1, 198107, Note_on_c, 0, 58, 46
1, 198209, Note_off_c, 0, 56, 32
1, 198463, Note_on_c, 0, 72, 53
1, 198478, Note_on_c, 0, 56, 36
1, 198562, Note_off_c, 0, 73, 55
1, 198574, Note_off_c, 0, 58, 37
1, 198827, Note_on_c, 0, 54, 39
1, 198875, Note_off_c, 0, 56, 40
1, 199213, Note_on_c, 0, 73, 50
1, 199215, Note_on_c, 0, 53, 27
1, 199218, Note_on_c, 0, 56, 35
1, 199257, Note_off_c, 0, 63, 32
1, 199281, Note_off_c, 0, 72, 57
1, 199433, Note_off_c, 0, 54, 25
1, 199565, Note_off_c, 0, 73, 37
1, 199583, Note_on_c, 0, 71, 48
1, 199650, Note_off_c, 0, 71, 57
1, 199754, Note_on_c, 0, 70, 49
1, 199799, Note_off_c, 0, 70, 61
1, 199954, Note_off_c, 0, 53, 40
1, 199964, Note_on_c, 0, 68, 46
1, 199966, Note_on_c, 0, 71, 56
1, 199969, Note_off_c, 0, 56, 43
1, 200319, Note_on_c, 0, 66, 48
1, 200336, Note_on_c, 0, 51, 50
1, 200377, Note_off_c, 0, 51, 64
1, 200377, Note_off_c, 0, 66, 55
1, 200386, Note_off_c, 0, 68, 41
1, 200503, Note_on_c, 0, 65, 50
1, 200503, Note_on_c, 0, 49, 41
1, 200535, Note_off_c, 0, 49, 59
1, 200546, Note_off_c, 0, 65, 59
1, 200701, Note_on_c, 0, 66, 58
1, 200705, Note_on_c, 0, 51, 49
1, 200998, Note_off_c, 0, 71, 53
1, 201052, Note_on_c, 0, 61, 70
1, 201065, Note_on_c, 0, 70, 54
1, 201066, Note_off_c, 0, 66, 54
1, 201067, Note_on_c, 0, 53, 39
1, 201105, Note_off_c, 0, 70, 62
1, 201191, Note_off_c, 0, 51, 31
1, 201217, Note_on_c, 0, 68, 59
1, 201283, Note_off_c, 0, 68, 50
1, 201423, Note_off_c, 0, 53, 49
1, 201424, Note_on_c, 0, 70, 58
1, 201441, Note_on_c, 0, 54, 39
1, 201782, Note_on_c, 0, 63, 56
1, 201790, Note_on_c, 0, 72, 56
1, 201857, Note_off_c, 0, 70, 47
1, 201868, Note_off_c, 0, 61, 32
1, 202164, Note_on_c, 0, 73, 59
1, 202172, Note_on_c, 0, 56, 44
1, 202247, Note_off_c, 0, 72, 53
1, 202336, Note_off_c, 0, 54, 42
1, 202360, Note_off_c, 0, 63, 36
1, 202536, Note_on_c, 0, 53, 43
1, 202536, Note_on_c, 0, 68, 56
1, 202582, Note_off_c, 0, 53, 61
1, 202583, Note_off_c, 0, 68, 58
1, 202689, Note_on_c, 0, 66, 57
1, 202695, Note_on_c, 0, 51, 47
1, 202731, Note_off_c, 0, 66, 62
1, 202749, Note_off_c, 0, 51, 60
1, 202905, Note_on_c, 0, 68, 66
1, 202917, Note_on_c, 0, 53, 40
1, 203241, Note_on_c, 0, 63, 80
1, 203251, Note_on_c, 0, 55, 49
1, 203260, Note_off_c, 0, 68, 60
1, 203261, Note_on_c, 0, 72, 60
1, 203268, Note_off_c, 0, 56, 55
1, 203284, Note_off_c, 0, 73, 57
1, 203302, Note_off_c, 0, 72, 61
1, 203319, Note_off_c, 0, 53, 36
1, 203411, Note_on_c, 0, 70, 70
1, 203496, Note_off_c, 0, 70, 59
1, 203600, Note_off_c, 0, 55, 60
1, 203600, Note_on_c, 0, 72, 72
1, 203601, Note_on_c, 0, 56, 58
1, 203963, Note_on_c, 0, 65, 64
1, 203972, Note_on_c, 0, 74, 74
1, 204024, Note_off_c, 0, 72, 59
1, 204053, Note_off_c, 0, 63, 52
1, 204330, Note_on_c, 0, 58, 60
1, 204330, Note_on_c, 0, 75, 72
1, 204437, Note_off_c, 0, 74, 53
1, 204490, Note_off_c, 0, 65, 50
1, 204545, Note_off_c, 0, 56, 53
1, 204680, Note_on_c, 0, 55, 61
1, 204728, Note_off_c, 0, 55, 61
1, 204844, Note_on_c, 0, 53, 64
1, 204900, Note_off_c, 0, 53, 61
1, 205040, Note_on_c, 0, 55, 71
1, 205323, Note_off_c, 0, 58, 48
1, 205378, Note_on_c, 0, 73, 73
1, 205379, Note_on_c, 0, 65, 78
1, 205386, Note_on_c, 0, 57, 58
1, 205439, Note_off_c, 0, 75, 58
1, 205496, Note_off_c, 0, 55, 57
1, 205496, Note_off_c, 0, 73, 59
1, 205550, Note_on_c, 0, 72, 73
1, 205622, Note_off_c, 0, 72, 61
1, 205713, Note_on_c, 0, 58, 51
1, 205722, Note_on_c, 0, 73, 71
1, 205737, Note_off_c, 0, 57, 60
1, 205880, Note_off_c, 0, 58, 62
1, 205892, Note_on_c, 0, 75, 77
1, 205903, Note_on_c, 0, 60, 63
1, 205910, Note_off_c, 0, 73, 62
1, 205942, Note_off_c, 0, 60, 60
1, 206060, Note_on_c, 0, 58, 81
1, 206065, Note_on_c, 0, 73, 69
1, 206087, Note_off_c, 0, 75, 57
1, 206216, Note_on_c, 0, 75, 68
1, 206222, Note_on_c, 0, 60, 64
1, 206295, Note_off_c, 0, 58, 56
1, 206308, Note_off_c, 0, 65, 34
1, 206314, Note_off_c, 0, 73, 56
1, 206389, Note_on_c, 0, 61, 54
1, 206394, Note_on_c, 0, 77, 76
1, 206403, Note_off_c, 0, 60, 55
1, 206462, Note_off_c, 0, 75, 56
1, 206488, Note_off_c, 0, 61, 59
1, 206560, Note_on_c, 0, 60, 72
1, 206636, Note_off_c, 0, 60, 62
1, 206728, Note_on_c, 0, 58, 79
1, 206736, Note_on_c, 0, 73, 84
1, 206790, Note_off_c, 0, 58, 63
1, 206888, Note_on_c, 0, 56, 84
1, 206953, Note_off_c, 0, 56, 63
1, 207036, Note_off_c, 0, 77, 58
1, 207061, Note_on_c, 0, 54, 85
1, 207067, Note_on_c, 0, 75, 81
1, 207069, Note_on_c, 0, 72, 85
1, 207111, Note_off_c, 0, 54, 64
1, 207117, Note_off_c, 0, 73, 57
1, 207226, Note_on_c, 0, 53, 90
1, 207273, Note_off_c, 0, 53, 65
1, 207401, Note_on_c, 0, 54, 95
1, 207407, Note_on_c, 0, 70, 87
1, 207415, Note_off_c, 0, 72, 58
1, 207453, Note_off_c, 0, 54, 65
1, 207556, Note_on_c, 0, 51, 90
1, 207600, Note_off_c, 0, 51, 65
1, 207749, Note_on_c, 0, 53, 91
1, 207755, Note_on_c, 0, 69, 64
1, 207773, Note_off_c, 0, 70, 57
1, 207925, Note_on_c, 0, 70, 75
1, 207943, Note_off_c, 0, 75, 54
1, 207982, Note_off_c, 0, 69, 59
1, 208025, Note_off_c, 0, 70, 59
1, 208085, Note_on_c, 0, 75, 82
1, 208103, Note_on_c, 0, 72, 68
1, 208180, Note_off_c, 0, 72, 60
1, 208250, Note_on_c, 0, 69, 67
1, 208347, Note_off_c, 0, 69, 51
1, 208444, Note_on_c, 0, 46, 60
1, 208447, Note_on_c, 0, 65, 52
1, 208451, Note_on_c, 0, 73, 69
1, 208521, Note_off_c, 0, 75, 62
1, 208593, Note_off_c, 0, 53, 51
1, 208784, Note_on_c, 0, 72, 71
1, 208789, Note_on_c, 0, 68, 60
1, 208853, Note_off_c, 0, 65, 61
1, 208915, Note_off_c, 0, 73, 38
1, 208961, Note_off_c, 0, 46, 53
1, 209147, Note_on_c, 0, 66, 59
1, 209151, Note_on_c, 0, 70, 74
1, 209191, Note_off_c, 0, 72, 61
1, 209255, Note_off_c, 0, 68, 38
1, 209305, Note_on_c, 0, 72, 79
1, 209330, Note_off_c, 0, 66, 52
1, 209341, Note_off_c, 0, 70, 61
1, 209471, Note_on_c, 0, 61, 76
1, 209480, Note_on_c, 0, 65, 65
1, 209482, Note_on_c, 0, 73, 70
1, 209496, Note_off_c, 0, 72, 60
1, 209633, Note_on_c, 0, 70, 73
1, 209666, Note_off_c, 0, 73, 62
1, 209819, Note_on_c, 0, 60, 46
1, 209819, Note_on_c, 0, 63, 54
1, 209827, Note_off_c, 0, 65, 35
1, 209849, Note_on_c, 0, 68, 61
1, 209851, Note_off_c, 0, 70, 57
1, 209929, Note_off_c, 0, 68, 63
1, 209941, Note_on_c, 0, 66, 65
1, 209966, Note_off_c, 0, 61, 53
1, 210005, Note_off_c, 0, 66, 62
1, 210020, Note_on_c, 0, 68, 70
1, 210078, Note_off_c, 0, 68, 62
1, 210079, Note_on_c, 0, 66, 73
1, 210148, Note_on_c, 0, 68, 80
1, 210149, Note_off_c, 0, 66, 62
1, 210167, Note_on_c, 0, 58, 65
1, 210167, Note_off_c, 0, 60, 64
1, 210217, Note_on_c, 0, 66, 72
1, 210217, Note_off_c, 0, 68, 63
1, 210288, Note_off_c, 0, 66, 64
1, 210291, Note_on_c, 0, 65, 72
1, 210366, Note_on_c, 0, 66, 81
1, 210408, Note_off_c, 0, 65, 54
1, 210417, Note_off_c, 0, 66, 64
1, 210471, Note_on_c, 0, 57, 59
1, 210471, Note_on_c, 0, 77, 96
1, 210480, Note_on_c, 0, 65, 73
1, 210480, Note_off_c, 0, 58, 54
1, 210772, Note_off_c, 0, 63, 61
1, 210807, Note_on_c, 0, 56, 53
1, 210825, Note_on_c, 0, 62, 75
1, 210836, Note_off_c, 0, 57, 36
1, 210860, Note_off_c, 0, 62, 63
1, 210970, Note_on_c, 0, 60, 73
1, 211007, Note_off_c, 0, 60, 64
1, 211186, Note_on_c, 0, 70, 84
1, 211203, Note_on_c, 0, 62, 52
1, 211352, Note_off_c, 0, 65, 52
1, 211376, Note_off_c, 0, 77, 59
1, 211532, Note_on_c, 0, 54, 69
1, 211547, Note_off_c, 0, 56, 61
1, 211586, Note_off_c, 0, 54, 60
1, 211687, Note_on_c, 0, 53, 68
1, 211726, Note_off_c, 0, 53, 63
1, 211909, Note_on_c, 0, 63, 76
1, 211911, Note_on_c, 0, 54, 52
1, 211940, Note_off_c, 0, 62, 57
1, 211988, Note_off_c, 0, 70, 48
1, 211991, Control_c, 0, 64, 44
1, 212006, Control_c, 0, 64, 64
1, 212021, Control_c, 0, 64, 73
1, 212036, Control_c, 0, 64, 119
1, 212051, Control_c, 0, 64, 127
1, 212060, Note_off_c, 0, 63, 64
1, 212244, Note_on_c, 0, 56, 62
1, 212251, Note_on_c, 0, 83, 91
1, 212496, Note_off_c, 0, 54, 24
1, 212616, Note_on_c, 0, 62, 59
1, 212618, Note_on_c, 0, 58, 64
1, 212620, Note_on_c, 0, 82, 96
1, 212673, Note_off_c, 0, 83, 59
1, 212681, Control_c, 0, 64, 94
1, 212689, Note_off_c, 0, 56, 59
1, 212695, Control_c, 0, 64, 77
1, 212710, Control_c, 0, 64, 64
1, 212725, Control_c, 0, 64, 40
1, 212740, Control_c, 0, 64, 0
1, 212976, Note_on_c, 0, 77, 101
1, 212978, Note_on_c, 0, 80, 81
1, 213066, Control_c, 0, 64, 63
1, 213077, Note_off_c, 0, 82, 62
1, 213081, Control_c, 0, 64, 87
1, 213095, Control_c, 0, 64, 127
1, 213118, Note_off_c, 0, 80, 64
1, 213343, Note_on_c, 0, 51, 77
1, 213346, Note_on_c, 0, 78, 94
1, 213350, Note_on_c, 0, 75, 99
1, 213386, Control_c, 0, 64, 89
1, 213392, Note_off_c, 0, 62, 39
1, 213394, Note_off_c, 0, 77, 63
1, 213400, Control_c, 0, 64, 69
1, 213405, Note_off_c, 0, 58, 59
1, 213415, Control_c, 0, 64, 39
1, 213430, Control_c, 0, 64, 0
1, 213563, Control_c, 0, 64, 52
1, 213578, Control_c, 0, 64, 62
1, 213592, Control_c, 0, 64, 69
1, 213607, Control_c, 0, 64, 99
1, 213622, Note_off_c, 0, 75, 63
1, 213622, Control_c, 0, 64, 127
1, 213708, Note_on_c, 0, 73, 87
1, 213717, Note_on_c, 0, 70, 75
1, 213849, Note_off_c, 0, 78, 61
1, 213984, Poly_aftertouch_c, 0, 71, 127
1, 213991, Note_off_c, 0, 70, 46
1, 214010, Poly_aftertouch_c, 0, 71, 0
1, 214011, Note_off_c, 0, 73, 60
1, 214049, Note_on_c, 0, 71, 84
1, 214057, Note_on_c, 0, 76, 88
1, 214060, Note_on_c, 0, 44, 61
1, 214065, Note_on_c, 0, 68, 74
1, 214067, Control_c, 0, 64, 88
1, 214090, Control_c, 0, 64, 66
1, 214105, Control_c, 0, 64, 47
1, 214119, Control_c, 0, 64, 20
1, 214134, Control_c, 0, 64, 0
1, 214141, Note_off_c, 0, 51, 60
1, 214285, Note_off_c, 0, 68, 58
1, 214415, Note_on_c, 0, 75, 84
1, 214424, Note_on_c, 0, 66, 64
1, 214460, Control_c, 0, 64, 30
1, 214474, Control_c, 0, 64, 59
1, 214489, Control_c, 0, 64, 66
1, 214504, Control_c, 0, 64, 82
1, 214519, Control_c, 0, 64, 127
1, 214540, Note_off_c, 0, 76, 53
1, 214636, Note_off_c, 0, 71, 55
1, 214673, Note_off_c, 0, 66, 58
1, 214779, Note_on_c, 0, 53, 80
1, 214787, Note_on_c, 0, 70, 71
1, 214787, Note_on_c, 0, 74, 80
1, 214791, Note_on_c, 0, 65, 70
1, 214838, Control_c, 0, 64, 96
1, 214850, Note_off_c, 0, 75, 59
1, 214853, Control_c, 0, 64, 80
1, 214868, Control_c, 0, 64, 69
1, 214883, Control_c, 0, 64, 62
1, 214897, Control_c, 0, 64, 55
1, 214912, Control_c, 0, 64, 47
1, 214927, Control_c, 0, 64, 36
1, 214942, Control_c, 0, 64, 9
1, 214957, Control_c, 0, 64, 0
1, 215148, Note_off_c, 0, 44, 65
1, 215158, Note_on_c, 0, 42, 77
1, 215318, Note_off_c, 0, 65, 60
1, 215514, Note_on_c, 0, 75, 86
1, 215517, Note_on_c, 0, 46, 74
1, 215519, Note_on_c, 0, 66, 75
1, 215527, Note_on_c, 0, 41, 67
1, 215576, Note_off_c, 0, 42, 56
1, 215598, Note_off_c, 0, 53, 50
1, 215712, Note_off_c, 0, 74, 57
1, 215885, Note_on_c, 0, 39, 68
1, 215914, Note_off_c, 0, 46, 60
1, 215928, Note_off_c, 0, 41, 57
1, 216012, Note_off_c, 0, 66, 56
1, 216248, Note_on_c, 0, 46, 66
1, 216258, Note_on_c, 0, 65, 67
1, 216283, Note_off_c, 0, 39, 63
1, 216626, Note_on_c, 0, 59, 80
1, 216906, Note_off_c, 0, 75, 60
1, 216978, Note_on_c, 0, 74, 80
1, 216986, Note_on_c, 0, 58, 72
1, 217042, Note_off_c, 0, 59, 52
1, 217114, Poly_aftertouch_c, 0, 50, 127
1, 217333, Poly_aftertouch_c, 0, 50, 0
1, 217339, Note_on_c, 0, 56, 75
1, 217357, Note_off_c, 0, 65, 50
1, 217390, Note_off_c, 0, 58, 61
1, 217437, Note_off_c, 0, 70, 62
1, 217723, Note_on_c, 0, 75, 75
1, 217723, Note_on_c, 0, 63, 63
1, 217726, Note_on_c, 0, 70, 68
1, 217730, Note_on_c, 0, 51, 53
1, 217744, Note_on_c, 0, 54, 51
1, 217809, Note_off_c, 0, 46, 61
1, 217869, Note_off_c, 0, 74, 58
1, 217901, Note_off_c, 0, 56, 47
1, 218055, Control_c, 0, 64, 25
1, 218069, Control_c, 0, 64, 41
1, 218084, Control_c, 0, 64, 50
1, 218099, Control_c, 0, 64, 55
1, 218114, Control_c, 0, 64, 59
1, 218119, Note_on_c, 0, 53, 63
1, 218129, Control_c, 0, 64, 62
1, 218138, Note_off_c, 0, 54, 60
1, 218144, Control_c, 0, 64, 64
1, 218159, Control_c, 0, 64, 66
1, 218173, Control_c, 0, 64, 69
1, 218178, Note_off_c, 0, 75, 60
1, 218188, Control_c, 0, 64, 72
1, 218203, Control_c, 0, 64, 74
1, 218218, Control_c, 0, 64, 74
1, 218227, Note_off_c, 0, 63, 62
1, 218306, Control_c, 0, 64, 74
1, 218321, Control_c, 0, 64, 73
1, 218336, Control_c, 0, 64, 72
1, 218366, Control_c, 0, 64, 71
1, 218380, Control_c, 0, 64, 70
1, 218395, Control_c, 0, 64, 69
1, 218410, Control_c, 0, 64, 67
1, 218425, Control_c, 0, 64, 66
1, 218439, Control_c, 0, 64, 65
1, 218454, Control_c, 0, 64, 64
1, 218469, Control_c, 0, 64, 63
1, 218478, Note_on_c, 0, 63, 53
1, 218483, Note_on_c, 0, 58, 44
1, 218484, Control_c, 0, 64, 62
1, 218485, Note_on_c, 0, 54, 44
1, 218499, Control_c, 0, 64, 62
1, 218513, Control_c, 0, 64, 61
1, 218528, Control_c, 0, 64, 60
1, 218535, Note_off_c, 0, 53, 38
1, 218543, Control_c, 0, 64, 59
1, 218558, Control_c, 0, 64, 58
1, 218573, Control_c, 0, 64, 58
1, 218595, Control_c, 0, 64, 57
1, 218610, Control_c, 0, 64, 57
1, 218625, Control_c, 0, 64, 56
1, 218639, Control_c, 0, 64, 56
1, 218650, Note_off_c, 0, 70, 53
1, 218654, Control_c, 0, 64, 55
1, 218669, Control_c, 0, 64, 54
1, 218684, Control_c, 0, 64, 54
1, 218713, Control_c, 0, 64, 53
1, 218728, Control_c, 0, 64, 52
1, 218758, Control_c, 0, 64, 52
1, 218788, Control_c, 0, 64, 51
1, 218802, Control_c, 0, 64, 51
1, 218833, Control_c, 0, 64, 50
1, 218844, Note_on_c, 0, 56, 45
1, 218848, Control_c, 0, 64, 50
1, 218854, Note_on_c, 0, 53, 41
1, 218892, Note_off_c, 0, 54, 33
1, 218892, Control_c, 0, 64, 49
1, 218907, Control_c, 0, 64, 49
1, 218937, Control_c, 0, 64, 48
1, 218951, Control_c, 0, 64, 48
1, 218966, Note_off_c, 0, 58, 36
1, 218995, Note_off_c, 0, 63, 31
1, 218996, Control_c, 0, 64, 47
1, 219041, Control_c, 0, 64, 47
1, 219085, Control_c, 0, 64, 46
1, 219129, Control_c, 0, 64, 46
1, 219174, Control_c, 0, 64, 45
1, 219200, Note_off_c, 0, 53, 41
1, 219218, Control_c, 0, 64, 45
1, 219233, Control_c, 0, 64, 44
1, 219234, Note_off_c, 0, 51, 0
1, 219237, Note_on_c, 0, 58, 36
1, 219241, Note_on_c, 0, 54, 39
1, 219262, Control_c, 0, 64, 44
1, 219270, Poly_aftertouch_c, 0, 51, 127
1, 219284, Note_off_c, 0, 56, 33
1, 219292, Control_c, 0, 64, 43
1, 219307, Control_c, 0, 64, 43
1, 219344, Control_c, 0, 64, 42
1, 219359, Control_c, 0, 64, 41
1, 219375, Control_c, 0, 64, 41
1, 219405, Control_c, 0, 64, 40
1, 219430, Note_off_c, 0, 58, 54
1, 219434, Control_c, 0, 64, 39
1, 219449, Control_c, 0, 64, 39
1, 219458, Poly_aftertouch_c, 0, 51, 0
1, 219463, Control_c, 0, 64, 38
1, 219478, Control_c, 0, 64, 36
1, 219493, Control_c, 0, 64, 35
1, 219508, Control_c, 0, 64, 33
1, 219523, Control_c, 0, 64, 32
1, 219537, Control_c, 0, 64, 31
1, 219552, Control_c, 0, 64, 29
1, 219567, Control_c, 0, 64, 25
1, 219582, Control_c, 0, 64, 22
1, 219597, Control_c, 0, 64, 19
1, 219602, Note_on_c, 0, 77, 57
1, 219604, Note_on_c, 0, 60, 41
1, 219605, Note_on_c, 0, 73, 47
1, 219611, Control_c, 0, 64, 17
1, 219627, Control_c, 0, 64, 12
1, 219642, Control_c, 0, 64, 0
1, 219662, Note_off_c, 0, 60, 58
1, 219763, Note_on_c, 0, 61, 48
1, 219823, Note_off_c, 0, 61, 55
1, 219994, Note_on_c, 0, 75, 54
1, 219995, Note_on_c, 0, 63, 40
1, 219995, Note_on_c, 0, 72, 41
1, 220102, Note_off_c, 0, 73, 41
1, 220103, Note_off_c, 0, 77, 35
1, 220365, Note_on_c, 0, 70, 46
1, 220370, Note_on_c, 0, 73, 53
1, 220439, Note_off_c, 0, 72, 44
1, 220454, Note_off_c, 0, 75, 49
1, 220733, Note_on_c, 0, 72, 47
1, 220742, Note_on_c, 0, 69, 37
1, 220803, Note_off_c, 0, 73, 49
1, 220838, Note_off_c, 0, 70, 38
1, 221107, Note_on_c, 0, 70, 49
1, 221110, Note_on_c, 0, 53, 28
1, 221115, Note_on_c, 0, 67, 41
1, 221127, Note_on_c, 0, 61, 30
1, 221194, Note_off_c, 0, 63, 34
1, 221241, Note_off_c, 0, 54, 43
1, 221247, Note_off_c, 0, 72, 34
1, 221275, Note_off_c, 0, 69, 42
1, 221462, Note_on_c, 0, 72, 63
1, 221464, Note_on_c, 0, 69, 55
1, 221479, Note_on_c, 0, 51, 43
1, 221488, Note_on_c, 0, 60, 41
1, 221512, Note_off_c, 0, 61, 57
1, 221523, Note_off_c, 0, 67, 57
1, 221539, Note_off_c, 0, 70, 58
1, 221579, Note_off_c, 0, 53, 43
1, 221816, Note_on_c, 0, 73, 64
1, 221826, Note_on_c, 0, 70, 61
1, 221832, Note_on_c, 0, 58, 45
1, 221839, Note_on_c, 0, 49, 38
1, 221905, Note_off_c, 0, 72, 58
1, 221909, Note_off_c, 0, 51, 61
1, 221952, Note_off_c, 0, 69, 59
1, 221963, Note_off_c, 0, 60, 37
1, 222207, Note_on_c, 0, 57, 38
1, 222207, Note_on_c, 0, 75, 67
1, 222218, Note_on_c, 0, 72, 57
1, 222223, Note_on_c, 0, 48, 33
1, 222309, Note_off_c, 0, 49, 29
1, 222332, Note_off_c, 0, 73, 59
1, 222338, Note_off_c, 0, 70, 48
1, 222354, Note_off_c, 0, 58, 37
1, 222472, Note_off_c, 0, 75, 58
1, 222574, Note_off_c, 0, 72, 36
1, 222578, Note_on_c, 0, 78, 67
1, 222585, Note_on_c, 0, 75, 63
1, 222591, Note_off_c, 0, 48, 36
1, 222595, Note_off_c, 0, 57, 37
1, 222957, Note_on_c, 0, 73, 47
1, 222960, Note_on_c, 0, 77, 56
1, 222967, Note_on_c, 0, 56, 34
1, 222985, Note_on_c, 0, 53, 18
1, 223054, Note_off_c, 0, 78, 39
1, 223130, Note_off_c, 0, 75, 25
1, 223337, Note_on_c, 0, 75, 55
1, 223341, Note_on_c, 0, 71, 39
1, 223415, Note_off_c, 0, 73, 57
1, 223475, Note_off_c, 0, 77, 30
1, 223686, Note_on_c, 0, 74, 42
1, 223688, Note_on_c, 0, 70, 45
1, 223713, Note_on_c, 0, 46, 29
1, 223763, Note_off_c, 0, 75, 38
1, 223800, Note_off_c, 0, 71, 35
1, 223887, Note_off_c, 0, 53, 43
1, 223899, Note_off_c, 0, 70, 47
1, 223952, Note_off_c, 0, 74, 56
1, 224061, Note_on_c, 0, 77, 59
1, 224073, Note_on_c, 0, 74, 51
1, 224430, Note_on_c, 0, 75, 55
1, 224432, Note_on_c, 0, 72, 52
1, 224433, Note_on_c, 0, 51, 39
1, 224437, Note_on_c, 0, 54, 39
1, 224486, Note_off_c, 0, 74, 52
1, 224674, Note_off_c, 0, 46, 40
1, 224690, Note_off_c, 0, 56, 38
1, 224702, Note_off_c, 0, 77, 36
1, 224788, Note_on_c, 0, 73, 56
1, 224794, Note_on_c, 0, 70, 56
1, 224833, Note_off_c, 0, 72, 59
1, 224875, Note_off_c, 0, 75, 56
1, 225180, Note_on_c, 0, 69, 44
1, 225181, Note_on_c, 0, 72, 62
1, 225295, Note_off_c, 0, 73, 52
1, 225296, Note_off_c, 0, 70, 51
1, 225573, Note_on_c, 0, 49, 38
1, 225573, Note_on_c, 0, 53, 51
1, 225608, Note_off_c, 0, 51, 36
1, 225656, Note_off_c, 0, 54, 44
1, 225917, Note_on_c, 0, 51, 51
1, 225924, Note_on_c, 0, 73, 65
1, 225930, Note_on_c, 0, 70, 59
1, 225938, Note_on_c, 0, 48, 42
1, 226012, Note_off_c, 0, 49, 38
1, 226052, Note_off_c, 0, 53, 55
1, 226109, Note_off_c, 0, 69, 49
1, 226138, Note_off_c, 0, 72, 38
1, 226297, Note_off_c, 0, 48, 49
1, 226305, Note_on_c, 0, 46, 45
1, 226311, Note_on_c, 0, 49, 49
1, 226364, Note_off_c, 0, 51, 60
1, 226657, Note_on_c, 0, 58, 39
1, 226669, Note_on_c, 0, 54, 52
1, 226674, Note_on_c, 0, 63, 69
1, 226748, Note_off_c, 0, 46, 36
1, 226779, Note_off_c, 0, 49, 59
1, 227036, Note_on_c, 0, 72, 67
1, 227335, Note_off_c, 0, 63, 56
1, 227404, Note_on_c, 0, 55, 60
1, 227407, Note_on_c, 0, 64, 54
1, 227444, Note_off_c, 0, 73, 13
1, 227513, Note_off_c, 0, 70, 49
1, 227576, Note_off_c, 0, 54, 55
1, 227581, Note_off_c, 0, 58, 41
1, 227782, Note_on_c, 0, 60, 49
1, 227787, Note_on_c, 0, 70, 62
1, 227891, Note_off_c, 0, 64, 37
1, 227911, Note_off_c, 0, 72, 58
1, 228151, Note_on_c, 0, 53, 18
1, 228154, Note_on_c, 0, 69, 52
1, 228157, Note_on_c, 0, 61, 36
1, 228158, Note_on_c, 0, 65, 38
1, 228202, Note_off_c, 0, 70, 54
1, 228282, Note_off_c, 0, 55, 36
1, 228296, Note_off_c, 0, 60, 49
1, 228309, Note_off_c, 0, 65, 50
1, 228374, Note_off_c, 0, 69, 62
1, 228520, Note_on_c, 0, 78, 70
1, 228534, Note_on_c, 0, 60, 44
1, 228538, Note_on_c, 0, 69, 44
1, 228621, Note_off_c, 0, 61, 55
1, 228879, Note_on_c, 0, 70, 70
1, 228881, Note_on_c, 0, 77, 85
1, 228887, Note_on_c, 0, 61, 65
1, 228932, Note_off_c, 0, 78, 64
1, 229000, Note_off_c, 0, 69, 53
1, 229081, Note_off_c, 0, 60, 34
1, 229244, Note_on_c, 0, 75, 83
1, 229252, Note_on_c, 0, 72, 75
1, 229258, Note_on_c, 0, 63, 71
1, 229340, Note_off_c, 0, 70, 58
1, 229350, Note_off_c, 0, 61, 56
1, 229388, Note_off_c, 0, 77, 56
1, 229405, Control_c, 0, 64, 33
1, 229419, Control_c, 0, 64, 51
1, 229434, Control_c, 0, 64, 61
1, 229449, Control_c, 0, 64, 68
1, 229464, Control_c, 0, 64, 80
1, 229479, Control_c, 0, 64, 127
1, 229487, Note_off_c, 0, 75, 62
1, 229620, Note_on_c, 0, 73, 78
1, 229638, Note_on_c, 0, 65, 56
1, 229675, Note_off_c, 0, 63, 57
1, 229701, Control_c, 0, 64, 115
1, 229716, Control_c, 0, 64, 88
1, 229730, Control_c, 0, 64, 75
1, 229745, Control_c, 0, 64, 66
1, 229760, Control_c, 0, 64, 56
1, 229775, Control_c, 0, 64, 43
1, 229790, Control_c, 0, 64, 38
1, 229858, Note_off_c, 0, 72, 62
1, 229871, Control_c, 0, 64, 39
1, 229886, Control_c, 0, 64, 46
1, 229900, Control_c, 0, 64, 57
1, 229915, Control_c, 0, 64, 63
1, 229930, Control_c, 0, 64, 69
1, 229945, Control_c, 0, 64, 83
1, 229960, Control_c, 0, 64, 127
1, 229980, Note_on_c, 0, 70, 87
1, 230118, Note_off_c, 0, 73, 54
1, 230345, Note_on_c, 0, 41, 76
1, 230353, Note_on_c, 0, 72, 94
1, 230449, Control_c, 0, 64, 106
1, 230464, Control_c, 0, 64, 90
1, 230479, Control_c, 0, 64, 80
1, 230494, Control_c, 0, 64, 73
1, 230508, Control_c, 0, 64, 67
1, 230523, Control_c, 0, 64, 61
1, 230529, Note_off_c, 0, 53, 44
1, 230538, Control_c, 0, 64, 55
1, 230553, Control_c, 0, 64, 51
1, 230575, Control_c, 0, 64, 50
1, 230590, Control_c, 0, 64, 49
1, 230606, Control_c, 0, 64, 47
1, 230621, Control_c, 0, 64, 46
1, 230636, Control_c, 0, 64, 45
1, 230650, Control_c, 0, 64, 45
1, 230665, Control_c, 0, 64, 44
1, 230680, Control_c, 0, 64, 43
1, 230694, Control_c, 0, 64, 42
1, 230709, Control_c, 0, 64, 42
1, 230765, Note_on_c, 0, 69, 83
1, 230783, Control_c, 0, 64, 41
1, 230845, Note_off_c, 0, 70, 60
1, 230962, Control_c, 0, 64, 41
1, 231255, Note_on_c, 0, 42, 72
1, 231258, Note_on_c, 0, 70, 80
1, 231385, Control_c, 0, 64, 40
1, 231441, Note_off_c, 0, 41, 55
1, 231444, Control_c, 0, 64, 40
1, 231446, Note_off_c, 0, 69, 57
1, 231453, Note_off_c, 0, 72, 55
1, 231488, Control_c, 0, 64, 39
1, 231714, Note_on_c, 0, 68, 74
1, 231770, Control_c, 0, 64, 41
1, 231785, Control_c, 0, 64, 47
1, 231800, Control_c, 0, 64, 53
1, 231814, Control_c, 0, 64, 59
1, 231829, Control_c, 0, 64, 63
1, 231844, Control_c, 0, 64, 68
1, 231859, Control_c, 0, 64, 83
1, 231874, Control_c, 0, 64, 127
1, 232067, Note_on_c, 0, 66, 67
1, 232073, Note_on_c, 0, 63, 63
1, 232088, Control_c, 0, 64, 106
1, 232103, Control_c, 0, 64, 85
1, 232118, Note_off_c, 0, 65, 58
1, 232118, Control_c, 0, 64, 72
1, 232133, Control_c, 0, 64, 62
1, 232148, Control_c, 0, 64, 45
1, 232163, Control_c, 0, 64, 41
1, 232178, Control_c, 0, 64, 43
1, 232193, Control_c, 0, 64, 50
1, 232208, Control_c, 0, 64, 56
1, 232222, Control_c, 0, 64, 61
1, 232237, Control_c, 0, 64, 66
1, 232252, Control_c, 0, 64, 70
1, 232267, Control_c, 0, 64, 80
1, 232282, Control_c, 0, 64, 100
1, 232296, Control_c, 0, 64, 127
1, 232301, Note_off_c, 0, 66, 57
1, 232385, Control_c, 0, 64, 119
1, 232400, Control_c, 0, 64, 101
1, 232411, Note_on_c, 0, 65, 69
1, 232413, Note_on_c, 0, 61, 60
1, 232416, Control_c, 0, 64, 87
1, 232431, Control_c, 0, 64, 76
1, 232445, Control_c, 0, 64, 68
1, 232460, Control_c, 0, 64, 60
1, 232464, Note_off_c, 0, 63, 60
1, 232467, Note_off_c, 0, 68, 57
1, 232475, Control_c, 0, 64, 49
1, 232490, Control_c, 0, 64, 44
1, 232549, Control_c, 0, 64, 45
1, 232563, Control_c, 0, 64, 51
1, 232578, Control_c, 0, 64, 58
1, 232593, Control_c, 0, 64, 64
1, 232608, Control_c, 0, 64, 68
1, 232623, Control_c, 0, 64, 75
1, 232637, Note_off_c, 0, 61, 62
1, 232637, Control_c, 0, 64, 89
1, 232652, Control_c, 0, 64, 127
1, 232792, Note_on_c, 0, 68, 78
1, 232803, Note_on_c, 0, 63, 50
1, 232819, Note_on_c, 0, 59, 55
1, 232823, Control_c, 0, 64, 99
1, 232838, Control_c, 0, 64, 85
1, 232840, Note_off_c, 0, 70, 63
1, 232851, Control_c, 0, 64, 77
1, 232866, Control_c, 0, 64, 72
1, 232881, Control_c, 0, 64, 67
1, 232896, Control_c, 0, 64, 61
1, 232911, Control_c, 0, 64, 50
1, 232926, Control_c, 0, 64, 41
1, 232941, Control_c, 0, 64, 41
1, 232956, Control_c, 0, 64, 40
1, 232966, Note_off_c, 0, 65, 55
1, 232970, Control_c, 0, 64, 37
1, 232985, Control_c, 0, 64, 27
1, 233000, Control_c, 0, 64, 0
1, 233001, Note_off_c, 0, 63, 58
1, 233119, Note_off_c, 0, 59, 58
1, 233170, Note_on_c, 0, 41, 53
1, 233177, Note_on_c, 0, 62, 70
1, 233245, Note_off_c, 0, 62, 63
1, 233251, Note_off_c, 0, 42, 58
1, 233349, Note_on_c, 0, 63, 74
1, 233411, Note_off_c, 0, 63, 61
1, 233566, Note_on_c, 0, 65, 72
1, 233574, Note_on_c, 0, 39, 53
1, 233603, Note_off_c, 0, 41, 52
1, 233916, Note_on_c, 0, 38, 55
1, 233980, Note_off_c, 0, 39, 35
1, 234016, Control_c, 0, 64, 11
1, 234031, Control_c, 0, 64, 30
1, 234046, Control_c, 0, 64, 42
1, 234061, Control_c, 0, 64, 50
1, 234076, Control_c, 0, 64, 54
1, 234079, Note_off_c, 0, 68, 59
1, 234090, Control_c, 0, 64, 57
1, 234105, Control_c, 0, 64, 60
1, 234120, Control_c, 0, 64, 63
1, 234135, Control_c, 0, 64, 67
1, 234150, Control_c, 0, 64, 74
1, 234164, Control_c, 0, 64, 81
1, 234179, Control_c, 0, 64, 85
1, 234194, Control_c, 0, 64, 86
1, 234208, Control_c, 0, 64, 86
1, 234223, Control_c, 0, 64, 85
1, 234238, Control_c, 0, 64, 84
1, 234253, Control_c, 0, 64, 83
1, 234268, Control_c, 0, 64, 82
1, 234282, Control_c, 0, 64, 81
1, 234297, Control_c, 0, 64, 78
1, 234301, Note_on_c, 0, 66, 64
1, 234315, Note_on_c, 0, 39, 44
1, 234315, Note_on_c, 0, 58, 50
1, 234320, Control_c, 0, 64, 76
1, 234335, Control_c, 0, 64, 72
1, 234351, Control_c, 0, 64, 69
1, 234365, Control_c, 0, 64, 67
1, 234380, Control_c, 0, 64, 65
1, 234395, Control_c, 0, 64, 62
1, 234409, Control_c, 0, 64, 59
1, 234410, Note_off_c, 0, 65, 58
1, 234424, Control_c, 0, 64, 55
1, 234439, Control_c, 0, 64, 51
1, 234444, Note_off_c, 0, 38, 45
1, 234454, Control_c, 0, 64, 49
1, 234469, Control_c, 0, 64, 48
1, 234483, Control_c, 0, 64, 47
1, 234498, Control_c, 0, 64, 46
1, 234513, Control_c, 0, 64, 43
1, 234528, Control_c, 0, 64, 41
1, 234542, Control_c, 0, 64, 39
1, 234557, Control_c, 0, 64, 37
1, 234572, Control_c, 0, 64, 37
1, 234676, Note_on_c, 0, 65, 61
1, 234683, Note_on_c, 0, 61, 49
1, 234691, Control_c, 0, 64, 38
1, 234706, Control_c, 0, 64, 41
1, 234720, Control_c, 0, 64, 44
1, 234735, Control_c, 0, 64, 47
1, 234750, Control_c, 0, 64, 52
1, 234765, Control_c, 0, 64, 55
1, 234773, Note_off_c, 0, 58, 35
1, 234780, Control_c, 0, 64, 58
1, 234795, Control_c, 0, 64, 61
1, 234810, Control_c, 0, 64, 63
1, 234825, Control_c, 0, 64, 66
1, 234840, Control_c, 0, 64, 71
1, 234855, Control_c, 0, 64, 80
1, 234870, Control_c, 0, 64, 96
1, 234884, Control_c, 0, 64, 127
1, 235032, Control_c, 0, 64, 109
1, 235047, Control_c, 0, 64, 100
1, 235063, Note_on_c, 0, 60, 50
1, 235066, Note_on_c, 0, 51, 64
1, 235067, Note_on_c, 0, 63, 54
1, 235069, Control_c, 0, 64, 93
1, 235084, Control_c, 0, 64, 88
1, 235099, Control_c, 0, 64, 83
1, 235105, Note_off_c, 0, 39, 58
1, 235114, Control_c, 0, 64, 78
1, 235129, Control_c, 0, 64, 74
1, 235144, Control_c, 0, 64, 71
1, 235147, Note_off_c, 0, 65, 33
1, 235158, Control_c, 0, 64, 69
1, 235163, Note_off_c, 0, 61, 31
1, 235173, Control_c, 0, 64, 67
1, 235188, Control_c, 0, 64, 65
1, 235203, Control_c, 0, 64, 64
1, 235218, Control_c, 0, 64, 62
1, 235232, Control_c, 0, 64, 59
1, 235247, Control_c, 0, 64, 57
1, 235262, Control_c, 0, 64, 56
1, 235277, Control_c, 0, 64, 55
1, 235292, Control_c, 0, 64, 54
1, 235306, Control_c, 0, 64, 53
1, 235321, Control_c, 0, 64, 52
1, 235336, Control_c, 0, 64, 51
1, 235351, Control_c, 0, 64, 50
1, 235365, Control_c, 0, 64, 50
1, 235380, Control_c, 0, 64, 49
1, 235395, Control_c, 0, 64, 48
1, 235410, Control_c, 0, 64, 48
1, 235425, Control_c, 0, 64, 47
1, 235439, Control_c, 0, 64, 47
1, 235444, Note_on_c, 0, 61, 52
1, 235448, Note_on_c, 0, 58, 45
1, 235469, Control_c, 0, 64, 46
1, 235484, Control_c, 0, 64, 46
1, 235499, Control_c, 0, 64, 45
1, 235513, Control_c, 0, 64, 45
1, 235528, Control_c, 0, 64, 44
1, 235532, Note_off_c, 0, 63, 55
1, 235541, Note_off_c, 0, 60, 37
1, 235543, Control_c, 0, 64, 44
1, 235558, Control_c, 0, 64, 43
1, 235573, Control_c, 0, 64, 43
1, 235603, Control_c, 0, 64, 42
1, 235633, Control_c, 0, 64, 42
1, 235648, Control_c, 0, 64, 41
1, 235662, Control_c, 0, 64, 41
1, 235677, Control_c, 0, 64, 40
1, 235707, Control_c, 0, 64, 40
1, 235752, Control_c, 0, 64, 39
1, 235816, Note_on_c, 0, 65, 58
1, 235818, Control_c, 0, 64, 39
1, 235819, Note_on_c, 0, 60, 44
1, 235820, Note_on_c, 0, 57, 35
1, 235876, Note_off_c, 0, 61, 55
1, 235892, Control_c, 0, 64, 38
1, 235922, Note_off_c, 0, 58, 36
1, 235952, Control_c, 0, 64, 38
1, 236026, Control_c, 0, 64, 37
1, 236055, Control_c, 0, 64, 37
1, 236070, Control_c, 0, 64, 36
1, 236081, Note_off_c, 0, 66, 27
1, 236085, Control_c, 0, 64, 36
1, 236100, Control_c, 0, 64, 35
1, 236115, Control_c, 0, 64, 34
1, 236129, Control_c, 0, 64, 34
1, 236144, Control_c, 0, 64, 33
1, 236159, Control_c, 0, 64, 32
1, 236174, Control_c, 0, 64, 30
1, 236184, Note_on_c, 0, 63, 46
1, 236184, Note_on_c, 0, 49, 35
1, 236188, Control_c, 0, 64, 30
1, 236203, Control_c, 0, 64, 29
1, 236205, Note_off_c, 0, 51, 41
1, 236218, Control_c, 0, 64, 28
1, 236228, Note_off_c, 0, 49, 60
1, 236232, Note_off_c, 0, 60, 49
1, 236233, Control_c, 0, 64, 27
1, 236248, Control_c, 0, 64, 26
1, 236262, Control_c, 0, 64, 25
1, 236277, Control_c, 0, 64, 24
1, 236292, Control_c, 0, 64, 24
1, 236307, Control_c, 0, 64, 23
1, 236342, Note_on_c, 0, 48, 42
1, 236372, Note_off_c, 0, 48, 56
1, 236548, Note_on_c, 0, 70, 64
1, 236561, Note_on_c, 0, 58, 43
1, 236566, Note_on_c, 0, 49, 29
1, 236567, Control_c, 0, 64, 24
1, 236596, Control_c, 0, 64, 25
1, 236610, Control_c, 0, 64, 27
1, 236625, Control_c, 0, 64, 28
1, 236631, Note_off_c, 0, 63, 55
1, 236640, Control_c, 0, 64, 30
1, 236655, Control_c, 0, 64, 31
1, 236670, Control_c, 0, 64, 33
1, 236673, Note_off_c, 0, 57, 43
1, 236685, Control_c, 0, 64, 34
1, 236700, Control_c, 0, 64, 37
1, 236715, Control_c, 0, 64, 39
1, 236730, Control_c, 0, 64, 40
1, 236745, Control_c, 0, 64, 41
1, 236759, Control_c, 0, 64, 42
1, 236774, Control_c, 0, 64, 43
1, 236789, Control_c, 0, 64, 44
1, 236803, Control_c, 0, 64, 45
1, 236818, Control_c, 0, 64, 46
1, 236833, Control_c, 0, 64, 47
1, 236848, Control_c, 0, 64, 48
1, 236863, Control_c, 0, 64, 48
1, 236877, Control_c, 0, 64, 49
1, 236892, Control_c, 0, 64, 51
1, 236907, Control_c, 0, 64, 53
1, 236916, Note_on_c, 0, 51, 40
1, 236917, Note_on_c, 0, 61, 50
1, 236922, Control_c, 0, 64, 54
1, 236937, Control_c, 0, 64, 56
1, 236951, Control_c, 0, 64, 58
1, 236966, Control_c, 0, 64, 60
1, 236981, Control_c, 0, 64, 63
1, 236995, Note_off_c, 0, 65, 55
1, 236996, Control_c, 0, 64, 65
1, 237010, Control_c, 0, 64, 68
1, 237025, Control_c, 0, 64, 76
1, 237040, Control_c, 0, 64, 93
1, 237055, Control_c, 0, 64, 127
1, 237286, Note_on_c, 0, 65, 71
1, 237288, Note_on_c, 0, 57, 41
1, 237292, Note_on_c, 0, 53, 37
1, 237307, Note_on_c, 0, 60, 39
1, 237360, Control_c, 0, 64, 110
1, 237375, Control_c, 0, 64, 97
1, 237389, Control_c, 0, 64, 86
1, 237404, Control_c, 0, 64, 77
1, 237419, Control_c, 0, 64, 69
1, 237424, Note_off_c, 0, 61, 37
1, 237433, Control_c, 0, 64, 63
1, 237444, Note_off_c, 0, 51, 40
1, 237448, Control_c, 0, 64, 55
1, 237453, Note_off_c, 0, 70, 34
1, 237454, Note_off_c, 0, 58, 40
1, 237460, Note_off_c, 0, 49, 39
1, 237463, Control_c, 0, 64, 49
1, 237478, Control_c, 0, 64, 48
1, 237567, Control_c, 0, 64, 48
1, 237582, Control_c, 0, 64, 51
1, 237597, Control_c, 0, 64, 54
1, 237612, Control_c, 0, 64, 57
1, 237626, Control_c, 0, 64, 61
1, 237641, Control_c, 0, 64, 64
1, 237654, Note_on_c, 0, 51, 57
1, 237656, Control_c, 0, 64, 66
1, 237671, Control_c, 0, 64, 71
1, 237686, Control_c, 0, 64, 78
1, 237700, Control_c, 0, 64, 96
1, 237715, Control_c, 0, 64, 127
1, 237738, Note_off_c, 0, 60, 58
1, 237750, Note_off_c, 0, 53, 42
1, 237890, Note_off_c, 0, 57, 38
1, 238005, Note_on_c, 0, 58, 76
1, 238021, Note_on_c, 0, 49, 44
1, 238027, Control_c, 0, 64, 102
1, 238042, Control_c, 0, 64, 81
1, 238064, Control_c, 0, 64, 67
1, 238069, Note_off_c, 0, 51, 54
1, 238079, Control_c, 0, 64, 56
1, 238095, Control_c, 0, 64, 42
1, 238107, Note_off_c, 0, 65, 56
1, 238110, Control_c, 0, 64, 43
1, 238125, Control_c, 0, 64, 50
1, 238139, Control_c, 0, 64, 57
1, 238154, Control_c, 0, 64, 62
1, 238169, Control_c, 0, 64, 66
1, 238184, Control_c, 0, 64, 72
1, 238199, Control_c, 0, 64, 88
1, 238203, Note_off_c, 0, 58, 62
1, 238213, Control_c, 0, 64, 127
1, 238378, Note_on_c, 0, 78, 83
1, 238381, Note_on_c, 0, 48, 56
1, 238475, Note_off_c, 0, 49, 34
1, 238730, Note_on_c, 0, 53, 79
1, 238743, Note_on_c, 0, 77, 78
1, 238751, Note_on_c, 0, 73, 62
1, 238752, Note_on_c, 0, 49, 61
1, 238761, Control_c, 0, 64, 107
1, 238775, Control_c, 0, 64, 98
1, 238790, Control_c, 0, 64, 91
1, 238805, Note_off_c, 0, 78, 55
1, 238814, Control_c, 0, 64, 84
1, 238828, Control_c, 0, 64, 76
1, 238842, Note_off_c, 0, 48, 52
1, 238843, Control_c, 0, 64, 69
1, 238858, Control_c, 0, 64, 64
1, 238873, Control_c, 0, 64, 60
1, 238888, Control_c, 0, 64, 56
1, 238903, Control_c, 0, 64, 54
1, 238918, Control_c, 0, 64, 51
1, 238932, Control_c, 0, 64, 46
1, 238947, Control_c, 0, 64, 40
1, 238962, Control_c, 0, 64, 33
1, 238977, Control_c, 0, 64, 24
1, 238992, Control_c, 0, 64, 12
1, 239006, Control_c, 0, 64, 0
1, 239102, Note_on_c, 0, 45, 64
1, 239102, Note_off_c, 0, 49, 60
1, 239110, Note_on_c, 0, 72, 72
1, 239110, Note_on_c, 0, 75, 80
1, 239149, Note_off_c, 0, 73, 62
1, 239469, Note_on_c, 0, 46, 74
1, 239471, Note_on_c, 0, 73, 79
1, 239473, Note_on_c, 0, 70, 71
1, 239473, Note_off_c, 0, 77, 12
1, 239581, Note_off_c, 0, 72, 59
1, 239598, Note_off_c, 0, 53, 51
1, 239603, Note_off_c, 0, 45, 62
1, 239620, Note_off_c, 0, 75, 62
1, 239743, Note_off_c, 0, 70, 61
1, 239836, Note_on_c, 0, 72, 84
1, 239837, Note_on_c, 0, 69, 59
1, 239838, Note_on_c, 0, 66, 69
1, 239899, Note_off_c, 0, 73, 63
1, 239946, Control_c, 0, 64, 21
1, 239961, Control_c, 0, 64, 40
1, 239976, Control_c, 0, 64, 51
1, 239991, Control_c, 0, 64, 59
1, 240006, Control_c, 0, 64, 65
1, 240020, Control_c, 0, 64, 71
1, 240035, Control_c, 0, 64, 90
1, 240050, Control_c, 0, 64, 127
1, 240052, Note_off_c, 0, 72, 60
1, 240066, Note_off_c, 0, 66, 59
1, 240190, Note_on_c, 0, 41, 74
1, 240192, Note_off_c, 0, 46, 59
1, 240198, Control_c, 0, 64, 117
1, 240200, Note_on_c, 0, 70, 72
1, 240203, Note_on_c, 0, 73, 81
1, 240210, Note_on_c, 0, 65, 70
1, 240213, Control_c, 0, 64, 88
1, 240227, Control_c, 0, 64, 73
1, 240241, Note_off_c, 0, 69, 59
1, 240242, Control_c, 0, 64, 61
1, 240257, Control_c, 0, 64, 40
1, 240272, Control_c, 0, 64, 0
1, 240353, Control_c, 0, 64, 32
1, 240368, Control_c, 0, 64, 59
1, 240373, Note_off_c, 0, 41, 64
1, 240383, Control_c, 0, 64, 67
1, 240384, Note_off_c, 0, 65, 61
1, 240399, Control_c, 0, 64, 79
1, 240414, Control_c, 0, 64, 127
1, 240425, Note_off_c, 0, 73, 61
1, 240432, Note_off_c, 0, 70, 63
1, 240563, Note_on_c, 0, 75, 92
1, 240566, Note_on_c, 0, 60, 75
1, 240572, Note_on_c, 0, 69, 72
1, 240577, Note_on_c, 0, 63, 75
1, 240606, Control_c, 0, 64, 107
1, 240621, Control_c, 0, 64, 87
1, 240636, Control_c, 0, 64, 74
1, 240650, Control_c, 0, 64, 67
1, 240665, Control_c, 0, 64, 62
1, 240679, Note_off_c, 0, 69, 60
1, 240680, Control_c, 0, 64, 59
1, 240695, Control_c, 0, 64, 56
1, 240710, Control_c, 0, 64, 52
1, 240724, Control_c, 0, 64, 50
1, 240739, Control_c, 0, 64, 47
1, 240754, Control_c, 0, 64, 44
1, 240769, Control_c, 0, 64, 42
1, 240784, Control_c, 0, 64, 40
1, 240796, Note_off_c, 0, 63, 62
1, 240799, Control_c, 0, 64, 39
1, 240813, Control_c, 0, 64, 36
1, 240828, Control_c, 0, 64, 33
1, 240843, Control_c, 0, 64, 30
1, 240858, Control_c, 0, 64, 25
1, 240873, Control_c, 0, 64, 19
1, 240888, Control_c, 0, 64, 0
1, 240920, Note_on_c, 0, 61, 69
1, 240921, Note_on_c, 0, 77, 88
1, 240921, Note_on_c, 0, 58, 67
1, 240924, Note_on_c, 0, 70, 76
1, 240962, Note_off_c, 0, 75, 59
1, 240998, Note_off_c, 0, 60, 52
1, 241275, Note_on_c, 0, 60, 84
1, 241284, Note_on_c, 0, 54, 71
1, 241287, Note_on_c, 0, 75, 82
1, 241287, Note_on_c, 0, 57, 64
1, 241290, Note_on_c, 0, 72, 84
1, 241314, Note_off_c, 0, 61, 61
1, 241314, Note_off_c, 0, 70, 63
1, 241326, Note_off_c, 0, 58, 53
1, 241329, Note_off_c, 0, 77, 61
1, 241542, Note_off_c, 0, 54, 63
1, 241547, Note_off_c, 0, 72, 63
1, 241589, Note_off_c, 0, 57, 58
1, 241635, Note_on_c, 0, 73, 85
1, 241636, Note_on_c, 0, 70, 77
1, 241637, Note_on_c, 0, 58, 74
1, 241641, Note_on_c, 0, 61, 75
1, 241643, Note_off_c, 0, 75, 63
1, 241645, Note_on_c, 0, 53, 68
1, 241689, Note_off_c, 0, 60, 53
1, 241711, Note_off_c, 0, 70, 61
1, 241739, Note_off_c, 0, 73, 59
1, 241801, Note_off_c, 0, 58, 61
1, 241815, Note_on_c, 0, 63, 89
1, 241842, Note_off_c, 0, 61, 62
1, 241896, Note_off_c, 0, 63, 63
1, 242009, Note_on_c, 0, 65, 84
1, 242012, Note_on_c, 0, 51, 71
1, 242016, Note_on_c, 0, 72, 88
1, 242020, Note_on_c, 0, 69, 73
1, 242021, Note_on_c, 0, 60, 67
1, 242039, Note_off_c, 0, 53, 57
1, 242149, Control_c, 0, 64, 50
1, 242164, Control_c, 0, 64, 64
1, 242178, Control_c, 0, 64, 78
1, 242193, Control_c, 0, 64, 127
1, 242216, Note_off_c, 0, 60, 62
1, 242283, Note_off_c, 0, 72, 59
1, 242387, Note_off_c, 0, 51, 60
1, 242391, Note_on_c, 0, 49, 66
1, 242392, Note_on_c, 0, 61, 70
1, 242392, Note_on_c, 0, 70, 88
1, 242444, Control_c, 0, 64, 82
1, 242459, Control_c, 0, 64, 61
1, 242460, Note_off_c, 0, 69, 61
1, 242474, Control_c, 0, 64, 0
1, 242784, Note_on_c, 0, 48, 62
1, 242787, Note_on_c, 0, 66, 80
1, 242794, Note_on_c, 0, 63, 75
1, 242831, Note_off_c, 0, 49, 57
1, 242855, Note_off_c, 0, 65, 57
1, 242906, Note_off_c, 0, 61, 55
1, 243225, Note_on_c, 0, 50, 60
1, 243233, Note_on_c, 0, 58, 56
1, 243240, Note_on_c, 0, 68, 78
1, 243240, Note_on_c, 0, 65, 68
1, 243317, Note_off_c, 0, 66, 57
1, 243330, Note_off_c, 0, 63, 56
1, 243393, Control_c, 0, 64, 45
1, 243408, Control_c, 0, 64, 61
1, 243419, Note_off_c, 0, 48, 33
1, 243423, Control_c, 0, 64, 72
1, 243438, Control_c, 0, 64, 100
1, 243452, Control_c, 0, 64, 127
1, 243491, Note_off_c, 0, 70, 56
1, 243493, Note_off_c, 0, 65, 61
1, 243623, Note_on_c, 0, 72, 86
1, 243626, Note_on_c, 0, 66, 72
1, 243630, Note_on_c, 0, 63, 77
1, 243635, Note_on_c, 0, 51, 73
1, 243646, Control_c, 0, 64, 117
1, 243654, Note_off_c, 0, 68, 61
1, 243661, Control_c, 0, 64, 90
1, 243675, Control_c, 0, 64, 74
1, 243690, Control_c, 0, 64, 60
1, 243699, Note_off_c, 0, 58, 48
1, 243705, Control_c, 0, 64, 29
1, 243720, Control_c, 0, 64, 0
1, 243768, Note_off_c, 0, 50, 57
1, 243940, Note_off_c, 0, 63, 62
1, 243941, Note_off_c, 0, 66, 57
1, 244017, Note_on_c, 0, 53, 77
1, 244027, Note_on_c, 0, 73, 91
1, 244032, Note_on_c, 0, 65, 76
1, 244043, Note_on_c, 0, 61, 76
1, 244055, Note_off_c, 0, 51, 62
1, 244092, Note_off_c, 0, 72, 55
1, 244170, Note_off_c, 0, 53, 61
1, 244224, Note_on_c, 0, 54, 85
1, 244289, Note_off_c, 0, 54, 65
1, 244419, Note_on_c, 0, 52, 91
1, 244486, Note_off_c, 0, 52, 64
1, 244546, Note_off_c, 0, 65, 60
1, 244605, Note_on_c, 0, 53, 93
1, 244664, Note_off_c, 0, 53, 64
1, 244870, Note_on_c, 0, 40, 76
1, 244879, Note_on_c, 0, 67, 88
1, 244927, Note_off_c, 0, 61, 60
1, 244947, Note_off_c, 0, 73, 58
1, 245292, Note_on_c, 0, 73, 89
1, 245551, Control_c, 0, 64, 9
1, 245566, Control_c, 0, 64, 17
1, 245581, Control_c, 0, 64, 20
1, 245595, Control_c, 0, 64, 21
1, 245696, Note_on_c, 0, 60, 88
1, 245696, Note_on_c, 0, 72, 87
1, 245749, Note_off_c, 0, 73, 63
1, 245814, Note_off_c, 0, 67, 59
1, 246071, Note_on_c, 0, 70, 87
1, 246130, Control_c, 0, 64, 21
1, 246144, Control_c, 0, 64, 28
1, 246159, Control_c, 0, 64, 38
1, 246174, Control_c, 0, 64, 46
1, 246189, Control_c, 0, 64, 54
1, 246204, Control_c, 0, 64, 61
1, 246218, Control_c, 0, 64, 66
1, 246233, Control_c, 0, 64, 74
1, 246248, Control_c, 0, 64, 92
1, 246263, Control_c, 0, 64, 127
1, 246346, Note_off_c, 0, 70, 61
1, 246352, Note_off_c, 0, 60, 53
1, 246523, Note_on_c, 0, 70, 90
1, 246525, Note_on_c, 0, 60, 81
1, 246525, Note_on_c, 0, 65, 78
1, 246529, Note_on_c, 0, 41, 69
1, 246552, Control_c, 0, 64, 111
1, 246567, Control_c, 0, 64, 94
1, 246582, Control_c, 0, 64, 86
1, 246597, Control_c, 0, 64, 81
1, 246611, Control_c, 0, 64, 77
1, 246626, Control_c, 0, 64, 73
1, 246630, Note_off_c, 0, 40, 57
1, 246641, Control_c, 0, 64, 69
1, 246656, Control_c, 0, 64, 66
1, 246671, Control_c, 0, 64, 63
1, 246686, Control_c, 0, 64, 61
1, 246701, Control_c, 0, 64, 58
1, 246716, Control_c, 0, 64, 55
1, 246731, Control_c, 0, 64, 52
1, 246745, Control_c, 0, 64, 50
1, 246749, Note_off_c, 0, 72, 52
1, 246760, Control_c, 0, 64, 46
1, 246775, Control_c, 0, 64, 43
1, 246790, Control_c, 0, 64, 41
1, 246805, Control_c, 0, 64, 39
1, 246820, Control_c, 0, 64, 36
1, 246835, Control_c, 0, 64, 33
1, 246850, Control_c, 0, 64, 31
1, 246865, Control_c, 0, 64, 30
1, 246880, Control_c, 0, 64, 29
1, 246894, Control_c, 0, 64, 28
1, 246909, Control_c, 0, 64, 27
1, 246924, Control_c, 0, 64, 26
1, 246939, Control_c, 0, 64, 25
1, 246966, Note_on_c, 0, 66, 85
1, 246968, Control_c, 0, 64, 25
1, 247108, Control_c, 0, 64, 25
1, 247123, Control_c, 0, 64, 26
1, 247138, Control_c, 0, 64, 31
1, 247153, Control_c, 0, 64, 37
1, 247155, Note_off_c, 0, 65, 53
1, 247162, Note_off_c, 0, 70, 64
1, 247167, Control_c, 0, 64, 47
1, 247182, Control_c, 0, 64, 55
1, 247197, Control_c, 0, 64, 62
1, 247212, Control_c, 0, 64, 66
1, 247227, Control_c, 0, 64, 75
1, 247241, Control_c, 0, 64, 90
1, 247256, Control_c, 0, 64, 110
1, 247271, Control_c, 0, 64, 127
1, 247456, Note_on_c, 0, 69, 82
1, 247457, Note_on_c, 0, 65, 79
1, 247462, Note_on_c, 0, 53, 73
1, 247464, Control_c, 0, 64, 113
1, 247479, Control_c, 0, 64, 102
1, 247493, Control_c, 0, 64, 91
1, 247508, Control_c, 0, 64, 81
1, 247513, Note_off_c, 0, 66, 56
1, 247523, Control_c, 0, 64, 74
1, 247538, Control_c, 0, 64, 70
1, 247553, Control_c, 0, 64, 67
1, 247567, Control_c, 0, 64, 65
1, 247583, Control_c, 0, 64, 63
1, 247598, Control_c, 0, 64, 59
1, 247604, Note_off_c, 0, 60, 51
1, 247613, Control_c, 0, 64, 57
1, 247628, Control_c, 0, 64, 55
1, 247643, Control_c, 0, 64, 53
1, 247658, Control_c, 0, 64, 51
1, 247672, Control_c, 0, 64, 49
1, 247687, Control_c, 0, 64, 46
1, 247702, Control_c, 0, 64, 45
1, 247716, Control_c, 0, 64, 44
1, 247731, Control_c, 0, 64, 42
1, 247746, Control_c, 0, 64, 40
1, 247761, Control_c, 0, 64, 38
1, 247776, Control_c, 0, 64, 35
1, 247798, Control_c, 0, 64, 33
1, 247813, Control_c, 0, 64, 30
1, 247828, Control_c, 0, 64, 27
1, 247842, Control_c, 0, 64, 24
1, 247857, Control_c, 0, 64, 23
1, 247872, Control_c, 0, 64, 22
1, 247887, Control_c, 0, 64, 21
1, 247902, Control_c, 0, 64, 20
1, 247916, Control_c, 0, 64, 19
1, 247931, Control_c, 0, 64, 17
1, 247946, Control_c, 0, 64, 16
1, 247961, Control_c, 0, 64, 13
1, 247976, Control_c, 0, 64, 12
1, 247990, Control_c, 0, 64, 11
1, 248009, Note_on_c, 0, 63, 67
1, 248054, Note_off_c, 0, 65, 56
1, 248168, Control_c, 0, 64, 12
1, 248227, Control_c, 0, 64, 13
1, 248257, Control_c, 0, 64, 15
1, 248272, Control_c, 0, 64, 16
1, 248287, Control_c, 0, 64, 17
1, 248316, Control_c, 0, 64, 17
1, 248346, Control_c, 0, 64, 19
1, 248361, Control_c, 0, 64, 20
1, 248376, Control_c, 0, 64, 21
1, 248451, Control_c, 0, 64, 21
1, 248510, Control_c, 0, 64, 22
1, 248525, Control_c, 0, 64, 23
1, 248541, Note_off_c, 0, 63, 35
1, 248546, Control_c, 0, 64, 23
1, 248570, Note_off_c, 0, 41, 34
1, 248606, Control_c, 0, 64, 24
1, 248665, Control_c, 0, 64, 24
1, 248725, Control_c, 0, 64, 25
1, 248799, Control_c, 0, 64, 25
1, 248813, Control_c, 0, 64, 26
1, 248872, Control_c, 0, 64, 26
1, 248887, Control_c, 0, 64, 27
1, 248902, Control_c, 0, 64, 27
1, 248911, Note_on_c, 0, 58, 51
1, 248913, Note_on_c, 0, 62, 50
1, 248920, Note_on_c, 0, 70, 61
1, 248929, Note_on_c, 0, 46, 31
1, 248931, Control_c, 0, 64, 28
1, 248946, Control_c, 0, 64, 28
1, 248961, Control_c, 0, 64, 29
1, 249129, Note_off_c, 0, 69, 39
1, 249399, Control_c, 0, 64, 29
1, 249473, Control_c, 0, 64, 30
1, 249533, Control_c, 0, 64, 30
1, 249547, Control_c, 0, 64, 31
1, 249562, Control_c, 0, 64, 32
1, 249622, Control_c, 0, 64, 33
1, 249636, Control_c, 0, 64, 34
1, 249651, Control_c, 0, 64, 35
1, 249740, Control_c, 0, 64, 36
1, 249784, Control_c, 0, 64, 36
1, 249829, Control_c, 0, 64, 37
1, 249873, Control_c, 0, 64, 37
1, 249887, Control_c, 0, 64, 38
1, 249917, Control_c, 0, 64, 38
1, 249962, Control_c, 0, 64, 39
1, 250059, Control_c, 0, 64, 39
1, 252644, Note_off_c, 0, 62, 36
1, 252657, Note_off_c, 0, 53, 35
1, 252663, Note_off_c, 0, 46, 31
1, 252671, Note_off_c, 0, 58, 35
1, 252719, Note_off_c, 0, 70, 36
1, 254758, Control_c, 0, 64, 39
1, 254788, Control_c, 0, 64, 38
1, 254833, Control_c, 0, 64, 38
1, 255055, Control_c, 0, 64, 37
1, 255070, Control_c, 0, 64, 37
1, 255114, Control_c, 0, 64, 36
1, 255233, Control_c, 0, 64, 36
1, 255937, Control_c, 0, 64, 35
1, 255996, Control_c, 0, 64, 34
1, 256034, Control_c, 0, 64, 34
1, 256049, Control_c, 0, 64, 33
1, 256078, Control_c, 0, 64, 33
1, 256093, Control_c, 0, 64, 32
1, 256137, Control_c, 0, 64, 32
1, 256182, Control_c, 0, 64, 31
1, 256211, Control_c, 0, 64, 31
1, 256226, Control_c, 0, 64, 30
1, 256344, Control_c, 0, 64, 30
1, 256419, Control_c, 0, 64, 29
1, 256582, Control_c, 0, 64, 29
1, 256627, Control_c, 0, 64, 28
1, 256657, Control_c, 0, 64, 28
1, 256687, Control_c, 0, 64, 27
1, 256731, Control_c, 0, 64, 27
1, 256760, Control_c, 0, 64, 26
1, 256782, Control_c, 0, 64, 24
1, 256812, Control_c, 0, 64, 24
1, 256842, Control_c, 0, 64, 19
1, 256857, Control_c, 0, 64, 0
1, 256932, End_track
0, 0, End_of_file
