0, 0, Header, 0, 1, 384
1, 0, Start_track
1, 0, Title_t, "ProkofievSonataNo6Op82--Sham    "
1, 0, Text_t, "2011 ePiano Junior Competition"
1, 0, Text_t, "captured in spring and summer 2011"
1, 0, Text_t, "http://www.piano-e-competition.com/"
1, 0, Text_t, "standard-resolution version"
1, 0, Text_t, "File processed for distribution with software designed and coded by Dr. John Q. Walker, founder of Zenph Sound Innovations"
1, 0, Instrument_name_t, "Yamaha Disklavier Pro Mark IV concert grand piano, model DCFIIISM4PRO"
1, 0, Sequencer_specific, 39, 67, 113, 0, 1, 0, 1, 0, 80, 114, 111, 107, 111, 102, 105, 101, 118, 78, 111, 54, 79, 112, 56, 50, 65, 114, 105, 115, 116, 111, 32, 83, 104, 97, 109, 32, 32, 32, 32, 32
1, 0, Sequencer_specific, 6, 67, 113, 0, 0, 0, 69
1, 0, System_exclusive, 21, 67, 113, 126, 21, 0, 2, 2, 2, 5, 12, 8, 4, 14, 1, 4, 12, 5, 0, 11, 6, 247
1, 0, Sequencer_specific, 5, 67, 123, 12, 2, 1
1, 0, Tempo, 512820
1, 0, Time_signature, 4, 2, 24, 8
1, 0, System_exclusive, 5, 126, 127, 9, 1, 247
1, 1, System_exclusive, 8, 67, 16, 76, 0, 0, 126, 0, 247
1, 2, System_exclusive, 8, 67, 16, 76, 8, 9, 7, 1, 247
1, 3, Control_c, 0, 0, 108
1, 3, Control_c, 1, 0, 108
1, 3, Control_c, 2, 0, 0
1, 3, Control_c, 3, 0, 0
1, 3, Control_c, 4, 0, 0
1, 3, Control_c, 5, 0, 0
1, 3, Control_c, 6, 0, 0
1, 3, Control_c, 7, 0, 0
1, 3, Control_c, 8, 0, 0
1, 3, Control_c, 9, 0, 127
1, 3, Control_c, 10, 0, 0
1, 3, Control_c, 11, 0, 0
1, 3, Control_c, 12, 0, 0
1, 3, Control_c, 13, 0, 0
1, 3, Control_c, 14, 0, 0
1, 3, Control_c, 15, 0, 0
1, 4, Control_c, 0, 32, 0
1, 4, Control_c, 1, 32, 0
1, 4, Control_c, 2, 32, 0
1, 4, Control_c, 3, 32, 0
1, 4, Control_c, 4, 32, 0
1, 4, Control_c, 5, 32, 0
1, 4, Control_c, 6, 32, 0
1, 4, Control_c, 7, 32, 0
1, 4, Control_c, 8, 32, 0
1, 4, Control_c, 9, 32, 0
1, 4, Control_c, 10, 32, 0
1, 4, Control_c, 11, 32, 0
1, 4, Control_c, 12, 32, 0
1, 4, Control_c, 13, 32, 0
1, 4, Control_c, 14, 32, 0
1, 4, Control_c, 15, 32, 0
1, 5, Program_c, 0, 0
1, 5, Program_c, 1, 0
1, 5, Program_c, 2, 0
1, 5, Program_c, 3, 0
1, 5, Program_c, 4, 0
1, 5, Program_c, 5, 0
1, 5, Program_c, 6, 0
1, 5, Program_c, 7, 0
1, 5, Program_c, 8, 0
1, 5, Program_c, 9, 0
1, 5, Program_c, 10, 0
1, 5, Program_c, 11, 0
1, 5, Program_c, 12, 0
1, 5, Program_c, 13, 0
1, 5, Program_c, 14, 0
1, 5, Program_c, 15, 0
1, 6, Control_c, 0, 7, 100
1, 6, Control_c, 1, 7, 100
1, 6, Control_c, 2, 7, 100
1, 6, Control_c, 3, 7, 100
1, 6, Control_c, 4, 7, 100
1, 6, Control_c, 5, 7, 100
1, 6, Control_c, 6, 7, 100
1, 6, Control_c, 7, 7, 100
1, 6, Control_c, 8, 7, 100
1, 6, Control_c, 9, 7, 100
1, 6, Control_c, 10, 7, 100
1, 6, Control_c, 11, 7, 100
1, 6, Control_c, 12, 7, 100
1, 6, Control_c, 13, 7, 100
1, 6, Control_c, 14, 7, 100
1, 6, Control_c, 15, 7, 100
1, 42, Control_c, 0, 64, 15
1, 79, Control_c, 0, 64, 31
1, 116, Control_c, 0, 64, 46
1, 153, Control_c, 0, 64, 63
1, 190, Control_c, 0, 64, 77
1, 226, Control_c, 0, 64, 94
1, 263, Control_c, 0, 64, 108
1, 300, Control_c, 0, 64, 127
1, 379, Note_on_c, 0, 45, 97
1, 381, Note_on_c, 0, 33, 94
1, 383, Note_on_c, 0, 73, 109
1, 384, Note_on_c, 0, 74, 101
1, 384, Note_on_c, 0, 76, 99
1, 419, Note_on_c, 0, 72, 46
1, 434, Control_c, 0, 64, 79
1, 443, Note_off_c, 0, 76, 60
1, 446, Note_off_c, 0, 72, 62
1, 449, Note_off_c, 0, 33, 63
1, 449, Note_off_c, 0, 74, 61
1, 449, Control_c, 0, 64, 35
1, 463, Note_off_c, 0, 73, 67
1, 464, Note_off_c, 0, 45, 65
1, 464, Control_c, 0, 64, 0
1, 812, Note_on_c, 0, 63, 110
1, 816, Note_on_c, 0, 51, 102
1, 817, Note_on_c, 0, 72, 110
1, 820, Note_on_c, 0, 76, 112
1, 890, Note_on_c, 0, 74, 82
1, 891, Note_on_c, 0, 70, 83
1, 905, Note_on_c, 0, 71, 87
1, 905, Note_off_c, 0, 70, 70
1, 906, Note_off_c, 0, 72, 62
1, 937, Note_off_c, 0, 76, 61
1, 976, Note_on_c, 0, 73, 91
1, 979, Note_on_c, 0, 69, 95
1, 1009, Note_off_c, 0, 71, 54
1, 1014, Note_off_c, 0, 74, 62
1, 1110, Control_c, 0, 64, 23
1, 1124, Control_c, 0, 64, 47
1, 1139, Control_c, 0, 64, 59
1, 1154, Control_c, 0, 64, 69
1, 1164, Note_off_c, 0, 63, 62
1, 1169, Control_c, 0, 64, 89
1, 1184, Control_c, 0, 64, 127
1, 1215, Note_off_c, 0, 69, 61
1, 1222, Note_off_c, 0, 73, 63
1, 1224, Note_off_c, 0, 51, 61
1, 1302, Control_c, 0, 64, 109
1, 1315, Note_on_c, 0, 76, 102
1, 1317, Control_c, 0, 64, 76
1, 1318, Note_on_c, 0, 73, 107
1, 1339, Control_c, 0, 64, 45
1, 1346, Note_off_c, 0, 73, 67
1, 1352, Note_off_c, 0, 76, 68
1, 1354, Control_c, 0, 64, 0
1, 1504, Note_on_c, 0, 51, 104
1, 1504, Note_on_c, 0, 76, 112
1, 1505, Note_on_c, 0, 72, 101
1, 1508, Note_on_c, 0, 39, 94
1, 1531, Control_c, 0, 64, 76
1, 1546, Control_c, 0, 64, 127
1, 1549, Note_off_c, 0, 51, 65
1, 1552, Note_off_c, 0, 72, 0
1, 1566, Note_on_c, 0, 74, 90
1, 1574, Note_on_c, 0, 70, 92
1, 1574, Poly_aftertouch_c, 0, 72, 0
1, 1575, Note_off_c, 0, 39, 64
1, 1620, Note_off_c, 0, 76, 58
1, 1635, Control_c, 0, 64, 75
1, 1647, Note_on_c, 0, 73, 95
1, 1650, Control_c, 0, 64, 41
1, 1650, Note_on_c, 0, 69, 98
1, 1665, Control_c, 0, 64, 0
1, 1672, Note_off_c, 0, 70, 64
1, 1680, Note_off_c, 0, 74, 62
1, 1695, Note_off_c, 0, 69, 66
1, 1703, Note_off_c, 0, 73, 67
1, 1841, Note_on_c, 0, 76, 109
1, 1843, Note_on_c, 0, 73, 112
1, 1845, Note_on_c, 0, 45, 98
1, 1849, Note_on_c, 0, 33, 89
1, 1859, Note_on_c, 0, 74, 92
1, 1866, Note_off_c, 0, 73, 64
1, 1870, Note_off_c, 0, 74, 74
1, 1870, Note_off_c, 0, 33, 64
1, 1873, Note_off_c, 0, 45, 68
1, 1873, Control_c, 0, 64, 79
1, 1874, Note_off_c, 0, 76, 70
1, 1888, Control_c, 0, 64, 127
1, 1977, Control_c, 0, 64, 108
1, 1987, Poly_aftertouch_c, 0, 33, 127
1, 1992, Control_c, 0, 64, 63
1, 2007, Control_c, 0, 64, 0
1, 2014, Poly_aftertouch_c, 0, 33, 0
1, 2237, Note_on_c, 0, 63, 101
1, 2240, Note_on_c, 0, 51, 104
1, 2241, Note_on_c, 0, 72, 111
1, 2242, Note_on_c, 0, 76, 109
1, 2264, Note_on_c, 0, 58, 53
1, 2288, Note_off_c, 0, 58, 57
1, 2311, Note_on_c, 0, 70, 94
1, 2313, Note_on_c, 0, 74, 82
1, 2325, Note_off_c, 0, 72, 51
1, 2387, Note_off_c, 0, 76, 39
1, 2390, Note_on_c, 0, 73, 93
1, 2395, Note_on_c, 0, 69, 93
1, 2418, Note_off_c, 0, 70, 63
1, 2434, Note_off_c, 0, 74, 60
1, 2547, Control_c, 0, 64, 57
1, 2562, Control_c, 0, 64, 72
1, 2563, Note_off_c, 0, 63, 61
1, 2577, Control_c, 0, 64, 88
1, 2592, Control_c, 0, 64, 127
1, 2611, Note_off_c, 0, 69, 61
1, 2620, Note_off_c, 0, 73, 63
1, 2637, Note_off_c, 0, 51, 62
1, 2696, Control_c, 0, 64, 89
1, 2711, Control_c, 0, 64, 69
1, 2718, Note_on_c, 0, 76, 100
1, 2720, Note_on_c, 0, 73, 100
1, 2726, Control_c, 0, 64, 34
1, 2740, Note_off_c, 0, 73, 70
1, 2741, Control_c, 0, 64, 0
1, 2747, Note_off_c, 0, 76, 65
1, 2899, Note_on_c, 0, 51, 99
1, 2902, Note_on_c, 0, 72, 103
1, 2902, Note_on_c, 0, 76, 103
1, 2903, Note_on_c, 0, 39, 89
1, 2926, Control_c, 0, 64, 43
1, 2941, Control_c, 0, 64, 74
1, 2949, Note_off_c, 0, 72, 0
1, 2955, Control_c, 0, 64, 83
1, 2964, Note_on_c, 0, 74, 87
1, 2967, Note_off_c, 0, 51, 64
1, 2970, Control_c, 0, 64, 78
1, 2970, Note_on_c, 0, 70, 98
1, 2973, Poly_aftertouch_c, 0, 72, 0
1, 2985, Control_c, 0, 64, 62
1, 2997, Note_off_c, 0, 39, 64
1, 3000, Control_c, 0, 64, 0
1, 3003, Note_off_c, 0, 76, 63
1, 3048, Note_on_c, 0, 73, 96
1, 3053, Note_on_c, 0, 69, 93
1, 3068, Note_off_c, 0, 70, 64
1, 3073, Note_off_c, 0, 74, 62
1, 3097, Note_off_c, 0, 69, 65
1, 3101, Note_off_c, 0, 73, 66
1, 3221, Note_on_c, 0, 45, 90
1, 3223, Note_on_c, 0, 33, 88
1, 3223, Note_on_c, 0, 76, 104
1, 3224, Note_on_c, 0, 73, 105
1, 3245, Note_off_c, 0, 73, 68
1, 3252, Note_off_c, 0, 76, 67
1, 3293, Note_off_c, 0, 33, 60
1, 3325, Note_off_c, 0, 45, 64
1, 3400, Note_on_c, 0, 76, 66
1, 3401, Note_on_c, 0, 72, 59
1, 3438, Note_off_c, 0, 72, 62
1, 3459, Note_on_c, 0, 74, 66
1, 3465, Note_on_c, 0, 70, 68
1, 3489, Note_off_c, 0, 76, 59
1, 3545, Note_on_c, 0, 63, 84
1, 3547, Note_on_c, 0, 51, 83
1, 3549, Note_on_c, 0, 73, 81
1, 3555, Note_on_c, 0, 69, 81
1, 3561, Note_off_c, 0, 70, 59
1, 3563, Control_c, 0, 64, 64
1, 3585, Control_c, 0, 64, 75
1, 3590, Note_off_c, 0, 74, 62
1, 3599, Control_c, 0, 64, 99
1, 3614, Control_c, 0, 64, 127
1, 3628, Note_off_c, 0, 69, 62
1, 3635, Note_off_c, 0, 63, 62
1, 3636, Note_off_c, 0, 73, 64
1, 3674, Control_c, 0, 64, 85
1, 3684, Note_off_c, 0, 51, 64
1, 3689, Control_c, 0, 64, 64
1, 3704, Control_c, 0, 64, 0
1, 3719, Note_on_c, 0, 76, 102
1, 3722, Note_on_c, 0, 73, 101
1, 3743, Note_off_c, 0, 73, 68
1, 3749, Note_off_c, 0, 76, 68
1, 3886, Note_on_c, 0, 51, 103
1, 3888, Note_on_c, 0, 72, 108
1, 3891, Note_on_c, 0, 39, 98
1, 3891, Note_on_c, 0, 76, 103
1, 3911, Control_c, 0, 64, 69
1, 3924, Note_off_c, 0, 72, 67
1, 3925, Control_c, 0, 64, 127
1, 3936, Note_off_c, 0, 39, 64
1, 3956, Note_off_c, 0, 51, 60
1, 3960, Note_on_c, 0, 74, 84
1, 3961, Note_on_c, 0, 70, 101
1, 4014, Note_off_c, 0, 76, 50
1, 4014, Control_c, 0, 64, 84
1, 4029, Control_c, 0, 64, 57
1, 4030, Note_on_c, 0, 69, 98
1, 4034, Note_on_c, 0, 73, 91
1, 4044, Control_c, 0, 64, 0
1, 4052, Note_off_c, 0, 70, 65
1, 4058, Note_off_c, 0, 74, 64
1, 4071, Note_off_c, 0, 69, 67
1, 4077, Note_off_c, 0, 73, 68
1, 4224, Note_on_c, 0, 63, 98
1, 4226, Note_on_c, 0, 51, 94
1, 4226, Note_on_c, 0, 72, 108
1, 4226, Note_on_c, 0, 76, 109
1, 4253, Control_c, 0, 64, 92
1, 4267, Control_c, 0, 64, 127
1, 4268, Note_off_c, 0, 63, 66
1, 4289, Note_on_c, 0, 74, 87
1, 4292, Note_on_c, 0, 70, 100
1, 4303, Note_off_c, 0, 72, 54
1, 4304, Note_off_c, 0, 51, 61
1, 4336, Note_off_c, 0, 76, 62
1, 4371, Note_on_c, 0, 73, 93
1, 4375, Note_off_c, 0, 74, 63
1, 4379, Control_c, 0, 64, 103
1, 4383, Note_on_c, 0, 69, 92
1, 4389, Note_off_c, 0, 70, 67
1, 4394, Control_c, 0, 64, 70
1, 4409, Control_c, 0, 64, 0
1, 4411, Note_off_c, 0, 73, 69
1, 4421, Note_off_c, 0, 69, 67
1, 4583, Note_on_c, 0, 64, 99
1, 4585, Note_on_c, 0, 51, 86
1, 4585, Note_on_c, 0, 52, 101
1, 4586, Note_on_c, 0, 55, 80
1, 4592, Note_on_c, 0, 53, 76
1, 4592, Note_on_c, 0, 46, 68
1, 4602, Note_on_c, 0, 54, 59
1, 4603, Note_off_c, 0, 54, 127
1, 4616, Control_c, 0, 64, 71
1, 4631, Control_c, 0, 64, 127
1, 4655, Note_on_c, 0, 45, 8
1, 4658, Note_off_c, 0, 55, 63
1, 4669, Note_off_c, 0, 53, 61
1, 4690, Note_off_c, 0, 51, 44
1, 4693, Note_off_c, 0, 45, 0
1, 4713, Note_off_c, 0, 46, 60
1, 4716, Poly_aftertouch_c, 0, 45, 0
1, 4744, Note_off_c, 0, 52, 58
1, 4855, Note_on_c, 0, 54, 101
1, 4869, Note_off_c, 0, 64, 62
1, 4896, Note_off_c, 0, 54, 67
1, 4927, Control_c, 0, 64, 116
1, 4940, Note_on_c, 0, 34, 87
1, 4942, Control_c, 0, 64, 67
1, 4943, Note_on_c, 0, 64, 107
1, 4944, Note_on_c, 0, 55, 110
1, 4956, Control_c, 0, 64, 0
1, 5017, Control_c, 0, 64, 40
1, 5032, Control_c, 0, 64, 70
1, 5043, Note_off_c, 0, 34, 62
1, 5046, Control_c, 0, 64, 107
1, 5058, Note_off_c, 0, 55, 59
1, 5061, Control_c, 0, 64, 127
1, 5081, Note_off_c, 0, 64, 61
1, 5364, Note_on_c, 0, 54, 89
1, 5367, Note_on_c, 0, 69, 106
1, 5369, Note_on_c, 0, 57, 99
1, 5370, Note_on_c, 0, 49, 80
1, 5371, Note_on_c, 0, 45, 69
1, 5394, Control_c, 0, 64, 105
1, 5399, Note_on_c, 0, 59, 53
1, 5400, Note_off_c, 0, 59, 127
1, 5409, Control_c, 0, 64, 75
1, 5424, Control_c, 0, 64, 62
1, 5439, Control_c, 0, 64, 31
1, 5453, Control_c, 0, 64, 0
1, 5676, Control_c, 0, 64, 36
1, 5690, Control_c, 0, 64, 65
1, 5705, Control_c, 0, 64, 77
1, 5720, Control_c, 0, 64, 127
1, 5749, Note_off_c, 0, 57, 58
1, 5783, Note_off_c, 0, 69, 60
1, 5796, Note_off_c, 0, 49, 62
1, 5796, Note_off_c, 0, 54, 60
1, 5818, Note_off_c, 0, 45, 62
1, 5964, Note_on_c, 0, 65, 91
1, 5966, Note_on_c, 0, 73, 102
1, 5969, Note_on_c, 0, 49, 78
1, 6025, Control_c, 0, 64, 79
1, 6040, Control_c, 0, 64, 58
1, 6054, Control_c, 0, 64, 0
1, 6138, Note_on_c, 0, 68, 82
1, 6141, Note_on_c, 0, 60, 82
1, 6142, Note_on_c, 0, 44, 71
1, 6149, Note_off_c, 0, 73, 63
1, 6152, Note_off_c, 0, 65, 62
1, 6154, Note_off_c, 0, 49, 64
1, 6174, Note_off_c, 0, 60, 67
1, 6187, Note_off_c, 0, 68, 63
1, 6311, Note_on_c, 0, 43, 69
1, 6312, Note_on_c, 0, 68, 94
1, 6313, Note_on_c, 0, 59, 86
1, 6315, Note_off_c, 0, 44, 62
1, 6333, Note_off_c, 0, 59, 71
1, 6345, Note_off_c, 0, 68, 59
1, 6483, Note_on_c, 0, 68, 94
1, 6491, Note_on_c, 0, 44, 66
1, 6491, Note_on_c, 0, 60, 68
1, 6503, Note_off_c, 0, 68, 69
1, 6508, Note_off_c, 0, 43, 57
1, 6518, Note_off_c, 0, 60, 69
1, 6655, Note_off_c, 0, 44, 57
1, 6666, Note_on_c, 0, 49, 58
1, 6669, Note_on_c, 0, 63, 81
1, 6675, Note_on_c, 0, 73, 84
1, 6820, Note_off_c, 0, 73, 63
1, 6837, Note_off_c, 0, 63, 62
1, 6841, Note_off_c, 0, 49, 63
1, 6846, Note_on_c, 0, 68, 76
1, 6851, Note_on_c, 0, 59, 73
1, 6856, Note_on_c, 0, 43, 58
1, 6872, Note_off_c, 0, 68, 66
1, 6876, Note_off_c, 0, 59, 67
1, 7022, Note_on_c, 0, 68, 91
1, 7030, Note_on_c, 0, 58, 79
1, 7031, Note_on_c, 0, 42, 74
1, 7037, Note_off_c, 0, 43, 63
1, 7099, Control_c, 0, 64, 51
1, 7114, Control_c, 0, 64, 59
1, 7128, Note_off_c, 0, 58, 63
1, 7129, Control_c, 0, 64, 65
1, 7144, Control_c, 0, 64, 73
1, 7159, Control_c, 0, 64, 97
1, 7172, Control_c, 0, 64, 127
1, 7191, Note_on_c, 0, 43, 80
1, 7194, Note_on_c, 0, 59, 98
1, 7221, Note_off_c, 0, 43, 68
1, 7223, Note_off_c, 0, 42, 29
1, 7263, Note_off_c, 0, 59, 59
1, 7331, Note_off_c, 0, 68, 59
1, 7357, Control_c, 0, 64, 85
1, 7370, Note_on_c, 0, 48, 99
1, 7371, Note_on_c, 0, 72, 96
1, 7372, Note_on_c, 0, 63, 85
1, 7372, Control_c, 0, 64, 63
1, 7387, Control_c, 0, 64, 0
1, 7447, Control_c, 0, 64, 31
1, 7462, Control_c, 0, 64, 63
1, 7470, Note_off_c, 0, 72, 61
1, 7477, Control_c, 0, 64, 83
1, 7491, Control_c, 0, 64, 127
1, 7498, Note_off_c, 0, 48, 63
1, 7511, Note_off_c, 0, 63, 63
1, 7552, Poly_aftertouch_c, 0, 71, 0
1, 7594, Note_on_c, 0, 55, 94
1, 7596, Note_on_c, 0, 64, 103
1, 7598, Note_on_c, 0, 46, 82
1, 7598, Note_on_c, 0, 52, 96
1, 7602, Note_on_c, 0, 51, 84
1, 7610, Control_c, 0, 64, 100
1, 7625, Control_c, 0, 64, 73
1, 7640, Control_c, 0, 64, 53
1, 7654, Control_c, 0, 64, 0
1, 7728, Control_c, 0, 64, 24
1, 7743, Control_c, 0, 64, 62
1, 7753, Note_off_c, 0, 55, 59
1, 7758, Control_c, 0, 64, 78
1, 7764, Note_off_c, 0, 51, 64
1, 7768, Note_off_c, 0, 46, 62
1, 7773, Control_c, 0, 64, 127
1, 7782, Note_off_c, 0, 52, 62
1, 7785, Note_off_c, 0, 64, 61
1, 7966, Control_c, 0, 64, 90
1, 7971, Note_on_c, 0, 55, 91
1, 7975, Note_on_c, 0, 51, 77
1, 7976, Note_on_c, 0, 46, 80
1, 7976, Note_on_c, 0, 64, 102
1, 7978, Note_on_c, 0, 52, 94
1, 7981, Control_c, 0, 64, 65
1, 7996, Control_c, 0, 64, 0
1, 8040, Control_c, 0, 64, 40
1, 8044, Note_off_c, 0, 55, 61
1, 8045, Note_off_c, 0, 51, 63
1, 8048, Note_off_c, 0, 46, 62
1, 8055, Control_c, 0, 64, 64
1, 8077, Control_c, 0, 64, 81
1, 8087, Note_off_c, 0, 52, 62
1, 8092, Control_c, 0, 64, 127
1, 8137, Note_on_c, 0, 51, 100
1, 8148, Note_on_c, 0, 52, 93
1, 8177, Note_off_c, 0, 51, 65
1, 8179, Note_off_c, 0, 52, 59
1, 8247, Note_on_c, 0, 51, 105
1, 8377, Note_off_c, 0, 64, 60
1, 8384, Note_off_c, 0, 51, 63
1, 8406, Note_on_c, 0, 69, 103
1, 8408, Note_on_c, 0, 57, 103
1, 8409, Note_on_c, 0, 54, 92
1, 8416, Note_on_c, 0, 49, 75
1, 8419, Note_on_c, 0, 45, 73
1, 8419, Control_c, 0, 64, 125
1, 8434, Control_c, 0, 64, 86
1, 8449, Control_c, 0, 64, 68
1, 8463, Control_c, 0, 64, 45
1, 8478, Control_c, 0, 64, 0
1, 8655, Control_c, 0, 64, 48
1, 8670, Control_c, 0, 64, 67
1, 8685, Control_c, 0, 64, 85
1, 8687, Note_off_c, 0, 54, 63
1, 8700, Control_c, 0, 64, 127
1, 8716, Note_off_c, 0, 69, 60
1, 8755, Note_off_c, 0, 49, 62
1, 8772, Note_off_c, 0, 45, 61
1, 8772, Note_off_c, 0, 57, 63
1, 8944, Note_on_c, 0, 37, 84
1, 9015, Note_off_c, 0, 37, 58
1, 9114, Note_on_c, 0, 37, 96
1, 9117, Note_on_c, 0, 42, 96
1, 9138, Control_c, 0, 64, 85
1, 9151, Note_off_c, 0, 37, 60
1, 9153, Control_c, 0, 64, 60
1, 9154, Note_off_c, 0, 42, 62
1, 9168, Control_c, 0, 64, 0
1, 9198, Note_on_c, 0, 45, 84
1, 9253, Note_off_c, 0, 45, 63
1, 9294, Note_on_c, 0, 49, 75
1, 9366, Note_off_c, 0, 49, 62
1, 9373, Note_on_c, 0, 54, 79
1, 9378, Note_on_c, 0, 45, 78
1, 9406, Note_off_c, 0, 54, 66
1, 9418, Note_off_c, 0, 45, 64
1, 9455, Note_on_c, 0, 50, 87
1, 9462, Note_on_c, 0, 59, 78
1, 9477, Note_on_c, 0, 57, 49
1, 9484, Note_off_c, 0, 50, 65
1, 9504, Note_off_c, 0, 57, 58
1, 9521, Note_off_c, 0, 59, 55
1, 9536, Note_on_c, 0, 62, 86
1, 9618, Note_on_c, 0, 67, 82
1, 9625, Note_off_c, 0, 62, 63
1, 9684, Note_on_c, 0, 71, 94
1, 9691, Note_on_c, 0, 55, 91
1, 9692, Note_off_c, 0, 67, 65
1, 9705, Note_off_c, 0, 71, 69
1, 9712, Note_on_c, 0, 53, 40
1, 9713, Note_off_c, 0, 53, 127
1, 9716, Note_off_c, 0, 55, 69
1, 9758, Note_on_c, 0, 62, 102
1, 9767, Note_on_c, 0, 78, 106
1, 9767, Control_c, 0, 64, 12
1, 9782, Control_c, 0, 64, 68
1, 9789, Note_off_c, 0, 62, 70
1, 9797, Control_c, 0, 64, 102
1, 9813, Control_c, 0, 64, 127
1, 9828, Control_c, 0, 64, 104
1, 9841, Note_on_c, 0, 81, 93
1, 9842, Control_c, 0, 64, 76
1, 9857, Control_c, 0, 64, 65
1, 9864, Note_off_c, 0, 78, 59
1, 9872, Control_c, 0, 64, 50
1, 9886, Control_c, 0, 64, 0
1, 9913, Note_on_c, 0, 85, 93
1, 9940, Note_off_c, 0, 81, 63
1, 9976, Note_on_c, 0, 90, 92
1, 9984, Note_off_c, 0, 85, 66
1, 9999, Note_on_c, 0, 79, 58
1, 10008, Note_on_c, 0, 78, 43
1, 10009, Note_off_c, 0, 78, 127
1, 10011, Note_off_c, 0, 90, 66
1, 10016, Note_off_c, 0, 79, 65
1, 10055, Note_on_c, 0, 83, 97
1, 10056, Note_on_c, 0, 77, 93
1, 10066, Note_on_c, 0, 91, 120
1, 10080, Control_c, 0, 64, 67
1, 10081, Note_off_c, 0, 77, 65
1, 10084, Note_off_c, 0, 83, 67
1, 10094, Control_c, 0, 64, 127
1, 10107, Note_on_c, 0, 98, 39
1, 10108, Note_off_c, 0, 98, 127
1, 10119, Note_off_c, 0, 91, 66
1, 10144, Note_on_c, 0, 95, 107
1, 10196, Note_off_c, 0, 95, 58
1, 10220, Note_on_c, 0, 98, 103
1, 10227, Control_c, 0, 64, 116
1, 10241, Control_c, 0, 64, 83
1, 10247, Poly_aftertouch_c, 0, 95, 0
1, 10256, Control_c, 0, 64, 64
1, 10271, Control_c, 0, 64, 0
1, 10291, Note_on_c, 0, 101, 91
1, 10301, Note_on_c, 0, 100, 78
1, 10306, Note_off_c, 0, 98, 67
1, 10324, Note_off_c, 0, 100, 65
1, 10339, Note_off_c, 0, 101, 66
1, 10398, Note_on_c, 0, 45, 104
1, 10398, Note_on_c, 0, 105, 118
1, 10400, Note_on_c, 0, 103, 103
1, 10401, Note_on_c, 0, 33, 101
1, 10412, Control_c, 0, 64, 62
1, 10418, Note_off_c, 0, 45, 72
1, 10423, Note_off_c, 0, 33, 68
1, 10427, Note_off_c, 0, 105, 69
1, 10427, Control_c, 0, 64, 127
1, 10433, Note_off_c, 0, 103, 67
1, 10509, Poly_aftertouch_c, 0, 33, 0
1, 10522, Note_on_c, 0, 33, 3
1, 10538, Note_off_c, 0, 33, 64
1, 10679, Control_c, 0, 64, 72
1, 10694, Control_c, 0, 64, 15
1, 10709, Control_c, 0, 64, 0
1, 10849, Note_on_c, 0, 63, 102
1, 10852, Note_on_c, 0, 51, 101
1, 10855, Note_on_c, 0, 72, 109
1, 10859, Note_on_c, 0, 76, 104
1, 10888, Note_on_c, 0, 77, 55
1, 10889, Note_off_c, 0, 77, 127
1, 10907, Note_off_c, 0, 72, 0
1, 10928, Note_on_c, 0, 70, 89
1, 10932, Note_on_c, 0, 74, 80
1, 10932, Poly_aftertouch_c, 0, 72, 0
1, 11002, Note_off_c, 0, 76, 39
1, 11003, Note_on_c, 0, 73, 91
1, 11009, Note_on_c, 0, 69, 93
1, 11035, Note_off_c, 0, 70, 62
1, 11049, Note_off_c, 0, 74, 60
1, 11164, Note_off_c, 0, 63, 61
1, 11177, Control_c, 0, 64, 27
1, 11191, Control_c, 0, 64, 63
1, 11206, Control_c, 0, 64, 70
1, 11221, Control_c, 0, 64, 95
1, 11235, Control_c, 0, 64, 127
1, 11244, Note_off_c, 0, 69, 60
1, 11248, Note_off_c, 0, 51, 64
1, 11251, Note_off_c, 0, 73, 63
1, 11359, Note_on_c, 0, 76, 100
1, 11362, Note_on_c, 0, 73, 100
1, 11383, Control_c, 0, 64, 96
1, 11390, Note_off_c, 0, 73, 65
1, 11392, Note_off_c, 0, 76, 69
1, 11398, Control_c, 0, 64, 64
1, 11414, Control_c, 0, 64, 0
1, 11539, Note_on_c, 0, 51, 104
1, 11542, Note_on_c, 0, 39, 90
1, 11549, Note_on_c, 0, 72, 110
1, 11549, Note_on_c, 0, 76, 109
1, 11577, Control_c, 0, 64, 65
1, 11592, Control_c, 0, 64, 127
1, 11604, Note_off_c, 0, 51, 64
1, 11615, Note_on_c, 0, 74, 85
1, 11618, Note_on_c, 0, 70, 98
1, 11630, Note_off_c, 0, 39, 61
1, 11633, Note_off_c, 0, 72, 59
1, 11660, Note_off_c, 0, 76, 62
1, 11696, Note_on_c, 0, 73, 101
1, 11700, Note_on_c, 0, 69, 97
1, 11711, Control_c, 0, 64, 106
1, 11723, Note_off_c, 0, 70, 63
1, 11726, Control_c, 0, 64, 65
1, 11729, Note_off_c, 0, 74, 63
1, 11740, Control_c, 0, 64, 0
1, 11748, Note_off_c, 0, 69, 66
1, 11754, Note_off_c, 0, 73, 67
1, 11895, Note_on_c, 0, 45, 99
1, 11897, Note_on_c, 0, 33, 95
1, 11898, Note_on_c, 0, 73, 108
1, 11898, Note_on_c, 0, 76, 108
1, 11911, Control_c, 0, 64, 28
1, 11913, Note_on_c, 0, 74, 66
1, 11914, Note_off_c, 0, 74, 127
1, 11926, Control_c, 0, 64, 90
1, 11933, Note_off_c, 0, 76, 68
1, 11934, Note_off_c, 0, 73, 68
1, 11936, Note_off_c, 0, 33, 60
1, 11938, Note_on_c, 0, 72, 32
1, 11939, Note_off_c, 0, 72, 127
1, 11940, Control_c, 0, 64, 127
1, 11952, Note_off_c, 0, 45, 66
1, 12044, Control_c, 0, 64, 91
1, 12059, Control_c, 0, 64, 62
1, 12074, Control_c, 0, 64, 0
1, 12298, Note_on_c, 0, 63, 102
1, 12298, Note_on_c, 0, 51, 98
1, 12301, Note_on_c, 0, 72, 112
1, 12303, Note_on_c, 0, 76, 109
1, 12325, Note_on_c, 0, 71, 55
1, 12326, Note_off_c, 0, 71, 127
1, 12371, Note_on_c, 0, 70, 93
1, 12374, Note_on_c, 0, 74, 80
1, 12384, Note_off_c, 0, 72, 62
1, 12440, Note_off_c, 0, 76, 44
1, 12449, Note_on_c, 0, 73, 91
1, 12453, Note_on_c, 0, 69, 91
1, 12487, Note_off_c, 0, 70, 62
1, 12494, Note_off_c, 0, 74, 61
1, 12620, Note_off_c, 0, 63, 61
1, 12631, Control_c, 0, 64, 57
1, 12645, Control_c, 0, 64, 66
1, 12660, Control_c, 0, 64, 71
1, 12675, Control_c, 0, 64, 84
1, 12689, Control_c, 0, 64, 127
1, 12716, Note_off_c, 0, 69, 61
1, 12718, Note_off_c, 0, 51, 61
1, 12728, Note_off_c, 0, 73, 63
1, 12793, Control_c, 0, 64, 81
1, 12808, Control_c, 0, 64, 64
1, 12818, Note_on_c, 0, 76, 97
1, 12822, Note_on_c, 0, 73, 103
1, 12823, Control_c, 0, 64, 0
1, 12846, Note_off_c, 0, 73, 65
1, 12851, Note_off_c, 0, 76, 68
1, 12988, Note_on_c, 0, 51, 101
1, 12990, Note_on_c, 0, 39, 90
1, 12991, Note_on_c, 0, 76, 105
1, 12992, Note_on_c, 0, 72, 104
1, 13016, Control_c, 0, 64, 64
1, 13031, Control_c, 0, 64, 86
1, 13046, Control_c, 0, 64, 127
1, 13049, Note_off_c, 0, 51, 62
1, 13067, Note_on_c, 0, 74, 80
1, 13069, Note_on_c, 0, 71, 90
1, 13076, Control_c, 0, 64, 114
1, 13079, Note_off_c, 0, 39, 64
1, 13080, Note_off_c, 0, 72, 55
1, 13091, Control_c, 0, 64, 78
1, 13104, Note_off_c, 0, 76, 58
1, 13105, Control_c, 0, 64, 60
1, 13120, Control_c, 0, 64, 0
1, 13144, Note_on_c, 0, 73, 87
1, 13149, Note_on_c, 0, 69, 91
1, 13189, Note_off_c, 0, 71, 48
1, 13195, Note_off_c, 0, 74, 62
1, 13200, Note_off_c, 0, 69, 65
1, 13201, Note_off_c, 0, 73, 61
1, 13335, Note_on_c, 0, 45, 91
1, 13337, Note_on_c, 0, 33, 90
1, 13337, Note_on_c, 0, 76, 102
1, 13338, Note_on_c, 0, 73, 102
1, 13359, Note_off_c, 0, 73, 68
1, 13365, Note_off_c, 0, 76, 68
1, 13425, Note_off_c, 0, 33, 62
1, 13460, Note_off_c, 0, 45, 63
1, 13523, Note_on_c, 0, 76, 69
1, 13527, Note_on_c, 0, 72, 62
1, 13576, Note_off_c, 0, 72, 60
1, 13585, Note_on_c, 0, 74, 70
1, 13590, Note_on_c, 0, 70, 68
1, 13623, Note_off_c, 0, 76, 61
1, 13669, Note_on_c, 0, 63, 89
1, 13672, Note_on_c, 0, 51, 81
1, 13677, Note_on_c, 0, 73, 88
1, 13681, Note_on_c, 0, 69, 90
1, 13690, Control_c, 0, 64, 62
1, 13705, Control_c, 0, 64, 74
1, 13705, Note_off_c, 0, 70, 64
1, 13716, Note_off_c, 0, 74, 63
1, 13720, Control_c, 0, 64, 101
1, 13734, Control_c, 0, 64, 127
1, 13743, Note_off_c, 0, 63, 64
1, 13755, Note_off_c, 0, 69, 62
1, 13755, Note_off_c, 0, 73, 63
1, 13790, Note_off_c, 0, 51, 64
1, 13794, Control_c, 0, 64, 102
1, 13809, Control_c, 0, 64, 68
1, 13824, Control_c, 0, 64, 31
1, 13838, Note_on_c, 0, 76, 96
1, 13839, Control_c, 0, 64, 0
1, 13841, Note_on_c, 0, 73, 107
1, 13874, Note_off_c, 0, 73, 63
1, 13877, Note_off_c, 0, 76, 66
1, 14008, Note_on_c, 0, 51, 103
1, 14010, Note_on_c, 0, 39, 93
1, 14012, Note_on_c, 0, 72, 105
1, 14012, Note_on_c, 0, 76, 110
1, 14031, Control_c, 0, 64, 62
1, 14046, Control_c, 0, 64, 127
1, 14050, Note_off_c, 0, 72, 67
1, 14069, Note_off_c, 0, 39, 66
1, 14086, Note_off_c, 0, 51, 58
1, 14090, Note_on_c, 0, 70, 94
1, 14094, Note_on_c, 0, 74, 83
1, 14125, Note_off_c, 0, 76, 63
1, 14157, Control_c, 0, 64, 79
1, 14165, Note_on_c, 0, 73, 98
1, 14169, Note_on_c, 0, 69, 91
1, 14172, Control_c, 0, 64, 57
1, 14186, Note_off_c, 0, 70, 66
1, 14187, Control_c, 0, 64, 0
1, 14191, Note_off_c, 0, 74, 63
1, 14199, Note_on_c, 0, 71, 44
1, 14200, Note_off_c, 0, 71, 127
1, 14217, Note_off_c, 0, 69, 66
1, 14217, Note_off_c, 0, 73, 66
1, 14356, Note_on_c, 0, 72, 106
1, 14356, Note_on_c, 0, 76, 105
1, 14357, Note_on_c, 0, 63, 97
1, 14360, Note_on_c, 0, 51, 97
1, 14394, Control_c, 0, 64, 82
1, 14400, Note_off_c, 0, 63, 67
1, 14408, Control_c, 0, 64, 127
1, 14421, Note_on_c, 0, 70, 91
1, 14423, Note_on_c, 0, 74, 80
1, 14438, Note_off_c, 0, 51, 63
1, 14442, Note_off_c, 0, 72, 63
1, 14462, Note_off_c, 0, 76, 61
1, 14503, Note_on_c, 0, 73, 96
1, 14510, Note_off_c, 0, 74, 61
1, 14512, Note_on_c, 0, 69, 92
1, 14512, Control_c, 0, 64, 80
1, 14518, Note_off_c, 0, 70, 66
1, 14527, Control_c, 0, 64, 62
1, 14542, Control_c, 0, 64, 17
1, 14548, Note_off_c, 0, 73, 68
1, 14557, Control_c, 0, 64, 0
1, 14560, Note_off_c, 0, 69, 67
1, 14724, Note_on_c, 0, 64, 100
1, 14726, Note_on_c, 0, 52, 100
1, 14730, Note_on_c, 0, 55, 92
1, 14731, Note_on_c, 0, 46, 88
1, 14733, Note_on_c, 0, 51, 85
1, 14765, Control_c, 0, 64, 63
1, 14780, Control_c, 0, 64, 74
1, 14795, Control_c, 0, 64, 93
1, 14817, Control_c, 0, 64, 127
1, 14948, Note_off_c, 0, 55, 55
1, 14988, Note_off_c, 0, 52, 58
1, 14992, Note_off_c, 0, 64, 55
1, 15012, Note_off_c, 0, 46, 57
1, 15012, Note_off_c, 0, 51, 32
1, 15140, Note_on_c, 0, 47, 82
1, 15140, Note_on_c, 0, 51, 86
1, 15141, Note_on_c, 0, 55, 89
1, 15143, Control_c, 0, 64, 73
1, 15147, Note_on_c, 0, 64, 101
1, 15148, Note_on_c, 0, 52, 96
1, 15157, Control_c, 0, 64, 49
1, 15172, Control_c, 0, 64, 0
1, 15202, Control_c, 0, 64, 48
1, 15217, Control_c, 0, 64, 65
1, 15229, Note_off_c, 0, 55, 63
1, 15231, Control_c, 0, 64, 83
1, 15238, Note_off_c, 0, 47, 63
1, 15240, Note_off_c, 0, 51, 64
1, 15246, Control_c, 0, 64, 127
1, 15302, Note_on_c, 0, 55, 104
1, 15303, Note_on_c, 0, 51, 87
1, 15304, Note_on_c, 0, 46, 91
1, 15311, Note_off_c, 0, 52, 57
1, 15342, Note_off_c, 0, 55, 63
1, 15348, Note_off_c, 0, 51, 65
1, 15353, Note_off_c, 0, 46, 63
1, 15401, Note_on_c, 0, 46, 89
1, 15404, Note_on_c, 0, 55, 101
1, 15404, Note_on_c, 0, 51, 95
1, 15470, Note_off_c, 0, 55, 61
1, 15490, Note_off_c, 0, 64, 62
1, 15499, Note_off_c, 0, 46, 61
1, 15515, Note_off_c, 0, 51, 64
1, 15544, Control_c, 0, 64, 112
1, 15564, Note_on_c, 0, 49, 82
1, 15565, Note_on_c, 0, 54, 94
1, 15566, Control_c, 0, 64, 80
1, 15571, Note_on_c, 0, 45, 80
1, 15571, Note_on_c, 0, 69, 108
1, 15573, Note_on_c, 0, 57, 101
1, 15580, Control_c, 0, 64, 63
1, 15595, Control_c, 0, 64, 45
1, 15610, Control_c, 0, 64, 0
1, 15862, Control_c, 0, 64, 23
1, 15877, Control_c, 0, 64, 43
1, 15892, Control_c, 0, 64, 48
1, 15906, Control_c, 0, 64, 58
1, 15909, Note_off_c, 0, 54, 61
1, 15921, Control_c, 0, 64, 64
1, 15936, Control_c, 0, 64, 72
1, 15951, Control_c, 0, 64, 101
1, 15966, Control_c, 0, 64, 127
1, 15971, Note_off_c, 0, 57, 60
1, 16048, Note_off_c, 0, 49, 64
1, 16069, Note_off_c, 0, 45, 59
1, 16114, Note_on_c, 0, 56, 87
1, 16215, Note_off_c, 0, 56, 63
1, 16215, Note_off_c, 0, 69, 59
1, 16278, Control_c, 0, 64, 120
1, 16293, Control_c, 0, 64, 73
1, 16307, Note_on_c, 0, 69, 86
1, 16307, Note_on_c, 0, 55, 81
1, 16308, Note_on_c, 0, 43, 71
1, 16313, Note_on_c, 0, 39, 67
1, 16316, Control_c, 0, 64, 37
1, 16331, Control_c, 0, 64, 0
1, 16385, Note_off_c, 0, 43, 62
1, 16387, Note_on_c, 0, 42, 73
1, 16391, Note_on_c, 0, 38, 47
1, 16399, Note_off_c, 0, 39, 60
1, 16404, Control_c, 0, 64, 45
1, 16415, Note_off_c, 0, 55, 56
1, 16419, Control_c, 0, 64, 68
1, 16429, Note_on_c, 0, 36, 53
1, 16434, Control_c, 0, 64, 84
1, 16448, Note_off_c, 0, 38, 47
1, 16449, Control_c, 0, 64, 127
1, 16476, Note_off_c, 0, 69, 62
1, 16480, Note_on_c, 0, 40, 68
1, 16513, Note_off_c, 0, 42, 56
1, 16620, Note_off_c, 0, 36, 34
1, 16634, Note_off_c, 0, 40, 62
1, 16657, Note_on_c, 0, 79, 86
1, 16659, Note_on_c, 0, 75, 81
1, 16686, Note_off_c, 0, 75, 58
1, 16734, Note_on_c, 0, 74, 80
1, 16736, Note_on_c, 0, 78, 71
1, 16768, Note_off_c, 0, 79, 62
1, 16817, Note_off_c, 0, 74, 61
1, 16820, Note_on_c, 0, 76, 75
1, 16826, Note_on_c, 0, 72, 66
1, 16839, Note_off_c, 0, 78, 62
1, 16982, Control_c, 0, 64, 101
1, 16997, Control_c, 0, 64, 77
1, 17001, Note_on_c, 0, 69, 84
1, 17007, Note_on_c, 0, 57, 73
1, 17013, Control_c, 0, 64, 61
1, 17027, Control_c, 0, 64, 0
1, 17033, Note_off_c, 0, 72, 53
1, 17066, Note_off_c, 0, 76, 58
1, 17094, Control_c, 0, 64, 47
1, 17108, Note_off_c, 0, 69, 63
1, 17109, Control_c, 0, 64, 63
1, 17124, Control_c, 0, 64, 73
1, 17139, Control_c, 0, 64, 101
1, 17154, Control_c, 0, 64, 127
1, 17176, Note_off_c, 0, 57, 62
1, 17365, Note_on_c, 0, 69, 99
1, 17366, Note_on_c, 0, 57, 92
1, 17378, Note_on_c, 0, 43, 62
1, 17384, Note_on_c, 0, 39, 64
1, 17390, Control_c, 0, 64, 91
1, 17405, Control_c, 0, 64, 64
1, 17420, Control_c, 0, 64, 0
1, 17440, Note_on_c, 0, 40, 53
1, 17463, Note_on_c, 0, 42, 78
1, 17468, Note_on_c, 0, 38, 47
1, 17475, Note_off_c, 0, 39, 59
1, 17475, Note_off_c, 0, 40, 64
1, 17490, Note_off_c, 0, 43, 52
1, 17494, Control_c, 0, 64, 54
1, 17498, Note_on_c, 0, 36, 64
1, 17508, Control_c, 0, 64, 69
1, 17521, Note_off_c, 0, 38, 52
1, 17523, Control_c, 0, 64, 98
1, 17538, Control_c, 0, 64, 127
1, 17550, Note_on_c, 0, 40, 76
1, 17565, Note_off_c, 0, 57, 60
1, 17568, Note_off_c, 0, 69, 59
1, 17580, Note_off_c, 0, 36, 59
1, 17580, Note_off_c, 0, 42, 62
1, 17619, Note_off_c, 0, 40, 63
1, 17699, Control_c, 0, 64, 90
1, 17705, Note_on_c, 0, 39, 74
1, 17707, Note_on_c, 0, 43, 67
1, 17711, Note_on_c, 0, 69, 102
1, 17714, Note_on_c, 0, 57, 93
1, 17714, Control_c, 0, 64, 55
1, 17729, Control_c, 0, 64, 0
1, 17774, Note_on_c, 0, 38, 61
1, 17788, Note_on_c, 0, 42, 81
1, 17794, Note_off_c, 0, 39, 63
1, 17794, Note_off_c, 0, 43, 63
1, 17810, Note_on_c, 0, 36, 66
1, 17812, Control_c, 0, 64, 64
1, 17827, Control_c, 0, 64, 112
1, 17841, Note_off_c, 0, 57, 60
1, 17842, Control_c, 0, 64, 127
1, 17852, Note_off_c, 0, 36, 64
1, 17864, Note_on_c, 0, 40, 67
1, 17874, Note_off_c, 0, 38, 61
1, 17894, Note_off_c, 0, 40, 63
1, 17894, Note_off_c, 0, 42, 62
1, 17904, Note_off_c, 0, 69, 58
1, 18063, Control_c, 0, 64, 102
1, 18072, Note_on_c, 0, 79, 92
1, 18075, Note_on_c, 0, 67, 95
1, 18077, Note_on_c, 0, 55, 91
1, 18078, Control_c, 0, 64, 73
1, 18081, Note_on_c, 0, 75, 80
1, 18093, Control_c, 0, 64, 32
1, 18108, Control_c, 0, 64, 0
1, 18111, Note_off_c, 0, 75, 57
1, 18152, Note_on_c, 0, 74, 84
1, 18152, Note_on_c, 0, 78, 70
1, 18182, Control_c, 0, 64, 60
1, 18197, Control_c, 0, 64, 74
1, 18197, Note_off_c, 0, 67, 63
1, 18212, Control_c, 0, 64, 127
1, 18215, Note_off_c, 0, 79, 53
1, 18236, Note_on_c, 0, 76, 80
1, 18239, Note_on_c, 0, 72, 79
1, 18246, Note_off_c, 0, 55, 61
1, 18253, Note_off_c, 0, 74, 59
1, 18289, Note_off_c, 0, 78, 60
1, 18387, Note_off_c, 0, 76, 64
1, 18407, Note_off_c, 0, 72, 63
1, 18424, Note_on_c, 0, 43, 90
1, 18429, Note_on_c, 0, 39, 86
1, 18463, Control_c, 0, 64, 74
1, 18478, Control_c, 0, 64, 43
1, 18492, Control_c, 0, 64, 0
1, 18496, Note_on_c, 0, 42, 85
1, 18514, Note_off_c, 0, 43, 61
1, 18535, Note_off_c, 0, 39, 0
1, 18560, Note_on_c, 0, 36, 56
1, 18560, Note_on_c, 0, 39, 40
1, 18584, Note_on_c, 0, 40, 72
1, 18594, Note_off_c, 0, 39, 55
1, 18594, Note_off_c, 0, 42, 61
1, 18725, Note_off_c, 0, 36, 56
1, 18771, Note_off_c, 0, 40, 64
1, 18784, Note_on_c, 0, 69, 94
1, 18789, Note_on_c, 0, 57, 86
1, 18871, Control_c, 0, 64, 69
1, 18886, Control_c, 0, 64, 95
1, 18901, Control_c, 0, 64, 127
1, 18992, Note_off_c, 0, 69, 61
1, 18999, Note_off_c, 0, 57, 63
1, 19137, Note_on_c, 0, 62, 100
1, 19138, Note_on_c, 0, 53, 96
1, 19138, Note_on_c, 0, 59, 99
1, 19145, Note_on_c, 0, 57, 82
1, 19153, Control_c, 0, 64, 75
1, 19168, Control_c, 0, 64, 16
1, 19183, Control_c, 0, 64, 0
1, 19203, Note_on_c, 0, 55, 86
1, 19203, Note_off_c, 0, 53, 65
1, 19216, Note_on_c, 0, 50, 75
1, 19225, Note_off_c, 0, 57, 63
1, 19242, Control_c, 0, 64, 51
1, 19244, Note_off_c, 0, 59, 60
1, 19257, Control_c, 0, 64, 78
1, 19271, Control_c, 0, 64, 127
1, 19276, Note_on_c, 0, 51, 78
1, 19279, Note_on_c, 0, 54, 92
1, 19285, Note_off_c, 0, 62, 62
1, 19289, Note_off_c, 0, 55, 62
1, 19309, Note_off_c, 0, 50, 63
1, 19319, Note_off_c, 0, 51, 65
1, 19336, Note_off_c, 0, 54, 65
1, 19473, Control_c, 0, 64, 80
1, 19488, Control_c, 0, 64, 22
1, 19497, Note_on_c, 0, 84, 99
1, 19499, Note_on_c, 0, 74, 113
1, 19499, Note_on_c, 0, 80, 94
1, 19499, Note_on_c, 0, 71, 103
1, 19502, Control_c, 0, 64, 0
1, 19544, Note_off_c, 0, 80, 62
1, 19546, Note_off_c, 0, 74, 68
1, 19556, Note_off_c, 0, 71, 64
1, 19561, Control_c, 0, 64, 67
1, 19563, Note_on_c, 0, 82, 57
1, 19571, Note_on_c, 0, 79, 77
1, 19576, Control_c, 0, 64, 127
1, 19635, Note_on_c, 0, 81, 81
1, 19640, Note_on_c, 0, 77, 81
1, 19646, Note_off_c, 0, 84, 56
1, 19662, Note_off_c, 0, 79, 64
1, 19685, Note_off_c, 0, 82, 64
1, 19857, Note_on_c, 0, 98, 126
1, 19858, Note_on_c, 0, 95, 114
1, 19888, Note_off_c, 0, 98, 73
1, 19889, Note_off_c, 0, 95, 69
1, 20090, Note_off_c, 0, 81, 65
1, 20099, Note_off_c, 0, 77, 61
1, 20212, Note_on_c, 0, 84, 100
1, 20214, Note_on_c, 0, 71, 96
1, 20218, Note_on_c, 0, 80, 94
1, 20219, Note_on_c, 0, 76, 100
1, 20221, Note_on_c, 0, 74, 90
1, 20233, Note_off_c, 0, 71, 71
1, 20234, Note_off_c, 0, 76, 76
1, 20238, Note_off_c, 0, 74, 72
1, 20262, Note_off_c, 0, 80, 60
1, 20283, Note_on_c, 0, 79, 71
1, 20285, Note_on_c, 0, 82, 68
1, 20336, Note_off_c, 0, 84, 61
1, 20366, Note_on_c, 0, 81, 75
1, 20372, Note_on_c, 0, 77, 90
1, 20373, Note_off_c, 0, 79, 66
1, 20379, Note_off_c, 0, 82, 64
1, 20380, Note_on_c, 0, 80, 43
1, 20390, Note_off_c, 0, 81, 69
1, 20405, Note_off_c, 0, 80, 57
1, 20409, Note_off_c, 0, 77, 63
1, 20563, Control_c, 0, 64, 105
1, 20567, Note_on_c, 0, 57, 104
1, 20567, Note_on_c, 0, 69, 100
1, 20570, Note_on_c, 0, 43, 79
1, 20573, Note_on_c, 0, 39, 80
1, 20577, Control_c, 0, 64, 63
1, 20592, Control_c, 0, 64, 0
1, 20647, Note_on_c, 0, 38, 55
1, 20652, Note_on_c, 0, 42, 83
1, 20659, Note_off_c, 0, 43, 62
1, 20662, Note_off_c, 0, 39, 63
1, 20665, Control_c, 0, 64, 30
1, 20668, Note_on_c, 0, 36, 67
1, 20680, Control_c, 0, 64, 72
1, 20689, Note_off_c, 0, 57, 61
1, 20695, Control_c, 0, 64, 127
1, 20723, Note_off_c, 0, 38, 41
1, 20731, Note_off_c, 0, 69, 63
1, 20732, Note_on_c, 0, 40, 74
1, 20763, Note_off_c, 0, 36, 61
1, 20784, Note_off_c, 0, 42, 50
1, 20843, Note_off_c, 0, 40, 62
1, 20927, Note_on_c, 0, 79, 95
1, 20931, Note_on_c, 0, 75, 91
1, 21003, Note_on_c, 0, 78, 72
1, 21004, Note_on_c, 0, 74, 89
1, 21026, Note_off_c, 0, 75, 62
1, 21054, Note_off_c, 0, 79, 62
1, 21085, Note_on_c, 0, 76, 88
1, 21089, Note_on_c, 0, 72, 87
1, 21112, Note_off_c, 0, 74, 61
1, 21149, Note_off_c, 0, 78, 60
1, 21265, Note_on_c, 0, 68, 102
1, 21271, Note_on_c, 0, 56, 96
1, 21281, Control_c, 0, 64, 108
1, 21288, Note_off_c, 0, 72, 64
1, 21296, Control_c, 0, 64, 71
1, 21303, Note_off_c, 0, 76, 60
1, 21311, Control_c, 0, 64, 41
1, 21326, Note_on_c, 0, 66, 4
1, 21326, Control_c, 0, 64, 0
1, 21332, Note_on_c, 0, 55, 8
1, 21355, Control_c, 0, 64, 16
1, 21370, Control_c, 0, 64, 58
1, 21377, Note_off_c, 0, 66, 27
1, 21383, Note_off_c, 0, 55, 28
1, 21383, Note_off_c, 0, 68, 62
1, 21385, Control_c, 0, 64, 70
1, 21399, Control_c, 0, 64, 98
1, 21414, Control_c, 0, 64, 127
1, 21478, Note_off_c, 0, 56, 64
1, 21637, Note_on_c, 0, 43, 75
1, 21644, Note_on_c, 0, 55, 100
1, 21644, Note_on_c, 0, 67, 102
1, 21647, Note_on_c, 0, 39, 69
1, 21673, Control_c, 0, 64, 76
1, 21688, Control_c, 0, 64, 53
1, 21703, Control_c, 0, 64, 0
1, 21722, Note_on_c, 0, 38, 62
1, 21733, Note_on_c, 0, 42, 81
1, 21746, Note_off_c, 0, 39, 63
1, 21747, Control_c, 0, 64, 37
1, 21753, Note_off_c, 0, 43, 60
1, 21762, Control_c, 0, 64, 62
1, 21775, Note_on_c, 0, 36, 60
1, 21777, Control_c, 0, 64, 75
1, 21792, Control_c, 0, 64, 112
1, 21808, Control_c, 0, 64, 127
1, 21818, Note_on_c, 0, 40, 74
1, 21837, Note_off_c, 0, 55, 58
1, 21848, Note_off_c, 0, 42, 57
1, 21863, Note_off_c, 0, 38, 49
1, 21876, Note_off_c, 0, 36, 57
1, 21896, Note_off_c, 0, 40, 63
1, 21996, Note_on_c, 0, 39, 72
1, 21999, Note_on_c, 0, 66, 100
1, 22000, Note_on_c, 0, 54, 100
1, 22003, Note_on_c, 0, 43, 66
1, 22015, Control_c, 0, 64, 91
1, 22030, Control_c, 0, 64, 65
1, 22045, Control_c, 0, 64, 0
1, 22052, Note_off_c, 0, 67, 54
1, 22068, Note_on_c, 0, 38, 58
1, 22080, Note_off_c, 0, 39, 62
1, 22084, Note_on_c, 0, 42, 77
1, 22084, Note_off_c, 0, 43, 62
1, 22104, Control_c, 0, 64, 48
1, 22105, Note_on_c, 0, 36, 59
1, 22119, Control_c, 0, 64, 68
1, 22123, Note_off_c, 0, 54, 64
1, 22134, Control_c, 0, 64, 109
1, 22148, Control_c, 0, 64, 127
1, 22149, Note_on_c, 0, 40, 71
1, 22155, Note_off_c, 0, 36, 61
1, 22166, Note_off_c, 0, 38, 58
1, 22176, Note_off_c, 0, 42, 62
1, 22187, Note_off_c, 0, 66, 61
1, 22188, Note_off_c, 0, 40, 64
1, 22347, Note_on_c, 0, 65, 95
1, 22351, Note_on_c, 0, 53, 94
1, 22354, Note_on_c, 0, 79, 86
1, 22360, Note_on_c, 0, 75, 81
1, 22363, Control_c, 0, 64, 112
1, 22378, Control_c, 0, 64, 70
1, 22393, Control_c, 0, 64, 36
1, 22395, Note_off_c, 0, 75, 52
1, 22408, Control_c, 0, 64, 0
1, 22432, Note_on_c, 0, 74, 80
1, 22434, Note_on_c, 0, 78, 71
1, 22452, Control_c, 0, 64, 19
1, 22467, Control_c, 0, 64, 60
1, 22482, Note_off_c, 0, 79, 59
1, 22482, Control_c, 0, 64, 72
1, 22496, Control_c, 0, 64, 101
1, 22511, Control_c, 0, 64, 127
1, 22523, Note_on_c, 0, 76, 82
1, 22524, Note_on_c, 0, 72, 75
1, 22545, Note_off_c, 0, 74, 59
1, 22560, Note_off_c, 0, 78, 63
1, 22601, Note_off_c, 0, 65, 58
1, 22619, Note_off_c, 0, 53, 58
1, 22695, Note_off_c, 0, 72, 63
1, 22704, Note_off_c, 0, 76, 61
1, 22707, Note_on_c, 0, 64, 95
1, 22713, Note_on_c, 0, 52, 91
1, 22719, Control_c, 0, 64, 94
1, 22734, Control_c, 0, 64, 66
1, 22749, Control_c, 0, 64, 0
1, 22808, Control_c, 0, 64, 55
1, 22823, Control_c, 0, 64, 69
1, 22834, Note_off_c, 0, 64, 62
1, 22838, Control_c, 0, 64, 101
1, 22853, Control_c, 0, 64, 127
1, 22904, Note_off_c, 0, 52, 61
1, 23060, Note_on_c, 0, 63, 96
1, 23062, Note_on_c, 0, 51, 99
1, 23062, Note_on_c, 0, 43, 76
1, 23083, Control_c, 0, 64, 79
1, 23086, Note_on_c, 0, 40, 55
1, 23092, Note_on_c, 0, 61, 46
1, 23097, Control_c, 0, 64, 48
1, 23112, Control_c, 0, 64, 0
1, 23119, Note_off_c, 0, 61, 37
1, 23138, Note_off_c, 0, 43, 61
1, 23142, Note_on_c, 0, 42, 78
1, 23144, Note_off_c, 0, 40, 59
1, 23179, Note_on_c, 0, 38, 6
1, 23180, Note_on_c, 0, 36, 58
1, 23186, Control_c, 0, 64, 56
1, 23201, Control_c, 0, 64, 75
1, 23211, Note_on_c, 0, 40, 74
1, 23216, Note_off_c, 0, 51, 62
1, 23216, Control_c, 0, 64, 127
1, 23223, Note_off_c, 0, 42, 62
1, 23235, Note_off_c, 0, 36, 61
1, 23235, Note_off_c, 0, 38, 46
1, 23247, Note_off_c, 0, 40, 67
1, 23277, Note_off_c, 0, 63, 62
1, 23394, Control_c, 0, 64, 87
1, 23399, Note_on_c, 0, 59, 103
1, 23402, Note_on_c, 0, 62, 99
1, 23407, Note_on_c, 0, 53, 95
1, 23409, Control_c, 0, 64, 46
1, 23410, Note_on_c, 0, 57, 91
1, 23424, Control_c, 0, 64, 0
1, 23467, Note_on_c, 0, 55, 83
1, 23470, Note_off_c, 0, 53, 63
1, 23473, Note_on_c, 0, 50, 68
1, 23498, Control_c, 0, 64, 65
1, 23499, Note_off_c, 0, 57, 64
1, 23513, Control_c, 0, 64, 127
1, 23520, Note_off_c, 0, 59, 64
1, 23533, Note_on_c, 0, 54, 86
1, 23545, Note_off_c, 0, 55, 64
1, 23546, Note_off_c, 0, 62, 65
1, 23555, Note_on_c, 0, 51, 60
1, 23565, Note_off_c, 0, 50, 63
1, 23579, Note_off_c, 0, 51, 59
1, 23586, Note_off_c, 0, 54, 65
1, 23721, Control_c, 0, 64, 84
1, 23736, Control_c, 0, 64, 49
1, 23750, Note_on_c, 0, 74, 116
1, 23750, Control_c, 0, 64, 0
1, 23753, Note_on_c, 0, 71, 106
1, 23760, Note_on_c, 0, 84, 87
1, 23768, Note_on_c, 0, 83, 83
1, 23775, Note_on_c, 0, 79, 68
1, 23795, Note_on_c, 0, 80, 30
1, 23799, Note_off_c, 0, 79, 67
1, 23801, Note_on_c, 0, 78, 46
1, 23801, Note_off_c, 0, 74, 70
1, 23802, Control_c, 0, 64, 49
1, 23806, Note_off_c, 0, 71, 67
1, 23808, Note_on_c, 0, 77, 26
1, 23809, Note_off_c, 0, 77, 127
1, 23817, Control_c, 0, 64, 77
1, 23821, Note_off_c, 0, 83, 55
1, 23827, Note_off_c, 0, 78, 50
1, 23827, Note_off_c, 0, 80, 33
1, 23832, Control_c, 0, 64, 127
1, 23848, Note_on_c, 0, 79, 76
1, 23904, Note_on_c, 0, 81, 70
1, 23914, Note_on_c, 0, 77, 86
1, 23942, Note_off_c, 0, 84, 59
1, 24050, Note_off_c, 0, 79, 35
1, 24108, Note_on_c, 0, 98, 120
1, 24109, Note_on_c, 0, 95, 100
1, 24135, Note_on_c, 0, 97, 54
1, 24136, Note_off_c, 0, 97, 127
1, 24140, Note_off_c, 0, 98, 73
1, 24147, Note_off_c, 0, 95, 67
1, 24351, Note_off_c, 0, 81, 65
1, 24355, Note_off_c, 0, 77, 60
1, 24448, Note_on_c, 0, 74, 103
1, 24451, Note_on_c, 0, 71, 91
1, 24454, Note_on_c, 0, 84, 99
1, 24457, Note_on_c, 0, 80, 95
1, 24468, Note_off_c, 0, 71, 74
1, 24471, Note_off_c, 0, 74, 73
1, 24505, Note_off_c, 0, 80, 56
1, 24521, Note_on_c, 0, 79, 67
1, 24530, Note_on_c, 0, 82, 77
1, 24594, Note_off_c, 0, 84, 60
1, 24609, Note_on_c, 0, 81, 84
1, 24617, Note_on_c, 0, 77, 95
1, 24631, Note_off_c, 0, 79, 66
1, 24635, Note_off_c, 0, 82, 66
1, 24653, Note_off_c, 0, 81, 67
1, 24668, Note_off_c, 0, 77, 66
1, 24801, Note_on_c, 0, 62, 103
1, 24802, Note_on_c, 0, 59, 100
1, 24817, Control_c, 0, 64, 71
1, 24832, Control_c, 0, 64, 0
1, 24891, Control_c, 0, 64, 38
1, 24906, Control_c, 0, 64, 66
1, 24909, Note_off_c, 0, 62, 62
1, 24921, Control_c, 0, 64, 87
1, 24922, Note_off_c, 0, 59, 65
1, 24936, Control_c, 0, 64, 127
1, 25144, Control_c, 0, 64, 93
1, 25146, Note_on_c, 0, 47, 95
1, 25149, Note_on_c, 0, 50, 90
1, 25154, Note_on_c, 0, 41, 79
1, 25159, Control_c, 0, 64, 64
1, 25171, Note_on_c, 0, 45, 66
1, 25174, Control_c, 0, 64, 0
1, 25224, Note_off_c, 0, 41, 64
1, 25232, Control_c, 0, 64, 56
1, 25233, Note_off_c, 0, 45, 59
1, 25240, Note_on_c, 0, 43, 70
1, 25247, Control_c, 0, 64, 69
1, 25262, Control_c, 0, 64, 97
1, 25277, Control_c, 0, 64, 127
1, 25283, Note_off_c, 0, 50, 59
1, 25297, Note_on_c, 0, 38, 71
1, 25301, Note_off_c, 0, 47, 64
1, 25309, Poly_aftertouch_c, 0, 39, 127
1, 25324, Note_off_c, 0, 43, 62
1, 25354, Note_off_c, 0, 38, 61
1, 25358, Note_on_c, 0, 41, 27
1, 25372, Poly_aftertouch_c, 0, 39, 0
1, 25394, Note_off_c, 0, 41, 49
1, 25496, Note_on_c, 0, 44, 106
1, 25501, Note_on_c, 0, 37, 94
1, 25513, Note_on_c, 0, 36, 77
1, 25521, Control_c, 0, 64, 71
1, 25533, Note_off_c, 0, 37, 64
1, 25536, Control_c, 0, 64, 0
1, 25544, Note_off_c, 0, 44, 62
1, 25545, Note_on_c, 0, 34, 20
1, 25546, Note_off_c, 0, 36, 64
1, 25576, Note_on_c, 0, 45, 79
1, 25591, Note_off_c, 0, 34, 28
1, 25651, Note_off_c, 0, 45, 55
1, 25673, Note_on_c, 0, 49, 75
1, 25719, Note_off_c, 0, 49, 61
1, 25753, Note_on_c, 0, 54, 78
1, 25762, Note_on_c, 0, 45, 66
1, 25780, Note_off_c, 0, 54, 69
1, 25800, Note_off_c, 0, 45, 63
1, 25824, Note_on_c, 0, 50, 90
1, 25834, Note_on_c, 0, 59, 91
1, 25855, Note_off_c, 0, 50, 68
1, 25887, Note_off_c, 0, 59, 62
1, 25911, Note_on_c, 0, 62, 94
1, 25987, Note_on_c, 0, 67, 84
1, 25998, Note_off_c, 0, 62, 65
1, 26060, Note_on_c, 0, 55, 92
1, 26063, Note_on_c, 0, 71, 82
1, 26070, Note_off_c, 0, 67, 66
1, 26084, Note_off_c, 0, 71, 71
1, 26092, Note_off_c, 0, 55, 64
1, 26136, Note_on_c, 0, 62, 102
1, 26138, Control_c, 0, 64, 63
1, 26142, Note_on_c, 0, 78, 89
1, 26152, Control_c, 0, 64, 127
1, 26159, Note_on_c, 0, 77, 76
1, 26161, Note_off_c, 0, 62, 65
1, 26165, Note_on_c, 0, 76, 75
1, 26172, Note_on_c, 0, 80, 41
1, 26175, Note_off_c, 0, 77, 67
1, 26182, Note_off_c, 0, 76, 67
1, 26189, Note_off_c, 0, 80, 0
1, 26198, Note_off_c, 0, 78, 55
1, 26203, Note_on_c, 0, 80, 69
1, 26236, Note_off_c, 0, 80, 69
1, 26241, Control_c, 0, 64, 98
1, 26245, Note_on_c, 0, 81, 70
1, 26256, Control_c, 0, 64, 72
1, 26270, Control_c, 0, 64, 52
1, 26285, Note_off_c, 0, 81, 0
1, 26285, Note_on_c, 0, 81, 38
1, 26285, Control_c, 0, 64, 0
1, 26286, Note_on_c, 0, 85, 91
1, 26310, Note_off_c, 0, 81, 56
1, 26356, Note_on_c, 0, 90, 92
1, 26363, Note_off_c, 0, 85, 66
1, 26367, Note_on_c, 0, 80, 96
1, 26388, Note_off_c, 0, 90, 67
1, 26394, Note_off_c, 0, 80, 65
1, 26438, Note_on_c, 0, 83, 97
1, 26444, Note_on_c, 0, 91, 105
1, 26448, Control_c, 0, 64, 62
1, 26451, Note_on_c, 0, 77, 76
1, 26454, Note_on_c, 0, 76, 58
1, 26457, Note_on_c, 0, 89, 72
1, 26458, Note_off_c, 0, 89, 127
1, 26460, Note_off_c, 0, 83, 69
1, 26463, Control_c, 0, 64, 127
1, 26471, Note_off_c, 0, 76, 63
1, 26473, Note_off_c, 0, 77, 63
1, 26475, Note_on_c, 0, 98, 49
1, 26496, Note_off_c, 0, 91, 65
1, 26500, Note_off_c, 0, 98, 39
1, 26524, Note_on_c, 0, 96, 101
1, 26525, Note_on_c, 0, 95, 98
1, 26592, Note_on_c, 0, 98, 95
1, 26607, Note_off_c, 0, 95, 62
1, 26617, Note_off_c, 0, 96, 67
1, 26627, Control_c, 0, 64, 82
1, 26642, Control_c, 0, 64, 65
1, 26657, Control_c, 0, 64, 0
1, 26664, Note_on_c, 0, 101, 103
1, 26689, Note_off_c, 0, 98, 67
1, 26712, Note_off_c, 0, 101, 66
1, 26764, Note_on_c, 0, 45, 100
1, 26765, Note_on_c, 0, 105, 126
1, 26767, Note_on_c, 0, 33, 98
1, 26775, Control_c, 0, 64, 32
1, 26796, Note_off_c, 0, 45, 69
1, 26797, Note_off_c, 0, 33, 68
1, 26797, Control_c, 0, 64, 112
1, 26803, Note_off_c, 0, 105, 70
1, 26812, Control_c, 0, 64, 127
1, 26885, Note_on_c, 0, 33, 16
1, 26898, Note_off_c, 0, 33, 63
1, 27034, Control_c, 0, 64, 102
1, 27049, Control_c, 0, 64, 76
1, 27064, Control_c, 0, 64, 58
1, 27079, Control_c, 0, 64, 0
1, 27233, Note_on_c, 0, 51, 105
1, 27235, Note_on_c, 0, 72, 109
1, 27235, Note_on_c, 0, 63, 94
1, 27238, Note_on_c, 0, 76, 107
1, 27244, Note_on_c, 0, 61, 76
1, 27304, Note_on_c, 0, 70, 94
1, 27306, Note_on_c, 0, 74, 80
1, 27317, Note_off_c, 0, 72, 55
1, 27318, Note_off_c, 0, 61, 62
1, 27347, Poly_aftertouch_c, 0, 50, 0
1, 27383, Note_off_c, 0, 76, 58
1, 27385, Note_on_c, 0, 73, 88
1, 27395, Note_on_c, 0, 69, 95
1, 27423, Note_off_c, 0, 70, 62
1, 27434, Note_off_c, 0, 74, 62
1, 27550, Note_off_c, 0, 63, 63
1, 27562, Control_c, 0, 64, 59
1, 27577, Control_c, 0, 64, 77
1, 27591, Control_c, 0, 64, 127
1, 27622, Note_off_c, 0, 69, 60
1, 27632, Note_off_c, 0, 73, 63
1, 27642, Note_off_c, 0, 51, 61
1, 27745, Note_on_c, 0, 76, 101
1, 27746, Note_on_c, 0, 73, 106
1, 27769, Control_c, 0, 64, 78
1, 27776, Note_off_c, 0, 73, 69
1, 27779, Note_off_c, 0, 76, 68
1, 27783, Control_c, 0, 64, 50
1, 27798, Control_c, 0, 64, 0
1, 27924, Note_on_c, 0, 51, 102
1, 27927, Note_on_c, 0, 39, 91
1, 27928, Note_on_c, 0, 72, 107
1, 27929, Note_on_c, 0, 76, 109
1, 27960, Note_off_c, 0, 51, 67
1, 27961, Control_c, 0, 64, 73
1, 27976, Control_c, 0, 64, 127
1, 27979, Note_off_c, 0, 39, 63
1, 27995, Note_on_c, 0, 74, 82
1, 27997, Note_on_c, 0, 70, 93
1, 28007, Note_off_c, 0, 72, 55
1, 28033, Note_off_c, 0, 76, 58
1, 28076, Note_on_c, 0, 73, 98
1, 28077, Note_on_c, 0, 69, 104
1, 28080, Control_c, 0, 64, 95
1, 28095, Control_c, 0, 64, 66
1, 28104, Note_off_c, 0, 70, 62
1, 28109, Control_c, 0, 64, 0
1, 28111, Note_off_c, 0, 74, 64
1, 28129, Note_off_c, 0, 69, 64
1, 28134, Note_off_c, 0, 73, 66
1, 28267, Note_on_c, 0, 45, 98
1, 28267, Note_on_c, 0, 76, 105
1, 28268, Note_on_c, 0, 73, 111
1, 28269, Note_on_c, 0, 33, 96
1, 28303, Note_off_c, 0, 33, 69
1, 28309, Control_c, 0, 64, 72
1, 28311, Note_off_c, 0, 76, 67
1, 28319, Note_off_c, 0, 73, 66
1, 28323, Note_off_c, 0, 45, 65
1, 28324, Control_c, 0, 64, 127
1, 28427, Control_c, 0, 64, 79
1, 28442, Control_c, 0, 64, 53
1, 28457, Control_c, 0, 64, 0
1, 28684, Note_on_c, 0, 72, 104
1, 28684, Note_on_c, 0, 63, 103
1, 28685, Note_on_c, 0, 76, 110
1, 28689, Note_on_c, 0, 51, 102
1, 28751, Note_on_c, 0, 70, 92
1, 28755, Note_on_c, 0, 74, 78
1, 28769, Note_off_c, 0, 72, 62
1, 28832, Note_on_c, 0, 73, 87
1, 28838, Note_on_c, 0, 69, 94
1, 28854, Note_off_c, 0, 76, 58
1, 28879, Note_off_c, 0, 70, 61
1, 28891, Note_off_c, 0, 74, 59
1, 28976, Control_c, 0, 64, 31
1, 28991, Control_c, 0, 64, 60
1, 29006, Control_c, 0, 64, 63
1, 29011, Note_off_c, 0, 63, 61
1, 29020, Control_c, 0, 64, 68
1, 29043, Control_c, 0, 64, 78
1, 29058, Control_c, 0, 64, 112
1, 29073, Control_c, 0, 64, 127
1, 29099, Note_off_c, 0, 69, 60
1, 29110, Note_off_c, 0, 73, 63
1, 29119, Note_off_c, 0, 51, 61
1, 29191, Control_c, 0, 64, 89
1, 29206, Control_c, 0, 64, 69
1, 29214, Note_on_c, 0, 76, 100
1, 29215, Note_on_c, 0, 73, 101
1, 29220, Control_c, 0, 64, 48
1, 29235, Control_c, 0, 64, 0
1, 29250, Note_off_c, 0, 73, 65
1, 29250, Note_off_c, 0, 76, 66
1, 29382, Note_on_c, 0, 51, 101
1, 29382, Note_on_c, 0, 72, 103
1, 29384, Note_on_c, 0, 76, 100
1, 29385, Note_on_c, 0, 39, 90
1, 29413, Control_c, 0, 64, 67
1, 29428, Control_c, 0, 64, 110
1, 29436, Note_off_c, 0, 72, 0
1, 29443, Control_c, 0, 64, 127
1, 29445, Note_off_c, 0, 51, 60
1, 29456, Note_on_c, 0, 74, 83
1, 29461, Note_on_c, 0, 71, 90
1, 29462, Poly_aftertouch_c, 0, 72, 0
1, 29480, Note_off_c, 0, 39, 62
1, 29487, Control_c, 0, 64, 88
1, 29496, Note_off_c, 0, 76, 61
1, 29502, Control_c, 0, 64, 65
1, 29517, Control_c, 0, 64, 0
1, 29539, Note_on_c, 0, 73, 90
1, 29544, Note_on_c, 0, 69, 91
1, 29576, Note_off_c, 0, 74, 51
1, 29588, Note_off_c, 0, 71, 62
1, 29590, Note_off_c, 0, 73, 64
1, 29597, Note_off_c, 0, 69, 63
1, 29720, Note_on_c, 0, 45, 87
1, 29720, Note_on_c, 0, 73, 103
1, 29721, Note_on_c, 0, 76, 99
1, 29722, Note_on_c, 0, 33, 88
1, 29739, Control_c, 0, 64, 45
1, 29747, Note_off_c, 0, 73, 65
1, 29747, Note_off_c, 0, 76, 68
1, 29754, Control_c, 0, 64, 66
1, 29769, Control_c, 0, 64, 53
1, 29792, Control_c, 0, 64, 0
1, 29832, Note_off_c, 0, 33, 61
1, 29867, Note_off_c, 0, 45, 64
1, 29924, Note_on_c, 0, 76, 64
1, 29930, Note_on_c, 0, 72, 58
1, 29968, Note_off_c, 0, 72, 62
1, 29989, Note_on_c, 0, 70, 68
1, 29989, Note_on_c, 0, 74, 67
1, 30025, Note_off_c, 0, 76, 61
1, 30074, Note_on_c, 0, 63, 90
1, 30076, Note_on_c, 0, 51, 87
1, 30076, Note_on_c, 0, 73, 86
1, 30079, Note_on_c, 0, 69, 82
1, 30088, Control_c, 0, 64, 56
1, 30103, Note_off_c, 0, 70, 63
1, 30103, Control_c, 0, 64, 87
1, 30117, Control_c, 0, 64, 127
1, 30118, Note_off_c, 0, 74, 62
1, 30153, Note_off_c, 0, 69, 62
1, 30161, Note_off_c, 0, 73, 63
1, 30165, Note_off_c, 0, 63, 64
1, 30207, Control_c, 0, 64, 117
1, 30211, Note_off_c, 0, 51, 63
1, 30222, Control_c, 0, 64, 78
1, 30236, Control_c, 0, 64, 60
1, 30237, Note_on_c, 0, 76, 97
1, 30242, Note_on_c, 0, 73, 97
1, 30251, Control_c, 0, 64, 0
1, 30276, Note_off_c, 0, 76, 67
1, 30278, Note_off_c, 0, 73, 65
1, 30411, Note_on_c, 0, 51, 99
1, 30411, Note_on_c, 0, 72, 101
1, 30412, Note_on_c, 0, 76, 102
1, 30414, Note_on_c, 0, 39, 92
1, 30443, Control_c, 0, 64, 56
1, 30458, Control_c, 0, 64, 127
1, 30462, Note_off_c, 0, 39, 64
1, 30467, Note_off_c, 0, 72, 0
1, 30482, Note_on_c, 0, 70, 92
1, 30484, Note_on_c, 0, 74, 81
1, 30487, Poly_aftertouch_c, 0, 72, 0
1, 30489, Note_off_c, 0, 51, 62
1, 30509, Note_off_c, 0, 76, 63
1, 30565, Note_on_c, 0, 73, 95
1, 30567, Note_on_c, 0, 69, 103
1, 30570, Control_c, 0, 64, 79
1, 30585, Control_c, 0, 64, 59
1, 30591, Note_off_c, 0, 70, 65
1, 30598, Note_off_c, 0, 74, 64
1, 30600, Control_c, 0, 64, 0
1, 30610, Note_off_c, 0, 69, 65
1, 30620, Note_off_c, 0, 73, 66
1, 30755, Note_on_c, 0, 63, 98
1, 30756, Note_on_c, 0, 72, 105
1, 30758, Note_on_c, 0, 51, 97
1, 30758, Note_on_c, 0, 76, 102
1, 30793, Control_c, 0, 64, 51
1, 30799, Note_off_c, 0, 63, 63
1, 30807, Control_c, 0, 64, 127
1, 30824, Note_on_c, 0, 74, 87
1, 30830, Note_on_c, 0, 70, 92
1, 30845, Note_off_c, 0, 51, 63
1, 30849, Note_off_c, 0, 72, 61
1, 30866, Note_off_c, 0, 76, 59
1, 30910, Note_on_c, 0, 73, 96
1, 30918, Note_on_c, 0, 69, 98
1, 30923, Note_off_c, 0, 74, 61
1, 30927, Note_off_c, 0, 70, 64
1, 30952, Note_off_c, 0, 73, 68
1, 30961, Note_off_c, 0, 69, 68
1, 30970, Control_c, 0, 64, 86
1, 30985, Control_c, 0, 64, 66
1, 31000, Control_c, 0, 64, 35
1, 31015, Control_c, 0, 64, 0
1, 31125, Note_on_c, 0, 51, 95
1, 31125, Note_on_c, 0, 46, 85
1, 31125, Note_on_c, 0, 64, 106
1, 31126, Note_on_c, 0, 52, 110
1, 31128, Note_on_c, 0, 55, 94
1, 31177, Control_c, 0, 64, 71
1, 31192, Control_c, 0, 64, 116
1, 31207, Control_c, 0, 64, 127
1, 31225, Note_off_c, 0, 55, 58
1, 31259, Note_off_c, 0, 51, 62
1, 31299, Note_off_c, 0, 46, 62
1, 31307, Note_off_c, 0, 52, 60
1, 31388, Note_off_c, 0, 64, 0
1, 31401, Note_on_c, 0, 54, 98
1, 31423, Poly_aftertouch_c, 0, 64, 0
1, 31442, Note_off_c, 0, 54, 67
1, 31480, Note_on_c, 0, 34, 84
1, 31482, Control_c, 0, 64, 74
1, 31486, Note_on_c, 0, 64, 94
1, 31488, Note_on_c, 0, 55, 102
1, 31497, Control_c, 0, 64, 0
1, 31586, Control_c, 0, 64, 63
1, 31601, Control_c, 0, 64, 83
1, 31611, Note_off_c, 0, 34, 60
1, 31616, Control_c, 0, 64, 127
1, 31635, Note_off_c, 0, 55, 58
1, 31647, Note_off_c, 0, 64, 61
1, 31908, Note_on_c, 0, 54, 91
1, 31915, Note_on_c, 0, 49, 74
1, 31916, Note_on_c, 0, 69, 103
1, 31918, Note_on_c, 0, 57, 97
1, 31918, Note_on_c, 0, 45, 71
1, 31942, Control_c, 0, 64, 90
1, 31956, Control_c, 0, 64, 69
1, 31971, Control_c, 0, 64, 47
1, 31986, Control_c, 0, 64, 0
1, 32502, Note_off_c, 0, 57, 42
1, 32507, Note_off_c, 0, 69, 38
1, 32610, Note_off_c, 0, 49, 35
1, 32648, Note_off_c, 0, 45, 40
1, 32652, Note_off_c, 0, 54, 30
1, 32736, Note_on_c, 0, 57, 33
1, 32737, Note_on_c, 0, 69, 36
1, 32739, Note_on_c, 0, 60, 37
1, 32757, Note_on_c, 0, 65, 39
1, 32944, Note_on_c, 0, 56, 41
1, 32952, Note_on_c, 0, 44, 33
1, 32956, Note_off_c, 0, 57, 43
1, 32965, Note_off_c, 0, 65, 38
1, 32970, Note_off_c, 0, 60, 41
1, 33018, Note_off_c, 0, 69, 36
1, 33116, Note_on_c, 0, 55, 49
1, 33118, Note_on_c, 0, 60, 42
1, 33118, Note_on_c, 0, 69, 30
1, 33132, Note_on_c, 0, 65, 40
1, 33132, Note_off_c, 0, 56, 53
1, 33150, Note_off_c, 0, 44, 41
1, 33283, Note_on_c, 0, 54, 52
1, 33292, Note_on_c, 0, 42, 44
1, 33304, Note_off_c, 0, 65, 53
1, 33310, Note_off_c, 0, 60, 53
1, 33321, Note_off_c, 0, 55, 50
1, 33343, Note_off_c, 0, 69, 38
1, 33458, Note_on_c, 0, 55, 61
1, 33462, Note_on_c, 0, 60, 43
1, 33462, Note_on_c, 0, 69, 47
1, 33472, Note_on_c, 0, 65, 51
1, 33484, Note_off_c, 0, 42, 52
1, 33489, Note_off_c, 0, 54, 56
1, 33633, Note_on_c, 0, 56, 63
1, 33640, Note_off_c, 0, 55, 57
1, 33647, Note_on_c, 0, 44, 45
1, 33670, Note_off_c, 0, 60, 55
1, 33671, Note_off_c, 0, 65, 53
1, 33706, Note_off_c, 0, 69, 36
1, 33801, Note_on_c, 0, 69, 53
1, 33802, Note_on_c, 0, 57, 70
1, 33811, Note_on_c, 0, 60, 49
1, 33820, Note_on_c, 0, 65, 53
1, 33835, Note_off_c, 0, 56, 61
1, 33863, Note_off_c, 0, 44, 50
1, 33967, Note_on_c, 0, 58, 66
1, 33971, Note_off_c, 0, 57, 60
1, 33980, Note_off_c, 0, 60, 56
1, 33981, Note_on_c, 0, 46, 46
1, 33990, Note_off_c, 0, 65, 53
1, 34036, Note_off_c, 0, 69, 34
1, 34134, Note_on_c, 0, 69, 32
1, 34135, Note_on_c, 0, 59, 56
1, 34140, Note_on_c, 0, 60, 47
1, 34140, Note_off_c, 0, 58, 61
1, 34152, Note_on_c, 0, 65, 42
1, 34190, Note_off_c, 0, 46, 35
1, 34329, Note_on_c, 0, 49, 41
1, 34331, Note_off_c, 0, 59, 51
1, 34334, Note_on_c, 0, 61, 50
1, 34366, Note_off_c, 0, 60, 37
1, 34373, Note_off_c, 0, 65, 34
1, 34394, Note_off_c, 0, 69, 36
1, 34495, Note_on_c, 0, 69, 40
1, 34498, Note_on_c, 0, 59, 55
1, 34499, Note_on_c, 0, 60, 44
1, 34506, Note_on_c, 0, 65, 40
1, 34541, Note_off_c, 0, 61, 55
1, 34579, Note_off_c, 0, 49, 32
1, 34663, Note_on_c, 0, 58, 61
1, 34678, Note_on_c, 0, 46, 45
1, 34686, Note_off_c, 0, 59, 59
1, 34697, Note_off_c, 0, 65, 54
1, 34699, Note_off_c, 0, 60, 54
1, 34726, Note_off_c, 0, 69, 35
1, 34833, Note_on_c, 0, 57, 69
1, 34840, Note_on_c, 0, 69, 58
1, 34842, Note_on_c, 0, 60, 58
1, 34852, Note_on_c, 0, 65, 58
1, 34880, Note_off_c, 0, 58, 61
1, 34913, Note_off_c, 0, 46, 57
1, 35002, Note_on_c, 0, 56, 67
1, 35029, Note_on_c, 0, 44, 51
1, 35032, Note_off_c, 0, 60, 59
1, 35035, Note_off_c, 0, 65, 52
1, 35045, Note_off_c, 0, 57, 57
1, 35046, Note_off_c, 0, 69, 38
1, 35173, Note_on_c, 0, 57, 71
1, 35175, Note_on_c, 0, 60, 56
1, 35181, Note_on_c, 0, 69, 60
1, 35188, Note_on_c, 0, 65, 59
1, 35250, Note_off_c, 0, 56, 50
1, 35273, Note_off_c, 0, 44, 29
1, 35412, Note_on_c, 0, 64, 64
1, 35422, Note_on_c, 0, 52, 37
1, 35485, Note_off_c, 0, 69, 32
1, 35495, Note_off_c, 0, 57, 50
1, 35500, Note_off_c, 0, 65, 36
1, 35516, Note_off_c, 0, 60, 56
1, 35617, Note_on_c, 0, 60, 53
1, 35618, Note_on_c, 0, 65, 48
1, 35622, Note_on_c, 0, 69, 63
1, 35626, Note_on_c, 0, 57, 58
1, 35653, Note_off_c, 0, 64, 58
1, 35674, Note_off_c, 0, 52, 43
1, 35796, Note_on_c, 0, 56, 63
1, 35805, Note_off_c, 0, 57, 58
1, 35807, Note_on_c, 0, 44, 52
1, 35815, Note_off_c, 0, 60, 56
1, 35820, Note_off_c, 0, 65, 57
1, 35838, Note_off_c, 0, 69, 38
1, 35967, Note_on_c, 0, 55, 67
1, 35974, Note_on_c, 0, 60, 51
1, 35979, Note_on_c, 0, 65, 51
1, 35982, Note_on_c, 0, 69, 45
1, 35993, Note_off_c, 0, 56, 60
1, 36008, Note_off_c, 0, 44, 60
1, 36138, Note_on_c, 0, 54, 61
1, 36142, Note_on_c, 0, 42, 52
1, 36146, Note_off_c, 0, 55, 58
1, 36166, Note_off_c, 0, 65, 55
1, 36169, Note_off_c, 0, 60, 58
1, 36190, Note_off_c, 0, 69, 35
1, 36313, Note_on_c, 0, 60, 49
1, 36315, Note_on_c, 0, 69, 56
1, 36318, Note_on_c, 0, 57, 53
1, 36327, Note_off_c, 0, 42, 48
1, 36328, Note_on_c, 0, 65, 51
1, 36337, Note_off_c, 0, 54, 60
1, 36482, Note_off_c, 0, 57, 54
1, 36484, Note_on_c, 0, 56, 53
1, 36488, Note_off_c, 0, 60, 54
1, 36491, Note_off_c, 0, 65, 53
1, 36494, Note_on_c, 0, 44, 42
1, 36544, Note_off_c, 0, 69, 33
1, 36670, Note_off_c, 0, 56, 54
1, 36675, Note_on_c, 0, 69, 33
1, 36677, Note_on_c, 0, 55, 47
1, 36678, Note_on_c, 0, 60, 37
1, 36683, Note_on_c, 0, 65, 43
1, 36718, Note_off_c, 0, 44, 36
1, 36822, Note_off_c, 0, 55, 54
1, 36845, Note_on_c, 0, 54, 47
1, 36845, Note_on_c, 0, 42, 47
1, 36857, Note_off_c, 0, 65, 50
1, 36875, Note_off_c, 0, 60, 36
1, 36891, Note_off_c, 0, 69, 39
1, 37014, Note_on_c, 0, 69, 45
1, 37030, Note_on_c, 0, 60, 39
1, 37036, Note_on_c, 0, 65, 43
1, 37036, Note_on_c, 0, 57, 42
1, 37046, Note_off_c, 0, 54, 55
1, 37072, Note_off_c, 0, 42, 36
1, 37200, Note_on_c, 0, 56, 63
1, 37205, Note_off_c, 0, 57, 59
1, 37205, Note_off_c, 0, 60, 54
1, 37210, Note_off_c, 0, 65, 49
1, 37211, Note_on_c, 0, 44, 50
1, 37239, Note_off_c, 0, 69, 36
1, 37379, Note_on_c, 0, 55, 69
1, 37379, Note_on_c, 0, 69, 69
1, 37383, Note_on_c, 0, 60, 56
1, 37391, Note_on_c, 0, 65, 58
1, 37398, Note_off_c, 0, 56, 55
1, 37404, Note_off_c, 0, 44, 55
1, 37531, Note_off_c, 0, 55, 60
1, 37531, Control_c, 0, 64, 31
1, 37542, Note_on_c, 0, 54, 75
1, 37545, Note_on_c, 0, 42, 69
1, 37546, Control_c, 0, 64, 55
1, 37555, Note_off_c, 0, 60, 63
1, 37561, Control_c, 0, 64, 63
1, 37576, Control_c, 0, 64, 68
1, 37587, Note_off_c, 0, 69, 61
1, 37588, Note_off_c, 0, 65, 60
1, 37591, Control_c, 0, 64, 78
1, 37605, Control_c, 0, 64, 111
1, 37620, Control_c, 0, 64, 127
1, 37667, Note_off_c, 0, 54, 64
1, 37710, Note_on_c, 0, 53, 67
1, 37715, Note_on_c, 0, 41, 64
1, 37726, Note_on_c, 0, 65, 61
1, 37727, Note_on_c, 0, 74, 76
1, 37733, Note_on_c, 0, 62, 68
1, 37739, Note_on_c, 0, 70, 60
1, 37739, Control_c, 0, 64, 89
1, 37754, Control_c, 0, 64, 73
1, 37769, Note_off_c, 0, 42, 31
1, 37769, Control_c, 0, 64, 62
1, 37784, Control_c, 0, 64, 46
1, 37799, Control_c, 0, 64, 39
1, 37814, Control_c, 0, 64, 52
1, 37818, Note_off_c, 0, 41, 62
1, 37829, Control_c, 0, 64, 63
1, 37844, Control_c, 0, 64, 68
1, 37850, Note_off_c, 0, 53, 64
1, 37859, Control_c, 0, 64, 75
1, 37873, Control_c, 0, 64, 87
1, 37888, Control_c, 0, 64, 110
1, 37903, Control_c, 0, 64, 127
1, 37983, Note_on_c, 0, 61, 70
1, 37991, Control_c, 0, 64, 110
1, 37996, Note_on_c, 0, 49, 50
1, 37997, Note_off_c, 0, 62, 55
1, 37999, Note_off_c, 0, 65, 53
1, 38006, Control_c, 0, 64, 101
1, 38023, Note_off_c, 0, 74, 49
1, 38029, Control_c, 0, 64, 94
1, 38044, Control_c, 0, 64, 89
1, 38051, Note_off_c, 0, 70, 38
1, 38059, Control_c, 0, 64, 85
1, 38073, Control_c, 0, 64, 80
1, 38088, Control_c, 0, 64, 76
1, 38103, Control_c, 0, 64, 73
1, 38117, Control_c, 0, 64, 71
1, 38132, Control_c, 0, 64, 68
1, 38147, Control_c, 0, 64, 65
1, 38162, Control_c, 0, 64, 61
1, 38177, Control_c, 0, 64, 57
1, 38191, Control_c, 0, 64, 55
1, 38197, Note_on_c, 0, 60, 76
1, 38202, Note_on_c, 0, 65, 57
1, 38204, Note_on_c, 0, 74, 63
1, 38206, Control_c, 0, 64, 54
1, 38211, Note_on_c, 0, 70, 58
1, 38221, Control_c, 0, 64, 52
1, 38236, Control_c, 0, 64, 50
1, 38250, Control_c, 0, 64, 47
1, 38256, Note_off_c, 0, 49, 59
1, 38263, Note_off_c, 0, 61, 60
1, 38265, Control_c, 0, 64, 43
1, 38280, Control_c, 0, 64, 40
1, 38295, Control_c, 0, 64, 38
1, 38310, Control_c, 0, 64, 37
1, 38324, Control_c, 0, 64, 36
1, 38339, Control_c, 0, 64, 36
1, 38360, Note_on_c, 0, 59, 74
1, 38369, Control_c, 0, 64, 35
1, 38373, Note_on_c, 0, 47, 58
1, 38387, Note_off_c, 0, 74, 54
1, 38389, Note_off_c, 0, 65, 58
1, 38391, Note_off_c, 0, 60, 59
1, 38392, Note_off_c, 0, 70, 57
1, 38398, Control_c, 0, 64, 35
1, 38458, Control_c, 0, 64, 34
1, 38503, Control_c, 0, 64, 33
1, 38532, Note_on_c, 0, 60, 76
1, 38535, Note_on_c, 0, 74, 67
1, 38539, Note_on_c, 0, 65, 55
1, 38543, Note_on_c, 0, 70, 58
1, 38543, Note_off_c, 0, 47, 39
1, 38556, Note_off_c, 0, 59, 61
1, 38700, Note_on_c, 0, 61, 71
1, 38706, Note_off_c, 0, 60, 59
1, 38710, Note_on_c, 0, 49, 54
1, 38725, Note_off_c, 0, 74, 53
1, 38727, Note_off_c, 0, 65, 56
1, 38731, Note_off_c, 0, 70, 56
1, 38866, Note_on_c, 0, 62, 67
1, 38871, Note_on_c, 0, 74, 57
1, 38873, Note_on_c, 0, 65, 56
1, 38881, Note_on_c, 0, 70, 56
1, 38895, Note_off_c, 0, 61, 59
1, 38896, Note_off_c, 0, 49, 56
1, 39039, Note_on_c, 0, 63, 65
1, 39042, Note_off_c, 0, 62, 59
1, 39045, Note_on_c, 0, 51, 55
1, 39052, Note_off_c, 0, 65, 54
1, 39056, Note_off_c, 0, 70, 53
1, 39060, Control_c, 0, 64, 34
1, 39075, Note_off_c, 0, 74, 50
1, 39200, Note_off_c, 0, 51, 37
1, 39200, Note_off_c, 0, 63, 60
1, 39206, Note_on_c, 0, 64, 58
1, 39207, Note_on_c, 0, 65, 47
1, 39207, Note_on_c, 0, 74, 21
1, 39220, Note_on_c, 0, 70, 42
1, 39379, Note_on_c, 0, 66, 47
1, 39381, Note_off_c, 0, 64, 52
1, 39391, Note_on_c, 0, 54, 35
1, 39403, Note_off_c, 0, 65, 36
1, 39403, Note_off_c, 0, 70, 42
1, 39452, Note_off_c, 0, 74, 32
1, 39554, Note_on_c, 0, 74, 32
1, 39559, Note_on_c, 0, 64, 55
1, 39561, Note_on_c, 0, 65, 46
1, 39572, Note_on_c, 0, 70, 45
1, 39585, Note_off_c, 0, 66, 54
1, 39590, Note_off_c, 0, 54, 40
1, 39720, Note_on_c, 0, 63, 63
1, 39724, Note_on_c, 0, 51, 60
1, 39744, Note_off_c, 0, 64, 61
1, 39753, Note_off_c, 0, 74, 51
1, 39759, Note_off_c, 0, 65, 56
1, 39761, Note_off_c, 0, 70, 55
1, 39887, Note_on_c, 0, 74, 70
1, 39890, Note_on_c, 0, 62, 74
1, 39895, Note_on_c, 0, 65, 60
1, 39901, Note_on_c, 0, 70, 61
1, 39950, Note_off_c, 0, 63, 60
1, 39965, Note_off_c, 0, 51, 60
1, 40053, Note_on_c, 0, 61, 74
1, 40060, Note_off_c, 0, 74, 58
1, 40062, Note_on_c, 0, 49, 64
1, 40086, Note_off_c, 0, 62, 56
1, 40089, Note_off_c, 0, 65, 54
1, 40093, Note_off_c, 0, 70, 54
1, 40220, Note_on_c, 0, 65, 57
1, 40220, Note_on_c, 0, 74, 71
1, 40222, Note_on_c, 0, 62, 68
1, 40226, Note_on_c, 0, 70, 38
1, 40273, Note_off_c, 0, 70, 60
1, 40297, Note_off_c, 0, 61, 53
1, 40309, Note_off_c, 0, 49, 58
1, 40387, Note_on_c, 0, 57, 63
1, 40392, Note_on_c, 0, 69, 74
1, 40397, Note_off_c, 0, 62, 61
1, 40408, Note_off_c, 0, 65, 60
1, 40423, Note_off_c, 0, 74, 63
1, 40448, Note_off_c, 0, 69, 64
1, 40545, Note_on_c, 0, 77, 80
1, 40553, Note_on_c, 0, 65, 62
1, 40560, Note_off_c, 0, 57, 65
1, 40708, Note_on_c, 0, 47, 64
1, 40710, Note_off_c, 0, 77, 62
1, 40715, Note_off_c, 0, 65, 60
1, 40718, Note_on_c, 0, 72, 52
1, 40718, Note_on_c, 0, 74, 57
1, 40749, Note_off_c, 0, 72, 66
1, 40752, Note_off_c, 0, 74, 65
1, 40873, Note_on_c, 0, 60, 54
1, 40874, Note_on_c, 0, 48, 58
1, 40876, Note_on_c, 0, 80, 75
1, 40882, Note_off_c, 0, 47, 62
1, 40883, Note_on_c, 0, 68, 69
1, 40896, Note_off_c, 0, 60, 60
1, 40905, Note_off_c, 0, 48, 65
1, 41032, Note_off_c, 0, 68, 58
1, 41039, Note_on_c, 0, 43, 92
1, 41051, Note_on_c, 0, 76, 68
1, 41054, Note_on_c, 0, 77, 70
1, 41072, Note_off_c, 0, 80, 62
1, 41098, Note_off_c, 0, 76, 60
1, 41100, Note_off_c, 0, 77, 59
1, 41201, Note_on_c, 0, 56, 87
1, 41207, Note_on_c, 0, 44, 73
1, 41207, Note_on_c, 0, 72, 95
1, 41207, Note_on_c, 0, 84, 98
1, 41218, Note_off_c, 0, 43, 63
1, 41228, Note_off_c, 0, 56, 66
1, 41240, Note_off_c, 0, 44, 66
1, 41245, Control_c, 0, 64, 33
1, 41275, Control_c, 0, 64, 33
1, 41320, Control_c, 0, 64, 32
1, 41335, Control_c, 0, 64, 32
1, 41349, Control_c, 0, 64, 31
1, 41358, Note_on_c, 0, 38, 94
1, 41362, Note_off_c, 0, 72, 0
1, 41364, Control_c, 0, 64, 22
1, 41367, Note_on_c, 0, 83, 95
1, 41370, Note_on_c, 0, 79, 93
1, 41379, Control_c, 0, 64, 0
1, 41400, Poly_aftertouch_c, 0, 72, 127
1, 41402, Note_off_c, 0, 84, 60
1, 41433, Poly_aftertouch_c, 0, 72, 0
1, 41460, Note_off_c, 0, 79, 65
1, 41470, Note_off_c, 0, 83, 67
1, 41513, Note_on_c, 0, 76, 101
1, 41519, Note_on_c, 0, 51, 98
1, 41528, Note_on_c, 0, 39, 80
1, 41548, Note_on_c, 0, 82, 61
1, 41549, Note_off_c, 0, 38, 62
1, 41572, Note_off_c, 0, 82, 54
1, 41586, Control_c, 0, 64, 36
1, 41601, Control_c, 0, 64, 68
1, 41614, Note_off_c, 0, 51, 64
1, 41615, Control_c, 0, 64, 89
1, 41630, Control_c, 0, 64, 127
1, 41669, Note_on_c, 0, 87, 107
1, 41670, Note_on_c, 0, 81, 90
1, 41675, Note_on_c, 0, 49, 92
1, 41676, Note_on_c, 0, 85, 85
1, 41677, Note_on_c, 0, 37, 88
1, 41690, Note_on_c, 0, 42, 62
1, 41704, Control_c, 0, 64, 83
1, 41709, Note_off_c, 0, 39, 60
1, 41719, Control_c, 0, 64, 61
1, 41719, Note_off_c, 0, 42, 63
1, 41733, Control_c, 0, 64, 65
1, 41748, Control_c, 0, 64, 99
1, 41766, Note_off_c, 0, 81, 65
1, 41771, Control_c, 0, 64, 127
1, 41784, Note_off_c, 0, 85, 59
1, 41796, Note_off_c, 0, 87, 61
1, 41799, Note_off_c, 0, 49, 64
1, 41803, Note_off_c, 0, 37, 62
1, 41806, Note_off_c, 0, 76, 64
1, 41868, Note_on_c, 0, 79, 97
1, 41870, Note_on_c, 0, 76, 110
1, 41870, Note_on_c, 0, 88, 96
1, 41874, Note_on_c, 0, 84, 91
1, 41874, Note_on_c, 0, 36, 97
1, 41874, Note_on_c, 0, 48, 97
1, 41875, Control_c, 0, 64, 78
1, 41890, Control_c, 0, 64, 30
1, 41905, Control_c, 0, 64, 0
1, 41953, Note_off_c, 0, 36, 64
1, 41964, Control_c, 0, 64, 28
1, 41972, Note_off_c, 0, 48, 67
1, 41978, Control_c, 0, 64, 88
1, 41993, Control_c, 0, 64, 127
1, 42040, Note_off_c, 0, 79, 63
1, 42043, Note_off_c, 0, 88, 59
1, 42053, Note_off_c, 0, 84, 61
1, 42059, Note_off_c, 0, 76, 63
1, 42092, Note_on_c, 0, 75, 101
1, 42097, Control_c, 0, 64, 110
1, 42112, Control_c, 0, 64, 77
1, 42127, Control_c, 0, 64, 66
1, 42142, Control_c, 0, 64, 63
1, 42157, Control_c, 0, 64, 61
1, 42171, Control_c, 0, 64, 57
1, 42186, Control_c, 0, 64, 38
1, 42201, Control_c, 0, 64, 0
1, 42248, Note_on_c, 0, 79, 69
1, 42252, Note_on_c, 0, 74, 106
1, 42253, Note_on_c, 0, 88, 90
1, 42259, Note_on_c, 0, 84, 70
1, 42262, Note_on_c, 0, 63, 81
1, 42285, Note_off_c, 0, 75, 60
1, 42404, Note_off_c, 0, 79, 64
1, 42409, Note_off_c, 0, 84, 60
1, 42412, Note_off_c, 0, 74, 60
1, 42423, Note_off_c, 0, 88, 58
1, 42425, Note_on_c, 0, 73, 94
1, 42441, Note_off_c, 0, 63, 49
1, 42585, Note_on_c, 0, 72, 70
1, 42585, Note_off_c, 0, 73, 56
1, 42591, Note_on_c, 0, 61, 74
1, 42594, Note_on_c, 0, 79, 73
1, 42596, Note_on_c, 0, 88, 80
1, 42604, Note_on_c, 0, 84, 77
1, 42629, Note_on_c, 0, 74, 8
1, 42684, Note_off_c, 0, 74, 26
1, 42740, Note_off_c, 0, 79, 62
1, 42745, Note_off_c, 0, 84, 57
1, 42750, Note_off_c, 0, 72, 62
1, 42752, Note_on_c, 0, 71, 89
1, 42765, Note_off_c, 0, 61, 53
1, 42765, Note_off_c, 0, 88, 56
1, 42909, Note_off_c, 0, 71, 59
1, 42912, Note_on_c, 0, 88, 62
1, 42915, Note_on_c, 0, 72, 80
1, 42919, Note_on_c, 0, 59, 66
1, 42923, Note_on_c, 0, 79, 69
1, 42930, Note_on_c, 0, 84, 66
1, 43055, Note_off_c, 0, 59, 55
1, 43072, Note_off_c, 0, 72, 59
1, 43078, Note_on_c, 0, 73, 85
1, 43087, Note_off_c, 0, 88, 59
1, 43099, Note_off_c, 0, 79, 62
1, 43102, Note_off_c, 0, 84, 56
1, 43242, Note_on_c, 0, 79, 65
1, 43244, Note_on_c, 0, 74, 89
1, 43246, Note_on_c, 0, 88, 79
1, 43260, Note_on_c, 0, 84, 61
1, 43263, Note_on_c, 0, 61, 62
1, 43271, Note_off_c, 0, 73, 62
1, 43419, Note_on_c, 0, 75, 94
1, 43423, Note_off_c, 0, 74, 59
1, 43430, Note_off_c, 0, 88, 55
1, 43454, Note_off_c, 0, 84, 55
1, 43455, Note_off_c, 0, 61, 40
1, 43462, Note_off_c, 0, 79, 60
1, 43573, Note_on_c, 0, 76, 102
1, 43574, Note_on_c, 0, 88, 94
1, 43575, Note_on_c, 0, 63, 80
1, 43576, Note_on_c, 0, 79, 82
1, 43582, Note_on_c, 0, 84, 78
1, 43596, Control_c, 0, 64, 54
1, 43610, Control_c, 0, 64, 74
1, 43620, Note_off_c, 0, 75, 61
1, 43625, Control_c, 0, 64, 106
1, 43640, Control_c, 0, 64, 127
1, 43657, Note_off_c, 0, 63, 61
1, 43696, Note_off_c, 0, 76, 63
1, 43729, Note_off_c, 0, 79, 61
1, 43734, Note_on_c, 0, 77, 106
1, 43743, Note_off_c, 0, 88, 61
1, 43748, Note_off_c, 0, 84, 64
1, 43760, Note_on_c, 0, 66, 67
1, 43778, Note_off_c, 0, 66, 65
1, 43788, Control_c, 0, 64, 76
1, 43803, Control_c, 0, 64, 53
1, 43818, Control_c, 0, 64, 0
1, 43890, Note_on_c, 0, 65, 87
1, 43892, Control_c, 0, 64, 43
1, 43893, Note_on_c, 0, 78, 111
1, 43895, Note_on_c, 0, 79, 84
1, 43895, Note_on_c, 0, 88, 91
1, 43898, Note_on_c, 0, 84, 76
1, 43903, Note_off_c, 0, 77, 63
1, 43904, Note_on_c, 0, 87, 70
1, 43907, Control_c, 0, 64, 74
1, 43919, Note_off_c, 0, 65, 60
1, 43922, Control_c, 0, 64, 127
1, 43948, Note_off_c, 0, 87, 0
1, 43948, Note_on_c, 0, 87, 12
1, 43960, Note_on_c, 0, 85, 2
1, 43961, Note_off_c, 0, 85, 127
1, 43964, Note_off_c, 0, 79, 63
1, 43997, Note_off_c, 0, 78, 66
1, 44001, Note_off_c, 0, 84, 63
1, 44037, Note_off_c, 0, 88, 64
1, 44038, Note_off_c, 0, 87, 40
1, 44059, Note_on_c, 0, 80, 111
1, 44092, Control_c, 0, 64, 85
1, 44107, Control_c, 0, 64, 56
1, 44122, Control_c, 0, 64, 0
1, 44151, Control_c, 0, 64, 14
1, 44166, Control_c, 0, 64, 63
1, 44181, Control_c, 0, 64, 92
1, 44196, Control_c, 0, 64, 127
1, 44207, Note_on_c, 0, 84, 54
1, 44209, Note_on_c, 0, 77, 109
1, 44211, Note_on_c, 0, 68, 90
1, 44213, Note_on_c, 0, 90, 105
1, 44216, Note_on_c, 0, 87, 91
1, 44226, Note_off_c, 0, 80, 62
1, 44263, Note_on_c, 0, 89, 37
1, 44306, Note_off_c, 0, 89, 45
1, 44316, Note_off_c, 0, 77, 60
1, 44339, Note_off_c, 0, 84, 64
1, 44347, Note_off_c, 0, 68, 43
1, 44359, Control_c, 0, 64, 91
1, 44361, Note_off_c, 0, 87, 59
1, 44370, Note_on_c, 0, 79, 110
1, 44374, Control_c, 0, 64, 47
1, 44378, Note_off_c, 0, 90, 60
1, 44389, Note_on_c, 0, 74, 66
1, 44389, Control_c, 0, 64, 0
1, 44409, Note_on_c, 0, 72, 48
1, 44423, Note_off_c, 0, 74, 60
1, 44433, Control_c, 0, 64, 60
1, 44434, Note_off_c, 0, 72, 59
1, 44448, Control_c, 0, 64, 127
1, 44476, Note_off_c, 0, 79, 64
1, 44503, Poly_aftertouch_c, 0, 84, 0
1, 44510, Note_on_c, 0, 67, 87
1, 44521, Note_on_c, 0, 91, 107
1, 44522, Note_on_c, 0, 78, 109
1, 44524, Note_on_c, 0, 84, 6
1, 44530, Note_off_c, 0, 67, 71
1, 44532, Note_on_c, 0, 88, 78
1, 44533, Note_on_c, 0, 89, 80
1, 44550, Note_on_c, 0, 80, 53
1, 44574, Note_off_c, 0, 80, 39
1, 44584, Note_off_c, 0, 89, 54
1, 44697, Note_off_c, 0, 78, 60
1, 44700, Note_off_c, 0, 84, 42
1, 44703, Note_on_c, 0, 47, 111
1, 44706, Note_on_c, 0, 35, 105
1, 44715, Control_c, 0, 64, 76
1, 44721, Note_on_c, 0, 36, 72
1, 44722, Note_off_c, 0, 36, 127
1, 44730, Control_c, 0, 64, 0
1, 44731, Note_off_c, 0, 88, 63
1, 44743, Note_on_c, 0, 42, 42
1, 44744, Note_off_c, 0, 42, 127
1, 44745, Control_c, 0, 66, 127
1, 44759, Note_off_c, 0, 91, 65
1, 44804, Note_off_c, 0, 35, 51
1, 44840, Note_off_c, 0, 47, 64
1, 44884, Note_on_c, 0, 93, 94
1, 44884, Note_on_c, 0, 101, 93
1, 44885, Note_on_c, 0, 100, 89
1, 45034, Control_c, 0, 64, 69
1, 45046, Note_on_c, 0, 85, 119
1, 45049, Control_c, 0, 64, 127
1, 45055, Note_off_c, 0, 93, 64
1, 45077, Note_off_c, 0, 101, 63
1, 45094, Note_off_c, 0, 100, 64
1, 45106, Note_off_c, 0, 85, 0
1, 45143, Poly_aftertouch_c, 0, 85, 127
1, 45164, Poly_aftertouch_c, 0, 85, 0
1, 45193, Note_on_c, 0, 95, 81
1, 45194, Note_on_c, 0, 101, 94
1, 45195, Note_on_c, 0, 88, 86
1, 45240, Note_on_c, 0, 100, 15
1, 45241, Note_off_c, 0, 100, 127
1, 45351, Note_off_c, 0, 101, 60
1, 45356, Note_on_c, 0, 90, 118
1, 45366, Note_off_c, 0, 95, 63
1, 45383, Note_off_c, 0, 90, 76
1, 45386, Note_off_c, 0, 88, 65
1, 45401, Note_on_c, 0, 89, 48
1, 45402, Note_off_c, 0, 89, 127
1, 45519, Note_on_c, 0, 93, 82
1, 45519, Note_on_c, 0, 95, 92
1, 45520, Note_on_c, 0, 86, 87
1, 45629, Note_off_c, 0, 86, 59
1, 45661, Note_off_c, 0, 93, 61
1, 45676, Note_off_c, 0, 95, 61
1, 45681, Note_on_c, 0, 80, 118
1, 45713, Note_off_c, 0, 80, 72
1, 45838, Note_on_c, 0, 96, 91
1, 45841, Note_on_c, 0, 89, 72
1, 45845, Note_on_c, 0, 83, 75
1, 45983, Note_off_c, 0, 96, 58
1, 46010, Note_on_c, 0, 85, 113
1, 46017, Note_off_c, 0, 89, 61
1, 46030, Note_off_c, 0, 83, 63
1, 46040, Note_off_c, 0, 85, 74
1, 46167, Note_on_c, 0, 91, 95
1, 46167, Note_on_c, 0, 88, 76
1, 46168, Note_on_c, 0, 81, 87
1, 46324, Note_off_c, 0, 91, 59
1, 46334, Note_off_c, 0, 88, 64
1, 46343, Note_on_c, 0, 77, 126
1, 46344, Note_off_c, 0, 81, 62
1, 46378, Note_off_c, 0, 77, 71
1, 46502, Note_on_c, 0, 79, 86
1, 46503, Note_on_c, 0, 88, 83
1, 46505, Note_on_c, 0, 86, 79
1, 46629, Note_off_c, 0, 79, 61
1, 46667, Note_on_c, 0, 73, 124
1, 46669, Note_off_c, 0, 86, 63
1, 46688, Note_off_c, 0, 88, 64
1, 46727, Note_off_c, 0, 73, 43
1, 46823, Note_on_c, 0, 89, 98
1, 46824, Note_on_c, 0, 76, 89
1, 46827, Note_on_c, 0, 83, 77
1, 46960, Note_off_c, 0, 89, 59
1, 46980, Note_off_c, 0, 83, 62
1, 46999, Note_on_c, 0, 78, 126
1, 47001, Note_off_c, 0, 76, 67
1, 47028, Control_c, 0, 64, 78
1, 47031, Note_on_c, 0, 79, 68
1, 47043, Control_c, 0, 64, 65
1, 47047, Note_off_c, 0, 79, 46
1, 47058, Control_c, 0, 64, 73
1, 47073, Control_c, 0, 64, 99
1, 47088, Control_c, 0, 64, 127
1, 47109, Note_off_c, 0, 78, 58
1, 47153, Note_on_c, 0, 74, 86
1, 47154, Note_on_c, 0, 83, 86
1, 47156, Note_on_c, 0, 81, 78
1, 47293, Note_off_c, 0, 74, 60
1, 47322, Note_off_c, 0, 81, 61
1, 47327, Note_on_c, 0, 68, 117
1, 47344, Note_off_c, 0, 83, 60
1, 47355, Control_c, 0, 64, 98
1, 47370, Control_c, 0, 64, 64
1, 47384, Control_c, 0, 64, 0
1, 47458, Control_c, 0, 64, 55
1, 47473, Control_c, 0, 64, 87
1, 47488, Control_c, 0, 64, 127
1, 47490, Note_on_c, 0, 84, 91
1, 47493, Note_on_c, 0, 71, 82
1, 47493, Note_on_c, 0, 77, 75
1, 47533, Note_off_c, 0, 68, 58
1, 47638, Note_off_c, 0, 84, 59
1, 47660, Note_on_c, 0, 73, 114
1, 47670, Note_off_c, 0, 77, 60
1, 47681, Note_off_c, 0, 71, 58
1, 47681, Control_c, 0, 64, 115
1, 47696, Control_c, 0, 64, 67
1, 47711, Control_c, 0, 64, 0
1, 47777, Control_c, 0, 64, 55
1, 47791, Control_c, 0, 64, 76
1, 47806, Control_c, 0, 64, 127
1, 47815, Note_off_c, 0, 73, 53
1, 47819, Note_on_c, 0, 69, 80
1, 47819, Note_on_c, 0, 76, 77
1, 47824, Note_on_c, 0, 79, 78
1, 47825, Note_on_c, 0, 77, 77
1, 47968, Note_off_c, 0, 76, 62
1, 47970, Note_off_c, 0, 79, 61
1, 47973, Note_off_c, 0, 77, 44
1, 47982, Note_on_c, 0, 68, 106
1, 47988, Note_off_c, 0, 69, 61
1, 48014, Control_c, 0, 64, 75
1, 48018, Note_on_c, 0, 66, 44
1, 48029, Control_c, 0, 64, 50
1, 48044, Control_c, 0, 64, 0
1, 48054, Note_off_c, 0, 66, 47
1, 48088, Control_c, 0, 64, 52
1, 48102, Control_c, 0, 64, 67
1, 48112, Note_off_c, 0, 68, 54
1, 48117, Control_c, 0, 64, 90
1, 48130, Note_on_c, 0, 74, 78
1, 48130, Note_on_c, 0, 76, 82
1, 48131, Note_on_c, 0, 67, 73
1, 48132, Control_c, 0, 64, 127
1, 48266, Note_off_c, 0, 76, 60
1, 48272, Note_off_c, 0, 74, 61
1, 48274, Note_off_c, 0, 67, 61
1, 48310, Note_on_c, 0, 63, 99
1, 48340, Control_c, 0, 64, 85
1, 48355, Control_c, 0, 64, 63
1, 48369, Note_on_c, 0, 62, 10
1, 48370, Control_c, 0, 64, 30
1, 48372, Note_off_c, 0, 63, 62
1, 48385, Control_c, 0, 64, 0
1, 48399, Control_c, 0, 64, 13
1, 48414, Control_c, 0, 64, 48
1, 48429, Control_c, 0, 64, 62
1, 48444, Control_c, 0, 64, 71
1, 48451, Note_off_c, 0, 62, 62
1, 48459, Note_on_c, 0, 71, 76
1, 48459, Control_c, 0, 64, 86
1, 48474, Note_on_c, 0, 65, 69
1, 48474, Control_c, 0, 64, 127
1, 48491, Note_on_c, 0, 67, 54
1, 48586, Note_off_c, 0, 67, 33
1, 48629, Note_off_c, 0, 65, 54
1, 48647, Note_on_c, 0, 56, 100
1, 48674, Control_c, 0, 64, 101
1, 48676, Note_off_c, 0, 71, 59
1, 48688, Control_c, 0, 64, 76
1, 48703, Control_c, 0, 64, 63
1, 48718, Control_c, 0, 64, 56
1, 48733, Control_c, 0, 64, 57
1, 48748, Control_c, 0, 64, 61
1, 48763, Control_c, 0, 64, 65
1, 48778, Control_c, 0, 64, 73
1, 48793, Control_c, 0, 64, 94
1, 48807, Control_c, 0, 64, 127
1, 48814, Note_on_c, 0, 71, 78
1, 48824, Note_on_c, 0, 65, 69
1, 48829, Note_on_c, 0, 64, 64
1, 48921, Note_off_c, 0, 56, 62
1, 48932, Note_off_c, 0, 64, 58
1, 48957, Control_c, 0, 66, 0
1, 48988, Note_on_c, 0, 61, 94
1, 49015, Note_off_c, 0, 65, 37
1, 49030, Control_c, 0, 64, 90
1, 49045, Control_c, 0, 64, 70
1, 49060, Control_c, 0, 64, 60
1, 49075, Control_c, 0, 64, 54
1, 49090, Control_c, 0, 64, 56
1, 49104, Control_c, 0, 64, 59
1, 49119, Control_c, 0, 64, 63
1, 49134, Control_c, 0, 64, 70
1, 49147, Note_off_c, 0, 71, 58
1, 49148, Control_c, 0, 64, 85
1, 49151, Note_on_c, 0, 65, 66
1, 49151, Note_on_c, 0, 72, 80
1, 49157, Note_on_c, 0, 62, 71
1, 49163, Control_c, 0, 64, 127
1, 49212, Note_off_c, 0, 61, 58
1, 49264, Note_off_c, 0, 72, 58
1, 49295, Note_off_c, 0, 65, 61
1, 49317, Note_off_c, 0, 62, 60
1, 49332, Note_on_c, 0, 49, 84
1, 49393, Control_c, 0, 64, 85
1, 49408, Control_c, 0, 64, 67
1, 49422, Control_c, 0, 64, 54
1, 49437, Control_c, 0, 64, 41
1, 49452, Control_c, 0, 64, 39
1, 49467, Control_c, 0, 64, 40
1, 49482, Control_c, 0, 64, 44
1, 49496, Note_on_c, 0, 59, 62
1, 49497, Control_c, 0, 64, 54
1, 49498, Note_on_c, 0, 64, 67
1, 49499, Note_on_c, 0, 57, 63
1, 49511, Control_c, 0, 64, 63
1, 49526, Control_c, 0, 64, 70
1, 49541, Control_c, 0, 64, 83
1, 49556, Control_c, 0, 64, 127
1, 49605, Note_off_c, 0, 49, 60
1, 49630, Note_off_c, 0, 57, 59
1, 49659, Note_off_c, 0, 64, 59
1, 49661, Note_on_c, 0, 54, 92
1, 49671, Note_off_c, 0, 59, 55
1, 49719, Control_c, 0, 64, 90
1, 49734, Control_c, 0, 64, 69
1, 49750, Control_c, 0, 64, 55
1, 49765, Control_c, 0, 64, 46
1, 49779, Control_c, 0, 64, 47
1, 49794, Control_c, 0, 64, 52
1, 49809, Control_c, 0, 64, 60
1, 49824, Note_on_c, 0, 55, 68
1, 49824, Note_on_c, 0, 65, 71
1, 49824, Control_c, 0, 64, 66
1, 49825, Note_on_c, 0, 59, 60
1, 49829, Note_off_c, 0, 54, 63
1, 49839, Control_c, 0, 64, 77
1, 49852, Control_c, 0, 64, 102
1, 49867, Control_c, 0, 64, 127
1, 49937, Note_off_c, 0, 65, 56
1, 49954, Note_off_c, 0, 59, 62
1, 49979, Note_off_c, 0, 55, 60
1, 50012, Note_on_c, 0, 44, 86
1, 50038, Control_c, 0, 64, 115
1, 50052, Control_c, 0, 64, 100
1, 50067, Control_c, 0, 64, 91
1, 50082, Control_c, 0, 64, 85
1, 50097, Control_c, 0, 64, 80
1, 50112, Control_c, 0, 64, 76
1, 50126, Control_c, 0, 64, 72
1, 50141, Control_c, 0, 64, 69
1, 50156, Control_c, 0, 64, 66
1, 50171, Note_on_c, 0, 60, 75
1, 50171, Control_c, 0, 64, 64
1, 50176, Note_on_c, 0, 52, 65
1, 50176, Note_on_c, 0, 53, 65
1, 50186, Control_c, 0, 64, 63
1, 50201, Control_c, 0, 64, 60
1, 50216, Control_c, 0, 64, 55
1, 50231, Control_c, 0, 64, 51
1, 50245, Control_c, 0, 64, 47
1, 50260, Control_c, 0, 64, 44
1, 50275, Control_c, 0, 64, 41
1, 50290, Control_c, 0, 64, 38
1, 50305, Control_c, 0, 64, 35
1, 50320, Control_c, 0, 64, 32
1, 50334, Control_c, 0, 64, 29
1, 50349, Control_c, 0, 64, 27
1, 50355, Note_on_c, 0, 47, 74
1, 50364, Control_c, 0, 64, 24
1, 50379, Control_c, 0, 64, 22
1, 50394, Control_c, 0, 64, 19
1, 50408, Control_c, 0, 64, 17
1, 50423, Control_c, 0, 64, 14
1, 50437, Note_off_c, 0, 44, 54
1, 50438, Control_c, 0, 64, 9
1, 50453, Control_c, 0, 64, 0
1, 50480, Note_off_c, 0, 60, 48
1, 50537, Note_off_c, 0, 53, 33
1, 50550, Note_off_c, 0, 52, 30
1, 50721, Note_on_c, 0, 45, 64
1, 50866, Note_off_c, 0, 47, 55
1, 50876, Note_on_c, 0, 49, 51
1, 50880, Note_on_c, 0, 54, 60
1, 50883, Note_on_c, 0, 51, 59
1, 51073, Note_on_c, 0, 44, 62
1, 51088, Note_off_c, 0, 49, 36
1, 51100, Note_off_c, 0, 51, 44
1, 51169, Note_off_c, 0, 54, 32
1, 51175, Note_off_c, 0, 45, 56
1, 51473, Note_on_c, 0, 55, 62
1, 51478, Note_on_c, 0, 45, 41
1, 51483, Note_on_c, 0, 43, 43
1, 51485, Note_on_c, 0, 53, 56
1, 51603, Note_off_c, 0, 44, 52
1, 52252, Note_on_c, 0, 47, 52
1, 52260, Note_on_c, 0, 35, 40
1, 52400, Note_off_c, 0, 43, 41
1, 52405, Note_off_c, 0, 45, 42
1, 52425, Note_off_c, 0, 53, 45
1, 52437, Note_off_c, 0, 55, 56
1, 52979, Note_on_c, 0, 45, 40
1, 52983, Note_on_c, 0, 53, 51
1, 53149, Note_off_c, 0, 47, 29
1, 53175, Note_off_c, 0, 35, 41
1, 53809, Note_on_c, 0, 35, 34
1, 53809, Note_on_c, 0, 43, 34
1, 54033, Note_off_c, 0, 45, 37
1, 54094, Note_off_c, 0, 53, 32
1, 55591, Control_c, 0, 64, 12
1, 55606, Control_c, 0, 64, 16
1, 55621, Control_c, 0, 64, 20
1, 55636, Control_c, 0, 64, 23
1, 55651, Control_c, 0, 64, 26
1, 55665, Control_c, 0, 64, 29
1, 55680, Control_c, 0, 64, 31
1, 55695, Control_c, 0, 64, 33
1, 55710, Control_c, 0, 64, 34
1, 55725, Control_c, 0, 64, 35
1, 55739, Control_c, 0, 64, 37
1, 55754, Note_off_c, 0, 43, 30
1, 55754, Control_c, 0, 64, 38
1, 55769, Control_c, 0, 64, 39
1, 55783, Control_c, 0, 64, 40
1, 55798, Control_c, 0, 64, 41
1, 55813, Control_c, 0, 64, 41
1, 55828, Control_c, 0, 64, 42
1, 55843, Control_c, 0, 64, 43
1, 55858, Control_c, 0, 64, 44
1, 55872, Control_c, 0, 64, 45
1, 55887, Control_c, 0, 64, 46
1, 55902, Control_c, 0, 64, 47
1, 55917, Control_c, 0, 64, 48
1, 55932, Control_c, 0, 64, 50
1, 55946, Control_c, 0, 64, 51
1, 55961, Control_c, 0, 64, 52
1, 55976, Control_c, 0, 64, 54
1, 55998, Control_c, 0, 64, 56
1, 56013, Control_c, 0, 64, 59
1, 56027, Control_c, 0, 64, 61
1, 56042, Control_c, 0, 64, 63
1, 56057, Control_c, 0, 64, 64
1, 56072, Control_c, 0, 64, 66
1, 56087, Control_c, 0, 64, 69
1, 56102, Control_c, 0, 64, 73
1, 56117, Control_c, 0, 64, 79
1, 56132, Control_c, 0, 64, 87
1, 56147, Control_c, 0, 64, 97
1, 56162, Control_c, 0, 64, 116
1, 56177, Control_c, 0, 64, 127
1, 56194, Note_off_c, 0, 35, 39
1, 57150, Note_on_c, 0, 72, 42
1, 57154, Note_on_c, 0, 60, 31
1, 57475, Note_on_c, 0, 74, 55
1, 57494, Note_on_c, 0, 62, 41
1, 57628, Note_off_c, 0, 72, 31
1, 57830, Note_on_c, 0, 77, 55
1, 57848, Note_on_c, 0, 65, 30
1, 57990, Note_off_c, 0, 74, 49
1, 57996, Note_off_c, 0, 60, 12
1, 58017, Note_off_c, 0, 62, 39
1, 58695, Note_on_c, 0, 81, 56
1, 58698, Note_on_c, 0, 69, 34
1, 59002, Note_on_c, 0, 84, 67
1, 59014, Note_on_c, 0, 72, 38
1, 59062, Note_off_c, 0, 69, 38
1, 59098, Note_off_c, 0, 81, 55
1, 59315, Note_on_c, 0, 67, 40
1, 59316, Note_on_c, 0, 79, 64
1, 59333, Note_off_c, 0, 65, 26
1, 59341, Note_off_c, 0, 72, 38
1, 59413, Note_off_c, 0, 77, 40
1, 59567, Note_off_c, 0, 84, 34
1, 59607, Note_off_c, 0, 67, 50
1, 59637, Note_on_c, 0, 76, 57
1, 59640, Note_on_c, 0, 64, 38
1, 59724, Note_off_c, 0, 64, 58
1, 59742, Note_off_c, 0, 79, 57
1, 59932, Note_off_c, 0, 76, 57
1, 59933, Note_on_c, 0, 69, 51
1, 59938, Note_on_c, 0, 57, 41
1, 60117, Note_on_c, 0, 71, 51
1, 60118, Note_on_c, 0, 59, 30
1, 60148, Note_off_c, 0, 57, 27
1, 60179, Note_on_c, 0, 60, 42
1, 60179, Note_on_c, 0, 72, 52
1, 60217, Note_off_c, 0, 69, 27
1, 60238, Note_off_c, 0, 71, 38
1, 60271, Note_off_c, 0, 59, 31
1, 60273, Note_on_c, 0, 76, 54
1, 60275, Note_on_c, 0, 64, 35
1, 60300, Note_off_c, 0, 72, 52
1, 60386, Note_off_c, 0, 60, 24
1, 61216, Note_on_c, 0, 74, 48
1, 61246, Note_on_c, 0, 62, 27
1, 61604, Note_off_c, 0, 64, 24
1, 61617, Note_on_c, 0, 79, 46
1, 61635, Note_on_c, 0, 55, 28
1, 61789, Note_off_c, 0, 62, 41
1, 61897, Note_off_c, 0, 55, 42
1, 62480, Note_on_c, 0, 65, 52
1, 62500, Note_on_c, 0, 35, 22
1, 62505, Note_off_c, 0, 74, 38
1, 62508, Note_off_c, 0, 76, 45
1, 62509, Note_on_c, 0, 47, 12
1, 62568, Control_c, 0, 64, 106
1, 62582, Control_c, 0, 64, 94
1, 62597, Control_c, 0, 64, 85
1, 62611, Control_c, 0, 64, 80
1, 62626, Control_c, 0, 64, 75
1, 62641, Control_c, 0, 64, 69
1, 62655, Control_c, 0, 64, 64
1, 62670, Control_c, 0, 64, 60
1, 62685, Control_c, 0, 64, 56
1, 62700, Control_c, 0, 64, 55
1, 62737, Control_c, 0, 64, 56
1, 62752, Control_c, 0, 64, 58
1, 62767, Control_c, 0, 64, 60
1, 62782, Control_c, 0, 64, 63
1, 62797, Control_c, 0, 64, 65
1, 62811, Control_c, 0, 64, 68
1, 62826, Note_on_c, 0, 77, 48
1, 62826, Control_c, 0, 64, 72
1, 62841, Control_c, 0, 64, 79
1, 62855, Control_c, 0, 64, 93
1, 62870, Control_c, 0, 64, 127
1, 62902, Note_off_c, 0, 79, 36
1, 62925, Note_on_c, 0, 76, 58
1, 62945, Note_off_c, 0, 77, 55
1, 62996, Note_on_c, 0, 74, 64
1, 63007, Note_off_c, 0, 76, 62
1, 63077, Control_c, 0, 64, 105
1, 63090, Note_on_c, 0, 76, 66
1, 63092, Control_c, 0, 64, 90
1, 63097, Note_off_c, 0, 74, 59
1, 63107, Control_c, 0, 64, 79
1, 63122, Control_c, 0, 64, 70
1, 63137, Control_c, 0, 64, 64
1, 63152, Control_c, 0, 64, 59
1, 63167, Control_c, 0, 64, 58
1, 63182, Control_c, 0, 64, 59
1, 63197, Control_c, 0, 64, 62
1, 63211, Control_c, 0, 64, 65
1, 63226, Control_c, 0, 64, 68
1, 63241, Control_c, 0, 64, 75
1, 63255, Control_c, 0, 64, 87
1, 63262, Note_off_c, 0, 65, 59
1, 63270, Control_c, 0, 64, 122
1, 63285, Control_c, 0, 64, 127
1, 63348, Note_off_c, 0, 47, 41
1, 63383, Note_on_c, 0, 72, 63
1, 63392, Note_on_c, 0, 64, 63
1, 63437, Note_off_c, 0, 35, 39
1, 63485, Note_off_c, 0, 76, 56
1, 63547, Note_off_c, 0, 64, 61
1, 63721, Note_on_c, 0, 62, 60
1, 63721, Note_on_c, 0, 31, 38
1, 63722, Note_on_c, 0, 76, 66
1, 63733, Note_on_c, 0, 43, 34
1, 63782, Control_c, 0, 64, 107
1, 63797, Control_c, 0, 64, 91
1, 63812, Control_c, 0, 64, 78
1, 63818, Note_off_c, 0, 72, 55
1, 63826, Control_c, 0, 64, 70
1, 63841, Control_c, 0, 64, 63
1, 63856, Control_c, 0, 64, 53
1, 63871, Control_c, 0, 64, 43
1, 63885, Control_c, 0, 64, 38
1, 63930, Control_c, 0, 64, 41
1, 63945, Control_c, 0, 64, 49
1, 63960, Control_c, 0, 64, 57
1, 63975, Control_c, 0, 64, 61
1, 63989, Control_c, 0, 64, 64
1, 64004, Control_c, 0, 64, 68
1, 64019, Control_c, 0, 64, 74
1, 64033, Note_on_c, 0, 71, 59
1, 64034, Control_c, 0, 64, 86
1, 64034, Note_off_c, 0, 43, 41
1, 64049, Control_c, 0, 64, 115
1, 64064, Control_c, 0, 64, 127
1, 64089, Note_off_c, 0, 31, 40
1, 64095, Note_off_c, 0, 76, 48
1, 64104, Note_off_c, 0, 62, 58
1, 64380, Note_on_c, 0, 76, 60
1, 64384, Note_on_c, 0, 60, 51
1, 64386, Note_on_c, 0, 28, 32
1, 64392, Note_on_c, 0, 40, 25
1, 64398, Control_c, 0, 64, 108
1, 64413, Control_c, 0, 64, 95
1, 64428, Control_c, 0, 64, 86
1, 64443, Control_c, 0, 64, 78
1, 64457, Control_c, 0, 64, 70
1, 64463, Note_off_c, 0, 71, 48
1, 64472, Control_c, 0, 64, 63
1, 64487, Control_c, 0, 64, 54
1, 64501, Control_c, 0, 64, 44
1, 64516, Control_c, 0, 64, 41
1, 64546, Control_c, 0, 64, 42
1, 64561, Control_c, 0, 64, 46
1, 64575, Control_c, 0, 64, 52
1, 64590, Control_c, 0, 64, 57
1, 64605, Control_c, 0, 64, 61
1, 64620, Control_c, 0, 64, 63
1, 64635, Control_c, 0, 64, 66
1, 64649, Control_c, 0, 64, 71
1, 64651, Note_off_c, 0, 28, 45
1, 64664, Control_c, 0, 64, 79
1, 64679, Control_c, 0, 64, 90
1, 64687, Note_off_c, 0, 76, 59
1, 64694, Control_c, 0, 64, 108
1, 64702, Note_on_c, 0, 67, 50
1, 64708, Control_c, 0, 64, 127
1, 64871, Note_off_c, 0, 40, 39
1, 64873, Note_off_c, 0, 67, 58
1, 64885, Note_off_c, 0, 60, 34
1, 65029, Control_c, 0, 64, 114
1, 65044, Control_c, 0, 64, 106
1, 65045, Note_on_c, 0, 38, 41
1, 65048, Note_on_c, 0, 66, 61
1, 65055, Note_on_c, 0, 59, 48
1, 65059, Control_c, 0, 64, 104
1, 65073, Control_c, 0, 64, 102
1, 65088, Control_c, 0, 64, 98
1, 65103, Control_c, 0, 64, 93
1, 65118, Control_c, 0, 64, 89
1, 65132, Control_c, 0, 64, 87
1, 65147, Control_c, 0, 64, 86
1, 65162, Control_c, 0, 64, 84
1, 65177, Control_c, 0, 64, 82
1, 65192, Control_c, 0, 64, 79
1, 65206, Control_c, 0, 64, 77
1, 65221, Control_c, 0, 64, 76
1, 65236, Control_c, 0, 64, 75
1, 65250, Control_c, 0, 64, 73
1, 65265, Control_c, 0, 64, 70
1, 65280, Control_c, 0, 64, 68
1, 65295, Control_c, 0, 64, 67
1, 65310, Control_c, 0, 64, 66
1, 65325, Control_c, 0, 64, 66
1, 65340, Control_c, 0, 64, 65
1, 65355, Control_c, 0, 64, 64
1, 65358, Note_on_c, 0, 37, 53
1, 65360, Note_on_c, 0, 65, 76
1, 65370, Control_c, 0, 64, 63
1, 65385, Control_c, 0, 64, 63
1, 65399, Control_c, 0, 64, 62
1, 65414, Control_c, 0, 64, 61
1, 65429, Control_c, 0, 64, 59
1, 65444, Control_c, 0, 64, 56
1, 65458, Control_c, 0, 64, 54
1, 65468, Note_off_c, 0, 66, 60
1, 65473, Control_c, 0, 64, 51
1, 65488, Control_c, 0, 64, 48
1, 65503, Control_c, 0, 64, 45
1, 65518, Control_c, 0, 64, 41
1, 65532, Control_c, 0, 64, 35
1, 65536, Note_off_c, 0, 38, 40
1, 65547, Control_c, 0, 64, 29
1, 65562, Control_c, 0, 64, 22
1, 65577, Control_c, 0, 64, 9
1, 65592, Control_c, 0, 64, 0
1, 65662, Note_on_c, 0, 44, 53
1, 65670, Note_on_c, 0, 68, 76
1, 65787, Note_off_c, 0, 37, 61
1, 65861, Note_off_c, 0, 65, 56
1, 65867, Control_c, 0, 64, 44
1, 65881, Control_c, 0, 64, 59
1, 65896, Control_c, 0, 64, 65
1, 65911, Control_c, 0, 64, 75
1, 65926, Control_c, 0, 64, 101
1, 65927, Note_off_c, 0, 44, 59
1, 65941, Control_c, 0, 64, 127
1, 65972, Note_on_c, 0, 71, 76
1, 66008, Note_off_c, 0, 59, 56
1, 66092, Note_off_c, 0, 68, 57
1, 66115, Note_on_c, 0, 62, 65
1, 66130, Note_off_c, 0, 71, 62
1, 66222, Control_c, 0, 64, 119
1, 66237, Control_c, 0, 64, 112
1, 66252, Control_c, 0, 64, 109
1, 66267, Control_c, 0, 64, 108
1, 66281, Control_c, 0, 64, 105
1, 66296, Control_c, 0, 64, 102
1, 66311, Note_on_c, 0, 56, 46
1, 66311, Control_c, 0, 64, 99
1, 66325, Control_c, 0, 64, 96
1, 66340, Control_c, 0, 64, 94
1, 66354, Control_c, 0, 64, 91
1, 66369, Control_c, 0, 64, 88
1, 66374, Note_on_c, 0, 78, 68
1, 66384, Control_c, 0, 64, 86
1, 66399, Control_c, 0, 64, 84
1, 66414, Control_c, 0, 64, 81
1, 66428, Control_c, 0, 64, 78
1, 66443, Control_c, 0, 64, 75
1, 66458, Control_c, 0, 64, 72
1, 66480, Control_c, 0, 64, 69
1, 66495, Control_c, 0, 64, 66
1, 66510, Control_c, 0, 64, 63
1, 66526, Control_c, 0, 64, 61
1, 66541, Control_c, 0, 64, 60
1, 66556, Control_c, 0, 64, 59
1, 66571, Control_c, 0, 64, 58
1, 66585, Control_c, 0, 64, 57
1, 66600, Control_c, 0, 64, 55
1, 66615, Control_c, 0, 64, 54
1, 66630, Control_c, 0, 64, 54
1, 66645, Control_c, 0, 64, 53
1, 66659, Control_c, 0, 64, 53
1, 66689, Control_c, 0, 64, 52
1, 66718, Control_c, 0, 64, 52
1, 66733, Control_c, 0, 64, 51
1, 66741, Note_on_c, 0, 77, 60
1, 66748, Control_c, 0, 64, 51
1, 66777, Note_off_c, 0, 78, 61
1, 66807, Control_c, 0, 64, 50
1, 66837, Control_c, 0, 64, 50
1, 66864, Note_on_c, 0, 76, 58
1, 66978, Note_on_c, 0, 75, 54
1, 67000, Control_c, 0, 64, 49
1, 67009, Note_off_c, 0, 76, 57
1, 67205, Note_on_c, 0, 76, 50
1, 67229, Control_c, 0, 64, 49
1, 67288, Note_off_c, 0, 75, 32
1, 67289, Note_off_c, 0, 77, 32
1, 67379, Control_c, 0, 64, 48
1, 67482, Control_c, 0, 64, 48
1, 67645, Control_c, 0, 64, 47
1, 67993, Note_on_c, 0, 59, 63
1, 68213, Note_off_c, 0, 62, 56
1, 68317, Note_on_c, 0, 61, 68
1, 68423, Control_c, 0, 64, 47
1, 68537, Note_off_c, 0, 59, 53
1, 68705, Control_c, 0, 64, 46
1, 68727, Note_on_c, 0, 64, 60
1, 68875, Control_c, 0, 64, 46
1, 68904, Note_off_c, 0, 61, 52
1, 69025, Control_c, 0, 64, 45
1, 69233, Control_c, 0, 64, 45
1, 69351, Control_c, 0, 64, 44
1, 69354, Note_on_c, 0, 74, 60
1, 69506, Control_c, 0, 64, 44
1, 69595, Control_c, 0, 64, 43
1, 69681, Note_on_c, 0, 67, 65
1, 69713, Control_c, 0, 64, 43
1, 69759, Control_c, 0, 64, 42
1, 69837, Note_off_c, 0, 64, 34
1, 69848, Control_c, 0, 64, 42
1, 69907, Control_c, 0, 64, 41
1, 70026, Note_on_c, 0, 71, 60
1, 70055, Note_off_c, 0, 76, 33
1, 70195, Note_off_c, 0, 67, 54
1, 70226, Control_c, 0, 64, 41
1, 70336, Note_on_c, 0, 66, 61
1, 70344, Control_c, 0, 64, 40
1, 70667, Note_on_c, 0, 73, 56
1, 70667, Note_on_c, 0, 62, 51
1, 70792, Note_off_c, 0, 71, 39
1, 70830, Note_off_c, 0, 74, 56
1, 70837, Note_off_c, 0, 56, 57
1, 70896, Note_off_c, 0, 66, 34
1, 70993, Note_on_c, 0, 56, 54
1, 71094, Note_off_c, 0, 62, 56
1, 71181, Note_on_c, 0, 57, 43
1, 71234, Note_on_c, 0, 59, 49
1, 71272, Note_off_c, 0, 57, 51
1, 71305, Note_on_c, 0, 61, 47
1, 71314, Note_off_c, 0, 59, 54
1, 71385, Note_on_c, 0, 64, 45
1, 71436, Note_off_c, 0, 61, 37
1, 71781, Control_c, 0, 64, 41
1, 71796, Control_c, 0, 64, 41
1, 71811, Control_c, 0, 64, 42
1, 71826, Control_c, 0, 64, 43
1, 71841, Control_c, 0, 64, 44
1, 71855, Control_c, 0, 64, 45
1, 71870, Control_c, 0, 64, 47
1, 71885, Control_c, 0, 64, 48
1, 71899, Control_c, 0, 64, 50
1, 71914, Control_c, 0, 64, 52
1, 71929, Control_c, 0, 64, 53
1, 71944, Control_c, 0, 64, 55
1, 71959, Control_c, 0, 64, 57
1, 71973, Control_c, 0, 64, 58
1, 71988, Control_c, 0, 64, 59
1, 72003, Control_c, 0, 64, 61
1, 72018, Control_c, 0, 64, 62
1, 72033, Control_c, 0, 64, 63
1, 72047, Control_c, 0, 64, 65
1, 72062, Control_c, 0, 64, 67
1, 72077, Control_c, 0, 64, 69
1, 72092, Control_c, 0, 64, 73
1, 72106, Control_c, 0, 64, 77
1, 72123, Control_c, 0, 64, 82
1, 72137, Control_c, 0, 64, 88
1, 72152, Control_c, 0, 64, 95
1, 72167, Control_c, 0, 64, 102
1, 72182, Control_c, 0, 64, 116
1, 72196, Control_c, 0, 64, 127
1, 72530, Note_on_c, 0, 70, 42
1, 72560, Note_on_c, 0, 63, 18
1, 72619, Control_c, 0, 64, 119
1, 72634, Control_c, 0, 64, 102
1, 72649, Control_c, 0, 64, 89
1, 72664, Control_c, 0, 64, 80
1, 72679, Control_c, 0, 64, 72
1, 72694, Control_c, 0, 64, 65
1, 72706, Note_off_c, 0, 64, 42
1, 72709, Control_c, 0, 64, 60
1, 72723, Control_c, 0, 64, 54
1, 72737, Note_off_c, 0, 73, 50
1, 72753, Control_c, 0, 64, 56
1, 72768, Control_c, 0, 64, 58
1, 72783, Control_c, 0, 64, 59
1, 72797, Control_c, 0, 64, 61
1, 72812, Control_c, 0, 64, 63
1, 72827, Control_c, 0, 64, 65
1, 72842, Control_c, 0, 64, 68
1, 72857, Control_c, 0, 64, 71
1, 72871, Control_c, 0, 64, 76
1, 72886, Control_c, 0, 64, 82
1, 72901, Control_c, 0, 64, 91
1, 72917, Control_c, 0, 64, 106
1, 72932, Control_c, 0, 64, 127
1, 73105, Note_on_c, 0, 71, 41
1, 73109, Note_on_c, 0, 62, 19
1, 73234, Control_c, 0, 64, 122
1, 73249, Control_c, 0, 64, 107
1, 73262, Note_off_c, 0, 63, 31
1, 73264, Control_c, 0, 64, 98
1, 73279, Control_c, 0, 64, 90
1, 73293, Control_c, 0, 64, 83
1, 73308, Control_c, 0, 64, 77
1, 73323, Control_c, 0, 64, 72
1, 73338, Control_c, 0, 64, 66
1, 73352, Control_c, 0, 64, 60
1, 73354, Note_off_c, 0, 70, 36
1, 73367, Control_c, 0, 64, 52
1, 73382, Control_c, 0, 64, 47
1, 73397, Control_c, 0, 64, 46
1, 73457, Control_c, 0, 64, 47
1, 73472, Control_c, 0, 64, 50
1, 73486, Control_c, 0, 64, 53
1, 73501, Control_c, 0, 64, 57
1, 73516, Control_c, 0, 64, 59
1, 73531, Control_c, 0, 64, 61
1, 73545, Control_c, 0, 64, 63
1, 73560, Control_c, 0, 64, 65
1, 73575, Control_c, 0, 64, 68
1, 73590, Control_c, 0, 64, 72
1, 73605, Control_c, 0, 64, 78
1, 73619, Control_c, 0, 64, 86
1, 73634, Control_c, 0, 64, 99
1, 73649, Control_c, 0, 64, 127
1, 73742, Note_off_c, 0, 62, 38
1, 73774, Note_off_c, 0, 56, 40
1, 73841, Note_off_c, 0, 71, 38
1, 74960, Note_on_c, 0, 35, 20
1, 74994, Note_on_c, 0, 72, 39
1, 75001, Note_on_c, 0, 59, 25
1, 75007, Note_on_c, 0, 57, 25
1, 75028, Control_c, 0, 64, 116
1, 75043, Control_c, 0, 64, 92
1, 75058, Control_c, 0, 64, 79
1, 75072, Control_c, 0, 64, 68
1, 75087, Control_c, 0, 64, 62
1, 75102, Control_c, 0, 64, 60
1, 75117, Control_c, 0, 64, 64
1, 75132, Control_c, 0, 64, 67
1, 75147, Control_c, 0, 64, 74
1, 75162, Control_c, 0, 64, 89
1, 75167, Note_off_c, 0, 57, 38
1, 75177, Control_c, 0, 64, 127
1, 75201, Note_off_c, 0, 59, 40
1, 75273, Note_off_c, 0, 72, 56
1, 75307, Note_on_c, 0, 74, 50
1, 75315, Note_off_c, 0, 35, 38
1, 75331, Note_on_c, 0, 47, 26
1, 75555, Note_off_c, 0, 47, 32
1, 75611, Note_on_c, 0, 77, 54
1, 75633, Note_on_c, 0, 50, 13
1, 75700, Note_off_c, 0, 74, 53
1, 75916, Note_on_c, 0, 53, 46
1, 75921, Note_off_c, 0, 50, 38
1, 76164, Note_off_c, 0, 53, 38
1, 76239, Note_on_c, 0, 57, 40
1, 76426, Note_off_c, 0, 57, 33
1, 76523, Note_on_c, 0, 81, 60
1, 76527, Note_on_c, 0, 60, 37
1, 76836, Note_on_c, 0, 84, 62
1, 76846, Note_on_c, 0, 64, 34
1, 77151, Note_on_c, 0, 79, 64
1, 77159, Note_on_c, 0, 67, 40
1, 77263, Note_off_c, 0, 77, 54
1, 77346, Note_off_c, 0, 84, 28
1, 77450, Note_on_c, 0, 76, 60
1, 77454, Note_on_c, 0, 71, 42
1, 77529, Note_off_c, 0, 81, 30
1, 77547, Note_off_c, 0, 67, 41
1, 77573, Note_off_c, 0, 79, 54
1, 77647, Note_off_c, 0, 71, 58
1, 77762, Note_on_c, 0, 67, 41
1, 77762, Note_on_c, 0, 69, 59
1, 77778, Note_off_c, 0, 76, 58
1, 77805, Note_off_c, 0, 64, 36
1, 77863, Note_off_c, 0, 60, 33
1, 77929, Note_on_c, 0, 71, 57
1, 77998, Note_on_c, 0, 72, 55
1, 78044, Note_off_c, 0, 71, 53
1, 78073, Note_on_c, 0, 76, 55
1, 78085, Note_on_c, 0, 64, 38
1, 78127, Note_off_c, 0, 69, 30
1, 78196, Note_off_c, 0, 67, 38
1, 78237, Note_off_c, 0, 72, 29
1, 78370, Note_off_c, 0, 64, 36
1, 78381, Note_on_c, 0, 60, 43
1, 78486, Note_off_c, 0, 60, 54
1, 78759, Note_on_c, 0, 57, 35
1, 79032, Note_on_c, 0, 74, 56
1, 79043, Note_on_c, 0, 53, 44
1, 79121, Note_off_c, 0, 57, 41
1, 79375, Note_on_c, 0, 79, 54
1, 79387, Note_off_c, 0, 53, 42
1, 79395, Note_on_c, 0, 50, 29
1, 79494, Note_off_c, 0, 74, 35
1, 79540, Note_off_c, 0, 50, 34
1, 79675, Note_off_c, 0, 76, 31
1, 79690, Note_on_c, 0, 47, 35
1, 80060, Note_on_c, 0, 65, 57
1, 80062, Note_on_c, 0, 35, 29
1, 80077, Control_c, 0, 64, 106
1, 80092, Control_c, 0, 64, 94
1, 80108, Control_c, 0, 64, 83
1, 80123, Control_c, 0, 64, 75
1, 80138, Control_c, 0, 64, 68
1, 80152, Control_c, 0, 64, 62
1, 80167, Control_c, 0, 64, 56
1, 80182, Control_c, 0, 64, 53
1, 80197, Control_c, 0, 64, 52
1, 80212, Control_c, 0, 64, 53
1, 80226, Control_c, 0, 64, 53
1, 80241, Control_c, 0, 64, 55
1, 80256, Control_c, 0, 64, 57
1, 80271, Control_c, 0, 64, 59
1, 80286, Control_c, 0, 64, 62
1, 80301, Control_c, 0, 64, 64
1, 80316, Control_c, 0, 64, 66
1, 80331, Control_c, 0, 64, 69
1, 80346, Control_c, 0, 64, 72
1, 80360, Control_c, 0, 64, 77
1, 80375, Control_c, 0, 64, 84
1, 80389, Note_on_c, 0, 77, 45
1, 80390, Control_c, 0, 64, 93
1, 80404, Control_c, 0, 64, 103
1, 80419, Control_c, 0, 64, 115
1, 80433, Note_off_c, 0, 79, 31
1, 80434, Control_c, 0, 64, 119
1, 80486, Note_on_c, 0, 76, 53
1, 80489, Note_off_c, 0, 77, 56
1, 80523, Control_c, 0, 64, 116
1, 80538, Control_c, 0, 64, 115
1, 80549, Note_off_c, 0, 76, 59
1, 80552, Control_c, 0, 64, 112
1, 80556, Note_on_c, 0, 74, 55
1, 80567, Control_c, 0, 64, 105
1, 80582, Control_c, 0, 64, 98
1, 80596, Control_c, 0, 64, 88
1, 80611, Control_c, 0, 64, 78
1, 80623, Note_off_c, 0, 74, 60
1, 80626, Control_c, 0, 64, 71
1, 80639, Note_on_c, 0, 76, 56
1, 80641, Control_c, 0, 64, 65
1, 80656, Control_c, 0, 64, 58
1, 80671, Control_c, 0, 64, 54
1, 80686, Control_c, 0, 64, 53
1, 80708, Control_c, 0, 64, 55
1, 80723, Control_c, 0, 64, 57
1, 80738, Control_c, 0, 64, 59
1, 80752, Control_c, 0, 64, 62
1, 80767, Control_c, 0, 64, 63
1, 80782, Control_c, 0, 64, 66
1, 80797, Control_c, 0, 64, 69
1, 80811, Control_c, 0, 64, 74
1, 80826, Control_c, 0, 64, 81
1, 80837, Note_off_c, 0, 65, 54
1, 80841, Control_c, 0, 64, 93
1, 80856, Control_c, 0, 64, 122
1, 80871, Control_c, 0, 64, 127
1, 80881, Note_on_c, 0, 72, 54
1, 80903, Note_off_c, 0, 47, 45
1, 80939, Note_off_c, 0, 76, 53
1, 80941, Note_on_c, 0, 64, 67
1, 80949, Note_off_c, 0, 35, 40
1, 80981, Note_off_c, 0, 64, 60
1, 81162, Note_on_c, 0, 63, 56
1, 81222, Note_on_c, 0, 76, 69
1, 81222, Note_off_c, 0, 72, 64
1, 81227, Control_c, 0, 64, 94
1, 81232, Note_on_c, 0, 43, 41
1, 81233, Note_on_c, 0, 31, 40
1, 81242, Control_c, 0, 64, 79
1, 81257, Control_c, 0, 64, 70
1, 81272, Control_c, 0, 64, 63
1, 81287, Control_c, 0, 64, 55
1, 81300, Control_c, 0, 64, 48
1, 81315, Control_c, 0, 64, 47
1, 81330, Control_c, 0, 64, 48
1, 81344, Control_c, 0, 64, 52
1, 81359, Control_c, 0, 64, 56
1, 81374, Control_c, 0, 64, 60
1, 81389, Control_c, 0, 64, 63
1, 81404, Control_c, 0, 64, 66
1, 81419, Control_c, 0, 64, 71
1, 81428, Note_off_c, 0, 63, 62
1, 81434, Control_c, 0, 64, 81
1, 81455, Note_on_c, 0, 71, 75
1, 81456, Control_c, 0, 64, 105
1, 81471, Control_c, 0, 64, 127
1, 81480, Note_off_c, 0, 76, 57
1, 81496, Note_off_c, 0, 43, 49
1, 81510, Note_on_c, 0, 62, 82
1, 81571, Note_off_c, 0, 31, 40
1, 81604, Note_off_c, 0, 62, 63
1, 81701, Note_on_c, 0, 61, 79
1, 81786, Note_on_c, 0, 40, 56
1, 81788, Note_on_c, 0, 28, 60
1, 81789, Note_on_c, 0, 76, 75
1, 81812, Control_c, 0, 64, 92
1, 81821, Note_off_c, 0, 71, 64
1, 81827, Control_c, 0, 64, 75
1, 81842, Control_c, 0, 64, 64
1, 81857, Control_c, 0, 64, 51
1, 81872, Control_c, 0, 64, 36
1, 81887, Control_c, 0, 64, 35
1, 81902, Control_c, 0, 64, 36
1, 81917, Control_c, 0, 64, 43
1, 81931, Control_c, 0, 64, 54
1, 81946, Control_c, 0, 64, 61
1, 81952, Poly_aftertouch_c, 0, 74, 127
1, 81958, Note_off_c, 0, 61, 59
1, 81961, Control_c, 0, 64, 66
1, 81969, Note_on_c, 0, 67, 66
1, 81975, Control_c, 0, 64, 72
1, 81979, Note_off_c, 0, 28, 61
1, 81990, Control_c, 0, 64, 85
1, 82005, Control_c, 0, 64, 127
1, 82027, Note_off_c, 0, 76, 57
1, 82045, Poly_aftertouch_c, 0, 74, 0
1, 82063, Note_on_c, 0, 60, 77
1, 82094, Note_off_c, 0, 40, 62
1, 82152, Note_off_c, 0, 60, 61
1, 82244, Note_off_c, 0, 67, 52
1, 82272, Note_on_c, 0, 59, 65
1, 82367, Control_c, 0, 64, 120
1, 82382, Control_c, 0, 64, 109
1, 82397, Note_on_c, 0, 38, 58
1, 82397, Control_c, 0, 64, 102
1, 82411, Control_c, 0, 64, 97
1, 82426, Control_c, 0, 64, 90
1, 82441, Control_c, 0, 64, 86
1, 82451, Note_on_c, 0, 66, 58
1, 82456, Control_c, 0, 64, 84
1, 82471, Control_c, 0, 64, 82
1, 82486, Control_c, 0, 64, 80
1, 82501, Control_c, 0, 64, 76
1, 82516, Control_c, 0, 64, 73
1, 82531, Control_c, 0, 64, 70
1, 82539, Note_on_c, 0, 67, 73
1, 82546, Control_c, 0, 64, 67
1, 82552, Note_off_c, 0, 66, 59
1, 82561, Control_c, 0, 64, 64
1, 82575, Control_c, 0, 64, 61
1, 82590, Control_c, 0, 64, 57
1, 82605, Control_c, 0, 64, 54
1, 82620, Control_c, 0, 64, 52
1, 82628, Note_on_c, 0, 64, 78
1, 82635, Control_c, 0, 64, 50
1, 82650, Control_c, 0, 64, 47
1, 82665, Control_c, 0, 64, 43
1, 82675, Note_off_c, 0, 67, 61
1, 82679, Control_c, 0, 64, 39
1, 82694, Control_c, 0, 64, 35
1, 82709, Control_c, 0, 64, 31
1, 82724, Control_c, 0, 64, 29
1, 82727, Note_on_c, 0, 37, 59
1, 82730, Note_on_c, 0, 65, 78
1, 82739, Control_c, 0, 64, 23
1, 82753, Control_c, 0, 64, 0
1, 82756, Note_off_c, 0, 38, 61
1, 82821, Note_off_c, 0, 64, 55
1, 82916, Control_c, 0, 64, 30
1, 82931, Control_c, 0, 64, 57
1, 82953, Control_c, 0, 64, 64
1, 82968, Control_c, 0, 64, 71
1, 82983, Control_c, 0, 64, 87
1, 82998, Control_c, 0, 64, 127
1, 83002, Note_on_c, 0, 44, 54
1, 83037, Note_on_c, 0, 68, 79
1, 83086, Control_c, 0, 64, 81
1, 83101, Control_c, 0, 64, 67
1, 83107, Note_on_c, 0, 47, 71
1, 83116, Control_c, 0, 64, 57
1, 83131, Control_c, 0, 64, 54
1, 83145, Control_c, 0, 64, 61
1, 83148, Note_off_c, 0, 37, 60
1, 83160, Control_c, 0, 64, 67
1, 83167, Note_off_c, 0, 44, 61
1, 83175, Control_c, 0, 64, 79
1, 83184, Note_off_c, 0, 65, 38
1, 83190, Control_c, 0, 64, 104
1, 83197, Note_on_c, 0, 50, 80
1, 83200, Note_off_c, 0, 47, 63
1, 83204, Control_c, 0, 64, 127
1, 83245, Note_off_c, 0, 59, 49
1, 83309, Control_c, 0, 64, 116
1, 83311, Note_on_c, 0, 71, 84
1, 83311, Note_off_c, 0, 50, 61
1, 83312, Note_on_c, 0, 54, 68
1, 83324, Control_c, 0, 64, 91
1, 83339, Control_c, 0, 64, 78
1, 83351, Note_off_c, 0, 68, 62
1, 83354, Control_c, 0, 64, 68
1, 83368, Control_c, 0, 64, 61
1, 83383, Control_c, 0, 64, 51
1, 83398, Control_c, 0, 64, 36
1, 83413, Control_c, 0, 64, 23
1, 83428, Control_c, 0, 64, 17
1, 83443, Control_c, 0, 64, 16
1, 83473, Control_c, 0, 64, 25
1, 83488, Control_c, 0, 64, 44
1, 83502, Control_c, 0, 64, 56
1, 83517, Control_c, 0, 64, 62
1, 83532, Control_c, 0, 64, 66
1, 83547, Control_c, 0, 64, 72
1, 83551, Note_on_c, 0, 62, 67
1, 83562, Control_c, 0, 64, 81
1, 83576, Control_c, 0, 64, 89
1, 83591, Control_c, 0, 64, 91
1, 83620, Control_c, 0, 64, 91
1, 83635, Control_c, 0, 64, 89
1, 83650, Control_c, 0, 64, 87
1, 83665, Control_c, 0, 64, 86
1, 83680, Control_c, 0, 64, 86
1, 83702, Control_c, 0, 64, 85
1, 83717, Control_c, 0, 64, 84
1, 83730, Note_on_c, 0, 56, 44
1, 83732, Control_c, 0, 64, 81
1, 83747, Control_c, 0, 64, 79
1, 83762, Control_c, 0, 64, 77
1, 83776, Control_c, 0, 64, 74
1, 83791, Control_c, 0, 64, 71
1, 83794, Note_on_c, 0, 78, 64
1, 83806, Control_c, 0, 64, 70
1, 83820, Control_c, 0, 64, 68
1, 83835, Control_c, 0, 64, 67
1, 83850, Control_c, 0, 64, 66
1, 83865, Control_c, 0, 64, 64
1, 83880, Control_c, 0, 64, 63
1, 83899, Note_off_c, 0, 54, 54
1, 83909, Control_c, 0, 64, 62
1, 83923, Note_off_c, 0, 71, 51
1, 83924, Control_c, 0, 64, 62
1, 83939, Control_c, 0, 64, 60
1, 83954, Control_c, 0, 64, 59
1, 83969, Control_c, 0, 64, 58
1, 83983, Control_c, 0, 64, 57
1, 83998, Control_c, 0, 64, 57
1, 84013, Control_c, 0, 64, 55
1, 84027, Control_c, 0, 64, 53
1, 84042, Control_c, 0, 64, 52
1, 84057, Control_c, 0, 64, 51
1, 84072, Control_c, 0, 64, 51
1, 84087, Control_c, 0, 64, 50
1, 84103, Control_c, 0, 64, 49
1, 84117, Control_c, 0, 64, 48
1, 84132, Control_c, 0, 64, 47
1, 84138, Note_on_c, 0, 77, 60
1, 84147, Control_c, 0, 64, 47
1, 84158, Note_off_c, 0, 78, 59
1, 84177, Control_c, 0, 64, 46
1, 84206, Control_c, 0, 64, 46
1, 84236, Control_c, 0, 64, 45
1, 84251, Control_c, 0, 64, 45
1, 84255, Note_on_c, 0, 76, 59
1, 84266, Control_c, 0, 64, 44
1, 84370, Control_c, 0, 64, 44
1, 84378, Note_on_c, 0, 75, 51
1, 84400, Note_off_c, 0, 76, 57
1, 84599, Control_c, 0, 64, 43
1, 84629, Note_off_c, 0, 77, 8
1, 84630, Note_on_c, 0, 76, 46
1, 84693, Note_off_c, 0, 75, 31
1, 84850, Control_c, 0, 64, 44
1, 84865, Control_c, 0, 64, 44
1, 84880, Control_c, 0, 64, 45
1, 84896, Control_c, 0, 64, 47
1, 84911, Control_c, 0, 64, 50
1, 84926, Control_c, 0, 64, 53
1, 84940, Control_c, 0, 64, 56
1, 84955, Control_c, 0, 64, 58
1, 84970, Control_c, 0, 64, 60
1, 84985, Control_c, 0, 64, 61
1, 85000, Control_c, 0, 64, 63
1, 85014, Control_c, 0, 64, 65
1, 85029, Control_c, 0, 64, 68
1, 85044, Control_c, 0, 64, 73
1, 85059, Control_c, 0, 64, 81
1, 85073, Control_c, 0, 64, 90
1, 85088, Control_c, 0, 64, 99
1, 85103, Control_c, 0, 64, 114
1, 85118, Control_c, 0, 64, 127
1, 85206, Note_off_c, 0, 62, 32
1, 85241, Note_off_c, 0, 56, 39
1, 85244, Note_off_c, 0, 76, 33
1, 85830, Note_on_c, 0, 59, 28
1, 85837, Control_c, 0, 64, 116
1, 85852, Control_c, 0, 64, 110
1, 85867, Control_c, 0, 64, 104
1, 85882, Control_c, 0, 64, 101
1, 85896, Control_c, 0, 64, 97
1, 85911, Control_c, 0, 64, 92
1, 85926, Control_c, 0, 64, 86
1, 85949, Control_c, 0, 64, 78
1, 85964, Control_c, 0, 64, 70
1, 85978, Control_c, 0, 64, 64
1, 85993, Control_c, 0, 64, 60
1, 86008, Control_c, 0, 64, 58
1, 86018, Note_on_c, 0, 61, 33
1, 86037, Control_c, 0, 64, 59
1, 86052, Control_c, 0, 64, 60
1, 86067, Control_c, 0, 64, 62
1, 86082, Control_c, 0, 64, 63
1, 86096, Control_c, 0, 64, 65
1, 86111, Control_c, 0, 64, 67
1, 86126, Control_c, 0, 64, 71
1, 86141, Control_c, 0, 64, 76
1, 86156, Control_c, 0, 64, 84
1, 86170, Control_c, 0, 64, 97
1, 86185, Control_c, 0, 64, 127
1, 86187, Note_on_c, 0, 64, 41
1, 86352, Note_on_c, 0, 66, 45
1, 86512, Note_on_c, 0, 69, 48
1, 86674, Note_on_c, 0, 71, 48
1, 86740, Note_off_c, 0, 69, 29
1, 86841, Note_off_c, 0, 59, 32
1, 86846, Note_off_c, 0, 64, 31
1, 86851, Note_on_c, 0, 76, 49
1, 86853, Note_off_c, 0, 71, 37
1, 86930, Note_off_c, 0, 66, 32
1, 86952, Note_off_c, 0, 61, 36
1, 86975, Note_off_c, 0, 76, 57
1, 87001, Note_on_c, 0, 69, 47
1, 87169, Note_on_c, 0, 76, 45
1, 87270, Note_off_c, 0, 69, 29
1, 87293, Note_off_c, 0, 76, 56
1, 87315, Note_on_c, 0, 71, 49
1, 87473, Note_off_c, 0, 71, 57
1, 87485, Note_on_c, 0, 73, 56
1, 87604, Note_off_c, 0, 73, 62
1, 87643, Note_on_c, 0, 76, 59
1, 87806, Note_on_c, 0, 78, 58
1, 87881, Note_off_c, 0, 76, 26
1, 87961, Note_on_c, 0, 81, 57
1, 88090, Note_off_c, 0, 78, 31
1, 88129, Note_on_c, 0, 83, 58
1, 88289, Note_on_c, 0, 88, 62
1, 88462, Note_on_c, 0, 45, 34
1, 88462, Note_on_c, 0, 79, 64
1, 88521, Control_c, 0, 64, 105
1, 88536, Control_c, 0, 64, 88
1, 88551, Control_c, 0, 64, 76
1, 88563, Note_off_c, 0, 81, 35
1, 88565, Control_c, 0, 64, 68
1, 88580, Control_c, 0, 64, 60
1, 88585, Note_off_c, 0, 88, 31
1, 88591, Note_off_c, 0, 83, 37
1, 88595, Control_c, 0, 64, 53
1, 88610, Control_c, 0, 64, 51
1, 88630, Note_on_c, 0, 47, 36
1, 88639, Control_c, 0, 64, 52
1, 88654, Control_c, 0, 64, 55
1, 88669, Control_c, 0, 64, 58
1, 88683, Control_c, 0, 64, 60
1, 88698, Control_c, 0, 64, 62
1, 88713, Control_c, 0, 64, 64
1, 88728, Control_c, 0, 64, 68
1, 88743, Control_c, 0, 64, 76
1, 88758, Control_c, 0, 64, 103
1, 88773, Control_c, 0, 64, 127
1, 88782, Note_on_c, 0, 50, 41
1, 88905, Note_off_c, 0, 47, 34
1, 88934, Note_off_c, 0, 45, 34
1, 88937, Note_on_c, 0, 52, 44
1, 88973, Note_off_c, 0, 50, 40
1, 89069, Note_off_c, 0, 52, 61
1, 89114, Note_on_c, 0, 55, 43
1, 89256, Note_off_c, 0, 55, 56
1, 89270, Note_on_c, 0, 57, 43
1, 89398, Note_off_c, 0, 57, 55
1, 89434, Note_on_c, 0, 62, 52
1, 89572, Note_on_c, 0, 55, 47
1, 89586, Note_off_c, 0, 62, 51
1, 89747, Note_on_c, 0, 71, 74
1, 89765, Note_on_c, 0, 62, 37
1, 89826, Control_c, 0, 64, 100
1, 89841, Control_c, 0, 64, 83
1, 89856, Control_c, 0, 64, 72
1, 89870, Control_c, 0, 64, 63
1, 89885, Control_c, 0, 64, 56
1, 89900, Control_c, 0, 64, 57
1, 89915, Note_on_c, 0, 57, 45
1, 89915, Control_c, 0, 64, 59
1, 89928, Note_off_c, 0, 79, 35
1, 89930, Control_c, 0, 64, 62
1, 89944, Control_c, 0, 64, 64
1, 89959, Control_c, 0, 64, 66
1, 89974, Control_c, 0, 64, 70
1, 89980, Note_off_c, 0, 62, 35
1, 89989, Control_c, 0, 64, 79
1, 90004, Control_c, 0, 64, 100
1, 90019, Control_c, 0, 64, 127
1, 90066, Note_on_c, 0, 59, 49
1, 90233, Note_on_c, 0, 62, 44
1, 90266, Note_off_c, 0, 55, 26
1, 90375, Note_off_c, 0, 62, 56
1, 90388, Note_on_c, 0, 64, 54
1, 90468, Note_off_c, 0, 59, 34
1, 90487, Note_off_c, 0, 57, 40
1, 90545, Note_on_c, 0, 67, 61
1, 90702, Note_on_c, 0, 69, 66
1, 90786, Note_off_c, 0, 64, 48
1, 90850, Note_on_c, 0, 74, 68
1, 90895, Note_off_c, 0, 71, 49
1, 90980, Note_off_c, 0, 69, 38
1, 91013, Note_on_c, 0, 64, 74
1, 91014, Note_off_c, 0, 74, 62
1, 91020, Note_on_c, 0, 47, 41
1, 91026, Note_off_c, 0, 67, 62
1, 91049, Control_c, 0, 64, 105
1, 91064, Control_c, 0, 64, 84
1, 91078, Control_c, 0, 64, 69
1, 91093, Control_c, 0, 64, 58
1, 91108, Control_c, 0, 64, 39
1, 91123, Control_c, 0, 64, 30
1, 91152, Control_c, 0, 64, 33
1, 91167, Control_c, 0, 64, 41
1, 91173, Note_on_c, 0, 49, 31
1, 91175, Note_on_c, 0, 76, 59
1, 91190, Control_c, 0, 64, 52
1, 91205, Control_c, 0, 64, 58
1, 91219, Control_c, 0, 64, 61
1, 91234, Control_c, 0, 64, 64
1, 91249, Control_c, 0, 64, 69
1, 91264, Control_c, 0, 64, 79
1, 91279, Control_c, 0, 64, 117
1, 91295, Control_c, 0, 64, 127
1, 91315, Note_off_c, 0, 64, 49
1, 91324, Note_off_c, 0, 47, 40
1, 91336, Note_on_c, 0, 52, 46
1, 91346, Note_off_c, 0, 49, 36
1, 91402, Note_off_c, 0, 52, 58
1, 91501, Note_on_c, 0, 78, 65
1, 91535, Note_off_c, 0, 76, 59
1, 91657, Note_on_c, 0, 57, 49
1, 91804, Note_on_c, 0, 81, 71
1, 91807, Note_on_c, 0, 59, 47
1, 91809, Note_off_c, 0, 57, 55
1, 91924, Note_off_c, 0, 78, 53
1, 91965, Note_on_c, 0, 64, 55
1, 92119, Note_on_c, 0, 57, 51
1, 92122, Note_off_c, 0, 64, 55
1, 92279, Note_off_c, 0, 59, 41
1, 92284, Note_on_c, 0, 64, 57
1, 92310, Control_c, 0, 64, 106
1, 92325, Control_c, 0, 64, 86
1, 92339, Control_c, 0, 64, 79
1, 92354, Control_c, 0, 64, 80
1, 92369, Control_c, 0, 64, 82
1, 92384, Control_c, 0, 64, 86
1, 92399, Control_c, 0, 64, 94
1, 92413, Control_c, 0, 64, 127
1, 92433, Note_on_c, 0, 59, 64
1, 92499, Note_off_c, 0, 57, 54
1, 92514, Note_off_c, 0, 64, 54
1, 92580, Note_on_c, 0, 61, 67
1, 92609, Note_off_c, 0, 59, 62
1, 92727, Note_off_c, 0, 61, 61
1, 92735, Note_on_c, 0, 85, 79
1, 92740, Note_on_c, 0, 64, 60
1, 92850, Control_c, 0, 64, 90
1, 92864, Control_c, 0, 64, 76
1, 92880, Control_c, 0, 64, 68
1, 92886, Note_on_c, 0, 66, 68
1, 92895, Control_c, 0, 64, 64
1, 92910, Control_c, 0, 64, 65
1, 92916, Note_off_c, 0, 64, 54
1, 92925, Control_c, 0, 64, 68
1, 92940, Control_c, 0, 64, 72
1, 92954, Control_c, 0, 64, 80
1, 92969, Control_c, 0, 64, 91
1, 92984, Control_c, 0, 64, 106
1, 92999, Control_c, 0, 64, 127
1, 93033, Note_on_c, 0, 88, 81
1, 93037, Note_on_c, 0, 69, 68
1, 93080, Note_off_c, 0, 85, 65
1, 93179, Note_on_c, 0, 71, 74
1, 93182, Note_off_c, 0, 66, 58
1, 93206, Note_off_c, 0, 69, 62
1, 93310, Control_c, 0, 64, 120
1, 93319, Note_on_c, 0, 76, 70
1, 93325, Note_on_c, 0, 83, 79
1, 93325, Control_c, 0, 64, 102
1, 93337, Note_off_c, 0, 71, 53
1, 93339, Control_c, 0, 64, 95
1, 93354, Control_c, 0, 64, 88
1, 93369, Control_c, 0, 64, 82
1, 93384, Control_c, 0, 64, 77
1, 93387, Note_off_c, 0, 81, 56
1, 93399, Control_c, 0, 64, 73
1, 93414, Control_c, 0, 64, 71
1, 93435, Control_c, 0, 64, 69
1, 93450, Control_c, 0, 64, 67
1, 93465, Control_c, 0, 64, 64
1, 93480, Control_c, 0, 64, 62
1, 93494, Control_c, 0, 64, 61
1, 93497, Note_off_c, 0, 88, 53
1, 93509, Control_c, 0, 64, 60
1, 93513, Note_on_c, 0, 75, 61
1, 93518, Poly_aftertouch_c, 0, 86, 127
1, 93524, Control_c, 0, 64, 59
1, 93533, Note_on_c, 0, 79, 71
1, 93539, Control_c, 0, 64, 58
1, 93554, Control_c, 0, 64, 55
1, 93564, Note_off_c, 0, 76, 61
1, 93569, Control_c, 0, 64, 53
1, 93577, Poly_aftertouch_c, 0, 86, 0
1, 93584, Control_c, 0, 64, 51
1, 93599, Control_c, 0, 64, 48
1, 93614, Control_c, 0, 64, 47
1, 93628, Control_c, 0, 64, 46
1, 93639, Note_off_c, 0, 83, 59
1, 93643, Control_c, 0, 64, 45
1, 93673, Control_c, 0, 64, 46
1, 93683, Note_on_c, 0, 70, 68
1, 93688, Control_c, 0, 64, 52
1, 93694, Note_off_c, 0, 75, 62
1, 93703, Control_c, 0, 64, 58
1, 93718, Control_c, 0, 64, 63
1, 93733, Control_c, 0, 64, 65
1, 93748, Control_c, 0, 64, 68
1, 93763, Control_c, 0, 64, 73
1, 93765, Note_off_c, 0, 70, 63
1, 93777, Control_c, 0, 64, 82
1, 93792, Control_c, 0, 64, 97
1, 93807, Control_c, 0, 64, 119
1, 93816, Note_on_c, 0, 71, 65
1, 93822, Control_c, 0, 64, 127
1, 93839, Note_on_c, 0, 67, 50
1, 93866, Control_c, 0, 64, 125
1, 93881, Control_c, 0, 64, 117
1, 93896, Control_c, 0, 64, 115
1, 93910, Control_c, 0, 64, 111
1, 93924, Note_off_c, 0, 67, 55
1, 93925, Control_c, 0, 64, 107
1, 93940, Control_c, 0, 64, 103
1, 93954, Note_on_c, 0, 63, 47
1, 93955, Control_c, 0, 64, 100
1, 93960, Note_off_c, 0, 79, 61
1, 93965, Note_on_c, 0, 73, 63
1, 93970, Control_c, 0, 64, 96
1, 93984, Control_c, 0, 64, 93
1, 93999, Control_c, 0, 64, 90
1, 94014, Control_c, 0, 64, 85
1, 94028, Control_c, 0, 64, 82
1, 94029, Note_on_c, 0, 74, 58
1, 94037, Note_off_c, 0, 71, 37
1, 94043, Control_c, 0, 64, 80
1, 94058, Control_c, 0, 64, 78
1, 94073, Control_c, 0, 64, 75
1, 94088, Control_c, 0, 64, 72
1, 94092, Note_off_c, 0, 73, 38
1, 94102, Control_c, 0, 64, 69
1, 94117, Control_c, 0, 64, 66
1, 94120, Note_on_c, 0, 78, 63
1, 94132, Control_c, 0, 64, 64
1, 94132, Note_on_c, 0, 70, 46
1, 94147, Control_c, 0, 64, 62
1, 94159, Note_off_c, 0, 74, 63
1, 94162, Control_c, 0, 64, 58
1, 94183, Control_c, 0, 64, 54
1, 94198, Control_c, 0, 64, 52
1, 94213, Control_c, 0, 64, 50
1, 94220, Note_off_c, 0, 63, 40
1, 94228, Control_c, 0, 64, 49
1, 94243, Control_c, 0, 64, 48
1, 94258, Control_c, 0, 64, 47
1, 94272, Control_c, 0, 64, 47
1, 94293, Note_on_c, 0, 66, 56
1, 94302, Control_c, 0, 64, 47
1, 94317, Control_c, 0, 64, 49
1, 94332, Control_c, 0, 64, 53
1, 94347, Control_c, 0, 64, 59
1, 94359, Note_off_c, 0, 70, 62
1, 94362, Control_c, 0, 64, 63
1, 94377, Control_c, 0, 64, 66
1, 94391, Control_c, 0, 64, 69
1, 94406, Control_c, 0, 64, 75
1, 94421, Control_c, 0, 64, 86
1, 94435, Control_c, 0, 64, 107
1, 94442, Note_on_c, 0, 62, 65
1, 94450, Control_c, 0, 64, 127
1, 94463, Note_off_c, 0, 66, 62
1, 94575, Note_off_c, 0, 62, 60
1, 94593, Note_on_c, 0, 59, 65
1, 94644, Control_c, 0, 64, 104
1, 94659, Control_c, 0, 64, 88
1, 94673, Control_c, 0, 64, 76
1, 94688, Control_c, 0, 64, 68
1, 94703, Control_c, 0, 64, 62
1, 94718, Control_c, 0, 64, 58
1, 94732, Control_c, 0, 64, 57
1, 94753, Note_on_c, 0, 58, 62
1, 94762, Control_c, 0, 64, 58
1, 94774, Note_off_c, 0, 59, 57
1, 94778, Control_c, 0, 64, 59
1, 94793, Control_c, 0, 64, 61
1, 94807, Control_c, 0, 64, 64
1, 94822, Control_c, 0, 64, 68
1, 94837, Control_c, 0, 64, 73
1, 94852, Control_c, 0, 64, 79
1, 94867, Control_c, 0, 64, 85
1, 94881, Control_c, 0, 64, 91
1, 94893, Note_off_c, 0, 58, 63
1, 94896, Control_c, 0, 64, 98
1, 94898, Note_on_c, 0, 54, 63
1, 94911, Control_c, 0, 64, 106
1, 94933, Control_c, 0, 64, 112
1, 94948, Control_c, 0, 64, 114
1, 94958, Note_off_c, 0, 54, 61
1, 94963, Control_c, 0, 64, 113
1, 95007, Control_c, 0, 64, 112
1, 95022, Control_c, 0, 64, 109
1, 95037, Control_c, 0, 64, 107
1, 95052, Control_c, 0, 64, 104
1, 95059, Note_on_c, 0, 49, 48
1, 95066, Control_c, 0, 64, 102
1, 95074, Note_on_c, 0, 76, 58
1, 95081, Control_c, 0, 64, 98
1, 95096, Control_c, 0, 64, 95
1, 95111, Control_c, 0, 64, 90
1, 95126, Control_c, 0, 64, 85
1, 95140, Control_c, 0, 64, 81
1, 95155, Control_c, 0, 64, 77
1, 95170, Control_c, 0, 64, 75
1, 95185, Control_c, 0, 64, 72
1, 95200, Control_c, 0, 64, 70
1, 95214, Control_c, 0, 64, 69
1, 95217, Note_off_c, 0, 49, 35
1, 95221, Note_on_c, 0, 46, 46
1, 95229, Control_c, 0, 64, 67
1, 95244, Control_c, 0, 64, 66
1, 95259, Control_c, 0, 64, 65
1, 95275, Control_c, 0, 64, 63
1, 95290, Control_c, 0, 64, 62
1, 95304, Control_c, 0, 64, 61
1, 95319, Control_c, 0, 64, 60
1, 95327, Note_off_c, 0, 78, 28
1, 95334, Control_c, 0, 64, 59
1, 95349, Control_c, 0, 64, 58
1, 95361, Note_off_c, 0, 46, 58
1, 95363, Control_c, 0, 64, 58
1, 95378, Control_c, 0, 64, 57
1, 95383, Note_on_c, 0, 42, 41
1, 95390, Note_on_c, 0, 81, 52
1, 95393, Control_c, 0, 64, 56
1, 95408, Control_c, 0, 64, 56
1, 95423, Control_c, 0, 64, 55
1, 95453, Control_c, 0, 64, 54
1, 95468, Control_c, 0, 64, 54
1, 95482, Control_c, 0, 64, 53
1, 95490, Note_off_c, 0, 76, 57
1, 95497, Control_c, 0, 64, 52
1, 95504, Note_off_c, 0, 42, 62
1, 95512, Control_c, 0, 64, 51
1, 95527, Control_c, 0, 64, 50
1, 95536, Note_on_c, 0, 38, 46
1, 95542, Control_c, 0, 64, 49
1, 95556, Control_c, 0, 64, 48
1, 95571, Control_c, 0, 64, 46
1, 95586, Control_c, 0, 64, 45
1, 95601, Control_c, 0, 64, 43
1, 95616, Control_c, 0, 64, 42
1, 95630, Control_c, 0, 64, 40
1, 95645, Control_c, 0, 64, 38
1, 95660, Control_c, 0, 64, 36
1, 95682, Control_c, 0, 64, 34
1, 95697, Control_c, 0, 64, 31
1, 95712, Control_c, 0, 64, 28
1, 95713, Note_on_c, 0, 37, 48
1, 95721, Note_off_c, 0, 38, 52
1, 95727, Control_c, 0, 64, 25
1, 95742, Control_c, 0, 64, 23
1, 95756, Control_c, 0, 64, 19
1, 95763, Note_off_c, 0, 81, 64
1, 95771, Control_c, 0, 64, 15
1, 95786, Control_c, 0, 64, 0
1, 95837, Note_off_c, 0, 37, 58
1, 95860, Note_on_c, 0, 36, 45
1, 96010, Note_off_c, 0, 36, 62
1, 96013, Note_on_c, 0, 35, 64
1, 96109, Note_on_c, 0, 47, 35
1, 96143, Note_off_c, 0, 47, 54
1, 96193, Note_on_c, 0, 37, 39
1, 96249, Note_on_c, 0, 49, 43
1, 96265, Note_off_c, 0, 35, 31
1, 96293, Note_off_c, 0, 49, 60
1, 96333, Note_on_c, 0, 40, 51
1, 96401, Note_on_c, 0, 52, 49
1, 96404, Note_off_c, 0, 37, 39
1, 96449, Note_off_c, 0, 52, 62
1, 96489, Note_on_c, 0, 42, 55
1, 96502, Note_off_c, 0, 40, 56
1, 96553, Note_on_c, 0, 54, 51
1, 96595, Note_off_c, 0, 54, 65
1, 96630, Note_off_c, 0, 42, 63
1, 96636, Note_on_c, 0, 45, 55
1, 96706, Note_on_c, 0, 57, 52
1, 96744, Note_off_c, 0, 57, 64
1, 96784, Note_on_c, 0, 47, 54
1, 96793, Note_off_c, 0, 45, 59
1, 96841, Note_on_c, 0, 59, 53
1, 96880, Note_off_c, 0, 59, 61
1, 96929, Note_on_c, 0, 52, 59
1, 96941, Note_off_c, 0, 47, 55
1, 96989, Note_on_c, 0, 64, 53
1, 97034, Note_off_c, 0, 64, 58
1, 97065, Note_off_c, 0, 52, 59
1, 97070, Note_on_c, 0, 45, 52
1, 97131, Note_on_c, 0, 57, 52
1, 97182, Note_off_c, 0, 57, 60
1, 97215, Note_on_c, 0, 52, 56
1, 97272, Note_off_c, 0, 45, 52
1, 97287, Note_on_c, 0, 64, 57
1, 97330, Note_off_c, 0, 64, 60
1, 97364, Note_on_c, 0, 47, 56
1, 97370, Note_off_c, 0, 52, 59
1, 97429, Note_on_c, 0, 59, 61
1, 97462, Note_off_c, 0, 59, 63
1, 97509, Note_on_c, 0, 49, 62
1, 97541, Note_off_c, 0, 47, 56
1, 97577, Note_on_c, 0, 61, 65
1, 97614, Note_off_c, 0, 61, 60
1, 97641, Note_off_c, 0, 49, 64
1, 97644, Note_on_c, 0, 52, 68
1, 97711, Note_on_c, 0, 64, 69
1, 97754, Note_off_c, 0, 64, 60
1, 97787, Note_on_c, 0, 54, 75
1, 97805, Note_off_c, 0, 52, 62
1, 97852, Note_on_c, 0, 64, 76
1, 97885, Note_off_c, 0, 64, 64
1, 97930, Note_on_c, 0, 57, 80
1, 97953, Note_off_c, 0, 54, 60
1, 97993, Note_on_c, 0, 66, 82
1, 98041, Note_off_c, 0, 66, 62
1, 98076, Note_on_c, 0, 59, 86
1, 98093, Note_off_c, 0, 57, 62
1, 98143, Note_on_c, 0, 66, 87
1, 98189, Note_off_c, 0, 66, 62
1, 98203, Note_off_c, 0, 59, 64
1, 98219, Note_on_c, 0, 64, 81
1, 98283, Note_on_c, 0, 69, 94
1, 98327, Note_off_c, 0, 69, 66
1, 98369, Note_on_c, 0, 59, 87
1, 98380, Note_off_c, 0, 64, 55
1, 98544, Note_on_c, 0, 69, 92
1, 98701, Note_on_c, 0, 64, 90
1, 98711, Note_off_c, 0, 59, 59
1, 98852, Note_on_c, 0, 68, 89
1, 98888, Note_off_c, 0, 69, 61
1, 99012, Note_on_c, 0, 62, 87
1, 99044, Note_off_c, 0, 64, 63
1, 99146, Note_on_c, 0, 66, 90
1, 99194, Note_off_c, 0, 68, 59
1, 99292, Note_off_c, 0, 62, 60
1, 99301, Note_on_c, 0, 61, 86
1, 99453, Note_on_c, 0, 65, 92
1, 99468, Note_off_c, 0, 61, 62
1, 99492, Note_off_c, 0, 66, 59
1, 99558, Note_off_c, 0, 65, 63
1, 99569, Note_on_c, 0, 59, 88
1, 99571, Note_on_c, 0, 60, 93
1, 99576, Note_on_c, 0, 62, 95
1, 99630, Note_on_c, 0, 64, 77
1, 99638, Note_off_c, 0, 60, 60
1, 99668, Note_off_c, 0, 62, 62
1, 99677, Note_on_c, 0, 71, 84
1, 99704, Note_on_c, 0, 69, 98
1, 99727, Note_off_c, 0, 71, 64
1, 99772, Note_off_c, 0, 64, 58
1, 99875, Note_on_c, 0, 65, 100
1, 99965, Note_off_c, 0, 59, 38
1, 100007, Note_on_c, 0, 81, 97
1, 100035, Note_off_c, 0, 69, 62
1, 100165, Note_on_c, 0, 59, 81
1, 100203, Note_off_c, 0, 65, 57
1, 100295, Note_off_c, 0, 81, 63
1, 100325, Note_on_c, 0, 69, 80
1, 100479, Note_on_c, 0, 64, 86
1, 100486, Note_off_c, 0, 59, 60
1, 100619, Note_on_c, 0, 68, 96
1, 100653, Note_off_c, 0, 69, 64
1, 100781, Note_on_c, 0, 62, 91
1, 100816, Note_off_c, 0, 64, 65
1, 100922, Note_on_c, 0, 66, 96
1, 100974, Note_off_c, 0, 68, 59
1, 101067, Note_on_c, 0, 61, 82
1, 101079, Note_off_c, 0, 62, 57
1, 101213, Note_off_c, 0, 61, 65
1, 101214, Note_on_c, 0, 65, 89
1, 101251, Note_off_c, 0, 66, 61
1, 101281, Note_off_c, 0, 65, 64
1, 101410, Note_on_c, 0, 35, 28
1, 101459, Note_on_c, 0, 59, 32
1, 101497, Note_off_c, 0, 59, 53
1, 101546, Note_on_c, 0, 37, 48
1, 101606, Note_off_c, 0, 35, 40
1, 101611, Note_on_c, 0, 61, 42
1, 101644, Note_off_c, 0, 61, 58
1, 101689, Note_off_c, 0, 37, 61
1, 101710, Note_on_c, 0, 40, 51
1, 101765, Note_on_c, 0, 64, 41
1, 101799, Note_off_c, 0, 64, 56
1, 101838, Note_off_c, 0, 40, 56
1, 101850, Note_on_c, 0, 42, 54
1, 101910, Note_on_c, 0, 66, 47
1, 101942, Note_off_c, 0, 66, 64
1, 101996, Note_on_c, 0, 45, 57
1, 102002, Note_off_c, 0, 42, 54
1, 102059, Note_on_c, 0, 69, 55
1, 102100, Note_off_c, 0, 69, 59
1, 102143, Note_on_c, 0, 47, 62
1, 102162, Note_off_c, 0, 45, 60
1, 102202, Note_on_c, 0, 71, 59
1, 102242, Note_off_c, 0, 71, 61
1, 102277, Note_off_c, 0, 47, 63
1, 102285, Note_on_c, 0, 52, 66
1, 102365, Note_on_c, 0, 76, 59
1, 102402, Note_off_c, 0, 52, 60
1, 102419, Note_off_c, 0, 76, 59
1, 102456, Note_on_c, 0, 57, 43
1, 102481, Note_on_c, 0, 59, 29
1, 102509, Note_on_c, 0, 69, 66
1, 102521, Note_off_c, 0, 59, 37
1, 102547, Note_off_c, 0, 69, 61
1, 102565, Note_off_c, 0, 57, 60
1, 102583, Note_on_c, 0, 64, 66
1, 102665, Note_on_c, 0, 76, 65
1, 102710, Note_off_c, 0, 76, 58
1, 102721, Note_on_c, 0, 59, 70
1, 102741, Note_off_c, 0, 64, 51
1, 102795, Note_on_c, 0, 71, 73
1, 102849, Note_off_c, 0, 71, 62
1, 102867, Note_on_c, 0, 61, 82
1, 102894, Note_off_c, 0, 59, 62
1, 102944, Note_on_c, 0, 73, 86
1, 102989, Note_off_c, 0, 73, 66
1, 102998, Note_on_c, 0, 64, 86
1, 103004, Note_off_c, 0, 61, 55
1, 103060, Note_off_c, 0, 64, 64
1, 103071, Note_on_c, 0, 76, 94
1, 103118, Note_off_c, 0, 76, 66
1, 103139, Note_on_c, 0, 64, 97
1, 103215, Note_on_c, 0, 78, 100
1, 103252, Note_off_c, 0, 78, 65
1, 103274, Note_on_c, 0, 66, 94
1, 103295, Note_off_c, 0, 64, 61
1, 103339, Note_on_c, 0, 81, 105
1, 103339, Note_off_c, 0, 66, 64
1, 103376, Note_off_c, 0, 81, 69
1, 103415, Note_on_c, 0, 66, 101
1, 103475, Note_on_c, 0, 83, 113
1, 103507, Note_off_c, 0, 83, 70
1, 103555, Note_on_c, 0, 69, 97
1, 103582, Note_off_c, 0, 66, 60
1, 103624, Note_on_c, 0, 88, 107
1, 103649, Note_off_c, 0, 88, 70
1, 103737, Note_on_c, 0, 64, 91
1, 103907, Note_on_c, 0, 68, 100
1, 104019, Note_off_c, 0, 69, 54
1, 104065, Note_on_c, 0, 65, 88
1, 104066, Note_on_c, 0, 62, 71
1, 104068, Note_off_c, 0, 68, 65
1, 104093, Note_off_c, 0, 64, 61
1, 104233, Note_on_c, 0, 66, 97
1, 104350, Note_off_c, 0, 65, 55
1, 104376, Note_on_c, 0, 61, 80
1, 104377, Note_on_c, 0, 67, 85
1, 104384, Note_off_c, 0, 66, 64
1, 104412, Note_off_c, 0, 62, 63
1, 104516, Note_off_c, 0, 67, 60
1, 104539, Note_on_c, 0, 65, 93
1, 104684, Note_off_c, 0, 65, 63
1, 104700, Note_on_c, 0, 69, 82
1, 104702, Note_on_c, 0, 59, 77
1, 104716, Note_off_c, 0, 61, 57
1, 104787, Note_off_c, 0, 69, 61
1, 104792, Note_off_c, 0, 59, 61
1, 104848, Note_on_c, 0, 69, 75
1, 105010, Note_on_c, 0, 64, 69
1, 105096, Control_c, 0, 64, 36
1, 105111, Control_c, 0, 64, 50
1, 105126, Control_c, 0, 64, 57
1, 105141, Control_c, 0, 64, 63
1, 105156, Control_c, 0, 64, 70
1, 105165, Note_on_c, 0, 68, 84
1, 105171, Control_c, 0, 64, 84
1, 105186, Control_c, 0, 64, 127
1, 105205, Note_off_c, 0, 69, 61
1, 105254, Note_off_c, 0, 64, 62
1, 105321, Note_on_c, 0, 65, 94
1, 105322, Note_on_c, 0, 62, 92
1, 105333, Control_c, 0, 64, 112
1, 105348, Control_c, 0, 64, 78
1, 105363, Control_c, 0, 64, 62
1, 105378, Control_c, 0, 64, 36
1, 105379, Note_off_c, 0, 68, 63
1, 105393, Control_c, 0, 64, 36
1, 105415, Control_c, 0, 64, 48
1, 105430, Control_c, 0, 64, 61
1, 105445, Control_c, 0, 64, 68
1, 105460, Control_c, 0, 64, 89
1, 105475, Control_c, 0, 64, 127
1, 105477, Note_on_c, 0, 66, 105
1, 105526, Note_off_c, 0, 65, 59
1, 105532, Note_off_c, 0, 62, 58
1, 105570, Poly_aftertouch_c, 0, 61, 0
1, 105594, Poly_aftertouch_c, 0, 61, 0
1, 105624, Note_on_c, 0, 61, 86
1, 105626, Note_on_c, 0, 67, 96
1, 105641, Note_off_c, 0, 66, 65
1, 105652, Control_c, 0, 64, 81
1, 105668, Control_c, 0, 64, 54
1, 105683, Control_c, 0, 64, 0
1, 105756, Control_c, 0, 64, 65
1, 105763, Note_off_c, 0, 67, 60
1, 105771, Control_c, 0, 64, 127
1, 105776, Note_on_c, 0, 65, 113
1, 105779, Note_off_c, 0, 61, 61
1, 105913, Note_off_c, 0, 65, 62
1, 105940, Note_on_c, 0, 69, 103
1, 105940, Note_on_c, 0, 59, 105
1, 105943, Poly_aftertouch_c, 0, 61, 0
1, 105987, Note_off_c, 0, 69, 67
1, 106008, Control_c, 0, 64, 94
1, 106014, Note_off_c, 0, 59, 67
1, 106023, Control_c, 0, 64, 60
1, 106038, Control_c, 0, 64, 0
1, 106085, Note_on_c, 0, 69, 109
1, 106251, Note_on_c, 0, 45, 91
1, 106252, Note_on_c, 0, 35, 91
1, 106252, Note_on_c, 0, 42, 80
1, 106255, Note_on_c, 0, 64, 107
1, 106256, Note_on_c, 0, 38, 76
1, 106262, Note_on_c, 0, 41, 98
1, 106273, Note_off_c, 0, 42, 66
1, 106312, Control_c, 0, 64, 36
1, 106327, Control_c, 0, 64, 87
1, 106342, Control_c, 0, 64, 127
1, 106410, Note_on_c, 0, 68, 88
1, 106436, Note_off_c, 0, 64, 59
1, 106565, Note_on_c, 0, 62, 105
1, 106565, Control_c, 0, 64, 89
1, 106579, Control_c, 0, 64, 68
1, 106594, Control_c, 0, 64, 38
1, 106609, Control_c, 0, 64, 0
1, 106668, Control_c, 0, 64, 55
1, 106683, Control_c, 0, 64, 67
1, 106698, Control_c, 0, 64, 84
1, 106713, Control_c, 0, 64, 127
1, 106720, Note_on_c, 0, 66, 85
1, 106745, Note_off_c, 0, 62, 59
1, 106751, Note_off_c, 0, 69, 56
1, 106829, Note_off_c, 0, 66, 63
1, 106861, Control_c, 0, 64, 115
1, 106867, Note_on_c, 0, 61, 108
1, 106874, Note_on_c, 0, 69, 70
1, 106876, Control_c, 0, 64, 72
1, 106891, Control_c, 0, 64, 38
1, 106914, Control_c, 0, 64, 0
1, 106958, Control_c, 0, 64, 51
1, 106973, Control_c, 0, 64, 73
1, 106987, Control_c, 0, 64, 127
1, 107028, Note_off_c, 0, 35, 60
1, 107029, Note_on_c, 0, 65, 88
1, 107040, Note_off_c, 0, 69, 49
1, 107064, Note_off_c, 0, 38, 60
1, 107068, Note_off_c, 0, 41, 61
1, 107069, Note_off_c, 0, 61, 59
1, 107077, Note_off_c, 0, 45, 60
1, 107084, Note_off_c, 0, 68, 53
1, 107123, Note_off_c, 0, 65, 61
1, 107184, Note_on_c, 0, 59, 107
1, 107270, Control_c, 0, 64, 103
1, 107284, Control_c, 0, 64, 70
1, 107299, Control_c, 0, 64, 38
1, 107311, Note_off_c, 0, 59, 55
1, 107314, Control_c, 0, 64, 0
1, 107325, Note_on_c, 0, 69, 97
1, 107487, Note_on_c, 0, 78, 88
1, 107487, Note_on_c, 0, 82, 103
1, 107490, Note_on_c, 0, 64, 109
1, 107492, Note_on_c, 0, 73, 84
1, 107537, Control_c, 0, 64, 61
1, 107551, Control_c, 0, 64, 105
1, 107566, Control_c, 0, 64, 127
1, 107645, Note_on_c, 0, 68, 86
1, 107698, Note_off_c, 0, 64, 59
1, 107766, Control_c, 0, 64, 87
1, 107781, Control_c, 0, 64, 70
1, 107796, Control_c, 0, 64, 58
1, 107810, Control_c, 0, 64, 46
1, 107815, Note_on_c, 0, 62, 102
1, 107825, Control_c, 0, 64, 44
1, 107840, Control_c, 0, 64, 48
1, 107855, Control_c, 0, 64, 57
1, 107870, Control_c, 0, 64, 65
1, 107884, Control_c, 0, 64, 76
1, 107899, Control_c, 0, 64, 127
1, 107949, Note_off_c, 0, 82, 61
1, 107962, Note_on_c, 0, 66, 85
1, 107976, Note_off_c, 0, 62, 61
1, 108005, Note_off_c, 0, 69, 55
1, 108047, Note_off_c, 0, 78, 59
1, 108060, Note_off_c, 0, 73, 59
1, 108084, Note_off_c, 0, 66, 64
1, 108114, Note_on_c, 0, 61, 103
1, 108117, Note_on_c, 0, 69, 81
1, 108220, Note_off_c, 0, 69, 55
1, 108270, Note_on_c, 0, 65, 92
1, 108308, Note_off_c, 0, 68, 0
1, 108319, Note_off_c, 0, 61, 57
1, 108357, Note_off_c, 0, 65, 62
1, 108363, Poly_aftertouch_c, 0, 68, 0
1, 108435, Note_on_c, 0, 59, 111
1, 108514, Control_c, 0, 64, 97
1, 108529, Control_c, 0, 64, 65
1, 108544, Control_c, 0, 64, 0
1, 108551, Note_off_c, 0, 59, 64
1, 108579, Note_on_c, 0, 69, 100
1, 108734, Note_on_c, 0, 41, 92
1, 108735, Note_on_c, 0, 45, 99
1, 108741, Note_on_c, 0, 35, 87
1, 108742, Note_on_c, 0, 64, 110
1, 108745, Note_on_c, 0, 38, 83
1, 108825, Control_c, 0, 64, 60
1, 108840, Control_c, 0, 64, 127
1, 108905, Note_on_c, 0, 68, 91
1, 108936, Note_off_c, 0, 64, 63
1, 109062, Note_on_c, 0, 62, 111
1, 109063, Control_c, 0, 64, 96
1, 109078, Control_c, 0, 64, 67
1, 109093, Control_c, 0, 64, 23
1, 109108, Control_c, 0, 64, 0
1, 109159, Control_c, 0, 64, 55
1, 109174, Control_c, 0, 64, 67
1, 109189, Control_c, 0, 64, 84
1, 109204, Control_c, 0, 64, 127
1, 109220, Note_on_c, 0, 66, 87
1, 109242, Note_off_c, 0, 62, 61
1, 109299, Note_off_c, 0, 69, 54
1, 109307, Note_off_c, 0, 35, 55
1, 109348, Note_off_c, 0, 66, 64
1, 109365, Note_off_c, 0, 38, 60
1, 109367, Control_c, 0, 64, 120
1, 109374, Note_on_c, 0, 61, 102
1, 109381, Note_off_c, 0, 45, 57
1, 109381, Control_c, 0, 64, 77
1, 109383, Note_off_c, 0, 41, 60
1, 109396, Control_c, 0, 64, 63
1, 109398, Note_on_c, 0, 69, 55
1, 109411, Control_c, 0, 64, 59
1, 109424, Note_off_c, 0, 69, 53
1, 109426, Control_c, 0, 64, 66
1, 109441, Control_c, 0, 64, 78
1, 109455, Control_c, 0, 64, 127
1, 109516, Note_on_c, 0, 65, 89
1, 109560, Note_off_c, 0, 68, 26
1, 109567, Note_off_c, 0, 61, 58
1, 109606, Note_off_c, 0, 65, 62
1, 109680, Note_on_c, 0, 59, 107
1, 109752, Control_c, 0, 64, 83
1, 109767, Control_c, 0, 64, 59
1, 109776, Note_off_c, 0, 59, 60
1, 109782, Control_c, 0, 64, 0
1, 109809, Note_on_c, 0, 69, 98
1, 109981, Note_on_c, 0, 64, 111
1, 109982, Note_on_c, 0, 78, 92
1, 109982, Note_on_c, 0, 82, 103
1, 109984, Note_on_c, 0, 73, 89
1, 110101, Control_c, 0, 64, 59
1, 110116, Control_c, 0, 64, 72
1, 110131, Control_c, 0, 64, 95
1, 110139, Note_on_c, 0, 68, 91
1, 110146, Control_c, 0, 64, 127
1, 110182, Note_off_c, 0, 64, 60
1, 110292, Note_on_c, 0, 62, 102
1, 110308, Control_c, 0, 64, 91
1, 110323, Control_c, 0, 64, 70
1, 110338, Control_c, 0, 64, 54
1, 110352, Control_c, 0, 64, 0
1, 110411, Control_c, 0, 64, 51
1, 110426, Control_c, 0, 64, 64
1, 110441, Control_c, 0, 64, 78
1, 110442, Note_on_c, 0, 66, 85
1, 110457, Control_c, 0, 64, 127
1, 110460, Note_off_c, 0, 62, 59
1, 110470, Note_off_c, 0, 82, 62
1, 110483, Note_off_c, 0, 69, 56
1, 110539, Note_off_c, 0, 78, 55
1, 110564, Note_off_c, 0, 66, 65
1, 110566, Note_off_c, 0, 73, 58
1, 110597, Note_on_c, 0, 61, 104
1, 110602, Note_off_c, 0, 68, 0
1, 110639, Poly_aftertouch_c, 0, 68, 127
1, 110715, Poly_aftertouch_c, 0, 68, 0
1, 110757, Note_on_c, 0, 65, 87
1, 110790, Note_off_c, 0, 61, 58
1, 110868, Note_off_c, 0, 65, 55
1, 110899, Note_on_c, 0, 59, 96
1, 110906, Note_on_c, 0, 65, 46
1, 110920, Note_on_c, 0, 64, 69
1, 110939, Note_off_c, 0, 64, 65
1, 110940, Note_off_c, 0, 59, 67
1, 110953, Note_off_c, 0, 65, 64
1, 111043, Note_on_c, 0, 81, 100
1, 111052, Note_on_c, 0, 69, 96
1, 111088, Control_c, 0, 64, 95
1, 111102, Control_c, 0, 64, 67
1, 111117, Control_c, 0, 64, 36
1, 111132, Control_c, 0, 64, 0
1, 111198, Note_on_c, 0, 76, 103
1, 111201, Note_on_c, 0, 64, 90
1, 111231, Note_off_c, 0, 81, 64
1, 111302, Note_off_c, 0, 69, 54
1, 111348, Note_on_c, 0, 81, 97
1, 111353, Note_on_c, 0, 68, 94
1, 111505, Note_on_c, 0, 62, 80
1, 111511, Note_on_c, 0, 74, 98
1, 111525, Note_off_c, 0, 68, 63
1, 111549, Note_off_c, 0, 76, 62
1, 111550, Note_off_c, 0, 64, 56
1, 111551, Note_off_c, 0, 81, 65
1, 111660, Note_on_c, 0, 81, 94
1, 111660, Note_on_c, 0, 66, 79
1, 111698, Note_off_c, 0, 74, 61
1, 111804, Note_on_c, 0, 73, 97
1, 111805, Note_on_c, 0, 61, 77
1, 111828, Note_off_c, 0, 62, 62
1, 111857, Note_off_c, 0, 66, 58
1, 111869, Note_off_c, 0, 81, 58
1, 111958, Note_on_c, 0, 65, 78
1, 111958, Note_on_c, 0, 81, 91
1, 112086, Note_off_c, 0, 61, 58
1, 112099, Note_off_c, 0, 65, 59
1, 112101, Note_on_c, 0, 71, 87
1, 112102, Note_on_c, 0, 59, 73
1, 112113, Note_off_c, 0, 73, 40
1, 112117, Note_off_c, 0, 81, 65
1, 112126, Note_off_c, 0, 59, 67
1, 112139, Note_off_c, 0, 71, 63
1, 112250, Note_on_c, 0, 57, 92
1, 112250, Note_on_c, 0, 63, 94
1, 112252, Note_on_c, 0, 75, 96
1, 112392, Note_on_c, 0, 64, 92
1, 112393, Note_on_c, 0, 61, 91
1, 112395, Note_on_c, 0, 58, 80
1, 112417, Note_off_c, 0, 57, 64
1, 112420, Note_off_c, 0, 64, 65
1, 112423, Note_off_c, 0, 63, 62
1, 112429, Note_off_c, 0, 75, 63
1, 112430, Note_off_c, 0, 61, 66
1, 112439, Note_off_c, 0, 58, 66
1, 112549, Note_on_c, 0, 55, 89
1, 112550, Note_on_c, 0, 74, 106
1, 112551, Note_on_c, 0, 62, 100
1, 112681, Note_off_c, 0, 55, 54
1, 112694, Note_on_c, 0, 56, 78
1, 112694, Note_on_c, 0, 60, 93
1, 112694, Note_on_c, 0, 63, 93
1, 112723, Note_off_c, 0, 56, 69
1, 112724, Note_on_c, 0, 61, 52
1, 112725, Note_off_c, 0, 61, 127
1, 112727, Note_off_c, 0, 74, 63
1, 112727, Note_off_c, 0, 62, 65
1, 112730, Note_off_c, 0, 60, 66
1, 112733, Note_off_c, 0, 63, 63
1, 112847, Note_on_c, 0, 54, 93
1, 112847, Note_on_c, 0, 60, 105
1, 112848, Note_on_c, 0, 72, 109
1, 112992, Note_on_c, 0, 61, 98
1, 112998, Note_on_c, 0, 58, 93
1, 113003, Note_on_c, 0, 55, 66
1, 113023, Note_off_c, 0, 54, 61
1, 113026, Note_off_c, 0, 61, 67
1, 113029, Note_off_c, 0, 72, 65
1, 113034, Note_off_c, 0, 58, 65
1, 113034, Note_off_c, 0, 60, 65
1, 113036, Note_off_c, 0, 55, 66
1, 113148, Note_on_c, 0, 52, 98
1, 113149, Note_on_c, 0, 59, 106
1, 113150, Note_on_c, 0, 71, 111
1, 113249, Note_off_c, 0, 59, 69
1, 113282, Note_on_c, 0, 60, 100
1, 113288, Note_on_c, 0, 53, 78
1, 113289, Control_c, 0, 64, 67
1, 113291, Note_on_c, 0, 56, 72
1, 113298, Note_on_c, 0, 57, 83
1, 113301, Note_off_c, 0, 71, 64
1, 113303, Control_c, 0, 64, 127
1, 113312, Note_off_c, 0, 52, 65
1, 113318, Note_off_c, 0, 60, 68
1, 113320, Note_off_c, 0, 57, 69
1, 113320, Note_on_c, 0, 54, 40
1, 113321, Note_off_c, 0, 54, 127
1, 113334, Note_off_c, 0, 53, 65
1, 113359, Note_off_c, 0, 56, 37
1, 113407, Control_c, 0, 64, 74
1, 113422, Control_c, 0, 64, 0
1, 113428, Poly_aftertouch_c, 0, 57, 0
1, 113437, Note_on_c, 0, 57, 43
1, 113623, Note_on_c, 0, 40, 101
1, 113669, Note_on_c, 0, 39, 41
1, 113670, Note_off_c, 0, 39, 127
1, 113702, Note_on_c, 0, 52, 89
1, 113712, Control_c, 0, 64, 78
1, 113726, Control_c, 0, 64, 127
1, 113783, Note_on_c, 0, 56, 97
1, 113788, Note_off_c, 0, 52, 63
1, 113807, Note_off_c, 0, 40, 62
1, 113821, Note_off_c, 0, 57, 64
1, 113905, Control_c, 0, 64, 122
1, 113920, Control_c, 0, 64, 75
1, 113934, Control_c, 0, 64, 39
1, 113938, Note_on_c, 0, 38, 98
1, 113949, Control_c, 0, 64, 0
1, 114011, Note_on_c, 0, 52, 79
1, 114022, Note_on_c, 0, 50, 70
1, 114023, Control_c, 0, 64, 49
1, 114038, Control_c, 0, 64, 70
1, 114052, Control_c, 0, 64, 92
1, 114067, Control_c, 0, 64, 127
1, 114075, Note_off_c, 0, 50, 36
1, 114080, Note_off_c, 0, 52, 59
1, 114096, Note_on_c, 0, 54, 101
1, 114102, Note_off_c, 0, 38, 62
1, 114154, Note_off_c, 0, 56, 61
1, 114185, Control_c, 0, 64, 107
1, 114200, Control_c, 0, 64, 72
1, 114215, Control_c, 0, 64, 36
1, 114230, Control_c, 0, 64, 0
1, 114238, Note_on_c, 0, 37, 99
1, 114270, Note_on_c, 0, 39, 39
1, 114271, Note_off_c, 0, 39, 127
1, 114298, Note_off_c, 0, 37, 65
1, 114304, Control_c, 0, 64, 64
1, 114315, Note_on_c, 0, 39, 7
1, 114316, Note_on_c, 0, 52, 90
1, 114319, Control_c, 0, 64, 86
1, 114334, Control_c, 0, 64, 127
1, 114364, Note_off_c, 0, 39, 54
1, 114408, Note_on_c, 0, 53, 106
1, 114414, Note_off_c, 0, 52, 61
1, 114444, Note_off_c, 0, 54, 63
1, 114505, Control_c, 0, 64, 95
1, 114520, Control_c, 0, 64, 68
1, 114535, Control_c, 0, 64, 0
1, 114552, Note_on_c, 0, 36, 97
1, 114623, Control_c, 0, 64, 58
1, 114626, Note_on_c, 0, 52, 83
1, 114631, Note_off_c, 0, 36, 37
1, 114632, Note_on_c, 0, 38, 61
1, 114638, Control_c, 0, 64, 84
1, 114653, Control_c, 0, 64, 127
1, 114659, Note_on_c, 0, 50, 32
1, 114702, Note_off_c, 0, 38, 50
1, 114706, Note_off_c, 0, 50, 43
1, 114716, Note_on_c, 0, 57, 96
1, 114742, Control_c, 0, 64, 110
1, 114747, Note_off_c, 0, 53, 61
1, 114753, Note_off_c, 0, 52, 62
1, 114757, Control_c, 0, 64, 85
1, 114772, Control_c, 0, 64, 72
1, 114787, Control_c, 0, 64, 63
1, 114801, Control_c, 0, 64, 44
1, 114816, Control_c, 0, 64, 0
1, 114869, Note_on_c, 0, 40, 86
1, 114939, Note_on_c, 0, 52, 73
1, 114964, Control_c, 0, 64, 54
1, 114979, Control_c, 0, 64, 70
1, 114993, Control_c, 0, 64, 80
1, 115008, Control_c, 0, 64, 96
1, 115023, Control_c, 0, 64, 99
1, 115026, Note_on_c, 0, 56, 95
1, 115037, Control_c, 0, 64, 104
1, 115052, Control_c, 0, 64, 109
1, 115067, Control_c, 0, 64, 110
1, 115072, Note_off_c, 0, 57, 61
1, 115076, Note_off_c, 0, 40, 58
1, 115079, Note_off_c, 0, 52, 58
1, 115082, Control_c, 0, 64, 109
1, 115097, Control_c, 0, 64, 104
1, 115112, Control_c, 0, 64, 99
1, 115127, Control_c, 0, 64, 88
1, 115148, Control_c, 0, 64, 75
1, 115163, Control_c, 0, 64, 63
1, 115178, Control_c, 0, 64, 31
1, 115193, Control_c, 0, 64, 0
1, 115197, Note_on_c, 0, 38, 85
1, 115260, Note_on_c, 0, 52, 81
1, 115297, Control_c, 0, 64, 27
1, 115312, Control_c, 0, 64, 65
1, 115327, Control_c, 0, 64, 76
1, 115342, Control_c, 0, 64, 100
1, 115343, Note_on_c, 0, 54, 92
1, 115357, Control_c, 0, 64, 127
1, 115366, Note_off_c, 0, 52, 58
1, 115368, Note_off_c, 0, 38, 59
1, 115398, Note_off_c, 0, 56, 60
1, 115476, Control_c, 0, 64, 94
1, 115489, Note_on_c, 0, 37, 90
1, 115491, Control_c, 0, 64, 66
1, 115505, Control_c, 0, 64, 0
1, 115556, Note_on_c, 0, 52, 82
1, 115559, Note_off_c, 0, 37, 61
1, 115579, Control_c, 0, 64, 26
1, 115594, Control_c, 0, 64, 64
1, 115609, Control_c, 0, 64, 78
1, 115623, Control_c, 0, 64, 127
1, 115642, Poly_aftertouch_c, 0, 39, 127
1, 115644, Note_off_c, 0, 52, 61
1, 115648, Note_on_c, 0, 53, 96
1, 115690, Poly_aftertouch_c, 0, 39, 0
1, 115694, Note_off_c, 0, 54, 62
1, 115757, Control_c, 0, 64, 112
1, 115771, Control_c, 0, 64, 78
1, 115786, Control_c, 0, 64, 59
1, 115793, Note_on_c, 0, 36, 90
1, 115801, Control_c, 0, 64, 0
1, 115837, Note_off_c, 0, 36, 64
1, 115866, Note_on_c, 0, 52, 89
1, 115872, Note_on_c, 0, 38, 56
1, 115897, Control_c, 0, 64, 58
1, 115912, Control_c, 0, 64, 74
1, 115917, Note_off_c, 0, 38, 48
1, 115927, Control_c, 0, 64, 106
1, 115942, Control_c, 0, 64, 127
1, 115950, Note_on_c, 0, 57, 94
1, 115965, Poly_aftertouch_c, 0, 40, 127
1, 115976, Note_off_c, 0, 52, 63
1, 115982, Note_off_c, 0, 53, 61
1, 116009, Poly_aftertouch_c, 0, 40, 0
1, 116015, Control_c, 0, 64, 91
1, 116030, Control_c, 0, 64, 77
1, 116046, Control_c, 0, 64, 71
1, 116061, Control_c, 0, 64, 66
1, 116076, Control_c, 0, 64, 61
1, 116091, Control_c, 0, 64, 56
1, 116106, Control_c, 0, 64, 52
1, 116118, Note_on_c, 0, 52, 93
1, 116120, Note_on_c, 0, 40, 87
1, 116120, Control_c, 0, 64, 46
1, 116135, Control_c, 0, 64, 32
1, 116150, Control_c, 0, 64, 0
1, 116283, Note_on_c, 0, 56, 92
1, 116349, Note_off_c, 0, 57, 58
1, 116361, Note_off_c, 0, 52, 59
1, 116478, Note_on_c, 0, 38, 74
1, 116479, Note_on_c, 0, 50, 79
1, 116519, Note_off_c, 0, 40, 58
1, 116899, Control_c, 0, 64, 28
1, 116914, Control_c, 0, 64, 48
1, 116929, Control_c, 0, 64, 57
1, 116943, Control_c, 0, 64, 62
1, 116958, Control_c, 0, 64, 65
1, 116973, Control_c, 0, 64, 69
1, 116988, Control_c, 0, 64, 75
1, 117003, Control_c, 0, 64, 82
1, 117017, Control_c, 0, 64, 87
1, 117032, Control_c, 0, 64, 90
1, 117047, Control_c, 0, 64, 90
1, 117061, Note_on_c, 0, 54, 86
1, 117062, Control_c, 0, 64, 90
1, 117076, Control_c, 0, 64, 89
1, 117080, Note_off_c, 0, 50, 57
1, 117091, Control_c, 0, 64, 88
1, 117106, Control_c, 0, 64, 88
1, 117121, Control_c, 0, 64, 86
1, 117136, Control_c, 0, 64, 84
1, 117151, Control_c, 0, 64, 81
1, 117166, Control_c, 0, 64, 78
1, 117181, Control_c, 0, 64, 75
1, 117196, Control_c, 0, 64, 72
1, 117211, Control_c, 0, 64, 68
1, 117219, Note_on_c, 0, 49, 72
1, 117219, Note_off_c, 0, 56, 63
1, 117225, Control_c, 0, 64, 65
1, 117228, Note_on_c, 0, 37, 65
1, 117240, Control_c, 0, 64, 64
1, 117255, Control_c, 0, 64, 63
1, 117270, Control_c, 0, 64, 61
1, 117285, Control_c, 0, 64, 58
1, 117300, Control_c, 0, 64, 53
1, 117315, Control_c, 0, 64, 48
1, 117330, Control_c, 0, 64, 44
1, 117344, Control_c, 0, 64, 41
1, 117356, Note_off_c, 0, 38, 37
1, 117359, Control_c, 0, 64, 39
1, 117369, Note_on_c, 0, 53, 83
1, 117374, Control_c, 0, 64, 37
1, 117395, Control_c, 0, 64, 36
1, 117410, Control_c, 0, 64, 34
1, 117425, Control_c, 0, 64, 33
1, 117440, Control_c, 0, 64, 33
1, 117485, Control_c, 0, 64, 32
1, 117500, Control_c, 0, 64, 32
1, 117504, Note_off_c, 0, 54, 58
1, 117515, Control_c, 0, 64, 31
1, 117532, Note_off_c, 0, 49, 60
1, 117574, Control_c, 0, 64, 31
1, 117575, Note_on_c, 0, 48, 63
1, 117577, Note_on_c, 0, 36, 62
1, 117613, Note_off_c, 0, 37, 58
1, 117679, Control_c, 0, 64, 30
1, 117693, Control_c, 0, 64, 30
1, 117856, Control_c, 0, 64, 31
1, 117871, Control_c, 0, 64, 34
1, 117885, Control_c, 0, 64, 39
1, 117900, Control_c, 0, 64, 46
1, 117915, Control_c, 0, 64, 52
1, 117930, Control_c, 0, 64, 56
1, 117945, Control_c, 0, 64, 60
1, 117960, Control_c, 0, 64, 64
1, 117974, Control_c, 0, 64, 67
1, 117990, Control_c, 0, 64, 74
1, 118005, Control_c, 0, 64, 88
1, 118020, Control_c, 0, 64, 127
1, 118087, Note_off_c, 0, 53, 55
1, 118120, Note_off_c, 0, 36, 39
1, 118122, Note_off_c, 0, 48, 35
1, 118333, Note_on_c, 0, 41, 71
1, 118333, Note_on_c, 0, 57, 82
1, 118367, Control_c, 0, 64, 99
1, 118382, Control_c, 0, 64, 88
1, 118397, Control_c, 0, 64, 80
1, 118412, Control_c, 0, 64, 74
1, 118427, Control_c, 0, 64, 69
1, 118443, Control_c, 0, 64, 64
1, 118458, Control_c, 0, 64, 60
1, 118472, Control_c, 0, 64, 57
1, 118487, Control_c, 0, 64, 54
1, 118502, Control_c, 0, 64, 52
1, 118516, Control_c, 0, 64, 50
1, 118531, Control_c, 0, 64, 48
1, 118546, Control_c, 0, 64, 47
1, 118561, Control_c, 0, 64, 45
1, 118576, Control_c, 0, 64, 44
1, 118591, Control_c, 0, 64, 43
1, 118606, Control_c, 0, 64, 42
1, 118620, Control_c, 0, 64, 40
1, 118635, Control_c, 0, 64, 38
1, 118650, Control_c, 0, 64, 34
1, 118665, Control_c, 0, 64, 30
1, 118680, Control_c, 0, 64, 27
1, 118695, Control_c, 0, 64, 25
1, 118709, Control_c, 0, 64, 23
1, 118724, Control_c, 0, 64, 22
1, 118738, Control_c, 0, 64, 21
1, 118749, Note_on_c, 0, 36, 49
1, 118756, Note_on_c, 0, 52, 64
1, 118768, Control_c, 0, 64, 20
1, 118782, Control_c, 0, 64, 19
1, 118812, Control_c, 0, 64, 19
1, 118856, Control_c, 0, 64, 18
1, 118859, Note_off_c, 0, 41, 54
1, 118910, Note_off_c, 0, 57, 53
1, 119521, Note_on_c, 0, 53, 51
1, 119532, Note_on_c, 0, 41, 35
1, 119549, Note_on_c, 0, 34, 28
1, 119645, Note_off_c, 0, 36, 40
1, 119664, Note_off_c, 0, 52, 58
1, 120093, Note_on_c, 0, 45, 38
1, 120107, Note_on_c, 0, 38, 16
1, 120120, Note_on_c, 0, 35, 24
1, 120256, Note_off_c, 0, 41, 41
1, 120279, Note_off_c, 0, 53, 63
1, 120287, Note_off_c, 0, 34, 39
1, 121941, Note_off_c, 0, 38, 35
1, 121959, Note_off_c, 0, 35, 34
1, 122723, Note_on_c, 0, 39, 21
1, 122772, Note_off_c, 0, 39, 40
1, 122879, Poly_aftertouch_c, 0, 39, 127
1, 122910, Poly_aftertouch_c, 0, 39, 0
1, 122941, Note_on_c, 0, 39, 36
1, 122980, Note_off_c, 0, 39, 62
1, 123038, Control_c, 0, 64, 17
1, 123059, Note_on_c, 0, 37, 50
1, 123092, Note_off_c, 0, 37, 60
1, 123113, Control_c, 0, 64, 16
1, 123181, Note_on_c, 0, 37, 42
1, 123217, Note_off_c, 0, 37, 51
1, 123261, Control_c, 0, 64, 15
1, 123268, Note_on_c, 0, 37, 57
1, 123276, Control_c, 0, 64, 13
1, 123291, Control_c, 0, 64, 0
1, 123301, Note_off_c, 0, 37, 62
1, 123364, Note_on_c, 0, 39, 55
1, 123406, Note_off_c, 0, 39, 63
1, 123476, Note_on_c, 0, 39, 55
1, 123514, Note_off_c, 0, 39, 64
1, 123582, Note_on_c, 0, 39, 73
1, 123608, Note_off_c, 0, 39, 65
1, 123685, Note_on_c, 0, 37, 53
1, 123716, Note_off_c, 0, 37, 59
1, 123771, Note_on_c, 0, 37, 57
1, 123804, Note_off_c, 0, 37, 62
1, 123867, Note_on_c, 0, 37, 65
1, 123901, Note_off_c, 0, 37, 64
1, 123962, Note_on_c, 0, 43, 75
1, 123990, Note_off_c, 0, 43, 64
1, 124061, Note_on_c, 0, 41, 58
1, 124093, Note_off_c, 0, 41, 64
1, 124161, Note_on_c, 0, 42, 77
1, 124186, Note_off_c, 0, 42, 66
1, 124248, Note_on_c, 0, 42, 70
1, 124275, Note_off_c, 0, 42, 62
1, 124360, Note_on_c, 0, 40, 59
1, 124391, Note_off_c, 0, 40, 64
1, 124454, Note_on_c, 0, 41, 73
1, 124481, Note_off_c, 0, 41, 65
1, 124543, Note_on_c, 0, 41, 68
1, 124585, Note_off_c, 0, 41, 59
1, 124667, Note_on_c, 0, 39, 30
1, 124708, Note_off_c, 0, 39, 45
1, 124754, Note_on_c, 0, 40, 62
1, 124787, Note_off_c, 0, 40, 65
1, 124864, Note_on_c, 0, 40, 55
1, 124902, Note_off_c, 0, 40, 60
1, 124961, Note_on_c, 0, 38, 50
1, 124992, Note_off_c, 0, 38, 58
1, 125062, Note_on_c, 0, 39, 61
1, 125092, Note_off_c, 0, 39, 64
1, 125173, Note_on_c, 0, 39, 47
1, 125204, Note_off_c, 0, 39, 57
1, 125258, Note_on_c, 0, 37, 40
1, 125293, Note_off_c, 0, 37, 53
1, 125363, Note_on_c, 0, 38, 57
1, 125472, Note_on_c, 0, 34, 42
1, 125525, Note_off_c, 0, 34, 57
1, 125596, Note_on_c, 0, 35, 29
1, 125646, Note_off_c, 0, 35, 50
1, 125661, Note_on_c, 0, 36, 13
1, 125773, Note_off_c, 0, 36, 56
1, 125814, Note_on_c, 0, 34, 53
1, 125863, Note_off_c, 0, 34, 53
1, 125907, Note_on_c, 0, 35, 55
1, 125942, Note_off_c, 0, 35, 61
1, 126010, Note_on_c, 0, 36, 65
1, 126090, Note_off_c, 0, 36, 59
1, 126121, Note_on_c, 0, 34, 53
1, 126164, Note_off_c, 0, 34, 60
1, 126234, Note_on_c, 0, 35, 59
1, 126285, Note_off_c, 0, 35, 60
1, 126370, Note_on_c, 0, 36, 67
1, 126467, Note_off_c, 0, 36, 61
1, 126544, Note_on_c, 0, 33, 52
1, 126624, Note_off_c, 0, 33, 54
1, 126734, Note_on_c, 0, 34, 50
1, 126822, Note_off_c, 0, 34, 52
1, 126999, Note_on_c, 0, 35, 34
1, 127271, Note_on_c, 0, 43, 45
1, 127438, Note_off_c, 0, 45, 35
1, 127609, Note_on_c, 0, 44, 40
1, 127772, Note_off_c, 0, 43, 35
1, 128240, Note_on_c, 0, 45, 34
1, 128420, Note_off_c, 0, 44, 35
1, 131427, Note_on_c, 0, 57, 47
1, 131462, Note_off_c, 0, 57, 64
1, 131555, Note_on_c, 0, 57, 48
1, 131581, Note_off_c, 0, 57, 58
1, 131681, Note_on_c, 0, 59, 61
1, 131711, Note_off_c, 0, 59, 66
1, 131782, Note_on_c, 0, 59, 61
1, 131812, Note_off_c, 0, 59, 65
1, 131918, Note_on_c, 0, 62, 75
1, 131924, Note_on_c, 0, 51, 68
1, 131945, Note_off_c, 0, 62, 67
1, 131956, Note_off_c, 0, 51, 66
1, 132026, Note_on_c, 0, 51, 65
1, 132033, Note_on_c, 0, 62, 62
1, 132057, Note_off_c, 0, 51, 65
1, 132151, Note_on_c, 0, 53, 61
1, 132183, Note_off_c, 0, 53, 65
1, 132256, Note_on_c, 0, 53, 61
1, 132287, Note_off_c, 0, 53, 64
1, 132383, Note_on_c, 0, 56, 78
1, 132411, Note_off_c, 0, 56, 68
1, 132500, Note_on_c, 0, 56, 56
1, 132522, Note_off_c, 0, 56, 60
1, 132595, Note_on_c, 0, 56, 63
1, 132629, Note_off_c, 0, 56, 64
1, 132702, Note_on_c, 0, 56, 61
1, 132738, Note_off_c, 0, 56, 63
1, 132816, Note_on_c, 0, 56, 56
1, 132848, Note_off_c, 0, 56, 64
1, 132941, Note_on_c, 0, 56, 41
1, 132970, Note_off_c, 0, 56, 53
1, 133061, Note_on_c, 0, 56, 41
1, 133093, Note_off_c, 0, 56, 52
1, 133272, Note_on_c, 0, 56, 34
1, 133314, Note_off_c, 0, 56, 62
1, 133358, Note_off_c, 0, 62, 37
1, 133400, Note_on_c, 0, 59, 44
1, 133432, Note_off_c, 0, 59, 58
1, 133509, Note_on_c, 0, 61, 52
1, 133540, Note_off_c, 0, 61, 63
1, 133614, Note_on_c, 0, 64, 60
1, 133645, Note_off_c, 0, 64, 65
1, 133720, Note_on_c, 0, 66, 68
1, 133747, Note_off_c, 0, 66, 65
1, 133831, Note_on_c, 0, 69, 66
1, 133859, Note_off_c, 0, 69, 67
1, 133945, Note_on_c, 0, 72, 71
1, 133981, Note_off_c, 0, 72, 60
1, 134054, Note_on_c, 0, 69, 65
1, 134080, Note_off_c, 0, 69, 65
1, 134155, Note_on_c, 0, 66, 60
1, 134191, Note_off_c, 0, 66, 61
1, 134261, Note_on_c, 0, 64, 59
1, 134291, Note_off_c, 0, 64, 65
1, 134374, Note_on_c, 0, 61, 62
1, 134404, Note_off_c, 0, 61, 66
1, 134478, Note_on_c, 0, 59, 50
1, 134512, Note_off_c, 0, 59, 64
1, 134570, Note_off_c, 0, 38, 21
1, 134590, Note_on_c, 0, 56, 55
1, 134591, Note_off_c, 0, 35, 41
1, 134600, Note_off_c, 0, 45, 51
1, 134629, Note_off_c, 0, 56, 64
1, 134700, Note_on_c, 0, 59, 54
1, 134729, Note_off_c, 0, 59, 64
1, 134801, Note_on_c, 0, 61, 57
1, 134833, Note_off_c, 0, 61, 65
1, 134899, Note_on_c, 0, 64, 62
1, 134931, Note_off_c, 0, 64, 65
1, 135013, Note_on_c, 0, 66, 69
1, 135017, Note_on_c, 0, 46, 50
1, 135018, Note_on_c, 0, 50, 52
1, 135027, Note_on_c, 0, 42, 46
1, 135042, Note_off_c, 0, 66, 65
1, 135093, Note_off_c, 0, 50, 54
1, 135116, Note_on_c, 0, 69, 67
1, 135123, Note_on_c, 0, 45, 37
1, 135131, Note_on_c, 0, 49, 38
1, 135143, Note_off_c, 0, 69, 67
1, 135219, Note_on_c, 0, 72, 59
1, 135250, Note_off_c, 0, 72, 65
1, 135278, Note_off_c, 0, 46, 20
1, 135320, Note_on_c, 0, 69, 63
1, 135349, Note_off_c, 0, 69, 67
1, 135433, Note_on_c, 0, 66, 59
1, 135466, Note_off_c, 0, 66, 63
1, 135539, Note_on_c, 0, 64, 59
1, 135576, Note_off_c, 0, 64, 65
1, 135607, Note_off_c, 0, 45, 60
1, 135614, Note_off_c, 0, 49, 62
1, 135636, Note_off_c, 0, 42, 63
1, 135647, Note_on_c, 0, 61, 81
1, 135752, Note_on_c, 0, 60, 72
1, 135754, Note_off_c, 0, 61, 62
1, 135785, Note_off_c, 0, 60, 69
1, 135867, Note_on_c, 0, 48, 48
1, 135871, Note_on_c, 0, 41, 46
1, 135871, Note_on_c, 0, 60, 78
1, 135877, Note_on_c, 0, 38, 42
1, 135898, Note_off_c, 0, 60, 68
1, 135977, Note_on_c, 0, 60, 66
1, 135997, Note_off_c, 0, 60, 63
1, 136035, Note_off_c, 0, 48, 36
1, 136089, Note_on_c, 0, 60, 50
1, 136121, Note_off_c, 0, 60, 60
1, 136208, Note_on_c, 0, 60, 49
1, 136235, Note_off_c, 0, 60, 55
1, 136319, Note_on_c, 0, 48, 72
1, 136351, Note_off_c, 0, 48, 66
1, 136428, Note_on_c, 0, 48, 61
1, 136456, Note_off_c, 0, 48, 63
1, 136539, Note_on_c, 0, 48, 50
1, 136567, Note_off_c, 0, 48, 54
1, 136649, Note_on_c, 0, 48, 46
1, 136770, Note_on_c, 0, 60, 76
1, 136797, Note_off_c, 0, 60, 67
1, 136887, Note_on_c, 0, 60, 64
1, 136907, Note_off_c, 0, 60, 63
1, 136986, Note_on_c, 0, 60, 60
1, 137017, Note_off_c, 0, 60, 66
1, 137043, Note_off_c, 0, 48, 38
1, 137101, Note_on_c, 0, 60, 51
1, 137126, Note_off_c, 0, 60, 57
1, 137215, Note_on_c, 0, 48, 70
1, 137244, Note_off_c, 0, 48, 65
1, 137319, Note_on_c, 0, 48, 56
1, 137353, Note_off_c, 0, 48, 64
1, 137444, Note_on_c, 0, 48, 41
1, 137474, Note_off_c, 0, 48, 51
1, 137549, Note_on_c, 0, 48, 39
1, 137673, Note_on_c, 0, 60, 76
1, 137701, Note_off_c, 0, 60, 68
1, 137795, Note_on_c, 0, 60, 54
1, 137819, Note_off_c, 0, 60, 59
1, 137893, Note_on_c, 0, 62, 75
1, 137922, Note_off_c, 0, 62, 67
1, 138000, Note_on_c, 0, 62, 62
1, 138022, Note_off_c, 0, 62, 62
1, 138120, Note_on_c, 0, 65, 85
1, 138123, Note_on_c, 0, 54, 81
1, 138149, Note_off_c, 0, 54, 68
1, 138149, Note_off_c, 0, 65, 63
1, 138220, Note_on_c, 0, 65, 75
1, 138222, Note_on_c, 0, 54, 73
1, 138253, Note_off_c, 0, 54, 67
1, 138338, Note_on_c, 0, 56, 72
1, 138375, Note_off_c, 0, 56, 67
1, 138444, Note_on_c, 0, 56, 68
1, 138478, Note_off_c, 0, 56, 66
1, 138565, Note_on_c, 0, 59, 86
1, 138599, Note_off_c, 0, 59, 64
1, 138673, Note_on_c, 0, 59, 54
1, 138695, Note_off_c, 0, 59, 63
1, 138775, Note_on_c, 0, 59, 61
1, 138807, Note_off_c, 0, 59, 65
1, 138885, Note_on_c, 0, 59, 62
1, 138916, Note_off_c, 0, 59, 65
1, 138989, Note_on_c, 0, 59, 64
1, 139021, Note_off_c, 0, 59, 65
1, 139093, Note_on_c, 0, 59, 59
1, 139135, Note_off_c, 0, 59, 63
1, 139212, Note_on_c, 0, 59, 58
1, 139242, Note_off_c, 0, 59, 65
1, 139330, Note_on_c, 0, 59, 44
1, 139356, Note_off_c, 0, 59, 53
1, 139446, Note_on_c, 0, 59, 32
1, 139461, Note_off_c, 0, 65, 43
1, 139481, Note_off_c, 0, 59, 42
1, 139538, Note_on_c, 0, 61, 46
1, 139566, Note_off_c, 0, 61, 59
1, 139641, Note_on_c, 0, 64, 53
1, 139667, Note_off_c, 0, 64, 62
1, 139740, Note_on_c, 0, 67, 62
1, 139761, Note_off_c, 0, 67, 63
1, 139796, Note_off_c, 0, 41, 56
1, 139801, Note_off_c, 0, 38, 49
1, 139818, Note_off_c, 0, 48, 62
1, 139856, Note_on_c, 0, 70, 70
1, 139883, Note_off_c, 0, 70, 69
1, 139959, Note_on_c, 0, 73, 75
1, 139982, Note_off_c, 0, 73, 69
1, 140062, Note_on_c, 0, 77, 68
1, 140099, Note_off_c, 0, 77, 58
1, 140153, Note_on_c, 0, 80, 74
1, 140184, Note_off_c, 0, 80, 64
1, 140253, Note_on_c, 0, 96, 118
1, 140257, Note_on_c, 0, 92, 95
1, 140259, Note_on_c, 0, 88, 92
1, 140262, Note_on_c, 0, 84, 93
1, 140274, Control_c, 0, 64, 44
1, 140285, Note_on_c, 0, 79, 49
1, 140286, Note_off_c, 0, 79, 127
1, 140289, Note_off_c, 0, 96, 70
1, 140289, Control_c, 0, 64, 82
1, 140290, Note_on_c, 0, 83, 40
1, 140291, Note_off_c, 0, 83, 127
1, 140292, Note_off_c, 0, 92, 60
1, 140304, Note_off_c, 0, 84, 65
1, 140304, Control_c, 0, 64, 127
1, 140320, Note_off_c, 0, 88, 64
1, 140389, Note_on_c, 0, 80, 40
1, 140396, Note_on_c, 0, 79, 50
1, 140417, Note_off_c, 0, 79, 61
1, 140417, Note_off_c, 0, 80, 55
1, 140469, Note_on_c, 0, 77, 77
1, 140505, Note_off_c, 0, 77, 61
1, 140526, Control_c, 0, 64, 112
1, 140541, Control_c, 0, 64, 97
1, 140555, Control_c, 0, 64, 91
1, 140570, Control_c, 0, 64, 85
1, 140579, Note_on_c, 0, 73, 72
1, 140585, Control_c, 0, 64, 77
1, 140596, Note_off_c, 0, 73, 68
1, 140608, Control_c, 0, 64, 69
1, 140623, Control_c, 0, 64, 62
1, 140637, Control_c, 0, 64, 57
1, 140652, Control_c, 0, 64, 49
1, 140667, Control_c, 0, 64, 30
1, 140682, Note_on_c, 0, 70, 73
1, 140682, Control_c, 0, 64, 0
1, 140721, Note_off_c, 0, 70, 61
1, 140785, Note_on_c, 0, 67, 60
1, 140825, Note_off_c, 0, 67, 64
1, 140901, Note_on_c, 0, 64, 62
1, 140936, Note_off_c, 0, 64, 62
1, 140988, Note_on_c, 0, 61, 66
1, 141026, Note_off_c, 0, 61, 60
1, 141105, Note_on_c, 0, 41, 60
1, 141105, Note_on_c, 0, 47, 60
1, 141114, Note_on_c, 0, 38, 48
1, 141116, Note_on_c, 0, 59, 62
1, 141151, Note_off_c, 0, 59, 61
1, 141214, Note_on_c, 0, 61, 57
1, 141255, Note_off_c, 0, 61, 60
1, 141320, Note_on_c, 0, 48, 76
1, 141333, Note_on_c, 0, 64, 60
1, 141363, Note_off_c, 0, 47, 62
1, 141381, Note_off_c, 0, 64, 59
1, 141445, Note_on_c, 0, 67, 62
1, 141473, Note_off_c, 0, 67, 65
1, 141505, Control_c, 0, 64, 38
1, 141520, Control_c, 0, 64, 57
1, 141534, Control_c, 0, 64, 70
1, 141544, Note_off_c, 0, 38, 62
1, 141549, Control_c, 0, 64, 127
1, 141550, Note_on_c, 0, 70, 75
1, 141582, Note_off_c, 0, 41, 62
1, 141588, Note_off_c, 0, 70, 60
1, 141622, Note_off_c, 0, 48, 62
1, 141652, Note_on_c, 0, 73, 83
1, 141689, Note_off_c, 0, 73, 62
1, 141753, Note_on_c, 0, 77, 92
1, 141795, Note_off_c, 0, 77, 65
1, 141854, Note_on_c, 0, 80, 81
1, 141899, Note_off_c, 0, 80, 62
1, 141963, Note_on_c, 0, 96, 123
1, 141965, Note_on_c, 0, 88, 105
1, 141965, Note_on_c, 0, 92, 109
1, 141968, Note_on_c, 0, 84, 91
1, 141987, Note_on_c, 0, 86, 66
1, 141988, Note_off_c, 0, 86, 127
1, 141998, Note_off_c, 0, 96, 70
1, 142006, Note_off_c, 0, 84, 64
1, 142008, Note_off_c, 0, 92, 67
1, 142009, Control_c, 0, 64, 65
1, 142018, Note_on_c, 0, 81, 9
1, 142019, Note_off_c, 0, 81, 127
1, 142024, Control_c, 0, 64, 0
1, 142051, Note_off_c, 0, 88, 43
1, 142084, Note_on_c, 0, 80, 70
1, 142149, Note_off_c, 0, 80, 60
1, 142179, Note_on_c, 0, 77, 76
1, 142219, Note_off_c, 0, 77, 61
1, 142287, Note_on_c, 0, 73, 79
1, 142314, Note_off_c, 0, 73, 66
1, 142399, Note_on_c, 0, 70, 79
1, 142431, Note_off_c, 0, 70, 66
1, 142515, Note_on_c, 0, 67, 62
1, 142542, Note_off_c, 0, 67, 66
1, 142623, Note_on_c, 0, 64, 71
1, 142647, Note_off_c, 0, 64, 68
1, 142709, Note_on_c, 0, 61, 74
1, 142744, Note_off_c, 0, 61, 61
1, 142828, Note_on_c, 0, 59, 82
1, 142831, Note_on_c, 0, 47, 77
1, 142831, Note_on_c, 0, 41, 77
1, 142833, Note_on_c, 0, 38, 73
1, 142859, Note_on_c, 0, 48, 49
1, 142860, Note_off_c, 0, 48, 127
1, 142873, Note_off_c, 0, 59, 63
1, 142931, Note_on_c, 0, 61, 73
1, 142979, Note_off_c, 0, 61, 60
1, 143046, Note_on_c, 0, 48, 85
1, 143052, Note_on_c, 0, 64, 69
1, 143067, Note_off_c, 0, 47, 63
1, 143091, Note_off_c, 0, 64, 61
1, 143156, Note_on_c, 0, 67, 73
1, 143184, Note_off_c, 0, 67, 66
1, 143202, Note_off_c, 0, 38, 61
1, 143210, Control_c, 0, 64, 53
1, 143225, Control_c, 0, 64, 87
1, 143240, Control_c, 0, 64, 127
1, 143249, Note_off_c, 0, 41, 59
1, 143271, Note_on_c, 0, 70, 80
1, 143282, Note_off_c, 0, 48, 63
1, 143299, Note_off_c, 0, 70, 61
1, 143373, Note_on_c, 0, 73, 96
1, 143406, Note_off_c, 0, 73, 68
1, 143472, Note_on_c, 0, 77, 103
1, 143512, Note_off_c, 0, 77, 67
1, 143571, Note_on_c, 0, 80, 91
1, 143616, Note_off_c, 0, 80, 67
1, 143691, Note_on_c, 0, 96, 121
1, 143693, Note_on_c, 0, 92, 99
1, 143694, Note_on_c, 0, 88, 100
1, 143696, Note_on_c, 0, 84, 109
1, 143706, Note_on_c, 0, 86, 76
1, 143720, Note_off_c, 0, 86, 43
1, 143722, Note_on_c, 0, 81, 52
1, 143723, Note_off_c, 0, 81, 127
1, 143727, Note_on_c, 0, 94, 39
1, 143728, Note_off_c, 0, 94, 127
1, 143728, Note_off_c, 0, 92, 44
1, 143729, Note_off_c, 0, 96, 70
1, 143732, Note_off_c, 0, 84, 69
1, 143736, Control_c, 0, 64, 78
1, 143741, Note_on_c, 0, 89, 20
1, 143742, Note_off_c, 0, 89, 127
1, 143750, Note_off_c, 0, 88, 64
1, 143751, Control_c, 0, 64, 45
1, 143766, Control_c, 0, 64, 0
1, 143811, Note_on_c, 0, 80, 79
1, 143848, Note_off_c, 0, 80, 63
1, 143854, Note_on_c, 0, 81, 28
1, 143855, Note_off_c, 0, 81, 127
1, 143913, Note_on_c, 0, 77, 71
1, 143949, Note_off_c, 0, 77, 66
1, 144012, Note_on_c, 0, 73, 85
1, 144041, Note_off_c, 0, 73, 65
1, 144115, Note_on_c, 0, 70, 89
1, 144155, Note_off_c, 0, 70, 62
1, 144222, Note_on_c, 0, 67, 83
1, 144256, Note_off_c, 0, 67, 65
1, 144327, Note_on_c, 0, 64, 86
1, 144365, Note_off_c, 0, 64, 65
1, 144453, Note_on_c, 0, 62, 51
1, 144477, Note_off_c, 0, 62, 57
1, 144541, Note_on_c, 0, 59, 104
1, 144550, Note_on_c, 0, 41, 64
1, 144550, Note_on_c, 0, 47, 70
1, 144557, Note_on_c, 0, 38, 61
1, 144650, Note_on_c, 0, 60, 80
1, 144665, Note_off_c, 0, 59, 64
1, 144699, Note_off_c, 0, 60, 64
1, 144733, Note_on_c, 0, 48, 53
1, 144742, Note_off_c, 0, 47, 61
1, 144757, Note_on_c, 0, 60, 87
1, 144781, Note_off_c, 0, 48, 63
1, 144789, Note_off_c, 0, 60, 70
1, 144864, Note_on_c, 0, 60, 89
1, 144888, Note_off_c, 0, 60, 68
1, 144969, Note_on_c, 0, 48, 97
1, 145008, Note_off_c, 0, 48, 67
1, 145072, Note_on_c, 0, 48, 80
1, 145124, Note_off_c, 0, 48, 60
1, 145192, Note_on_c, 0, 48, 74
1, 145222, Note_off_c, 0, 48, 64
1, 145285, Note_on_c, 0, 48, 83
1, 145411, Note_on_c, 0, 59, 103
1, 145528, Note_on_c, 0, 60, 81
1, 145539, Note_off_c, 0, 59, 64
1, 145554, Note_off_c, 0, 48, 59
1, 145578, Note_off_c, 0, 60, 66
1, 145641, Note_on_c, 0, 60, 80
1, 145663, Note_off_c, 0, 60, 72
1, 145738, Note_on_c, 0, 60, 92
1, 145772, Note_off_c, 0, 60, 67
1, 145854, Note_on_c, 0, 48, 97
1, 145887, Note_off_c, 0, 48, 65
1, 145958, Note_on_c, 0, 48, 78
1, 145983, Note_off_c, 0, 48, 67
1, 146056, Note_on_c, 0, 48, 65
1, 146090, Note_off_c, 0, 48, 64
1, 146164, Note_on_c, 0, 48, 60
1, 146295, Note_on_c, 0, 60, 50
1, 146416, Note_on_c, 0, 49, 41
1, 146427, Note_off_c, 0, 60, 54
1, 146498, Note_off_c, 0, 49, 57
1, 146516, Note_off_c, 0, 48, 34
1, 146518, Note_on_c, 0, 61, 56
1, 146554, Note_off_c, 0, 61, 65
1, 146635, Note_on_c, 0, 61, 52
1, 146659, Note_off_c, 0, 61, 59
1, 146742, Note_on_c, 0, 49, 73
1, 146769, Note_off_c, 0, 49, 66
1, 146844, Note_on_c, 0, 49, 53
1, 146873, Note_off_c, 0, 49, 63
1, 146951, Note_on_c, 0, 49, 62
1, 146986, Note_off_c, 0, 49, 63
1, 147073, Note_on_c, 0, 49, 44
1, 147166, Note_off_c, 0, 49, 0
1, 147189, Note_on_c, 0, 61, 56
1, 147204, Poly_aftertouch_c, 0, 49, 127
1, 147216, Note_off_c, 0, 61, 62
1, 147291, Note_on_c, 0, 61, 55
1, 147313, Note_off_c, 0, 61, 61
1, 147400, Note_on_c, 0, 61, 55
1, 147431, Note_off_c, 0, 61, 63
1, 147513, Note_on_c, 0, 61, 50
1, 147537, Note_off_c, 0, 61, 59
1, 147609, Note_on_c, 0, 61, 65
1, 147642, Note_off_c, 0, 61, 63
1, 147731, Note_on_c, 0, 61, 49
1, 147755, Note_off_c, 0, 61, 58
1, 147843, Note_on_c, 0, 61, 37
1, 147875, Note_off_c, 0, 61, 35
1, 147937, Note_on_c, 0, 61, 48
1, 147962, Note_off_c, 0, 61, 57
1, 148035, Note_on_c, 0, 61, 62
1, 148055, Note_off_c, 0, 38, 48
1, 148058, Note_off_c, 0, 41, 43
1, 148066, Note_off_c, 0, 61, 65
1, 148097, Poly_aftertouch_c, 0, 49, 0
1, 148141, Note_on_c, 0, 61, 62
1, 148173, Note_off_c, 0, 61, 65
1, 148247, Note_on_c, 0, 61, 50
1, 148271, Note_off_c, 0, 61, 58
1, 148346, Note_on_c, 0, 61, 64
1, 148355, Note_on_c, 0, 48, 38
1, 148367, Note_on_c, 0, 44, 29
1, 148381, Note_off_c, 0, 61, 62
1, 148504, Note_on_c, 0, 50, 68
1, 148538, Note_on_c, 0, 62, 44
1, 148567, Note_off_c, 0, 62, 61
1, 148648, Note_on_c, 0, 62, 56
1, 148670, Note_off_c, 0, 62, 61
1, 148746, Note_on_c, 0, 64, 66
1, 148775, Note_off_c, 0, 64, 67
1, 148831, Note_on_c, 0, 64, 79
1, 148864, Note_off_c, 0, 64, 66
1, 148966, Note_on_c, 0, 67, 78
1, 148972, Note_on_c, 0, 56, 70
1, 148998, Note_off_c, 0, 67, 63
1, 148999, Note_off_c, 0, 56, 63
1, 149054, Note_on_c, 0, 67, 72
1, 149061, Note_on_c, 0, 56, 71
1, 149094, Note_off_c, 0, 56, 65
1, 149176, Note_on_c, 0, 58, 74
1, 149212, Note_off_c, 0, 58, 64
1, 149279, Note_on_c, 0, 58, 68
1, 149314, Note_off_c, 0, 58, 63
1, 149400, Note_on_c, 0, 61, 65
1, 149430, Note_off_c, 0, 61, 65
1, 149496, Note_on_c, 0, 61, 59
1, 149534, Note_off_c, 0, 61, 60
1, 149615, Note_on_c, 0, 52, 72
1, 149631, Note_off_c, 0, 50, 54
1, 149635, Note_on_c, 0, 61, 58
1, 149670, Note_off_c, 0, 61, 63
1, 149742, Note_on_c, 0, 61, 58
1, 149775, Note_off_c, 0, 61, 62
1, 149866, Note_on_c, 0, 55, 68
1, 149872, Note_on_c, 0, 61, 52
1, 149917, Note_off_c, 0, 61, 59
1, 149986, Note_off_c, 0, 52, 57
1, 149997, Note_on_c, 0, 61, 53
1, 150023, Note_off_c, 0, 61, 62
1, 150094, Note_on_c, 0, 61, 70
1, 150124, Note_off_c, 0, 61, 63
1, 150147, Note_off_c, 0, 44, 41
1, 150166, Note_off_c, 0, 48, 54
1, 150198, Note_on_c, 0, 61, 72
1, 150234, Note_off_c, 0, 61, 62
1, 150308, Note_on_c, 0, 61, 77
1, 150347, Note_off_c, 0, 61, 63
1, 150412, Note_on_c, 0, 61, 78
1, 150451, Note_off_c, 0, 61, 61
1, 150526, Note_on_c, 0, 61, 62
1, 150543, Note_on_c, 0, 59, 75
1, 150561, Note_off_c, 0, 61, 62
1, 150573, Note_off_c, 0, 55, 64
1, 150625, Note_on_c, 0, 61, 71
1, 150660, Note_off_c, 0, 61, 59
1, 150757, Note_on_c, 0, 61, 65
1, 150769, Note_on_c, 0, 62, 68
1, 150790, Note_off_c, 0, 61, 62
1, 150826, Note_off_c, 0, 59, 62
1, 150866, Note_on_c, 0, 61, 66
1, 150903, Note_off_c, 0, 61, 62
1, 150985, Note_on_c, 0, 57, 69
1, 150993, Note_on_c, 0, 61, 61
1, 151024, Note_off_c, 0, 61, 64
1, 151043, Note_off_c, 0, 62, 58
1, 151106, Note_on_c, 0, 61, 56
1, 151132, Note_off_c, 0, 61, 61
1, 151223, Note_on_c, 0, 61, 53
1, 151227, Note_on_c, 0, 53, 62
1, 151270, Note_off_c, 0, 61, 59
1, 151276, Note_off_c, 0, 57, 61
1, 151345, Note_on_c, 0, 61, 50
1, 151383, Note_off_c, 0, 61, 62
1, 151434, Note_off_c, 0, 53, 57
1, 151443, Note_on_c, 0, 47, 50
1, 151479, Note_on_c, 0, 61, 44
1, 151507, Note_off_c, 0, 61, 55
1, 151552, Note_on_c, 0, 49, 39
1, 151592, Note_off_c, 0, 47, 49
1, 151597, Note_on_c, 0, 61, 40
1, 151618, Note_on_c, 0, 50, 42
1, 151618, Note_off_c, 0, 67, 52
1, 151619, Note_off_c, 0, 49, 54
1, 151623, Note_off_c, 0, 61, 56
1, 151668, Note_on_c, 0, 54, 55
1, 151693, Note_off_c, 0, 50, 50
1, 151718, Note_on_c, 0, 61, 32
1, 151749, Note_off_c, 0, 61, 49
1, 151805, Note_on_c, 0, 61, 41
1, 151839, Note_off_c, 0, 61, 58
1, 151914, Note_on_c, 0, 61, 62
1, 151949, Note_off_c, 0, 61, 62
1, 152024, Note_on_c, 0, 61, 68
1, 152051, Note_off_c, 0, 61, 66
1, 152117, Note_on_c, 0, 61, 81
1, 152162, Note_off_c, 0, 61, 63
1, 152224, Note_on_c, 0, 61, 60
1, 152254, Note_off_c, 0, 61, 64
1, 152335, Note_on_c, 0, 63, 83
1, 152376, Note_off_c, 0, 63, 60
1, 152433, Note_on_c, 0, 63, 59
1, 152463, Note_off_c, 0, 63, 64
1, 152554, Note_on_c, 0, 66, 88
1, 152555, Note_on_c, 0, 55, 86
1, 152591, Note_off_c, 0, 55, 66
1, 152607, Note_off_c, 0, 66, 59
1, 152661, Note_on_c, 0, 66, 71
1, 152683, Note_on_c, 0, 55, 55
1, 152710, Note_off_c, 0, 55, 57
1, 152776, Note_on_c, 0, 57, 80
1, 152816, Note_off_c, 0, 57, 62
1, 152884, Note_on_c, 0, 57, 73
1, 152922, Note_off_c, 0, 57, 65
1, 152991, Note_on_c, 0, 60, 98
1, 153017, Note_off_c, 0, 66, 57
1, 153058, Note_off_c, 0, 60, 66
1, 153105, Note_on_c, 0, 60, 64
1, 153134, Note_off_c, 0, 60, 66
1, 153219, Note_on_c, 0, 60, 66
1, 153247, Note_off_c, 0, 60, 66
1, 153307, Note_on_c, 0, 60, 77
1, 153351, Note_off_c, 0, 60, 62
1, 153416, Note_on_c, 0, 81, 103
1, 153419, Note_on_c, 0, 78, 108
1, 153439, Note_on_c, 0, 60, 73
1, 153452, Note_off_c, 0, 81, 68
1, 153464, Note_off_c, 0, 78, 63
1, 153465, Note_off_c, 0, 60, 68
1, 153482, Note_off_c, 0, 54, 65
1, 153525, Note_on_c, 0, 55, 37
1, 153542, Note_on_c, 0, 60, 56
1, 153545, Note_on_c, 0, 62, 67
1, 153574, Note_off_c, 0, 62, 66
1, 153576, Note_off_c, 0, 60, 66
1, 153649, Note_on_c, 0, 60, 66
1, 153680, Note_off_c, 0, 60, 64
1, 153727, Note_on_c, 0, 60, 70
1, 153757, Note_off_c, 0, 60, 63
1, 153831, Note_on_c, 0, 77, 104
1, 153831, Note_on_c, 0, 81, 99
1, 153834, Note_off_c, 0, 55, 0
1, 153834, Note_on_c, 0, 55, 15
1, 153836, Note_on_c, 0, 60, 83
1, 153861, Note_off_c, 0, 60, 67
1, 153862, Note_off_c, 0, 77, 68
1, 153878, Note_off_c, 0, 55, 61
1, 153888, Note_on_c, 0, 79, 75
1, 153893, Note_on_c, 0, 75, 91
1, 153932, Note_off_c, 0, 81, 63
1, 153941, Note_on_c, 0, 60, 69
1, 153950, Note_on_c, 0, 78, 81
1, 153955, Note_off_c, 0, 75, 63
1, 153957, Note_on_c, 0, 74, 73
1, 153971, Note_off_c, 0, 79, 64
1, 153975, Note_off_c, 0, 60, 61
1, 153986, Note_on_c, 0, 76, 20
1, 154007, Note_off_c, 0, 76, 34
1, 154055, Note_on_c, 0, 60, 56
1, 154089, Note_off_c, 0, 60, 64
1, 154158, Note_on_c, 0, 60, 71
1, 154192, Note_off_c, 0, 60, 61
1, 154277, Note_on_c, 0, 60, 70
1, 154305, Note_off_c, 0, 60, 68
1, 154335, Note_off_c, 0, 74, 57
1, 154347, Note_off_c, 0, 78, 61
1, 154367, Note_on_c, 0, 60, 76
1, 154410, Note_off_c, 0, 60, 61
1, 154504, Note_on_c, 0, 60, 62
1, 154533, Note_off_c, 0, 60, 66
1, 154596, Note_on_c, 0, 60, 60
1, 154618, Note_off_c, 0, 60, 61
1, 154716, Note_on_c, 0, 35, 72
1, 154718, Note_on_c, 0, 48, 69
1, 154746, Note_off_c, 0, 48, 66
1, 154823, Note_on_c, 0, 47, 61
1, 154865, Note_off_c, 0, 47, 63
1, 154941, Note_on_c, 0, 47, 66
1, 154977, Note_off_c, 0, 47, 65
1, 155062, Note_on_c, 0, 47, 54
1, 155087, Note_off_c, 0, 47, 59
1, 155157, Note_on_c, 0, 47, 71
1, 155194, Note_off_c, 0, 47, 64
1, 155278, Note_on_c, 0, 47, 70
1, 155311, Note_off_c, 0, 47, 62
1, 155343, Note_off_c, 0, 35, 36
1, 155380, Note_on_c, 0, 47, 75
1, 155411, Note_off_c, 0, 47, 67
1, 155507, Note_on_c, 0, 47, 52
1, 155534, Note_off_c, 0, 47, 53
1, 155597, Note_on_c, 0, 35, 82
1, 155599, Note_on_c, 0, 47, 93
1, 155635, Note_off_c, 0, 47, 63
1, 155714, Note_on_c, 0, 47, 63
1, 155745, Note_off_c, 0, 47, 64
1, 155817, Note_on_c, 0, 49, 92
1, 155852, Note_off_c, 0, 49, 63
1, 155910, Note_on_c, 0, 49, 76
1, 155955, Note_off_c, 0, 49, 60
1, 156032, Note_on_c, 0, 52, 89
1, 156055, Note_off_c, 0, 35, 60
1, 156067, Note_off_c, 0, 52, 65
1, 156135, Note_on_c, 0, 52, 77
1, 156166, Note_off_c, 0, 52, 65
1, 156273, Note_on_c, 0, 53, 36
1, 156277, Note_on_c, 0, 52, 27
1, 156307, Note_off_c, 0, 53, 33
1, 156313, Note_off_c, 0, 52, 33
1, 156381, Note_on_c, 0, 52, 44
1, 156410, Note_off_c, 0, 52, 50
1, 156457, Note_on_c, 0, 69, 68
1, 156466, Note_on_c, 0, 65, 57
1, 156478, Note_on_c, 0, 52, 55
1, 156501, Note_on_c, 0, 48, 44
1, 156526, Note_off_c, 0, 52, 56
1, 156597, Note_on_c, 0, 47, 47
1, 156605, Note_off_c, 0, 48, 63
1, 156610, Note_off_c, 0, 65, 64
1, 156614, Note_off_c, 0, 69, 65
1, 156624, Note_off_c, 0, 47, 54
1, 156676, Note_on_c, 0, 65, 97
1, 156677, Note_on_c, 0, 69, 96
1, 156679, Note_on_c, 0, 47, 90
1, 156726, Note_off_c, 0, 47, 63
1, 156781, Note_on_c, 0, 47, 88
1, 156800, Note_off_c, 0, 65, 64
1, 156800, Note_off_c, 0, 69, 66
1, 156827, Note_off_c, 0, 47, 65
1, 156891, Note_on_c, 0, 65, 105
1, 156893, Note_on_c, 0, 69, 100
1, 156903, Note_on_c, 0, 48, 96
1, 156905, Note_on_c, 0, 52, 91
1, 156928, Note_off_c, 0, 65, 64
1, 156944, Note_on_c, 0, 67, 79
1, 156955, Note_on_c, 0, 63, 81
1, 156982, Note_off_c, 0, 52, 58
1, 156982, Note_off_c, 0, 69, 62
1, 157006, Note_on_c, 0, 47, 71
1, 157006, Note_on_c, 0, 66, 81
1, 157008, Note_on_c, 0, 62, 85
1, 157016, Note_off_c, 0, 48, 60
1, 157023, Note_off_c, 0, 63, 63
1, 157026, Note_off_c, 0, 67, 64
1, 157037, Note_off_c, 0, 47, 66
1, 157053, Note_off_c, 0, 66, 65
1, 157055, Note_off_c, 0, 62, 68
1, 157113, Note_on_c, 0, 47, 81
1, 157148, Note_off_c, 0, 47, 64
1, 157208, Note_on_c, 0, 47, 73
1, 157253, Note_off_c, 0, 47, 60
1, 157333, Note_on_c, 0, 35, 97
1, 157336, Note_on_c, 0, 47, 72
1, 157386, Note_off_c, 0, 47, 59
1, 157405, Control_c, 0, 64, 62
1, 157420, Control_c, 0, 64, 85
1, 157435, Control_c, 0, 64, 127
1, 157437, Note_on_c, 0, 47, 71
1, 157488, Note_off_c, 0, 35, 60
1, 157488, Note_off_c, 0, 47, 62
1, 157549, Note_on_c, 0, 47, 88
1, 157590, Note_off_c, 0, 47, 66
1, 157646, Note_on_c, 0, 47, 95
1, 157692, Note_off_c, 0, 47, 65
1, 157753, Note_on_c, 0, 81, 111
1, 157754, Note_on_c, 0, 47, 97
1, 157758, Note_on_c, 0, 78, 96
1, 157769, Note_on_c, 0, 79, 88
1, 157785, Note_on_c, 0, 80, 50
1, 157788, Note_off_c, 0, 79, 72
1, 157790, Note_off_c, 0, 47, 66
1, 157791, Control_c, 0, 64, 79
1, 157792, Note_off_c, 0, 81, 70
1, 157804, Note_off_c, 0, 80, 41
1, 157806, Control_c, 0, 64, 29
1, 157815, Note_off_c, 0, 78, 62
1, 157828, Control_c, 0, 64, 0
1, 157867, Note_on_c, 0, 47, 90
1, 157902, Note_off_c, 0, 47, 63
1, 157974, Note_on_c, 0, 47, 84
1, 158002, Note_off_c, 0, 47, 65
1, 158061, Note_on_c, 0, 47, 81
1, 158086, Note_off_c, 0, 47, 68
1, 158189, Note_on_c, 0, 55, 99
1, 158191, Note_on_c, 0, 59, 95
1, 158193, Note_on_c, 0, 53, 87
1, 158195, Note_on_c, 0, 77, 101
1, 158195, Note_on_c, 0, 81, 109
1, 158202, Note_on_c, 0, 76, 85
1, 158214, Note_off_c, 0, 76, 71
1, 158216, Note_off_c, 0, 59, 68
1, 158224, Note_off_c, 0, 53, 65
1, 158225, Note_off_c, 0, 55, 63
1, 158231, Note_off_c, 0, 77, 58
1, 158251, Note_on_c, 0, 75, 84
1, 158256, Note_on_c, 0, 79, 73
1, 158301, Note_on_c, 0, 55, 76
1, 158308, Note_on_c, 0, 53, 70
1, 158309, Note_on_c, 0, 78, 86
1, 158310, Note_on_c, 0, 59, 68
1, 158316, Note_on_c, 0, 74, 86
1, 158317, Note_off_c, 0, 81, 57
1, 158328, Note_off_c, 0, 75, 64
1, 158332, Note_off_c, 0, 55, 64
1, 158338, Note_off_c, 0, 53, 65
1, 158338, Note_off_c, 0, 59, 66
1, 158339, Note_off_c, 0, 79, 64
1, 158417, Note_on_c, 0, 55, 61
1, 158420, Note_on_c, 0, 57, 70
1, 158422, Note_on_c, 0, 60, 76
1, 158448, Note_off_c, 0, 60, 69
1, 158450, Note_off_c, 0, 57, 67
1, 158455, Note_off_c, 0, 55, 64
1, 158523, Note_on_c, 0, 57, 68
1, 158527, Note_on_c, 0, 60, 75
1, 158530, Note_on_c, 0, 55, 70
1, 158556, Note_off_c, 0, 57, 67
1, 158556, Note_off_c, 0, 60, 65
1, 158562, Note_off_c, 0, 55, 64
1, 158647, Note_on_c, 0, 55, 67
1, 158648, Note_on_c, 0, 57, 76
1, 158653, Note_on_c, 0, 60, 78
1, 158678, Note_off_c, 0, 57, 67
1, 158681, Note_off_c, 0, 60, 65
1, 158684, Note_off_c, 0, 55, 66
1, 158759, Note_off_c, 0, 74, 60
1, 158767, Note_on_c, 0, 57, 69
1, 158767, Note_off_c, 0, 78, 61
1, 158781, Note_on_c, 0, 60, 60
1, 158783, Note_on_c, 0, 55, 52
1, 158799, Note_off_c, 0, 57, 66
1, 158802, Note_off_c, 0, 60, 64
1, 158809, Note_off_c, 0, 55, 56
1, 158866, Note_on_c, 0, 60, 79
1, 158870, Note_on_c, 0, 57, 63
1, 158876, Note_on_c, 0, 55, 69
1, 158890, Note_off_c, 0, 60, 70
1, 158897, Note_off_c, 0, 57, 66
1, 158907, Note_off_c, 0, 55, 63
1, 158974, Note_on_c, 0, 47, 77
1, 159006, Note_off_c, 0, 47, 67
1, 159075, Note_on_c, 0, 35, 93
1, 159077, Note_on_c, 0, 47, 94
1, 159122, Note_off_c, 0, 47, 64
1, 159182, Note_on_c, 0, 47, 73
1, 159220, Note_off_c, 0, 47, 63
1, 159298, Note_on_c, 0, 49, 85
1, 159349, Note_off_c, 0, 49, 61
1, 159402, Note_on_c, 0, 49, 69
1, 159452, Note_off_c, 0, 49, 61
1, 159525, Note_on_c, 0, 52, 89
1, 159569, Note_off_c, 0, 52, 66
1, 159632, Note_on_c, 0, 52, 80
1, 159673, Note_off_c, 0, 52, 59
1, 159742, Note_on_c, 0, 52, 80
1, 159793, Note_off_c, 0, 52, 61
1, 159807, Note_off_c, 0, 35, 59
1, 159833, Note_on_c, 0, 52, 65
1, 159899, Note_off_c, 0, 52, 64
1, 159956, Note_on_c, 0, 47, 73
1, 159970, Note_on_c, 0, 35, 87
1, 159994, Control_c, 0, 64, 60
1, 160001, Note_off_c, 0, 47, 61
1, 160009, Control_c, 0, 64, 85
1, 160022, Note_off_c, 0, 35, 61
1, 160024, Control_c, 0, 64, 127
1, 160093, Note_on_c, 0, 47, 71
1, 160124, Note_off_c, 0, 47, 64
1, 160195, Note_on_c, 0, 47, 76
1, 160244, Note_off_c, 0, 47, 60
1, 160303, Note_on_c, 0, 47, 69
1, 160347, Note_off_c, 0, 47, 63
1, 160415, Note_on_c, 0, 69, 91
1, 160417, Note_on_c, 0, 65, 89
1, 160422, Note_on_c, 0, 47, 81
1, 160431, Control_c, 0, 64, 86
1, 160446, Control_c, 0, 64, 52
1, 160449, Note_off_c, 0, 47, 59
1, 160454, Note_off_c, 0, 65, 61
1, 160460, Control_c, 0, 64, 0
1, 160469, Note_on_c, 0, 67, 65
1, 160477, Note_on_c, 0, 63, 71
1, 160502, Note_off_c, 0, 69, 59
1, 160520, Note_on_c, 0, 66, 74
1, 160540, Note_on_c, 0, 62, 72
1, 160540, Note_off_c, 0, 67, 62
1, 160541, Note_on_c, 0, 47, 65
1, 160547, Note_off_c, 0, 63, 64
1, 160567, Note_off_c, 0, 62, 71
1, 160570, Note_off_c, 0, 47, 64
1, 160575, Note_off_c, 0, 66, 63
1, 160651, Note_on_c, 0, 47, 64
1, 160680, Note_off_c, 0, 47, 65
1, 160741, Note_on_c, 0, 65, 75
1, 160741, Note_on_c, 0, 69, 74
1, 160742, Note_on_c, 0, 47, 66
1, 160765, Note_off_c, 0, 47, 62
1, 160769, Note_off_c, 0, 65, 66
1, 160771, Note_off_c, 0, 69, 64
1, 160859, Note_on_c, 0, 52, 93
1, 160862, Note_on_c, 0, 48, 88
1, 160862, Note_on_c, 0, 65, 90
1, 160866, Note_on_c, 0, 57, 85
1, 160949, Note_off_c, 0, 57, 60
1, 160962, Note_off_c, 0, 52, 63
1, 160967, Note_on_c, 0, 47, 71
1, 160981, Note_off_c, 0, 65, 62
1, 160983, Note_off_c, 0, 48, 63
1, 160997, Note_off_c, 0, 47, 64
1, 161081, Note_on_c, 0, 47, 69
1, 161085, Note_on_c, 0, 69, 92
1, 161087, Note_on_c, 0, 65, 89
1, 161113, Note_off_c, 0, 47, 64
1, 161117, Note_off_c, 0, 65, 64
1, 161126, Note_off_c, 0, 69, 64
1, 161174, Note_on_c, 0, 47, 75
1, 161197, Note_off_c, 0, 47, 66
1, 161295, Note_on_c, 0, 48, 98
1, 161296, Note_on_c, 0, 52, 92
1, 161298, Note_on_c, 0, 65, 98
1, 161299, Note_on_c, 0, 69, 98
1, 161340, Note_off_c, 0, 65, 65
1, 161342, Note_on_c, 0, 67, 74
1, 161357, Note_on_c, 0, 63, 77
1, 161377, Note_off_c, 0, 69, 60
1, 161390, Note_off_c, 0, 52, 56
1, 161401, Note_on_c, 0, 47, 78
1, 161410, Note_on_c, 0, 62, 84
1, 161411, Note_on_c, 0, 66, 77
1, 161421, Note_off_c, 0, 48, 62
1, 161424, Note_off_c, 0, 63, 65
1, 161433, Note_off_c, 0, 67, 62
1, 161435, Note_off_c, 0, 47, 65
1, 161459, Note_off_c, 0, 62, 67
1, 161459, Note_off_c, 0, 66, 64
1, 161516, Note_on_c, 0, 47, 92
1, 161545, Note_off_c, 0, 47, 66
1, 161624, Note_on_c, 0, 47, 94
1, 161657, Note_off_c, 0, 47, 63
1, 161731, Note_on_c, 0, 65, 100
1, 161731, Note_on_c, 0, 69, 102
1, 161732, Note_on_c, 0, 48, 100
1, 161733, Note_on_c, 0, 52, 94
1, 161768, Note_off_c, 0, 65, 66
1, 161787, Note_on_c, 0, 67, 71
1, 161810, Note_on_c, 0, 64, 70
1, 161824, Note_off_c, 0, 52, 57
1, 161837, Note_on_c, 0, 47, 78
1, 161837, Note_off_c, 0, 69, 58
1, 161844, Note_on_c, 0, 66, 80
1, 161849, Note_on_c, 0, 62, 83
1, 161856, Note_off_c, 0, 48, 64
1, 161859, Note_off_c, 0, 64, 64
1, 161859, Note_off_c, 0, 67, 63
1, 161876, Note_off_c, 0, 47, 62
1, 161890, Note_off_c, 0, 62, 66
1, 161891, Note_off_c, 0, 66, 64
1, 161952, Note_on_c, 0, 47, 87
1, 161981, Note_off_c, 0, 47, 65
1, 162051, Note_on_c, 0, 47, 81
1, 162089, Note_off_c, 0, 47, 58
1, 162160, Note_on_c, 0, 55, 90
1, 162160, Note_on_c, 0, 60, 91
1, 162160, Note_on_c, 0, 57, 87
1, 162180, Note_off_c, 0, 55, 71
1, 162186, Note_off_c, 0, 57, 68
1, 162198, Note_off_c, 0, 60, 67
1, 162261, Note_on_c, 0, 47, 80
1, 162291, Note_off_c, 0, 47, 67
1, 162389, Note_on_c, 0, 69, 100
1, 162393, Note_on_c, 0, 47, 83
1, 162393, Note_on_c, 0, 66, 90
1, 162405, Note_on_c, 0, 45, 62
1, 162413, Note_off_c, 0, 66, 71
1, 162418, Note_off_c, 0, 69, 68
1, 162420, Note_off_c, 0, 47, 67
1, 162427, Note_on_c, 0, 65, 42
1, 162428, Note_off_c, 0, 65, 127
1, 162430, Note_off_c, 0, 45, 58
1, 162480, Note_on_c, 0, 47, 86
1, 162508, Note_off_c, 0, 47, 65
1, 162600, Note_on_c, 0, 69, 108
1, 162601, Note_on_c, 0, 65, 98
1, 162604, Note_on_c, 0, 57, 98
1, 162604, Note_on_c, 0, 60, 97
1, 162607, Note_on_c, 0, 55, 87
1, 162631, Note_off_c, 0, 65, 65
1, 162633, Control_c, 0, 64, 57
1, 162639, Note_off_c, 0, 60, 60
1, 162642, Note_off_c, 0, 57, 66
1, 162647, Control_c, 0, 64, 82
1, 162657, Note_off_c, 0, 55, 61
1, 162659, Note_on_c, 0, 67, 76
1, 162662, Control_c, 0, 64, 127
1, 162666, Note_on_c, 0, 63, 90
1, 162699, Note_on_c, 0, 55, 71
1, 162699, Note_on_c, 0, 57, 84
1, 162705, Note_off_c, 0, 69, 58
1, 162714, Note_on_c, 0, 60, 64
1, 162714, Note_on_c, 0, 66, 90
1, 162717, Note_on_c, 0, 62, 90
1, 162721, Note_off_c, 0, 57, 70
1, 162726, Note_off_c, 0, 63, 62
1, 162726, Note_off_c, 0, 67, 63
1, 162729, Note_off_c, 0, 55, 61
1, 162730, Note_off_c, 0, 60, 66
1, 162756, Note_off_c, 0, 62, 66
1, 162756, Note_off_c, 0, 66, 64
1, 162766, Control_c, 0, 64, 78
1, 162780, Control_c, 0, 64, 45
1, 162795, Control_c, 0, 64, 0
1, 162825, Note_on_c, 0, 47, 94
1, 162859, Note_off_c, 0, 47, 63
1, 162918, Note_on_c, 0, 47, 91
1, 162965, Note_off_c, 0, 47, 65
1, 163041, Note_on_c, 0, 35, 102
1, 163043, Note_on_c, 0, 47, 95
1, 163045, Note_on_c, 0, 33, 93
1, 163048, Control_c, 0, 64, 66
1, 163070, Control_c, 0, 64, 127
1, 163086, Note_off_c, 0, 35, 64
1, 163095, Note_off_c, 0, 33, 66
1, 163102, Note_off_c, 0, 47, 64
1, 163170, Note_on_c, 0, 47, 97
1, 163215, Note_off_c, 0, 47, 64
1, 163249, Control_c, 0, 64, 83
1, 163264, Control_c, 0, 64, 53
1, 163278, Control_c, 0, 64, 0
1, 163282, Note_on_c, 0, 47, 99
1, 163325, Note_off_c, 0, 47, 67
1, 163388, Note_on_c, 0, 47, 96
1, 163430, Note_off_c, 0, 47, 63
1, 163489, Note_on_c, 0, 35, 110
1, 163495, Note_on_c, 0, 47, 98
1, 163501, Control_c, 0, 64, 66
1, 163516, Control_c, 0, 64, 127
1, 163522, Note_off_c, 0, 35, 66
1, 163546, Note_off_c, 0, 47, 63
1, 163570, Poly_aftertouch_c, 0, 36, 127
1, 163609, Note_on_c, 0, 47, 83
1, 163613, Poly_aftertouch_c, 0, 36, 0
1, 163646, Note_off_c, 0, 47, 63
1, 163716, Note_on_c, 0, 47, 93
1, 163753, Note_off_c, 0, 47, 64
1, 163809, Note_on_c, 0, 47, 94
1, 163862, Note_off_c, 0, 47, 63
1, 163933, Note_on_c, 0, 48, 94
1, 163933, Note_on_c, 0, 52, 93
1, 163938, Note_on_c, 0, 65, 107
1, 163938, Note_on_c, 0, 69, 102
1, 163952, Control_c, 0, 64, 105
1, 163968, Control_c, 0, 64, 67
1, 163972, Note_off_c, 0, 65, 67
1, 163983, Control_c, 0, 64, 0
1, 164003, Note_on_c, 0, 67, 77
1, 164006, Note_on_c, 0, 63, 84
1, 164026, Note_off_c, 0, 52, 61
1, 164038, Note_off_c, 0, 69, 59
1, 164045, Note_on_c, 0, 66, 78
1, 164058, Note_on_c, 0, 47, 78
1, 164066, Note_on_c, 0, 62, 84
1, 164071, Note_off_c, 0, 63, 65
1, 164073, Note_off_c, 0, 67, 63
1, 164076, Note_off_c, 0, 48, 61
1, 164097, Note_off_c, 0, 47, 62
1, 164111, Note_off_c, 0, 62, 67
1, 164115, Note_off_c, 0, 66, 65
1, 164172, Note_on_c, 0, 47, 82
1, 164204, Note_off_c, 0, 47, 66
1, 164280, Note_on_c, 0, 47, 68
1, 164309, Note_off_c, 0, 47, 63
1, 164442, Note_on_c, 0, 57, 52
1, 164447, Note_on_c, 0, 81, 89
1, 164458, Note_on_c, 0, 53, 29
1, 164461, Note_on_c, 0, 69, 70
1, 164642, Control_c, 0, 64, 39
1, 164657, Control_c, 0, 64, 58
1, 164672, Control_c, 0, 64, 65
1, 164687, Note_off_c, 0, 53, 0
1, 164687, Control_c, 0, 64, 72
1, 164697, Note_on_c, 0, 55, 93
1, 164701, Note_on_c, 0, 51, 87
1, 164701, Control_c, 0, 64, 87
1, 164716, Control_c, 0, 64, 127
1, 164725, Note_off_c, 0, 57, 61
1, 164752, Poly_aftertouch_c, 0, 53, 0
1, 164771, Note_off_c, 0, 51, 61
1, 164783, Note_off_c, 0, 55, 59
1, 164812, Note_on_c, 0, 50, 85
1, 164813, Note_off_c, 0, 69, 52
1, 164820, Note_on_c, 0, 54, 90
1, 164839, Note_on_c, 0, 55, 11
1, 164841, Note_off_c, 0, 54, 72
1, 164857, Note_off_c, 0, 50, 65
1, 164877, Note_off_c, 0, 55, 54
1, 164887, Poly_aftertouch_c, 0, 51, 0
1, 164947, Note_on_c, 0, 83, 104
1, 164955, Note_on_c, 0, 47, 66
1, 164957, Note_on_c, 0, 71, 90
1, 164983, Control_c, 0, 64, 105
1, 164998, Control_c, 0, 64, 81
1, 165013, Control_c, 0, 64, 66
1, 165014, Note_off_c, 0, 47, 58
1, 165028, Control_c, 0, 64, 57
1, 165042, Control_c, 0, 64, 31
1, 165057, Control_c, 0, 64, 0
1, 165062, Note_off_c, 0, 81, 64
1, 165078, Note_on_c, 0, 47, 77
1, 165132, Note_off_c, 0, 47, 64
1, 165146, Control_c, 0, 64, 48
1, 165161, Control_c, 0, 64, 64
1, 165170, Poly_aftertouch_c, 0, 47, 0
1, 165175, Control_c, 0, 64, 73
1, 165176, Note_on_c, 0, 47, 76
1, 165190, Control_c, 0, 64, 127
1, 165202, Note_off_c, 0, 71, 57
1, 165222, Note_off_c, 0, 47, 64
1, 165279, Note_on_c, 0, 47, 82
1, 165331, Note_off_c, 0, 47, 58
1, 165423, Note_on_c, 0, 86, 91
1, 165425, Note_on_c, 0, 47, 60
1, 165429, Note_on_c, 0, 74, 71
1, 165479, Control_c, 0, 64, 110
1, 165484, Note_off_c, 0, 47, 54
1, 165494, Control_c, 0, 64, 87
1, 165496, Note_off_c, 0, 83, 60
1, 165509, Control_c, 0, 64, 72
1, 165523, Control_c, 0, 64, 64
1, 165538, Control_c, 0, 64, 55
1, 165553, Control_c, 0, 64, 47
1, 165561, Note_on_c, 0, 47, 63
1, 165569, Control_c, 0, 64, 46
1, 165584, Control_c, 0, 64, 52
1, 165588, Note_off_c, 0, 47, 66
1, 165598, Control_c, 0, 64, 61
1, 165613, Control_c, 0, 64, 68
1, 165628, Control_c, 0, 64, 83
1, 165643, Control_c, 0, 64, 127
1, 165647, Note_on_c, 0, 47, 77
1, 165650, Note_off_c, 0, 86, 64
1, 165674, Note_off_c, 0, 74, 62
1, 165697, Note_off_c, 0, 47, 61
1, 165739, Note_on_c, 0, 47, 73
1, 165781, Note_off_c, 0, 47, 65
1, 165865, Note_on_c, 0, 47, 91
1, 165877, Note_on_c, 0, 65, 96
1, 165877, Note_on_c, 0, 69, 96
1, 165895, Control_c, 0, 64, 90
1, 165909, Note_off_c, 0, 47, 64
1, 165910, Control_c, 0, 64, 62
1, 165913, Note_off_c, 0, 65, 65
1, 165924, Control_c, 0, 64, 0
1, 165937, Note_on_c, 0, 67, 72
1, 165940, Note_on_c, 0, 63, 76
1, 165963, Note_off_c, 0, 69, 61
1, 165980, Note_on_c, 0, 66, 81
1, 165981, Note_on_c, 0, 47, 75
1, 165983, Note_on_c, 0, 62, 88
1, 165995, Note_off_c, 0, 67, 63
1, 165996, Note_off_c, 0, 63, 64
1, 166018, Note_off_c, 0, 47, 63
1, 166022, Note_off_c, 0, 62, 65
1, 166033, Note_off_c, 0, 66, 64
1, 166112, Note_on_c, 0, 47, 79
1, 166139, Note_off_c, 0, 47, 66
1, 166195, Note_on_c, 0, 47, 85
1, 166251, Note_off_c, 0, 47, 64
1, 166314, Note_on_c, 0, 35, 102
1, 166314, Note_on_c, 0, 47, 78
1, 166332, Control_c, 0, 64, 35
1, 166345, Note_off_c, 0, 35, 68
1, 166346, Control_c, 0, 64, 73
1, 166361, Control_c, 0, 64, 127
1, 166362, Note_off_c, 0, 47, 62
1, 166413, Note_on_c, 0, 47, 70
1, 166470, Note_off_c, 0, 47, 62
1, 166535, Note_on_c, 0, 49, 96
1, 166575, Note_off_c, 0, 49, 67
1, 166625, Note_on_c, 0, 49, 88
1, 166677, Note_off_c, 0, 49, 63
1, 166750, Note_on_c, 0, 52, 70
1, 166765, Note_on_c, 0, 90, 104
1, 166770, Note_on_c, 0, 78, 107
1, 166792, Control_c, 0, 64, 94
1, 166814, Control_c, 0, 64, 69
1, 166825, Note_off_c, 0, 52, 57
1, 166829, Control_c, 0, 64, 39
1, 166844, Control_c, 0, 64, 0
1, 166878, Note_on_c, 0, 52, 72
1, 166926, Note_off_c, 0, 52, 64
1, 166962, Control_c, 0, 64, 63
1, 166977, Control_c, 0, 64, 71
1, 166980, Note_on_c, 0, 52, 89
1, 166981, Note_off_c, 0, 78, 61
1, 166992, Control_c, 0, 64, 98
1, 167007, Control_c, 0, 64, 127
1, 167024, Note_off_c, 0, 52, 66
1, 167083, Note_on_c, 0, 52, 88
1, 167127, Note_off_c, 0, 52, 61
1, 167265, Note_on_c, 0, 65, 77
1, 167266, Note_on_c, 0, 69, 83
1, 167302, Note_on_c, 0, 93, 101
1, 167307, Note_on_c, 0, 81, 97
1, 167321, Note_off_c, 0, 90, 63
1, 167349, Control_c, 0, 64, 90
1, 167364, Control_c, 0, 64, 73
1, 167379, Control_c, 0, 64, 61
1, 167393, Control_c, 0, 64, 24
1, 167408, Control_c, 0, 64, 0
1, 167496, Note_off_c, 0, 65, 61
1, 167510, Control_c, 0, 64, 68
1, 167523, Note_on_c, 0, 67, 96
1, 167525, Control_c, 0, 64, 127
1, 167529, Note_on_c, 0, 63, 84
1, 167550, Note_off_c, 0, 69, 62
1, 167600, Poly_aftertouch_c, 0, 65, 127
1, 167602, Note_off_c, 0, 63, 63
1, 167607, Note_off_c, 0, 67, 62
1, 167622, Poly_aftertouch_c, 0, 65, 0
1, 167647, Note_on_c, 0, 66, 96
1, 167653, Note_on_c, 0, 62, 83
1, 167659, Note_on_c, 0, 67, 43
1, 167683, Note_off_c, 0, 93, 63
1, 167685, Note_off_c, 0, 66, 67
1, 167689, Note_off_c, 0, 67, 52
1, 167703, Note_off_c, 0, 62, 66
1, 167713, Note_off_c, 0, 81, 64
1, 167796, Note_on_c, 0, 88, 99
1, 167799, Note_on_c, 0, 48, 87
1, 167799, Note_on_c, 0, 76, 95
1, 167829, Control_c, 0, 64, 106
1, 167843, Control_c, 0, 64, 72
1, 167858, Control_c, 0, 64, 49
1, 167873, Control_c, 0, 64, 0
1, 167909, Note_on_c, 0, 47, 81
1, 167922, Note_off_c, 0, 48, 60
1, 167959, Note_off_c, 0, 47, 63
1, 168017, Note_on_c, 0, 47, 84
1, 168047, Note_off_c, 0, 47, 67
1, 168071, Note_off_c, 0, 76, 63
1, 168121, Note_on_c, 0, 47, 85
1, 168160, Note_off_c, 0, 47, 59
1, 168246, Note_on_c, 0, 85, 95
1, 168247, Note_on_c, 0, 73, 95
1, 168254, Note_on_c, 0, 52, 74
1, 168258, Note_on_c, 0, 50, 71
1, 168279, Note_off_c, 0, 52, 68
1, 168288, Note_off_c, 0, 50, 66
1, 168353, Note_on_c, 0, 52, 76
1, 168400, Note_off_c, 0, 88, 28
1, 168405, Note_off_c, 0, 52, 64
1, 168482, Note_on_c, 0, 54, 92
1, 168503, Control_c, 0, 64, 54
1, 168518, Control_c, 0, 64, 77
1, 168520, Note_off_c, 0, 54, 63
1, 168533, Control_c, 0, 64, 127
1, 168566, Note_off_c, 0, 85, 65
1, 168585, Note_on_c, 0, 54, 78
1, 168585, Note_off_c, 0, 73, 63
1, 168666, Control_c, 0, 64, 79
1, 168681, Control_c, 0, 64, 64
1, 168696, Control_c, 0, 64, 54
1, 168697, Note_off_c, 0, 54, 60
1, 168701, Note_on_c, 0, 57, 74
1, 168711, Control_c, 0, 64, 60
1, 168716, Note_on_c, 0, 78, 96
1, 168726, Control_c, 0, 64, 67
1, 168727, Note_on_c, 0, 66, 78
1, 168740, Control_c, 0, 64, 77
1, 168756, Control_c, 0, 64, 127
1, 168756, Note_off_c, 0, 57, 64
1, 168823, Note_on_c, 0, 35, 94
1, 168831, Note_off_c, 0, 66, 63
1, 168866, Note_off_c, 0, 78, 65
1, 168870, Note_off_c, 0, 35, 63
1, 168924, Note_on_c, 0, 35, 89
1, 168926, Note_on_c, 0, 80, 105
1, 168968, Note_off_c, 0, 35, 64
1, 168983, Note_off_c, 0, 80, 61
1, 169025, Note_on_c, 0, 35, 90
1, 169027, Note_on_c, 0, 81, 104
1, 169039, Poly_aftertouch_c, 0, 73, 0
1, 169083, Note_off_c, 0, 35, 63
1, 169149, Control_c, 0, 64, 106
1, 169156, Note_on_c, 0, 36, 93
1, 169163, Control_c, 0, 64, 76
1, 169164, Note_on_c, 0, 85, 102
1, 169166, Note_on_c, 0, 73, 100
1, 169178, Control_c, 0, 64, 60
1, 169187, Note_off_c, 0, 81, 64
1, 169193, Control_c, 0, 64, 0
1, 169282, Note_on_c, 0, 35, 76
1, 169296, Note_off_c, 0, 36, 63
1, 169311, Control_c, 0, 64, 32
1, 169323, Note_off_c, 0, 35, 61
1, 169326, Control_c, 0, 64, 70
1, 169341, Control_c, 0, 64, 101
1, 169356, Control_c, 0, 64, 127
1, 169374, Note_off_c, 0, 85, 66
1, 169379, Note_off_c, 0, 73, 63
1, 169396, Note_on_c, 0, 35, 83
1, 169433, Note_off_c, 0, 35, 58
1, 169466, Note_on_c, 0, 35, 72
1, 169503, Note_off_c, 0, 35, 63
1, 169617, Note_on_c, 0, 57, 100
1, 169618, Note_on_c, 0, 69, 102
1, 169619, Note_on_c, 0, 65, 102
1, 169621, Note_on_c, 0, 55, 83
1, 169621, Note_on_c, 0, 60, 91
1, 169638, Control_c, 0, 64, 107
1, 169647, Note_off_c, 0, 60, 64
1, 169653, Control_c, 0, 64, 68
1, 169654, Note_off_c, 0, 65, 65
1, 169655, Note_off_c, 0, 57, 66
1, 169657, Note_off_c, 0, 55, 61
1, 169668, Control_c, 0, 64, 0
1, 169674, Note_on_c, 0, 67, 69
1, 169681, Note_on_c, 0, 63, 77
1, 169715, Note_on_c, 0, 60, 78
1, 169719, Note_on_c, 0, 57, 72
1, 169722, Note_on_c, 0, 55, 65
1, 169728, Note_off_c, 0, 69, 55
1, 169734, Note_on_c, 0, 66, 80
1, 169737, Note_off_c, 0, 60, 72
1, 169739, Note_on_c, 0, 62, 88
1, 169744, Note_off_c, 0, 57, 67
1, 169754, Note_off_c, 0, 55, 65
1, 169761, Note_off_c, 0, 63, 63
1, 169764, Note_off_c, 0, 67, 63
1, 169796, Note_off_c, 0, 62, 65
1, 169811, Note_off_c, 0, 66, 63
1, 169848, Note_on_c, 0, 47, 92
1, 169883, Note_off_c, 0, 47, 65
1, 169948, Note_on_c, 0, 47, 85
1, 169971, Note_off_c, 0, 47, 68
1, 170062, Note_on_c, 0, 65, 105
1, 170064, Note_on_c, 0, 69, 99
1, 170069, Note_on_c, 0, 57, 95
1, 170071, Note_on_c, 0, 60, 91
1, 170074, Note_on_c, 0, 55, 79
1, 170075, Control_c, 0, 64, 70
1, 170090, Control_c, 0, 64, 127
1, 170107, Note_off_c, 0, 65, 65
1, 170110, Note_off_c, 0, 57, 65
1, 170112, Note_off_c, 0, 60, 62
1, 170113, Note_off_c, 0, 55, 61
1, 170124, Note_on_c, 0, 67, 71
1, 170125, Note_on_c, 0, 63, 81
1, 170175, Note_on_c, 0, 57, 74
1, 170175, Note_on_c, 0, 66, 83
1, 170179, Note_on_c, 0, 55, 63
1, 170180, Note_off_c, 0, 69, 50
1, 170182, Note_on_c, 0, 62, 87
1, 170196, Note_off_c, 0, 57, 70
1, 170202, Note_off_c, 0, 63, 62
1, 170202, Note_off_c, 0, 67, 61
1, 170208, Note_off_c, 0, 55, 65
1, 170223, Control_c, 0, 64, 87
1, 170238, Control_c, 0, 64, 72
1, 170253, Control_c, 0, 64, 63
1, 170253, Note_off_c, 0, 62, 65
1, 170268, Control_c, 0, 64, 53
1, 170276, Note_off_c, 0, 66, 63
1, 170283, Control_c, 0, 64, 40
1, 170294, Note_on_c, 0, 47, 84
1, 170297, Control_c, 0, 64, 30
1, 170312, Control_c, 0, 64, 19
1, 170327, Control_c, 0, 64, 0
1, 170331, Note_off_c, 0, 47, 62
1, 170396, Note_on_c, 0, 47, 79
1, 170485, Note_off_c, 0, 47, 55
1, 170491, Control_c, 0, 64, 15
1, 170506, Control_c, 0, 64, 30
1, 170510, Note_on_c, 0, 83, 99
1, 170513, Note_on_c, 0, 71, 96
1, 170521, Control_c, 0, 64, 41
1, 170524, Note_on_c, 0, 48, 65
1, 170536, Control_c, 0, 64, 48
1, 170558, Control_c, 0, 64, 53
1, 170573, Control_c, 0, 64, 58
1, 170587, Control_c, 0, 64, 63
1, 170602, Control_c, 0, 64, 70
1, 170617, Control_c, 0, 64, 90
1, 170632, Control_c, 0, 64, 127
1, 170637, Note_on_c, 0, 47, 93
1, 170663, Note_off_c, 0, 48, 63
1, 170679, Note_off_c, 0, 47, 66
1, 170697, Note_off_c, 0, 71, 57
1, 170751, Note_on_c, 0, 35, 98
1, 170780, Control_c, 0, 64, 109
1, 170795, Note_off_c, 0, 35, 64
1, 170795, Control_c, 0, 64, 82
1, 170810, Control_c, 0, 64, 69
1, 170825, Control_c, 0, 64, 63
1, 170840, Control_c, 0, 64, 60
1, 170849, Note_on_c, 0, 35, 92
1, 170855, Control_c, 0, 64, 57
1, 170869, Control_c, 0, 64, 49
1, 170884, Control_c, 0, 64, 34
1, 170899, Control_c, 0, 64, 0
1, 170900, Note_off_c, 0, 35, 63
1, 170977, Note_on_c, 0, 88, 94
1, 170984, Note_on_c, 0, 76, 88
1, 170989, Note_on_c, 0, 36, 70
1, 171031, Note_off_c, 0, 83, 63
1, 171099, Note_on_c, 0, 35, 72
1, 171102, Note_off_c, 0, 36, 53
1, 171135, Control_c, 0, 64, 26
1, 171141, Note_off_c, 0, 35, 62
1, 171151, Control_c, 0, 64, 59
1, 171165, Control_c, 0, 64, 68
1, 171180, Control_c, 0, 64, 82
1, 171186, Note_off_c, 0, 88, 65
1, 171195, Control_c, 0, 64, 127
1, 171216, Note_on_c, 0, 35, 70
1, 171231, Note_off_c, 0, 76, 61
1, 171240, Note_off_c, 0, 35, 66
1, 171311, Note_on_c, 0, 35, 58
1, 171345, Note_off_c, 0, 35, 52
1, 171365, Control_c, 0, 64, 91
1, 171380, Control_c, 0, 64, 85
1, 171395, Control_c, 0, 64, 98
1, 171409, Control_c, 0, 64, 127
1, 171432, Note_on_c, 0, 77, 59
1, 171434, Note_on_c, 0, 81, 60
1, 171436, Note_on_c, 0, 50, 74
1, 171436, Note_on_c, 0, 56, 77
1, 171448, Note_on_c, 0, 46, 58
1, 171455, Note_off_c, 0, 77, 58
1, 171463, Note_off_c, 0, 56, 68
1, 171469, Note_off_c, 0, 50, 67
1, 171479, Note_on_c, 0, 79, 74
1, 171481, Note_off_c, 0, 46, 64
1, 171484, Note_on_c, 0, 75, 83
1, 171519, Note_off_c, 0, 81, 56
1, 171538, Note_on_c, 0, 51, 98
1, 171539, Note_on_c, 0, 57, 97
1, 171543, Note_on_c, 0, 47, 79
1, 171546, Note_on_c, 0, 78, 87
1, 171550, Note_on_c, 0, 74, 94
1, 171566, Note_off_c, 0, 47, 67
1, 171567, Note_off_c, 0, 51, 65
1, 171568, Note_off_c, 0, 75, 62
1, 171570, Note_off_c, 0, 57, 68
1, 171573, Control_c, 0, 64, 87
1, 171588, Note_off_c, 0, 79, 63
1, 171588, Control_c, 0, 64, 64
1, 171602, Control_c, 0, 64, 0
1, 171632, Poly_aftertouch_c, 0, 60, 0
1, 171635, Note_on_c, 0, 57, 102
1, 171636, Note_on_c, 0, 52, 96
1, 171636, Note_on_c, 0, 60, 101
1, 171656, Note_off_c, 0, 60, 71
1, 171660, Note_off_c, 0, 52, 68
1, 171667, Note_off_c, 0, 57, 71
1, 171673, Note_off_c, 0, 74, 61
1, 171732, Note_on_c, 0, 51, 101
1, 171732, Note_on_c, 0, 54, 79
1, 171732, Note_on_c, 0, 61, 106
1, 171754, Note_off_c, 0, 54, 70
1, 171770, Note_off_c, 0, 61, 62
1, 171778, Note_off_c, 0, 51, 65
1, 171779, Note_on_c, 0, 55, 43
1, 171780, Note_off_c, 0, 55, 127
1, 171785, Note_off_c, 0, 78, 64
1, 171839, Control_c, 0, 64, 14
1, 171844, Note_on_c, 0, 54, 68
1, 171845, Note_on_c, 0, 64, 109
1, 171852, Note_on_c, 0, 57, 69
1, 171853, Note_on_c, 0, 81, 99
1, 171854, Control_c, 0, 64, 127
1, 171862, Note_on_c, 0, 77, 90
1, 171863, Note_on_c, 0, 76, 81
1, 171872, Note_on_c, 0, 53, 53
1, 171877, Note_off_c, 0, 57, 70
1, 171881, Note_off_c, 0, 77, 69
1, 171883, Note_off_c, 0, 54, 67
1, 171884, Note_off_c, 0, 76, 71
1, 171885, Note_off_c, 0, 64, 67
1, 171897, Note_off_c, 0, 53, 61
1, 171904, Note_on_c, 0, 75, 74
1, 171914, Note_on_c, 0, 79, 67
1, 171951, Note_off_c, 0, 81, 66
1, 171955, Note_on_c, 0, 78, 90
1, 171964, Note_on_c, 0, 69, 102
1, 171969, Note_on_c, 0, 74, 77
1, 171969, Note_off_c, 0, 75, 64
1, 171976, Note_off_c, 0, 79, 66
1, 171978, Note_on_c, 0, 76, 64
1, 171997, Note_off_c, 0, 69, 68
1, 172003, Note_off_c, 0, 76, 65
1, 172007, Note_off_c, 0, 74, 64
1, 172011, Note_off_c, 0, 78, 64
1, 172073, Note_on_c, 0, 69, 108
1, 172107, Note_off_c, 0, 69, 72
1, 172189, Note_on_c, 0, 57, 106
1, 172221, Note_off_c, 0, 57, 68
1, 172262, Control_c, 0, 64, 86
1, 172277, Control_c, 0, 64, 66
1, 172292, Control_c, 0, 64, 30
1, 172298, Note_on_c, 0, 57, 120
1, 172307, Control_c, 0, 64, 0
1, 172330, Note_off_c, 0, 57, 71
1, 172390, Note_on_c, 0, 47, 100
1, 172423, Note_off_c, 0, 47, 67
1, 172499, Note_on_c, 0, 47, 107
1, 172533, Note_off_c, 0, 47, 68
1, 172608, Note_on_c, 0, 35, 105
1, 172651, Note_off_c, 0, 35, 63
1, 172720, Note_on_c, 0, 36, 105
1, 172731, Note_on_c, 0, 35, 68
1, 172759, Note_off_c, 0, 35, 59
1, 172767, Control_c, 0, 64, 101
1, 172782, Control_c, 0, 64, 127
1, 172840, Note_on_c, 0, 35, 66
1, 172843, Note_on_c, 0, 33, 74
1, 172848, Note_off_c, 0, 36, 61
1, 172874, Note_off_c, 0, 35, 63
1, 172876, Note_off_c, 0, 33, 64
1, 172878, Control_c, 0, 64, 101
1, 172893, Control_c, 0, 64, 61
1, 172908, Control_c, 0, 64, 0
1, 172916, Poly_aftertouch_c, 0, 35, 0
1, 172923, Note_on_c, 0, 35, 81
1, 172934, Note_on_c, 0, 38, 86
1, 172967, Control_c, 0, 64, 54
1, 172969, Note_on_c, 0, 41, 57
1, 172982, Control_c, 0, 64, 127
1, 172991, Note_off_c, 0, 35, 61
1, 172992, Note_on_c, 0, 40, 35
1, 172992, Note_on_c, 0, 53, 82
1, 172996, Note_off_c, 0, 38, 65
1, 173010, Note_on_c, 0, 45, 84
1, 173025, Note_on_c, 0, 57, 88
1, 173025, Note_off_c, 0, 41, 64
1, 173028, Note_on_c, 0, 47, 79
1, 173028, Note_off_c, 0, 40, 55
1, 173043, Note_off_c, 0, 45, 66
1, 173045, Note_off_c, 0, 53, 65
1, 173046, Note_off_c, 0, 47, 66
1, 173057, Note_on_c, 0, 60, 84
1, 173082, Note_on_c, 0, 64, 91
1, 173160, Note_on_c, 0, 76, 114
1, 173183, Note_off_c, 0, 76, 76
1, 173236, Poly_aftertouch_c, 0, 62, 0
1, 173239, Note_off_c, 0, 57, 63
1, 173246, Note_off_c, 0, 60, 51
1, 173264, Note_on_c, 0, 53, 97
1, 173293, Control_c, 0, 64, 79
1, 173308, Control_c, 0, 64, 41
1, 173313, Note_off_c, 0, 53, 66
1, 173322, Control_c, 0, 64, 0
1, 173324, Note_off_c, 0, 64, 63
1, 173380, Note_on_c, 0, 35, 95
1, 173398, Note_on_c, 0, 38, 80
1, 173421, Note_on_c, 0, 36, 45
1, 173457, Note_on_c, 0, 41, 61
1, 173470, Control_c, 0, 64, 18
1, 173478, Note_off_c, 0, 35, 62
1, 173481, Note_on_c, 0, 53, 80
1, 173484, Note_on_c, 0, 45, 96
1, 173484, Note_on_c, 0, 40, 12
1, 173485, Control_c, 0, 64, 127
1, 173490, Note_off_c, 0, 38, 59
1, 173501, Note_off_c, 0, 36, 53
1, 173511, Note_on_c, 0, 58, 64
1, 173514, Note_off_c, 0, 41, 61
1, 173523, Note_off_c, 0, 45, 67
1, 173524, Note_off_c, 0, 53, 65
1, 173525, Note_on_c, 0, 57, 84
1, 173530, Note_off_c, 0, 58, 39
1, 173539, Note_off_c, 0, 40, 44
1, 173542, Note_on_c, 0, 60, 75
1, 173585, Note_on_c, 0, 64, 86
1, 173586, Note_on_c, 0, 62, 82
1, 173630, Note_on_c, 0, 76, 125
1, 173650, Note_off_c, 0, 60, 63
1, 173656, Note_on_c, 0, 77, 72
1, 173657, Note_off_c, 0, 76, 78
1, 173673, Note_off_c, 0, 77, 41
1, 173690, Note_off_c, 0, 57, 61
1, 173740, Note_on_c, 0, 53, 98
1, 173753, Note_off_c, 0, 64, 68
1, 173792, Note_off_c, 0, 53, 68
1, 173822, Note_off_c, 0, 62, 64
1, 173830, Note_on_c, 0, 35, 99
1, 173849, Control_c, 0, 64, 104
1, 173864, Control_c, 0, 64, 68
1, 173878, Control_c, 0, 64, 0
1, 173883, Note_off_c, 0, 35, 63
1, 173934, Note_on_c, 0, 35, 91
1, 173994, Note_off_c, 0, 35, 63
1, 174084, Note_on_c, 0, 36, 106
1, 174089, Note_on_c, 0, 89, 115
1, 174089, Note_on_c, 0, 93, 109
1, 174102, Note_on_c, 0, 95, 94
1, 174116, Control_c, 0, 64, 127
1, 174124, Note_off_c, 0, 89, 70
1, 174124, Note_off_c, 0, 95, 67
1, 174140, Note_on_c, 0, 87, 39
1, 174155, Note_on_c, 0, 88, 87
1, 174158, Note_on_c, 0, 43, 15
1, 174174, Note_on_c, 0, 35, 72
1, 174176, Note_on_c, 0, 90, 87
1, 174192, Note_on_c, 0, 86, 76
1, 174213, Note_off_c, 0, 43, 40
1, 174215, Note_on_c, 0, 91, 60
1, 174215, Note_off_c, 0, 93, 67
1, 174222, Note_off_c, 0, 35, 61
1, 174229, Note_off_c, 0, 36, 58
1, 174231, Note_off_c, 0, 87, 58
1, 174235, Note_off_c, 0, 91, 62
1, 174243, Note_off_c, 0, 88, 68
1, 174251, Note_off_c, 0, 86, 62
1, 174253, Note_off_c, 0, 90, 64
1, 174321, Note_on_c, 0, 35, 87
1, 174373, Note_off_c, 0, 35, 62
1, 174427, Note_on_c, 0, 43, 93
1, 174472, Note_on_c, 0, 44, 84
1, 174474, Note_off_c, 0, 43, 64
1, 174539, Control_c, 0, 64, 86
1, 174541, Note_on_c, 0, 57, 112
1, 174542, Note_on_c, 0, 43, 73
1, 174545, Note_off_c, 0, 44, 62
1, 174547, Note_on_c, 0, 45, 81
1, 174554, Control_c, 0, 64, 58
1, 174569, Control_c, 0, 64, 0
1, 174587, Note_off_c, 0, 45, 64
1, 174628, Control_c, 0, 64, 27
1, 174643, Control_c, 0, 64, 61
1, 174658, Control_c, 0, 64, 75
1, 174664, Note_on_c, 0, 33, 69
1, 174673, Control_c, 0, 64, 127
1, 174679, Note_off_c, 0, 57, 60
1, 174700, Note_off_c, 0, 33, 62
1, 174701, Note_on_c, 0, 35, 24
1, 174728, Note_off_c, 0, 43, 60
1, 174744, Note_off_c, 0, 35, 0
1, 174760, Note_on_c, 0, 35, 68
1, 174811, Note_off_c, 0, 35, 62
1, 174864, Note_on_c, 0, 45, 71
1, 174873, Note_on_c, 0, 47, 73
1, 174912, Note_on_c, 0, 46, 78
1, 174924, Note_off_c, 0, 45, 62
1, 174948, Note_off_c, 0, 47, 61
1, 174969, Control_c, 0, 64, 79
1, 174974, Note_on_c, 0, 59, 119
1, 174979, Note_on_c, 0, 47, 86
1, 174983, Control_c, 0, 64, 50
1, 174988, Note_off_c, 0, 46, 59
1, 174998, Control_c, 0, 64, 0
1, 175065, Control_c, 0, 64, 61
1, 175080, Control_c, 0, 64, 85
1, 175095, Control_c, 0, 64, 127
1, 175112, Note_on_c, 0, 35, 84
1, 175115, Note_off_c, 0, 59, 59
1, 175138, Note_off_c, 0, 47, 63
1, 175141, Note_off_c, 0, 35, 66
1, 175198, Note_on_c, 0, 35, 82
1, 175241, Note_off_c, 0, 35, 62
1, 175305, Note_on_c, 0, 48, 85
1, 175309, Note_on_c, 0, 50, 74
1, 175338, Note_off_c, 0, 50, 66
1, 175347, Control_c, 0, 64, 84
1, 175350, Note_on_c, 0, 49, 91
1, 175352, Note_off_c, 0, 48, 66
1, 175362, Control_c, 0, 64, 59
1, 175377, Control_c, 0, 64, 0
1, 175398, Note_on_c, 0, 62, 97
1, 175419, Note_on_c, 0, 50, 90
1, 175422, Control_c, 0, 64, 49
1, 175437, Control_c, 0, 64, 81
1, 175440, Note_off_c, 0, 49, 65
1, 175451, Control_c, 0, 64, 127
1, 175452, Note_off_c, 0, 62, 64
1, 175456, Note_on_c, 0, 65, 80
1, 175477, Note_off_c, 0, 50, 65
1, 175496, Note_on_c, 0, 69, 87
1, 175508, Note_off_c, 0, 65, 65
1, 175521, Note_off_c, 0, 69, 66
1, 175538, Note_on_c, 0, 35, 86
1, 175562, Note_on_c, 0, 33, 40
1, 175565, Note_on_c, 0, 74, 93
1, 175583, Note_off_c, 0, 35, 60
1, 175606, Note_off_c, 0, 33, 49
1, 175614, Note_on_c, 0, 77, 93
1, 175624, Note_on_c, 0, 35, 83
1, 175638, Note_off_c, 0, 74, 58
1, 175655, Note_on_c, 0, 81, 90
1, 175672, Control_c, 0, 64, 97
1, 175685, Note_off_c, 0, 77, 67
1, 175687, Control_c, 0, 64, 73
1, 175689, Note_off_c, 0, 35, 61
1, 175702, Control_c, 0, 64, 57
1, 175709, Note_on_c, 0, 86, 103
1, 175717, Control_c, 0, 64, 0
1, 175723, Note_off_c, 0, 81, 69
1, 175729, Note_on_c, 0, 35, 80
1, 175749, Note_off_c, 0, 86, 67
1, 175784, Note_off_c, 0, 35, 63
1, 175855, Note_on_c, 0, 36, 108
1, 175862, Note_on_c, 0, 93, 103
1, 175864, Note_on_c, 0, 89, 103
1, 175871, Note_on_c, 0, 88, 82
1, 175872, Control_c, 0, 64, 41
1, 175884, Note_off_c, 0, 88, 72
1, 175887, Note_on_c, 0, 92, 57
1, 175888, Note_off_c, 0, 92, 127
1, 175888, Control_c, 0, 64, 127
1, 175900, Note_off_c, 0, 89, 65
1, 175917, Note_on_c, 0, 87, 90
1, 175931, Note_on_c, 0, 91, 66
1, 175941, Note_on_c, 0, 38, 5
1, 175964, Note_on_c, 0, 35, 65
1, 175976, Note_on_c, 0, 90, 96
1, 175977, Note_on_c, 0, 86, 94
1, 175980, Note_off_c, 0, 38, 40
1, 175987, Note_off_c, 0, 36, 62
1, 175998, Note_off_c, 0, 93, 65
1, 176012, Note_off_c, 0, 87, 65
1, 176019, Note_off_c, 0, 91, 65
1, 176027, Note_off_c, 0, 35, 61
1, 176034, Note_off_c, 0, 90, 68
1, 176037, Note_off_c, 0, 86, 66
1, 176092, Note_on_c, 0, 35, 97
1, 176140, Note_off_c, 0, 35, 62
1, 176199, Note_on_c, 0, 35, 97
1, 176276, Note_off_c, 0, 35, 60
1, 176367, Note_on_c, 0, 45, 126
1, 176368, Note_on_c, 0, 43, 99
1, 176369, Note_on_c, 0, 47, 122
1, 176371, Note_on_c, 0, 41, 124
1, 176379, Note_on_c, 0, 36, 108
1, 176393, Control_c, 0, 64, 81
1, 176404, Note_on_c, 0, 48, 44
1, 176405, Note_off_c, 0, 48, 127
1, 176408, Control_c, 0, 64, 40
1, 176422, Control_c, 0, 64, 0
1, 176439, Poly_aftertouch_c, 0, 48, 0
1, 176481, Control_c, 0, 64, 28
1, 176490, Note_on_c, 0, 35, 81
1, 176496, Control_c, 0, 64, 76
1, 176510, Note_off_c, 0, 36, 56
1, 176511, Control_c, 0, 64, 127
1, 176535, Note_off_c, 0, 47, 59
1, 176540, Note_off_c, 0, 45, 63
1, 176544, Note_off_c, 0, 43, 63
1, 176554, Note_off_c, 0, 41, 60
1, 176556, Note_off_c, 0, 35, 62
1, 176627, Note_on_c, 0, 35, 89
1, 176677, Note_off_c, 0, 35, 61
1, 176730, Note_on_c, 0, 35, 74
1, 176859, Note_off_c, 0, 35, 53
1, 176860, Control_c, 0, 64, 120
1, 176874, Note_on_c, 0, 66, 101
1, 176875, Control_c, 0, 64, 83
1, 176876, Note_on_c, 0, 54, 97
1, 176890, Control_c, 0, 64, 68
1, 176904, Control_c, 0, 64, 57
1, 176913, Note_on_c, 0, 56, 31
1, 176914, Note_off_c, 0, 56, 127
1, 176919, Control_c, 0, 64, 0
1, 177020, Note_on_c, 0, 35, 77
1, 177053, Control_c, 0, 64, 23
1, 177068, Control_c, 0, 64, 63
1, 177083, Control_c, 0, 64, 72
1, 177097, Control_c, 0, 64, 99
1, 177101, Note_off_c, 0, 54, 54
1, 177112, Control_c, 0, 64, 127
1, 177119, Note_on_c, 0, 42, 81
1, 177222, Note_off_c, 0, 35, 35
1, 177235, Note_on_c, 0, 54, 95
1, 177276, Note_off_c, 0, 54, 67
1, 177299, Note_off_c, 0, 66, 61
1, 177330, Note_off_c, 0, 42, 63
1, 177362, Note_on_c, 0, 69, 106
1, 177363, Note_on_c, 0, 57, 106
1, 177372, Control_c, 0, 64, 87
1, 177386, Control_c, 0, 64, 61
1, 177398, Note_on_c, 0, 68, 42
1, 177399, Note_off_c, 0, 68, 127
1, 177401, Control_c, 0, 64, 0
1, 177460, Control_c, 0, 64, 28
1, 177475, Control_c, 0, 64, 63
1, 177490, Control_c, 0, 64, 91
1, 177496, Note_on_c, 0, 35, 70
1, 177504, Control_c, 0, 64, 127
1, 177548, Note_off_c, 0, 57, 59
1, 177599, Note_on_c, 0, 42, 93
1, 177616, Note_off_c, 0, 35, 61
1, 177642, Note_off_c, 0, 42, 65
1, 177699, Note_on_c, 0, 57, 93
1, 177717, Note_off_c, 0, 57, 74
1, 177748, Note_off_c, 0, 69, 57
1, 177767, Note_on_c, 0, 54, 48
1, 177794, Note_off_c, 0, 54, 57
1, 177831, Control_c, 0, 64, 83
1, 177846, Note_on_c, 0, 65, 104
1, 177846, Note_on_c, 0, 89, 98
1, 177846, Note_on_c, 0, 93, 104
1, 177846, Control_c, 0, 64, 41
1, 177855, Note_on_c, 0, 52, 87
1, 177855, Note_on_c, 0, 53, 89
1, 177861, Control_c, 0, 64, 0
1, 177868, Note_on_c, 0, 86, 63
1, 177872, Note_off_c, 0, 89, 68
1, 177873, Note_off_c, 0, 65, 66
1, 177873, Note_on_c, 0, 64, 41
1, 177884, Note_on_c, 0, 91, 38
1, 177886, Note_on_c, 0, 54, 40
1, 177888, Note_off_c, 0, 86, 43
1, 177903, Note_off_c, 0, 64, 54
1, 177905, Control_c, 0, 64, 38
1, 177909, Note_off_c, 0, 91, 0
1, 177909, Note_on_c, 0, 91, 9
1, 177913, Note_on_c, 0, 87, 80
1, 177919, Control_c, 0, 64, 69
1, 177924, Note_off_c, 0, 54, 33
1, 177934, Control_c, 0, 64, 127
1, 177954, Note_on_c, 0, 86, 82
1, 177957, Note_on_c, 0, 90, 93
1, 177967, Note_off_c, 0, 53, 61
1, 177972, Note_off_c, 0, 87, 65
1, 177975, Note_off_c, 0, 52, 64
1, 177980, Note_off_c, 0, 93, 64
1, 177988, Note_off_c, 0, 91, 62
1, 178008, Note_off_c, 0, 86, 66
1, 178011, Note_off_c, 0, 90, 65
1, 178106, Note_on_c, 0, 35, 90
1, 178153, Note_off_c, 0, 35, 63
1, 178213, Note_on_c, 0, 35, 83
1, 178268, Note_off_c, 0, 35, 60
1, 178326, Control_c, 0, 64, 116
1, 178329, Note_on_c, 0, 61, 102
1, 178329, Note_on_c, 0, 49, 98
1, 178330, Note_on_c, 0, 40, 91
1, 178331, Note_on_c, 0, 35, 70
1, 178341, Control_c, 0, 64, 73
1, 178357, Control_c, 0, 64, 42
1, 178359, Note_off_c, 0, 35, 60
1, 178371, Note_off_c, 0, 40, 63
1, 178372, Control_c, 0, 64, 0
1, 178444, Note_on_c, 0, 40, 81
1, 178466, Note_on_c, 0, 35, 40
1, 178478, Note_off_c, 0, 40, 66
1, 178503, Note_off_c, 0, 35, 51
1, 178547, Note_off_c, 0, 49, 60
1, 178561, Note_on_c, 0, 42, 103
1, 178602, Note_off_c, 0, 42, 66
1, 178663, Note_on_c, 0, 42, 90
1, 178714, Note_off_c, 0, 42, 60
1, 178804, Note_on_c, 0, 45, 84
1, 178817, Note_on_c, 0, 54, 93
1, 178898, Control_c, 0, 64, 44
1, 178913, Control_c, 0, 64, 67
1, 178922, Note_on_c, 0, 35, 101
1, 178928, Control_c, 0, 64, 127
1, 178954, Note_off_c, 0, 45, 65
1, 178977, Note_off_c, 0, 35, 61
1, 178998, Note_off_c, 0, 54, 62
1, 179000, Note_off_c, 0, 61, 58
1, 179030, Note_on_c, 0, 35, 96
1, 179038, Note_on_c, 0, 56, 101
1, 179091, Note_off_c, 0, 35, 61
1, 179098, Note_off_c, 0, 56, 66
1, 179133, Note_on_c, 0, 57, 92
1, 179150, Note_on_c, 0, 35, 84
1, 179195, Control_c, 0, 64, 71
1, 179198, Note_off_c, 0, 35, 62
1, 179210, Control_c, 0, 64, 0
1, 179211, Note_off_c, 0, 57, 63
1, 179249, Note_on_c, 0, 61, 99
1, 179257, Note_on_c, 0, 49, 86
1, 179259, Note_on_c, 0, 36, 99
1, 179265, Note_on_c, 0, 51, 75
1, 179269, Control_c, 0, 64, 67
1, 179277, Note_off_c, 0, 49, 67
1, 179283, Note_on_c, 0, 62, 56
1, 179284, Control_c, 0, 64, 127
1, 179293, Note_off_c, 0, 51, 65
1, 179304, Note_off_c, 0, 61, 65
1, 179304, Note_off_c, 0, 62, 63
1, 179340, Note_off_c, 0, 36, 58
1, 179366, Note_on_c, 0, 64, 95
1, 179380, Note_on_c, 0, 49, 13
1, 179397, Note_on_c, 0, 35, 88
1, 179408, Note_off_c, 0, 64, 66
1, 179411, Note_off_c, 0, 49, 37
1, 179414, Note_on_c, 0, 65, 71
1, 179450, Note_on_c, 0, 69, 87
1, 179450, Note_off_c, 0, 35, 63
1, 179455, Note_off_c, 0, 65, 63
1, 179456, Note_on_c, 0, 68, 63
1, 179469, Note_off_c, 0, 69, 71
1, 179475, Note_off_c, 0, 68, 61
1, 179512, Note_on_c, 0, 35, 99
1, 179517, Note_on_c, 0, 76, 99
1, 179559, Note_on_c, 0, 78, 83
1, 179569, Note_off_c, 0, 76, 62
1, 179602, Note_on_c, 0, 81, 82
1, 179611, Note_off_c, 0, 78, 66
1, 179621, Note_off_c, 0, 81, 73
1, 179660, Note_on_c, 0, 48, 101
1, 179666, Note_on_c, 0, 88, 95
1, 179676, Note_on_c, 0, 86, 87
1, 179676, Note_off_c, 0, 35, 58
1, 179694, Note_off_c, 0, 48, 66
1, 179696, Note_off_c, 0, 86, 70
1, 179701, Note_on_c, 0, 90, 86
1, 179724, Note_off_c, 0, 88, 58
1, 179730, Note_on_c, 0, 93, 95
1, 179737, Poly_aftertouch_c, 0, 36, 127
1, 179757, Note_off_c, 0, 90, 66
1, 179765, Control_c, 0, 64, 94
1, 179769, Note_off_c, 0, 93, 69
1, 179777, Poly_aftertouch_c, 0, 36, 0
1, 179780, Control_c, 0, 64, 59
1, 179795, Control_c, 0, 64, 0
1, 179885, Note_on_c, 0, 83, 105
1, 179885, Note_on_c, 0, 101, 116
1, 179887, Note_on_c, 0, 105, 126
1, 179889, Note_on_c, 0, 77, 110
1, 179895, Note_on_c, 0, 103, 80
1, 179896, Note_off_c, 0, 103, 127
1, 179898, Control_c, 0, 64, 127
1, 179910, Note_off_c, 0, 83, 74
1, 179915, Note_on_c, 0, 98, 52
1, 179916, Note_off_c, 0, 98, 127
1, 179916, Poly_aftertouch_c, 0, 103, 0
1, 179918, Note_on_c, 0, 103, 22
1, 179919, Note_off_c, 0, 103, 127
1, 179919, Note_off_c, 0, 101, 68
1, 179923, Note_off_c, 0, 77, 70
1, 179956, Note_on_c, 0, 103, 64
1, 179968, Note_on_c, 0, 99, 86
1, 179995, Note_on_c, 0, 98, 86
1, 180004, Poly_aftertouch_c, 0, 100, 127
1, 180004, Note_on_c, 0, 102, 101
1, 180025, Note_off_c, 0, 105, 63
1, 180033, Note_off_c, 0, 99, 65
1, 180034, Poly_aftertouch_c, 0, 100, 0
1, 180046, Note_off_c, 0, 103, 66
1, 180065, Note_off_c, 0, 102, 65
1, 180066, Note_off_c, 0, 98, 66
1, 180126, Note_on_c, 0, 35, 99
1, 180139, Note_on_c, 0, 36, 76
1, 180163, Note_off_c, 0, 36, 61
1, 180171, Note_off_c, 0, 35, 63
1, 180229, Note_on_c, 0, 35, 99
1, 180305, Note_off_c, 0, 35, 61
1, 180381, Note_on_c, 0, 45, 111
1, 180383, Note_on_c, 0, 47, 125
1, 180383, Note_on_c, 0, 43, 113
1, 180388, Note_on_c, 0, 48, 62
1, 180393, Note_on_c, 0, 44, 79
1, 180394, Note_off_c, 0, 44, 127
1, 180397, Note_on_c, 0, 36, 95
1, 180410, Control_c, 0, 64, 104
1, 180414, Poly_aftertouch_c, 0, 44, 0
1, 180420, Note_on_c, 0, 38, 50
1, 180425, Control_c, 0, 64, 60
1, 180429, Note_off_c, 0, 38, 47
1, 180440, Control_c, 0, 64, 0
1, 180464, Note_off_c, 0, 48, 26
1, 180484, Note_off_c, 0, 36, 52
1, 180502, Note_on_c, 0, 35, 74
1, 180505, Poly_aftertouch_c, 0, 41, 127
1, 180514, Control_c, 0, 64, 75
1, 180526, Note_off_c, 0, 47, 59
1, 180529, Control_c, 0, 64, 127
1, 180540, Note_off_c, 0, 45, 58
1, 180543, Note_off_c, 0, 43, 62
1, 180548, Note_off_c, 0, 35, 56
1, 180548, Poly_aftertouch_c, 0, 41, 0
1, 180597, Note_on_c, 0, 35, 70
1, 180648, Note_off_c, 0, 35, 61
1, 180712, Note_on_c, 0, 45, 79
1, 180770, Note_off_c, 0, 45, 64
1, 180770, Note_on_c, 0, 46, 53
1, 180776, Note_on_c, 0, 47, 69
1, 180795, Note_off_c, 0, 47, 67
1, 180816, Note_off_c, 0, 46, 55
1, 180839, Note_on_c, 0, 47, 90
1, 180841, Control_c, 0, 64, 76
1, 180849, Note_on_c, 0, 59, 110
1, 180856, Control_c, 0, 64, 48
1, 180871, Control_c, 0, 64, 0
1, 180959, Control_c, 0, 64, 55
1, 180974, Control_c, 0, 64, 74
1, 180976, Note_on_c, 0, 35, 79
1, 180979, Note_off_c, 0, 59, 53
1, 180989, Control_c, 0, 64, 125
1, 181004, Control_c, 0, 64, 127
1, 181009, Note_off_c, 0, 35, 63
1, 181057, Note_off_c, 0, 47, 60
1, 181080, Note_on_c, 0, 35, 79
1, 181111, Note_off_c, 0, 35, 64
1, 181189, Note_on_c, 0, 50, 81
1, 181244, Note_on_c, 0, 51, 82
1, 181250, Note_off_c, 0, 50, 65
1, 181259, Note_on_c, 0, 52, 73
1, 181277, Control_c, 0, 64, 82
1, 181286, Note_off_c, 0, 52, 66
1, 181292, Control_c, 0, 64, 55
1, 181306, Note_on_c, 0, 64, 115
1, 181307, Control_c, 0, 64, 0
1, 181316, Note_on_c, 0, 52, 96
1, 181321, Note_off_c, 0, 51, 64
1, 181367, Control_c, 0, 64, 57
1, 181375, Note_off_c, 0, 52, 65
1, 181381, Control_c, 0, 64, 73
1, 181396, Control_c, 0, 64, 127
1, 181410, Note_off_c, 0, 64, 58
1, 181435, Note_on_c, 0, 35, 82
1, 181468, Note_off_c, 0, 35, 63
1, 181526, Note_on_c, 0, 35, 82
1, 181577, Note_off_c, 0, 35, 61
1, 181622, Poly_aftertouch_c, 0, 35, 0
1, 181630, Note_on_c, 0, 35, 72
1, 181663, Note_off_c, 0, 35, 65
1, 181754, Note_on_c, 0, 48, 96
1, 181754, Note_on_c, 0, 77, 103
1, 181756, Note_on_c, 0, 81, 99
1, 181760, Note_on_c, 0, 36, 83
1, 181767, Control_c, 0, 64, 92
1, 181790, Control_c, 0, 64, 66
1, 181794, Note_off_c, 0, 36, 69
1, 181796, Note_off_c, 0, 77, 66
1, 181805, Control_c, 0, 64, 0
1, 181818, Note_on_c, 0, 79, 74
1, 181827, Note_on_c, 0, 75, 84
1, 181840, Note_off_c, 0, 48, 54
1, 181858, Note_off_c, 0, 81, 61
1, 181871, Note_on_c, 0, 78, 79
1, 181883, Note_on_c, 0, 35, 71
1, 181892, Note_on_c, 0, 74, 77
1, 181897, Note_off_c, 0, 75, 64
1, 181901, Note_off_c, 0, 79, 65
1, 181916, Note_off_c, 0, 35, 61
1, 181934, Note_off_c, 0, 74, 61
1, 181934, Note_off_c, 0, 78, 65
1, 181999, Note_on_c, 0, 35, 66
1, 182031, Note_off_c, 0, 35, 61
1, 182104, Note_on_c, 0, 35, 56
1, 182139, Note_off_c, 0, 35, 60
1, 182222, Note_on_c, 0, 80, 80
1, 182226, Note_on_c, 0, 81, 75
1, 182231, Note_on_c, 0, 48, 74
1, 182234, Note_on_c, 0, 36, 70
1, 182252, Note_off_c, 0, 80, 62
1, 182252, Note_off_c, 0, 81, 66
1, 182258, Note_off_c, 0, 48, 65
1, 182264, Note_off_c, 0, 36, 63
1, 182341, Note_on_c, 0, 48, 71
1, 182342, Note_on_c, 0, 36, 73
1, 182371, Note_off_c, 0, 48, 64
1, 182377, Note_off_c, 0, 36, 66
1, 182453, Note_on_c, 0, 81, 106
1, 182454, Note_on_c, 0, 36, 87
1, 182454, Note_on_c, 0, 48, 96
1, 182455, Note_on_c, 0, 77, 99
1, 182484, Note_off_c, 0, 48, 67
1, 182484, Note_off_c, 0, 36, 66
1, 182489, Note_off_c, 0, 81, 70
1, 182489, Note_off_c, 0, 77, 67
1, 182563, Note_on_c, 0, 48, 101
1, 182568, Note_on_c, 0, 36, 93
1, 182592, Note_off_c, 0, 36, 69
1, 182592, Note_off_c, 0, 48, 66
1, 182677, Note_on_c, 0, 48, 107
1, 182677, Note_on_c, 0, 79, 112
1, 182680, Note_on_c, 0, 81, 102
1, 182681, Note_on_c, 0, 36, 98
1, 182708, Note_off_c, 0, 48, 69
1, 182710, Note_off_c, 0, 36, 69
1, 182713, Note_off_c, 0, 79, 70
1, 182713, Note_off_c, 0, 81, 69
1, 182786, Note_on_c, 0, 48, 104
1, 182788, Note_on_c, 0, 36, 98
1, 182803, Note_on_c, 0, 47, 64
1, 182804, Note_off_c, 0, 47, 127
1, 182815, Note_off_c, 0, 36, 68
1, 182815, Note_off_c, 0, 48, 68
1, 182899, Note_on_c, 0, 48, 102
1, 182902, Note_on_c, 0, 47, 90
1, 182902, Note_on_c, 0, 81, 109
1, 182904, Note_on_c, 0, 36, 91
1, 182905, Note_on_c, 0, 76, 109
1, 182911, Note_on_c, 0, 35, 71
1, 182932, Note_off_c, 0, 47, 59
1, 182933, Note_off_c, 0, 48, 67
1, 182934, Note_off_c, 0, 35, 61
1, 182940, Note_off_c, 0, 36, 61
1, 182946, Note_off_c, 0, 76, 65
1, 182970, Note_off_c, 0, 81, 54
1, 183151, Note_on_c, 0, 78, 17
1, 183178, Note_off_c, 0, 78, 46
1, 183296, Poly_aftertouch_c, 0, 55, 0
1, 183297, Note_on_c, 0, 54, 113
1, 183297, Note_on_c, 0, 56, 108
1, 183297, Note_on_c, 0, 58, 102
1, 183304, Note_on_c, 0, 77, 122
1, 183304, Note_on_c, 0, 55, 100
1, 183305, Note_off_c, 0, 55, 127
1, 183306, Note_on_c, 0, 81, 104
1, 183310, Note_off_c, 0, 54, 0
1, 183336, Note_on_c, 0, 57, 43
1, 183348, Poly_aftertouch_c, 0, 54, 127
1, 183354, Note_on_c, 0, 83, 16
1, 183355, Note_off_c, 0, 83, 127
1, 183357, Note_on_c, 0, 59, 14
1, 183369, Note_off_c, 0, 57, 57
1, 183370, Note_on_c, 0, 75, 95
1, 183374, Note_on_c, 0, 79, 79
1, 183379, Note_off_c, 0, 77, 60
1, 183381, Note_on_c, 0, 52, 5
1, 183390, Note_on_c, 0, 55, 24
1, 183391, Note_off_c, 0, 59, 30
1, 183406, Control_c, 0, 64, 46
1, 183407, Note_off_c, 0, 81, 65
1, 183408, Poly_aftertouch_c, 0, 53, 0
1, 183410, Note_off_c, 0, 52, 28
1, 183420, Control_c, 0, 64, 127
1, 183423, Note_off_c, 0, 79, 61
1, 183441, Note_on_c, 0, 78, 93
1, 183441, Note_off_c, 0, 55, 29
1, 183450, Note_on_c, 0, 74, 97
1, 183462, Note_off_c, 0, 58, 48
1, 183464, Poly_aftertouch_c, 0, 54, 0
1, 183465, Note_off_c, 0, 56, 57
1, 183468, Note_on_c, 0, 79, 39
1, 183483, Note_off_c, 0, 75, 62
1, 183492, Note_off_c, 0, 79, 58
1, 183611, Note_off_c, 0, 74, 59
1, 183629, Note_off_c, 0, 78, 63
1, 183640, Note_on_c, 0, 33, 94
1, 183682, Note_on_c, 0, 35, 10
1, 183690, Note_off_c, 0, 33, 65
1, 183742, Note_off_c, 0, 35, 0
1, 183755, Note_on_c, 0, 35, 69
1, 183814, Note_on_c, 0, 42, 87
1, 183840, Note_off_c, 0, 35, 59
1, 183861, Note_on_c, 0, 39, 10
1, 183863, Note_on_c, 0, 45, 78
1, 183915, Note_off_c, 0, 39, 51
1, 183938, Note_off_c, 0, 42, 50
1, 183955, Control_c, 0, 64, 87
1, 183956, Note_on_c, 0, 50, 87
1, 183958, Note_on_c, 0, 62, 103
1, 183969, Control_c, 0, 64, 68
1, 183982, Note_off_c, 0, 45, 60
1, 183984, Control_c, 0, 64, 45
1, 183999, Control_c, 0, 64, 0
1, 184111, Control_c, 0, 64, 60
1, 184125, Control_c, 0, 64, 73
1, 184140, Control_c, 0, 64, 105
1, 184148, Note_off_c, 0, 62, 63
1, 184155, Control_c, 0, 64, 127
1, 184183, Note_off_c, 0, 50, 62
1, 184239, Note_on_c, 0, 61, 104
1, 184240, Note_on_c, 0, 49, 89
1, 184258, Control_c, 0, 64, 100
1, 184273, Control_c, 0, 64, 71
1, 184288, Control_c, 0, 64, 44
1, 184303, Control_c, 0, 64, 0
1, 184333, Control_c, 0, 64, 42
1, 184347, Control_c, 0, 64, 61
1, 184362, Control_c, 0, 64, 69
1, 184377, Control_c, 0, 64, 89
1, 184387, Note_off_c, 0, 61, 60
1, 184390, Note_off_c, 0, 49, 63
1, 184392, Control_c, 0, 64, 127
1, 184477, Note_on_c, 0, 47, 80
1, 184480, Control_c, 0, 64, 96
1, 184485, Note_on_c, 0, 59, 106
1, 184495, Control_c, 0, 64, 69
1, 184510, Control_c, 0, 64, 49
1, 184525, Control_c, 0, 64, 0
1, 184554, Control_c, 0, 64, 43
1, 184569, Control_c, 0, 64, 61
1, 184573, Note_off_c, 0, 47, 61
1, 184584, Control_c, 0, 64, 69
1, 184599, Control_c, 0, 64, 84
1, 184614, Control_c, 0, 64, 127
1, 184628, Note_off_c, 0, 59, 63
1, 184663, Note_on_c, 0, 49, 85
1, 184683, Note_on_c, 0, 61, 99
1, 184702, Control_c, 0, 64, 100
1, 184711, Poly_aftertouch_c, 0, 39, 127
1, 184717, Control_c, 0, 64, 77
1, 184733, Control_c, 0, 64, 64
1, 184748, Control_c, 0, 64, 46
1, 184763, Control_c, 0, 64, 29
1, 184770, Poly_aftertouch_c, 0, 39, 0
1, 184778, Control_c, 0, 64, 26
1, 184800, Control_c, 0, 64, 27
1, 184815, Control_c, 0, 64, 33
1, 184830, Note_on_c, 0, 35, 69
1, 184830, Control_c, 0, 64, 43
1, 184845, Control_c, 0, 64, 58
1, 184859, Note_off_c, 0, 49, 61
1, 184860, Control_c, 0, 64, 66
1, 184874, Control_c, 0, 64, 76
1, 184889, Control_c, 0, 64, 125
1, 184898, Note_off_c, 0, 35, 60
1, 184904, Control_c, 0, 64, 127
1, 184943, Note_on_c, 0, 35, 64
1, 185034, Note_on_c, 0, 42, 92
1, 185057, Note_off_c, 0, 35, 59
1, 185062, Note_off_c, 0, 61, 46
1, 185163, Note_on_c, 0, 45, 83
1, 185167, Note_on_c, 0, 57, 105
1, 185183, Note_off_c, 0, 42, 61
1, 185215, Control_c, 0, 64, 84
1, 185230, Control_c, 0, 64, 68
1, 185245, Control_c, 0, 64, 53
1, 185259, Control_c, 0, 64, 22
1, 185274, Control_c, 0, 64, 0
1, 185295, Note_on_c, 0, 35, 76
1, 185304, Control_c, 0, 64, 18
1, 185311, Poly_aftertouch_c, 0, 58, 0
1, 185318, Control_c, 0, 64, 41
1, 185333, Control_c, 0, 64, 58
1, 185337, Note_off_c, 0, 35, 60
1, 185348, Control_c, 0, 64, 65
1, 185363, Control_c, 0, 64, 75
1, 185378, Control_c, 0, 64, 110
1, 185392, Control_c, 0, 64, 127
1, 185406, Note_on_c, 0, 35, 80
1, 185430, Note_off_c, 0, 45, 62
1, 185462, Note_off_c, 0, 35, 59
1, 185501, Note_on_c, 0, 44, 90
1, 185589, Note_off_c, 0, 57, 60
1, 185623, Note_off_c, 0, 44, 64
1, 185633, Note_on_c, 0, 49, 94
1, 185634, Note_on_c, 0, 61, 113
1, 185653, Control_c, 0, 64, 80
1, 185668, Control_c, 0, 64, 61
1, 185683, Control_c, 0, 64, 0
1, 185727, Control_c, 0, 64, 38
1, 185728, Note_off_c, 0, 49, 64
1, 185741, Control_c, 0, 64, 64
1, 185756, Control_c, 0, 64, 83
1, 185758, Note_on_c, 0, 35, 84
1, 185771, Control_c, 0, 64, 127
1, 185807, Note_off_c, 0, 35, 63
1, 185862, Note_off_c, 0, 61, 55
1, 185871, Note_on_c, 0, 35, 86
1, 185934, Poly_aftertouch_c, 0, 62, 127
1, 185958, Note_on_c, 0, 40, 95
1, 185998, Note_off_c, 0, 35, 60
1, 186049, Poly_aftertouch_c, 0, 62, 0
1, 186082, Control_c, 0, 64, 109
1, 186084, Note_on_c, 0, 56, 108
1, 186085, Note_on_c, 0, 44, 100
1, 186097, Control_c, 0, 64, 70
1, 186109, Note_off_c, 0, 40, 63
1, 186112, Control_c, 0, 64, 0
1, 186130, Note_on_c, 0, 61, 12
1, 186196, Note_on_c, 0, 35, 84
1, 186196, Poly_aftertouch_c, 0, 43, 0
1, 186201, Control_c, 0, 64, 58
1, 186211, Note_off_c, 0, 44, 65
1, 186215, Control_c, 0, 64, 74
1, 186226, Poly_aftertouch_c, 0, 62, 127
1, 186230, Control_c, 0, 64, 127
1, 186254, Note_off_c, 0, 35, 61
1, 186273, Poly_aftertouch_c, 0, 62, 0
1, 186279, Note_off_c, 0, 61, 40
1, 186303, Note_on_c, 0, 35, 76
1, 186411, Note_on_c, 0, 42, 96
1, 186461, Note_off_c, 0, 35, 24
1, 186486, Note_off_c, 0, 56, 61
1, 186491, Control_c, 0, 64, 83
1, 186506, Control_c, 0, 64, 58
1, 186520, Control_c, 0, 64, 0
1, 186524, Note_off_c, 0, 42, 64
1, 186531, Note_on_c, 0, 49, 97
1, 186534, Note_on_c, 0, 61, 106
1, 186579, Control_c, 0, 64, 33
1, 186594, Control_c, 0, 64, 67
1, 186598, Note_off_c, 0, 61, 63
1, 186600, Note_off_c, 0, 49, 65
1, 186609, Control_c, 0, 64, 117
1, 186624, Control_c, 0, 64, 127
1, 186646, Note_on_c, 0, 35, 87
1, 186697, Note_off_c, 0, 35, 61
1, 186747, Note_on_c, 0, 35, 76
1, 186835, Note_on_c, 0, 37, 82
1, 186860, Note_off_c, 0, 35, 61
1, 186884, Note_off_c, 0, 37, 63
1, 186920, Control_c, 0, 64, 82
1, 186935, Control_c, 0, 64, 52
1, 186950, Control_c, 0, 64, 0
1, 186951, Note_on_c, 0, 89, 105
1, 186952, Note_on_c, 0, 93, 100
1, 186953, Note_on_c, 0, 52, 100
1, 186958, Note_on_c, 0, 40, 92
1, 186974, Note_on_c, 0, 95, 63
1, 186975, Note_off_c, 0, 95, 127
1, 186989, Note_off_c, 0, 40, 66
1, 186994, Control_c, 0, 64, 34
1, 187000, Note_on_c, 0, 91, 75
1, 187000, Note_off_c, 0, 52, 65
1, 187009, Control_c, 0, 64, 66
1, 187013, Note_on_c, 0, 87, 91
1, 187019, Note_off_c, 0, 89, 62
1, 187024, Control_c, 0, 64, 92
1, 187045, Control_c, 0, 64, 127
1, 187072, Note_on_c, 0, 35, 85
1, 187072, Note_off_c, 0, 93, 66
1, 187075, Note_on_c, 0, 90, 85
1, 187090, Note_on_c, 0, 86, 92
1, 187099, Note_off_c, 0, 91, 64
1, 187104, Note_off_c, 0, 87, 65
1, 187135, Note_off_c, 0, 35, 61
1, 187137, Note_off_c, 0, 90, 65
1, 187140, Note_off_c, 0, 86, 68
1, 187150, Control_c, 0, 64, 86
1, 187165, Control_c, 0, 64, 69
1, 187180, Control_c, 0, 64, 60
1, 187194, Control_c, 0, 64, 48
1, 187203, Note_on_c, 0, 35, 69
1, 187209, Control_c, 0, 64, 16
1, 187224, Control_c, 0, 64, 0
1, 187281, Note_off_c, 0, 35, 51
1, 187461, Note_on_c, 0, 46, 50
1, 187467, Note_on_c, 0, 35, 43
1, 187475, Note_on_c, 0, 51, 56
1, 187491, Control_c, 0, 64, 30
1, 187506, Control_c, 0, 64, 57
1, 187518, Note_off_c, 0, 51, 65
1, 187521, Control_c, 0, 64, 64
1, 187535, Control_c, 0, 64, 70
1, 187540, Note_on_c, 0, 53, 63
1, 187550, Control_c, 0, 64, 80
1, 187563, Note_off_c, 0, 35, 48
1, 187565, Control_c, 0, 64, 104
1, 187579, Control_c, 0, 64, 127
1, 187581, Note_off_c, 0, 53, 58
1, 187608, Note_on_c, 0, 55, 65
1, 187658, Note_off_c, 0, 55, 60
1, 187661, Note_on_c, 0, 56, 67
1, 187668, Control_c, 0, 64, 106
1, 187683, Control_c, 0, 64, 80
1, 187697, Note_off_c, 0, 56, 67
1, 187698, Control_c, 0, 64, 67
1, 187699, Note_on_c, 0, 34, 75
1, 187706, Note_on_c, 0, 58, 71
1, 187713, Control_c, 0, 64, 62
1, 187728, Control_c, 0, 64, 66
1, 187737, Note_off_c, 0, 58, 68
1, 187743, Control_c, 0, 64, 73
1, 187758, Control_c, 0, 64, 90
1, 187770, Note_on_c, 0, 59, 75
1, 187772, Control_c, 0, 64, 127
1, 187823, Note_off_c, 0, 59, 61
1, 187830, Note_off_c, 0, 46, 63
1, 187833, Note_on_c, 0, 61, 77
1, 187846, Note_off_c, 0, 34, 62
1, 187880, Note_on_c, 0, 62, 74
1, 187898, Note_off_c, 0, 61, 61
1, 187910, Note_off_c, 0, 62, 64
1, 187928, Control_c, 0, 64, 98
1, 187939, Note_on_c, 0, 50, 90
1, 187939, Note_on_c, 0, 64, 89
1, 187944, Control_c, 0, 64, 71
1, 187958, Control_c, 0, 64, 54
1, 187973, Control_c, 0, 64, 30
1, 187988, Control_c, 0, 64, 42
1, 188003, Control_c, 0, 64, 58
1, 188005, Note_off_c, 0, 64, 60
1, 188007, Note_on_c, 0, 65, 78
1, 188017, Control_c, 0, 64, 66
1, 188032, Control_c, 0, 64, 75
1, 188047, Control_c, 0, 64, 127
1, 188053, Note_on_c, 0, 67, 77
1, 188080, Note_off_c, 0, 65, 62
1, 188101, Note_on_c, 0, 68, 74
1, 188122, Note_off_c, 0, 50, 56
1, 188124, Note_off_c, 0, 67, 64
1, 188145, Note_on_c, 0, 70, 77
1, 188160, Note_off_c, 0, 68, 64
1, 188166, Note_off_c, 0, 70, 71
1, 188198, Note_on_c, 0, 71, 80
1, 188226, Note_on_c, 0, 50, 69
1, 188246, Note_off_c, 0, 71, 61
1, 188257, Note_on_c, 0, 73, 86
1, 188266, Note_on_c, 0, 51, 83
1, 188298, Note_on_c, 0, 74, 79
1, 188318, Note_on_c, 0, 52, 72
1, 188321, Note_off_c, 0, 73, 63
1, 188323, Note_off_c, 0, 50, 63
1, 188333, Note_off_c, 0, 74, 63
1, 188350, Note_off_c, 0, 51, 64
1, 188366, Note_on_c, 0, 76, 99
1, 188369, Note_on_c, 0, 53, 110
1, 188388, Control_c, 0, 64, 84
1, 188402, Control_c, 0, 64, 51
1, 188417, Control_c, 0, 64, 0
1, 188431, Note_on_c, 0, 77, 90
1, 188434, Note_off_c, 0, 76, 56
1, 188437, Note_off_c, 0, 52, 47
1, 188476, Note_on_c, 0, 79, 84
1, 188477, Control_c, 0, 64, 57
1, 188491, Control_c, 0, 64, 82
1, 188503, Note_off_c, 0, 77, 65
1, 188506, Control_c, 0, 64, 127
1, 188531, Note_on_c, 0, 80, 81
1, 188560, Note_off_c, 0, 79, 66
1, 188571, Note_on_c, 0, 82, 83
1, 188585, Note_off_c, 0, 53, 56
1, 188592, Note_off_c, 0, 80, 65
1, 188592, Note_off_c, 0, 82, 70
1, 188623, Note_on_c, 0, 83, 95
1, 188685, Note_on_c, 0, 85, 92
1, 188691, Note_on_c, 0, 53, 79
1, 188695, Note_off_c, 0, 83, 53
1, 188711, Note_on_c, 0, 54, 80
1, 188726, Note_on_c, 0, 86, 82
1, 188747, Note_off_c, 0, 53, 62
1, 188754, Note_on_c, 0, 55, 66
1, 188756, Note_off_c, 0, 85, 64
1, 188768, Note_off_c, 0, 86, 67
1, 188786, Note_off_c, 0, 54, 64
1, 188803, Note_on_c, 0, 56, 113
1, 188804, Note_on_c, 0, 88, 98
1, 188826, Control_c, 0, 64, 93
1, 188840, Control_c, 0, 64, 46
1, 188845, Note_off_c, 0, 55, 63
1, 188855, Control_c, 0, 64, 0
1, 188874, Note_on_c, 0, 89, 90
1, 188889, Note_off_c, 0, 88, 45
1, 188900, Control_c, 0, 64, 29
1, 188914, Control_c, 0, 64, 65
1, 188924, Note_on_c, 0, 91, 86
1, 188929, Control_c, 0, 64, 125
1, 188944, Control_c, 0, 64, 127
1, 188950, Note_off_c, 0, 89, 65
1, 188973, Note_on_c, 0, 92, 87
1, 189012, Note_off_c, 0, 91, 65
1, 189019, Note_on_c, 0, 94, 88
1, 189038, Note_off_c, 0, 92, 66
1, 189048, Note_off_c, 0, 94, 64
1, 189071, Note_on_c, 0, 95, 98
1, 189131, Note_on_c, 0, 97, 95
1, 189172, Note_off_c, 0, 95, 61
1, 189191, Note_on_c, 0, 98, 89
1, 189222, Note_off_c, 0, 97, 63
1, 189228, Note_off_c, 0, 98, 68
1, 189242, Note_off_c, 0, 56, 38
1, 189254, Control_c, 0, 64, 73
1, 189276, Control_c, 0, 64, 0
1, 189310, Note_on_c, 0, 63, 106
1, 189317, Note_on_c, 0, 101, 112
1, 189317, Note_on_c, 0, 105, 110
1, 189335, Control_c, 0, 64, 38
1, 189348, Note_on_c, 0, 56, 46
1, 189349, Note_off_c, 0, 56, 127
1, 189350, Control_c, 0, 64, 80
1, 189364, Control_c, 0, 64, 127
1, 189365, Note_off_c, 0, 101, 0
1, 189389, Note_on_c, 0, 99, 98
1, 189394, Note_off_c, 0, 63, 62
1, 189397, Note_on_c, 0, 103, 80
1, 189399, Poly_aftertouch_c, 0, 101, 0
1, 189422, Note_off_c, 0, 105, 66
1, 189423, Note_off_c, 0, 103, 68
1, 189457, Note_on_c, 0, 102, 107
1, 189462, Note_on_c, 0, 98, 105
1, 189475, Note_on_c, 0, 103, 81
1, 189497, Note_off_c, 0, 99, 65
1, 189500, Note_off_c, 0, 103, 69
1, 189546, Note_off_c, 0, 98, 67
1, 189548, Note_off_c, 0, 102, 64
1, 189617, Note_on_c, 0, 41, 98
1, 189619, Note_on_c, 0, 38, 95
1, 189677, Control_c, 0, 64, 95
1, 189690, Note_on_c, 0, 39, 92
1, 189692, Control_c, 0, 64, 62
1, 189707, Control_c, 0, 64, 0
1, 189716, Note_off_c, 0, 38, 64
1, 189724, Note_off_c, 0, 41, 64
1, 189779, Note_on_c, 0, 38, 86
1, 189782, Note_on_c, 0, 34, 89
1, 189805, Note_off_c, 0, 39, 60
1, 189869, Control_c, 0, 64, 48
1, 189885, Control_c, 0, 64, 80
1, 189889, Note_off_c, 0, 38, 62
1, 189900, Control_c, 0, 64, 127
1, 189904, Note_off_c, 0, 34, 61
1, 189944, Control_c, 0, 64, 96
1, 189959, Control_c, 0, 64, 72
1, 189973, Control_c, 0, 64, 56
1, 189988, Control_c, 0, 64, 0
1, 189993, Note_on_c, 0, 62, 95
1, 190005, Note_on_c, 0, 50, 81
1, 190144, Control_c, 0, 64, 14
1, 190159, Control_c, 0, 64, 63
1, 190173, Control_c, 0, 64, 75
1, 190188, Control_c, 0, 64, 127
1, 190229, Note_off_c, 0, 62, 66
1, 190245, Note_off_c, 0, 50, 63
1, 190295, Note_on_c, 0, 61, 103
1, 190302, Note_on_c, 0, 51, 101
1, 190309, Note_on_c, 0, 60, 98
1, 190338, Control_c, 0, 64, 71
1, 190352, Control_c, 0, 64, 0
1, 190423, Note_off_c, 0, 60, 63
1, 190426, Control_c, 0, 64, 52
1, 190440, Note_off_c, 0, 61, 63
1, 190441, Control_c, 0, 64, 83
1, 190456, Control_c, 0, 64, 127
1, 190478, Note_off_c, 0, 51, 63
1, 190530, Control_c, 0, 64, 93
1, 190532, Note_on_c, 0, 60, 113
1, 190537, Note_on_c, 0, 52, 101
1, 190545, Control_c, 0, 64, 61
1, 190560, Control_c, 0, 64, 0
1, 190584, Note_on_c, 0, 64, 21
1, 190585, Note_off_c, 0, 64, 127
1, 190604, Control_c, 0, 64, 63
1, 190619, Control_c, 0, 64, 88
1, 190626, Poly_aftertouch_c, 0, 64, 0
1, 190634, Control_c, 0, 64, 127
1, 190683, Note_off_c, 0, 52, 65
1, 190688, Note_off_c, 0, 60, 67
1, 190708, Control_c, 0, 64, 105
1, 190723, Control_c, 0, 64, 64
1, 190737, Note_on_c, 0, 61, 114
1, 190738, Control_c, 0, 64, 0
1, 190739, Note_on_c, 0, 51, 100
1, 190804, Control_c, 0, 64, 31
1, 190819, Control_c, 0, 64, 85
1, 190834, Control_c, 0, 64, 127
1, 190851, Note_off_c, 0, 51, 66
1, 190866, Poly_aftertouch_c, 0, 49, 0
1, 190867, Note_off_c, 0, 61, 66
1, 191062, Note_on_c, 0, 27, 100
1, 191062, Note_on_c, 0, 41, 112
1, 191070, Control_c, 0, 64, 89
1, 191082, Note_on_c, 0, 25, 69
1, 191085, Control_c, 0, 64, 59
1, 191100, Control_c, 0, 64, 0
1, 191104, Note_off_c, 0, 27, 58
1, 191105, Note_on_c, 0, 26, 38
1, 191142, Note_off_c, 0, 25, 62
1, 191145, Note_off_c, 0, 41, 64
1, 191153, Note_off_c, 0, 26, 32
1, 191397, Note_on_c, 0, 41, 109
1, 191398, Note_on_c, 0, 25, 96
1, 191478, Note_on_c, 0, 39, 96
1, 191479, Note_on_c, 0, 23, 80
1, 191497, Note_off_c, 0, 25, 61
1, 191500, Note_off_c, 0, 41, 65
1, 191512, Note_on_c, 0, 24, 28
1, 191534, Note_off_c, 0, 39, 66
1, 191555, Note_on_c, 0, 22, 87
1, 191562, Note_on_c, 0, 38, 98
1, 191567, Note_off_c, 0, 24, 30
1, 191585, Note_off_c, 0, 23, 61
1, 191693, Note_off_c, 0, 38, 67
1, 191709, Note_off_c, 0, 22, 62
1, 192138, Note_on_c, 0, 72, 109
1, 192140, Note_on_c, 0, 27, 94
1, 192241, Note_on_c, 0, 39, 61
1, 192276, Note_off_c, 0, 27, 63
1, 192317, Note_off_c, 0, 39, 64
1, 192420, Note_on_c, 0, 51, 94
1, 192420, Note_on_c, 0, 60, 97
1, 192471, Note_off_c, 0, 72, 62
1, 192482, Note_off_c, 0, 51, 65
1, 192679, Note_on_c, 0, 32, 86
1, 192682, Note_off_c, 0, 60, 0
1, 192685, Note_on_c, 0, 74, 102
1, 192720, Poly_aftertouch_c, 0, 60, 0
1, 192725, Note_on_c, 0, 34, 30
1, 192726, Note_off_c, 0, 34, 127
1, 192791, Note_on_c, 0, 44, 92
1, 192809, Note_off_c, 0, 32, 60
1, 192842, Note_off_c, 0, 44, 63
1, 192937, Note_on_c, 0, 56, 107
1, 192937, Note_on_c, 0, 62, 104
1, 192984, Note_off_c, 0, 56, 66
1, 193044, Note_off_c, 0, 74, 65
1, 193160, Note_off_c, 0, 62, 59
1, 193204, Note_on_c, 0, 77, 110
1, 193210, Note_on_c, 0, 40, 89
1, 193248, Note_on_c, 0, 38, 39
1, 193249, Note_off_c, 0, 38, 127
1, 193272, Control_c, 0, 64, 12
1, 193287, Control_c, 0, 64, 57
1, 193288, Note_off_c, 0, 40, 58
1, 193302, Control_c, 0, 64, 69
1, 193304, Note_on_c, 0, 50, 85
1, 193317, Control_c, 0, 64, 112
1, 193332, Control_c, 0, 64, 127
1, 193338, Note_on_c, 0, 52, 53
1, 193354, Note_off_c, 0, 50, 65
1, 193362, Note_off_c, 0, 77, 60
1, 193363, Note_off_c, 0, 52, 60
1, 193460, Note_on_c, 0, 74, 94
1, 193463, Note_on_c, 0, 71, 68
1, 193465, Control_c, 0, 64, 92
1, 193466, Note_on_c, 0, 65, 86
1, 193469, Note_on_c, 0, 62, 81
1, 193479, Control_c, 0, 64, 72
1, 193494, Control_c, 0, 64, 56
1, 193509, Control_c, 0, 64, 22
1, 193525, Control_c, 0, 64, 0
1, 193555, Control_c, 0, 64, 43
1, 193558, Note_off_c, 0, 62, 61
1, 193569, Control_c, 0, 64, 62
1, 193571, Note_off_c, 0, 65, 62
1, 193584, Control_c, 0, 64, 73
1, 193599, Control_c, 0, 64, 102
1, 193614, Control_c, 0, 64, 127
1, 193744, Note_on_c, 0, 61, 85
1, 193748, Control_c, 0, 64, 105
1, 193763, Control_c, 0, 64, 81
1, 193766, Note_on_c, 0, 49, 58
1, 193767, Note_on_c, 0, 41, 53
1, 193785, Control_c, 0, 64, 67
1, 193800, Control_c, 0, 64, 59
1, 193815, Control_c, 0, 64, 54
1, 193827, Note_off_c, 0, 71, 44
1, 193829, Control_c, 0, 64, 58
1, 193844, Control_c, 0, 64, 64
1, 193859, Control_c, 0, 64, 72
1, 193874, Control_c, 0, 64, 108
1, 193889, Control_c, 0, 64, 127
1, 193901, Note_off_c, 0, 61, 61
1, 193933, Note_off_c, 0, 74, 53
1, 194033, Note_on_c, 0, 65, 67
1, 194035, Note_on_c, 0, 60, 86
1, 194038, Note_on_c, 0, 48, 62
1, 194038, Note_on_c, 0, 74, 81
1, 194050, Note_on_c, 0, 71, 65
1, 194051, Control_c, 0, 64, 94
1, 194066, Control_c, 0, 64, 75
1, 194077, Note_on_c, 0, 72, 38
1, 194081, Control_c, 0, 64, 65
1, 194095, Control_c, 0, 64, 58
1, 194110, Control_c, 0, 64, 59
1, 194113, Note_off_c, 0, 72, 33
1, 194125, Control_c, 0, 64, 64
1, 194140, Control_c, 0, 64, 70
1, 194155, Note_off_c, 0, 49, 37
1, 194155, Control_c, 0, 64, 95
1, 194170, Control_c, 0, 64, 127
1, 194170, Note_off_c, 0, 41, 62
1, 194230, Note_off_c, 0, 60, 63
1, 194253, Poly_aftertouch_c, 0, 66, 127
1, 194258, Note_off_c, 0, 74, 50
1, 194289, Poly_aftertouch_c, 0, 66, 0
1, 194304, Note_on_c, 0, 47, 76
1, 194305, Note_on_c, 0, 59, 92
1, 194311, Note_on_c, 0, 38, 70
1, 194312, Poly_aftertouch_c, 0, 72, 127
1, 194320, Note_on_c, 0, 72, 4
1, 194335, Note_off_c, 0, 48, 60
1, 194348, Control_c, 0, 64, 78
1, 194363, Control_c, 0, 64, 60
1, 194378, Control_c, 0, 64, 29
1, 194393, Control_c, 0, 64, 37
1, 194408, Control_c, 0, 64, 57
1, 194423, Control_c, 0, 64, 67
1, 194438, Control_c, 0, 64, 87
1, 194447, Note_off_c, 0, 72, 50
1, 194452, Control_c, 0, 64, 127
1, 194475, Note_off_c, 0, 59, 59
1, 194512, Note_off_c, 0, 65, 33
1, 194512, Note_off_c, 0, 71, 57
1, 194532, Note_off_c, 0, 38, 60
1, 194575, Note_on_c, 0, 60, 103
1, 194576, Note_on_c, 0, 74, 102
1, 194578, Note_on_c, 0, 71, 70
1, 194579, Note_on_c, 0, 65, 76
1, 194584, Note_on_c, 0, 48, 79
1, 194608, Control_c, 0, 64, 82
1, 194611, Note_off_c, 0, 47, 61
1, 194623, Control_c, 0, 64, 53
1, 194638, Control_c, 0, 64, 0
1, 194682, Control_c, 0, 64, 16
1, 194697, Control_c, 0, 64, 57
1, 194712, Control_c, 0, 64, 72
1, 194726, Control_c, 0, 64, 105
1, 194741, Control_c, 0, 64, 127
1, 194743, Note_off_c, 0, 60, 64
1, 194781, Note_off_c, 0, 48, 63
1, 194826, Note_on_c, 0, 49, 88
1, 194831, Note_on_c, 0, 61, 108
1, 194840, Note_on_c, 0, 41, 71
1, 194865, Note_on_c, 0, 40, 26
1, 194874, Control_c, 0, 64, 86
1, 194889, Control_c, 0, 64, 23
1, 194904, Control_c, 0, 64, 0
1, 194907, Note_off_c, 0, 40, 50
1, 194963, Control_c, 0, 64, 45
1, 194977, Control_c, 0, 64, 73
1, 194989, Note_off_c, 0, 61, 60
1, 194992, Control_c, 0, 64, 127
1, 195012, Note_off_c, 0, 71, 40
1, 195025, Note_off_c, 0, 74, 59
1, 195073, Note_off_c, 0, 65, 38
1, 195098, Note_on_c, 0, 65, 74
1, 195100, Note_on_c, 0, 62, 100
1, 195101, Note_on_c, 0, 74, 100
1, 195111, Note_on_c, 0, 45, 73
1, 195111, Note_on_c, 0, 53, 89
1, 195115, Note_on_c, 0, 71, 82
1, 195127, Control_c, 0, 64, 78
1, 195131, Note_off_c, 0, 41, 61
1, 195133, Note_off_c, 0, 49, 60
1, 195141, Control_c, 0, 64, 46
1, 195156, Control_c, 0, 64, 0
1, 195186, Note_off_c, 0, 45, 62
1, 195196, Note_off_c, 0, 65, 62
1, 195201, Control_c, 0, 64, 39
1, 195216, Control_c, 0, 64, 67
1, 195231, Control_c, 0, 64, 110
1, 195246, Control_c, 0, 64, 127
1, 195249, Note_off_c, 0, 53, 59
1, 195287, Note_off_c, 0, 62, 61
1, 195323, Note_off_c, 0, 71, 61
1, 195330, Note_off_c, 0, 74, 59
1, 195356, Control_c, 0, 64, 90
1, 195371, Control_c, 0, 64, 72
1, 195383, Note_on_c, 0, 69, 101
1, 195386, Control_c, 0, 64, 60
1, 195390, Note_on_c, 0, 59, 92
1, 195398, Note_on_c, 0, 50, 81
1, 195401, Control_c, 0, 64, 44
1, 195416, Control_c, 0, 64, 32
1, 195430, Control_c, 0, 64, 30
1, 195445, Control_c, 0, 64, 29
1, 195460, Note_off_c, 0, 50, 60
1, 195460, Control_c, 0, 64, 28
1, 195475, Control_c, 0, 64, 27
1, 195481, Note_off_c, 0, 59, 66
1, 195490, Control_c, 0, 64, 26
1, 195502, Note_off_c, 0, 69, 64
1, 195643, Note_on_c, 0, 81, 100
1, 195651, Note_on_c, 0, 65, 93
1, 195736, Note_off_c, 0, 65, 59
1, 195759, Note_on_c, 0, 53, 92
1, 195797, Note_off_c, 0, 53, 62
1, 195830, Control_c, 0, 64, 26
1, 195860, Control_c, 0, 64, 25
1, 195875, Control_c, 0, 64, 24
1, 195903, Note_on_c, 0, 41, 101
1, 195908, Note_on_c, 0, 69, 105
1, 195941, Note_off_c, 0, 41, 67
1, 195952, Note_off_c, 0, 81, 66
1, 196061, Control_c, 0, 64, 25
1, 196076, Control_c, 0, 64, 27
1, 196091, Control_c, 0, 64, 28
1, 196105, Control_c, 0, 64, 29
1, 196137, Note_off_c, 0, 69, 58
1, 196176, Note_on_c, 0, 56, 108
1, 196179, Note_on_c, 0, 84, 111
1, 196194, Control_c, 0, 64, 30
1, 196204, Note_on_c, 0, 83, 45
1, 196205, Note_off_c, 0, 83, 127
1, 196235, Note_on_c, 0, 46, 17
1, 196236, Note_off_c, 0, 46, 127
1, 196282, Note_on_c, 0, 44, 89
1, 196287, Note_off_c, 0, 56, 66
1, 196334, Note_off_c, 0, 44, 63
1, 196416, Control_c, 0, 64, 29
1, 196429, Note_on_c, 0, 32, 106
1, 196431, Control_c, 0, 64, 28
1, 196438, Note_on_c, 0, 72, 106
1, 196446, Control_c, 0, 64, 27
1, 196461, Control_c, 0, 64, 27
1, 196481, Note_off_c, 0, 84, 65
1, 196505, Control_c, 0, 64, 26
1, 196506, Note_off_c, 0, 32, 62
1, 196682, Note_off_c, 0, 72, 49
1, 196696, Note_on_c, 0, 79, 98
1, 196697, Note_on_c, 0, 63, 89
1, 196779, Note_off_c, 0, 63, 62
1, 196807, Note_on_c, 0, 51, 89
1, 196809, Control_c, 0, 64, 25
1, 196824, Control_c, 0, 64, 22
1, 196828, Note_on_c, 0, 62, 9
1, 196839, Control_c, 0, 64, 11
1, 196853, Control_c, 0, 64, 0
1, 196856, Note_off_c, 0, 51, 65
1, 196875, Note_off_c, 0, 62, 27
1, 196968, Note_on_c, 0, 39, 83
1, 196968, Note_on_c, 0, 67, 94
1, 197035, Note_off_c, 0, 39, 64
1, 197052, Note_off_c, 0, 79, 60
1, 197220, Note_on_c, 0, 76, 100
1, 197223, Note_on_c, 0, 54, 84
1, 197238, Note_off_c, 0, 67, 62
1, 197317, Note_off_c, 0, 54, 63
1, 197323, Note_on_c, 0, 42, 70
1, 197361, Note_off_c, 0, 42, 65
1, 197475, Note_on_c, 0, 30, 71
1, 197478, Note_on_c, 0, 64, 91
1, 197490, Note_off_c, 0, 76, 55
1, 197514, Control_c, 0, 64, 62
1, 197520, Note_off_c, 0, 30, 65
1, 197529, Control_c, 0, 64, 110
1, 197535, Note_off_c, 0, 64, 66
1, 197544, Control_c, 0, 64, 127
1, 197663, Control_c, 0, 64, 94
1, 197677, Control_c, 0, 64, 77
1, 197692, Control_c, 0, 64, 63
1, 197707, Control_c, 0, 64, 44
1, 197722, Control_c, 0, 64, 0
1, 197755, Note_on_c, 0, 36, 47
1, 197765, Note_on_c, 0, 57, 55
1, 197796, Control_c, 0, 64, 43
1, 197804, Note_on_c, 0, 40, 54
1, 197811, Control_c, 0, 64, 62
1, 197822, Note_off_c, 0, 57, 59
1, 197824, Note_off_c, 0, 36, 50
1, 197825, Control_c, 0, 64, 71
1, 197827, Note_on_c, 0, 59, 56
1, 197840, Control_c, 0, 64, 95
1, 197855, Control_c, 0, 64, 127
1, 197860, Note_on_c, 0, 42, 72
1, 197872, Note_off_c, 0, 59, 62
1, 197872, Note_on_c, 0, 60, 67
1, 197881, Note_off_c, 0, 40, 62
1, 197908, Note_on_c, 0, 45, 72
1, 197914, Note_off_c, 0, 42, 63
1, 197924, Note_on_c, 0, 64, 67
1, 197924, Note_off_c, 0, 60, 65
1, 197940, Note_off_c, 0, 45, 64
1, 197943, Note_off_c, 0, 64, 65
1, 197953, Note_on_c, 0, 65, 43
1, 197981, Note_off_c, 0, 65, 55
1, 197987, Note_on_c, 0, 69, 98
1, 197988, Note_on_c, 0, 48, 80
1, 198036, Note_on_c, 0, 52, 78
1, 198050, Note_on_c, 0, 71, 93
1, 198053, Note_off_c, 0, 69, 59
1, 198093, Note_on_c, 0, 54, 84
1, 198095, Note_on_c, 0, 72, 85
1, 198098, Note_off_c, 0, 48, 64
1, 198116, Note_off_c, 0, 52, 66
1, 198128, Note_off_c, 0, 71, 64
1, 198141, Note_on_c, 0, 57, 82
1, 198145, Note_on_c, 0, 76, 94
1, 198149, Note_off_c, 0, 54, 65
1, 198160, Note_off_c, 0, 72, 64
1, 198170, Note_off_c, 0, 76, 68
1, 198175, Note_off_c, 0, 57, 64
1, 198220, Note_on_c, 0, 81, 97
1, 198223, Note_on_c, 0, 60, 96
1, 198223, Note_on_c, 0, 79, 86
1, 198244, Note_off_c, 0, 79, 64
1, 198277, Control_c, 0, 64, 82
1, 198283, Note_on_c, 0, 62, 74
1, 198283, Note_on_c, 0, 83, 97
1, 198292, Control_c, 0, 64, 64
1, 198307, Control_c, 0, 64, 30
1, 198308, Note_off_c, 0, 81, 63
1, 198322, Control_c, 0, 64, 0
1, 198328, Note_on_c, 0, 64, 80
1, 198334, Note_on_c, 0, 84, 83
1, 198339, Note_off_c, 0, 60, 50
1, 198365, Note_on_c, 0, 65, 82
1, 198365, Note_off_c, 0, 62, 63
1, 198379, Note_off_c, 0, 64, 66
1, 198384, Note_on_c, 0, 86, 91
1, 198384, Note_off_c, 0, 83, 65
1, 198397, Note_off_c, 0, 65, 65
1, 198419, Note_off_c, 0, 84, 66
1, 198453, Note_on_c, 0, 66, 97
1, 198458, Note_on_c, 0, 88, 101
1, 198487, Note_off_c, 0, 86, 64
1, 198604, Control_c, 0, 64, 39
1, 198618, Control_c, 0, 64, 68
1, 198633, Control_c, 0, 64, 80
1, 198648, Control_c, 0, 64, 127
1, 198686, Note_off_c, 0, 88, 55
1, 198721, Note_on_c, 0, 79, 84
1, 198724, Note_on_c, 0, 76, 82
1, 198757, Note_off_c, 0, 76, 62
1, 198757, Note_off_c, 0, 79, 65
1, 198781, Note_on_c, 0, 75, 93
1, 198821, Note_off_c, 0, 75, 63
1, 198840, Note_on_c, 0, 72, 91
1, 198844, Note_on_c, 0, 78, 83
1, 198854, Note_on_c, 0, 79, 77
1, 198868, Note_on_c, 0, 80, 46
1, 198871, Note_off_c, 0, 72, 64
1, 198879, Note_off_c, 0, 79, 68
1, 198888, Note_off_c, 0, 78, 61
1, 198891, Note_off_c, 0, 80, 57
1, 198900, Note_on_c, 0, 75, 96
1, 198951, Note_on_c, 0, 76, 111
1, 198959, Note_on_c, 0, 71, 91
1, 198970, Note_off_c, 0, 75, 58
1, 198976, Note_off_c, 0, 71, 74
1, 199042, Note_off_c, 0, 76, 67
1, 199148, Note_off_c, 0, 66, 56
1, 199200, Note_on_c, 0, 71, 88
1, 199204, Note_on_c, 0, 65, 85
1, 199212, Note_on_c, 0, 86, 111
1, 199219, Control_c, 0, 64, 105
1, 199234, Control_c, 0, 64, 70
1, 199236, Note_on_c, 0, 84, 56
1, 199237, Note_off_c, 0, 84, 127
1, 199249, Control_c, 0, 64, 40
1, 199264, Control_c, 0, 64, 0
1, 199309, Control_c, 0, 64, 43
1, 199323, Control_c, 0, 64, 63
1, 199338, Control_c, 0, 64, 79
1, 199353, Control_c, 0, 64, 127
1, 199395, Note_off_c, 0, 71, 60
1, 199491, Note_off_c, 0, 86, 63
1, 199523, Note_on_c, 0, 76, 81
1, 199529, Note_on_c, 0, 71, 74
1, 199533, Note_on_c, 0, 79, 96
1, 199533, Note_on_c, 0, 91, 107
1, 199545, Control_c, 0, 64, 86
1, 199547, Note_off_c, 0, 65, 55
1, 199560, Control_c, 0, 64, 71
1, 199575, Control_c, 0, 64, 62
1, 199589, Control_c, 0, 64, 58
1, 199604, Control_c, 0, 64, 60
1, 199618, Note_off_c, 0, 76, 62
1, 199618, Control_c, 0, 64, 64
1, 199628, Note_off_c, 0, 91, 62
1, 199633, Control_c, 0, 64, 75
1, 199647, Control_c, 0, 64, 127
1, 199666, Note_off_c, 0, 71, 61
1, 199680, Note_off_c, 0, 79, 63
1, 199887, Note_on_c, 0, 84, 91
1, 199889, Note_on_c, 0, 62, 63
1, 199889, Note_on_c, 0, 72, 91
1, 199893, Note_on_c, 0, 76, 71
1, 199899, Note_on_c, 0, 81, 66
1, 199923, Control_c, 0, 64, 92
1, 199923, Note_on_c, 0, 50, 41
1, 199924, Note_on_c, 0, 48, 54
1, 199937, Control_c, 0, 64, 75
1, 199952, Control_c, 0, 64, 66
1, 199961, Note_off_c, 0, 62, 55
1, 199967, Control_c, 0, 64, 61
1, 199982, Control_c, 0, 64, 59
1, 199997, Control_c, 0, 64, 61
1, 200000, Note_off_c, 0, 50, 60
1, 200011, Control_c, 0, 64, 68
1, 200014, Note_off_c, 0, 48, 61
1, 200026, Control_c, 0, 64, 79
1, 200041, Control_c, 0, 64, 127
1, 200116, Note_off_c, 0, 72, 63
1, 200201, Note_on_c, 0, 47, 71
1, 200202, Note_on_c, 0, 71, 99
1, 200212, Note_on_c, 0, 39, 66
1, 200248, Control_c, 0, 64, 92
1, 200262, Control_c, 0, 64, 70
1, 200277, Control_c, 0, 64, 53
1, 200292, Control_c, 0, 64, 45
1, 200307, Control_c, 0, 64, 57
1, 200322, Control_c, 0, 64, 65
1, 200337, Control_c, 0, 64, 77
1, 200342, Note_off_c, 0, 76, 54
1, 200343, Note_off_c, 0, 39, 63
1, 200346, Note_off_c, 0, 81, 57
1, 200352, Control_c, 0, 64, 127
1, 200385, Note_off_c, 0, 47, 61
1, 200388, Note_off_c, 0, 71, 62
1, 200391, Note_off_c, 0, 84, 58
1, 200483, Note_on_c, 0, 70, 94
1, 200483, Note_on_c, 0, 76, 80
1, 200485, Note_on_c, 0, 84, 92
1, 200490, Note_on_c, 0, 81, 68
1, 200492, Note_on_c, 0, 58, 68
1, 200496, Note_on_c, 0, 46, 56
1, 200522, Control_c, 0, 64, 88
1, 200525, Note_on_c, 0, 83, 47
1, 200537, Control_c, 0, 64, 67
1, 200549, Note_off_c, 0, 83, 49
1, 200552, Control_c, 0, 64, 49
1, 200567, Control_c, 0, 64, 34
1, 200581, Control_c, 0, 64, 53
1, 200596, Control_c, 0, 64, 64
1, 200597, Note_off_c, 0, 58, 64
1, 200611, Control_c, 0, 64, 74
1, 200626, Control_c, 0, 64, 122
1, 200640, Note_off_c, 0, 46, 62
1, 200641, Control_c, 0, 64, 127
1, 200687, Note_off_c, 0, 70, 60
1, 200716, Poly_aftertouch_c, 0, 83, 127
1, 200737, Note_off_c, 0, 84, 59
1, 200759, Note_on_c, 0, 69, 93
1, 200760, Control_c, 0, 64, 114
1, 200763, Note_on_c, 0, 45, 73
1, 200766, Note_on_c, 0, 36, 64
1, 200775, Control_c, 0, 64, 77
1, 200790, Control_c, 0, 64, 62
1, 200805, Control_c, 0, 64, 45
1, 200820, Control_c, 0, 64, 47
1, 200834, Control_c, 0, 64, 59
1, 200849, Control_c, 0, 64, 68
1, 200864, Control_c, 0, 64, 86
1, 200872, Note_off_c, 0, 36, 61
1, 200879, Control_c, 0, 64, 127
1, 200898, Note_off_c, 0, 45, 62
1, 200913, Note_off_c, 0, 69, 59
1, 200922, Poly_aftertouch_c, 0, 83, 0
1, 200924, Note_off_c, 0, 81, 60
1, 200928, Note_off_c, 0, 76, 60
1, 201034, Note_on_c, 0, 84, 93
1, 201035, Note_on_c, 0, 70, 98
1, 201035, Note_on_c, 0, 76, 83
1, 201041, Control_c, 0, 64, 93
1, 201042, Note_on_c, 0, 58, 87
1, 201044, Note_on_c, 0, 81, 72
1, 201046, Note_on_c, 0, 46, 73
1, 201056, Control_c, 0, 64, 70
1, 201071, Control_c, 0, 64, 54
1, 201085, Control_c, 0, 64, 26
1, 201100, Control_c, 0, 64, 34
1, 201116, Control_c, 0, 64, 54
1, 201131, Control_c, 0, 64, 66
1, 201133, Note_off_c, 0, 58, 63
1, 201146, Control_c, 0, 64, 80
1, 201147, Note_off_c, 0, 46, 62
1, 201160, Control_c, 0, 64, 127
1, 201204, Note_off_c, 0, 70, 60
1, 201307, Note_on_c, 0, 47, 81
1, 201309, Note_on_c, 0, 71, 102
1, 201318, Note_on_c, 0, 39, 78
1, 201331, Control_c, 0, 64, 76
1, 201346, Control_c, 0, 64, 46
1, 201360, Control_c, 0, 64, 0
1, 201368, Note_off_c, 0, 76, 48
1, 201389, Poly_aftertouch_c, 0, 83, 127
1, 201390, Control_c, 0, 64, 45
1, 201405, Control_c, 0, 64, 69
1, 201419, Note_off_c, 0, 39, 63
1, 201419, Control_c, 0, 64, 127
1, 201455, Note_off_c, 0, 47, 62
1, 201467, Note_off_c, 0, 84, 57
1, 201470, Note_off_c, 0, 81, 58
1, 201476, Note_off_c, 0, 71, 55
1, 201484, Poly_aftertouch_c, 0, 83, 0
1, 201572, Note_on_c, 0, 76, 73
1, 201579, Note_on_c, 0, 84, 94
1, 201580, Note_on_c, 0, 60, 97
1, 201580, Note_on_c, 0, 72, 108
1, 201582, Note_on_c, 0, 48, 93
1, 201586, Note_on_c, 0, 81, 80
1, 201598, Control_c, 0, 64, 104
1, 201613, Control_c, 0, 64, 70
1, 201628, Control_c, 0, 64, 43
1, 201643, Control_c, 0, 64, 0
1, 201672, Control_c, 0, 64, 51
1, 201682, Note_off_c, 0, 60, 62
1, 201687, Control_c, 0, 64, 66
1, 201702, Control_c, 0, 64, 81
1, 201710, Note_off_c, 0, 48, 62
1, 201717, Control_c, 0, 64, 127
1, 201750, Note_off_c, 0, 72, 63
1, 201847, Note_on_c, 0, 73, 108
1, 201850, Note_on_c, 0, 49, 70
1, 201856, Note_on_c, 0, 42, 72
1, 201865, Control_c, 0, 64, 79
1, 201870, Note_on_c, 0, 44, 59
1, 201875, Note_on_c, 0, 50, 67
1, 201879, Note_off_c, 0, 76, 65
1, 201880, Control_c, 0, 64, 61
1, 201895, Control_c, 0, 64, 33
1, 201909, Control_c, 0, 64, 0
1, 201939, Control_c, 0, 64, 45
1, 201947, Note_off_c, 0, 42, 63
1, 201954, Control_c, 0, 64, 62
1, 201969, Control_c, 0, 64, 79
1, 201973, Note_off_c, 0, 50, 59
1, 201983, Control_c, 0, 64, 127
1, 201987, Note_off_c, 0, 44, 23
1, 201987, Note_off_c, 0, 49, 59
1, 202023, Note_off_c, 0, 84, 59
1, 202026, Note_off_c, 0, 73, 60
1, 202027, Note_off_c, 0, 81, 56
1, 202057, Note_on_c, 0, 76, 28
1, 202086, Note_off_c, 0, 76, 48
1, 202125, Note_on_c, 0, 62, 92
1, 202127, Note_on_c, 0, 50, 85
1, 202127, Note_on_c, 0, 74, 107
1, 202127, Note_on_c, 0, 84, 103
1, 202137, Note_on_c, 0, 81, 76
1, 202140, Note_on_c, 0, 76, 78
1, 202154, Control_c, 0, 64, 106
1, 202169, Control_c, 0, 64, 77
1, 202183, Control_c, 0, 64, 64
1, 202198, Control_c, 0, 64, 52
1, 202213, Control_c, 0, 64, 46
1, 202228, Control_c, 0, 64, 52
1, 202242, Control_c, 0, 64, 62
1, 202257, Control_c, 0, 64, 70
1, 202272, Control_c, 0, 64, 90
1, 202280, Note_off_c, 0, 74, 60
1, 202287, Control_c, 0, 64, 127
1, 202301, Note_off_c, 0, 62, 59
1, 202304, Note_off_c, 0, 50, 60
1, 202424, Note_on_c, 0, 51, 69
1, 202424, Note_on_c, 0, 47, 69
1, 202445, Note_on_c, 0, 75, 92
1, 202451, Control_c, 0, 64, 104
1, 202465, Control_c, 0, 64, 84
1, 202480, Control_c, 0, 64, 73
1, 202483, Note_off_c, 0, 76, 62
1, 202495, Control_c, 0, 64, 65
1, 202510, Control_c, 0, 64, 59
1, 202525, Control_c, 0, 64, 54
1, 202540, Control_c, 0, 64, 56
1, 202555, Control_c, 0, 64, 62
1, 202570, Control_c, 0, 64, 68
1, 202585, Control_c, 0, 64, 84
1, 202585, Note_on_c, 0, 76, 95
1, 202600, Control_c, 0, 64, 127
1, 202609, Note_off_c, 0, 47, 56
1, 202619, Note_off_c, 0, 84, 59
1, 202621, Note_off_c, 0, 81, 60
1, 202664, Note_off_c, 0, 75, 59
1, 202690, Note_off_c, 0, 51, 59
1, 202720, Note_on_c, 0, 74, 104
1, 202721, Note_on_c, 0, 50, 86
1, 202721, Note_on_c, 0, 62, 90
1, 202721, Note_on_c, 0, 84, 95
1, 202728, Note_on_c, 0, 81, 84
1, 202731, Control_c, 0, 64, 77
1, 202746, Control_c, 0, 64, 58
1, 202769, Control_c, 0, 64, 0
1, 202784, Control_c, 0, 64, 15
1, 202799, Control_c, 0, 64, 49
1, 202807, Note_off_c, 0, 62, 63
1, 202813, Control_c, 0, 64, 65
1, 202828, Control_c, 0, 64, 78
1, 202835, Note_off_c, 0, 50, 65
1, 202843, Control_c, 0, 64, 127
1, 202857, Note_off_c, 0, 74, 65
1, 202961, Note_off_c, 0, 76, 0
1, 202961, Control_c, 0, 64, 113
1, 202975, Note_on_c, 0, 73, 99
1, 202976, Control_c, 0, 64, 71
1, 202978, Note_on_c, 0, 42, 83
1, 202982, Note_on_c, 0, 49, 85
1, 202991, Control_c, 0, 64, 33
1, 202999, Poly_aftertouch_c, 0, 76, 127
1, 203005, Control_c, 0, 64, 0
1, 203011, Poly_aftertouch_c, 0, 76, 0
1, 203035, Control_c, 0, 64, 49
1, 203050, Control_c, 0, 64, 66
1, 203065, Control_c, 0, 64, 89
1, 203079, Control_c, 0, 64, 127
1, 203089, Note_on_c, 0, 76, 94
1, 203107, Note_off_c, 0, 42, 62
1, 203121, Note_off_c, 0, 49, 63
1, 203124, Note_off_c, 0, 73, 63
1, 203128, Note_off_c, 0, 81, 30
1, 203129, Note_off_c, 0, 84, 61
1, 203195, Note_off_c, 0, 76, 64
1, 203214, Control_c, 0, 64, 109
1, 203229, Note_on_c, 0, 60, 100
1, 203229, Control_c, 0, 64, 68
1, 203232, Note_on_c, 0, 72, 105
1, 203233, Note_on_c, 0, 84, 104
1, 203235, Note_on_c, 0, 76, 67
1, 203236, Note_on_c, 0, 48, 85
1, 203240, Note_on_c, 0, 81, 76
1, 203243, Control_c, 0, 64, 0
1, 203247, Note_on_c, 0, 50, 78
1, 203267, Note_off_c, 0, 50, 61
1, 203275, Note_off_c, 0, 60, 65
1, 203294, Note_off_c, 0, 48, 63
1, 203303, Control_c, 0, 64, 59
1, 203318, Control_c, 0, 64, 83
1, 203333, Control_c, 0, 64, 127
1, 203366, Note_off_c, 0, 72, 60
1, 203479, Note_on_c, 0, 47, 98
1, 203484, Note_on_c, 0, 39, 91
1, 203493, Note_on_c, 0, 71, 100
1, 203495, Control_c, 0, 64, 77
1, 203518, Control_c, 0, 64, 38
1, 203533, Control_c, 0, 64, 0
1, 203592, Control_c, 0, 64, 61
1, 203594, Note_off_c, 0, 39, 63
1, 203607, Control_c, 0, 64, 127
1, 203617, Note_off_c, 0, 47, 64
1, 203644, Note_off_c, 0, 71, 54
1, 203649, Note_off_c, 0, 84, 56
1, 203673, Note_off_c, 0, 81, 54
1, 203675, Note_off_c, 0, 76, 55
1, 203780, Note_on_c, 0, 84, 100
1, 203783, Note_on_c, 0, 72, 105
1, 203784, Note_on_c, 0, 60, 103
1, 203784, Note_on_c, 0, 76, 95
1, 203788, Note_on_c, 0, 81, 84
1, 203789, Note_on_c, 0, 48, 95
1, 203813, Control_c, 0, 64, 83
1, 203828, Control_c, 0, 64, 38
1, 203843, Control_c, 0, 64, 0
1, 203873, Control_c, 0, 64, 36
1, 203887, Note_off_c, 0, 48, 62
1, 203887, Control_c, 0, 64, 66
1, 203903, Control_c, 0, 64, 110
1, 203907, Note_off_c, 0, 60, 64
1, 203918, Control_c, 0, 64, 127
1, 203928, Note_off_c, 0, 76, 60
1, 203942, Note_off_c, 0, 72, 60
1, 203959, Note_off_c, 0, 84, 58
1, 203974, Note_off_c, 0, 81, 63
1, 204086, Note_on_c, 0, 63, 99
1, 204090, Note_on_c, 0, 79, 112
1, 204094, Note_on_c, 0, 67, 83
1, 204096, Control_c, 0, 64, 88
1, 204111, Control_c, 0, 64, 66
1, 204126, Control_c, 0, 64, 35
1, 204141, Control_c, 0, 64, 0
1, 204197, Note_off_c, 0, 67, 62
1, 204203, Note_off_c, 0, 63, 62
1, 204206, Note_off_c, 0, 79, 64
1, 204373, Note_on_c, 0, 75, 100
1, 204374, Note_on_c, 0, 87, 102
1, 204375, Note_on_c, 0, 82, 85
1, 204385, Note_on_c, 0, 84, 76
1, 204418, Note_on_c, 0, 85, 32
1, 204419, Note_off_c, 0, 85, 127
1, 204505, Note_on_c, 0, 71, 90
1, 204512, Note_on_c, 0, 74, 65
1, 204526, Note_on_c, 0, 72, 62
1, 204526, Note_off_c, 0, 75, 57
1, 204536, Note_off_c, 0, 71, 64
1, 204542, Note_off_c, 0, 74, 64
1, 204544, Note_off_c, 0, 72, 64
1, 204635, Note_off_c, 0, 82, 0
1, 204638, Note_on_c, 0, 74, 99
1, 204644, Note_on_c, 0, 62, 97
1, 204648, Note_on_c, 0, 59, 85
1, 204648, Note_on_c, 0, 82, 51
1, 204651, Control_c, 0, 64, 68
1, 204666, Control_c, 0, 64, 127
1, 204671, Note_on_c, 0, 85, 27
1, 204674, Note_off_c, 0, 59, 67
1, 204676, Note_off_c, 0, 82, 60
1, 204682, Note_off_c, 0, 62, 65
1, 204687, Note_off_c, 0, 84, 0
1, 204687, Note_on_c, 0, 84, 7
1, 204703, Note_off_c, 0, 87, 56
1, 204745, Note_off_c, 0, 74, 56
1, 204760, Note_off_c, 0, 85, 23
1, 204799, Note_on_c, 0, 82, 23
1, 204808, Note_off_c, 0, 84, 52
1, 204835, Note_off_c, 0, 82, 43
1, 204898, Note_on_c, 0, 73, 101
1, 204901, Note_on_c, 0, 87, 96
1, 204904, Note_on_c, 0, 82, 84
1, 204904, Note_on_c, 0, 84, 81
1, 204934, Control_c, 0, 64, 79
1, 204949, Control_c, 0, 64, 50
1, 204964, Control_c, 0, 64, 0
1, 205026, Note_on_c, 0, 69, 95
1, 205032, Note_on_c, 0, 72, 85
1, 205050, Note_off_c, 0, 73, 57
1, 205054, Note_off_c, 0, 72, 68
1, 205064, Note_off_c, 0, 69, 66
1, 205112, Note_off_c, 0, 87, 56
1, 205118, Note_off_c, 0, 82, 56
1, 205179, Note_on_c, 0, 72, 103
1, 205180, Note_on_c, 0, 60, 98
1, 205183, Note_on_c, 0, 57, 92
1, 205205, Note_on_c, 0, 85, 48
1, 205208, Note_off_c, 0, 57, 66
1, 205208, Control_c, 0, 64, 71
1, 205210, Note_off_c, 0, 60, 65
1, 205219, Note_on_c, 0, 83, 32
1, 205223, Control_c, 0, 64, 127
1, 205248, Note_off_c, 0, 72, 59
1, 205254, Note_off_c, 0, 85, 56
1, 205257, Note_off_c, 0, 83, 31
1, 205300, Note_off_c, 0, 84, 58
1, 205429, Note_on_c, 0, 75, 107
1, 205431, Note_on_c, 0, 82, 88
1, 205431, Note_on_c, 0, 87, 105
1, 205439, Note_on_c, 0, 84, 86
1, 205490, Control_c, 0, 64, 111
1, 205506, Control_c, 0, 64, 68
1, 205521, Control_c, 0, 64, 12
1, 205536, Control_c, 0, 64, 0
1, 205548, Note_on_c, 0, 71, 111
1, 205554, Note_on_c, 0, 74, 90
1, 205582, Note_off_c, 0, 74, 64
1, 205585, Note_off_c, 0, 71, 69
1, 205589, Note_off_c, 0, 75, 55
1, 205674, Note_off_c, 0, 82, 60
1, 205703, Note_on_c, 0, 62, 97
1, 205706, Note_on_c, 0, 74, 108
1, 205707, Note_on_c, 0, 59, 92
1, 205721, Note_on_c, 0, 82, 50
1, 205732, Note_on_c, 0, 85, 54
1, 205740, Note_off_c, 0, 59, 66
1, 205740, Note_off_c, 0, 62, 68
1, 205743, Control_c, 0, 64, 82
1, 205746, Note_off_c, 0, 82, 64
1, 205757, Note_on_c, 0, 60, 23
1, 205758, Note_off_c, 0, 60, 127
1, 205765, Control_c, 0, 64, 127
1, 205765, Note_off_c, 0, 87, 57
1, 205818, Note_off_c, 0, 85, 29
1, 205823, Note_off_c, 0, 74, 57
1, 205864, Note_on_c, 0, 82, 28
1, 205881, Note_off_c, 0, 84, 58
1, 205905, Note_off_c, 0, 82, 40
1, 205968, Note_on_c, 0, 73, 107
1, 205970, Note_on_c, 0, 87, 95
1, 205971, Note_on_c, 0, 82, 84
1, 205977, Note_on_c, 0, 84, 85
1, 205998, Note_on_c, 0, 85, 53
1, 206020, Note_off_c, 0, 85, 59
1, 206061, Control_c, 0, 64, 85
1, 206076, Control_c, 0, 64, 69
1, 206086, Note_on_c, 0, 69, 85
1, 206086, Note_on_c, 0, 72, 82
1, 206090, Control_c, 0, 64, 55
1, 206105, Control_c, 0, 64, 0
1, 206115, Note_off_c, 0, 72, 64
1, 206119, Note_on_c, 0, 67, 39
1, 206120, Note_off_c, 0, 67, 127
1, 206127, Note_off_c, 0, 69, 64
1, 206140, Note_off_c, 0, 87, 59
1, 206145, Note_off_c, 0, 73, 56
1, 206169, Note_off_c, 0, 82, 57
1, 206202, Note_off_c, 0, 84, 55
1, 206240, Note_on_c, 0, 72, 98
1, 206244, Note_on_c, 0, 59, 74
1, 206244, Note_on_c, 0, 60, 76
1, 206253, Note_on_c, 0, 55, 59
1, 206254, Control_c, 0, 64, 60
1, 206259, Note_on_c, 0, 57, 59
1, 206269, Note_off_c, 0, 60, 69
1, 206269, Control_c, 0, 64, 90
1, 206272, Note_off_c, 0, 59, 68
1, 206283, Control_c, 0, 64, 127
1, 206284, Note_on_c, 0, 82, 34
1, 206285, Note_off_c, 0, 55, 65
1, 206286, Note_off_c, 0, 57, 66
1, 206304, Note_off_c, 0, 72, 63
1, 206318, Note_off_c, 0, 82, 44
1, 206488, Note_on_c, 0, 51, 72
1, 206490, Note_on_c, 0, 75, 104
1, 206491, Note_on_c, 0, 63, 95
1, 206492, Control_c, 0, 64, 97
1, 206513, Control_c, 0, 64, 69
1, 206528, Control_c, 0, 64, 31
1, 206543, Control_c, 0, 64, 0
1, 206558, Control_c, 0, 64, 22
1, 206573, Control_c, 0, 64, 55
1, 206577, Note_off_c, 0, 75, 62
1, 206588, Control_c, 0, 64, 66
1, 206591, Note_off_c, 0, 51, 65
1, 206603, Control_c, 0, 64, 80
1, 206609, Note_off_c, 0, 63, 62
1, 206618, Control_c, 0, 64, 127
1, 206772, Note_on_c, 0, 51, 109
1, 206780, Control_c, 0, 64, 82
1, 206785, Note_on_c, 0, 46, 67
1, 206793, Note_on_c, 0, 34, 60
1, 206795, Control_c, 0, 64, 66
1, 206810, Control_c, 0, 64, 49
1, 206823, Note_off_c, 0, 46, 61
1, 206825, Control_c, 0, 64, 44
1, 206829, Note_off_c, 0, 34, 63
1, 206840, Control_c, 0, 64, 54
1, 206854, Control_c, 0, 64, 64
1, 206869, Control_c, 0, 64, 72
1, 206884, Control_c, 0, 64, 93
1, 206898, Control_c, 0, 64, 127
1, 206901, Note_on_c, 0, 46, 62
1, 206906, Note_off_c, 0, 51, 63
1, 206910, Note_on_c, 0, 34, 49
1, 206946, Note_off_c, 0, 34, 53
1, 206957, Note_off_c, 0, 46, 60
1, 207032, Control_c, 0, 64, 92
1, 207047, Control_c, 0, 64, 71
1, 207051, Note_on_c, 0, 74, 102
1, 207053, Note_on_c, 0, 62, 91
1, 207054, Note_on_c, 0, 50, 82
1, 207062, Control_c, 0, 64, 59
1, 207077, Control_c, 0, 64, 42
1, 207092, Control_c, 0, 64, 44
1, 207107, Control_c, 0, 64, 57
1, 207121, Control_c, 0, 64, 65
1, 207136, Control_c, 0, 64, 76
1, 207142, Note_off_c, 0, 74, 61
1, 207151, Control_c, 0, 64, 117
1, 207163, Note_off_c, 0, 50, 64
1, 207166, Control_c, 0, 64, 127
1, 207187, Note_off_c, 0, 62, 63
1, 207315, Note_on_c, 0, 50, 111
1, 207321, Control_c, 0, 64, 109
1, 207330, Note_on_c, 0, 44, 84
1, 207332, Note_on_c, 0, 32, 78
1, 207336, Control_c, 0, 64, 71
1, 207351, Control_c, 0, 64, 45
1, 207360, Note_off_c, 0, 44, 63
1, 207364, Note_off_c, 0, 32, 65
1, 207366, Control_c, 0, 64, 0
1, 207381, Control_c, 0, 64, 37
1, 207396, Control_c, 0, 64, 61
1, 207410, Control_c, 0, 64, 73
1, 207425, Control_c, 0, 64, 127
1, 207430, Note_on_c, 0, 32, 73
1, 207434, Note_on_c, 0, 44, 88
1, 207445, Note_off_c, 0, 50, 63
1, 207473, Note_off_c, 0, 32, 63
1, 207491, Note_off_c, 0, 44, 62
1, 207573, Control_c, 0, 64, 115
1, 207584, Note_on_c, 0, 60, 98
1, 207584, Note_on_c, 0, 72, 102
1, 207586, Note_on_c, 0, 48, 101
1, 207588, Control_c, 0, 64, 73
1, 207602, Control_c, 0, 64, 50
1, 207617, Control_c, 0, 64, 0
1, 207646, Control_c, 0, 64, 44
1, 207661, Control_c, 0, 64, 66
1, 207673, Note_off_c, 0, 72, 65
1, 207676, Control_c, 0, 64, 90
1, 207682, Note_off_c, 0, 48, 65
1, 207691, Control_c, 0, 64, 127
1, 207717, Note_off_c, 0, 60, 67
1, 207834, Note_on_c, 0, 48, 116
1, 207838, Note_on_c, 0, 42, 98
1, 207839, Note_on_c, 0, 30, 93
1, 207869, Control_c, 0, 64, 82
1, 207876, Note_on_c, 0, 29, 47
1, 207877, Note_off_c, 0, 42, 62
1, 207881, Note_off_c, 0, 30, 62
1, 207884, Control_c, 0, 64, 51
1, 207900, Control_c, 0, 64, 0
1, 207920, Note_off_c, 0, 29, 45
1, 207929, Control_c, 0, 64, 33
1, 207944, Control_c, 0, 64, 65
1, 207948, Note_on_c, 0, 42, 103
1, 207956, Note_on_c, 0, 30, 86
1, 207959, Control_c, 0, 64, 127
1, 207961, Note_off_c, 0, 48, 66
1, 207988, Note_off_c, 0, 30, 65
1, 208000, Note_off_c, 0, 42, 64
1, 208099, Control_c, 0, 64, 109
1, 208111, Note_on_c, 0, 47, 109
1, 208113, Note_on_c, 0, 71, 100
1, 208114, Note_on_c, 0, 59, 104
1, 208114, Control_c, 0, 64, 64
1, 208116, Note_on_c, 0, 72, 104
1, 208119, Note_on_c, 0, 60, 89
1, 208129, Control_c, 0, 64, 0
1, 208138, Note_off_c, 0, 72, 69
1, 208177, Note_off_c, 0, 60, 33
1, 208189, Control_c, 0, 64, 54
1, 208202, Note_off_c, 0, 71, 63
1, 208204, Control_c, 0, 64, 115
1, 208210, Note_off_c, 0, 47, 65
1, 208219, Control_c, 0, 64, 127
1, 208227, Note_off_c, 0, 59, 64
1, 208381, Control_c, 0, 64, 98
1, 208382, Note_on_c, 0, 47, 109
1, 208385, Note_on_c, 0, 41, 102
1, 208387, Note_on_c, 0, 29, 95
1, 208396, Control_c, 0, 64, 45
1, 208402, Note_on_c, 0, 48, 59
1, 208403, Note_off_c, 0, 48, 127
1, 208411, Control_c, 0, 64, 0
1, 208418, Note_on_c, 0, 30, 41
1, 208429, Note_off_c, 0, 41, 61
1, 208430, Note_off_c, 0, 29, 60
1, 208455, Note_off_c, 0, 30, 57
1, 208455, Note_off_c, 0, 47, 64
1, 208455, Control_c, 0, 64, 33
1, 208469, Control_c, 0, 64, 84
1, 208484, Control_c, 0, 64, 127
1, 208502, Note_on_c, 0, 41, 102
1, 208505, Note_on_c, 0, 29, 88
1, 208532, Note_off_c, 0, 29, 67
1, 208557, Note_off_c, 0, 41, 64
1, 208727, Note_on_c, 0, 76, 107
1, 208731, Note_on_c, 0, 64, 105
1, 208731, Note_on_c, 0, 88, 99
1, 208734, Note_on_c, 0, 89, 102
1, 208735, Note_on_c, 0, 52, 105
1, 208736, Note_on_c, 0, 81, 88
1, 208749, Note_on_c, 0, 77, 81
1, 208754, Note_on_c, 0, 85, 62
1, 208761, Control_c, 0, 64, 89
1, 208767, Note_off_c, 0, 77, 43
1, 208772, Note_on_c, 0, 86, 61
1, 208776, Control_c, 0, 64, 47
1, 208790, Control_c, 0, 64, 0
1, 208791, Note_off_c, 0, 85, 45
1, 208808, Note_on_c, 0, 77, 30
1, 208849, Control_c, 0, 64, 53
1, 208864, Control_c, 0, 64, 80
1, 208869, Note_off_c, 0, 86, 50
1, 208872, Note_off_c, 0, 64, 58
1, 208872, Note_off_c, 0, 81, 65
1, 208879, Control_c, 0, 64, 127
1, 208892, Note_off_c, 0, 89, 59
1, 208907, Note_off_c, 0, 52, 63
1, 208909, Note_off_c, 0, 77, 36
1, 208921, Note_off_c, 0, 76, 59
1, 209108, Note_on_c, 0, 51, 110
1, 209109, Note_off_c, 0, 88, 0
1, 209109, Note_on_c, 0, 88, 9
1, 209113, Note_on_c, 0, 75, 110
1, 209116, Note_on_c, 0, 43, 89
1, 209122, Note_on_c, 0, 87, 45
1, 209146, Control_c, 0, 64, 74
1, 209160, Control_c, 0, 64, 42
1, 209175, Control_c, 0, 64, 0
1, 209222, Poly_aftertouch_c, 0, 85, 127
1, 209235, Control_c, 0, 64, 51
1, 209249, Control_c, 0, 64, 73
1, 209261, Poly_aftertouch_c, 0, 85, 0
1, 209264, Control_c, 0, 64, 127
1, 209269, Note_off_c, 0, 43, 62
1, 209287, Note_off_c, 0, 51, 61
1, 209310, Note_off_c, 0, 87, 34
1, 209318, Note_off_c, 0, 88, 55
1, 209319, Note_off_c, 0, 75, 60
1, 209446, Note_on_c, 0, 88, 93
1, 209447, Note_on_c, 0, 74, 106
1, 209448, Note_on_c, 0, 80, 95
1, 209450, Note_on_c, 0, 50, 93
1, 209450, Note_on_c, 0, 62, 97
1, 209458, Note_on_c, 0, 85, 76
1, 209471, Control_c, 0, 64, 97
1, 209486, Control_c, 0, 64, 72
1, 209509, Control_c, 0, 64, 51
1, 209524, Control_c, 0, 64, 0
1, 209569, Control_c, 0, 64, 42
1, 209579, Note_off_c, 0, 62, 62
1, 209584, Control_c, 0, 64, 61
1, 209599, Control_c, 0, 64, 73
1, 209613, Control_c, 0, 64, 127
1, 209623, Note_off_c, 0, 50, 64
1, 209644, Note_off_c, 0, 74, 64
1, 209704, Note_off_c, 0, 80, 62
1, 209709, Note_on_c, 0, 86, 44
1, 209750, Note_on_c, 0, 73, 106
1, 209751, Note_on_c, 0, 49, 92
1, 209753, Note_on_c, 0, 40, 90
1, 209776, Control_c, 0, 64, 77
1, 209791, Control_c, 0, 64, 46
1, 209805, Control_c, 0, 64, 0
1, 209850, Control_c, 0, 64, 50
1, 209865, Control_c, 0, 64, 71
1, 209875, Note_off_c, 0, 40, 63
1, 209879, Control_c, 0, 64, 127
1, 209898, Note_off_c, 0, 49, 62
1, 209899, Note_off_c, 0, 86, 61
1, 209900, Note_off_c, 0, 73, 62
1, 209904, Note_off_c, 0, 88, 64
1, 209927, Note_off_c, 0, 85, 63
1, 210007, Note_on_c, 0, 88, 98
1, 210011, Note_on_c, 0, 74, 102
1, 210013, Control_c, 0, 64, 91
1, 210018, Note_on_c, 0, 62, 95
1, 210019, Note_on_c, 0, 50, 94
1, 210024, Note_on_c, 0, 85, 71
1, 210027, Note_on_c, 0, 80, 47
1, 210028, Control_c, 0, 64, 66
1, 210033, Note_on_c, 0, 81, 63
1, 210041, Note_on_c, 0, 76, 52
1, 210042, Note_off_c, 0, 76, 127
1, 210042, Control_c, 0, 64, 29
1, 210057, Control_c, 0, 64, 0
1, 210067, Note_off_c, 0, 81, 46
1, 210100, Control_c, 0, 64, 57
1, 210110, Poly_aftertouch_c, 0, 87, 0
1, 210114, Control_c, 0, 64, 73
1, 210117, Note_off_c, 0, 62, 62
1, 210129, Control_c, 0, 64, 127
1, 210148, Note_off_c, 0, 50, 63
1, 210159, Note_off_c, 0, 74, 63
1, 210184, Note_off_c, 0, 80, 19
1, 210282, Note_on_c, 0, 51, 103
1, 210284, Note_on_c, 0, 75, 99
1, 210285, Control_c, 0, 64, 79
1, 210289, Note_on_c, 0, 43, 92
1, 210301, Control_c, 0, 64, 61
1, 210316, Control_c, 0, 64, 22
1, 210331, Control_c, 0, 64, 0
1, 210346, Control_c, 0, 64, 43
1, 210360, Control_c, 0, 64, 65
1, 210375, Control_c, 0, 64, 94
1, 210390, Control_c, 0, 64, 127
1, 210409, Note_off_c, 0, 43, 64
1, 210415, Note_off_c, 0, 51, 62
1, 210453, Note_off_c, 0, 75, 61
1, 210457, Note_off_c, 0, 88, 64
1, 210476, Note_off_c, 0, 85, 24
1, 210559, Note_on_c, 0, 88, 103
1, 210560, Note_on_c, 0, 76, 111
1, 210564, Note_on_c, 0, 64, 102
1, 210565, Note_on_c, 0, 80, 93
1, 210566, Note_on_c, 0, 52, 100
1, 210567, Control_c, 0, 64, 73
1, 210574, Note_on_c, 0, 85, 73
1, 210582, Control_c, 0, 64, 0
1, 210642, Control_c, 0, 64, 18
1, 210654, Note_off_c, 0, 64, 61
1, 210657, Control_c, 0, 64, 63
1, 210663, Note_off_c, 0, 52, 64
1, 210672, Control_c, 0, 64, 89
1, 210687, Control_c, 0, 64, 127
1, 210732, Note_off_c, 0, 76, 59
1, 210795, Note_off_c, 0, 80, 60
1, 210812, Note_on_c, 0, 53, 95
1, 210824, Note_on_c, 0, 46, 87
1, 210824, Note_on_c, 0, 77, 107
1, 210834, Control_c, 0, 64, 93
1, 210849, Control_c, 0, 64, 66
1, 210864, Control_c, 0, 64, 14
1, 210878, Control_c, 0, 64, 0
1, 210908, Control_c, 0, 64, 51
1, 210923, Control_c, 0, 64, 66
1, 210928, Note_off_c, 0, 46, 65
1, 210937, Control_c, 0, 64, 84
1, 210952, Control_c, 0, 64, 127
1, 210968, Note_off_c, 0, 85, 55
1, 210974, Note_off_c, 0, 53, 62
1, 210994, Note_off_c, 0, 88, 64
1, 211012, Note_off_c, 0, 77, 63
1, 211030, Note_on_c, 0, 80, 15
1, 211071, Note_off_c, 0, 80, 30
1, 211102, Note_on_c, 0, 66, 99
1, 211105, Note_on_c, 0, 78, 108
1, 211106, Note_on_c, 0, 88, 100
1, 211110, Note_on_c, 0, 54, 85
1, 211122, Note_on_c, 0, 80, 67
1, 211128, Note_on_c, 0, 85, 61
1, 211139, Control_c, 0, 64, 79
1, 211154, Control_c, 0, 64, 63
1, 211168, Control_c, 0, 64, 45
1, 211183, Control_c, 0, 64, 40
1, 211192, Poly_aftertouch_c, 0, 56, 127
1, 211198, Control_c, 0, 64, 55
1, 211213, Control_c, 0, 64, 65
1, 211228, Control_c, 0, 64, 76
1, 211239, Poly_aftertouch_c, 0, 56, 0
1, 211242, Control_c, 0, 64, 127
1, 211309, Note_off_c, 0, 66, 57
1, 211317, Note_off_c, 0, 54, 62
1, 211325, Note_off_c, 0, 78, 54
1, 211357, Note_off_c, 0, 88, 48
1, 211405, Note_on_c, 0, 55, 77
1, 211420, Note_on_c, 0, 51, 80
1, 211444, Note_on_c, 0, 79, 94
1, 211450, Control_c, 0, 64, 97
1, 211465, Control_c, 0, 64, 74
1, 211480, Control_c, 0, 64, 62
1, 211483, Note_off_c, 0, 80, 63
1, 211494, Control_c, 0, 64, 47
1, 211509, Control_c, 0, 64, 40
1, 211523, Note_off_c, 0, 85, 63
1, 211524, Control_c, 0, 64, 42
1, 211539, Control_c, 0, 64, 51
1, 211554, Control_c, 0, 64, 62
1, 211568, Control_c, 0, 64, 67
1, 211583, Control_c, 0, 64, 77
1, 211590, Note_on_c, 0, 80, 96
1, 211598, Control_c, 0, 64, 104
1, 211613, Control_c, 0, 64, 127
1, 211631, Note_off_c, 0, 79, 65
1, 211638, Note_off_c, 0, 51, 62
1, 211678, Note_off_c, 0, 55, 61
1, 211719, Note_on_c, 0, 54, 91
1, 211719, Note_on_c, 0, 78, 111
1, 211720, Note_on_c, 0, 88, 99
1, 211722, Note_on_c, 0, 66, 93
1, 211731, Control_c, 0, 64, 76
1, 211745, Note_on_c, 0, 85, 67
1, 211754, Control_c, 0, 64, 36
1, 211769, Control_c, 0, 64, 0
1, 211778, Note_off_c, 0, 66, 65
1, 211798, Control_c, 0, 64, 40
1, 211808, Note_off_c, 0, 54, 64
1, 211813, Control_c, 0, 64, 75
1, 211828, Control_c, 0, 64, 127
1, 211885, Note_off_c, 0, 78, 60
1, 211927, Note_off_c, 0, 80, 62
1, 211968, Note_on_c, 0, 53, 87
1, 211974, Note_off_c, 0, 88, 0
1, 211976, Note_on_c, 0, 77, 111
1, 211977, Note_on_c, 0, 46, 88
1, 211997, Note_on_c, 0, 88, 24
1, 212004, Note_on_c, 0, 86, 51
1, 212006, Control_c, 0, 64, 94
1, 212021, Control_c, 0, 64, 54
1, 212026, Note_off_c, 0, 86, 58
1, 212032, Note_off_c, 0, 85, 61
1, 212032, Note_off_c, 0, 88, 63
1, 212036, Control_c, 0, 64, 0
1, 212069, Note_off_c, 0, 77, 57
1, 212080, Control_c, 0, 64, 66
1, 212084, Note_off_c, 0, 46, 64
1, 212095, Note_on_c, 0, 80, 98
1, 212095, Control_c, 0, 64, 127
1, 212096, Note_off_c, 0, 53, 61
1, 212122, Poly_aftertouch_c, 0, 77, 127
1, 212134, Poly_aftertouch_c, 0, 77, 0
1, 212180, Note_off_c, 0, 80, 66
1, 212239, Note_on_c, 0, 64, 100
1, 212240, Note_on_c, 0, 88, 103
1, 212240, Note_on_c, 0, 52, 101
1, 212240, Note_on_c, 0, 76, 109
1, 212253, Note_on_c, 0, 80, 81
1, 212255, Note_on_c, 0, 85, 80
1, 212273, Control_c, 0, 64, 79
1, 212287, Control_c, 0, 64, 31
1, 212302, Control_c, 0, 64, 0
1, 212314, Note_off_c, 0, 64, 60
1, 212332, Control_c, 0, 64, 40
1, 212340, Note_off_c, 0, 52, 67
1, 212347, Control_c, 0, 64, 70
1, 212359, Note_off_c, 0, 76, 61
1, 212362, Control_c, 0, 64, 127
1, 212417, Note_off_c, 0, 80, 58
1, 212524, Note_on_c, 0, 75, 115
1, 212525, Note_on_c, 0, 51, 110
1, 212531, Note_on_c, 0, 43, 94
1, 212540, Note_on_c, 0, 86, 35
1, 212542, Note_on_c, 0, 82, 63
1, 212560, Note_off_c, 0, 82, 66
1, 212562, Control_c, 0, 64, 73
1, 212577, Control_c, 0, 64, 0
1, 212636, Note_off_c, 0, 43, 64
1, 212636, Control_c, 0, 64, 50
1, 212643, Note_off_c, 0, 51, 64
1, 212651, Control_c, 0, 64, 75
1, 212666, Control_c, 0, 64, 127
1, 212670, Note_off_c, 0, 86, 36
1, 212686, Note_off_c, 0, 88, 58
1, 212690, Note_off_c, 0, 75, 59
1, 212739, Note_off_c, 0, 85, 37
1, 212819, Note_on_c, 0, 76, 112
1, 212820, Note_on_c, 0, 88, 101
1, 212822, Note_on_c, 0, 80, 97
1, 212825, Note_on_c, 0, 64, 102
1, 212827, Note_on_c, 0, 52, 98
1, 212828, Note_on_c, 0, 85, 86
1, 212830, Control_c, 0, 64, 97
1, 212845, Control_c, 0, 64, 63
1, 212860, Control_c, 0, 64, 0
1, 212909, Note_off_c, 0, 52, 64
1, 212916, Note_off_c, 0, 76, 58
1, 212919, Control_c, 0, 64, 52
1, 212926, Note_off_c, 0, 88, 63
1, 212930, Note_off_c, 0, 64, 65
1, 212934, Control_c, 0, 64, 76
1, 212943, Note_off_c, 0, 85, 61
1, 212944, Note_off_c, 0, 80, 63
1, 212948, Control_c, 0, 64, 127
1, 213185, Note_on_c, 0, 71, 104
1, 213188, Note_on_c, 0, 61, 100
1, 213191, Note_on_c, 0, 83, 117
1, 213200, Control_c, 0, 64, 76
1, 213214, Control_c, 0, 64, 41
1, 213229, Control_c, 0, 64, 0
1, 213268, Note_on_c, 0, 63, 19
1, 213269, Note_off_c, 0, 63, 127
1, 213281, Control_c, 0, 64, 50
1, 213282, Note_off_c, 0, 83, 61
1, 213285, Note_off_c, 0, 61, 66
1, 213295, Control_c, 0, 64, 70
1, 213310, Control_c, 0, 64, 101
1, 213313, Note_off_c, 0, 71, 61
1, 213325, Control_c, 0, 64, 127
1, 213569, Note_on_c, 0, 96, 105
1, 213572, Note_on_c, 0, 84, 101
1, 213578, Control_c, 0, 64, 79
1, 213590, Note_off_c, 0, 84, 69
1, 213593, Control_c, 0, 64, 62
1, 213602, Note_off_c, 0, 96, 68
1, 213608, Control_c, 0, 64, 16
1, 213619, Note_on_c, 0, 83, 104
1, 213623, Control_c, 0, 64, 0
1, 213651, Note_off_c, 0, 83, 67
1, 213942, Note_on_c, 0, 95, 102
1, 213945, Note_on_c, 0, 85, 80
1, 213964, Note_off_c, 0, 95, 65
1, 213967, Note_off_c, 0, 85, 70
1, 213996, Note_on_c, 0, 82, 108
1, 214023, Note_off_c, 0, 82, 69
1, 214237, Note_on_c, 0, 94, 104
1, 214249, Note_on_c, 0, 86, 67
1, 214254, Note_off_c, 0, 94, 69
1, 214267, Note_off_c, 0, 86, 46
1, 214280, Note_on_c, 0, 80, 101
1, 214317, Note_off_c, 0, 80, 63
1, 214510, Note_on_c, 0, 93, 95
1, 214511, Note_on_c, 0, 88, 82
1, 214525, Note_off_c, 0, 88, 72
1, 214526, Note_off_c, 0, 93, 75
1, 214556, Note_on_c, 0, 78, 109
1, 214579, Note_off_c, 0, 78, 69
1, 214780, Note_on_c, 0, 96, 89
1, 214783, Note_on_c, 0, 84, 75
1, 214798, Note_off_c, 0, 96, 73
1, 214806, Note_off_c, 0, 84, 69
1, 214836, Note_on_c, 0, 65, 104
1, 214838, Control_c, 0, 64, 69
1, 214841, Note_on_c, 0, 54, 105
1, 214853, Control_c, 0, 64, 127
1, 214865, Note_off_c, 0, 65, 71
1, 214866, Note_off_c, 0, 54, 66
1, 214872, Note_on_c, 0, 53, 48
1, 214873, Note_off_c, 0, 53, 127
1, 214926, Control_c, 0, 64, 88
1, 214941, Control_c, 0, 64, 71
1, 214956, Control_c, 0, 64, 61
1, 214971, Control_c, 0, 64, 47
1, 214985, Control_c, 0, 64, 19
1, 215000, Control_c, 0, 64, 0
1, 215062, Note_on_c, 0, 95, 91
1, 215065, Note_on_c, 0, 85, 77
1, 215082, Note_off_c, 0, 95, 71
1, 215088, Note_off_c, 0, 85, 71
1, 215116, Note_on_c, 0, 83, 100
1, 215152, Note_off_c, 0, 83, 68
1, 215320, Note_on_c, 0, 94, 98
1, 215325, Note_on_c, 0, 86, 75
1, 215339, Note_off_c, 0, 94, 68
1, 215350, Note_off_c, 0, 86, 70
1, 215379, Note_on_c, 0, 79, 100
1, 215415, Note_off_c, 0, 79, 67
1, 215565, Note_on_c, 0, 93, 94
1, 215571, Note_on_c, 0, 88, 74
1, 215593, Note_off_c, 0, 93, 65
1, 215594, Note_off_c, 0, 88, 71
1, 215622, Note_on_c, 0, 78, 96
1, 215645, Note_off_c, 0, 78, 70
1, 215792, Note_on_c, 0, 84, 87
1, 215796, Note_on_c, 0, 96, 89
1, 215814, Note_off_c, 0, 84, 64
1, 215815, Note_off_c, 0, 96, 71
1, 215856, Note_on_c, 0, 96, 105
1, 215868, Control_c, 0, 64, 52
1, 215884, Control_c, 0, 64, 81
1, 215899, Control_c, 0, 64, 127
1, 215943, Note_on_c, 0, 84, 93
1, 215986, Note_off_c, 0, 96, 65
1, 215998, Note_off_c, 0, 84, 64
1, 216017, Note_on_c, 0, 65, 107
1, 216019, Note_on_c, 0, 54, 103
1, 216046, Note_off_c, 0, 65, 69
1, 216048, Note_off_c, 0, 54, 65
1, 216061, Control_c, 0, 64, 95
1, 216076, Control_c, 0, 64, 71
1, 216092, Control_c, 0, 64, 52
1, 216098, Note_on_c, 0, 95, 106
1, 216106, Control_c, 0, 64, 0
1, 216180, Note_on_c, 0, 85, 90
1, 216230, Note_off_c, 0, 95, 63
1, 216242, Note_off_c, 0, 85, 66
1, 216274, Note_on_c, 0, 83, 100
1, 216318, Note_off_c, 0, 83, 66
1, 216351, Note_on_c, 0, 94, 110
1, 216437, Note_on_c, 0, 86, 84
1, 216476, Note_off_c, 0, 94, 64
1, 216488, Note_off_c, 0, 86, 64
1, 216505, Note_on_c, 0, 79, 97
1, 216542, Note_off_c, 0, 79, 67
1, 216587, Note_on_c, 0, 93, 102
1, 216666, Note_on_c, 0, 88, 90
1, 216699, Note_off_c, 0, 93, 66
1, 216717, Note_off_c, 0, 88, 66
1, 216729, Note_on_c, 0, 65, 110
1, 216730, Note_on_c, 0, 54, 108
1, 216752, Control_c, 0, 64, 63
1, 216755, Note_off_c, 0, 65, 70
1, 216759, Note_off_c, 0, 54, 66
1, 216767, Control_c, 0, 64, 127
1, 216789, Note_on_c, 0, 56, 3
1, 216790, Note_off_c, 0, 56, 127
1, 216826, Note_on_c, 0, 91, 100
1, 216826, Control_c, 0, 64, 102
1, 216830, Note_on_c, 0, 103, 108
1, 216841, Control_c, 0, 64, 75
1, 216842, Note_on_c, 0, 92, 77
1, 216848, Note_on_c, 0, 102, 72
1, 216849, Note_off_c, 0, 102, 127
1, 216849, Note_off_c, 0, 92, 52
1, 216855, Note_off_c, 0, 91, 68
1, 216855, Control_c, 0, 64, 57
1, 216858, Note_on_c, 0, 97, 45
1, 216859, Note_off_c, 0, 97, 127
1, 216860, Note_off_c, 0, 103, 64
1, 216866, Note_on_c, 0, 105, 41
1, 216867, Note_off_c, 0, 105, 127
1, 216870, Control_c, 0, 64, 0
1, 216907, Note_on_c, 0, 102, 101
1, 216911, Note_on_c, 0, 90, 97
1, 216932, Note_off_c, 0, 90, 67
1, 216950, Note_off_c, 0, 102, 65
1, 216992, Note_on_c, 0, 84, 109
1, 216997, Note_on_c, 0, 100, 98
1, 216999, Note_on_c, 0, 88, 103
1, 217015, Note_off_c, 0, 84, 72
1, 217024, Note_off_c, 0, 88, 65
1, 217031, Note_on_c, 0, 89, 49
1, 217032, Note_off_c, 0, 89, 127
1, 217033, Note_off_c, 0, 100, 68
1, 217033, Note_on_c, 0, 99, 41
1, 217034, Note_off_c, 0, 99, 127
1, 217075, Note_on_c, 0, 102, 113
1, 217077, Note_on_c, 0, 90, 102
1, 217098, Note_on_c, 0, 92, 66
1, 217099, Note_off_c, 0, 92, 127
1, 217131, Note_off_c, 0, 102, 66
1, 217135, Note_off_c, 0, 90, 64
1, 217283, Note_on_c, 0, 83, 100
1, 217322, Note_off_c, 0, 83, 67
1, 217349, Note_on_c, 0, 86, 108
1, 217350, Note_on_c, 0, 98, 116
1, 217366, Note_on_c, 0, 97, 65
1, 217379, Note_off_c, 0, 97, 68
1, 217382, Note_off_c, 0, 98, 68
1, 217382, Note_off_c, 0, 86, 67
1, 217393, Note_on_c, 0, 92, 34
1, 217394, Note_off_c, 0, 92, 127
1, 217512, Note_on_c, 0, 82, 81
1, 217532, Note_off_c, 0, 82, 71
1, 217573, Note_on_c, 0, 72, 77
1, 217575, Control_c, 0, 64, 46
1, 217587, Note_on_c, 0, 73, 65
1, 217589, Control_c, 0, 64, 86
1, 217592, Note_off_c, 0, 72, 71
1, 217600, Note_on_c, 0, 74, 92
1, 217603, Control_c, 0, 64, 127
1, 217607, Note_off_c, 0, 73, 39
1, 217616, Note_on_c, 0, 76, 95
1, 217617, Note_off_c, 0, 74, 71
1, 217632, Note_on_c, 0, 77, 90
1, 217635, Note_off_c, 0, 76, 70
1, 217647, Note_on_c, 0, 79, 85
1, 217650, Note_off_c, 0, 77, 70
1, 217661, Note_on_c, 0, 81, 89
1, 217663, Note_off_c, 0, 79, 74
1, 217674, Note_on_c, 0, 83, 94
1, 217676, Note_off_c, 0, 81, 76
1, 217687, Note_on_c, 0, 84, 89
1, 217689, Note_off_c, 0, 83, 75
1, 217699, Note_on_c, 0, 86, 96
1, 217702, Note_off_c, 0, 84, 77
1, 217710, Note_on_c, 0, 88, 96
1, 217715, Note_off_c, 0, 86, 76
1, 217716, Note_on_c, 0, 76, 3
1, 217721, Note_on_c, 0, 77, 21
1, 217722, Note_on_c, 0, 89, 99
1, 217725, Note_off_c, 0, 88, 77
1, 217740, Note_on_c, 0, 91, 98
1, 217745, Note_off_c, 0, 76, 50
1, 217745, Note_off_c, 0, 89, 74
1, 217749, Note_on_c, 0, 83, 39
1, 217751, Note_on_c, 0, 93, 96
1, 217756, Note_off_c, 0, 91, 73
1, 217758, Note_on_c, 0, 65, 111
1, 217759, Note_off_c, 0, 77, 40
1, 217763, Note_on_c, 0, 95, 82
1, 217768, Note_on_c, 0, 55, 91
1, 217768, Note_off_c, 0, 93, 72
1, 217772, Note_on_c, 0, 56, 72
1, 217772, Note_off_c, 0, 83, 62
1, 217775, Note_off_c, 0, 95, 50
1, 217779, Note_on_c, 0, 96, 66
1, 217780, Note_off_c, 0, 96, 127
1, 217780, Note_on_c, 0, 88, 46
1, 217781, Note_off_c, 0, 88, 127
1, 217783, Note_on_c, 0, 86, 31
1, 217789, Note_off_c, 0, 55, 71
1, 217792, Note_off_c, 0, 56, 59
1, 217797, Note_off_c, 0, 65, 58
1, 217815, Note_off_c, 0, 86, 51
1, 217818, Control_c, 0, 64, 100
1, 217820, Note_on_c, 0, 54, 3
1, 217833, Control_c, 0, 64, 69
1, 217848, Control_c, 0, 64, 16
1, 217856, Note_on_c, 0, 96, 105
1, 217862, Note_on_c, 0, 98, 97
1, 217863, Control_c, 0, 64, 0
1, 217867, Note_off_c, 0, 54, 49
1, 217888, Note_off_c, 0, 98, 62
1, 217941, Note_on_c, 0, 84, 88
1, 217971, Note_off_c, 0, 96, 63
1, 217985, Note_off_c, 0, 84, 64
1, 218027, Note_on_c, 0, 83, 92
1, 218073, Note_off_c, 0, 83, 65
1, 218111, Note_on_c, 0, 95, 100
1, 218190, Note_on_c, 0, 85, 90
1, 218243, Note_off_c, 0, 95, 64
1, 218245, Note_off_c, 0, 85, 66
1, 218269, Note_on_c, 0, 82, 92
1, 218318, Note_off_c, 0, 82, 66
1, 218354, Note_on_c, 0, 94, 107
1, 218441, Note_on_c, 0, 86, 82
1, 218494, Note_off_c, 0, 94, 64
1, 218500, Note_off_c, 0, 86, 64
1, 218525, Note_on_c, 0, 79, 89
1, 218586, Note_off_c, 0, 79, 64
1, 218609, Note_on_c, 0, 93, 106
1, 218699, Note_on_c, 0, 88, 87
1, 218711, Note_off_c, 0, 93, 61
1, 218750, Note_off_c, 0, 88, 66
1, 218767, Note_on_c, 0, 78, 91
1, 218808, Note_off_c, 0, 78, 67
1, 218872, Note_on_c, 0, 91, 112
1, 218874, Note_on_c, 0, 103, 117
1, 218899, Note_off_c, 0, 91, 68
1, 218900, Note_on_c, 0, 104, 57
1, 218901, Note_off_c, 0, 104, 127
1, 218902, Note_off_c, 0, 103, 69
1, 218921, Note_on_c, 0, 99, 19
1, 218922, Note_off_c, 0, 99, 127
1, 218953, Note_on_c, 0, 102, 71
1, 218959, Note_on_c, 0, 90, 99
1, 218981, Note_off_c, 0, 90, 69
1, 218994, Note_off_c, 0, 102, 65
1, 219036, Note_on_c, 0, 88, 106
1, 219036, Note_on_c, 0, 100, 106
1, 219041, Note_on_c, 0, 84, 98
1, 219063, Note_off_c, 0, 88, 67
1, 219068, Note_off_c, 0, 84, 71
1, 219069, Note_off_c, 0, 100, 70
1, 219114, Note_on_c, 0, 102, 117
1, 219115, Note_on_c, 0, 90, 110
1, 219152, Note_on_c, 0, 101, 30
1, 219153, Note_off_c, 0, 101, 127
1, 219155, Note_off_c, 0, 102, 66
1, 219164, Note_off_c, 0, 90, 58
1, 219319, Note_on_c, 0, 83, 93
1, 219363, Note_off_c, 0, 83, 65
1, 219383, Note_on_c, 0, 86, 106
1, 219384, Note_on_c, 0, 98, 112
1, 219403, Note_on_c, 0, 97, 69
1, 219407, Note_on_c, 0, 92, 59
1, 219408, Note_off_c, 0, 92, 127
1, 219415, Note_off_c, 0, 98, 70
1, 219418, Note_off_c, 0, 97, 43
1, 219420, Note_on_c, 0, 96, 28
1, 219421, Note_off_c, 0, 96, 127
1, 219421, Note_off_c, 0, 86, 66
1, 219537, Note_on_c, 0, 82, 79
1, 219558, Note_off_c, 0, 82, 71
1, 219597, Note_on_c, 0, 72, 72
1, 219597, Control_c, 0, 64, 53
1, 219612, Control_c, 0, 64, 85
1, 219622, Note_on_c, 0, 74, 80
1, 219622, Note_off_c, 0, 72, 70
1, 219627, Control_c, 0, 64, 127
1, 219638, Note_off_c, 0, 74, 71
1, 219642, Note_on_c, 0, 76, 84
1, 219658, Note_on_c, 0, 77, 86
1, 219662, Note_off_c, 0, 76, 70
1, 219674, Note_on_c, 0, 79, 88
1, 219678, Note_off_c, 0, 77, 71
1, 219691, Note_on_c, 0, 81, 91
1, 219691, Note_off_c, 0, 79, 73
1, 219704, Note_on_c, 0, 83, 88
1, 219708, Note_off_c, 0, 81, 75
1, 219711, Note_on_c, 0, 74, 20
1, 219718, Note_on_c, 0, 84, 92
1, 219719, Note_off_c, 0, 83, 74
1, 219730, Note_on_c, 0, 86, 91
1, 219733, Note_off_c, 0, 84, 75
1, 219743, Note_on_c, 0, 88, 89
1, 219743, Note_off_c, 0, 74, 39
1, 219746, Note_off_c, 0, 86, 73
1, 219758, Note_on_c, 0, 89, 88
1, 219761, Note_off_c, 0, 88, 74
1, 219768, Note_on_c, 0, 65, 105
1, 219771, Note_on_c, 0, 54, 98
1, 219775, Note_on_c, 0, 83, 35
1, 219775, Note_off_c, 0, 89, 65
1, 219776, Note_on_c, 0, 91, 68
1, 219788, Note_off_c, 0, 54, 75
1, 219794, Note_off_c, 0, 91, 42
1, 219796, Note_off_c, 0, 65, 68
1, 219806, Note_off_c, 0, 83, 53
1, 219820, Control_c, 0, 64, 84
1, 219836, Control_c, 0, 64, 63
1, 219850, Control_c, 0, 64, 0
1, 219866, Note_on_c, 0, 96, 103
1, 219886, Note_on_c, 0, 95, 67
1, 219928, Note_off_c, 0, 95, 0
1, 219928, Note_on_c, 0, 95, 35
1, 219950, Note_on_c, 0, 84, 79
1, 219993, Note_off_c, 0, 96, 63
1, 220008, Note_off_c, 0, 95, 56
1, 220010, Note_off_c, 0, 84, 63
1, 220042, Note_on_c, 0, 83, 86
1, 220082, Note_off_c, 0, 83, 64
1, 220118, Note_on_c, 0, 95, 97
1, 220208, Note_on_c, 0, 85, 80
1, 220263, Note_off_c, 0, 85, 64
1, 220268, Note_off_c, 0, 95, 64
1, 220275, Note_on_c, 0, 82, 90
1, 220330, Note_off_c, 0, 82, 65
1, 220359, Note_on_c, 0, 94, 114
1, 220446, Note_on_c, 0, 86, 80
1, 220484, Note_off_c, 0, 94, 63
1, 220498, Note_off_c, 0, 86, 64
1, 220520, Note_on_c, 0, 79, 92
1, 220580, Note_off_c, 0, 79, 61
1, 220598, Note_on_c, 0, 93, 109
1, 220684, Note_on_c, 0, 88, 87
1, 220691, Note_off_c, 0, 93, 64
1, 220746, Note_off_c, 0, 88, 66
1, 220757, Note_on_c, 0, 78, 89
1, 220794, Note_off_c, 0, 78, 65
1, 220853, Note_on_c, 0, 91, 101
1, 220853, Note_on_c, 0, 103, 110
1, 220887, Note_off_c, 0, 91, 66
1, 220888, Note_off_c, 0, 103, 67
1, 220931, Note_on_c, 0, 102, 87
1, 220944, Note_on_c, 0, 90, 83
1, 220966, Note_off_c, 0, 90, 69
1, 220968, Note_off_c, 0, 102, 63
1, 221007, Control_c, 0, 64, 57
1, 221013, Note_on_c, 0, 65, 96
1, 221015, Note_on_c, 0, 54, 92
1, 221015, Note_on_c, 0, 100, 101
1, 221017, Note_on_c, 0, 88, 103
1, 221022, Control_c, 0, 64, 96
1, 221033, Note_off_c, 0, 65, 68
1, 221036, Note_off_c, 0, 54, 72
1, 221036, Control_c, 0, 64, 127
1, 221048, Note_off_c, 0, 88, 63
1, 221054, Note_off_c, 0, 100, 67
1, 221081, Control_c, 0, 64, 122
1, 221096, Control_c, 0, 64, 75
1, 221098, Note_on_c, 0, 102, 105
1, 221099, Note_on_c, 0, 90, 105
1, 221111, Control_c, 0, 64, 56
1, 221117, Poly_aftertouch_c, 0, 53, 0
1, 221126, Control_c, 0, 64, 0
1, 221142, Note_off_c, 0, 102, 65
1, 221147, Note_off_c, 0, 90, 63
1, 221346, Note_on_c, 0, 84, 104
1, 221373, Note_off_c, 0, 84, 70
1, 221406, Note_on_c, 0, 86, 109
1, 221407, Note_on_c, 0, 98, 108
1, 221435, Note_off_c, 0, 86, 67
1, 221435, Note_off_c, 0, 98, 70
1, 221646, Note_on_c, 0, 83, 105
1, 221671, Note_off_c, 0, 83, 71
1, 221701, Note_on_c, 0, 102, 126
1, 221702, Note_on_c, 0, 90, 105
1, 221711, Note_on_c, 0, 99, 90
1, 221712, Note_off_c, 0, 99, 127
1, 221722, Note_on_c, 0, 92, 66
1, 221723, Note_off_c, 0, 92, 127
1, 221724, Note_on_c, 0, 103, 65
1, 221725, Note_off_c, 0, 103, 127
1, 221728, Note_off_c, 0, 90, 67
1, 221737, Note_off_c, 0, 102, 65
1, 221798, Note_on_c, 0, 99, 4
1, 221846, Note_off_c, 0, 99, 29
1, 221880, Note_on_c, 0, 82, 105
1, 221908, Note_off_c, 0, 82, 69
1, 221939, Note_on_c, 0, 97, 112
1, 221940, Note_on_c, 0, 85, 112
1, 221962, Note_on_c, 0, 94, 62
1, 221963, Note_off_c, 0, 94, 127
1, 221972, Note_off_c, 0, 97, 66
1, 221974, Note_off_c, 0, 85, 67
1, 222099, Note_on_c, 0, 81, 94
1, 222118, Note_off_c, 0, 81, 69
1, 222171, Control_c, 0, 64, 61
1, 222174, Note_on_c, 0, 79, 111
1, 222185, Control_c, 0, 64, 92
1, 222194, Note_off_c, 0, 79, 66
1, 222196, Note_on_c, 0, 78, 60
1, 222197, Note_off_c, 0, 78, 127
1, 222200, Control_c, 0, 64, 127
1, 222228, Note_on_c, 0, 81, 81
1, 222261, Note_off_c, 0, 81, 64
1, 222263, Note_on_c, 0, 79, 79
1, 222318, Note_on_c, 0, 81, 81
1, 222321, Note_off_c, 0, 79, 64
1, 222369, Note_on_c, 0, 79, 75
1, 222375, Note_off_c, 0, 81, 63
1, 222410, Note_off_c, 0, 79, 65
1, 222431, Note_on_c, 0, 78, 111
1, 222431, Control_c, 0, 64, 80
1, 222444, Note_on_c, 0, 79, 77
1, 222446, Control_c, 0, 64, 54
1, 222457, Note_off_c, 0, 79, 73
1, 222461, Control_c, 0, 64, 41
1, 222472, Note_off_c, 0, 78, 67
1, 222475, Control_c, 0, 64, 60
1, 222490, Control_c, 0, 64, 67
1, 222500, Note_on_c, 0, 79, 72
1, 222505, Control_c, 0, 64, 82
1, 222520, Control_c, 0, 64, 127
1, 222529, Note_off_c, 0, 79, 69
1, 222533, Note_on_c, 0, 77, 86
1, 222576, Note_on_c, 0, 79, 81
1, 222577, Note_off_c, 0, 77, 65
1, 222625, Note_off_c, 0, 79, 60
1, 222644, Note_on_c, 0, 77, 73
1, 222653, Control_c, 0, 64, 90
1, 222668, Note_off_c, 0, 77, 68
1, 222668, Control_c, 0, 64, 68
1, 222682, Control_c, 0, 64, 57
1, 222697, Note_on_c, 0, 76, 99
1, 222697, Control_c, 0, 64, 62
1, 222712, Control_c, 0, 64, 69
1, 222727, Note_off_c, 0, 76, 66
1, 222727, Control_c, 0, 64, 85
1, 222738, Note_on_c, 0, 77, 75
1, 222742, Control_c, 0, 64, 127
1, 222744, Note_on_c, 0, 75, 85
1, 222765, Note_off_c, 0, 77, 67
1, 222786, Note_on_c, 0, 74, 84
1, 222805, Note_off_c, 0, 75, 0
1, 222832, Note_on_c, 0, 76, 92
1, 222838, Poly_aftertouch_c, 0, 75, 0
1, 222849, Note_on_c, 0, 77, 87
1, 222861, Note_off_c, 0, 74, 61
1, 222866, Note_on_c, 0, 79, 83
1, 222879, Note_off_c, 0, 76, 68
1, 222884, Note_on_c, 0, 81, 89
1, 222902, Note_off_c, 0, 77, 65
1, 222926, Note_off_c, 0, 79, 68
1, 222940, Note_off_c, 0, 81, 67
1, 222956, Note_on_c, 0, 82, 123
1, 222964, Poly_aftertouch_c, 0, 81, 0
1, 222980, Note_on_c, 0, 81, 66
1, 222981, Note_off_c, 0, 81, 127
1, 222986, Control_c, 0, 64, 92
1, 223001, Control_c, 0, 64, 64
1, 223004, Note_on_c, 0, 80, 35
1, 223005, Note_off_c, 0, 80, 127
1, 223016, Control_c, 0, 64, 0
1, 223020, Note_on_c, 0, 83, 89
1, 223046, Control_c, 0, 64, 28
1, 223052, Note_off_c, 0, 83, 64
1, 223060, Control_c, 0, 64, 57
1, 223065, Note_on_c, 0, 81, 69
1, 223076, Control_c, 0, 64, 70
1, 223091, Control_c, 0, 64, 112
1, 223105, Control_c, 0, 64, 127
1, 223114, Note_on_c, 0, 83, 87
1, 223120, Note_off_c, 0, 81, 66
1, 223135, Note_off_c, 0, 82, 59
1, 223171, Note_on_c, 0, 81, 78
1, 223180, Note_off_c, 0, 83, 62
1, 223214, Note_off_c, 0, 81, 67
1, 223233, Note_on_c, 0, 80, 109
1, 223239, Control_c, 0, 64, 82
1, 223254, Control_c, 0, 64, 66
1, 223269, Control_c, 0, 64, 47
1, 223284, Control_c, 0, 64, 0
1, 223289, Note_on_c, 0, 81, 76
1, 223313, Control_c, 0, 64, 36
1, 223326, Note_off_c, 0, 81, 66
1, 223328, Control_c, 0, 64, 60
1, 223330, Note_on_c, 0, 79, 77
1, 223343, Control_c, 0, 64, 72
1, 223358, Control_c, 0, 64, 127
1, 223374, Note_on_c, 0, 81, 76
1, 223384, Note_off_c, 0, 79, 63
1, 223433, Note_off_c, 0, 81, 62
1, 223435, Note_on_c, 0, 79, 69
1, 223443, Note_off_c, 0, 80, 61
1, 223466, Note_off_c, 0, 79, 66
1, 223491, Control_c, 0, 64, 95
1, 223499, Note_on_c, 0, 78, 103
1, 223505, Control_c, 0, 64, 70
1, 223520, Control_c, 0, 64, 53
1, 223535, Control_c, 0, 64, 39
1, 223538, Note_on_c, 0, 79, 85
1, 223549, Control_c, 0, 64, 52
1, 223564, Control_c, 0, 64, 64
1, 223579, Control_c, 0, 64, 75
1, 223582, Note_off_c, 0, 79, 64
1, 223594, Control_c, 0, 64, 127
1, 223597, Note_on_c, 0, 77, 81
1, 223645, Note_on_c, 0, 79, 83
1, 223651, Note_off_c, 0, 77, 62
1, 223660, Note_off_c, 0, 78, 61
1, 223691, Note_off_c, 0, 79, 62
1, 223715, Note_on_c, 0, 77, 70
1, 223750, Control_c, 0, 64, 91
1, 223752, Note_off_c, 0, 77, 65
1, 223764, Control_c, 0, 64, 63
1, 223777, Note_on_c, 0, 74, 87
1, 223777, Note_on_c, 0, 76, 85
1, 223779, Control_c, 0, 64, 43
1, 223794, Control_c, 0, 64, 61
1, 223797, Note_off_c, 0, 76, 70
1, 223800, Note_off_c, 0, 74, 69
1, 223806, Note_on_c, 0, 77, 76
1, 223809, Control_c, 0, 64, 76
1, 223824, Note_on_c, 0, 75, 78
1, 223824, Control_c, 0, 64, 105
1, 223830, Note_off_c, 0, 77, 68
1, 223838, Control_c, 0, 64, 127
1, 223854, Note_on_c, 0, 74, 86
1, 223860, Note_off_c, 0, 75, 58
1, 223901, Note_on_c, 0, 76, 71
1, 223922, Note_on_c, 0, 77, 87
1, 223931, Note_off_c, 0, 74, 62
1, 223940, Note_off_c, 0, 76, 66
1, 223941, Note_on_c, 0, 79, 87
1, 223955, Note_on_c, 0, 81, 88
1, 223966, Note_off_c, 0, 77, 65
1, 223994, Note_off_c, 0, 79, 68
1, 224009, Note_off_c, 0, 81, 66
1, 224023, Note_on_c, 0, 82, 124
1, 224062, Control_c, 0, 64, 72
1, 224063, Note_on_c, 0, 83, 54
1, 224077, Control_c, 0, 64, 35
1, 224092, Control_c, 0, 64, 0
1, 224121, Control_c, 0, 64, 12
1, 224135, Note_on_c, 0, 81, 77
1, 224136, Control_c, 0, 64, 60
1, 224151, Control_c, 0, 64, 78
1, 224158, Note_off_c, 0, 83, 0
1, 224166, Control_c, 0, 64, 127
1, 224169, Note_on_c, 0, 83, 69
1, 224186, Note_off_c, 0, 81, 66
1, 224208, Note_off_c, 0, 82, 59
1, 224237, Note_on_c, 0, 81, 83
1, 224244, Note_off_c, 0, 83, 64
1, 224278, Note_off_c, 0, 81, 67
1, 224292, Note_on_c, 0, 80, 113
1, 224299, Control_c, 0, 64, 104
1, 224314, Control_c, 0, 64, 73
1, 224328, Control_c, 0, 64, 61
1, 224335, Note_on_c, 0, 81, 50
1, 224343, Control_c, 0, 64, 45
1, 224358, Control_c, 0, 64, 43
1, 224372, Control_c, 0, 64, 53
1, 224387, Control_c, 0, 64, 62
1, 224390, Note_off_c, 0, 81, 66
1, 224394, Note_on_c, 0, 79, 79
1, 224402, Control_c, 0, 64, 72
1, 224417, Control_c, 0, 64, 105
1, 224432, Control_c, 0, 64, 127
1, 224438, Note_on_c, 0, 81, 77
1, 224447, Note_off_c, 0, 79, 65
1, 224506, Note_on_c, 0, 79, 75
1, 224508, Note_off_c, 0, 80, 62
1, 224514, Note_off_c, 0, 81, 64
1, 224547, Note_off_c, 0, 79, 66
1, 224566, Note_on_c, 0, 78, 110
1, 224587, Control_c, 0, 64, 92
1, 224602, Control_c, 0, 64, 68
1, 224617, Control_c, 0, 64, 55
1, 224618, Note_on_c, 0, 79, 73
1, 224632, Control_c, 0, 64, 42
1, 224647, Control_c, 0, 64, 47
1, 224661, Control_c, 0, 64, 57
1, 224667, Note_off_c, 0, 79, 63
1, 224677, Control_c, 0, 64, 64
1, 224679, Note_on_c, 0, 77, 80
1, 224692, Control_c, 0, 64, 76
1, 224707, Control_c, 0, 64, 127
1, 224721, Note_on_c, 0, 79, 74
1, 224727, Note_off_c, 0, 78, 60
1, 224739, Note_off_c, 0, 77, 58
1, 224778, Note_off_c, 0, 79, 63
1, 224779, Note_on_c, 0, 77, 64
1, 224818, Note_off_c, 0, 77, 65
1, 224843, Note_on_c, 0, 76, 109
1, 224855, Control_c, 0, 64, 90
1, 224870, Control_c, 0, 64, 63
1, 224885, Control_c, 0, 64, 19
1, 224900, Control_c, 0, 64, 0
1, 224909, Note_on_c, 0, 77, 79
1, 224915, Control_c, 0, 64, 44
1, 224929, Control_c, 0, 64, 60
1, 224944, Control_c, 0, 64, 68
1, 224944, Note_off_c, 0, 77, 61
1, 224949, Note_on_c, 0, 75, 76
1, 224959, Control_c, 0, 64, 89
1, 224974, Note_off_c, 0, 76, 60
1, 224974, Control_c, 0, 64, 127
1, 224992, Note_off_c, 0, 75, 55
1, 225004, Note_on_c, 0, 77, 77
1, 225046, Note_on_c, 0, 75, 82
1, 225073, Note_off_c, 0, 77, 64
1, 225092, Control_c, 0, 64, 101
1, 225097, Note_off_c, 0, 75, 65
1, 225107, Control_c, 0, 64, 76
1, 225110, Note_on_c, 0, 74, 100
1, 225122, Control_c, 0, 64, 63
1, 225137, Control_c, 0, 64, 48
1, 225151, Control_c, 0, 64, 28
1, 225166, Control_c, 0, 64, 20
1, 225181, Control_c, 0, 64, 19
1, 225410, Control_c, 0, 64, 19
1, 225412, Note_on_c, 0, 73, 98
1, 225419, Note_on_c, 0, 86, 101
1, 225421, Note_on_c, 0, 82, 96
1, 225425, Control_c, 0, 64, 26
1, 225433, Note_off_c, 0, 74, 64
1, 225434, Note_on_c, 0, 83, 89
1, 225434, Note_on_c, 0, 85, 81
1, 225440, Control_c, 0, 64, 28
1, 225455, Control_c, 0, 64, 28
1, 225474, Note_off_c, 0, 85, 0
1, 225482, Note_on_c, 0, 80, 89
1, 225486, Note_off_c, 0, 82, 32
1, 225493, Note_off_c, 0, 83, 58
1, 225501, Note_on_c, 0, 84, 58
1, 225508, Poly_aftertouch_c, 0, 85, 0
1, 225526, Note_off_c, 0, 86, 56
1, 225545, Control_c, 0, 64, 29
1, 225551, Note_on_c, 0, 83, 87
1, 225558, Note_on_c, 0, 79, 85
1, 225560, Control_c, 0, 64, 30
1, 225581, Note_off_c, 0, 80, 63
1, 225609, Note_off_c, 0, 84, 61
1, 225693, Note_off_c, 0, 79, 63
1, 225693, Note_off_c, 0, 83, 64
1, 225707, Note_on_c, 0, 72, 91
1, 225707, Note_off_c, 0, 73, 63
1, 225987, Note_on_c, 0, 71, 99
1, 225994, Note_on_c, 0, 62, 87
1, 225997, Note_on_c, 0, 58, 86
1, 226008, Note_off_c, 0, 72, 63
1, 226053, Note_on_c, 0, 60, 51
1, 226053, Note_off_c, 0, 58, 63
1, 226053, Note_on_c, 0, 56, 79
1, 226071, Control_c, 0, 64, 29
1, 226081, Note_off_c, 0, 62, 59
1, 226100, Control_c, 0, 64, 29
1, 226104, Note_on_c, 0, 59, 73
1, 226110, Note_on_c, 0, 55, 67
1, 226115, Control_c, 0, 64, 28
1, 226134, Note_off_c, 0, 56, 63
1, 226142, Note_off_c, 0, 60, 63
1, 226196, Note_off_c, 0, 55, 61
1, 226227, Note_off_c, 0, 59, 55
1, 226277, Note_on_c, 0, 70, 82
1, 226334, Note_off_c, 0, 71, 56
1, 226412, Control_c, 0, 64, 29
1, 226471, Control_c, 0, 64, 29
1, 226540, Note_on_c, 0, 69, 66
1, 226560, Control_c, 0, 64, 30
1, 226586, Note_off_c, 0, 70, 62
1, 226676, Note_on_c, 0, 68, 81
1, 226703, Note_off_c, 0, 69, 63
1, 226805, Note_on_c, 0, 67, 91
1, 226824, Note_off_c, 0, 68, 59
1, 226921, Note_on_c, 0, 68, 95
1, 226948, Note_off_c, 0, 67, 62
1, 226953, Control_c, 0, 64, 30
1, 227041, Control_c, 0, 64, 30
1, 227056, Control_c, 0, 64, 28
1, 227072, Control_c, 0, 64, 27
1, 227073, Note_on_c, 0, 75, 92
1, 227082, Note_off_c, 0, 68, 67
1, 227102, Control_c, 0, 64, 26
1, 227146, Control_c, 0, 64, 32
1, 227161, Control_c, 0, 64, 47
1, 227176, Control_c, 0, 64, 60
1, 227191, Control_c, 0, 64, 69
1, 227206, Control_c, 0, 64, 101
1, 227220, Control_c, 0, 64, 127
1, 227251, Note_off_c, 0, 75, 61
1, 227342, Note_on_c, 0, 74, 106
1, 227343, Note_on_c, 0, 86, 101
1, 227349, Note_on_c, 0, 82, 97
1, 227369, Control_c, 0, 64, 84
1, 227384, Control_c, 0, 64, 63
1, 227396, Note_on_c, 0, 84, 67
1, 227399, Control_c, 0, 64, 33
1, 227405, Note_on_c, 0, 80, 89
1, 227414, Control_c, 0, 64, 0
1, 227431, Note_off_c, 0, 82, 65
1, 227464, Note_on_c, 0, 83, 86
1, 227465, Note_on_c, 0, 79, 83
1, 227466, Note_off_c, 0, 86, 59
1, 227499, Note_off_c, 0, 80, 65
1, 227517, Note_off_c, 0, 84, 64
1, 227520, Note_off_c, 0, 79, 64
1, 227520, Note_off_c, 0, 83, 67
1, 227662, Note_on_c, 0, 73, 98
1, 227663, Note_on_c, 0, 94, 112
1, 227666, Note_on_c, 0, 98, 103
1, 227685, Note_off_c, 0, 74, 60
1, 227687, Control_c, 0, 64, 16
1, 227702, Control_c, 0, 64, 19
1, 227717, Note_on_c, 0, 92, 86
1, 227726, Note_on_c, 0, 96, 56
1, 227752, Note_off_c, 0, 94, 62
1, 227779, Note_on_c, 0, 95, 87
1, 227786, Note_on_c, 0, 91, 78
1, 227806, Control_c, 0, 64, 18
1, 227806, Note_off_c, 0, 98, 62
1, 227814, Note_off_c, 0, 92, 65
1, 227873, Note_off_c, 0, 96, 42
1, 227909, Note_off_c, 0, 95, 65
1, 227916, Note_off_c, 0, 91, 63
1, 227945, Note_on_c, 0, 72, 86
1, 227954, Note_off_c, 0, 73, 61
1, 228014, Control_c, 0, 64, 19
1, 228029, Control_c, 0, 64, 19
1, 228044, Control_c, 0, 64, 20
1, 228059, Control_c, 0, 64, 21
1, 228073, Control_c, 0, 64, 22
1, 228087, Control_c, 0, 64, 23
1, 228224, Note_on_c, 0, 71, 94
1, 228227, Note_on_c, 0, 58, 89
1, 228229, Note_on_c, 0, 62, 82
1, 228249, Note_off_c, 0, 72, 64
1, 228274, Note_on_c, 0, 60, 65
1, 228289, Note_off_c, 0, 58, 63
1, 228292, Note_on_c, 0, 56, 72
1, 228302, Control_c, 0, 64, 22
1, 228317, Control_c, 0, 64, 22
1, 228328, Note_off_c, 0, 62, 58
1, 228332, Control_c, 0, 64, 21
1, 228346, Note_on_c, 0, 55, 63
1, 228347, Control_c, 0, 64, 20
1, 228349, Note_on_c, 0, 59, 74
1, 228378, Note_off_c, 0, 56, 64
1, 228385, Note_off_c, 0, 60, 64
1, 228391, Control_c, 0, 64, 19
1, 228402, Note_off_c, 0, 59, 64
1, 228405, Note_off_c, 0, 55, 64
1, 228497, Note_on_c, 0, 70, 85
1, 228507, Note_on_c, 0, 58, 77
1, 228512, Note_on_c, 0, 62, 76
1, 228524, Note_off_c, 0, 71, 61
1, 228552, Note_on_c, 0, 56, 67
1, 228554, Control_c, 0, 64, 20
1, 228559, Note_on_c, 0, 60, 62
1, 228572, Note_off_c, 0, 58, 62
1, 228595, Note_off_c, 0, 62, 60
1, 228611, Note_on_c, 0, 55, 58
1, 228625, Note_off_c, 0, 56, 62
1, 228636, Note_on_c, 0, 59, 62
1, 228668, Note_off_c, 0, 60, 60
1, 228673, Note_off_c, 0, 55, 56
1, 228673, Control_c, 0, 64, 21
1, 228697, Note_off_c, 0, 59, 55
1, 228703, Control_c, 0, 64, 22
1, 228718, Control_c, 0, 64, 22
1, 228733, Control_c, 0, 64, 23
1, 228757, Note_on_c, 0, 69, 70
1, 228763, Control_c, 0, 64, 23
1, 228783, Note_off_c, 0, 70, 60
1, 228866, Control_c, 0, 64, 24
1, 228890, Note_on_c, 0, 68, 80
1, 228918, Note_off_c, 0, 69, 62
1, 229036, Note_on_c, 0, 67, 82
1, 229050, Note_off_c, 0, 68, 62
1, 229066, Control_c, 0, 64, 24
1, 229111, Control_c, 0, 64, 25
1, 229157, Note_on_c, 0, 68, 83
1, 229170, Control_c, 0, 64, 25
1, 229192, Note_off_c, 0, 67, 62
1, 229229, Control_c, 0, 64, 26
1, 229258, Control_c, 0, 64, 26
1, 229273, Control_c, 0, 64, 27
1, 229303, Control_c, 0, 64, 27
1, 229317, Control_c, 0, 64, 28
1, 229322, Note_on_c, 0, 75, 73
1, 229332, Control_c, 0, 64, 30
1, 229347, Control_c, 0, 64, 31
1, 229362, Control_c, 0, 64, 33
1, 229377, Note_off_c, 0, 68, 60
1, 229377, Control_c, 0, 64, 35
1, 229392, Control_c, 0, 64, 38
1, 229407, Control_c, 0, 64, 43
1, 229422, Control_c, 0, 64, 48
1, 229437, Control_c, 0, 64, 54
1, 229451, Control_c, 0, 64, 58
1, 229466, Control_c, 0, 64, 61
1, 229481, Control_c, 0, 64, 64
1, 229496, Control_c, 0, 64, 68
1, 229511, Control_c, 0, 64, 75
1, 229526, Control_c, 0, 64, 92
1, 229541, Control_c, 0, 64, 125
1, 229556, Control_c, 0, 64, 127
1, 229625, Note_off_c, 0, 75, 43
1, 229657, Note_on_c, 0, 86, 50
1, 229666, Note_on_c, 0, 91, 62
1, 229666, Note_on_c, 0, 74, 46
1, 229673, Note_on_c, 0, 70, 44
1, 229704, Control_c, 0, 64, 117
1, 229726, Control_c, 0, 64, 104
1, 229741, Control_c, 0, 64, 94
1, 229756, Control_c, 0, 64, 85
1, 229770, Control_c, 0, 64, 80
1, 229785, Control_c, 0, 64, 76
1, 229800, Control_c, 0, 64, 73
1, 229815, Control_c, 0, 64, 69
1, 229830, Control_c, 0, 64, 66
1, 229845, Control_c, 0, 64, 64
1, 229860, Control_c, 0, 64, 62
1, 229874, Control_c, 0, 64, 62
1, 229889, Control_c, 0, 64, 61
1, 229934, Control_c, 0, 64, 61
1, 229955, Note_on_c, 0, 90, 74
1, 229958, Note_on_c, 0, 85, 73
1, 229963, Note_on_c, 0, 65, 50
1, 229964, Note_on_c, 0, 73, 62
1, 229978, Control_c, 0, 64, 60
1, 230008, Control_c, 0, 64, 61
1, 230022, Control_c, 0, 64, 62
1, 230037, Control_c, 0, 64, 63
1, 230047, Note_off_c, 0, 70, 56
1, 230052, Control_c, 0, 64, 66
1, 230053, Note_off_c, 0, 86, 55
1, 230060, Note_off_c, 0, 74, 54
1, 230066, Note_off_c, 0, 91, 56
1, 230066, Control_c, 0, 64, 72
1, 230081, Control_c, 0, 64, 89
1, 230096, Control_c, 0, 64, 127
1, 230213, Note_off_c, 0, 90, 62
1, 230233, Note_on_c, 0, 89, 85
1, 230239, Note_on_c, 0, 84, 87
1, 230243, Note_on_c, 0, 72, 69
1, 230248, Note_on_c, 0, 68, 70
1, 230275, Control_c, 0, 64, 85
1, 230280, Note_off_c, 0, 65, 59
1, 230289, Control_c, 0, 64, 68
1, 230301, Note_off_c, 0, 85, 63
1, 230304, Control_c, 0, 64, 59
1, 230319, Control_c, 0, 64, 61
1, 230334, Control_c, 0, 64, 67
1, 230341, Note_off_c, 0, 73, 59
1, 230349, Control_c, 0, 64, 77
1, 230364, Control_c, 0, 64, 127
1, 230423, Note_off_c, 0, 72, 58
1, 230524, Note_on_c, 0, 88, 81
1, 230528, Note_on_c, 0, 83, 81
1, 230530, Note_on_c, 0, 62, 67
1, 230531, Note_on_c, 0, 71, 77
1, 230534, Control_c, 0, 64, 106
1, 230549, Control_c, 0, 64, 80
1, 230554, Note_off_c, 0, 89, 62
1, 230561, Note_off_c, 0, 84, 62
1, 230563, Control_c, 0, 64, 69
1, 230578, Note_off_c, 0, 68, 58
1, 230578, Control_c, 0, 64, 63
1, 230593, Control_c, 0, 64, 58
1, 230623, Control_c, 0, 64, 61
1, 230638, Control_c, 0, 64, 68
1, 230653, Control_c, 0, 64, 79
1, 230668, Control_c, 0, 64, 113
1, 230683, Control_c, 0, 64, 127
1, 230782, Note_on_c, 0, 70, 81
1, 230783, Note_on_c, 0, 66, 70
1, 230792, Note_on_c, 0, 82, 89
1, 230793, Note_on_c, 0, 87, 84
1, 230815, Control_c, 0, 64, 89
1, 230823, Note_off_c, 0, 62, 62
1, 230830, Control_c, 0, 64, 71
1, 230836, Note_off_c, 0, 71, 52
1, 230842, Note_off_c, 0, 83, 60
1, 230845, Control_c, 0, 64, 62
1, 230860, Control_c, 0, 64, 56
1, 230875, Control_c, 0, 64, 59
1, 230882, Note_off_c, 0, 88, 63
1, 230889, Control_c, 0, 64, 65
1, 230904, Control_c, 0, 64, 73
1, 230919, Control_c, 0, 64, 96
1, 230934, Control_c, 0, 64, 127
1, 230946, Note_off_c, 0, 70, 63
1, 230962, Note_off_c, 0, 87, 64
1, 231045, Note_on_c, 0, 59, 54
1, 231050, Note_on_c, 0, 69, 61
1, 231084, Control_c, 0, 64, 91
1, 231090, Note_on_c, 0, 86, 75
1, 231094, Note_on_c, 0, 81, 57
1, 231099, Control_c, 0, 64, 77
1, 231113, Control_c, 0, 64, 65
1, 231124, Note_off_c, 0, 66, 61
1, 231128, Control_c, 0, 64, 54
1, 231143, Control_c, 0, 64, 36
1, 231158, Control_c, 0, 64, 28
1, 231173, Control_c, 0, 64, 30
1, 231187, Control_c, 0, 64, 44
1, 231200, Note_off_c, 0, 81, 60
1, 231202, Control_c, 0, 64, 59
1, 231220, Note_on_c, 0, 85, 86
1, 231225, Control_c, 0, 64, 64
1, 231240, Control_c, 0, 64, 69
1, 231246, Note_off_c, 0, 82, 65
1, 231254, Control_c, 0, 64, 78
1, 231269, Control_c, 0, 64, 97
1, 231283, Note_off_c, 0, 86, 62
1, 231284, Control_c, 0, 64, 127
1, 231328, Control_c, 0, 64, 82
1, 231342, Note_on_c, 0, 64, 65
1, 231343, Control_c, 0, 64, 65
1, 231345, Note_on_c, 0, 84, 86
1, 231347, Note_on_c, 0, 68, 71
1, 231347, Note_on_c, 0, 80, 75
1, 231358, Control_c, 0, 64, 44
1, 231373, Control_c, 0, 64, 0
1, 231377, Note_off_c, 0, 59, 63
1, 231382, Note_off_c, 0, 85, 64
1, 231385, Note_off_c, 0, 69, 55
1, 231402, Control_c, 0, 64, 22
1, 231417, Control_c, 0, 64, 52
1, 231432, Control_c, 0, 64, 64
1, 231444, Note_off_c, 0, 64, 62
1, 231446, Control_c, 0, 64, 74
1, 231451, Note_on_c, 0, 85, 84
1, 231461, Control_c, 0, 64, 98
1, 231466, Note_off_c, 0, 80, 63
1, 231476, Control_c, 0, 64, 127
1, 231480, Note_off_c, 0, 84, 64
1, 231485, Note_off_c, 0, 68, 61
1, 231568, Note_off_c, 0, 85, 64
1, 231610, Control_c, 0, 64, 108
1, 231612, Note_on_c, 0, 70, 59
1, 231619, Note_on_c, 0, 74, 56
1, 231624, Note_on_c, 0, 91, 77
1, 231625, Control_c, 0, 64, 87
1, 231627, Note_on_c, 0, 86, 70
1, 231639, Control_c, 0, 64, 73
1, 231654, Control_c, 0, 64, 63
1, 231669, Control_c, 0, 64, 45
1, 231684, Control_c, 0, 64, 27
1, 231699, Control_c, 0, 64, 23
1, 231728, Control_c, 0, 64, 25
1, 231743, Control_c, 0, 64, 41
1, 231758, Control_c, 0, 64, 60
1, 231773, Control_c, 0, 64, 67
1, 231787, Note_off_c, 0, 91, 54
1, 231787, Control_c, 0, 64, 76
1, 231802, Control_c, 0, 64, 100
1, 231803, Note_off_c, 0, 74, 50
1, 231806, Note_off_c, 0, 86, 52
1, 231815, Control_c, 0, 64, 127
1, 231983, Note_on_c, 0, 65, 50
1, 231998, Note_on_c, 0, 73, 54
1, 231998, Note_on_c, 0, 90, 75
1, 232007, Note_on_c, 0, 85, 67
1, 232046, Control_c, 0, 64, 102
1, 232061, Control_c, 0, 64, 88
1, 232075, Control_c, 0, 64, 78
1, 232079, Note_off_c, 0, 70, 33
1, 232090, Control_c, 0, 64, 69
1, 232105, Control_c, 0, 64, 63
1, 232120, Control_c, 0, 64, 57
1, 232135, Control_c, 0, 64, 52
1, 232164, Control_c, 0, 64, 55
1, 232179, Control_c, 0, 64, 60
1, 232194, Control_c, 0, 64, 64
1, 232209, Control_c, 0, 64, 68
1, 232224, Control_c, 0, 64, 78
1, 232239, Control_c, 0, 64, 106
1, 232254, Control_c, 0, 64, 127
1, 232290, Note_on_c, 0, 89, 85
1, 232300, Note_on_c, 0, 72, 68
1, 232303, Note_on_c, 0, 84, 83
1, 232307, Note_on_c, 0, 68, 70
1, 232346, Note_off_c, 0, 90, 54
1, 232357, Control_c, 0, 64, 88
1, 232372, Control_c, 0, 64, 75
1, 232373, Note_off_c, 0, 65, 54
1, 232387, Control_c, 0, 64, 74
1, 232402, Control_c, 0, 64, 82
1, 232415, Note_off_c, 0, 85, 0
1, 232416, Control_c, 0, 64, 116
1, 232417, Note_off_c, 0, 73, 60
1, 232431, Control_c, 0, 64, 127
1, 232452, Poly_aftertouch_c, 0, 85, 127
1, 232463, Note_off_c, 0, 72, 64
1, 232555, Poly_aftertouch_c, 0, 85, 0
1, 232561, Note_on_c, 0, 71, 86
1, 232564, Note_on_c, 0, 83, 94
1, 232565, Note_on_c, 0, 88, 87
1, 232567, Note_on_c, 0, 62, 71
1, 232593, Note_off_c, 0, 84, 63
1, 232594, Control_c, 0, 64, 116
1, 232603, Note_off_c, 0, 68, 60
1, 232608, Control_c, 0, 64, 87
1, 232623, Control_c, 0, 64, 73
1, 232638, Control_c, 0, 64, 64
1, 232648, Note_off_c, 0, 89, 60
1, 232654, Control_c, 0, 64, 57
1, 232669, Control_c, 0, 64, 58
1, 232683, Control_c, 0, 64, 63
1, 232698, Control_c, 0, 64, 68
1, 232721, Control_c, 0, 64, 78
1, 232736, Control_c, 0, 64, 107
1, 232751, Control_c, 0, 64, 127
1, 232826, Note_on_c, 0, 70, 82
1, 232826, Note_on_c, 0, 82, 95
1, 232829, Note_on_c, 0, 87, 93
1, 232829, Note_on_c, 0, 66, 73
1, 232869, Control_c, 0, 64, 84
1, 232872, Note_off_c, 0, 71, 55
1, 232881, Note_off_c, 0, 62, 62
1, 232884, Control_c, 0, 64, 65
1, 232885, Note_off_c, 0, 83, 51
1, 232898, Control_c, 0, 64, 52
1, 232913, Control_c, 0, 64, 52
1, 232928, Control_c, 0, 64, 59
1, 232931, Note_off_c, 0, 88, 61
1, 232943, Control_c, 0, 64, 66
1, 232958, Control_c, 0, 64, 76
1, 232972, Control_c, 0, 64, 127
1, 232975, Note_off_c, 0, 70, 62
1, 233012, Note_off_c, 0, 87, 62
1, 233061, Note_off_c, 0, 66, 59
1, 233097, Note_on_c, 0, 59, 77
1, 233106, Note_on_c, 0, 69, 82
1, 233110, Note_on_c, 0, 86, 93
1, 233112, Note_on_c, 0, 81, 85
1, 233136, Control_c, 0, 64, 82
1, 233151, Control_c, 0, 64, 62
1, 233165, Control_c, 0, 64, 0
1, 233223, Note_off_c, 0, 81, 62
1, 233239, Control_c, 0, 64, 31
1, 233241, Note_on_c, 0, 85, 96
1, 233251, Note_off_c, 0, 82, 63
1, 233254, Control_c, 0, 64, 66
1, 233269, Control_c, 0, 64, 97
1, 233283, Control_c, 0, 64, 127
1, 233301, Note_off_c, 0, 86, 63
1, 233364, Note_off_c, 0, 69, 58
1, 233365, Note_on_c, 0, 68, 82
1, 233365, Note_on_c, 0, 84, 97
1, 233366, Note_on_c, 0, 64, 76
1, 233371, Note_on_c, 0, 80, 95
1, 233387, Note_off_c, 0, 68, 70
1, 233395, Note_off_c, 0, 85, 64
1, 233395, Note_off_c, 0, 64, 65
1, 233396, Note_off_c, 0, 59, 64
1, 233427, Note_off_c, 0, 84, 65
1, 233490, Note_on_c, 0, 85, 102
1, 233515, Note_off_c, 0, 80, 64
1, 233541, Note_off_c, 0, 85, 65
1, 233562, Note_on_c, 0, 84, 44
1, 233584, Note_off_c, 0, 84, 56
1, 233646, Note_on_c, 0, 56, 97
1, 233647, Note_on_c, 0, 44, 91
1, 233648, Note_on_c, 0, 49, 90
1, 233650, Note_on_c, 0, 84, 102
1, 233652, Note_on_c, 0, 77, 106
1, 233662, Control_c, 0, 64, 81
1, 233677, Control_c, 0, 64, 34
1, 233692, Control_c, 0, 64, 0
1, 233748, Note_off_c, 0, 56, 64
1, 233751, Control_c, 0, 64, 31
1, 233766, Control_c, 0, 64, 79
1, 233780, Control_c, 0, 64, 127
1, 233783, Note_off_c, 0, 49, 63
1, 233807, Note_off_c, 0, 44, 64
1, 233823, Note_off_c, 0, 84, 54
1, 233942, Note_on_c, 0, 38, 90
1, 233947, Note_on_c, 0, 29, 89
1, 233947, Note_on_c, 0, 80, 96
1, 233953, Note_on_c, 0, 71, 84
1, 233963, Note_off_c, 0, 77, 63
1, 233979, Note_off_c, 0, 29, 65
1, 233982, Note_off_c, 0, 38, 61
1, 234208, Note_off_c, 0, 71, 46
1, 234236, Note_on_c, 0, 49, 80
1, 234236, Note_on_c, 0, 56, 85
1, 234242, Note_on_c, 0, 44, 77
1, 234243, Note_on_c, 0, 77, 84
1, 234244, Note_on_c, 0, 84, 95
1, 234260, Note_off_c, 0, 56, 70
1, 234275, Note_off_c, 0, 49, 61
1, 234276, Note_off_c, 0, 80, 60
1, 234298, Note_off_c, 0, 44, 58
1, 234514, Note_on_c, 0, 29, 84
1, 234517, Note_on_c, 0, 38, 77
1, 234522, Note_on_c, 0, 80, 86
1, 234528, Note_on_c, 0, 71, 76
1, 234547, Note_off_c, 0, 29, 65
1, 234549, Note_off_c, 0, 38, 63
1, 234560, Note_off_c, 0, 77, 62
1, 234570, Note_off_c, 0, 84, 57
1, 234804, Note_on_c, 0, 56, 80
1, 234805, Note_on_c, 0, 84, 83
1, 234806, Note_on_c, 0, 77, 76
1, 234808, Note_on_c, 0, 49, 68
1, 234811, Note_on_c, 0, 44, 71
1, 234835, Note_off_c, 0, 56, 67
1, 234842, Note_off_c, 0, 80, 61
1, 234847, Note_off_c, 0, 49, 64
1, 234880, Note_off_c, 0, 44, 60
1, 234900, Note_off_c, 0, 71, 31
1, 235088, Note_on_c, 0, 29, 74
1, 235092, Note_on_c, 0, 80, 78
1, 235093, Note_on_c, 0, 38, 62
1, 235101, Note_on_c, 0, 71, 68
1, 235123, Note_off_c, 0, 29, 62
1, 235123, Note_off_c, 0, 77, 62
1, 235126, Note_off_c, 0, 38, 64
1, 235146, Note_off_c, 0, 84, 53
1, 235390, Note_on_c, 0, 77, 71
1, 235392, Note_on_c, 0, 56, 74
1, 235393, Note_on_c, 0, 84, 75
1, 235395, Note_on_c, 0, 44, 69
1, 235395, Note_on_c, 0, 49, 59
1, 235419, Note_off_c, 0, 49, 64
1, 235424, Note_off_c, 0, 56, 66
1, 235426, Note_off_c, 0, 80, 59
1, 235430, Note_off_c, 0, 44, 61
1, 235444, Note_off_c, 0, 71, 25
1, 235446, Note_off_c, 0, 84, 66
1, 235676, Note_on_c, 0, 80, 72
1, 235682, Note_on_c, 0, 71, 60
1, 235683, Note_on_c, 0, 38, 59
1, 235688, Note_on_c, 0, 29, 56
1, 235723, Note_off_c, 0, 38, 63
1, 235728, Note_off_c, 0, 29, 56
1, 235734, Note_off_c, 0, 77, 56
1, 235998, Control_c, 0, 64, 95
1, 236012, Control_c, 0, 64, 63
1, 236027, Control_c, 0, 64, 0
1, 236048, Note_on_c, 0, 77, 74
1, 236049, Note_on_c, 0, 67, 110
1, 236053, Note_on_c, 0, 84, 80
1, 236079, Note_off_c, 0, 80, 62
1, 236086, Note_off_c, 0, 67, 70
1, 236087, Control_c, 0, 64, 55
1, 236102, Control_c, 0, 64, 71
1, 236106, Note_off_c, 0, 71, 38
1, 236116, Control_c, 0, 64, 127
1, 236366, Note_on_c, 0, 80, 79
1, 236373, Note_on_c, 0, 71, 70
1, 236381, Note_on_c, 0, 41, 69
1, 236384, Note_on_c, 0, 50, 59
1, 236414, Note_off_c, 0, 77, 60
1, 236432, Note_off_c, 0, 84, 31
1, 236498, Note_off_c, 0, 41, 46
1, 236522, Note_off_c, 0, 50, 63
1, 236659, Note_on_c, 0, 56, 63
1, 236661, Note_on_c, 0, 84, 84
1, 236662, Note_on_c, 0, 49, 56
1, 236663, Note_on_c, 0, 77, 76
1, 236706, Note_off_c, 0, 80, 60
1, 236724, Note_off_c, 0, 71, 26
1, 236744, Note_off_c, 0, 56, 63
1, 236812, Note_off_c, 0, 84, 62
1, 236880, Note_off_c, 0, 49, 61
1, 236918, Note_on_c, 0, 80, 83
1, 236925, Note_on_c, 0, 71, 70
1, 236926, Note_on_c, 0, 50, 63
1, 236928, Note_on_c, 0, 41, 58
1, 236938, Note_off_c, 0, 77, 61
1, 236986, Note_off_c, 0, 71, 61
1, 236989, Note_off_c, 0, 80, 64
1, 237018, Note_off_c, 0, 41, 58
1, 237267, Note_on_c, 0, 49, 58
1, 237269, Note_on_c, 0, 56, 69
1, 237269, Note_on_c, 0, 67, 108
1, 237277, Note_off_c, 0, 50, 59
1, 237317, Control_c, 0, 64, 94
1, 237331, Control_c, 0, 64, 66
1, 237346, Control_c, 0, 64, 0
1, 237361, Note_on_c, 0, 65, 97
1, 237384, Note_off_c, 0, 67, 64
1, 237444, Note_on_c, 0, 64, 94
1, 237455, Note_off_c, 0, 65, 62
1, 237475, Note_off_c, 0, 56, 61
1, 237525, Control_c, 0, 64, 58
1, 237540, Control_c, 0, 64, 66
1, 237554, Control_c, 0, 64, 68
1, 237569, Control_c, 0, 64, 72
1, 237582, Note_off_c, 0, 49, 61
1, 237584, Control_c, 0, 64, 78
1, 237599, Control_c, 0, 64, 91
1, 237614, Control_c, 0, 64, 127
1, 237622, Note_off_c, 0, 64, 57
1, 237638, Note_on_c, 0, 50, 59
1, 237639, Note_on_c, 0, 41, 57
1, 237732, Note_off_c, 0, 41, 56
1, 237910, Note_on_c, 0, 49, 44
1, 237911, Note_on_c, 0, 84, 76
1, 237911, Note_on_c, 0, 56, 48
1, 237916, Note_on_c, 0, 77, 66
1, 237940, Note_off_c, 0, 50, 36
1, 237998, Note_off_c, 0, 56, 59
1, 238189, Note_off_c, 0, 49, 59
1, 238200, Note_on_c, 0, 80, 70
1, 238215, Note_on_c, 0, 71, 56
1, 238216, Note_on_c, 0, 50, 47
1, 238217, Note_on_c, 0, 41, 50
1, 238221, Note_off_c, 0, 84, 34
1, 238267, Note_off_c, 0, 77, 57
1, 238300, Note_off_c, 0, 41, 56
1, 238390, Note_off_c, 0, 71, 48
1, 238478, Note_on_c, 0, 56, 46
1, 238487, Note_on_c, 0, 49, 42
1, 238495, Note_on_c, 0, 84, 63
1, 238501, Note_on_c, 0, 77, 59
1, 238549, Note_off_c, 0, 80, 56
1, 238570, Note_off_c, 0, 50, 34
1, 238602, Note_off_c, 0, 56, 62
1, 238606, Note_off_c, 0, 84, 52
1, 238637, Note_on_c, 0, 71, 72
1, 238682, Note_off_c, 0, 71, 60
1, 238773, Note_on_c, 0, 50, 58
1, 238781, Note_on_c, 0, 80, 79
1, 238785, Note_on_c, 0, 68, 76
1, 238789, Note_on_c, 0, 41, 54
1, 238812, Note_off_c, 0, 49, 55
1, 238833, Note_off_c, 0, 77, 53
1, 238835, Note_off_c, 0, 68, 62
1, 238889, Note_off_c, 0, 41, 56
1, 238903, Note_on_c, 0, 71, 84
1, 238993, Note_off_c, 0, 71, 51
1, 239043, Note_on_c, 0, 49, 54
1, 239047, Note_on_c, 0, 56, 54
1, 239047, Note_on_c, 0, 84, 81
1, 239049, Note_on_c, 0, 77, 75
1, 239075, Note_off_c, 0, 50, 48
1, 239090, Note_off_c, 0, 80, 61
1, 239130, Note_off_c, 0, 56, 63
1, 239148, Note_off_c, 0, 84, 58
1, 239172, Note_on_c, 0, 71, 72
1, 239225, Note_off_c, 0, 71, 61
1, 239285, Note_off_c, 0, 49, 55
1, 239311, Note_on_c, 0, 41, 50
1, 239312, Note_on_c, 0, 50, 52
1, 239320, Note_on_c, 0, 80, 73
1, 239327, Note_on_c, 0, 68, 65
1, 239356, Note_off_c, 0, 68, 68
1, 239370, Note_off_c, 0, 77, 55
1, 239399, Note_off_c, 0, 41, 55
1, 239440, Note_on_c, 0, 71, 67
1, 239517, Note_off_c, 0, 71, 50
1, 239586, Note_off_c, 0, 50, 53
1, 239588, Note_on_c, 0, 84, 72
1, 239590, Note_on_c, 0, 56, 53
1, 239592, Note_on_c, 0, 49, 43
1, 239596, Note_on_c, 0, 77, 59
1, 239624, Note_off_c, 0, 80, 62
1, 239655, Note_off_c, 0, 56, 63
1, 239690, Note_off_c, 0, 84, 54
1, 239723, Note_on_c, 0, 71, 61
1, 239762, Note_off_c, 0, 71, 64
1, 239836, Note_off_c, 0, 49, 32
1, 239876, Note_on_c, 0, 50, 47
1, 239876, Note_on_c, 0, 41, 47
1, 239881, Note_on_c, 0, 80, 67
1, 239889, Note_on_c, 0, 68, 55
1, 239914, Note_off_c, 0, 41, 63
1, 239920, Note_off_c, 0, 68, 64
1, 239932, Note_off_c, 0, 50, 63
1, 239941, Note_off_c, 0, 77, 55
1, 239995, Note_on_c, 0, 71, 72
1, 240141, Control_c, 0, 64, 105
1, 240144, Note_off_c, 0, 71, 41
1, 240156, Control_c, 0, 64, 70
1, 240171, Control_c, 0, 64, 36
1, 240180, Note_on_c, 0, 63, 98
1, 240186, Control_c, 0, 64, 0
1, 240192, Note_on_c, 0, 77, 66
1, 240192, Note_on_c, 0, 84, 74
1, 240232, Note_off_c, 0, 63, 64
1, 240238, Control_c, 0, 64, 53
1, 240240, Note_off_c, 0, 80, 60
1, 240253, Control_c, 0, 64, 69
1, 240268, Control_c, 0, 64, 100
1, 240283, Control_c, 0, 64, 127
1, 240503, Note_on_c, 0, 80, 65
1, 240505, Note_on_c, 0, 50, 51
1, 240511, Note_on_c, 0, 71, 55
1, 240511, Note_off_c, 0, 84, 32
1, 240517, Note_on_c, 0, 41, 52
1, 240585, Note_off_c, 0, 77, 54
1, 240611, Note_off_c, 0, 50, 56
1, 240663, Note_off_c, 0, 41, 39
1, 240776, Note_on_c, 0, 56, 57
1, 240778, Note_on_c, 0, 84, 68
1, 240783, Note_on_c, 0, 77, 58
1, 240785, Note_on_c, 0, 49, 47
1, 240839, Note_off_c, 0, 80, 56
1, 240853, Note_off_c, 0, 71, 26
1, 240892, Note_off_c, 0, 56, 61
1, 240987, Note_off_c, 0, 84, 58
1, 241023, Note_off_c, 0, 49, 59
1, 241048, Note_on_c, 0, 80, 64
1, 241062, Note_on_c, 0, 50, 52
1, 241063, Note_on_c, 0, 71, 58
1, 241068, Note_on_c, 0, 41, 51
1, 241092, Note_off_c, 0, 77, 58
1, 241125, Note_off_c, 0, 80, 63
1, 241130, Note_off_c, 0, 71, 59
1, 241157, Note_off_c, 0, 41, 54
1, 241360, Note_on_c, 0, 56, 70
1, 241362, Note_on_c, 0, 49, 61
1, 241374, Note_on_c, 0, 64, 94
1, 241391, Note_off_c, 0, 50, 61
1, 241399, Note_on_c, 0, 63, 40
1, 241417, Control_c, 0, 64, 101
1, 241429, Note_off_c, 0, 63, 35
1, 241432, Control_c, 0, 64, 77
1, 241447, Control_c, 0, 64, 59
1, 241462, Control_c, 0, 64, 0
1, 241466, Note_on_c, 0, 62, 93
1, 241482, Note_off_c, 0, 64, 32
1, 241560, Note_on_c, 0, 61, 84
1, 241580, Note_off_c, 0, 62, 59
1, 241587, Note_off_c, 0, 56, 57
1, 241721, Control_c, 0, 64, 19
1, 241723, Note_off_c, 0, 49, 63
1, 241736, Control_c, 0, 64, 38
1, 241751, Control_c, 0, 64, 48
1, 241766, Control_c, 0, 64, 56
1, 241768, Note_on_c, 0, 41, 55
1, 241772, Note_on_c, 0, 50, 51
1, 241781, Control_c, 0, 64, 62
1, 241795, Control_c, 0, 64, 66
1, 241805, Note_off_c, 0, 61, 58
1, 241810, Control_c, 0, 64, 74
1, 241825, Control_c, 0, 64, 97
1, 241840, Control_c, 0, 64, 127
1, 241868, Note_off_c, 0, 41, 50
1, 242098, Note_on_c, 0, 56, 40
1, 242102, Note_on_c, 0, 77, 52
1, 242103, Note_on_c, 0, 84, 54
1, 242109, Note_on_c, 0, 49, 39
1, 242138, Note_off_c, 0, 50, 31
1, 242202, Note_off_c, 0, 56, 60
1, 242341, Note_off_c, 0, 49, 56
1, 242377, Note_on_c, 0, 80, 65
1, 242379, Note_on_c, 0, 71, 53
1, 242388, Note_on_c, 0, 41, 50
1, 242394, Note_on_c, 0, 50, 40
1, 242424, Note_off_c, 0, 77, 54
1, 242430, Note_off_c, 0, 84, 39
1, 242495, Note_off_c, 0, 41, 54
1, 242572, Note_off_c, 0, 71, 36
1, 242667, Note_on_c, 0, 56, 45
1, 242672, Note_on_c, 0, 49, 40
1, 242676, Note_on_c, 0, 84, 60
1, 242677, Note_on_c, 0, 77, 49
1, 242717, Note_off_c, 0, 80, 57
1, 242726, Note_off_c, 0, 50, 29
1, 242753, Note_off_c, 0, 56, 61
1, 242772, Note_off_c, 0, 84, 51
1, 242812, Note_on_c, 0, 71, 67
1, 242857, Note_off_c, 0, 71, 61
1, 242919, Note_off_c, 0, 49, 59
1, 242951, Note_on_c, 0, 50, 51
1, 242953, Note_on_c, 0, 41, 50
1, 242956, Note_on_c, 0, 80, 75
1, 242961, Note_on_c, 0, 68, 65
1, 242991, Note_off_c, 0, 68, 66
1, 243025, Note_off_c, 0, 77, 50
1, 243035, Note_off_c, 0, 41, 55
1, 243079, Note_on_c, 0, 71, 79
1, 243172, Note_off_c, 0, 71, 49
1, 243233, Note_on_c, 0, 84, 76
1, 243236, Note_on_c, 0, 56, 55
1, 243241, Note_on_c, 0, 49, 51
1, 243242, Note_on_c, 0, 77, 69
1, 243275, Note_off_c, 0, 80, 62
1, 243280, Note_off_c, 0, 50, 36
1, 243316, Note_off_c, 0, 56, 63
1, 243340, Note_off_c, 0, 84, 59
1, 243357, Note_on_c, 0, 71, 74
1, 243411, Note_off_c, 0, 71, 63
1, 243477, Note_off_c, 0, 49, 60
1, 243498, Note_on_c, 0, 50, 62
1, 243503, Note_on_c, 0, 41, 59
1, 243506, Note_on_c, 0, 80, 81
1, 243507, Note_on_c, 0, 68, 75
1, 243551, Note_off_c, 0, 68, 59
1, 243570, Note_off_c, 0, 77, 57
1, 243602, Note_off_c, 0, 41, 53
1, 243619, Note_on_c, 0, 71, 79
1, 243730, Note_off_c, 0, 71, 49
1, 243768, Note_on_c, 0, 56, 63
1, 243774, Note_on_c, 0, 77, 72
1, 243774, Note_on_c, 0, 84, 82
1, 243779, Note_on_c, 0, 49, 57
1, 243784, Note_off_c, 0, 50, 60
1, 243813, Note_off_c, 0, 80, 61
1, 243840, Note_off_c, 0, 56, 63
1, 243883, Note_off_c, 0, 84, 60
1, 243900, Note_on_c, 0, 71, 78
1, 243952, Control_c, 0, 64, 117
1, 243962, Note_off_c, 0, 71, 62
1, 243967, Control_c, 0, 64, 109
1, 243982, Control_c, 0, 64, 104
1, 243996, Control_c, 0, 64, 102
1, 244011, Control_c, 0, 64, 100
1, 244026, Control_c, 0, 64, 99
1, 244041, Control_c, 0, 64, 96
1, 244045, Note_off_c, 0, 49, 56
1, 244048, Note_on_c, 0, 50, 59
1, 244056, Control_c, 0, 64, 92
1, 244057, Note_on_c, 0, 41, 60
1, 244065, Note_on_c, 0, 80, 74
1, 244070, Control_c, 0, 64, 90
1, 244073, Note_on_c, 0, 68, 54
1, 244085, Control_c, 0, 64, 87
1, 244097, Note_off_c, 0, 68, 61
1, 244100, Control_c, 0, 64, 85
1, 244115, Control_c, 0, 64, 83
1, 244130, Control_c, 0, 64, 80
1, 244144, Control_c, 0, 64, 78
1, 244159, Note_off_c, 0, 77, 53
1, 244159, Control_c, 0, 64, 76
1, 244174, Control_c, 0, 64, 75
1, 244189, Control_c, 0, 64, 74
1, 244192, Note_on_c, 0, 49, 62
1, 244193, Note_on_c, 0, 71, 62
1, 244204, Control_c, 0, 64, 72
1, 244207, Note_off_c, 0, 50, 57
1, 244210, Note_off_c, 0, 41, 37
1, 244219, Control_c, 0, 64, 70
1, 244234, Control_c, 0, 64, 68
1, 244249, Control_c, 0, 64, 67
1, 244264, Control_c, 0, 64, 66
1, 244278, Control_c, 0, 64, 65
1, 244293, Control_c, 0, 64, 64
1, 244308, Control_c, 0, 64, 63
1, 244322, Control_c, 0, 64, 62
1, 244352, Control_c, 0, 64, 62
1, 244367, Control_c, 0, 64, 61
1, 244382, Control_c, 0, 64, 60
1, 244396, Control_c, 0, 64, 59
1, 244411, Control_c, 0, 64, 58
1, 244426, Control_c, 0, 64, 57
1, 244441, Control_c, 0, 64, 56
1, 244456, Note_on_c, 0, 50, 32
1, 244456, Control_c, 0, 64, 55
1, 244458, Note_on_c, 0, 56, 42
1, 244465, Note_on_c, 0, 83, 56
1, 244470, Control_c, 0, 64, 54
1, 244471, Note_on_c, 0, 76, 49
1, 244485, Control_c, 0, 64, 53
1, 244500, Control_c, 0, 64, 51
1, 244514, Control_c, 0, 64, 50
1, 244524, Note_off_c, 0, 49, 57
1, 244529, Control_c, 0, 64, 48
1, 244530, Note_off_c, 0, 71, 28
1, 244544, Control_c, 0, 64, 46
1, 244559, Control_c, 0, 64, 45
1, 244568, Note_off_c, 0, 80, 58
1, 244603, Control_c, 0, 64, 48
1, 244618, Control_c, 0, 64, 54
1, 244633, Control_c, 0, 64, 60
1, 244648, Control_c, 0, 64, 64
1, 244663, Control_c, 0, 64, 67
1, 244678, Control_c, 0, 64, 71
1, 244700, Control_c, 0, 64, 81
1, 244715, Control_c, 0, 64, 94
1, 244730, Control_c, 0, 64, 115
1, 244744, Control_c, 0, 64, 127
1, 244763, Note_off_c, 0, 56, 37
1, 244867, Note_on_c, 0, 41, 26
1, 244867, Note_on_c, 0, 80, 54
1, 244878, Note_on_c, 0, 74, 47
1, 244881, Note_on_c, 0, 46, 42
1, 244907, Control_c, 0, 64, 112
1, 244922, Control_c, 0, 64, 98
1, 244937, Control_c, 0, 64, 85
1, 244952, Control_c, 0, 64, 76
1, 244967, Control_c, 0, 64, 69
1, 244982, Control_c, 0, 64, 64
1, 244997, Control_c, 0, 64, 63
1, 244999, Note_off_c, 0, 50, 37
1, 245000, Note_off_c, 0, 76, 48
1, 245007, Note_off_c, 0, 83, 53
1, 245012, Control_c, 0, 64, 64
1, 245026, Control_c, 0, 64, 67
1, 245041, Control_c, 0, 64, 71
1, 245056, Control_c, 0, 64, 78
1, 245071, Control_c, 0, 64, 90
1, 245086, Control_c, 0, 64, 104
1, 245100, Control_c, 0, 64, 127
1, 245177, Note_on_c, 0, 50, 39
1, 245179, Note_on_c, 0, 76, 54
1, 245180, Note_on_c, 0, 83, 60
1, 245185, Note_on_c, 0, 56, 43
1, 245204, Control_c, 0, 64, 112
1, 245218, Control_c, 0, 64, 91
1, 245233, Control_c, 0, 64, 78
1, 245241, Note_off_c, 0, 80, 49
1, 245248, Control_c, 0, 64, 70
1, 245263, Control_c, 0, 64, 67
1, 245278, Control_c, 0, 64, 68
1, 245283, Note_off_c, 0, 74, 48
1, 245285, Note_off_c, 0, 46, 39
1, 245292, Control_c, 0, 64, 72
1, 245307, Control_c, 0, 64, 80
1, 245322, Control_c, 0, 64, 94
1, 245337, Control_c, 0, 64, 127
1, 245337, Note_off_c, 0, 41, 40
1, 245362, Note_off_c, 0, 56, 41
1, 245471, Note_on_c, 0, 74, 54
1, 245471, Note_on_c, 0, 80, 64
1, 245471, Note_on_c, 0, 41, 41
1, 245479, Control_c, 0, 64, 96
1, 245480, Note_on_c, 0, 46, 42
1, 245494, Control_c, 0, 64, 82
1, 245498, Note_off_c, 0, 76, 55
1, 245509, Control_c, 0, 64, 73
1, 245514, Note_off_c, 0, 50, 39
1, 245523, Control_c, 0, 64, 67
1, 245530, Note_off_c, 0, 83, 39
1, 245538, Control_c, 0, 64, 63
1, 245553, Control_c, 0, 64, 61
1, 245582, Control_c, 0, 64, 63
1, 245597, Control_c, 0, 64, 66
1, 245612, Control_c, 0, 64, 69
1, 245627, Control_c, 0, 64, 74
1, 245641, Control_c, 0, 64, 79
1, 245656, Control_c, 0, 64, 86
1, 245671, Control_c, 0, 64, 95
1, 245686, Control_c, 0, 64, 104
1, 245701, Control_c, 0, 64, 103
1, 245715, Control_c, 0, 64, 100
1, 245730, Control_c, 0, 64, 96
1, 245745, Control_c, 0, 64, 93
1, 245760, Control_c, 0, 64, 86
1, 245762, Note_on_c, 0, 56, 41
1, 245762, Note_on_c, 0, 76, 50
1, 245762, Note_on_c, 0, 83, 58
1, 245769, Note_on_c, 0, 50, 38
1, 245774, Note_off_c, 0, 80, 55
1, 245775, Control_c, 0, 64, 78
1, 245790, Control_c, 0, 64, 71
1, 245805, Control_c, 0, 64, 66
1, 245820, Control_c, 0, 64, 63
1, 245834, Control_c, 0, 64, 62
1, 245840, Note_off_c, 0, 46, 32
1, 245840, Note_off_c, 0, 74, 33
1, 245885, Note_off_c, 0, 41, 37
1, 245894, Control_c, 0, 64, 63
1, 245909, Control_c, 0, 64, 63
1, 245923, Control_c, 0, 64, 64
1, 245938, Control_c, 0, 64, 66
1, 245953, Control_c, 0, 64, 69
1, 245958, Note_off_c, 0, 56, 39
1, 245967, Control_c, 0, 64, 72
1, 245982, Control_c, 0, 64, 76
1, 245997, Control_c, 0, 64, 79
1, 246012, Control_c, 0, 64, 80
1, 246042, Control_c, 0, 64, 79
1, 246049, Note_on_c, 0, 41, 37
1, 246053, Note_on_c, 0, 80, 52
1, 246057, Control_c, 0, 64, 77
1, 246064, Note_on_c, 0, 46, 36
1, 246067, Note_on_c, 0, 74, 40
1, 246072, Control_c, 0, 64, 74
1, 246087, Control_c, 0, 64, 71
1, 246102, Control_c, 0, 64, 69
1, 246116, Control_c, 0, 64, 67
1, 246130, Note_off_c, 0, 50, 37
1, 246131, Control_c, 0, 64, 66
1, 246142, Note_off_c, 0, 76, 36
1, 246175, Control_c, 0, 64, 66
1, 246177, Note_off_c, 0, 83, 30
1, 246198, Control_c, 0, 64, 65
1, 246213, Control_c, 0, 64, 65
1, 246288, Control_c, 0, 64, 64
1, 246332, Control_c, 0, 64, 64
1, 246355, Note_on_c, 0, 83, 36
1, 246361, Note_on_c, 0, 56, 35
1, 246370, Note_on_c, 0, 50, 34
1, 246371, Note_on_c, 0, 76, 39
1, 246405, Note_off_c, 0, 80, 54
1, 246406, Control_c, 0, 64, 63
1, 246436, Control_c, 0, 64, 63
1, 246443, Note_off_c, 0, 46, 35
1, 246461, Note_off_c, 0, 74, 32
1, 246487, Note_off_c, 0, 56, 40
1, 246495, Control_c, 0, 64, 62
1, 246519, Note_off_c, 0, 41, 39
1, 246554, Control_c, 0, 64, 62
1, 246569, Control_c, 0, 64, 61
1, 246583, Control_c, 0, 64, 61
1, 246628, Control_c, 0, 64, 60
1, 246651, Note_on_c, 0, 80, 49
1, 246657, Note_on_c, 0, 74, 39
1, 246660, Note_on_c, 0, 41, 47
1, 246660, Note_off_c, 0, 50, 41
1, 246661, Note_on_c, 0, 46, 37
1, 246672, Control_c, 0, 64, 60
1, 246717, Control_c, 0, 64, 59
1, 246747, Control_c, 0, 64, 59
1, 246747, Note_off_c, 0, 76, 49
1, 246783, Note_off_c, 0, 83, 37
1, 246788, Note_off_c, 0, 41, 63
1, 246798, Note_off_c, 0, 46, 57
1, 246836, Control_c, 0, 64, 58
1, 246880, Control_c, 0, 64, 58
1, 246949, Note_on_c, 0, 46, 77
1, 246961, Note_on_c, 0, 34, 71
1, 246961, Control_c, 0, 64, 57
1, 246984, Note_on_c, 0, 83, 64
1, 246985, Note_on_c, 0, 76, 59
1, 246991, Control_c, 0, 64, 57
1, 247010, Note_off_c, 0, 80, 58
1, 247021, Control_c, 0, 64, 56
1, 247035, Note_off_c, 0, 74, 37
1, 247036, Control_c, 0, 64, 56
1, 247051, Control_c, 0, 64, 55
1, 247066, Control_c, 0, 64, 55
1, 247072, Note_off_c, 0, 46, 53
1, 247072, Note_off_c, 0, 34, 52
1, 247095, Control_c, 0, 64, 54
1, 247125, Control_c, 0, 64, 54
1, 247170, Control_c, 0, 64, 53
1, 247229, Control_c, 0, 64, 53
1, 247259, Control_c, 0, 64, 52
1, 247274, Note_on_c, 0, 80, 63
1, 247280, Note_on_c, 0, 74, 55
1, 247303, Control_c, 0, 64, 52
1, 247349, Note_off_c, 0, 83, 50
1, 247354, Note_off_c, 0, 76, 55
1, 247362, Control_c, 0, 64, 51
1, 247392, Control_c, 0, 64, 51
1, 247421, Control_c, 0, 64, 50
1, 247451, Control_c, 0, 64, 50
1, 247495, Control_c, 0, 64, 49
1, 247525, Control_c, 0, 64, 49
1, 247569, Control_c, 0, 64, 48
1, 247629, Control_c, 0, 64, 48
1, 247630, Note_on_c, 0, 46, 77
1, 247638, Note_on_c, 0, 34, 70
1, 247644, Note_on_c, 0, 83, 64
1, 247646, Note_on_c, 0, 76, 60
1, 247695, Control_c, 0, 64, 47
1, 247701, Note_off_c, 0, 80, 56
1, 247718, Note_off_c, 0, 46, 62
1, 247746, Note_on_c, 0, 45, 67
1, 247758, Note_on_c, 0, 37, 63
1, 247784, Note_off_c, 0, 74, 33
1, 247793, Note_off_c, 0, 34, 58
1, 247814, Control_c, 0, 64, 47
1, 247844, Control_c, 0, 64, 46
1, 247859, Note_on_c, 0, 44, 64
1, 247865, Note_off_c, 0, 45, 61
1, 247868, Note_on_c, 0, 40, 53
1, 247904, Control_c, 0, 64, 46
1, 247978, Note_off_c, 0, 37, 33
1, 247987, Note_on_c, 0, 80, 57
1, 247992, Note_on_c, 0, 74, 49
1, 248023, Control_c, 0, 64, 45
1, 248036, Note_off_c, 0, 76, 51
1, 248054, Note_off_c, 0, 83, 37
1, 248170, Control_c, 0, 64, 46
1, 248185, Control_c, 0, 64, 47
1, 248200, Control_c, 0, 64, 49
1, 248215, Control_c, 0, 64, 50
1, 248230, Control_c, 0, 64, 52
1, 248244, Control_c, 0, 64, 54
1, 248259, Control_c, 0, 64, 55
1, 248274, Control_c, 0, 64, 56
1, 248276, Note_on_c, 0, 83, 56
1, 248278, Note_on_c, 0, 76, 48
1, 248289, Control_c, 0, 64, 57
1, 248304, Control_c, 0, 64, 59
1, 248311, Note_off_c, 0, 80, 57
1, 248318, Control_c, 0, 64, 60
1, 248333, Control_c, 0, 64, 62
1, 248348, Control_c, 0, 64, 63
1, 248362, Control_c, 0, 64, 64
1, 248368, Note_off_c, 0, 74, 34
1, 248377, Control_c, 0, 64, 66
1, 248392, Control_c, 0, 64, 68
1, 248407, Control_c, 0, 64, 73
1, 248422, Control_c, 0, 64, 85
1, 248444, Control_c, 0, 64, 106
1, 248459, Control_c, 0, 64, 127
1, 248524, Note_off_c, 0, 40, 41
1, 248535, Note_off_c, 0, 44, 36
1, 248580, Note_on_c, 0, 80, 56
1, 248586, Note_on_c, 0, 74, 52
1, 248660, Note_off_c, 0, 76, 37
1, 248664, Note_off_c, 0, 83, 34
1, 248875, Control_c, 0, 64, 98
1, 248877, Note_on_c, 0, 76, 50
1, 248881, Note_on_c, 0, 83, 54
1, 248885, Note_on_c, 0, 56, 43
1, 248890, Control_c, 0, 64, 84
1, 248892, Note_on_c, 0, 50, 38
1, 248905, Control_c, 0, 64, 75
1, 248919, Note_off_c, 0, 80, 54
1, 248920, Control_c, 0, 64, 68
1, 248934, Control_c, 0, 64, 63
1, 248949, Control_c, 0, 64, 57
1, 248959, Note_off_c, 0, 74, 32
1, 248964, Control_c, 0, 64, 54
1, 248979, Control_c, 0, 64, 55
1, 248993, Control_c, 0, 64, 58
1, 249008, Control_c, 0, 64, 61
1, 249023, Control_c, 0, 64, 64
1, 249037, Control_c, 0, 64, 68
1, 249052, Control_c, 0, 64, 73
1, 249055, Note_off_c, 0, 56, 59
1, 249066, Control_c, 0, 64, 82
1, 249081, Control_c, 0, 64, 108
1, 249096, Control_c, 0, 64, 127
1, 249193, Note_on_c, 0, 74, 39
1, 249194, Note_on_c, 0, 80, 45
1, 249196, Note_off_c, 0, 50, 37
1, 249207, Note_on_c, 0, 41, 33
1, 249212, Note_on_c, 0, 46, 35
1, 249257, Note_off_c, 0, 76, 34
1, 249258, Note_off_c, 0, 83, 32
1, 249357, Note_off_c, 0, 74, 47
1, 249380, Note_off_c, 0, 80, 59
1, 249491, Note_on_c, 0, 56, 47
1, 249505, Note_on_c, 0, 50, 33
1, 249549, Note_off_c, 0, 46, 30
1, 249593, Note_off_c, 0, 41, 15
1, 249665, Note_off_c, 0, 56, 32
1, 249763, Note_on_c, 0, 41, 42
1, 249775, Note_on_c, 0, 46, 48
1, 249820, Note_off_c, 0, 50, 40
1, 250074, Note_on_c, 0, 50, 40
1, 250082, Note_on_c, 0, 56, 46
1, 250086, Note_on_c, 0, 83, 65
1, 250087, Note_on_c, 0, 76, 56
1, 250135, Control_c, 0, 64, 97
1, 250149, Control_c, 0, 64, 84
1, 250164, Control_c, 0, 64, 75
1, 250179, Control_c, 0, 64, 68
1, 250194, Control_c, 0, 64, 63
1, 250195, Note_off_c, 0, 46, 36
1, 250208, Control_c, 0, 64, 63
1, 250223, Control_c, 0, 64, 64
1, 250239, Control_c, 0, 64, 65
1, 250249, Note_off_c, 0, 41, 41
1, 250254, Control_c, 0, 64, 67
1, 250260, Note_off_c, 0, 56, 41
1, 250269, Control_c, 0, 64, 70
1, 250284, Control_c, 0, 64, 74
1, 250299, Control_c, 0, 64, 82
1, 250313, Control_c, 0, 64, 90
1, 250328, Control_c, 0, 64, 102
1, 250343, Control_c, 0, 64, 127
1, 250386, Note_on_c, 0, 80, 56
1, 250391, Note_on_c, 0, 74, 48
1, 250392, Note_on_c, 0, 46, 41
1, 250392, Note_on_c, 0, 41, 32
1, 250446, Control_c, 0, 64, 102
1, 250461, Control_c, 0, 64, 87
1, 250470, Note_off_c, 0, 83, 50
1, 250476, Control_c, 0, 64, 76
1, 250485, Note_off_c, 0, 76, 50
1, 250491, Control_c, 0, 64, 71
1, 250506, Control_c, 0, 64, 67
1, 250521, Control_c, 0, 64, 63
1, 250535, Control_c, 0, 64, 61
1, 250550, Control_c, 0, 64, 60
1, 250574, Note_off_c, 0, 50, 38
1, 250580, Control_c, 0, 64, 61
1, 250595, Control_c, 0, 64, 61
1, 250610, Control_c, 0, 64, 62
1, 250625, Control_c, 0, 64, 63
1, 250639, Control_c, 0, 64, 64
1, 250654, Control_c, 0, 64, 66
1, 250669, Control_c, 0, 64, 68
1, 250691, Control_c, 0, 64, 70
1, 250693, Note_on_c, 0, 76, 45
1, 250694, Note_on_c, 0, 83, 51
1, 250706, Control_c, 0, 64, 72
1, 250719, Note_off_c, 0, 80, 53
1, 250720, Control_c, 0, 64, 76
1, 250735, Control_c, 0, 64, 80
1, 250750, Control_c, 0, 64, 87
1, 250765, Control_c, 0, 64, 95
1, 250766, Note_off_c, 0, 41, 40
1, 250780, Control_c, 0, 64, 110
1, 250795, Control_c, 0, 64, 127
1, 250801, Note_off_c, 0, 74, 33
1, 250886, Note_off_c, 0, 46, 38
1, 250991, Note_on_c, 0, 80, 50
1, 251000, Note_on_c, 0, 74, 40
1, 251054, Note_off_c, 0, 83, 30
1, 251080, Note_off_c, 0, 76, 36
1, 251286, Note_on_c, 0, 83, 53
1, 251291, Note_on_c, 0, 76, 42
1, 251296, Note_on_c, 0, 50, 39
1, 251299, Control_c, 0, 64, 115
1, 251306, Note_on_c, 0, 56, 30
1, 251314, Control_c, 0, 64, 103
1, 251321, Note_off_c, 0, 80, 38
1, 251328, Control_c, 0, 64, 95
1, 251343, Control_c, 0, 64, 87
1, 251358, Control_c, 0, 64, 79
1, 251370, Note_off_c, 0, 74, 24
1, 251373, Control_c, 0, 64, 72
1, 251388, Control_c, 0, 64, 66
1, 251403, Control_c, 0, 64, 61
1, 251418, Control_c, 0, 64, 58
1, 251440, Control_c, 0, 64, 59
1, 251455, Control_c, 0, 64, 61
1, 251469, Control_c, 0, 64, 62
1, 251471, Note_off_c, 0, 56, 45
1, 251484, Control_c, 0, 64, 64
1, 251499, Control_c, 0, 64, 65
1, 251514, Control_c, 0, 64, 67
1, 251529, Control_c, 0, 64, 69
1, 251543, Control_c, 0, 64, 72
1, 251558, Control_c, 0, 64, 76
1, 251573, Control_c, 0, 64, 80
1, 251588, Note_on_c, 0, 74, 36
1, 251588, Control_c, 0, 64, 87
1, 251593, Note_on_c, 0, 46, 30
1, 251596, Note_on_c, 0, 80, 43
1, 251603, Control_c, 0, 64, 95
1, 251613, Note_on_c, 0, 41, 31
1, 251617, Control_c, 0, 64, 109
1, 251632, Control_c, 0, 64, 127
1, 251660, Note_off_c, 0, 83, 25
1, 251666, Note_off_c, 0, 76, 31
1, 251686, Note_off_c, 0, 50, 35
1, 251817, Note_off_c, 0, 80, 45
1, 251825, Note_off_c, 0, 74, 30
1, 251862, Note_off_c, 0, 41, 27
1, 251908, Note_on_c, 0, 56, 25
1, 251916, Note_off_c, 0, 46, 35
1, 251920, Note_on_c, 0, 50, 26
1, 252047, Note_off_c, 0, 56, 40
1, 252199, Note_on_c, 0, 46, 40
1, 252204, Note_on_c, 0, 41, 36
1, 252289, Note_off_c, 0, 50, 37
1, 252527, Note_on_c, 0, 50, 31
1, 252527, Note_on_c, 0, 76, 43
1, 252528, Note_on_c, 0, 56, 37
1, 252530, Control_c, 0, 64, 107
1, 252542, Note_on_c, 0, 83, 44
1, 252545, Control_c, 0, 64, 96
1, 252559, Control_c, 0, 64, 87
1, 252574, Control_c, 0, 64, 77
1, 252589, Control_c, 0, 64, 70
1, 252603, Control_c, 0, 64, 64
1, 252609, Note_off_c, 0, 46, 39
1, 252618, Control_c, 0, 64, 59
1, 252634, Control_c, 0, 64, 59
1, 252649, Control_c, 0, 64, 62
1, 252664, Control_c, 0, 64, 64
1, 252679, Control_c, 0, 64, 67
1, 252684, Note_off_c, 0, 41, 39
1, 252694, Control_c, 0, 64, 71
1, 252698, Note_off_c, 0, 56, 43
1, 252708, Control_c, 0, 64, 76
1, 252723, Control_c, 0, 64, 83
1, 252738, Control_c, 0, 64, 92
1, 252753, Control_c, 0, 64, 107
1, 252768, Control_c, 0, 64, 127
1, 252880, Note_on_c, 0, 41, 34
1, 252881, Note_on_c, 0, 80, 44
1, 252882, Note_on_c, 0, 74, 43
1, 252884, Note_on_c, 0, 46, 32
1, 252899, Control_c, 0, 64, 125
1, 252914, Control_c, 0, 64, 115
1, 252936, Control_c, 0, 64, 106
1, 252951, Control_c, 0, 64, 95
1, 252966, Control_c, 0, 64, 84
1, 252980, Control_c, 0, 64, 75
1, 252995, Control_c, 0, 64, 69
1, 253007, Note_off_c, 0, 76, 37
1, 253010, Control_c, 0, 64, 65
1, 253025, Control_c, 0, 64, 62
1, 253029, Note_off_c, 0, 83, 35
1, 253039, Control_c, 0, 64, 61
1, 253054, Control_c, 0, 64, 62
1, 253069, Control_c, 0, 64, 62
1, 253084, Control_c, 0, 64, 63
1, 253093, Note_off_c, 0, 50, 39
1, 253099, Control_c, 0, 64, 64
1, 253114, Control_c, 0, 64, 65
1, 253129, Control_c, 0, 64, 67
1, 253144, Control_c, 0, 64, 70
1, 253158, Control_c, 0, 64, 73
1, 253173, Control_c, 0, 64, 78
1, 253188, Control_c, 0, 64, 83
1, 253203, Control_c, 0, 64, 88
1, 253218, Control_c, 0, 64, 93
1, 253232, Control_c, 0, 64, 97
1, 253247, Control_c, 0, 64, 98
1, 253257, Note_on_c, 0, 76, 40
1, 253262, Control_c, 0, 64, 97
1, 253267, Note_on_c, 0, 83, 42
1, 253277, Control_c, 0, 64, 97
1, 253292, Control_c, 0, 64, 96
1, 253306, Control_c, 0, 64, 94
1, 253321, Control_c, 0, 64, 90
1, 253336, Control_c, 0, 64, 84
1, 253341, Note_off_c, 0, 80, 31
1, 253350, Control_c, 0, 64, 78
1, 253365, Control_c, 0, 64, 72
1, 253380, Control_c, 0, 64, 69
1, 253395, Control_c, 0, 64, 66
1, 253410, Control_c, 0, 64, 63
1, 253423, Note_off_c, 0, 74, 29
1, 253426, Control_c, 0, 64, 62
1, 253441, Control_c, 0, 64, 61
1, 253455, Control_c, 0, 64, 62
1, 253470, Control_c, 0, 64, 63
1, 253485, Control_c, 0, 64, 64
1, 253500, Control_c, 0, 64, 65
1, 253515, Control_c, 0, 64, 66
1, 253530, Control_c, 0, 64, 69
1, 253545, Control_c, 0, 64, 72
1, 253560, Control_c, 0, 64, 77
1, 253575, Control_c, 0, 64, 82
1, 253590, Control_c, 0, 64, 88
1, 253604, Control_c, 0, 64, 97
1, 253619, Control_c, 0, 64, 111
1, 253634, Control_c, 0, 64, 127
1, 253849, Control_c, 0, 64, 120
1, 253863, Control_c, 0, 64, 112
1, 253878, Control_c, 0, 64, 109
1, 253891, Note_on_c, 0, 74, 35
1, 253893, Control_c, 0, 64, 108
1, 253895, Note_on_c, 0, 80, 39
1, 253908, Control_c, 0, 64, 104
1, 253923, Control_c, 0, 64, 97
1, 253937, Control_c, 0, 64, 93
1, 253952, Control_c, 0, 64, 91
1, 253967, Control_c, 0, 64, 89
1, 253981, Control_c, 0, 64, 87
1, 253996, Control_c, 0, 64, 84
1, 254011, Control_c, 0, 64, 80
1, 254026, Control_c, 0, 64, 79
1, 254041, Control_c, 0, 64, 78
1, 254056, Control_c, 0, 64, 77
1, 254071, Control_c, 0, 64, 76
1, 254086, Control_c, 0, 64, 74
1, 254101, Control_c, 0, 64, 74
1, 254115, Control_c, 0, 64, 73
1, 254130, Control_c, 0, 64, 72
1, 254145, Control_c, 0, 64, 70
1, 254160, Control_c, 0, 64, 69
1, 254174, Control_c, 0, 64, 68
1, 254189, Control_c, 0, 64, 68
1, 254204, Control_c, 0, 64, 67
1, 254219, Control_c, 0, 64, 66
1, 254235, Control_c, 0, 64, 65
1, 254250, Control_c, 0, 64, 65
1, 254265, Control_c, 0, 64, 64
1, 254273, Note_off_c, 0, 76, 17
1, 254279, Control_c, 0, 64, 64
1, 254294, Control_c, 0, 64, 63
1, 254309, Control_c, 0, 64, 63
1, 254316, Note_off_c, 0, 83, 20
1, 254324, Control_c, 0, 64, 62
1, 254353, Control_c, 0, 64, 62
1, 254383, Control_c, 0, 64, 61
1, 254398, Control_c, 0, 64, 61
1, 254413, Control_c, 0, 64, 60
1, 254434, Control_c, 0, 64, 60
1, 254449, Control_c, 0, 64, 59
1, 254479, Control_c, 0, 64, 59
1, 254494, Control_c, 0, 64, 58
1, 254524, Control_c, 0, 64, 58
1, 254539, Control_c, 0, 64, 57
1, 254553, Control_c, 0, 64, 57
1, 254568, Control_c, 0, 64, 56
1, 254583, Control_c, 0, 64, 56
1, 254598, Control_c, 0, 64, 55
1, 254612, Control_c, 0, 64, 55
1, 254627, Control_c, 0, 64, 54
1, 254657, Control_c, 0, 64, 54
1, 254672, Control_c, 0, 64, 53
1, 254686, Control_c, 0, 64, 53
1, 254701, Control_c, 0, 64, 52
1, 254716, Control_c, 0, 64, 52
1, 254746, Control_c, 0, 64, 51
1, 254760, Control_c, 0, 64, 51
1, 254775, Control_c, 0, 64, 50
1, 254790, Control_c, 0, 64, 50
1, 254804, Control_c, 0, 64, 49
1, 254819, Control_c, 0, 64, 48
1, 254834, Control_c, 0, 64, 47
1, 254849, Control_c, 0, 64, 47
1, 254864, Control_c, 0, 64, 46
1, 254879, Control_c, 0, 64, 46
1, 254894, Control_c, 0, 64, 45
1, 254908, Control_c, 0, 64, 44
1, 254923, Control_c, 0, 64, 44
1, 254938, Control_c, 0, 64, 43
1, 254953, Control_c, 0, 64, 42
1, 254968, Control_c, 0, 64, 41
1, 254983, Control_c, 0, 64, 41
1, 254997, Control_c, 0, 64, 40
1, 255027, Control_c, 0, 64, 40
1, 255042, Control_c, 0, 64, 39
1, 255057, Control_c, 0, 64, 39
1, 255072, Control_c, 0, 64, 38
1, 255087, Control_c, 0, 64, 38
1, 255116, Control_c, 0, 64, 37
1, 255131, Control_c, 0, 64, 37
1, 255161, Control_c, 0, 64, 36
1, 255198, Control_c, 0, 64, 36
1, 255227, Control_c, 0, 64, 35
1, 255242, Control_c, 0, 64, 35
1, 255272, Control_c, 0, 64, 34
1, 255287, Control_c, 0, 64, 34
1, 255289, Note_off_c, 0, 46, 30
1, 255297, Note_off_c, 0, 41, 30
1, 255316, Control_c, 0, 64, 33
1, 255331, Control_c, 0, 64, 33
1, 255346, Control_c, 0, 64, 32
1, 255361, Control_c, 0, 64, 32
1, 255375, Control_c, 0, 64, 31
1, 255420, Control_c, 0, 64, 31
1, 255434, Control_c, 0, 64, 30
1, 255449, Control_c, 0, 64, 30
1, 255464, Control_c, 0, 64, 29
1, 255494, Control_c, 0, 64, 29
1, 255538, Control_c, 0, 64, 28
1, 255582, Control_c, 0, 64, 28
1, 256494, Control_c, 0, 64, 28
1, 256600, Note_on_c, 0, 34, 36
1, 256645, Note_off_c, 0, 34, 50
1, 256755, Note_on_c, 0, 34, 41
1, 256795, Note_off_c, 0, 34, 52
1, 256884, Note_on_c, 0, 34, 55
1, 256918, Note_off_c, 0, 34, 62
1, 256977, Control_c, 0, 64, 28
1, 256992, Control_c, 0, 64, 27
1, 257007, Control_c, 0, 64, 27
1, 257021, Control_c, 0, 64, 26
1, 257022, Note_on_c, 0, 32, 33
1, 257036, Control_c, 0, 64, 25
1, 257051, Control_c, 0, 64, 24
1, 257066, Note_off_c, 0, 32, 46
1, 257066, Control_c, 0, 64, 23
1, 257080, Control_c, 0, 64, 23
1, 257095, Control_c, 0, 64, 22
1, 257110, Control_c, 0, 64, 22
1, 257125, Control_c, 0, 64, 20
1, 257131, Note_on_c, 0, 32, 35
1, 257140, Control_c, 0, 64, 19
1, 257154, Control_c, 0, 64, 16
1, 257169, Control_c, 0, 64, 13
1, 257171, Note_off_c, 0, 32, 53
1, 257184, Control_c, 0, 64, 9
1, 257198, Control_c, 0, 64, 0
1, 257261, Note_on_c, 0, 32, 45
1, 257298, Note_off_c, 0, 32, 51
1, 257386, Note_on_c, 0, 34, 29
1, 257439, Note_off_c, 0, 34, 45
1, 257512, Note_on_c, 0, 34, 35
1, 257555, Note_off_c, 0, 34, 47
1, 257633, Note_on_c, 0, 34, 59
1, 257666, Note_off_c, 0, 34, 63
1, 257750, Note_on_c, 0, 32, 49
1, 257784, Note_off_c, 0, 32, 59
1, 257874, Note_on_c, 0, 32, 40
1, 257912, Note_off_c, 0, 32, 49
1, 257970, Note_on_c, 0, 32, 61
1, 258003, Note_off_c, 0, 32, 64
1, 258089, Note_on_c, 0, 39, 65
1, 258123, Note_off_c, 0, 39, 62
1, 258200, Note_on_c, 0, 37, 53
1, 258249, Note_off_c, 0, 37, 59
1, 258322, Note_on_c, 0, 38, 75
1, 258356, Note_off_c, 0, 38, 64
1, 258430, Note_on_c, 0, 38, 61
1, 258467, Note_off_c, 0, 38, 63
1, 258550, Note_on_c, 0, 36, 54
1, 258585, Note_off_c, 0, 36, 63
1, 258660, Note_on_c, 0, 37, 58
1, 258694, Note_off_c, 0, 37, 62
1, 258779, Note_on_c, 0, 37, 48
1, 258812, Note_off_c, 0, 37, 61
1, 258888, Note_on_c, 0, 35, 43
1, 258930, Note_off_c, 0, 35, 56
1, 259013, Note_on_c, 0, 36, 57
1, 259049, Note_off_c, 0, 36, 63
1, 259140, Note_on_c, 0, 36, 49
1, 259171, Note_off_c, 0, 36, 58
1, 259252, Note_on_c, 0, 34, 46
1, 259296, Note_off_c, 0, 34, 58
1, 259373, Note_on_c, 0, 35, 59
1, 259388, Note_off_c, 0, 80, 61
1, 259393, Note_off_c, 0, 74, 56
1, 259413, Note_off_c, 0, 35, 61
1, 259499, Note_on_c, 0, 35, 50
1, 259535, Note_off_c, 0, 35, 60
1, 259608, Note_on_c, 0, 33, 52
1, 259653, Note_off_c, 0, 33, 60
1, 259747, Note_on_c, 0, 34, 68
1, 259784, Note_off_c, 0, 34, 62
1, 259872, Note_on_c, 0, 34, 53
1, 259911, Note_off_c, 0, 34, 60
1, 260008, Note_on_c, 0, 32, 48
1, 260008, Note_on_c, 0, 44, 53
1, 260042, Note_off_c, 0, 44, 64
1, 260043, Note_off_c, 0, 32, 63
1, 260143, Note_on_c, 0, 45, 63
1, 260150, Note_on_c, 0, 33, 50
1, 260176, Note_off_c, 0, 45, 63
1, 260182, Note_off_c, 0, 33, 54
1, 260277, Note_on_c, 0, 33, 49
1, 260283, Note_on_c, 0, 45, 45
1, 260321, Note_off_c, 0, 33, 59
1, 260328, Note_off_c, 0, 45, 59
1, 260433, Note_on_c, 0, 43, 48
1, 260438, Note_on_c, 0, 31, 44
1, 260465, Note_off_c, 0, 43, 59
1, 260486, Note_off_c, 0, 31, 59
1, 260595, Note_on_c, 0, 32, 44
1, 260596, Note_on_c, 0, 44, 46
1, 260629, Note_off_c, 0, 44, 55
1, 260633, Note_off_c, 0, 32, 50
1, 260767, Note_on_c, 0, 32, 35
1, 260778, Note_on_c, 0, 44, 28
1, 260806, Note_off_c, 0, 32, 53
1, 260815, Note_off_c, 0, 44, 49
1, 260955, Note_on_c, 0, 42, 38
1, 260956, Note_on_c, 0, 30, 40
1, 260988, Note_off_c, 0, 42, 51
1, 260992, Note_off_c, 0, 30, 53
1, 261185, Note_on_c, 0, 31, 41
1, 261194, Note_on_c, 0, 43, 28
1, 261225, Note_off_c, 0, 31, 50
1, 261233, Note_off_c, 0, 43, 50
1, 261478, Note_on_c, 0, 31, 35
1, 261485, Note_on_c, 0, 43, 31
1, 261519, Note_off_c, 0, 43, 54
1, 261522, Note_off_c, 0, 31, 51
1, 261889, Note_on_c, 0, 41, 40
1, 261906, Note_on_c, 0, 29, 28
1, 261940, Note_off_c, 0, 41, 50
1, 261958, Note_off_c, 0, 29, 46
1, 262805, Control_c, 0, 64, 13
1, 262820, Control_c, 0, 64, 17
1, 262835, Control_c, 0, 64, 21
1, 262849, Control_c, 0, 64, 25
1, 262864, Control_c, 0, 64, 29
1, 262879, Control_c, 0, 64, 31
1, 262893, Control_c, 0, 64, 34
1, 262908, Control_c, 0, 64, 36
1, 262923, Control_c, 0, 64, 38
1, 262938, Control_c, 0, 64, 40
1, 262953, Control_c, 0, 64, 43
1, 262967, Control_c, 0, 64, 45
1, 262982, Control_c, 0, 64, 47
1, 262997, Control_c, 0, 64, 48
1, 263013, Control_c, 0, 64, 50
1, 263028, Control_c, 0, 64, 52
1, 263043, Control_c, 0, 64, 53
1, 263058, Control_c, 0, 64, 55
1, 263072, Control_c, 0, 64, 56
1, 263087, Control_c, 0, 64, 57
1, 263102, Control_c, 0, 64, 58
1, 263116, Control_c, 0, 64, 59
1, 263131, Control_c, 0, 64, 60
1, 263146, Control_c, 0, 64, 61
1, 263161, Control_c, 0, 64, 62
1, 263176, Control_c, 0, 64, 63
1, 263190, Control_c, 0, 64, 64
1, 263205, Control_c, 0, 64, 65
1, 263220, Control_c, 0, 64, 66
1, 263235, Control_c, 0, 64, 69
1, 263250, Control_c, 0, 64, 74
1, 263264, Control_c, 0, 64, 82
1, 263279, Control_c, 0, 64, 96
1, 263294, Control_c, 0, 64, 127
1, 263808, Note_on_c, 0, 61, 99
1, 263811, Note_on_c, 0, 51, 94
1, 263812, Note_on_c, 0, 64, 93
1, 263813, Note_on_c, 0, 39, 89
1, 263850, Control_c, 0, 64, 98
1, 263865, Control_c, 0, 64, 64
1, 263880, Control_c, 0, 64, 0
1, 263908, Note_off_c, 0, 51, 66
1, 263919, Note_off_c, 0, 64, 62
1, 263922, Note_off_c, 0, 61, 65
1, 263925, Note_off_c, 0, 39, 62
1, 264324, Note_on_c, 0, 60, 101
1, 264326, Note_on_c, 0, 64, 96
1, 264327, Note_on_c, 0, 33, 92
1, 264328, Note_on_c, 0, 21, 94
1, 264396, Note_on_c, 0, 58, 90
1, 264400, Note_on_c, 0, 62, 76
1, 264403, Note_off_c, 0, 60, 62
1, 264462, Note_off_c, 0, 64, 47
1, 264478, Note_on_c, 0, 61, 86
1, 264489, Note_on_c, 0, 57, 90
1, 264519, Note_off_c, 0, 58, 63
1, 264528, Note_off_c, 0, 62, 62
1, 264628, Control_c, 0, 64, 34
1, 264642, Control_c, 0, 64, 49
1, 264657, Control_c, 0, 64, 57
1, 264672, Control_c, 0, 64, 64
1, 264686, Control_c, 0, 64, 71
1, 264701, Control_c, 0, 64, 89
1, 264716, Control_c, 0, 64, 127
1, 264745, Note_off_c, 0, 21, 60
1, 264757, Note_off_c, 0, 57, 60
1, 264757, Note_off_c, 0, 61, 61
1, 264760, Note_off_c, 0, 33, 62
1, 264862, Note_on_c, 0, 61, 98
1, 264864, Note_on_c, 0, 64, 93
1, 264899, Note_off_c, 0, 61, 66
1, 264910, Note_off_c, 0, 64, 65
1, 264947, Control_c, 0, 64, 117
1, 264961, Control_c, 0, 64, 82
1, 264976, Control_c, 0, 64, 66
1, 264991, Control_c, 0, 64, 48
1, 265006, Control_c, 0, 64, 0
1, 265046, Note_on_c, 0, 60, 103
1, 265048, Note_on_c, 0, 39, 92
1, 265049, Note_on_c, 0, 64, 95
1, 265049, Note_on_c, 0, 27, 90
1, 265121, Note_on_c, 0, 62, 82
1, 265123, Note_on_c, 0, 58, 92
1, 265125, Note_off_c, 0, 60, 66
1, 265155, Note_off_c, 0, 27, 64
1, 265160, Note_off_c, 0, 64, 61
1, 265184, Note_off_c, 0, 39, 63
1, 265204, Note_on_c, 0, 61, 93
1, 265212, Note_on_c, 0, 57, 94
1, 265231, Note_off_c, 0, 58, 65
1, 265238, Note_off_c, 0, 62, 63
1, 265267, Note_off_c, 0, 57, 64
1, 265284, Note_off_c, 0, 61, 62
1, 265400, Note_on_c, 0, 51, 102
1, 265402, Note_on_c, 0, 61, 104
1, 265402, Note_on_c, 0, 64, 101
1, 265406, Note_on_c, 0, 39, 89
1, 265462, Note_off_c, 0, 51, 65
1, 265479, Note_off_c, 0, 64, 62
1, 265482, Note_off_c, 0, 61, 62
1, 265503, Note_off_c, 0, 39, 64
1, 265826, Note_on_c, 0, 33, 92
1, 265827, Note_on_c, 0, 21, 93
1, 265830, Note_on_c, 0, 60, 101
1, 265833, Note_on_c, 0, 64, 102
1, 265905, Note_on_c, 0, 58, 95
1, 265908, Note_on_c, 0, 62, 78
1, 265920, Note_off_c, 0, 60, 64
1, 265957, Note_off_c, 0, 64, 56
1, 265988, Note_on_c, 0, 61, 87
1, 265997, Note_on_c, 0, 57, 94
1, 266022, Note_off_c, 0, 58, 61
1, 266034, Note_off_c, 0, 62, 61
1, 266139, Control_c, 0, 64, 15
1, 266154, Control_c, 0, 64, 54
1, 266169, Control_c, 0, 64, 62
1, 266183, Control_c, 0, 64, 67
1, 266198, Control_c, 0, 64, 75
1, 266214, Control_c, 0, 64, 91
1, 266224, Note_off_c, 0, 61, 60
1, 266225, Note_off_c, 0, 57, 59
1, 266229, Control_c, 0, 64, 122
1, 266231, Note_off_c, 0, 21, 62
1, 266244, Control_c, 0, 64, 127
1, 266255, Note_off_c, 0, 33, 60
1, 266288, Control_c, 0, 64, 107
1, 266303, Control_c, 0, 64, 82
1, 266318, Control_c, 0, 64, 70
1, 266332, Control_c, 0, 64, 63
1, 266341, Note_on_c, 0, 64, 91
1, 266342, Note_on_c, 0, 61, 92
1, 266347, Control_c, 0, 64, 54
1, 266362, Control_c, 0, 64, 45
1, 266372, Note_off_c, 0, 61, 62
1, 266377, Control_c, 0, 64, 38
1, 266379, Note_off_c, 0, 64, 65
1, 266392, Control_c, 0, 64, 31
1, 266414, Control_c, 0, 64, 26
1, 266429, Control_c, 0, 64, 24
1, 266444, Control_c, 0, 64, 23
1, 266459, Control_c, 0, 64, 23
1, 266516, Note_on_c, 0, 39, 91
1, 266517, Note_on_c, 0, 60, 98
1, 266518, Note_on_c, 0, 64, 94
1, 266519, Note_on_c, 0, 27, 87
1, 266594, Note_off_c, 0, 60, 61
1, 266595, Note_on_c, 0, 58, 89
1, 266599, Note_on_c, 0, 62, 75
1, 266608, Note_off_c, 0, 27, 63
1, 266630, Note_off_c, 0, 64, 62
1, 266640, Note_off_c, 0, 39, 61
1, 266675, Note_on_c, 0, 61, 88
1, 266677, Note_on_c, 0, 57, 93
1, 266704, Note_off_c, 0, 58, 63
1, 266708, Note_off_c, 0, 62, 64
1, 266710, Control_c, 0, 64, 22
1, 266726, Note_off_c, 0, 57, 65
1, 266736, Note_off_c, 0, 61, 62
1, 266853, Note_on_c, 0, 51, 92
1, 266857, Note_on_c, 0, 39, 84
1, 266859, Note_on_c, 0, 64, 90
1, 266862, Note_on_c, 0, 61, 93
1, 266873, Control_c, 0, 64, 22
1, 266888, Control_c, 0, 64, 21
1, 266899, Note_off_c, 0, 61, 60
1, 266901, Note_off_c, 0, 64, 68
1, 266903, Control_c, 0, 64, 18
1, 266918, Control_c, 0, 64, 13
1, 266918, Note_off_c, 0, 51, 65
1, 266932, Control_c, 0, 64, 0
1, 266990, Note_off_c, 0, 39, 63
1, 267034, Note_on_c, 0, 64, 65
1, 267044, Note_on_c, 0, 60, 65
1, 267101, Note_off_c, 0, 60, 63
1, 267111, Note_on_c, 0, 58, 66
1, 267112, Note_on_c, 0, 62, 61
1, 267160, Note_off_c, 0, 64, 58
1, 267209, Note_on_c, 0, 21, 75
1, 267209, Note_on_c, 0, 33, 73
1, 267211, Note_on_c, 0, 61, 74
1, 267216, Note_on_c, 0, 57, 78
1, 267220, Note_off_c, 0, 58, 62
1, 267243, Note_off_c, 0, 62, 61
1, 267295, Note_off_c, 0, 57, 63
1, 267309, Note_off_c, 0, 61, 63
1, 267311, Control_c, 0, 64, 18
1, 267326, Control_c, 0, 64, 33
1, 267341, Control_c, 0, 64, 37
1, 267355, Note_off_c, 0, 21, 63
1, 267372, Note_off_c, 0, 33, 63
1, 267385, Control_c, 0, 64, 36
1, 267387, Note_on_c, 0, 64, 92
1, 267390, Note_on_c, 0, 61, 93
1, 267400, Control_c, 0, 64, 34
1, 267415, Control_c, 0, 64, 31
1, 267419, Note_off_c, 0, 61, 63
1, 267425, Note_off_c, 0, 64, 66
1, 267429, Control_c, 0, 64, 29
1, 267444, Control_c, 0, 64, 25
1, 267459, Control_c, 0, 64, 22
1, 267474, Control_c, 0, 64, 19
1, 267488, Control_c, 0, 64, 19
1, 267557, Note_on_c, 0, 39, 92
1, 267558, Note_on_c, 0, 27, 91
1, 267561, Note_on_c, 0, 60, 98
1, 267564, Note_on_c, 0, 64, 100
1, 267577, Control_c, 0, 64, 20
1, 267592, Control_c, 0, 64, 21
1, 267603, Note_off_c, 0, 60, 65
1, 267622, Control_c, 0, 64, 22
1, 267636, Note_on_c, 0, 58, 91
1, 267636, Note_on_c, 0, 62, 79
1, 267667, Note_off_c, 0, 27, 63
1, 267679, Note_off_c, 0, 64, 59
1, 267682, Note_off_c, 0, 39, 62
1, 267711, Control_c, 0, 64, 22
1, 267713, Note_on_c, 0, 61, 87
1, 267716, Note_on_c, 0, 57, 93
1, 267734, Note_off_c, 0, 58, 64
1, 267738, Note_off_c, 0, 62, 62
1, 267759, Note_off_c, 0, 57, 66
1, 267763, Note_off_c, 0, 61, 65
1, 267913, Note_on_c, 0, 51, 99
1, 267916, Note_on_c, 0, 60, 102
1, 267918, Note_on_c, 0, 39, 88
1, 267919, Note_on_c, 0, 64, 94
1, 267964, Note_on_c, 0, 62, 7
1, 267965, Note_off_c, 0, 62, 127
1, 267971, Control_c, 0, 64, 23
1, 267986, Control_c, 0, 64, 22
1, 267987, Note_on_c, 0, 58, 95
1, 268001, Control_c, 0, 64, 23
1, 268002, Note_off_c, 0, 60, 60
1, 268004, Poly_aftertouch_c, 0, 62, 127
1, 268015, Note_off_c, 0, 39, 66
1, 268015, Control_c, 0, 64, 22
1, 268016, Note_on_c, 0, 59, 79
1, 268021, Note_off_c, 0, 51, 62
1, 268030, Control_c, 0, 64, 23
1, 268039, Note_off_c, 0, 64, 59
1, 268067, Note_on_c, 0, 61, 88
1, 268075, Note_on_c, 0, 57, 91
1, 268083, Note_off_c, 0, 58, 61
1, 268083, Note_off_c, 0, 59, 63
1, 268096, Poly_aftertouch_c, 0, 62, 0
1, 268122, Note_off_c, 0, 61, 65
1, 268128, Note_off_c, 0, 57, 66
1, 268268, Note_on_c, 0, 51, 84
1, 268271, Note_on_c, 0, 55, 89
1, 268273, Note_on_c, 0, 46, 78
1, 268273, Note_on_c, 0, 64, 96
1, 268275, Note_on_c, 0, 52, 99
1, 268282, Control_c, 0, 64, 24
1, 268297, Control_c, 0, 64, 30
1, 268311, Control_c, 0, 64, 46
1, 268326, Control_c, 0, 64, 58
1, 268341, Control_c, 0, 64, 66
1, 268356, Control_c, 0, 64, 84
1, 268371, Control_c, 0, 64, 127
1, 268382, Note_off_c, 0, 55, 58
1, 268417, Note_off_c, 0, 51, 62
1, 268450, Note_off_c, 0, 46, 62
1, 268467, Note_off_c, 0, 52, 60
1, 268552, Note_on_c, 0, 54, 97
1, 268567, Note_off_c, 0, 64, 60
1, 268596, Note_off_c, 0, 54, 67
1, 268624, Control_c, 0, 64, 115
1, 268635, Note_on_c, 0, 34, 86
1, 268639, Control_c, 0, 64, 72
1, 268641, Note_on_c, 0, 55, 105
1, 268641, Note_on_c, 0, 64, 105
1, 268662, Control_c, 0, 64, 39
1, 268677, Control_c, 0, 64, 0
1, 268735, Control_c, 0, 64, 24
1, 268750, Control_c, 0, 64, 62
1, 268765, Control_c, 0, 64, 77
1, 268780, Control_c, 0, 64, 127
1, 268797, Note_off_c, 0, 34, 62
1, 268799, Note_off_c, 0, 55, 57
1, 268806, Note_off_c, 0, 64, 60
1, 269083, Note_on_c, 0, 69, 105
1, 269084, Note_on_c, 0, 54, 81
1, 269085, Note_on_c, 0, 57, 95
1, 269087, Note_on_c, 0, 49, 71
1, 269094, Note_on_c, 0, 45, 60
1, 269106, Control_c, 0, 64, 103
1, 269121, Control_c, 0, 64, 80
1, 269135, Control_c, 0, 64, 66
1, 269150, Control_c, 0, 64, 49
1, 269165, Control_c, 0, 64, 0
1, 269372, Control_c, 0, 64, 19
1, 269387, Control_c, 0, 64, 48
1, 269411, Control_c, 0, 64, 60
1, 269425, Control_c, 0, 64, 68
1, 269440, Control_c, 0, 64, 86
1, 269455, Control_c, 0, 64, 127
1, 269490, Note_off_c, 0, 57, 57
1, 269522, Note_off_c, 0, 49, 58
1, 269539, Note_off_c, 0, 54, 48
1, 269543, Note_off_c, 0, 69, 58
1, 269697, Note_on_c, 0, 65, 87
1, 269700, Note_on_c, 0, 73, 95
1, 269701, Note_on_c, 0, 49, 67
1, 269721, Note_off_c, 0, 45, 59
1, 269795, Control_c, 0, 64, 83
1, 269810, Control_c, 0, 64, 66
1, 269825, Control_c, 0, 64, 41
1, 269840, Control_c, 0, 64, 0
1, 269886, Note_on_c, 0, 68, 82
1, 269888, Note_on_c, 0, 60, 74
1, 269892, Note_on_c, 0, 44, 65
1, 269896, Note_off_c, 0, 73, 63
1, 269897, Note_off_c, 0, 65, 62
1, 269899, Note_off_c, 0, 49, 63
1, 269918, Note_off_c, 0, 60, 66
1, 269923, Note_off_c, 0, 68, 61
1, 270059, Note_on_c, 0, 68, 90
1, 270060, Note_on_c, 0, 43, 65
1, 270063, Note_on_c, 0, 59, 78
1, 270063, Note_off_c, 0, 44, 61
1, 270084, Note_off_c, 0, 68, 63
1, 270087, Note_off_c, 0, 59, 69
1, 270239, Note_on_c, 0, 68, 84
1, 270244, Note_on_c, 0, 60, 73
1, 270245, Note_on_c, 0, 44, 62
1, 270259, Note_off_c, 0, 68, 71
1, 270265, Note_off_c, 0, 43, 55
1, 270269, Note_off_c, 0, 60, 69
1, 270412, Note_off_c, 0, 44, 57
1, 270419, Note_on_c, 0, 73, 91
1, 270423, Note_on_c, 0, 64, 75
1, 270425, Note_on_c, 0, 49, 58
1, 270567, Note_off_c, 0, 73, 63
1, 270596, Note_off_c, 0, 49, 63
1, 270603, Note_on_c, 0, 59, 68
1, 270603, Note_on_c, 0, 68, 66
1, 270605, Note_off_c, 0, 64, 61
1, 270611, Note_on_c, 0, 43, 56
1, 270631, Note_off_c, 0, 68, 65
1, 270632, Note_off_c, 0, 59, 66
1, 270780, Note_on_c, 0, 68, 93
1, 270785, Note_on_c, 0, 58, 83
1, 270788, Note_on_c, 0, 42, 72
1, 270797, Note_off_c, 0, 43, 59
1, 270902, Note_off_c, 0, 58, 62
1, 270921, Control_c, 0, 64, 26
1, 270936, Control_c, 0, 64, 54
1, 270951, Control_c, 0, 64, 66
1, 270952, Note_on_c, 0, 43, 75
1, 270961, Note_on_c, 0, 59, 94
1, 270966, Control_c, 0, 64, 99
1, 270967, Note_off_c, 0, 42, 60
1, 270980, Control_c, 0, 64, 127
1, 270984, Note_off_c, 0, 43, 67
1, 271027, Note_off_c, 0, 59, 61
1, 271084, Note_off_c, 0, 68, 60
1, 271128, Note_on_c, 0, 48, 105
1, 271134, Note_on_c, 0, 72, 103
1, 271139, Note_on_c, 0, 63, 91
1, 271145, Control_c, 0, 64, 80
1, 271159, Control_c, 0, 64, 59
1, 271174, Control_c, 0, 64, 0
1, 271218, Control_c, 0, 64, 41
1, 271225, Note_off_c, 0, 72, 62
1, 271233, Control_c, 0, 64, 63
1, 271248, Control_c, 0, 64, 74
1, 271259, Note_off_c, 0, 48, 66
1, 271263, Control_c, 0, 64, 105
1, 271274, Note_off_c, 0, 63, 61
1, 271277, Control_c, 0, 64, 127
1, 271355, Note_on_c, 0, 55, 92
1, 271358, Note_on_c, 0, 46, 83
1, 271358, Note_on_c, 0, 52, 95
1, 271360, Note_on_c, 0, 64, 101
1, 271362, Note_on_c, 0, 51, 81
1, 271366, Control_c, 0, 64, 108
1, 271381, Control_c, 0, 64, 78
1, 271396, Control_c, 0, 64, 63
1, 271411, Control_c, 0, 64, 32
1, 271426, Control_c, 0, 64, 0
1, 271485, Control_c, 0, 64, 21
1, 271500, Control_c, 0, 64, 50
1, 271515, Control_c, 0, 64, 63
1, 271521, Note_off_c, 0, 55, 58
1, 271529, Control_c, 0, 64, 74
1, 271530, Note_off_c, 0, 51, 63
1, 271531, Note_off_c, 0, 46, 60
1, 271544, Note_off_c, 0, 52, 60
1, 271544, Control_c, 0, 64, 127
1, 271546, Note_off_c, 0, 64, 61
1, 271744, Control_c, 0, 64, 87
1, 271759, Control_c, 0, 64, 67
1, 271765, Note_on_c, 0, 55, 88
1, 271765, Note_on_c, 0, 46, 80
1, 271765, Note_on_c, 0, 64, 103
1, 271768, Note_on_c, 0, 52, 92
1, 271769, Note_on_c, 0, 51, 78
1, 271774, Control_c, 0, 64, 44
1, 271789, Control_c, 0, 64, 0
1, 271804, Control_c, 0, 64, 23
1, 271819, Control_c, 0, 64, 51
1, 271834, Note_off_c, 0, 55, 60
1, 271834, Control_c, 0, 64, 63
1, 271837, Note_off_c, 0, 51, 63
1, 271846, Note_off_c, 0, 46, 63
1, 271849, Control_c, 0, 64, 73
1, 271864, Control_c, 0, 64, 127
1, 271874, Note_off_c, 0, 52, 60
1, 271919, Note_on_c, 0, 51, 104
1, 271959, Note_off_c, 0, 51, 68
1, 272022, Note_on_c, 0, 51, 112
1, 272143, Note_off_c, 0, 64, 61
1, 272172, Note_off_c, 0, 51, 63
1, 272174, Control_c, 0, 64, 100
1, 272189, Control_c, 0, 64, 79
1, 272191, Note_on_c, 0, 54, 101
1, 272192, Note_on_c, 0, 45, 82
1, 272195, Note_on_c, 0, 57, 100
1, 272195, Note_on_c, 0, 69, 105
1, 272198, Note_on_c, 0, 49, 80
1, 272204, Control_c, 0, 64, 65
1, 272219, Control_c, 0, 64, 39
1, 272233, Control_c, 0, 64, 0
1, 272479, Control_c, 0, 64, 41
1, 272494, Control_c, 0, 64, 59
1, 272499, Note_off_c, 0, 54, 61
1, 272508, Control_c, 0, 64, 67
1, 272523, Control_c, 0, 64, 89
1, 272538, Control_c, 0, 64, 127
1, 272541, Note_off_c, 0, 69, 58
1, 272579, Note_off_c, 0, 49, 62
1, 272589, Note_off_c, 0, 45, 58
1, 272624, Note_off_c, 0, 57, 64
1, 272758, Note_on_c, 0, 37, 84
1, 272858, Note_off_c, 0, 37, 58
1, 272925, Note_on_c, 0, 37, 93
1, 272928, Note_on_c, 0, 42, 100
1, 272954, Control_c, 0, 64, 86
1, 272968, Note_off_c, 0, 37, 64
1, 272968, Control_c, 0, 64, 60
1, 272971, Note_off_c, 0, 42, 62
1, 272983, Control_c, 0, 64, 0
1, 273014, Note_on_c, 0, 45, 79
1, 273063, Note_off_c, 0, 45, 57
1, 273155, Note_on_c, 0, 50, 44
1, 273172, Note_on_c, 0, 49, 3
1, 273173, Note_off_c, 0, 49, 127
1, 273181, Note_off_c, 0, 50, 57
1, 273202, Note_on_c, 0, 54, 80
1, 273208, Note_on_c, 0, 45, 81
1, 273231, Note_off_c, 0, 54, 70
1, 273253, Note_off_c, 0, 45, 62
1, 273284, Note_on_c, 0, 50, 83
1, 273286, Note_on_c, 0, 59, 93
1, 273320, Note_off_c, 0, 50, 65
1, 273340, Note_off_c, 0, 59, 62
1, 273372, Note_on_c, 0, 62, 86
1, 273447, Note_on_c, 0, 67, 84
1, 273453, Note_off_c, 0, 62, 64
1, 273516, Note_on_c, 0, 55, 93
1, 273516, Note_on_c, 0, 71, 84
1, 273518, Note_off_c, 0, 67, 68
1, 273536, Note_off_c, 0, 71, 72
1, 273545, Note_off_c, 0, 55, 65
1, 273590, Note_on_c, 0, 62, 106
1, 273592, Note_on_c, 0, 78, 111
1, 273599, Control_c, 0, 64, 94
1, 273614, Control_c, 0, 64, 127
1, 273617, Note_off_c, 0, 62, 65
1, 273639, Note_off_c, 0, 78, 66
1, 273664, Note_on_c, 0, 82, 99
1, 273678, Note_on_c, 0, 81, 96
1, 273688, Control_c, 0, 64, 93
1, 273703, Control_c, 0, 64, 70
1, 273718, Control_c, 0, 64, 49
1, 273732, Control_c, 0, 64, 0
1, 273748, Note_on_c, 0, 85, 93
1, 273754, Note_off_c, 0, 82, 58
1, 273756, Note_off_c, 0, 81, 64
1, 273807, Note_on_c, 0, 90, 91
1, 273813, Note_off_c, 0, 85, 68
1, 273822, Note_on_c, 0, 79, 100
1, 273847, Note_on_c, 0, 78, 43
1, 273848, Note_off_c, 0, 78, 127
1, 273848, Note_off_c, 0, 90, 64
1, 273855, Note_off_c, 0, 79, 64
1, 273899, Note_on_c, 0, 83, 103
1, 273902, Control_c, 0, 64, 73
1, 273906, Note_on_c, 0, 77, 91
1, 273906, Note_on_c, 0, 76, 82
1, 273909, Note_on_c, 0, 91, 121
1, 273917, Control_c, 0, 64, 127
1, 273927, Note_off_c, 0, 83, 71
1, 273927, Note_off_c, 0, 76, 71
1, 273930, Note_off_c, 0, 77, 67
1, 273951, Note_on_c, 0, 98, 40
1, 273952, Note_off_c, 0, 98, 127
1, 273960, Note_off_c, 0, 91, 66
1, 273987, Note_on_c, 0, 95, 108
1, 274057, Note_on_c, 0, 98, 98
1, 274079, Control_c, 0, 64, 88
1, 274085, Note_off_c, 0, 95, 66
1, 274094, Control_c, 0, 64, 67
1, 274109, Control_c, 0, 64, 28
1, 274111, Note_on_c, 0, 101, 99
1, 274123, Control_c, 0, 64, 0
1, 274150, Note_off_c, 0, 98, 66
1, 274174, Note_off_c, 0, 101, 65
1, 274230, Note_on_c, 0, 33, 109
1, 274232, Note_on_c, 0, 21, 107
1, 274234, Note_on_c, 0, 105, 126
1, 274243, Control_c, 0, 64, 44
1, 274257, Note_off_c, 0, 21, 70
1, 274258, Control_c, 0, 64, 127
1, 274259, Note_off_c, 0, 33, 64
1, 274268, Note_off_c, 0, 105, 69
1, 274481, Control_c, 0, 64, 109
1, 274494, Control_c, 0, 64, 71
1, 274509, Control_c, 0, 64, 43
1, 274524, Control_c, 0, 64, 0
1, 274703, Note_on_c, 0, 63, 107
1, 274704, Note_on_c, 0, 51, 101
1, 274708, Note_on_c, 0, 72, 106
1, 274711, Note_on_c, 0, 76, 112
1, 274739, Note_on_c, 0, 54, 41
1, 274740, Note_off_c, 0, 54, 127
1, 274781, Note_on_c, 0, 74, 84
1, 274782, Note_on_c, 0, 70, 93
1, 274797, Note_off_c, 0, 72, 61
1, 274855, Note_off_c, 0, 76, 53
1, 274860, Note_on_c, 0, 73, 93
1, 274862, Note_on_c, 0, 69, 69
1, 274886, Note_off_c, 0, 70, 62
1, 274902, Note_off_c, 0, 74, 62
1, 274987, Note_off_c, 0, 63, 58
1, 275021, Control_c, 0, 64, 67
1, 275036, Control_c, 0, 64, 99
1, 275050, Control_c, 0, 64, 127
1, 275081, Note_off_c, 0, 69, 64
1, 275089, Note_off_c, 0, 73, 64
1, 275098, Note_off_c, 0, 51, 62
1, 275208, Note_on_c, 0, 74, 104
1, 275214, Control_c, 0, 64, 88
1, 275220, Note_on_c, 0, 73, 80
1, 275220, Note_on_c, 0, 76, 66
1, 275221, Note_off_c, 0, 76, 127
1, 275224, Note_on_c, 0, 72, 72
1, 275229, Control_c, 0, 64, 62
1, 275232, Note_off_c, 0, 74, 68
1, 275236, Note_off_c, 0, 73, 67
1, 275240, Note_off_c, 0, 72, 66
1, 275243, Control_c, 0, 64, 0
1, 275381, Note_on_c, 0, 51, 102
1, 275383, Note_on_c, 0, 39, 99
1, 275402, Note_on_c, 0, 72, 105
1, 275404, Note_on_c, 0, 76, 109
1, 275429, Control_c, 0, 64, 78
1, 275435, Note_off_c, 0, 51, 63
1, 275443, Control_c, 0, 64, 127
1, 275453, Note_off_c, 0, 72, 0
1, 275465, Note_off_c, 0, 39, 62
1, 275477, Note_on_c, 0, 70, 89
1, 275477, Poly_aftertouch_c, 0, 72, 0
1, 275481, Note_on_c, 0, 74, 81
1, 275483, Poly_aftertouch_c, 0, 38, 127
1, 275515, Note_off_c, 0, 76, 60
1, 275522, Poly_aftertouch_c, 0, 38, 0
1, 275542, Note_on_c, 0, 69, 39
1, 275542, Note_on_c, 0, 73, 49
1, 275547, Control_c, 0, 64, 95
1, 275562, Control_c, 0, 64, 65
1, 275570, Note_off_c, 0, 70, 63
1, 275576, Control_c, 0, 64, 0
1, 275578, Note_off_c, 0, 74, 63
1, 275605, Note_off_c, 0, 69, 64
1, 275614, Note_off_c, 0, 73, 65
1, 275718, Note_on_c, 0, 45, 100
1, 275721, Note_on_c, 0, 33, 96
1, 275723, Note_on_c, 0, 73, 119
1, 275725, Note_on_c, 0, 76, 115
1, 275749, Note_off_c, 0, 33, 69
1, 275754, Control_c, 0, 64, 43
1, 275760, Note_off_c, 0, 76, 66
1, 275761, Note_off_c, 0, 73, 67
1, 275768, Note_off_c, 0, 45, 66
1, 275769, Control_c, 0, 64, 127
1, 275888, Control_c, 0, 64, 80
1, 275903, Control_c, 0, 64, 61
1, 275918, Control_c, 0, 64, 0
1, 276132, Note_on_c, 0, 63, 106
1, 276141, Note_on_c, 0, 51, 93
1, 276141, Note_on_c, 0, 72, 105
1, 276141, Note_on_c, 0, 76, 109
1, 276211, Note_on_c, 0, 70, 92
1, 276218, Note_on_c, 0, 74, 80
1, 276230, Note_off_c, 0, 72, 63
1, 276255, Note_off_c, 0, 76, 61
1, 276293, Note_on_c, 0, 73, 89
1, 276319, Note_off_c, 0, 70, 62
1, 276323, Poly_aftertouch_c, 0, 69, 127
1, 276334, Note_off_c, 0, 74, 30
1, 276442, Note_off_c, 0, 63, 61
1, 276444, Control_c, 0, 64, 57
1, 276459, Control_c, 0, 64, 65
1, 276473, Control_c, 0, 64, 73
1, 276488, Control_c, 0, 64, 99
1, 276499, Note_off_c, 0, 73, 64
1, 276499, Poly_aftertouch_c, 0, 69, 0
1, 276503, Control_c, 0, 64, 127
1, 276514, Note_off_c, 0, 51, 61
1, 276608, Control_c, 0, 64, 82
1, 276619, Note_on_c, 0, 76, 101
1, 276621, Note_on_c, 0, 73, 97
1, 276622, Control_c, 0, 64, 62
1, 276637, Control_c, 0, 64, 0
1, 276645, Note_off_c, 0, 73, 67
1, 276650, Note_off_c, 0, 76, 67
1, 276791, Note_on_c, 0, 51, 102
1, 276793, Note_on_c, 0, 39, 93
1, 276797, Note_on_c, 0, 72, 107
1, 276797, Note_on_c, 0, 76, 106
1, 276815, Control_c, 0, 64, 70
1, 276829, Note_off_c, 0, 51, 66
1, 276830, Control_c, 0, 64, 127
1, 276836, Note_off_c, 0, 72, 67
1, 276851, Note_off_c, 0, 39, 61
1, 276869, Note_on_c, 0, 74, 84
1, 276869, Note_on_c, 0, 70, 100
1, 276907, Note_off_c, 0, 76, 62
1, 276941, Control_c, 0, 64, 76
1, 276949, Note_on_c, 0, 73, 98
1, 276953, Note_on_c, 0, 69, 97
1, 276956, Control_c, 0, 64, 48
1, 276970, Note_off_c, 0, 70, 64
1, 276970, Control_c, 0, 64, 0
1, 276975, Note_off_c, 0, 74, 61
1, 277000, Note_off_c, 0, 69, 66
1, 277003, Note_off_c, 0, 73, 67
1, 277129, Note_on_c, 0, 45, 98
1, 277130, Note_on_c, 0, 73, 109
1, 277131, Note_on_c, 0, 76, 108
1, 277131, Note_on_c, 0, 33, 92
1, 277148, Control_c, 0, 64, 21
1, 277158, Note_off_c, 0, 73, 69
1, 277158, Note_off_c, 0, 76, 68
1, 277162, Note_on_c, 0, 74, 34
1, 277163, Note_off_c, 0, 74, 127
1, 277163, Control_c, 0, 64, 85
1, 277175, Note_on_c, 0, 72, 17
1, 277176, Note_off_c, 0, 72, 127
1, 277178, Control_c, 0, 64, 127
1, 277208, Control_c, 0, 64, 78
1, 277209, Note_off_c, 0, 33, 54
1, 277222, Control_c, 0, 64, 64
1, 277237, Control_c, 0, 64, 42
1, 277252, Control_c, 0, 64, 0
1, 277254, Note_off_c, 0, 45, 64
1, 277336, Note_on_c, 0, 72, 73
1, 277341, Note_on_c, 0, 76, 74
1, 277386, Note_off_c, 0, 72, 59
1, 277396, Note_on_c, 0, 70, 77
1, 277399, Note_on_c, 0, 74, 68
1, 277434, Note_off_c, 0, 76, 62
1, 277474, Note_on_c, 0, 63, 92
1, 277476, Note_on_c, 0, 51, 93
1, 277482, Note_on_c, 0, 73, 94
1, 277485, Note_on_c, 0, 69, 92
1, 277501, Note_off_c, 0, 70, 63
1, 277505, Control_c, 0, 64, 57
1, 277519, Control_c, 0, 64, 104
1, 277520, Note_off_c, 0, 74, 63
1, 277529, Note_off_c, 0, 63, 64
1, 277534, Control_c, 0, 64, 127
1, 277557, Note_off_c, 0, 69, 61
1, 277560, Note_off_c, 0, 73, 64
1, 277569, Note_off_c, 0, 51, 65
1, 277623, Control_c, 0, 64, 85
1, 277645, Control_c, 0, 64, 63
1, 277647, Note_on_c, 0, 76, 101
1, 277651, Note_on_c, 0, 73, 101
1, 277660, Control_c, 0, 64, 0
1, 277680, Note_off_c, 0, 73, 62
1, 277681, Note_off_c, 0, 76, 69
1, 277814, Note_on_c, 0, 51, 106
1, 277817, Note_on_c, 0, 39, 96
1, 277821, Note_on_c, 0, 76, 108
1, 277823, Note_on_c, 0, 72, 105
1, 277838, Control_c, 0, 64, 22
1, 277852, Control_c, 0, 64, 127
1, 277862, Note_off_c, 0, 72, 65
1, 277865, Note_off_c, 0, 39, 63
1, 277871, Note_off_c, 0, 51, 61
1, 277892, Note_on_c, 0, 70, 94
1, 277894, Note_on_c, 0, 74, 80
1, 277925, Note_off_c, 0, 76, 60
1, 277957, Control_c, 0, 64, 86
1, 277965, Note_on_c, 0, 69, 97
1, 277966, Note_on_c, 0, 73, 98
1, 277970, Poly_aftertouch_c, 0, 72, 0
1, 277971, Control_c, 0, 64, 64
1, 277986, Control_c, 0, 64, 0
1, 277987, Note_off_c, 0, 70, 65
1, 277990, Note_off_c, 0, 74, 62
1, 278013, Note_off_c, 0, 69, 65
1, 278016, Note_off_c, 0, 73, 67
1, 278146, Note_on_c, 0, 72, 101
1, 278147, Note_on_c, 0, 63, 102
1, 278147, Note_on_c, 0, 76, 111
1, 278148, Note_on_c, 0, 51, 98
1, 278178, Control_c, 0, 64, 53
1, 278189, Note_off_c, 0, 63, 64
1, 278194, Control_c, 0, 64, 127
1, 278213, Note_on_c, 0, 74, 82
1, 278213, Note_on_c, 0, 70, 96
1, 278220, Note_off_c, 0, 72, 59
1, 278240, Note_off_c, 0, 51, 61
1, 278255, Note_off_c, 0, 76, 61
1, 278273, Note_off_c, 0, 74, 60
1, 278297, Note_on_c, 0, 73, 91
1, 278298, Control_c, 0, 64, 80
1, 278304, Note_on_c, 0, 69, 96
1, 278313, Control_c, 0, 64, 63
1, 278314, Note_off_c, 0, 70, 63
1, 278328, Control_c, 0, 64, 24
1, 278340, Note_off_c, 0, 73, 67
1, 278342, Control_c, 0, 64, 0
1, 278353, Note_off_c, 0, 69, 66
1, 278513, Note_on_c, 0, 51, 85
1, 278513, Note_on_c, 0, 64, 103
1, 278514, Note_on_c, 0, 55, 92
1, 278514, Note_on_c, 0, 46, 82
1, 278515, Note_on_c, 0, 52, 101
1, 278542, Control_c, 0, 64, 48
1, 278557, Control_c, 0, 64, 81
1, 278572, Control_c, 0, 64, 127
1, 278635, Note_off_c, 0, 55, 58
1, 278657, Note_off_c, 0, 51, 63
1, 278690, Note_off_c, 0, 46, 62
1, 278705, Note_off_c, 0, 52, 61
1, 278785, Note_on_c, 0, 54, 99
1, 278797, Note_off_c, 0, 64, 57
1, 278828, Note_off_c, 0, 54, 67
1, 278860, Note_on_c, 0, 34, 88
1, 278867, Note_on_c, 0, 55, 107
1, 278868, Control_c, 0, 64, 98
1, 278869, Note_on_c, 0, 64, 100
1, 278883, Control_c, 0, 64, 63
1, 278898, Control_c, 0, 64, 0
1, 278972, Control_c, 0, 64, 52
1, 278988, Control_c, 0, 64, 73
1, 279003, Control_c, 0, 64, 127
1, 279021, Note_off_c, 0, 34, 63
1, 279065, Note_off_c, 0, 55, 55
1, 279089, Note_off_c, 0, 64, 61
1, 279299, Note_on_c, 0, 69, 106
1, 279300, Note_on_c, 0, 54, 88
1, 279301, Note_on_c, 0, 45, 70
1, 279301, Note_on_c, 0, 49, 75
1, 279301, Note_on_c, 0, 57, 99
1, 279336, Control_c, 0, 64, 86
1, 279351, Control_c, 0, 64, 73
1, 279365, Control_c, 0, 64, 65
1, 279380, Control_c, 0, 64, 56
1, 279395, Control_c, 0, 64, 37
1, 279409, Control_c, 0, 64, 0
1, 279587, Control_c, 0, 64, 9
1, 279602, Control_c, 0, 64, 42
1, 279617, Control_c, 0, 64, 57
1, 279632, Control_c, 0, 64, 63
1, 279634, Note_off_c, 0, 54, 60
1, 279647, Control_c, 0, 64, 69
1, 279662, Control_c, 0, 64, 82
1, 279677, Control_c, 0, 64, 127
1, 279710, Note_off_c, 0, 57, 49
1, 279734, Note_off_c, 0, 49, 59
1, 279751, Note_off_c, 0, 69, 55
1, 279752, Note_off_c, 0, 45, 56
1, 280304, Note_on_c, 0, 81, 83
1, 280306, Note_on_c, 0, 33, 45
1, 280311, Note_on_c, 0, 69, 68
1, 280336, Control_c, 0, 64, 115
1, 280351, Control_c, 0, 64, 99
1, 280365, Control_c, 0, 64, 90
1, 280380, Control_c, 0, 64, 84
1, 280395, Control_c, 0, 64, 78
1, 280410, Control_c, 0, 64, 74
1, 280425, Control_c, 0, 64, 71
1, 280440, Control_c, 0, 64, 68
1, 280455, Control_c, 0, 64, 65
1, 280470, Control_c, 0, 64, 62
1, 280485, Control_c, 0, 64, 60
1, 280499, Control_c, 0, 64, 58
1, 280505, Note_on_c, 0, 35, 35
1, 280514, Control_c, 0, 64, 55
1, 280529, Control_c, 0, 64, 51
1, 280544, Control_c, 0, 64, 46
1, 280558, Control_c, 0, 64, 45
1, 280604, Control_c, 0, 64, 46
1, 280619, Control_c, 0, 64, 50
1, 280641, Control_c, 0, 64, 56
1, 280656, Control_c, 0, 64, 61
1, 280668, Note_on_c, 0, 38, 32
1, 280670, Control_c, 0, 64, 64
1, 280685, Control_c, 0, 64, 68
1, 280700, Control_c, 0, 64, 72
1, 280715, Control_c, 0, 64, 81
1, 280730, Control_c, 0, 64, 100
1, 280744, Control_c, 0, 64, 127
1, 280822, Note_on_c, 0, 40, 46
1, 280935, Note_off_c, 0, 38, 36
1, 280941, Note_off_c, 0, 35, 33
1, 280950, Note_off_c, 0, 33, 35
1, 281004, Note_off_c, 0, 40, 59
1, 281013, Note_on_c, 0, 43, 49
1, 281182, Note_on_c, 0, 45, 53
1, 281221, Note_off_c, 0, 43, 38
1, 281360, Note_on_c, 0, 50, 63
1, 281407, Note_off_c, 0, 45, 36
1, 281504, Note_off_c, 0, 81, 55
1, 281509, Note_off_c, 0, 69, 37
1, 281530, Note_on_c, 0, 43, 56
1, 281569, Note_off_c, 0, 50, 57
1, 281698, Note_on_c, 0, 81, 82
1, 281705, Note_on_c, 0, 69, 73
1, 281716, Note_on_c, 0, 50, 52
1, 281760, Control_c, 0, 64, 97
1, 281775, Control_c, 0, 64, 82
1, 281790, Control_c, 0, 64, 73
1, 281804, Control_c, 0, 64, 65
1, 281819, Control_c, 0, 64, 59
1, 281834, Control_c, 0, 64, 54
1, 281849, Control_c, 0, 64, 53
1, 281864, Control_c, 0, 64, 54
1, 281878, Control_c, 0, 64, 56
1, 281881, Note_on_c, 0, 45, 60
1, 281893, Control_c, 0, 64, 60
1, 281908, Control_c, 0, 64, 63
1, 281923, Control_c, 0, 64, 67
1, 281938, Control_c, 0, 64, 75
1, 281952, Control_c, 0, 64, 91
1, 281967, Control_c, 0, 64, 127
1, 281978, Note_off_c, 0, 50, 40
1, 282047, Note_on_c, 0, 47, 77
1, 282099, Note_off_c, 0, 43, 56
1, 282219, Note_on_c, 0, 50, 86
1, 282224, Note_off_c, 0, 45, 52
1, 282288, Note_off_c, 0, 47, 58
1, 282297, Note_off_c, 0, 69, 60
1, 282298, Note_off_c, 0, 81, 63
1, 282389, Note_on_c, 0, 81, 94
1, 282389, Note_on_c, 0, 69, 93
1, 282392, Note_on_c, 0, 52, 81
1, 282419, Note_off_c, 0, 50, 64
1, 282420, Control_c, 0, 64, 102
1, 282434, Control_c, 0, 64, 78
1, 282449, Control_c, 0, 64, 64
1, 282464, Control_c, 0, 64, 52
1, 282479, Control_c, 0, 64, 44
1, 282509, Control_c, 0, 64, 48
1, 282523, Control_c, 0, 64, 56
1, 282538, Control_c, 0, 64, 62
1, 282553, Control_c, 0, 64, 67
1, 282558, Note_on_c, 0, 55, 87
1, 282568, Control_c, 0, 64, 76
1, 282583, Control_c, 0, 64, 104
1, 282597, Note_off_c, 0, 52, 65
1, 282598, Control_c, 0, 64, 127
1, 282723, Note_on_c, 0, 57, 91
1, 282761, Note_off_c, 0, 69, 54
1, 282766, Note_off_c, 0, 55, 62
1, 282794, Note_off_c, 0, 81, 61
1, 282871, Note_on_c, 0, 62, 87
1, 282911, Note_off_c, 0, 57, 60
1, 283102, Note_on_c, 0, 53, 70
1, 283102, Note_on_c, 0, 58, 76
1, 283109, Note_on_c, 0, 81, 91
1, 283112, Note_on_c, 0, 69, 88
1, 283154, Control_c, 0, 64, 112
1, 283169, Control_c, 0, 64, 93
1, 283184, Control_c, 0, 64, 82
1, 283199, Control_c, 0, 64, 73
1, 283209, Note_off_c, 0, 62, 55
1, 283213, Control_c, 0, 64, 67
1, 283228, Control_c, 0, 64, 63
1, 283243, Control_c, 0, 64, 59
1, 283257, Control_c, 0, 64, 58
1, 283287, Control_c, 0, 64, 58
1, 283302, Control_c, 0, 64, 60
1, 283317, Control_c, 0, 64, 62
1, 283318, Note_on_c, 0, 61, 82
1, 283331, Control_c, 0, 64, 65
1, 283346, Control_c, 0, 64, 69
1, 283361, Control_c, 0, 64, 77
1, 283376, Control_c, 0, 64, 90
1, 283391, Control_c, 0, 64, 127
1, 283425, Note_off_c, 0, 53, 58
1, 283476, Note_on_c, 0, 63, 83
1, 283484, Note_off_c, 0, 58, 62
1, 283516, Note_off_c, 0, 69, 53
1, 283530, Note_off_c, 0, 61, 57
1, 283638, Note_on_c, 0, 66, 77
1, 283653, Note_off_c, 0, 63, 62
1, 283796, Note_on_c, 0, 79, 82
1, 283799, Control_c, 0, 64, 108
1, 283802, Note_on_c, 0, 67, 63
1, 283814, Control_c, 0, 64, 96
1, 283816, Note_on_c, 0, 70, 68
1, 283829, Control_c, 0, 64, 88
1, 283835, Note_off_c, 0, 66, 54
1, 283844, Control_c, 0, 64, 81
1, 283859, Control_c, 0, 64, 75
1, 283874, Control_c, 0, 64, 69
1, 283888, Control_c, 0, 64, 64
1, 283903, Control_c, 0, 64, 58
1, 283918, Control_c, 0, 64, 52
1, 283930, Note_off_c, 0, 81, 49
1, 283933, Control_c, 0, 64, 48
1, 283948, Control_c, 0, 64, 47
1, 283981, Note_on_c, 0, 73, 71
1, 283992, Control_c, 0, 64, 47
1, 284006, Control_c, 0, 64, 48
1, 284021, Control_c, 0, 64, 50
1, 284023, Note_off_c, 0, 70, 59
1, 284036, Control_c, 0, 64, 51
1, 284051, Control_c, 0, 64, 53
1, 284066, Control_c, 0, 64, 55
1, 284080, Control_c, 0, 64, 57
1, 284095, Control_c, 0, 64, 58
1, 284110, Control_c, 0, 64, 60
1, 284125, Control_c, 0, 64, 61
1, 284140, Control_c, 0, 64, 62
1, 284147, Note_on_c, 0, 75, 75
1, 284154, Control_c, 0, 64, 63
1, 284158, Note_off_c, 0, 73, 59
1, 284169, Control_c, 0, 64, 65
1, 284184, Control_c, 0, 64, 67
1, 284199, Control_c, 0, 64, 70
1, 284214, Control_c, 0, 64, 73
1, 284229, Control_c, 0, 64, 78
1, 284243, Control_c, 0, 64, 85
1, 284258, Control_c, 0, 64, 97
1, 284273, Control_c, 0, 64, 127
1, 284321, Note_on_c, 0, 63, 67
1, 284345, Note_off_c, 0, 75, 55
1, 284506, Note_on_c, 0, 75, 74
1, 284521, Note_off_c, 0, 63, 58
1, 284530, Note_off_c, 0, 67, 37
1, 284671, Note_on_c, 0, 70, 67
1, 284738, Note_off_c, 0, 75, 55
1, 284847, Note_on_c, 0, 73, 70
1, 284956, Note_off_c, 0, 70, 38
1, 285007, Note_on_c, 0, 75, 66
1, 285038, Note_off_c, 0, 73, 62
1, 285110, Control_c, 0, 64, 89
1, 285132, Control_c, 0, 64, 74
1, 285147, Control_c, 0, 64, 66
1, 285162, Control_c, 0, 64, 60
1, 285177, Control_c, 0, 64, 57
1, 285188, Note_off_c, 0, 75, 59
1, 285191, Control_c, 0, 64, 57
1, 285195, Note_on_c, 0, 78, 66
1, 285203, Note_on_c, 0, 81, 69
1, 285206, Control_c, 0, 64, 60
1, 285208, Note_on_c, 0, 69, 62
1, 285221, Control_c, 0, 64, 65
1, 285231, Note_off_c, 0, 79, 62
1, 285236, Control_c, 0, 64, 74
1, 285248, Note_off_c, 0, 69, 62
1, 285251, Control_c, 0, 64, 95
1, 285266, Control_c, 0, 64, 127
1, 285308, Note_off_c, 0, 78, 61
1, 285311, Note_off_c, 0, 81, 63
1, 285391, Note_on_c, 0, 84, 61
1, 285537, Note_on_c, 0, 87, 75
1, 285616, Note_off_c, 0, 84, 42
1, 285702, Note_on_c, 0, 90, 76
1, 285719, Note_off_c, 0, 87, 61
1, 285749, Note_off_c, 0, 90, 63
1, 285940, Note_on_c, 0, 33, 92
1, 285941, Note_on_c, 0, 47, 96
1, 285943, Note_on_c, 0, 39, 102
1, 285943, Note_on_c, 0, 53, 105
1, 285953, Note_on_c, 0, 52, 90
1, 285957, Note_on_c, 0, 41, 73
1, 285964, Note_on_c, 0, 38, 88
1, 285966, Note_on_c, 0, 37, 65
1, 285978, Note_on_c, 0, 35, 46
1, 285985, Control_c, 0, 64, 71
1, 285987, Note_off_c, 0, 41, 65
1, 285999, Note_on_c, 0, 43, 3
1, 286000, Control_c, 0, 64, 0
1, 286003, Note_off_c, 0, 37, 62
1, 286012, Note_off_c, 0, 35, 52
1, 286017, Note_off_c, 0, 43, 49
1, 286074, Control_c, 0, 64, 47
1, 286089, Control_c, 0, 64, 127
1, 286105, Note_off_c, 0, 38, 61
1, 286106, Note_on_c, 0, 43, 79
1, 286111, Note_off_c, 0, 39, 59
1, 286124, Note_off_c, 0, 33, 61
1, 286197, Note_off_c, 0, 43, 62
1, 286250, Note_on_c, 0, 46, 77
1, 286254, Note_off_c, 0, 47, 53
1, 286364, Note_off_c, 0, 52, 53
1, 286412, Note_off_c, 0, 53, 52
1, 286419, Note_on_c, 0, 49, 66
1, 286506, Note_off_c, 0, 46, 39
1, 286590, Note_on_c, 0, 54, 70
1, 286663, Note_off_c, 0, 49, 60
1, 286756, Note_on_c, 0, 57, 70
1, 286773, Note_off_c, 0, 54, 63
1, 286926, Note_on_c, 0, 60, 74
1, 286928, Note_off_c, 0, 57, 64
1, 287081, Note_off_c, 0, 60, 62
1, 287085, Note_on_c, 0, 64, 68
1, 287260, Note_off_c, 0, 64, 61
1, 287266, Note_on_c, 0, 67, 67
1, 287427, Note_on_c, 0, 66, 54
1, 287435, Note_on_c, 0, 68, 63
1, 287439, Note_off_c, 0, 67, 58
1, 287610, Note_on_c, 0, 65, 48
1, 287614, Note_on_c, 0, 69, 71
1, 287629, Note_off_c, 0, 68, 59
1, 287714, Note_off_c, 0, 66, 36
1, 287758, Note_on_c, 0, 62, 56
1, 287763, Note_off_c, 0, 65, 59
1, 287788, Note_on_c, 0, 72, 50
1, 287808, Note_off_c, 0, 62, 61
1, 287821, Note_off_c, 0, 69, 61
1, 287878, Poly_aftertouch_c, 0, 71, 0
1, 287936, Note_on_c, 0, 55, 57
1, 287940, Note_on_c, 0, 59, 55
1, 287942, Note_on_c, 0, 73, 68
1, 287990, Note_off_c, 0, 72, 56
1, 288075, Note_off_c, 0, 59, 58
1, 288089, Note_on_c, 0, 56, 63
1, 288100, Note_off_c, 0, 55, 56
1, 288104, Note_on_c, 0, 52, 57
1, 288105, Note_off_c, 0, 73, 64
1, 288107, Note_on_c, 0, 74, 77
1, 288169, Note_off_c, 0, 56, 63
1, 288172, Note_off_c, 0, 52, 64
1, 288274, Note_on_c, 0, 77, 75
1, 288284, Note_on_c, 0, 55, 44
1, 288285, Note_on_c, 0, 53, 49
1, 288289, Note_on_c, 0, 45, 44
1, 288289, Note_on_c, 0, 47, 48
1, 288309, Note_off_c, 0, 74, 58
1, 288323, Note_off_c, 0, 55, 61
1, 288346, Note_off_c, 0, 53, 61
1, 288407, Note_off_c, 0, 47, 57
1, 288421, Note_off_c, 0, 45, 62
1, 288423, Note_on_c, 0, 44, 65
1, 288423, Note_on_c, 0, 52, 66
1, 288427, Note_on_c, 0, 82, 88
1, 288468, Note_off_c, 0, 77, 59
1, 288483, Note_off_c, 0, 52, 63
1, 288585, Note_off_c, 0, 44, 62
1, 288592, Note_on_c, 0, 83, 85
1, 288599, Note_off_c, 0, 82, 64
1, 288602, Note_on_c, 0, 50, 51
1, 288603, Control_c, 0, 64, 116
1, 288609, Note_on_c, 0, 40, 48
1, 288618, Control_c, 0, 64, 87
1, 288622, Note_on_c, 0, 41, 48
1, 288627, Note_on_c, 0, 48, 39
1, 288632, Control_c, 0, 64, 72
1, 288647, Control_c, 0, 64, 62
1, 288662, Control_c, 0, 64, 60
1, 288669, Note_off_c, 0, 41, 44
1, 288676, Control_c, 0, 64, 64
1, 288691, Control_c, 0, 64, 68
1, 288706, Control_c, 0, 64, 74
1, 288716, Note_off_c, 0, 48, 28
1, 288721, Control_c, 0, 64, 82
1, 288736, Control_c, 0, 64, 97
1, 288740, Note_off_c, 0, 50, 61
1, 288745, Note_on_c, 0, 44, 63
1, 288751, Control_c, 0, 64, 127
1, 288756, Note_on_c, 0, 85, 86
1, 288771, Note_on_c, 0, 39, 34
1, 288798, Note_on_c, 0, 38, 45
1, 288801, Note_off_c, 0, 40, 56
1, 288808, Note_on_c, 0, 87, 38
1, 288820, Note_off_c, 0, 44, 62
1, 288835, Note_off_c, 0, 38, 51
1, 288840, Note_off_c, 0, 39, 60
1, 288840, Note_off_c, 0, 87, 51
1, 288876, Note_off_c, 0, 83, 59
1, 288922, Note_on_c, 0, 44, 80
1, 288922, Note_on_c, 0, 88, 89
1, 288945, Note_on_c, 0, 37, 41
1, 288962, Note_off_c, 0, 85, 65
1, 288987, Note_off_c, 0, 37, 50
1, 288995, Note_off_c, 0, 44, 60
1, 289078, Note_on_c, 0, 42, 65
1, 289084, Note_on_c, 0, 92, 91
1, 289102, Note_on_c, 0, 34, 57
1, 289283, Note_on_c, 0, 33, 61
1, 289300, Note_on_c, 0, 93, 87
1, 289308, Note_on_c, 0, 81, 69
1, 289312, Note_off_c, 0, 42, 36
1, 289342, Note_off_c, 0, 88, 65
1, 289349, Note_off_c, 0, 34, 37
1, 289366, Control_c, 0, 64, 112
1, 289381, Control_c, 0, 64, 98
1, 289396, Control_c, 0, 64, 88
1, 289400, Note_off_c, 0, 92, 53
1, 289411, Control_c, 0, 64, 82
1, 289426, Control_c, 0, 64, 75
1, 289440, Control_c, 0, 64, 68
1, 289455, Control_c, 0, 64, 62
1, 289470, Control_c, 0, 64, 53
1, 289481, Note_on_c, 0, 35, 53
1, 289485, Control_c, 0, 64, 43
1, 289499, Control_c, 0, 64, 35
1, 289514, Control_c, 0, 64, 29
1, 289529, Control_c, 0, 64, 26
1, 289588, Control_c, 0, 64, 28
1, 289603, Control_c, 0, 64, 35
1, 289626, Control_c, 0, 64, 44
1, 289635, Note_on_c, 0, 38, 55
1, 289641, Control_c, 0, 64, 52
1, 289655, Control_c, 0, 64, 57
1, 289670, Control_c, 0, 64, 61
1, 289685, Control_c, 0, 64, 64
1, 289699, Control_c, 0, 64, 68
1, 289714, Control_c, 0, 64, 77
1, 289729, Control_c, 0, 64, 103
1, 289744, Control_c, 0, 64, 127
1, 289799, Note_on_c, 0, 40, 60
1, 289840, Note_off_c, 0, 81, 46
1, 289897, Note_off_c, 0, 38, 36
1, 289911, Note_off_c, 0, 35, 35
1, 289939, Note_off_c, 0, 33, 34
1, 289972, Note_on_c, 0, 43, 60
1, 289976, Note_off_c, 0, 40, 59
1, 290131, Note_on_c, 0, 45, 61
1, 290156, Note_off_c, 0, 43, 55
1, 290307, Note_on_c, 0, 50, 62
1, 290309, Note_off_c, 0, 45, 54
1, 290476, Note_on_c, 0, 43, 54
1, 290498, Note_off_c, 0, 50, 58
1, 290656, Note_on_c, 0, 92, 93
1, 290658, Note_on_c, 0, 50, 45
1, 290661, Note_on_c, 0, 80, 72
1, 290745, Control_c, 0, 64, 113
1, 290760, Control_c, 0, 64, 89
1, 290775, Control_c, 0, 64, 76
1, 290790, Control_c, 0, 64, 65
1, 290804, Control_c, 0, 64, 59
1, 290819, Control_c, 0, 64, 55
1, 290830, Note_on_c, 0, 45, 59
1, 290834, Control_c, 0, 64, 57
1, 290848, Control_c, 0, 64, 60
1, 290863, Control_c, 0, 64, 63
1, 290878, Control_c, 0, 64, 67
1, 290890, Note_off_c, 0, 50, 51
1, 290893, Control_c, 0, 64, 72
1, 290908, Control_c, 0, 64, 83
1, 290922, Control_c, 0, 64, 119
1, 290937, Control_c, 0, 64, 127
1, 290939, Note_off_c, 0, 93, 35
1, 290982, Note_on_c, 0, 47, 77
1, 291030, Note_off_c, 0, 43, 56
1, 291117, Note_off_c, 0, 45, 56
1, 291138, Note_on_c, 0, 50, 85
1, 291193, Note_off_c, 0, 80, 37
1, 291198, Note_off_c, 0, 47, 59
1, 291304, Note_on_c, 0, 91, 95
1, 291305, Note_on_c, 0, 79, 92
1, 291308, Note_on_c, 0, 52, 82
1, 291325, Note_off_c, 0, 50, 63
1, 291359, Control_c, 0, 64, 115
1, 291374, Control_c, 0, 64, 86
1, 291389, Control_c, 0, 64, 73
1, 291404, Control_c, 0, 64, 65
1, 291419, Control_c, 0, 64, 60
1, 291442, Note_off_c, 0, 92, 64
1, 291448, Control_c, 0, 64, 63
1, 291463, Control_c, 0, 64, 66
1, 291464, Note_on_c, 0, 55, 80
1, 291478, Control_c, 0, 64, 71
1, 291493, Control_c, 0, 64, 80
1, 291499, Note_off_c, 0, 52, 64
1, 291508, Control_c, 0, 64, 100
1, 291523, Control_c, 0, 64, 127
1, 291623, Note_on_c, 0, 57, 86
1, 291648, Note_off_c, 0, 55, 63
1, 291779, Note_on_c, 0, 62, 83
1, 291800, Note_off_c, 0, 79, 62
1, 291803, Note_off_c, 0, 57, 60
1, 291994, Note_on_c, 0, 90, 88
1, 291997, Note_on_c, 0, 58, 72
1, 291997, Note_on_c, 0, 78, 85
1, 292005, Note_on_c, 0, 53, 68
1, 292080, Control_c, 0, 64, 119
1, 292092, Note_off_c, 0, 62, 53
1, 292094, Control_c, 0, 64, 90
1, 292109, Control_c, 0, 64, 77
1, 292124, Control_c, 0, 64, 68
1, 292139, Control_c, 0, 64, 59
1, 292154, Control_c, 0, 64, 44
1, 292168, Control_c, 0, 64, 34
1, 292183, Control_c, 0, 64, 33
1, 292191, Note_on_c, 0, 61, 78
1, 292213, Control_c, 0, 64, 34
1, 292228, Control_c, 0, 64, 39
1, 292242, Control_c, 0, 64, 48
1, 292257, Control_c, 0, 64, 56
1, 292272, Control_c, 0, 64, 62
1, 292280, Note_off_c, 0, 91, 43
1, 292287, Control_c, 0, 64, 65
1, 292301, Control_c, 0, 64, 72
1, 292307, Note_off_c, 0, 53, 60
1, 292316, Control_c, 0, 64, 91
1, 292331, Control_c, 0, 64, 127
1, 292349, Note_on_c, 0, 63, 81
1, 292349, Note_off_c, 0, 58, 56
1, 292390, Note_off_c, 0, 61, 60
1, 292507, Note_off_c, 0, 63, 62
1, 292509, Note_on_c, 0, 66, 75
1, 292517, Note_off_c, 0, 78, 53
1, 292664, Note_on_c, 0, 77, 82
1, 292670, Note_on_c, 0, 89, 87
1, 292675, Note_on_c, 0, 70, 67
1, 292702, Note_off_c, 0, 66, 57
1, 292739, Control_c, 0, 64, 89
1, 292754, Control_c, 0, 64, 76
1, 292769, Control_c, 0, 64, 67
1, 292784, Control_c, 0, 64, 61
1, 292799, Control_c, 0, 64, 57
1, 292814, Control_c, 0, 64, 58
1, 292828, Control_c, 0, 64, 61
1, 292836, Note_on_c, 0, 73, 71
1, 292843, Control_c, 0, 64, 64
1, 292858, Control_c, 0, 64, 66
1, 292860, Note_off_c, 0, 70, 59
1, 292873, Control_c, 0, 64, 71
1, 292888, Control_c, 0, 64, 79
1, 292903, Control_c, 0, 64, 95
1, 292917, Control_c, 0, 64, 127
1, 292924, Note_off_c, 0, 90, 56
1, 292998, Note_on_c, 0, 75, 75
1, 293000, Note_off_c, 0, 73, 63
1, 293150, Note_on_c, 0, 63, 69
1, 293171, Note_off_c, 0, 89, 47
1, 293179, Note_off_c, 0, 75, 55
1, 293217, Note_off_c, 0, 77, 56
1, 293315, Note_off_c, 0, 63, 53
1, 293320, Note_on_c, 0, 75, 58
1, 293328, Note_on_c, 0, 88, 79
1, 293334, Note_on_c, 0, 76, 72
1, 293385, Control_c, 0, 64, 102
1, 293400, Control_c, 0, 64, 82
1, 293414, Control_c, 0, 64, 71
1, 293429, Control_c, 0, 64, 64
1, 293444, Control_c, 0, 64, 58
1, 293459, Control_c, 0, 64, 55
1, 293474, Control_c, 0, 64, 56
1, 293488, Control_c, 0, 64, 59
1, 293500, Note_on_c, 0, 70, 61
1, 293503, Control_c, 0, 64, 61
1, 293518, Control_c, 0, 64, 63
1, 293533, Control_c, 0, 64, 66
1, 293547, Control_c, 0, 64, 70
1, 293562, Control_c, 0, 64, 78
1, 293565, Note_off_c, 0, 75, 49
1, 293577, Control_c, 0, 64, 96
1, 293592, Control_c, 0, 64, 127
1, 293667, Note_on_c, 0, 73, 68
1, 293708, Note_off_c, 0, 70, 54
1, 293709, Note_off_c, 0, 76, 60
1, 293829, Note_on_c, 0, 75, 71
1, 293845, Note_off_c, 0, 73, 58
1, 293963, Note_off_c, 0, 75, 56
1, 293992, Note_on_c, 0, 87, 49
1, 294006, Note_on_c, 0, 75, 55
1, 294010, Note_on_c, 0, 78, 54
1, 294021, Control_c, 0, 64, 115
1, 294036, Control_c, 0, 64, 83
1, 294051, Control_c, 0, 64, 69
1, 294066, Control_c, 0, 64, 59
1, 294080, Control_c, 0, 64, 47
1, 294095, Control_c, 0, 64, 45
1, 294118, Control_c, 0, 64, 50
1, 294133, Control_c, 0, 64, 59
1, 294147, Control_c, 0, 64, 66
1, 294162, Control_c, 0, 64, 74
1, 294173, Note_off_c, 0, 88, 25
1, 294175, Note_on_c, 0, 81, 70
1, 294178, Control_c, 0, 64, 98
1, 294188, Note_off_c, 0, 78, 61
1, 294193, Control_c, 0, 64, 127
1, 294266, Note_off_c, 0, 75, 58
1, 294361, Note_on_c, 0, 82, 52
1, 294525, Note_on_c, 0, 90, 68
1, 294537, Note_off_c, 0, 81, 56
1, 294545, Note_off_c, 0, 82, 59
1, 294575, Note_off_c, 0, 90, 63
1, 294580, Note_off_c, 0, 87, 51
1, 294781, Note_on_c, 0, 37, 104
1, 294781, Note_on_c, 0, 41, 106
1, 294782, Note_on_c, 0, 33, 97
1, 294784, Note_on_c, 0, 47, 103
1, 294806, Note_on_c, 0, 35, 58
1, 294811, Note_on_c, 0, 40, 53
1, 294812, Note_off_c, 0, 40, 127
1, 294829, Control_c, 0, 64, 71
1, 294832, Note_on_c, 0, 36, 28
1, 294838, Note_on_c, 0, 38, 7
1, 294838, Note_off_c, 0, 35, 58
1, 294838, Poly_aftertouch_c, 0, 40, 0
1, 294844, Control_c, 0, 64, 0
1, 294865, Poly_aftertouch_c, 0, 46, 127
1, 294870, Note_on_c, 0, 46, 3
1, 294879, Note_off_c, 0, 36, 46
1, 294892, Note_off_c, 0, 38, 38
1, 294909, Note_off_c, 0, 46, 44
1, 294925, Control_c, 0, 64, 65
1, 294940, Control_c, 0, 64, 127
1, 294954, Note_on_c, 0, 40, 69
1, 294995, Note_off_c, 0, 33, 57
1, 295000, Note_off_c, 0, 37, 59
1, 295032, Note_off_c, 0, 40, 63
1, 295041, Note_off_c, 0, 41, 58
1, 295115, Note_on_c, 0, 43, 75
1, 295122, Note_off_c, 0, 47, 61
1, 295261, Note_on_c, 0, 46, 74
1, 295292, Note_off_c, 0, 43, 59
1, 295424, Note_off_c, 0, 46, 62
1, 295428, Note_on_c, 0, 50, 70
1, 295577, Note_off_c, 0, 50, 62
1, 295581, Note_on_c, 0, 54, 73
1, 295755, Note_on_c, 0, 57, 67
1, 295781, Note_off_c, 0, 54, 59
1, 295912, Note_off_c, 0, 57, 63
1, 295917, Note_on_c, 0, 60, 60
1, 296112, Note_on_c, 0, 63, 58
1, 296130, Note_off_c, 0, 60, 47
1, 296268, Note_on_c, 0, 64, 60
1, 296270, Note_on_c, 0, 62, 52
1, 296413, Note_off_c, 0, 63, 52
1, 296431, Note_on_c, 0, 68, 65
1, 296441, Note_on_c, 0, 58, 55
1, 296516, Note_off_c, 0, 62, 50
1, 296539, Note_off_c, 0, 64, 37
1, 296586, Note_off_c, 0, 58, 59
1, 296590, Note_on_c, 0, 53, 58
1, 296602, Note_on_c, 0, 71, 70
1, 296634, Note_off_c, 0, 53, 63
1, 296668, Note_off_c, 0, 68, 52
1, 296761, Note_on_c, 0, 67, 64
1, 296775, Note_on_c, 0, 49, 52
1, 296906, Note_on_c, 0, 48, 63
1, 296914, Note_off_c, 0, 49, 59
1, 296920, Note_on_c, 0, 76, 76
1, 296927, Note_off_c, 0, 71, 59
1, 296938, Note_off_c, 0, 67, 63
1, 297062, Note_off_c, 0, 48, 60
1, 297067, Note_on_c, 0, 46, 66
1, 297076, Note_on_c, 0, 70, 81
1, 297085, Note_off_c, 0, 76, 63
1, 297228, Note_off_c, 0, 46, 60
1, 297228, Note_on_c, 0, 45, 65
1, 297231, Note_on_c, 0, 78, 78
1, 297318, Note_off_c, 0, 70, 61
1, 297404, Note_on_c, 0, 44, 61
1, 297407, Note_on_c, 0, 71, 72
1, 297439, Control_c, 0, 64, 87
1, 297453, Control_c, 0, 64, 72
1, 297468, Control_c, 0, 64, 64
1, 297483, Control_c, 0, 64, 63
1, 297498, Control_c, 0, 64, 66
1, 297512, Control_c, 0, 64, 69
1, 297527, Control_c, 0, 64, 76
1, 297532, Note_off_c, 0, 78, 60
1, 297542, Control_c, 0, 64, 85
1, 297550, Note_on_c, 0, 41, 62
1, 297557, Control_c, 0, 64, 98
1, 297567, Note_on_c, 0, 74, 82
1, 297572, Control_c, 0, 64, 127
1, 297631, Note_off_c, 0, 71, 56
1, 297723, Note_on_c, 0, 79, 90
1, 297723, Note_on_c, 0, 35, 68
1, 297780, Note_off_c, 0, 74, 55
1, 297809, Note_off_c, 0, 44, 24
1, 297813, Note_off_c, 0, 41, 56
1, 297825, Note_off_c, 0, 45, 50
1, 297884, Note_on_c, 0, 82, 88
1, 297899, Note_on_c, 0, 38, 64
1, 297920, Note_off_c, 0, 79, 64
1, 298023, Note_off_c, 0, 82, 63
1, 298038, Note_on_c, 0, 83, 96
1, 298066, Note_on_c, 0, 39, 58
1, 298066, Note_off_c, 0, 35, 0
1, 298068, Control_c, 0, 64, 102
1, 298083, Control_c, 0, 64, 87
1, 298098, Control_c, 0, 64, 77
1, 298112, Control_c, 0, 64, 67
1, 298114, Poly_aftertouch_c, 0, 35, 0
1, 298127, Control_c, 0, 64, 57
1, 298142, Control_c, 0, 64, 36
1, 298158, Control_c, 0, 64, 27
1, 298173, Control_c, 0, 64, 28
1, 298179, Note_off_c, 0, 38, 60
1, 298188, Control_c, 0, 64, 38
1, 298188, Note_on_c, 0, 42, 59
1, 298198, Note_on_c, 0, 86, 92
1, 298202, Control_c, 0, 64, 48
1, 298217, Control_c, 0, 64, 56
1, 298232, Control_c, 0, 64, 62
1, 298233, Note_off_c, 0, 39, 59
1, 298247, Control_c, 0, 64, 65
1, 298262, Control_c, 0, 64, 71
1, 298276, Control_c, 0, 64, 86
1, 298278, Note_off_c, 0, 83, 48
1, 298291, Control_c, 0, 64, 127
1, 298359, Note_on_c, 0, 89, 93
1, 298361, Note_on_c, 0, 38, 63
1, 298412, Note_off_c, 0, 86, 62
1, 298458, Note_off_c, 0, 42, 50
1, 298514, Note_on_c, 0, 34, 57
1, 298518, Note_on_c, 0, 92, 89
1, 298521, Note_off_c, 0, 89, 67
1, 298572, Note_off_c, 0, 92, 66
1, 298757, Control_c, 0, 64, 104
1, 298762, Note_on_c, 0, 33, 49
1, 298772, Control_c, 0, 64, 92
1, 298784, Note_on_c, 0, 81, 78
1, 298787, Control_c, 0, 64, 84
1, 298795, Note_on_c, 0, 69, 60
1, 298802, Control_c, 0, 64, 78
1, 298817, Control_c, 0, 64, 70
1, 298826, Note_off_c, 0, 38, 32
1, 298832, Control_c, 0, 64, 61
1, 298844, Note_off_c, 0, 34, 34
1, 298847, Control_c, 0, 64, 39
1, 298862, Control_c, 0, 64, 0
1, 298935, Control_c, 0, 64, 42
1, 298950, Note_off_c, 0, 81, 64
1, 298950, Control_c, 0, 64, 60
1, 298966, Control_c, 0, 64, 67
1, 298978, Note_on_c, 0, 35, 44
1, 298981, Control_c, 0, 64, 82
1, 298981, Note_off_c, 0, 69, 58
1, 298996, Control_c, 0, 64, 127
1, 299179, Note_on_c, 0, 57, 74
1, 299201, Note_on_c, 0, 38, 40
1, 299312, Note_off_c, 0, 57, 66
1, 299324, Note_on_c, 0, 40, 68
1, 299384, Note_off_c, 0, 35, 39
1, 299406, Note_off_c, 0, 38, 39
1, 299408, Note_off_c, 0, 33, 38
1, 299486, Note_on_c, 0, 83, 89
1, 299491, Note_off_c, 0, 40, 61
1, 299501, Note_on_c, 0, 43, 56
1, 299503, Note_on_c, 0, 71, 75
1, 299604, Note_off_c, 0, 83, 63
1, 299633, Note_on_c, 0, 45, 63
1, 299642, Note_off_c, 0, 71, 63
1, 299646, Note_off_c, 0, 43, 57
1, 299794, Note_off_c, 0, 45, 56
1, 299806, Note_on_c, 0, 50, 64
1, 299807, Note_on_c, 0, 59, 89
1, 299909, Note_off_c, 0, 59, 62
1, 299939, Note_on_c, 0, 43, 57
1, 299941, Note_off_c, 0, 50, 57
1, 300147, Note_on_c, 0, 50, 41
1, 300170, Note_on_c, 0, 86, 85
1, 300178, Note_on_c, 0, 74, 71
1, 300197, Control_c, 0, 64, 92
1, 300212, Control_c, 0, 64, 77
1, 300227, Control_c, 0, 64, 66
1, 300242, Control_c, 0, 64, 53
1, 300257, Control_c, 0, 64, 35
1, 300272, Control_c, 0, 64, 29
1, 300287, Control_c, 0, 64, 34
1, 300301, Control_c, 0, 64, 50
1, 300305, Note_off_c, 0, 86, 64
1, 300316, Control_c, 0, 64, 61
1, 300325, Note_off_c, 0, 50, 53
1, 300331, Control_c, 0, 64, 68
1, 300331, Note_on_c, 0, 45, 47
1, 300346, Control_c, 0, 64, 80
1, 300361, Control_c, 0, 64, 127
1, 300367, Note_off_c, 0, 74, 57
1, 300544, Note_on_c, 0, 62, 74
1, 300556, Note_on_c, 0, 47, 44
1, 300709, Note_on_c, 0, 50, 64
1, 300755, Note_off_c, 0, 43, 18
1, 300755, Note_off_c, 0, 47, 53
1, 300760, Note_off_c, 0, 45, 33
1, 300869, Note_on_c, 0, 52, 77
1, 300877, Note_off_c, 0, 50, 63
1, 301004, Note_on_c, 0, 55, 73
1, 301027, Note_off_c, 0, 52, 62
1, 301183, Note_on_c, 0, 57, 64
1, 301190, Note_on_c, 0, 65, 77
1, 301190, Note_off_c, 0, 55, 60
1, 301212, Note_off_c, 0, 62, 61
1, 301292, Note_off_c, 0, 65, 62
1, 301306, Note_off_c, 0, 57, 63
1, 301333, Note_on_c, 0, 62, 66
1, 301524, Control_c, 0, 64, 106
1, 301531, Note_on_c, 0, 66, 51
1, 301539, Control_c, 0, 64, 92
1, 301544, Note_on_c, 0, 69, 64
1, 301554, Control_c, 0, 64, 82
1, 301568, Control_c, 0, 64, 74
1, 301583, Control_c, 0, 64, 66
1, 301604, Note_off_c, 0, 62, 38
1, 301606, Control_c, 0, 64, 59
1, 301621, Control_c, 0, 64, 50
1, 301635, Control_c, 0, 64, 38
1, 301650, Control_c, 0, 64, 27
1, 301665, Control_c, 0, 64, 23
1, 301680, Control_c, 0, 64, 22
1, 301695, Control_c, 0, 64, 23
1, 301700, Note_on_c, 0, 57, 55
1, 301701, Note_on_c, 0, 72, 76
1, 301709, Control_c, 0, 64, 36
1, 301724, Control_c, 0, 64, 52
1, 301739, Control_c, 0, 64, 60
1, 301753, Control_c, 0, 64, 65
1, 301759, Note_off_c, 0, 69, 58
1, 301768, Control_c, 0, 64, 71
1, 301783, Control_c, 0, 64, 92
1, 301798, Control_c, 0, 64, 127
1, 301858, Note_off_c, 0, 57, 58
1, 301867, Note_on_c, 0, 65, 52
1, 301869, Note_on_c, 0, 76, 85
1, 301898, Note_off_c, 0, 72, 64
1, 301974, Note_off_c, 0, 76, 64
1, 301985, Note_off_c, 0, 65, 60
1, 302009, Note_on_c, 0, 57, 50
1, 302010, Note_on_c, 0, 71, 81
1, 302040, Note_off_c, 0, 71, 60
1, 302139, Control_c, 0, 64, 101
1, 302155, Control_c, 0, 64, 82
1, 302169, Control_c, 0, 64, 70
1, 302178, Note_on_c, 0, 67, 49
1, 302184, Control_c, 0, 64, 63
1, 302197, Note_on_c, 0, 89, 89
1, 302198, Note_on_c, 0, 59, 43
1, 302199, Control_c, 0, 64, 56
1, 302200, Note_off_c, 0, 66, 35
1, 302208, Note_on_c, 0, 77, 68
1, 302214, Control_c, 0, 64, 54
1, 302229, Control_c, 0, 64, 55
1, 302230, Note_off_c, 0, 57, 39
1, 302243, Control_c, 0, 64, 60
1, 302258, Control_c, 0, 64, 64
1, 302270, Note_off_c, 0, 89, 65
1, 302273, Control_c, 0, 64, 70
1, 302288, Control_c, 0, 64, 83
1, 302303, Control_c, 0, 64, 127
1, 302326, Note_off_c, 0, 77, 56
1, 302358, Note_on_c, 0, 63, 69
1, 302363, Note_on_c, 0, 57, 60
1, 302373, Note_on_c, 0, 72, 87
1, 302386, Note_off_c, 0, 67, 51
1, 302403, Note_off_c, 0, 59, 38
1, 302523, Note_on_c, 0, 76, 96
1, 302527, Note_on_c, 0, 66, 71
1, 302558, Note_off_c, 0, 72, 63
1, 302570, Note_off_c, 0, 63, 57
1, 302665, Note_off_c, 0, 76, 66
1, 302671, Note_on_c, 0, 71, 94
1, 302681, Note_on_c, 0, 65, 52
1, 302706, Note_off_c, 0, 65, 61
1, 302725, Note_off_c, 0, 71, 62
1, 302841, Note_on_c, 0, 67, 53
1, 302841, Note_on_c, 0, 64, 55
1, 302873, Control_c, 0, 64, 105
1, 302886, Note_on_c, 0, 93, 91
1, 302888, Control_c, 0, 64, 76
1, 302893, Note_on_c, 0, 81, 74
1, 302903, Control_c, 0, 64, 63
1, 302918, Control_c, 0, 64, 50
1, 302932, Control_c, 0, 64, 44
1, 302949, Control_c, 0, 64, 48
1, 302955, Note_off_c, 0, 64, 59
1, 302964, Control_c, 0, 64, 57
1, 302976, Note_off_c, 0, 93, 67
1, 302978, Control_c, 0, 64, 65
1, 302993, Control_c, 0, 64, 73
1, 302998, Note_off_c, 0, 57, 43
1, 303008, Control_c, 0, 64, 95
1, 303018, Note_off_c, 0, 81, 65
1, 303023, Control_c, 0, 64, 127
1, 303028, Note_off_c, 0, 66, 36
1, 303066, Note_on_c, 0, 57, 58
1, 303070, Note_on_c, 0, 63, 64
1, 303076, Note_on_c, 0, 72, 83
1, 303107, Note_off_c, 0, 67, 53
1, 303227, Note_on_c, 0, 66, 66
1, 303232, Note_on_c, 0, 76, 87
1, 303261, Note_off_c, 0, 72, 63
1, 303265, Note_off_c, 0, 63, 57
1, 303363, Note_off_c, 0, 76, 62
1, 303379, Note_on_c, 0, 71, 83
1, 303389, Note_on_c, 0, 65, 58
1, 303427, Note_off_c, 0, 71, 64
1, 303446, Note_off_c, 0, 57, 28
1, 303456, Note_off_c, 0, 65, 59
1, 303519, Control_c, 0, 64, 108
1, 303533, Control_c, 0, 64, 82
1, 303548, Control_c, 0, 64, 70
1, 303554, Note_off_c, 0, 66, 55
1, 303557, Note_on_c, 0, 88, 68
1, 303558, Note_on_c, 0, 67, 55
1, 303558, Note_on_c, 0, 89, 73
1, 303563, Control_c, 0, 64, 63
1, 303566, Note_on_c, 0, 64, 52
1, 303576, Note_on_c, 0, 76, 41
1, 303578, Control_c, 0, 64, 58
1, 303581, Note_on_c, 0, 77, 44
1, 303587, Note_off_c, 0, 89, 66
1, 303593, Control_c, 0, 64, 59
1, 303607, Note_off_c, 0, 64, 64
1, 303607, Control_c, 0, 64, 63
1, 303622, Control_c, 0, 64, 67
1, 303623, Note_off_c, 0, 88, 66
1, 303628, Note_off_c, 0, 77, 62
1, 303637, Control_c, 0, 64, 77
1, 303652, Control_c, 0, 64, 101
1, 303667, Control_c, 0, 64, 127
1, 303700, Note_on_c, 0, 57, 53
1, 303702, Note_off_c, 0, 67, 57
1, 303709, Note_on_c, 0, 63, 60
1, 303717, Note_on_c, 0, 72, 71
1, 303719, Note_off_c, 0, 76, 62
1, 303881, Note_on_c, 0, 66, 59
1, 303882, Note_on_c, 0, 76, 70
1, 303917, Note_off_c, 0, 72, 62
1, 303932, Note_off_c, 0, 63, 53
1, 303980, Note_off_c, 0, 57, 32
1, 304022, Note_off_c, 0, 76, 63
1, 304034, Note_on_c, 0, 65, 45
1, 304043, Note_on_c, 0, 71, 70
1, 304073, Note_off_c, 0, 65, 58
1, 304099, Note_off_c, 0, 71, 61
1, 304209, Control_c, 0, 64, 112
1, 304221, Note_on_c, 0, 84, 79
1, 304223, Note_on_c, 0, 67, 50
1, 304223, Control_c, 0, 64, 96
1, 304224, Note_on_c, 0, 63, 43
1, 304234, Note_on_c, 0, 72, 61
1, 304238, Control_c, 0, 64, 84
1, 304253, Control_c, 0, 64, 76
1, 304268, Control_c, 0, 64, 68
1, 304283, Control_c, 0, 64, 61
1, 304297, Control_c, 0, 64, 53
1, 304312, Control_c, 0, 64, 47
1, 304327, Control_c, 0, 64, 45
1, 304369, Note_off_c, 0, 66, 33
1, 304371, Control_c, 0, 64, 48
1, 304383, Note_on_c, 0, 62, 43
1, 304386, Control_c, 0, 64, 55
1, 304401, Control_c, 0, 64, 60
1, 304416, Control_c, 0, 64, 64
1, 304427, Note_off_c, 0, 63, 36
1, 304430, Control_c, 0, 64, 67
1, 304445, Control_c, 0, 64, 74
1, 304460, Control_c, 0, 64, 87
1, 304475, Control_c, 0, 64, 127
1, 304533, Note_on_c, 0, 61, 58
1, 304548, Note_off_c, 0, 67, 57
1, 304550, Note_on_c, 0, 66, 60
1, 304552, Note_off_c, 0, 84, 49
1, 304579, Note_off_c, 0, 62, 52
1, 304612, Note_off_c, 0, 72, 49
1, 304708, Note_on_c, 0, 65, 75
1, 304743, Note_off_c, 0, 66, 59
1, 304880, Note_on_c, 0, 81, 77
1, 304887, Note_on_c, 0, 69, 71
1, 304895, Note_on_c, 0, 64, 59
1, 304898, Note_off_c, 0, 61, 60
1, 304913, Control_c, 0, 64, 93
1, 304918, Note_on_c, 0, 60, 47
1, 304922, Note_on_c, 0, 59, 47
1, 304928, Control_c, 0, 64, 79
1, 304943, Control_c, 0, 64, 69
1, 304958, Control_c, 0, 64, 63
1, 304972, Control_c, 0, 64, 59
1, 304987, Control_c, 0, 64, 60
1, 305002, Control_c, 0, 64, 63
1, 305017, Control_c, 0, 64, 67
1, 305030, Note_off_c, 0, 64, 64
1, 305032, Control_c, 0, 64, 75
1, 305046, Control_c, 0, 64, 91
1, 305052, Note_off_c, 0, 65, 40
1, 305061, Control_c, 0, 64, 127
1, 305101, Note_off_c, 0, 69, 51
1, 305142, Note_off_c, 0, 60, 61
1, 305190, Note_off_c, 0, 81, 57
1, 305201, Note_on_c, 0, 63, 76
1, 305212, Note_on_c, 0, 58, 75
1, 305260, Note_off_c, 0, 59, 51
1, 305369, Note_on_c, 0, 62, 83
1, 305383, Note_off_c, 0, 63, 60
1, 305540, Note_on_c, 0, 89, 90
1, 305541, Note_on_c, 0, 61, 77
1, 305542, Note_on_c, 0, 57, 65
1, 305543, Note_on_c, 0, 77, 81
1, 305543, Control_c, 0, 64, 102
1, 305557, Control_c, 0, 64, 81
1, 305572, Control_c, 0, 64, 69
1, 305585, Note_off_c, 0, 58, 61
1, 305587, Control_c, 0, 64, 60
1, 305602, Control_c, 0, 64, 54
1, 305617, Control_c, 0, 64, 54
1, 305626, Note_off_c, 0, 62, 56
1, 305631, Control_c, 0, 64, 55
1, 305646, Control_c, 0, 64, 59
1, 305661, Control_c, 0, 64, 63
1, 305676, Control_c, 0, 64, 68
1, 305688, Note_on_c, 0, 56, 81
1, 305691, Control_c, 0, 64, 82
1, 305706, Control_c, 0, 64, 127
1, 305727, Note_off_c, 0, 57, 63
1, 305840, Note_off_c, 0, 89, 53
1, 305841, Note_off_c, 0, 61, 55
1, 305846, Note_on_c, 0, 60, 91
1, 305855, Note_on_c, 0, 55, 84
1, 305889, Note_off_c, 0, 56, 63
1, 305916, Note_off_c, 0, 77, 52
1, 305995, Note_on_c, 0, 59, 87
1, 306046, Note_off_c, 0, 60, 58
1, 306167, Note_on_c, 0, 58, 84
1, 306167, Note_on_c, 0, 86, 102
1, 306168, Note_on_c, 0, 74, 97
1, 306232, Control_c, 0, 64, 88
1, 306247, Control_c, 0, 64, 66
1, 306254, Note_off_c, 0, 55, 60
1, 306262, Control_c, 0, 64, 56
1, 306272, Note_off_c, 0, 59, 61
1, 306277, Control_c, 0, 64, 58
1, 306292, Control_c, 0, 64, 64
1, 306306, Control_c, 0, 64, 72
1, 306321, Control_c, 0, 64, 89
1, 306331, Note_on_c, 0, 53, 75
1, 306332, Note_on_c, 0, 52, 79
1, 306336, Control_c, 0, 64, 127
1, 306377, Note_off_c, 0, 58, 60
1, 306409, Note_off_c, 0, 52, 63
1, 306413, Note_off_c, 0, 53, 63
1, 306458, Note_off_c, 0, 74, 53
1, 306480, Note_on_c, 0, 52, 86
1, 306481, Note_on_c, 0, 57, 93
1, 306566, Note_off_c, 0, 86, 58
1, 306623, Note_on_c, 0, 56, 93
1, 306655, Note_off_c, 0, 57, 64
1, 306657, Note_off_c, 0, 52, 65
1, 306734, Note_off_c, 0, 56, 64
1, 306803, Note_on_c, 0, 55, 79
1, 306809, Note_on_c, 0, 51, 81
1, 306869, Note_on_c, 0, 93, 96
1, 306872, Note_on_c, 0, 81, 92
1, 306877, Control_c, 0, 64, 91
1, 306891, Control_c, 0, 64, 69
1, 306906, Control_c, 0, 64, 51
1, 306921, Control_c, 0, 64, 0
1, 306982, Control_c, 0, 64, 52
1, 306996, Control_c, 0, 64, 68
1, 307011, Control_c, 0, 64, 88
1, 307026, Control_c, 0, 64, 127
1, 307035, Note_off_c, 0, 55, 62
1, 307038, Note_off_c, 0, 51, 63
1, 307143, Note_on_c, 0, 67, 84
1, 307143, Note_on_c, 0, 63, 81
1, 307162, Note_on_c, 0, 64, 75
1, 307192, Note_off_c, 0, 63, 0
1, 307205, Note_on_c, 0, 63, 12
1, 307216, Note_off_c, 0, 64, 61
1, 307244, Note_off_c, 0, 67, 61
1, 307261, Note_off_c, 0, 63, 35
1, 307322, Note_on_c, 0, 50, 92
1, 307335, Note_on_c, 0, 54, 64
1, 307340, Note_on_c, 0, 53, 86
1, 307379, Note_off_c, 0, 50, 64
1, 307388, Note_off_c, 0, 53, 56
1, 307399, Note_off_c, 0, 54, 61
1, 307430, Note_off_c, 0, 93, 57
1, 307468, Note_on_c, 0, 66, 91
1, 307471, Note_on_c, 0, 62, 88
1, 307495, Note_off_c, 0, 81, 63
1, 307510, Note_off_c, 0, 62, 61
1, 307512, Note_off_c, 0, 66, 64
1, 307601, Note_on_c, 0, 54, 90
1, 307611, Note_on_c, 0, 49, 82
1, 307625, Control_c, 0, 64, 79
1, 307638, Note_on_c, 0, 53, 71
1, 307639, Control_c, 0, 64, 29
1, 307652, Note_on_c, 0, 77, 107
1, 307652, Note_on_c, 0, 89, 102
1, 307654, Control_c, 0, 64, 0
1, 307659, Note_off_c, 0, 54, 62
1, 307713, Control_c, 0, 64, 52
1, 307722, Note_off_c, 0, 53, 63
1, 307728, Control_c, 0, 64, 93
1, 307730, Note_off_c, 0, 49, 65
1, 307744, Control_c, 0, 64, 127
1, 307790, Note_off_c, 0, 89, 61
1, 307798, Note_on_c, 0, 61, 93
1, 307799, Note_on_c, 0, 65, 88
1, 307837, Note_off_c, 0, 65, 62
1, 307837, Note_off_c, 0, 61, 64
1, 307908, Note_off_c, 0, 77, 60
1, 307911, Note_on_c, 0, 79, 77
1, 307930, Note_on_c, 0, 52, 101
1, 307934, Note_on_c, 0, 48, 90
1, 307949, Note_on_c, 0, 81, 81
1, 307971, Note_off_c, 0, 52, 68
1, 307975, Note_off_c, 0, 48, 65
1, 307976, Note_off_c, 0, 79, 65
1, 307991, Note_on_c, 0, 84, 84
1, 308000, Note_off_c, 0, 81, 67
1, 308011, Note_off_c, 0, 84, 70
1, 308062, Note_on_c, 0, 89, 95
1, 308065, Note_on_c, 0, 60, 105
1, 308073, Note_on_c, 0, 65, 84
1, 308080, Note_on_c, 0, 64, 75
1, 308092, Note_off_c, 0, 65, 73
1, 308097, Note_off_c, 0, 60, 69
1, 308099, Note_off_c, 0, 64, 67
1, 308109, Note_on_c, 0, 91, 87
1, 308114, Note_off_c, 0, 89, 57
1, 308138, Note_on_c, 0, 93, 89
1, 308183, Note_off_c, 0, 91, 62
1, 308187, Note_on_c, 0, 95, 94
1, 308225, Note_on_c, 0, 52, 105
1, 308233, Note_on_c, 0, 47, 90
1, 308243, Note_off_c, 0, 93, 41
1, 308248, Control_c, 0, 64, 79
1, 308262, Control_c, 0, 64, 39
1, 308277, Note_on_c, 0, 96, 105
1, 308277, Control_c, 0, 64, 0
1, 308279, Note_on_c, 0, 84, 102
1, 308305, Note_off_c, 0, 95, 65
1, 308344, Control_c, 0, 64, 63
1, 308353, Note_off_c, 0, 47, 63
1, 308359, Control_c, 0, 64, 87
1, 308361, Note_off_c, 0, 52, 65
1, 308374, Control_c, 0, 64, 127
1, 308457, Note_on_c, 0, 59, 102
1, 308463, Note_on_c, 0, 64, 94
1, 308485, Note_off_c, 0, 64, 66
1, 308491, Note_off_c, 0, 59, 69
1, 308598, Note_on_c, 0, 51, 112
1, 308603, Note_on_c, 0, 46, 96
1, 308629, Note_off_c, 0, 51, 69
1, 308630, Note_off_c, 0, 46, 66
1, 308688, Note_off_c, 0, 84, 52
1, 308735, Note_on_c, 0, 63, 96
1, 308739, Note_on_c, 0, 58, 84
1, 308743, Note_on_c, 0, 59, 93
1, 308753, Note_off_c, 0, 63, 67
1, 308754, Note_off_c, 0, 58, 69
1, 308758, Note_off_c, 0, 59, 75
1, 308764, Note_on_c, 0, 64, 56
1, 308784, Note_off_c, 0, 64, 65
1, 308879, Note_on_c, 0, 50, 108
1, 308888, Note_on_c, 0, 45, 90
1, 308894, Note_off_c, 0, 96, 65
1, 308907, Control_c, 0, 64, 67
1, 308921, Note_on_c, 0, 87, 112
1, 308922, Note_on_c, 0, 99, 109
1, 308922, Control_c, 0, 64, 0
1, 308965, Note_on_c, 0, 88, 31
1, 308966, Note_off_c, 0, 88, 127
1, 308967, Note_off_c, 0, 45, 64
1, 308972, Note_off_c, 0, 50, 65
1, 308973, Note_on_c, 0, 97, 14
1, 308974, Note_off_c, 0, 97, 127
1, 308982, Control_c, 0, 64, 62
1, 308997, Control_c, 0, 64, 109
1, 309011, Control_c, 0, 64, 127
1, 309027, Note_off_c, 0, 99, 65
1, 309050, Note_off_c, 0, 87, 63
1, 309056, Note_on_c, 0, 57, 99
1, 309060, Note_on_c, 0, 62, 93
1, 309090, Note_off_c, 0, 62, 65
1, 309104, Note_off_c, 0, 57, 67
1, 309172, Poly_aftertouch_c, 0, 60, 0
1, 309200, Note_on_c, 0, 49, 107
1, 309201, Note_on_c, 0, 44, 103
1, 309337, Note_on_c, 0, 78, 111
1, 309353, Note_on_c, 0, 77, 81
1, 309360, Note_off_c, 0, 49, 57
1, 309367, Note_on_c, 0, 76, 51
1, 309368, Note_off_c, 0, 76, 127
1, 309368, Note_off_c, 0, 77, 68
1, 309371, Note_off_c, 0, 78, 67
1, 309420, Note_off_c, 0, 44, 56
1, 309477, Note_on_c, 0, 49, 94
1, 309478, Note_on_c, 0, 43, 83
1, 309479, Control_c, 0, 64, 75
1, 309494, Control_c, 0, 64, 0
1, 309538, Note_on_c, 0, 102, 124
1, 309541, Note_on_c, 0, 90, 112
1, 309553, Control_c, 0, 64, 64
1, 309560, Note_off_c, 0, 49, 60
1, 309568, Control_c, 0, 64, 127
1, 309574, Note_off_c, 0, 43, 63
1, 309596, Note_off_c, 0, 90, 63
1, 309607, Note_off_c, 0, 102, 65
1, 309672, Note_on_c, 0, 54, 97
1, 309684, Note_on_c, 0, 61, 79
1, 309700, Note_on_c, 0, 59, 58
1, 309701, Note_on_c, 0, 60, 67
1, 309706, Note_off_c, 0, 61, 69
1, 309719, Note_off_c, 0, 60, 64
1, 309721, Note_off_c, 0, 59, 63
1, 309721, Note_off_c, 0, 54, 67
1, 309820, Note_on_c, 0, 48, 103
1, 309826, Note_on_c, 0, 42, 91
1, 309843, Note_on_c, 0, 47, 66
1, 309852, Note_on_c, 0, 41, 68
1, 309862, Note_off_c, 0, 42, 63
1, 309866, Note_off_c, 0, 47, 39
1, 309875, Note_off_c, 0, 41, 63
1, 309912, Note_on_c, 0, 42, 41
1, 309971, Note_on_c, 0, 69, 111
1, 309984, Note_on_c, 0, 71, 71
1, 309990, Note_off_c, 0, 42, 59
1, 309996, Note_off_c, 0, 48, 62
1, 310002, Note_off_c, 0, 71, 64
1, 310008, Note_off_c, 0, 69, 68
1, 310079, Control_c, 0, 64, 81
1, 310094, Control_c, 0, 64, 44
1, 310094, Note_on_c, 0, 41, 95
1, 310098, Note_on_c, 0, 48, 93
1, 310099, Note_on_c, 0, 47, 89
1, 310109, Control_c, 0, 64, 0
1, 310150, Note_on_c, 0, 81, 104
1, 310151, Note_on_c, 0, 93, 108
1, 310168, Control_c, 0, 64, 58
1, 310177, Note_off_c, 0, 41, 63
1, 310183, Note_off_c, 0, 47, 61
1, 310183, Note_off_c, 0, 48, 62
1, 310183, Control_c, 0, 64, 127
1, 310288, Note_on_c, 0, 53, 100
1, 310291, Note_on_c, 0, 59, 87
1, 310303, Note_on_c, 0, 57, 81
1, 310321, Note_off_c, 0, 57, 68
1, 310326, Note_off_c, 0, 59, 65
1, 310329, Note_off_c, 0, 53, 66
1, 310371, Note_off_c, 0, 81, 61
1, 310429, Note_on_c, 0, 46, 105
1, 310431, Note_on_c, 0, 40, 96
1, 310484, Note_on_c, 0, 44, 61
1, 310495, Control_c, 0, 64, 83
1, 310510, Control_c, 0, 64, 51
1, 310524, Note_off_c, 0, 46, 0
1, 310525, Control_c, 0, 64, 0
1, 310526, Note_off_c, 0, 44, 65
1, 310527, Poly_aftertouch_c, 0, 45, 127
1, 310532, Note_on_c, 0, 45, 24
1, 310539, Control_c, 0, 64, 64
1, 310554, Control_c, 0, 64, 127
1, 310571, Poly_aftertouch_c, 0, 46, 0
1, 310580, Note_on_c, 0, 46, 68
1, 310597, Note_on_c, 0, 79, 109
1, 310604, Note_off_c, 0, 45, 64
1, 310641, Note_off_c, 0, 79, 63
1, 310653, Note_on_c, 0, 45, 74
1, 310663, Note_off_c, 0, 40, 63
1, 310663, Note_off_c, 0, 46, 62
1, 310677, Note_off_c, 0, 93, 67
1, 310703, Note_off_c, 0, 45, 63
1, 310747, Note_on_c, 0, 46, 97
1, 310749, Note_on_c, 0, 39, 98
1, 310754, Control_c, 0, 64, 70
1, 310769, Control_c, 0, 64, 0
1, 310771, Note_on_c, 0, 103, 106
1, 310772, Note_on_c, 0, 91, 118
1, 310812, Note_off_c, 0, 39, 64
1, 310812, Note_off_c, 0, 46, 65
1, 310828, Control_c, 0, 64, 64
1, 310843, Control_c, 0, 64, 127
1, 310872, Note_off_c, 0, 103, 66
1, 310905, Note_off_c, 0, 91, 63
1, 310910, Note_on_c, 0, 51, 107
1, 310916, Note_on_c, 0, 58, 98
1, 310929, Note_on_c, 0, 56, 72
1, 310935, Note_off_c, 0, 58, 72
1, 310948, Note_off_c, 0, 51, 66
1, 310948, Note_off_c, 0, 56, 65
1, 310958, Note_on_c, 0, 50, 29
1, 310991, Note_off_c, 0, 50, 53
1, 311068, Note_on_c, 0, 45, 120
1, 311071, Note_on_c, 0, 38, 109
1, 311130, Note_on_c, 0, 40, 12
1, 311182, Note_off_c, 0, 38, 60
1, 311184, Note_off_c, 0, 45, 63
1, 311189, Note_off_c, 0, 40, 46
1, 311215, Note_on_c, 0, 70, 113
1, 311248, Note_off_c, 0, 70, 74
1, 311259, Note_on_c, 0, 75, 37
1, 311260, Note_off_c, 0, 75, 127
1, 311379, Note_on_c, 0, 44, 105
1, 311381, Note_on_c, 0, 37, 94
1, 311400, Control_c, 0, 64, 78
1, 311414, Control_c, 0, 64, 0
1, 311432, Note_on_c, 0, 94, 110
1, 311433, Note_on_c, 0, 82, 115
1, 311454, Note_on_c, 0, 92, 67
1, 311455, Note_off_c, 0, 92, 127
1, 311455, Note_on_c, 0, 95, 70
1, 311456, Note_on_c, 0, 83, 66
1, 311457, Note_off_c, 0, 83, 127
1, 311465, Note_off_c, 0, 44, 62
1, 311468, Note_on_c, 0, 96, 53
1, 311472, Note_off_c, 0, 37, 62
1, 311474, Control_c, 0, 64, 60
1, 311488, Control_c, 0, 64, 95
1, 311498, Note_off_c, 0, 96, 48
1, 311503, Control_c, 0, 64, 127
1, 311522, Note_off_c, 0, 82, 60
1, 311544, Note_off_c, 0, 95, 41
1, 311581, Note_on_c, 0, 56, 105
1, 311582, Note_on_c, 0, 49, 107
1, 311615, Note_off_c, 0, 56, 68
1, 311619, Note_off_c, 0, 49, 65
1, 311622, Note_on_c, 0, 48, 42
1, 311635, Note_on_c, 0, 47, 34
1, 311653, Note_off_c, 0, 48, 51
1, 311671, Note_off_c, 0, 47, 46
1, 311736, Note_on_c, 0, 36, 107
1, 311737, Note_on_c, 0, 43, 103
1, 311748, Note_on_c, 0, 41, 85
1, 311757, Note_off_c, 0, 94, 62
1, 311768, Note_off_c, 0, 41, 64
1, 311877, Note_off_c, 0, 43, 62
1, 311878, Note_on_c, 0, 92, 126
1, 311882, Note_off_c, 0, 36, 62
1, 311891, Note_on_c, 0, 94, 88
1, 311909, Note_on_c, 0, 93, 54
1, 311912, Note_off_c, 0, 94, 69
1, 311915, Note_off_c, 0, 92, 65
1, 311927, Note_off_c, 0, 93, 62
1, 311951, Note_on_c, 0, 35, 105
1, 311951, Note_on_c, 0, 43, 101
1, 311994, Note_off_c, 0, 43, 65
1, 312008, Note_off_c, 0, 35, 59
1, 312051, Control_c, 0, 64, 98
1, 312066, Control_c, 0, 64, 61
1, 312073, Note_on_c, 0, 92, 113
1, 312073, Note_on_c, 0, 104, 120
1, 312074, Note_on_c, 0, 35, 99
1, 312075, Note_on_c, 0, 43, 98
1, 312085, Note_on_c, 0, 102, 102
1, 312088, Control_c, 0, 64, 0
1, 312103, Note_on_c, 0, 91, 69
1, 312111, Note_on_c, 0, 41, 49
1, 312112, Note_off_c, 0, 41, 127
1, 312127, Note_off_c, 0, 91, 50
1, 312148, Control_c, 0, 64, 67
1, 312163, Control_c, 0, 64, 127
1, 312180, Note_off_c, 0, 102, 58
1, 312188, Note_off_c, 0, 43, 63
1, 312189, Note_off_c, 0, 35, 62
1, 312412, Note_on_c, 0, 42, 118
1, 312415, Note_on_c, 0, 34, 107
1, 312443, Control_c, 0, 64, 86
1, 312458, Control_c, 0, 64, 53
1, 312462, Note_on_c, 0, 39, 26
1, 312473, Control_c, 0, 64, 0
1, 312488, Note_off_c, 0, 104, 63
1, 312502, Note_off_c, 0, 92, 64
1, 312507, Note_off_c, 0, 39, 52
1, 312517, Control_c, 0, 64, 62
1, 312533, Control_c, 0, 64, 105
1, 312548, Control_c, 0, 64, 127
1, 312570, Note_off_c, 0, 42, 59
1, 312571, Note_off_c, 0, 34, 52
1, 312777, Note_on_c, 0, 41, 109
1, 312777, Note_on_c, 0, 83, 110
1, 312778, Note_on_c, 0, 33, 111
1, 312779, Note_on_c, 0, 95, 118
1, 312815, Control_c, 0, 64, 98
1, 312817, Note_on_c, 0, 35, 42
1, 312820, Note_on_c, 0, 90, 35
1, 312821, Note_off_c, 0, 90, 127
1, 312837, Control_c, 0, 64, 62
1, 312839, Note_on_c, 0, 37, 15
1, 312852, Control_c, 0, 64, 0
1, 312866, Note_off_c, 0, 35, 52
1, 312889, Note_off_c, 0, 37, 44
1, 312911, Control_c, 0, 64, 64
1, 312926, Control_c, 0, 64, 127
1, 312935, Note_off_c, 0, 33, 62
1, 312947, Note_off_c, 0, 41, 58
1, 313182, Note_on_c, 0, 32, 108
1, 313182, Note_on_c, 0, 40, 103
1, 313237, Control_c, 0, 64, 72
1, 313252, Control_c, 0, 64, 0
1, 313303, Poly_aftertouch_c, 0, 33, 0
1, 313311, Control_c, 0, 64, 60
1, 313312, Note_off_c, 0, 83, 54
1, 313322, Note_off_c, 0, 32, 61
1, 313326, Control_c, 0, 64, 127
1, 313347, Note_off_c, 0, 40, 57
1, 313376, Note_off_c, 0, 95, 66
1, 313704, Note_on_c, 0, 53, 105
1, 313705, Note_on_c, 0, 93, 112
1, 313707, Note_on_c, 0, 59, 111
1, 313707, Note_on_c, 0, 100, 103
1, 313707, Note_on_c, 0, 105, 117
1, 313713, Note_on_c, 0, 48, 104
1, 313731, Note_on_c, 0, 47, 50
1, 313757, Note_on_c, 0, 104, 16
1, 313758, Note_off_c, 0, 104, 127
1, 313758, Note_off_c, 0, 47, 57
1, 313763, Control_c, 0, 64, 80
1, 313778, Control_c, 0, 64, 0
1, 313853, Control_c, 0, 64, 37
1, 313861, Note_off_c, 0, 59, 60
1, 313868, Control_c, 0, 64, 102
1, 313880, Note_off_c, 0, 105, 65
1, 313882, Control_c, 0, 64, 127
1, 313899, Note_off_c, 0, 53, 63
1, 313909, Note_off_c, 0, 100, 63
1, 313913, Note_off_c, 0, 93, 64
1, 313921, Note_off_c, 0, 48, 61
1, 314215, Note_on_c, 0, 29, 98
1, 314218, Note_on_c, 0, 35, 88
1, 314222, Note_on_c, 0, 60, 107
1, 314222, Note_on_c, 0, 71, 105
1, 314224, Note_on_c, 0, 36, 74
1, 314249, Note_off_c, 0, 36, 59
1, 314269, Note_off_c, 0, 35, 62
1, 314275, Note_on_c, 0, 62, 21
1, 314276, Note_off_c, 0, 29, 60
1, 314315, Note_off_c, 0, 62, 49
1, 314368, Note_off_c, 0, 60, 52
1, 314601, Note_off_c, 0, 71, 60
1, 314644, Note_on_c, 0, 53, 100
1, 314644, Note_on_c, 0, 76, 103
1, 314645, Note_on_c, 0, 68, 102
1, 314649, Note_on_c, 0, 59, 96
1, 314650, Note_on_c, 0, 48, 93
1, 314663, Note_on_c, 0, 57, 69
1, 314683, Note_off_c, 0, 59, 64
1, 314684, Note_off_c, 0, 57, 64
1, 314690, Note_off_c, 0, 53, 68
1, 314700, Note_off_c, 0, 48, 64
1, 314825, Note_off_c, 0, 76, 55
1, 314940, Note_off_c, 0, 68, 59
1, 314991, Note_on_c, 0, 71, 105
1, 314993, Note_on_c, 0, 29, 102
1, 314995, Note_on_c, 0, 35, 88
1, 314995, Note_on_c, 0, 60, 98
1, 315033, Note_off_c, 0, 35, 61
1, 315043, Note_off_c, 0, 29, 61
1, 315096, Note_off_c, 0, 60, 59
1, 315274, Note_off_c, 0, 71, 58
1, 315330, Note_on_c, 0, 76, 109
1, 315330, Note_on_c, 0, 68, 107
1, 315331, Note_on_c, 0, 53, 88
1, 315333, Note_on_c, 0, 59, 93
1, 315337, Note_on_c, 0, 48, 89
1, 315369, Note_off_c, 0, 59, 63
1, 315377, Note_off_c, 0, 53, 65
1, 315392, Note_off_c, 0, 48, 62
1, 315483, Note_off_c, 0, 76, 60
1, 315576, Note_off_c, 0, 68, 59
1, 315648, Note_on_c, 0, 29, 90
1, 315650, Note_on_c, 0, 35, 86
1, 315661, Note_on_c, 0, 71, 105
1, 315663, Note_on_c, 0, 60, 99
1, 315701, Note_off_c, 0, 35, 59
1, 315704, Note_off_c, 0, 29, 59
1, 315716, Note_off_c, 0, 60, 59
1, 315756, Note_off_c, 0, 71, 62
1, 316085, Note_on_c, 0, 53, 91
1, 316088, Note_on_c, 0, 59, 90
1, 316092, Note_on_c, 0, 48, 83
1, 316103, Note_on_c, 0, 89, 108
1, 316104, Note_on_c, 0, 101, 118
1, 316130, Note_off_c, 0, 59, 61
1, 316158, Note_off_c, 0, 53, 62
1, 316189, Note_off_c, 0, 48, 61
1, 316242, Note_off_c, 0, 101, 62
1, 316255, Note_off_c, 0, 89, 57
1, 316402, Note_on_c, 0, 88, 106
1, 316404, Note_on_c, 0, 100, 112
1, 316475, Note_on_c, 0, 29, 96
1, 316477, Note_on_c, 0, 35, 90
1, 316480, Note_off_c, 0, 100, 62
1, 316485, Note_off_c, 0, 88, 60
1, 316505, Note_on_c, 0, 33, 47
1, 316528, Note_off_c, 0, 29, 61
1, 316528, Note_off_c, 0, 35, 60
1, 316538, Note_off_c, 0, 33, 56
1, 316613, Note_on_c, 0, 99, 113
1, 316616, Note_on_c, 0, 87, 111
1, 316637, Note_on_c, 0, 97, 63
1, 316638, Note_off_c, 0, 97, 127
1, 316658, Note_off_c, 0, 87, 62
1, 316687, Note_off_c, 0, 99, 63
1, 316801, Note_on_c, 0, 59, 95
1, 316802, Note_on_c, 0, 53, 93
1, 316807, Note_on_c, 0, 48, 88
1, 316809, Note_on_c, 0, 88, 110
1, 316809, Note_on_c, 0, 100, 107
1, 316837, Note_off_c, 0, 59, 67
1, 316852, Note_off_c, 0, 53, 65
1, 316867, Note_off_c, 0, 48, 65
1, 316874, Note_off_c, 0, 100, 63
1, 316878, Note_off_c, 0, 88, 57
1, 317135, Note_on_c, 0, 29, 94
1, 317140, Note_on_c, 0, 35, 89
1, 317191, Note_off_c, 0, 35, 58
1, 317200, Note_off_c, 0, 29, 59
1, 317492, Note_on_c, 0, 52, 101
1, 317493, Note_on_c, 0, 45, 101
1, 317493, Control_c, 0, 64, 79
1, 317498, Note_on_c, 0, 59, 109
1, 317499, Note_on_c, 0, 53, 99
1, 317506, Note_on_c, 0, 48, 93
1, 317508, Control_c, 0, 64, 12
1, 317519, Note_on_c, 0, 54, 69
1, 317523, Control_c, 0, 64, 0
1, 317541, Note_off_c, 0, 54, 62
1, 317573, Note_off_c, 0, 59, 64
1, 317582, Control_c, 0, 64, 66
1, 317588, Note_off_c, 0, 48, 59
1, 317597, Control_c, 0, 64, 127
1, 317600, Note_off_c, 0, 53, 59
1, 317631, Note_on_c, 0, 48, 32
1, 317631, Note_off_c, 0, 45, 63
1, 317660, Note_off_c, 0, 52, 64
1, 317661, Note_off_c, 0, 48, 54
1, 317710, Poly_aftertouch_c, 0, 47, 0
1, 317849, Note_on_c, 0, 29, 78
1, 317852, Note_on_c, 0, 35, 76
1, 317859, Note_on_c, 0, 71, 100
1, 317863, Note_on_c, 0, 60, 92
1, 317919, Note_off_c, 0, 29, 59
1, 317942, Note_off_c, 0, 35, 60
1, 317964, Note_off_c, 0, 60, 59
1, 318182, Note_off_c, 0, 71, 58
1, 318214, Note_on_c, 0, 53, 91
1, 318214, Note_on_c, 0, 76, 94
1, 318216, Note_on_c, 0, 68, 95
1, 318217, Note_on_c, 0, 59, 87
1, 318222, Note_on_c, 0, 48, 78
1, 318249, Note_off_c, 0, 59, 66
1, 318263, Note_off_c, 0, 53, 63
1, 318290, Note_off_c, 0, 48, 62
1, 318382, Note_off_c, 0, 76, 56
1, 318542, Note_off_c, 0, 68, 61
1, 318566, Note_on_c, 0, 71, 100
1, 318572, Note_on_c, 0, 60, 92
1, 318576, Note_on_c, 0, 29, 83
1, 318577, Note_on_c, 0, 35, 74
1, 318583, Note_on_c, 0, 33, 75
1, 318598, Control_c, 0, 64, 89
1, 318613, Control_c, 0, 64, 71
1, 318627, Control_c, 0, 64, 63
1, 318632, Note_off_c, 0, 33, 49
1, 318657, Control_c, 0, 64, 66
1, 318667, Note_off_c, 0, 29, 61
1, 318671, Control_c, 0, 64, 72
1, 318686, Control_c, 0, 64, 84
1, 318694, Note_off_c, 0, 60, 55
1, 318700, Note_off_c, 0, 35, 60
1, 318701, Control_c, 0, 64, 127
1, 318914, Note_on_c, 0, 68, 91
1, 318914, Note_on_c, 0, 76, 97
1, 318929, Note_on_c, 0, 53, 90
1, 318935, Note_on_c, 0, 59, 82
1, 318936, Note_on_c, 0, 48, 77
1, 318945, Note_off_c, 0, 71, 56
1, 318947, Control_c, 0, 64, 105
1, 318962, Control_c, 0, 64, 78
1, 318976, Control_c, 0, 64, 65
1, 318991, Control_c, 0, 64, 52
1, 319006, Control_c, 0, 64, 52
1, 319021, Control_c, 0, 64, 59
1, 319033, Note_off_c, 0, 59, 62
1, 319036, Control_c, 0, 64, 64
1, 319050, Control_c, 0, 64, 70
1, 319057, Note_off_c, 0, 53, 62
1, 319065, Control_c, 0, 64, 82
1, 319068, Note_off_c, 0, 76, 59
1, 319080, Control_c, 0, 64, 127
1, 319081, Note_off_c, 0, 48, 64
1, 319273, Note_on_c, 0, 71, 93
1, 319276, Note_on_c, 0, 60, 86
1, 319287, Note_on_c, 0, 36, 71
1, 319296, Note_on_c, 0, 70, 59
1, 319296, Note_on_c, 0, 29, 68
1, 319300, Note_off_c, 0, 68, 62
1, 319301, Note_on_c, 0, 35, 66
1, 319302, Control_c, 0, 64, 99
1, 319317, Control_c, 0, 64, 78
1, 319323, Note_off_c, 0, 70, 38
1, 319332, Control_c, 0, 64, 65
1, 319341, Note_off_c, 0, 35, 46
1, 319347, Control_c, 0, 64, 53
1, 319362, Control_c, 0, 64, 40
1, 319376, Control_c, 0, 64, 41
1, 319389, Note_off_c, 0, 60, 54
1, 319391, Control_c, 0, 64, 51
1, 319406, Control_c, 0, 64, 60
1, 319413, Note_off_c, 0, 29, 59
1, 319416, Note_off_c, 0, 36, 62
1, 319421, Control_c, 0, 64, 67
1, 319436, Control_c, 0, 64, 78
1, 319450, Control_c, 0, 64, 127
1, 319695, Note_on_c, 0, 75, 95
1, 319698, Note_on_c, 0, 67, 79
1, 319707, Note_on_c, 0, 58, 81
1, 319711, Note_on_c, 0, 47, 69
1, 319711, Note_on_c, 0, 52, 75
1, 319737, Note_off_c, 0, 71, 56
1, 319740, Control_c, 0, 64, 100
1, 319755, Control_c, 0, 64, 76
1, 319770, Control_c, 0, 64, 63
1, 319785, Control_c, 0, 64, 43
1, 319799, Control_c, 0, 64, 21
1, 319814, Control_c, 0, 64, 22
1, 319829, Control_c, 0, 64, 37
1, 319844, Control_c, 0, 64, 56
1, 319859, Control_c, 0, 64, 63
1, 319866, Note_off_c, 0, 52, 60
1, 319866, Note_off_c, 0, 58, 62
1, 319873, Control_c, 0, 64, 69
1, 319888, Control_c, 0, 64, 81
1, 319903, Control_c, 0, 64, 127
1, 319928, Note_off_c, 0, 47, 62
1, 320146, Note_on_c, 0, 70, 87
1, 320153, Note_on_c, 0, 42, 80
1, 320157, Note_on_c, 0, 62, 70
1, 320165, Note_on_c, 0, 35, 66
1, 320169, Control_c, 0, 64, 105
1, 320184, Control_c, 0, 64, 83
1, 320199, Control_c, 0, 64, 66
1, 320205, Note_off_c, 0, 75, 56
1, 320207, Note_on_c, 0, 64, 23
1, 320208, Note_off_c, 0, 67, 62
1, 320214, Control_c, 0, 64, 48
1, 320229, Control_c, 0, 64, 0
1, 320248, Note_off_c, 0, 64, 40
1, 320288, Control_c, 0, 64, 44
1, 320295, Note_off_c, 0, 35, 60
1, 320303, Control_c, 0, 64, 63
1, 320324, Control_c, 0, 64, 72
1, 320336, Note_off_c, 0, 42, 63
1, 320339, Control_c, 0, 64, 96
1, 320354, Control_c, 0, 64, 127
1, 320534, Note_on_c, 0, 75, 87
1, 320537, Note_on_c, 0, 67, 79
1, 320545, Note_on_c, 0, 52, 68
1, 320550, Note_on_c, 0, 58, 73
1, 320552, Note_on_c, 0, 47, 58
1, 320563, Control_c, 0, 64, 102
1, 320578, Control_c, 0, 64, 78
1, 320582, Note_off_c, 0, 70, 57
1, 320593, Control_c, 0, 64, 66
1, 320608, Control_c, 0, 64, 54
1, 320616, Note_off_c, 0, 62, 30
1, 320622, Control_c, 0, 64, 45
1, 320637, Control_c, 0, 64, 53
1, 320652, Control_c, 0, 64, 62
1, 320655, Note_off_c, 0, 58, 64
1, 320659, Note_off_c, 0, 52, 64
1, 320666, Control_c, 0, 64, 69
1, 320681, Control_c, 0, 64, 84
1, 320696, Control_c, 0, 64, 127
1, 320712, Note_off_c, 0, 47, 62
1, 320786, Note_off_c, 0, 75, 60
1, 320877, Note_on_c, 0, 42, 76
1, 320880, Note_on_c, 0, 70, 89
1, 320887, Note_on_c, 0, 35, 60
1, 320890, Note_on_c, 0, 62, 76
1, 320903, Control_c, 0, 64, 95
1, 320917, Note_off_c, 0, 67, 61
1, 320918, Control_c, 0, 64, 76
1, 320933, Control_c, 0, 64, 64
1, 320947, Control_c, 0, 64, 49
1, 320962, Control_c, 0, 64, 41
1, 320977, Control_c, 0, 64, 49
1, 320992, Control_c, 0, 64, 60
1, 321000, Note_off_c, 0, 35, 61
1, 321007, Control_c, 0, 64, 66
1, 321022, Control_c, 0, 64, 74
1, 321023, Note_off_c, 0, 42, 63
1, 321037, Control_c, 0, 64, 100
1, 321052, Control_c, 0, 64, 127
1, 321153, Note_off_c, 0, 62, 55
1, 321207, Control_c, 0, 64, 107
1, 321222, Control_c, 0, 64, 83
1, 321227, Note_on_c, 0, 74, 82
1, 321229, Note_on_c, 0, 67, 72
1, 321234, Note_on_c, 0, 51, 69
1, 321236, Control_c, 0, 64, 73
1, 321237, Note_on_c, 0, 58, 68
1, 321245, Note_on_c, 0, 46, 54
1, 321251, Control_c, 0, 64, 66
1, 321266, Control_c, 0, 64, 60
1, 321278, Note_off_c, 0, 70, 55
1, 321281, Control_c, 0, 64, 52
1, 321296, Control_c, 0, 64, 48
1, 321311, Control_c, 0, 64, 50
1, 321326, Control_c, 0, 64, 58
1, 321338, Note_off_c, 0, 58, 64
1, 321341, Control_c, 0, 64, 65
1, 321356, Control_c, 0, 64, 72
1, 321371, Control_c, 0, 64, 92
1, 321373, Note_off_c, 0, 51, 61
1, 321386, Control_c, 0, 64, 127
1, 321413, Note_off_c, 0, 46, 62
1, 321487, Note_off_c, 0, 74, 49
1, 321576, Note_on_c, 0, 70, 78
1, 321579, Note_on_c, 0, 59, 68
1, 321582, Note_on_c, 0, 40, 62
1, 321587, Note_on_c, 0, 31, 60
1, 321628, Note_off_c, 0, 31, 57
1, 321644, Note_off_c, 0, 67, 51
1, 321659, Note_off_c, 0, 40, 54
1, 321756, Note_off_c, 0, 59, 48
1, 321916, Note_on_c, 0, 74, 78
1, 321920, Note_on_c, 0, 67, 70
1, 321932, Note_on_c, 0, 51, 64
1, 321937, Note_on_c, 0, 58, 62
1, 321950, Note_on_c, 0, 46, 43
1, 321967, Note_off_c, 0, 70, 57
1, 321979, Note_off_c, 0, 58, 61
1, 322020, Note_off_c, 0, 51, 60
1, 322067, Note_off_c, 0, 46, 60
1, 322164, Note_off_c, 0, 74, 49
1, 322273, Note_on_c, 0, 40, 60
1, 322275, Note_on_c, 0, 59, 64
1, 322277, Note_on_c, 0, 31, 53
1, 322277, Note_on_c, 0, 70, 79
1, 322317, Note_off_c, 0, 31, 53
1, 322364, Note_off_c, 0, 40, 59
1, 322384, Note_off_c, 0, 67, 38
1, 322414, Note_off_c, 0, 59, 55
1, 322620, Note_on_c, 0, 74, 76
1, 322629, Note_on_c, 0, 67, 72
1, 322635, Note_on_c, 0, 51, 62
1, 322636, Note_on_c, 0, 58, 64
1, 322651, Note_on_c, 0, 46, 49
1, 322670, Note_off_c, 0, 58, 64
1, 322673, Note_off_c, 0, 70, 58
1, 322704, Note_off_c, 0, 51, 61
1, 322739, Note_off_c, 0, 46, 62
1, 322778, Note_off_c, 0, 74, 54
1, 322973, Note_on_c, 0, 31, 59
1, 322976, Note_on_c, 0, 40, 57
1, 322979, Note_on_c, 0, 59, 73
1, 322979, Note_on_c, 0, 70, 82
1, 323003, Note_off_c, 0, 67, 60
1, 323013, Note_off_c, 0, 31, 61
1, 323029, Note_off_c, 0, 59, 62
1, 323049, Note_off_c, 0, 40, 62
1, 323064, Note_off_c, 0, 70, 62
1, 323419, Note_on_c, 0, 58, 81
1, 323419, Note_on_c, 0, 51, 81
1, 323420, Note_on_c, 0, 46, 72
1, 323421, Note_on_c, 0, 89, 108
1, 323421, Note_on_c, 0, 101, 118
1, 323445, Note_off_c, 0, 58, 69
1, 323470, Note_off_c, 0, 51, 63
1, 323488, Note_off_c, 0, 46, 63
1, 323553, Note_off_c, 0, 101, 62
1, 323562, Note_off_c, 0, 89, 58
1, 323739, Note_on_c, 0, 88, 109
1, 323739, Note_on_c, 0, 100, 112
1, 323786, Note_off_c, 0, 88, 58
1, 323797, Note_off_c, 0, 100, 63
1, 323818, Note_on_c, 0, 31, 75
1, 323819, Note_on_c, 0, 40, 84
1, 323851, Note_off_c, 0, 31, 65
1, 323875, Note_off_c, 0, 40, 61
1, 323952, Note_on_c, 0, 99, 124
1, 323955, Note_on_c, 0, 87, 109
1, 323979, Note_on_c, 0, 88, 59
1, 323980, Note_off_c, 0, 88, 127
1, 323982, Note_on_c, 0, 100, 50
1, 323987, Note_off_c, 0, 87, 66
1, 324005, Note_off_c, 0, 100, 57
1, 324008, Note_off_c, 0, 99, 63
1, 324152, Note_on_c, 0, 58, 76
1, 324155, Note_on_c, 0, 51, 76
1, 324155, Note_on_c, 0, 46, 79
1, 324159, Note_on_c, 0, 88, 106
1, 324161, Note_on_c, 0, 100, 111
1, 324173, Note_off_c, 0, 58, 71
1, 324184, Note_off_c, 0, 51, 67
1, 324190, Note_off_c, 0, 88, 68
1, 324197, Note_off_c, 0, 100, 68
1, 324210, Note_off_c, 0, 46, 63
1, 324460, Note_on_c, 0, 31, 82
1, 324460, Note_on_c, 0, 40, 84
1, 324501, Note_off_c, 0, 31, 62
1, 324511, Note_off_c, 0, 40, 63
1, 324833, Control_c, 0, 64, 79
1, 324837, Note_on_c, 0, 58, 107
1, 324837, Note_on_c, 0, 52, 104
1, 324838, Note_on_c, 0, 51, 98
1, 324839, Note_on_c, 0, 45, 102
1, 324843, Note_on_c, 0, 46, 96
1, 324848, Control_c, 0, 64, 22
1, 324863, Control_c, 0, 64, 0
1, 324869, Note_on_c, 0, 50, 56
1, 324900, Note_off_c, 0, 50, 57
1, 324906, Note_off_c, 0, 58, 66
1, 324921, Control_c, 0, 64, 58
1, 324936, Control_c, 0, 64, 90
1, 324951, Control_c, 0, 64, 127
1, 324960, Note_off_c, 0, 51, 59
1, 324969, Note_off_c, 0, 45, 63
1, 324983, Note_off_c, 0, 46, 63
1, 325006, Note_off_c, 0, 52, 64
1, 325201, Note_on_c, 0, 40, 69
1, 325204, Note_on_c, 0, 31, 66
1, 325207, Note_on_c, 0, 70, 81
1, 325249, Note_off_c, 0, 31, 62
1, 325269, Note_off_c, 0, 40, 60
1, 325535, Note_on_c, 0, 58, 53
1, 325541, Note_on_c, 0, 74, 70
1, 325547, Note_on_c, 0, 51, 49
1, 325547, Note_on_c, 0, 67, 57
1, 325550, Note_on_c, 0, 46, 40
1, 325568, Control_c, 0, 64, 97
1, 325583, Control_c, 0, 64, 79
1, 325598, Control_c, 0, 64, 71
1, 325608, Note_off_c, 0, 70, 55
1, 325612, Control_c, 0, 64, 72
1, 325625, Note_off_c, 0, 58, 63
1, 325627, Control_c, 0, 64, 76
1, 325642, Control_c, 0, 64, 86
1, 325657, Control_c, 0, 64, 127
1, 325675, Note_off_c, 0, 51, 58
1, 325717, Note_on_c, 0, 64, 71
1, 325723, Note_off_c, 0, 46, 55
1, 325735, Note_off_c, 0, 74, 59
1, 325774, Note_off_c, 0, 64, 64
1, 325869, Note_on_c, 0, 40, 60
1, 325871, Note_on_c, 0, 31, 60
1, 325873, Note_on_c, 0, 70, 82
1, 325881, Note_on_c, 0, 59, 71
1, 325893, Control_c, 0, 64, 90
1, 325908, Control_c, 0, 64, 74
1, 325923, Control_c, 0, 64, 65
1, 325937, Control_c, 0, 64, 60
1, 325943, Note_off_c, 0, 59, 63
1, 325944, Note_off_c, 0, 67, 58
1, 325952, Control_c, 0, 64, 61
1, 325967, Note_off_c, 0, 31, 62
1, 325967, Control_c, 0, 64, 65
1, 325982, Control_c, 0, 64, 73
1, 325997, Control_c, 0, 64, 87
1, 325998, Note_off_c, 0, 40, 62
1, 326012, Control_c, 0, 64, 127
1, 326027, Note_on_c, 0, 63, 83
1, 326137, Note_off_c, 0, 63, 61
1, 326190, Control_c, 0, 64, 115
1, 326192, Note_on_c, 0, 51, 57
1, 326196, Note_on_c, 0, 74, 79
1, 326200, Note_on_c, 0, 67, 65
1, 326204, Note_on_c, 0, 58, 51
1, 326205, Control_c, 0, 64, 82
1, 326220, Control_c, 0, 64, 67
1, 326222, Note_on_c, 0, 46, 41
1, 326234, Control_c, 0, 64, 58
1, 326247, Note_off_c, 0, 70, 57
1, 326249, Control_c, 0, 64, 52
1, 326264, Control_c, 0, 64, 55
1, 326265, Note_off_c, 0, 58, 60
1, 326279, Control_c, 0, 64, 61
1, 326294, Control_c, 0, 64, 67
1, 326316, Control_c, 0, 64, 76
1, 326319, Note_off_c, 0, 51, 62
1, 326331, Control_c, 0, 64, 96
1, 326346, Control_c, 0, 64, 127
1, 326359, Note_on_c, 0, 64, 71
1, 326359, Note_off_c, 0, 46, 63
1, 326402, Note_off_c, 0, 74, 53
1, 326408, Note_off_c, 0, 64, 58
1, 326509, Control_c, 0, 64, 110
1, 326523, Control_c, 0, 64, 85
1, 326528, Note_on_c, 0, 70, 71
1, 326530, Note_on_c, 0, 40, 51
1, 326536, Note_on_c, 0, 31, 46
1, 326536, Note_on_c, 0, 59, 61
1, 326538, Control_c, 0, 64, 70
1, 326553, Control_c, 0, 64, 60
1, 326567, Control_c, 0, 64, 49
1, 326572, Note_off_c, 0, 59, 63
1, 326582, Control_c, 0, 64, 45
1, 326597, Control_c, 0, 64, 49
1, 326601, Note_off_c, 0, 67, 57
1, 326607, Note_off_c, 0, 31, 61
1, 326612, Control_c, 0, 64, 59
1, 326627, Control_c, 0, 64, 67
1, 326636, Note_off_c, 0, 40, 63
1, 326641, Control_c, 0, 64, 77
1, 326656, Control_c, 0, 64, 104
1, 326671, Control_c, 0, 64, 127
1, 326676, Note_on_c, 0, 63, 66
1, 326774, Note_off_c, 0, 63, 58
1, 326849, Control_c, 0, 64, 91
1, 326853, Note_on_c, 0, 51, 46
1, 326864, Control_c, 0, 64, 74
1, 326874, Note_on_c, 0, 58, 36
1, 326874, Note_on_c, 0, 74, 63
1, 326879, Control_c, 0, 64, 63
1, 326882, Note_on_c, 0, 67, 41
1, 326883, Note_off_c, 0, 70, 58
1, 326888, Note_on_c, 0, 46, 33
1, 326893, Control_c, 0, 64, 43
1, 326909, Control_c, 0, 64, 0
1, 326939, Control_c, 0, 64, 17
1, 326951, Note_off_c, 0, 58, 63
1, 326954, Control_c, 0, 64, 45
1, 326969, Control_c, 0, 64, 60
1, 326983, Control_c, 0, 64, 68
1, 326996, Note_off_c, 0, 51, 63
1, 326998, Control_c, 0, 64, 84
1, 327010, Note_off_c, 0, 67, 62
1, 327013, Control_c, 0, 64, 127
1, 327026, Note_off_c, 0, 46, 54
1, 327030, Note_off_c, 0, 74, 62
1, 327237, Note_on_c, 0, 40, 37
1, 327247, Note_on_c, 0, 86, 71
1, 327252, Note_on_c, 0, 31, 42
1, 327261, Note_on_c, 0, 79, 48
1, 327327, Note_off_c, 0, 31, 50
1, 327408, Note_off_c, 0, 40, 41
1, 327583, Note_on_c, 0, 85, 81
1, 327585, Note_on_c, 0, 78, 72
1, 327595, Note_on_c, 0, 58, 54
1, 327598, Note_on_c, 0, 46, 52
1, 327604, Note_on_c, 0, 51, 53
1, 327639, Note_off_c, 0, 58, 62
1, 327668, Note_off_c, 0, 79, 58
1, 327685, Note_off_c, 0, 51, 60
1, 327711, Note_off_c, 0, 46, 60
1, 327917, Note_on_c, 0, 40, 53
1, 327924, Note_on_c, 0, 75, 70
1, 327924, Note_on_c, 0, 82, 82
1, 327928, Note_on_c, 0, 31, 43
1, 327963, Note_off_c, 0, 86, 55
1, 327976, Control_c, 0, 64, 101
1, 327991, Control_c, 0, 64, 78
1, 328006, Control_c, 0, 64, 68
1, 328020, Control_c, 0, 64, 65
1, 328033, Note_off_c, 0, 31, 63
1, 328035, Control_c, 0, 64, 68
1, 328050, Control_c, 0, 64, 78
1, 328051, Note_off_c, 0, 85, 64
1, 328053, Note_off_c, 0, 40, 58
1, 328054, Note_off_c, 0, 78, 63
1, 328065, Control_c, 0, 64, 103
1, 328080, Note_off_c, 0, 82, 63
1, 328080, Control_c, 0, 64, 127
1, 328271, Note_on_c, 0, 81, 77
1, 328274, Note_on_c, 0, 51, 53
1, 328277, Note_on_c, 0, 73, 67
1, 328279, Note_on_c, 0, 58, 47
1, 328286, Control_c, 0, 64, 100
1, 328289, Note_on_c, 0, 46, 41
1, 328301, Control_c, 0, 64, 75
1, 328316, Control_c, 0, 64, 65
1, 328331, Control_c, 0, 64, 60
1, 328345, Note_off_c, 0, 75, 58
1, 328346, Control_c, 0, 64, 57
1, 328376, Control_c, 0, 64, 59
1, 328391, Control_c, 0, 64, 64
1, 328396, Note_off_c, 0, 58, 46
1, 328405, Control_c, 0, 64, 71
1, 328419, Control_c, 0, 64, 88
1, 328425, Note_off_c, 0, 51, 62
1, 328432, Note_off_c, 0, 46, 62
1, 328434, Control_c, 0, 64, 127
1, 328604, Note_on_c, 0, 79, 68
1, 328611, Note_on_c, 0, 69, 60
1, 328618, Note_on_c, 0, 31, 39
1, 328620, Note_on_c, 0, 40, 42
1, 328635, Control_c, 0, 64, 89
1, 328650, Control_c, 0, 64, 70
1, 328651, Note_off_c, 0, 73, 59
1, 328658, Note_off_c, 0, 81, 57
1, 328665, Control_c, 0, 64, 57
1, 328680, Control_c, 0, 64, 38
1, 328695, Control_c, 0, 64, 36
1, 328707, Note_off_c, 0, 69, 55
1, 328709, Control_c, 0, 64, 44
1, 328724, Control_c, 0, 64, 58
1, 328726, Note_off_c, 0, 31, 59
1, 328739, Control_c, 0, 64, 66
1, 328754, Control_c, 0, 64, 76
1, 328768, Control_c, 0, 64, 127
1, 328778, Note_off_c, 0, 40, 33
1, 328804, Note_off_c, 0, 79, 65
1, 328961, Note_on_c, 0, 78, 65
1, 328961, Note_on_c, 0, 84, 71
1, 328975, Note_on_c, 0, 58, 45
1, 328979, Note_on_c, 0, 51, 48
1, 328984, Note_on_c, 0, 46, 31
1, 329052, Note_off_c, 0, 58, 61
1, 329076, Note_off_c, 0, 51, 58
1, 329133, Note_off_c, 0, 46, 55
1, 329297, Note_on_c, 0, 82, 83
1, 329312, Note_on_c, 0, 75, 67
1, 329319, Note_on_c, 0, 40, 62
1, 329330, Note_on_c, 0, 31, 52
1, 329383, Note_off_c, 0, 31, 59
1, 329389, Note_off_c, 0, 84, 56
1, 329406, Note_off_c, 0, 78, 63
1, 329412, Note_off_c, 0, 40, 60
1, 329494, Note_off_c, 0, 82, 53
1, 329633, Note_on_c, 0, 81, 85
1, 329644, Note_on_c, 0, 73, 71
1, 329645, Note_on_c, 0, 58, 71
1, 329650, Note_on_c, 0, 46, 55
1, 329656, Note_off_c, 0, 75, 61
1, 329664, Note_on_c, 0, 51, 56
1, 329714, Note_off_c, 0, 58, 62
1, 329758, Note_off_c, 0, 51, 63
1, 329781, Note_off_c, 0, 46, 62
1, 329817, Note_off_c, 0, 81, 59
1, 329973, Note_on_c, 0, 79, 84
1, 329978, Note_on_c, 0, 39, 67
1, 329980, Note_on_c, 0, 69, 72
1, 329991, Control_c, 0, 64, 120
1, 329992, Note_on_c, 0, 27, 49
1, 330006, Control_c, 0, 64, 98
1, 330021, Control_c, 0, 64, 82
1, 330036, Control_c, 0, 64, 70
1, 330058, Control_c, 0, 64, 61
1, 330073, Control_c, 0, 64, 49
1, 330088, Control_c, 0, 64, 46
1, 330104, Control_c, 0, 64, 48
1, 330119, Control_c, 0, 64, 54
1, 330134, Control_c, 0, 64, 61
1, 330149, Control_c, 0, 64, 66
1, 330163, Control_c, 0, 64, 74
1, 330178, Control_c, 0, 64, 101
1, 330181, Note_off_c, 0, 69, 55
1, 330193, Control_c, 0, 64, 127
1, 330223, Note_off_c, 0, 39, 56
1, 330241, Note_off_c, 0, 27, 53
1, 330325, Note_on_c, 0, 77, 68
1, 330329, Note_on_c, 0, 67, 53
1, 330340, Note_on_c, 0, 29, 51
1, 330341, Note_on_c, 0, 41, 45
1, 330355, Control_c, 0, 64, 122
1, 330370, Control_c, 0, 64, 91
1, 330385, Control_c, 0, 64, 75
1, 330387, Note_off_c, 0, 79, 64
1, 330400, Control_c, 0, 64, 65
1, 330406, Note_off_c, 0, 73, 58
1, 330415, Control_c, 0, 64, 56
1, 330430, Control_c, 0, 64, 43
1, 330445, Control_c, 0, 64, 36
1, 330474, Control_c, 0, 64, 40
1, 330489, Control_c, 0, 64, 52
1, 330504, Note_off_c, 0, 41, 60
1, 330504, Control_c, 0, 64, 62
1, 330519, Control_c, 0, 64, 67
1, 330533, Control_c, 0, 64, 73
1, 330548, Control_c, 0, 64, 93
1, 330563, Control_c, 0, 64, 127
1, 330641, Poly_aftertouch_c, 0, 31, 127
1, 330712, Note_on_c, 0, 74, 57
1, 330721, Note_on_c, 0, 70, 49
1, 330726, Note_on_c, 0, 32, 38
1, 330729, Note_on_c, 0, 44, 16
1, 330740, Control_c, 0, 64, 99
1, 330755, Control_c, 0, 64, 84
1, 330770, Control_c, 0, 64, 73
1, 330778, Note_off_c, 0, 77, 53
1, 330782, Note_off_c, 0, 29, 39
1, 330785, Control_c, 0, 64, 64
1, 330807, Poly_aftertouch_c, 0, 31, 0
1, 330807, Control_c, 0, 64, 55
1, 330822, Control_c, 0, 64, 40
1, 330826, Note_off_c, 0, 67, 52
1, 330837, Control_c, 0, 64, 35
1, 330867, Control_c, 0, 64, 41
1, 330881, Control_c, 0, 64, 55
1, 330888, Note_off_c, 0, 32, 53
1, 330896, Control_c, 0, 64, 64
1, 330912, Control_c, 0, 64, 72
1, 330927, Control_c, 0, 64, 89
1, 330940, Note_off_c, 0, 44, 39
1, 330942, Control_c, 0, 64, 127
1, 331175, Note_off_c, 0, 74, 56
1, 331187, Note_on_c, 0, 64, 45
1, 331187, Note_on_c, 0, 73, 51
1, 331197, Note_on_c, 0, 48, 36
1, 331208, Control_c, 0, 64, 108
1, 331212, Note_on_c, 0, 56, 30
1, 331223, Control_c, 0, 64, 89
1, 331234, Note_off_c, 0, 70, 60
1, 331237, Control_c, 0, 64, 76
1, 331252, Control_c, 0, 64, 66
1, 331267, Control_c, 0, 64, 58
1, 331282, Control_c, 0, 64, 47
1, 331297, Control_c, 0, 64, 48
1, 331312, Control_c, 0, 64, 55
1, 331327, Control_c, 0, 64, 63
1, 331342, Control_c, 0, 64, 69
1, 331351, Note_off_c, 0, 56, 55
1, 331356, Control_c, 0, 64, 80
1, 331366, Note_off_c, 0, 48, 53
1, 331371, Control_c, 0, 64, 127
1, 331708, Note_on_c, 0, 60, 42
1, 331708, Note_on_c, 0, 68, 49
1, 331726, Note_on_c, 0, 39, 34
1, 331729, Note_on_c, 0, 33, 27
1, 331750, Control_c, 0, 64, 82
1, 331765, Control_c, 0, 64, 66
1, 331779, Control_c, 0, 64, 52
1, 331784, Note_off_c, 0, 64, 41
1, 331794, Control_c, 0, 64, 43
1, 331796, Note_off_c, 0, 73, 38
1, 331809, Control_c, 0, 64, 51
1, 331824, Control_c, 0, 64, 62
1, 331839, Control_c, 0, 64, 71
1, 331853, Control_c, 0, 64, 94
1, 331858, Note_off_c, 0, 33, 52
1, 331868, Control_c, 0, 64, 127
1, 331887, Note_off_c, 0, 39, 43
1, 332126, Note_on_c, 0, 73, 53
1, 332135, Note_on_c, 0, 64, 39
1, 332144, Note_on_c, 0, 56, 29
1, 332147, Note_on_c, 0, 48, 30
1, 332194, Note_off_c, 0, 60, 15
1, 332214, Note_off_c, 0, 68, 27
1, 332242, Note_off_c, 0, 56, 58
1, 332281, Note_off_c, 0, 48, 47
1, 332313, Note_off_c, 0, 73, 61
1, 332318, Note_on_c, 0, 60, 66
1, 332358, Note_off_c, 0, 60, 63
1, 332473, Note_on_c, 0, 68, 69
1, 332481, Note_on_c, 0, 56, 56
1, 332505, Note_off_c, 0, 56, 62
1, 332525, Note_on_c, 0, 33, 37
1, 332529, Note_off_c, 0, 64, 35
1, 332543, Poly_aftertouch_c, 0, 31, 127
1, 332580, Poly_aftertouch_c, 0, 39, 127
1, 332584, Note_off_c, 0, 33, 60
1, 332592, Poly_aftertouch_c, 0, 31, 0
1, 332603, Note_on_c, 0, 60, 67
1, 332622, Poly_aftertouch_c, 0, 39, 0
1, 332804, Note_on_c, 0, 73, 66
1, 332809, Control_c, 0, 64, 110
1, 332811, Note_on_c, 0, 64, 53
1, 332823, Note_on_c, 0, 56, 44
1, 332824, Control_c, 0, 64, 87
1, 332829, Note_on_c, 0, 48, 38
1, 332837, Note_off_c, 0, 68, 48
1, 332839, Control_c, 0, 64, 73
1, 332847, Note_off_c, 0, 60, 22
1, 332854, Control_c, 0, 64, 62
1, 332868, Control_c, 0, 64, 43
1, 332883, Control_c, 0, 64, 27
1, 332898, Control_c, 0, 64, 27
1, 332913, Control_c, 0, 64, 38
1, 332928, Control_c, 0, 64, 54
1, 332933, Note_off_c, 0, 56, 62
1, 332943, Control_c, 0, 64, 63
1, 332957, Control_c, 0, 64, 70
1, 332971, Note_off_c, 0, 48, 55
1, 332972, Control_c, 0, 64, 85
1, 332987, Control_c, 0, 64, 127
1, 333044, Note_off_c, 0, 73, 57
1, 333199, Note_off_c, 0, 64, 56
1, 333200, Note_on_c, 0, 33, 37
1, 333205, Note_on_c, 0, 68, 53
1, 333211, Note_on_c, 0, 60, 47
1, 333214, Note_on_c, 0, 39, 36
1, 333279, Note_off_c, 0, 60, 62
1, 333283, Note_off_c, 0, 33, 55
1, 333308, Note_off_c, 0, 68, 60
1, 333310, Note_off_c, 0, 39, 47
1, 333690, Note_on_c, 0, 48, 65
1, 333690, Note_on_c, 0, 89, 113
1, 333692, Note_on_c, 0, 101, 115
1, 333699, Note_on_c, 0, 56, 55
1, 333726, Note_off_c, 0, 48, 65
1, 333729, Note_off_c, 0, 56, 64
1, 333736, Note_off_c, 0, 89, 57
1, 333742, Note_off_c, 0, 101, 58
1, 334028, Note_on_c, 0, 88, 111
1, 334030, Note_on_c, 0, 100, 106
1, 334060, Note_off_c, 0, 88, 68
1, 334065, Note_off_c, 0, 100, 66
1, 334114, Note_on_c, 0, 33, 62
1, 334123, Note_on_c, 0, 39, 67
1, 334149, Note_off_c, 0, 33, 61
1, 334162, Note_off_c, 0, 39, 62
1, 334248, Note_on_c, 0, 99, 120
1, 334250, Note_on_c, 0, 87, 106
1, 334283, Note_off_c, 0, 87, 62
1, 334289, Note_off_c, 0, 99, 65
1, 334452, Note_on_c, 0, 56, 73
1, 334454, Note_on_c, 0, 100, 103
1, 334455, Note_on_c, 0, 48, 68
1, 334455, Note_on_c, 0, 88, 101
1, 334484, Note_off_c, 0, 56, 66
1, 334485, Note_off_c, 0, 100, 69
1, 334488, Note_off_c, 0, 88, 66
1, 334493, Note_off_c, 0, 48, 64
1, 334796, Note_on_c, 0, 39, 73
1, 334803, Note_on_c, 0, 33, 62
1, 334844, Note_off_c, 0, 33, 63
1, 334859, Note_off_c, 0, 39, 60
1, 335160, Control_c, 0, 64, 116
1, 335169, Note_on_c, 0, 56, 93
1, 335170, Note_on_c, 0, 52, 97
1, 335171, Note_on_c, 0, 45, 96
1, 335175, Control_c, 0, 64, 66
1, 335177, Note_on_c, 0, 48, 78
1, 335190, Control_c, 0, 64, 0
1, 335234, Control_c, 0, 64, 45
1, 335249, Control_c, 0, 64, 71
1, 335264, Control_c, 0, 64, 127
1, 335268, Note_off_c, 0, 56, 64
1, 335286, Note_off_c, 0, 45, 62
1, 335303, Note_off_c, 0, 48, 60
1, 335337, Note_off_c, 0, 52, 65
1, 335564, Note_on_c, 0, 68, 71
1, 335569, Note_on_c, 0, 39, 51
1, 335569, Note_on_c, 0, 33, 47
1, 335575, Note_on_c, 0, 60, 65
1, 335634, Note_off_c, 0, 33, 58
1, 335667, Note_off_c, 0, 39, 57
1, 335906, Note_on_c, 0, 56, 53
1, 335907, Note_on_c, 0, 48, 44
1, 335909, Note_on_c, 0, 73, 73
1, 335914, Note_on_c, 0, 64, 59
1, 335938, Control_c, 0, 64, 125
1, 335953, Control_c, 0, 64, 87
1, 335955, Note_off_c, 0, 68, 56
1, 335968, Control_c, 0, 64, 75
1, 335983, Control_c, 0, 64, 69
1, 335998, Control_c, 0, 64, 70
1, 336013, Control_c, 0, 64, 77
1, 336018, Note_off_c, 0, 56, 63
1, 336027, Control_c, 0, 64, 93
1, 336034, Note_off_c, 0, 60, 34
1, 336034, Note_off_c, 0, 48, 59
1, 336049, Control_c, 0, 64, 127
1, 336278, Note_on_c, 0, 68, 64
1, 336287, Note_on_c, 0, 60, 49
1, 336287, Control_c, 0, 64, 125
1, 336290, Note_on_c, 0, 39, 44
1, 336291, Note_on_c, 0, 33, 38
1, 336301, Control_c, 0, 64, 89
1, 336316, Control_c, 0, 64, 76
1, 336331, Control_c, 0, 64, 69
1, 336338, Note_off_c, 0, 64, 49
1, 336345, Control_c, 0, 64, 64
1, 336360, Control_c, 0, 64, 63
1, 336375, Control_c, 0, 64, 65
1, 336379, Note_off_c, 0, 73, 51
1, 336390, Control_c, 0, 64, 70
1, 336399, Note_off_c, 0, 33, 52
1, 336405, Control_c, 0, 64, 84
1, 336419, Control_c, 0, 64, 117
1, 336434, Control_c, 0, 64, 127
1, 336453, Note_off_c, 0, 39, 40
1, 336627, Note_on_c, 0, 73, 67
1, 336628, Control_c, 0, 64, 96
1, 336634, Note_on_c, 0, 56, 48
1, 336636, Note_on_c, 0, 64, 49
1, 336641, Note_on_c, 0, 48, 39
1, 336643, Control_c, 0, 64, 78
1, 336657, Control_c, 0, 64, 67
1, 336672, Control_c, 0, 64, 62
1, 336687, Note_off_c, 0, 60, 22
1, 336687, Control_c, 0, 64, 59
1, 336695, Note_off_c, 0, 68, 55
1, 336702, Control_c, 0, 64, 60
1, 336716, Control_c, 0, 64, 63
1, 336725, Note_off_c, 0, 56, 63
1, 336731, Control_c, 0, 64, 68
1, 336744, Note_off_c, 0, 48, 56
1, 336746, Control_c, 0, 64, 76
1, 336761, Control_c, 0, 64, 90
1, 336776, Control_c, 0, 64, 127
1, 336988, Note_on_c, 0, 68, 60
1, 336991, Control_c, 0, 64, 105
1, 337002, Note_on_c, 0, 33, 32
1, 337002, Note_on_c, 0, 60, 43
1, 337004, Note_on_c, 0, 39, 43
1, 337005, Control_c, 0, 64, 84
1, 337017, Note_off_c, 0, 73, 47
1, 337020, Control_c, 0, 64, 72
1, 337035, Control_c, 0, 64, 64
1, 337050, Control_c, 0, 64, 57
1, 337062, Note_off_c, 0, 64, 58
1, 337065, Control_c, 0, 64, 52
1, 337080, Control_c, 0, 64, 52
1, 337095, Control_c, 0, 64, 56
1, 337110, Control_c, 0, 64, 61
1, 337117, Note_off_c, 0, 33, 55
1, 337124, Control_c, 0, 64, 65
1, 337139, Control_c, 0, 64, 70
1, 337154, Control_c, 0, 64, 83
1, 337168, Control_c, 0, 64, 111
1, 337183, Note_off_c, 0, 39, 42
1, 337183, Control_c, 0, 64, 127
1, 337205, Note_off_c, 0, 60, 36
1, 337367, Note_on_c, 0, 73, 71
1, 337374, Note_on_c, 0, 64, 51
1, 337378, Note_on_c, 0, 48, 36
1, 337390, Note_on_c, 0, 56, 34
1, 337407, Control_c, 0, 64, 99
1, 337421, Control_c, 0, 64, 84
1, 337436, Control_c, 0, 64, 72
1, 337443, Note_off_c, 0, 68, 58
1, 337451, Control_c, 0, 64, 65
1, 337465, Control_c, 0, 64, 59
1, 337480, Control_c, 0, 64, 55
1, 337510, Control_c, 0, 64, 56
1, 337525, Control_c, 0, 64, 60
1, 337547, Control_c, 0, 64, 63
1, 337562, Control_c, 0, 64, 66
1, 337577, Control_c, 0, 64, 71
1, 337590, Note_off_c, 0, 48, 53
1, 337592, Note_off_c, 0, 56, 48
1, 337592, Control_c, 0, 64, 80
1, 337606, Control_c, 0, 64, 97
1, 337621, Control_c, 0, 64, 127
1, 337742, Note_on_c, 0, 39, 48
1, 337743, Note_on_c, 0, 60, 67
1, 337884, Note_off_c, 0, 60, 63
1, 337890, Note_off_c, 0, 73, 60
1, 338146, Note_on_c, 0, 68, 53
1, 338153, Note_on_c, 0, 56, 49
1, 338154, Note_on_c, 0, 33, 31
1, 338156, Control_c, 0, 64, 117
1, 338166, Note_off_c, 0, 39, 38
1, 338170, Control_c, 0, 64, 97
1, 338185, Control_c, 0, 64, 86
1, 338200, Control_c, 0, 64, 78
1, 338214, Control_c, 0, 64, 70
1, 338229, Control_c, 0, 64, 64
1, 338244, Control_c, 0, 64, 55
1, 338259, Control_c, 0, 64, 42
1, 338274, Control_c, 0, 64, 40
1, 338296, Control_c, 0, 64, 41
1, 338307, Note_off_c, 0, 64, 27
1, 338311, Control_c, 0, 64, 52
1, 338326, Control_c, 0, 64, 61
1, 338329, Note_off_c, 0, 56, 51
1, 338341, Control_c, 0, 64, 67
1, 338356, Control_c, 0, 64, 74
1, 338370, Control_c, 0, 64, 91
1, 338385, Control_c, 0, 64, 127
1, 338549, Note_on_c, 0, 60, 40
1, 338551, Note_off_c, 0, 33, 37
1, 338559, Note_on_c, 0, 39, 37
1, 338563, Control_c, 0, 64, 97
1, 338577, Control_c, 0, 64, 82
1, 338592, Control_c, 0, 64, 73
1, 338607, Control_c, 0, 64, 67
1, 338621, Control_c, 0, 64, 63
1, 338636, Control_c, 0, 64, 59
1, 338651, Control_c, 0, 64, 57
1, 338666, Control_c, 0, 64, 58
1, 338681, Control_c, 0, 64, 59
1, 338696, Control_c, 0, 64, 62
1, 338711, Control_c, 0, 64, 64
1, 338725, Control_c, 0, 64, 68
1, 338740, Control_c, 0, 64, 74
1, 338755, Control_c, 0, 64, 84
1, 338770, Control_c, 0, 64, 104
1, 338773, Note_off_c, 0, 39, 39
1, 338785, Control_c, 0, 64, 127
1, 338946, Note_off_c, 0, 60, 24
1, 339095, Note_on_c, 0, 48, 33
1, 339098, Note_on_c, 0, 56, 33
1, 339098, Note_on_c, 0, 73, 45
1, 339104, Note_on_c, 0, 64, 42
1, 339147, Control_c, 0, 64, 113
1, 339162, Control_c, 0, 64, 101
1, 339177, Control_c, 0, 64, 92
1, 339191, Control_c, 0, 64, 84
1, 339206, Control_c, 0, 64, 77
1, 339221, Control_c, 0, 64, 73
1, 339236, Control_c, 0, 64, 70
1, 339250, Control_c, 0, 64, 66
1, 339265, Control_c, 0, 64, 61
1, 339278, Note_off_c, 0, 68, 33
1, 339280, Control_c, 0, 64, 56
1, 339295, Control_c, 0, 64, 50
1, 339310, Control_c, 0, 64, 47
1, 339325, Control_c, 0, 64, 46
1, 339354, Control_c, 0, 64, 47
1, 339369, Control_c, 0, 64, 50
1, 339384, Control_c, 0, 64, 56
1, 339399, Control_c, 0, 64, 60
1, 339414, Control_c, 0, 64, 63
1, 339429, Control_c, 0, 64, 66
1, 339443, Control_c, 0, 64, 70
1, 339458, Control_c, 0, 64, 78
1, 339473, Control_c, 0, 64, 100
1, 339488, Control_c, 0, 64, 127
1, 339550, Note_off_c, 0, 48, 39
1, 339655, Note_off_c, 0, 64, 32
1, 339713, Note_off_c, 0, 73, 56
1, 339728, Note_off_c, 0, 56, 52
1, 340044, Note_on_c, 0, 88, 108
1, 340046, Note_on_c, 0, 64, 94
1, 340047, Note_on_c, 0, 60, 93
1, 340047, Note_on_c, 0, 84, 105
1, 340088, Control_c, 0, 64, 98
1, 340103, Control_c, 0, 64, 68
1, 340118, Control_c, 0, 64, 29
1, 340133, Control_c, 0, 64, 0
1, 340218, Note_off_c, 0, 88, 54
1, 340222, Note_off_c, 0, 64, 50
1, 340235, Note_off_c, 0, 84, 54
1, 340249, Note_off_c, 0, 60, 58
1, 340820, Note_on_c, 0, 84, 108
1, 340820, Note_on_c, 0, 88, 105
1, 340823, Note_on_c, 0, 64, 93
1, 340825, Note_on_c, 0, 60, 93
1, 340892, Note_on_c, 0, 86, 90
1, 340899, Note_on_c, 0, 82, 98
1, 340899, Note_on_c, 0, 62, 93
1, 340902, Note_on_c, 0, 58, 69
1, 340910, Note_off_c, 0, 60, 61
1, 340915, Note_off_c, 0, 84, 63
1, 340921, Note_off_c, 0, 64, 66
1, 340931, Note_off_c, 0, 58, 66
1, 340933, Note_off_c, 0, 88, 66
1, 340947, Note_off_c, 0, 86, 65
1, 340962, Note_on_c, 0, 57, 70
1, 340973, Note_on_c, 0, 61, 91
1, 340978, Note_on_c, 0, 85, 99
1, 340980, Note_on_c, 0, 81, 98
1, 340984, Note_on_c, 0, 86, 58
1, 340990, Note_off_c, 0, 62, 66
1, 341005, Note_on_c, 0, 58, 40
1, 341009, Note_off_c, 0, 82, 65
1, 341012, Note_off_c, 0, 86, 69
1, 341036, Note_off_c, 0, 58, 34
1, 341542, Control_c, 0, 64, 35
1, 341557, Control_c, 0, 64, 52
1, 341572, Control_c, 0, 64, 57
1, 341587, Control_c, 0, 64, 60
1, 341602, Control_c, 0, 64, 63
1, 341617, Control_c, 0, 64, 68
1, 341632, Control_c, 0, 64, 77
1, 341646, Control_c, 0, 64, 91
1, 341661, Control_c, 0, 64, 122
1, 341676, Control_c, 0, 64, 127
1, 341978, Note_off_c, 0, 81, 38
1, 342002, Note_off_c, 0, 61, 54
1, 342005, Note_off_c, 0, 57, 46
1, 342040, Note_off_c, 0, 85, 64
1, 342673, Note_on_c, 0, 33, 104
1, 342673, Note_on_c, 0, 34, 105
1, 342675, Note_on_c, 0, 45, 93
1, 342693, Note_on_c, 0, 24, 77
1, 342717, Note_on_c, 0, 44, 42
1, 342721, Control_c, 0, 64, 82
1, 342723, Note_off_c, 0, 24, 57
1, 342735, Control_c, 0, 64, 60
1, 342750, Control_c, 0, 64, 44
1, 342765, Control_c, 0, 64, 31
1, 342787, Control_c, 0, 64, 0
1, 342795, Note_on_c, 0, 21, 97
1, 342830, Note_off_c, 0, 33, 63
1, 342915, Note_off_c, 0, 44, 15
1, 345055, Poly_aftertouch_c, 0, 36, 127
1, 345061, Poly_aftertouch_c, 0, 41, 127
1, 345102, Poly_aftertouch_c, 0, 38, 127
1, 345123, Control_c, 0, 64, 9
1, 345137, Control_c, 0, 64, 11
1, 345167, Control_c, 0, 64, 12
1, 345182, Control_c, 0, 64, 13
1, 345197, Control_c, 0, 64, 14
1, 345212, Control_c, 0, 64, 15
1, 345227, Control_c, 0, 64, 16
1, 345257, Control_c, 0, 64, 17
1, 345286, Control_c, 0, 64, 18
1, 345331, Control_c, 0, 64, 19
1, 345376, Control_c, 0, 64, 19
1, 345406, Control_c, 0, 64, 20
1, 345450, Control_c, 0, 64, 21
1, 345509, Control_c, 0, 64, 22
1, 345553, Control_c, 0, 64, 22
1, 345657, Control_c, 0, 64, 23
1, 345686, Control_c, 0, 64, 23
1, 345731, Control_c, 0, 64, 24
1, 345817, Poly_aftertouch_c, 0, 41, 0
1, 345824, Poly_aftertouch_c, 0, 36, 0
1, 345828, Poly_aftertouch_c, 0, 38, 0
1, 345901, Control_c, 0, 64, 24
1, 345931, Control_c, 0, 64, 25
1, 345946, Control_c, 0, 64, 25
1, 345960, Control_c, 0, 64, 26
1, 346035, Control_c, 0, 64, 26
1, 346332, Control_c, 0, 64, 27
1, 346455, Note_off_c, 0, 34, 52
1, 346462, Note_off_c, 0, 45, 39
1, 346488, Note_off_c, 0, 21, 54
1, 348148, Control_c, 0, 64, 26
1, 348208, Control_c, 0, 64, 26
1, 348267, Control_c, 0, 64, 25
1, 348326, Control_c, 0, 64, 25
1, 348370, Control_c, 0, 64, 24
1, 348429, Control_c, 0, 64, 24
1, 348444, Control_c, 0, 64, 23
1, 348475, Control_c, 0, 64, 23
1, 348652, Control_c, 0, 64, 23
1, 348667, Control_c, 0, 64, 24
1, 348682, Control_c, 0, 64, 26
1, 348697, Control_c, 0, 64, 29
1, 348711, Control_c, 0, 64, 31
1, 348726, Control_c, 0, 64, 33
1, 348741, Control_c, 0, 64, 34
1, 348756, Control_c, 0, 64, 36
1, 348771, Control_c, 0, 64, 41
1, 348793, Control_c, 0, 64, 45
1, 348808, Control_c, 0, 64, 47
1, 348853, Control_c, 0, 64, 48
1, 348867, Control_c, 0, 64, 49
1, 348941, Control_c, 0, 64, 49
1, 349045, Control_c, 0, 64, 48
1, 349060, Control_c, 0, 64, 45
1, 349075, Control_c, 0, 64, 42
1, 349090, Control_c, 0, 64, 40
1, 349104, Control_c, 0, 64, 39
1, 349119, Control_c, 0, 64, 39
1, 349134, Control_c, 0, 64, 38
1, 349149, Control_c, 0, 64, 37
1, 349164, Control_c, 0, 64, 36
1, 349208, Control_c, 0, 64, 36
1, 349689, Control_c, 0, 64, 35
1, 349733, Control_c, 0, 64, 35
1, 349748, Control_c, 0, 64, 34
1, 349763, Control_c, 0, 64, 34
1, 349778, Control_c, 0, 64, 33
1, 349807, Control_c, 0, 64, 32
1, 349822, Control_c, 0, 64, 31
1, 349837, Control_c, 0, 64, 31
1, 349851, Control_c, 0, 64, 30
1, 349866, Control_c, 0, 64, 28
1, 349881, Control_c, 0, 64, 27
1, 349896, Control_c, 0, 64, 27
1, 349940, Control_c, 0, 64, 26
1, 349955, Control_c, 0, 64, 26
1, 349970, Control_c, 0, 64, 25
1, 349985, Control_c, 0, 64, 25
1, 350044, Control_c, 0, 64, 24
1, 350378, Control_c, 0, 64, 23
1, 350393, Control_c, 0, 64, 22
1, 350408, Control_c, 0, 64, 21
1, 350423, Control_c, 0, 64, 18
1, 350437, Control_c, 0, 64, 13
1, 350452, Control_c, 0, 64, 0
1, 353851, Note_on_c, 0, 57, 51
1, 353856, Note_on_c, 0, 64, 43
1, 353858, Note_on_c, 0, 40, 42
1, 353858, Note_on_c, 0, 59, 41
1, 353889, Note_off_c, 0, 59, 62
1, 353892, Note_off_c, 0, 40, 53
1, 353892, Note_off_c, 0, 57, 63
1, 353897, Note_off_c, 0, 64, 64
1, 354152, Note_on_c, 0, 66, 52
1, 354153, Note_on_c, 0, 58, 49
1, 354153, Note_on_c, 0, 61, 51
1, 354156, Note_on_c, 0, 52, 42
1, 354180, Note_off_c, 0, 58, 61
1, 354183, Note_off_c, 0, 61, 63
1, 354185, Note_off_c, 0, 66, 64
1, 354186, Note_off_c, 0, 52, 56
1, 354423, Note_on_c, 0, 52, 49
1, 354426, Note_on_c, 0, 68, 65
1, 354429, Note_on_c, 0, 59, 51
1, 354430, Note_on_c, 0, 64, 59
1, 354456, Note_off_c, 0, 68, 66
1, 354458, Note_off_c, 0, 52, 65
1, 354460, Note_off_c, 0, 59, 64
1, 354462, Note_off_c, 0, 64, 65
1, 354697, Note_on_c, 0, 69, 67
1, 354700, Note_on_c, 0, 60, 61
1, 354709, Note_on_c, 0, 52, 51
1, 354712, Note_on_c, 0, 66, 44
1, 354729, Note_off_c, 0, 69, 64
1, 354730, Note_off_c, 0, 60, 66
1, 354733, Note_off_c, 0, 52, 60
1, 354739, Note_off_c, 0, 66, 56
1, 354981, Note_on_c, 0, 68, 57
1, 354983, Note_on_c, 0, 52, 50
1, 354986, Note_on_c, 0, 61, 54
1, 354989, Note_on_c, 0, 64, 46
1, 355009, Note_off_c, 0, 68, 63
1, 355010, Note_off_c, 0, 52, 64
1, 355013, Note_off_c, 0, 64, 60
1, 355014, Note_off_c, 0, 61, 63
1, 355265, Note_on_c, 0, 52, 43
1, 355268, Note_on_c, 0, 56, 47
1, 355269, Note_on_c, 0, 68, 57
1, 355273, Note_on_c, 0, 64, 52
1, 355290, Note_off_c, 0, 68, 62
1, 355292, Note_off_c, 0, 52, 59
1, 355297, Note_off_c, 0, 56, 63
1, 355299, Note_off_c, 0, 64, 62
1, 355536, Note_on_c, 0, 52, 61
1, 355536, Note_on_c, 0, 59, 71
1, 355537, Note_on_c, 0, 68, 72
1, 355547, Note_on_c, 0, 64, 62
1, 355565, Note_off_c, 0, 59, 67
1, 355569, Note_off_c, 0, 68, 64
1, 355573, Note_off_c, 0, 52, 64
1, 355577, Note_off_c, 0, 64, 66
1, 355814, Note_on_c, 0, 69, 75
1, 355816, Note_on_c, 0, 61, 71
1, 355817, Note_on_c, 0, 52, 63
1, 355821, Note_on_c, 0, 64, 65
1, 355851, Note_off_c, 0, 64, 66
1, 355852, Note_off_c, 0, 69, 60
1, 355856, Note_off_c, 0, 61, 57
1, 355857, Note_off_c, 0, 52, 61
1, 356093, Note_on_c, 0, 68, 69
1, 356101, Note_on_c, 0, 63, 56
1, 356106, Note_on_c, 0, 52, 51
1, 356107, Note_on_c, 0, 64, 50
1, 356128, Note_off_c, 0, 68, 63
1, 356131, Note_off_c, 0, 64, 61
1, 356140, Note_off_c, 0, 63, 62
1, 356140, Note_off_c, 0, 52, 60
1, 356372, Note_on_c, 0, 69, 70
1, 356375, Note_on_c, 0, 61, 51
1, 356389, Note_on_c, 0, 64, 49
1, 356398, Note_off_c, 0, 69, 69
1, 356402, Note_on_c, 0, 52, 30
1, 356411, Note_off_c, 0, 61, 64
1, 356414, Note_off_c, 0, 64, 61
1, 356438, Note_off_c, 0, 52, 51
1, 356632, Note_on_c, 0, 57, 72
1, 356641, Note_on_c, 0, 64, 72
1, 356647, Note_on_c, 0, 59, 65
1, 356651, Note_on_c, 0, 52, 57
1, 356668, Note_off_c, 0, 57, 66
1, 356683, Note_off_c, 0, 52, 65
1, 356684, Note_off_c, 0, 59, 62
1, 356922, Note_on_c, 0, 59, 55
1, 356923, Note_on_c, 0, 44, 46
1, 356924, Note_on_c, 0, 54, 56
1, 356959, Note_off_c, 0, 44, 60
1, 356970, Note_off_c, 0, 54, 60
1, 356987, Note_off_c, 0, 59, 54
1, 357213, Note_on_c, 0, 52, 34
1, 357218, Note_on_c, 0, 59, 47
1, 357225, Note_on_c, 0, 56, 41
1, 357275, Note_off_c, 0, 52, 57
1, 357320, Note_off_c, 0, 56, 53
1, 357335, Note_off_c, 0, 59, 37
1, 357345, Note_off_c, 0, 64, 52
1, 357491, Note_on_c, 0, 40, 44
1, 357491, Note_on_c, 0, 57, 51
1, 357493, Note_on_c, 0, 64, 49
1, 357496, Note_on_c, 0, 59, 32
1, 357523, Note_off_c, 0, 40, 60
1, 357523, Note_off_c, 0, 57, 65
1, 357524, Note_off_c, 0, 59, 53
1, 357529, Note_off_c, 0, 64, 65
1, 357774, Note_on_c, 0, 52, 43
1, 357778, Note_on_c, 0, 61, 49
1, 357788, Note_on_c, 0, 58, 41
1, 357788, Note_on_c, 0, 66, 40
1, 357814, Note_off_c, 0, 61, 64
1, 357815, Note_off_c, 0, 58, 58
1, 357815, Note_off_c, 0, 52, 64
1, 357823, Note_off_c, 0, 66, 60
1, 358066, Note_on_c, 0, 67, 68
1, 358072, Note_on_c, 0, 59, 53
1, 358072, Note_on_c, 0, 64, 65
1, 358085, Note_on_c, 0, 49, 39
1, 358093, Note_off_c, 0, 67, 68
1, 358101, Note_off_c, 0, 64, 65
1, 358106, Note_off_c, 0, 59, 64
1, 358113, Note_off_c, 0, 49, 57
1, 358335, Note_on_c, 0, 68, 79
1, 358341, Note_on_c, 0, 59, 57
1, 358343, Note_on_c, 0, 64, 69
1, 358345, Note_on_c, 0, 49, 44
1, 358370, Note_off_c, 0, 64, 68
1, 358371, Note_off_c, 0, 59, 65
1, 358376, Note_off_c, 0, 68, 60
1, 358379, Note_off_c, 0, 49, 64
1, 358613, Note_on_c, 0, 71, 71
1, 358614, Note_on_c, 0, 66, 59
1, 358616, Note_on_c, 0, 63, 62
1, 358626, Note_on_c, 0, 48, 48
1, 358647, Note_off_c, 0, 66, 65
1, 358647, Note_off_c, 0, 63, 64
1, 358651, Note_off_c, 0, 48, 58
1, 358655, Note_off_c, 0, 71, 59
1, 358885, Note_on_c, 0, 75, 62
1, 358888, Note_on_c, 0, 47, 46
1, 358888, Note_on_c, 0, 68, 52
1, 358890, Note_on_c, 0, 64, 52
1, 358919, Note_off_c, 0, 47, 61
1, 358926, Note_off_c, 0, 68, 64
1, 358926, Note_off_c, 0, 75, 58
1, 358927, Note_off_c, 0, 64, 65
1, 359154, Note_on_c, 0, 44, 47
1, 359157, Note_on_c, 0, 74, 51
1, 359163, Note_on_c, 0, 63, 47
1, 359163, Note_on_c, 0, 71, 49
1, 359194, Note_off_c, 0, 44, 62
1, 359195, Note_off_c, 0, 63, 58
1, 359198, Note_off_c, 0, 74, 62
1, 359206, Note_off_c, 0, 71, 63
1, 359445, Note_on_c, 0, 73, 48
1, 359449, Note_on_c, 0, 45, 45
1, 359449, Note_on_c, 0, 64, 40
1, 359457, Note_on_c, 0, 68, 32
1, 359481, Note_off_c, 0, 45, 61
1, 359490, Note_off_c, 0, 64, 60
1, 359490, Note_off_c, 0, 73, 61
1, 359490, Note_off_c, 0, 68, 54
1, 359721, Note_on_c, 0, 68, 61
1, 359724, Note_on_c, 0, 73, 64
1, 359729, Note_on_c, 0, 47, 62
1, 359730, Note_on_c, 0, 63, 57
1, 359759, Note_off_c, 0, 68, 63
1, 359763, Note_off_c, 0, 47, 61
1, 359766, Note_off_c, 0, 73, 60
1, 359768, Note_off_c, 0, 63, 63
1, 359985, Note_on_c, 0, 69, 73
1, 359991, Note_on_c, 0, 61, 61
1, 359994, Note_on_c, 0, 64, 56
1, 359997, Note_on_c, 0, 49, 46
1, 360026, Note_off_c, 0, 61, 65
1, 360030, Note_off_c, 0, 64, 64
1, 360032, Note_off_c, 0, 49, 58
1, 360036, Note_off_c, 0, 69, 62
1, 360265, Note_on_c, 0, 63, 69
1, 360266, Note_on_c, 0, 68, 78
1, 360271, Note_on_c, 0, 52, 57
1, 360275, Note_on_c, 0, 59, 61
1, 360293, Note_off_c, 0, 63, 65
1, 360298, Note_off_c, 0, 52, 61
1, 360304, Note_off_c, 0, 59, 66
1, 360319, Note_off_c, 0, 68, 57
1, 360517, Note_on_c, 0, 71, 80
1, 360522, Note_on_c, 0, 61, 71
1, 360529, Note_on_c, 0, 59, 66
1, 360534, Note_on_c, 0, 56, 59
1, 360553, Note_off_c, 0, 61, 65
1, 360561, Note_off_c, 0, 71, 59
1, 360561, Note_off_c, 0, 59, 65
1, 360567, Note_off_c, 0, 56, 64
1, 360808, Note_on_c, 0, 64, 63
1, 360820, Note_on_c, 0, 62, 50
1, 360821, Note_on_c, 0, 59, 53
1, 360824, Note_on_c, 0, 47, 48
1, 360838, Note_off_c, 0, 64, 66
1, 360844, Note_off_c, 0, 62, 62
1, 360847, Note_off_c, 0, 59, 61
1, 360862, Note_off_c, 0, 47, 59
1, 361074, Note_on_c, 0, 71, 67
1, 361083, Note_on_c, 0, 62, 48
1, 361085, Note_on_c, 0, 47, 33
1, 361089, Note_on_c, 0, 59, 47
1, 361104, Note_off_c, 0, 71, 65
1, 361106, Note_off_c, 0, 62, 59
1, 361115, Note_off_c, 0, 59, 57
1, 361121, Note_off_c, 0, 47, 55
1, 361363, Note_on_c, 0, 63, 59
1, 361365, Note_on_c, 0, 55, 51
1, 361372, Note_on_c, 0, 59, 50
1, 361391, Note_off_c, 0, 63, 63
1, 361395, Note_off_c, 0, 55, 63
1, 361398, Note_off_c, 0, 59, 59
1, 361641, Note_on_c, 0, 66, 69
1, 361668, Note_on_c, 0, 63, 40
1, 361681, Note_on_c, 0, 54, 32
1, 361682, Note_on_c, 0, 59, 22
1, 361697, Note_off_c, 0, 63, 50
1, 361714, Note_off_c, 0, 59, 45
1, 361716, Note_off_c, 0, 54, 55
1, 361915, Note_on_c, 0, 47, 64
1, 361925, Note_on_c, 0, 63, 64
1, 361934, Note_on_c, 0, 59, 57
1, 361942, Note_off_c, 0, 47, 65
1, 361965, Note_off_c, 0, 63, 60
1, 361975, Note_off_c, 0, 59, 61
1, 362194, Note_on_c, 0, 63, 55
1, 362195, Note_on_c, 0, 58, 69
1, 362201, Note_on_c, 0, 59, 51
1, 362233, Note_off_c, 0, 58, 60
1, 362241, Note_off_c, 0, 63, 57
1, 362244, Note_off_c, 0, 59, 60
1, 362475, Note_on_c, 0, 63, 29
1, 362475, Note_on_c, 0, 64, 49
1, 362477, Note_on_c, 0, 56, 46
1, 362478, Note_on_c, 0, 59, 42
1, 362500, Note_off_c, 0, 66, 57
1, 362519, Note_off_c, 0, 63, 57
1, 362520, Note_off_c, 0, 59, 64
1, 362522, Note_off_c, 0, 56, 63
1, 362522, Note_off_c, 0, 64, 60
1, 362755, Note_on_c, 0, 62, 46
1, 362757, Note_on_c, 0, 54, 43
1, 362757, Note_on_c, 0, 66, 45
1, 362770, Note_on_c, 0, 61, 33
1, 362784, Note_off_c, 0, 62, 62
1, 362799, Note_off_c, 0, 66, 63
1, 362801, Note_off_c, 0, 61, 54
1, 362805, Note_off_c, 0, 54, 61
1, 363035, Note_on_c, 0, 68, 68
1, 363038, Note_on_c, 0, 59, 61
1, 363039, Note_on_c, 0, 47, 56
1, 363041, Note_on_c, 0, 63, 52
1, 363064, Note_off_c, 0, 63, 61
1, 363069, Note_off_c, 0, 59, 66
1, 363076, Note_off_c, 0, 47, 60
1, 363076, Note_off_c, 0, 68, 57
1, 363300, Note_on_c, 0, 47, 55
1, 363304, Note_on_c, 0, 61, 59
1, 363304, Note_on_c, 0, 64, 52
1, 363305, Note_on_c, 0, 69, 57
1, 363330, Note_off_c, 0, 47, 64
1, 363333, Note_off_c, 0, 64, 64
1, 363340, Note_off_c, 0, 61, 61
1, 363344, Note_off_c, 0, 69, 62
1, 363568, Note_on_c, 0, 42, 43
1, 363568, Note_on_c, 0, 71, 61
1, 363574, Note_on_c, 0, 66, 46
1, 363574, Note_on_c, 0, 62, 46
1, 363600, Note_off_c, 0, 66, 60
1, 363600, Note_off_c, 0, 71, 64
1, 363603, Note_off_c, 0, 42, 62
1, 363604, Note_off_c, 0, 62, 62
1, 363854, Note_on_c, 0, 69, 46
1, 363855, Note_on_c, 0, 68, 41
1, 363857, Note_on_c, 0, 37, 46
1, 363861, Note_on_c, 0, 64, 38
1, 363898, Note_off_c, 0, 64, 53
1, 363902, Note_off_c, 0, 68, 60
1, 363905, Note_off_c, 0, 69, 59
1, 363913, Note_off_c, 0, 37, 58
1, 364123, Note_on_c, 0, 40, 55
1, 364123, Note_on_c, 0, 66, 72
1, 364126, Note_on_c, 0, 69, 74
1, 364130, Note_on_c, 0, 62, 66
1, 364157, Note_off_c, 0, 40, 65
1, 364158, Note_off_c, 0, 66, 61
1, 364159, Note_off_c, 0, 69, 61
1, 364160, Note_off_c, 0, 62, 66
1, 364384, Note_on_c, 0, 45, 55
1, 364391, Note_on_c, 0, 69, 74
1, 364403, Note_on_c, 0, 61, 61
1, 364403, Note_on_c, 0, 64, 55
1, 364415, Note_off_c, 0, 45, 65
1, 364423, Note_off_c, 0, 69, 62
1, 364430, Note_off_c, 0, 64, 63
1, 364435, Note_off_c, 0, 61, 65
1, 364667, Note_on_c, 0, 73, 78
1, 364671, Note_on_c, 0, 57, 54
1, 364674, Note_on_c, 0, 63, 65
1, 364677, Note_on_c, 0, 49, 39
1, 364698, Note_off_c, 0, 73, 66
1, 364703, Note_off_c, 0, 63, 65
1, 364706, Note_off_c, 0, 57, 62
1, 364712, Note_off_c, 0, 49, 57
1, 364937, Note_on_c, 0, 54, 54
1, 364944, Note_on_c, 0, 66, 76
1, 364948, Note_on_c, 0, 59, 44
1, 364957, Note_on_c, 0, 62, 60
1, 364974, Note_off_c, 0, 59, 57
1, 364982, Note_off_c, 0, 66, 59
1, 364983, Note_off_c, 0, 54, 60
1, 364989, Note_off_c, 0, 62, 65
1, 365209, Note_on_c, 0, 52, 50
1, 365210, Note_on_c, 0, 67, 75
1, 365211, Note_on_c, 0, 61, 70
1, 365214, Note_on_c, 0, 58, 57
1, 365235, Note_off_c, 0, 52, 63
1, 365238, Note_off_c, 0, 61, 68
1, 365252, Note_off_c, 0, 58, 64
1, 365253, Note_off_c, 0, 67, 66
1, 365495, Note_on_c, 0, 62, 86
1, 365497, Note_on_c, 0, 54, 61
1, 365501, Note_on_c, 0, 61, 68
1, 365503, Note_on_c, 0, 57, 56
1, 365527, Note_off_c, 0, 54, 67
1, 365536, Note_off_c, 0, 57, 66
1, 365536, Note_off_c, 0, 61, 61
1, 365772, Note_on_c, 0, 45, 63
1, 365772, Note_on_c, 0, 56, 64
1, 365774, Note_on_c, 0, 59, 68
1, 365794, Note_off_c, 0, 56, 63
1, 365801, Note_off_c, 0, 45, 63
1, 365810, Note_off_c, 0, 59, 63
1, 366054, Note_on_c, 0, 50, 73
1, 366060, Note_on_c, 0, 54, 75
1, 366066, Note_on_c, 0, 57, 72
1, 366118, Control_c, 0, 64, 31
1, 366132, Control_c, 0, 64, 56
1, 366147, Control_c, 0, 64, 62
1, 366162, Control_c, 0, 64, 69
1, 366177, Control_c, 0, 64, 86
1, 366192, Control_c, 0, 64, 127
1, 366216, Note_off_c, 0, 54, 64
1, 366240, Note_off_c, 0, 50, 63
1, 366257, Note_off_c, 0, 57, 64
1, 366325, Control_c, 0, 64, 90
1, 366334, Note_on_c, 0, 38, 69
1, 366340, Control_c, 0, 64, 68
1, 366344, Note_on_c, 0, 54, 67
1, 366345, Note_on_c, 0, 57, 64
1, 366355, Control_c, 0, 64, 40
1, 366364, Note_off_c, 0, 38, 65
1, 366370, Control_c, 0, 64, 0
1, 366384, Note_off_c, 0, 54, 62
1, 366385, Note_off_c, 0, 57, 65
1, 366611, Note_on_c, 0, 57, 49
1, 366618, Note_on_c, 0, 37, 46
1, 366618, Note_on_c, 0, 54, 53
1, 366652, Note_off_c, 0, 57, 62
1, 366657, Note_off_c, 0, 37, 59
1, 366659, Note_off_c, 0, 54, 60
1, 366901, Note_on_c, 0, 57, 39
1, 366905, Note_on_c, 0, 54, 41
1, 366919, Note_on_c, 0, 35, 4
1, 366943, Note_off_c, 0, 57, 64
1, 366953, Note_off_c, 0, 54, 59
1, 366955, Note_off_c, 0, 62, 62
1, 366972, Note_off_c, 0, 35, 34
1, 367179, Note_on_c, 0, 58, 42
1, 367180, Note_on_c, 0, 62, 47
1, 367192, Note_on_c, 0, 34, 29
1, 367194, Note_on_c, 0, 53, 34
1, 367211, Note_off_c, 0, 58, 60
1, 367221, Note_off_c, 0, 62, 62
1, 367230, Note_off_c, 0, 53, 51
1, 367234, Note_off_c, 0, 34, 46
1, 367443, Note_on_c, 0, 58, 37
1, 367454, Note_on_c, 0, 53, 41
1, 367455, Note_on_c, 0, 33, 38
1, 367458, Note_on_c, 0, 61, 41
1, 367479, Note_off_c, 0, 58, 62
1, 367485, Note_off_c, 0, 61, 57
1, 367488, Note_off_c, 0, 53, 56
1, 367500, Note_off_c, 0, 33, 46
1, 367726, Note_on_c, 0, 58, 51
1, 367734, Note_on_c, 0, 62, 42
1, 367737, Note_on_c, 0, 53, 45
1, 367745, Note_on_c, 0, 34, 25
1, 367758, Note_off_c, 0, 58, 63
1, 367768, Note_off_c, 0, 53, 56
1, 367768, Note_off_c, 0, 62, 62
1, 367791, Note_off_c, 0, 34, 46
1, 367995, Note_on_c, 0, 58, 45
1, 367998, Note_on_c, 0, 61, 52
1, 367999, Note_on_c, 0, 53, 49
1, 368005, Note_on_c, 0, 33, 41
1, 368032, Note_off_c, 0, 58, 64
1, 368034, Note_off_c, 0, 61, 64
1, 368037, Note_off_c, 0, 53, 62
1, 368040, Note_off_c, 0, 33, 49
1, 368275, Note_on_c, 0, 58, 38
1, 368277, Note_on_c, 0, 62, 45
1, 368283, Note_on_c, 0, 53, 43
1, 368293, Note_on_c, 0, 34, 34
1, 368306, Note_off_c, 0, 58, 58
1, 368314, Note_off_c, 0, 62, 61
1, 368317, Note_off_c, 0, 53, 58
1, 368335, Note_off_c, 0, 34, 45
1, 368552, Note_on_c, 0, 52, 56
1, 368557, Note_on_c, 0, 62, 52
1, 368558, Note_on_c, 0, 58, 41
1, 368564, Note_on_c, 0, 36, 41
1, 368590, Note_off_c, 0, 58, 61
1, 368594, Note_off_c, 0, 62, 62
1, 368594, Note_off_c, 0, 52, 61
1, 368598, Note_off_c, 0, 36, 53
1, 368824, Note_on_c, 0, 51, 70
1, 368832, Note_on_c, 0, 62, 60
1, 368833, Note_on_c, 0, 37, 48
1, 368835, Note_on_c, 0, 58, 55
1, 368859, Note_off_c, 0, 51, 66
1, 368865, Note_off_c, 0, 37, 59
1, 368865, Note_off_c, 0, 58, 65
1, 368866, Note_off_c, 0, 62, 65
1, 369110, Note_on_c, 0, 50, 62
1, 369115, Note_on_c, 0, 38, 48
1, 369115, Note_on_c, 0, 62, 56
1, 369125, Note_on_c, 0, 58, 21
1, 369140, Note_off_c, 0, 50, 66
1, 369147, Note_off_c, 0, 38, 52
1, 369152, Note_off_c, 0, 62, 63
1, 369153, Note_off_c, 0, 58, 51
1, 369383, Note_on_c, 0, 28, 59
1, 369387, Note_on_c, 0, 58, 42
1, 369392, Note_on_c, 0, 62, 42
1, 369401, Note_on_c, 0, 53, 29
1, 369416, Note_off_c, 0, 28, 62
1, 369419, Note_off_c, 0, 58, 55
1, 369422, Note_off_c, 0, 62, 58
1, 369438, Note_off_c, 0, 53, 44
1, 369660, Note_on_c, 0, 54, 65
1, 369664, Note_on_c, 0, 64, 65
1, 369667, Note_on_c, 0, 40, 48
1, 369669, Note_on_c, 0, 58, 51
1, 369697, Note_off_c, 0, 58, 62
1, 369697, Note_off_c, 0, 40, 59
1, 369697, Note_off_c, 0, 54, 65
1, 369706, Note_off_c, 0, 64, 63
1, 369936, Note_on_c, 0, 55, 74
1, 369936, Note_on_c, 0, 58, 58
1, 369938, Note_on_c, 0, 64, 73
1, 369957, Note_on_c, 0, 40, 23
1, 369965, Note_off_c, 0, 55, 66
1, 369967, Note_off_c, 0, 58, 65
1, 369970, Note_off_c, 0, 64, 63
1, 370005, Note_off_c, 0, 40, 52
1, 370207, Note_on_c, 0, 52, 55
1, 370210, Note_on_c, 0, 56, 68
1, 370220, Note_on_c, 0, 64, 57
1, 370227, Note_on_c, 0, 59, 35
1, 370246, Note_off_c, 0, 56, 65
1, 370251, Note_off_c, 0, 64, 64
1, 370253, Note_off_c, 0, 59, 53
1, 370256, Note_off_c, 0, 52, 56
1, 370487, Note_on_c, 0, 51, 57
1, 370499, Note_on_c, 0, 64, 51
1, 370505, Note_on_c, 0, 40, 37
1, 370510, Note_on_c, 0, 63, 40
1, 370523, Note_off_c, 0, 51, 66
1, 370538, Note_off_c, 0, 64, 63
1, 370539, Note_off_c, 0, 63, 58
1, 370545, Note_off_c, 0, 40, 50
1, 370768, Note_on_c, 0, 41, 43
1, 370772, Note_on_c, 0, 64, 51
1, 370774, Note_on_c, 0, 58, 48
1, 370784, Note_on_c, 0, 62, 47
1, 370808, Note_off_c, 0, 41, 64
1, 370808, Note_off_c, 0, 58, 62
1, 370817, Note_off_c, 0, 64, 61
1, 370819, Note_off_c, 0, 62, 65
1, 371054, Note_on_c, 0, 61, 73
1, 371056, Note_on_c, 0, 40, 53
1, 371062, Note_on_c, 0, 64, 61
1, 371068, Note_on_c, 0, 57, 47
1, 371089, Note_off_c, 0, 40, 63
1, 371093, Note_off_c, 0, 57, 60
1, 371094, Note_off_c, 0, 64, 66
1, 371104, Note_off_c, 0, 61, 60
1, 371325, Note_on_c, 0, 60, 69
1, 371325, Note_on_c, 0, 64, 64
1, 371329, Note_on_c, 0, 38, 54
1, 371334, Note_on_c, 0, 56, 57
1, 371357, Note_off_c, 0, 64, 64
1, 371358, Note_off_c, 0, 60, 64
1, 371361, Note_off_c, 0, 38, 62
1, 371367, Note_off_c, 0, 56, 66
1, 371592, Note_on_c, 0, 60, 58
1, 371593, Note_on_c, 0, 37, 47
1, 371595, Note_on_c, 0, 65, 66
1, 371599, Note_on_c, 0, 56, 53
1, 371623, Note_off_c, 0, 60, 66
1, 371624, Note_off_c, 0, 56, 60
1, 371630, Note_off_c, 0, 37, 62
1, 371635, Note_off_c, 0, 65, 64
1, 371851, Note_on_c, 0, 44, 51
1, 371855, Note_on_c, 0, 68, 72
1, 371859, Note_on_c, 0, 60, 62
1, 371867, Note_on_c, 0, 63, 48
1, 371887, Note_off_c, 0, 68, 64
1, 371891, Note_off_c, 0, 60, 66
1, 371892, Note_off_c, 0, 63, 58
1, 371898, Note_off_c, 0, 44, 58
1, 372129, Note_on_c, 0, 72, 60
1, 372131, Note_on_c, 0, 61, 45
1, 372135, Note_on_c, 0, 65, 29
1, 372138, Note_on_c, 0, 56, 34
1, 372162, Note_off_c, 0, 61, 56
1, 372166, Note_off_c, 0, 72, 63
1, 372170, Note_off_c, 0, 65, 47
1, 372173, Note_off_c, 0, 56, 54
1, 372399, Note_on_c, 0, 71, 68
1, 372406, Note_on_c, 0, 41, 46
1, 372407, Note_on_c, 0, 60, 58
1, 372410, Note_on_c, 0, 68, 54
1, 372442, Note_off_c, 0, 41, 60
1, 372444, Note_off_c, 0, 60, 65
1, 372448, Note_off_c, 0, 71, 60
1, 372449, Note_off_c, 0, 68, 64
1, 372678, Note_on_c, 0, 42, 53
1, 372678, Note_on_c, 0, 70, 67
1, 372681, Note_on_c, 0, 65, 54
1, 372683, Note_on_c, 0, 61, 47
1, 372710, Note_off_c, 0, 65, 63
1, 372717, Note_off_c, 0, 70, 59
1, 372720, Note_off_c, 0, 61, 61
1, 372742, Note_off_c, 0, 42, 57
1, 372952, Note_on_c, 0, 60, 67
1, 372952, Note_on_c, 0, 65, 68
1, 372954, Note_on_c, 0, 70, 69
1, 372958, Note_on_c, 0, 44, 54
1, 372980, Note_off_c, 0, 65, 66
1, 372984, Note_off_c, 0, 70, 65
1, 372987, Note_off_c, 0, 60, 63
1, 373002, Note_off_c, 0, 44, 63
1, 373215, Note_on_c, 0, 66, 69
1, 373220, Note_on_c, 0, 58, 67
1, 373224, Note_on_c, 0, 61, 61
1, 373226, Note_on_c, 0, 46, 43
1, 373255, Note_off_c, 0, 58, 65
1, 373256, Note_off_c, 0, 46, 56
1, 373256, Note_off_c, 0, 61, 65
1, 373267, Note_off_c, 0, 66, 57
1, 373501, Note_on_c, 0, 60, 62
1, 373504, Note_on_c, 0, 49, 57
1, 373507, Note_on_c, 0, 56, 56
1, 373509, Note_on_c, 0, 65, 59
1, 373532, Note_off_c, 0, 60, 65
1, 373542, Note_off_c, 0, 56, 65
1, 373549, Note_off_c, 0, 65, 64
1, 373551, Note_off_c, 0, 49, 56
1, 373766, Note_on_c, 0, 53, 54
1, 373767, Note_on_c, 0, 68, 70
1, 373769, Note_on_c, 0, 58, 64
1, 373774, Note_on_c, 0, 56, 64
1, 373799, Note_off_c, 0, 53, 64
1, 373805, Note_off_c, 0, 58, 65
1, 373809, Note_off_c, 0, 68, 55
1, 373813, Note_off_c, 0, 56, 63
1, 374033, Note_on_c, 0, 61, 61
1, 374038, Note_on_c, 0, 59, 57
1, 374043, Note_on_c, 0, 56, 55
1, 374044, Note_on_c, 0, 44, 49
1, 374070, Note_off_c, 0, 59, 64
1, 374071, Note_off_c, 0, 61, 62
1, 374078, Note_off_c, 0, 56, 66
1, 374079, Note_off_c, 0, 44, 60
1, 374318, Note_on_c, 0, 59, 48
1, 374319, Note_on_c, 0, 68, 56
1, 374323, Note_on_c, 0, 44, 32
1, 374325, Note_on_c, 0, 56, 43
1, 374350, Note_off_c, 0, 59, 64
1, 374360, Note_off_c, 0, 44, 50
1, 374360, Note_off_c, 0, 68, 60
1, 374362, Note_off_c, 0, 56, 56
1, 374591, Note_on_c, 0, 56, 49
1, 374592, Note_on_c, 0, 52, 45
1, 374604, Note_on_c, 0, 60, 47
1, 374632, Note_off_c, 0, 56, 64
1, 374632, Note_off_c, 0, 60, 63
1, 374639, Note_off_c, 0, 52, 57
1, 374881, Note_on_c, 0, 63, 59
1, 374893, Note_on_c, 0, 60, 41
1, 374896, Note_on_c, 0, 51, 32
1, 374907, Note_on_c, 0, 56, 32
1, 374952, Note_off_c, 0, 60, 53
1, 374958, Note_off_c, 0, 56, 45
1, 375171, Note_on_c, 0, 60, 40
1, 375179, Note_on_c, 0, 56, 37
1, 375191, Control_c, 0, 64, 26
1, 375206, Control_c, 0, 64, 36
1, 375221, Control_c, 0, 64, 43
1, 375227, Note_off_c, 0, 60, 57
1, 375230, Note_off_c, 0, 56, 52
1, 375236, Control_c, 0, 64, 51
1, 375250, Control_c, 0, 64, 56
1, 375265, Control_c, 0, 64, 60
1, 375280, Control_c, 0, 64, 63
1, 375295, Control_c, 0, 64, 66
1, 375310, Control_c, 0, 64, 71
1, 375325, Control_c, 0, 64, 85
1, 375340, Control_c, 0, 64, 127
1, 375394, Note_off_c, 0, 51, 42
1, 375438, Note_on_c, 0, 56, 45
1, 375447, Note_on_c, 0, 60, 49
1, 375480, Note_off_c, 0, 56, 62
1, 375602, Note_off_c, 0, 60, 36
1, 375614, Note_off_c, 0, 63, 62
1, 375714, Note_on_c, 0, 56, 49
1, 375718, Note_on_c, 0, 60, 49
1, 375778, Control_c, 0, 64, 114
1, 375792, Control_c, 0, 64, 104
1, 375807, Control_c, 0, 64, 98
1, 375817, Note_off_c, 0, 60, 56
1, 375822, Control_c, 0, 64, 92
1, 375836, Note_on_c, 0, 64, 61
1, 375837, Control_c, 0, 64, 87
1, 375852, Control_c, 0, 64, 84
1, 375866, Control_c, 0, 64, 81
1, 375881, Control_c, 0, 64, 78
1, 375896, Control_c, 0, 64, 76
1, 375910, Control_c, 0, 64, 73
1, 375925, Control_c, 0, 64, 71
1, 375940, Control_c, 0, 64, 69
1, 375955, Control_c, 0, 64, 68
1, 375970, Control_c, 0, 64, 66
1, 375984, Control_c, 0, 64, 65
1, 375988, Note_on_c, 0, 60, 43
1, 375991, Note_on_c, 0, 72, 69
1, 375999, Note_on_c, 0, 63, 36
1, 375999, Control_c, 0, 64, 64
1, 376014, Control_c, 0, 64, 63
1, 376029, Control_c, 0, 64, 61
1, 376044, Control_c, 0, 64, 59
1, 376050, Note_off_c, 0, 64, 40
1, 376058, Control_c, 0, 64, 57
1, 376073, Control_c, 0, 64, 53
1, 376088, Control_c, 0, 64, 50
1, 376103, Control_c, 0, 64, 47
1, 376118, Control_c, 0, 64, 45
1, 376133, Control_c, 0, 64, 44
1, 376163, Control_c, 0, 64, 47
1, 376168, Note_off_c, 0, 63, 57
1, 376177, Control_c, 0, 64, 53
1, 376192, Control_c, 0, 64, 60
1, 376207, Control_c, 0, 64, 64
1, 376222, Control_c, 0, 64, 68
1, 376236, Control_c, 0, 64, 75
1, 376251, Control_c, 0, 64, 98
1, 376254, Note_on_c, 0, 66, 61
1, 376260, Note_on_c, 0, 63, 58
1, 376266, Control_c, 0, 64, 127
1, 376297, Note_off_c, 0, 60, 43
1, 376371, Note_on_c, 0, 71, 72
1, 376389, Note_off_c, 0, 72, 57
1, 376445, Control_c, 0, 64, 122
1, 376460, Control_c, 0, 64, 109
1, 376464, Note_off_c, 0, 66, 29
1, 376482, Control_c, 0, 64, 103
1, 376496, Control_c, 0, 64, 98
1, 376511, Control_c, 0, 64, 94
1, 376524, Note_on_c, 0, 82, 70
1, 376526, Note_on_c, 0, 61, 39
1, 376526, Control_c, 0, 64, 90
1, 376541, Control_c, 0, 64, 87
1, 376556, Control_c, 0, 64, 83
1, 376571, Control_c, 0, 64, 78
1, 376574, Note_on_c, 0, 58, 6
1, 376586, Control_c, 0, 64, 74
1, 376601, Control_c, 0, 64, 70
1, 376608, Note_off_c, 0, 63, 27
1, 376615, Control_c, 0, 64, 67
1, 376630, Control_c, 0, 64, 64
1, 376645, Control_c, 0, 64, 62
1, 376654, Note_on_c, 0, 80, 70
1, 376660, Control_c, 0, 64, 59
1, 376675, Control_c, 0, 64, 57
1, 376689, Control_c, 0, 64, 55
1, 376704, Control_c, 0, 64, 52
1, 376717, Note_off_c, 0, 71, 29
1, 376719, Control_c, 0, 64, 50
1, 376733, Control_c, 0, 64, 48
1, 376748, Control_c, 0, 64, 46
1, 376763, Control_c, 0, 64, 43
1, 376778, Control_c, 0, 64, 40
1, 376789, Note_off_c, 0, 58, 17
1, 376793, Control_c, 0, 64, 36
1, 376798, Note_on_c, 0, 65, 37
1, 376798, Note_on_c, 0, 79, 69
1, 376801, Note_on_c, 0, 62, 38
1, 376807, Control_c, 0, 64, 32
1, 376810, Note_off_c, 0, 82, 62
1, 376822, Control_c, 0, 64, 29
1, 376837, Control_c, 0, 64, 25
1, 376852, Control_c, 0, 64, 23
1, 376854, Note_off_c, 0, 61, 34
1, 376866, Control_c, 0, 64, 22
1, 376881, Control_c, 0, 64, 21
1, 376887, Note_off_c, 0, 80, 55
1, 376926, Control_c, 0, 64, 29
1, 376932, Note_off_c, 0, 56, 60
1, 376941, Control_c, 0, 64, 45
1, 376956, Control_c, 0, 64, 58
1, 376970, Control_c, 0, 64, 63
1, 376985, Control_c, 0, 64, 66
1, 376986, Note_off_c, 0, 65, 57
1, 377000, Control_c, 0, 64, 74
1, 377015, Control_c, 0, 64, 88
1, 377030, Control_c, 0, 64, 109
1, 377045, Control_c, 0, 64, 127
1, 377051, Note_off_c, 0, 79, 61
1, 377081, Note_on_c, 0, 72, 64
1, 377084, Note_on_c, 0, 56, 41
1, 377104, Control_c, 0, 64, 117
1, 377119, Control_c, 0, 64, 109
1, 377133, Control_c, 0, 64, 104
1, 377148, Control_c, 0, 64, 101
1, 377163, Control_c, 0, 64, 97
1, 377178, Control_c, 0, 64, 92
1, 377191, Note_off_c, 0, 62, 34
1, 377193, Control_c, 0, 64, 88
1, 377195, Note_on_c, 0, 71, 76
1, 377204, Note_on_c, 0, 55, 52
1, 377207, Control_c, 0, 64, 85
1, 377230, Control_c, 0, 64, 83
1, 377231, Note_off_c, 0, 56, 36
1, 377245, Control_c, 0, 64, 81
1, 377251, Note_off_c, 0, 72, 60
1, 377260, Control_c, 0, 64, 78
1, 377275, Control_c, 0, 64, 75
1, 377289, Control_c, 0, 64, 73
1, 377304, Control_c, 0, 64, 70
1, 377319, Control_c, 0, 64, 67
1, 377334, Control_c, 0, 64, 64
1, 377337, Note_on_c, 0, 70, 67
1, 377348, Note_off_c, 0, 71, 59
1, 377349, Control_c, 0, 64, 62
1, 377358, Note_on_c, 0, 56, 47
1, 377364, Control_c, 0, 64, 60
1, 377379, Note_off_c, 0, 55, 35
1, 377379, Control_c, 0, 64, 57
1, 377394, Control_c, 0, 64, 54
1, 377409, Control_c, 0, 64, 51
1, 377424, Control_c, 0, 64, 48
1, 377437, Note_off_c, 0, 56, 56
1, 377438, Control_c, 0, 64, 46
1, 377440, Note_off_c, 0, 70, 63
1, 377453, Control_c, 0, 64, 43
1, 377455, Note_on_c, 0, 69, 62
1, 377457, Note_on_c, 0, 57, 44
1, 377468, Control_c, 0, 64, 39
1, 377482, Control_c, 0, 64, 34
1, 377497, Control_c, 0, 64, 30
1, 377512, Control_c, 0, 64, 26
1, 377527, Control_c, 0, 64, 23
1, 377542, Control_c, 0, 64, 20
1, 377556, Control_c, 0, 64, 16
1, 377571, Control_c, 0, 64, 13
1, 377579, Note_off_c, 0, 57, 56
1, 377586, Control_c, 0, 64, 11
1, 377601, Note_off_c, 0, 69, 56
1, 377601, Control_c, 0, 64, 9
1, 377611, Note_on_c, 0, 68, 50
1, 377622, Note_on_c, 0, 56, 21
1, 377660, Control_c, 0, 64, 11
1, 377675, Control_c, 0, 64, 22
1, 377689, Control_c, 0, 64, 36
1, 377704, Control_c, 0, 64, 50
1, 377719, Control_c, 0, 64, 58
1, 377734, Control_c, 0, 64, 63
1, 377749, Control_c, 0, 64, 68
1, 377763, Control_c, 0, 64, 77
1, 377778, Control_c, 0, 64, 95
1, 377789, Note_off_c, 0, 68, 51
1, 377793, Control_c, 0, 64, 127
1, 377796, Note_off_c, 0, 56, 40
1, 377878, Note_on_c, 0, 56, 72
1, 377993, Control_c, 0, 64, 122
1, 378008, Note_on_c, 0, 64, 66
1, 378008, Control_c, 0, 64, 113
1, 378023, Control_c, 0, 64, 104
1, 378039, Control_c, 0, 64, 98
1, 378053, Control_c, 0, 64, 95
1, 378068, Control_c, 0, 64, 92
1, 378083, Control_c, 0, 64, 89
1, 378098, Control_c, 0, 64, 84
1, 378112, Control_c, 0, 64, 79
1, 378127, Control_c, 0, 64, 76
1, 378142, Control_c, 0, 64, 74
1, 378157, Note_on_c, 0, 72, 71
1, 378157, Control_c, 0, 64, 71
1, 378158, Note_on_c, 0, 60, 47
1, 378164, Note_on_c, 0, 63, 44
1, 378172, Control_c, 0, 64, 67
1, 378187, Control_c, 0, 64, 63
1, 378190, Note_off_c, 0, 64, 52
1, 378202, Control_c, 0, 64, 55
1, 378216, Control_c, 0, 64, 46
1, 378231, Control_c, 0, 64, 43
1, 378246, Control_c, 0, 64, 43
1, 378276, Control_c, 0, 64, 43
1, 378291, Control_c, 0, 64, 48
1, 378305, Control_c, 0, 64, 57
1, 378320, Control_c, 0, 64, 63
1, 378331, Note_off_c, 0, 63, 61
1, 378335, Control_c, 0, 64, 70
1, 378350, Control_c, 0, 64, 84
1, 378365, Control_c, 0, 64, 127
1, 378412, Note_on_c, 0, 66, 65
1, 378414, Note_on_c, 0, 63, 63
1, 378431, Note_off_c, 0, 60, 60
1, 378518, Note_on_c, 0, 71, 77
1, 378518, Note_off_c, 0, 72, 62
1, 378616, Control_c, 0, 64, 103
1, 378631, Control_c, 0, 64, 96
1, 378641, Note_off_c, 0, 66, 31
1, 378646, Control_c, 0, 64, 91
1, 378661, Control_c, 0, 64, 87
1, 378661, Note_on_c, 0, 82, 74
1, 378667, Note_on_c, 0, 61, 42
1, 378676, Control_c, 0, 64, 82
1, 378686, Note_on_c, 0, 58, 35
1, 378690, Control_c, 0, 64, 77
1, 378705, Control_c, 0, 64, 73
1, 378720, Control_c, 0, 64, 69
1, 378742, Control_c, 0, 64, 64
1, 378756, Note_off_c, 0, 63, 34
1, 378757, Control_c, 0, 64, 58
1, 378772, Control_c, 0, 64, 49
1, 378784, Note_off_c, 0, 71, 37
1, 378786, Control_c, 0, 64, 44
1, 378797, Note_on_c, 0, 80, 77
1, 378801, Control_c, 0, 64, 42
1, 378816, Control_c, 0, 64, 40
1, 378832, Control_c, 0, 64, 37
1, 378847, Control_c, 0, 64, 34
1, 378862, Control_c, 0, 64, 33
1, 378926, Note_on_c, 0, 65, 53
1, 378929, Note_on_c, 0, 62, 51
1, 378929, Note_on_c, 0, 79, 76
1, 378935, Control_c, 0, 64, 33
1, 378950, Note_off_c, 0, 58, 31
1, 378950, Control_c, 0, 64, 38
1, 378965, Control_c, 0, 64, 47
1, 378966, Note_off_c, 0, 82, 60
1, 378980, Control_c, 0, 64, 56
1, 378989, Note_off_c, 0, 61, 50
1, 378995, Control_c, 0, 64, 61
1, 379009, Control_c, 0, 64, 64
1, 379012, Note_off_c, 0, 80, 54
1, 379024, Control_c, 0, 64, 67
1, 379039, Control_c, 0, 64, 74
1, 379042, Note_off_c, 0, 65, 58
1, 379049, Note_off_c, 0, 56, 62
1, 379054, Control_c, 0, 64, 90
1, 379069, Control_c, 0, 64, 127
1, 379179, Note_off_c, 0, 79, 59
1, 379203, Note_on_c, 0, 56, 53
1, 379207, Note_on_c, 0, 72, 63
1, 379232, Control_c, 0, 64, 108
1, 379247, Control_c, 0, 64, 98
1, 379262, Control_c, 0, 64, 91
1, 379276, Control_c, 0, 64, 87
1, 379278, Note_off_c, 0, 62, 30
1, 379291, Control_c, 0, 64, 84
1, 379306, Control_c, 0, 64, 81
1, 379321, Control_c, 0, 64, 76
1, 379327, Note_on_c, 0, 71, 81
1, 379328, Note_on_c, 0, 55, 71
1, 379336, Control_c, 0, 64, 72
1, 379351, Control_c, 0, 64, 70
1, 379358, Note_off_c, 0, 56, 56
1, 379366, Control_c, 0, 64, 69
1, 379375, Note_off_c, 0, 72, 61
1, 379381, Control_c, 0, 64, 67
1, 379396, Control_c, 0, 64, 64
1, 379410, Control_c, 0, 64, 59
1, 379425, Control_c, 0, 64, 52
1, 379440, Control_c, 0, 64, 49
1, 379454, Control_c, 0, 64, 48
1, 379465, Note_on_c, 0, 70, 74
1, 379469, Control_c, 0, 64, 46
1, 379471, Note_on_c, 0, 56, 69
1, 379488, Note_off_c, 0, 71, 61
1, 379492, Control_c, 0, 64, 43
1, 379497, Note_off_c, 0, 55, 58
1, 379507, Control_c, 0, 64, 39
1, 379522, Control_c, 0, 64, 35
1, 379536, Control_c, 0, 64, 33
1, 379551, Control_c, 0, 64, 31
1, 379566, Control_c, 0, 64, 29
1, 379581, Control_c, 0, 64, 26
1, 379590, Note_off_c, 0, 56, 59
1, 379596, Note_on_c, 0, 58, 55
1, 379596, Control_c, 0, 64, 24
1, 379610, Control_c, 0, 64, 22
1, 379625, Control_c, 0, 64, 20
1, 379641, Control_c, 0, 64, 19
1, 379656, Control_c, 0, 64, 17
1, 379671, Control_c, 0, 64, 15
1, 379686, Control_c, 0, 64, 12
1, 379701, Control_c, 0, 64, 9
1, 379715, Control_c, 0, 64, 0
1, 379746, Note_off_c, 0, 58, 55
1, 379759, Note_on_c, 0, 57, 34
1, 379759, Note_on_c, 0, 69, 55
1, 379779, Note_off_c, 0, 70, 55
1, 380026, Note_on_c, 0, 52, 64
1, 380026, Note_on_c, 0, 64, 86
1, 380079, Note_off_c, 0, 57, 61
1, 380121, Note_on_c, 0, 51, 61
1, 380136, Note_on_c, 0, 63, 85
1, 380161, Note_off_c, 0, 52, 56
1, 380170, Note_off_c, 0, 64, 61
1, 380294, Note_on_c, 0, 56, 58
1, 380300, Note_on_c, 0, 68, 76
1, 380314, Note_off_c, 0, 51, 63
1, 380330, Note_off_c, 0, 63, 58
1, 380372, Note_off_c, 0, 69, 58
1, 380582, Note_on_c, 0, 63, 58
1, 380592, Note_on_c, 0, 60, 55
1, 380627, Control_c, 0, 64, 33
1, 380642, Control_c, 0, 64, 49
1, 380656, Control_c, 0, 64, 60
1, 380671, Control_c, 0, 64, 66
1, 380686, Control_c, 0, 64, 76
1, 380700, Control_c, 0, 64, 111
1, 380715, Control_c, 0, 64, 127
1, 380757, Note_off_c, 0, 63, 62
1, 380758, Note_off_c, 0, 60, 62
1, 380853, Note_on_c, 0, 60, 67
1, 380855, Note_on_c, 0, 63, 71
1, 380864, Control_c, 0, 64, 97
1, 380878, Control_c, 0, 64, 76
1, 380893, Control_c, 0, 64, 65
1, 380908, Control_c, 0, 64, 60
1, 380923, Control_c, 0, 64, 61
1, 380938, Control_c, 0, 64, 65
1, 380953, Control_c, 0, 64, 70
1, 380974, Control_c, 0, 64, 83
1, 380989, Control_c, 0, 64, 127
1, 381005, Note_off_c, 0, 63, 57
1, 381122, Note_on_c, 0, 67, 62
1, 381123, Control_c, 0, 64, 89
1, 381126, Note_off_c, 0, 60, 63
1, 381131, Note_on_c, 0, 64, 58
1, 381138, Control_c, 0, 64, 73
1, 381153, Control_c, 0, 64, 64
1, 381168, Control_c, 0, 64, 56
1, 381182, Control_c, 0, 64, 50
1, 381197, Control_c, 0, 64, 49
1, 381212, Control_c, 0, 64, 50
1, 381227, Control_c, 0, 64, 55
1, 381242, Control_c, 0, 64, 62
1, 381256, Note_off_c, 0, 67, 61
1, 381257, Control_c, 0, 64, 67
1, 381266, Note_off_c, 0, 64, 62
1, 381272, Control_c, 0, 64, 76
1, 381287, Control_c, 0, 64, 96
1, 381302, Control_c, 0, 64, 127
1, 381397, Note_on_c, 0, 66, 45
1, 381400, Note_on_c, 0, 63, 46
1, 381420, Control_c, 0, 64, 91
1, 381435, Control_c, 0, 64, 74
1, 381450, Control_c, 0, 64, 65
1, 381452, Note_off_c, 0, 56, 64
1, 381454, Note_off_c, 0, 66, 56
1, 381465, Control_c, 0, 64, 60
1, 381479, Control_c, 0, 64, 61
1, 381494, Control_c, 0, 64, 63
1, 381509, Control_c, 0, 64, 66
1, 381523, Control_c, 0, 64, 70
1, 381534, Note_on_c, 0, 69, 48
1, 381538, Control_c, 0, 64, 77
1, 381540, Note_off_c, 0, 68, 51
1, 381543, Note_on_c, 0, 57, 41
1, 381553, Control_c, 0, 64, 88
1, 381568, Control_c, 0, 64, 101
1, 381582, Control_c, 0, 64, 127
1, 381605, Note_off_c, 0, 63, 31
1, 381653, Note_off_c, 0, 69, 58
1, 381656, Control_c, 0, 64, 103
1, 381670, Control_c, 0, 64, 88
1, 381672, Note_on_c, 0, 58, 42
1, 381674, Note_on_c, 0, 70, 53
1, 381685, Control_c, 0, 64, 75
1, 381690, Note_on_c, 0, 65, 42
1, 381692, Note_on_c, 0, 68, 44
1, 381700, Control_c, 0, 64, 66
1, 381715, Control_c, 0, 64, 61
1, 381737, Control_c, 0, 64, 60
1, 381752, Control_c, 0, 64, 62
1, 381764, Note_off_c, 0, 65, 51
1, 381767, Control_c, 0, 64, 64
1, 381782, Control_c, 0, 64, 68
1, 381794, Note_on_c, 0, 59, 48
1, 381797, Control_c, 0, 64, 75
1, 381811, Control_c, 0, 64, 88
1, 381814, Note_on_c, 0, 71, 64
1, 381821, Note_off_c, 0, 68, 50
1, 381826, Control_c, 0, 64, 122
1, 381841, Control_c, 0, 64, 127
1, 381859, Note_off_c, 0, 70, 59
1, 381931, Note_off_c, 0, 71, 62
1, 381935, Note_on_c, 0, 60, 55
1, 381937, Note_on_c, 0, 72, 70
1, 381952, Note_on_c, 0, 67, 60
1, 381959, Control_c, 0, 64, 90
1, 381965, Note_on_c, 0, 70, 58
1, 381974, Control_c, 0, 64, 74
1, 381984, Note_off_c, 0, 59, 37
1, 381989, Control_c, 0, 64, 65
1, 382003, Control_c, 0, 64, 61
1, 382017, Note_off_c, 0, 57, 41
1, 382018, Control_c, 0, 64, 62
1, 382034, Control_c, 0, 64, 66
1, 382049, Control_c, 0, 64, 71
1, 382057, Note_on_c, 0, 61, 61
1, 382064, Control_c, 0, 64, 80
1, 382073, Note_on_c, 0, 73, 78
1, 382079, Control_c, 0, 64, 102
1, 382083, Note_off_c, 0, 67, 36
1, 382093, Note_off_c, 0, 72, 59
1, 382094, Control_c, 0, 64, 127
1, 382108, Note_off_c, 0, 70, 61
1, 382113, Note_off_c, 0, 60, 55
1, 382130, Note_off_c, 0, 58, 30
1, 382192, Note_on_c, 0, 62, 66
1, 382197, Control_c, 0, 64, 98
1, 382200, Note_on_c, 0, 74, 82
1, 382202, Note_off_c, 0, 73, 65
1, 382207, Note_off_c, 0, 61, 61
1, 382208, Note_on_c, 0, 66, 69
1, 382211, Note_on_c, 0, 69, 67
1, 382212, Control_c, 0, 64, 74
1, 382226, Control_c, 0, 64, 63
1, 382241, Control_c, 0, 64, 56
1, 382256, Control_c, 0, 64, 58
1, 382271, Control_c, 0, 64, 62
1, 382282, Note_off_c, 0, 69, 57
1, 382286, Control_c, 0, 64, 66
1, 382300, Control_c, 0, 64, 75
1, 382314, Note_on_c, 0, 75, 87
1, 382315, Control_c, 0, 64, 95
1, 382331, Control_c, 0, 64, 127
1, 382341, Note_off_c, 0, 66, 58
1, 382348, Note_off_c, 0, 74, 61
1, 382378, Note_off_c, 0, 62, 55
1, 382443, Note_on_c, 0, 76, 86
1, 382448, Note_on_c, 0, 68, 73
1, 382449, Control_c, 0, 64, 98
1, 382452, Note_on_c, 0, 64, 68
1, 382452, Note_on_c, 0, 65, 70
1, 382455, Note_off_c, 0, 75, 51
1, 382464, Control_c, 0, 64, 77
1, 382483, Note_off_c, 0, 68, 68
1, 382487, Control_c, 0, 64, 65
1, 382501, Control_c, 0, 64, 56
1, 382516, Control_c, 0, 64, 57
1, 382531, Control_c, 0, 64, 60
1, 382546, Control_c, 0, 64, 64
1, 382554, Note_off_c, 0, 65, 0
1, 382560, Control_c, 0, 64, 70
1, 382569, Note_on_c, 0, 65, 55
1, 382575, Note_on_c, 0, 77, 87
1, 382575, Control_c, 0, 64, 83
1, 382590, Control_c, 0, 64, 127
1, 382591, Note_off_c, 0, 64, 59
1, 382606, Note_off_c, 0, 76, 62
1, 382703, Note_on_c, 0, 66, 71
1, 382703, Note_off_c, 0, 65, 63
1, 382706, Note_on_c, 0, 78, 81
1, 382713, Note_on_c, 0, 73, 83
1, 382713, Note_on_c, 0, 76, 81
1, 382715, Note_off_c, 0, 77, 58
1, 382724, Control_c, 0, 64, 94
1, 382738, Control_c, 0, 64, 73
1, 382753, Control_c, 0, 64, 61
1, 382768, Control_c, 0, 64, 40
1, 382783, Control_c, 0, 64, 37
1, 382798, Control_c, 0, 64, 42
1, 382813, Control_c, 0, 64, 53
1, 382819, Note_off_c, 0, 76, 62
1, 382821, Note_on_c, 0, 67, 82
1, 382822, Note_on_c, 0, 79, 92
1, 382827, Note_off_c, 0, 66, 62
1, 382828, Control_c, 0, 64, 61
1, 382843, Control_c, 0, 64, 67
1, 382852, Note_off_c, 0, 78, 63
1, 382855, Note_off_c, 0, 73, 62
1, 382858, Control_c, 0, 64, 80
1, 382873, Control_c, 0, 64, 127
1, 382948, Note_on_c, 0, 68, 89
1, 382948, Note_on_c, 0, 80, 91
1, 382952, Note_on_c, 0, 78, 94
1, 382952, Note_off_c, 0, 79, 64
1, 382953, Note_on_c, 0, 75, 94
1, 382973, Note_off_c, 0, 67, 63
1, 383006, Control_c, 0, 64, 79
1, 383007, Note_on_c, 0, 74, 14
1, 383021, Control_c, 0, 64, 62
1, 383029, Note_off_c, 0, 74, 47
1, 383036, Control_c, 0, 64, 49
1, 383050, Control_c, 0, 64, 56
1, 383064, Note_on_c, 0, 81, 94
1, 383065, Control_c, 0, 64, 63
1, 383066, Note_on_c, 0, 69, 92
1, 383074, Note_off_c, 0, 68, 61
1, 383080, Control_c, 0, 64, 69
1, 383087, Note_off_c, 0, 78, 59
1, 383093, Note_off_c, 0, 75, 60
1, 383095, Control_c, 0, 64, 83
1, 383108, Note_off_c, 0, 80, 64
1, 383110, Control_c, 0, 64, 127
1, 383189, Note_off_c, 0, 81, 0
1, 383192, Note_on_c, 0, 70, 95
1, 383194, Note_on_c, 0, 82, 95
1, 383196, Note_on_c, 0, 77, 97
1, 383198, Control_c, 0, 64, 85
1, 383199, Note_on_c, 0, 80, 90
1, 383213, Control_c, 0, 64, 54
1, 383227, Poly_aftertouch_c, 0, 81, 0
1, 383230, Note_off_c, 0, 69, 63
1, 383236, Control_c, 0, 64, 0
1, 383250, Control_c, 0, 64, 42
1, 383265, Control_c, 0, 64, 66
1, 383280, Control_c, 0, 64, 83
1, 383285, Note_off_c, 0, 80, 64
1, 383295, Control_c, 0, 64, 127
1, 383300, Note_off_c, 0, 77, 0
1, 383303, Note_on_c, 0, 71, 97
1, 383311, Note_on_c, 0, 83, 94
1, 383336, Note_off_c, 0, 70, 63
1, 383338, Poly_aftertouch_c, 0, 77, 127
1, 383352, Poly_aftertouch_c, 0, 77, 0
1, 383361, Note_off_c, 0, 82, 63
1, 383385, Note_off_c, 0, 83, 67
1, 383407, Note_off_c, 0, 71, 59
1, 383413, Control_c, 0, 64, 97
1, 383428, Control_c, 0, 64, 55
1, 383443, Control_c, 0, 64, 0
1, 383447, Note_on_c, 0, 72, 96
1, 383448, Note_on_c, 0, 79, 100
1, 383451, Note_on_c, 0, 76, 94
1, 383455, Note_on_c, 0, 84, 95
1, 383460, Note_on_c, 0, 83, 86
1, 383531, Control_c, 0, 64, 55
1, 383546, Control_c, 0, 64, 86
1, 383556, Note_off_c, 0, 84, 65
1, 383558, Note_off_c, 0, 83, 61
1, 383561, Control_c, 0, 64, 127
1, 383573, Note_off_c, 0, 79, 63
1, 383585, Note_off_c, 0, 76, 62
1, 383600, Note_off_c, 0, 72, 64
1, 383723, Note_on_c, 0, 71, 86
1, 383725, Control_c, 0, 64, 86
1, 383726, Note_on_c, 0, 67, 97
1, 383730, Note_on_c, 0, 72, 90
1, 383731, Note_on_c, 0, 64, 74
1, 383740, Control_c, 0, 64, 61
1, 383755, Control_c, 0, 64, 0
1, 383759, Note_off_c, 0, 67, 67
1, 383769, Note_off_c, 0, 72, 62
1, 383777, Note_off_c, 0, 71, 66
1, 383780, Note_off_c, 0, 64, 61
1, 383993, Note_on_c, 0, 71, 88
1, 383997, Note_on_c, 0, 67, 91
1, 383999, Note_on_c, 0, 72, 89
1, 384002, Note_on_c, 0, 64, 78
1, 384027, Note_off_c, 0, 67, 66
1, 384036, Note_off_c, 0, 71, 63
1, 384036, Note_off_c, 0, 72, 62
1, 384038, Note_off_c, 0, 64, 64
1, 384263, Note_on_c, 0, 67, 91
1, 384264, Note_on_c, 0, 72, 88
1, 384266, Note_on_c, 0, 64, 78
1, 384268, Note_on_c, 0, 71, 87
1, 384295, Note_off_c, 0, 67, 66
1, 384302, Note_off_c, 0, 71, 64
1, 384306, Note_off_c, 0, 72, 64
1, 384315, Note_off_c, 0, 64, 62
1, 384530, Note_on_c, 0, 67, 96
1, 384531, Note_on_c, 0, 71, 88
1, 384531, Note_on_c, 0, 72, 93
1, 384537, Note_on_c, 0, 64, 73
1, 384557, Note_off_c, 0, 67, 68
1, 384572, Note_off_c, 0, 72, 64
1, 384573, Note_off_c, 0, 71, 63
1, 384574, Note_off_c, 0, 64, 63
1, 384805, Note_on_c, 0, 64, 91
1, 384806, Note_on_c, 0, 55, 92
1, 384808, Note_on_c, 0, 67, 96
1, 384808, Note_on_c, 0, 72, 93
1, 384835, Note_off_c, 0, 67, 66
1, 384837, Note_off_c, 0, 55, 63
1, 384848, Note_off_c, 0, 64, 62
1, 384849, Note_off_c, 0, 72, 65
1, 385076, Note_on_c, 0, 64, 92
1, 385077, Note_on_c, 0, 71, 88
1, 385083, Note_on_c, 0, 67, 99
1, 385083, Note_on_c, 0, 72, 95
1, 385105, Note_off_c, 0, 67, 66
1, 385108, Note_off_c, 0, 64, 65
1, 385111, Note_off_c, 0, 72, 66
1, 385116, Note_off_c, 0, 71, 63
1, 385347, Note_on_c, 0, 64, 97
1, 385350, Note_on_c, 0, 67, 99
1, 385350, Note_on_c, 0, 72, 96
1, 385351, Note_on_c, 0, 55, 90
1, 385377, Note_off_c, 0, 64, 65
1, 385381, Note_off_c, 0, 67, 66
1, 385388, Note_off_c, 0, 55, 62
1, 385389, Note_off_c, 0, 72, 63
1, 385657, Note_on_c, 0, 48, 89
1, 385659, Note_on_c, 0, 36, 82
1, 385660, Note_on_c, 0, 35, 91
1, 385660, Note_on_c, 0, 52, 76
1, 385660, Note_on_c, 0, 55, 80
1, 385699, Note_off_c, 0, 35, 61
1, 385711, Note_off_c, 0, 48, 64
1, 385727, Note_off_c, 0, 52, 65
1, 385743, Note_off_c, 0, 55, 62
1, 385934, Note_on_c, 0, 64, 71
1, 385935, Note_on_c, 0, 67, 73
1, 385939, Note_on_c, 0, 60, 70
1, 386012, Note_off_c, 0, 64, 58
1, 386015, Note_off_c, 0, 60, 57
1, 386040, Note_off_c, 0, 67, 57
1, 386226, Note_on_c, 0, 60, 66
1, 386227, Note_on_c, 0, 67, 68
1, 386229, Note_on_c, 0, 64, 61
1, 386331, Note_off_c, 0, 67, 55
1, 386348, Note_on_c, 0, 39, 78
1, 386366, Note_off_c, 0, 60, 53
1, 386372, Note_off_c, 0, 64, 36
1, 386484, Note_on_c, 0, 42, 84
1, 386500, Note_on_c, 0, 60, 61
1, 386500, Note_on_c, 0, 64, 56
1, 386506, Note_on_c, 0, 67, 54
1, 386508, Poly_aftertouch_c, 0, 38, 127
1, 386516, Note_off_c, 0, 36, 56
1, 386545, Poly_aftertouch_c, 0, 38, 0
1, 386608, Note_on_c, 0, 46, 88
1, 386611, Note_off_c, 0, 67, 57
1, 386635, Note_off_c, 0, 39, 60
1, 386635, Note_off_c, 0, 64, 57
1, 386653, Note_off_c, 0, 60, 35
1, 386681, Note_off_c, 0, 42, 60
1, 386731, Note_on_c, 0, 49, 85
1, 386747, Note_on_c, 0, 60, 67
1, 386756, Note_on_c, 0, 64, 62
1, 386757, Note_on_c, 0, 67, 58
1, 386765, Note_off_c, 0, 46, 64
1, 386858, Note_off_c, 0, 67, 57
1, 386867, Note_off_c, 0, 60, 53
1, 386867, Note_on_c, 0, 46, 78
1, 386880, Note_off_c, 0, 64, 44
1, 386886, Note_off_c, 0, 49, 62
1, 387016, Note_on_c, 0, 42, 72
1, 387022, Note_on_c, 0, 64, 49
1, 387028, Note_on_c, 0, 60, 53
1, 387029, Note_on_c, 0, 67, 57
1, 387036, Note_off_c, 0, 46, 60
1, 387141, Note_on_c, 0, 46, 78
1, 387143, Note_off_c, 0, 60, 51
1, 387156, Note_off_c, 0, 67, 57
1, 387161, Note_off_c, 0, 64, 56
1, 387177, Note_off_c, 0, 42, 62
1, 387268, Note_on_c, 0, 49, 84
1, 387287, Note_on_c, 0, 64, 65
1, 387298, Note_on_c, 0, 67, 63
1, 387303, Note_on_c, 0, 60, 59
1, 387311, Note_off_c, 0, 46, 62
1, 387383, Note_on_c, 0, 52, 84
1, 387412, Note_off_c, 0, 49, 64
1, 387413, Note_off_c, 0, 60, 57
1, 387418, Note_off_c, 0, 67, 57
1, 387426, Note_off_c, 0, 64, 60
1, 387519, Note_on_c, 0, 55, 89
1, 387533, Note_on_c, 0, 60, 69
1, 387537, Note_on_c, 0, 67, 61
1, 387541, Note_on_c, 0, 64, 64
1, 387550, Note_off_c, 0, 52, 65
1, 387633, Note_off_c, 0, 64, 53
1, 387636, Note_off_c, 0, 60, 57
1, 387638, Note_on_c, 0, 54, 90
1, 387638, Note_off_c, 0, 67, 57
1, 387684, Note_off_c, 0, 55, 60
1, 387798, Note_on_c, 0, 55, 84
1, 387810, Note_on_c, 0, 64, 58
1, 387812, Note_on_c, 0, 60, 58
1, 387812, Note_on_c, 0, 67, 60
1, 387876, Note_off_c, 0, 54, 57
1, 387929, Note_off_c, 0, 67, 59
1, 387931, Note_off_c, 0, 60, 53
1, 387943, Note_off_c, 0, 64, 56
1, 388067, Note_on_c, 0, 60, 68
1, 388067, Note_on_c, 0, 64, 63
1, 388077, Note_on_c, 0, 67, 62
1, 388140, Note_off_c, 0, 60, 58
1, 388154, Note_off_c, 0, 64, 58
1, 388163, Note_off_c, 0, 67, 61
1, 388358, Note_on_c, 0, 64, 68
1, 388360, Note_on_c, 0, 60, 72
1, 388364, Note_on_c, 0, 67, 68
1, 388441, Note_off_c, 0, 60, 58
1, 388469, Note_off_c, 0, 64, 61
1, 388469, Note_off_c, 0, 67, 60
1, 388620, Note_on_c, 0, 57, 82
1, 388631, Note_on_c, 0, 64, 67
1, 388632, Note_on_c, 0, 60, 75
1, 388636, Note_on_c, 0, 67, 70
1, 388648, Note_off_c, 0, 55, 57
1, 388750, Note_on_c, 0, 59, 85
1, 388760, Note_off_c, 0, 67, 57
1, 388763, Note_off_c, 0, 60, 62
1, 388767, Note_off_c, 0, 57, 64
1, 388789, Note_off_c, 0, 64, 61
1, 388857, Note_off_c, 0, 59, 61
1, 388885, Note_on_c, 0, 60, 83
1, 388893, Note_on_c, 0, 64, 82
1, 388893, Note_on_c, 0, 67, 76
1, 389013, Note_off_c, 0, 60, 60
1, 389016, Note_off_c, 0, 67, 60
1, 389019, Note_off_c, 0, 64, 61
1, 389151, Note_on_c, 0, 55, 97
1, 389171, Note_on_c, 0, 64, 77
1, 389177, Note_on_c, 0, 67, 73
1, 389178, Note_on_c, 0, 60, 76
1, 389255, Note_off_c, 0, 55, 62
1, 389256, Note_on_c, 0, 57, 87
1, 389308, Note_off_c, 0, 60, 58
1, 389312, Note_off_c, 0, 57, 64
1, 389333, Note_off_c, 0, 67, 57
1, 389341, Note_on_c, 0, 55, 93
1, 389344, Note_off_c, 0, 64, 61
1, 389382, Note_off_c, 0, 55, 62
1, 389418, Note_on_c, 0, 65, 91
1, 389420, Note_on_c, 0, 53, 97
1, 389422, Note_on_c, 0, 69, 90
1, 389425, Note_on_c, 0, 62, 83
1, 389460, Note_off_c, 0, 62, 60
1, 389461, Note_off_c, 0, 65, 63
1, 389463, Note_off_c, 0, 53, 66
1, 389472, Note_off_c, 0, 69, 64
1, 389701, Note_on_c, 0, 52, 97
1, 389703, Note_on_c, 0, 67, 86
1, 389704, Note_on_c, 0, 64, 88
1, 389704, Note_on_c, 0, 71, 90
1, 389745, Note_off_c, 0, 52, 69
1, 389747, Note_off_c, 0, 64, 58
1, 389747, Note_off_c, 0, 67, 63
1, 389753, Note_off_c, 0, 71, 62
1, 389992, Note_on_c, 0, 50, 95
1, 389996, Note_on_c, 0, 69, 86
1, 389997, Note_on_c, 0, 72, 84
1, 389999, Note_on_c, 0, 65, 80
1, 390044, Note_off_c, 0, 65, 55
1, 390044, Note_off_c, 0, 69, 61
1, 390052, Note_off_c, 0, 72, 64
1, 390266, Note_on_c, 0, 72, 80
1, 390268, Note_on_c, 0, 69, 78
1, 390269, Note_on_c, 0, 65, 73
1, 390328, Note_off_c, 0, 69, 58
1, 390330, Note_off_c, 0, 65, 49
1, 390331, Note_off_c, 0, 72, 58
1, 390544, Note_on_c, 0, 72, 84
1, 390547, Note_on_c, 0, 69, 76
1, 390548, Note_on_c, 0, 65, 76
1, 390650, Note_off_c, 0, 72, 62
1, 390652, Note_off_c, 0, 69, 62
1, 390655, Note_off_c, 0, 65, 59
1, 390661, Note_on_c, 0, 52, 78
1, 390695, Note_off_c, 0, 50, 58
1, 390797, Note_on_c, 0, 67, 71
1, 390797, Note_on_c, 0, 71, 80
1, 390799, Note_on_c, 0, 53, 78
1, 390802, Note_on_c, 0, 60, 71
1, 390817, Note_off_c, 0, 52, 61
1, 390864, Note_off_c, 0, 67, 60
1, 390903, Note_off_c, 0, 60, 0
1, 390912, Note_off_c, 0, 53, 63
1, 390921, Note_on_c, 0, 69, 65
1, 390927, Note_on_c, 0, 55, 62
1, 390933, Note_on_c, 0, 65, 48
1, 390939, Poly_aftertouch_c, 0, 60, 127
1, 390942, Note_off_c, 0, 71, 60
1, 390960, Poly_aftertouch_c, 0, 60, 0
1, 390963, Note_off_c, 0, 65, 54
1, 390988, Note_off_c, 0, 55, 54
1, 390996, Note_off_c, 0, 69, 58
1, 391062, Note_on_c, 0, 64, 40
1, 391076, Note_on_c, 0, 68, 52
1, 391077, Note_on_c, 0, 56, 39
1, 391089, Note_on_c, 0, 61, 40
1, 391137, Note_off_c, 0, 56, 64
1, 391137, Note_off_c, 0, 61, 62
1, 391138, Note_off_c, 0, 64, 64
1, 391145, Note_off_c, 0, 68, 63
1, 391341, Note_on_c, 0, 66, 66
1, 391346, Note_on_c, 0, 51, 67
1, 391347, Note_on_c, 0, 58, 64
1, 391348, Note_on_c, 0, 63, 69
1, 391380, Note_off_c, 0, 51, 66
1, 391392, Control_c, 0, 64, 21
1, 391407, Control_c, 0, 64, 45
1, 391411, Note_off_c, 0, 63, 63
1, 391415, Note_off_c, 0, 58, 63
1, 391422, Control_c, 0, 64, 54
1, 391423, Note_off_c, 0, 66, 63
1, 391437, Control_c, 0, 64, 56
1, 391452, Control_c, 0, 64, 55
1, 391473, Control_c, 0, 64, 52
1, 391488, Control_c, 0, 64, 44
1, 391503, Control_c, 0, 64, 29
1, 391518, Control_c, 0, 64, 0
1, 391613, Note_on_c, 0, 64, 81
1, 391613, Note_on_c, 0, 56, 80
1, 391615, Note_on_c, 0, 61, 71
1, 391622, Note_on_c, 0, 46, 74
1, 391652, Control_c, 0, 64, 59
1, 391667, Control_c, 0, 64, 70
1, 391676, Note_off_c, 0, 46, 61
1, 391682, Control_c, 0, 64, 92
1, 391696, Control_c, 0, 64, 127
1, 391702, Note_off_c, 0, 56, 63
1, 391741, Note_off_c, 0, 64, 41
1, 391774, Note_on_c, 0, 37, 63
1, 391815, Control_c, 0, 64, 98
1, 391827, Note_off_c, 0, 61, 51
1, 391830, Control_c, 0, 64, 72
1, 391845, Control_c, 0, 64, 50
1, 391860, Control_c, 0, 64, 0
1, 391867, Note_on_c, 0, 31, 72
1, 391875, Note_on_c, 0, 62, 77
1, 391876, Note_on_c, 0, 59, 69
1, 391878, Note_on_c, 0, 54, 77
1, 391880, Note_off_c, 0, 37, 61
1, 391934, Control_c, 0, 64, 39
1, 391937, Note_off_c, 0, 31, 63
1, 391949, Control_c, 0, 64, 60
1, 391950, Note_off_c, 0, 59, 64
1, 391961, Note_off_c, 0, 54, 64
1, 391963, Control_c, 0, 64, 61
1, 391964, Note_off_c, 0, 62, 63
1, 391978, Control_c, 0, 64, 60
1, 391993, Control_c, 0, 64, 53
1, 392007, Control_c, 0, 64, 40
1, 392022, Control_c, 0, 64, 0
1, 392158, Note_on_c, 0, 52, 74
1, 392161, Note_on_c, 0, 36, 61
1, 392161, Note_on_c, 0, 60, 76
1, 392163, Note_on_c, 0, 59, 74
1, 392169, Control_c, 0, 64, 66
1, 392181, Note_off_c, 0, 52, 68
1, 392184, Control_c, 0, 64, 127
1, 392190, Note_off_c, 0, 59, 67
1, 392191, Note_off_c, 0, 36, 58
1, 392195, Note_off_c, 0, 60, 66
1, 392369, Control_c, 0, 67, 31
1, 392384, Control_c, 0, 67, 63
1, 392399, Control_c, 0, 67, 105
1, 392415, Control_c, 0, 67, 127
1, 392447, Note_on_c, 0, 67, 63
1, 392450, Note_on_c, 0, 86, 67
1, 392452, Note_on_c, 0, 81, 57
1, 392456, Note_on_c, 0, 72, 57
1, 392459, Control_c, 0, 64, 91
1, 392465, Note_on_c, 0, 78, 49
1, 392474, Control_c, 0, 64, 66
1, 392476, Note_off_c, 0, 72, 65
1, 392478, Note_off_c, 0, 67, 68
1, 392481, Note_off_c, 0, 81, 67
1, 392482, Note_off_c, 0, 86, 64
1, 392486, Note_off_c, 0, 78, 55
1, 392489, Control_c, 0, 64, 0
1, 392493, Note_on_c, 0, 64, 48
1, 392516, Note_on_c, 0, 60, 64
1, 392517, Note_off_c, 0, 64, 59
1, 392534, Note_off_c, 0, 60, 65
1, 392632, Note_on_c, 0, 43, 55
1, 392666, Note_on_c, 0, 40, 58
1, 392678, Note_off_c, 0, 43, 59
1, 392707, Note_off_c, 0, 40, 66
1, 392718, Note_on_c, 0, 36, 60
1, 392719, Note_on_c, 0, 88, 60
1, 392725, Note_on_c, 0, 76, 52
1, 392725, Note_on_c, 0, 84, 56
1, 392728, Note_on_c, 0, 79, 45
1, 392745, Note_off_c, 0, 76, 62
1, 392746, Note_off_c, 0, 36, 58
1, 392748, Note_off_c, 0, 88, 66
1, 392751, Note_off_c, 0, 79, 57
1, 392751, Note_off_c, 0, 84, 65
1, 392990, Note_on_c, 0, 89, 69
1, 392992, Note_on_c, 0, 80, 64
1, 392998, Note_on_c, 0, 76, 55
1, 393009, Note_on_c, 0, 67, 49
1, 393020, Note_off_c, 0, 76, 63
1, 393021, Note_on_c, 0, 86, 29
1, 393022, Note_off_c, 0, 80, 67
1, 393022, Note_off_c, 0, 89, 65
1, 393031, Note_on_c, 0, 64, 51
1, 393032, Note_off_c, 0, 67, 60
1, 393049, Note_off_c, 0, 86, 34
1, 393061, Note_off_c, 0, 64, 64
1, 393080, Note_on_c, 0, 60, 47
1, 393105, Note_off_c, 0, 60, 56
1, 393225, Note_on_c, 0, 40, 46
1, 393258, Note_off_c, 0, 40, 62
1, 393267, Note_on_c, 0, 36, 63
1, 393271, Note_on_c, 0, 76, 56
1, 393273, Note_on_c, 0, 88, 65
1, 393276, Note_on_c, 0, 79, 60
1, 393286, Note_on_c, 0, 84, 50
1, 393294, Note_off_c, 0, 79, 65
1, 393297, Note_off_c, 0, 36, 63
1, 393302, Note_off_c, 0, 88, 68
1, 393303, Note_off_c, 0, 76, 65
1, 393305, Note_off_c, 0, 84, 61
1, 393540, Note_on_c, 0, 67, 68
1, 393542, Note_on_c, 0, 72, 61
1, 393542, Note_on_c, 0, 79, 48
1, 393547, Note_on_c, 0, 88, 56
1, 393554, Note_on_c, 0, 84, 51
1, 393562, Note_off_c, 0, 72, 66
1, 393567, Note_off_c, 0, 79, 63
1, 393573, Note_on_c, 0, 64, 65
1, 393574, Note_off_c, 0, 67, 65
1, 393577, Note_off_c, 0, 84, 63
1, 393583, Note_off_c, 0, 88, 66
1, 393604, Note_off_c, 0, 64, 66
1, 393623, Note_on_c, 0, 60, 54
1, 393648, Note_off_c, 0, 60, 56
1, 393723, Note_on_c, 0, 43, 61
1, 393764, Note_on_c, 0, 40, 58
1, 393769, Note_off_c, 0, 43, 63
1, 393797, Note_off_c, 0, 40, 64
1, 393815, Note_on_c, 0, 36, 49
1, 393817, Note_on_c, 0, 88, 67
1, 393819, Note_on_c, 0, 76, 68
1, 393819, Note_on_c, 0, 79, 59
1, 393839, Note_on_c, 0, 84, 42
1, 393839, Note_off_c, 0, 79, 65
1, 393844, Note_off_c, 0, 88, 69
1, 393848, Note_off_c, 0, 76, 67
1, 393848, Note_off_c, 0, 36, 53
1, 393862, Note_off_c, 0, 84, 46
1, 394082, Note_on_c, 0, 89, 64
1, 394085, Note_on_c, 0, 76, 64
1, 394085, Note_on_c, 0, 84, 47
1, 394098, Note_on_c, 0, 81, 43
1, 394103, Note_on_c, 0, 67, 57
1, 394105, Note_off_c, 0, 84, 61
1, 394111, Note_off_c, 0, 89, 65
1, 394117, Note_off_c, 0, 76, 66
1, 394121, Note_off_c, 0, 81, 57
1, 394126, Note_on_c, 0, 64, 60
1, 394134, Note_off_c, 0, 67, 66
1, 394155, Note_off_c, 0, 64, 66
1, 394168, Note_on_c, 0, 60, 51
1, 394192, Note_off_c, 0, 60, 58
1, 394294, Note_on_c, 0, 43, 42
1, 394308, Note_on_c, 0, 40, 51
1, 394325, Note_off_c, 0, 43, 53
1, 394343, Note_off_c, 0, 40, 63
1, 394357, Note_on_c, 0, 36, 58
1, 394357, Note_on_c, 0, 88, 66
1, 394362, Note_on_c, 0, 79, 55
1, 394362, Note_on_c, 0, 84, 45
1, 394365, Note_on_c, 0, 78, 63
1, 394366, Poly_aftertouch_c, 0, 41, 0
1, 394381, Note_off_c, 0, 79, 63
1, 394385, Note_off_c, 0, 36, 59
1, 394385, Note_off_c, 0, 84, 62
1, 394388, Note_off_c, 0, 88, 66
1, 394391, Note_off_c, 0, 78, 65
1, 394627, Note_on_c, 0, 81, 63
1, 394628, Note_on_c, 0, 89, 76
1, 394641, Note_on_c, 0, 77, 63
1, 394644, Note_on_c, 0, 69, 67
1, 394647, Note_on_c, 0, 84, 39
1, 394653, Note_off_c, 0, 89, 69
1, 394656, Note_off_c, 0, 81, 68
1, 394671, Note_off_c, 0, 84, 46
1, 394672, Note_off_c, 0, 77, 66
1, 394674, Note_off_c, 0, 69, 67
1, 394681, Note_on_c, 0, 65, 56
1, 394709, Note_off_c, 0, 65, 66
1, 394718, Note_on_c, 0, 60, 66
1, 394746, Note_off_c, 0, 60, 65
1, 394826, Note_on_c, 0, 45, 55
1, 394851, Note_on_c, 0, 41, 61
1, 394864, Note_off_c, 0, 45, 64
1, 394890, Note_off_c, 0, 41, 65
1, 394900, Note_on_c, 0, 76, 68
1, 394904, Note_on_c, 0, 84, 82
1, 394907, Note_on_c, 0, 79, 63
1, 394911, Note_on_c, 0, 72, 72
1, 394912, Note_on_c, 0, 36, 47
1, 394946, Note_off_c, 0, 36, 53
1, 395021, Note_off_c, 0, 84, 66
1, 395037, Note_off_c, 0, 76, 64
1, 395042, Note_off_c, 0, 79, 66
1, 395062, Note_off_c, 0, 72, 64
1, 395165, Note_on_c, 0, 55, 88
1, 395178, Note_on_c, 0, 67, 59
1, 395186, Note_off_c, 0, 55, 69
1, 395213, Note_off_c, 0, 67, 66
1, 395252, Note_on_c, 0, 64, 20
1, 395258, Note_on_c, 0, 60, 51
1, 395281, Note_off_c, 0, 60, 58
1, 395297, Note_off_c, 0, 64, 30
1, 395349, Note_on_c, 0, 43, 67
1, 395394, Note_off_c, 0, 43, 62
1, 395398, Note_on_c, 0, 40, 44
1, 395431, Note_off_c, 0, 40, 55
1, 395431, Note_on_c, 0, 36, 54
1, 395454, Note_on_c, 0, 60, 90
1, 395461, Note_off_c, 0, 36, 58
1, 395528, Control_c, 0, 64, 63
1, 395531, Note_off_c, 0, 60, 66
1, 395543, Control_c, 0, 64, 86
1, 395558, Control_c, 0, 64, 127
1, 395722, Note_on_c, 0, 84, 71
1, 395731, Note_on_c, 0, 76, 75
1, 395735, Note_on_c, 0, 75, 70
1, 395736, Control_c, 0, 64, 77
1, 395739, Note_on_c, 0, 67, 58
1, 395751, Control_c, 0, 64, 43
1, 395752, Note_off_c, 0, 75, 64
1, 395757, Note_off_c, 0, 76, 69
1, 395759, Note_on_c, 0, 79, 40
1, 395766, Control_c, 0, 64, 0
1, 395773, Note_off_c, 0, 84, 62
1, 395774, Note_off_c, 0, 67, 66
1, 395781, Note_on_c, 0, 64, 45
1, 395786, Note_off_c, 0, 79, 35
1, 395807, Note_off_c, 0, 64, 61
1, 395816, Note_on_c, 0, 60, 48
1, 395840, Note_off_c, 0, 60, 58
1, 395925, Note_on_c, 0, 43, 52
1, 395960, Note_on_c, 0, 40, 49
1, 395972, Note_off_c, 0, 43, 62
1, 395993, Note_off_c, 0, 40, 63
1, 396001, Note_on_c, 0, 81, 47
1, 396005, Note_on_c, 0, 74, 54
1, 396006, Note_on_c, 0, 36, 54
1, 396007, Note_on_c, 0, 78, 51
1, 396013, Note_on_c, 0, 86, 47
1, 396024, Note_off_c, 0, 74, 63
1, 396027, Note_off_c, 0, 78, 60
1, 396027, Note_off_c, 0, 81, 66
1, 396036, Note_off_c, 0, 86, 59
1, 396036, Note_off_c, 0, 36, 55
1, 396266, Note_on_c, 0, 67, 62
1, 396272, Note_on_c, 0, 87, 68
1, 396276, Note_on_c, 0, 78, 62
1, 396281, Note_on_c, 0, 79, 48
1, 396290, Note_on_c, 0, 84, 50
1, 396297, Note_off_c, 0, 78, 64
1, 396299, Note_on_c, 0, 64, 51
1, 396299, Note_off_c, 0, 67, 65
1, 396300, Note_off_c, 0, 87, 67
1, 396302, Note_off_c, 0, 79, 59
1, 396308, Note_off_c, 0, 84, 62
1, 396331, Note_off_c, 0, 64, 65
1, 396338, Note_on_c, 0, 60, 60
1, 396358, Note_off_c, 0, 60, 61
1, 396454, Note_on_c, 0, 43, 55
1, 396485, Note_on_c, 0, 40, 50
1, 396494, Note_off_c, 0, 43, 60
1, 396522, Note_off_c, 0, 40, 63
1, 396535, Note_on_c, 0, 36, 52
1, 396540, Note_on_c, 0, 79, 59
1, 396542, Note_on_c, 0, 88, 72
1, 396546, Note_on_c, 0, 76, 67
1, 396548, Note_on_c, 0, 84, 56
1, 396556, Note_off_c, 0, 79, 63
1, 396563, Note_off_c, 0, 76, 67
1, 396564, Note_off_c, 0, 36, 55
1, 396566, Note_off_c, 0, 88, 69
1, 396572, Note_off_c, 0, 84, 65
1, 396802, Note_on_c, 0, 78, 88
1, 396802, Note_on_c, 0, 91, 84
1, 396805, Note_on_c, 0, 84, 74
1, 396812, Note_on_c, 0, 88, 65
1, 396821, Note_off_c, 0, 78, 72
1, 396825, Note_on_c, 0, 71, 40
1, 396827, Note_off_c, 0, 84, 71
1, 396832, Note_on_c, 0, 67, 66
1, 396838, Note_off_c, 0, 88, 68
1, 396847, Note_off_c, 0, 91, 64
1, 396850, Note_off_c, 0, 71, 58
1, 396859, Note_off_c, 0, 67, 66
1, 396869, Note_on_c, 0, 64, 51
1, 396893, Note_off_c, 0, 64, 58
1, 396984, Note_on_c, 0, 47, 44
1, 396996, Poly_aftertouch_c, 0, 87, 0
1, 397026, Note_off_c, 0, 47, 48
1, 397034, Note_on_c, 0, 43, 37
1, 397062, Note_on_c, 0, 40, 66
1, 397074, Note_off_c, 0, 43, 63
1, 397076, Note_on_c, 0, 79, 80
1, 397078, Note_on_c, 0, 86, 68
1, 397080, Note_on_c, 0, 91, 73
1, 397089, Note_off_c, 0, 40, 65
1, 397096, Note_off_c, 0, 79, 71
1, 397106, Note_off_c, 0, 91, 67
1, 397113, Note_off_c, 0, 86, 66
1, 397349, Note_on_c, 0, 72, 50
1, 397351, Note_on_c, 0, 94, 80
1, 397357, Note_on_c, 0, 80, 59
1, 397358, Note_on_c, 0, 85, 61
1, 397366, Note_on_c, 0, 90, 49
1, 397374, Note_off_c, 0, 80, 63
1, 397384, Note_off_c, 0, 85, 66
1, 397384, Note_off_c, 0, 90, 61
1, 397384, Note_off_c, 0, 94, 60
1, 397386, Note_off_c, 0, 72, 67
1, 397388, Note_on_c, 0, 69, 55
1, 397416, Note_off_c, 0, 69, 65
1, 397433, Note_on_c, 0, 65, 38
1, 397470, Note_off_c, 0, 65, 34
1, 397550, Note_on_c, 0, 48, 54
1, 397578, Note_on_c, 0, 45, 50
1, 397596, Note_off_c, 0, 48, 61
1, 397630, Note_off_c, 0, 45, 63
1, 397635, Note_on_c, 0, 93, 69
1, 397638, Note_on_c, 0, 41, 61
1, 397640, Note_on_c, 0, 81, 61
1, 397648, Note_on_c, 0, 84, 55
1, 397660, Note_on_c, 0, 89, 42
1, 397663, Note_off_c, 0, 93, 69
1, 397665, Note_off_c, 0, 84, 62
1, 397668, Note_off_c, 0, 81, 67
1, 397670, Note_off_c, 0, 41, 64
1, 397686, Note_off_c, 0, 89, 50
1, 397907, Note_on_c, 0, 93, 70
1, 397908, Note_on_c, 0, 84, 57
1, 397914, Note_on_c, 0, 79, 65
1, 397929, Note_on_c, 0, 74, 14
1, 397934, Note_off_c, 0, 93, 69
1, 397934, Note_off_c, 0, 84, 64
1, 397943, Note_off_c, 0, 79, 67
1, 397947, Note_off_c, 0, 74, 48
1, 397958, Note_on_c, 0, 69, 40
1, 397985, Note_off_c, 0, 69, 52
1, 398107, Note_on_c, 0, 50, 40
1, 398150, Note_on_c, 0, 47, 16
1, 398157, Note_off_c, 0, 50, 61
1, 398180, Note_on_c, 0, 41, 61
1, 398181, Note_off_c, 0, 47, 45
1, 398186, Note_on_c, 0, 69, 62
1, 398188, Note_on_c, 0, 77, 77
1, 398190, Note_on_c, 0, 65, 66
1, 398204, Note_on_c, 0, 74, 56
1, 398218, Note_off_c, 0, 41, 63
1, 398218, Note_off_c, 0, 69, 64
1, 398222, Note_off_c, 0, 77, 66
1, 398224, Note_off_c, 0, 65, 64
1, 398225, Note_off_c, 0, 74, 64
1, 398452, Note_on_c, 0, 88, 79
1, 398453, Note_on_c, 0, 76, 84
1, 398455, Note_on_c, 0, 71, 61
1, 398455, Note_on_c, 0, 80, 74
1, 398463, Note_on_c, 0, 83, 67
1, 398478, Note_off_c, 0, 76, 68
1, 398480, Note_off_c, 0, 80, 69
1, 398488, Note_off_c, 0, 83, 67
1, 398493, Note_off_c, 0, 88, 66
1, 398496, Note_off_c, 0, 71, 66
1, 398514, Note_on_c, 0, 68, 35
1, 398531, Note_on_c, 0, 64, 63
1, 398547, Note_off_c, 0, 68, 33
1, 398551, Note_off_c, 0, 64, 64
1, 398639, Note_on_c, 0, 52, 55
1, 398682, Note_on_c, 0, 47, 53
1, 398694, Note_off_c, 0, 52, 53
1, 398729, Note_off_c, 0, 47, 63
1, 398732, Note_on_c, 0, 43, 55
1, 398734, Note_on_c, 0, 91, 82
1, 398737, Note_on_c, 0, 80, 72
1, 398742, Note_on_c, 0, 84, 55
1, 398744, Note_on_c, 0, 88, 63
1, 398760, Note_off_c, 0, 84, 62
1, 398761, Note_off_c, 0, 43, 65
1, 398762, Note_off_c, 0, 80, 67
1, 398764, Note_off_c, 0, 91, 64
1, 398773, Note_off_c, 0, 88, 68
1, 399005, Note_on_c, 0, 67, 47
1, 399018, Note_on_c, 0, 69, 59
1, 399019, Note_on_c, 0, 79, 59
1, 399026, Note_on_c, 0, 72, 34
1, 399032, Note_on_c, 0, 76, 37
1, 399038, Note_off_c, 0, 69, 62
1, 399047, Note_off_c, 0, 67, 65
1, 399053, Note_off_c, 0, 79, 67
1, 399056, Note_off_c, 0, 72, 55
1, 399056, Note_off_c, 0, 76, 48
1, 399083, Note_on_c, 0, 60, 56
1, 399106, Note_off_c, 0, 60, 59
1, 399218, Note_on_c, 0, 50, 46
1, 399238, Note_on_c, 0, 47, 49
1, 399276, Note_off_c, 0, 50, 58
1, 399285, Note_off_c, 0, 47, 63
1, 399292, Note_on_c, 0, 91, 73
1, 399295, Note_on_c, 0, 79, 55
1, 399295, Note_on_c, 0, 81, 63
1, 399297, Note_on_c, 0, 43, 53
1, 399297, Note_on_c, 0, 84, 46
1, 399310, Note_on_c, 0, 88, 38
1, 399314, Note_off_c, 0, 81, 64
1, 399318, Note_off_c, 0, 84, 63
1, 399318, Note_off_c, 0, 91, 67
1, 399318, Note_off_c, 0, 79, 64
1, 399328, Note_off_c, 0, 43, 63
1, 399336, Note_off_c, 0, 88, 46
1, 399566, Note_on_c, 0, 68, 48
1, 399569, Note_on_c, 0, 78, 56
1, 399572, Note_on_c, 0, 75, 56
1, 399575, Note_on_c, 0, 84, 51
1, 399578, Note_on_c, 0, 82, 49
1, 399590, Note_off_c, 0, 78, 64
1, 399593, Note_off_c, 0, 75, 61
1, 399596, Note_on_c, 0, 63, 54
1, 399596, Note_off_c, 0, 68, 63
1, 399598, Note_off_c, 0, 84, 62
1, 399599, Note_off_c, 0, 82, 62
1, 399629, Note_off_c, 0, 63, 65
1, 399753, Note_on_c, 0, 50, 59
1, 399805, Note_off_c, 0, 50, 55
1, 399817, Note_on_c, 0, 47, 55
1, 399845, Note_on_c, 0, 79, 53
1, 399851, Note_off_c, 0, 47, 64
1, 399852, Note_on_c, 0, 74, 69
1, 399853, Note_on_c, 0, 86, 77
1, 399856, Note_on_c, 0, 43, 63
1, 399856, Note_on_c, 0, 83, 57
1, 399888, Control_c, 0, 64, 65
1, 399888, Note_off_c, 0, 79, 67
1, 399891, Note_off_c, 0, 43, 65
1, 399897, Note_off_c, 0, 83, 66
1, 399902, Control_c, 0, 64, 127
1, 399904, Note_off_c, 0, 74, 62
1, 399907, Note_off_c, 0, 86, 66
1, 400124, Control_c, 0, 67, 95
1, 400139, Control_c, 0, 67, 0
1, 400142, Note_on_c, 0, 74, 103
1, 400146, Note_on_c, 0, 62, 95
1, 400183, Control_c, 0, 64, 82
1, 400198, Control_c, 0, 64, 63
1, 400213, Control_c, 0, 64, 30
1, 400221, Note_off_c, 0, 62, 66
1, 400225, Note_on_c, 0, 59, 93
1, 400225, Note_on_c, 0, 71, 95
1, 400227, Control_c, 0, 64, 0
1, 400244, Note_off_c, 0, 74, 62
1, 400305, Note_on_c, 0, 67, 96
1, 400307, Note_on_c, 0, 55, 84
1, 400332, Note_off_c, 0, 59, 64
1, 400333, Note_off_c, 0, 71, 62
1, 400382, Note_on_c, 0, 50, 69
1, 400385, Note_off_c, 0, 55, 65
1, 400385, Note_off_c, 0, 67, 59
1, 400389, Note_on_c, 0, 62, 90
1, 400409, Note_off_c, 0, 50, 67
1, 400434, Note_off_c, 0, 62, 67
1, 400471, Note_on_c, 0, 62, 90
1, 400473, Note_on_c, 0, 50, 76
1, 400505, Note_on_c, 0, 48, 24
1, 400506, Note_off_c, 0, 48, 127
1, 400540, Note_off_c, 0, 50, 62
1, 400547, Note_on_c, 0, 59, 98
1, 400548, Note_on_c, 0, 47, 84
1, 400573, Note_off_c, 0, 62, 62
1, 400618, Note_on_c, 0, 43, 87
1, 400622, Note_on_c, 0, 55, 98
1, 400635, Note_off_c, 0, 47, 61
1, 400646, Note_off_c, 0, 59, 61
1, 400669, Note_off_c, 0, 43, 64
1, 400687, Note_off_c, 0, 55, 63
1, 400698, Note_on_c, 0, 50, 91
1, 400722, Note_on_c, 0, 40, 77
1, 400724, Note_on_c, 0, 38, 74
1, 400746, Note_off_c, 0, 50, 66
1, 400773, Note_on_c, 0, 47, 96
1, 400780, Note_on_c, 0, 35, 90
1, 400785, Note_off_c, 0, 40, 61
1, 400795, Note_off_c, 0, 38, 63
1, 400814, Note_off_c, 0, 47, 66
1, 400827, Note_off_c, 0, 35, 62
1, 400867, Note_on_c, 0, 31, 97
1, 400877, Note_on_c, 0, 46, 83
1, 400879, Note_on_c, 0, 50, 79
1, 400883, Note_on_c, 0, 43, 83
1, 400917, Note_off_c, 0, 43, 65
1, 400943, Note_off_c, 0, 46, 63
1, 400949, Note_off_c, 0, 50, 65
1, 401157, Note_on_c, 0, 55, 71
1, 401157, Note_on_c, 0, 62, 73
1, 401159, Note_on_c, 0, 58, 72
1, 401226, Note_off_c, 0, 55, 54
1, 401239, Note_off_c, 0, 58, 57
1, 401253, Note_off_c, 0, 62, 54
1, 401431, Note_on_c, 0, 59, 53
1, 401438, Note_on_c, 0, 55, 57
1, 401444, Note_on_c, 0, 62, 54
1, 401560, Note_off_c, 0, 62, 57
1, 401561, Note_off_c, 0, 55, 47
1, 401569, Note_on_c, 0, 34, 70
1, 401579, Note_off_c, 0, 59, 48
1, 401706, Note_on_c, 0, 55, 48
1, 401713, Note_on_c, 0, 62, 47
1, 401715, Note_on_c, 0, 59, 52
1, 401721, Note_on_c, 0, 37, 74
1, 401724, Poly_aftertouch_c, 0, 33, 127
1, 401725, Note_off_c, 0, 31, 47
1, 401791, Poly_aftertouch_c, 0, 33, 0
1, 401841, Note_on_c, 0, 41, 85
1, 401843, Note_off_c, 0, 62, 55
1, 401845, Note_off_c, 0, 55, 36
1, 401863, Note_off_c, 0, 34, 60
1, 401870, Note_off_c, 0, 59, 54
1, 401923, Note_off_c, 0, 37, 59
1, 401985, Note_on_c, 0, 44, 80
1, 402001, Note_on_c, 0, 55, 56
1, 402001, Note_on_c, 0, 59, 60
1, 402007, Note_on_c, 0, 62, 61
1, 402024, Note_off_c, 0, 41, 64
1, 402113, Note_on_c, 0, 41, 78
1, 402114, Note_off_c, 0, 62, 58
1, 402118, Note_off_c, 0, 55, 47
1, 402118, Note_off_c, 0, 59, 56
1, 402135, Note_off_c, 0, 44, 63
1, 402254, Note_on_c, 0, 37, 66
1, 402274, Note_on_c, 0, 55, 55
1, 402278, Note_on_c, 0, 59, 41
1, 402280, Note_on_c, 0, 62, 52
1, 402293, Note_off_c, 0, 41, 60
1, 402377, Note_on_c, 0, 41, 71
1, 402389, Note_off_c, 0, 62, 56
1, 402393, Note_off_c, 0, 59, 51
1, 402401, Note_off_c, 0, 55, 41
1, 402412, Note_off_c, 0, 37, 60
1, 402522, Note_on_c, 0, 44, 79
1, 402540, Note_on_c, 0, 59, 48
1, 402541, Note_on_c, 0, 55, 55
1, 402543, Note_on_c, 0, 62, 54
1, 402586, Note_off_c, 0, 41, 61
1, 402594, Note_off_c, 0, 59, 60
1, 402641, Note_on_c, 0, 47, 85
1, 402645, Note_off_c, 0, 62, 52
1, 402657, Note_off_c, 0, 55, 34
1, 402671, Note_off_c, 0, 44, 64
1, 402795, Note_on_c, 0, 50, 84
1, 402809, Note_on_c, 0, 59, 60
1, 402812, Note_on_c, 0, 62, 56
1, 402815, Note_on_c, 0, 55, 55
1, 402824, Note_off_c, 0, 47, 64
1, 402905, Note_on_c, 0, 49, 83
1, 402910, Note_off_c, 0, 62, 56
1, 402922, Note_off_c, 0, 59, 38
1, 402924, Note_off_c, 0, 55, 46
1, 402943, Note_off_c, 0, 50, 64
1, 403065, Note_on_c, 0, 50, 73
1, 403077, Note_off_c, 0, 49, 59
1, 403086, Note_on_c, 0, 59, 50
1, 403089, Note_on_c, 0, 55, 49
1, 403092, Note_on_c, 0, 62, 57
1, 403149, Control_c, 0, 64, 17
1, 403157, Note_off_c, 0, 55, 58
1, 403164, Control_c, 0, 64, 52
1, 403168, Note_off_c, 0, 59, 61
1, 403179, Control_c, 0, 64, 61
1, 403193, Control_c, 0, 64, 67
1, 403205, Note_off_c, 0, 62, 63
1, 403208, Control_c, 0, 64, 78
1, 403223, Control_c, 0, 64, 108
1, 403237, Control_c, 0, 64, 127
1, 403373, Note_on_c, 0, 74, 79
1, 403378, Note_on_c, 0, 55, 48
1, 403381, Note_on_c, 0, 58, 51
1, 403386, Control_c, 0, 64, 105
1, 403389, Note_on_c, 0, 70, 62
1, 403391, Note_on_c, 0, 61, 57
1, 403400, Control_c, 0, 64, 94
1, 403415, Control_c, 0, 64, 86
1, 403430, Control_c, 0, 64, 80
1, 403452, Control_c, 0, 64, 74
1, 403467, Control_c, 0, 64, 71
1, 403482, Control_c, 0, 64, 68
1, 403497, Control_c, 0, 64, 66
1, 403512, Control_c, 0, 64, 64
1, 403526, Control_c, 0, 64, 61
1, 403541, Control_c, 0, 64, 57
1, 403556, Control_c, 0, 64, 56
1, 403585, Note_off_c, 0, 58, 54
1, 403586, Control_c, 0, 64, 56
1, 403602, Control_c, 0, 64, 54
1, 403616, Control_c, 0, 64, 51
1, 403631, Control_c, 0, 64, 49
1, 403646, Control_c, 0, 64, 48
1, 403661, Control_c, 0, 64, 48
1, 403672, Note_off_c, 0, 61, 37
1, 403676, Control_c, 0, 64, 47
1, 403690, Control_c, 0, 64, 46
1, 403705, Control_c, 0, 64, 45
1, 403709, Note_on_c, 0, 62, 44
1, 403712, Note_on_c, 0, 59, 47
1, 403720, Control_c, 0, 64, 44
1, 403729, Note_on_c, 0, 71, 59
1, 403735, Control_c, 0, 64, 42
1, 403749, Control_c, 0, 64, 40
1, 403764, Control_c, 0, 64, 38
1, 403779, Control_c, 0, 64, 36
1, 403784, Note_off_c, 0, 70, 57
1, 403794, Control_c, 0, 64, 34
1, 403809, Control_c, 0, 64, 34
1, 403834, Note_off_c, 0, 55, 57
1, 403838, Control_c, 0, 64, 34
1, 403853, Control_c, 0, 64, 41
1, 403867, Control_c, 0, 64, 53
1, 403871, Note_off_c, 0, 50, 60
1, 403882, Control_c, 0, 64, 61
1, 403897, Control_c, 0, 64, 66
1, 403912, Control_c, 0, 64, 76
1, 403927, Control_c, 0, 64, 99
1, 403942, Control_c, 0, 64, 127
1, 403978, Note_on_c, 0, 52, 77
1, 403995, Note_on_c, 0, 64, 59
1, 404060, Control_c, 0, 64, 111
1, 404075, Control_c, 0, 64, 100
1, 404090, Control_c, 0, 64, 95
1, 404099, Note_on_c, 0, 66, 68
1, 404101, Note_on_c, 0, 54, 80
1, 404105, Control_c, 0, 64, 92
1, 404114, Note_off_c, 0, 62, 55
1, 404116, Note_off_c, 0, 59, 60
1, 404120, Control_c, 0, 64, 88
1, 404134, Control_c, 0, 64, 84
1, 404138, Note_off_c, 0, 64, 35
1, 404149, Control_c, 0, 64, 80
1, 404164, Control_c, 0, 64, 77
1, 404179, Control_c, 0, 64, 73
1, 404198, Note_off_c, 0, 66, 61
1, 404201, Control_c, 0, 64, 69
1, 404203, Note_off_c, 0, 52, 59
1, 404216, Control_c, 0, 64, 64
1, 404231, Control_c, 0, 64, 62
1, 404246, Control_c, 0, 64, 61
1, 404261, Control_c, 0, 64, 60
1, 404268, Note_on_c, 0, 55, 67
1, 404269, Note_on_c, 0, 67, 57
1, 404273, Note_off_c, 0, 54, 63
1, 404275, Control_c, 0, 64, 58
1, 404290, Control_c, 0, 64, 53
1, 404305, Control_c, 0, 64, 47
1, 404309, Note_off_c, 0, 74, 46
1, 404320, Control_c, 0, 64, 45
1, 404332, Note_off_c, 0, 71, 56
1, 404349, Control_c, 0, 64, 44
1, 404364, Control_c, 0, 64, 41
1, 404379, Control_c, 0, 64, 36
1, 404393, Note_off_c, 0, 55, 64
1, 404395, Control_c, 0, 64, 32
1, 404410, Control_c, 0, 64, 30
1, 404439, Control_c, 0, 64, 29
1, 404440, Note_off_c, 0, 67, 59
1, 404454, Control_c, 0, 64, 28
1, 404469, Control_c, 0, 64, 26
1, 404484, Control_c, 0, 64, 25
1, 404498, Control_c, 0, 64, 24
1, 404513, Control_c, 0, 64, 23
1, 404528, Control_c, 0, 64, 23
1, 404543, Control_c, 0, 64, 22
1, 404547, Note_on_c, 0, 74, 64
1, 404548, Note_on_c, 0, 50, 60
1, 404550, Note_on_c, 0, 71, 53
1, 404555, Note_on_c, 0, 67, 55
1, 404558, Control_c, 0, 64, 20
1, 404559, Note_on_c, 0, 62, 48
1, 404572, Control_c, 0, 64, 18
1, 404587, Control_c, 0, 64, 15
1, 404602, Control_c, 0, 64, 11
1, 404617, Note_off_c, 0, 50, 64
1, 404617, Control_c, 0, 64, 0
1, 404625, Note_on_c, 0, 52, 67
1, 404683, Note_off_c, 0, 62, 62
1, 404687, Note_off_c, 0, 67, 59
1, 404696, Note_on_c, 0, 50, 81
1, 404712, Note_off_c, 0, 52, 64
1, 404713, Note_off_c, 0, 74, 63
1, 404733, Note_off_c, 0, 71, 64
1, 404791, Note_on_c, 0, 76, 89
1, 404792, Note_on_c, 0, 48, 68
1, 404796, Note_on_c, 0, 69, 74
1, 404797, Note_on_c, 0, 64, 79
1, 404800, Note_on_c, 0, 72, 73
1, 404825, Note_off_c, 0, 50, 63
1, 404898, Note_off_c, 0, 69, 62
1, 404902, Note_off_c, 0, 64, 61
1, 404928, Note_off_c, 0, 72, 65
1, 404931, Note_off_c, 0, 76, 64
1, 404983, Note_off_c, 0, 48, 61
1, 405068, Note_on_c, 0, 78, 90
1, 405070, Note_on_c, 0, 71, 67
1, 405074, Note_on_c, 0, 66, 87
1, 405076, Note_on_c, 0, 47, 61
1, 405082, Note_on_c, 0, 74, 78
1, 405097, Note_on_c, 0, 77, 76
1, 405142, Note_on_c, 0, 76, 23
1, 405143, Note_off_c, 0, 76, 127
1, 405167, Poly_aftertouch_c, 0, 73, 0
1, 405173, Note_off_c, 0, 71, 60
1, 405186, Note_off_c, 0, 78, 56
1, 405200, Note_off_c, 0, 77, 60
1, 405225, Note_off_c, 0, 66, 60
1, 405239, Note_off_c, 0, 74, 54
1, 405247, Note_off_c, 0, 47, 59
1, 405357, Note_on_c, 0, 45, 59
1, 405360, Note_on_c, 0, 79, 88
1, 405361, Note_on_c, 0, 67, 80
1, 405364, Note_on_c, 0, 72, 59
1, 405378, Note_on_c, 0, 76, 50
1, 405456, Control_c, 0, 64, 14
1, 405470, Control_c, 0, 64, 51
1, 405480, Note_off_c, 0, 79, 65
1, 405485, Control_c, 0, 64, 65
1, 405500, Control_c, 0, 64, 78
1, 405507, Note_off_c, 0, 76, 65
1, 405510, Note_off_c, 0, 72, 64
1, 405514, Control_c, 0, 64, 127
1, 405526, Note_off_c, 0, 67, 63
1, 405674, Note_on_c, 0, 55, 29
1, 405693, Note_on_c, 0, 67, 84
1, 405700, Control_c, 0, 64, 96
1, 405702, Note_on_c, 0, 60, 68
1, 405704, Note_on_c, 0, 59, 64
1, 405704, Note_on_c, 0, 64, 67
1, 405714, Control_c, 0, 64, 80
1, 405729, Control_c, 0, 64, 69
1, 405744, Control_c, 0, 64, 62
1, 405759, Control_c, 0, 64, 55
1, 405763, Note_off_c, 0, 55, 46
1, 405774, Control_c, 0, 64, 54
1, 405788, Control_c, 0, 64, 58
1, 405803, Control_c, 0, 64, 63
1, 405818, Control_c, 0, 64, 70
1, 405833, Control_c, 0, 64, 84
1, 405837, Note_off_c, 0, 59, 63
1, 405847, Control_c, 0, 64, 127
1, 405854, Note_off_c, 0, 60, 56
1, 405884, Note_off_c, 0, 64, 65
1, 405885, Note_off_c, 0, 67, 63
1, 405985, Note_on_c, 0, 54, 53
1, 406028, Note_on_c, 0, 79, 81
1, 406041, Note_on_c, 0, 72, 59
1, 406041, Control_c, 0, 64, 91
1, 406043, Note_on_c, 0, 76, 61
1, 406054, Note_on_c, 0, 67, 54
1, 406056, Control_c, 0, 64, 76
1, 406071, Control_c, 0, 64, 66
1, 406085, Control_c, 0, 64, 59
1, 406086, Note_off_c, 0, 45, 39
1, 406100, Control_c, 0, 64, 53
1, 406115, Control_c, 0, 64, 54
1, 406130, Control_c, 0, 64, 58
1, 406145, Control_c, 0, 64, 63
1, 406159, Note_off_c, 0, 76, 63
1, 406159, Control_c, 0, 64, 69
1, 406174, Control_c, 0, 64, 77
1, 406186, Note_off_c, 0, 79, 65
1, 406189, Note_on_c, 0, 47, 66
1, 406189, Control_c, 0, 64, 99
1, 406204, Control_c, 0, 64, 127
1, 406214, Note_off_c, 0, 54, 38
1, 406309, Note_on_c, 0, 78, 76
1, 406315, Note_on_c, 0, 52, 60
1, 406318, Note_on_c, 0, 74, 66
1, 406322, Control_c, 0, 64, 110
1, 406336, Control_c, 0, 64, 96
1, 406344, Note_on_c, 0, 48, 51
1, 406345, Note_off_c, 0, 72, 61
1, 406351, Control_c, 0, 64, 88
1, 406366, Control_c, 0, 64, 82
1, 406378, Note_off_c, 0, 67, 63
1, 406381, Control_c, 0, 64, 78
1, 406392, Note_off_c, 0, 74, 51
1, 406396, Control_c, 0, 64, 73
1, 406410, Control_c, 0, 64, 67
1, 406419, Note_off_c, 0, 52, 62
1, 406425, Control_c, 0, 64, 64
1, 406445, Note_on_c, 0, 76, 63
1, 406448, Control_c, 0, 64, 63
1, 406449, Note_on_c, 0, 72, 59
1, 406462, Control_c, 0, 64, 63
1, 406469, Note_on_c, 0, 50, 45
1, 406477, Control_c, 0, 64, 61
1, 406484, Note_off_c, 0, 72, 63
1, 406484, Note_off_c, 0, 47, 30
1, 406492, Note_off_c, 0, 48, 53
1, 406492, Control_c, 0, 64, 58
1, 406507, Control_c, 0, 64, 53
1, 406522, Control_c, 0, 64, 48
1, 406536, Control_c, 0, 64, 47
1, 406551, Control_c, 0, 64, 46
1, 406566, Control_c, 0, 64, 43
1, 406570, Note_off_c, 0, 76, 60
1, 406581, Control_c, 0, 64, 40
1, 406591, Note_off_c, 0, 50, 55
1, 406596, Control_c, 0, 64, 36
1, 406602, Note_on_c, 0, 75, 54
1, 406610, Note_on_c, 0, 71, 49
1, 406610, Control_c, 0, 64, 31
1, 406619, Note_on_c, 0, 51, 46
1, 406620, Note_on_c, 0, 68, 40
1, 406625, Control_c, 0, 64, 28
1, 406630, Note_off_c, 0, 78, 21
1, 406640, Control_c, 0, 64, 22
1, 406655, Control_c, 0, 64, 13
1, 406669, Control_c, 0, 64, 0
1, 406708, Note_off_c, 0, 51, 61
1, 406723, Note_off_c, 0, 75, 63
1, 406723, Note_off_c, 0, 71, 64
1, 406735, Note_off_c, 0, 68, 60
1, 406887, Note_on_c, 0, 73, 69
1, 406891, Note_on_c, 0, 46, 39
1, 406894, Note_on_c, 0, 65, 56
1, 406899, Note_on_c, 0, 70, 67
1, 406966, Note_off_c, 0, 46, 53
1, 406966, Note_off_c, 0, 70, 63
1, 406969, Note_off_c, 0, 65, 63
1, 406972, Note_off_c, 0, 73, 63
1, 407152, Note_on_c, 0, 71, 86
1, 407154, Note_on_c, 0, 63, 76
1, 407156, Note_on_c, 0, 68, 72
1, 407158, Note_on_c, 0, 41, 73
1, 407221, Note_off_c, 0, 41, 62
1, 407239, Note_off_c, 0, 63, 63
1, 407244, Note_off_c, 0, 71, 62
1, 407259, Note_off_c, 0, 68, 62
1, 407430, Note_on_c, 0, 39, 67
1, 407430, Note_on_c, 0, 58, 78
1, 407430, Note_on_c, 0, 69, 84
1, 407432, Note_on_c, 0, 27, 68
1, 407432, Note_on_c, 0, 61, 73
1, 407473, Note_off_c, 0, 39, 62
1, 407479, Note_off_c, 0, 27, 63
1, 407505, Note_off_c, 0, 69, 65
1, 407507, Note_off_c, 0, 58, 64
1, 407516, Note_off_c, 0, 61, 63
1, 407715, Control_c, 0, 64, 38
1, 407721, Note_on_c, 0, 67, 87
1, 407724, Note_on_c, 0, 43, 46
1, 407724, Note_on_c, 0, 59, 72
1, 407724, Note_on_c, 0, 54, 74
1, 407727, Note_on_c, 0, 31, 54
1, 407730, Control_c, 0, 64, 69
1, 407745, Control_c, 0, 64, 127
1, 407748, Note_off_c, 0, 59, 67
1, 407755, Note_off_c, 0, 54, 67
1, 407755, Note_off_c, 0, 43, 51
1, 407761, Note_off_c, 0, 31, 52
1, 407766, Note_off_c, 0, 67, 66
1, 408020, Control_c, 0, 67, 8
1, 408029, Note_on_c, 0, 81, 64
1, 408032, Note_on_c, 0, 67, 56
1, 408034, Note_on_c, 0, 73, 56
1, 408034, Note_on_c, 0, 76, 52
1, 408034, Control_c, 0, 64, 90
1, 408034, Control_c, 0, 67, 63
1, 408040, Note_on_c, 0, 62, 56
1, 408049, Control_c, 0, 64, 67
1, 408049, Control_c, 0, 67, 124
1, 408054, Note_off_c, 0, 73, 63
1, 408056, Note_off_c, 0, 76, 61
1, 408058, Note_off_c, 0, 67, 57
1, 408060, Note_off_c, 0, 81, 67
1, 408064, Control_c, 0, 64, 33
1, 408064, Control_c, 0, 67, 127
1, 408070, Note_off_c, 0, 62, 65
1, 408076, Note_on_c, 0, 59, 59
1, 408079, Control_c, 0, 64, 0
1, 408103, Note_on_c, 0, 55, 64
1, 408107, Note_off_c, 0, 59, 64
1, 408130, Note_off_c, 0, 55, 66
1, 408234, Note_on_c, 0, 38, 54
1, 408258, Note_on_c, 0, 35, 55
1, 408282, Note_off_c, 0, 38, 60
1, 408299, Note_off_c, 0, 35, 64
1, 408306, Note_on_c, 0, 74, 45
1, 408311, Note_on_c, 0, 31, 58
1, 408315, Note_on_c, 0, 71, 54
1, 408317, Note_on_c, 0, 83, 57
1, 408319, Note_on_c, 0, 79, 52
1, 408329, Note_off_c, 0, 74, 61
1, 408336, Note_off_c, 0, 71, 64
1, 408341, Note_off_c, 0, 83, 65
1, 408342, Note_off_c, 0, 31, 60
1, 408344, Note_off_c, 0, 79, 65
1, 408580, Note_on_c, 0, 71, 54
1, 408580, Note_on_c, 0, 84, 60
1, 408583, Note_on_c, 0, 62, 53
1, 408583, Note_on_c, 0, 75, 56
1, 408604, Note_off_c, 0, 75, 62
1, 408611, Note_off_c, 0, 84, 64
1, 408612, Note_off_c, 0, 71, 65
1, 408621, Note_on_c, 0, 59, 54
1, 408623, Note_off_c, 0, 62, 65
1, 408653, Note_off_c, 0, 59, 65
1, 408657, Note_on_c, 0, 55, 60
1, 408688, Note_off_c, 0, 55, 62
1, 408797, Note_on_c, 0, 38, 40
1, 408831, Note_off_c, 0, 38, 53
1, 408867, Note_on_c, 0, 71, 59
1, 408873, Note_on_c, 0, 83, 58
1, 408874, Note_on_c, 0, 31, 63
1, 408879, Note_on_c, 0, 74, 45
1, 408881, Note_on_c, 0, 79, 47
1, 408898, Note_off_c, 0, 71, 66
1, 408899, Note_off_c, 0, 83, 64
1, 408900, Note_off_c, 0, 74, 55
1, 408903, Note_off_c, 0, 79, 60
1, 408907, Note_off_c, 0, 31, 63
1, 408910, Poly_aftertouch_c, 0, 35, 0
1, 408926, Poly_aftertouch_c, 0, 36, 0
1, 409146, Note_on_c, 0, 67, 57
1, 409149, Note_on_c, 0, 83, 56
1, 409152, Note_on_c, 0, 74, 53
1, 409153, Note_on_c, 0, 62, 57
1, 409153, Note_on_c, 0, 79, 56
1, 409167, Note_off_c, 0, 67, 61
1, 409173, Note_off_c, 0, 74, 60
1, 409175, Note_off_c, 0, 79, 65
1, 409179, Note_off_c, 0, 83, 64
1, 409182, Note_on_c, 0, 59, 53
1, 409185, Note_off_c, 0, 62, 66
1, 409212, Note_off_c, 0, 59, 64
1, 409219, Note_on_c, 0, 55, 56
1, 409243, Note_off_c, 0, 55, 61
1, 409340, Note_on_c, 0, 38, 48
1, 409361, Note_on_c, 0, 35, 54
1, 409389, Note_off_c, 0, 38, 59
1, 409403, Note_off_c, 0, 35, 63
1, 409418, Note_on_c, 0, 74, 52
1, 409424, Note_on_c, 0, 31, 50
1, 409425, Note_on_c, 0, 83, 65
1, 409427, Note_on_c, 0, 71, 62
1, 409427, Note_on_c, 0, 79, 55
1, 409452, Note_off_c, 0, 74, 63
1, 409461, Note_off_c, 0, 83, 67
1, 409462, Note_off_c, 0, 71, 66
1, 409463, Note_off_c, 0, 79, 66
1, 409467, Note_off_c, 0, 31, 50
1, 409692, Note_on_c, 0, 76, 53
1, 409693, Note_on_c, 0, 84, 65
1, 409695, Note_on_c, 0, 62, 52
1, 409702, Note_on_c, 0, 71, 60
1, 409703, Note_on_c, 0, 79, 55
1, 409714, Note_off_c, 0, 84, 63
1, 409722, Note_off_c, 0, 79, 64
1, 409722, Note_off_c, 0, 71, 64
1, 409723, Note_off_c, 0, 76, 62
1, 409732, Note_off_c, 0, 62, 65
1, 409740, Note_on_c, 0, 59, 36
1, 409766, Note_off_c, 0, 59, 53
1, 409892, Note_on_c, 0, 38, 50
1, 409918, Note_on_c, 0, 35, 48
1, 409941, Note_off_c, 0, 38, 59
1, 409957, Note_off_c, 0, 35, 62
1, 409969, Note_on_c, 0, 31, 60
1, 409978, Note_on_c, 0, 74, 58
1, 409978, Note_on_c, 0, 83, 68
1, 409986, Note_on_c, 0, 73, 58
1, 409993, Note_on_c, 0, 79, 45
1, 409997, Note_off_c, 0, 74, 63
1, 410004, Note_off_c, 0, 31, 63
1, 410004, Note_off_c, 0, 73, 64
1, 410011, Note_off_c, 0, 83, 61
1, 410016, Note_off_c, 0, 79, 59
1, 410250, Note_on_c, 0, 84, 73
1, 410256, Note_on_c, 0, 76, 50
1, 410258, Note_on_c, 0, 64, 42
1, 410259, Note_on_c, 0, 72, 63
1, 410259, Note_on_c, 0, 79, 53
1, 410273, Note_off_c, 0, 84, 68
1, 410278, Note_on_c, 0, 60, 54
1, 410278, Note_off_c, 0, 76, 58
1, 410279, Note_off_c, 0, 79, 62
1, 410286, Note_off_c, 0, 64, 61
1, 410289, Note_off_c, 0, 72, 67
1, 410308, Note_off_c, 0, 60, 66
1, 410312, Note_on_c, 0, 55, 63
1, 410344, Note_off_c, 0, 55, 65
1, 410428, Note_on_c, 0, 40, 63
1, 410466, Note_on_c, 0, 36, 43
1, 410474, Note_off_c, 0, 40, 62
1, 410508, Note_off_c, 0, 36, 63
1, 410518, Note_on_c, 0, 33, 54
1, 410523, Note_on_c, 0, 79, 87
1, 410528, Note_on_c, 0, 67, 75
1, 410528, Note_on_c, 0, 71, 66
1, 410532, Note_on_c, 0, 74, 64
1, 410553, Note_off_c, 0, 33, 63
1, 410633, Note_off_c, 0, 79, 66
1, 410653, Note_off_c, 0, 71, 63
1, 410655, Note_off_c, 0, 74, 65
1, 410679, Note_off_c, 0, 67, 65
1, 410801, Note_on_c, 0, 62, 61
1, 410804, Note_on_c, 0, 52, 58
1, 410809, Note_on_c, 0, 50, 58
1, 410826, Note_off_c, 0, 52, 61
1, 410831, Note_on_c, 0, 59, 60
1, 410834, Note_off_c, 0, 50, 58
1, 410834, Note_off_c, 0, 62, 65
1, 410857, Note_off_c, 0, 59, 66
1, 410882, Note_on_c, 0, 55, 53
1, 410911, Note_off_c, 0, 55, 35
1, 411012, Note_on_c, 0, 38, 34
1, 411018, Note_on_c, 0, 35, 57
1, 411049, Note_off_c, 0, 38, 46
1, 411059, Note_off_c, 0, 35, 64
1, 411066, Note_on_c, 0, 31, 61
1, 411094, Note_on_c, 0, 55, 85
1, 411094, Note_off_c, 0, 31, 63
1, 411149, Control_c, 0, 64, 56
1, 411151, Note_off_c, 0, 55, 64
1, 411164, Control_c, 0, 64, 73
1, 411179, Control_c, 0, 64, 96
1, 411194, Control_c, 0, 64, 127
1, 411371, Control_c, 0, 64, 82
1, 411376, Note_on_c, 0, 71, 64
1, 411379, Note_on_c, 0, 79, 66
1, 411382, Note_on_c, 0, 70, 65
1, 411386, Control_c, 0, 64, 55
1, 411392, Note_on_c, 0, 74, 43
1, 411400, Control_c, 0, 64, 0
1, 411403, Note_off_c, 0, 71, 67
1, 411409, Note_off_c, 0, 70, 69
1, 411414, Note_off_c, 0, 74, 56
1, 411421, Note_off_c, 0, 79, 64
1, 411451, Note_on_c, 0, 55, 57
1, 411473, Note_off_c, 0, 55, 60
1, 411578, Note_on_c, 0, 38, 33
1, 411591, Note_on_c, 0, 35, 54
1, 411632, Note_off_c, 0, 38, 47
1, 411633, Note_off_c, 0, 35, 63
1, 411650, Note_on_c, 0, 81, 63
1, 411653, Note_on_c, 0, 73, 39
1, 411655, Note_on_c, 0, 76, 52
1, 411656, Note_on_c, 0, 69, 50
1, 411658, Note_on_c, 0, 31, 39
1, 411683, Note_off_c, 0, 76, 63
1, 411686, Note_off_c, 0, 73, 53
1, 411686, Note_off_c, 0, 81, 68
1, 411687, Note_off_c, 0, 69, 58
1, 411705, Note_off_c, 0, 31, 50
1, 411930, Note_on_c, 0, 62, 54
1, 411932, Note_on_c, 0, 82, 65
1, 411936, Note_on_c, 0, 73, 63
1, 411936, Note_on_c, 0, 74, 56
1, 411940, Note_on_c, 0, 79, 58
1, 411955, Note_off_c, 0, 74, 64
1, 411959, Note_on_c, 0, 59, 52
1, 411963, Note_off_c, 0, 73, 66
1, 411965, Note_off_c, 0, 82, 61
1, 411966, Note_off_c, 0, 62, 64
1, 411968, Note_off_c, 0, 79, 67
1, 411984, Note_off_c, 0, 59, 62
1, 411991, Note_on_c, 0, 55, 57
1, 412015, Note_off_c, 0, 55, 58
1, 412116, Note_on_c, 0, 38, 45
1, 412139, Note_on_c, 0, 35, 52
1, 412160, Note_off_c, 0, 38, 60
1, 412181, Note_off_c, 0, 35, 63
1, 412192, Note_on_c, 0, 31, 52
1, 412208, Note_on_c, 0, 74, 31
1, 412212, Note_on_c, 0, 83, 65
1, 412215, Note_on_c, 0, 71, 47
1, 412218, Note_on_c, 0, 79, 46
1, 412223, Note_off_c, 0, 31, 58
1, 412228, Note_off_c, 0, 74, 48
1, 412235, Note_off_c, 0, 83, 65
1, 412238, Note_off_c, 0, 71, 59
1, 412238, Note_off_c, 0, 79, 60
1, 412461, Note_on_c, 0, 66, 59
1, 412464, Note_on_c, 0, 86, 77
1, 412466, Note_on_c, 0, 73, 75
1, 412468, Note_on_c, 0, 79, 62
1, 412479, Note_on_c, 0, 83, 40
1, 412487, Note_off_c, 0, 86, 72
1, 412488, Note_off_c, 0, 73, 71
1, 412489, Note_off_c, 0, 79, 66
1, 412491, Note_off_c, 0, 66, 65
1, 412500, Note_on_c, 0, 62, 49
1, 412506, Note_off_c, 0, 83, 48
1, 412524, Note_off_c, 0, 62, 58
1, 412530, Note_on_c, 0, 59, 50
1, 412555, Note_off_c, 0, 59, 53
1, 412638, Note_on_c, 0, 81, 81
1, 412640, Note_on_c, 0, 86, 85
1, 412643, Note_on_c, 0, 74, 71
1, 412652, Note_off_c, 0, 81, 69
1, 412657, Note_off_c, 0, 74, 67
1, 412661, Note_off_c, 0, 86, 69
1, 412661, Note_on_c, 0, 42, 63
1, 412688, Note_on_c, 0, 38, 61
1, 412700, Note_off_c, 0, 42, 65
1, 412719, Note_off_c, 0, 38, 65
1, 412721, Note_on_c, 0, 35, 66
1, 412723, Note_on_c, 0, 81, 75
1, 412725, Note_on_c, 0, 90, 86
1, 412732, Note_on_c, 0, 86, 74
1, 412746, Note_off_c, 0, 90, 69
1, 412747, Note_off_c, 0, 86, 70
1, 412747, Note_off_c, 0, 81, 69
1, 412753, Note_off_c, 0, 35, 62
1, 412985, Note_on_c, 0, 89, 74
1, 412986, Note_on_c, 0, 75, 69
1, 412989, Note_on_c, 0, 80, 66
1, 412996, Note_on_c, 0, 85, 63
1, 413003, Note_on_c, 0, 67, 54
1, 413012, Note_off_c, 0, 89, 66
1, 413013, Note_off_c, 0, 75, 63
1, 413016, Note_off_c, 0, 80, 67
1, 413024, Note_off_c, 0, 85, 67
1, 413027, Note_on_c, 0, 64, 51
1, 413033, Note_off_c, 0, 67, 63
1, 413054, Note_off_c, 0, 64, 63
1, 413061, Note_on_c, 0, 60, 61
1, 413081, Note_off_c, 0, 60, 62
1, 413205, Note_on_c, 0, 43, 50
1, 413221, Note_on_c, 0, 40, 54
1, 413249, Note_off_c, 0, 43, 62
1, 413260, Note_off_c, 0, 40, 63
1, 413274, Note_on_c, 0, 88, 64
1, 413275, Note_on_c, 0, 79, 53
1, 413279, Note_on_c, 0, 76, 54
1, 413283, Note_on_c, 0, 36, 49
1, 413287, Note_on_c, 0, 84, 45
1, 413293, Note_off_c, 0, 79, 62
1, 413299, Note_off_c, 0, 76, 60
1, 413302, Note_off_c, 0, 88, 68
1, 413308, Note_off_c, 0, 84, 58
1, 413314, Note_off_c, 0, 36, 53
1, 413538, Note_on_c, 0, 88, 60
1, 413545, Note_on_c, 0, 69, 31
1, 413549, Note_on_c, 0, 74, 62
1, 413561, Note_on_c, 0, 79, 9
1, 413565, Note_off_c, 0, 88, 66
1, 413576, Note_off_c, 0, 69, 61
1, 413580, Note_off_c, 0, 74, 66
1, 413588, Note_off_c, 0, 79, 41
1, 413596, Note_on_c, 0, 64, 25
1, 413612, Note_on_c, 0, 60, 53
1, 413630, Note_off_c, 0, 64, 43
1, 413636, Note_off_c, 0, 60, 58
1, 413755, Note_on_c, 0, 45, 36
1, 413761, Note_on_c, 0, 40, 58
1, 413788, Note_off_c, 0, 45, 57
1, 413797, Note_off_c, 0, 40, 63
1, 413815, Note_on_c, 0, 60, 56
1, 413820, Note_on_c, 0, 72, 75
1, 413826, Note_on_c, 0, 64, 43
1, 413843, Note_off_c, 0, 60, 64
1, 413850, Note_off_c, 0, 72, 65
1, 413852, Note_off_c, 0, 64, 56
1, 413853, Note_on_c, 0, 69, 19
1, 413892, Note_off_c, 0, 69, 30
1, 414080, Note_on_c, 0, 71, 79
1, 414080, Note_on_c, 0, 83, 76
1, 414086, Note_on_c, 0, 75, 61
1, 414089, Note_on_c, 0, 78, 68
1, 414100, Note_on_c, 0, 63, 66
1, 414101, Note_off_c, 0, 71, 70
1, 414104, Note_off_c, 0, 75, 63
1, 414111, Note_off_c, 0, 83, 62
1, 414117, Note_off_c, 0, 78, 67
1, 414124, Note_off_c, 0, 63, 67
1, 414135, Note_on_c, 0, 59, 55
1, 414157, Note_off_c, 0, 59, 59
1, 414247, Note_on_c, 0, 47, 52
1, 414279, Poly_aftertouch_c, 0, 79, 127
1, 414289, Note_on_c, 0, 42, 51
1, 414298, Note_off_c, 0, 47, 60
1, 414321, Note_on_c, 0, 79, 34
1, 414328, Note_off_c, 0, 42, 64
1, 414331, Note_on_c, 0, 86, 77
1, 414332, Note_on_c, 0, 38, 66
1, 414333, Note_on_c, 0, 75, 74
1, 414338, Note_on_c, 0, 83, 62
1, 414352, Note_off_c, 0, 86, 71
1, 414357, Note_off_c, 0, 75, 68
1, 414359, Note_off_c, 0, 79, 65
1, 414363, Note_off_c, 0, 83, 66
1, 414363, Note_off_c, 0, 38, 62
1, 414601, Note_on_c, 0, 67, 63
1, 414601, Note_on_c, 0, 64, 69
1, 414605, Note_on_c, 0, 74, 66
1, 414606, Note_on_c, 0, 62, 51
1, 414621, Note_on_c, 0, 71, 45
1, 414627, Note_off_c, 0, 64, 67
1, 414629, Note_off_c, 0, 67, 66
1, 414637, Note_off_c, 0, 74, 64
1, 414640, Note_on_c, 0, 59, 49
1, 414643, Note_off_c, 0, 62, 65
1, 414646, Note_off_c, 0, 71, 54
1, 414673, Note_off_c, 0, 59, 58
1, 414680, Note_on_c, 0, 55, 56
1, 414704, Note_off_c, 0, 55, 61
1, 414792, Note_on_c, 0, 45, 52
1, 414845, Note_off_c, 0, 45, 59
1, 414849, Note_on_c, 0, 42, 54
1, 414883, Note_off_c, 0, 42, 64
1, 414884, Note_on_c, 0, 86, 70
1, 414885, Note_on_c, 0, 79, 47
1, 414887, Note_on_c, 0, 38, 59
1, 414887, Note_on_c, 0, 76, 65
1, 414888, Note_on_c, 0, 74, 60
1, 414902, Note_on_c, 0, 83, 42
1, 414910, Note_off_c, 0, 86, 69
1, 414913, Note_off_c, 0, 79, 65
1, 414916, Note_off_c, 0, 76, 62
1, 414917, Note_off_c, 0, 38, 61
1, 414920, Note_off_c, 0, 74, 64
1, 414928, Note_off_c, 0, 83, 47
1, 415150, Note_on_c, 0, 63, 49
1, 415153, Note_on_c, 0, 79, 69
1, 415158, Note_on_c, 0, 70, 60
1, 415167, Note_on_c, 0, 73, 41
1, 415174, Note_off_c, 0, 63, 59
1, 415180, Note_off_c, 0, 70, 65
1, 415181, Note_on_c, 0, 77, 23
1, 415191, Note_on_c, 0, 58, 65
1, 415191, Note_off_c, 0, 79, 65
1, 415192, Note_off_c, 0, 73, 53
1, 415206, Note_off_c, 0, 77, 34
1, 415227, Note_off_c, 0, 58, 67
1, 415230, Note_on_c, 0, 55, 68
1, 415255, Note_off_c, 0, 55, 66
1, 415320, Note_on_c, 0, 45, 75
1, 415356, Note_on_c, 0, 42, 80
1, 415369, Note_off_c, 0, 45, 63
1, 415396, Control_c, 0, 67, 41
1, 415411, Control_c, 0, 67, 0
1, 415421, Note_on_c, 0, 74, 48
1, 415423, Note_on_c, 0, 38, 99
1, 415429, Note_on_c, 0, 81, 87
1, 415430, Note_on_c, 0, 69, 85
1, 415430, Note_on_c, 0, 78, 70
1, 415445, Note_off_c, 0, 42, 63
1, 415455, Note_off_c, 0, 74, 65
1, 415458, Note_off_c, 0, 78, 68
1, 415463, Note_off_c, 0, 81, 66
1, 415464, Note_off_c, 0, 69, 61
1, 415711, Note_on_c, 0, 62, 57
1, 415711, Note_on_c, 0, 66, 61
1, 415711, Note_on_c, 0, 69, 65
1, 415753, Note_off_c, 0, 66, 59
1, 415755, Note_off_c, 0, 62, 58
1, 415765, Note_off_c, 0, 69, 56
1, 415973, Note_on_c, 0, 62, 47
1, 415974, Note_on_c, 0, 66, 45
1, 415979, Note_on_c, 0, 69, 52
1, 416061, Note_off_c, 0, 69, 50
1, 416074, Note_off_c, 0, 62, 38
1, 416075, Note_off_c, 0, 66, 36
1, 416096, Note_on_c, 0, 41, 66
1, 416241, Note_on_c, 0, 66, 48
1, 416250, Note_on_c, 0, 62, 41
1, 416250, Note_off_c, 0, 38, 51
1, 416253, Note_on_c, 0, 44, 72
1, 416255, Note_on_c, 0, 69, 43
1, 416327, Note_off_c, 0, 62, 49
1, 416328, Note_off_c, 0, 69, 51
1, 416357, Note_off_c, 0, 41, 42
1, 416379, Note_on_c, 0, 48, 76
1, 416390, Note_off_c, 0, 66, 34
1, 416447, Note_off_c, 0, 44, 59
1, 416515, Note_on_c, 0, 66, 37
1, 416520, Note_on_c, 0, 51, 72
1, 416526, Note_on_c, 0, 69, 55
1, 416529, Note_on_c, 0, 62, 47
1, 416551, Note_off_c, 0, 48, 64
1, 416640, Note_off_c, 0, 69, 49
1, 416647, Note_off_c, 0, 62, 38
1, 416657, Note_on_c, 0, 48, 69
1, 416661, Note_off_c, 0, 66, 43
1, 416672, Note_off_c, 0, 51, 62
1, 416795, Note_on_c, 0, 44, 61
1, 416801, Note_on_c, 0, 66, 41
1, 416801, Note_on_c, 0, 69, 50
1, 416816, Note_on_c, 0, 62, 37
1, 416821, Note_off_c, 0, 48, 58
1, 416891, Note_off_c, 0, 62, 49
1, 416902, Note_off_c, 0, 66, 49
1, 416932, Note_on_c, 0, 48, 78
1, 416935, Note_off_c, 0, 69, 46
1, 416986, Note_off_c, 0, 44, 59
1, 417063, Note_on_c, 0, 51, 84
1, 417069, Note_on_c, 0, 66, 57
1, 417070, Note_on_c, 0, 69, 57
1, 417079, Note_on_c, 0, 62, 52
1, 417107, Note_off_c, 0, 48, 62
1, 417160, Note_off_c, 0, 62, 43
1, 417171, Note_off_c, 0, 66, 51
1, 417181, Note_off_c, 0, 69, 56
1, 417189, Note_on_c, 0, 54, 84
1, 417207, Note_off_c, 0, 51, 65
1, 417320, Note_on_c, 0, 69, 58
1, 417323, Note_on_c, 0, 66, 53
1, 417324, Note_on_c, 0, 57, 82
1, 417326, Note_on_c, 0, 62, 52
1, 417335, Note_off_c, 0, 54, 59
1, 417382, Note_off_c, 0, 66, 52
1, 417395, Note_off_c, 0, 62, 48
1, 417414, Note_off_c, 0, 69, 54
1, 417448, Note_on_c, 0, 56, 80
1, 417483, Note_off_c, 0, 57, 62
1, 417609, Note_on_c, 0, 57, 71
1, 417618, Note_on_c, 0, 69, 61
1, 417625, Note_on_c, 0, 66, 48
1, 417643, Note_on_c, 0, 62, 39
1, 417643, Note_off_c, 0, 56, 61
1, 417789, Note_off_c, 0, 66, 31
1, 417798, Control_c, 0, 64, 31
1, 417805, Note_off_c, 0, 62, 35
1, 417813, Control_c, 0, 64, 45
1, 417828, Control_c, 0, 64, 54
1, 417842, Control_c, 0, 64, 59
1, 417857, Control_c, 0, 64, 63
1, 417872, Control_c, 0, 64, 67
1, 417887, Control_c, 0, 64, 74
1, 417902, Control_c, 0, 64, 89
1, 417910, Note_on_c, 0, 66, 58
1, 417916, Note_on_c, 0, 62, 26
1, 417916, Control_c, 0, 64, 127
1, 417925, Note_off_c, 0, 69, 60
1, 417955, Note_off_c, 0, 62, 51
1, 418040, Note_on_c, 0, 70, 71
1, 418044, Note_off_c, 0, 66, 62
1, 418162, Note_off_c, 0, 70, 63
1, 418172, Note_on_c, 0, 71, 77
1, 418176, Note_on_c, 0, 69, 46
1, 418190, Note_on_c, 0, 62, 31
1, 418194, Note_on_c, 0, 66, 39
1, 418292, Note_off_c, 0, 62, 52
1, 418304, Note_on_c, 0, 74, 78
1, 418307, Note_off_c, 0, 69, 54
1, 418332, Note_off_c, 0, 66, 35
1, 418336, Note_off_c, 0, 71, 55
1, 418429, Control_c, 0, 64, 102
1, 418444, Control_c, 0, 64, 79
1, 418444, Note_on_c, 0, 77, 80
1, 418448, Note_on_c, 0, 69, 53
1, 418453, Note_on_c, 0, 66, 41
1, 418456, Note_on_c, 0, 62, 42
1, 418459, Control_c, 0, 64, 67
1, 418473, Control_c, 0, 64, 61
1, 418480, Note_off_c, 0, 74, 60
1, 418488, Control_c, 0, 64, 62
1, 418503, Control_c, 0, 64, 65
1, 418518, Control_c, 0, 64, 69
1, 418533, Control_c, 0, 64, 80
1, 418533, Note_off_c, 0, 62, 58
1, 418540, Note_off_c, 0, 69, 59
1, 418547, Control_c, 0, 64, 96
1, 418562, Control_c, 0, 64, 127
1, 418569, Note_on_c, 0, 80, 78
1, 418569, Note_off_c, 0, 66, 53
1, 418605, Note_off_c, 0, 77, 57
1, 418680, Control_c, 0, 64, 109
1, 418695, Control_c, 0, 64, 87
1, 418709, Note_on_c, 0, 61, 41
1, 418710, Control_c, 0, 64, 72
1, 418719, Note_on_c, 0, 84, 72
1, 418720, Note_on_c, 0, 68, 38
1, 418721, Note_on_c, 0, 65, 28
1, 418725, Control_c, 0, 64, 64
1, 418735, Note_off_c, 0, 80, 63
1, 418739, Control_c, 0, 64, 57
1, 418754, Control_c, 0, 64, 51
1, 418785, Control_c, 0, 64, 54
1, 418800, Control_c, 0, 64, 60
1, 418814, Control_c, 0, 64, 64
1, 418829, Control_c, 0, 64, 68
1, 418844, Control_c, 0, 64, 74
1, 418852, Note_on_c, 0, 80, 67
1, 418859, Control_c, 0, 64, 82
1, 418874, Control_c, 0, 64, 90
1, 418875, Note_off_c, 0, 84, 58
1, 418884, Note_off_c, 0, 65, 44
1, 418888, Control_c, 0, 64, 99
1, 418890, Note_off_c, 0, 68, 35
1, 418899, Note_off_c, 0, 61, 34
1, 418903, Control_c, 0, 64, 106
1, 418918, Control_c, 0, 64, 106
1, 418933, Control_c, 0, 64, 104
1, 418948, Control_c, 0, 64, 97
1, 418962, Control_c, 0, 64, 86
1, 418977, Note_on_c, 0, 61, 22
1, 418977, Control_c, 0, 64, 72
1, 418980, Note_on_c, 0, 77, 66
1, 418986, Note_off_c, 0, 80, 59
1, 418989, Note_on_c, 0, 68, 37
1, 418992, Note_on_c, 0, 65, 41
1, 418992, Control_c, 0, 64, 64
1, 419007, Control_c, 0, 64, 60
1, 419022, Control_c, 0, 64, 59
1, 419037, Control_c, 0, 64, 61
1, 419052, Control_c, 0, 64, 64
1, 419067, Control_c, 0, 64, 68
1, 419082, Control_c, 0, 64, 77
1, 419096, Note_off_c, 0, 77, 60
1, 419096, Control_c, 0, 64, 90
1, 419106, Note_on_c, 0, 80, 70
1, 419111, Control_c, 0, 64, 106
1, 419120, Note_off_c, 0, 65, 56
1, 419126, Control_c, 0, 64, 127
1, 419149, Note_off_c, 0, 68, 35
1, 419156, Note_off_c, 0, 61, 40
1, 419192, Control_c, 0, 64, 120
1, 419207, Control_c, 0, 64, 100
1, 419222, Control_c, 0, 64, 84
1, 419237, Control_c, 0, 64, 71
1, 419241, Note_off_c, 0, 80, 63
1, 419252, Control_c, 0, 64, 63
1, 419255, Note_on_c, 0, 68, 35
1, 419258, Note_on_c, 0, 61, 32
1, 419258, Note_on_c, 0, 84, 68
1, 419266, Control_c, 0, 64, 56
1, 419267, Note_on_c, 0, 65, 41
1, 419296, Control_c, 0, 64, 58
1, 419311, Control_c, 0, 64, 62
1, 419326, Control_c, 0, 64, 66
1, 419341, Control_c, 0, 64, 70
1, 419355, Control_c, 0, 64, 76
1, 419370, Control_c, 0, 64, 80
1, 419377, Note_on_c, 0, 87, 68
1, 419385, Control_c, 0, 64, 82
1, 419395, Note_off_c, 0, 65, 54
1, 419400, Control_c, 0, 64, 81
1, 419414, Control_c, 0, 64, 77
1, 419415, Note_off_c, 0, 68, 41
1, 419429, Control_c, 0, 64, 70
1, 419438, Note_off_c, 0, 61, 40
1, 419439, Note_off_c, 0, 84, 52
1, 419444, Control_c, 0, 64, 65
1, 419459, Control_c, 0, 64, 62
1, 419474, Control_c, 0, 64, 61
1, 419488, Control_c, 0, 64, 60
1, 419514, Note_on_c, 0, 61, 18
1, 419515, Note_on_c, 0, 68, 42
1, 419516, Note_on_c, 0, 65, 39
1, 419519, Note_on_c, 0, 90, 62
1, 419533, Control_c, 0, 64, 61
1, 419547, Control_c, 0, 64, 64
1, 419564, Control_c, 0, 64, 65
1, 419571, Note_off_c, 0, 87, 57
1, 419579, Control_c, 0, 64, 67
1, 419586, Note_off_c, 0, 68, 56
1, 419593, Control_c, 0, 64, 67
1, 419608, Control_c, 0, 64, 67
1, 419623, Control_c, 0, 64, 66
1, 419624, Note_off_c, 0, 65, 58
1, 419637, Control_c, 0, 64, 65
1, 419640, Note_on_c, 0, 89, 62
1, 419652, Control_c, 0, 64, 64
1, 419658, Note_off_c, 0, 90, 55
1, 419663, Note_off_c, 0, 61, 51
1, 419682, Control_c, 0, 64, 63
1, 419685, Note_off_c, 0, 57, 41
1, 419697, Control_c, 0, 64, 62
1, 419711, Control_c, 0, 64, 60
1, 419726, Control_c, 0, 64, 59
1, 419741, Control_c, 0, 64, 58
1, 419756, Control_c, 0, 64, 57
1, 419772, Control_c, 0, 64, 55
1, 419786, Control_c, 0, 64, 53
1, 419788, Note_on_c, 0, 69, 55
1, 419790, Note_on_c, 0, 90, 62
1, 419792, Note_off_c, 0, 89, 62
1, 419797, Note_on_c, 0, 66, 51
1, 419801, Control_c, 0, 64, 51
1, 419805, Note_on_c, 0, 57, 51
1, 419807, Note_on_c, 0, 62, 41
1, 419816, Control_c, 0, 64, 49
1, 419831, Control_c, 0, 64, 47
1, 419832, Note_off_c, 0, 69, 64
1, 419837, Note_off_c, 0, 90, 63
1, 419845, Control_c, 0, 64, 46
1, 419857, Note_off_c, 0, 66, 62
1, 419860, Note_off_c, 0, 62, 63
1, 419860, Control_c, 0, 64, 44
1, 419874, Note_off_c, 0, 57, 65
1, 419875, Control_c, 0, 64, 43
1, 419890, Control_c, 0, 64, 41
1, 419905, Control_c, 0, 64, 40
1, 419942, Control_c, 0, 64, 40
1, 419957, Control_c, 0, 64, 39
1, 419971, Control_c, 0, 64, 39
1, 419986, Control_c, 0, 64, 38
1, 420016, Control_c, 0, 64, 38
1, 420083, Note_on_c, 0, 38, 94
1, 420098, Note_on_c, 0, 62, 70
1, 420102, Note_on_c, 0, 69, 74
1, 420105, Note_on_c, 0, 66, 65
1, 420105, Control_c, 0, 64, 37
1, 420119, Control_c, 0, 64, 37
1, 420149, Control_c, 0, 64, 36
1, 420173, Note_off_c, 0, 66, 51
1, 420179, Note_off_c, 0, 62, 49
1, 420205, Note_off_c, 0, 69, 56
1, 420348, Note_on_c, 0, 69, 62
1, 420354, Note_on_c, 0, 66, 51
1, 420358, Note_on_c, 0, 62, 54
1, 420468, Note_off_c, 0, 69, 52
1, 420474, Note_on_c, 0, 41, 68
1, 420476, Note_off_c, 0, 62, 39
1, 420510, Note_off_c, 0, 66, 40
1, 420609, Note_on_c, 0, 44, 70
1, 420620, Note_off_c, 0, 38, 35
1, 420623, Note_on_c, 0, 66, 46
1, 420629, Note_on_c, 0, 69, 43
1, 420644, Note_on_c, 0, 62, 38
1, 420675, Control_c, 0, 64, 36
1, 420724, Note_off_c, 0, 62, 51
1, 420731, Note_off_c, 0, 41, 51
1, 420737, Note_on_c, 0, 48, 75
1, 420757, Note_off_c, 0, 69, 49
1, 420806, Note_off_c, 0, 44, 59
1, 420838, Control_c, 0, 64, 35
1, 420852, Note_off_c, 0, 66, 0
1, 420878, Note_on_c, 0, 66, 6
1, 420884, Note_on_c, 0, 51, 72
1, 420895, Note_on_c, 0, 69, 52
1, 420896, Note_on_c, 0, 62, 48
1, 420909, Note_off_c, 0, 48, 64
1, 421018, Note_on_c, 0, 48, 68
1, 421025, Note_off_c, 0, 69, 57
1, 421033, Note_off_c, 0, 62, 36
1, 421039, Note_off_c, 0, 51, 59
1, 421042, Note_off_c, 0, 66, 49
1, 421150, Note_on_c, 0, 44, 69
1, 421159, Note_on_c, 0, 69, 51
1, 421160, Note_on_c, 0, 62, 44
1, 421165, Note_on_c, 0, 66, 48
1, 421180, Control_c, 0, 64, 35
1, 421186, Note_off_c, 0, 48, 62
1, 421279, Note_on_c, 0, 48, 82
1, 421288, Note_off_c, 0, 69, 57
1, 421296, Note_off_c, 0, 62, 44
1, 421308, Note_off_c, 0, 66, 50
1, 421328, Control_c, 0, 64, 35
1, 421329, Note_off_c, 0, 44, 61
1, 421402, Control_c, 0, 64, 36
1, 421416, Note_on_c, 0, 51, 88
1, 421429, Note_on_c, 0, 66, 59
1, 421430, Note_on_c, 0, 69, 65
1, 421437, Note_on_c, 0, 62, 57
1, 421463, Note_off_c, 0, 48, 62
1, 421469, Control_c, 0, 64, 36
1, 421513, Control_c, 0, 64, 37
1, 421547, Note_on_c, 0, 54, 86
1, 421556, Note_off_c, 0, 51, 66
1, 421557, Note_off_c, 0, 69, 57
1, 421559, Note_off_c, 0, 62, 53
1, 421575, Note_off_c, 0, 66, 57
1, 421684, Note_on_c, 0, 57, 82
1, 421687, Note_on_c, 0, 69, 64
1, 421690, Note_off_c, 0, 54, 63
1, 421693, Note_on_c, 0, 62, 59
1, 421697, Note_on_c, 0, 66, 57
1, 421779, Note_off_c, 0, 66, 43
1, 421782, Note_off_c, 0, 69, 56
1, 421791, Note_off_c, 0, 62, 45
1, 421804, Note_on_c, 0, 56, 82
1, 421835, Note_off_c, 0, 57, 63
1, 421854, Control_c, 0, 64, 36
1, 421883, Control_c, 0, 64, 36
1, 421898, Control_c, 0, 64, 35
1, 421913, Control_c, 0, 64, 33
1, 421928, Control_c, 0, 64, 31
1, 421942, Control_c, 0, 64, 29
1, 421957, Control_c, 0, 64, 26
1, 421969, Note_on_c, 0, 57, 78
1, 421973, Control_c, 0, 64, 19
1, 421988, Control_c, 0, 64, 0
1, 421988, Note_on_c, 0, 69, 62
1, 421993, Note_off_c, 0, 56, 62
1, 421997, Note_on_c, 0, 66, 48
1, 422003, Note_on_c, 0, 62, 44
1, 422077, Control_c, 0, 64, 42
1, 422092, Control_c, 0, 64, 59
1, 422097, Note_off_c, 0, 62, 62
1, 422107, Control_c, 0, 64, 66
1, 422121, Control_c, 0, 64, 75
1, 422136, Control_c, 0, 64, 104
1, 422141, Note_off_c, 0, 66, 63
1, 422149, Note_off_c, 0, 69, 62
1, 422151, Control_c, 0, 64, 127
1, 422295, Note_on_c, 0, 66, 41
1, 422296, Note_on_c, 0, 69, 40
1, 422316, Note_on_c, 0, 62, 37
1, 422394, Note_on_c, 0, 80, 59
1, 422447, Note_off_c, 0, 62, 36
1, 422451, Note_off_c, 0, 69, 34
1, 422459, Note_off_c, 0, 66, 42
1, 422477, Note_off_c, 0, 80, 60
1, 422528, Control_c, 0, 64, 109
1, 422543, Note_on_c, 0, 66, 23
1, 422543, Note_on_c, 0, 93, 62
1, 422543, Control_c, 0, 64, 92
1, 422546, Note_on_c, 0, 81, 57
1, 422556, Note_on_c, 0, 62, 38
1, 422556, Note_on_c, 0, 69, 41
1, 422557, Control_c, 0, 64, 81
1, 422572, Control_c, 0, 64, 73
1, 422587, Control_c, 0, 64, 67
1, 422602, Control_c, 0, 64, 62
1, 422617, Control_c, 0, 64, 56
1, 422632, Control_c, 0, 64, 54
1, 422647, Control_c, 0, 64, 55
1, 422662, Control_c, 0, 64, 59
1, 422677, Control_c, 0, 64, 63
1, 422692, Control_c, 0, 64, 69
1, 422693, Note_off_c, 0, 93, 61
1, 422706, Control_c, 0, 64, 80
1, 422721, Control_c, 0, 64, 102
1, 422723, Note_off_c, 0, 66, 40
1, 422727, Note_off_c, 0, 69, 38
1, 422728, Note_off_c, 0, 62, 38
1, 422736, Control_c, 0, 64, 127
1, 422823, Note_on_c, 0, 62, 38
1, 422832, Note_on_c, 0, 66, 37
1, 422840, Note_on_c, 0, 69, 42
1, 422850, Note_off_c, 0, 81, 56
1, 422933, Note_off_c, 0, 69, 46
1, 422945, Note_on_c, 0, 80, 66
1, 422984, Note_off_c, 0, 62, 31
1, 422996, Note_off_c, 0, 66, 29
1, 423008, Note_off_c, 0, 80, 62
1, 423100, Note_on_c, 0, 66, 31
1, 423110, Note_on_c, 0, 79, 69
1, 423113, Note_on_c, 0, 62, 29
1, 423115, Note_on_c, 0, 69, 37
1, 423116, Note_on_c, 0, 67, 61
1, 423130, Control_c, 0, 64, 95
1, 423144, Control_c, 0, 64, 78
1, 423159, Control_c, 0, 64, 68
1, 423174, Control_c, 0, 64, 62
1, 423188, Control_c, 0, 64, 61
1, 423203, Control_c, 0, 64, 63
1, 423218, Control_c, 0, 64, 65
1, 423233, Control_c, 0, 64, 69
1, 423248, Control_c, 0, 64, 77
1, 423262, Control_c, 0, 64, 92
1, 423266, Note_off_c, 0, 67, 55
1, 423277, Control_c, 0, 64, 127
1, 423285, Note_off_c, 0, 69, 44
1, 423288, Note_off_c, 0, 62, 42
1, 423291, Note_off_c, 0, 66, 40
1, 423385, Note_on_c, 0, 69, 60
1, 423388, Note_on_c, 0, 66, 52
1, 423404, Note_on_c, 0, 62, 47
1, 423487, Note_off_c, 0, 62, 37
1, 423489, Note_off_c, 0, 79, 63
1, 423493, Note_on_c, 0, 80, 75
1, 423512, Note_off_c, 0, 69, 53
1, 423537, Note_off_c, 0, 66, 51
1, 423557, Note_off_c, 0, 80, 64
1, 423654, Note_on_c, 0, 69, 50
1, 423656, Note_on_c, 0, 93, 88
1, 423669, Note_on_c, 0, 66, 44
1, 423669, Note_on_c, 0, 81, 72
1, 423672, Control_c, 0, 64, 102
1, 423675, Note_on_c, 0, 62, 47
1, 423686, Control_c, 0, 64, 80
1, 423701, Control_c, 0, 64, 68
1, 423716, Control_c, 0, 64, 62
1, 423731, Control_c, 0, 64, 62
1, 423746, Control_c, 0, 64, 65
1, 423760, Control_c, 0, 64, 69
1, 423775, Control_c, 0, 64, 76
1, 423790, Control_c, 0, 64, 93
1, 423800, Note_off_c, 0, 93, 65
1, 423805, Control_c, 0, 64, 127
1, 423809, Note_off_c, 0, 69, 52
1, 423840, Note_off_c, 0, 66, 51
1, 423844, Note_off_c, 0, 62, 43
1, 423879, Note_off_c, 0, 81, 61
1, 423936, Note_on_c, 0, 69, 70
1, 423944, Note_on_c, 0, 66, 68
1, 423946, Note_on_c, 0, 62, 62
1, 423985, Note_off_c, 0, 69, 61
1, 424008, Note_off_c, 0, 62, 58
1, 424012, Note_off_c, 0, 66, 60
1, 424058, Note_on_c, 0, 80, 83
1, 424071, Note_off_c, 0, 57, 63
1, 424135, Note_off_c, 0, 80, 63
1, 424215, Note_on_c, 0, 53, 86
1, 424227, Note_on_c, 0, 79, 79
1, 424229, Note_on_c, 0, 65, 66
1, 424233, Note_on_c, 0, 67, 70
1, 424236, Note_on_c, 0, 58, 61
1, 424246, Note_on_c, 0, 62, 55
1, 424249, Control_c, 0, 64, 98
1, 424262, Control_c, 0, 64, 78
1, 424269, Note_on_c, 0, 61, 22
1, 424277, Control_c, 0, 64, 66
1, 424292, Control_c, 0, 64, 54
1, 424307, Control_c, 0, 64, 47
1, 424312, Note_off_c, 0, 61, 36
1, 424337, Control_c, 0, 64, 49
1, 424352, Control_c, 0, 64, 54
1, 424367, Control_c, 0, 64, 60
1, 424382, Control_c, 0, 64, 65
1, 424397, Control_c, 0, 64, 70
1, 424419, Note_off_c, 0, 65, 51
1, 424419, Control_c, 0, 64, 80
1, 424426, Note_off_c, 0, 62, 50
1, 424433, Note_off_c, 0, 58, 40
1, 424433, Control_c, 0, 64, 106
1, 424440, Note_off_c, 0, 67, 33
1, 424448, Control_c, 0, 64, 127
1, 424504, Note_on_c, 0, 65, 58
1, 424506, Note_on_c, 0, 62, 51
1, 424515, Note_on_c, 0, 58, 43
1, 424608, Note_off_c, 0, 79, 62
1, 424621, Note_on_c, 0, 80, 76
1, 424632, Note_off_c, 0, 65, 50
1, 424659, Note_off_c, 0, 62, 57
1, 424680, Note_off_c, 0, 80, 65
1, 424684, Note_off_c, 0, 58, 36
1, 424774, Note_on_c, 0, 65, 48
1, 424778, Note_on_c, 0, 93, 83
1, 424785, Note_on_c, 0, 62, 52
1, 424785, Note_on_c, 0, 81, 66
1, 424787, Note_on_c, 0, 58, 38
1, 424833, Control_c, 0, 64, 85
1, 424848, Control_c, 0, 64, 67
1, 424863, Control_c, 0, 64, 59
1, 424878, Control_c, 0, 64, 58
1, 424893, Control_c, 0, 64, 62
1, 424907, Control_c, 0, 64, 66
1, 424922, Control_c, 0, 64, 73
1, 424927, Note_off_c, 0, 93, 64
1, 424937, Control_c, 0, 64, 89
1, 424948, Note_off_c, 0, 65, 56
1, 424952, Control_c, 0, 64, 127
1, 424965, Note_off_c, 0, 62, 59
1, 424984, Note_off_c, 0, 58, 40
1, 425038, Note_off_c, 0, 81, 57
1, 425055, Note_on_c, 0, 65, 69
1, 425059, Note_on_c, 0, 58, 62
1, 425061, Note_on_c, 0, 62, 63
1, 425176, Note_off_c, 0, 65, 53
1, 425177, Note_on_c, 0, 80, 86
1, 425217, Note_off_c, 0, 62, 51
1, 425219, Note_off_c, 0, 58, 48
1, 425248, Note_off_c, 0, 80, 61
1, 425337, Note_on_c, 0, 65, 49
1, 425340, Note_on_c, 0, 67, 80
1, 425340, Note_on_c, 0, 79, 83
1, 425344, Note_on_c, 0, 58, 47
1, 425346, Note_on_c, 0, 62, 57
1, 425375, Control_c, 0, 64, 106
1, 425390, Control_c, 0, 64, 84
1, 425404, Control_c, 0, 64, 72
1, 425419, Control_c, 0, 64, 64
1, 425434, Control_c, 0, 64, 60
1, 425449, Control_c, 0, 64, 61
1, 425464, Control_c, 0, 64, 64
1, 425479, Control_c, 0, 64, 68
1, 425494, Control_c, 0, 64, 78
1, 425509, Control_c, 0, 64, 112
1, 425520, Note_off_c, 0, 65, 61
1, 425523, Control_c, 0, 64, 127
1, 425540, Note_off_c, 0, 79, 51
1, 425540, Note_off_c, 0, 62, 59
1, 425564, Note_off_c, 0, 58, 46
1, 425567, Poly_aftertouch_c, 0, 56, 127
1, 425608, Poly_aftertouch_c, 0, 56, 0
1, 425624, Note_on_c, 0, 65, 78
1, 425634, Note_on_c, 0, 62, 76
1, 425636, Note_on_c, 0, 58, 66
1, 425730, Note_on_c, 0, 68, 91
1, 425744, Note_off_c, 0, 65, 56
1, 425764, Note_off_c, 0, 67, 63
1, 425773, Note_off_c, 0, 62, 57
1, 425793, Note_off_c, 0, 58, 59
1, 425802, Note_off_c, 0, 68, 64
1, 425879, Note_on_c, 0, 69, 93
1, 425884, Note_on_c, 0, 79, 91
1, 425893, Control_c, 0, 64, 117
1, 425894, Note_on_c, 0, 62, 63
1, 425895, Note_on_c, 0, 65, 65
1, 425905, Note_on_c, 0, 58, 63
1, 425916, Control_c, 0, 64, 73
1, 425931, Control_c, 0, 64, 41
1, 425945, Control_c, 0, 64, 0
1, 426035, Control_c, 0, 64, 48
1, 426050, Control_c, 0, 64, 81
1, 426061, Note_off_c, 0, 79, 56
1, 426065, Control_c, 0, 64, 127
1, 426066, Note_off_c, 0, 65, 61
1, 426066, Note_off_c, 0, 58, 54
1, 426080, Note_off_c, 0, 62, 61
1, 426158, Note_on_c, 0, 62, 81
1, 426158, Note_on_c, 0, 65, 87
1, 426165, Note_on_c, 0, 58, 76
1, 426202, Note_off_c, 0, 65, 60
1, 426206, Note_off_c, 0, 62, 65
1, 426215, Note_off_c, 0, 69, 59
1, 426221, Note_off_c, 0, 58, 64
1, 426237, Note_off_c, 0, 53, 65
1, 426261, Note_on_c, 0, 68, 96
1, 426342, Note_off_c, 0, 68, 61
1, 426410, Note_on_c, 0, 50, 90
1, 426418, Note_on_c, 0, 62, 85
1, 426420, Control_c, 0, 64, 106
1, 426421, Note_on_c, 0, 59, 76
1, 426422, Note_on_c, 0, 79, 93
1, 426425, Note_on_c, 0, 67, 92
1, 426435, Control_c, 0, 64, 73
1, 426444, Note_on_c, 0, 55, 50
1, 426450, Control_c, 0, 64, 51
1, 426465, Control_c, 0, 64, 0
1, 426553, Control_c, 0, 64, 50
1, 426568, Control_c, 0, 64, 64
1, 426583, Control_c, 0, 64, 75
1, 426598, Control_c, 0, 64, 127
1, 426610, Note_off_c, 0, 62, 61
1, 426613, Note_off_c, 0, 59, 61
1, 426617, Note_off_c, 0, 55, 18
1, 426659, Note_off_c, 0, 67, 55
1, 426704, Note_on_c, 0, 62, 71
1, 426706, Note_on_c, 0, 59, 70
1, 426721, Note_on_c, 0, 55, 65
1, 426814, Note_on_c, 0, 80, 89
1, 426820, Note_off_c, 0, 79, 60
1, 426830, Note_off_c, 0, 62, 56
1, 426833, Note_off_c, 0, 55, 58
1, 426847, Note_off_c, 0, 59, 60
1, 426848, Note_on_c, 0, 81, 52
1, 426860, Note_off_c, 0, 80, 65
1, 426866, Note_off_c, 0, 81, 63
1, 426957, Note_on_c, 0, 55, 63
1, 426960, Note_on_c, 0, 59, 72
1, 426960, Note_on_c, 0, 62, 67
1, 426962, Control_c, 0, 64, 94
1, 426964, Note_on_c, 0, 81, 85
1, 426967, Note_on_c, 0, 93, 93
1, 426976, Control_c, 0, 64, 76
1, 426991, Control_c, 0, 64, 62
1, 426993, Note_on_c, 0, 91, 48
1, 426994, Note_off_c, 0, 91, 127
1, 427006, Control_c, 0, 64, 46
1, 427021, Control_c, 0, 64, 35
1, 427035, Control_c, 0, 64, 35
1, 427050, Control_c, 0, 64, 41
1, 427065, Control_c, 0, 64, 51
1, 427080, Control_c, 0, 64, 61
1, 427095, Control_c, 0, 64, 68
1, 427109, Control_c, 0, 64, 84
1, 427116, Note_off_c, 0, 93, 65
1, 427124, Control_c, 0, 64, 127
1, 427127, Note_off_c, 0, 62, 63
1, 427140, Note_off_c, 0, 55, 58
1, 427141, Note_off_c, 0, 59, 61
1, 427213, Note_off_c, 0, 81, 62
1, 427240, Note_on_c, 0, 62, 79
1, 427245, Note_on_c, 0, 59, 81
1, 427249, Note_on_c, 0, 55, 69
1, 427345, Note_on_c, 0, 80, 94
1, 427348, Note_off_c, 0, 62, 56
1, 427362, Note_off_c, 0, 55, 59
1, 427366, Note_off_c, 0, 59, 58
1, 427409, Note_off_c, 0, 80, 63
1, 427500, Note_on_c, 0, 59, 55
1, 427500, Note_on_c, 0, 62, 59
1, 427501, Note_on_c, 0, 55, 55
1, 427513, Note_on_c, 0, 67, 93
1, 427513, Note_on_c, 0, 79, 93
1, 427532, Control_c, 0, 64, 105
1, 427547, Control_c, 0, 64, 79
1, 427562, Control_c, 0, 64, 66
1, 427577, Control_c, 0, 64, 52
1, 427592, Control_c, 0, 64, 36
1, 427607, Control_c, 0, 64, 34
1, 427622, Control_c, 0, 64, 36
1, 427637, Control_c, 0, 64, 45
1, 427652, Control_c, 0, 64, 59
1, 427666, Control_c, 0, 64, 67
1, 427681, Control_c, 0, 64, 80
1, 427689, Note_off_c, 0, 62, 58
1, 427693, Note_off_c, 0, 55, 56
1, 427696, Control_c, 0, 64, 127
1, 427700, Note_off_c, 0, 59, 62
1, 427724, Note_off_c, 0, 79, 54
1, 427784, Note_on_c, 0, 62, 87
1, 427787, Note_on_c, 0, 59, 80
1, 427789, Note_on_c, 0, 55, 76
1, 427880, Note_on_c, 0, 68, 98
1, 427910, Note_off_c, 0, 67, 62
1, 427920, Note_off_c, 0, 55, 57
1, 427925, Note_off_c, 0, 62, 59
1, 427934, Note_off_c, 0, 59, 58
1, 427964, Note_off_c, 0, 68, 64
1, 428039, Note_on_c, 0, 55, 61
1, 428039, Note_on_c, 0, 69, 101
1, 428041, Note_on_c, 0, 62, 61
1, 428041, Note_on_c, 0, 79, 95
1, 428044, Note_on_c, 0, 59, 65
1, 428066, Control_c, 0, 64, 112
1, 428081, Control_c, 0, 64, 81
1, 428096, Control_c, 0, 64, 64
1, 428111, Control_c, 0, 64, 35
1, 428125, Control_c, 0, 64, 0
1, 428162, Control_c, 0, 64, 31
1, 428177, Control_c, 0, 64, 55
1, 428192, Control_c, 0, 64, 65
1, 428206, Control_c, 0, 64, 87
1, 428216, Note_off_c, 0, 62, 56
1, 428219, Note_off_c, 0, 55, 50
1, 428221, Control_c, 0, 64, 127
1, 428228, Note_off_c, 0, 59, 58
1, 428315, Note_on_c, 0, 62, 86
1, 428323, Note_on_c, 0, 59, 81
1, 428324, Note_on_c, 0, 55, 76
1, 428356, Note_off_c, 0, 59, 58
1, 428366, Note_off_c, 0, 62, 60
1, 428386, Note_off_c, 0, 55, 62
1, 428410, Note_off_c, 0, 50, 64
1, 428417, Note_on_c, 0, 70, 100
1, 428450, Note_off_c, 0, 69, 62
1, 428507, Note_off_c, 0, 79, 62
1, 428601, Note_on_c, 0, 59, 78
1, 428603, Note_on_c, 0, 47, 65
1, 428603, Note_on_c, 0, 52, 64
1, 428607, Note_on_c, 0, 56, 74
1, 428640, Note_on_c, 0, 69, 98
1, 428650, Note_on_c, 0, 79, 87
1, 428667, Control_c, 0, 64, 92
1, 428681, Control_c, 0, 64, 65
1, 428692, Note_off_c, 0, 70, 56
1, 428696, Control_c, 0, 64, 0
1, 428785, Control_c, 0, 64, 63
1, 428800, Control_c, 0, 64, 127
1, 428812, Note_off_c, 0, 52, 62
1, 428815, Note_off_c, 0, 59, 64
1, 428820, Note_off_c, 0, 56, 64
1, 428892, Note_off_c, 0, 69, 61
1, 428908, Note_on_c, 0, 59, 89
1, 428909, Note_off_c, 0, 47, 62
1, 428910, Note_on_c, 0, 56, 85
1, 428913, Note_on_c, 0, 52, 72
1, 428933, Note_off_c, 0, 56, 71
1, 428941, Note_off_c, 0, 52, 67
1, 428962, Note_off_c, 0, 59, 62
1, 429016, Note_on_c, 0, 80, 96
1, 429017, Note_on_c, 0, 68, 96
1, 429039, Note_off_c, 0, 79, 66
1, 429053, Note_off_c, 0, 68, 65
1, 429066, Note_off_c, 0, 80, 67
1, 429173, Note_on_c, 0, 69, 90
1, 429178, Control_c, 0, 64, 84
1, 429179, Note_on_c, 0, 65, 66
1, 429180, Note_on_c, 0, 81, 97
1, 429181, Note_on_c, 0, 67, 75
1, 429181, Note_on_c, 0, 93, 109
1, 429185, Note_on_c, 0, 59, 55
1, 429186, Note_on_c, 0, 60, 65
1, 429191, Note_on_c, 0, 64, 63
1, 429193, Control_c, 0, 64, 59
1, 429208, Control_c, 0, 64, 0
1, 429238, Note_off_c, 0, 64, 40
1, 429245, Note_off_c, 0, 59, 61
1, 429249, Note_off_c, 0, 67, 58
1, 429267, Control_c, 0, 64, 48
1, 429276, Note_off_c, 0, 69, 67
1, 429282, Control_c, 0, 64, 70
1, 429294, Note_off_c, 0, 93, 66
1, 429297, Control_c, 0, 64, 127
1, 429323, Note_off_c, 0, 81, 64
1, 429336, Note_off_c, 0, 65, 63
1, 429340, Note_off_c, 0, 60, 63
1, 429452, Note_on_c, 0, 67, 91
1, 429455, Note_on_c, 0, 64, 80
1, 429456, Note_on_c, 0, 59, 78
1, 429505, Note_off_c, 0, 67, 61
1, 429525, Note_off_c, 0, 64, 62
1, 429534, Note_off_c, 0, 59, 63
1, 429566, Note_on_c, 0, 80, 102
1, 429567, Note_on_c, 0, 68, 94
1, 429588, Note_on_c, 0, 78, 61
1, 429607, Note_off_c, 0, 78, 63
1, 429683, Note_off_c, 0, 68, 59
1, 429700, Note_off_c, 0, 80, 61
1, 429739, Note_on_c, 0, 59, 76
1, 429739, Note_on_c, 0, 64, 77
1, 429757, Note_on_c, 0, 69, 92
1, 429759, Note_on_c, 0, 79, 99
1, 429778, Control_c, 0, 64, 103
1, 429793, Control_c, 0, 64, 71
1, 429808, Control_c, 0, 64, 43
1, 429823, Control_c, 0, 64, 0
1, 429896, Control_c, 0, 64, 35
1, 429911, Control_c, 0, 64, 62
1, 429913, Note_off_c, 0, 79, 59
1, 429923, Note_off_c, 0, 64, 62
1, 429926, Control_c, 0, 64, 74
1, 429934, Note_off_c, 0, 59, 62
1, 429941, Control_c, 0, 64, 104
1, 429957, Control_c, 0, 64, 127
1, 430034, Note_on_c, 0, 59, 91
1, 430036, Note_on_c, 0, 52, 84
1, 430061, Control_c, 0, 64, 109
1, 430069, Note_off_c, 0, 69, 61
1, 430075, Note_off_c, 0, 59, 66
1, 430075, Control_c, 0, 64, 101
1, 430090, Control_c, 0, 64, 99
1, 430096, Note_off_c, 0, 52, 64
1, 430105, Control_c, 0, 64, 95
1, 430120, Control_c, 0, 64, 89
1, 430135, Control_c, 0, 64, 82
1, 430148, Note_on_c, 0, 68, 89
1, 430150, Control_c, 0, 64, 77
1, 430151, Note_on_c, 0, 66, 81
1, 430165, Control_c, 0, 64, 74
1, 430180, Control_c, 0, 64, 72
1, 430194, Control_c, 0, 64, 69
1, 430198, Note_off_c, 0, 68, 63
1, 430204, Note_off_c, 0, 66, 60
1, 430209, Control_c, 0, 64, 66
1, 430224, Control_c, 0, 64, 64
1, 430239, Control_c, 0, 64, 62
1, 430249, Poly_aftertouch_c, 0, 67, 0
1, 430253, Control_c, 0, 64, 60
1, 430268, Control_c, 0, 64, 58
1, 430283, Control_c, 0, 64, 54
1, 430291, Note_on_c, 0, 47, 85
1, 430293, Note_on_c, 0, 52, 81
1, 430293, Note_on_c, 0, 56, 91
1, 430295, Note_on_c, 0, 67, 81
1, 430298, Control_c, 0, 64, 49
1, 430313, Control_c, 0, 64, 45
1, 430327, Control_c, 0, 64, 43
1, 430342, Control_c, 0, 64, 38
1, 430357, Control_c, 0, 64, 31
1, 430372, Control_c, 0, 64, 25
1, 430383, Note_off_c, 0, 52, 64
1, 430387, Control_c, 0, 64, 22
1, 430409, Control_c, 0, 64, 19
1, 430424, Control_c, 0, 64, 16
1, 430431, Note_off_c, 0, 47, 59
1, 430439, Control_c, 0, 64, 12
1, 430453, Control_c, 0, 64, 0
1, 430593, Note_on_c, 0, 47, 87
1, 430603, Note_on_c, 0, 40, 67
1, 430607, Note_on_c, 0, 41, 64
1, 430636, Note_off_c, 0, 47, 62
1, 430645, Note_off_c, 0, 40, 66
1, 430651, Note_off_c, 0, 41, 64
1, 430702, Note_on_c, 0, 66, 89
1, 430738, Note_off_c, 0, 67, 59
1, 430755, Note_off_c, 0, 56, 59
1, 430890, Note_on_c, 0, 36, 91
1, 430907, Note_on_c, 0, 67, 73
1, 430908, Note_on_c, 0, 54, 64
1, 430910, Note_on_c, 0, 60, 59
1, 430910, Note_on_c, 0, 63, 62
1, 430965, Note_off_c, 0, 66, 52
1, 431002, Note_off_c, 0, 54, 52
1, 431005, Note_off_c, 0, 63, 56
1, 431035, Note_off_c, 0, 60, 54
1, 431193, Note_on_c, 0, 63, 75
1, 431196, Note_on_c, 0, 60, 68
1, 431198, Note_on_c, 0, 59, 71
1, 431262, Note_off_c, 0, 59, 61
1, 431301, Note_off_c, 0, 60, 63
1, 431306, Note_on_c, 0, 37, 80
1, 431316, Note_off_c, 0, 63, 59
1, 431382, Note_off_c, 0, 36, 57
1, 431481, Note_on_c, 0, 39, 72
1, 431495, Note_on_c, 0, 60, 55
1, 431495, Note_on_c, 0, 63, 59
1, 431499, Note_on_c, 0, 54, 51
1, 431565, Note_off_c, 0, 54, 57
1, 431572, Note_off_c, 0, 37, 57
1, 431611, Note_off_c, 0, 60, 58
1, 431616, Note_off_c, 0, 63, 56
1, 431775, Note_on_c, 0, 63, 64
1, 431778, Note_on_c, 0, 59, 66
1, 431780, Note_on_c, 0, 60, 63
1, 431840, Note_off_c, 0, 59, 59
1, 431902, Note_on_c, 0, 38, 72
1, 431908, Note_off_c, 0, 60, 57
1, 431917, Note_off_c, 0, 63, 60
1, 431933, Note_off_c, 0, 39, 60
1, 432061, Note_on_c, 0, 36, 76
1, 432078, Note_on_c, 0, 63, 57
1, 432078, Note_on_c, 0, 54, 55
1, 432083, Note_on_c, 0, 60, 53
1, 432135, Note_off_c, 0, 38, 45
1, 432156, Note_off_c, 0, 54, 54
1, 432198, Note_off_c, 0, 60, 57
1, 432213, Note_off_c, 0, 63, 56
1, 432336, Note_on_c, 0, 63, 74
1, 432339, Note_on_c, 0, 60, 74
1, 432344, Note_on_c, 0, 59, 78
1, 432420, Note_off_c, 0, 59, 56
1, 432463, Note_off_c, 0, 60, 64
1, 432469, Note_off_c, 0, 63, 61
1, 432469, Note_on_c, 0, 37, 82
1, 432555, Note_off_c, 0, 36, 57
1, 432621, Note_on_c, 0, 39, 88
1, 432633, Note_on_c, 0, 63, 74
1, 432635, Note_on_c, 0, 60, 74
1, 432637, Note_on_c, 0, 54, 79
1, 432701, Note_off_c, 0, 37, 61
1, 432710, Note_off_c, 0, 54, 60
1, 432761, Note_off_c, 0, 60, 58
1, 432764, Note_off_c, 0, 63, 59
1, 432904, Note_on_c, 0, 63, 80
1, 432911, Note_on_c, 0, 59, 78
1, 432911, Note_on_c, 0, 60, 77
1, 432931, Note_off_c, 0, 67, 62
1, 432972, Note_off_c, 0, 59, 64
1, 432984, Note_off_c, 0, 60, 62
1, 432998, Note_off_c, 0, 63, 62
1, 433021, Note_on_c, 0, 40, 85
1, 433035, Note_off_c, 0, 39, 60
1, 433235, Note_on_c, 0, 47, 87
1, 433235, Note_on_c, 0, 56, 76
1, 433235, Note_on_c, 0, 63, 82
1, 433236, Note_on_c, 0, 51, 79
1, 433238, Note_on_c, 0, 41, 81
1, 433244, Note_on_c, 0, 60, 67
1, 433248, Note_off_c, 0, 40, 63
1, 433399, Note_off_c, 0, 60, 60
1, 433403, Note_off_c, 0, 51, 51
1, 433411, Note_off_c, 0, 56, 60
1, 433578, Note_on_c, 0, 52, 75
1, 433581, Note_on_c, 0, 60, 75
1, 433581, Note_on_c, 0, 56, 75
1, 433684, Note_off_c, 0, 52, 63
1, 433697, Note_off_c, 0, 56, 63
1, 433704, Note_on_c, 0, 48, 79
1, 433707, Note_off_c, 0, 60, 62
1, 433757, Note_off_c, 0, 47, 55
1, 433855, Note_on_c, 0, 50, 74
1, 433861, Note_on_c, 0, 51, 66
1, 433861, Note_on_c, 0, 56, 66
1, 433862, Note_on_c, 0, 60, 63
1, 433898, Note_off_c, 0, 48, 60
1, 433974, Note_off_c, 0, 56, 60
1, 433975, Note_off_c, 0, 51, 60
1, 433977, Note_off_c, 0, 60, 61
1, 434147, Note_on_c, 0, 52, 66
1, 434153, Note_on_c, 0, 56, 61
1, 434155, Note_on_c, 0, 60, 65
1, 434233, Note_off_c, 0, 52, 61
1, 434257, Note_off_c, 0, 56, 58
1, 434263, Note_off_c, 0, 60, 62
1, 434269, Note_on_c, 0, 48, 68
1, 434356, Note_off_c, 0, 50, 48
1, 434420, Note_on_c, 0, 56, 53
1, 434426, Note_on_c, 0, 51, 54
1, 434428, Note_on_c, 0, 60, 49
1, 434429, Note_on_c, 0, 47, 61
1, 434458, Note_off_c, 0, 48, 58
1, 434561, Note_off_c, 0, 60, 61
1, 434563, Note_off_c, 0, 51, 52
1, 434563, Note_off_c, 0, 56, 57
1, 434642, Control_c, 0, 64, 17
1, 434657, Control_c, 0, 64, 31
1, 434672, Control_c, 0, 64, 39
1, 434686, Control_c, 0, 64, 43
1, 434701, Control_c, 0, 64, 47
1, 434713, Note_on_c, 0, 56, 54
1, 434714, Note_on_c, 0, 60, 51
1, 434715, Note_on_c, 0, 51, 51
1, 434716, Control_c, 0, 64, 52
1, 434731, Control_c, 0, 64, 55
1, 434746, Control_c, 0, 64, 59
1, 434761, Control_c, 0, 64, 62
1, 434776, Control_c, 0, 64, 65
1, 434790, Control_c, 0, 64, 69
1, 434805, Control_c, 0, 64, 75
1, 434820, Control_c, 0, 64, 90
1, 434835, Control_c, 0, 64, 116
1, 434848, Note_on_c, 0, 48, 46
1, 434850, Control_c, 0, 64, 127
1, 434851, Note_off_c, 0, 47, 47
1, 434877, Note_off_c, 0, 48, 59
1, 434908, Note_off_c, 0, 41, 40
1, 435032, Note_on_c, 0, 41, 54
1, 435035, Control_c, 0, 64, 103
1, 435041, Note_on_c, 0, 29, 49
1, 435050, Control_c, 0, 64, 89
1, 435065, Control_c, 0, 64, 79
1, 435079, Control_c, 0, 64, 72
1, 435094, Control_c, 0, 64, 65
1, 435095, Note_off_c, 0, 60, 36
1, 435109, Control_c, 0, 64, 58
1, 435123, Control_c, 0, 64, 48
1, 435127, Note_off_c, 0, 56, 37
1, 435138, Control_c, 0, 64, 41
1, 435153, Control_c, 0, 64, 40
1, 435212, Control_c, 0, 64, 42
1, 435227, Control_c, 0, 64, 47
1, 435242, Control_c, 0, 64, 53
1, 435257, Control_c, 0, 64, 58
1, 435271, Control_c, 0, 64, 61
1, 435286, Control_c, 0, 64, 64
1, 435301, Control_c, 0, 64, 67
1, 435315, Note_on_c, 0, 56, 44
1, 435315, Note_on_c, 0, 60, 49
1, 435316, Control_c, 0, 64, 71
1, 435322, Note_off_c, 0, 41, 38
1, 435325, Note_off_c, 0, 29, 41
1, 435331, Control_c, 0, 64, 77
1, 435345, Control_c, 0, 64, 85
1, 435360, Control_c, 0, 64, 94
1, 435375, Control_c, 0, 64, 105
1, 435390, Control_c, 0, 64, 112
1, 435405, Control_c, 0, 64, 112
1, 435435, Control_c, 0, 64, 112
1, 435464, Control_c, 0, 64, 110
1, 435479, Control_c, 0, 64, 109
1, 435494, Control_c, 0, 64, 107
1, 435508, Control_c, 0, 64, 105
1, 435523, Control_c, 0, 64, 104
1, 435539, Control_c, 0, 64, 102
1, 435554, Control_c, 0, 64, 99
1, 435569, Control_c, 0, 64, 96
1, 435584, Control_c, 0, 64, 93
1, 435587, Note_on_c, 0, 41, 39
1, 435596, Note_on_c, 0, 29, 35
1, 435599, Control_c, 0, 64, 90
1, 435613, Control_c, 0, 64, 84
1, 435617, Note_off_c, 0, 60, 58
1, 435622, Note_off_c, 0, 56, 52
1, 435628, Control_c, 0, 64, 78
1, 435650, Control_c, 0, 64, 71
1, 435665, Control_c, 0, 64, 66
1, 435680, Control_c, 0, 64, 62
1, 435694, Control_c, 0, 64, 59
1, 435709, Control_c, 0, 64, 58
1, 435724, Control_c, 0, 64, 57
1, 435769, Control_c, 0, 64, 58
1, 435784, Control_c, 0, 64, 59
1, 435799, Control_c, 0, 64, 61
1, 435813, Control_c, 0, 64, 63
1, 435828, Control_c, 0, 64, 66
1, 435843, Control_c, 0, 64, 69
1, 435858, Control_c, 0, 64, 74
1, 435873, Control_c, 0, 64, 80
1, 435882, Note_on_c, 0, 56, 51
1, 435884, Note_on_c, 0, 60, 54
1, 435888, Control_c, 0, 64, 89
1, 435902, Control_c, 0, 64, 107
1, 435917, Control_c, 0, 64, 127
1, 436040, Note_off_c, 0, 51, 57
1, 436234, Note_on_c, 0, 50, 69
1, 436317, Control_c, 0, 64, 108
1, 436332, Control_c, 0, 64, 95
1, 436347, Control_c, 0, 64, 85
1, 436362, Control_c, 0, 64, 77
1, 436377, Control_c, 0, 64, 70
1, 436399, Control_c, 0, 64, 63
1, 436414, Control_c, 0, 64, 58
1, 436429, Control_c, 0, 64, 55
1, 436458, Control_c, 0, 64, 56
1, 436473, Control_c, 0, 64, 57
1, 436488, Control_c, 0, 64, 59
1, 436503, Control_c, 0, 64, 62
1, 436517, Control_c, 0, 64, 64
1, 436532, Control_c, 0, 64, 67
1, 436547, Control_c, 0, 64, 71
1, 436562, Control_c, 0, 64, 77
1, 436577, Control_c, 0, 64, 88
1, 436591, Control_c, 0, 64, 127
1, 436611, Note_off_c, 0, 50, 49
1, 436917, Control_c, 0, 64, 125
1, 436919, Note_on_c, 0, 49, 53
1, 436932, Control_c, 0, 64, 114
1, 436947, Control_c, 0, 64, 110
1, 436961, Control_c, 0, 64, 105
1, 436976, Control_c, 0, 64, 99
1, 436991, Control_c, 0, 64, 92
1, 437006, Control_c, 0, 64, 86
1, 437021, Control_c, 0, 64, 82
1, 437036, Control_c, 0, 64, 78
1, 437051, Control_c, 0, 64, 74
1, 437065, Control_c, 0, 64, 69
1, 437080, Control_c, 0, 64, 64
1, 437095, Control_c, 0, 64, 60
1, 437110, Control_c, 0, 64, 57
1, 437125, Control_c, 0, 64, 56
1, 437178, Control_c, 0, 64, 56
1, 437180, Note_off_c, 0, 41, 36
1, 437187, Note_off_c, 0, 29, 38
1, 437444, Control_c, 0, 64, 56
1, 437459, Control_c, 0, 64, 57
1, 437474, Control_c, 0, 64, 58
1, 437489, Control_c, 0, 64, 59
1, 437490, Note_on_c, 0, 41, 34
1, 437504, Control_c, 0, 64, 60
1, 437510, Note_on_c, 0, 29, 27
1, 437517, Note_off_c, 0, 60, 33
1, 437518, Control_c, 0, 64, 61
1, 437533, Control_c, 0, 64, 63
1, 437539, Note_off_c, 0, 56, 36
1, 437548, Control_c, 0, 64, 64
1, 437563, Control_c, 0, 64, 65
1, 437578, Control_c, 0, 64, 66
1, 437592, Control_c, 0, 64, 68
1, 437607, Control_c, 0, 64, 71
1, 437622, Control_c, 0, 64, 75
1, 437637, Control_c, 0, 64, 83
1, 437652, Control_c, 0, 64, 97
1, 437666, Control_c, 0, 64, 127
1, 437768, Note_on_c, 0, 60, 50
1, 437783, Note_on_c, 0, 56, 35
1, 437842, Note_off_c, 0, 41, 41
1, 437871, Note_off_c, 0, 29, 38
1, 438066, Note_on_c, 0, 41, 42
1, 438077, Note_off_c, 0, 63, 36
1, 438078, Note_on_c, 0, 29, 33
1, 438114, Note_off_c, 0, 60, 32
1, 438136, Note_off_c, 0, 49, 33
1, 438312, Note_on_c, 0, 48, 58
1, 438375, Note_off_c, 0, 56, 49
1, 438400, Control_c, 0, 64, 120
1, 438414, Control_c, 0, 64, 117
1, 438429, Control_c, 0, 64, 115
1, 438444, Control_c, 0, 64, 112
1, 438459, Control_c, 0, 64, 109
1, 438474, Control_c, 0, 64, 108
1, 438489, Control_c, 0, 64, 106
1, 438504, Control_c, 0, 64, 105
1, 438519, Control_c, 0, 64, 104
1, 438533, Control_c, 0, 64, 102
1, 438548, Control_c, 0, 64, 100
1, 438563, Control_c, 0, 64, 98
1, 438578, Control_c, 0, 64, 97
1, 438593, Control_c, 0, 64, 95
1, 438598, Note_on_c, 0, 47, 60
1, 438607, Control_c, 0, 64, 93
1, 438622, Control_c, 0, 64, 92
1, 438645, Control_c, 0, 64, 91
1, 438660, Control_c, 0, 64, 89
1, 438675, Control_c, 0, 64, 87
1, 438689, Control_c, 0, 64, 85
1, 438704, Control_c, 0, 64, 83
1, 438719, Control_c, 0, 64, 81
1, 438734, Control_c, 0, 64, 80
1, 438750, Control_c, 0, 64, 78
1, 438764, Control_c, 0, 64, 76
1, 438779, Control_c, 0, 64, 75
1, 438794, Control_c, 0, 64, 75
1, 438807, Note_off_c, 0, 48, 27
1, 438809, Control_c, 0, 64, 74
1, 438824, Control_c, 0, 64, 73
1, 438838, Control_c, 0, 64, 72
1, 438853, Control_c, 0, 64, 71
1, 438868, Control_c, 0, 64, 70
1, 438883, Control_c, 0, 64, 69
1, 438884, Note_on_c, 0, 46, 59
1, 438898, Control_c, 0, 64, 69
1, 438912, Control_c, 0, 64, 68
1, 438927, Control_c, 0, 64, 67
1, 438942, Control_c, 0, 64, 66
1, 438957, Control_c, 0, 64, 66
1, 438971, Control_c, 0, 64, 65
1, 438973, Note_off_c, 0, 47, 49
1, 438986, Control_c, 0, 64, 65
1, 439001, Control_c, 0, 64, 64
1, 439031, Control_c, 0, 64, 63
1, 439045, Control_c, 0, 64, 63
1, 439075, Control_c, 0, 64, 62
1, 439090, Control_c, 0, 64, 61
1, 439105, Control_c, 0, 64, 61
1, 439109, Note_off_c, 0, 41, 23
1, 439119, Control_c, 0, 64, 60
1, 439134, Note_off_c, 0, 29, 32
1, 439134, Control_c, 0, 64, 60
1, 439149, Control_c, 0, 64, 59
1, 439164, Control_c, 0, 64, 59
1, 439179, Note_on_c, 0, 45, 52
1, 439194, Control_c, 0, 64, 58
1, 439209, Control_c, 0, 64, 58
1, 439224, Control_c, 0, 64, 57
1, 439238, Control_c, 0, 64, 57
1, 439253, Control_c, 0, 64, 56
1, 439263, Note_off_c, 0, 46, 61
1, 439268, Control_c, 0, 64, 55
1, 439297, Control_c, 0, 64, 55
1, 439312, Control_c, 0, 64, 54
1, 439342, Control_c, 0, 64, 54
1, 439356, Control_c, 0, 64, 53
1, 439394, Control_c, 0, 64, 53
1, 439408, Control_c, 0, 64, 52
1, 439438, Control_c, 0, 64, 52
1, 439468, Control_c, 0, 64, 51
1, 439468, Note_on_c, 0, 44, 44
1, 439497, Control_c, 0, 64, 51
1, 439543, Control_c, 0, 64, 50
1, 439554, Note_off_c, 0, 45, 51
1, 439587, Control_c, 0, 64, 50
1, 439735, Control_c, 0, 64, 49
1, 439751, Note_on_c, 0, 43, 35
1, 439906, Note_off_c, 0, 44, 36
1, 440034, Note_on_c, 0, 42, 41
1, 440112, Note_off_c, 0, 43, 41
1, 440372, Note_on_c, 0, 41, 32
1, 440380, Control_c, 0, 64, 50
1, 440409, Note_off_c, 0, 42, 28
1, 440425, Control_c, 0, 64, 50
1, 440470, Control_c, 0, 64, 51
1, 440499, Control_c, 0, 64, 51
1, 440529, Control_c, 0, 64, 52
1, 440558, Control_c, 0, 64, 52
1, 440588, Control_c, 0, 64, 53
1, 440603, Control_c, 0, 64, 53
1, 440632, Control_c, 0, 64, 54
1, 440662, Control_c, 0, 64, 54
1, 440781, Note_off_c, 0, 41, 42
1, 440804, Note_on_c, 0, 40, 32
1, 440839, Control_c, 0, 64, 56
1, 440845, Note_off_c, 0, 40, 56
1, 440854, Control_c, 0, 64, 60
1, 440869, Control_c, 0, 64, 64
1, 440891, Control_c, 0, 64, 67
1, 440906, Control_c, 0, 64, 72
1, 440921, Control_c, 0, 64, 84
1, 440935, Control_c, 0, 64, 115
1, 440950, Control_c, 0, 64, 127
1, 441554, Note_on_c, 0, 64, 28
1, 441558, Note_on_c, 0, 57, 19
1, 441567, Note_on_c, 0, 59, 24
1, 441689, Note_off_c, 0, 59, 50
1, 441724, Note_off_c, 0, 57, 37
1, 441731, Note_off_c, 0, 64, 39
1, 441780, Note_on_c, 0, 52, 26
1, 441925, Note_on_c, 0, 66, 41
1, 441934, Note_on_c, 0, 61, 33
1, 441945, Note_on_c, 0, 58, 34
1, 441945, Note_on_c, 0, 53, 36
1, 442085, Note_off_c, 0, 58, 37
1, 442088, Note_on_c, 0, 54, 37
1, 442098, Note_off_c, 0, 66, 38
1, 442100, Note_off_c, 0, 61, 41
1, 442136, Note_off_c, 0, 52, 36
1, 442142, Note_off_c, 0, 53, 40
1, 442144, Control_c, 0, 64, 125
1, 442159, Control_c, 0, 64, 116
1, 442173, Control_c, 0, 64, 114
1, 442182, Note_off_c, 0, 54, 50
1, 442188, Control_c, 0, 64, 112
1, 442194, Note_on_c, 0, 55, 44
1, 442202, Note_on_c, 0, 59, 47
1, 442203, Control_c, 0, 64, 110
1, 442205, Note_on_c, 0, 64, 46
1, 442205, Note_on_c, 0, 68, 50
1, 442218, Control_c, 0, 64, 108
1, 442234, Control_c, 0, 64, 108
1, 442248, Control_c, 0, 64, 107
1, 442263, Control_c, 0, 64, 107
1, 442278, Control_c, 0, 64, 105
1, 442293, Control_c, 0, 64, 104
1, 442308, Control_c, 0, 64, 101
1, 442312, Note_off_c, 0, 64, 56
1, 442317, Note_off_c, 0, 55, 57
1, 442323, Control_c, 0, 64, 100
1, 442331, Note_on_c, 0, 56, 54
1, 442337, Control_c, 0, 64, 99
1, 442352, Control_c, 0, 64, 98
1, 442353, Note_off_c, 0, 68, 58
1, 442356, Note_off_c, 0, 59, 35
1, 442367, Control_c, 0, 64, 97
1, 442389, Control_c, 0, 64, 96
1, 442404, Control_c, 0, 64, 95
1, 442419, Control_c, 0, 64, 94
1, 442434, Control_c, 0, 64, 93
1, 442449, Control_c, 0, 64, 92
1, 442449, Note_on_c, 0, 69, 68
1, 442458, Note_on_c, 0, 60, 57
1, 442461, Note_on_c, 0, 66, 50
1, 442462, Note_on_c, 0, 57, 56
1, 442462, Note_off_c, 0, 56, 60
1, 442463, Control_c, 0, 64, 91
1, 442478, Control_c, 0, 64, 91
1, 442493, Control_c, 0, 64, 90
1, 442508, Control_c, 0, 64, 89
1, 442523, Control_c, 0, 64, 88
1, 442537, Control_c, 0, 64, 87
1, 442552, Control_c, 0, 64, 86
1, 442553, Note_off_c, 0, 60, 61
1, 442567, Control_c, 0, 64, 84
1, 442573, Note_off_c, 0, 57, 63
1, 442580, Note_on_c, 0, 58, 68
1, 442581, Control_c, 0, 64, 83
1, 442590, Note_off_c, 0, 69, 60
1, 442596, Control_c, 0, 64, 81
1, 442611, Control_c, 0, 64, 80
1, 442619, Note_off_c, 0, 66, 59
1, 442626, Control_c, 0, 64, 79
1, 442641, Control_c, 0, 64, 77
1, 442655, Control_c, 0, 64, 76
1, 442670, Control_c, 0, 64, 74
1, 442685, Control_c, 0, 64, 73
1, 442688, Note_off_c, 0, 58, 62
1, 442693, Note_on_c, 0, 59, 62
1, 442696, Note_on_c, 0, 68, 70
1, 442700, Control_c, 0, 64, 71
1, 442702, Note_on_c, 0, 61, 62
1, 442703, Note_on_c, 0, 64, 65
1, 442714, Control_c, 0, 64, 70
1, 442731, Control_c, 0, 64, 68
1, 442746, Control_c, 0, 64, 67
1, 442760, Control_c, 0, 64, 65
1, 442775, Control_c, 0, 64, 64
1, 442790, Control_c, 0, 64, 63
1, 442792, Note_off_c, 0, 61, 57
1, 442804, Control_c, 0, 64, 62
1, 442814, Note_on_c, 0, 60, 77
1, 442819, Control_c, 0, 64, 61
1, 442834, Control_c, 0, 64, 60
1, 442848, Note_off_c, 0, 59, 62
1, 442849, Control_c, 0, 64, 59
1, 442857, Note_off_c, 0, 64, 61
1, 442864, Control_c, 0, 64, 57
1, 442867, Note_off_c, 0, 68, 62
1, 442878, Control_c, 0, 64, 55
1, 442893, Control_c, 0, 64, 53
1, 442908, Control_c, 0, 64, 50
1, 442923, Control_c, 0, 64, 47
1, 442930, Note_on_c, 0, 61, 67
1, 442934, Note_on_c, 0, 68, 72
1, 442938, Control_c, 0, 64, 45
1, 442939, Note_on_c, 0, 64, 72
1, 442953, Control_c, 0, 64, 42
1, 442959, Note_off_c, 0, 60, 63
1, 442968, Control_c, 0, 64, 39
1, 442983, Control_c, 0, 64, 37
1, 442997, Control_c, 0, 64, 36
1, 443012, Control_c, 0, 64, 36
1, 443027, Control_c, 0, 64, 35
1, 443042, Control_c, 0, 64, 33
1, 443044, Note_on_c, 0, 62, 71
1, 443053, Note_off_c, 0, 61, 62
1, 443057, Control_c, 0, 64, 32
1, 443072, Control_c, 0, 64, 31
1, 443079, Note_off_c, 0, 64, 61
1, 443086, Control_c, 0, 64, 30
1, 443101, Control_c, 0, 64, 29
1, 443103, Note_off_c, 0, 68, 63
1, 443116, Control_c, 0, 64, 27
1, 443138, Control_c, 0, 64, 27
1, 443152, Control_c, 0, 64, 26
1, 443182, Note_on_c, 0, 68, 73
1, 443194, Note_on_c, 0, 63, 62
1, 443196, Note_on_c, 0, 64, 67
1, 443217, Note_off_c, 0, 62, 61
1, 443286, Control_c, 0, 64, 27
1, 443301, Control_c, 0, 64, 28
1, 443316, Control_c, 0, 64, 29
1, 443330, Control_c, 0, 64, 30
1, 443345, Control_c, 0, 64, 31
1, 443349, Note_off_c, 0, 64, 36
1, 443360, Control_c, 0, 64, 31
1, 443390, Control_c, 0, 64, 32
1, 443404, Control_c, 0, 64, 32
1, 443419, Control_c, 0, 64, 33
1, 443425, Note_on_c, 0, 61, 56
1, 443434, Control_c, 0, 64, 34
1, 443436, Note_on_c, 0, 69, 76
1, 443449, Control_c, 0, 64, 35
1, 443453, Note_on_c, 0, 64, 59
1, 443460, Note_off_c, 0, 63, 45
1, 443464, Control_c, 0, 64, 37
1, 443478, Control_c, 0, 64, 39
1, 443493, Control_c, 0, 64, 43
1, 443495, Note_off_c, 0, 68, 60
1, 443508, Control_c, 0, 64, 48
1, 443523, Control_c, 0, 64, 54
1, 443539, Control_c, 0, 64, 58
1, 443554, Control_c, 0, 64, 61
1, 443569, Control_c, 0, 64, 64
1, 443583, Control_c, 0, 64, 67
1, 443587, Note_off_c, 0, 64, 55
1, 443598, Control_c, 0, 64, 72
1, 443612, Note_off_c, 0, 61, 51
1, 443613, Control_c, 0, 64, 80
1, 443627, Control_c, 0, 64, 91
1, 443642, Control_c, 0, 64, 106
1, 443657, Control_c, 0, 64, 127
1, 443735, Note_on_c, 0, 59, 53
1, 443775, Control_c, 0, 64, 112
1, 443790, Note_on_c, 0, 68, 64
1, 443790, Control_c, 0, 64, 102
1, 443793, Note_on_c, 0, 64, 44
1, 443805, Control_c, 0, 64, 93
1, 443816, Note_on_c, 0, 63, 40
1, 443820, Control_c, 0, 64, 86
1, 443835, Control_c, 0, 64, 78
1, 443850, Control_c, 0, 64, 70
1, 443865, Control_c, 0, 64, 65
1, 443887, Control_c, 0, 64, 61
1, 443901, Control_c, 0, 64, 58
1, 443911, Note_off_c, 0, 69, 55
1, 443916, Control_c, 0, 64, 57
1, 443931, Control_c, 0, 64, 57
1, 443946, Control_c, 0, 64, 59
1, 443947, Note_on_c, 0, 58, 76
1, 443952, Note_off_c, 0, 63, 58
1, 443960, Control_c, 0, 64, 60
1, 443965, Note_off_c, 0, 64, 56
1, 443969, Note_off_c, 0, 59, 61
1, 443975, Control_c, 0, 64, 62
1, 443990, Control_c, 0, 64, 64
1, 444005, Control_c, 0, 64, 67
1, 444020, Control_c, 0, 64, 70
1, 444035, Control_c, 0, 64, 77
1, 444050, Control_c, 0, 64, 85
1, 444065, Control_c, 0, 64, 97
1, 444076, Note_on_c, 0, 69, 78
1, 444078, Note_on_c, 0, 57, 70
1, 444080, Control_c, 0, 64, 127
1, 444091, Note_on_c, 0, 61, 66
1, 444092, Note_on_c, 0, 64, 68
1, 444126, Note_off_c, 0, 68, 58
1, 444181, Note_off_c, 0, 58, 52
1, 444185, Note_off_c, 0, 64, 61
1, 444187, Note_off_c, 0, 61, 59
1, 444191, Note_off_c, 0, 57, 63
1, 444194, Note_off_c, 0, 69, 58
1, 444196, Note_on_c, 0, 56, 75
1, 444221, Note_off_c, 0, 56, 67
1, 444338, Note_on_c, 0, 64, 76
1, 444350, Note_on_c, 0, 55, 64
1, 444350, Note_on_c, 0, 59, 62
1, 444354, Note_on_c, 0, 40, 63
1, 444362, Control_c, 0, 64, 100
1, 444376, Control_c, 0, 64, 82
1, 444391, Control_c, 0, 64, 69
1, 444406, Control_c, 0, 64, 55
1, 444421, Control_c, 0, 64, 28
1, 444434, Note_off_c, 0, 59, 53
1, 444436, Control_c, 0, 64, 0
1, 444454, Note_off_c, 0, 55, 49
1, 444461, Note_off_c, 0, 40, 60
1, 444467, Note_on_c, 0, 39, 60
1, 444591, Note_off_c, 0, 39, 61
1, 444595, Note_on_c, 0, 59, 56
1, 444600, Note_on_c, 0, 55, 52
1, 444611, Note_on_c, 0, 38, 49
1, 444666, Note_off_c, 0, 59, 53
1, 444675, Note_off_c, 0, 55, 52
1, 444722, Note_on_c, 0, 37, 50
1, 444728, Note_off_c, 0, 38, 55
1, 444889, Note_on_c, 0, 36, 50
1, 444893, Note_on_c, 0, 60, 51
1, 444898, Note_on_c, 0, 55, 48
1, 444899, Note_off_c, 0, 37, 49
1, 444944, Note_off_c, 0, 60, 56
1, 444953, Note_off_c, 0, 55, 55
1, 445179, Note_on_c, 0, 55, 46
1, 445180, Note_on_c, 0, 60, 42
1, 445237, Note_off_c, 0, 60, 55
1, 445249, Note_off_c, 0, 55, 53
1, 445466, Note_on_c, 0, 60, 39
1, 445472, Note_on_c, 0, 55, 35
1, 445519, Note_off_c, 0, 60, 52
1, 445547, Note_off_c, 0, 55, 49
1, 445749, Note_on_c, 0, 55, 29
1, 445756, Note_on_c, 0, 60, 31
1, 445814, Note_off_c, 0, 60, 47
1, 445821, Note_off_c, 0, 55, 51
1, 445976, Control_c, 0, 64, 18
1, 445991, Control_c, 0, 64, 33
1, 446006, Control_c, 0, 64, 41
1, 446020, Control_c, 0, 64, 46
1, 446035, Control_c, 0, 64, 52
1, 446037, Note_on_c, 0, 55, 28
1, 446041, Note_on_c, 0, 60, 32
1, 446050, Control_c, 0, 64, 57
1, 446065, Control_c, 0, 64, 61
1, 446080, Control_c, 0, 64, 64
1, 446095, Control_c, 0, 64, 67
1, 446110, Control_c, 0, 64, 72
1, 446132, Control_c, 0, 64, 81
1, 446147, Control_c, 0, 64, 98
1, 446152, Note_off_c, 0, 60, 38
1, 446157, Note_off_c, 0, 55, 36
1, 446159, Note_off_c, 0, 64, 35
1, 446162, Control_c, 0, 64, 127
1, 446186, Note_off_c, 0, 36, 38
1, 446319, Note_on_c, 0, 64, 42
1, 446321, Note_on_c, 0, 60, 40
1, 446323, Note_on_c, 0, 55, 38
1, 446387, Note_off_c, 0, 55, 55
1, 446389, Note_off_c, 0, 60, 58
1, 446429, Note_off_c, 0, 64, 59
1, 446591, Control_c, 0, 64, 100
1, 446601, Note_on_c, 0, 62, 41
1, 446606, Control_c, 0, 64, 85
1, 446611, Note_on_c, 0, 66, 56
1, 446616, Note_on_c, 0, 57, 49
1, 446618, Note_on_c, 0, 54, 39
1, 446620, Control_c, 0, 64, 74
1, 446635, Control_c, 0, 64, 66
1, 446650, Control_c, 0, 64, 60
1, 446665, Control_c, 0, 64, 56
1, 446680, Control_c, 0, 64, 57
1, 446694, Control_c, 0, 64, 60
1, 446705, Note_off_c, 0, 62, 60
1, 446709, Control_c, 0, 64, 63
1, 446726, Control_c, 0, 64, 68
1, 446732, Note_off_c, 0, 57, 60
1, 446741, Control_c, 0, 64, 73
1, 446756, Control_c, 0, 64, 82
1, 446771, Control_c, 0, 64, 93
1, 446786, Control_c, 0, 64, 110
1, 446795, Note_off_c, 0, 66, 56
1, 446800, Control_c, 0, 64, 127
1, 446844, Control_c, 0, 64, 108
1, 446859, Note_off_c, 0, 54, 44
1, 446859, Control_c, 0, 64, 88
1, 446882, Control_c, 0, 64, 73
1, 446884, Note_on_c, 0, 67, 62
1, 446888, Note_on_c, 0, 52, 44
1, 446894, Note_on_c, 0, 64, 49
1, 446895, Note_on_c, 0, 60, 50
1, 446896, Control_c, 0, 64, 64
1, 446911, Control_c, 0, 64, 55
1, 446926, Control_c, 0, 64, 48
1, 446941, Control_c, 0, 64, 50
1, 446956, Control_c, 0, 64, 57
1, 446971, Control_c, 0, 64, 62
1, 446985, Control_c, 0, 64, 66
1, 447000, Control_c, 0, 64, 71
1, 447001, Note_off_c, 0, 52, 63
1, 447004, Note_off_c, 0, 60, 54
1, 447015, Control_c, 0, 64, 79
1, 447028, Note_off_c, 0, 64, 55
1, 447030, Control_c, 0, 64, 89
1, 447045, Control_c, 0, 64, 100
1, 447054, Note_off_c, 0, 67, 57
1, 447059, Control_c, 0, 64, 102
1, 447074, Control_c, 0, 64, 101
1, 447089, Control_c, 0, 64, 96
1, 447104, Control_c, 0, 64, 91
1, 447119, Control_c, 0, 64, 88
1, 447133, Control_c, 0, 64, 86
1, 447148, Control_c, 0, 64, 82
1, 447163, Control_c, 0, 64, 78
1, 447177, Control_c, 0, 64, 74
1, 447186, Note_on_c, 0, 68, 50
1, 447189, Note_on_c, 0, 64, 41
1, 447192, Control_c, 0, 64, 71
1, 447204, Note_on_c, 0, 51, 39
1, 447204, Note_on_c, 0, 59, 45
1, 447207, Control_c, 0, 64, 70
1, 447222, Control_c, 0, 64, 68
1, 447237, Control_c, 0, 64, 66
1, 447251, Control_c, 0, 64, 64
1, 447266, Control_c, 0, 64, 62
1, 447279, Note_off_c, 0, 64, 59
1, 447281, Control_c, 0, 64, 61
1, 447284, Note_off_c, 0, 59, 59
1, 447296, Control_c, 0, 64, 60
1, 447302, Note_off_c, 0, 51, 53
1, 447305, Note_on_c, 0, 52, 58
1, 447311, Control_c, 0, 64, 58
1, 447326, Control_c, 0, 64, 56
1, 447341, Control_c, 0, 64, 54
1, 447356, Control_c, 0, 64, 54
1, 447359, Note_off_c, 0, 68, 60
1, 447370, Control_c, 0, 64, 53
1, 447385, Control_c, 0, 64, 52
1, 447400, Control_c, 0, 64, 50
1, 447415, Control_c, 0, 64, 47
1, 447425, Note_on_c, 0, 71, 72
1, 447430, Control_c, 0, 64, 46
1, 447432, Note_on_c, 0, 63, 64
1, 447433, Note_on_c, 0, 51, 67
1, 447437, Note_on_c, 0, 66, 52
1, 447444, Control_c, 0, 64, 45
1, 447459, Control_c, 0, 64, 44
1, 447463, Note_off_c, 0, 52, 64
1, 447474, Control_c, 0, 64, 42
1, 447489, Control_c, 0, 64, 40
1, 447504, Control_c, 0, 64, 39
1, 447519, Control_c, 0, 64, 37
1, 447534, Control_c, 0, 64, 37
1, 447540, Note_off_c, 0, 66, 61
1, 447544, Note_on_c, 0, 49, 72
1, 447549, Control_c, 0, 64, 36
1, 447558, Note_off_c, 0, 63, 62
1, 447564, Control_c, 0, 64, 35
1, 447579, Control_c, 0, 64, 34
1, 447581, Note_off_c, 0, 71, 63
1, 447585, Note_off_c, 0, 51, 62
1, 447593, Control_c, 0, 64, 32
1, 447608, Control_c, 0, 64, 31
1, 447630, Control_c, 0, 64, 30
1, 447645, Control_c, 0, 64, 30
1, 447660, Control_c, 0, 64, 29
1, 447669, Note_on_c, 0, 48, 69
1, 447674, Control_c, 0, 64, 28
1, 447677, Note_on_c, 0, 75, 72
1, 447679, Note_off_c, 0, 49, 63
1, 447680, Note_on_c, 0, 68, 55
1, 447689, Control_c, 0, 64, 27
1, 447694, Note_on_c, 0, 64, 58
1, 447704, Control_c, 0, 64, 26
1, 447719, Control_c, 0, 64, 25
1, 447734, Control_c, 0, 64, 24
1, 447749, Control_c, 0, 64, 23
1, 447764, Control_c, 0, 64, 22
1, 447779, Control_c, 0, 64, 21
1, 447794, Control_c, 0, 64, 19
1, 447797, Note_on_c, 0, 47, 59
1, 447798, Note_off_c, 0, 64, 62
1, 447808, Control_c, 0, 64, 18
1, 447823, Control_c, 0, 64, 14
1, 447828, Note_off_c, 0, 48, 59
1, 447835, Note_off_c, 0, 75, 61
1, 447838, Control_c, 0, 64, 9
1, 447850, Note_off_c, 0, 68, 59
1, 447853, Control_c, 0, 64, 0
1, 447930, Note_on_c, 0, 43, 40
1, 447936, Note_on_c, 0, 74, 58
1, 447943, Note_on_c, 0, 63, 43
1, 447945, Note_on_c, 0, 71, 49
1, 447960, Note_off_c, 0, 47, 38
1, 448015, Note_off_c, 0, 63, 51
1, 448053, Note_off_c, 0, 74, 56
1, 448078, Note_on_c, 0, 44, 30
1, 448122, Note_off_c, 0, 43, 33
1, 448206, Note_off_c, 0, 71, 34
1, 448207, Note_on_c, 0, 73, 51
1, 448211, Note_on_c, 0, 45, 34
1, 448214, Note_on_c, 0, 64, 35
1, 448221, Note_on_c, 0, 68, 34
1, 448233, Note_off_c, 0, 44, 38
1, 448311, Control_c, 0, 64, 27
1, 448327, Control_c, 0, 64, 46
1, 448342, Control_c, 0, 64, 57
1, 448344, Note_off_c, 0, 64, 37
1, 448357, Control_c, 0, 64, 62
1, 448361, Note_off_c, 0, 73, 60
1, 448378, Control_c, 0, 64, 66
1, 448387, Note_off_c, 0, 45, 50
1, 448390, Note_off_c, 0, 68, 53
1, 448393, Control_c, 0, 64, 74
1, 448408, Control_c, 0, 64, 95
1, 448423, Control_c, 0, 64, 127
1, 448518, Note_on_c, 0, 47, 44
1, 448524, Note_on_c, 0, 73, 60
1, 448528, Note_on_c, 0, 68, 45
1, 448545, Note_on_c, 0, 63, 49
1, 448557, Control_c, 0, 64, 109
1, 448571, Control_c, 0, 64, 98
1, 448586, Control_c, 0, 64, 90
1, 448601, Control_c, 0, 64, 84
1, 448615, Control_c, 0, 64, 81
1, 448630, Control_c, 0, 64, 79
1, 448638, Note_on_c, 0, 48, 65
1, 448639, Note_off_c, 0, 73, 63
1, 448640, Note_off_c, 0, 68, 60
1, 448645, Control_c, 0, 64, 77
1, 448658, Note_off_c, 0, 63, 58
1, 448660, Control_c, 0, 64, 74
1, 448675, Control_c, 0, 64, 71
1, 448689, Control_c, 0, 64, 68
1, 448704, Control_c, 0, 64, 66
1, 448719, Control_c, 0, 64, 63
1, 448734, Control_c, 0, 64, 61
1, 448749, Control_c, 0, 64, 58
1, 448753, Note_on_c, 0, 49, 67
1, 448757, Note_on_c, 0, 69, 78
1, 448764, Control_c, 0, 64, 56
1, 448767, Note_on_c, 0, 61, 67
1, 448768, Note_on_c, 0, 64, 60
1, 448778, Control_c, 0, 64, 54
1, 448788, Note_off_c, 0, 48, 60
1, 448791, Note_off_c, 0, 47, 55
1, 448793, Control_c, 0, 64, 51
1, 448808, Control_c, 0, 64, 47
1, 448822, Control_c, 0, 64, 41
1, 448837, Control_c, 0, 64, 36
1, 448852, Control_c, 0, 64, 31
1, 448857, Note_off_c, 0, 64, 56
1, 448867, Control_c, 0, 64, 25
1, 448870, Note_off_c, 0, 61, 56
1, 448871, Note_on_c, 0, 51, 82
1, 448882, Control_c, 0, 64, 13
1, 448897, Control_c, 0, 64, 0
1, 448922, Note_off_c, 0, 69, 60
1, 448926, Note_off_c, 0, 49, 59
1, 448980, Note_on_c, 0, 68, 82
1, 448989, Note_on_c, 0, 52, 75
1, 448989, Note_on_c, 0, 63, 68
1, 448994, Note_on_c, 0, 59, 66
1, 448997, Note_off_c, 0, 51, 65
1, 449095, Note_off_c, 0, 63, 62
1, 449102, Note_on_c, 0, 55, 73
1, 449125, Note_off_c, 0, 59, 59
1, 449127, Note_off_c, 0, 52, 63
1, 449193, Note_off_c, 0, 68, 59
1, 449248, Note_on_c, 0, 71, 78
1, 449248, Note_off_c, 0, 55, 62
1, 449255, Note_on_c, 0, 61, 61
1, 449257, Note_on_c, 0, 59, 55
1, 449258, Note_on_c, 0, 56, 58
1, 449320, Control_c, 0, 64, 47
1, 449335, Control_c, 0, 64, 64
1, 449350, Control_c, 0, 64, 78
1, 449365, Control_c, 0, 64, 127
1, 449397, Note_off_c, 0, 71, 58
1, 449403, Note_off_c, 0, 59, 62
1, 449407, Note_off_c, 0, 61, 58
1, 449410, Poly_aftertouch_c, 0, 69, 127
1, 449424, Note_off_c, 0, 56, 60
1, 449444, Poly_aftertouch_c, 0, 69, 0
1, 449508, Note_on_c, 0, 47, 59
1, 449522, Note_on_c, 0, 64, 77
1, 449524, Note_on_c, 0, 62, 64
1, 449525, Note_on_c, 0, 55, 68
1, 449527, Control_c, 0, 64, 100
1, 449542, Control_c, 0, 64, 78
1, 449557, Control_c, 0, 64, 65
1, 449571, Control_c, 0, 64, 52
1, 449586, Control_c, 0, 64, 42
1, 449601, Control_c, 0, 64, 44
1, 449616, Control_c, 0, 64, 54
1, 449631, Control_c, 0, 64, 63
1, 449645, Control_c, 0, 64, 69
1, 449651, Note_off_c, 0, 55, 57
1, 449660, Control_c, 0, 64, 82
1, 449664, Note_off_c, 0, 62, 62
1, 449675, Control_c, 0, 64, 127
1, 449718, Note_off_c, 0, 64, 62
1, 449727, Note_off_c, 0, 47, 55
1, 449836, Note_on_c, 0, 54, 51
1, 449861, Note_on_c, 0, 71, 68
1, 449875, Control_c, 0, 64, 100
1, 449886, Note_on_c, 0, 63, 48
1, 449889, Note_on_c, 0, 59, 48
1, 449890, Control_c, 0, 64, 84
1, 449905, Control_c, 0, 64, 72
1, 449921, Control_c, 0, 64, 64
1, 449936, Control_c, 0, 64, 55
1, 449950, Control_c, 0, 64, 48
1, 449980, Control_c, 0, 64, 52
1, 449995, Control_c, 0, 64, 60
1, 450010, Control_c, 0, 64, 64
1, 450014, Note_off_c, 0, 71, 61
1, 450019, Note_on_c, 0, 53, 76
1, 450024, Control_c, 0, 64, 69
1, 450033, Note_off_c, 0, 59, 63
1, 450039, Control_c, 0, 64, 80
1, 450043, Note_off_c, 0, 54, 61
1, 450054, Control_c, 0, 64, 112
1, 450056, Note_off_c, 0, 63, 62
1, 450068, Control_c, 0, 64, 127
1, 450144, Note_on_c, 0, 52, 79
1, 450148, Note_on_c, 0, 63, 73
1, 450150, Note_on_c, 0, 59, 71
1, 450157, Note_on_c, 0, 56, 70
1, 450202, Control_c, 0, 64, 115
1, 450217, Control_c, 0, 64, 103
1, 450232, Control_c, 0, 64, 93
1, 450237, Note_off_c, 0, 56, 60
1, 450247, Control_c, 0, 64, 87
1, 450256, Note_off_c, 0, 59, 58
1, 450256, Note_on_c, 0, 51, 87
1, 450261, Control_c, 0, 64, 83
1, 450276, Note_off_c, 0, 63, 59
1, 450276, Control_c, 0, 64, 80
1, 450277, Note_off_c, 0, 53, 61
1, 450287, Note_off_c, 0, 52, 64
1, 450291, Control_c, 0, 64, 78
1, 450306, Control_c, 0, 64, 74
1, 450321, Control_c, 0, 64, 72
1, 450336, Control_c, 0, 64, 69
1, 450350, Control_c, 0, 64, 65
1, 450365, Control_c, 0, 64, 60
1, 450380, Control_c, 0, 64, 51
1, 450385, Note_on_c, 0, 50, 74
1, 450394, Control_c, 0, 64, 41
1, 450396, Note_on_c, 0, 62, 69
1, 450396, Note_on_c, 0, 66, 73
1, 450401, Note_on_c, 0, 59, 65
1, 450402, Note_on_c, 0, 42, 70
1, 450406, Note_off_c, 0, 51, 63
1, 450409, Control_c, 0, 64, 34
1, 450424, Control_c, 0, 64, 25
1, 450439, Control_c, 0, 64, 0
1, 450508, Note_off_c, 0, 42, 63
1, 450519, Note_on_c, 0, 41, 64
1, 450531, Note_off_c, 0, 62, 58
1, 450537, Note_off_c, 0, 59, 58
1, 450664, Note_on_c, 0, 40, 52
1, 450664, Note_off_c, 0, 41, 53
1, 450666, Note_on_c, 0, 62, 56
1, 450669, Note_on_c, 0, 59, 59
1, 450725, Note_off_c, 0, 59, 53
1, 450739, Note_off_c, 0, 62, 58
1, 450775, Note_off_c, 0, 40, 57
1, 450776, Note_on_c, 0, 39, 54
1, 450933, Note_on_c, 0, 38, 55
1, 450944, Note_on_c, 0, 62, 56
1, 450954, Note_on_c, 0, 57, 46
1, 450968, Note_off_c, 0, 39, 45
1, 451001, Note_off_c, 0, 57, 59
1, 451006, Note_off_c, 0, 62, 52
1, 451232, Note_on_c, 0, 62, 48
1, 451241, Note_on_c, 0, 57, 39
1, 451306, Note_off_c, 0, 57, 52
1, 451311, Note_off_c, 0, 62, 54
1, 451507, Note_on_c, 0, 62, 40
1, 451514, Note_on_c, 0, 57, 38
1, 451580, Note_off_c, 0, 62, 55
1, 451582, Note_off_c, 0, 57, 54
1, 451791, Note_on_c, 0, 57, 40
1, 451791, Note_on_c, 0, 62, 36
1, 451875, Note_off_c, 0, 57, 55
1, 451878, Note_off_c, 0, 62, 55
1, 451908, Control_c, 0, 64, 17
1, 451922, Control_c, 0, 64, 34
1, 451937, Control_c, 0, 64, 43
1, 451952, Control_c, 0, 64, 49
1, 451967, Control_c, 0, 64, 53
1, 451982, Control_c, 0, 64, 57
1, 451985, Note_off_c, 0, 38, 46
1, 451996, Control_c, 0, 64, 60
1, 452011, Control_c, 0, 64, 63
1, 452026, Control_c, 0, 64, 66
1, 452040, Control_c, 0, 64, 72
1, 452055, Control_c, 0, 64, 82
1, 452056, Note_off_c, 0, 50, 39
1, 452070, Control_c, 0, 64, 104
1, 452073, Note_on_c, 0, 62, 38
1, 452079, Note_on_c, 0, 57, 35
1, 452085, Control_c, 0, 64, 127
1, 452277, Note_off_c, 0, 62, 35
1, 452355, Note_off_c, 0, 57, 35
1, 452421, Note_on_c, 0, 58, 38
1, 452426, Note_on_c, 0, 64, 54
1, 452439, Note_on_c, 0, 62, 38
1, 452447, Note_on_c, 0, 61, 34
1, 452449, Control_c, 0, 64, 101
1, 452463, Control_c, 0, 64, 84
1, 452478, Control_c, 0, 64, 73
1, 452493, Control_c, 0, 64, 66
1, 452499, Note_off_c, 0, 66, 48
1, 452508, Control_c, 0, 64, 61
1, 452523, Control_c, 0, 64, 59
1, 452537, Control_c, 0, 64, 60
1, 452552, Control_c, 0, 64, 61
1, 452567, Control_c, 0, 64, 63
1, 452582, Control_c, 0, 64, 66
1, 452597, Control_c, 0, 64, 70
1, 452606, Note_off_c, 0, 62, 41
1, 452611, Control_c, 0, 64, 75
1, 452626, Control_c, 0, 64, 81
1, 452641, Control_c, 0, 64, 85
1, 452656, Control_c, 0, 64, 87
1, 452700, Control_c, 0, 64, 86
1, 452702, Note_off_c, 0, 58, 36
1, 452715, Control_c, 0, 64, 86
1, 452730, Control_c, 0, 64, 85
1, 452745, Control_c, 0, 64, 85
1, 452760, Control_c, 0, 64, 84
1, 452775, Control_c, 0, 64, 83
1, 452789, Control_c, 0, 64, 81
1, 452793, Note_on_c, 0, 62, 34
1, 452801, Note_on_c, 0, 59, 31
1, 452802, Note_on_c, 0, 66, 41
1, 452804, Control_c, 0, 64, 79
1, 452811, Note_on_c, 0, 57, 34
1, 452819, Control_c, 0, 64, 76
1, 452834, Control_c, 0, 64, 74
1, 452849, Control_c, 0, 64, 72
1, 452870, Control_c, 0, 64, 69
1, 452885, Control_c, 0, 64, 66
1, 452893, Note_off_c, 0, 64, 30
1, 452897, Note_off_c, 0, 61, 38
1, 452900, Control_c, 0, 64, 64
1, 452915, Control_c, 0, 64, 62
1, 452930, Control_c, 0, 64, 60
1, 452936, Note_off_c, 0, 62, 61
1, 452943, Note_on_c, 0, 54, 43
1, 452945, Control_c, 0, 64, 59
1, 452960, Control_c, 0, 64, 57
1, 452960, Note_off_c, 0, 59, 39
1, 452963, Note_off_c, 0, 66, 57
1, 452975, Control_c, 0, 64, 54
1, 452989, Control_c, 0, 64, 53
1, 453004, Control_c, 0, 64, 51
1, 453019, Control_c, 0, 64, 50
1, 453034, Control_c, 0, 64, 49
1, 453040, Note_off_c, 0, 57, 34
1, 453049, Control_c, 0, 64, 47
1, 453063, Control_c, 0, 64, 45
1, 453078, Control_c, 0, 64, 42
1, 453083, Note_on_c, 0, 68, 59
1, 453084, Note_on_c, 0, 59, 49
1, 453092, Note_on_c, 0, 47, 36
1, 453093, Control_c, 0, 64, 39
1, 453099, Note_on_c, 0, 63, 49
1, 453109, Control_c, 0, 64, 36
1, 453124, Control_c, 0, 64, 31
1, 453125, Note_off_c, 0, 54, 47
1, 453138, Control_c, 0, 64, 25
1, 453153, Control_c, 0, 64, 14
1, 453168, Control_c, 0, 64, 0
1, 453210, Note_off_c, 0, 59, 63
1, 453217, Note_off_c, 0, 63, 53
1, 453242, Note_off_c, 0, 68, 61
1, 453244, Note_off_c, 0, 47, 42
1, 453337, Note_on_c, 0, 69, 67
1, 453354, Note_on_c, 0, 64, 47
1, 453355, Note_on_c, 0, 57, 37
1, 453357, Note_on_c, 0, 61, 47
1, 453434, Note_off_c, 0, 57, 60
1, 453452, Note_off_c, 0, 64, 60
1, 453460, Note_on_c, 0, 47, 50
1, 453482, Note_off_c, 0, 61, 57
1, 453493, Note_off_c, 0, 69, 61
1, 453591, Note_off_c, 0, 47, 55
1, 453604, Note_on_c, 0, 71, 61
1, 453625, Note_on_c, 0, 66, 40
1, 453628, Note_on_c, 0, 42, 41
1, 453632, Note_on_c, 0, 62, 35
1, 453731, Note_off_c, 0, 71, 58
1, 453737, Note_off_c, 0, 66, 57
1, 453747, Note_off_c, 0, 42, 56
1, 453779, Note_off_c, 0, 62, 55
1, 453884, Note_on_c, 0, 69, 50
1, 453895, Note_on_c, 0, 37, 38
1, 453899, Note_on_c, 0, 64, 32
1, 453902, Note_on_c, 0, 68, 39
1, 454015, Note_off_c, 0, 68, 47
1, 454018, Note_on_c, 0, 40, 57
1, 454039, Note_off_c, 0, 69, 58
1, 454074, Note_off_c, 0, 37, 44
1, 454138, Note_on_c, 0, 45, 64
1, 454143, Note_on_c, 0, 69, 78
1, 454147, Note_on_c, 0, 66, 59
1, 454149, Note_on_c, 0, 62, 59
1, 454168, Note_off_c, 0, 40, 58
1, 454171, Note_off_c, 0, 64, 24
1, 454258, Note_on_c, 0, 49, 73
1, 454263, Note_off_c, 0, 45, 63
1, 454281, Note_off_c, 0, 69, 59
1, 454295, Note_off_c, 0, 62, 59
1, 454334, Note_off_c, 0, 66, 53
1, 454339, Note_off_c, 0, 49, 59
1, 454398, Note_on_c, 0, 69, 80
1, 454401, Note_on_c, 0, 64, 67
1, 454409, Note_on_c, 0, 53, 60
1, 454412, Note_on_c, 0, 52, 53
1, 454412, Note_on_c, 0, 62, 74
1, 454512, Note_off_c, 0, 52, 61
1, 454513, Note_off_c, 0, 53, 52
1, 454516, Note_on_c, 0, 57, 64
1, 454520, Note_off_c, 0, 64, 64
1, 454531, Note_off_c, 0, 62, 61
1, 454556, Note_off_c, 0, 69, 64
1, 454653, Note_on_c, 0, 73, 82
1, 454659, Note_off_c, 0, 57, 54
1, 454661, Note_on_c, 0, 61, 65
1, 454667, Note_on_c, 0, 63, 71
1, 454775, Note_off_c, 0, 61, 63
1, 454817, Note_off_c, 0, 73, 64
1, 454826, Note_off_c, 0, 63, 62
1, 454920, Note_on_c, 0, 66, 81
1, 454927, Note_on_c, 0, 62, 76
1, 454928, Note_on_c, 0, 59, 61
1, 455056, Note_off_c, 0, 59, 61
1, 455084, Note_off_c, 0, 66, 61
1, 455097, Note_off_c, 0, 62, 62
1, 455198, Note_on_c, 0, 61, 71
1, 455198, Note_on_c, 0, 67, 81
1, 455200, Note_on_c, 0, 58, 62
1, 455201, Note_on_c, 0, 52, 53
1, 455276, Note_off_c, 0, 58, 62
1, 455281, Control_c, 0, 64, 27
1, 455291, Note_off_c, 0, 52, 64
1, 455296, Control_c, 0, 64, 57
1, 455311, Control_c, 0, 64, 68
1, 455318, Note_off_c, 0, 67, 62
1, 455326, Control_c, 0, 64, 84
1, 455337, Note_off_c, 0, 61, 62
1, 455340, Control_c, 0, 64, 127
1, 455562, Note_on_c, 0, 38, 55
1, 455563, Control_c, 0, 64, 125
1, 455567, Note_on_c, 0, 62, 76
1, 455578, Control_c, 0, 64, 99
1, 455579, Note_on_c, 0, 54, 61
1, 455584, Note_on_c, 0, 61, 59
1, 455587, Note_on_c, 0, 57, 49
1, 455593, Control_c, 0, 64, 87
1, 455608, Control_c, 0, 64, 80
1, 455623, Control_c, 0, 64, 75
1, 455637, Control_c, 0, 64, 72
1, 455652, Control_c, 0, 64, 68
1, 455667, Control_c, 0, 64, 63
1, 455681, Control_c, 0, 64, 58
1, 455696, Control_c, 0, 64, 51
1, 455711, Control_c, 0, 64, 45
1, 455719, Note_off_c, 0, 61, 52
1, 455726, Control_c, 0, 64, 38
1, 455729, Note_on_c, 0, 37, 66
1, 455741, Control_c, 0, 64, 25
1, 455742, Note_off_c, 0, 57, 55
1, 455751, Note_off_c, 0, 54, 57
1, 455756, Control_c, 0, 64, 0
1, 455756, Note_off_c, 0, 38, 61
1, 455866, Note_on_c, 0, 61, 53
1, 455875, Note_on_c, 0, 57, 59
1, 455878, Note_off_c, 0, 37, 62
1, 455881, Note_on_c, 0, 54, 57
1, 455886, Note_on_c, 0, 36, 57
1, 455949, Note_off_c, 0, 57, 61
1, 455958, Note_off_c, 0, 61, 58
1, 455963, Note_off_c, 0, 54, 59
1, 455997, Note_on_c, 0, 35, 62
1, 456002, Note_off_c, 0, 36, 59
1, 456156, Note_on_c, 0, 34, 57
1, 456168, Note_on_c, 0, 58, 51
1, 456174, Note_on_c, 0, 53, 45
1, 456227, Note_off_c, 0, 58, 54
1, 456235, Note_off_c, 0, 35, 52
1, 456235, Note_off_c, 0, 53, 54
1, 456471, Note_on_c, 0, 58, 50
1, 456472, Note_on_c, 0, 53, 43
1, 456535, Note_off_c, 0, 58, 52
1, 456545, Note_off_c, 0, 53, 53
1, 456781, Note_on_c, 0, 53, 42
1, 456784, Note_on_c, 0, 58, 42
1, 456836, Control_c, 0, 64, 9
1, 456862, Note_off_c, 0, 58, 52
1, 456866, Control_c, 0, 64, 11
1, 456870, Note_off_c, 0, 53, 49
1, 456881, Control_c, 0, 64, 12
1, 456896, Control_c, 0, 64, 13
1, 456925, Control_c, 0, 64, 14
1, 456955, Control_c, 0, 64, 15
1, 456984, Control_c, 0, 64, 16
1, 456999, Control_c, 0, 64, 17
1, 457014, Control_c, 0, 64, 18
1, 457029, Control_c, 0, 64, 19
1, 457058, Control_c, 0, 64, 19
1, 457104, Note_on_c, 0, 53, 38
1, 457104, Note_on_c, 0, 58, 41
1, 457104, Control_c, 0, 64, 20
1, 457133, Control_c, 0, 64, 21
1, 457163, Control_c, 0, 64, 22
1, 457207, Control_c, 0, 64, 22
1, 457230, Note_off_c, 0, 53, 35
1, 457240, Note_off_c, 0, 58, 36
1, 457312, Control_c, 0, 64, 23
1, 457378, Control_c, 0, 64, 23
1, 457422, Control_c, 0, 64, 24
1, 457452, Control_c, 0, 64, 24
1, 457478, Note_on_c, 0, 58, 40
1, 457479, Note_on_c, 0, 53, 38
1, 457482, Control_c, 0, 64, 25
1, 457497, Control_c, 0, 64, 25
1, 457526, Control_c, 0, 64, 26
1, 457541, Control_c, 0, 64, 26
1, 457556, Control_c, 0, 64, 27
1, 457586, Control_c, 0, 64, 27
1, 457615, Control_c, 0, 64, 28
1, 457630, Control_c, 0, 64, 28
1, 457645, Control_c, 0, 64, 29
1, 457658, Note_off_c, 0, 53, 34
1, 457658, Note_off_c, 0, 58, 37
1, 457659, Control_c, 0, 64, 29
1, 457674, Control_c, 0, 64, 30
1, 457689, Control_c, 0, 64, 31
1, 457704, Control_c, 0, 64, 31
1, 457719, Control_c, 0, 64, 32
1, 457733, Control_c, 0, 64, 33
1, 457748, Control_c, 0, 64, 33
1, 457763, Control_c, 0, 64, 34
1, 457778, Control_c, 0, 64, 34
1, 457793, Control_c, 0, 64, 35
1, 457807, Control_c, 0, 64, 36
1, 457837, Control_c, 0, 64, 36
1, 457866, Control_c, 0, 64, 37
1, 457881, Control_c, 0, 64, 37
1, 457897, Control_c, 0, 64, 38
1, 457927, Control_c, 0, 64, 38
1, 457954, Note_on_c, 0, 58, 32
1, 457956, Note_on_c, 0, 53, 27
1, 457957, Control_c, 0, 64, 39
1, 457987, Control_c, 0, 64, 39
1, 458046, Control_c, 0, 64, 40
1, 458075, Control_c, 0, 64, 40
1, 458090, Control_c, 0, 64, 41
1, 458113, Control_c, 0, 64, 42
1, 458128, Control_c, 0, 64, 44
1, 458143, Control_c, 0, 64, 46
1, 458151, Note_off_c, 0, 53, 39
1, 458157, Control_c, 0, 64, 48
1, 458158, Note_off_c, 0, 58, 29
1, 458172, Control_c, 0, 64, 50
1, 458187, Control_c, 0, 64, 52
1, 458202, Control_c, 0, 64, 54
1, 458217, Control_c, 0, 64, 57
1, 458231, Control_c, 0, 64, 59
1, 458246, Control_c, 0, 64, 62
1, 458261, Control_c, 0, 64, 64
1, 458276, Control_c, 0, 64, 66
1, 458290, Control_c, 0, 64, 68
1, 458305, Control_c, 0, 64, 71
1, 458320, Control_c, 0, 64, 76
1, 458335, Control_c, 0, 64, 82
1, 458350, Control_c, 0, 64, 91
1, 458364, Control_c, 0, 64, 109
1, 458377, Note_off_c, 0, 34, 42
1, 458379, Control_c, 0, 64, 127
1, 458428, Note_off_c, 0, 62, 47
1, 458920, Control_c, 0, 64, 122
1, 458935, Control_c, 0, 64, 119
1, 458950, Control_c, 0, 64, 115
1, 458965, Control_c, 0, 64, 112
1, 458979, Control_c, 0, 64, 109
1, 458994, Control_c, 0, 64, 108
1, 459009, Control_c, 0, 64, 106
1, 459024, Control_c, 0, 64, 103
1, 459039, Control_c, 0, 64, 101
1, 459053, Control_c, 0, 64, 100
1, 459068, Control_c, 0, 64, 98
1, 459083, Control_c, 0, 64, 97
1, 459098, Control_c, 0, 64, 95
1, 459112, Control_c, 0, 64, 93
1, 459127, Control_c, 0, 64, 91
1, 459136, Note_on_c, 0, 58, 36
1, 459136, Note_on_c, 0, 70, 47
1, 459142, Control_c, 0, 64, 90
1, 459157, Control_c, 0, 64, 88
1, 459172, Control_c, 0, 64, 86
1, 459187, Control_c, 0, 64, 85
1, 459202, Control_c, 0, 64, 83
1, 459217, Control_c, 0, 64, 82
1, 459231, Control_c, 0, 64, 80
1, 459246, Control_c, 0, 64, 79
1, 459261, Control_c, 0, 64, 77
1, 459276, Control_c, 0, 64, 76
1, 459291, Control_c, 0, 64, 74
1, 459305, Control_c, 0, 64, 73
1, 459320, Control_c, 0, 64, 72
1, 459335, Control_c, 0, 64, 72
1, 459350, Control_c, 0, 64, 71
1, 459365, Control_c, 0, 64, 70
1, 459366, Note_on_c, 0, 60, 44
1, 459369, Note_on_c, 0, 72, 65
1, 459379, Control_c, 0, 64, 69
1, 459394, Control_c, 0, 64, 68
1, 459409, Control_c, 0, 64, 67
1, 459423, Control_c, 0, 64, 67
1, 459438, Control_c, 0, 64, 66
1, 459453, Control_c, 0, 64, 65
1, 459468, Control_c, 0, 64, 64
1, 459483, Control_c, 0, 64, 64
1, 459499, Control_c, 0, 64, 63
1, 459503, Note_off_c, 0, 70, 38
1, 459514, Control_c, 0, 64, 63
1, 459528, Control_c, 0, 64, 62
1, 459543, Control_c, 0, 64, 61
1, 459558, Control_c, 0, 64, 60
1, 459573, Control_c, 0, 64, 60
1, 459588, Control_c, 0, 64, 59
1, 459625, Control_c, 0, 64, 58
1, 459640, Control_c, 0, 64, 58
1, 459655, Control_c, 0, 64, 57
1, 459670, Control_c, 0, 64, 56
1, 459684, Control_c, 0, 64, 56
1, 459699, Control_c, 0, 64, 55
1, 459710, Note_on_c, 0, 73, 52
1, 459714, Control_c, 0, 64, 54
1, 459720, Note_on_c, 0, 70, 33
1, 459721, Note_on_c, 0, 61, 31
1, 459728, Control_c, 0, 64, 54
1, 459729, Note_on_c, 0, 65, 20
1, 459742, Note_off_c, 0, 58, 22
1, 459743, Control_c, 0, 64, 53
1, 459758, Control_c, 0, 64, 52
1, 459773, Control_c, 0, 64, 51
1, 459788, Control_c, 0, 64, 49
1, 459801, Note_off_c, 0, 72, 53
1, 459803, Control_c, 0, 64, 46
1, 459818, Control_c, 0, 64, 43
1, 459833, Control_c, 0, 64, 40
1, 459848, Control_c, 0, 64, 37
1, 459862, Control_c, 0, 64, 34
1, 459866, Note_off_c, 0, 60, 36
1, 459877, Control_c, 0, 64, 30
1, 459892, Control_c, 0, 64, 28
1, 459907, Control_c, 0, 64, 27
1, 459922, Control_c, 0, 64, 26
1, 459981, Control_c, 0, 64, 29
1, 459996, Control_c, 0, 64, 33
1, 460000, Note_off_c, 0, 65, 38
1, 460010, Control_c, 0, 64, 38
1, 460025, Control_c, 0, 64, 44
1, 460030, Note_off_c, 0, 70, 40
1, 460040, Control_c, 0, 64, 49
1, 460054, Control_c, 0, 64, 53
1, 460069, Control_c, 0, 64, 55
1, 460084, Control_c, 0, 64, 57
1, 460099, Control_c, 0, 64, 59
1, 460114, Control_c, 0, 64, 61
1, 460129, Control_c, 0, 64, 62
1, 460144, Control_c, 0, 64, 64
1, 460159, Control_c, 0, 64, 65
1, 460173, Control_c, 0, 64, 66
1, 460188, Control_c, 0, 64, 68
1, 460203, Control_c, 0, 64, 70
1, 460218, Control_c, 0, 64, 72
1, 460233, Control_c, 0, 64, 77
1, 460247, Control_c, 0, 64, 82
1, 460262, Control_c, 0, 64, 90
1, 460277, Control_c, 0, 64, 101
1, 460292, Control_c, 0, 64, 127
1, 460304, Note_on_c, 0, 70, 24
1, 460308, Note_on_c, 0, 65, 18
1, 460507, Note_off_c, 0, 61, 37
1, 460510, Note_on_c, 0, 75, 50
1, 460529, Note_on_c, 0, 63, 32
1, 460577, Note_off_c, 0, 73, 57
1, 460612, Note_off_c, 0, 65, 39
1, 460618, Note_off_c, 0, 70, 41
1, 460700, Control_c, 0, 64, 116
1, 460715, Control_c, 0, 64, 109
1, 460716, Note_on_c, 0, 73, 56
1, 460722, Note_on_c, 0, 61, 46
1, 460730, Control_c, 0, 64, 105
1, 460737, Note_off_c, 0, 63, 34
1, 460743, Note_on_c, 0, 70, 36
1, 460745, Control_c, 0, 64, 102
1, 460747, Note_on_c, 0, 65, 35
1, 460759, Control_c, 0, 64, 100
1, 460774, Control_c, 0, 64, 99
1, 460789, Control_c, 0, 64, 97
1, 460804, Control_c, 0, 64, 96
1, 460819, Control_c, 0, 64, 95
1, 460833, Control_c, 0, 64, 94
1, 460848, Control_c, 0, 64, 92
1, 460863, Control_c, 0, 64, 91
1, 460877, Control_c, 0, 64, 90
1, 460884, Note_on_c, 0, 60, 50
1, 460892, Control_c, 0, 64, 89
1, 460901, Note_on_c, 0, 72, 68
1, 460907, Control_c, 0, 64, 88
1, 460913, Note_off_c, 0, 75, 31
1, 460922, Note_off_c, 0, 65, 34
1, 460922, Control_c, 0, 64, 87
1, 460927, Note_off_c, 0, 73, 58
1, 460931, Note_off_c, 0, 61, 36
1, 460937, Control_c, 0, 64, 86
1, 460951, Control_c, 0, 64, 85
1, 460966, Control_c, 0, 64, 83
1, 460970, Note_off_c, 0, 70, 40
1, 460981, Control_c, 0, 64, 81
1, 460996, Control_c, 0, 64, 79
1, 461011, Control_c, 0, 64, 77
1, 461026, Control_c, 0, 64, 76
1, 461041, Control_c, 0, 64, 75
1, 461056, Control_c, 0, 64, 74
1, 461068, Note_on_c, 0, 61, 51
1, 461070, Control_c, 0, 64, 72
1, 461082, Note_on_c, 0, 73, 65
1, 461085, Control_c, 0, 64, 71
1, 461108, Control_c, 0, 64, 70
1, 461121, Note_off_c, 0, 72, 60
1, 461123, Control_c, 0, 64, 69
1, 461138, Control_c, 0, 64, 68
1, 461153, Control_c, 0, 64, 67
1, 461168, Control_c, 0, 64, 67
1, 461182, Control_c, 0, 64, 66
1, 461197, Control_c, 0, 64, 65
1, 461212, Control_c, 0, 64, 65
1, 461220, Note_off_c, 0, 60, 26
1, 461227, Control_c, 0, 64, 64
1, 461242, Control_c, 0, 64, 62
1, 461256, Note_on_c, 0, 64, 61
1, 461256, Control_c, 0, 64, 61
1, 461267, Note_on_c, 0, 76, 83
1, 461271, Note_off_c, 0, 73, 64
1, 461271, Control_c, 0, 64, 60
1, 461286, Control_c, 0, 64, 59
1, 461300, Control_c, 0, 64, 57
1, 461315, Control_c, 0, 64, 54
1, 461330, Control_c, 0, 64, 51
1, 461345, Note_off_c, 0, 61, 48
1, 461345, Control_c, 0, 64, 48
1, 461360, Control_c, 0, 64, 47
1, 461375, Control_c, 0, 64, 46
1, 461390, Control_c, 0, 64, 44
1, 461405, Control_c, 0, 64, 42
1, 461419, Control_c, 0, 64, 41
1, 461434, Control_c, 0, 64, 39
1, 461443, Note_on_c, 0, 79, 79
1, 461448, Note_off_c, 0, 64, 61
1, 461449, Control_c, 0, 64, 38
1, 461451, Note_on_c, 0, 67, 55
1, 461464, Control_c, 0, 64, 37
1, 461479, Control_c, 0, 64, 36
1, 461494, Control_c, 0, 64, 35
1, 461500, Note_off_c, 0, 76, 59
1, 461508, Control_c, 0, 64, 35
1, 461523, Control_c, 0, 64, 34
1, 461553, Control_c, 0, 64, 33
1, 461582, Control_c, 0, 64, 32
1, 461597, Control_c, 0, 64, 32
1, 461612, Control_c, 0, 64, 31
1, 461615, Note_on_c, 0, 83, 79
1, 461615, Note_off_c, 0, 67, 57
1, 461626, Note_on_c, 0, 71, 54
1, 461688, Note_off_c, 0, 79, 60
1, 461786, Note_on_c, 0, 86, 67
1, 461793, Note_off_c, 0, 71, 57
1, 461806, Note_on_c, 0, 74, 50
1, 461833, Note_off_c, 0, 83, 57
1, 461977, Note_on_c, 0, 83, 60
1, 461990, Note_on_c, 0, 71, 50
1, 462010, Note_off_c, 0, 74, 53
1, 462078, Note_off_c, 0, 86, 45
1, 462159, Note_on_c, 0, 79, 60
1, 462171, Note_on_c, 0, 67, 44
1, 462209, Note_off_c, 0, 71, 49
1, 462271, Note_off_c, 0, 83, 56
1, 462340, Note_on_c, 0, 76, 58
1, 462344, Note_on_c, 0, 64, 49
1, 462358, Note_off_c, 0, 67, 56
1, 462375, Note_off_c, 0, 79, 63
1, 462552, Note_on_c, 0, 70, 71
1, 462553, Note_on_c, 0, 58, 43
1, 462608, Note_off_c, 0, 76, 62
1, 462624, Note_off_c, 0, 64, 42
1, 462753, Note_on_c, 0, 73, 52
1, 462782, Note_off_c, 0, 73, 67
1, 462783, Note_on_c, 0, 60, 48
1, 462800, Note_on_c, 0, 72, 71
1, 462889, Note_off_c, 0, 58, 36
1, 462943, Note_off_c, 0, 70, 49
1, 463104, Note_on_c, 0, 61, 36
1, 463104, Note_on_c, 0, 73, 64
1, 463196, Note_off_c, 0, 60, 57
1, 463227, Note_off_c, 0, 72, 59
1, 463272, Control_c, 0, 64, 32
1, 463302, Control_c, 0, 64, 32
1, 463317, Control_c, 0, 64, 33
1, 463332, Control_c, 0, 64, 34
1, 463354, Control_c, 0, 64, 35
1, 463369, Control_c, 0, 64, 36
1, 463384, Control_c, 0, 64, 39
1, 463399, Control_c, 0, 64, 41
1, 463414, Control_c, 0, 64, 44
1, 463428, Control_c, 0, 64, 46
1, 463443, Control_c, 0, 64, 49
1, 463458, Control_c, 0, 64, 52
1, 463472, Control_c, 0, 64, 54
1, 463487, Control_c, 0, 64, 57
1, 463503, Control_c, 0, 64, 60
1, 463518, Control_c, 0, 64, 62
1, 463533, Control_c, 0, 64, 66
1, 463548, Control_c, 0, 64, 72
1, 463563, Control_c, 0, 64, 86
1, 463577, Control_c, 0, 64, 127
1, 463751, Note_on_c, 0, 70, 63
1, 463765, Note_on_c, 0, 58, 47
1, 463880, Note_off_c, 0, 61, 36
1, 463926, Note_off_c, 0, 73, 60
1, 463931, Note_on_c, 0, 66, 71
1, 463950, Note_on_c, 0, 54, 51
1, 464032, Note_off_c, 0, 58, 49
1, 464111, Note_on_c, 0, 63, 73
1, 464117, Note_off_c, 0, 54, 61
1, 464124, Note_on_c, 0, 51, 50
1, 464154, Note_off_c, 0, 51, 63
1, 464271, Note_off_c, 0, 66, 52
1, 464281, Control_c, 0, 64, 115
1, 464296, Control_c, 0, 64, 108
1, 464311, Control_c, 0, 64, 102
1, 464326, Control_c, 0, 64, 96
1, 464341, Control_c, 0, 64, 92
1, 464356, Control_c, 0, 64, 88
1, 464371, Control_c, 0, 64, 86
1, 464385, Control_c, 0, 64, 83
1, 464388, Note_off_c, 0, 70, 35
1, 464400, Control_c, 0, 64, 80
1, 464415, Control_c, 0, 64, 78
1, 464427, Note_on_c, 0, 47, 23
1, 464429, Note_on_c, 0, 35, 36
1, 464430, Control_c, 0, 64, 75
1, 464445, Control_c, 0, 64, 72
1, 464448, Note_on_c, 0, 59, 41
1, 464460, Control_c, 0, 64, 70
1, 464474, Control_c, 0, 64, 68
1, 464489, Control_c, 0, 64, 66
1, 464504, Control_c, 0, 64, 64
1, 464518, Control_c, 0, 64, 61
1, 464533, Control_c, 0, 64, 57
1, 464546, Note_off_c, 0, 63, 60
1, 464548, Control_c, 0, 64, 52
1, 464563, Control_c, 0, 64, 47
1, 464578, Control_c, 0, 64, 42
1, 464592, Control_c, 0, 64, 38
1, 464607, Control_c, 0, 64, 34
1, 464622, Control_c, 0, 64, 34
1, 464667, Control_c, 0, 64, 36
1, 464681, Control_c, 0, 64, 42
1, 464686, Note_on_c, 0, 61, 58
1, 464696, Control_c, 0, 64, 52
1, 464711, Control_c, 0, 64, 58
1, 464725, Control_c, 0, 64, 62
1, 464740, Control_c, 0, 64, 66
1, 464755, Control_c, 0, 64, 75
1, 464767, Note_off_c, 0, 35, 40
1, 464770, Control_c, 0, 64, 101
1, 464785, Control_c, 0, 64, 127
1, 464859, Note_on_c, 0, 62, 69
1, 464861, Note_off_c, 0, 47, 53
1, 464960, Note_off_c, 0, 59, 58
1, 465014, Note_on_c, 0, 48, 61
1, 465027, Note_off_c, 0, 61, 35
1, 465149, Control_c, 0, 64, 116
1, 465163, Control_c, 0, 64, 109
1, 465178, Control_c, 0, 64, 104
1, 465193, Control_c, 0, 64, 100
1, 465208, Control_c, 0, 64, 94
1, 465223, Control_c, 0, 64, 89
1, 465238, Note_on_c, 0, 61, 58
1, 465238, Control_c, 0, 64, 84
1, 465241, Note_on_c, 0, 49, 50
1, 465253, Control_c, 0, 64, 78
1, 465268, Control_c, 0, 64, 70
1, 465283, Control_c, 0, 64, 64
1, 465297, Control_c, 0, 64, 58
1, 465312, Control_c, 0, 64, 51
1, 465327, Control_c, 0, 64, 49
1, 465328, Note_off_c, 0, 48, 50
1, 465341, Control_c, 0, 64, 48
1, 465356, Control_c, 0, 64, 48
1, 465371, Control_c, 0, 64, 47
1, 465415, Control_c, 0, 64, 48
1, 465430, Control_c, 0, 64, 49
1, 465446, Control_c, 0, 64, 52
1, 465461, Control_c, 0, 64, 56
1, 465476, Control_c, 0, 64, 59
1, 465490, Control_c, 0, 64, 62
1, 465505, Control_c, 0, 64, 64
1, 465520, Control_c, 0, 64, 66
1, 465527, Note_off_c, 0, 61, 54
1, 465535, Control_c, 0, 64, 72
1, 465549, Control_c, 0, 64, 81
1, 465564, Control_c, 0, 64, 99
1, 465578, Note_on_c, 0, 54, 52
1, 465579, Control_c, 0, 64, 127
1, 465603, Note_on_c, 0, 50, 38
1, 465741, Note_on_c, 0, 48, 48
1, 465748, Note_off_c, 0, 54, 37
1, 465768, Note_off_c, 0, 49, 33
1, 465783, Note_off_c, 0, 50, 29
1, 465788, Note_off_c, 0, 48, 62
1, 465943, Control_c, 0, 64, 113
1, 465949, Note_on_c, 0, 35, 41
1, 465958, Control_c, 0, 64, 97
1, 465967, Note_on_c, 0, 47, 30
1, 465972, Control_c, 0, 64, 84
1, 465974, Note_on_c, 0, 54, 40
1, 465987, Control_c, 0, 64, 73
1, 465990, Note_on_c, 0, 50, 26
1, 466002, Control_c, 0, 64, 64
1, 466017, Control_c, 0, 64, 57
1, 466032, Control_c, 0, 64, 53
1, 466061, Control_c, 0, 64, 54
1, 466076, Control_c, 0, 64, 55
1, 466091, Control_c, 0, 64, 57
1, 466106, Control_c, 0, 64, 60
1, 466120, Control_c, 0, 64, 63
1, 466132, Note_off_c, 0, 50, 24
1, 466135, Note_off_c, 0, 54, 36
1, 466135, Control_c, 0, 64, 65
1, 466150, Control_c, 0, 64, 68
1, 466165, Control_c, 0, 64, 74
1, 466177, Note_off_c, 0, 35, 39
1, 466180, Control_c, 0, 64, 84
1, 466195, Control_c, 0, 64, 115
1, 466210, Control_c, 0, 64, 127
1, 466255, Note_off_c, 0, 47, 40
1, 466314, Note_on_c, 0, 54, 42
1, 466326, Note_on_c, 0, 50, 32
1, 466407, Note_off_c, 0, 50, 54
1, 466421, Note_off_c, 0, 54, 57
1, 466486, Note_on_c, 0, 48, 45
1, 466508, Note_off_c, 0, 62, 57
1, 466736, Control_c, 0, 64, 108
1, 466746, Note_on_c, 0, 61, 53
1, 466751, Control_c, 0, 64, 95
1, 466753, Note_on_c, 0, 49, 41
1, 466766, Control_c, 0, 64, 86
1, 466781, Control_c, 0, 64, 77
1, 466795, Control_c, 0, 64, 70
1, 466810, Control_c, 0, 64, 64
1, 466825, Control_c, 0, 64, 60
1, 466855, Control_c, 0, 64, 61
1, 466869, Control_c, 0, 64, 63
1, 466870, Note_off_c, 0, 48, 57
1, 466884, Control_c, 0, 64, 64
1, 466886, Note_on_c, 0, 53, 60
1, 466899, Control_c, 0, 64, 66
1, 466913, Control_c, 0, 64, 69
1, 466928, Control_c, 0, 64, 75
1, 466942, Control_c, 0, 64, 84
1, 466957, Control_c, 0, 64, 103
1, 466972, Control_c, 0, 64, 127
1, 466984, Note_on_c, 0, 62, 77
1, 466991, Note_off_c, 0, 53, 62
1, 467018, Note_off_c, 0, 61, 60
1, 467069, Note_on_c, 0, 66, 92
1, 467096, Note_off_c, 0, 62, 64
1, 467125, Note_off_c, 0, 66, 66
1, 467156, Note_on_c, 0, 48, 66
1, 467165, Note_on_c, 0, 65, 93
1, 467172, Note_off_c, 0, 49, 63
1, 467184, Note_off_c, 0, 48, 66
1, 467217, Note_off_c, 0, 65, 62
1, 467254, Note_on_c, 0, 74, 98
1, 467255, Note_on_c, 0, 78, 100
1, 467299, Note_off_c, 0, 74, 64
1, 467336, Note_off_c, 0, 78, 66
1, 467351, Note_on_c, 0, 47, 82
1, 467355, Note_on_c, 0, 35, 73
1, 467411, Note_on_c, 0, 77, 99
1, 467423, Control_c, 0, 64, 104
1, 467438, Control_c, 0, 64, 70
1, 467453, Control_c, 0, 64, 0
1, 467503, Note_on_c, 0, 90, 100
1, 467505, Note_on_c, 0, 86, 92
1, 467535, Note_off_c, 0, 77, 63
1, 467540, Note_off_c, 0, 35, 58
1, 467572, Control_c, 0, 64, 66
1, 467587, Control_c, 0, 64, 104
1, 467602, Control_c, 0, 64, 127
1, 467603, Note_off_c, 0, 90, 63
1, 467604, Note_off_c, 0, 86, 56
1, 467614, Note_off_c, 0, 47, 61
1, 467803, Note_on_c, 0, 82, 94
1, 467807, Note_on_c, 0, 75, 92
1, 467924, Note_off_c, 0, 75, 61
1, 467936, Note_on_c, 0, 72, 94
1, 467939, Note_on_c, 0, 48, 81
1, 467972, Note_off_c, 0, 82, 64
1, 468024, Note_on_c, 0, 73, 95
1, 468052, Note_off_c, 0, 72, 64
1, 468082, Note_off_c, 0, 73, 64
1, 468084, Control_c, 0, 64, 98
1, 468098, Control_c, 0, 64, 78
1, 468113, Control_c, 0, 64, 64
1, 468128, Control_c, 0, 64, 41
1, 468130, Note_on_c, 0, 74, 87
1, 468132, Note_on_c, 0, 78, 91
1, 468133, Note_on_c, 0, 49, 66
1, 468135, Note_on_c, 0, 61, 70
1, 468142, Control_c, 0, 64, 0
1, 468162, Note_off_c, 0, 48, 61
1, 468246, Control_c, 0, 64, 44
1, 468258, Note_off_c, 0, 74, 64
1, 468261, Control_c, 0, 64, 61
1, 468262, Note_off_c, 0, 78, 61
1, 468276, Control_c, 0, 64, 69
1, 468292, Control_c, 0, 64, 88
1, 468307, Control_c, 0, 64, 127
1, 468317, Note_off_c, 0, 61, 60
1, 468458, Note_off_c, 0, 49, 61
1, 468517, Note_on_c, 0, 53, 78
1, 468518, Note_on_c, 0, 66, 78
1, 468536, Note_on_c, 0, 62, 58
1, 468556, Note_on_c, 0, 61, 33
1, 468603, Note_off_c, 0, 61, 48
1, 468680, Note_on_c, 0, 48, 68
1, 468713, Note_off_c, 0, 48, 64
1, 468729, Control_c, 0, 64, 110
1, 468744, Control_c, 0, 64, 103
1, 468758, Control_c, 0, 64, 98
1, 468773, Control_c, 0, 64, 93
1, 468788, Control_c, 0, 64, 89
1, 468803, Control_c, 0, 64, 84
1, 468818, Control_c, 0, 64, 79
1, 468833, Control_c, 0, 64, 74
1, 468847, Control_c, 0, 64, 68
1, 468852, Note_on_c, 0, 47, 64
1, 468852, Note_off_c, 0, 53, 56
1, 468852, Note_off_c, 0, 66, 56
1, 468859, Note_on_c, 0, 35, 57
1, 468862, Control_c, 0, 64, 62
1, 468874, Note_off_c, 0, 62, 62
1, 468877, Control_c, 0, 64, 55
1, 468891, Control_c, 0, 64, 48
1, 468906, Control_c, 0, 64, 42
1, 468921, Control_c, 0, 64, 32
1, 468936, Control_c, 0, 64, 12
1, 468951, Control_c, 0, 64, 0
1, 469007, Note_on_c, 0, 66, 63
1, 469009, Note_on_c, 0, 62, 61
1, 469009, Note_on_c, 0, 53, 64
1, 469048, Note_off_c, 0, 62, 62
1, 469051, Note_off_c, 0, 53, 61
1, 469054, Note_off_c, 0, 66, 54
1, 469159, Control_c, 0, 64, 9
1, 469167, Note_off_c, 0, 35, 54
1, 469174, Control_c, 0, 64, 35
1, 469188, Control_c, 0, 64, 47
1, 469198, Note_on_c, 0, 66, 51
1, 469203, Control_c, 0, 64, 54
1, 469204, Note_on_c, 0, 62, 43
1, 469213, Note_on_c, 0, 53, 37
1, 469213, Note_off_c, 0, 47, 60
1, 469218, Control_c, 0, 64, 59
1, 469233, Control_c, 0, 64, 63
1, 469248, Control_c, 0, 64, 67
1, 469262, Control_c, 0, 64, 77
1, 469277, Control_c, 0, 64, 96
1, 469292, Control_c, 0, 64, 127
1, 469381, Note_on_c, 0, 48, 52
1, 469414, Note_off_c, 0, 66, 49
1, 469421, Note_off_c, 0, 62, 49
1, 469479, Note_off_c, 0, 53, 36
1, 469612, Note_on_c, 0, 61, 50
1, 469641, Control_c, 0, 64, 103
1, 469656, Control_c, 0, 64, 89
1, 469670, Control_c, 0, 64, 79
1, 469678, Note_on_c, 0, 49, 39
1, 469685, Control_c, 0, 64, 71
1, 469700, Control_c, 0, 64, 64
1, 469714, Control_c, 0, 64, 57
1, 469725, Note_off_c, 0, 48, 57
1, 469729, Control_c, 0, 64, 49
1, 469744, Control_c, 0, 64, 46
1, 469803, Control_c, 0, 64, 47
1, 469818, Control_c, 0, 64, 50
1, 469833, Control_c, 0, 64, 54
1, 469848, Control_c, 0, 64, 57
1, 469862, Control_c, 0, 64, 60
1, 469877, Control_c, 0, 64, 63
1, 469893, Control_c, 0, 64, 65
1, 469908, Control_c, 0, 64, 69
1, 469923, Control_c, 0, 64, 75
1, 469927, Note_off_c, 0, 61, 54
1, 469935, Note_on_c, 0, 62, 65
1, 469938, Control_c, 0, 64, 87
1, 469946, Note_on_c, 0, 53, 57
1, 469953, Control_c, 0, 64, 127
1, 470102, Note_on_c, 0, 48, 48
1, 470111, Note_off_c, 0, 53, 48
1, 470132, Note_off_c, 0, 48, 62
1, 470165, Note_off_c, 0, 49, 37
1, 470422, Note_on_c, 0, 47, 33
1, 470430, Note_on_c, 0, 35, 38
1, 470440, Note_on_c, 0, 69, 53
1, 470450, Note_on_c, 0, 66, 39
1, 470464, Control_c, 0, 64, 106
1, 470478, Control_c, 0, 64, 93
1, 470493, Control_c, 0, 64, 82
1, 470508, Control_c, 0, 64, 74
1, 470523, Control_c, 0, 64, 66
1, 470537, Control_c, 0, 64, 58
1, 470544, Note_off_c, 0, 62, 54
1, 470552, Control_c, 0, 64, 47
1, 470567, Control_c, 0, 64, 38
1, 470582, Control_c, 0, 64, 36
1, 470656, Control_c, 0, 64, 41
1, 470671, Control_c, 0, 64, 49
1, 470687, Control_c, 0, 64, 55
1, 470702, Control_c, 0, 64, 59
1, 470716, Control_c, 0, 64, 62
1, 470731, Control_c, 0, 64, 65
1, 470738, Note_off_c, 0, 35, 41
1, 470746, Control_c, 0, 64, 68
1, 470760, Control_c, 0, 64, 74
1, 470775, Control_c, 0, 64, 86
1, 470790, Control_c, 0, 64, 112
1, 470805, Control_c, 0, 64, 127
1, 470854, Note_off_c, 0, 47, 39
1, 470890, Note_on_c, 0, 62, 44
1, 470905, Note_on_c, 0, 53, 37
1, 470955, Note_off_c, 0, 69, 34
1, 471003, Note_off_c, 0, 53, 54
1, 471056, Note_on_c, 0, 48, 54
1, 471063, Note_off_c, 0, 66, 39
1, 471206, Note_off_c, 0, 62, 34
1, 471212, Control_c, 0, 64, 113
1, 471227, Control_c, 0, 64, 105
1, 471237, Note_on_c, 0, 49, 63
1, 471238, Note_on_c, 0, 61, 66
1, 471242, Control_c, 0, 64, 97
1, 471256, Control_c, 0, 64, 88
1, 471271, Control_c, 0, 64, 79
1, 471286, Control_c, 0, 64, 72
1, 471301, Control_c, 0, 64, 65
1, 471314, Note_off_c, 0, 48, 38
1, 471316, Control_c, 0, 64, 56
1, 471331, Control_c, 0, 64, 48
1, 471346, Control_c, 0, 64, 45
1, 471390, Control_c, 0, 64, 46
1, 471405, Control_c, 0, 64, 51
1, 471420, Control_c, 0, 64, 55
1, 471434, Control_c, 0, 64, 59
1, 471449, Control_c, 0, 64, 62
1, 471464, Control_c, 0, 64, 65
1, 471480, Control_c, 0, 64, 68
1, 471495, Control_c, 0, 64, 75
1, 471510, Control_c, 0, 64, 89
1, 471525, Control_c, 0, 64, 127
1, 471561, Note_on_c, 0, 69, 75
1, 471567, Note_on_c, 0, 66, 73
1, 471625, Note_off_c, 0, 49, 59
1, 471628, Note_off_c, 0, 61, 60
1, 471629, Poly_aftertouch_c, 0, 51, 127
1, 471663, Poly_aftertouch_c, 0, 51, 0
1, 471715, Note_on_c, 0, 50, 69
1, 471813, Control_c, 0, 64, 104
1, 471828, Control_c, 0, 64, 87
1, 471843, Control_c, 0, 64, 77
1, 471857, Control_c, 0, 64, 69
1, 471872, Control_c, 0, 64, 62
1, 471887, Control_c, 0, 64, 52
1, 471896, Note_on_c, 0, 64, 82
1, 471900, Note_on_c, 0, 52, 54
1, 471902, Control_c, 0, 64, 44
1, 471917, Control_c, 0, 64, 40
1, 471931, Control_c, 0, 64, 39
1, 471946, Control_c, 0, 64, 38
1, 471961, Control_c, 0, 64, 36
1, 471968, Note_on_c, 0, 53, 3
1, 471969, Note_off_c, 0, 53, 127
1, 471972, Note_off_c, 0, 50, 35
1, 471976, Control_c, 0, 64, 35
1, 471990, Control_c, 0, 64, 36
1, 472005, Note_off_c, 0, 69, 60
1, 472005, Control_c, 0, 64, 46
1, 472014, Note_off_c, 0, 66, 61
1, 472020, Control_c, 0, 64, 58
1, 472035, Control_c, 0, 64, 64
1, 472050, Control_c, 0, 64, 73
1, 472064, Control_c, 0, 64, 100
1, 472079, Control_c, 0, 64, 127
1, 472216, Note_on_c, 0, 81, 88
1, 472221, Note_on_c, 0, 78, 81
1, 472240, Note_off_c, 0, 52, 53
1, 472305, Note_off_c, 0, 64, 56
1, 472481, Note_off_c, 0, 81, 57
1, 472496, Note_off_c, 0, 78, 54
1, 472548, Note_on_c, 0, 65, 79
1, 472556, Note_on_c, 0, 53, 69
1, 472621, Control_c, 0, 64, 107
1, 472636, Control_c, 0, 64, 97
1, 472651, Control_c, 0, 64, 91
1, 472666, Control_c, 0, 64, 85
1, 472680, Control_c, 0, 64, 80
1, 472695, Control_c, 0, 64, 75
1, 472710, Control_c, 0, 64, 70
1, 472725, Control_c, 0, 64, 67
1, 472739, Control_c, 0, 64, 63
1, 472754, Control_c, 0, 64, 60
1, 472769, Control_c, 0, 64, 58
1, 472784, Control_c, 0, 64, 58
1, 472799, Control_c, 0, 64, 57
1, 472813, Control_c, 0, 64, 56
1, 472828, Control_c, 0, 64, 54
1, 472843, Control_c, 0, 64, 51
1, 472858, Control_c, 0, 64, 50
1, 472902, Control_c, 0, 64, 48
1, 472917, Control_c, 0, 64, 47
1, 472932, Control_c, 0, 64, 46
1, 472947, Control_c, 0, 64, 46
1, 472976, Note_on_c, 0, 86, 65
1, 472976, Control_c, 0, 64, 45
1, 472981, Note_on_c, 0, 93, 68
1, 472991, Control_c, 0, 64, 44
1, 473006, Control_c, 0, 64, 44
1, 473021, Control_c, 0, 64, 43
1, 473036, Control_c, 0, 64, 43
1, 473066, Control_c, 0, 64, 42
1, 473094, Note_off_c, 0, 53, 52
1, 473118, Control_c, 0, 64, 42
1, 473133, Control_c, 0, 64, 41
1, 473162, Control_c, 0, 64, 41
1, 473177, Control_c, 0, 64, 40
1, 473222, Control_c, 0, 64, 40
1, 473251, Control_c, 0, 64, 39
1, 473296, Control_c, 0, 64, 39
1, 473325, Control_c, 0, 64, 38
1, 473395, Note_on_c, 0, 53, 36
1, 473406, Note_on_c, 0, 56, 39
1, 473415, Control_c, 0, 64, 38
1, 473622, Control_c, 0, 64, 37
1, 473736, Note_on_c, 0, 57, 31
1, 473756, Note_on_c, 0, 54, 32
1, 473775, Note_off_c, 0, 56, 31
1, 473883, Note_off_c, 0, 54, 36
1, 473904, Note_off_c, 0, 53, 32
1, 473910, Note_off_c, 0, 57, 33
1, 474092, Note_on_c, 0, 57, 33
1, 474108, Note_on_c, 0, 54, 32
1, 474178, Control_c, 0, 64, 38
1, 474208, Control_c, 0, 64, 38
1, 474224, Note_on_c, 0, 90, 48
1, 474224, Note_off_c, 0, 54, 37
1, 474237, Control_c, 0, 64, 39
1, 474252, Control_c, 0, 64, 39
1, 474267, Control_c, 0, 64, 40
1, 474275, Note_off_c, 0, 57, 42
1, 474282, Control_c, 0, 64, 40
1, 474297, Control_c, 0, 64, 41
1, 474312, Control_c, 0, 64, 41
1, 474326, Control_c, 0, 64, 42
1, 474341, Control_c, 0, 64, 43
1, 474342, Note_off_c, 0, 93, 50
1, 474356, Control_c, 0, 64, 44
1, 474371, Control_c, 0, 64, 46
1, 474380, Note_on_c, 0, 57, 41
1, 474385, Control_c, 0, 64, 48
1, 474392, Note_on_c, 0, 81, 65
1, 474397, Note_on_c, 0, 54, 34
1, 474400, Control_c, 0, 64, 49
1, 474402, Note_off_c, 0, 86, 63
1, 474404, Note_off_c, 0, 90, 61
1, 474415, Control_c, 0, 64, 51
1, 474430, Control_c, 0, 64, 54
1, 474445, Control_c, 0, 64, 56
1, 474459, Control_c, 0, 64, 58
1, 474474, Control_c, 0, 64, 61
1, 474488, Note_off_c, 0, 54, 50
1, 474489, Control_c, 0, 64, 64
1, 474494, Note_off_c, 0, 65, 56
1, 474504, Control_c, 0, 64, 66
1, 474519, Control_c, 0, 64, 70
1, 474532, Note_on_c, 0, 78, 79
1, 474533, Control_c, 0, 64, 77
1, 474547, Note_off_c, 0, 81, 63
1, 474548, Control_c, 0, 64, 88
1, 474563, Control_c, 0, 64, 107
1, 474585, Control_c, 0, 64, 127
1, 474720, Control_c, 0, 64, 116
1, 474735, Control_c, 0, 64, 107
1, 474750, Control_c, 0, 64, 100
1, 474751, Note_on_c, 0, 62, 47
1, 474753, Note_on_c, 0, 81, 69
1, 474754, Note_on_c, 0, 74, 56
1, 474764, Note_on_c, 0, 68, 58
1, 474764, Control_c, 0, 64, 90
1, 474767, Note_on_c, 0, 56, 32
1, 474771, Note_on_c, 0, 54, 34
1, 474779, Control_c, 0, 64, 81
1, 474794, Control_c, 0, 64, 73
1, 474795, Note_off_c, 0, 78, 52
1, 474802, Note_off_c, 0, 57, 29
1, 474808, Control_c, 0, 64, 66
1, 474823, Control_c, 0, 64, 58
1, 474838, Control_c, 0, 64, 47
1, 474853, Control_c, 0, 64, 39
1, 474882, Control_c, 0, 64, 41
1, 474897, Control_c, 0, 64, 49
1, 474912, Control_c, 0, 64, 58
1, 474927, Control_c, 0, 64, 63
1, 474942, Control_c, 0, 64, 67
1, 474952, Note_off_c, 0, 54, 42
1, 474956, Control_c, 0, 64, 73
1, 474971, Control_c, 0, 64, 82
1, 474986, Control_c, 0, 64, 93
1, 475000, Control_c, 0, 64, 107
1, 475011, Note_off_c, 0, 68, 55
1, 475015, Control_c, 0, 64, 113
1, 475030, Control_c, 0, 64, 112
1, 475045, Control_c, 0, 64, 108
1, 475060, Control_c, 0, 64, 103
1, 475075, Control_c, 0, 64, 99
1, 475090, Control_c, 0, 64, 95
1, 475105, Control_c, 0, 64, 91
1, 475112, Note_on_c, 0, 57, 39
1, 475120, Control_c, 0, 64, 85
1, 475126, Note_on_c, 0, 69, 50
1, 475128, Note_on_c, 0, 54, 24
1, 475135, Control_c, 0, 64, 78
1, 475149, Control_c, 0, 64, 74
1, 475161, Note_off_c, 0, 56, 38
1, 475164, Control_c, 0, 64, 71
1, 475179, Control_c, 0, 64, 70
1, 475194, Control_c, 0, 64, 69
1, 475208, Control_c, 0, 64, 67
1, 475215, Note_off_c, 0, 74, 54
1, 475223, Control_c, 0, 64, 66
1, 475224, Note_off_c, 0, 81, 35
1, 475238, Control_c, 0, 64, 65
1, 475253, Control_c, 0, 64, 64
1, 475266, Note_off_c, 0, 54, 34
1, 475268, Control_c, 0, 64, 62
1, 475282, Control_c, 0, 64, 60
1, 475287, Note_off_c, 0, 57, 31
1, 475334, Control_c, 0, 64, 60
1, 475349, Control_c, 0, 64, 59
1, 475364, Control_c, 0, 64, 57
1, 475379, Control_c, 0, 64, 56
1, 475408, Control_c, 0, 64, 55
1, 475423, Control_c, 0, 64, 54
1, 475438, Control_c, 0, 64, 53
1, 475451, Note_on_c, 0, 57, 47
1, 475453, Control_c, 0, 64, 50
1, 475454, Note_off_c, 0, 62, 57
1, 475468, Control_c, 0, 64, 48
1, 475469, Note_on_c, 0, 54, 35
1, 475483, Control_c, 0, 64, 47
1, 475498, Control_c, 0, 64, 46
1, 475513, Control_c, 0, 64, 46
1, 475543, Control_c, 0, 64, 45
1, 475545, Note_off_c, 0, 57, 58
1, 475558, Control_c, 0, 64, 43
1, 475573, Control_c, 0, 64, 42
1, 475579, Note_off_c, 0, 54, 36
1, 475585, Note_on_c, 0, 66, 62
1, 475587, Control_c, 0, 64, 42
1, 475588, Note_off_c, 0, 69, 59
1, 475602, Control_c, 0, 64, 41
1, 475617, Control_c, 0, 64, 41
1, 475631, Control_c, 0, 64, 40
1, 475646, Control_c, 0, 64, 40
1, 475661, Control_c, 0, 64, 39
1, 475676, Control_c, 0, 64, 38
1, 475691, Control_c, 0, 64, 38
1, 475757, Note_on_c, 0, 57, 51
1, 475759, Note_off_c, 0, 66, 63
1, 475763, Note_on_c, 0, 54, 43
1, 475767, Note_on_c, 0, 62, 66
1, 475779, Control_c, 0, 64, 38
1, 475794, Control_c, 0, 64, 43
1, 475800, Note_off_c, 0, 57, 63
1, 475809, Control_c, 0, 64, 49
1, 475822, Note_off_c, 0, 54, 61
1, 475823, Control_c, 0, 64, 54
1, 475838, Control_c, 0, 64, 58
1, 475853, Control_c, 0, 64, 61
1, 475868, Note_off_c, 0, 62, 56
1, 475868, Control_c, 0, 64, 64
1, 475883, Control_c, 0, 64, 66
1, 475898, Control_c, 0, 64, 70
1, 475909, Note_on_c, 0, 57, 69
1, 475913, Control_c, 0, 64, 75
1, 475928, Control_c, 0, 64, 82
1, 475942, Control_c, 0, 64, 90
1, 475957, Control_c, 0, 64, 96
1, 475972, Control_c, 0, 64, 100
1, 475973, Note_off_c, 0, 57, 62
1, 476031, Control_c, 0, 64, 100
1, 476098, Control_c, 0, 64, 99
1, 476112, Control_c, 0, 64, 98
1, 476118, Note_on_c, 0, 38, 64
1, 476122, Note_on_c, 0, 57, 55
1, 476127, Control_c, 0, 64, 96
1, 476128, Note_on_c, 0, 54, 48
1, 476142, Control_c, 0, 64, 95
1, 476157, Control_c, 0, 64, 92
1, 476172, Control_c, 0, 64, 88
1, 476187, Control_c, 0, 64, 85
1, 476202, Control_c, 0, 64, 82
1, 476217, Control_c, 0, 64, 80
1, 476231, Control_c, 0, 64, 78
1, 476246, Control_c, 0, 64, 75
1, 476261, Control_c, 0, 64, 74
1, 476275, Note_off_c, 0, 57, 55
1, 476276, Control_c, 0, 64, 72
1, 476279, Note_on_c, 0, 40, 76
1, 476291, Control_c, 0, 64, 69
1, 476306, Control_c, 0, 64, 68
1, 476315, Note_off_c, 0, 54, 33
1, 476321, Control_c, 0, 64, 67
1, 476336, Control_c, 0, 64, 66
1, 476351, Control_c, 0, 64, 65
1, 476366, Control_c, 0, 64, 63
1, 476381, Control_c, 0, 64, 60
1, 476393, Note_off_c, 0, 38, 46
1, 476396, Control_c, 0, 64, 59
1, 476410, Control_c, 0, 64, 58
1, 476425, Control_c, 0, 64, 58
1, 476440, Control_c, 0, 64, 57
1, 476454, Control_c, 0, 64, 55
1, 476469, Control_c, 0, 64, 53
1, 476484, Control_c, 0, 64, 52
1, 476499, Control_c, 0, 64, 51
1, 476514, Control_c, 0, 64, 51
1, 476523, Note_on_c, 0, 41, 69
1, 476524, Note_on_c, 0, 57, 38
1, 476528, Control_c, 0, 64, 50
1, 476534, Note_on_c, 0, 53, 41
1, 476543, Control_c, 0, 64, 50
1, 476558, Control_c, 0, 64, 49
1, 476572, Control_c, 0, 64, 49
1, 476587, Control_c, 0, 64, 48
1, 476602, Control_c, 0, 64, 48
1, 476632, Control_c, 0, 64, 47
1, 476661, Control_c, 0, 64, 47
1, 476662, Note_off_c, 0, 57, 56
1, 476666, Note_off_c, 0, 40, 58
1, 476692, Control_c, 0, 64, 46
1, 476713, Note_off_c, 0, 53, 47
1, 476873, Note_on_c, 0, 53, 53
1, 476879, Note_on_c, 0, 57, 60
1, 476984, Note_off_c, 0, 53, 48
1, 476986, Note_off_c, 0, 57, 61
1, 477014, Note_on_c, 0, 43, 70
1, 477086, Note_off_c, 0, 41, 62
1, 477175, Note_on_c, 0, 57, 70
1, 477177, Note_on_c, 0, 45, 75
1, 477178, Note_on_c, 0, 53, 63
1, 477200, Note_off_c, 0, 43, 63
1, 477275, Note_off_c, 0, 53, 63
1, 477287, Note_off_c, 0, 57, 64
1, 477308, Control_c, 0, 64, 46
1, 477316, Note_on_c, 0, 47, 81
1, 477352, Control_c, 0, 64, 45
1, 477378, Note_off_c, 0, 45, 58
1, 477411, Control_c, 0, 64, 45
1, 477454, Control_c, 0, 64, 44
1, 477484, Control_c, 0, 64, 44
1, 477498, Control_c, 0, 64, 43
1, 477500, Note_on_c, 0, 48, 66
1, 477513, Note_on_c, 0, 57, 63
1, 477522, Note_on_c, 0, 54, 59
1, 477528, Control_c, 0, 64, 43
1, 477543, Control_c, 0, 64, 42
1, 477558, Control_c, 0, 64, 41
1, 477580, Control_c, 0, 64, 41
1, 477595, Control_c, 0, 64, 40
1, 477613, Note_off_c, 0, 47, 55
1, 477624, Control_c, 0, 64, 40
1, 477654, Control_c, 0, 64, 39
1, 477669, Control_c, 0, 64, 39
1, 477673, Note_on_c, 0, 59, 78
1, 477683, Control_c, 0, 64, 38
1, 477698, Control_c, 0, 64, 38
1, 477722, Note_off_c, 0, 57, 60
1, 477728, Control_c, 0, 64, 37
1, 477737, Note_off_c, 0, 54, 56
1, 477758, Control_c, 0, 64, 36
1, 477773, Control_c, 0, 64, 36
1, 477788, Control_c, 0, 64, 35
1, 477802, Control_c, 0, 64, 35
1, 477832, Control_c, 0, 64, 34
1, 477859, Note_on_c, 0, 61, 75
1, 477895, Note_on_c, 0, 57, 51
1, 477898, Note_on_c, 0, 54, 37
1, 477905, Note_off_c, 0, 59, 63
1, 477965, Note_off_c, 0, 54, 53
1, 478017, Note_off_c, 0, 57, 36
1, 478025, Control_c, 0, 64, 35
1, 478040, Control_c, 0, 64, 36
1, 478055, Control_c, 0, 64, 36
1, 478070, Control_c, 0, 64, 37
1, 478085, Control_c, 0, 64, 39
1, 478099, Control_c, 0, 64, 41
1, 478114, Control_c, 0, 64, 45
1, 478129, Control_c, 0, 64, 50
1, 478144, Control_c, 0, 64, 54
1, 478159, Control_c, 0, 64, 58
1, 478173, Control_c, 0, 64, 61
1, 478188, Control_c, 0, 64, 63
1, 478189, Note_on_c, 0, 54, 53
1, 478195, Note_on_c, 0, 57, 54
1, 478203, Control_c, 0, 64, 67
1, 478217, Control_c, 0, 64, 74
1, 478232, Control_c, 0, 64, 87
1, 478247, Control_c, 0, 64, 111
1, 478258, Note_off_c, 0, 54, 56
1, 478262, Control_c, 0, 64, 127
1, 478329, Note_off_c, 0, 57, 55
1, 478348, Note_on_c, 0, 62, 68
1, 478389, Note_off_c, 0, 61, 60
1, 478462, Control_c, 0, 64, 125
1, 478476, Note_on_c, 0, 49, 56
1, 478477, Control_c, 0, 64, 110
1, 478488, Note_on_c, 0, 57, 51
1, 478492, Control_c, 0, 64, 104
1, 478503, Note_on_c, 0, 61, 76
1, 478503, Note_on_c, 0, 54, 56
1, 478506, Control_c, 0, 64, 98
1, 478521, Control_c, 0, 64, 93
1, 478524, Note_off_c, 0, 62, 58
1, 478536, Control_c, 0, 64, 89
1, 478542, Note_off_c, 0, 48, 38
1, 478551, Control_c, 0, 64, 85
1, 478566, Control_c, 0, 64, 82
1, 478581, Control_c, 0, 64, 78
1, 478595, Control_c, 0, 64, 75
1, 478610, Control_c, 0, 64, 72
1, 478625, Control_c, 0, 64, 69
1, 478640, Note_off_c, 0, 57, 50
1, 478640, Control_c, 0, 64, 66
1, 478655, Note_on_c, 0, 60, 70
1, 478655, Control_c, 0, 64, 62
1, 478667, Note_off_c, 0, 54, 56
1, 478670, Control_c, 0, 64, 58
1, 478685, Note_off_c, 0, 61, 60
1, 478685, Control_c, 0, 64, 57
1, 478700, Control_c, 0, 64, 56
1, 478730, Control_c, 0, 64, 55
1, 478744, Control_c, 0, 64, 55
1, 478759, Control_c, 0, 64, 54
1, 478774, Control_c, 0, 64, 54
1, 478789, Control_c, 0, 64, 53
1, 478810, Note_on_c, 0, 50, 48
1, 478810, Note_on_c, 0, 57, 39
1, 478819, Control_c, 0, 64, 53
1, 478825, Note_on_c, 0, 54, 42
1, 478836, Note_on_c, 0, 61, 59
1, 478878, Control_c, 0, 64, 52
1, 478904, Note_off_c, 0, 60, 51
1, 478952, Control_c, 0, 64, 52
1, 478984, Note_on_c, 0, 66, 74
1, 478996, Control_c, 0, 64, 51
1, 479010, Note_off_c, 0, 57, 56
1, 479025, Note_off_c, 0, 49, 29
1, 479025, Note_off_c, 0, 54, 36
1, 479040, Control_c, 0, 64, 51
1, 479044, Note_off_c, 0, 61, 59
1, 479093, Control_c, 0, 64, 50
1, 479137, Control_c, 0, 64, 50
1, 479138, Note_on_c, 0, 69, 80
1, 479140, Note_on_c, 0, 57, 62
1, 479141, Note_on_c, 0, 54, 58
1, 479226, Control_c, 0, 64, 49
1, 479278, Note_off_c, 0, 57, 58
1, 479281, Note_off_c, 0, 54, 59
1, 479290, Note_on_c, 0, 71, 84
1, 479315, Control_c, 0, 64, 49
1, 479320, Note_off_c, 0, 66, 25
1, 479366, Note_off_c, 0, 69, 58
1, 479388, Control_c, 0, 64, 48
1, 479430, Note_on_c, 0, 57, 60
1, 479436, Note_on_c, 0, 54, 54
1, 479440, Note_on_c, 0, 64, 83
1, 479476, Note_off_c, 0, 71, 60
1, 479552, Note_off_c, 0, 57, 53
1, 479574, Note_on_c, 0, 65, 88
1, 479584, Note_off_c, 0, 54, 53
1, 479614, Note_off_c, 0, 64, 62
1, 479710, Note_on_c, 0, 57, 61
1, 479712, Note_on_c, 0, 48, 59
1, 479716, Note_on_c, 0, 54, 60
1, 479728, Note_on_c, 0, 66, 80
1, 479740, Note_off_c, 0, 50, 63
1, 479767, Note_off_c, 0, 65, 62
1, 479774, Control_c, 0, 64, 49
1, 479788, Control_c, 0, 64, 51
1, 479803, Control_c, 0, 64, 56
1, 479826, Control_c, 0, 64, 61
1, 479837, Note_off_c, 0, 54, 63
1, 479841, Control_c, 0, 64, 65
1, 479856, Control_c, 0, 64, 71
1, 479871, Control_c, 0, 64, 88
1, 479874, Note_on_c, 0, 69, 92
1, 479875, Note_off_c, 0, 66, 61
1, 479879, Note_off_c, 0, 57, 57
1, 479885, Control_c, 0, 64, 127
1, 480023, Note_on_c, 0, 47, 50
1, 480028, Note_on_c, 0, 57, 44
1, 480035, Note_on_c, 0, 53, 49
1, 480063, Control_c, 0, 64, 95
1, 480069, Note_on_c, 0, 74, 80
1, 480077, Control_c, 0, 64, 83
1, 480084, Note_off_c, 0, 48, 54
1, 480092, Control_c, 0, 64, 75
1, 480107, Control_c, 0, 64, 69
1, 480111, Note_off_c, 0, 69, 61
1, 480122, Control_c, 0, 64, 63
1, 480137, Control_c, 0, 64, 57
1, 480151, Control_c, 0, 64, 51
1, 480166, Control_c, 0, 64, 50
1, 480181, Control_c, 0, 64, 49
1, 480196, Control_c, 0, 64, 48
1, 480211, Control_c, 0, 64, 47
1, 480220, Note_off_c, 0, 57, 54
1, 480225, Note_on_c, 0, 79, 83
1, 480226, Control_c, 0, 64, 45
1, 480231, Note_off_c, 0, 53, 60
1, 480241, Control_c, 0, 64, 44
1, 480256, Control_c, 0, 64, 43
1, 480261, Note_off_c, 0, 74, 63
1, 480271, Control_c, 0, 64, 42
1, 480315, Control_c, 0, 64, 42
1, 480330, Control_c, 0, 64, 47
1, 480345, Control_c, 0, 64, 55
1, 480360, Control_c, 0, 64, 61
1, 480375, Control_c, 0, 64, 65
1, 480383, Note_off_c, 0, 79, 65
1, 480384, Note_on_c, 0, 83, 83
1, 480389, Note_on_c, 0, 53, 46
1, 480390, Control_c, 0, 64, 71
1, 480394, Note_on_c, 0, 57, 42
1, 480405, Control_c, 0, 64, 81
1, 480419, Control_c, 0, 64, 94
1, 480428, Note_off_c, 0, 83, 64
1, 480435, Control_c, 0, 64, 97
1, 480450, Control_c, 0, 64, 95
1, 480464, Control_c, 0, 64, 92
1, 480479, Control_c, 0, 64, 87
1, 480494, Control_c, 0, 64, 83
1, 480509, Control_c, 0, 64, 79
1, 480518, Note_off_c, 0, 57, 44
1, 480524, Control_c, 0, 64, 75
1, 480533, Note_off_c, 0, 53, 36
1, 480539, Control_c, 0, 64, 74
1, 480547, Note_on_c, 0, 62, 74
1, 480554, Control_c, 0, 64, 72
1, 480575, Control_c, 0, 64, 70
1, 480590, Control_c, 0, 64, 68
1, 480605, Control_c, 0, 64, 66
1, 480619, Control_c, 0, 64, 65
1, 480634, Control_c, 0, 64, 63
1, 480649, Control_c, 0, 64, 61
1, 480664, Control_c, 0, 64, 59
1, 480679, Control_c, 0, 64, 57
1, 480694, Control_c, 0, 64, 56
1, 480709, Control_c, 0, 64, 54
1, 480724, Control_c, 0, 64, 53
1, 480736, Note_on_c, 0, 53, 25
1, 480739, Control_c, 0, 64, 51
1, 480745, Note_on_c, 0, 57, 40
1, 480754, Control_c, 0, 64, 50
1, 480768, Control_c, 0, 64, 49
1, 480783, Control_c, 0, 64, 48
1, 480798, Control_c, 0, 64, 48
1, 480813, Control_c, 0, 64, 47
1, 480821, Note_on_c, 0, 76, 70
1, 480827, Control_c, 0, 64, 47
1, 480842, Control_c, 0, 64, 46
1, 480857, Control_c, 0, 64, 46
1, 480887, Control_c, 0, 64, 45
1, 480897, Note_off_c, 0, 62, 32
1, 480974, Note_off_c, 0, 53, 41
1, 480991, Note_off_c, 0, 57, 36
1, 481034, Control_c, 0, 64, 46
1, 481049, Control_c, 0, 64, 47
1, 481065, Control_c, 0, 64, 49
1, 481080, Control_c, 0, 64, 53
1, 481095, Control_c, 0, 64, 57
1, 481110, Control_c, 0, 64, 60
1, 481124, Control_c, 0, 64, 63
1, 481134, Note_on_c, 0, 57, 44
1, 481139, Control_c, 0, 64, 66
1, 481141, Note_on_c, 0, 53, 37
1, 481154, Control_c, 0, 64, 72
1, 481169, Control_c, 0, 64, 84
1, 481184, Control_c, 0, 64, 127
1, 481211, Note_off_c, 0, 57, 51
1, 481214, Note_off_c, 0, 53, 50
1, 481281, Note_on_c, 0, 69, 64
1, 481293, Note_off_c, 0, 47, 49
1, 481369, Control_c, 0, 64, 111
1, 481384, Control_c, 0, 64, 104
1, 481398, Control_c, 0, 64, 99
1, 481413, Control_c, 0, 64, 95
1, 481428, Control_c, 0, 64, 93
1, 481442, Control_c, 0, 64, 91
1, 481457, Control_c, 0, 64, 86
1, 481472, Control_c, 0, 64, 82
1, 481487, Control_c, 0, 64, 79
1, 481495, Note_on_c, 0, 47, 29
1, 481500, Note_on_c, 0, 52, 39
1, 481500, Note_on_c, 0, 55, 40
1, 481502, Control_c, 0, 64, 76
1, 481517, Control_c, 0, 64, 74
1, 481522, Note_on_c, 0, 67, 60
1, 481532, Control_c, 0, 64, 72
1, 481537, Note_off_c, 0, 76, 42
1, 481547, Control_c, 0, 64, 70
1, 481561, Control_c, 0, 64, 66
1, 481576, Control_c, 0, 64, 63
1, 481591, Control_c, 0, 64, 62
1, 481606, Control_c, 0, 64, 61
1, 481608, Note_off_c, 0, 69, 58
1, 481621, Control_c, 0, 64, 60
1, 481636, Control_c, 0, 64, 60
1, 481650, Control_c, 0, 64, 58
1, 481665, Control_c, 0, 64, 57
1, 481679, Note_off_c, 0, 52, 58
1, 481680, Control_c, 0, 64, 56
1, 481690, Note_off_c, 0, 55, 53
1, 481695, Control_c, 0, 64, 55
1, 481710, Control_c, 0, 64, 54
1, 481724, Control_c, 0, 64, 54
1, 481739, Control_c, 0, 64, 53
1, 481754, Control_c, 0, 64, 53
1, 481783, Control_c, 0, 64, 52
1, 481798, Control_c, 0, 64, 52
1, 481828, Control_c, 0, 64, 51
1, 481836, Note_on_c, 0, 57, 63
1, 481840, Note_on_c, 0, 53, 65
1, 481842, Control_c, 0, 64, 51
1, 481888, Control_c, 0, 64, 50
1, 481918, Control_c, 0, 64, 50
1, 481960, Note_off_c, 0, 57, 62
1, 481982, Note_on_c, 0, 48, 65
1, 482016, Note_off_c, 0, 53, 59
1, 482036, Control_c, 0, 64, 49
1, 482175, Note_off_c, 0, 47, 35
1, 482176, Note_on_c, 0, 50, 59
1, 482183, Note_on_c, 0, 59, 52
1, 482193, Note_on_c, 0, 55, 45
1, 482225, Note_off_c, 0, 48, 57
1, 482266, Control_c, 0, 64, 50
1, 482280, Control_c, 0, 64, 54
1, 482295, Control_c, 0, 64, 59
1, 482298, Note_off_c, 0, 67, 42
1, 482310, Control_c, 0, 64, 62
1, 482324, Note_off_c, 0, 55, 56
1, 482325, Control_c, 0, 64, 64
1, 482340, Control_c, 0, 64, 68
1, 482354, Control_c, 0, 64, 78
1, 482357, Note_off_c, 0, 59, 63
1, 482369, Control_c, 0, 64, 102
1, 482384, Control_c, 0, 64, 127
1, 482506, Note_on_c, 0, 65, 65
1, 482513, Note_on_c, 0, 60, 39
1, 482528, Note_on_c, 0, 57, 36
1, 482562, Control_c, 0, 64, 109
1, 482577, Control_c, 0, 64, 100
1, 482591, Control_c, 0, 64, 96
1, 482606, Control_c, 0, 64, 93
1, 482621, Control_c, 0, 64, 91
1, 482636, Control_c, 0, 64, 88
1, 482647, Note_on_c, 0, 48, 46
1, 482651, Control_c, 0, 64, 85
1, 482664, Note_on_c, 0, 64, 65
1, 482667, Control_c, 0, 64, 83
1, 482682, Control_c, 0, 64, 81
1, 482696, Control_c, 0, 64, 80
1, 482711, Control_c, 0, 64, 78
1, 482726, Control_c, 0, 64, 76
1, 482741, Control_c, 0, 64, 74
1, 482756, Control_c, 0, 64, 72
1, 482770, Control_c, 0, 64, 70
1, 482785, Control_c, 0, 64, 69
1, 482800, Note_off_c, 0, 50, 30
1, 482800, Control_c, 0, 64, 67
1, 482822, Control_c, 0, 64, 66
1, 482837, Control_c, 0, 64, 64
1, 482852, Control_c, 0, 64, 63
1, 482867, Control_c, 0, 64, 62
1, 482869, Note_on_c, 0, 47, 36
1, 482882, Control_c, 0, 64, 61
1, 482896, Control_c, 0, 64, 61
1, 482906, Note_on_c, 0, 62, 60
1, 482911, Control_c, 0, 64, 60
1, 482912, Note_off_c, 0, 57, 31
1, 482917, Note_off_c, 0, 60, 34
1, 482926, Control_c, 0, 64, 60
1, 482936, Note_off_c, 0, 65, 29
1, 482941, Control_c, 0, 64, 59
1, 482956, Control_c, 0, 64, 58
1, 482970, Control_c, 0, 64, 57
1, 482985, Control_c, 0, 64, 57
1, 482991, Note_off_c, 0, 48, 35
1, 483000, Control_c, 0, 64, 56
1, 483014, Control_c, 0, 64, 56
1, 483029, Control_c, 0, 64, 55
1, 483042, Note_off_c, 0, 64, 55
1, 483044, Control_c, 0, 64, 54
1, 483059, Control_c, 0, 64, 54
1, 483074, Control_c, 0, 64, 53
1, 483088, Control_c, 0, 64, 53
1, 483103, Control_c, 0, 64, 52
1, 483118, Control_c, 0, 64, 52
1, 483133, Control_c, 0, 64, 51
1, 483148, Control_c, 0, 64, 51
1, 483163, Control_c, 0, 64, 50
1, 483177, Control_c, 0, 64, 50
1, 483207, Control_c, 0, 64, 49
1, 483223, Note_on_c, 0, 60, 60
1, 483232, Note_on_c, 0, 57, 51
1, 483252, Control_c, 0, 64, 49
1, 483296, Control_c, 0, 64, 48
1, 483354, Note_off_c, 0, 57, 59
1, 483389, Note_off_c, 0, 60, 59
1, 483414, Control_c, 0, 64, 48
1, 483544, Note_on_c, 0, 55, 52
1, 483549, Note_on_c, 0, 59, 51
1, 483651, Note_off_c, 0, 55, 61
1, 483663, Note_off_c, 0, 59, 54
1, 483708, Note_on_c, 0, 65, 59
1, 483714, Note_off_c, 0, 62, 53
1, 483887, Note_on_c, 0, 57, 40
1, 483894, Note_on_c, 0, 69, 56
1, 483904, Note_on_c, 0, 53, 43
1, 483910, Control_c, 0, 64, 48
1, 483940, Control_c, 0, 64, 49
1, 483970, Control_c, 0, 64, 49
1, 484000, Control_c, 0, 64, 50
1, 484027, Note_off_c, 0, 65, 31
1, 484030, Control_c, 0, 64, 50
1, 484044, Control_c, 0, 64, 51
1, 484059, Control_c, 0, 64, 54
1, 484069, Note_on_c, 0, 52, 43
1, 484074, Control_c, 0, 64, 56
1, 484076, Note_off_c, 0, 57, 37
1, 484083, Note_on_c, 0, 72, 55
1, 484089, Control_c, 0, 64, 58
1, 484104, Control_c, 0, 64, 61
1, 484118, Control_c, 0, 64, 63
1, 484133, Control_c, 0, 64, 66
1, 484145, Note_off_c, 0, 47, 34
1, 484148, Control_c, 0, 64, 71
1, 484163, Control_c, 0, 64, 83
1, 484179, Control_c, 0, 64, 101
1, 484193, Control_c, 0, 64, 127
1, 484283, Control_c, 0, 64, 125
1, 484298, Control_c, 0, 64, 119
1, 484320, Control_c, 0, 64, 114
1, 484335, Control_c, 0, 64, 110
1, 484349, Control_c, 0, 64, 105
1, 484364, Control_c, 0, 64, 101
1, 484379, Control_c, 0, 64, 98
1, 484394, Control_c, 0, 64, 95
1, 484401, Note_on_c, 0, 51, 35
1, 484406, Note_on_c, 0, 58, 39
1, 484409, Control_c, 0, 64, 91
1, 484414, Note_on_c, 0, 75, 50
1, 484416, Note_on_c, 0, 46, 35
1, 484423, Control_c, 0, 64, 87
1, 484435, Note_off_c, 0, 53, 28
1, 484438, Control_c, 0, 64, 84
1, 484453, Control_c, 0, 64, 81
1, 484468, Control_c, 0, 64, 77
1, 484483, Control_c, 0, 64, 74
1, 484498, Control_c, 0, 64, 70
1, 484513, Control_c, 0, 64, 66
1, 484527, Control_c, 0, 64, 63
1, 484542, Control_c, 0, 64, 60
1, 484554, Note_off_c, 0, 52, 33
1, 484554, Note_off_c, 0, 72, 60
1, 484557, Control_c, 0, 64, 58
1, 484572, Control_c, 0, 64, 57
1, 484584, Note_off_c, 0, 69, 34
1, 484587, Control_c, 0, 64, 55
1, 484602, Control_c, 0, 64, 53
1, 484615, Note_on_c, 0, 73, 58
1, 484616, Control_c, 0, 64, 52
1, 484631, Control_c, 0, 64, 50
1, 484640, Note_off_c, 0, 58, 58
1, 484646, Control_c, 0, 64, 49
1, 484660, Control_c, 0, 64, 48
1, 484675, Control_c, 0, 64, 48
1, 484690, Control_c, 0, 64, 47
1, 484705, Control_c, 0, 64, 47
1, 484720, Control_c, 0, 64, 46
1, 484722, Note_off_c, 0, 75, 62
1, 484734, Control_c, 0, 64, 45
1, 484749, Control_c, 0, 64, 45
1, 484764, Control_c, 0, 64, 44
1, 484779, Control_c, 0, 64, 44
1, 484788, Note_on_c, 0, 58, 43
1, 484792, Note_on_c, 0, 52, 44
1, 484794, Control_c, 0, 64, 43
1, 484795, Note_on_c, 0, 61, 58
1, 484808, Control_c, 0, 64, 43
1, 484823, Control_c, 0, 64, 42
1, 484831, Note_off_c, 0, 73, 55
1, 484838, Control_c, 0, 64, 42
1, 484853, Control_c, 0, 64, 41
1, 484856, Note_off_c, 0, 51, 31
1, 484882, Control_c, 0, 64, 41
1, 484901, Note_off_c, 0, 52, 55
1, 484955, Note_off_c, 0, 58, 49
1, 485001, Control_c, 0, 64, 41
1, 485016, Control_c, 0, 64, 42
1, 485031, Control_c, 0, 64, 45
1, 485046, Control_c, 0, 64, 50
1, 485069, Control_c, 0, 64, 57
1, 485084, Control_c, 0, 64, 62
1, 485098, Control_c, 0, 64, 65
1, 485113, Control_c, 0, 64, 71
1, 485121, Note_on_c, 0, 53, 59
1, 485125, Note_on_c, 0, 58, 47
1, 485128, Control_c, 0, 64, 83
1, 485143, Control_c, 0, 64, 125
1, 485158, Control_c, 0, 64, 127
1, 485161, Note_off_c, 0, 53, 63
1, 485163, Note_off_c, 0, 58, 64
1, 485165, Note_off_c, 0, 46, 52
1, 485265, Note_on_c, 0, 60, 68
1, 485281, Note_on_c, 0, 44, 52
1, 485323, Note_off_c, 0, 61, 60
1, 485365, Control_c, 0, 64, 109
1, 485380, Control_c, 0, 64, 101
1, 485395, Control_c, 0, 64, 98
1, 485410, Control_c, 0, 64, 96
1, 485425, Control_c, 0, 64, 93
1, 485428, Note_on_c, 0, 41, 69
1, 485439, Note_on_c, 0, 61, 76
1, 485439, Control_c, 0, 64, 88
1, 485444, Note_on_c, 0, 58, 66
1, 485449, Note_off_c, 0, 44, 38
1, 485454, Control_c, 0, 64, 83
1, 485469, Control_c, 0, 64, 80
1, 485481, Note_off_c, 0, 60, 62
1, 485483, Control_c, 0, 64, 78
1, 485498, Control_c, 0, 64, 76
1, 485513, Control_c, 0, 64, 74
1, 485528, Control_c, 0, 64, 72
1, 485537, Note_off_c, 0, 58, 61
1, 485543, Control_c, 0, 64, 69
1, 485557, Control_c, 0, 64, 66
1, 485568, Note_off_c, 0, 41, 64
1, 485572, Note_on_c, 0, 42, 74
1, 485572, Control_c, 0, 64, 65
1, 485587, Control_c, 0, 64, 64
1, 485602, Control_c, 0, 64, 63
1, 485617, Control_c, 0, 64, 62
1, 485631, Control_c, 0, 64, 61
1, 485646, Control_c, 0, 64, 60
1, 485661, Control_c, 0, 64, 59
1, 485676, Control_c, 0, 64, 58
1, 485690, Control_c, 0, 64, 57
1, 485705, Control_c, 0, 64, 55
1, 485720, Control_c, 0, 64, 54
1, 485735, Control_c, 0, 64, 53
1, 485750, Control_c, 0, 64, 52
1, 485764, Control_c, 0, 64, 51
1, 485779, Control_c, 0, 64, 50
1, 485794, Control_c, 0, 64, 49
1, 485812, Note_on_c, 0, 36, 69
1, 485815, Note_on_c, 0, 58, 27
1, 485816, Control_c, 0, 64, 48
1, 485822, Note_on_c, 0, 53, 44
1, 485831, Control_c, 0, 64, 47
1, 485842, Note_on_c, 0, 62, 56
1, 485846, Control_c, 0, 64, 46
1, 485862, Control_c, 0, 64, 44
1, 485877, Control_c, 0, 64, 43
1, 485892, Control_c, 0, 64, 43
1, 485907, Control_c, 0, 64, 42
1, 485909, Note_off_c, 0, 42, 60
1, 485921, Control_c, 0, 64, 41
1, 485936, Control_c, 0, 64, 40
1, 485951, Control_c, 0, 64, 39
1, 485966, Control_c, 0, 64, 38
1, 485975, Note_off_c, 0, 58, 39
1, 485981, Control_c, 0, 64, 38
1, 485995, Control_c, 0, 64, 37
1, 486005, Note_off_c, 0, 53, 50
1, 486010, Control_c, 0, 64, 36
1, 486025, Control_c, 0, 64, 34
1, 486040, Control_c, 0, 64, 33
1, 486055, Control_c, 0, 64, 31
1, 486069, Control_c, 0, 64, 28
1, 486084, Control_c, 0, 64, 25
1, 486099, Control_c, 0, 64, 22
1, 486112, Note_off_c, 0, 61, 31
1, 486113, Control_c, 0, 64, 15
1, 486128, Control_c, 0, 64, 0
1, 486137, Note_on_c, 0, 57, 69
1, 486140, Note_on_c, 0, 54, 70
1, 486247, Note_on_c, 0, 37, 75
1, 486288, Note_off_c, 0, 57, 64
1, 486307, Note_off_c, 0, 54, 57
1, 486341, Note_off_c, 0, 36, 48
1, 486468, Note_on_c, 0, 50, 68
1, 486499, Note_on_c, 0, 56, 53
1, 486519, Note_off_c, 0, 37, 58
1, 486523, Note_on_c, 0, 53, 41
1, 486610, Control_c, 0, 64, 41
1, 486625, Control_c, 0, 64, 54
1, 486639, Control_c, 0, 64, 61
1, 486654, Control_c, 0, 64, 64
1, 486671, Control_c, 0, 64, 70
1, 486677, Note_off_c, 0, 53, 52
1, 486678, Note_on_c, 0, 49, 72
1, 486685, Control_c, 0, 64, 81
1, 486700, Control_c, 0, 64, 105
1, 486715, Control_c, 0, 64, 127
1, 486748, Note_off_c, 0, 49, 61
1, 486760, Note_off_c, 0, 56, 32
1, 486775, Note_off_c, 0, 50, 63
1, 486826, Note_on_c, 0, 36, 78
1, 486842, Note_on_c, 0, 54, 67
1, 486842, Note_on_c, 0, 57, 64
1, 486848, Control_c, 0, 64, 110
1, 486862, Control_c, 0, 64, 97
1, 486877, Control_c, 0, 64, 88
1, 486892, Control_c, 0, 64, 83
1, 486907, Control_c, 0, 64, 79
1, 486922, Control_c, 0, 64, 76
1, 486936, Control_c, 0, 64, 73
1, 486951, Note_off_c, 0, 54, 61
1, 486951, Control_c, 0, 64, 67
1, 486966, Control_c, 0, 64, 63
1, 486976, Note_on_c, 0, 35, 73
1, 486981, Control_c, 0, 64, 57
1, 486987, Note_off_c, 0, 57, 63
1, 486996, Control_c, 0, 64, 53
1, 487008, Note_off_c, 0, 36, 61
1, 487011, Control_c, 0, 64, 51
1, 487025, Control_c, 0, 64, 49
1, 487040, Control_c, 0, 64, 46
1, 487055, Control_c, 0, 64, 43
1, 487070, Control_c, 0, 64, 39
1, 487085, Control_c, 0, 64, 35
1, 487100, Control_c, 0, 64, 29
1, 487115, Control_c, 0, 64, 19
1, 487129, Control_c, 0, 64, 0
1, 487221, Note_on_c, 0, 34, 60
1, 487259, Note_off_c, 0, 35, 61
1, 487261, Note_on_c, 0, 53, 35
1, 487261, Note_on_c, 0, 58, 41
1, 487389, Control_c, 0, 64, 32
1, 487404, Control_c, 0, 64, 54
1, 487418, Control_c, 0, 64, 63
1, 487420, Note_off_c, 0, 53, 36
1, 487427, Note_off_c, 0, 34, 62
1, 487433, Control_c, 0, 64, 67
1, 487440, Note_off_c, 0, 58, 55
1, 487448, Control_c, 0, 64, 73
1, 487464, Control_c, 0, 64, 94
1, 487478, Note_on_c, 0, 65, 56
1, 487479, Control_c, 0, 64, 127
1, 487494, Note_off_c, 0, 62, 55
1, 487613, Note_off_c, 0, 65, 54
1, 487641, Note_on_c, 0, 58, 53
1, 487652, Note_on_c, 0, 53, 52
1, 487656, Note_on_c, 0, 70, 63
1, 487797, Note_off_c, 0, 70, 63
1, 487800, Note_on_c, 0, 71, 80
1, 487826, Note_off_c, 0, 58, 42
1, 487845, Note_off_c, 0, 53, 41
1, 487934, Note_on_c, 0, 53, 57
1, 487943, Note_on_c, 0, 58, 52
1, 487949, Note_on_c, 0, 74, 89
1, 487986, Note_off_c, 0, 71, 60
1, 488042, Note_off_c, 0, 53, 50
1, 488097, Note_on_c, 0, 79, 85
1, 488146, Note_off_c, 0, 74, 59
1, 488167, Note_off_c, 0, 58, 62
1, 488243, Note_on_c, 0, 62, 54
1, 488249, Note_on_c, 0, 80, 78
1, 488295, Note_off_c, 0, 79, 62
1, 488338, Note_off_c, 0, 62, 58
1, 488384, Note_on_c, 0, 68, 57
1, 488391, Note_on_c, 0, 83, 83
1, 488395, Note_off_c, 0, 80, 63
1, 488423, Note_off_c, 0, 68, 61
1, 488508, Control_c, 0, 64, 112
1, 488523, Control_c, 0, 64, 96
1, 488538, Control_c, 0, 64, 84
1, 488553, Control_c, 0, 64, 78
1, 488568, Control_c, 0, 64, 72
1, 488575, Note_on_c, 0, 74, 47
1, 488582, Control_c, 0, 64, 67
1, 488587, Note_on_c, 0, 88, 67
1, 488597, Control_c, 0, 64, 62
1, 488601, Note_on_c, 0, 65, 21
1, 488612, Control_c, 0, 64, 56
1, 488627, Control_c, 0, 64, 53
1, 488642, Control_c, 0, 64, 52
1, 488656, Control_c, 0, 64, 52
1, 488671, Control_c, 0, 64, 52
1, 488672, Note_off_c, 0, 83, 56
1, 488686, Control_c, 0, 64, 55
1, 488701, Control_c, 0, 64, 61
1, 488715, Control_c, 0, 64, 67
1, 488730, Control_c, 0, 64, 75
1, 488735, Note_on_c, 0, 86, 78
1, 488745, Control_c, 0, 64, 95
1, 488760, Control_c, 0, 64, 127
1, 488764, Note_off_c, 0, 74, 56
1, 488891, Note_on_c, 0, 82, 86
1, 488891, Note_on_c, 0, 70, 54
1, 488898, Note_on_c, 0, 62, 41
1, 488927, Note_off_c, 0, 70, 66
1, 488941, Note_off_c, 0, 65, 36
1, 488949, Note_off_c, 0, 88, 58
1, 488951, Note_off_c, 0, 62, 58
1, 489014, Note_off_c, 0, 86, 61
1, 489037, Note_on_c, 0, 77, 86
1, 489038, Note_on_c, 0, 78, 66
1, 489079, Note_off_c, 0, 78, 59
1, 489082, Note_off_c, 0, 82, 60
1, 489182, Note_off_c, 0, 77, 64
1, 489186, Note_on_c, 0, 74, 86
1, 489193, Note_on_c, 0, 65, 63
1, 489215, Note_on_c, 0, 58, 53
1, 489255, Note_off_c, 0, 65, 63
1, 489331, Note_on_c, 0, 70, 88
1, 489334, Note_on_c, 0, 53, 57
1, 489344, Note_off_c, 0, 74, 58
1, 489363, Note_off_c, 0, 58, 58
1, 489467, Poly_aftertouch_c, 0, 71, 0
1, 489474, Note_on_c, 0, 50, 62
1, 489474, Note_on_c, 0, 58, 71
1, 489479, Note_on_c, 0, 65, 84
1, 489517, Note_off_c, 0, 53, 58
1, 489518, Note_off_c, 0, 58, 61
1, 489525, Note_off_c, 0, 70, 60
1, 489534, Note_off_c, 0, 50, 62
1, 489613, Note_on_c, 0, 62, 85
1, 489628, Note_off_c, 0, 65, 58
1, 489691, Note_off_c, 0, 62, 65
1, 489753, Control_c, 0, 64, 87
1, 489765, Note_on_c, 0, 50, 80
1, 489768, Note_on_c, 0, 41, 73
1, 489768, Control_c, 0, 64, 62
1, 489768, Note_on_c, 0, 62, 80
1, 489783, Control_c, 0, 64, 0
1, 489807, Note_off_c, 0, 50, 61
1, 489821, Note_off_c, 0, 41, 61
1, 489842, Control_c, 0, 64, 61
1, 489857, Control_c, 0, 64, 80
1, 489872, Control_c, 0, 64, 127
1, 489914, Note_on_c, 0, 61, 75
1, 489915, Note_on_c, 0, 34, 72
1, 489923, Note_off_c, 0, 62, 59
1, 489944, Note_off_c, 0, 34, 59
1, 490051, Note_off_c, 0, 61, 61
1, 490057, Note_on_c, 0, 62, 87
1, 490065, Control_c, 0, 64, 98
1, 490079, Control_c, 0, 64, 66
1, 490094, Control_c, 0, 64, 0
1, 490176, Note_on_c, 0, 50, 78
1, 490187, Note_on_c, 0, 65, 87
1, 490209, Note_off_c, 0, 62, 58
1, 490345, Note_on_c, 0, 70, 92
1, 490349, Note_on_c, 0, 53, 68
1, 490352, Note_on_c, 0, 62, 73
1, 490352, Note_off_c, 0, 50, 59
1, 490367, Control_c, 0, 64, 47
1, 490371, Note_off_c, 0, 65, 63
1, 490382, Control_c, 0, 64, 60
1, 490397, Control_c, 0, 64, 68
1, 490412, Control_c, 0, 64, 89
1, 490421, Note_off_c, 0, 53, 62
1, 490427, Control_c, 0, 64, 127
1, 490466, Note_off_c, 0, 62, 63
1, 490480, Note_off_c, 0, 70, 62
1, 490483, Note_on_c, 0, 71, 97
1, 490626, Note_on_c, 0, 65, 78
1, 490632, Note_off_c, 0, 71, 58
1, 490635, Note_on_c, 0, 74, 97
1, 490665, Control_c, 0, 64, 96
1, 490680, Control_c, 0, 64, 72
1, 490695, Control_c, 0, 64, 61
1, 490709, Control_c, 0, 64, 49
1, 490724, Control_c, 0, 64, 48
1, 490739, Control_c, 0, 64, 54
1, 490754, Control_c, 0, 64, 61
1, 490769, Control_c, 0, 64, 68
1, 490771, Note_on_c, 0, 79, 90
1, 490783, Control_c, 0, 64, 78
1, 490798, Control_c, 0, 64, 98
1, 490806, Note_off_c, 0, 74, 61
1, 490813, Control_c, 0, 64, 127
1, 490955, Note_on_c, 0, 74, 55
1, 490990, Note_on_c, 0, 80, 79
1, 491005, Control_c, 0, 64, 113
1, 491020, Control_c, 0, 64, 91
1, 491035, Control_c, 0, 64, 77
1, 491057, Control_c, 0, 64, 68
1, 491066, Note_off_c, 0, 79, 61
1, 491072, Control_c, 0, 64, 62
1, 491087, Control_c, 0, 64, 58
1, 491101, Control_c, 0, 64, 54
1, 491116, Control_c, 0, 64, 51
1, 491131, Control_c, 0, 64, 50
1, 491161, Control_c, 0, 64, 53
1, 491175, Control_c, 0, 64, 57
1, 491190, Control_c, 0, 64, 61
1, 491196, Note_on_c, 0, 83, 91
1, 491205, Control_c, 0, 64, 64
1, 491220, Control_c, 0, 64, 68
1, 491224, Note_off_c, 0, 80, 63
1, 491235, Control_c, 0, 64, 77
1, 491249, Control_c, 0, 64, 92
1, 491264, Control_c, 0, 64, 127
1, 491342, Note_on_c, 0, 88, 87
1, 491344, Note_on_c, 0, 70, 72
1, 491345, Note_on_c, 0, 62, 68
1, 491368, Note_off_c, 0, 74, 62
1, 491376, Note_off_c, 0, 65, 62
1, 491378, Note_off_c, 0, 70, 65
1, 491392, Note_off_c, 0, 83, 65
1, 491407, Note_off_c, 0, 62, 64
1, 491458, Poly_aftertouch_c, 0, 89, 0
1, 491479, Note_on_c, 0, 87, 95
1, 491526, Note_off_c, 0, 88, 64
1, 491626, Note_on_c, 0, 65, 69
1, 491630, Note_on_c, 0, 86, 92
1, 491634, Note_on_c, 0, 58, 67
1, 491636, Control_c, 0, 64, 85
1, 491640, Note_off_c, 0, 87, 62
1, 491651, Control_c, 0, 64, 64
1, 491667, Control_c, 0, 64, 24
1, 491681, Control_c, 0, 64, 0
1, 491696, Control_c, 0, 64, 22
1, 491699, Note_off_c, 0, 65, 62
1, 491711, Control_c, 0, 64, 51
1, 491725, Control_c, 0, 64, 65
1, 491740, Control_c, 0, 64, 82
1, 491755, Control_c, 0, 64, 127
1, 491777, Note_on_c, 0, 53, 69
1, 491779, Note_on_c, 0, 82, 89
1, 491819, Note_off_c, 0, 58, 61
1, 491853, Note_off_c, 0, 86, 62
1, 491929, Note_on_c, 0, 77, 95
1, 491930, Note_on_c, 0, 50, 72
1, 491932, Note_on_c, 0, 58, 82
1, 491953, Note_off_c, 0, 82, 65
1, 491955, Note_off_c, 0, 53, 63
1, 491957, Note_off_c, 0, 58, 70
1, 491965, Note_off_c, 0, 50, 67
1, 491972, Note_off_c, 0, 77, 67
1, 492080, Note_on_c, 0, 74, 93
1, 492259, Note_on_c, 0, 34, 90
1, 492282, Note_on_c, 0, 65, 76
1, 492282, Note_on_c, 0, 70, 76
1, 492288, Note_on_c, 0, 62, 74
1, 492296, Control_c, 0, 64, 89
1, 492311, Control_c, 0, 64, 71
1, 492326, Control_c, 0, 64, 59
1, 492341, Note_off_c, 0, 62, 54
1, 492341, Control_c, 0, 64, 36
1, 492355, Control_c, 0, 64, 0
1, 492364, Note_off_c, 0, 65, 59
1, 492380, Note_off_c, 0, 70, 60
1, 492416, Note_on_c, 0, 36, 87
1, 492515, Note_off_c, 0, 34, 37
1, 492621, Note_on_c, 0, 37, 84
1, 492647, Note_on_c, 0, 65, 53
1, 492650, Note_on_c, 0, 70, 59
1, 492654, Note_on_c, 0, 61, 49
1, 492746, Note_off_c, 0, 36, 55
1, 492775, Note_off_c, 0, 74, 53
1, 492843, Note_off_c, 0, 65, 58
1, 492862, Note_off_c, 0, 61, 56
1, 492868, Note_off_c, 0, 70, 55
1, 492954, Note_on_c, 0, 73, 86
1, 492957, Note_on_c, 0, 70, 63
1, 492962, Note_on_c, 0, 65, 58
1, 492976, Note_on_c, 0, 61, 57
1, 493076, Note_off_c, 0, 70, 61
1, 493095, Note_off_c, 0, 61, 49
1, 493099, Note_on_c, 0, 39, 76
1, 493109, Note_off_c, 0, 65, 29
1, 493155, Note_off_c, 0, 37, 58
1, 493264, Note_on_c, 0, 61, 56
1, 493265, Note_on_c, 0, 70, 73
1, 493268, Note_on_c, 0, 65, 55
1, 493273, Note_on_c, 0, 37, 64
1, 493324, Note_off_c, 0, 39, 58
1, 493354, Note_off_c, 0, 61, 61
1, 493356, Note_off_c, 0, 73, 67
1, 493415, Note_on_c, 0, 60, 68
1, 493416, Note_on_c, 0, 36, 56
1, 493434, Note_off_c, 0, 65, 60
1, 493440, Note_off_c, 0, 37, 59
1, 493574, Note_off_c, 0, 60, 49
1, 493574, Note_on_c, 0, 37, 61
1, 493592, Note_on_c, 0, 61, 66
1, 493694, Note_off_c, 0, 36, 31
1, 493735, Note_on_c, 0, 40, 72
1, 493735, Note_on_c, 0, 64, 77
1, 493749, Note_off_c, 0, 70, 61
1, 493764, Note_off_c, 0, 61, 61
1, 493797, Note_off_c, 0, 37, 52
1, 493870, Note_on_c, 0, 43, 68
1, 493880, Note_off_c, 0, 40, 63
1, 493884, Note_on_c, 0, 67, 85
1, 493914, Note_off_c, 0, 64, 61
1, 494016, Note_on_c, 0, 47, 69
1, 494016, Note_off_c, 0, 43, 62
1, 494029, Note_on_c, 0, 71, 84
1, 494090, Note_off_c, 0, 67, 56
1, 494180, Note_on_c, 0, 50, 72
1, 494181, Note_off_c, 0, 47, 62
1, 494189, Note_on_c, 0, 74, 84
1, 494212, Note_off_c, 0, 71, 61
1, 494331, Note_on_c, 0, 71, 71
1, 494336, Note_on_c, 0, 47, 70
1, 494347, Note_off_c, 0, 50, 58
1, 494398, Note_off_c, 0, 74, 51
1, 494481, Note_on_c, 0, 43, 66
1, 494485, Note_off_c, 0, 47, 58
1, 494487, Note_on_c, 0, 67, 80
1, 494552, Note_off_c, 0, 71, 50
1, 494603, Note_off_c, 0, 43, 63
1, 494610, Note_on_c, 0, 40, 62
1, 494630, Note_on_c, 0, 64, 70
1, 494674, Note_off_c, 0, 67, 56
1, 494793, Note_on_c, 0, 37, 74
1, 494808, Note_off_c, 0, 40, 55
1, 494809, Note_on_c, 0, 59, 71
1, 494849, Note_off_c, 0, 64, 60
1, 494951, Note_on_c, 0, 64, 85
1, 495000, Note_off_c, 0, 59, 59
1, 495024, Note_off_c, 0, 37, 62
1, 495088, Note_on_c, 0, 36, 86
1, 495094, Note_on_c, 0, 67, 88
1, 495142, Note_off_c, 0, 64, 56
1, 495208, Note_off_c, 0, 36, 63
1, 495234, Note_on_c, 0, 69, 89
1, 495269, Note_off_c, 0, 67, 58
1, 495361, Note_on_c, 0, 54, 79
1, 495366, Note_on_c, 0, 57, 78
1, 495369, Note_on_c, 0, 48, 71
1, 495379, Note_on_c, 0, 62, 80
1, 495419, Note_off_c, 0, 69, 60
1, 495509, Note_off_c, 0, 48, 63
1, 495511, Note_on_c, 0, 63, 94
1, 495515, Note_off_c, 0, 57, 64
1, 495539, Note_off_c, 0, 62, 65
1, 495572, Note_off_c, 0, 54, 63
1, 495661, Note_on_c, 0, 55, 84
1, 495664, Note_on_c, 0, 52, 74
1, 495671, Note_on_c, 0, 46, 74
1, 495674, Note_on_c, 0, 64, 90
1, 495678, Note_off_c, 0, 63, 64
1, 495774, Note_off_c, 0, 55, 63
1, 495789, Note_off_c, 0, 52, 64
1, 495819, Note_on_c, 0, 67, 91
1, 495819, Note_off_c, 0, 46, 63
1, 495837, Note_off_c, 0, 64, 64
1, 495953, Note_on_c, 0, 45, 75
1, 496023, Note_on_c, 0, 72, 86
1, 496058, Note_off_c, 0, 67, 60
1, 496114, Control_c, 0, 64, 57
1, 496120, Note_on_c, 0, 51, 58
1, 496129, Control_c, 0, 64, 72
1, 496135, Note_off_c, 0, 45, 65
1, 496144, Control_c, 0, 64, 127
1, 496165, Note_on_c, 0, 55, 71
1, 496192, Note_on_c, 0, 77, 94
1, 496200, Note_off_c, 0, 51, 63
1, 496221, Poly_aftertouch_c, 0, 47, 0
1, 496248, Note_on_c, 0, 63, 66
1, 496249, Note_off_c, 0, 72, 61
1, 496261, Note_off_c, 0, 55, 58
1, 496338, Note_on_c, 0, 81, 90
1, 496340, Note_on_c, 0, 51, 62
1, 496349, Note_on_c, 0, 55, 61
1, 496350, Note_off_c, 0, 77, 60
1, 496374, Note_off_c, 0, 81, 68
1, 496418, Control_c, 0, 64, 110
1, 496433, Control_c, 0, 64, 101
1, 496448, Control_c, 0, 64, 94
1, 496463, Control_c, 0, 64, 89
1, 496470, Note_off_c, 0, 51, 53
1, 496472, Note_off_c, 0, 55, 51
1, 496478, Control_c, 0, 64, 85
1, 496493, Control_c, 0, 64, 82
1, 496503, Note_on_c, 0, 60, 86
1, 496508, Control_c, 0, 64, 80
1, 496523, Control_c, 0, 64, 77
1, 496537, Control_c, 0, 64, 73
1, 496552, Control_c, 0, 64, 70
1, 496567, Control_c, 0, 64, 68
1, 496582, Control_c, 0, 64, 66
1, 496596, Control_c, 0, 64, 64
1, 496611, Control_c, 0, 64, 63
1, 496626, Control_c, 0, 64, 63
1, 496641, Control_c, 0, 64, 62
1, 496656, Control_c, 0, 64, 60
1, 496670, Control_c, 0, 64, 59
1, 496685, Control_c, 0, 64, 58
1, 496686, Note_on_c, 0, 55, 44
1, 496691, Note_on_c, 0, 51, 39
1, 496700, Control_c, 0, 64, 57
1, 496714, Control_c, 0, 64, 57
1, 496729, Control_c, 0, 64, 54
1, 496734, Note_on_c, 0, 74, 75
1, 496744, Control_c, 0, 64, 50
1, 496759, Control_c, 0, 64, 46
1, 496774, Control_c, 0, 64, 41
1, 496788, Control_c, 0, 64, 38
1, 496803, Control_c, 0, 64, 35
1, 496809, Note_off_c, 0, 60, 55
1, 496818, Control_c, 0, 64, 31
1, 496833, Control_c, 0, 64, 28
1, 496848, Control_c, 0, 64, 24
1, 496862, Control_c, 0, 64, 23
1, 496907, Control_c, 0, 64, 33
1, 496922, Control_c, 0, 64, 47
1, 496937, Control_c, 0, 64, 58
1, 496938, Note_off_c, 0, 51, 51
1, 496940, Note_off_c, 0, 55, 36
1, 496952, Control_c, 0, 64, 63
1, 496967, Control_c, 0, 64, 68
1, 496982, Control_c, 0, 64, 80
1, 496996, Control_c, 0, 64, 127
1, 497062, Note_on_c, 0, 55, 61
1, 497068, Note_off_c, 0, 63, 61
1, 497086, Note_on_c, 0, 51, 41
1, 497125, Note_off_c, 0, 55, 60
1, 497152, Note_off_c, 0, 51, 60
1, 497213, Note_on_c, 0, 67, 66
1, 497330, Control_c, 0, 64, 110
1, 497345, Control_c, 0, 64, 103
1, 497360, Control_c, 0, 64, 99
1, 497368, Note_off_c, 0, 74, 40
1, 497375, Control_c, 0, 64, 95
1, 497390, Control_c, 0, 64, 91
1, 497405, Control_c, 0, 64, 86
1, 497406, Note_on_c, 0, 53, 48
1, 497411, Note_on_c, 0, 65, 71
1, 497414, Note_on_c, 0, 45, 40
1, 497414, Note_on_c, 0, 50, 41
1, 497419, Control_c, 0, 64, 82
1, 497434, Control_c, 0, 64, 79
1, 497449, Control_c, 0, 64, 77
1, 497464, Control_c, 0, 64, 75
1, 497479, Control_c, 0, 64, 71
1, 497493, Control_c, 0, 64, 67
1, 497495, Note_off_c, 0, 67, 59
1, 497508, Control_c, 0, 64, 63
1, 497523, Control_c, 0, 64, 59
1, 497537, Control_c, 0, 64, 57
1, 497552, Control_c, 0, 64, 56
1, 497567, Control_c, 0, 64, 56
1, 497577, Note_off_c, 0, 53, 62
1, 497582, Control_c, 0, 64, 55
1, 497588, Note_off_c, 0, 50, 56
1, 497597, Control_c, 0, 64, 54
1, 497611, Control_c, 0, 64, 53
1, 497626, Control_c, 0, 64, 52
1, 497641, Control_c, 0, 64, 51
1, 497656, Control_c, 0, 64, 50
1, 497671, Control_c, 0, 64, 50
1, 497685, Control_c, 0, 64, 49
1, 497710, Note_on_c, 0, 55, 71
1, 497715, Control_c, 0, 64, 49
1, 497721, Note_on_c, 0, 51, 69
1, 497730, Control_c, 0, 64, 48
1, 497760, Control_c, 0, 64, 48
1, 497775, Control_c, 0, 64, 47
1, 497812, Control_c, 0, 64, 47
1, 497858, Note_off_c, 0, 55, 60
1, 497867, Note_on_c, 0, 46, 67
1, 497887, Control_c, 0, 64, 46
1, 497931, Control_c, 0, 64, 46
1, 497951, Note_off_c, 0, 51, 56
1, 498046, Note_on_c, 0, 48, 60
1, 498051, Note_off_c, 0, 45, 36
1, 498070, Note_on_c, 0, 57, 53
1, 498075, Note_on_c, 0, 53, 50
1, 498097, Note_off_c, 0, 46, 55
1, 498138, Control_c, 0, 64, 46
1, 498153, Control_c, 0, 64, 49
1, 498168, Control_c, 0, 64, 53
1, 498183, Control_c, 0, 64, 58
1, 498198, Control_c, 0, 64, 62
1, 498213, Note_off_c, 0, 53, 53
1, 498213, Control_c, 0, 64, 64
1, 498228, Control_c, 0, 64, 68
1, 498229, Note_off_c, 0, 57, 62
1, 498242, Control_c, 0, 64, 74
1, 498257, Control_c, 0, 64, 87
1, 498272, Control_c, 0, 64, 113
1, 498287, Control_c, 0, 64, 127
1, 498390, Control_c, 0, 64, 122
1, 498393, Note_on_c, 0, 63, 60
1, 498404, Control_c, 0, 64, 108
1, 498406, Note_on_c, 0, 58, 48
1, 498414, Note_off_c, 0, 65, 48
1, 498418, Note_on_c, 0, 55, 41
1, 498419, Control_c, 0, 64, 101
1, 498433, Control_c, 0, 64, 96
1, 498448, Control_c, 0, 64, 93
1, 498463, Control_c, 0, 64, 90
1, 498478, Control_c, 0, 64, 86
1, 498493, Control_c, 0, 64, 83
1, 498508, Control_c, 0, 64, 81
1, 498523, Control_c, 0, 64, 79
1, 498530, Note_on_c, 0, 46, 48
1, 498545, Control_c, 0, 64, 77
1, 498553, Note_on_c, 0, 62, 65
1, 498553, Note_off_c, 0, 63, 63
1, 498560, Control_c, 0, 64, 75
1, 498574, Control_c, 0, 64, 72
1, 498589, Control_c, 0, 64, 69
1, 498604, Control_c, 0, 64, 68
1, 498619, Control_c, 0, 64, 67
1, 498634, Control_c, 0, 64, 66
1, 498650, Control_c, 0, 64, 66
1, 498664, Control_c, 0, 64, 64
1, 498679, Control_c, 0, 64, 63
1, 498684, Note_off_c, 0, 55, 37
1, 498688, Note_off_c, 0, 58, 32
1, 498694, Control_c, 0, 64, 63
1, 498699, Note_off_c, 0, 48, 34
1, 498709, Control_c, 0, 64, 62
1, 498713, Note_on_c, 0, 45, 42
1, 498724, Control_c, 0, 64, 61
1, 498738, Control_c, 0, 64, 60
1, 498753, Control_c, 0, 64, 60
1, 498755, Note_on_c, 0, 60, 63
1, 498768, Control_c, 0, 64, 59
1, 498783, Control_c, 0, 64, 58
1, 498797, Control_c, 0, 64, 58
1, 498812, Control_c, 0, 64, 57
1, 498827, Control_c, 0, 64, 57
1, 498842, Control_c, 0, 64, 56
1, 498847, Note_off_c, 0, 62, 56
1, 498850, Note_off_c, 0, 46, 31
1, 498857, Control_c, 0, 64, 56
1, 498872, Control_c, 0, 64, 55
1, 498886, Control_c, 0, 64, 55
1, 498901, Control_c, 0, 64, 54
1, 498916, Control_c, 0, 64, 54
1, 498931, Control_c, 0, 64, 53
1, 498946, Control_c, 0, 64, 53
1, 498961, Control_c, 0, 64, 52
1, 498990, Control_c, 0, 64, 52
1, 499020, Control_c, 0, 64, 51
1, 499075, Note_on_c, 0, 58, 59
1, 499079, Control_c, 0, 64, 51
1, 499089, Note_on_c, 0, 55, 44
1, 499199, Note_off_c, 0, 55, 55
1, 499215, Note_off_c, 0, 58, 52
1, 499294, Control_c, 0, 64, 50
1, 499419, Note_on_c, 0, 57, 45
1, 499426, Note_on_c, 0, 53, 40
1, 499526, Note_off_c, 0, 53, 59
1, 499539, Note_off_c, 0, 57, 51
1, 499733, Note_on_c, 0, 51, 41
1, 499736, Note_on_c, 0, 62, 44
1, 499739, Note_on_c, 0, 55, 33
1, 499819, Note_off_c, 0, 60, 50
1, 499853, Note_off_c, 0, 51, 51
1, 499880, Note_on_c, 0, 63, 50
1, 499887, Note_off_c, 0, 55, 43
1, 499982, Note_off_c, 0, 62, 32
1, 500006, Control_c, 0, 64, 51
1, 500043, Control_c, 0, 64, 51
1, 500053, Note_off_c, 0, 63, 62
1, 500058, Control_c, 0, 64, 52
1, 500066, Note_on_c, 0, 53, 43
1, 500070, Note_on_c, 0, 65, 45
1, 500073, Control_c, 0, 64, 53
1, 500076, Note_on_c, 0, 50, 37
1, 500088, Control_c, 0, 64, 54
1, 500102, Control_c, 0, 64, 55
1, 500117, Control_c, 0, 64, 57
1, 500132, Control_c, 0, 64, 59
1, 500146, Control_c, 0, 64, 60
1, 500161, Control_c, 0, 64, 62
1, 500176, Control_c, 0, 64, 64
1, 500191, Control_c, 0, 64, 67
1, 500206, Control_c, 0, 64, 71
1, 500217, Note_on_c, 0, 67, 56
1, 500220, Control_c, 0, 64, 77
1, 500236, Control_c, 0, 64, 86
1, 500251, Control_c, 0, 64, 97
1, 500266, Control_c, 0, 64, 112
1, 500281, Control_c, 0, 64, 127
1, 500302, Note_off_c, 0, 65, 30
1, 500371, Note_on_c, 0, 43, 53
1, 500375, Note_on_c, 0, 69, 64
1, 500375, Note_off_c, 0, 53, 42
1, 500439, Note_off_c, 0, 67, 50
1, 500445, Note_off_c, 0, 45, 34
1, 500472, Note_off_c, 0, 50, 40
1, 500521, Note_on_c, 0, 70, 74
1, 500554, Note_off_c, 0, 69, 63
1, 500668, Note_on_c, 0, 41, 74
1, 500670, Note_off_c, 0, 43, 60
1, 500674, Note_on_c, 0, 69, 81
1, 500703, Note_off_c, 0, 70, 64
1, 500739, Control_c, 0, 64, 114
1, 500754, Control_c, 0, 64, 101
1, 500768, Control_c, 0, 64, 88
1, 500791, Control_c, 0, 64, 77
1, 500806, Control_c, 0, 64, 69
1, 500821, Control_c, 0, 64, 64
1, 500827, Note_on_c, 0, 70, 88
1, 500836, Control_c, 0, 64, 60
1, 500850, Control_c, 0, 64, 62
1, 500865, Control_c, 0, 64, 65
1, 500880, Control_c, 0, 64, 70
1, 500895, Control_c, 0, 64, 78
1, 500898, Note_off_c, 0, 69, 53
1, 500910, Control_c, 0, 64, 91
1, 500924, Control_c, 0, 64, 127
1, 500976, Note_on_c, 0, 39, 83
1, 500985, Note_on_c, 0, 72, 89
1, 501041, Note_off_c, 0, 70, 61
1, 501044, Control_c, 0, 64, 117
1, 501059, Control_c, 0, 64, 88
1, 501065, Note_off_c, 0, 41, 59
1, 501073, Control_c, 0, 64, 74
1, 501088, Control_c, 0, 64, 65
1, 501103, Control_c, 0, 64, 60
1, 501118, Control_c, 0, 64, 62
1, 501132, Control_c, 0, 64, 65
1, 501133, Note_on_c, 0, 74, 90
1, 501147, Control_c, 0, 64, 70
1, 501162, Control_c, 0, 64, 78
1, 501169, Note_off_c, 0, 72, 63
1, 501177, Control_c, 0, 64, 92
1, 501191, Control_c, 0, 64, 127
1, 501289, Note_on_c, 0, 38, 86
1, 501298, Note_on_c, 0, 72, 95
1, 501331, Note_off_c, 0, 74, 61
1, 501338, Note_off_c, 0, 39, 62
1, 501355, Control_c, 0, 64, 89
1, 501370, Control_c, 0, 64, 73
1, 501384, Control_c, 0, 64, 60
1, 501399, Control_c, 0, 64, 45
1, 501414, Control_c, 0, 64, 39
1, 501429, Control_c, 0, 64, 39
1, 501444, Control_c, 0, 64, 46
1, 501457, Note_on_c, 0, 74, 96
1, 501458, Control_c, 0, 64, 56
1, 501473, Control_c, 0, 64, 64
1, 501488, Control_c, 0, 64, 69
1, 501503, Control_c, 0, 64, 81
1, 501513, Note_off_c, 0, 72, 57
1, 501518, Control_c, 0, 64, 127
1, 501639, Note_on_c, 0, 36, 81
1, 501652, Note_on_c, 0, 75, 93
1, 501688, Note_off_c, 0, 38, 56
1, 501703, Control_c, 0, 64, 110
1, 501715, Note_off_c, 0, 74, 56
1, 501718, Control_c, 0, 64, 87
1, 501732, Control_c, 0, 64, 74
1, 501747, Control_c, 0, 64, 65
1, 501762, Control_c, 0, 64, 58
1, 501777, Control_c, 0, 64, 53
1, 501791, Control_c, 0, 64, 52
1, 501837, Control_c, 0, 64, 52
1, 501843, Note_on_c, 0, 77, 91
1, 501852, Control_c, 0, 64, 51
1, 501867, Control_c, 0, 64, 51
1, 501888, Note_off_c, 0, 75, 63
1, 501896, Control_c, 0, 64, 50
1, 501911, Control_c, 0, 64, 50
1, 501926, Control_c, 0, 64, 49
1, 501941, Control_c, 0, 64, 49
1, 502088, Control_c, 0, 64, 48
1, 502127, Note_on_c, 0, 34, 62
1, 502131, Note_on_c, 0, 38, 64
1, 502205, Note_off_c, 0, 36, 54
1, 502252, Control_c, 0, 64, 48
1, 502267, Control_c, 0, 64, 47
1, 502362, Control_c, 0, 64, 48
1, 502377, Control_c, 0, 64, 50
1, 502392, Control_c, 0, 64, 54
1, 502396, Note_on_c, 0, 41, 69
1, 502407, Control_c, 0, 64, 60
1, 502409, Note_off_c, 0, 38, 62
1, 502422, Control_c, 0, 64, 64
1, 502437, Control_c, 0, 64, 67
1, 502452, Control_c, 0, 64, 74
1, 502466, Note_off_c, 0, 34, 61
1, 502466, Control_c, 0, 64, 87
1, 502481, Control_c, 0, 64, 127
1, 502583, Note_on_c, 0, 46, 60
1, 502620, Note_on_c, 0, 89, 80
1, 502621, Note_off_c, 0, 41, 57
1, 502625, Note_on_c, 0, 86, 65
1, 502793, Note_on_c, 0, 47, 78
1, 502831, Note_off_c, 0, 46, 61
1, 502848, Note_off_c, 0, 89, 60
1, 502872, Note_off_c, 0, 86, 62
1, 502933, Note_on_c, 0, 50, 80
1, 502945, Note_on_c, 0, 89, 97
1, 502946, Note_off_c, 0, 47, 63
1, 502950, Note_on_c, 0, 86, 79
1, 503006, Note_off_c, 0, 50, 64
1, 503078, Note_on_c, 0, 55, 87
1, 503135, Note_off_c, 0, 89, 60
1, 503137, Note_off_c, 0, 86, 59
1, 503230, Control_c, 0, 64, 99
1, 503245, Note_on_c, 0, 56, 82
1, 503245, Note_on_c, 0, 86, 79
1, 503245, Control_c, 0, 64, 82
1, 503247, Note_on_c, 0, 89, 95
1, 503260, Control_c, 0, 64, 72
1, 503275, Control_c, 0, 64, 63
1, 503288, Note_on_c, 0, 57, 77
1, 503290, Control_c, 0, 64, 53
1, 503304, Control_c, 0, 64, 44
1, 503319, Control_c, 0, 64, 43
1, 503335, Note_off_c, 0, 55, 47
1, 503349, Control_c, 0, 64, 44
1, 503364, Control_c, 0, 64, 50
1, 503379, Control_c, 0, 64, 58
1, 503394, Note_on_c, 0, 59, 74
1, 503394, Control_c, 0, 64, 64
1, 503401, Note_off_c, 0, 57, 61
1, 503405, Note_off_c, 0, 56, 59
1, 503408, Control_c, 0, 64, 69
1, 503423, Control_c, 0, 64, 79
1, 503438, Note_off_c, 0, 86, 58
1, 503439, Control_c, 0, 64, 109
1, 503454, Control_c, 0, 64, 127
1, 503587, Control_c, 0, 64, 115
1, 503602, Control_c, 0, 64, 95
1, 503608, Note_off_c, 0, 59, 59
1, 503611, Note_on_c, 0, 64, 54
1, 503613, Note_on_c, 0, 65, 51
1, 503617, Control_c, 0, 64, 84
1, 503632, Control_c, 0, 64, 78
1, 503638, Note_on_c, 0, 88, 71
1, 503647, Control_c, 0, 64, 72
1, 503647, Note_on_c, 0, 86, 64
1, 503661, Control_c, 0, 64, 66
1, 503676, Control_c, 0, 64, 59
1, 503691, Control_c, 0, 64, 49
1, 503701, Note_off_c, 0, 65, 45
1, 503706, Control_c, 0, 64, 42
1, 503721, Control_c, 0, 64, 40
1, 503765, Control_c, 0, 64, 42
1, 503787, Note_off_c, 0, 77, 60
1, 503787, Control_c, 0, 64, 49
1, 503787, Note_off_c, 0, 89, 64
1, 503802, Control_c, 0, 64, 59
1, 503805, Note_on_c, 0, 62, 76
1, 503817, Control_c, 0, 64, 65
1, 503832, Control_c, 0, 64, 73
1, 503847, Control_c, 0, 64, 104
1, 503859, Note_off_c, 0, 64, 63
1, 503861, Control_c, 0, 64, 127
1, 503948, Note_on_c, 0, 74, 84
1, 503949, Note_on_c, 0, 58, 72
1, 503949, Note_on_c, 0, 76, 84
1, 503972, Note_off_c, 0, 62, 62
1, 504009, Note_off_c, 0, 58, 64
1, 504097, Note_on_c, 0, 53, 83
1, 504235, Note_on_c, 0, 50, 91
1, 504267, Note_off_c, 0, 53, 63
1, 504333, Note_off_c, 0, 88, 57
1, 504374, Note_on_c, 0, 46, 84
1, 504407, Note_off_c, 0, 50, 64
1, 504422, Note_off_c, 0, 76, 56
1, 504446, Note_off_c, 0, 46, 65
1, 504454, Note_off_c, 0, 86, 42
1, 504455, Note_off_c, 0, 74, 60
1, 504515, Note_on_c, 0, 41, 84
1, 504520, Note_on_c, 0, 77, 99
1, 504535, Note_on_c, 0, 74, 81
1, 504565, Control_c, 0, 64, 94
1, 504580, Control_c, 0, 64, 64
1, 504595, Control_c, 0, 64, 0
1, 504639, Control_c, 0, 64, 53
1, 504654, Control_c, 0, 64, 72
1, 504666, Note_on_c, 0, 38, 81
1, 504667, Note_off_c, 0, 74, 56
1, 504669, Control_c, 0, 64, 127
1, 504714, Note_off_c, 0, 41, 57
1, 504765, Note_off_c, 0, 38, 61
1, 504815, Note_on_c, 0, 34, 79
1, 504821, Note_on_c, 0, 38, 64
1, 504846, Control_c, 0, 64, 96
1, 504861, Control_c, 0, 64, 77
1, 504876, Control_c, 0, 64, 66
1, 504890, Control_c, 0, 64, 53
1, 504905, Control_c, 0, 64, 24
1, 504920, Control_c, 0, 64, 0
1, 504951, Note_on_c, 0, 37, 72
1, 504962, Note_off_c, 0, 38, 56
1, 505104, Note_on_c, 0, 38, 67
1, 505134, Note_off_c, 0, 37, 60
1, 505144, Note_on_c, 0, 89, 97
1, 505145, Note_on_c, 0, 86, 80
1, 505284, Control_c, 0, 64, 38
1, 505299, Control_c, 0, 64, 61
1, 505303, Note_off_c, 0, 38, 62
1, 505304, Note_on_c, 0, 41, 82
1, 505313, Control_c, 0, 64, 69
1, 505328, Control_c, 0, 64, 92
1, 505337, Note_off_c, 0, 34, 61
1, 505343, Control_c, 0, 64, 127
1, 505415, Note_off_c, 0, 89, 63
1, 505444, Note_on_c, 0, 46, 93
1, 505444, Note_off_c, 0, 86, 62
1, 505474, Note_off_c, 0, 41, 64
1, 505582, Note_on_c, 0, 47, 91
1, 505590, Note_on_c, 0, 89, 102
1, 505596, Note_on_c, 0, 86, 86
1, 505638, Note_on_c, 0, 79, 18
1, 505639, Note_off_c, 0, 79, 127
1, 505647, Note_off_c, 0, 46, 54
1, 505682, Note_off_c, 0, 89, 64
1, 505686, Note_off_c, 0, 86, 62
1, 505728, Note_on_c, 0, 50, 91
1, 505731, Note_off_c, 0, 47, 64
1, 505746, Note_on_c, 0, 89, 101
1, 505751, Note_on_c, 0, 86, 84
1, 505811, Note_off_c, 0, 50, 63
1, 505877, Control_c, 0, 64, 125
1, 505892, Note_on_c, 0, 55, 95
1, 505892, Control_c, 0, 64, 106
1, 505907, Control_c, 0, 64, 97
1, 505921, Control_c, 0, 64, 90
1, 505936, Control_c, 0, 64, 84
1, 505951, Control_c, 0, 64, 80
1, 505966, Control_c, 0, 64, 78
1, 505981, Control_c, 0, 64, 75
1, 505996, Control_c, 0, 64, 72
1, 506011, Control_c, 0, 64, 68
1, 506033, Control_c, 0, 64, 66
1, 506048, Control_c, 0, 64, 64
1, 506062, Control_c, 0, 64, 62
1, 506077, Control_c, 0, 64, 59
1, 506092, Control_c, 0, 64, 56
1, 506107, Control_c, 0, 64, 53
1, 506122, Control_c, 0, 64, 51
1, 506132, Note_on_c, 0, 56, 82
1, 506136, Control_c, 0, 64, 50
1, 506151, Control_c, 0, 64, 48
1, 506166, Control_c, 0, 64, 46
1, 506181, Control_c, 0, 64, 44
1, 506196, Control_c, 0, 64, 42
1, 506211, Control_c, 0, 64, 39
1, 506225, Control_c, 0, 64, 35
1, 506231, Note_off_c, 0, 55, 55
1, 506240, Control_c, 0, 64, 32
1, 506255, Control_c, 0, 64, 30
1, 506264, Note_off_c, 0, 86, 59
1, 506270, Control_c, 0, 64, 30
1, 506315, Control_c, 0, 64, 38
1, 506329, Control_c, 0, 64, 53
1, 506344, Control_c, 0, 64, 62
1, 506354, Note_on_c, 0, 59, 82
1, 506359, Control_c, 0, 64, 68
1, 506374, Control_c, 0, 64, 78
1, 506388, Control_c, 0, 64, 119
1, 506403, Control_c, 0, 64, 127
1, 506513, Note_on_c, 0, 88, 82
1, 506515, Note_off_c, 0, 59, 62
1, 506519, Note_on_c, 0, 86, 84
1, 506522, Note_on_c, 0, 64, 68
1, 506551, Control_c, 0, 64, 99
1, 506566, Control_c, 0, 64, 78
1, 506580, Control_c, 0, 64, 67
1, 506595, Control_c, 0, 64, 62
1, 506607, Note_off_c, 0, 89, 64
1, 506610, Control_c, 0, 64, 64
1, 506619, Note_off_c, 0, 77, 60
1, 506626, Control_c, 0, 64, 68
1, 506642, Control_c, 0, 64, 76
1, 506657, Control_c, 0, 64, 97
1, 506663, Note_on_c, 0, 63, 79
1, 506671, Control_c, 0, 64, 127
1, 506683, Note_off_c, 0, 64, 63
1, 506747, Note_off_c, 0, 56, 60
1, 506836, Note_on_c, 0, 74, 77
1, 506836, Note_off_c, 0, 63, 61
1, 506842, Note_on_c, 0, 76, 79
1, 506848, Note_on_c, 0, 62, 54
1, 506857, Control_c, 0, 64, 100
1, 506872, Control_c, 0, 64, 84
1, 506886, Control_c, 0, 64, 71
1, 506901, Control_c, 0, 64, 64
1, 506916, Control_c, 0, 64, 58
1, 506931, Control_c, 0, 64, 54
1, 506946, Control_c, 0, 64, 53
1, 506960, Control_c, 0, 64, 54
1, 506975, Control_c, 0, 64, 59
1, 506990, Control_c, 0, 64, 64
1, 506994, Note_on_c, 0, 58, 64
1, 507004, Control_c, 0, 64, 69
1, 507019, Control_c, 0, 64, 77
1, 507034, Control_c, 0, 64, 84
1, 507042, Note_off_c, 0, 88, 61
1, 507049, Control_c, 0, 64, 89
1, 507078, Control_c, 0, 64, 87
1, 507093, Control_c, 0, 64, 84
1, 507108, Control_c, 0, 64, 82
1, 507123, Control_c, 0, 64, 79
1, 507133, Note_off_c, 0, 62, 57
1, 507138, Control_c, 0, 64, 76
1, 507152, Note_on_c, 0, 53, 65
1, 507152, Control_c, 0, 64, 73
1, 507157, Note_on_c, 0, 77, 77
1, 507167, Control_c, 0, 64, 71
1, 507171, Note_off_c, 0, 76, 45
1, 507176, Note_off_c, 0, 86, 34
1, 507179, Note_off_c, 0, 58, 58
1, 507182, Control_c, 0, 64, 69
1, 507197, Control_c, 0, 64, 67
1, 507212, Control_c, 0, 64, 65
1, 507227, Control_c, 0, 64, 64
1, 507242, Control_c, 0, 64, 63
1, 507257, Control_c, 0, 64, 62
1, 507272, Control_c, 0, 64, 61
1, 507286, Control_c, 0, 64, 59
1, 507291, Note_on_c, 0, 50, 69
1, 507301, Control_c, 0, 64, 57
1, 507312, Note_off_c, 0, 53, 63
1, 507316, Control_c, 0, 64, 57
1, 507331, Control_c, 0, 64, 56
1, 507346, Control_c, 0, 64, 56
1, 507360, Control_c, 0, 64, 55
1, 507375, Control_c, 0, 64, 54
1, 507390, Control_c, 0, 64, 52
1, 507404, Control_c, 0, 64, 52
1, 507419, Control_c, 0, 64, 51
1, 507435, Control_c, 0, 64, 50
1, 507450, Control_c, 0, 64, 49
1, 507465, Control_c, 0, 64, 48
1, 507480, Control_c, 0, 64, 46
1, 507488, Note_off_c, 0, 50, 59
1, 507494, Control_c, 0, 64, 45
1, 507501, Note_on_c, 0, 46, 87
1, 507509, Control_c, 0, 64, 44
1, 507518, Note_on_c, 0, 48, 31
1, 507531, Control_c, 0, 64, 42
1, 507546, Control_c, 0, 64, 40
1, 507556, Note_off_c, 0, 48, 47
1, 507561, Control_c, 0, 64, 39
1, 507576, Control_c, 0, 64, 37
1, 507591, Control_c, 0, 64, 36
1, 507606, Control_c, 0, 64, 34
1, 507620, Control_c, 0, 64, 33
1, 507635, Control_c, 0, 64, 31
1, 507650, Control_c, 0, 64, 29
1, 507665, Control_c, 0, 64, 28
1, 507680, Control_c, 0, 64, 26
1, 507695, Control_c, 0, 64, 25
1, 507709, Control_c, 0, 64, 23
1, 507724, Control_c, 0, 64, 21
1, 507739, Control_c, 0, 64, 19
1, 507754, Control_c, 0, 64, 16
1, 507769, Control_c, 0, 64, 12
1, 507783, Control_c, 0, 64, 9
1, 507798, Control_c, 0, 64, 0
1, 507840, Note_on_c, 0, 70, 87
1, 507843, Note_on_c, 0, 58, 75
1, 507898, Note_off_c, 0, 74, 54
1, 508041, Note_off_c, 0, 58, 62
1, 508048, Note_off_c, 0, 70, 63
1, 508166, Note_on_c, 0, 70, 88
1, 508169, Note_on_c, 0, 58, 76
1, 508343, Note_off_c, 0, 58, 59
1, 508383, Note_off_c, 0, 70, 62
1, 508487, Note_on_c, 0, 70, 88
1, 508494, Note_on_c, 0, 58, 76
1, 508670, Note_off_c, 0, 58, 59
1, 508702, Note_off_c, 0, 70, 61
1, 508810, Note_on_c, 0, 70, 86
1, 508810, Note_on_c, 0, 58, 73
1, 508812, Note_on_c, 0, 68, 81
1, 508817, Note_on_c, 0, 56, 70
1, 508974, Note_off_c, 0, 58, 59
1, 508983, Note_off_c, 0, 56, 59
1, 509004, Note_off_c, 0, 68, 59
1, 509009, Note_off_c, 0, 70, 61
1, 509141, Note_on_c, 0, 58, 73
1, 509141, Note_on_c, 0, 70, 85
1, 509142, Note_on_c, 0, 68, 81
1, 509145, Note_on_c, 0, 56, 64
1, 509247, Note_off_c, 0, 77, 57
1, 509314, Note_off_c, 0, 58, 56
1, 509321, Note_off_c, 0, 56, 61
1, 509322, Note_off_c, 0, 70, 62
1, 509335, Note_off_c, 0, 68, 61
1, 509340, Note_off_c, 0, 46, 60
1, 509461, Note_on_c, 0, 68, 90
1, 509463, Note_on_c, 0, 70, 85
1, 509463, Note_on_c, 0, 58, 77
1, 509465, Note_on_c, 0, 46, 73
1, 509466, Note_on_c, 0, 56, 75
1, 509624, Note_off_c, 0, 58, 58
1, 509640, Note_off_c, 0, 56, 62
1, 509659, Note_off_c, 0, 68, 60
1, 509660, Note_off_c, 0, 70, 61
1, 509781, Note_on_c, 0, 58, 74
1, 509782, Note_on_c, 0, 56, 73
1, 509783, Note_on_c, 0, 70, 92
1, 509785, Note_on_c, 0, 68, 92
1, 509922, Note_off_c, 0, 58, 58
1, 509958, Note_off_c, 0, 56, 57
1, 509988, Note_off_c, 0, 68, 61
1, 509990, Note_off_c, 0, 70, 58
1, 510104, Note_on_c, 0, 58, 71
1, 510104, Note_on_c, 0, 75, 87
1, 510104, Note_on_c, 0, 68, 84
1, 510106, Note_on_c, 0, 63, 84
1, 510109, Note_on_c, 0, 70, 78
1, 510110, Note_on_c, 0, 56, 59
1, 510253, Note_off_c, 0, 58, 60
1, 510256, Note_off_c, 0, 56, 61
1, 510274, Note_off_c, 0, 46, 58
1, 510291, Note_off_c, 0, 75, 57
1, 510294, Note_off_c, 0, 63, 58
1, 510298, Note_off_c, 0, 68, 60
1, 510300, Note_off_c, 0, 70, 61
1, 510418, Note_on_c, 0, 58, 74
1, 510418, Note_on_c, 0, 56, 74
1, 510418, Note_on_c, 0, 63, 80
1, 510418, Note_on_c, 0, 75, 85
1, 510419, Note_on_c, 0, 68, 82
1, 510422, Note_on_c, 0, 70, 76
1, 510425, Note_on_c, 0, 46, 62
1, 510608, Note_off_c, 0, 56, 60
1, 510610, Note_off_c, 0, 58, 59
1, 510625, Note_off_c, 0, 63, 60
1, 510627, Note_off_c, 0, 46, 61
1, 510627, Note_off_c, 0, 68, 61
1, 510627, Note_off_c, 0, 70, 61
1, 510627, Note_off_c, 0, 75, 60
1, 510744, Note_on_c, 0, 58, 68
1, 510746, Note_on_c, 0, 63, 79
1, 510746, Note_on_c, 0, 75, 81
1, 510747, Note_on_c, 0, 46, 64
1, 510747, Note_on_c, 0, 68, 78
1, 510749, Note_on_c, 0, 70, 74
1, 510751, Note_on_c, 0, 56, 63
1, 510908, Note_off_c, 0, 56, 54
1, 510938, Note_off_c, 0, 58, 59
1, 510940, Note_off_c, 0, 63, 59
1, 510941, Note_off_c, 0, 75, 57
1, 510943, Note_off_c, 0, 68, 60
1, 510945, Note_off_c, 0, 70, 61
1, 510950, Note_off_c, 0, 46, 59
1, 511059, Note_on_c, 0, 63, 67
1, 511060, Note_on_c, 0, 75, 71
1, 511062, Note_on_c, 0, 57, 65
1, 511062, Note_on_c, 0, 68, 75
1, 511063, Note_on_c, 0, 70, 70
1, 511068, Note_on_c, 0, 45, 57
1, 511233, Note_off_c, 0, 57, 60
1, 511248, Note_off_c, 0, 45, 59
1, 511261, Note_off_c, 0, 63, 58
1, 511262, Note_off_c, 0, 68, 61
1, 511271, Note_off_c, 0, 70, 61
1, 511272, Note_off_c, 0, 75, 58
1, 511382, Note_on_c, 0, 63, 61
1, 511388, Note_on_c, 0, 75, 62
1, 511393, Note_on_c, 0, 68, 61
1, 511393, Note_on_c, 0, 70, 62
1, 511394, Note_on_c, 0, 56, 54
1, 511409, Note_on_c, 0, 44, 39
1, 511552, Note_off_c, 0, 44, 36
1, 511570, Note_off_c, 0, 56, 50
1, 511573, Note_off_c, 0, 63, 52
1, 511573, Note_off_c, 0, 75, 56
1, 511574, Note_off_c, 0, 68, 59
1, 511575, Note_off_c, 0, 70, 60
1, 511698, Note_on_c, 0, 63, 56
1, 511701, Note_on_c, 0, 75, 58
1, 511704, Note_on_c, 0, 68, 58
1, 511704, Note_on_c, 0, 70, 56
1, 511707, Note_on_c, 0, 55, 49
1, 511716, Note_on_c, 0, 43, 40
1, 511858, Note_off_c, 0, 55, 56
1, 511876, Note_off_c, 0, 63, 53
1, 511878, Note_off_c, 0, 68, 59
1, 511878, Note_off_c, 0, 70, 58
1, 511879, Note_off_c, 0, 75, 56
1, 511884, Note_off_c, 0, 43, 48
1, 512039, Note_on_c, 0, 63, 38
1, 512041, Note_on_c, 0, 68, 46
1, 512041, Note_on_c, 0, 75, 48
1, 512045, Note_on_c, 0, 70, 44
1, 512046, Note_on_c, 0, 54, 46
1, 512051, Note_on_c, 0, 42, 41
1, 512200, Note_off_c, 0, 75, 54
1, 512201, Note_off_c, 0, 68, 57
1, 512206, Note_off_c, 0, 42, 35
1, 512208, Note_off_c, 0, 70, 50
1, 512217, Note_off_c, 0, 54, 36
1, 512222, Note_off_c, 0, 63, 41
1, 512363, Note_on_c, 0, 75, 44
1, 512363, Note_on_c, 0, 63, 36
1, 512364, Note_on_c, 0, 68, 41
1, 512372, Note_on_c, 0, 41, 40
1, 512372, Note_on_c, 0, 70, 37
1, 512378, Note_on_c, 0, 53, 41
1, 512455, Note_off_c, 0, 41, 50
1, 512478, Note_off_c, 0, 63, 49
1, 512494, Note_off_c, 0, 70, 46
1, 512496, Note_off_c, 0, 53, 40
1, 512503, Note_off_c, 0, 68, 36
1, 512554, Note_off_c, 0, 75, 34
1, 512689, Control_c, 0, 67, 21
1, 512704, Control_c, 0, 67, 81
1, 512710, Note_on_c, 0, 71, 55
1, 512713, Note_on_c, 0, 69, 55
1, 512718, Note_on_c, 0, 64, 47
1, 512718, Note_on_c, 0, 76, 47
1, 512719, Control_c, 0, 67, 127
1, 512730, Note_off_c, 0, 71, 62
1, 512737, Note_off_c, 0, 69, 63
1, 512741, Note_off_c, 0, 76, 59
1, 512748, Note_off_c, 0, 64, 62
1, 512753, Note_on_c, 0, 59, 53
1, 512792, Note_off_c, 0, 59, 64
1, 512816, Note_on_c, 0, 56, 34
1, 512852, Note_off_c, 0, 56, 32
1, 512899, Note_on_c, 0, 47, 51
1, 512932, Note_off_c, 0, 47, 59
1, 512934, Note_on_c, 0, 44, 49
1, 512969, Note_off_c, 0, 44, 63
1, 512983, Note_on_c, 0, 40, 59
1, 512986, Note_on_c, 0, 71, 51
1, 512994, Note_on_c, 0, 78, 52
1, 512996, Note_on_c, 0, 73, 41
1, 513008, Note_off_c, 0, 71, 60
1, 513013, Note_off_c, 0, 40, 65
1, 513016, Note_off_c, 0, 78, 62
1, 513023, Note_off_c, 0, 73, 49
1, 513244, Note_on_c, 0, 80, 61
1, 513245, Note_on_c, 0, 73, 62
1, 513245, Note_on_c, 0, 75, 56
1, 513249, Note_on_c, 0, 64, 42
1, 513270, Note_off_c, 0, 75, 62
1, 513272, Note_off_c, 0, 73, 66
1, 513275, Note_off_c, 0, 64, 59
1, 513275, Note_off_c, 0, 80, 67
1, 513299, Note_on_c, 0, 59, 32
1, 513329, Note_off_c, 0, 59, 45
1, 513330, Note_on_c, 0, 56, 36
1, 513363, Note_off_c, 0, 56, 33
1, 513428, Note_on_c, 0, 47, 38
1, 513461, Note_off_c, 0, 47, 52
1, 513479, Note_on_c, 0, 44, 17
1, 513501, Note_on_c, 0, 75, 51
1, 513508, Note_on_c, 0, 40, 46
1, 513509, Note_off_c, 0, 44, 43
1, 513510, Note_on_c, 0, 81, 63
1, 513511, Note_on_c, 0, 76, 53
1, 513538, Note_off_c, 0, 75, 64
1, 513539, Note_off_c, 0, 76, 59
1, 513546, Note_off_c, 0, 81, 67
1, 513548, Note_off_c, 0, 40, 55
1, 513767, Note_on_c, 0, 80, 64
1, 513769, Note_on_c, 0, 73, 66
1, 513770, Note_on_c, 0, 75, 57
1, 513776, Note_on_c, 0, 64, 40
1, 513796, Note_off_c, 0, 73, 68
1, 513796, Note_off_c, 0, 75, 62
1, 513797, Note_off_c, 0, 80, 68
1, 513801, Note_off_c, 0, 64, 59
1, 513810, Note_on_c, 0, 59, 49
1, 513836, Note_off_c, 0, 59, 60
1, 513862, Note_on_c, 0, 56, 36
1, 513899, Note_off_c, 0, 56, 31
1, 513904, Note_on_c, 0, 75, 5
1, 513907, Note_off_c, 0, 75, 44
1, 513944, Note_on_c, 0, 47, 51
1, 513981, Note_on_c, 0, 44, 43
1, 513985, Note_off_c, 0, 47, 61
1, 514017, Note_off_c, 0, 44, 65
1, 514038, Note_on_c, 0, 40, 48
1, 514044, Note_on_c, 0, 76, 60
1, 514049, Note_on_c, 0, 68, 55
1, 514049, Note_on_c, 0, 80, 62
1, 514070, Note_off_c, 0, 40, 55
1, 514071, Note_off_c, 0, 68, 59
1, 514074, Note_off_c, 0, 76, 65
1, 514080, Note_off_c, 0, 80, 66
1, 514313, Note_on_c, 0, 64, 41
1, 514318, Note_on_c, 0, 75, 61
1, 514319, Note_on_c, 0, 80, 63
1, 514324, Note_on_c, 0, 73, 62
1, 514343, Note_off_c, 0, 64, 62
1, 514347, Note_off_c, 0, 75, 64
1, 514350, Note_on_c, 0, 59, 49
1, 514351, Note_off_c, 0, 80, 66
1, 514352, Note_off_c, 0, 73, 67
1, 514375, Note_off_c, 0, 59, 59
1, 514381, Note_on_c, 0, 56, 60
1, 514403, Note_off_c, 0, 56, 61
1, 514485, Note_on_c, 0, 47, 52
1, 514525, Note_on_c, 0, 44, 49
1, 514525, Note_off_c, 0, 47, 61
1, 514560, Note_off_c, 0, 44, 64
1, 514572, Note_on_c, 0, 40, 46
1, 514572, Note_on_c, 0, 75, 59
1, 514581, Note_on_c, 0, 81, 61
1, 514581, Note_on_c, 0, 76, 57
1, 514600, Note_off_c, 0, 76, 62
1, 514602, Note_off_c, 0, 75, 63
1, 514604, Note_off_c, 0, 40, 54
1, 514609, Note_off_c, 0, 81, 67
1, 514835, Note_on_c, 0, 64, 41
1, 514843, Note_on_c, 0, 80, 57
1, 514843, Note_on_c, 0, 73, 56
1, 514846, Note_on_c, 0, 75, 53
1, 514866, Note_off_c, 0, 64, 61
1, 514870, Note_off_c, 0, 75, 62
1, 514873, Note_off_c, 0, 73, 66
1, 514876, Note_on_c, 0, 59, 49
1, 514876, Note_off_c, 0, 80, 65
1, 514900, Note_off_c, 0, 59, 60
1, 514912, Note_on_c, 0, 56, 49
1, 514939, Note_off_c, 0, 56, 57
1, 515003, Note_on_c, 0, 47, 59
1, 515055, Note_off_c, 0, 47, 57
1, 515057, Note_on_c, 0, 44, 49
1, 515100, Note_off_c, 0, 44, 63
1, 515105, Note_on_c, 0, 72, 58
1, 515105, Note_on_c, 0, 81, 59
1, 515112, Note_on_c, 0, 69, 55
1, 515123, Note_on_c, 0, 40, 46
1, 515144, Note_off_c, 0, 72, 66
1, 515147, Note_off_c, 0, 81, 65
1, 515148, Note_off_c, 0, 69, 66
1, 515157, Note_off_c, 0, 40, 54
1, 515367, Note_on_c, 0, 76, 82
1, 515371, Note_on_c, 0, 69, 69
1, 515374, Note_on_c, 0, 71, 70
1, 515383, Note_on_c, 0, 64, 38
1, 515398, Note_off_c, 0, 69, 67
1, 515399, Note_on_c, 0, 62, 20
1, 515401, Note_off_c, 0, 71, 67
1, 515404, Note_on_c, 0, 59, 66
1, 515410, Note_off_c, 0, 64, 58
1, 515434, Note_off_c, 0, 62, 43
1, 515439, Note_off_c, 0, 59, 66
1, 515446, Note_on_c, 0, 56, 73
1, 515475, Note_off_c, 0, 56, 68
1, 515529, Note_on_c, 0, 47, 71
1, 515577, Note_on_c, 0, 44, 47
1, 515592, Note_off_c, 0, 47, 58
1, 515608, Note_off_c, 0, 44, 62
1, 515633, Note_on_c, 0, 40, 64
1, 515643, Note_on_c, 0, 68, 66
1, 515659, Note_on_c, 0, 66, 61
1, 515677, Note_off_c, 0, 68, 62
1, 515681, Note_off_c, 0, 40, 61
1, 515690, Note_on_c, 0, 44, 65
1, 515690, Note_off_c, 0, 66, 65
1, 515718, Note_off_c, 0, 44, 65
1, 515734, Note_on_c, 0, 47, 54
1, 515767, Note_off_c, 0, 47, 58
1, 515847, Note_on_c, 0, 55, 26
1, 515890, Note_off_c, 0, 55, 30
1, 515918, Note_on_c, 0, 64, 66
1, 515929, Control_c, 0, 64, 34
1, 515934, Note_on_c, 0, 68, 59
1, 515934, Note_on_c, 0, 71, 60
1, 515944, Control_c, 0, 64, 63
1, 515947, Note_off_c, 0, 64, 68
1, 515955, Note_off_c, 0, 76, 42
1, 515959, Control_c, 0, 64, 86
1, 515974, Control_c, 0, 64, 127
1, 515979, Note_off_c, 0, 68, 55
1, 516008, Note_off_c, 0, 71, 58
1, 516192, Note_on_c, 0, 76, 69
1, 516193, Note_on_c, 0, 68, 68
1, 516196, Control_c, 0, 64, 72
1, 516197, Note_on_c, 0, 71, 66
1, 516200, Note_on_c, 0, 59, 78
1, 516202, Note_on_c, 0, 67, 64
1, 516211, Control_c, 0, 64, 21
1, 516223, Note_on_c, 0, 56, 73
1, 516223, Note_off_c, 0, 68, 68
1, 516223, Note_off_c, 0, 76, 67
1, 516225, Note_off_c, 0, 67, 64
1, 516226, Control_c, 0, 64, 0
1, 516227, Note_off_c, 0, 59, 67
1, 516228, Note_off_c, 0, 71, 67
1, 516253, Note_off_c, 0, 56, 66
1, 516283, Note_on_c, 0, 52, 53
1, 516307, Note_off_c, 0, 52, 58
1, 516360, Note_on_c, 0, 47, 60
1, 516400, Note_off_c, 0, 47, 59
1, 516414, Note_on_c, 0, 44, 58
1, 516452, Note_off_c, 0, 44, 64
1, 516457, Note_on_c, 0, 40, 50
1, 516469, Note_on_c, 0, 73, 59
1, 516473, Note_on_c, 0, 78, 58
1, 516475, Note_on_c, 0, 66, 51
1, 516488, Note_off_c, 0, 40, 59
1, 516493, Note_on_c, 0, 70, 18
1, 516498, Note_off_c, 0, 66, 58
1, 516498, Note_off_c, 0, 73, 67
1, 516515, Note_off_c, 0, 78, 66
1, 516531, Note_off_c, 0, 70, 42
1, 516739, Note_on_c, 0, 71, 62
1, 516741, Note_on_c, 0, 79, 63
1, 516745, Note_on_c, 0, 69, 61
1, 516748, Note_on_c, 0, 76, 56
1, 516751, Note_on_c, 0, 59, 61
1, 516767, Note_off_c, 0, 71, 65
1, 516769, Note_off_c, 0, 79, 67
1, 516770, Note_on_c, 0, 56, 60
1, 516770, Note_off_c, 0, 76, 65
1, 516775, Note_off_c, 0, 69, 65
1, 516786, Note_off_c, 0, 59, 65
1, 516799, Note_off_c, 0, 56, 66
1, 516826, Note_on_c, 0, 52, 51
1, 516850, Note_off_c, 0, 52, 58
1, 516916, Note_on_c, 0, 47, 53
1, 516957, Note_off_c, 0, 47, 60
1, 516962, Note_on_c, 0, 44, 47
1, 516998, Note_off_c, 0, 44, 64
1, 517012, Note_on_c, 0, 80, 62
1, 517014, Note_on_c, 0, 71, 53
1, 517015, Note_on_c, 0, 40, 49
1, 517017, Note_on_c, 0, 68, 59
1, 517034, Note_off_c, 0, 71, 60
1, 517038, Note_off_c, 0, 68, 62
1, 517042, Note_off_c, 0, 80, 68
1, 517045, Note_off_c, 0, 40, 56
1, 517270, Note_on_c, 0, 83, 79
1, 517273, Note_on_c, 0, 70, 71
1, 517273, Note_on_c, 0, 80, 69
1, 517279, Note_on_c, 0, 63, 53
1, 517290, Note_on_c, 0, 76, 28
1, 517291, Note_off_c, 0, 83, 71
1, 517299, Note_off_c, 0, 70, 66
1, 517299, Note_off_c, 0, 80, 68
1, 517309, Note_off_c, 0, 63, 65
1, 517314, Note_off_c, 0, 76, 38
1, 517320, Note_on_c, 0, 59, 40
1, 517341, Note_on_c, 0, 56, 67
1, 517348, Note_off_c, 0, 59, 48
1, 517365, Note_off_c, 0, 56, 67
1, 517447, Note_on_c, 0, 83, 86
1, 517450, Note_on_c, 0, 71, 73
1, 517450, Note_on_c, 0, 77, 70
1, 517466, Note_off_c, 0, 71, 69
1, 517466, Note_off_c, 0, 77, 47
1, 517469, Note_off_c, 0, 83, 68
1, 517472, Note_on_c, 0, 39, 46
1, 517493, Note_on_c, 0, 35, 45
1, 517509, Note_off_c, 0, 39, 64
1, 517520, Note_on_c, 0, 32, 67
1, 517525, Note_off_c, 0, 35, 60
1, 517538, Note_on_c, 0, 78, 76
1, 517541, Note_on_c, 0, 87, 76
1, 517544, Note_on_c, 0, 84, 74
1, 517553, Note_off_c, 0, 32, 63
1, 517556, Note_off_c, 0, 78, 66
1, 517559, Note_off_c, 0, 87, 60
1, 517564, Note_off_c, 0, 84, 65
1, 517793, Note_on_c, 0, 77, 74
1, 517793, Note_on_c, 0, 86, 66
1, 517798, Note_on_c, 0, 64, 45
1, 517799, Note_on_c, 0, 72, 64
1, 517810, Note_off_c, 0, 86, 67
1, 517817, Note_off_c, 0, 72, 64
1, 517819, Note_off_c, 0, 77, 68
1, 517821, Note_on_c, 0, 61, 63
1, 517835, Note_off_c, 0, 64, 65
1, 517845, Note_off_c, 0, 61, 66
1, 517871, Note_on_c, 0, 57, 52
1, 517894, Note_off_c, 0, 57, 59
1, 517992, Note_on_c, 0, 40, 49
1, 518032, Note_on_c, 0, 37, 52
1, 518047, Note_off_c, 0, 40, 60
1, 518066, Note_on_c, 0, 33, 50
1, 518066, Note_off_c, 0, 37, 60
1, 518089, Note_on_c, 0, 73, 58
1, 518089, Note_on_c, 0, 76, 57
1, 518089, Note_on_c, 0, 85, 64
1, 518095, Note_on_c, 0, 81, 48
1, 518097, Note_off_c, 0, 33, 58
1, 518107, Note_off_c, 0, 73, 65
1, 518114, Note_off_c, 0, 81, 62
1, 518115, Note_off_c, 0, 76, 64
1, 518118, Note_off_c, 0, 85, 67
1, 518340, Note_on_c, 0, 76, 35
1, 518345, Note_on_c, 0, 85, 73
1, 518353, Note_on_c, 0, 71, 60
1, 518359, Note_on_c, 0, 81, 45
1, 518369, Note_off_c, 0, 85, 70
1, 518376, Note_off_c, 0, 76, 65
1, 518379, Note_off_c, 0, 71, 56
1, 518380, Note_off_c, 0, 81, 59
1, 518381, Note_on_c, 0, 66, 18
1, 518403, Note_on_c, 0, 61, 39
1, 518420, Note_on_c, 0, 57, 58
1, 518424, Note_off_c, 0, 66, 37
1, 518430, Note_off_c, 0, 61, 55
1, 518442, Note_off_c, 0, 57, 64
1, 518558, Note_on_c, 0, 42, 52
1, 518587, Note_on_c, 0, 37, 43
1, 518590, Note_off_c, 0, 42, 61
1, 518624, Note_on_c, 0, 73, 68
1, 518624, Note_off_c, 0, 37, 62
1, 518627, Note_on_c, 0, 33, 53
1, 518630, Note_on_c, 0, 61, 55
1, 518634, Note_on_c, 0, 64, 38
1, 518652, Note_off_c, 0, 61, 59
1, 518652, Note_off_c, 0, 73, 67
1, 518657, Note_on_c, 0, 69, 9
1, 518661, Note_off_c, 0, 33, 53
1, 518664, Note_off_c, 0, 64, 34
1, 518699, Note_off_c, 0, 69, 29
1, 518884, Note_on_c, 0, 68, 76
1, 518884, Note_on_c, 0, 80, 80
1, 518887, Note_on_c, 0, 63, 54
1, 518895, Note_on_c, 0, 72, 48
1, 518906, Note_off_c, 0, 68, 69
1, 518918, Note_off_c, 0, 72, 59
1, 518924, Note_off_c, 0, 63, 66
1, 518930, Note_on_c, 0, 60, 63
1, 518935, Note_off_c, 0, 80, 64
1, 518959, Note_off_c, 0, 60, 67
1, 518968, Note_on_c, 0, 56, 62
1, 518998, Note_off_c, 0, 56, 65
1, 519084, Note_on_c, 0, 42, 48
1, 519116, Note_off_c, 0, 42, 56
1, 519150, Note_on_c, 0, 80, 68
1, 519151, Note_on_c, 0, 83, 81
1, 519155, Note_on_c, 0, 72, 81
1, 519157, Note_on_c, 0, 76, 58
1, 519174, Note_off_c, 0, 83, 67
1, 519176, Note_on_c, 0, 35, 24
1, 519176, Note_off_c, 0, 80, 68
1, 519177, Note_off_c, 0, 76, 65
1, 519179, Note_off_c, 0, 72, 68
1, 519219, Note_off_c, 0, 35, 48
1, 519427, Note_on_c, 0, 59, 48
1, 519427, Note_on_c, 0, 61, 62
1, 519430, Note_on_c, 0, 64, 49
1, 519434, Note_on_c, 0, 71, 57
1, 519440, Note_on_c, 0, 68, 47
1, 519448, Note_off_c, 0, 61, 62
1, 519455, Note_on_c, 0, 56, 55
1, 519455, Note_off_c, 0, 64, 58
1, 519464, Note_off_c, 0, 68, 58
1, 519464, Note_off_c, 0, 71, 66
1, 519469, Note_off_c, 0, 59, 65
1, 519487, Note_off_c, 0, 56, 65
1, 519493, Note_on_c, 0, 52, 57
1, 519523, Note_off_c, 0, 52, 63
1, 519609, Note_on_c, 0, 42, 63
1, 519642, Note_on_c, 0, 39, 44
1, 519656, Note_off_c, 0, 42, 57
1, 519681, Note_off_c, 0, 39, 64
1, 519690, Note_on_c, 0, 83, 73
1, 519700, Note_on_c, 0, 73, 56
1, 519702, Note_on_c, 0, 35, 42
1, 519704, Note_on_c, 0, 80, 53
1, 519705, Note_on_c, 0, 71, 55
1, 519705, Note_on_c, 0, 76, 48
1, 519716, Note_off_c, 0, 83, 68
1, 519720, Note_off_c, 0, 73, 62
1, 519724, Note_off_c, 0, 80, 63
1, 519728, Note_off_c, 0, 76, 54
1, 519731, Note_off_c, 0, 71, 58
1, 519740, Note_off_c, 0, 35, 50
1, 519948, Note_on_c, 0, 76, 73
1, 519949, Note_on_c, 0, 60, 47
1, 519952, Note_on_c, 0, 67, 63
1, 519965, Note_on_c, 0, 70, 49
1, 519970, Note_on_c, 0, 74, 41
1, 519981, Note_off_c, 0, 67, 67
1, 519986, Note_off_c, 0, 76, 65
1, 519988, Note_on_c, 0, 55, 63
1, 519988, Note_off_c, 0, 70, 59
1, 519993, Note_off_c, 0, 74, 51
1, 519995, Note_off_c, 0, 60, 67
1, 520017, Note_off_c, 0, 55, 66
1, 520021, Note_on_c, 0, 52, 66
1, 520049, Note_off_c, 0, 52, 66
1, 520123, Note_on_c, 0, 42, 64
1, 520158, Note_on_c, 0, 39, 53
1, 520159, Note_off_c, 0, 42, 48
1, 520206, Note_off_c, 0, 39, 62
1, 520228, Note_on_c, 0, 35, 57
1, 520244, Note_on_c, 0, 78, 79
1, 520245, Note_on_c, 0, 71, 58
1, 520245, Note_on_c, 0, 75, 61
1, 520246, Note_on_c, 0, 66, 62
1, 520289, Control_c, 0, 64, 50
1, 520291, Note_off_c, 0, 35, 60
1, 520304, Control_c, 0, 64, 70
1, 520305, Note_on_c, 0, 39, 61
1, 520319, Control_c, 0, 64, 127
1, 520319, Note_off_c, 0, 66, 59
1, 520348, Note_off_c, 0, 71, 55
1, 520349, Note_on_c, 0, 42, 71
1, 520362, Note_off_c, 0, 39, 61
1, 520376, Note_off_c, 0, 75, 60
1, 520379, Note_off_c, 0, 42, 64
1, 520385, Note_on_c, 0, 47, 66
1, 520413, Note_off_c, 0, 47, 65
1, 520473, Note_on_c, 0, 53, 65
1, 520476, Note_on_c, 0, 55, 73
1, 520483, Note_off_c, 0, 78, 63
1, 520510, Note_off_c, 0, 53, 64
1, 520519, Note_on_c, 0, 59, 87
1, 520537, Note_off_c, 0, 55, 58
1, 520637, Note_off_c, 0, 59, 61
1, 520658, Note_on_c, 0, 83, 77
1, 520696, Note_on_c, 0, 87, 68
1, 520698, Note_on_c, 0, 63, 73
1, 520710, Note_off_c, 0, 83, 66
1, 520737, Note_on_c, 0, 90, 84
1, 520739, Note_on_c, 0, 66, 71
1, 520763, Note_off_c, 0, 63, 61
1, 520769, Note_off_c, 0, 87, 60
1, 520778, Control_c, 0, 64, 96
1, 520784, Note_off_c, 0, 66, 63
1, 520792, Note_on_c, 0, 91, 15
1, 520793, Control_c, 0, 64, 68
1, 520796, Note_on_c, 0, 78, 97
1, 520799, Note_on_c, 0, 70, 86
1, 520799, Note_off_c, 0, 90, 62
1, 520808, Control_c, 0, 64, 27
1, 520816, Note_off_c, 0, 91, 38
1, 520817, Note_off_c, 0, 70, 73
1, 520823, Control_c, 0, 64, 0
1, 520828, Note_off_c, 0, 78, 66
1, 521059, Note_on_c, 0, 76, 88
1, 521061, Note_on_c, 0, 70, 95
1, 521063, Note_on_c, 0, 71, 77
1, 521071, Note_on_c, 0, 75, 69
1, 521084, Note_off_c, 0, 71, 71
1, 521088, Note_off_c, 0, 76, 65
1, 521092, Note_off_c, 0, 75, 63
1, 521101, Note_off_c, 0, 70, 65
1, 521122, Note_on_c, 0, 69, 79
1, 521147, Note_off_c, 0, 69, 63
1, 521181, Note_on_c, 0, 68, 72
1, 521223, Note_off_c, 0, 68, 56
1, 521251, Note_on_c, 0, 67, 67
1, 521287, Note_off_c, 0, 67, 57
1, 521315, Note_on_c, 0, 74, 65
1, 521321, Note_on_c, 0, 66, 58
1, 521324, Note_on_c, 0, 78, 58
1, 521327, Note_on_c, 0, 73, 57
1, 521342, Note_off_c, 0, 74, 67
1, 521348, Note_off_c, 0, 73, 64
1, 521351, Note_off_c, 0, 66, 64
1, 521357, Note_off_c, 0, 78, 66
1, 521583, Note_on_c, 0, 71, 71
1, 521583, Note_on_c, 0, 80, 74
1, 521584, Note_on_c, 0, 59, 76
1, 521585, Note_on_c, 0, 75, 60
1, 521607, Note_on_c, 0, 57, 70
1, 521607, Note_off_c, 0, 71, 69
1, 521611, Note_off_c, 0, 75, 63
1, 521619, Note_off_c, 0, 80, 57
1, 521649, Note_on_c, 0, 56, 73
1, 521649, Note_off_c, 0, 59, 63
1, 521658, Note_off_c, 0, 57, 63
1, 521674, Note_off_c, 0, 56, 67
1, 521756, Note_on_c, 0, 52, 46
1, 521784, Note_off_c, 0, 52, 56
1, 521789, Note_on_c, 0, 51, 66
1, 521824, Note_on_c, 0, 49, 48
1, 521850, Note_on_c, 0, 73, 63
1, 521851, Note_off_c, 0, 51, 62
1, 521853, Note_on_c, 0, 47, 55
1, 521857, Note_on_c, 0, 76, 46
1, 521859, Note_on_c, 0, 81, 63
1, 521859, Note_off_c, 0, 49, 65
1, 521880, Note_off_c, 0, 73, 65
1, 521881, Note_off_c, 0, 76, 61
1, 521884, Note_off_c, 0, 47, 64
1, 521889, Note_off_c, 0, 81, 67
1, 522098, Control_c, 0, 64, 37
1, 522109, Note_on_c, 0, 37, 50
1, 522112, Control_c, 0, 64, 58
1, 522117, Note_on_c, 0, 83, 64
1, 522118, Note_on_c, 0, 78, 52
1, 522120, Note_on_c, 0, 74, 49
1, 522127, Control_c, 0, 64, 74
1, 522140, Note_on_c, 0, 42, 58
1, 522142, Control_c, 0, 64, 127
1, 522161, Note_off_c, 0, 78, 61
1, 522176, Note_off_c, 0, 37, 59
1, 522206, Note_off_c, 0, 42, 61
1, 522209, Note_off_c, 0, 83, 44
1, 522214, Note_on_c, 0, 45, 15
1, 522221, Note_on_c, 0, 49, 61
1, 522233, Note_off_c, 0, 74, 33
1, 522244, Note_off_c, 0, 49, 61
1, 522260, Note_off_c, 0, 45, 42
1, 522282, Note_on_c, 0, 54, 83
1, 522295, Note_on_c, 0, 58, 75
1, 522322, Note_off_c, 0, 58, 65
1, 522357, Note_off_c, 0, 54, 63
1, 522362, Note_on_c, 0, 81, 79
1, 522363, Note_on_c, 0, 76, 72
1, 522364, Control_c, 0, 67, 61
1, 522367, Note_on_c, 0, 80, 75
1, 522370, Note_on_c, 0, 61, 74
1, 522379, Control_c, 0, 67, 0
1, 522391, Note_off_c, 0, 76, 68
1, 522395, Note_off_c, 0, 61, 69
1, 522398, Note_off_c, 0, 80, 64
1, 522404, Note_off_c, 0, 81, 67
1, 522423, Control_c, 0, 64, 80
1, 522438, Control_c, 0, 64, 63
1, 522453, Control_c, 0, 64, 0
1, 522554, Note_on_c, 0, 64, 64
1, 522594, Note_on_c, 0, 69, 76
1, 522600, Poly_aftertouch_c, 0, 73, 0
1, 522605, Note_off_c, 0, 64, 65
1, 522608, Note_on_c, 0, 74, 80
1, 522609, Control_c, 0, 64, 64
1, 522624, Control_c, 0, 64, 79
1, 522639, Control_c, 0, 64, 127
1, 522668, Note_on_c, 0, 77, 85
1, 522671, Note_on_c, 0, 78, 103
1, 522702, Note_off_c, 0, 74, 64
1, 522718, Note_on_c, 0, 86, 67
1, 522728, Note_off_c, 0, 77, 54
1, 522743, Note_on_c, 0, 90, 79
1, 522772, Note_off_c, 0, 86, 67
1, 522775, Note_off_c, 0, 78, 61
1, 522786, Note_off_c, 0, 69, 56
1, 522787, Note_on_c, 0, 93, 83
1, 522790, Note_off_c, 0, 90, 65
1, 522843, Note_on_c, 0, 90, 69
1, 522856, Note_off_c, 0, 93, 63
1, 522875, Note_on_c, 0, 86, 75
1, 522896, Note_off_c, 0, 90, 64
1, 522919, Poly_aftertouch_c, 0, 73, 127
1, 522921, Note_off_c, 0, 86, 66
1, 522935, Control_c, 0, 64, 100
1, 522936, Note_on_c, 0, 76, 61
1, 522946, Note_on_c, 0, 81, 74
1, 522947, Note_on_c, 0, 69, 55
1, 522950, Control_c, 0, 64, 75
1, 522965, Control_c, 0, 64, 61
1, 522969, Note_off_c, 0, 76, 66
1, 522975, Poly_aftertouch_c, 0, 73, 0
1, 522976, Note_off_c, 0, 81, 67
1, 522979, Control_c, 0, 64, 26
1, 522987, Note_off_c, 0, 69, 66
1, 522994, Control_c, 0, 64, 0
1, 523193, Note_on_c, 0, 85, 74
1, 523199, Note_on_c, 0, 75, 67
1, 523213, Note_on_c, 0, 49, 54
1, 523220, Note_off_c, 0, 85, 68
1, 523228, Note_off_c, 0, 75, 67
1, 523251, Note_on_c, 0, 54, 66
1, 523264, Note_off_c, 0, 49, 58
1, 523301, Note_on_c, 0, 57, 64
1, 523304, Note_off_c, 0, 54, 61
1, 523330, Note_off_c, 0, 57, 66
1, 523340, Note_on_c, 0, 61, 63
1, 523372, Note_off_c, 0, 61, 65
1, 523435, Note_on_c, 0, 66, 41
1, 523463, Note_off_c, 0, 66, 55
1, 523486, Note_on_c, 0, 69, 28
1, 523500, Note_on_c, 0, 74, 65
1, 523504, Note_on_c, 0, 78, 72
1, 523507, Note_on_c, 0, 66, 56
1, 523516, Note_off_c, 0, 69, 47
1, 523527, Note_off_c, 0, 74, 67
1, 523531, Note_off_c, 0, 78, 68
1, 523533, Note_off_c, 0, 66, 63
1, 523829, Note_on_c, 0, 79, 74
1, 523833, Note_on_c, 0, 73, 71
1, 523836, Note_on_c, 0, 64, 60
1, 523840, Note_on_c, 0, 70, 62
1, 523859, Note_off_c, 0, 73, 68
1, 523864, Note_off_c, 0, 79, 64
1, 523866, Note_off_c, 0, 64, 66
1, 523866, Note_off_c, 0, 70, 67
1, 524221, Note_on_c, 0, 38, 93
1, 524230, Note_on_c, 0, 74, 90
1, 524231, Note_on_c, 0, 69, 66
1, 524232, Note_on_c, 0, 73, 68
1, 524233, Note_on_c, 0, 66, 77
1, 524260, Note_off_c, 0, 69, 68
1, 524269, Note_off_c, 0, 73, 61
1, 524280, Note_off_c, 0, 66, 62
1, 524514, Note_on_c, 0, 68, 67
1, 524519, Note_on_c, 0, 65, 61
1, 524531, Note_on_c, 0, 62, 58
1, 524561, Note_off_c, 0, 65, 62
1, 524572, Note_off_c, 0, 62, 61
1, 524591, Note_off_c, 0, 68, 60
1, 524810, Note_on_c, 0, 66, 53
1, 524816, Note_on_c, 0, 69, 58
1, 524817, Note_on_c, 0, 62, 53
1, 524922, Note_off_c, 0, 69, 55
1, 524937, Note_on_c, 0, 41, 56
1, 524945, Note_off_c, 0, 62, 34
1, 524947, Note_off_c, 0, 66, 34
1, 525078, Note_on_c, 0, 44, 60
1, 525081, Note_on_c, 0, 69, 51
1, 525089, Note_on_c, 0, 66, 41
1, 525094, Note_on_c, 0, 62, 43
1, 525131, Note_off_c, 0, 38, 48
1, 525174, Note_off_c, 0, 66, 50
1, 525182, Note_off_c, 0, 41, 55
1, 525187, Note_off_c, 0, 69, 56
1, 525206, Note_on_c, 0, 48, 67
1, 525211, Note_off_c, 0, 62, 38
1, 525288, Note_off_c, 0, 44, 60
1, 525351, Note_on_c, 0, 51, 67
1, 525362, Note_on_c, 0, 69, 45
1, 525366, Note_on_c, 0, 62, 44
1, 525367, Note_on_c, 0, 66, 40
1, 525369, Note_off_c, 0, 48, 64
1, 525454, Note_off_c, 0, 66, 50
1, 525460, Note_off_c, 0, 69, 58
1, 525482, Note_off_c, 0, 62, 50
1, 525485, Note_on_c, 0, 48, 70
1, 525507, Note_off_c, 0, 51, 61
1, 525634, Note_on_c, 0, 44, 68
1, 525649, Note_on_c, 0, 69, 49
1, 525650, Note_on_c, 0, 62, 43
1, 525653, Note_on_c, 0, 66, 38
1, 525656, Note_off_c, 0, 48, 60
1, 525726, Note_off_c, 0, 66, 53
1, 525741, Note_off_c, 0, 69, 60
1, 525744, Note_off_c, 0, 62, 49
1, 525763, Note_on_c, 0, 48, 77
1, 525816, Note_off_c, 0, 44, 60
1, 525896, Note_on_c, 0, 51, 84
1, 525909, Note_on_c, 0, 69, 61
1, 525914, Note_on_c, 0, 66, 59
1, 525922, Note_on_c, 0, 62, 52
1, 525938, Note_off_c, 0, 48, 62
1, 526007, Note_off_c, 0, 69, 58
1, 526008, Note_off_c, 0, 66, 54
1, 526012, Note_off_c, 0, 62, 54
1, 526024, Note_on_c, 0, 54, 83
1, 526035, Note_off_c, 0, 51, 65
1, 526161, Note_on_c, 0, 57, 78
1, 526181, Note_on_c, 0, 66, 59
1, 526184, Note_on_c, 0, 69, 63
1, 526187, Note_on_c, 0, 62, 59
1, 526191, Note_off_c, 0, 54, 63
1, 526227, Note_off_c, 0, 62, 62
1, 526259, Note_off_c, 0, 66, 60
1, 526275, Note_off_c, 0, 69, 60
1, 526290, Note_on_c, 0, 56, 78
1, 526322, Note_off_c, 0, 57, 61
1, 526457, Note_on_c, 0, 57, 63
1, 526463, Note_off_c, 0, 56, 63
1, 526469, Note_on_c, 0, 69, 71
1, 526473, Note_on_c, 0, 65, 56
1, 526476, Note_on_c, 0, 61, 55
1, 526515, Note_off_c, 0, 65, 61
1, 526519, Note_off_c, 0, 61, 61
1, 526583, Note_on_c, 0, 62, 52
1, 526677, Note_off_c, 0, 62, 39
1, 526716, Note_off_c, 0, 74, 40
1, 526740, Note_off_c, 0, 69, 50
1, 526750, Note_on_c, 0, 63, 52
1, 526755, Note_on_c, 0, 71, 45
1, 526757, Note_on_c, 0, 66, 44
1, 526782, Note_off_c, 0, 66, 57
1, 526785, Note_off_c, 0, 63, 65
1, 526788, Note_off_c, 0, 71, 65
1, 527033, Note_on_c, 0, 73, 60
1, 527038, Note_on_c, 0, 64, 54
1, 527044, Note_on_c, 0, 69, 45
1, 527065, Note_off_c, 0, 73, 65
1, 527070, Note_off_c, 0, 64, 65
1, 527071, Note_off_c, 0, 69, 59
1, 527303, Note_on_c, 0, 65, 51
1, 527313, Note_on_c, 0, 74, 54
1, 527315, Note_on_c, 0, 71, 52
1, 527336, Note_off_c, 0, 71, 61
1, 527342, Note_off_c, 0, 65, 64
1, 527346, Note_off_c, 0, 74, 64
1, 527593, Note_on_c, 0, 73, 54
1, 527598, Note_on_c, 0, 66, 49
1, 527604, Note_on_c, 0, 69, 40
1, 527613, Note_off_c, 0, 73, 63
1, 527623, Note_off_c, 0, 66, 59
1, 527631, Note_off_c, 0, 69, 53
1, 527876, Note_on_c, 0, 61, 55
1, 527878, Note_on_c, 0, 73, 62
1, 527879, Note_on_c, 0, 71, 58
1, 527908, Note_off_c, 0, 71, 65
1, 527908, Note_off_c, 0, 73, 66
1, 527910, Note_off_c, 0, 61, 64
1, 528162, Note_on_c, 0, 68, 62
1, 528165, Note_on_c, 0, 73, 60
1, 528177, Note_on_c, 0, 69, 51
1, 528198, Note_off_c, 0, 73, 65
1, 528201, Note_off_c, 0, 68, 62
1, 528202, Note_off_c, 0, 69, 62
1, 528437, Note_on_c, 0, 74, 66
1, 528443, Note_on_c, 0, 69, 57
1, 528456, Note_on_c, 0, 66, 44
1, 528475, Note_off_c, 0, 69, 66
1, 528475, Note_off_c, 0, 74, 61
1, 528481, Note_off_c, 0, 66, 55
1, 528482, Note_off_c, 0, 57, 65
1, 528713, Note_on_c, 0, 45, 91
1, 528725, Note_on_c, 0, 73, 72
1, 528727, Note_on_c, 0, 69, 68
1, 528731, Note_on_c, 0, 68, 69
1, 528755, Note_off_c, 0, 69, 67
1, 528761, Note_off_c, 0, 68, 66
1, 528784, Note_off_c, 0, 73, 61
1, 528995, Note_on_c, 0, 74, 80
1, 529000, Note_on_c, 0, 69, 63
1, 529002, Note_on_c, 0, 66, 65
1, 529030, Note_off_c, 0, 69, 66
1, 529036, Note_off_c, 0, 74, 60
1, 529036, Note_off_c, 0, 66, 63
1, 529266, Note_on_c, 0, 69, 83
1, 529282, Note_on_c, 0, 64, 57
1, 529284, Note_on_c, 0, 61, 56
1, 529325, Note_off_c, 0, 64, 57
1, 529334, Note_off_c, 0, 61, 52
1, 529395, Note_on_c, 0, 48, 54
1, 529530, Note_on_c, 0, 51, 56
1, 529546, Note_on_c, 0, 64, 44
1, 529552, Note_on_c, 0, 61, 45
1, 529566, Note_off_c, 0, 45, 33
1, 529628, Note_off_c, 0, 61, 46
1, 529643, Note_off_c, 0, 48, 46
1, 529647, Note_off_c, 0, 64, 50
1, 529661, Note_on_c, 0, 55, 61
1, 529709, Note_off_c, 0, 51, 60
1, 529810, Note_on_c, 0, 58, 59
1, 529813, Note_off_c, 0, 55, 61
1, 529816, Note_on_c, 0, 64, 46
1, 529834, Note_on_c, 0, 61, 37
1, 529906, Note_off_c, 0, 61, 46
1, 529930, Note_off_c, 0, 64, 47
1, 529938, Note_on_c, 0, 55, 68
1, 529968, Note_off_c, 0, 58, 59
1, 530075, Note_on_c, 0, 51, 76
1, 530095, Note_on_c, 0, 64, 54
1, 530108, Note_on_c, 0, 61, 56
1, 530112, Note_off_c, 0, 55, 61
1, 530159, Note_off_c, 0, 61, 53
1, 530168, Note_off_c, 0, 64, 60
1, 530199, Note_on_c, 0, 55, 83
1, 530245, Note_off_c, 0, 51, 62
1, 530343, Note_on_c, 0, 58, 82
1, 530347, Note_on_c, 0, 64, 63
1, 530350, Note_on_c, 0, 61, 62
1, 530368, Note_off_c, 0, 55, 63
1, 530380, Note_off_c, 0, 61, 65
1, 530415, Note_off_c, 0, 64, 60
1, 530475, Note_on_c, 0, 61, 76
1, 530482, Note_off_c, 0, 58, 65
1, 530616, Note_on_c, 0, 64, 76
1, 530634, Note_off_c, 0, 61, 59
1, 530725, Note_on_c, 0, 63, 69
1, 530753, Note_off_c, 0, 69, 56
1, 530757, Note_off_c, 0, 64, 61
1, 530910, Note_on_c, 0, 64, 65
1, 530939, Note_off_c, 0, 63, 59
1, 531186, Control_c, 0, 64, 13
1, 531201, Control_c, 0, 64, 25
1, 531214, Note_on_c, 0, 71, 42
1, 531216, Control_c, 0, 64, 39
1, 531217, Note_on_c, 0, 68, 41
1, 531231, Control_c, 0, 64, 49
1, 531246, Control_c, 0, 64, 56
1, 531260, Control_c, 0, 64, 62
1, 531275, Control_c, 0, 64, 67
1, 531287, Note_off_c, 0, 71, 60
1, 531290, Control_c, 0, 64, 77
1, 531302, Note_off_c, 0, 68, 60
1, 531305, Control_c, 0, 64, 104
1, 531320, Control_c, 0, 64, 127
1, 531326, Note_on_c, 0, 76, 53
1, 531474, Note_off_c, 0, 76, 58
1, 531479, Note_on_c, 0, 84, 64
1, 531489, Note_on_c, 0, 75, 43
1, 531490, Control_c, 0, 64, 96
1, 531500, Note_on_c, 0, 72, 37
1, 531505, Control_c, 0, 64, 78
1, 531520, Control_c, 0, 64, 68
1, 531535, Control_c, 0, 64, 63
1, 531550, Control_c, 0, 64, 60
1, 531564, Control_c, 0, 64, 61
1, 531579, Control_c, 0, 64, 62
1, 531594, Control_c, 0, 64, 65
1, 531606, Note_off_c, 0, 72, 58
1, 531609, Control_c, 0, 64, 70
1, 531618, Note_off_c, 0, 75, 54
1, 531623, Control_c, 0, 64, 81
1, 531638, Control_c, 0, 64, 116
1, 531653, Control_c, 0, 64, 127
1, 531725, Note_on_c, 0, 66, 33
1, 531763, Note_on_c, 0, 75, 58
1, 531805, Note_on_c, 0, 77, 34
1, 531843, Note_off_c, 0, 77, 46
1, 531852, Note_off_c, 0, 84, 63
1, 531862, Note_off_c, 0, 75, 55
1, 531879, Note_on_c, 0, 83, 70
1, 532008, Control_c, 0, 64, 103
1, 532022, Note_on_c, 0, 70, 44
1, 532023, Control_c, 0, 64, 93
1, 532025, Note_on_c, 0, 94, 69
1, 532036, Note_on_c, 0, 73, 40
1, 532038, Control_c, 0, 64, 87
1, 532053, Control_c, 0, 64, 83
1, 532068, Control_c, 0, 64, 79
1, 532082, Control_c, 0, 64, 74
1, 532097, Control_c, 0, 64, 68
1, 532112, Control_c, 0, 64, 64
1, 532126, Control_c, 0, 64, 61
1, 532141, Control_c, 0, 64, 58
1, 532150, Note_on_c, 0, 92, 74
1, 532156, Control_c, 0, 64, 57
1, 532165, Note_off_c, 0, 66, 47
1, 532170, Note_off_c, 0, 83, 27
1, 532171, Control_c, 0, 64, 55
1, 532186, Control_c, 0, 64, 53
1, 532201, Control_c, 0, 64, 51
1, 532216, Control_c, 0, 64, 50
1, 532238, Control_c, 0, 64, 49
1, 532253, Control_c, 0, 64, 49
1, 532254, Note_off_c, 0, 73, 36
1, 532283, Control_c, 0, 64, 48
1, 532313, Note_on_c, 0, 91, 58
1, 532318, Note_on_c, 0, 74, 35
1, 532319, Note_on_c, 0, 77, 34
1, 532354, Note_off_c, 0, 94, 39
1, 532373, Control_c, 0, 64, 50
1, 532374, Note_off_c, 0, 70, 52
1, 532387, Note_off_c, 0, 92, 52
1, 532387, Control_c, 0, 64, 53
1, 532402, Control_c, 0, 64, 57
1, 532417, Control_c, 0, 64, 61
1, 532432, Control_c, 0, 64, 65
1, 532439, Note_off_c, 0, 74, 58
1, 532446, Control_c, 0, 64, 68
1, 532461, Control_c, 0, 64, 72
1, 532472, Note_off_c, 0, 77, 33
1, 532476, Control_c, 0, 64, 79
1, 532491, Control_c, 0, 64, 85
1, 532506, Control_c, 0, 64, 90
1, 532520, Control_c, 0, 64, 92
1, 532537, Note_off_c, 0, 91, 58
1, 532580, Control_c, 0, 64, 92
1, 532583, Note_on_c, 0, 84, 60
1, 532585, Note_on_c, 0, 68, 44
1, 532594, Control_c, 0, 64, 91
1, 532609, Control_c, 0, 64, 90
1, 532624, Control_c, 0, 64, 89
1, 532639, Control_c, 0, 64, 88
1, 532654, Control_c, 0, 64, 87
1, 532669, Control_c, 0, 64, 85
1, 532682, Note_off_c, 0, 68, 48
1, 532684, Control_c, 0, 64, 82
1, 532699, Control_c, 0, 64, 80
1, 532706, Note_on_c, 0, 83, 75
1, 532713, Control_c, 0, 64, 79
1, 532722, Note_on_c, 0, 67, 51
1, 532728, Control_c, 0, 64, 77
1, 532741, Note_off_c, 0, 84, 62
1, 532743, Control_c, 0, 64, 75
1, 532757, Control_c, 0, 64, 72
1, 532772, Control_c, 0, 64, 71
1, 532787, Control_c, 0, 64, 70
1, 532802, Control_c, 0, 64, 69
1, 532817, Control_c, 0, 64, 68
1, 532830, Note_on_c, 0, 82, 70
1, 532831, Control_c, 0, 64, 66
1, 532842, Note_on_c, 0, 68, 47
1, 532847, Control_c, 0, 64, 63
1, 532850, Note_off_c, 0, 83, 61
1, 532862, Control_c, 0, 64, 62
1, 532877, Control_c, 0, 64, 60
1, 532881, Note_off_c, 0, 67, 32
1, 532892, Control_c, 0, 64, 59
1, 532906, Control_c, 0, 64, 57
1, 532919, Note_off_c, 0, 68, 55
1, 532921, Control_c, 0, 64, 55
1, 532936, Control_c, 0, 64, 53
1, 532951, Note_off_c, 0, 82, 62
1, 532951, Control_c, 0, 64, 52
1, 532952, Note_on_c, 0, 69, 43
1, 532954, Note_on_c, 0, 81, 57
1, 532965, Control_c, 0, 64, 50
1, 532988, Control_c, 0, 64, 49
1, 533003, Control_c, 0, 64, 47
1, 533018, Control_c, 0, 64, 46
1, 533033, Control_c, 0, 64, 44
1, 533048, Control_c, 0, 64, 41
1, 533062, Control_c, 0, 64, 40
1, 533077, Control_c, 0, 64, 39
1, 533098, Note_off_c, 0, 69, 48
1, 533107, Note_off_c, 0, 81, 58
1, 533118, Note_on_c, 0, 80, 53
1, 533125, Note_on_c, 0, 68, 41
1, 533137, Control_c, 0, 64, 40
1, 533152, Control_c, 0, 64, 44
1, 533167, Control_c, 0, 64, 50
1, 533182, Control_c, 0, 64, 56
1, 533196, Control_c, 0, 64, 61
1, 533211, Control_c, 0, 64, 64
1, 533226, Control_c, 0, 64, 69
1, 533229, Note_off_c, 0, 64, 36
1, 533241, Control_c, 0, 64, 77
1, 533256, Control_c, 0, 64, 101
1, 533270, Control_c, 0, 64, 127
1, 533290, Note_off_c, 0, 68, 56
1, 533337, Note_off_c, 0, 80, 44
1, 533390, Note_on_c, 0, 64, 75
1, 533492, Control_c, 0, 64, 108
1, 533507, Control_c, 0, 64, 90
1, 533522, Note_on_c, 0, 76, 62
1, 533522, Control_c, 0, 64, 78
1, 533536, Control_c, 0, 64, 71
1, 533551, Control_c, 0, 64, 69
1, 533566, Control_c, 0, 64, 68
1, 533581, Control_c, 0, 64, 67
1, 533596, Control_c, 0, 64, 65
1, 533611, Control_c, 0, 64, 62
1, 533626, Control_c, 0, 64, 58
1, 533641, Control_c, 0, 64, 57
1, 533655, Control_c, 0, 64, 56
1, 533660, Note_on_c, 0, 84, 67
1, 533670, Control_c, 0, 64, 55
1, 533674, Note_on_c, 0, 72, 41
1, 533679, Note_off_c, 0, 76, 56
1, 533680, Note_on_c, 0, 75, 46
1, 533685, Control_c, 0, 64, 54
1, 533700, Control_c, 0, 64, 54
1, 533751, Control_c, 0, 64, 55
1, 533766, Control_c, 0, 64, 59
1, 533781, Control_c, 0, 64, 63
1, 533793, Note_off_c, 0, 75, 60
1, 533797, Control_c, 0, 64, 68
1, 533811, Control_c, 0, 64, 75
1, 533826, Control_c, 0, 64, 91
1, 533834, Note_off_c, 0, 72, 64
1, 533841, Control_c, 0, 64, 127
1, 533850, Poly_aftertouch_c, 0, 65, 127
1, 533963, Poly_aftertouch_c, 0, 68, 127
1, 533965, Note_on_c, 0, 78, 59
1, 533972, Note_on_c, 0, 75, 56
1, 534033, Note_off_c, 0, 84, 64
1, 534061, Note_on_c, 0, 83, 70
1, 534061, Note_off_c, 0, 75, 61
1, 534127, Poly_aftertouch_c, 0, 68, 0
1, 534211, Control_c, 0, 64, 125
1, 534214, Note_on_c, 0, 94, 69
1, 534219, Note_on_c, 0, 73, 41
1, 534221, Note_on_c, 0, 70, 39
1, 534226, Control_c, 0, 64, 111
1, 534241, Control_c, 0, 64, 98
1, 534244, Note_off_c, 0, 78, 39
1, 534256, Control_c, 0, 64, 90
1, 534271, Control_c, 0, 64, 84
1, 534285, Control_c, 0, 64, 80
1, 534300, Control_c, 0, 64, 75
1, 534315, Control_c, 0, 64, 70
1, 534330, Control_c, 0, 64, 65
1, 534341, Note_on_c, 0, 92, 76
1, 534345, Control_c, 0, 64, 60
1, 534359, Control_c, 0, 64, 57
1, 534374, Control_c, 0, 64, 56
1, 534389, Control_c, 0, 64, 56
1, 534392, Note_off_c, 0, 83, 31
1, 534407, Note_off_c, 0, 73, 41
1, 534419, Control_c, 0, 64, 56
1, 534434, Control_c, 0, 64, 58
1, 534449, Control_c, 0, 64, 59
1, 534464, Control_c, 0, 64, 61
1, 534485, Control_c, 0, 64, 63
1, 534489, Note_on_c, 0, 91, 74
1, 534499, Note_on_c, 0, 77, 45
1, 534500, Control_c, 0, 64, 65
1, 534510, Note_on_c, 0, 74, 30
1, 534515, Control_c, 0, 64, 68
1, 534530, Control_c, 0, 64, 74
1, 534533, Note_off_c, 0, 94, 56
1, 534545, Control_c, 0, 64, 79
1, 534559, Control_c, 0, 64, 83
1, 534574, Control_c, 0, 64, 86
1, 534590, Control_c, 0, 64, 90
1, 534598, Note_off_c, 0, 70, 36
1, 534605, Control_c, 0, 64, 93
1, 534614, Note_off_c, 0, 74, 56
1, 534614, Note_off_c, 0, 92, 35
1, 534620, Control_c, 0, 64, 94
1, 534664, Control_c, 0, 64, 94
1, 534684, Note_off_c, 0, 77, 35
1, 534738, Control_c, 0, 64, 94
1, 534740, Note_off_c, 0, 91, 56
1, 534753, Control_c, 0, 64, 93
1, 534768, Control_c, 0, 64, 92
1, 534782, Control_c, 0, 64, 90
1, 534785, Note_on_c, 0, 68, 43
1, 534785, Note_on_c, 0, 84, 60
1, 534797, Control_c, 0, 64, 89
1, 534812, Control_c, 0, 64, 87
1, 534827, Control_c, 0, 64, 85
1, 534842, Control_c, 0, 64, 82
1, 534857, Control_c, 0, 64, 80
1, 534872, Control_c, 0, 64, 78
1, 534887, Control_c, 0, 64, 77
1, 534902, Control_c, 0, 64, 75
1, 534905, Note_on_c, 0, 83, 79
1, 534914, Note_on_c, 0, 67, 57
1, 534916, Control_c, 0, 64, 72
1, 534928, Note_off_c, 0, 68, 34
1, 534931, Control_c, 0, 64, 70
1, 534946, Control_c, 0, 64, 69
1, 534961, Control_c, 0, 64, 69
1, 534976, Control_c, 0, 64, 68
1, 534990, Control_c, 0, 64, 65
1, 535005, Control_c, 0, 64, 63
1, 535015, Note_off_c, 0, 84, 36
1, 535020, Control_c, 0, 64, 60
1, 535034, Control_c, 0, 64, 59
1, 535044, Note_on_c, 0, 82, 76
1, 535049, Control_c, 0, 64, 58
1, 535050, Note_on_c, 0, 68, 59
1, 535057, Note_off_c, 0, 83, 63
1, 535064, Control_c, 0, 64, 57
1, 535079, Note_off_c, 0, 67, 56
1, 535079, Control_c, 0, 64, 54
1, 535080, Note_off_c, 0, 64, 49
1, 535081, Poly_aftertouch_c, 0, 65, 0
1, 535094, Control_c, 0, 64, 52
1, 535108, Control_c, 0, 64, 49
1, 535123, Control_c, 0, 64, 47
1, 535138, Control_c, 0, 64, 45
1, 535153, Control_c, 0, 64, 44
1, 535168, Control_c, 0, 64, 42
1, 535173, Note_on_c, 0, 70, 46
1, 535182, Control_c, 0, 64, 41
1, 535197, Control_c, 0, 64, 39
1, 535212, Note_off_c, 0, 68, 48
1, 535212, Control_c, 0, 64, 37
1, 535234, Control_c, 0, 64, 36
1, 535249, Control_c, 0, 64, 35
1, 535264, Control_c, 0, 64, 34
1, 535279, Control_c, 0, 64, 33
1, 535294, Control_c, 0, 64, 31
1, 535308, Control_c, 0, 64, 31
1, 535323, Control_c, 0, 64, 30
1, 535332, Note_on_c, 0, 69, 37
1, 535337, Note_on_c, 0, 81, 54
1, 535338, Control_c, 0, 64, 29
1, 535345, Note_off_c, 0, 70, 37
1, 535350, Note_off_c, 0, 82, 58
1, 535353, Control_c, 0, 64, 28
1, 535367, Control_c, 0, 64, 28
1, 535384, Control_c, 0, 64, 27
1, 535399, Control_c, 0, 64, 27
1, 535428, Control_c, 0, 64, 26
1, 535457, Control_c, 0, 64, 25
1, 535487, Control_c, 0, 64, 25
1, 535502, Control_c, 0, 64, 24
1, 535517, Control_c, 0, 64, 24
1, 535531, Control_c, 0, 64, 23
1, 535546, Control_c, 0, 64, 21
1, 535561, Control_c, 0, 64, 19
1, 535576, Control_c, 0, 64, 15
1, 535591, Control_c, 0, 64, 0
1, 535602, Note_on_c, 0, 64, 55
1, 535608, Note_on_c, 0, 72, 80
1, 535629, Note_off_c, 0, 69, 44
1, 535665, Note_off_c, 0, 81, 53
1, 535710, Note_on_c, 0, 71, 85
1, 535718, Note_on_c, 0, 63, 56
1, 535745, Note_off_c, 0, 64, 47
1, 535805, Note_off_c, 0, 72, 60
1, 535868, Note_on_c, 0, 68, 55
1, 535868, Note_on_c, 0, 76, 80
1, 535873, Note_off_c, 0, 71, 63
1, 535879, Note_off_c, 0, 63, 54
1, 536147, Note_on_c, 0, 70, 51
1, 536148, Note_on_c, 0, 73, 46
1, 536148, Note_on_c, 0, 78, 53
1, 536172, Note_off_c, 0, 73, 61
1, 536183, Note_off_c, 0, 70, 65
1, 536185, Note_off_c, 0, 78, 66
1, 536434, Note_on_c, 0, 80, 53
1, 536437, Note_on_c, 0, 75, 39
1, 536443, Note_on_c, 0, 72, 46
1, 536462, Note_off_c, 0, 75, 50
1, 536467, Note_off_c, 0, 72, 61
1, 536472, Note_off_c, 0, 80, 65
1, 536710, Note_on_c, 0, 77, 46
1, 536711, Note_on_c, 0, 74, 51
1, 536711, Note_on_c, 0, 81, 56
1, 536739, Note_off_c, 0, 74, 61
1, 536739, Note_off_c, 0, 77, 57
1, 536748, Note_off_c, 0, 81, 66
1, 536982, Note_on_c, 0, 75, 44
1, 536989, Note_on_c, 0, 80, 52
1, 537006, Note_off_c, 0, 75, 55
1, 537012, Note_on_c, 0, 72, 21
1, 537023, Note_off_c, 0, 80, 64
1, 537043, Note_off_c, 0, 72, 45
1, 537257, Note_on_c, 0, 74, 50
1, 537257, Note_on_c, 0, 81, 50
1, 537259, Note_on_c, 0, 77, 46
1, 537277, Note_off_c, 0, 74, 61
1, 537278, Note_off_c, 0, 81, 63
1, 537282, Note_off_c, 0, 77, 55
1, 537523, Note_on_c, 0, 80, 55
1, 537528, Note_on_c, 0, 75, 33
1, 537532, Note_on_c, 0, 72, 37
1, 537543, Note_off_c, 0, 80, 62
1, 537559, Note_off_c, 0, 75, 34
1, 537561, Note_off_c, 0, 72, 53
1, 537795, Note_on_c, 0, 75, 64
1, 537799, Note_on_c, 0, 84, 66
1, 537805, Note_on_c, 0, 80, 50
1, 537823, Note_off_c, 0, 75, 67
1, 537826, Note_off_c, 0, 80, 61
1, 537831, Note_off_c, 0, 84, 61
1, 538063, Note_on_c, 0, 79, 45
1, 538067, Note_on_c, 0, 77, 54
1, 538072, Note_on_c, 0, 83, 45
1, 538085, Note_off_c, 0, 79, 59
1, 538088, Note_off_c, 0, 77, 63
1, 538096, Note_off_c, 0, 83, 58
1, 538154, Note_off_c, 0, 76, 58
1, 538184, Note_on_c, 0, 75, 64
1, 538349, Note_on_c, 0, 84, 59
1, 538349, Note_on_c, 0, 88, 60
1, 538351, Note_on_c, 0, 79, 57
1, 538354, Note_on_c, 0, 76, 66
1, 538371, Note_off_c, 0, 75, 56
1, 538377, Note_off_c, 0, 84, 66
1, 538385, Note_off_c, 0, 88, 62
1, 538386, Note_off_c, 0, 79, 64
1, 538614, Note_on_c, 0, 83, 69
1, 538616, Note_on_c, 0, 87, 73
1, 538619, Note_on_c, 0, 81, 66
1, 538638, Note_off_c, 0, 83, 68
1, 538640, Note_off_c, 0, 87, 70
1, 538646, Note_off_c, 0, 81, 68
1, 538696, Note_off_c, 0, 76, 61
1, 538733, Note_on_c, 0, 75, 83
1, 538875, Note_on_c, 0, 74, 75
1, 538877, Note_off_c, 0, 75, 61
1, 538878, Note_on_c, 0, 88, 79
1, 538882, Note_on_c, 0, 92, 83
1, 538884, Note_on_c, 0, 83, 74
1, 538904, Note_off_c, 0, 88, 68
1, 538908, Note_off_c, 0, 83, 69
1, 538910, Note_off_c, 0, 92, 66
1, 539125, Note_off_c, 0, 74, 62
1, 539145, Note_on_c, 0, 92, 83
1, 539148, Note_on_c, 0, 88, 59
1, 539154, Note_on_c, 0, 85, 64
1, 539155, Note_on_c, 0, 73, 57
1, 539178, Note_off_c, 0, 88, 68
1, 539182, Note_off_c, 0, 85, 68
1, 539191, Note_off_c, 0, 92, 64
1, 539239, Note_off_c, 0, 73, 60
1, 539254, Note_on_c, 0, 72, 71
1, 539287, Note_off_c, 0, 68, 56
1, 539400, Note_off_c, 0, 72, 61
1, 539405, Note_on_c, 0, 95, 79
1, 539409, Note_on_c, 0, 71, 62
1, 539409, Note_on_c, 0, 92, 66
1, 539426, Note_on_c, 0, 68, 42
1, 539427, Note_off_c, 0, 92, 64
1, 539429, Note_off_c, 0, 95, 69
1, 539436, Note_off_c, 0, 71, 65
1, 539453, Note_off_c, 0, 68, 51
1, 539673, Note_on_c, 0, 70, 74
1, 539676, Note_on_c, 0, 94, 90
1, 539677, Note_on_c, 0, 97, 96
1, 539682, Note_on_c, 0, 67, 61
1, 539695, Note_off_c, 0, 70, 71
1, 539713, Note_off_c, 0, 67, 66
1, 539713, Note_off_c, 0, 94, 62
1, 539718, Note_off_c, 0, 97, 64
1, 539956, Note_on_c, 0, 98, 101
1, 539957, Note_on_c, 0, 95, 97
1, 539960, Note_on_c, 0, 69, 79
1, 539965, Note_on_c, 0, 66, 71
1, 539990, Note_off_c, 0, 69, 67
1, 539992, Note_off_c, 0, 95, 67
1, 539993, Note_off_c, 0, 66, 68
1, 540002, Note_off_c, 0, 98, 67
1, 540231, Note_on_c, 0, 91, 84
1, 540232, Note_on_c, 0, 99, 97
1, 540235, Note_on_c, 0, 69, 75
1, 540235, Note_on_c, 0, 72, 81
1, 540236, Note_on_c, 0, 94, 85
1, 540237, Note_on_c, 0, 65, 67
1, 540420, Note_off_c, 0, 99, 64
1, 540425, Note_off_c, 0, 72, 64
1, 540430, Note_off_c, 0, 65, 61
1, 540430, Note_off_c, 0, 69, 63
1, 540430, Note_off_c, 0, 91, 62
1, 540443, Note_off_c, 0, 94, 63
1, 540512, Note_on_c, 0, 94, 86
1, 540514, Note_on_c, 0, 91, 89
1, 540514, Note_on_c, 0, 99, 98
1, 540526, Note_on_c, 0, 72, 81
1, 540529, Note_on_c, 0, 69, 73
1, 540537, Note_on_c, 0, 65, 60
1, 540682, Note_off_c, 0, 72, 63
1, 540686, Note_off_c, 0, 69, 62
1, 540688, Note_off_c, 0, 65, 60
1, 540688, Note_off_c, 0, 99, 63
1, 540695, Note_off_c, 0, 91, 63
1, 540710, Note_off_c, 0, 94, 63
1, 540789, Note_on_c, 0, 99, 98
1, 540790, Note_on_c, 0, 91, 89
1, 540791, Note_on_c, 0, 94, 88
1, 540797, Note_on_c, 0, 72, 82
1, 540799, Note_on_c, 0, 69, 75
1, 540808, Note_on_c, 0, 65, 66
1, 540944, Note_off_c, 0, 72, 63
1, 540947, Note_off_c, 0, 69, 61
1, 540956, Note_off_c, 0, 65, 61
1, 540957, Note_off_c, 0, 99, 64
1, 540959, Note_off_c, 0, 91, 62
1, 540978, Note_off_c, 0, 94, 63
1, 541060, Note_on_c, 0, 72, 77
1, 541063, Note_on_c, 0, 99, 95
1, 541065, Note_on_c, 0, 69, 66
1, 541067, Note_on_c, 0, 91, 88
1, 541067, Note_on_c, 0, 94, 91
1, 541076, Note_on_c, 0, 65, 60
1, 541353, Note_on_c, 0, 87, 106
1, 541355, Note_on_c, 0, 75, 97
1, 541355, Note_off_c, 0, 69, 58
1, 541363, Note_off_c, 0, 72, 57
1, 541376, Note_off_c, 0, 91, 63
1, 541388, Note_off_c, 0, 94, 64
1, 541393, Note_off_c, 0, 99, 65
1, 541400, Note_off_c, 0, 65, 59
1, 541623, Note_on_c, 0, 91, 80
1, 541625, Note_on_c, 0, 99, 91
1, 541627, Note_on_c, 0, 94, 83
1, 541629, Note_on_c, 0, 69, 67
1, 541630, Note_on_c, 0, 72, 69
1, 541635, Note_on_c, 0, 65, 67
1, 541750, Note_off_c, 0, 69, 62
1, 541758, Note_off_c, 0, 72, 63
1, 541762, Note_off_c, 0, 65, 58
1, 541768, Note_off_c, 0, 99, 61
1, 541777, Note_off_c, 0, 94, 62
1, 541780, Note_off_c, 0, 91, 63
1, 541901, Note_on_c, 0, 91, 83
1, 541902, Note_on_c, 0, 99, 95
1, 541904, Note_on_c, 0, 94, 84
1, 541910, Note_on_c, 0, 72, 69
1, 541913, Note_on_c, 0, 69, 65
1, 541919, Note_on_c, 0, 65, 55
1, 542022, Note_off_c, 0, 69, 62
1, 542032, Note_off_c, 0, 72, 63
1, 542038, Note_off_c, 0, 99, 55
1, 542041, Note_off_c, 0, 94, 62
1, 542047, Note_off_c, 0, 91, 63
1, 542059, Note_off_c, 0, 65, 52
1, 542178, Note_on_c, 0, 99, 96
1, 542181, Note_on_c, 0, 91, 84
1, 542182, Note_on_c, 0, 94, 86
1, 542184, Note_on_c, 0, 65, 66
1, 542185, Note_off_c, 0, 75, 63
1, 542187, Note_on_c, 0, 69, 73
1, 542187, Note_on_c, 0, 72, 72
1, 542209, Note_off_c, 0, 87, 63
1, 542470, Note_on_c, 0, 86, 101
1, 542471, Note_on_c, 0, 74, 88
1, 542476, Note_off_c, 0, 69, 61
1, 542489, Note_off_c, 0, 72, 62
1, 542497, Note_off_c, 0, 91, 64
1, 542501, Note_off_c, 0, 94, 63
1, 542511, Note_off_c, 0, 65, 60
1, 542546, Note_off_c, 0, 99, 60
1, 542740, Note_on_c, 0, 99, 94
1, 542742, Note_on_c, 0, 94, 85
1, 542744, Note_on_c, 0, 65, 62
1, 542744, Note_on_c, 0, 91, 75
1, 542749, Note_on_c, 0, 69, 66
1, 542750, Note_on_c, 0, 72, 65
1, 542858, Note_off_c, 0, 69, 62
1, 542864, Note_off_c, 0, 72, 63
1, 542882, Note_off_c, 0, 65, 62
1, 542887, Note_off_c, 0, 91, 62
1, 542892, Note_off_c, 0, 94, 61
1, 542901, Note_off_c, 0, 99, 59
1, 543019, Note_on_c, 0, 99, 89
1, 543022, Note_on_c, 0, 94, 83
1, 543024, Note_on_c, 0, 91, 75
1, 543028, Note_on_c, 0, 69, 67
1, 543031, Note_on_c, 0, 65, 59
1, 543038, Note_on_c, 0, 72, 57
1, 543151, Note_off_c, 0, 69, 62
1, 543152, Note_off_c, 0, 72, 63
1, 543167, Note_off_c, 0, 94, 61
1, 543168, Note_off_c, 0, 91, 64
1, 543171, Note_off_c, 0, 99, 61
1, 543177, Note_off_c, 0, 65, 61
1, 543293, Note_on_c, 0, 99, 88
1, 543296, Note_on_c, 0, 94, 84
1, 543296, Note_on_c, 0, 65, 67
1, 543298, Note_on_c, 0, 69, 67
1, 543299, Note_on_c, 0, 91, 75
1, 543302, Note_on_c, 0, 72, 68
1, 543325, Note_off_c, 0, 74, 51
1, 543338, Note_off_c, 0, 86, 60
1, 543584, Note_on_c, 0, 73, 84
1, 543585, Note_on_c, 0, 85, 94
1, 543589, Note_off_c, 0, 69, 63
1, 543596, Note_off_c, 0, 72, 63
1, 543598, Note_off_c, 0, 99, 0
1, 543612, Note_off_c, 0, 65, 46
1, 543612, Note_off_c, 0, 91, 64
1, 543625, Note_off_c, 0, 94, 62
1, 543635, Poly_aftertouch_c, 0, 99, 127
1, 543672, Poly_aftertouch_c, 0, 99, 0
1, 543856, Note_on_c, 0, 99, 93
1, 543861, Note_on_c, 0, 72, 73
1, 543862, Note_on_c, 0, 91, 77
1, 543863, Note_on_c, 0, 94, 80
1, 543867, Note_on_c, 0, 69, 72
1, 543874, Note_on_c, 0, 65, 59
1, 544003, Note_off_c, 0, 69, 59
1, 544006, Note_off_c, 0, 72, 62
1, 544029, Note_off_c, 0, 65, 61
1, 544030, Note_off_c, 0, 99, 60
1, 544035, Note_off_c, 0, 94, 61
1, 544036, Note_off_c, 0, 91, 64
1, 544144, Note_on_c, 0, 99, 87
1, 544145, Note_on_c, 0, 94, 86
1, 544150, Note_on_c, 0, 91, 78
1, 544151, Note_on_c, 0, 69, 70
1, 544154, Note_on_c, 0, 72, 67
1, 544160, Note_on_c, 0, 65, 58
1, 544286, Note_off_c, 0, 69, 63
1, 544289, Note_off_c, 0, 72, 62
1, 544306, Note_off_c, 0, 65, 59
1, 544313, Note_off_c, 0, 99, 62
1, 544323, Note_off_c, 0, 91, 64
1, 544323, Note_off_c, 0, 94, 62
1, 544432, Note_on_c, 0, 99, 88
1, 544432, Note_on_c, 0, 94, 86
1, 544433, Note_on_c, 0, 91, 77
1, 544437, Note_on_c, 0, 72, 70
1, 544438, Note_on_c, 0, 65, 56
1, 544438, Note_on_c, 0, 69, 62
1, 544464, Note_off_c, 0, 73, 61
1, 544524, Note_off_c, 0, 85, 62
1, 544574, Note_off_c, 0, 91, 64
1, 544593, Note_off_c, 0, 72, 63
1, 544595, Note_off_c, 0, 94, 64
1, 544599, Note_off_c, 0, 65, 60
1, 544600, Note_off_c, 0, 69, 62
1, 544615, Note_off_c, 0, 99, 64
1, 544774, Note_on_c, 0, 99, 81
1, 544777, Note_on_c, 0, 94, 75
1, 544780, Note_on_c, 0, 91, 72
1, 544783, Note_on_c, 0, 72, 67
1, 544784, Note_on_c, 0, 65, 57
1, 544785, Note_on_c, 0, 69, 63
1, 544917, Control_c, 0, 64, 14
1, 544932, Control_c, 0, 64, 36
1, 544947, Control_c, 0, 64, 49
1, 544970, Control_c, 0, 64, 56
1, 544985, Control_c, 0, 64, 61
1, 544999, Control_c, 0, 64, 64
1, 545014, Control_c, 0, 64, 69
1, 545029, Control_c, 0, 64, 76
1, 545044, Control_c, 0, 64, 100
1, 545059, Control_c, 0, 64, 127
1, 545165, Note_off_c, 0, 72, 59
1, 545558, Note_on_c, 0, 74, 37
1, 545563, Note_on_c, 0, 67, 38
1, 545565, Note_on_c, 0, 71, 39
1, 545606, Control_c, 0, 64, 109
1, 545621, Control_c, 0, 64, 94
1, 545636, Control_c, 0, 64, 83
1, 545651, Control_c, 0, 64, 76
1, 545666, Control_c, 0, 64, 70
1, 545679, Note_off_c, 0, 65, 38
1, 545681, Control_c, 0, 64, 65
1, 545684, Note_off_c, 0, 69, 27
1, 545696, Control_c, 0, 64, 58
1, 545717, Control_c, 0, 64, 49
1, 545732, Control_c, 0, 64, 43
1, 545747, Control_c, 0, 64, 37
1, 545762, Control_c, 0, 64, 30
1, 545778, Control_c, 0, 64, 25
1, 545793, Control_c, 0, 64, 25
1, 545822, Control_c, 0, 64, 31
1, 545837, Control_c, 0, 64, 41
1, 545852, Control_c, 0, 64, 50
1, 545867, Control_c, 0, 64, 55
1, 545882, Control_c, 0, 64, 60
1, 545896, Control_c, 0, 64, 62
1, 545911, Control_c, 0, 64, 65
1, 545926, Control_c, 0, 64, 68
1, 545940, Control_c, 0, 64, 75
1, 545955, Control_c, 0, 64, 88
1, 545970, Control_c, 0, 64, 120
1, 545975, Note_off_c, 0, 74, 31
1, 545985, Control_c, 0, 64, 127
1, 545994, Note_off_c, 0, 91, 38
1, 546002, Note_off_c, 0, 71, 24
1, 546044, Note_off_c, 0, 94, 41
1, 546066, Note_off_c, 0, 67, 41
1, 546160, Note_off_c, 0, 99, 36
1, 546760, Note_on_c, 0, 64, 28
1, 546763, Note_on_c, 0, 95, 33
1, 546763, Note_on_c, 0, 92, 39
1, 546766, Note_on_c, 0, 100, 38
1, 546772, Note_on_c, 0, 71, 27
1, 546787, Note_on_c, 0, 68, 26
1, 546822, Control_c, 0, 64, 111
1, 546837, Control_c, 0, 64, 95
1, 546852, Control_c, 0, 64, 88
1, 546867, Control_c, 0, 64, 84
1, 546882, Control_c, 0, 64, 81
1, 546896, Control_c, 0, 64, 76
1, 546911, Control_c, 0, 64, 69
1, 546926, Control_c, 0, 64, 64
1, 546941, Control_c, 0, 64, 60
1, 546956, Control_c, 0, 64, 59
1, 546970, Control_c, 0, 64, 58
1, 546985, Control_c, 0, 64, 56
1, 547000, Control_c, 0, 64, 53
1, 547015, Control_c, 0, 64, 49
1, 547030, Control_c, 0, 64, 45
1, 547044, Control_c, 0, 64, 44
1, 547059, Control_c, 0, 64, 43
1, 547074, Control_c, 0, 64, 42
1, 547088, Control_c, 0, 64, 40
1, 547103, Control_c, 0, 64, 39
1, 547118, Control_c, 0, 64, 38
1, 547133, Control_c, 0, 64, 38
1, 547511, Control_c, 0, 64, 37
1, 547645, Control_c, 0, 64, 37
1, 547705, Control_c, 0, 64, 36
1, 550173, Note_off_c, 0, 71, 35
1, 550181, Note_off_c, 0, 64, 36
1, 550183, Note_off_c, 0, 100, 29
1, 550191, Note_off_c, 0, 95, 39
1, 550212, Note_off_c, 0, 68, 36
1, 550223, Note_off_c, 0, 92, 36
1, 550300, Control_c, 0, 64, 36
1, 550448, Control_c, 0, 64, 35
1, 550641, Control_c, 0, 64, 35
1, 550775, Control_c, 0, 64, 34
1, 550790, Control_c, 0, 64, 34
1, 550833, Control_c, 0, 64, 33
1, 550863, Control_c, 0, 64, 33
1, 550936, Control_c, 0, 64, 32
1, 551004, Control_c, 0, 64, 32
1, 551048, Control_c, 0, 64, 31
1, 551136, Control_c, 0, 64, 31
1, 551166, Control_c, 0, 64, 30
1, 551181, Control_c, 0, 64, 30
1, 551255, Control_c, 0, 64, 29
1, 551344, Control_c, 0, 64, 29
1, 552019, Control_c, 0, 64, 28
1, 552033, Control_c, 0, 64, 28
1, 552048, Control_c, 0, 64, 27
1, 552063, Control_c, 0, 64, 27
1, 552078, Control_c, 0, 64, 26
1, 552093, Control_c, 0, 64, 25
1, 552107, Control_c, 0, 64, 25
1, 552271, Control_c, 0, 64, 24
1, 552286, Control_c, 0, 64, 18
1, 552301, Control_c, 0, 64, 0
1, 554591, Control_c, 0, 64, 11
1, 554606, Control_c, 0, 64, 21
1, 554621, Control_c, 0, 64, 26
1, 554636, Control_c, 0, 64, 30
1, 554650, Control_c, 0, 64, 34
1, 554665, Control_c, 0, 64, 38
1, 554680, Control_c, 0, 64, 41
1, 554703, Control_c, 0, 64, 43
1, 554718, Control_c, 0, 64, 45
1, 554732, Control_c, 0, 64, 47
1, 554747, Control_c, 0, 64, 48
1, 554762, Control_c, 0, 64, 50
1, 554776, Control_c, 0, 64, 50
1, 554791, Control_c, 0, 64, 51
1, 554806, Control_c, 0, 64, 52
1, 554821, Control_c, 0, 64, 53
1, 554836, Control_c, 0, 64, 53
1, 554850, Control_c, 0, 64, 54
1, 554865, Control_c, 0, 64, 55
1, 554880, Control_c, 0, 64, 56
1, 554895, Control_c, 0, 64, 57
1, 554910, Control_c, 0, 64, 58
1, 554924, Control_c, 0, 64, 59
1, 554939, Control_c, 0, 64, 59
1, 554954, Control_c, 0, 64, 60
1, 554969, Control_c, 0, 64, 61
1, 554984, Control_c, 0, 64, 62
1, 554999, Control_c, 0, 64, 62
1, 555014, Control_c, 0, 64, 63
1, 555029, Control_c, 0, 64, 64
1, 555044, Control_c, 0, 64, 65
1, 555058, Control_c, 0, 64, 65
1, 555073, Control_c, 0, 64, 67
1, 555088, Control_c, 0, 64, 69
1, 555103, Control_c, 0, 64, 71
1, 555118, Control_c, 0, 64, 74
1, 555132, Control_c, 0, 64, 78
1, 555147, Control_c, 0, 64, 84
1, 555162, Control_c, 0, 64, 91
1, 555176, Control_c, 0, 64, 103
1, 555191, Control_c, 0, 64, 127
1, 557444, Note_on_c, 0, 64, 45
1, 557452, Note_on_c, 0, 48, 33
1, 557452, Note_on_c, 0, 60, 39
1, 557454, Note_on_c, 0, 52, 40
1, 557465, Note_on_c, 0, 36, 31
1, 557479, Note_on_c, 0, 43, 24
1, 557998, Note_off_c, 0, 36, 38
1, 558001, Note_off_c, 0, 48, 37
1, 558087, Note_off_c, 0, 43, 36
1, 558157, Control_c, 0, 64, 119
1, 558172, Control_c, 0, 64, 110
1, 558187, Control_c, 0, 64, 106
1, 558193, Note_off_c, 0, 52, 37
1, 558201, Control_c, 0, 64, 104
1, 558216, Control_c, 0, 64, 104
1, 558231, Control_c, 0, 64, 102
1, 558246, Control_c, 0, 64, 101
1, 558261, Control_c, 0, 64, 98
1, 558275, Control_c, 0, 64, 96
1, 558305, Control_c, 0, 64, 95
1, 558320, Control_c, 0, 64, 94
1, 558335, Control_c, 0, 64, 92
1, 558349, Control_c, 0, 64, 90
1, 558364, Control_c, 0, 64, 89
1, 558379, Control_c, 0, 64, 88
1, 558394, Control_c, 0, 64, 86
1, 558409, Control_c, 0, 64, 84
1, 558424, Control_c, 0, 64, 82
1, 558446, Control_c, 0, 64, 80
1, 558461, Control_c, 0, 64, 78
1, 558475, Control_c, 0, 64, 76
1, 558490, Control_c, 0, 64, 73
1, 558505, Control_c, 0, 64, 71
1, 558520, Control_c, 0, 64, 69
1, 558534, Control_c, 0, 64, 67
1, 558551, Control_c, 0, 64, 63
1, 558566, Control_c, 0, 64, 60
1, 558580, Control_c, 0, 64, 57
1, 558595, Control_c, 0, 64, 55
1, 558610, Control_c, 0, 64, 53
1, 558654, Control_c, 0, 64, 54
1, 558669, Control_c, 0, 64, 56
1, 558684, Control_c, 0, 64, 57
1, 558699, Control_c, 0, 64, 60
1, 558713, Control_c, 0, 64, 62
1, 558728, Control_c, 0, 64, 64
1, 558743, Control_c, 0, 64, 66
1, 558758, Control_c, 0, 64, 68
1, 558773, Control_c, 0, 64, 72
1, 558780, Note_off_c, 0, 60, 35
1, 558788, Control_c, 0, 64, 76
1, 558803, Control_c, 0, 64, 80
1, 558817, Control_c, 0, 64, 85
1, 558832, Control_c, 0, 64, 92
1, 558847, Control_c, 0, 64, 100
1, 558862, Control_c, 0, 64, 115
1, 558877, Control_c, 0, 64, 127
1, 558917, Note_on_c, 0, 60, 40
1, 558935, Note_on_c, 0, 52, 24
1, 558946, Note_on_c, 0, 55, 37
1, 559228, Note_off_c, 0, 60, 52
1, 559277, Note_on_c, 0, 65, 53
1, 559284, Note_on_c, 0, 61, 41
1, 559378, Note_off_c, 0, 55, 41
1, 559378, Note_off_c, 0, 64, 37
1, 559432, Note_off_c, 0, 52, 49
1, 559436, Note_off_c, 0, 61, 60
1, 559613, Note_on_c, 0, 60, 55
1, 559613, Note_on_c, 0, 64, 64
1, 559619, Note_on_c, 0, 53, 54
1, 559625, Control_c, 0, 64, 107
1, 559640, Control_c, 0, 64, 90
1, 559655, Control_c, 0, 64, 81
1, 559670, Control_c, 0, 64, 76
1, 559685, Control_c, 0, 64, 74
1, 559700, Control_c, 0, 64, 74
1, 559714, Control_c, 0, 64, 77
1, 559729, Control_c, 0, 64, 83
1, 559744, Control_c, 0, 64, 100
1, 559758, Note_off_c, 0, 60, 59
1, 559759, Control_c, 0, 64, 127
1, 559773, Note_off_c, 0, 53, 59
1, 559959, Control_c, 0, 64, 105
1, 559974, Control_c, 0, 64, 94
1, 559979, Note_on_c, 0, 59, 34
1, 559980, Note_on_c, 0, 54, 47
1, 559986, Note_on_c, 0, 32, 35
1, 559986, Note_on_c, 0, 63, 49
1, 559989, Control_c, 0, 64, 86
1, 560004, Control_c, 0, 64, 79
1, 560019, Control_c, 0, 64, 72
1, 560022, Note_on_c, 0, 44, 3
1, 560030, Note_off_c, 0, 65, 55
1, 560034, Control_c, 0, 64, 64
1, 560048, Control_c, 0, 64, 55
1, 560055, Note_off_c, 0, 64, 53
1, 560063, Control_c, 0, 64, 42
1, 560078, Control_c, 0, 64, 28
1, 560093, Control_c, 0, 64, 14
1, 560108, Control_c, 0, 64, 0
1, 560137, Control_c, 0, 64, 9
1, 560153, Control_c, 0, 64, 39
1, 560168, Control_c, 0, 64, 56
1, 560172, Note_off_c, 0, 59, 54
1, 560183, Control_c, 0, 64, 63
1, 560192, Note_off_c, 0, 63, 60
1, 560197, Control_c, 0, 64, 66
1, 560200, Note_off_c, 0, 54, 63
1, 560212, Control_c, 0, 64, 71
1, 560227, Control_c, 0, 64, 79
1, 560242, Control_c, 0, 64, 87
1, 560257, Control_c, 0, 64, 97
1, 560271, Control_c, 0, 64, 113
1, 560286, Control_c, 0, 64, 127
1, 560313, Note_off_c, 0, 32, 39
1, 560328, Note_on_c, 0, 68, 63
1, 560332, Note_on_c, 0, 63, 53
1, 560339, Note_on_c, 0, 59, 48
1, 560392, Note_off_c, 0, 44, 36
1, 560403, Note_off_c, 0, 59, 59
1, 560417, Note_off_c, 0, 63, 60
1, 560606, Note_off_c, 0, 68, 62
1, 560633, Note_on_c, 0, 70, 71
1, 560649, Note_on_c, 0, 65, 60
1, 560651, Note_on_c, 0, 61, 55
1, 560693, Control_c, 0, 64, 112
1, 560708, Control_c, 0, 64, 102
1, 560723, Control_c, 0, 64, 98
1, 560738, Control_c, 0, 64, 96
1, 560752, Control_c, 0, 64, 94
1, 560767, Control_c, 0, 64, 92
1, 560782, Control_c, 0, 64, 90
1, 560797, Control_c, 0, 64, 88
1, 560812, Control_c, 0, 64, 87
1, 560827, Control_c, 0, 64, 86
1, 560842, Control_c, 0, 64, 85
1, 560856, Control_c, 0, 64, 85
1, 560871, Control_c, 0, 64, 83
1, 560879, Note_off_c, 0, 61, 40
1, 560886, Control_c, 0, 64, 82
1, 560901, Control_c, 0, 64, 82
1, 560916, Control_c, 0, 64, 81
1, 560927, Note_on_c, 0, 43, 40
1, 560931, Control_c, 0, 64, 80
1, 560942, Note_on_c, 0, 36, 37
1, 560946, Control_c, 0, 64, 79
1, 560961, Control_c, 0, 64, 77
1, 560976, Control_c, 0, 64, 76
1, 560991, Control_c, 0, 64, 74
1, 561005, Control_c, 0, 64, 72
1, 561008, Note_on_c, 0, 71, 64
1, 561014, Note_on_c, 0, 66, 49
1, 561016, Note_on_c, 0, 62, 41
1, 561020, Control_c, 0, 64, 69
1, 561035, Control_c, 0, 64, 66
1, 561038, Note_off_c, 0, 65, 46
1, 561050, Control_c, 0, 64, 62
1, 561065, Control_c, 0, 64, 54
1, 561080, Control_c, 0, 64, 44
1, 561094, Control_c, 0, 64, 29
1, 561109, Control_c, 0, 64, 0
1, 561110, Note_off_c, 0, 70, 56
1, 561168, Control_c, 0, 64, 32
1, 561183, Control_c, 0, 64, 52
1, 561190, Note_off_c, 0, 36, 42
1, 561198, Control_c, 0, 64, 61
1, 561212, Control_c, 0, 64, 66
1, 561227, Note_off_c, 0, 43, 56
1, 561227, Control_c, 0, 64, 71
1, 561242, Control_c, 0, 64, 80
1, 561257, Control_c, 0, 64, 93
1, 561272, Control_c, 0, 64, 117
1, 561287, Control_c, 0, 64, 127
1, 561295, Note_on_c, 0, 53, 41
1, 561347, Note_on_c, 0, 63, 55
1, 561468, Note_off_c, 0, 63, 60
1, 561542, Note_off_c, 0, 53, 40
1, 561605, Control_c, 0, 64, 122
1, 561619, Control_c, 0, 64, 112
1, 561634, Control_c, 0, 64, 108
1, 561649, Control_c, 0, 64, 104
1, 561664, Control_c, 0, 64, 100
1, 561679, Control_c, 0, 64, 95
1, 561682, Note_on_c, 0, 69, 56
1, 561693, Control_c, 0, 64, 92
1, 561694, Note_on_c, 0, 65, 45
1, 561708, Control_c, 0, 64, 89
1, 561723, Control_c, 0, 64, 88
1, 561733, Note_off_c, 0, 62, 27
1, 561738, Control_c, 0, 64, 86
1, 561754, Control_c, 0, 64, 83
1, 561769, Control_c, 0, 64, 80
1, 561775, Note_off_c, 0, 71, 54
1, 561783, Note_off_c, 0, 66, 33
1, 561783, Control_c, 0, 64, 79
1, 561798, Control_c, 0, 64, 78
1, 561813, Control_c, 0, 64, 76
1, 561828, Control_c, 0, 64, 73
1, 561842, Control_c, 0, 64, 70
1, 561857, Control_c, 0, 64, 69
1, 561872, Control_c, 0, 64, 69
1, 561887, Control_c, 0, 64, 68
1, 561902, Control_c, 0, 64, 66
1, 561916, Control_c, 0, 64, 64
1, 561931, Control_c, 0, 64, 63
1, 561946, Control_c, 0, 64, 62
1, 561961, Control_c, 0, 64, 61
1, 561976, Control_c, 0, 64, 60
1, 561990, Control_c, 0, 64, 57
1, 562005, Control_c, 0, 64, 54
1, 562020, Control_c, 0, 64, 51
1, 562032, Note_on_c, 0, 60, 37
1, 562035, Control_c, 0, 64, 47
1, 562037, Note_on_c, 0, 52, 30
1, 562037, Note_on_c, 0, 72, 48
1, 562040, Note_on_c, 0, 55, 33
1, 562047, Note_on_c, 0, 64, 33
1, 562048, Note_on_c, 0, 67, 34
1, 562049, Control_c, 0, 64, 43
1, 562064, Control_c, 0, 64, 35
1, 562079, Control_c, 0, 64, 17
1, 562094, Control_c, 0, 64, 0
1, 562114, Note_off_c, 0, 65, 51
1, 562165, Note_off_c, 0, 69, 37
1, 562183, Control_c, 0, 64, 21
1, 562205, Control_c, 0, 64, 46
1, 562214, Note_off_c, 0, 67, 61
1, 562220, Control_c, 0, 64, 58
1, 562235, Control_c, 0, 64, 63
1, 562249, Control_c, 0, 64, 68
1, 562264, Control_c, 0, 64, 75
1, 562279, Control_c, 0, 64, 89
1, 562294, Control_c, 0, 64, 127
1, 562324, Note_off_c, 0, 72, 63
1, 562365, Note_off_c, 0, 60, 55
1, 562380, Note_on_c, 0, 74, 63
1, 562486, Note_off_c, 0, 64, 40
1, 562503, Note_off_c, 0, 55, 38
1, 562602, Note_off_c, 0, 52, 43
1, 562621, Control_c, 0, 64, 112
1, 562636, Control_c, 0, 64, 106
1, 562651, Control_c, 0, 64, 104
1, 562680, Control_c, 0, 64, 102
1, 562695, Control_c, 0, 64, 100
1, 562696, Note_on_c, 0, 76, 77
1, 562710, Control_c, 0, 64, 98
1, 562725, Control_c, 0, 64, 97
1, 562739, Control_c, 0, 64, 96
1, 562754, Control_c, 0, 64, 95
1, 562769, Control_c, 0, 64, 94
1, 562784, Control_c, 0, 64, 93
1, 562798, Control_c, 0, 64, 91
1, 562813, Control_c, 0, 64, 89
1, 562828, Control_c, 0, 64, 85
1, 562836, Note_off_c, 0, 74, 53
1, 562843, Control_c, 0, 64, 82
1, 562858, Control_c, 0, 64, 80
1, 562872, Control_c, 0, 64, 80
1, 562902, Control_c, 0, 64, 78
1, 562917, Control_c, 0, 64, 76
1, 562932, Control_c, 0, 64, 74
1, 562954, Control_c, 0, 64, 74
1, 562969, Control_c, 0, 64, 73
1, 562984, Control_c, 0, 64, 71
1, 562998, Control_c, 0, 64, 70
1, 563013, Control_c, 0, 64, 68
1, 563028, Control_c, 0, 64, 67
1, 563043, Control_c, 0, 64, 66
1, 563044, Note_on_c, 0, 47, 32
1, 563047, Note_on_c, 0, 35, 42
1, 563047, Note_on_c, 0, 77, 72
1, 563053, Note_on_c, 0, 74, 56
1, 563058, Control_c, 0, 64, 64
1, 563062, Note_on_c, 0, 72, 58
1, 563072, Control_c, 0, 64, 62
1, 563087, Control_c, 0, 64, 60
1, 563102, Control_c, 0, 64, 57
1, 563117, Control_c, 0, 64, 54
1, 563132, Control_c, 0, 64, 48
1, 563146, Control_c, 0, 64, 38
1, 563152, Note_off_c, 0, 76, 58
1, 563161, Control_c, 0, 64, 19
1, 563176, Control_c, 0, 64, 0
1, 563295, Control_c, 0, 64, 44
1, 563310, Control_c, 0, 64, 56
1, 563325, Control_c, 0, 64, 62
1, 563340, Control_c, 0, 64, 67
1, 563355, Control_c, 0, 64, 74
1, 563369, Control_c, 0, 64, 92
1, 563372, Note_on_c, 0, 76, 79
1, 563384, Control_c, 0, 64, 127
1, 563405, Note_off_c, 0, 72, 37
1, 563471, Note_off_c, 0, 77, 56
1, 563489, Note_off_c, 0, 74, 57
1, 563495, Note_off_c, 0, 47, 38
1, 563718, Note_on_c, 0, 74, 70
1, 563864, Note_off_c, 0, 76, 62
1, 564177, Note_on_c, 0, 81, 63
1, 564180, Note_on_c, 0, 75, 53
1, 564183, Note_on_c, 0, 48, 31
1, 564186, Note_on_c, 0, 79, 57
1, 564192, Control_c, 0, 64, 115
1, 564195, Note_on_c, 0, 40, 32
1, 564199, Note_on_c, 0, 33, 28
1, 564207, Control_c, 0, 64, 110
1, 564222, Control_c, 0, 64, 107
1, 564236, Control_c, 0, 64, 103
1, 564251, Control_c, 0, 64, 99
1, 564266, Control_c, 0, 64, 94
1, 564281, Control_c, 0, 64, 88
1, 564296, Control_c, 0, 64, 84
1, 564310, Control_c, 0, 64, 80
1, 564325, Control_c, 0, 64, 75
1, 564340, Control_c, 0, 64, 69
1, 564355, Control_c, 0, 64, 63
1, 564365, Note_off_c, 0, 35, 35
1, 564370, Control_c, 0, 64, 57
1, 564384, Control_c, 0, 64, 50
1, 564387, Note_off_c, 0, 74, 49
1, 564399, Control_c, 0, 64, 45
1, 564414, Control_c, 0, 64, 39
1, 564436, Control_c, 0, 64, 33
1, 564451, Control_c, 0, 64, 22
1, 564466, Control_c, 0, 64, 0
1, 564525, Control_c, 0, 64, 11
1, 564540, Control_c, 0, 64, 32
1, 564555, Control_c, 0, 64, 46
1, 564570, Control_c, 0, 64, 54
1, 564584, Control_c, 0, 64, 59
1, 564599, Control_c, 0, 64, 63
1, 564605, Note_on_c, 0, 77, 59
1, 564606, Note_on_c, 0, 74, 53
1, 564609, Note_off_c, 0, 33, 42
1, 564612, Note_off_c, 0, 48, 42
1, 564614, Control_c, 0, 64, 66
1, 564629, Control_c, 0, 64, 70
1, 564643, Control_c, 0, 64, 76
1, 564654, Note_off_c, 0, 40, 45
1, 564658, Control_c, 0, 64, 84
1, 564673, Control_c, 0, 64, 96
1, 564688, Control_c, 0, 64, 127
1, 564744, Note_off_c, 0, 75, 60
1, 564785, Note_off_c, 0, 74, 62
1, 564913, Note_on_c, 0, 76, 73
1, 564919, Note_on_c, 0, 72, 54
1, 564925, Control_c, 0, 64, 112
1, 564940, Control_c, 0, 64, 87
1, 564955, Control_c, 0, 64, 73
1, 564970, Control_c, 0, 64, 63
1, 564985, Control_c, 0, 64, 56
1, 565000, Control_c, 0, 64, 51
1, 565009, Note_off_c, 0, 77, 58
1, 565012, Note_off_c, 0, 79, 51
1, 565015, Control_c, 0, 64, 53
1, 565030, Control_c, 0, 64, 58
1, 565045, Control_c, 0, 64, 64
1, 565059, Control_c, 0, 64, 71
1, 565074, Control_c, 0, 64, 82
1, 565089, Control_c, 0, 64, 112
1, 565104, Control_c, 0, 64, 127
1, 565112, Note_off_c, 0, 72, 65
1, 565125, Note_off_c, 0, 76, 64
1, 565232, Note_on_c, 0, 69, 50
1, 565242, Note_on_c, 0, 74, 71
1, 565244, Note_on_c, 0, 71, 64
1, 565244, Control_c, 0, 64, 113
1, 565246, Note_on_c, 0, 59, 39
1, 565252, Note_on_c, 0, 62, 43
1, 565259, Control_c, 0, 64, 87
1, 565274, Control_c, 0, 64, 74
1, 565289, Control_c, 0, 64, 66
1, 565304, Control_c, 0, 64, 58
1, 565319, Control_c, 0, 64, 44
1, 565333, Control_c, 0, 64, 30
1, 565348, Control_c, 0, 64, 23
1, 565378, Control_c, 0, 64, 30
1, 565393, Control_c, 0, 64, 48
1, 565407, Control_c, 0, 64, 60
1, 565422, Control_c, 0, 64, 67
1, 565437, Control_c, 0, 64, 78
1, 565452, Control_c, 0, 64, 108
1, 565456, Note_off_c, 0, 69, 59
1, 565466, Control_c, 0, 64, 127
1, 565487, Note_off_c, 0, 62, 36
1, 565489, Note_off_c, 0, 59, 38
1, 565570, Note_on_c, 0, 83, 68
1, 565617, Note_off_c, 0, 81, 58
1, 565763, Control_c, 0, 64, 122
1, 565778, Control_c, 0, 64, 112
1, 565793, Control_c, 0, 64, 107
1, 565808, Control_c, 0, 64, 101
1, 565823, Control_c, 0, 64, 97
1, 565838, Control_c, 0, 64, 94
1, 565852, Control_c, 0, 64, 92
1, 565867, Control_c, 0, 64, 91
1, 565882, Control_c, 0, 64, 89
1, 565891, Note_on_c, 0, 81, 65
1, 565897, Control_c, 0, 64, 87
1, 565912, Control_c, 0, 64, 85
1, 565927, Control_c, 0, 64, 84
1, 565949, Control_c, 0, 64, 82
1, 565963, Control_c, 0, 64, 81
1, 565978, Control_c, 0, 64, 79
1, 565993, Control_c, 0, 64, 78
1, 566007, Control_c, 0, 64, 77
1, 566022, Control_c, 0, 64, 76
1, 566037, Control_c, 0, 64, 75
1, 566052, Control_c, 0, 64, 73
1, 566067, Control_c, 0, 64, 71
1, 566082, Control_c, 0, 64, 70
1, 566097, Control_c, 0, 64, 70
1, 566112, Control_c, 0, 64, 69
1, 566127, Control_c, 0, 64, 68
1, 566142, Control_c, 0, 64, 67
1, 566156, Control_c, 0, 64, 66
1, 566171, Control_c, 0, 64, 66
1, 566186, Control_c, 0, 64, 65
1, 566201, Control_c, 0, 64, 65
1, 566215, Control_c, 0, 64, 64
1, 566245, Control_c, 0, 64, 64
1, 566274, Note_on_c, 0, 47, 28
1, 566275, Control_c, 0, 64, 63
1, 566289, Control_c, 0, 64, 63
1, 566301, Note_on_c, 0, 35, 32
1, 566310, Note_on_c, 0, 76, 60
1, 566319, Control_c, 0, 64, 62
1, 566334, Control_c, 0, 64, 62
1, 566349, Control_c, 0, 64, 61
1, 566363, Control_c, 0, 64, 60
1, 566377, Note_off_c, 0, 83, 59
1, 566378, Control_c, 0, 64, 59
1, 566393, Control_c, 0, 64, 58
1, 566407, Control_c, 0, 64, 57
1, 566422, Control_c, 0, 64, 56
1, 566437, Control_c, 0, 64, 54
1, 566452, Control_c, 0, 64, 52
1, 566461, Note_off_c, 0, 74, 58
1, 566467, Control_c, 0, 64, 50
1, 566476, Note_off_c, 0, 71, 57
1, 566481, Control_c, 0, 64, 47
1, 566496, Control_c, 0, 64, 45
1, 566503, Note_off_c, 0, 81, 36
1, 566511, Control_c, 0, 64, 43
1, 566526, Control_c, 0, 64, 43
1, 566572, Control_c, 0, 64, 43
1, 566586, Control_c, 0, 64, 45
1, 566601, Control_c, 0, 64, 48
1, 566616, Control_c, 0, 64, 52
1, 566631, Control_c, 0, 64, 56
1, 566646, Control_c, 0, 64, 60
1, 566647, Note_on_c, 0, 69, 49
1, 566649, Note_on_c, 0, 72, 57
1, 566660, Control_c, 0, 64, 62
1, 566675, Control_c, 0, 64, 64
1, 566698, Control_c, 0, 64, 67
1, 566707, Note_off_c, 0, 47, 40
1, 566712, Control_c, 0, 64, 70
1, 566727, Control_c, 0, 64, 75
1, 566742, Control_c, 0, 64, 85
1, 566757, Control_c, 0, 64, 98
1, 566772, Control_c, 0, 64, 127
1, 566798, Note_off_c, 0, 69, 61
1, 566815, Note_off_c, 0, 72, 64
1, 566964, Control_c, 0, 64, 109
1, 566970, Note_on_c, 0, 48, 35
1, 566970, Note_on_c, 0, 71, 58
1, 566975, Note_on_c, 0, 67, 44
1, 566979, Control_c, 0, 64, 89
1, 566982, Note_on_c, 0, 36, 29
1, 566994, Control_c, 0, 64, 76
1, 567009, Control_c, 0, 64, 67
1, 567024, Control_c, 0, 64, 60
1, 567038, Control_c, 0, 64, 55
1, 567053, Control_c, 0, 64, 54
1, 567068, Control_c, 0, 64, 56
1, 567069, Note_off_c, 0, 35, 34
1, 567083, Control_c, 0, 64, 61
1, 567098, Control_c, 0, 64, 65
1, 567112, Control_c, 0, 64, 71
1, 567122, Note_off_c, 0, 71, 63
1, 567127, Control_c, 0, 64, 79
1, 567129, Note_off_c, 0, 67, 60
1, 567130, Note_off_c, 0, 48, 52
1, 567142, Control_c, 0, 64, 89
1, 567157, Control_c, 0, 64, 107
1, 567172, Control_c, 0, 64, 127
1, 567319, Note_on_c, 0, 69, 46
1, 567327, Note_on_c, 0, 38, 31
1, 567334, Note_on_c, 0, 65, 39
1, 567335, Note_off_c, 0, 36, 31
1, 567346, Note_on_c, 0, 50, 24
1, 567350, Control_c, 0, 64, 107
1, 567365, Control_c, 0, 64, 93
1, 567380, Control_c, 0, 64, 83
1, 567395, Control_c, 0, 64, 74
1, 567409, Control_c, 0, 64, 68
1, 567424, Control_c, 0, 64, 63
1, 567447, Control_c, 0, 64, 55
1, 567461, Control_c, 0, 64, 47
1, 567476, Control_c, 0, 64, 42
1, 567491, Control_c, 0, 64, 41
1, 567535, Control_c, 0, 64, 44
1, 567550, Control_c, 0, 64, 50
1, 567565, Control_c, 0, 64, 55
1, 567580, Control_c, 0, 64, 60
1, 567595, Control_c, 0, 64, 63
1, 567609, Control_c, 0, 64, 65
1, 567624, Control_c, 0, 64, 69
1, 567638, Note_off_c, 0, 76, 54
1, 567639, Control_c, 0, 64, 73
1, 567654, Control_c, 0, 64, 80
1, 567667, Note_on_c, 0, 74, 46
1, 567668, Control_c, 0, 64, 90
1, 567683, Control_c, 0, 64, 101
1, 567698, Control_c, 0, 64, 115
1, 567713, Control_c, 0, 64, 122
1, 567728, Control_c, 0, 64, 120
1, 567742, Control_c, 0, 64, 115
1, 567757, Control_c, 0, 64, 115
1, 567772, Control_c, 0, 64, 114
1, 567787, Note_off_c, 0, 38, 39
1, 567787, Control_c, 0, 64, 112
1, 567802, Control_c, 0, 64, 108
1, 567817, Control_c, 0, 64, 105
1, 567826, Note_off_c, 0, 50, 39
1, 567832, Control_c, 0, 64, 104
1, 567847, Control_c, 0, 64, 102
1, 567861, Control_c, 0, 64, 100
1, 567876, Control_c, 0, 64, 97
1, 567891, Control_c, 0, 64, 95
1, 567906, Control_c, 0, 64, 93
1, 567921, Control_c, 0, 64, 91
1, 567935, Control_c, 0, 64, 89
1, 567950, Control_c, 0, 64, 86
1, 567965, Control_c, 0, 64, 85
1, 567980, Control_c, 0, 64, 84
1, 567988, Note_on_c, 0, 72, 55
1, 567995, Control_c, 0, 64, 83
1, 568009, Control_c, 0, 64, 81
1, 568024, Control_c, 0, 64, 79
1, 568039, Control_c, 0, 64, 77
1, 568053, Control_c, 0, 64, 76
1, 568068, Control_c, 0, 64, 74
1, 568083, Control_c, 0, 64, 73
1, 568098, Control_c, 0, 64, 71
1, 568113, Control_c, 0, 64, 70
1, 568121, Note_off_c, 0, 74, 32
1, 568129, Control_c, 0, 64, 69
1, 568144, Control_c, 0, 64, 68
1, 568158, Control_c, 0, 64, 66
1, 568181, Control_c, 0, 64, 65
1, 568195, Control_c, 0, 64, 64
1, 568225, Control_c, 0, 64, 63
1, 568240, Control_c, 0, 64, 62
1, 568255, Control_c, 0, 64, 61
1, 568284, Control_c, 0, 64, 61
1, 568314, Control_c, 0, 64, 60
1, 568329, Control_c, 0, 64, 59
1, 568344, Control_c, 0, 64, 58
1, 568373, Control_c, 0, 64, 58
1, 568388, Control_c, 0, 64, 57
1, 568403, Control_c, 0, 64, 56
1, 568418, Control_c, 0, 64, 55
1, 568432, Control_c, 0, 64, 55
1, 568436, Note_on_c, 0, 71, 49
1, 568439, Note_on_c, 0, 62, 28
1, 568447, Note_on_c, 0, 53, 24
1, 568447, Control_c, 0, 64, 54
1, 568448, Note_on_c, 0, 57, 28
1, 568477, Control_c, 0, 64, 53
1, 568491, Control_c, 0, 64, 53
1, 568506, Control_c, 0, 64, 52
1, 568521, Control_c, 0, 64, 51
1, 568536, Control_c, 0, 64, 50
1, 568551, Control_c, 0, 64, 49
1, 568565, Control_c, 0, 64, 48
1, 568580, Control_c, 0, 64, 46
1, 568595, Control_c, 0, 64, 44
1, 568610, Control_c, 0, 64, 42
1, 568625, Control_c, 0, 64, 38
1, 568640, Control_c, 0, 64, 34
1, 568642, Note_off_c, 0, 72, 37
1, 568654, Control_c, 0, 64, 29
1, 568669, Control_c, 0, 64, 24
1, 568684, Control_c, 0, 64, 20
1, 568699, Control_c, 0, 64, 17
1, 568714, Control_c, 0, 64, 16
1, 568729, Control_c, 0, 64, 15
1, 568744, Control_c, 0, 64, 14
1, 568967, Note_off_c, 0, 57, 33
1, 568988, Note_off_c, 0, 53, 39
1, 568991, Note_off_c, 0, 62, 33
1, 569018, Control_c, 0, 64, 16
1, 569033, Control_c, 0, 64, 17
1, 569048, Control_c, 0, 64, 19
1, 569063, Control_c, 0, 64, 24
1, 569078, Control_c, 0, 64, 30
1, 569093, Control_c, 0, 64, 37
1, 569107, Control_c, 0, 64, 44
1, 569122, Control_c, 0, 64, 50
1, 569137, Control_c, 0, 64, 55
1, 569152, Control_c, 0, 64, 59
1, 569167, Control_c, 0, 64, 63
1, 569176, Note_off_c, 0, 65, 38
1, 569181, Control_c, 0, 64, 65
1, 569196, Control_c, 0, 64, 70
1, 569211, Control_c, 0, 64, 77
1, 569218, Note_off_c, 0, 69, 40
1, 569225, Control_c, 0, 64, 92
1, 569240, Control_c, 0, 64, 127
1, 569260, Note_off_c, 0, 71, 52
1, 569570, Note_on_c, 0, 65, 32
1, 569571, Note_on_c, 0, 74, 59
1, 569580, Note_on_c, 0, 62, 32
1, 569582, Note_on_c, 0, 57, 32
1, 569625, Control_c, 0, 64, 103
1, 569640, Control_c, 0, 64, 88
1, 569655, Control_c, 0, 64, 77
1, 569670, Control_c, 0, 64, 69
1, 569692, Control_c, 0, 64, 64
1, 569707, Control_c, 0, 64, 63
1, 569737, Control_c, 0, 64, 64
1, 569752, Control_c, 0, 64, 66
1, 569767, Control_c, 0, 64, 72
1, 569782, Control_c, 0, 64, 87
1, 569797, Control_c, 0, 64, 127
1, 569816, Note_off_c, 0, 65, 57
1, 569896, Note_on_c, 0, 77, 93
1, 569988, Note_off_c, 0, 57, 57
1, 570017, Note_off_c, 0, 62, 55
1, 570138, Note_off_c, 0, 74, 63
1, 570178, Note_on_c, 0, 81, 98
1, 570209, Note_off_c, 0, 77, 63
1, 570330, Control_c, 0, 64, 100
1, 570345, Control_c, 0, 64, 72
1, 570360, Control_c, 0, 64, 55
1, 570372, Note_on_c, 0, 78, 95
1, 570374, Control_c, 0, 64, 0
1, 570385, Note_on_c, 0, 69, 70
1, 570419, Control_c, 0, 64, 41
1, 570431, Note_off_c, 0, 81, 64
1, 570441, Control_c, 0, 64, 58
1, 570455, Control_c, 0, 64, 66
1, 570464, Poly_aftertouch_c, 0, 46, 0
1, 570470, Control_c, 0, 64, 79
1, 570485, Control_c, 0, 64, 127
1, 570486, Note_off_c, 0, 69, 49
1, 570488, Note_on_c, 0, 45, 69
1, 570492, Note_on_c, 0, 38, 60
1, 570568, Note_off_c, 0, 78, 62
1, 570632, Note_off_c, 0, 38, 54
1, 570644, Note_on_c, 0, 86, 89
1, 570654, Note_on_c, 0, 78, 76
1, 570774, Note_on_c, 0, 54, 73
1, 570849, Note_off_c, 0, 45, 56
1, 570913, Note_off_c, 0, 54, 61
1, 571412, Note_on_c, 0, 69, 87
1, 571866, Note_on_c, 0, 74, 75
1, 571871, Note_on_c, 0, 66, 48
1, 571873, Note_on_c, 0, 62, 40
1, 571883, Note_on_c, 0, 57, 35
1, 571954, Control_c, 0, 64, 113
1, 571969, Control_c, 0, 64, 101
1, 571983, Control_c, 0, 64, 92
1, 571998, Control_c, 0, 64, 85
1, 571999, Note_off_c, 0, 78, 54
1, 572013, Control_c, 0, 64, 79
1, 572027, Control_c, 0, 64, 74
1, 572042, Control_c, 0, 64, 68
1, 572057, Control_c, 0, 64, 63
1, 572069, Note_off_c, 0, 69, 55
1, 572072, Control_c, 0, 64, 56
1, 572087, Control_c, 0, 64, 51
1, 572101, Control_c, 0, 64, 49
1, 572116, Control_c, 0, 64, 48
1, 572132, Control_c, 0, 64, 48
1, 572177, Control_c, 0, 64, 49
1, 572192, Control_c, 0, 64, 51
1, 572206, Control_c, 0, 64, 54
1, 572221, Control_c, 0, 64, 57
1, 572236, Control_c, 0, 64, 60
1, 572251, Control_c, 0, 64, 62
1, 572266, Control_c, 0, 64, 63
1, 572280, Control_c, 0, 64, 65
1, 572284, Note_on_c, 0, 85, 62
1, 572295, Control_c, 0, 64, 68
1, 572310, Control_c, 0, 64, 71
1, 572324, Control_c, 0, 64, 76
1, 572339, Control_c, 0, 64, 82
1, 572354, Control_c, 0, 64, 91
1, 572369, Control_c, 0, 64, 105
1, 572384, Control_c, 0, 64, 127
1, 572488, Note_off_c, 0, 62, 35
1, 572592, Note_on_c, 0, 83, 65
1, 572592, Note_off_c, 0, 66, 53
1, 572646, Note_off_c, 0, 86, 59
1, 572688, Note_off_c, 0, 74, 58
1, 572707, Note_off_c, 0, 85, 60
1, 572905, Note_on_c, 0, 65, 35
1, 572911, Note_on_c, 0, 61, 35
1, 572918, Note_on_c, 0, 85, 57
1, 572924, Note_on_c, 0, 77, 57
1, 572940, Note_on_c, 0, 56, 32
1, 572941, Control_c, 0, 64, 101
1, 572955, Control_c, 0, 64, 88
1, 572970, Control_c, 0, 64, 77
1, 572985, Control_c, 0, 64, 69
1, 573000, Control_c, 0, 64, 63
1, 573003, Note_off_c, 0, 83, 60
1, 573015, Control_c, 0, 64, 58
1, 573029, Control_c, 0, 64, 56
1, 573054, Note_off_c, 0, 57, 41
1, 573073, Control_c, 0, 64, 58
1, 573088, Control_c, 0, 64, 62
1, 573103, Control_c, 0, 64, 66
1, 573118, Control_c, 0, 64, 72
1, 573133, Control_c, 0, 64, 84
1, 573147, Control_c, 0, 64, 127
1, 573221, Note_on_c, 0, 75, 76
1, 573227, Note_off_c, 0, 65, 46
1, 573257, Note_off_c, 0, 61, 51
1, 573330, Note_off_c, 0, 77, 55
1, 573361, Note_off_c, 0, 56, 50
1, 573504, Note_on_c, 0, 74, 91
1, 573536, Note_off_c, 0, 75, 64
1, 573695, Note_off_c, 0, 74, 62
1, 573738, Note_on_c, 0, 45, 61
1, 573745, Note_on_c, 0, 38, 51
1, 573808, Control_c, 0, 64, 95
1, 573823, Control_c, 0, 64, 77
1, 573827, Note_on_c, 0, 86, 86
1, 573837, Note_on_c, 0, 73, 74
1, 573838, Control_c, 0, 64, 65
1, 573852, Control_c, 0, 64, 49
1, 573867, Control_c, 0, 64, 11
1, 573882, Control_c, 0, 64, 0
1, 573898, Note_off_c, 0, 85, 59
1, 573926, Control_c, 0, 64, 36
1, 573941, Control_c, 0, 64, 56
1, 573956, Control_c, 0, 64, 64
1, 573957, Note_off_c, 0, 38, 58
1, 573970, Control_c, 0, 64, 74
1, 573985, Control_c, 0, 64, 111
1, 574000, Control_c, 0, 64, 127
1, 574017, Note_off_c, 0, 73, 64
1, 574033, Note_on_c, 0, 54, 79
1, 574079, Note_off_c, 0, 45, 55
1, 574124, Note_on_c, 0, 74, 85
1, 574191, Note_off_c, 0, 54, 63
1, 574425, Note_on_c, 0, 81, 87
1, 574450, Control_c, 0, 64, 112
1, 574465, Control_c, 0, 64, 98
1, 574480, Control_c, 0, 64, 90
1, 574494, Control_c, 0, 64, 82
1, 574509, Control_c, 0, 64, 74
1, 574525, Control_c, 0, 64, 67
1, 574527, Note_off_c, 0, 74, 61
1, 574540, Control_c, 0, 64, 62
1, 574555, Control_c, 0, 64, 56
1, 574570, Control_c, 0, 64, 53
1, 574585, Control_c, 0, 64, 52
1, 574599, Control_c, 0, 64, 51
1, 574614, Control_c, 0, 64, 49
1, 574629, Control_c, 0, 64, 45
1, 574644, Control_c, 0, 64, 38
1, 574659, Control_c, 0, 64, 35
1, 574673, Control_c, 0, 64, 34
1, 574703, Control_c, 0, 64, 34
1, 574718, Control_c, 0, 64, 33
1, 574733, Control_c, 0, 64, 31
1, 574747, Control_c, 0, 64, 29
1, 574755, Note_on_c, 0, 62, 62
1, 574756, Note_on_c, 0, 57, 52
1, 574759, Note_on_c, 0, 66, 62
1, 574760, Note_on_c, 0, 78, 81
1, 574762, Control_c, 0, 64, 29
1, 574884, Note_off_c, 0, 81, 62
1, 574978, Control_c, 0, 64, 29
1, 574993, Control_c, 0, 64, 31
1, 575007, Control_c, 0, 64, 34
1, 575022, Control_c, 0, 64, 38
1, 575037, Control_c, 0, 64, 42
1, 575052, Control_c, 0, 64, 46
1, 575067, Control_c, 0, 64, 49
1, 575081, Control_c, 0, 64, 52
1, 575096, Control_c, 0, 64, 54
1, 575111, Control_c, 0, 64, 56
1, 575119, Note_on_c, 0, 85, 72
1, 575126, Control_c, 0, 64, 58
1, 575141, Control_c, 0, 64, 60
1, 575156, Control_c, 0, 64, 62
1, 575171, Control_c, 0, 64, 63
1, 575186, Control_c, 0, 64, 64
1, 575200, Control_c, 0, 64, 66
1, 575215, Control_c, 0, 64, 70
1, 575230, Control_c, 0, 64, 76
1, 575244, Control_c, 0, 64, 86
1, 575259, Control_c, 0, 64, 101
1, 575274, Control_c, 0, 64, 127
1, 575341, Note_off_c, 0, 57, 34
1, 575411, Note_on_c, 0, 83, 74
1, 575422, Note_off_c, 0, 66, 34
1, 575499, Note_off_c, 0, 86, 54
1, 575548, Note_off_c, 0, 85, 63
1, 575618, Note_off_c, 0, 78, 50
1, 575734, Note_on_c, 0, 65, 36
1, 575743, Note_on_c, 0, 85, 70
1, 575749, Note_on_c, 0, 61, 34
1, 575753, Note_on_c, 0, 56, 32
1, 575756, Note_on_c, 0, 77, 48
1, 575756, Control_c, 0, 64, 125
1, 575771, Control_c, 0, 64, 106
1, 575786, Control_c, 0, 64, 95
1, 575801, Control_c, 0, 64, 86
1, 575816, Control_c, 0, 64, 78
1, 575830, Control_c, 0, 64, 71
1, 575845, Control_c, 0, 64, 64
1, 575856, Note_off_c, 0, 83, 58
1, 575860, Note_off_c, 0, 62, 54
1, 575860, Control_c, 0, 64, 55
1, 575874, Control_c, 0, 64, 48
1, 575889, Control_c, 0, 64, 44
1, 575919, Control_c, 0, 64, 45
1, 575934, Control_c, 0, 64, 48
1, 575949, Control_c, 0, 64, 54
1, 575964, Control_c, 0, 64, 61
1, 575979, Control_c, 0, 64, 65
1, 575993, Control_c, 0, 64, 70
1, 576008, Control_c, 0, 64, 80
1, 576023, Control_c, 0, 64, 101
1, 576025, Note_off_c, 0, 65, 61
1, 576038, Control_c, 0, 64, 127
1, 576050, Note_on_c, 0, 75, 68
1, 576098, Note_off_c, 0, 61, 40
1, 576119, Note_off_c, 0, 77, 61
1, 576157, Note_off_c, 0, 56, 41
1, 576336, Note_on_c, 0, 74, 71
1, 576360, Note_off_c, 0, 75, 60
1, 576476, Note_off_c, 0, 74, 63
1, 576622, Note_on_c, 0, 45, 34
1, 576639, Control_c, 0, 64, 112
1, 576646, Note_on_c, 0, 38, 30
1, 576653, Control_c, 0, 64, 101
1, 576668, Control_c, 0, 64, 92
1, 576683, Control_c, 0, 64, 84
1, 576697, Control_c, 0, 64, 76
1, 576709, Note_on_c, 0, 86, 70
1, 576712, Control_c, 0, 64, 69
1, 576715, Note_on_c, 0, 73, 51
1, 576727, Control_c, 0, 64, 62
1, 576742, Control_c, 0, 64, 50
1, 576757, Control_c, 0, 64, 39
1, 576771, Control_c, 0, 64, 35
1, 576792, Note_off_c, 0, 85, 57
1, 576801, Control_c, 0, 64, 40
1, 576816, Control_c, 0, 64, 54
1, 576831, Control_c, 0, 64, 63
1, 576846, Control_c, 0, 64, 69
1, 576861, Control_c, 0, 64, 81
1, 576866, Note_off_c, 0, 38, 40
1, 576876, Control_c, 0, 64, 127
1, 576914, Note_off_c, 0, 73, 61
1, 576933, Note_on_c, 0, 54, 60
1, 577017, Note_on_c, 0, 74, 73
1, 577050, Note_off_c, 0, 45, 41
1, 577081, Note_off_c, 0, 54, 61
1, 577210, Control_c, 0, 64, 116
1, 577225, Control_c, 0, 64, 107
1, 577239, Control_c, 0, 64, 103
1, 577254, Control_c, 0, 64, 101
1, 577269, Control_c, 0, 64, 98
1, 577284, Control_c, 0, 64, 93
1, 577299, Control_c, 0, 64, 90
1, 577302, Note_on_c, 0, 81, 75
1, 577313, Control_c, 0, 64, 89
1, 577328, Control_c, 0, 64, 87
1, 577343, Control_c, 0, 64, 85
1, 577358, Control_c, 0, 64, 82
1, 577373, Control_c, 0, 64, 80
1, 577387, Control_c, 0, 64, 77
1, 577400, Note_off_c, 0, 74, 46
1, 577402, Control_c, 0, 64, 75
1, 577417, Control_c, 0, 64, 74
1, 577432, Control_c, 0, 64, 73
1, 577447, Control_c, 0, 64, 71
1, 577461, Control_c, 0, 64, 68
1, 577476, Control_c, 0, 64, 65
1, 577491, Control_c, 0, 64, 64
1, 577506, Control_c, 0, 64, 63
1, 577520, Control_c, 0, 64, 61
1, 577535, Control_c, 0, 64, 60
1, 577550, Control_c, 0, 64, 58
1, 577565, Control_c, 0, 64, 57
1, 577580, Control_c, 0, 64, 57
1, 577594, Control_c, 0, 64, 56
1, 577609, Control_c, 0, 64, 56
1, 577624, Control_c, 0, 64, 55
1, 577639, Control_c, 0, 64, 54
1, 577684, Control_c, 0, 64, 54
1, 577700, Note_on_c, 0, 66, 62
1, 577708, Note_on_c, 0, 57, 35
1, 577714, Control_c, 0, 64, 53
1, 577717, Note_on_c, 0, 62, 46
1, 577719, Note_on_c, 0, 78, 58
1, 577729, Control_c, 0, 64, 53
1, 577758, Control_c, 0, 64, 52
1, 577788, Control_c, 0, 64, 52
1, 577803, Control_c, 0, 64, 51
1, 577817, Control_c, 0, 64, 50
1, 577832, Control_c, 0, 64, 49
1, 577847, Control_c, 0, 64, 48
1, 577857, Note_off_c, 0, 81, 56
1, 577877, Control_c, 0, 64, 48
1, 577943, Control_c, 0, 64, 48
1, 577958, Control_c, 0, 64, 49
1, 577973, Control_c, 0, 64, 50
1, 577988, Control_c, 0, 64, 52
1, 578003, Control_c, 0, 64, 54
1, 578017, Control_c, 0, 64, 56
1, 578032, Control_c, 0, 64, 58
1, 578047, Control_c, 0, 64, 61
1, 578062, Control_c, 0, 64, 62
1, 578077, Control_c, 0, 64, 64
1, 578091, Control_c, 0, 64, 67
1, 578106, Control_c, 0, 64, 70
1, 578121, Control_c, 0, 64, 74
1, 578136, Control_c, 0, 64, 81
1, 578150, Control_c, 0, 64, 89
1, 578165, Control_c, 0, 64, 103
1, 578180, Control_c, 0, 64, 127
1, 578295, Note_off_c, 0, 66, 37
1, 578306, Note_off_c, 0, 57, 38
1, 578313, Note_off_c, 0, 62, 33
1, 578368, Note_on_c, 0, 81, 55
1, 578626, Control_c, 0, 64, 115
1, 578640, Control_c, 0, 64, 110
1, 578655, Control_c, 0, 64, 105
1, 578678, Control_c, 0, 64, 101
1, 578693, Control_c, 0, 64, 97
1, 578700, Note_on_c, 0, 65, 40
1, 578700, Note_on_c, 0, 77, 45
1, 578708, Control_c, 0, 64, 92
1, 578721, Note_on_c, 0, 62, 28
1, 578722, Control_c, 0, 64, 88
1, 578723, Note_on_c, 0, 57, 28
1, 578737, Control_c, 0, 64, 84
1, 578752, Control_c, 0, 64, 78
1, 578766, Control_c, 0, 64, 73
1, 578781, Control_c, 0, 64, 68
1, 578796, Control_c, 0, 64, 63
1, 578811, Control_c, 0, 64, 58
1, 578812, Note_off_c, 0, 81, 40
1, 578826, Control_c, 0, 64, 55
1, 578840, Control_c, 0, 64, 54
1, 578848, Note_off_c, 0, 78, 28
1, 578855, Control_c, 0, 64, 54
1, 578870, Control_c, 0, 64, 55
1, 578876, Note_off_c, 0, 77, 53
1, 578885, Control_c, 0, 64, 57
1, 578900, Control_c, 0, 64, 60
1, 578915, Control_c, 0, 64, 63
1, 578930, Control_c, 0, 64, 65
1, 578945, Control_c, 0, 64, 68
1, 578959, Control_c, 0, 64, 72
1, 578974, Control_c, 0, 64, 76
1, 578989, Control_c, 0, 64, 83
1, 579002, Note_on_c, 0, 77, 54
1, 579004, Control_c, 0, 64, 92
1, 579019, Control_c, 0, 64, 109
1, 579034, Control_c, 0, 64, 127
1, 579042, Note_off_c, 0, 65, 54
1, 579063, Note_off_c, 0, 62, 41
1, 579123, Note_off_c, 0, 57, 41
1, 579317, Note_on_c, 0, 81, 52
1, 579330, Control_c, 0, 64, 116
1, 579345, Control_c, 0, 64, 109
1, 579360, Control_c, 0, 64, 104
1, 579375, Control_c, 0, 64, 99
1, 579389, Control_c, 0, 64, 96
1, 579404, Control_c, 0, 64, 94
1, 579413, Note_off_c, 0, 77, 48
1, 579427, Control_c, 0, 64, 93
1, 579442, Control_c, 0, 64, 92
1, 579457, Control_c, 0, 64, 92
1, 579471, Control_c, 0, 64, 91
1, 579486, Control_c, 0, 64, 90
1, 579501, Control_c, 0, 64, 89
1, 579515, Control_c, 0, 64, 88
1, 579530, Control_c, 0, 64, 87
1, 579545, Control_c, 0, 64, 86
1, 579560, Control_c, 0, 64, 85
1, 579575, Control_c, 0, 64, 84
1, 579589, Control_c, 0, 64, 82
1, 579604, Control_c, 0, 64, 82
1, 579619, Control_c, 0, 64, 80
1, 579634, Control_c, 0, 64, 79
1, 579649, Control_c, 0, 64, 77
1, 579651, Note_on_c, 0, 38, 33
1, 579663, Control_c, 0, 64, 75
1, 579678, Control_c, 0, 64, 72
1, 579693, Control_c, 0, 64, 69
1, 579708, Control_c, 0, 64, 65
1, 579723, Control_c, 0, 64, 62
1, 579730, Note_on_c, 0, 76, 47
1, 579737, Control_c, 0, 64, 58
1, 579752, Control_c, 0, 64, 56
1, 579767, Control_c, 0, 64, 55
1, 579782, Control_c, 0, 64, 56
1, 579795, Note_off_c, 0, 81, 55
1, 579797, Control_c, 0, 64, 59
1, 579812, Control_c, 0, 64, 62
1, 579827, Control_c, 0, 64, 64
1, 579842, Control_c, 0, 64, 68
1, 579857, Control_c, 0, 64, 72
1, 579861, Note_on_c, 0, 45, 31
1, 579871, Control_c, 0, 64, 82
1, 579886, Control_c, 0, 64, 97
1, 579901, Control_c, 0, 64, 127
1, 579908, Note_off_c, 0, 38, 40
1, 579935, Note_off_c, 0, 45, 52
1, 580015, Note_on_c, 0, 55, 40
1, 580074, Note_off_c, 0, 55, 56
1, 580343, Poly_aftertouch_c, 0, 83, 127
1, 580446, Note_on_c, 0, 81, 57
1, 580547, Note_off_c, 0, 76, 51
1, 580832, Note_on_c, 0, 67, 51
1, 580854, Note_on_c, 0, 57, 35
1, 580860, Note_on_c, 0, 62, 39
1, 580876, Note_on_c, 0, 74, 43
1, 580969, Control_c, 0, 64, 107
1, 580983, Control_c, 0, 64, 89
1, 580998, Note_off_c, 0, 81, 50
1, 580998, Control_c, 0, 64, 79
1, 581013, Control_c, 0, 64, 72
1, 581028, Control_c, 0, 64, 66
1, 581043, Control_c, 0, 64, 63
1, 581058, Control_c, 0, 64, 61
1, 581073, Control_c, 0, 64, 62
1, 581088, Control_c, 0, 64, 63
1, 581103, Control_c, 0, 64, 64
1, 581117, Control_c, 0, 64, 65
1, 581132, Control_c, 0, 64, 66
1, 581147, Control_c, 0, 64, 69
1, 581161, Control_c, 0, 64, 73
1, 581176, Control_c, 0, 64, 77
1, 581191, Control_c, 0, 64, 81
1, 581206, Control_c, 0, 64, 89
1, 581221, Control_c, 0, 64, 109
1, 581235, Control_c, 0, 64, 127
1, 581291, Note_on_c, 0, 66, 65
1, 581422, Note_off_c, 0, 67, 58
1, 581582, Note_on_c, 0, 65, 65
1, 581589, Note_on_c, 0, 81, 69
1, 581650, Control_c, 0, 64, 92
1, 581672, Note_off_c, 0, 66, 53
1, 581672, Control_c, 0, 64, 77
1, 581684, Note_off_c, 0, 74, 59
1, 581687, Control_c, 0, 64, 67
1, 581702, Control_c, 0, 64, 62
1, 581733, Control_c, 0, 64, 65
1, 581747, Control_c, 0, 64, 70
1, 581753, Note_off_c, 0, 57, 41
1, 581758, Poly_aftertouch_c, 0, 83, 0
1, 581762, Control_c, 0, 64, 80
1, 581777, Control_c, 0, 64, 102
1, 581791, Control_c, 0, 64, 127
1, 581857, Note_off_c, 0, 86, 36
1, 581899, Note_on_c, 0, 57, 35
1, 581903, Note_on_c, 0, 61, 43
1, 581904, Note_on_c, 0, 66, 46
1, 581907, Note_on_c, 0, 73, 71
1, 581955, Control_c, 0, 64, 94
1, 581970, Control_c, 0, 64, 78
1, 581984, Control_c, 0, 64, 67
1, 581992, Note_off_c, 0, 62, 39
1, 581996, Note_off_c, 0, 65, 59
1, 581999, Control_c, 0, 64, 58
1, 582014, Control_c, 0, 64, 42
1, 582029, Control_c, 0, 64, 33
1, 582036, Note_off_c, 0, 81, 65
1, 582044, Control_c, 0, 64, 33
1, 582073, Control_c, 0, 64, 34
1, 582088, Control_c, 0, 64, 43
1, 582103, Control_c, 0, 64, 57
1, 582118, Control_c, 0, 64, 63
1, 582131, Note_off_c, 0, 66, 59
1, 582132, Control_c, 0, 64, 69
1, 582147, Control_c, 0, 64, 80
1, 582162, Control_c, 0, 64, 127
1, 582171, Note_off_c, 0, 61, 52
1, 582193, Note_off_c, 0, 57, 42
1, 582208, Note_on_c, 0, 86, 76
1, 582507, Note_on_c, 0, 83, 68
1, 582526, Note_off_c, 0, 73, 58
1, 582589, Note_off_c, 0, 86, 33
1, 582842, Note_on_c, 0, 47, 20
1, 582844, Note_off_c, 0, 83, 36
1, 582847, Note_on_c, 0, 38, 29
1, 582911, Control_c, 0, 64, 104
1, 582914, Note_on_c, 0, 79, 56
1, 582925, Control_c, 0, 64, 86
1, 582926, Note_on_c, 0, 71, 39
1, 582940, Control_c, 0, 64, 71
1, 582955, Control_c, 0, 64, 60
1, 582970, Control_c, 0, 64, 44
1, 582985, Control_c, 0, 64, 40
1, 582999, Control_c, 0, 64, 48
1, 583013, Note_off_c, 0, 71, 0
1, 583014, Control_c, 0, 64, 59
1, 583029, Control_c, 0, 64, 66
1, 583044, Control_c, 0, 64, 73
1, 583048, Note_off_c, 0, 38, 55
1, 583051, Poly_aftertouch_c, 0, 71, 127
1, 583059, Control_c, 0, 64, 92
1, 583074, Control_c, 0, 64, 127
1, 583122, Note_off_c, 0, 47, 52
1, 583132, Note_on_c, 0, 55, 46
1, 583196, Note_off_c, 0, 55, 54
1, 583511, Note_on_c, 0, 50, 58
1, 583512, Note_on_c, 0, 59, 61
1, 583586, Note_off_c, 0, 50, 62
1, 583635, Note_off_c, 0, 59, 63
1, 583850, Note_on_c, 0, 67, 60
1, 583855, Note_on_c, 0, 59, 48
1, 583860, Note_on_c, 0, 62, 53
1, 583882, Control_c, 0, 64, 109
1, 583904, Control_c, 0, 64, 94
1, 583919, Control_c, 0, 64, 85
1, 583934, Control_c, 0, 64, 77
1, 583949, Control_c, 0, 64, 71
1, 583963, Control_c, 0, 64, 63
1, 583978, Control_c, 0, 64, 57
1, 583993, Control_c, 0, 64, 51
1, 584008, Control_c, 0, 64, 48
1, 584023, Control_c, 0, 64, 47
1, 584037, Control_c, 0, 64, 46
1, 584052, Control_c, 0, 64, 46
1, 584097, Control_c, 0, 64, 48
1, 584113, Control_c, 0, 64, 51
1, 584128, Control_c, 0, 64, 55
1, 584142, Control_c, 0, 64, 58
1, 584157, Control_c, 0, 64, 61
1, 584162, Note_on_c, 0, 78, 65
1, 584172, Control_c, 0, 64, 63
1, 584186, Control_c, 0, 64, 65
1, 584201, Control_c, 0, 64, 68
1, 584216, Control_c, 0, 64, 72
1, 584231, Control_c, 0, 64, 78
1, 584246, Control_c, 0, 64, 88
1, 584260, Note_off_c, 0, 79, 32
1, 584260, Control_c, 0, 64, 105
1, 584275, Control_c, 0, 64, 127
1, 584312, Note_off_c, 0, 67, 38
1, 584378, Note_off_c, 0, 59, 37
1, 584453, Note_on_c, 0, 76, 58
1, 584501, Poly_aftertouch_c, 0, 71, 0
1, 584509, Note_off_c, 0, 78, 57
1, 584780, Note_on_c, 0, 58, 23
1, 584785, Note_on_c, 0, 78, 56
1, 584789, Note_on_c, 0, 70, 44
1, 584793, Note_on_c, 0, 66, 32
1, 584799, Control_c, 0, 64, 115
1, 584803, Note_on_c, 0, 61, 33
1, 584814, Control_c, 0, 64, 102
1, 584829, Control_c, 0, 64, 92
1, 584844, Control_c, 0, 64, 83
1, 584859, Control_c, 0, 64, 75
1, 584859, Note_off_c, 0, 76, 57
1, 584874, Control_c, 0, 64, 68
1, 584877, Note_off_c, 0, 62, 41
1, 584888, Control_c, 0, 64, 62
1, 584904, Control_c, 0, 64, 55
1, 584919, Control_c, 0, 64, 52
1, 584948, Control_c, 0, 64, 53
1, 584963, Control_c, 0, 64, 55
1, 584978, Control_c, 0, 64, 60
1, 584993, Control_c, 0, 64, 64
1, 585008, Control_c, 0, 64, 69
1, 585017, Note_off_c, 0, 70, 62
1, 585023, Control_c, 0, 64, 79
1, 585038, Control_c, 0, 64, 99
1, 585052, Control_c, 0, 64, 127
1, 585103, Note_on_c, 0, 68, 66
1, 585127, Note_off_c, 0, 66, 53
1, 585206, Note_off_c, 0, 58, 40
1, 585288, Note_off_c, 0, 61, 44
1, 585306, Note_off_c, 0, 68, 61
1, 585371, Note_on_c, 0, 67, 72
1, 585509, Note_off_c, 0, 67, 61
1, 585605, Note_on_c, 0, 47, 50
1, 585616, Note_on_c, 0, 38, 45
1, 585652, Control_c, 0, 64, 102
1, 585667, Control_c, 0, 64, 84
1, 585681, Control_c, 0, 64, 72
1, 585695, Note_on_c, 0, 79, 74
1, 585697, Control_c, 0, 64, 62
1, 585705, Note_on_c, 0, 66, 63
1, 585712, Control_c, 0, 64, 36
1, 585727, Control_c, 0, 64, 0
1, 585801, Control_c, 0, 64, 44
1, 585806, Note_off_c, 0, 38, 63
1, 585816, Control_c, 0, 64, 64
1, 585830, Control_c, 0, 64, 88
1, 585845, Control_c, 0, 64, 127
1, 585870, Note_off_c, 0, 66, 61
1, 585898, Note_on_c, 0, 55, 63
1, 585920, Note_off_c, 0, 47, 57
1, 585964, Note_on_c, 0, 67, 79
1, 585990, Note_off_c, 0, 55, 57
1, 586235, Note_off_c, 0, 78, 0
1, 586260, Note_on_c, 0, 74, 79
1, 586273, Poly_aftertouch_c, 0, 78, 127
1, 586287, Note_off_c, 0, 67, 51
1, 586298, Control_c, 0, 64, 115
1, 586313, Control_c, 0, 64, 108
1, 586328, Control_c, 0, 64, 102
1, 586343, Control_c, 0, 64, 99
1, 586357, Control_c, 0, 64, 97
1, 586372, Control_c, 0, 64, 96
1, 586384, Poly_aftertouch_c, 0, 78, 0
1, 586387, Control_c, 0, 64, 93
1, 586402, Control_c, 0, 64, 89
1, 586417, Control_c, 0, 64, 85
1, 586431, Control_c, 0, 64, 80
1, 586446, Control_c, 0, 64, 77
1, 586461, Control_c, 0, 64, 73
1, 586476, Control_c, 0, 64, 70
1, 586491, Control_c, 0, 64, 68
1, 586507, Control_c, 0, 64, 66
1, 586521, Control_c, 0, 64, 65
1, 586536, Control_c, 0, 64, 64
1, 586551, Control_c, 0, 64, 63
1, 586566, Control_c, 0, 64, 62
1, 586580, Control_c, 0, 64, 61
1, 586595, Control_c, 0, 64, 60
1, 586610, Control_c, 0, 64, 60
1, 586612, Note_on_c, 0, 69, 68
1, 586625, Control_c, 0, 64, 59
1, 586640, Note_on_c, 0, 71, 62
1, 586640, Control_c, 0, 64, 59
1, 586644, Note_on_c, 0, 62, 42
1, 586646, Note_on_c, 0, 59, 23
1, 586654, Control_c, 0, 64, 58
1, 586669, Control_c, 0, 64, 58
1, 586684, Control_c, 0, 64, 57
1, 586699, Control_c, 0, 64, 56
1, 586714, Control_c, 0, 64, 55
1, 586728, Control_c, 0, 64, 54
1, 586743, Control_c, 0, 64, 54
1, 586757, Note_off_c, 0, 74, 58
1, 586758, Control_c, 0, 64, 53
1, 586772, Control_c, 0, 64, 52
1, 586802, Control_c, 0, 64, 52
1, 586847, Control_c, 0, 64, 51
1, 586953, Note_on_c, 0, 68, 58
1, 586960, Note_on_c, 0, 78, 65
1, 586973, Control_c, 0, 64, 52
1, 587017, Control_c, 0, 64, 52
1, 587047, Control_c, 0, 64, 53
1, 587056, Note_off_c, 0, 69, 61
1, 587076, Control_c, 0, 64, 53
1, 587091, Control_c, 0, 64, 54
1, 587121, Control_c, 0, 64, 54
1, 587151, Control_c, 0, 64, 55
1, 587166, Control_c, 0, 64, 55
1, 587195, Control_c, 0, 64, 56
1, 587225, Control_c, 0, 64, 56
1, 587240, Control_c, 0, 64, 57
1, 587254, Note_on_c, 0, 76, 63
1, 587254, Control_c, 0, 64, 57
1, 587255, Note_on_c, 0, 67, 51
1, 587269, Control_c, 0, 64, 58
1, 587276, Note_off_c, 0, 79, 55
1, 587284, Control_c, 0, 64, 59
1, 587300, Control_c, 0, 64, 61
1, 587315, Control_c, 0, 64, 64
1, 587330, Control_c, 0, 64, 67
1, 587334, Note_off_c, 0, 71, 60
1, 587342, Note_off_c, 0, 68, 48
1, 587344, Control_c, 0, 64, 73
1, 587353, Note_off_c, 0, 59, 54
1, 587359, Control_c, 0, 64, 82
1, 587373, Note_off_c, 0, 78, 60
1, 587374, Control_c, 0, 64, 103
1, 587389, Control_c, 0, 64, 127
1, 587601, Note_on_c, 0, 58, 38
1, 587601, Note_on_c, 0, 61, 11
1, 587604, Note_on_c, 0, 66, 40
1, 587607, Note_on_c, 0, 78, 57
1, 587610, Control_c, 0, 64, 111
1, 587612, Note_on_c, 0, 70, 49
1, 587625, Control_c, 0, 64, 100
1, 587648, Control_c, 0, 64, 91
1, 587663, Control_c, 0, 64, 83
1, 587677, Control_c, 0, 64, 76
1, 587692, Control_c, 0, 64, 70
1, 587695, Note_off_c, 0, 76, 59
1, 587707, Control_c, 0, 64, 65
1, 587722, Control_c, 0, 64, 61
1, 587737, Control_c, 0, 64, 55
1, 587751, Control_c, 0, 64, 52
1, 587760, Note_off_c, 0, 67, 37
1, 587764, Note_off_c, 0, 62, 41
1, 587766, Control_c, 0, 64, 50
1, 587781, Control_c, 0, 64, 50
1, 587825, Control_c, 0, 64, 51
1, 587840, Control_c, 0, 64, 55
1, 587855, Control_c, 0, 64, 59
1, 587870, Control_c, 0, 64, 63
1, 587884, Control_c, 0, 64, 66
1, 587899, Control_c, 0, 64, 71
1, 587914, Control_c, 0, 64, 80
1, 587927, Note_on_c, 0, 68, 67
1, 587929, Control_c, 0, 64, 105
1, 587944, Control_c, 0, 64, 127
1, 587968, Note_off_c, 0, 66, 31
1, 587994, Note_off_c, 0, 70, 63
1, 588015, Note_off_c, 0, 58, 50
1, 588039, Note_off_c, 0, 61, 38
1, 588215, Note_on_c, 0, 67, 71
1, 588248, Note_off_c, 0, 68, 63
1, 588379, Note_off_c, 0, 67, 62
1, 588571, Note_on_c, 0, 79, 72
1, 588573, Note_on_c, 0, 38, 42
1, 588579, Note_on_c, 0, 46, 38
1, 588585, Note_on_c, 0, 66, 57
1, 588603, Control_c, 0, 64, 110
1, 588618, Control_c, 0, 64, 91
1, 588632, Control_c, 0, 64, 80
1, 588643, Note_off_c, 0, 78, 58
1, 588647, Control_c, 0, 64, 71
1, 588662, Control_c, 0, 64, 64
1, 588677, Control_c, 0, 64, 56
1, 588692, Control_c, 0, 64, 51
1, 588707, Control_c, 0, 64, 52
1, 588722, Control_c, 0, 64, 57
1, 588737, Control_c, 0, 64, 62
1, 588751, Control_c, 0, 64, 68
1, 588766, Control_c, 0, 64, 80
1, 588781, Control_c, 0, 64, 127
1, 588794, Note_off_c, 0, 66, 62
1, 588874, Note_on_c, 0, 67, 76
1, 588889, Note_on_c, 0, 47, 64
1, 588916, Control_c, 0, 64, 109
1, 588928, Note_off_c, 0, 46, 52
1, 588930, Control_c, 0, 64, 80
1, 588945, Control_c, 0, 64, 67
1, 588960, Control_c, 0, 64, 59
1, 588975, Control_c, 0, 64, 58
1, 588990, Control_c, 0, 64, 63
1, 589004, Control_c, 0, 64, 69
1, 589019, Control_c, 0, 64, 81
1, 589020, Note_off_c, 0, 38, 55
1, 589034, Control_c, 0, 64, 127
1, 589080, Note_off_c, 0, 47, 61
1, 589183, Note_on_c, 0, 74, 79
1, 589187, Note_on_c, 0, 54, 68
1, 589263, Control_c, 0, 64, 95
1, 589278, Control_c, 0, 64, 77
1, 589293, Control_c, 0, 64, 70
1, 589308, Control_c, 0, 64, 69
1, 589322, Control_c, 0, 64, 73
1, 589337, Control_c, 0, 64, 83
1, 589352, Control_c, 0, 64, 103
1, 589367, Control_c, 0, 64, 127
1, 589521, Note_on_c, 0, 71, 68
1, 589525, Note_off_c, 0, 67, 33
1, 589531, Note_on_c, 0, 50, 46
1, 589545, Control_c, 0, 64, 113
1, 589560, Control_c, 0, 64, 99
1, 589574, Control_c, 0, 64, 89
1, 589589, Control_c, 0, 64, 81
1, 589604, Control_c, 0, 64, 74
1, 589619, Control_c, 0, 64, 69
1, 589634, Control_c, 0, 64, 62
1, 589642, Note_off_c, 0, 54, 38
1, 589645, Note_off_c, 0, 74, 55
1, 589648, Control_c, 0, 64, 51
1, 589663, Control_c, 0, 64, 32
1, 589678, Control_c, 0, 64, 15
1, 589694, Control_c, 0, 64, 0
1, 589783, Control_c, 0, 64, 36
1, 589798, Control_c, 0, 64, 57
1, 589803, Note_off_c, 0, 50, 64
1, 589813, Control_c, 0, 64, 69
1, 589825, Note_off_c, 0, 71, 59
1, 589828, Control_c, 0, 64, 127
1, 590134, Note_on_c, 0, 59, 57
1, 590134, Note_on_c, 0, 67, 62
1, 590135, Note_on_c, 0, 62, 59
1, 590138, Note_on_c, 0, 74, 78
1, 590161, Control_c, 0, 64, 101
1, 590176, Control_c, 0, 64, 76
1, 590191, Control_c, 0, 64, 61
1, 590205, Control_c, 0, 64, 34
1, 590220, Control_c, 0, 64, 32
1, 590235, Control_c, 0, 64, 42
1, 590250, Control_c, 0, 64, 56
1, 590265, Control_c, 0, 64, 63
1, 590271, Note_off_c, 0, 67, 62
1, 590279, Control_c, 0, 64, 68
1, 590294, Control_c, 0, 64, 79
1, 590309, Control_c, 0, 64, 112
1, 590324, Control_c, 0, 64, 127
1, 590442, Control_c, 0, 64, 122
1, 590457, Control_c, 0, 64, 91
1, 590465, Note_on_c, 0, 61, 40
1, 590469, Note_on_c, 0, 57, 39
1, 590469, Note_on_c, 0, 69, 55
1, 590472, Control_c, 0, 64, 75
1, 590473, Note_on_c, 0, 66, 39
1, 590476, Note_off_c, 0, 62, 50
1, 590487, Control_c, 0, 64, 67
1, 590502, Control_c, 0, 64, 62
1, 590516, Note_off_c, 0, 59, 34
1, 590517, Control_c, 0, 64, 57
1, 590532, Control_c, 0, 64, 53
1, 590542, Poly_aftertouch_c, 0, 76, 0
1, 590545, Note_off_c, 0, 74, 53
1, 590547, Control_c, 0, 64, 48
1, 590562, Control_c, 0, 64, 44
1, 590576, Control_c, 0, 64, 38
1, 590591, Control_c, 0, 64, 36
1, 590636, Control_c, 0, 64, 40
1, 590658, Control_c, 0, 64, 50
1, 590673, Control_c, 0, 64, 60
1, 590688, Control_c, 0, 64, 65
1, 590702, Control_c, 0, 64, 71
1, 590717, Control_c, 0, 64, 87
1, 590721, Note_off_c, 0, 66, 59
1, 590732, Control_c, 0, 64, 127
1, 590744, Note_off_c, 0, 57, 60
1, 590746, Note_off_c, 0, 61, 62
1, 590774, Note_on_c, 0, 74, 73
1, 590940, Note_off_c, 0, 74, 62
1, 591067, Note_on_c, 0, 54, 72
1, 591072, Note_on_c, 0, 39, 67
1, 591074, Note_on_c, 0, 74, 68
1, 591102, Control_c, 0, 64, 92
1, 591117, Control_c, 0, 64, 75
1, 591132, Control_c, 0, 64, 63
1, 591147, Control_c, 0, 64, 52
1, 591162, Control_c, 0, 64, 43
1, 591176, Control_c, 0, 64, 43
1, 591191, Control_c, 0, 64, 43
1, 591206, Control_c, 0, 64, 49
1, 591212, Note_off_c, 0, 69, 58
1, 591220, Control_c, 0, 64, 61
1, 591235, Control_c, 0, 64, 67
1, 591247, Note_off_c, 0, 54, 63
1, 591250, Control_c, 0, 64, 78
1, 591265, Control_c, 0, 64, 101
1, 591280, Control_c, 0, 64, 127
1, 591451, Control_c, 0, 64, 96
1, 591466, Control_c, 0, 64, 78
1, 591468, Note_on_c, 0, 67, 61
1, 591471, Note_on_c, 0, 38, 47
1, 591473, Note_on_c, 0, 47, 42
1, 591481, Control_c, 0, 64, 66
1, 591496, Control_c, 0, 64, 57
1, 591504, Note_off_c, 0, 39, 35
1, 591511, Control_c, 0, 64, 23
1, 591525, Control_c, 0, 64, 0
1, 591569, Note_off_c, 0, 74, 59
1, 591593, Note_off_c, 0, 38, 61
1, 591599, Control_c, 0, 64, 50
1, 591614, Control_c, 0, 64, 65
1, 591629, Control_c, 0, 64, 76
1, 591643, Control_c, 0, 64, 108
1, 591658, Control_c, 0, 64, 127
1, 591664, Note_on_c, 0, 55, 58
1, 591732, Note_off_c, 0, 55, 45
1, 591855, Note_off_c, 0, 47, 37
1, 591911, Control_c, 0, 64, 122
1, 591925, Control_c, 0, 64, 112
1, 591940, Control_c, 0, 64, 107
1, 591955, Control_c, 0, 64, 104
1, 591969, Control_c, 0, 64, 102
1, 591984, Control_c, 0, 64, 98
1, 591999, Control_c, 0, 64, 94
1, 592014, Control_c, 0, 64, 92
1, 592029, Control_c, 0, 64, 91
1, 592043, Control_c, 0, 64, 89
1, 592058, Control_c, 0, 64, 86
1, 592073, Control_c, 0, 64, 83
1, 592081, Note_on_c, 0, 74, 59
1, 592089, Control_c, 0, 64, 81
1, 592104, Control_c, 0, 64, 79
1, 592119, Control_c, 0, 64, 78
1, 592141, Control_c, 0, 64, 76
1, 592156, Control_c, 0, 64, 74
1, 592161, Note_off_c, 0, 67, 57
1, 592171, Control_c, 0, 64, 73
1, 592186, Control_c, 0, 64, 72
1, 592201, Control_c, 0, 64, 71
1, 592215, Control_c, 0, 64, 69
1, 592230, Control_c, 0, 64, 68
1, 592245, Control_c, 0, 64, 66
1, 592260, Control_c, 0, 64, 63
1, 592274, Control_c, 0, 64, 60
1, 592289, Control_c, 0, 64, 56
1, 592304, Control_c, 0, 64, 53
1, 592319, Control_c, 0, 64, 50
1, 592334, Control_c, 0, 64, 47
1, 592348, Control_c, 0, 64, 41
1, 592363, Control_c, 0, 64, 33
1, 592378, Control_c, 0, 64, 23
1, 592392, Control_c, 0, 64, 12
1, 592407, Control_c, 0, 64, 0
1, 592451, Note_on_c, 0, 66, 49
1, 592454, Note_on_c, 0, 37, 35
1, 592457, Note_on_c, 0, 46, 38
1, 592487, Note_off_c, 0, 74, 58
1, 592526, Control_c, 0, 64, 24
1, 592540, Control_c, 0, 64, 47
1, 592555, Control_c, 0, 64, 60
1, 592566, Note_off_c, 0, 37, 56
1, 592570, Control_c, 0, 64, 65
1, 592585, Control_c, 0, 64, 71
1, 592600, Control_c, 0, 64, 83
1, 592615, Control_c, 0, 64, 127
1, 592662, Note_on_c, 0, 54, 47
1, 592713, Note_off_c, 0, 54, 58
1, 592734, Note_off_c, 0, 46, 36
1, 592934, Control_c, 0, 64, 117
1, 592949, Control_c, 0, 64, 105
1, 592964, Control_c, 0, 64, 101
1, 592978, Control_c, 0, 64, 100
1, 592993, Control_c, 0, 64, 99
1, 593008, Control_c, 0, 64, 97
1, 593023, Control_c, 0, 64, 92
1, 593038, Control_c, 0, 64, 88
1, 593052, Control_c, 0, 64, 87
1, 593067, Control_c, 0, 64, 86
1, 593082, Control_c, 0, 64, 86
1, 593096, Control_c, 0, 64, 84
1, 593111, Control_c, 0, 64, 81
1, 593118, Note_on_c, 0, 74, 51
1, 593126, Control_c, 0, 64, 79
1, 593141, Control_c, 0, 64, 78
1, 593156, Control_c, 0, 64, 76
1, 593170, Control_c, 0, 64, 74
1, 593185, Control_c, 0, 64, 72
1, 593200, Control_c, 0, 64, 70
1, 593214, Control_c, 0, 64, 67
1, 593229, Control_c, 0, 64, 65
1, 593244, Control_c, 0, 64, 63
1, 593259, Control_c, 0, 64, 61
1, 593274, Control_c, 0, 64, 59
1, 593289, Control_c, 0, 64, 58
1, 593304, Control_c, 0, 64, 57
1, 593306, Note_off_c, 0, 66, 37
1, 593318, Control_c, 0, 64, 56
1, 593333, Control_c, 0, 64, 56
1, 593348, Control_c, 0, 64, 55
1, 593378, Control_c, 0, 64, 55
1, 593408, Control_c, 0, 64, 54
1, 593485, Note_on_c, 0, 50, 37
1, 593490, Note_on_c, 0, 65, 44
1, 593493, Note_on_c, 0, 35, 30
1, 593527, Control_c, 0, 64, 55
1, 593527, Note_off_c, 0, 74, 53
1, 593542, Control_c, 0, 64, 58
1, 593557, Control_c, 0, 64, 62
1, 593571, Control_c, 0, 64, 65
1, 593586, Control_c, 0, 64, 69
1, 593601, Control_c, 0, 64, 77
1, 593615, Control_c, 0, 64, 90
1, 593630, Control_c, 0, 64, 127
1, 593657, Note_off_c, 0, 50, 39
1, 593680, Note_off_c, 0, 35, 40
1, 593864, Note_on_c, 0, 48, 39
1, 593867, Note_on_c, 0, 33, 35
1, 593891, Control_c, 0, 64, 108
1, 593906, Control_c, 0, 64, 87
1, 593920, Control_c, 0, 64, 73
1, 593935, Control_c, 0, 64, 63
1, 593950, Control_c, 0, 64, 57
1, 593965, Control_c, 0, 64, 54
1, 593994, Control_c, 0, 64, 56
1, 594009, Control_c, 0, 64, 60
1, 594024, Control_c, 0, 64, 66
1, 594034, Note_off_c, 0, 33, 50
1, 594038, Control_c, 0, 64, 73
1, 594052, Note_off_c, 0, 48, 52
1, 594053, Control_c, 0, 64, 87
1, 594068, Control_c, 0, 64, 127
1, 594275, Control_c, 0, 64, 103
1, 594290, Note_on_c, 0, 50, 31
1, 594290, Control_c, 0, 64, 86
1, 594296, Note_on_c, 0, 35, 35
1, 594305, Control_c, 0, 64, 73
1, 594320, Control_c, 0, 64, 64
1, 594335, Control_c, 0, 64, 59
1, 594335, Note_off_c, 0, 79, 39
1, 594365, Control_c, 0, 64, 60
1, 594380, Control_c, 0, 64, 62
1, 594401, Control_c, 0, 64, 65
1, 594416, Control_c, 0, 64, 69
1, 594431, Control_c, 0, 64, 79
1, 594445, Control_c, 0, 64, 98
1, 594460, Control_c, 0, 64, 127
1, 594478, Note_off_c, 0, 65, 41
1, 594543, Note_off_c, 0, 35, 38
1, 594555, Note_off_c, 0, 50, 41
1, 595035, Note_on_c, 0, 52, 40
1, 595042, Note_on_c, 0, 64, 54
1, 595048, Note_on_c, 0, 60, 42
1, 595068, Note_on_c, 0, 43, 19
1, 595070, Note_on_c, 0, 36, 24
1, 595070, Note_on_c, 0, 48, 21
1, 595150, Control_c, 0, 64, 120
1, 595165, Control_c, 0, 64, 103
1, 595180, Control_c, 0, 64, 93
1, 595194, Control_c, 0, 64, 86
1, 595209, Control_c, 0, 64, 79
1, 595224, Control_c, 0, 64, 73
1, 595239, Control_c, 0, 64, 68
1, 595254, Control_c, 0, 64, 63
1, 595268, Control_c, 0, 64, 59
1, 595283, Control_c, 0, 64, 57
1, 595299, Control_c, 0, 64, 56
1, 595314, Control_c, 0, 64, 56
1, 595329, Control_c, 0, 64, 55
1, 595388, Control_c, 0, 64, 56
1, 595403, Control_c, 0, 64, 58
1, 595418, Control_c, 0, 64, 61
1, 595433, Control_c, 0, 64, 64
1, 595447, Control_c, 0, 64, 67
1, 595462, Control_c, 0, 64, 71
1, 595477, Control_c, 0, 64, 76
1, 595492, Control_c, 0, 64, 82
1, 595506, Control_c, 0, 64, 90
1, 595521, Control_c, 0, 64, 99
1, 595536, Control_c, 0, 64, 110
1, 595551, Control_c, 0, 64, 119
1, 595567, Note_off_c, 0, 48, 32
1, 595581, Control_c, 0, 64, 117
1, 595582, Note_off_c, 0, 36, 38
1, 595591, Note_off_c, 0, 43, 37
1, 595596, Control_c, 0, 64, 115
1, 595611, Control_c, 0, 64, 114
1, 595626, Control_c, 0, 64, 112
1, 595640, Control_c, 0, 64, 109
1, 595655, Control_c, 0, 64, 106
1, 595670, Control_c, 0, 64, 104
1, 595684, Control_c, 0, 64, 101
1, 595691, Note_off_c, 0, 52, 36
1, 595699, Control_c, 0, 64, 98
1, 595714, Control_c, 0, 64, 96
1, 595729, Control_c, 0, 64, 94
1, 595742, Control_c, 0, 64, 92
1, 595757, Control_c, 0, 64, 89
1, 595772, Control_c, 0, 64, 86
1, 595787, Control_c, 0, 64, 83
1, 595802, Control_c, 0, 64, 82
1, 595816, Control_c, 0, 64, 81
1, 595831, Control_c, 0, 64, 81
1, 595846, Control_c, 0, 64, 80
1, 595861, Control_c, 0, 64, 80
1, 595876, Control_c, 0, 64, 78
1, 595897, Control_c, 0, 64, 76
1, 595912, Control_c, 0, 64, 75
1, 595927, Control_c, 0, 64, 75
1, 595942, Control_c, 0, 64, 74
1, 595957, Control_c, 0, 64, 73
1, 595971, Control_c, 0, 64, 72
1, 595986, Control_c, 0, 64, 71
1, 596016, Control_c, 0, 64, 71
1, 596031, Control_c, 0, 64, 70
1, 596046, Control_c, 0, 64, 69
1, 596061, Control_c, 0, 64, 68
1, 596076, Control_c, 0, 64, 67
1, 596091, Control_c, 0, 64, 66
1, 596106, Control_c, 0, 64, 66
1, 596121, Control_c, 0, 64, 65
1, 596135, Control_c, 0, 64, 63
1, 596150, Control_c, 0, 64, 61
1, 596165, Control_c, 0, 64, 60
1, 596180, Control_c, 0, 64, 60
1, 596195, Control_c, 0, 64, 59
1, 596210, Control_c, 0, 64, 58
1, 596225, Control_c, 0, 64, 58
1, 596239, Control_c, 0, 64, 57
1, 596313, Control_c, 0, 64, 58
1, 596328, Control_c, 0, 64, 58
1, 596343, Control_c, 0, 64, 59
1, 596358, Control_c, 0, 64, 60
1, 596373, Control_c, 0, 64, 61
1, 596381, Note_on_c, 0, 76, 35
1, 596385, Note_on_c, 0, 72, 37
1, 596387, Control_c, 0, 64, 62
1, 596400, Note_on_c, 0, 67, 27
1, 596402, Note_on_c, 0, 52, 31
1, 596402, Control_c, 0, 64, 63
1, 596417, Control_c, 0, 64, 65
1, 596431, Control_c, 0, 64, 68
1, 596441, Note_off_c, 0, 60, 42
1, 596446, Control_c, 0, 64, 70
1, 596461, Control_c, 0, 64, 74
1, 596476, Control_c, 0, 64, 78
1, 596491, Control_c, 0, 64, 83
1, 596505, Control_c, 0, 64, 91
1, 596520, Control_c, 0, 64, 107
1, 596535, Control_c, 0, 64, 127
1, 596594, Note_off_c, 0, 76, 40
1, 596624, Note_off_c, 0, 52, 37
1, 596711, Note_off_c, 0, 72, 43
1, 596714, Note_on_c, 0, 61, 44
1, 596717, Note_on_c, 0, 65, 50
1, 596734, Note_off_c, 0, 67, 40
1, 596805, Note_off_c, 0, 64, 33
1, 597027, Note_on_c, 0, 64, 60
1, 597038, Note_on_c, 0, 60, 41
1, 597047, Note_on_c, 0, 53, 46
1, 597055, Note_off_c, 0, 61, 59
1, 597141, Note_off_c, 0, 60, 56
1, 597149, Note_off_c, 0, 53, 55
1, 597329, Control_c, 0, 64, 110
1, 597344, Control_c, 0, 64, 100
1, 597359, Control_c, 0, 64, 90
1, 597374, Control_c, 0, 64, 83
1, 597396, Note_on_c, 0, 63, 49
1, 597396, Control_c, 0, 64, 77
1, 597397, Note_on_c, 0, 32, 31
1, 597411, Control_c, 0, 64, 71
1, 597417, Note_on_c, 0, 54, 35
1, 597417, Note_on_c, 0, 59, 37
1, 597422, Note_off_c, 0, 65, 33
1, 597426, Control_c, 0, 64, 66
1, 597439, Note_off_c, 0, 64, 55
1, 597441, Control_c, 0, 64, 62
1, 597456, Control_c, 0, 64, 58
1, 597470, Control_c, 0, 64, 55
1, 597480, Poly_aftertouch_c, 0, 44, 127
1, 597485, Control_c, 0, 64, 54
1, 597500, Control_c, 0, 64, 53
1, 597544, Control_c, 0, 64, 55
1, 597559, Control_c, 0, 64, 61
1, 597574, Control_c, 0, 64, 67
1, 597587, Note_off_c, 0, 54, 51
1, 597589, Control_c, 0, 64, 77
1, 597604, Control_c, 0, 64, 105
1, 597605, Note_off_c, 0, 63, 60
1, 597614, Note_off_c, 0, 59, 38
1, 597618, Control_c, 0, 64, 127
1, 597716, Note_on_c, 0, 68, 63
1, 597727, Note_on_c, 0, 63, 57
1, 597729, Poly_aftertouch_c, 0, 44, 0
1, 597731, Note_off_c, 0, 32, 42
1, 597734, Note_on_c, 0, 59, 53
1, 597782, Note_off_c, 0, 59, 53
1, 597814, Note_off_c, 0, 63, 59
1, 597993, Note_off_c, 0, 68, 63
1, 598010, Note_on_c, 0, 70, 74
1, 598024, Note_on_c, 0, 65, 56
1, 598029, Note_on_c, 0, 61, 51
1, 598218, Note_off_c, 0, 61, 37
1, 598264, Control_c, 0, 64, 120
1, 598279, Control_c, 0, 64, 112
1, 598279, Note_on_c, 0, 43, 41
1, 598293, Control_c, 0, 64, 108
1, 598295, Note_on_c, 0, 36, 36
1, 598308, Control_c, 0, 64, 101
1, 598323, Control_c, 0, 64, 95
1, 598338, Control_c, 0, 64, 89
1, 598344, Note_on_c, 0, 62, 67
1, 598353, Control_c, 0, 64, 84
1, 598365, Note_on_c, 0, 66, 48
1, 598367, Control_c, 0, 64, 78
1, 598368, Note_on_c, 0, 71, 64
1, 598377, Note_off_c, 0, 65, 54
1, 598382, Control_c, 0, 64, 72
1, 598397, Control_c, 0, 64, 65
1, 598411, Control_c, 0, 64, 59
1, 598426, Control_c, 0, 64, 51
1, 598441, Control_c, 0, 64, 46
1, 598449, Note_off_c, 0, 70, 40
1, 598456, Control_c, 0, 64, 44
1, 598471, Control_c, 0, 64, 43
1, 598487, Control_c, 0, 64, 43
1, 598502, Control_c, 0, 64, 45
1, 598516, Control_c, 0, 64, 54
1, 598523, Note_off_c, 0, 36, 42
1, 598531, Control_c, 0, 64, 62
1, 598546, Control_c, 0, 64, 66
1, 598561, Control_c, 0, 64, 71
1, 598565, Note_off_c, 0, 43, 57
1, 598575, Control_c, 0, 64, 84
1, 598590, Control_c, 0, 64, 127
1, 598624, Note_on_c, 0, 53, 49
1, 598684, Note_on_c, 0, 63, 69
1, 598821, Note_off_c, 0, 63, 62
1, 598854, Note_off_c, 0, 53, 31
1, 598952, Control_c, 0, 64, 125
1, 598967, Control_c, 0, 64, 108
1, 598982, Control_c, 0, 64, 101
1, 598991, Note_on_c, 0, 65, 59
1, 598997, Control_c, 0, 64, 97
1, 599000, Note_on_c, 0, 69, 56
1, 599012, Control_c, 0, 64, 95
1, 599027, Control_c, 0, 64, 92
1, 599041, Control_c, 0, 64, 89
1, 599056, Control_c, 0, 64, 84
1, 599071, Control_c, 0, 64, 80
1, 599076, Note_off_c, 0, 62, 35
1, 599086, Control_c, 0, 64, 78
1, 599101, Control_c, 0, 64, 76
1, 599109, Note_off_c, 0, 71, 53
1, 599115, Control_c, 0, 64, 75
1, 599130, Control_c, 0, 64, 74
1, 599145, Control_c, 0, 64, 72
1, 599160, Control_c, 0, 64, 71
1, 599162, Note_off_c, 0, 66, 32
1, 599175, Control_c, 0, 64, 69
1, 599189, Control_c, 0, 64, 68
1, 599204, Control_c, 0, 64, 67
1, 599219, Control_c, 0, 64, 66
1, 599233, Control_c, 0, 64, 64
1, 599248, Control_c, 0, 64, 63
1, 599263, Control_c, 0, 64, 62
1, 599279, Control_c, 0, 64, 61
1, 599294, Control_c, 0, 64, 60
1, 599309, Control_c, 0, 64, 58
1, 599324, Control_c, 0, 64, 55
1, 599338, Control_c, 0, 64, 52
1, 599344, Note_on_c, 0, 60, 40
1, 599344, Note_on_c, 0, 72, 47
1, 599348, Note_on_c, 0, 64, 42
1, 599353, Note_on_c, 0, 52, 28
1, 599353, Control_c, 0, 64, 49
1, 599361, Note_on_c, 0, 67, 29
1, 599365, Note_on_c, 0, 55, 28
1, 599368, Control_c, 0, 64, 46
1, 599383, Control_c, 0, 64, 44
1, 599398, Control_c, 0, 64, 43
1, 599412, Control_c, 0, 64, 41
1, 599479, Note_off_c, 0, 65, 35
1, 599486, Control_c, 0, 64, 43
1, 599488, Note_off_c, 0, 69, 32
1, 599501, Control_c, 0, 64, 51
1, 599514, Note_off_c, 0, 67, 60
1, 599516, Control_c, 0, 64, 59
1, 599531, Control_c, 0, 64, 63
1, 599546, Control_c, 0, 64, 67
1, 599560, Control_c, 0, 64, 73
1, 599575, Control_c, 0, 64, 85
1, 599590, Control_c, 0, 64, 127
1, 599642, Note_off_c, 0, 72, 61
1, 599684, Note_on_c, 0, 74, 59
1, 599685, Note_off_c, 0, 60, 54
1, 599799, Note_off_c, 0, 64, 33
1, 599809, Note_off_c, 0, 55, 40
1, 599845, Note_off_c, 0, 52, 42
1, 599984, Note_on_c, 0, 76, 76
1, 600114, Note_off_c, 0, 74, 62
1, 600117, Control_c, 0, 64, 111
1, 600132, Control_c, 0, 64, 97
1, 600147, Control_c, 0, 64, 88
1, 600161, Control_c, 0, 64, 81
1, 600176, Control_c, 0, 64, 77
1, 600191, Control_c, 0, 64, 73
1, 600206, Control_c, 0, 64, 69
1, 600221, Control_c, 0, 64, 66
1, 600235, Control_c, 0, 64, 63
1, 600250, Control_c, 0, 64, 58
1, 600265, Control_c, 0, 64, 54
1, 600279, Control_c, 0, 64, 48
1, 600293, Note_on_c, 0, 77, 74
1, 600294, Note_on_c, 0, 74, 59
1, 600294, Control_c, 0, 64, 37
1, 600295, Note_on_c, 0, 72, 52
1, 600296, Note_on_c, 0, 35, 49
1, 600298, Note_on_c, 0, 47, 46
1, 600309, Control_c, 0, 64, 12
1, 600324, Control_c, 0, 64, 0
1, 600388, Note_off_c, 0, 76, 58
1, 600568, Control_c, 0, 64, 30
1, 600583, Control_c, 0, 64, 46
1, 600598, Control_c, 0, 64, 55
1, 600613, Control_c, 0, 64, 60
1, 600624, Note_on_c, 0, 76, 77
1, 600628, Control_c, 0, 64, 65
1, 600643, Control_c, 0, 64, 70
1, 600657, Control_c, 0, 64, 81
1, 600672, Control_c, 0, 64, 106
1, 600687, Control_c, 0, 64, 127
1, 600695, Note_off_c, 0, 72, 36
1, 600727, Note_off_c, 0, 77, 57
1, 600753, Note_off_c, 0, 74, 57
1, 600795, Note_off_c, 0, 47, 36
1, 600945, Note_on_c, 0, 74, 79
1, 601103, Note_off_c, 0, 76, 62
1, 601389, Note_on_c, 0, 81, 66
1, 601391, Note_on_c, 0, 48, 44
1, 601395, Note_on_c, 0, 75, 54
1, 601398, Note_on_c, 0, 33, 36
1, 601401, Note_on_c, 0, 79, 61
1, 601406, Note_on_c, 0, 40, 36
1, 601466, Control_c, 0, 64, 112
1, 601481, Control_c, 0, 64, 102
1, 601496, Control_c, 0, 64, 93
1, 601510, Control_c, 0, 64, 86
1, 601525, Control_c, 0, 64, 78
1, 601540, Control_c, 0, 64, 70
1, 601555, Note_off_c, 0, 35, 38
1, 601555, Control_c, 0, 64, 63
1, 601570, Control_c, 0, 64, 54
1, 601585, Note_off_c, 0, 74, 49
1, 601585, Control_c, 0, 64, 47
1, 601599, Control_c, 0, 64, 43
1, 601614, Control_c, 0, 64, 41
1, 601674, Control_c, 0, 64, 43
1, 601689, Control_c, 0, 64, 48
1, 601704, Control_c, 0, 64, 54
1, 601719, Control_c, 0, 64, 59
1, 601734, Control_c, 0, 64, 63
1, 601748, Control_c, 0, 64, 67
1, 601763, Control_c, 0, 64, 74
1, 601778, Control_c, 0, 64, 87
1, 601786, Note_on_c, 0, 77, 61
1, 601791, Note_on_c, 0, 74, 57
1, 601793, Control_c, 0, 64, 127
1, 601810, Note_off_c, 0, 33, 39
1, 601820, Note_off_c, 0, 48, 34
1, 601883, Note_off_c, 0, 40, 42
1, 601910, Note_off_c, 0, 75, 61
1, 601953, Note_off_c, 0, 74, 61
1, 602053, Control_c, 0, 64, 93
1, 602067, Control_c, 0, 64, 77
1, 602079, Note_on_c, 0, 76, 77
1, 602082, Control_c, 0, 64, 68
1, 602086, Note_on_c, 0, 72, 69
1, 602097, Control_c, 0, 64, 64
1, 602112, Control_c, 0, 64, 62
1, 602127, Control_c, 0, 64, 64
1, 602142, Control_c, 0, 64, 67
1, 602157, Control_c, 0, 64, 72
1, 602159, Note_off_c, 0, 77, 60
1, 602163, Note_off_c, 0, 79, 59
1, 602172, Control_c, 0, 64, 83
1, 602187, Control_c, 0, 64, 115
1, 602201, Control_c, 0, 64, 127
1, 602268, Note_off_c, 0, 72, 62
1, 602282, Note_off_c, 0, 76, 65
1, 602375, Note_on_c, 0, 59, 49
1, 602379, Control_c, 0, 64, 87
1, 602380, Note_on_c, 0, 62, 53
1, 602380, Note_on_c, 0, 69, 57
1, 602382, Note_on_c, 0, 74, 80
1, 602387, Note_on_c, 0, 71, 69
1, 602393, Control_c, 0, 64, 68
1, 602408, Control_c, 0, 64, 53
1, 602423, Control_c, 0, 64, 0
1, 602498, Note_off_c, 0, 81, 61
1, 602513, Control_c, 0, 64, 15
1, 602528, Control_c, 0, 64, 60
1, 602529, Note_off_c, 0, 71, 61
1, 602543, Control_c, 0, 64, 77
1, 602557, Control_c, 0, 64, 127
1, 602592, Note_off_c, 0, 69, 63
1, 602689, Note_off_c, 0, 62, 58
1, 602692, Note_on_c, 0, 83, 89
1, 602715, Note_off_c, 0, 59, 36
1, 602928, Note_off_c, 0, 74, 51
1, 602986, Note_on_c, 0, 84, 93
1, 603117, Note_off_c, 0, 83, 54
1, 603221, Note_on_c, 0, 36, 50
1, 603224, Note_on_c, 0, 31, 47
1, 603245, Control_c, 0, 64, 84
1, 603260, Control_c, 0, 64, 68
1, 603276, Control_c, 0, 64, 57
1, 603290, Note_on_c, 0, 83, 73
1, 603291, Control_c, 0, 64, 45
1, 603300, Note_on_c, 0, 80, 52
1, 603305, Control_c, 0, 64, 46
1, 603320, Control_c, 0, 64, 57
1, 603335, Control_c, 0, 64, 66
1, 603350, Control_c, 0, 64, 77
1, 603372, Control_c, 0, 64, 127
1, 603395, Note_off_c, 0, 31, 62
1, 603460, Note_on_c, 0, 48, 70
1, 603582, Note_on_c, 0, 82, 90
1, 603585, Note_off_c, 0, 48, 51
1, 603591, Note_on_c, 0, 79, 81
1, 603629, Note_off_c, 0, 80, 64
1, 603666, Note_off_c, 0, 36, 34
1, 603674, Note_off_c, 0, 84, 54
1, 603718, Note_off_c, 0, 79, 64
1, 603725, Note_off_c, 0, 83, 55
1, 603882, Note_on_c, 0, 81, 101
1, 603889, Note_on_c, 0, 78, 96
1, 603935, Note_off_c, 0, 82, 63
1, 604090, Note_off_c, 0, 78, 63
1, 604109, Note_off_c, 0, 81, 60
1, 604262, Note_on_c, 0, 37, 53
1, 604278, Note_on_c, 0, 25, 54
1, 604294, Note_on_c, 0, 89, 97
1, 604297, Note_on_c, 0, 80, 80
1, 604301, Note_on_c, 0, 77, 83
1, 604373, Control_c, 0, 64, 82
1, 604388, Control_c, 0, 64, 62
1, 604402, Control_c, 0, 64, 0
1, 604491, Control_c, 0, 64, 57
1, 604506, Control_c, 0, 64, 76
1, 604521, Control_c, 0, 64, 127
1, 604574, Note_off_c, 0, 77, 64
1, 604582, Note_off_c, 0, 25, 59
1, 604660, Note_off_c, 0, 37, 34
1, 604727, Note_on_c, 0, 76, 87
1, 604933, Note_off_c, 0, 76, 64
1, 605062, Note_on_c, 0, 75, 80
1, 605077, Poly_aftertouch_c, 0, 86, 127
1, 605302, Note_off_c, 0, 75, 60
1, 605480, Note_on_c, 0, 76, 66
1, 605486, Note_on_c, 0, 68, 36
1, 605487, Note_on_c, 0, 56, 35
1, 605487, Note_on_c, 0, 61, 39
1, 605492, Control_c, 0, 64, 108
1, 605507, Control_c, 0, 64, 101
1, 605522, Control_c, 0, 64, 94
1, 605537, Control_c, 0, 64, 88
1, 605552, Control_c, 0, 64, 81
1, 605567, Control_c, 0, 64, 74
1, 605582, Control_c, 0, 64, 66
1, 605597, Control_c, 0, 64, 59
1, 605612, Control_c, 0, 64, 45
1, 605633, Control_c, 0, 64, 22
1, 605648, Control_c, 0, 64, 0
1, 605738, Control_c, 0, 64, 36
1, 605740, Note_off_c, 0, 80, 55
1, 605753, Control_c, 0, 64, 60
1, 605758, Note_off_c, 0, 68, 56
1, 605768, Control_c, 0, 64, 67
1, 605782, Control_c, 0, 64, 80
1, 605797, Control_c, 0, 64, 127
1, 605801, Note_off_c, 0, 89, 54
1, 605820, Poly_aftertouch_c, 0, 86, 0
1, 605838, Note_off_c, 0, 61, 42
1, 605899, Note_off_c, 0, 56, 41
1, 606240, Note_on_c, 0, 32, 63
1, 606242, Note_on_c, 0, 44, 61
1, 606244, Note_on_c, 0, 89, 90
1, 606283, Poly_aftertouch_c, 0, 77, 127
1, 606285, Control_c, 0, 64, 95
1, 606299, Control_c, 0, 64, 75
1, 606314, Control_c, 0, 64, 66
1, 606329, Control_c, 0, 64, 62
1, 606344, Control_c, 0, 64, 62
1, 606359, Control_c, 0, 64, 64
1, 606381, Control_c, 0, 64, 70
1, 606396, Control_c, 0, 64, 89
1, 606411, Control_c, 0, 64, 127
1, 606482, Note_off_c, 0, 89, 61
1, 606505, Note_off_c, 0, 44, 61
1, 606531, Poly_aftertouch_c, 0, 77, 0
1, 606560, Note_on_c, 0, 45, 60
1, 606563, Note_on_c, 0, 33, 65
1, 606571, Note_on_c, 0, 88, 88
1, 606577, Note_off_c, 0, 32, 56
1, 606589, Control_c, 0, 64, 84
1, 606604, Control_c, 0, 64, 68
1, 606619, Control_c, 0, 64, 57
1, 606634, Control_c, 0, 64, 43
1, 606649, Control_c, 0, 64, 39
1, 606678, Control_c, 0, 64, 47
1, 606693, Control_c, 0, 64, 61
1, 606708, Control_c, 0, 64, 72
1, 606722, Control_c, 0, 64, 116
1, 606737, Control_c, 0, 64, 127
1, 606751, Note_off_c, 0, 76, 58
1, 606757, Note_off_c, 0, 33, 61
1, 606761, Note_off_c, 0, 45, 63
1, 606841, Note_on_c, 0, 35, 64
1, 606844, Note_on_c, 0, 47, 71
1, 606854, Note_on_c, 0, 84, 89
1, 606885, Control_c, 0, 64, 84
1, 606900, Control_c, 0, 64, 68
1, 606914, Control_c, 0, 64, 58
1, 606929, Control_c, 0, 64, 51
1, 606944, Control_c, 0, 64, 52
1, 606959, Control_c, 0, 64, 58
1, 606974, Control_c, 0, 64, 65
1, 606989, Control_c, 0, 64, 76
1, 607004, Control_c, 0, 64, 127
1, 607029, Note_off_c, 0, 88, 55
1, 607031, Note_off_c, 0, 47, 60
1, 607093, Note_off_c, 0, 35, 55
1, 607151, Note_on_c, 0, 48, 75
1, 607153, Note_on_c, 0, 79, 90
1, 607154, Note_on_c, 0, 36, 65
1, 607174, Control_c, 0, 64, 97
1, 607189, Control_c, 0, 64, 76
1, 607201, Note_off_c, 0, 84, 56
1, 607204, Control_c, 0, 64, 64
1, 607218, Control_c, 0, 64, 52
1, 607233, Control_c, 0, 64, 40
1, 607248, Control_c, 0, 64, 44
1, 607263, Control_c, 0, 64, 57
1, 607279, Control_c, 0, 64, 65
1, 607293, Control_c, 0, 64, 74
1, 607308, Control_c, 0, 64, 98
1, 607309, Note_off_c, 0, 79, 64
1, 607323, Control_c, 0, 64, 127
1, 607328, Note_off_c, 0, 48, 62
1, 607490, Note_on_c, 0, 49, 51
1, 607490, Note_on_c, 0, 76, 80
1, 607493, Note_on_c, 0, 67, 75
1, 607499, Note_on_c, 0, 37, 54
1, 607500, Note_on_c, 0, 72, 65
1, 607501, Control_c, 0, 64, 109
1, 607516, Control_c, 0, 64, 83
1, 607531, Control_c, 0, 64, 71
1, 607545, Control_c, 0, 64, 62
1, 607560, Note_off_c, 0, 36, 51
1, 607560, Control_c, 0, 64, 48
1, 607575, Control_c, 0, 64, 39
1, 607590, Control_c, 0, 64, 39
1, 607619, Control_c, 0, 64, 45
1, 607634, Control_c, 0, 64, 55
1, 607649, Control_c, 0, 64, 63
1, 607663, Note_off_c, 0, 72, 65
1, 607664, Control_c, 0, 64, 68
1, 607679, Control_c, 0, 64, 79
1, 607693, Control_c, 0, 64, 127
1, 607796, Note_on_c, 0, 66, 64
1, 607799, Note_on_c, 0, 71, 70
1, 607812, Control_c, 0, 64, 94
1, 607827, Control_c, 0, 64, 71
1, 607841, Control_c, 0, 64, 54
1, 607856, Control_c, 0, 64, 0
1, 607874, Note_off_c, 0, 67, 55
1, 607952, Control_c, 0, 64, 36
1, 607967, Control_c, 0, 64, 60
1, 607982, Control_c, 0, 64, 70
1, 607997, Control_c, 0, 64, 85
1, 608012, Control_c, 0, 64, 127
1, 608017, Note_off_c, 0, 37, 59
1, 608070, Note_off_c, 0, 49, 60
1, 608116, Note_on_c, 0, 65, 55
1, 608116, Note_on_c, 0, 70, 68
1, 608155, Note_off_c, 0, 66, 60
1, 608242, Note_off_c, 0, 65, 54
1, 608469, Note_off_c, 0, 71, 51
1, 608471, Note_on_c, 0, 52, 38
1, 608474, Note_on_c, 0, 69, 57
1, 608478, Note_on_c, 0, 60, 42
1, 608481, Note_on_c, 0, 64, 46
1, 608490, Note_on_c, 0, 57, 39
1, 608517, Control_c, 0, 64, 111
1, 608532, Control_c, 0, 64, 82
1, 608542, Note_off_c, 0, 70, 54
1, 608547, Control_c, 0, 64, 69
1, 608561, Control_c, 0, 64, 60
1, 608576, Control_c, 0, 64, 46
1, 608591, Control_c, 0, 64, 39
1, 608606, Control_c, 0, 64, 38
1, 608643, Control_c, 0, 64, 43
1, 608658, Control_c, 0, 64, 55
1, 608673, Control_c, 0, 64, 63
1, 608680, Note_off_c, 0, 76, 58
1, 608688, Control_c, 0, 64, 69
1, 608702, Control_c, 0, 64, 80
1, 608710, Note_off_c, 0, 60, 57
1, 608717, Control_c, 0, 64, 110
1, 608724, Note_off_c, 0, 64, 61
1, 608732, Control_c, 0, 64, 127
1, 608783, Note_off_c, 0, 69, 62
1, 608792, Note_off_c, 0, 57, 59
1, 608811, Note_off_c, 0, 52, 44
1, 609111, Note_on_c, 0, 89, 87
1, 609473, Note_on_c, 0, 88, 76
1, 609508, Note_on_c, 0, 33, 58
1, 609530, Note_on_c, 0, 45, 24
1, 609569, Control_c, 0, 64, 110
1, 609584, Control_c, 0, 64, 86
1, 609598, Control_c, 0, 64, 72
1, 609613, Control_c, 0, 64, 64
1, 609628, Control_c, 0, 64, 56
1, 609643, Control_c, 0, 64, 53
1, 609674, Control_c, 0, 64, 55
1, 609688, Control_c, 0, 64, 60
1, 609703, Control_c, 0, 64, 65
1, 609708, Note_off_c, 0, 45, 53
1, 609718, Control_c, 0, 64, 70
1, 609720, Note_off_c, 0, 33, 60
1, 609733, Control_c, 0, 64, 77
1, 609748, Control_c, 0, 64, 92
1, 609762, Control_c, 0, 64, 127
1, 609780, Note_on_c, 0, 84, 86
1, 609797, Note_on_c, 0, 47, 64
1, 609802, Note_on_c, 0, 35, 60
1, 609817, Note_off_c, 0, 89, 65
1, 609851, Control_c, 0, 64, 100
1, 609866, Control_c, 0, 64, 77
1, 609881, Control_c, 0, 64, 65
1, 609895, Control_c, 0, 64, 59
1, 609910, Control_c, 0, 64, 61
1, 609925, Control_c, 0, 64, 64
1, 609940, Control_c, 0, 64, 71
1, 609955, Control_c, 0, 64, 82
1, 609961, Note_off_c, 0, 47, 60
1, 609970, Control_c, 0, 64, 105
1, 609985, Control_c, 0, 64, 127
1, 610055, Note_off_c, 0, 88, 56
1, 610068, Note_on_c, 0, 79, 79
1, 610072, Note_on_c, 0, 48, 62
1, 610074, Note_on_c, 0, 36, 50
1, 610099, Note_off_c, 0, 35, 55
1, 610103, Control_c, 0, 64, 89
1, 610125, Control_c, 0, 64, 69
1, 610140, Control_c, 0, 64, 59
1, 610155, Control_c, 0, 64, 52
1, 610170, Control_c, 0, 64, 52
1, 610184, Note_off_c, 0, 84, 60
1, 610184, Control_c, 0, 64, 57
1, 610199, Control_c, 0, 64, 63
1, 610214, Control_c, 0, 64, 69
1, 610229, Control_c, 0, 64, 78
1, 610232, Note_off_c, 0, 48, 61
1, 610244, Control_c, 0, 64, 99
1, 610255, Note_off_c, 0, 79, 65
1, 610259, Control_c, 0, 64, 127
1, 610328, Poly_aftertouch_c, 0, 41, 127
1, 610404, Note_on_c, 0, 49, 46
1, 610411, Note_on_c, 0, 76, 72
1, 610413, Note_on_c, 0, 37, 48
1, 610420, Note_on_c, 0, 72, 61
1, 610421, Note_on_c, 0, 67, 62
1, 610421, Control_c, 0, 64, 106
1, 610436, Control_c, 0, 64, 85
1, 610451, Control_c, 0, 64, 72
1, 610467, Control_c, 0, 64, 63
1, 610482, Control_c, 0, 64, 53
1, 610497, Control_c, 0, 64, 42
1, 610499, Poly_aftertouch_c, 0, 41, 0
1, 610511, Control_c, 0, 64, 40
1, 610515, Note_off_c, 0, 36, 37
1, 610585, Control_c, 0, 64, 44
1, 610600, Control_c, 0, 64, 52
1, 610615, Control_c, 0, 64, 59
1, 610630, Control_c, 0, 64, 64
1, 610644, Control_c, 0, 64, 68
1, 610659, Control_c, 0, 64, 75
1, 610674, Control_c, 0, 64, 92
1, 610685, Note_off_c, 0, 72, 33
1, 610689, Control_c, 0, 64, 127
1, 610714, Note_on_c, 0, 66, 62
1, 610763, Control_c, 0, 64, 101
1, 610778, Control_c, 0, 64, 78
1, 610793, Control_c, 0, 64, 66
1, 610799, Note_off_c, 0, 67, 57
1, 610807, Control_c, 0, 64, 60
1, 610822, Control_c, 0, 64, 56
1, 610829, Note_on_c, 0, 71, 60
1, 610852, Control_c, 0, 64, 57
1, 610874, Control_c, 0, 64, 62
1, 610889, Control_c, 0, 64, 67
1, 610904, Control_c, 0, 64, 73
1, 610918, Control_c, 0, 64, 84
1, 610927, Note_off_c, 0, 37, 61
1, 610933, Control_c, 0, 64, 100
1, 610948, Control_c, 0, 64, 127
1, 610962, Note_off_c, 0, 49, 61
1, 611000, Note_off_c, 0, 66, 57
1, 611019, Note_on_c, 0, 70, 60
1, 611023, Note_on_c, 0, 65, 49
1, 611109, Note_off_c, 0, 65, 54
1, 611384, Note_on_c, 0, 69, 48
1, 611393, Note_on_c, 0, 52, 31
1, 611393, Note_on_c, 0, 60, 35
1, 611400, Note_on_c, 0, 64, 38
1, 611401, Note_on_c, 0, 57, 33
1, 611408, Control_c, 0, 64, 115
1, 611423, Control_c, 0, 64, 103
1, 611438, Control_c, 0, 64, 96
1, 611453, Control_c, 0, 64, 89
1, 611467, Control_c, 0, 64, 81
1, 611482, Control_c, 0, 64, 74
1, 611486, Note_off_c, 0, 71, 29
1, 611496, Note_off_c, 0, 70, 34
1, 611497, Control_c, 0, 64, 67
1, 611512, Control_c, 0, 64, 58
1, 611527, Control_c, 0, 64, 44
1, 611541, Control_c, 0, 64, 26
1, 611556, Control_c, 0, 64, 17
1, 611571, Control_c, 0, 64, 14
1, 611585, Control_c, 0, 64, 13
1, 611623, Control_c, 0, 64, 24
1, 611638, Control_c, 0, 64, 43
1, 611653, Control_c, 0, 64, 57
1, 611667, Note_off_c, 0, 60, 52
1, 611667, Note_off_c, 0, 64, 54
1, 611667, Control_c, 0, 64, 64
1, 611682, Control_c, 0, 64, 69
1, 611697, Control_c, 0, 64, 80
1, 611698, Note_off_c, 0, 57, 41
1, 611711, Control_c, 0, 64, 127
1, 611717, Note_off_c, 0, 69, 55
1, 611731, Note_off_c, 0, 76, 49
1, 611744, Note_off_c, 0, 52, 49
1, 612074, Note_on_c, 0, 89, 58
1, 612375, Note_on_c, 0, 88, 68
1, 612382, Note_on_c, 0, 45, 33
1, 612384, Note_on_c, 0, 33, 40
1, 612387, Control_c, 0, 64, 103
1, 612402, Control_c, 0, 64, 85
1, 612417, Control_c, 0, 64, 75
1, 612432, Control_c, 0, 64, 69
1, 612447, Control_c, 0, 64, 66
1, 612462, Control_c, 0, 64, 67
1, 612477, Control_c, 0, 64, 71
1, 612491, Control_c, 0, 64, 80
1, 612506, Control_c, 0, 64, 100
1, 612521, Control_c, 0, 64, 127
1, 612567, Note_off_c, 0, 45, 44
1, 612666, Note_on_c, 0, 47, 67
1, 612668, Note_on_c, 0, 84, 89
1, 612678, Note_on_c, 0, 35, 57
1, 612698, Control_c, 0, 64, 120
1, 612713, Control_c, 0, 64, 83
1, 612728, Control_c, 0, 64, 67
1, 612742, Control_c, 0, 64, 60
1, 612757, Note_off_c, 0, 33, 41
1, 612757, Control_c, 0, 64, 58
1, 612771, Note_off_c, 0, 89, 58
1, 612772, Control_c, 0, 64, 60
1, 612787, Control_c, 0, 64, 64
1, 612802, Control_c, 0, 64, 70
1, 612817, Control_c, 0, 64, 85
1, 612831, Control_c, 0, 64, 127
1, 612852, Note_off_c, 0, 47, 59
1, 612972, Note_on_c, 0, 79, 87
1, 612976, Note_on_c, 0, 48, 74
1, 612986, Note_on_c, 0, 36, 58
1, 613010, Control_c, 0, 64, 100
1, 613025, Control_c, 0, 64, 76
1, 613040, Control_c, 0, 64, 63
1, 613043, Note_off_c, 0, 35, 47
1, 613048, Note_off_c, 0, 84, 61
1, 613055, Control_c, 0, 64, 51
1, 613064, Note_off_c, 0, 88, 59
1, 613070, Control_c, 0, 64, 46
1, 613085, Control_c, 0, 64, 49
1, 613100, Control_c, 0, 64, 57
1, 613121, Control_c, 0, 64, 64
1, 613136, Control_c, 0, 64, 72
1, 613151, Control_c, 0, 64, 95
1, 613156, Note_off_c, 0, 79, 64
1, 613165, Control_c, 0, 64, 127
1, 613219, Note_off_c, 0, 48, 60
1, 613363, Note_on_c, 0, 72, 75
1, 613363, Note_on_c, 0, 76, 83
1, 613366, Note_on_c, 0, 67, 75
1, 613368, Note_on_c, 0, 37, 61
1, 613368, Note_on_c, 0, 49, 60
1, 613388, Control_c, 0, 64, 96
1, 613403, Control_c, 0, 64, 78
1, 613418, Control_c, 0, 64, 67
1, 613432, Control_c, 0, 64, 58
1, 613447, Control_c, 0, 64, 46
1, 613455, Note_off_c, 0, 36, 55
1, 613462, Control_c, 0, 64, 39
1, 613477, Control_c, 0, 64, 37
1, 613492, Control_c, 0, 64, 36
1, 613551, Control_c, 0, 64, 39
1, 613565, Control_c, 0, 64, 47
1, 613580, Control_c, 0, 64, 55
1, 613595, Control_c, 0, 64, 60
1, 613610, Control_c, 0, 64, 63
1, 613625, Note_off_c, 0, 37, 62
1, 613625, Control_c, 0, 64, 65
1, 613639, Control_c, 0, 64, 70
1, 613655, Control_c, 0, 64, 80
1, 613670, Control_c, 0, 64, 99
1, 613685, Control_c, 0, 64, 127
1, 613733, Note_off_c, 0, 49, 51
1, 614018, Note_on_c, 0, 79, 72
1, 614077, Note_off_c, 0, 76, 59
1, 614111, Note_off_c, 0, 72, 58
1, 614162, Note_off_c, 0, 67, 50
1, 614312, Note_on_c, 0, 55, 62
1, 614316, Note_on_c, 0, 76, 88
1, 614322, Note_on_c, 0, 64, 65
1, 614322, Note_on_c, 0, 72, 70
1, 614323, Note_on_c, 0, 67, 71
1, 614329, Note_on_c, 0, 60, 65
1, 614373, Control_c, 0, 64, 91
1, 614387, Control_c, 0, 64, 75
1, 614402, Control_c, 0, 64, 64
1, 614417, Control_c, 0, 64, 56
1, 614432, Control_c, 0, 64, 50
1, 614447, Control_c, 0, 64, 46
1, 614463, Control_c, 0, 64, 45
1, 614477, Control_c, 0, 64, 45
1, 614480, Note_off_c, 0, 79, 50
1, 614507, Control_c, 0, 64, 46
1, 614522, Control_c, 0, 64, 49
1, 614537, Control_c, 0, 64, 53
1, 614551, Control_c, 0, 64, 58
1, 614566, Control_c, 0, 64, 61
1, 614581, Control_c, 0, 64, 64
1, 614596, Control_c, 0, 64, 69
1, 614618, Control_c, 0, 64, 77
1, 614629, Note_on_c, 0, 57, 66
1, 614633, Control_c, 0, 64, 88
1, 614648, Control_c, 0, 64, 109
1, 614663, Control_c, 0, 64, 127
1, 614912, Note_on_c, 0, 58, 67
1, 614919, Note_on_c, 0, 79, 79
1, 614975, Note_off_c, 0, 64, 56
1, 614988, Note_off_c, 0, 60, 59
1, 615000, Note_off_c, 0, 72, 62
1, 615017, Note_off_c, 0, 76, 62
1, 615032, Note_off_c, 0, 67, 57
1, 615068, Note_off_c, 0, 55, 55
1, 615279, Note_on_c, 0, 71, 68
1, 615281, Note_on_c, 0, 59, 51
1, 615281, Note_on_c, 0, 63, 56
1, 615281, Note_on_c, 0, 75, 75
1, 615284, Note_on_c, 0, 66, 63
1, 615286, Control_c, 0, 64, 115
1, 615300, Control_c, 0, 64, 102
1, 615315, Control_c, 0, 64, 92
1, 615330, Control_c, 0, 64, 78
1, 615345, Control_c, 0, 64, 68
1, 615348, Note_off_c, 0, 58, 55
1, 615368, Note_off_c, 0, 57, 44
1, 615368, Control_c, 0, 64, 61
1, 615382, Control_c, 0, 64, 55
1, 615397, Control_c, 0, 64, 50
1, 615412, Control_c, 0, 64, 44
1, 615427, Control_c, 0, 64, 39
1, 615437, Note_off_c, 0, 79, 37
1, 615441, Control_c, 0, 64, 36
1, 615501, Control_c, 0, 64, 38
1, 615515, Control_c, 0, 64, 42
1, 615530, Control_c, 0, 64, 48
1, 615545, Control_c, 0, 64, 54
1, 615560, Control_c, 0, 64, 59
1, 615565, Note_off_c, 0, 59, 51
1, 615575, Control_c, 0, 64, 62
1, 615589, Control_c, 0, 64, 65
1, 615594, Note_off_c, 0, 63, 47
1, 615604, Control_c, 0, 64, 70
1, 615619, Control_c, 0, 64, 85
1, 615634, Control_c, 0, 64, 127
1, 615675, Note_off_c, 0, 66, 53
1, 615912, Note_on_c, 0, 79, 70
1, 615968, Note_off_c, 0, 71, 57
1, 615974, Note_off_c, 0, 75, 61
1, 616260, Poly_aftertouch_c, 0, 77, 127
1, 616273, Note_on_c, 0, 74, 66
1, 616280, Note_on_c, 0, 42, 41
1, 616281, Note_on_c, 0, 30, 44
1, 616281, Note_on_c, 0, 65, 57
1, 616281, Note_on_c, 0, 70, 55
1, 616310, Control_c, 0, 64, 95
1, 616325, Control_c, 0, 64, 77
1, 616336, Poly_aftertouch_c, 0, 77, 0
1, 616339, Control_c, 0, 64, 67
1, 616354, Control_c, 0, 64, 61
1, 616355, Note_off_c, 0, 79, 35
1, 616369, Control_c, 0, 64, 53
1, 616383, Control_c, 0, 64, 50
1, 616398, Control_c, 0, 64, 47
1, 616413, Control_c, 0, 64, 46
1, 616443, Control_c, 0, 64, 51
1, 616457, Control_c, 0, 64, 59
1, 616472, Control_c, 0, 64, 64
1, 616487, Control_c, 0, 64, 68
1, 616502, Control_c, 0, 64, 77
1, 616517, Control_c, 0, 64, 95
1, 616531, Control_c, 0, 64, 127
1, 616564, Note_off_c, 0, 30, 44
1, 616660, Note_off_c, 0, 65, 34
1, 616689, Note_off_c, 0, 42, 42
1, 616816, Note_off_c, 0, 70, 39
1, 616893, Note_on_c, 0, 79, 68
1, 616922, Note_off_c, 0, 74, 61
1, 617190, Note_on_c, 0, 61, 34
1, 617190, Control_c, 0, 64, 115
1, 617194, Note_on_c, 0, 73, 56
1, 617201, Note_on_c, 0, 58, 34
1, 617201, Note_on_c, 0, 65, 42
1, 617204, Control_c, 0, 64, 98
1, 617210, Note_on_c, 0, 70, 41
1, 617215, Note_on_c, 0, 53, 30
1, 617219, Control_c, 0, 64, 87
1, 617234, Control_c, 0, 64, 78
1, 617249, Control_c, 0, 64, 70
1, 617264, Control_c, 0, 64, 64
1, 617276, Note_off_c, 0, 79, 35
1, 617279, Control_c, 0, 64, 59
1, 617294, Control_c, 0, 64, 55
1, 617309, Control_c, 0, 64, 54
1, 617339, Control_c, 0, 64, 54
1, 617353, Control_c, 0, 64, 56
1, 617368, Control_c, 0, 64, 60
1, 617383, Control_c, 0, 64, 64
1, 617397, Control_c, 0, 64, 67
1, 617412, Control_c, 0, 64, 71
1, 617427, Control_c, 0, 64, 79
1, 617442, Control_c, 0, 64, 92
1, 617457, Control_c, 0, 64, 127
1, 617458, Note_off_c, 0, 61, 35
1, 617518, Note_off_c, 0, 58, 37
1, 617535, Note_off_c, 0, 53, 41
1, 617828, Note_on_c, 0, 79, 56
1, 617875, Note_off_c, 0, 70, 37
1, 617878, Note_off_c, 0, 73, 33
1, 617901, Note_off_c, 0, 65, 48
1, 617932, Note_off_c, 0, 79, 65
1, 618141, Note_on_c, 0, 29, 34
1, 618142, Note_on_c, 0, 73, 52
1, 618147, Note_on_c, 0, 64, 41
1, 618149, Note_on_c, 0, 41, 27
1, 618152, Note_on_c, 0, 69, 36
1, 618176, Control_c, 0, 64, 96
1, 618191, Control_c, 0, 64, 77
1, 618206, Control_c, 0, 64, 66
1, 618220, Control_c, 0, 64, 58
1, 618235, Control_c, 0, 64, 56
1, 618265, Control_c, 0, 64, 58
1, 618280, Control_c, 0, 64, 63
1, 618294, Control_c, 0, 64, 68
1, 618309, Control_c, 0, 64, 80
1, 618314, Note_off_c, 0, 41, 41
1, 618324, Control_c, 0, 64, 106
1, 618339, Control_c, 0, 64, 127
1, 618445, Note_on_c, 0, 42, 44
1, 618480, Control_c, 0, 64, 85
1, 618484, Note_on_c, 0, 30, 26
1, 618495, Control_c, 0, 64, 69
1, 618510, Control_c, 0, 64, 56
1, 618525, Control_c, 0, 64, 47
1, 618540, Control_c, 0, 64, 46
1, 618555, Control_c, 0, 64, 48
1, 618556, Note_off_c, 0, 29, 41
1, 618570, Control_c, 0, 64, 54
1, 618585, Control_c, 0, 64, 60
1, 618599, Control_c, 0, 64, 65
1, 618614, Control_c, 0, 64, 72
1, 618620, Note_off_c, 0, 73, 61
1, 618629, Control_c, 0, 64, 86
1, 618635, Note_off_c, 0, 64, 50
1, 618635, Note_off_c, 0, 69, 62
1, 618644, Control_c, 0, 64, 127
1, 618649, Note_off_c, 0, 42, 60
1, 618712, Note_off_c, 0, 30, 42
1, 618767, Note_on_c, 0, 31, 46
1, 618775, Note_on_c, 0, 43, 43
1, 618899, Note_off_c, 0, 43, 55
1, 619236, Note_on_c, 0, 60, 69
1, 619241, Note_on_c, 0, 44, 33
1, 619241, Note_on_c, 0, 56, 51
1, 619247, Note_on_c, 0, 48, 44
1, 619264, Note_on_c, 0, 32, 30
1, 619318, Control_c, 0, 64, 110
1, 619333, Control_c, 0, 64, 93
1, 619348, Control_c, 0, 64, 84
1, 619363, Control_c, 0, 64, 76
1, 619378, Control_c, 0, 64, 69
1, 619392, Control_c, 0, 64, 63
1, 619407, Control_c, 0, 64, 56
1, 619419, Note_off_c, 0, 31, 36
1, 619422, Control_c, 0, 64, 50
1, 619437, Control_c, 0, 64, 45
1, 619452, Control_c, 0, 64, 42
1, 619467, Control_c, 0, 64, 41
1, 619481, Control_c, 0, 64, 40
1, 619526, Control_c, 0, 64, 43
1, 619541, Control_c, 0, 64, 47
1, 619555, Control_c, 0, 64, 54
1, 619570, Control_c, 0, 64, 59
1, 619585, Control_c, 0, 64, 62
1, 619599, Control_c, 0, 64, 65
1, 619614, Control_c, 0, 64, 71
1, 619629, Control_c, 0, 64, 78
1, 619644, Control_c, 0, 64, 89
1, 619648, Note_off_c, 0, 32, 46
1, 619659, Control_c, 0, 64, 105
1, 619673, Control_c, 0, 64, 127
1, 619702, Note_off_c, 0, 44, 37
1, 619762, Note_off_c, 0, 48, 34
1, 619837, Control_c, 0, 64, 125
1, 619859, Control_c, 0, 64, 115
1, 619873, Control_c, 0, 64, 110
1, 619888, Control_c, 0, 64, 107
1, 619903, Control_c, 0, 64, 104
1, 619918, Control_c, 0, 64, 102
1, 619933, Control_c, 0, 64, 100
1, 619947, Control_c, 0, 64, 98
1, 619962, Control_c, 0, 64, 96
1, 619977, Control_c, 0, 64, 94
1, 619992, Control_c, 0, 64, 91
1, 620006, Control_c, 0, 64, 89
1, 620021, Control_c, 0, 64, 88
1, 620036, Control_c, 0, 64, 87
1, 620052, Control_c, 0, 64, 86
1, 620067, Control_c, 0, 64, 84
1, 620082, Control_c, 0, 64, 82
1, 620096, Control_c, 0, 64, 81
1, 620111, Control_c, 0, 64, 80
1, 620126, Control_c, 0, 64, 80
1, 620141, Control_c, 0, 64, 78
1, 620156, Control_c, 0, 64, 76
1, 620170, Control_c, 0, 64, 75
1, 620185, Control_c, 0, 64, 74
1, 620200, Control_c, 0, 64, 73
1, 620215, Control_c, 0, 64, 71
1, 620230, Control_c, 0, 64, 70
1, 620245, Control_c, 0, 64, 69
1, 620260, Control_c, 0, 64, 69
1, 620275, Control_c, 0, 64, 68
1, 620290, Control_c, 0, 64, 66
1, 620304, Control_c, 0, 64, 64
1, 620319, Control_c, 0, 64, 62
1, 620334, Control_c, 0, 64, 59
1, 620349, Control_c, 0, 64, 57
1, 620364, Control_c, 0, 64, 54
1, 620378, Control_c, 0, 64, 53
1, 620393, Control_c, 0, 64, 52
1, 620427, Note_on_c, 0, 63, 28
1, 620430, Note_on_c, 0, 72, 36
1, 620437, Control_c, 0, 64, 53
1, 620444, Note_on_c, 0, 68, 30
1, 620448, Note_on_c, 0, 48, 34
1, 620452, Control_c, 0, 64, 55
1, 620467, Control_c, 0, 64, 57
1, 620482, Control_c, 0, 64, 60
1, 620496, Control_c, 0, 64, 62
1, 620511, Control_c, 0, 64, 65
1, 620526, Control_c, 0, 64, 68
1, 620541, Control_c, 0, 64, 74
1, 620556, Control_c, 0, 64, 83
1, 620567, Note_off_c, 0, 56, 54
1, 620570, Control_c, 0, 64, 97
1, 620585, Control_c, 0, 64, 127
1, 620618, Note_off_c, 0, 72, 46
1, 620688, Note_off_c, 0, 68, 38
1, 620696, Note_off_c, 0, 48, 32
1, 620722, Note_off_c, 0, 63, 39
1, 620752, Note_on_c, 0, 61, 57
1, 620755, Note_on_c, 0, 57, 47
1, 620857, Note_off_c, 0, 60, 52
1, 620879, Note_off_c, 0, 57, 61
1, 621056, Note_on_c, 0, 60, 72
1, 621058, Note_on_c, 0, 49, 53
1, 621202, Note_off_c, 0, 49, 58
1, 621226, Note_off_c, 0, 61, 30
1, 621372, Control_c, 0, 64, 122
1, 621387, Control_c, 0, 64, 101
1, 621400, Note_on_c, 0, 59, 53
1, 621401, Control_c, 0, 64, 91
1, 621408, Note_on_c, 0, 55, 45
1, 621413, Note_on_c, 0, 40, 35
1, 621416, Control_c, 0, 64, 83
1, 621419, Note_on_c, 0, 50, 40
1, 621425, Note_on_c, 0, 28, 29
1, 621431, Control_c, 0, 64, 76
1, 621432, Note_off_c, 0, 60, 47
1, 621445, Control_c, 0, 64, 70
1, 621460, Control_c, 0, 64, 64
1, 621475, Control_c, 0, 64, 57
1, 621490, Control_c, 0, 64, 47
1, 621505, Control_c, 0, 64, 44
1, 621549, Control_c, 0, 64, 48
1, 621564, Control_c, 0, 64, 55
1, 621567, Note_off_c, 0, 50, 34
1, 621578, Control_c, 0, 64, 63
1, 621593, Control_c, 0, 64, 68
1, 621608, Note_off_c, 0, 55, 60
1, 621608, Control_c, 0, 64, 76
1, 621623, Control_c, 0, 64, 89
1, 621635, Note_off_c, 0, 59, 57
1, 621638, Control_c, 0, 64, 127
1, 621701, Note_off_c, 0, 28, 40
1, 621715, Note_on_c, 0, 64, 70
1, 621720, Note_on_c, 0, 59, 47
1, 621732, Note_on_c, 0, 55, 57
1, 621783, Note_off_c, 0, 40, 43
1, 621802, Control_c, 0, 64, 107
1, 621816, Note_off_c, 0, 59, 61
1, 621816, Control_c, 0, 64, 81
1, 621831, Note_off_c, 0, 55, 55
1, 621831, Control_c, 0, 64, 71
1, 621861, Control_c, 0, 64, 79
1, 621876, Control_c, 0, 64, 98
1, 621890, Control_c, 0, 64, 127
1, 622006, Note_on_c, 0, 66, 74
1, 622019, Note_on_c, 0, 61, 69
1, 622019, Note_on_c, 0, 57, 61
1, 622035, Note_off_c, 0, 64, 64
1, 622039, Control_c, 0, 64, 94
1, 622054, Control_c, 0, 64, 75
1, 622068, Control_c, 0, 64, 66
1, 622083, Control_c, 0, 64, 60
1, 622105, Control_c, 0, 64, 57
1, 622120, Control_c, 0, 64, 56
1, 622135, Control_c, 0, 64, 58
1, 622147, Note_off_c, 0, 57, 63
1, 622150, Control_c, 0, 64, 64
1, 622165, Control_c, 0, 64, 70
1, 622180, Control_c, 0, 64, 81
1, 622191, Note_off_c, 0, 61, 52
1, 622194, Control_c, 0, 64, 102
1, 622209, Control_c, 0, 64, 127
1, 622279, Note_on_c, 0, 39, 43
1, 622288, Note_on_c, 0, 32, 37
1, 622343, Control_c, 0, 64, 115
1, 622352, Note_on_c, 0, 67, 65
1, 622358, Control_c, 0, 64, 92
1, 622364, Note_on_c, 0, 62, 48
1, 622369, Note_on_c, 0, 58, 48
1, 622373, Control_c, 0, 64, 79
1, 622388, Control_c, 0, 64, 70
1, 622402, Control_c, 0, 64, 63
1, 622403, Note_off_c, 0, 66, 57
1, 622417, Control_c, 0, 64, 52
1, 622432, Control_c, 0, 64, 42
1, 622448, Control_c, 0, 64, 36
1, 622463, Control_c, 0, 64, 34
1, 622478, Control_c, 0, 64, 33
1, 622492, Control_c, 0, 64, 36
1, 622496, Note_off_c, 0, 32, 54
1, 622507, Control_c, 0, 64, 49
1, 622522, Control_c, 0, 64, 58
1, 622537, Control_c, 0, 64, 63
1, 622549, Note_off_c, 0, 58, 59
1, 622552, Control_c, 0, 64, 67
1, 622566, Control_c, 0, 64, 74
1, 622581, Control_c, 0, 64, 87
1, 622596, Control_c, 0, 64, 127
1, 622622, Note_on_c, 0, 49, 33
1, 622689, Note_on_c, 0, 59, 56
1, 622723, Note_off_c, 0, 62, 58
1, 622787, Note_off_c, 0, 39, 37
1, 622913, Note_off_c, 0, 49, 38
1, 622959, Control_c, 0, 64, 125
1, 622973, Control_c, 0, 64, 115
1, 622988, Control_c, 0, 64, 108
1, 622993, Note_on_c, 0, 61, 39
1, 623003, Control_c, 0, 64, 102
1, 623005, Note_on_c, 0, 65, 53
1, 623018, Control_c, 0, 64, 99
1, 623032, Control_c, 0, 64, 98
1, 623047, Note_off_c, 0, 67, 60
1, 623047, Control_c, 0, 64, 96
1, 623062, Control_c, 0, 64, 93
1, 623077, Control_c, 0, 64, 90
1, 623092, Control_c, 0, 64, 88
1, 623093, Note_off_c, 0, 59, 38
1, 623107, Control_c, 0, 64, 87
1, 623122, Control_c, 0, 64, 86
1, 623136, Control_c, 0, 64, 85
1, 623151, Control_c, 0, 64, 83
1, 623166, Control_c, 0, 64, 81
1, 623181, Control_c, 0, 64, 79
1, 623196, Control_c, 0, 64, 77
1, 623211, Control_c, 0, 64, 76
1, 623225, Control_c, 0, 64, 75
1, 623256, Control_c, 0, 64, 73
1, 623271, Control_c, 0, 64, 71
1, 623285, Control_c, 0, 64, 68
1, 623300, Control_c, 0, 64, 65
1, 623315, Control_c, 0, 64, 61
1, 623322, Note_on_c, 0, 60, 35
1, 623324, Note_on_c, 0, 56, 30
1, 623327, Note_on_c, 0, 48, 31
1, 623327, Note_on_c, 0, 51, 36
1, 623327, Note_on_c, 0, 68, 51
1, 623330, Control_c, 0, 64, 57
1, 623332, Note_on_c, 0, 63, 38
1, 623345, Control_c, 0, 64, 52
1, 623360, Control_c, 0, 64, 45
1, 623368, Note_off_c, 0, 61, 34
1, 623375, Control_c, 0, 64, 36
1, 623389, Control_c, 0, 64, 27
1, 623397, Note_off_c, 0, 65, 58
1, 623404, Control_c, 0, 64, 22
1, 623419, Control_c, 0, 64, 20
1, 623448, Control_c, 0, 64, 30
1, 623451, Note_off_c, 0, 63, 61
1, 623463, Control_c, 0, 64, 48
1, 623478, Control_c, 0, 64, 60
1, 623493, Control_c, 0, 64, 65
1, 623508, Control_c, 0, 64, 72
1, 623522, Control_c, 0, 64, 90
1, 623537, Control_c, 0, 64, 127
1, 623581, Note_off_c, 0, 68, 63
1, 623613, Note_off_c, 0, 56, 50
1, 623667, Note_on_c, 0, 70, 61
1, 623711, Note_off_c, 0, 60, 43
1, 623819, Note_off_c, 0, 48, 38
1, 623830, Note_off_c, 0, 51, 40
1, 623915, Control_c, 0, 64, 120
1, 623929, Control_c, 0, 64, 109
1, 623944, Control_c, 0, 64, 103
1, 623950, Note_on_c, 0, 72, 76
1, 623959, Control_c, 0, 64, 100
1, 623974, Control_c, 0, 64, 99
1, 623989, Control_c, 0, 64, 97
1, 624004, Control_c, 0, 64, 94
1, 624019, Control_c, 0, 64, 90
1, 624033, Note_off_c, 0, 70, 59
1, 624034, Control_c, 0, 64, 87
1, 624049, Control_c, 0, 64, 86
1, 624064, Control_c, 0, 64, 84
1, 624078, Control_c, 0, 64, 81
1, 624093, Control_c, 0, 64, 78
1, 624108, Control_c, 0, 64, 75
1, 624123, Control_c, 0, 64, 73
1, 624138, Control_c, 0, 64, 71
1, 624153, Control_c, 0, 64, 69
1, 624168, Control_c, 0, 64, 67
1, 624183, Control_c, 0, 64, 64
1, 624198, Control_c, 0, 64, 61
1, 624213, Control_c, 0, 64, 59
1, 624227, Control_c, 0, 64, 58
1, 624242, Control_c, 0, 64, 57
1, 624251, Note_on_c, 0, 73, 68
1, 624257, Control_c, 0, 64, 55
1, 624260, Note_on_c, 0, 68, 47
1, 624266, Note_on_c, 0, 43, 41
1, 624266, Note_on_c, 0, 70, 55
1, 624272, Note_on_c, 0, 31, 43
1, 624272, Control_c, 0, 64, 53
1, 624287, Control_c, 0, 64, 51
1, 624302, Control_c, 0, 64, 49
1, 624317, Control_c, 0, 64, 47
1, 624318, Note_off_c, 0, 72, 60
1, 624332, Control_c, 0, 64, 45
1, 624353, Control_c, 0, 64, 43
1, 624368, Control_c, 0, 64, 42
1, 624442, Control_c, 0, 64, 43
1, 624457, Control_c, 0, 64, 45
1, 624472, Control_c, 0, 64, 48
1, 624487, Control_c, 0, 64, 52
1, 624502, Control_c, 0, 64, 56
1, 624517, Control_c, 0, 64, 60
1, 624532, Control_c, 0, 64, 63
1, 624546, Control_c, 0, 64, 66
1, 624561, Control_c, 0, 64, 71
1, 624576, Control_c, 0, 64, 79
1, 624585, Note_on_c, 0, 72, 73
1, 624591, Control_c, 0, 64, 94
1, 624606, Control_c, 0, 64, 127
1, 624624, Note_off_c, 0, 68, 38
1, 624674, Note_off_c, 0, 73, 60
1, 624720, Note_off_c, 0, 70, 50
1, 624738, Note_off_c, 0, 43, 38
1, 624902, Note_on_c, 0, 70, 72
1, 624967, Note_off_c, 0, 31, 39
1, 625059, Note_off_c, 0, 72, 61
1, 625102, Control_c, 0, 64, 115
1, 625117, Control_c, 0, 64, 109
1, 625132, Control_c, 0, 64, 108
1, 625147, Control_c, 0, 64, 108
1, 625162, Control_c, 0, 64, 106
1, 625176, Control_c, 0, 64, 104
1, 625191, Control_c, 0, 64, 101
1, 625206, Control_c, 0, 64, 99
1, 625221, Control_c, 0, 64, 98
1, 625236, Control_c, 0, 64, 98
1, 625250, Control_c, 0, 64, 96
1, 625265, Control_c, 0, 64, 94
1, 625280, Control_c, 0, 64, 93
1, 625295, Control_c, 0, 64, 92
1, 625310, Control_c, 0, 64, 92
1, 625324, Control_c, 0, 64, 91
1, 625339, Control_c, 0, 64, 90
1, 625350, Note_on_c, 0, 75, 55
1, 625354, Control_c, 0, 64, 89
1, 625357, Note_on_c, 0, 77, 66
1, 625358, Note_on_c, 0, 71, 53
1, 625363, Note_on_c, 0, 36, 31
1, 625369, Control_c, 0, 64, 88
1, 625372, Note_on_c, 0, 44, 29
1, 625373, Note_on_c, 0, 29, 25
1, 625384, Control_c, 0, 64, 87
1, 625399, Control_c, 0, 64, 86
1, 625413, Control_c, 0, 64, 84
1, 625428, Control_c, 0, 64, 82
1, 625443, Control_c, 0, 64, 80
1, 625458, Control_c, 0, 64, 78
1, 625473, Control_c, 0, 64, 75
1, 625487, Control_c, 0, 64, 72
1, 625502, Control_c, 0, 64, 68
1, 625517, Control_c, 0, 64, 64
1, 625532, Control_c, 0, 64, 60
1, 625540, Note_off_c, 0, 70, 40
1, 625547, Control_c, 0, 64, 56
1, 625561, Control_c, 0, 64, 53
1, 625576, Control_c, 0, 64, 50
1, 625591, Control_c, 0, 64, 48
1, 625606, Control_c, 0, 64, 47
1, 625620, Control_c, 0, 64, 46
1, 625666, Control_c, 0, 64, 48
1, 625681, Control_c, 0, 64, 52
1, 625696, Control_c, 0, 64, 57
1, 625711, Control_c, 0, 64, 61
1, 625725, Control_c, 0, 64, 64
1, 625740, Control_c, 0, 64, 67
1, 625755, Control_c, 0, 64, 73
1, 625766, Note_on_c, 0, 73, 63
1, 625769, Note_on_c, 0, 70, 53
1, 625770, Control_c, 0, 64, 83
1, 625784, Control_c, 0, 64, 106
1, 625786, Note_off_c, 0, 29, 40
1, 625799, Control_c, 0, 64, 127
1, 625861, Note_off_c, 0, 36, 39
1, 625863, Note_off_c, 0, 71, 58
1, 625938, Note_off_c, 0, 70, 60
1, 625940, Note_off_c, 0, 44, 38
1, 626070, Note_on_c, 0, 72, 69
1, 626077, Note_on_c, 0, 68, 64
1, 626103, Note_off_c, 0, 75, 63
1, 626116, Note_off_c, 0, 73, 62
1, 626117, Control_c, 0, 64, 91
1, 626132, Control_c, 0, 64, 72
1, 626147, Control_c, 0, 64, 63
1, 626162, Control_c, 0, 64, 54
1, 626177, Control_c, 0, 64, 53
1, 626192, Control_c, 0, 64, 57
1, 626207, Control_c, 0, 64, 63
1, 626222, Control_c, 0, 64, 70
1, 626236, Control_c, 0, 64, 85
1, 626241, Note_off_c, 0, 72, 64
1, 626249, Note_off_c, 0, 68, 60
1, 626251, Control_c, 0, 64, 127
1, 626368, Note_on_c, 0, 55, 42
1, 626371, Note_on_c, 0, 65, 50
1, 626377, Note_on_c, 0, 58, 41
1, 626377, Note_on_c, 0, 70, 66
1, 626386, Note_on_c, 0, 67, 57
1, 626399, Control_c, 0, 64, 110
1, 626414, Control_c, 0, 64, 85
1, 626429, Control_c, 0, 64, 73
1, 626445, Control_c, 0, 64, 65
1, 626459, Control_c, 0, 64, 58
1, 626474, Control_c, 0, 64, 50
1, 626489, Control_c, 0, 64, 48
1, 626504, Control_c, 0, 64, 48
1, 626519, Control_c, 0, 64, 52
1, 626533, Control_c, 0, 64, 59
1, 626548, Control_c, 0, 64, 65
1, 626563, Control_c, 0, 64, 70
1, 626578, Control_c, 0, 64, 80
1, 626600, Control_c, 0, 64, 103
1, 626615, Control_c, 0, 64, 127
1, 626665, Note_off_c, 0, 65, 53
1, 626690, Note_on_c, 0, 79, 70
1, 626717, Note_off_c, 0, 55, 39
1, 626731, Note_off_c, 0, 77, 58
1, 626736, Note_off_c, 0, 58, 51
1, 626926, Control_c, 0, 64, 125
1, 626940, Control_c, 0, 64, 115
1, 626955, Control_c, 0, 64, 109
1, 626970, Control_c, 0, 64, 103
1, 626985, Control_c, 0, 64, 100
1, 626988, Note_on_c, 0, 77, 72
1, 627000, Control_c, 0, 64, 97
1, 627015, Control_c, 0, 64, 95
1, 627030, Control_c, 0, 64, 92
1, 627044, Control_c, 0, 64, 89
1, 627053, Note_off_c, 0, 79, 65
1, 627059, Control_c, 0, 64, 87
1, 627074, Control_c, 0, 64, 85
1, 627089, Control_c, 0, 64, 83
1, 627104, Control_c, 0, 64, 80
1, 627119, Control_c, 0, 64, 78
1, 627134, Control_c, 0, 64, 76
1, 627148, Control_c, 0, 64, 75
1, 627163, Control_c, 0, 64, 73
1, 627178, Control_c, 0, 64, 72
1, 627193, Control_c, 0, 64, 71
1, 627207, Control_c, 0, 64, 69
1, 627222, Control_c, 0, 64, 68
1, 627238, Control_c, 0, 64, 67
1, 627253, Control_c, 0, 64, 67
1, 627268, Control_c, 0, 64, 66
1, 627282, Control_c, 0, 64, 65
1, 627297, Control_c, 0, 64, 65
1, 627312, Control_c, 0, 64, 64
1, 627327, Control_c, 0, 64, 64
1, 627363, Note_on_c, 0, 31, 43
1, 627363, Note_on_c, 0, 72, 64
1, 627363, Control_c, 0, 64, 63
1, 627365, Note_on_c, 0, 43, 38
1, 627393, Control_c, 0, 64, 63
1, 627408, Control_c, 0, 64, 62
1, 627423, Control_c, 0, 64, 62
1, 627438, Control_c, 0, 64, 61
1, 627453, Control_c, 0, 64, 60
1, 627468, Control_c, 0, 64, 60
1, 627483, Control_c, 0, 64, 59
1, 627489, Note_off_c, 0, 70, 53
1, 627497, Control_c, 0, 64, 58
1, 627502, Note_off_c, 0, 77, 46
1, 627508, Note_off_c, 0, 67, 57
1, 627512, Control_c, 0, 64, 58
1, 627527, Control_c, 0, 64, 57
1, 627631, Control_c, 0, 64, 58
1, 627645, Control_c, 0, 64, 58
1, 627660, Control_c, 0, 64, 59
1, 627675, Control_c, 0, 64, 60
1, 627679, Note_on_c, 0, 65, 52
1, 627682, Note_on_c, 0, 68, 60
1, 627689, Control_c, 0, 64, 62
1, 627704, Control_c, 0, 64, 64
1, 627719, Control_c, 0, 64, 68
1, 627734, Control_c, 0, 64, 74
1, 627749, Control_c, 0, 64, 88
1, 627764, Control_c, 0, 64, 127
1, 627781, Note_off_c, 0, 43, 41
1, 627809, Note_off_c, 0, 65, 61
1, 627831, Note_off_c, 0, 68, 60
1, 627970, Control_c, 0, 64, 120
1, 627983, Note_on_c, 0, 67, 55
1, 627983, Note_on_c, 0, 44, 34
1, 627985, Control_c, 0, 64, 90
1, 627992, Note_on_c, 0, 32, 36
1, 628000, Control_c, 0, 64, 74
1, 628001, Note_on_c, 0, 63, 48
1, 628014, Control_c, 0, 64, 65
1, 628031, Control_c, 0, 64, 58
1, 628046, Control_c, 0, 64, 55
1, 628060, Control_c, 0, 64, 58
1, 628075, Control_c, 0, 64, 62
1, 628093, Note_off_c, 0, 31, 40
1, 628097, Control_c, 0, 64, 67
1, 628112, Control_c, 0, 64, 74
1, 628115, Note_off_c, 0, 67, 63
1, 628126, Control_c, 0, 64, 84
1, 628141, Control_c, 0, 64, 99
1, 628142, Note_off_c, 0, 63, 58
1, 628156, Control_c, 0, 64, 127
1, 628158, Note_off_c, 0, 44, 40
1, 628336, Note_on_c, 0, 34, 33
1, 628340, Note_on_c, 0, 65, 48
1, 628341, Note_on_c, 0, 61, 45
1, 628349, Control_c, 0, 64, 110
1, 628350, Note_on_c, 0, 46, 29
1, 628364, Control_c, 0, 64, 104
1, 628379, Control_c, 0, 64, 96
1, 628393, Control_c, 0, 64, 89
1, 628408, Control_c, 0, 64, 81
1, 628423, Control_c, 0, 64, 74
1, 628438, Control_c, 0, 64, 69
1, 628453, Control_c, 0, 64, 66
1, 628455, Note_off_c, 0, 32, 42
1, 628467, Control_c, 0, 64, 62
1, 628482, Control_c, 0, 64, 57
1, 628497, Control_c, 0, 64, 54
1, 628511, Control_c, 0, 64, 53
1, 628586, Control_c, 0, 64, 54
1, 628600, Control_c, 0, 64, 56
1, 628615, Control_c, 0, 64, 58
1, 628630, Control_c, 0, 64, 60
1, 628640, Note_off_c, 0, 72, 57
1, 628645, Control_c, 0, 64, 62
1, 628660, Control_c, 0, 64, 64
1, 628660, Note_on_c, 0, 70, 54
1, 628675, Control_c, 0, 64, 65
1, 628690, Control_c, 0, 64, 68
1, 628705, Control_c, 0, 64, 72
1, 628719, Control_c, 0, 64, 77
1, 628734, Control_c, 0, 64, 83
1, 628741, Note_off_c, 0, 34, 40
1, 628749, Control_c, 0, 64, 93
1, 628764, Control_c, 0, 64, 103
1, 628779, Control_c, 0, 64, 112
1, 628793, Control_c, 0, 64, 113
1, 628810, Note_off_c, 0, 46, 22
1, 628823, Control_c, 0, 64, 112
1, 628846, Control_c, 0, 64, 111
1, 628861, Control_c, 0, 64, 108
1, 628876, Control_c, 0, 64, 106
1, 628890, Control_c, 0, 64, 105
1, 628905, Control_c, 0, 64, 104
1, 628920, Control_c, 0, 64, 101
1, 628934, Control_c, 0, 64, 96
1, 628949, Control_c, 0, 64, 93
1, 628964, Control_c, 0, 64, 91
1, 628979, Control_c, 0, 64, 89
1, 628994, Control_c, 0, 64, 87
1, 628996, Note_on_c, 0, 68, 52
1, 629009, Control_c, 0, 64, 84
1, 629024, Control_c, 0, 64, 81
1, 629039, Control_c, 0, 64, 80
1, 629054, Control_c, 0, 64, 79
1, 629068, Control_c, 0, 64, 78
1, 629083, Control_c, 0, 64, 77
1, 629098, Control_c, 0, 64, 74
1, 629113, Control_c, 0, 64, 72
1, 629128, Control_c, 0, 64, 72
1, 629142, Control_c, 0, 64, 71
1, 629157, Control_c, 0, 64, 70
1, 629172, Control_c, 0, 64, 69
1, 629187, Control_c, 0, 64, 67
1, 629202, Control_c, 0, 64, 66
1, 629216, Control_c, 0, 64, 65
1, 629231, Control_c, 0, 64, 65
1, 629246, Control_c, 0, 64, 64
1, 629260, Control_c, 0, 64, 63
1, 629275, Control_c, 0, 64, 62
1, 629290, Control_c, 0, 64, 62
1, 629305, Control_c, 0, 64, 61
1, 629320, Control_c, 0, 64, 60
1, 629334, Control_c, 0, 64, 60
1, 629349, Control_c, 0, 64, 59
1, 629379, Control_c, 0, 64, 59
1, 629394, Control_c, 0, 64, 58
1, 629408, Control_c, 0, 64, 58
1, 629413, Note_on_c, 0, 58, 28
1, 629414, Note_on_c, 0, 67, 41
1, 629425, Note_on_c, 0, 53, 30
1, 629427, Note_on_c, 0, 49, 28
1, 629438, Control_c, 0, 64, 57
1, 629468, Control_c, 0, 64, 57
1, 629498, Control_c, 0, 64, 56
1, 629513, Note_off_c, 0, 70, 29
1, 629528, Control_c, 0, 64, 56
1, 629536, Note_off_c, 0, 68, 30
1, 629572, Control_c, 0, 64, 55
1, 629594, Control_c, 0, 64, 55
1, 629623, Control_c, 0, 64, 54
1, 629639, Control_c, 0, 64, 54
1, 629654, Control_c, 0, 64, 53
1, 629669, Control_c, 0, 64, 53
1, 629684, Control_c, 0, 64, 52
1, 629698, Control_c, 0, 64, 51
1, 629713, Control_c, 0, 64, 51
1, 629743, Control_c, 0, 64, 50
1, 629757, Control_c, 0, 64, 49
1, 629772, Control_c, 0, 64, 49
1, 629870, Note_off_c, 0, 58, 34
1, 629900, Note_off_c, 0, 53, 35
1, 629905, Note_off_c, 0, 49, 38
1, 629906, Control_c, 0, 64, 49
1, 629921, Control_c, 0, 64, 50
1, 629936, Control_c, 0, 64, 50
1, 629951, Control_c, 0, 64, 51
1, 629965, Control_c, 0, 64, 52
1, 629980, Control_c, 0, 64, 55
1, 629995, Control_c, 0, 64, 57
1, 630010, Control_c, 0, 64, 59
1, 630025, Control_c, 0, 64, 62
1, 630039, Control_c, 0, 64, 64
1, 630054, Control_c, 0, 64, 68
1, 630069, Control_c, 0, 64, 75
1, 630083, Control_c, 0, 64, 89
1, 630098, Control_c, 0, 64, 127
1, 630115, Note_off_c, 0, 67, 62
1, 630116, Note_off_c, 0, 61, 32
1, 630126, Note_off_c, 0, 65, 57
1, 630620, Note_on_c, 0, 58, 23
1, 630620, Note_on_c, 0, 61, 27
1, 630630, Note_on_c, 0, 53, 27
1, 630654, Note_on_c, 0, 46, 27
1, 630699, Control_c, 0, 64, 105
1, 630713, Control_c, 0, 64, 94
1, 630728, Control_c, 0, 64, 85
1, 630743, Control_c, 0, 64, 78
1, 630758, Control_c, 0, 64, 72
1, 630773, Control_c, 0, 64, 66
1, 630787, Control_c, 0, 64, 59
1, 630802, Control_c, 0, 64, 56
1, 630832, Control_c, 0, 64, 57
1, 630847, Control_c, 0, 64, 60
1, 630861, Control_c, 0, 64, 63
1, 630876, Control_c, 0, 64, 68
1, 630891, Control_c, 0, 64, 75
1, 630905, Control_c, 0, 64, 87
1, 630920, Control_c, 0, 64, 108
1, 630935, Control_c, 0, 64, 127
1, 630937, Note_off_c, 0, 61, 39
1, 630945, Note_on_c, 0, 49, 43
1, 630965, Note_off_c, 0, 53, 41
1, 630981, Note_off_c, 0, 58, 38
1, 631036, Note_off_c, 0, 46, 40
1, 631259, Note_on_c, 0, 46, 42
1, 631525, Note_off_c, 0, 46, 39
1, 631560, Note_on_c, 0, 34, 38
1, 631574, Note_on_c, 0, 55, 50
1, 631581, Control_c, 0, 64, 108
1, 631596, Control_c, 0, 64, 98
1, 631610, Control_c, 0, 64, 91
1, 631625, Control_c, 0, 64, 81
1, 631640, Control_c, 0, 64, 74
1, 631654, Control_c, 0, 64, 68
1, 631664, Note_off_c, 0, 49, 26
1, 631669, Control_c, 0, 64, 63
1, 631685, Control_c, 0, 64, 60
1, 631700, Control_c, 0, 64, 57
1, 631744, Control_c, 0, 64, 58
1, 631759, Control_c, 0, 64, 60
1, 631774, Control_c, 0, 64, 63
1, 631789, Control_c, 0, 64, 65
1, 631803, Control_c, 0, 64, 69
1, 631818, Control_c, 0, 64, 77
1, 631841, Control_c, 0, 64, 86
1, 631855, Control_c, 0, 64, 99
1, 631870, Control_c, 0, 64, 127
1, 631888, Note_on_c, 0, 58, 66
1, 631974, Note_off_c, 0, 55, 34
1, 632003, Note_off_c, 0, 34, 39
1, 632172, Note_on_c, 0, 55, 70
1, 632178, Note_off_c, 0, 58, 64
1, 632472, Note_on_c, 0, 58, 49
1, 632474, Note_on_c, 0, 65, 71
1, 632482, Note_on_c, 0, 49, 38
1, 632482, Note_off_c, 0, 55, 36
1, 632493, Control_c, 0, 64, 102
1, 632508, Control_c, 0, 64, 87
1, 632523, Control_c, 0, 64, 76
1, 632538, Control_c, 0, 64, 68
1, 632552, Control_c, 0, 64, 62
1, 632567, Control_c, 0, 64, 57
1, 632589, Control_c, 0, 64, 56
1, 632619, Control_c, 0, 64, 57
1, 632634, Control_c, 0, 64, 60
1, 632649, Control_c, 0, 64, 64
1, 632663, Control_c, 0, 64, 69
1, 632678, Control_c, 0, 64, 79
1, 632693, Control_c, 0, 64, 102
1, 632706, Note_off_c, 0, 58, 62
1, 632708, Control_c, 0, 64, 127
1, 632769, Note_on_c, 0, 68, 80
1, 632861, Note_off_c, 0, 65, 60
1, 632874, Note_off_c, 0, 49, 36
1, 633057, Note_on_c, 0, 65, 80
1, 633101, Note_off_c, 0, 68, 62
1, 633300, Note_on_c, 0, 33, 55
1, 633307, Note_on_c, 0, 41, 55
1, 633353, Control_c, 0, 64, 100
1, 633358, Note_on_c, 0, 77, 76
1, 633362, Note_on_c, 0, 73, 67
1, 633368, Control_c, 0, 64, 81
1, 633382, Control_c, 0, 64, 69
1, 633397, Control_c, 0, 64, 60
1, 633412, Control_c, 0, 64, 56
1, 633427, Control_c, 0, 64, 58
1, 633442, Control_c, 0, 64, 63
1, 633443, Note_off_c, 0, 33, 37
1, 633456, Control_c, 0, 64, 67
1, 633471, Control_c, 0, 64, 75
1, 633474, Note_on_c, 0, 49, 66
1, 633486, Control_c, 0, 64, 91
1, 633501, Control_c, 0, 64, 127
1, 633605, Note_off_c, 0, 73, 60
1, 633644, Note_on_c, 0, 34, 73
1, 633650, Control_c, 0, 64, 108
1, 633665, Control_c, 0, 64, 81
1, 633680, Control_c, 0, 64, 67
1, 633695, Control_c, 0, 64, 61
1, 633710, Control_c, 0, 64, 58
1, 633724, Control_c, 0, 64, 59
1, 633739, Control_c, 0, 64, 61
1, 633754, Note_off_c, 0, 77, 52
1, 633754, Control_c, 0, 64, 65
1, 633759, Note_off_c, 0, 65, 52
1, 633769, Control_c, 0, 64, 73
1, 633784, Control_c, 0, 64, 87
1, 633798, Control_c, 0, 64, 127
1, 633844, Note_off_c, 0, 34, 60
1, 633898, Note_off_c, 0, 49, 37
1, 633934, Note_off_c, 0, 41, 48
1, 633946, Control_c, 0, 64, 94
1, 633961, Note_on_c, 0, 77, 67
1, 633961, Control_c, 0, 64, 81
1, 633966, Note_on_c, 0, 72, 57
1, 633969, Note_on_c, 0, 36, 49
1, 633969, Note_on_c, 0, 65, 45
1, 633973, Note_on_c, 0, 68, 45
1, 633976, Control_c, 0, 64, 71
1, 633991, Control_c, 0, 64, 64
1, 634005, Control_c, 0, 64, 54
1, 634020, Control_c, 0, 64, 38
1, 634035, Control_c, 0, 64, 22
1, 634050, Control_c, 0, 64, 14
1, 634087, Control_c, 0, 64, 21
1, 634102, Control_c, 0, 64, 41
1, 634117, Control_c, 0, 64, 57
1, 634129, Note_off_c, 0, 77, 55
1, 634131, Control_c, 0, 64, 64
1, 634146, Control_c, 0, 64, 72
1, 634159, Note_off_c, 0, 72, 61
1, 634161, Control_c, 0, 64, 85
1, 634170, Note_off_c, 0, 65, 57
1, 634176, Control_c, 0, 64, 115
1, 634191, Control_c, 0, 64, 127
1, 634194, Note_off_c, 0, 36, 32
1, 634253, Note_off_c, 0, 68, 36
1, 634443, Control_c, 0, 64, 119
1, 634458, Control_c, 0, 64, 103
1, 634461, Note_on_c, 0, 76, 50
1, 634462, Note_on_c, 0, 68, 30
1, 634464, Note_on_c, 0, 73, 42
1, 634471, Note_on_c, 0, 52, 30
1, 634473, Note_on_c, 0, 44, 37
1, 634473, Control_c, 0, 64, 96
1, 634478, Note_on_c, 0, 64, 38
1, 634488, Control_c, 0, 64, 92
1, 634491, Note_on_c, 0, 37, 29
1, 634503, Control_c, 0, 64, 87
1, 634518, Control_c, 0, 64, 79
1, 634532, Control_c, 0, 64, 72
1, 634547, Control_c, 0, 64, 67
1, 634562, Control_c, 0, 64, 61
1, 634577, Control_c, 0, 64, 53
1, 634592, Control_c, 0, 64, 45
1, 634607, Control_c, 0, 64, 31
1, 634621, Control_c, 0, 64, 17
1, 634636, Control_c, 0, 64, 0
1, 634709, Control_c, 0, 64, 16
1, 634724, Control_c, 0, 64, 31
1, 634739, Control_c, 0, 64, 43
1, 634753, Control_c, 0, 64, 52
1, 634768, Control_c, 0, 64, 57
1, 634783, Control_c, 0, 64, 60
1, 634798, Control_c, 0, 64, 63
1, 634813, Note_off_c, 0, 76, 39
1, 634813, Control_c, 0, 64, 65
1, 634815, Note_off_c, 0, 37, 44
1, 634819, Note_off_c, 0, 52, 37
1, 634830, Note_off_c, 0, 64, 40
1, 634835, Control_c, 0, 64, 69
1, 634850, Control_c, 0, 64, 75
1, 634865, Control_c, 0, 64, 85
1, 634868, Note_off_c, 0, 44, 36
1, 634880, Control_c, 0, 64, 102
1, 634895, Control_c, 0, 64, 127
1, 634939, Note_off_c, 0, 68, 37
1, 635167, Note_on_c, 0, 78, 54
1, 635239, Note_off_c, 0, 73, 42
1, 635319, Note_on_c, 0, 76, 49
1, 635484, Note_on_c, 0, 71, 46
1, 635486, Note_on_c, 0, 75, 51
1, 635490, Note_on_c, 0, 59, 35
1, 635501, Note_on_c, 0, 56, 37
1, 635504, Control_c, 0, 64, 122
1, 635518, Control_c, 0, 64, 108
1, 635533, Control_c, 0, 64, 101
1, 635548, Control_c, 0, 64, 98
1, 635563, Control_c, 0, 64, 95
1, 635585, Control_c, 0, 64, 91
1, 635591, Note_off_c, 0, 76, 45
1, 635600, Control_c, 0, 64, 86
1, 635615, Control_c, 0, 64, 83
1, 635629, Control_c, 0, 64, 80
1, 635644, Control_c, 0, 64, 78
1, 635659, Control_c, 0, 64, 75
1, 635667, Note_off_c, 0, 78, 34
1, 635674, Control_c, 0, 64, 72
1, 635689, Control_c, 0, 64, 69
1, 635703, Control_c, 0, 64, 66
1, 635718, Control_c, 0, 64, 64
1, 635733, Control_c, 0, 64, 62
1, 635748, Control_c, 0, 64, 61
1, 635763, Control_c, 0, 64, 60
1, 635777, Control_c, 0, 64, 59
1, 635790, Note_on_c, 0, 61, 53
1, 635792, Control_c, 0, 64, 57
1, 635793, Note_on_c, 0, 58, 52
1, 635807, Control_c, 0, 64, 56
1, 635822, Control_c, 0, 64, 55
1, 635837, Control_c, 0, 64, 54
1, 635851, Control_c, 0, 64, 53
1, 635866, Control_c, 0, 64, 51
1, 635872, Note_off_c, 0, 59, 35
1, 635881, Control_c, 0, 64, 50
1, 635896, Control_c, 0, 64, 50
1, 635910, Control_c, 0, 64, 49
1, 636084, Note_on_c, 0, 63, 51
1, 636088, Note_on_c, 0, 59, 55
1, 636133, Control_c, 0, 64, 50
1, 636148, Control_c, 0, 64, 52
1, 636157, Note_off_c, 0, 61, 57
1, 636163, Control_c, 0, 64, 56
1, 636176, Note_off_c, 0, 56, 42
1, 636178, Control_c, 0, 64, 60
1, 636193, Control_c, 0, 64, 65
1, 636208, Control_c, 0, 64, 69
1, 636223, Control_c, 0, 64, 76
1, 636238, Control_c, 0, 64, 88
1, 636252, Control_c, 0, 64, 108
1, 636267, Control_c, 0, 64, 127
1, 636312, Note_off_c, 0, 63, 49
1, 636338, Note_off_c, 0, 58, 18
1, 636407, Control_c, 0, 64, 107
1, 636408, Note_on_c, 0, 73, 58
1, 636413, Note_on_c, 0, 64, 39
1, 636422, Control_c, 0, 64, 95
1, 636425, Note_on_c, 0, 70, 41
1, 636436, Note_on_c, 0, 61, 35
1, 636437, Control_c, 0, 64, 85
1, 636452, Control_c, 0, 64, 77
1, 636467, Control_c, 0, 64, 71
1, 636481, Note_off_c, 0, 71, 32
1, 636482, Control_c, 0, 64, 65
1, 636497, Control_c, 0, 64, 60
1, 636512, Control_c, 0, 64, 54
1, 636526, Control_c, 0, 64, 49
1, 636541, Control_c, 0, 64, 47
1, 636548, Note_off_c, 0, 59, 53
1, 636556, Control_c, 0, 64, 46
1, 636586, Control_c, 0, 64, 47
1, 636600, Control_c, 0, 64, 51
1, 636615, Control_c, 0, 64, 56
1, 636630, Control_c, 0, 64, 61
1, 636645, Control_c, 0, 64, 64
1, 636660, Control_c, 0, 64, 69
1, 636674, Control_c, 0, 64, 79
1, 636689, Control_c, 0, 64, 100
1, 636694, Note_off_c, 0, 64, 62
1, 636703, Note_on_c, 0, 71, 75
1, 636704, Control_c, 0, 64, 127
1, 636730, Note_off_c, 0, 70, 50
1, 636763, Note_off_c, 0, 61, 52
1, 636994, Note_off_c, 0, 73, 55
1, 636999, Note_on_c, 0, 70, 73
1, 637000, Note_off_c, 0, 75, 26
1, 637026, Note_off_c, 0, 71, 62
1, 637129, Note_off_c, 0, 70, 63
1, 637238, Note_on_c, 0, 35, 37
1, 637247, Note_on_c, 0, 44, 47
1, 637290, Control_c, 0, 64, 117
1, 637305, Control_c, 0, 64, 89
1, 637313, Note_on_c, 0, 70, 63
1, 637320, Control_c, 0, 64, 73
1, 637330, Note_on_c, 0, 68, 51
1, 637332, Note_on_c, 0, 63, 35
1, 637334, Control_c, 0, 64, 64
1, 637349, Control_c, 0, 64, 56
1, 637364, Control_c, 0, 64, 52
1, 637379, Control_c, 0, 64, 53
1, 637394, Control_c, 0, 64, 56
1, 637409, Control_c, 0, 64, 63
1, 637418, Note_off_c, 0, 63, 54
1, 637423, Control_c, 0, 64, 67
1, 637438, Control_c, 0, 64, 75
1, 637452, Note_off_c, 0, 35, 39
1, 637453, Control_c, 0, 64, 96
1, 637468, Control_c, 0, 64, 127
1, 637554, Note_on_c, 0, 51, 61
1, 637600, Note_off_c, 0, 44, 53
1, 637617, Note_on_c, 0, 71, 85
1, 637638, Note_off_c, 0, 51, 53
1, 637643, Note_off_c, 0, 68, 56
1, 637644, Note_off_c, 0, 70, 63
1, 637801, Note_off_c, 0, 71, 60
1, 637907, Note_on_c, 0, 72, 77
1, 637910, Note_on_c, 0, 80, 76
1, 637979, Control_c, 0, 64, 101
1, 637994, Control_c, 0, 64, 82
1, 638009, Control_c, 0, 64, 72
1, 638024, Control_c, 0, 64, 69
1, 638039, Control_c, 0, 64, 70
1, 638053, Control_c, 0, 64, 77
1, 638068, Control_c, 0, 64, 90
1, 638083, Control_c, 0, 64, 127
1, 638253, Note_on_c, 0, 64, 40
1, 638257, Note_on_c, 0, 68, 43
1, 638282, Note_on_c, 0, 82, 68
1, 638288, Note_on_c, 0, 73, 56
1, 638335, Control_c, 0, 64, 94
1, 638350, Control_c, 0, 64, 82
1, 638365, Control_c, 0, 64, 73
1, 638379, Control_c, 0, 64, 66
1, 638394, Control_c, 0, 64, 61
1, 638409, Control_c, 0, 64, 54
1, 638423, Control_c, 0, 64, 51
1, 638437, Note_off_c, 0, 80, 55
1, 638438, Control_c, 0, 64, 50
1, 638439, Note_off_c, 0, 72, 56
1, 638497, Control_c, 0, 64, 51
1, 638512, Control_c, 0, 64, 52
1, 638527, Control_c, 0, 64, 55
1, 638542, Control_c, 0, 64, 59
1, 638557, Control_c, 0, 64, 63
1, 638575, Note_on_c, 0, 66, 70
1, 638577, Note_on_c, 0, 63, 64
1, 638579, Control_c, 0, 64, 67
1, 638593, Control_c, 0, 64, 73
1, 638608, Control_c, 0, 64, 91
1, 638623, Control_c, 0, 64, 127
1, 638634, Note_off_c, 0, 64, 57
1, 638652, Note_off_c, 0, 68, 56
1, 638839, Note_on_c, 0, 61, 70
1, 638839, Note_on_c, 0, 64, 72
1, 638845, Note_on_c, 0, 74, 79
1, 638858, Note_off_c, 0, 63, 59
1, 638890, Note_off_c, 0, 73, 64
1, 638905, Note_off_c, 0, 66, 58
1, 638905, Control_c, 0, 64, 93
1, 638919, Control_c, 0, 64, 76
1, 638934, Control_c, 0, 64, 67
1, 638949, Control_c, 0, 64, 66
1, 638964, Control_c, 0, 64, 71
1, 638979, Control_c, 0, 64, 85
1, 638993, Control_c, 0, 64, 127
1, 639142, Note_on_c, 0, 63, 69
1, 639145, Note_on_c, 0, 59, 65
1, 639151, Note_on_c, 0, 75, 85
1, 639187, Control_c, 0, 64, 91
1, 639198, Note_off_c, 0, 64, 58
1, 639201, Control_c, 0, 64, 75
1, 639209, Note_off_c, 0, 61, 54
1, 639217, Control_c, 0, 64, 64
1, 639232, Control_c, 0, 64, 54
1, 639234, Note_off_c, 0, 74, 57
1, 639247, Control_c, 0, 64, 43
1, 639262, Control_c, 0, 64, 41
1, 639306, Control_c, 0, 64, 44
1, 639329, Control_c, 0, 64, 53
1, 639344, Control_c, 0, 64, 61
1, 639359, Control_c, 0, 64, 67
1, 639373, Control_c, 0, 64, 76
1, 639388, Control_c, 0, 64, 127
1, 639409, Note_off_c, 0, 82, 58
1, 639439, Note_off_c, 0, 63, 61
1, 639442, Note_off_c, 0, 59, 63
1, 639472, Note_on_c, 0, 83, 81
1, 639489, Note_on_c, 0, 84, 66
1, 639490, Note_off_c, 0, 84, 127
1, 639596, Note_off_c, 0, 75, 60
1, 639737, Note_on_c, 0, 82, 94
1, 639903, Note_off_c, 0, 83, 49
1, 639976, Note_on_c, 0, 40, 67
1, 639979, Note_on_c, 0, 49, 68
1, 640026, Control_c, 0, 64, 106
1, 640040, Control_c, 0, 64, 72
1, 640045, Note_on_c, 0, 80, 91
1, 640052, Note_on_c, 0, 75, 76
1, 640055, Control_c, 0, 64, 44
1, 640077, Control_c, 0, 64, 0
1, 640110, Note_off_c, 0, 40, 59
1, 640122, Control_c, 0, 64, 30
1, 640137, Control_c, 0, 64, 61
1, 640148, Note_off_c, 0, 82, 61
1, 640151, Control_c, 0, 64, 79
1, 640166, Control_c, 0, 64, 127
1, 640241, Note_off_c, 0, 80, 64
1, 640251, Note_on_c, 0, 58, 85
1, 640297, Note_off_c, 0, 49, 58
1, 640339, Note_on_c, 0, 82, 95
1, 640417, Note_off_c, 0, 75, 56
1, 640549, Note_off_c, 0, 58, 62
1, 640592, Note_on_c, 0, 56, 75
1, 640616, Note_on_c, 0, 88, 95
1, 640637, Note_off_c, 0, 82, 63
1, 640887, Note_on_c, 0, 58, 77
1, 640891, Note_on_c, 0, 49, 63
1, 640946, Note_on_c, 0, 90, 96
1, 640974, Note_off_c, 0, 88, 63
1, 640976, Note_off_c, 0, 56, 62
1, 640988, Control_c, 0, 64, 102
1, 641003, Control_c, 0, 64, 75
1, 641018, Control_c, 0, 64, 59
1, 641033, Control_c, 0, 64, 13
1, 641048, Control_c, 0, 64, 0
1, 641077, Control_c, 0, 64, 17
1, 641092, Control_c, 0, 64, 46
1, 641107, Control_c, 0, 64, 63
1, 641122, Control_c, 0, 64, 77
1, 641136, Control_c, 0, 64, 127
1, 641141, Note_off_c, 0, 90, 60
1, 641225, Note_off_c, 0, 49, 63
1, 641227, Note_on_c, 0, 61, 93
1, 641253, Note_off_c, 0, 58, 63
1, 641459, Note_off_c, 0, 61, 59
1, 641498, Note_on_c, 0, 75, 100
1, 641502, Note_on_c, 0, 66, 87
1, 641786, Note_on_c, 0, 68, 77
1, 641796, Note_on_c, 0, 58, 66
1, 641831, Note_on_c, 0, 88, 95
1, 641835, Note_on_c, 0, 83, 78
1, 641856, Control_c, 0, 64, 109
1, 641871, Control_c, 0, 64, 79
1, 641886, Control_c, 0, 64, 64
1, 641893, Note_off_c, 0, 66, 60
1, 641900, Control_c, 0, 64, 24
1, 641915, Control_c, 0, 64, 0
1, 642004, Control_c, 0, 64, 54
1, 642018, Control_c, 0, 64, 71
1, 642033, Control_c, 0, 64, 127
1, 642118, Note_on_c, 0, 87, 92
1, 642186, Note_off_c, 0, 68, 48
1, 642423, Note_on_c, 0, 59, 68
1, 642429, Note_on_c, 0, 85, 91
1, 642485, Note_off_c, 0, 58, 60
1, 642567, Note_off_c, 0, 88, 57
1, 642599, Note_off_c, 0, 87, 65
1, 642614, Note_off_c, 0, 59, 48
1, 642808, Note_on_c, 0, 60, 44
1, 642821, Note_on_c, 0, 51, 51
1, 642871, Control_c, 0, 64, 89
1, 642872, Note_on_c, 0, 84, 72
1, 642886, Control_c, 0, 64, 65
1, 642895, Note_off_c, 0, 83, 56
1, 642901, Control_c, 0, 64, 0
1, 642953, Note_off_c, 0, 85, 63
1, 642971, Note_off_c, 0, 75, 58
1, 642975, Control_c, 0, 64, 61
1, 642990, Control_c, 0, 64, 127
1, 642991, Note_off_c, 0, 51, 65
1, 643070, Note_on_c, 0, 67, 63
1, 643080, Note_off_c, 0, 60, 64
1, 643099, Note_off_c, 0, 67, 65
1, 643174, Note_on_c, 0, 75, 82
1, 643219, Note_off_c, 0, 84, 53
1, 643435, Note_on_c, 0, 43, 77
1, 643437, Note_on_c, 0, 79, 87
1, 643441, Note_on_c, 0, 72, 86
1, 643450, Note_off_c, 0, 75, 60
1, 643725, Note_on_c, 0, 48, 81
1, 643731, Note_on_c, 0, 36, 73
1, 643737, Note_on_c, 0, 75, 91
1, 643762, Note_off_c, 0, 43, 60
1, 643781, Note_off_c, 0, 79, 61
1, 643783, Control_c, 0, 64, 85
1, 643798, Control_c, 0, 64, 60
1, 643821, Control_c, 0, 64, 0
1, 643910, Control_c, 0, 64, 39
1, 643925, Control_c, 0, 64, 86
1, 643939, Control_c, 0, 64, 127
1, 643989, Note_off_c, 0, 75, 58
1, 644013, Note_off_c, 0, 72, 60
1, 644039, Note_on_c, 0, 67, 91
1, 644241, Note_off_c, 0, 67, 61
1, 644280, Note_off_c, 0, 48, 62
1, 644322, Note_on_c, 0, 72, 98
1, 644324, Note_on_c, 0, 63, 97
1, 644372, Note_off_c, 0, 36, 60
1, 644462, Note_off_c, 0, 72, 60
1, 644671, Note_on_c, 0, 70, 100
1, 644673, Note_on_c, 0, 57, 97
1, 644673, Note_on_c, 0, 27, 85
1, 644673, Note_on_c, 0, 39, 85
1, 644693, Note_off_c, 0, 63, 63
1, 644718, Control_c, 0, 64, 105
1, 644733, Control_c, 0, 64, 73
1, 644747, Control_c, 0, 64, 52
1, 644762, Control_c, 0, 64, 0
1, 644808, Control_c, 0, 64, 44
1, 644823, Control_c, 0, 64, 63
1, 644837, Control_c, 0, 64, 75
1, 644852, Control_c, 0, 64, 127
1, 644927, Note_off_c, 0, 57, 60
1, 644945, Note_off_c, 0, 70, 61
1, 644951, Poly_aftertouch_c, 0, 67, 127
1, 644976, Poly_aftertouch_c, 0, 67, 0
1, 645030, Note_on_c, 0, 65, 100
1, 645031, Note_on_c, 0, 67, 101
1, 645074, Control_c, 0, 64, 89
1, 645089, Control_c, 0, 64, 65
1, 645103, Control_c, 0, 64, 33
1, 645118, Control_c, 0, 64, 0
1, 645148, Control_c, 0, 64, 38
1, 645162, Control_c, 0, 64, 62
1, 645177, Control_c, 0, 64, 75
1, 645192, Control_c, 0, 64, 127
1, 645338, Note_off_c, 0, 67, 54
1, 645350, Note_off_c, 0, 65, 56
1, 645449, Note_on_c, 0, 61, 96
1, 645449, Note_on_c, 0, 69, 107
1, 645481, Control_c, 0, 64, 95
1, 645496, Control_c, 0, 64, 66
1, 645510, Control_c, 0, 64, 0
1, 645569, Control_c, 0, 64, 52
1, 645584, Control_c, 0, 64, 70
1, 645599, Control_c, 0, 64, 127
1, 645636, Note_off_c, 0, 61, 61
1, 645646, Note_off_c, 0, 69, 64
1, 645760, Note_off_c, 0, 39, 55
1, 645881, Note_off_c, 0, 27, 52
1, 646022, Note_on_c, 0, 78, 112
1, 646026, Note_on_c, 0, 69, 99
1, 646126, Control_c, 0, 64, 75
1, 646140, Control_c, 0, 64, 33
1, 646155, Control_c, 0, 64, 0
1, 646179, Note_on_c, 0, 38, 94
1, 646180, Note_on_c, 0, 26, 92
1, 646221, Note_off_c, 0, 69, 59
1, 646230, Control_c, 0, 64, 55
1, 646244, Control_c, 0, 64, 81
1, 646253, Note_off_c, 0, 78, 64
1, 646259, Control_c, 0, 64, 127
1, 646308, Note_on_c, 0, 86, 101
1, 646313, Note_on_c, 0, 78, 98
1, 646337, Note_off_c, 0, 26, 61
1, 646399, Note_off_c, 0, 38, 61
1, 646991, Note_on_c, 0, 69, 96
1, 647449, Note_on_c, 0, 57, 65
1, 647450, Note_on_c, 0, 74, 96
1, 647451, Note_on_c, 0, 62, 66
1, 647452, Note_on_c, 0, 66, 68
1, 647528, Control_c, 0, 64, 92
1, 647543, Control_c, 0, 64, 72
1, 647565, Control_c, 0, 64, 62
1, 647568, Note_off_c, 0, 78, 60
1, 647580, Control_c, 0, 64, 49
1, 647595, Control_c, 0, 64, 39
1, 647610, Control_c, 0, 64, 38
1, 647616, Note_off_c, 0, 69, 54
1, 647639, Control_c, 0, 64, 39
1, 647654, Control_c, 0, 64, 50
1, 647669, Control_c, 0, 64, 59
1, 647684, Control_c, 0, 64, 64
1, 647699, Control_c, 0, 64, 69
1, 647713, Control_c, 0, 64, 77
1, 647728, Control_c, 0, 64, 96
1, 647743, Control_c, 0, 64, 127
1, 647912, Note_on_c, 0, 85, 84
1, 647981, Note_off_c, 0, 66, 46
1, 648061, Note_off_c, 0, 62, 62
1, 648221, Note_on_c, 0, 83, 79
1, 648263, Note_off_c, 0, 86, 60
1, 648268, Note_off_c, 0, 74, 53
1, 648328, Note_off_c, 0, 85, 64
1, 648461, Note_on_c, 0, 56, 53
1, 648472, Note_on_c, 0, 61, 46
1, 648477, Note_on_c, 0, 65, 47
1, 648484, Note_off_c, 0, 57, 51
1, 648546, Note_on_c, 0, 85, 78
1, 648551, Control_c, 0, 64, 108
1, 648557, Note_on_c, 0, 77, 65
1, 648566, Control_c, 0, 64, 78
1, 648580, Control_c, 0, 64, 62
1, 648586, Note_off_c, 0, 65, 59
1, 648594, Note_off_c, 0, 83, 62
1, 648595, Control_c, 0, 64, 52
1, 648610, Control_c, 0, 64, 56
1, 648625, Control_c, 0, 64, 63
1, 648639, Note_off_c, 0, 61, 63
1, 648640, Control_c, 0, 64, 69
1, 648654, Control_c, 0, 64, 82
1, 648668, Note_off_c, 0, 56, 64
1, 648669, Control_c, 0, 64, 127
1, 648737, Note_on_c, 0, 53, 74
1, 648841, Note_on_c, 0, 49, 80
1, 648861, Note_on_c, 0, 75, 85
1, 648885, Note_off_c, 0, 77, 36
1, 648894, Note_off_c, 0, 53, 59
1, 648959, Note_on_c, 0, 44, 89
1, 649005, Note_off_c, 0, 49, 63
1, 649077, Note_on_c, 0, 41, 92
1, 649079, Note_off_c, 0, 75, 65
1, 649095, Note_on_c, 0, 74, 95
1, 649106, Note_off_c, 0, 44, 64
1, 649130, Note_off_c, 0, 41, 65
1, 649246, Note_on_c, 0, 34, 45
1, 649249, Note_off_c, 0, 74, 59
1, 649279, Note_off_c, 0, 34, 54
1, 649326, Note_on_c, 0, 33, 80
1, 649329, Note_on_c, 0, 26, 83
1, 649387, Control_c, 0, 64, 94
1, 649401, Control_c, 0, 64, 65
1, 649413, Note_on_c, 0, 86, 95
1, 649415, Note_on_c, 0, 73, 94
1, 649416, Control_c, 0, 64, 0
1, 649449, Note_off_c, 0, 85, 63
1, 649506, Control_c, 0, 64, 51
1, 649520, Control_c, 0, 64, 76
1, 649526, Note_off_c, 0, 26, 63
1, 649535, Control_c, 0, 64, 127
1, 649589, Note_off_c, 0, 73, 64
1, 649599, Note_on_c, 0, 42, 95
1, 649601, Poly_aftertouch_c, 0, 31, 127
1, 649618, Note_off_c, 0, 33, 60
1, 649645, Poly_aftertouch_c, 0, 31, 0
1, 649687, Note_off_c, 0, 42, 62
1, 649723, Note_on_c, 0, 74, 91
1, 650024, Note_on_c, 0, 81, 95
1, 650092, Control_c, 0, 64, 103
1, 650106, Control_c, 0, 64, 93
1, 650108, Note_off_c, 0, 74, 59
1, 650121, Control_c, 0, 64, 89
1, 650136, Control_c, 0, 64, 86
1, 650151, Control_c, 0, 64, 82
1, 650166, Control_c, 0, 64, 76
1, 650180, Control_c, 0, 64, 71
1, 650195, Control_c, 0, 64, 67
1, 650210, Control_c, 0, 64, 64
1, 650224, Control_c, 0, 64, 62
1, 650239, Control_c, 0, 64, 60
1, 650254, Control_c, 0, 64, 55
1, 650269, Control_c, 0, 64, 51
1, 650284, Control_c, 0, 64, 48
1, 650298, Control_c, 0, 64, 46
1, 650313, Control_c, 0, 64, 45
1, 650328, Control_c, 0, 64, 43
1, 650343, Control_c, 0, 64, 39
1, 650344, Note_on_c, 0, 57, 61
1, 650345, Note_on_c, 0, 62, 70
1, 650346, Note_on_c, 0, 66, 67
1, 650355, Note_on_c, 0, 78, 89
1, 650358, Control_c, 0, 64, 37
1, 650373, Control_c, 0, 64, 35
1, 650388, Control_c, 0, 64, 33
1, 650404, Control_c, 0, 64, 31
1, 650419, Control_c, 0, 64, 27
1, 650427, Note_off_c, 0, 81, 60
1, 650434, Control_c, 0, 64, 24
1, 650448, Control_c, 0, 64, 23
1, 650463, Control_c, 0, 64, 22
1, 650478, Control_c, 0, 64, 22
1, 650537, Control_c, 0, 64, 22
1, 650560, Control_c, 0, 64, 26
1, 650575, Control_c, 0, 64, 35
1, 650590, Control_c, 0, 64, 45
1, 650604, Control_c, 0, 64, 53
1, 650619, Control_c, 0, 64, 58
1, 650634, Control_c, 0, 64, 62
1, 650648, Control_c, 0, 64, 65
1, 650663, Control_c, 0, 64, 69
1, 650665, Note_on_c, 0, 85, 79
1, 650678, Control_c, 0, 64, 77
1, 650693, Control_c, 0, 64, 94
1, 650708, Control_c, 0, 64, 127
1, 650746, Note_off_c, 0, 57, 62
1, 650921, Note_off_c, 0, 66, 31
1, 650953, Note_on_c, 0, 83, 83
1, 650987, Note_off_c, 0, 86, 59
1, 651070, Note_off_c, 0, 85, 63
1, 651082, Note_off_c, 0, 78, 55
1, 651191, Note_on_c, 0, 61, 33
1, 651209, Note_off_c, 0, 62, 56
1, 651212, Note_on_c, 0, 65, 52
1, 651231, Note_on_c, 0, 56, 50
1, 651241, Control_c, 0, 64, 94
1, 651256, Note_on_c, 0, 77, 63
1, 651256, Control_c, 0, 64, 75
1, 651259, Note_on_c, 0, 85, 77
1, 651270, Control_c, 0, 64, 63
1, 651285, Control_c, 0, 64, 62
1, 651290, Note_off_c, 0, 65, 62
1, 651308, Control_c, 0, 64, 65
1, 651323, Control_c, 0, 64, 71
1, 651333, Note_off_c, 0, 83, 61
1, 651338, Control_c, 0, 64, 82
1, 651349, Note_off_c, 0, 61, 63
1, 651352, Control_c, 0, 64, 115
1, 651363, Note_off_c, 0, 56, 63
1, 651367, Control_c, 0, 64, 127
1, 651444, Note_on_c, 0, 53, 63
1, 651521, Poly_aftertouch_c, 0, 55, 0
1, 651555, Note_on_c, 0, 49, 75
1, 651565, Note_on_c, 0, 75, 82
1, 651610, Note_off_c, 0, 77, 60
1, 651625, Note_off_c, 0, 53, 56
1, 651693, Note_on_c, 0, 44, 88
1, 651762, Note_off_c, 0, 49, 62
1, 651834, Note_on_c, 0, 41, 86
1, 651839, Note_on_c, 0, 74, 93
1, 651869, Note_off_c, 0, 44, 63
1, 651877, Note_off_c, 0, 75, 62
1, 651890, Note_off_c, 0, 41, 64
1, 651970, Note_off_c, 0, 85, 65
1, 652018, Poly_aftertouch_c, 0, 76, 0
1, 652052, Note_off_c, 0, 74, 62
1, 652101, Note_on_c, 0, 33, 78
1, 652102, Note_on_c, 0, 26, 80
1, 652146, Control_c, 0, 64, 117
1, 652161, Control_c, 0, 64, 81
1, 652173, Note_on_c, 0, 73, 87
1, 652173, Note_on_c, 0, 86, 95
1, 652175, Control_c, 0, 64, 62
1, 652190, Control_c, 0, 64, 0
1, 652197, Note_on_c, 0, 75, 59
1, 652216, Note_off_c, 0, 75, 43
1, 652279, Control_c, 0, 64, 47
1, 652294, Control_c, 0, 64, 66
1, 652308, Control_c, 0, 64, 87
1, 652311, Note_off_c, 0, 26, 61
1, 652323, Control_c, 0, 64, 127
1, 652352, Note_off_c, 0, 73, 65
1, 652395, Note_on_c, 0, 42, 84
1, 652414, Note_off_c, 0, 33, 61
1, 652477, Note_on_c, 0, 74, 96
1, 652495, Note_off_c, 0, 42, 61
1, 652564, Note_off_c, 0, 74, 66
1, 652621, Note_off_c, 0, 86, 64
1, 652758, Note_on_c, 0, 81, 95
1, 652758, Note_on_c, 0, 93, 102
1, 652817, Note_off_c, 0, 93, 67
1, 652838, Note_off_c, 0, 81, 57
1, 653173, Note_on_c, 0, 66, 67
1, 653173, Note_on_c, 0, 78, 93
1, 653178, Note_on_c, 0, 62, 56
1, 653181, Note_on_c, 0, 74, 75
1, 653185, Note_on_c, 0, 57, 53
1, 653264, Control_c, 0, 64, 95
1, 653279, Control_c, 0, 64, 77
1, 653294, Control_c, 0, 64, 63
1, 653309, Control_c, 0, 64, 40
1, 653324, Control_c, 0, 64, 0
1, 653428, Control_c, 0, 64, 17
1, 653442, Control_c, 0, 64, 42
1, 653457, Control_c, 0, 64, 55
1, 653472, Control_c, 0, 64, 62
1, 653487, Control_c, 0, 64, 67
1, 653502, Control_c, 0, 64, 82
1, 653516, Control_c, 0, 64, 127
1, 653577, Note_off_c, 0, 74, 53
1, 653624, Note_off_c, 0, 78, 62
1, 653636, Note_off_c, 0, 66, 56
1, 653791, Note_on_c, 0, 93, 92
1, 653798, Note_on_c, 0, 81, 79
1, 653831, Note_off_c, 0, 81, 61
1, 653849, Note_off_c, 0, 93, 66
1, 654112, Note_on_c, 0, 77, 87
1, 654121, Note_on_c, 0, 65, 45
1, 654126, Note_on_c, 0, 68, 64
1, 654132, Control_c, 0, 64, 94
1, 654147, Control_c, 0, 64, 78
1, 654162, Control_c, 0, 64, 64
1, 654177, Control_c, 0, 64, 52
1, 654192, Control_c, 0, 64, 41
1, 654207, Control_c, 0, 64, 42
1, 654221, Control_c, 0, 64, 51
1, 654236, Control_c, 0, 64, 61
1, 654251, Control_c, 0, 64, 68
1, 654266, Control_c, 0, 64, 79
1, 654281, Control_c, 0, 64, 127
1, 654303, Note_off_c, 0, 65, 58
1, 654347, Note_off_c, 0, 77, 61
1, 654347, Note_off_c, 0, 68, 62
1, 654362, Note_off_c, 0, 62, 62
1, 654414, Note_on_c, 0, 77, 87
1, 654417, Note_off_c, 0, 57, 60
1, 654424, Note_on_c, 0, 74, 70
1, 654551, Note_off_c, 0, 74, 61
1, 654589, Note_off_c, 0, 77, 65
1, 654714, Note_on_c, 0, 81, 72
1, 654715, Note_on_c, 0, 93, 76
1, 654716, Note_on_c, 0, 91, 66
1, 654809, Note_off_c, 0, 91, 62
1, 654812, Note_off_c, 0, 93, 62
1, 654847, Note_off_c, 0, 81, 62
1, 655030, Note_on_c, 0, 45, 54
1, 655045, Note_on_c, 0, 38, 48
1, 655111, Control_c, 0, 64, 79
1, 655119, Note_on_c, 0, 76, 77
1, 655122, Note_on_c, 0, 74, 69
1, 655126, Control_c, 0, 64, 59
1, 655141, Control_c, 0, 64, 0
1, 655170, Control_c, 0, 64, 13
1, 655185, Control_c, 0, 64, 58
1, 655201, Control_c, 0, 64, 72
1, 655203, Note_off_c, 0, 38, 63
1, 655216, Control_c, 0, 64, 116
1, 655231, Control_c, 0, 64, 127
1, 655257, Note_off_c, 0, 45, 56
1, 655267, Note_on_c, 0, 55, 68
1, 655387, Note_off_c, 0, 74, 56
1, 655420, Note_off_c, 0, 55, 53
1, 655435, Note_off_c, 0, 76, 62
1, 655747, Note_on_c, 0, 93, 80
1, 655751, Note_on_c, 0, 81, 67
1, 655822, Note_off_c, 0, 81, 56
1, 655823, Note_off_c, 0, 93, 65
1, 656138, Note_on_c, 0, 67, 63
1, 656154, Note_on_c, 0, 74, 60
1, 656157, Note_on_c, 0, 57, 36
1, 656168, Note_on_c, 0, 62, 43
1, 656176, Note_on_c, 0, 69, 49
1, 656216, Control_c, 0, 64, 116
1, 656230, Control_c, 0, 64, 91
1, 656245, Control_c, 0, 64, 77
1, 656260, Control_c, 0, 64, 68
1, 656275, Control_c, 0, 64, 61
1, 656290, Control_c, 0, 64, 56
1, 656305, Control_c, 0, 64, 54
1, 656320, Control_c, 0, 64, 55
1, 656335, Control_c, 0, 64, 58
1, 656349, Control_c, 0, 64, 61
1, 656364, Control_c, 0, 64, 65
1, 656379, Control_c, 0, 64, 69
1, 656394, Control_c, 0, 64, 79
1, 656409, Control_c, 0, 64, 97
1, 656423, Control_c, 0, 64, 127
1, 656455, Note_off_c, 0, 69, 55
1, 656555, Note_on_c, 0, 66, 79
1, 656576, Note_off_c, 0, 74, 62
1, 656681, Note_off_c, 0, 67, 61
1, 656835, Note_on_c, 0, 93, 91
1, 656836, Note_on_c, 0, 65, 87
1, 656840, Note_on_c, 0, 81, 79
1, 656858, Note_off_c, 0, 62, 61
1, 656902, Note_off_c, 0, 66, 58
1, 656925, Note_off_c, 0, 93, 66
1, 656957, Note_off_c, 0, 81, 65
1, 657113, Control_c, 0, 64, 106
1, 657126, Note_on_c, 0, 66, 69
1, 657128, Control_c, 0, 64, 79
1, 657135, Note_on_c, 0, 61, 57
1, 657142, Note_on_c, 0, 73, 84
1, 657143, Note_off_c, 0, 65, 56
1, 657143, Control_c, 0, 64, 65
1, 657153, Note_on_c, 0, 69, 65
1, 657157, Control_c, 0, 64, 51
1, 657172, Control_c, 0, 64, 31
1, 657187, Control_c, 0, 64, 27
1, 657217, Control_c, 0, 64, 37
1, 657232, Control_c, 0, 64, 57
1, 657246, Control_c, 0, 64, 67
1, 657261, Control_c, 0, 64, 84
1, 657276, Control_c, 0, 64, 127
1, 657312, Note_off_c, 0, 66, 62
1, 657313, Note_off_c, 0, 69, 55
1, 657339, Note_off_c, 0, 61, 62
1, 657343, Note_off_c, 0, 57, 64
1, 657384, Note_off_c, 0, 73, 61
1, 657449, Note_on_c, 0, 62, 98
1, 657684, Note_off_c, 0, 62, 62
1, 657745, Note_on_c, 0, 59, 100
1, 657880, Note_on_c, 0, 47, 82
1, 658094, Note_off_c, 0, 59, 61
1, 658148, Note_on_c, 0, 55, 86
1, 658151, Control_c, 0, 64, 94
1, 658166, Control_c, 0, 64, 62
1, 658167, Note_on_c, 0, 38, 65
1, 658181, Control_c, 0, 64, 0
1, 658269, Control_c, 0, 64, 40
1, 658284, Control_c, 0, 64, 83
1, 658289, Note_off_c, 0, 38, 62
1, 658299, Control_c, 0, 64, 127
1, 658318, Note_off_c, 0, 47, 62
1, 658544, Note_on_c, 0, 67, 60
1, 658643, Note_on_c, 0, 71, 88
1, 658663, Note_off_c, 0, 67, 59
1, 658744, Note_on_c, 0, 74, 92
1, 658752, Note_on_c, 0, 50, 72
1, 658754, Note_on_c, 0, 59, 82
1, 658762, Note_off_c, 0, 71, 64
1, 658798, Note_off_c, 0, 74, 65
1, 658815, Note_off_c, 0, 50, 64
1, 658856, Note_on_c, 0, 79, 96
1, 659005, Note_on_c, 0, 67, 85
1, 659018, Control_c, 0, 64, 125
1, 659033, Control_c, 0, 64, 80
1, 659048, Control_c, 0, 64, 63
1, 659049, Note_on_c, 0, 91, 88
1, 659062, Note_on_c, 0, 83, 73
1, 659063, Control_c, 0, 64, 33
1, 659077, Control_c, 0, 64, 0
1, 659107, Control_c, 0, 64, 43
1, 659122, Control_c, 0, 64, 61
1, 659137, Control_c, 0, 64, 70
1, 659152, Control_c, 0, 64, 92
1, 659167, Control_c, 0, 64, 127
1, 659167, Note_off_c, 0, 67, 60
1, 659195, Note_off_c, 0, 59, 62
1, 659208, Note_off_c, 0, 55, 61
1, 659328, Note_on_c, 0, 54, 94
1, 659538, Note_off_c, 0, 54, 62
1, 659601, Note_off_c, 0, 83, 56
1, 659612, Note_on_c, 0, 52, 83
1, 659736, Note_off_c, 0, 79, 63
1, 659943, Note_on_c, 0, 66, 55
1, 659946, Note_on_c, 0, 54, 58
1, 659946, Note_on_c, 0, 90, 67
1, 659954, Note_on_c, 0, 82, 57
1, 659954, Note_on_c, 0, 58, 52
1, 659989, Control_c, 0, 64, 120
1, 660004, Control_c, 0, 64, 88
1, 660019, Control_c, 0, 64, 71
1, 660034, Control_c, 0, 64, 62
1, 660047, Note_off_c, 0, 52, 59
1, 660049, Control_c, 0, 64, 48
1, 660063, Control_c, 0, 64, 38
1, 660077, Note_off_c, 0, 91, 60
1, 660078, Control_c, 0, 64, 37
1, 660107, Control_c, 0, 64, 39
1, 660122, Control_c, 0, 64, 51
1, 660137, Control_c, 0, 64, 62
1, 660152, Control_c, 0, 64, 68
1, 660167, Control_c, 0, 64, 81
1, 660181, Control_c, 0, 64, 127
1, 660183, Note_off_c, 0, 82, 65
1, 660231, Note_off_c, 0, 66, 63
1, 660260, Note_on_c, 0, 80, 92
1, 660279, Note_off_c, 0, 58, 61
1, 660331, Note_off_c, 0, 54, 64
1, 660425, Note_off_c, 0, 80, 61
1, 660515, Note_on_c, 0, 79, 94
1, 660571, Note_on_c, 0, 38, 76
1, 660648, Note_on_c, 0, 47, 72
1, 660674, Note_off_c, 0, 38, 61
1, 660681, Note_off_c, 0, 79, 64
1, 660805, Note_on_c, 0, 54, 75
1, 660812, Control_c, 0, 64, 97
1, 660827, Control_c, 0, 64, 82
1, 660842, Control_c, 0, 64, 71
1, 660848, Note_on_c, 0, 91, 91
1, 660857, Note_on_c, 0, 78, 80
1, 660857, Control_c, 0, 64, 62
1, 660872, Control_c, 0, 64, 52
1, 660886, Control_c, 0, 64, 45
1, 660901, Control_c, 0, 64, 44
1, 660916, Control_c, 0, 64, 47
1, 660930, Control_c, 0, 64, 56
1, 660945, Control_c, 0, 64, 64
1, 660960, Control_c, 0, 64, 77
1, 660975, Control_c, 0, 64, 127
1, 661019, Note_off_c, 0, 54, 63
1, 661043, Note_off_c, 0, 78, 64
1, 661125, Note_off_c, 0, 47, 47
1, 661127, Note_on_c, 0, 55, 88
1, 661131, Note_on_c, 0, 79, 93
1, 661167, Note_off_c, 0, 90, 28
1, 661255, Note_off_c, 0, 55, 63
1, 661396, Note_on_c, 0, 62, 89
1, 661402, Note_on_c, 0, 86, 85
1, 661491, Note_off_c, 0, 79, 54
1, 661709, Note_on_c, 0, 69, 75
1, 661724, Note_on_c, 0, 59, 59
1, 661765, Note_on_c, 0, 83, 84
1, 661790, Control_c, 0, 64, 113
1, 661805, Control_c, 0, 64, 104
1, 661820, Note_off_c, 0, 62, 58
1, 661820, Control_c, 0, 64, 96
1, 661835, Control_c, 0, 64, 88
1, 661849, Control_c, 0, 64, 81
1, 661864, Control_c, 0, 64, 75
1, 661879, Control_c, 0, 64, 71
1, 661894, Control_c, 0, 64, 66
1, 661909, Control_c, 0, 64, 64
1, 661923, Note_off_c, 0, 86, 59
1, 661924, Control_c, 0, 64, 62
1, 661939, Control_c, 0, 64, 60
1, 661954, Control_c, 0, 64, 59
1, 661968, Control_c, 0, 64, 58
1, 661983, Control_c, 0, 64, 58
1, 661998, Control_c, 0, 64, 57
1, 662013, Control_c, 0, 64, 57
1, 662042, Control_c, 0, 64, 56
1, 662051, Note_on_c, 0, 68, 76
1, 662059, Note_on_c, 0, 90, 79
1, 662116, Control_c, 0, 64, 57
1, 662130, Note_off_c, 0, 69, 59
1, 662131, Control_c, 0, 64, 57
1, 662146, Control_c, 0, 64, 58
1, 662160, Control_c, 0, 64, 59
1, 662175, Control_c, 0, 64, 60
1, 662190, Control_c, 0, 64, 61
1, 662205, Control_c, 0, 64, 62
1, 662220, Control_c, 0, 64, 62
1, 662234, Control_c, 0, 64, 63
1, 662249, Control_c, 0, 64, 63
1, 662264, Control_c, 0, 64, 64
1, 662279, Control_c, 0, 64, 66
1, 662294, Control_c, 0, 64, 68
1, 662309, Control_c, 0, 64, 71
1, 662323, Control_c, 0, 64, 76
1, 662333, Note_on_c, 0, 88, 79
1, 662338, Note_on_c, 0, 67, 68
1, 662338, Control_c, 0, 64, 84
1, 662350, Note_off_c, 0, 91, 53
1, 662353, Control_c, 0, 64, 104
1, 662368, Control_c, 0, 64, 127
1, 662383, Note_off_c, 0, 83, 61
1, 662414, Note_off_c, 0, 68, 58
1, 662425, Note_off_c, 0, 59, 62
1, 662430, Note_off_c, 0, 90, 60
1, 662636, Note_on_c, 0, 58, 49
1, 662639, Note_on_c, 0, 66, 51
1, 662643, Control_c, 0, 64, 113
1, 662648, Note_on_c, 0, 90, 75
1, 662657, Note_on_c, 0, 82, 68
1, 662657, Control_c, 0, 64, 97
1, 662672, Control_c, 0, 64, 87
1, 662687, Control_c, 0, 64, 79
1, 662702, Control_c, 0, 64, 73
1, 662710, Note_off_c, 0, 88, 64
1, 662717, Control_c, 0, 64, 67
1, 662732, Control_c, 0, 64, 60
1, 662741, Note_off_c, 0, 67, 57
1, 662747, Control_c, 0, 64, 52
1, 662762, Control_c, 0, 64, 47
1, 662777, Control_c, 0, 64, 45
1, 662821, Control_c, 0, 64, 51
1, 662836, Control_c, 0, 64, 59
1, 662851, Control_c, 0, 64, 64
1, 662865, Control_c, 0, 64, 69
1, 662880, Control_c, 0, 64, 76
1, 662892, Note_off_c, 0, 90, 61
1, 662895, Control_c, 0, 64, 91
1, 662909, Note_off_c, 0, 66, 56
1, 662909, Control_c, 0, 64, 127
1, 662941, Note_on_c, 0, 80, 80
1, 662941, Note_off_c, 0, 58, 55
1, 662983, Note_off_c, 0, 82, 63
1, 663036, Note_off_c, 0, 80, 64
1, 663220, Note_on_c, 0, 79, 90
1, 663480, Control_c, 0, 64, 115
1, 663495, Control_c, 0, 64, 103
1, 663510, Control_c, 0, 64, 95
1, 663525, Control_c, 0, 64, 88
1, 663540, Control_c, 0, 64, 82
1, 663543, Note_on_c, 0, 46, 57
1, 663546, Note_on_c, 0, 66, 68
1, 663550, Note_on_c, 0, 38, 44
1, 663555, Control_c, 0, 64, 75
1, 663569, Control_c, 0, 64, 69
1, 663584, Control_c, 0, 64, 63
1, 663599, Control_c, 0, 64, 55
1, 663614, Control_c, 0, 64, 51
1, 663644, Control_c, 0, 64, 53
1, 663659, Control_c, 0, 64, 60
1, 663673, Control_c, 0, 64, 65
1, 663688, Control_c, 0, 64, 70
1, 663703, Control_c, 0, 64, 80
1, 663718, Control_c, 0, 64, 110
1, 663732, Control_c, 0, 64, 127
1, 663751, Note_off_c, 0, 66, 62
1, 663847, Note_on_c, 0, 67, 79
1, 663856, Note_on_c, 0, 47, 70
1, 663874, Note_off_c, 0, 46, 62
1, 663883, Note_off_c, 0, 38, 51
1, 664094, Note_off_c, 0, 47, 34
1, 664153, Note_on_c, 0, 54, 67
1, 664157, Note_on_c, 0, 74, 77
1, 664200, Control_c, 0, 64, 94
1, 664215, Control_c, 0, 64, 77
1, 664229, Control_c, 0, 64, 69
1, 664244, Control_c, 0, 64, 66
1, 664259, Control_c, 0, 64, 68
1, 664274, Control_c, 0, 64, 73
1, 664289, Control_c, 0, 64, 81
1, 664303, Control_c, 0, 64, 95
1, 664318, Control_c, 0, 64, 111
1, 664333, Control_c, 0, 64, 127
1, 664422, Control_c, 0, 64, 115
1, 664424, Note_off_c, 0, 67, 34
1, 664437, Control_c, 0, 64, 104
1, 664452, Control_c, 0, 64, 95
1, 664467, Control_c, 0, 64, 88
1, 664476, Note_on_c, 0, 71, 67
1, 664482, Control_c, 0, 64, 81
1, 664485, Note_on_c, 0, 50, 49
1, 664496, Control_c, 0, 64, 75
1, 664511, Control_c, 0, 64, 69
1, 664526, Control_c, 0, 64, 65
1, 664532, Note_off_c, 0, 54, 51
1, 664541, Control_c, 0, 64, 59
1, 664555, Control_c, 0, 64, 52
1, 664570, Control_c, 0, 64, 44
1, 664579, Note_off_c, 0, 74, 55
1, 664585, Control_c, 0, 64, 37
1, 664600, Control_c, 0, 64, 31
1, 664615, Control_c, 0, 64, 27
1, 664629, Control_c, 0, 64, 23
1, 664644, Control_c, 0, 64, 23
1, 664673, Control_c, 0, 64, 27
1, 664688, Control_c, 0, 64, 40
1, 664703, Control_c, 0, 64, 55
1, 664718, Control_c, 0, 64, 63
1, 664733, Control_c, 0, 64, 70
1, 664735, Note_off_c, 0, 50, 61
1, 664747, Control_c, 0, 64, 92
1, 664762, Control_c, 0, 64, 127
1, 664824, Note_off_c, 0, 71, 60
1, 665093, Note_on_c, 0, 67, 71
1, 665097, Note_on_c, 0, 59, 60
1, 665097, Note_on_c, 0, 62, 60
1, 665099, Note_on_c, 0, 74, 78
1, 665112, Control_c, 0, 64, 115
1, 665126, Control_c, 0, 64, 80
1, 665138, Poly_aftertouch_c, 0, 76, 127
1, 665141, Control_c, 0, 64, 63
1, 665156, Control_c, 0, 64, 44
1, 665171, Control_c, 0, 64, 34
1, 665185, Control_c, 0, 64, 37
1, 665194, Poly_aftertouch_c, 0, 76, 0
1, 665200, Control_c, 0, 64, 51
1, 665215, Control_c, 0, 64, 62
1, 665230, Control_c, 0, 64, 68
1, 665231, Poly_aftertouch_c, 0, 76, 127
1, 665235, Note_off_c, 0, 67, 62
1, 665245, Control_c, 0, 64, 82
1, 665260, Control_c, 0, 64, 127
1, 665418, Note_on_c, 0, 69, 62
1, 665420, Note_on_c, 0, 66, 43
1, 665424, Control_c, 0, 64, 108
1, 665435, Note_on_c, 0, 61, 39
1, 665438, Note_on_c, 0, 57, 40
1, 665438, Control_c, 0, 64, 86
1, 665453, Control_c, 0, 64, 74
1, 665455, Note_off_c, 0, 59, 49
1, 665468, Control_c, 0, 64, 66
1, 665474, Note_off_c, 0, 62, 32
1, 665483, Control_c, 0, 64, 60
1, 665489, Note_off_c, 0, 74, 53
1, 665497, Control_c, 0, 64, 51
1, 665512, Control_c, 0, 64, 38
1, 665534, Control_c, 0, 64, 29
1, 665549, Control_c, 0, 64, 24
1, 665564, Control_c, 0, 64, 23
1, 665580, Control_c, 0, 64, 24
1, 665595, Control_c, 0, 64, 31
1, 665609, Control_c, 0, 64, 47
1, 665624, Control_c, 0, 64, 58
1, 665639, Control_c, 0, 64, 64
1, 665654, Control_c, 0, 64, 69
1, 665658, Note_off_c, 0, 66, 60
1, 665669, Control_c, 0, 64, 82
1, 665677, Note_off_c, 0, 57, 60
1, 665683, Control_c, 0, 64, 127
1, 665694, Note_off_c, 0, 61, 53
1, 665720, Note_on_c, 0, 74, 73
1, 665754, Poly_aftertouch_c, 0, 76, 0
1, 665856, Note_off_c, 0, 74, 60
1, 665939, Poly_aftertouch_c, 0, 76, 127
1, 666001, Note_on_c, 0, 54, 72
1, 666006, Note_on_c, 0, 39, 65
1, 666013, Note_on_c, 0, 74, 70
1, 666024, Control_c, 0, 64, 100
1, 666039, Control_c, 0, 64, 77
1, 666054, Control_c, 0, 64, 64
1, 666069, Control_c, 0, 64, 50
1, 666083, Control_c, 0, 64, 38
1, 666113, Control_c, 0, 64, 44
1, 666114, Note_off_c, 0, 69, 59
1, 666127, Control_c, 0, 64, 55
1, 666142, Control_c, 0, 64, 63
1, 666157, Control_c, 0, 64, 68
1, 666172, Control_c, 0, 64, 80
1, 666175, Note_off_c, 0, 54, 63
1, 666187, Control_c, 0, 64, 105
1, 666201, Control_c, 0, 64, 127
1, 666357, Control_c, 0, 64, 106
1, 666371, Control_c, 0, 64, 86
1, 666380, Note_on_c, 0, 38, 45
1, 666387, Control_c, 0, 64, 73
1, 666391, Note_on_c, 0, 67, 58
1, 666397, Note_on_c, 0, 47, 38
1, 666402, Control_c, 0, 64, 63
1, 666417, Control_c, 0, 64, 48
1, 666425, Note_off_c, 0, 39, 37
1, 666431, Control_c, 0, 64, 0
1, 666446, Note_off_c, 0, 74, 60
1, 666491, Poly_aftertouch_c, 0, 76, 0
1, 666505, Note_off_c, 0, 38, 60
1, 666506, Control_c, 0, 64, 38
1, 666521, Control_c, 0, 64, 58
1, 666535, Control_c, 0, 64, 65
1, 666550, Control_c, 0, 64, 76
1, 666565, Control_c, 0, 64, 100
1, 666580, Control_c, 0, 64, 127
1, 666586, Note_on_c, 0, 55, 56
1, 666676, Note_off_c, 0, 55, 40
1, 666781, Note_off_c, 0, 47, 38
1, 666905, Control_c, 0, 64, 112
1, 666920, Control_c, 0, 64, 105
1, 666935, Control_c, 0, 64, 102
1, 666950, Control_c, 0, 64, 99
1, 666965, Control_c, 0, 64, 96
1, 666980, Control_c, 0, 64, 92
1, 666994, Control_c, 0, 64, 88
1, 667003, Note_on_c, 0, 74, 63
1, 667009, Control_c, 0, 64, 85
1, 667031, Control_c, 0, 64, 84
1, 667046, Control_c, 0, 64, 83
1, 667056, Note_off_c, 0, 67, 60
1, 667061, Control_c, 0, 64, 80
1, 667076, Control_c, 0, 64, 77
1, 667091, Control_c, 0, 64, 74
1, 667105, Control_c, 0, 64, 72
1, 667120, Control_c, 0, 64, 71
1, 667135, Control_c, 0, 64, 69
1, 667149, Control_c, 0, 64, 66
1, 667164, Control_c, 0, 64, 63
1, 667180, Control_c, 0, 64, 61
1, 667195, Control_c, 0, 64, 60
1, 667210, Control_c, 0, 64, 60
1, 667225, Control_c, 0, 64, 59
1, 667240, Control_c, 0, 64, 58
1, 667254, Control_c, 0, 64, 57
1, 667269, Control_c, 0, 64, 54
1, 667284, Control_c, 0, 64, 52
1, 667299, Control_c, 0, 64, 50
1, 667314, Control_c, 0, 64, 48
1, 667328, Control_c, 0, 64, 45
1, 667341, Note_on_c, 0, 37, 37
1, 667343, Control_c, 0, 64, 41
1, 667355, Note_on_c, 0, 46, 30
1, 667355, Note_on_c, 0, 66, 48
1, 667358, Control_c, 0, 64, 34
1, 667373, Note_off_c, 0, 74, 53
1, 667373, Control_c, 0, 64, 22
1, 667388, Control_c, 0, 64, 0
1, 667462, Control_c, 0, 64, 33
1, 667467, Note_off_c, 0, 37, 54
1, 667477, Control_c, 0, 64, 57
1, 667492, Control_c, 0, 64, 64
1, 667507, Control_c, 0, 64, 70
1, 667521, Control_c, 0, 64, 84
1, 667536, Control_c, 0, 64, 127
1, 667570, Note_on_c, 0, 54, 44
1, 667626, Note_off_c, 0, 54, 59
1, 667655, Note_off_c, 0, 46, 41
1, 668007, Note_on_c, 0, 74, 46
1, 668033, Control_c, 0, 64, 122
1, 668048, Control_c, 0, 64, 113
1, 668063, Control_c, 0, 64, 106
1, 668077, Control_c, 0, 64, 100
1, 668092, Control_c, 0, 64, 95
1, 668107, Control_c, 0, 64, 92
1, 668122, Control_c, 0, 64, 90
1, 668137, Control_c, 0, 64, 88
1, 668151, Control_c, 0, 64, 86
1, 668166, Control_c, 0, 64, 83
1, 668180, Note_off_c, 0, 66, 33
1, 668181, Control_c, 0, 64, 81
1, 668196, Control_c, 0, 64, 80
1, 668211, Control_c, 0, 64, 78
1, 668226, Control_c, 0, 64, 75
1, 668240, Control_c, 0, 64, 73
1, 668255, Control_c, 0, 64, 69
1, 668270, Control_c, 0, 64, 66
1, 668285, Control_c, 0, 64, 63
1, 668300, Control_c, 0, 64, 60
1, 668315, Control_c, 0, 64, 57
1, 668327, Poly_aftertouch_c, 0, 77, 127
1, 668330, Control_c, 0, 64, 54
1, 668344, Control_c, 0, 64, 52
1, 668359, Control_c, 0, 64, 49
1, 668372, Note_on_c, 0, 35, 39
1, 668372, Note_on_c, 0, 50, 38
1, 668374, Control_c, 0, 64, 47
1, 668378, Note_on_c, 0, 65, 46
1, 668389, Control_c, 0, 64, 46
1, 668403, Control_c, 0, 64, 45
1, 668418, Control_c, 0, 64, 44
1, 668448, Control_c, 0, 64, 50
1, 668463, Control_c, 0, 64, 58
1, 668466, Note_off_c, 0, 74, 49
1, 668477, Control_c, 0, 64, 64
1, 668492, Control_c, 0, 64, 70
1, 668494, Note_off_c, 0, 79, 37
1, 668507, Control_c, 0, 64, 82
1, 668508, Note_off_c, 0, 50, 55
1, 668529, Control_c, 0, 64, 127
1, 668564, Note_off_c, 0, 35, 39
1, 668640, Poly_aftertouch_c, 0, 77, 0
1, 668723, Note_on_c, 0, 30, 51
1, 668782, Control_c, 0, 64, 97
1, 668797, Control_c, 0, 64, 84
1, 668812, Control_c, 0, 64, 74
1, 668826, Control_c, 0, 64, 67
1, 668841, Control_c, 0, 64, 61
1, 668856, Control_c, 0, 64, 55
1, 668871, Control_c, 0, 64, 54
1, 668886, Control_c, 0, 64, 56
1, 668900, Control_c, 0, 64, 60
1, 668915, Control_c, 0, 64, 63
1, 668930, Control_c, 0, 64, 66
1, 668944, Control_c, 0, 64, 71
1, 668959, Control_c, 0, 64, 80
1, 668974, Control_c, 0, 64, 93
1, 668989, Control_c, 0, 64, 119
1, 669004, Control_c, 0, 64, 127
1, 669063, Note_off_c, 0, 30, 31
1, 669153, Control_c, 0, 64, 119
1, 669168, Control_c, 0, 64, 112
1, 669182, Control_c, 0, 64, 108
1, 669197, Control_c, 0, 64, 104
1, 669212, Control_c, 0, 64, 99
1, 669227, Control_c, 0, 64, 96
1, 669242, Control_c, 0, 64, 92
1, 669246, Note_on_c, 0, 31, 34
1, 669257, Control_c, 0, 64, 90
1, 669279, Control_c, 0, 64, 86
1, 669294, Control_c, 0, 64, 83
1, 669308, Control_c, 0, 64, 80
1, 669323, Control_c, 0, 64, 78
1, 669338, Control_c, 0, 64, 76
1, 669352, Control_c, 0, 64, 74
1, 669367, Control_c, 0, 64, 71
1, 669382, Control_c, 0, 64, 69
1, 669397, Control_c, 0, 64, 67
1, 669412, Control_c, 0, 64, 65
1, 669427, Control_c, 0, 64, 63
1, 669442, Control_c, 0, 64, 61
1, 669457, Control_c, 0, 64, 60
1, 669472, Control_c, 0, 64, 59
1, 669487, Control_c, 0, 64, 58
1, 669501, Control_c, 0, 64, 57
1, 669516, Control_c, 0, 64, 56
1, 669531, Control_c, 0, 64, 54
1, 669545, Control_c, 0, 64, 53
1, 669560, Control_c, 0, 64, 52
1, 669576, Control_c, 0, 64, 52
1, 669591, Control_c, 0, 64, 51
1, 669606, Control_c, 0, 64, 50
1, 669621, Control_c, 0, 64, 49
1, 669636, Control_c, 0, 64, 48
1, 669650, Control_c, 0, 64, 47
1, 669665, Control_c, 0, 64, 46
1, 669680, Control_c, 0, 64, 45
1, 669695, Control_c, 0, 64, 45
1, 669710, Control_c, 0, 64, 44
1, 669724, Control_c, 0, 64, 43
1, 669739, Control_c, 0, 64, 42
1, 669754, Control_c, 0, 64, 42
1, 669768, Control_c, 0, 64, 41
1, 669783, Control_c, 0, 64, 41
1, 669813, Control_c, 0, 64, 40
1, 669828, Control_c, 0, 64, 40
1, 669857, Control_c, 0, 64, 39
1, 669872, Control_c, 0, 64, 39
1, 669886, Control_c, 0, 64, 38
1, 669931, Control_c, 0, 64, 38
1, 669960, Control_c, 0, 64, 37
1, 669973, Note_off_c, 0, 31, 31
1, 669987, Note_off_c, 0, 65, 31
1, 669990, Control_c, 0, 64, 37
1, 670042, Control_c, 0, 64, 36
1, 670145, Control_c, 0, 64, 36
1, 670249, Control_c, 0, 64, 36
1, 670264, Control_c, 0, 64, 39
1, 670279, Control_c, 0, 64, 41
1, 670294, Control_c, 0, 64, 44
1, 670309, Control_c, 0, 64, 47
1, 670323, Control_c, 0, 64, 50
1, 670338, Control_c, 0, 64, 53
1, 670353, Control_c, 0, 64, 56
1, 670369, Control_c, 0, 64, 58
1, 670384, Control_c, 0, 64, 60
1, 670398, Control_c, 0, 64, 61
1, 670413, Control_c, 0, 64, 63
1, 670428, Control_c, 0, 64, 64
1, 670443, Control_c, 0, 64, 65
1, 670458, Control_c, 0, 64, 68
1, 670472, Control_c, 0, 64, 71
1, 670487, Control_c, 0, 64, 75
1, 670502, Control_c, 0, 64, 80
1, 670517, Control_c, 0, 64, 85
1, 670532, Control_c, 0, 64, 92
1, 670546, Control_c, 0, 64, 105
1, 670561, Control_c, 0, 64, 127
1, 671426, Note_on_c, 0, 56, 31
1, 671437, Note_on_c, 0, 60, 39
1, 671439, Note_on_c, 0, 48, 30
1, 671442, Note_on_c, 0, 32, 24
1, 671488, Poly_aftertouch_c, 0, 44, 127
1, 671806, Control_c, 0, 64, 122
1, 671820, Control_c, 0, 64, 114
1, 671835, Control_c, 0, 64, 110
1, 671839, Poly_aftertouch_c, 0, 44, 0
1, 671850, Control_c, 0, 64, 109
1, 671865, Control_c, 0, 64, 108
1, 671873, Note_off_c, 0, 32, 39
1, 671880, Control_c, 0, 64, 107
1, 671894, Control_c, 0, 64, 104
1, 671909, Control_c, 0, 64, 102
1, 671924, Control_c, 0, 64, 102
1, 671938, Control_c, 0, 64, 101
1, 671953, Control_c, 0, 64, 100
1, 671970, Control_c, 0, 64, 100
1, 671981, Note_off_c, 0, 48, 38
1, 671985, Control_c, 0, 64, 98
1, 671999, Control_c, 0, 64, 97
1, 672014, Control_c, 0, 64, 95
1, 672029, Control_c, 0, 64, 94
1, 672043, Control_c, 0, 64, 93
1, 672073, Control_c, 0, 64, 93
1, 672088, Control_c, 0, 64, 92
1, 672103, Control_c, 0, 64, 91
1, 672117, Control_c, 0, 64, 90
1, 672131, Control_c, 0, 64, 89
1, 672146, Control_c, 0, 64, 88
1, 672161, Control_c, 0, 64, 87
1, 672176, Control_c, 0, 64, 85
1, 672190, Control_c, 0, 64, 84
1, 672205, Control_c, 0, 64, 83
1, 672220, Control_c, 0, 64, 82
1, 672235, Control_c, 0, 64, 80
1, 672250, Control_c, 0, 64, 78
1, 672272, Control_c, 0, 64, 77
1, 672287, Control_c, 0, 64, 76
1, 672302, Control_c, 0, 64, 75
1, 672316, Control_c, 0, 64, 74
1, 672331, Control_c, 0, 64, 73
1, 672346, Control_c, 0, 64, 72
1, 672361, Control_c, 0, 64, 71
1, 672375, Control_c, 0, 64, 71
1, 672390, Control_c, 0, 64, 70
1, 672405, Control_c, 0, 64, 68
1, 672420, Control_c, 0, 64, 67
1, 672435, Control_c, 0, 64, 65
1, 672450, Control_c, 0, 64, 64
1, 672464, Control_c, 0, 64, 63
1, 672479, Control_c, 0, 64, 63
1, 672494, Control_c, 0, 64, 61
1, 672509, Control_c, 0, 64, 60
1, 672524, Control_c, 0, 64, 58
1, 672539, Control_c, 0, 64, 57
1, 672554, Control_c, 0, 64, 56
1, 672568, Control_c, 0, 64, 56
1, 672642, Control_c, 0, 64, 56
1, 672657, Control_c, 0, 64, 58
1, 672672, Control_c, 0, 64, 59
1, 672687, Control_c, 0, 64, 61
1, 672702, Control_c, 0, 64, 63
1, 672716, Control_c, 0, 64, 65
1, 672731, Control_c, 0, 64, 67
1, 672746, Control_c, 0, 64, 69
1, 672762, Control_c, 0, 64, 71
1, 672774, Note_on_c, 0, 72, 26
1, 672777, Control_c, 0, 64, 75
1, 672783, Note_on_c, 0, 63, 30
1, 672787, Note_on_c, 0, 48, 35
1, 672791, Control_c, 0, 64, 80
1, 672793, Note_on_c, 0, 68, 29
1, 672806, Control_c, 0, 64, 86
1, 672821, Control_c, 0, 64, 94
1, 672836, Control_c, 0, 64, 104
1, 672851, Control_c, 0, 64, 127
1, 672925, Note_off_c, 0, 56, 46
1, 673028, Note_off_c, 0, 72, 45
1, 673037, Note_off_c, 0, 48, 36
1, 673067, Note_off_c, 0, 68, 35
1, 673123, Note_off_c, 0, 63, 35
1, 673129, Note_on_c, 0, 61, 47
1, 673143, Note_on_c, 0, 57, 40
1, 673268, Note_off_c, 0, 57, 62
1, 673270, Note_off_c, 0, 60, 37
1, 673445, Note_on_c, 0, 56, 50
1, 673448, Note_on_c, 0, 60, 65
1, 673459, Note_on_c, 0, 49, 48
1, 673552, Note_off_c, 0, 56, 57
1, 673560, Note_off_c, 0, 61, 37
1, 673576, Note_off_c, 0, 49, 55
1, 673734, Control_c, 0, 64, 107
1, 673749, Control_c, 0, 64, 99
1, 673770, Control_c, 0, 64, 92
1, 673785, Control_c, 0, 64, 87
1, 673793, Note_on_c, 0, 59, 56
1, 673798, Note_on_c, 0, 55, 50
1, 673800, Control_c, 0, 64, 81
1, 673806, Note_on_c, 0, 50, 45
1, 673810, Note_on_c, 0, 40, 24
1, 673815, Control_c, 0, 64, 76
1, 673821, Note_on_c, 0, 28, 26
1, 673830, Control_c, 0, 64, 71
1, 673845, Control_c, 0, 64, 66
1, 673860, Control_c, 0, 64, 60
1, 673874, Note_off_c, 0, 60, 33
1, 673874, Control_c, 0, 64, 53
1, 673889, Control_c, 0, 64, 49
1, 673904, Control_c, 0, 64, 47
1, 673934, Control_c, 0, 64, 50
1, 673949, Control_c, 0, 64, 57
1, 673964, Control_c, 0, 64, 63
1, 673965, Note_off_c, 0, 50, 58
1, 673978, Control_c, 0, 64, 69
1, 673993, Control_c, 0, 64, 82
1, 674008, Control_c, 0, 64, 108
1, 674017, Note_off_c, 0, 55, 56
1, 674022, Control_c, 0, 64, 127
1, 674053, Note_off_c, 0, 59, 38
1, 674131, Note_on_c, 0, 64, 53
1, 674133, Note_on_c, 0, 59, 32
1, 674141, Control_c, 0, 64, 100
1, 674144, Note_on_c, 0, 55, 43
1, 674156, Control_c, 0, 64, 80
1, 674170, Control_c, 0, 64, 68
1, 674185, Control_c, 0, 64, 63
1, 674200, Control_c, 0, 64, 61
1, 674214, Control_c, 0, 64, 62
1, 674229, Control_c, 0, 64, 64
1, 674244, Control_c, 0, 64, 68
1, 674247, Note_off_c, 0, 59, 54
1, 674259, Control_c, 0, 64, 75
1, 674260, Note_off_c, 0, 55, 51
1, 674274, Control_c, 0, 64, 89
1, 674289, Control_c, 0, 64, 117
1, 674304, Control_c, 0, 64, 127
1, 674366, Note_off_c, 0, 28, 39
1, 674395, Note_off_c, 0, 40, 42
1, 674497, Control_c, 0, 64, 108
1, 674519, Control_c, 0, 64, 101
1, 674534, Control_c, 0, 64, 97
1, 674546, Note_on_c, 0, 61, 37
1, 674548, Note_on_c, 0, 66, 34
1, 674549, Note_on_c, 0, 57, 28
1, 674549, Control_c, 0, 64, 92
1, 674564, Control_c, 0, 64, 88
1, 674579, Control_c, 0, 64, 83
1, 674593, Control_c, 0, 64, 80
1, 674608, Control_c, 0, 64, 78
1, 674623, Control_c, 0, 64, 76
1, 674638, Control_c, 0, 64, 73
1, 674652, Control_c, 0, 64, 70
1, 674667, Control_c, 0, 64, 69
1, 674682, Control_c, 0, 64, 68
1, 674690, Note_off_c, 0, 64, 35
1, 674697, Control_c, 0, 64, 66
1, 674712, Control_c, 0, 64, 64
1, 674727, Control_c, 0, 64, 62
1, 674742, Control_c, 0, 64, 59
1, 674757, Control_c, 0, 64, 58
1, 674772, Control_c, 0, 64, 58
1, 674786, Control_c, 0, 64, 57
1, 674801, Control_c, 0, 64, 55
1, 674816, Control_c, 0, 64, 54
1, 674831, Control_c, 0, 64, 52
1, 674845, Control_c, 0, 64, 51
1, 674860, Control_c, 0, 64, 49
1, 674875, Control_c, 0, 64, 48
1, 674890, Control_c, 0, 64, 46
1, 674905, Control_c, 0, 64, 44
1, 674919, Control_c, 0, 64, 42
1, 674934, Control_c, 0, 64, 41
1, 674949, Control_c, 0, 64, 39
1, 674963, Control_c, 0, 64, 37
1, 674971, Note_off_c, 0, 57, 31
1, 674978, Control_c, 0, 64, 35
1, 674993, Control_c, 0, 64, 32
1, 675000, Note_off_c, 0, 66, 30
1, 675007, Note_off_c, 0, 61, 32
1, 675008, Control_c, 0, 64, 28
1, 675023, Control_c, 0, 64, 25
1, 675031, Note_on_c, 0, 44, 25
1, 675034, Note_on_c, 0, 32, 29
1, 675037, Control_c, 0, 64, 20
1, 675052, Control_c, 0, 64, 11
1, 675067, Control_c, 0, 64, 0
1, 675246, Control_c, 0, 64, 15
1, 675268, Control_c, 0, 64, 32
1, 675283, Control_c, 0, 64, 44
1, 675298, Control_c, 0, 64, 52
1, 675313, Control_c, 0, 64, 57
1, 675328, Control_c, 0, 64, 60
1, 675342, Control_c, 0, 64, 62
1, 675357, Control_c, 0, 64, 65
1, 675372, Control_c, 0, 64, 69
1, 675379, Note_off_c, 0, 32, 40
1, 675380, Note_off_c, 0, 44, 35
1, 675386, Control_c, 0, 64, 79
1, 675401, Control_c, 0, 64, 97
1, 675416, Control_c, 0, 64, 127
1, 676174, Note_on_c, 0, 75, 53
1, 676178, Note_on_c, 0, 51, 29
1, 676181, Note_on_c, 0, 72, 43
1, 676187, Note_on_c, 0, 60, 33
1, 676191, Note_on_c, 0, 56, 26
1, 676435, Note_off_c, 0, 72, 34
1, 676687, Note_off_c, 0, 60, 38
1, 676726, Note_on_c, 0, 72, 35
1, 676760, Note_on_c, 0, 68, 31
1, 676897, Note_off_c, 0, 56, 40
1, 676930, Note_off_c, 0, 75, 34
1, 676954, Note_off_c, 0, 72, 43
1, 677091, Note_off_c, 0, 68, 32
1, 677310, Note_on_c, 0, 60, 27
1, 677319, Note_on_c, 0, 72, 39
1, 677319, Note_on_c, 0, 75, 38
1, 677322, Note_on_c, 0, 63, 24
1, 677323, Note_on_c, 0, 55, 27
1, 677432, Control_c, 0, 64, 113
1, 677447, Control_c, 0, 64, 91
1, 677462, Control_c, 0, 64, 79
1, 677477, Control_c, 0, 64, 71
1, 677492, Control_c, 0, 64, 65
1, 677514, Control_c, 0, 64, 62
1, 677529, Control_c, 0, 64, 61
1, 677544, Control_c, 0, 64, 62
1, 677559, Control_c, 0, 64, 63
1, 677574, Control_c, 0, 64, 65
1, 677589, Control_c, 0, 64, 69
1, 677604, Control_c, 0, 64, 74
1, 677616, Note_off_c, 0, 51, 32
1, 677616, Note_off_c, 0, 72, 40
1, 677618, Control_c, 0, 64, 83
1, 677633, Control_c, 0, 64, 102
1, 677648, Control_c, 0, 64, 127
1, 677714, Note_off_c, 0, 63, 38
1, 677830, Note_off_c, 0, 60, 39
1, 677854, Note_off_c, 0, 55, 35
1, 677982, Note_on_c, 0, 67, 23
1, 677988, Note_on_c, 0, 72, 29
1, 678227, Note_off_c, 0, 75, 32
1, 678262, Note_off_c, 0, 67, 35
1, 678317, Note_off_c, 0, 72, 39
1, 678718, Note_on_c, 0, 32, 31
1, 678900, Control_c, 0, 64, 101
1, 678915, Control_c, 0, 64, 85
1, 678930, Control_c, 0, 64, 77
1, 678945, Control_c, 0, 64, 70
1, 678960, Control_c, 0, 64, 65
1, 678975, Control_c, 0, 64, 60
1, 678990, Control_c, 0, 64, 55
1, 679011, Control_c, 0, 64, 54
1, 679026, Control_c, 0, 64, 53
1, 679056, Control_c, 0, 64, 54
1, 679071, Control_c, 0, 64, 57
1, 679085, Control_c, 0, 64, 60
1, 679100, Control_c, 0, 64, 64
1, 679115, Control_c, 0, 64, 68
1, 679130, Control_c, 0, 64, 75
1, 679145, Control_c, 0, 64, 91
1, 679161, Control_c, 0, 64, 127
1, 679163, Note_off_c, 0, 32, 42
1, 679538, Note_on_c, 0, 48, 52
1, 680112, Note_on_c, 0, 72, 37
1, 680113, Note_on_c, 0, 60, 40
1, 680118, Note_on_c, 0, 63, 27
1, 680128, Note_on_c, 0, 56, 29
1, 680134, Note_on_c, 0, 68, 27
1, 680367, Note_off_c, 0, 56, 41
1, 680507, Note_off_c, 0, 72, 43
1, 680531, Note_on_c, 0, 61, 58
1, 680541, Note_on_c, 0, 57, 45
1, 680601, Note_off_c, 0, 63, 40
1, 680602, Note_off_c, 0, 68, 35
1, 680663, Note_off_c, 0, 48, 57
1, 680692, Note_off_c, 0, 60, 37
1, 680697, Note_off_c, 0, 57, 63
1, 680841, Note_on_c, 0, 60, 70
1, 680856, Note_on_c, 0, 49, 51
1, 680861, Note_on_c, 0, 56, 54
1, 680948, Note_off_c, 0, 61, 59
1, 680959, Note_off_c, 0, 56, 61
1, 680984, Note_off_c, 0, 49, 57
1, 681171, Note_on_c, 0, 54, 58
1, 681172, Note_on_c, 0, 59, 64
1, 681190, Note_on_c, 0, 50, 49
1, 681193, Note_on_c, 0, 26, 35
1, 681201, Note_on_c, 0, 38, 21
1, 681205, Control_c, 0, 64, 101
1, 681220, Control_c, 0, 64, 85
1, 681234, Note_off_c, 0, 60, 55
1, 681235, Control_c, 0, 64, 74
1, 681258, Control_c, 0, 64, 64
1, 681273, Control_c, 0, 64, 54
1, 681287, Control_c, 0, 64, 47
1, 681317, Control_c, 0, 64, 52
1, 681332, Control_c, 0, 64, 60
1, 681341, Note_off_c, 0, 54, 64
1, 681347, Control_c, 0, 64, 67
1, 681348, Note_off_c, 0, 50, 56
1, 681361, Control_c, 0, 64, 76
1, 681376, Control_c, 0, 64, 95
1, 681386, Note_off_c, 0, 59, 63
1, 681391, Control_c, 0, 64, 127
1, 681514, Note_on_c, 0, 64, 57
1, 681538, Note_on_c, 0, 54, 46
1, 681538, Note_on_c, 0, 59, 44
1, 681539, Control_c, 0, 64, 119
1, 681555, Control_c, 0, 64, 86
1, 681570, Control_c, 0, 64, 71
1, 681584, Control_c, 0, 64, 62
1, 681599, Control_c, 0, 64, 54
1, 681614, Control_c, 0, 64, 50
1, 681629, Control_c, 0, 64, 51
1, 681644, Control_c, 0, 64, 56
1, 681658, Control_c, 0, 64, 62
1, 681661, Note_off_c, 0, 59, 46
1, 681673, Control_c, 0, 64, 67
1, 681688, Control_c, 0, 64, 73
1, 681696, Note_off_c, 0, 54, 58
1, 681702, Control_c, 0, 64, 82
1, 681717, Control_c, 0, 64, 98
1, 681732, Control_c, 0, 64, 127
1, 681851, Note_off_c, 0, 26, 36
1, 681895, Control_c, 0, 64, 116
1, 681899, Note_off_c, 0, 38, 35
1, 681910, Control_c, 0, 64, 109
1, 681925, Control_c, 0, 64, 104
1, 681940, Control_c, 0, 64, 99
1, 681942, Note_on_c, 0, 57, 36
1, 681943, Note_on_c, 0, 61, 34
1, 681950, Note_on_c, 0, 66, 36
1, 681955, Control_c, 0, 64, 93
1, 681969, Control_c, 0, 64, 86
1, 681984, Control_c, 0, 64, 80
1, 682006, Control_c, 0, 64, 78
1, 682021, Control_c, 0, 64, 76
1, 682036, Control_c, 0, 64, 74
1, 682050, Note_off_c, 0, 64, 35
1, 682051, Control_c, 0, 64, 70
1, 682066, Control_c, 0, 64, 67
1, 682081, Control_c, 0, 64, 65
1, 682096, Control_c, 0, 64, 63
1, 682110, Control_c, 0, 64, 62
1, 682125, Control_c, 0, 64, 60
1, 682140, Control_c, 0, 64, 57
1, 682155, Control_c, 0, 64, 54
1, 682170, Control_c, 0, 64, 52
1, 682184, Control_c, 0, 64, 50
1, 682199, Control_c, 0, 64, 47
1, 682214, Control_c, 0, 64, 42
1, 682228, Control_c, 0, 64, 37
1, 682243, Control_c, 0, 64, 33
1, 682258, Control_c, 0, 64, 29
1, 682273, Control_c, 0, 64, 25
1, 682288, Control_c, 0, 64, 22
1, 682302, Control_c, 0, 64, 20
1, 682317, Control_c, 0, 64, 19
1, 682332, Control_c, 0, 64, 19
1, 682363, Control_c, 0, 64, 18
1, 682379, Note_off_c, 0, 57, 34
1, 682398, Note_off_c, 0, 66, 33
1, 682427, Note_off_c, 0, 61, 33
1, 682518, Note_on_c, 0, 44, 28
1, 682522, Note_on_c, 0, 32, 21
1, 682540, Control_c, 0, 64, 19
1, 682555, Control_c, 0, 64, 20
1, 682570, Control_c, 0, 64, 22
1, 682585, Control_c, 0, 64, 24
1, 682600, Control_c, 0, 64, 27
1, 682614, Control_c, 0, 64, 33
1, 682629, Control_c, 0, 64, 39
1, 682643, Control_c, 0, 64, 46
1, 682658, Control_c, 0, 64, 51
1, 682673, Control_c, 0, 64, 55
1, 682688, Control_c, 0, 64, 58
1, 682703, Control_c, 0, 64, 61
1, 682717, Control_c, 0, 64, 63
1, 682732, Control_c, 0, 64, 65
1, 682755, Control_c, 0, 64, 69
1, 682769, Control_c, 0, 64, 73
1, 682784, Control_c, 0, 64, 80
1, 682799, Control_c, 0, 64, 92
1, 682814, Control_c, 0, 64, 120
1, 682829, Control_c, 0, 64, 127
1, 682857, Note_off_c, 0, 32, 38
1, 682918, Note_off_c, 0, 44, 35
1, 683047, Note_on_c, 0, 72, 41
1, 683065, Note_on_c, 0, 68, 33
1, 683222, Note_off_c, 0, 72, 55
1, 683526, Note_on_c, 0, 60, 34
1, 683526, Note_on_c, 0, 75, 57
1, 683527, Note_on_c, 0, 55, 35
1, 683532, Note_on_c, 0, 72, 47
1, 683536, Note_on_c, 0, 51, 33
1, 683653, Note_off_c, 0, 68, 27
1, 683749, Note_off_c, 0, 72, 54
1, 683928, Note_off_c, 0, 55, 41
1, 683991, Note_on_c, 0, 72, 57
1, 683996, Note_on_c, 0, 67, 36
1, 684001, Note_off_c, 0, 60, 42
1, 684153, Note_off_c, 0, 67, 49
1, 684267, Note_off_c, 0, 72, 57
1, 684408, Note_off_c, 0, 75, 35
1, 684496, Note_on_c, 0, 77, 58
1, 684499, Note_on_c, 0, 60, 27
1, 684506, Note_on_c, 0, 55, 32
1, 684508, Note_on_c, 0, 63, 20
1, 684516, Note_on_c, 0, 72, 39
1, 684579, Control_c, 0, 64, 102
1, 684594, Control_c, 0, 64, 87
1, 684609, Control_c, 0, 64, 75
1, 684623, Control_c, 0, 64, 68
1, 684638, Control_c, 0, 64, 63
1, 684653, Control_c, 0, 64, 57
1, 684668, Control_c, 0, 64, 54
1, 684683, Control_c, 0, 64, 54
1, 684712, Control_c, 0, 64, 55
1, 684727, Control_c, 0, 64, 58
1, 684728, Note_off_c, 0, 51, 44
1, 684743, Control_c, 0, 64, 61
1, 684758, Control_c, 0, 64, 65
1, 684773, Control_c, 0, 64, 69
1, 684787, Control_c, 0, 64, 77
1, 684802, Control_c, 0, 64, 89
1, 684817, Control_c, 0, 64, 114
1, 684832, Control_c, 0, 64, 127
1, 684850, Note_off_c, 0, 77, 48
1, 685118, Note_on_c, 0, 79, 42
1, 685125, Note_on_c, 0, 75, 37
1, 685139, Note_on_c, 0, 58, 20
1, 685209, Control_c, 0, 64, 101
1, 685224, Control_c, 0, 64, 87
1, 685239, Control_c, 0, 64, 77
1, 685253, Control_c, 0, 64, 68
1, 685268, Control_c, 0, 64, 63
1, 685277, Note_off_c, 0, 60, 38
1, 685283, Control_c, 0, 64, 58
1, 685292, Note_off_c, 0, 72, 43
1, 685298, Control_c, 0, 64, 54
1, 685313, Control_c, 0, 64, 52
1, 685342, Control_c, 0, 64, 52
1, 685357, Control_c, 0, 64, 55
1, 685372, Control_c, 0, 64, 59
1, 685387, Control_c, 0, 64, 63
1, 685402, Control_c, 0, 64, 66
1, 685416, Control_c, 0, 64, 70
1, 685418, Note_off_c, 0, 63, 38
1, 685431, Control_c, 0, 64, 77
1, 685446, Control_c, 0, 64, 88
1, 685461, Control_c, 0, 64, 100
1, 685469, Note_off_c, 0, 58, 35
1, 685476, Control_c, 0, 64, 127
1, 685484, Note_off_c, 0, 55, 38
1, 685554, Note_off_c, 0, 79, 37
1, 685583, Note_off_c, 0, 75, 37
1, 686197, Note_on_c, 0, 44, 20
1, 686217, Note_on_c, 0, 32, 19
1, 686239, Control_c, 0, 64, 116
1, 686254, Control_c, 0, 64, 107
1, 686269, Control_c, 0, 64, 99
1, 686284, Control_c, 0, 64, 89
1, 686299, Control_c, 0, 64, 80
1, 686314, Control_c, 0, 64, 72
1, 686329, Control_c, 0, 64, 66
1, 686344, Control_c, 0, 64, 62
1, 686359, Control_c, 0, 64, 59
1, 686373, Control_c, 0, 64, 58
1, 686403, Control_c, 0, 64, 60
1, 686418, Control_c, 0, 64, 61
1, 686433, Control_c, 0, 64, 64
1, 686448, Control_c, 0, 64, 66
1, 686463, Control_c, 0, 64, 71
1, 686478, Control_c, 0, 64, 77
1, 686499, Control_c, 0, 64, 84
1, 686514, Control_c, 0, 64, 93
1, 686529, Control_c, 0, 64, 107
1, 686544, Control_c, 0, 64, 127
1, 686566, Note_off_c, 0, 44, 26
1, 686781, Note_on_c, 0, 31, 21
1, 686803, Note_on_c, 0, 86, 32
1, 686845, Poly_aftertouch_c, 0, 43, 127
1, 686894, Note_off_c, 0, 32, 34
1, 686993, Poly_aftertouch_c, 0, 43, 0
1, 687268, Note_on_c, 0, 87, 37
1, 687271, Note_on_c, 0, 75, 21
1, 687285, Note_on_c, 0, 32, 16
1, 687303, Poly_aftertouch_c, 0, 44, 127
1, 687410, Note_off_c, 0, 86, 39
1, 687449, Note_off_c, 0, 31, 34
1, 687518, Poly_aftertouch_c, 0, 44, 0
1, 687643, Note_on_c, 0, 86, 41
1, 687661, Note_on_c, 0, 43, 14
1, 687667, Note_on_c, 0, 31, 22
1, 687710, Note_off_c, 0, 32, 33
1, 687785, Note_off_c, 0, 75, 41
1, 687786, Note_off_c, 0, 43, 36
1, 687874, Note_off_c, 0, 87, 31
1, 687928, Note_on_c, 0, 74, 45
1, 687982, Note_on_c, 0, 44, 10
1, 687983, Note_on_c, 0, 32, 22
1, 688109, Note_off_c, 0, 31, 35
1, 688134, Note_off_c, 0, 44, 33
1, 688219, Note_on_c, 0, 87, 47
1, 688222, Note_off_c, 0, 74, 35
1, 688223, Note_on_c, 0, 31, 23
1, 688226, Note_on_c, 0, 43, 21
1, 688267, Note_off_c, 0, 32, 37
1, 688313, Note_off_c, 0, 43, 50
1, 688479, Note_off_c, 0, 87, 32
1, 688491, Note_off_c, 0, 86, 41
1, 688495, Note_on_c, 0, 75, 49
1, 688514, Note_on_c, 0, 44, 22
1, 688517, Note_on_c, 0, 32, 27
1, 688618, Note_off_c, 0, 31, 33
1, 688709, Note_off_c, 0, 44, 39
1, 688764, Note_off_c, 0, 75, 61
1, 688777, Note_on_c, 0, 74, 56
1, 688797, Note_on_c, 0, 43, 31
1, 688800, Note_on_c, 0, 31, 30
1, 688832, Note_off_c, 0, 32, 36
1, 688881, Note_off_c, 0, 43, 55
1, 689064, Note_on_c, 0, 75, 58
1, 689065, Note_on_c, 0, 63, 55
1, 689076, Note_on_c, 0, 44, 29
1, 689080, Note_on_c, 0, 32, 32
1, 689086, Control_c, 0, 64, 99
1, 689101, Control_c, 0, 64, 83
1, 689116, Control_c, 0, 64, 72
1, 689131, Control_c, 0, 64, 66
1, 689143, Note_off_c, 0, 74, 40
1, 689146, Control_c, 0, 64, 62
1, 689160, Control_c, 0, 64, 61
1, 689175, Control_c, 0, 64, 62
1, 689178, Note_off_c, 0, 31, 38
1, 689190, Control_c, 0, 64, 63
1, 689205, Control_c, 0, 64, 65
1, 689220, Control_c, 0, 64, 69
1, 689235, Control_c, 0, 64, 75
1, 689250, Control_c, 0, 64, 85
1, 689265, Control_c, 0, 64, 115
1, 689280, Control_c, 0, 64, 127
1, 689313, Note_off_c, 0, 44, 38
1, 689352, Note_on_c, 0, 74, 64
1, 689359, Note_on_c, 0, 31, 38
1, 689361, Note_on_c, 0, 43, 34
1, 689389, Note_off_c, 0, 32, 37
1, 689399, Note_off_c, 0, 75, 57
1, 689437, Note_off_c, 0, 43, 57
1, 689494, Note_off_c, 0, 63, 59
1, 689614, Control_c, 0, 64, 98
1, 689628, Control_c, 0, 64, 80
1, 689637, Note_on_c, 0, 32, 29
1, 689643, Note_on_c, 0, 44, 34
1, 689643, Note_on_c, 0, 62, 57
1, 689643, Control_c, 0, 64, 70
1, 689645, Note_on_c, 0, 75, 58
1, 689658, Control_c, 0, 64, 64
1, 689673, Control_c, 0, 64, 61
1, 689681, Note_off_c, 0, 74, 48
1, 689703, Control_c, 0, 64, 63
1, 689707, Note_off_c, 0, 31, 35
1, 689717, Control_c, 0, 64, 65
1, 689732, Control_c, 0, 64, 71
1, 689747, Control_c, 0, 64, 80
1, 689762, Control_c, 0, 64, 93
1, 689773, Note_off_c, 0, 75, 60
1, 689777, Control_c, 0, 64, 119
1, 689791, Control_c, 0, 64, 127
1, 689861, Note_off_c, 0, 44, 38
1, 689939, Note_on_c, 0, 63, 54
1, 689950, Note_on_c, 0, 31, 30
1, 689956, Note_on_c, 0, 43, 26
1, 689968, Note_off_c, 0, 32, 35
1, 689998, Control_c, 0, 64, 112
1, 690013, Control_c, 0, 64, 88
1, 690028, Control_c, 0, 64, 73
1, 690043, Control_c, 0, 64, 65
1, 690058, Control_c, 0, 64, 62
1, 690070, Note_off_c, 0, 43, 53
1, 690073, Control_c, 0, 64, 63
1, 690088, Control_c, 0, 64, 65
1, 690102, Control_c, 0, 64, 71
1, 690111, Note_off_c, 0, 62, 57
1, 690117, Control_c, 0, 64, 81
1, 690132, Control_c, 0, 64, 102
1, 690147, Control_c, 0, 64, 127
1, 690243, Control_c, 0, 64, 95
1, 690249, Note_on_c, 0, 32, 32
1, 690257, Note_on_c, 0, 44, 35
1, 690258, Control_c, 0, 64, 76
1, 690272, Control_c, 0, 64, 67
1, 690287, Control_c, 0, 64, 65
1, 690302, Control_c, 0, 64, 67
1, 690317, Control_c, 0, 64, 70
1, 690332, Control_c, 0, 64, 74
1, 690333, Note_off_c, 0, 31, 36
1, 690347, Control_c, 0, 64, 81
1, 690362, Control_c, 0, 64, 92
1, 690377, Control_c, 0, 64, 117
1, 690392, Control_c, 0, 64, 127
1, 690459, Note_off_c, 0, 44, 38
1, 690550, Note_on_c, 0, 43, 30
1, 690554, Note_on_c, 0, 31, 31
1, 690569, Note_off_c, 0, 32, 39
1, 690688, Note_off_c, 0, 43, 35
1, 690858, Note_on_c, 0, 51, 42
1, 690880, Control_c, 0, 64, 115
1, 690881, Note_on_c, 0, 32, 19
1, 690890, Note_on_c, 0, 44, 20
1, 690895, Control_c, 0, 64, 103
1, 690910, Control_c, 0, 64, 92
1, 690925, Control_c, 0, 64, 82
1, 690939, Control_c, 0, 64, 72
1, 690954, Control_c, 0, 64, 66
1, 690957, Note_off_c, 0, 31, 39
1, 690969, Control_c, 0, 64, 63
1, 690991, Control_c, 0, 64, 63
1, 691006, Control_c, 0, 64, 64
1, 691021, Control_c, 0, 64, 65
1, 691035, Control_c, 0, 64, 68
1, 691050, Control_c, 0, 64, 72
1, 691065, Control_c, 0, 64, 79
1, 691070, Note_off_c, 0, 44, 39
1, 691080, Control_c, 0, 64, 88
1, 691080, Note_off_c, 0, 63, 34
1, 691095, Control_c, 0, 64, 100
1, 691110, Control_c, 0, 64, 116
1, 691125, Control_c, 0, 64, 127
1, 691162, Note_off_c, 0, 51, 40
1, 691200, Note_on_c, 0, 43, 28
1, 691205, Note_on_c, 0, 31, 30
1, 691277, Note_off_c, 0, 32, 31
1, 691364, Note_off_c, 0, 43, 40
1, 691604, Note_on_c, 0, 32, 27
1, 691607, Note_on_c, 0, 44, 12
1, 691621, Note_on_c, 0, 63, 57
1, 691651, Note_on_c, 0, 60, 38
1, 691658, Control_c, 0, 64, 110
1, 691673, Control_c, 0, 64, 99
1, 691688, Control_c, 0, 64, 89
1, 691703, Control_c, 0, 64, 79
1, 691718, Control_c, 0, 64, 71
1, 691740, Control_c, 0, 64, 66
1, 691755, Control_c, 0, 64, 64
1, 691763, Note_off_c, 0, 31, 37
1, 691784, Control_c, 0, 64, 64
1, 691799, Control_c, 0, 64, 66
1, 691814, Control_c, 0, 64, 69
1, 691829, Control_c, 0, 64, 75
1, 691843, Control_c, 0, 64, 85
1, 691858, Control_c, 0, 64, 112
1, 691873, Control_c, 0, 64, 127
1, 691878, Note_off_c, 0, 60, 40
1, 691879, Note_on_c, 0, 64, 55
1, 691939, Note_off_c, 0, 44, 39
1, 692013, Note_on_c, 0, 60, 69
1, 692016, Note_on_c, 0, 56, 59
1, 692025, Note_on_c, 0, 43, 32
1, 692029, Note_on_c, 0, 31, 32
1, 692041, Note_off_c, 0, 64, 36
1, 692102, Note_off_c, 0, 32, 37
1, 692109, Note_off_c, 0, 63, 54
1, 692126, Note_off_c, 0, 43, 53
1, 692294, Note_on_c, 0, 32, 34
1, 692304, Note_on_c, 0, 44, 33
1, 692313, Note_on_c, 0, 63, 70
1, 692324, Note_on_c, 0, 55, 49
1, 692363, Control_c, 0, 64, 104
1, 692377, Control_c, 0, 64, 85
1, 692384, Note_off_c, 0, 56, 58
1, 692392, Control_c, 0, 64, 71
1, 692407, Control_c, 0, 64, 63
1, 692410, Note_off_c, 0, 31, 40
1, 692422, Control_c, 0, 64, 54
1, 692435, Note_off_c, 0, 60, 60
1, 692437, Control_c, 0, 64, 51
1, 692505, Note_off_c, 0, 44, 41
1, 692518, Control_c, 0, 64, 52
1, 692533, Control_c, 0, 64, 55
1, 692548, Control_c, 0, 64, 59
1, 692563, Control_c, 0, 64, 62
1, 692578, Control_c, 0, 64, 66
1, 692579, Note_on_c, 0, 31, 37
1, 692580, Note_on_c, 0, 43, 32
1, 692592, Note_on_c, 0, 58, 60
1, 692592, Control_c, 0, 64, 72
1, 692594, Note_off_c, 0, 32, 41
1, 692607, Control_c, 0, 64, 87
1, 692611, Note_off_c, 0, 55, 57
1, 692622, Control_c, 0, 64, 127
1, 692667, Note_off_c, 0, 43, 57
1, 692687, Note_off_c, 0, 58, 62
1, 692699, Note_off_c, 0, 63, 61
1, 692844, Note_on_c, 0, 32, 36
1, 692845, Note_on_c, 0, 44, 33
1, 692851, Note_on_c, 0, 65, 65
1, 692860, Control_c, 0, 64, 109
1, 692863, Note_on_c, 0, 62, 57
1, 692875, Control_c, 0, 64, 81
1, 692890, Control_c, 0, 64, 65
1, 692904, Control_c, 0, 64, 56
1, 692919, Control_c, 0, 64, 52
1, 692934, Control_c, 0, 64, 55
1, 692949, Control_c, 0, 64, 60
1, 692961, Note_off_c, 0, 31, 41
1, 692964, Control_c, 0, 64, 64
1, 692979, Control_c, 0, 64, 70
1, 692994, Control_c, 0, 64, 82
1, 693008, Control_c, 0, 64, 111
1, 693023, Control_c, 0, 64, 127
1, 693058, Note_off_c, 0, 44, 39
1, 693114, Note_on_c, 0, 67, 76
1, 693121, Note_on_c, 0, 59, 64
1, 693128, Note_on_c, 0, 31, 42
1, 693129, Note_on_c, 0, 43, 40
1, 693134, Note_off_c, 0, 62, 63
1, 693155, Note_off_c, 0, 32, 40
1, 693173, Note_off_c, 0, 65, 62
1, 693231, Note_off_c, 0, 43, 57
1, 693370, Control_c, 0, 64, 110
1, 693375, Note_off_c, 0, 59, 59
1, 693385, Control_c, 0, 64, 90
1, 693387, Note_on_c, 0, 68, 73
1, 693390, Note_on_c, 0, 44, 38
1, 693394, Note_on_c, 0, 60, 58
1, 693400, Control_c, 0, 64, 77
1, 693403, Note_on_c, 0, 32, 34
1, 693414, Control_c, 0, 64, 67
1, 693429, Control_c, 0, 64, 60
1, 693444, Control_c, 0, 64, 52
1, 693454, Note_off_c, 0, 67, 60
1, 693459, Control_c, 0, 64, 50
1, 693477, Note_off_c, 0, 31, 38
1, 693489, Control_c, 0, 64, 51
1, 693504, Control_c, 0, 64, 54
1, 693516, Note_off_c, 0, 60, 60
1, 693519, Control_c, 0, 64, 60
1, 693534, Control_c, 0, 64, 65
1, 693549, Control_c, 0, 64, 73
1, 693563, Control_c, 0, 64, 86
1, 693578, Control_c, 0, 64, 120
1, 693593, Control_c, 0, 64, 127
1, 693652, Note_off_c, 0, 44, 61
1, 693661, Note_on_c, 0, 56, 51
1, 693664, Note_on_c, 0, 60, 64
1, 693682, Note_on_c, 0, 31, 29
1, 693697, Control_c, 0, 64, 89
1, 693712, Control_c, 0, 64, 72
1, 693727, Control_c, 0, 64, 63
1, 693733, Note_off_c, 0, 32, 26
1, 693742, Control_c, 0, 64, 60
1, 693756, Control_c, 0, 64, 61
1, 693769, Poly_aftertouch_c, 0, 43, 127
1, 693771, Control_c, 0, 64, 62
1, 693786, Control_c, 0, 64, 64
1, 693801, Control_c, 0, 64, 69
1, 693816, Control_c, 0, 64, 79
1, 693830, Control_c, 0, 64, 94
1, 693839, Poly_aftertouch_c, 0, 43, 0
1, 693845, Control_c, 0, 64, 127
1, 693847, Note_off_c, 0, 56, 59
1, 693876, Note_off_c, 0, 68, 45
1, 693948, Control_c, 0, 64, 104
1, 693957, Note_on_c, 0, 63, 56
1, 693963, Control_c, 0, 64, 89
1, 693978, Note_on_c, 0, 55, 42
1, 693986, Control_c, 0, 64, 77
1, 693990, Note_on_c, 0, 32, 29
1, 694001, Control_c, 0, 64, 69
1, 694003, Note_off_c, 0, 60, 53
1, 694016, Control_c, 0, 64, 63
1, 694030, Control_c, 0, 64, 60
1, 694031, Note_on_c, 0, 44, 9
1, 694045, Control_c, 0, 64, 58
1, 694060, Control_c, 0, 64, 57
1, 694075, Control_c, 0, 64, 55
1, 694090, Control_c, 0, 64, 54
1, 694095, Note_off_c, 0, 31, 37
1, 694104, Control_c, 0, 64, 53
1, 694149, Control_c, 0, 64, 54
1, 694163, Control_c, 0, 64, 56
1, 694164, Note_off_c, 0, 44, 41
1, 694178, Control_c, 0, 64, 59
1, 694193, Control_c, 0, 64, 62
1, 694208, Control_c, 0, 64, 65
1, 694223, Control_c, 0, 64, 68
1, 694237, Control_c, 0, 64, 73
1, 694245, Note_on_c, 0, 58, 50
1, 694252, Control_c, 0, 64, 79
1, 694254, Note_off_c, 0, 55, 36
1, 694255, Note_on_c, 0, 31, 41
1, 694255, Note_on_c, 0, 43, 28
1, 694261, Note_off_c, 0, 32, 40
1, 694267, Control_c, 0, 64, 88
1, 694282, Control_c, 0, 64, 110
1, 694297, Control_c, 0, 64, 127
1, 694335, Note_off_c, 0, 58, 62
1, 694342, Note_off_c, 0, 63, 63
1, 694393, Note_off_c, 0, 43, 35
1, 694523, Note_on_c, 0, 65, 60
1, 694523, Note_on_c, 0, 44, 40
1, 694529, Note_on_c, 0, 32, 37
1, 694529, Note_on_c, 0, 62, 58
1, 694535, Control_c, 0, 64, 102
1, 694550, Control_c, 0, 64, 82
1, 694565, Control_c, 0, 64, 67
1, 694579, Control_c, 0, 64, 61
1, 694594, Control_c, 0, 64, 58
1, 694609, Control_c, 0, 64, 61
1, 694621, Note_off_c, 0, 31, 38
1, 694624, Control_c, 0, 64, 65
1, 694639, Control_c, 0, 64, 70
1, 694653, Control_c, 0, 64, 84
1, 694668, Control_c, 0, 64, 117
1, 694683, Control_c, 0, 64, 127
1, 694707, Note_off_c, 0, 44, 39
1, 694791, Note_on_c, 0, 67, 77
1, 694800, Note_on_c, 0, 31, 49
1, 694800, Note_on_c, 0, 59, 62
1, 694803, Note_off_c, 0, 32, 41
1, 694804, Note_on_c, 0, 43, 47
1, 694824, Control_c, 0, 64, 102
1, 694839, Control_c, 0, 64, 78
1, 694843, Note_off_c, 0, 62, 56
1, 694853, Control_c, 0, 64, 65
1, 694858, Note_off_c, 0, 65, 60
1, 694868, Control_c, 0, 64, 60
1, 694883, Control_c, 0, 64, 62
1, 694898, Control_c, 0, 64, 65
1, 694912, Control_c, 0, 64, 70
1, 694927, Control_c, 0, 64, 79
1, 694931, Note_off_c, 0, 43, 62
1, 694936, Note_off_c, 0, 59, 59
1, 694942, Control_c, 0, 64, 107
1, 694957, Control_c, 0, 64, 127
1, 695052, Note_on_c, 0, 32, 49
1, 695060, Control_c, 0, 64, 100
1, 695062, Note_on_c, 0, 68, 80
1, 695068, Note_on_c, 0, 44, 48
1, 695073, Note_on_c, 0, 60, 65
1, 695075, Control_c, 0, 64, 77
1, 695090, Control_c, 0, 64, 64
1, 695104, Control_c, 0, 64, 53
1, 695105, Note_off_c, 0, 31, 41
1, 695110, Note_off_c, 0, 67, 60
1, 695119, Control_c, 0, 64, 45
1, 695136, Control_c, 0, 64, 46
1, 695150, Control_c, 0, 64, 53
1, 695165, Control_c, 0, 64, 60
1, 695180, Control_c, 0, 64, 66
1, 695184, Note_off_c, 0, 60, 58
1, 695195, Control_c, 0, 64, 72
1, 695209, Note_off_c, 0, 44, 63
1, 695209, Control_c, 0, 64, 86
1, 695224, Control_c, 0, 64, 109
1, 695239, Control_c, 0, 64, 127
1, 695272, Note_off_c, 0, 32, 36
1, 695324, Note_on_c, 0, 70, 76
1, 695342, Note_on_c, 0, 62, 54
1, 695344, Control_c, 0, 64, 96
1, 695345, Note_on_c, 0, 34, 45
1, 695346, Note_on_c, 0, 46, 45
1, 695358, Control_c, 0, 64, 78
1, 695373, Control_c, 0, 64, 66
1, 695388, Control_c, 0, 64, 59
1, 695397, Note_off_c, 0, 68, 59
1, 695402, Control_c, 0, 64, 55
1, 695432, Control_c, 0, 64, 57
1, 695447, Control_c, 0, 64, 62
1, 695462, Control_c, 0, 64, 67
1, 695484, Control_c, 0, 64, 75
1, 695499, Control_c, 0, 64, 93
1, 695509, Note_off_c, 0, 34, 42
1, 695514, Note_off_c, 0, 46, 42
1, 695514, Control_c, 0, 64, 127
1, 695685, Note_on_c, 0, 48, 30
1, 695692, Note_on_c, 0, 72, 62
1, 695706, Note_on_c, 0, 36, 34
1, 695707, Control_c, 0, 64, 102
1, 695710, Note_on_c, 0, 63, 34
1, 695721, Control_c, 0, 64, 89
1, 695736, Control_c, 0, 64, 80
1, 695751, Control_c, 0, 64, 73
1, 695766, Control_c, 0, 64, 67
1, 695781, Control_c, 0, 64, 62
1, 695786, Note_off_c, 0, 62, 38
1, 695793, Note_off_c, 0, 70, 54
1, 695796, Control_c, 0, 64, 56
1, 695810, Control_c, 0, 64, 50
1, 695825, Control_c, 0, 64, 42
1, 695840, Control_c, 0, 64, 27
1, 695855, Control_c, 0, 64, 0
1, 695975, Note_on_c, 0, 60, 48
1, 695989, Control_c, 0, 64, 53
1, 696004, Control_c, 0, 64, 64
1, 696019, Control_c, 0, 64, 69
1, 696033, Control_c, 0, 64, 81
1, 696038, Note_off_c, 0, 63, 40
1, 696048, Control_c, 0, 64, 127
1, 696154, Note_off_c, 0, 72, 15
1, 696252, Note_on_c, 0, 68, 56
1, 696265, Note_on_c, 0, 62, 40
1, 696274, Note_on_c, 0, 41, 20
1, 696278, Control_c, 0, 64, 92
1, 696293, Control_c, 0, 64, 78
1, 696307, Control_c, 0, 64, 68
1, 696322, Control_c, 0, 64, 63
1, 696331, Note_off_c, 0, 60, 36
1, 696333, Note_off_c, 0, 36, 40
1, 696337, Control_c, 0, 64, 61
1, 696381, Control_c, 0, 64, 61
1, 696396, Control_c, 0, 64, 63
1, 696411, Control_c, 0, 64, 65
1, 696426, Control_c, 0, 64, 70
1, 696440, Control_c, 0, 64, 76
1, 696455, Control_c, 0, 64, 88
1, 696470, Control_c, 0, 64, 110
1, 696485, Control_c, 0, 64, 127
1, 696486, Note_off_c, 0, 41, 41
1, 696513, Note_off_c, 0, 68, 53
1, 696547, Note_on_c, 0, 60, 44
1, 696567, Note_off_c, 0, 48, 40
1, 696839, Note_on_c, 0, 48, 29
1, 696860, Note_on_c, 0, 39, 28
1, 696869, Note_on_c, 0, 67, 42
1, 696884, Note_off_c, 0, 62, 30
1, 696890, Note_on_c, 0, 63, 23
1, 696916, Control_c, 0, 64, 120
1, 696930, Control_c, 0, 64, 109
1, 696945, Control_c, 0, 64, 101
1, 696960, Control_c, 0, 64, 92
1, 696981, Note_off_c, 0, 60, 35
1, 696982, Control_c, 0, 64, 83
1, 696997, Control_c, 0, 64, 73
1, 697012, Control_c, 0, 64, 67
1, 697027, Control_c, 0, 64, 63
1, 697042, Control_c, 0, 64, 60
1, 697056, Control_c, 0, 64, 60
1, 697138, Note_off_c, 0, 63, 35
1, 697145, Control_c, 0, 64, 61
1, 697150, Note_on_c, 0, 60, 32
1, 697160, Control_c, 0, 64, 62
1, 697172, Note_on_c, 0, 51, 36
1, 697175, Control_c, 0, 64, 63
1, 697189, Control_c, 0, 64, 65
1, 697204, Control_c, 0, 64, 67
1, 697219, Control_c, 0, 64, 71
1, 697234, Control_c, 0, 64, 77
1, 697249, Control_c, 0, 64, 85
1, 697263, Control_c, 0, 64, 105
1, 697278, Control_c, 0, 64, 127
1, 697321, Note_off_c, 0, 39, 42
1, 697328, Note_off_c, 0, 67, 40
1, 697415, Note_on_c, 0, 55, 38
1, 697423, Note_off_c, 0, 51, 38
1, 697424, Note_on_c, 0, 63, 48
1, 697426, Note_off_c, 0, 48, 35
1, 697434, Note_off_c, 0, 60, 44
1, 697471, Note_off_c, 0, 55, 62
1, 697537, Note_off_c, 0, 63, 59
1, 697704, Note_on_c, 0, 67, 66
1, 697708, Control_c, 0, 64, 122
1, 697726, Note_on_c, 0, 51, 38
1, 697731, Control_c, 0, 64, 108
1, 697745, Control_c, 0, 64, 100
1, 697760, Control_c, 0, 64, 93
1, 697775, Control_c, 0, 64, 88
1, 697790, Control_c, 0, 64, 83
1, 697804, Control_c, 0, 64, 78
1, 697819, Control_c, 0, 64, 74
1, 697834, Control_c, 0, 64, 69
1, 697849, Control_c, 0, 64, 65
1, 697864, Control_c, 0, 64, 61
1, 697878, Control_c, 0, 64, 58
1, 697893, Control_c, 0, 64, 57
1, 697908, Control_c, 0, 64, 57
1, 697922, Control_c, 0, 64, 56
1, 697937, Control_c, 0, 64, 56
1, 697952, Control_c, 0, 64, 55
1, 697982, Control_c, 0, 64, 55
1, 698008, Note_on_c, 0, 41, 31
1, 698020, Note_on_c, 0, 68, 64
1, 698071, Control_c, 0, 64, 55
1, 698085, Control_c, 0, 64, 56
1, 698100, Control_c, 0, 64, 56
1, 698115, Control_c, 0, 64, 57
1, 698130, Control_c, 0, 64, 59
1, 698145, Control_c, 0, 64, 61
1, 698160, Control_c, 0, 64, 62
1, 698175, Control_c, 0, 64, 64
1, 698190, Control_c, 0, 64, 67
1, 698204, Control_c, 0, 64, 70
1, 698219, Control_c, 0, 64, 76
1, 698234, Control_c, 0, 64, 84
1, 698249, Control_c, 0, 64, 104
1, 698264, Control_c, 0, 64, 127
1, 698288, Note_on_c, 0, 70, 79
1, 698290, Note_on_c, 0, 43, 47
1, 698327, Note_off_c, 0, 41, 41
1, 698371, Note_off_c, 0, 68, 61
1, 698391, Note_off_c, 0, 43, 57
1, 698403, Note_off_c, 0, 67, 62
1, 698441, Note_off_c, 0, 51, 56
1, 698577, Note_on_c, 0, 51, 62
1, 698585, Note_on_c, 0, 68, 61
1, 698589, Note_on_c, 0, 72, 76
1, 698592, Note_on_c, 0, 44, 38
1, 698613, Control_c, 0, 64, 112
1, 698627, Control_c, 0, 64, 91
1, 698642, Control_c, 0, 64, 78
1, 698657, Control_c, 0, 64, 68
1, 698664, Note_off_c, 0, 70, 56
1, 698672, Control_c, 0, 64, 62
1, 698687, Control_c, 0, 64, 56
1, 698701, Control_c, 0, 64, 55
1, 698745, Control_c, 0, 64, 56
1, 698760, Control_c, 0, 64, 59
1, 698775, Control_c, 0, 64, 62
1, 698790, Control_c, 0, 64, 65
1, 698805, Control_c, 0, 64, 68
1, 698819, Control_c, 0, 64, 71
1, 698834, Control_c, 0, 64, 76
1, 698836, Note_on_c, 0, 75, 79
1, 698838, Note_on_c, 0, 48, 51
1, 698842, Note_on_c, 0, 57, 62
1, 698843, Note_on_c, 0, 63, 64
1, 698849, Control_c, 0, 64, 84
1, 698864, Control_c, 0, 64, 98
1, 698879, Control_c, 0, 64, 127
1, 698898, Note_off_c, 0, 44, 40
1, 698975, Note_off_c, 0, 63, 53
1, 698985, Note_off_c, 0, 57, 63
1, 699008, Note_off_c, 0, 75, 55
1, 699130, Note_on_c, 0, 74, 73
1, 699134, Note_on_c, 0, 56, 49
1, 699138, Note_on_c, 0, 47, 39
1, 699140, Note_on_c, 0, 65, 57
1, 699147, Control_c, 0, 64, 109
1, 699162, Control_c, 0, 64, 99
1, 699177, Control_c, 0, 64, 92
1, 699191, Control_c, 0, 64, 86
1, 699206, Control_c, 0, 64, 80
1, 699210, Note_off_c, 0, 51, 54
1, 699213, Note_off_c, 0, 68, 50
1, 699229, Control_c, 0, 64, 72
1, 699244, Control_c, 0, 64, 66
1, 699246, Note_off_c, 0, 72, 61
1, 699258, Control_c, 0, 64, 62
1, 699263, Note_off_c, 0, 48, 42
1, 699273, Control_c, 0, 64, 58
1, 699288, Control_c, 0, 64, 56
1, 699303, Control_c, 0, 64, 55
1, 699318, Control_c, 0, 64, 54
1, 699332, Control_c, 0, 64, 53
1, 699347, Control_c, 0, 64, 51
1, 699362, Control_c, 0, 64, 50
1, 699376, Control_c, 0, 64, 47
1, 699391, Control_c, 0, 64, 45
1, 699394, Note_on_c, 0, 66, 66
1, 699399, Note_on_c, 0, 54, 57
1, 699406, Note_off_c, 0, 56, 52
1, 699406, Control_c, 0, 64, 43
1, 699421, Control_c, 0, 64, 42
1, 699436, Control_c, 0, 64, 41
1, 699451, Control_c, 0, 64, 40
1, 699465, Control_c, 0, 64, 38
1, 699480, Control_c, 0, 64, 36
1, 699486, Note_off_c, 0, 65, 58
1, 699495, Control_c, 0, 64, 34
1, 699510, Control_c, 0, 64, 34
1, 699659, Note_on_c, 0, 52, 39
1, 699672, Note_on_c, 0, 73, 61
1, 699675, Note_on_c, 0, 46, 37
1, 699677, Note_on_c, 0, 67, 46
1, 699707, Note_off_c, 0, 47, 34
1, 699720, Note_off_c, 0, 54, 55
1, 699728, Note_off_c, 0, 66, 59
1, 699755, Note_off_c, 0, 74, 56
1, 699954, Note_off_c, 0, 46, 41
1, 699978, Note_on_c, 0, 68, 38
1, 699979, Note_on_c, 0, 44, 31
1, 699981, Note_on_c, 0, 72, 48
1, 699987, Note_on_c, 0, 51, 19
1, 700026, Note_off_c, 0, 52, 32
1, 700030, Note_off_c, 0, 67, 30
1, 700037, Control_c, 0, 64, 34
1, 700041, Note_off_c, 0, 73, 52
1, 700052, Control_c, 0, 64, 35
1, 700067, Control_c, 0, 64, 36
1, 700081, Control_c, 0, 64, 39
1, 700096, Control_c, 0, 64, 43
1, 700111, Control_c, 0, 64, 49
1, 700126, Control_c, 0, 64, 55
1, 700141, Control_c, 0, 64, 59
1, 700155, Control_c, 0, 64, 62
1, 700170, Control_c, 0, 64, 64
1, 700177, Note_off_c, 0, 44, 56
1, 700184, Note_off_c, 0, 72, 55
1, 700185, Control_c, 0, 64, 66
1, 700199, Control_c, 0, 64, 72
1, 700214, Control_c, 0, 64, 83
1, 700229, Control_c, 0, 64, 106
1, 700244, Control_c, 0, 64, 127
1, 700277, Note_off_c, 0, 51, 40
1, 700345, Note_on_c, 0, 45, 29
1, 700378, Control_c, 0, 64, 112
1, 700392, Control_c, 0, 64, 95
1, 700407, Control_c, 0, 64, 83
1, 700415, Note_on_c, 0, 72, 46
1, 700422, Control_c, 0, 64, 72
1, 700425, Note_on_c, 0, 69, 31
1, 700437, Control_c, 0, 64, 64
1, 700452, Control_c, 0, 64, 57
1, 700466, Control_c, 0, 64, 51
1, 700479, Note_off_c, 0, 68, 49
1, 700481, Control_c, 0, 64, 50
1, 700496, Control_c, 0, 64, 51
1, 700511, Control_c, 0, 64, 55
1, 700526, Control_c, 0, 64, 63
1, 700540, Control_c, 0, 64, 69
1, 700555, Control_c, 0, 64, 79
1, 700570, Control_c, 0, 64, 110
1, 700573, Note_on_c, 0, 52, 39
1, 700585, Control_c, 0, 64, 127
1, 700608, Note_off_c, 0, 45, 41
1, 700706, Note_off_c, 0, 52, 33
1, 700727, Note_on_c, 0, 60, 35
1, 700783, Note_off_c, 0, 60, 56
1, 700803, Note_on_c, 0, 64, 35
1, 700905, Note_off_c, 0, 64, 49
1, 700923, Note_off_c, 0, 72, 33
1, 701104, Note_on_c, 0, 40, 33
1, 701141, Control_c, 0, 64, 104
1, 701147, Note_on_c, 0, 68, 42
1, 701149, Note_on_c, 0, 72, 55
1, 701156, Control_c, 0, 64, 74
1, 701158, Note_on_c, 0, 62, 36
1, 701171, Control_c, 0, 64, 58
1, 701185, Control_c, 0, 64, 56
1, 701200, Control_c, 0, 64, 61
1, 701215, Control_c, 0, 64, 67
1, 701230, Control_c, 0, 64, 81
1, 701241, Note_off_c, 0, 62, 58
1, 701242, Note_off_c, 0, 69, 40
1, 701245, Control_c, 0, 64, 127
1, 701254, Note_off_c, 0, 40, 36
1, 701257, Note_on_c, 0, 48, 42
1, 701293, Note_off_c, 0, 48, 62
1, 701406, Note_on_c, 0, 60, 5
1, 701443, Note_on_c, 0, 61, 58
1, 701455, Note_off_c, 0, 60, 35
1, 701522, Note_off_c, 0, 72, 30
1, 701524, Note_off_c, 0, 68, 40
1, 701671, Note_on_c, 0, 41, 49
1, 701692, Note_off_c, 0, 61, 57
1, 701697, Control_c, 0, 64, 97
1, 701712, Control_c, 0, 64, 62
1, 701713, Note_on_c, 0, 72, 71
1, 701726, Control_c, 0, 64, 0
1, 701737, Note_on_c, 0, 68, 49
1, 701753, Note_off_c, 0, 41, 57
1, 701800, Control_c, 0, 64, 50
1, 701804, Note_on_c, 0, 50, 27
1, 701815, Control_c, 0, 64, 84
1, 701830, Control_c, 0, 64, 127
1, 701848, Note_off_c, 0, 50, 29
1, 701868, Note_on_c, 0, 49, 26
1, 701881, Note_on_c, 0, 60, 62
1, 701914, Note_off_c, 0, 60, 66
1, 701916, Note_off_c, 0, 49, 51
1, 701954, Note_on_c, 0, 70, 80
1, 701959, Note_on_c, 0, 67, 64
1, 701959, Note_off_c, 0, 72, 60
1, 701993, Note_on_c, 0, 43, 59
1, 702020, Note_off_c, 0, 68, 60
1, 702192, Note_off_c, 0, 67, 62
1, 702229, Note_on_c, 0, 68, 67
1, 702232, Note_on_c, 0, 44, 58
1, 702233, Note_on_c, 0, 51, 65
1, 702239, Note_on_c, 0, 72, 81
1, 702252, Control_c, 0, 64, 100
1, 702267, Control_c, 0, 64, 80
1, 702282, Control_c, 0, 64, 66
1, 702291, Note_off_c, 0, 70, 62
1, 702291, Note_off_c, 0, 43, 58
1, 702297, Control_c, 0, 64, 52
1, 702312, Control_c, 0, 64, 38
1, 702327, Control_c, 0, 64, 36
1, 702372, Control_c, 0, 64, 36
1, 702387, Control_c, 0, 64, 39
1, 702401, Control_c, 0, 64, 44
1, 702416, Control_c, 0, 64, 52
1, 702431, Control_c, 0, 64, 58
1, 702446, Control_c, 0, 64, 62
1, 702461, Control_c, 0, 64, 65
1, 702475, Control_c, 0, 64, 72
1, 702490, Control_c, 0, 64, 84
1, 702500, Note_on_c, 0, 48, 61
1, 702505, Control_c, 0, 64, 119
1, 702506, Note_on_c, 0, 57, 64
1, 702506, Note_on_c, 0, 63, 65
1, 702510, Note_on_c, 0, 75, 85
1, 702520, Control_c, 0, 64, 127
1, 702555, Note_off_c, 0, 44, 36
1, 702643, Note_off_c, 0, 63, 59
1, 702651, Note_off_c, 0, 57, 63
1, 702694, Note_off_c, 0, 75, 61
1, 702785, Note_on_c, 0, 56, 59
1, 702787, Note_on_c, 0, 47, 46
1, 702789, Note_on_c, 0, 65, 65
1, 702805, Note_on_c, 0, 74, 76
1, 702816, Control_c, 0, 64, 116
1, 702831, Control_c, 0, 64, 102
1, 702846, Control_c, 0, 64, 96
1, 702861, Control_c, 0, 64, 92
1, 702864, Note_off_c, 0, 51, 46
1, 702875, Control_c, 0, 64, 88
1, 702888, Note_off_c, 0, 68, 59
1, 702890, Control_c, 0, 64, 82
1, 702899, Note_off_c, 0, 48, 36
1, 702905, Control_c, 0, 64, 77
1, 702920, Control_c, 0, 64, 73
1, 702922, Note_off_c, 0, 72, 60
1, 702935, Control_c, 0, 64, 70
1, 702949, Control_c, 0, 64, 67
1, 702971, Control_c, 0, 64, 64
1, 702986, Control_c, 0, 64, 60
1, 703001, Control_c, 0, 64, 57
1, 703016, Control_c, 0, 64, 54
1, 703031, Control_c, 0, 64, 52
1, 703046, Control_c, 0, 64, 51
1, 703053, Note_on_c, 0, 54, 58
1, 703053, Note_off_c, 0, 56, 60
1, 703060, Control_c, 0, 64, 50
1, 703066, Note_on_c, 0, 66, 76
1, 703075, Control_c, 0, 64, 48
1, 703090, Control_c, 0, 64, 46
1, 703105, Control_c, 0, 64, 45
1, 703120, Control_c, 0, 64, 44
1, 703135, Control_c, 0, 64, 44
1, 703150, Control_c, 0, 64, 43
1, 703165, Control_c, 0, 64, 42
1, 703180, Control_c, 0, 64, 41
1, 703182, Note_off_c, 0, 65, 59
1, 703195, Control_c, 0, 64, 40
1, 703209, Control_c, 0, 64, 39
1, 703224, Control_c, 0, 64, 39
1, 703239, Control_c, 0, 64, 38
1, 703254, Control_c, 0, 64, 37
1, 703269, Control_c, 0, 64, 37
1, 703284, Control_c, 0, 64, 36
1, 703332, Note_on_c, 0, 52, 35
1, 703343, Note_on_c, 0, 46, 40
1, 703347, Note_on_c, 0, 67, 55
1, 703349, Note_on_c, 0, 73, 58
1, 703379, Note_off_c, 0, 47, 47
1, 703406, Note_off_c, 0, 54, 53
1, 703432, Note_off_c, 0, 74, 58
1, 703433, Note_off_c, 0, 66, 60
1, 703633, Note_on_c, 0, 44, 36
1, 703639, Note_on_c, 0, 51, 29
1, 703649, Note_on_c, 0, 68, 44
1, 703652, Note_on_c, 0, 72, 46
1, 703657, Note_off_c, 0, 52, 41
1, 703691, Note_off_c, 0, 46, 41
1, 703697, Control_c, 0, 64, 37
1, 703700, Note_off_c, 0, 73, 55
1, 703718, Note_off_c, 0, 67, 57
1, 703734, Control_c, 0, 64, 38
1, 703749, Control_c, 0, 64, 38
1, 703764, Control_c, 0, 64, 40
1, 703779, Control_c, 0, 64, 43
1, 703794, Control_c, 0, 64, 48
1, 703809, Control_c, 0, 64, 53
1, 703823, Control_c, 0, 64, 58
1, 703829, Note_off_c, 0, 44, 56
1, 703838, Control_c, 0, 64, 62
1, 703853, Control_c, 0, 64, 65
1, 703866, Note_off_c, 0, 72, 49
1, 703868, Control_c, 0, 64, 69
1, 703883, Control_c, 0, 64, 80
1, 703897, Control_c, 0, 64, 101
1, 703912, Note_off_c, 0, 51, 41
1, 703913, Control_c, 0, 64, 127
1, 704031, Note_on_c, 0, 45, 8
1, 704086, Note_on_c, 0, 72, 44
1, 704091, Control_c, 0, 64, 108
1, 704094, Note_on_c, 0, 69, 34
1, 704106, Control_c, 0, 64, 86
1, 704120, Control_c, 0, 64, 72
1, 704135, Control_c, 0, 64, 62
1, 704150, Control_c, 0, 64, 44
1, 704165, Control_c, 0, 64, 40
1, 704167, Note_off_c, 0, 68, 36
1, 704180, Control_c, 0, 64, 47
1, 704194, Control_c, 0, 64, 59
1, 704209, Control_c, 0, 64, 66
1, 704224, Control_c, 0, 64, 75
1, 704226, Note_on_c, 0, 52, 34
1, 704233, Note_off_c, 0, 45, 55
1, 704238, Control_c, 0, 64, 105
1, 704253, Control_c, 0, 64, 127
1, 704293, Note_off_c, 0, 52, 50
1, 704354, Note_on_c, 0, 60, 46
1, 704400, Note_off_c, 0, 60, 58
1, 704440, Note_on_c, 0, 64, 41
1, 704540, Note_off_c, 0, 72, 34
1, 704551, Note_off_c, 0, 64, 49
1, 704757, Note_on_c, 0, 40, 34
1, 704767, Note_on_c, 0, 72, 61
1, 704780, Note_on_c, 0, 62, 46
1, 704780, Control_c, 0, 64, 92
1, 704783, Note_on_c, 0, 68, 43
1, 704795, Control_c, 0, 64, 72
1, 704810, Control_c, 0, 64, 58
1, 704825, Control_c, 0, 64, 54
1, 704840, Control_c, 0, 64, 60
1, 704855, Control_c, 0, 64, 67
1, 704856, Note_off_c, 0, 62, 60
1, 704858, Note_off_c, 0, 69, 42
1, 704869, Control_c, 0, 64, 82
1, 704875, Note_on_c, 0, 48, 45
1, 704881, Note_off_c, 0, 40, 49
1, 704884, Control_c, 0, 64, 127
1, 704918, Note_off_c, 0, 48, 61
1, 705013, Note_on_c, 0, 60, 41
1, 705057, Note_off_c, 0, 60, 63
1, 705060, Note_on_c, 0, 61, 62
1, 705079, Note_off_c, 0, 68, 50
1, 705127, Note_off_c, 0, 72, 37
1, 705300, Note_on_c, 0, 41, 46
1, 705340, Note_on_c, 0, 72, 72
1, 705346, Note_on_c, 0, 68, 54
1, 705350, Control_c, 0, 64, 98
1, 705365, Control_c, 0, 64, 75
1, 705380, Control_c, 0, 64, 63
1, 705394, Note_off_c, 0, 41, 61
1, 705394, Control_c, 0, 64, 54
1, 705409, Control_c, 0, 64, 58
1, 705414, Note_on_c, 0, 49, 49
1, 705424, Control_c, 0, 64, 64
1, 705439, Control_c, 0, 64, 72
1, 705454, Control_c, 0, 64, 92
1, 705469, Control_c, 0, 64, 127
1, 705520, Note_on_c, 0, 60, 60
1, 705550, Note_off_c, 0, 60, 66
1, 705552, Note_off_c, 0, 49, 35
1, 705595, Note_on_c, 0, 65, 79
1, 705606, Note_off_c, 0, 72, 56
1, 705623, Note_off_c, 0, 61, 28
1, 705642, Note_off_c, 0, 68, 63
1, 705726, Note_off_c, 0, 65, 61
1, 705882, Note_on_c, 0, 53, 62
1, 705889, Note_on_c, 0, 44, 48
1, 705896, Note_on_c, 0, 61, 68
1, 705899, Note_on_c, 0, 65, 74
1, 705900, Control_c, 0, 64, 94
1, 705915, Control_c, 0, 64, 78
1, 705930, Control_c, 0, 64, 68
1, 705945, Control_c, 0, 64, 60
1, 705967, Control_c, 0, 64, 52
1, 705982, Control_c, 0, 64, 51
1, 705997, Control_c, 0, 64, 55
1, 706011, Control_c, 0, 64, 61
1, 706026, Control_c, 0, 64, 67
1, 706035, Note_off_c, 0, 61, 62
1, 706041, Control_c, 0, 64, 74
1, 706046, Note_off_c, 0, 53, 64
1, 706056, Control_c, 0, 64, 91
1, 706071, Control_c, 0, 64, 127
1, 706086, Note_off_c, 0, 44, 63
1, 706181, Note_on_c, 0, 68, 78
1, 706186, Note_on_c, 0, 34, 56
1, 706187, Note_on_c, 0, 56, 66
1, 706271, Note_off_c, 0, 34, 59
1, 706315, Note_off_c, 0, 65, 60
1, 706472, Note_on_c, 0, 67, 66
1, 706476, Note_on_c, 0, 43, 43
1, 706478, Note_on_c, 0, 51, 47
1, 706483, Note_on_c, 0, 63, 57
1, 706486, Control_c, 0, 64, 104
1, 706501, Control_c, 0, 64, 86
1, 706515, Control_c, 0, 64, 74
1, 706530, Control_c, 0, 64, 64
1, 706545, Control_c, 0, 64, 53
1, 706551, Note_off_c, 0, 68, 61
1, 706560, Note_off_c, 0, 56, 49
1, 706560, Control_c, 0, 64, 43
1, 706576, Control_c, 0, 64, 41
1, 706605, Control_c, 0, 64, 46
1, 706620, Control_c, 0, 64, 56
1, 706623, Note_off_c, 0, 51, 61
1, 706635, Control_c, 0, 64, 63
1, 706643, Note_off_c, 0, 43, 56
1, 706649, Control_c, 0, 64, 67
1, 706664, Control_c, 0, 64, 76
1, 706679, Control_c, 0, 64, 96
1, 706694, Control_c, 0, 64, 127
1, 706770, Note_on_c, 0, 34, 43
1, 706787, Note_on_c, 0, 56, 55
1, 706829, Note_off_c, 0, 63, 55
1, 706939, Control_c, 0, 64, 116
1, 706953, Control_c, 0, 64, 110
1, 706968, Control_c, 0, 64, 109
1, 706983, Control_c, 0, 64, 108
1, 706998, Control_c, 0, 64, 103
1, 707013, Control_c, 0, 64, 96
1, 707028, Control_c, 0, 64, 92
1, 707042, Control_c, 0, 64, 90
1, 707049, Note_on_c, 0, 41, 33
1, 707057, Control_c, 0, 64, 89
1, 707060, Note_on_c, 0, 65, 55
1, 707062, Note_on_c, 0, 61, 44
1, 707067, Note_on_c, 0, 49, 32
1, 707072, Control_c, 0, 64, 86
1, 707087, Control_c, 0, 64, 82
1, 707102, Control_c, 0, 64, 78
1, 707117, Control_c, 0, 64, 74
1, 707132, Control_c, 0, 64, 71
1, 707144, Note_off_c, 0, 67, 49
1, 707147, Control_c, 0, 64, 68
1, 707162, Control_c, 0, 64, 64
1, 707168, Note_off_c, 0, 56, 36
1, 707177, Control_c, 0, 64, 60
1, 707192, Control_c, 0, 64, 56
1, 707200, Note_off_c, 0, 34, 44
1, 707206, Control_c, 0, 64, 53
1, 707221, Control_c, 0, 64, 52
1, 707280, Control_c, 0, 64, 52
1, 707287, Note_off_c, 0, 49, 41
1, 707295, Control_c, 0, 64, 55
1, 707310, Control_c, 0, 64, 58
1, 707325, Control_c, 0, 64, 61
1, 707335, Note_on_c, 0, 34, 38
1, 707339, Control_c, 0, 64, 63
1, 707346, Note_on_c, 0, 56, 38
1, 707354, Control_c, 0, 64, 65
1, 707369, Control_c, 0, 64, 68
1, 707384, Control_c, 0, 64, 73
1, 707399, Control_c, 0, 64, 81
1, 707413, Control_c, 0, 64, 101
1, 707428, Control_c, 0, 64, 127
1, 707648, Note_on_c, 0, 63, 60
1, 707652, Note_on_c, 0, 36, 42
1, 707669, Note_off_c, 0, 41, 39
1, 707672, Control_c, 0, 64, 122
1, 707687, Control_c, 0, 64, 101
1, 707702, Control_c, 0, 64, 88
1, 707717, Control_c, 0, 64, 80
1, 707721, Note_off_c, 0, 61, 51
1, 707732, Control_c, 0, 64, 73
1, 707734, Note_off_c, 0, 65, 23
1, 707737, Note_off_c, 0, 34, 41
1, 707746, Control_c, 0, 64, 67
1, 707761, Control_c, 0, 64, 61
1, 707776, Control_c, 0, 64, 56
1, 707791, Control_c, 0, 64, 53
1, 707818, Note_off_c, 0, 56, 54
1, 707836, Control_c, 0, 64, 54
1, 707851, Control_c, 0, 64, 55
1, 707865, Control_c, 0, 64, 58
1, 707880, Control_c, 0, 64, 62
1, 707895, Control_c, 0, 64, 65
1, 707910, Control_c, 0, 64, 68
1, 707925, Control_c, 0, 64, 73
1, 707940, Control_c, 0, 64, 81
1, 707943, Note_on_c, 0, 55, 52
1, 707946, Note_on_c, 0, 60, 66
1, 707955, Control_c, 0, 64, 98
1, 707970, Control_c, 0, 64, 127
1, 708046, Note_off_c, 0, 55, 60
1, 708056, Note_off_c, 0, 63, 57
1, 708247, Note_on_c, 0, 63, 55
1, 708247, Note_on_c, 0, 58, 46
1, 708251, Note_on_c, 0, 37, 42
1, 708258, Control_c, 0, 64, 101
1, 708259, Note_on_c, 0, 53, 50
1, 708273, Control_c, 0, 64, 90
1, 708287, Control_c, 0, 64, 80
1, 708302, Control_c, 0, 64, 71
1, 708317, Control_c, 0, 64, 64
1, 708332, Control_c, 0, 64, 57
1, 708336, Note_off_c, 0, 36, 42
1, 708347, Control_c, 0, 64, 51
1, 708350, Note_off_c, 0, 60, 50
1, 708361, Control_c, 0, 64, 51
1, 708367, Note_off_c, 0, 53, 59
1, 708405, Note_off_c, 0, 58, 63
1, 708420, Control_c, 0, 64, 52
1, 708435, Control_c, 0, 64, 55
1, 708450, Control_c, 0, 64, 58
1, 708465, Control_c, 0, 64, 61
1, 708480, Control_c, 0, 64, 64
1, 708495, Control_c, 0, 64, 67
1, 708510, Control_c, 0, 64, 72
1, 708524, Control_c, 0, 64, 79
1, 708533, Note_on_c, 0, 56, 47
1, 708538, Note_on_c, 0, 51, 46
1, 708539, Control_c, 0, 64, 93
1, 708554, Control_c, 0, 64, 119
1, 708569, Control_c, 0, 64, 127
1, 708593, Note_off_c, 0, 51, 54
1, 708598, Note_off_c, 0, 63, 54
1, 708763, Control_c, 0, 64, 125
1, 708777, Control_c, 0, 64, 105
1, 708792, Control_c, 0, 64, 97
1, 708807, Control_c, 0, 64, 89
1, 708812, Note_on_c, 0, 63, 47
1, 708822, Control_c, 0, 64, 83
1, 708825, Note_on_c, 0, 53, 41
1, 708834, Note_on_c, 0, 39, 32
1, 708835, Note_on_c, 0, 58, 40
1, 708836, Control_c, 0, 64, 76
1, 708851, Control_c, 0, 64, 70
1, 708866, Control_c, 0, 64, 65
1, 708881, Control_c, 0, 64, 59
1, 708896, Control_c, 0, 64, 53
1, 708906, Note_off_c, 0, 56, 35
1, 708910, Control_c, 0, 64, 53
1, 708942, Note_off_c, 0, 53, 37
1, 709029, Note_off_c, 0, 37, 40
1, 709081, Control_c, 0, 64, 53
1, 709096, Control_c, 0, 64, 54
1, 709110, Control_c, 0, 64, 55
1, 709125, Control_c, 0, 64, 58
1, 709127, Note_on_c, 0, 55, 38
1, 709140, Control_c, 0, 64, 61
1, 709155, Control_c, 0, 64, 64
1, 709164, Note_off_c, 0, 58, 51
1, 709170, Control_c, 0, 64, 66
1, 709184, Control_c, 0, 64, 70
1, 709199, Control_c, 0, 64, 76
1, 709214, Control_c, 0, 64, 84
1, 709229, Control_c, 0, 64, 96
1, 709243, Control_c, 0, 64, 120
1, 709252, Note_off_c, 0, 63, 28
1, 709258, Control_c, 0, 64, 127
1, 709511, Control_c, 0, 64, 119
1, 709520, Note_on_c, 0, 63, 47
1, 709523, Note_on_c, 0, 56, 30
1, 709523, Note_on_c, 0, 60, 42
1, 709526, Control_c, 0, 64, 114
1, 709541, Control_c, 0, 64, 110
1, 709556, Control_c, 0, 64, 103
1, 709571, Control_c, 0, 64, 95
1, 709586, Control_c, 0, 64, 89
1, 709601, Control_c, 0, 64, 85
1, 709615, Control_c, 0, 64, 81
1, 709630, Control_c, 0, 64, 78
1, 709645, Control_c, 0, 64, 73
1, 709659, Control_c, 0, 64, 69
1, 709674, Control_c, 0, 64, 64
1, 709689, Control_c, 0, 64, 61
1, 709711, Control_c, 0, 64, 58
1, 709726, Control_c, 0, 64, 57
1, 709756, Note_off_c, 0, 55, 37
1, 709831, Note_on_c, 0, 36, 39
1, 709845, Control_c, 0, 64, 57
1, 709874, Control_c, 0, 64, 58
1, 709889, Control_c, 0, 64, 58
1, 709900, Note_off_c, 0, 39, 38
1, 709904, Control_c, 0, 64, 59
1, 709919, Control_c, 0, 64, 59
1, 709933, Control_c, 0, 64, 60
1, 709948, Control_c, 0, 64, 60
1, 709963, Control_c, 0, 64, 61
1, 709978, Control_c, 0, 64, 61
1, 709993, Control_c, 0, 64, 62
1, 710007, Control_c, 0, 64, 62
1, 710022, Control_c, 0, 64, 63
1, 710037, Control_c, 0, 64, 64
1, 710052, Control_c, 0, 64, 64
1, 710066, Control_c, 0, 64, 65
1, 710081, Control_c, 0, 64, 66
1, 710096, Control_c, 0, 64, 68
1, 710107, Note_on_c, 0, 39, 45
1, 710111, Control_c, 0, 64, 69
1, 710126, Control_c, 0, 64, 71
1, 710140, Control_c, 0, 64, 73
1, 710155, Control_c, 0, 64, 75
1, 710170, Control_c, 0, 64, 79
1, 710185, Control_c, 0, 64, 84
1, 710200, Control_c, 0, 64, 93
1, 710215, Control_c, 0, 64, 104
1, 710230, Control_c, 0, 64, 127
1, 710272, Note_off_c, 0, 56, 40
1, 710379, Note_on_c, 0, 32, 54
1, 710392, Note_off_c, 0, 60, 41
1, 710520, Note_off_c, 0, 32, 59
1, 710650, Note_off_c, 0, 36, 16
1, 710706, Note_on_c, 0, 48, 53
1, 710712, Control_c, 0, 64, 119
1, 710727, Control_c, 0, 64, 108
1, 710742, Control_c, 0, 64, 99
1, 710757, Control_c, 0, 64, 90
1, 710772, Control_c, 0, 64, 82
1, 710787, Control_c, 0, 64, 76
1, 710802, Control_c, 0, 64, 71
1, 710817, Control_c, 0, 64, 66
1, 710831, Control_c, 0, 64, 62
1, 710846, Control_c, 0, 64, 59
1, 710861, Control_c, 0, 64, 57
1, 710865, Note_off_c, 0, 39, 39
1, 710961, Note_on_c, 0, 56, 62
1, 710964, Control_c, 0, 64, 58
1, 710975, Note_off_c, 0, 63, 59
1, 710979, Control_c, 0, 64, 60
1, 710994, Control_c, 0, 64, 62
1, 711008, Control_c, 0, 64, 65
1, 711023, Control_c, 0, 64, 67
1, 711038, Control_c, 0, 64, 71
1, 711053, Control_c, 0, 64, 75
1, 711068, Control_c, 0, 64, 80
1, 711082, Control_c, 0, 64, 87
1, 711097, Control_c, 0, 64, 95
1, 711113, Control_c, 0, 64, 106
1, 711128, Control_c, 0, 64, 122
1, 711143, Control_c, 0, 64, 127
1, 711265, Note_on_c, 0, 63, 60
1, 711299, Control_c, 0, 64, 116
1, 711313, Control_c, 0, 64, 112
1, 711328, Control_c, 0, 64, 109
1, 711343, Control_c, 0, 64, 107
1, 711358, Control_c, 0, 64, 102
1, 711373, Control_c, 0, 64, 98
1, 711387, Control_c, 0, 64, 93
1, 711402, Control_c, 0, 64, 91
1, 711417, Control_c, 0, 64, 90
1, 711431, Note_off_c, 0, 56, 37
1, 711431, Control_c, 0, 64, 89
1, 711446, Control_c, 0, 64, 86
1, 711461, Control_c, 0, 64, 82
1, 711476, Control_c, 0, 64, 79
1, 711491, Control_c, 0, 64, 78
1, 711505, Control_c, 0, 64, 77
1, 711520, Control_c, 0, 64, 76
1, 711535, Note_on_c, 0, 53, 40
1, 711535, Control_c, 0, 64, 74
1, 711539, Note_on_c, 0, 68, 61
1, 711550, Control_c, 0, 64, 73
1, 711565, Control_c, 0, 64, 72
1, 711580, Control_c, 0, 64, 71
1, 711595, Control_c, 0, 64, 70
1, 711610, Control_c, 0, 64, 69
1, 711624, Control_c, 0, 64, 68
1, 711639, Control_c, 0, 64, 67
1, 711654, Control_c, 0, 64, 67
1, 711669, Control_c, 0, 64, 66
1, 711684, Control_c, 0, 64, 65
1, 711698, Control_c, 0, 64, 64
1, 711728, Control_c, 0, 64, 64
1, 711772, Control_c, 0, 64, 63
1, 711787, Control_c, 0, 64, 63
1, 711802, Control_c, 0, 64, 62
1, 711830, Control_c, 0, 64, 62
1, 711845, Control_c, 0, 64, 61
1, 711863, Note_on_c, 0, 55, 35
1, 711875, Control_c, 0, 64, 61
1, 711887, Note_on_c, 0, 72, 53
1, 711890, Control_c, 0, 64, 60
1, 711921, Control_c, 0, 64, 60
1, 711935, Control_c, 0, 64, 59
1, 711958, Control_c, 0, 64, 59
1, 711984, Note_off_c, 0, 53, 39
1, 711988, Control_c, 0, 64, 58
1, 712005, Note_off_c, 0, 68, 36
1, 712017, Control_c, 0, 64, 58
1, 712047, Control_c, 0, 64, 57
1, 712106, Control_c, 0, 64, 57
1, 712165, Control_c, 0, 64, 56
1, 712233, Note_on_c, 0, 51, 33
1, 712239, Control_c, 0, 64, 56
1, 712313, Control_c, 0, 64, 55
1, 712376, Note_off_c, 0, 55, 39
1, 712432, Control_c, 0, 64, 55
1, 712550, Control_c, 0, 64, 54
1, 712684, Note_on_c, 0, 68, 36
1, 712758, Note_off_c, 0, 63, 22
1, 712880, Note_off_c, 0, 72, 43
1, 712988, Control_c, 0, 64, 55
1, 713003, Control_c, 0, 64, 57
1, 713018, Control_c, 0, 64, 59
1, 713032, Control_c, 0, 64, 61
1, 713047, Control_c, 0, 64, 63
1, 713062, Control_c, 0, 64, 64
1, 713076, Control_c, 0, 64, 66
1, 713091, Control_c, 0, 64, 68
1, 713106, Control_c, 0, 64, 71
1, 713121, Control_c, 0, 64, 75
1, 713136, Control_c, 0, 64, 81
1, 713151, Control_c, 0, 64, 87
1, 713166, Control_c, 0, 64, 93
1, 713181, Control_c, 0, 64, 94
1, 713218, Note_off_c, 0, 68, 33
1, 713225, Control_c, 0, 64, 94
1, 713240, Control_c, 0, 64, 93
1, 713255, Control_c, 0, 64, 92
1, 713270, Control_c, 0, 64, 90
1, 713284, Control_c, 0, 64, 89
1, 713288, Note_off_c, 0, 51, 36
1, 713299, Control_c, 0, 64, 87
1, 713306, Note_off_c, 0, 48, 38
1, 713313, Control_c, 0, 64, 86
1, 713328, Control_c, 0, 64, 84
1, 713343, Control_c, 0, 64, 82
1, 713387, Control_c, 0, 64, 82
1, 713402, Control_c, 0, 64, 81
1, 713417, Control_c, 0, 64, 80
1, 713431, Control_c, 0, 64, 80
1, 713469, Control_c, 0, 64, 79
1, 713483, Control_c, 0, 64, 78
1, 713499, Control_c, 0, 64, 77
1, 713514, Control_c, 0, 64, 77
1, 713529, Control_c, 0, 64, 76
1, 713544, Control_c, 0, 64, 75
1, 713559, Control_c, 0, 64, 74
1, 713588, Control_c, 0, 64, 73
1, 713603, Control_c, 0, 64, 72
1, 713618, Control_c, 0, 64, 71
1, 713633, Control_c, 0, 64, 70
1, 713647, Control_c, 0, 64, 69
1, 713662, Control_c, 0, 64, 68
1, 713677, Control_c, 0, 64, 67
1, 713692, Control_c, 0, 64, 65
1, 713706, Control_c, 0, 64, 64
1, 713721, Control_c, 0, 64, 62
1, 713736, Control_c, 0, 64, 60
1, 713751, Control_c, 0, 64, 57
1, 713766, Control_c, 0, 64, 53
1, 713780, Control_c, 0, 64, 50
1, 713795, Control_c, 0, 64, 47
1, 713810, Control_c, 0, 64, 45
1, 713825, Control_c, 0, 64, 44
1, 713840, Control_c, 0, 64, 43
1, 713854, Control_c, 0, 64, 42
1, 713887, Note_on_c, 0, 63, 40
1, 713893, Note_on_c, 0, 60, 35
1, 713914, Control_c, 0, 64, 43
1, 713929, Control_c, 0, 64, 46
1, 713944, Control_c, 0, 64, 49
1, 713959, Control_c, 0, 64, 53
1, 713973, Control_c, 0, 64, 57
1, 713988, Control_c, 0, 64, 61
1, 713988, Note_off_c, 0, 60, 54
1, 714003, Control_c, 0, 64, 63
1, 714018, Control_c, 0, 64, 67
1, 714033, Control_c, 0, 64, 73
1, 714047, Control_c, 0, 64, 92
1, 714062, Control_c, 0, 64, 127
1, 714153, Note_on_c, 0, 32, 25
1, 714157, Note_on_c, 0, 60, 47
1, 714158, Note_on_c, 0, 56, 41
1, 714159, Note_off_c, 0, 63, 54
1, 714208, Note_off_c, 0, 32, 50
1, 714473, Note_on_c, 0, 63, 49
1, 714478, Note_on_c, 0, 75, 49
1, 714483, Note_on_c, 0, 66, 33
1, 714488, Note_on_c, 0, 55, 39
1, 714491, Note_on_c, 0, 69, 49
1, 714539, Note_off_c, 0, 56, 36
1, 714729, Note_off_c, 0, 63, 54
1, 714736, Note_off_c, 0, 55, 56
1, 714737, Note_on_c, 0, 58, 44
1, 714740, Note_off_c, 0, 60, 39
1, 714759, Note_on_c, 0, 70, 47
1, 714762, Note_off_c, 0, 75, 57
1, 714769, Note_off_c, 0, 58, 65
1, 714826, Note_off_c, 0, 66, 39
1, 715005, Note_on_c, 0, 74, 36
1, 715025, Note_on_c, 0, 86, 55
1, 715031, Note_on_c, 0, 65, 35
1, 715039, Note_on_c, 0, 89, 56
1, 715103, Note_off_c, 0, 74, 56
1, 715130, Note_off_c, 0, 65, 54
1, 715282, Note_off_c, 0, 69, 41
1, 715288, Note_on_c, 0, 91, 73
1, 715293, Note_on_c, 0, 73, 47
1, 715294, Note_on_c, 0, 83, 66
1, 715297, Note_on_c, 0, 64, 44
1, 715324, Note_off_c, 0, 86, 64
1, 715344, Note_off_c, 0, 73, 59
1, 715344, Note_off_c, 0, 89, 63
1, 715497, Note_off_c, 0, 64, 40
1, 715511, Note_off_c, 0, 70, 57
1, 715558, Note_on_c, 0, 92, 69
1, 715560, Note_on_c, 0, 84, 54
1, 715560, Control_c, 0, 64, 84
1, 715564, Note_off_c, 0, 83, 56
1, 715566, Note_on_c, 0, 72, 47
1, 715571, Note_on_c, 0, 63, 34
1, 715575, Control_c, 0, 64, 63
1, 715590, Control_c, 0, 64, 31
1, 715601, Note_off_c, 0, 91, 59
1, 715605, Control_c, 0, 64, 30
1, 715619, Control_c, 0, 64, 53
1, 715634, Control_c, 0, 64, 66
1, 715640, Note_off_c, 0, 72, 65
1, 715649, Control_c, 0, 64, 95
1, 715653, Note_off_c, 0, 92, 65
1, 715664, Control_c, 0, 64, 127
1, 715675, Note_off_c, 0, 84, 65
1, 715687, Note_off_c, 0, 63, 63
1, 715843, Note_on_c, 0, 60, 67
1, 715852, Note_on_c, 0, 32, 51
1, 715859, Note_on_c, 0, 56, 57
1, 715937, Note_off_c, 0, 32, 50
1, 716083, Note_on_c, 0, 63, 75
1, 716091, Note_on_c, 0, 55, 61
1, 716099, Note_off_c, 0, 56, 59
1, 716180, Note_off_c, 0, 60, 61
1, 716331, Note_on_c, 0, 75, 69
1, 716336, Note_on_c, 0, 58, 68
1, 716336, Note_off_c, 0, 63, 59
1, 716337, Note_on_c, 0, 67, 60
1, 716342, Note_off_c, 0, 55, 62
1, 716367, Note_off_c, 0, 58, 65
1, 716463, Note_off_c, 0, 75, 51
1, 716615, Note_on_c, 0, 86, 66
1, 716615, Note_on_c, 0, 89, 72
1, 716618, Note_on_c, 0, 74, 47
1, 716641, Note_on_c, 0, 65, 47
1, 716643, Control_c, 0, 64, 93
1, 716657, Control_c, 0, 64, 72
1, 716672, Control_c, 0, 64, 60
1, 716687, Control_c, 0, 64, 43
1, 716703, Control_c, 0, 64, 40
1, 716718, Control_c, 0, 64, 42
1, 716732, Control_c, 0, 64, 54
1, 716747, Control_c, 0, 64, 64
1, 716751, Note_off_c, 0, 74, 60
1, 716762, Control_c, 0, 64, 72
1, 716777, Control_c, 0, 64, 94
1, 716792, Control_c, 0, 64, 127
1, 716865, Note_on_c, 0, 91, 82
1, 716871, Note_on_c, 0, 83, 62
1, 716883, Note_on_c, 0, 73, 49
1, 716884, Note_on_c, 0, 64, 50
1, 716903, Note_off_c, 0, 65, 51
1, 716950, Note_off_c, 0, 67, 60
1, 716954, Note_off_c, 0, 83, 63
1, 716958, Note_off_c, 0, 89, 62
1, 716960, Note_off_c, 0, 73, 61
1, 717181, Note_on_c, 0, 72, 44
1, 717184, Note_on_c, 0, 63, 36
1, 717220, Note_on_c, 0, 80, 67
1, 717229, Control_c, 0, 64, 125
1, 717244, Control_c, 0, 64, 93
1, 717258, Control_c, 0, 64, 81
1, 717273, Control_c, 0, 64, 72
1, 717288, Control_c, 0, 64, 66
1, 717293, Note_off_c, 0, 86, 36
1, 717303, Control_c, 0, 64, 61
1, 717308, Note_off_c, 0, 64, 20
1, 717317, Control_c, 0, 64, 57
1, 717324, Note_off_c, 0, 91, 54
1, 717332, Control_c, 0, 64, 56
1, 717347, Control_c, 0, 64, 57
1, 717356, Note_off_c, 0, 72, 57
1, 717362, Control_c, 0, 64, 60
1, 717377, Control_c, 0, 64, 64
1, 717391, Control_c, 0, 64, 69
1, 717406, Control_c, 0, 64, 80
1, 717421, Control_c, 0, 64, 114
1, 717436, Control_c, 0, 64, 127
1, 717487, Note_on_c, 0, 71, 49
1, 717488, Note_on_c, 0, 82, 83
1, 717509, Note_on_c, 0, 62, 47
1, 717554, Note_off_c, 0, 71, 57
1, 717573, Note_off_c, 0, 62, 53
1, 717589, Note_off_c, 0, 63, 56
1, 717599, Note_off_c, 0, 80, 59
1, 717750, Note_on_c, 0, 67, 48
1, 717750, Note_on_c, 0, 84, 79
1, 717752, Note_on_c, 0, 59, 49
1, 717792, Control_c, 0, 64, 107
1, 717807, Control_c, 0, 64, 85
1, 717822, Control_c, 0, 64, 71
1, 717823, Note_off_c, 0, 82, 63
1, 717837, Control_c, 0, 64, 60
1, 717852, Control_c, 0, 64, 43
1, 717867, Control_c, 0, 64, 18
1, 717881, Control_c, 0, 64, 13
1, 717911, Control_c, 0, 64, 29
1, 717926, Control_c, 0, 64, 52
1, 717947, Control_c, 0, 64, 67
1, 717962, Note_off_c, 0, 84, 64
1, 717962, Control_c, 0, 64, 83
1, 717977, Control_c, 0, 64, 127
1, 718022, Note_on_c, 0, 68, 70
1, 718025, Note_on_c, 0, 60, 59
1, 718042, Note_off_c, 0, 67, 61
1, 718054, Note_off_c, 0, 59, 60
1, 718071, Note_off_c, 0, 68, 63
1, 718117, Note_off_c, 0, 60, 64
1, 718306, Note_on_c, 0, 68, 74
1, 718312, Note_on_c, 0, 59, 65
1, 718320, Note_on_c, 0, 64, 56
1, 718323, Note_on_c, 0, 41, 56
1, 718325, Note_on_c, 0, 53, 57
1, 718334, Control_c, 0, 64, 119
1, 718349, Control_c, 0, 64, 93
1, 718364, Control_c, 0, 64, 80
1, 718378, Control_c, 0, 64, 71
1, 718393, Control_c, 0, 64, 65
1, 718408, Control_c, 0, 64, 59
1, 718423, Control_c, 0, 64, 52
1, 718438, Control_c, 0, 64, 45
1, 718452, Control_c, 0, 64, 41
1, 718467, Control_c, 0, 64, 39
1, 718482, Control_c, 0, 64, 40
1, 718496, Control_c, 0, 64, 48
1, 718511, Control_c, 0, 64, 58
1, 718526, Control_c, 0, 64, 63
1, 718541, Control_c, 0, 64, 67
1, 718556, Control_c, 0, 64, 75
1, 718561, Note_off_c, 0, 68, 62
1, 718562, Note_on_c, 0, 62, 70
1, 718570, Control_c, 0, 64, 90
1, 718585, Control_c, 0, 64, 127
1, 718592, Note_off_c, 0, 64, 58
1, 718606, Note_off_c, 0, 53, 59
1, 718698, Note_off_c, 0, 62, 60
1, 718749, Note_off_c, 0, 59, 58
1, 718832, Note_on_c, 0, 51, 49
1, 718841, Note_on_c, 0, 39, 40
1, 718859, Control_c, 0, 64, 120
1, 718874, Control_c, 0, 64, 93
1, 718877, Note_on_c, 0, 67, 60
1, 718882, Note_on_c, 0, 59, 47
1, 718889, Control_c, 0, 64, 82
1, 718890, Note_on_c, 0, 62, 44
1, 718904, Control_c, 0, 64, 74
1, 718919, Control_c, 0, 64, 69
1, 718934, Control_c, 0, 64, 65
1, 718949, Control_c, 0, 64, 61
1, 718964, Control_c, 0, 64, 55
1, 718978, Control_c, 0, 64, 50
1, 718993, Control_c, 0, 64, 46
1, 719000, Note_off_c, 0, 41, 34
1, 719024, Note_off_c, 0, 59, 32
1, 719038, Control_c, 0, 64, 49
1, 719052, Control_c, 0, 64, 57
1, 719067, Control_c, 0, 64, 61
1, 719082, Control_c, 0, 64, 65
1, 719098, Control_c, 0, 64, 70
1, 719112, Control_c, 0, 64, 79
1, 719127, Control_c, 0, 64, 93
1, 719142, Control_c, 0, 64, 127
1, 719156, Note_on_c, 0, 59, 52
1, 719169, Note_on_c, 0, 55, 44
1, 719231, Note_off_c, 0, 51, 36
1, 719252, Note_off_c, 0, 55, 50
1, 719486, Note_on_c, 0, 38, 30
1, 719490, Control_c, 0, 64, 125
1, 719493, Note_on_c, 0, 51, 26
1, 719494, Note_off_c, 0, 62, 24
1, 719505, Note_on_c, 0, 55, 41
1, 719505, Control_c, 0, 64, 107
1, 719519, Control_c, 0, 64, 96
1, 719534, Control_c, 0, 64, 89
1, 719549, Control_c, 0, 64, 82
1, 719564, Control_c, 0, 64, 77
1, 719579, Control_c, 0, 64, 73
1, 719590, Note_off_c, 0, 59, 37
1, 719593, Control_c, 0, 64, 68
1, 719608, Control_c, 0, 64, 64
1, 719623, Control_c, 0, 64, 61
1, 719631, Note_off_c, 0, 39, 36
1, 719638, Control_c, 0, 64, 58
1, 719653, Control_c, 0, 64, 56
1, 719667, Control_c, 0, 64, 55
1, 719682, Control_c, 0, 64, 54
1, 719712, Control_c, 0, 64, 57
1, 719727, Control_c, 0, 64, 61
1, 719742, Control_c, 0, 64, 64
1, 719756, Control_c, 0, 64, 67
1, 719771, Control_c, 0, 64, 72
1, 719774, Note_off_c, 0, 55, 50
1, 719786, Control_c, 0, 64, 79
1, 719801, Control_c, 0, 64, 88
1, 719810, Note_on_c, 0, 36, 33
1, 719816, Control_c, 0, 64, 94
1, 719831, Control_c, 0, 64, 96
1, 719850, Note_off_c, 0, 67, 57
1, 719875, Control_c, 0, 64, 95
1, 719891, Control_c, 0, 64, 94
1, 719906, Control_c, 0, 64, 92
1, 719920, Control_c, 0, 64, 91
1, 719935, Control_c, 0, 64, 91
1, 719940, Note_off_c, 0, 38, 33
1, 719950, Control_c, 0, 64, 90
1, 719965, Control_c, 0, 64, 89
1, 719980, Control_c, 0, 64, 86
1, 719995, Control_c, 0, 64, 84
1, 720009, Control_c, 0, 64, 82
1, 720024, Control_c, 0, 64, 81
1, 720039, Control_c, 0, 64, 80
1, 720054, Control_c, 0, 64, 77
1, 720069, Control_c, 0, 64, 75
1, 720083, Control_c, 0, 64, 74
1, 720098, Control_c, 0, 64, 73
1, 720113, Control_c, 0, 64, 72
1, 720128, Control_c, 0, 64, 71
1, 720135, Note_on_c, 0, 68, 53
1, 720142, Control_c, 0, 64, 69
1, 720157, Control_c, 0, 64, 68
1, 720195, Control_c, 0, 64, 68
1, 720210, Control_c, 0, 64, 66
1, 720224, Control_c, 0, 64, 65
1, 720239, Control_c, 0, 64, 63
1, 720253, Note_off_c, 0, 36, 37
1, 720254, Control_c, 0, 64, 63
1, 720269, Control_c, 0, 64, 62
1, 720278, Note_off_c, 0, 51, 30
1, 720284, Control_c, 0, 64, 61
1, 720298, Control_c, 0, 64, 60
1, 720313, Control_c, 0, 64, 59
1, 720328, Control_c, 0, 64, 58
1, 720342, Control_c, 0, 64, 58
1, 720357, Control_c, 0, 64, 57
1, 720372, Control_c, 0, 64, 56
1, 720387, Control_c, 0, 64, 55
1, 720401, Note_on_c, 0, 70, 70
1, 720402, Control_c, 0, 64, 54
1, 720416, Control_c, 0, 64, 53
1, 720431, Control_c, 0, 64, 52
1, 720446, Control_c, 0, 64, 51
1, 720461, Control_c, 0, 64, 50
1, 720476, Control_c, 0, 64, 49
1, 720490, Control_c, 0, 64, 48
1, 720505, Control_c, 0, 64, 47
1, 720520, Control_c, 0, 64, 45
1, 720535, Control_c, 0, 64, 44
1, 720537, Note_off_c, 0, 68, 53
1, 720549, Control_c, 0, 64, 42
1, 720564, Control_c, 0, 64, 40
1, 720579, Control_c, 0, 64, 38
1, 720594, Control_c, 0, 64, 35
1, 720609, Control_c, 0, 64, 32
1, 720624, Control_c, 0, 64, 28
1, 720639, Control_c, 0, 64, 19
1, 720654, Control_c, 0, 64, 0
1, 720698, Note_on_c, 0, 72, 61
1, 720743, Note_on_c, 0, 41, 36
1, 720842, Note_off_c, 0, 70, 55
1, 720985, Note_on_c, 0, 75, 75
1, 721017, Note_on_c, 0, 43, 48
1, 721071, Note_off_c, 0, 72, 62
1, 721258, Note_on_c, 0, 44, 54
1, 721265, Note_on_c, 0, 74, 73
1, 721357, Note_off_c, 0, 41, 42
1, 721375, Note_off_c, 0, 75, 59
1, 721378, Note_off_c, 0, 43, 54
1, 721522, Control_c, 0, 64, 20
1, 721527, Note_on_c, 0, 48, 67
1, 721536, Control_c, 0, 64, 40
1, 721551, Control_c, 0, 64, 55
1, 721566, Control_c, 0, 64, 62
1, 721572, Note_off_c, 0, 44, 61
1, 721581, Control_c, 0, 64, 67
1, 721596, Control_c, 0, 64, 75
1, 721611, Control_c, 0, 64, 94
1, 721626, Control_c, 0, 64, 127
1, 721629, Note_off_c, 0, 48, 61
1, 721786, Note_off_c, 0, 74, 29
1, 721825, Note_on_c, 0, 53, 70
1, 721836, Note_on_c, 0, 47, 49
1, 721840, Note_on_c, 0, 73, 59
1, 721840, Control_c, 0, 64, 109
1, 721855, Control_c, 0, 64, 93
1, 721870, Control_c, 0, 64, 84
1, 721885, Control_c, 0, 64, 76
1, 721900, Control_c, 0, 64, 71
1, 721914, Control_c, 0, 64, 68
1, 721929, Control_c, 0, 64, 64
1, 721944, Control_c, 0, 64, 58
1, 721959, Control_c, 0, 64, 53
1, 721974, Control_c, 0, 64, 52
1, 722018, Control_c, 0, 64, 53
1, 722033, Control_c, 0, 64, 55
1, 722048, Control_c, 0, 64, 58
1, 722062, Control_c, 0, 64, 61
1, 722077, Control_c, 0, 64, 64
1, 722086, Note_on_c, 0, 55, 79
1, 722092, Control_c, 0, 64, 67
1, 722097, Note_on_c, 0, 72, 66
1, 722107, Control_c, 0, 64, 73
1, 722121, Control_c, 0, 64, 89
1, 722136, Control_c, 0, 64, 127
1, 722147, Note_off_c, 0, 73, 56
1, 722176, Note_off_c, 0, 47, 52
1, 722190, Note_off_c, 0, 53, 63
1, 722262, Note_off_c, 0, 72, 64
1, 722358, Note_on_c, 0, 48, 57
1, 722361, Note_on_c, 0, 56, 76
1, 722377, Note_on_c, 0, 72, 63
1, 722404, Control_c, 0, 64, 109
1, 722418, Control_c, 0, 64, 91
1, 722441, Control_c, 0, 64, 77
1, 722443, Note_off_c, 0, 55, 58
1, 722456, Control_c, 0, 64, 68
1, 722471, Control_c, 0, 64, 62
1, 722486, Control_c, 0, 64, 58
1, 722500, Control_c, 0, 64, 53
1, 722515, Control_c, 0, 64, 49
1, 722530, Control_c, 0, 64, 43
1, 722544, Control_c, 0, 64, 38
1, 722559, Control_c, 0, 64, 32
1, 722574, Control_c, 0, 64, 29
1, 722589, Control_c, 0, 64, 28
1, 722636, Note_on_c, 0, 60, 77
1, 722648, Control_c, 0, 64, 29
1, 722663, Control_c, 0, 64, 32
1, 722678, Control_c, 0, 64, 40
1, 722693, Control_c, 0, 64, 53
1, 722701, Note_off_c, 0, 72, 51
1, 722708, Control_c, 0, 64, 60
1, 722722, Control_c, 0, 64, 63
1, 722737, Control_c, 0, 64, 66
1, 722752, Control_c, 0, 64, 72
1, 722767, Control_c, 0, 64, 82
1, 722778, Note_off_c, 0, 60, 60
1, 722782, Control_c, 0, 64, 112
1, 722797, Control_c, 0, 64, 127
1, 722898, Note_on_c, 0, 59, 59
1, 722919, Note_on_c, 0, 50, 48
1, 722929, Note_on_c, 0, 72, 62
1, 722970, Note_off_c, 0, 48, 30
1, 722974, Control_c, 0, 64, 115
1, 722989, Note_off_c, 0, 56, 57
1, 722989, Control_c, 0, 64, 97
1, 723004, Control_c, 0, 64, 87
1, 723018, Control_c, 0, 64, 80
1, 723033, Control_c, 0, 64, 74
1, 723048, Control_c, 0, 64, 67
1, 723063, Control_c, 0, 64, 62
1, 723078, Control_c, 0, 64, 57
1, 723094, Control_c, 0, 64, 53
1, 723108, Control_c, 0, 64, 50
1, 723123, Control_c, 0, 64, 48
1, 723138, Control_c, 0, 64, 46
1, 723153, Control_c, 0, 64, 45
1, 723177, Note_off_c, 0, 50, 55
1, 723186, Note_on_c, 0, 58, 57
1, 723190, Note_on_c, 0, 49, 46
1, 723205, Control_c, 0, 64, 47
1, 723220, Control_c, 0, 64, 51
1, 723235, Control_c, 0, 64, 56
1, 723249, Control_c, 0, 64, 61
1, 723264, Control_c, 0, 64, 64
1, 723279, Control_c, 0, 64, 69
1, 723294, Control_c, 0, 64, 76
1, 723300, Note_off_c, 0, 72, 35
1, 723309, Control_c, 0, 64, 89
1, 723310, Note_off_c, 0, 58, 60
1, 723323, Control_c, 0, 64, 111
1, 723338, Control_c, 0, 64, 127
1, 723343, Note_off_c, 0, 49, 58
1, 723465, Note_on_c, 0, 56, 42
1, 723474, Note_on_c, 0, 48, 40
1, 723520, Note_on_c, 0, 72, 66
1, 723545, Control_c, 0, 64, 116
1, 723560, Control_c, 0, 64, 102
1, 723575, Control_c, 0, 64, 91
1, 723590, Control_c, 0, 64, 79
1, 723605, Control_c, 0, 64, 70
1, 723620, Control_c, 0, 64, 62
1, 723634, Control_c, 0, 64, 54
1, 723646, Note_off_c, 0, 59, 57
1, 723649, Control_c, 0, 64, 48
1, 723664, Control_c, 0, 64, 46
1, 723679, Control_c, 0, 64, 46
1, 723708, Control_c, 0, 64, 48
1, 723723, Control_c, 0, 64, 55
1, 723738, Control_c, 0, 64, 61
1, 723753, Control_c, 0, 64, 66
1, 723767, Control_c, 0, 64, 72
1, 723782, Control_c, 0, 64, 84
1, 723784, Note_on_c, 0, 54, 56
1, 723787, Note_on_c, 0, 70, 84
1, 723790, Note_on_c, 0, 51, 46
1, 723796, Control_c, 0, 64, 127
1, 723822, Note_off_c, 0, 56, 37
1, 723886, Note_off_c, 0, 54, 63
1, 723888, Note_off_c, 0, 72, 54
1, 723890, Note_off_c, 0, 51, 62
1, 723907, Note_off_c, 0, 48, 54
1, 724043, Note_on_c, 0, 72, 77
1, 724050, Note_on_c, 0, 53, 60
1, 724071, Control_c, 0, 64, 100
1, 724086, Note_on_c, 0, 44, 38
1, 724086, Control_c, 0, 64, 85
1, 724101, Control_c, 0, 64, 77
1, 724116, Control_c, 0, 64, 69
1, 724131, Control_c, 0, 64, 62
1, 724135, Note_off_c, 0, 70, 58
1, 724145, Control_c, 0, 64, 51
1, 724160, Control_c, 0, 64, 38
1, 724175, Control_c, 0, 64, 24
1, 724189, Control_c, 0, 64, 0
1, 724297, Note_on_c, 0, 75, 78
1, 724316, Note_on_c, 0, 43, 50
1, 724383, Note_off_c, 0, 72, 64
1, 724388, Note_off_c, 0, 44, 39
1, 724564, Note_on_c, 0, 74, 78
1, 724568, Note_on_c, 0, 44, 56
1, 724636, Note_off_c, 0, 43, 57
1, 724663, Control_c, 0, 64, 19
1, 724686, Control_c, 0, 64, 37
1, 724691, Note_off_c, 0, 75, 63
1, 724701, Control_c, 0, 64, 45
1, 724716, Control_c, 0, 64, 49
1, 724731, Control_c, 0, 64, 52
1, 724746, Control_c, 0, 64, 54
1, 724760, Control_c, 0, 64, 58
1, 724775, Control_c, 0, 64, 62
1, 724790, Control_c, 0, 64, 65
1, 724805, Control_c, 0, 64, 70
1, 724819, Control_c, 0, 64, 78
1, 724820, Note_on_c, 0, 48, 77
1, 724834, Control_c, 0, 64, 106
1, 724845, Note_off_c, 0, 44, 60
1, 724849, Control_c, 0, 64, 127
1, 724917, Note_off_c, 0, 48, 63
1, 725112, Note_on_c, 0, 47, 57
1, 725112, Note_on_c, 0, 56, 81
1, 725116, Control_c, 0, 64, 112
1, 725122, Note_on_c, 0, 73, 69
1, 725130, Control_c, 0, 64, 96
1, 725145, Control_c, 0, 64, 87
1, 725160, Control_c, 0, 64, 81
1, 725175, Control_c, 0, 64, 75
1, 725190, Control_c, 0, 64, 69
1, 725204, Control_c, 0, 64, 64
1, 725219, Control_c, 0, 64, 58
1, 725222, Note_off_c, 0, 53, 52
1, 725234, Control_c, 0, 64, 51
1, 725241, Note_off_c, 0, 74, 56
1, 725249, Control_c, 0, 64, 45
1, 725264, Control_c, 0, 64, 39
1, 725278, Control_c, 0, 64, 31
1, 725293, Control_c, 0, 64, 20
1, 725308, Control_c, 0, 64, 0
1, 725371, Note_on_c, 0, 55, 83
1, 725377, Note_on_c, 0, 72, 78
1, 725434, Control_c, 0, 64, 25
1, 725447, Note_off_c, 0, 73, 62
1, 725449, Control_c, 0, 64, 50
1, 725464, Control_c, 0, 64, 62
1, 725479, Control_c, 0, 64, 70
1, 725484, Note_off_c, 0, 56, 60
1, 725495, Control_c, 0, 64, 83
1, 725504, Note_off_c, 0, 47, 53
1, 725509, Control_c, 0, 64, 127
1, 725563, Note_off_c, 0, 72, 64
1, 725653, Note_on_c, 0, 56, 76
1, 725662, Note_on_c, 0, 48, 62
1, 725670, Note_on_c, 0, 72, 74
1, 725687, Control_c, 0, 64, 101
1, 725701, Control_c, 0, 64, 85
1, 725716, Control_c, 0, 64, 75
1, 725725, Note_off_c, 0, 55, 54
1, 725731, Control_c, 0, 64, 68
1, 725746, Control_c, 0, 64, 64
1, 725760, Control_c, 0, 64, 60
1, 725775, Control_c, 0, 64, 55
1, 725790, Control_c, 0, 64, 50
1, 725805, Control_c, 0, 64, 45
1, 725820, Control_c, 0, 64, 40
1, 725835, Control_c, 0, 64, 32
1, 725849, Control_c, 0, 64, 22
1, 725864, Control_c, 0, 64, 16
1, 725879, Control_c, 0, 64, 14
1, 725921, Note_on_c, 0, 60, 81
1, 725968, Control_c, 0, 64, 23
1, 725983, Control_c, 0, 64, 37
1, 725998, Control_c, 0, 64, 51
1, 726013, Control_c, 0, 64, 60
1, 726027, Control_c, 0, 64, 66
1, 726043, Control_c, 0, 64, 74
1, 726056, Note_off_c, 0, 72, 56
1, 726058, Control_c, 0, 64, 91
1, 726073, Control_c, 0, 64, 127
1, 726077, Note_off_c, 0, 60, 63
1, 726195, Note_on_c, 0, 59, 66
1, 726204, Note_on_c, 0, 50, 55
1, 726214, Note_on_c, 0, 72, 62
1, 726243, Control_c, 0, 64, 102
1, 726252, Note_off_c, 0, 48, 30
1, 726258, Control_c, 0, 64, 90
1, 726258, Note_off_c, 0, 56, 55
1, 726273, Control_c, 0, 64, 82
1, 726288, Control_c, 0, 64, 75
1, 726303, Control_c, 0, 64, 70
1, 726318, Control_c, 0, 64, 65
1, 726332, Control_c, 0, 64, 62
1, 726347, Control_c, 0, 64, 60
1, 726362, Control_c, 0, 64, 58
1, 726377, Control_c, 0, 64, 56
1, 726392, Control_c, 0, 64, 53
1, 726407, Control_c, 0, 64, 48
1, 726422, Control_c, 0, 64, 43
1, 726437, Control_c, 0, 64, 36
1, 726452, Control_c, 0, 64, 26
1, 726455, Note_off_c, 0, 50, 54
1, 726466, Control_c, 0, 64, 17
1, 726468, Note_on_c, 0, 58, 65
1, 726475, Note_on_c, 0, 49, 51
1, 726481, Control_c, 0, 64, 11
1, 726525, Control_c, 0, 64, 20
1, 726540, Control_c, 0, 64, 40
1, 726555, Control_c, 0, 64, 56
1, 726570, Control_c, 0, 64, 62
1, 726584, Control_c, 0, 64, 66
1, 726599, Control_c, 0, 64, 71
1, 726606, Note_off_c, 0, 72, 55
1, 726614, Control_c, 0, 64, 78
1, 726616, Note_off_c, 0, 58, 62
1, 726629, Control_c, 0, 64, 86
1, 726637, Note_off_c, 0, 49, 57
1, 726644, Control_c, 0, 64, 94
1, 726658, Control_c, 0, 64, 99
1, 726703, Control_c, 0, 64, 98
1, 726718, Control_c, 0, 64, 97
1, 726732, Control_c, 0, 64, 95
1, 726747, Control_c, 0, 64, 94
1, 726753, Note_on_c, 0, 72, 60
1, 726762, Control_c, 0, 64, 91
1, 726768, Note_on_c, 0, 56, 42
1, 726777, Control_c, 0, 64, 87
1, 726785, Note_on_c, 0, 48, 36
1, 726791, Control_c, 0, 64, 82
1, 726806, Control_c, 0, 64, 79
1, 726821, Control_c, 0, 64, 77
1, 726836, Control_c, 0, 64, 75
1, 726851, Control_c, 0, 64, 73
1, 726866, Control_c, 0, 64, 70
1, 726881, Control_c, 0, 64, 67
1, 726896, Control_c, 0, 64, 66
1, 726911, Control_c, 0, 64, 65
1, 726913, Note_off_c, 0, 59, 34
1, 726932, Control_c, 0, 64, 64
1, 726947, Control_c, 0, 64, 63
1, 726962, Control_c, 0, 64, 59
1, 726977, Control_c, 0, 64, 55
1, 726991, Control_c, 0, 64, 51
1, 727006, Control_c, 0, 64, 47
1, 727021, Control_c, 0, 64, 43
1, 727036, Control_c, 0, 64, 39
1, 727051, Control_c, 0, 64, 33
1, 727053, Note_on_c, 0, 54, 42
1, 727054, Note_on_c, 0, 70, 56
1, 727066, Control_c, 0, 64, 26
1, 727081, Control_c, 0, 64, 21
1, 727090, Note_off_c, 0, 72, 56
1, 727096, Control_c, 0, 64, 19
1, 727126, Control_c, 0, 64, 20
1, 727133, Note_off_c, 0, 56, 35
1, 727141, Control_c, 0, 64, 32
1, 727155, Control_c, 0, 64, 49
1, 727170, Control_c, 0, 64, 57
1, 727185, Control_c, 0, 64, 62
1, 727200, Control_c, 0, 64, 65
1, 727215, Control_c, 0, 64, 69
1, 727230, Control_c, 0, 64, 76
1, 727231, Note_off_c, 0, 54, 37
1, 727245, Control_c, 0, 64, 87
1, 727259, Control_c, 0, 64, 98
1, 727274, Control_c, 0, 64, 108
1, 727279, Note_off_c, 0, 70, 39
1, 727289, Control_c, 0, 64, 112
1, 727319, Control_c, 0, 64, 111
1, 727334, Control_c, 0, 64, 109
1, 727349, Control_c, 0, 64, 108
1, 727364, Control_c, 0, 64, 106
1, 727379, Control_c, 0, 64, 103
1, 727394, Control_c, 0, 64, 100
1, 727408, Control_c, 0, 64, 98
1, 727423, Control_c, 0, 64, 97
1, 727438, Control_c, 0, 64, 95
1, 727453, Control_c, 0, 64, 93
1, 727456, Note_on_c, 0, 54, 19
1, 727458, Note_on_c, 0, 70, 39
1, 727468, Control_c, 0, 64, 89
1, 727469, Note_on_c, 0, 51, 25
1, 727482, Control_c, 0, 64, 86
1, 727497, Control_c, 0, 64, 83
1, 727512, Control_c, 0, 64, 81
1, 727527, Control_c, 0, 64, 78
1, 727542, Control_c, 0, 64, 75
1, 727556, Control_c, 0, 64, 73
1, 727571, Control_c, 0, 64, 72
1, 727586, Control_c, 0, 64, 70
1, 727600, Control_c, 0, 64, 69
1, 727615, Control_c, 0, 64, 67
1, 727629, Note_off_c, 0, 48, 29
1, 727630, Control_c, 0, 64, 67
1, 727645, Control_c, 0, 64, 66
1, 727660, Control_c, 0, 64, 66
1, 727682, Control_c, 0, 64, 64
1, 727697, Control_c, 0, 64, 63
1, 727712, Control_c, 0, 64, 62
1, 727727, Control_c, 0, 64, 61
1, 727741, Control_c, 0, 64, 61
1, 727756, Control_c, 0, 64, 60
1, 727771, Control_c, 0, 64, 59
1, 727786, Control_c, 0, 64, 58
1, 727815, Control_c, 0, 64, 58
1, 727830, Control_c, 0, 64, 57
1, 727838, Note_on_c, 0, 58, 32
1, 727845, Control_c, 0, 64, 57
1, 727860, Control_c, 0, 64, 56
1, 727868, Note_on_c, 0, 73, 37
1, 727875, Control_c, 0, 64, 56
1, 727891, Control_c, 0, 64, 55
1, 727905, Control_c, 0, 64, 55
1, 727920, Control_c, 0, 64, 54
1, 727935, Control_c, 0, 64, 54
1, 727950, Control_c, 0, 64, 53
1, 727965, Control_c, 0, 64, 53
1, 727997, Note_off_c, 0, 54, 38
1, 728009, Control_c, 0, 64, 52
1, 728038, Control_c, 0, 64, 52
1, 728158, Note_on_c, 0, 72, 47
1, 728265, Note_off_c, 0, 70, 36
1, 728273, Note_off_c, 0, 73, 34
1, 728443, Note_on_c, 0, 61, 36
1, 728594, Control_c, 0, 64, 52
1, 728598, Note_off_c, 0, 58, 38
1, 728624, Control_c, 0, 64, 53
1, 728638, Control_c, 0, 64, 53
1, 728653, Control_c, 0, 64, 54
1, 728668, Control_c, 0, 64, 54
1, 728684, Control_c, 0, 64, 55
1, 728699, Control_c, 0, 64, 55
1, 728728, Control_c, 0, 64, 56
1, 728743, Control_c, 0, 64, 56
1, 728750, Note_on_c, 0, 70, 41
1, 728756, Note_on_c, 0, 65, 25
1, 728764, Note_off_c, 0, 61, 52
1, 728773, Control_c, 0, 64, 57
1, 728788, Control_c, 0, 64, 57
1, 728817, Control_c, 0, 64, 58
1, 728832, Control_c, 0, 64, 58
1, 728844, Note_off_c, 0, 72, 57
1, 728847, Control_c, 0, 64, 59
1, 728861, Control_c, 0, 64, 60
1, 728876, Control_c, 0, 64, 61
1, 728891, Control_c, 0, 64, 62
1, 728906, Control_c, 0, 64, 63
1, 728921, Control_c, 0, 64, 64
1, 728935, Control_c, 0, 64, 66
1, 728950, Control_c, 0, 64, 67
1, 728965, Control_c, 0, 64, 69
1, 728979, Control_c, 0, 64, 72
1, 728994, Control_c, 0, 64, 75
1, 729009, Control_c, 0, 64, 80
1, 729024, Control_c, 0, 64, 86
1, 729031, Note_on_c, 0, 73, 48
1, 729039, Control_c, 0, 64, 96
1, 729042, Note_off_c, 0, 51, 42
1, 729050, Note_off_c, 0, 65, 40
1, 729053, Control_c, 0, 64, 120
1, 729068, Control_c, 0, 64, 127
1, 729134, Note_off_c, 0, 73, 58
1, 729356, Note_on_c, 0, 75, 58
1, 729364, Note_on_c, 0, 41, 34
1, 729371, Control_c, 0, 64, 108
1, 729375, Note_on_c, 0, 73, 42
1, 729386, Control_c, 0, 64, 92
1, 729393, Note_on_c, 0, 68, 25
1, 729401, Control_c, 0, 64, 81
1, 729416, Control_c, 0, 64, 73
1, 729431, Control_c, 0, 64, 66
1, 729446, Control_c, 0, 64, 61
1, 729460, Control_c, 0, 64, 58
1, 729476, Control_c, 0, 64, 59
1, 729491, Control_c, 0, 64, 62
1, 729506, Control_c, 0, 64, 65
1, 729521, Control_c, 0, 64, 69
1, 729536, Control_c, 0, 64, 77
1, 729550, Control_c, 0, 64, 90
1, 729565, Control_c, 0, 64, 127
1, 729629, Note_off_c, 0, 68, 38
1, 729668, Note_on_c, 0, 72, 57
1, 729677, Note_on_c, 0, 67, 46
1, 729717, Note_off_c, 0, 75, 48
1, 729763, Note_off_c, 0, 70, 39
1, 729771, Note_off_c, 0, 67, 57
1, 729966, Note_on_c, 0, 75, 61
1, 729969, Note_on_c, 0, 37, 38
1, 729973, Control_c, 0, 64, 98
1, 729981, Note_on_c, 0, 70, 35
1, 729988, Control_c, 0, 64, 84
1, 729990, Note_on_c, 0, 65, 41
1, 730002, Control_c, 0, 64, 75
1, 730017, Control_c, 0, 64, 69
1, 730032, Control_c, 0, 64, 63
1, 730047, Control_c, 0, 64, 59
1, 730053, Note_off_c, 0, 41, 37
1, 730054, Note_off_c, 0, 73, 39
1, 730058, Note_off_c, 0, 72, 50
1, 730062, Control_c, 0, 64, 57
1, 730076, Control_c, 0, 64, 56
1, 730091, Control_c, 0, 64, 55
1, 730094, Note_off_c, 0, 65, 58
1, 730136, Control_c, 0, 64, 56
1, 730142, Note_off_c, 0, 70, 60
1, 730151, Control_c, 0, 64, 58
1, 730166, Control_c, 0, 64, 61
1, 730181, Control_c, 0, 64, 64
1, 730196, Control_c, 0, 64, 67
1, 730210, Control_c, 0, 64, 72
1, 730225, Control_c, 0, 64, 84
1, 730240, Control_c, 0, 64, 99
1, 730255, Control_c, 0, 64, 127
1, 730278, Note_on_c, 0, 68, 43
1, 730279, Note_on_c, 0, 63, 34
1, 730325, Note_off_c, 0, 75, 56
1, 730337, Note_off_c, 0, 63, 50
1, 730551, Note_on_c, 0, 75, 48
1, 730552, Control_c, 0, 64, 103
1, 730556, Note_on_c, 0, 65, 37
1, 730557, Note_on_c, 0, 70, 41
1, 730567, Control_c, 0, 64, 91
1, 730581, Control_c, 0, 64, 82
1, 730590, Note_on_c, 0, 39, 22
1, 730596, Control_c, 0, 64, 75
1, 730611, Control_c, 0, 64, 70
1, 730625, Control_c, 0, 64, 65
1, 730630, Note_off_c, 0, 68, 36
1, 730640, Control_c, 0, 64, 60
1, 730655, Control_c, 0, 64, 56
1, 730658, Note_off_c, 0, 65, 38
1, 730678, Control_c, 0, 64, 55
1, 730703, Note_off_c, 0, 37, 35
1, 730722, Control_c, 0, 64, 56
1, 730737, Control_c, 0, 64, 57
1, 730752, Control_c, 0, 64, 58
1, 730767, Control_c, 0, 64, 59
1, 730781, Control_c, 0, 64, 60
1, 730796, Control_c, 0, 64, 61
1, 730811, Control_c, 0, 64, 62
1, 730825, Control_c, 0, 64, 63
1, 730840, Control_c, 0, 64, 64
1, 730855, Control_c, 0, 64, 66
1, 730859, Note_on_c, 0, 67, 36
1, 730870, Control_c, 0, 64, 69
1, 730885, Control_c, 0, 64, 74
1, 730899, Control_c, 0, 64, 80
1, 730911, Note_off_c, 0, 70, 38
1, 730914, Control_c, 0, 64, 88
1, 730929, Control_c, 0, 64, 99
1, 730944, Control_c, 0, 64, 127
1, 730967, Note_off_c, 0, 75, 25
1, 731225, Note_on_c, 0, 75, 40
1, 731230, Note_on_c, 0, 68, 28
1, 731240, Note_on_c, 0, 72, 34
1, 731286, Control_c, 0, 64, 122
1, 731301, Control_c, 0, 64, 105
1, 731316, Control_c, 0, 64, 94
1, 731330, Control_c, 0, 64, 84
1, 731345, Control_c, 0, 64, 76
1, 731360, Control_c, 0, 64, 71
1, 731375, Control_c, 0, 64, 67
1, 731390, Control_c, 0, 64, 64
1, 731404, Control_c, 0, 64, 61
1, 731427, Control_c, 0, 64, 60
1, 731434, Note_off_c, 0, 67, 34
1, 731442, Control_c, 0, 64, 61
1, 731456, Control_c, 0, 64, 62
1, 731471, Control_c, 0, 64, 63
1, 731486, Control_c, 0, 64, 65
1, 731501, Control_c, 0, 64, 68
1, 731516, Control_c, 0, 64, 72
1, 731530, Control_c, 0, 64, 80
1, 731533, Note_on_c, 0, 38, 31
1, 731545, Control_c, 0, 64, 89
1, 731560, Control_c, 0, 64, 103
1, 731574, Control_c, 0, 64, 127
1, 731593, Note_off_c, 0, 39, 32
1, 731813, Note_on_c, 0, 51, 52
1, 731844, Note_on_c, 0, 39, 30
1, 731871, Control_c, 0, 64, 98
1, 731886, Control_c, 0, 64, 81
1, 731901, Note_off_c, 0, 72, 24
1, 731901, Control_c, 0, 64, 69
1, 731914, Note_off_c, 0, 38, 26
1, 731916, Control_c, 0, 64, 63
1, 731931, Control_c, 0, 64, 60
1, 731945, Control_c, 0, 64, 62
1, 731960, Control_c, 0, 64, 64
1, 731975, Control_c, 0, 64, 67
1, 731990, Control_c, 0, 64, 73
1, 732005, Control_c, 0, 64, 82
1, 732020, Control_c, 0, 64, 95
1, 732035, Control_c, 0, 64, 127
1, 732086, Note_off_c, 0, 68, 35
1, 732101, Note_off_c, 0, 75, 38
1, 732102, Note_on_c, 0, 38, 38
1, 732202, Note_off_c, 0, 39, 37
1, 732213, Note_off_c, 0, 51, 42
1, 732508, Note_on_c, 0, 51, 44
1, 732548, Note_on_c, 0, 39, 23
1, 732590, Control_c, 0, 64, 112
1, 732604, Control_c, 0, 64, 95
1, 732619, Control_c, 0, 64, 84
1, 732634, Control_c, 0, 64, 77
1, 732649, Control_c, 0, 64, 72
1, 732664, Control_c, 0, 64, 68
1, 732672, Note_off_c, 0, 38, 34
1, 732680, Control_c, 0, 64, 65
1, 732694, Control_c, 0, 64, 64
1, 732724, Control_c, 0, 64, 65
1, 732739, Control_c, 0, 64, 65
1, 732754, Control_c, 0, 64, 67
1, 732768, Control_c, 0, 64, 69
1, 732783, Control_c, 0, 64, 72
1, 732798, Control_c, 0, 64, 76
1, 732813, Control_c, 0, 64, 81
1, 732827, Control_c, 0, 64, 86
1, 732838, Note_on_c, 0, 38, 13
1, 732842, Control_c, 0, 64, 92
1, 732855, Note_on_c, 0, 88, 40
1, 732857, Control_c, 0, 64, 99
1, 732872, Control_c, 0, 64, 112
1, 732887, Control_c, 0, 64, 127
1, 732905, Note_off_c, 0, 39, 31
1, 733123, Note_on_c, 0, 87, 41
1, 733151, Note_on_c, 0, 39, 24
1, 733250, Note_off_c, 0, 38, 34
1, 733388, Note_on_c, 0, 86, 45
1, 733405, Note_on_c, 0, 38, 26
1, 733445, Note_off_c, 0, 39, 36
1, 733472, Note_off_c, 0, 87, 31
1, 733674, Note_on_c, 0, 87, 51
1, 733685, Note_on_c, 0, 75, 39
1, 733696, Note_on_c, 0, 39, 33
1, 733773, Note_off_c, 0, 86, 34
1, 733814, Note_off_c, 0, 38, 35
1, 733963, Note_on_c, 0, 86, 55
1, 733972, Note_on_c, 0, 38, 25
1, 734031, Note_off_c, 0, 39, 34
1, 734034, Note_off_c, 0, 75, 54
1, 734059, Note_off_c, 0, 88, 41
1, 734127, Note_off_c, 0, 87, 28
1, 734246, Note_on_c, 0, 74, 51
1, 734266, Note_on_c, 0, 39, 32
1, 734314, Note_off_c, 0, 38, 34
1, 734524, Note_on_c, 0, 87, 54
1, 734543, Note_off_c, 0, 74, 34
1, 734548, Note_on_c, 0, 38, 30
1, 734595, Note_off_c, 0, 39, 34
1, 734767, Note_off_c, 0, 86, 39
1, 734801, Note_off_c, 0, 87, 59
1, 734801, Note_on_c, 0, 39, 32
1, 734821, Note_on_c, 0, 75, 56
1, 734850, Note_off_c, 0, 38, 31
1, 735062, Note_off_c, 0, 75, 58
1, 735081, Note_on_c, 0, 74, 58
1, 735108, Note_on_c, 0, 38, 36
1, 735157, Note_off_c, 0, 39, 34
1, 735365, Note_on_c, 0, 39, 37
1, 735369, Note_on_c, 0, 63, 57
1, 735376, Note_on_c, 0, 75, 59
1, 735376, Control_c, 0, 64, 120
1, 735391, Control_c, 0, 64, 93
1, 735406, Control_c, 0, 64, 79
1, 735421, Control_c, 0, 64, 69
1, 735436, Control_c, 0, 64, 61
1, 735451, Control_c, 0, 64, 54
1, 735452, Note_off_c, 0, 74, 51
1, 735466, Control_c, 0, 64, 54
1, 735474, Note_off_c, 0, 38, 38
1, 735481, Control_c, 0, 64, 54
1, 735495, Control_c, 0, 64, 56
1, 735510, Control_c, 0, 64, 59
1, 735525, Control_c, 0, 64, 61
1, 735540, Control_c, 0, 64, 64
1, 735555, Control_c, 0, 64, 68
1, 735569, Control_c, 0, 64, 74
1, 735584, Control_c, 0, 64, 92
1, 735599, Control_c, 0, 64, 127
1, 735662, Note_on_c, 0, 74, 62
1, 735672, Note_on_c, 0, 38, 42
1, 735710, Note_off_c, 0, 75, 57
1, 735750, Note_off_c, 0, 39, 41
1, 735821, Note_off_c, 0, 63, 58
1, 735948, Control_c, 0, 64, 95
1, 735958, Note_on_c, 0, 62, 54
1, 735963, Control_c, 0, 64, 81
1, 735965, Note_on_c, 0, 75, 53
1, 735976, Note_on_c, 0, 39, 31
1, 735978, Control_c, 0, 64, 71
1, 735992, Control_c, 0, 64, 63
1, 736000, Note_off_c, 0, 74, 49
1, 736007, Control_c, 0, 64, 54
1, 736022, Control_c, 0, 64, 52
1, 736037, Control_c, 0, 64, 53
1, 736051, Control_c, 0, 64, 57
1, 736066, Control_c, 0, 64, 61
1, 736068, Note_off_c, 0, 38, 34
1, 736081, Control_c, 0, 64, 64
1, 736096, Control_c, 0, 64, 67
1, 736105, Note_off_c, 0, 75, 58
1, 736111, Control_c, 0, 64, 74
1, 736125, Control_c, 0, 64, 88
1, 736140, Control_c, 0, 64, 127
1, 736283, Note_on_c, 0, 63, 52
1, 736305, Note_on_c, 0, 38, 32
1, 736318, Control_c, 0, 64, 111
1, 736333, Control_c, 0, 64, 106
1, 736348, Control_c, 0, 64, 102
1, 736363, Control_c, 0, 64, 97
1, 736371, Note_off_c, 0, 39, 38
1, 736378, Control_c, 0, 64, 93
1, 736392, Control_c, 0, 64, 90
1, 736407, Control_c, 0, 64, 88
1, 736422, Control_c, 0, 64, 86
1, 736436, Control_c, 0, 64, 84
1, 736451, Control_c, 0, 64, 82
1, 736466, Control_c, 0, 64, 78
1, 736481, Control_c, 0, 64, 77
1, 736496, Control_c, 0, 64, 75
1, 736510, Control_c, 0, 64, 74
1, 736513, Note_off_c, 0, 62, 31
1, 736525, Control_c, 0, 64, 71
1, 736540, Control_c, 0, 64, 69
1, 736555, Control_c, 0, 64, 66
1, 736570, Control_c, 0, 64, 65
1, 736584, Control_c, 0, 64, 64
1, 736593, Note_on_c, 0, 39, 37
1, 736599, Control_c, 0, 64, 64
1, 736614, Control_c, 0, 64, 63
1, 736629, Control_c, 0, 64, 62
1, 736643, Control_c, 0, 64, 61
1, 736682, Control_c, 0, 64, 61
1, 736697, Control_c, 0, 64, 60
1, 736714, Note_off_c, 0, 38, 37
1, 736727, Control_c, 0, 64, 59
1, 736741, Control_c, 0, 64, 59
1, 736756, Control_c, 0, 64, 58
1, 736771, Control_c, 0, 64, 58
1, 736801, Control_c, 0, 64, 57
1, 736830, Control_c, 0, 64, 57
1, 736874, Control_c, 0, 64, 56
1, 736904, Control_c, 0, 64, 56
1, 736934, Control_c, 0, 64, 55
1, 736961, Note_on_c, 0, 38, 28
1, 736963, Control_c, 0, 64, 55
1, 736978, Note_on_c, 0, 62, 44
1, 737008, Control_c, 0, 64, 54
1, 737052, Control_c, 0, 64, 54
1, 737103, Note_off_c, 0, 39, 27
1, 737111, Control_c, 0, 64, 53
1, 737144, Note_off_c, 0, 63, 34
1, 737459, Note_on_c, 0, 63, 29
1, 737594, Control_c, 0, 64, 54
1, 737626, Note_off_c, 0, 62, 34
1, 738005, Note_on_c, 0, 39, 25
1, 738113, Control_c, 0, 64, 54
1, 738121, Note_off_c, 0, 38, 34
1, 738179, Control_c, 0, 64, 55
1, 738194, Control_c, 0, 64, 55
1, 738209, Control_c, 0, 64, 56
1, 738223, Control_c, 0, 64, 56
1, 738238, Control_c, 0, 64, 58
1, 738253, Control_c, 0, 64, 59
1, 738269, Control_c, 0, 64, 61
1, 738284, Control_c, 0, 64, 62
1, 738299, Control_c, 0, 64, 63
1, 738313, Control_c, 0, 64, 64
1, 738328, Control_c, 0, 64, 66
1, 738343, Control_c, 0, 64, 69
1, 738358, Control_c, 0, 64, 73
1, 738373, Control_c, 0, 64, 78
1, 738387, Control_c, 0, 64, 86
1, 738398, Note_off_c, 0, 51, 36
1, 738402, Control_c, 0, 64, 96
1, 738407, Note_off_c, 0, 63, 31
1, 738417, Control_c, 0, 64, 119
1, 738432, Control_c, 0, 64, 127
1, 738577, Note_off_c, 0, 39, 31
1, 738972, Note_on_c, 0, 64, 46
1, 738973, Note_on_c, 0, 61, 36
1, 738973, Control_c, 0, 64, 116
1, 738987, Control_c, 0, 64, 110
1, 739002, Control_c, 0, 64, 106
1, 739017, Control_c, 0, 64, 102
1, 739032, Control_c, 0, 64, 100
1, 739046, Control_c, 0, 64, 97
1, 739063, Control_c, 0, 64, 94
1, 739078, Control_c, 0, 64, 91
1, 739092, Control_c, 0, 64, 90
1, 739098, Note_on_c, 0, 49, 34
1, 739107, Control_c, 0, 64, 88
1, 739122, Control_c, 0, 64, 85
1, 739136, Control_c, 0, 64, 82
1, 739151, Control_c, 0, 64, 80
1, 739165, Note_off_c, 0, 49, 57
1, 739166, Control_c, 0, 64, 78
1, 739173, Note_on_c, 0, 40, 38
1, 739181, Control_c, 0, 64, 76
1, 739196, Control_c, 0, 64, 74
1, 739210, Control_c, 0, 64, 72
1, 739225, Control_c, 0, 64, 69
1, 739240, Control_c, 0, 64, 68
1, 739255, Control_c, 0, 64, 66
1, 739269, Control_c, 0, 64, 65
1, 739284, Control_c, 0, 64, 63
1, 739296, Note_off_c, 0, 40, 30
1, 739299, Control_c, 0, 64, 62
1, 739314, Control_c, 0, 64, 61
1, 739329, Control_c, 0, 64, 60
1, 739344, Control_c, 0, 64, 58
1, 739359, Control_c, 0, 64, 57
1, 739368, Note_on_c, 0, 56, 23
1, 739369, Note_on_c, 0, 33, 29
1, 739370, Note_on_c, 0, 52, 32
1, 739374, Control_c, 0, 64, 55
1, 739389, Control_c, 0, 64, 52
1, 739404, Control_c, 0, 64, 49
1, 739410, Note_off_c, 0, 61, 39
1, 739419, Control_c, 0, 64, 48
1, 739433, Control_c, 0, 64, 47
1, 739463, Control_c, 0, 64, 47
1, 739477, Note_off_c, 0, 64, 40
1, 739478, Note_off_c, 0, 52, 51
1, 739478, Control_c, 0, 64, 46
1, 739505, Note_off_c, 0, 33, 37
1, 739508, Control_c, 0, 64, 46
1, 739519, Note_off_c, 0, 56, 56
1, 739722, Note_on_c, 0, 76, 56
1, 739723, Note_on_c, 0, 72, 49
1, 739796, Control_c, 0, 64, 45
1, 739811, Control_c, 0, 64, 44
1, 739815, Note_on_c, 0, 60, 53
1, 739825, Control_c, 0, 64, 42
1, 739840, Control_c, 0, 64, 40
1, 739853, Note_off_c, 0, 60, 55
1, 739855, Control_c, 0, 64, 37
1, 739871, Control_c, 0, 64, 34
1, 739885, Control_c, 0, 64, 30
1, 739900, Note_on_c, 0, 52, 33
1, 739900, Control_c, 0, 64, 24
1, 739915, Control_c, 0, 64, 19
1, 739930, Control_c, 0, 64, 15
1, 739945, Control_c, 0, 64, 12
1, 739953, Note_off_c, 0, 52, 49
1, 739956, Note_off_c, 0, 72, 43
1, 739959, Control_c, 0, 64, 11
1, 739967, Note_on_c, 0, 67, 42
1, 739967, Note_on_c, 0, 45, 41
1, 739974, Control_c, 0, 64, 9
1, 739988, Note_on_c, 0, 64, 47
1, 740038, Note_off_c, 0, 45, 56
1, 740048, Note_off_c, 0, 64, 58
1, 740053, Note_off_c, 0, 76, 36
1, 740098, Note_off_c, 0, 67, 63
1, 740107, Control_c, 0, 64, 12
1, 740122, Control_c, 0, 64, 15
1, 740137, Control_c, 0, 64, 17
1, 740152, Control_c, 0, 64, 20
1, 740167, Control_c, 0, 64, 22
1, 740182, Control_c, 0, 64, 22
1, 740229, Note_on_c, 0, 78, 73
1, 740241, Note_on_c, 0, 74, 60
1, 740324, Note_on_c, 0, 72, 64
1, 740381, Note_off_c, 0, 72, 65
1, 740396, Note_on_c, 0, 64, 55
1, 740411, Control_c, 0, 64, 22
1, 740426, Control_c, 0, 64, 21
1, 740441, Control_c, 0, 64, 19
1, 740456, Control_c, 0, 64, 17
1, 740471, Control_c, 0, 64, 15
1, 740478, Note_off_c, 0, 64, 59
1, 740479, Note_on_c, 0, 80, 69
1, 740483, Note_on_c, 0, 76, 52
1, 740485, Control_c, 0, 64, 14
1, 740489, Note_on_c, 0, 57, 41
1, 740500, Control_c, 0, 64, 13
1, 740515, Control_c, 0, 64, 12
1, 740521, Note_off_c, 0, 78, 61
1, 740530, Control_c, 0, 64, 11
1, 740545, Control_c, 0, 64, 9
1, 740546, Note_off_c, 0, 74, 52
1, 740549, Note_off_c, 0, 57, 62
1, 740559, Control_c, 0, 64, 0
1, 740789, Note_on_c, 0, 77, 38
1, 740790, Note_on_c, 0, 81, 52
1, 740808, Note_off_c, 0, 76, 53
1, 740878, Note_off_c, 0, 80, 35
1, 740893, Note_on_c, 0, 54, 28
1, 740935, Note_off_c, 0, 54, 53
1, 740978, Note_on_c, 0, 45, 21
1, 741048, Note_off_c, 0, 81, 31
1, 741086, Note_on_c, 0, 73, 40
1, 741087, Note_off_c, 0, 45, 37
1, 741088, Note_on_c, 0, 38, 29
1, 741091, Note_on_c, 0, 69, 40
1, 741159, Note_off_c, 0, 77, 37
1, 741213, Note_off_c, 0, 38, 34
1, 741226, Note_off_c, 0, 73, 52
1, 741288, Note_off_c, 0, 69, 61
1, 741413, Control_c, 0, 64, 20
1, 741428, Control_c, 0, 64, 30
1, 741429, Note_on_c, 0, 54, 41
1, 741442, Control_c, 0, 64, 39
1, 741458, Control_c, 0, 64, 48
1, 741473, Control_c, 0, 64, 56
1, 741487, Control_c, 0, 64, 62
1, 741502, Control_c, 0, 64, 66
1, 741517, Note_on_c, 0, 57, 50
1, 741517, Control_c, 0, 64, 71
1, 741532, Control_c, 0, 64, 86
1, 741547, Control_c, 0, 64, 127
1, 741586, Note_off_c, 0, 54, 35
1, 741597, Note_off_c, 0, 57, 62
1, 741605, Note_on_c, 0, 61, 69
1, 741656, Note_off_c, 0, 61, 62
1, 741691, Note_on_c, 0, 65, 75
1, 741756, Note_on_c, 0, 69, 83
1, 741759, Note_off_c, 0, 65, 59
1, 741829, Note_on_c, 0, 73, 86
1, 741835, Note_off_c, 0, 69, 63
1, 741867, Note_off_c, 0, 73, 67
1, 741924, Note_on_c, 0, 79, 74
1, 741924, Note_on_c, 0, 83, 79
1, 741939, Control_c, 0, 64, 98
1, 741954, Control_c, 0, 64, 72
1, 741969, Control_c, 0, 64, 59
1, 741984, Control_c, 0, 64, 31
1, 741999, Control_c, 0, 64, 0
1, 742028, Control_c, 0, 64, 11
1, 742043, Control_c, 0, 64, 40
1, 742057, Control_c, 0, 64, 62
1, 742072, Control_c, 0, 64, 73
1, 742087, Control_c, 0, 64, 127
1, 742107, Note_off_c, 0, 83, 66
1, 742149, Note_off_c, 0, 79, 65
1, 742185, Note_on_c, 0, 85, 90
1, 742186, Note_on_c, 0, 81, 85
1, 742414, Control_c, 0, 64, 111
1, 742429, Control_c, 0, 64, 102
1, 742444, Control_c, 0, 64, 98
1, 742450, Note_on_c, 0, 86, 78
1, 742457, Note_on_c, 0, 83, 68
1, 742459, Control_c, 0, 64, 94
1, 742474, Control_c, 0, 64, 90
1, 742488, Control_c, 0, 64, 86
1, 742495, Note_off_c, 0, 81, 64
1, 742496, Note_off_c, 0, 85, 54
1, 742503, Control_c, 0, 64, 83
1, 742518, Control_c, 0, 64, 79
1, 742529, Note_on_c, 0, 47, 58
1, 742533, Control_c, 0, 64, 77
1, 742548, Control_c, 0, 64, 74
1, 742562, Control_c, 0, 64, 71
1, 742577, Control_c, 0, 64, 69
1, 742592, Control_c, 0, 64, 68
1, 742596, Note_on_c, 0, 38, 52
1, 742596, Note_off_c, 0, 47, 49
1, 742607, Control_c, 0, 64, 66
1, 742622, Control_c, 0, 64, 65
1, 742636, Control_c, 0, 64, 63
1, 742659, Control_c, 0, 64, 62
1, 742674, Control_c, 0, 64, 60
1, 742688, Control_c, 0, 64, 59
1, 742694, Note_off_c, 0, 38, 51
1, 742703, Control_c, 0, 64, 55
1, 742707, Note_off_c, 0, 86, 50
1, 742712, Note_on_c, 0, 78, 59
1, 742718, Control_c, 0, 64, 51
1, 742720, Note_on_c, 0, 31, 35
1, 742723, Note_on_c, 0, 74, 45
1, 742733, Control_c, 0, 64, 45
1, 742739, Note_off_c, 0, 83, 56
1, 742748, Control_c, 0, 64, 41
1, 742762, Control_c, 0, 64, 38
1, 742777, Control_c, 0, 64, 37
1, 742782, Note_off_c, 0, 31, 55
1, 742792, Control_c, 0, 64, 33
1, 742807, Control_c, 0, 64, 28
1, 742822, Control_c, 0, 64, 22
1, 742829, Note_off_c, 0, 78, 64
1, 742836, Control_c, 0, 64, 15
1, 742851, Control_c, 0, 64, 0
1, 742873, Note_off_c, 0, 74, 62
1, 742992, Note_on_c, 0, 70, 45
1, 743021, Note_on_c, 0, 74, 35
1, 743025, Note_on_c, 0, 76, 14
1, 743053, Note_off_c, 0, 76, 51
1, 743071, Note_off_c, 0, 70, 0
1, 743078, Note_on_c, 0, 58, 37
1, 743108, Poly_aftertouch_c, 0, 70, 127
1, 743120, Note_off_c, 0, 58, 64
1, 743121, Note_on_c, 0, 70, 10
1, 743152, Note_on_c, 0, 50, 39
1, 743219, Note_off_c, 0, 74, 28
1, 743259, Note_off_c, 0, 50, 36
1, 743267, Note_on_c, 0, 65, 41
1, 743285, Note_on_c, 0, 43, 25
1, 743290, Note_on_c, 0, 62, 28
1, 743332, Note_off_c, 0, 70, 40
1, 743388, Note_off_c, 0, 43, 38
1, 743416, Note_off_c, 0, 62, 45
1, 743455, Note_off_c, 0, 65, 49
1, 743633, Note_on_c, 0, 76, 58
1, 743645, Note_on_c, 0, 72, 49
1, 743721, Note_on_c, 0, 70, 50
1, 743757, Note_off_c, 0, 70, 65
1, 743789, Note_on_c, 0, 62, 41
1, 743845, Note_off_c, 0, 62, 55
1, 743870, Note_off_c, 0, 76, 58
1, 743872, Note_on_c, 0, 78, 53
1, 743883, Note_on_c, 0, 55, 36
1, 743886, Note_on_c, 0, 74, 39
1, 743955, Note_off_c, 0, 72, 22
1, 743981, Note_off_c, 0, 55, 45
1, 744271, Note_on_c, 0, 79, 41
1, 744275, Note_on_c, 0, 75, 39
1, 744289, Control_c, 0, 64, 9
1, 744304, Control_c, 0, 64, 12
1, 744313, Note_off_c, 0, 74, 54
1, 744319, Control_c, 0, 64, 13
1, 744333, Control_c, 0, 64, 15
1, 744355, Note_off_c, 0, 78, 40
1, 744363, Control_c, 0, 64, 16
1, 744376, Note_on_c, 0, 52, 29
1, 744378, Control_c, 0, 64, 17
1, 744407, Control_c, 0, 64, 18
1, 744444, Note_off_c, 0, 52, 45
1, 744477, Note_on_c, 0, 43, 23
1, 744496, Control_c, 0, 64, 19
1, 744584, Note_off_c, 0, 79, 33
1, 744623, Note_on_c, 0, 36, 19
1, 744630, Note_on_c, 0, 67, 28
1, 744634, Note_on_c, 0, 71, 29
1, 744636, Note_off_c, 0, 43, 25
1, 744751, Note_off_c, 0, 75, 32
1, 744826, Note_off_c, 0, 36, 42
1, 744853, Control_c, 0, 64, 19
1, 744863, Note_off_c, 0, 71, 43
1, 744868, Control_c, 0, 64, 20
1, 744883, Control_c, 0, 64, 22
1, 744892, Note_off_c, 0, 67, 41
1, 744905, Control_c, 0, 64, 22
1, 744920, Control_c, 0, 64, 23
1, 744935, Control_c, 0, 64, 24
1, 744950, Control_c, 0, 64, 25
1, 744964, Control_c, 0, 64, 26
1, 744979, Control_c, 0, 64, 28
1, 744994, Control_c, 0, 64, 29
1, 745009, Control_c, 0, 64, 30
1, 745024, Control_c, 0, 64, 31
1, 745038, Control_c, 0, 64, 33
1, 745053, Control_c, 0, 64, 35
1, 745068, Control_c, 0, 64, 38
1, 745071, Note_on_c, 0, 52, 26
1, 745082, Control_c, 0, 64, 39
1, 745097, Control_c, 0, 64, 41
1, 745112, Control_c, 0, 64, 44
1, 745127, Control_c, 0, 64, 48
1, 745142, Control_c, 0, 64, 53
1, 745157, Control_c, 0, 64, 56
1, 745172, Control_c, 0, 64, 59
1, 745187, Control_c, 0, 64, 61
1, 745201, Control_c, 0, 64, 63
1, 745216, Control_c, 0, 64, 67
1, 745228, Note_on_c, 0, 55, 16
1, 745231, Control_c, 0, 64, 74
1, 745246, Control_c, 0, 64, 88
1, 745249, Note_off_c, 0, 52, 45
1, 745261, Control_c, 0, 64, 127
1, 745310, Note_off_c, 0, 55, 41
1, 745340, Note_on_c, 0, 59, 42
1, 745379, Note_off_c, 0, 59, 62
1, 745434, Note_on_c, 0, 63, 31
1, 745470, Note_off_c, 0, 63, 47
1, 745531, Note_on_c, 0, 67, 48
1, 745574, Note_off_c, 0, 67, 56
1, 745609, Note_on_c, 0, 71, 53
1, 745664, Note_off_c, 0, 71, 60
1, 745706, Note_on_c, 0, 75, 54
1, 745765, Note_off_c, 0, 75, 55
1, 745798, Note_on_c, 0, 71, 50
1, 745866, Note_off_c, 0, 71, 54
1, 745873, Note_on_c, 0, 67, 49
1, 745917, Note_off_c, 0, 67, 59
1, 745956, Note_on_c, 0, 75, 60
1, 746012, Note_off_c, 0, 75, 60
1, 746031, Note_on_c, 0, 71, 51
1, 746104, Note_on_c, 0, 67, 64
1, 746104, Note_off_c, 0, 71, 59
1, 746167, Note_off_c, 0, 67, 51
1, 746185, Control_c, 0, 64, 115
1, 746187, Note_on_c, 0, 75, 64
1, 746200, Control_c, 0, 64, 91
1, 746215, Control_c, 0, 64, 77
1, 746230, Control_c, 0, 64, 66
1, 746246, Control_c, 0, 64, 60
1, 746261, Control_c, 0, 64, 58
1, 746269, Note_on_c, 0, 74, 54
1, 746275, Control_c, 0, 64, 60
1, 746276, Note_on_c, 0, 71, 53
1, 746290, Control_c, 0, 64, 63
1, 746305, Control_c, 0, 64, 68
1, 746308, Note_off_c, 0, 75, 55
1, 746319, Control_c, 0, 64, 77
1, 746334, Control_c, 0, 64, 105
1, 746340, Note_on_c, 0, 67, 63
1, 746349, Control_c, 0, 64, 127
1, 746370, Note_off_c, 0, 71, 53
1, 746384, Note_off_c, 0, 74, 60
1, 746418, Note_off_c, 0, 67, 61
1, 746424, Note_on_c, 0, 75, 84
1, 746498, Note_on_c, 0, 71, 72
1, 746502, Note_on_c, 0, 74, 78
1, 746523, Note_off_c, 0, 75, 57
1, 746576, Note_on_c, 0, 67, 83
1, 746608, Note_off_c, 0, 71, 60
1, 746626, Note_off_c, 0, 74, 62
1, 746629, Note_off_c, 0, 67, 66
1, 746634, Note_on_c, 0, 75, 94
1, 746713, Note_on_c, 0, 79, 91
1, 746718, Note_on_c, 0, 71, 81
1, 746722, Note_on_c, 0, 74, 78
1, 746743, Note_off_c, 0, 75, 60
1, 746784, Note_on_c, 0, 67, 90
1, 746816, Note_off_c, 0, 74, 56
1, 746823, Note_off_c, 0, 71, 60
1, 746843, Note_off_c, 0, 67, 68
1, 746853, Note_on_c, 0, 75, 104
1, 746876, Note_off_c, 0, 79, 64
1, 746890, Control_c, 0, 64, 112
1, 746905, Control_c, 0, 64, 72
1, 746919, Control_c, 0, 64, 50
1, 746934, Control_c, 0, 64, 27
1, 746943, Note_on_c, 0, 71, 84
1, 746946, Note_on_c, 0, 79, 87
1, 746949, Control_c, 0, 64, 41
1, 746951, Note_on_c, 0, 74, 83
1, 746964, Control_c, 0, 64, 56
1, 746979, Control_c, 0, 64, 68
1, 746993, Control_c, 0, 64, 103
1, 747005, Note_on_c, 0, 67, 97
1, 747008, Control_c, 0, 64, 127
1, 747010, Note_off_c, 0, 75, 62
1, 747032, Note_off_c, 0, 71, 57
1, 747041, Note_off_c, 0, 74, 51
1, 747078, Note_off_c, 0, 67, 67
1, 747086, Note_on_c, 0, 75, 108
1, 747091, Note_off_c, 0, 79, 65
1, 747175, Note_on_c, 0, 79, 88
1, 747176, Note_on_c, 0, 71, 81
1, 747180, Note_on_c, 0, 74, 78
1, 747233, Note_off_c, 0, 75, 59
1, 747249, Note_on_c, 0, 67, 94
1, 747258, Note_off_c, 0, 71, 62
1, 747261, Note_off_c, 0, 74, 61
1, 747339, Note_off_c, 0, 67, 64
1, 747395, Note_on_c, 0, 75, 96
1, 747426, Note_off_c, 0, 79, 61
1, 747476, Control_c, 0, 64, 107
1, 747491, Control_c, 0, 64, 85
1, 747506, Control_c, 0, 64, 73
1, 747521, Control_c, 0, 64, 66
1, 747536, Control_c, 0, 64, 60
1, 747550, Control_c, 0, 64, 50
1, 747565, Control_c, 0, 64, 42
1, 747580, Control_c, 0, 64, 37
1, 747595, Control_c, 0, 64, 36
1, 747624, Control_c, 0, 64, 46
1, 747639, Control_c, 0, 64, 61
1, 747654, Control_c, 0, 64, 67
1, 747669, Control_c, 0, 64, 77
1, 747684, Control_c, 0, 64, 109
1, 747698, Control_c, 0, 64, 127
1, 747795, Note_on_c, 0, 76, 72
1, 747838, Note_on_c, 0, 87, 96
1, 747846, Note_on_c, 0, 83, 77
1, 747923, Note_off_c, 0, 75, 60
1, 748040, Note_on_c, 0, 75, 80
1, 748053, Note_off_c, 0, 83, 59
1, 748135, Note_on_c, 0, 71, 79
1, 748224, Note_off_c, 0, 75, 54
1, 748242, Note_on_c, 0, 68, 64
1, 748258, Note_on_c, 0, 90, 88
1, 748270, Note_on_c, 0, 86, 80
1, 748299, Control_c, 0, 64, 101
1, 748302, Note_off_c, 0, 71, 59
1, 748314, Control_c, 0, 64, 88
1, 748328, Control_c, 0, 64, 77
1, 748330, Note_off_c, 0, 87, 62
1, 748343, Control_c, 0, 64, 69
1, 748358, Control_c, 0, 64, 64
1, 748373, Control_c, 0, 64, 61
1, 748382, Note_on_c, 0, 71, 67
1, 748403, Control_c, 0, 64, 63
1, 748418, Control_c, 0, 64, 67
1, 748433, Control_c, 0, 64, 78
1, 748447, Control_c, 0, 64, 122
1, 748451, Note_off_c, 0, 76, 62
1, 748452, Note_on_c, 0, 75, 77
1, 748462, Control_c, 0, 64, 127
1, 748549, Note_on_c, 0, 89, 89
1, 748549, Note_off_c, 0, 75, 61
1, 748551, Note_on_c, 0, 85, 83
1, 748564, Note_on_c, 0, 76, 64
1, 748582, Note_off_c, 0, 86, 62
1, 748611, Control_c, 0, 64, 101
1, 748626, Control_c, 0, 64, 78
1, 748631, Note_off_c, 0, 71, 60
1, 748649, Control_c, 0, 64, 65
1, 748656, Note_off_c, 0, 90, 53
1, 748664, Control_c, 0, 64, 55
1, 748667, Note_on_c, 0, 75, 61
1, 748678, Control_c, 0, 64, 53
1, 748693, Control_c, 0, 64, 54
1, 748702, Note_off_c, 0, 68, 53
1, 748708, Control_c, 0, 64, 58
1, 748723, Control_c, 0, 64, 65
1, 748729, Note_off_c, 0, 75, 62
1, 748738, Note_on_c, 0, 71, 65
1, 748738, Control_c, 0, 64, 78
1, 748752, Control_c, 0, 64, 127
1, 748814, Note_off_c, 0, 71, 64
1, 748816, Note_on_c, 0, 68, 76
1, 748894, Note_on_c, 0, 71, 72
1, 748910, Note_off_c, 0, 76, 61
1, 748965, Note_on_c, 0, 75, 72
1, 749042, Note_on_c, 0, 83, 88
1, 749044, Note_on_c, 0, 88, 91
1, 749048, Note_off_c, 0, 75, 62
1, 749059, Note_on_c, 0, 76, 70
1, 749074, Note_off_c, 0, 85, 65
1, 749130, Note_off_c, 0, 71, 62
1, 749142, Note_on_c, 0, 75, 74
1, 749190, Note_off_c, 0, 89, 48
1, 749224, Note_on_c, 0, 71, 70
1, 749227, Note_off_c, 0, 68, 39
1, 749229, Note_off_c, 0, 75, 62
1, 749292, Note_on_c, 0, 87, 97
1, 749306, Note_off_c, 0, 71, 64
1, 749308, Note_on_c, 0, 68, 83
1, 749356, Note_off_c, 0, 88, 60
1, 749375, Note_on_c, 0, 71, 73
1, 749380, Note_off_c, 0, 76, 63
1, 749449, Note_on_c, 0, 75, 85
1, 749449, Note_off_c, 0, 87, 62
1, 749474, Note_off_c, 0, 68, 53
1, 749548, Note_on_c, 0, 86, 96
1, 749549, Note_on_c, 0, 82, 91
1, 749557, Note_on_c, 0, 77, 89
1, 749573, Note_off_c, 0, 75, 62
1, 749578, Note_off_c, 0, 83, 64
1, 749590, Control_c, 0, 64, 101
1, 749605, Control_c, 0, 64, 78
1, 749619, Control_c, 0, 64, 65
1, 749634, Control_c, 0, 64, 54
1, 749640, Note_off_c, 0, 71, 60
1, 749649, Control_c, 0, 64, 39
1, 749658, Note_on_c, 0, 74, 75
1, 749664, Control_c, 0, 64, 35
1, 749709, Control_c, 0, 64, 38
1, 749723, Control_c, 0, 64, 52
1, 749738, Control_c, 0, 64, 63
1, 749739, Note_on_c, 0, 71, 79
1, 749753, Control_c, 0, 64, 71
1, 749753, Note_off_c, 0, 74, 61
1, 749768, Control_c, 0, 64, 101
1, 749783, Control_c, 0, 64, 127
1, 749806, Note_on_c, 0, 68, 83
1, 749825, Note_off_c, 0, 71, 61
1, 749843, Note_off_c, 0, 86, 53
1, 749857, Note_off_c, 0, 82, 62
1, 749877, Note_on_c, 0, 71, 69
1, 749887, Note_off_c, 0, 77, 57
1, 749946, Note_on_c, 0, 74, 80
1, 750044, Note_on_c, 0, 86, 92
1, 750046, Note_on_c, 0, 82, 88
1, 750051, Note_on_c, 0, 79, 80
1, 750063, Note_off_c, 0, 74, 62
1, 750078, Control_c, 0, 64, 106
1, 750093, Control_c, 0, 64, 84
1, 750108, Control_c, 0, 64, 72
1, 750123, Control_c, 0, 64, 65
1, 750136, Note_off_c, 0, 71, 62
1, 750138, Control_c, 0, 64, 60
1, 750138, Note_off_c, 0, 68, 45
1, 750156, Note_on_c, 0, 74, 69
1, 750159, Control_c, 0, 64, 57
1, 750174, Control_c, 0, 64, 54
1, 750189, Control_c, 0, 64, 53
1, 750219, Control_c, 0, 64, 54
1, 750233, Control_c, 0, 64, 59
1, 750239, Note_on_c, 0, 71, 69
1, 750246, Note_off_c, 0, 74, 60
1, 750249, Control_c, 0, 64, 65
1, 750264, Control_c, 0, 64, 73
1, 750279, Control_c, 0, 64, 94
1, 750294, Control_c, 0, 64, 127
1, 750296, Note_off_c, 0, 86, 50
1, 750314, Note_off_c, 0, 71, 64
1, 750321, Note_on_c, 0, 68, 66
1, 750357, Note_off_c, 0, 82, 58
1, 750391, Note_off_c, 0, 79, 62
1, 750393, Note_on_c, 0, 71, 60
1, 750457, Note_on_c, 0, 74, 65
1, 750561, Control_c, 0, 64, 109
1, 750565, Note_on_c, 0, 77, 62
1, 750567, Note_off_c, 0, 74, 59
1, 750568, Note_on_c, 0, 82, 75
1, 750568, Note_on_c, 0, 86, 76
1, 750575, Control_c, 0, 64, 88
1, 750590, Control_c, 0, 64, 74
1, 750605, Control_c, 0, 64, 65
1, 750620, Control_c, 0, 64, 56
1, 750635, Control_c, 0, 64, 52
1, 750640, Note_off_c, 0, 71, 60
1, 750664, Control_c, 0, 64, 53
1, 750665, Note_on_c, 0, 74, 60
1, 750669, Note_off_c, 0, 68, 41
1, 750671, Note_off_c, 0, 86, 61
1, 750679, Control_c, 0, 64, 57
1, 750694, Control_c, 0, 64, 64
1, 750709, Control_c, 0, 64, 76
1, 750723, Control_c, 0, 64, 110
1, 750730, Note_off_c, 0, 82, 62
1, 750738, Control_c, 0, 64, 127
1, 750749, Note_off_c, 0, 74, 59
1, 750758, Note_on_c, 0, 71, 61
1, 750818, Note_off_c, 0, 71, 62
1, 750841, Note_on_c, 0, 68, 56
1, 750901, Note_off_c, 0, 68, 54
1, 750919, Note_on_c, 0, 71, 56
1, 750931, Note_off_c, 0, 77, 43
1, 750990, Note_on_c, 0, 74, 57
1, 750995, Note_off_c, 0, 71, 54
1, 751062, Note_off_c, 0, 74, 62
1, 751083, Note_on_c, 0, 77, 46
1, 751086, Note_on_c, 0, 70, 68
1, 751087, Control_c, 0, 64, 104
1, 751089, Note_on_c, 0, 56, 69
1, 751102, Control_c, 0, 64, 81
1, 751117, Control_c, 0, 64, 66
1, 751124, Note_off_c, 0, 56, 66
1, 751124, Note_off_c, 0, 70, 59
1, 751132, Control_c, 0, 64, 47
1, 751146, Control_c, 0, 64, 0
1, 751150, Note_off_c, 0, 77, 56
1, 751187, Note_on_c, 0, 74, 51
1, 751233, Note_off_c, 0, 74, 60
1, 751259, Note_on_c, 0, 71, 49
1, 751336, Note_off_c, 0, 71, 62
1, 751351, Note_on_c, 0, 62, 66
1, 751361, Note_on_c, 0, 59, 48
1, 751372, Note_on_c, 0, 68, 42
1, 751378, Note_off_c, 0, 62, 66
1, 751387, Note_off_c, 0, 59, 57
1, 751417, Note_off_c, 0, 68, 57
1, 751452, Note_on_c, 0, 71, 52
1, 751521, Note_on_c, 0, 74, 54
1, 751542, Note_off_c, 0, 71, 53
1, 751584, Note_off_c, 0, 74, 60
1, 751600, Note_on_c, 0, 70, 80
1, 751605, Note_on_c, 0, 56, 73
1, 751618, Note_on_c, 0, 77, 54
1, 751632, Note_off_c, 0, 56, 67
1, 751651, Note_off_c, 0, 70, 61
1, 751695, Note_off_c, 0, 77, 53
1, 751707, Note_on_c, 0, 74, 64
1, 751777, Note_off_c, 0, 74, 61
1, 751780, Note_on_c, 0, 71, 51
1, 751865, Note_off_c, 0, 71, 64
1, 751867, Note_on_c, 0, 62, 82
1, 751870, Note_on_c, 0, 59, 72
1, 751878, Note_on_c, 0, 68, 63
1, 751894, Note_off_c, 0, 62, 69
1, 751897, Note_off_c, 0, 59, 68
1, 751957, Note_on_c, 0, 71, 68
1, 751959, Note_off_c, 0, 68, 56
1, 752032, Note_on_c, 0, 74, 64
1, 752058, Note_off_c, 0, 71, 59
1, 752115, Note_on_c, 0, 70, 93
1, 752117, Note_on_c, 0, 56, 79
1, 752128, Note_off_c, 0, 74, 62
1, 752130, Note_on_c, 0, 77, 73
1, 752141, Note_off_c, 0, 56, 67
1, 752149, Note_off_c, 0, 70, 63
1, 752216, Note_on_c, 0, 74, 71
1, 752216, Note_off_c, 0, 77, 59
1, 752290, Note_on_c, 0, 71, 65
1, 752305, Note_off_c, 0, 74, 58
1, 752375, Note_on_c, 0, 62, 88
1, 752379, Note_on_c, 0, 59, 75
1, 752399, Note_off_c, 0, 71, 63
1, 752409, Note_on_c, 0, 68, 68
1, 752411, Note_off_c, 0, 59, 68
1, 752418, Note_off_c, 0, 62, 62
1, 752475, Note_on_c, 0, 71, 71
1, 752487, Note_off_c, 0, 68, 58
1, 752505, Poly_aftertouch_c, 0, 77, 0
1, 752552, Note_on_c, 0, 74, 74
1, 752594, Note_off_c, 0, 71, 56
1, 752642, Note_on_c, 0, 64, 90
1, 752645, Note_on_c, 0, 56, 90
1, 752665, Note_on_c, 0, 77, 75
1, 752669, Note_off_c, 0, 74, 63
1, 752734, Control_c, 0, 64, 47
1, 752749, Control_c, 0, 64, 63
1, 752752, Note_on_c, 0, 74, 72
1, 752764, Control_c, 0, 64, 71
1, 752770, Note_off_c, 0, 77, 60
1, 752778, Control_c, 0, 64, 107
1, 752793, Control_c, 0, 64, 127
1, 752826, Note_on_c, 0, 71, 75
1, 752858, Note_off_c, 0, 74, 61
1, 752866, Note_off_c, 0, 64, 56
1, 752908, Note_off_c, 0, 56, 60
1, 752911, Note_on_c, 0, 68, 85
1, 752934, Note_off_c, 0, 71, 63
1, 752992, Note_on_c, 0, 71, 77
1, 753029, Note_off_c, 0, 68, 57
1, 753036, Poly_aftertouch_c, 0, 56, 127
1, 753074, Note_on_c, 0, 74, 90
1, 753075, Poly_aftertouch_c, 0, 56, 0
1, 753116, Note_off_c, 0, 71, 63
1, 753179, Note_on_c, 0, 56, 86
1, 753181, Note_on_c, 0, 64, 89
1, 753185, Control_c, 0, 64, 86
1, 753188, Note_on_c, 0, 77, 88
1, 753200, Note_off_c, 0, 74, 64
1, 753200, Control_c, 0, 64, 67
1, 753215, Control_c, 0, 64, 54
1, 753230, Control_c, 0, 64, 46
1, 753244, Control_c, 0, 64, 49
1, 753259, Control_c, 0, 64, 58
1, 753274, Control_c, 0, 64, 65
1, 753289, Control_c, 0, 64, 73
1, 753290, Note_on_c, 0, 76, 93
1, 753304, Control_c, 0, 64, 92
1, 753310, Note_off_c, 0, 77, 65
1, 753318, Control_c, 0, 64, 127
1, 753368, Note_off_c, 0, 56, 60
1, 753389, Note_on_c, 0, 75, 91
1, 753390, Note_off_c, 0, 64, 60
1, 753439, Note_off_c, 0, 76, 62
1, 753531, Note_on_c, 0, 76, 99
1, 753581, Note_off_c, 0, 75, 56
1, 753735, Control_c, 0, 64, 115
1, 753748, Control_c, 0, 64, 107
1, 753763, Control_c, 0, 64, 103
1, 753778, Control_c, 0, 64, 101
1, 753792, Control_c, 0, 64, 99
1, 753807, Control_c, 0, 64, 97
1, 753822, Control_c, 0, 64, 94
1, 753837, Control_c, 0, 64, 91
1, 753852, Control_c, 0, 64, 87
1, 753867, Control_c, 0, 64, 83
1, 753889, Control_c, 0, 64, 81
1, 753904, Control_c, 0, 64, 79
1, 753918, Control_c, 0, 64, 76
1, 753925, Note_on_c, 0, 83, 83
1, 753925, Note_on_c, 0, 87, 92
1, 753933, Control_c, 0, 64, 72
1, 753948, Control_c, 0, 64, 68
1, 753963, Control_c, 0, 64, 64
1, 753978, Control_c, 0, 64, 59
1, 753992, Control_c, 0, 64, 52
1, 754007, Control_c, 0, 64, 43
1, 754022, Control_c, 0, 64, 27
1, 754037, Control_c, 0, 64, 0
1, 754108, Note_on_c, 0, 75, 85
1, 754156, Control_c, 0, 64, 50
1, 754171, Control_c, 0, 64, 62
1, 754177, Note_off_c, 0, 83, 55
1, 754185, Control_c, 0, 64, 69
1, 754200, Control_c, 0, 64, 84
1, 754206, Note_on_c, 0, 71, 77
1, 754215, Control_c, 0, 64, 127
1, 754275, Note_off_c, 0, 75, 57
1, 754314, Note_on_c, 0, 68, 63
1, 754320, Note_on_c, 0, 90, 91
1, 754324, Note_on_c, 0, 86, 85
1, 754349, Note_off_c, 0, 71, 59
1, 754377, Note_off_c, 0, 87, 63
1, 754394, Control_c, 0, 64, 89
1, 754408, Control_c, 0, 64, 72
1, 754423, Control_c, 0, 64, 62
1, 754438, Control_c, 0, 64, 55
1, 754449, Note_on_c, 0, 71, 74
1, 754453, Control_c, 0, 64, 59
1, 754468, Control_c, 0, 64, 64
1, 754483, Control_c, 0, 64, 70
1, 754496, Note_off_c, 0, 76, 55
1, 754497, Control_c, 0, 64, 85
1, 754512, Control_c, 0, 64, 127
1, 754517, Note_on_c, 0, 75, 78
1, 754605, Note_on_c, 0, 89, 89
1, 754613, Note_on_c, 0, 85, 82
1, 754613, Note_off_c, 0, 75, 61
1, 754614, Note_on_c, 0, 76, 68
1, 754648, Note_off_c, 0, 86, 64
1, 754683, Control_c, 0, 64, 94
1, 754686, Note_off_c, 0, 90, 58
1, 754694, Note_off_c, 0, 71, 59
1, 754697, Control_c, 0, 64, 73
1, 754712, Control_c, 0, 64, 58
1, 754727, Control_c, 0, 64, 42
1, 754732, Note_on_c, 0, 75, 65
1, 754741, Control_c, 0, 64, 40
1, 754756, Control_c, 0, 64, 40
1, 754758, Note_off_c, 0, 68, 45
1, 754771, Control_c, 0, 64, 44
1, 754786, Control_c, 0, 64, 52
1, 754789, Note_off_c, 0, 75, 59
1, 754801, Control_c, 0, 64, 63
1, 754802, Note_on_c, 0, 71, 67
1, 754815, Control_c, 0, 64, 71
1, 754830, Control_c, 0, 64, 89
1, 754845, Control_c, 0, 64, 127
1, 754877, Note_off_c, 0, 71, 64
1, 754880, Note_on_c, 0, 68, 79
1, 754882, Note_on_c, 0, 90, 40
1, 754909, Note_off_c, 0, 90, 38
1, 754953, Note_on_c, 0, 71, 71
1, 754982, Note_off_c, 0, 76, 62
1, 755032, Note_on_c, 0, 75, 76
1, 755118, Note_on_c, 0, 88, 92
1, 755118, Note_off_c, 0, 75, 62
1, 755120, Note_on_c, 0, 76, 69
1, 755126, Note_on_c, 0, 83, 84
1, 755128, Control_c, 0, 64, 107
1, 755143, Control_c, 0, 64, 80
1, 755152, Note_off_c, 0, 85, 64
1, 755158, Control_c, 0, 64, 67
1, 755173, Control_c, 0, 64, 61
1, 755187, Control_c, 0, 64, 63
1, 755202, Control_c, 0, 64, 69
1, 755204, Note_off_c, 0, 71, 61
1, 755217, Control_c, 0, 64, 82
1, 755224, Note_off_c, 0, 89, 51
1, 755228, Note_on_c, 0, 75, 72
1, 755231, Control_c, 0, 64, 127
1, 755296, Note_off_c, 0, 68, 50
1, 755304, Note_on_c, 0, 71, 71
1, 755306, Note_off_c, 0, 75, 62
1, 755389, Note_on_c, 0, 87, 94
1, 755397, Note_on_c, 0, 68, 82
1, 755397, Note_off_c, 0, 71, 64
1, 755429, Note_off_c, 0, 88, 62
1, 755475, Note_on_c, 0, 71, 78
1, 755482, Note_off_c, 0, 76, 64
1, 755528, Note_off_c, 0, 87, 62
1, 755542, Note_off_c, 0, 68, 54
1, 755547, Note_on_c, 0, 75, 87
1, 755641, Note_on_c, 0, 86, 95
1, 755644, Note_on_c, 0, 77, 91
1, 755644, Note_on_c, 0, 82, 92
1, 755667, Note_off_c, 0, 75, 62
1, 755668, Note_off_c, 0, 83, 66
1, 755698, Control_c, 0, 64, 93
1, 755712, Control_c, 0, 64, 64
1, 755718, Note_off_c, 0, 71, 58
1, 755727, Control_c, 0, 64, 0
1, 755748, Note_on_c, 0, 74, 72
1, 755827, Note_on_c, 0, 71, 80
1, 755832, Control_c, 0, 64, 58
1, 755846, Note_off_c, 0, 74, 62
1, 755847, Control_c, 0, 64, 77
1, 755861, Control_c, 0, 64, 127
1, 755892, Note_off_c, 0, 86, 54
1, 755897, Note_on_c, 0, 68, 84
1, 755922, Note_off_c, 0, 71, 60
1, 755946, Note_off_c, 0, 82, 59
1, 755974, Note_on_c, 0, 71, 74
1, 755994, Note_off_c, 0, 77, 58
1, 756043, Note_on_c, 0, 74, 81
1, 756094, Note_off_c, 0, 68, 50
1, 756164, Note_on_c, 0, 82, 90
1, 756164, Note_on_c, 0, 86, 95
1, 756165, Note_on_c, 0, 79, 81
1, 756180, Control_c, 0, 64, 98
1, 756181, Note_off_c, 0, 74, 61
1, 756194, Control_c, 0, 64, 84
1, 756209, Poly_aftertouch_c, 0, 68, 127
1, 756209, Control_c, 0, 64, 72
1, 756224, Control_c, 0, 64, 64
1, 756239, Control_c, 0, 64, 55
1, 756245, Note_off_c, 0, 71, 60
1, 756254, Control_c, 0, 64, 49
1, 756259, Poly_aftertouch_c, 0, 68, 0
1, 756268, Control_c, 0, 64, 48
1, 756270, Note_on_c, 0, 74, 70
1, 756298, Control_c, 0, 64, 49
1, 756313, Control_c, 0, 64, 54
1, 756328, Control_c, 0, 64, 61
1, 756342, Control_c, 0, 64, 66
1, 756357, Control_c, 0, 64, 72
1, 756358, Note_on_c, 0, 71, 73
1, 756372, Control_c, 0, 64, 83
1, 756379, Note_off_c, 0, 74, 58
1, 756386, Control_c, 0, 64, 117
1, 756401, Control_c, 0, 64, 127
1, 756403, Note_off_c, 0, 86, 48
1, 756433, Note_on_c, 0, 68, 65
1, 756434, Note_off_c, 0, 71, 61
1, 756479, Note_off_c, 0, 82, 53
1, 756506, Note_on_c, 0, 71, 61
1, 756526, Note_off_c, 0, 79, 43
1, 756586, Note_on_c, 0, 74, 67
1, 756590, Note_off_c, 0, 68, 33
1, 756637, Note_off_c, 0, 71, 56
1, 756654, Control_c, 0, 64, 108
1, 756658, Note_on_c, 0, 86, 83
1, 756663, Note_on_c, 0, 82, 78
1, 756669, Control_c, 0, 64, 83
1, 756684, Control_c, 0, 64, 71
1, 756699, Note_on_c, 0, 77, 65
1, 756699, Control_c, 0, 64, 64
1, 756699, Note_off_c, 0, 74, 60
1, 756714, Control_c, 0, 64, 58
1, 756729, Control_c, 0, 64, 57
1, 756744, Control_c, 0, 64, 61
1, 756758, Control_c, 0, 64, 67
1, 756773, Control_c, 0, 64, 76
1, 756780, Note_on_c, 0, 74, 65
1, 756788, Control_c, 0, 64, 101
1, 756792, Note_off_c, 0, 77, 61
1, 756802, Control_c, 0, 64, 127
1, 756840, Note_on_c, 0, 71, 65
1, 756886, Note_off_c, 0, 74, 62
1, 756920, Note_on_c, 0, 68, 72
1, 756943, Note_off_c, 0, 71, 65
1, 756966, Note_off_c, 0, 68, 64
1, 756992, Note_off_c, 0, 86, 48
1, 756994, Note_off_c, 0, 82, 64
1, 756998, Note_on_c, 0, 77, 83
1, 757042, Note_on_c, 0, 64, 62
1, 757086, Note_off_c, 0, 64, 53
1, 757118, Note_on_c, 0, 60, 59
1, 757128, Note_on_c, 0, 62, 63
1, 757165, Control_c, 0, 64, 108
1, 757170, Note_off_c, 0, 60, 63
1, 757171, Note_on_c, 0, 74, 88
1, 757173, Note_off_c, 0, 62, 56
1, 757180, Control_c, 0, 64, 84
1, 757193, Note_off_c, 0, 77, 47
1, 757195, Control_c, 0, 64, 69
1, 757196, Note_on_c, 0, 65, 74
1, 757209, Control_c, 0, 64, 59
1, 757224, Control_c, 0, 64, 45
1, 757239, Control_c, 0, 64, 47
1, 757254, Control_c, 0, 64, 57
1, 757269, Control_c, 0, 64, 63
1, 757273, Note_on_c, 0, 62, 72
1, 757274, Note_off_c, 0, 65, 60
1, 757283, Control_c, 0, 64, 67
1, 757298, Control_c, 0, 64, 73
1, 757313, Control_c, 0, 64, 92
1, 757328, Control_c, 0, 64, 127
1, 757349, Note_on_c, 0, 59, 67
1, 757371, Note_off_c, 0, 62, 59
1, 757409, Note_on_c, 0, 70, 81
1, 757426, Note_off_c, 0, 59, 63
1, 757431, Note_off_c, 0, 74, 60
1, 757438, Note_on_c, 0, 56, 58
1, 757470, Note_off_c, 0, 56, 66
1, 757499, Note_off_c, 0, 70, 63
1, 757520, Note_on_c, 0, 53, 72
1, 757596, Note_off_c, 0, 53, 58
1, 757601, Note_on_c, 0, 50, 56
1, 757654, Note_on_c, 0, 65, 79
1, 757677, Control_c, 0, 64, 88
1, 757680, Note_off_c, 0, 50, 56
1, 757692, Control_c, 0, 64, 69
1, 757706, Control_c, 0, 64, 57
1, 757721, Control_c, 0, 64, 41
1, 757736, Control_c, 0, 64, 38
1, 757749, Note_on_c, 0, 62, 72
1, 757751, Control_c, 0, 64, 40
1, 757766, Control_c, 0, 64, 48
1, 757781, Control_c, 0, 64, 57
1, 757791, Note_off_c, 0, 65, 56
1, 757796, Control_c, 0, 64, 63
1, 757811, Control_c, 0, 64, 67
1, 757826, Control_c, 0, 64, 76
1, 757827, Note_on_c, 0, 58, 78
1, 757840, Control_c, 0, 64, 101
1, 757855, Control_c, 0, 64, 127
1, 757856, Note_off_c, 0, 62, 62
1, 757906, Note_on_c, 0, 53, 73
1, 757911, Note_off_c, 0, 58, 61
1, 757966, Note_on_c, 0, 50, 70
1, 757981, Note_off_c, 0, 53, 60
1, 758034, Note_off_c, 0, 50, 64
1, 758051, Note_on_c, 0, 46, 55
1, 758078, Note_off_c, 0, 46, 56
1, 758157, Note_on_c, 0, 46, 75
1, 758177, Note_on_c, 0, 38, 60
1, 758180, Control_c, 0, 64, 116
1, 758195, Note_on_c, 0, 45, 47
1, 758195, Control_c, 0, 64, 89
1, 758210, Control_c, 0, 64, 75
1, 758226, Control_c, 0, 64, 65
1, 758237, Note_off_c, 0, 45, 46
1, 758241, Control_c, 0, 64, 53
1, 758255, Control_c, 0, 64, 45
1, 758264, Note_off_c, 0, 38, 59
1, 758270, Control_c, 0, 64, 45
1, 758276, Note_on_c, 0, 35, 48
1, 758285, Control_c, 0, 64, 45
1, 758300, Control_c, 0, 64, 47
1, 758315, Control_c, 0, 64, 52
1, 758319, Note_off_c, 0, 35, 60
1, 758329, Control_c, 0, 64, 57
1, 758332, Note_on_c, 0, 32, 59
1, 758344, Control_c, 0, 64, 62
1, 758359, Control_c, 0, 64, 65
1, 758374, Control_c, 0, 64, 70
1, 758396, Control_c, 0, 64, 85
1, 758411, Control_c, 0, 64, 127
1, 758428, Note_on_c, 0, 35, 57
1, 758469, Note_off_c, 0, 46, 60
1, 758492, Note_off_c, 0, 32, 36
1, 758511, Note_on_c, 0, 38, 72
1, 758539, Note_off_c, 0, 35, 52
1, 758579, Note_on_c, 0, 41, 80
1, 758595, Note_off_c, 0, 38, 61
1, 758675, Note_on_c, 0, 46, 98
1, 758677, Note_on_c, 0, 38, 77
1, 758690, Note_off_c, 0, 41, 62
1, 758737, Control_c, 0, 64, 86
1, 758752, Control_c, 0, 64, 69
1, 758763, Note_on_c, 0, 35, 71
1, 758767, Control_c, 0, 64, 59
1, 758781, Control_c, 0, 64, 46
1, 758787, Note_off_c, 0, 38, 61
1, 758796, Control_c, 0, 64, 43
1, 758826, Control_c, 0, 64, 45
1, 758837, Note_on_c, 0, 32, 71
1, 758841, Control_c, 0, 64, 50
1, 758853, Note_off_c, 0, 35, 59
1, 758855, Control_c, 0, 64, 57
1, 758870, Control_c, 0, 64, 62
1, 758885, Control_c, 0, 64, 66
1, 758900, Control_c, 0, 64, 72
1, 758915, Control_c, 0, 64, 83
1, 758918, Note_on_c, 0, 35, 57
1, 758929, Control_c, 0, 64, 119
1, 758944, Control_c, 0, 64, 127
1, 758980, Note_off_c, 0, 32, 45
1, 758995, Note_on_c, 0, 38, 78
1, 759039, Note_off_c, 0, 35, 59
1, 759069, Note_on_c, 0, 41, 80
1, 759092, Note_off_c, 0, 38, 63
1, 759160, Control_c, 0, 64, 75
1, 759168, Note_on_c, 0, 38, 84
1, 759168, Note_on_c, 0, 47, 95
1, 759175, Control_c, 0, 64, 54
1, 759184, Note_off_c, 0, 41, 63
1, 759190, Control_c, 0, 64, 0
1, 759234, Control_c, 0, 64, 43
1, 759249, Control_c, 0, 64, 60
1, 759253, Note_on_c, 0, 41, 84
1, 759253, Note_off_c, 0, 46, 60
1, 759264, Control_c, 0, 64, 69
1, 759265, Note_off_c, 0, 38, 63
1, 759279, Control_c, 0, 64, 95
1, 759293, Control_c, 0, 64, 127
1, 759343, Note_on_c, 0, 43, 88
1, 759371, Note_off_c, 0, 41, 64
1, 759384, Note_off_c, 0, 47, 63
1, 759411, Control_c, 0, 64, 79
1, 759425, Note_on_c, 0, 48, 99
1, 759426, Control_c, 0, 64, 58
1, 759431, Note_on_c, 0, 44, 86
1, 759441, Control_c, 0, 64, 0
1, 759448, Note_off_c, 0, 43, 63
1, 759471, Control_c, 0, 64, 38
1, 759486, Control_c, 0, 64, 57
1, 759501, Control_c, 0, 64, 65
1, 759506, Note_off_c, 0, 44, 64
1, 759516, Control_c, 0, 64, 75
1, 759531, Control_c, 0, 64, 102
1, 759537, Note_off_c, 0, 48, 66
1, 759546, Control_c, 0, 64, 127
1, 759664, Control_c, 0, 64, 125
1, 759678, Control_c, 0, 64, 102
1, 759693, Control_c, 0, 64, 90
1, 759708, Control_c, 0, 64, 80
1, 759723, Control_c, 0, 64, 75
1, 759727, Note_on_c, 0, 38, 72
1, 759730, Note_on_c, 0, 32, 51
1, 759730, Note_on_c, 0, 49, 89
1, 759730, Note_on_c, 0, 62, 96
1, 759739, Control_c, 0, 64, 70
1, 759753, Control_c, 0, 64, 65
1, 759768, Control_c, 0, 64, 58
1, 759783, Control_c, 0, 64, 47
1, 759797, Control_c, 0, 64, 46
1, 759812, Control_c, 0, 64, 45
1, 759828, Control_c, 0, 64, 43
1, 759843, Control_c, 0, 64, 39
1, 759858, Control_c, 0, 64, 33
1, 759873, Control_c, 0, 64, 28
1, 759895, Control_c, 0, 64, 24
1, 759909, Control_c, 0, 64, 19
1, 759924, Control_c, 0, 64, 11
1, 759939, Control_c, 0, 64, 0
1, 760017, Note_on_c, 0, 41, 82
1, 760042, Note_off_c, 0, 38, 62
1, 760077, Note_off_c, 0, 32, 53
1, 760090, Note_off_c, 0, 49, 57
1, 760094, Note_off_c, 0, 62, 60
1, 760279, Note_on_c, 0, 62, 95
1, 760281, Note_on_c, 0, 49, 85
1, 760285, Note_on_c, 0, 39, 73
1, 760293, Note_on_c, 0, 33, 58
1, 760328, Note_off_c, 0, 41, 57
1, 760540, Note_on_c, 0, 42, 79
1, 760541, Note_off_c, 0, 39, 63
1, 760560, Note_off_c, 0, 33, 30
1, 760615, Note_off_c, 0, 49, 58
1, 760630, Note_off_c, 0, 62, 58
1, 760824, Note_on_c, 0, 62, 91
1, 760826, Note_on_c, 0, 49, 89
1, 760830, Note_on_c, 0, 40, 67
1, 760837, Note_on_c, 0, 34, 60
1, 760881, Note_off_c, 0, 42, 52
1, 761075, Note_off_c, 0, 34, 59
1, 761086, Note_on_c, 0, 43, 79
1, 761087, Note_off_c, 0, 40, 63
1, 761156, Note_off_c, 0, 62, 55
1, 761164, Note_off_c, 0, 49, 57
1, 761356, Note_on_c, 0, 62, 93
1, 761357, Note_on_c, 0, 38, 67
1, 761357, Note_on_c, 0, 49, 88
1, 761360, Note_on_c, 0, 32, 65
1, 761391, Note_off_c, 0, 43, 56
1, 761436, Control_c, 0, 64, 28
1, 761451, Control_c, 0, 64, 45
1, 761466, Control_c, 0, 64, 56
1, 761480, Control_c, 0, 64, 62
1, 761495, Control_c, 0, 64, 66
1, 761509, Note_off_c, 0, 49, 64
1, 761510, Control_c, 0, 64, 75
1, 761525, Control_c, 0, 64, 96
1, 761534, Note_off_c, 0, 62, 61
1, 761540, Control_c, 0, 64, 127
1, 761634, Note_on_c, 0, 65, 95
1, 761636, Note_on_c, 0, 41, 74
1, 761644, Control_c, 0, 64, 96
1, 761659, Control_c, 0, 64, 74
1, 761662, Note_off_c, 0, 38, 60
1, 761673, Control_c, 0, 64, 63
1, 761688, Control_c, 0, 64, 56
1, 761703, Control_c, 0, 64, 58
1, 761718, Control_c, 0, 64, 63
1, 761733, Control_c, 0, 64, 69
1, 761747, Control_c, 0, 64, 80
1, 761762, Control_c, 0, 64, 108
1, 761771, Note_off_c, 0, 65, 54
1, 761777, Control_c, 0, 64, 127
1, 761808, Note_off_c, 0, 32, 31
1, 761829, Note_off_c, 0, 41, 56
1, 761937, Note_on_c, 0, 39, 59
1, 761942, Note_on_c, 0, 33, 58
1, 761949, Note_on_c, 0, 64, 85
1, 761952, Note_on_c, 0, 49, 77
1, 761969, Control_c, 0, 64, 100
1, 761984, Control_c, 0, 64, 84
1, 761999, Control_c, 0, 64, 73
1, 762000, Note_on_c, 0, 51, 18
1, 762014, Control_c, 0, 64, 66
1, 762029, Control_c, 0, 64, 60
1, 762044, Control_c, 0, 64, 53
1, 762047, Note_off_c, 0, 51, 39
1, 762058, Control_c, 0, 64, 45
1, 762073, Control_c, 0, 64, 38
1, 762088, Control_c, 0, 64, 30
1, 762103, Control_c, 0, 64, 27
1, 762154, Control_c, 0, 64, 28
1, 762169, Control_c, 0, 64, 31
1, 762184, Control_c, 0, 64, 37
1, 762199, Control_c, 0, 64, 45
1, 762213, Control_c, 0, 64, 54
1, 762222, Note_on_c, 0, 42, 68
1, 762230, Control_c, 0, 64, 61
1, 762245, Control_c, 0, 64, 65
1, 762259, Control_c, 0, 64, 70
1, 762274, Control_c, 0, 64, 76
1, 762289, Control_c, 0, 64, 85
1, 762293, Note_off_c, 0, 33, 37
1, 762303, Control_c, 0, 64, 98
1, 762318, Control_c, 0, 64, 122
1, 762328, Note_off_c, 0, 64, 57
1, 762333, Control_c, 0, 64, 127
1, 762337, Note_off_c, 0, 39, 34
1, 762340, Note_off_c, 0, 49, 59
1, 762390, Note_off_c, 0, 42, 56
1, 762452, Control_c, 0, 64, 110
1, 762467, Control_c, 0, 64, 101
1, 762478, Note_on_c, 0, 63, 83
1, 762480, Note_on_c, 0, 49, 69
1, 762482, Control_c, 0, 64, 92
1, 762482, Note_on_c, 0, 40, 63
1, 762484, Note_on_c, 0, 34, 60
1, 762496, Control_c, 0, 64, 83
1, 762511, Control_c, 0, 64, 76
1, 762526, Control_c, 0, 64, 71
1, 762541, Control_c, 0, 64, 66
1, 762556, Control_c, 0, 64, 64
1, 762570, Control_c, 0, 64, 63
1, 762585, Control_c, 0, 64, 61
1, 762600, Control_c, 0, 64, 60
1, 762615, Control_c, 0, 64, 58
1, 762629, Control_c, 0, 64, 56
1, 762644, Control_c, 0, 64, 55
1, 762659, Control_c, 0, 64, 53
1, 762674, Control_c, 0, 64, 52
1, 762687, Note_off_c, 0, 63, 60
1, 762689, Control_c, 0, 64, 50
1, 762703, Control_c, 0, 64, 48
1, 762718, Control_c, 0, 64, 46
1, 762733, Control_c, 0, 64, 44
1, 762735, Note_on_c, 0, 62, 68
1, 762741, Note_on_c, 0, 43, 54
1, 762747, Note_off_c, 0, 40, 60
1, 762748, Control_c, 0, 64, 43
1, 762763, Control_c, 0, 64, 41
1, 762777, Control_c, 0, 64, 40
1, 762792, Control_c, 0, 64, 39
1, 762810, Note_off_c, 0, 34, 54
1, 762822, Control_c, 0, 64, 39
1, 762839, Note_off_c, 0, 43, 58
1, 762851, Control_c, 0, 64, 38
1, 762918, Control_c, 0, 64, 39
1, 762948, Control_c, 0, 64, 39
1, 762963, Control_c, 0, 64, 40
1, 762977, Control_c, 0, 64, 42
1, 762992, Control_c, 0, 64, 43
1, 763007, Control_c, 0, 64, 45
1, 763020, Note_on_c, 0, 38, 42
1, 763022, Control_c, 0, 64, 46
1, 763038, Note_on_c, 0, 32, 35
1, 763038, Control_c, 0, 64, 46
1, 763052, Control_c, 0, 64, 47
1, 763067, Control_c, 0, 64, 49
1, 763082, Control_c, 0, 64, 51
1, 763097, Control_c, 0, 64, 53
1, 763112, Control_c, 0, 64, 56
1, 763126, Control_c, 0, 64, 58
1, 763141, Control_c, 0, 64, 60
1, 763156, Control_c, 0, 64, 63
1, 763171, Control_c, 0, 64, 64
1, 763186, Control_c, 0, 64, 67
1, 763200, Control_c, 0, 64, 71
1, 763215, Control_c, 0, 64, 77
1, 763230, Control_c, 0, 64, 85
1, 763245, Control_c, 0, 64, 98
1, 763260, Control_c, 0, 64, 127
1, 763261, Note_on_c, 0, 41, 56
1, 763332, Note_off_c, 0, 38, 37
1, 763346, Note_off_c, 0, 32, 40
1, 763382, Note_off_c, 0, 62, 58
1, 763395, Note_off_c, 0, 49, 53
1, 763403, Note_off_c, 0, 41, 62
1, 763539, Note_on_c, 0, 39, 63
1, 763541, Note_on_c, 0, 49, 72
1, 763544, Note_on_c, 0, 62, 75
1, 763549, Note_on_c, 0, 33, 53
1, 763587, Control_c, 0, 64, 106
1, 763601, Control_c, 0, 64, 86
1, 763623, Control_c, 0, 64, 73
1, 763638, Control_c, 0, 64, 65
1, 763653, Control_c, 0, 64, 59
1, 763668, Control_c, 0, 64, 57
1, 763683, Control_c, 0, 64, 56
1, 763698, Control_c, 0, 64, 55
1, 763742, Control_c, 0, 64, 57
1, 763757, Control_c, 0, 64, 60
1, 763771, Control_c, 0, 64, 64
1, 763786, Control_c, 0, 64, 69
1, 763801, Control_c, 0, 64, 79
1, 763803, Note_off_c, 0, 33, 55
1, 763816, Note_on_c, 0, 42, 85
1, 763816, Control_c, 0, 64, 96
1, 763832, Control_c, 0, 64, 127
1, 763838, Note_off_c, 0, 39, 60
1, 763954, Note_off_c, 0, 62, 60
1, 763978, Note_off_c, 0, 49, 57
1, 763984, Note_off_c, 0, 42, 60
1, 764072, Note_on_c, 0, 40, 80
1, 764075, Note_on_c, 0, 62, 88
1, 764076, Note_on_c, 0, 34, 75
1, 764077, Note_on_c, 0, 49, 86
1, 764113, Control_c, 0, 64, 110
1, 764128, Control_c, 0, 64, 83
1, 764142, Control_c, 0, 64, 69
1, 764157, Control_c, 0, 64, 58
1, 764172, Control_c, 0, 64, 41
1, 764187, Control_c, 0, 64, 31
1, 764202, Control_c, 0, 64, 30
1, 764275, Control_c, 0, 64, 31
1, 764290, Control_c, 0, 64, 33
1, 764305, Control_c, 0, 64, 39
1, 764320, Control_c, 0, 64, 46
1, 764335, Control_c, 0, 64, 55
1, 764341, Note_on_c, 0, 43, 88
1, 764349, Control_c, 0, 64, 62
1, 764372, Control_c, 0, 64, 70
1, 764378, Note_off_c, 0, 40, 63
1, 764387, Control_c, 0, 64, 95
1, 764401, Control_c, 0, 64, 127
1, 764479, Note_off_c, 0, 62, 44
1, 764499, Note_off_c, 0, 34, 49
1, 764503, Note_off_c, 0, 49, 55
1, 764561, Note_off_c, 0, 43, 58
1, 764640, Note_on_c, 0, 38, 84
1, 764641, Note_on_c, 0, 37, 75
1, 764652, Note_on_c, 0, 62, 78
1, 764652, Note_on_c, 0, 49, 79
1, 764684, Control_c, 0, 64, 99
1, 764698, Control_c, 0, 64, 78
1, 764713, Control_c, 0, 64, 66
1, 764728, Control_c, 0, 64, 56
1, 764743, Control_c, 0, 64, 48
1, 764772, Control_c, 0, 64, 50
1, 764787, Control_c, 0, 64, 56
1, 764802, Control_c, 0, 64, 63
1, 764817, Control_c, 0, 64, 71
1, 764831, Control_c, 0, 64, 94
1, 764846, Control_c, 0, 64, 127
1, 764926, Note_on_c, 0, 41, 102
1, 764973, Note_off_c, 0, 38, 59
1, 764977, Note_off_c, 0, 37, 53
1, 764977, Note_off_c, 0, 49, 60
1, 765012, Note_off_c, 0, 62, 53
1, 765162, Note_off_c, 0, 41, 63
1, 765230, Note_on_c, 0, 44, 97
1, 765232, Note_on_c, 0, 62, 92
1, 765233, Note_on_c, 0, 38, 70
1, 765235, Note_on_c, 0, 48, 96
1, 765236, Note_on_c, 0, 36, 80
1, 765298, Control_c, 0, 64, 95
1, 765313, Control_c, 0, 64, 70
1, 765328, Control_c, 0, 64, 44
1, 765343, Control_c, 0, 64, 0
1, 765418, Control_c, 0, 64, 41
1, 765433, Control_c, 0, 64, 65
1, 765448, Control_c, 0, 64, 85
1, 765463, Control_c, 0, 64, 127
1, 765560, Note_on_c, 0, 45, 102
1, 765588, Note_off_c, 0, 44, 60
1, 765656, Note_off_c, 0, 48, 60
1, 765696, Note_off_c, 0, 62, 58
1, 765788, Note_off_c, 0, 45, 59
1, 765794, Note_off_c, 0, 38, 60
1, 765805, Note_off_c, 0, 36, 60
1, 765972, Note_on_c, 0, 63, 95
1, 765973, Note_on_c, 0, 51, 100
1, 765975, Note_on_c, 0, 47, 97
1, 765977, Note_on_c, 0, 54, 86
1, 765979, Note_on_c, 0, 35, 81
1, 765982, Note_on_c, 0, 42, 79
1, 765984, Note_on_c, 0, 59, 79
1, 765986, Note_on_c, 0, 39, 79
1, 766047, Control_c, 0, 64, 81
1, 766062, Control_c, 0, 64, 53
1, 766077, Control_c, 0, 64, 0
1, 766166, Control_c, 0, 64, 55
1, 766181, Control_c, 0, 64, 75
1, 766187, Note_off_c, 0, 35, 61
1, 766195, Control_c, 0, 64, 127
1, 766240, Note_off_c, 0, 47, 60
1, 766244, Note_off_c, 0, 51, 65
1, 766254, Note_off_c, 0, 39, 63
1, 766256, Note_off_c, 0, 42, 62
1, 766277, Note_off_c, 0, 54, 63
1, 766289, Note_off_c, 0, 59, 63
1, 766291, Note_off_c, 0, 63, 61
1, 766462, Control_c, 0, 64, 75
1, 766476, Control_c, 0, 64, 13
1, 766491, Control_c, 0, 64, 0
1, 766511, Note_on_c, 0, 71, 85
1, 766511, Note_on_c, 0, 78, 103
1, 766512, Note_on_c, 0, 66, 96
1, 766512, Note_on_c, 0, 54, 88
1, 766513, Note_on_c, 0, 63, 96
1, 766515, Note_on_c, 0, 59, 86
1, 766518, Note_on_c, 0, 75, 87
1, 766580, Control_c, 0, 64, 83
1, 766595, Control_c, 0, 64, 127
1, 766622, Note_off_c, 0, 66, 66
1, 766627, Note_off_c, 0, 71, 64
1, 766628, Note_off_c, 0, 59, 65
1, 766629, Note_off_c, 0, 54, 64
1, 766636, Note_off_c, 0, 63, 63
1, 766647, Note_off_c, 0, 75, 62
1, 766659, Note_off_c, 0, 78, 62
1, 766832, Note_on_c, 0, 66, 90
1, 766835, Note_on_c, 0, 69, 94
1, 766837, Note_on_c, 0, 62, 81
1, 766868, Control_c, 0, 64, 108
1, 766880, Note_on_c, 0, 78, 78
1, 766880, Note_on_c, 0, 86, 103
1, 766881, Note_on_c, 0, 74, 96
1, 766883, Control_c, 0, 64, 67
1, 766888, Note_on_c, 0, 81, 75
1, 766898, Control_c, 0, 64, 0
1, 766957, Control_c, 0, 64, 35
1, 766972, Control_c, 0, 64, 75
1, 766987, Control_c, 0, 64, 127
1, 766993, Note_off_c, 0, 69, 63
1, 767019, Note_off_c, 0, 66, 64
1, 767031, Note_off_c, 0, 62, 65
1, 767178, Note_on_c, 0, 62, 82
1, 767232, Note_off_c, 0, 86, 49
1, 767278, Note_on_c, 0, 54, 86
1, 767287, Note_off_c, 0, 78, 60
1, 767292, Note_off_c, 0, 62, 52
1, 767372, Note_on_c, 0, 50, 87
1, 767379, Note_off_c, 0, 74, 57
1, 767411, Note_off_c, 0, 54, 64
1, 767430, Note_off_c, 0, 81, 66
1, 767439, Note_on_c, 0, 45, 87
1, 767449, Note_off_c, 0, 50, 66
1, 767467, Note_off_c, 0, 45, 68
1, 767552, Note_on_c, 0, 37, 88
1, 767555, Note_on_c, 0, 46, 89
1, 767559, Control_c, 0, 64, 92
1, 767573, Control_c, 0, 64, 56
1, 767588, Control_c, 0, 64, 0
1, 767595, Note_on_c, 0, 82, 69
1, 767597, Note_on_c, 0, 73, 101
1, 767598, Note_on_c, 0, 77, 77
1, 767598, Note_on_c, 0, 85, 91
1, 767630, Note_off_c, 0, 37, 63
1, 767633, Control_c, 0, 64, 31
1, 767648, Control_c, 0, 64, 89
1, 767661, Note_off_c, 0, 85, 66
1, 767663, Control_c, 0, 64, 127
1, 767668, Note_on_c, 0, 53, 83
1, 767686, Note_off_c, 0, 46, 64
1, 767700, Note_off_c, 0, 82, 64
1, 767704, Note_off_c, 0, 73, 60
1, 767704, Note_off_c, 0, 77, 62
1, 767716, Note_off_c, 0, 53, 62
1, 767830, Note_on_c, 0, 58, 84
1, 767832, Note_on_c, 0, 61, 86
1, 767832, Note_on_c, 0, 65, 92
1, 767921, Poly_aftertouch_c, 0, 56, 127
1, 767938, Note_off_c, 0, 65, 65
1, 767942, Poly_aftertouch_c, 0, 64, 0
1, 767948, Poly_aftertouch_c, 0, 56, 0
1, 767961, Note_off_c, 0, 61, 61
1, 767964, Note_off_c, 0, 58, 61
1, 768105, Note_on_c, 0, 60, 98
1, 768107, Note_on_c, 0, 64, 97
1, 768116, Note_on_c, 0, 55, 89
1, 768160, Control_c, 0, 64, 79
1, 768175, Control_c, 0, 64, 62
1, 768189, Control_c, 0, 64, 34
1, 768204, Control_c, 0, 64, 13
1, 768219, Control_c, 0, 64, 42
1, 768234, Control_c, 0, 64, 61
1, 768248, Control_c, 0, 64, 72
1, 768259, Note_off_c, 0, 60, 61
1, 768263, Control_c, 0, 64, 108
1, 768278, Control_c, 0, 64, 127
1, 768283, Note_off_c, 0, 55, 59
1, 768455, Note_on_c, 0, 47, 80
1, 768458, Note_on_c, 0, 59, 71
1, 768461, Note_on_c, 0, 35, 68
1, 768462, Note_on_c, 0, 51, 99
1, 768463, Note_on_c, 0, 63, 95
1, 768470, Note_on_c, 0, 42, 77
1, 768473, Note_on_c, 0, 39, 73
1, 768485, Control_c, 0, 64, 79
1, 768500, Control_c, 0, 64, 55
1, 768515, Control_c, 0, 64, 0
1, 768563, Note_off_c, 0, 64, 55
1, 768575, Control_c, 0, 64, 19
1, 768589, Control_c, 0, 64, 69
1, 768604, Control_c, 0, 64, 127
1, 768618, Note_off_c, 0, 35, 60
1, 768656, Note_off_c, 0, 51, 64
1, 768658, Note_off_c, 0, 47, 61
1, 768670, Note_off_c, 0, 39, 63
1, 768672, Note_off_c, 0, 42, 62
1, 768692, Note_off_c, 0, 59, 63
1, 768715, Note_off_c, 0, 63, 64
1, 768938, Control_c, 0, 64, 70
1, 768950, Note_on_c, 0, 54, 83
1, 768950, Note_on_c, 0, 63, 83
1, 768952, Note_on_c, 0, 59, 77
1, 768953, Control_c, 0, 64, 0
1, 768955, Note_on_c, 0, 78, 100
1, 768956, Note_on_c, 0, 71, 77
1, 768957, Note_on_c, 0, 66, 96
1, 768960, Note_on_c, 0, 75, 84
1, 769027, Control_c, 0, 64, 60
1, 769039, Note_off_c, 0, 71, 63
1, 769042, Control_c, 0, 64, 109
1, 769045, Note_off_c, 0, 66, 65
1, 769052, Note_off_c, 0, 59, 64
1, 769057, Control_c, 0, 64, 127
1, 769060, Note_off_c, 0, 75, 62
1, 769062, Note_off_c, 0, 54, 63
1, 769065, Note_off_c, 0, 63, 64
1, 769080, Note_off_c, 0, 78, 64
1, 769244, Note_on_c, 0, 69, 91
1, 769245, Note_on_c, 0, 86, 95
1, 769246, Note_on_c, 0, 66, 88
1, 769249, Note_on_c, 0, 62, 81
1, 769251, Note_on_c, 0, 78, 78
1, 769251, Note_on_c, 0, 74, 92
1, 769254, Note_on_c, 0, 81, 78
1, 769278, Control_c, 0, 64, 81
1, 769293, Control_c, 0, 64, 62
1, 769308, Control_c, 0, 64, 0
1, 769397, Control_c, 0, 64, 34
1, 769413, Control_c, 0, 64, 58
1, 769428, Control_c, 0, 64, 69
1, 769442, Control_c, 0, 64, 94
1, 769457, Control_c, 0, 64, 127
1, 769481, Note_off_c, 0, 86, 60
1, 769505, Note_off_c, 0, 78, 58
1, 769524, Note_off_c, 0, 69, 59
1, 769541, Note_off_c, 0, 74, 59
1, 769818, Note_on_c, 0, 85, 81
1, 769818, Note_on_c, 0, 70, 91
1, 769822, Note_off_c, 0, 81, 62
1, 769824, Note_on_c, 0, 77, 62
1, 769826, Note_on_c, 0, 73, 67
1, 769832, Note_on_c, 0, 82, 50
1, 769877, Note_off_c, 0, 66, 50
1, 769880, Control_c, 0, 64, 96
1, 769894, Control_c, 0, 64, 78
1, 769909, Control_c, 0, 64, 68
1, 769924, Control_c, 0, 64, 62
1, 769939, Control_c, 0, 64, 57
1, 769949, Note_off_c, 0, 62, 60
1, 769954, Control_c, 0, 64, 56
1, 769968, Control_c, 0, 64, 59
1, 769970, Note_off_c, 0, 82, 44
1, 769983, Control_c, 0, 64, 64
1, 769997, Note_off_c, 0, 85, 66
1, 769998, Control_c, 0, 64, 70
1, 770003, Note_off_c, 0, 77, 62
1, 770013, Control_c, 0, 64, 84
1, 770028, Control_c, 0, 64, 127
1, 770170, Note_off_c, 0, 73, 33
1, 770178, Note_on_c, 0, 61, 48
1, 770184, Note_on_c, 0, 65, 47
1, 770235, Note_on_c, 0, 77, 77
1, 770241, Note_on_c, 0, 73, 44
1, 770251, Control_c, 0, 64, 116
1, 770265, Control_c, 0, 64, 91
1, 770280, Control_c, 0, 64, 78
1, 770295, Control_c, 0, 64, 70
1, 770310, Control_c, 0, 64, 65
1, 770325, Control_c, 0, 64, 61
1, 770339, Control_c, 0, 64, 59
1, 770354, Control_c, 0, 64, 60
1, 770377, Control_c, 0, 64, 62
1, 770391, Control_c, 0, 64, 65
1, 770406, Control_c, 0, 64, 71
1, 770420, Note_off_c, 0, 70, 58
1, 770421, Control_c, 0, 64, 83
1, 770436, Control_c, 0, 64, 127
1, 770507, Note_off_c, 0, 65, 61
1, 770560, Note_off_c, 0, 73, 57
1, 770569, Note_on_c, 0, 72, 71
1, 770570, Note_off_c, 0, 61, 57
1, 770686, Note_on_c, 0, 73, 83
1, 770736, Note_off_c, 0, 72, 63
1, 770741, Note_off_c, 0, 77, 62
1, 770787, Note_on_c, 0, 75, 91
1, 770827, Note_off_c, 0, 73, 62
1, 770879, Note_on_c, 0, 77, 93
1, 770930, Note_off_c, 0, 75, 61
1, 771001, Note_on_c, 0, 50, 63
1, 771004, Note_on_c, 0, 42, 57
1, 771012, Note_on_c, 0, 35, 62
1, 771044, Control_c, 0, 64, 99
1, 771055, Note_on_c, 0, 78, 84
1, 771059, Control_c, 0, 64, 80
1, 771062, Note_on_c, 0, 66, 64
1, 771068, Note_on_c, 0, 71, 63
1, 771070, Note_on_c, 0, 74, 71
1, 771074, Control_c, 0, 64, 66
1, 771088, Control_c, 0, 64, 36
1, 771111, Control_c, 0, 64, 0
1, 771112, Note_off_c, 0, 77, 58
1, 771170, Control_c, 0, 64, 26
1, 771185, Control_c, 0, 64, 59
1, 771200, Control_c, 0, 64, 72
1, 771208, Note_off_c, 0, 35, 58
1, 771214, Control_c, 0, 64, 122
1, 771229, Control_c, 0, 64, 127
1, 771326, Note_on_c, 0, 36, 85
1, 771347, Control_c, 0, 64, 114
1, 771362, Control_c, 0, 64, 82
1, 771377, Control_c, 0, 64, 67
1, 771392, Control_c, 0, 64, 63
1, 771407, Control_c, 0, 64, 67
1, 771421, Control_c, 0, 64, 75
1, 771436, Control_c, 0, 64, 95
1, 771451, Control_c, 0, 64, 127
1, 771453, Note_off_c, 0, 50, 59
1, 771466, Note_off_c, 0, 78, 54
1, 771490, Note_off_c, 0, 71, 61
1, 771514, Note_off_c, 0, 66, 58
1, 771545, Note_off_c, 0, 74, 61
1, 771591, Note_on_c, 0, 37, 70
1, 771604, Note_on_c, 0, 78, 88
1, 771611, Note_on_c, 0, 70, 76
1, 771612, Note_off_c, 0, 42, 63
1, 771614, Control_c, 0, 64, 104
1, 771617, Note_on_c, 0, 66, 75
1, 771629, Control_c, 0, 64, 80
1, 771630, Note_off_c, 0, 36, 58
1, 771639, Note_on_c, 0, 73, 58
1, 771644, Control_c, 0, 64, 66
1, 771658, Control_c, 0, 64, 48
1, 771673, Control_c, 0, 64, 0
1, 771718, Control_c, 0, 64, 13
1, 771732, Control_c, 0, 64, 47
1, 771747, Control_c, 0, 64, 63
1, 771762, Control_c, 0, 64, 71
1, 771770, Note_off_c, 0, 37, 61
1, 771777, Control_c, 0, 64, 98
1, 771792, Control_c, 0, 64, 127
1, 771833, Note_off_c, 0, 78, 58
1, 771866, Note_off_c, 0, 70, 38
1, 771889, Note_off_c, 0, 66, 54
1, 772002, Note_on_c, 0, 53, 47
1, 772021, Note_on_c, 0, 45, 37
1, 772038, Note_on_c, 0, 38, 16
1, 772046, Note_on_c, 0, 69, 63
1, 772050, Note_on_c, 0, 77, 77
1, 772051, Note_on_c, 0, 66, 75
1, 772062, Note_on_c, 0, 74, 59
1, 772067, Control_c, 0, 64, 99
1, 772082, Control_c, 0, 64, 85
1, 772096, Control_c, 0, 64, 73
1, 772111, Control_c, 0, 64, 62
1, 772126, Control_c, 0, 64, 34
1, 772141, Control_c, 0, 64, 0
1, 772146, Note_off_c, 0, 73, 53
1, 772185, Control_c, 0, 64, 38
1, 772200, Control_c, 0, 64, 60
1, 772208, Note_off_c, 0, 38, 52
1, 772215, Control_c, 0, 64, 71
1, 772230, Control_c, 0, 64, 92
1, 772244, Control_c, 0, 64, 127
1, 772281, Note_off_c, 0, 45, 42
1, 772291, Note_off_c, 0, 66, 60
1, 772368, Note_off_c, 0, 77, 52
1, 772401, Note_off_c, 0, 74, 59
1, 772447, Note_on_c, 0, 45, 39
1, 772489, Note_on_c, 0, 65, 69
1, 772491, Note_off_c, 0, 69, 62
1, 772555, Note_off_c, 0, 53, 41
1, 772632, Note_on_c, 0, 50, 51
1, 772684, Note_off_c, 0, 45, 35
1, 772760, Note_on_c, 0, 53, 58
1, 772763, Note_on_c, 0, 79, 78
1, 772770, Note_off_c, 0, 50, 56
1, 772810, Note_off_c, 0, 65, 49
1, 772853, Note_off_c, 0, 53, 61
1, 772873, Note_on_c, 0, 77, 79
1, 772879, Note_on_c, 0, 57, 52
1, 772930, Note_off_c, 0, 57, 60
1, 773023, Control_c, 0, 64, 122
1, 773038, Control_c, 0, 64, 105
1, 773044, Note_off_c, 0, 79, 53
1, 773045, Note_on_c, 0, 57, 49
1, 773045, Note_on_c, 0, 72, 63
1, 773046, Note_on_c, 0, 60, 52
1, 773047, Note_on_c, 0, 76, 69
1, 773053, Control_c, 0, 64, 95
1, 773067, Control_c, 0, 64, 90
1, 773082, Control_c, 0, 64, 85
1, 773097, Control_c, 0, 64, 80
1, 773112, Control_c, 0, 64, 73
1, 773118, Note_off_c, 0, 77, 55
1, 773127, Control_c, 0, 64, 67
1, 773141, Control_c, 0, 64, 61
1, 773156, Control_c, 0, 64, 55
1, 773171, Control_c, 0, 64, 52
1, 773186, Control_c, 0, 64, 52
1, 773231, Control_c, 0, 64, 51
1, 773246, Control_c, 0, 64, 51
1, 773332, Note_on_c, 0, 62, 68
1, 773335, Note_on_c, 0, 59, 55
1, 773407, Note_off_c, 0, 60, 57
1, 773461, Control_c, 0, 64, 51
1, 773467, Note_off_c, 0, 57, 49
1, 773476, Control_c, 0, 64, 52
1, 773490, Control_c, 0, 64, 52
1, 773505, Control_c, 0, 64, 53
1, 773520, Control_c, 0, 64, 53
1, 773535, Control_c, 0, 64, 54
1, 773550, Control_c, 0, 64, 54
1, 773580, Control_c, 0, 64, 55
1, 773595, Control_c, 0, 64, 56
1, 773609, Control_c, 0, 64, 57
1, 773624, Control_c, 0, 64, 59
1, 773626, Note_on_c, 0, 60, 62
1, 773628, Note_on_c, 0, 64, 59
1, 773639, Control_c, 0, 64, 61
1, 773654, Control_c, 0, 64, 63
1, 773666, Note_off_c, 0, 59, 55
1, 773669, Control_c, 0, 64, 65
1, 773683, Control_c, 0, 64, 67
1, 773698, Control_c, 0, 64, 72
1, 773702, Note_off_c, 0, 62, 55
1, 773713, Control_c, 0, 64, 78
1, 773727, Control_c, 0, 64, 89
1, 773742, Control_c, 0, 64, 112
1, 773757, Control_c, 0, 64, 127
1, 773782, Note_off_c, 0, 60, 63
1, 773920, Control_c, 0, 64, 113
1, 773928, Note_off_c, 0, 76, 60
1, 773934, Control_c, 0, 64, 93
1, 773937, Note_on_c, 0, 74, 62
1, 773939, Note_on_c, 0, 65, 45
1, 773943, Note_on_c, 0, 71, 49
1, 773948, Note_on_c, 0, 62, 37
1, 773949, Control_c, 0, 64, 81
1, 773964, Control_c, 0, 64, 72
1, 773979, Control_c, 0, 64, 64
1, 773990, Note_off_c, 0, 64, 46
1, 773994, Control_c, 0, 64, 59
1, 774009, Control_c, 0, 64, 54
1, 774024, Control_c, 0, 64, 54
1, 774034, Note_off_c, 0, 72, 59
1, 774039, Control_c, 0, 64, 55
1, 774053, Control_c, 0, 64, 59
1, 774068, Control_c, 0, 64, 64
1, 774083, Control_c, 0, 64, 69
1, 774098, Control_c, 0, 64, 77
1, 774110, Note_off_c, 0, 65, 65
1, 774120, Control_c, 0, 64, 94
1, 774134, Control_c, 0, 64, 127
1, 774181, Note_off_c, 0, 62, 56
1, 774218, Note_on_c, 0, 72, 80
1, 774224, Note_on_c, 0, 63, 66
1, 774240, Note_off_c, 0, 74, 57
1, 774262, Note_off_c, 0, 71, 59
1, 774370, Note_off_c, 0, 63, 58
1, 774476, Note_on_c, 0, 71, 80
1, 774479, Note_on_c, 0, 66, 68
1, 774563, Note_off_c, 0, 72, 49
1, 774578, Note_off_c, 0, 66, 59
1, 774661, Note_off_c, 0, 71, 59
1, 774686, Note_on_c, 0, 36, 45
1, 774695, Note_on_c, 0, 45, 45
1, 774743, Control_c, 0, 64, 102
1, 774757, Control_c, 0, 64, 89
1, 774772, Control_c, 0, 64, 79
1, 774781, Note_on_c, 0, 71, 56
1, 774787, Control_c, 0, 64, 70
1, 774790, Note_on_c, 0, 64, 52
1, 774802, Control_c, 0, 64, 63
1, 774809, Note_on_c, 0, 69, 59
1, 774817, Control_c, 0, 64, 55
1, 774832, Control_c, 0, 64, 50
1, 774869, Control_c, 0, 64, 53
1, 774883, Control_c, 0, 64, 58
1, 774898, Control_c, 0, 64, 63
1, 774903, Note_off_c, 0, 36, 61
1, 774913, Control_c, 0, 64, 67
1, 774917, Note_off_c, 0, 64, 59
1, 774928, Control_c, 0, 64, 74
1, 774943, Control_c, 0, 64, 90
1, 774957, Control_c, 0, 64, 127
1, 774992, Note_on_c, 0, 72, 76
1, 774997, Note_on_c, 0, 52, 54
1, 774999, Note_off_c, 0, 69, 64
1, 775020, Note_off_c, 0, 71, 63
1, 775034, Note_off_c, 0, 45, 55
1, 775058, Note_off_c, 0, 72, 63
1, 775098, Note_off_c, 0, 52, 60
1, 775118, Note_on_c, 0, 72, 82
1, 775361, Note_on_c, 0, 81, 76
1, 775370, Note_on_c, 0, 73, 70
1, 775478, Note_off_c, 0, 72, 53
1, 775618, Control_c, 0, 64, 119
1, 775633, Control_c, 0, 64, 113
1, 775648, Control_c, 0, 64, 109
1, 775662, Control_c, 0, 64, 104
1, 775677, Control_c, 0, 64, 101
1, 775678, Note_on_c, 0, 69, 38
1, 775679, Note_on_c, 0, 65, 39
1, 775692, Control_c, 0, 64, 98
1, 775693, Note_on_c, 0, 83, 69
1, 775705, Note_on_c, 0, 74, 48
1, 775706, Control_c, 0, 64, 96
1, 775721, Control_c, 0, 64, 94
1, 775736, Control_c, 0, 64, 91
1, 775751, Control_c, 0, 64, 86
1, 775766, Control_c, 0, 64, 82
1, 775780, Control_c, 0, 64, 79
1, 775795, Control_c, 0, 64, 75
1, 775799, Note_off_c, 0, 73, 54
1, 775811, Control_c, 0, 64, 70
1, 775826, Control_c, 0, 64, 65
1, 775830, Note_off_c, 0, 81, 60
1, 775841, Control_c, 0, 64, 59
1, 775856, Control_c, 0, 64, 55
1, 775871, Control_c, 0, 64, 52
1, 775885, Control_c, 0, 64, 52
1, 775959, Control_c, 0, 64, 54
1, 775974, Control_c, 0, 64, 56
1, 775983, Note_on_c, 0, 67, 76
1, 775988, Note_on_c, 0, 64, 64
1, 775989, Control_c, 0, 64, 59
1, 776003, Control_c, 0, 64, 61
1, 776018, Control_c, 0, 64, 64
1, 776024, Note_off_c, 0, 65, 59
1, 776033, Control_c, 0, 64, 68
1, 776048, Control_c, 0, 64, 73
1, 776063, Control_c, 0, 64, 82
1, 776078, Control_c, 0, 64, 108
1, 776093, Control_c, 0, 64, 127
1, 776153, Note_off_c, 0, 69, 35
1, 776234, Note_on_c, 0, 75, 87
1, 776242, Note_on_c, 0, 65, 69
1, 776271, Note_on_c, 0, 62, 53
1, 776289, Note_off_c, 0, 64, 56
1, 776378, Note_off_c, 0, 74, 59
1, 776382, Note_off_c, 0, 62, 61
1, 776525, Note_on_c, 0, 64, 64
1, 776527, Note_on_c, 0, 60, 64
1, 776541, Note_on_c, 0, 76, 84
1, 776546, Note_off_c, 0, 67, 59
1, 776574, Control_c, 0, 64, 101
1, 776589, Control_c, 0, 64, 81
1, 776600, Note_off_c, 0, 65, 61
1, 776605, Control_c, 0, 64, 69
1, 776620, Control_c, 0, 64, 58
1, 776634, Control_c, 0, 64, 38
1, 776643, Note_off_c, 0, 75, 61
1, 776649, Control_c, 0, 64, 23
1, 776679, Control_c, 0, 64, 24
1, 776694, Control_c, 0, 64, 37
1, 776708, Control_c, 0, 64, 56
1, 776723, Control_c, 0, 64, 65
1, 776738, Control_c, 0, 64, 78
1, 776752, Control_c, 0, 64, 127
1, 776763, Note_off_c, 0, 64, 61
1, 776779, Note_off_c, 0, 60, 64
1, 776805, Note_on_c, 0, 84, 90
1, 776856, Note_off_c, 0, 83, 61
1, 777079, Note_on_c, 0, 83, 95
1, 777219, Control_c, 0, 64, 112
1, 777234, Control_c, 0, 64, 87
1, 777236, Note_off_c, 0, 76, 44
1, 777246, Note_off_c, 0, 84, 51
1, 777249, Control_c, 0, 64, 72
1, 777264, Control_c, 0, 64, 64
1, 777278, Control_c, 0, 64, 54
1, 777291, Note_on_c, 0, 41, 69
1, 777293, Control_c, 0, 64, 48
1, 777305, Note_on_c, 0, 50, 76
1, 777323, Control_c, 0, 64, 55
1, 777338, Control_c, 0, 64, 64
1, 777352, Control_c, 0, 64, 72
1, 777367, Control_c, 0, 64, 104
1, 777382, Control_c, 0, 64, 127
1, 777391, Note_on_c, 0, 81, 95
1, 777400, Note_on_c, 0, 76, 79
1, 777424, Note_off_c, 0, 83, 61
1, 777436, Note_off_c, 0, 41, 62
1, 777530, Note_off_c, 0, 81, 64
1, 777539, Note_on_c, 0, 59, 85
1, 777583, Note_off_c, 0, 76, 62
1, 777584, Note_off_c, 0, 50, 63
1, 777639, Note_on_c, 0, 83, 102
1, 777896, Note_on_c, 0, 57, 67
1, 777926, Note_on_c, 0, 89, 96
1, 777936, Note_off_c, 0, 59, 59
1, 778132, Note_off_c, 0, 83, 48
1, 778187, Note_on_c, 0, 50, 63
1, 778187, Note_on_c, 0, 59, 75
1, 778243, Note_on_c, 0, 91, 92
1, 778257, Note_off_c, 0, 57, 55
1, 778275, Note_off_c, 0, 89, 61
1, 778278, Control_c, 0, 64, 104
1, 778293, Control_c, 0, 64, 81
1, 778308, Control_c, 0, 64, 67
1, 778322, Control_c, 0, 64, 53
1, 778337, Control_c, 0, 64, 33
1, 778352, Control_c, 0, 64, 28
1, 778382, Control_c, 0, 64, 36
1, 778397, Control_c, 0, 64, 53
1, 778412, Control_c, 0, 64, 64
1, 778427, Control_c, 0, 64, 73
1, 778432, Note_off_c, 0, 91, 63
1, 778442, Control_c, 0, 64, 102
1, 778457, Control_c, 0, 64, 127
1, 778482, Note_off_c, 0, 50, 60
1, 778508, Note_on_c, 0, 62, 84
1, 778534, Note_off_c, 0, 59, 63
1, 778711, Note_off_c, 0, 62, 61
1, 778761, Note_on_c, 0, 67, 87
1, 778768, Note_on_c, 0, 76, 103
1, 779024, Note_on_c, 0, 69, 82
1, 779033, Note_on_c, 0, 59, 71
1, 779064, Note_off_c, 0, 67, 62
1, 779065, Note_on_c, 0, 89, 95
1, 779070, Note_on_c, 0, 84, 83
1, 779102, Control_c, 0, 64, 86
1, 779104, Note_off_c, 0, 76, 59
1, 779117, Control_c, 0, 64, 64
1, 779132, Control_c, 0, 64, 0
1, 779191, Control_c, 0, 64, 11
1, 779206, Control_c, 0, 64, 58
1, 779220, Control_c, 0, 64, 76
1, 779235, Control_c, 0, 64, 127
1, 779255, Note_off_c, 0, 89, 61
1, 779332, Note_on_c, 0, 88, 93
1, 779336, Note_on_c, 0, 77, 90
1, 779363, Note_off_c, 0, 84, 62
1, 779563, Note_off_c, 0, 69, 45
1, 779632, Note_on_c, 0, 86, 88
1, 779636, Note_on_c, 0, 81, 79
1, 779637, Note_on_c, 0, 60, 68
1, 779676, Note_off_c, 0, 59, 61
1, 779796, Note_off_c, 0, 81, 63
1, 780021, Note_on_c, 0, 52, 43
1, 780029, Note_on_c, 0, 61, 53
1, 780030, Note_on_c, 0, 80, 67
1, 780033, Note_on_c, 0, 85, 77
1, 780073, Control_c, 0, 64, 95
1, 780088, Control_c, 0, 64, 76
1, 780111, Control_c, 0, 64, 61
1, 780125, Control_c, 0, 64, 0
1, 780141, Note_off_c, 0, 60, 57
1, 780153, Note_off_c, 0, 77, 58
1, 780202, Note_off_c, 0, 88, 59
1, 780230, Note_off_c, 0, 86, 59
1, 780243, Control_c, 0, 64, 49
1, 780258, Control_c, 0, 64, 64
1, 780273, Control_c, 0, 64, 76
1, 780288, Control_c, 0, 64, 127
1, 780335, Note_on_c, 0, 76, 77
1, 780341, Note_off_c, 0, 61, 62
1, 780370, Note_off_c, 0, 85, 64
1, 780411, Note_off_c, 0, 76, 63
1, 780411, Note_off_c, 0, 80, 60
1, 780565, Note_off_c, 0, 52, 38
1, 780597, Note_on_c, 0, 51, 47
1, 780612, Note_on_c, 0, 68, 77
1, 780644, Note_off_c, 0, 51, 60
1, 780919, Control_c, 0, 64, 102
1, 780925, Note_on_c, 0, 73, 63
1, 780927, Note_on_c, 0, 40, 38
1, 780928, Note_on_c, 0, 49, 39
1, 780934, Control_c, 0, 64, 85
1, 780948, Control_c, 0, 64, 74
1, 780963, Control_c, 0, 64, 65
1, 780978, Control_c, 0, 64, 57
1, 780993, Control_c, 0, 64, 49
1, 781007, Control_c, 0, 64, 48
1, 781052, Control_c, 0, 64, 50
1, 781067, Control_c, 0, 64, 56
1, 781081, Control_c, 0, 64, 62
1, 781096, Control_c, 0, 64, 66
1, 781111, Control_c, 0, 64, 71
1, 781125, Control_c, 0, 64, 83
1, 781140, Control_c, 0, 64, 127
1, 781192, Note_on_c, 0, 75, 85
1, 781198, Note_on_c, 0, 39, 54
1, 781260, Note_off_c, 0, 40, 43
1, 781261, Note_off_c, 0, 49, 36
1, 781289, Note_off_c, 0, 68, 53
1, 781461, Note_off_c, 0, 73, 52
1, 781463, Note_on_c, 0, 37, 57
1, 781470, Note_on_c, 0, 76, 88
1, 781477, Note_off_c, 0, 75, 63
1, 781501, Note_off_c, 0, 39, 32
1, 781501, Note_off_c, 0, 37, 62
1, 781533, Note_off_c, 0, 76, 64
1, 781785, Control_c, 0, 64, 115
1, 781800, Control_c, 0, 64, 79
1, 781815, Control_c, 0, 64, 64
1, 781816, Note_on_c, 0, 50, 50
1, 781819, Note_on_c, 0, 54, 90
1, 781829, Control_c, 0, 64, 42
1, 781834, Note_on_c, 0, 42, 46
1, 781844, Control_c, 0, 64, 24
1, 781859, Control_c, 0, 64, 28
1, 781871, Poly_aftertouch_c, 0, 35, 127
1, 781874, Control_c, 0, 64, 44
1, 781889, Control_c, 0, 64, 57
1, 781890, Note_off_c, 0, 54, 65
1, 781903, Control_c, 0, 64, 65
1, 781918, Control_c, 0, 64, 73
1, 781933, Control_c, 0, 64, 95
1, 781947, Control_c, 0, 64, 127
1, 782104, Poly_aftertouch_c, 0, 35, 0
1, 782115, Note_on_c, 0, 78, 74
1, 782124, Note_on_c, 0, 74, 60
1, 782126, Note_off_c, 0, 50, 36
1, 782159, Note_off_c, 0, 74, 64
1, 782173, Note_off_c, 0, 78, 61
1, 782447, Note_off_c, 0, 42, 46
1, 782448, Note_on_c, 0, 54, 76
1, 782452, Note_on_c, 0, 51, 48
1, 782511, Note_off_c, 0, 51, 61
1, 782903, Note_on_c, 0, 52, 35
1, 782905, Control_c, 0, 64, 105
1, 782910, Note_on_c, 0, 53, 66
1, 782914, Note_on_c, 0, 45, 35
1, 782915, Note_on_c, 0, 38, 36
1, 782919, Control_c, 0, 64, 92
1, 782934, Control_c, 0, 64, 84
1, 782949, Control_c, 0, 64, 75
1, 782964, Control_c, 0, 64, 66
1, 782978, Control_c, 0, 64, 52
1, 782994, Control_c, 0, 64, 19
1, 783004, Note_off_c, 0, 54, 56
1, 783009, Control_c, 0, 64, 0
1, 783054, Control_c, 0, 64, 23
1, 783068, Control_c, 0, 64, 51
1, 783091, Control_c, 0, 64, 62
1, 783098, Note_off_c, 0, 38, 50
1, 783106, Control_c, 0, 64, 69
1, 783121, Control_c, 0, 64, 80
1, 783136, Control_c, 0, 64, 127
1, 783136, Note_off_c, 0, 45, 48
1, 783153, Note_off_c, 0, 53, 62
1, 783324, Note_on_c, 0, 50, 61
1, 783348, Note_off_c, 0, 52, 42
1, 783624, Note_on_c, 0, 55, 54
1, 783630, Note_on_c, 0, 52, 47
1, 783632, Note_on_c, 0, 79, 74
1, 783640, Note_on_c, 0, 69, 65
1, 783654, Control_c, 0, 64, 109
1, 783668, Control_c, 0, 64, 92
1, 783682, Note_off_c, 0, 50, 53
1, 783683, Control_c, 0, 64, 81
1, 783698, Control_c, 0, 64, 69
1, 783712, Control_c, 0, 64, 58
1, 783716, Note_off_c, 0, 69, 52
1, 783727, Control_c, 0, 64, 21
1, 783742, Control_c, 0, 64, 0
1, 783750, Note_on_c, 0, 71, 54
1, 783765, Note_on_c, 0, 77, 66
1, 783789, Note_off_c, 0, 79, 58
1, 783799, Note_off_c, 0, 71, 60
1, 783879, Note_off_c, 0, 52, 52
1, 783888, Note_off_c, 0, 55, 55
1, 783899, Note_on_c, 0, 76, 59
1, 783899, Note_off_c, 0, 77, 57
1, 783904, Note_on_c, 0, 53, 35
1, 783906, Note_on_c, 0, 57, 36
1, 783909, Note_on_c, 0, 72, 55
1, 783959, Control_c, 0, 64, 32
1, 783973, Control_c, 0, 64, 59
1, 783988, Control_c, 0, 64, 72
1, 784003, Control_c, 0, 64, 90
1, 784017, Control_c, 0, 64, 127
1, 784035, Note_off_c, 0, 53, 52
1, 784068, Note_off_c, 0, 57, 63
1, 784129, Note_off_c, 0, 72, 55
1, 784130, Note_off_c, 0, 76, 58
1, 784191, Note_on_c, 0, 59, 56
1, 784192, Note_on_c, 0, 62, 60
1, 784329, Control_c, 0, 64, 117
1, 784343, Control_c, 0, 64, 110
1, 784358, Control_c, 0, 64, 106
1, 784373, Control_c, 0, 64, 102
1, 784388, Control_c, 0, 64, 98
1, 784403, Control_c, 0, 64, 95
1, 784417, Control_c, 0, 64, 93
1, 784432, Control_c, 0, 64, 91
1, 784447, Control_c, 0, 64, 88
1, 784462, Control_c, 0, 64, 86
1, 784473, Note_on_c, 0, 64, 57
1, 784477, Control_c, 0, 64, 84
1, 784481, Note_on_c, 0, 60, 51
1, 784491, Control_c, 0, 64, 82
1, 784506, Control_c, 0, 64, 80
1, 784521, Control_c, 0, 64, 79
1, 784527, Note_off_c, 0, 62, 50
1, 784535, Control_c, 0, 64, 78
1, 784550, Control_c, 0, 64, 76
1, 784565, Control_c, 0, 64, 75
1, 784580, Control_c, 0, 64, 73
1, 784603, Control_c, 0, 64, 72
1, 784618, Control_c, 0, 64, 71
1, 784633, Control_c, 0, 64, 70
1, 784648, Control_c, 0, 64, 69
1, 784663, Control_c, 0, 64, 69
1, 784678, Control_c, 0, 64, 68
1, 784692, Control_c, 0, 64, 67
1, 784707, Control_c, 0, 64, 66
1, 784722, Control_c, 0, 64, 66
1, 784724, Note_off_c, 0, 59, 21
1, 784737, Control_c, 0, 64, 65
1, 784752, Control_c, 0, 64, 65
1, 784766, Control_c, 0, 64, 64
1, 784781, Control_c, 0, 64, 64
1, 784796, Control_c, 0, 64, 63
1, 784808, Note_on_c, 0, 65, 37
1, 784811, Note_on_c, 0, 74, 54
1, 784811, Control_c, 0, 64, 62
1, 784815, Note_on_c, 0, 62, 34
1, 784826, Control_c, 0, 64, 61
1, 784827, Note_on_c, 0, 71, 40
1, 784840, Control_c, 0, 64, 60
1, 784855, Control_c, 0, 64, 58
1, 784870, Note_off_c, 0, 60, 51
1, 784870, Control_c, 0, 64, 54
1, 784885, Note_off_c, 0, 64, 52
1, 784885, Control_c, 0, 64, 49
1, 784900, Control_c, 0, 64, 44
1, 784914, Control_c, 0, 64, 39
1, 784929, Control_c, 0, 64, 34
1, 784944, Control_c, 0, 64, 31
1, 784958, Control_c, 0, 64, 29
1, 785003, Control_c, 0, 64, 34
1, 785018, Control_c, 0, 64, 47
1, 785033, Control_c, 0, 64, 58
1, 785047, Control_c, 0, 64, 63
1, 785062, Control_c, 0, 64, 71
1, 785077, Note_off_c, 0, 65, 61
1, 785077, Control_c, 0, 64, 91
1, 785092, Control_c, 0, 64, 127
1, 785095, Note_on_c, 0, 69, 56
1, 785104, Note_on_c, 0, 72, 64
1, 785120, Note_off_c, 0, 62, 54
1, 785149, Note_off_c, 0, 74, 56
1, 785164, Note_off_c, 0, 71, 54
1, 785200, Note_off_c, 0, 69, 62
1, 785208, Note_on_c, 0, 67, 58
1, 785351, Note_on_c, 0, 71, 64
1, 785358, Note_off_c, 0, 67, 59
1, 785362, Note_on_c, 0, 66, 55
1, 785371, Note_off_c, 0, 72, 54
1, 785473, Note_off_c, 0, 71, 58
1, 785662, Control_c, 0, 64, 98
1, 785677, Control_c, 0, 64, 77
1, 785691, Note_on_c, 0, 52, 32
1, 785692, Control_c, 0, 64, 63
1, 785707, Control_c, 0, 64, 36
1, 785713, Note_on_c, 0, 71, 53
1, 785715, Note_on_c, 0, 45, 32
1, 785715, Note_on_c, 0, 57, 39
1, 785719, Note_off_c, 0, 66, 42
1, 785721, Note_on_c, 0, 36, 31
1, 785722, Control_c, 0, 64, 0
1, 785724, Note_on_c, 0, 64, 37
1, 785736, Control_c, 0, 64, 15
1, 785751, Control_c, 0, 64, 48
1, 785756, Note_off_c, 0, 57, 57
1, 785757, Note_off_c, 0, 52, 61
1, 785764, Note_off_c, 0, 45, 59
1, 785764, Note_off_c, 0, 64, 62
1, 785765, Note_off_c, 0, 36, 59
1, 785766, Control_c, 0, 64, 63
1, 785781, Control_c, 0, 64, 74
1, 785782, Note_off_c, 0, 71, 63
1, 785795, Control_c, 0, 64, 127
1, 786037, Note_on_c, 0, 59, 54
1, 786037, Note_on_c, 0, 71, 66
1, 786147, Note_on_c, 0, 60, 70
1, 786159, Note_on_c, 0, 72, 87
1, 786207, Note_off_c, 0, 71, 63
1, 786247, Note_off_c, 0, 59, 39
1, 786263, Note_on_c, 0, 61, 78
1, 786268, Note_on_c, 0, 73, 94
1, 786302, Note_off_c, 0, 60, 63
1, 786309, Note_off_c, 0, 72, 61
1, 786370, Note_on_c, 0, 69, 67
1, 786372, Note_on_c, 0, 81, 86
1, 786408, Note_off_c, 0, 73, 62
1, 786431, Note_off_c, 0, 69, 62
1, 786448, Note_off_c, 0, 81, 63
1, 786486, Control_c, 0, 64, 116
1, 786501, Control_c, 0, 64, 101
1, 786515, Note_on_c, 0, 74, 71
1, 786516, Control_c, 0, 64, 95
1, 786519, Note_on_c, 0, 83, 81
1, 786520, Note_on_c, 0, 62, 46
1, 786531, Control_c, 0, 64, 90
1, 786541, Note_on_c, 0, 71, 57
1, 786546, Control_c, 0, 64, 84
1, 786560, Control_c, 0, 64, 77
1, 786575, Control_c, 0, 64, 68
1, 786581, Note_off_c, 0, 61, 33
1, 786590, Control_c, 0, 64, 60
1, 786605, Control_c, 0, 64, 47
1, 786619, Control_c, 0, 64, 35
1, 786634, Control_c, 0, 64, 25
1, 786649, Control_c, 0, 64, 9
1, 786664, Control_c, 0, 64, 0
1, 786752, Control_c, 0, 64, 15
1, 786767, Control_c, 0, 64, 29
1, 786782, Control_c, 0, 64, 41
1, 786797, Control_c, 0, 64, 51
1, 786812, Control_c, 0, 64, 57
1, 786834, Control_c, 0, 64, 61
1, 786849, Control_c, 0, 64, 63
1, 786864, Control_c, 0, 64, 66
1, 786879, Control_c, 0, 64, 70
1, 786893, Control_c, 0, 64, 77
1, 786908, Control_c, 0, 64, 87
1, 786923, Control_c, 0, 64, 112
1, 786937, Control_c, 0, 64, 127
1, 786964, Note_off_c, 0, 71, 50
1, 787015, Poly_aftertouch_c, 0, 81, 127
1, 787090, Note_off_c, 0, 83, 33
1, 787196, Note_on_c, 0, 72, 43
1, 787197, Note_on_c, 0, 76, 52
1, 787205, Poly_aftertouch_c, 0, 81, 0
1, 787214, Note_on_c, 0, 64, 35
1, 787214, Note_off_c, 0, 74, 51
1, 787217, Note_on_c, 0, 60, 28
1, 787233, Note_off_c, 0, 62, 34
1, 787235, Control_c, 0, 64, 110
1, 787250, Control_c, 0, 64, 82
1, 787265, Control_c, 0, 64, 67
1, 787280, Control_c, 0, 64, 54
1, 787295, Control_c, 0, 64, 46
1, 787309, Control_c, 0, 64, 54
1, 787324, Control_c, 0, 64, 63
1, 787339, Control_c, 0, 64, 71
1, 787345, Note_off_c, 0, 64, 59
1, 787346, Note_off_c, 0, 76, 64
1, 787354, Control_c, 0, 64, 98
1, 787360, Note_off_c, 0, 72, 64
1, 787363, Note_off_c, 0, 60, 58
1, 787369, Control_c, 0, 64, 127
1, 787583, Note_on_c, 0, 59, 61
1, 787587, Note_on_c, 0, 28, 46
1, 787587, Note_on_c, 0, 56, 58
1, 787605, Note_on_c, 0, 40, 36
1, 787613, Control_c, 0, 64, 95
1, 787628, Control_c, 0, 64, 75
1, 787642, Control_c, 0, 64, 63
1, 787657, Control_c, 0, 64, 46
1, 787672, Control_c, 0, 64, 35
1, 787687, Control_c, 0, 64, 39
1, 787702, Control_c, 0, 64, 54
1, 787716, Control_c, 0, 64, 63
1, 787731, Control_c, 0, 64, 70
1, 787733, Note_off_c, 0, 40, 54
1, 787736, Note_off_c, 0, 28, 62
1, 787746, Control_c, 0, 64, 84
1, 787760, Control_c, 0, 64, 127
1, 787930, Note_on_c, 0, 54, 54
1, 787949, Note_on_c, 0, 32, 33
1, 787969, Control_c, 0, 64, 101
1, 787973, Note_on_c, 0, 44, 13
1, 787984, Control_c, 0, 64, 80
1, 787999, Control_c, 0, 64, 69
1, 788013, Control_c, 0, 64, 61
1, 788028, Control_c, 0, 64, 55
1, 788043, Control_c, 0, 64, 53
1, 788045, Note_off_c, 0, 56, 37
1, 788073, Control_c, 0, 64, 55
1, 788088, Control_c, 0, 64, 59
1, 788103, Control_c, 0, 64, 63
1, 788118, Control_c, 0, 64, 68
1, 788132, Control_c, 0, 64, 76
1, 788147, Control_c, 0, 64, 87
1, 788159, Note_off_c, 0, 44, 38
1, 788162, Control_c, 0, 64, 107
1, 788170, Note_off_c, 0, 32, 48
1, 788177, Control_c, 0, 64, 127
1, 788423, Note_on_c, 0, 53, 37
1, 788434, Control_c, 0, 64, 122
1, 788446, Note_on_c, 0, 35, 20
1, 788449, Control_c, 0, 64, 107
1, 788463, Control_c, 0, 64, 98
1, 788471, Poly_aftertouch_c, 0, 47, 127
1, 788478, Control_c, 0, 64, 88
1, 788493, Control_c, 0, 64, 79
1, 788508, Control_c, 0, 64, 69
1, 788523, Control_c, 0, 64, 63
1, 788537, Note_off_c, 0, 54, 40
1, 788538, Control_c, 0, 64, 57
1, 788553, Control_c, 0, 64, 51
1, 788568, Control_c, 0, 64, 48
1, 788583, Control_c, 0, 64, 48
1, 788598, Control_c, 0, 64, 48
1, 788613, Control_c, 0, 64, 53
1, 788627, Control_c, 0, 64, 59
1, 788642, Control_c, 0, 64, 64
1, 788657, Control_c, 0, 64, 68
1, 788672, Control_c, 0, 64, 74
1, 788687, Control_c, 0, 64, 85
1, 788702, Control_c, 0, 64, 122
1, 788711, Poly_aftertouch_c, 0, 47, 0
1, 788717, Control_c, 0, 64, 127
1, 788745, Note_off_c, 0, 35, 35
1, 788757, Note_off_c, 0, 53, 37
1, 788792, Note_off_c, 0, 59, 39
1, 789374, Note_on_c, 0, 64, 47
1, 789385, Note_on_c, 0, 60, 40
1, 789386, Note_on_c, 0, 36, 22
1, 789390, Note_on_c, 0, 52, 36
1, 789402, Note_on_c, 0, 48, 12
1, 789465, Control_c, 0, 64, 119
1, 789480, Control_c, 0, 64, 104
1, 789495, Control_c, 0, 64, 96
1, 789510, Control_c, 0, 64, 90
1, 789525, Control_c, 0, 64, 83
1, 789539, Control_c, 0, 64, 77
1, 789554, Control_c, 0, 64, 71
1, 789569, Control_c, 0, 64, 65
1, 789584, Control_c, 0, 64, 60
1, 789599, Control_c, 0, 64, 56
1, 789614, Control_c, 0, 64, 54
1, 789628, Control_c, 0, 64, 53
1, 789658, Control_c, 0, 64, 55
1, 789673, Control_c, 0, 64, 57
1, 789688, Control_c, 0, 64, 60
1, 789703, Control_c, 0, 64, 63
1, 789718, Control_c, 0, 64, 66
1, 789733, Control_c, 0, 64, 69
1, 789748, Control_c, 0, 64, 75
1, 789763, Control_c, 0, 64, 85
1, 789777, Control_c, 0, 64, 104
1, 789792, Control_c, 0, 64, 127
1, 789870, Note_off_c, 0, 36, 41
1, 789883, Note_off_c, 0, 48, 39
1, 789942, Note_off_c, 0, 52, 42
1, 790051, Control_c, 0, 64, 116
1, 790066, Control_c, 0, 64, 111
1, 790081, Control_c, 0, 64, 106
1, 790096, Control_c, 0, 64, 101
1, 790110, Control_c, 0, 64, 99
1, 790125, Control_c, 0, 64, 98
1, 790140, Control_c, 0, 64, 97
1, 790155, Control_c, 0, 64, 96
1, 790170, Control_c, 0, 64, 94
1, 790186, Control_c, 0, 64, 92
1, 790201, Control_c, 0, 64, 91
1, 790215, Control_c, 0, 64, 89
1, 790230, Control_c, 0, 64, 87
1, 790245, Control_c, 0, 64, 86
1, 790259, Control_c, 0, 64, 85
1, 790274, Control_c, 0, 64, 84
1, 790289, Control_c, 0, 64, 83
1, 790304, Control_c, 0, 64, 82
1, 790333, Control_c, 0, 64, 81
1, 790348, Control_c, 0, 64, 81
1, 790363, Control_c, 0, 64, 79
1, 790378, Control_c, 0, 64, 78
1, 790393, Control_c, 0, 64, 77
1, 790407, Control_c, 0, 64, 77
1, 790422, Control_c, 0, 64, 76
1, 790437, Control_c, 0, 64, 74
1, 790452, Control_c, 0, 64, 73
1, 790466, Control_c, 0, 64, 72
1, 790481, Control_c, 0, 64, 71
1, 790496, Control_c, 0, 64, 70
1, 790511, Control_c, 0, 64, 69
1, 790526, Control_c, 0, 64, 68
1, 790541, Control_c, 0, 64, 67
1, 790556, Control_c, 0, 64, 66
1, 790571, Control_c, 0, 64, 65
1, 790593, Control_c, 0, 64, 63
1, 790607, Control_c, 0, 64, 61
1, 790622, Control_c, 0, 64, 59
1, 790637, Control_c, 0, 64, 57
1, 790652, Control_c, 0, 64, 55
1, 790666, Control_c, 0, 64, 55
1, 790723, Note_on_c, 0, 72, 30
1, 790726, Note_on_c, 0, 76, 28
1, 790732, Note_on_c, 0, 67, 31
1, 790741, Note_on_c, 0, 52, 29
1, 790741, Control_c, 0, 64, 56
1, 790756, Control_c, 0, 64, 57
1, 790771, Control_c, 0, 64, 58
1, 790785, Control_c, 0, 64, 60
1, 790796, Note_off_c, 0, 60, 59
1, 790800, Control_c, 0, 64, 63
1, 790815, Control_c, 0, 64, 65
1, 790830, Control_c, 0, 64, 68
1, 790845, Control_c, 0, 64, 72
1, 790859, Control_c, 0, 64, 78
1, 790874, Control_c, 0, 64, 88
1, 790889, Control_c, 0, 64, 107
1, 790904, Control_c, 0, 64, 127
1, 790938, Note_off_c, 0, 76, 38
1, 790952, Note_off_c, 0, 52, 35
1, 791028, Note_off_c, 0, 72, 43
1, 791060, Note_on_c, 0, 65, 48
1, 791063, Note_on_c, 0, 61, 42
1, 791072, Note_off_c, 0, 67, 40
1, 791140, Note_off_c, 0, 64, 35
1, 791379, Note_on_c, 0, 53, 44
1, 791379, Note_on_c, 0, 64, 59
1, 791385, Note_on_c, 0, 60, 38
1, 791416, Note_off_c, 0, 61, 57
1, 791497, Note_off_c, 0, 53, 52
1, 791557, Note_off_c, 0, 60, 36
1, 791734, Note_on_c, 0, 32, 35
1, 791741, Note_on_c, 0, 44, 19
1, 791787, Control_c, 0, 64, 112
1, 791792, Note_on_c, 0, 54, 71
1, 791802, Control_c, 0, 64, 96
1, 791808, Note_on_c, 0, 59, 23
1, 791811, Note_on_c, 0, 63, 44
1, 791817, Control_c, 0, 64, 86
1, 791831, Control_c, 0, 64, 78
1, 791846, Control_c, 0, 64, 71
1, 791847, Note_off_c, 0, 65, 37
1, 791861, Control_c, 0, 64, 64
1, 791876, Control_c, 0, 64, 55
1, 791881, Note_off_c, 0, 64, 39
1, 791891, Control_c, 0, 64, 47
1, 791905, Control_c, 0, 64, 45
1, 791934, Control_c, 0, 64, 49
1, 791949, Control_c, 0, 64, 58
1, 791964, Control_c, 0, 64, 63
1, 791978, Control_c, 0, 64, 68
1, 791993, Control_c, 0, 64, 78
1, 792003, Note_off_c, 0, 63, 59
1, 792008, Note_off_c, 0, 59, 42
1, 792008, Control_c, 0, 64, 115
1, 792023, Control_c, 0, 64, 127
1, 792055, Note_off_c, 0, 54, 61
1, 792069, Note_off_c, 0, 32, 41
1, 792198, Note_on_c, 0, 68, 56
1, 792199, Note_off_c, 0, 44, 39
1, 792201, Note_on_c, 0, 59, 44
1, 792208, Note_on_c, 0, 63, 36
1, 792258, Note_off_c, 0, 59, 58
1, 792280, Note_off_c, 0, 63, 60
1, 792396, Note_on_c, 0, 54, 72
1, 792428, Note_off_c, 0, 68, 64
1, 792452, Note_off_c, 0, 54, 64
1, 792454, Note_on_c, 0, 70, 70
1, 792461, Note_on_c, 0, 61, 56
1, 792473, Note_on_c, 0, 65, 50
1, 792563, Note_on_c, 0, 36, 58
1, 792570, Note_off_c, 0, 61, 52
1, 792638, Note_off_c, 0, 36, 48
1, 792639, Note_on_c, 0, 43, 46
1, 792795, Note_on_c, 0, 53, 69
1, 792812, Note_on_c, 0, 71, 60
1, 792816, Control_c, 0, 64, 112
1, 792835, Note_on_c, 0, 62, 41
1, 792835, Note_on_c, 0, 66, 46
1, 792839, Control_c, 0, 64, 102
1, 792846, Note_off_c, 0, 65, 52
1, 792853, Control_c, 0, 64, 92
1, 792868, Control_c, 0, 64, 84
1, 792883, Control_c, 0, 64, 75
1, 792898, Control_c, 0, 64, 68
1, 792913, Control_c, 0, 64, 62
1, 792925, Note_off_c, 0, 70, 31
1, 792927, Control_c, 0, 64, 54
1, 792942, Control_c, 0, 64, 48
1, 792957, Control_c, 0, 64, 46
1, 793016, Control_c, 0, 64, 47
1, 793031, Control_c, 0, 64, 49
1, 793046, Control_c, 0, 64, 54
1, 793051, Note_off_c, 0, 43, 36
1, 793060, Control_c, 0, 64, 59
1, 793075, Control_c, 0, 64, 62
1, 793090, Control_c, 0, 64, 65
1, 793105, Control_c, 0, 64, 68
1, 793120, Control_c, 0, 64, 74
1, 793129, Note_on_c, 0, 63, 52
1, 793134, Control_c, 0, 64, 86
1, 793149, Control_c, 0, 64, 110
1, 793164, Control_c, 0, 64, 127
1, 793227, Note_off_c, 0, 63, 60
1, 793408, Note_on_c, 0, 55, 52
1, 793417, Note_on_c, 0, 69, 51
1, 793417, Control_c, 0, 64, 114
1, 793419, Note_on_c, 0, 65, 44
1, 793432, Control_c, 0, 64, 108
1, 793444, Note_off_c, 0, 53, 55
1, 793447, Control_c, 0, 64, 104
1, 793462, Control_c, 0, 64, 100
1, 793477, Control_c, 0, 64, 95
1, 793483, Note_off_c, 0, 62, 30
1, 793492, Control_c, 0, 64, 91
1, 793507, Control_c, 0, 64, 87
1, 793508, Note_off_c, 0, 71, 50
1, 793522, Control_c, 0, 64, 85
1, 793537, Control_c, 0, 64, 84
1, 793550, Note_on_c, 0, 53, 52
1, 793551, Control_c, 0, 64, 82
1, 793566, Control_c, 0, 64, 79
1, 793588, Control_c, 0, 64, 77
1, 793603, Control_c, 0, 64, 76
1, 793606, Note_off_c, 0, 66, 37
1, 793618, Control_c, 0, 64, 76
1, 793632, Control_c, 0, 64, 74
1, 793647, Note_off_c, 0, 55, 31
1, 793647, Control_c, 0, 64, 73
1, 793662, Control_c, 0, 64, 71
1, 793677, Control_c, 0, 64, 69
1, 793692, Control_c, 0, 64, 68
1, 793707, Control_c, 0, 64, 67
1, 793722, Control_c, 0, 64, 66
1, 793737, Control_c, 0, 64, 65
1, 793748, Note_on_c, 0, 52, 41
1, 793750, Note_on_c, 0, 72, 46
1, 793751, Control_c, 0, 64, 63
1, 793757, Note_on_c, 0, 67, 36
1, 793759, Note_on_c, 0, 64, 32
1, 793766, Control_c, 0, 64, 61
1, 793781, Control_c, 0, 64, 59
1, 793796, Control_c, 0, 64, 57
1, 793811, Control_c, 0, 64, 54
1, 793826, Control_c, 0, 64, 52
1, 793832, Note_off_c, 0, 53, 36
1, 793841, Control_c, 0, 64, 50
1, 793856, Control_c, 0, 64, 49
1, 793871, Control_c, 0, 64, 48
1, 793885, Control_c, 0, 64, 49
1, 793889, Note_off_c, 0, 65, 34
1, 793893, Note_off_c, 0, 69, 31
1, 793900, Control_c, 0, 64, 52
1, 793915, Control_c, 0, 64, 58
1, 793920, Note_off_c, 0, 67, 61
1, 793930, Control_c, 0, 64, 62
1, 793945, Control_c, 0, 64, 65
1, 793959, Control_c, 0, 64, 69
1, 793974, Control_c, 0, 64, 75
1, 793989, Control_c, 0, 64, 87
1, 794003, Control_c, 0, 64, 127
1, 794058, Note_off_c, 0, 72, 65
1, 794066, Note_on_c, 0, 74, 63
1, 794121, Note_off_c, 0, 52, 59
1, 794208, Note_off_c, 0, 64, 40
1, 794350, Note_on_c, 0, 76, 75
1, 794474, Note_on_c, 0, 35, 50
1, 794484, Note_off_c, 0, 74, 62
1, 794660, Note_on_c, 0, 50, 52
1, 794664, Note_on_c, 0, 77, 66
1, 794673, Note_on_c, 0, 74, 45
1, 794679, Note_on_c, 0, 72, 45
1, 794679, Control_c, 0, 64, 103
1, 794693, Control_c, 0, 64, 89
1, 794708, Control_c, 0, 64, 78
1, 794723, Control_c, 0, 64, 69
1, 794738, Control_c, 0, 64, 61
1, 794744, Note_off_c, 0, 76, 59
1, 794753, Control_c, 0, 64, 53
1, 794768, Control_c, 0, 64, 50
1, 794797, Control_c, 0, 64, 53
1, 794812, Control_c, 0, 64, 58
1, 794826, Control_c, 0, 64, 63
1, 794841, Control_c, 0, 64, 69
1, 794843, Note_off_c, 0, 50, 64
1, 794856, Control_c, 0, 64, 81
1, 794871, Control_c, 0, 64, 127
1, 794941, Note_off_c, 0, 72, 53
1, 794959, Note_on_c, 0, 48, 64
1, 794959, Note_on_c, 0, 76, 77
1, 795085, Note_off_c, 0, 74, 55
1, 795096, Note_off_c, 0, 77, 60
1, 795145, Note_off_c, 0, 48, 63
1, 795258, Note_on_c, 0, 47, 62
1, 795259, Note_on_c, 0, 74, 75
1, 795347, Note_off_c, 0, 76, 63
1, 795361, Note_off_c, 0, 35, 49
1, 795438, Note_off_c, 0, 47, 53
1, 795573, Note_on_c, 0, 47, 55
1, 795573, Note_on_c, 0, 33, 47
1, 795591, Control_c, 0, 64, 109
1, 795605, Control_c, 0, 64, 99
1, 795617, Note_on_c, 0, 81, 73
1, 795620, Control_c, 0, 64, 90
1, 795629, Note_on_c, 0, 75, 52
1, 795632, Note_on_c, 0, 79, 63
1, 795635, Control_c, 0, 64, 80
1, 795649, Control_c, 0, 64, 71
1, 795664, Control_c, 0, 64, 62
1, 795678, Control_c, 0, 64, 45
1, 795693, Control_c, 0, 64, 36
1, 795722, Control_c, 0, 64, 39
1, 795734, Note_off_c, 0, 74, 54
1, 795737, Control_c, 0, 64, 51
1, 795752, Control_c, 0, 64, 60
1, 795767, Note_off_c, 0, 33, 44
1, 795768, Control_c, 0, 64, 66
1, 795783, Control_c, 0, 64, 75
1, 795798, Control_c, 0, 64, 101
1, 795813, Control_c, 0, 64, 127
1, 795921, Note_on_c, 0, 48, 77
1, 795924, Note_on_c, 0, 77, 71
1, 795934, Note_on_c, 0, 74, 60
1, 795967, Note_off_c, 0, 47, 60
1, 796002, Note_off_c, 0, 75, 56
1, 796065, Note_off_c, 0, 74, 60
1, 796204, Note_on_c, 0, 57, 80
1, 796212, Note_on_c, 0, 76, 71
1, 796216, Note_on_c, 0, 72, 60
1, 796249, Control_c, 0, 64, 95
1, 796264, Control_c, 0, 64, 78
1, 796279, Control_c, 0, 64, 66
1, 796279, Note_off_c, 0, 77, 60
1, 796294, Control_c, 0, 64, 54
1, 796300, Note_off_c, 0, 79, 38
1, 796309, Control_c, 0, 64, 38
1, 796324, Control_c, 0, 64, 36
1, 796339, Control_c, 0, 64, 41
1, 796353, Control_c, 0, 64, 54
1, 796357, Note_off_c, 0, 48, 58
1, 796368, Control_c, 0, 64, 62
1, 796383, Control_c, 0, 64, 67
1, 796398, Control_c, 0, 64, 75
1, 796410, Note_off_c, 0, 72, 61
1, 796413, Control_c, 0, 64, 91
1, 796414, Note_off_c, 0, 76, 62
1, 796427, Control_c, 0, 64, 127
1, 796515, Note_on_c, 0, 59, 71
1, 796516, Control_c, 0, 64, 99
1, 796520, Note_on_c, 0, 74, 70
1, 796520, Note_off_c, 0, 57, 63
1, 796531, Control_c, 0, 64, 78
1, 796532, Note_on_c, 0, 71, 58
1, 796545, Control_c, 0, 64, 67
1, 796560, Control_c, 0, 64, 60
1, 796583, Control_c, 0, 64, 54
1, 796598, Control_c, 0, 64, 53
1, 796628, Control_c, 0, 64, 54
1, 796643, Control_c, 0, 64, 58
1, 796658, Control_c, 0, 64, 63
1, 796673, Control_c, 0, 64, 68
1, 796688, Control_c, 0, 64, 78
1, 796702, Control_c, 0, 64, 110
1, 796717, Control_c, 0, 64, 127
1, 796828, Note_on_c, 0, 43, 36
1, 796845, Note_on_c, 0, 83, 79
1, 796913, Note_off_c, 0, 81, 61
1, 796939, Control_c, 0, 64, 96
1, 796954, Control_c, 0, 64, 81
1, 796968, Control_c, 0, 64, 72
1, 796983, Control_c, 0, 64, 66
1, 796998, Control_c, 0, 64, 63
1, 797013, Control_c, 0, 64, 65
1, 797028, Control_c, 0, 64, 71
1, 797042, Control_c, 0, 64, 84
1, 797057, Control_c, 0, 64, 127
1, 797105, Note_on_c, 0, 45, 58
1, 797126, Note_on_c, 0, 81, 75
1, 797177, Control_c, 0, 64, 92
1, 797187, Note_off_c, 0, 43, 41
1, 797191, Control_c, 0, 64, 76
1, 797206, Control_c, 0, 64, 67
1, 797221, Control_c, 0, 64, 61
1, 797236, Control_c, 0, 64, 57
1, 797266, Control_c, 0, 64, 60
1, 797281, Control_c, 0, 64, 63
1, 797295, Control_c, 0, 64, 65
1, 797310, Control_c, 0, 64, 68
1, 797332, Control_c, 0, 64, 73
1, 797347, Control_c, 0, 64, 82
1, 797362, Control_c, 0, 64, 102
1, 797378, Control_c, 0, 64, 127
1, 797460, Note_on_c, 0, 47, 44
1, 797469, Note_on_c, 0, 76, 68
1, 797484, Note_off_c, 0, 45, 61
1, 797504, Note_off_c, 0, 83, 51
1, 797511, Control_c, 0, 64, 101
1, 797525, Control_c, 0, 64, 84
1, 797540, Control_c, 0, 64, 72
1, 797555, Control_c, 0, 64, 67
1, 797570, Control_c, 0, 64, 64
1, 797582, Note_off_c, 0, 81, 50
1, 797585, Control_c, 0, 64, 62
1, 797588, Note_off_c, 0, 74, 59
1, 797590, Note_off_c, 0, 59, 37
1, 797600, Control_c, 0, 64, 61
1, 797600, Note_off_c, 0, 71, 61
1, 797615, Control_c, 0, 64, 60
1, 797645, Control_c, 0, 64, 59
1, 797659, Control_c, 0, 64, 58
1, 797674, Control_c, 0, 64, 58
1, 797689, Control_c, 0, 64, 57
1, 797733, Control_c, 0, 64, 57
1, 797766, Note_on_c, 0, 69, 53
1, 797767, Note_on_c, 0, 72, 62
1, 797770, Note_on_c, 0, 60, 50
1, 797778, Control_c, 0, 64, 57
1, 797792, Control_c, 0, 64, 58
1, 797807, Control_c, 0, 64, 61
1, 797822, Control_c, 0, 64, 65
1, 797837, Control_c, 0, 64, 69
1, 797851, Control_c, 0, 64, 76
1, 797866, Control_c, 0, 64, 87
1, 797881, Control_c, 0, 64, 109
1, 797895, Note_off_c, 0, 69, 60
1, 797896, Control_c, 0, 64, 127
1, 797898, Note_off_c, 0, 60, 56
1, 797925, Note_off_c, 0, 72, 63
1, 798058, Note_on_c, 0, 59, 48
1, 798081, Control_c, 0, 64, 100
1, 798082, Note_on_c, 0, 48, 40
1, 798086, Note_on_c, 0, 67, 47
1, 798088, Note_on_c, 0, 71, 55
1, 798096, Control_c, 0, 64, 82
1, 798111, Control_c, 0, 64, 72
1, 798125, Control_c, 0, 64, 65
1, 798133, Note_off_c, 0, 47, 28
1, 798140, Control_c, 0, 64, 59
1, 798155, Control_c, 0, 64, 55
1, 798186, Control_c, 0, 64, 58
1, 798201, Control_c, 0, 64, 63
1, 798202, Note_off_c, 0, 48, 54
1, 798216, Control_c, 0, 64, 66
1, 798230, Control_c, 0, 64, 72
1, 798243, Note_off_c, 0, 67, 59
1, 798245, Control_c, 0, 64, 79
1, 798250, Note_off_c, 0, 71, 59
1, 798260, Control_c, 0, 64, 87
1, 798274, Control_c, 0, 64, 98
1, 798289, Control_c, 0, 64, 113
1, 798304, Control_c, 0, 64, 119
1, 798363, Control_c, 0, 64, 116
1, 798378, Control_c, 0, 64, 112
1, 798393, Control_c, 0, 64, 108
1, 798403, Note_on_c, 0, 57, 39
1, 798407, Note_on_c, 0, 50, 35
1, 798408, Control_c, 0, 64, 101
1, 798420, Note_on_c, 0, 69, 50
1, 798423, Control_c, 0, 64, 91
1, 798428, Note_on_c, 0, 65, 41
1, 798437, Control_c, 0, 64, 80
1, 798452, Control_c, 0, 64, 69
1, 798467, Control_c, 0, 64, 62
1, 798482, Control_c, 0, 64, 57
1, 798497, Control_c, 0, 64, 57
1, 798497, Note_off_c, 0, 59, 40
1, 798512, Control_c, 0, 64, 59
1, 798527, Control_c, 0, 64, 63
1, 798541, Control_c, 0, 64, 67
1, 798556, Control_c, 0, 64, 75
1, 798571, Control_c, 0, 64, 85
1, 798586, Control_c, 0, 64, 99
1, 798601, Control_c, 0, 64, 125
1, 798615, Control_c, 0, 64, 127
1, 798660, Control_c, 0, 64, 98
1, 798673, Control_c, 0, 64, 83
1, 798688, Control_c, 0, 64, 72
1, 798703, Control_c, 0, 64, 66
1, 798715, Note_on_c, 0, 74, 53
1, 798718, Control_c, 0, 64, 65
1, 798723, Note_on_c, 0, 59, 40
1, 798733, Control_c, 0, 64, 67
1, 798747, Control_c, 0, 64, 71
1, 798755, Note_off_c, 0, 76, 54
1, 798762, Control_c, 0, 64, 77
1, 798777, Control_c, 0, 64, 86
1, 798782, Note_off_c, 0, 50, 38
1, 798792, Control_c, 0, 64, 102
1, 798798, Note_off_c, 0, 57, 28
1, 798799, Note_off_c, 0, 65, 38
1, 798813, Control_c, 0, 64, 127
1, 798817, Note_off_c, 0, 59, 55
1, 799022, Control_c, 0, 64, 103
1, 799035, Note_on_c, 0, 72, 51
1, 799037, Control_c, 0, 64, 87
1, 799039, Note_on_c, 0, 65, 37
1, 799051, Control_c, 0, 64, 76
1, 799066, Control_c, 0, 64, 69
1, 799069, Note_on_c, 0, 57, 16
1, 799081, Control_c, 0, 64, 64
1, 799087, Note_off_c, 0, 69, 47
1, 799096, Control_c, 0, 64, 61
1, 799097, Note_off_c, 0, 74, 50
1, 799111, Control_c, 0, 64, 60
1, 799156, Control_c, 0, 64, 61
1, 799170, Control_c, 0, 64, 62
1, 799185, Control_c, 0, 64, 65
1, 799200, Control_c, 0, 64, 69
1, 799215, Control_c, 0, 64, 78
1, 799230, Control_c, 0, 64, 89
1, 799244, Control_c, 0, 64, 107
1, 799259, Control_c, 0, 64, 127
1, 799466, Note_on_c, 0, 71, 49
1, 799481, Note_on_c, 0, 62, 33
1, 799484, Note_on_c, 0, 53, 28
1, 799540, Control_c, 0, 64, 115
1, 799555, Control_c, 0, 64, 110
1, 799577, Control_c, 0, 64, 105
1, 799592, Control_c, 0, 64, 97
1, 799607, Control_c, 0, 64, 89
1, 799622, Control_c, 0, 64, 82
1, 799637, Control_c, 0, 64, 77
1, 799651, Control_c, 0, 64, 73
1, 799653, Note_off_c, 0, 57, 41
1, 799666, Note_off_c, 0, 65, 35
1, 799666, Control_c, 0, 64, 69
1, 799681, Control_c, 0, 64, 65
1, 799692, Note_off_c, 0, 72, 40
1, 799695, Control_c, 0, 64, 61
1, 799710, Control_c, 0, 64, 57
1, 799725, Control_c, 0, 64, 56
1, 799740, Control_c, 0, 64, 55
1, 799755, Control_c, 0, 64, 55
1, 799800, Control_c, 0, 64, 55
1, 799815, Control_c, 0, 64, 57
1, 799830, Control_c, 0, 64, 58
1, 799845, Control_c, 0, 64, 60
1, 799859, Control_c, 0, 64, 63
1, 799874, Control_c, 0, 64, 65
1, 799889, Control_c, 0, 64, 68
1, 799904, Control_c, 0, 64, 72
1, 799919, Control_c, 0, 64, 78
1, 799934, Control_c, 0, 64, 87
1, 799946, Note_off_c, 0, 71, 35
1, 799949, Control_c, 0, 64, 105
1, 799964, Control_c, 0, 64, 127
1, 800181, Note_on_c, 0, 74, 55
1, 800318, Note_on_c, 0, 77, 66
1, 800410, Note_off_c, 0, 77, 63
1, 800417, Note_off_c, 0, 74, 50
1, 800447, Note_on_c, 0, 65, 77
1, 800452, Note_on_c, 0, 74, 68
1, 800454, Note_on_c, 0, 57, 64
1, 800474, Control_c, 0, 64, 115
1, 800475, Note_off_c, 0, 62, 41
1, 800489, Control_c, 0, 64, 87
1, 800504, Control_c, 0, 64, 74
1, 800518, Control_c, 0, 64, 65
1, 800533, Control_c, 0, 64, 63
1, 800548, Control_c, 0, 64, 66
1, 800564, Control_c, 0, 64, 73
1, 800579, Control_c, 0, 64, 89
1, 800594, Control_c, 0, 64, 127
1, 800609, Note_on_c, 0, 55, 35
1, 800640, Note_off_c, 0, 53, 39
1, 800713, Note_on_c, 0, 64, 86
1, 800721, Note_on_c, 0, 77, 101
1, 800732, Note_off_c, 0, 65, 60
1, 800765, Note_off_c, 0, 55, 51
1, 800822, Note_off_c, 0, 74, 62
1, 800934, Note_on_c, 0, 62, 77
1, 800944, Note_off_c, 0, 64, 34
1, 800954, Note_on_c, 0, 60, 63
1, 800974, Note_off_c, 0, 62, 65
1, 800974, Note_off_c, 0, 60, 63
1, 800991, Note_off_c, 0, 57, 65
1, 800996, Note_on_c, 0, 81, 98
1, 801016, Note_off_c, 0, 77, 60
1, 801179, Control_c, 0, 64, 115
1, 801182, Note_on_c, 0, 78, 103
1, 801189, Note_on_c, 0, 69, 94
1, 801194, Control_c, 0, 64, 68
1, 801209, Control_c, 0, 64, 0
1, 801228, Note_off_c, 0, 81, 62
1, 801258, Note_on_c, 0, 45, 87
1, 801262, Note_on_c, 0, 38, 85
1, 801282, Control_c, 0, 64, 66
1, 801297, Control_c, 0, 64, 127
1, 801300, Note_off_c, 0, 69, 57
1, 801345, Note_off_c, 0, 78, 64
1, 801388, Note_off_c, 0, 38, 60
1, 801399, Note_on_c, 0, 86, 100
1, 801412, Note_on_c, 0, 79, 83
1, 801481, Note_on_c, 0, 54, 98
1, 801487, Note_off_c, 0, 79, 43
1, 801508, Note_off_c, 0, 45, 61
1, 801581, Note_off_c, 0, 54, 59
1, 801650, Note_on_c, 0, 78, 72
1, 802006, Note_on_c, 0, 66, 100
1, 802011, Note_on_c, 0, 54, 87
1, 802013, Note_on_c, 0, 61, 85
1, 802021, Note_on_c, 0, 58, 78
1, 802068, Note_off_c, 0, 54, 65
1, 802099, Note_off_c, 0, 58, 60
1, 802101, Note_off_c, 0, 61, 61
1, 802109, Note_off_c, 0, 66, 56
1, 802447, Note_on_c, 0, 74, 85
1, 802453, Note_on_c, 0, 66, 67
1, 802454, Note_on_c, 0, 62, 70
1, 802454, Note_on_c, 0, 69, 72
1, 802536, Control_c, 0, 64, 104
1, 802551, Control_c, 0, 64, 86
1, 802573, Control_c, 0, 64, 72
1, 802587, Control_c, 0, 64, 64
1, 802602, Control_c, 0, 64, 53
1, 802617, Control_c, 0, 64, 45
1, 802632, Control_c, 0, 64, 43
1, 802647, Control_c, 0, 64, 42
1, 802661, Control_c, 0, 64, 40
1, 802676, Control_c, 0, 64, 39
1, 802691, Control_c, 0, 64, 39
1, 802706, Control_c, 0, 64, 39
1, 802721, Control_c, 0, 64, 42
1, 802736, Control_c, 0, 64, 47
1, 802751, Control_c, 0, 64, 53
1, 802766, Control_c, 0, 64, 57
1, 802781, Control_c, 0, 64, 59
1, 802795, Control_c, 0, 64, 62
1, 802810, Control_c, 0, 64, 64
1, 802822, Note_on_c, 0, 85, 76
1, 802825, Control_c, 0, 64, 67
1, 802840, Control_c, 0, 64, 72
1, 802855, Control_c, 0, 64, 81
1, 802869, Control_c, 0, 64, 105
1, 802884, Control_c, 0, 64, 127
1, 803001, Note_off_c, 0, 74, 58
1, 803069, Note_off_c, 0, 66, 51
1, 803111, Note_on_c, 0, 83, 80
1, 803138, Note_off_c, 0, 86, 60
1, 803155, Note_off_c, 0, 69, 48
1, 803212, Note_off_c, 0, 85, 62
1, 803258, Note_off_c, 0, 78, 50
1, 803368, Note_on_c, 0, 65, 43
1, 803370, Note_on_c, 0, 73, 55
1, 803386, Note_on_c, 0, 61, 42
1, 803386, Note_on_c, 0, 68, 48
1, 803396, Control_c, 0, 64, 108
1, 803410, Control_c, 0, 64, 86
1, 803425, Control_c, 0, 64, 73
1, 803435, Note_on_c, 0, 85, 78
1, 803440, Control_c, 0, 64, 64
1, 803441, Note_on_c, 0, 77, 63
1, 803455, Control_c, 0, 64, 55
1, 803459, Note_off_c, 0, 62, 39
1, 803470, Control_c, 0, 64, 52
1, 803484, Control_c, 0, 64, 53
1, 803491, Note_off_c, 0, 83, 61
1, 803499, Control_c, 0, 64, 56
1, 803514, Control_c, 0, 64, 63
1, 803529, Control_c, 0, 64, 69
1, 803538, Note_off_c, 0, 73, 64
1, 803544, Control_c, 0, 64, 84
1, 803558, Note_off_c, 0, 68, 61
1, 803559, Control_c, 0, 64, 127
1, 803560, Note_off_c, 0, 65, 61
1, 803602, Note_off_c, 0, 61, 62
1, 803675, Note_on_c, 0, 63, 82
1, 803684, Note_on_c, 0, 55, 71
1, 803684, Note_on_c, 0, 58, 77
1, 803687, Note_on_c, 0, 75, 92
1, 803711, Note_off_c, 0, 63, 55
1, 803735, Note_off_c, 0, 77, 62
1, 803737, Note_off_c, 0, 58, 61
1, 803749, Note_off_c, 0, 55, 63
1, 803920, Note_on_c, 0, 53, 82
1, 803921, Note_on_c, 0, 50, 79
1, 803929, Note_on_c, 0, 46, 78
1, 803944, Note_on_c, 0, 74, 94
1, 803946, Note_off_c, 0, 75, 61
1, 803977, Note_off_c, 0, 50, 65
1, 803982, Note_off_c, 0, 53, 63
1, 804000, Note_off_c, 0, 46, 64
1, 804118, Note_off_c, 0, 74, 62
1, 804164, Note_on_c, 0, 45, 82
1, 804166, Note_on_c, 0, 38, 73
1, 804204, Control_c, 0, 64, 115
1, 804219, Control_c, 0, 64, 77
1, 804233, Control_c, 0, 64, 53
1, 804248, Control_c, 0, 64, 0
1, 804251, Note_on_c, 0, 86, 95
1, 804256, Note_on_c, 0, 73, 92
1, 804288, Note_off_c, 0, 85, 64
1, 804307, Control_c, 0, 64, 41
1, 804322, Control_c, 0, 64, 69
1, 804337, Control_c, 0, 64, 127
1, 804346, Note_off_c, 0, 38, 60
1, 804411, Note_off_c, 0, 73, 63
1, 804416, Note_off_c, 0, 45, 63
1, 804417, Note_on_c, 0, 54, 90
1, 804456, Note_off_c, 0, 54, 62
1, 804528, Note_on_c, 0, 74, 97
1, 804778, Note_on_c, 0, 66, 91
1, 804781, Note_on_c, 0, 54, 88
1, 804787, Note_on_c, 0, 61, 77
1, 804789, Note_on_c, 0, 58, 77
1, 804815, Note_on_c, 0, 81, 94
1, 804843, Note_off_c, 0, 54, 63
1, 804854, Note_off_c, 0, 74, 58
1, 804875, Note_off_c, 0, 61, 63
1, 804876, Note_off_c, 0, 58, 62
1, 804879, Note_off_c, 0, 66, 59
1, 805180, Note_on_c, 0, 74, 81
1, 805183, Note_on_c, 0, 69, 75
1, 805183, Note_on_c, 0, 62, 66
1, 805185, Note_on_c, 0, 66, 62
1, 805198, Note_on_c, 0, 78, 83
1, 805219, Control_c, 0, 64, 105
1, 805234, Control_c, 0, 64, 93
1, 805249, Control_c, 0, 64, 85
1, 805255, Note_off_c, 0, 81, 58
1, 805264, Control_c, 0, 64, 77
1, 805279, Control_c, 0, 64, 70
1, 805294, Control_c, 0, 64, 64
1, 805308, Control_c, 0, 64, 58
1, 805323, Control_c, 0, 64, 52
1, 805338, Control_c, 0, 64, 49
1, 805353, Control_c, 0, 64, 47
1, 805368, Control_c, 0, 64, 46
1, 805383, Control_c, 0, 64, 45
1, 805443, Control_c, 0, 64, 46
1, 805458, Control_c, 0, 64, 47
1, 805473, Control_c, 0, 64, 48
1, 805487, Control_c, 0, 64, 50
1, 805502, Control_c, 0, 64, 51
1, 805510, Note_on_c, 0, 85, 78
1, 805517, Control_c, 0, 64, 53
1, 805532, Control_c, 0, 64, 55
1, 805547, Control_c, 0, 64, 56
1, 805569, Control_c, 0, 64, 57
1, 805584, Control_c, 0, 64, 59
1, 805599, Control_c, 0, 64, 61
1, 805613, Control_c, 0, 64, 62
1, 805628, Control_c, 0, 64, 64
1, 805643, Control_c, 0, 64, 66
1, 805658, Control_c, 0, 64, 69
1, 805673, Control_c, 0, 64, 75
1, 805687, Control_c, 0, 64, 85
1, 805696, Note_off_c, 0, 74, 53
1, 805702, Control_c, 0, 64, 109
1, 805717, Control_c, 0, 64, 127
1, 805765, Note_off_c, 0, 69, 60
1, 805792, Note_on_c, 0, 83, 82
1, 805819, Note_off_c, 0, 66, 47
1, 805853, Note_off_c, 0, 86, 59
1, 805913, Note_off_c, 0, 78, 51
1, 805920, Note_off_c, 0, 85, 60
1, 806047, Note_on_c, 0, 65, 30
1, 806067, Note_on_c, 0, 73, 43
1, 806073, Control_c, 0, 64, 99
1, 806078, Note_on_c, 0, 61, 48
1, 806080, Note_on_c, 0, 68, 40
1, 806087, Control_c, 0, 64, 85
1, 806089, Note_on_c, 0, 77, 60
1, 806091, Note_on_c, 0, 85, 75
1, 806102, Control_c, 0, 64, 73
1, 806117, Control_c, 0, 64, 65
1, 806131, Control_c, 0, 64, 60
1, 806146, Control_c, 0, 64, 55
1, 806148, Note_off_c, 0, 83, 59
1, 806159, Note_off_c, 0, 62, 38
1, 806161, Control_c, 0, 64, 56
1, 806176, Control_c, 0, 64, 59
1, 806191, Control_c, 0, 64, 64
1, 806203, Note_off_c, 0, 73, 63
1, 806206, Control_c, 0, 64, 70
1, 806209, Note_off_c, 0, 65, 42
1, 806218, Note_off_c, 0, 68, 62
1, 806221, Control_c, 0, 64, 79
1, 806235, Control_c, 0, 64, 102
1, 806250, Control_c, 0, 64, 127
1, 806268, Note_off_c, 0, 61, 62
1, 806365, Note_on_c, 0, 75, 83
1, 806386, Note_on_c, 0, 63, 40
1, 806406, Note_on_c, 0, 55, 37
1, 806419, Note_off_c, 0, 63, 51
1, 806428, Note_off_c, 0, 77, 60
1, 806435, Note_on_c, 0, 57, 20
1, 806464, Note_off_c, 0, 55, 62
1, 806477, Note_off_c, 0, 57, 53
1, 806603, Note_on_c, 0, 51, 20
1, 806648, Note_off_c, 0, 51, 40
1, 806659, Note_on_c, 0, 46, 68
1, 806660, Note_on_c, 0, 74, 88
1, 806663, Note_on_c, 0, 53, 68
1, 806676, Note_on_c, 0, 50, 60
1, 806683, Note_off_c, 0, 75, 62
1, 806754, Note_off_c, 0, 50, 63
1, 806771, Note_off_c, 0, 53, 63
1, 806781, Note_off_c, 0, 46, 62
1, 806856, Note_off_c, 0, 74, 61
1, 806933, Note_on_c, 0, 45, 60
1, 806941, Note_on_c, 0, 38, 57
1, 806999, Control_c, 0, 64, 101
1, 807014, Control_c, 0, 64, 86
1, 807029, Control_c, 0, 64, 73
1, 807035, Note_on_c, 0, 86, 82
1, 807044, Control_c, 0, 64, 64
1, 807046, Note_on_c, 0, 73, 68
1, 807066, Control_c, 0, 64, 55
1, 807081, Control_c, 0, 64, 44
1, 807096, Control_c, 0, 64, 39
1, 807131, Note_off_c, 0, 85, 58
1, 807140, Control_c, 0, 64, 46
1, 807155, Control_c, 0, 64, 57
1, 807170, Control_c, 0, 64, 63
1, 807184, Control_c, 0, 64, 70
1, 807186, Note_off_c, 0, 38, 53
1, 807199, Control_c, 0, 64, 92
1, 807214, Control_c, 0, 64, 127
1, 807240, Note_off_c, 0, 73, 63
1, 807258, Note_on_c, 0, 54, 71
1, 807288, Note_off_c, 0, 45, 61
1, 807323, Note_on_c, 0, 74, 81
1, 807358, Note_off_c, 0, 54, 62
1, 807599, Control_c, 0, 64, 115
1, 807608, Note_on_c, 0, 81, 78
1, 807614, Control_c, 0, 64, 112
1, 807629, Control_c, 0, 64, 108
1, 807644, Control_c, 0, 64, 103
1, 807658, Control_c, 0, 64, 98
1, 807673, Control_c, 0, 64, 92
1, 807688, Control_c, 0, 64, 89
1, 807702, Control_c, 0, 64, 86
1, 807708, Note_off_c, 0, 74, 54
1, 807717, Control_c, 0, 64, 83
1, 807732, Control_c, 0, 64, 80
1, 807748, Control_c, 0, 64, 77
1, 807763, Control_c, 0, 64, 75
1, 807778, Control_c, 0, 64, 72
1, 807793, Control_c, 0, 64, 70
1, 807815, Control_c, 0, 64, 69
1, 807830, Control_c, 0, 64, 68
1, 807845, Control_c, 0, 64, 67
1, 807860, Control_c, 0, 64, 67
1, 807875, Control_c, 0, 64, 66
1, 807889, Control_c, 0, 64, 65
1, 807904, Control_c, 0, 64, 64
1, 807919, Control_c, 0, 64, 63
1, 807934, Control_c, 0, 64, 63
1, 807949, Control_c, 0, 64, 62
1, 807963, Control_c, 0, 64, 61
1, 807978, Control_c, 0, 64, 60
1, 807993, Control_c, 0, 64, 59
1, 808007, Control_c, 0, 64, 58
1, 808015, Note_on_c, 0, 66, 68
1, 808022, Control_c, 0, 64, 56
1, 808023, Note_on_c, 0, 62, 40
1, 808023, Note_on_c, 0, 78, 68
1, 808027, Note_on_c, 0, 57, 21
1, 808037, Control_c, 0, 64, 54
1, 808052, Control_c, 0, 64, 51
1, 808067, Control_c, 0, 64, 47
1, 808081, Control_c, 0, 64, 45
1, 808096, Control_c, 0, 64, 44
1, 808111, Control_c, 0, 64, 43
1, 808125, Control_c, 0, 64, 43
1, 808185, Control_c, 0, 64, 43
1, 808188, Note_off_c, 0, 81, 55
1, 808200, Control_c, 0, 64, 44
1, 808215, Control_c, 0, 64, 46
1, 808230, Control_c, 0, 64, 49
1, 808245, Control_c, 0, 64, 53
1, 808260, Control_c, 0, 64, 56
1, 808274, Control_c, 0, 64, 59
1, 808289, Control_c, 0, 64, 61
1, 808304, Control_c, 0, 64, 63
1, 808319, Control_c, 0, 64, 65
1, 808333, Control_c, 0, 64, 69
1, 808348, Control_c, 0, 64, 77
1, 808363, Control_c, 0, 64, 94
1, 808378, Control_c, 0, 64, 127
1, 808579, Note_off_c, 0, 66, 34
1, 808644, Note_on_c, 0, 81, 65
1, 808694, Note_off_c, 0, 57, 41
1, 808739, Note_off_c, 0, 62, 27
1, 808826, Poly_aftertouch_c, 0, 83, 127
1, 808965, Note_on_c, 0, 62, 32
1, 808970, Note_on_c, 0, 65, 41
1, 808972, Note_on_c, 0, 57, 40
1, 808974, Note_on_c, 0, 77, 62
1, 808978, Control_c, 0, 64, 112
1, 808993, Control_c, 0, 64, 102
1, 809008, Control_c, 0, 64, 92
1, 809023, Control_c, 0, 64, 82
1, 809038, Control_c, 0, 64, 73
1, 809052, Control_c, 0, 64, 65
1, 809067, Note_off_c, 0, 81, 51
1, 809067, Control_c, 0, 64, 59
1, 809082, Control_c, 0, 64, 54
1, 809097, Control_c, 0, 64, 55
1, 809112, Control_c, 0, 64, 59
1, 809127, Control_c, 0, 64, 63
1, 809136, Note_off_c, 0, 78, 37
1, 809142, Control_c, 0, 64, 67
1, 809157, Control_c, 0, 64, 73
1, 809172, Control_c, 0, 64, 86
1, 809187, Control_c, 0, 64, 110
1, 809189, Note_off_c, 0, 77, 57
1, 809201, Control_c, 0, 64, 127
1, 809222, Note_off_c, 0, 65, 33
1, 809278, Note_on_c, 0, 77, 67
1, 809287, Note_off_c, 0, 62, 51
1, 809325, Note_off_c, 0, 57, 57
1, 809387, Control_c, 0, 64, 119
1, 809402, Control_c, 0, 64, 115
1, 809417, Control_c, 0, 64, 113
1, 809432, Control_c, 0, 64, 110
1, 809447, Control_c, 0, 64, 106
1, 809461, Control_c, 0, 64, 103
1, 809476, Control_c, 0, 64, 102
1, 809491, Control_c, 0, 64, 100
1, 809506, Control_c, 0, 64, 98
1, 809521, Control_c, 0, 64, 95
1, 809535, Control_c, 0, 64, 92
1, 809546, Note_on_c, 0, 81, 65
1, 809550, Control_c, 0, 64, 91
1, 809565, Control_c, 0, 64, 89
1, 809580, Control_c, 0, 64, 87
1, 809595, Control_c, 0, 64, 84
1, 809610, Control_c, 0, 64, 82
1, 809625, Control_c, 0, 64, 80
1, 809628, Note_off_c, 0, 77, 50
1, 809640, Control_c, 0, 64, 78
1, 809654, Control_c, 0, 64, 77
1, 809669, Control_c, 0, 64, 75
1, 809684, Control_c, 0, 64, 73
1, 809699, Control_c, 0, 64, 73
1, 809714, Control_c, 0, 64, 72
1, 809728, Control_c, 0, 64, 70
1, 809743, Control_c, 0, 64, 69
1, 809758, Control_c, 0, 64, 68
1, 809772, Control_c, 0, 64, 68
1, 809802, Control_c, 0, 64, 67
1, 809817, Control_c, 0, 64, 66
1, 809832, Control_c, 0, 64, 65
1, 809846, Control_c, 0, 64, 65
1, 809852, Note_on_c, 0, 38, 34
1, 809861, Control_c, 0, 64, 64
1, 809876, Control_c, 0, 64, 63
1, 809891, Control_c, 0, 64, 61
1, 809905, Control_c, 0, 64, 58
1, 809919, Control_c, 0, 64, 53
1, 809934, Control_c, 0, 64, 50
1, 809939, Note_on_c, 0, 76, 53
1, 809949, Control_c, 0, 64, 48
1, 809978, Control_c, 0, 64, 48
1, 809993, Control_c, 0, 64, 53
1, 810008, Control_c, 0, 64, 59
1, 810018, Note_off_c, 0, 81, 56
1, 810023, Control_c, 0, 64, 63
1, 810035, Note_on_c, 0, 45, 35
1, 810038, Control_c, 0, 64, 65
1, 810060, Control_c, 0, 64, 70
1, 810075, Control_c, 0, 64, 79
1, 810090, Control_c, 0, 64, 99
1, 810102, Note_off_c, 0, 38, 39
1, 810104, Control_c, 0, 64, 127
1, 810123, Note_off_c, 0, 45, 52
1, 810183, Note_on_c, 0, 55, 50
1, 810257, Note_off_c, 0, 55, 53
1, 810653, Note_on_c, 0, 81, 59
1, 810756, Note_off_c, 0, 76, 52
1, 811059, Note_on_c, 0, 67, 50
1, 811091, Note_on_c, 0, 57, 27
1, 811091, Note_on_c, 0, 62, 36
1, 811100, Note_on_c, 0, 74, 44
1, 811150, Control_c, 0, 64, 115
1, 811165, Control_c, 0, 64, 100
1, 811180, Control_c, 0, 64, 91
1, 811195, Control_c, 0, 64, 83
1, 811210, Control_c, 0, 64, 77
1, 811224, Control_c, 0, 64, 71
1, 811230, Note_off_c, 0, 81, 53
1, 811239, Control_c, 0, 64, 66
1, 811254, Control_c, 0, 64, 63
1, 811269, Control_c, 0, 64, 61
1, 811284, Control_c, 0, 64, 60
1, 811342, Control_c, 0, 64, 60
1, 811357, Control_c, 0, 64, 61
1, 811387, Control_c, 0, 64, 61
1, 811402, Control_c, 0, 64, 62
1, 811416, Control_c, 0, 64, 62
1, 811431, Control_c, 0, 64, 63
1, 811446, Control_c, 0, 64, 64
1, 811461, Control_c, 0, 64, 64
1, 811467, Note_on_c, 0, 66, 67
1, 811491, Control_c, 0, 64, 65
1, 811506, Control_c, 0, 64, 66
1, 811521, Control_c, 0, 64, 67
1, 811536, Control_c, 0, 64, 68
1, 811557, Control_c, 0, 64, 70
1, 811572, Control_c, 0, 64, 73
1, 811587, Control_c, 0, 64, 77
1, 811602, Control_c, 0, 64, 85
1, 811617, Control_c, 0, 64, 103
1, 811621, Note_off_c, 0, 67, 56
1, 811631, Control_c, 0, 64, 127
1, 811759, Note_on_c, 0, 65, 65
1, 811763, Note_on_c, 0, 81, 63
1, 811810, Control_c, 0, 64, 87
1, 811825, Control_c, 0, 64, 72
1, 811830, Note_off_c, 0, 74, 60
1, 811840, Control_c, 0, 64, 63
1, 811843, Note_off_c, 0, 66, 52
1, 811854, Control_c, 0, 64, 57
1, 811869, Control_c, 0, 64, 58
1, 811884, Control_c, 0, 64, 63
1, 811899, Control_c, 0, 64, 68
1, 811914, Control_c, 0, 64, 77
1, 811923, Note_off_c, 0, 57, 40
1, 811929, Control_c, 0, 64, 97
1, 811944, Control_c, 0, 64, 127
1, 811986, Poly_aftertouch_c, 0, 83, 0
1, 812047, Note_off_c, 0, 65, 56
1, 812048, Note_off_c, 0, 62, 35
1, 812086, Note_on_c, 0, 66, 46
1, 812098, Note_on_c, 0, 73, 57
1, 812107, Control_c, 0, 64, 104
1, 812114, Note_on_c, 0, 57, 37
1, 812116, Note_on_c, 0, 61, 32
1, 812121, Control_c, 0, 64, 83
1, 812136, Control_c, 0, 64, 71
1, 812138, Note_off_c, 0, 86, 34
1, 812151, Control_c, 0, 64, 61
1, 812165, Control_c, 0, 64, 51
1, 812180, Control_c, 0, 64, 47
1, 812182, Note_off_c, 0, 81, 58
1, 812193, Note_off_c, 0, 61, 0
1, 812193, Note_on_c, 0, 61, 9
1, 812195, Control_c, 0, 64, 47
1, 812210, Control_c, 0, 64, 53
1, 812225, Control_c, 0, 64, 61
1, 812227, Note_off_c, 0, 66, 63
1, 812239, Control_c, 0, 64, 69
1, 812254, Control_c, 0, 64, 81
1, 812268, Note_off_c, 0, 61, 60
1, 812269, Control_c, 0, 64, 127
1, 812274, Note_off_c, 0, 57, 58
1, 812339, Note_off_c, 0, 73, 62
1, 812439, Note_on_c, 0, 49, 49
1, 812528, Control_c, 0, 64, 103
1, 812544, Control_c, 0, 64, 82
1, 812559, Control_c, 0, 64, 71
1, 812574, Control_c, 0, 64, 65
1, 812603, Control_c, 0, 64, 68
1, 812618, Control_c, 0, 64, 74
1, 812633, Control_c, 0, 64, 84
1, 812648, Control_c, 0, 64, 97
1, 812663, Control_c, 0, 64, 115
1, 812677, Control_c, 0, 64, 127
1, 812697, Note_off_c, 0, 49, 35
1, 812722, Control_c, 0, 64, 116
1, 812737, Control_c, 0, 64, 107
1, 812752, Control_c, 0, 64, 101
1, 812767, Control_c, 0, 64, 94
1, 812782, Control_c, 0, 64, 86
1, 812791, Note_on_c, 0, 42, 35
1, 812796, Control_c, 0, 64, 77
1, 812811, Control_c, 0, 64, 70
1, 812826, Control_c, 0, 64, 65
1, 812841, Control_c, 0, 64, 61
1, 812856, Control_c, 0, 64, 59
1, 812870, Control_c, 0, 64, 58
1, 812885, Control_c, 0, 64, 59
1, 812900, Control_c, 0, 64, 62
1, 812915, Control_c, 0, 64, 65
1, 812930, Control_c, 0, 64, 69
1, 812944, Control_c, 0, 64, 75
1, 812959, Control_c, 0, 64, 85
1, 812974, Control_c, 0, 64, 99
1, 812981, Note_off_c, 0, 42, 41
1, 812989, Control_c, 0, 64, 127
1, 813370, Note_on_c, 0, 41, 26
1, 813376, Note_on_c, 0, 34, 32
1, 813393, Note_on_c, 0, 62, 34
1, 813398, Note_on_c, 0, 58, 31
1, 813402, Note_on_c, 0, 50, 25
1, 813471, Control_c, 0, 64, 113
1, 813486, Control_c, 0, 64, 101
1, 813500, Control_c, 0, 64, 94
1, 813515, Control_c, 0, 64, 88
1, 813530, Control_c, 0, 64, 84
1, 813545, Control_c, 0, 64, 78
1, 813560, Control_c, 0, 64, 73
1, 813574, Control_c, 0, 64, 68
1, 813589, Control_c, 0, 64, 64
1, 813604, Control_c, 0, 64, 59
1, 813619, Control_c, 0, 64, 56
1, 813634, Control_c, 0, 64, 55
1, 813693, Control_c, 0, 64, 56
1, 813708, Control_c, 0, 64, 57
1, 813723, Control_c, 0, 64, 59
1, 813738, Control_c, 0, 64, 62
1, 813753, Control_c, 0, 64, 64
1, 813767, Control_c, 0, 64, 67
1, 813782, Control_c, 0, 64, 71
1, 813804, Control_c, 0, 64, 75
1, 813807, Note_off_c, 0, 34, 43
1, 813819, Control_c, 0, 64, 81
1, 813834, Control_c, 0, 64, 89
1, 813849, Control_c, 0, 64, 97
1, 813857, Note_off_c, 0, 41, 40
1, 813864, Control_c, 0, 64, 104
1, 813879, Control_c, 0, 64, 106
1, 813938, Note_off_c, 0, 50, 39
1, 813967, Control_c, 0, 64, 105
1, 813982, Control_c, 0, 64, 104
1, 813997, Control_c, 0, 64, 104
1, 814012, Control_c, 0, 64, 103
1, 814026, Control_c, 0, 64, 100
1, 814041, Control_c, 0, 64, 98
1, 814056, Control_c, 0, 64, 96
1, 814071, Control_c, 0, 64, 96
1, 814100, Control_c, 0, 64, 95
1, 814115, Control_c, 0, 64, 95
1, 814130, Control_c, 0, 64, 94
1, 814146, Control_c, 0, 64, 93
1, 814176, Control_c, 0, 64, 93
1, 814190, Control_c, 0, 64, 92
1, 814205, Control_c, 0, 64, 91
1, 814220, Control_c, 0, 64, 90
1, 814235, Control_c, 0, 64, 89
1, 814249, Control_c, 0, 64, 88
1, 814264, Control_c, 0, 64, 87
1, 814279, Control_c, 0, 64, 87
1, 814309, Control_c, 0, 64, 86
1, 814323, Control_c, 0, 64, 85
1, 814338, Control_c, 0, 64, 83
1, 814353, Control_c, 0, 64, 82
1, 814383, Control_c, 0, 64, 81
1, 814397, Control_c, 0, 64, 80
1, 814412, Control_c, 0, 64, 79
1, 814427, Control_c, 0, 64, 78
1, 814442, Control_c, 0, 64, 77
1, 814457, Control_c, 0, 64, 76
1, 814472, Control_c, 0, 64, 74
1, 814487, Control_c, 0, 64, 72
1, 814502, Control_c, 0, 64, 70
1, 814516, Control_c, 0, 64, 68
1, 814531, Control_c, 0, 64, 66
1, 814553, Control_c, 0, 64, 64
1, 814567, Control_c, 0, 64, 63
1, 814582, Control_c, 0, 64, 61
1, 814597, Control_c, 0, 64, 60
1, 814612, Control_c, 0, 64, 59
1, 814624, Note_on_c, 0, 74, 30
1, 814627, Note_on_c, 0, 70, 33
1, 814627, Control_c, 0, 64, 58
1, 814638, Note_on_c, 0, 65, 31
1, 814644, Note_on_c, 0, 50, 31
1, 814686, Control_c, 0, 64, 59
1, 814701, Control_c, 0, 64, 60
1, 814716, Control_c, 0, 64, 62
1, 814731, Control_c, 0, 64, 64
1, 814746, Control_c, 0, 64, 66
1, 814761, Control_c, 0, 64, 70
1, 814775, Control_c, 0, 64, 74
1, 814790, Control_c, 0, 64, 80
1, 814805, Control_c, 0, 64, 88
1, 814820, Control_c, 0, 64, 101
1, 814830, Note_off_c, 0, 74, 36
1, 814835, Control_c, 0, 64, 127
1, 814841, Note_off_c, 0, 50, 37
1, 814915, Note_off_c, 0, 70, 40
1, 814927, Note_off_c, 0, 65, 39
1, 814951, Note_off_c, 0, 58, 18
1, 814952, Note_on_c, 0, 63, 47
1, 814961, Note_on_c, 0, 59, 38
1, 815081, Note_off_c, 0, 62, 37
1, 815088, Note_off_c, 0, 59, 56
1, 815250, Note_on_c, 0, 62, 59
1, 815256, Note_on_c, 0, 51, 50
1, 815261, Note_on_c, 0, 58, 43
1, 815343, Note_off_c, 0, 63, 37
1, 815363, Note_off_c, 0, 58, 49
1, 815441, Note_off_c, 0, 51, 42
1, 815627, Note_on_c, 0, 30, 34
1, 815639, Note_on_c, 0, 42, 8
1, 815643, Control_c, 0, 64, 107
1, 815651, Note_on_c, 0, 52, 68
1, 815658, Control_c, 0, 64, 95
1, 815672, Control_c, 0, 64, 85
1, 815681, Note_on_c, 0, 61, 48
1, 815687, Control_c, 0, 64, 76
1, 815702, Control_c, 0, 64, 69
1, 815717, Control_c, 0, 64, 63
1, 815727, Poly_aftertouch_c, 0, 57, 127
1, 815732, Control_c, 0, 64, 55
1, 815748, Control_c, 0, 64, 48
1, 815756, Note_off_c, 0, 42, 0
1, 815762, Control_c, 0, 64, 47
1, 815792, Control_c, 0, 64, 49
1, 815792, Poly_aftertouch_c, 0, 42, 127
1, 815806, Note_off_c, 0, 62, 37
1, 815807, Control_c, 0, 64, 55
1, 815821, Control_c, 0, 64, 61
1, 815836, Control_c, 0, 64, 65
1, 815851, Control_c, 0, 64, 70
1, 815866, Control_c, 0, 64, 80
1, 815881, Control_c, 0, 64, 105
1, 815895, Control_c, 0, 64, 127
1, 815913, Note_off_c, 0, 52, 55
1, 815917, Poly_aftertouch_c, 0, 57, 0
1, 815926, Note_off_c, 0, 30, 42
1, 815929, Note_off_c, 0, 61, 27
1, 816058, Note_on_c, 0, 57, 42
1, 816059, Note_on_c, 0, 61, 29
1, 816083, Note_on_c, 0, 66, 56
1, 816087, Poly_aftertouch_c, 0, 42, 0
1, 816133, Note_off_c, 0, 57, 57
1, 816173, Note_off_c, 0, 61, 61
1, 816260, Note_on_c, 0, 52, 76
1, 816266, Note_off_c, 0, 66, 59
1, 816311, Note_off_c, 0, 52, 62
1, 816317, Note_on_c, 0, 68, 66
1, 816334, Note_on_c, 0, 59, 54
1, 816338, Note_on_c, 0, 63, 52
1, 816410, Note_off_c, 0, 59, 53
1, 816419, Note_on_c, 0, 34, 57
1, 816463, Note_on_c, 0, 41, 52
1, 816480, Note_off_c, 0, 34, 61
1, 816615, Control_c, 0, 64, 110
1, 816630, Control_c, 0, 64, 104
1, 816644, Control_c, 0, 64, 101
1, 816648, Note_on_c, 0, 51, 71
1, 816659, Control_c, 0, 64, 98
1, 816668, Note_on_c, 0, 69, 55
1, 816674, Control_c, 0, 64, 93
1, 816677, Note_on_c, 0, 60, 46
1, 816689, Control_c, 0, 64, 87
1, 816689, Note_on_c, 0, 64, 41
1, 816704, Control_c, 0, 64, 80
1, 816718, Control_c, 0, 64, 72
1, 816733, Control_c, 0, 64, 66
1, 816739, Note_off_c, 0, 68, 24
1, 816748, Control_c, 0, 64, 61
1, 816750, Note_off_c, 0, 63, 32
1, 816763, Control_c, 0, 64, 55
1, 816778, Control_c, 0, 64, 52
1, 816800, Control_c, 0, 64, 51
1, 816859, Control_c, 0, 64, 52
1, 816874, Control_c, 0, 64, 55
1, 816884, Note_off_c, 0, 41, 40
1, 816889, Control_c, 0, 64, 58
1, 816904, Control_c, 0, 64, 61
1, 816918, Control_c, 0, 64, 63
1, 816933, Control_c, 0, 64, 66
1, 816948, Control_c, 0, 64, 69
1, 816961, Note_on_c, 0, 61, 55
1, 816963, Control_c, 0, 64, 74
1, 816978, Control_c, 0, 64, 84
1, 816992, Control_c, 0, 64, 101
1, 817007, Control_c, 0, 64, 127
1, 817071, Note_off_c, 0, 64, 58
1, 817072, Note_off_c, 0, 61, 57
1, 817095, Note_off_c, 0, 51, 63
1, 817233, Note_on_c, 0, 53, 57
1, 817258, Note_on_c, 0, 67, 51
1, 817264, Note_on_c, 0, 63, 47
1, 817274, Control_c, 0, 64, 120
1, 817289, Control_c, 0, 64, 110
1, 817304, Control_c, 0, 64, 104
1, 817313, Note_off_c, 0, 69, 57
1, 817318, Control_c, 0, 64, 97
1, 817333, Control_c, 0, 64, 93
1, 817342, Note_off_c, 0, 60, 51
1, 817348, Control_c, 0, 64, 90
1, 817363, Control_c, 0, 64, 87
1, 817366, Note_on_c, 0, 51, 59
1, 817378, Control_c, 0, 64, 85
1, 817393, Control_c, 0, 64, 82
1, 817408, Control_c, 0, 64, 79
1, 817423, Control_c, 0, 64, 77
1, 817438, Control_c, 0, 64, 75
1, 817453, Control_c, 0, 64, 73
1, 817467, Control_c, 0, 64, 71
1, 817482, Control_c, 0, 64, 69
1, 817497, Control_c, 0, 64, 68
1, 817512, Control_c, 0, 64, 66
1, 817527, Control_c, 0, 64, 64
1, 817542, Note_off_c, 0, 53, 33
1, 817548, Control_c, 0, 64, 63
1, 817563, Control_c, 0, 64, 62
1, 817573, Note_on_c, 0, 50, 44
1, 817578, Control_c, 0, 64, 62
1, 817583, Note_on_c, 0, 70, 49
1, 817584, Note_on_c, 0, 62, 38
1, 817593, Control_c, 0, 64, 60
1, 817602, Note_on_c, 0, 65, 30
1, 817608, Control_c, 0, 64, 58
1, 817623, Control_c, 0, 64, 55
1, 817637, Control_c, 0, 64, 52
1, 817642, Note_off_c, 0, 63, 32
1, 817650, Note_off_c, 0, 51, 37
1, 817652, Control_c, 0, 64, 46
1, 817667, Control_c, 0, 64, 40
1, 817682, Control_c, 0, 64, 33
1, 817689, Note_off_c, 0, 67, 36
1, 817697, Control_c, 0, 64, 29
1, 817712, Control_c, 0, 64, 28
1, 817741, Control_c, 0, 64, 38
1, 817756, Control_c, 0, 64, 51
1, 817766, Note_off_c, 0, 65, 57
1, 817771, Control_c, 0, 64, 59
1, 817786, Control_c, 0, 64, 63
1, 817797, Note_off_c, 0, 70, 65
1, 817800, Control_c, 0, 64, 67
1, 817815, Control_c, 0, 64, 73
1, 817830, Control_c, 0, 64, 87
1, 817845, Control_c, 0, 64, 110
1, 817859, Control_c, 0, 64, 127
1, 817884, Note_on_c, 0, 72, 63
1, 817926, Note_off_c, 0, 50, 62
1, 818041, Note_off_c, 0, 62, 34
1, 818162, Note_on_c, 0, 74, 72
1, 818198, Note_off_c, 0, 72, 61
1, 818270, Note_on_c, 0, 33, 44
1, 818401, Control_c, 0, 64, 114
1, 818415, Control_c, 0, 64, 108
1, 818430, Control_c, 0, 64, 102
1, 818439, Poly_aftertouch_c, 0, 35, 127
1, 818445, Control_c, 0, 64, 95
1, 818460, Control_c, 0, 64, 87
1, 818463, Note_on_c, 0, 75, 69
1, 818469, Note_on_c, 0, 72, 55
1, 818472, Note_on_c, 0, 70, 49
1, 818475, Note_on_c, 0, 48, 46
1, 818475, Control_c, 0, 64, 78
1, 818490, Control_c, 0, 64, 69
1, 818505, Control_c, 0, 64, 63
1, 818507, Note_off_c, 0, 74, 59
1, 818520, Control_c, 0, 64, 57
1, 818535, Control_c, 0, 64, 56
1, 818536, Note_off_c, 0, 48, 0
1, 818536, Note_on_c, 0, 48, 3
1, 818550, Control_c, 0, 64, 58
1, 818564, Control_c, 0, 64, 61
1, 818579, Control_c, 0, 64, 65
1, 818594, Control_c, 0, 64, 68
1, 818609, Control_c, 0, 64, 75
1, 818623, Control_c, 0, 64, 89
1, 818636, Note_off_c, 0, 48, 50
1, 818638, Control_c, 0, 64, 127
1, 818743, Note_on_c, 0, 46, 71
1, 818747, Note_on_c, 0, 74, 74
1, 818785, Note_off_c, 0, 70, 32
1, 818792, Note_off_c, 0, 72, 60
1, 818804, Note_off_c, 0, 75, 63
1, 818934, Note_off_c, 0, 46, 61
1, 819019, Note_on_c, 0, 45, 68
1, 819027, Note_on_c, 0, 72, 81
1, 819061, Control_c, 0, 64, 95
1, 819076, Control_c, 0, 64, 76
1, 819091, Control_c, 0, 64, 64
1, 819106, Control_c, 0, 64, 50
1, 819113, Note_off_c, 0, 74, 60
1, 819120, Control_c, 0, 64, 43
1, 819135, Control_c, 0, 64, 50
1, 819150, Control_c, 0, 64, 61
1, 819164, Poly_aftertouch_c, 0, 35, 0
1, 819165, Control_c, 0, 64, 67
1, 819180, Control_c, 0, 64, 78
1, 819186, Note_off_c, 0, 33, 53
1, 819194, Control_c, 0, 64, 106
1, 819209, Control_c, 0, 64, 127
1, 819231, Note_off_c, 0, 45, 58
1, 819360, Note_on_c, 0, 31, 46
1, 819362, Note_on_c, 0, 45, 52
1, 819395, Note_on_c, 0, 79, 70
1, 819400, Note_on_c, 0, 73, 49
1, 819402, Note_on_c, 0, 77, 59
1, 819402, Control_c, 0, 64, 99
1, 819417, Control_c, 0, 64, 85
1, 819431, Control_c, 0, 64, 76
1, 819446, Control_c, 0, 64, 68
1, 819461, Control_c, 0, 64, 61
1, 819476, Control_c, 0, 64, 51
1, 819491, Control_c, 0, 64, 43
1, 819506, Control_c, 0, 64, 42
1, 819512, Note_off_c, 0, 72, 56
1, 819520, Control_c, 0, 64, 43
1, 819535, Control_c, 0, 64, 50
1, 819550, Control_c, 0, 64, 59
1, 819555, Note_off_c, 0, 31, 61
1, 819565, Control_c, 0, 64, 65
1, 819580, Control_c, 0, 64, 72
1, 819594, Control_c, 0, 64, 91
1, 819609, Control_c, 0, 64, 127
1, 819702, Note_on_c, 0, 46, 72
1, 819710, Note_on_c, 0, 75, 79
1, 819712, Note_on_c, 0, 72, 64
1, 819734, Note_off_c, 0, 45, 60
1, 819776, Note_off_c, 0, 73, 63
1, 819823, Note_off_c, 0, 72, 63
1, 819848, Note_off_c, 0, 77, 39
1, 819968, Note_on_c, 0, 74, 73
1, 819976, Note_on_c, 0, 70, 72
1, 819980, Note_on_c, 0, 55, 75
1, 820003, Control_c, 0, 64, 97
1, 820017, Control_c, 0, 64, 77
1, 820032, Control_c, 0, 64, 64
1, 820039, Note_off_c, 0, 46, 37
1, 820047, Control_c, 0, 64, 48
1, 820061, Control_c, 0, 64, 35
1, 820076, Control_c, 0, 64, 40
1, 820091, Control_c, 0, 64, 54
1, 820106, Control_c, 0, 64, 63
1, 820113, Note_off_c, 0, 74, 63
1, 820121, Control_c, 0, 64, 70
1, 820135, Control_c, 0, 64, 83
1, 820150, Control_c, 0, 64, 127
1, 820168, Note_off_c, 0, 70, 60
1, 820272, Note_on_c, 0, 57, 64
1, 820278, Note_on_c, 0, 72, 77
1, 820284, Control_c, 0, 64, 95
1, 820287, Note_off_c, 0, 55, 59
1, 820288, Note_on_c, 0, 69, 57
1, 820299, Control_c, 0, 64, 75
1, 820304, Note_off_c, 0, 79, 58
1, 820314, Control_c, 0, 64, 64
1, 820328, Control_c, 0, 64, 52
1, 820343, Control_c, 0, 64, 43
1, 820358, Note_off_c, 0, 75, 61
1, 820373, Control_c, 0, 64, 43
1, 820387, Control_c, 0, 64, 49
1, 820402, Control_c, 0, 64, 58
1, 820416, Control_c, 0, 64, 65
1, 820431, Control_c, 0, 64, 73
1, 820446, Control_c, 0, 64, 90
1, 820460, Control_c, 0, 64, 127
1, 820590, Note_on_c, 0, 81, 74
1, 820591, Note_on_c, 0, 41, 51
1, 820632, Control_c, 0, 64, 115
1, 820647, Control_c, 0, 64, 88
1, 820662, Control_c, 0, 64, 74
1, 820677, Control_c, 0, 64, 65
1, 820691, Control_c, 0, 64, 58
1, 820706, Control_c, 0, 64, 56
1, 820721, Control_c, 0, 64, 61
1, 820736, Control_c, 0, 64, 67
1, 820751, Control_c, 0, 64, 76
1, 820765, Control_c, 0, 64, 100
1, 820780, Control_c, 0, 64, 127
1, 820888, Note_on_c, 0, 79, 76
1, 820891, Note_on_c, 0, 43, 52
1, 820895, Note_off_c, 0, 41, 50
1, 820928, Control_c, 0, 64, 101
1, 820943, Control_c, 0, 64, 84
1, 820958, Control_c, 0, 64, 73
1, 820973, Control_c, 0, 64, 66
1, 820977, Note_off_c, 0, 81, 64
1, 820988, Control_c, 0, 64, 62
1, 821017, Control_c, 0, 64, 64
1, 821032, Control_c, 0, 64, 68
1, 821047, Control_c, 0, 64, 74
1, 821062, Control_c, 0, 64, 86
1, 821076, Control_c, 0, 64, 116
1, 821091, Control_c, 0, 64, 127
1, 821098, Note_off_c, 0, 57, 50
1, 821244, Note_on_c, 0, 45, 48
1, 821244, Note_on_c, 0, 74, 60
1, 821319, Note_off_c, 0, 43, 18
1, 821332, Note_off_c, 0, 79, 55
1, 821337, Control_c, 0, 64, 109
1, 821352, Control_c, 0, 64, 98
1, 821362, Note_off_c, 0, 72, 60
1, 821367, Control_c, 0, 64, 94
1, 821381, Control_c, 0, 64, 89
1, 821385, Note_off_c, 0, 69, 58
1, 821396, Control_c, 0, 64, 85
1, 821411, Control_c, 0, 64, 81
1, 821426, Control_c, 0, 64, 79
1, 821441, Control_c, 0, 64, 77
1, 821455, Control_c, 0, 64, 75
1, 821470, Control_c, 0, 64, 72
1, 821485, Control_c, 0, 64, 67
1, 821500, Control_c, 0, 64, 62
1, 821514, Control_c, 0, 64, 56
1, 821529, Control_c, 0, 64, 52
1, 821544, Control_c, 0, 64, 51
1, 821555, Note_on_c, 0, 58, 50
1, 821557, Note_on_c, 0, 70, 61
1, 821569, Note_on_c, 0, 67, 48
1, 821574, Control_c, 0, 64, 51
1, 821618, Control_c, 0, 64, 51
1, 821632, Control_c, 0, 64, 54
1, 821647, Control_c, 0, 64, 61
1, 821662, Control_c, 0, 64, 66
1, 821677, Control_c, 0, 64, 72
1, 821692, Control_c, 0, 64, 86
1, 821703, Note_off_c, 0, 67, 62
1, 821705, Note_off_c, 0, 70, 63
1, 821706, Control_c, 0, 64, 127
1, 821745, Note_off_c, 0, 58, 59
1, 821850, Note_on_c, 0, 57, 42
1, 821854, Note_on_c, 0, 69, 52
1, 821855, Control_c, 0, 64, 94
1, 821863, Note_on_c, 0, 46, 38
1, 821870, Control_c, 0, 64, 78
1, 821873, Note_on_c, 0, 65, 48
1, 821885, Control_c, 0, 64, 69
1, 821899, Control_c, 0, 64, 63
1, 821914, Control_c, 0, 64, 62
1, 821929, Control_c, 0, 64, 64
1, 821937, Note_off_c, 0, 45, 33
1, 821944, Control_c, 0, 64, 67
1, 821959, Control_c, 0, 64, 73
1, 821973, Note_off_c, 0, 69, 63
1, 821973, Control_c, 0, 64, 85
1, 821984, Note_off_c, 0, 65, 57
1, 821988, Control_c, 0, 64, 109
1, 822002, Note_off_c, 0, 46, 48
1, 822003, Control_c, 0, 64, 127
1, 822159, Control_c, 0, 64, 104
1, 822174, Control_c, 0, 64, 87
1, 822177, Note_on_c, 0, 55, 43
1, 822178, Note_on_c, 0, 67, 49
1, 822186, Note_on_c, 0, 63, 43
1, 822189, Control_c, 0, 64, 76
1, 822197, Note_on_c, 0, 48, 28
1, 822204, Control_c, 0, 64, 68
1, 822219, Control_c, 0, 64, 63
1, 822228, Note_off_c, 0, 57, 29
1, 822234, Control_c, 0, 64, 59
1, 822249, Control_c, 0, 64, 56
1, 822263, Control_c, 0, 64, 56
1, 822278, Control_c, 0, 64, 55
1, 822397, Control_c, 0, 64, 56
1, 822411, Control_c, 0, 64, 57
1, 822426, Control_c, 0, 64, 59
1, 822436, Note_off_c, 0, 74, 52
1, 822441, Control_c, 0, 64, 61
1, 822455, Control_c, 0, 64, 64
1, 822469, Note_on_c, 0, 57, 45
1, 822470, Control_c, 0, 64, 66
1, 822472, Note_on_c, 0, 72, 52
1, 822485, Control_c, 0, 64, 71
1, 822500, Control_c, 0, 64, 78
1, 822504, Note_off_c, 0, 48, 50
1, 822515, Control_c, 0, 64, 87
1, 822525, Note_off_c, 0, 55, 32
1, 822526, Note_off_c, 0, 63, 37
1, 822529, Control_c, 0, 64, 102
1, 822540, Note_off_c, 0, 57, 54
1, 822544, Control_c, 0, 64, 127
1, 822649, Note_off_c, 0, 67, 41
1, 822797, Note_on_c, 0, 70, 53
1, 822801, Note_on_c, 0, 63, 37
1, 822803, Note_on_c, 0, 55, 33
1, 822818, Control_c, 0, 64, 100
1, 822833, Control_c, 0, 64, 84
1, 822848, Control_c, 0, 64, 72
1, 822863, Control_c, 0, 64, 64
1, 822878, Control_c, 0, 64, 59
1, 822890, Note_off_c, 0, 72, 37
1, 822893, Control_c, 0, 64, 57
1, 822923, Control_c, 0, 64, 58
1, 822938, Control_c, 0, 64, 60
1, 822952, Control_c, 0, 64, 63
1, 822967, Control_c, 0, 64, 65
1, 822982, Control_c, 0, 64, 69
1, 822997, Control_c, 0, 64, 75
1, 823012, Control_c, 0, 64, 86
1, 823027, Control_c, 0, 64, 106
1, 823042, Control_c, 0, 64, 127
1, 823257, Note_on_c, 0, 60, 38
1, 823267, Note_on_c, 0, 69, 43
1, 823269, Note_on_c, 0, 65, 34
1, 823271, Note_on_c, 0, 51, 28
1, 823293, Control_c, 0, 64, 115
1, 823308, Control_c, 0, 64, 101
1, 823323, Control_c, 0, 64, 91
1, 823338, Control_c, 0, 64, 83
1, 823352, Control_c, 0, 64, 76
1, 823367, Control_c, 0, 64, 69
1, 823382, Control_c, 0, 64, 64
1, 823388, Note_off_c, 0, 70, 39
1, 823397, Control_c, 0, 64, 58
1, 823405, Note_off_c, 0, 63, 35
1, 823411, Control_c, 0, 64, 49
1, 823426, Control_c, 0, 64, 34
1, 823441, Control_c, 0, 64, 0
1, 823456, Note_off_c, 0, 55, 40
1, 823581, Control_c, 0, 64, 39
1, 823596, Control_c, 0, 64, 53
1, 823611, Control_c, 0, 64, 61
1, 823626, Control_c, 0, 64, 65
1, 823641, Note_off_c, 0, 65, 41
1, 823641, Control_c, 0, 64, 73
1, 823656, Control_c, 0, 64, 92
1, 823671, Control_c, 0, 64, 127
1, 823722, Note_off_c, 0, 69, 42
1, 823999, Note_on_c, 0, 72, 47
1, 824120, Note_on_c, 0, 75, 73
1, 824125, Note_off_c, 0, 72, 62
1, 824255, Note_on_c, 0, 55, 50
1, 824261, Note_on_c, 0, 63, 59
1, 824286, Note_off_c, 0, 75, 63
1, 824287, Note_on_c, 0, 79, 87
1, 824302, Control_c, 0, 64, 95
1, 824304, Note_on_c, 0, 77, 41
1, 824316, Control_c, 0, 64, 77
1, 824330, Note_off_c, 0, 77, 39
1, 824331, Control_c, 0, 64, 70
1, 824346, Control_c, 0, 64, 71
1, 824361, Control_c, 0, 64, 78
1, 824375, Control_c, 0, 64, 97
1, 824390, Control_c, 0, 64, 127
1, 824398, Note_off_c, 0, 60, 31
1, 824425, Note_off_c, 0, 51, 53
1, 824459, Note_off_c, 0, 63, 63
1, 824526, Note_on_c, 0, 62, 86
1, 824542, Note_on_c, 0, 84, 102
1, 824652, Note_on_c, 0, 87, 103
1, 824674, Note_off_c, 0, 62, 64
1, 824678, Note_off_c, 0, 84, 66
1, 824769, Note_on_c, 0, 60, 96
1, 824800, Note_off_c, 0, 87, 62
1, 824813, Note_off_c, 0, 60, 69
1, 824817, Note_on_c, 0, 91, 112
1, 824845, Note_off_c, 0, 55, 64
1, 824890, Note_off_c, 0, 91, 68
1, 824914, Note_off_c, 0, 79, 67
1, 825042, Note_on_c, 0, 76, 49
1, 825052, Note_on_c, 0, 84, 105
1, 825053, Note_on_c, 0, 72, 104
1, 825056, Note_on_c, 0, 79, 82
1, 825080, Note_on_c, 0, 36, 79
1, 825080, Control_c, 0, 64, 73
1, 825085, Note_on_c, 0, 43, 14
1, 825095, Control_c, 0, 64, 0
1, 825118, Note_off_c, 0, 72, 70
1, 825119, Note_off_c, 0, 43, 41
1, 825131, Note_off_c, 0, 76, 65
1, 825132, Note_off_c, 0, 79, 65
1, 825146, Note_off_c, 0, 84, 68
1, 825152, Note_on_c, 0, 40, 76
1, 825154, Control_c, 0, 64, 58
1, 825169, Control_c, 0, 64, 127
1, 825182, Note_on_c, 0, 43, 85
1, 825208, Note_off_c, 0, 36, 62
1, 825263, Note_on_c, 0, 90, 28
1, 825270, Note_on_c, 0, 52, 94
1, 825295, Note_off_c, 0, 40, 56
1, 825295, Note_off_c, 0, 90, 33
1, 825304, Note_on_c, 0, 88, 88
1, 825304, Note_on_c, 0, 96, 113
1, 825306, Note_on_c, 0, 84, 105
1, 825310, Note_on_c, 0, 91, 83
1, 825320, Note_off_c, 0, 43, 64
1, 825328, Note_off_c, 0, 52, 66
1, 825334, Note_on_c, 0, 92, 54
1, 825335, Note_off_c, 0, 92, 127
1, 825414, Note_off_c, 0, 96, 64
1, 825432, Note_off_c, 0, 84, 58
1, 825438, Note_off_c, 0, 91, 62
1, 825450, Note_off_c, 0, 88, 61
1, 825868, Note_on_c, 0, 52, 89
1, 825871, Note_on_c, 0, 59, 96
1, 825876, Note_on_c, 0, 56, 88
1, 825876, Note_on_c, 0, 68, 84
1, 825877, Note_on_c, 0, 64, 104
1, 825877, Note_on_c, 0, 76, 103
1, 825882, Note_on_c, 0, 71, 84
1, 825929, Note_off_c, 0, 52, 64
1, 825957, Note_off_c, 0, 59, 64
1, 825980, Note_off_c, 0, 56, 63
1, 825980, Note_off_c, 0, 64, 57
1, 825999, Note_off_c, 0, 68, 59
1, 826014, Note_off_c, 0, 71, 61
1, 826029, Note_off_c, 0, 76, 65
1, 826266, Note_on_c, 0, 60, 79
1, 826269, Note_on_c, 0, 64, 80
1, 826272, Note_on_c, 0, 67, 86
1, 826284, Note_on_c, 0, 84, 103
1, 826285, Note_on_c, 0, 72, 98
1, 826285, Note_on_c, 0, 76, 75
1, 826288, Note_on_c, 0, 79, 84
1, 826318, Control_c, 0, 64, 95
1, 826333, Control_c, 0, 64, 72
1, 826348, Control_c, 0, 64, 57
1, 826363, Control_c, 0, 64, 22
1, 826377, Control_c, 0, 64, 0
1, 826407, Control_c, 0, 64, 19
1, 826422, Control_c, 0, 64, 46
1, 826437, Control_c, 0, 64, 61
1, 826452, Control_c, 0, 64, 69
1, 826467, Control_c, 0, 64, 87
1, 826467, Note_off_c, 0, 72, 58
1, 826474, Note_off_c, 0, 76, 62
1, 826482, Control_c, 0, 64, 127
1, 826494, Note_off_c, 0, 79, 63
1, 826523, Note_off_c, 0, 84, 60
1, 826739, Note_on_c, 0, 95, 102
1, 826744, Note_on_c, 0, 83, 89
1, 827037, Note_off_c, 0, 83, 58
1, 827039, Note_off_c, 0, 95, 60
1, 827125, Note_on_c, 0, 93, 94
1, 827135, Note_on_c, 0, 84, 83
1, 827219, Note_off_c, 0, 67, 60
1, 827220, Note_off_c, 0, 64, 59
1, 827233, Note_off_c, 0, 60, 39
1, 827314, Note_off_c, 0, 84, 58
1, 827401, Note_on_c, 0, 63, 53
1, 827404, Note_on_c, 0, 71, 51
1, 827411, Note_on_c, 0, 59, 49
1, 827424, Note_on_c, 0, 66, 43
1, 827471, Note_on_c, 0, 95, 84
1, 827474, Note_on_c, 0, 83, 60
1, 827474, Control_c, 0, 64, 107
1, 827484, Note_on_c, 0, 87, 52
1, 827489, Control_c, 0, 64, 82
1, 827504, Control_c, 0, 64, 68
1, 827518, Control_c, 0, 64, 56
1, 827533, Control_c, 0, 64, 48
1, 827563, Note_off_c, 0, 93, 62
1, 827563, Control_c, 0, 64, 52
1, 827578, Note_off_c, 0, 71, 63
1, 827578, Control_c, 0, 64, 61
1, 827582, Note_off_c, 0, 87, 64
1, 827592, Control_c, 0, 64, 70
1, 827600, Note_off_c, 0, 66, 63
1, 827607, Control_c, 0, 64, 116
1, 827608, Note_off_c, 0, 63, 62
1, 827622, Control_c, 0, 64, 127
1, 827638, Note_off_c, 0, 59, 64
1, 827685, Note_off_c, 0, 83, 63
1, 827724, Note_on_c, 0, 61, 86
1, 827726, Note_on_c, 0, 53, 77
1, 827743, Note_on_c, 0, 85, 97
1, 827743, Note_on_c, 0, 56, 53
1, 827751, Note_off_c, 0, 61, 61
1, 827767, Note_off_c, 0, 56, 59
1, 827781, Note_off_c, 0, 53, 63
1, 827936, Note_off_c, 0, 95, 37
1, 827956, Note_on_c, 0, 44, 79
1, 827957, Note_on_c, 0, 47, 74
1, 827957, Note_on_c, 0, 51, 89
1, 827968, Note_on_c, 0, 83, 96
1, 827990, Note_off_c, 0, 47, 65
1, 827998, Note_off_c, 0, 85, 67
1, 828001, Note_off_c, 0, 51, 63
1, 828020, Note_off_c, 0, 83, 68
1, 828029, Note_off_c, 0, 44, 62
1, 828108, Note_on_c, 0, 76, 98
1, 828110, Note_on_c, 0, 72, 98
1, 828110, Note_on_c, 0, 84, 108
1, 828117, Note_on_c, 0, 71, 94
1, 828120, Control_c, 0, 64, 103
1, 828135, Control_c, 0, 64, 63
1, 828149, Control_c, 0, 64, 0
1, 828168, Note_on_c, 0, 36, 82
1, 828178, Note_off_c, 0, 71, 60
1, 828186, Note_off_c, 0, 72, 63
1, 828189, Note_on_c, 0, 40, 60
1, 828192, Note_off_c, 0, 76, 64
1, 828194, Control_c, 0, 64, 57
1, 828209, Control_c, 0, 64, 88
1, 828217, Note_off_c, 0, 84, 66
1, 828223, Control_c, 0, 64, 127
1, 828225, Note_on_c, 0, 43, 80
1, 828245, Note_off_c, 0, 36, 61
1, 828291, Note_on_c, 0, 52, 96
1, 828316, Note_off_c, 0, 40, 59
1, 828324, Note_on_c, 0, 87, 62
1, 828334, Note_off_c, 0, 43, 63
1, 828337, Note_off_c, 0, 52, 65
1, 828339, Note_on_c, 0, 96, 110
1, 828342, Note_on_c, 0, 83, 97
1, 828345, Note_on_c, 0, 84, 93
1, 828346, Note_on_c, 0, 88, 81
1, 828428, Note_off_c, 0, 87, 55
1, 828496, Note_off_c, 0, 84, 52
1, 828501, Note_off_c, 0, 83, 59
1, 828616, Note_on_c, 0, 84, 101
1, 828644, Note_off_c, 0, 88, 64
1, 828880, Note_on_c, 0, 64, 94
1, 828882, Note_on_c, 0, 52, 85
1, 828884, Note_on_c, 0, 59, 87
1, 828890, Note_on_c, 0, 56, 81
1, 828914, Note_on_c, 0, 91, 97
1, 828935, Note_off_c, 0, 52, 62
1, 828965, Note_off_c, 0, 59, 63
1, 828977, Note_off_c, 0, 64, 58
1, 828980, Note_off_c, 0, 56, 64
1, 829241, Note_on_c, 0, 72, 87
1, 829245, Note_on_c, 0, 67, 71
1, 829251, Note_on_c, 0, 64, 69
1, 829251, Note_on_c, 0, 60, 70
1, 829272, Note_on_c, 0, 88, 84
1, 829299, Control_c, 0, 64, 125
1, 829304, Note_off_c, 0, 96, 50
1, 829314, Control_c, 0, 64, 90
1, 829329, Note_off_c, 0, 84, 49
1, 829329, Control_c, 0, 64, 75
1, 829344, Control_c, 0, 64, 64
1, 829359, Control_c, 0, 64, 50
1, 829374, Control_c, 0, 64, 31
1, 829388, Control_c, 0, 64, 29
1, 829403, Control_c, 0, 64, 28
1, 829430, Note_off_c, 0, 91, 57
1, 829448, Control_c, 0, 64, 34
1, 829463, Control_c, 0, 64, 49
1, 829478, Control_c, 0, 64, 58
1, 829492, Control_c, 0, 64, 63
1, 829507, Control_c, 0, 64, 67
1, 829529, Control_c, 0, 64, 73
1, 829544, Control_c, 0, 64, 91
1, 829559, Control_c, 0, 64, 127
1, 829563, Note_on_c, 0, 95, 94
1, 829568, Note_on_c, 0, 83, 80
1, 829645, Note_off_c, 0, 60, 39
1, 829705, Note_off_c, 0, 72, 31
1, 829736, Note_off_c, 0, 83, 61
1, 829739, Note_off_c, 0, 67, 59
1, 829842, Note_on_c, 0, 93, 84
1, 829853, Note_on_c, 0, 84, 76
1, 829924, Note_off_c, 0, 88, 60
1, 829934, Note_off_c, 0, 95, 51
1, 830008, Note_off_c, 0, 84, 61
1, 830111, Note_on_c, 0, 71, 53
1, 830112, Note_on_c, 0, 63, 42
1, 830117, Note_on_c, 0, 66, 47
1, 830130, Note_on_c, 0, 59, 39
1, 830162, Note_on_c, 0, 95, 79
1, 830163, Note_on_c, 0, 83, 53
1, 830164, Note_on_c, 0, 87, 62
1, 830166, Note_off_c, 0, 64, 57
1, 830167, Control_c, 0, 64, 88
1, 830182, Control_c, 0, 64, 70
1, 830197, Control_c, 0, 64, 57
1, 830211, Control_c, 0, 64, 41
1, 830226, Control_c, 0, 64, 41
1, 830241, Control_c, 0, 64, 51
1, 830244, Note_off_c, 0, 93, 61
1, 830251, Note_off_c, 0, 71, 63
1, 830256, Control_c, 0, 64, 62
1, 830279, Control_c, 0, 64, 69
1, 830289, Note_off_c, 0, 87, 63
1, 830290, Note_off_c, 0, 66, 62
1, 830291, Note_off_c, 0, 63, 61
1, 830293, Control_c, 0, 64, 86
1, 830308, Control_c, 0, 64, 127
1, 830331, Note_off_c, 0, 59, 57
1, 830436, Note_on_c, 0, 85, 92
1, 830440, Note_on_c, 0, 52, 62
1, 830464, Note_on_c, 0, 55, 38
1, 830472, Note_on_c, 0, 60, 25
1, 830475, Note_off_c, 0, 83, 27
1, 830498, Note_off_c, 0, 55, 52
1, 830504, Note_off_c, 0, 52, 62
1, 830512, Note_off_c, 0, 60, 42
1, 830688, Note_on_c, 0, 51, 80
1, 830695, Note_on_c, 0, 44, 67
1, 830703, Note_on_c, 0, 47, 61
1, 830717, Note_off_c, 0, 95, 0
1, 830718, Note_on_c, 0, 83, 94
1, 830732, Note_off_c, 0, 47, 65
1, 830749, Note_off_c, 0, 51, 63
1, 830750, Note_off_c, 0, 85, 64
1, 830759, Note_off_c, 0, 44, 62
1, 830759, Poly_aftertouch_c, 0, 95, 0
1, 830828, Note_off_c, 0, 83, 64
1, 830922, Note_on_c, 0, 43, 72
1, 830926, Note_on_c, 0, 36, 71
1, 830989, Control_c, 0, 64, 88
1, 831004, Control_c, 0, 64, 70
1, 831019, Note_on_c, 0, 84, 90
1, 831025, Note_on_c, 0, 71, 81
1, 831026, Control_c, 0, 64, 58
1, 831040, Control_c, 0, 64, 42
1, 831055, Control_c, 0, 64, 38
1, 831070, Control_c, 0, 64, 39
1, 831085, Control_c, 0, 64, 47
1, 831099, Control_c, 0, 64, 59
1, 831114, Control_c, 0, 64, 66
1, 831129, Control_c, 0, 64, 74
1, 831144, Control_c, 0, 64, 110
1, 831157, Note_off_c, 0, 36, 60
1, 831159, Control_c, 0, 64, 127
1, 831195, Note_off_c, 0, 71, 57
1, 831239, Note_on_c, 0, 52, 78
1, 831274, Note_off_c, 0, 43, 61
1, 831304, Note_on_c, 0, 72, 98
1, 831328, Note_off_c, 0, 52, 50
1, 831394, Note_off_c, 0, 72, 62
1, 831453, Note_off_c, 0, 84, 65
1, 831575, Note_on_c, 0, 91, 97
1, 831576, Note_on_c, 0, 79, 90
1, 831632, Note_off_c, 0, 91, 64
1, 831680, Note_off_c, 0, 79, 62
1, 831968, Note_on_c, 0, 55, 53
1, 831973, Note_on_c, 0, 64, 59
1, 831973, Note_on_c, 0, 76, 87
1, 831977, Note_on_c, 0, 60, 57
1, 831978, Note_on_c, 0, 72, 85
1, 832042, Control_c, 0, 64, 125
1, 832057, Control_c, 0, 64, 95
1, 832071, Control_c, 0, 64, 84
1, 832086, Control_c, 0, 64, 74
1, 832101, Control_c, 0, 64, 67
1, 832116, Control_c, 0, 64, 61
1, 832131, Control_c, 0, 64, 54
1, 832145, Control_c, 0, 64, 50
1, 832160, Control_c, 0, 64, 49
1, 832205, Control_c, 0, 64, 50
1, 832220, Control_c, 0, 64, 52
1, 832235, Control_c, 0, 64, 56
1, 832250, Control_c, 0, 64, 60
1, 832264, Control_c, 0, 64, 64
1, 832279, Control_c, 0, 64, 68
1, 832294, Control_c, 0, 64, 74
1, 832308, Control_c, 0, 64, 87
1, 832323, Control_c, 0, 64, 127
1, 832340, Note_off_c, 0, 72, 58
1, 832393, Note_off_c, 0, 76, 60
1, 832573, Note_on_c, 0, 91, 88
1, 832577, Note_on_c, 0, 79, 76
1, 832628, Note_off_c, 0, 91, 63
1, 832632, Note_off_c, 0, 79, 57
1, 832649, Note_off_c, 0, 64, 50
1, 832865, Control_c, 0, 64, 112
1, 832871, Note_on_c, 0, 75, 77
1, 832873, Note_on_c, 0, 67, 70
1, 832880, Control_c, 0, 64, 89
1, 832882, Note_on_c, 0, 63, 55
1, 832894, Control_c, 0, 64, 76
1, 832909, Control_c, 0, 64, 66
1, 832924, Control_c, 0, 64, 58
1, 832938, Control_c, 0, 64, 52
1, 832953, Control_c, 0, 64, 51
1, 832968, Control_c, 0, 64, 54
1, 832983, Control_c, 0, 64, 59
1, 832998, Control_c, 0, 64, 64
1, 833013, Control_c, 0, 64, 69
1, 833028, Control_c, 0, 64, 79
1, 833043, Control_c, 0, 64, 108
1, 833055, Note_off_c, 0, 63, 55
1, 833058, Control_c, 0, 64, 127
1, 833068, Note_off_c, 0, 75, 57
1, 833098, Note_off_c, 0, 55, 53
1, 833106, Note_off_c, 0, 60, 59
1, 833162, Note_on_c, 0, 75, 84
1, 833169, Note_on_c, 0, 72, 64
1, 833183, Note_off_c, 0, 67, 59
1, 833248, Note_off_c, 0, 72, 59
1, 833317, Note_off_c, 0, 75, 61
1, 833464, Note_on_c, 0, 91, 84
1, 833466, Note_on_c, 0, 79, 74
1, 833526, Note_off_c, 0, 91, 63
1, 833570, Note_off_c, 0, 79, 62
1, 833786, Note_on_c, 0, 36, 48
1, 833788, Note_on_c, 0, 43, 45
1, 833836, Control_c, 0, 64, 112
1, 833851, Control_c, 0, 64, 88
1, 833860, Note_on_c, 0, 74, 72
1, 833862, Note_on_c, 0, 72, 68
1, 833865, Control_c, 0, 64, 75
1, 833879, Control_c, 0, 64, 65
1, 833894, Control_c, 0, 64, 55
1, 833909, Control_c, 0, 64, 46
1, 833924, Control_c, 0, 64, 44
1, 833939, Control_c, 0, 64, 49
1, 833953, Control_c, 0, 64, 57
1, 833968, Control_c, 0, 64, 62
1, 833973, Note_off_c, 0, 36, 63
1, 833983, Control_c, 0, 64, 66
1, 833998, Control_c, 0, 64, 72
1, 834020, Control_c, 0, 64, 87
1, 834035, Control_c, 0, 64, 127
1, 834052, Note_on_c, 0, 53, 65
1, 834083, Note_off_c, 0, 43, 35
1, 834169, Note_off_c, 0, 72, 53
1, 834202, Note_off_c, 0, 74, 60
1, 834292, Note_off_c, 0, 53, 53
1, 834490, Note_on_c, 0, 91, 72
1, 834491, Note_on_c, 0, 79, 61
1, 834554, Note_off_c, 0, 91, 64
1, 834566, Note_off_c, 0, 79, 60
1, 834855, Note_on_c, 0, 65, 52
1, 834857, Note_on_c, 0, 60, 43
1, 834858, Note_on_c, 0, 55, 37
1, 834885, Note_on_c, 0, 72, 59
1, 834903, Control_c, 0, 64, 112
1, 834918, Control_c, 0, 64, 91
1, 834919, Note_on_c, 0, 67, 43
1, 834933, Control_c, 0, 64, 78
1, 834948, Control_c, 0, 64, 68
1, 834962, Control_c, 0, 64, 60
1, 834977, Control_c, 0, 64, 55
1, 834992, Control_c, 0, 64, 54
1, 835007, Control_c, 0, 64, 56
1, 835022, Control_c, 0, 64, 59
1, 835037, Control_c, 0, 64, 63
1, 835052, Control_c, 0, 64, 66
1, 835067, Control_c, 0, 64, 70
1, 835081, Control_c, 0, 64, 77
1, 835096, Control_c, 0, 64, 90
1, 835102, Note_off_c, 0, 67, 38
1, 835111, Control_c, 0, 64, 127
1, 835166, Note_off_c, 0, 72, 62
1, 835211, Note_on_c, 0, 64, 79
1, 835369, Note_off_c, 0, 64, 63
1, 835473, Note_on_c, 0, 79, 67
1, 835475, Note_on_c, 0, 63, 77
1, 835478, Note_on_c, 0, 91, 62
1, 835485, Note_on_c, 0, 93, 64
1, 835508, Note_off_c, 0, 93, 67
1, 835539, Note_off_c, 0, 65, 60
1, 835548, Note_off_c, 0, 91, 65
1, 835603, Note_off_c, 0, 79, 57
1, 835624, Note_off_c, 0, 60, 61
1, 835786, Control_c, 0, 64, 119
1, 835801, Control_c, 0, 64, 96
1, 835803, Note_on_c, 0, 64, 59
1, 835810, Note_on_c, 0, 71, 62
1, 835816, Control_c, 0, 64, 84
1, 835817, Note_on_c, 0, 67, 59
1, 835821, Note_on_c, 0, 59, 48
1, 835830, Control_c, 0, 64, 75
1, 835832, Note_off_c, 0, 63, 60
1, 835845, Control_c, 0, 64, 67
1, 835860, Control_c, 0, 64, 59
1, 835875, Control_c, 0, 64, 50
1, 835890, Control_c, 0, 64, 45
1, 835919, Control_c, 0, 64, 48
1, 835934, Control_c, 0, 64, 56
1, 835939, Note_off_c, 0, 64, 63
1, 835949, Control_c, 0, 64, 64
1, 835964, Control_c, 0, 64, 71
1, 835964, Note_off_c, 0, 59, 63
1, 835979, Control_c, 0, 64, 87
1, 835988, Note_off_c, 0, 55, 63
1, 835994, Control_c, 0, 64, 127
1, 836074, Note_off_c, 0, 71, 57
1, 836108, Note_off_c, 0, 67, 54
1, 836161, Note_on_c, 0, 47, 57
1, 836312, Control_c, 0, 64, 114
1, 836327, Control_c, 0, 64, 111
1, 836342, Control_c, 0, 64, 109
1, 836357, Control_c, 0, 64, 108
1, 836371, Control_c, 0, 64, 106
1, 836386, Control_c, 0, 64, 102
1, 836401, Control_c, 0, 64, 99
1, 836416, Control_c, 0, 64, 97
1, 836431, Control_c, 0, 64, 96
1, 836432, Note_off_c, 0, 47, 30
1, 836445, Control_c, 0, 64, 95
1, 836460, Control_c, 0, 64, 93
1, 836475, Control_c, 0, 64, 91
1, 836486, Note_on_c, 0, 40, 43
1, 836489, Control_c, 0, 64, 88
1, 836506, Control_c, 0, 64, 86
1, 836521, Control_c, 0, 64, 84
1, 836535, Control_c, 0, 64, 82
1, 836550, Control_c, 0, 64, 77
1, 836565, Control_c, 0, 64, 72
1, 836579, Control_c, 0, 64, 68
1, 836594, Control_c, 0, 64, 64
1, 836609, Control_c, 0, 64, 60
1, 836624, Control_c, 0, 64, 59
1, 836653, Control_c, 0, 64, 60
1, 836668, Control_c, 0, 64, 63
1, 836683, Control_c, 0, 64, 66
1, 836698, Control_c, 0, 64, 70
1, 836713, Control_c, 0, 64, 75
1, 836727, Control_c, 0, 64, 84
1, 836742, Control_c, 0, 64, 94
1, 836751, Note_off_c, 0, 40, 42
1, 836757, Control_c, 0, 64, 109
1, 836772, Control_c, 0, 64, 127
1, 837061, Control_c, 0, 64, 119
1, 837075, Note_on_c, 0, 60, 39
1, 837076, Control_c, 0, 64, 114
1, 837079, Note_on_c, 0, 56, 35
1, 837085, Note_on_c, 0, 48, 32
1, 837091, Control_c, 0, 64, 110
1, 837092, Note_on_c, 0, 39, 29
1, 837099, Note_on_c, 0, 32, 25
1, 837106, Control_c, 0, 64, 104
1, 837120, Control_c, 0, 64, 98
1, 837135, Control_c, 0, 64, 93
1, 837150, Control_c, 0, 64, 89
1, 837165, Control_c, 0, 64, 85
1, 837180, Control_c, 0, 64, 80
1, 837194, Control_c, 0, 64, 73
1, 837209, Control_c, 0, 64, 68
1, 837224, Control_c, 0, 64, 63
1, 837239, Control_c, 0, 64, 59
1, 837254, Control_c, 0, 64, 55
1, 837268, Control_c, 0, 64, 52
1, 837283, Control_c, 0, 64, 50
1, 837298, Control_c, 0, 64, 50
1, 837314, Control_c, 0, 64, 49
1, 837358, Control_c, 0, 64, 50
1, 837373, Control_c, 0, 64, 52
1, 837388, Control_c, 0, 64, 56
1, 837403, Control_c, 0, 64, 59
1, 837417, Control_c, 0, 64, 62
1, 837432, Control_c, 0, 64, 64
1, 837447, Control_c, 0, 64, 67
1, 837462, Control_c, 0, 64, 70
1, 837473, Note_off_c, 0, 32, 44
1, 837476, Control_c, 0, 64, 75
1, 837491, Control_c, 0, 64, 81
1, 837506, Control_c, 0, 64, 90
1, 837521, Control_c, 0, 64, 102
1, 837536, Control_c, 0, 64, 127
1, 837560, Note_off_c, 0, 39, 36
1, 837604, Note_off_c, 0, 48, 36
1, 837698, Control_c, 0, 64, 116
1, 837713, Control_c, 0, 64, 112
1, 837727, Control_c, 0, 64, 109
1, 837742, Control_c, 0, 64, 106
1, 837764, Control_c, 0, 64, 102
1, 837779, Control_c, 0, 64, 101
1, 837794, Control_c, 0, 64, 101
1, 837809, Control_c, 0, 64, 100
1, 837824, Control_c, 0, 64, 99
1, 837839, Control_c, 0, 64, 98
1, 837854, Control_c, 0, 64, 96
1, 837869, Control_c, 0, 64, 94
1, 837883, Control_c, 0, 64, 91
1, 837898, Control_c, 0, 64, 89
1, 837913, Control_c, 0, 64, 89
1, 837942, Control_c, 0, 64, 88
1, 837972, Control_c, 0, 64, 88
1, 837987, Control_c, 0, 64, 87
1, 838016, Control_c, 0, 64, 87
1, 838031, Control_c, 0, 64, 86
1, 838046, Control_c, 0, 64, 85
1, 838061, Control_c, 0, 64, 84
1, 838076, Control_c, 0, 64, 83
1, 838090, Control_c, 0, 64, 82
1, 838121, Control_c, 0, 64, 82
1, 838136, Control_c, 0, 64, 81
1, 838151, Control_c, 0, 64, 80
1, 838165, Control_c, 0, 64, 78
1, 838180, Control_c, 0, 64, 77
1, 838195, Control_c, 0, 64, 76
1, 838210, Control_c, 0, 64, 75
1, 838224, Control_c, 0, 64, 74
1, 838239, Control_c, 0, 64, 72
1, 838254, Control_c, 0, 64, 71
1, 838269, Control_c, 0, 64, 71
1, 838284, Control_c, 0, 64, 70
1, 838299, Control_c, 0, 64, 69
1, 838313, Control_c, 0, 64, 69
1, 838328, Control_c, 0, 64, 68
1, 838343, Control_c, 0, 64, 66
1, 838358, Control_c, 0, 64, 64
1, 838373, Control_c, 0, 64, 63
1, 838387, Control_c, 0, 64, 61
1, 838402, Control_c, 0, 64, 60
1, 838408, Note_on_c, 0, 63, 21
1, 838411, Note_on_c, 0, 68, 36
1, 838411, Note_on_c, 0, 48, 32
1, 838416, Note_on_c, 0, 72, 20
1, 838417, Control_c, 0, 64, 58
1, 838432, Control_c, 0, 64, 57
1, 838447, Control_c, 0, 64, 56
1, 838477, Control_c, 0, 64, 57
1, 838492, Control_c, 0, 64, 58
1, 838513, Control_c, 0, 64, 61
1, 838528, Control_c, 0, 64, 63
1, 838543, Control_c, 0, 64, 65
1, 838557, Control_c, 0, 64, 69
1, 838562, Note_off_c, 0, 56, 41
1, 838572, Control_c, 0, 64, 74
1, 838587, Control_c, 0, 64, 80
1, 838602, Control_c, 0, 64, 89
1, 838610, Note_off_c, 0, 48, 36
1, 838617, Control_c, 0, 64, 101
1, 838632, Control_c, 0, 64, 127
1, 838644, Note_off_c, 0, 72, 41
1, 838698, Note_off_c, 0, 68, 30
1, 838712, Note_off_c, 0, 63, 33
1, 838733, Note_on_c, 0, 61, 51
1, 838734, Note_on_c, 0, 57, 39
1, 838853, Note_off_c, 0, 60, 37
1, 838861, Note_off_c, 0, 57, 59
1, 839034, Note_on_c, 0, 56, 52
1, 839038, Note_on_c, 0, 49, 49
1, 839038, Note_on_c, 0, 60, 69
1, 839145, Note_off_c, 0, 56, 60
1, 839153, Note_off_c, 0, 61, 37
1, 839171, Note_off_c, 0, 49, 54
1, 839367, Control_c, 0, 64, 112
1, 839381, Control_c, 0, 64, 101
1, 839382, Note_on_c, 0, 59, 56
1, 839390, Note_on_c, 0, 55, 47
1, 839392, Note_on_c, 0, 28, 36
1, 839394, Note_on_c, 0, 50, 43
1, 839396, Control_c, 0, 64, 93
1, 839399, Note_on_c, 0, 40, 23
1, 839403, Note_off_c, 0, 60, 49
1, 839411, Control_c, 0, 64, 86
1, 839426, Control_c, 0, 64, 77
1, 839441, Control_c, 0, 64, 68
1, 839455, Control_c, 0, 64, 61
1, 839470, Control_c, 0, 64, 52
1, 839485, Control_c, 0, 64, 43
1, 839500, Control_c, 0, 64, 38
1, 839515, Control_c, 0, 64, 37
1, 839529, Control_c, 0, 64, 38
1, 839544, Control_c, 0, 64, 50
1, 839559, Control_c, 0, 64, 61
1, 839562, Note_off_c, 0, 50, 45
1, 839574, Control_c, 0, 64, 67
1, 839589, Control_c, 0, 64, 74
1, 839604, Note_off_c, 0, 55, 53
1, 839604, Control_c, 0, 64, 88
1, 839610, Note_off_c, 0, 59, 55
1, 839619, Control_c, 0, 64, 127
1, 839741, Note_on_c, 0, 64, 45
1, 839750, Note_on_c, 0, 55, 44
1, 839753, Control_c, 0, 64, 101
1, 839753, Note_on_c, 0, 59, 43
1, 839768, Control_c, 0, 64, 83
1, 839783, Control_c, 0, 64, 72
1, 839797, Control_c, 0, 64, 66
1, 839812, Control_c, 0, 64, 61
1, 839842, Control_c, 0, 64, 63
1, 839851, Note_off_c, 0, 59, 52
1, 839857, Control_c, 0, 64, 66
1, 839872, Control_c, 0, 64, 71
1, 839886, Control_c, 0, 64, 78
1, 839901, Control_c, 0, 64, 88
1, 839907, Note_off_c, 0, 55, 35
1, 839916, Control_c, 0, 64, 96
1, 839931, Control_c, 0, 64, 102
1, 839946, Control_c, 0, 64, 104
1, 839949, Note_off_c, 0, 28, 35
1, 840012, Control_c, 0, 64, 103
1, 840015, Note_off_c, 0, 40, 40
1, 840027, Control_c, 0, 64, 102
1, 840042, Control_c, 0, 64, 100
1, 840057, Control_c, 0, 64, 98
1, 840072, Control_c, 0, 64, 98
1, 840086, Control_c, 0, 64, 96
1, 840101, Control_c, 0, 64, 93
1, 840116, Control_c, 0, 64, 90
1, 840131, Control_c, 0, 64, 88
1, 840146, Control_c, 0, 64, 87
1, 840160, Control_c, 0, 64, 84
1, 840163, Note_on_c, 0, 61, 36
1, 840164, Note_on_c, 0, 57, 32
1, 840168, Note_on_c, 0, 66, 33
1, 840175, Control_c, 0, 64, 81
1, 840190, Control_c, 0, 64, 78
1, 840205, Control_c, 0, 64, 77
1, 840219, Control_c, 0, 64, 76
1, 840234, Control_c, 0, 64, 74
1, 840249, Control_c, 0, 64, 72
1, 840264, Control_c, 0, 64, 71
1, 840278, Control_c, 0, 64, 69
1, 840283, Note_off_c, 0, 64, 35
1, 840293, Control_c, 0, 64, 68
1, 840308, Control_c, 0, 64, 67
1, 840323, Control_c, 0, 64, 64
1, 840338, Control_c, 0, 64, 62
1, 840352, Control_c, 0, 64, 61
1, 840367, Control_c, 0, 64, 60
1, 840382, Control_c, 0, 64, 60
1, 840397, Control_c, 0, 64, 59
1, 840412, Control_c, 0, 64, 58
1, 840426, Control_c, 0, 64, 57
1, 840441, Control_c, 0, 64, 56
1, 840456, Control_c, 0, 64, 55
1, 840471, Control_c, 0, 64, 54
1, 840486, Control_c, 0, 64, 53
1, 840501, Control_c, 0, 64, 53
1, 840516, Control_c, 0, 64, 52
1, 840561, Control_c, 0, 64, 52
1, 840575, Control_c, 0, 64, 51
1, 840605, Control_c, 0, 64, 50
1, 840608, Note_off_c, 0, 66, 31
1, 840617, Note_off_c, 0, 57, 34
1, 840620, Control_c, 0, 64, 50
1, 840635, Note_off_c, 0, 61, 33
1, 840635, Control_c, 0, 64, 49
1, 840650, Control_c, 0, 64, 48
1, 840665, Control_c, 0, 64, 47
1, 840680, Control_c, 0, 64, 46
1, 840691, Note_on_c, 0, 44, 20
1, 840695, Control_c, 0, 64, 46
1, 840696, Note_on_c, 0, 32, 19
1, 840709, Control_c, 0, 64, 45
1, 840724, Control_c, 0, 64, 43
1, 840739, Control_c, 0, 64, 41
1, 840761, Control_c, 0, 64, 40
1, 840850, Control_c, 0, 64, 41
1, 840865, Control_c, 0, 64, 45
1, 840880, Control_c, 0, 64, 50
1, 840894, Control_c, 0, 64, 54
1, 840909, Control_c, 0, 64, 58
1, 840924, Control_c, 0, 64, 61
1, 840939, Control_c, 0, 64, 63
1, 840954, Control_c, 0, 64, 65
1, 840968, Control_c, 0, 64, 69
1, 840983, Control_c, 0, 64, 74
1, 840987, Note_off_c, 0, 32, 44
1, 840998, Control_c, 0, 64, 82
1, 841013, Control_c, 0, 64, 98
1, 841020, Note_off_c, 0, 44, 35
1, 841027, Control_c, 0, 64, 127
1, 841767, Note_on_c, 0, 72, 41
1, 841771, Note_on_c, 0, 60, 19
1, 841775, Note_on_c, 0, 51, 24
1, 841777, Note_on_c, 0, 75, 46
1, 841777, Note_on_c, 0, 56, 29
1, 842024, Note_off_c, 0, 72, 36
1, 842268, Note_off_c, 0, 56, 41
1, 842271, Note_off_c, 0, 60, 35
1, 842322, Note_on_c, 0, 72, 32
1, 842345, Note_on_c, 0, 68, 22
1, 842479, Note_off_c, 0, 75, 35
1, 842531, Note_off_c, 0, 72, 42
1, 842671, Note_off_c, 0, 68, 30
1, 842919, Note_on_c, 0, 75, 46
1, 842926, Note_on_c, 0, 60, 28
1, 842928, Note_on_c, 0, 72, 35
1, 842931, Note_on_c, 0, 63, 29
1, 842937, Note_on_c, 0, 55, 24
1, 843007, Control_c, 0, 64, 120
1, 843022, Control_c, 0, 64, 101
1, 843036, Control_c, 0, 64, 91
1, 843051, Control_c, 0, 64, 83
1, 843066, Control_c, 0, 64, 74
1, 843081, Control_c, 0, 64, 68
1, 843095, Control_c, 0, 64, 63
1, 843110, Control_c, 0, 64, 58
1, 843125, Control_c, 0, 64, 58
1, 843140, Control_c, 0, 64, 59
1, 843155, Control_c, 0, 64, 62
1, 843169, Control_c, 0, 64, 65
1, 843172, Note_off_c, 0, 51, 36
1, 843184, Control_c, 0, 64, 69
1, 843199, Control_c, 0, 64, 76
1, 843214, Control_c, 0, 64, 88
1, 843216, Note_off_c, 0, 72, 42
1, 843228, Control_c, 0, 64, 116
1, 843243, Control_c, 0, 64, 127
1, 843303, Note_off_c, 0, 63, 37
1, 843388, Note_off_c, 0, 60, 40
1, 843400, Note_off_c, 0, 55, 35
1, 843568, Note_on_c, 0, 72, 31
1, 843568, Note_on_c, 0, 67, 28
1, 843860, Note_off_c, 0, 75, 28
1, 843864, Note_off_c, 0, 67, 35
1, 843901, Note_off_c, 0, 72, 36
1, 844343, Note_on_c, 0, 32, 34
1, 844466, Control_c, 0, 64, 111
1, 844480, Control_c, 0, 64, 101
1, 844504, Control_c, 0, 64, 93
1, 844519, Control_c, 0, 64, 87
1, 844534, Control_c, 0, 64, 82
1, 844548, Control_c, 0, 64, 76
1, 844563, Control_c, 0, 64, 69
1, 844578, Control_c, 0, 64, 63
1, 844593, Control_c, 0, 64, 55
1, 844607, Control_c, 0, 64, 48
1, 844622, Control_c, 0, 64, 46
1, 844667, Control_c, 0, 64, 48
1, 844681, Control_c, 0, 64, 52
1, 844696, Control_c, 0, 64, 57
1, 844711, Control_c, 0, 64, 61
1, 844726, Control_c, 0, 64, 63
1, 844741, Control_c, 0, 64, 66
1, 844755, Control_c, 0, 64, 69
1, 844770, Control_c, 0, 64, 74
1, 844776, Note_off_c, 0, 32, 43
1, 844785, Control_c, 0, 64, 81
1, 844799, Control_c, 0, 64, 92
1, 844814, Control_c, 0, 64, 114
1, 844829, Control_c, 0, 64, 127
1, 845218, Note_on_c, 0, 48, 51
1, 845773, Note_on_c, 0, 72, 34
1, 845787, Note_on_c, 0, 63, 32
1, 845795, Note_on_c, 0, 60, 39
1, 845797, Note_on_c, 0, 56, 21
1, 845802, Note_on_c, 0, 68, 33
1, 846052, Note_off_c, 0, 56, 41
1, 846174, Note_off_c, 0, 72, 39
1, 846194, Note_on_c, 0, 61, 57
1, 846205, Note_on_c, 0, 57, 47
1, 846227, Note_off_c, 0, 68, 35
1, 846253, Note_off_c, 0, 63, 38
1, 846347, Note_off_c, 0, 48, 59
1, 846353, Note_off_c, 0, 60, 36
1, 846374, Note_off_c, 0, 57, 63
1, 846510, Note_on_c, 0, 49, 51
1, 846510, Note_on_c, 0, 60, 69
1, 846515, Note_on_c, 0, 56, 54
1, 846598, Note_off_c, 0, 61, 61
1, 846627, Note_off_c, 0, 56, 61
1, 846665, Note_off_c, 0, 49, 55
1, 846831, Note_on_c, 0, 59, 64
1, 846838, Note_on_c, 0, 54, 56
1, 846839, Control_c, 0, 64, 111
1, 846845, Note_on_c, 0, 26, 37
1, 846845, Note_on_c, 0, 38, 31
1, 846845, Note_on_c, 0, 50, 51
1, 846854, Control_c, 0, 64, 97
1, 846869, Control_c, 0, 64, 85
1, 846884, Control_c, 0, 64, 72
1, 846886, Note_off_c, 0, 60, 55
1, 846900, Control_c, 0, 64, 63
1, 846915, Control_c, 0, 64, 48
1, 846930, Control_c, 0, 64, 30
1, 846944, Control_c, 0, 64, 27
1, 846959, Control_c, 0, 64, 31
1, 846974, Control_c, 0, 64, 51
1, 846989, Control_c, 0, 64, 62
1, 846991, Note_off_c, 0, 50, 52
1, 846994, Note_off_c, 0, 54, 64
1, 847004, Control_c, 0, 64, 69
1, 847018, Control_c, 0, 64, 82
1, 847028, Note_off_c, 0, 59, 64
1, 847033, Control_c, 0, 64, 127
1, 847178, Note_on_c, 0, 64, 54
1, 847187, Note_on_c, 0, 54, 48
1, 847189, Note_on_c, 0, 59, 39
1, 847211, Control_c, 0, 64, 107
1, 847226, Control_c, 0, 64, 85
1, 847241, Control_c, 0, 64, 73
1, 847256, Control_c, 0, 64, 65
1, 847270, Control_c, 0, 64, 61
1, 847285, Control_c, 0, 64, 60
1, 847315, Control_c, 0, 64, 62
1, 847330, Control_c, 0, 64, 65
1, 847337, Note_off_c, 0, 59, 51
1, 847344, Control_c, 0, 64, 71
1, 847359, Control_c, 0, 64, 79
1, 847370, Note_off_c, 0, 54, 52
1, 847374, Control_c, 0, 64, 87
1, 847388, Control_c, 0, 64, 96
1, 847403, Control_c, 0, 64, 103
1, 847418, Control_c, 0, 64, 107
1, 847444, Note_off_c, 0, 26, 37
1, 847448, Control_c, 0, 64, 106
1, 847473, Note_off_c, 0, 38, 33
1, 847500, Control_c, 0, 64, 105
1, 847515, Control_c, 0, 64, 104
1, 847530, Control_c, 0, 64, 104
1, 847544, Control_c, 0, 64, 103
1, 847559, Control_c, 0, 64, 101
1, 847574, Control_c, 0, 64, 98
1, 847589, Control_c, 0, 64, 96
1, 847603, Control_c, 0, 64, 95
1, 847618, Note_on_c, 0, 66, 46
1, 847618, Control_c, 0, 64, 93
1, 847624, Note_on_c, 0, 57, 37
1, 847633, Control_c, 0, 64, 91
1, 847634, Note_on_c, 0, 61, 34
1, 847648, Control_c, 0, 64, 88
1, 847663, Control_c, 0, 64, 86
1, 847677, Control_c, 0, 64, 84
1, 847693, Control_c, 0, 64, 82
1, 847708, Control_c, 0, 64, 79
1, 847723, Control_c, 0, 64, 75
1, 847738, Control_c, 0, 64, 73
1, 847753, Control_c, 0, 64, 71
1, 847767, Control_c, 0, 64, 70
1, 847774, Note_off_c, 0, 64, 36
1, 847782, Control_c, 0, 64, 68
1, 847797, Control_c, 0, 64, 66
1, 847812, Control_c, 0, 64, 64
1, 847827, Control_c, 0, 64, 64
1, 847841, Control_c, 0, 64, 63
1, 847856, Control_c, 0, 64, 63
1, 847871, Control_c, 0, 64, 61
1, 847885, Control_c, 0, 64, 60
1, 847900, Control_c, 0, 64, 58
1, 847915, Control_c, 0, 64, 57
1, 847930, Control_c, 0, 64, 56
1, 847945, Control_c, 0, 64, 55
1, 847959, Control_c, 0, 64, 55
1, 847974, Control_c, 0, 64, 54
1, 847989, Control_c, 0, 64, 53
1, 848004, Control_c, 0, 64, 52
1, 848019, Control_c, 0, 64, 52
1, 848034, Control_c, 0, 64, 51
1, 848049, Control_c, 0, 64, 49
1, 848064, Control_c, 0, 64, 48
1, 848078, Control_c, 0, 64, 46
1, 848093, Control_c, 0, 64, 46
1, 848107, Control_c, 0, 64, 44
1, 848109, Note_off_c, 0, 66, 35
1, 848111, Note_off_c, 0, 57, 32
1, 848122, Control_c, 0, 64, 43
1, 848137, Control_c, 0, 64, 42
1, 848152, Control_c, 0, 64, 41
1, 848153, Note_off_c, 0, 61, 36
1, 848166, Control_c, 0, 64, 40
1, 848181, Control_c, 0, 64, 39
1, 848196, Control_c, 0, 64, 38
1, 848210, Control_c, 0, 64, 36
1, 848225, Control_c, 0, 64, 36
1, 848226, Note_on_c, 0, 32, 25
1, 848226, Note_on_c, 0, 44, 26
1, 848248, Control_c, 0, 64, 35
1, 848337, Control_c, 0, 64, 36
1, 848352, Control_c, 0, 64, 38
1, 848366, Control_c, 0, 64, 42
1, 848381, Control_c, 0, 64, 47
1, 848396, Control_c, 0, 64, 52
1, 848411, Control_c, 0, 64, 55
1, 848425, Control_c, 0, 64, 57
1, 848440, Control_c, 0, 64, 60
1, 848455, Control_c, 0, 64, 62
1, 848470, Control_c, 0, 64, 64
1, 848485, Control_c, 0, 64, 66
1, 848501, Control_c, 0, 64, 70
1, 848515, Control_c, 0, 64, 75
1, 848530, Control_c, 0, 64, 82
1, 848536, Note_off_c, 0, 32, 40
1, 848545, Control_c, 0, 64, 93
1, 848560, Control_c, 0, 64, 127
1, 848579, Note_off_c, 0, 44, 28
1, 848772, Note_on_c, 0, 72, 46
1, 848794, Note_on_c, 0, 68, 39
1, 848958, Note_off_c, 0, 72, 54
1, 849230, Note_on_c, 0, 75, 63
1, 849233, Note_on_c, 0, 72, 51
1, 849235, Note_on_c, 0, 55, 34
1, 849235, Note_on_c, 0, 60, 40
1, 849246, Note_on_c, 0, 51, 36
1, 849360, Note_off_c, 0, 68, 32
1, 849438, Note_off_c, 0, 72, 58
1, 849590, Note_off_c, 0, 55, 41
1, 849619, Note_off_c, 0, 60, 49
1, 849674, Note_on_c, 0, 72, 55
1, 849683, Note_on_c, 0, 67, 37
1, 849870, Note_off_c, 0, 67, 44
1, 849960, Note_off_c, 0, 72, 37
1, 850062, Note_off_c, 0, 75, 29
1, 850173, Note_on_c, 0, 77, 54
1, 850183, Note_on_c, 0, 63, 24
1, 850184, Note_on_c, 0, 72, 37
1, 850189, Note_on_c, 0, 60, 28
1, 850191, Control_c, 0, 64, 114
1, 850196, Note_on_c, 0, 55, 35
1, 850206, Control_c, 0, 64, 103
1, 850221, Control_c, 0, 64, 96
1, 850235, Control_c, 0, 64, 89
1, 850250, Control_c, 0, 64, 83
1, 850265, Control_c, 0, 64, 77
1, 850280, Control_c, 0, 64, 70
1, 850294, Control_c, 0, 64, 63
1, 850309, Control_c, 0, 64, 56
1, 850324, Control_c, 0, 64, 48
1, 850339, Control_c, 0, 64, 45
1, 850355, Control_c, 0, 64, 44
1, 850372, Note_off_c, 0, 51, 41
1, 850384, Control_c, 0, 64, 46
1, 850399, Control_c, 0, 64, 51
1, 850414, Control_c, 0, 64, 58
1, 850429, Control_c, 0, 64, 62
1, 850443, Control_c, 0, 64, 65
1, 850458, Control_c, 0, 64, 68
1, 850473, Control_c, 0, 64, 75
1, 850495, Control_c, 0, 64, 86
1, 850510, Control_c, 0, 64, 111
1, 850514, Note_off_c, 0, 77, 31
1, 850525, Control_c, 0, 64, 127
1, 850798, Note_on_c, 0, 79, 40
1, 850817, Note_on_c, 0, 58, 22
1, 850818, Note_on_c, 0, 75, 26
1, 850851, Control_c, 0, 64, 110
1, 850866, Control_c, 0, 64, 97
1, 850880, Control_c, 0, 64, 86
1, 850896, Control_c, 0, 64, 78
1, 850910, Control_c, 0, 64, 73
1, 850925, Control_c, 0, 64, 68
1, 850940, Control_c, 0, 64, 64
1, 850946, Note_off_c, 0, 60, 35
1, 850955, Control_c, 0, 64, 58
1, 850970, Control_c, 0, 64, 52
1, 850985, Control_c, 0, 64, 49
1, 851002, Note_off_c, 0, 72, 42
1, 851030, Control_c, 0, 64, 52
1, 851044, Control_c, 0, 64, 56
1, 851059, Control_c, 0, 64, 60
1, 851074, Control_c, 0, 64, 64
1, 851083, Note_off_c, 0, 63, 38
1, 851089, Control_c, 0, 64, 67
1, 851104, Control_c, 0, 64, 70
1, 851118, Control_c, 0, 64, 75
1, 851133, Control_c, 0, 64, 82
1, 851148, Control_c, 0, 64, 92
1, 851152, Note_off_c, 0, 58, 38
1, 851156, Note_off_c, 0, 55, 37
1, 851163, Control_c, 0, 64, 112
1, 851178, Control_c, 0, 64, 127
1, 851267, Note_off_c, 0, 79, 38
1, 851272, Note_off_c, 0, 75, 28
1, 851902, Note_on_c, 0, 44, 13
1, 851920, Note_on_c, 0, 32, 19
1, 851927, Control_c, 0, 64, 122
1, 851941, Control_c, 0, 64, 110
1, 851956, Control_c, 0, 64, 102
1, 851971, Control_c, 0, 64, 96
1, 851993, Control_c, 0, 64, 92
1, 852008, Control_c, 0, 64, 87
1, 852022, Control_c, 0, 64, 81
1, 852037, Control_c, 0, 64, 75
1, 852052, Control_c, 0, 64, 69
1, 852067, Control_c, 0, 64, 63
1, 852082, Control_c, 0, 64, 59
1, 852097, Control_c, 0, 64, 57
1, 852126, Control_c, 0, 64, 58
1, 852141, Control_c, 0, 64, 59
1, 852156, Control_c, 0, 64, 61
1, 852171, Control_c, 0, 64, 63
1, 852186, Control_c, 0, 64, 66
1, 852201, Control_c, 0, 64, 70
1, 852215, Control_c, 0, 64, 75
1, 852230, Control_c, 0, 64, 81
1, 852237, Note_off_c, 0, 44, 37
1, 852245, Control_c, 0, 64, 90
1, 852259, Control_c, 0, 64, 103
1, 852274, Control_c, 0, 64, 127
1, 852488, Note_on_c, 0, 31, 23
1, 852490, Note_on_c, 0, 82, 39
1, 852513, Note_on_c, 0, 43, 5
1, 852590, Note_off_c, 0, 32, 34
1, 852689, Note_off_c, 0, 43, 39
1, 852953, Note_on_c, 0, 71, 35
1, 852958, Note_on_c, 0, 83, 44
1, 852994, Note_on_c, 0, 32, 19
1, 853017, Poly_aftertouch_c, 0, 44, 127
1, 853057, Note_off_c, 0, 82, 31
1, 853121, Note_off_c, 0, 31, 33
1, 853220, Poly_aftertouch_c, 0, 44, 0
1, 853315, Note_on_c, 0, 82, 53
1, 853326, Note_on_c, 0, 31, 31
1, 853334, Note_on_c, 0, 43, 16
1, 853373, Note_off_c, 0, 32, 33
1, 853403, Note_off_c, 0, 71, 59
1, 853418, Note_off_c, 0, 43, 52
1, 853581, Note_off_c, 0, 83, 31
1, 853625, Note_on_c, 0, 70, 50
1, 853638, Control_c, 0, 64, 105
1, 853652, Control_c, 0, 64, 91
1, 853653, Note_on_c, 0, 44, 12
1, 853660, Note_on_c, 0, 32, 18
1, 853667, Control_c, 0, 64, 82
1, 853682, Control_c, 0, 64, 73
1, 853697, Control_c, 0, 64, 67
1, 853707, Note_off_c, 0, 31, 38
1, 853711, Control_c, 0, 64, 64
1, 853726, Control_c, 0, 64, 63
1, 853741, Control_c, 0, 64, 65
1, 853756, Control_c, 0, 64, 67
1, 853771, Control_c, 0, 64, 73
1, 853785, Control_c, 0, 64, 81
1, 853800, Control_c, 0, 64, 91
1, 853815, Control_c, 0, 64, 110
1, 853829, Control_c, 0, 64, 127
1, 853856, Note_off_c, 0, 44, 37
1, 853915, Note_on_c, 0, 31, 27
1, 853917, Note_on_c, 0, 83, 48
1, 853921, Note_on_c, 0, 43, 23
1, 853963, Note_off_c, 0, 70, 34
1, 853967, Note_off_c, 0, 32, 36
1, 854030, Note_off_c, 0, 43, 48
1, 854179, Note_off_c, 0, 82, 58
1, 854185, Note_off_c, 0, 83, 37
1, 854195, Note_on_c, 0, 71, 55
1, 854230, Note_on_c, 0, 44, 21
1, 854232, Note_on_c, 0, 32, 27
1, 854352, Note_off_c, 0, 31, 35
1, 854444, Note_off_c, 0, 44, 38
1, 854505, Note_on_c, 0, 70, 57
1, 854518, Note_on_c, 0, 31, 29
1, 854523, Note_off_c, 0, 71, 59
1, 854524, Note_on_c, 0, 43, 19
1, 854562, Note_off_c, 0, 32, 32
1, 854592, Note_off_c, 0, 43, 53
1, 854742, Control_c, 0, 64, 116
1, 854757, Control_c, 0, 64, 111
1, 854772, Control_c, 0, 64, 106
1, 854787, Control_c, 0, 64, 101
1, 854801, Control_c, 0, 64, 95
1, 854809, Note_on_c, 0, 59, 50
1, 854809, Note_on_c, 0, 44, 32
1, 854810, Note_on_c, 0, 71, 52
1, 854815, Note_on_c, 0, 32, 29
1, 854816, Control_c, 0, 64, 90
1, 854831, Control_c, 0, 64, 84
1, 854845, Control_c, 0, 64, 77
1, 854860, Control_c, 0, 64, 71
1, 854876, Control_c, 0, 64, 66
1, 854881, Note_off_c, 0, 70, 54
1, 854891, Control_c, 0, 64, 62
1, 854905, Control_c, 0, 64, 61
1, 854907, Note_off_c, 0, 31, 38
1, 854935, Control_c, 0, 64, 62
1, 854949, Control_c, 0, 64, 64
1, 854964, Control_c, 0, 64, 68
1, 854987, Control_c, 0, 64, 75
1, 855002, Control_c, 0, 64, 84
1, 855017, Control_c, 0, 64, 97
1, 855031, Control_c, 0, 64, 127
1, 855052, Note_off_c, 0, 44, 38
1, 855129, Note_on_c, 0, 70, 61
1, 855138, Note_on_c, 0, 43, 28
1, 855149, Note_on_c, 0, 31, 31
1, 855167, Note_off_c, 0, 32, 35
1, 855230, Note_off_c, 0, 71, 53
1, 855240, Note_off_c, 0, 59, 60
1, 855280, Note_off_c, 0, 43, 35
1, 855431, Control_c, 0, 64, 108
1, 855446, Control_c, 0, 64, 96
1, 855449, Note_on_c, 0, 58, 54
1, 855450, Note_on_c, 0, 71, 57
1, 855459, Note_on_c, 0, 44, 27
1, 855461, Control_c, 0, 64, 88
1, 855475, Note_on_c, 0, 32, 22
1, 855475, Control_c, 0, 64, 80
1, 855490, Control_c, 0, 64, 72
1, 855505, Control_c, 0, 64, 66
1, 855520, Control_c, 0, 64, 60
1, 855535, Control_c, 0, 64, 57
1, 855555, Note_off_c, 0, 70, 39
1, 855560, Note_off_c, 0, 31, 34
1, 855564, Control_c, 0, 64, 59
1, 855579, Control_c, 0, 64, 63
1, 855594, Control_c, 0, 64, 66
1, 855609, Control_c, 0, 64, 73
1, 855623, Control_c, 0, 64, 87
1, 855638, Control_c, 0, 64, 125
1, 855653, Control_c, 0, 64, 127
1, 855707, Note_off_c, 0, 44, 38
1, 855717, Note_off_c, 0, 58, 59
1, 855781, Note_on_c, 0, 59, 64
1, 855796, Note_on_c, 0, 31, 30
1, 855802, Note_on_c, 0, 43, 34
1, 855825, Control_c, 0, 64, 115
1, 855833, Note_off_c, 0, 32, 34
1, 855840, Control_c, 0, 64, 91
1, 855854, Control_c, 0, 64, 77
1, 855869, Control_c, 0, 64, 68
1, 855884, Control_c, 0, 64, 62
1, 855899, Control_c, 0, 64, 59
1, 855913, Control_c, 0, 64, 60
1, 855928, Control_c, 0, 64, 62
1, 855943, Control_c, 0, 64, 66
1, 855958, Control_c, 0, 64, 72
1, 855969, Note_off_c, 0, 43, 48
1, 855973, Control_c, 0, 64, 82
1, 855987, Control_c, 0, 64, 102
1, 856002, Control_c, 0, 64, 127
1, 856071, Note_off_c, 0, 71, 31
1, 856107, Note_on_c, 0, 44, 49
1, 856118, Note_on_c, 0, 32, 42
1, 856136, Control_c, 0, 64, 105
1, 856151, Control_c, 0, 64, 84
1, 856166, Control_c, 0, 64, 72
1, 856180, Note_off_c, 0, 31, 39
1, 856180, Control_c, 0, 64, 65
1, 856195, Control_c, 0, 64, 61
1, 856210, Control_c, 0, 64, 60
1, 856225, Control_c, 0, 64, 61
1, 856240, Control_c, 0, 64, 64
1, 856254, Control_c, 0, 64, 68
1, 856269, Control_c, 0, 64, 77
1, 856284, Control_c, 0, 64, 99
1, 856287, Note_off_c, 0, 32, 42
1, 856298, Control_c, 0, 64, 127
1, 856301, Note_off_c, 0, 44, 61
1, 856482, Note_on_c, 0, 58, 63
1, 856482, Note_on_c, 0, 47, 35
1, 856485, Note_on_c, 0, 35, 32
1, 856529, Control_c, 0, 64, 110
1, 856544, Control_c, 0, 64, 98
1, 856559, Control_c, 0, 64, 89
1, 856574, Control_c, 0, 64, 79
1, 856589, Control_c, 0, 64, 72
1, 856603, Control_c, 0, 64, 66
1, 856616, Note_off_c, 0, 59, 54
1, 856618, Control_c, 0, 64, 62
1, 856633, Control_c, 0, 64, 57
1, 856648, Control_c, 0, 64, 56
1, 856677, Control_c, 0, 64, 57
1, 856692, Control_c, 0, 64, 59
1, 856707, Control_c, 0, 64, 62
1, 856722, Control_c, 0, 64, 65
1, 856736, Control_c, 0, 64, 68
1, 856751, Control_c, 0, 64, 73
1, 856766, Control_c, 0, 64, 79
1, 856781, Control_c, 0, 64, 87
1, 856796, Control_c, 0, 64, 98
1, 856810, Control_c, 0, 64, 125
1, 856825, Control_c, 0, 64, 127
1, 856970, Note_on_c, 0, 59, 58
1, 856973, Note_on_c, 0, 39, 36
1, 857018, Control_c, 0, 64, 107
1, 857033, Control_c, 0, 64, 98
1, 857047, Control_c, 0, 64, 95
1, 857062, Control_c, 0, 64, 91
1, 857077, Control_c, 0, 64, 85
1, 857092, Control_c, 0, 64, 79
1, 857103, Note_off_c, 0, 58, 51
1, 857107, Control_c, 0, 64, 73
1, 857112, Note_off_c, 0, 47, 33
1, 857121, Control_c, 0, 64, 69
1, 857134, Note_off_c, 0, 35, 38
1, 857136, Control_c, 0, 64, 67
1, 857151, Control_c, 0, 64, 64
1, 857166, Control_c, 0, 64, 62
1, 857181, Control_c, 0, 64, 58
1, 857195, Control_c, 0, 64, 55
1, 857210, Control_c, 0, 64, 53
1, 857233, Control_c, 0, 64, 52
1, 857247, Control_c, 0, 64, 52
1, 857307, Control_c, 0, 64, 52
1, 857322, Control_c, 0, 64, 53
1, 857337, Control_c, 0, 64, 54
1, 857352, Control_c, 0, 64, 56
1, 857367, Control_c, 0, 64, 58
1, 857382, Control_c, 0, 64, 59
1, 857397, Control_c, 0, 64, 60
1, 857412, Control_c, 0, 64, 61
1, 857426, Control_c, 0, 64, 62
1, 857441, Control_c, 0, 64, 63
1, 857445, Note_on_c, 0, 51, 53
1, 857456, Control_c, 0, 64, 64
1, 857471, Control_c, 0, 64, 65
1, 857486, Control_c, 0, 64, 66
1, 857500, Control_c, 0, 64, 68
1, 857515, Control_c, 0, 64, 70
1, 857530, Control_c, 0, 64, 73
1, 857545, Control_c, 0, 64, 77
1, 857559, Control_c, 0, 64, 82
1, 857574, Control_c, 0, 64, 88
1, 857589, Control_c, 0, 64, 97
1, 857604, Control_c, 0, 64, 106
1, 857619, Control_c, 0, 64, 112
1, 857633, Control_c, 0, 64, 113
1, 857737, Control_c, 0, 64, 112
1, 857751, Control_c, 0, 64, 109
1, 857766, Control_c, 0, 64, 103
1, 857775, Note_on_c, 0, 53, 69
1, 857781, Control_c, 0, 64, 96
1, 857796, Control_c, 0, 64, 87
1, 857811, Control_c, 0, 64, 78
1, 857826, Control_c, 0, 64, 70
1, 857841, Control_c, 0, 64, 64
1, 857856, Control_c, 0, 64, 60
1, 857871, Control_c, 0, 64, 58
1, 857900, Control_c, 0, 64, 59
1, 857915, Control_c, 0, 64, 62
1, 857930, Control_c, 0, 64, 65
1, 857945, Control_c, 0, 64, 70
1, 857960, Control_c, 0, 64, 79
1, 857982, Control_c, 0, 64, 92
1, 857997, Control_c, 0, 64, 125
1, 858006, Note_off_c, 0, 51, 48
1, 858012, Control_c, 0, 64, 127
1, 858103, Note_off_c, 0, 39, 41
1, 858133, Note_on_c, 0, 54, 63
1, 858243, Note_off_c, 0, 53, 58
1, 858455, Note_off_c, 0, 54, 58
1, 858480, Note_on_c, 0, 40, 35
1, 858487, Control_c, 0, 64, 110
1, 858501, Control_c, 0, 64, 102
1, 858516, Control_c, 0, 64, 96
1, 858531, Control_c, 0, 64, 92
1, 858543, Note_on_c, 0, 48, 44
1, 858546, Control_c, 0, 64, 89
1, 858561, Control_c, 0, 64, 85
1, 858575, Control_c, 0, 64, 82
1, 858589, Control_c, 0, 64, 80
1, 858604, Control_c, 0, 64, 76
1, 858619, Control_c, 0, 64, 73
1, 858634, Control_c, 0, 64, 71
1, 858649, Control_c, 0, 64, 68
1, 858664, Control_c, 0, 64, 65
1, 858670, Note_on_c, 0, 55, 43
1, 858679, Control_c, 0, 64, 63
1, 858693, Control_c, 0, 64, 62
1, 858708, Control_c, 0, 64, 60
1, 858730, Control_c, 0, 64, 59
1, 858745, Control_c, 0, 64, 57
1, 858760, Control_c, 0, 64, 54
1, 858763, Note_off_c, 0, 48, 41
1, 858774, Control_c, 0, 64, 52
1, 858789, Control_c, 0, 64, 50
1, 858797, Note_off_c, 0, 40, 43
1, 858804, Control_c, 0, 64, 48
1, 858819, Control_c, 0, 64, 47
1, 858834, Control_c, 0, 64, 46
1, 858847, Note_off_c, 0, 55, 35
1, 858848, Control_c, 0, 64, 45
1, 858863, Control_c, 0, 64, 43
1, 858879, Control_c, 0, 64, 42
1, 858894, Control_c, 0, 64, 41
1, 858909, Control_c, 0, 64, 41
1, 858923, Control_c, 0, 64, 40
1, 858953, Control_c, 0, 64, 40
1, 859294, Control_c, 0, 64, 40
1, 859323, Control_c, 0, 64, 41
1, 859338, Control_c, 0, 64, 41
1, 859353, Control_c, 0, 64, 42
1, 859368, Control_c, 0, 64, 42
1, 859383, Control_c, 0, 64, 43
1, 859388, Note_on_c, 0, 76, 50
1, 859393, Note_on_c, 0, 71, 27
1, 859397, Control_c, 0, 64, 44
1, 859412, Control_c, 0, 64, 45
1, 859427, Control_c, 0, 64, 47
1, 859442, Control_c, 0, 64, 50
1, 859457, Control_c, 0, 64, 55
1, 859479, Control_c, 0, 64, 60
1, 859494, Control_c, 0, 64, 63
1, 859509, Control_c, 0, 64, 66
1, 859523, Control_c, 0, 64, 70
1, 859538, Control_c, 0, 64, 77
1, 859553, Control_c, 0, 64, 90
1, 859568, Control_c, 0, 64, 108
1, 859583, Control_c, 0, 64, 127
1, 859587, Note_off_c, 0, 76, 54
1, 859673, Control_c, 0, 64, 112
1, 859688, Control_c, 0, 64, 105
1, 859702, Control_c, 0, 64, 101
1, 859716, Note_off_c, 0, 71, 40
1, 859717, Control_c, 0, 64, 98
1, 859732, Control_c, 0, 64, 95
1, 859746, Control_c, 0, 64, 91
1, 859761, Control_c, 0, 64, 87
1, 859776, Control_c, 0, 64, 84
1, 859785, Note_on_c, 0, 79, 49
1, 859791, Control_c, 0, 64, 82
1, 859806, Control_c, 0, 64, 80
1, 859810, Note_on_c, 0, 76, 32
1, 859820, Control_c, 0, 64, 77
1, 859835, Control_c, 0, 64, 74
1, 859850, Control_c, 0, 64, 71
1, 859865, Control_c, 0, 64, 69
1, 859880, Control_c, 0, 64, 68
1, 859895, Control_c, 0, 64, 66
1, 859910, Control_c, 0, 64, 63
1, 859920, Note_off_c, 0, 79, 36
1, 859924, Note_off_c, 0, 76, 39
1, 859925, Control_c, 0, 64, 61
1, 859939, Control_c, 0, 64, 59
1, 859954, Control_c, 0, 64, 58
1, 859969, Control_c, 0, 64, 56
1, 859984, Control_c, 0, 64, 55
1, 859999, Control_c, 0, 64, 53
1, 860013, Control_c, 0, 64, 52
1, 860028, Control_c, 0, 64, 52
1, 860043, Control_c, 0, 64, 51
1, 860058, Control_c, 0, 64, 51
1, 860073, Control_c, 0, 64, 50
1, 860088, Control_c, 0, 64, 50
1, 860102, Control_c, 0, 64, 49
1, 860117, Control_c, 0, 64, 49
1, 860132, Control_c, 0, 64, 48
1, 860163, Note_on_c, 0, 76, 54
1, 860175, Note_on_c, 0, 79, 41
1, 860208, Note_off_c, 0, 79, 52
1, 860210, Note_off_c, 0, 76, 60
1, 860228, Control_c, 0, 64, 48
1, 860354, Note_on_c, 0, 74, 48
1, 860363, Note_on_c, 0, 71, 41
1, 860405, Note_off_c, 0, 74, 57
1, 860412, Note_off_c, 0, 71, 51
1, 860420, Control_c, 0, 64, 47
1, 860700, Note_on_c, 0, 79, 34
1, 860706, Note_on_c, 0, 76, 34
1, 860866, Control_c, 0, 64, 48
1, 860881, Control_c, 0, 64, 48
1, 860895, Control_c, 0, 64, 49
1, 860910, Control_c, 0, 64, 49
1, 860925, Control_c, 0, 64, 50
1, 860940, Control_c, 0, 64, 52
1, 860955, Control_c, 0, 64, 53
1, 860977, Control_c, 0, 64, 54
1, 860992, Control_c, 0, 64, 55
1, 861007, Control_c, 0, 64, 57
1, 861021, Control_c, 0, 64, 58
1, 861036, Control_c, 0, 64, 59
1, 861051, Control_c, 0, 64, 60
1, 861066, Control_c, 0, 64, 61
1, 861081, Control_c, 0, 64, 62
1, 861095, Control_c, 0, 64, 63
1, 861110, Control_c, 0, 64, 65
1, 861125, Control_c, 0, 64, 66
1, 861140, Control_c, 0, 64, 69
1, 861155, Control_c, 0, 64, 72
1, 861169, Control_c, 0, 64, 75
1, 861184, Control_c, 0, 64, 80
1, 861199, Control_c, 0, 64, 85
1, 861214, Control_c, 0, 64, 93
1, 861229, Control_c, 0, 64, 103
1, 861243, Control_c, 0, 64, 127
1, 861539, Note_off_c, 0, 59, 46
1, 861830, Note_on_c, 0, 67, 46
1, 861866, Note_off_c, 0, 79, 38
1, 861975, Note_off_c, 0, 76, 55
1, 862142, Control_c, 0, 64, 122
1, 862157, Control_c, 0, 64, 110
1, 862172, Control_c, 0, 64, 106
1, 862187, Control_c, 0, 64, 104
1, 862202, Control_c, 0, 64, 103
1, 862213, Note_on_c, 0, 76, 54
1, 862216, Control_c, 0, 64, 100
1, 862226, Note_on_c, 0, 71, 46
1, 862231, Control_c, 0, 64, 97
1, 862246, Control_c, 0, 64, 94
1, 862261, Control_c, 0, 64, 92
1, 862276, Control_c, 0, 64, 90
1, 862290, Control_c, 0, 64, 87
1, 862305, Control_c, 0, 64, 85
1, 862320, Control_c, 0, 64, 82
1, 862335, Control_c, 0, 64, 79
1, 862349, Control_c, 0, 64, 77
1, 862364, Control_c, 0, 64, 75
1, 862379, Control_c, 0, 64, 73
1, 862394, Control_c, 0, 64, 72
1, 862409, Control_c, 0, 64, 71
1, 862423, Control_c, 0, 64, 70
1, 862438, Note_off_c, 0, 76, 47
1, 862438, Control_c, 0, 64, 69
1, 862453, Control_c, 0, 64, 67
1, 862476, Control_c, 0, 64, 66
1, 862491, Control_c, 0, 64, 66
1, 862505, Control_c, 0, 64, 65
1, 862520, Control_c, 0, 64, 65
1, 862535, Control_c, 0, 64, 64
1, 862549, Control_c, 0, 64, 63
1, 862564, Control_c, 0, 64, 63
1, 862579, Control_c, 0, 64, 62
1, 862609, Control_c, 0, 64, 62
1, 862623, Control_c, 0, 64, 61
1, 862630, Note_on_c, 0, 76, 42
1, 862630, Note_on_c, 0, 79, 48
1, 862638, Control_c, 0, 64, 60
1, 862653, Control_c, 0, 64, 59
1, 862668, Control_c, 0, 64, 58
1, 862683, Control_c, 0, 64, 58
1, 862697, Control_c, 0, 64, 57
1, 862712, Control_c, 0, 64, 56
1, 862727, Control_c, 0, 64, 55
1, 862732, Note_off_c, 0, 71, 37
1, 862741, Control_c, 0, 64, 55
1, 862744, Note_off_c, 0, 76, 42
1, 862756, Control_c, 0, 64, 54
1, 862771, Control_c, 0, 64, 53
1, 862785, Note_off_c, 0, 79, 36
1, 862786, Control_c, 0, 64, 53
1, 862801, Control_c, 0, 64, 52
1, 862816, Control_c, 0, 64, 51
1, 862831, Control_c, 0, 64, 50
1, 862846, Control_c, 0, 64, 50
1, 862861, Control_c, 0, 64, 49
1, 862876, Control_c, 0, 64, 49
1, 862891, Control_c, 0, 64, 48
1, 862920, Control_c, 0, 64, 48
1, 862950, Control_c, 0, 64, 47
1, 862980, Control_c, 0, 64, 47
1, 863000, Note_on_c, 0, 76, 51
1, 863000, Note_on_c, 0, 79, 51
1, 863025, Control_c, 0, 64, 46
1, 863040, Note_off_c, 0, 76, 59
1, 863050, Note_off_c, 0, 79, 59
1, 863069, Control_c, 0, 64, 46
1, 863097, Control_c, 0, 64, 45
1, 863206, Note_on_c, 0, 74, 41
1, 863222, Note_on_c, 0, 71, 43
1, 863267, Note_off_c, 0, 74, 51
1, 863276, Note_off_c, 0, 71, 57
1, 863400, Control_c, 0, 64, 45
1, 863522, Note_on_c, 0, 76, 33
1, 863522, Note_on_c, 0, 79, 38
1, 863652, Control_c, 0, 64, 45
1, 863668, Control_c, 0, 64, 46
1, 863683, Control_c, 0, 64, 46
1, 863698, Control_c, 0, 64, 47
1, 863713, Control_c, 0, 64, 49
1, 863728, Control_c, 0, 64, 50
1, 863742, Control_c, 0, 64, 53
1, 863757, Control_c, 0, 64, 55
1, 863772, Control_c, 0, 64, 57
1, 863786, Control_c, 0, 64, 59
1, 863801, Control_c, 0, 64, 60
1, 863816, Control_c, 0, 64, 61
1, 863831, Control_c, 0, 64, 63
1, 863846, Control_c, 0, 64, 64
1, 863860, Control_c, 0, 64, 66
1, 863875, Control_c, 0, 64, 69
1, 863890, Control_c, 0, 64, 73
1, 863905, Control_c, 0, 64, 80
1, 863920, Control_c, 0, 64, 92
1, 863934, Control_c, 0, 64, 108
1, 863949, Control_c, 0, 64, 127
1, 864318, Note_off_c, 0, 76, 31
1, 864875, Note_on_c, 0, 91, 57
1, 865254, Note_on_c, 0, 76, 45
1, 865263, Note_on_c, 0, 71, 40
1, 865305, Note_off_c, 0, 79, 37
1, 865381, Note_off_c, 0, 71, 52
1, 865408, Note_off_c, 0, 76, 57
1, 865707, Note_on_c, 0, 79, 52
1, 865718, Note_on_c, 0, 76, 43
1, 865765, Control_c, 0, 64, 113
1, 865780, Control_c, 0, 64, 98
1, 865795, Control_c, 0, 64, 90
1, 865810, Control_c, 0, 64, 83
1, 865825, Control_c, 0, 64, 79
1, 865839, Control_c, 0, 64, 74
1, 865854, Control_c, 0, 64, 69
1, 865869, Control_c, 0, 64, 64
1, 865884, Control_c, 0, 64, 59
1, 865899, Control_c, 0, 64, 55
1, 865913, Control_c, 0, 64, 54
1, 865928, Control_c, 0, 64, 54
1, 865988, Control_c, 0, 64, 55
1, 866003, Control_c, 0, 64, 58
1, 866017, Control_c, 0, 64, 61
1, 866032, Control_c, 0, 64, 64
1, 866047, Control_c, 0, 64, 66
1, 866062, Control_c, 0, 64, 70
1, 866077, Control_c, 0, 64, 76
1, 866092, Control_c, 0, 64, 85
1, 866107, Control_c, 0, 64, 99
1, 866122, Control_c, 0, 64, 127
1, 866131, Note_off_c, 0, 67, 34
1, 866545, Note_on_c, 0, 69, 36
1, 866545, Note_on_c, 0, 93, 54
1, 866633, Control_c, 0, 64, 115
1, 866648, Control_c, 0, 64, 106
1, 866662, Control_c, 0, 64, 101
1, 866677, Control_c, 0, 64, 98
1, 866692, Control_c, 0, 64, 96
1, 866706, Control_c, 0, 64, 94
1, 866721, Control_c, 0, 64, 91
1, 866736, Control_c, 0, 64, 89
1, 866751, Control_c, 0, 64, 87
1, 866766, Control_c, 0, 64, 86
1, 866781, Control_c, 0, 64, 85
1, 866796, Control_c, 0, 64, 83
1, 866810, Control_c, 0, 64, 82
1, 866825, Control_c, 0, 64, 81
1, 866871, Control_c, 0, 64, 80
1, 866885, Control_c, 0, 64, 78
1, 866900, Control_c, 0, 64, 77
1, 866915, Control_c, 0, 64, 76
1, 866930, Control_c, 0, 64, 75
1, 866945, Control_c, 0, 64, 74
1, 866965, Note_on_c, 0, 95, 45
1, 866967, Control_c, 0, 64, 72
1, 866968, Note_on_c, 0, 71, 31
1, 866982, Control_c, 0, 64, 71
1, 866997, Control_c, 0, 64, 69
1, 867011, Control_c, 0, 64, 68
1, 867026, Control_c, 0, 64, 67
1, 867041, Control_c, 0, 64, 66
1, 867056, Control_c, 0, 64, 66
1, 867071, Control_c, 0, 64, 65
1, 867085, Control_c, 0, 64, 64
1, 867100, Control_c, 0, 64, 64
1, 867115, Control_c, 0, 64, 63
1, 867123, Note_off_c, 0, 69, 37
1, 867130, Control_c, 0, 64, 63
1, 867145, Control_c, 0, 64, 62
1, 867174, Control_c, 0, 64, 61
1, 867189, Control_c, 0, 64, 61
1, 867204, Control_c, 0, 64, 60
1, 867234, Control_c, 0, 64, 60
1, 867264, Control_c, 0, 64, 59
1, 867278, Control_c, 0, 64, 59
1, 867308, Control_c, 0, 64, 58
1, 867337, Control_c, 0, 64, 58
1, 867352, Control_c, 0, 64, 57
1, 867397, Control_c, 0, 64, 57
1, 867503, Note_on_c, 0, 96, 38
1, 867514, Note_on_c, 0, 72, 25
1, 867529, Control_c, 0, 64, 56
1, 867589, Control_c, 0, 64, 56
1, 867604, Note_off_c, 0, 71, 35
1, 867618, Control_c, 0, 64, 55
1, 867633, Control_c, 0, 64, 55
1, 867648, Control_c, 0, 64, 54
1, 867664, Control_c, 0, 64, 54
1, 867679, Control_c, 0, 64, 53
1, 867746, Control_c, 0, 64, 55
1, 867761, Control_c, 0, 64, 58
1, 867776, Control_c, 0, 64, 62
1, 867790, Control_c, 0, 64, 65
1, 867805, Control_c, 0, 64, 69
1, 867820, Control_c, 0, 64, 77
1, 867834, Control_c, 0, 64, 105
1, 867845, Note_off_c, 0, 93, 39
1, 867849, Control_c, 0, 64, 127
1, 867916, Note_off_c, 0, 95, 35
1, 867917, Note_off_c, 0, 79, 34
1, 867925, Note_off_c, 0, 76, 56
1, 867980, Note_off_c, 0, 72, 44
1, 868613, Control_c, 0, 64, 125
1, 868628, Control_c, 0, 64, 110
1, 868643, Control_c, 0, 64, 101
1, 868657, Control_c, 0, 64, 95
1, 868672, Control_c, 0, 64, 89
1, 868681, Note_on_c, 0, 24, 21
1, 868686, Note_on_c, 0, 36, 21
1, 868687, Control_c, 0, 64, 87
1, 868702, Control_c, 0, 64, 84
1, 868717, Control_c, 0, 64, 80
1, 868732, Control_c, 0, 64, 76
1, 868746, Control_c, 0, 64, 71
1, 868761, Control_c, 0, 64, 67
1, 868769, Note_off_c, 0, 36, 38
1, 868776, Control_c, 0, 64, 64
1, 868782, Note_off_c, 0, 24, 39
1, 868790, Control_c, 0, 64, 63
1, 868805, Control_c, 0, 64, 61
1, 868820, Control_c, 0, 64, 59
1, 868835, Control_c, 0, 64, 58
1, 868850, Control_c, 0, 64, 56
1, 868864, Control_c, 0, 64, 53
1, 868879, Control_c, 0, 64, 50
1, 868882, Note_off_c, 0, 91, 40
1, 868882, Note_off_c, 0, 96, 42
1, 868894, Control_c, 0, 64, 47
1, 868909, Control_c, 0, 64, 45
1, 868924, Control_c, 0, 64, 43
1, 868939, Control_c, 0, 64, 39
1, 868954, Control_c, 0, 64, 33
1, 868969, Control_c, 0, 64, 26
1, 868983, Control_c, 0, 64, 19
1, 868998, Control_c, 0, 64, 12
1, 869013, Control_c, 0, 64, 0
1, 869540, Control_c, 0, 64, 14
1, 869554, Control_c, 0, 64, 28
1, 869569, Control_c, 0, 64, 39
1, 869584, Control_c, 0, 64, 47
1, 869599, Control_c, 0, 64, 51
1, 869613, Control_c, 0, 64, 54
1, 869628, Control_c, 0, 64, 56
1, 869643, Control_c, 0, 64, 58
1, 869658, Control_c, 0, 64, 60
1, 869673, Control_c, 0, 64, 62
1, 869687, Control_c, 0, 64, 63
1, 869702, Control_c, 0, 64, 65
1, 869717, Control_c, 0, 64, 67
1, 869732, Control_c, 0, 64, 71
1, 869747, Control_c, 0, 64, 77
1, 869762, Control_c, 0, 64, 84
1, 869776, Control_c, 0, 64, 93
1, 869791, Control_c, 0, 64, 103
1, 869806, Control_c, 0, 64, 127
1, 871016, Note_on_c, 0, 40, 43
1, 871018, Note_on_c, 0, 64, 34
1, 871021, Note_on_c, 0, 67, 39
1, 871022, Note_on_c, 0, 55, 37
1, 871156, Control_c, 0, 64, 113
1, 871171, Control_c, 0, 64, 100
1, 871185, Control_c, 0, 64, 92
1, 871200, Control_c, 0, 64, 88
1, 871215, Control_c, 0, 64, 85
1, 871230, Control_c, 0, 64, 82
1, 871245, Control_c, 0, 64, 78
1, 871259, Control_c, 0, 64, 75
1, 871274, Control_c, 0, 64, 72
1, 871289, Control_c, 0, 64, 69
1, 871304, Control_c, 0, 64, 66
1, 871319, Control_c, 0, 64, 63
1, 871333, Control_c, 0, 64, 60
1, 871348, Control_c, 0, 64, 59
1, 871363, Control_c, 0, 64, 58
1, 871377, Control_c, 0, 64, 58
1, 871392, Control_c, 0, 64, 57
1, 871407, Control_c, 0, 64, 55
1, 871422, Control_c, 0, 64, 54
1, 871437, Control_c, 0, 64, 52
1, 871459, Control_c, 0, 64, 50
1, 871474, Control_c, 0, 64, 48
1, 871489, Control_c, 0, 64, 47
1, 871504, Control_c, 0, 64, 46
1, 871519, Control_c, 0, 64, 45
1, 871533, Control_c, 0, 64, 44
1, 871548, Control_c, 0, 64, 42
1, 871563, Control_c, 0, 64, 41
1, 871577, Control_c, 0, 64, 39
1, 871592, Control_c, 0, 64, 38
1, 871607, Control_c, 0, 64, 36
1, 871622, Control_c, 0, 64, 31
1, 871637, Control_c, 0, 64, 23
1, 871653, Control_c, 0, 64, 0
1, 871949, Control_c, 0, 64, 23
1, 871964, Control_c, 0, 64, 38
1, 871979, Control_c, 0, 64, 46
1, 871994, Control_c, 0, 64, 52
1, 872008, Control_c, 0, 64, 57
1, 872023, Control_c, 0, 64, 61
1, 872038, Control_c, 0, 64, 64
1, 872053, Control_c, 0, 64, 66
1, 872068, Control_c, 0, 64, 69
1, 872082, Control_c, 0, 64, 74
1, 872097, Control_c, 0, 64, 84
1, 872112, Control_c, 0, 64, 101
1, 872127, Control_c, 0, 64, 127
1, 872349, Note_on_c, 0, 41, 33
1, 872430, Control_c, 0, 64, 109
1, 872445, Note_off_c, 0, 40, 42
1, 872445, Control_c, 0, 64, 92
1, 872461, Control_c, 0, 64, 80
1, 872476, Control_c, 0, 64, 71
1, 872491, Control_c, 0, 64, 66
1, 872505, Control_c, 0, 64, 64
1, 872520, Control_c, 0, 64, 65
1, 872535, Control_c, 0, 64, 66
1, 872550, Control_c, 0, 64, 69
1, 872565, Control_c, 0, 64, 72
1, 872579, Control_c, 0, 64, 79
1, 872594, Control_c, 0, 64, 88
1, 872609, Control_c, 0, 64, 101
1, 872623, Control_c, 0, 64, 127
1, 872702, Note_on_c, 0, 40, 51
1, 872771, Note_off_c, 0, 41, 41
1, 873061, Control_c, 0, 64, 119
1, 873076, Control_c, 0, 64, 102
1, 873090, Note_on_c, 0, 39, 46
1, 873091, Control_c, 0, 64, 90
1, 873099, Note_on_c, 0, 30, 36
1, 873106, Control_c, 0, 64, 81
1, 873121, Control_c, 0, 64, 75
1, 873136, Control_c, 0, 64, 69
1, 873151, Control_c, 0, 64, 65
1, 873166, Control_c, 0, 64, 60
1, 873172, Note_off_c, 0, 40, 55
1, 873180, Control_c, 0, 64, 54
1, 873195, Control_c, 0, 64, 51
1, 873210, Control_c, 0, 64, 51
1, 873255, Control_c, 0, 64, 54
1, 873270, Control_c, 0, 64, 58
1, 873285, Control_c, 0, 64, 63
1, 873300, Control_c, 0, 64, 66
1, 873315, Control_c, 0, 64, 71
1, 873330, Control_c, 0, 64, 82
1, 873344, Control_c, 0, 64, 95
1, 873359, Control_c, 0, 64, 127
1, 873476, Note_on_c, 0, 44, 50
1, 873521, Control_c, 0, 64, 109
1, 873536, Control_c, 0, 64, 88
1, 873551, Control_c, 0, 64, 74
1, 873565, Control_c, 0, 64, 66
1, 873580, Control_c, 0, 64, 60
1, 873594, Control_c, 0, 64, 58
1, 873609, Control_c, 0, 64, 58
1, 873624, Control_c, 0, 64, 60
1, 873639, Control_c, 0, 64, 63
1, 873647, Note_off_c, 0, 30, 46
1, 873653, Control_c, 0, 64, 67
1, 873668, Control_c, 0, 64, 73
1, 873683, Control_c, 0, 64, 84
1, 873705, Control_c, 0, 64, 108
1, 873720, Control_c, 0, 64, 127
1, 873737, Note_off_c, 0, 44, 59
1, 873941, Note_on_c, 0, 46, 47
1, 873953, Note_on_c, 0, 37, 41
1, 873971, Control_c, 0, 64, 113
1, 873986, Control_c, 0, 64, 104
1, 874001, Control_c, 0, 64, 97
1, 874016, Control_c, 0, 64, 89
1, 874031, Control_c, 0, 64, 80
1, 874047, Control_c, 0, 64, 72
1, 874062, Control_c, 0, 64, 65
1, 874076, Control_c, 0, 64, 60
1, 874083, Note_off_c, 0, 39, 42
1, 874091, Control_c, 0, 64, 56
1, 874106, Control_c, 0, 64, 54
1, 874121, Control_c, 0, 64, 53
1, 874136, Control_c, 0, 64, 52
1, 874180, Control_c, 0, 64, 54
1, 874195, Control_c, 0, 64, 57
1, 874210, Control_c, 0, 64, 60
1, 874224, Control_c, 0, 64, 62
1, 874239, Control_c, 0, 64, 64
1, 874254, Control_c, 0, 64, 67
1, 874269, Control_c, 0, 64, 71
1, 874284, Control_c, 0, 64, 77
1, 874298, Control_c, 0, 64, 84
1, 874313, Control_c, 0, 64, 93
1, 874328, Control_c, 0, 64, 105
1, 874343, Control_c, 0, 64, 127
1, 874366, Note_off_c, 0, 46, 23
1, 874784, Note_on_c, 0, 47, 36
1, 874796, Note_on_c, 0, 36, 26
1, 874809, Control_c, 0, 64, 116
1, 874824, Control_c, 0, 64, 107
1, 874840, Control_c, 0, 64, 102
1, 874855, Control_c, 0, 64, 99
1, 874870, Control_c, 0, 64, 97
1, 874885, Control_c, 0, 64, 94
1, 874899, Control_c, 0, 64, 88
1, 874914, Control_c, 0, 64, 79
1, 874929, Control_c, 0, 64, 72
1, 874944, Control_c, 0, 64, 66
1, 874949, Note_off_c, 0, 37, 4
1, 874959, Control_c, 0, 64, 62
1, 874973, Control_c, 0, 64, 58
1, 874988, Control_c, 0, 64, 55
1, 875003, Control_c, 0, 64, 51
1, 875017, Control_c, 0, 64, 49
1, 875032, Control_c, 0, 64, 47
1, 875047, Control_c, 0, 64, 45
1, 875062, Control_c, 0, 64, 42
1, 875077, Control_c, 0, 64, 39
1, 875091, Control_c, 0, 64, 38
1, 875106, Control_c, 0, 64, 38
1, 875203, Control_c, 0, 64, 38
1, 875218, Control_c, 0, 64, 40
1, 875232, Control_c, 0, 64, 42
1, 875247, Control_c, 0, 64, 44
1, 875262, Control_c, 0, 64, 47
1, 875277, Control_c, 0, 64, 51
1, 875292, Control_c, 0, 64, 54
1, 875306, Control_c, 0, 64, 57
1, 875321, Control_c, 0, 64, 59
1, 875336, Control_c, 0, 64, 60
1, 875351, Control_c, 0, 64, 62
1, 875366, Control_c, 0, 64, 63
1, 875381, Control_c, 0, 64, 65
1, 875395, Control_c, 0, 64, 66
1, 875410, Control_c, 0, 64, 68
1, 875425, Control_c, 0, 64, 70
1, 875440, Control_c, 0, 64, 72
1, 875455, Control_c, 0, 64, 75
1, 875470, Control_c, 0, 64, 78
1, 875485, Control_c, 0, 64, 81
1, 875499, Control_c, 0, 64, 85
1, 875514, Control_c, 0, 64, 89
1, 875529, Control_c, 0, 64, 95
1, 875544, Control_c, 0, 64, 102
1, 875559, Control_c, 0, 64, 119
1, 875573, Control_c, 0, 64, 127
1, 877612, Note_on_c, 0, 60, 24
1, 877628, Note_on_c, 0, 48, 22
1, 877672, Control_c, 0, 64, 119
1, 877687, Control_c, 0, 64, 110
1, 877701, Control_c, 0, 64, 103
1, 877716, Control_c, 0, 64, 98
1, 877731, Control_c, 0, 64, 92
1, 877746, Control_c, 0, 64, 86
1, 877761, Control_c, 0, 64, 81
1, 877775, Control_c, 0, 64, 76
1, 877790, Control_c, 0, 64, 71
1, 877805, Control_c, 0, 64, 66
1, 877819, Control_c, 0, 64, 62
1, 877834, Control_c, 0, 64, 58
1, 877849, Control_c, 0, 64, 55
1, 877861, Note_off_c, 0, 47, 41
1, 877864, Control_c, 0, 64, 54
1, 877879, Control_c, 0, 64, 54
1, 877881, Note_off_c, 0, 64, 45
1, 877893, Control_c, 0, 64, 53
1, 877908, Control_c, 0, 64, 52
1, 877923, Control_c, 0, 64, 51
1, 877938, Control_c, 0, 64, 50
1, 877953, Control_c, 0, 64, 50
1, 877968, Control_c, 0, 64, 49
1, 877983, Control_c, 0, 64, 49
1, 878027, Control_c, 0, 64, 48
1, 878162, Control_c, 0, 64, 48
1, 878317, Control_c, 0, 64, 47
1, 878495, Control_c, 0, 64, 48
1, 878510, Control_c, 0, 64, 48
1, 878524, Control_c, 0, 64, 49
1, 878539, Control_c, 0, 64, 50
1, 878554, Control_c, 0, 64, 51
1, 878569, Control_c, 0, 64, 51
1, 878584, Control_c, 0, 64, 52
1, 878598, Control_c, 0, 64, 53
1, 878613, Control_c, 0, 64, 54
1, 878628, Control_c, 0, 64, 56
1, 878642, Control_c, 0, 64, 57
1, 878657, Control_c, 0, 64, 58
1, 878672, Control_c, 0, 64, 59
1, 878687, Control_c, 0, 64, 60
1, 878702, Control_c, 0, 64, 61
1, 878716, Control_c, 0, 64, 62
1, 878731, Control_c, 0, 64, 62
1, 878746, Control_c, 0, 64, 63
1, 878761, Control_c, 0, 64, 63
1, 878776, Control_c, 0, 64, 64
1, 878791, Control_c, 0, 64, 65
1, 878806, Control_c, 0, 64, 65
1, 878820, Control_c, 0, 64, 66
1, 878836, Control_c, 0, 64, 66
1, 878851, Control_c, 0, 64, 67
1, 878865, Control_c, 0, 64, 68
1, 878880, Control_c, 0, 64, 69
1, 878895, Control_c, 0, 64, 70
1, 878910, Control_c, 0, 64, 70
1, 878925, Control_c, 0, 64, 71
1, 878947, Control_c, 0, 64, 72
1, 878962, Control_c, 0, 64, 72
1, 879095, Control_c, 0, 64, 72
1, 879125, Control_c, 0, 64, 71
1, 879154, Control_c, 0, 64, 71
1, 879184, Control_c, 0, 64, 70
1, 879199, Control_c, 0, 64, 70
1, 879244, Control_c, 0, 64, 69
1, 879273, Control_c, 0, 64, 68
1, 879288, Control_c, 0, 64, 68
1, 879333, Control_c, 0, 64, 67
1, 879347, Control_c, 0, 64, 67
1, 879362, Control_c, 0, 64, 66
1, 879407, Control_c, 0, 64, 66
1, 879421, Control_c, 0, 64, 65
1, 879436, Control_c, 0, 64, 65
1, 879510, Control_c, 0, 64, 64
1, 879569, Control_c, 0, 64, 64
1, 879598, Control_c, 0, 64, 63
1, 879740, Control_c, 0, 64, 63
1, 879829, Control_c, 0, 64, 62
1, 879888, Control_c, 0, 64, 62
1, 879992, Control_c, 0, 64, 61
1, 880066, Control_c, 0, 64, 61
1, 880318, Control_c, 0, 64, 60
1, 880421, Control_c, 0, 64, 60
1, 880519, Control_c, 0, 64, 59
1, 880638, Control_c, 0, 64, 59
1, 880741, Control_c, 0, 64, 58
1, 881067, Control_c, 0, 64, 58
1, 881594, Control_c, 0, 64, 57
1, 881831, Control_c, 0, 64, 57
1, 882165, Control_c, 0, 64, 56
1, 882283, Control_c, 0, 64, 56
1, 882400, Note_off_c, 0, 36, 7
1, 882402, Control_c, 0, 64, 55
1, 882476, Control_c, 0, 64, 55
1, 882514, Note_off_c, 0, 48, 32
1, 882520, Control_c, 0, 64, 54
1, 882563, Note_off_c, 0, 55, 26
1, 882576, Note_off_c, 0, 60, 29
1, 882616, Note_off_c, 0, 67, 30
1, 882624, Control_c, 0, 64, 54
1, 882705, Control_c, 0, 64, 53
1, 882735, Control_c, 0, 64, 53
1, 882779, Control_c, 0, 64, 52
1, 882840, Control_c, 0, 64, 52
1, 883018, Control_c, 0, 64, 51
1, 884077, Control_c, 0, 64, 51
1, 884322, Control_c, 0, 64, 50
1, 884336, Control_c, 0, 64, 47
1, 884351, Control_c, 0, 64, 40
1, 884366, Control_c, 0, 64, 20
1, 884381, Control_c, 0, 64, 0
1, 884658, Note_on_c, 0, 45, 50
1, 884663, Note_on_c, 0, 33, 45
1, 884664, Note_on_c, 0, 57, 56
1, 884685, Note_off_c, 0, 45, 56
1, 884698, Note_off_c, 0, 33, 50
1, 884728, Note_off_c, 0, 57, 47
1, 884732, Note_on_c, 0, 60, 55
1, 884777, Note_off_c, 0, 60, 59
1, 884792, Note_on_c, 0, 64, 50
1, 884835, Note_off_c, 0, 64, 61
1, 884838, Note_on_c, 0, 63, 50
1, 884879, Note_off_c, 0, 63, 63
1, 884899, Note_on_c, 0, 59, 52
1, 884931, Note_off_c, 0, 59, 61
1, 885057, Note_on_c, 0, 60, 70
1, 885110, Note_off_c, 0, 60, 64
1, 885111, Note_on_c, 0, 59, 73
1, 885152, Note_off_c, 0, 59, 63
1, 885153, Note_on_c, 0, 45, 63
1, 885158, Note_on_c, 0, 33, 60
1, 885164, Note_on_c, 0, 57, 77
1, 885186, Note_off_c, 0, 45, 65
1, 885191, Note_off_c, 0, 33, 63
1, 885220, Note_off_c, 0, 57, 61
1, 885229, Note_on_c, 0, 60, 70
1, 885269, Note_off_c, 0, 60, 60
1, 885280, Note_on_c, 0, 64, 61
1, 885328, Note_on_c, 0, 63, 57
1, 885329, Note_off_c, 0, 64, 56
1, 885379, Note_off_c, 0, 63, 60
1, 885400, Note_on_c, 0, 59, 64
1, 885428, Note_off_c, 0, 59, 67
1, 885556, Note_on_c, 0, 60, 56
1, 885593, Note_off_c, 0, 60, 65
1, 885620, Note_on_c, 0, 59, 60
1, 885656, Note_off_c, 0, 59, 64
1, 885661, Note_on_c, 0, 45, 46
1, 885667, Note_on_c, 0, 33, 46
1, 885683, Note_on_c, 0, 57, 55
1, 885698, Note_off_c, 0, 45, 55
1, 885709, Note_off_c, 0, 33, 51
1, 885732, Note_off_c, 0, 57, 55
1, 885747, Note_on_c, 0, 60, 49
1, 885780, Note_off_c, 0, 60, 57
1, 885787, Note_on_c, 0, 64, 49
1, 885829, Note_off_c, 0, 64, 62
1, 885854, Note_on_c, 0, 63, 48
1, 885895, Note_off_c, 0, 63, 64
1, 885910, Note_on_c, 0, 59, 56
1, 885940, Note_off_c, 0, 59, 66
1, 886049, Note_on_c, 0, 60, 49
1, 886092, Note_off_c, 0, 60, 63
1, 886107, Note_on_c, 0, 59, 58
1, 886142, Note_on_c, 0, 33, 57
1, 886142, Note_on_c, 0, 45, 44
1, 886152, Note_off_c, 0, 59, 64
1, 886161, Note_on_c, 0, 57, 59
1, 886234, Note_off_c, 0, 45, 52
1, 886395, Note_on_c, 0, 35, 60
1, 886419, Note_off_c, 0, 33, 58
1, 886492, Note_off_c, 0, 35, 59
1, 886496, Note_on_c, 0, 36, 47
1, 886520, Note_on_c, 0, 55, 58
1, 886539, Note_off_c, 0, 57, 64
1, 886560, Note_on_c, 0, 38, 54
1, 886565, Note_off_c, 0, 36, 62
1, 886568, Note_on_c, 0, 53, 60
1, 886574, Note_off_c, 0, 55, 61
1, 886610, Note_off_c, 0, 38, 63
1, 886614, Note_off_c, 0, 53, 64
1, 886623, Note_on_c, 0, 40, 58
1, 886624, Note_on_c, 0, 52, 67
1, 886653, Note_off_c, 0, 52, 67
1, 886654, Note_off_c, 0, 40, 63
1, 886749, Note_on_c, 0, 52, 55
1, 886777, Note_off_c, 0, 52, 66
1, 886870, Note_on_c, 0, 53, 85
1, 887012, Note_on_c, 0, 54, 55
1, 887034, Note_on_c, 0, 38, 44
1, 887041, Note_off_c, 0, 53, 56
1, 887057, Note_on_c, 0, 58, 57
1, 887066, Note_off_c, 0, 54, 59
1, 887110, Note_off_c, 0, 38, 55
1, 887122, Note_on_c, 0, 40, 57
1, 887125, Note_off_c, 0, 58, 58
1, 887125, Note_on_c, 0, 52, 64
1, 887152, Note_off_c, 0, 40, 64
1, 887156, Note_off_c, 0, 52, 65
1, 887257, Note_on_c, 0, 52, 56
1, 887291, Note_off_c, 0, 52, 65
1, 887381, Note_on_c, 0, 53, 57
1, 887489, Note_off_c, 0, 53, 56
1, 887507, Note_on_c, 0, 54, 52
1, 887508, Note_on_c, 0, 38, 34
1, 887553, Note_off_c, 0, 54, 60
1, 887566, Note_on_c, 0, 58, 47
1, 887611, Note_off_c, 0, 38, 47
1, 887623, Note_on_c, 0, 51, 61
1, 887623, Note_off_c, 0, 58, 59
1, 887634, Note_on_c, 0, 39, 55
1, 887650, Note_off_c, 0, 51, 66
1, 887666, Note_off_c, 0, 39, 64
1, 887686, Note_on_c, 0, 53, 65
1, 887721, Note_off_c, 0, 53, 58
1, 887745, Note_on_c, 0, 55, 68
1, 887785, Note_off_c, 0, 55, 63
1, 887793, Note_on_c, 0, 56, 68
1, 887829, Note_off_c, 0, 56, 67
1, 887834, Note_on_c, 0, 58, 67
1, 887859, Note_off_c, 0, 58, 67
1, 887888, Note_on_c, 0, 60, 80
1, 887951, Note_off_c, 0, 60, 61
1, 887958, Note_on_c, 0, 62, 70
1, 887981, Note_on_c, 0, 63, 66
1, 888016, Note_off_c, 0, 63, 66
1, 888026, Note_on_c, 0, 65, 75
1, 888026, Note_off_c, 0, 62, 61
1, 888097, Note_on_c, 0, 66, 75
1, 888104, Note_on_c, 0, 38, 53
1, 888104, Note_on_c, 0, 62, 62
1, 888110, Note_off_c, 0, 65, 60
1, 888111, Note_on_c, 0, 57, 45
1, 888169, Control_c, 0, 64, 31
1, 888183, Control_c, 0, 64, 51
1, 888196, Note_off_c, 0, 57, 55
1, 888198, Control_c, 0, 64, 61
1, 888213, Control_c, 0, 64, 70
1, 888216, Note_off_c, 0, 66, 63
1, 888228, Control_c, 0, 64, 81
1, 888243, Control_c, 0, 64, 100
1, 888258, Control_c, 0, 64, 127
1, 888332, Control_c, 0, 64, 108
1, 888347, Control_c, 0, 64, 94
1, 888350, Note_off_c, 0, 38, 55
1, 888362, Control_c, 0, 64, 82
1, 888362, Note_on_c, 0, 68, 65
1, 888371, Note_on_c, 0, 59, 49
1, 888375, Note_on_c, 0, 64, 44
1, 888376, Control_c, 0, 64, 72
1, 888380, Note_on_c, 0, 35, 42
1, 888391, Control_c, 0, 64, 65
1, 888406, Control_c, 0, 64, 54
1, 888410, Note_off_c, 0, 62, 49
1, 888422, Control_c, 0, 64, 43
1, 888437, Control_c, 0, 64, 39
1, 888452, Control_c, 0, 64, 38
1, 888467, Control_c, 0, 64, 35
1, 888481, Note_off_c, 0, 59, 55
1, 888481, Control_c, 0, 64, 32
1, 888496, Control_c, 0, 64, 29
1, 888511, Control_c, 0, 64, 27
1, 888525, Control_c, 0, 64, 25
1, 888540, Control_c, 0, 64, 24
1, 888544, Note_off_c, 0, 35, 41
1, 888555, Control_c, 0, 64, 23
1, 888570, Control_c, 0, 64, 22
1, 888572, Note_on_c, 0, 33, 37
1, 888585, Control_c, 0, 64, 22
1, 888599, Control_c, 0, 64, 21
1, 888606, Note_off_c, 0, 64, 61
1, 888609, Note_on_c, 0, 69, 67
1, 888609, Note_off_c, 0, 68, 52
1, 888613, Note_on_c, 0, 60, 57
1, 888614, Control_c, 0, 64, 20
1, 888628, Note_off_c, 0, 33, 59
1, 888629, Control_c, 0, 64, 19
1, 888644, Control_c, 0, 64, 19
1, 888648, Note_off_c, 0, 60, 65
1, 888648, Note_off_c, 0, 69, 63
1, 888654, Note_on_c, 0, 36, 53
1, 888659, Control_c, 0, 64, 18
1, 888681, Control_c, 0, 64, 17
1, 888696, Control_c, 0, 64, 16
1, 888720, Note_off_c, 0, 36, 62
1, 888729, Note_on_c, 0, 40, 55
1, 888764, Note_on_c, 0, 39, 69
1, 888765, Note_off_c, 0, 40, 61
1, 888829, Note_off_c, 0, 39, 62
1, 888835, Note_on_c, 0, 35, 69
1, 888859, Control_c, 0, 64, 15
1, 888899, Note_off_c, 0, 35, 61
1, 889001, Note_on_c, 0, 36, 49
1, 889034, Note_off_c, 0, 36, 59
1, 889045, Note_on_c, 0, 35, 43
1, 889081, Note_on_c, 0, 57, 59
1, 889097, Note_off_c, 0, 35, 59
1, 889102, Note_on_c, 0, 33, 58
1, 889134, Note_off_c, 0, 33, 62
1, 889140, Note_on_c, 0, 60, 63
1, 889145, Note_off_c, 0, 57, 51
1, 889170, Control_c, 0, 64, 14
1, 889187, Note_off_c, 0, 60, 64
1, 889197, Note_on_c, 0, 64, 68
1, 889245, Note_on_c, 0, 63, 70
1, 889283, Note_off_c, 0, 64, 60
1, 889309, Note_on_c, 0, 59, 82
1, 889315, Note_off_c, 0, 63, 63
1, 889324, Note_on_c, 0, 48, 54
1, 889325, Note_on_c, 0, 45, 49
1, 889333, Note_on_c, 0, 40, 46
1, 889366, Note_off_c, 0, 48, 62
1, 889373, Note_off_c, 0, 45, 61
1, 889403, Note_off_c, 0, 40, 63
1, 889408, Control_c, 0, 64, 13
1, 889427, Note_off_c, 0, 59, 62
1, 889430, Control_c, 0, 64, 12
1, 889444, Control_c, 0, 64, 11
1, 889462, Note_on_c, 0, 60, 57
1, 889501, Note_off_c, 0, 60, 66
1, 889513, Note_on_c, 0, 59, 73
1, 889548, Note_off_c, 0, 59, 67
1, 889562, Note_on_c, 0, 33, 46
1, 889578, Note_on_c, 0, 57, 52
1, 889602, Note_off_c, 0, 57, 61
1, 889619, Note_off_c, 0, 33, 61
1, 889632, Note_on_c, 0, 36, 56
1, 889688, Note_off_c, 0, 36, 61
1, 889696, Note_on_c, 0, 40, 51
1, 889735, Note_off_c, 0, 40, 61
1, 889744, Note_on_c, 0, 39, 58
1, 889793, Note_off_c, 0, 39, 61
1, 889799, Note_on_c, 0, 69, 73
1, 889802, Note_on_c, 0, 64, 49
1, 889803, Note_on_c, 0, 35, 51
1, 889805, Note_on_c, 0, 60, 61
1, 889822, Note_off_c, 0, 69, 69
1, 889826, Note_off_c, 0, 64, 61
1, 889832, Note_off_c, 0, 60, 64
1, 889834, Note_off_c, 0, 35, 59
1, 889844, Control_c, 0, 64, 9
1, 889940, Note_on_c, 0, 36, 64
1, 889975, Note_on_c, 0, 35, 52
1, 889975, Note_off_c, 0, 36, 62
1, 890036, Note_on_c, 0, 33, 68
1, 890044, Note_off_c, 0, 35, 57
1, 890152, Note_on_c, 0, 57, 78
1, 890297, Note_on_c, 0, 35, 52
1, 890301, Note_off_c, 0, 33, 59
1, 890342, Note_off_c, 0, 35, 57
1, 890346, Note_on_c, 0, 36, 49
1, 890372, Note_on_c, 0, 55, 55
1, 890383, Note_off_c, 0, 57, 59
1, 890407, Note_off_c, 0, 36, 61
1, 890423, Note_on_c, 0, 38, 42
1, 890428, Note_off_c, 0, 55, 59
1, 890431, Note_on_c, 0, 53, 50
1, 890470, Note_off_c, 0, 38, 61
1, 890472, Note_off_c, 0, 53, 64
1, 890485, Note_on_c, 0, 52, 61
1, 890490, Note_on_c, 0, 40, 55
1, 890518, Note_off_c, 0, 52, 65
1, 890523, Note_off_c, 0, 40, 64
1, 890616, Note_on_c, 0, 52, 50
1, 890647, Note_off_c, 0, 52, 63
1, 890724, Note_on_c, 0, 58, 69
1, 890742, Note_on_c, 0, 53, 61
1, 890817, Note_off_c, 0, 58, 63
1, 890866, Note_on_c, 0, 54, 41
1, 890884, Note_off_c, 0, 53, 57
1, 890930, Note_on_c, 0, 58, 53
1, 890931, Note_off_c, 0, 54, 59
1, 890977, Note_off_c, 0, 58, 60
1, 890980, Note_on_c, 0, 40, 76
1, 890983, Note_on_c, 0, 52, 72
1, 891010, Note_off_c, 0, 40, 64
1, 891012, Note_off_c, 0, 52, 66
1, 891098, Note_on_c, 0, 52, 53
1, 891141, Note_off_c, 0, 52, 61
1, 891221, Note_on_c, 0, 59, 76
1, 891226, Note_on_c, 0, 53, 76
1, 891287, Note_off_c, 0, 59, 62
1, 891337, Note_on_c, 0, 54, 57
1, 891347, Note_off_c, 0, 53, 57
1, 891403, Note_on_c, 0, 58, 61
1, 891404, Note_off_c, 0, 54, 63
1, 891457, Note_on_c, 0, 52, 86
1, 891462, Note_off_c, 0, 58, 62
1, 891468, Note_on_c, 0, 40, 78
1, 891483, Note_off_c, 0, 52, 70
1, 891493, Note_off_c, 0, 40, 63
1, 891534, Control_c, 0, 64, 0
1, 891588, Note_on_c, 0, 47, 70
1, 891620, Note_off_c, 0, 47, 62
1, 891713, Note_on_c, 0, 53, 95
1, 891715, Note_on_c, 0, 60, 87
1, 891805, Note_off_c, 0, 60, 62
1, 891856, Note_on_c, 0, 54, 64
1, 891877, Note_off_c, 0, 53, 58
1, 891898, Note_on_c, 0, 58, 68
1, 891916, Note_off_c, 0, 54, 61
1, 891963, Note_on_c, 0, 40, 93
1, 891966, Note_on_c, 0, 47, 93
1, 891988, Note_off_c, 0, 40, 67
1, 892000, Note_off_c, 0, 58, 62
1, 892008, Note_off_c, 0, 47, 64
1, 892100, Note_on_c, 0, 52, 77
1, 892130, Note_off_c, 0, 52, 67
1, 892205, Note_on_c, 0, 61, 93
1, 892207, Note_on_c, 0, 53, 88
1, 892282, Note_off_c, 0, 61, 61
1, 892342, Note_on_c, 0, 54, 61
1, 892343, Note_off_c, 0, 53, 58
1, 892387, Note_on_c, 0, 58, 63
1, 892428, Note_off_c, 0, 54, 63
1, 892460, Note_on_c, 0, 40, 87
1, 892473, Note_on_c, 0, 52, 62
1, 892484, Note_off_c, 0, 58, 62
1, 892521, Note_off_c, 0, 40, 63
1, 892528, Note_off_c, 0, 52, 60
1, 892539, Note_on_c, 0, 54, 66
1, 892603, Note_on_c, 0, 55, 48
1, 892611, Note_off_c, 0, 54, 62
1, 892634, Note_on_c, 0, 59, 58
1, 892654, Note_off_c, 0, 55, 58
1, 892719, Note_off_c, 0, 59, 56
1, 892720, Note_on_c, 0, 61, 63
1, 892723, Note_on_c, 0, 53, 50
1, 892774, Note_off_c, 0, 53, 57
1, 892783, Note_on_c, 0, 55, 41
1, 892798, Note_off_c, 0, 61, 57
1, 892838, Note_on_c, 0, 56, 48
1, 892845, Note_off_c, 0, 55, 59
1, 892895, Note_on_c, 0, 60, 48
1, 892908, Note_off_c, 0, 56, 60
1, 892958, Note_on_c, 0, 62, 70
1, 892959, Note_off_c, 0, 60, 57
1, 892975, Note_on_c, 0, 54, 57
1, 893035, Note_on_c, 0, 56, 54
1, 893043, Note_off_c, 0, 62, 60
1, 893050, Note_off_c, 0, 54, 56
1, 893099, Note_off_c, 0, 56, 55
1, 893100, Note_on_c, 0, 57, 55
1, 893135, Note_on_c, 0, 61, 65
1, 893144, Note_off_c, 0, 57, 64
1, 893195, Note_on_c, 0, 63, 85
1, 893212, Note_on_c, 0, 55, 68
1, 893229, Note_off_c, 0, 61, 61
1, 893271, Note_on_c, 0, 57, 71
1, 893284, Note_off_c, 0, 55, 59
1, 893307, Note_off_c, 0, 63, 63
1, 893322, Note_on_c, 0, 58, 74
1, 893346, Note_off_c, 0, 57, 64
1, 893379, Note_on_c, 0, 62, 72
1, 893403, Note_off_c, 0, 58, 64
1, 893435, Note_on_c, 0, 64, 94
1, 893448, Note_on_c, 0, 56, 78
1, 893463, Note_off_c, 0, 62, 63
1, 893505, Note_on_c, 0, 58, 78
1, 893539, Note_off_c, 0, 56, 59
1, 893551, Note_off_c, 0, 64, 60
1, 893555, Note_on_c, 0, 59, 74
1, 893587, Note_off_c, 0, 58, 60
1, 893612, Note_on_c, 0, 63, 75
1, 893639, Note_off_c, 0, 59, 64
1, 893680, Note_on_c, 0, 65, 88
1, 893680, Note_on_c, 0, 57, 80
1, 893692, Note_off_c, 0, 63, 64
1, 893743, Note_on_c, 0, 59, 79
1, 893755, Note_off_c, 0, 57, 62
1, 893794, Note_off_c, 0, 65, 61
1, 893795, Note_on_c, 0, 60, 79
1, 893822, Note_off_c, 0, 59, 63
1, 893855, Note_on_c, 0, 64, 70
1, 893868, Note_off_c, 0, 60, 65
1, 893934, Note_on_c, 0, 66, 80
1, 893957, Note_off_c, 0, 64, 61
1, 893970, Note_on_c, 0, 58, 29
1, 894001, Note_on_c, 0, 60, 62
1, 894008, Note_off_c, 0, 58, 44
1, 894013, Note_off_c, 0, 66, 54
1, 894069, Note_on_c, 0, 61, 52
1, 894074, Note_off_c, 0, 60, 61
1, 894101, Note_off_c, 0, 61, 49
1, 894123, Note_on_c, 0, 65, 58
1, 894181, Note_off_c, 0, 65, 56
1, 894189, Note_on_c, 0, 67, 57
1, 894200, Note_on_c, 0, 59, 42
1, 894220, Note_off_c, 0, 67, 65
1, 894235, Note_on_c, 0, 61, 49
1, 894238, Note_off_c, 0, 59, 52
1, 894298, Note_off_c, 0, 61, 58
1, 894300, Note_on_c, 0, 62, 51
1, 894338, Note_off_c, 0, 62, 65
1, 894357, Note_on_c, 0, 67, 44
1, 894381, Note_off_c, 0, 67, 58
1, 894426, Note_on_c, 0, 68, 74
1, 894434, Note_on_c, 0, 32, 38
1, 894434, Note_on_c, 0, 39, 39
1, 894476, Note_off_c, 0, 32, 53
1, 894480, Note_off_c, 0, 39, 32
1, 894487, Note_off_c, 0, 68, 58
1, 894492, Note_on_c, 0, 71, 62
1, 894531, Note_on_c, 0, 75, 47
1, 894555, Note_off_c, 0, 71, 59
1, 894590, Note_off_c, 0, 75, 59
1, 894591, Note_on_c, 0, 74, 52
1, 894633, Note_off_c, 0, 74, 63
1, 894676, Note_on_c, 0, 70, 53
1, 894696, Note_off_c, 0, 70, 61
1, 894794, Note_on_c, 0, 71, 75
1, 894852, Note_off_c, 0, 71, 63
1, 894858, Note_on_c, 0, 70, 72
1, 894900, Note_on_c, 0, 39, 68
1, 894913, Note_off_c, 0, 70, 65
1, 894914, Note_on_c, 0, 68, 78
1, 894916, Note_on_c, 0, 32, 43
1, 894931, Note_off_c, 0, 39, 63
1, 894953, Note_off_c, 0, 32, 51
1, 894968, Note_on_c, 0, 71, 64
1, 894974, Note_off_c, 0, 68, 58
1, 895025, Note_on_c, 0, 75, 66
1, 895039, Note_off_c, 0, 71, 59
1, 895077, Note_on_c, 0, 74, 57
1, 895088, Note_off_c, 0, 75, 57
1, 895120, Note_off_c, 0, 74, 60
1, 895134, Note_on_c, 0, 70, 64
1, 895161, Note_off_c, 0, 70, 67
1, 895283, Note_on_c, 0, 71, 58
1, 895323, Note_off_c, 0, 71, 61
1, 895350, Note_on_c, 0, 70, 54
1, 895379, Note_on_c, 0, 39, 47
1, 895388, Note_on_c, 0, 32, 45
1, 895388, Note_off_c, 0, 70, 63
1, 895395, Note_on_c, 0, 68, 57
1, 895420, Note_off_c, 0, 39, 57
1, 895430, Note_off_c, 0, 32, 55
1, 895445, Note_off_c, 0, 68, 61
1, 895455, Note_on_c, 0, 71, 57
1, 895512, Note_off_c, 0, 71, 57
1, 895525, Note_on_c, 0, 75, 58
1, 895577, Note_off_c, 0, 75, 53
1, 895580, Note_on_c, 0, 74, 50
1, 895624, Note_off_c, 0, 74, 64
1, 895640, Note_on_c, 0, 70, 62
1, 895669, Note_off_c, 0, 70, 67
1, 895781, Note_on_c, 0, 71, 55
1, 895820, Note_off_c, 0, 71, 63
1, 895838, Note_on_c, 0, 70, 56
1, 895885, Note_on_c, 0, 32, 47
1, 895892, Note_on_c, 0, 68, 63
1, 895919, Note_off_c, 0, 70, 57
1, 896143, Note_on_c, 0, 34, 59
1, 896241, Note_on_c, 0, 35, 36
1, 896272, Note_off_c, 0, 32, 41
1, 896276, Note_on_c, 0, 66, 62
1, 896277, Note_off_c, 0, 34, 59
1, 896302, Note_on_c, 0, 37, 61
1, 896302, Note_off_c, 0, 68, 62
1, 896310, Note_off_c, 0, 66, 65
1, 896327, Note_on_c, 0, 64, 59
1, 896327, Note_off_c, 0, 35, 56
1, 896363, Note_off_c, 0, 37, 63
1, 896363, Note_off_c, 0, 64, 63
1, 896366, Note_on_c, 0, 39, 52
1, 896375, Note_on_c, 0, 63, 84
1, 896397, Note_off_c, 0, 39, 57
1, 896397, Note_off_c, 0, 63, 70
1, 896491, Note_on_c, 0, 63, 78
1, 896514, Note_off_c, 0, 63, 70
1, 896550, Poly_aftertouch_c, 0, 39, 127
1, 896622, Note_on_c, 0, 52, 84
1, 896622, Poly_aftertouch_c, 0, 39, 0
1, 896625, Note_on_c, 0, 36, 66
1, 896625, Note_on_c, 0, 76, 114
1, 896637, Note_on_c, 0, 43, 71
1, 896643, Control_c, 0, 64, 45
1, 896658, Control_c, 0, 64, 85
1, 896673, Control_c, 0, 64, 127
1, 896702, Note_on_c, 0, 72, 93
1, 896728, Note_off_c, 0, 76, 61
1, 896752, Note_on_c, 0, 67, 80
1, 896770, Note_off_c, 0, 72, 67
1, 896797, Note_off_c, 0, 36, 57
1, 896803, Note_off_c, 0, 67, 64
1, 896809, Note_on_c, 0, 64, 73
1, 896826, Note_off_c, 0, 52, 56
1, 896834, Note_off_c, 0, 64, 69
1, 896864, Control_c, 0, 64, 78
1, 896876, Note_off_c, 0, 43, 61
1, 896879, Control_c, 0, 64, 40
1, 896886, Note_on_c, 0, 39, 53
1, 896888, Note_on_c, 0, 63, 62
1, 896894, Control_c, 0, 64, 0
1, 896901, Note_on_c, 0, 62, 57
1, 896917, Note_off_c, 0, 63, 41
1, 896929, Note_off_c, 0, 39, 63
1, 896930, Note_off_c, 0, 62, 63
1, 897010, Note_on_c, 0, 63, 74
1, 897053, Note_off_c, 0, 63, 63
1, 897136, Note_on_c, 0, 52, 82
1, 897139, Note_on_c, 0, 36, 79
1, 897143, Note_on_c, 0, 43, 84
1, 897143, Note_on_c, 0, 76, 113
1, 897153, Control_c, 0, 64, 50
1, 897168, Control_c, 0, 64, 127
1, 897218, Note_on_c, 0, 72, 91
1, 897240, Note_off_c, 0, 76, 64
1, 897273, Note_on_c, 0, 67, 86
1, 897295, Note_off_c, 0, 72, 66
1, 897309, Note_off_c, 0, 36, 54
1, 897320, Note_off_c, 0, 67, 65
1, 897332, Note_off_c, 0, 52, 57
1, 897335, Note_on_c, 0, 64, 75
1, 897362, Note_off_c, 0, 64, 68
1, 897377, Control_c, 0, 64, 120
1, 897391, Control_c, 0, 64, 71
1, 897396, Note_off_c, 0, 43, 51
1, 897397, Note_on_c, 0, 63, 92
1, 897406, Control_c, 0, 64, 0
1, 897407, Note_on_c, 0, 39, 54
1, 897422, Note_off_c, 0, 63, 65
1, 897439, Note_off_c, 0, 39, 65
1, 897516, Note_on_c, 0, 63, 90
1, 897549, Note_off_c, 0, 63, 64
1, 897639, Note_on_c, 0, 52, 85
1, 897640, Note_on_c, 0, 36, 76
1, 897645, Note_on_c, 0, 43, 74
1, 897646, Note_on_c, 0, 76, 108
1, 897680, Control_c, 0, 64, 74
1, 897695, Control_c, 0, 64, 127
1, 897723, Note_on_c, 0, 72, 87
1, 897752, Note_off_c, 0, 76, 61
1, 897764, Note_off_c, 0, 36, 61
1, 897785, Note_on_c, 0, 67, 75
1, 897810, Note_off_c, 0, 72, 62
1, 897840, Note_on_c, 0, 64, 77
1, 897845, Note_off_c, 0, 67, 64
1, 897849, Note_off_c, 0, 43, 50
1, 897863, Note_off_c, 0, 52, 59
1, 897889, Note_off_c, 0, 64, 62
1, 897914, Note_on_c, 0, 76, 79
1, 897927, Note_on_c, 0, 74, 66
1, 897959, Note_off_c, 0, 74, 46
1, 897979, Note_on_c, 0, 72, 77
1, 897988, Note_off_c, 0, 76, 54
1, 898044, Note_off_c, 0, 72, 63
1, 898047, Note_on_c, 0, 67, 69
1, 898079, Note_off_c, 0, 67, 61
1, 898104, Note_on_c, 0, 64, 59
1, 898134, Note_off_c, 0, 64, 67
1, 898161, Note_on_c, 0, 76, 81
1, 898213, Note_off_c, 0, 76, 59
1, 898219, Note_on_c, 0, 72, 66
1, 898266, Note_on_c, 0, 67, 64
1, 898269, Note_off_c, 0, 72, 61
1, 898298, Note_off_c, 0, 67, 66
1, 898319, Note_on_c, 0, 64, 54
1, 898349, Note_off_c, 0, 64, 65
1, 898414, Control_c, 0, 64, 75
1, 898415, Note_on_c, 0, 79, 95
1, 898425, Note_on_c, 0, 72, 68
1, 898429, Control_c, 0, 64, 44
1, 898438, Note_off_c, 0, 79, 69
1, 898444, Control_c, 0, 64, 0
1, 898485, Note_off_c, 0, 72, 53
1, 898490, Note_on_c, 0, 67, 53
1, 898536, Note_on_c, 0, 81, 82
1, 898537, Note_on_c, 0, 79, 78
1, 898557, Note_off_c, 0, 81, 72
1, 898557, Note_off_c, 0, 67, 60
1, 898558, Note_off_c, 0, 79, 71
1, 898565, Note_on_c, 0, 64, 56
1, 898655, Note_on_c, 0, 91, 104
1, 898670, Note_on_c, 0, 75, 56
1, 898673, Note_off_c, 0, 64, 60
1, 898695, Control_c, 0, 64, 58
1, 898709, Note_off_c, 0, 75, 64
1, 898710, Control_c, 0, 64, 125
1, 898722, Note_on_c, 0, 71, 62
1, 898725, Control_c, 0, 64, 127
1, 898799, Note_on_c, 0, 64, 66
1, 898826, Note_off_c, 0, 71, 63
1, 898828, Note_off_c, 0, 64, 66
1, 898841, Note_on_c, 0, 88, 84
1, 898895, Note_off_c, 0, 91, 52
1, 898907, Note_on_c, 0, 79, 68
1, 898912, Note_on_c, 0, 84, 95
1, 898947, Note_off_c, 0, 88, 66
1, 898954, Note_off_c, 0, 79, 62
1, 898959, Note_off_c, 0, 84, 67
1, 898974, Note_on_c, 0, 76, 67
1, 899004, Note_off_c, 0, 76, 67
1, 899046, Note_on_c, 0, 83, 93
1, 899074, Note_on_c, 0, 64, 66
1, 899096, Control_c, 0, 64, 102
1, 899111, Control_c, 0, 64, 82
1, 899124, Note_off_c, 0, 64, 51
1, 899126, Control_c, 0, 64, 70
1, 899141, Control_c, 0, 64, 61
1, 899160, Note_on_c, 0, 76, 57
1, 899162, Control_c, 0, 64, 38
1, 899165, Note_off_c, 0, 83, 63
1, 899168, Note_on_c, 0, 81, 91
1, 899177, Control_c, 0, 64, 0
1, 899200, Note_off_c, 0, 81, 66
1, 899201, Note_off_c, 0, 76, 66
1, 899229, Note_on_c, 0, 72, 66
1, 899290, Note_on_c, 0, 79, 83
1, 899297, Note_off_c, 0, 72, 64
1, 899314, Note_off_c, 0, 79, 69
1, 899333, Note_on_c, 0, 64, 55
1, 899413, Note_on_c, 0, 81, 92
1, 899426, Note_off_c, 0, 64, 49
1, 899437, Note_on_c, 0, 71, 57
1, 899508, Note_off_c, 0, 71, 61
1, 899515, Note_on_c, 0, 67, 57
1, 899526, Note_off_c, 0, 81, 65
1, 899539, Note_on_c, 0, 79, 89
1, 899569, Note_off_c, 0, 79, 67
1, 899582, Note_off_c, 0, 67, 63
1, 899590, Note_on_c, 0, 64, 62
1, 899643, Note_off_c, 0, 64, 55
1, 899657, Note_on_c, 0, 83, 98
1, 899678, Note_on_c, 0, 74, 64
1, 899728, Note_on_c, 0, 71, 67
1, 899749, Note_off_c, 0, 74, 59
1, 899776, Note_on_c, 0, 86, 99
1, 899785, Note_off_c, 0, 83, 66
1, 899811, Note_off_c, 0, 86, 67
1, 899818, Note_off_c, 0, 71, 63
1, 899833, Note_on_c, 0, 64, 64
1, 899890, Note_off_c, 0, 64, 56
1, 899922, Note_on_c, 0, 89, 99
1, 899930, Note_on_c, 0, 76, 61
1, 899986, Control_c, 0, 64, 38
1, 899991, Note_on_c, 0, 72, 59
1, 900001, Control_c, 0, 64, 58
1, 900016, Control_c, 0, 64, 64
1, 900018, Note_off_c, 0, 76, 57
1, 900031, Control_c, 0, 64, 70
1, 900045, Control_c, 0, 64, 94
1, 900047, Note_on_c, 0, 88, 81
1, 900060, Control_c, 0, 64, 127
1, 900065, Note_on_c, 0, 64, 63
1, 900086, Note_off_c, 0, 89, 61
1, 900088, Note_off_c, 0, 72, 61
1, 900100, Note_on_c, 0, 86, 83
1, 900101, Note_off_c, 0, 64, 63
1, 900137, Note_off_c, 0, 88, 66
1, 900170, Note_on_c, 0, 84, 88
1, 900176, Note_on_c, 0, 79, 63
1, 900177, Note_off_c, 0, 86, 64
1, 900229, Note_off_c, 0, 79, 62
1, 900248, Note_on_c, 0, 76, 62
1, 900261, Note_off_c, 0, 84, 58
1, 900298, Note_off_c, 0, 76, 62
1, 900315, Note_on_c, 0, 72, 54
1, 900337, Note_off_c, 0, 72, 63
1, 900432, Note_on_c, 0, 81, 63
1, 900438, Note_on_c, 0, 71, 63
1, 900447, Control_c, 0, 64, 107
1, 900461, Control_c, 0, 64, 97
1, 900476, Control_c, 0, 64, 90
1, 900491, Control_c, 0, 64, 85
1, 900506, Control_c, 0, 64, 81
1, 900520, Control_c, 0, 64, 77
1, 900532, Note_off_c, 0, 71, 57
1, 900534, Control_c, 0, 64, 73
1, 900536, Note_on_c, 0, 67, 54
1, 900549, Control_c, 0, 64, 70
1, 900564, Control_c, 0, 64, 68
1, 900569, Note_on_c, 0, 79, 80
1, 900579, Control_c, 0, 64, 66
1, 900594, Control_c, 0, 64, 64
1, 900605, Note_on_c, 0, 64, 56
1, 900608, Control_c, 0, 64, 63
1, 900623, Control_c, 0, 64, 61
1, 900635, Note_off_c, 0, 67, 53
1, 900638, Control_c, 0, 64, 60
1, 900660, Control_c, 0, 64, 60
1, 900675, Control_c, 0, 64, 59
1, 900690, Control_c, 0, 64, 57
1, 900702, Note_on_c, 0, 74, 82
1, 900705, Control_c, 0, 64, 55
1, 900707, Note_on_c, 0, 71, 62
1, 900720, Control_c, 0, 64, 53
1, 900733, Note_off_c, 0, 64, 57
1, 900734, Control_c, 0, 64, 50
1, 900749, Control_c, 0, 64, 48
1, 900764, Control_c, 0, 64, 46
1, 900766, Note_off_c, 0, 79, 61
1, 900778, Control_c, 0, 64, 44
1, 900781, Note_on_c, 0, 67, 55
1, 900793, Control_c, 0, 64, 44
1, 900796, Note_off_c, 0, 81, 36
1, 900802, Note_off_c, 0, 71, 57
1, 900808, Control_c, 0, 64, 43
1, 900823, Control_c, 0, 64, 43
1, 900825, Note_on_c, 0, 72, 79
1, 900847, Note_off_c, 0, 74, 63
1, 900852, Control_c, 0, 64, 42
1, 900855, Note_on_c, 0, 64, 57
1, 900881, Note_off_c, 0, 67, 50
1, 900912, Control_c, 0, 64, 42
1, 900954, Note_on_c, 0, 74, 77
1, 900973, Note_off_c, 0, 72, 60
1, 900981, Note_on_c, 0, 71, 57
1, 900984, Note_off_c, 0, 64, 55
1, 901044, Note_off_c, 0, 71, 60
1, 901052, Note_on_c, 0, 67, 51
1, 901129, Note_on_c, 0, 64, 52
1, 901145, Note_off_c, 0, 67, 52
1, 901213, Note_on_c, 0, 79, 66
1, 901219, Note_off_c, 0, 64, 42
1, 901223, Note_on_c, 0, 71, 50
1, 901247, Note_off_c, 0, 74, 57
1, 901293, Note_on_c, 0, 67, 55
1, 901294, Note_off_c, 0, 71, 59
1, 901342, Note_off_c, 0, 79, 61
1, 901351, Note_on_c, 0, 81, 66
1, 901383, Note_on_c, 0, 64, 41
1, 901394, Note_off_c, 0, 67, 54
1, 901481, Note_on_c, 0, 79, 65
1, 901484, Note_on_c, 0, 72, 45
1, 901486, Note_off_c, 0, 64, 57
1, 901495, Note_off_c, 0, 81, 53
1, 901534, Note_off_c, 0, 72, 62
1, 901537, Note_on_c, 0, 67, 47
1, 901572, Control_c, 0, 64, 42
1, 901637, Note_on_c, 0, 64, 41
1, 901640, Note_off_c, 0, 67, 57
1, 901678, Note_off_c, 0, 64, 60
1, 901748, Note_off_c, 0, 79, 57
1, 901757, Note_on_c, 0, 67, 66
1, 901893, Note_on_c, 0, 77, 61
1, 901898, Control_c, 0, 64, 43
1, 901907, Note_on_c, 0, 65, 43
1, 901913, Control_c, 0, 64, 44
1, 901928, Control_c, 0, 64, 45
1, 901943, Control_c, 0, 64, 46
1, 901957, Control_c, 0, 64, 47
1, 901972, Control_c, 0, 64, 49
1, 901987, Control_c, 0, 64, 51
1, 902003, Control_c, 0, 64, 54
1, 902018, Control_c, 0, 64, 57
1, 902028, Note_on_c, 0, 76, 74
1, 902032, Control_c, 0, 64, 60
1, 902039, Note_on_c, 0, 64, 52
1, 902047, Control_c, 0, 64, 62
1, 902056, Note_off_c, 0, 65, 52
1, 902062, Control_c, 0, 64, 65
1, 902077, Control_c, 0, 64, 71
1, 902092, Control_c, 0, 64, 86
1, 902106, Control_c, 0, 64, 127
1, 902160, Note_on_c, 0, 74, 80
1, 902180, Note_off_c, 0, 77, 55
1, 902183, Note_on_c, 0, 62, 57
1, 902197, Note_off_c, 0, 67, 63
1, 902199, Note_off_c, 0, 64, 58
1, 902222, Note_off_c, 0, 76, 57
1, 902266, Note_off_c, 0, 62, 61
1, 902280, Note_on_c, 0, 60, 40
1, 902280, Note_on_c, 0, 72, 85
1, 902301, Note_off_c, 0, 74, 62
1, 902307, Note_off_c, 0, 60, 54
1, 902376, Note_off_c, 0, 72, 60
1, 902400, Note_on_c, 0, 51, 59
1, 902404, Note_on_c, 0, 63, 80
1, 902424, Control_c, 0, 64, 115
1, 902439, Control_c, 0, 64, 101
1, 902454, Control_c, 0, 64, 92
1, 902469, Control_c, 0, 64, 84
1, 902484, Control_c, 0, 64, 77
1, 902498, Control_c, 0, 64, 71
1, 902513, Control_c, 0, 64, 66
1, 902528, Control_c, 0, 64, 60
1, 902543, Control_c, 0, 64, 55
1, 902544, Note_on_c, 0, 68, 70
1, 902546, Note_on_c, 0, 56, 51
1, 902551, Note_off_c, 0, 51, 54
1, 902558, Control_c, 0, 64, 51
1, 902572, Control_c, 0, 64, 48
1, 902587, Control_c, 0, 64, 45
1, 902590, Note_off_c, 0, 63, 55
1, 902602, Control_c, 0, 64, 43
1, 902617, Control_c, 0, 64, 40
1, 902632, Control_c, 0, 64, 39
1, 902647, Control_c, 0, 64, 37
1, 902662, Control_c, 0, 64, 36
1, 902677, Control_c, 0, 64, 36
1, 902692, Control_c, 0, 64, 35
1, 902795, Control_c, 0, 64, 36
1, 902811, Control_c, 0, 64, 38
1, 902814, Note_on_c, 0, 59, 42
1, 902814, Note_off_c, 0, 56, 57
1, 902817, Note_on_c, 0, 71, 61
1, 902823, Note_off_c, 0, 68, 57
1, 902826, Control_c, 0, 64, 42
1, 902841, Control_c, 0, 64, 49
1, 902855, Control_c, 0, 64, 55
1, 902870, Control_c, 0, 64, 60
1, 902885, Control_c, 0, 64, 63
1, 902907, Control_c, 0, 64, 66
1, 902922, Control_c, 0, 64, 72
1, 902928, Note_off_c, 0, 59, 54
1, 902936, Control_c, 0, 64, 85
1, 902951, Control_c, 0, 64, 103
1, 902955, Note_off_c, 0, 71, 57
1, 902966, Control_c, 0, 64, 127
1, 903040, Control_c, 0, 64, 122
1, 903055, Control_c, 0, 64, 117
1, 903070, Control_c, 0, 64, 114
1, 903085, Control_c, 0, 64, 110
1, 903100, Control_c, 0, 64, 104
1, 903105, Note_on_c, 0, 67, 71
1, 903108, Note_on_c, 0, 55, 44
1, 903115, Control_c, 0, 64, 97
1, 903129, Control_c, 0, 64, 92
1, 903144, Control_c, 0, 64, 88
1, 903159, Control_c, 0, 64, 85
1, 903174, Control_c, 0, 64, 82
1, 903189, Control_c, 0, 64, 78
1, 903203, Control_c, 0, 64, 73
1, 903218, Control_c, 0, 64, 68
1, 903233, Control_c, 0, 64, 65
1, 903248, Control_c, 0, 64, 62
1, 903262, Control_c, 0, 64, 59
1, 903277, Control_c, 0, 64, 57
1, 903292, Control_c, 0, 64, 55
1, 903307, Control_c, 0, 64, 54
1, 903321, Control_c, 0, 64, 53
1, 903336, Control_c, 0, 64, 52
1, 903372, Note_on_c, 0, 53, 42
1, 903386, Note_on_c, 0, 65, 51
1, 903455, Control_c, 0, 64, 52
1, 903470, Control_c, 0, 64, 53
1, 903484, Control_c, 0, 64, 53
1, 903499, Control_c, 0, 64, 55
1, 903509, Note_on_c, 0, 64, 73
1, 903514, Note_on_c, 0, 52, 52
1, 903515, Control_c, 0, 64, 57
1, 903529, Control_c, 0, 64, 59
1, 903544, Control_c, 0, 64, 61
1, 903550, Note_off_c, 0, 53, 52
1, 903553, Note_off_c, 0, 67, 57
1, 903559, Control_c, 0, 64, 64
1, 903574, Control_c, 0, 64, 66
1, 903589, Control_c, 0, 64, 71
1, 903605, Control_c, 0, 64, 81
1, 903619, Control_c, 0, 64, 107
1, 903625, Note_off_c, 0, 65, 59
1, 903626, Note_on_c, 0, 62, 88
1, 903634, Control_c, 0, 64, 127
1, 903661, Note_on_c, 0, 50, 63
1, 903672, Note_off_c, 0, 64, 63
1, 903692, Note_off_c, 0, 52, 63
1, 903720, Note_off_c, 0, 55, 59
1, 903741, Note_on_c, 0, 60, 94
1, 903756, Note_on_c, 0, 48, 67
1, 903764, Note_off_c, 0, 62, 62
1, 903773, Note_off_c, 0, 50, 63
1, 903792, Note_off_c, 0, 48, 64
1, 903812, Note_off_c, 0, 60, 65
1, 903863, Note_on_c, 0, 58, 99
1, 903863, Note_on_c, 0, 46, 82
1, 903891, Note_off_c, 0, 46, 67
1, 903967, Control_c, 0, 64, 96
1, 903970, Note_on_c, 0, 37, 78
1, 903974, Note_on_c, 0, 49, 94
1, 903982, Control_c, 0, 64, 75
1, 903997, Control_c, 0, 64, 61
1, 904012, Control_c, 0, 64, 26
1, 904027, Control_c, 0, 64, 0
1, 904110, Note_on_c, 0, 42, 78
1, 904110, Note_on_c, 0, 54, 90
1, 904155, Note_off_c, 0, 37, 59
1, 904176, Note_off_c, 0, 49, 56
1, 904186, Note_off_c, 0, 58, 59
1, 904364, Note_on_c, 0, 57, 89
1, 904365, Note_on_c, 0, 45, 73
1, 904379, Note_off_c, 0, 42, 63
1, 904380, Note_off_c, 0, 54, 64
1, 904406, Control_c, 0, 64, 51
1, 904420, Control_c, 0, 64, 65
1, 904435, Control_c, 0, 64, 71
1, 904450, Control_c, 0, 64, 86
1, 904465, Control_c, 0, 64, 127
1, 904541, Note_off_c, 0, 45, 59
1, 904657, Control_c, 0, 64, 125
1, 904660, Note_on_c, 0, 36, 60
1, 904661, Note_on_c, 0, 45, 66
1, 904661, Note_on_c, 0, 48, 75
1, 904667, Note_on_c, 0, 29, 62
1, 904672, Control_c, 0, 64, 90
1, 904687, Control_c, 0, 64, 74
1, 904701, Control_c, 0, 64, 59
1, 904716, Control_c, 0, 64, 15
1, 904731, Control_c, 0, 64, 0
1, 904790, Control_c, 0, 64, 55
1, 904800, Note_off_c, 0, 45, 63
1, 904805, Control_c, 0, 64, 72
1, 904820, Control_c, 0, 64, 127
1, 904830, Note_off_c, 0, 29, 61
1, 904839, Note_off_c, 0, 48, 64
1, 904859, Note_off_c, 0, 36, 64
1, 904863, Note_off_c, 0, 57, 64
1, 905196, Note_on_c, 0, 83, 79
1, 905198, Control_c, 0, 64, 102
1, 905198, Note_on_c, 0, 74, 59
1, 905201, Note_on_c, 0, 67, 53
1, 905206, Note_on_c, 0, 55, 47
1, 905207, Note_on_c, 0, 71, 62
1, 905208, Note_on_c, 0, 79, 62
1, 905213, Control_c, 0, 64, 82
1, 905222, Note_on_c, 0, 62, 43
1, 905228, Control_c, 0, 64, 68
1, 905243, Control_c, 0, 64, 54
1, 905257, Control_c, 0, 64, 0
1, 905376, Control_c, 0, 64, 46
1, 905386, Note_off_c, 0, 83, 62
1, 905391, Control_c, 0, 64, 71
1, 905394, Note_off_c, 0, 67, 63
1, 905405, Control_c, 0, 64, 127
1, 905414, Note_off_c, 0, 79, 62
1, 905419, Note_off_c, 0, 55, 44
1, 905430, Note_off_c, 0, 71, 56
1, 905446, Note_off_c, 0, 74, 59
1, 905447, Note_off_c, 0, 62, 61
1, 905702, Control_c, 0, 64, 108
1, 905717, Control_c, 0, 64, 97
1, 905717, Note_on_c, 0, 57, 77
1, 905731, Control_c, 0, 64, 91
1, 905737, Note_on_c, 0, 45, 55
1, 905746, Control_c, 0, 64, 86
1, 905760, Control_c, 0, 64, 83
1, 905775, Control_c, 0, 64, 79
1, 905790, Control_c, 0, 64, 76
1, 905804, Control_c, 0, 64, 71
1, 905819, Control_c, 0, 64, 68
1, 905834, Control_c, 0, 64, 65
1, 905848, Control_c, 0, 64, 64
1, 905863, Control_c, 0, 64, 63
1, 905878, Control_c, 0, 64, 61
1, 905901, Control_c, 0, 64, 59
1, 905916, Control_c, 0, 64, 54
1, 905930, Control_c, 0, 64, 51
1, 905945, Control_c, 0, 64, 50
1, 905960, Control_c, 0, 64, 48
1, 905975, Control_c, 0, 64, 47
1, 905990, Control_c, 0, 64, 45
1, 906000, Note_on_c, 0, 38, 39
1, 906003, Note_on_c, 0, 47, 46
1, 906006, Control_c, 0, 64, 43
1, 906009, Note_on_c, 0, 35, 33
1, 906020, Control_c, 0, 64, 42
1, 906028, Note_off_c, 0, 45, 53
1, 906035, Control_c, 0, 64, 41
1, 906050, Control_c, 0, 64, 41
1, 906065, Control_c, 0, 64, 40
1, 906094, Control_c, 0, 64, 40
1, 906109, Control_c, 0, 64, 39
1, 906139, Control_c, 0, 64, 39
1, 906183, Control_c, 0, 64, 38
1, 906271, Note_off_c, 0, 35, 38
1, 906278, Note_on_c, 0, 52, 42
1, 906278, Note_off_c, 0, 47, 37
1, 906289, Note_on_c, 0, 40, 28
1, 906289, Note_on_c, 0, 48, 42
1, 906298, Note_on_c, 0, 36, 27
1, 906361, Note_off_c, 0, 38, 39
1, 906391, Control_c, 0, 64, 38
1, 906395, Note_off_c, 0, 57, 38
1, 906420, Control_c, 0, 64, 37
1, 906450, Control_c, 0, 64, 37
1, 906464, Control_c, 0, 64, 36
1, 906479, Control_c, 0, 64, 35
1, 906494, Control_c, 0, 64, 34
1, 906509, Control_c, 0, 64, 33
1, 906524, Control_c, 0, 64, 33
1, 906531, Note_off_c, 0, 36, 54
1, 906539, Control_c, 0, 64, 32
1, 906553, Note_off_c, 0, 48, 56
1, 906553, Control_c, 0, 64, 32
1, 906564, Note_off_c, 0, 40, 52
1, 906568, Control_c, 0, 64, 31
1, 906583, Control_c, 0, 64, 30
1, 906589, Note_off_c, 0, 52, 65
1, 906597, Control_c, 0, 64, 30
1, 906744, Note_on_c, 0, 47, 92
1, 906768, Control_c, 0, 64, 29
1, 906818, Note_on_c, 0, 48, 73
1, 906896, Note_on_c, 0, 52, 71
1, 906927, Note_off_c, 0, 48, 62
1, 906932, Control_c, 0, 64, 30
1, 906947, Control_c, 0, 64, 31
1, 906958, Note_off_c, 0, 52, 65
1, 906961, Note_on_c, 0, 55, 78
1, 906962, Control_c, 0, 64, 39
1, 906976, Control_c, 0, 64, 50
1, 906991, Control_c, 0, 64, 59
1, 907006, Control_c, 0, 64, 65
1, 907021, Control_c, 0, 64, 73
1, 907025, Note_on_c, 0, 52, 74
1, 907036, Control_c, 0, 64, 93
1, 907050, Control_c, 0, 64, 127
1, 907060, Note_off_c, 0, 55, 61
1, 907079, Note_on_c, 0, 63, 92
1, 907082, Note_on_c, 0, 59, 92
1, 907110, Note_on_c, 0, 48, 64
1, 907123, Note_off_c, 0, 47, 52
1, 907127, Note_off_c, 0, 63, 61
1, 907139, Note_off_c, 0, 59, 65
1, 907213, Control_c, 0, 64, 112
1, 907215, Note_off_c, 0, 48, 63
1, 907221, Note_on_c, 0, 42, 82
1, 907228, Note_off_c, 0, 52, 62
1, 907228, Control_c, 0, 64, 71
1, 907231, Note_on_c, 0, 47, 68
1, 907243, Control_c, 0, 64, 0
1, 907250, Note_off_c, 0, 42, 64
1, 907282, Note_off_c, 0, 47, 53
1, 907329, Note_on_c, 0, 48, 48
1, 907408, Note_off_c, 0, 48, 56
1, 907410, Note_on_c, 0, 52, 53
1, 907458, Note_off_c, 0, 52, 65
1, 907482, Note_on_c, 0, 42, 78
1, 907486, Note_on_c, 0, 55, 56
1, 907515, Note_off_c, 0, 42, 64
1, 907538, Note_off_c, 0, 55, 56
1, 907566, Note_on_c, 0, 52, 62
1, 907644, Note_off_c, 0, 52, 65
1, 907649, Note_on_c, 0, 48, 68
1, 907724, Note_on_c, 0, 42, 105
1, 907729, Note_off_c, 0, 48, 64
1, 907735, Note_on_c, 0, 47, 72
1, 907747, Note_off_c, 0, 42, 71
1, 907814, Note_on_c, 0, 48, 72
1, 907836, Note_off_c, 0, 47, 55
1, 907894, Note_on_c, 0, 52, 68
1, 907913, Note_off_c, 0, 48, 60
1, 907952, Note_on_c, 0, 47, 26
1, 907961, Note_off_c, 0, 52, 65
1, 907973, Note_on_c, 0, 42, 105
1, 907974, Note_on_c, 0, 55, 72
1, 907993, Note_off_c, 0, 42, 72
1, 908042, Note_off_c, 0, 55, 60
1, 908057, Note_on_c, 0, 52, 76
1, 908064, Note_off_c, 0, 47, 51
1, 908127, Note_on_c, 0, 48, 63
1, 908129, Note_off_c, 0, 52, 63
1, 908239, Note_on_c, 0, 67, 102
1, 908240, Note_on_c, 0, 47, 67
1, 908244, Note_off_c, 0, 48, 63
1, 908343, Note_on_c, 0, 48, 65
1, 908400, Control_c, 0, 64, 33
1, 908415, Note_on_c, 0, 52, 67
1, 908415, Control_c, 0, 64, 55
1, 908430, Control_c, 0, 64, 65
1, 908442, Note_off_c, 0, 48, 59
1, 908445, Control_c, 0, 64, 79
1, 908460, Control_c, 0, 64, 127
1, 908483, Note_off_c, 0, 52, 65
1, 908492, Note_on_c, 0, 55, 78
1, 908564, Note_on_c, 0, 52, 73
1, 908577, Note_off_c, 0, 55, 59
1, 908599, Note_on_c, 0, 60, 82
1, 908604, Note_on_c, 0, 64, 74
1, 908607, Note_off_c, 0, 47, 51
1, 908608, Note_on_c, 0, 65, 67
1, 908619, Note_off_c, 0, 67, 57
1, 908647, Note_on_c, 0, 48, 67
1, 908702, Note_off_c, 0, 65, 55
1, 908707, Note_off_c, 0, 64, 61
1, 908711, Control_c, 0, 64, 107
1, 908726, Control_c, 0, 64, 83
1, 908740, Control_c, 0, 64, 68
1, 908745, Note_on_c, 0, 51, 104
1, 908745, Note_off_c, 0, 60, 56
1, 908746, Note_off_c, 0, 48, 63
1, 908749, Note_on_c, 0, 47, 62
1, 908755, Control_c, 0, 64, 52
1, 908770, Control_c, 0, 64, 0
1, 908775, Note_off_c, 0, 52, 49
1, 908851, Note_on_c, 0, 48, 60
1, 908896, Control_c, 0, 64, 46
1, 908910, Note_on_c, 0, 52, 50
1, 908911, Control_c, 0, 64, 60
1, 908926, Control_c, 0, 64, 66
1, 908940, Control_c, 0, 64, 76
1, 908955, Control_c, 0, 64, 101
1, 908960, Note_off_c, 0, 48, 55
1, 908968, Note_off_c, 0, 51, 54
1, 908970, Control_c, 0, 64, 127
1, 908985, Note_off_c, 0, 52, 62
1, 908988, Note_on_c, 0, 55, 61
1, 908999, Note_on_c, 0, 59, 77
1, 909002, Note_on_c, 0, 63, 82
1, 909060, Note_on_c, 0, 52, 61
1, 909071, Note_off_c, 0, 55, 60
1, 909089, Note_off_c, 0, 59, 58
1, 909116, Note_off_c, 0, 63, 59
1, 909118, Note_on_c, 0, 54, 91
1, 909127, Note_off_c, 0, 47, 57
1, 909139, Note_on_c, 0, 48, 60
1, 909158, Note_off_c, 0, 54, 66
1, 909223, Control_c, 0, 64, 83
1, 909236, Note_off_c, 0, 48, 63
1, 909238, Control_c, 0, 64, 53
1, 909242, Note_on_c, 0, 42, 96
1, 909246, Note_on_c, 0, 47, 66
1, 909253, Control_c, 0, 64, 0
1, 909261, Note_off_c, 0, 52, 61
1, 909267, Note_off_c, 0, 42, 69
1, 909327, Note_off_c, 0, 47, 58
1, 909339, Note_on_c, 0, 48, 55
1, 909399, Note_on_c, 0, 52, 51
1, 909422, Note_off_c, 0, 48, 48
1, 909461, Note_off_c, 0, 52, 61
1, 909494, Note_on_c, 0, 55, 47
1, 909497, Note_on_c, 0, 41, 76
1, 909523, Note_off_c, 0, 41, 66
1, 909553, Note_off_c, 0, 55, 61
1, 909582, Note_on_c, 0, 52, 52
1, 909645, Note_off_c, 0, 52, 57
1, 909667, Note_on_c, 0, 48, 44
1, 909730, Note_off_c, 0, 48, 62
1, 909744, Note_on_c, 0, 41, 74
1, 909757, Note_on_c, 0, 47, 49
1, 909770, Note_off_c, 0, 41, 66
1, 909820, Note_off_c, 0, 47, 54
1, 909840, Note_on_c, 0, 48, 53
1, 909910, Note_off_c, 0, 48, 54
1, 909925, Note_on_c, 0, 52, 49
1, 909973, Note_off_c, 0, 52, 62
1, 909997, Note_on_c, 0, 42, 68
1, 910007, Note_on_c, 0, 55, 52
1, 910030, Note_off_c, 0, 42, 64
1, 910035, Poly_aftertouch_c, 0, 47, 127
1, 910059, Note_off_c, 0, 55, 59
1, 910073, Note_on_c, 0, 52, 57
1, 910084, Poly_aftertouch_c, 0, 47, 0
1, 910136, Note_off_c, 0, 52, 58
1, 910160, Note_on_c, 0, 48, 41
1, 910224, Note_off_c, 0, 48, 60
1, 910241, Note_on_c, 0, 67, 84
1, 910249, Note_on_c, 0, 47, 50
1, 910327, Control_c, 0, 64, 21
1, 910342, Control_c, 0, 64, 54
1, 910349, Note_on_c, 0, 48, 52
1, 910357, Control_c, 0, 64, 66
1, 910372, Control_c, 0, 64, 85
1, 910394, Control_c, 0, 64, 127
1, 910419, Note_on_c, 0, 52, 57
1, 910421, Note_off_c, 0, 47, 0
1, 910435, Note_off_c, 0, 48, 58
1, 910457, Poly_aftertouch_c, 0, 47, 127
1, 910475, Note_off_c, 0, 52, 60
1, 910502, Note_on_c, 0, 55, 52
1, 910548, Note_off_c, 0, 55, 60
1, 910564, Note_on_c, 0, 52, 46
1, 910580, Poly_aftertouch_c, 0, 47, 0
1, 910592, Note_off_c, 0, 67, 57
1, 910605, Note_off_c, 0, 52, 62
1, 910606, Note_on_c, 0, 60, 47
1, 910608, Note_on_c, 0, 64, 51
1, 910611, Note_on_c, 0, 48, 42
1, 910705, Control_c, 0, 64, 102
1, 910709, Note_off_c, 0, 60, 59
1, 910713, Note_off_c, 0, 48, 62
1, 910719, Control_c, 0, 64, 71
1, 910726, Note_on_c, 0, 46, 64
1, 910726, Note_off_c, 0, 64, 62
1, 910734, Control_c, 0, 64, 28
1, 910747, Note_on_c, 0, 55, 57
1, 910749, Note_off_c, 0, 46, 62
1, 910749, Control_c, 0, 64, 0
1, 910782, Note_off_c, 0, 55, 63
1, 910832, Note_on_c, 0, 64, 57
1, 910871, Note_off_c, 0, 64, 65
1, 910900, Note_on_c, 0, 60, 57
1, 910915, Note_on_c, 0, 67, 67
1, 910931, Note_off_c, 0, 60, 65
1, 910956, Note_on_c, 0, 58, 96
1, 910967, Note_on_c, 0, 57, 74
1, 910972, Note_off_c, 0, 58, 74
1, 910976, Note_off_c, 0, 67, 60
1, 910996, Note_off_c, 0, 57, 68
1, 911032, Note_on_c, 0, 64, 54
1, 911048, Note_on_c, 0, 65, 41
1, 911068, Note_off_c, 0, 64, 65
1, 911075, Note_off_c, 0, 65, 51
1, 911078, Note_on_c, 0, 60, 66
1, 911104, Note_off_c, 0, 60, 67
1, 911119, Note_on_c, 0, 71, 73
1, 911158, Note_on_c, 0, 69, 24
1, 911173, Note_on_c, 0, 60, 85
1, 911187, Note_on_c, 0, 70, 100
1, 911190, Note_off_c, 0, 71, 41
1, 911199, Note_off_c, 0, 69, 29
1, 911204, Note_off_c, 0, 70, 70
1, 911220, Note_off_c, 0, 60, 66
1, 911242, Note_on_c, 0, 67, 76
1, 911294, Note_off_c, 0, 67, 64
1, 911306, Note_on_c, 0, 64, 59
1, 911337, Note_off_c, 0, 64, 66
1, 911348, Note_on_c, 0, 72, 73
1, 911391, Note_off_c, 0, 72, 56
1, 911417, Note_on_c, 0, 64, 73
1, 911426, Note_on_c, 0, 58, 63
1, 911447, Note_off_c, 0, 58, 62
1, 911449, Note_off_c, 0, 64, 67
1, 911496, Note_on_c, 0, 72, 59
1, 911527, Note_off_c, 0, 72, 66
1, 911535, Note_on_c, 0, 67, 65
1, 911566, Note_off_c, 0, 67, 63
1, 911597, Note_on_c, 0, 76, 61
1, 911635, Note_off_c, 0, 76, 60
1, 911658, Note_on_c, 0, 67, 73
1, 911677, Note_on_c, 0, 46, 48
1, 911691, Control_c, 0, 64, 61
1, 911699, Note_off_c, 0, 67, 60
1, 911706, Control_c, 0, 64, 70
1, 911721, Control_c, 0, 64, 82
1, 911736, Control_c, 0, 64, 115
1, 911737, Note_on_c, 0, 76, 62
1, 911751, Control_c, 0, 64, 127
1, 911800, Note_on_c, 0, 72, 61
1, 911802, Note_off_c, 0, 76, 61
1, 911821, Note_on_c, 0, 52, 61
1, 911834, Note_on_c, 0, 79, 79
1, 911837, Note_off_c, 0, 72, 63
1, 911839, Note_off_c, 0, 46, 55
1, 911869, Note_off_c, 0, 79, 59
1, 911870, Control_c, 0, 64, 102
1, 911876, Note_off_c, 0, 52, 64
1, 911891, Control_c, 0, 64, 75
1, 911894, Note_on_c, 0, 61, 76
1, 911905, Note_on_c, 0, 76, 91
1, 911906, Control_c, 0, 64, 57
1, 911917, Note_off_c, 0, 61, 70
1, 911921, Control_c, 0, 64, 0
1, 911962, Note_on_c, 0, 78, 90
1, 911974, Note_off_c, 0, 76, 53
1, 912018, Note_on_c, 0, 79, 82
1, 912043, Note_off_c, 0, 78, 64
1, 912064, Note_on_c, 0, 81, 77
1, 912084, Note_off_c, 0, 79, 66
1, 912096, Note_off_c, 0, 81, 67
1, 912120, Note_on_c, 0, 52, 98
1, 912128, Note_on_c, 0, 83, 95
1, 912144, Control_c, 0, 64, 89
1, 912159, Control_c, 0, 64, 127
1, 912189, Note_on_c, 0, 58, 87
1, 912190, Note_off_c, 0, 52, 65
1, 912193, Note_on_c, 0, 84, 91
1, 912198, Note_off_c, 0, 83, 54
1, 912233, Control_c, 0, 64, 85
1, 912239, Note_on_c, 0, 86, 80
1, 912244, Note_on_c, 0, 66, 80
1, 912247, Control_c, 0, 64, 64
1, 912253, Note_off_c, 0, 58, 63
1, 912262, Control_c, 0, 64, 0
1, 912267, Note_off_c, 0, 84, 66
1, 912280, Note_on_c, 0, 88, 82
1, 912290, Note_off_c, 0, 66, 63
1, 912295, Note_off_c, 0, 86, 63
1, 912314, Note_off_c, 0, 88, 68
1, 912341, Note_on_c, 0, 55, 103
1, 912349, Note_on_c, 0, 90, 100
1, 912380, Control_c, 0, 64, 50
1, 912396, Control_c, 0, 64, 80
1, 912408, Note_off_c, 0, 90, 64
1, 912409, Note_on_c, 0, 61, 84
1, 912411, Control_c, 0, 64, 114
1, 912417, Note_on_c, 0, 91, 93
1, 912420, Note_off_c, 0, 55, 59
1, 912426, Control_c, 0, 64, 127
1, 912441, Control_c, 0, 64, 94
1, 912453, Note_on_c, 0, 71, 87
1, 912456, Note_off_c, 0, 61, 63
1, 912456, Control_c, 0, 64, 74
1, 912470, Control_c, 0, 64, 63
1, 912471, Note_on_c, 0, 93, 92
1, 912475, Note_off_c, 0, 71, 67
1, 912483, Poly_aftertouch_c, 0, 57, 0
1, 912485, Control_c, 0, 64, 55
1, 912492, Note_off_c, 0, 91, 61
1, 912500, Control_c, 0, 64, 38
1, 912514, Control_c, 0, 64, 0
1, 912526, Note_on_c, 0, 95, 93
1, 912551, Note_off_c, 0, 93, 67
1, 912571, Note_on_c, 0, 75, 114
1, 912583, Note_on_c, 0, 96, 106
1, 912598, Note_off_c, 0, 95, 66
1, 912607, Note_off_c, 0, 75, 65
1, 912656, Note_on_c, 0, 95, 93
1, 912686, Note_off_c, 0, 96, 64
1, 912706, Note_on_c, 0, 93, 90
1, 912722, Note_off_c, 0, 95, 67
1, 912762, Note_on_c, 0, 91, 88
1, 912773, Note_off_c, 0, 93, 66
1, 912821, Note_on_c, 0, 84, 114
1, 912833, Note_on_c, 0, 90, 90
1, 912846, Note_off_c, 0, 84, 72
1, 912850, Note_off_c, 0, 91, 62
1, 912894, Note_on_c, 0, 88, 85
1, 912949, Note_off_c, 0, 90, 64
1, 912951, Note_on_c, 0, 86, 80
1, 912972, Note_off_c, 0, 88, 66
1, 913012, Note_on_c, 0, 84, 86
1, 913015, Note_off_c, 0, 86, 64
1, 913050, Note_on_c, 0, 63, 87
1, 913053, Note_off_c, 0, 84, 62
1, 913068, Note_on_c, 0, 83, 98
1, 913128, Note_on_c, 0, 66, 77
1, 913130, Note_on_c, 0, 81, 87
1, 913144, Note_off_c, 0, 83, 66
1, 913146, Note_off_c, 0, 63, 61
1, 913164, Note_on_c, 0, 67, 76
1, 913183, Note_on_c, 0, 79, 85
1, 913188, Note_off_c, 0, 81, 66
1, 913202, Note_off_c, 0, 66, 62
1, 913220, Note_off_c, 0, 67, 65
1, 913225, Note_on_c, 0, 69, 84
1, 913241, Note_on_c, 0, 78, 93
1, 913266, Note_off_c, 0, 79, 62
1, 913266, Note_off_c, 0, 69, 62
1, 913291, Note_on_c, 0, 70, 106
1, 913298, Note_on_c, 0, 76, 85
1, 913315, Note_off_c, 0, 70, 68
1, 913345, Note_off_c, 0, 78, 61
1, 913348, Note_on_c, 0, 74, 84
1, 913369, Note_off_c, 0, 76, 65
1, 913412, Note_off_c, 0, 74, 64
1, 913417, Note_on_c, 0, 72, 76
1, 913464, Note_on_c, 0, 71, 91
1, 913484, Note_off_c, 0, 72, 64
1, 913499, Note_off_c, 0, 71, 64
1, 913536, Note_on_c, 0, 69, 112
1, 913558, Note_off_c, 0, 69, 70
1, 913596, Note_on_c, 0, 67, 94
1, 913654, Note_off_c, 0, 67, 65
1, 913658, Note_on_c, 0, 66, 85
1, 913712, Note_on_c, 0, 64, 80
1, 913714, Note_off_c, 0, 66, 65
1, 913745, Control_c, 0, 64, 54
1, 913752, Note_off_c, 0, 64, 57
1, 913760, Control_c, 0, 64, 65
1, 913775, Control_c, 0, 64, 69
1, 913778, Note_on_c, 0, 74, 101
1, 913785, Note_on_c, 0, 71, 91
1, 913789, Note_on_c, 0, 62, 78
1, 913789, Control_c, 0, 64, 76
1, 913804, Control_c, 0, 64, 93
1, 913819, Control_c, 0, 64, 127
1, 913831, Note_on_c, 0, 59, 82
1, 913839, Note_off_c, 0, 62, 63
1, 913849, Control_c, 0, 64, 95
1, 913863, Control_c, 0, 64, 81
1, 913878, Control_c, 0, 64, 72
1, 913893, Control_c, 0, 64, 68
1, 913906, Note_on_c, 0, 55, 75
1, 913908, Control_c, 0, 64, 64
1, 913909, Note_on_c, 0, 56, 54
1, 913915, Note_off_c, 0, 59, 62
1, 913923, Control_c, 0, 64, 59
1, 913937, Control_c, 0, 64, 49
1, 913952, Control_c, 0, 64, 28
1, 913953, Note_off_c, 0, 56, 66
1, 913956, Note_on_c, 0, 54, 84
1, 913967, Note_off_c, 0, 55, 64
1, 913967, Control_c, 0, 64, 0
1, 913994, Note_off_c, 0, 54, 65
1, 914028, Note_on_c, 0, 55, 72
1, 914033, Note_on_c, 0, 73, 74
1, 914033, Note_on_c, 0, 76, 85
1, 914065, Note_off_c, 0, 71, 61
1, 914077, Note_off_c, 0, 74, 57
1, 914082, Note_off_c, 0, 55, 62
1, 914090, Note_on_c, 0, 52, 72
1, 914114, Note_off_c, 0, 73, 64
1, 914155, Note_on_c, 0, 49, 71
1, 914166, Note_off_c, 0, 52, 65
1, 914208, Note_off_c, 0, 49, 63
1, 914218, Note_on_c, 0, 46, 54
1, 914250, Note_off_c, 0, 46, 64
1, 914296, Note_on_c, 0, 75, 58
1, 914302, Note_on_c, 0, 45, 51
1, 914302, Note_on_c, 0, 78, 67
1, 914317, Note_off_c, 0, 76, 58
1, 914340, Note_off_c, 0, 45, 64
1, 914356, Note_on_c, 0, 42, 60
1, 914409, Note_off_c, 0, 42, 62
1, 914418, Note_on_c, 0, 38, 41
1, 914456, Note_off_c, 0, 75, 50
1, 914461, Note_off_c, 0, 38, 57
1, 914468, Note_on_c, 0, 37, 45
1, 914511, Note_off_c, 0, 37, 61
1, 914541, Note_on_c, 0, 36, 38
1, 914541, Note_off_c, 0, 78, 62
1, 914545, Note_on_c, 0, 79, 65
1, 914549, Note_on_c, 0, 76, 55
1, 914581, Note_off_c, 0, 76, 63
1, 914582, Control_c, 0, 64, 54
1, 914594, Note_off_c, 0, 36, 63
1, 914594, Note_off_c, 0, 79, 64
1, 914597, Control_c, 0, 64, 67
1, 914612, Control_c, 0, 64, 87
1, 914627, Control_c, 0, 64, 127
1, 914660, Note_on_c, 0, 79, 78
1, 914806, Control_c, 0, 64, 96
1, 914821, Control_c, 0, 64, 79
1, 914831, Note_on_c, 0, 91, 82
1, 914836, Control_c, 0, 64, 68
1, 914844, Note_on_c, 0, 75, 50
1, 914845, Note_off_c, 0, 79, 52
1, 914851, Control_c, 0, 64, 59
1, 914866, Control_c, 0, 64, 51
1, 914888, Control_c, 0, 64, 48
1, 914917, Control_c, 0, 64, 49
1, 914932, Control_c, 0, 64, 54
1, 914943, Note_on_c, 0, 71, 34
1, 914943, Note_off_c, 0, 75, 57
1, 914947, Control_c, 0, 64, 63
1, 914962, Control_c, 0, 64, 71
1, 914977, Control_c, 0, 64, 88
1, 914991, Control_c, 0, 64, 127
1, 914996, Note_on_c, 0, 64, 46
1, 915003, Note_on_c, 0, 88, 74
1, 915011, Note_off_c, 0, 71, 61
1, 915021, Note_off_c, 0, 64, 59
1, 915059, Note_off_c, 0, 91, 54
1, 915068, Note_on_c, 0, 84, 82
1, 915086, Note_on_c, 0, 79, 66
1, 915100, Note_off_c, 0, 88, 65
1, 915119, Note_off_c, 0, 84, 65
1, 915139, Note_off_c, 0, 79, 62
1, 915146, Note_on_c, 0, 76, 66
1, 915174, Note_off_c, 0, 76, 67
1, 915198, Note_on_c, 0, 83, 82
1, 915229, Control_c, 0, 64, 107
1, 915244, Control_c, 0, 64, 95
1, 915244, Note_on_c, 0, 64, 63
1, 915258, Control_c, 0, 64, 90
1, 915273, Control_c, 0, 64, 85
1, 915288, Control_c, 0, 64, 81
1, 915297, Note_on_c, 0, 76, 58
1, 915300, Note_off_c, 0, 64, 48
1, 915303, Control_c, 0, 64, 75
1, 915315, Note_off_c, 0, 83, 64
1, 915317, Control_c, 0, 64, 70
1, 915318, Note_on_c, 0, 81, 81
1, 915332, Control_c, 0, 64, 66
1, 915347, Control_c, 0, 64, 62
1, 915351, Note_off_c, 0, 81, 65
1, 915356, Note_off_c, 0, 76, 57
1, 915362, Control_c, 0, 64, 57
1, 915369, Note_on_c, 0, 72, 61
1, 915377, Control_c, 0, 64, 54
1, 915391, Control_c, 0, 64, 51
1, 915406, Control_c, 0, 64, 48
1, 915421, Control_c, 0, 64, 45
1, 915435, Note_off_c, 0, 72, 63
1, 915436, Control_c, 0, 64, 43
1, 915438, Note_on_c, 0, 79, 75
1, 915451, Control_c, 0, 64, 41
1, 915462, Note_on_c, 0, 64, 56
1, 915465, Note_off_c, 0, 79, 66
1, 915465, Control_c, 0, 64, 40
1, 915480, Control_c, 0, 64, 39
1, 915495, Control_c, 0, 64, 39
1, 915509, Control_c, 0, 64, 38
1, 915516, Note_off_c, 0, 64, 49
1, 915560, Note_on_c, 0, 81, 79
1, 915562, Note_on_c, 0, 71, 54
1, 915657, Note_on_c, 0, 67, 49
1, 915668, Note_off_c, 0, 71, 54
1, 915683, Note_off_c, 0, 81, 65
1, 915690, Note_on_c, 0, 79, 83
1, 915695, Control_c, 0, 64, 38
1, 915710, Control_c, 0, 64, 37
1, 915718, Note_off_c, 0, 67, 61
1, 915725, Control_c, 0, 64, 36
1, 915730, Note_on_c, 0, 64, 57
1, 915730, Note_off_c, 0, 79, 64
1, 915739, Control_c, 0, 64, 36
1, 915775, Note_off_c, 0, 64, 57
1, 915784, Control_c, 0, 64, 35
1, 915811, Note_on_c, 0, 83, 82
1, 915821, Note_on_c, 0, 74, 50
1, 915858, Control_c, 0, 64, 35
1, 915873, Control_c, 0, 64, 34
1, 915876, Note_on_c, 0, 71, 50
1, 915879, Note_off_c, 0, 74, 51
1, 915888, Control_c, 0, 64, 33
1, 915903, Control_c, 0, 64, 33
1, 915918, Control_c, 0, 64, 32
1, 915928, Note_off_c, 0, 83, 63
1, 915930, Note_on_c, 0, 86, 76
1, 915932, Control_c, 0, 64, 31
1, 915935, Note_off_c, 0, 71, 60
1, 915947, Control_c, 0, 64, 30
1, 915956, Note_off_c, 0, 86, 68
1, 915960, Note_on_c, 0, 64, 48
1, 915962, Control_c, 0, 64, 29
1, 915977, Control_c, 0, 64, 27
1, 915992, Control_c, 0, 64, 26
1, 916006, Control_c, 0, 64, 25
1, 916021, Control_c, 0, 64, 25
1, 916030, Note_off_c, 0, 64, 38
1, 916036, Control_c, 0, 64, 24
1, 916051, Control_c, 0, 64, 23
1, 916054, Note_on_c, 0, 76, 52
1, 916066, Control_c, 0, 64, 21
1, 916075, Note_on_c, 0, 89, 71
1, 916080, Control_c, 0, 64, 19
1, 916095, Control_c, 0, 64, 19
1, 916135, Note_off_c, 0, 76, 51
1, 916138, Note_on_c, 0, 72, 31
1, 916154, Control_c, 0, 64, 28
1, 916169, Control_c, 0, 64, 42
1, 916184, Control_c, 0, 64, 55
1, 916197, Note_on_c, 0, 64, 43
1, 916199, Control_c, 0, 64, 61
1, 916210, Note_on_c, 0, 88, 64
1, 916213, Control_c, 0, 64, 65
1, 916214, Note_off_c, 0, 72, 60
1, 916218, Note_off_c, 0, 89, 56
1, 916223, Note_off_c, 0, 64, 55
1, 916228, Control_c, 0, 64, 72
1, 916243, Control_c, 0, 64, 94
1, 916258, Control_c, 0, 64, 127
1, 916267, Note_on_c, 0, 86, 67
1, 916282, Note_off_c, 0, 88, 59
1, 916318, Note_on_c, 0, 79, 46
1, 916333, Note_on_c, 0, 84, 67
1, 916335, Note_off_c, 0, 86, 64
1, 916352, Note_off_c, 0, 79, 66
1, 916394, Note_on_c, 0, 76, 58
1, 916403, Note_off_c, 0, 84, 62
1, 916436, Note_off_c, 0, 76, 62
1, 916455, Note_on_c, 0, 72, 51
1, 916477, Note_off_c, 0, 72, 62
1, 916532, Control_c, 0, 64, 115
1, 916547, Control_c, 0, 64, 102
1, 916562, Control_c, 0, 64, 96
1, 916571, Note_on_c, 0, 81, 65
1, 916572, Note_on_c, 0, 71, 50
1, 916577, Control_c, 0, 64, 92
1, 916591, Control_c, 0, 64, 89
1, 916606, Control_c, 0, 64, 84
1, 916621, Control_c, 0, 64, 79
1, 916636, Control_c, 0, 64, 74
1, 916651, Control_c, 0, 64, 72
1, 916666, Control_c, 0, 64, 71
1, 916672, Note_on_c, 0, 67, 48
1, 916681, Control_c, 0, 64, 69
1, 916696, Control_c, 0, 64, 67
1, 916699, Note_off_c, 0, 71, 54
1, 916705, Note_on_c, 0, 79, 75
1, 916710, Control_c, 0, 64, 64
1, 916725, Control_c, 0, 64, 62
1, 916740, Control_c, 0, 64, 61
1, 916743, Note_on_c, 0, 64, 51
1, 916754, Control_c, 0, 64, 60
1, 916769, Control_c, 0, 64, 58
1, 916784, Control_c, 0, 64, 55
1, 916799, Control_c, 0, 64, 51
1, 916802, Note_off_c, 0, 67, 36
1, 916814, Control_c, 0, 64, 49
1, 916818, Note_on_c, 0, 74, 79
1, 916827, Note_on_c, 0, 71, 59
1, 916828, Control_c, 0, 64, 46
1, 916843, Control_c, 0, 64, 45
1, 916858, Control_c, 0, 64, 44
1, 916872, Note_off_c, 0, 64, 57
1, 916873, Control_c, 0, 64, 43
1, 916887, Control_c, 0, 64, 41
1, 916895, Note_off_c, 0, 81, 53
1, 916902, Control_c, 0, 64, 41
1, 916911, Note_off_c, 0, 79, 58
1, 916912, Note_on_c, 0, 67, 55
1, 916917, Control_c, 0, 64, 40
1, 916932, Control_c, 0, 64, 39
1, 916933, Note_off_c, 0, 71, 57
1, 916942, Note_on_c, 0, 72, 75
1, 916978, Note_off_c, 0, 74, 62
1, 916997, Note_on_c, 0, 64, 54
1, 917044, Note_off_c, 0, 67, 32
1, 917077, Note_on_c, 0, 74, 71
1, 917092, Note_on_c, 0, 71, 45
1, 917104, Note_off_c, 0, 72, 59
1, 917108, Note_off_c, 0, 64, 56
1, 917184, Note_on_c, 0, 67, 48
1, 917194, Note_off_c, 0, 71, 55
1, 917262, Note_on_c, 0, 64, 42
1, 917310, Note_off_c, 0, 67, 37
1, 917346, Note_on_c, 0, 79, 63
1, 917349, Note_on_c, 0, 71, 43
1, 917379, Note_off_c, 0, 74, 57
1, 917402, Note_off_c, 0, 64, 36
1, 917437, Note_on_c, 0, 67, 45
1, 917444, Note_off_c, 0, 71, 54
1, 917465, Note_on_c, 0, 81, 58
1, 917473, Note_off_c, 0, 79, 61
1, 917474, Control_c, 0, 64, 39
1, 917504, Note_on_c, 0, 64, 32
1, 917504, Note_off_c, 0, 67, 49
1, 917599, Note_on_c, 0, 79, 65
1, 917610, Note_on_c, 0, 72, 40
1, 917614, Note_off_c, 0, 81, 53
1, 917632, Note_off_c, 0, 64, 37
1, 917682, Note_on_c, 0, 67, 46
1, 917691, Note_off_c, 0, 72, 51
1, 917725, Note_on_c, 0, 81, 30
1, 917757, Note_off_c, 0, 81, 43
1, 917769, Control_c, 0, 64, 39
1, 917770, Note_off_c, 0, 79, 0
1, 917770, Note_on_c, 0, 79, 9
1, 917771, Note_on_c, 0, 64, 47
1, 917784, Control_c, 0, 64, 41
1, 917795, Note_off_c, 0, 67, 46
1, 917799, Control_c, 0, 64, 44
1, 917814, Control_c, 0, 64, 50
1, 917829, Control_c, 0, 64, 55
1, 917843, Control_c, 0, 64, 59
1, 917853, Note_on_c, 0, 72, 62
1, 917858, Control_c, 0, 64, 63
1, 917880, Control_c, 0, 64, 67
1, 917895, Control_c, 0, 64, 74
1, 917909, Control_c, 0, 64, 94
1, 917919, Note_off_c, 0, 64, 34
1, 917924, Control_c, 0, 64, 127
1, 917933, Note_on_c, 0, 67, 55
1, 917945, Note_off_c, 0, 72, 59
1, 917959, Note_on_c, 0, 75, 80
1, 918024, Note_off_c, 0, 75, 60
1, 918025, Note_off_c, 0, 67, 57
1, 918029, Control_c, 0, 64, 114
1, 918038, Note_on_c, 0, 64, 51
1, 918044, Control_c, 0, 64, 92
1, 918059, Control_c, 0, 64, 80
1, 918074, Control_c, 0, 64, 70
1, 918076, Note_on_c, 0, 75, 64
1, 918085, Note_off_c, 0, 64, 57
1, 918088, Control_c, 0, 64, 62
1, 918090, Note_on_c, 0, 72, 55
1, 918103, Control_c, 0, 64, 44
1, 918106, Note_off_c, 0, 75, 64
1, 918118, Control_c, 0, 64, 25
1, 918133, Control_c, 0, 64, 12
1, 918148, Control_c, 0, 64, 0
1, 918149, Note_off_c, 0, 72, 56
1, 918168, Note_on_c, 0, 67, 45
1, 918233, Note_off_c, 0, 67, 57
1, 918262, Note_on_c, 0, 64, 30
1, 918337, Note_on_c, 0, 66, 58
1, 918338, Note_off_c, 0, 64, 51
1, 918366, Note_off_c, 0, 66, 63
1, 918369, Note_on_c, 0, 72, 40
1, 918411, Note_off_c, 0, 72, 60
1, 918443, Note_on_c, 0, 67, 46
1, 918498, Note_off_c, 0, 67, 56
1, 918513, Note_on_c, 0, 64, 40
1, 918583, Note_on_c, 0, 75, 61
1, 918586, Note_off_c, 0, 64, 56
1, 918607, Note_on_c, 0, 72, 49
1, 918607, Note_off_c, 0, 75, 62
1, 918661, Note_off_c, 0, 72, 61
1, 918687, Note_on_c, 0, 67, 46
1, 918750, Note_off_c, 0, 67, 56
1, 918765, Note_on_c, 0, 64, 52
1, 918828, Note_off_c, 0, 79, 51
1, 918829, Note_on_c, 0, 66, 70
1, 918830, Note_off_c, 0, 64, 55
1, 918853, Note_on_c, 0, 72, 51
1, 918857, Note_off_c, 0, 66, 67
1, 918900, Note_off_c, 0, 72, 60
1, 918913, Note_on_c, 0, 67, 49
1, 918988, Note_off_c, 0, 67, 61
1, 918997, Note_on_c, 0, 64, 47
1, 919065, Note_off_c, 0, 64, 56
1, 919068, Note_on_c, 0, 63, 85
1, 919083, Note_on_c, 0, 72, 58
1, 919089, Note_off_c, 0, 63, 70
1, 919130, Note_off_c, 0, 72, 58
1, 919165, Note_on_c, 0, 67, 51
1, 919225, Note_off_c, 0, 67, 58
1, 919244, Note_on_c, 0, 64, 50
1, 919298, Note_off_c, 0, 64, 56
1, 919318, Note_on_c, 0, 59, 85
1, 919322, Note_on_c, 0, 72, 60
1, 919339, Note_off_c, 0, 59, 71
1, 919368, Note_off_c, 0, 72, 57
1, 919417, Note_on_c, 0, 67, 54
1, 919468, Note_off_c, 0, 67, 59
1, 919504, Note_on_c, 0, 64, 43
1, 919552, Note_off_c, 0, 64, 60
1, 919580, Note_on_c, 0, 55, 83
1, 919587, Control_c, 0, 64, 43
1, 919593, Note_on_c, 0, 72, 50
1, 919602, Control_c, 0, 64, 127
1, 919603, Note_off_c, 0, 55, 68
1, 919642, Note_off_c, 0, 72, 61
1, 919681, Note_on_c, 0, 67, 45
1, 919730, Note_off_c, 0, 67, 58
1, 919766, Note_on_c, 0, 64, 45
1, 919842, Note_off_c, 0, 64, 47
1, 919862, Note_on_c, 0, 66, 48
1, 919870, Note_on_c, 0, 72, 42
1, 919960, Note_on_c, 0, 67, 43
1, 919960, Note_off_c, 0, 72, 53
1, 919968, Note_on_c, 0, 71, 60
1, 920022, Note_on_c, 0, 64, 51
1, 920032, Note_off_c, 0, 67, 52
1, 920075, Note_off_c, 0, 66, 31
1, 920106, Note_on_c, 0, 72, 54
1, 920112, Note_on_c, 0, 75, 71
1, 920140, Note_off_c, 0, 64, 57
1, 920151, Note_off_c, 0, 71, 59
1, 920189, Note_on_c, 0, 67, 53
1, 920217, Note_off_c, 0, 72, 60
1, 920244, Note_on_c, 0, 78, 79
1, 920269, Note_on_c, 0, 64, 62
1, 920290, Note_off_c, 0, 75, 62
1, 920297, Note_off_c, 0, 67, 58
1, 920357, Note_on_c, 0, 72, 64
1, 920362, Note_on_c, 0, 82, 86
1, 920395, Note_off_c, 0, 78, 63
1, 920413, Note_off_c, 0, 64, 60
1, 920431, Note_on_c, 0, 67, 56
1, 920479, Note_off_c, 0, 72, 63
1, 920483, Note_on_c, 0, 78, 92
1, 920517, Note_on_c, 0, 64, 73
1, 920535, Note_off_c, 0, 82, 63
1, 920548, Note_off_c, 0, 67, 60
1, 920603, Note_on_c, 0, 72, 74
1, 920608, Note_on_c, 0, 83, 90
1, 920638, Note_off_c, 0, 78, 61
1, 920647, Control_c, 0, 64, 102
1, 920660, Note_off_c, 0, 64, 59
1, 920662, Control_c, 0, 64, 80
1, 920676, Control_c, 0, 64, 68
1, 920684, Note_on_c, 0, 67, 62
1, 920691, Control_c, 0, 64, 62
1, 920706, Control_c, 0, 64, 60
1, 920720, Control_c, 0, 64, 61
1, 920723, Note_off_c, 0, 72, 61
1, 920735, Control_c, 0, 64, 64
1, 920750, Control_c, 0, 64, 70
1, 920758, Note_on_c, 0, 64, 79
1, 920765, Control_c, 0, 64, 81
1, 920780, Control_c, 0, 64, 125
1, 920793, Note_off_c, 0, 67, 60
1, 920795, Control_c, 0, 64, 127
1, 920845, Note_on_c, 0, 82, 101
1, 920848, Note_on_c, 0, 72, 76
1, 920891, Note_off_c, 0, 83, 64
1, 920900, Note_off_c, 0, 64, 60
1, 920920, Note_on_c, 0, 67, 67
1, 920956, Note_off_c, 0, 72, 60
1, 920962, Note_on_c, 0, 80, 97
1, 920991, Note_off_c, 0, 82, 63
1, 921010, Note_on_c, 0, 64, 71
1, 921019, Note_off_c, 0, 80, 67
1, 921030, Note_off_c, 0, 67, 60
1, 921081, Note_on_c, 0, 91, 104
1, 921082, Note_on_c, 0, 79, 96
1, 921093, Note_on_c, 0, 72, 71
1, 921099, Control_c, 0, 64, 106
1, 921113, Note_off_c, 0, 64, 60
1, 921114, Control_c, 0, 64, 81
1, 921128, Control_c, 0, 64, 68
1, 921143, Control_c, 0, 64, 57
1, 921158, Control_c, 0, 64, 43
1, 921173, Control_c, 0, 64, 28
1, 921177, Note_on_c, 0, 67, 63
1, 921188, Control_c, 0, 64, 0
1, 921191, Note_off_c, 0, 91, 65
1, 921203, Note_off_c, 0, 72, 61
1, 921209, Note_off_c, 0, 79, 65
1, 921247, Note_on_c, 0, 64, 65
1, 921266, Note_off_c, 0, 67, 62
1, 921316, Note_off_c, 0, 64, 60
1, 921334, Note_on_c, 0, 77, 98
1, 921334, Note_on_c, 0, 84, 96
1, 921340, Note_on_c, 0, 72, 66
1, 921430, Note_on_c, 0, 68, 62
1, 921435, Note_off_c, 0, 72, 60
1, 921438, Note_off_c, 0, 84, 64
1, 921438, Note_off_c, 0, 77, 62
1, 921496, Note_on_c, 0, 65, 56
1, 921507, Note_off_c, 0, 68, 59
1, 921570, Note_off_c, 0, 65, 57
1, 921593, Note_on_c, 0, 79, 80
1, 921605, Note_on_c, 0, 72, 58
1, 921705, Note_on_c, 0, 67, 51
1, 921712, Note_off_c, 0, 72, 60
1, 921713, Control_c, 0, 64, 13
1, 921728, Control_c, 0, 64, 41
1, 921743, Control_c, 0, 64, 55
1, 921757, Control_c, 0, 64, 61
1, 921772, Note_off_c, 0, 67, 55
1, 921772, Control_c, 0, 64, 66
1, 921782, Note_on_c, 0, 64, 52
1, 921787, Control_c, 0, 64, 71
1, 921802, Control_c, 0, 64, 81
1, 921817, Control_c, 0, 64, 100
1, 921832, Control_c, 0, 64, 127
1, 921871, Note_on_c, 0, 72, 44
1, 921883, Note_on_c, 0, 66, 50
1, 921954, Note_off_c, 0, 64, 43
1, 921963, Note_off_c, 0, 72, 57
1, 921970, Note_on_c, 0, 71, 60
1, 921972, Note_off_c, 0, 66, 48
1, 921978, Note_on_c, 0, 67, 51
1, 921996, Note_off_c, 0, 79, 55
1, 922053, Note_off_c, 0, 67, 60
1, 922055, Note_on_c, 0, 64, 56
1, 922096, Note_on_c, 0, 75, 77
1, 922104, Note_on_c, 0, 72, 57
1, 922125, Note_off_c, 0, 71, 60
1, 922145, Note_off_c, 0, 64, 52
1, 922184, Note_on_c, 0, 67, 62
1, 922208, Note_off_c, 0, 72, 60
1, 922210, Note_on_c, 0, 78, 81
1, 922266, Note_on_c, 0, 64, 73
1, 922266, Note_off_c, 0, 75, 61
1, 922282, Note_off_c, 0, 67, 61
1, 922330, Note_on_c, 0, 72, 76
1, 922339, Note_on_c, 0, 82, 87
1, 922374, Note_off_c, 0, 64, 59
1, 922383, Note_off_c, 0, 78, 62
1, 922389, Control_c, 0, 64, 102
1, 922404, Control_c, 0, 64, 79
1, 922419, Control_c, 0, 64, 66
1, 922421, Note_on_c, 0, 67, 62
1, 922434, Control_c, 0, 64, 60
1, 922438, Note_off_c, 0, 72, 62
1, 922448, Control_c, 0, 64, 61
1, 922459, Note_on_c, 0, 78, 88
1, 922463, Control_c, 0, 64, 65
1, 922478, Control_c, 0, 64, 72
1, 922484, Note_on_c, 0, 64, 70
1, 922493, Control_c, 0, 64, 86
1, 922507, Note_off_c, 0, 82, 62
1, 922508, Control_c, 0, 64, 127
1, 922527, Note_off_c, 0, 67, 60
1, 922577, Note_on_c, 0, 72, 78
1, 922582, Note_on_c, 0, 83, 96
1, 922600, Note_off_c, 0, 78, 63
1, 922611, Control_c, 0, 64, 113
1, 922622, Note_off_c, 0, 64, 59
1, 922626, Control_c, 0, 64, 82
1, 922641, Control_c, 0, 64, 67
1, 922655, Control_c, 0, 64, 55
1, 922668, Note_on_c, 0, 67, 65
1, 922670, Control_c, 0, 64, 43
1, 922681, Note_off_c, 0, 72, 61
1, 922685, Control_c, 0, 64, 44
1, 922700, Control_c, 0, 64, 51
1, 922715, Control_c, 0, 64, 60
1, 922729, Control_c, 0, 64, 66
1, 922730, Note_on_c, 0, 64, 76
1, 922744, Control_c, 0, 64, 75
1, 922759, Note_off_c, 0, 67, 63
1, 922759, Control_c, 0, 64, 104
1, 922775, Control_c, 0, 64, 127
1, 922825, Note_on_c, 0, 72, 76
1, 922834, Note_on_c, 0, 82, 98
1, 922841, Note_off_c, 0, 64, 59
1, 922860, Note_off_c, 0, 83, 61
1, 922907, Note_on_c, 0, 67, 73
1, 922922, Note_off_c, 0, 72, 63
1, 922949, Note_on_c, 0, 80, 100
1, 922976, Note_off_c, 0, 82, 63
1, 922978, Note_on_c, 0, 64, 73
1, 923006, Note_off_c, 0, 80, 66
1, 923006, Note_off_c, 0, 67, 60
1, 923059, Note_off_c, 0, 64, 59
1, 923071, Control_c, 0, 64, 104
1, 923072, Note_on_c, 0, 91, 104
1, 923074, Note_on_c, 0, 79, 100
1, 923076, Note_on_c, 0, 72, 76
1, 923086, Control_c, 0, 64, 82
1, 923101, Control_c, 0, 64, 70
1, 923123, Control_c, 0, 64, 62
1, 923138, Control_c, 0, 64, 50
1, 923152, Control_c, 0, 64, 41
1, 923167, Control_c, 0, 64, 34
1, 923173, Note_on_c, 0, 67, 56
1, 923177, Note_off_c, 0, 72, 62
1, 923182, Control_c, 0, 64, 25
1, 923186, Note_on_c, 0, 64, 64
1, 923186, Note_off_c, 0, 91, 64
1, 923197, Control_c, 0, 64, 0
1, 923205, Note_off_c, 0, 79, 64
1, 923256, Note_off_c, 0, 64, 56
1, 923260, Note_off_c, 0, 67, 63
1, 923310, Note_on_c, 0, 72, 75
1, 923323, Note_on_c, 0, 77, 101
1, 923323, Note_on_c, 0, 84, 102
1, 923401, Note_on_c, 0, 68, 68
1, 923403, Note_off_c, 0, 72, 59
1, 923430, Note_off_c, 0, 84, 63
1, 923436, Note_off_c, 0, 77, 62
1, 923473, Note_on_c, 0, 65, 62
1, 923492, Note_off_c, 0, 68, 61
1, 923552, Note_off_c, 0, 65, 61
1, 923574, Note_on_c, 0, 72, 69
1, 923578, Note_on_c, 0, 79, 97
1, 923657, Control_c, 0, 64, 53
1, 923668, Note_on_c, 0, 67, 62
1, 923672, Control_c, 0, 64, 61
1, 923680, Note_off_c, 0, 72, 60
1, 923687, Control_c, 0, 64, 66
1, 923701, Control_c, 0, 64, 76
1, 923716, Control_c, 0, 64, 127
1, 923728, Note_off_c, 0, 79, 64
1, 923749, Note_on_c, 0, 64, 70
1, 923759, Note_off_c, 0, 67, 60
1, 923829, Note_off_c, 0, 64, 58
1, 923847, Note_on_c, 0, 72, 69
1, 923936, Note_on_c, 0, 67, 59
1, 923942, Note_off_c, 0, 72, 60
1, 923984, Note_on_c, 0, 63, 79
1, 924008, Note_off_c, 0, 63, 69
1, 924015, Note_on_c, 0, 64, 62
1, 924017, Note_off_c, 0, 67, 62
1, 924050, Control_c, 0, 64, 120
1, 924065, Control_c, 0, 64, 88
1, 924066, Note_on_c, 0, 63, 86
1, 924079, Note_on_c, 0, 72, 66
1, 924080, Control_c, 0, 64, 75
1, 924094, Control_c, 0, 64, 65
1, 924105, Note_off_c, 0, 64, 59
1, 924109, Control_c, 0, 64, 56
1, 924124, Control_c, 0, 64, 46
1, 924139, Control_c, 0, 64, 41
1, 924153, Control_c, 0, 64, 40
1, 924168, Control_c, 0, 64, 39
1, 924171, Note_on_c, 0, 67, 59
1, 924173, Note_off_c, 0, 72, 59
1, 924183, Control_c, 0, 64, 38
1, 924198, Control_c, 0, 64, 37
1, 924213, Control_c, 0, 64, 35
1, 924223, Note_off_c, 0, 63, 62
1, 924227, Control_c, 0, 64, 32
1, 924242, Control_c, 0, 64, 27
1, 924248, Note_on_c, 0, 64, 58
1, 924257, Control_c, 0, 64, 24
1, 924259, Note_off_c, 0, 67, 61
1, 924272, Control_c, 0, 64, 23
1, 924287, Control_c, 0, 64, 21
1, 924301, Control_c, 0, 64, 18
1, 924316, Control_c, 0, 64, 14
1, 924321, Note_on_c, 0, 63, 77
1, 924331, Control_c, 0, 64, 9
1, 924332, Note_off_c, 0, 64, 60
1, 924336, Note_on_c, 0, 72, 58
1, 924345, Control_c, 0, 64, 0
1, 924414, Note_on_c, 0, 67, 56
1, 924431, Note_off_c, 0, 72, 60
1, 924480, Note_off_c, 0, 63, 61
1, 924496, Note_off_c, 0, 67, 60
1, 924509, Note_on_c, 0, 64, 51
1, 924564, Note_off_c, 0, 64, 57
1, 924576, Note_on_c, 0, 63, 58
1, 924576, Note_on_c, 0, 72, 55
1, 924598, Note_off_c, 0, 63, 63
1, 924641, Note_off_c, 0, 72, 54
1, 924670, Note_on_c, 0, 67, 43
1, 924725, Note_off_c, 0, 67, 57
1, 924744, Note_on_c, 0, 64, 45
1, 924817, Note_on_c, 0, 63, 67
1, 924819, Note_off_c, 0, 64, 57
1, 924824, Note_on_c, 0, 72, 44
1, 924846, Note_off_c, 0, 63, 66
1, 924885, Note_off_c, 0, 72, 58
1, 924902, Note_on_c, 0, 67, 41
1, 924963, Note_off_c, 0, 67, 55
1, 924974, Note_on_c, 0, 64, 40
1, 925027, Note_off_c, 0, 64, 60
1, 925060, Note_on_c, 0, 63, 57
1, 925089, Note_off_c, 0, 63, 64
1, 925343, Note_on_c, 0, 63, 84
1, 925415, Note_on_c, 0, 62, 67
1, 925458, Note_off_c, 0, 62, 60
1, 925462, Note_on_c, 0, 61, 67
1, 925462, Note_off_c, 0, 63, 58
1, 925509, Note_on_c, 0, 60, 71
1, 925525, Note_off_c, 0, 61, 63
1, 925562, Note_on_c, 0, 59, 74
1, 925563, Note_off_c, 0, 60, 65
1, 925589, Note_off_c, 0, 59, 67
1, 925855, Note_on_c, 0, 59, 51
1, 925880, Note_off_c, 0, 59, 58
1, 926164, Note_on_c, 0, 59, 42
1, 926190, Note_off_c, 0, 59, 54
1, 926518, Note_on_c, 0, 58, 37
1, 926548, Note_off_c, 0, 58, 46
1, 926888, Note_on_c, 0, 58, 50
1, 926889, Note_on_c, 0, 34, 37
1, 926890, Note_on_c, 0, 46, 31
1, 926923, Note_off_c, 0, 58, 63
1, 926926, Note_off_c, 0, 46, 44
1, 926929, Note_off_c, 0, 34, 47
1, 926948, Note_on_c, 0, 61, 50
1, 927007, Note_off_c, 0, 61, 54
1, 927028, Note_on_c, 0, 65, 43
1, 927072, Note_off_c, 0, 65, 60
1, 927082, Note_on_c, 0, 64, 47
1, 927121, Note_off_c, 0, 64, 64
1, 927138, Note_on_c, 0, 60, 51
1, 927162, Note_off_c, 0, 60, 59
1, 927294, Note_on_c, 0, 61, 61
1, 927334, Note_off_c, 0, 61, 60
1, 927357, Note_on_c, 0, 60, 55
1, 927399, Note_on_c, 0, 46, 55
1, 927405, Note_off_c, 0, 60, 63
1, 927406, Note_on_c, 0, 34, 55
1, 927410, Note_on_c, 0, 58, 64
1, 927426, Note_off_c, 0, 46, 62
1, 927438, Note_off_c, 0, 34, 58
1, 927447, Note_off_c, 0, 58, 64
1, 927469, Note_on_c, 0, 61, 63
1, 927523, Note_off_c, 0, 61, 58
1, 927540, Note_on_c, 0, 65, 54
1, 927583, Note_off_c, 0, 65, 59
1, 927591, Note_on_c, 0, 64, 40
1, 927636, Note_off_c, 0, 64, 51
1, 927663, Note_on_c, 0, 60, 47
1, 927688, Note_off_c, 0, 60, 60
1, 927827, Note_on_c, 0, 61, 41
1, 927861, Note_off_c, 0, 61, 58
1, 927880, Note_on_c, 0, 60, 47
1, 927925, Note_on_c, 0, 46, 41
1, 927926, Note_on_c, 0, 34, 46
1, 927929, Note_off_c, 0, 60, 59
1, 927934, Note_on_c, 0, 58, 48
1, 927955, Note_off_c, 0, 46, 51
1, 927961, Note_off_c, 0, 34, 53
1, 927980, Note_off_c, 0, 58, 60
1, 927996, Note_on_c, 0, 61, 48
1, 928062, Note_off_c, 0, 61, 55
1, 928073, Note_on_c, 0, 65, 33
1, 928107, Note_off_c, 0, 65, 52
1, 928116, Note_on_c, 0, 64, 37
1, 928144, Note_off_c, 0, 64, 60
1, 928167, Note_on_c, 0, 60, 56
1, 928193, Note_off_c, 0, 60, 64
1, 928300, Note_on_c, 0, 61, 59
1, 928347, Note_off_c, 0, 61, 55
1, 928351, Note_on_c, 0, 60, 43
1, 928421, Note_on_c, 0, 34, 52
1, 928421, Note_on_c, 0, 58, 66
1, 928429, Note_on_c, 0, 46, 32
1, 928432, Note_off_c, 0, 60, 63
1, 928495, Note_off_c, 0, 46, 42
1, 928685, Note_on_c, 0, 36, 47
1, 928703, Note_off_c, 0, 34, 58
1, 928751, Note_off_c, 0, 36, 55
1, 928764, Note_on_c, 0, 37, 42
1, 928811, Note_on_c, 0, 56, 27
1, 928813, Note_off_c, 0, 58, 57
1, 928819, Note_off_c, 0, 37, 56
1, 928834, Note_on_c, 0, 39, 44
1, 928837, Note_on_c, 0, 54, 48
1, 928855, Note_off_c, 0, 56, 50
1, 928877, Note_off_c, 0, 39, 62
1, 928883, Note_on_c, 0, 41, 57
1, 928894, Note_on_c, 0, 53, 57
1, 928897, Note_off_c, 0, 54, 60
1, 928916, Note_off_c, 0, 41, 65
1, 928929, Note_off_c, 0, 53, 64
1, 929015, Note_on_c, 0, 53, 56
1, 929049, Note_off_c, 0, 53, 64
1, 929156, Note_on_c, 0, 60, 72
1, 929175, Note_on_c, 0, 54, 53
1, 929239, Note_off_c, 0, 60, 64
1, 929316, Note_on_c, 0, 55, 48
1, 929329, Note_off_c, 0, 54, 58
1, 929341, Note_on_c, 0, 59, 57
1, 929365, Note_off_c, 0, 55, 59
1, 929387, Note_on_c, 0, 41, 87
1, 929396, Note_on_c, 0, 53, 71
1, 929407, Note_off_c, 0, 41, 67
1, 929414, Note_off_c, 0, 59, 61
1, 929427, Note_off_c, 0, 53, 64
1, 929525, Note_on_c, 0, 53, 62
1, 929560, Note_off_c, 0, 53, 63
1, 929631, Note_on_c, 0, 61, 81
1, 929645, Note_on_c, 0, 54, 67
1, 929699, Note_off_c, 0, 61, 61
1, 929764, Note_off_c, 0, 54, 58
1, 929770, Note_on_c, 0, 55, 51
1, 929824, Note_off_c, 0, 55, 61
1, 929825, Note_on_c, 0, 59, 49
1, 929889, Note_on_c, 0, 41, 74
1, 929901, Note_off_c, 0, 59, 55
1, 929912, Note_on_c, 0, 53, 46
1, 929955, Note_off_c, 0, 41, 64
1, 929960, Note_on_c, 0, 55, 51
1, 929964, Note_off_c, 0, 53, 57
1, 930027, Note_on_c, 0, 56, 46
1, 930040, Note_off_c, 0, 55, 58
1, 930077, Note_on_c, 0, 60, 51
1, 930110, Note_off_c, 0, 56, 59
1, 930152, Note_off_c, 0, 60, 57
1, 930161, Note_on_c, 0, 62, 63
1, 930163, Note_on_c, 0, 54, 47
1, 930214, Note_off_c, 0, 54, 56
1, 930226, Note_on_c, 0, 56, 32
1, 930244, Note_off_c, 0, 62, 53
1, 930281, Note_off_c, 0, 56, 57
1, 930285, Note_on_c, 0, 57, 50
1, 930332, Note_off_c, 0, 57, 62
1, 930333, Note_on_c, 0, 61, 52
1, 930392, Note_off_c, 0, 61, 54
1, 930398, Note_on_c, 0, 63, 70
1, 930415, Note_on_c, 0, 55, 48
1, 930470, Note_off_c, 0, 55, 56
1, 930471, Note_on_c, 0, 57, 52
1, 930500, Note_off_c, 0, 63, 58
1, 930524, Note_on_c, 0, 58, 63
1, 930524, Note_off_c, 0, 57, 61
1, 930569, Note_on_c, 0, 62, 56
1, 930590, Note_off_c, 0, 58, 59
1, 930640, Note_on_c, 0, 64, 80
1, 930648, Note_on_c, 0, 56, 68
1, 930654, Note_off_c, 0, 62, 63
1, 930713, Note_on_c, 0, 58, 66
1, 930745, Note_off_c, 0, 56, 61
1, 930745, Note_off_c, 0, 64, 59
1, 930769, Note_on_c, 0, 59, 64
1, 930787, Note_off_c, 0, 58, 61
1, 930816, Note_on_c, 0, 63, 67
1, 930842, Note_off_c, 0, 59, 63
1, 930889, Note_on_c, 0, 57, 78
1, 930891, Note_on_c, 0, 65, 83
1, 930907, Note_off_c, 0, 63, 63
1, 930956, Note_on_c, 0, 59, 75
1, 930974, Note_off_c, 0, 57, 57
1, 931001, Note_off_c, 0, 65, 60
1, 931006, Note_on_c, 0, 60, 72
1, 931051, Note_off_c, 0, 59, 62
1, 931067, Note_on_c, 0, 64, 70
1, 931076, Note_off_c, 0, 60, 65
1, 931134, Note_on_c, 0, 66, 84
1, 931140, Note_on_c, 0, 58, 73
1, 931159, Note_off_c, 0, 64, 61
1, 931199, Note_on_c, 0, 60, 68
1, 931224, Note_off_c, 0, 58, 61
1, 931231, Note_off_c, 0, 66, 58
1, 931259, Note_on_c, 0, 61, 69
1, 931278, Note_off_c, 0, 60, 63
1, 931312, Note_on_c, 0, 65, 64
1, 931331, Note_off_c, 0, 61, 62
1, 931397, Note_on_c, 0, 67, 74
1, 931403, Note_on_c, 0, 59, 64
1, 931410, Note_off_c, 0, 65, 59
1, 931458, Note_on_c, 0, 61, 60
1, 931464, Note_off_c, 0, 59, 56
1, 931483, Note_off_c, 0, 67, 58
1, 931523, Note_on_c, 0, 62, 55
1, 931538, Note_off_c, 0, 61, 54
1, 931581, Note_off_c, 0, 62, 55
1, 931595, Note_on_c, 0, 67, 44
1, 931641, Note_off_c, 0, 67, 62
1, 931661, Note_on_c, 0, 60, 46
1, 931666, Note_on_c, 0, 68, 44
1, 931692, Note_off_c, 0, 68, 55
1, 931708, Note_off_c, 0, 60, 61
1, 931721, Note_on_c, 0, 61, 39
1, 931751, Note_off_c, 0, 61, 60
1, 931761, Note_on_c, 0, 63, 56
1, 931800, Note_off_c, 0, 63, 65
1, 931807, Note_on_c, 0, 68, 44
1, 931847, Note_off_c, 0, 68, 64
1, 931864, Control_c, 0, 64, 11
1, 931879, Control_c, 0, 64, 52
1, 931894, Control_c, 0, 64, 63
1, 931895, Note_on_c, 0, 40, 60
1, 931899, Note_on_c, 0, 33, 51
1, 931901, Note_on_c, 0, 69, 64
1, 931908, Control_c, 0, 64, 74
1, 931923, Control_c, 0, 64, 112
1, 931929, Note_off_c, 0, 40, 65
1, 931931, Note_off_c, 0, 69, 62
1, 931934, Note_off_c, 0, 33, 52
1, 931938, Control_c, 0, 64, 127
1, 931977, Note_on_c, 0, 72, 61
1, 932015, Note_off_c, 0, 72, 62
1, 932036, Note_on_c, 0, 76, 60
1, 932076, Note_off_c, 0, 76, 60
1, 932085, Note_on_c, 0, 75, 57
1, 932086, Control_c, 0, 64, 102
1, 932107, Control_c, 0, 64, 81
1, 932122, Control_c, 0, 64, 66
1, 932137, Control_c, 0, 64, 50
1, 932138, Note_off_c, 0, 75, 59
1, 932152, Control_c, 0, 64, 0
1, 932155, Note_on_c, 0, 71, 68
1, 932155, Note_on_c, 0, 59, 50
1, 932155, Note_on_c, 0, 60, 52
1, 932158, Note_on_c, 0, 52, 48
1, 932180, Note_off_c, 0, 60, 58
1, 932181, Note_off_c, 0, 71, 67
1, 932181, Note_off_c, 0, 59, 54
1, 932185, Note_off_c, 0, 52, 57
1, 932299, Note_on_c, 0, 72, 77
1, 932354, Note_off_c, 0, 72, 65
1, 932358, Note_on_c, 0, 71, 77
1, 932407, Note_off_c, 0, 71, 62
1, 932413, Note_on_c, 0, 69, 81
1, 932471, Note_off_c, 0, 69, 61
1, 932472, Note_on_c, 0, 72, 68
1, 932528, Note_off_c, 0, 72, 61
1, 932534, Note_on_c, 0, 76, 64
1, 932572, Note_on_c, 0, 75, 56
1, 932578, Note_off_c, 0, 76, 56
1, 932622, Note_off_c, 0, 75, 54
1, 932635, Note_on_c, 0, 60, 50
1, 932636, Note_on_c, 0, 59, 48
1, 932643, Note_on_c, 0, 52, 42
1, 932644, Note_on_c, 0, 71, 60
1, 932660, Note_off_c, 0, 59, 58
1, 932660, Note_off_c, 0, 60, 62
1, 932670, Note_off_c, 0, 52, 56
1, 932674, Note_off_c, 0, 71, 66
1, 932805, Note_on_c, 0, 72, 43
1, 932833, Note_off_c, 0, 72, 59
1, 932860, Note_on_c, 0, 71, 54
1, 932900, Note_off_c, 0, 71, 64
1, 932915, Note_on_c, 0, 69, 59
1, 932971, Note_off_c, 0, 69, 53
1, 932990, Note_on_c, 0, 72, 45
1, 933044, Note_off_c, 0, 72, 56
1, 933049, Note_on_c, 0, 76, 47
1, 933082, Note_off_c, 0, 76, 54
1, 933088, Note_on_c, 0, 75, 46
1, 933138, Note_off_c, 0, 75, 62
1, 933148, Note_on_c, 0, 59, 47
1, 933148, Note_on_c, 0, 60, 52
1, 933151, Note_on_c, 0, 71, 59
1, 933158, Note_on_c, 0, 52, 37
1, 933175, Note_off_c, 0, 59, 59
1, 933175, Note_off_c, 0, 60, 62
1, 933183, Note_off_c, 0, 71, 66
1, 933187, Note_off_c, 0, 52, 53
1, 933285, Note_on_c, 0, 72, 63
1, 933329, Note_off_c, 0, 72, 59
1, 933344, Note_on_c, 0, 71, 57
1, 933410, Note_on_c, 0, 69, 66
1, 933425, Note_off_c, 0, 71, 61
1, 933540, Control_c, 0, 64, 19
1, 933554, Control_c, 0, 64, 37
1, 933569, Control_c, 0, 64, 46
1, 933584, Control_c, 0, 64, 54
1, 933606, Control_c, 0, 64, 60
1, 933621, Control_c, 0, 64, 64
1, 933636, Control_c, 0, 64, 68
1, 933651, Control_c, 0, 64, 77
1, 933666, Control_c, 0, 64, 98
1, 933677, Note_on_c, 0, 57, 79
1, 933680, Control_c, 0, 64, 127
1, 933687, Note_on_c, 0, 45, 71
1, 933691, Note_off_c, 0, 69, 63
1, 933794, Note_on_c, 0, 43, 74
1, 933806, Note_on_c, 0, 55, 89
1, 933838, Note_off_c, 0, 57, 38
1, 933839, Note_off_c, 0, 45, 63
1, 933842, Note_on_c, 0, 41, 83
1, 933849, Note_off_c, 0, 43, 65
1, 933850, Note_on_c, 0, 53, 91
1, 933854, Note_off_c, 0, 55, 66
1, 933909, Note_on_c, 0, 52, 112
1, 933922, Note_on_c, 0, 40, 72
1, 933925, Note_off_c, 0, 41, 64
1, 933930, Note_off_c, 0, 53, 67
1, 933945, Note_on_c, 0, 50, 45
1, 933948, Control_c, 0, 64, 78
1, 933950, Note_off_c, 0, 40, 66
1, 933963, Control_c, 0, 64, 32
1, 933975, Note_off_c, 0, 50, 51
1, 933975, Note_off_c, 0, 52, 68
1, 933977, Control_c, 0, 64, 0
1, 934039, Note_on_c, 0, 52, 89
1, 934066, Note_off_c, 0, 52, 65
1, 934161, Note_on_c, 0, 40, 88
1, 934200, Note_off_c, 0, 40, 65
1, 934277, Note_on_c, 0, 52, 78
1, 934320, Note_off_c, 0, 52, 61
1, 934425, Note_on_c, 0, 51, 114
1, 934438, Note_on_c, 0, 40, 71
1, 934480, Note_off_c, 0, 40, 63
1, 934553, Note_on_c, 0, 52, 81
1, 934591, Note_off_c, 0, 52, 62
1, 934680, Note_on_c, 0, 40, 84
1, 934716, Note_off_c, 0, 40, 66
1, 934812, Note_on_c, 0, 58, 73
1, 934814, Note_on_c, 0, 52, 82
1, 934819, Note_off_c, 0, 51, 62
1, 934850, Note_off_c, 0, 52, 62
1, 934854, Note_on_c, 0, 63, 85
1, 934870, Note_off_c, 0, 58, 65
1, 934917, Note_on_c, 0, 67, 101
1, 934933, Note_on_c, 0, 40, 85
1, 934940, Note_off_c, 0, 63, 63
1, 934963, Note_off_c, 0, 40, 68
1, 935049, Note_on_c, 0, 52, 77
1, 935076, Note_off_c, 0, 52, 69
1, 935169, Note_on_c, 0, 62, 104
1, 935188, Note_on_c, 0, 40, 73
1, 935198, Note_off_c, 0, 67, 62
1, 935224, Note_off_c, 0, 40, 67
1, 935282, Control_c, 0, 64, 56
1, 935297, Note_on_c, 0, 52, 82
1, 935297, Control_c, 0, 64, 71
1, 935312, Control_c, 0, 64, 104
1, 935326, Control_c, 0, 64, 127
1, 935347, Note_off_c, 0, 62, 62
1, 935358, Note_off_c, 0, 52, 60
1, 935431, Note_on_c, 0, 78, 118
1, 935432, Note_on_c, 0, 40, 72
1, 935459, Control_c, 0, 64, 88
1, 935470, Note_off_c, 0, 40, 64
1, 935474, Control_c, 0, 64, 64
1, 935489, Control_c, 0, 64, 0
1, 935568, Note_on_c, 0, 52, 48
1, 935580, Note_on_c, 0, 50, 40
1, 935598, Note_off_c, 0, 52, 55
1, 935614, Note_off_c, 0, 50, 47
1, 935688, Note_off_c, 0, 78, 68
1, 935691, Note_on_c, 0, 40, 66
1, 935696, Note_on_c, 0, 73, 112
1, 935712, Control_c, 0, 64, 38
1, 935714, Note_on_c, 0, 75, 70
1, 935715, Note_off_c, 0, 75, 127
1, 935727, Control_c, 0, 64, 105
1, 935742, Control_c, 0, 64, 127
1, 935752, Note_off_c, 0, 73, 62
1, 935772, Note_off_c, 0, 40, 38
1, 935804, Note_on_c, 0, 52, 83
1, 935863, Note_off_c, 0, 52, 64
1, 935956, Control_c, 0, 64, 79
1, 935961, Note_on_c, 0, 40, 94
1, 935961, Note_on_c, 0, 89, 105
1, 935971, Control_c, 0, 64, 43
1, 935986, Control_c, 0, 64, 0
1, 935994, Note_on_c, 0, 88, 30
1, 935995, Note_off_c, 0, 88, 127
1, 936003, Note_off_c, 0, 40, 66
1, 936090, Note_on_c, 0, 53, 83
1, 936119, Note_off_c, 0, 53, 67
1, 936337, Note_on_c, 0, 85, 103
1, 936343, Note_on_c, 0, 65, 91
1, 936363, Note_off_c, 0, 89, 62
1, 936368, Note_on_c, 0, 86, 55
1, 936369, Note_off_c, 0, 65, 69
1, 936378, Note_on_c, 0, 54, 46
1, 936379, Note_off_c, 0, 54, 127
1, 936389, Note_off_c, 0, 86, 40
1, 936459, Note_on_c, 0, 80, 88
1, 936464, Note_on_c, 0, 40, 88
1, 936492, Note_off_c, 0, 40, 68
1, 936496, Note_off_c, 0, 85, 63
1, 936575, Note_off_c, 0, 80, 64
1, 936583, Note_on_c, 0, 77, 93
1, 936584, Note_on_c, 0, 53, 83
1, 936624, Note_off_c, 0, 53, 67
1, 936710, Note_on_c, 0, 52, 88
1, 936719, Note_off_c, 0, 77, 56
1, 936722, Note_on_c, 0, 74, 84
1, 936736, Note_off_c, 0, 52, 68
1, 936745, Note_on_c, 0, 73, 41
1, 936751, Note_off_c, 0, 73, 43
1, 936829, Note_on_c, 0, 68, 89
1, 936830, Note_on_c, 0, 64, 80
1, 936853, Note_off_c, 0, 64, 71
1, 936856, Note_off_c, 0, 74, 49
1, 936949, Note_off_c, 0, 68, 61
1, 936954, Note_on_c, 0, 52, 94
1, 936962, Note_on_c, 0, 65, 88
1, 936977, Note_off_c, 0, 52, 70
1, 937075, Note_on_c, 0, 53, 77
1, 937083, Note_on_c, 0, 61, 81
1, 937094, Note_off_c, 0, 65, 58
1, 937108, Note_off_c, 0, 53, 66
1, 937201, Note_on_c, 0, 40, 71
1, 937204, Note_off_c, 0, 61, 62
1, 937213, Note_on_c, 0, 56, 74
1, 937239, Note_off_c, 0, 40, 68
1, 937247, Note_on_c, 0, 55, 52
1, 937291, Note_off_c, 0, 55, 57
1, 937297, Note_off_c, 0, 56, 63
1, 937318, Note_on_c, 0, 41, 72
1, 937323, Note_on_c, 0, 53, 74
1, 937368, Note_off_c, 0, 41, 65
1, 937425, Note_off_c, 0, 53, 63
1, 937450, Note_on_c, 0, 46, 95
1, 937453, Note_on_c, 0, 49, 81
1, 937479, Note_off_c, 0, 46, 68
1, 937479, Note_off_c, 0, 49, 68
1, 937561, Note_on_c, 0, 44, 105
1, 937596, Note_off_c, 0, 44, 66
1, 937679, Note_on_c, 0, 42, 105
1, 937688, Note_on_c, 0, 50, 105
1, 937696, Note_on_c, 0, 48, 82
1, 937704, Note_off_c, 0, 42, 69
1, 937716, Note_off_c, 0, 50, 66
1, 937718, Note_off_c, 0, 48, 67
1, 937793, Note_on_c, 0, 41, 117
1, 937821, Note_off_c, 0, 41, 67
1, 937922, Note_on_c, 0, 40, 108
1, 937926, Note_on_c, 0, 51, 118
1, 937932, Note_on_c, 0, 47, 92
1, 937944, Note_off_c, 0, 40, 72
1, 937944, Control_c, 0, 64, 73
1, 937953, Note_off_c, 0, 47, 72
1, 937954, Note_on_c, 0, 41, 46
1, 937955, Note_off_c, 0, 41, 127
1, 937958, Control_c, 0, 64, 127
1, 937968, Note_off_c, 0, 51, 68
1, 938050, Note_on_c, 0, 52, 91
1, 938076, Control_c, 0, 64, 89
1, 938097, Note_off_c, 0, 52, 67
1, 938099, Control_c, 0, 64, 57
1, 938114, Control_c, 0, 64, 0
1, 938185, Note_on_c, 0, 40, 93
1, 938224, Note_off_c, 0, 40, 64
1, 938296, Note_on_c, 0, 52, 92
1, 938323, Note_off_c, 0, 52, 67
1, 938432, Note_on_c, 0, 51, 104
1, 938436, Note_on_c, 0, 40, 81
1, 938468, Note_off_c, 0, 40, 65
1, 938475, Note_on_c, 0, 52, 22
1, 938476, Note_off_c, 0, 52, 127
1, 938477, Note_on_c, 0, 61, 20
1, 938493, Note_on_c, 0, 54, 87
1, 938515, Note_off_c, 0, 61, 32
1, 938549, Note_on_c, 0, 52, 61
1, 938551, Note_on_c, 0, 58, 82
1, 938558, Note_off_c, 0, 54, 65
1, 938583, Note_off_c, 0, 52, 67
1, 938606, Note_on_c, 0, 54, 78
1, 938609, Note_off_c, 0, 58, 64
1, 938673, Note_on_c, 0, 58, 70
1, 938674, Note_on_c, 0, 40, 80
1, 938688, Note_off_c, 0, 54, 65
1, 938707, Note_off_c, 0, 40, 67
1, 938717, Note_on_c, 0, 63, 81
1, 938728, Note_off_c, 0, 58, 63
1, 938782, Note_on_c, 0, 52, 78
1, 938787, Note_off_c, 0, 51, 59
1, 938791, Note_off_c, 0, 63, 63
1, 938799, Note_on_c, 0, 58, 80
1, 938818, Note_off_c, 0, 52, 65
1, 938849, Note_on_c, 0, 63, 81
1, 938872, Note_off_c, 0, 58, 65
1, 938910, Note_on_c, 0, 66, 99
1, 938921, Note_on_c, 0, 40, 74
1, 938936, Note_off_c, 0, 63, 62
1, 938957, Note_off_c, 0, 40, 66
1, 939044, Note_on_c, 0, 52, 70
1, 939072, Note_off_c, 0, 52, 66
1, 939130, Note_on_c, 0, 65, 74
1, 939172, Note_on_c, 0, 62, 104
1, 939179, Note_on_c, 0, 40, 69
1, 939179, Note_off_c, 0, 66, 54
1, 939184, Note_off_c, 0, 65, 64
1, 939220, Note_off_c, 0, 40, 64
1, 939261, Control_c, 0, 64, 45
1, 939276, Control_c, 0, 64, 67
1, 939291, Control_c, 0, 64, 86
1, 939299, Note_on_c, 0, 52, 65
1, 939306, Control_c, 0, 64, 127
1, 939318, Note_on_c, 0, 50, 54
1, 939348, Note_off_c, 0, 62, 62
1, 939351, Note_off_c, 0, 50, 52
1, 939375, Note_off_c, 0, 52, 58
1, 939426, Note_on_c, 0, 77, 113
1, 939431, Note_on_c, 0, 40, 66
1, 939454, Control_c, 0, 64, 82
1, 939469, Control_c, 0, 64, 61
1, 939473, Note_off_c, 0, 40, 61
1, 939484, Control_c, 0, 64, 0
1, 939544, Note_on_c, 0, 52, 81
1, 939611, Note_off_c, 0, 52, 59
1, 939682, Note_on_c, 0, 40, 71
1, 939689, Note_on_c, 0, 73, 109
1, 939694, Note_off_c, 0, 77, 62
1, 939714, Control_c, 0, 64, 43
1, 939729, Control_c, 0, 64, 100
1, 939739, Note_on_c, 0, 72, 25
1, 939741, Note_off_c, 0, 73, 66
1, 939744, Control_c, 0, 64, 127
1, 939762, Note_off_c, 0, 40, 49
1, 939775, Note_off_c, 0, 72, 52
1, 939795, Note_on_c, 0, 52, 76
1, 939877, Note_off_c, 0, 52, 60
1, 939938, Note_on_c, 0, 40, 95
1, 939941, Note_on_c, 0, 88, 104
1, 939951, Control_c, 0, 64, 78
1, 939966, Control_c, 0, 64, 25
1, 939981, Control_c, 0, 64, 0
1, 939983, Note_off_c, 0, 40, 65
1, 940064, Note_on_c, 0, 53, 88
1, 940093, Note_off_c, 0, 53, 67
1, 940186, Note_on_c, 0, 52, 96
1, 940210, Note_off_c, 0, 52, 64
1, 940305, Note_on_c, 0, 65, 97
1, 940305, Note_on_c, 0, 84, 106
1, 940323, Note_off_c, 0, 65, 68
1, 940331, Note_on_c, 0, 54, 56
1, 940347, Note_off_c, 0, 88, 59
1, 940365, Note_off_c, 0, 54, 59
1, 940433, Note_on_c, 0, 40, 94
1, 940436, Note_on_c, 0, 79, 96
1, 940460, Note_off_c, 0, 84, 61
1, 940474, Note_off_c, 0, 40, 64
1, 940555, Note_off_c, 0, 79, 65
1, 940556, Note_on_c, 0, 53, 76
1, 940558, Note_on_c, 0, 76, 99
1, 940587, Note_off_c, 0, 53, 69
1, 940650, Note_off_c, 0, 76, 59
1, 940679, Note_on_c, 0, 72, 92
1, 940680, Note_on_c, 0, 52, 75
1, 940708, Note_off_c, 0, 52, 67
1, 940793, Note_on_c, 0, 64, 72
1, 940797, Note_on_c, 0, 67, 89
1, 940817, Note_off_c, 0, 64, 68
1, 940821, Note_off_c, 0, 72, 61
1, 940907, Note_off_c, 0, 67, 64
1, 940910, Note_on_c, 0, 64, 66
1, 940918, Note_on_c, 0, 52, 92
1, 940938, Note_off_c, 0, 52, 72
1, 941031, Note_on_c, 0, 53, 93
1, 941032, Note_on_c, 0, 60, 87
1, 941041, Note_off_c, 0, 64, 59
1, 941075, Note_off_c, 0, 53, 61
1, 941163, Note_on_c, 0, 55, 82
1, 941167, Note_off_c, 0, 60, 61
1, 941175, Note_on_c, 0, 40, 57
1, 941209, Note_off_c, 0, 40, 64
1, 941258, Note_off_c, 0, 55, 60
1, 941274, Note_on_c, 0, 41, 61
1, 941275, Note_on_c, 0, 52, 75
1, 941316, Note_off_c, 0, 41, 64
1, 941391, Note_off_c, 0, 52, 52
1, 941397, Note_on_c, 0, 48, 75
1, 941411, Note_on_c, 0, 40, 55
1, 941427, Note_off_c, 0, 48, 67
1, 941441, Note_off_c, 0, 40, 55
1, 941515, Note_on_c, 0, 52, 60
1, 941550, Note_off_c, 0, 52, 65
1, 941640, Note_on_c, 0, 47, 81
1, 941648, Note_on_c, 0, 40, 52
1, 941664, Note_off_c, 0, 47, 66
1, 941682, Note_off_c, 0, 40, 63
1, 941744, Note_on_c, 0, 52, 70
1, 941771, Note_off_c, 0, 52, 67
1, 941882, Note_on_c, 0, 40, 81
1, 941886, Note_on_c, 0, 45, 86
1, 941914, Note_off_c, 0, 40, 68
1, 941930, Note_on_c, 0, 49, 58
1, 941937, Note_off_c, 0, 45, 60
1, 941958, Note_on_c, 0, 48, 81
1, 941959, Note_off_c, 0, 49, 50
1, 942010, Note_on_c, 0, 52, 71
1, 942013, Note_on_c, 0, 39, 60
1, 942026, Note_off_c, 0, 48, 63
1, 942051, Note_off_c, 0, 39, 61
1, 942062, Note_on_c, 0, 51, 75
1, 942106, Note_off_c, 0, 52, 60
1, 942114, Note_on_c, 0, 47, 75
1, 942117, Note_on_c, 0, 40, 58
1, 942134, Note_off_c, 0, 51, 64
1, 942150, Note_off_c, 0, 47, 64
1, 942153, Note_off_c, 0, 40, 63
1, 942233, Note_on_c, 0, 51, 67
1, 942265, Note_off_c, 0, 51, 65
1, 942342, Note_on_c, 0, 40, 82
1, 942379, Note_off_c, 0, 40, 66
1, 942463, Note_on_c, 0, 39, 60
1, 942504, Note_off_c, 0, 39, 61
1, 942591, Note_on_c, 0, 40, 60
1, 942631, Note_off_c, 0, 40, 63
1, 942700, Note_on_c, 0, 51, 63
1, 942732, Note_off_c, 0, 51, 64
1, 942809, Note_on_c, 0, 45, 71
1, 942810, Note_on_c, 0, 40, 64
1, 942852, Note_off_c, 0, 40, 66
1, 942875, Note_on_c, 0, 48, 63
1, 942875, Note_off_c, 0, 45, 61
1, 942930, Note_on_c, 0, 52, 61
1, 942933, Note_on_c, 0, 39, 59
1, 942942, Note_off_c, 0, 48, 56
1, 942970, Note_on_c, 0, 51, 61
1, 942976, Note_off_c, 0, 39, 61
1, 943007, Note_off_c, 0, 52, 61
1, 943039, Note_on_c, 0, 40, 54
1, 943042, Note_on_c, 0, 47, 54
1, 943043, Note_off_c, 0, 51, 63
1, 943073, Note_off_c, 0, 40, 63
1, 943074, Note_off_c, 0, 47, 64
1, 943152, Note_on_c, 0, 48, 56
1, 943159, Note_on_c, 0, 51, 52
1, 943185, Note_off_c, 0, 51, 58
1, 943191, Note_off_c, 0, 48, 62
1, 943197, Note_on_c, 0, 47, 47
1, 943236, Note_off_c, 0, 47, 64
1, 943258, Note_on_c, 0, 40, 59
1, 943301, Note_off_c, 0, 40, 65
1, 943397, Note_on_c, 0, 39, 55
1, 943439, Note_off_c, 0, 39, 60
1, 943514, Note_on_c, 0, 40, 48
1, 943552, Note_off_c, 0, 40, 62
1, 943613, Note_on_c, 0, 51, 57
1, 943647, Note_off_c, 0, 51, 60
1, 943743, Note_on_c, 0, 40, 46
1, 943747, Note_on_c, 0, 45, 40
1, 943782, Note_off_c, 0, 40, 62
1, 943805, Note_off_c, 0, 45, 58
1, 943844, Note_on_c, 0, 48, 14
1, 943867, Note_on_c, 0, 39, 50
1, 943873, Note_on_c, 0, 52, 39
1, 943895, Note_off_c, 0, 48, 45
1, 943911, Note_off_c, 0, 39, 56
1, 943913, Note_off_c, 0, 52, 51
1, 943930, Note_on_c, 0, 51, 30
1, 943964, Note_off_c, 0, 51, 53
1, 943967, Note_on_c, 0, 40, 48
1, 943970, Note_on_c, 0, 47, 49
1, 943999, Note_off_c, 0, 47, 62
1, 944000, Note_off_c, 0, 40, 62
1, 944085, Note_on_c, 0, 51, 51
1, 944107, Note_on_c, 0, 48, 52
1, 944123, Note_off_c, 0, 51, 58
1, 944148, Note_off_c, 0, 48, 64
1, 944156, Note_on_c, 0, 47, 56
1, 944200, Note_off_c, 0, 47, 63
1, 944207, Note_on_c, 0, 40, 53
1, 944219, Note_on_c, 0, 45, 67
1, 944247, Note_off_c, 0, 40, 65
1, 944266, Note_on_c, 0, 48, 66
1, 944269, Note_off_c, 0, 45, 59
1, 944323, Note_on_c, 0, 39, 66
1, 944329, Note_on_c, 0, 52, 73
1, 944329, Note_off_c, 0, 48, 64
1, 944357, Note_off_c, 0, 39, 63
1, 944382, Note_on_c, 0, 51, 73
1, 944414, Note_off_c, 0, 52, 64
1, 944426, Note_on_c, 0, 40, 74
1, 944427, Note_on_c, 0, 47, 78
1, 944450, Note_off_c, 0, 51, 64
1, 944455, Note_off_c, 0, 40, 65
1, 944456, Note_off_c, 0, 47, 68
1, 944549, Note_on_c, 0, 51, 72
1, 944554, Note_on_c, 0, 48, 82
1, 944568, Note_on_c, 0, 40, 17
1, 944577, Note_off_c, 0, 51, 65
1, 944600, Note_on_c, 0, 47, 81
1, 944605, Note_off_c, 0, 48, 66
1, 944616, Note_off_c, 0, 40, 26
1, 944659, Note_on_c, 0, 40, 78
1, 944663, Note_on_c, 0, 45, 85
1, 944678, Note_off_c, 0, 47, 60
1, 944695, Note_off_c, 0, 40, 68
1, 944713, Note_off_c, 0, 45, 64
1, 944722, Note_on_c, 0, 48, 73
1, 944779, Note_on_c, 0, 52, 77
1, 944781, Note_off_c, 0, 48, 64
1, 944788, Note_on_c, 0, 40, 61
1, 944819, Note_off_c, 0, 40, 61
1, 944840, Note_on_c, 0, 51, 84
1, 944877, Note_off_c, 0, 52, 65
1, 944886, Note_on_c, 0, 47, 83
1, 944896, Note_on_c, 0, 40, 77
1, 944913, Note_off_c, 0, 51, 64
1, 944921, Note_on_c, 0, 41, 22
1, 944922, Note_off_c, 0, 41, 127
1, 944930, Note_off_c, 0, 40, 69
1, 944932, Note_off_c, 0, 47, 63
1, 945008, Note_on_c, 0, 51, 93
1, 945010, Note_on_c, 0, 48, 96
1, 945033, Note_off_c, 0, 51, 67
1, 945056, Note_on_c, 0, 47, 86
1, 945082, Note_off_c, 0, 48, 65
1, 945107, Note_on_c, 0, 45, 97
1, 945134, Note_off_c, 0, 47, 64
1, 945228, Note_on_c, 0, 36, 99
1, 945251, Note_off_c, 0, 36, 71
1, 945310, Note_off_c, 0, 45, 62
1, 945339, Note_on_c, 0, 37, 115
1, 945367, Note_off_c, 0, 37, 67
1, 945456, Note_on_c, 0, 36, 60
1, 945499, Note_on_c, 0, 37, 70
1, 945513, Note_off_c, 0, 36, 52
1, 945528, Note_on_c, 0, 39, 64
1, 945575, Note_on_c, 0, 40, 80
1, 945577, Note_off_c, 0, 37, 61
1, 945611, Note_off_c, 0, 39, 62
1, 945627, Note_off_c, 0, 40, 60
1, 945697, Note_on_c, 0, 35, 86
1, 945727, Note_off_c, 0, 35, 67
1, 945825, Note_on_c, 0, 36, 90
1, 945854, Note_off_c, 0, 36, 69
1, 945965, Note_on_c, 0, 36, 53
1, 945996, Note_on_c, 0, 37, 64
1, 946004, Note_off_c, 0, 36, 55
1, 946026, Note_on_c, 0, 39, 64
1, 946061, Note_off_c, 0, 37, 62
1, 946067, Note_on_c, 0, 40, 68
1, 946084, Note_off_c, 0, 39, 62
1, 946101, Note_off_c, 0, 40, 64
1, 946184, Note_on_c, 0, 34, 74
1, 946208, Note_off_c, 0, 34, 65
1, 946295, Note_on_c, 0, 35, 84
1, 946316, Note_off_c, 0, 35, 65
1, 946414, Note_on_c, 0, 41, 89
1, 946444, Note_off_c, 0, 41, 68
1, 946536, Note_on_c, 0, 37, 91
1, 946562, Note_off_c, 0, 37, 69
1, 946657, Note_on_c, 0, 34, 72
1, 946684, Note_off_c, 0, 34, 64
1, 946786, Note_on_c, 0, 40, 52
1, 946817, Note_off_c, 0, 40, 56
1, 946907, Note_on_c, 0, 36, 47
1, 946940, Note_off_c, 0, 36, 58
1, 947018, Note_on_c, 0, 33, 45
1, 947051, Note_off_c, 0, 33, 55
1, 947141, Note_on_c, 0, 39, 54
1, 947175, Note_off_c, 0, 39, 63
1, 947251, Note_on_c, 0, 35, 62
1, 947289, Note_off_c, 0, 35, 59
1, 947372, Note_on_c, 0, 32, 42
1, 947382, Note_on_c, 0, 80, 83
1, 947434, Note_on_c, 0, 79, 88
1, 947437, Note_off_c, 0, 32, 44
1, 947442, Note_off_c, 0, 80, 66
1, 947450, Note_on_c, 0, 31, 43
1, 947472, Note_on_c, 0, 32, 83
1, 947481, Note_on_c, 0, 80, 103
1, 947498, Note_off_c, 0, 31, 62
1, 947500, Note_off_c, 0, 79, 68
1, 947557, Note_off_c, 0, 80, 66
1, 947558, Control_c, 0, 64, 44
1, 947573, Control_c, 0, 64, 127
1, 947596, Note_off_c, 0, 32, 60
1, 947602, Note_on_c, 0, 80, 88
1, 947644, Note_off_c, 0, 80, 66
1, 947714, Note_on_c, 0, 80, 92
1, 947756, Note_off_c, 0, 80, 62
1, 947852, Note_on_c, 0, 80, 82
1, 947864, Note_on_c, 0, 68, 61
1, 947865, Note_on_c, 0, 59, 52
1, 947871, Note_on_c, 0, 63, 48
1, 947880, Note_off_c, 0, 80, 61
1, 947892, Note_off_c, 0, 68, 63
1, 947894, Note_off_c, 0, 63, 59
1, 947897, Note_off_c, 0, 59, 64
1, 947968, Note_on_c, 0, 80, 93
1, 947972, Note_on_c, 0, 59, 65
1, 947972, Note_on_c, 0, 63, 61
1, 947972, Note_on_c, 0, 68, 68
1, 948001, Note_off_c, 0, 59, 66
1, 948003, Note_off_c, 0, 63, 66
1, 948006, Note_off_c, 0, 68, 64
1, 948008, Note_off_c, 0, 80, 64
1, 948084, Control_c, 0, 64, 93
1, 948087, Note_on_c, 0, 68, 89
1, 948089, Note_on_c, 0, 80, 104
1, 948093, Note_on_c, 0, 63, 75
1, 948094, Note_on_c, 0, 59, 76
1, 948099, Control_c, 0, 64, 79
1, 948114, Control_c, 0, 64, 68
1, 948117, Note_off_c, 0, 59, 69
1, 948118, Note_off_c, 0, 63, 68
1, 948118, Note_off_c, 0, 68, 58
1, 948126, Note_off_c, 0, 80, 67
1, 948129, Control_c, 0, 64, 59
1, 948143, Control_c, 0, 64, 45
1, 948158, Control_c, 0, 64, 37
1, 948173, Control_c, 0, 64, 33
1, 948188, Control_c, 0, 64, 28
1, 948201, Note_on_c, 0, 80, 107
1, 948203, Control_c, 0, 64, 25
1, 948207, Note_on_c, 0, 68, 94
1, 948213, Note_on_c, 0, 63, 73
1, 948215, Note_on_c, 0, 59, 74
1, 948217, Control_c, 0, 64, 24
1, 948230, Note_off_c, 0, 80, 69
1, 948231, Note_off_c, 0, 68, 64
1, 948232, Control_c, 0, 64, 24
1, 948234, Note_off_c, 0, 59, 65
1, 948237, Note_off_c, 0, 63, 68
1, 948247, Control_c, 0, 64, 23
1, 948262, Control_c, 0, 64, 22
1, 948277, Control_c, 0, 64, 22
1, 948291, Control_c, 0, 64, 21
1, 948310, Note_on_c, 0, 80, 107
1, 948311, Note_on_c, 0, 59, 73
1, 948312, Note_on_c, 0, 68, 93
1, 948314, Note_on_c, 0, 63, 70
1, 948332, Note_off_c, 0, 68, 69
1, 948340, Note_off_c, 0, 59, 67
1, 948343, Note_off_c, 0, 63, 65
1, 948347, Note_off_c, 0, 80, 67
1, 948422, Note_on_c, 0, 80, 106
1, 948430, Note_on_c, 0, 67, 93
1, 948431, Note_on_c, 0, 62, 86
1, 948436, Note_on_c, 0, 59, 72
1, 948455, Control_c, 0, 64, 20
1, 948457, Note_off_c, 0, 67, 65
1, 948461, Note_off_c, 0, 59, 68
1, 948464, Note_off_c, 0, 62, 62
1, 948485, Control_c, 0, 64, 19
1, 948491, Note_on_c, 0, 82, 84
1, 948499, Control_c, 0, 64, 18
1, 948508, Note_off_c, 0, 80, 64
1, 948514, Control_c, 0, 64, 14
1, 948529, Control_c, 0, 64, 0
1, 948544, Note_on_c, 0, 83, 82
1, 948544, Note_off_c, 0, 82, 66
1, 948560, Note_on_c, 0, 67, 70
1, 948580, Note_on_c, 0, 62, 56
1, 948583, Note_on_c, 0, 59, 42
1, 948593, Note_off_c, 0, 67, 68
1, 948602, Note_off_c, 0, 62, 62
1, 948611, Note_off_c, 0, 59, 53
1, 948615, Note_on_c, 0, 80, 80
1, 948638, Note_off_c, 0, 83, 62
1, 948677, Note_on_c, 0, 75, 79
1, 948678, Note_on_c, 0, 67, 71
1, 948680, Note_on_c, 0, 62, 61
1, 948681, Note_on_c, 0, 59, 65
1, 948681, Note_off_c, 0, 80, 64
1, 948706, Note_off_c, 0, 67, 64
1, 948710, Note_off_c, 0, 75, 57
1, 948713, Note_off_c, 0, 62, 65
1, 948716, Note_off_c, 0, 59, 63
1, 948718, Note_on_c, 0, 83, 74
1, 948776, Note_on_c, 0, 80, 74
1, 948788, Note_on_c, 0, 67, 64
1, 948793, Note_on_c, 0, 62, 55
1, 948809, Note_off_c, 0, 83, 64
1, 948812, Note_on_c, 0, 75, 83
1, 948819, Note_off_c, 0, 67, 64
1, 948825, Note_off_c, 0, 62, 65
1, 948845, Note_off_c, 0, 80, 64
1, 948866, Poly_aftertouch_c, 0, 59, 0
1, 948881, Note_on_c, 0, 74, 94
1, 948893, Note_on_c, 0, 59, 19
1, 948901, Note_on_c, 0, 67, 67
1, 948907, Note_on_c, 0, 62, 58
1, 948911, Note_off_c, 0, 75, 62
1, 948938, Note_off_c, 0, 67, 58
1, 948940, Note_off_c, 0, 62, 65
1, 948952, Note_off_c, 0, 59, 62
1, 949011, Control_c, 0, 64, 59
1, 949021, Note_on_c, 0, 62, 62
1, 949026, Control_c, 0, 64, 70
1, 949031, Note_on_c, 0, 67, 58
1, 949041, Control_c, 0, 64, 90
1, 949048, Note_on_c, 0, 59, 30
1, 949052, Note_off_c, 0, 62, 65
1, 949056, Control_c, 0, 64, 127
1, 949060, Note_off_c, 0, 67, 63
1, 949062, Note_off_c, 0, 74, 63
1, 949085, Note_off_c, 0, 59, 44
1, 949132, Note_on_c, 0, 67, 68
1, 949140, Note_on_c, 0, 62, 54
1, 949164, Note_off_c, 0, 67, 64
1, 949169, Note_off_c, 0, 62, 64
1, 949179, Note_on_c, 0, 59, 29
1, 949218, Note_off_c, 0, 59, 42
1, 949250, Note_on_c, 0, 62, 57
1, 949264, Note_on_c, 0, 71, 72
1, 949268, Note_on_c, 0, 67, 55
1, 949286, Note_on_c, 0, 59, 19
1, 949289, Note_off_c, 0, 62, 62
1, 949303, Note_off_c, 0, 71, 59
1, 949306, Note_on_c, 0, 65, 69
1, 949307, Note_off_c, 0, 67, 59
1, 949360, Control_c, 0, 64, 105
1, 949362, Note_off_c, 0, 65, 51
1, 949364, Note_off_c, 0, 59, 0
1, 949365, Note_on_c, 0, 70, 85
1, 949366, Note_on_c, 0, 67, 61
1, 949373, Note_on_c, 0, 62, 69
1, 949375, Control_c, 0, 64, 75
1, 949378, Note_on_c, 0, 59, 42
1, 949389, Note_off_c, 0, 70, 66
1, 949389, Control_c, 0, 64, 47
1, 949400, Note_off_c, 0, 67, 65
1, 949401, Note_off_c, 0, 62, 69
1, 949404, Control_c, 0, 64, 0
1, 949405, Note_off_c, 0, 59, 58
1, 949485, Note_on_c, 0, 62, 58
1, 949487, Note_on_c, 0, 67, 64
1, 949492, Note_on_c, 0, 59, 57
1, 949509, Note_on_c, 0, 70, 54
1, 949519, Note_off_c, 0, 62, 64
1, 949519, Note_off_c, 0, 67, 64
1, 949526, Note_off_c, 0, 59, 62
1, 949532, Note_off_c, 0, 70, 38
1, 949611, Note_on_c, 0, 67, 70
1, 949614, Note_on_c, 0, 61, 90
1, 949620, Note_on_c, 0, 59, 50
1, 949623, Note_on_c, 0, 62, 45
1, 949645, Note_off_c, 0, 67, 61
1, 949648, Note_off_c, 0, 61, 62
1, 949653, Note_off_c, 0, 59, 61
1, 949653, Note_off_c, 0, 62, 65
1, 949730, Note_on_c, 0, 62, 62
1, 949733, Note_on_c, 0, 70, 78
1, 949741, Note_on_c, 0, 67, 60
1, 949742, Note_on_c, 0, 59, 52
1, 949760, Note_off_c, 0, 70, 62
1, 949762, Note_off_c, 0, 62, 65
1, 949768, Note_off_c, 0, 59, 60
1, 949772, Note_off_c, 0, 67, 64
1, 949838, Note_on_c, 0, 67, 72
1, 949844, Note_on_c, 0, 62, 61
1, 949845, Note_on_c, 0, 59, 62
1, 949846, Note_on_c, 0, 58, 85
1, 949870, Note_off_c, 0, 58, 65
1, 949875, Note_off_c, 0, 67, 63
1, 949876, Note_off_c, 0, 62, 65
1, 949878, Note_off_c, 0, 59, 63
1, 949961, Note_on_c, 0, 62, 57
1, 949962, Note_on_c, 0, 59, 56
1, 949965, Note_on_c, 0, 61, 71
1, 949972, Note_on_c, 0, 67, 58
1, 949989, Note_on_c, 0, 70, 59
1, 949992, Note_off_c, 0, 61, 68
1, 949993, Note_off_c, 0, 59, 64
1, 949995, Note_off_c, 0, 62, 65
1, 949999, Note_off_c, 0, 67, 63
1, 950017, Note_off_c, 0, 70, 56
1, 950069, Note_on_c, 0, 61, 90
1, 950069, Note_on_c, 0, 67, 74
1, 950081, Note_on_c, 0, 59, 63
1, 950082, Note_on_c, 0, 62, 65
1, 950109, Note_off_c, 0, 67, 64
1, 950114, Note_off_c, 0, 59, 65
1, 950114, Note_off_c, 0, 62, 65
1, 950127, Note_off_c, 0, 61, 62
1, 950183, Note_on_c, 0, 70, 92
1, 950189, Note_on_c, 0, 67, 71
1, 950193, Note_on_c, 0, 59, 64
1, 950203, Note_off_c, 0, 70, 70
1, 950204, Note_on_c, 0, 62, 42
1, 950212, Note_off_c, 0, 67, 69
1, 950221, Note_off_c, 0, 59, 64
1, 950234, Note_off_c, 0, 62, 37
1, 950307, Note_on_c, 0, 59, 75
1, 950307, Note_on_c, 0, 68, 93
1, 950307, Note_on_c, 0, 72, 107
1, 950311, Note_on_c, 0, 63, 81
1, 950338, Note_off_c, 0, 68, 58
1, 950342, Note_off_c, 0, 59, 64
1, 950342, Note_off_c, 0, 63, 64
1, 950344, Note_on_c, 0, 73, 76
1, 950355, Note_off_c, 0, 72, 65
1, 950404, Note_on_c, 0, 70, 85
1, 950423, Note_on_c, 0, 59, 59
1, 950428, Note_off_c, 0, 73, 63
1, 950429, Note_on_c, 0, 68, 59
1, 950446, Note_on_c, 0, 63, 39
1, 950453, Note_off_c, 0, 68, 60
1, 950459, Note_on_c, 0, 69, 84
1, 950461, Note_off_c, 0, 59, 63
1, 950464, Note_off_c, 0, 70, 66
1, 950473, Note_off_c, 0, 63, 53
1, 950484, Note_off_c, 0, 69, 67
1, 950519, Note_on_c, 0, 68, 72
1, 950519, Note_on_c, 0, 71, 107
1, 950532, Note_on_c, 0, 63, 61
1, 950544, Note_off_c, 0, 68, 67
1, 950553, Note_off_c, 0, 63, 63
1, 950645, Note_on_c, 0, 51, 75
1, 950672, Note_off_c, 0, 51, 67
1, 950738, Note_off_c, 0, 71, 65
1, 950753, Note_on_c, 0, 56, 114
1, 950776, Control_c, 0, 64, 77
1, 950782, Note_off_c, 0, 56, 71
1, 950791, Control_c, 0, 64, 127
1, 950884, Note_on_c, 0, 80, 74
1, 950912, Note_off_c, 0, 80, 67
1, 950922, Note_on_c, 0, 79, 79
1, 950929, Note_on_c, 0, 31, 72
1, 950946, Control_c, 0, 64, 72
1, 950954, Note_off_c, 0, 79, 65
1, 950961, Control_c, 0, 64, 0
1, 950986, Note_on_c, 0, 80, 104
1, 950991, Note_on_c, 0, 32, 86
1, 950998, Note_off_c, 0, 31, 66
1, 951022, Note_on_c, 0, 34, 47
1, 951054, Note_off_c, 0, 80, 63
1, 951061, Note_off_c, 0, 34, 34
1, 951065, Control_c, 0, 64, 60
1, 951080, Control_c, 0, 64, 74
1, 951089, Note_off_c, 0, 32, 59
1, 951095, Control_c, 0, 64, 116
1, 951109, Control_c, 0, 64, 127
1, 951118, Note_on_c, 0, 80, 80
1, 951168, Note_off_c, 0, 80, 63
1, 951232, Note_on_c, 0, 80, 79
1, 951264, Note_off_c, 0, 80, 60
1, 951353, Note_on_c, 0, 80, 80
1, 951361, Control_c, 0, 64, 109
1, 951363, Note_on_c, 0, 68, 69
1, 951366, Note_on_c, 0, 59, 60
1, 951376, Control_c, 0, 64, 98
1, 951379, Note_on_c, 0, 63, 44
1, 951389, Note_off_c, 0, 80, 59
1, 951391, Control_c, 0, 64, 91
1, 951392, Note_off_c, 0, 68, 66
1, 951398, Note_off_c, 0, 59, 63
1, 951403, Note_off_c, 0, 63, 56
1, 951405, Control_c, 0, 64, 85
1, 951420, Control_c, 0, 64, 80
1, 951435, Control_c, 0, 64, 73
1, 951450, Control_c, 0, 64, 69
1, 951465, Control_c, 0, 64, 65
1, 951477, Note_on_c, 0, 80, 92
1, 951477, Note_on_c, 0, 63, 66
1, 951480, Control_c, 0, 64, 62
1, 951480, Note_on_c, 0, 59, 58
1, 951481, Note_on_c, 0, 68, 73
1, 951494, Control_c, 0, 64, 57
1, 951509, Control_c, 0, 64, 50
1, 951510, Note_off_c, 0, 63, 66
1, 951512, Note_off_c, 0, 68, 66
1, 951514, Note_off_c, 0, 59, 65
1, 951514, Note_off_c, 0, 80, 62
1, 951525, Control_c, 0, 64, 35
1, 951540, Control_c, 0, 64, 21
1, 951555, Control_c, 0, 64, 0
1, 951597, Note_on_c, 0, 68, 88
1, 951599, Note_on_c, 0, 80, 104
1, 951601, Note_on_c, 0, 63, 80
1, 951604, Note_on_c, 0, 59, 67
1, 951629, Note_off_c, 0, 63, 67
1, 951631, Note_off_c, 0, 59, 68
1, 951631, Note_off_c, 0, 68, 61
1, 951637, Note_off_c, 0, 80, 67
1, 951710, Note_on_c, 0, 80, 112
1, 951715, Note_on_c, 0, 68, 90
1, 951719, Note_on_c, 0, 63, 81
1, 951723, Note_on_c, 0, 59, 70
1, 951739, Note_off_c, 0, 80, 69
1, 951740, Note_off_c, 0, 68, 66
1, 951742, Note_off_c, 0, 63, 66
1, 951751, Note_off_c, 0, 59, 67
1, 951819, Note_on_c, 0, 80, 108
1, 951821, Note_on_c, 0, 68, 88
1, 951823, Note_on_c, 0, 59, 73
1, 951825, Note_on_c, 0, 63, 68
1, 951841, Note_off_c, 0, 68, 71
1, 951850, Note_off_c, 0, 59, 66
1, 951853, Note_off_c, 0, 63, 66
1, 951859, Note_off_c, 0, 80, 67
1, 951933, Note_on_c, 0, 80, 101
1, 951938, Note_on_c, 0, 67, 92
1, 951939, Note_on_c, 0, 59, 76
1, 951941, Note_on_c, 0, 62, 85
1, 951951, Note_on_c, 0, 79, 88
1, 951962, Control_c, 0, 64, 12
1, 951974, Note_off_c, 0, 59, 67
1, 951976, Control_c, 0, 64, 57
1, 951978, Note_off_c, 0, 67, 61
1, 951979, Note_off_c, 0, 62, 60
1, 951991, Control_c, 0, 64, 61
1, 951992, Note_on_c, 0, 82, 74
1, 952002, Note_off_c, 0, 79, 63
1, 952005, Note_off_c, 0, 80, 61
1, 952006, Control_c, 0, 64, 61
1, 952021, Control_c, 0, 64, 60
1, 952036, Control_c, 0, 64, 56
1, 952050, Note_off_c, 0, 82, 67
1, 952050, Control_c, 0, 64, 45
1, 952056, Note_on_c, 0, 83, 87
1, 952065, Control_c, 0, 64, 16
1, 952067, Note_on_c, 0, 67, 73
1, 952067, Note_on_c, 0, 62, 69
1, 952080, Control_c, 0, 64, 0
1, 952082, Note_on_c, 0, 59, 51
1, 952091, Note_off_c, 0, 67, 68
1, 952094, Note_off_c, 0, 62, 67
1, 952111, Note_off_c, 0, 59, 55
1, 952119, Note_on_c, 0, 80, 81
1, 952148, Note_off_c, 0, 83, 63
1, 952174, Note_on_c, 0, 75, 85
1, 952177, Note_on_c, 0, 67, 74
1, 952183, Note_on_c, 0, 59, 64
1, 952186, Note_off_c, 0, 80, 64
1, 952190, Note_on_c, 0, 62, 57
1, 952210, Note_off_c, 0, 67, 61
1, 952216, Note_off_c, 0, 59, 65
1, 952221, Note_off_c, 0, 62, 65
1, 952226, Note_off_c, 0, 75, 61
1, 952228, Note_on_c, 0, 83, 80
1, 952280, Note_on_c, 0, 80, 81
1, 952292, Note_on_c, 0, 59, 59
1, 952293, Note_on_c, 0, 67, 73
1, 952294, Note_on_c, 0, 62, 64
1, 952313, Note_on_c, 0, 75, 86
1, 952326, Note_off_c, 0, 83, 65
1, 952335, Note_off_c, 0, 67, 60
1, 952336, Note_off_c, 0, 62, 65
1, 952338, Note_off_c, 0, 59, 64
1, 952368, Note_off_c, 0, 80, 64
1, 952398, Note_on_c, 0, 74, 99
1, 952411, Note_on_c, 0, 67, 81
1, 952413, Note_on_c, 0, 59, 69
1, 952414, Note_on_c, 0, 62, 69
1, 952428, Note_off_c, 0, 75, 60
1, 952445, Control_c, 0, 64, 12
1, 952446, Note_off_c, 0, 59, 64
1, 952450, Note_off_c, 0, 62, 65
1, 952459, Note_off_c, 0, 67, 60
1, 952460, Control_c, 0, 64, 70
1, 952474, Control_c, 0, 64, 97
1, 952489, Control_c, 0, 64, 127
1, 952519, Note_on_c, 0, 67, 86
1, 952523, Note_on_c, 0, 59, 85
1, 952525, Note_on_c, 0, 62, 85
1, 952547, Note_off_c, 0, 74, 64
1, 952563, Note_off_c, 0, 67, 65
1, 952567, Note_off_c, 0, 59, 60
1, 952567, Note_off_c, 0, 62, 61
1, 952628, Note_on_c, 0, 67, 93
1, 952630, Note_on_c, 0, 62, 82
1, 952631, Note_on_c, 0, 59, 79
1, 952632, Note_on_c, 0, 79, 87
1, 952662, Note_on_c, 0, 83, 82
1, 952673, Note_off_c, 0, 79, 66
1, 952676, Note_off_c, 0, 59, 60
1, 952681, Note_off_c, 0, 67, 63
1, 952690, Note_off_c, 0, 62, 62
1, 952696, Note_on_c, 0, 86, 90
1, 952726, Control_c, 0, 64, 104
1, 952729, Note_on_c, 0, 91, 107
1, 952729, Note_off_c, 0, 83, 64
1, 952730, Note_on_c, 0, 62, 65
1, 952731, Note_on_c, 0, 67, 85
1, 952732, Note_on_c, 0, 59, 74
1, 952741, Control_c, 0, 64, 65
1, 952744, Note_off_c, 0, 86, 69
1, 952756, Control_c, 0, 64, 0
1, 952766, Note_off_c, 0, 91, 69
1, 952771, Note_off_c, 0, 67, 66
1, 952773, Note_off_c, 0, 59, 61
1, 952789, Note_off_c, 0, 62, 63
1, 952869, Note_on_c, 0, 101, 105
1, 952878, Note_on_c, 0, 70, 82
1, 952883, Note_on_c, 0, 59, 65
1, 952887, Note_on_c, 0, 62, 57
1, 952905, Note_off_c, 0, 70, 61
1, 952916, Note_off_c, 0, 59, 65
1, 952928, Note_off_c, 0, 62, 61
1, 952935, Note_on_c, 0, 100, 87
1, 952961, Note_off_c, 0, 101, 64
1, 952988, Note_on_c, 0, 98, 81
1, 952996, Note_on_c, 0, 69, 55
1, 953016, Note_on_c, 0, 59, 41
1, 953018, Note_off_c, 0, 69, 62
1, 953027, Note_on_c, 0, 62, 38
1, 953030, Note_off_c, 0, 100, 64
1, 953046, Note_off_c, 0, 59, 50
1, 953051, Note_on_c, 0, 97, 88
1, 953055, Note_off_c, 0, 62, 53
1, 953060, Note_off_c, 0, 98, 66
1, 953108, Note_on_c, 0, 68, 75
1, 953113, Note_off_c, 0, 97, 64
1, 953118, Note_on_c, 0, 95, 84
1, 953132, Note_on_c, 0, 59, 47
1, 953141, Note_off_c, 0, 68, 58
1, 953149, Note_on_c, 0, 62, 28
1, 953158, Note_off_c, 0, 59, 59
1, 953177, Note_off_c, 0, 62, 49
1, 953178, Note_off_c, 0, 95, 63
1, 953182, Note_on_c, 0, 94, 81
1, 953227, Note_on_c, 0, 67, 75
1, 953231, Note_on_c, 0, 59, 63
1, 953233, Note_on_c, 0, 92, 84
1, 953256, Note_on_c, 0, 62, 42
1, 953264, Note_off_c, 0, 67, 59
1, 953264, Note_off_c, 0, 94, 64
1, 953268, Note_off_c, 0, 59, 61
1, 953282, Note_off_c, 0, 62, 59
1, 953283, Note_on_c, 0, 90, 83
1, 953301, Note_off_c, 0, 92, 66
1, 953339, Note_off_c, 0, 90, 65
1, 953343, Note_on_c, 0, 88, 81
1, 953346, Note_on_c, 0, 66, 81
1, 953349, Note_on_c, 0, 59, 68
1, 953349, Note_on_c, 0, 62, 73
1, 953379, Note_off_c, 0, 66, 62
1, 953380, Note_off_c, 0, 59, 66
1, 953388, Note_off_c, 0, 62, 62
1, 953401, Note_on_c, 0, 87, 88
1, 953408, Note_off_c, 0, 88, 64
1, 953454, Note_on_c, 0, 65, 88
1, 953460, Note_on_c, 0, 59, 72
1, 953462, Note_on_c, 0, 85, 90
1, 953465, Note_on_c, 0, 62, 70
1, 953478, Note_off_c, 0, 87, 64
1, 953486, Note_off_c, 0, 65, 63
1, 953492, Note_off_c, 0, 59, 65
1, 953495, Note_off_c, 0, 62, 66
1, 953513, Note_off_c, 0, 85, 67
1, 953516, Note_on_c, 0, 83, 84
1, 953566, Note_on_c, 0, 66, 93
1, 953571, Note_on_c, 0, 62, 81
1, 953572, Note_on_c, 0, 82, 91
1, 953576, Note_on_c, 0, 59, 72
1, 953580, Note_off_c, 0, 83, 62
1, 953603, Note_off_c, 0, 59, 66
1, 953603, Note_off_c, 0, 62, 62
1, 953608, Note_off_c, 0, 66, 65
1, 953620, Note_on_c, 0, 80, 78
1, 953659, Note_off_c, 0, 82, 59
1, 953668, Note_on_c, 0, 78, 91
1, 953671, Note_on_c, 0, 59, 74
1, 953672, Note_on_c, 0, 67, 90
1, 953682, Note_on_c, 0, 62, 69
1, 953693, Note_off_c, 0, 80, 64
1, 953709, Note_off_c, 0, 67, 62
1, 953710, Note_off_c, 0, 62, 64
1, 953710, Note_off_c, 0, 59, 63
1, 953715, Note_on_c, 0, 76, 81
1, 953716, Note_off_c, 0, 78, 65
1, 953741, Note_off_c, 0, 76, 68
1, 953777, Note_on_c, 0, 68, 95
1, 953780, Note_on_c, 0, 75, 83
1, 953781, Note_on_c, 0, 59, 85
1, 953781, Note_on_c, 0, 63, 83
1, 953785, Control_c, 0, 64, 31
1, 953791, Note_on_c, 0, 76, 76
1, 953800, Control_c, 0, 64, 68
1, 953807, Note_off_c, 0, 59, 65
1, 953813, Note_on_c, 0, 69, 49
1, 953815, Control_c, 0, 64, 127
1, 953828, Note_off_c, 0, 68, 63
1, 953838, Note_off_c, 0, 63, 62
1, 953846, Note_off_c, 0, 69, 59
1, 953847, Note_on_c, 0, 71, 65
1, 953851, Note_on_c, 0, 72, 61
1, 953857, Note_off_c, 0, 76, 62
1, 953861, Note_off_c, 0, 75, 60
1, 953879, Note_off_c, 0, 72, 66
1, 953892, Note_on_c, 0, 67, 84
1, 953896, Note_off_c, 0, 71, 62
1, 953906, Note_on_c, 0, 58, 79
1, 953926, Note_on_c, 0, 68, 67
1, 953927, Control_c, 0, 64, 78
1, 953936, Note_off_c, 0, 58, 64
1, 953940, Note_off_c, 0, 68, 69
1, 953942, Control_c, 0, 64, 58
1, 953944, Note_on_c, 0, 71, 63
1, 953947, Note_off_c, 0, 67, 60
1, 953957, Control_c, 0, 64, 0
1, 953993, Note_on_c, 0, 68, 91
1, 953995, Note_on_c, 0, 63, 64
1, 954001, Note_on_c, 0, 75, 98
1, 954018, Note_off_c, 0, 68, 67
1, 954020, Note_on_c, 0, 59, 44
1, 954022, Note_off_c, 0, 71, 65
1, 954028, Note_off_c, 0, 63, 64
1, 954049, Note_off_c, 0, 59, 51
1, 954127, Note_on_c, 0, 51, 92
1, 954154, Note_off_c, 0, 51, 66
1, 954237, Note_on_c, 0, 55, 100
1, 954239, Control_c, 0, 64, 78
1, 954243, Note_off_c, 0, 75, 64
1, 954253, Control_c, 0, 64, 127
1, 954255, Note_off_c, 0, 55, 73
1, 954256, Note_on_c, 0, 54, 61
1, 954257, Note_off_c, 0, 54, 127
1, 954337, Poly_aftertouch_c, 0, 56, 0
1, 954376, Note_on_c, 0, 80, 79
1, 954390, Note_on_c, 0, 32, 73
1, 954413, Note_off_c, 0, 80, 60
1, 954416, Control_c, 0, 64, 71
1, 954417, Note_on_c, 0, 79, 82
1, 954419, Note_off_c, 0, 32, 64
1, 954431, Note_on_c, 0, 31, 54
1, 954431, Control_c, 0, 64, 0
1, 954464, Note_off_c, 0, 79, 0
1, 954470, Note_on_c, 0, 32, 97
1, 954471, Note_on_c, 0, 80, 104
1, 954492, Note_off_c, 0, 31, 60
1, 954502, Poly_aftertouch_c, 0, 79, 0
1, 954517, Note_off_c, 0, 80, 67
1, 954520, Control_c, 0, 64, 62
1, 954525, Note_off_c, 0, 32, 65
1, 954535, Control_c, 0, 64, 127
1, 954609, Note_on_c, 0, 92, 87
1, 954612, Note_on_c, 0, 80, 79
1, 954634, Note_off_c, 0, 80, 69
1, 954637, Note_off_c, 0, 92, 62
1, 954717, Note_on_c, 0, 80, 81
1, 954760, Note_off_c, 0, 80, 60
1, 954765, Control_c, 0, 64, 125
1, 954780, Control_c, 0, 64, 103
1, 954795, Control_c, 0, 64, 90
1, 954810, Control_c, 0, 64, 84
1, 954825, Control_c, 0, 64, 78
1, 954839, Control_c, 0, 64, 73
1, 954845, Note_on_c, 0, 80, 85
1, 954845, Note_on_c, 0, 92, 89
1, 954847, Note_on_c, 0, 68, 72
1, 954854, Control_c, 0, 64, 67
1, 954857, Note_on_c, 0, 63, 54
1, 954869, Note_off_c, 0, 80, 67
1, 954869, Control_c, 0, 64, 61
1, 954869, Note_off_c, 0, 92, 65
1, 954872, Note_off_c, 0, 68, 68
1, 954874, Note_on_c, 0, 59, 20
1, 954878, Note_off_c, 0, 63, 59
1, 954884, Control_c, 0, 64, 50
1, 954899, Control_c, 0, 64, 37
1, 954913, Note_off_c, 0, 59, 31
1, 954914, Control_c, 0, 64, 21
1, 954929, Control_c, 0, 64, 0
1, 954957, Note_on_c, 0, 68, 86
1, 954959, Note_on_c, 0, 63, 65
1, 954962, Note_on_c, 0, 80, 100
1, 954962, Note_on_c, 0, 92, 101
1, 954972, Note_on_c, 0, 59, 61
1, 954981, Note_off_c, 0, 68, 67
1, 954986, Note_off_c, 0, 63, 68
1, 954992, Note_off_c, 0, 59, 63
1, 954997, Note_off_c, 0, 92, 67
1, 955004, Note_off_c, 0, 80, 62
1, 955066, Note_on_c, 0, 68, 96
1, 955067, Note_on_c, 0, 59, 77
1, 955068, Note_on_c, 0, 63, 72
1, 955072, Note_on_c, 0, 80, 108
1, 955075, Note_on_c, 0, 92, 104
1, 955096, Note_off_c, 0, 63, 68
1, 955096, Note_off_c, 0, 68, 61
1, 955097, Note_off_c, 0, 59, 64
1, 955103, Note_off_c, 0, 92, 64
1, 955111, Note_off_c, 0, 80, 66
1, 955187, Note_on_c, 0, 68, 94
1, 955189, Note_on_c, 0, 80, 106
1, 955191, Note_on_c, 0, 63, 80
1, 955194, Note_on_c, 0, 59, 81
1, 955209, Note_off_c, 0, 68, 68
1, 955209, Control_c, 0, 64, 9
1, 955214, Note_off_c, 0, 63, 69
1, 955218, Note_off_c, 0, 59, 69
1, 955230, Note_off_c, 0, 80, 66
1, 955293, Note_on_c, 0, 68, 92
1, 955299, Note_on_c, 0, 80, 98
1, 955300, Note_on_c, 0, 59, 71
1, 955300, Note_on_c, 0, 63, 65
1, 955300, Note_on_c, 0, 92, 98
1, 955322, Note_off_c, 0, 68, 68
1, 955324, Note_off_c, 0, 92, 75
1, 955327, Note_off_c, 0, 80, 67
1, 955334, Note_off_c, 0, 59, 67
1, 955334, Note_off_c, 0, 63, 67
1, 955365, Control_c, 0, 64, 0
1, 955419, Note_on_c, 0, 80, 94
1, 955424, Note_on_c, 0, 67, 92
1, 955425, Note_on_c, 0, 59, 65
1, 955435, Note_on_c, 0, 62, 73
1, 955436, Note_on_c, 0, 63, 36
1, 955462, Note_off_c, 0, 62, 68
1, 955465, Note_off_c, 0, 59, 65
1, 955466, Note_off_c, 0, 67, 63
1, 955467, Note_off_c, 0, 63, 61
1, 955492, Note_on_c, 0, 82, 74
1, 955498, Note_off_c, 0, 80, 62
1, 955545, Note_on_c, 0, 83, 76
1, 955546, Note_on_c, 0, 62, 69
1, 955552, Note_on_c, 0, 67, 73
1, 955567, Note_off_c, 0, 82, 64
1, 955577, Note_off_c, 0, 67, 67
1, 955579, Note_off_c, 0, 62, 64
1, 955583, Note_on_c, 0, 59, 27
1, 955602, Note_on_c, 0, 80, 84
1, 955618, Note_off_c, 0, 83, 63
1, 955624, Note_off_c, 0, 59, 30
1, 955655, Note_off_c, 0, 80, 64
1, 955656, Note_on_c, 0, 67, 73
1, 955665, Note_on_c, 0, 75, 84
1, 955677, Note_on_c, 0, 62, 52
1, 955683, Note_off_c, 0, 67, 66
1, 955701, Note_off_c, 0, 62, 59
1, 955709, Note_off_c, 0, 75, 63
1, 955715, Note_on_c, 0, 59, 2
1, 955719, Note_off_c, 0, 59, 44
1, 955720, Note_on_c, 0, 83, 81
1, 955771, Note_on_c, 0, 67, 72
1, 955773, Note_on_c, 0, 62, 62
1, 955776, Note_on_c, 0, 80, 79
1, 955802, Note_off_c, 0, 67, 63
1, 955803, Note_off_c, 0, 62, 66
1, 955803, Note_off_c, 0, 83, 63
1, 955819, Note_on_c, 0, 75, 80
1, 955846, Poly_aftertouch_c, 0, 59, 0
1, 955868, Note_off_c, 0, 80, 64
1, 955886, Note_on_c, 0, 74, 93
1, 955890, Note_on_c, 0, 62, 56
1, 955894, Note_on_c, 0, 67, 71
1, 955902, Note_on_c, 0, 59, 47
1, 955916, Note_off_c, 0, 75, 62
1, 955922, Note_off_c, 0, 62, 65
1, 955924, Note_off_c, 0, 67, 63
1, 955931, Note_off_c, 0, 59, 61
1, 955974, Control_c, 0, 64, 31
1, 955989, Control_c, 0, 64, 57
1, 956004, Control_c, 0, 64, 65
1, 956011, Note_on_c, 0, 59, 63
1, 956012, Note_on_c, 0, 67, 71
1, 956013, Note_on_c, 0, 62, 52
1, 956018, Control_c, 0, 64, 79
1, 956033, Control_c, 0, 64, 127
1, 956038, Note_off_c, 0, 67, 67
1, 956044, Note_off_c, 0, 59, 64
1, 956047, Note_off_c, 0, 62, 64
1, 956073, Note_off_c, 0, 74, 61
1, 956127, Note_on_c, 0, 62, 77
1, 956127, Note_on_c, 0, 67, 77
1, 956133, Note_on_c, 0, 59, 60
1, 956158, Note_off_c, 0, 67, 62
1, 956165, Note_off_c, 0, 59, 65
1, 956166, Note_off_c, 0, 62, 61
1, 956250, Note_on_c, 0, 67, 67
1, 956253, Note_on_c, 0, 59, 49
1, 956258, Note_on_c, 0, 62, 54
1, 956263, Note_on_c, 0, 71, 84
1, 956279, Note_off_c, 0, 67, 66
1, 956279, Note_off_c, 0, 62, 63
1, 956285, Note_off_c, 0, 59, 61
1, 956312, Note_on_c, 0, 65, 80
1, 956312, Note_off_c, 0, 71, 64
1, 956347, Note_on_c, 0, 67, 75
1, 956349, Note_on_c, 0, 62, 72
1, 956357, Note_on_c, 0, 70, 104
1, 956368, Control_c, 0, 64, 81
1, 956374, Note_on_c, 0, 59, 60
1, 956376, Note_off_c, 0, 65, 65
1, 956383, Control_c, 0, 64, 59
1, 956390, Note_off_c, 0, 70, 69
1, 956396, Note_off_c, 0, 62, 62
1, 956396, Note_off_c, 0, 67, 62
1, 956397, Note_off_c, 0, 59, 59
1, 956397, Control_c, 0, 64, 0
1, 956479, Note_on_c, 0, 59, 53
1, 956480, Note_on_c, 0, 67, 69
1, 956486, Note_on_c, 0, 62, 53
1, 956496, Note_on_c, 0, 70, 86
1, 956509, Note_off_c, 0, 67, 67
1, 956521, Note_off_c, 0, 62, 64
1, 956524, Note_off_c, 0, 59, 59
1, 956536, Note_on_c, 0, 61, 85
1, 956540, Note_off_c, 0, 70, 63
1, 956579, Note_on_c, 0, 68, 29
1, 956594, Note_on_c, 0, 54, 98
1, 956596, Note_on_c, 0, 67, 74
1, 956598, Note_on_c, 0, 62, 66
1, 956613, Note_off_c, 0, 68, 40
1, 956625, Note_on_c, 0, 59, 37
1, 956626, Note_off_c, 0, 61, 64
1, 956630, Note_off_c, 0, 54, 69
1, 956634, Note_off_c, 0, 62, 64
1, 956634, Note_off_c, 0, 67, 61
1, 956645, Poly_aftertouch_c, 0, 65, 0
1, 956652, Note_off_c, 0, 59, 53
1, 956724, Note_on_c, 0, 70, 90
1, 956731, Note_on_c, 0, 59, 49
1, 956736, Note_on_c, 0, 67, 57
1, 956739, Note_on_c, 0, 62, 52
1, 956770, Note_off_c, 0, 67, 65
1, 956771, Note_off_c, 0, 62, 64
1, 956771, Note_off_c, 0, 70, 63
1, 956772, Note_off_c, 0, 59, 61
1, 956776, Note_on_c, 0, 61, 72
1, 956780, Note_on_c, 0, 68, 41
1, 956789, Note_on_c, 0, 64, 35
1, 956813, Note_off_c, 0, 68, 63
1, 956832, Note_on_c, 0, 54, 98
1, 956846, Note_on_c, 0, 67, 75
1, 956855, Note_off_c, 0, 64, 39
1, 956858, Note_on_c, 0, 62, 68
1, 956865, Note_off_c, 0, 61, 64
1, 956872, Note_off_c, 0, 54, 67
1, 956879, Note_off_c, 0, 67, 64
1, 956881, Note_on_c, 0, 59, 38
1, 956887, Note_off_c, 0, 62, 65
1, 956908, Note_off_c, 0, 59, 50
1, 956956, Note_on_c, 0, 70, 85
1, 956964, Note_on_c, 0, 62, 65
1, 956975, Note_on_c, 0, 67, 61
1, 957001, Note_off_c, 0, 62, 61
1, 957001, Note_off_c, 0, 70, 62
1, 957006, Note_off_c, 0, 67, 66
1, 957016, Note_on_c, 0, 68, 46
1, 957018, Note_on_c, 0, 61, 69
1, 957041, Note_off_c, 0, 68, 56
1, 957063, Note_on_c, 0, 54, 84
1, 957076, Note_off_c, 0, 61, 63
1, 957088, Note_on_c, 0, 67, 51
1, 957099, Note_on_c, 0, 62, 49
1, 957116, Note_on_c, 0, 61, 71
1, 957117, Note_off_c, 0, 54, 66
1, 957124, Note_off_c, 0, 62, 60
1, 957126, Note_off_c, 0, 67, 62
1, 957173, Note_off_c, 0, 61, 65
1, 957175, Note_on_c, 0, 67, 69
1, 957179, Note_on_c, 0, 59, 22
1, 957184, Note_on_c, 0, 68, 50
1, 957185, Note_off_c, 0, 68, 127
1, 957192, Note_on_c, 0, 69, 57
1, 957193, Note_off_c, 0, 69, 127
1, 957203, Note_on_c, 0, 64, 30
1, 957203, Note_off_c, 0, 67, 67
1, 957218, Note_off_c, 0, 59, 59
1, 957237, Note_off_c, 0, 64, 44
1, 957300, Note_on_c, 0, 59, 68
1, 957300, Note_on_c, 0, 68, 75
1, 957302, Note_on_c, 0, 72, 105
1, 957305, Note_on_c, 0, 63, 66
1, 957334, Note_off_c, 0, 59, 63
1, 957337, Note_off_c, 0, 63, 64
1, 957343, Note_off_c, 0, 68, 55
1, 957363, Note_on_c, 0, 73, 82
1, 957368, Note_off_c, 0, 72, 63
1, 957409, Note_on_c, 0, 70, 81
1, 957427, Note_on_c, 0, 59, 54
1, 957431, Note_off_c, 0, 73, 65
1, 957436, Note_on_c, 0, 63, 49
1, 957454, Note_on_c, 0, 68, 28
1, 957456, Note_on_c, 0, 69, 83
1, 957460, Note_off_c, 0, 59, 64
1, 957460, Note_off_c, 0, 63, 59
1, 957461, Note_off_c, 0, 70, 66
1, 957484, Note_off_c, 0, 69, 66
1, 957488, Note_off_c, 0, 68, 0
1, 957513, Note_on_c, 0, 68, 43
1, 957521, Note_on_c, 0, 71, 103
1, 957524, Note_on_c, 0, 63, 62
1, 957537, Note_off_c, 0, 68, 60
1, 957543, Note_off_c, 0, 63, 64
1, 957671, Note_on_c, 0, 51, 50
1, 957672, Note_off_c, 0, 51, 127
1, 957691, Note_on_c, 0, 49, 14
1, 957692, Note_off_c, 0, 49, 127
1, 957768, Note_off_c, 0, 71, 64
1, 957771, Note_on_c, 0, 56, 107
1, 957775, Control_c, 0, 64, 65
1, 957790, Control_c, 0, 64, 127
1, 957792, Note_off_c, 0, 56, 70
1, 957921, Note_on_c, 0, 80, 74
1, 957943, Note_on_c, 0, 32, 55
1, 957953, Note_off_c, 0, 80, 63
1, 957954, Control_c, 0, 64, 115
1, 957968, Note_on_c, 0, 79, 78
1, 957968, Control_c, 0, 64, 72
1, 957975, Note_off_c, 0, 32, 55
1, 957983, Control_c, 0, 64, 0
1, 957989, Note_on_c, 0, 31, 48
1, 958002, Note_on_c, 0, 33, 43
1, 958012, Note_on_c, 0, 80, 100
1, 958022, Note_on_c, 0, 32, 89
1, 958026, Note_off_c, 0, 79, 66
1, 958032, Note_off_c, 0, 31, 63
1, 958036, Note_off_c, 0, 33, 50
1, 958057, Control_c, 0, 64, 46
1, 958060, Note_off_c, 0, 80, 66
1, 958072, Control_c, 0, 64, 73
1, 958078, Note_off_c, 0, 32, 63
1, 958086, Control_c, 0, 64, 127
1, 958154, Note_on_c, 0, 92, 83
1, 958158, Note_on_c, 0, 80, 70
1, 958181, Note_off_c, 0, 92, 62
1, 958188, Note_off_c, 0, 80, 65
1, 958268, Note_on_c, 0, 80, 77
1, 958279, Control_c, 0, 64, 122
1, 958294, Control_c, 0, 64, 107
1, 958295, Note_off_c, 0, 80, 63
1, 958316, Control_c, 0, 64, 100
1, 958331, Control_c, 0, 64, 95
1, 958346, Control_c, 0, 64, 91
1, 958361, Control_c, 0, 64, 86
1, 958375, Control_c, 0, 64, 80
1, 958390, Control_c, 0, 64, 75
1, 958392, Note_on_c, 0, 92, 85
1, 958393, Note_on_c, 0, 80, 82
1, 958397, Note_on_c, 0, 68, 67
1, 958405, Note_on_c, 0, 63, 51
1, 958405, Control_c, 0, 64, 71
1, 958413, Note_on_c, 0, 59, 36
1, 958418, Note_off_c, 0, 80, 66
1, 958420, Control_c, 0, 64, 66
1, 958422, Note_off_c, 0, 92, 63
1, 958426, Note_off_c, 0, 68, 67
1, 958429, Note_off_c, 0, 63, 58
1, 958434, Control_c, 0, 64, 61
1, 958444, Note_off_c, 0, 59, 45
1, 958449, Control_c, 0, 64, 51
1, 958464, Control_c, 0, 64, 37
1, 958479, Control_c, 0, 64, 26
1, 958494, Control_c, 0, 64, 22
1, 958509, Control_c, 0, 64, 0
1, 958512, Note_on_c, 0, 80, 97
1, 958513, Note_on_c, 0, 63, 63
1, 958513, Note_on_c, 0, 68, 82
1, 958514, Note_on_c, 0, 59, 73
1, 958514, Note_on_c, 0, 92, 100
1, 958541, Note_off_c, 0, 68, 66
1, 958544, Note_off_c, 0, 59, 65
1, 958545, Note_off_c, 0, 63, 68
1, 958551, Note_off_c, 0, 92, 67
1, 958556, Note_off_c, 0, 80, 64
1, 958623, Note_on_c, 0, 68, 91
1, 958623, Note_on_c, 0, 80, 102
1, 958624, Note_on_c, 0, 92, 105
1, 958626, Note_on_c, 0, 63, 78
1, 958627, Note_on_c, 0, 59, 84
1, 958648, Note_off_c, 0, 68, 66
1, 958652, Note_off_c, 0, 59, 66
1, 958655, Note_off_c, 0, 63, 65
1, 958661, Note_off_c, 0, 92, 66
1, 958664, Note_off_c, 0, 80, 62
1, 958740, Note_on_c, 0, 68, 94
1, 958741, Note_on_c, 0, 80, 106
1, 958746, Note_on_c, 0, 59, 80
1, 958747, Note_on_c, 0, 63, 75
1, 958762, Note_off_c, 0, 68, 68
1, 958771, Note_off_c, 0, 59, 67
1, 958771, Note_off_c, 0, 63, 69
1, 958786, Note_off_c, 0, 80, 65
1, 958847, Note_on_c, 0, 68, 95
1, 958850, Note_on_c, 0, 80, 102
1, 958852, Note_on_c, 0, 63, 67
1, 958855, Note_on_c, 0, 92, 103
1, 958866, Note_on_c, 0, 59, 65
1, 958867, Note_off_c, 0, 68, 71
1, 958882, Note_off_c, 0, 63, 66
1, 958891, Note_off_c, 0, 80, 62
1, 958893, Note_off_c, 0, 92, 65
1, 958894, Note_off_c, 0, 59, 64
1, 958970, Note_on_c, 0, 80, 100
1, 958971, Note_on_c, 0, 67, 90
1, 958972, Note_on_c, 0, 59, 76
1, 958974, Note_on_c, 0, 62, 82
1, 958998, Control_c, 0, 64, 57
1, 959007, Note_off_c, 0, 59, 65
1, 959011, Note_off_c, 0, 62, 61
1, 959013, Note_off_c, 0, 67, 64
1, 959013, Control_c, 0, 64, 83
1, 959028, Control_c, 0, 64, 127
1, 959034, Note_on_c, 0, 82, 80
1, 959048, Note_off_c, 0, 80, 63
1, 959095, Control_c, 0, 64, 104
1, 959098, Note_on_c, 0, 83, 75
1, 959102, Note_on_c, 0, 67, 76
1, 959103, Note_on_c, 0, 62, 70
1, 959110, Control_c, 0, 64, 80
1, 959117, Note_off_c, 0, 82, 62
1, 959120, Note_on_c, 0, 59, 52
1, 959124, Control_c, 0, 64, 67
1, 959128, Note_off_c, 0, 62, 66
1, 959129, Note_off_c, 0, 67, 68
1, 959139, Control_c, 0, 64, 51
1, 959143, Note_off_c, 0, 59, 58
1, 959152, Note_on_c, 0, 80, 83
1, 959154, Control_c, 0, 64, 0
1, 959162, Note_off_c, 0, 83, 62
1, 959206, Note_off_c, 0, 80, 64
1, 959207, Note_on_c, 0, 75, 80
1, 959210, Note_on_c, 0, 67, 73
1, 959215, Note_on_c, 0, 59, 61
1, 959229, Note_on_c, 0, 62, 58
1, 959233, Note_off_c, 0, 75, 65
1, 959244, Note_off_c, 0, 67, 58
1, 959248, Note_off_c, 0, 59, 62
1, 959256, Note_off_c, 0, 62, 64
1, 959260, Note_on_c, 0, 83, 77
1, 959315, Note_on_c, 0, 80, 80
1, 959328, Note_on_c, 0, 59, 59
1, 959331, Note_on_c, 0, 67, 70
1, 959333, Note_on_c, 0, 62, 57
1, 959346, Note_off_c, 0, 83, 63
1, 959359, Note_off_c, 0, 67, 64
1, 959362, Note_off_c, 0, 59, 62
1, 959363, Note_on_c, 0, 75, 79
1, 959366, Note_off_c, 0, 62, 65
1, 959417, Note_off_c, 0, 80, 64
1, 959433, Note_on_c, 0, 74, 104
1, 959439, Note_on_c, 0, 67, 80
1, 959445, Note_on_c, 0, 59, 62
1, 959445, Note_on_c, 0, 62, 67
1, 959473, Note_off_c, 0, 75, 61
1, 959479, Note_off_c, 0, 59, 64
1, 959480, Control_c, 0, 64, 26
1, 959484, Note_off_c, 0, 62, 64
1, 959488, Note_off_c, 0, 67, 60
1, 959495, Control_c, 0, 64, 68
1, 959511, Control_c, 0, 64, 90
1, 959525, Control_c, 0, 64, 127
1, 959553, Note_on_c, 0, 67, 91
1, 959555, Note_on_c, 0, 59, 83
1, 959557, Note_on_c, 0, 62, 86
1, 959573, Note_off_c, 0, 74, 63
1, 959594, Note_off_c, 0, 67, 66
1, 959600, Note_off_c, 0, 59, 63
1, 959606, Note_off_c, 0, 62, 63
1, 959652, Poly_aftertouch_c, 0, 62, 0
1, 959655, Note_on_c, 0, 59, 74
1, 959655, Note_on_c, 0, 67, 93
1, 959656, Note_on_c, 0, 62, 66
1, 959660, Note_on_c, 0, 79, 88
1, 959681, Note_on_c, 0, 83, 86
1, 959702, Note_off_c, 0, 67, 61
1, 959702, Note_off_c, 0, 59, 62
1, 959704, Note_off_c, 0, 79, 66
1, 959705, Note_on_c, 0, 81, 38
1, 959716, Note_off_c, 0, 62, 58
1, 959718, Note_on_c, 0, 86, 86
1, 959731, Control_c, 0, 64, 91
1, 959732, Note_off_c, 0, 81, 56
1, 959746, Control_c, 0, 64, 65
1, 959753, Note_on_c, 0, 91, 99
1, 959757, Note_on_c, 0, 62, 64
1, 959759, Note_off_c, 0, 83, 63
1, 959761, Note_on_c, 0, 59, 69
1, 959761, Note_on_c, 0, 67, 85
1, 959761, Control_c, 0, 64, 0
1, 959771, Note_off_c, 0, 86, 68
1, 959791, Note_off_c, 0, 91, 69
1, 959800, Note_off_c, 0, 59, 65
1, 959800, Note_off_c, 0, 67, 64
1, 959821, Note_off_c, 0, 62, 65
1, 959901, Note_on_c, 0, 70, 87
1, 959901, Note_on_c, 0, 101, 104
1, 959913, Note_on_c, 0, 59, 58
1, 959919, Note_on_c, 0, 62, 56
1, 959946, Note_off_c, 0, 59, 62
1, 959955, Note_off_c, 0, 70, 64
1, 959956, Note_off_c, 0, 62, 62
1, 959970, Note_on_c, 0, 100, 80
1, 959996, Note_off_c, 0, 101, 64
1, 960016, Note_on_c, 0, 98, 78
1, 960020, Note_on_c, 0, 69, 78
1, 960023, Note_on_c, 0, 59, 66
1, 960044, Note_on_c, 0, 62, 50
1, 960050, Note_off_c, 0, 100, 64
1, 960053, Note_off_c, 0, 69, 65
1, 960062, Note_off_c, 0, 59, 63
1, 960074, Note_off_c, 0, 62, 63
1, 960076, Note_on_c, 0, 97, 81
1, 960086, Note_off_c, 0, 98, 65
1, 960134, Note_off_c, 0, 97, 64
1, 960136, Note_on_c, 0, 95, 76
1, 960143, Note_on_c, 0, 68, 74
1, 960162, Note_on_c, 0, 62, 54
1, 960172, Note_on_c, 0, 59, 39
1, 960174, Note_off_c, 0, 68, 65
1, 960196, Note_on_c, 0, 94, 80
1, 960196, Note_off_c, 0, 62, 65
1, 960199, Note_off_c, 0, 95, 61
1, 960200, Note_off_c, 0, 59, 49
1, 960249, Note_on_c, 0, 92, 76
1, 960256, Note_on_c, 0, 67, 77
1, 960277, Note_on_c, 0, 62, 55
1, 960282, Note_off_c, 0, 67, 65
1, 960283, Note_off_c, 0, 94, 63
1, 960298, Note_on_c, 0, 59, 26
1, 960301, Note_on_c, 0, 90, 83
1, 960307, Note_off_c, 0, 62, 64
1, 960325, Note_off_c, 0, 92, 65
1, 960338, Note_off_c, 0, 59, 31
1, 960360, Note_on_c, 0, 88, 85
1, 960367, Note_on_c, 0, 66, 87
1, 960367, Note_off_c, 0, 90, 64
1, 960369, Note_on_c, 0, 62, 77
1, 960387, Note_on_c, 0, 59, 54
1, 960407, Note_off_c, 0, 66, 61
1, 960408, Note_off_c, 0, 62, 61
1, 960411, Note_off_c, 0, 59, 61
1, 960420, Note_on_c, 0, 87, 88
1, 960420, Note_off_c, 0, 88, 64
1, 960470, Note_on_c, 0, 65, 92
1, 960475, Note_on_c, 0, 59, 81
1, 960477, Note_on_c, 0, 62, 77
1, 960482, Note_on_c, 0, 85, 89
1, 960503, Note_off_c, 0, 87, 63
1, 960505, Note_off_c, 0, 59, 64
1, 960508, Note_off_c, 0, 62, 67
1, 960509, Note_off_c, 0, 65, 64
1, 960539, Note_on_c, 0, 83, 85
1, 960542, Note_off_c, 0, 85, 64
1, 960590, Note_on_c, 0, 66, 96
1, 960593, Note_on_c, 0, 62, 85
1, 960595, Note_on_c, 0, 59, 82
1, 960609, Note_on_c, 0, 82, 91
1, 960614, Note_off_c, 0, 83, 50
1, 960622, Note_off_c, 0, 59, 64
1, 960632, Note_off_c, 0, 62, 61
1, 960634, Note_off_c, 0, 66, 64
1, 960661, Note_on_c, 0, 80, 75
1, 960699, Note_on_c, 0, 67, 96
1, 960703, Note_on_c, 0, 62, 72
1, 960706, Note_on_c, 0, 78, 93
1, 960708, Note_on_c, 0, 59, 81
1, 960720, Note_off_c, 0, 82, 59
1, 960731, Note_off_c, 0, 59, 70
1, 960732, Note_off_c, 0, 62, 68
1, 960738, Note_off_c, 0, 80, 65
1, 960739, Note_off_c, 0, 67, 67
1, 960760, Note_on_c, 0, 76, 88
1, 960762, Note_off_c, 0, 78, 65
1, 960819, Note_on_c, 0, 75, 89
1, 960834, Note_off_c, 0, 76, 64
1, 960879, Note_on_c, 0, 73, 88
1, 960898, Note_off_c, 0, 75, 63
1, 960929, Note_on_c, 0, 71, 82
1, 960935, Note_off_c, 0, 73, 66
1, 960975, Note_on_c, 0, 76, 91
1, 960992, Note_off_c, 0, 71, 63
1, 961036, Note_off_c, 0, 76, 65
1, 961039, Note_on_c, 0, 72, 83
1, 961091, Note_on_c, 0, 67, 75
1, 961093, Note_off_c, 0, 72, 61
1, 961145, Note_on_c, 0, 70, 86
1, 961152, Note_off_c, 0, 67, 64
1, 961198, Note_off_c, 0, 70, 64
1, 961211, Note_on_c, 0, 67, 80
1, 961245, Note_on_c, 0, 75, 91
1, 961252, Note_off_c, 0, 67, 65
1, 961314, Note_on_c, 0, 73, 86
1, 961331, Note_off_c, 0, 75, 62
1, 961369, Note_on_c, 0, 71, 81
1, 961380, Note_off_c, 0, 73, 65
1, 961421, Note_on_c, 0, 76, 85
1, 961427, Note_off_c, 0, 71, 63
1, 961469, Note_off_c, 0, 76, 65
1, 961478, Note_on_c, 0, 72, 86
1, 961526, Note_on_c, 0, 69, 74
1, 961540, Note_off_c, 0, 72, 61
1, 961588, Note_on_c, 0, 68, 73
1, 961597, Note_off_c, 0, 69, 65
1, 961633, Note_off_c, 0, 68, 66
1, 961638, Note_on_c, 0, 67, 80
1, 961656, Note_off_c, 0, 67, 71
1, 961686, Note_on_c, 0, 64, 101
1, 961757, Note_on_c, 0, 63, 82
1, 961776, Note_off_c, 0, 64, 61
1, 961812, Note_on_c, 0, 61, 75
1, 961833, Note_off_c, 0, 63, 62
1, 961861, Note_on_c, 0, 59, 82
1, 961865, Note_off_c, 0, 61, 65
1, 961916, Note_off_c, 0, 59, 55
1, 961925, Note_on_c, 0, 58, 84
1, 961978, Note_on_c, 0, 56, 75
1, 962025, Note_off_c, 0, 58, 60
1, 962029, Note_on_c, 0, 54, 86
1, 962062, Note_off_c, 0, 56, 64
1, 962083, Note_on_c, 0, 52, 78
1, 962090, Note_off_c, 0, 54, 64
1, 962149, Note_on_c, 0, 46, 92
1, 962158, Note_on_c, 0, 51, 94
1, 962164, Note_off_c, 0, 52, 39
1, 962218, Note_on_c, 0, 44, 79
1, 962219, Note_off_c, 0, 51, 61
1, 962253, Note_off_c, 0, 46, 64
1, 962256, Note_on_c, 0, 42, 75
1, 962286, Note_off_c, 0, 44, 63
1, 962312, Note_off_c, 0, 42, 63
1, 962324, Note_on_c, 0, 40, 77
1, 962385, Note_off_c, 0, 40, 63
1, 962397, Note_on_c, 0, 39, 68
1, 962435, Note_on_c, 0, 37, 69
1, 962440, Note_off_c, 0, 39, 62
1, 962471, Note_off_c, 0, 37, 65
1, 962505, Note_on_c, 0, 35, 59
1, 962554, Note_off_c, 0, 35, 58
1, 962563, Note_on_c, 0, 34, 59
1, 962623, Note_off_c, 0, 34, 60
1, 962635, Note_on_c, 0, 33, 62
1, 962651, Note_on_c, 0, 45, 50
1, 962667, Note_off_c, 0, 33, 63
1, 962708, Note_off_c, 0, 45, 56
1, 962715, Note_on_c, 0, 48, 50
1, 962766, Note_off_c, 0, 48, 57
1, 962777, Note_on_c, 0, 52, 48
1, 962831, Note_on_c, 0, 51, 62
1, 962833, Note_off_c, 0, 52, 59
1, 962882, Note_off_c, 0, 51, 62
1, 962891, Note_on_c, 0, 47, 67
1, 962915, Note_off_c, 0, 47, 65
1, 963021, Note_on_c, 0, 48, 70
1, 963076, Note_off_c, 0, 48, 62
1, 963083, Note_on_c, 0, 47, 57
1, 963129, Note_off_c, 0, 47, 64
1, 963133, Note_on_c, 0, 33, 77
1, 963138, Note_on_c, 0, 45, 71
1, 963159, Note_off_c, 0, 33, 65
1, 963193, Note_off_c, 0, 45, 59
1, 963198, Note_on_c, 0, 48, 69
1, 963261, Note_on_c, 0, 52, 60
1, 963277, Note_off_c, 0, 48, 58
1, 963302, Note_on_c, 0, 51, 63
1, 963333, Note_off_c, 0, 52, 60
1, 963371, Note_on_c, 0, 47, 56
1, 963374, Note_off_c, 0, 51, 63
1, 963404, Note_off_c, 0, 47, 63
1, 963514, Note_on_c, 0, 48, 53
1, 963574, Note_off_c, 0, 48, 58
1, 963581, Note_on_c, 0, 47, 51
1, 963636, Note_off_c, 0, 47, 61
1, 963645, Note_on_c, 0, 45, 51
1, 963646, Note_on_c, 0, 33, 57
1, 963678, Note_off_c, 0, 33, 62
1, 963700, Note_on_c, 0, 48, 51
1, 963704, Note_off_c, 0, 45, 61
1, 963743, Note_on_c, 0, 52, 57
1, 963766, Note_off_c, 0, 48, 51
1, 963809, Note_on_c, 0, 51, 55
1, 963830, Note_off_c, 0, 52, 57
1, 963871, Note_on_c, 0, 47, 69
1, 963877, Note_off_c, 0, 51, 64
1, 963904, Note_off_c, 0, 47, 65
1, 963981, Note_on_c, 0, 48, 86
1, 964033, Note_on_c, 0, 47, 73
1, 964061, Note_off_c, 0, 48, 63
1, 964101, Note_on_c, 0, 39, 107
1, 964101, Note_on_c, 0, 45, 89
1, 964119, Note_on_c, 0, 41, 74
1, 964123, Note_on_c, 0, 40, 66
1, 964138, Note_off_c, 0, 47, 61
1, 964142, Note_off_c, 0, 39, 62
1, 964143, Note_off_c, 0, 41, 61
1, 964151, Note_off_c, 0, 40, 62
1, 964220, Note_on_c, 0, 39, 95
1, 964266, Note_off_c, 0, 39, 59
1, 964366, Note_on_c, 0, 39, 83
1, 964405, Note_off_c, 0, 39, 61
1, 964489, Note_on_c, 0, 39, 72
1, 964532, Note_off_c, 0, 39, 61
1, 964614, Note_on_c, 0, 39, 68
1, 964657, Note_off_c, 0, 39, 62
1, 964737, Note_on_c, 0, 39, 62
1, 964777, Note_off_c, 0, 39, 63
1, 964855, Note_on_c, 0, 39, 63
1, 964906, Note_off_c, 0, 39, 61
1, 964986, Note_on_c, 0, 39, 51
1, 965025, Note_off_c, 0, 39, 65
1, 965112, Note_on_c, 0, 39, 58
1, 965158, Note_off_c, 0, 39, 62
1, 965174, Note_on_c, 0, 42, 55
1, 965219, Note_off_c, 0, 42, 59
1, 965227, Note_on_c, 0, 39, 56
1, 965272, Note_off_c, 0, 39, 64
1, 965286, Note_on_c, 0, 34, 66
1, 965351, Note_on_c, 0, 39, 79
1, 965362, Note_off_c, 0, 34, 61
1, 965410, Note_off_c, 0, 39, 62
1, 965414, Note_on_c, 0, 42, 68
1, 965466, Note_off_c, 0, 42, 61
1, 965476, Note_on_c, 0, 39, 57
1, 965512, Note_off_c, 0, 39, 64
1, 965526, Note_on_c, 0, 34, 61
1, 965582, Note_off_c, 0, 34, 61
1, 965587, Note_on_c, 0, 39, 60
1, 965627, Note_off_c, 0, 39, 64
1, 965648, Note_on_c, 0, 42, 56
1, 965687, Note_off_c, 0, 42, 62
1, 965725, Note_on_c, 0, 39, 38
1, 965762, Note_off_c, 0, 39, 51
1, 965770, Note_on_c, 0, 34, 44
1, 965821, Note_off_c, 0, 34, 59
1, 965841, Note_off_c, 0, 45, 61
1, 965847, Note_on_c, 0, 39, 44
1, 965880, Note_off_c, 0, 39, 54
1, 965959, Note_on_c, 0, 40, 54
1, 965994, Note_off_c, 0, 40, 62
1, 966080, Note_on_c, 0, 45, 46
1, 966087, Note_on_c, 0, 33, 54
1, 966119, Note_off_c, 0, 33, 62
1, 966129, Note_off_c, 0, 45, 58
1, 966165, Note_on_c, 0, 48, 28
1, 966216, Note_on_c, 0, 52, 45
1, 966216, Note_off_c, 0, 48, 45
1, 966258, Note_off_c, 0, 52, 59
1, 966260, Note_on_c, 0, 51, 57
1, 966313, Note_off_c, 0, 51, 62
1, 966324, Note_on_c, 0, 47, 61
1, 966352, Note_off_c, 0, 47, 65
1, 966453, Note_on_c, 0, 48, 69
1, 966519, Note_on_c, 0, 47, 8
1, 966521, Note_off_c, 0, 48, 63
1, 966581, Note_on_c, 0, 33, 74
1, 966588, Note_off_c, 0, 47, 62
1, 966598, Note_on_c, 0, 45, 62
1, 966617, Note_off_c, 0, 33, 65
1, 966656, Note_off_c, 0, 45, 59
1, 966660, Note_on_c, 0, 48, 60
1, 966734, Note_on_c, 0, 52, 52
1, 966737, Note_off_c, 0, 48, 57
1, 966780, Note_on_c, 0, 51, 52
1, 966787, Note_off_c, 0, 52, 55
1, 966831, Note_off_c, 0, 51, 60
1, 966842, Note_on_c, 0, 47, 52
1, 966874, Note_off_c, 0, 47, 64
1, 966993, Note_on_c, 0, 48, 45
1, 967037, Note_off_c, 0, 48, 59
1, 967046, Note_on_c, 0, 47, 43
1, 967097, Note_on_c, 0, 33, 52
1, 967102, Note_off_c, 0, 47, 59
1, 967109, Note_on_c, 0, 45, 49
1, 967134, Note_off_c, 0, 33, 63
1, 967156, Note_on_c, 0, 48, 50
1, 967157, Note_off_c, 0, 45, 60
1, 967210, Note_on_c, 0, 52, 60
1, 967227, Note_off_c, 0, 48, 56
1, 967254, Note_on_c, 0, 51, 61
1, 967279, Note_off_c, 0, 52, 55
1, 967320, Note_on_c, 0, 47, 76
1, 967329, Note_off_c, 0, 51, 63
1, 967371, Note_off_c, 0, 47, 63
1, 967434, Note_on_c, 0, 48, 87
1, 967497, Note_on_c, 0, 47, 72
1, 967529, Note_off_c, 0, 48, 64
1, 967562, Note_on_c, 0, 45, 89
1, 967568, Note_on_c, 0, 39, 117
1, 967598, Note_off_c, 0, 39, 61
1, 967614, Note_on_c, 0, 37, 24
1, 967654, Note_off_c, 0, 37, 52
1, 967678, Note_off_c, 0, 47, 26
1, 967684, Poly_aftertouch_c, 0, 38, 0
1, 967703, Note_on_c, 0, 39, 103
1, 967749, Note_off_c, 0, 39, 62
1, 967829, Note_on_c, 0, 39, 100
1, 967872, Note_off_c, 0, 39, 61
1, 967956, Note_on_c, 0, 39, 90
1, 968012, Note_off_c, 0, 39, 62
1, 968091, Note_on_c, 0, 39, 79
1, 968147, Note_off_c, 0, 39, 62
1, 968214, Note_on_c, 0, 39, 70
1, 968264, Note_off_c, 0, 39, 63
1, 968349, Note_on_c, 0, 39, 67
1, 968397, Note_off_c, 0, 39, 60
1, 968459, Note_on_c, 0, 39, 59
1, 968515, Note_off_c, 0, 39, 60
1, 968589, Note_on_c, 0, 39, 60
1, 968644, Note_off_c, 0, 39, 58
1, 968719, Note_on_c, 0, 39, 55
1, 968767, Note_off_c, 0, 39, 57
1, 968849, Note_on_c, 0, 39, 50
1, 968894, Note_off_c, 0, 39, 59
1, 968968, Note_on_c, 0, 39, 45
1, 969008, Note_off_c, 0, 39, 52
1, 969107, Note_on_c, 0, 39, 44
1, 969147, Note_off_c, 0, 39, 62
1, 969171, Note_on_c, 0, 42, 54
1, 969210, Note_off_c, 0, 42, 62
1, 969234, Note_on_c, 0, 39, 55
1, 969272, Note_off_c, 0, 39, 63
1, 969289, Note_on_c, 0, 34, 55
1, 969346, Note_on_c, 0, 39, 74
1, 969350, Note_off_c, 0, 34, 61
1, 969407, Note_off_c, 0, 39, 60
1, 969410, Note_on_c, 0, 42, 67
1, 969467, Note_off_c, 0, 42, 60
1, 969467, Note_on_c, 0, 39, 63
1, 969514, Note_off_c, 0, 39, 62
1, 969533, Note_on_c, 0, 34, 61
1, 969592, Note_off_c, 0, 34, 61
1, 969598, Note_on_c, 0, 39, 64
1, 969637, Note_off_c, 0, 39, 66
1, 969652, Note_on_c, 0, 42, 56
1, 969695, Note_off_c, 0, 42, 62
1, 969723, Note_on_c, 0, 39, 49
1, 969757, Note_off_c, 0, 39, 64
1, 969777, Note_on_c, 0, 34, 54
1, 969816, Note_off_c, 0, 34, 61
1, 969848, Note_on_c, 0, 39, 46
1, 969886, Note_off_c, 0, 39, 60
1, 969896, Note_on_c, 0, 42, 54
1, 969938, Note_off_c, 0, 42, 61
1, 969968, Note_on_c, 0, 39, 42
1, 970004, Note_off_c, 0, 39, 58
1, 970031, Note_on_c, 0, 34, 49
1, 970072, Note_off_c, 0, 34, 60
1, 970089, Note_on_c, 0, 39, 59
1, 970132, Note_off_c, 0, 39, 64
1, 970152, Note_on_c, 0, 42, 54
1, 970194, Note_off_c, 0, 42, 59
1, 970228, Note_on_c, 0, 34, 46
1, 970243, Note_on_c, 0, 39, 20
1, 970284, Note_off_c, 0, 34, 55
1, 970319, Note_off_c, 0, 45, 61
1, 970370, Note_off_c, 0, 39, 56
1, 970402, Note_on_c, 0, 40, 34
1, 970441, Note_off_c, 0, 40, 53
1, 970553, Note_on_c, 0, 33, 50
1, 970586, Note_off_c, 0, 33, 58
1, 970605, Note_on_c, 0, 45, 35
1, 970629, Note_on_c, 0, 48, 59
1, 970640, Note_off_c, 0, 45, 46
1, 970677, Note_off_c, 0, 48, 60
1, 970698, Note_on_c, 0, 52, 53
1, 970743, Note_off_c, 0, 52, 60
1, 970749, Note_on_c, 0, 51, 60
1, 970778, Note_on_c, 0, 34, 69
1, 970793, Note_off_c, 0, 51, 62
1, 970794, Note_on_c, 0, 47, 61
1, 970808, Note_off_c, 0, 34, 62
1, 970831, Note_off_c, 0, 47, 62
1, 970930, Note_on_c, 0, 48, 50
1, 970962, Note_on_c, 0, 47, 53
1, 970963, Note_off_c, 0, 48, 62
1, 971001, Note_off_c, 0, 47, 64
1, 971017, Note_on_c, 0, 45, 59
1, 971018, Note_on_c, 0, 33, 51
1, 971058, Note_off_c, 0, 45, 64
1, 971081, Note_off_c, 0, 33, 59
1, 971096, Note_on_c, 0, 36, 51
1, 971166, Note_off_c, 0, 36, 57
1, 971175, Note_on_c, 0, 40, 32
1, 971199, Note_on_c, 0, 39, 55
1, 971216, Note_off_c, 0, 40, 52
1, 971252, Note_on_c, 0, 52, 58
1, 971258, Note_on_c, 0, 57, 63
1, 971260, Note_off_c, 0, 39, 62
1, 971262, Note_on_c, 0, 48, 56
1, 971273, Note_on_c, 0, 35, 42
1, 971282, Note_off_c, 0, 52, 66
1, 971288, Note_off_c, 0, 57, 66
1, 971292, Note_off_c, 0, 48, 63
1, 971311, Note_off_c, 0, 35, 49
1, 971402, Note_on_c, 0, 36, 62
1, 971455, Note_off_c, 0, 36, 62
1, 971464, Note_on_c, 0, 35, 42
1, 971510, Note_off_c, 0, 35, 61
1, 971513, Note_on_c, 0, 33, 66
1, 971523, Note_on_c, 0, 45, 62
1, 971544, Note_off_c, 0, 33, 63
1, 971565, Note_on_c, 0, 48, 50
1, 971595, Note_off_c, 0, 45, 49
1, 971611, Note_off_c, 0, 48, 62
1, 971613, Note_on_c, 0, 52, 67
1, 971676, Note_on_c, 0, 51, 61
1, 971687, Note_off_c, 0, 52, 59
1, 971732, Note_on_c, 0, 47, 67
1, 971734, Note_off_c, 0, 51, 59
1, 971738, Note_on_c, 0, 34, 78
1, 971763, Note_off_c, 0, 34, 65
1, 971768, Note_off_c, 0, 47, 66
1, 971884, Note_on_c, 0, 48, 55
1, 971924, Note_off_c, 0, 48, 62
1, 971930, Note_on_c, 0, 47, 54
1, 971962, Note_on_c, 0, 33, 50
1, 971976, Note_off_c, 0, 47, 64
1, 971995, Note_on_c, 0, 45, 58
1, 972027, Note_off_c, 0, 33, 60
1, 972027, Note_off_c, 0, 45, 65
1, 972043, Note_on_c, 0, 36, 54
1, 972096, Note_off_c, 0, 36, 61
1, 972111, Note_on_c, 0, 40, 51
1, 972147, Note_off_c, 0, 40, 62
1, 972167, Note_on_c, 0, 39, 50
1, 972224, Note_off_c, 0, 39, 59
1, 972233, Note_on_c, 0, 35, 42
1, 972239, Note_on_c, 0, 52, 49
1, 972245, Note_on_c, 0, 57, 51
1, 972252, Note_on_c, 0, 48, 43
1, 972264, Note_off_c, 0, 52, 61
1, 972269, Note_off_c, 0, 57, 61
1, 972272, Note_off_c, 0, 35, 60
1, 972279, Note_off_c, 0, 48, 57
1, 972422, Note_on_c, 0, 35, 38
1, 972469, Note_off_c, 0, 35, 59
1, 972486, Note_on_c, 0, 36, 38
1, 972503, Note_on_c, 0, 45, 35
1, 972531, Note_off_c, 0, 36, 61
1, 972563, Note_on_c, 0, 48, 53
1, 972582, Note_off_c, 0, 45, 52
1, 972624, Note_off_c, 0, 48, 57
1, 972630, Note_on_c, 0, 52, 55
1, 972673, Note_off_c, 0, 52, 61
1, 972677, Note_on_c, 0, 51, 62
1, 972737, Note_off_c, 0, 51, 62
1, 972740, Note_on_c, 0, 47, 64
1, 972770, Note_off_c, 0, 47, 64
1, 972878, Note_on_c, 0, 48, 68
1, 972938, Note_off_c, 0, 48, 62
1, 972939, Note_on_c, 0, 47, 62
1, 972987, Note_on_c, 0, 38, 76
1, 973001, Note_off_c, 0, 47, 63
1, 973008, Note_on_c, 0, 45, 69
1, 973027, Note_off_c, 0, 38, 59
1, 973061, Note_on_c, 0, 48, 69
1, 973079, Note_off_c, 0, 45, 59
1, 973121, Note_on_c, 0, 52, 75
1, 973128, Note_off_c, 0, 48, 63
1, 973172, Note_on_c, 0, 51, 71
1, 973205, Note_off_c, 0, 52, 64
1, 973224, Note_on_c, 0, 47, 79
1, 973239, Note_off_c, 0, 51, 64
1, 973259, Note_off_c, 0, 47, 64
1, 973361, Note_on_c, 0, 48, 82
1, 973414, Note_on_c, 0, 47, 76
1, 973416, Note_off_c, 0, 48, 64
1, 973448, Note_off_c, 0, 47, 66
1, 973466, Note_on_c, 0, 39, 85
1, 973511, Note_off_c, 0, 39, 61
1, 973580, Note_on_c, 0, 48, 72
1, 973638, Note_on_c, 0, 51, 80
1, 973643, Note_off_c, 0, 48, 64
1, 973695, Note_on_c, 0, 47, 76
1, 973703, Note_off_c, 0, 51, 63
1, 973749, Note_off_c, 0, 47, 62
1, 973753, Note_on_c, 0, 48, 75
1, 973796, Note_on_c, 0, 47, 70
1, 973808, Note_off_c, 0, 48, 62
1, 973849, Note_off_c, 0, 47, 62
1, 973905, Note_on_c, 0, 40, 91
1, 973931, Note_off_c, 0, 40, 69
1, 974162, Note_on_c, 0, 36, 68
1, 974191, Note_off_c, 0, 36, 64
1, 974432, Note_on_c, 0, 33, 66
1, 974437, Note_on_c, 0, 39, 81
1, 974462, Note_off_c, 0, 33, 63
1, 974498, Note_off_c, 0, 39, 64
1, 974503, Note_on_c, 0, 44, 66
1, 974550, Note_on_c, 0, 47, 67
1, 974564, Note_off_c, 0, 44, 60
1, 974599, Note_off_c, 0, 47, 58
1, 974709, Note_on_c, 0, 28, 54
1, 974740, Note_off_c, 0, 28, 58
1, 974973, Note_on_c, 0, 24, 45
1, 975008, Note_off_c, 0, 24, 51
1, 975563, Note_on_c, 0, 21, 47
1, 975577, Note_on_c, 0, 28, 36
1, 975600, Note_off_c, 0, 21, 57
1, 975620, Note_off_c, 0, 28, 51
1, 975631, Note_on_c, 0, 29, 42
1, 975687, Note_off_c, 0, 29, 54
1, 975697, Note_on_c, 0, 33, 41
1, 975752, Note_off_c, 0, 33, 53
1, 976406, Control_c, 0, 64, 11
1, 976421, Control_c, 0, 64, 19
1, 976436, Control_c, 0, 64, 25
1, 976451, Control_c, 0, 64, 30
1, 976465, Control_c, 0, 64, 34
1, 976480, Control_c, 0, 64, 38
1, 976495, Control_c, 0, 64, 41
1, 976510, Control_c, 0, 64, 43
1, 976525, Control_c, 0, 64, 46
1, 976539, Control_c, 0, 64, 48
1, 976554, Control_c, 0, 64, 50
1, 976569, Control_c, 0, 64, 52
1, 976583, Control_c, 0, 64, 53
1, 976598, Control_c, 0, 64, 55
1, 976613, Control_c, 0, 64, 56
1, 976628, Control_c, 0, 64, 58
1, 976643, Control_c, 0, 64, 59
1, 976657, Control_c, 0, 64, 61
1, 976672, Control_c, 0, 64, 62
1, 976687, Control_c, 0, 64, 63
1, 976702, Control_c, 0, 64, 64
1, 976717, Control_c, 0, 64, 65
1, 976731, Control_c, 0, 64, 66
1, 976746, Control_c, 0, 64, 68
1, 976761, Control_c, 0, 64, 71
1, 976776, Control_c, 0, 64, 74
1, 976791, Control_c, 0, 64, 79
1, 976806, Control_c, 0, 64, 84
1, 976821, Control_c, 0, 64, 90
1, 976836, Control_c, 0, 64, 100
1, 976850, Control_c, 0, 64, 127
1, 978198, Note_on_c, 0, 76, 77
1, 978201, Note_on_c, 0, 72, 77
1, 978207, Note_on_c, 0, 64, 44
1, 978209, Note_on_c, 0, 57, 38
1, 978244, Control_c, 0, 64, 99
1, 978259, Control_c, 0, 64, 82
1, 978274, Control_c, 0, 64, 73
1, 978289, Control_c, 0, 64, 67
1, 978296, Note_off_c, 0, 72, 61
1, 978302, Note_on_c, 0, 74, 67
1, 978302, Note_on_c, 0, 70, 67
1, 978303, Control_c, 0, 64, 64
1, 978318, Control_c, 0, 64, 62
1, 978333, Control_c, 0, 64, 60
1, 978335, Note_off_c, 0, 76, 58
1, 978348, Control_c, 0, 64, 57
1, 978362, Control_c, 0, 64, 54
1, 978377, Control_c, 0, 64, 51
1, 978392, Control_c, 0, 64, 47
1, 978406, Control_c, 0, 64, 41
1, 978409, Note_off_c, 0, 70, 59
1, 978415, Note_on_c, 0, 73, 59
1, 978421, Control_c, 0, 64, 35
1, 978426, Note_on_c, 0, 69, 49
1, 978436, Control_c, 0, 64, 25
1, 978439, Note_off_c, 0, 74, 54
1, 978451, Control_c, 0, 64, 15
1, 978466, Control_c, 0, 64, 0
1, 978696, Control_c, 0, 64, 11
1, 978711, Control_c, 0, 64, 24
1, 978726, Control_c, 0, 64, 31
1, 978740, Control_c, 0, 64, 36
1, 978755, Control_c, 0, 64, 40
1, 978770, Control_c, 0, 64, 43
1, 978785, Control_c, 0, 64, 46
1, 978800, Control_c, 0, 64, 48
1, 978815, Control_c, 0, 64, 50
1, 978830, Control_c, 0, 64, 51
1, 978845, Control_c, 0, 64, 52
1, 978859, Control_c, 0, 64, 54
1, 978874, Control_c, 0, 64, 54
1, 978889, Control_c, 0, 64, 56
1, 978904, Control_c, 0, 64, 57
1, 978919, Control_c, 0, 64, 58
1, 978933, Control_c, 0, 64, 58
1, 978948, Control_c, 0, 64, 59
1, 978963, Control_c, 0, 64, 60
1, 978978, Control_c, 0, 64, 61
1, 978992, Control_c, 0, 64, 62
1, 979007, Control_c, 0, 64, 63
1, 979022, Control_c, 0, 64, 64
1, 979037, Control_c, 0, 64, 64
1, 979052, Control_c, 0, 64, 65
1, 979066, Control_c, 0, 64, 66
1, 979081, Control_c, 0, 64, 68
1, 979096, Control_c, 0, 64, 69
1, 979111, Control_c, 0, 64, 71
1, 979126, Control_c, 0, 64, 73
1, 979141, Control_c, 0, 64, 75
1, 979156, Control_c, 0, 64, 78
1, 979171, Control_c, 0, 64, 82
1, 979185, Control_c, 0, 64, 86
1, 979200, Control_c, 0, 64, 91
1, 979215, Control_c, 0, 64, 98
1, 979230, Control_c, 0, 64, 109
1, 979245, Control_c, 0, 64, 127
1, 979895, Note_on_c, 0, 65, 37
1, 979979, Control_c, 0, 64, 116
1, 979994, Control_c, 0, 64, 104
1, 980008, Control_c, 0, 64, 95
1, 980023, Control_c, 0, 64, 84
1, 980046, Control_c, 0, 64, 78
1, 980061, Control_c, 0, 64, 72
1, 980076, Control_c, 0, 64, 69
1, 980090, Control_c, 0, 64, 66
1, 980105, Control_c, 0, 64, 64
1, 980120, Control_c, 0, 64, 63
1, 980134, Control_c, 0, 64, 61
1, 980149, Control_c, 0, 64, 60
1, 980153, Note_off_c, 0, 64, 31
1, 980164, Control_c, 0, 64, 59
1, 980179, Control_c, 0, 64, 58
1, 980238, Control_c, 0, 64, 59
1, 980253, Control_c, 0, 64, 60
1, 980268, Control_c, 0, 64, 61
1, 980284, Control_c, 0, 64, 63
1, 980299, Control_c, 0, 64, 65
1, 980313, Control_c, 0, 64, 67
1, 980328, Control_c, 0, 64, 69
1, 980343, Control_c, 0, 64, 73
1, 980358, Control_c, 0, 64, 77
1, 980373, Control_c, 0, 64, 82
1, 980387, Control_c, 0, 64, 88
1, 980402, Control_c, 0, 64, 93
1, 980417, Control_c, 0, 64, 99
1, 980431, Control_c, 0, 64, 108
1, 980446, Control_c, 0, 64, 127
1, 980745, Note_on_c, 0, 70, 33
1, 980852, Control_c, 0, 64, 111
1, 980867, Control_c, 0, 64, 100
1, 980882, Control_c, 0, 64, 93
1, 980897, Control_c, 0, 64, 87
1, 980911, Control_c, 0, 64, 80
1, 980926, Control_c, 0, 64, 74
1, 980941, Control_c, 0, 64, 70
1, 980955, Control_c, 0, 64, 66
1, 980970, Control_c, 0, 64, 64
1, 980973, Note_off_c, 0, 69, 35
1, 980985, Control_c, 0, 64, 63
1, 981000, Control_c, 0, 64, 61
1, 981015, Control_c, 0, 64, 60
1, 981030, Control_c, 0, 64, 59
1, 981060, Control_c, 0, 64, 60
1, 981074, Control_c, 0, 64, 61
1, 981090, Control_c, 0, 64, 62
1, 981105, Control_c, 0, 64, 64
1, 981120, Control_c, 0, 64, 67
1, 981134, Control_c, 0, 64, 72
1, 981149, Control_c, 0, 64, 78
1, 981164, Control_c, 0, 64, 86
1, 981179, Control_c, 0, 64, 96
1, 981194, Control_c, 0, 64, 113
1, 981209, Control_c, 0, 64, 127
1, 981323, Note_off_c, 0, 57, 38
1, 981354, Note_off_c, 0, 70, 38
1, 981371, Note_off_c, 0, 65, 36
1, 981396, Note_off_c, 0, 73, 26
1, 981866, Note_on_c, 0, 76, 68
1, 981867, Note_on_c, 0, 72, 58
1, 981873, Note_on_c, 0, 64, 38
1, 981878, Note_on_c, 0, 57, 34
1, 981928, Control_c, 0, 64, 92
1, 981943, Control_c, 0, 64, 79
1, 981957, Control_c, 0, 64, 70
1, 981972, Control_c, 0, 64, 65
1, 981976, Note_off_c, 0, 72, 56
1, 981987, Control_c, 0, 64, 61
1, 981998, Note_on_c, 0, 74, 52
1, 982001, Note_on_c, 0, 70, 46
1, 982001, Control_c, 0, 64, 59
1, 982016, Control_c, 0, 64, 57
1, 982031, Control_c, 0, 64, 55
1, 982038, Note_off_c, 0, 76, 52
1, 982046, Control_c, 0, 64, 53
1, 982061, Control_c, 0, 64, 50
1, 982076, Control_c, 0, 64, 48
1, 982091, Control_c, 0, 64, 46
1, 982106, Control_c, 0, 64, 44
1, 982121, Control_c, 0, 64, 41
1, 982130, Note_off_c, 0, 70, 37
1, 982132, Note_on_c, 0, 73, 47
1, 982136, Control_c, 0, 64, 39
1, 982139, Note_on_c, 0, 69, 43
1, 982144, Note_off_c, 0, 74, 54
1, 982150, Control_c, 0, 64, 36
1, 982165, Control_c, 0, 64, 35
1, 982180, Control_c, 0, 64, 33
1, 982194, Control_c, 0, 64, 31
1, 982209, Control_c, 0, 64, 29
1, 982224, Control_c, 0, 64, 28
1, 982239, Control_c, 0, 64, 27
1, 982254, Control_c, 0, 64, 26
1, 982350, Control_c, 0, 64, 26
1, 982365, Control_c, 0, 64, 28
1, 982380, Control_c, 0, 64, 30
1, 982395, Control_c, 0, 64, 33
1, 982409, Control_c, 0, 64, 36
1, 982424, Control_c, 0, 64, 39
1, 982439, Control_c, 0, 64, 42
1, 982454, Control_c, 0, 64, 44
1, 982469, Control_c, 0, 64, 45
1, 982483, Control_c, 0, 64, 46
1, 982498, Control_c, 0, 64, 48
1, 982513, Control_c, 0, 64, 50
1, 982528, Control_c, 0, 64, 51
1, 982543, Control_c, 0, 64, 53
1, 982557, Control_c, 0, 64, 54
1, 982572, Control_c, 0, 64, 55
1, 982587, Control_c, 0, 64, 55
1, 982601, Control_c, 0, 64, 56
1, 982616, Control_c, 0, 64, 57
1, 982631, Control_c, 0, 64, 58
1, 982646, Control_c, 0, 64, 59
1, 982661, Control_c, 0, 64, 60
1, 982677, Control_c, 0, 64, 60
1, 982692, Control_c, 0, 64, 61
1, 982706, Control_c, 0, 64, 62
1, 982721, Control_c, 0, 64, 63
1, 982736, Control_c, 0, 64, 63
1, 982751, Control_c, 0, 64, 64
1, 982766, Control_c, 0, 64, 64
1, 982780, Control_c, 0, 64, 65
1, 982795, Control_c, 0, 64, 66
1, 982810, Control_c, 0, 64, 67
1, 982824, Control_c, 0, 64, 68
1, 982839, Control_c, 0, 64, 69
1, 982854, Control_c, 0, 64, 71
1, 982869, Control_c, 0, 64, 73
1, 982885, Control_c, 0, 64, 75
1, 982899, Control_c, 0, 64, 78
1, 982914, Control_c, 0, 64, 80
1, 982929, Control_c, 0, 64, 83
1, 982944, Control_c, 0, 64, 85
1, 982959, Control_c, 0, 64, 88
1, 982973, Control_c, 0, 64, 90
1, 982988, Control_c, 0, 64, 92
1, 983003, Control_c, 0, 64, 93
1, 983018, Control_c, 0, 64, 93
1, 983129, Control_c, 0, 64, 93
1, 983188, Control_c, 0, 64, 92
1, 983203, Control_c, 0, 64, 92
1, 983262, Control_c, 0, 64, 91
1, 983277, Control_c, 0, 64, 91
1, 983292, Control_c, 0, 64, 90
1, 983337, Control_c, 0, 64, 90
1, 983366, Control_c, 0, 64, 89
1, 983381, Control_c, 0, 64, 89
1, 983411, Control_c, 0, 64, 88
1, 983425, Control_c, 0, 64, 87
1, 983440, Control_c, 0, 64, 87
1, 983455, Control_c, 0, 64, 86
1, 983470, Control_c, 0, 64, 86
1, 983486, Control_c, 0, 64, 85
1, 983501, Control_c, 0, 64, 84
1, 983516, Control_c, 0, 64, 82
1, 983530, Control_c, 0, 64, 82
1, 983575, Control_c, 0, 64, 81
1, 983590, Control_c, 0, 64, 81
1, 983604, Control_c, 0, 64, 80
1, 983634, Control_c, 0, 64, 80
1, 983663, Control_c, 0, 64, 79
1, 983678, Control_c, 0, 64, 78
1, 983693, Control_c, 0, 64, 78
1, 983708, Control_c, 0, 64, 77
1, 983722, Control_c, 0, 64, 77
1, 983737, Control_c, 0, 64, 76
1, 983767, Control_c, 0, 64, 76
1, 983789, Control_c, 0, 64, 75
1, 983804, Control_c, 0, 64, 74
1, 983819, Control_c, 0, 64, 73
1, 983834, Control_c, 0, 64, 73
1, 983849, Control_c, 0, 64, 72
1, 983863, Control_c, 0, 64, 72
1, 983878, Control_c, 0, 64, 71
1, 983893, Control_c, 0, 64, 71
1, 983908, Control_c, 0, 64, 70
1, 983914, Note_off_c, 0, 57, 24
1, 983922, Control_c, 0, 64, 70
1, 983952, Control_c, 0, 64, 69
1, 983967, Control_c, 0, 64, 69
1, 983981, Control_c, 0, 64, 68
1, 984011, Control_c, 0, 64, 68
1, 984026, Control_c, 0, 64, 67
1, 984070, Control_c, 0, 64, 67
1, 984085, Control_c, 0, 64, 66
1, 984115, Control_c, 0, 64, 66
1, 984130, Control_c, 0, 64, 65
1, 984160, Control_c, 0, 64, 65
1, 984189, Control_c, 0, 64, 64
1, 984204, Control_c, 0, 64, 64
1, 984234, Control_c, 0, 64, 63
1, 984248, Control_c, 0, 64, 63
1, 984263, Control_c, 0, 64, 62
1, 984279, Control_c, 0, 64, 62
1, 984294, Control_c, 0, 64, 61
1, 984368, Control_c, 0, 64, 62
1, 984396, Control_c, 0, 64, 63
1, 984411, Control_c, 0, 64, 63
1, 984426, Control_c, 0, 64, 64
1, 984441, Control_c, 0, 64, 65
1, 984456, Control_c, 0, 64, 66
1, 984470, Control_c, 0, 64, 67
1, 984485, Control_c, 0, 64, 68
1, 984500, Control_c, 0, 64, 70
1, 984515, Control_c, 0, 64, 71
1, 984538, Control_c, 0, 64, 72
1, 984552, Control_c, 0, 64, 74
1, 984567, Control_c, 0, 64, 75
1, 984582, Control_c, 0, 64, 77
1, 984597, Control_c, 0, 64, 79
1, 984611, Control_c, 0, 64, 81
1, 984626, Control_c, 0, 64, 83
1, 984641, Control_c, 0, 64, 85
1, 984656, Control_c, 0, 64, 87
1, 984671, Control_c, 0, 64, 90
1, 984685, Control_c, 0, 64, 94
1, 984700, Control_c, 0, 64, 98
1, 984715, Control_c, 0, 64, 104
1, 984730, Control_c, 0, 64, 115
1, 984745, Control_c, 0, 64, 127
1, 985137, Note_on_c, 0, 52, 33
1, 985671, Control_c, 0, 64, 117
1, 985686, Control_c, 0, 64, 107
1, 985689, Note_on_c, 0, 55, 31
1, 985701, Control_c, 0, 64, 98
1, 985716, Control_c, 0, 64, 89
1, 985731, Control_c, 0, 64, 81
1, 985745, Control_c, 0, 64, 73
1, 985760, Control_c, 0, 64, 67
1, 985775, Control_c, 0, 64, 62
1, 985790, Control_c, 0, 64, 58
1, 985805, Control_c, 0, 64, 57
1, 985834, Note_off_c, 0, 52, 42
1, 985834, Control_c, 0, 64, 58
1, 985849, Control_c, 0, 64, 60
1, 985865, Control_c, 0, 64, 63
1, 985880, Control_c, 0, 64, 67
1, 985895, Control_c, 0, 64, 71
1, 985909, Control_c, 0, 64, 77
1, 985924, Control_c, 0, 64, 84
1, 985939, Control_c, 0, 64, 93
1, 985954, Control_c, 0, 64, 108
1, 985969, Control_c, 0, 64, 127
1, 985972, Note_off_c, 0, 55, 40
1, 986078, Note_on_c, 0, 55, 55
1, 986245, Note_off_c, 0, 55, 62
1, 986336, Note_on_c, 0, 55, 62
1, 986376, Control_c, 0, 64, 109
1, 986391, Control_c, 0, 64, 90
1, 986405, Control_c, 0, 64, 77
1, 986420, Control_c, 0, 64, 70
1, 986435, Control_c, 0, 64, 65
1, 986449, Control_c, 0, 64, 64
1, 986464, Control_c, 0, 64, 65
1, 986479, Control_c, 0, 64, 68
1, 986494, Control_c, 0, 64, 73
1, 986509, Control_c, 0, 64, 81
1, 986523, Control_c, 0, 64, 92
1, 986538, Control_c, 0, 64, 97
1, 986553, Control_c, 0, 64, 98
1, 986568, Control_c, 0, 64, 97
1, 986582, Note_on_c, 0, 53, 68
1, 986583, Control_c, 0, 64, 95
1, 986598, Control_c, 0, 64, 92
1, 986613, Control_c, 0, 64, 89
1, 986628, Control_c, 0, 64, 85
1, 986643, Control_c, 0, 64, 80
1, 986650, Note_off_c, 0, 55, 51
1, 986658, Control_c, 0, 64, 75
1, 986673, Control_c, 0, 64, 72
1, 986688, Control_c, 0, 64, 70
1, 986703, Control_c, 0, 64, 69
1, 986718, Control_c, 0, 64, 66
1, 986733, Control_c, 0, 64, 64
1, 986747, Control_c, 0, 64, 63
1, 986770, Control_c, 0, 64, 62
1, 986785, Control_c, 0, 64, 61
1, 986800, Control_c, 0, 64, 60
1, 986815, Control_c, 0, 64, 58
1, 986829, Control_c, 0, 64, 56
1, 986844, Control_c, 0, 64, 54
1, 986847, Note_on_c, 0, 56, 56
1, 986859, Control_c, 0, 64, 53
1, 986873, Control_c, 0, 64, 52
1, 986888, Control_c, 0, 64, 51
1, 986903, Control_c, 0, 64, 50
1, 986918, Control_c, 0, 64, 48
1, 986933, Control_c, 0, 64, 45
1, 986947, Control_c, 0, 64, 44
1, 986960, Note_off_c, 0, 53, 56
1, 986962, Control_c, 0, 64, 42
1, 986977, Control_c, 0, 64, 41
1, 986992, Control_c, 0, 64, 40
1, 987007, Control_c, 0, 64, 38
1, 987021, Control_c, 0, 64, 37
1, 987036, Control_c, 0, 64, 36
1, 987051, Control_c, 0, 64, 35
1, 987066, Control_c, 0, 64, 33
1, 987081, Control_c, 0, 64, 32
1, 987096, Control_c, 0, 64, 31
1, 987111, Control_c, 0, 64, 30
1, 987126, Control_c, 0, 64, 29
1, 987141, Control_c, 0, 64, 28
1, 987155, Control_c, 0, 64, 27
1, 987164, Note_on_c, 0, 62, 43
1, 987170, Control_c, 0, 64, 25
1, 987185, Control_c, 0, 64, 24
1, 987199, Control_c, 0, 64, 24
1, 987214, Control_c, 0, 64, 23
1, 987229, Control_c, 0, 64, 23
1, 987244, Control_c, 0, 64, 22
1, 987273, Control_c, 0, 64, 22
1, 987298, Note_off_c, 0, 56, 53
1, 987362, Control_c, 0, 64, 23
1, 987377, Control_c, 0, 64, 26
1, 987391, Control_c, 0, 64, 30
1, 987406, Control_c, 0, 64, 34
1, 987421, Control_c, 0, 64, 38
1, 987424, Note_on_c, 0, 59, 58
1, 987436, Control_c, 0, 64, 42
1, 987451, Control_c, 0, 64, 47
1, 987467, Control_c, 0, 64, 52
1, 987482, Control_c, 0, 64, 56
1, 987496, Control_c, 0, 64, 59
1, 987511, Control_c, 0, 64, 62
1, 987534, Control_c, 0, 64, 65
1, 987549, Control_c, 0, 64, 69
1, 987564, Control_c, 0, 64, 78
1, 987575, Note_off_c, 0, 62, 52
1, 987578, Control_c, 0, 64, 96
1, 987593, Control_c, 0, 64, 127
1, 987683, Note_on_c, 0, 52, 62
1, 987726, Control_c, 0, 64, 112
1, 987741, Control_c, 0, 64, 82
1, 987756, Control_c, 0, 64, 70
1, 987770, Control_c, 0, 64, 62
1, 987785, Control_c, 0, 64, 56
1, 987787, Note_off_c, 0, 59, 56
1, 987800, Control_c, 0, 64, 55
1, 987814, Control_c, 0, 64, 59
1, 987829, Control_c, 0, 64, 63
1, 987844, Control_c, 0, 64, 69
1, 987859, Control_c, 0, 64, 76
1, 987874, Control_c, 0, 64, 86
1, 987889, Control_c, 0, 64, 97
1, 987904, Control_c, 0, 64, 106
1, 987919, Control_c, 0, 64, 103
1, 987928, Note_on_c, 0, 55, 63
1, 987933, Control_c, 0, 64, 87
1, 987948, Control_c, 0, 64, 72
1, 987963, Note_off_c, 0, 52, 57
1, 987963, Control_c, 0, 64, 63
1, 987978, Control_c, 0, 64, 49
1, 987993, Control_c, 0, 64, 30
1, 988008, Control_c, 0, 64, 24
1, 988022, Control_c, 0, 64, 29
1, 988037, Control_c, 0, 64, 45
1, 988052, Control_c, 0, 64, 59
1, 988067, Control_c, 0, 64, 66
1, 988082, Control_c, 0, 64, 74
1, 988096, Control_c, 0, 64, 92
1, 988103, Note_off_c, 0, 55, 62
1, 988111, Control_c, 0, 64, 127
1, 988174, Note_on_c, 0, 55, 61
1, 988200, Control_c, 0, 64, 89
1, 988214, Control_c, 0, 64, 73
1, 988229, Control_c, 0, 64, 64
1, 988244, Control_c, 0, 64, 57
1, 988259, Control_c, 0, 64, 56
1, 988282, Control_c, 0, 64, 58
1, 988297, Control_c, 0, 64, 63
1, 988312, Control_c, 0, 64, 69
1, 988327, Control_c, 0, 64, 77
1, 988342, Control_c, 0, 64, 90
1, 988354, Note_off_c, 0, 55, 61
1, 988357, Control_c, 0, 64, 109
1, 988372, Control_c, 0, 64, 127
1, 988445, Note_on_c, 0, 55, 61
1, 988460, Control_c, 0, 64, 117
1, 988475, Control_c, 0, 64, 100
1, 988490, Control_c, 0, 64, 84
1, 988505, Control_c, 0, 64, 74
1, 988519, Control_c, 0, 64, 67
1, 988534, Control_c, 0, 64, 62
1, 988549, Control_c, 0, 64, 58
1, 988564, Control_c, 0, 64, 57
1, 988579, Control_c, 0, 64, 58
1, 988593, Control_c, 0, 64, 60
1, 988608, Control_c, 0, 64, 63
1, 988623, Control_c, 0, 64, 65
1, 988638, Control_c, 0, 64, 68
1, 988652, Control_c, 0, 64, 71
1, 988667, Control_c, 0, 64, 74
1, 988682, Control_c, 0, 64, 76
1, 988711, Control_c, 0, 64, 74
1, 988717, Note_on_c, 0, 53, 51
1, 988726, Control_c, 0, 64, 73
1, 988741, Control_c, 0, 64, 72
1, 988756, Control_c, 0, 64, 71
1, 988771, Control_c, 0, 64, 68
1, 988786, Control_c, 0, 64, 66
1, 988796, Note_off_c, 0, 55, 33
1, 988801, Control_c, 0, 64, 65
1, 988816, Control_c, 0, 64, 64
1, 988831, Control_c, 0, 64, 63
1, 988845, Control_c, 0, 64, 62
1, 988860, Control_c, 0, 64, 62
1, 988889, Control_c, 0, 64, 61
1, 988904, Control_c, 0, 64, 60
1, 988918, Control_c, 0, 64, 58
1, 988933, Control_c, 0, 64, 58
1, 988948, Control_c, 0, 64, 57
1, 988978, Control_c, 0, 64, 57
1, 988992, Control_c, 0, 64, 56
1, 989007, Control_c, 0, 64, 56
1, 989045, Control_c, 0, 64, 55
1, 989059, Control_c, 0, 64, 54
1, 989066, Note_on_c, 0, 56, 51
1, 989075, Control_c, 0, 64, 54
1, 989090, Control_c, 0, 64, 53
1, 989105, Control_c, 0, 64, 53
1, 989135, Control_c, 0, 64, 52
1, 989149, Control_c, 0, 64, 52
1, 989164, Control_c, 0, 64, 51
1, 989179, Control_c, 0, 64, 50
1, 989209, Control_c, 0, 64, 49
1, 989235, Note_off_c, 0, 53, 56
1, 989238, Control_c, 0, 64, 49
1, 989253, Control_c, 0, 64, 48
1, 989267, Control_c, 0, 64, 47
1, 989282, Control_c, 0, 64, 47
1, 989297, Control_c, 0, 64, 46
1, 989312, Control_c, 0, 64, 46
1, 989327, Control_c, 0, 64, 45
1, 989341, Control_c, 0, 64, 45
1, 989356, Control_c, 0, 64, 44
1, 989386, Control_c, 0, 64, 44
1, 989415, Control_c, 0, 64, 43
1, 989430, Control_c, 0, 64, 43
1, 989445, Control_c, 0, 64, 42
1, 989454, Note_on_c, 0, 62, 42
1, 989460, Control_c, 0, 64, 42
1, 989475, Control_c, 0, 64, 41
1, 989489, Control_c, 0, 64, 41
1, 989519, Control_c, 0, 64, 40
1, 989549, Control_c, 0, 64, 40
1, 989564, Control_c, 0, 64, 39
1, 989579, Control_c, 0, 64, 39
1, 989594, Control_c, 0, 64, 38
1, 989609, Control_c, 0, 64, 38
1, 989623, Control_c, 0, 64, 37
1, 989628, Note_off_c, 0, 56, 49
1, 989653, Control_c, 0, 64, 36
1, 989682, Control_c, 0, 64, 36
1, 989712, Control_c, 0, 64, 35
1, 989741, Control_c, 0, 64, 35
1, 989980, Note_on_c, 0, 59, 40
1, 990105, Control_c, 0, 64, 35
1, 990120, Control_c, 0, 64, 36
1, 990135, Control_c, 0, 64, 37
1, 990150, Control_c, 0, 64, 39
1, 990164, Control_c, 0, 64, 42
1, 990179, Control_c, 0, 64, 44
1, 990181, Note_off_c, 0, 62, 53
1, 990194, Control_c, 0, 64, 47
1, 990209, Control_c, 0, 64, 49
1, 990224, Control_c, 0, 64, 50
1, 990238, Control_c, 0, 64, 52
1, 990253, Control_c, 0, 64, 53
1, 990268, Control_c, 0, 64, 54
1, 990283, Control_c, 0, 64, 55
1, 990297, Control_c, 0, 64, 56
1, 990312, Control_c, 0, 64, 57
1, 990327, Control_c, 0, 64, 58
1, 990342, Control_c, 0, 64, 59
1, 990357, Control_c, 0, 64, 60
1, 990372, Control_c, 0, 64, 61
1, 990387, Control_c, 0, 64, 62
1, 990402, Control_c, 0, 64, 63
1, 990417, Control_c, 0, 64, 64
1, 990431, Control_c, 0, 64, 65
1, 990446, Control_c, 0, 64, 67
1, 990461, Control_c, 0, 64, 69
1, 990476, Control_c, 0, 64, 72
1, 990491, Control_c, 0, 64, 77
1, 990506, Control_c, 0, 64, 82
1, 990528, Control_c, 0, 64, 90
1, 990543, Control_c, 0, 64, 101
1, 990558, Control_c, 0, 64, 120
1, 990572, Control_c, 0, 64, 127
1, 990864, Note_on_c, 0, 58, 46
1, 990865, Note_on_c, 0, 74, 58
1, 990870, Control_c, 0, 64, 122
1, 990885, Control_c, 0, 64, 107
1, 990899, Control_c, 0, 64, 96
1, 990914, Control_c, 0, 64, 87
1, 990929, Control_c, 0, 64, 80
1, 990944, Control_c, 0, 64, 75
1, 990959, Control_c, 0, 64, 70
1, 990974, Control_c, 0, 64, 65
1, 990988, Control_c, 0, 64, 60
1, 991003, Control_c, 0, 64, 53
1, 991018, Control_c, 0, 64, 52
1, 991047, Control_c, 0, 64, 53
1, 991060, Note_off_c, 0, 73, 62
1, 991062, Control_c, 0, 64, 55
1, 991075, Note_off_c, 0, 69, 55
1, 991077, Control_c, 0, 64, 58
1, 991092, Control_c, 0, 64, 62
1, 991107, Control_c, 0, 64, 65
1, 991120, Control_c, 0, 64, 68
1, 991135, Control_c, 0, 64, 73
1, 991142, Note_off_c, 0, 59, 38
1, 991150, Control_c, 0, 64, 81
1, 991165, Control_c, 0, 64, 92
1, 991180, Control_c, 0, 64, 117
1, 991194, Control_c, 0, 64, 127
1, 991299, Note_on_c, 0, 75, 79
1, 991405, Note_off_c, 0, 64, 36
1, 991411, Note_off_c, 0, 74, 63
1, 991508, Note_off_c, 0, 58, 49
1, 991596, Note_off_c, 0, 75, 61
1, 991974, Note_on_c, 0, 57, 55
1, 991974, Note_on_c, 0, 76, 89
1, 991976, Note_on_c, 0, 64, 60
1, 991976, Note_on_c, 0, 72, 87
1, 992024, Control_c, 0, 64, 108
1, 992039, Control_c, 0, 64, 80
1, 992054, Control_c, 0, 64, 65
1, 992068, Control_c, 0, 64, 47
1, 992077, Note_off_c, 0, 72, 62
1, 992080, Note_on_c, 0, 70, 80
1, 992081, Note_on_c, 0, 74, 74
1, 992083, Control_c, 0, 64, 0
1, 992114, Note_off_c, 0, 76, 63
1, 992187, Note_on_c, 0, 73, 67
1, 992195, Note_on_c, 0, 69, 59
1, 992206, Note_off_c, 0, 70, 60
1, 992217, Note_off_c, 0, 74, 55
1, 992440, Control_c, 0, 64, 19
1, 992455, Control_c, 0, 64, 30
1, 992470, Control_c, 0, 64, 37
1, 992484, Control_c, 0, 64, 43
1, 992499, Control_c, 0, 64, 48
1, 992514, Control_c, 0, 64, 50
1, 992529, Control_c, 0, 64, 52
1, 992544, Control_c, 0, 64, 53
1, 992558, Control_c, 0, 64, 54
1, 992573, Control_c, 0, 64, 56
1, 992588, Control_c, 0, 64, 57
1, 992603, Control_c, 0, 64, 59
1, 992618, Control_c, 0, 64, 60
1, 992632, Control_c, 0, 64, 60
1, 992647, Control_c, 0, 64, 61
1, 992662, Control_c, 0, 64, 63
1, 992677, Control_c, 0, 64, 64
1, 992691, Control_c, 0, 64, 65
1, 992706, Control_c, 0, 64, 66
1, 992721, Control_c, 0, 64, 67
1, 992736, Control_c, 0, 64, 69
1, 992751, Control_c, 0, 64, 71
1, 992773, Control_c, 0, 64, 75
1, 992788, Control_c, 0, 64, 79
1, 992803, Control_c, 0, 64, 84
1, 992818, Control_c, 0, 64, 91
1, 992833, Control_c, 0, 64, 102
1, 992847, Control_c, 0, 64, 127
1, 993057, Note_off_c, 0, 64, 31
1, 993128, Note_off_c, 0, 69, 36
1, 993138, Note_off_c, 0, 73, 31
1, 993721, Note_on_c, 0, 64, 66
1, 993724, Note_on_c, 0, 52, 68
1, 993728, Note_on_c, 0, 76, 101
1, 993731, Note_on_c, 0, 72, 93
1, 993774, Control_c, 0, 64, 106
1, 993788, Control_c, 0, 64, 79
1, 993803, Control_c, 0, 64, 64
1, 993818, Control_c, 0, 64, 53
1, 993827, Note_on_c, 0, 70, 83
1, 993827, Note_on_c, 0, 74, 76
1, 993830, Note_off_c, 0, 72, 58
1, 993833, Control_c, 0, 64, 45
1, 993848, Note_off_c, 0, 57, 59
1, 993848, Control_c, 0, 64, 40
1, 993860, Note_off_c, 0, 76, 62
1, 993864, Control_c, 0, 64, 35
1, 993879, Control_c, 0, 64, 25
1, 993893, Control_c, 0, 64, 0
1, 993927, Note_on_c, 0, 69, 74
1, 993928, Note_on_c, 0, 73, 74
1, 993942, Note_off_c, 0, 70, 64
1, 993967, Note_off_c, 0, 74, 58
1, 994116, Control_c, 0, 64, 23
1, 994131, Control_c, 0, 64, 33
1, 994146, Control_c, 0, 64, 40
1, 994161, Control_c, 0, 64, 46
1, 994175, Control_c, 0, 64, 50
1, 994190, Control_c, 0, 64, 54
1, 994205, Control_c, 0, 64, 56
1, 994220, Control_c, 0, 64, 58
1, 994235, Control_c, 0, 64, 59
1, 994250, Control_c, 0, 64, 61
1, 994271, Control_c, 0, 64, 62
1, 994286, Control_c, 0, 64, 64
1, 994301, Control_c, 0, 64, 65
1, 994316, Control_c, 0, 64, 66
1, 994330, Control_c, 0, 64, 68
1, 994345, Control_c, 0, 64, 70
1, 994360, Control_c, 0, 64, 73
1, 994375, Control_c, 0, 64, 77
1, 994390, Control_c, 0, 64, 82
1, 994405, Control_c, 0, 64, 87
1, 994420, Control_c, 0, 64, 94
1, 994435, Control_c, 0, 64, 104
1, 994450, Control_c, 0, 64, 127
1, 995144, Note_on_c, 0, 49, 36
1, 995207, Note_off_c, 0, 52, 40
1, 995541, Note_on_c, 0, 45, 55
1, 995578, Note_off_c, 0, 49, 58
1, 995851, Note_on_c, 0, 40, 70
1, 996093, Note_off_c, 0, 45, 33
1, 996115, Note_on_c, 0, 37, 79
1, 996227, Control_c, 0, 64, 99
1, 996242, Control_c, 0, 64, 86
1, 996259, Control_c, 0, 64, 74
1, 996274, Control_c, 0, 64, 65
1, 996288, Control_c, 0, 64, 55
1, 996296, Note_off_c, 0, 64, 38
1, 996296, Note_off_c, 0, 40, 53
1, 996303, Control_c, 0, 64, 49
1, 996318, Control_c, 0, 64, 52
1, 996332, Control_c, 0, 64, 58
1, 996347, Control_c, 0, 64, 62
1, 996362, Control_c, 0, 64, 66
1, 996377, Control_c, 0, 64, 73
1, 996392, Control_c, 0, 64, 98
1, 996406, Control_c, 0, 64, 127
1, 996415, Note_on_c, 0, 33, 81
1, 996481, Note_off_c, 0, 69, 57
1, 996510, Note_off_c, 0, 37, 57
1, 996555, Note_off_c, 0, 73, 61
1, 996900, Note_on_c, 0, 37, 68
1, 996902, Note_on_c, 0, 76, 96
1, 996903, Note_on_c, 0, 72, 91
1, 996903, Note_on_c, 0, 30, 71
1, 996962, Control_c, 0, 64, 83
1, 996969, Note_off_c, 0, 33, 50
1, 996977, Control_c, 0, 64, 67
1, 996992, Control_c, 0, 64, 50
1, 997006, Control_c, 0, 64, 0
1, 997015, Note_on_c, 0, 74, 77
1, 997016, Note_on_c, 0, 70, 79
1, 997044, Note_off_c, 0, 72, 62
1, 997057, Note_off_c, 0, 76, 64
1, 997133, Note_on_c, 0, 69, 70
1, 997133, Note_on_c, 0, 73, 75
1, 997167, Note_off_c, 0, 70, 62
1, 997184, Note_off_c, 0, 74, 58
1, 999596, Note_off_c, 0, 69, 9
1, 999863, Note_off_c, 0, 37, 30
1, 999922, Note_off_c, 0, 30, 37
1, 1000322, Control_c, 0, 64, 15
1, 1000336, Control_c, 0, 64, 23
1, 1000351, Control_c, 0, 64, 29
1, 1000366, Control_c, 0, 64, 35
1, 1000380, Control_c, 0, 64, 40
1, 1000395, Control_c, 0, 64, 44
1, 1000410, Control_c, 0, 64, 47
1, 1000425, Control_c, 0, 64, 49
1, 1000440, Control_c, 0, 64, 51
1, 1000454, Control_c, 0, 64, 53
1, 1000469, Control_c, 0, 64, 55
1, 1000484, Control_c, 0, 64, 56
1, 1000499, Control_c, 0, 64, 57
1, 1000514, Control_c, 0, 64, 59
1, 1000528, Control_c, 0, 64, 60
1, 1000543, Control_c, 0, 64, 61
1, 1000558, Control_c, 0, 64, 62
1, 1000572, Control_c, 0, 64, 63
1, 1000587, Control_c, 0, 64, 64
1, 1000602, Control_c, 0, 64, 65
1, 1000617, Control_c, 0, 64, 67
1, 1000632, Control_c, 0, 64, 69
1, 1000647, Control_c, 0, 64, 72
1, 1000662, Control_c, 0, 64, 75
1, 1000677, Control_c, 0, 64, 78
1, 1000692, Control_c, 0, 64, 83
1, 1000706, Control_c, 0, 64, 87
1, 1000721, Control_c, 0, 64, 93
1, 1000736, Control_c, 0, 64, 99
1, 1000751, Control_c, 0, 64, 107
1, 1000766, Control_c, 0, 64, 115
1, 1000780, Control_c, 0, 64, 120
1, 1000795, Control_c, 0, 64, 122
1, 1000810, Control_c, 0, 64, 127
1, 1001134, Note_on_c, 0, 76, 31
1, 1001164, Note_on_c, 0, 52, 21
1, 1001649, Control_c, 0, 64, 125
1, 1001664, Control_c, 0, 64, 120
1, 1001666, Note_on_c, 0, 55, 27
1, 1001670, Note_on_c, 0, 79, 41
1, 1001678, Control_c, 0, 64, 116
1, 1001693, Control_c, 0, 64, 113
1, 1001708, Control_c, 0, 64, 105
1, 1001722, Control_c, 0, 64, 95
1, 1001737, Control_c, 0, 64, 84
1, 1001759, Control_c, 0, 64, 75
1, 1001774, Control_c, 0, 64, 69
1, 1001783, Note_off_c, 0, 76, 35
1, 1001789, Control_c, 0, 64, 65
1, 1001796, Note_off_c, 0, 52, 39
1, 1001804, Control_c, 0, 64, 63
1, 1001819, Control_c, 0, 64, 63
1, 1001833, Control_c, 0, 64, 65
1, 1001849, Control_c, 0, 64, 67
1, 1001864, Control_c, 0, 64, 70
1, 1001879, Control_c, 0, 64, 74
1, 1001894, Control_c, 0, 64, 81
1, 1001908, Control_c, 0, 64, 88
1, 1001915, Note_off_c, 0, 79, 55
1, 1001923, Control_c, 0, 64, 97
1, 1001929, Note_off_c, 0, 55, 41
1, 1001938, Control_c, 0, 64, 120
1, 1001953, Control_c, 0, 64, 127
1, 1002045, Note_on_c, 0, 55, 43
1, 1002045, Note_on_c, 0, 79, 63
1, 1002206, Note_off_c, 0, 79, 60
1, 1002231, Note_off_c, 0, 55, 38
1, 1002313, Note_on_c, 0, 79, 69
1, 1002322, Note_on_c, 0, 55, 51
1, 1002352, Control_c, 0, 64, 108
1, 1002366, Control_c, 0, 64, 88
1, 1002381, Control_c, 0, 64, 77
1, 1002396, Control_c, 0, 64, 69
1, 1002411, Control_c, 0, 64, 63
1, 1002425, Control_c, 0, 64, 60
1, 1002440, Control_c, 0, 64, 62
1, 1002455, Control_c, 0, 64, 66
1, 1002470, Control_c, 0, 64, 70
1, 1002485, Control_c, 0, 64, 75
1, 1002507, Control_c, 0, 64, 79
1, 1002522, Control_c, 0, 64, 82
1, 1002537, Control_c, 0, 64, 83
1, 1002566, Control_c, 0, 64, 82
1, 1002579, Note_on_c, 0, 53, 45
1, 1002581, Control_c, 0, 64, 81
1, 1002584, Note_on_c, 0, 77, 67
1, 1002593, Note_off_c, 0, 79, 58
1, 1002596, Control_c, 0, 64, 79
1, 1002611, Control_c, 0, 64, 77
1, 1002625, Control_c, 0, 64, 75
1, 1002641, Control_c, 0, 64, 72
1, 1002656, Control_c, 0, 64, 70
1, 1002671, Control_c, 0, 64, 68
1, 1002677, Note_off_c, 0, 55, 36
1, 1002686, Control_c, 0, 64, 65
1, 1002701, Control_c, 0, 64, 64
1, 1002715, Control_c, 0, 64, 62
1, 1002730, Control_c, 0, 64, 60
1, 1002745, Control_c, 0, 64, 58
1, 1002760, Control_c, 0, 64, 57
1, 1002774, Control_c, 0, 64, 55
1, 1002789, Control_c, 0, 64, 54
1, 1002804, Control_c, 0, 64, 54
1, 1002819, Control_c, 0, 64, 53
1, 1002834, Control_c, 0, 64, 52
1, 1002842, Note_on_c, 0, 80, 58
1, 1002848, Control_c, 0, 64, 51
1, 1002863, Control_c, 0, 64, 51
1, 1002870, Note_on_c, 0, 56, 31
1, 1002878, Control_c, 0, 64, 50
1, 1002893, Control_c, 0, 64, 49
1, 1002897, Note_off_c, 0, 77, 60
1, 1002908, Control_c, 0, 64, 49
1, 1002922, Control_c, 0, 64, 48
1, 1002937, Control_c, 0, 64, 47
1, 1002952, Control_c, 0, 64, 47
1, 1002981, Control_c, 0, 64, 46
1, 1003004, Note_off_c, 0, 53, 35
1, 1003011, Control_c, 0, 64, 46
1, 1003056, Control_c, 0, 64, 45
1, 1003085, Control_c, 0, 64, 45
1, 1003100, Control_c, 0, 64, 44
1, 1003160, Control_c, 0, 64, 44
1, 1003204, Control_c, 0, 64, 43
1, 1003211, Note_on_c, 0, 62, 23
1, 1003215, Note_on_c, 0, 86, 44
1, 1003306, Note_off_c, 0, 80, 57
1, 1003374, Control_c, 0, 64, 44
1, 1003389, Control_c, 0, 64, 45
1, 1003404, Control_c, 0, 64, 47
1, 1003419, Control_c, 0, 64, 49
1, 1003434, Control_c, 0, 64, 52
1, 1003449, Control_c, 0, 64, 54
1, 1003464, Control_c, 0, 64, 56
1, 1003479, Control_c, 0, 64, 57
1, 1003492, Note_off_c, 0, 56, 35
1, 1003494, Control_c, 0, 64, 59
1, 1003509, Control_c, 0, 64, 60
1, 1003511, Note_on_c, 0, 83, 63
1, 1003524, Control_c, 0, 64, 61
1, 1003538, Control_c, 0, 64, 62
1, 1003539, Note_on_c, 0, 59, 37
1, 1003553, Control_c, 0, 64, 63
1, 1003568, Control_c, 0, 64, 65
1, 1003583, Control_c, 0, 64, 67
1, 1003597, Control_c, 0, 64, 69
1, 1003599, Poly_aftertouch_c, 0, 84, 127
1, 1003612, Control_c, 0, 64, 74
1, 1003627, Control_c, 0, 64, 80
1, 1003642, Control_c, 0, 64, 87
1, 1003657, Control_c, 0, 64, 94
1, 1003671, Control_c, 0, 64, 98
1, 1003686, Control_c, 0, 64, 98
1, 1003715, Control_c, 0, 64, 98
1, 1003745, Control_c, 0, 64, 97
1, 1003760, Control_c, 0, 64, 96
1, 1003767, Note_on_c, 0, 76, 64
1, 1003775, Control_c, 0, 64, 94
1, 1003784, Note_on_c, 0, 52, 38
1, 1003789, Control_c, 0, 64, 91
1, 1003804, Control_c, 0, 64, 86
1, 1003819, Control_c, 0, 64, 79
1, 1003834, Control_c, 0, 64, 72
1, 1003849, Control_c, 0, 64, 64
1, 1003863, Control_c, 0, 64, 58
1, 1003878, Control_c, 0, 64, 53
1, 1003893, Control_c, 0, 64, 54
1, 1003908, Control_c, 0, 64, 57
1, 1003923, Control_c, 0, 64, 61
1, 1003938, Control_c, 0, 64, 65
1, 1003948, Note_off_c, 0, 86, 36
1, 1003953, Control_c, 0, 64, 67
1, 1003968, Control_c, 0, 64, 71
1, 1003983, Control_c, 0, 64, 75
1, 1004004, Control_c, 0, 64, 80
1, 1004019, Control_c, 0, 64, 82
1, 1004030, Note_on_c, 0, 55, 44
1, 1004034, Control_c, 0, 64, 82
1, 1004038, Note_on_c, 0, 79, 66
1, 1004049, Control_c, 0, 64, 79
1, 1004055, Poly_aftertouch_c, 0, 84, 0
1, 1004064, Control_c, 0, 64, 74
1, 1004078, Control_c, 0, 64, 68
1, 1004093, Control_c, 0, 64, 63
1, 1004101, Note_off_c, 0, 52, 41
1, 1004108, Control_c, 0, 64, 60
1, 1004118, Note_off_c, 0, 62, 33
1, 1004118, Note_off_c, 0, 76, 61
1, 1004123, Control_c, 0, 64, 60
1, 1004129, Note_off_c, 0, 83, 37
1, 1004131, Note_off_c, 0, 59, 34
1, 1004138, Control_c, 0, 64, 61
1, 1004153, Control_c, 0, 64, 64
1, 1004167, Control_c, 0, 64, 67
1, 1004182, Control_c, 0, 64, 71
1, 1004197, Control_c, 0, 64, 76
1, 1004212, Control_c, 0, 64, 80
1, 1004227, Control_c, 0, 64, 82
1, 1004242, Control_c, 0, 64, 83
1, 1004257, Control_c, 0, 64, 82
1, 1004272, Control_c, 0, 64, 81
1, 1004287, Control_c, 0, 64, 79
1, 1004291, Note_on_c, 0, 53, 40
1, 1004302, Control_c, 0, 64, 76
1, 1004302, Note_on_c, 0, 77, 67
1, 1004305, Note_off_c, 0, 55, 36
1, 1004317, Control_c, 0, 64, 73
1, 1004331, Control_c, 0, 64, 70
1, 1004341, Note_off_c, 0, 79, 61
1, 1004346, Control_c, 0, 64, 69
1, 1004361, Control_c, 0, 64, 68
1, 1004376, Control_c, 0, 64, 67
1, 1004391, Control_c, 0, 64, 65
1, 1004406, Control_c, 0, 64, 63
1, 1004420, Control_c, 0, 64, 62
1, 1004435, Control_c, 0, 64, 61
1, 1004450, Control_c, 0, 64, 61
1, 1004465, Control_c, 0, 64, 60
1, 1004480, Control_c, 0, 64, 59
1, 1004494, Control_c, 0, 64, 58
1, 1004509, Control_c, 0, 64, 57
1, 1004524, Control_c, 0, 64, 56
1, 1004538, Control_c, 0, 64, 55
1, 1004553, Control_c, 0, 64, 54
1, 1004568, Control_c, 0, 64, 53
1, 1004573, Note_on_c, 0, 80, 59
1, 1004583, Control_c, 0, 64, 52
1, 1004584, Note_on_c, 0, 56, 28
1, 1004598, Control_c, 0, 64, 52
1, 1004612, Control_c, 0, 64, 51
1, 1004642, Control_c, 0, 64, 51
1, 1004648, Note_off_c, 0, 77, 62
1, 1004657, Control_c, 0, 64, 50
1, 1004667, Note_off_c, 0, 53, 36
1, 1004672, Control_c, 0, 64, 50
1, 1004889, Note_on_c, 0, 62, 26
1, 1004895, Note_on_c, 0, 86, 51
1, 1004916, Control_c, 0, 64, 49
1, 1005000, Note_off_c, 0, 80, 56
1, 1005005, Control_c, 0, 64, 50
1, 1005020, Control_c, 0, 64, 50
1, 1005035, Control_c, 0, 64, 51
1, 1005050, Control_c, 0, 64, 51
1, 1005055, Note_off_c, 0, 56, 38
1, 1005065, Control_c, 0, 64, 52
1, 1005080, Control_c, 0, 64, 53
1, 1005095, Control_c, 0, 64, 53
1, 1005196, Note_on_c, 0, 59, 26
1, 1005211, Note_on_c, 0, 83, 45
1, 1005317, Control_c, 0, 64, 54
1, 1005332, Control_c, 0, 64, 56
1, 1005347, Control_c, 0, 64, 58
1, 1005361, Control_c, 0, 64, 60
1, 1005376, Control_c, 0, 64, 62
1, 1005391, Control_c, 0, 64, 64
1, 1005406, Note_off_c, 0, 62, 34
1, 1005406, Control_c, 0, 64, 67
1, 1005418, Poly_aftertouch_c, 0, 84, 127
1, 1005421, Control_c, 0, 64, 70
1, 1005435, Control_c, 0, 64, 74
1, 1005450, Control_c, 0, 64, 79
1, 1005465, Control_c, 0, 64, 83
1, 1005480, Control_c, 0, 64, 86
1, 1005532, Control_c, 0, 64, 85
1, 1005547, Control_c, 0, 64, 84
1, 1005562, Control_c, 0, 64, 83
1, 1005564, Note_on_c, 0, 76, 44
1, 1005571, Note_on_c, 0, 52, 30
1, 1005576, Control_c, 0, 64, 82
1, 1005589, Note_off_c, 0, 86, 16
1, 1005591, Control_c, 0, 64, 80
1, 1005606, Control_c, 0, 64, 78
1, 1005621, Control_c, 0, 64, 74
1, 1005636, Control_c, 0, 64, 71
1, 1005650, Control_c, 0, 64, 69
1, 1005665, Control_c, 0, 64, 69
1, 1005680, Control_c, 0, 64, 68
1, 1005695, Control_c, 0, 64, 68
1, 1005710, Control_c, 0, 64, 66
1, 1005715, Note_off_c, 0, 59, 32
1, 1005724, Control_c, 0, 64, 65
1, 1005739, Control_c, 0, 64, 64
1, 1005754, Control_c, 0, 64, 64
1, 1005768, Control_c, 0, 64, 63
1, 1005783, Control_c, 0, 64, 62
1, 1005798, Control_c, 0, 64, 62
1, 1005813, Control_c, 0, 64, 61
1, 1005828, Control_c, 0, 64, 61
1, 1005859, Control_c, 0, 64, 60
1, 1005873, Control_c, 0, 64, 60
1, 1005903, Control_c, 0, 64, 59
1, 1005918, Control_c, 0, 64, 59
1, 1005933, Control_c, 0, 64, 58
1, 1005947, Control_c, 0, 64, 58
1, 1005962, Control_c, 0, 64, 57
1, 1005977, Control_c, 0, 64, 57
1, 1005992, Control_c, 0, 64, 56
1, 1006007, Control_c, 0, 64, 56
1, 1006036, Control_c, 0, 64, 55
1, 1006066, Control_c, 0, 64, 55
1, 1006096, Control_c, 0, 64, 54
1, 1006140, Control_c, 0, 64, 54
1, 1006170, Control_c, 0, 64, 53
1, 1006173, Note_on_c, 0, 79, 39
1, 1006183, Note_on_c, 0, 55, 25
1, 1006199, Control_c, 0, 64, 53
1, 1006281, Control_c, 0, 64, 52
1, 1006284, Note_off_c, 0, 83, 1
1, 1006347, Note_off_c, 0, 52, 41
1, 1006355, Control_c, 0, 64, 52
1, 1006385, Control_c, 0, 64, 51
1, 1006399, Control_c, 0, 64, 51
1, 1006429, Control_c, 0, 64, 50
1, 1006430, Poly_aftertouch_c, 0, 84, 0
1, 1006444, Control_c, 0, 64, 50
1, 1006459, Control_c, 0, 64, 49
1, 1006473, Control_c, 0, 64, 48
1, 1006488, Control_c, 0, 64, 47
1, 1006503, Control_c, 0, 64, 46
1, 1006517, Control_c, 0, 64, 45
1, 1006547, Control_c, 0, 64, 45
1, 1006562, Control_c, 0, 64, 44
1, 1006667, Control_c, 0, 64, 45
1, 1006682, Control_c, 0, 64, 45
1, 1006696, Control_c, 0, 64, 46
1, 1006711, Control_c, 0, 64, 47
1, 1006726, Control_c, 0, 64, 48
1, 1006741, Control_c, 0, 64, 50
1, 1006756, Control_c, 0, 64, 51
1, 1006770, Control_c, 0, 64, 53
1, 1006785, Control_c, 0, 64, 54
1, 1006800, Control_c, 0, 64, 55
1, 1006815, Control_c, 0, 64, 56
1, 1006829, Control_c, 0, 64, 58
1, 1006844, Control_c, 0, 64, 59
1, 1006859, Control_c, 0, 64, 60
1, 1006874, Control_c, 0, 64, 60
1, 1006889, Control_c, 0, 64, 61
1, 1006904, Control_c, 0, 64, 62
1, 1006919, Control_c, 0, 64, 63
1, 1006934, Control_c, 0, 64, 64
1, 1006949, Control_c, 0, 64, 65
1, 1006963, Control_c, 0, 64, 66
1, 1006978, Control_c, 0, 64, 68
1, 1007000, Control_c, 0, 64, 70
1, 1007014, Control_c, 0, 64, 73
1, 1007029, Control_c, 0, 64, 76
1, 1007044, Control_c, 0, 64, 79
1, 1007059, Control_c, 0, 64, 82
1, 1007074, Control_c, 0, 64, 85
1, 1007089, Control_c, 0, 64, 89
1, 1007104, Control_c, 0, 64, 95
1, 1007119, Control_c, 0, 64, 106
1, 1007133, Control_c, 0, 64, 127
1, 1007446, Note_off_c, 0, 73, 37
1, 1007458, Note_off_c, 0, 55, 38
1, 1007488, Note_off_c, 0, 76, 29
1, 1007517, Note_off_c, 0, 79, 35
1, 1009201, Note_on_c, 0, 74, 30
1, 1009204, Note_on_c, 0, 79, 41
1, 1009211, Note_on_c, 0, 70, 23
1, 1009247, Control_c, 0, 64, 122
1, 1009262, Control_c, 0, 64, 112
1, 1009277, Control_c, 0, 64, 106
1, 1009292, Control_c, 0, 64, 100
1, 1009307, Control_c, 0, 64, 94
1, 1009321, Control_c, 0, 64, 87
1, 1009336, Control_c, 0, 64, 80
1, 1009351, Control_c, 0, 64, 73
1, 1009366, Control_c, 0, 64, 67
1, 1009381, Control_c, 0, 64, 62
1, 1009396, Control_c, 0, 64, 57
1, 1009410, Control_c, 0, 64, 54
1, 1009425, Control_c, 0, 64, 54
1, 1009440, Control_c, 0, 64, 54
1, 1009455, Control_c, 0, 64, 55
1, 1009470, Control_c, 0, 64, 56
1, 1009484, Control_c, 0, 64, 58
1, 1009499, Control_c, 0, 64, 60
1, 1009514, Control_c, 0, 64, 63
1, 1009529, Control_c, 0, 64, 66
1, 1009544, Control_c, 0, 64, 69
1, 1009558, Control_c, 0, 64, 73
1, 1009573, Control_c, 0, 64, 79
1, 1009588, Control_c, 0, 64, 86
1, 1009603, Control_c, 0, 64, 97
1, 1009617, Control_c, 0, 64, 127
1, 1009738, Note_on_c, 0, 78, 54
1, 1009747, Note_on_c, 0, 73, 26
1, 1009768, Note_on_c, 0, 65, 16
1, 1009825, Control_c, 0, 64, 111
1, 1009840, Control_c, 0, 64, 97
1, 1009855, Control_c, 0, 64, 85
1, 1009870, Control_c, 0, 64, 75
1, 1009882, Note_off_c, 0, 74, 36
1, 1009885, Control_c, 0, 64, 69
1, 1009890, Note_off_c, 0, 79, 39
1, 1009897, Note_off_c, 0, 70, 41
1, 1009900, Control_c, 0, 64, 64
1, 1009914, Control_c, 0, 64, 61
1, 1009929, Control_c, 0, 64, 60
1, 1009944, Control_c, 0, 64, 61
1, 1009959, Control_c, 0, 64, 63
1, 1009974, Control_c, 0, 64, 64
1, 1009995, Control_c, 0, 64, 67
1, 1010010, Control_c, 0, 64, 71
1, 1010025, Control_c, 0, 64, 77
1, 1010040, Control_c, 0, 64, 85
1, 1010055, Control_c, 0, 64, 96
1, 1010070, Control_c, 0, 64, 112
1, 1010085, Control_c, 0, 64, 127
1, 1010223, Note_on_c, 0, 77, 63
1, 1010234, Note_on_c, 0, 72, 37
1, 1010241, Note_on_c, 0, 68, 28
1, 1010292, Control_c, 0, 64, 112
1, 1010307, Control_c, 0, 64, 95
1, 1010314, Note_off_c, 0, 73, 40
1, 1010314, Note_off_c, 0, 78, 35
1, 1010321, Control_c, 0, 64, 82
1, 1010336, Control_c, 0, 64, 74
1, 1010351, Control_c, 0, 64, 68
1, 1010365, Control_c, 0, 64, 63
1, 1010380, Control_c, 0, 64, 61
1, 1010395, Control_c, 0, 64, 61
1, 1010410, Control_c, 0, 64, 62
1, 1010425, Control_c, 0, 64, 63
1, 1010439, Control_c, 0, 64, 65
1, 1010454, Control_c, 0, 64, 68
1, 1010469, Control_c, 0, 64, 73
1, 1010484, Control_c, 0, 64, 81
1, 1010499, Control_c, 0, 64, 92
1, 1010514, Control_c, 0, 64, 107
1, 1010529, Control_c, 0, 64, 127
1, 1010659, Note_on_c, 0, 76, 61
1, 1010672, Note_on_c, 0, 71, 47
1, 1010677, Note_on_c, 0, 62, 32
1, 1010744, Control_c, 0, 64, 100
1, 1010759, Control_c, 0, 64, 84
1, 1010774, Control_c, 0, 64, 73
1, 1010784, Note_off_c, 0, 72, 43
1, 1010788, Control_c, 0, 64, 67
1, 1010803, Control_c, 0, 64, 63
1, 1010807, Note_off_c, 0, 68, 36
1, 1010818, Control_c, 0, 64, 61
1, 1010848, Control_c, 0, 64, 62
1, 1010862, Note_off_c, 0, 77, 58
1, 1010863, Control_c, 0, 64, 63
1, 1010877, Control_c, 0, 64, 64
1, 1010892, Control_c, 0, 64, 67
1, 1010907, Control_c, 0, 64, 70
1, 1010919, Note_off_c, 0, 65, 33
1, 1010922, Control_c, 0, 64, 77
1, 1010937, Control_c, 0, 64, 88
1, 1010952, Control_c, 0, 64, 102
1, 1010967, Control_c, 0, 64, 127
1, 1011080, Note_on_c, 0, 66, 45
1, 1011090, Note_on_c, 0, 75, 63
1, 1011091, Note_on_c, 0, 70, 52
1, 1011115, Control_c, 0, 64, 116
1, 1011129, Control_c, 0, 64, 96
1, 1011144, Control_c, 0, 64, 83
1, 1011159, Control_c, 0, 64, 74
1, 1011174, Control_c, 0, 64, 68
1, 1011188, Control_c, 0, 64, 64
1, 1011203, Control_c, 0, 64, 60
1, 1011213, Note_off_c, 0, 62, 42
1, 1011218, Control_c, 0, 64, 57
1, 1011223, Note_off_c, 0, 71, 56
1, 1011233, Note_off_c, 0, 76, 58
1, 1011262, Control_c, 0, 64, 58
1, 1011277, Control_c, 0, 64, 61
1, 1011292, Control_c, 0, 64, 64
1, 1011307, Control_c, 0, 64, 67
1, 1011322, Control_c, 0, 64, 72
1, 1011337, Control_c, 0, 64, 80
1, 1011351, Control_c, 0, 64, 89
1, 1011352, Note_off_c, 0, 75, 61
1, 1011366, Control_c, 0, 64, 104
1, 1011381, Control_c, 0, 64, 127
1, 1011387, Note_off_c, 0, 66, 59
1, 1011533, Note_on_c, 0, 59, 45
1, 1011537, Note_on_c, 0, 74, 57
1, 1011549, Note_on_c, 0, 69, 45
1, 1011553, Control_c, 0, 64, 106
1, 1011567, Control_c, 0, 64, 94
1, 1011582, Control_c, 0, 64, 83
1, 1011597, Control_c, 0, 64, 75
1, 1011611, Control_c, 0, 64, 69
1, 1011626, Control_c, 0, 64, 64
1, 1011641, Control_c, 0, 64, 60
1, 1011656, Control_c, 0, 64, 57
1, 1011671, Control_c, 0, 64, 56
1, 1011685, Control_c, 0, 64, 56
1, 1011715, Control_c, 0, 64, 57
1, 1011730, Control_c, 0, 64, 59
1, 1011745, Control_c, 0, 64, 61
1, 1011760, Control_c, 0, 64, 64
1, 1011766, Note_on_c, 0, 73, 66
1, 1011771, Note_off_c, 0, 69, 59
1, 1011775, Control_c, 0, 64, 67
1, 1011790, Control_c, 0, 64, 71
1, 1011794, Note_off_c, 0, 70, 62
1, 1011804, Control_c, 0, 64, 76
1, 1011819, Control_c, 0, 64, 82
1, 1011834, Control_c, 0, 64, 90
1, 1011848, Note_off_c, 0, 74, 57
1, 1011849, Control_c, 0, 64, 99
1, 1011864, Control_c, 0, 64, 109
1, 1011878, Control_c, 0, 64, 110
1, 1011908, Control_c, 0, 64, 110
1, 1011923, Control_c, 0, 64, 109
1, 1011938, Control_c, 0, 64, 106
1, 1011952, Control_c, 0, 64, 102
1, 1011967, Control_c, 0, 64, 96
1, 1011982, Control_c, 0, 64, 90
1, 1011984, Note_on_c, 0, 72, 54
1, 1011987, Note_off_c, 0, 59, 28
1, 1011991, Note_on_c, 0, 64, 40
1, 1011997, Control_c, 0, 64, 81
1, 1011998, Note_on_c, 0, 68, 45
1, 1012007, Note_off_c, 0, 73, 55
1, 1012011, Control_c, 0, 64, 73
1, 1012026, Control_c, 0, 64, 66
1, 1012041, Control_c, 0, 64, 61
1, 1012056, Control_c, 0, 64, 57
1, 1012071, Control_c, 0, 64, 54
1, 1012085, Control_c, 0, 64, 52
1, 1012100, Control_c, 0, 64, 51
1, 1012145, Control_c, 0, 64, 52
1, 1012159, Control_c, 0, 64, 55
1, 1012174, Control_c, 0, 64, 58
1, 1012189, Control_c, 0, 64, 61
1, 1012195, Note_off_c, 0, 68, 49
1, 1012204, Control_c, 0, 64, 64
1, 1012212, Note_on_c, 0, 73, 55
1, 1012219, Control_c, 0, 64, 67
1, 1012242, Control_c, 0, 64, 71
1, 1012246, Note_off_c, 0, 64, 36
1, 1012250, Note_off_c, 0, 72, 51
1, 1012257, Control_c, 0, 64, 77
1, 1012272, Control_c, 0, 64, 84
1, 1012287, Control_c, 0, 64, 93
1, 1012302, Control_c, 0, 64, 105
1, 1012316, Control_c, 0, 64, 127
1, 1012407, Note_off_c, 0, 73, 52
1, 1012508, Control_c, 0, 64, 117
1, 1012521, Note_on_c, 0, 79, 62
1, 1012523, Control_c, 0, 64, 110
1, 1012529, Note_on_c, 0, 74, 43
1, 1012531, Note_on_c, 0, 62, 38
1, 1012533, Note_on_c, 0, 58, 34
1, 1012538, Control_c, 0, 64, 105
1, 1012553, Control_c, 0, 64, 100
1, 1012568, Control_c, 0, 64, 95
1, 1012583, Control_c, 0, 64, 90
1, 1012597, Control_c, 0, 64, 85
1, 1012612, Control_c, 0, 64, 79
1, 1012627, Control_c, 0, 64, 73
1, 1012642, Control_c, 0, 64, 68
1, 1012657, Control_c, 0, 64, 63
1, 1012672, Control_c, 0, 64, 60
1, 1012687, Control_c, 0, 64, 56
1, 1012701, Control_c, 0, 64, 55
1, 1012716, Control_c, 0, 64, 54
1, 1012731, Control_c, 0, 64, 54
1, 1012775, Control_c, 0, 64, 55
1, 1012790, Control_c, 0, 64, 58
1, 1012805, Control_c, 0, 64, 61
1, 1012820, Control_c, 0, 64, 63
1, 1012834, Control_c, 0, 64, 66
1, 1012848, Control_c, 0, 64, 70
1, 1012863, Control_c, 0, 64, 75
1, 1012878, Control_c, 0, 64, 84
1, 1012893, Control_c, 0, 64, 96
1, 1012907, Control_c, 0, 64, 127
1, 1012995, Note_on_c, 0, 78, 66
1, 1012997, Note_on_c, 0, 73, 56
1, 1013003, Note_on_c, 0, 53, 32
1, 1013017, Note_on_c, 0, 61, 48
1, 1013079, Control_c, 0, 64, 116
1, 1013094, Control_c, 0, 64, 91
1, 1013109, Control_c, 0, 64, 77
1, 1013124, Control_c, 0, 64, 68
1, 1013138, Control_c, 0, 64, 63
1, 1013149, Note_off_c, 0, 58, 36
1, 1013152, Note_off_c, 0, 79, 57
1, 1013153, Control_c, 0, 64, 59
1, 1013168, Control_c, 0, 64, 59
1, 1013179, Note_off_c, 0, 74, 48
1, 1013183, Control_c, 0, 64, 60
1, 1013187, Note_off_c, 0, 62, 55
1, 1013198, Control_c, 0, 64, 61
1, 1013212, Control_c, 0, 64, 64
1, 1013227, Control_c, 0, 64, 67
1, 1013242, Control_c, 0, 64, 71
1, 1013256, Control_c, 0, 64, 81
1, 1013271, Control_c, 0, 64, 95
1, 1013286, Control_c, 0, 64, 127
1, 1013438, Note_on_c, 0, 77, 74
1, 1013441, Note_on_c, 0, 72, 65
1, 1013444, Note_on_c, 0, 60, 50
1, 1013456, Note_on_c, 0, 56, 53
1, 1013494, Control_c, 0, 64, 105
1, 1013509, Control_c, 0, 64, 85
1, 1013523, Control_c, 0, 64, 74
1, 1013528, Note_off_c, 0, 78, 52
1, 1013538, Control_c, 0, 64, 66
1, 1013547, Note_off_c, 0, 73, 54
1, 1013553, Control_c, 0, 64, 62
1, 1013563, Note_off_c, 0, 53, 48
1, 1013568, Control_c, 0, 64, 60
1, 1013597, Control_c, 0, 64, 62
1, 1013612, Control_c, 0, 64, 65
1, 1013627, Control_c, 0, 64, 70
1, 1013642, Control_c, 0, 64, 77
1, 1013656, Note_off_c, 0, 61, 59
1, 1013656, Control_c, 0, 64, 90
1, 1013671, Control_c, 0, 64, 112
1, 1013686, Control_c, 0, 64, 127
1, 1013755, Note_off_c, 0, 60, 58
1, 1013873, Note_on_c, 0, 76, 68
1, 1013876, Note_on_c, 0, 71, 64
1, 1013884, Note_on_c, 0, 59, 55
1, 1013891, Note_on_c, 0, 50, 43
1, 1013932, Control_c, 0, 64, 108
1, 1013947, Control_c, 0, 64, 90
1, 1013961, Control_c, 0, 64, 78
1, 1013963, Note_off_c, 0, 72, 61
1, 1013976, Control_c, 0, 64, 70
1, 1013991, Control_c, 0, 64, 64
1, 1014005, Control_c, 0, 64, 59
1, 1014013, Note_off_c, 0, 56, 58
1, 1014020, Control_c, 0, 64, 57
1, 1014079, Control_c, 0, 64, 58
1, 1014094, Control_c, 0, 64, 60
1, 1014109, Control_c, 0, 64, 62
1, 1014124, Control_c, 0, 64, 64
1, 1014139, Control_c, 0, 64, 65
1, 1014153, Control_c, 0, 64, 67
1, 1014168, Control_c, 0, 64, 70
1, 1014183, Control_c, 0, 64, 73
1, 1014198, Control_c, 0, 64, 77
1, 1014213, Control_c, 0, 64, 82
1, 1014228, Control_c, 0, 64, 91
1, 1014242, Note_off_c, 0, 77, 28
1, 1014243, Control_c, 0, 64, 107
1, 1014258, Control_c, 0, 64, 127
1, 1014303, Note_on_c, 0, 70, 73
1, 1014303, Note_on_c, 0, 75, 77
1, 1014306, Note_on_c, 0, 58, 61
1, 1014308, Note_on_c, 0, 54, 58
1, 1014419, Note_off_c, 0, 50, 51
1, 1014443, Note_off_c, 0, 71, 61
1, 1014444, Note_off_c, 0, 76, 59
1, 1014481, Note_off_c, 0, 59, 56
1, 1014539, Note_off_c, 0, 75, 63
1, 1014584, Note_off_c, 0, 58, 58
1, 1014733, Note_on_c, 0, 57, 53
1, 1014744, Note_on_c, 0, 47, 49
1, 1014744, Note_on_c, 0, 74, 66
1, 1014744, Note_off_c, 0, 54, 55
1, 1014751, Note_on_c, 0, 69, 55
1, 1014784, Control_c, 0, 64, 102
1, 1014799, Control_c, 0, 64, 85
1, 1014814, Control_c, 0, 64, 73
1, 1014828, Control_c, 0, 64, 64
1, 1014843, Control_c, 0, 64, 57
1, 1014858, Control_c, 0, 64, 52
1, 1014873, Control_c, 0, 64, 51
1, 1014888, Control_c, 0, 64, 52
1, 1014902, Control_c, 0, 64, 55
1, 1014917, Control_c, 0, 64, 59
1, 1014932, Control_c, 0, 64, 63
1, 1014937, Note_off_c, 0, 69, 61
1, 1014942, Note_on_c, 0, 73, 78
1, 1014947, Control_c, 0, 64, 67
1, 1014962, Control_c, 0, 64, 72
1, 1014973, Note_off_c, 0, 70, 65
1, 1014976, Control_c, 0, 64, 83
1, 1014991, Control_c, 0, 64, 110
1, 1015006, Control_c, 0, 64, 127
1, 1015018, Note_off_c, 0, 74, 58
1, 1015143, Note_on_c, 0, 72, 69
1, 1015147, Note_off_c, 0, 47, 62
1, 1015151, Note_on_c, 0, 68, 65
1, 1015152, Note_on_c, 0, 56, 60
1, 1015162, Note_on_c, 0, 52, 56
1, 1015170, Control_c, 0, 64, 125
1, 1015184, Control_c, 0, 64, 88
1, 1015195, Note_off_c, 0, 57, 61
1, 1015198, Note_off_c, 0, 73, 61
1, 1015199, Control_c, 0, 64, 72
1, 1015214, Control_c, 0, 64, 61
1, 1015236, Control_c, 0, 64, 55
1, 1015250, Control_c, 0, 64, 57
1, 1015265, Control_c, 0, 64, 61
1, 1015280, Control_c, 0, 64, 65
1, 1015295, Control_c, 0, 64, 71
1, 1015310, Control_c, 0, 64, 84
1, 1015325, Control_c, 0, 64, 127
1, 1015339, Note_off_c, 0, 52, 60
1, 1015355, Note_on_c, 0, 73, 77
1, 1015368, Note_off_c, 0, 56, 55
1, 1015385, Note_off_c, 0, 68, 59
1, 1015400, Note_off_c, 0, 72, 61
1, 1015546, Note_off_c, 0, 73, 60
1, 1015653, Note_on_c, 0, 55, 80
1, 1015675, Note_on_c, 0, 46, 59
1, 1015680, Note_on_c, 0, 50, 52
1, 1015680, Note_on_c, 0, 79, 66
1, 1015683, Note_on_c, 0, 74, 59
1, 1015725, Control_c, 0, 64, 106
1, 1015740, Control_c, 0, 64, 84
1, 1015755, Control_c, 0, 64, 70
1, 1015770, Control_c, 0, 64, 61
1, 1015785, Control_c, 0, 64, 56
1, 1015799, Control_c, 0, 64, 58
1, 1015814, Control_c, 0, 64, 62
1, 1015828, Note_off_c, 0, 50, 56
1, 1015829, Control_c, 0, 64, 67
1, 1015843, Control_c, 0, 64, 75
1, 1015858, Control_c, 0, 64, 104
1, 1015873, Control_c, 0, 64, 127
1, 1015931, Note_off_c, 0, 46, 60
1, 1015953, Note_off_c, 0, 55, 55
1, 1015954, Note_off_c, 0, 74, 63
1, 1016130, Note_on_c, 0, 54, 95
1, 1016140, Note_on_c, 0, 49, 71
1, 1016142, Note_on_c, 0, 78, 84
1, 1016142, Note_on_c, 0, 85, 84
1, 1016145, Note_on_c, 0, 41, 70
1, 1016178, Note_off_c, 0, 79, 65
1, 1016222, Control_c, 0, 64, 96
1, 1016226, Poly_aftertouch_c, 0, 43, 127
1, 1016237, Control_c, 0, 64, 59
1, 1016252, Control_c, 0, 64, 0
1, 1016259, Poly_aftertouch_c, 0, 43, 0
1, 1016326, Control_c, 0, 64, 54
1, 1016341, Control_c, 0, 64, 90
1, 1016355, Control_c, 0, 64, 127
1, 1016398, Note_off_c, 0, 78, 55
1, 1016404, Note_off_c, 0, 49, 59
1, 1016446, Note_off_c, 0, 54, 61
1, 1016532, Note_on_c, 0, 48, 54
1, 1016535, Note_on_c, 0, 53, 89
1, 1016541, Note_on_c, 0, 88, 88
1, 1016545, Note_on_c, 0, 44, 64
1, 1016548, Control_c, 0, 64, 92
1, 1016549, Note_on_c, 0, 77, 83
1, 1016563, Control_c, 0, 64, 78
1, 1016572, Note_off_c, 0, 41, 57
1, 1016578, Control_c, 0, 64, 69
1, 1016584, Note_off_c, 0, 85, 64
1, 1016594, Control_c, 0, 64, 63
1, 1016609, Control_c, 0, 64, 57
1, 1016623, Control_c, 0, 64, 52
1, 1016638, Control_c, 0, 64, 49
1, 1016653, Control_c, 0, 64, 50
1, 1016667, Control_c, 0, 64, 55
1, 1016682, Control_c, 0, 64, 62
1, 1016697, Control_c, 0, 64, 72
1, 1016712, Control_c, 0, 64, 90
1, 1016735, Control_c, 0, 64, 127
1, 1016802, Note_off_c, 0, 53, 50
1, 1016840, Note_off_c, 0, 77, 58
1, 1016848, Note_off_c, 0, 48, 38
1, 1016991, Note_on_c, 0, 52, 81
1, 1016992, Note_off_c, 0, 44, 60
1, 1016998, Note_on_c, 0, 47, 65
1, 1017001, Note_on_c, 0, 38, 60
1, 1017018, Note_on_c, 0, 83, 81
1, 1017025, Note_on_c, 0, 76, 74
1, 1017046, Control_c, 0, 64, 115
1, 1017061, Control_c, 0, 64, 88
1, 1017062, Note_off_c, 0, 88, 64
1, 1017076, Control_c, 0, 64, 72
1, 1017091, Control_c, 0, 64, 63
1, 1017105, Control_c, 0, 64, 52
1, 1017120, Control_c, 0, 64, 44
1, 1017135, Control_c, 0, 64, 43
1, 1017165, Control_c, 0, 64, 44
1, 1017179, Control_c, 0, 64, 50
1, 1017194, Control_c, 0, 64, 58
1, 1017209, Control_c, 0, 64, 63
1, 1017224, Control_c, 0, 64, 67
1, 1017239, Control_c, 0, 64, 72
1, 1017250, Note_off_c, 0, 47, 62
1, 1017254, Control_c, 0, 64, 89
1, 1017269, Control_c, 0, 64, 127
1, 1017286, Note_off_c, 0, 52, 63
1, 1017430, Note_on_c, 0, 51, 75
1, 1017438, Note_on_c, 0, 75, 70
1, 1017438, Note_on_c, 0, 78, 75
1, 1017443, Note_on_c, 0, 46, 58
1, 1017446, Control_c, 0, 64, 99
1, 1017457, Note_on_c, 0, 42, 54
1, 1017461, Control_c, 0, 64, 78
1, 1017483, Control_c, 0, 64, 67
1, 1017498, Control_c, 0, 64, 60
1, 1017507, Note_off_c, 0, 76, 57
1, 1017513, Control_c, 0, 64, 56
1, 1017528, Note_off_c, 0, 38, 57
1, 1017528, Control_c, 0, 64, 57
1, 1017534, Note_off_c, 0, 83, 57
1, 1017543, Control_c, 0, 64, 62
1, 1017553, Note_off_c, 0, 46, 62
1, 1017553, Note_off_c, 0, 51, 64
1, 1017558, Control_c, 0, 64, 66
1, 1017572, Control_c, 0, 64, 73
1, 1017587, Control_c, 0, 64, 84
1, 1017602, Control_c, 0, 64, 103
1, 1017617, Control_c, 0, 64, 127
1, 1017671, Note_off_c, 0, 42, 58
1, 1017676, Control_c, 0, 64, 104
1, 1017677, Note_on_c, 0, 35, 68
1, 1017691, Control_c, 0, 64, 76
1, 1017705, Control_c, 0, 64, 64
1, 1017720, Control_c, 0, 64, 62
1, 1017735, Control_c, 0, 64, 64
1, 1017739, Note_off_c, 0, 35, 58
1, 1017740, Note_on_c, 0, 45, 65
1, 1017750, Control_c, 0, 64, 68
1, 1017765, Control_c, 0, 64, 76
1, 1017779, Control_c, 0, 64, 89
1, 1017794, Control_c, 0, 64, 127
1, 1017918, Note_on_c, 0, 50, 75
1, 1017958, Control_c, 0, 64, 96
1, 1017963, Note_on_c, 0, 81, 74
1, 1017963, Note_on_c, 0, 74, 61
1, 1017966, Note_off_c, 0, 45, 61
1, 1017973, Control_c, 0, 64, 80
1, 1017988, Control_c, 0, 64, 71
1, 1018002, Control_c, 0, 64, 64
1, 1018008, Note_off_c, 0, 75, 61
1, 1018017, Control_c, 0, 64, 61
1, 1018022, Note_off_c, 0, 78, 56
1, 1018047, Control_c, 0, 64, 63
1, 1018061, Control_c, 0, 64, 66
1, 1018076, Control_c, 0, 64, 70
1, 1018091, Control_c, 0, 64, 78
1, 1018106, Control_c, 0, 64, 88
1, 1018121, Control_c, 0, 64, 100
1, 1018136, Control_c, 0, 64, 127
1, 1018145, Note_on_c, 0, 49, 76
1, 1018159, Note_on_c, 0, 73, 73
1, 1018202, Note_off_c, 0, 74, 61
1, 1018210, Control_c, 0, 64, 125
1, 1018232, Control_c, 0, 64, 88
1, 1018241, Note_off_c, 0, 50, 58
1, 1018246, Control_c, 0, 64, 73
1, 1018261, Control_c, 0, 64, 68
1, 1018276, Control_c, 0, 64, 70
1, 1018291, Control_c, 0, 64, 75
1, 1018306, Control_c, 0, 64, 84
1, 1018321, Control_c, 0, 64, 101
1, 1018336, Control_c, 0, 64, 127
1, 1018425, Note_on_c, 0, 48, 64
1, 1018437, Note_on_c, 0, 40, 47
1, 1018454, Control_c, 0, 64, 99
1, 1018455, Note_on_c, 0, 44, 49
1, 1018465, Note_on_c, 0, 72, 62
1, 1018467, Note_on_c, 0, 76, 61
1, 1018469, Control_c, 0, 64, 82
1, 1018484, Control_c, 0, 64, 72
1, 1018499, Control_c, 0, 64, 66
1, 1018505, Note_off_c, 0, 49, 53
1, 1018506, Note_off_c, 0, 73, 60
1, 1018514, Control_c, 0, 64, 60
1, 1018528, Control_c, 0, 64, 54
1, 1018543, Control_c, 0, 64, 49
1, 1018558, Control_c, 0, 64, 46
1, 1018573, Control_c, 0, 64, 46
1, 1018588, Control_c, 0, 64, 45
1, 1018602, Note_off_c, 0, 81, 58
1, 1018602, Control_c, 0, 64, 44
1, 1018677, Control_c, 0, 64, 45
1, 1018692, Control_c, 0, 64, 48
1, 1018707, Control_c, 0, 64, 52
1, 1018722, Control_c, 0, 64, 57
1, 1018723, Note_on_c, 0, 49, 68
1, 1018723, Note_on_c, 0, 73, 69
1, 1018737, Control_c, 0, 64, 61
1, 1018751, Control_c, 0, 64, 65
1, 1018752, Note_off_c, 0, 72, 58
1, 1018754, Note_off_c, 0, 48, 59
1, 1018766, Control_c, 0, 64, 70
1, 1018781, Control_c, 0, 64, 79
1, 1018796, Control_c, 0, 64, 101
1, 1018811, Note_off_c, 0, 76, 56
1, 1018811, Control_c, 0, 64, 127
1, 1018838, Note_off_c, 0, 73, 64
1, 1018866, Note_off_c, 0, 44, 37
1, 1019259, Note_on_c, 0, 52, 91
1, 1019259, Note_on_c, 0, 88, 102
1, 1019261, Note_on_c, 0, 84, 101
1, 1019292, Note_off_c, 0, 49, 63
1, 1019292, Control_c, 0, 64, 85
1, 1019307, Control_c, 0, 64, 64
1, 1019322, Control_c, 0, 64, 36
1, 1019337, Control_c, 0, 64, 0
1, 1019341, Note_on_c, 0, 86, 84
1, 1019343, Note_on_c, 0, 82, 90
1, 1019346, Note_off_c, 0, 84, 63
1, 1019373, Note_off_c, 0, 88, 62
1, 1019431, Note_on_c, 0, 85, 89
1, 1019438, Note_on_c, 0, 81, 79
1, 1019445, Note_off_c, 0, 86, 61
1, 1019451, Note_off_c, 0, 82, 62
1, 1019560, Control_c, 0, 64, 40
1, 1019574, Control_c, 0, 64, 55
1, 1019589, Control_c, 0, 64, 61
1, 1019604, Control_c, 0, 64, 66
1, 1019619, Control_c, 0, 64, 73
1, 1019634, Control_c, 0, 64, 92
1, 1019648, Control_c, 0, 64, 127
1, 1019662, Note_off_c, 0, 52, 61
1, 1019898, Note_on_c, 0, 51, 68
1, 1019905, Note_on_c, 0, 39, 59
1, 1019952, Control_c, 0, 64, 99
1, 1019966, Control_c, 0, 64, 78
1, 1019981, Control_c, 0, 64, 68
1, 1019996, Control_c, 0, 64, 62
1, 1020011, Control_c, 0, 64, 59
1, 1020026, Control_c, 0, 64, 60
1, 1020041, Control_c, 0, 64, 62
1, 1020056, Control_c, 0, 64, 66
1, 1020071, Control_c, 0, 64, 72
1, 1020071, Note_off_c, 0, 40, 36
1, 1020085, Control_c, 0, 64, 84
1, 1020100, Control_c, 0, 64, 107
1, 1020115, Control_c, 0, 64, 127
1, 1020187, Note_off_c, 0, 81, 49
1, 1020190, Note_off_c, 0, 85, 59
1, 1020215, Note_off_c, 0, 51, 54
1, 1020342, Note_on_c, 0, 50, 72
1, 1020350, Note_on_c, 0, 38, 68
1, 1020504, Note_off_c, 0, 39, 33
1, 1020688, Note_off_c, 0, 50, 54
1, 1020890, Note_on_c, 0, 49, 59
1, 1020891, Note_on_c, 0, 37, 59
1, 1020896, Note_on_c, 0, 64, 82
1, 1020899, Note_on_c, 0, 60, 79
1, 1020923, Control_c, 0, 64, 102
1, 1020938, Control_c, 0, 64, 86
1, 1020953, Control_c, 0, 64, 75
1, 1020966, Note_off_c, 0, 60, 60
1, 1020968, Control_c, 0, 64, 67
1, 1020981, Note_on_c, 0, 58, 76
1, 1020982, Note_on_c, 0, 62, 70
1, 1020983, Control_c, 0, 64, 58
1, 1020997, Control_c, 0, 64, 50
1, 1021008, Note_off_c, 0, 38, 50
1, 1021009, Note_off_c, 0, 64, 62
1, 1021013, Control_c, 0, 64, 45
1, 1021027, Control_c, 0, 64, 44
1, 1021042, Control_c, 0, 64, 44
1, 1021057, Control_c, 0, 64, 43
1, 1021072, Control_c, 0, 64, 43
1, 1021077, Note_on_c, 0, 61, 65
1, 1021080, Note_on_c, 0, 57, 62
1, 1021087, Control_c, 0, 64, 42
1, 1021091, Note_off_c, 0, 62, 55
1, 1021096, Note_off_c, 0, 58, 56
1, 1021161, Control_c, 0, 64, 42
1, 1021176, Control_c, 0, 64, 45
1, 1021191, Control_c, 0, 64, 48
1, 1021206, Control_c, 0, 64, 54
1, 1021227, Control_c, 0, 64, 59
1, 1021242, Control_c, 0, 64, 63
1, 1021257, Control_c, 0, 64, 67
1, 1021272, Control_c, 0, 64, 71
1, 1021282, Note_off_c, 0, 49, 36
1, 1021287, Control_c, 0, 64, 77
1, 1021302, Control_c, 0, 64, 85
1, 1021317, Control_c, 0, 64, 96
1, 1021332, Control_c, 0, 64, 110
1, 1021346, Control_c, 0, 64, 127
1, 1021360, Note_on_c, 0, 36, 53
1, 1021360, Note_on_c, 0, 48, 50
1, 1021406, Control_c, 0, 64, 115
1, 1021420, Control_c, 0, 64, 99
1, 1021435, Control_c, 0, 64, 84
1, 1021450, Control_c, 0, 64, 71
1, 1021465, Control_c, 0, 64, 64
1, 1021468, Note_off_c, 0, 37, 35
1, 1021479, Control_c, 0, 64, 59
1, 1021494, Control_c, 0, 64, 56
1, 1021509, Control_c, 0, 64, 57
1, 1021524, Control_c, 0, 64, 59
1, 1021539, Control_c, 0, 64, 63
1, 1021553, Control_c, 0, 64, 67
1, 1021568, Control_c, 0, 64, 73
1, 1021583, Control_c, 0, 64, 82
1, 1021598, Control_c, 0, 64, 94
1, 1021613, Control_c, 0, 64, 127
1, 1021659, Note_off_c, 0, 48, 37
1, 1021847, Note_on_c, 0, 47, 44
1, 1021854, Note_on_c, 0, 35, 45
1, 1021895, Control_c, 0, 64, 101
1, 1021910, Control_c, 0, 64, 84
1, 1021925, Control_c, 0, 64, 74
1, 1021940, Control_c, 0, 64, 66
1, 1021955, Control_c, 0, 64, 61
1, 1021976, Control_c, 0, 64, 62
1, 1021991, Control_c, 0, 64, 65
1, 1022006, Control_c, 0, 64, 72
1, 1022011, Note_off_c, 0, 36, 29
1, 1022021, Control_c, 0, 64, 82
1, 1022036, Control_c, 0, 64, 98
1, 1022048, Note_off_c, 0, 47, 62
1, 1022050, Control_c, 0, 64, 127
1, 1022139, Note_on_c, 0, 34, 59
1, 1022139, Control_c, 0, 64, 107
1, 1022142, Note_on_c, 0, 46, 64
1, 1022154, Control_c, 0, 64, 82
1, 1022169, Control_c, 0, 64, 71
1, 1022184, Control_c, 0, 64, 69
1, 1022199, Control_c, 0, 64, 74
1, 1022214, Control_c, 0, 64, 84
1, 1022229, Control_c, 0, 64, 108
1, 1022243, Control_c, 0, 64, 127
1, 1022266, Note_off_c, 0, 46, 62
1, 1022315, Note_off_c, 0, 35, 40
1, 1022320, Note_on_c, 0, 33, 67
1, 1022328, Note_on_c, 0, 45, 68
1, 1022332, Control_c, 0, 64, 87
1, 1022347, Control_c, 0, 64, 68
1, 1022361, Control_c, 0, 64, 56
1, 1022368, Note_off_c, 0, 34, 61
1, 1022376, Control_c, 0, 64, 56
1, 1022391, Control_c, 0, 64, 61
1, 1022406, Control_c, 0, 64, 67
1, 1022421, Control_c, 0, 64, 78
1, 1022436, Control_c, 0, 64, 115
1, 1022438, Note_off_c, 0, 45, 63
1, 1022450, Control_c, 0, 64, 127
1, 1022509, Control_c, 0, 64, 115
1, 1022518, Note_on_c, 0, 34, 67
1, 1022521, Note_on_c, 0, 46, 75
1, 1022524, Control_c, 0, 64, 76
1, 1022539, Control_c, 0, 64, 61
1, 1022554, Control_c, 0, 64, 46
1, 1022569, Control_c, 0, 64, 50
1, 1022583, Control_c, 0, 64, 58
1, 1022598, Control_c, 0, 64, 65
1, 1022614, Control_c, 0, 64, 72
1, 1022620, Note_off_c, 0, 33, 30
1, 1022629, Control_c, 0, 64, 84
1, 1022644, Control_c, 0, 64, 98
1, 1022658, Control_c, 0, 64, 101
1, 1022673, Control_c, 0, 64, 94
1, 1022688, Control_c, 0, 64, 85
1, 1022703, Control_c, 0, 64, 77
1, 1022725, Control_c, 0, 64, 70
1, 1022740, Control_c, 0, 64, 66
1, 1022755, Control_c, 0, 64, 61
1, 1022770, Control_c, 0, 64, 57
1, 1022785, Control_c, 0, 64, 51
1, 1022792, Note_on_c, 0, 41, 63
1, 1022792, Note_on_c, 0, 53, 77
1, 1022799, Control_c, 0, 64, 47
1, 1022813, Note_off_c, 0, 57, 59
1, 1022814, Control_c, 0, 64, 41
1, 1022828, Note_off_c, 0, 34, 60
1, 1022829, Control_c, 0, 64, 33
1, 1022834, Note_off_c, 0, 46, 60
1, 1022844, Control_c, 0, 64, 17
1, 1022859, Control_c, 0, 64, 0
1, 1022917, Control_c, 0, 64, 31
1, 1022932, Control_c, 0, 64, 54
1, 1022947, Control_c, 0, 64, 63
1, 1022962, Note_off_c, 0, 53, 64
1, 1022962, Control_c, 0, 64, 70
1, 1022977, Control_c, 0, 64, 88
1, 1022987, Note_off_c, 0, 61, 62
1, 1022992, Control_c, 0, 64, 127
1, 1023035, Note_off_c, 0, 41, 60
1, 1023270, Note_on_c, 0, 52, 83
1, 1023274, Note_on_c, 0, 40, 75
1, 1023278, Note_on_c, 0, 72, 91
1, 1023278, Note_on_c, 0, 76, 101
1, 1023279, Note_on_c, 0, 65, 91
1, 1023303, Control_c, 0, 64, 90
1, 1023317, Control_c, 0, 64, 66
1, 1023331, Control_c, 0, 64, 25
1, 1023346, Control_c, 0, 64, 0
1, 1023350, Note_on_c, 0, 74, 77
1, 1023354, Note_on_c, 0, 70, 89
1, 1023361, Note_off_c, 0, 72, 59
1, 1023364, Note_off_c, 0, 65, 57
1, 1023388, Note_off_c, 0, 76, 59
1, 1023390, Control_c, 0, 64, 9
1, 1023406, Control_c, 0, 64, 21
1, 1023436, Control_c, 0, 64, 17
1, 1023451, Control_c, 0, 64, 0
1, 1023452, Note_on_c, 0, 73, 83
1, 1023467, Note_on_c, 0, 69, 74
1, 1023476, Note_off_c, 0, 74, 61
1, 1023477, Note_off_c, 0, 70, 63
1, 1023606, Control_c, 0, 64, 24
1, 1023612, Note_off_c, 0, 52, 62
1, 1023621, Control_c, 0, 64, 62
1, 1023636, Control_c, 0, 64, 72
1, 1023651, Control_c, 0, 64, 100
1, 1023665, Control_c, 0, 64, 127
1, 1023702, Note_off_c, 0, 69, 61
1, 1023724, Note_on_c, 0, 39, 67
1, 1023730, Note_on_c, 0, 51, 84
1, 1023755, Note_off_c, 0, 73, 63
1, 1023784, Control_c, 0, 64, 114
1, 1023799, Control_c, 0, 64, 77
1, 1023813, Control_c, 0, 64, 61
1, 1023815, Note_off_c, 0, 40, 52
1, 1023828, Control_c, 0, 64, 33
1, 1023843, Control_c, 0, 64, 20
1, 1023857, Control_c, 0, 64, 21
1, 1023872, Control_c, 0, 64, 33
1, 1023887, Control_c, 0, 64, 50
1, 1023902, Control_c, 0, 64, 61
1, 1023917, Control_c, 0, 64, 68
1, 1023931, Control_c, 0, 64, 83
1, 1023946, Control_c, 0, 64, 127
1, 1024052, Note_off_c, 0, 51, 56
1, 1024225, Note_on_c, 0, 88, 102
1, 1024226, Note_on_c, 0, 50, 76
1, 1024227, Note_on_c, 0, 77, 93
1, 1024229, Note_on_c, 0, 38, 71
1, 1024229, Note_on_c, 0, 84, 99
1, 1024256, Note_off_c, 0, 39, 57
1, 1024267, Control_c, 0, 64, 75
1, 1024282, Control_c, 0, 64, 49
1, 1024293, Note_on_c, 0, 86, 78
1, 1024294, Note_off_c, 0, 77, 60
1, 1024296, Control_c, 0, 64, 0
1, 1024298, Note_on_c, 0, 82, 88
1, 1024309, Note_off_c, 0, 84, 58
1, 1024337, Note_off_c, 0, 88, 60
1, 1024378, Note_on_c, 0, 81, 86
1, 1024385, Note_on_c, 0, 85, 89
1, 1024395, Note_off_c, 0, 82, 64
1, 1024400, Control_c, 0, 64, 47
1, 1024408, Note_off_c, 0, 86, 64
1, 1024415, Control_c, 0, 64, 61
1, 1024430, Control_c, 0, 64, 69
1, 1024444, Control_c, 0, 64, 81
1, 1024454, Note_off_c, 0, 50, 53
1, 1024459, Control_c, 0, 64, 127
1, 1024461, Note_off_c, 0, 85, 64
1, 1024464, Note_off_c, 0, 81, 65
1, 1024803, Note_on_c, 0, 64, 89
1, 1024808, Note_on_c, 0, 37, 61
1, 1024808, Note_on_c, 0, 60, 87
1, 1024809, Note_on_c, 0, 49, 61
1, 1024859, Control_c, 0, 64, 87
1, 1024872, Note_off_c, 0, 60, 58
1, 1024874, Control_c, 0, 64, 69
1, 1024885, Note_off_c, 0, 38, 52
1, 1024888, Control_c, 0, 64, 54
1, 1024891, Note_on_c, 0, 58, 80
1, 1024891, Note_on_c, 0, 62, 70
1, 1024903, Control_c, 0, 64, 35
1, 1024918, Control_c, 0, 64, 25
1, 1024919, Note_off_c, 0, 64, 60
1, 1024933, Control_c, 0, 64, 23
1, 1024948, Control_c, 0, 64, 22
1, 1024970, Control_c, 0, 64, 21
1, 1024985, Control_c, 0, 64, 20
1, 1024993, Note_on_c, 0, 61, 65
1, 1024997, Note_on_c, 0, 57, 66
1, 1025000, Control_c, 0, 64, 19
1, 1025005, Note_off_c, 0, 62, 59
1, 1025012, Note_off_c, 0, 58, 61
1, 1025075, Control_c, 0, 64, 22
1, 1025090, Control_c, 0, 64, 33
1, 1025105, Control_c, 0, 64, 46
1, 1025119, Control_c, 0, 64, 56
1, 1025134, Control_c, 0, 64, 62
1, 1025149, Control_c, 0, 64, 66
1, 1025164, Control_c, 0, 64, 71
1, 1025175, Note_off_c, 0, 57, 46
1, 1025179, Control_c, 0, 64, 83
1, 1025181, Note_off_c, 0, 61, 48
1, 1025193, Control_c, 0, 64, 106
1, 1025208, Control_c, 0, 64, 127
1, 1025254, Note_off_c, 0, 49, 34
1, 1025441, Note_on_c, 0, 36, 48
1, 1025441, Note_on_c, 0, 48, 46
1, 1025443, Note_on_c, 0, 64, 73
1, 1025449, Note_on_c, 0, 60, 65
1, 1025475, Control_c, 0, 64, 97
1, 1025488, Note_off_c, 0, 60, 60
1, 1025490, Control_c, 0, 64, 81
1, 1025504, Control_c, 0, 64, 72
1, 1025519, Control_c, 0, 64, 66
1, 1025534, Control_c, 0, 64, 61
1, 1025539, Note_on_c, 0, 58, 61
1, 1025540, Note_on_c, 0, 62, 61
1, 1025541, Note_off_c, 0, 37, 40
1, 1025544, Note_off_c, 0, 64, 55
1, 1025549, Control_c, 0, 64, 54
1, 1025564, Control_c, 0, 64, 49
1, 1025578, Control_c, 0, 64, 45
1, 1025593, Control_c, 0, 64, 43
1, 1025608, Control_c, 0, 64, 41
1, 1025623, Control_c, 0, 64, 39
1, 1025630, Note_off_c, 0, 62, 56
1, 1025638, Note_on_c, 0, 61, 53
1, 1025638, Control_c, 0, 64, 36
1, 1025640, Note_off_c, 0, 58, 51
1, 1025641, Note_on_c, 0, 57, 47
1, 1025652, Control_c, 0, 64, 35
1, 1025719, Control_c, 0, 64, 38
1, 1025734, Control_c, 0, 64, 47
1, 1025749, Control_c, 0, 64, 56
1, 1025764, Control_c, 0, 64, 62
1, 1025779, Control_c, 0, 64, 67
1, 1025793, Control_c, 0, 64, 73
1, 1025799, Note_off_c, 0, 48, 35
1, 1025809, Control_c, 0, 64, 87
1, 1025824, Control_c, 0, 64, 127
1, 1026016, Control_c, 0, 64, 115
1, 1026023, Note_on_c, 0, 47, 40
1, 1026031, Control_c, 0, 64, 87
1, 1026032, Note_on_c, 0, 35, 37
1, 1026046, Control_c, 0, 64, 74
1, 1026061, Control_c, 0, 64, 67
1, 1026074, Note_off_c, 0, 36, 40
1, 1026076, Control_c, 0, 64, 66
1, 1026090, Control_c, 0, 64, 69
1, 1026105, Control_c, 0, 64, 75
1, 1026120, Control_c, 0, 64, 88
1, 1026134, Control_c, 0, 64, 116
1, 1026149, Note_off_c, 0, 47, 59
1, 1026149, Control_c, 0, 64, 127
1, 1026253, Note_on_c, 0, 46, 54
1, 1026253, Control_c, 0, 64, 96
1, 1026261, Note_on_c, 0, 34, 50
1, 1026268, Control_c, 0, 64, 77
1, 1026283, Control_c, 0, 64, 66
1, 1026298, Control_c, 0, 64, 61
1, 1026313, Control_c, 0, 64, 63
1, 1026326, Control_c, 0, 64, 67
1, 1026341, Control_c, 0, 64, 75
1, 1026356, Control_c, 0, 64, 91
1, 1026358, Note_off_c, 0, 35, 40
1, 1026371, Control_c, 0, 64, 127
1, 1026396, Note_off_c, 0, 46, 56
1, 1026482, Control_c, 0, 64, 100
1, 1026488, Note_on_c, 0, 45, 54
1, 1026490, Note_on_c, 0, 33, 56
1, 1026497, Control_c, 0, 64, 79
1, 1026512, Control_c, 0, 64, 68
1, 1026521, Note_off_c, 0, 34, 48
1, 1026527, Control_c, 0, 64, 60
1, 1026541, Control_c, 0, 64, 60
1, 1026556, Control_c, 0, 64, 63
1, 1026571, Control_c, 0, 64, 67
1, 1026586, Control_c, 0, 64, 73
1, 1026601, Control_c, 0, 64, 80
1, 1026603, Note_off_c, 0, 45, 62
1, 1026617, Control_c, 0, 64, 88
1, 1026631, Control_c, 0, 64, 95
1, 1026646, Control_c, 0, 64, 97
1, 1026661, Control_c, 0, 64, 94
1, 1026676, Control_c, 0, 64, 90
1, 1026691, Control_c, 0, 64, 86
1, 1026705, Control_c, 0, 64, 83
1, 1026720, Control_c, 0, 64, 79
1, 1026730, Note_on_c, 0, 46, 47
1, 1026735, Control_c, 0, 64, 74
1, 1026745, Note_on_c, 0, 34, 36
1, 1026750, Control_c, 0, 64, 71
1, 1026764, Control_c, 0, 64, 70
1, 1026779, Control_c, 0, 64, 69
1, 1026794, Control_c, 0, 64, 67
1, 1026796, Note_off_c, 0, 33, 32
1, 1026809, Control_c, 0, 64, 65
1, 1026824, Control_c, 0, 64, 63
1, 1026838, Control_c, 0, 64, 63
1, 1026853, Control_c, 0, 64, 62
1, 1026868, Control_c, 0, 64, 62
1, 1026883, Control_c, 0, 64, 60
1, 1026898, Control_c, 0, 64, 59
1, 1026912, Control_c, 0, 64, 59
1, 1026942, Control_c, 0, 64, 58
1, 1026956, Control_c, 0, 64, 57
1, 1026971, Control_c, 0, 64, 56
1, 1026986, Control_c, 0, 64, 56
1, 1027001, Control_c, 0, 64, 55
1, 1027006, Note_on_c, 0, 41, 38
1, 1027016, Control_c, 0, 64, 54
1, 1027024, Note_on_c, 0, 53, 48
1, 1027031, Control_c, 0, 64, 52
1, 1027046, Control_c, 0, 64, 50
1, 1027061, Control_c, 0, 64, 48
1, 1027076, Control_c, 0, 64, 45
1, 1027090, Control_c, 0, 64, 41
1, 1027105, Control_c, 0, 64, 36
1, 1027109, Note_off_c, 0, 46, 38
1, 1027110, Note_off_c, 0, 57, 33
1, 1027117, Note_off_c, 0, 34, 42
1, 1027120, Control_c, 0, 64, 30
1, 1027135, Control_c, 0, 64, 26
1, 1027150, Control_c, 0, 64, 24
1, 1027207, Note_off_c, 0, 61, 37
1, 1027216, Control_c, 0, 64, 30
1, 1027231, Control_c, 0, 64, 43
1, 1027246, Control_c, 0, 64, 54
1, 1027261, Control_c, 0, 64, 60
1, 1027275, Control_c, 0, 64, 63
1, 1027290, Control_c, 0, 64, 66
1, 1027297, Note_off_c, 0, 41, 50
1, 1027305, Control_c, 0, 64, 70
1, 1027320, Control_c, 0, 64, 78
1, 1027335, Control_c, 0, 64, 87
1, 1027350, Control_c, 0, 64, 102
1, 1027364, Control_c, 0, 64, 127
1, 1027526, Note_on_c, 0, 52, 42
1, 1027541, Note_on_c, 0, 40, 35
1, 1027558, Control_c, 0, 64, 102
1, 1027573, Control_c, 0, 64, 86
1, 1027587, Control_c, 0, 64, 74
1, 1027602, Control_c, 0, 64, 69
1, 1027617, Control_c, 0, 64, 65
1, 1027630, Note_off_c, 0, 53, 38
1, 1027632, Control_c, 0, 64, 64
1, 1027661, Control_c, 0, 64, 65
1, 1027676, Control_c, 0, 64, 68
1, 1027691, Control_c, 0, 64, 74
1, 1027705, Control_c, 0, 64, 82
1, 1027720, Control_c, 0, 64, 95
1, 1027735, Control_c, 0, 64, 127
1, 1027754, Note_off_c, 0, 52, 53
1, 1028010, Note_on_c, 0, 39, 31
1, 1028015, Note_on_c, 0, 51, 33
1, 1028099, Control_c, 0, 64, 107
1, 1028113, Control_c, 0, 64, 94
1, 1028128, Control_c, 0, 64, 83
1, 1028143, Control_c, 0, 64, 74
1, 1028158, Control_c, 0, 64, 68
1, 1028173, Control_c, 0, 64, 64
1, 1028177, Note_off_c, 0, 40, 42
1, 1028188, Control_c, 0, 64, 61
1, 1028203, Control_c, 0, 64, 61
1, 1028218, Control_c, 0, 64, 61
1, 1028233, Control_c, 0, 64, 63
1, 1028243, Note_on_c, 0, 52, 38
1, 1028248, Control_c, 0, 64, 65
1, 1028263, Control_c, 0, 64, 67
1, 1028277, Control_c, 0, 64, 71
1, 1028292, Control_c, 0, 64, 77
1, 1028307, Control_c, 0, 64, 83
1, 1028322, Control_c, 0, 64, 90
1, 1028337, Control_c, 0, 64, 99
1, 1028352, Control_c, 0, 64, 107
1, 1028366, Control_c, 0, 64, 115
1, 1028381, Control_c, 0, 64, 119
1, 1028389, Note_off_c, 0, 51, 39
1, 1028411, Control_c, 0, 64, 120
1, 1028456, Control_c, 0, 64, 119
1, 1028471, Control_c, 0, 64, 114
1, 1028485, Control_c, 0, 64, 109
1, 1028491, Note_on_c, 0, 55, 41
1, 1028495, Note_on_c, 0, 50, 35
1, 1028500, Control_c, 0, 64, 100
1, 1028501, Note_on_c, 0, 38, 37
1, 1028515, Control_c, 0, 64, 89
1, 1028529, Control_c, 0, 64, 80
1, 1028544, Control_c, 0, 64, 73
1, 1028559, Control_c, 0, 64, 68
1, 1028572, Note_off_c, 0, 52, 36
1, 1028574, Control_c, 0, 64, 65
1, 1028589, Control_c, 0, 64, 63
1, 1028601, Note_off_c, 0, 39, 34
1, 1028603, Control_c, 0, 64, 63
1, 1028614, Note_off_c, 0, 55, 55
1, 1028618, Control_c, 0, 64, 63
1, 1028633, Control_c, 0, 64, 64
1, 1028648, Control_c, 0, 64, 65
1, 1028663, Control_c, 0, 64, 68
1, 1028677, Control_c, 0, 64, 71
1, 1028692, Control_c, 0, 64, 78
1, 1028715, Control_c, 0, 64, 88
1, 1028729, Control_c, 0, 64, 101
1, 1028731, Note_on_c, 0, 55, 54
1, 1028744, Control_c, 0, 64, 127
1, 1028797, Note_off_c, 0, 50, 40
1, 1028820, Note_off_c, 0, 55, 56
1, 1028966, Note_on_c, 0, 55, 52
1, 1028974, Note_on_c, 0, 37, 42
1, 1028975, Note_on_c, 0, 49, 40
1, 1028996, Control_c, 0, 64, 99
1, 1029012, Control_c, 0, 64, 85
1, 1029026, Control_c, 0, 64, 76
1, 1029041, Control_c, 0, 64, 70
1, 1029056, Control_c, 0, 64, 65
1, 1029071, Control_c, 0, 64, 62
1, 1029086, Control_c, 0, 64, 59
1, 1029100, Control_c, 0, 64, 59
1, 1029115, Control_c, 0, 64, 59
1, 1029130, Note_off_c, 0, 38, 39
1, 1029130, Control_c, 0, 64, 60
1, 1029145, Control_c, 0, 64, 61
1, 1029159, Control_c, 0, 64, 63
1, 1029174, Control_c, 0, 64, 66
1, 1029189, Control_c, 0, 64, 70
1, 1029199, Note_off_c, 0, 55, 57
1, 1029204, Control_c, 0, 64, 76
1, 1029210, Note_on_c, 0, 53, 61
1, 1029219, Control_c, 0, 64, 84
1, 1029234, Control_c, 0, 64, 96
1, 1029249, Control_c, 0, 64, 127
1, 1029386, Note_off_c, 0, 49, 41
1, 1029459, Note_on_c, 0, 56, 61
1, 1029468, Note_on_c, 0, 48, 47
1, 1029471, Note_on_c, 0, 36, 45
1, 1029493, Control_c, 0, 64, 112
1, 1029508, Control_c, 0, 64, 92
1, 1029523, Control_c, 0, 64, 81
1, 1029538, Control_c, 0, 64, 74
1, 1029552, Control_c, 0, 64, 69
1, 1029567, Control_c, 0, 64, 66
1, 1029582, Control_c, 0, 64, 62
1, 1029592, Note_off_c, 0, 37, 31
1, 1029597, Control_c, 0, 64, 59
1, 1029598, Note_off_c, 0, 53, 34
1, 1029612, Control_c, 0, 64, 58
1, 1029641, Control_c, 0, 64, 59
1, 1029656, Control_c, 0, 64, 60
1, 1029671, Control_c, 0, 64, 62
1, 1029685, Control_c, 0, 64, 65
1, 1029690, Note_on_c, 0, 62, 70
1, 1029700, Control_c, 0, 64, 68
1, 1029715, Control_c, 0, 64, 73
1, 1029730, Control_c, 0, 64, 82
1, 1029745, Control_c, 0, 64, 95
1, 1029759, Control_c, 0, 64, 127
1, 1029775, Note_off_c, 0, 48, 51
1, 1029825, Note_off_c, 0, 56, 55
1, 1029914, Note_on_c, 0, 59, 71
1, 1029924, Note_on_c, 0, 47, 58
1, 1029928, Note_on_c, 0, 35, 53
1, 1029938, Control_c, 0, 64, 102
1, 1029948, Note_off_c, 0, 62, 60
1, 1029953, Control_c, 0, 64, 82
1, 1029968, Control_c, 0, 64, 71
1, 1029982, Control_c, 0, 64, 64
1, 1029997, Control_c, 0, 64, 60
1, 1030003, Note_off_c, 0, 36, 34
1, 1030027, Control_c, 0, 64, 62
1, 1030042, Control_c, 0, 64, 65
1, 1030057, Control_c, 0, 64, 69
1, 1030072, Control_c, 0, 64, 76
1, 1030086, Control_c, 0, 64, 85
1, 1030101, Control_c, 0, 64, 102
1, 1030101, Note_off_c, 0, 59, 56
1, 1030116, Control_c, 0, 64, 127
1, 1030142, Note_on_c, 0, 61, 78
1, 1030183, Note_off_c, 0, 47, 59
1, 1030242, Control_c, 0, 64, 125
1, 1030256, Control_c, 0, 64, 88
1, 1030271, Control_c, 0, 64, 74
1, 1030286, Control_c, 0, 64, 68
1, 1030301, Control_c, 0, 64, 70
1, 1030316, Control_c, 0, 64, 78
1, 1030331, Control_c, 0, 64, 96
1, 1030346, Control_c, 0, 64, 127
1, 1030382, Note_on_c, 0, 64, 80
1, 1030383, Note_on_c, 0, 46, 66
1, 1030385, Note_on_c, 0, 34, 65
1, 1030407, Note_off_c, 0, 61, 58
1, 1030435, Control_c, 0, 64, 106
1, 1030449, Control_c, 0, 64, 81
1, 1030464, Control_c, 0, 64, 69
1, 1030479, Control_c, 0, 64, 62
1, 1030482, Note_off_c, 0, 35, 36
1, 1030508, Control_c, 0, 64, 64
1, 1030523, Control_c, 0, 64, 68
1, 1030538, Control_c, 0, 64, 75
1, 1030553, Control_c, 0, 64, 89
1, 1030568, Control_c, 0, 64, 127
1, 1030617, Note_on_c, 0, 65, 88
1, 1030632, Note_off_c, 0, 64, 53
1, 1030718, Note_off_c, 0, 46, 37
1, 1030836, Note_on_c, 0, 45, 71
1, 1030841, Note_on_c, 0, 33, 68
1, 1030846, Note_on_c, 0, 74, 85
1, 1030909, Control_c, 0, 64, 101
1, 1030923, Control_c, 0, 64, 83
1, 1030924, Note_off_c, 0, 65, 54
1, 1030933, Note_off_c, 0, 34, 36
1, 1030938, Control_c, 0, 64, 70
1, 1030960, Control_c, 0, 64, 64
1, 1030975, Control_c, 0, 64, 58
1, 1030990, Control_c, 0, 64, 56
1, 1031005, Control_c, 0, 64, 57
1, 1031019, Control_c, 0, 64, 61
1, 1031034, Control_c, 0, 64, 65
1, 1031049, Control_c, 0, 64, 71
1, 1031064, Control_c, 0, 64, 83
1, 1031079, Control_c, 0, 64, 110
1, 1031094, Control_c, 0, 64, 127
1, 1031095, Note_on_c, 0, 71, 96
1, 1031166, Note_off_c, 0, 74, 58
1, 1031180, Note_off_c, 0, 45, 61
1, 1031315, Note_on_c, 0, 32, 75
1, 1031321, Note_on_c, 0, 44, 85
1, 1031372, Note_off_c, 0, 33, 58
1, 1031390, Control_c, 0, 64, 119
1, 1031406, Control_c, 0, 64, 86
1, 1031420, Control_c, 0, 64, 74
1, 1031435, Control_c, 0, 64, 67
1, 1031450, Control_c, 0, 64, 64
1, 1031465, Control_c, 0, 64, 63
1, 1031480, Control_c, 0, 64, 64
1, 1031494, Control_c, 0, 64, 68
1, 1031509, Control_c, 0, 64, 74
1, 1031524, Control_c, 0, 64, 88
1, 1031539, Control_c, 0, 64, 127
1, 1031555, Note_on_c, 0, 72, 95
1, 1031592, Note_off_c, 0, 71, 63
1, 1031608, Note_off_c, 0, 44, 54
1, 1031753, Note_off_c, 0, 32, 60
1, 1031797, Note_on_c, 0, 64, 91
1, 1031797, Note_on_c, 0, 75, 102
1, 1031800, Note_on_c, 0, 43, 79
1, 1031803, Note_on_c, 0, 31, 80
1, 1031873, Control_c, 0, 64, 81
1, 1031888, Control_c, 0, 64, 64
1, 1031893, Note_off_c, 0, 72, 54
1, 1031902, Control_c, 0, 64, 44
1, 1031917, Control_c, 0, 64, 20
1, 1031932, Control_c, 0, 64, 24
1, 1031947, Control_c, 0, 64, 45
1, 1031961, Control_c, 0, 64, 63
1, 1031976, Control_c, 0, 64, 83
1, 1031991, Control_c, 0, 64, 127
1, 1032035, Note_on_c, 0, 76, 103
1, 1032052, Note_off_c, 0, 31, 62
1, 1032062, Note_off_c, 0, 43, 62
1, 1032089, Note_off_c, 0, 75, 60
1, 1032115, Note_off_c, 0, 64, 60
1, 1032243, Poly_aftertouch_c, 0, 37, 127
1, 1032255, Note_on_c, 0, 42, 97
1, 1032259, Note_on_c, 0, 30, 87
1, 1032262, Note_on_c, 0, 64, 100
1, 1032274, Control_c, 0, 64, 114
1, 1032279, Poly_aftertouch_c, 0, 37, 0
1, 1032289, Control_c, 0, 64, 70
1, 1032304, Control_c, 0, 64, 37
1, 1032318, Control_c, 0, 64, 0
1, 1032348, Control_c, 0, 64, 45
1, 1032363, Control_c, 0, 64, 65
1, 1032375, Note_off_c, 0, 64, 64
1, 1032377, Control_c, 0, 64, 92
1, 1032392, Control_c, 0, 64, 127
1, 1032400, Note_off_c, 0, 76, 66
1, 1032498, Note_on_c, 0, 77, 99
1, 1032500, Note_on_c, 0, 76, 95
1, 1032517, Note_off_c, 0, 76, 74
1, 1032522, Note_off_c, 0, 42, 59
1, 1032564, Note_off_c, 0, 30, 50
1, 1032732, Note_on_c, 0, 41, 104
1, 1032736, Note_on_c, 0, 29, 92
1, 1032747, Note_on_c, 0, 86, 102
1, 1032770, Control_c, 0, 64, 116
1, 1032784, Control_c, 0, 64, 74
1, 1032799, Control_c, 0, 64, 44
1, 1032814, Control_c, 0, 64, 0
1, 1032888, Control_c, 0, 64, 58
1, 1032894, Note_off_c, 0, 77, 57
1, 1032903, Control_c, 0, 64, 77
1, 1032918, Control_c, 0, 64, 127
1, 1032990, Note_off_c, 0, 41, 63
1, 1032995, Note_on_c, 0, 83, 102
1, 1033000, Note_off_c, 0, 29, 62
1, 1033256, Note_on_c, 0, 40, 96
1, 1033261, Note_on_c, 0, 28, 93
1, 1033312, Control_c, 0, 64, 75
1, 1033327, Control_c, 0, 64, 50
1, 1033342, Control_c, 0, 64, 0
1, 1033371, Control_c, 0, 64, 39
1, 1033386, Control_c, 0, 64, 64
1, 1033397, Note_off_c, 0, 86, 61
1, 1033400, Control_c, 0, 64, 88
1, 1033415, Control_c, 0, 64, 127
1, 1033428, Note_off_c, 0, 83, 61
1, 1033520, Note_off_c, 0, 40, 62
1, 1033523, Note_on_c, 0, 84, 105
1, 1033553, Note_off_c, 0, 28, 61
1, 1033789, Note_on_c, 0, 38, 96
1, 1033793, Note_on_c, 0, 26, 92
1, 1033795, Note_on_c, 0, 92, 106
1, 1033875, Control_c, 0, 64, 103
1, 1033890, Control_c, 0, 64, 63
1, 1033895, Note_off_c, 0, 84, 54
1, 1033905, Control_c, 0, 64, 0
1, 1033986, Control_c, 0, 64, 13
1, 1034001, Control_c, 0, 64, 59
1, 1034016, Control_c, 0, 64, 64
1, 1034030, Control_c, 0, 64, 68
1, 1034045, Control_c, 0, 64, 81
1, 1034060, Control_c, 0, 64, 127
1, 1034102, Note_on_c, 0, 89, 103
1, 1034105, Note_off_c, 0, 26, 60
1, 1034106, Note_off_c, 0, 38, 59
1, 1034258, Note_off_c, 0, 92, 56
1, 1034517, Note_on_c, 0, 36, 88
1, 1034519, Note_on_c, 0, 24, 90
1, 1034593, Control_c, 0, 64, 93
1, 1034608, Control_c, 0, 64, 68
1, 1034623, Control_c, 0, 64, 27
1, 1034637, Control_c, 0, 64, 0
1, 1034912, Control_c, 0, 64, 52
1, 1034926, Control_c, 0, 64, 73
1, 1034941, Control_c, 0, 64, 90
1, 1034956, Control_c, 0, 64, 127
1, 1035022, Note_off_c, 0, 89, 57
1, 1035246, Note_on_c, 0, 90, 98
1, 1035680, Note_off_c, 0, 36, 31
1, 1036070, Note_on_c, 0, 99, 86
1, 1036075, Note_on_c, 0, 23, 58
1, 1036075, Note_on_c, 0, 35, 56
1, 1036150, Control_c, 0, 64, 86
1, 1036164, Control_c, 0, 64, 69
1, 1036179, Note_off_c, 0, 24, 49
1, 1036179, Control_c, 0, 64, 56
1, 1036203, Control_c, 0, 64, 28
1, 1036218, Control_c, 0, 64, 0
1, 1036363, Note_off_c, 0, 90, 45
1, 1036573, Control_c, 0, 64, 11
1, 1036588, Control_c, 0, 64, 23
1, 1036603, Control_c, 0, 64, 34
1, 1036617, Control_c, 0, 64, 44
1, 1036632, Control_c, 0, 64, 49
1, 1036647, Control_c, 0, 64, 52
1, 1036662, Control_c, 0, 64, 54
1, 1036677, Control_c, 0, 64, 56
1, 1036691, Control_c, 0, 64, 57
1, 1036706, Control_c, 0, 64, 60
1, 1036721, Control_c, 0, 64, 61
1, 1036735, Control_c, 0, 64, 62
1, 1036750, Control_c, 0, 64, 64
1, 1036765, Control_c, 0, 64, 65
1, 1036780, Control_c, 0, 64, 67
1, 1036795, Control_c, 0, 64, 70
1, 1036808, Control_c, 0, 64, 74
1, 1036823, Control_c, 0, 64, 79
1, 1036838, Control_c, 0, 64, 86
1, 1036853, Control_c, 0, 64, 96
1, 1036868, Control_c, 0, 64, 115
1, 1036883, Control_c, 0, 64, 127
1, 1037055, Note_on_c, 0, 95, 66
1, 1037544, Note_off_c, 0, 99, 58
1, 1037681, Note_off_c, 0, 95, 53
1, 1037777, Note_off_c, 0, 35, 29
1, 1037880, Note_off_c, 0, 23, 34
1, 1038651, Note_on_c, 0, 21, 71
1, 1038655, Note_on_c, 0, 33, 72
1, 1038662, Note_on_c, 0, 100, 111
1, 1038664, Note_on_c, 0, 96, 100
1, 1038715, Control_c, 0, 64, 104
1, 1038730, Control_c, 0, 64, 71
1, 1038745, Control_c, 0, 64, 40
1, 1038751, Note_on_c, 0, 94, 96
1, 1038751, Note_on_c, 0, 98, 88
1, 1038759, Control_c, 0, 64, 0
1, 1038774, Note_off_c, 0, 96, 67
1, 1038790, Note_off_c, 0, 100, 65
1, 1038834, Note_on_c, 0, 93, 88
1, 1038835, Note_on_c, 0, 97, 95
1, 1038860, Note_off_c, 0, 98, 67
1, 1038864, Note_off_c, 0, 94, 64
1, 1039790, Control_c, 0, 64, 25
1, 1039805, Control_c, 0, 64, 46
1, 1039820, Control_c, 0, 64, 57
1, 1039834, Control_c, 0, 64, 62
1, 1039849, Control_c, 0, 64, 64
1, 1039864, Control_c, 0, 64, 67
1, 1039879, Control_c, 0, 64, 73
1, 1039894, Control_c, 0, 64, 82
1, 1039909, Control_c, 0, 64, 98
1, 1039923, Control_c, 0, 64, 127
1, 1040150, Note_off_c, 0, 97, 56
1, 1040165, Note_off_c, 0, 93, 40
1, 1040168, Note_off_c, 0, 33, 27
1, 1040217, Note_off_c, 0, 21, 37
1, 1041092, Note_on_c, 0, 100, 112
1, 1041093, Note_on_c, 0, 21, 76
1, 1041094, Note_on_c, 0, 96, 106
1, 1041095, Note_on_c, 0, 33, 75
1, 1041155, Control_c, 0, 64, 90
1, 1041169, Control_c, 0, 64, 62
1, 1041181, Note_on_c, 0, 98, 90
1, 1041184, Note_on_c, 0, 94, 99
1, 1041184, Control_c, 0, 64, 0
1, 1041207, Note_off_c, 0, 96, 66
1, 1041222, Note_off_c, 0, 100, 66
1, 1041264, Note_on_c, 0, 93, 91
1, 1041264, Note_on_c, 0, 97, 94
1, 1041291, Note_off_c, 0, 94, 65
1, 1041291, Note_off_c, 0, 98, 67
1, 1042022, Control_c, 0, 64, 16
1, 1042036, Control_c, 0, 64, 17
1, 1042051, Control_c, 0, 64, 19
1, 1042066, Control_c, 0, 64, 24
1, 1042081, Control_c, 0, 64, 38
1, 1042096, Control_c, 0, 64, 49
1, 1042110, Control_c, 0, 64, 54
1, 1042125, Control_c, 0, 64, 56
1, 1042140, Control_c, 0, 64, 58
1, 1042155, Control_c, 0, 64, 61
1, 1042170, Control_c, 0, 64, 64
1, 1042192, Control_c, 0, 64, 67
1, 1042207, Control_c, 0, 64, 72
1, 1042222, Control_c, 0, 64, 78
1, 1042236, Control_c, 0, 64, 87
1, 1042251, Control_c, 0, 64, 104
1, 1042266, Control_c, 0, 64, 127
1, 1042365, Note_off_c, 0, 93, 35
1, 1042380, Note_off_c, 0, 21, 40
1, 1042394, Note_off_c, 0, 97, 54
1, 1042575, Note_off_c, 0, 33, 35
1, 1043712, Note_on_c, 0, 76, 87
1, 1043714, Note_on_c, 0, 72, 81
1, 1043715, Note_on_c, 0, 64, 54
1, 1043715, Note_on_c, 0, 52, 51
1, 1043735, Control_c, 0, 64, 115
1, 1043750, Control_c, 0, 64, 91
1, 1043764, Control_c, 0, 64, 77
1, 1043779, Control_c, 0, 64, 69
1, 1043794, Control_c, 0, 64, 63
1, 1043805, Note_on_c, 0, 70, 75
1, 1043806, Note_on_c, 0, 74, 68
1, 1043808, Control_c, 0, 64, 59
1, 1043809, Note_off_c, 0, 72, 58
1, 1043823, Control_c, 0, 64, 56
1, 1043838, Control_c, 0, 64, 50
1, 1043846, Note_off_c, 0, 76, 58
1, 1043853, Control_c, 0, 64, 43
1, 1043868, Control_c, 0, 64, 35
1, 1043882, Control_c, 0, 64, 24
1, 1043897, Control_c, 0, 64, 13
1, 1043912, Control_c, 0, 64, 0
1, 1043921, Note_on_c, 0, 73, 65
1, 1043927, Note_on_c, 0, 69, 59
1, 1043937, Note_off_c, 0, 70, 55
1, 1043939, Note_off_c, 0, 74, 59
1, 1044164, Control_c, 0, 64, 20
1, 1044180, Control_c, 0, 64, 28
1, 1044195, Control_c, 0, 64, 34
1, 1044210, Control_c, 0, 64, 41
1, 1044224, Control_c, 0, 64, 48
1, 1044239, Control_c, 0, 64, 53
1, 1044254, Control_c, 0, 64, 56
1, 1044269, Control_c, 0, 64, 57
1, 1044284, Control_c, 0, 64, 59
1, 1044298, Control_c, 0, 64, 61
1, 1044313, Control_c, 0, 64, 63
1, 1044328, Control_c, 0, 64, 64
1, 1044343, Control_c, 0, 64, 65
1, 1044358, Control_c, 0, 64, 65
1, 1044372, Control_c, 0, 64, 66
1, 1044387, Control_c, 0, 64, 68
1, 1044402, Control_c, 0, 64, 71
1, 1044417, Control_c, 0, 64, 74
1, 1044439, Control_c, 0, 64, 77
1, 1044454, Control_c, 0, 64, 78
1, 1044469, Control_c, 0, 64, 80
1, 1044484, Control_c, 0, 64, 81
1, 1044499, Control_c, 0, 64, 84
1, 1044513, Control_c, 0, 64, 87
1, 1044528, Control_c, 0, 64, 91
1, 1044543, Control_c, 0, 64, 94
1, 1044558, Control_c, 0, 64, 95
1, 1044573, Control_c, 0, 64, 96
1, 1044587, Control_c, 0, 64, 99
1, 1044602, Control_c, 0, 64, 107
1, 1044617, Control_c, 0, 64, 127
1, 1045251, Note_off_c, 0, 52, 36
1, 1045277, Note_on_c, 0, 49, 31
1, 1045665, Note_on_c, 0, 45, 43
1, 1045739, Note_off_c, 0, 49, 41
1, 1045963, Note_on_c, 0, 40, 59
1, 1046137, Note_off_c, 0, 45, 36
1, 1046150, Note_off_c, 0, 73, 59
1, 1046159, Note_off_c, 0, 69, 60
1, 1046223, Note_on_c, 0, 37, 72
1, 1046294, Note_off_c, 0, 64, 59
1, 1046374, Note_off_c, 0, 40, 61
1, 1046510, Note_on_c, 0, 33, 72
1, 1046595, Note_off_c, 0, 37, 60
1, 1046907, Control_c, 0, 64, 125
1, 1046922, Control_c, 0, 64, 113
1, 1046929, Note_on_c, 0, 60, 68
1, 1046931, Note_on_c, 0, 37, 58
1, 1046931, Note_on_c, 0, 64, 73
1, 1046934, Note_on_c, 0, 30, 58
1, 1046937, Control_c, 0, 64, 106
1, 1046952, Control_c, 0, 64, 98
1, 1046967, Control_c, 0, 64, 91
1, 1046981, Control_c, 0, 64, 84
1, 1046996, Control_c, 0, 64, 79
1, 1047011, Control_c, 0, 64, 74
1, 1047025, Control_c, 0, 64, 70
1, 1047040, Control_c, 0, 64, 67
1, 1047055, Control_c, 0, 64, 63
1, 1047070, Control_c, 0, 64, 59
1, 1047075, Note_off_c, 0, 33, 35
1, 1047085, Control_c, 0, 64, 54
1, 1047099, Control_c, 0, 64, 48
1, 1047114, Control_c, 0, 64, 43
1, 1047129, Control_c, 0, 64, 39
1, 1047144, Control_c, 0, 64, 34
1, 1047159, Control_c, 0, 64, 30
1, 1047173, Control_c, 0, 64, 27
1, 1047188, Control_c, 0, 64, 25
1, 1047203, Control_c, 0, 64, 24
1, 1047218, Control_c, 0, 64, 23
1, 1047233, Control_c, 0, 64, 22
1, 1047277, Control_c, 0, 64, 24
1, 1047292, Control_c, 0, 64, 28
1, 1047304, Note_on_c, 0, 62, 67
1, 1047305, Note_on_c, 0, 59, 58
1, 1047306, Control_c, 0, 64, 32
1, 1047321, Control_c, 0, 64, 37
1, 1047336, Control_c, 0, 64, 42
1, 1047351, Control_c, 0, 64, 48
1, 1047366, Control_c, 0, 64, 54
1, 1047373, Note_off_c, 0, 60, 52
1, 1047376, Note_off_c, 0, 64, 53
1, 1047382, Control_c, 0, 64, 58
1, 1047396, Control_c, 0, 64, 62
1, 1047411, Control_c, 0, 64, 64
1, 1047433, Control_c, 0, 64, 67
1, 1047448, Control_c, 0, 64, 71
1, 1047463, Control_c, 0, 64, 78
1, 1047477, Control_c, 0, 64, 87
1, 1047492, Control_c, 0, 64, 100
1, 1047507, Control_c, 0, 64, 127
1, 1047522, Note_off_c, 0, 59, 61
1, 1047708, Note_on_c, 0, 58, 60
1, 1047710, Note_on_c, 0, 51, 53
1, 1047711, Note_on_c, 0, 40, 49
1, 1047715, Control_c, 0, 64, 110
1, 1047729, Control_c, 0, 64, 98
1, 1047744, Control_c, 0, 64, 89
1, 1047759, Control_c, 0, 64, 81
1, 1047774, Control_c, 0, 64, 74
1, 1047789, Control_c, 0, 64, 67
1, 1047803, Control_c, 0, 64, 62
1, 1047818, Control_c, 0, 64, 57
1, 1047823, Note_off_c, 0, 62, 53
1, 1047833, Control_c, 0, 64, 51
1, 1047847, Control_c, 0, 64, 46
1, 1047862, Control_c, 0, 64, 44
1, 1047892, Control_c, 0, 64, 47
1, 1047907, Control_c, 0, 64, 53
1, 1047921, Control_c, 0, 64, 60
1, 1047936, Control_c, 0, 64, 64
1, 1047951, Control_c, 0, 64, 67
1, 1047966, Control_c, 0, 64, 72
1, 1047981, Control_c, 0, 64, 80
1, 1047996, Control_c, 0, 64, 87
1, 1048011, Control_c, 0, 64, 94
1, 1048026, Control_c, 0, 64, 101
1, 1048040, Control_c, 0, 64, 109
1, 1048055, Control_c, 0, 64, 122
1, 1048064, Note_off_c, 0, 51, 34
1, 1048070, Control_c, 0, 64, 127
1, 1048129, Control_c, 0, 64, 122
1, 1048144, Control_c, 0, 64, 117
1, 1048159, Control_c, 0, 64, 114
1, 1048182, Control_c, 0, 64, 112
1, 1048197, Control_c, 0, 64, 109
1, 1048212, Control_c, 0, 64, 104
1, 1048226, Control_c, 0, 64, 99
1, 1048228, Note_on_c, 0, 61, 52
1, 1048234, Note_on_c, 0, 50, 41
1, 1048241, Control_c, 0, 64, 94
1, 1048256, Control_c, 0, 64, 88
1, 1048271, Control_c, 0, 64, 82
1, 1048285, Control_c, 0, 64, 76
1, 1048300, Control_c, 0, 64, 71
1, 1048315, Control_c, 0, 64, 65
1, 1048330, Control_c, 0, 64, 61
1, 1048345, Control_c, 0, 64, 57
1, 1048359, Control_c, 0, 64, 52
1, 1048374, Control_c, 0, 64, 49
1, 1048389, Control_c, 0, 64, 48
1, 1048404, Control_c, 0, 64, 49
1, 1048419, Control_c, 0, 64, 51
1, 1048434, Control_c, 0, 64, 56
1, 1048449, Control_c, 0, 64, 62
1, 1048464, Control_c, 0, 64, 65
1, 1048470, Note_off_c, 0, 58, 37
1, 1048478, Control_c, 0, 64, 69
1, 1048493, Control_c, 0, 64, 73
1, 1048508, Control_c, 0, 64, 80
1, 1048523, Control_c, 0, 64, 87
1, 1048538, Control_c, 0, 64, 99
1, 1048552, Control_c, 0, 64, 120
1, 1048567, Control_c, 0, 64, 127
1, 1048586, Note_off_c, 0, 50, 40
1, 1049049, Control_c, 0, 64, 116
1, 1049064, Control_c, 0, 64, 108
1, 1049079, Control_c, 0, 64, 104
1, 1049091, Note_on_c, 0, 57, 40
1, 1049092, Note_on_c, 0, 49, 30
1, 1049094, Control_c, 0, 64, 102
1, 1049108, Control_c, 0, 64, 101
1, 1049123, Control_c, 0, 64, 99
1, 1049138, Control_c, 0, 64, 94
1, 1049153, Control_c, 0, 64, 90
1, 1049168, Control_c, 0, 64, 86
1, 1049182, Control_c, 0, 64, 82
1, 1049197, Control_c, 0, 64, 78
1, 1049212, Control_c, 0, 64, 73
1, 1049227, Control_c, 0, 64, 68
1, 1049242, Control_c, 0, 64, 65
1, 1049257, Control_c, 0, 64, 63
1, 1049272, Control_c, 0, 64, 60
1, 1049286, Control_c, 0, 64, 57
1, 1049301, Control_c, 0, 64, 54
1, 1049316, Control_c, 0, 64, 51
1, 1049331, Control_c, 0, 64, 49
1, 1049346, Control_c, 0, 64, 48
1, 1049361, Control_c, 0, 64, 47
1, 1049375, Control_c, 0, 64, 45
1, 1049390, Control_c, 0, 64, 44
1, 1049405, Control_c, 0, 64, 44
1, 1049597, Control_c, 0, 64, 44
1, 1049612, Control_c, 0, 64, 45
1, 1049641, Control_c, 0, 64, 45
1, 1049708, Control_c, 0, 64, 46
1, 1049784, Control_c, 0, 64, 46
1, 1049872, Control_c, 0, 64, 47
1, 1051310, Control_c, 0, 64, 47
1, 1052057, Note_off_c, 0, 37, 48
1, 1052065, Note_off_c, 0, 30, 45
1, 1052079, Note_off_c, 0, 40, 45
1, 1052148, Control_c, 0, 64, 47
1, 1052846, Note_on_c, 0, 30, 43
1, 1052897, Note_off_c, 0, 30, 56
1, 1052919, Note_on_c, 0, 33, 30
1, 1052981, Note_off_c, 0, 33, 45
1, 1052983, Note_on_c, 0, 37, 28
1, 1053027, Note_off_c, 0, 37, 50
1, 1053034, Note_on_c, 0, 36, 43
1, 1053327, Control_c, 0, 64, 47
1, 1053341, Control_c, 0, 64, 48
1, 1053356, Control_c, 0, 64, 49
1, 1053371, Control_c, 0, 64, 51
1, 1053386, Control_c, 0, 64, 53
1, 1053401, Control_c, 0, 64, 55
1, 1053423, Control_c, 0, 64, 57
1, 1053438, Control_c, 0, 64, 60
1, 1053453, Control_c, 0, 64, 62
1, 1053467, Control_c, 0, 64, 63
1, 1053482, Control_c, 0, 64, 66
1, 1053497, Control_c, 0, 64, 69
1, 1053512, Control_c, 0, 64, 74
1, 1053527, Control_c, 0, 64, 81
1, 1053531, Note_off_c, 0, 57, 62
1, 1053541, Control_c, 0, 64, 91
1, 1053546, Note_off_c, 0, 61, 57
1, 1053556, Control_c, 0, 64, 110
1, 1053571, Control_c, 0, 64, 127
1, 1053575, Note_off_c, 0, 49, 41
1, 1054398, Note_on_c, 0, 57, 36
1, 1054406, Note_on_c, 0, 49, 29
1, 1054410, Control_c, 0, 64, 122
1, 1054412, Note_on_c, 0, 61, 39
1, 1054425, Control_c, 0, 64, 115
1, 1054439, Control_c, 0, 64, 110
1, 1054454, Control_c, 0, 64, 105
1, 1054469, Control_c, 0, 64, 101
1, 1054484, Control_c, 0, 64, 97
1, 1054498, Control_c, 0, 64, 92
1, 1054513, Control_c, 0, 64, 88
1, 1054528, Control_c, 0, 64, 84
1, 1054543, Control_c, 0, 64, 81
1, 1054559, Control_c, 0, 64, 78
1, 1054574, Control_c, 0, 64, 76
1, 1054588, Control_c, 0, 64, 73
1, 1054603, Control_c, 0, 64, 70
1, 1054618, Control_c, 0, 64, 67
1, 1054633, Control_c, 0, 64, 65
1, 1054648, Control_c, 0, 64, 62
1, 1054662, Control_c, 0, 64, 59
1, 1054677, Control_c, 0, 64, 54
1, 1054692, Control_c, 0, 64, 52
1, 1054707, Control_c, 0, 64, 51
1, 1054736, Control_c, 0, 64, 52
1, 1054751, Control_c, 0, 64, 53
1, 1054766, Control_c, 0, 64, 56
1, 1054781, Control_c, 0, 64, 59
1, 1054795, Control_c, 0, 64, 62
1, 1054810, Control_c, 0, 64, 64
1, 1054825, Control_c, 0, 64, 67
1, 1054840, Control_c, 0, 64, 70
1, 1054855, Control_c, 0, 64, 76
1, 1054870, Control_c, 0, 64, 84
1, 1054885, Control_c, 0, 64, 95
1, 1054899, Control_c, 0, 64, 122
1, 1054921, Control_c, 0, 64, 127
1, 1055096, Note_off_c, 0, 36, 40
1, 1055731, Note_on_c, 0, 30, 53
1, 1055743, Control_c, 0, 64, 103
1, 1055758, Control_c, 0, 64, 89
1, 1055773, Control_c, 0, 64, 78
1, 1055782, Note_off_c, 0, 30, 58
1, 1055788, Control_c, 0, 64, 71
1, 1055803, Control_c, 0, 64, 65
1, 1055811, Note_on_c, 0, 33, 41
1, 1055817, Control_c, 0, 64, 62
1, 1055832, Control_c, 0, 64, 58
1, 1055847, Control_c, 0, 64, 54
1, 1055862, Control_c, 0, 64, 50
1, 1055870, Note_off_c, 0, 33, 53
1, 1055875, Note_on_c, 0, 37, 33
1, 1055877, Control_c, 0, 64, 47
1, 1055891, Control_c, 0, 64, 44
1, 1055906, Control_c, 0, 64, 41
1, 1055921, Control_c, 0, 64, 36
1, 1055922, Note_off_c, 0, 37, 49
1, 1055934, Note_on_c, 0, 36, 36
1, 1055935, Control_c, 0, 64, 32
1, 1055950, Control_c, 0, 64, 29
1, 1055965, Control_c, 0, 64, 27
1, 1055980, Control_c, 0, 64, 24
1, 1055995, Control_c, 0, 64, 22
1, 1056009, Control_c, 0, 64, 19
1, 1056098, Control_c, 0, 64, 22
1, 1056113, Control_c, 0, 64, 28
1, 1056128, Control_c, 0, 64, 34
1, 1056143, Control_c, 0, 64, 38
1, 1056158, Control_c, 0, 64, 42
1, 1056173, Control_c, 0, 64, 47
1, 1056188, Control_c, 0, 64, 51
1, 1056203, Control_c, 0, 64, 54
1, 1056218, Control_c, 0, 64, 56
1, 1056232, Control_c, 0, 64, 57
1, 1056247, Control_c, 0, 64, 58
1, 1056262, Control_c, 0, 64, 60
1, 1056277, Control_c, 0, 64, 61
1, 1056292, Control_c, 0, 64, 62
1, 1056306, Control_c, 0, 64, 63
1, 1056321, Control_c, 0, 64, 64
1, 1056336, Control_c, 0, 64, 65
1, 1056351, Control_c, 0, 64, 66
1, 1056366, Control_c, 0, 64, 67
1, 1056381, Control_c, 0, 64, 70
1, 1056396, Control_c, 0, 64, 73
1, 1056418, Control_c, 0, 64, 76
1, 1056426, Note_off_c, 0, 61, 30
1, 1056432, Control_c, 0, 64, 79
1, 1056435, Note_off_c, 0, 57, 40
1, 1056447, Control_c, 0, 64, 83
1, 1056458, Note_off_c, 0, 49, 35
1, 1056462, Control_c, 0, 64, 88
1, 1056477, Control_c, 0, 64, 94
1, 1056491, Control_c, 0, 64, 103
1, 1056506, Control_c, 0, 64, 127
1, 1057210, Note_on_c, 0, 57, 30
1, 1057213, Note_on_c, 0, 49, 22
1, 1057219, Note_on_c, 0, 61, 32
1, 1057285, Control_c, 0, 64, 113
1, 1057300, Control_c, 0, 64, 104
1, 1057314, Control_c, 0, 64, 97
1, 1057329, Control_c, 0, 64, 91
1, 1057344, Control_c, 0, 64, 85
1, 1057359, Control_c, 0, 64, 80
1, 1057374, Control_c, 0, 64, 75
1, 1057389, Control_c, 0, 64, 70
1, 1057403, Control_c, 0, 64, 66
1, 1057418, Control_c, 0, 64, 64
1, 1057433, Control_c, 0, 64, 63
1, 1057478, Control_c, 0, 64, 63
1, 1057493, Control_c, 0, 64, 64
1, 1057507, Control_c, 0, 64, 66
1, 1057522, Control_c, 0, 64, 70
1, 1057537, Control_c, 0, 64, 75
1, 1057552, Control_c, 0, 64, 81
1, 1057567, Control_c, 0, 64, 91
1, 1057581, Control_c, 0, 64, 102
1, 1057596, Control_c, 0, 64, 125
1, 1057611, Control_c, 0, 64, 127
1, 1057752, Note_off_c, 0, 57, 41
1, 1057758, Note_off_c, 0, 61, 41
1, 1057797, Note_off_c, 0, 36, 40
1, 1057797, Note_off_c, 0, 49, 40
1, 1058479, Control_c, 0, 64, 117
1, 1058484, Note_on_c, 0, 42, 46
1, 1058493, Control_c, 0, 64, 102
1, 1058501, Note_on_c, 0, 30, 34
1, 1058508, Control_c, 0, 64, 91
1, 1058523, Control_c, 0, 64, 81
1, 1058537, Control_c, 0, 64, 73
1, 1058550, Note_off_c, 0, 42, 54
1, 1058551, Note_off_c, 0, 30, 51
1, 1058553, Control_c, 0, 64, 67
1, 1058558, Note_on_c, 0, 33, 32
1, 1058560, Note_on_c, 0, 45, 33
1, 1058568, Control_c, 0, 64, 63
1, 1058583, Control_c, 0, 64, 59
1, 1058596, Note_off_c, 0, 45, 54
1, 1058598, Control_c, 0, 64, 53
1, 1058611, Note_off_c, 0, 33, 57
1, 1058613, Control_c, 0, 64, 49
1, 1058615, Note_on_c, 0, 49, 50
1, 1058627, Control_c, 0, 64, 44
1, 1058642, Control_c, 0, 64, 39
1, 1058645, Note_on_c, 0, 37, 8
1, 1058657, Control_c, 0, 64, 32
1, 1058669, Note_off_c, 0, 49, 59
1, 1058679, Control_c, 0, 64, 23
1, 1058686, Note_on_c, 0, 48, 47
1, 1058694, Control_c, 0, 64, 0
1, 1058704, Note_on_c, 0, 36, 32
1, 1058706, Note_off_c, 0, 37, 48
1, 1058730, Note_off_c, 0, 48, 63
1, 1058745, Note_on_c, 0, 44, 60
1, 1058749, Note_off_c, 0, 36, 62
1, 1058766, Note_on_c, 0, 32, 36
1, 1058775, Note_off_c, 0, 44, 65
1, 1058807, Note_off_c, 0, 32, 45
1, 1058898, Note_on_c, 0, 45, 57
1, 1058918, Note_on_c, 0, 33, 40
1, 1058946, Note_off_c, 0, 45, 63
1, 1058963, Note_on_c, 0, 44, 62
1, 1058977, Note_off_c, 0, 33, 59
1, 1059004, Note_on_c, 0, 30, 51
1, 1059018, Note_off_c, 0, 44, 63
1, 1059027, Note_on_c, 0, 42, 75
1, 1059065, Note_off_c, 0, 30, 59
1, 1059099, Note_on_c, 0, 45, 63
1, 1059100, Note_off_c, 0, 42, 62
1, 1059126, Note_on_c, 0, 37, 37
1, 1059150, Note_off_c, 0, 45, 62
1, 1059154, Poly_aftertouch_c, 0, 33, 127
1, 1059156, Note_on_c, 0, 49, 60
1, 1059177, Note_off_c, 0, 37, 52
1, 1059180, Poly_aftertouch_c, 0, 33, 0
1, 1059207, Note_on_c, 0, 48, 57
1, 1059213, Note_off_c, 0, 49, 55
1, 1059214, Note_on_c, 0, 36, 30
1, 1059261, Note_off_c, 0, 36, 52
1, 1059266, Note_off_c, 0, 48, 61
1, 1059280, Note_on_c, 0, 44, 53
1, 1059289, Note_on_c, 0, 32, 34
1, 1059311, Note_off_c, 0, 44, 62
1, 1059328, Note_off_c, 0, 32, 47
1, 1059437, Note_on_c, 0, 45, 28
1, 1059463, Note_on_c, 0, 33, 12
1, 1059473, Note_off_c, 0, 45, 57
1, 1059487, Note_on_c, 0, 44, 56
1, 1059511, Note_off_c, 0, 33, 41
1, 1059524, Note_on_c, 0, 30, 42
1, 1059541, Note_off_c, 0, 44, 63
1, 1059562, Note_on_c, 0, 42, 61
1, 1059573, Note_off_c, 0, 30, 58
1, 1059616, Note_off_c, 0, 42, 60
1, 1059629, Note_on_c, 0, 33, 17
1, 1059629, Note_on_c, 0, 45, 45
1, 1059653, Note_on_c, 0, 37, 38
1, 1059684, Note_off_c, 0, 33, 48
1, 1059686, Note_off_c, 0, 45, 63
1, 1059691, Note_on_c, 0, 49, 55
1, 1059707, Note_off_c, 0, 37, 54
1, 1059738, Note_off_c, 0, 49, 59
1, 1059750, Note_on_c, 0, 48, 47
1, 1059767, Note_on_c, 0, 36, 15
1, 1059804, Note_off_c, 0, 48, 62
1, 1059812, Note_on_c, 0, 32, 32
1, 1059812, Note_off_c, 0, 36, 43
1, 1059817, Note_on_c, 0, 44, 56
1, 1059850, Note_off_c, 0, 32, 46
1, 1059851, Note_off_c, 0, 44, 64
1, 1059968, Note_on_c, 0, 45, 16
1, 1059976, Note_on_c, 0, 33, 19
1, 1059999, Note_on_c, 0, 32, 36
1, 1060012, Note_on_c, 0, 44, 48
1, 1060014, Note_off_c, 0, 45, 37
1, 1060029, Note_off_c, 0, 33, 50
1, 1060080, Note_off_c, 0, 44, 60
1, 1060090, Note_on_c, 0, 53, 62
1, 1060101, Note_on_c, 0, 41, 46
1, 1060126, Note_off_c, 0, 32, 36
1, 1060370, Note_on_c, 0, 45, 64
1, 1060382, Note_on_c, 0, 33, 43
1, 1060486, Note_off_c, 0, 53, 57
1, 1060641, Note_on_c, 0, 54, 76
1, 1060656, Note_on_c, 0, 42, 49
1, 1060701, Note_off_c, 0, 41, 31
1, 1060817, Note_off_c, 0, 45, 33
1, 1060918, Note_on_c, 0, 34, 44
1, 1060918, Note_on_c, 0, 46, 64
1, 1060952, Note_off_c, 0, 33, 39
1, 1060994, Note_off_c, 0, 54, 60
1, 1061001, Note_off_c, 0, 42, 51
1, 1061215, Note_on_c, 0, 43, 40
1, 1061215, Note_on_c, 0, 55, 56
1, 1061240, Note_off_c, 0, 46, 53
1, 1061259, Note_off_c, 0, 34, 43
1, 1061451, Note_off_c, 0, 43, 52
1, 1061472, Note_off_c, 0, 55, 54
1, 1061488, Note_on_c, 0, 47, 49
1, 1061490, Note_on_c, 0, 35, 41
1, 1061719, Note_off_c, 0, 47, 51
1, 1061726, Note_off_c, 0, 35, 41
1, 1061752, Note_on_c, 0, 48, 49
1, 1061756, Note_on_c, 0, 36, 46
1, 1061788, Note_off_c, 0, 36, 55
1, 1061812, Note_off_c, 0, 48, 59
1, 1061825, Note_on_c, 0, 51, 59
1, 1061875, Note_off_c, 0, 51, 62
1, 1061900, Note_on_c, 0, 55, 48
1, 1061939, Note_off_c, 0, 55, 61
1, 1061940, Note_on_c, 0, 54, 63
1, 1061991, Note_on_c, 0, 37, 71
1, 1062006, Note_off_c, 0, 54, 64
1, 1062008, Note_on_c, 0, 50, 65
1, 1062017, Note_off_c, 0, 37, 64
1, 1062038, Note_off_c, 0, 50, 64
1, 1062153, Note_on_c, 0, 51, 55
1, 1062200, Note_off_c, 0, 51, 62
1, 1062222, Note_on_c, 0, 50, 53
1, 1062263, Note_off_c, 0, 50, 65
1, 1062268, Note_on_c, 0, 36, 60
1, 1062286, Note_on_c, 0, 48, 57
1, 1062301, Note_off_c, 0, 36, 64
1, 1062330, Note_off_c, 0, 48, 56
1, 1062346, Note_on_c, 0, 51, 64
1, 1062387, Note_off_c, 0, 51, 65
1, 1062426, Note_on_c, 0, 55, 49
1, 1062465, Note_off_c, 0, 55, 63
1, 1062471, Note_on_c, 0, 54, 54
1, 1062511, Note_off_c, 0, 54, 65
1, 1062528, Note_on_c, 0, 50, 60
1, 1062539, Note_on_c, 0, 37, 52
1, 1062558, Note_off_c, 0, 50, 65
1, 1062572, Note_off_c, 0, 37, 56
1, 1062688, Note_on_c, 0, 51, 52
1, 1062735, Note_off_c, 0, 51, 61
1, 1062750, Note_on_c, 0, 50, 47
1, 1062793, Note_off_c, 0, 50, 63
1, 1062808, Note_on_c, 0, 48, 52
1, 1062819, Note_on_c, 0, 36, 45
1, 1062854, Note_off_c, 0, 36, 51
1, 1062858, Note_off_c, 0, 48, 56
1, 1062878, Note_on_c, 0, 51, 50
1, 1062915, Note_off_c, 0, 51, 64
1, 1062938, Note_on_c, 0, 55, 48
1, 1062982, Note_off_c, 0, 55, 60
1, 1062990, Note_on_c, 0, 54, 51
1, 1063031, Note_off_c, 0, 54, 65
1, 1063048, Note_on_c, 0, 50, 58
1, 1063063, Note_on_c, 0, 37, 36
1, 1063078, Note_off_c, 0, 50, 64
1, 1063103, Note_off_c, 0, 37, 48
1, 1063202, Note_on_c, 0, 63, 62
1, 1063261, Note_off_c, 0, 63, 58
1, 1063267, Note_on_c, 0, 62, 60
1, 1063303, Note_on_c, 0, 51, 78
1, 1063306, Note_off_c, 0, 62, 66
1, 1063313, Note_on_c, 0, 44, 58
1, 1063313, Note_on_c, 0, 60, 78
1, 1063314, Note_on_c, 0, 36, 46
1, 1063320, Control_c, 0, 64, 64
1, 1063333, Note_off_c, 0, 51, 67
1, 1063334, Control_c, 0, 64, 127
1, 1063341, Note_off_c, 0, 44, 61
1, 1063351, Note_off_c, 0, 36, 51
1, 1063380, Note_on_c, 0, 63, 74
1, 1063383, Note_off_c, 0, 60, 55
1, 1063437, Note_off_c, 0, 63, 63
1, 1063445, Note_on_c, 0, 67, 75
1, 1063501, Note_on_c, 0, 66, 73
1, 1063528, Control_c, 0, 64, 101
1, 1063532, Note_off_c, 0, 67, 60
1, 1063543, Control_c, 0, 64, 79
1, 1063557, Control_c, 0, 64, 67
1, 1063562, Note_on_c, 0, 54, 59
1, 1063568, Note_off_c, 0, 66, 62
1, 1063571, Note_on_c, 0, 62, 80
1, 1063572, Control_c, 0, 64, 57
1, 1063587, Control_c, 0, 64, 42
1, 1063595, Note_off_c, 0, 62, 71
1, 1063602, Control_c, 0, 64, 30
1, 1063617, Control_c, 0, 64, 25
1, 1063631, Control_c, 0, 64, 22
1, 1063632, Note_on_c, 0, 58, 58
1, 1063634, Note_off_c, 0, 54, 64
1, 1063646, Control_c, 0, 64, 16
1, 1063661, Control_c, 0, 64, 12
1, 1063676, Control_c, 0, 64, 11
1, 1063678, Note_on_c, 0, 61, 68
1, 1063708, Note_off_c, 0, 58, 62
1, 1063743, Note_on_c, 0, 60, 61
1, 1063744, Note_off_c, 0, 61, 61
1, 1063803, Note_on_c, 0, 59, 72
1, 1063805, Note_off_c, 0, 60, 64
1, 1063814, Note_on_c, 0, 65, 72
1, 1063831, Note_off_c, 0, 59, 67
1, 1063866, Note_off_c, 0, 65, 54
1, 1063878, Note_on_c, 0, 68, 72
1, 1063939, Note_on_c, 0, 73, 65
1, 1063949, Note_off_c, 0, 68, 60
1, 1063996, Note_on_c, 0, 72, 70
1, 1064009, Note_off_c, 0, 73, 58
1, 1064057, Note_off_c, 0, 72, 63
1, 1064066, Note_on_c, 0, 58, 58
1, 1064072, Note_on_c, 0, 64, 79
1, 1064099, Note_off_c, 0, 64, 66
1, 1064126, Note_on_c, 0, 61, 73
1, 1064139, Note_off_c, 0, 58, 61
1, 1064187, Note_on_c, 0, 65, 71
1, 1064187, Note_off_c, 0, 61, 62
1, 1064252, Note_off_c, 0, 65, 62
1, 1064254, Note_on_c, 0, 64, 67
1, 1064302, Note_on_c, 0, 63, 71
1, 1064307, Note_off_c, 0, 64, 65
1, 1064312, Note_on_c, 0, 73, 86
1, 1064326, Note_off_c, 0, 63, 67
1, 1064368, Note_on_c, 0, 69, 74
1, 1064402, Note_off_c, 0, 73, 62
1, 1064418, Note_on_c, 0, 66, 81
1, 1064435, Note_off_c, 0, 69, 63
1, 1064478, Note_on_c, 0, 67, 79
1, 1064479, Note_off_c, 0, 66, 64
1, 1064536, Note_on_c, 0, 74, 94
1, 1064539, Note_off_c, 0, 67, 62
1, 1064544, Note_on_c, 0, 62, 79
1, 1064558, Control_c, 0, 64, 9
1, 1064565, Note_off_c, 0, 74, 64
1, 1064572, Control_c, 0, 64, 0
1, 1064607, Note_off_c, 0, 62, 64
1, 1064611, Note_on_c, 0, 65, 78
1, 1064650, Note_on_c, 0, 69, 76
1, 1064671, Note_off_c, 0, 65, 60
1, 1064724, Note_off_c, 0, 69, 63
1, 1064728, Note_on_c, 0, 68, 74
1, 1064772, Note_on_c, 0, 67, 79
1, 1064784, Note_on_c, 0, 70, 93
1, 1064784, Note_off_c, 0, 68, 64
1, 1064795, Note_off_c, 0, 67, 71
1, 1064848, Note_on_c, 0, 73, 78
1, 1064852, Note_off_c, 0, 70, 61
1, 1064894, Note_on_c, 0, 77, 78
1, 1064912, Note_off_c, 0, 73, 61
1, 1064966, Note_on_c, 0, 76, 85
1, 1064996, Note_off_c, 0, 77, 63
1, 1065019, Note_on_c, 0, 66, 91
1, 1065028, Note_on_c, 0, 72, 92
1, 1065041, Note_off_c, 0, 76, 65
1, 1065066, Note_off_c, 0, 66, 66
1, 1065070, Control_c, 0, 64, 61
1, 1065073, Note_off_c, 0, 72, 66
1, 1065079, Note_on_c, 0, 70, 87
1, 1065085, Control_c, 0, 64, 78
1, 1065100, Control_c, 0, 64, 82
1, 1065100, Note_off_c, 0, 70, 70
1, 1065115, Control_c, 0, 64, 72
1, 1065130, Control_c, 0, 64, 60
1, 1065135, Note_on_c, 0, 74, 93
1, 1065144, Control_c, 0, 64, 24
1, 1065159, Control_c, 0, 64, 0
1, 1065192, Note_on_c, 0, 76, 90
1, 1065192, Note_off_c, 0, 74, 66
1, 1065225, Note_off_c, 0, 76, 67
1, 1065260, Note_on_c, 0, 56, 102
1, 1065265, Note_on_c, 0, 77, 104
1, 1065267, Note_on_c, 0, 49, 84
1, 1065269, Note_on_c, 0, 41, 81
1, 1065282, Note_off_c, 0, 56, 70
1, 1065289, Note_off_c, 0, 49, 69
1, 1065290, Note_off_c, 0, 41, 65
1, 1065293, Control_c, 0, 64, 77
1, 1065294, Note_on_c, 0, 43, 37
1, 1065308, Control_c, 0, 64, 127
1, 1065331, Note_off_c, 0, 43, 53
1, 1065333, Note_on_c, 0, 80, 96
1, 1065356, Note_off_c, 0, 77, 58
1, 1065404, Note_on_c, 0, 84, 92
1, 1065421, Note_off_c, 0, 80, 63
1, 1065463, Note_on_c, 0, 83, 85
1, 1065502, Note_off_c, 0, 84, 59
1, 1065528, Note_on_c, 0, 79, 96
1, 1065530, Note_on_c, 0, 73, 83
1, 1065538, Control_c, 0, 64, 104
1, 1065550, Note_off_c, 0, 83, 66
1, 1065552, Control_c, 0, 64, 84
1, 1065567, Control_c, 0, 64, 75
1, 1065580, Note_off_c, 0, 79, 67
1, 1065582, Control_c, 0, 64, 69
1, 1065588, Note_off_c, 0, 73, 68
1, 1065590, Note_on_c, 0, 75, 89
1, 1065596, Control_c, 0, 64, 63
1, 1065611, Control_c, 0, 64, 54
1, 1065626, Control_c, 0, 64, 43
1, 1065631, Note_on_c, 0, 76, 89
1, 1065641, Control_c, 0, 64, 38
1, 1065656, Control_c, 0, 64, 36
1, 1065670, Control_c, 0, 64, 32
1, 1065679, Note_off_c, 0, 75, 62
1, 1065681, Note_off_c, 0, 76, 66
1, 1065685, Control_c, 0, 64, 30
1, 1065695, Note_on_c, 0, 80, 93
1, 1065700, Control_c, 0, 64, 26
1, 1065706, Note_on_c, 0, 78, 62
1, 1065715, Control_c, 0, 64, 26
1, 1065726, Note_off_c, 0, 78, 60
1, 1065734, Note_off_c, 0, 80, 65
1, 1065760, Note_on_c, 0, 71, 85
1, 1065827, Note_off_c, 0, 71, 60
1, 1065833, Note_on_c, 0, 72, 63
1, 1065842, Note_on_c, 0, 74, 64
1, 1065887, Note_on_c, 0, 77, 71
1, 1065887, Note_off_c, 0, 72, 64
1, 1065891, Note_off_c, 0, 74, 59
1, 1065938, Control_c, 0, 64, 25
1, 1065953, Control_c, 0, 64, 24
1, 1065968, Control_c, 0, 64, 23
1, 1065982, Control_c, 0, 64, 22
1, 1065996, Note_on_c, 0, 58, 71
1, 1066005, Note_on_c, 0, 71, 77
1, 1066012, Note_off_c, 0, 77, 65
1, 1066039, Note_off_c, 0, 71, 55
1, 1066051, Note_on_c, 0, 60, 57
1, 1066054, Note_on_c, 0, 72, 63
1, 1066071, Control_c, 0, 64, 23
1, 1066074, Note_off_c, 0, 58, 60
1, 1066086, Control_c, 0, 64, 23
1, 1066100, Note_on_c, 0, 61, 69
1, 1066108, Note_off_c, 0, 72, 65
1, 1066113, Note_on_c, 0, 70, 73
1, 1066115, Control_c, 0, 64, 24
1, 1066126, Note_off_c, 0, 60, 63
1, 1066130, Control_c, 0, 64, 24
1, 1066152, Control_c, 0, 64, 25
1, 1066165, Note_on_c, 0, 63, 67
1, 1066179, Note_on_c, 0, 68, 79
1, 1066179, Note_off_c, 0, 61, 59
1, 1066182, Control_c, 0, 64, 26
1, 1066184, Note_off_c, 0, 70, 64
1, 1066212, Control_c, 0, 64, 27
1, 1066226, Control_c, 0, 64, 28
1, 1066228, Note_off_c, 0, 63, 64
1, 1066230, Note_on_c, 0, 64, 77
1, 1066236, Note_off_c, 0, 68, 63
1, 1066241, Control_c, 0, 64, 29
1, 1066242, Note_on_c, 0, 67, 86
1, 1066254, Note_off_c, 0, 64, 71
1, 1066256, Control_c, 0, 64, 30
1, 1066286, Control_c, 0, 64, 30
1, 1066308, Note_on_c, 0, 70, 85
1, 1066312, Note_off_c, 0, 67, 51
1, 1066357, Note_off_c, 0, 70, 66
1, 1066363, Note_on_c, 0, 74, 82
1, 1066422, Note_on_c, 0, 73, 82
1, 1066448, Control_c, 0, 64, 31
1, 1066451, Note_off_c, 0, 74, 62
1, 1066465, Note_on_c, 0, 63, 97
1, 1066478, Control_c, 0, 64, 31
1, 1066483, Note_off_c, 0, 73, 65
1, 1066484, Note_on_c, 0, 69, 85
1, 1066495, Note_on_c, 0, 62, 61
1, 1066507, Control_c, 0, 64, 32
1, 1066516, Note_on_c, 0, 76, 101
1, 1066516, Note_off_c, 0, 62, 63
1, 1066522, Control_c, 0, 64, 32
1, 1066539, Note_on_c, 0, 72, 81
1, 1066540, Note_off_c, 0, 63, 64
1, 1066541, Note_on_c, 0, 74, 58
1, 1066542, Note_off_c, 0, 74, 127
1, 1066542, Note_off_c, 0, 69, 64
1, 1066543, Note_off_c, 0, 76, 64
1, 1066568, Control_c, 0, 64, 32
1, 1066583, Control_c, 0, 64, 31
1, 1066597, Control_c, 0, 64, 31
1, 1066605, Note_on_c, 0, 69, 80
1, 1066627, Note_off_c, 0, 72, 63
1, 1066660, Note_on_c, 0, 68, 78
1, 1066668, Note_off_c, 0, 69, 63
1, 1066707, Note_on_c, 0, 63, 82
1, 1066724, Note_on_c, 0, 64, 79
1, 1066727, Note_on_c, 0, 67, 86
1, 1066730, Note_off_c, 0, 68, 63
1, 1066734, Note_off_c, 0, 63, 67
1, 1066784, Note_on_c, 0, 75, 87
1, 1066793, Note_off_c, 0, 64, 61
1, 1066803, Note_on_c, 0, 70, 77
1, 1066804, Note_off_c, 0, 75, 69
1, 1066830, Note_off_c, 0, 67, 61
1, 1066857, Note_off_c, 0, 70, 65
1, 1066859, Note_on_c, 0, 74, 78
1, 1066923, Note_on_c, 0, 73, 71
1, 1066943, Note_off_c, 0, 74, 58
1, 1066987, Note_on_c, 0, 63, 77
1, 1066988, Note_off_c, 0, 73, 65
1, 1066993, Note_on_c, 0, 69, 74
1, 1067044, Note_off_c, 0, 69, 59
1, 1067045, Note_on_c, 0, 76, 71
1, 1067050, Note_off_c, 0, 63, 60
1, 1067053, Note_on_c, 0, 72, 78
1, 1067062, Note_off_c, 0, 76, 67
1, 1067122, Note_off_c, 0, 72, 62
1, 1067124, Note_on_c, 0, 69, 79
1, 1067167, Control_c, 0, 64, 31
1, 1067173, Note_on_c, 0, 68, 81
1, 1067178, Note_off_c, 0, 69, 66
1, 1067234, Poly_aftertouch_c, 0, 64, 0
1, 1067237, Note_on_c, 0, 64, 101
1, 1067240, Note_off_c, 0, 68, 62
1, 1067241, Control_c, 0, 64, 30
1, 1067251, Note_on_c, 0, 67, 89
1, 1067256, Control_c, 0, 64, 27
1, 1067269, Note_off_c, 0, 64, 64
1, 1067271, Control_c, 0, 64, 23
1, 1067286, Control_c, 0, 64, 15
1, 1067301, Control_c, 0, 64, 0
1, 1067322, Note_on_c, 0, 70, 81
1, 1067325, Note_off_c, 0, 67, 60
1, 1067363, Note_on_c, 0, 54, 67
1, 1067375, Note_on_c, 0, 74, 82
1, 1067375, Note_off_c, 0, 70, 63
1, 1067393, Note_off_c, 0, 54, 66
1, 1067443, Note_on_c, 0, 73, 73
1, 1067448, Note_off_c, 0, 74, 62
1, 1067479, Note_off_c, 0, 73, 61
1, 1067485, Note_on_c, 0, 63, 86
1, 1067487, Note_on_c, 0, 69, 81
1, 1067513, Note_off_c, 0, 63, 65
1, 1067558, Note_on_c, 0, 72, 80
1, 1067564, Note_off_c, 0, 69, 62
1, 1067608, Note_on_c, 0, 53, 91
1, 1067624, Note_off_c, 0, 72, 62
1, 1067631, Note_on_c, 0, 71, 58
1, 1067633, Note_off_c, 0, 53, 68
1, 1067657, Note_on_c, 0, 68, 69
1, 1067661, Note_off_c, 0, 71, 63
1, 1067718, Note_on_c, 0, 70, 76
1, 1067722, Note_off_c, 0, 68, 64
1, 1067741, Note_on_c, 0, 64, 97
1, 1067764, Note_off_c, 0, 64, 67
1, 1067766, Note_on_c, 0, 67, 86
1, 1067766, Note_off_c, 0, 70, 60
1, 1067783, Note_on_c, 0, 62, 25
1, 1067784, Note_off_c, 0, 62, 127
1, 1067838, Note_off_c, 0, 67, 49
1, 1067854, Note_on_c, 0, 54, 81
1, 1067880, Note_on_c, 0, 71, 33
1, 1067883, Note_on_c, 0, 74, 82
1, 1067901, Note_on_c, 0, 53, 22
1, 1067902, Note_off_c, 0, 53, 127
1, 1067902, Note_off_c, 0, 54, 63
1, 1067912, Note_off_c, 0, 71, 34
1, 1067955, Note_on_c, 0, 69, 98
1, 1067962, Note_off_c, 0, 74, 62
1, 1067965, Note_on_c, 0, 63, 103
1, 1068004, Note_off_c, 0, 63, 69
1, 1068051, Note_off_c, 0, 69, 35
1, 1068068, Note_on_c, 0, 72, 74
1, 1068072, Note_on_c, 0, 53, 88
1, 1068084, Note_on_c, 0, 74, 47
1, 1068094, Note_off_c, 0, 53, 70
1, 1068106, Note_off_c, 0, 74, 40
1, 1068150, Note_on_c, 0, 68, 80
1, 1068163, Note_off_c, 0, 72, 56
1, 1068211, Note_on_c, 0, 79, 122
1, 1068215, Note_on_c, 0, 67, 100
1, 1068228, Control_c, 0, 64, 87
1, 1068229, Note_off_c, 0, 68, 61
1, 1068234, Note_off_c, 0, 79, 72
1, 1068243, Control_c, 0, 64, 127
1, 1068271, Note_off_c, 0, 67, 64
1, 1068294, Note_on_c, 0, 70, 83
1, 1068343, Note_off_c, 0, 70, 65
1, 1068354, Note_on_c, 0, 76, 78
1, 1068356, Note_on_c, 0, 74, 71
1, 1068418, Note_on_c, 0, 73, 83
1, 1068442, Note_off_c, 0, 76, 61
1, 1068445, Note_off_c, 0, 74, 60
1, 1068461, Note_on_c, 0, 69, 94
1, 1068480, Note_off_c, 0, 73, 64
1, 1068501, Control_c, 0, 64, 125
1, 1068516, Control_c, 0, 64, 85
1, 1068531, Control_c, 0, 64, 68
1, 1068534, Note_on_c, 0, 72, 90
1, 1068540, Note_off_c, 0, 69, 60
1, 1068545, Note_on_c, 0, 61, 84
1, 1068546, Note_on_c, 0, 63, 91
1, 1068546, Control_c, 0, 64, 53
1, 1068561, Control_c, 0, 64, 0
1, 1068584, Note_off_c, 0, 61, 56
1, 1068585, Note_off_c, 0, 63, 59
1, 1068601, Note_on_c, 0, 68, 88
1, 1068621, Note_on_c, 0, 62, 50
1, 1068624, Note_off_c, 0, 72, 60
1, 1068624, Note_on_c, 0, 60, 69
1, 1068656, Note_on_c, 0, 71, 79
1, 1068662, Note_off_c, 0, 60, 67
1, 1068665, Note_off_c, 0, 62, 64
1, 1068670, Note_off_c, 0, 68, 63
1, 1068715, Note_on_c, 0, 61, 91
1, 1068715, Note_on_c, 0, 63, 98
1, 1068717, Note_on_c, 0, 67, 97
1, 1068737, Note_off_c, 0, 71, 64
1, 1068782, Note_off_c, 0, 67, 60
1, 1068786, Note_on_c, 0, 70, 83
1, 1068836, Note_off_c, 0, 70, 65
1, 1068844, Note_on_c, 0, 66, 76
1, 1068892, Note_on_c, 0, 69, 81
1, 1068906, Note_off_c, 0, 66, 63
1, 1068960, Note_on_c, 0, 65, 82
1, 1068972, Note_off_c, 0, 69, 61
1, 1069007, Note_off_c, 0, 65, 65
1, 1069009, Note_on_c, 0, 68, 82
1, 1069065, Note_off_c, 0, 68, 61
1, 1069082, Note_on_c, 0, 64, 91
1, 1069130, Note_on_c, 0, 67, 83
1, 1069141, Note_off_c, 0, 64, 65
1, 1069202, Note_on_c, 0, 62, 93
1, 1069213, Note_off_c, 0, 67, 63
1, 1069263, Note_off_c, 0, 62, 64
1, 1069268, Note_on_c, 0, 65, 73
1, 1069305, Note_off_c, 0, 65, 61
1, 1069315, Note_on_c, 0, 60, 78
1, 1069355, Note_off_c, 0, 60, 59
1, 1069381, Note_on_c, 0, 64, 71
1, 1069390, Note_off_c, 0, 63, 57
1, 1069418, Note_off_c, 0, 64, 62
1, 1069434, Note_off_c, 0, 61, 59
1, 1069443, Note_on_c, 0, 59, 78
1, 1069491, Note_off_c, 0, 59, 47
1, 1069503, Note_on_c, 0, 62, 74
1, 1069532, Note_off_c, 0, 62, 63
1, 1069559, Note_on_c, 0, 57, 75
1, 1069613, Note_on_c, 0, 60, 78
1, 1069617, Note_off_c, 0, 57, 60
1, 1069663, Note_off_c, 0, 60, 64
1, 1069665, Note_on_c, 0, 56, 75
1, 1069724, Note_on_c, 0, 59, 77
1, 1069726, Note_off_c, 0, 56, 63
1, 1069756, Note_off_c, 0, 59, 67
1, 1069774, Note_on_c, 0, 55, 80
1, 1069812, Note_off_c, 0, 55, 63
1, 1069828, Note_on_c, 0, 58, 81
1, 1069861, Note_off_c, 0, 58, 64
1, 1069898, Note_on_c, 0, 54, 89
1, 1069926, Note_off_c, 0, 54, 68
1, 1069950, Note_on_c, 0, 57, 84
1, 1069983, Note_off_c, 0, 57, 67
1, 1070010, Note_on_c, 0, 53, 93
1, 1070039, Note_off_c, 0, 53, 64
1, 1070063, Note_on_c, 0, 56, 94
1, 1070104, Note_off_c, 0, 56, 65
1, 1070117, Note_on_c, 0, 52, 105
1, 1070147, Note_off_c, 0, 52, 69
1, 1070176, Note_on_c, 0, 55, 96
1, 1070214, Note_off_c, 0, 55, 64
1, 1070233, Note_on_c, 0, 51, 111
1, 1070260, Note_off_c, 0, 51, 68
1, 1070286, Note_on_c, 0, 54, 97
1, 1070324, Note_off_c, 0, 54, 63
1, 1070345, Note_on_c, 0, 50, 103
1, 1070378, Note_off_c, 0, 50, 68
1, 1070401, Note_on_c, 0, 53, 97
1, 1070443, Note_off_c, 0, 53, 65
1, 1070452, Note_on_c, 0, 49, 97
1, 1070479, Note_off_c, 0, 49, 66
1, 1070499, Note_on_c, 0, 52, 88
1, 1070546, Note_off_c, 0, 52, 66
1, 1070573, Note_on_c, 0, 51, 94
1, 1070579, Note_on_c, 0, 40, 88
1, 1070582, Note_on_c, 0, 45, 90
1, 1070603, Note_off_c, 0, 45, 71
1, 1070606, Note_off_c, 0, 51, 65
1, 1070607, Note_off_c, 0, 40, 67
1, 1070608, Control_c, 0, 64, 57
1, 1070623, Control_c, 0, 64, 100
1, 1070645, Control_c, 0, 64, 127
1, 1070646, Note_on_c, 0, 53, 97
1, 1070704, Note_off_c, 0, 53, 0
1, 1070713, Note_on_c, 0, 55, 70
1, 1070741, Poly_aftertouch_c, 0, 53, 127
1, 1070759, Poly_aftertouch_c, 0, 53, 0
1, 1070766, Note_on_c, 0, 56, 80
1, 1070771, Note_off_c, 0, 55, 63
1, 1070800, Note_off_c, 0, 56, 65
1, 1070823, Control_c, 0, 64, 112
1, 1070838, Control_c, 0, 64, 107
1, 1070844, Note_on_c, 0, 57, 88
1, 1070853, Control_c, 0, 64, 102
1, 1070868, Control_c, 0, 64, 94
1, 1070883, Control_c, 0, 64, 84
1, 1070897, Control_c, 0, 64, 79
1, 1070904, Note_off_c, 0, 57, 65
1, 1070907, Note_on_c, 0, 59, 76
1, 1070912, Control_c, 0, 64, 77
1, 1070927, Control_c, 0, 64, 75
1, 1070942, Control_c, 0, 64, 72
1, 1070947, Note_on_c, 0, 60, 70
1, 1070957, Control_c, 0, 64, 68
1, 1070967, Note_off_c, 0, 59, 64
1, 1070971, Control_c, 0, 64, 64
1, 1070986, Control_c, 0, 64, 61
1, 1071001, Control_c, 0, 64, 58
1, 1071014, Note_off_c, 0, 60, 65
1, 1071015, Note_on_c, 0, 62, 82
1, 1071015, Control_c, 0, 64, 54
1, 1071030, Control_c, 0, 64, 48
1, 1071045, Control_c, 0, 64, 38
1, 1071053, Note_on_c, 0, 63, 88
1, 1071060, Control_c, 0, 64, 25
1, 1071068, Note_off_c, 0, 62, 65
1, 1071075, Control_c, 0, 64, 15
1, 1071089, Control_c, 0, 64, 9
1, 1071104, Control_c, 0, 64, 0
1, 1071109, Note_on_c, 0, 65, 71
1, 1071132, Note_off_c, 0, 63, 61
1, 1071156, Note_on_c, 0, 67, 78
1, 1071185, Note_off_c, 0, 65, 64
1, 1071211, Note_on_c, 0, 68, 82
1, 1071231, Note_off_c, 0, 67, 64
1, 1071265, Note_off_c, 0, 68, 65
1, 1071281, Note_on_c, 0, 69, 83
1, 1071328, Note_on_c, 0, 71, 76
1, 1071340, Note_off_c, 0, 69, 60
1, 1071399, Note_on_c, 0, 72, 83
1, 1071402, Note_off_c, 0, 71, 65
1, 1071440, Note_off_c, 0, 72, 61
1, 1071443, Note_on_c, 0, 74, 84
1, 1071488, Note_off_c, 0, 74, 64
1, 1071500, Note_on_c, 0, 75, 93
1, 1071570, Note_on_c, 0, 74, 82
1, 1071575, Note_off_c, 0, 75, 64
1, 1071616, Note_off_c, 0, 74, 65
1, 1071629, Note_on_c, 0, 72, 70
1, 1071679, Note_on_c, 0, 74, 85
1, 1071690, Note_off_c, 0, 72, 63
1, 1071720, Control_c, 0, 64, 12
1, 1071735, Control_c, 0, 64, 18
1, 1071740, Note_off_c, 0, 74, 64
1, 1071743, Note_on_c, 0, 77, 86
1, 1071750, Control_c, 0, 64, 22
1, 1071765, Control_c, 0, 64, 23
1, 1071780, Control_c, 0, 64, 24
1, 1071794, Control_c, 0, 64, 24
1, 1071809, Note_on_c, 0, 74, 75
1, 1071819, Note_on_c, 0, 76, 45
1, 1071828, Note_off_c, 0, 77, 55
1, 1071845, Note_off_c, 0, 76, 36
1, 1071857, Note_on_c, 0, 72, 79
1, 1071858, Note_off_c, 0, 74, 65
1, 1071907, Note_off_c, 0, 72, 64
1, 1071912, Control_c, 0, 64, 24
1, 1071918, Note_on_c, 0, 67, 79
1, 1071927, Control_c, 0, 64, 23
1, 1071942, Control_c, 0, 64, 22
1, 1071957, Control_c, 0, 64, 22
1, 1071961, Note_off_c, 0, 67, 62
1, 1071971, Note_on_c, 0, 65, 73
1, 1071986, Control_c, 0, 64, 20
1, 1072001, Control_c, 0, 64, 14
1, 1072016, Control_c, 0, 64, 0
1, 1072017, Note_on_c, 0, 62, 64
1, 1072022, Note_off_c, 0, 65, 60
1, 1072063, Note_off_c, 0, 62, 62
1, 1072072, Note_on_c, 0, 60, 67
1, 1072141, Note_off_c, 0, 60, 63
1, 1072144, Note_on_c, 0, 62, 67
1, 1072171, Note_off_c, 0, 62, 66
1, 1072204, Note_on_c, 0, 63, 70
1, 1072259, Note_off_c, 0, 63, 63
1, 1072284, Note_on_c, 0, 61, 42
1, 1072302, Note_on_c, 0, 62, 46
1, 1072338, Note_off_c, 0, 62, 64
1, 1072338, Note_off_c, 0, 61, 56
1, 1072366, Note_on_c, 0, 63, 59
1, 1072397, Note_off_c, 0, 63, 64
1, 1072420, Note_on_c, 0, 59, 72
1, 1072424, Note_on_c, 0, 64, 72
1, 1072425, Note_on_c, 0, 43, 59
1, 1072432, Note_on_c, 0, 48, 62
1, 1072447, Note_off_c, 0, 59, 69
1, 1072454, Control_c, 0, 64, 57
1, 1072457, Note_off_c, 0, 43, 64
1, 1072457, Note_off_c, 0, 64, 62
1, 1072460, Note_off_c, 0, 48, 65
1, 1072469, Control_c, 0, 64, 91
1, 1072484, Control_c, 0, 64, 127
1, 1072493, Note_on_c, 0, 67, 70
1, 1072549, Note_off_c, 0, 67, 61
1, 1072559, Note_on_c, 0, 71, 59
1, 1072609, Note_on_c, 0, 70, 69
1, 1072616, Note_off_c, 0, 71, 60
1, 1072647, Control_c, 0, 64, 99
1, 1072661, Control_c, 0, 64, 77
1, 1072668, Note_off_c, 0, 70, 63
1, 1072673, Note_on_c, 0, 66, 75
1, 1072676, Control_c, 0, 64, 63
1, 1072681, Note_on_c, 0, 58, 58
1, 1072691, Control_c, 0, 64, 34
1, 1072698, Note_off_c, 0, 66, 69
1, 1072706, Control_c, 0, 64, 0
1, 1072738, Note_off_c, 0, 58, 61
1, 1072770, Note_on_c, 0, 61, 37
1, 1072774, Note_on_c, 0, 65, 61
1, 1072822, Note_off_c, 0, 61, 52
1, 1072825, Note_off_c, 0, 65, 56
1, 1072851, Note_on_c, 0, 64, 63
1, 1072900, Note_off_c, 0, 64, 65
1, 1072910, Note_on_c, 0, 62, 51
1, 1072915, Note_on_c, 0, 69, 72
1, 1072936, Note_off_c, 0, 62, 58
1, 1072959, Note_off_c, 0, 69, 58
1, 1072963, Note_on_c, 0, 72, 68
1, 1073023, Note_off_c, 0, 72, 65
1, 1073029, Note_on_c, 0, 76, 75
1, 1073085, Note_on_c, 0, 75, 77
1, 1073086, Note_off_c, 0, 76, 66
1, 1073133, Note_off_c, 0, 75, 65
1, 1073149, Note_on_c, 0, 62, 72
1, 1073153, Note_on_c, 0, 68, 88
1, 1073192, Note_off_c, 0, 68, 62
1, 1073208, Note_off_c, 0, 62, 61
1, 1073220, Note_on_c, 0, 65, 67
1, 1073262, Note_on_c, 0, 69, 67
1, 1073277, Note_off_c, 0, 65, 61
1, 1073316, Note_on_c, 0, 68, 71
1, 1073325, Note_off_c, 0, 69, 63
1, 1073373, Note_on_c, 0, 67, 73
1, 1073379, Note_on_c, 0, 77, 86
1, 1073402, Note_off_c, 0, 68, 62
1, 1073403, Note_off_c, 0, 67, 66
1, 1073433, Note_on_c, 0, 73, 78
1, 1073451, Note_off_c, 0, 77, 61
1, 1073488, Note_on_c, 0, 70, 77
1, 1073490, Note_off_c, 0, 73, 66
1, 1073524, Note_off_c, 0, 70, 65
1, 1073532, Note_on_c, 0, 71, 81
1, 1073579, Note_off_c, 0, 71, 65
1, 1073600, Note_on_c, 0, 78, 100
1, 1073602, Note_on_c, 0, 66, 77
1, 1073643, Note_off_c, 0, 78, 69
1, 1073678, Note_on_c, 0, 69, 76
1, 1073694, Note_off_c, 0, 66, 59
1, 1073715, Note_on_c, 0, 73, 79
1, 1073737, Note_off_c, 0, 69, 63
1, 1073754, Note_off_c, 0, 73, 66
1, 1073773, Note_on_c, 0, 72, 71
1, 1073834, Note_on_c, 0, 74, 94
1, 1073842, Note_off_c, 0, 72, 67
1, 1073854, Note_on_c, 0, 71, 69
1, 1073870, Note_off_c, 0, 71, 65
1, 1073906, Note_on_c, 0, 77, 91
1, 1073907, Control_c, 0, 64, 48
1, 1073922, Control_c, 0, 64, 52
1, 1073929, Note_off_c, 0, 74, 59
1, 1073937, Control_c, 0, 64, 51
1, 1073952, Control_c, 0, 64, 43
1, 1073959, Note_on_c, 0, 81, 80
1, 1073967, Control_c, 0, 64, 24
1, 1073972, Note_off_c, 0, 77, 64
1, 1073981, Control_c, 0, 64, 0
1, 1074007, Note_on_c, 0, 80, 85
1, 1074040, Note_on_c, 0, 70, 92
1, 1074043, Note_off_c, 0, 81, 65
1, 1074073, Note_on_c, 0, 76, 101
1, 1074096, Note_off_c, 0, 70, 64
1, 1074099, Note_off_c, 0, 80, 64
1, 1074109, Note_on_c, 0, 74, 79
1, 1074124, Note_off_c, 0, 76, 67
1, 1074132, Note_off_c, 0, 74, 70
1, 1074166, Note_on_c, 0, 77, 98
1, 1074217, Note_on_c, 0, 45, 88
1, 1074218, Note_on_c, 0, 53, 88
1, 1074225, Note_on_c, 0, 79, 84
1, 1074228, Note_off_c, 0, 77, 63
1, 1074246, Note_off_c, 0, 45, 64
1, 1074259, Note_off_c, 0, 79, 68
1, 1074284, Note_off_c, 0, 53, 65
1, 1074292, Note_on_c, 0, 60, 94
1, 1074293, Control_c, 0, 64, 82
1, 1074300, Note_on_c, 0, 81, 100
1, 1074307, Control_c, 0, 64, 127
1, 1074311, Note_off_c, 0, 60, 68
1, 1074368, Note_on_c, 0, 84, 97
1, 1074398, Note_off_c, 0, 81, 60
1, 1074430, Note_on_c, 0, 88, 85
1, 1074445, Note_off_c, 0, 84, 65
1, 1074481, Note_on_c, 0, 87, 90
1, 1074517, Note_off_c, 0, 88, 0
1, 1074540, Note_on_c, 0, 83, 97
1, 1074541, Note_on_c, 0, 77, 94
1, 1074547, Note_off_c, 0, 87, 61
1, 1074553, Poly_aftertouch_c, 0, 88, 0
1, 1074583, Note_off_c, 0, 83, 68
1, 1074597, Control_c, 0, 64, 98
1, 1074609, Note_on_c, 0, 79, 83
1, 1074612, Control_c, 0, 64, 77
1, 1074627, Control_c, 0, 64, 67
1, 1074642, Control_c, 0, 64, 61
1, 1074648, Note_on_c, 0, 80, 91
1, 1074656, Control_c, 0, 64, 54
1, 1074666, Note_off_c, 0, 77, 61
1, 1074671, Control_c, 0, 64, 49
1, 1074679, Note_off_c, 0, 79, 63
1, 1074686, Control_c, 0, 64, 45
1, 1074701, Control_c, 0, 64, 41
1, 1074716, Control_c, 0, 64, 41
1, 1074720, Note_on_c, 0, 84, 91
1, 1074730, Note_off_c, 0, 80, 65
1, 1074734, Note_off_c, 0, 84, 77
1, 1074775, Control_c, 0, 64, 41
1, 1074779, Note_on_c, 0, 75, 94
1, 1074834, Control_c, 0, 64, 41
1, 1074849, Note_on_c, 0, 78, 78
1, 1074877, Note_off_c, 0, 75, 61
1, 1074899, Note_on_c, 0, 82, 65
1, 1074946, Note_off_c, 0, 78, 61
1, 1074954, Note_on_c, 0, 81, 70
1, 1074984, Note_off_c, 0, 82, 60
1, 1074997, Control_c, 0, 64, 41
1, 1075000, Note_off_c, 0, 81, 64
1, 1075015, Note_on_c, 0, 62, 76
1, 1075020, Note_on_c, 0, 77, 85
1, 1075062, Note_on_c, 0, 63, 56
1, 1075083, Note_off_c, 0, 77, 61
1, 1075084, Note_off_c, 0, 62, 61
1, 1075086, Note_on_c, 0, 75, 74
1, 1075120, Note_on_c, 0, 65, 65
1, 1075146, Note_off_c, 0, 63, 61
1, 1075155, Note_on_c, 0, 74, 75
1, 1075162, Note_off_c, 0, 75, 61
1, 1075202, Note_off_c, 0, 74, 62
1, 1075202, Note_on_c, 0, 67, 59
1, 1075211, Note_on_c, 0, 72, 69
1, 1075211, Note_off_c, 0, 65, 61
1, 1075256, Control_c, 0, 64, 42
1, 1075266, Note_off_c, 0, 72, 57
1, 1075268, Note_off_c, 0, 67, 64
1, 1075271, Note_on_c, 0, 71, 84
1, 1075271, Control_c, 0, 64, 42
1, 1075271, Note_on_c, 0, 68, 83
1, 1075286, Control_c, 0, 64, 43
1, 1075294, Note_off_c, 0, 68, 69
1, 1075301, Control_c, 0, 64, 43
1, 1075325, Note_on_c, 0, 74, 67
1, 1075328, Note_off_c, 0, 71, 62
1, 1075382, Note_on_c, 0, 78, 76
1, 1075390, Control_c, 0, 64, 44
1, 1075398, Note_off_c, 0, 74, 63
1, 1075452, Note_on_c, 0, 77, 77
1, 1075455, Note_off_c, 0, 78, 65
1, 1075483, Note_off_c, 0, 77, 62
1, 1075494, Control_c, 0, 64, 44
1, 1075509, Control_c, 0, 64, 45
1, 1075515, Note_on_c, 0, 73, 80
1, 1075518, Note_on_c, 0, 67, 99
1, 1075524, Control_c, 0, 64, 45
1, 1075539, Control_c, 0, 64, 46
1, 1075545, Note_on_c, 0, 71, 56
1, 1075553, Control_c, 0, 64, 47
1, 1075566, Note_off_c, 0, 71, 40
1, 1075568, Note_off_c, 0, 73, 60
1, 1075568, Control_c, 0, 64, 47
1, 1075571, Note_on_c, 0, 76, 83
1, 1075574, Note_on_c, 0, 80, 104
1, 1075583, Control_c, 0, 64, 48
1, 1075589, Note_off_c, 0, 67, 64
1, 1075598, Control_c, 0, 64, 48
1, 1075623, Note_off_c, 0, 80, 68
1, 1075639, Note_on_c, 0, 73, 60
1, 1075671, Note_off_c, 0, 76, 59
1, 1075699, Note_on_c, 0, 72, 73
1, 1075716, Note_off_c, 0, 73, 59
1, 1075755, Note_off_c, 0, 72, 63
1, 1075756, Note_on_c, 0, 71, 78
1, 1075760, Control_c, 0, 64, 48
1, 1075777, Note_on_c, 0, 68, 98
1, 1075822, Note_on_c, 0, 74, 72
1, 1075831, Note_on_c, 0, 79, 99
1, 1075834, Note_off_c, 0, 71, 58
1, 1075841, Note_off_c, 0, 68, 67
1, 1075867, Note_off_c, 0, 79, 65
1, 1075906, Note_on_c, 0, 78, 72
1, 1075924, Note_off_c, 0, 74, 63
1, 1075957, Note_on_c, 0, 77, 79
1, 1075975, Note_off_c, 0, 78, 64
1, 1076004, Control_c, 0, 64, 47
1, 1076019, Control_c, 0, 64, 47
1, 1076025, Note_off_c, 0, 77, 62
1, 1076034, Note_on_c, 0, 73, 80
1, 1076039, Note_on_c, 0, 67, 87
1, 1076082, Note_off_c, 0, 67, 62
1, 1076091, Note_off_c, 0, 73, 64
1, 1076095, Note_on_c, 0, 80, 88
1, 1076103, Note_on_c, 0, 76, 75
1, 1076142, Note_off_c, 0, 80, 63
1, 1076169, Control_c, 0, 64, 47
1, 1076180, Note_on_c, 0, 74, 68
1, 1076197, Note_off_c, 0, 76, 60
1, 1076216, Note_on_c, 0, 72, 71
1, 1076225, Note_off_c, 0, 74, 59
1, 1076258, Control_c, 0, 64, 47
1, 1076273, Control_c, 0, 64, 46
1, 1076278, Note_off_c, 0, 72, 63
1, 1076281, Note_on_c, 0, 71, 77
1, 1076287, Control_c, 0, 64, 46
1, 1076291, Note_on_c, 0, 68, 84
1, 1076317, Control_c, 0, 64, 45
1, 1076347, Note_on_c, 0, 74, 76
1, 1076352, Note_off_c, 0, 68, 60
1, 1076368, Note_off_c, 0, 71, 53
1, 1076374, Note_on_c, 0, 79, 66
1, 1076389, Note_off_c, 0, 79, 67
1, 1076416, Note_on_c, 0, 78, 68
1, 1076421, Control_c, 0, 64, 45
1, 1076428, Note_off_c, 0, 74, 62
1, 1076436, Control_c, 0, 64, 44
1, 1076450, Control_c, 0, 64, 42
1, 1076454, Note_on_c, 0, 77, 71
1, 1076465, Control_c, 0, 64, 28
1, 1076480, Control_c, 0, 64, 0
1, 1076490, Note_off_c, 0, 78, 64
1, 1076494, Note_on_c, 0, 67, 78
1, 1076523, Note_on_c, 0, 73, 93
1, 1076523, Note_off_c, 0, 67, 65
1, 1076544, Note_off_c, 0, 73, 69
1, 1076552, Note_off_c, 0, 77, 65
1, 1076553, Control_c, 0, 64, 50
1, 1076568, Control_c, 0, 64, 84
1, 1076583, Control_c, 0, 64, 127
1, 1076642, Note_on_c, 0, 90, 108
1, 1076643, Note_on_c, 0, 58, 98
1, 1076644, Note_on_c, 0, 92, 101
1, 1076645, Note_on_c, 0, 56, 93
1, 1076678, Note_off_c, 0, 58, 64
1, 1076680, Note_off_c, 0, 56, 62
1, 1076680, Note_off_c, 0, 90, 64
1, 1076700, Note_off_c, 0, 92, 0
1, 1076701, Note_on_c, 0, 91, 83
1, 1076714, Note_on_c, 0, 89, 85
1, 1076717, Note_on_c, 0, 57, 84
1, 1076721, Poly_aftertouch_c, 0, 92, 0
1, 1076728, Note_on_c, 0, 55, 54
1, 1076734, Note_off_c, 0, 89, 71
1, 1076749, Note_off_c, 0, 91, 63
1, 1076753, Control_c, 0, 64, 93
1, 1076768, Control_c, 0, 64, 56
1, 1076770, Note_on_c, 0, 90, 100
1, 1076770, Note_on_c, 0, 92, 100
1, 1076772, Note_off_c, 0, 57, 0
1, 1076773, Note_on_c, 0, 53, 38
1, 1076773, Note_on_c, 0, 54, 93
1, 1076782, Control_c, 0, 64, 0
1, 1076795, Note_on_c, 0, 56, 46
1, 1076798, Poly_aftertouch_c, 0, 57, 0
1, 1076803, Note_off_c, 0, 92, 69
1, 1076808, Note_off_c, 0, 54, 66
1, 1076809, Note_off_c, 0, 53, 37
1, 1076812, Control_c, 0, 64, 53
1, 1076819, Note_off_c, 0, 90, 64
1, 1076822, Note_off_c, 0, 56, 36
1, 1076827, Control_c, 0, 64, 83
1, 1076840, Note_off_c, 0, 55, 29
1, 1076842, Control_c, 0, 64, 127
1, 1076924, Note_on_c, 0, 55, 87
1, 1076931, Control_c, 0, 64, 71
1, 1076934, Note_on_c, 0, 59, 103
1, 1076945, Note_on_c, 0, 53, 49
1, 1076946, Note_off_c, 0, 55, 72
1, 1076946, Control_c, 0, 64, 0
1, 1076949, Note_off_c, 0, 59, 76
1, 1076955, Note_on_c, 0, 57, 69
1, 1076974, Note_off_c, 0, 57, 45
1, 1076976, Note_off_c, 0, 53, 34
1, 1077062, Note_on_c, 0, 59, 107
1, 1077063, Note_on_c, 0, 45, 93
1, 1077079, Note_off_c, 0, 59, 71
1, 1077085, Note_off_c, 0, 45, 68
1, 1077192, Note_on_c, 0, 59, 108
1, 1077197, Note_on_c, 0, 54, 84
1, 1077208, Note_off_c, 0, 59, 72
1, 1077219, Note_off_c, 0, 54, 68
1, 1077333, Note_on_c, 0, 59, 105
1, 1077339, Note_on_c, 0, 38, 87
1, 1077358, Note_off_c, 0, 59, 67
1, 1077361, Note_off_c, 0, 38, 67
1, 1077361, Control_c, 0, 64, 69
1, 1077384, Control_c, 0, 64, 127
1, 1077500, Note_on_c, 0, 78, 80
1, 1077555, Note_off_c, 0, 78, 64
1, 1077560, Note_on_c, 0, 77, 85
1, 1077605, Control_c, 0, 64, 98
1, 1077620, Control_c, 0, 64, 66
1, 1077622, Note_on_c, 0, 67, 95
1, 1077632, Note_off_c, 0, 77, 61
1, 1077635, Control_c, 0, 64, 0
1, 1077637, Note_on_c, 0, 73, 83
1, 1077655, Note_off_c, 0, 67, 63
1, 1077690, Note_off_c, 0, 73, 64
1, 1077694, Note_on_c, 0, 76, 81
1, 1077761, Note_on_c, 0, 57, 73
1, 1077771, Note_on_c, 0, 73, 69
1, 1077775, Note_off_c, 0, 76, 62
1, 1077789, Note_off_c, 0, 57, 65
1, 1077830, Note_off_c, 0, 73, 64
1, 1077838, Note_on_c, 0, 72, 63
1, 1077870, Note_off_c, 0, 72, 64
1, 1077889, Note_on_c, 0, 71, 72
1, 1077932, Note_off_c, 0, 71, 54
1, 1077949, Note_on_c, 0, 74, 73
1, 1078008, Note_off_c, 0, 74, 63
1, 1078012, Note_on_c, 0, 58, 67
1, 1078022, Note_on_c, 0, 78, 75
1, 1078031, Note_off_c, 0, 58, 64
1, 1078076, Note_on_c, 0, 77, 67
1, 1078102, Note_off_c, 0, 78, 53
1, 1078134, Note_on_c, 0, 73, 76
1, 1078139, Note_on_c, 0, 67, 93
1, 1078151, Note_off_c, 0, 77, 59
1, 1078167, Note_off_c, 0, 67, 66
1, 1078186, Note_on_c, 0, 76, 73
1, 1078203, Note_off_c, 0, 73, 57
1, 1078209, Note_on_c, 0, 80, 39
1, 1078235, Note_off_c, 0, 80, 54
1, 1078264, Note_on_c, 0, 81, 62
1, 1078265, Note_off_c, 0, 76, 62
1, 1078276, Note_on_c, 0, 57, 68
1, 1078302, Note_on_c, 0, 85, 72
1, 1078303, Note_off_c, 0, 81, 59
1, 1078304, Note_off_c, 0, 57, 65
1, 1078341, Note_off_c, 0, 85, 61
1, 1078384, Note_on_c, 0, 78, 71
1, 1078444, Note_off_c, 0, 78, 61
1, 1078450, Note_on_c, 0, 84, 67
1, 1078497, Note_off_c, 0, 84, 64
1, 1078499, Note_on_c, 0, 58, 71
1, 1078505, Note_on_c, 0, 88, 75
1, 1078532, Note_off_c, 0, 58, 65
1, 1078572, Note_on_c, 0, 87, 83
1, 1078588, Note_off_c, 0, 88, 62
1, 1078627, Note_on_c, 0, 63, 95
1, 1078631, Note_on_c, 0, 79, 82
1, 1078643, Note_off_c, 0, 87, 65
1, 1078666, Note_off_c, 0, 63, 62
1, 1078667, Note_off_c, 0, 79, 67
1, 1078711, Note_on_c, 0, 85, 73
1, 1078732, Note_on_c, 0, 86, 59
1, 1078740, Note_off_c, 0, 85, 57
1, 1078741, Note_on_c, 0, 91, 46
1, 1078750, Note_on_c, 0, 89, 55
1, 1078751, Note_on_c, 0, 67, 96
1, 1078751, Note_off_c, 0, 86, 40
1, 1078777, Note_off_c, 0, 67, 66
1, 1078793, Note_on_c, 0, 88, 89
1, 1078827, Note_off_c, 0, 91, 65
1, 1078878, Note_on_c, 0, 82, 83
1, 1078882, Note_on_c, 0, 80, 75
1, 1078883, Note_on_c, 0, 71, 110
1, 1078887, Note_off_c, 0, 88, 63
1, 1078891, Note_off_c, 0, 89, 64
1, 1078892, Note_off_c, 0, 82, 68
1, 1078904, Note_off_c, 0, 80, 71
1, 1078905, Note_on_c, 0, 81, 37
1, 1078911, Note_off_c, 0, 71, 72
1, 1078930, Note_off_c, 0, 81, 53
1, 1078939, Note_on_c, 0, 87, 66
1, 1078944, Note_on_c, 0, 86, 97
1, 1078958, Note_off_c, 0, 87, 61
1, 1078995, Note_off_c, 0, 86, 64
1, 1079005, Note_on_c, 0, 74, 99
1, 1079006, Note_on_c, 0, 89, 95
1, 1079018, Note_on_c, 0, 76, 72
1, 1079019, Note_off_c, 0, 76, 127
1, 1079045, Note_off_c, 0, 74, 68
1, 1079131, Note_on_c, 0, 77, 96
1, 1079134, Note_on_c, 0, 85, 101
1, 1079150, Note_off_c, 0, 77, 71
1, 1079161, Note_off_c, 0, 89, 65
1, 1079176, Control_c, 0, 64, 70
1, 1079191, Note_off_c, 0, 85, 67
1, 1079191, Control_c, 0, 64, 127
1, 1079266, Note_on_c, 0, 90, 97
1, 1079268, Note_on_c, 0, 56, 92
1, 1079274, Note_on_c, 0, 92, 87
1, 1079281, Note_on_c, 0, 91, 80
1, 1079287, Note_on_c, 0, 54, 64
1, 1079291, Note_on_c, 0, 93, 67
1, 1079293, Note_off_c, 0, 91, 70
1, 1079300, Note_on_c, 0, 53, 62
1, 1079304, Note_off_c, 0, 56, 61
1, 1079305, Note_off_c, 0, 92, 55
1, 1079310, Note_off_c, 0, 54, 62
1, 1079310, Note_off_c, 0, 90, 61
1, 1079322, Note_on_c, 0, 55, 62
1, 1079331, Note_on_c, 0, 89, 71
1, 1079352, Note_off_c, 0, 93, 66
1, 1079356, Note_off_c, 0, 89, 67
1, 1079374, Note_on_c, 0, 54, 92
1, 1079379, Note_on_c, 0, 56, 99
1, 1079385, Note_on_c, 0, 93, 78
1, 1079387, Note_on_c, 0, 91, 90
1, 1079388, Note_on_c, 0, 92, 92
1, 1079390, Note_off_c, 0, 55, 62
1, 1079394, Note_on_c, 0, 90, 78
1, 1079403, Note_off_c, 0, 53, 65
1, 1079408, Note_off_c, 0, 56, 68
1, 1079408, Note_off_c, 0, 90, 65
1, 1079413, Note_on_c, 0, 89, 49
1, 1079414, Note_off_c, 0, 89, 127
1, 1079414, Note_off_c, 0, 54, 68
1, 1079414, Control_c, 0, 64, 85
1, 1079420, Note_off_c, 0, 91, 67
1, 1079423, Note_off_c, 0, 93, 68
1, 1079429, Control_c, 0, 64, 47
1, 1079441, Note_off_c, 0, 92, 61
1, 1079444, Control_c, 0, 64, 0
1, 1079519, Note_on_c, 0, 56, 90
1, 1079525, Note_on_c, 0, 54, 79
1, 1079528, Note_on_c, 0, 90, 84
1, 1079530, Note_on_c, 0, 92, 98
1, 1079544, Note_off_c, 0, 56, 68
1, 1079545, Note_on_c, 0, 91, 66
1, 1079547, Note_off_c, 0, 92, 71
1, 1079549, Note_off_c, 0, 90, 70
1, 1079550, Note_off_c, 0, 54, 70
1, 1079560, Note_off_c, 0, 91, 64
1, 1079561, Note_on_c, 0, 93, 42
1, 1079587, Note_off_c, 0, 93, 42
1, 1079644, Note_on_c, 0, 54, 81
1, 1079654, Note_on_c, 0, 56, 82
1, 1079656, Note_on_c, 0, 92, 100
1, 1079658, Note_on_c, 0, 90, 89
1, 1079682, Note_off_c, 0, 56, 66
1, 1079684, Note_on_c, 0, 91, 72
1, 1079689, Note_off_c, 0, 90, 66
1, 1079698, Note_on_c, 0, 89, 78
1, 1079700, Note_on_c, 0, 53, 62
1, 1079703, Note_off_c, 0, 92, 66
1, 1079706, Note_on_c, 0, 55, 78
1, 1079715, Note_off_c, 0, 54, 51
1, 1079745, Note_off_c, 0, 89, 64
1, 1079761, Note_off_c, 0, 91, 0
1, 1079769, Note_on_c, 0, 54, 78
1, 1079772, Note_on_c, 0, 56, 88
1, 1079772, Note_on_c, 0, 90, 101
1, 1079774, Note_on_c, 0, 92, 108
1, 1079781, Note_off_c, 0, 55, 63
1, 1079782, Poly_aftertouch_c, 0, 91, 0
1, 1079784, Note_off_c, 0, 53, 64
1, 1079793, Note_off_c, 0, 56, 71
1, 1079796, Note_off_c, 0, 54, 70
1, 1079811, Note_off_c, 0, 90, 66
1, 1079814, Note_off_c, 0, 92, 67
1, 1079911, Control_c, 0, 64, 68
1, 1079917, Note_on_c, 0, 56, 101
1, 1079918, Note_on_c, 0, 92, 113
1, 1079919, Note_on_c, 0, 54, 96
1, 1079921, Note_on_c, 0, 90, 88
1, 1079924, Note_on_c, 0, 91, 100
1, 1079925, Control_c, 0, 64, 127
1, 1079931, Note_on_c, 0, 93, 80
1, 1079937, Note_off_c, 0, 90, 71
1, 1079939, Note_off_c, 0, 91, 74
1, 1079944, Note_off_c, 0, 93, 74
1, 1079948, Note_off_c, 0, 54, 64
1, 1079949, Note_off_c, 0, 92, 68
1, 1079950, Note_off_c, 0, 56, 69
1, 1080037, Note_on_c, 0, 56, 81
1, 1080051, Note_on_c, 0, 90, 90
1, 1080052, Note_on_c, 0, 92, 95
1, 1080057, Note_on_c, 0, 54, 60
1, 1080071, Note_on_c, 0, 53, 58
1, 1080080, Note_off_c, 0, 54, 66
1, 1080080, Note_off_c, 0, 56, 49
1, 1080086, Note_on_c, 0, 91, 69
1, 1080094, Note_off_c, 0, 90, 66
1, 1080101, Note_on_c, 0, 89, 77
1, 1080104, Note_on_c, 0, 55, 83
1, 1080104, Note_off_c, 0, 92, 66
1, 1080133, Note_off_c, 0, 89, 62
1, 1080134, Control_c, 0, 64, 105
1, 1080148, Note_on_c, 0, 56, 97
1, 1080148, Control_c, 0, 64, 67
1, 1080156, Note_on_c, 0, 89, 69
1, 1080157, Note_on_c, 0, 92, 103
1, 1080159, Note_off_c, 0, 55, 64
1, 1080160, Note_on_c, 0, 90, 96
1, 1080163, Control_c, 0, 64, 0
1, 1080166, Note_off_c, 0, 53, 64
1, 1080169, Note_off_c, 0, 91, 56
1, 1080175, Note_off_c, 0, 89, 64
1, 1080177, Note_off_c, 0, 56, 64
1, 1080197, Note_off_c, 0, 90, 64
1, 1080201, Note_off_c, 0, 92, 67
1, 1080300, Note_on_c, 0, 61, 104
1, 1080300, Note_on_c, 0, 92, 111
1, 1080303, Note_on_c, 0, 82, 108
1, 1080308, Note_on_c, 0, 65, 85
1, 1080309, Note_on_c, 0, 64, 83
1, 1080320, Note_off_c, 0, 61, 66
1, 1080324, Note_off_c, 0, 82, 70
1, 1080327, Note_off_c, 0, 65, 70
1, 1080330, Note_off_c, 0, 64, 71
1, 1080333, Note_on_c, 0, 90, 40
1, 1080334, Note_off_c, 0, 90, 127
1, 1080336, Note_off_c, 0, 92, 67
1, 1080482, Note_on_c, 0, 80, 107
1, 1080485, Note_on_c, 0, 78, 102
1, 1080488, Note_on_c, 0, 72, 88
1, 1080490, Note_on_c, 0, 62, 88
1, 1080494, Note_on_c, 0, 71, 83
1, 1080496, Control_c, 0, 64, 62
1, 1080502, Note_off_c, 0, 78, 72
1, 1080505, Note_off_c, 0, 72, 74
1, 1080508, Note_off_c, 0, 62, 72
1, 1080511, Note_off_c, 0, 80, 62
1, 1080511, Control_c, 0, 64, 127
1, 1080514, Note_off_c, 0, 71, 71
1, 1080656, Note_on_c, 0, 59, 115
1, 1080668, Note_on_c, 0, 53, 80
1, 1080675, Note_on_c, 0, 55, 76
1, 1080679, Note_off_c, 0, 59, 71
1, 1080689, Control_c, 0, 64, 91
1, 1080693, Note_off_c, 0, 55, 65
1, 1080694, Note_off_c, 0, 53, 68
1, 1080704, Control_c, 0, 64, 63
1, 1080719, Control_c, 0, 64, 0
1, 1080800, Note_on_c, 0, 38, 90
1, 1080800, Note_on_c, 0, 59, 116
1, 1080821, Note_off_c, 0, 59, 67
1, 1080821, Note_off_c, 0, 38, 68
1, 1080932, Note_on_c, 0, 59, 110
1, 1080938, Note_on_c, 0, 54, 78
1, 1080950, Note_off_c, 0, 59, 68
1, 1080963, Note_on_c, 0, 44, 34
1, 1080964, Note_off_c, 0, 44, 127
1, 1080966, Note_off_c, 0, 54, 69
1, 1081075, Note_on_c, 0, 45, 85
1, 1081078, Note_on_c, 0, 59, 106
1, 1081083, Note_on_c, 0, 57, 90
1, 1081090, Control_c, 0, 64, 60
1, 1081094, Note_off_c, 0, 59, 74
1, 1081099, Note_off_c, 0, 45, 69
1, 1081100, Note_off_c, 0, 57, 73
1, 1081105, Control_c, 0, 64, 127
1, 1081217, Control_c, 0, 64, 78
1, 1081232, Control_c, 0, 64, 63
1, 1081246, Control_c, 0, 64, 41
1, 1081261, Control_c, 0, 64, 0
1, 1081330, Note_on_c, 0, 49, 74
1, 1081365, Note_off_c, 0, 49, 67
1, 1081374, Note_on_c, 0, 41, 71
1, 1081378, Note_on_c, 0, 50, 83
1, 1081401, Note_off_c, 0, 41, 66
1, 1081404, Note_off_c, 0, 50, 69
1, 1081409, Control_c, 0, 64, 59
1, 1081424, Control_c, 0, 64, 98
1, 1081439, Control_c, 0, 64, 127
1, 1081468, Control_c, 0, 64, 85
1, 1081483, Control_c, 0, 64, 68
1, 1081498, Control_c, 0, 64, 42
1, 1081513, Control_c, 0, 64, 0
1, 1081574, Note_on_c, 0, 52, 70
1, 1081601, Note_off_c, 0, 52, 67
1, 1081641, Note_on_c, 0, 53, 93
1, 1081643, Note_on_c, 0, 58, 98
1, 1081651, Note_on_c, 0, 44, 76
1, 1081654, Note_on_c, 0, 47, 68
1, 1081659, Note_on_c, 0, 48, 71
1, 1081676, Control_c, 0, 64, 43
1, 1081691, Control_c, 0, 64, 127
1, 1081715, Note_on_c, 0, 60, 85
1, 1081718, Note_off_c, 0, 47, 57
1, 1081719, Note_off_c, 0, 44, 63
1, 1081726, Note_off_c, 0, 48, 37
1, 1081741, Note_off_c, 0, 58, 61
1, 1081767, Note_off_c, 0, 53, 63
1, 1081778, Note_on_c, 0, 62, 78
1, 1081802, Note_off_c, 0, 60, 65
1, 1081844, Note_on_c, 0, 63, 76
1, 1081853, Note_off_c, 0, 62, 66
1, 1081889, Note_off_c, 0, 63, 61
1, 1081928, Note_on_c, 0, 64, 75
1, 1081981, Control_c, 0, 64, 117
1, 1081983, Note_on_c, 0, 66, 74
1, 1081995, Control_c, 0, 64, 108
1, 1082005, Note_off_c, 0, 64, 57
1, 1082010, Control_c, 0, 64, 104
1, 1082025, Control_c, 0, 64, 101
1, 1082040, Note_on_c, 0, 67, 77
1, 1082040, Control_c, 0, 64, 98
1, 1082055, Control_c, 0, 64, 92
1, 1082061, Note_off_c, 0, 66, 62
1, 1082069, Control_c, 0, 64, 88
1, 1082084, Control_c, 0, 64, 87
1, 1082088, Note_on_c, 0, 69, 68
1, 1082099, Control_c, 0, 64, 85
1, 1082106, Note_off_c, 0, 67, 61
1, 1082114, Control_c, 0, 64, 82
1, 1082128, Control_c, 0, 64, 78
1, 1082143, Control_c, 0, 64, 73
1, 1082158, Control_c, 0, 64, 69
1, 1082166, Note_on_c, 0, 70, 77
1, 1082173, Control_c, 0, 64, 66
1, 1082188, Control_c, 0, 64, 63
1, 1082196, Note_off_c, 0, 69, 50
1, 1082202, Control_c, 0, 64, 61
1, 1082217, Control_c, 0, 64, 60
1, 1082228, Note_on_c, 0, 72, 70
1, 1082232, Control_c, 0, 64, 58
1, 1082247, Control_c, 0, 64, 57
1, 1082259, Note_off_c, 0, 70, 62
1, 1082262, Control_c, 0, 64, 56
1, 1082276, Control_c, 0, 64, 53
1, 1082282, Note_on_c, 0, 74, 75
1, 1082291, Control_c, 0, 64, 50
1, 1082306, Control_c, 0, 64, 49
1, 1082309, Note_off_c, 0, 72, 64
1, 1082321, Control_c, 0, 64, 48
1, 1082336, Control_c, 0, 64, 47
1, 1082343, Note_on_c, 0, 75, 78
1, 1082351, Control_c, 0, 64, 46
1, 1082363, Note_off_c, 0, 74, 63
1, 1082366, Control_c, 0, 64, 45
1, 1082380, Control_c, 0, 64, 44
1, 1082404, Note_off_c, 0, 75, 64
1, 1082406, Note_on_c, 0, 76, 80
1, 1082478, Note_on_c, 0, 77, 76
1, 1082485, Note_on_c, 0, 78, 38
1, 1082492, Note_off_c, 0, 76, 60
1, 1082511, Note_on_c, 0, 79, 83
1, 1082529, Control_c, 0, 64, 45
1, 1082530, Note_off_c, 0, 77, 65
1, 1082532, Note_off_c, 0, 78, 44
1, 1082559, Control_c, 0, 64, 45
1, 1082572, Note_on_c, 0, 81, 82
1, 1082574, Note_off_c, 0, 79, 65
1, 1082574, Control_c, 0, 64, 46
1, 1082589, Control_c, 0, 64, 46
1, 1082604, Control_c, 0, 64, 47
1, 1082625, Control_c, 0, 64, 48
1, 1082640, Note_on_c, 0, 82, 88
1, 1082640, Note_off_c, 0, 81, 67
1, 1082702, Note_on_c, 0, 84, 83
1, 1082731, Note_off_c, 0, 82, 64
1, 1082744, Control_c, 0, 64, 48
1, 1082758, Note_on_c, 0, 86, 79
1, 1082781, Note_off_c, 0, 84, 66
1, 1082814, Note_on_c, 0, 87, 85
1, 1082833, Control_c, 0, 64, 49
1, 1082834, Note_off_c, 0, 86, 65
1, 1082848, Control_c, 0, 64, 49
1, 1082863, Control_c, 0, 64, 50
1, 1082872, Note_off_c, 0, 87, 65
1, 1082872, Note_on_c, 0, 88, 75
1, 1082892, Control_c, 0, 64, 50
1, 1082920, Note_on_c, 0, 90, 77
1, 1082947, Note_off_c, 0, 88, 63
1, 1082973, Note_on_c, 0, 91, 79
1, 1083000, Note_off_c, 0, 90, 64
1, 1083024, Note_on_c, 0, 93, 74
1, 1083029, Note_off_c, 0, 91, 65
1, 1083040, Control_c, 0, 64, 51
1, 1083066, Note_off_c, 0, 93, 67
1, 1083084, Control_c, 0, 64, 51
1, 1083085, Note_on_c, 0, 92, 90
1, 1083087, Note_on_c, 0, 90, 81
1, 1083119, Note_off_c, 0, 90, 58
1, 1083120, Note_off_c, 0, 92, 64
1, 1083135, Note_on_c, 0, 91, 78
1, 1083137, Note_on_c, 0, 93, 77
1, 1083173, Control_c, 0, 64, 51
1, 1083181, Note_off_c, 0, 93, 65
1, 1083185, Note_off_c, 0, 91, 64
1, 1083210, Note_on_c, 0, 92, 94
1, 1083211, Note_on_c, 0, 90, 86
1, 1083236, Note_off_c, 0, 90, 62
1, 1083247, Note_off_c, 0, 92, 65
1, 1083260, Note_on_c, 0, 93, 94
1, 1083263, Note_on_c, 0, 91, 82
1, 1083307, Note_off_c, 0, 93, 67
1, 1083313, Note_off_c, 0, 91, 63
1, 1083331, Note_on_c, 0, 99, 121
1, 1083333, Note_on_c, 0, 90, 107
1, 1083369, Note_off_c, 0, 90, 65
1, 1083376, Note_off_c, 0, 99, 65
1, 1083400, Note_on_c, 0, 93, 103
1, 1083404, Note_on_c, 0, 91, 93
1, 1083434, Control_c, 0, 64, 51
1, 1083443, Note_off_c, 0, 93, 68
1, 1083451, Note_off_c, 0, 91, 65
1, 1083458, Note_on_c, 0, 92, 116
1, 1083461, Note_on_c, 0, 90, 98
1, 1083477, Note_off_c, 0, 90, 68
1, 1083492, Note_off_c, 0, 92, 67
1, 1083525, Note_on_c, 0, 93, 110
1, 1083530, Note_on_c, 0, 91, 95
1, 1083566, Note_off_c, 0, 93, 68
1, 1083569, Note_off_c, 0, 91, 65
1, 1083577, Note_on_c, 0, 99, 117
1, 1083578, Note_on_c, 0, 90, 113
1, 1083582, Control_c, 0, 64, 52
1, 1083601, Note_on_c, 0, 92, 58
1, 1083602, Note_off_c, 0, 92, 127
1, 1083604, Note_off_c, 0, 90, 68
1, 1083609, Note_off_c, 0, 99, 62
1, 1083642, Note_on_c, 0, 93, 107
1, 1083645, Note_on_c, 0, 91, 101
1, 1083681, Note_off_c, 0, 93, 69
1, 1083688, Note_off_c, 0, 91, 66
1, 1083695, Note_on_c, 0, 92, 104
1, 1083698, Note_on_c, 0, 90, 106
1, 1083713, Note_off_c, 0, 90, 68
1, 1083725, Note_on_c, 0, 89, 56
1, 1083726, Note_off_c, 0, 89, 127
1, 1083728, Note_off_c, 0, 92, 67
1, 1083758, Note_on_c, 0, 93, 105
1, 1083763, Note_on_c, 0, 91, 95
1, 1083799, Note_off_c, 0, 93, 68
1, 1083806, Note_off_c, 0, 91, 65
1, 1083811, Note_on_c, 0, 90, 113
1, 1083811, Note_on_c, 0, 92, 118
1, 1083841, Note_off_c, 0, 90, 59
1, 1083844, Note_off_c, 0, 92, 64
1, 1083877, Note_on_c, 0, 93, 100
1, 1083878, Note_on_c, 0, 91, 99
1, 1083916, Note_off_c, 0, 93, 68
1, 1083919, Note_off_c, 0, 91, 66
1, 1083920, Note_on_c, 0, 90, 109
1, 1083922, Note_on_c, 0, 92, 116
1, 1083922, Control_c, 0, 64, 52
1, 1083955, Note_off_c, 0, 90, 61
1, 1083960, Note_off_c, 0, 92, 66
1, 1083966, Control_c, 0, 64, 54
1, 1083976, Note_on_c, 0, 93, 105
1, 1083979, Note_on_c, 0, 91, 100
1, 1083981, Control_c, 0, 64, 56
1, 1083996, Control_c, 0, 64, 58
1, 1084011, Control_c, 0, 64, 59
1, 1084026, Control_c, 0, 64, 59
1, 1084032, Note_off_c, 0, 93, 68
1, 1084038, Note_on_c, 0, 99, 122
1, 1084040, Note_off_c, 0, 91, 65
1, 1084041, Control_c, 0, 64, 58
1, 1084041, Note_on_c, 0, 90, 117
1, 1084056, Control_c, 0, 64, 56
1, 1084067, Note_on_c, 0, 97, 53
1, 1084068, Note_off_c, 0, 97, 127
1, 1084071, Control_c, 0, 64, 54
1, 1084085, Control_c, 0, 64, 52
1, 1084100, Control_c, 0, 64, 48
1, 1084124, Control_c, 0, 64, 46
1, 1084150, Note_off_c, 0, 90, 61
1, 1084154, Note_off_c, 0, 99, 62
1, 1084168, Control_c, 0, 64, 47
1, 1084212, Control_c, 0, 64, 46
1, 1084227, Control_c, 0, 64, 44
1, 1084242, Control_c, 0, 64, 40
1, 1084257, Control_c, 0, 64, 34
1, 1084271, Control_c, 0, 64, 28
1, 1084286, Control_c, 0, 64, 26
1, 1084317, Note_on_c, 0, 80, 98
1, 1084321, Note_on_c, 0, 78, 91
1, 1084330, Control_c, 0, 64, 27
1, 1084345, Control_c, 0, 64, 29
1, 1084360, Control_c, 0, 64, 31
1, 1084375, Control_c, 0, 64, 35
1, 1084390, Control_c, 0, 64, 40
1, 1084404, Control_c, 0, 64, 43
1, 1084419, Control_c, 0, 64, 45
1, 1084422, Note_off_c, 0, 80, 64
1, 1084429, Note_off_c, 0, 78, 62
1, 1084434, Control_c, 0, 64, 46
1, 1084449, Control_c, 0, 64, 46
1, 1084494, Control_c, 0, 64, 44
1, 1084509, Control_c, 0, 64, 41
1, 1084523, Control_c, 0, 64, 33
1, 1084538, Control_c, 0, 64, 15
1, 1084553, Control_c, 0, 64, 0
1, 1084591, Note_on_c, 0, 65, 80
1, 1084595, Note_on_c, 0, 59, 78
1, 1084704, Note_off_c, 0, 59, 63
1, 1084728, Note_off_c, 0, 65, 65
1, 1084840, Note_on_c, 0, 38, 62
1, 1084841, Note_on_c, 0, 35, 58
1, 1084944, Note_off_c, 0, 35, 54
1, 1084946, Note_off_c, 0, 38, 57
1, 1085015, Note_on_c, 0, 93, 56
1, 1085047, Note_on_c, 0, 92, 73
1, 1085049, Note_off_c, 0, 93, 66
1, 1085074, Note_off_c, 0, 92, 69
1, 1085099, Note_on_c, 0, 40, 59
1, 1085099, Note_on_c, 0, 93, 98
1, 1085106, Note_on_c, 0, 36, 57
1, 1085125, Control_c, 0, 64, 71
1, 1085139, Control_c, 0, 64, 127
1, 1085142, Note_off_c, 0, 36, 61
1, 1085144, Note_off_c, 0, 40, 58
1, 1085150, Note_off_c, 0, 93, 66
1, 1085242, Note_on_c, 0, 93, 73
1, 1085265, Note_off_c, 0, 93, 71
1, 1085364, Note_on_c, 0, 93, 69
1, 1085394, Note_off_c, 0, 93, 66
1, 1085483, Note_on_c, 0, 69, 57
1, 1085484, Note_on_c, 0, 60, 51
1, 1085487, Note_on_c, 0, 93, 70
1, 1085490, Note_on_c, 0, 64, 53
1, 1085495, Control_c, 0, 64, 114
1, 1085510, Control_c, 0, 64, 103
1, 1085517, Note_off_c, 0, 93, 66
1, 1085521, Note_off_c, 0, 69, 61
1, 1085525, Control_c, 0, 64, 95
1, 1085528, Note_off_c, 0, 60, 61
1, 1085528, Note_off_c, 0, 64, 65
1, 1085539, Control_c, 0, 64, 89
1, 1085554, Control_c, 0, 64, 82
1, 1085569, Control_c, 0, 64, 75
1, 1085584, Control_c, 0, 64, 68
1, 1085599, Control_c, 0, 64, 62
1, 1085621, Control_c, 0, 64, 54
1, 1085624, Note_on_c, 0, 64, 60
1, 1085624, Note_on_c, 0, 93, 85
1, 1085634, Note_on_c, 0, 69, 62
1, 1085636, Control_c, 0, 64, 42
1, 1085647, Note_on_c, 0, 60, 44
1, 1085650, Control_c, 0, 64, 23
1, 1085653, Note_off_c, 0, 93, 66
1, 1085655, Note_off_c, 0, 64, 64
1, 1085661, Note_off_c, 0, 69, 68
1, 1085665, Control_c, 0, 64, 0
1, 1085671, Note_off_c, 0, 60, 56
1, 1085749, Note_on_c, 0, 93, 97
1, 1085749, Note_on_c, 0, 64, 68
1, 1085753, Note_on_c, 0, 69, 70
1, 1085755, Note_on_c, 0, 60, 58
1, 1085776, Note_off_c, 0, 64, 66
1, 1085776, Note_off_c, 0, 93, 66
1, 1085777, Note_off_c, 0, 69, 68
1, 1085785, Note_off_c, 0, 60, 65
1, 1085868, Note_on_c, 0, 64, 67
1, 1085869, Note_on_c, 0, 93, 110
1, 1085874, Note_on_c, 0, 69, 73
1, 1085876, Note_on_c, 0, 60, 63
1, 1085898, Note_off_c, 0, 64, 66
1, 1085898, Note_off_c, 0, 69, 68
1, 1085900, Note_off_c, 0, 93, 67
1, 1085905, Note_off_c, 0, 60, 66
1, 1085978, Note_on_c, 0, 69, 71
1, 1085981, Note_on_c, 0, 60, 68
1, 1085985, Note_on_c, 0, 64, 64
1, 1085985, Note_on_c, 0, 93, 108
1, 1086004, Note_off_c, 0, 69, 68
1, 1086011, Note_off_c, 0, 60, 68
1, 1086015, Note_off_c, 0, 64, 67
1, 1086017, Note_off_c, 0, 93, 68
1, 1086109, Note_on_c, 0, 93, 107
1, 1086110, Note_on_c, 0, 68, 76
1, 1086110, Note_on_c, 0, 63, 74
1, 1086113, Note_on_c, 0, 60, 67
1, 1086133, Note_off_c, 0, 68, 66
1, 1086134, Note_off_c, 0, 63, 68
1, 1086138, Note_off_c, 0, 60, 64
1, 1086175, Note_on_c, 0, 95, 92
1, 1086185, Note_off_c, 0, 93, 65
1, 1086222, Note_on_c, 0, 60, 55
1, 1086227, Note_on_c, 0, 68, 70
1, 1086228, Note_on_c, 0, 63, 57
1, 1086230, Note_on_c, 0, 96, 84
1, 1086242, Note_off_c, 0, 95, 65
1, 1086257, Note_off_c, 0, 68, 64
1, 1086259, Note_off_c, 0, 60, 64
1, 1086261, Note_off_c, 0, 63, 67
1, 1086312, Note_on_c, 0, 93, 74
1, 1086320, Note_off_c, 0, 96, 65
1, 1086353, Note_on_c, 0, 63, 55
1, 1086353, Note_on_c, 0, 68, 65
1, 1086355, Note_on_c, 0, 60, 49
1, 1086366, Note_off_c, 0, 93, 65
1, 1086376, Note_on_c, 0, 88, 75
1, 1086386, Note_off_c, 0, 63, 62
1, 1086388, Note_off_c, 0, 60, 60
1, 1086393, Note_off_c, 0, 68, 65
1, 1086428, Note_on_c, 0, 96, 80
1, 1086429, Note_off_c, 0, 88, 59
1, 1086470, Note_on_c, 0, 68, 60
1, 1086470, Note_on_c, 0, 60, 53
1, 1086472, Note_on_c, 0, 63, 52
1, 1086479, Note_on_c, 0, 93, 80
1, 1086487, Note_off_c, 0, 96, 64
1, 1086499, Note_off_c, 0, 60, 63
1, 1086499, Note_off_c, 0, 63, 61
1, 1086501, Note_off_c, 0, 68, 66
1, 1086524, Note_off_c, 0, 93, 64
1, 1086539, Note_on_c, 0, 88, 75
1, 1086592, Note_on_c, 0, 68, 67
1, 1086595, Note_on_c, 0, 87, 91
1, 1086598, Note_on_c, 0, 60, 53
1, 1086599, Note_on_c, 0, 63, 48
1, 1086620, Note_off_c, 0, 88, 66
1, 1086623, Note_off_c, 0, 68, 64
1, 1086625, Note_off_c, 0, 63, 60
1, 1086628, Note_off_c, 0, 60, 63
1, 1086667, Control_c, 0, 64, 32
1, 1086682, Control_c, 0, 64, 48
1, 1086697, Control_c, 0, 64, 58
1, 1086712, Control_c, 0, 64, 65
1, 1086719, Note_on_c, 0, 63, 55
1, 1086721, Note_on_c, 0, 68, 62
1, 1086723, Note_on_c, 0, 60, 51
1, 1086727, Control_c, 0, 64, 75
1, 1086741, Control_c, 0, 64, 110
1, 1086750, Note_off_c, 0, 60, 58
1, 1086753, Note_off_c, 0, 63, 64
1, 1086753, Note_off_c, 0, 68, 64
1, 1086756, Control_c, 0, 64, 127
1, 1086779, Note_off_c, 0, 87, 63
1, 1086843, Note_on_c, 0, 60, 58
1, 1086846, Note_on_c, 0, 68, 61
1, 1086848, Note_on_c, 0, 63, 53
1, 1086876, Note_off_c, 0, 68, 66
1, 1086878, Note_off_c, 0, 60, 64
1, 1086878, Note_off_c, 0, 63, 62
1, 1086969, Note_on_c, 0, 63, 57
1, 1086970, Note_on_c, 0, 84, 77
1, 1086974, Note_on_c, 0, 68, 60
1, 1086974, Note_on_c, 0, 60, 47
1, 1087003, Note_off_c, 0, 63, 64
1, 1087009, Note_off_c, 0, 68, 63
1, 1087012, Note_off_c, 0, 60, 52
1, 1087015, Note_on_c, 0, 78, 78
1, 1087017, Note_off_c, 0, 84, 64
1, 1087051, Control_c, 0, 64, 82
1, 1087066, Control_c, 0, 64, 61
1, 1087070, Note_on_c, 0, 83, 80
1, 1087074, Note_off_c, 0, 78, 61
1, 1087081, Control_c, 0, 64, 0
1, 1087084, Note_on_c, 0, 63, 56
1, 1087088, Note_on_c, 0, 68, 60
1, 1087093, Note_off_c, 0, 83, 69
1, 1087118, Note_off_c, 0, 63, 60
1, 1087119, Note_off_c, 0, 68, 63
1, 1087128, Note_on_c, 0, 60, 11
1, 1087155, Note_off_c, 0, 60, 35
1, 1087208, Note_on_c, 0, 68, 57
1, 1087209, Note_on_c, 0, 63, 53
1, 1087211, Note_on_c, 0, 83, 74
1, 1087235, Note_off_c, 0, 83, 70
1, 1087242, Note_off_c, 0, 63, 64
1, 1087243, Note_off_c, 0, 68, 64
1, 1087277, Poly_aftertouch_c, 0, 60, 0
1, 1087332, Note_on_c, 0, 74, 79
1, 1087335, Note_on_c, 0, 68, 67
1, 1087347, Note_on_c, 0, 63, 44
1, 1087357, Note_on_c, 0, 60, 25
1, 1087361, Note_off_c, 0, 74, 66
1, 1087364, Note_off_c, 0, 68, 65
1, 1087371, Note_off_c, 0, 63, 57
1, 1087385, Note_off_c, 0, 60, 46
1, 1087454, Note_on_c, 0, 83, 79
1, 1087457, Note_on_c, 0, 68, 67
1, 1087460, Note_on_c, 0, 63, 48
1, 1087475, Note_off_c, 0, 83, 71
1, 1087484, Note_off_c, 0, 63, 58
1, 1087485, Note_off_c, 0, 68, 67
1, 1087573, Note_on_c, 0, 68, 68
1, 1087574, Note_on_c, 0, 60, 29
1, 1087577, Note_on_c, 0, 63, 51
1, 1087579, Note_on_c, 0, 71, 75
1, 1087603, Note_off_c, 0, 68, 64
1, 1087605, Note_off_c, 0, 71, 67
1, 1087609, Note_off_c, 0, 63, 64
1, 1087612, Note_off_c, 0, 60, 63
1, 1087698, Note_on_c, 0, 83, 77
1, 1087699, Note_on_c, 0, 68, 64
1, 1087700, Note_on_c, 0, 63, 49
1, 1087711, Note_on_c, 0, 60, 48
1, 1087719, Note_off_c, 0, 83, 71
1, 1087723, Note_off_c, 0, 63, 60
1, 1087730, Note_off_c, 0, 68, 66
1, 1087737, Note_off_c, 0, 60, 56
1, 1087812, Note_on_c, 0, 68, 69
1, 1087812, Note_on_c, 0, 74, 81
1, 1087813, Note_on_c, 0, 63, 56
1, 1087816, Note_on_c, 0, 60, 56
1, 1087842, Note_off_c, 0, 68, 65
1, 1087846, Note_off_c, 0, 60, 64
1, 1087846, Note_off_c, 0, 63, 64
1, 1087865, Note_off_c, 0, 74, 60
1, 1087870, Note_on_c, 0, 78, 73
1, 1087926, Note_on_c, 0, 83, 85
1, 1087929, Note_on_c, 0, 68, 53
1, 1087937, Note_off_c, 0, 78, 64
1, 1087940, Note_on_c, 0, 63, 36
1, 1087951, Note_off_c, 0, 83, 66
1, 1087953, Note_off_c, 0, 68, 56
1, 1087968, Note_off_c, 0, 63, 49
1, 1088038, Note_on_c, 0, 85, 102
1, 1088041, Note_on_c, 0, 69, 85
1, 1088041, Note_on_c, 0, 64, 75
1, 1088053, Note_on_c, 0, 60, 67
1, 1088073, Note_off_c, 0, 69, 64
1, 1088082, Note_off_c, 0, 64, 64
1, 1088083, Note_off_c, 0, 60, 66
1, 1088109, Note_on_c, 0, 86, 82
1, 1088122, Note_off_c, 0, 85, 66
1, 1088160, Note_on_c, 0, 83, 73
1, 1088163, Note_on_c, 0, 60, 55
1, 1088172, Note_on_c, 0, 69, 64
1, 1088184, Note_on_c, 0, 64, 43
1, 1088193, Note_off_c, 0, 86, 62
1, 1088193, Note_off_c, 0, 60, 63
1, 1088201, Note_off_c, 0, 69, 67
1, 1088208, Note_on_c, 0, 82, 77
1, 1088210, Note_off_c, 0, 64, 56
1, 1088213, Note_off_c, 0, 83, 67
1, 1088229, Note_off_c, 0, 82, 70
1, 1088257, Note_on_c, 0, 69, 79
1, 1088262, Note_on_c, 0, 84, 101
1, 1088271, Note_on_c, 0, 60, 61
1, 1088273, Note_on_c, 0, 64, 61
1, 1088278, Note_off_c, 0, 69, 71
1, 1088290, Note_off_c, 0, 60, 63
1, 1088292, Note_off_c, 0, 64, 63
1, 1088397, Note_on_c, 0, 53, 71
1, 1088399, Note_on_c, 0, 52, 68
1, 1088419, Note_off_c, 0, 52, 64
1, 1088423, Note_off_c, 0, 53, 66
1, 1088514, Note_on_c, 0, 57, 110
1, 1088519, Control_c, 0, 64, 55
1, 1088534, Control_c, 0, 64, 127
1, 1088544, Note_off_c, 0, 57, 67
1, 1088545, Note_off_c, 0, 84, 67
1, 1088670, Note_on_c, 0, 93, 77
1, 1088675, Control_c, 0, 64, 103
1, 1088680, Note_on_c, 0, 36, 74
1, 1088690, Control_c, 0, 64, 68
1, 1088705, Control_c, 0, 64, 0
1, 1088709, Note_off_c, 0, 36, 65
1, 1088716, Note_on_c, 0, 92, 74
1, 1088716, Note_off_c, 0, 93, 65
1, 1088726, Note_on_c, 0, 35, 54
1, 1088743, Note_off_c, 0, 92, 65
1, 1088762, Note_on_c, 0, 36, 92
1, 1088766, Note_off_c, 0, 35, 49
1, 1088769, Note_on_c, 0, 93, 89
1, 1088793, Control_c, 0, 64, 52
1, 1088808, Control_c, 0, 64, 82
1, 1088816, Note_off_c, 0, 36, 64
1, 1088823, Note_off_c, 0, 93, 66
1, 1088823, Control_c, 0, 64, 127
1, 1088875, Poly_aftertouch_c, 0, 83, 0
1, 1088909, Note_on_c, 0, 93, 80
1, 1088912, Note_on_c, 0, 81, 66
1, 1088929, Note_off_c, 0, 81, 67
1, 1088931, Note_off_c, 0, 93, 71
1, 1089022, Note_on_c, 0, 81, 65
1, 1089064, Note_off_c, 0, 81, 64
1, 1089076, Control_c, 0, 64, 115
1, 1089090, Control_c, 0, 64, 106
1, 1089105, Control_c, 0, 64, 100
1, 1089120, Control_c, 0, 64, 94
1, 1089135, Control_c, 0, 64, 86
1, 1089142, Note_on_c, 0, 69, 64
1, 1089148, Note_on_c, 0, 60, 53
1, 1089150, Control_c, 0, 64, 80
1, 1089152, Note_on_c, 0, 93, 80
1, 1089156, Note_on_c, 0, 81, 74
1, 1089159, Note_on_c, 0, 64, 46
1, 1089165, Control_c, 0, 64, 75
1, 1089173, Note_off_c, 0, 81, 64
1, 1089173, Note_off_c, 0, 93, 71
1, 1089176, Note_off_c, 0, 69, 63
1, 1089179, Note_off_c, 0, 60, 54
1, 1089179, Control_c, 0, 64, 70
1, 1089183, Note_off_c, 0, 64, 60
1, 1089194, Control_c, 0, 64, 65
1, 1089209, Control_c, 0, 64, 58
1, 1089223, Control_c, 0, 64, 42
1, 1089238, Control_c, 0, 64, 34
1, 1089252, Control_c, 0, 64, 31
1, 1089267, Control_c, 0, 64, 20
1, 1089269, Note_on_c, 0, 64, 63
1, 1089272, Note_on_c, 0, 81, 81
1, 1089274, Note_on_c, 0, 60, 59
1, 1089274, Note_on_c, 0, 69, 71
1, 1089277, Note_on_c, 0, 93, 95
1, 1089282, Control_c, 0, 64, 0
1, 1089302, Note_off_c, 0, 69, 66
1, 1089305, Note_off_c, 0, 64, 65
1, 1089307, Note_off_c, 0, 60, 65
1, 1089308, Note_off_c, 0, 81, 65
1, 1089314, Note_off_c, 0, 93, 65
1, 1089397, Note_on_c, 0, 69, 88
1, 1089401, Note_on_c, 0, 81, 97
1, 1089402, Note_on_c, 0, 60, 64
1, 1089402, Note_on_c, 0, 64, 81
1, 1089406, Note_on_c, 0, 93, 98
1, 1089421, Note_off_c, 0, 69, 66
1, 1089424, Note_off_c, 0, 93, 72
1, 1089426, Note_off_c, 0, 64, 70
1, 1089432, Note_off_c, 0, 60, 67
1, 1089437, Note_off_c, 0, 81, 66
1, 1089517, Note_on_c, 0, 69, 91
1, 1089517, Note_on_c, 0, 60, 78
1, 1089519, Note_on_c, 0, 81, 98
1, 1089521, Note_on_c, 0, 64, 80
1, 1089539, Note_off_c, 0, 69, 67
1, 1089543, Note_off_c, 0, 64, 72
1, 1089549, Note_off_c, 0, 60, 66
1, 1089558, Note_off_c, 0, 81, 67
1, 1089628, Note_on_c, 0, 69, 90
1, 1089633, Note_on_c, 0, 93, 92
1, 1089635, Note_on_c, 0, 81, 101
1, 1089636, Note_on_c, 0, 64, 62
1, 1089638, Note_on_c, 0, 60, 72
1, 1089649, Note_off_c, 0, 69, 67
1, 1089654, Note_off_c, 0, 81, 68
1, 1089661, Note_off_c, 0, 93, 65
1, 1089663, Note_off_c, 0, 60, 69
1, 1089663, Note_off_c, 0, 64, 65
1, 1089753, Note_on_c, 0, 81, 109
1, 1089755, Note_on_c, 0, 68, 91
1, 1089758, Note_on_c, 0, 60, 71
1, 1089759, Note_on_c, 0, 63, 77
1, 1089782, Note_off_c, 0, 68, 63
1, 1089784, Note_off_c, 0, 63, 66
1, 1089786, Note_off_c, 0, 60, 68
1, 1089814, Note_off_c, 0, 81, 54
1, 1089818, Note_on_c, 0, 83, 83
1, 1089859, Note_on_c, 0, 84, 79
1, 1089871, Note_on_c, 0, 60, 59
1, 1089871, Note_off_c, 0, 83, 65
1, 1089875, Note_on_c, 0, 63, 57
1, 1089876, Note_on_c, 0, 68, 69
1, 1089906, Note_off_c, 0, 68, 67
1, 1089907, Note_off_c, 0, 60, 65
1, 1089907, Note_off_c, 0, 63, 65
1, 1089929, Note_on_c, 0, 81, 79
1, 1089940, Note_off_c, 0, 84, 64
1, 1089979, Note_off_c, 0, 81, 65
1, 1089986, Note_on_c, 0, 68, 72
1, 1089990, Note_on_c, 0, 60, 63
1, 1089995, Note_on_c, 0, 63, 50
1, 1089997, Note_on_c, 0, 76, 70
1, 1090020, Note_off_c, 0, 68, 63
1, 1090023, Note_off_c, 0, 63, 63
1, 1090023, Note_off_c, 0, 60, 66
1, 1090039, Note_on_c, 0, 84, 71
1, 1090040, Note_off_c, 0, 76, 60
1, 1090091, Note_on_c, 0, 81, 79
1, 1090110, Note_off_c, 0, 84, 63
1, 1090118, Note_on_c, 0, 60, 57
1, 1090118, Note_on_c, 0, 68, 69
1, 1090122, Note_on_c, 0, 63, 53
1, 1090146, Note_off_c, 0, 68, 66
1, 1090150, Note_off_c, 0, 60, 64
1, 1090152, Note_on_c, 0, 76, 80
1, 1090152, Note_off_c, 0, 63, 63
1, 1090152, Note_off_c, 0, 81, 65
1, 1090219, Note_on_c, 0, 75, 92
1, 1090230, Note_on_c, 0, 68, 81
1, 1090232, Note_on_c, 0, 60, 66
1, 1090234, Note_on_c, 0, 63, 67
1, 1090241, Note_on_c, 0, 74, 87
1, 1090250, Note_off_c, 0, 76, 62
1, 1090261, Control_c, 0, 64, 62
1, 1090267, Note_off_c, 0, 60, 65
1, 1090268, Note_off_c, 0, 68, 60
1, 1090270, Note_off_c, 0, 63, 64
1, 1090276, Control_c, 0, 64, 102
1, 1090290, Control_c, 0, 64, 127
1, 1090330, Note_off_c, 0, 74, 64
1, 1090342, Note_on_c, 0, 68, 97
1, 1090348, Note_on_c, 0, 60, 85
1, 1090351, Note_off_c, 0, 75, 58
1, 1090352, Note_on_c, 0, 63, 79
1, 1090387, Note_off_c, 0, 63, 60
1, 1090389, Note_off_c, 0, 68, 63
1, 1090393, Note_off_c, 0, 60, 62
1, 1090447, Note_on_c, 0, 68, 91
1, 1090447, Note_on_c, 0, 80, 80
1, 1090451, Note_on_c, 0, 63, 80
1, 1090456, Note_on_c, 0, 60, 68
1, 1090492, Note_on_c, 0, 84, 80
1, 1090492, Note_off_c, 0, 68, 63
1, 1090497, Note_off_c, 0, 60, 57
1, 1090500, Note_off_c, 0, 63, 63
1, 1090513, Note_on_c, 0, 87, 85
1, 1090522, Note_off_c, 0, 80, 62
1, 1090550, Note_on_c, 0, 92, 104
1, 1090550, Note_off_c, 0, 84, 66
1, 1090552, Note_on_c, 0, 68, 97
1, 1090553, Note_on_c, 0, 63, 81
1, 1090557, Note_on_c, 0, 60, 76
1, 1090558, Control_c, 0, 64, 81
1, 1090569, Note_off_c, 0, 87, 66
1, 1090572, Note_on_c, 0, 93, 81
1, 1090573, Control_c, 0, 64, 59
1, 1090578, Note_off_c, 0, 60, 69
1, 1090587, Control_c, 0, 64, 0
1, 1090588, Note_off_c, 0, 68, 64
1, 1090590, Note_off_c, 0, 92, 64
1, 1090594, Note_off_c, 0, 93, 69
1, 1090597, Note_off_c, 0, 63, 61
1, 1090687, Note_on_c, 0, 71, 102
1, 1090691, Note_on_c, 0, 102, 112
1, 1090692, Note_on_c, 0, 60, 89
1, 1090701, Note_on_c, 0, 63, 71
1, 1090717, Note_off_c, 0, 71, 64
1, 1090725, Note_off_c, 0, 60, 64
1, 1090727, Note_off_c, 0, 63, 67
1, 1090733, Note_off_c, 0, 102, 66
1, 1090760, Note_on_c, 0, 101, 88
1, 1090793, Note_on_c, 0, 103, 26
1, 1090801, Note_on_c, 0, 63, 55
1, 1090801, Note_on_c, 0, 70, 55
1, 1090803, Note_off_c, 0, 103, 48
1, 1090813, Note_on_c, 0, 60, 62
1, 1090817, Note_on_c, 0, 100, 75
1, 1090829, Note_off_c, 0, 101, 66
1, 1090834, Note_off_c, 0, 70, 66
1, 1090839, Note_off_c, 0, 63, 64
1, 1090842, Note_off_c, 0, 60, 66
1, 1090879, Note_on_c, 0, 98, 80
1, 1090885, Note_off_c, 0, 100, 65
1, 1090915, Note_off_c, 0, 98, 60
1, 1090928, Note_on_c, 0, 69, 80
1, 1090929, Note_on_c, 0, 60, 62
1, 1090933, Note_on_c, 0, 63, 63
1, 1090940, Note_on_c, 0, 96, 79
1, 1090950, Note_off_c, 0, 69, 71
1, 1090962, Note_off_c, 0, 63, 65
1, 1090964, Note_off_c, 0, 60, 64
1, 1090989, Note_on_c, 0, 95, 71
1, 1091007, Note_off_c, 0, 96, 65
1, 1091042, Note_on_c, 0, 93, 84
1, 1091046, Note_on_c, 0, 63, 70
1, 1091050, Note_off_c, 0, 95, 65
1, 1091053, Note_on_c, 0, 60, 72
1, 1091069, Note_on_c, 0, 67, 55
1, 1091082, Note_off_c, 0, 60, 66
1, 1091089, Note_off_c, 0, 63, 61
1, 1091089, Note_off_c, 0, 67, 60
1, 1091098, Note_off_c, 0, 93, 66
1, 1091105, Note_on_c, 0, 91, 76
1, 1091156, Note_on_c, 0, 67, 93
1, 1091165, Note_on_c, 0, 89, 93
1, 1091170, Note_on_c, 0, 60, 72
1, 1091171, Note_on_c, 0, 63, 74
1, 1091177, Note_off_c, 0, 91, 60
1, 1091197, Note_off_c, 0, 60, 69
1, 1091198, Note_off_c, 0, 63, 68
1, 1091198, Note_off_c, 0, 67, 65
1, 1091224, Note_on_c, 0, 88, 81
1, 1091261, Note_off_c, 0, 89, 64
1, 1091272, Note_on_c, 0, 66, 93
1, 1091273, Note_on_c, 0, 86, 93
1, 1091275, Note_on_c, 0, 63, 74
1, 1091276, Note_on_c, 0, 60, 75
1, 1091296, Note_off_c, 0, 88, 66
1, 1091309, Note_off_c, 0, 63, 63
1, 1091311, Note_off_c, 0, 60, 67
1, 1091314, Note_off_c, 0, 66, 64
1, 1091337, Note_on_c, 0, 84, 87
1, 1091343, Note_off_c, 0, 86, 64
1, 1091377, Note_off_c, 0, 84, 66
1, 1091381, Note_on_c, 0, 67, 82
1, 1091392, Note_on_c, 0, 83, 92
1, 1091398, Note_on_c, 0, 63, 80
1, 1091399, Note_on_c, 0, 60, 75
1, 1091421, Note_off_c, 0, 63, 68
1, 1091423, Note_off_c, 0, 67, 65
1, 1091423, Note_off_c, 0, 60, 70
1, 1091440, Note_on_c, 0, 81, 80
1, 1091484, Note_on_c, 0, 63, 71
1, 1091484, Note_on_c, 0, 79, 91
1, 1091485, Note_on_c, 0, 68, 96
1, 1091488, Note_on_c, 0, 60, 74
1, 1091488, Note_off_c, 0, 83, 66
1, 1091510, Note_off_c, 0, 81, 66
1, 1091519, Note_off_c, 0, 60, 65
1, 1091524, Note_off_c, 0, 68, 67
1, 1091533, Note_on_c, 0, 77, 86
1, 1091535, Note_off_c, 0, 63, 62
1, 1091539, Note_off_c, 0, 79, 66
1, 1091562, Note_off_c, 0, 77, 65
1, 1091604, Note_on_c, 0, 69, 109
1, 1091606, Note_on_c, 0, 60, 97
1, 1091609, Note_on_c, 0, 76, 87
1, 1091610, Control_c, 0, 64, 43
1, 1091616, Note_on_c, 0, 64, 83
1, 1091625, Control_c, 0, 64, 73
1, 1091640, Control_c, 0, 64, 99
1, 1091650, Note_off_c, 0, 69, 65
1, 1091655, Control_c, 0, 64, 127
1, 1091656, Note_on_c, 0, 72, 74
1, 1091660, Note_off_c, 0, 60, 59
1, 1091666, Note_off_c, 0, 64, 60
1, 1091674, Note_off_c, 0, 76, 63
1, 1091702, Note_off_c, 0, 72, 62
1, 1091709, Note_on_c, 0, 68, 84
1, 1091736, Note_on_c, 0, 69, 85
1, 1091737, Note_on_c, 0, 60, 65
1, 1091741, Note_on_c, 0, 64, 59
1, 1091743, Control_c, 0, 64, 87
1, 1091755, Note_on_c, 0, 72, 75
1, 1091758, Control_c, 0, 64, 62
1, 1091767, Note_off_c, 0, 60, 65
1, 1091767, Note_off_c, 0, 69, 60
1, 1091768, Note_off_c, 0, 64, 69
1, 1091773, Control_c, 0, 64, 0
1, 1091781, Note_off_c, 0, 68, 62
1, 1091830, Note_on_c, 0, 76, 101
1, 1091833, Note_on_c, 0, 69, 67
1, 1091835, Note_on_c, 0, 60, 67
1, 1091842, Note_off_c, 0, 72, 65
1, 1091848, Note_off_c, 0, 69, 66
1, 1091850, Note_off_c, 0, 60, 67
1, 1091967, Note_on_c, 0, 52, 93
1, 1091988, Note_off_c, 0, 52, 72
1, 1092054, Control_c, 0, 64, 71
1, 1092069, Control_c, 0, 64, 127
1, 1092091, Note_on_c, 0, 57, 111
1, 1092121, Note_off_c, 0, 57, 69
1, 1092124, Note_on_c, 0, 55, 42
1, 1092125, Note_off_c, 0, 55, 127
1, 1092154, Note_off_c, 0, 76, 61
1, 1092203, Control_c, 0, 64, 73
1, 1092219, Control_c, 0, 64, 30
1, 1092229, Note_on_c, 0, 36, 96
1, 1092234, Control_c, 0, 64, 0
1, 1092271, Note_off_c, 0, 36, 62
1, 1092380, Note_on_c, 0, 36, 100
1, 1092411, Note_off_c, 0, 36, 67
1, 1092551, Note_on_c, 0, 52, 97
1, 1092591, Note_off_c, 0, 52, 67
1, 1092675, Note_on_c, 0, 39, 98
1, 1092717, Note_off_c, 0, 39, 66
1, 1092817, Note_on_c, 0, 57, 94
1, 1092860, Note_off_c, 0, 57, 67
1, 1092979, Note_on_c, 0, 36, 77
1, 1093005, Note_on_c, 0, 54, 116
1, 1093013, Note_off_c, 0, 36, 63
1, 1093028, Note_on_c, 0, 58, 71
1, 1093029, Note_off_c, 0, 58, 127
1, 1093151, Note_on_c, 0, 52, 86
1, 1093196, Note_off_c, 0, 52, 63
1, 1093276, Note_on_c, 0, 39, 86
1, 1093324, Note_off_c, 0, 39, 60
1, 1093417, Note_on_c, 0, 57, 84
1, 1093425, Note_off_c, 0, 54, 60
1, 1093427, Note_on_c, 0, 61, 76
1, 1093442, Note_off_c, 0, 57, 69
1, 1093468, Note_on_c, 0, 66, 83
1, 1093483, Note_off_c, 0, 61, 65
1, 1093535, Note_on_c, 0, 70, 103
1, 1093546, Note_on_c, 0, 36, 80
1, 1093559, Note_off_c, 0, 66, 63
1, 1093576, Note_off_c, 0, 36, 66
1, 1093663, Note_on_c, 0, 52, 81
1, 1093713, Note_off_c, 0, 52, 62
1, 1093807, Note_on_c, 0, 39, 69
1, 1093808, Note_on_c, 0, 65, 102
1, 1093831, Note_off_c, 0, 70, 62
1, 1093853, Note_off_c, 0, 39, 66
1, 1093887, Control_c, 0, 64, 42
1, 1093902, Control_c, 0, 64, 67
1, 1093917, Control_c, 0, 64, 90
1, 1093931, Control_c, 0, 64, 127
1, 1093943, Note_on_c, 0, 57, 85
1, 1093990, Note_off_c, 0, 57, 62
1, 1094008, Note_off_c, 0, 65, 64
1, 1094090, Note_on_c, 0, 81, 105
1, 1094095, Control_c, 0, 64, 88
1, 1094096, Note_on_c, 0, 36, 73
1, 1094110, Control_c, 0, 64, 64
1, 1094124, Control_c, 0, 64, 0
1, 1094146, Note_off_c, 0, 36, 59
1, 1094213, Note_on_c, 0, 37, 76
1, 1094271, Note_off_c, 0, 37, 61
1, 1094349, Note_on_c, 0, 36, 78
1, 1094361, Note_on_c, 0, 76, 102
1, 1094372, Note_off_c, 0, 81, 63
1, 1094402, Note_on_c, 0, 77, 46
1, 1094407, Note_off_c, 0, 36, 61
1, 1094420, Control_c, 0, 64, 45
1, 1094435, Control_c, 0, 64, 98
1, 1094450, Control_c, 0, 64, 127
1, 1094472, Note_on_c, 0, 35, 87
1, 1094477, Note_off_c, 0, 76, 64
1, 1094497, Note_off_c, 0, 77, 41
1, 1094516, Note_off_c, 0, 35, 60
1, 1094632, Note_on_c, 0, 36, 95
1, 1094635, Note_on_c, 0, 92, 111
1, 1094636, Control_c, 0, 64, 72
1, 1094651, Control_c, 0, 64, 28
1, 1094666, Control_c, 0, 64, 0
1, 1094768, Note_on_c, 0, 48, 86
1, 1094774, Note_off_c, 0, 36, 59
1, 1094815, Note_off_c, 0, 48, 61
1, 1094902, Note_on_c, 0, 47, 90
1, 1094909, Poly_aftertouch_c, 0, 93, 127
1, 1094952, Note_off_c, 0, 47, 62
1, 1094984, Poly_aftertouch_c, 0, 93, 0
1, 1095021, Poly_aftertouch_c, 0, 93, 127
1, 1095029, Note_on_c, 0, 60, 64
1, 1095031, Note_on_c, 0, 88, 84
1, 1095058, Poly_aftertouch_c, 0, 93, 0
1, 1095069, Note_off_c, 0, 60, 62
1, 1095071, Note_off_c, 0, 92, 60
1, 1095168, Note_on_c, 0, 83, 87
1, 1095177, Note_off_c, 0, 88, 62
1, 1095199, Note_on_c, 0, 60, 30
1, 1095234, Note_off_c, 0, 60, 43
1, 1095288, Note_on_c, 0, 71, 66
1, 1095292, Note_on_c, 0, 80, 85
1, 1095304, Note_off_c, 0, 83, 59
1, 1095391, Note_off_c, 0, 71, 59
1, 1095433, Note_off_c, 0, 80, 65
1, 1095440, Note_on_c, 0, 72, 64
1, 1095443, Note_on_c, 0, 76, 83
1, 1095470, Note_off_c, 0, 72, 67
1, 1095547, Note_off_c, 0, 76, 59
1, 1095572, Note_on_c, 0, 71, 74
1, 1095693, Note_off_c, 0, 71, 65
1, 1095699, Note_on_c, 0, 68, 67
1, 1095728, Note_off_c, 0, 68, 67
1, 1095839, Note_on_c, 0, 46, 46
1, 1095842, Note_on_c, 0, 64, 61
1, 1095874, Note_off_c, 0, 64, 66
1, 1095878, Note_on_c, 0, 47, 56
1, 1095878, Note_on_c, 0, 63, 64
1, 1095887, Note_off_c, 0, 46, 62
1, 1095911, Note_off_c, 0, 63, 62
1, 1095923, Note_off_c, 0, 47, 63
1, 1095923, Note_on_c, 0, 48, 69
1, 1095926, Note_on_c, 0, 64, 77
1, 1095947, Note_off_c, 0, 48, 66
1, 1095948, Note_off_c, 0, 64, 70
1, 1096054, Note_on_c, 0, 44, 75
1, 1096057, Note_on_c, 0, 52, 77
1, 1096057, Note_on_c, 0, 64, 74
1, 1096075, Note_off_c, 0, 44, 64
1, 1096082, Note_off_c, 0, 64, 70
1, 1096084, Note_off_c, 0, 52, 69
1, 1096186, Note_on_c, 0, 52, 84
1, 1096189, Note_on_c, 0, 41, 96
1, 1096214, Note_off_c, 0, 41, 69
1, 1096227, Note_off_c, 0, 52, 65
1, 1096312, Note_on_c, 0, 52, 97
1, 1096312, Note_on_c, 0, 64, 100
1, 1096321, Note_on_c, 0, 39, 61
1, 1096323, Note_on_c, 0, 38, 61
1, 1096337, Note_off_c, 0, 52, 68
1, 1096338, Note_off_c, 0, 64, 64
1, 1096347, Note_off_c, 0, 39, 58
1, 1096353, Note_off_c, 0, 38, 62
1, 1096433, Note_on_c, 0, 42, 108
1, 1096438, Note_on_c, 0, 52, 100
1, 1096440, Note_on_c, 0, 64, 99
1, 1096455, Note_off_c, 0, 42, 72
1, 1096461, Note_on_c, 0, 41, 62
1, 1096462, Note_off_c, 0, 64, 65
1, 1096474, Note_off_c, 0, 52, 65
1, 1096491, Note_off_c, 0, 41, 58
1, 1096556, Note_on_c, 0, 43, 89
1, 1096564, Note_on_c, 0, 52, 94
1, 1096587, Note_off_c, 0, 43, 66
1, 1096595, Note_off_c, 0, 52, 65
1, 1096683, Note_on_c, 0, 37, 105
1, 1096763, Note_off_c, 0, 37, 65
1, 1096770, Note_on_c, 0, 39, 82
1, 1096835, Note_off_c, 0, 39, 55
1, 1096838, Note_on_c, 0, 37, 75
1, 1096897, Note_on_c, 0, 39, 52
1, 1096913, Note_off_c, 0, 37, 0
1, 1096933, Note_on_c, 0, 37, 45
1, 1096941, Note_off_c, 0, 39, 64
1, 1096984, Note_on_c, 0, 36, 76
1, 1097017, Note_off_c, 0, 37, 62
1, 1097097, Note_off_c, 0, 36, 62
1, 1097273, Note_on_c, 0, 46, 108
1, 1097466, Note_on_c, 0, 53, 103
1, 1097498, Note_off_c, 0, 53, 65
1, 1097503, Note_on_c, 0, 41, 39
1, 1097520, Control_c, 0, 64, 39
1, 1097535, Control_c, 0, 64, 54
1, 1097549, Note_off_c, 0, 41, 33
1, 1097549, Control_c, 0, 64, 59
1, 1097564, Control_c, 0, 64, 64
1, 1097579, Control_c, 0, 64, 71
1, 1097601, Control_c, 0, 64, 92
1, 1097602, Note_off_c, 0, 46, 59
1, 1097616, Control_c, 0, 64, 127
1, 1097644, Note_on_c, 0, 36, 94
1, 1097687, Note_off_c, 0, 36, 64
1, 1097705, Note_on_c, 0, 51, 81
1, 1097750, Control_c, 0, 64, 88
1, 1097760, Note_on_c, 0, 54, 66
1, 1097765, Control_c, 0, 64, 60
1, 1097774, Note_on_c, 0, 58, 71
1, 1097777, Note_on_c, 0, 52, 101
1, 1097780, Control_c, 0, 64, 0
1, 1097788, Note_off_c, 0, 51, 63
1, 1097795, Note_off_c, 0, 54, 64
1, 1097804, Note_off_c, 0, 52, 69
1, 1097816, Note_on_c, 0, 63, 86
1, 1097834, Note_off_c, 0, 58, 65
1, 1097857, Note_off_c, 0, 63, 64
1, 1097907, Note_on_c, 0, 66, 102
1, 1098052, Note_on_c, 0, 49, 96
1, 1098055, Note_on_c, 0, 51, 88
1, 1098079, Note_off_c, 0, 51, 67
1, 1098088, Note_off_c, 0, 49, 64
1, 1098194, Note_on_c, 0, 62, 102
1, 1098196, Note_on_c, 0, 36, 84
1, 1098206, Note_off_c, 0, 66, 51
1, 1098226, Note_off_c, 0, 36, 66
1, 1098283, Control_c, 0, 64, 22
1, 1098297, Control_c, 0, 64, 26
1, 1098312, Control_c, 0, 64, 30
1, 1098325, Note_on_c, 0, 50, 91
1, 1098327, Control_c, 0, 64, 44
1, 1098349, Control_c, 0, 64, 55
1, 1098355, Note_off_c, 0, 50, 70
1, 1098361, Note_on_c, 0, 48, 50
1, 1098362, Note_off_c, 0, 48, 127
1, 1098364, Control_c, 0, 64, 61
1, 1098379, Control_c, 0, 64, 62
1, 1098394, Control_c, 0, 64, 62
1, 1098403, Note_off_c, 0, 62, 61
1, 1098409, Control_c, 0, 64, 58
1, 1098423, Control_c, 0, 64, 46
1, 1098438, Control_c, 0, 64, 0
1, 1098486, Note_on_c, 0, 77, 97
1, 1098490, Note_on_c, 0, 79, 90
1, 1098532, Note_off_c, 0, 79, 56
1, 1098608, Note_on_c, 0, 49, 97
1, 1098653, Note_off_c, 0, 49, 66
1, 1098753, Note_on_c, 0, 36, 75
1, 1098755, Note_on_c, 0, 73, 109
1, 1098755, Note_off_c, 0, 77, 60
1, 1098787, Note_off_c, 0, 36, 66
1, 1098791, Note_on_c, 0, 78, 34
1, 1098792, Note_off_c, 0, 78, 127
1, 1098809, Control_c, 0, 64, 62
1, 1098824, Control_c, 0, 64, 91
1, 1098838, Control_c, 0, 64, 127
1, 1098844, Note_off_c, 0, 73, 62
1, 1098879, Note_on_c, 0, 48, 95
1, 1098919, Note_off_c, 0, 48, 66
1, 1099002, Control_c, 0, 64, 74
1, 1099017, Control_c, 0, 64, 25
1, 1099025, Note_on_c, 0, 88, 106
1, 1099027, Note_on_c, 0, 47, 100
1, 1099032, Control_c, 0, 64, 0
1, 1099064, Note_off_c, 0, 47, 66
1, 1099159, Note_on_c, 0, 48, 89
1, 1099185, Note_off_c, 0, 48, 67
1, 1099304, Note_on_c, 0, 35, 102
1, 1099350, Note_off_c, 0, 35, 64
1, 1099438, Note_on_c, 0, 36, 90
1, 1099440, Note_on_c, 0, 84, 102
1, 1099477, Note_off_c, 0, 36, 62
1, 1099494, Note_off_c, 0, 88, 59
1, 1099583, Note_on_c, 0, 79, 97
1, 1099583, Note_on_c, 0, 59, 95
1, 1099603, Note_off_c, 0, 84, 62
1, 1099618, Note_off_c, 0, 59, 66
1, 1099711, Note_off_c, 0, 79, 63
1, 1099716, Note_on_c, 0, 76, 92
1, 1099724, Note_on_c, 0, 60, 76
1, 1099763, Note_off_c, 0, 60, 62
1, 1099810, Note_off_c, 0, 76, 58
1, 1099857, Note_on_c, 0, 72, 84
1, 1099866, Note_on_c, 0, 47, 74
1, 1099927, Note_off_c, 0, 47, 63
1, 1099996, Note_on_c, 0, 48, 65
1, 1100000, Note_on_c, 0, 67, 80
1, 1100029, Note_off_c, 0, 48, 65
1, 1100038, Note_off_c, 0, 72, 61
1, 1100102, Note_off_c, 0, 67, 65
1, 1100117, Note_on_c, 0, 64, 74
1, 1100141, Note_off_c, 0, 64, 71
1, 1100272, Note_on_c, 0, 46, 69
1, 1100278, Note_on_c, 0, 52, 66
1, 1100278, Note_on_c, 0, 60, 71
1, 1100303, Note_on_c, 0, 55, 67
1, 1100305, Note_on_c, 0, 59, 60
1, 1100306, Note_off_c, 0, 52, 67
1, 1100306, Note_off_c, 0, 60, 63
1, 1100325, Note_on_c, 0, 47, 59
1, 1100328, Note_off_c, 0, 46, 59
1, 1100363, Note_on_c, 0, 52, 77
1, 1100368, Note_on_c, 0, 60, 83
1, 1100373, Note_off_c, 0, 47, 61
1, 1100374, Note_off_c, 0, 59, 64
1, 1100374, Note_off_c, 0, 55, 63
1, 1100376, Note_on_c, 0, 48, 64
1, 1100394, Note_off_c, 0, 52, 67
1, 1100399, Note_off_c, 0, 60, 67
1, 1100406, Note_off_c, 0, 48, 65
1, 1100497, Note_on_c, 0, 43, 66
1, 1100528, Note_off_c, 0, 43, 64
1, 1100645, Note_on_c, 0, 52, 61
1, 1100647, Note_on_c, 0, 40, 49
1, 1100647, Note_on_c, 0, 60, 68
1, 1100683, Note_off_c, 0, 40, 64
1, 1100683, Note_off_c, 0, 52, 62
1, 1100689, Note_off_c, 0, 60, 58
1, 1100704, Note_on_c, 0, 55, 48
1, 1100706, Note_on_c, 0, 59, 48
1, 1100750, Note_off_c, 0, 55, 63
1, 1100752, Note_on_c, 0, 52, 76
1, 1100757, Note_off_c, 0, 59, 63
1, 1100761, Note_on_c, 0, 36, 63
1, 1100761, Note_on_c, 0, 60, 58
1, 1100785, Note_off_c, 0, 52, 66
1, 1100791, Note_off_c, 0, 60, 66
1, 1100797, Note_off_c, 0, 36, 63
1, 1100880, Note_on_c, 0, 37, 105
1, 1100916, Note_off_c, 0, 37, 64
1, 1101011, Note_on_c, 0, 38, 107
1, 1101012, Note_on_c, 0, 50, 104
1, 1101098, Note_off_c, 0, 38, 63
1, 1101139, Note_on_c, 0, 39, 97
1, 1101151, Note_on_c, 0, 51, 93
1, 1101152, Note_on_c, 0, 48, 89
1, 1101167, Note_off_c, 0, 50, 61
1, 1101174, Note_on_c, 0, 52, 77
1, 1101182, Note_off_c, 0, 51, 67
1, 1101184, Note_off_c, 0, 48, 64
1, 1101196, Note_off_c, 0, 52, 68
1, 1101263, Control_c, 0, 64, 56
1, 1101278, Control_c, 0, 64, 60
1, 1101293, Control_c, 0, 64, 63
1, 1101304, Note_on_c, 0, 73, 86
1, 1101308, Control_c, 0, 64, 69
1, 1101313, Note_on_c, 0, 71, 62
1, 1101322, Control_c, 0, 64, 96
1, 1101324, Note_off_c, 0, 73, 70
1, 1101331, Note_off_c, 0, 71, 64
1, 1101332, Note_off_c, 0, 39, 62
1, 1101345, Control_c, 0, 64, 127
1, 1101440, Note_on_c, 0, 75, 76
1, 1101445, Note_on_c, 0, 72, 71
1, 1101470, Note_off_c, 0, 72, 69
1, 1101470, Note_off_c, 0, 75, 61
1, 1101561, Note_on_c, 0, 63, 76
1, 1101567, Note_on_c, 0, 75, 72
1, 1101571, Note_on_c, 0, 72, 60
1, 1101582, Control_c, 0, 64, 111
1, 1101586, Note_off_c, 0, 63, 69
1, 1101591, Note_off_c, 0, 75, 69
1, 1101596, Control_c, 0, 64, 96
1, 1101598, Note_off_c, 0, 72, 66
1, 1101611, Control_c, 0, 64, 85
1, 1101626, Control_c, 0, 64, 77
1, 1101640, Control_c, 0, 64, 71
1, 1101655, Control_c, 0, 64, 65
1, 1101670, Control_c, 0, 64, 58
1, 1101686, Control_c, 0, 64, 47
1, 1101697, Note_on_c, 0, 72, 67
1, 1101697, Note_on_c, 0, 75, 80
1, 1101701, Control_c, 0, 64, 35
1, 1101702, Note_on_c, 0, 63, 87
1, 1101716, Control_c, 0, 64, 27
1, 1101723, Note_off_c, 0, 75, 67
1, 1101726, Note_off_c, 0, 63, 68
1, 1101726, Note_off_c, 0, 72, 67
1, 1101731, Control_c, 0, 64, 20
1, 1101745, Control_c, 0, 64, 0
1, 1101823, Note_on_c, 0, 63, 101
1, 1101823, Note_on_c, 0, 72, 87
1, 1101824, Note_on_c, 0, 75, 89
1, 1101846, Note_off_c, 0, 75, 69
1, 1101848, Note_off_c, 0, 72, 70
1, 1101852, Note_off_c, 0, 63, 64
1, 1101949, Note_on_c, 0, 72, 93
1, 1101950, Note_on_c, 0, 75, 99
1, 1101953, Note_on_c, 0, 63, 103
1, 1101971, Note_off_c, 0, 75, 68
1, 1101975, Note_off_c, 0, 72, 67
1, 1101980, Note_off_c, 0, 63, 63
1, 1102074, Note_on_c, 0, 75, 91
1, 1102075, Note_on_c, 0, 72, 91
1, 1102078, Note_on_c, 0, 63, 95
1, 1102103, Note_off_c, 0, 75, 69
1, 1102105, Note_off_c, 0, 72, 67
1, 1102115, Note_off_c, 0, 63, 63
1, 1102202, Note_on_c, 0, 63, 97
1, 1102212, Note_on_c, 0, 75, 102
1, 1102212, Note_on_c, 0, 72, 98
1, 1102243, Note_off_c, 0, 75, 63
1, 1102245, Note_off_c, 0, 72, 66
1, 1102272, Note_on_c, 0, 65, 82
1, 1102272, Note_off_c, 0, 63, 64
1, 1102327, Note_off_c, 0, 65, 65
1, 1102330, Note_on_c, 0, 66, 81
1, 1102338, Note_on_c, 0, 75, 91
1, 1102338, Note_on_c, 0, 72, 85
1, 1102366, Note_off_c, 0, 72, 68
1, 1102366, Note_off_c, 0, 75, 64
1, 1102394, Note_off_c, 0, 66, 61
1, 1102395, Note_on_c, 0, 63, 75
1, 1102451, Note_off_c, 0, 63, 64
1, 1102452, Note_on_c, 0, 58, 64
1, 1102465, Note_on_c, 0, 75, 87
1, 1102467, Note_on_c, 0, 72, 84
1, 1102492, Note_off_c, 0, 75, 66
1, 1102493, Note_off_c, 0, 72, 68
1, 1102506, Note_off_c, 0, 58, 59
1, 1102555, Note_on_c, 0, 63, 71
1, 1102585, Note_on_c, 0, 72, 80
1, 1102585, Note_on_c, 0, 75, 81
1, 1102614, Note_off_c, 0, 75, 64
1, 1102616, Note_off_c, 0, 72, 66
1, 1102633, Note_off_c, 0, 63, 61
1, 1102679, Note_on_c, 0, 57, 78
1, 1102703, Note_on_c, 0, 72, 100
1, 1102703, Note_off_c, 0, 57, 70
1, 1102705, Note_on_c, 0, 75, 94
1, 1102716, Control_c, 0, 64, 47
1, 1102731, Control_c, 0, 64, 75
1, 1102746, Note_off_c, 0, 75, 61
1, 1102746, Control_c, 0, 64, 127
1, 1102748, Note_off_c, 0, 72, 65
1, 1102826, Note_on_c, 0, 72, 95
1, 1102841, Note_on_c, 0, 75, 85
1, 1102859, Note_off_c, 0, 75, 68
1, 1102877, Note_off_c, 0, 72, 66
1, 1102901, Control_c, 0, 64, 87
1, 1102916, Control_c, 0, 64, 60
1, 1102931, Control_c, 0, 64, 0
1, 1102959, Note_on_c, 0, 87, 112
1, 1102961, Note_on_c, 0, 85, 105
1, 1102962, Note_on_c, 0, 73, 101
1, 1102963, Note_on_c, 0, 75, 100
1, 1102975, Control_c, 0, 64, 46
1, 1102981, Note_off_c, 0, 85, 60
1, 1102990, Note_off_c, 0, 87, 64
1, 1102990, Control_c, 0, 64, 72
1, 1102993, Note_on_c, 0, 72, 51
1, 1102994, Note_off_c, 0, 72, 127
1, 1103002, Note_off_c, 0, 75, 66
1, 1103003, Note_off_c, 0, 73, 67
1, 1103005, Control_c, 0, 64, 127
1, 1103077, Note_on_c, 0, 75, 96
1, 1103081, Note_on_c, 0, 73, 82
1, 1103094, Control_c, 0, 64, 80
1, 1103101, Note_off_c, 0, 73, 72
1, 1103109, Control_c, 0, 64, 61
1, 1103113, Note_off_c, 0, 75, 65
1, 1103124, Control_c, 0, 64, 0
1, 1103212, Control_c, 0, 64, 41
1, 1103223, Note_on_c, 0, 87, 110
1, 1103224, Note_on_c, 0, 84, 108
1, 1103226, Note_on_c, 0, 86, 101
1, 1103227, Control_c, 0, 64, 81
1, 1103230, Note_on_c, 0, 96, 106
1, 1103230, Note_on_c, 0, 99, 100
1, 1103237, Note_off_c, 0, 84, 76
1, 1103237, Note_off_c, 0, 87, 71
1, 1103239, Note_off_c, 0, 86, 79
1, 1103242, Control_c, 0, 64, 127
1, 1103244, Note_on_c, 0, 100, 71
1, 1103247, Note_off_c, 0, 96, 72
1, 1103253, Note_on_c, 0, 98, 52
1, 1103254, Note_off_c, 0, 98, 127
1, 1103254, Note_off_c, 0, 99, 67
1, 1103259, Note_off_c, 0, 100, 67
1, 1103381, Note_on_c, 0, 74, 73
1, 1103404, Note_off_c, 0, 74, 69
1, 1103506, Note_on_c, 0, 75, 83
1, 1103512, Note_on_c, 0, 72, 74
1, 1103539, Note_off_c, 0, 72, 68
1, 1103539, Note_off_c, 0, 75, 60
1, 1103636, Control_c, 0, 64, 97
1, 1103640, Note_on_c, 0, 75, 85
1, 1103642, Note_on_c, 0, 63, 81
1, 1103649, Note_on_c, 0, 72, 69
1, 1103651, Control_c, 0, 64, 84
1, 1103666, Control_c, 0, 64, 75
1, 1103673, Note_off_c, 0, 63, 63
1, 1103675, Note_off_c, 0, 75, 61
1, 1103679, Note_off_c, 0, 72, 67
1, 1103681, Control_c, 0, 64, 65
1, 1103696, Control_c, 0, 64, 51
1, 1103710, Control_c, 0, 64, 0
1, 1103768, Note_on_c, 0, 75, 93
1, 1103769, Note_on_c, 0, 63, 105
1, 1103770, Note_on_c, 0, 72, 79
1, 1103793, Note_off_c, 0, 75, 67
1, 1103795, Note_off_c, 0, 72, 69
1, 1103797, Note_off_c, 0, 63, 65
1, 1103888, Note_on_c, 0, 63, 106
1, 1103891, Note_on_c, 0, 75, 91
1, 1103893, Note_on_c, 0, 72, 87
1, 1103909, Note_off_c, 0, 63, 69
1, 1103911, Note_off_c, 0, 75, 69
1, 1103913, Note_off_c, 0, 72, 70
1, 1104020, Note_on_c, 0, 66, 104
1, 1104025, Note_on_c, 0, 75, 90
1, 1104026, Note_on_c, 0, 72, 87
1, 1104047, Note_off_c, 0, 75, 67
1, 1104052, Note_off_c, 0, 72, 66
1, 1104147, Note_on_c, 0, 63, 80
1, 1104147, Note_off_c, 0, 66, 62
1, 1104147, Note_on_c, 0, 75, 85
1, 1104149, Note_on_c, 0, 72, 83
1, 1104171, Note_off_c, 0, 75, 67
1, 1104171, Note_off_c, 0, 72, 69
1, 1104174, Note_off_c, 0, 63, 68
1, 1104270, Note_on_c, 0, 63, 93
1, 1104286, Note_on_c, 0, 72, 87
1, 1104286, Note_on_c, 0, 75, 90
1, 1104309, Note_off_c, 0, 75, 67
1, 1104312, Note_off_c, 0, 72, 68
1, 1104337, Note_off_c, 0, 63, 65
1, 1104345, Note_on_c, 0, 65, 79
1, 1104398, Note_off_c, 0, 65, 64
1, 1104403, Note_on_c, 0, 66, 76
1, 1104423, Note_on_c, 0, 72, 75
1, 1104423, Note_on_c, 0, 75, 74
1, 1104447, Note_off_c, 0, 72, 70
1, 1104447, Note_off_c, 0, 75, 69
1, 1104468, Note_off_c, 0, 66, 61
1, 1104471, Note_on_c, 0, 63, 70
1, 1104532, Note_off_c, 0, 63, 64
1, 1104534, Note_on_c, 0, 58, 70
1, 1104551, Note_on_c, 0, 75, 73
1, 1104552, Note_on_c, 0, 72, 67
1, 1104576, Note_off_c, 0, 75, 67
1, 1104579, Note_off_c, 0, 72, 68
1, 1104590, Note_on_c, 0, 66, 67
1, 1104600, Note_off_c, 0, 58, 63
1, 1104633, Note_off_c, 0, 66, 56
1, 1104640, Note_on_c, 0, 63, 74
1, 1104665, Note_on_c, 0, 75, 73
1, 1104669, Note_on_c, 0, 72, 68
1, 1104699, Note_on_c, 0, 58, 65
1, 1104701, Note_off_c, 0, 72, 64
1, 1104704, Note_off_c, 0, 75, 59
1, 1104705, Note_off_c, 0, 63, 63
1, 1104780, Note_on_c, 0, 57, 78
1, 1104780, Note_off_c, 0, 58, 63
1, 1104798, Note_on_c, 0, 75, 74
1, 1104799, Note_on_c, 0, 72, 75
1, 1104800, Control_c, 0, 64, 51
1, 1104814, Control_c, 0, 64, 67
1, 1104822, Note_off_c, 0, 57, 63
1, 1104829, Control_c, 0, 64, 83
1, 1104833, Note_off_c, 0, 72, 61
1, 1104833, Note_off_c, 0, 75, 60
1, 1104844, Control_c, 0, 64, 127
1, 1104925, Note_on_c, 0, 72, 65
1, 1104927, Note_on_c, 0, 75, 58
1, 1104969, Note_off_c, 0, 75, 57
1, 1104979, Note_off_c, 0, 72, 56
1, 1105057, Note_on_c, 0, 85, 63
1, 1105059, Note_on_c, 0, 87, 62
1, 1105060, Note_on_c, 0, 75, 65
1, 1105067, Control_c, 0, 64, 92
1, 1105075, Note_on_c, 0, 73, 60
1, 1105089, Control_c, 0, 64, 76
1, 1105104, Control_c, 0, 64, 65
1, 1105119, Control_c, 0, 64, 52
1, 1105121, Note_off_c, 0, 73, 61
1, 1105130, Note_off_c, 0, 75, 58
1, 1105134, Control_c, 0, 64, 37
1, 1105149, Control_c, 0, 64, 36
1, 1105163, Control_c, 0, 64, 40
1, 1105178, Control_c, 0, 64, 48
1, 1105193, Control_c, 0, 64, 57
1, 1105199, Note_on_c, 0, 75, 39
1, 1105208, Control_c, 0, 64, 63
1, 1105223, Control_c, 0, 64, 67
1, 1105226, Note_on_c, 0, 73, 40
1, 1105237, Control_c, 0, 64, 77
1, 1105252, Control_c, 0, 64, 94
1, 1105256, Note_off_c, 0, 87, 57
1, 1105262, Note_off_c, 0, 85, 59
1, 1105267, Control_c, 0, 64, 127
1, 1105308, Note_off_c, 0, 75, 49
1, 1105312, Note_off_c, 0, 73, 37
1, 1105360, Note_on_c, 0, 87, 62
1, 1105370, Note_on_c, 0, 85, 55
1, 1105385, Control_c, 0, 64, 109
1, 1105400, Control_c, 0, 64, 88
1, 1105415, Control_c, 0, 64, 74
1, 1105429, Control_c, 0, 64, 65
1, 1105444, Control_c, 0, 64, 60
1, 1105459, Control_c, 0, 64, 57
1, 1105474, Control_c, 0, 64, 56
1, 1105486, Note_on_c, 0, 75, 60
1, 1105488, Control_c, 0, 64, 56
1, 1105495, Note_on_c, 0, 73, 55
1, 1105503, Control_c, 0, 64, 58
1, 1105518, Control_c, 0, 64, 62
1, 1105530, Note_off_c, 0, 75, 57
1, 1105531, Note_off_c, 0, 73, 62
1, 1105533, Control_c, 0, 64, 66
1, 1105548, Control_c, 0, 64, 71
1, 1105563, Control_c, 0, 64, 82
1, 1105578, Control_c, 0, 64, 127
1, 1105620, Note_on_c, 0, 73, 70
1, 1105626, Note_on_c, 0, 75, 77
1, 1105673, Note_off_c, 0, 73, 65
1, 1105676, Note_off_c, 0, 75, 60
1, 1105742, Note_on_c, 0, 73, 78
1, 1105746, Note_on_c, 0, 75, 78
1, 1105760, Note_off_c, 0, 87, 36
1, 1105790, Note_off_c, 0, 85, 59
1, 1105887, Note_on_c, 0, 87, 83
1, 1105888, Note_off_c, 0, 75, 61
1, 1105893, Note_on_c, 0, 85, 85
1, 1105899, Note_off_c, 0, 73, 63
1, 1105912, Control_c, 0, 64, 94
1, 1105927, Control_c, 0, 64, 77
1, 1105941, Control_c, 0, 64, 67
1, 1105956, Control_c, 0, 64, 58
1, 1105971, Control_c, 0, 64, 47
1, 1105986, Control_c, 0, 64, 43
1, 1106002, Note_on_c, 0, 75, 75
1, 1106010, Note_on_c, 0, 73, 78
1, 1106016, Control_c, 0, 64, 44
1, 1106031, Control_c, 0, 64, 49
1, 1106046, Control_c, 0, 64, 57
1, 1106060, Control_c, 0, 64, 63
1, 1106064, Note_off_c, 0, 73, 64
1, 1106068, Note_off_c, 0, 75, 63
1, 1106075, Control_c, 0, 64, 69
1, 1106090, Control_c, 0, 64, 77
1, 1106105, Control_c, 0, 64, 91
1, 1106119, Control_c, 0, 64, 127
1, 1106141, Note_on_c, 0, 73, 74
1, 1106143, Note_on_c, 0, 75, 71
1, 1106192, Note_off_c, 0, 73, 65
1, 1106194, Note_off_c, 0, 75, 62
1, 1106266, Note_on_c, 0, 73, 69
1, 1106269, Note_on_c, 0, 75, 69
1, 1106356, Control_c, 0, 64, 112
1, 1106371, Control_c, 0, 64, 104
1, 1106386, Control_c, 0, 64, 99
1, 1106401, Control_c, 0, 64, 95
1, 1106415, Control_c, 0, 64, 91
1, 1106429, Note_on_c, 0, 88, 68
1, 1106430, Control_c, 0, 64, 86
1, 1106432, Note_on_c, 0, 84, 60
1, 1106440, Note_on_c, 0, 76, 60
1, 1106445, Control_c, 0, 64, 79
1, 1106452, Note_on_c, 0, 72, 54
1, 1106460, Control_c, 0, 64, 73
1, 1106468, Note_off_c, 0, 75, 43
1, 1106475, Control_c, 0, 64, 69
1, 1106482, Note_off_c, 0, 73, 39
1, 1106490, Control_c, 0, 64, 66
1, 1106505, Control_c, 0, 64, 63
1, 1106508, Note_off_c, 0, 87, 48
1, 1106520, Note_off_c, 0, 85, 39
1, 1106520, Control_c, 0, 64, 60
1, 1106535, Control_c, 0, 64, 56
1, 1106550, Control_c, 0, 64, 52
1, 1106564, Control_c, 0, 64, 49
1, 1106587, Control_c, 0, 64, 47
1, 1106602, Control_c, 0, 64, 45
1, 1106616, Control_c, 0, 64, 44
1, 1106631, Control_c, 0, 64, 43
1, 1106690, Control_c, 0, 64, 46
1, 1106705, Control_c, 0, 64, 52
1, 1106720, Control_c, 0, 64, 57
1, 1106734, Note_on_c, 0, 73, 48
1, 1106734, Note_on_c, 0, 75, 48
1, 1106734, Control_c, 0, 64, 62
1, 1106737, Note_off_c, 0, 76, 56
1, 1106740, Note_off_c, 0, 72, 52
1, 1106749, Control_c, 0, 64, 64
1, 1106764, Control_c, 0, 64, 66
1, 1106766, Note_off_c, 0, 73, 58
1, 1106767, Note_off_c, 0, 75, 58
1, 1106779, Control_c, 0, 64, 69
1, 1106794, Control_c, 0, 64, 72
1, 1106809, Control_c, 0, 64, 74
1, 1106824, Control_c, 0, 64, 76
1, 1106866, Note_on_c, 0, 73, 42
1, 1106871, Note_on_c, 0, 75, 42
1, 1106898, Control_c, 0, 64, 75
1, 1106901, Note_off_c, 0, 75, 50
1, 1106904, Note_off_c, 0, 73, 49
1, 1106928, Control_c, 0, 64, 75
1, 1106942, Control_c, 0, 64, 74
1, 1106957, Control_c, 0, 64, 73
1, 1106972, Control_c, 0, 64, 72
1, 1106987, Control_c, 0, 64, 71
1, 1107002, Control_c, 0, 64, 69
1, 1107004, Note_on_c, 0, 87, 28
1, 1107009, Note_on_c, 0, 85, 29
1, 1107010, Note_on_c, 0, 73, 40
1, 1107015, Note_on_c, 0, 75, 42
1, 1107016, Control_c, 0, 64, 67
1, 1107031, Control_c, 0, 64, 66
1, 1107044, Note_off_c, 0, 75, 52
1, 1107046, Control_c, 0, 64, 65
1, 1107047, Note_off_c, 0, 73, 49
1, 1107060, Control_c, 0, 64, 64
1, 1107072, Note_off_c, 0, 84, 34
1, 1107075, Control_c, 0, 64, 62
1, 1107079, Note_off_c, 0, 88, 35
1, 1107090, Control_c, 0, 64, 61
1, 1107120, Control_c, 0, 64, 61
1, 1107134, Control_c, 0, 64, 60
1, 1107143, Note_on_c, 0, 73, 41
1, 1107148, Note_on_c, 0, 75, 40
1, 1107149, Control_c, 0, 64, 59
1, 1107164, Control_c, 0, 64, 57
1, 1107177, Note_off_c, 0, 75, 54
1, 1107179, Note_off_c, 0, 73, 52
1, 1107179, Control_c, 0, 64, 56
1, 1107195, Control_c, 0, 64, 56
1, 1107209, Control_c, 0, 64, 55
1, 1107224, Control_c, 0, 64, 54
1, 1107239, Note_off_c, 0, 87, 56
1, 1107239, Control_c, 0, 64, 52
1, 1107253, Control_c, 0, 64, 49
1, 1107254, Note_off_c, 0, 85, 57
1, 1107268, Control_c, 0, 64, 48
1, 1107283, Note_on_c, 0, 73, 41
1, 1107285, Control_c, 0, 64, 46
1, 1107288, Note_on_c, 0, 75, 39
1, 1107299, Control_c, 0, 64, 45
1, 1107311, Note_off_c, 0, 73, 55
1, 1107313, Note_off_c, 0, 75, 54
1, 1107314, Control_c, 0, 64, 44
1, 1107337, Control_c, 0, 64, 42
1, 1107351, Control_c, 0, 64, 41
1, 1107366, Control_c, 0, 64, 40
1, 1107381, Control_c, 0, 64, 38
1, 1107396, Control_c, 0, 64, 38
1, 1107412, Note_on_c, 0, 75, 52
1, 1107414, Note_on_c, 0, 73, 50
1, 1107426, Control_c, 0, 64, 37
1, 1107440, Control_c, 0, 64, 37
1, 1107443, Note_off_c, 0, 73, 56
1, 1107446, Note_off_c, 0, 75, 59
1, 1107455, Control_c, 0, 64, 36
1, 1107470, Control_c, 0, 64, 36
1, 1107484, Control_c, 0, 64, 35
1, 1107499, Control_c, 0, 64, 34
1, 1107514, Control_c, 0, 64, 33
1, 1107529, Control_c, 0, 64, 33
1, 1107542, Note_on_c, 0, 73, 49
1, 1107543, Note_on_c, 0, 75, 50
1, 1107544, Control_c, 0, 64, 32
1, 1107558, Control_c, 0, 64, 31
1, 1107580, Note_off_c, 0, 73, 58
1, 1107582, Note_off_c, 0, 75, 59
1, 1107603, Control_c, 0, 64, 31
1, 1107618, Control_c, 0, 64, 30
1, 1107667, Note_on_c, 0, 64, 45
1, 1107668, Note_on_c, 0, 60, 37
1, 1107682, Note_on_c, 0, 75, 47
1, 1107684, Note_on_c, 0, 73, 43
1, 1107707, Note_off_c, 0, 64, 61
1, 1107712, Note_off_c, 0, 60, 50
1, 1107712, Note_off_c, 0, 75, 55
1, 1107714, Note_off_c, 0, 73, 56
1, 1107811, Control_c, 0, 64, 30
1, 1107815, Note_on_c, 0, 73, 45
1, 1107816, Note_on_c, 0, 60, 31
1, 1107820, Note_on_c, 0, 75, 44
1, 1107822, Note_on_c, 0, 64, 41
1, 1107844, Note_off_c, 0, 73, 56
1, 1107846, Note_off_c, 0, 75, 55
1, 1107934, Note_off_c, 0, 64, 59
1, 1107939, Note_on_c, 0, 73, 53
1, 1107939, Note_on_c, 0, 75, 56
1, 1107947, Note_off_c, 0, 60, 48
1, 1107977, Note_off_c, 0, 73, 63
1, 1107977, Note_off_c, 0, 75, 62
1, 1108083, Note_on_c, 0, 73, 59
1, 1108085, Note_on_c, 0, 75, 64
1, 1108120, Note_off_c, 0, 73, 62
1, 1108120, Note_off_c, 0, 75, 61
1, 1108215, Note_on_c, 0, 64, 55
1, 1108215, Note_on_c, 0, 67, 60
1, 1108217, Note_on_c, 0, 75, 67
1, 1108222, Note_on_c, 0, 73, 60
1, 1108251, Note_off_c, 0, 67, 61
1, 1108254, Note_off_c, 0, 73, 63
1, 1108258, Note_off_c, 0, 64, 61
1, 1108258, Note_off_c, 0, 75, 55
1, 1108292, Control_c, 0, 64, 29
1, 1108344, Note_on_c, 0, 73, 65
1, 1108348, Note_on_c, 0, 75, 69
1, 1108352, Note_on_c, 0, 67, 60
1, 1108370, Note_on_c, 0, 64, 53
1, 1108388, Note_off_c, 0, 73, 60
1, 1108391, Note_off_c, 0, 75, 54
1, 1108481, Note_on_c, 0, 75, 74
1, 1108484, Note_on_c, 0, 73, 68
1, 1108491, Note_off_c, 0, 67, 58
1, 1108508, Note_off_c, 0, 64, 59
1, 1108514, Note_off_c, 0, 73, 64
1, 1108524, Note_off_c, 0, 75, 59
1, 1108615, Note_on_c, 0, 75, 80
1, 1108615, Note_on_c, 0, 73, 75
1, 1108649, Note_off_c, 0, 73, 63
1, 1108660, Note_off_c, 0, 75, 60
1, 1108662, Control_c, 0, 64, 29
1, 1108735, Note_on_c, 0, 71, 82
1, 1108743, Note_on_c, 0, 67, 71
1, 1108748, Note_on_c, 0, 73, 81
1, 1108748, Note_on_c, 0, 75, 81
1, 1108779, Note_off_c, 0, 73, 63
1, 1108781, Note_off_c, 0, 67, 61
1, 1108784, Note_off_c, 0, 71, 63
1, 1108794, Note_off_c, 0, 75, 61
1, 1108810, Control_c, 0, 64, 28
1, 1108885, Note_on_c, 0, 73, 83
1, 1108885, Note_on_c, 0, 75, 80
1, 1108886, Note_on_c, 0, 71, 83
1, 1108890, Note_on_c, 0, 67, 72
1, 1108922, Control_c, 0, 64, 28
1, 1108923, Note_off_c, 0, 73, 62
1, 1108931, Note_off_c, 0, 75, 63
1, 1109012, Note_on_c, 0, 75, 90
1, 1109013, Note_on_c, 0, 73, 87
1, 1109026, Control_c, 0, 64, 27
1, 1109034, Note_off_c, 0, 71, 60
1, 1109045, Note_off_c, 0, 73, 64
1, 1109051, Note_off_c, 0, 67, 60
1, 1109054, Note_off_c, 0, 75, 64
1, 1109085, Control_c, 0, 64, 27
1, 1109115, Control_c, 0, 64, 26
1, 1109139, Note_on_c, 0, 75, 92
1, 1109141, Note_on_c, 0, 73, 91
1, 1109144, Control_c, 0, 64, 26
1, 1109159, Control_c, 0, 64, 25
1, 1109171, Note_off_c, 0, 73, 62
1, 1109180, Note_off_c, 0, 75, 64
1, 1109189, Control_c, 0, 64, 25
1, 1109203, Control_c, 0, 64, 24
1, 1109218, Control_c, 0, 64, 24
1, 1109233, Control_c, 0, 64, 23
1, 1109268, Note_on_c, 0, 75, 93
1, 1109271, Note_on_c, 0, 73, 92
1, 1109271, Note_on_c, 0, 74, 92
1, 1109281, Note_on_c, 0, 71, 74
1, 1109292, Control_c, 0, 64, 23
1, 1109297, Note_off_c, 0, 73, 66
1, 1109307, Note_on_c, 0, 69, 35
1, 1109307, Note_off_c, 0, 75, 63
1, 1109313, Note_off_c, 0, 74, 63
1, 1109314, Note_off_c, 0, 71, 64
1, 1109322, Control_c, 0, 64, 22
1, 1109337, Control_c, 0, 64, 20
1, 1109337, Note_off_c, 0, 69, 34
1, 1109352, Control_c, 0, 64, 19
1, 1109367, Control_c, 0, 64, 18
1, 1109381, Control_c, 0, 64, 17
1, 1109394, Note_on_c, 0, 74, 97
1, 1109394, Note_on_c, 0, 75, 94
1, 1109395, Note_on_c, 0, 73, 93
1, 1109398, Note_on_c, 0, 71, 86
1, 1109426, Note_off_c, 0, 73, 64
1, 1109426, Control_c, 0, 64, 16
1, 1109434, Note_off_c, 0, 75, 63
1, 1109440, Control_c, 0, 64, 15
1, 1109454, Control_c, 0, 64, 14
1, 1109469, Control_c, 0, 64, 12
1, 1109484, Control_c, 0, 64, 9
1, 1109499, Control_c, 0, 64, 0
1, 1109516, Note_on_c, 0, 75, 100
1, 1109518, Note_on_c, 0, 73, 93
1, 1109553, Note_off_c, 0, 73, 63
1, 1109553, Note_off_c, 0, 75, 66
1, 1109580, Note_off_c, 0, 74, 54
1, 1109589, Note_off_c, 0, 71, 59
1, 1109650, Note_on_c, 0, 73, 98
1, 1109651, Note_on_c, 0, 75, 93
1, 1109691, Note_off_c, 0, 73, 61
1, 1109697, Note_off_c, 0, 75, 62
1, 1109775, Note_on_c, 0, 77, 100
1, 1109779, Note_on_c, 0, 74, 88
1, 1109821, Note_off_c, 0, 77, 67
1, 1109831, Note_off_c, 0, 74, 63
1, 1109899, Note_on_c, 0, 77, 94
1, 1109902, Note_on_c, 0, 74, 77
1, 1110053, Note_on_c, 0, 75, 75
1, 1110054, Note_on_c, 0, 73, 74
1, 1110081, Note_off_c, 0, 73, 64
1, 1110084, Note_off_c, 0, 75, 61
1, 1110180, Note_on_c, 0, 73, 69
1, 1110181, Note_on_c, 0, 75, 73
1, 1110208, Note_off_c, 0, 75, 64
1, 1110208, Note_off_c, 0, 73, 64
1, 1110302, Note_on_c, 0, 73, 69
1, 1110306, Note_on_c, 0, 75, 68
1, 1110350, Note_off_c, 0, 75, 59
1, 1110353, Note_off_c, 0, 73, 60
1, 1110459, Note_on_c, 0, 73, 66
1, 1110460, Note_on_c, 0, 75, 63
1, 1110499, Note_off_c, 0, 75, 59
1, 1110502, Note_off_c, 0, 73, 59
1, 1110608, Note_on_c, 0, 73, 55
1, 1110610, Note_on_c, 0, 75, 60
1, 1110656, Note_off_c, 0, 77, 44
1, 1110704, Note_off_c, 0, 74, 47
1, 1110918, Note_on_c, 0, 76, 52
1, 1110923, Note_on_c, 0, 74, 47
1, 1110964, Note_off_c, 0, 76, 61
1, 1110970, Note_off_c, 0, 74, 61
1, 1111051, Note_on_c, 0, 76, 60
1, 1111058, Note_on_c, 0, 74, 55
1, 1111094, Note_off_c, 0, 75, 54
1, 1111104, Note_off_c, 0, 73, 41
1, 1111200, Note_on_c, 0, 73, 54
1, 1111203, Note_on_c, 0, 75, 62
1, 1111232, Note_off_c, 0, 73, 61
1, 1111234, Note_off_c, 0, 75, 66
1, 1111327, Note_on_c, 0, 73, 65
1, 1111330, Note_on_c, 0, 75, 66
1, 1111361, Note_off_c, 0, 75, 65
1, 1111362, Note_off_c, 0, 73, 63
1, 1111512, Note_on_c, 0, 73, 41
1, 1111519, Note_on_c, 0, 75, 49
1, 1111597, Control_c, 0, 64, 28
1, 1111612, Control_c, 0, 64, 47
1, 1111627, Control_c, 0, 64, 57
1, 1111642, Control_c, 0, 64, 62
1, 1111657, Control_c, 0, 64, 67
1, 1111671, Control_c, 0, 64, 72
1, 1111674, Note_off_c, 0, 75, 62
1, 1111675, Note_off_c, 0, 73, 62
1, 1111686, Control_c, 0, 64, 79
1, 1111701, Control_c, 0, 64, 87
1, 1111716, Control_c, 0, 64, 97
1, 1111730, Control_c, 0, 64, 113
1, 1111745, Control_c, 0, 64, 127
1, 1111886, Control_c, 0, 64, 113
1, 1111888, Note_on_c, 0, 75, 34
1, 1111901, Note_on_c, 0, 73, 35
1, 1111901, Control_c, 0, 64, 102
1, 1111916, Control_c, 0, 64, 96
1, 1111930, Control_c, 0, 64, 92
1, 1111945, Control_c, 0, 64, 88
1, 1111960, Control_c, 0, 64, 83
1, 1111975, Control_c, 0, 64, 77
1, 1111990, Control_c, 0, 64, 71
1, 1112005, Control_c, 0, 64, 66
1, 1112020, Control_c, 0, 64, 62
1, 1112034, Control_c, 0, 64, 59
1, 1112049, Control_c, 0, 64, 58
1, 1112064, Control_c, 0, 64, 58
1, 1112080, Control_c, 0, 64, 58
1, 1112095, Control_c, 0, 64, 59
1, 1112109, Control_c, 0, 64, 60
1, 1112124, Control_c, 0, 64, 61
1, 1112139, Control_c, 0, 64, 61
1, 1112169, Control_c, 0, 64, 62
1, 1112183, Control_c, 0, 64, 62
1, 1112198, Control_c, 0, 64, 63
1, 1112258, Control_c, 0, 64, 62
1, 1112302, Control_c, 0, 64, 62
1, 1112317, Note_off_c, 0, 76, 17
1, 1112322, Note_off_c, 0, 74, 18
1, 1112332, Control_c, 0, 64, 61
1, 1112450, Control_c, 0, 64, 62
1, 1112465, Control_c, 0, 64, 62
1, 1112480, Control_c, 0, 64, 63
1, 1112494, Control_c, 0, 64, 65
1, 1112509, Control_c, 0, 64, 68
1, 1112524, Control_c, 0, 64, 71
1, 1112539, Control_c, 0, 64, 77
1, 1112553, Control_c, 0, 64, 83
1, 1112576, Control_c, 0, 64, 90
1, 1112591, Control_c, 0, 64, 102
1, 1112598, Note_off_c, 0, 73, 40
1, 1112606, Control_c, 0, 64, 127
1, 1112630, Note_off_c, 0, 75, 35
1, 1112937, Note_on_c, 0, 75, 38
1, 1112943, Note_on_c, 0, 73, 31
1, 1113051, Control_c, 0, 64, 101
1, 1113066, Control_c, 0, 64, 83
1, 1113081, Control_c, 0, 64, 75
1, 1113095, Control_c, 0, 64, 70
1, 1113110, Control_c, 0, 64, 69
1, 1113125, Control_c, 0, 64, 70
1, 1113140, Control_c, 0, 64, 70
1, 1113155, Control_c, 0, 64, 73
1, 1113169, Control_c, 0, 64, 76
1, 1113184, Control_c, 0, 64, 83
1, 1113199, Control_c, 0, 64, 93
1, 1113214, Control_c, 0, 64, 114
1, 1113229, Control_c, 0, 64, 127
1, 1113689, Note_on_c, 0, 76, 41
1, 1113740, Control_c, 0, 64, 111
1, 1113755, Control_c, 0, 64, 91
1, 1113770, Control_c, 0, 64, 78
1, 1113785, Control_c, 0, 64, 70
1, 1113798, Note_off_c, 0, 73, 38
1, 1113799, Control_c, 0, 64, 65
1, 1113808, Note_off_c, 0, 75, 37
1, 1113829, Control_c, 0, 64, 66
1, 1113844, Control_c, 0, 64, 68
1, 1113859, Control_c, 0, 64, 73
1, 1113874, Control_c, 0, 64, 83
1, 1113880, Note_on_c, 0, 33, 34
1, 1113889, Control_c, 0, 64, 101
1, 1113903, Control_c, 0, 64, 127
1, 1113927, Note_off_c, 0, 76, 59
1, 1114002, Note_off_c, 0, 33, 35
1, 1114029, Note_on_c, 0, 76, 66
1, 1114056, Note_on_c, 0, 46, 12
1, 1114111, Note_off_c, 0, 46, 39
1, 1114201, Note_on_c, 0, 47, 41
1, 1114250, Note_off_c, 0, 47, 55
1, 1114380, Note_on_c, 0, 60, 28
1, 1114393, Note_on_c, 0, 88, 62
1, 1114418, Note_off_c, 0, 60, 52
1, 1114494, Note_off_c, 0, 76, 46
1, 1114559, Note_on_c, 0, 61, 48
1, 1114619, Note_off_c, 0, 61, 58
1, 1114684, Note_on_c, 0, 76, 65
1, 1114724, Note_off_c, 0, 76, 58
1, 1114823, Note_on_c, 0, 85, 73
1, 1114842, Note_on_c, 0, 61, 23
1, 1114884, Note_off_c, 0, 61, 43
1, 1114956, Control_c, 0, 64, 114
1, 1114971, Control_c, 0, 64, 86
1, 1114972, Note_on_c, 0, 60, 51
1, 1114978, Note_on_c, 0, 81, 69
1, 1114986, Control_c, 0, 64, 72
1, 1114992, Note_off_c, 0, 88, 44
1, 1115000, Control_c, 0, 64, 65
1, 1115015, Control_c, 0, 64, 63
1, 1115017, Note_off_c, 0, 85, 66
1, 1115030, Control_c, 0, 64, 65
1, 1115045, Control_c, 0, 64, 68
1, 1115051, Note_off_c, 0, 60, 35
1, 1115060, Control_c, 0, 64, 75
1, 1115074, Control_c, 0, 64, 90
1, 1115089, Control_c, 0, 64, 127
1, 1115111, Note_on_c, 0, 47, 50
1, 1115118, Poly_aftertouch_c, 0, 76, 127
1, 1115142, Note_off_c, 0, 47, 63
1, 1115171, Poly_aftertouch_c, 0, 76, 0
1, 1115259, Note_on_c, 0, 80, 73
1, 1115271, Note_on_c, 0, 46, 43
1, 1115313, Control_c, 0, 64, 104
1, 1115327, Control_c, 0, 64, 81
1, 1115342, Control_c, 0, 64, 68
1, 1115357, Control_c, 0, 64, 57
1, 1115371, Control_c, 0, 64, 46
1, 1115377, Note_off_c, 0, 46, 54
1, 1115386, Control_c, 0, 64, 45
1, 1115388, Note_off_c, 0, 81, 59
1, 1115399, Note_on_c, 0, 33, 43
1, 1115401, Control_c, 0, 64, 45
1, 1115416, Control_c, 0, 64, 50
1, 1115431, Control_c, 0, 64, 57
1, 1115445, Control_c, 0, 64, 64
1, 1115460, Control_c, 0, 64, 68
1, 1115463, Note_off_c, 0, 33, 55
1, 1115475, Control_c, 0, 64, 77
1, 1115490, Control_c, 0, 64, 95
1, 1115505, Control_c, 0, 64, 127
1, 1115537, Note_on_c, 0, 46, 40
1, 1115549, Note_on_c, 0, 78, 69
1, 1115576, Note_off_c, 0, 46, 59
1, 1115674, Note_off_c, 0, 80, 53
1, 1115703, Note_on_c, 0, 47, 42
1, 1115734, Note_off_c, 0, 47, 48
1, 1115846, Note_on_c, 0, 60, 37
1, 1115856, Note_on_c, 0, 76, 60
1, 1115877, Note_off_c, 0, 60, 52
1, 1115916, Note_off_c, 0, 78, 56
1, 1115994, Note_on_c, 0, 61, 49
1, 1116016, Control_c, 0, 64, 97
1, 1116017, Note_off_c, 0, 76, 53
1, 1116031, Control_c, 0, 64, 84
1, 1116045, Control_c, 0, 64, 75
1, 1116060, Control_c, 0, 64, 70
1, 1116076, Control_c, 0, 64, 67
1, 1116091, Control_c, 0, 64, 64
1, 1116106, Control_c, 0, 64, 62
1, 1116121, Control_c, 0, 64, 61
1, 1116132, Note_on_c, 0, 74, 43
1, 1116136, Note_on_c, 0, 78, 68
1, 1116136, Control_c, 0, 64, 62
1, 1116150, Control_c, 0, 64, 63
1, 1116165, Control_c, 0, 64, 64
1, 1116172, Note_off_c, 0, 61, 49
1, 1116180, Control_c, 0, 64, 66
1, 1116194, Control_c, 0, 64, 69
1, 1116209, Control_c, 0, 64, 74
1, 1116216, Note_off_c, 0, 74, 57
1, 1116224, Control_c, 0, 64, 84
1, 1116239, Control_c, 0, 64, 95
1, 1116254, Control_c, 0, 64, 117
1, 1116264, Note_on_c, 0, 61, 45
1, 1116268, Control_c, 0, 64, 127
1, 1116331, Note_off_c, 0, 61, 61
1, 1116420, Note_on_c, 0, 76, 73
1, 1116434, Note_on_c, 0, 59, 50
1, 1116506, Note_off_c, 0, 59, 53
1, 1116555, Note_on_c, 0, 47, 56
1, 1116558, Note_off_c, 0, 78, 62
1, 1116586, Note_off_c, 0, 47, 64
1, 1116691, Control_c, 0, 64, 117
1, 1116706, Control_c, 0, 64, 93
1, 1116706, Note_on_c, 0, 46, 46
1, 1116708, Note_on_c, 0, 80, 72
1, 1116720, Control_c, 0, 64, 80
1, 1116735, Control_c, 0, 64, 72
1, 1116750, Control_c, 0, 64, 66
1, 1116765, Control_c, 0, 64, 59
1, 1116780, Control_c, 0, 64, 51
1, 1116794, Control_c, 0, 64, 48
1, 1116807, Note_off_c, 0, 46, 45
1, 1116824, Control_c, 0, 64, 49
1, 1116835, Note_off_c, 0, 76, 52
1, 1116839, Control_c, 0, 64, 51
1, 1116846, Note_on_c, 0, 33, 46
1, 1116854, Control_c, 0, 64, 55
1, 1116869, Control_c, 0, 64, 61
1, 1116884, Control_c, 0, 64, 65
1, 1116899, Control_c, 0, 64, 69
1, 1116913, Note_off_c, 0, 33, 56
1, 1116914, Control_c, 0, 64, 77
1, 1116929, Control_c, 0, 64, 87
1, 1116944, Control_c, 0, 64, 105
1, 1116959, Control_c, 0, 64, 127
1, 1116983, Note_on_c, 0, 46, 36
1, 1116989, Note_on_c, 0, 83, 73
1, 1117014, Note_off_c, 0, 46, 56
1, 1117114, Control_c, 0, 64, 107
1, 1117129, Control_c, 0, 64, 85
1, 1117133, Note_on_c, 0, 47, 56
1, 1117143, Control_c, 0, 64, 72
1, 1117158, Control_c, 0, 64, 65
1, 1117173, Control_c, 0, 64, 61
1, 1117188, Control_c, 0, 64, 61
1, 1117214, Note_off_c, 0, 47, 51
1, 1117218, Control_c, 0, 64, 62
1, 1117232, Control_c, 0, 64, 64
1, 1117244, Note_off_c, 0, 80, 26
1, 1117247, Control_c, 0, 64, 68
1, 1117262, Control_c, 0, 64, 74
1, 1117277, Control_c, 0, 64, 83
1, 1117285, Note_on_c, 0, 60, 44
1, 1117291, Note_on_c, 0, 86, 62
1, 1117291, Control_c, 0, 64, 91
1, 1117306, Control_c, 0, 64, 96
1, 1117313, Note_off_c, 0, 60, 56
1, 1117321, Control_c, 0, 64, 97
1, 1117350, Control_c, 0, 64, 95
1, 1117361, Note_off_c, 0, 83, 60
1, 1117365, Control_c, 0, 64, 93
1, 1117380, Control_c, 0, 64, 89
1, 1117395, Control_c, 0, 64, 83
1, 1117410, Control_c, 0, 64, 76
1, 1117424, Control_c, 0, 64, 69
1, 1117439, Control_c, 0, 64, 64
1, 1117441, Note_on_c, 0, 61, 38
1, 1117454, Control_c, 0, 64, 61
1, 1117469, Control_c, 0, 64, 60
1, 1117475, Note_off_c, 0, 61, 50
1, 1117498, Control_c, 0, 64, 61
1, 1117513, Control_c, 0, 64, 62
1, 1117528, Control_c, 0, 64, 66
1, 1117543, Control_c, 0, 64, 70
1, 1117558, Control_c, 0, 64, 78
1, 1117569, Note_on_c, 0, 85, 61
1, 1117570, Note_on_c, 0, 76, 50
1, 1117573, Control_c, 0, 64, 87
1, 1117574, Poly_aftertouch_c, 0, 63, 0
1, 1117588, Control_c, 0, 64, 93
1, 1117602, Note_off_c, 0, 76, 60
1, 1117603, Control_c, 0, 64, 94
1, 1117632, Control_c, 0, 64, 93
1, 1117647, Control_c, 0, 64, 92
1, 1117662, Control_c, 0, 64, 90
1, 1117677, Control_c, 0, 64, 87
1, 1117692, Control_c, 0, 64, 83
1, 1117707, Control_c, 0, 64, 77
1, 1117722, Control_c, 0, 64, 71
1, 1117722, Note_on_c, 0, 83, 55
1, 1117736, Note_on_c, 0, 75, 41
1, 1117737, Control_c, 0, 64, 66
1, 1117743, Note_off_c, 0, 86, 28
1, 1117752, Control_c, 0, 64, 63
1, 1117766, Control_c, 0, 64, 60
1, 1117781, Control_c, 0, 64, 57
1, 1117794, Note_off_c, 0, 85, 57
1, 1117796, Control_c, 0, 64, 53
1, 1117818, Control_c, 0, 64, 52
1, 1117833, Control_c, 0, 64, 53
1, 1117847, Control_c, 0, 64, 57
1, 1117852, Note_off_c, 0, 75, 54
1, 1117862, Control_c, 0, 64, 62
1, 1117877, Control_c, 0, 64, 66
1, 1117885, Note_on_c, 0, 81, 49
1, 1117892, Control_c, 0, 64, 71
1, 1117898, Note_on_c, 0, 64, 25
1, 1117907, Note_off_c, 0, 83, 55
1, 1117907, Control_c, 0, 64, 78
1, 1117922, Control_c, 0, 64, 83
1, 1117933, Note_off_c, 0, 64, 50
1, 1117937, Control_c, 0, 64, 87
1, 1117952, Control_c, 0, 64, 89
1, 1117996, Control_c, 0, 64, 89
1, 1118026, Control_c, 0, 64, 88
1, 1118040, Control_c, 0, 64, 87
1, 1118051, Note_on_c, 0, 63, 48
1, 1118055, Control_c, 0, 64, 85
1, 1118070, Control_c, 0, 64, 84
1, 1118085, Control_c, 0, 64, 81
1, 1118100, Control_c, 0, 64, 77
1, 1118114, Control_c, 0, 64, 72
1, 1118129, Control_c, 0, 64, 67
1, 1118144, Control_c, 0, 64, 64
1, 1118159, Control_c, 0, 64, 62
1, 1118173, Control_c, 0, 64, 61
1, 1118188, Control_c, 0, 64, 59
1, 1118203, Control_c, 0, 64, 59
1, 1118218, Control_c, 0, 64, 58
1, 1118226, Note_off_c, 0, 63, 54
1, 1118241, Note_on_c, 0, 52, 41
1, 1118262, Control_c, 0, 64, 59
1, 1118277, Control_c, 0, 64, 59
1, 1118292, Control_c, 0, 64, 61
1, 1118307, Control_c, 0, 64, 63
1, 1118321, Control_c, 0, 64, 65
1, 1118336, Control_c, 0, 64, 67
1, 1118349, Note_off_c, 0, 81, 53
1, 1118351, Control_c, 0, 64, 71
1, 1118366, Control_c, 0, 64, 78
1, 1118381, Control_c, 0, 64, 86
1, 1118396, Control_c, 0, 64, 96
1, 1118411, Control_c, 0, 64, 110
1, 1118423, Note_off_c, 0, 52, 52
1, 1118426, Control_c, 0, 64, 127
1, 1118742, Note_on_c, 0, 54, 57
1, 1118759, Control_c, 0, 64, 115
1, 1118774, Control_c, 0, 64, 102
1, 1118789, Control_c, 0, 64, 91
1, 1118804, Control_c, 0, 64, 81
1, 1118819, Control_c, 0, 64, 73
1, 1118834, Control_c, 0, 64, 68
1, 1118849, Control_c, 0, 64, 65
1, 1118863, Control_c, 0, 64, 64
1, 1118908, Control_c, 0, 64, 65
1, 1118923, Control_c, 0, 64, 69
1, 1118936, Note_on_c, 0, 56, 51
1, 1118937, Control_c, 0, 64, 75
1, 1118952, Control_c, 0, 64, 86
1, 1118967, Control_c, 0, 64, 105
1, 1118976, Note_off_c, 0, 56, 65
1, 1118982, Control_c, 0, 64, 127
1, 1119069, Note_on_c, 0, 52, 75
1, 1119097, Note_on_c, 0, 71, 56
1, 1119134, Note_off_c, 0, 71, 66
1, 1119168, Note_off_c, 0, 54, 56
1, 1119218, Note_on_c, 0, 72, 67
1, 1119264, Control_c, 0, 64, 114
1, 1119270, Note_off_c, 0, 72, 56
1, 1119278, Control_c, 0, 64, 105
1, 1119293, Control_c, 0, 64, 97
1, 1119316, Control_c, 0, 64, 93
1, 1119331, Control_c, 0, 64, 90
1, 1119346, Control_c, 0, 64, 87
1, 1119351, Note_on_c, 0, 47, 69
1, 1119360, Control_c, 0, 64, 84
1, 1119375, Control_c, 0, 64, 80
1, 1119390, Control_c, 0, 64, 74
1, 1119393, Note_on_c, 0, 87, 64
1, 1119405, Control_c, 0, 64, 70
1, 1119419, Control_c, 0, 64, 67
1, 1119434, Control_c, 0, 64, 64
1, 1119449, Control_c, 0, 64, 61
1, 1119464, Control_c, 0, 64, 58
1, 1119479, Control_c, 0, 64, 55
1, 1119493, Note_off_c, 0, 52, 59
1, 1119493, Control_c, 0, 64, 53
1, 1119508, Control_c, 0, 64, 52
1, 1119523, Note_on_c, 0, 88, 75
1, 1119523, Control_c, 0, 64, 51
1, 1119543, Note_off_c, 0, 87, 58
1, 1119567, Control_c, 0, 64, 51
1, 1119582, Control_c, 0, 64, 55
1, 1119597, Control_c, 0, 64, 60
1, 1119612, Control_c, 0, 64, 64
1, 1119627, Control_c, 0, 64, 68
1, 1119642, Control_c, 0, 64, 73
1, 1119648, Note_on_c, 0, 45, 68
1, 1119657, Control_c, 0, 64, 79
1, 1119657, Note_on_c, 0, 87, 72
1, 1119670, Note_off_c, 0, 88, 55
1, 1119672, Control_c, 0, 64, 86
1, 1119686, Control_c, 0, 64, 89
1, 1119710, Note_off_c, 0, 87, 65
1, 1119716, Control_c, 0, 64, 89
1, 1119731, Control_c, 0, 64, 88
1, 1119740, Note_off_c, 0, 47, 49
1, 1119745, Control_c, 0, 64, 87
1, 1119760, Control_c, 0, 64, 85
1, 1119775, Control_c, 0, 64, 84
1, 1119790, Control_c, 0, 64, 82
1, 1119805, Control_c, 0, 64, 80
1, 1119807, Note_on_c, 0, 72, 60
1, 1119819, Control_c, 0, 64, 78
1, 1119834, Control_c, 0, 64, 75
1, 1119840, Note_on_c, 0, 74, 27
1, 1119849, Control_c, 0, 64, 72
1, 1119864, Control_c, 0, 64, 70
1, 1119875, Note_off_c, 0, 74, 32
1, 1119879, Control_c, 0, 64, 70
1, 1119893, Control_c, 0, 64, 69
1, 1119908, Control_c, 0, 64, 67
1, 1119922, Control_c, 0, 64, 65
1, 1119937, Control_c, 0, 64, 64
1, 1119952, Control_c, 0, 64, 63
1, 1119958, Note_on_c, 0, 47, 63
1, 1119967, Control_c, 0, 64, 61
1, 1119976, Note_on_c, 0, 73, 55
1, 1119982, Control_c, 0, 64, 60
1, 1119996, Control_c, 0, 64, 58
1, 1120007, Note_off_c, 0, 72, 55
1, 1120011, Control_c, 0, 64, 55
1, 1120026, Control_c, 0, 64, 53
1, 1120041, Control_c, 0, 64, 50
1, 1120064, Control_c, 0, 64, 48
1, 1120079, Control_c, 0, 64, 47
1, 1120094, Control_c, 0, 64, 46
1, 1120109, Control_c, 0, 64, 45
1, 1120114, Note_off_c, 0, 45, 37
1, 1120119, Note_on_c, 0, 74, 62
1, 1120136, Note_off_c, 0, 73, 53
1, 1120153, Control_c, 0, 64, 46
1, 1120168, Control_c, 0, 64, 49
1, 1120182, Control_c, 0, 64, 55
1, 1120197, Control_c, 0, 64, 60
1, 1120212, Control_c, 0, 64, 64
1, 1120227, Control_c, 0, 64, 66
1, 1120241, Control_c, 0, 64, 69
1, 1120246, Note_off_c, 0, 74, 63
1, 1120256, Control_c, 0, 64, 72
1, 1120271, Control_c, 0, 64, 77
1, 1120280, Note_on_c, 0, 75, 33
1, 1120286, Control_c, 0, 64, 80
1, 1120301, Control_c, 0, 64, 82
1, 1120311, Note_off_c, 0, 75, 47
1, 1120360, Control_c, 0, 64, 81
1, 1120375, Control_c, 0, 64, 80
1, 1120390, Control_c, 0, 64, 80
1, 1120396, Note_on_c, 0, 60, 65
1, 1120405, Control_c, 0, 64, 79
1, 1120420, Control_c, 0, 64, 77
1, 1120434, Control_c, 0, 64, 75
1, 1120449, Control_c, 0, 64, 73
1, 1120464, Control_c, 0, 64, 70
1, 1120479, Control_c, 0, 64, 69
1, 1120494, Control_c, 0, 64, 69
1, 1120508, Control_c, 0, 64, 67
1, 1120523, Control_c, 0, 64, 65
1, 1120538, Control_c, 0, 64, 64
1, 1120539, Note_on_c, 0, 52, 61
1, 1120551, Note_on_c, 0, 61, 52
1, 1120553, Control_c, 0, 64, 63
1, 1120567, Control_c, 0, 64, 62
1, 1120572, Note_off_c, 0, 60, 49
1, 1120582, Control_c, 0, 64, 62
1, 1120597, Control_c, 0, 64, 60
1, 1120612, Control_c, 0, 64, 59
1, 1120627, Control_c, 0, 64, 57
1, 1120641, Control_c, 0, 64, 55
1, 1120656, Control_c, 0, 64, 53
1, 1120664, Note_off_c, 0, 47, 54
1, 1120670, Control_c, 0, 64, 52
1, 1120685, Control_c, 0, 64, 50
1, 1120688, Note_on_c, 0, 62, 46
1, 1120700, Control_c, 0, 64, 49
1, 1120715, Control_c, 0, 64, 48
1, 1120730, Control_c, 0, 64, 46
1, 1120745, Control_c, 0, 64, 44
1, 1120759, Control_c, 0, 64, 42
1, 1120774, Control_c, 0, 64, 40
1, 1120789, Note_off_c, 0, 61, 29
1, 1120789, Control_c, 0, 64, 38
1, 1120797, Note_off_c, 0, 62, 56
1, 1120811, Control_c, 0, 64, 36
1, 1120826, Control_c, 0, 64, 32
1, 1120840, Control_c, 0, 64, 28
1, 1120846, Note_on_c, 0, 63, 45
1, 1120851, Note_on_c, 0, 54, 49
1, 1120855, Control_c, 0, 64, 22
1, 1120871, Control_c, 0, 64, 9
1, 1120886, Control_c, 0, 64, 0
1, 1120890, Note_off_c, 0, 63, 63
1, 1120934, Note_off_c, 0, 52, 58
1, 1121044, Note_on_c, 0, 48, 51
1, 1121187, Note_on_c, 0, 52, 41
1, 1121308, Note_off_c, 0, 54, 36
1, 1121359, Note_on_c, 0, 49, 39
1, 1121377, Note_off_c, 0, 48, 36
1, 1121575, Control_c, 0, 64, 14
1, 1121589, Control_c, 0, 64, 21
1, 1121604, Control_c, 0, 64, 26
1, 1121619, Control_c, 0, 64, 30
1, 1121634, Control_c, 0, 64, 34
1, 1121639, Note_on_c, 0, 40, 31
1, 1121648, Note_off_c, 0, 49, 38
1, 1121649, Control_c, 0, 64, 37
1, 1121665, Control_c, 0, 64, 40
1, 1121680, Control_c, 0, 64, 41
1, 1121694, Control_c, 0, 64, 43
1, 1121709, Control_c, 0, 64, 45
1, 1121724, Control_c, 0, 64, 48
1, 1121739, Control_c, 0, 64, 52
1, 1121754, Control_c, 0, 64, 55
1, 1121768, Control_c, 0, 64, 58
1, 1121783, Control_c, 0, 64, 61
1, 1121798, Control_c, 0, 64, 63
1, 1121806, Note_off_c, 0, 52, 42
1, 1121812, Control_c, 0, 64, 66
1, 1121824, Note_off_c, 0, 40, 45
1, 1121827, Control_c, 0, 64, 71
1, 1121842, Control_c, 0, 64, 77
1, 1121857, Control_c, 0, 64, 86
1, 1121872, Control_c, 0, 64, 98
1, 1121886, Control_c, 0, 64, 125
1, 1121901, Control_c, 0, 64, 127
1, 1122268, Note_on_c, 0, 76, 65
1, 1122310, Control_c, 0, 64, 102
1, 1122325, Control_c, 0, 64, 85
1, 1122339, Control_c, 0, 64, 72
1, 1122354, Control_c, 0, 64, 63
1, 1122369, Control_c, 0, 64, 52
1, 1122384, Control_c, 0, 64, 49
1, 1122408, Note_on_c, 0, 33, 26
1, 1122428, Control_c, 0, 64, 52
1, 1122443, Control_c, 0, 64, 57
1, 1122459, Control_c, 0, 64, 63
1, 1122474, Control_c, 0, 64, 67
1, 1122488, Control_c, 0, 64, 73
1, 1122503, Control_c, 0, 64, 85
1, 1122518, Control_c, 0, 64, 111
1, 1122518, Note_off_c, 0, 76, 51
1, 1122533, Control_c, 0, 64, 127
1, 1122596, Note_off_c, 0, 33, 38
1, 1122599, Note_on_c, 0, 46, 35
1, 1122688, Note_on_c, 0, 76, 36
1, 1122691, Note_off_c, 0, 46, 48
1, 1122736, Note_off_c, 0, 76, 51
1, 1122773, Note_on_c, 0, 78, 48
1, 1122811, Note_off_c, 0, 78, 65
1, 1122830, Note_on_c, 0, 80, 55
1, 1122859, Note_off_c, 0, 80, 64
1, 1122906, Note_on_c, 0, 81, 54
1, 1122939, Note_off_c, 0, 81, 65
1, 1122940, Note_on_c, 0, 47, 22
1, 1122974, Note_on_c, 0, 83, 50
1, 1122989, Note_off_c, 0, 47, 47
1, 1123029, Note_off_c, 0, 83, 55
1, 1123038, Note_on_c, 0, 85, 41
1, 1123082, Note_off_c, 0, 85, 52
1, 1123092, Note_on_c, 0, 87, 48
1, 1123138, Note_on_c, 0, 60, 35
1, 1123150, Note_off_c, 0, 87, 54
1, 1123156, Note_on_c, 0, 88, 53
1, 1123189, Note_off_c, 0, 60, 57
1, 1123335, Note_on_c, 0, 61, 52
1, 1123416, Note_off_c, 0, 61, 60
1, 1123464, Note_on_c, 0, 76, 63
1, 1123496, Note_off_c, 0, 76, 59
1, 1123588, Note_on_c, 0, 61, 39
1, 1123590, Note_on_c, 0, 85, 66
1, 1123624, Note_off_c, 0, 61, 58
1, 1123726, Control_c, 0, 64, 98
1, 1123740, Control_c, 0, 64, 78
1, 1123755, Note_on_c, 0, 81, 61
1, 1123755, Control_c, 0, 64, 65
1, 1123758, Note_on_c, 0, 60, 46
1, 1123761, Note_off_c, 0, 88, 35
1, 1123770, Control_c, 0, 64, 59
1, 1123807, Control_c, 0, 64, 61
1, 1123816, Note_off_c, 0, 85, 62
1, 1123822, Control_c, 0, 64, 64
1, 1123837, Control_c, 0, 64, 67
1, 1123852, Control_c, 0, 64, 73
1, 1123866, Note_off_c, 0, 60, 63
1, 1123866, Control_c, 0, 64, 90
1, 1123881, Control_c, 0, 64, 127
1, 1123911, Note_on_c, 0, 47, 41
1, 1123942, Note_off_c, 0, 47, 50
1, 1124061, Note_on_c, 0, 80, 65
1, 1124069, Note_on_c, 0, 46, 45
1, 1124134, Control_c, 0, 64, 93
1, 1124149, Control_c, 0, 64, 74
1, 1124164, Control_c, 0, 64, 63
1, 1124176, Note_off_c, 0, 46, 54
1, 1124179, Control_c, 0, 64, 53
1, 1124194, Control_c, 0, 64, 51
1, 1124203, Note_on_c, 0, 33, 43
1, 1124208, Control_c, 0, 64, 54
1, 1124223, Control_c, 0, 64, 60
1, 1124238, Control_c, 0, 64, 66
1, 1124253, Control_c, 0, 64, 73
1, 1124264, Note_off_c, 0, 33, 58
1, 1124268, Control_c, 0, 64, 88
1, 1124282, Control_c, 0, 64, 127
1, 1124332, Note_on_c, 0, 46, 38
1, 1124346, Note_off_c, 0, 81, 20
1, 1124349, Note_on_c, 0, 78, 69
1, 1124371, Note_off_c, 0, 46, 63
1, 1124490, Note_on_c, 0, 47, 50
1, 1124533, Note_off_c, 0, 47, 61
1, 1124554, Note_off_c, 0, 80, 47
1, 1124639, Note_on_c, 0, 76, 64
1, 1124649, Note_on_c, 0, 60, 37
1, 1124679, Note_off_c, 0, 60, 54
1, 1124700, Note_off_c, 0, 78, 59
1, 1124795, Note_off_c, 0, 76, 57
1, 1124802, Note_on_c, 0, 61, 41
1, 1124883, Control_c, 0, 64, 94
1, 1124897, Control_c, 0, 64, 79
1, 1124912, Control_c, 0, 64, 69
1, 1124927, Control_c, 0, 64, 63
1, 1124939, Note_on_c, 0, 78, 70
1, 1124939, Note_on_c, 0, 74, 47
1, 1124942, Control_c, 0, 64, 57
1, 1124957, Control_c, 0, 64, 55
1, 1124972, Control_c, 0, 64, 56
1, 1124986, Control_c, 0, 64, 58
1, 1125001, Control_c, 0, 64, 61
1, 1125007, Note_off_c, 0, 61, 36
1, 1125016, Control_c, 0, 64, 64
1, 1125017, Note_off_c, 0, 74, 52
1, 1125031, Control_c, 0, 64, 69
1, 1125046, Control_c, 0, 64, 76
1, 1125061, Control_c, 0, 64, 88
1, 1125076, Control_c, 0, 64, 114
1, 1125077, Note_on_c, 0, 61, 49
1, 1125091, Control_c, 0, 64, 127
1, 1125124, Note_off_c, 0, 61, 62
1, 1125224, Note_on_c, 0, 76, 75
1, 1125245, Note_on_c, 0, 60, 52
1, 1125291, Note_off_c, 0, 60, 57
1, 1125365, Note_on_c, 0, 47, 50
1, 1125369, Note_off_c, 0, 78, 63
1, 1125391, Note_off_c, 0, 47, 57
1, 1125520, Note_on_c, 0, 46, 50
1, 1125526, Note_on_c, 0, 80, 74
1, 1125541, Control_c, 0, 64, 107
1, 1125556, Control_c, 0, 64, 89
1, 1125571, Control_c, 0, 64, 77
1, 1125586, Control_c, 0, 64, 67
1, 1125601, Control_c, 0, 64, 60
1, 1125615, Control_c, 0, 64, 51
1, 1125630, Control_c, 0, 64, 46
1, 1125633, Note_off_c, 0, 76, 56
1, 1125644, Note_off_c, 0, 46, 55
1, 1125656, Note_on_c, 0, 33, 43
1, 1125675, Control_c, 0, 64, 49
1, 1125690, Control_c, 0, 64, 56
1, 1125705, Control_c, 0, 64, 63
1, 1125720, Control_c, 0, 64, 68
1, 1125730, Note_off_c, 0, 33, 53
1, 1125735, Control_c, 0, 64, 76
1, 1125750, Control_c, 0, 64, 87
1, 1125764, Control_c, 0, 64, 104
1, 1125779, Control_c, 0, 64, 127
1, 1125800, Note_on_c, 0, 46, 37
1, 1125822, Note_on_c, 0, 83, 70
1, 1125832, Note_off_c, 0, 46, 55
1, 1125914, Control_c, 0, 64, 115
1, 1125928, Control_c, 0, 64, 90
1, 1125943, Control_c, 0, 64, 75
1, 1125949, Note_on_c, 0, 47, 56
1, 1125958, Control_c, 0, 64, 64
1, 1125972, Note_off_c, 0, 80, 50
1, 1125973, Control_c, 0, 64, 57
1, 1125988, Control_c, 0, 64, 53
1, 1126002, Control_c, 0, 64, 54
1, 1126017, Control_c, 0, 64, 56
1, 1126030, Note_off_c, 0, 47, 50
1, 1126032, Control_c, 0, 64, 59
1, 1126054, Control_c, 0, 64, 64
1, 1126069, Control_c, 0, 64, 69
1, 1126083, Control_c, 0, 64, 77
1, 1126098, Control_c, 0, 64, 94
1, 1126113, Control_c, 0, 64, 122
1, 1126114, Note_on_c, 0, 60, 39
1, 1126121, Note_on_c, 0, 86, 61
1, 1126128, Control_c, 0, 64, 127
1, 1126144, Note_off_c, 0, 60, 56
1, 1126196, Note_off_c, 0, 83, 59
1, 1126217, Control_c, 0, 64, 109
1, 1126232, Control_c, 0, 64, 94
1, 1126247, Control_c, 0, 64, 82
1, 1126249, Note_on_c, 0, 61, 50
1, 1126261, Control_c, 0, 64, 73
1, 1126276, Control_c, 0, 64, 67
1, 1126291, Control_c, 0, 64, 63
1, 1126306, Control_c, 0, 64, 58
1, 1126321, Control_c, 0, 64, 53
1, 1126335, Control_c, 0, 64, 52
1, 1126350, Note_off_c, 0, 61, 57
1, 1126350, Control_c, 0, 64, 54
1, 1126365, Control_c, 0, 64, 58
1, 1126379, Control_c, 0, 64, 63
1, 1126394, Control_c, 0, 64, 67
1, 1126405, Note_on_c, 0, 76, 44
1, 1126409, Control_c, 0, 64, 75
1, 1126422, Note_on_c, 0, 85, 55
1, 1126424, Control_c, 0, 64, 86
1, 1126439, Control_c, 0, 64, 99
1, 1126455, Control_c, 0, 64, 108
1, 1126462, Note_off_c, 0, 76, 44
1, 1126470, Control_c, 0, 64, 109
1, 1126484, Control_c, 0, 64, 107
1, 1126495, Note_off_c, 0, 86, 48
1, 1126499, Control_c, 0, 64, 102
1, 1126514, Control_c, 0, 64, 97
1, 1126529, Control_c, 0, 64, 92
1, 1126544, Control_c, 0, 64, 88
1, 1126558, Control_c, 0, 64, 82
1, 1126573, Control_c, 0, 64, 78
1, 1126576, Note_on_c, 0, 64, 42
1, 1126578, Note_on_c, 0, 83, 52
1, 1126588, Control_c, 0, 64, 74
1, 1126603, Control_c, 0, 64, 70
1, 1126618, Control_c, 0, 64, 66
1, 1126629, Note_off_c, 0, 85, 31
1, 1126632, Control_c, 0, 64, 63
1, 1126647, Control_c, 0, 64, 61
1, 1126662, Control_c, 0, 64, 60
1, 1126677, Control_c, 0, 64, 57
1, 1126692, Control_c, 0, 64, 53
1, 1126706, Control_c, 0, 64, 50
1, 1126721, Control_c, 0, 64, 48
1, 1126736, Control_c, 0, 64, 47
1, 1126822, Note_on_c, 0, 73, 33
1, 1126823, Note_off_c, 0, 64, 49
1, 1126829, Note_on_c, 0, 81, 45
1, 1126852, Note_off_c, 0, 83, 54
1, 1126891, Control_c, 0, 64, 48
1, 1126906, Control_c, 0, 64, 48
1, 1126921, Control_c, 0, 64, 49
1, 1126936, Control_c, 0, 64, 52
1, 1126951, Control_c, 0, 64, 56
1, 1126966, Control_c, 0, 64, 61
1, 1126980, Note_off_c, 0, 73, 57
1, 1126981, Control_c, 0, 64, 66
1, 1126996, Control_c, 0, 64, 76
1, 1127010, Control_c, 0, 64, 127
1, 1127034, Note_off_c, 0, 81, 60
1, 1127353, Note_on_c, 0, 78, 71
1, 1127353, Note_on_c, 0, 82, 79
1, 1127371, Note_on_c, 0, 42, 57
1, 1127379, Note_on_c, 0, 30, 50
1, 1127425, Control_c, 0, 64, 101
1, 1127440, Control_c, 0, 64, 84
1, 1127455, Control_c, 0, 64, 74
1, 1127470, Control_c, 0, 64, 66
1, 1127485, Control_c, 0, 64, 60
1, 1127499, Control_c, 0, 64, 52
1, 1127514, Control_c, 0, 64, 46
1, 1127529, Control_c, 0, 64, 45
1, 1127567, Control_c, 0, 64, 50
1, 1127581, Control_c, 0, 64, 61
1, 1127596, Control_c, 0, 64, 67
1, 1127611, Control_c, 0, 64, 78
1, 1127625, Control_c, 0, 64, 113
1, 1127640, Control_c, 0, 64, 127
1, 1127720, Note_off_c, 0, 42, 56
1, 1127732, Note_on_c, 0, 29, 74
1, 1127777, Note_off_c, 0, 30, 56
1, 1127789, Control_c, 0, 64, 98
1, 1127803, Control_c, 0, 64, 70
1, 1127818, Note_on_c, 0, 80, 73
1, 1127818, Control_c, 0, 64, 45
1, 1127833, Control_c, 0, 64, 0
1, 1127862, Note_off_c, 0, 78, 59
1, 1127902, Note_off_c, 0, 82, 63
1, 1127922, Control_c, 0, 64, 29
1, 1127937, Control_c, 0, 64, 64
1, 1127952, Control_c, 0, 64, 92
1, 1127967, Control_c, 0, 64, 127
1, 1127970, Note_off_c, 0, 29, 58
1, 1128090, Note_on_c, 0, 48, 76
1, 1128134, Note_on_c, 0, 84, 60
1, 1128309, Note_on_c, 0, 81, 73
1, 1128328, Note_off_c, 0, 48, 62
1, 1128443, Note_on_c, 0, 48, 81
1, 1128443, Note_off_c, 0, 80, 44
1, 1128483, Note_on_c, 0, 72, 58
1, 1128496, Note_off_c, 0, 81, 56
1, 1128514, Note_off_c, 0, 48, 62
1, 1128623, Note_on_c, 0, 81, 70
1, 1128651, Note_off_c, 0, 72, 49
1, 1128774, Note_off_c, 0, 84, 39
1, 1128900, Note_on_c, 0, 72, 73
1, 1129077, Note_on_c, 0, 71, 70
1, 1129152, Note_off_c, 0, 81, 32
1, 1129179, Note_off_c, 0, 71, 61
1, 1129205, Note_on_c, 0, 84, 77
1, 1129270, Note_off_c, 0, 84, 62
1, 1129347, Note_on_c, 0, 69, 76
1, 1129359, Note_on_c, 0, 83, 72
1, 1129528, Note_off_c, 0, 72, 39
1, 1129598, Note_on_c, 0, 65, 67
1, 1129644, Note_on_c, 0, 96, 52
1, 1129672, Control_c, 0, 64, 105
1, 1129687, Control_c, 0, 64, 91
1, 1129702, Control_c, 0, 64, 82
1, 1129717, Control_c, 0, 64, 75
1, 1129732, Control_c, 0, 64, 69
1, 1129747, Control_c, 0, 64, 65
1, 1129762, Control_c, 0, 64, 62
1, 1129770, Note_off_c, 0, 69, 58
1, 1129771, Note_off_c, 0, 83, 27
1, 1129776, Control_c, 0, 64, 61
1, 1129798, Control_c, 0, 64, 62
1, 1129803, Note_on_c, 0, 95, 77
1, 1129813, Control_c, 0, 64, 64
1, 1129828, Control_c, 0, 64, 68
1, 1129843, Control_c, 0, 64, 76
1, 1129857, Control_c, 0, 64, 92
1, 1129872, Control_c, 0, 64, 127
1, 1129874, Note_off_c, 0, 96, 59
1, 1129935, Note_on_c, 0, 64, 82
1, 1129940, Note_on_c, 0, 91, 75
1, 1129944, Note_off_c, 0, 95, 64
1, 1129982, Note_off_c, 0, 91, 62
1, 1129993, Note_off_c, 0, 65, 57
1, 1130087, Note_on_c, 0, 84, 80
1, 1130124, Control_c, 0, 64, 100
1, 1130139, Control_c, 0, 64, 79
1, 1130154, Control_c, 0, 64, 68
1, 1130168, Control_c, 0, 64, 65
1, 1130183, Control_c, 0, 64, 69
1, 1130198, Control_c, 0, 64, 77
1, 1130213, Control_c, 0, 64, 88
1, 1130227, Control_c, 0, 64, 98
1, 1130233, Note_on_c, 0, 62, 74
1, 1130242, Control_c, 0, 64, 99
1, 1130246, Note_on_c, 0, 83, 70
1, 1130257, Control_c, 0, 64, 89
1, 1130272, Control_c, 0, 64, 73
1, 1130287, Note_off_c, 0, 84, 52
1, 1130287, Control_c, 0, 64, 63
1, 1130301, Control_c, 0, 64, 54
1, 1130303, Note_off_c, 0, 64, 61
1, 1130316, Control_c, 0, 64, 50
1, 1130346, Control_c, 0, 64, 54
1, 1130361, Control_c, 0, 64, 61
1, 1130370, Note_off_c, 0, 83, 63
1, 1130370, Note_on_c, 0, 79, 72
1, 1130376, Control_c, 0, 64, 67
1, 1130391, Control_c, 0, 64, 75
1, 1130405, Control_c, 0, 64, 87
1, 1130412, Note_off_c, 0, 79, 61
1, 1130419, Control_c, 0, 64, 105
1, 1130436, Control_c, 0, 64, 127
1, 1130524, Note_on_c, 0, 60, 71
1, 1130539, Control_c, 0, 64, 101
1, 1130549, Note_on_c, 0, 71, 66
1, 1130561, Control_c, 0, 64, 80
1, 1130575, Note_off_c, 0, 62, 58
1, 1130576, Control_c, 0, 64, 68
1, 1130591, Control_c, 0, 64, 61
1, 1130605, Control_c, 0, 64, 56
1, 1130620, Control_c, 0, 64, 57
1, 1130635, Control_c, 0, 64, 60
1, 1130650, Control_c, 0, 64, 64
1, 1130665, Note_off_c, 0, 71, 58
1, 1130665, Control_c, 0, 64, 69
1, 1130680, Control_c, 0, 64, 79
1, 1130684, Note_on_c, 0, 72, 59
1, 1130695, Control_c, 0, 64, 100
1, 1130710, Control_c, 0, 64, 127
1, 1130726, Note_off_c, 0, 72, 61
1, 1130737, Note_off_c, 0, 60, 59
1, 1130850, Note_on_c, 0, 62, 67
1, 1130857, Control_c, 0, 64, 109
1, 1130872, Control_c, 0, 64, 87
1, 1130887, Control_c, 0, 64, 74
1, 1130902, Control_c, 0, 64, 67
1, 1130916, Control_c, 0, 64, 63
1, 1130931, Control_c, 0, 64, 59
1, 1130946, Control_c, 0, 64, 55
1, 1130961, Control_c, 0, 64, 51
1, 1130976, Control_c, 0, 64, 48
1, 1130990, Control_c, 0, 64, 47
1, 1130996, Note_on_c, 0, 63, 60
1, 1131005, Control_c, 0, 64, 47
1, 1131020, Control_c, 0, 64, 51
1, 1131035, Control_c, 0, 64, 59
1, 1131050, Control_c, 0, 64, 64
1, 1131065, Control_c, 0, 64, 70
1, 1131079, Control_c, 0, 64, 79
1, 1131094, Note_off_c, 0, 63, 63
1, 1131094, Control_c, 0, 64, 98
1, 1131109, Control_c, 0, 64, 127
1, 1131134, Note_on_c, 0, 60, 74
1, 1131139, Note_on_c, 0, 51, 53
1, 1131178, Note_off_c, 0, 51, 63
1, 1131197, Control_c, 0, 64, 87
1, 1131199, Note_off_c, 0, 62, 62
1, 1131212, Control_c, 0, 64, 67
1, 1131227, Control_c, 0, 64, 53
1, 1131243, Control_c, 0, 64, 43
1, 1131258, Control_c, 0, 64, 44
1, 1131272, Note_on_c, 0, 49, 70
1, 1131272, Control_c, 0, 64, 49
1, 1131294, Control_c, 0, 64, 55
1, 1131309, Control_c, 0, 64, 63
1, 1131324, Control_c, 0, 64, 69
1, 1131339, Control_c, 0, 64, 80
1, 1131354, Control_c, 0, 64, 109
1, 1131369, Control_c, 0, 64, 127
1, 1131413, Control_c, 0, 64, 102
1, 1131428, Control_c, 0, 64, 74
1, 1131429, Note_on_c, 0, 64, 79
1, 1131431, Note_on_c, 0, 37, 60
1, 1131443, Control_c, 0, 64, 59
1, 1131450, Note_off_c, 0, 49, 62
1, 1131458, Control_c, 0, 64, 43
1, 1131472, Control_c, 0, 64, 48
1, 1131480, Note_off_c, 0, 60, 62
1, 1131486, Note_off_c, 0, 37, 62
1, 1131487, Control_c, 0, 64, 58
1, 1131502, Control_c, 0, 64, 66
1, 1131517, Control_c, 0, 64, 76
1, 1131532, Control_c, 0, 64, 106
1, 1131546, Control_c, 0, 64, 127
1, 1131568, Note_on_c, 0, 55, 75
1, 1131576, Control_c, 0, 64, 96
1, 1131591, Control_c, 0, 64, 64
1, 1131599, Note_on_c, 0, 53, 47
1, 1131606, Control_c, 0, 64, 0
1, 1131650, Control_c, 0, 64, 23
1, 1131664, Control_c, 0, 64, 55
1, 1131669, Note_off_c, 0, 55, 48
1, 1131679, Control_c, 0, 64, 68
1, 1131694, Control_c, 0, 64, 80
1, 1131708, Note_off_c, 0, 53, 25
1, 1131709, Control_c, 0, 64, 100
1, 1131718, Note_on_c, 0, 40, 58
1, 1131721, Note_on_c, 0, 67, 75
1, 1131724, Control_c, 0, 64, 96
1, 1131738, Control_c, 0, 64, 75
1, 1131753, Control_c, 0, 64, 60
1, 1131756, Note_off_c, 0, 40, 64
1, 1131768, Control_c, 0, 64, 42
1, 1131783, Control_c, 0, 64, 52
1, 1131793, Note_off_c, 0, 64, 60
1, 1131798, Control_c, 0, 64, 61
1, 1131813, Control_c, 0, 64, 67
1, 1131828, Control_c, 0, 64, 75
1, 1131843, Control_c, 0, 64, 82
1, 1131857, Control_c, 0, 64, 75
1, 1131860, Note_on_c, 0, 46, 56
1, 1131872, Control_c, 0, 64, 64
1, 1131887, Control_c, 0, 64, 45
1, 1131902, Control_c, 0, 64, 12
1, 1131917, Control_c, 0, 64, 0
1, 1131946, Control_c, 0, 64, 46
1, 1131960, Note_off_c, 0, 46, 63
1, 1131961, Control_c, 0, 64, 62
1, 1131976, Control_c, 0, 64, 68
1, 1131991, Control_c, 0, 64, 74
1, 1132006, Control_c, 0, 64, 79
1, 1132020, Control_c, 0, 64, 81
1, 1132030, Note_on_c, 0, 62, 49
1, 1132043, Note_on_c, 0, 70, 66
1, 1132043, Control_c, 0, 64, 81
1, 1132058, Control_c, 0, 64, 77
1, 1132073, Control_c, 0, 64, 73
1, 1132077, Note_off_c, 0, 62, 61
1, 1132088, Control_c, 0, 64, 69
1, 1132095, Note_off_c, 0, 67, 56
1, 1132102, Control_c, 0, 64, 67
1, 1132117, Control_c, 0, 64, 66
1, 1132132, Control_c, 0, 64, 65
1, 1132147, Control_c, 0, 64, 63
1, 1132162, Control_c, 0, 64, 62
1, 1132176, Control_c, 0, 64, 61
1, 1132187, Note_on_c, 0, 63, 47
1, 1132206, Control_c, 0, 64, 60
1, 1132221, Control_c, 0, 64, 59
1, 1132236, Control_c, 0, 64, 59
1, 1132245, Note_off_c, 0, 63, 59
1, 1132251, Control_c, 0, 64, 58
1, 1132266, Control_c, 0, 64, 57
1, 1132281, Control_c, 0, 64, 55
1, 1132295, Control_c, 0, 64, 54
1, 1132310, Control_c, 0, 64, 53
1, 1132359, Note_on_c, 0, 47, 47
1, 1132362, Note_on_c, 0, 69, 54
1, 1132384, Control_c, 0, 64, 52
1, 1132399, Control_c, 0, 64, 51
1, 1132414, Control_c, 0, 64, 51
1, 1132429, Control_c, 0, 64, 50
1, 1132443, Control_c, 0, 64, 50
1, 1132458, Control_c, 0, 64, 48
1, 1132473, Control_c, 0, 64, 47
1, 1132487, Control_c, 0, 64, 46
1, 1132489, Note_off_c, 0, 47, 35
1, 1132530, Note_on_c, 0, 48, 47
1, 1132537, Note_on_c, 0, 67, 55
1, 1132576, Control_c, 0, 64, 46
1, 1132578, Note_off_c, 0, 70, 35
1, 1132591, Control_c, 0, 64, 45
1, 1132606, Control_c, 0, 64, 45
1, 1132610, Note_off_c, 0, 69, 49
1, 1132621, Control_c, 0, 64, 44
1, 1132635, Control_c, 0, 64, 44
1, 1132650, Control_c, 0, 64, 43
1, 1132695, Control_c, 0, 64, 43
1, 1132716, Note_on_c, 0, 50, 52
1, 1132745, Note_on_c, 0, 65, 49
1, 1132791, Control_c, 0, 64, 42
1, 1132806, Control_c, 0, 64, 41
1, 1132835, Control_c, 0, 64, 41
1, 1132841, Note_off_c, 0, 67, 52
1, 1132916, Note_on_c, 0, 52, 60
1, 1132954, Note_off_c, 0, 48, 26
1, 1132955, Control_c, 0, 64, 40
1, 1132970, Control_c, 0, 64, 40
1, 1132985, Control_c, 0, 64, 39
1, 1133053, Note_off_c, 0, 50, 36
1, 1133118, Control_c, 0, 64, 39
1, 1133134, Note_off_c, 0, 65, 54
1, 1133147, Note_on_c, 0, 53, 47
1, 1133238, Note_off_c, 0, 52, 52
1, 1133368, Note_on_c, 0, 56, 51
1, 1133396, Note_off_c, 0, 53, 55
1, 1133444, Control_c, 0, 64, 38
1, 1133489, Control_c, 0, 64, 38
1, 1133518, Control_c, 0, 64, 37
1, 1133586, Control_c, 0, 64, 37
1, 1133629, Note_on_c, 0, 52, 41
1, 1133630, Control_c, 0, 64, 36
1, 1133631, Note_on_c, 0, 57, 37
1, 1133631, Note_off_c, 0, 56, 49
1, 1133646, Control_c, 0, 64, 36
1, 1133649, Note_on_c, 0, 41, 29
1, 1133661, Control_c, 0, 64, 35
1, 1133687, Note_off_c, 0, 52, 55
1, 1133692, Note_off_c, 0, 41, 51
1, 1133740, Note_off_c, 0, 57, 50
1, 1133747, Note_on_c, 0, 60, 46
1, 1133764, Control_c, 0, 64, 34
1, 1133807, Note_off_c, 0, 60, 59
1, 1133840, Note_on_c, 0, 64, 43
1, 1133893, Note_off_c, 0, 64, 56
1, 1133915, Note_on_c, 0, 63, 40
1, 1133980, Note_off_c, 0, 63, 58
1, 1133986, Control_c, 0, 64, 34
1, 1134005, Note_on_c, 0, 59, 47
1, 1134008, Note_on_c, 0, 51, 42
1, 1134022, Note_on_c, 0, 44, 24
1, 1134039, Note_off_c, 0, 51, 59
1, 1134041, Note_off_c, 0, 59, 64
1, 1134050, Note_off_c, 0, 44, 52
1, 1134219, Note_on_c, 0, 60, 58
1, 1134290, Control_c, 0, 64, 33
1, 1134293, Note_off_c, 0, 60, 64
1, 1134299, Note_on_c, 0, 59, 65
1, 1134305, Control_c, 0, 64, 32
1, 1134320, Control_c, 0, 64, 30
1, 1134335, Control_c, 0, 64, 29
1, 1134349, Control_c, 0, 64, 27
1, 1134358, Note_off_c, 0, 59, 64
1, 1134364, Note_on_c, 0, 41, 62
1, 1134364, Note_on_c, 0, 52, 59
1, 1134364, Control_c, 0, 64, 25
1, 1134366, Note_on_c, 0, 57, 69
1, 1134379, Control_c, 0, 64, 22
1, 1134388, Note_off_c, 0, 52, 65
1, 1134394, Control_c, 0, 64, 19
1, 1134396, Note_off_c, 0, 41, 64
1, 1134409, Control_c, 0, 64, 17
1, 1134423, Control_c, 0, 64, 16
1, 1134428, Note_on_c, 0, 60, 77
1, 1134431, Note_off_c, 0, 57, 60
1, 1134487, Note_off_c, 0, 60, 65
1, 1134503, Note_on_c, 0, 64, 65
1, 1134551, Note_on_c, 0, 63, 66
1, 1134563, Note_off_c, 0, 64, 54
1, 1134616, Note_off_c, 0, 63, 62
1, 1134623, Note_on_c, 0, 51, 58
1, 1134623, Note_on_c, 0, 59, 64
1, 1134627, Note_on_c, 0, 44, 49
1, 1134645, Note_off_c, 0, 51, 60
1, 1134651, Note_off_c, 0, 59, 66
1, 1134654, Note_off_c, 0, 44, 60
1, 1134782, Note_on_c, 0, 60, 56
1, 1134837, Note_off_c, 0, 60, 59
1, 1134856, Note_on_c, 0, 59, 56
1, 1134900, Note_off_c, 0, 59, 62
1, 1134919, Note_on_c, 0, 52, 54
1, 1134925, Note_on_c, 0, 41, 51
1, 1134928, Note_on_c, 0, 57, 56
1, 1134943, Control_c, 0, 64, 15
1, 1134947, Note_off_c, 0, 52, 65
1, 1134955, Note_off_c, 0, 41, 58
1, 1134982, Note_off_c, 0, 57, 52
1, 1134987, Control_c, 0, 64, 14
1, 1135011, Note_on_c, 0, 60, 45
1, 1135059, Note_off_c, 0, 60, 64
1, 1135068, Control_c, 0, 64, 13
1, 1135083, Control_c, 0, 64, 11
1, 1135083, Note_on_c, 0, 64, 47
1, 1135098, Control_c, 0, 64, 9
1, 1135113, Control_c, 0, 64, 0
1, 1135133, Note_off_c, 0, 64, 58
1, 1135166, Note_on_c, 0, 63, 37
1, 1135224, Note_off_c, 0, 63, 59
1, 1135249, Note_on_c, 0, 59, 53
1, 1135256, Note_on_c, 0, 51, 41
1, 1135265, Note_on_c, 0, 44, 30
1, 1135283, Note_off_c, 0, 51, 51
1, 1135283, Note_off_c, 0, 59, 65
1, 1135297, Note_off_c, 0, 44, 49
1, 1135458, Note_on_c, 0, 60, 51
1, 1135531, Note_off_c, 0, 60, 55
1, 1135555, Note_on_c, 0, 59, 44
1, 1135703, Note_off_c, 0, 59, 54
1, 1135709, Note_on_c, 0, 52, 36
1, 1135713, Note_on_c, 0, 41, 34
1, 1135714, Note_on_c, 0, 57, 46
1, 1135786, Control_c, 0, 64, 27
1, 1135801, Control_c, 0, 64, 43
1, 1135816, Control_c, 0, 64, 52
1, 1135831, Control_c, 0, 64, 57
1, 1135846, Control_c, 0, 64, 61
1, 1135861, Control_c, 0, 64, 64
1, 1135876, Control_c, 0, 64, 69
1, 1135891, Control_c, 0, 64, 78
1, 1135906, Control_c, 0, 64, 99
1, 1135920, Control_c, 0, 64, 127
1, 1135922, Note_off_c, 0, 57, 45
1, 1135951, Note_off_c, 0, 41, 38
1, 1135976, Note_off_c, 0, 52, 41
1, 1136379, Note_on_c, 0, 72, 96
1, 1136386, Note_on_c, 0, 76, 95
1, 1136386, Note_on_c, 0, 77, 94
1, 1136395, Control_c, 0, 64, 109
1, 1136409, Control_c, 0, 64, 75
1, 1136424, Control_c, 0, 64, 49
1, 1136437, Note_off_c, 0, 77, 57
1, 1136439, Control_c, 0, 64, 0
1, 1136469, Note_off_c, 0, 72, 58
1, 1136497, Note_off_c, 0, 76, 62
1, 1137001, Note_on_c, 0, 76, 108
1, 1137005, Note_on_c, 0, 72, 90
1, 1137091, Note_on_c, 0, 74, 99
1, 1137093, Note_on_c, 0, 70, 81
1, 1137105, Note_off_c, 0, 72, 65
1, 1137112, Note_off_c, 0, 76, 64
1, 1137181, Note_on_c, 0, 73, 97
1, 1137185, Note_off_c, 0, 74, 66
1, 1137187, Note_on_c, 0, 69, 73
1, 1137193, Note_off_c, 0, 70, 61
1, 1137360, Control_c, 0, 64, 36
1, 1137374, Control_c, 0, 64, 53
1, 1137389, Control_c, 0, 64, 61
1, 1137402, Note_off_c, 0, 69, 64
1, 1137404, Control_c, 0, 64, 66
1, 1137419, Control_c, 0, 64, 74
1, 1137433, Control_c, 0, 64, 107
1, 1137438, Note_off_c, 0, 73, 60
1, 1137448, Control_c, 0, 64, 127
1, 1137794, Note_on_c, 0, 64, 45
1, 1137900, Note_on_c, 0, 63, 59
1, 1137944, Note_off_c, 0, 64, 37
1, 1137986, Note_on_c, 0, 62, 67
1, 1138049, Note_off_c, 0, 63, 50
1, 1138068, Note_on_c, 0, 61, 66
1, 1138080, Note_off_c, 0, 62, 59
1, 1138108, Control_c, 0, 64, 122
1, 1138123, Control_c, 0, 64, 98
1, 1138134, Note_off_c, 0, 61, 62
1, 1138138, Control_c, 0, 64, 87
1, 1138147, Note_on_c, 0, 52, 55
1, 1138153, Note_on_c, 0, 41, 50
1, 1138153, Control_c, 0, 64, 79
1, 1138153, Note_on_c, 0, 60, 62
1, 1138168, Control_c, 0, 64, 73
1, 1138182, Note_off_c, 0, 52, 66
1, 1138182, Control_c, 0, 64, 66
1, 1138183, Note_off_c, 0, 41, 58
1, 1138197, Control_c, 0, 64, 60
1, 1138212, Control_c, 0, 64, 57
1, 1138222, Note_off_c, 0, 60, 57
1, 1138229, Note_on_c, 0, 63, 61
1, 1138242, Control_c, 0, 64, 56
1, 1138256, Control_c, 0, 64, 54
1, 1138271, Control_c, 0, 64, 50
1, 1138286, Control_c, 0, 64, 45
1, 1138301, Control_c, 0, 64, 43
1, 1138302, Note_off_c, 0, 63, 61
1, 1138315, Control_c, 0, 64, 42
1, 1138319, Note_on_c, 0, 67, 50
1, 1138330, Control_c, 0, 64, 42
1, 1138345, Control_c, 0, 64, 41
1, 1138360, Control_c, 0, 64, 40
1, 1138363, Note_off_c, 0, 67, 60
1, 1138375, Control_c, 0, 64, 38
1, 1138378, Note_on_c, 0, 66, 47
1, 1138389, Control_c, 0, 64, 36
1, 1138404, Control_c, 0, 64, 35
1, 1138419, Control_c, 0, 64, 33
1, 1138435, Control_c, 0, 64, 31
1, 1138439, Note_off_c, 0, 66, 58
1, 1138450, Control_c, 0, 64, 30
1, 1138456, Note_on_c, 0, 62, 53
1, 1138460, Note_on_c, 0, 53, 40
1, 1138465, Control_c, 0, 64, 28
1, 1138469, Note_on_c, 0, 44, 32
1, 1138479, Control_c, 0, 64, 26
1, 1138494, Note_off_c, 0, 62, 64
1, 1138494, Control_c, 0, 64, 24
1, 1138496, Note_off_c, 0, 53, 59
1, 1138505, Note_off_c, 0, 44, 57
1, 1138509, Control_c, 0, 64, 22
1, 1138524, Control_c, 0, 64, 20
1, 1138538, Control_c, 0, 64, 19
1, 1138553, Control_c, 0, 64, 17
1, 1138568, Control_c, 0, 64, 15
1, 1138583, Control_c, 0, 64, 13
1, 1138598, Control_c, 0, 64, 11
1, 1138612, Control_c, 0, 64, 0
1, 1138698, Note_on_c, 0, 63, 49
1, 1138765, Note_off_c, 0, 63, 58
1, 1138785, Note_on_c, 0, 62, 51
1, 1138825, Note_off_c, 0, 62, 65
1, 1138829, Note_on_c, 0, 41, 51
1, 1138830, Note_on_c, 0, 52, 51
1, 1138843, Note_on_c, 0, 60, 66
1, 1138857, Note_off_c, 0, 52, 63
1, 1138860, Note_off_c, 0, 41, 61
1, 1138910, Note_on_c, 0, 63, 69
1, 1138917, Note_off_c, 0, 60, 59
1, 1138972, Note_off_c, 0, 63, 63
1, 1138981, Note_on_c, 0, 67, 73
1, 1139038, Note_on_c, 0, 66, 75
1, 1139053, Note_off_c, 0, 67, 59
1, 1139092, Note_on_c, 0, 53, 69
1, 1139096, Note_on_c, 0, 44, 59
1, 1139099, Note_off_c, 0, 66, 63
1, 1139103, Note_on_c, 0, 62, 76
1, 1139124, Note_off_c, 0, 53, 65
1, 1139128, Note_off_c, 0, 44, 64
1, 1139149, Note_off_c, 0, 62, 60
1, 1139163, Note_on_c, 0, 65, 77
1, 1139229, Note_on_c, 0, 61, 75
1, 1139229, Note_off_c, 0, 65, 61
1, 1139288, Note_on_c, 0, 58, 77
1, 1139291, Note_off_c, 0, 61, 62
1, 1139355, Note_off_c, 0, 58, 63
1, 1139360, Note_on_c, 0, 57, 78
1, 1139362, Note_on_c, 0, 52, 64
1, 1139364, Note_on_c, 0, 41, 62
1, 1139382, Note_off_c, 0, 52, 64
1, 1139391, Note_off_c, 0, 41, 56
1, 1139411, Note_off_c, 0, 57, 53
1, 1139426, Note_on_c, 0, 60, 75
1, 1139487, Note_off_c, 0, 60, 64
1, 1139500, Note_on_c, 0, 64, 66
1, 1139560, Note_on_c, 0, 63, 60
1, 1139568, Note_off_c, 0, 64, 58
1, 1139629, Note_off_c, 0, 63, 61
1, 1139636, Note_on_c, 0, 59, 69
1, 1139641, Note_on_c, 0, 51, 58
1, 1139655, Note_on_c, 0, 44, 40
1, 1139667, Note_off_c, 0, 59, 66
1, 1139669, Note_off_c, 0, 51, 64
1, 1139685, Note_off_c, 0, 44, 51
1, 1139831, Note_on_c, 0, 60, 59
1, 1139901, Note_off_c, 0, 60, 56
1, 1139921, Note_on_c, 0, 59, 52
1, 1140051, Control_c, 0, 64, 13
1, 1140052, Note_off_c, 0, 59, 59
1, 1140055, Note_on_c, 0, 52, 39
1, 1140063, Note_on_c, 0, 57, 55
1, 1140066, Control_c, 0, 64, 25
1, 1140070, Note_on_c, 0, 41, 34
1, 1140081, Control_c, 0, 64, 35
1, 1140096, Control_c, 0, 64, 44
1, 1140111, Control_c, 0, 64, 51
1, 1140125, Control_c, 0, 64, 57
1, 1140140, Control_c, 0, 64, 61
1, 1140155, Control_c, 0, 64, 65
1, 1140170, Control_c, 0, 64, 72
1, 1140184, Control_c, 0, 64, 91
1, 1140199, Control_c, 0, 64, 127
1, 1140220, Note_off_c, 0, 57, 61
1, 1140252, Note_off_c, 0, 41, 39
1, 1140296, Note_off_c, 0, 52, 43
1, 1140591, Control_c, 0, 64, 106
1, 1140592, Note_on_c, 0, 76, 106
1, 1140596, Note_on_c, 0, 72, 93
1, 1140606, Control_c, 0, 64, 80
1, 1140621, Control_c, 0, 64, 63
1, 1140636, Control_c, 0, 64, 32
1, 1140651, Note_off_c, 0, 76, 58
1, 1140651, Control_c, 0, 64, 0
1, 1140662, Note_off_c, 0, 72, 63
1, 1141049, Note_on_c, 0, 76, 113
1, 1141064, Note_on_c, 0, 72, 96
1, 1141118, Note_off_c, 0, 76, 0
1, 1141139, Note_on_c, 0, 74, 93
1, 1141140, Note_on_c, 0, 70, 78
1, 1141146, Poly_aftertouch_c, 0, 76, 0
1, 1141149, Note_off_c, 0, 72, 62
1, 1141215, Note_off_c, 0, 70, 64
1, 1141216, Note_on_c, 0, 69, 73
1, 1141223, Note_off_c, 0, 74, 67
1, 1141226, Note_on_c, 0, 73, 88
1, 1141340, Control_c, 0, 64, 60
1, 1141355, Control_c, 0, 64, 74
1, 1141370, Control_c, 0, 64, 127
1, 1141405, Note_off_c, 0, 73, 62
1, 1141412, Note_off_c, 0, 69, 61
1, 1141526, Note_on_c, 0, 76, 111
1, 1141530, Note_on_c, 0, 72, 106
1, 1141533, Control_c, 0, 64, 115
1, 1141538, Note_on_c, 0, 74, 72
1, 1141539, Note_off_c, 0, 74, 127
1, 1141548, Control_c, 0, 64, 64
1, 1141563, Control_c, 0, 64, 0
1, 1141609, Note_on_c, 0, 74, 98
1, 1141610, Note_on_c, 0, 70, 85
1, 1141621, Note_off_c, 0, 72, 64
1, 1141629, Note_off_c, 0, 76, 66
1, 1141685, Note_on_c, 0, 69, 72
1, 1141692, Note_on_c, 0, 73, 99
1, 1141695, Note_off_c, 0, 74, 68
1, 1141701, Note_off_c, 0, 70, 60
1, 1141837, Control_c, 0, 64, 91
1, 1141852, Control_c, 0, 64, 127
1, 1141876, Note_off_c, 0, 73, 62
1, 1141885, Note_off_c, 0, 69, 62
1, 1141975, Note_on_c, 0, 76, 109
1, 1141981, Note_on_c, 0, 72, 106
1, 1142000, Control_c, 0, 64, 82
1, 1142015, Control_c, 0, 64, 44
1, 1142029, Control_c, 0, 64, 0
1, 1142064, Note_on_c, 0, 74, 96
1, 1142072, Note_on_c, 0, 70, 81
1, 1142094, Note_off_c, 0, 76, 61
1, 1142094, Note_off_c, 0, 72, 65
1, 1142168, Note_on_c, 0, 69, 76
1, 1142168, Note_on_c, 0, 73, 100
1, 1142170, Note_off_c, 0, 74, 68
1, 1142188, Note_off_c, 0, 70, 63
1, 1142222, Control_c, 0, 64, 17
1, 1142237, Control_c, 0, 64, 62
1, 1142252, Control_c, 0, 64, 78
1, 1142267, Control_c, 0, 64, 127
1, 1142276, Note_off_c, 0, 69, 65
1, 1142311, Note_off_c, 0, 73, 57
1, 1142586, Control_c, 0, 64, 122
1, 1142595, Note_on_c, 0, 52, 99
1, 1142601, Control_c, 0, 64, 68
1, 1142601, Note_on_c, 0, 41, 99
1, 1142616, Control_c, 0, 64, 0
1, 1142617, Note_on_c, 0, 95, 111
1, 1142621, Note_on_c, 0, 93, 94
1, 1142675, Control_c, 0, 64, 57
1, 1142690, Control_c, 0, 64, 72
1, 1142690, Note_off_c, 0, 95, 63
1, 1142704, Note_off_c, 0, 93, 62
1, 1142705, Control_c, 0, 64, 127
1, 1142739, Note_off_c, 0, 41, 63
1, 1142741, Note_on_c, 0, 96, 104
1, 1142755, Note_on_c, 0, 93, 41
1, 1142768, Note_off_c, 0, 52, 68
1, 1142782, Note_off_c, 0, 93, 34
1, 1142789, Note_off_c, 0, 96, 67
1, 1142833, Note_on_c, 0, 100, 101
1, 1142911, Note_on_c, 0, 99, 97
1, 1142929, Note_on_c, 0, 98, 86
1, 1142945, Note_off_c, 0, 100, 63
1, 1142955, Note_off_c, 0, 99, 63
1, 1142964, Note_off_c, 0, 98, 64
1, 1142970, Note_on_c, 0, 97, 23
1, 1142971, Note_off_c, 0, 97, 127
1, 1142990, Note_on_c, 0, 66, 84
1, 1142991, Note_on_c, 0, 56, 81
1, 1142992, Note_on_c, 0, 95, 96
1, 1143014, Note_off_c, 0, 66, 68
1, 1143018, Note_off_c, 0, 56, 69
1, 1143046, Note_off_c, 0, 95, 66
1, 1143061, Note_on_c, 0, 98, 99
1, 1143133, Note_on_c, 0, 92, 100
1, 1143149, Control_c, 0, 64, 82
1, 1143154, Note_off_c, 0, 98, 66
1, 1143164, Control_c, 0, 64, 62
1, 1143178, Control_c, 0, 64, 15
1, 1143193, Control_c, 0, 64, 0
1, 1143199, Note_on_c, 0, 95, 94
1, 1143223, Note_off_c, 0, 92, 65
1, 1143239, Control_c, 0, 64, 25
1, 1143250, Note_on_c, 0, 41, 87
1, 1143253, Control_c, 0, 64, 63
1, 1143259, Note_on_c, 0, 52, 86
1, 1143275, Control_c, 0, 64, 90
1, 1143280, Note_off_c, 0, 95, 63
1, 1143284, Note_on_c, 0, 88, 92
1, 1143287, Note_off_c, 0, 41, 66
1, 1143290, Control_c, 0, 64, 127
1, 1143306, Note_off_c, 0, 52, 62
1, 1143323, Note_off_c, 0, 88, 66
1, 1143360, Note_on_c, 0, 88, 93
1, 1143373, Note_on_c, 0, 53, 76
1, 1143395, Note_on_c, 0, 52, 40
1, 1143396, Note_off_c, 0, 52, 127
1, 1143431, Note_on_c, 0, 81, 86
1, 1143443, Note_on_c, 0, 54, 83
1, 1143444, Note_off_c, 0, 53, 64
1, 1143447, Note_off_c, 0, 88, 64
1, 1143499, Note_on_c, 0, 84, 93
1, 1143507, Note_on_c, 0, 55, 79
1, 1143509, Note_off_c, 0, 81, 48
1, 1143527, Control_c, 0, 64, 80
1, 1143539, Note_off_c, 0, 54, 62
1, 1143542, Control_c, 0, 64, 59
1, 1143557, Control_c, 0, 64, 0
1, 1143570, Note_on_c, 0, 88, 96
1, 1143571, Note_on_c, 0, 66, 96
1, 1143575, Note_on_c, 0, 56, 86
1, 1143583, Note_off_c, 0, 84, 62
1, 1143601, Control_c, 0, 64, 54
1, 1143605, Note_off_c, 0, 55, 63
1, 1143616, Control_c, 0, 64, 69
1, 1143617, Note_off_c, 0, 66, 64
1, 1143631, Control_c, 0, 64, 101
1, 1143642, Note_off_c, 0, 56, 65
1, 1143646, Control_c, 0, 64, 127
1, 1143657, Note_on_c, 0, 87, 87
1, 1143677, Note_off_c, 0, 88, 65
1, 1143718, Note_off_c, 0, 87, 63
1, 1143721, Note_on_c, 0, 83, 89
1, 1143778, Note_off_c, 0, 83, 65
1, 1143781, Note_on_c, 0, 86, 91
1, 1143808, Control_c, 0, 64, 98
1, 1143820, Note_off_c, 0, 86, 67
1, 1143823, Control_c, 0, 64, 61
1, 1143838, Control_c, 0, 64, 0
1, 1143844, Note_on_c, 0, 52, 88
1, 1143846, Note_on_c, 0, 41, 88
1, 1143872, Note_off_c, 0, 52, 68
1, 1143873, Note_on_c, 0, 80, 54
1, 1143874, Note_off_c, 0, 80, 127
1, 1143874, Note_off_c, 0, 41, 66
1, 1143874, Note_on_c, 0, 79, 72
1, 1143876, Note_on_c, 0, 78, 74
1, 1143882, Control_c, 0, 64, 15
1, 1143897, Control_c, 0, 64, 69
1, 1143905, Note_off_c, 0, 79, 65
1, 1143912, Control_c, 0, 64, 127
1, 1143916, Note_off_c, 0, 78, 63
1, 1143940, Note_on_c, 0, 71, 58
1, 1143942, Note_on_c, 0, 69, 69
1, 1143960, Note_off_c, 0, 71, 64
1, 1143966, Note_off_c, 0, 69, 64
1, 1143987, Note_on_c, 0, 53, 87
1, 1144050, Note_on_c, 0, 69, 87
1, 1144067, Note_on_c, 0, 54, 73
1, 1144084, Control_c, 0, 64, 120
1, 1144086, Note_off_c, 0, 69, 63
1, 1144092, Note_off_c, 0, 53, 60
1, 1144098, Control_c, 0, 64, 86
1, 1144113, Control_c, 0, 64, 71
1, 1144118, Note_on_c, 0, 66, 80
1, 1144127, Note_on_c, 0, 56, 69
1, 1144128, Control_c, 0, 64, 61
1, 1144141, Note_on_c, 0, 69, 84
1, 1144143, Control_c, 0, 64, 46
1, 1144157, Control_c, 0, 64, 36
1, 1144161, Note_off_c, 0, 54, 64
1, 1144172, Control_c, 0, 64, 35
1, 1144213, Note_on_c, 0, 72, 83
1, 1144231, Note_off_c, 0, 69, 59
1, 1144276, Note_off_c, 0, 72, 65
1, 1144276, Note_on_c, 0, 76, 79
1, 1144278, Note_off_c, 0, 56, 60
1, 1144288, Note_off_c, 0, 66, 61
1, 1144343, Note_on_c, 0, 75, 78
1, 1144363, Note_off_c, 0, 76, 61
1, 1144401, Note_on_c, 0, 69, 74
1, 1144407, Note_on_c, 0, 65, 70
1, 1144411, Note_off_c, 0, 75, 63
1, 1144416, Note_on_c, 0, 57, 59
1, 1144477, Note_on_c, 0, 72, 79
1, 1144479, Note_off_c, 0, 69, 61
1, 1144508, Note_off_c, 0, 65, 57
1, 1144544, Note_off_c, 0, 72, 62
1, 1144545, Note_on_c, 0, 61, 62
1, 1144547, Note_on_c, 0, 76, 76
1, 1144583, Note_off_c, 0, 57, 59
1, 1144612, Note_on_c, 0, 75, 66
1, 1144626, Note_off_c, 0, 76, 59
1, 1144674, Note_off_c, 0, 75, 62
1, 1144684, Note_on_c, 0, 60, 61
1, 1144684, Note_on_c, 0, 71, 72
1, 1144694, Note_on_c, 0, 54, 48
1, 1144701, Note_off_c, 0, 61, 51
1, 1144710, Note_off_c, 0, 71, 69
1, 1144806, Note_off_c, 0, 60, 59
1, 1144848, Note_on_c, 0, 72, 78
1, 1144892, Note_off_c, 0, 54, 56
1, 1144913, Note_on_c, 0, 71, 81
1, 1144914, Note_off_c, 0, 72, 64
1, 1144957, Note_on_c, 0, 57, 68
1, 1144960, Note_on_c, 0, 65, 69
1, 1144964, Note_off_c, 0, 71, 63
1, 1144976, Note_on_c, 0, 69, 85
1, 1145031, Note_off_c, 0, 65, 51
1, 1145037, Note_off_c, 0, 69, 54
1, 1145041, Note_on_c, 0, 72, 74
1, 1145081, Note_on_c, 0, 61, 63
1, 1145096, Note_off_c, 0, 72, 64
1, 1145108, Note_on_c, 0, 76, 73
1, 1145119, Note_off_c, 0, 57, 59
1, 1145158, Note_on_c, 0, 75, 63
1, 1145175, Note_off_c, 0, 76, 61
1, 1145214, Note_off_c, 0, 75, 60
1, 1145224, Note_on_c, 0, 71, 70
1, 1145224, Note_off_c, 0, 61, 59
1, 1145233, Note_on_c, 0, 54, 50
1, 1145236, Note_on_c, 0, 60, 57
1, 1145250, Note_off_c, 0, 71, 68
1, 1145345, Note_off_c, 0, 60, 61
1, 1145373, Note_on_c, 0, 72, 61
1, 1145424, Note_off_c, 0, 54, 52
1, 1145426, Note_off_c, 0, 72, 55
1, 1145445, Note_on_c, 0, 71, 66
1, 1145488, Note_off_c, 0, 71, 61
1, 1145504, Note_on_c, 0, 65, 62
1, 1145507, Note_on_c, 0, 57, 58
1, 1145511, Note_on_c, 0, 69, 67
1, 1145573, Note_off_c, 0, 69, 59
1, 1145576, Note_on_c, 0, 72, 74
1, 1145596, Note_off_c, 0, 65, 60
1, 1145637, Note_off_c, 0, 72, 64
1, 1145645, Note_on_c, 0, 76, 80
1, 1145655, Note_on_c, 0, 61, 67
1, 1145671, Control_c, 0, 64, 35
1, 1145679, Note_off_c, 0, 57, 62
1, 1145706, Note_on_c, 0, 75, 80
1, 1145737, Note_off_c, 0, 76, 64
1, 1145745, Control_c, 0, 64, 36
1, 1145750, Note_on_c, 0, 54, 75
1, 1145759, Note_off_c, 0, 61, 63
1, 1145760, Control_c, 0, 64, 47
1, 1145760, Note_on_c, 0, 60, 76
1, 1145769, Note_on_c, 0, 71, 82
1, 1145775, Control_c, 0, 64, 60
1, 1145785, Note_off_c, 0, 75, 62
1, 1145790, Control_c, 0, 64, 67
1, 1145790, Note_off_c, 0, 60, 68
1, 1145793, Note_off_c, 0, 54, 64
1, 1145804, Control_c, 0, 64, 82
1, 1145817, Note_off_c, 0, 71, 64
1, 1145819, Control_c, 0, 64, 127
1, 1145826, Note_on_c, 0, 69, 82
1, 1145876, Note_off_c, 0, 69, 64
1, 1145882, Note_on_c, 0, 72, 83
1, 1145951, Note_on_c, 0, 73, 87
1, 1145959, Note_off_c, 0, 72, 65
1, 1145990, Note_off_c, 0, 73, 65
1, 1145996, Control_c, 0, 64, 81
1, 1146008, Note_on_c, 0, 70, 85
1, 1146010, Note_on_c, 0, 62, 71
1, 1146011, Control_c, 0, 64, 60
1, 1146017, Note_on_c, 0, 74, 91
1, 1146026, Control_c, 0, 64, 16
1, 1146041, Control_c, 0, 64, 0
1, 1146056, Control_c, 0, 64, 17
1, 1146068, Note_off_c, 0, 74, 63
1, 1146070, Control_c, 0, 64, 47
1, 1146083, Note_on_c, 0, 77, 85
1, 1146085, Control_c, 0, 64, 60
1, 1146100, Control_c, 0, 64, 66
1, 1146115, Control_c, 0, 64, 77
1, 1146129, Control_c, 0, 64, 103
1, 1146143, Note_off_c, 0, 77, 64
1, 1146144, Control_c, 0, 64, 127
1, 1146160, Note_on_c, 0, 81, 75
1, 1146211, Note_on_c, 0, 80, 58
1, 1146233, Control_c, 0, 64, 107
1, 1146248, Control_c, 0, 64, 83
1, 1146251, Note_off_c, 0, 81, 63
1, 1146261, Note_off_c, 0, 70, 55
1, 1146270, Control_c, 0, 64, 69
1, 1146273, Note_on_c, 0, 65, 66
1, 1146273, Note_off_c, 0, 80, 66
1, 1146275, Note_off_c, 0, 62, 60
1, 1146280, Note_on_c, 0, 59, 59
1, 1146285, Note_on_c, 0, 79, 74
1, 1146285, Control_c, 0, 64, 57
1, 1146300, Control_c, 0, 64, 20
1, 1146315, Control_c, 0, 64, 0
1, 1146330, Note_off_c, 0, 79, 63
1, 1146348, Note_on_c, 0, 76, 70
1, 1146359, Control_c, 0, 64, 45
1, 1146374, Control_c, 0, 64, 61
1, 1146389, Control_c, 0, 64, 68
1, 1146403, Control_c, 0, 64, 78
1, 1146408, Note_off_c, 0, 76, 64
1, 1146419, Control_c, 0, 64, 102
1, 1146419, Note_on_c, 0, 73, 55
1, 1146434, Control_c, 0, 64, 127
1, 1146445, Note_off_c, 0, 73, 64
1, 1146523, Control_c, 0, 64, 96
1, 1146525, Note_off_c, 0, 59, 33
1, 1146538, Control_c, 0, 64, 79
1, 1146553, Control_c, 0, 64, 67
1, 1146558, Note_off_c, 0, 65, 58
1, 1146559, Note_on_c, 0, 62, 55
1, 1146563, Note_on_c, 0, 74, 55
1, 1146563, Note_on_c, 0, 70, 55
1, 1146567, Control_c, 0, 64, 58
1, 1146582, Control_c, 0, 64, 39
1, 1146597, Control_c, 0, 64, 28
1, 1146612, Control_c, 0, 64, 28
1, 1146615, Note_off_c, 0, 74, 57
1, 1146626, Control_c, 0, 64, 40
1, 1146639, Note_on_c, 0, 77, 62
1, 1146641, Control_c, 0, 64, 55
1, 1146656, Control_c, 0, 64, 64
1, 1146671, Control_c, 0, 64, 72
1, 1146686, Control_c, 0, 64, 90
1, 1146687, Note_off_c, 0, 77, 57
1, 1146700, Note_on_c, 0, 81, 66
1, 1146700, Control_c, 0, 64, 127
1, 1146704, Note_off_c, 0, 70, 56
1, 1146752, Note_on_c, 0, 80, 66
1, 1146759, Note_off_c, 0, 81, 63
1, 1146804, Note_on_c, 0, 76, 78
1, 1146807, Note_off_c, 0, 62, 57
1, 1146810, Note_off_c, 0, 80, 61
1, 1146821, Note_on_c, 0, 60, 72
1, 1146821, Note_on_c, 0, 68, 80
1, 1146834, Control_c, 0, 64, 83
1, 1146849, Control_c, 0, 64, 63
1, 1146864, Control_c, 0, 64, 36
1, 1146875, Note_on_c, 0, 75, 87
1, 1146879, Control_c, 0, 64, 0
1, 1146883, Note_off_c, 0, 76, 63
1, 1146893, Control_c, 0, 64, 22
1, 1146908, Control_c, 0, 64, 50
1, 1146923, Control_c, 0, 64, 63
1, 1146938, Control_c, 0, 64, 74
1, 1146941, Note_on_c, 0, 73, 84
1, 1146952, Note_off_c, 0, 75, 63
1, 1146953, Control_c, 0, 64, 117
1, 1146964, Note_off_c, 0, 68, 61
1, 1146968, Control_c, 0, 64, 127
1, 1146985, Note_on_c, 0, 74, 92
1, 1146997, Note_off_c, 0, 73, 66
1, 1147009, Note_off_c, 0, 60, 63
1, 1147039, Note_off_c, 0, 74, 64
1, 1147069, Note_on_c, 0, 77, 103
1, 1147075, Note_on_c, 0, 66, 94
1, 1147078, Note_on_c, 0, 58, 88
1, 1147079, Control_c, 0, 64, 76
1, 1147093, Control_c, 0, 64, 51
1, 1147108, Control_c, 0, 64, 0
1, 1147129, Note_off_c, 0, 77, 65
1, 1147130, Note_on_c, 0, 81, 88
1, 1147152, Control_c, 0, 64, 56
1, 1147167, Control_c, 0, 64, 69
1, 1147182, Control_c, 0, 64, 97
1, 1147197, Note_on_c, 0, 80, 87
1, 1147197, Control_c, 0, 64, 127
1, 1147215, Note_off_c, 0, 58, 62
1, 1147216, Note_off_c, 0, 66, 61
1, 1147228, Note_off_c, 0, 81, 66
1, 1147276, Note_on_c, 0, 76, 91
1, 1147278, Note_off_c, 0, 80, 62
1, 1147316, Note_on_c, 0, 65, 97
1, 1147322, Note_on_c, 0, 56, 87
1, 1147330, Note_on_c, 0, 75, 91
1, 1147331, Control_c, 0, 64, 101
1, 1147333, Note_on_c, 0, 58, 69
1, 1147340, Note_off_c, 0, 76, 64
1, 1147346, Control_c, 0, 64, 71
1, 1147360, Note_off_c, 0, 58, 55
1, 1147361, Control_c, 0, 64, 67
1, 1147376, Control_c, 0, 64, 80
1, 1147391, Control_c, 0, 64, 127
1, 1147391, Note_on_c, 0, 73, 84
1, 1147403, Note_off_c, 0, 75, 63
1, 1147418, Note_off_c, 0, 65, 58
1, 1147438, Note_on_c, 0, 74, 87
1, 1147443, Note_off_c, 0, 73, 67
1, 1147465, Note_off_c, 0, 56, 64
1, 1147495, Control_c, 0, 64, 95
1, 1147502, Note_on_c, 0, 77, 81
1, 1147507, Note_off_c, 0, 74, 64
1, 1147509, Note_on_c, 0, 76, 71
1, 1147510, Control_c, 0, 64, 54
1, 1147523, Note_off_c, 0, 77, 70
1, 1147524, Control_c, 0, 64, 0
1, 1147527, Note_off_c, 0, 76, 55
1, 1147551, Note_on_c, 0, 62, 91
1, 1147554, Note_on_c, 0, 55, 80
1, 1147556, Note_on_c, 0, 53, 82
1, 1147564, Note_on_c, 0, 81, 98
1, 1147580, Note_off_c, 0, 62, 65
1, 1147582, Note_on_c, 0, 64, 48
1, 1147583, Note_off_c, 0, 64, 127
1, 1147584, Note_off_c, 0, 53, 67
1, 1147585, Note_off_c, 0, 55, 68
1, 1147599, Control_c, 0, 64, 62
1, 1147614, Control_c, 0, 64, 127
1, 1147630, Note_on_c, 0, 80, 91
1, 1147654, Note_off_c, 0, 81, 66
1, 1147674, Note_on_c, 0, 49, 95
1, 1147695, Note_on_c, 0, 76, 75
1, 1147697, Note_off_c, 0, 80, 62
1, 1147704, Note_on_c, 0, 48, 58
1, 1147713, Note_on_c, 0, 74, 54
1, 1147719, Note_off_c, 0, 49, 63
1, 1147728, Note_off_c, 0, 48, 59
1, 1147732, Note_off_c, 0, 74, 62
1, 1147747, Note_on_c, 0, 77, 98
1, 1147768, Note_off_c, 0, 76, 65
1, 1147769, Control_c, 0, 64, 73
1, 1147784, Control_c, 0, 64, 0
1, 1147789, Note_off_c, 0, 77, 68
1, 1147815, Note_on_c, 0, 54, 109
1, 1147818, Note_on_c, 0, 46, 97
1, 1147828, Note_on_c, 0, 79, 96
1, 1147858, Control_c, 0, 64, 56
1, 1147873, Control_c, 0, 64, 83
1, 1147880, Note_off_c, 0, 79, 67
1, 1147888, Control_c, 0, 64, 127
1, 1147904, Note_on_c, 0, 83, 95
1, 1147936, Note_off_c, 0, 54, 57
1, 1147946, Note_on_c, 0, 43, 90
1, 1147954, Note_off_c, 0, 46, 55
1, 1147967, Note_on_c, 0, 86, 111
1, 1147977, Note_off_c, 0, 43, 67
1, 1147984, Note_off_c, 0, 83, 65
1, 1148017, Note_off_c, 0, 86, 69
1, 1148022, Control_c, 0, 64, 77
1, 1148037, Control_c, 0, 64, 54
1, 1148052, Control_c, 0, 64, 0
1, 1148136, Note_on_c, 0, 48, 98
1, 1148138, Note_on_c, 0, 37, 97
1, 1148145, Note_on_c, 0, 89, 101
1, 1148155, Control_c, 0, 64, 40
1, 1148170, Control_c, 0, 64, 127
1, 1148172, Note_on_c, 0, 88, 48
1, 1148173, Note_off_c, 0, 88, 127
1, 1148194, Note_off_c, 0, 37, 63
1, 1148194, Note_off_c, 0, 89, 66
1, 1148201, Note_off_c, 0, 48, 63
1, 1148229, Note_on_c, 0, 92, 101
1, 1148260, Note_on_c, 0, 89, 8
1, 1148275, Note_on_c, 0, 93, 32
1, 1148287, Note_on_c, 0, 96, 89
1, 1148291, Note_off_c, 0, 92, 65
1, 1148299, Note_off_c, 0, 89, 40
1, 1148304, Note_off_c, 0, 93, 35
1, 1148310, Note_on_c, 0, 98, 55
1, 1148311, Note_off_c, 0, 98, 127
1, 1148357, Note_on_c, 0, 95, 92
1, 1148402, Note_off_c, 0, 96, 65
1, 1148416, Note_on_c, 0, 52, 87
1, 1148417, Note_on_c, 0, 62, 80
1, 1148419, Note_on_c, 0, 91, 95
1, 1148439, Note_off_c, 0, 62, 70
1, 1148440, Note_off_c, 0, 95, 65
1, 1148448, Note_off_c, 0, 52, 66
1, 1148495, Note_on_c, 0, 94, 100
1, 1148501, Note_off_c, 0, 91, 58
1, 1148548, Control_c, 0, 64, 104
1, 1148559, Note_on_c, 0, 88, 80
1, 1148562, Control_c, 0, 64, 75
1, 1148577, Control_c, 0, 64, 55
1, 1148586, Note_off_c, 0, 94, 63
1, 1148592, Control_c, 0, 64, 0
1, 1148613, Note_on_c, 0, 91, 84
1, 1148616, Note_off_c, 0, 88, 66
1, 1148662, Note_on_c, 0, 37, 76
1, 1148662, Note_on_c, 0, 48, 88
1, 1148666, Control_c, 0, 64, 52
1, 1148674, Note_off_c, 0, 91, 65
1, 1148681, Control_c, 0, 64, 71
1, 1148687, Note_off_c, 0, 37, 65
1, 1148692, Note_on_c, 0, 84, 89
1, 1148696, Control_c, 0, 64, 107
1, 1148706, Note_off_c, 0, 48, 63
1, 1148711, Control_c, 0, 64, 127
1, 1148717, Note_off_c, 0, 84, 65
1, 1148752, Note_on_c, 0, 84, 86
1, 1148754, Note_on_c, 0, 49, 79
1, 1148795, Note_off_c, 0, 49, 61
1, 1148800, Note_on_c, 0, 50, 60
1, 1148823, Note_on_c, 0, 77, 91
1, 1148835, Note_off_c, 0, 84, 63
1, 1148875, Control_c, 0, 64, 122
1, 1148887, Note_on_c, 0, 80, 92
1, 1148889, Control_c, 0, 64, 80
1, 1148891, Note_off_c, 0, 50, 61
1, 1148904, Control_c, 0, 64, 52
1, 1148905, Note_off_c, 0, 77, 63
1, 1148919, Control_c, 0, 64, 0
1, 1148931, Note_off_c, 0, 80, 64
1, 1148955, Note_on_c, 0, 62, 92
1, 1148957, Note_on_c, 0, 84, 93
1, 1148959, Note_on_c, 0, 52, 90
1, 1148993, Control_c, 0, 64, 62
1, 1148997, Note_off_c, 0, 62, 65
1, 1149008, Control_c, 0, 64, 79
1, 1149022, Control_c, 0, 64, 127
1, 1149030, Note_on_c, 0, 83, 87
1, 1149036, Note_off_c, 0, 52, 65
1, 1149100, Note_on_c, 0, 79, 87
1, 1149108, Note_off_c, 0, 84, 63
1, 1149111, Note_off_c, 0, 83, 63
1, 1149163, Note_off_c, 0, 79, 65
1, 1149174, Note_on_c, 0, 82, 40
1, 1149186, Control_c, 0, 64, 100
1, 1149201, Control_c, 0, 64, 66
1, 1149202, Note_off_c, 0, 82, 57
1, 1149215, Control_c, 0, 64, 0
1, 1149220, Note_on_c, 0, 48, 90
1, 1149223, Note_on_c, 0, 77, 97
1, 1149228, Note_on_c, 0, 37, 81
1, 1149258, Note_off_c, 0, 37, 68
1, 1149275, Note_off_c, 0, 48, 56
1, 1149283, Note_off_c, 0, 77, 61
1, 1149283, Control_c, 0, 64, 60
1, 1149297, Control_c, 0, 64, 73
1, 1149312, Control_c, 0, 64, 127
1, 1149316, Note_on_c, 0, 69, 73
1, 1149341, Note_off_c, 0, 69, 68
1, 1149433, Note_on_c, 0, 64, 81
1, 1149455, Note_off_c, 0, 64, 71
1, 1149461, Note_on_c, 0, 72, 45
1, 1149487, Note_off_c, 0, 72, 57
1, 1149502, Note_on_c, 0, 64, 90
1, 1149504, Control_c, 0, 64, 89
1, 1149507, Note_on_c, 0, 55, 78
1, 1149519, Control_c, 0, 64, 66
1, 1149522, Note_on_c, 0, 49, 66
1, 1149534, Control_c, 0, 64, 0
1, 1149560, Note_on_c, 0, 67, 74
1, 1149573, Note_off_c, 0, 64, 46
1, 1149633, Note_off_c, 0, 67, 65
1, 1149637, Note_on_c, 0, 50, 64
1, 1149642, Note_on_c, 0, 71, 73
1, 1149651, Note_off_c, 0, 49, 57
1, 1149651, Note_off_c, 0, 55, 57
1, 1149680, Note_off_c, 0, 71, 57
1, 1149695, Note_on_c, 0, 52, 71
1, 1149707, Note_off_c, 0, 50, 64
1, 1149709, Note_on_c, 0, 61, 80
1, 1149724, Note_off_c, 0, 52, 68
1, 1149773, Note_off_c, 0, 61, 62
1, 1149775, Note_on_c, 0, 60, 83
1, 1149781, Note_on_c, 0, 52, 77
1, 1149787, Note_on_c, 0, 41, 64
1, 1149805, Note_off_c, 0, 52, 65
1, 1149814, Note_off_c, 0, 41, 56
1, 1149843, Note_off_c, 0, 60, 49
1, 1149845, Note_on_c, 0, 63, 72
1, 1149899, Note_off_c, 0, 63, 63
1, 1149905, Note_on_c, 0, 67, 70
1, 1149963, Note_on_c, 0, 66, 63
1, 1149980, Note_off_c, 0, 67, 60
1, 1150036, Note_off_c, 0, 66, 60
1, 1150038, Note_on_c, 0, 62, 66
1, 1150048, Note_on_c, 0, 53, 48
1, 1150055, Note_on_c, 0, 44, 42
1, 1150065, Note_off_c, 0, 62, 66
1, 1150077, Note_off_c, 0, 53, 56
1, 1150087, Note_off_c, 0, 44, 49
1, 1150199, Note_on_c, 0, 63, 56
1, 1150253, Note_off_c, 0, 63, 58
1, 1150270, Note_on_c, 0, 62, 63
1, 1150308, Note_off_c, 0, 62, 64
1, 1150318, Note_on_c, 0, 41, 67
1, 1150319, Note_on_c, 0, 52, 67
1, 1150325, Note_on_c, 0, 60, 72
1, 1150345, Note_off_c, 0, 52, 65
1, 1150351, Note_off_c, 0, 41, 65
1, 1150381, Note_on_c, 0, 63, 76
1, 1150392, Note_off_c, 0, 60, 56
1, 1150448, Note_off_c, 0, 63, 64
1, 1150449, Note_on_c, 0, 67, 82
1, 1150509, Note_on_c, 0, 66, 79
1, 1150537, Note_off_c, 0, 67, 61
1, 1150557, Note_on_c, 0, 62, 78
1, 1150569, Note_on_c, 0, 53, 85
1, 1150570, Note_off_c, 0, 66, 62
1, 1150573, Note_on_c, 0, 44, 78
1, 1150592, Note_off_c, 0, 53, 68
1, 1150596, Note_off_c, 0, 44, 66
1, 1150623, Note_off_c, 0, 62, 64
1, 1150626, Note_on_c, 0, 65, 84
1, 1150694, Note_on_c, 0, 61, 83
1, 1150710, Note_off_c, 0, 65, 58
1, 1150765, Note_on_c, 0, 58, 78
1, 1150779, Note_off_c, 0, 61, 62
1, 1150819, Note_on_c, 0, 52, 78
1, 1150822, Note_on_c, 0, 41, 76
1, 1150827, Note_on_c, 0, 57, 87
1, 1150832, Note_off_c, 0, 58, 64
1, 1150843, Note_off_c, 0, 52, 68
1, 1150849, Note_off_c, 0, 41, 66
1, 1150867, Note_off_c, 0, 57, 62
1, 1150896, Note_on_c, 0, 60, 86
1, 1150950, Note_off_c, 0, 60, 64
1, 1150965, Note_on_c, 0, 64, 70
1, 1151020, Note_on_c, 0, 63, 69
1, 1151038, Note_off_c, 0, 64, 60
1, 1151069, Note_on_c, 0, 51, 65
1, 1151083, Note_on_c, 0, 59, 77
1, 1151084, Note_off_c, 0, 63, 62
1, 1151089, Note_on_c, 0, 44, 36
1, 1151099, Note_off_c, 0, 51, 66
1, 1151110, Note_off_c, 0, 59, 67
1, 1151120, Note_off_c, 0, 44, 48
1, 1151242, Note_on_c, 0, 60, 72
1, 1151323, Note_on_c, 0, 59, 73
1, 1151329, Note_off_c, 0, 60, 62
1, 1151417, Note_on_c, 0, 52, 45
1, 1151421, Note_on_c, 0, 41, 51
1, 1151432, Note_on_c, 0, 57, 75
1, 1151434, Note_off_c, 0, 59, 61
1, 1151448, Control_c, 0, 64, 41
1, 1151463, Control_c, 0, 64, 66
1, 1151478, Control_c, 0, 64, 79
1, 1151492, Control_c, 0, 64, 127
1, 1151538, Note_off_c, 0, 41, 61
1, 1151539, Note_off_c, 0, 57, 63
1, 1151578, Note_off_c, 0, 52, 59
1, 1151809, Note_on_c, 0, 72, 90
1, 1151809, Note_on_c, 0, 76, 100
1, 1151825, Control_c, 0, 64, 87
1, 1151840, Control_c, 0, 64, 68
1, 1151855, Control_c, 0, 64, 46
1, 1151861, Note_off_c, 0, 76, 64
1, 1151870, Control_c, 0, 64, 0
1, 1151876, Note_off_c, 0, 72, 65
1, 1152137, Note_on_c, 0, 76, 112
1, 1152145, Note_on_c, 0, 72, 100
1, 1152222, Note_on_c, 0, 74, 93
1, 1152229, Note_on_c, 0, 70, 75
1, 1152242, Note_off_c, 0, 76, 63
1, 1152244, Note_off_c, 0, 72, 63
1, 1152292, Control_c, 0, 64, 51
1, 1152301, Note_on_c, 0, 73, 87
1, 1152303, Note_on_c, 0, 69, 72
1, 1152306, Control_c, 0, 64, 65
1, 1152318, Note_off_c, 0, 74, 63
1, 1152321, Control_c, 0, 64, 73
1, 1152324, Note_off_c, 0, 70, 62
1, 1152336, Control_c, 0, 64, 95
1, 1152351, Control_c, 0, 64, 127
1, 1152377, Note_off_c, 0, 73, 65
1, 1152383, Note_off_c, 0, 69, 63
1, 1152454, Control_c, 0, 64, 92
1, 1152469, Control_c, 0, 64, 65
1, 1152479, Note_on_c, 0, 77, 111
1, 1152484, Control_c, 0, 64, 0
1, 1152490, Note_on_c, 0, 72, 108
1, 1152560, Note_on_c, 0, 75, 98
1, 1152571, Note_on_c, 0, 70, 84
1, 1152582, Note_off_c, 0, 77, 65
1, 1152593, Note_off_c, 0, 72, 64
1, 1152602, Control_c, 0, 64, 57
1, 1152617, Control_c, 0, 64, 73
1, 1152631, Control_c, 0, 64, 96
1, 1152644, Note_on_c, 0, 69, 76
1, 1152644, Note_on_c, 0, 74, 96
1, 1152646, Control_c, 0, 64, 127
1, 1152664, Note_off_c, 0, 70, 63
1, 1152678, Note_off_c, 0, 75, 61
1, 1152703, Note_off_c, 0, 69, 64
1, 1152724, Note_off_c, 0, 74, 64
1, 1152765, Control_c, 0, 64, 107
1, 1152780, Control_c, 0, 64, 77
1, 1152795, Control_c, 0, 64, 57
1, 1152810, Control_c, 0, 64, 0
1, 1152817, Note_on_c, 0, 79, 106
1, 1152822, Note_on_c, 0, 72, 106
1, 1152847, Note_on_c, 0, 81, 40
1, 1152848, Note_off_c, 0, 81, 127
1, 1152900, Control_c, 0, 64, 62
1, 1152909, Note_on_c, 0, 77, 95
1, 1152912, Note_on_c, 0, 70, 85
1, 1152915, Control_c, 0, 64, 78
1, 1152929, Control_c, 0, 64, 127
1, 1152931, Note_off_c, 0, 79, 66
1, 1152932, Note_off_c, 0, 72, 65
1, 1152986, Note_on_c, 0, 69, 84
1, 1152986, Note_on_c, 0, 76, 108
1, 1153015, Note_off_c, 0, 70, 62
1, 1153031, Note_off_c, 0, 77, 66
1, 1153046, Note_off_c, 0, 69, 64
1, 1153134, Note_off_c, 0, 76, 62
1, 1153182, Note_on_c, 0, 80, 107
1, 1153183, Note_on_c, 0, 72, 105
1, 1153219, Control_c, 0, 64, 71
1, 1153234, Control_c, 0, 64, 0
1, 1153281, Note_on_c, 0, 78, 102
1, 1153282, Note_on_c, 0, 70, 82
1, 1153315, Note_off_c, 0, 80, 64
1, 1153320, Note_off_c, 0, 72, 63
1, 1153323, Control_c, 0, 64, 56
1, 1153337, Control_c, 0, 64, 84
1, 1153352, Control_c, 0, 64, 127
1, 1153377, Note_on_c, 0, 69, 83
1, 1153384, Note_on_c, 0, 77, 109
1, 1153395, Note_off_c, 0, 70, 67
1, 1153406, Note_off_c, 0, 78, 64
1, 1153427, Note_off_c, 0, 69, 65
1, 1153661, Note_off_c, 0, 77, 59
1, 1153690, Note_on_c, 0, 53, 102
1, 1153699, Note_on_c, 0, 81, 105
1, 1153723, Control_c, 0, 64, 78
1, 1153738, Control_c, 0, 64, 50
1, 1153760, Control_c, 0, 64, 0
1, 1153819, Control_c, 0, 64, 49
1, 1153834, Control_c, 0, 64, 71
1, 1153849, Control_c, 0, 64, 127
1, 1153857, Note_on_c, 0, 47, 99
1, 1153880, Note_off_c, 0, 53, 58
1, 1153969, Note_on_c, 0, 38, 94
1, 1154001, Note_off_c, 0, 47, 62
1, 1154065, Note_on_c, 0, 44, 84
1, 1154070, Note_on_c, 0, 75, 109
1, 1154086, Note_off_c, 0, 38, 58
1, 1154096, Note_on_c, 0, 76, 63
1, 1154101, Note_off_c, 0, 81, 59
1, 1154178, Note_on_c, 0, 53, 96
1, 1154223, Note_off_c, 0, 76, 55
1, 1154245, Note_off_c, 0, 53, 68
1, 1154262, Note_on_c, 0, 47, 82
1, 1154275, Note_on_c, 0, 65, 100
1, 1154283, Note_off_c, 0, 44, 60
1, 1154301, Note_on_c, 0, 76, 22
1, 1154321, Note_on_c, 0, 77, 32
1, 1154350, Note_on_c, 0, 38, 87
1, 1154351, Note_off_c, 0, 76, 46
1, 1154351, Note_off_c, 0, 77, 44
1, 1154366, Note_off_c, 0, 65, 57
1, 1154371, Note_off_c, 0, 75, 58
1, 1154416, Note_on_c, 0, 44, 76
1, 1154426, Note_off_c, 0, 38, 56
1, 1154432, Note_on_c, 0, 74, 105
1, 1154474, Note_off_c, 0, 47, 56
1, 1154483, Note_off_c, 0, 74, 66
1, 1154522, Note_on_c, 0, 53, 87
1, 1154539, Note_on_c, 0, 81, 100
1, 1154590, Note_off_c, 0, 53, 67
1, 1154602, Note_on_c, 0, 47, 72
1, 1154620, Note_off_c, 0, 44, 60
1, 1154626, Note_on_c, 0, 75, 94
1, 1154641, Note_off_c, 0, 81, 46
1, 1154652, Note_on_c, 0, 79, 31
1, 1154677, Note_on_c, 0, 38, 80
1, 1154682, Note_off_c, 0, 79, 51
1, 1154685, Note_on_c, 0, 65, 83
1, 1154701, Note_off_c, 0, 75, 64
1, 1154742, Note_off_c, 0, 38, 59
1, 1154745, Note_on_c, 0, 44, 76
1, 1154758, Note_on_c, 0, 74, 100
1, 1154765, Note_off_c, 0, 65, 60
1, 1154779, Note_off_c, 0, 47, 61
1, 1154813, Note_on_c, 0, 53, 88
1, 1154850, Note_off_c, 0, 74, 64
1, 1154875, Note_on_c, 0, 47, 73
1, 1154875, Note_off_c, 0, 53, 65
1, 1154881, Note_off_c, 0, 44, 62
1, 1154908, Note_on_c, 0, 75, 97
1, 1154940, Note_on_c, 0, 38, 80
1, 1154982, Note_on_c, 0, 65, 85
1, 1154991, Note_off_c, 0, 75, 63
1, 1155009, Note_on_c, 0, 44, 77
1, 1155014, Note_off_c, 0, 38, 58
1, 1155041, Note_off_c, 0, 65, 61
1, 1155044, Note_on_c, 0, 74, 97
1, 1155045, Note_off_c, 0, 47, 53
1, 1155078, Note_on_c, 0, 53, 83
1, 1155114, Note_on_c, 0, 81, 98
1, 1155120, Note_off_c, 0, 74, 60
1, 1155133, Note_off_c, 0, 53, 67
1, 1155142, Note_on_c, 0, 47, 79
1, 1155143, Note_off_c, 0, 44, 62
1, 1155180, Note_on_c, 0, 75, 93
1, 1155197, Note_on_c, 0, 38, 83
1, 1155197, Note_off_c, 0, 81, 62
1, 1155235, Note_on_c, 0, 65, 78
1, 1155236, Note_on_c, 0, 44, 80
1, 1155236, Note_off_c, 0, 47, 61
1, 1155246, Note_off_c, 0, 38, 62
1, 1155246, Note_off_c, 0, 75, 62
1, 1155277, Note_off_c, 0, 44, 60
1, 1155298, Note_on_c, 0, 76, 102
1, 1155304, Note_off_c, 0, 65, 61
1, 1155362, Control_c, 0, 64, 84
1, 1155377, Control_c, 0, 64, 40
1, 1155392, Control_c, 0, 64, 0
1, 1155393, Note_off_c, 0, 76, 62
1, 1155398, Note_on_c, 0, 63, 121
1, 1155424, Note_on_c, 0, 81, 95
1, 1155451, Control_c, 0, 64, 70
1, 1155465, Control_c, 0, 64, 127
1, 1155473, Note_off_c, 0, 63, 60
1, 1155508, Poly_aftertouch_c, 0, 62, 0
1, 1155517, Note_on_c, 0, 76, 97
1, 1155526, Note_off_c, 0, 81, 65
1, 1155589, Note_on_c, 0, 63, 116
1, 1155629, Note_off_c, 0, 63, 61
1, 1155644, Note_on_c, 0, 65, 83
1, 1155685, Note_on_c, 0, 67, 14
1, 1155704, Note_off_c, 0, 65, 56
1, 1155708, Note_on_c, 0, 63, 109
1, 1155726, Note_on_c, 0, 77, 89
1, 1155728, Note_off_c, 0, 67, 42
1, 1155737, Note_off_c, 0, 63, 64
1, 1155753, Note_off_c, 0, 76, 59
1, 1155779, Note_off_c, 0, 77, 63
1, 1155798, Note_on_c, 0, 63, 113
1, 1155806, Note_on_c, 0, 81, 101
1, 1155817, Note_on_c, 0, 64, 76
1, 1155831, Note_off_c, 0, 64, 72
1, 1155836, Note_on_c, 0, 65, 43
1, 1155857, Note_off_c, 0, 63, 63
1, 1155857, Note_off_c, 0, 65, 64
1, 1155881, Note_on_c, 0, 78, 95
1, 1155912, Note_off_c, 0, 81, 61
1, 1155949, Note_on_c, 0, 65, 94
1, 1155967, Note_on_c, 0, 75, 55
1, 1155982, Note_off_c, 0, 75, 63
1, 1155991, Note_off_c, 0, 65, 61
1, 1156011, Note_off_c, 0, 78, 61
1, 1156034, Note_on_c, 0, 44, 83
1, 1156124, Note_on_c, 0, 53, 95
1, 1156126, Note_on_c, 0, 89, 117
1, 1156170, Note_off_c, 0, 89, 67
1, 1156179, Note_on_c, 0, 96, 5
1, 1156191, Note_off_c, 0, 53, 65
1, 1156197, Note_on_c, 0, 91, 85
1, 1156197, Note_on_c, 0, 93, 88
1, 1156211, Note_on_c, 0, 47, 74
1, 1156229, Note_off_c, 0, 44, 60
1, 1156236, Note_on_c, 0, 95, 71
1, 1156240, Note_off_c, 0, 96, 0
1, 1156240, Note_on_c, 0, 96, 72
1, 1156241, Note_off_c, 0, 91, 64
1, 1156253, Note_off_c, 0, 93, 68
1, 1156265, Note_off_c, 0, 95, 67
1, 1156267, Note_off_c, 0, 96, 68
1, 1156280, Note_on_c, 0, 38, 82
1, 1156305, Note_on_c, 0, 98, 100
1, 1156323, Note_on_c, 0, 100, 94
1, 1156340, Note_on_c, 0, 101, 81
1, 1156349, Note_off_c, 0, 98, 68
1, 1156352, Note_on_c, 0, 44, 77
1, 1156358, Note_off_c, 0, 38, 59
1, 1156380, Note_off_c, 0, 100, 65
1, 1156381, Note_on_c, 0, 103, 75
1, 1156396, Note_off_c, 0, 47, 60
1, 1156397, Note_on_c, 0, 105, 113
1, 1156417, Note_on_c, 0, 53, 101
1, 1156420, Note_off_c, 0, 101, 66
1, 1156427, Note_off_c, 0, 103, 65
1, 1156479, Note_off_c, 0, 105, 68
1, 1156486, Note_off_c, 0, 53, 63
1, 1156493, Note_on_c, 0, 47, 64
1, 1156524, Note_off_c, 0, 44, 62
1, 1156564, Note_on_c, 0, 38, 87
1, 1156616, Note_on_c, 0, 81, 103
1, 1156642, Note_on_c, 0, 44, 76
1, 1156658, Note_off_c, 0, 38, 58
1, 1156720, Note_on_c, 0, 53, 95
1, 1156730, Note_off_c, 0, 47, 38
1, 1156769, Note_off_c, 0, 81, 46
1, 1156777, Note_on_c, 0, 75, 87
1, 1156782, Note_off_c, 0, 53, 68
1, 1156796, Note_on_c, 0, 47, 62
1, 1156800, Note_off_c, 0, 44, 61
1, 1156842, Note_on_c, 0, 65, 79
1, 1156851, Note_off_c, 0, 75, 62
1, 1156860, Note_on_c, 0, 38, 80
1, 1156906, Note_off_c, 0, 65, 58
1, 1156910, Note_on_c, 0, 74, 90
1, 1156927, Note_on_c, 0, 44, 77
1, 1156934, Note_off_c, 0, 38, 59
1, 1156963, Note_off_c, 0, 47, 54
1, 1156975, Note_on_c, 0, 81, 96
1, 1156978, Note_off_c, 0, 74, 66
1, 1156981, Note_on_c, 0, 53, 78
1, 1157026, Note_off_c, 0, 44, 60
1, 1157034, Note_off_c, 0, 53, 66
1, 1157043, Note_on_c, 0, 47, 69
1, 1157048, Note_on_c, 0, 75, 95
1, 1157059, Note_off_c, 0, 81, 59
1, 1157085, Note_on_c, 0, 38, 79
1, 1157101, Note_on_c, 0, 65, 81
1, 1157111, Note_off_c, 0, 75, 62
1, 1157117, Note_on_c, 0, 44, 78
1, 1157124, Note_off_c, 0, 38, 64
1, 1157137, Note_off_c, 0, 47, 62
1, 1157153, Note_off_c, 0, 44, 61
1, 1157162, Note_on_c, 0, 76, 101
1, 1157165, Note_off_c, 0, 65, 62
1, 1157229, Control_c, 0, 64, 69
1, 1157244, Control_c, 0, 64, 0
1, 1157261, Note_off_c, 0, 76, 56
1, 1157264, Note_on_c, 0, 63, 126
1, 1157282, Note_on_c, 0, 81, 91
1, 1157303, Control_c, 0, 64, 73
1, 1157318, Control_c, 0, 64, 127
1, 1157340, Note_off_c, 0, 63, 58
1, 1157369, Note_on_c, 0, 76, 93
1, 1157380, Note_off_c, 0, 81, 63
1, 1157454, Note_on_c, 0, 63, 110
1, 1157496, Note_on_c, 0, 65, 91
1, 1157496, Note_off_c, 0, 63, 56
1, 1157550, Note_off_c, 0, 65, 61
1, 1157553, Note_off_c, 0, 76, 61
1, 1157577, Note_on_c, 0, 63, 118
1, 1157594, Note_on_c, 0, 77, 91
1, 1157613, Note_off_c, 0, 63, 64
1, 1157636, Note_off_c, 0, 77, 67
1, 1157678, Note_on_c, 0, 81, 98
1, 1157679, Note_on_c, 0, 63, 106
1, 1157708, Note_off_c, 0, 63, 68
1, 1157764, Note_on_c, 0, 78, 92
1, 1157784, Note_off_c, 0, 81, 51
1, 1157837, Note_on_c, 0, 65, 81
1, 1157839, Note_off_c, 0, 78, 61
1, 1157888, Note_off_c, 0, 65, 64
1, 1157905, Note_on_c, 0, 77, 102
1, 1157981, Note_on_c, 0, 63, 119
1, 1157988, Note_on_c, 0, 61, 96
1, 1158000, Note_off_c, 0, 61, 73
1, 1158009, Note_off_c, 0, 77, 60
1, 1158011, Note_off_c, 0, 63, 66
1, 1158023, Note_on_c, 0, 62, 35
1, 1158024, Note_off_c, 0, 62, 127
1, 1158056, Poly_aftertouch_c, 0, 62, 0
1, 1158069, Note_on_c, 0, 61, 25
1, 1158071, Note_on_c, 0, 76, 97
1, 1158098, Note_off_c, 0, 61, 54
1, 1158136, Note_on_c, 0, 63, 107
1, 1158163, Note_off_c, 0, 63, 70
1, 1158179, Note_on_c, 0, 65, 86
1, 1158235, Note_off_c, 0, 65, 53
1, 1158261, Note_on_c, 0, 63, 113
1, 1158271, Note_on_c, 0, 77, 81
1, 1158289, Note_off_c, 0, 63, 68
1, 1158299, Note_off_c, 0, 76, 62
1, 1158312, Control_c, 0, 64, 85
1, 1158320, Note_on_c, 0, 79, 5
1, 1158321, Note_off_c, 0, 79, 127
1, 1158326, Control_c, 0, 64, 51
1, 1158341, Control_c, 0, 64, 0
1, 1158350, Note_on_c, 0, 63, 110
1, 1158354, Note_on_c, 0, 81, 98
1, 1158361, Note_on_c, 0, 61, 86
1, 1158371, Control_c, 0, 64, 55
1, 1158372, Note_off_c, 0, 77, 60
1, 1158386, Control_c, 0, 64, 83
1, 1158389, Note_off_c, 0, 63, 69
1, 1158399, Note_off_c, 0, 61, 58
1, 1158401, Control_c, 0, 64, 127
1, 1158429, Note_on_c, 0, 67, 87
1, 1158449, Note_off_c, 0, 67, 71
1, 1158453, Note_on_c, 0, 79, 21
1, 1158461, Note_off_c, 0, 81, 65
1, 1158490, Note_off_c, 0, 79, 53
1, 1158518, Note_on_c, 0, 86, 111
1, 1158545, Note_on_c, 0, 88, 55
1, 1158546, Note_off_c, 0, 88, 127
1, 1158557, Note_off_c, 0, 86, 70
1, 1158565, Poly_aftertouch_c, 0, 88, 0
1, 1158580, Note_on_c, 0, 44, 74
1, 1158659, Note_on_c, 0, 53, 92
1, 1158668, Note_on_c, 0, 89, 117
1, 1158716, Note_off_c, 0, 89, 65
1, 1158739, Note_on_c, 0, 91, 88
1, 1158742, Note_on_c, 0, 93, 95
1, 1158748, Note_on_c, 0, 47, 73
1, 1158748, Note_off_c, 0, 53, 62
1, 1158765, Note_off_c, 0, 44, 61
1, 1158772, Note_on_c, 0, 95, 73
1, 1158782, Note_off_c, 0, 91, 66
1, 1158799, Note_off_c, 0, 93, 68
1, 1158805, Note_on_c, 0, 96, 60
1, 1158811, Note_off_c, 0, 95, 65
1, 1158820, Note_on_c, 0, 38, 81
1, 1158823, Note_off_c, 0, 96, 61
1, 1158848, Note_on_c, 0, 98, 100
1, 1158866, Note_on_c, 0, 100, 93
1, 1158891, Note_off_c, 0, 38, 59
1, 1158892, Note_off_c, 0, 98, 67
1, 1158894, Note_on_c, 0, 101, 75
1, 1158895, Note_on_c, 0, 44, 73
1, 1158923, Note_on_c, 0, 103, 83
1, 1158925, Note_off_c, 0, 100, 66
1, 1158942, Note_on_c, 0, 105, 113
1, 1158954, Note_off_c, 0, 47, 0
1, 1158957, Note_off_c, 0, 101, 65
1, 1158961, Note_on_c, 0, 53, 94
1, 1158966, Note_off_c, 0, 103, 66
1, 1159015, Note_off_c, 0, 105, 66
1, 1159032, Poly_aftertouch_c, 0, 47, 0
1, 1159043, Note_off_c, 0, 53, 61
1, 1159045, Note_on_c, 0, 47, 53
1, 1159070, Note_off_c, 0, 44, 61
1, 1159108, Note_on_c, 0, 38, 80
1, 1159112, Note_on_c, 0, 105, 126
1, 1159144, Note_off_c, 0, 105, 71
1, 1159189, Note_on_c, 0, 44, 75
1, 1159192, Note_off_c, 0, 38, 58
1, 1159216, Note_on_c, 0, 105, 126
1, 1159241, Note_off_c, 0, 105, 72
1, 1159261, Note_off_c, 0, 47, 61
1, 1159294, Note_on_c, 0, 53, 92
1, 1159297, Note_on_c, 0, 105, 125
1, 1159335, Note_off_c, 0, 105, 68
1, 1159353, Note_on_c, 0, 47, 72
1, 1159360, Note_off_c, 0, 53, 66
1, 1159366, Note_off_c, 0, 44, 62
1, 1159422, Note_on_c, 0, 38, 81
1, 1159493, Note_on_c, 0, 44, 82
1, 1159498, Note_on_c, 0, 81, 107
1, 1159509, Note_off_c, 0, 38, 57
1, 1159547, Note_off_c, 0, 47, 55
1, 1159568, Note_on_c, 0, 53, 86
1, 1159618, Note_off_c, 0, 44, 61
1, 1159619, Note_off_c, 0, 53, 64
1, 1159627, Note_on_c, 0, 47, 67
1, 1159651, Note_on_c, 0, 75, 96
1, 1159660, Note_off_c, 0, 81, 60
1, 1159672, Note_on_c, 0, 38, 80
1, 1159712, Note_on_c, 0, 44, 80
1, 1159723, Note_off_c, 0, 38, 62
1, 1159726, Note_on_c, 0, 65, 87
1, 1159736, Note_off_c, 0, 47, 55
1, 1159744, Note_off_c, 0, 75, 60
1, 1159765, Note_off_c, 0, 44, 61
1, 1159790, Note_on_c, 0, 74, 86
1, 1159803, Note_off_c, 0, 65, 59
1, 1159822, Note_on_c, 0, 67, 22
1, 1159839, Control_c, 0, 64, 109
1, 1159854, Control_c, 0, 64, 65
1, 1159859, Note_off_c, 0, 67, 45
1, 1159866, Note_on_c, 0, 58, 122
1, 1159869, Control_c, 0, 64, 0
1, 1159877, Note_off_c, 0, 74, 62
1, 1159883, Note_on_c, 0, 81, 85
1, 1159915, Note_off_c, 0, 58, 66
1, 1159916, Note_on_c, 0, 59, 32
1, 1159917, Note_off_c, 0, 59, 127
1, 1159928, Control_c, 0, 64, 64
1, 1159943, Control_c, 0, 64, 127
1, 1159970, Note_on_c, 0, 73, 95
1, 1159975, Note_off_c, 0, 81, 60
1, 1159997, Note_on_c, 0, 79, 31
1, 1160028, Note_off_c, 0, 79, 52
1, 1160033, Note_on_c, 0, 58, 119
1, 1160044, Note_off_c, 0, 73, 59
1, 1160069, Note_on_c, 0, 65, 83
1, 1160074, Note_off_c, 0, 58, 64
1, 1160127, Note_off_c, 0, 65, 54
1, 1160135, Note_on_c, 0, 58, 118
1, 1160146, Note_on_c, 0, 74, 94
1, 1160168, Note_off_c, 0, 58, 65
1, 1160186, Note_off_c, 0, 74, 66
1, 1160224, Note_on_c, 0, 58, 116
1, 1160236, Note_on_c, 0, 81, 100
1, 1160256, Note_on_c, 0, 79, 53
1, 1160257, Note_off_c, 0, 79, 127
1, 1160276, Note_off_c, 0, 58, 64
1, 1160310, Note_on_c, 0, 76, 92
1, 1160313, Note_off_c, 0, 81, 62
1, 1160393, Note_on_c, 0, 65, 63
1, 1160394, Note_on_c, 0, 64, 76
1, 1160400, Note_off_c, 0, 76, 59
1, 1160419, Note_off_c, 0, 64, 68
1, 1160430, Note_off_c, 0, 65, 64
1, 1160441, Note_on_c, 0, 77, 100
1, 1160449, Note_on_c, 0, 44, 73
1, 1160471, Note_off_c, 0, 77, 65
1, 1160558, Note_on_c, 0, 53, 72
1, 1160571, Note_on_c, 0, 55, 105
1, 1160602, Note_off_c, 0, 55, 69
1, 1160611, Note_off_c, 0, 53, 61
1, 1160626, Note_on_c, 0, 47, 68
1, 1160639, Note_off_c, 0, 44, 60
1, 1160710, Note_on_c, 0, 55, 114
1, 1160711, Note_on_c, 0, 38, 78
1, 1160739, Note_off_c, 0, 55, 68
1, 1160760, Note_off_c, 0, 47, 0
1, 1160779, Note_on_c, 0, 44, 78
1, 1160798, Note_off_c, 0, 38, 60
1, 1160798, Poly_aftertouch_c, 0, 47, 127
1, 1160802, Note_on_c, 0, 55, 126
1, 1160829, Note_off_c, 0, 55, 71
1, 1160870, Poly_aftertouch_c, 0, 47, 0
1, 1160885, Note_on_c, 0, 53, 94
1, 1160890, Note_on_c, 0, 55, 119
1, 1160926, Note_off_c, 0, 55, 65
1, 1160950, Note_off_c, 0, 53, 64
1, 1160953, Note_on_c, 0, 47, 73
1, 1160972, Note_off_c, 0, 44, 61
1, 1161038, Note_on_c, 0, 38, 76
1, 1161113, Note_off_c, 0, 38, 55
1, 1161118, Note_on_c, 0, 44, 64
1, 1161136, Note_on_c, 0, 87, 97
1, 1161149, Note_off_c, 0, 87, 75
1, 1161159, Note_off_c, 0, 47, 26
1, 1161201, Note_on_c, 0, 53, 78
1, 1161234, Note_on_c, 0, 87, 120
1, 1161252, Note_off_c, 0, 53, 65
1, 1161265, Note_off_c, 0, 87, 72
1, 1161266, Note_on_c, 0, 47, 79
1, 1161267, Note_on_c, 0, 88, 58
1, 1161268, Note_off_c, 0, 88, 127
1, 1161269, Note_off_c, 0, 44, 60
1, 1161322, Note_on_c, 0, 38, 82
1, 1161337, Note_on_c, 0, 87, 120
1, 1161342, Note_off_c, 0, 47, 62
1, 1161362, Note_off_c, 0, 87, 71
1, 1161395, Note_on_c, 0, 44, 90
1, 1161413, Note_off_c, 0, 38, 61
1, 1161433, Note_on_c, 0, 87, 119
1, 1161437, Note_off_c, 0, 44, 65
1, 1161460, Note_off_c, 0, 87, 69
1, 1161544, Control_c, 0, 64, 88
1, 1161559, Control_c, 0, 64, 41
1, 1161562, Note_on_c, 0, 66, 107
1, 1161571, Note_on_c, 0, 87, 119
1, 1161574, Control_c, 0, 64, 0
1, 1161619, Control_c, 0, 64, 63
1, 1161634, Control_c, 0, 64, 127
1, 1161636, Note_off_c, 0, 87, 41
1, 1161652, Note_off_c, 0, 66, 64
1, 1161658, Note_on_c, 0, 65, 97
1, 1161741, Note_on_c, 0, 63, 77
1, 1161747, Note_on_c, 0, 64, 89
1, 1161764, Note_off_c, 0, 65, 64
1, 1161805, Note_on_c, 0, 61, 78
1, 1161813, Note_off_c, 0, 64, 60
1, 1161839, Note_off_c, 0, 63, 62
1, 1161851, Note_off_c, 0, 61, 62
1, 1161881, Note_on_c, 0, 60, 104
1, 1161882, Note_on_c, 0, 89, 114
1, 1161900, Control_c, 0, 64, 67
1, 1161904, Note_on_c, 0, 55, 68
1, 1161905, Note_on_c, 0, 96, 67
1, 1161915, Control_c, 0, 64, 0
1, 1161922, Note_off_c, 0, 96, 65
1, 1161925, Note_off_c, 0, 55, 63
1, 1161936, Note_off_c, 0, 89, 61
1, 1161945, Control_c, 0, 64, 64
1, 1161960, Control_c, 0, 64, 127
1, 1161961, Note_on_c, 0, 91, 91
1, 1161978, Note_on_c, 0, 58, 63
1, 1161984, Note_on_c, 0, 59, 80
1, 1162000, Note_on_c, 0, 93, 50
1, 1162007, Note_on_c, 0, 95, 69
1, 1162008, Note_off_c, 0, 60, 59
1, 1162010, Note_on_c, 0, 96, 74
1, 1162015, Note_on_c, 0, 56, 76
1, 1162019, Note_off_c, 0, 91, 65
1, 1162032, Note_off_c, 0, 93, 67
1, 1162034, Note_off_c, 0, 95, 67
1, 1162044, Note_off_c, 0, 96, 65
1, 1162057, Note_off_c, 0, 58, 58
1, 1162058, Note_off_c, 0, 59, 61
1, 1162070, Note_on_c, 0, 54, 84
1, 1162074, Note_on_c, 0, 98, 99
1, 1162093, Note_off_c, 0, 56, 66
1, 1162094, Note_on_c, 0, 100, 90
1, 1162108, Note_off_c, 0, 54, 64
1, 1162113, Note_on_c, 0, 101, 83
1, 1162123, Note_off_c, 0, 98, 67
1, 1162145, Note_on_c, 0, 103, 79
1, 1162167, Note_off_c, 0, 100, 65
1, 1162176, Note_on_c, 0, 105, 111
1, 1162176, Note_on_c, 0, 53, 88
1, 1162191, Note_on_c, 0, 52, 64
1, 1162193, Note_off_c, 0, 101, 66
1, 1162198, Note_off_c, 0, 103, 67
1, 1162227, Note_off_c, 0, 52, 46
1, 1162240, Note_off_c, 0, 53, 62
1, 1162263, Note_on_c, 0, 47, 86
1, 1162263, Note_off_c, 0, 105, 66
1, 1162302, Note_on_c, 0, 38, 84
1, 1162319, Note_off_c, 0, 47, 65
1, 1162395, Note_off_c, 0, 38, 60
1, 1162398, Note_on_c, 0, 44, 87
1, 1162406, Note_on_c, 0, 81, 110
1, 1162431, Note_off_c, 0, 44, 64
1, 1162471, Control_c, 0, 64, 95
1, 1162486, Control_c, 0, 64, 56
1, 1162501, Control_c, 0, 64, 0
1, 1162512, Note_on_c, 0, 58, 120
1, 1162546, Control_c, 0, 64, 38
1, 1162561, Control_c, 0, 64, 74
1, 1162576, Control_c, 0, 64, 127
1, 1162582, Note_off_c, 0, 58, 57
1, 1162596, Note_on_c, 0, 73, 91
1, 1162623, Note_off_c, 0, 81, 40
1, 1162668, Note_on_c, 0, 58, 102
1, 1162688, Note_on_c, 0, 65, 85
1, 1162692, Note_off_c, 0, 73, 61
1, 1162692, Poly_aftertouch_c, 0, 79, 0
1, 1162710, Note_off_c, 0, 58, 65
1, 1162749, Note_off_c, 0, 65, 58
1, 1162770, Note_on_c, 0, 74, 97
1, 1162782, Note_on_c, 0, 58, 95
1, 1162809, Note_off_c, 0, 58, 57
1, 1162820, Note_off_c, 0, 74, 64
1, 1162858, Note_on_c, 0, 81, 101
1, 1162860, Note_on_c, 0, 58, 94
1, 1162913, Note_off_c, 0, 58, 64
1, 1162931, Note_on_c, 0, 76, 93
1, 1162945, Note_off_c, 0, 81, 60
1, 1162985, Poly_aftertouch_c, 0, 79, 0
1, 1163004, Note_off_c, 0, 76, 59
1, 1163013, Note_on_c, 0, 65, 69
1, 1163055, Note_off_c, 0, 65, 62
1, 1163061, Note_on_c, 0, 44, 73
1, 1163068, Note_on_c, 0, 77, 85
1, 1163088, Note_off_c, 0, 77, 71
1, 1163165, Note_on_c, 0, 53, 77
1, 1163189, Note_on_c, 0, 55, 105
1, 1163214, Note_off_c, 0, 53, 63
1, 1163220, Note_off_c, 0, 55, 64
1, 1163241, Note_on_c, 0, 47, 66
1, 1163264, Note_off_c, 0, 44, 57
1, 1163322, Note_on_c, 0, 38, 76
1, 1163330, Note_on_c, 0, 55, 112
1, 1163358, Note_off_c, 0, 55, 68
1, 1163392, Note_on_c, 0, 44, 73
1, 1163405, Note_off_c, 0, 38, 58
1, 1163423, Note_on_c, 0, 55, 121
1, 1163436, Note_on_c, 0, 53, 80
1, 1163437, Note_off_c, 0, 53, 127
1, 1163446, Note_off_c, 0, 47, 0
1, 1163455, Note_off_c, 0, 55, 68
1, 1163509, Poly_aftertouch_c, 0, 47, 0
1, 1163515, Note_on_c, 0, 53, 80
1, 1163522, Note_on_c, 0, 55, 112
1, 1163559, Note_off_c, 0, 55, 69
1, 1163603, Note_off_c, 0, 53, 63
1, 1163604, Note_on_c, 0, 47, 64
1, 1163609, Note_off_c, 0, 44, 62
1, 1163685, Note_on_c, 0, 38, 78
1, 1163753, Note_off_c, 0, 38, 58
1, 1163761, Note_on_c, 0, 44, 67
1, 1163772, Note_on_c, 0, 87, 95
1, 1163789, Note_off_c, 0, 87, 74
1, 1163830, Note_off_c, 0, 47, 57
1, 1163863, Note_on_c, 0, 53, 78
1, 1163873, Note_on_c, 0, 87, 122
1, 1163896, Note_on_c, 0, 88, 67
1, 1163896, Note_off_c, 0, 87, 72
1, 1163914, Note_off_c, 0, 88, 47
1, 1163926, Note_off_c, 0, 53, 64
1, 1163938, Note_on_c, 0, 47, 66
1, 1163942, Note_off_c, 0, 44, 61
1, 1163988, Note_on_c, 0, 87, 126
1, 1164001, Note_on_c, 0, 38, 86
1, 1164014, Note_off_c, 0, 87, 73
1, 1164034, Note_off_c, 0, 47, 60
1, 1164079, Note_on_c, 0, 44, 85
1, 1164092, Note_on_c, 0, 87, 117
1, 1164093, Note_off_c, 0, 38, 62
1, 1164095, Note_off_c, 0, 87, 0
1, 1164099, Note_on_c, 0, 88, 108
1, 1164108, Poly_aftertouch_c, 0, 87, 0
1, 1164111, Note_on_c, 0, 89, 81
1, 1164113, Note_off_c, 0, 88, 77
1, 1164124, Note_off_c, 0, 89, 69
1, 1164142, Note_on_c, 0, 87, 55
1, 1164143, Note_off_c, 0, 87, 127
1, 1164206, Control_c, 0, 64, 105
1, 1164221, Control_c, 0, 64, 60
1, 1164236, Control_c, 0, 64, 0
1, 1164285, Note_on_c, 0, 53, 89
1, 1164285, Note_on_c, 0, 95, 115
1, 1164286, Note_on_c, 0, 88, 112
1, 1164302, Control_c, 0, 64, 67
1, 1164308, Note_off_c, 0, 95, 72
1, 1164309, Note_off_c, 0, 88, 71
1, 1164317, Control_c, 0, 64, 127
1, 1164354, Note_off_c, 0, 53, 64
1, 1164387, Note_on_c, 0, 47, 68
1, 1164413, Note_off_c, 0, 44, 57
1, 1164491, Note_on_c, 0, 38, 76
1, 1164522, Note_on_c, 0, 63, 112
1, 1164569, Note_on_c, 0, 44, 65
1, 1164577, Note_off_c, 0, 38, 57
1, 1164600, Note_on_c, 0, 64, 2
1, 1164622, Note_off_c, 0, 63, 58
1, 1164638, Poly_aftertouch_c, 0, 73, 0
1, 1164639, Note_off_c, 0, 47, 49
1, 1164641, Note_off_c, 0, 64, 37
1, 1164687, Note_on_c, 0, 75, 102
1, 1164689, Note_on_c, 0, 63, 104
1, 1164690, Note_on_c, 0, 53, 77
1, 1164713, Note_on_c, 0, 73, 61
1, 1164732, Note_off_c, 0, 73, 64
1, 1164752, Note_off_c, 0, 53, 65
1, 1164755, Note_on_c, 0, 47, 71
1, 1164762, Note_off_c, 0, 63, 61
1, 1164785, Note_off_c, 0, 75, 58
1, 1164786, Note_off_c, 0, 44, 59
1, 1164823, Note_on_c, 0, 63, 105
1, 1164828, Note_on_c, 0, 38, 76
1, 1164848, Note_on_c, 0, 75, 61
1, 1164860, Note_off_c, 0, 75, 68
1, 1164881, Note_off_c, 0, 63, 62
1, 1164896, Note_on_c, 0, 44, 76
1, 1164907, Note_off_c, 0, 38, 58
1, 1164916, Note_on_c, 0, 75, 98
1, 1164925, Note_on_c, 0, 63, 97
1, 1164973, Note_off_c, 0, 63, 62
1, 1164984, Note_off_c, 0, 75, 60
1, 1164996, Note_off_c, 0, 47, 61
1, 1165026, Note_on_c, 0, 53, 82
1, 1165026, Note_on_c, 0, 75, 94
1, 1165033, Note_on_c, 0, 63, 93
1, 1165036, Control_c, 0, 64, 120
1, 1165045, Poly_aftertouch_c, 0, 64, 0
1, 1165051, Control_c, 0, 64, 73
1, 1165053, Note_on_c, 0, 76, 62
1, 1165066, Control_c, 0, 64, 45
1, 1165080, Control_c, 0, 64, 0
1, 1165093, Note_on_c, 0, 47, 60
1, 1165095, Note_off_c, 0, 63, 61
1, 1165095, Note_off_c, 0, 53, 64
1, 1165110, Control_c, 0, 64, 19
1, 1165124, Control_c, 0, 64, 57
1, 1165131, Note_off_c, 0, 76, 61
1, 1165134, Note_off_c, 0, 44, 60
1, 1165139, Control_c, 0, 64, 71
1, 1165154, Control_c, 0, 64, 127
1, 1165167, Note_on_c, 0, 38, 72
1, 1165240, Note_on_c, 0, 44, 78
1, 1165250, Note_on_c, 0, 65, 69
1, 1165255, Note_off_c, 0, 38, 57
1, 1165297, Note_on_c, 0, 74, 85
1, 1165298, Note_off_c, 0, 47, 60
1, 1165319, Note_off_c, 0, 65, 59
1, 1165333, Note_on_c, 0, 53, 77
1, 1165351, Note_on_c, 0, 81, 93
1, 1165360, Note_off_c, 0, 75, 52
1, 1165369, Note_off_c, 0, 74, 63
1, 1165382, Note_off_c, 0, 53, 66
1, 1165387, Poly_aftertouch_c, 0, 67, 0
1, 1165395, Note_on_c, 0, 47, 77
1, 1165405, Note_off_c, 0, 44, 59
1, 1165479, Note_on_c, 0, 38, 61
1, 1165497, Note_off_c, 0, 47, 55
1, 1165500, Note_on_c, 0, 79, 8
1, 1165516, Note_off_c, 0, 81, 62
1, 1165530, Note_on_c, 0, 75, 64
1, 1165543, Note_off_c, 0, 79, 46
1, 1165552, Note_on_c, 0, 44, 58
1, 1165556, Note_on_c, 0, 65, 76
1, 1165573, Note_off_c, 0, 38, 54
1, 1165594, Note_off_c, 0, 44, 57
1, 1165602, Note_off_c, 0, 65, 63
1, 1165616, Note_on_c, 0, 74, 71
1, 1165618, Note_off_c, 0, 75, 0
1, 1165629, Control_c, 0, 64, 82
1, 1165643, Note_on_c, 0, 47, 60
1, 1165644, Control_c, 0, 64, 65
1, 1165659, Control_c, 0, 64, 39
1, 1165661, Note_on_c, 0, 81, 82
1, 1165673, Note_off_c, 0, 74, 64
1, 1165674, Control_c, 0, 64, 33
1, 1165676, Note_off_c, 0, 47, 48
1, 1165679, Poly_aftertouch_c, 0, 75, 0
1, 1165688, Control_c, 0, 64, 50
1, 1165703, Control_c, 0, 64, 61
1, 1165718, Control_c, 0, 64, 68
1, 1165720, Note_on_c, 0, 41, 68
1, 1165740, Control_c, 0, 64, 86
1, 1165755, Control_c, 0, 64, 127
1, 1165775, Note_off_c, 0, 81, 56
1, 1165819, Note_on_c, 0, 32, 68
1, 1165838, Note_on_c, 0, 75, 56
1, 1165853, Note_off_c, 0, 41, 59
1, 1165873, Note_on_c, 0, 65, 72
1, 1165888, Note_on_c, 0, 40, 68
1, 1165888, Note_off_c, 0, 32, 62
1, 1165907, Note_off_c, 0, 75, 61
1, 1165927, Note_off_c, 0, 65, 62
1, 1165929, Note_on_c, 0, 74, 76
1, 1165960, Poly_aftertouch_c, 0, 39, 127
1, 1165976, Note_on_c, 0, 47, 82
1, 1165983, Note_on_c, 0, 81, 98
1, 1165995, Note_off_c, 0, 74, 66
1, 1166018, Poly_aftertouch_c, 0, 39, 0
1, 1166027, Note_off_c, 0, 40, 61
1, 1166039, Note_on_c, 0, 41, 79
1, 1166057, Note_off_c, 0, 47, 62
1, 1166115, Note_on_c, 0, 32, 81
1, 1166133, Note_off_c, 0, 81, 40
1, 1166157, Note_on_c, 0, 75, 74
1, 1166166, Note_off_c, 0, 41, 61
1, 1166177, Note_on_c, 0, 39, 53
1, 1166182, Note_on_c, 0, 65, 77
1, 1166195, Note_on_c, 0, 40, 77
1, 1166210, Note_off_c, 0, 75, 61
1, 1166212, Note_off_c, 0, 32, 63
1, 1166215, Note_off_c, 0, 39, 50
1, 1166238, Note_on_c, 0, 74, 86
1, 1166239, Note_on_c, 0, 67, 37
1, 1166244, Note_off_c, 0, 65, 58
1, 1166270, Note_off_c, 0, 67, 49
1, 1166272, Note_on_c, 0, 47, 88
1, 1166279, Note_on_c, 0, 81, 99
1, 1166299, Note_off_c, 0, 74, 65
1, 1166334, Note_on_c, 0, 42, 38
1, 1166335, Note_on_c, 0, 41, 82
1, 1166355, Note_off_c, 0, 47, 63
1, 1166370, Note_off_c, 0, 42, 52
1, 1166376, Note_off_c, 0, 40, 0
1, 1166398, Note_on_c, 0, 40, 36
1, 1166407, Note_on_c, 0, 32, 73
1, 1166420, Poly_aftertouch_c, 0, 45, 0
1, 1166429, Note_off_c, 0, 81, 59
1, 1166438, Note_on_c, 0, 75, 74
1, 1166444, Note_off_c, 0, 41, 55
1, 1166444, Poly_aftertouch_c, 0, 45, 0
1, 1166473, Note_off_c, 0, 40, 63
1, 1166475, Note_on_c, 0, 65, 75
1, 1166507, Note_off_c, 0, 75, 61
1, 1166534, Control_c, 0, 64, 86
1, 1166535, Note_on_c, 0, 74, 80
1, 1166536, Note_off_c, 0, 65, 62
1, 1166549, Control_c, 0, 64, 61
1, 1166554, Note_off_c, 0, 32, 38
1, 1166563, Control_c, 0, 64, 0
1, 1166582, Note_on_c, 0, 44, 77
1, 1166588, Note_on_c, 0, 81, 95
1, 1166594, Note_on_c, 0, 42, 39
1, 1166597, Note_off_c, 0, 74, 64
1, 1166608, Control_c, 0, 64, 32
1, 1166614, Note_off_c, 0, 44, 68
1, 1166623, Control_c, 0, 64, 63
1, 1166635, Note_off_c, 0, 42, 51
1, 1166638, Control_c, 0, 64, 82
1, 1166652, Control_c, 0, 64, 127
1, 1166663, Note_on_c, 0, 34, 81
1, 1166668, Note_on_c, 0, 75, 96
1, 1166684, Note_off_c, 0, 81, 58
1, 1166687, Poly_aftertouch_c, 0, 43, 0
1, 1166714, Poly_aftertouch_c, 0, 43, 0
1, 1166719, Note_on_c, 0, 76, 21
1, 1166731, Note_on_c, 0, 29, 86
1, 1166734, Note_on_c, 0, 65, 91
1, 1166737, Note_off_c, 0, 34, 62
1, 1166755, Note_off_c, 0, 75, 62
1, 1166758, Note_off_c, 0, 76, 40
1, 1166790, Note_off_c, 0, 65, 60
1, 1166803, Note_on_c, 0, 74, 102
1, 1166811, Note_on_c, 0, 34, 88
1, 1166818, Note_off_c, 0, 29, 62
1, 1166864, Note_on_c, 0, 44, 90
1, 1166874, Note_on_c, 0, 81, 105
1, 1166874, Note_off_c, 0, 34, 64
1, 1166877, Note_off_c, 0, 74, 62
1, 1166914, Note_off_c, 0, 44, 63
1, 1166944, Note_on_c, 0, 75, 99
1, 1166945, Note_on_c, 0, 35, 84
1, 1166958, Note_on_c, 0, 79, 64
1, 1166969, Note_on_c, 0, 41, 35
1, 1166969, Note_on_c, 0, 74, 86
1, 1166973, Note_off_c, 0, 81, 61
1, 1166981, Note_on_c, 0, 43, 2
1, 1166986, Note_off_c, 0, 79, 67
1, 1166997, Note_off_c, 0, 43, 0
1, 1167007, Note_on_c, 0, 64, 90
1, 1167008, Note_on_c, 0, 29, 93
1, 1167011, Note_off_c, 0, 41, 45
1, 1167024, Poly_aftertouch_c, 0, 43, 0
1, 1167025, Note_off_c, 0, 35, 61
1, 1167025, Note_off_c, 0, 74, 61
1, 1167033, Note_on_c, 0, 65, 52
1, 1167038, Note_off_c, 0, 75, 60
1, 1167064, Note_off_c, 0, 64, 62
1, 1167073, Note_off_c, 0, 65, 59
1, 1167083, Note_on_c, 0, 74, 101
1, 1167086, Note_on_c, 0, 34, 89
1, 1167096, Note_off_c, 0, 29, 62
1, 1167152, Note_on_c, 0, 44, 86
1, 1167154, Note_on_c, 0, 81, 101
1, 1167156, Poly_aftertouch_c, 0, 30, 127
1, 1167170, Note_off_c, 0, 74, 65
1, 1167174, Note_off_c, 0, 34, 62
1, 1167199, Note_off_c, 0, 44, 63
1, 1167202, Poly_aftertouch_c, 0, 30, 0
1, 1167239, Note_on_c, 0, 75, 105
1, 1167243, Note_on_c, 0, 35, 82
1, 1167246, Note_on_c, 0, 43, 27
1, 1167250, Note_off_c, 0, 81, 59
1, 1167266, Note_on_c, 0, 79, 42
1, 1167276, Note_on_c, 0, 78, 33
1, 1167285, Note_off_c, 0, 43, 46
1, 1167292, Note_off_c, 0, 79, 56
1, 1167294, Note_on_c, 0, 65, 86
1, 1167307, Note_off_c, 0, 78, 33
1, 1167309, Note_on_c, 0, 29, 90
1, 1167324, Note_off_c, 0, 35, 62
1, 1167330, Note_off_c, 0, 75, 60
1, 1167345, Note_off_c, 0, 65, 63
1, 1167369, Note_on_c, 0, 74, 95
1, 1167373, Note_on_c, 0, 67, 53
1, 1167384, Note_on_c, 0, 34, 87
1, 1167394, Note_off_c, 0, 67, 60
1, 1167397, Note_off_c, 0, 29, 62
1, 1167400, Control_c, 0, 64, 97
1, 1167415, Note_off_c, 0, 74, 67
1, 1167415, Control_c, 0, 64, 58
1, 1167430, Control_c, 0, 64, 0
1, 1167462, Note_on_c, 0, 44, 115
1, 1167462, Note_on_c, 0, 81, 105
1, 1167493, Note_off_c, 0, 34, 54
1, 1167518, Control_c, 0, 64, 65
1, 1167519, Note_off_c, 0, 81, 69
1, 1167520, Note_off_c, 0, 44, 64
1, 1167533, Control_c, 0, 64, 127
1, 1167545, Note_on_c, 0, 45, 3
1, 1167571, Poly_aftertouch_c, 0, 76, 0
1, 1167585, Note_off_c, 0, 45, 49
1, 1167756, Control_c, 0, 64, 107
1, 1167771, Control_c, 0, 64, 82
1, 1167785, Control_c, 0, 64, 65
1, 1167800, Control_c, 0, 64, 0
1, 1167970, Note_on_c, 0, 75, 110
1, 1167973, Note_on_c, 0, 63, 91
1, 1167999, Note_off_c, 0, 75, 66
1, 1168001, Note_off_c, 0, 63, 69
1, 1168043, Note_on_c, 0, 63, 100
1, 1168043, Note_on_c, 0, 75, 106
1, 1168061, Control_c, 0, 64, 91
1, 1168076, Note_off_c, 0, 63, 71
1, 1168076, Control_c, 0, 64, 127
1, 1168077, Note_off_c, 0, 75, 66
1, 1168349, Note_on_c, 0, 63, 93
1, 1168349, Note_on_c, 0, 75, 108
1, 1168368, Note_off_c, 0, 75, 65
1, 1168370, Note_off_c, 0, 63, 70
1, 1168418, Note_on_c, 0, 63, 104
1, 1168419, Note_on_c, 0, 75, 109
1, 1168451, Note_off_c, 0, 63, 66
1, 1168456, Note_on_c, 0, 74, 47
1, 1168456, Note_off_c, 0, 75, 65
1, 1168479, Note_off_c, 0, 74, 43
1, 1168857, Note_on_c, 0, 75, 117
1, 1168860, Note_on_c, 0, 63, 105
1, 1168892, Note_off_c, 0, 75, 62
1, 1168901, Note_off_c, 0, 63, 63
1, 1169376, Note_on_c, 0, 75, 98
1, 1169378, Note_on_c, 0, 70, 94
1, 1169384, Note_on_c, 0, 62, 88
1, 1169402, Control_c, 0, 64, 105
1, 1169417, Control_c, 0, 64, 65
1, 1169432, Control_c, 0, 64, 0
1, 1169483, Control_c, 0, 64, 23
1, 1169498, Control_c, 0, 64, 62
1, 1169513, Control_c, 0, 64, 76
1, 1169528, Control_c, 0, 64, 127
1, 1169542, Note_on_c, 0, 61, 72
1, 1169545, Note_on_c, 0, 69, 82
1, 1169569, Note_off_c, 0, 62, 60
1, 1169577, Note_off_c, 0, 70, 59
1, 1169608, Note_off_c, 0, 75, 55
1, 1169632, Note_off_c, 0, 69, 62
1, 1169634, Note_on_c, 0, 59, 58
1, 1169640, Note_on_c, 0, 67, 72
1, 1169641, Note_off_c, 0, 61, 62
1, 1169675, Note_off_c, 0, 59, 64
1, 1169712, Note_off_c, 0, 67, 60
1, 1169718, Note_on_c, 0, 57, 72
1, 1169731, Note_on_c, 0, 69, 70
1, 1169784, Note_off_c, 0, 57, 63
1, 1169795, Note_off_c, 0, 69, 61
1, 1169796, Note_on_c, 0, 55, 70
1, 1169798, Note_on_c, 0, 70, 77
1, 1169846, Note_off_c, 0, 70, 64
1, 1169851, Note_on_c, 0, 54, 68
1, 1169872, Note_off_c, 0, 55, 60
1, 1169885, Note_on_c, 0, 72, 73
1, 1169923, Note_on_c, 0, 52, 65
1, 1169925, Note_off_c, 0, 54, 64
1, 1169944, Note_off_c, 0, 72, 62
1, 1169954, Note_on_c, 0, 74, 72
1, 1169970, Note_off_c, 0, 52, 64
1, 1170004, Note_on_c, 0, 50, 73
1, 1170016, Note_on_c, 0, 75, 81
1, 1170018, Note_off_c, 0, 74, 62
1, 1170063, Note_off_c, 0, 75, 61
1, 1170064, Note_off_c, 0, 50, 63
1, 1170076, Note_on_c, 0, 49, 65
1, 1170091, Note_on_c, 0, 77, 85
1, 1170119, Note_on_c, 0, 47, 70
1, 1170126, Note_off_c, 0, 49, 61
1, 1170151, Note_off_c, 0, 77, 58
1, 1170159, Note_on_c, 0, 79, 84
1, 1170168, Note_off_c, 0, 47, 60
1, 1170192, Note_on_c, 0, 45, 80
1, 1170234, Note_on_c, 0, 81, 83
1, 1170240, Note_off_c, 0, 79, 65
1, 1170269, Note_on_c, 0, 43, 90
1, 1170284, Note_off_c, 0, 45, 61
1, 1170293, Note_on_c, 0, 82, 88
1, 1170311, Note_off_c, 0, 81, 65
1, 1170319, Note_on_c, 0, 42, 89
1, 1170335, Note_off_c, 0, 82, 66
1, 1170361, Note_off_c, 0, 43, 63
1, 1170362, Note_on_c, 0, 84, 96
1, 1170375, Note_on_c, 0, 40, 78
1, 1170395, Note_off_c, 0, 42, 65
1, 1170423, Note_off_c, 0, 40, 61
1, 1170430, Note_on_c, 0, 86, 94
1, 1170450, Note_off_c, 0, 84, 57
1, 1170454, Note_on_c, 0, 38, 81
1, 1170487, Note_on_c, 0, 87, 91
1, 1170505, Note_off_c, 0, 86, 64
1, 1170517, Note_on_c, 0, 37, 46
1, 1170518, Note_off_c, 0, 37, 127
1, 1170528, Note_off_c, 0, 87, 66
1, 1170553, Note_on_c, 0, 35, 77
1, 1170556, Note_on_c, 0, 89, 94
1, 1170570, Note_off_c, 0, 38, 62
1, 1170600, Note_off_c, 0, 35, 60
1, 1170621, Note_on_c, 0, 91, 97
1, 1170630, Note_on_c, 0, 33, 82
1, 1170649, Note_off_c, 0, 89, 61
1, 1170678, Note_on_c, 0, 93, 87
1, 1170693, Note_on_c, 0, 31, 87
1, 1170706, Note_off_c, 0, 91, 64
1, 1170724, Note_on_c, 0, 94, 93
1, 1170726, Note_off_c, 0, 33, 62
1, 1170736, Note_on_c, 0, 30, 82
1, 1170746, Note_off_c, 0, 93, 67
1, 1170770, Note_off_c, 0, 94, 64
1, 1170790, Note_off_c, 0, 31, 61
1, 1170794, Note_on_c, 0, 96, 100
1, 1170802, Note_off_c, 0, 30, 63
1, 1170803, Note_on_c, 0, 28, 74
1, 1170817, Note_on_c, 0, 27, 49
1, 1170836, Note_off_c, 0, 28, 64
1, 1170857, Note_on_c, 0, 98, 96
1, 1170857, Note_off_c, 0, 27, 50
1, 1170869, Note_on_c, 0, 26, 89
1, 1170870, Poly_aftertouch_c, 0, 29, 127
1, 1170880, Note_off_c, 0, 96, 67
1, 1170908, Note_on_c, 0, 99, 86
1, 1170911, Note_off_c, 0, 98, 68
1, 1170915, Poly_aftertouch_c, 0, 29, 0
1, 1170917, Note_on_c, 0, 25, 83
1, 1170946, Note_off_c, 0, 99, 62
1, 1170971, Note_on_c, 0, 100, 81
1, 1170976, Note_on_c, 0, 101, 89
1, 1170991, Note_off_c, 0, 26, 49
1, 1170993, Note_on_c, 0, 23, 82
1, 1171032, Note_off_c, 0, 25, 61
1, 1171043, Note_off_c, 0, 100, 66
1, 1171048, Note_off_c, 0, 23, 61
1, 1171052, Note_off_c, 0, 101, 67
1, 1171077, Poly_aftertouch_c, 0, 24, 127
1, 1171093, Note_on_c, 0, 21, 105
1, 1171093, Note_on_c, 0, 105, 116
1, 1171107, Poly_aftertouch_c, 0, 24, 0
1, 1171114, Control_c, 0, 64, 66
1, 1171128, Control_c, 0, 64, 0
1, 1171133, Note_on_c, 0, 23, 32
1, 1171133, Note_on_c, 0, 103, 26
1, 1171134, Note_off_c, 0, 103, 127
1, 1171162, Note_off_c, 0, 23, 33
1, 1171246, Note_off_c, 0, 21, 63
1, 1171246, Note_off_c, 0, 105, 59
1, 1171823, Note_on_c, 0, 52, 94
1, 1171825, Note_on_c, 0, 72, 105
1, 1171825, Note_on_c, 0, 76, 102
1, 1171864, Note_off_c, 0, 72, 67
1, 1171894, Note_on_c, 0, 70, 90
1, 1171895, Note_on_c, 0, 74, 78
1, 1171932, Note_off_c, 0, 76, 58
1, 1171962, Note_on_c, 0, 73, 88
1, 1171971, Note_on_c, 0, 69, 93
1, 1171995, Note_off_c, 0, 74, 58
1, 1172007, Note_off_c, 0, 70, 63
1, 1172043, Control_c, 0, 64, 23
1, 1172057, Control_c, 0, 64, 60
1, 1172072, Control_c, 0, 64, 70
1, 1172087, Control_c, 0, 64, 110
1, 1172093, Note_off_c, 0, 69, 61
1, 1172102, Control_c, 0, 64, 127
1, 1172129, Note_off_c, 0, 73, 64
1, 1172280, Note_on_c, 0, 64, 98
1, 1172283, Note_off_c, 0, 52, 58
1, 1172286, Note_on_c, 0, 88, 103
1, 1172287, Note_on_c, 0, 84, 108
1, 1172294, Control_c, 0, 64, 69
1, 1172309, Control_c, 0, 64, 0
1, 1172325, Note_off_c, 0, 84, 69
1, 1172347, Note_on_c, 0, 86, 25
1, 1172355, Note_on_c, 0, 82, 91
1, 1172389, Note_off_c, 0, 88, 63
1, 1172398, Control_c, 0, 64, 50
1, 1172413, Control_c, 0, 64, 77
1, 1172425, Note_on_c, 0, 85, 93
1, 1172428, Control_c, 0, 64, 127
1, 1172435, Note_on_c, 0, 81, 89
1, 1172451, Note_off_c, 0, 86, 62
1, 1172451, Note_on_c, 0, 83, 59
1, 1172454, Note_off_c, 0, 82, 66
1, 1172472, Note_off_c, 0, 83, 39
1, 1172491, Note_off_c, 0, 85, 67
1, 1172492, Note_off_c, 0, 81, 67
1, 1172581, Note_off_c, 0, 64, 59
1, 1172621, Note_on_c, 0, 63, 105
1, 1172627, Control_c, 0, 64, 105
1, 1172630, Note_on_c, 0, 72, 107
1, 1172633, Note_on_c, 0, 76, 103
1, 1172642, Control_c, 0, 64, 64
1, 1172657, Control_c, 0, 64, 0
1, 1172672, Note_off_c, 0, 72, 66
1, 1172701, Note_on_c, 0, 70, 88
1, 1172702, Note_on_c, 0, 74, 78
1, 1172731, Control_c, 0, 64, 59
1, 1172732, Note_off_c, 0, 76, 61
1, 1172746, Control_c, 0, 64, 110
1, 1172761, Control_c, 0, 64, 127
1, 1172769, Note_on_c, 0, 69, 101
1, 1172770, Note_on_c, 0, 73, 90
1, 1172797, Note_off_c, 0, 70, 64
1, 1172804, Note_off_c, 0, 74, 63
1, 1172821, Note_off_c, 0, 69, 64
1, 1172831, Note_off_c, 0, 73, 66
1, 1172862, Note_off_c, 0, 63, 59
1, 1172940, Control_c, 0, 64, 70
1, 1172943, Note_on_c, 0, 62, 112
1, 1172948, Note_on_c, 0, 88, 102
1, 1172949, Note_on_c, 0, 84, 110
1, 1172954, Control_c, 0, 64, 0
1, 1172986, Note_off_c, 0, 84, 70
1, 1173022, Note_on_c, 0, 82, 94
1, 1173024, Note_on_c, 0, 86, 80
1, 1173028, Control_c, 0, 64, 44
1, 1173043, Control_c, 0, 64, 76
1, 1173056, Note_off_c, 0, 88, 64
1, 1173058, Control_c, 0, 64, 127
1, 1173087, Note_on_c, 0, 85, 91
1, 1173089, Note_on_c, 0, 81, 95
1, 1173119, Note_off_c, 0, 82, 65
1, 1173126, Note_off_c, 0, 86, 63
1, 1173144, Note_off_c, 0, 62, 55
1, 1173152, Note_off_c, 0, 81, 65
1, 1173158, Note_off_c, 0, 85, 66
1, 1173264, Note_on_c, 0, 61, 103
1, 1173271, Control_c, 0, 64, 95
1, 1173273, Note_on_c, 0, 84, 105
1, 1173273, Note_on_c, 0, 88, 106
1, 1173286, Control_c, 0, 64, 57
1, 1173292, Note_on_c, 0, 62, 63
1, 1173301, Control_c, 0, 64, 0
1, 1173310, Note_off_c, 0, 62, 40
1, 1173333, Note_off_c, 0, 84, 0
1, 1173345, Control_c, 0, 64, 29
1, 1173350, Note_on_c, 0, 82, 90
1, 1173350, Note_on_c, 0, 86, 72
1, 1173355, Poly_aftertouch_c, 0, 84, 0
1, 1173360, Control_c, 0, 64, 67
1, 1173375, Control_c, 0, 64, 104
1, 1173382, Note_off_c, 0, 61, 57
1, 1173390, Control_c, 0, 64, 127
1, 1173394, Note_off_c, 0, 88, 61
1, 1173397, Note_off_c, 0, 86, 59
1, 1173428, Note_on_c, 0, 81, 96
1, 1173429, Note_on_c, 0, 85, 99
1, 1173447, Note_on_c, 0, 86, 45
1, 1173456, Note_off_c, 0, 82, 65
1, 1173470, Note_off_c, 0, 86, 57
1, 1173489, Note_off_c, 0, 85, 66
1, 1173489, Note_off_c, 0, 81, 66
1, 1173702, Note_on_c, 0, 72, 105
1, 1173703, Note_on_c, 0, 76, 103
1, 1173706, Note_on_c, 0, 64, 99
1, 1173707, Note_on_c, 0, 60, 99
1, 1173731, Control_c, 0, 64, 71
1, 1173738, Note_off_c, 0, 72, 70
1, 1173745, Note_off_c, 0, 60, 68
1, 1173745, Note_off_c, 0, 64, 68
1, 1173746, Note_off_c, 0, 76, 61
1, 1173746, Control_c, 0, 64, 0
1, 1173785, Note_on_c, 0, 70, 99
1, 1173791, Note_on_c, 0, 62, 93
1, 1173791, Note_on_c, 0, 74, 78
1, 1173811, Poly_aftertouch_c, 0, 76, 0
1, 1173811, Note_on_c, 0, 60, 27
1, 1173816, Note_off_c, 0, 74, 68
1, 1173817, Note_on_c, 0, 72, 42
1, 1173818, Note_off_c, 0, 72, 127
1, 1173830, Note_on_c, 0, 58, 17
1, 1173831, Note_off_c, 0, 58, 127
1, 1173831, Note_off_c, 0, 62, 67
1, 1173835, Note_off_c, 0, 70, 68
1, 1173835, Note_off_c, 0, 60, 52
1, 1173868, Note_on_c, 0, 57, 82
1, 1173876, Note_on_c, 0, 73, 100
1, 1173877, Note_on_c, 0, 61, 98
1, 1173882, Note_on_c, 0, 69, 105
1, 1173885, Note_on_c, 0, 62, 47
1, 1173900, Note_on_c, 0, 70, 53
1, 1173905, Note_on_c, 0, 72, 65
1, 1173905, Note_off_c, 0, 62, 60
1, 1173919, Note_off_c, 0, 70, 63
1, 1173923, Note_off_c, 0, 72, 66
1, 1174360, Control_c, 0, 64, 127
1, 1174449, Note_off_c, 0, 61, 61
1, 1174464, Note_off_c, 0, 57, 64
1, 1174500, Note_off_c, 0, 69, 60
1, 1174523, Note_off_c, 0, 73, 64
1, 1174753, Note_on_c, 0, 97, 26
1, 1174754, Note_off_c, 0, 97, 127
1, 1174823, Poly_aftertouch_c, 0, 25, 127
1, 1174865, Poly_aftertouch_c, 0, 25, 0
1, 1174902, Control_c, 0, 64, 90
1, 1174909, Note_on_c, 0, 37, 111
1, 1174911, Note_on_c, 0, 25, 95
1, 1174914, Note_on_c, 0, 100, 122
1, 1174916, Note_on_c, 0, 96, 120
1, 1174916, Poly_aftertouch_c, 0, 95, 0
1, 1174917, Control_c, 0, 64, 59
1, 1174920, Note_on_c, 0, 95, 100
1, 1174932, Control_c, 0, 64, 0
1, 1174935, Note_off_c, 0, 95, 72
1, 1174937, Note_on_c, 0, 27, 54
1, 1174941, Note_on_c, 0, 97, 52
1, 1174942, Note_off_c, 0, 97, 127
1, 1174942, Note_off_c, 0, 96, 69
1, 1174946, Control_c, 0, 64, 49
1, 1174949, Note_off_c, 0, 100, 63
1, 1174950, Note_on_c, 0, 98, 36
1, 1174951, Note_off_c, 0, 98, 127
1, 1174954, Note_off_c, 0, 37, 59
1, 1174961, Control_c, 0, 64, 74
1, 1174974, Note_off_c, 0, 27, 53
1, 1174976, Control_c, 0, 64, 127
1, 1174978, Note_off_c, 0, 25, 60
1, 1175042, Note_on_c, 0, 37, 102
1, 1175045, Note_on_c, 0, 25, 96
1, 1175045, Note_on_c, 0, 97, 113
1, 1175048, Note_on_c, 0, 100, 120
1, 1175058, Note_on_c, 0, 98, 83
1, 1175061, Note_on_c, 0, 101, 78
1, 1175072, Note_off_c, 0, 98, 70
1, 1175073, Note_off_c, 0, 97, 68
1, 1175076, Note_off_c, 0, 101, 69
1, 1175078, Note_off_c, 0, 25, 65
1, 1175080, Note_off_c, 0, 100, 64
1, 1175089, Note_off_c, 0, 37, 61
1, 1175148, Note_on_c, 0, 100, 114
1, 1175149, Note_on_c, 0, 24, 94
1, 1175150, Note_on_c, 0, 96, 97
1, 1175180, Note_off_c, 0, 100, 69
1, 1175184, Note_off_c, 0, 96, 68
1, 1175221, Note_off_c, 0, 24, 0
1, 1175235, Note_on_c, 0, 24, 58
1, 1175239, Note_on_c, 0, 100, 110
1, 1175241, Note_on_c, 0, 36, 90
1, 1175248, Note_on_c, 0, 96, 94
1, 1175249, Note_on_c, 0, 95, 91
1, 1175265, Note_off_c, 0, 24, 64
1, 1175267, Note_off_c, 0, 96, 72
1, 1175268, Note_off_c, 0, 95, 71
1, 1175272, Note_off_c, 0, 100, 68
1, 1175284, Note_off_c, 0, 36, 64
1, 1175322, Note_on_c, 0, 23, 94
1, 1175328, Note_on_c, 0, 95, 103
1, 1175331, Note_on_c, 0, 99, 96
1, 1175361, Note_off_c, 0, 95, 66
1, 1175364, Note_on_c, 0, 100, 46
1, 1175365, Note_off_c, 0, 100, 127
1, 1175370, Note_off_c, 0, 99, 50
1, 1175376, Note_off_c, 0, 23, 62
1, 1175400, Note_on_c, 0, 99, 88
1, 1175402, Note_on_c, 0, 35, 95
1, 1175405, Note_on_c, 0, 95, 97
1, 1175428, Note_on_c, 0, 23, 20
1, 1175442, Note_off_c, 0, 95, 63
1, 1175444, Note_off_c, 0, 99, 64
1, 1175446, Note_off_c, 0, 35, 63
1, 1175483, Note_off_c, 0, 23, 49
1, 1175493, Note_on_c, 0, 98, 92
1, 1175498, Note_on_c, 0, 22, 76
1, 1175502, Note_on_c, 0, 100, 89
1, 1175504, Note_on_c, 0, 95, 83
1, 1175506, Note_on_c, 0, 21, 88
1, 1175512, Note_on_c, 0, 94, 63
1, 1175516, Note_off_c, 0, 100, 66
1, 1175526, Note_on_c, 0, 99, 27
1, 1175527, Note_off_c, 0, 99, 127
1, 1175528, Note_off_c, 0, 95, 68
1, 1175537, Note_off_c, 0, 94, 52
1, 1175546, Note_off_c, 0, 98, 67
1, 1175563, Note_on_c, 0, 34, 84
1, 1175572, Note_on_c, 0, 98, 79
1, 1175575, Note_on_c, 0, 94, 88
1, 1175578, Note_off_c, 0, 21, 60
1, 1175584, Poly_aftertouch_c, 0, 25, 127
1, 1175601, Note_off_c, 0, 22, 61
1, 1175605, Note_off_c, 0, 34, 63
1, 1175611, Note_off_c, 0, 98, 68
1, 1175614, Note_off_c, 0, 94, 65
1, 1175630, Poly_aftertouch_c, 0, 25, 0
1, 1175639, Poly_aftertouch_c, 0, 32, 127
1, 1175659, Note_on_c, 0, 97, 112
1, 1175662, Note_on_c, 0, 33, 94
1, 1175663, Note_on_c, 0, 21, 103
1, 1175664, Note_on_c, 0, 93, 103
1, 1175676, Poly_aftertouch_c, 0, 32, 0
1, 1175680, Note_on_c, 0, 95, 76
1, 1175696, Control_c, 0, 64, 82
1, 1175700, Note_off_c, 0, 95, 42
1, 1175711, Control_c, 0, 64, 52
1, 1175718, Note_on_c, 0, 31, 14
1, 1175719, Note_off_c, 0, 31, 127
1, 1175725, Control_c, 0, 64, 0
1, 1176960, Poly_aftertouch_c, 0, 95, 127
1, 1177245, Poly_aftertouch_c, 0, 95, 0
1, 1177259, Note_off_c, 0, 93, 62
1, 1177271, Note_off_c, 0, 21, 61
1, 1177282, Note_off_c, 0, 97, 61
1, 1177294, Note_off_c, 0, 33, 60
1, 1177369, End_track
0, 0, End_of_file
