0, 0, Header, 0, 1, 384
1, 0, Start_track
1, 0, Title_t, "ChopinOp25No11--Sham            "
1, 0, Text_t, "2011 ePiano Junior Competition"
1, 0, Text_t, "captured in spring and summer 2011"
1, 0, Text_t, "http://www.piano-e-competition.com/"
1, 0, Text_t, "standard-resolution version"
1, 0, Text_t, "File processed for distribution with software designed and coded by Dr. John Q. Walker, founder of Zenph Sound Innovations"
1, 0, Instrument_name_t, "Yamaha Disklavier Pro Mark IV concert grand piano, model DCFIIISM4PRO"
1, 0, Sequencer_specific, 39, 67, 113, 0, 1, 0, 1, 0, 67, 104, 111, 112, 105, 110, 32, 79, 112, 50, 53, 32, 78, 111, 49, 49, 65, 114, 105, 115, 116, 111, 32, 83, 104, 97, 109, 32, 32, 32, 32, 32
1, 0, Sequencer_specific, 6, 67, 113, 0, 0, 0, 69
1, 0, System_exclusive, 21, 67, 113, 126, 21, 0, 2, 2, 2, 5, 12, 8, 4, 14, 1, 0, 10, 12, 11, 6, 3, 247
1, 0, Sequencer_specific, 5, 67, 123, 12, 2, 1
1, 0, Tempo, 512820
1, 0, Time_signature, 4, 2, 24, 8
1, 0, System_exclusive, 5, 126, 127, 9, 1, 247
1, 1, System_exclusive, 8, 67, 16, 76, 0, 0, 126, 0, 247
1, 2, System_exclusive, 8, 67, 16, 76, 8, 9, 7, 1, 247
1, 3, Control_c, 0, 0, 108
1, 3, Control_c, 1, 0, 108
1, 3, Control_c, 2, 0, 0
1, 3, Control_c, 3, 0, 0
1, 3, Control_c, 4, 0, 0
1, 3, Control_c, 5, 0, 0
1, 3, Control_c, 6, 0, 0
1, 3, Control_c, 7, 0, 0
1, 3, Control_c, 8, 0, 0
1, 3, Control_c, 9, 0, 127
1, 3, Control_c, 10, 0, 0
1, 3, Control_c, 11, 0, 0
1, 3, Control_c, 12, 0, 0
1, 3, Control_c, 13, 0, 0
1, 3, Control_c, 14, 0, 0
1, 3, Control_c, 15, 0, 0
1, 4, Control_c, 0, 32, 0
1, 4, Control_c, 1, 32, 0
1, 4, Control_c, 2, 32, 0
1, 4, Control_c, 3, 32, 0
1, 4, Control_c, 4, 32, 0
1, 4, Control_c, 5, 32, 0
1, 4, Control_c, 6, 32, 0
1, 4, Control_c, 7, 32, 0
1, 4, Control_c, 8, 32, 0
1, 4, Control_c, 9, 32, 0
1, 4, Control_c, 10, 32, 0
1, 4, Control_c, 11, 32, 0
1, 4, Control_c, 12, 32, 0
1, 4, Control_c, 13, 32, 0
1, 4, Control_c, 14, 32, 0
1, 4, Control_c, 15, 32, 0
1, 5, Program_c, 0, 0
1, 5, Program_c, 1, 0
1, 5, Program_c, 2, 0
1, 5, Program_c, 3, 0
1, 5, Program_c, 4, 0
1, 5, Program_c, 5, 0
1, 5, Program_c, 6, 0
1, 5, Program_c, 7, 0
1, 5, Program_c, 8, 0
1, 5, Program_c, 9, 0
1, 5, Program_c, 10, 0
1, 5, Program_c, 11, 0
1, 5, Program_c, 12, 0
1, 5, Program_c, 13, 0
1, 5, Program_c, 14, 0
1, 5, Program_c, 15, 0
1, 6, Control_c, 0, 7, 100
1, 6, Control_c, 1, 7, 100
1, 6, Control_c, 2, 7, 100
1, 6, Control_c, 3, 7, 100
1, 6, Control_c, 4, 7, 100
1, 6, Control_c, 5, 7, 100
1, 6, Control_c, 6, 7, 100
1, 6, Control_c, 7, 7, 100
1, 6, Control_c, 8, 7, 100
1, 6, Control_c, 9, 7, 100
1, 6, Control_c, 10, 7, 100
1, 6, Control_c, 11, 7, 100
1, 6, Control_c, 12, 7, 100
1, 6, Control_c, 13, 7, 100
1, 6, Control_c, 14, 7, 100
1, 6, Control_c, 15, 7, 100
1, 42, Control_c, 0, 64, 15
1, 79, Control_c, 0, 64, 31
1, 116, Control_c, 0, 64, 46
1, 153, Control_c, 0, 64, 63
1, 190, Control_c, 0, 64, 77
1, 226, Control_c, 0, 64, 94
1, 263, Control_c, 0, 64, 108
1, 300, Control_c, 0, 64, 127
1, 412, Poly_aftertouch_c, 0, 67, 127
1, 1032, Note_on_c, 0, 64, 48
1, 1798, Note_off_c, 0, 64, 25
1, 2190, Note_on_c, 0, 64, 38
1, 2245, Poly_aftertouch_c, 0, 67, 0
1, 2459, Note_off_c, 0, 64, 34
1, 3214, Note_on_c, 0, 64, 30
1, 3293, Note_off_c, 0, 64, 54
1, 3436, Note_on_c, 0, 64, 44
1, 4797, Note_on_c, 0, 65, 53
1, 5008, Control_c, 0, 64, 112
1, 5023, Control_c, 0, 64, 97
1, 5037, Control_c, 0, 64, 88
1, 5052, Control_c, 0, 64, 83
1, 5067, Control_c, 0, 64, 79
1, 5082, Control_c, 0, 64, 75
1, 5097, Control_c, 0, 64, 69
1, 5111, Control_c, 0, 64, 64
1, 5126, Control_c, 0, 64, 59
1, 5130, Note_off_c, 0, 64, 31
1, 5141, Control_c, 0, 64, 56
1, 5156, Control_c, 0, 64, 53
1, 5170, Control_c, 0, 64, 50
1, 5185, Control_c, 0, 64, 45
1, 5200, Control_c, 0, 64, 37
1, 5215, Control_c, 0, 64, 24
1, 5230, Control_c, 0, 64, 12
1, 5244, Control_c, 0, 64, 0
1, 5334, Control_c, 0, 64, 11
1, 5349, Control_c, 0, 64, 30
1, 5364, Control_c, 0, 64, 43
1, 5378, Control_c, 0, 64, 51
1, 5393, Control_c, 0, 64, 56
1, 5408, Control_c, 0, 64, 60
1, 5423, Control_c, 0, 64, 62
1, 5446, Control_c, 0, 64, 64
1, 5460, Control_c, 0, 64, 66
1, 5475, Control_c, 0, 64, 70
1, 5491, Control_c, 0, 64, 75
1, 5506, Control_c, 0, 64, 84
1, 5521, Control_c, 0, 64, 98
1, 5536, Control_c, 0, 64, 127
1, 6019, Note_on_c, 0, 64, 45
1, 6173, Control_c, 0, 64, 113
1, 6195, Control_c, 0, 64, 100
1, 6210, Control_c, 0, 64, 93
1, 6224, Control_c, 0, 64, 88
1, 6239, Control_c, 0, 64, 81
1, 6252, Note_off_c, 0, 65, 37
1, 6254, Control_c, 0, 64, 75
1, 6269, Control_c, 0, 64, 68
1, 6284, Control_c, 0, 64, 63
1, 6299, Control_c, 0, 64, 58
1, 6314, Control_c, 0, 64, 54
1, 6329, Control_c, 0, 64, 52
1, 6344, Control_c, 0, 64, 50
1, 6359, Control_c, 0, 64, 48
1, 6373, Control_c, 0, 64, 44
1, 6388, Control_c, 0, 64, 41
1, 6403, Control_c, 0, 64, 39
1, 6447, Control_c, 0, 64, 39
1, 6462, Control_c, 0, 64, 41
1, 6477, Control_c, 0, 64, 45
1, 6491, Control_c, 0, 64, 49
1, 6506, Control_c, 0, 64, 53
1, 6521, Control_c, 0, 64, 57
1, 6536, Control_c, 0, 64, 60
1, 6551, Control_c, 0, 64, 62
1, 6565, Control_c, 0, 64, 63
1, 6580, Control_c, 0, 64, 65
1, 6595, Control_c, 0, 64, 66
1, 6609, Control_c, 0, 64, 69
1, 6624, Control_c, 0, 64, 72
1, 6639, Control_c, 0, 64, 75
1, 6654, Control_c, 0, 64, 79
1, 6669, Control_c, 0, 64, 85
1, 6683, Control_c, 0, 64, 94
1, 6698, Control_c, 0, 64, 113
1, 6713, Control_c, 0, 64, 127
1, 7207, Note_on_c, 0, 60, 43
1, 7314, Control_c, 0, 64, 119
1, 7329, Control_c, 0, 64, 108
1, 7344, Control_c, 0, 64, 101
1, 7358, Control_c, 0, 64, 96
1, 7373, Control_c, 0, 64, 93
1, 7388, Control_c, 0, 64, 89
1, 7403, Control_c, 0, 64, 82
1, 7418, Control_c, 0, 64, 77
1, 7432, Control_c, 0, 64, 72
1, 7447, Control_c, 0, 64, 69
1, 7462, Control_c, 0, 64, 66
1, 7477, Control_c, 0, 64, 63
1, 7492, Control_c, 0, 64, 59
1, 7506, Control_c, 0, 64, 56
1, 7521, Control_c, 0, 64, 54
1, 7536, Control_c, 0, 64, 52
1, 7551, Control_c, 0, 64, 49
1, 7561, Note_off_c, 0, 64, 29
1, 7566, Control_c, 0, 64, 47
1, 7581, Control_c, 0, 64, 44
1, 7596, Control_c, 0, 64, 44
1, 7655, Control_c, 0, 64, 44
1, 7670, Control_c, 0, 64, 46
1, 7693, Control_c, 0, 64, 48
1, 7708, Control_c, 0, 64, 51
1, 7723, Control_c, 0, 64, 54
1, 7736, Control_c, 0, 64, 57
1, 7751, Control_c, 0, 64, 58
1, 7766, Control_c, 0, 64, 60
1, 7781, Control_c, 0, 64, 61
1, 7796, Control_c, 0, 64, 62
1, 7810, Control_c, 0, 64, 63
1, 7825, Control_c, 0, 64, 64
1, 7840, Control_c, 0, 64, 66
1, 7855, Control_c, 0, 64, 67
1, 7870, Control_c, 0, 64, 69
1, 7885, Control_c, 0, 64, 71
1, 7900, Control_c, 0, 64, 73
1, 7915, Control_c, 0, 64, 77
1, 7930, Control_c, 0, 64, 81
1, 7944, Control_c, 0, 64, 85
1, 7959, Control_c, 0, 64, 92
1, 7974, Control_c, 0, 64, 100
1, 7988, Control_c, 0, 64, 113
1, 8003, Control_c, 0, 64, 127
1, 8709, Note_on_c, 0, 64, 34
1, 8841, Control_c, 0, 64, 119
1, 8856, Control_c, 0, 64, 109
1, 8871, Control_c, 0, 64, 102
1, 8885, Control_c, 0, 64, 96
1, 8900, Control_c, 0, 64, 90
1, 8915, Control_c, 0, 64, 86
1, 8930, Control_c, 0, 64, 83
1, 8945, Control_c, 0, 64, 82
1, 8959, Control_c, 0, 64, 79
1, 8974, Control_c, 0, 64, 76
1, 8989, Control_c, 0, 64, 72
1, 9003, Control_c, 0, 64, 70
1, 9018, Control_c, 0, 64, 69
1, 9022, Note_off_c, 0, 60, 31
1, 9033, Control_c, 0, 64, 68
1, 9048, Control_c, 0, 64, 66
1, 9063, Control_c, 0, 64, 64
1, 9077, Control_c, 0, 64, 62
1, 9092, Control_c, 0, 64, 61
1, 9107, Control_c, 0, 64, 61
1, 9122, Control_c, 0, 64, 60
1, 9137, Control_c, 0, 64, 57
1, 9152, Control_c, 0, 64, 54
1, 9167, Control_c, 0, 64, 51
1, 9189, Control_c, 0, 64, 49
1, 9204, Control_c, 0, 64, 46
1, 9218, Control_c, 0, 64, 44
1, 9234, Control_c, 0, 64, 42
1, 9249, Control_c, 0, 64, 40
1, 9264, Control_c, 0, 64, 39
1, 9279, Control_c, 0, 64, 38
1, 9295, Control_c, 0, 64, 37
1, 9309, Control_c, 0, 64, 36
1, 9324, Control_c, 0, 64, 33
1, 9339, Control_c, 0, 64, 32
1, 9354, Control_c, 0, 64, 31
1, 9369, Control_c, 0, 64, 30
1, 9383, Control_c, 0, 64, 28
1, 9398, Control_c, 0, 64, 25
1, 9413, Control_c, 0, 64, 23
1, 9428, Control_c, 0, 64, 22
1, 9472, Control_c, 0, 64, 21
1, 9502, Control_c, 0, 64, 21
1, 9561, Control_c, 0, 64, 20
1, 9694, Control_c, 0, 67, 24
1, 9709, Control_c, 0, 67, 46
1, 9724, Control_c, 0, 67, 69
1, 9739, Control_c, 0, 67, 93
1, 9754, Control_c, 0, 67, 119
1, 9769, Control_c, 0, 67, 127
1, 9857, Control_c, 0, 64, 29
1, 9872, Control_c, 0, 64, 43
1, 9887, Control_c, 0, 64, 52
1, 9901, Control_c, 0, 64, 57
1, 9916, Control_c, 0, 64, 61
1, 9939, Control_c, 0, 64, 64
1, 9954, Control_c, 0, 64, 66
1, 9968, Control_c, 0, 64, 69
1, 9983, Control_c, 0, 64, 74
1, 9998, Control_c, 0, 64, 81
1, 10013, Control_c, 0, 64, 94
1, 10028, Control_c, 0, 64, 127
1, 10329, Note_off_c, 0, 64, 35
1, 11650, Note_on_c, 0, 55, 20
1, 11653, Note_on_c, 0, 60, 28
1, 11655, Note_on_c, 0, 64, 36
1, 11675, Note_on_c, 0, 48, 11
1, 12323, Note_off_c, 0, 48, 33
1, 12330, Note_off_c, 0, 55, 35
1, 12353, Note_off_c, 0, 64, 36
1, 12381, Note_off_c, 0, 60, 35
1, 12821, Note_on_c, 0, 64, 22
1, 12822, Note_on_c, 0, 48, 24
1, 12827, Note_on_c, 0, 55, 19
1, 12830, Note_on_c, 0, 60, 22
1, 13092, Note_off_c, 0, 48, 34
1, 13098, Note_off_c, 0, 60, 35
1, 13124, Note_off_c, 0, 64, 39
1, 13133, Note_off_c, 0, 55, 36
1, 13828, Note_on_c, 0, 64, 35
1, 13832, Note_on_c, 0, 55, 23
1, 13842, Note_on_c, 0, 60, 30
1, 13843, Note_on_c, 0, 48, 28
1, 13910, Note_off_c, 0, 60, 53
1, 13923, Note_off_c, 0, 64, 56
1, 13924, Note_off_c, 0, 55, 50
1, 13942, Note_off_c, 0, 48, 39
1, 14046, Note_on_c, 0, 64, 44
1, 14052, Note_on_c, 0, 48, 28
1, 14058, Note_on_c, 0, 55, 22
1, 14067, Note_on_c, 0, 60, 34
1, 14483, Note_off_c, 0, 60, 42
1, 14681, Note_off_c, 0, 55, 44
1, 15243, Note_on_c, 0, 65, 49
1, 15246, Note_on_c, 0, 57, 35
1, 15248, Note_on_c, 0, 41, 26
1, 15251, Note_on_c, 0, 60, 43
1, 15342, Control_c, 0, 64, 104
1, 15357, Control_c, 0, 64, 92
1, 15372, Control_c, 0, 64, 83
1, 15387, Control_c, 0, 64, 76
1, 15401, Control_c, 0, 64, 70
1, 15416, Control_c, 0, 64, 64
1, 15423, Note_off_c, 0, 64, 51
1, 15428, Note_off_c, 0, 48, 40
1, 15431, Control_c, 0, 64, 58
1, 15445, Control_c, 0, 64, 51
1, 15460, Control_c, 0, 64, 46
1, 15475, Control_c, 0, 64, 43
1, 15490, Control_c, 0, 64, 40
1, 15505, Control_c, 0, 64, 37
1, 15519, Control_c, 0, 64, 36
1, 15534, Control_c, 0, 64, 36
1, 15549, Control_c, 0, 64, 36
1, 15564, Control_c, 0, 64, 41
1, 15579, Control_c, 0, 64, 48
1, 15593, Control_c, 0, 64, 54
1, 15608, Control_c, 0, 64, 59
1, 15623, Control_c, 0, 64, 62
1, 15638, Control_c, 0, 64, 64
1, 15653, Control_c, 0, 64, 67
1, 15668, Control_c, 0, 64, 70
1, 15683, Control_c, 0, 64, 74
1, 15698, Control_c, 0, 64, 79
1, 15713, Control_c, 0, 64, 85
1, 15728, Control_c, 0, 64, 92
1, 15742, Control_c, 0, 64, 102
1, 15757, Control_c, 0, 64, 113
1, 15772, Control_c, 0, 64, 127
1, 15865, Note_off_c, 0, 60, 38
1, 15881, Note_off_c, 0, 57, 41
1, 16482, Note_on_c, 0, 64, 41
1, 16488, Note_on_c, 0, 55, 28
1, 16488, Note_on_c, 0, 60, 37
1, 16500, Note_on_c, 0, 36, 15
1, 16551, Control_c, 0, 64, 115
1, 16565, Control_c, 0, 64, 108
1, 16580, Control_c, 0, 64, 99
1, 16595, Control_c, 0, 64, 90
1, 16610, Control_c, 0, 64, 82
1, 16625, Control_c, 0, 64, 76
1, 16640, Control_c, 0, 64, 70
1, 16655, Control_c, 0, 64, 65
1, 16672, Note_off_c, 0, 65, 50
1, 16677, Control_c, 0, 64, 60
1, 16690, Note_off_c, 0, 41, 38
1, 16692, Control_c, 0, 64, 54
1, 16706, Control_c, 0, 64, 48
1, 16722, Control_c, 0, 64, 44
1, 16737, Control_c, 0, 64, 42
1, 16781, Control_c, 0, 64, 43
1, 16796, Control_c, 0, 64, 47
1, 16811, Control_c, 0, 64, 52
1, 16826, Control_c, 0, 64, 56
1, 16841, Control_c, 0, 64, 60
1, 16855, Control_c, 0, 64, 63
1, 16870, Control_c, 0, 64, 65
1, 16885, Control_c, 0, 64, 67
1, 16899, Control_c, 0, 64, 70
1, 16914, Control_c, 0, 64, 74
1, 16929, Control_c, 0, 64, 79
1, 16944, Control_c, 0, 64, 83
1, 16959, Control_c, 0, 64, 91
1, 16974, Control_c, 0, 64, 99
1, 16988, Control_c, 0, 64, 112
1, 17003, Control_c, 0, 64, 127
1, 17069, Note_off_c, 0, 60, 34
1, 17134, Note_off_c, 0, 55, 44
1, 17726, Note_on_c, 0, 60, 38
1, 17734, Note_on_c, 0, 57, 35
1, 17757, Note_on_c, 0, 53, 27
1, 17760, Note_on_c, 0, 41, 12
1, 17871, Control_c, 0, 64, 113
1, 17886, Control_c, 0, 64, 95
1, 17901, Control_c, 0, 64, 83
1, 17915, Control_c, 0, 64, 75
1, 17930, Control_c, 0, 64, 69
1, 17945, Control_c, 0, 64, 65
1, 17959, Note_off_c, 0, 36, 38
1, 17960, Control_c, 0, 64, 62
1, 17975, Control_c, 0, 64, 57
1, 17982, Note_off_c, 0, 64, 36
1, 17989, Control_c, 0, 64, 52
1, 18004, Control_c, 0, 64, 49
1, 18019, Control_c, 0, 64, 47
1, 18034, Control_c, 0, 64, 46
1, 18094, Control_c, 0, 64, 47
1, 18109, Control_c, 0, 64, 51
1, 18124, Control_c, 0, 64, 55
1, 18138, Control_c, 0, 64, 59
1, 18153, Control_c, 0, 64, 62
1, 18175, Control_c, 0, 64, 64
1, 18190, Control_c, 0, 64, 66
1, 18205, Control_c, 0, 64, 69
1, 18219, Control_c, 0, 64, 72
1, 18234, Control_c, 0, 64, 75
1, 18249, Control_c, 0, 64, 79
1, 18263, Control_c, 0, 64, 85
1, 18278, Control_c, 0, 64, 91
1, 18293, Control_c, 0, 64, 99
1, 18308, Control_c, 0, 64, 114
1, 18323, Control_c, 0, 64, 127
1, 18456, Note_off_c, 0, 53, 37
1, 18507, Note_off_c, 0, 57, 39
1, 18580, Note_off_c, 0, 60, 36
1, 19182, Note_on_c, 0, 64, 31
1, 19190, Note_on_c, 0, 36, 30
1, 19194, Note_on_c, 0, 55, 27
1, 19196, Note_on_c, 0, 60, 28
1, 19353, Control_c, 0, 64, 103
1, 19367, Control_c, 0, 64, 87
1, 19382, Control_c, 0, 64, 78
1, 19397, Control_c, 0, 64, 71
1, 19412, Control_c, 0, 64, 66
1, 19427, Control_c, 0, 64, 62
1, 19439, Note_off_c, 0, 41, 38
1, 19442, Control_c, 0, 64, 58
1, 19457, Control_c, 0, 64, 54
1, 19472, Control_c, 0, 64, 51
1, 19486, Control_c, 0, 64, 50
1, 19501, Control_c, 0, 64, 50
1, 19546, Control_c, 0, 64, 50
1, 19560, Control_c, 0, 64, 53
1, 19575, Control_c, 0, 64, 55
1, 19590, Control_c, 0, 64, 58
1, 19605, Control_c, 0, 64, 60
1, 19619, Control_c, 0, 64, 62
1, 19634, Control_c, 0, 64, 64
1, 19649, Control_c, 0, 64, 65
1, 19672, Control_c, 0, 64, 66
1, 19687, Control_c, 0, 64, 68
1, 19702, Control_c, 0, 64, 70
1, 19716, Control_c, 0, 64, 72
1, 19731, Control_c, 0, 64, 74
1, 19746, Control_c, 0, 64, 78
1, 19761, Control_c, 0, 64, 81
1, 19776, Control_c, 0, 64, 85
1, 19791, Control_c, 0, 64, 90
1, 19805, Control_c, 0, 64, 96
1, 19820, Control_c, 0, 64, 104
1, 19835, Control_c, 0, 64, 119
1, 19850, Control_c, 0, 64, 127
1, 19981, Note_off_c, 0, 60, 40
1, 20015, Note_off_c, 0, 55, 40
1, 21481, Note_on_c, 0, 56, 26
1, 21485, Note_on_c, 0, 62, 26
1, 21497, Note_on_c, 0, 35, 27
1, 21645, Control_c, 0, 64, 104
1, 21660, Control_c, 0, 64, 91
1, 21674, Control_c, 0, 64, 80
1, 21689, Control_c, 0, 64, 72
1, 21704, Control_c, 0, 64, 65
1, 21719, Control_c, 0, 64, 59
1, 21725, Note_off_c, 0, 36, 40
1, 21734, Control_c, 0, 64, 53
1, 21749, Control_c, 0, 64, 47
1, 21763, Control_c, 0, 64, 42
1, 21778, Control_c, 0, 64, 37
1, 21793, Control_c, 0, 64, 31
1, 21808, Control_c, 0, 64, 27
1, 21823, Control_c, 0, 64, 25
1, 21837, Control_c, 0, 64, 25
1, 21881, Control_c, 0, 64, 26
1, 21896, Control_c, 0, 64, 32
1, 21919, Control_c, 0, 64, 39
1, 21934, Control_c, 0, 64, 47
1, 21949, Control_c, 0, 64, 52
1, 21962, Control_c, 0, 64, 56
1, 21977, Control_c, 0, 64, 59
1, 21992, Control_c, 0, 64, 61
1, 22007, Control_c, 0, 64, 62
1, 22022, Control_c, 0, 64, 64
1, 22036, Control_c, 0, 64, 65
1, 22051, Control_c, 0, 64, 67
1, 22067, Control_c, 0, 64, 69
1, 22082, Control_c, 0, 64, 72
1, 22097, Control_c, 0, 64, 75
1, 22111, Control_c, 0, 64, 79
1, 22126, Control_c, 0, 64, 83
1, 22141, Control_c, 0, 64, 89
1, 22156, Control_c, 0, 64, 98
1, 22171, Control_c, 0, 64, 116
1, 22185, Control_c, 0, 64, 127
1, 22769, Note_off_c, 0, 56, 40
1, 23557, Note_off_c, 0, 62, 48
1, 23560, Note_off_c, 0, 64, 57
1, 23698, Control_c, 0, 67, 95
1, 23713, Control_c, 0, 67, 44
1, 23728, Control_c, 0, 67, 0
1, 24107, Note_off_c, 0, 35, 39
1, 24127, Note_on_c, 0, 33, 102
1, 24128, Control_c, 0, 64, 70
1, 24136, Note_on_c, 0, 101, 100
1, 24143, Note_on_c, 0, 103, 93
1, 24143, Control_c, 0, 64, 0
1, 24168, Note_off_c, 0, 103, 56
1, 24209, Note_on_c, 0, 96, 95
1, 24225, Control_c, 0, 64, 69
1, 24239, Control_c, 0, 64, 127
1, 24270, Note_on_c, 0, 100, 86
1, 24270, Note_off_c, 0, 33, 64
1, 24277, Note_off_c, 0, 96, 67
1, 24319, Note_on_c, 0, 93, 73
1, 24326, Note_off_c, 0, 101, 64
1, 24360, Note_on_c, 0, 99, 90
1, 24393, Note_off_c, 0, 100, 65
1, 24423, Note_on_c, 0, 96, 79
1, 24441, Note_off_c, 0, 99, 66
1, 24463, Note_off_c, 0, 96, 67
1, 24476, Note_on_c, 0, 57, 101
1, 24479, Note_on_c, 0, 64, 106
1, 24483, Note_on_c, 0, 60, 91
1, 24488, Note_off_c, 0, 93, 59
1, 24490, Note_on_c, 0, 98, 101
1, 24498, Note_on_c, 0, 96, 77
1, 24516, Note_off_c, 0, 64, 68
1, 24521, Note_off_c, 0, 96, 55
1, 24522, Note_on_c, 0, 59, 21
1, 24522, Note_off_c, 0, 57, 66
1, 24524, Note_off_c, 0, 60, 66
1, 24542, Note_on_c, 0, 94, 77
1, 24560, Note_on_c, 0, 93, 83
1, 24564, Note_off_c, 0, 59, 53
1, 24575, Note_off_c, 0, 94, 50
1, 24588, Note_on_c, 0, 97, 92
1, 24597, Note_off_c, 0, 93, 65
1, 24615, Note_off_c, 0, 98, 67
1, 24652, Note_on_c, 0, 93, 80
1, 24664, Note_off_c, 0, 97, 64
1, 24706, Note_on_c, 0, 96, 96
1, 24719, Note_off_c, 0, 93, 67
1, 24739, Note_on_c, 0, 60, 86
1, 24739, Note_on_c, 0, 64, 96
1, 24741, Note_on_c, 0, 57, 82
1, 24757, Note_off_c, 0, 96, 66
1, 24763, Note_on_c, 0, 88, 70
1, 24763, Note_off_c, 0, 64, 62
1, 24765, Note_off_c, 0, 60, 65
1, 24774, Note_off_c, 0, 57, 63
1, 24810, Note_on_c, 0, 57, 84
1, 24811, Note_on_c, 0, 64, 100
1, 24816, Note_on_c, 0, 95, 93
1, 24817, Note_on_c, 0, 60, 91
1, 24818, Control_c, 0, 64, 97
1, 24823, Note_on_c, 0, 96, 90
1, 24826, Note_off_c, 0, 88, 64
1, 24833, Control_c, 0, 64, 65
1, 24847, Control_c, 0, 64, 0
1, 24870, Note_off_c, 0, 96, 41
1, 24873, Note_on_c, 0, 88, 84
1, 24889, Note_off_c, 0, 95, 65
1, 24914, Control_c, 0, 64, 48
1, 24929, Control_c, 0, 64, 67
1, 24944, Control_c, 0, 64, 81
1, 24946, Note_on_c, 0, 94, 97
1, 24955, Note_off_c, 0, 88, 65
1, 24959, Control_c, 0, 64, 127
1, 24982, Note_off_c, 0, 57, 61
1, 24986, Note_off_c, 0, 60, 57
1, 24994, Note_on_c, 0, 84, 79
1, 25007, Note_off_c, 0, 94, 64
1, 25042, Note_on_c, 0, 93, 94
1, 25055, Note_off_c, 0, 84, 63
1, 25094, Note_on_c, 0, 88, 86
1, 25118, Poly_aftertouch_c, 0, 86, 0
1, 25128, Note_off_c, 0, 93, 64
1, 25144, Note_on_c, 0, 65, 101
1, 25146, Note_on_c, 0, 60, 80
1, 25150, Note_on_c, 0, 57, 85
1, 25151, Control_c, 0, 64, 86
1, 25154, Note_on_c, 0, 92, 94
1, 25159, Note_off_c, 0, 64, 39
1, 25163, Note_off_c, 0, 88, 67
1, 25166, Control_c, 0, 64, 68
1, 25180, Control_c, 0, 64, 44
1, 25195, Control_c, 0, 64, 0
1, 25212, Note_off_c, 0, 92, 63
1, 25213, Note_on_c, 0, 84, 76
1, 25240, Control_c, 0, 64, 48
1, 25256, Control_c, 0, 64, 64
1, 25261, Note_on_c, 0, 91, 96
1, 25271, Control_c, 0, 64, 76
1, 25277, Note_off_c, 0, 84, 60
1, 25285, Control_c, 0, 64, 127
1, 25314, Note_on_c, 0, 84, 75
1, 25323, Note_off_c, 0, 91, 65
1, 25345, Note_off_c, 0, 60, 59
1, 25375, Note_on_c, 0, 90, 98
1, 25376, Note_off_c, 0, 84, 67
1, 25378, Note_off_c, 0, 57, 44
1, 25431, Note_on_c, 0, 81, 79
1, 25448, Note_off_c, 0, 90, 63
1, 25479, Note_on_c, 0, 64, 99
1, 25484, Note_on_c, 0, 57, 85
1, 25486, Note_on_c, 0, 60, 89
1, 25486, Note_on_c, 0, 89, 97
1, 25493, Control_c, 0, 64, 79
1, 25497, Note_off_c, 0, 81, 57
1, 25500, Note_off_c, 0, 65, 61
1, 25508, Control_c, 0, 64, 58
1, 25523, Control_c, 0, 64, 0
1, 25549, Note_on_c, 0, 84, 92
1, 25582, Control_c, 0, 64, 40
1, 25597, Control_c, 0, 64, 63
1, 25605, Note_on_c, 0, 88, 89
1, 25611, Note_off_c, 0, 84, 67
1, 25611, Control_c, 0, 64, 75
1, 25621, Note_off_c, 0, 57, 63
1, 25622, Note_off_c, 0, 60, 61
1, 25626, Control_c, 0, 64, 100
1, 25636, Note_off_c, 0, 89, 63
1, 25641, Control_c, 0, 64, 127
1, 25668, Note_on_c, 0, 81, 75
1, 25691, Note_off_c, 0, 64, 59
1, 25705, Note_on_c, 0, 87, 98
1, 25729, Note_off_c, 0, 81, 65
1, 25729, Note_off_c, 0, 88, 67
1, 25774, Note_on_c, 0, 84, 83
1, 25783, Note_on_c, 0, 81, 35
1, 25789, Note_off_c, 0, 87, 66
1, 25825, Note_on_c, 0, 60, 102
1, 25827, Note_on_c, 0, 52, 89
1, 25827, Note_off_c, 0, 81, 51
1, 25827, Note_on_c, 0, 57, 92
1, 25834, Note_on_c, 0, 86, 98
1, 25834, Note_off_c, 0, 84, 45
1, 25898, Note_on_c, 0, 81, 82
1, 25916, Note_on_c, 0, 83, 59
1, 25937, Note_off_c, 0, 83, 40
1, 25947, Note_on_c, 0, 85, 91
1, 25948, Note_off_c, 0, 81, 67
1, 25967, Note_off_c, 0, 86, 62
1, 25970, Note_off_c, 0, 57, 62
1, 25987, Note_off_c, 0, 60, 54
1, 26009, Note_on_c, 0, 81, 91
1, 26019, Note_off_c, 0, 85, 66
1, 26065, Note_on_c, 0, 84, 100
1, 26072, Note_off_c, 0, 81, 64
1, 26116, Note_off_c, 0, 84, 65
1, 26119, Note_on_c, 0, 76, 77
1, 26151, Control_c, 0, 64, 100
1, 26154, Note_on_c, 0, 64, 101
1, 26159, Note_on_c, 0, 60, 99
1, 26163, Note_on_c, 0, 57, 85
1, 26166, Control_c, 0, 64, 71
1, 26172, Note_off_c, 0, 52, 63
1, 26175, Note_on_c, 0, 83, 102
1, 26181, Control_c, 0, 64, 47
1, 26185, Note_off_c, 0, 76, 62
1, 26196, Control_c, 0, 64, 0
1, 26239, Note_on_c, 0, 76, 79
1, 26254, Note_off_c, 0, 83, 64
1, 26270, Control_c, 0, 64, 64
1, 26285, Control_c, 0, 64, 79
1, 26299, Control_c, 0, 64, 127
1, 26303, Note_on_c, 0, 82, 87
1, 26304, Note_off_c, 0, 76, 65
1, 26307, Note_off_c, 0, 64, 60
1, 26317, Note_off_c, 0, 60, 57
1, 26322, Note_off_c, 0, 57, 60
1, 26346, Note_on_c, 0, 72, 79
1, 26360, Note_off_c, 0, 82, 65
1, 26394, Note_on_c, 0, 81, 84
1, 26405, Note_off_c, 0, 72, 63
1, 26453, Note_on_c, 0, 76, 86
1, 26477, Note_off_c, 0, 81, 64
1, 26518, Note_on_c, 0, 80, 94
1, 26529, Note_off_c, 0, 76, 65
1, 26564, Note_on_c, 0, 72, 76
1, 26578, Note_off_c, 0, 80, 63
1, 26611, Note_on_c, 0, 79, 92
1, 26626, Note_off_c, 0, 72, 65
1, 26667, Note_on_c, 0, 72, 77
1, 26683, Note_off_c, 0, 79, 63
1, 26725, Note_on_c, 0, 78, 90
1, 26732, Note_off_c, 0, 72, 65
1, 26772, Note_on_c, 0, 69, 78
1, 26792, Note_off_c, 0, 78, 63
1, 26811, Control_c, 0, 64, 104
1, 26825, Control_c, 0, 64, 68
1, 26832, Note_on_c, 0, 33, 100
1, 26834, Note_on_c, 0, 77, 95
1, 26834, Note_off_c, 0, 69, 60
1, 26840, Control_c, 0, 64, 0
1, 26894, Note_on_c, 0, 72, 84
1, 26897, Note_off_c, 0, 33, 62
1, 26900, Control_c, 0, 64, 46
1, 26915, Control_c, 0, 64, 67
1, 26930, Control_c, 0, 64, 88
1, 26945, Control_c, 0, 64, 127
1, 26954, Note_on_c, 0, 76, 86
1, 26954, Note_off_c, 0, 72, 66
1, 26974, Note_off_c, 0, 77, 52
1, 26999, Note_on_c, 0, 69, 73
1, 27052, Note_on_c, 0, 75, 86
1, 27073, Note_off_c, 0, 76, 62
1, 27122, Note_on_c, 0, 72, 82
1, 27130, Note_off_c, 0, 75, 64
1, 27175, Note_off_c, 0, 72, 60
1, 27177, Note_off_c, 0, 69, 55
1, 27182, Note_on_c, 0, 52, 91
1, 27186, Note_on_c, 0, 45, 81
1, 27192, Note_on_c, 0, 74, 92
1, 27212, Note_off_c, 0, 52, 66
1, 27213, Note_off_c, 0, 45, 66
1, 27267, Note_on_c, 0, 69, 77
1, 27282, Note_on_c, 0, 71, 57
1, 27287, Note_off_c, 0, 74, 0
1, 27302, Note_off_c, 0, 71, 60
1, 27308, Note_on_c, 0, 73, 89
1, 27314, Note_off_c, 0, 69, 63
1, 27329, Poly_aftertouch_c, 0, 74, 0
1, 27365, Note_on_c, 0, 69, 75
1, 27375, Note_off_c, 0, 73, 63
1, 27420, Note_on_c, 0, 72, 93
1, 27428, Note_off_c, 0, 69, 64
1, 27449, Note_on_c, 0, 52, 87
1, 27450, Note_on_c, 0, 45, 79
1, 27465, Note_off_c, 0, 72, 66
1, 27469, Note_off_c, 0, 52, 71
1, 27475, Note_off_c, 0, 45, 69
1, 27483, Note_on_c, 0, 64, 71
1, 27485, Control_c, 0, 64, 117
1, 27499, Control_c, 0, 64, 83
1, 27514, Control_c, 0, 64, 67
1, 27525, Note_on_c, 0, 45, 80
1, 27526, Note_on_c, 0, 52, 92
1, 27529, Control_c, 0, 64, 54
1, 27530, Note_on_c, 0, 71, 90
1, 27543, Note_off_c, 0, 64, 58
1, 27544, Control_c, 0, 64, 42
1, 27559, Control_c, 0, 64, 41
1, 27574, Control_c, 0, 64, 43
1, 27583, Note_on_c, 0, 64, 67
1, 27584, Note_off_c, 0, 71, 64
1, 27589, Control_c, 0, 64, 53
1, 27603, Control_c, 0, 64, 63
1, 27618, Control_c, 0, 64, 72
1, 27633, Control_c, 0, 64, 93
1, 27648, Control_c, 0, 64, 127
1, 27651, Note_on_c, 0, 70, 86
1, 27660, Note_off_c, 0, 64, 64
1, 27695, Note_on_c, 0, 60, 75
1, 27701, Note_off_c, 0, 70, 65
1, 27744, Note_on_c, 0, 69, 93
1, 27751, Note_off_c, 0, 60, 62
1, 27761, Note_off_c, 0, 45, 58
1, 27792, Note_on_c, 0, 64, 78
1, 27821, Note_off_c, 0, 69, 59
1, 27842, Control_c, 0, 64, 89
1, 27851, Note_off_c, 0, 52, 64
1, 27852, Note_on_c, 0, 53, 89
1, 27857, Control_c, 0, 64, 72
1, 27857, Note_on_c, 0, 68, 90
1, 27861, Note_on_c, 0, 45, 80
1, 27866, Note_off_c, 0, 64, 64
1, 27871, Control_c, 0, 64, 62
1, 27886, Control_c, 0, 64, 50
1, 27908, Control_c, 0, 64, 42
1, 27917, Note_off_c, 0, 68, 63
1, 27923, Note_on_c, 0, 60, 66
1, 27923, Control_c, 0, 64, 41
1, 27937, Control_c, 0, 64, 43
1, 27953, Control_c, 0, 64, 57
1, 27968, Control_c, 0, 64, 66
1, 27970, Note_on_c, 0, 67, 83
1, 27977, Note_off_c, 0, 60, 62
1, 27983, Control_c, 0, 64, 75
1, 27998, Control_c, 0, 64, 94
1, 28012, Control_c, 0, 64, 127
1, 28019, Note_on_c, 0, 60, 68
1, 28031, Note_off_c, 0, 67, 63
1, 28087, Note_on_c, 0, 66, 82
1, 28087, Note_off_c, 0, 60, 64
1, 28092, Note_off_c, 0, 45, 59
1, 28131, Note_on_c, 0, 57, 68
1, 28141, Note_off_c, 0, 66, 61
1, 28164, Note_off_c, 0, 53, 61
1, 28176, Control_c, 0, 64, 106
1, 28191, Control_c, 0, 64, 79
1, 28193, Note_on_c, 0, 65, 81
1, 28196, Note_off_c, 0, 57, 62
1, 28197, Note_on_c, 0, 52, 78
1, 28205, Control_c, 0, 64, 64
1, 28209, Note_on_c, 0, 45, 64
1, 28220, Control_c, 0, 64, 33
1, 28235, Control_c, 0, 64, 0
1, 28257, Note_on_c, 0, 60, 78
1, 28262, Note_off_c, 0, 65, 61
1, 28287, Note_off_c, 0, 52, 65
1, 28294, Control_c, 0, 64, 53
1, 28306, Note_off_c, 0, 45, 59
1, 28309, Control_c, 0, 64, 64
1, 28316, Note_off_c, 0, 60, 65
1, 28323, Control_c, 0, 64, 73
1, 28325, Note_on_c, 0, 64, 74
1, 28338, Control_c, 0, 64, 88
1, 28353, Control_c, 0, 64, 127
1, 28361, Note_on_c, 0, 57, 66
1, 28413, Note_on_c, 0, 63, 82
1, 28417, Note_off_c, 0, 64, 55
1, 28476, Note_on_c, 0, 60, 75
1, 28480, Note_off_c, 0, 63, 62
1, 28517, Note_off_c, 0, 60, 62
1, 28535, Note_on_c, 0, 33, 90
1, 28541, Note_on_c, 0, 62, 83
1, 28546, Note_off_c, 0, 57, 36
1, 28561, Control_c, 0, 64, 93
1, 28576, Control_c, 0, 64, 75
1, 28591, Control_c, 0, 64, 65
1, 28606, Control_c, 0, 64, 60
1, 28609, Note_on_c, 0, 57, 62
1, 28609, Note_off_c, 0, 62, 60
1, 28620, Control_c, 0, 64, 59
1, 28635, Control_c, 0, 64, 60
1, 28656, Note_off_c, 0, 57, 66
1, 28658, Control_c, 0, 64, 64
1, 28665, Note_on_c, 0, 61, 78
1, 28673, Control_c, 0, 64, 70
1, 28688, Control_c, 0, 64, 87
1, 28701, Control_c, 0, 64, 127
1, 28722, Note_off_c, 0, 61, 62
1, 28724, Note_on_c, 0, 57, 82
1, 28776, Note_on_c, 0, 60, 90
1, 28781, Note_off_c, 0, 57, 65
1, 28825, Note_off_c, 0, 60, 59
1, 28832, Note_on_c, 0, 52, 84
1, 28879, Note_on_c, 0, 40, 89
1, 28883, Note_off_c, 0, 52, 58
1, 28894, Note_on_c, 0, 59, 93
1, 28894, Control_c, 0, 64, 101
1, 28909, Control_c, 0, 64, 75
1, 28924, Control_c, 0, 64, 63
1, 28939, Control_c, 0, 64, 52
1, 28949, Note_on_c, 0, 52, 79
1, 28951, Note_off_c, 0, 59, 63
1, 28953, Control_c, 0, 64, 47
1, 28968, Control_c, 0, 64, 50
1, 28983, Control_c, 0, 64, 60
1, 28998, Control_c, 0, 64, 68
1, 29013, Control_c, 0, 64, 84
1, 29013, Note_on_c, 0, 58, 90
1, 29022, Note_off_c, 0, 52, 66
1, 29027, Control_c, 0, 64, 127
1, 29064, Note_on_c, 0, 48, 86
1, 29085, Note_off_c, 0, 58, 59
1, 29117, Note_on_c, 0, 57, 87
1, 29121, Note_off_c, 0, 48, 62
1, 29164, Note_on_c, 0, 52, 87
1, 29192, Note_off_c, 0, 57, 63
1, 29213, Note_off_c, 0, 33, 56
1, 29222, Note_on_c, 0, 56, 93
1, 29237, Note_off_c, 0, 52, 66
1, 29267, Note_on_c, 0, 48, 81
1, 29313, Note_on_c, 0, 57, 84
1, 29322, Note_off_c, 0, 48, 64
1, 29367, Note_off_c, 0, 56, 60
1, 29368, Note_on_c, 0, 52, 82
1, 29419, Note_on_c, 0, 60, 92
1, 29426, Note_off_c, 0, 57, 63
1, 29429, Note_off_c, 0, 52, 65
1, 29472, Note_on_c, 0, 53, 82
1, 29482, Note_off_c, 0, 60, 66
1, 29511, Note_off_c, 0, 40, 39
1, 29524, Note_off_c, 0, 53, 65
1, 29528, Note_on_c, 0, 32, 96
1, 29549, Note_on_c, 0, 64, 97
1, 29554, Control_c, 0, 64, 73
1, 29569, Control_c, 0, 64, 0
1, 29603, Note_on_c, 0, 59, 92
1, 29612, Note_off_c, 0, 64, 63
1, 29637, Note_off_c, 0, 32, 62
1, 29643, Control_c, 0, 64, 59
1, 29657, Control_c, 0, 64, 90
1, 29672, Control_c, 0, 64, 127
1, 29675, Note_on_c, 0, 62, 88
1, 29680, Note_off_c, 0, 59, 65
1, 29696, Note_off_c, 0, 62, 67
1, 29738, Note_on_c, 0, 65, 84
1, 29744, Note_on_c, 0, 64, 70
1, 29774, Note_off_c, 0, 65, 65
1, 29775, Note_off_c, 0, 64, 66
1, 29796, Note_on_c, 0, 74, 84
1, 29800, Note_on_c, 0, 76, 86
1, 29845, Note_on_c, 0, 71, 89
1, 29846, Note_off_c, 0, 74, 66
1, 29854, Note_off_c, 0, 76, 66
1, 29911, Note_on_c, 0, 62, 109
1, 29912, Note_on_c, 0, 53, 103
1, 29929, Note_off_c, 0, 71, 68
1, 29931, Note_on_c, 0, 76, 88
1, 29932, Note_on_c, 0, 74, 82
1, 29943, Note_off_c, 0, 53, 67
1, 29943, Note_off_c, 0, 62, 70
1, 29949, Note_off_c, 0, 76, 73
1, 29956, Note_off_c, 0, 74, 68
1, 29992, Note_on_c, 0, 77, 100
1, 30039, Note_off_c, 0, 77, 67
1, 30060, Note_on_c, 0, 88, 97
1, 30119, Note_on_c, 0, 83, 90
1, 30150, Note_on_c, 0, 81, 42
1, 30151, Note_off_c, 0, 81, 127
1, 30152, Note_off_c, 0, 88, 61
1, 30186, Note_on_c, 0, 86, 90
1, 30199, Control_c, 0, 64, 92
1, 30204, Note_off_c, 0, 83, 65
1, 30214, Control_c, 0, 64, 68
1, 30229, Control_c, 0, 64, 23
1, 30244, Control_c, 0, 64, 0
1, 30249, Note_on_c, 0, 62, 99
1, 30252, Note_on_c, 0, 77, 90
1, 30259, Note_off_c, 0, 86, 65
1, 30265, Note_on_c, 0, 53, 70
1, 30278, Note_off_c, 0, 62, 63
1, 30288, Control_c, 0, 64, 21
1, 30295, Note_on_c, 0, 52, 22
1, 30296, Note_off_c, 0, 52, 127
1, 30296, Note_off_c, 0, 53, 65
1, 30301, Note_off_c, 0, 77, 64
1, 30303, Control_c, 0, 64, 65
1, 30316, Note_on_c, 0, 86, 103
1, 30318, Control_c, 0, 64, 95
1, 30319, Note_on_c, 0, 60, 106
1, 30333, Control_c, 0, 64, 127
1, 30344, Poly_aftertouch_c, 0, 53, 0
1, 30347, Note_off_c, 0, 60, 71
1, 30385, Note_on_c, 0, 81, 89
1, 30389, Note_off_c, 0, 86, 62
1, 30446, Note_on_c, 0, 84, 95
1, 30455, Note_off_c, 0, 81, 67
1, 30466, Control_c, 0, 64, 101
1, 30480, Control_c, 0, 64, 82
1, 30481, Note_off_c, 0, 84, 67
1, 30494, Note_on_c, 0, 77, 91
1, 30495, Control_c, 0, 64, 70
1, 30510, Control_c, 0, 64, 60
1, 30514, Note_off_c, 0, 77, 69
1, 30525, Control_c, 0, 64, 21
1, 30540, Control_c, 0, 64, 0
1, 30560, Note_on_c, 0, 74, 89
1, 30569, Note_on_c, 0, 76, 73
1, 30587, Note_off_c, 0, 76, 61
1, 30615, Note_on_c, 0, 69, 90
1, 30634, Note_off_c, 0, 74, 62
1, 30655, Note_on_c, 0, 45, 99
1, 30657, Note_on_c, 0, 33, 96
1, 30673, Control_c, 0, 64, 60
1, 30682, Note_on_c, 0, 72, 91
1, 30686, Note_off_c, 0, 69, 66
1, 30688, Control_c, 0, 64, 102
1, 30703, Control_c, 0, 64, 127
1, 30722, Note_off_c, 0, 72, 66
1, 30730, Note_on_c, 0, 65, 82
1, 30757, Note_off_c, 0, 65, 64
1, 30797, Note_on_c, 0, 62, 93
1, 30833, Note_off_c, 0, 33, 63
1, 30837, Note_off_c, 0, 45, 62
1, 30853, Note_on_c, 0, 57, 90
1, 30873, Note_off_c, 0, 62, 60
1, 30912, Note_on_c, 0, 60, 86
1, 30930, Note_off_c, 0, 57, 63
1, 30960, Note_on_c, 0, 53, 85
1, 30978, Control_c, 0, 64, 78
1, 30981, Note_off_c, 0, 60, 65
1, 30993, Control_c, 0, 64, 47
1, 31005, Note_on_c, 0, 44, 98
1, 31006, Note_on_c, 0, 32, 91
1, 31008, Note_off_c, 0, 53, 64
1, 31008, Control_c, 0, 64, 0
1, 31023, Note_on_c, 0, 64, 88
1, 31067, Note_on_c, 0, 59, 86
1, 31067, Control_c, 0, 64, 40
1, 31073, Note_off_c, 0, 32, 63
1, 31082, Control_c, 0, 64, 73
1, 31083, Note_off_c, 0, 64, 63
1, 31094, Note_off_c, 0, 44, 62
1, 31096, Control_c, 0, 64, 127
1, 31133, Note_on_c, 0, 62, 89
1, 31141, Note_off_c, 0, 59, 63
1, 31157, Note_off_c, 0, 62, 66
1, 31196, Note_on_c, 0, 65, 90
1, 31238, Note_off_c, 0, 65, 66
1, 31250, Note_on_c, 0, 76, 97
1, 31273, Note_on_c, 0, 74, 40
1, 31292, Note_on_c, 0, 71, 93
1, 31298, Note_off_c, 0, 74, 57
1, 31303, Control_c, 0, 64, 119
1, 31307, Note_off_c, 0, 76, 65
1, 31318, Control_c, 0, 64, 75
1, 31333, Control_c, 0, 64, 48
1, 31347, Control_c, 0, 64, 0
1, 31356, Note_on_c, 0, 74, 92
1, 31362, Note_on_c, 0, 55, 104
1, 31364, Note_on_c, 0, 62, 100
1, 31369, Note_off_c, 0, 71, 65
1, 31390, Note_off_c, 0, 74, 68
1, 31392, Control_c, 0, 64, 40
1, 31407, Control_c, 0, 64, 63
1, 31414, Note_off_c, 0, 62, 65
1, 31422, Control_c, 0, 64, 73
1, 31429, Note_off_c, 0, 55, 60
1, 31433, Note_on_c, 0, 77, 95
1, 31437, Control_c, 0, 64, 95
1, 31452, Control_c, 0, 64, 127
1, 31476, Note_off_c, 0, 77, 64
1, 31480, Note_on_c, 0, 53, 85
1, 31487, Note_on_c, 0, 62, 90
1, 31487, Note_on_c, 0, 88, 89
1, 31496, Control_c, 0, 64, 112
1, 31511, Control_c, 0, 64, 104
1, 31526, Control_c, 0, 64, 95
1, 31529, Note_on_c, 0, 83, 89
1, 31532, Note_off_c, 0, 62, 65
1, 31540, Note_off_c, 0, 88, 66
1, 31541, Note_off_c, 0, 53, 65
1, 31541, Control_c, 0, 64, 82
1, 31555, Control_c, 0, 64, 70
1, 31570, Control_c, 0, 64, 61
1, 31582, Note_on_c, 0, 86, 90
1, 31585, Control_c, 0, 64, 50
1, 31588, Note_on_c, 0, 62, 95
1, 31594, Note_on_c, 0, 52, 80
1, 31600, Control_c, 0, 64, 11
1, 31603, Note_off_c, 0, 83, 64
1, 31615, Control_c, 0, 64, 0
1, 31637, Note_off_c, 0, 62, 66
1, 31637, Note_on_c, 0, 77, 83
1, 31638, Note_off_c, 0, 52, 62
1, 31638, Note_off_c, 0, 86, 64
1, 31696, Note_on_c, 0, 60, 100
1, 31697, Note_on_c, 0, 52, 83
1, 31699, Note_on_c, 0, 86, 89
1, 31702, Note_off_c, 0, 77, 63
1, 31713, Control_c, 0, 64, 40
1, 31727, Control_c, 0, 64, 66
1, 31738, Note_off_c, 0, 60, 68
1, 31742, Control_c, 0, 64, 77
1, 31747, Note_off_c, 0, 52, 66
1, 31757, Control_c, 0, 64, 109
1, 31762, Note_on_c, 0, 81, 86
1, 31769, Note_off_c, 0, 86, 64
1, 31771, Control_c, 0, 64, 127
1, 31817, Note_on_c, 0, 84, 95
1, 31829, Note_off_c, 0, 81, 66
1, 31856, Note_off_c, 0, 84, 65
1, 31867, Note_on_c, 0, 76, 88
1, 31894, Note_off_c, 0, 76, 65
1, 31905, Control_c, 0, 64, 87
1, 31920, Control_c, 0, 64, 70
1, 31926, Note_on_c, 0, 74, 92
1, 31935, Control_c, 0, 64, 57
1, 31950, Control_c, 0, 64, 0
1, 31988, Note_on_c, 0, 71, 86
1, 32002, Note_off_c, 0, 74, 64
1, 32044, Note_on_c, 0, 45, 91
1, 32046, Note_on_c, 0, 33, 87
1, 32047, Note_on_c, 0, 72, 86
1, 32053, Note_off_c, 0, 71, 65
1, 32084, Note_off_c, 0, 72, 65
1, 32115, Note_on_c, 0, 65, 68
1, 32127, Control_c, 0, 64, 63
1, 32141, Note_off_c, 0, 65, 66
1, 32142, Control_c, 0, 64, 76
1, 32157, Control_c, 0, 64, 99
1, 32171, Note_on_c, 0, 62, 87
1, 32171, Control_c, 0, 64, 127
1, 32224, Note_on_c, 0, 57, 75
1, 32233, Note_off_c, 0, 62, 63
1, 32273, Note_off_c, 0, 33, 59
1, 32279, Note_off_c, 0, 45, 59
1, 32280, Note_off_c, 0, 57, 64
1, 32281, Note_on_c, 0, 60, 75
1, 32313, Note_off_c, 0, 60, 63
1, 32340, Note_on_c, 0, 59, 64
1, 32349, Control_c, 0, 64, 110
1, 32364, Control_c, 0, 64, 79
1, 32379, Note_off_c, 0, 59, 63
1, 32379, Control_c, 0, 64, 60
1, 32401, Control_c, 0, 64, 0
1, 32404, Note_on_c, 0, 35, 74
1, 32406, Note_on_c, 0, 47, 72
1, 32411, Note_on_c, 0, 69, 75
1, 32467, Note_on_c, 0, 64, 72
1, 32467, Note_off_c, 0, 69, 63
1, 32503, Note_off_c, 0, 35, 61
1, 32520, Control_c, 0, 64, 44
1, 32529, Note_off_c, 0, 64, 64
1, 32534, Note_off_c, 0, 47, 65
1, 32535, Control_c, 0, 64, 81
1, 32537, Note_on_c, 0, 68, 72
1, 32549, Control_c, 0, 64, 127
1, 32564, Note_off_c, 0, 68, 64
1, 32596, Note_on_c, 0, 69, 70
1, 32598, Note_on_c, 0, 71, 66
1, 32622, Note_off_c, 0, 69, 68
1, 32624, Note_off_c, 0, 71, 67
1, 32647, Note_on_c, 0, 79, 72
1, 32674, Note_on_c, 0, 81, 50
1, 32698, Note_off_c, 0, 81, 40
1, 32701, Note_on_c, 0, 76, 74
1, 32705, Note_off_c, 0, 79, 65
1, 32731, Note_on_c, 0, 56, 45
1, 32737, Note_on_c, 0, 64, 59
1, 32759, Note_on_c, 0, 59, 57
1, 32761, Note_on_c, 0, 80, 87
1, 32763, Note_off_c, 0, 76, 64
1, 32784, Note_off_c, 0, 80, 68
1, 32796, Poly_aftertouch_c, 0, 74, 0
1, 32806, Note_off_c, 0, 56, 63
1, 32829, Note_on_c, 0, 83, 79
1, 32859, Note_on_c, 0, 68, 93
1, 32863, Note_off_c, 0, 83, 64
1, 32884, Note_on_c, 0, 93, 84
1, 32886, Note_on_c, 0, 91, 83
1, 32888, Note_off_c, 0, 59, 63
1, 32897, Note_off_c, 0, 68, 64
1, 32909, Note_off_c, 0, 64, 28
1, 32927, Note_off_c, 0, 91, 64
1, 32929, Note_on_c, 0, 88, 82
1, 32936, Note_off_c, 0, 93, 67
1, 32974, Note_on_c, 0, 73, 99
1, 32987, Note_on_c, 0, 92, 93
1, 32992, Note_off_c, 0, 88, 66
1, 33008, Note_off_c, 0, 73, 62
1, 33011, Note_off_c, 0, 92, 64
1, 33035, Note_on_c, 0, 83, 80
1, 33038, Control_c, 0, 64, 115
1, 33053, Control_c, 0, 64, 88
1, 33067, Control_c, 0, 64, 68
1, 33080, Note_on_c, 0, 71, 90
1, 33081, Note_on_c, 0, 63, 79
1, 33082, Note_on_c, 0, 69, 90
1, 33082, Control_c, 0, 64, 48
1, 33083, Note_off_c, 0, 83, 63
1, 33088, Note_on_c, 0, 59, 83
1, 33093, Note_on_c, 0, 92, 93
1, 33097, Control_c, 0, 64, 0
1, 33162, Note_on_c, 0, 87, 89
1, 33164, Control_c, 0, 64, 45
1, 33172, Note_off_c, 0, 92, 66
1, 33179, Control_c, 0, 64, 67
1, 33193, Control_c, 0, 64, 93
1, 33199, Note_off_c, 0, 71, 64
1, 33203, Note_off_c, 0, 69, 64
1, 33208, Control_c, 0, 64, 127
1, 33225, Note_on_c, 0, 90, 89
1, 33233, Note_off_c, 0, 63, 64
1, 33236, Note_off_c, 0, 87, 65
1, 33237, Note_off_c, 0, 59, 64
1, 33267, Note_off_c, 0, 90, 62
1, 33273, Note_on_c, 0, 83, 87
1, 33311, Note_off_c, 0, 83, 68
1, 33335, Note_on_c, 0, 80, 91
1, 33357, Note_on_c, 0, 51, 29
1, 33392, Note_off_c, 0, 51, 45
1, 33403, Note_on_c, 0, 76, 77
1, 33407, Note_off_c, 0, 80, 63
1, 33422, Note_on_c, 0, 59, 100
1, 33422, Note_on_c, 0, 47, 97
1, 33455, Note_off_c, 0, 59, 67
1, 33458, Note_off_c, 0, 47, 66
1, 33461, Note_on_c, 0, 77, 81
1, 33462, Note_off_c, 0, 76, 66
1, 33486, Note_off_c, 0, 77, 67
1, 33515, Note_on_c, 0, 71, 79
1, 33552, Note_off_c, 0, 71, 64
1, 33575, Note_on_c, 0, 68, 95
1, 33640, Note_on_c, 0, 63, 93
1, 33664, Note_off_c, 0, 68, 57
1, 33688, Note_on_c, 0, 66, 69
1, 33694, Note_off_c, 0, 63, 65
1, 33727, Note_on_c, 0, 59, 89
1, 33742, Control_c, 0, 64, 81
1, 33744, Note_off_c, 0, 66, 58
1, 33757, Control_c, 0, 64, 39
1, 33759, Note_off_c, 0, 59, 64
1, 33772, Control_c, 0, 64, 0
1, 33783, Note_on_c, 0, 52, 100
1, 33785, Note_on_c, 0, 40, 92
1, 33787, Note_on_c, 0, 69, 91
1, 33831, Control_c, 0, 64, 32
1, 33838, Note_on_c, 0, 64, 88
1, 33845, Note_off_c, 0, 40, 62
1, 33846, Control_c, 0, 64, 73
1, 33857, Note_off_c, 0, 69, 64
1, 33861, Control_c, 0, 64, 127
1, 33874, Note_off_c, 0, 52, 62
1, 33914, Note_on_c, 0, 68, 86
1, 33915, Note_off_c, 0, 64, 66
1, 33935, Note_off_c, 0, 68, 69
1, 33976, Note_on_c, 0, 71, 84
1, 33981, Note_on_c, 0, 69, 72
1, 34003, Note_off_c, 0, 71, 66
1, 34006, Note_off_c, 0, 69, 70
1, 34015, Note_on_c, 0, 81, 90
1, 34072, Note_on_c, 0, 76, 93
1, 34090, Note_off_c, 0, 81, 68
1, 34132, Note_on_c, 0, 68, 100
1, 34144, Note_on_c, 0, 79, 85
1, 34144, Note_off_c, 0, 76, 68
1, 34146, Note_on_c, 0, 58, 67
1, 34146, Note_on_c, 0, 59, 87
1, 34161, Note_off_c, 0, 79, 74
1, 34170, Note_off_c, 0, 58, 64
1, 34176, Note_off_c, 0, 68, 66
1, 34181, Note_off_c, 0, 59, 64
1, 34200, Note_on_c, 0, 83, 94
1, 34208, Poly_aftertouch_c, 0, 78, 127
1, 34238, Poly_aftertouch_c, 0, 78, 0
1, 34239, Note_off_c, 0, 83, 66
1, 34248, Note_on_c, 0, 58, 83
1, 34248, Note_on_c, 0, 67, 98
1, 34248, Note_on_c, 0, 93, 101
1, 34267, Note_on_c, 0, 57, 73
1, 34281, Note_off_c, 0, 67, 68
1, 34293, Note_off_c, 0, 57, 69
1, 34294, Note_on_c, 0, 88, 91
1, 34297, Note_off_c, 0, 58, 63
1, 34314, Note_off_c, 0, 93, 67
1, 34357, Note_on_c, 0, 59, 89
1, 34357, Note_on_c, 0, 92, 108
1, 34358, Note_on_c, 0, 68, 93
1, 34367, Note_off_c, 0, 88, 67
1, 34400, Note_off_c, 0, 68, 66
1, 34407, Note_off_c, 0, 59, 64
1, 34416, Note_on_c, 0, 83, 96
1, 34445, Note_off_c, 0, 92, 65
1, 34451, Note_off_c, 0, 83, 61
1, 34477, Control_c, 0, 64, 94
1, 34492, Control_c, 0, 64, 69
1, 34501, Note_on_c, 0, 64, 87
1, 34502, Note_on_c, 0, 52, 84
1, 34507, Control_c, 0, 64, 35
1, 34510, Note_on_c, 0, 56, 76
1, 34510, Note_on_c, 0, 98, 108
1, 34514, Note_on_c, 0, 100, 92
1, 34522, Control_c, 0, 64, 0
1, 34662, Note_off_c, 0, 100, 0
1, 34700, Poly_aftertouch_c, 0, 100, 127
1, 34755, Note_off_c, 0, 98, 64
1, 34847, Note_off_c, 0, 64, 61
1, 34892, Note_off_c, 0, 56, 64
1, 34906, Note_off_c, 0, 52, 63
1, 34949, Poly_aftertouch_c, 0, 100, 0
1, 35289, Note_on_c, 0, 33, 102
1, 35293, Note_on_c, 0, 101, 111
1, 35300, Control_c, 0, 64, 63
1, 35315, Control_c, 0, 64, 127
1, 35325, Note_on_c, 0, 103, 53
1, 35326, Note_off_c, 0, 103, 127
1, 35327, Note_off_c, 0, 33, 66
1, 35363, Note_on_c, 0, 96, 98
1, 35435, Note_on_c, 0, 100, 86
1, 35443, Note_off_c, 0, 96, 67
1, 35472, Note_off_c, 0, 101, 62
1, 35482, Note_on_c, 0, 93, 79
1, 35532, Note_on_c, 0, 99, 94
1, 35564, Note_on_c, 0, 98, 85
1, 35565, Note_off_c, 0, 100, 66
1, 35588, Note_on_c, 0, 96, 76
1, 35611, Note_off_c, 0, 98, 66
1, 35623, Note_off_c, 0, 99, 63
1, 35637, Note_off_c, 0, 96, 67
1, 35651, Note_off_c, 0, 93, 65
1, 35669, Note_on_c, 0, 57, 96
1, 35669, Note_on_c, 0, 60, 93
1, 35669, Note_on_c, 0, 64, 99
1, 35669, Note_on_c, 0, 96, 89
1, 35698, Note_off_c, 0, 64, 70
1, 35703, Note_off_c, 0, 57, 67
1, 35704, Note_off_c, 0, 60, 67
1, 35727, Note_on_c, 0, 93, 86
1, 35801, Note_off_c, 0, 93, 66
1, 35842, Note_on_c, 0, 93, 72
1, 35848, Note_off_c, 0, 96, 65
1, 35885, Note_off_c, 0, 93, 66
1, 35920, Note_on_c, 0, 96, 96
1, 35933, Note_on_c, 0, 88, 51
1, 35947, Note_on_c, 0, 60, 91
1, 35947, Note_on_c, 0, 64, 93
1, 35950, Note_on_c, 0, 57, 82
1, 35956, Note_off_c, 0, 88, 59
1, 35973, Note_off_c, 0, 57, 66
1, 35977, Note_off_c, 0, 96, 65
1, 35978, Note_off_c, 0, 64, 64
1, 35984, Note_off_c, 0, 60, 65
1, 36006, Control_c, 0, 64, 103
1, 36009, Note_on_c, 0, 88, 91
1, 36020, Control_c, 0, 64, 73
1, 36035, Control_c, 0, 64, 42
1, 36036, Note_on_c, 0, 64, 98
1, 36042, Note_on_c, 0, 60, 80
1, 36043, Note_on_c, 0, 57, 87
1, 36050, Control_c, 0, 64, 0
1, 36054, Note_on_c, 0, 95, 98
1, 36067, Note_off_c, 0, 88, 65
1, 36080, Control_c, 0, 64, 49
1, 36094, Control_c, 0, 64, 64
1, 36109, Control_c, 0, 64, 79
1, 36124, Control_c, 0, 64, 127
1, 36140, Note_on_c, 0, 84, 88
1, 36155, Note_off_c, 0, 95, 65
1, 36175, Note_off_c, 0, 84, 64
1, 36187, Note_on_c, 0, 94, 96
1, 36241, Note_on_c, 0, 84, 87
1, 36242, Note_off_c, 0, 60, 58
1, 36248, Note_off_c, 0, 57, 61
1, 36254, Note_off_c, 0, 94, 64
1, 36293, Note_on_c, 0, 93, 92
1, 36293, Note_off_c, 0, 84, 61
1, 36348, Note_on_c, 0, 84, 87
1, 36353, Note_on_c, 0, 65, 96
1, 36353, Control_c, 0, 64, 87
1, 36356, Note_on_c, 0, 60, 84
1, 36360, Note_on_c, 0, 57, 91
1, 36368, Control_c, 0, 64, 64
1, 36373, Note_off_c, 0, 64, 60
1, 36379, Note_off_c, 0, 93, 64
1, 36383, Control_c, 0, 64, 9
1, 36398, Control_c, 0, 64, 0
1, 36400, Note_on_c, 0, 92, 96
1, 36406, Note_off_c, 0, 84, 62
1, 36412, Control_c, 0, 64, 17
1, 36427, Control_c, 0, 64, 56
1, 36443, Control_c, 0, 64, 70
1, 36451, Note_on_c, 0, 84, 78
1, 36458, Control_c, 0, 64, 95
1, 36466, Note_off_c, 0, 92, 65
1, 36473, Control_c, 0, 64, 127
1, 36514, Note_on_c, 0, 91, 87
1, 36519, Note_off_c, 0, 84, 64
1, 36563, Note_on_c, 0, 84, 78
1, 36585, Note_off_c, 0, 91, 64
1, 36616, Note_off_c, 0, 60, 56
1, 36621, Note_off_c, 0, 65, 59
1, 36624, Note_off_c, 0, 57, 58
1, 36628, Note_off_c, 0, 84, 61
1, 36641, Note_on_c, 0, 90, 52
1, 36642, Note_off_c, 0, 90, 127
1, 36668, Note_on_c, 0, 84, 61
1, 36674, Note_on_c, 0, 89, 27
1, 36680, Control_c, 0, 64, 107
1, 36693, Note_on_c, 0, 64, 101
1, 36695, Control_c, 0, 64, 71
1, 36699, Note_off_c, 0, 89, 0
1, 36702, Note_on_c, 0, 60, 89
1, 36704, Note_on_c, 0, 57, 83
1, 36710, Control_c, 0, 64, 52
1, 36712, Note_on_c, 0, 89, 60
1, 36725, Note_off_c, 0, 84, 65
1, 36725, Control_c, 0, 64, 0
1, 36755, Control_c, 0, 64, 46
1, 36770, Control_c, 0, 64, 64
1, 36776, Note_on_c, 0, 84, 80
1, 36784, Control_c, 0, 64, 81
1, 36797, Note_off_c, 0, 64, 62
1, 36799, Control_c, 0, 64, 127
1, 36823, Note_on_c, 0, 88, 77
1, 36827, Note_off_c, 0, 60, 63
1, 36833, Note_off_c, 0, 84, 58
1, 36837, Note_off_c, 0, 57, 63
1, 36845, Note_off_c, 0, 89, 63
1, 36865, Note_on_c, 0, 81, 78
1, 36919, Note_on_c, 0, 87, 93
1, 36934, Note_off_c, 0, 88, 65
1, 36952, Note_off_c, 0, 81, 0
1, 36980, Note_on_c, 0, 84, 72
1, 36981, Note_on_c, 0, 81, 22
1, 36987, Note_off_c, 0, 87, 65
1, 37004, Note_off_c, 0, 84, 69
1, 37011, Note_off_c, 0, 81, 54
1, 37015, Note_on_c, 0, 52, 89
1, 37019, Note_on_c, 0, 60, 98
1, 37021, Note_on_c, 0, 57, 83
1, 37027, Control_c, 0, 64, 94
1, 37035, Note_on_c, 0, 86, 91
1, 37041, Control_c, 0, 64, 71
1, 37056, Control_c, 0, 64, 54
1, 37071, Control_c, 0, 64, 16
1, 37077, Note_on_c, 0, 80, 78
1, 37086, Control_c, 0, 64, 28
1, 37095, Note_on_c, 0, 81, 69
1, 37101, Note_off_c, 0, 80, 51
1, 37101, Control_c, 0, 64, 51
1, 37116, Control_c, 0, 64, 63
1, 37130, Control_c, 0, 64, 70
1, 37135, Note_off_c, 0, 81, 67
1, 37139, Note_on_c, 0, 85, 84
1, 37145, Control_c, 0, 64, 86
1, 37160, Control_c, 0, 64, 127
1, 37164, Note_off_c, 0, 86, 64
1, 37186, Note_off_c, 0, 57, 61
1, 37207, Note_on_c, 0, 81, 77
1, 37208, Note_off_c, 0, 60, 57
1, 37211, Note_off_c, 0, 85, 66
1, 37250, Note_on_c, 0, 84, 93
1, 37259, Note_off_c, 0, 81, 65
1, 37299, Note_off_c, 0, 84, 65
1, 37303, Note_on_c, 0, 76, 76
1, 37354, Control_c, 0, 64, 98
1, 37369, Note_on_c, 0, 64, 88
1, 37369, Control_c, 0, 64, 79
1, 37369, Note_on_c, 0, 83, 95
1, 37372, Note_on_c, 0, 60, 88
1, 37375, Note_off_c, 0, 52, 63
1, 37378, Note_on_c, 0, 57, 73
1, 37381, Note_off_c, 0, 76, 40
1, 37384, Control_c, 0, 64, 66
1, 37399, Control_c, 0, 64, 54
1, 37413, Control_c, 0, 64, 22
1, 37428, Control_c, 0, 64, 0
1, 37429, Note_on_c, 0, 76, 62
1, 37442, Note_off_c, 0, 83, 65
1, 37487, Control_c, 0, 64, 46
1, 37500, Note_on_c, 0, 82, 84
1, 37502, Control_c, 0, 64, 63
1, 37508, Note_off_c, 0, 76, 64
1, 37517, Control_c, 0, 64, 71
1, 37524, Note_off_c, 0, 64, 60
1, 37531, Control_c, 0, 64, 92
1, 37540, Note_on_c, 0, 72, 76
1, 37546, Control_c, 0, 64, 127
1, 37551, Note_off_c, 0, 82, 66
1, 37566, Note_off_c, 0, 60, 61
1, 37582, Note_off_c, 0, 57, 61
1, 37597, Note_on_c, 0, 81, 84
1, 37602, Note_off_c, 0, 72, 63
1, 37660, Note_on_c, 0, 76, 69
1, 37716, Note_on_c, 0, 80, 82
1, 37719, Note_off_c, 0, 81, 62
1, 37727, Note_off_c, 0, 76, 64
1, 37766, Note_off_c, 0, 80, 65
1, 37770, Note_on_c, 0, 72, 63
1, 37819, Note_off_c, 0, 72, 51
1, 37820, Note_on_c, 0, 79, 83
1, 37876, Note_on_c, 0, 72, 67
1, 37892, Note_off_c, 0, 79, 61
1, 37934, Note_on_c, 0, 78, 80
1, 37941, Note_off_c, 0, 72, 64
1, 38001, Note_on_c, 0, 69, 61
1, 38005, Note_off_c, 0, 78, 63
1, 38028, Control_c, 0, 64, 89
1, 38043, Control_c, 0, 64, 67
1, 38058, Control_c, 0, 64, 34
1, 38073, Control_c, 0, 64, 0
1, 38078, Note_on_c, 0, 24, 71
1, 38082, Note_on_c, 0, 36, 62
1, 38087, Note_on_c, 0, 77, 83
1, 38099, Note_off_c, 0, 69, 64
1, 38111, Note_off_c, 0, 36, 59
1, 38117, Note_off_c, 0, 24, 63
1, 38117, Control_c, 0, 64, 48
1, 38132, Control_c, 0, 64, 64
1, 38141, Note_off_c, 0, 77, 62
1, 38147, Control_c, 0, 64, 77
1, 38162, Control_c, 0, 64, 127
1, 38187, Note_on_c, 0, 71, 37
1, 38198, Poly_aftertouch_c, 0, 70, 127
1, 38215, Note_off_c, 0, 71, 51
1, 38218, Note_on_c, 0, 76, 79
1, 38233, Poly_aftertouch_c, 0, 70, 0
1, 38275, Note_on_c, 0, 67, 64
1, 38325, Note_off_c, 0, 76, 59
1, 38328, Note_on_c, 0, 75, 81
1, 38344, Note_off_c, 0, 67, 63
1, 38405, Note_on_c, 0, 70, 72
1, 38408, Note_off_c, 0, 75, 61
1, 38468, Note_on_c, 0, 74, 79
1, 38474, Note_on_c, 0, 52, 81
1, 38476, Note_off_c, 0, 70, 63
1, 38479, Note_on_c, 0, 43, 73
1, 38499, Note_off_c, 0, 52, 70
1, 38508, Note_off_c, 0, 43, 65
1, 38538, Note_on_c, 0, 67, 67
1, 38558, Note_off_c, 0, 74, 56
1, 38584, Note_on_c, 0, 73, 73
1, 38656, Note_on_c, 0, 70, 76
1, 38661, Note_off_c, 0, 73, 64
1, 38704, Note_off_c, 0, 70, 63
1, 38725, Note_on_c, 0, 72, 85
1, 38730, Note_off_c, 0, 67, 42
1, 38771, Note_on_c, 0, 52, 82
1, 38776, Note_on_c, 0, 43, 65
1, 38795, Note_off_c, 0, 52, 71
1, 38806, Control_c, 0, 64, 97
1, 38809, Note_off_c, 0, 43, 63
1, 38812, Note_on_c, 0, 67, 64
1, 38821, Control_c, 0, 64, 79
1, 38836, Control_c, 0, 64, 65
1, 38838, Note_off_c, 0, 67, 69
1, 38850, Note_on_c, 0, 71, 76
1, 38851, Control_c, 0, 64, 53
1, 38862, Note_on_c, 0, 52, 87
1, 38862, Note_off_c, 0, 72, 60
1, 38866, Control_c, 0, 64, 37
1, 38877, Note_on_c, 0, 43, 71
1, 38881, Control_c, 0, 64, 36
1, 38896, Control_c, 0, 64, 45
1, 38910, Control_c, 0, 64, 58
1, 38925, Control_c, 0, 64, 67
1, 38940, Note_off_c, 0, 71, 63
1, 38940, Note_on_c, 0, 70, 73
1, 38940, Control_c, 0, 64, 82
1, 38955, Control_c, 0, 64, 127
1, 38988, Note_on_c, 0, 64, 63
1, 38990, Note_off_c, 0, 70, 61
1, 39037, Note_off_c, 0, 64, 61
1, 39038, Note_on_c, 0, 69, 83
1, 39097, Note_off_c, 0, 43, 43
1, 39104, Note_off_c, 0, 69, 54
1, 39106, Note_on_c, 0, 60, 83
1, 39154, Note_off_c, 0, 60, 65
1, 39178, Note_on_c, 0, 68, 87
1, 39181, Note_off_c, 0, 52, 65
1, 39184, Control_c, 0, 64, 102
1, 39188, Note_on_c, 0, 53, 83
1, 39199, Note_on_c, 0, 43, 63
1, 39199, Control_c, 0, 64, 75
1, 39214, Control_c, 0, 64, 59
1, 39229, Control_c, 0, 64, 40
1, 39242, Note_off_c, 0, 68, 60
1, 39244, Control_c, 0, 64, 38
1, 39250, Note_on_c, 0, 58, 80
1, 39259, Control_c, 0, 64, 44
1, 39274, Control_c, 0, 64, 56
1, 39286, Note_off_c, 0, 58, 60
1, 39289, Control_c, 0, 64, 64
1, 39295, Note_on_c, 0, 67, 76
1, 39304, Control_c, 0, 64, 71
1, 39318, Control_c, 0, 64, 84
1, 39333, Control_c, 0, 64, 111
1, 39348, Control_c, 0, 64, 127
1, 39357, Note_on_c, 0, 60, 71
1, 39384, Note_off_c, 0, 67, 46
1, 39406, Note_on_c, 0, 66, 78
1, 39418, Note_off_c, 0, 60, 64
1, 39421, Note_off_c, 0, 43, 50
1, 39464, Note_on_c, 0, 58, 74
1, 39485, Note_off_c, 0, 66, 58
1, 39496, Note_off_c, 0, 53, 46
1, 39510, Control_c, 0, 64, 94
1, 39518, Note_on_c, 0, 52, 67
1, 39525, Control_c, 0, 64, 75
1, 39529, Note_on_c, 0, 43, 55
1, 39531, Note_on_c, 0, 65, 68
1, 39533, Note_off_c, 0, 58, 60
1, 39540, Control_c, 0, 64, 64
1, 39554, Control_c, 0, 64, 54
1, 39569, Control_c, 0, 64, 44
1, 39584, Control_c, 0, 64, 42
1, 39588, Note_on_c, 0, 60, 68
1, 39614, Control_c, 0, 64, 47
1, 39619, Note_off_c, 0, 52, 61
1, 39622, Note_off_c, 0, 65, 61
1, 39630, Control_c, 0, 64, 57
1, 39645, Control_c, 0, 64, 64
1, 39647, Note_on_c, 0, 64, 67
1, 39658, Note_off_c, 0, 60, 64
1, 39659, Control_c, 0, 64, 70
1, 39674, Control_c, 0, 64, 81
1, 39682, Note_off_c, 0, 43, 57
1, 39689, Control_c, 0, 64, 101
1, 39704, Control_c, 0, 64, 127
1, 39711, Note_on_c, 0, 58, 64
1, 39743, Note_off_c, 0, 64, 60
1, 39766, Note_on_c, 0, 63, 65
1, 39779, Note_off_c, 0, 58, 60
1, 39819, Note_on_c, 0, 60, 65
1, 39832, Note_off_c, 0, 63, 60
1, 39889, Control_c, 0, 64, 96
1, 39894, Note_on_c, 0, 48, 62
1, 39895, Note_on_c, 0, 62, 71
1, 39898, Note_off_c, 0, 60, 61
1, 39900, Note_on_c, 0, 36, 61
1, 39904, Control_c, 0, 64, 81
1, 39919, Control_c, 0, 64, 70
1, 39934, Control_c, 0, 64, 63
1, 39948, Control_c, 0, 64, 57
1, 39958, Note_on_c, 0, 55, 58
1, 39963, Control_c, 0, 64, 54
1, 39979, Note_off_c, 0, 62, 56
1, 39993, Control_c, 0, 64, 56
1, 40004, Note_on_c, 0, 61, 60
1, 40007, Control_c, 0, 64, 61
1, 40014, Note_off_c, 0, 55, 58
1, 40022, Control_c, 0, 64, 67
1, 40037, Control_c, 0, 64, 75
1, 40049, Note_off_c, 0, 48, 60
1, 40052, Control_c, 0, 64, 89
1, 40062, Note_on_c, 0, 58, 66
1, 40067, Control_c, 0, 64, 110
1, 40070, Note_off_c, 0, 61, 60
1, 40082, Control_c, 0, 64, 127
1, 40122, Note_on_c, 0, 60, 61
1, 40132, Note_off_c, 0, 58, 60
1, 40178, Note_on_c, 0, 55, 61
1, 40183, Note_off_c, 0, 60, 62
1, 40215, Control_c, 0, 64, 113
1, 40230, Control_c, 0, 64, 92
1, 40245, Note_on_c, 0, 52, 52
1, 40245, Control_c, 0, 64, 76
1, 40251, Note_on_c, 0, 59, 69
1, 40257, Note_off_c, 0, 55, 56
1, 40259, Note_on_c, 0, 43, 50
1, 40259, Control_c, 0, 64, 67
1, 40274, Control_c, 0, 64, 61
1, 40289, Control_c, 0, 64, 55
1, 40304, Control_c, 0, 64, 54
1, 40306, Note_off_c, 0, 59, 58
1, 40317, Note_on_c, 0, 55, 45
1, 40319, Control_c, 0, 64, 55
1, 40333, Control_c, 0, 64, 59
1, 40348, Control_c, 0, 64, 64
1, 40363, Control_c, 0, 64, 70
1, 40377, Note_on_c, 0, 60, 66
1, 40377, Note_off_c, 0, 55, 62
1, 40377, Control_c, 0, 64, 80
1, 40392, Control_c, 0, 64, 102
1, 40407, Control_c, 0, 64, 127
1, 40436, Note_on_c, 0, 58, 80
1, 40440, Note_off_c, 0, 60, 65
1, 40454, Note_off_c, 0, 52, 61
1, 40493, Note_on_c, 0, 61, 81
1, 40511, Note_off_c, 0, 58, 63
1, 40545, Note_on_c, 0, 55, 78
1, 40555, Note_off_c, 0, 61, 61
1, 40585, Note_off_c, 0, 36, 39
1, 40594, Note_on_c, 0, 62, 84
1, 40597, Note_off_c, 0, 55, 61
1, 40657, Note_on_c, 0, 58, 86
1, 40675, Note_off_c, 0, 62, 63
1, 40719, Note_on_c, 0, 63, 82
1, 40722, Note_off_c, 0, 58, 65
1, 40761, Note_on_c, 0, 55, 80
1, 40806, Note_off_c, 0, 63, 60
1, 40809, Note_off_c, 0, 55, 60
1, 40812, Note_on_c, 0, 64, 75
1, 40857, Note_on_c, 0, 58, 75
1, 40860, Control_c, 0, 64, 117
1, 40873, Note_off_c, 0, 64, 63
1, 40875, Control_c, 0, 64, 84
1, 40885, Note_off_c, 0, 58, 67
1, 40889, Control_c, 0, 64, 61
1, 40900, Note_off_c, 0, 43, 56
1, 40904, Control_c, 0, 64, 0
1, 40925, Note_on_c, 0, 36, 83
1, 40949, Note_on_c, 0, 69, 61
1, 40950, Note_on_c, 0, 71, 57
1, 40979, Control_c, 0, 64, 16
1, 40988, Note_off_c, 0, 71, 62
1, 40990, Note_off_c, 0, 69, 65
1, 40991, Note_off_c, 0, 36, 63
1, 40991, Note_on_c, 0, 64, 79
1, 40994, Control_c, 0, 64, 62
1, 41008, Control_c, 0, 64, 87
1, 41023, Control_c, 0, 64, 127
1, 41056, Note_off_c, 0, 64, 63
1, 41059, Note_on_c, 0, 67, 77
1, 41081, Note_off_c, 0, 67, 69
1, 41131, Note_on_c, 0, 70, 73
1, 41151, Note_off_c, 0, 70, 67
1, 41181, Note_on_c, 0, 81, 71
1, 41228, Note_on_c, 0, 75, 58
1, 41229, Note_off_c, 0, 75, 127
1, 41232, Note_off_c, 0, 81, 64
1, 41240, Note_on_c, 0, 76, 79
1, 41242, Poly_aftertouch_c, 0, 71, 0
1, 41274, Note_on_c, 0, 64, 81
1, 41280, Note_on_c, 0, 58, 81
1, 41283, Note_on_c, 0, 55, 77
1, 41298, Note_off_c, 0, 76, 63
1, 41301, Note_on_c, 0, 79, 79
1, 41317, Note_off_c, 0, 64, 64
1, 41322, Note_off_c, 0, 79, 71
1, 41335, Note_off_c, 0, 55, 64
1, 41337, Note_off_c, 0, 58, 64
1, 41370, Note_on_c, 0, 82, 84
1, 41409, Note_on_c, 0, 47, 94
1, 41410, Note_on_c, 0, 93, 91
1, 41412, Note_off_c, 0, 82, 56
1, 41437, Note_on_c, 0, 48, 59
1, 41451, Note_off_c, 0, 47, 65
1, 41462, Note_off_c, 0, 48, 58
1, 41473, Note_off_c, 0, 93, 67
1, 41477, Note_on_c, 0, 88, 77
1, 41494, Note_on_c, 0, 87, 60
1, 41497, Note_on_c, 0, 48, 94
1, 41508, Note_on_c, 0, 91, 87
1, 41513, Note_off_c, 0, 87, 63
1, 41523, Note_off_c, 0, 88, 66
1, 41535, Control_c, 0, 64, 121
1, 41545, Note_off_c, 0, 48, 65
1, 41550, Control_c, 0, 64, 82
1, 41565, Control_c, 0, 64, 68
1, 41569, Note_on_c, 0, 82, 92
1, 41579, Control_c, 0, 64, 53
1, 41594, Control_c, 0, 64, 0
1, 41623, Note_on_c, 0, 54, 92
1, 41626, Note_on_c, 0, 58, 88
1, 41629, Note_on_c, 0, 49, 89
1, 41629, Note_on_c, 0, 63, 86
1, 41629, Note_off_c, 0, 82, 62
1, 41632, Note_on_c, 0, 93, 96
1, 41647, Note_off_c, 0, 91, 60
1, 41668, Control_c, 0, 64, 54
1, 41673, Note_on_c, 0, 61, 22
1, 41674, Note_off_c, 0, 61, 127
1, 41683, Control_c, 0, 64, 72
1, 41686, Note_off_c, 0, 63, 65
1, 41688, Note_on_c, 0, 87, 88
1, 41695, Note_off_c, 0, 93, 66
1, 41698, Control_c, 0, 64, 121
1, 41700, Note_off_c, 0, 58, 61
1, 41708, Note_off_c, 0, 54, 64
1, 41712, Control_c, 0, 64, 127
1, 41722, Note_off_c, 0, 49, 62
1, 41734, Note_on_c, 0, 88, 40
1, 41747, Note_on_c, 0, 91, 86
1, 41759, Note_off_c, 0, 88, 59
1, 41760, Note_off_c, 0, 87, 65
1, 41796, Note_off_c, 0, 91, 65
1, 41799, Note_on_c, 0, 82, 87
1, 41816, Control_c, 0, 64, 117
1, 41818, Note_off_c, 0, 82, 72
1, 41831, Control_c, 0, 64, 83
1, 41846, Control_c, 0, 64, 70
1, 41861, Control_c, 0, 64, 62
1, 41870, Note_on_c, 0, 81, 90
1, 41876, Control_c, 0, 64, 51
1, 41891, Control_c, 0, 64, 24
1, 41905, Control_c, 0, 64, 0
1, 41933, Note_off_c, 0, 81, 65
1, 41934, Note_on_c, 0, 75, 60
1, 41944, Note_on_c, 0, 74, 80
1, 41974, Note_on_c, 0, 49, 96
1, 41977, Note_on_c, 0, 37, 88
1, 41982, Note_off_c, 0, 74, 64
1, 41983, Note_off_c, 0, 75, 60
1, 41985, Note_on_c, 0, 79, 82
1, 42009, Control_c, 0, 64, 57
1, 42025, Control_c, 0, 64, 101
1, 42037, Note_on_c, 0, 70, 86
1, 42038, Note_off_c, 0, 79, 66
1, 42040, Control_c, 0, 64, 127
1, 42063, Note_off_c, 0, 70, 65
1, 42118, Note_on_c, 0, 69, 85
1, 42164, Note_on_c, 0, 63, 77
1, 42169, Note_off_c, 0, 69, 64
1, 42200, Note_on_c, 0, 62, 77
1, 42207, Note_off_c, 0, 49, 59
1, 42221, Note_on_c, 0, 67, 83
1, 42225, Note_off_c, 0, 62, 69
1, 42228, Note_off_c, 0, 63, 59
1, 42240, Note_off_c, 0, 37, 50
1, 42263, Note_on_c, 0, 58, 67
1, 42278, Note_off_c, 0, 67, 63
1, 42292, Poly_aftertouch_c, 0, 39, 0
1, 42292, Note_off_c, 0, 58, 66
1, 42299, Control_c, 0, 64, 101
1, 42314, Control_c, 0, 64, 68
1, 42327, Note_on_c, 0, 38, 92
1, 42327, Note_on_c, 0, 50, 98
1, 42328, Note_on_c, 0, 69, 88
1, 42328, Control_c, 0, 64, 0
1, 42336, Note_on_c, 0, 59, 9
1, 42374, Note_on_c, 0, 62, 82
1, 42377, Note_off_c, 0, 59, 29
1, 42389, Note_off_c, 0, 69, 64
1, 42398, Note_off_c, 0, 38, 61
1, 42403, Control_c, 0, 64, 31
1, 42418, Control_c, 0, 64, 73
1, 42425, Note_off_c, 0, 50, 65
1, 42433, Control_c, 0, 64, 127
1, 42437, Note_on_c, 0, 67, 84
1, 42447, Note_off_c, 0, 62, 65
1, 42464, Note_off_c, 0, 67, 65
1, 42512, Note_on_c, 0, 70, 91
1, 42532, Note_off_c, 0, 70, 70
1, 42565, Note_on_c, 0, 81, 91
1, 42600, Note_on_c, 0, 74, 89
1, 42602, Note_on_c, 0, 62, 23
1, 42617, Note_off_c, 0, 81, 66
1, 42636, Note_off_c, 0, 62, 46
1, 42658, Note_on_c, 0, 79, 73
1, 42660, Note_on_c, 0, 67, 97
1, 42663, Note_on_c, 0, 62, 83
1, 42667, Note_on_c, 0, 58, 92
1, 42672, Note_off_c, 0, 74, 65
1, 42688, Note_off_c, 0, 79, 67
1, 42694, Note_off_c, 0, 67, 67
1, 42703, Note_off_c, 0, 62, 67
1, 42721, Note_off_c, 0, 58, 66
1, 42731, Note_on_c, 0, 82, 92
1, 42764, Note_off_c, 0, 82, 67
1, 42773, Note_on_c, 0, 49, 97
1, 42776, Note_on_c, 0, 93, 91
1, 42782, Note_on_c, 0, 91, 77
1, 42805, Note_off_c, 0, 49, 68
1, 42805, Note_off_c, 0, 91, 66
1, 42831, Note_on_c, 0, 86, 88
1, 42833, Control_c, 0, 64, 107
1, 42837, Note_off_c, 0, 93, 67
1, 42848, Control_c, 0, 64, 87
1, 42863, Control_c, 0, 64, 75
1, 42867, Note_on_c, 0, 91, 73
1, 42880, Note_on_c, 0, 50, 18
1, 42885, Control_c, 0, 64, 66
1, 42896, Note_on_c, 0, 48, 61
1, 42898, Note_off_c, 0, 86, 64
1, 42900, Note_on_c, 0, 49, 58
1, 42900, Control_c, 0, 64, 58
1, 42915, Control_c, 0, 64, 43
1, 42919, Note_off_c, 0, 48, 58
1, 42919, Note_off_c, 0, 49, 39
1, 42919, Note_off_c, 0, 50, 61
1, 42930, Control_c, 0, 64, 0
1, 42938, Note_on_c, 0, 82, 90
1, 42967, Note_on_c, 0, 51, 91
1, 42990, Note_off_c, 0, 91, 51
1, 43005, Note_on_c, 0, 58, 83
1, 43017, Note_on_c, 0, 54, 45
1, 43049, Note_on_c, 0, 60, 71
1, 43049, Note_off_c, 0, 51, 66
1, 43063, Control_c, 0, 64, 64
1, 43065, Note_off_c, 0, 82, 64
1, 43068, Note_off_c, 0, 54, 40
1, 43077, Control_c, 0, 64, 107
1, 43081, Note_on_c, 0, 67, 100
1, 43092, Control_c, 0, 64, 127
1, 43095, Note_on_c, 0, 93, 100
1, 43112, Note_on_c, 0, 57, 21
1, 43116, Note_off_c, 0, 60, 64
1, 43117, Note_off_c, 0, 67, 67
1, 43125, Note_off_c, 0, 58, 63
1, 43155, Note_on_c, 0, 85, 90
1, 43160, Note_off_c, 0, 93, 67
1, 43171, Note_off_c, 0, 57, 51
1, 43220, Note_on_c, 0, 91, 94
1, 43221, Note_off_c, 0, 85, 67
1, 43265, Note_off_c, 0, 91, 67
1, 43273, Note_on_c, 0, 82, 78
1, 43294, Note_off_c, 0, 82, 70
1, 43330, Control_c, 0, 64, 117
1, 43345, Control_c, 0, 64, 94
1, 43350, Note_on_c, 0, 81, 87
1, 43359, Control_c, 0, 64, 81
1, 43374, Control_c, 0, 64, 72
1, 43389, Control_c, 0, 64, 64
1, 43403, Control_c, 0, 64, 47
1, 43414, Note_on_c, 0, 74, 86
1, 43418, Control_c, 0, 64, 18
1, 43423, Note_off_c, 0, 81, 65
1, 43433, Control_c, 0, 64, 0
1, 43482, Note_off_c, 0, 74, 62
1, 43484, Note_on_c, 0, 51, 95
1, 43487, Note_on_c, 0, 39, 82
1, 43488, Note_on_c, 0, 79, 81
1, 43532, Note_off_c, 0, 79, 64
1, 43533, Note_on_c, 0, 52, 33
1, 43549, Note_off_c, 0, 52, 43
1, 43551, Control_c, 0, 64, 55
1, 43557, Note_on_c, 0, 70, 72
1, 43566, Control_c, 0, 64, 71
1, 43581, Note_off_c, 0, 70, 69
1, 43581, Control_c, 0, 64, 103
1, 43596, Control_c, 0, 64, 127
1, 43646, Note_on_c, 0, 69, 76
1, 43694, Note_off_c, 0, 69, 63
1, 43696, Note_on_c, 0, 61, 75
1, 43730, Poly_aftertouch_c, 0, 66, 127
1, 43731, Note_off_c, 0, 61, 60
1, 43754, Note_off_c, 0, 51, 58
1, 43756, Note_on_c, 0, 67, 71
1, 43756, Poly_aftertouch_c, 0, 66, 0
1, 43797, Control_c, 0, 64, 117
1, 43805, Note_on_c, 0, 58, 71
1, 43806, Note_off_c, 0, 39, 54
1, 43811, Note_off_c, 0, 67, 63
1, 43812, Control_c, 0, 64, 99
1, 43827, Control_c, 0, 64, 85
1, 43833, Note_off_c, 0, 58, 66
1, 43842, Control_c, 0, 64, 74
1, 43856, Control_c, 0, 64, 64
1, 43871, Control_c, 0, 64, 32
1, 43880, Note_on_c, 0, 69, 68
1, 43886, Control_c, 0, 64, 0
1, 43890, Note_on_c, 0, 52, 70
1, 43892, Note_on_c, 0, 40, 70
1, 43932, Note_off_c, 0, 69, 63
1, 43939, Note_on_c, 0, 60, 69
1, 43969, Note_off_c, 0, 40, 62
1, 43975, Control_c, 0, 64, 46
1, 43989, Control_c, 0, 64, 69
1, 43991, Note_on_c, 0, 67, 61
1, 43995, Note_off_c, 0, 52, 65
1, 43997, Note_off_c, 0, 60, 65
1, 44004, Control_c, 0, 64, 96
1, 44019, Control_c, 0, 64, 127
1, 44037, Note_off_c, 0, 67, 60
1, 44052, Note_on_c, 0, 58, 62
1, 44075, Note_off_c, 0, 58, 61
1, 44112, Note_on_c, 0, 72, 83
1, 44168, Note_on_c, 0, 69, 79
1, 44192, Note_off_c, 0, 72, 61
1, 44239, Note_on_c, 0, 70, 81
1, 44243, Note_off_c, 0, 69, 65
1, 44252, Note_on_c, 0, 60, 95
1, 44285, Note_off_c, 0, 70, 63
1, 44302, Note_on_c, 0, 67, 74
1, 44328, Note_off_c, 0, 67, 67
1, 44366, Note_on_c, 0, 81, 80
1, 44410, Note_off_c, 0, 81, 56
1, 44413, Note_off_c, 0, 60, 63
1, 44429, Note_on_c, 0, 72, 80
1, 44478, Note_off_c, 0, 72, 63
1, 44489, Note_on_c, 0, 79, 70
1, 44528, Note_on_c, 0, 60, 71
1, 44531, Control_c, 0, 64, 92
1, 44540, Note_on_c, 0, 70, 77
1, 44546, Control_c, 0, 64, 70
1, 44552, Note_off_c, 0, 79, 64
1, 44559, Note_off_c, 0, 60, 65
1, 44561, Note_off_c, 0, 70, 72
1, 44561, Control_c, 0, 64, 53
1, 44576, Control_c, 0, 64, 0
1, 44610, Note_on_c, 0, 60, 74
1, 44617, Note_on_c, 0, 84, 75
1, 44620, Control_c, 0, 64, 47
1, 44635, Control_c, 0, 64, 61
1, 44636, Note_off_c, 0, 60, 66
1, 44649, Control_c, 0, 64, 69
1, 44663, Note_on_c, 0, 81, 75
1, 44664, Note_off_c, 0, 84, 63
1, 44664, Control_c, 0, 64, 80
1, 44679, Control_c, 0, 64, 123
1, 44694, Control_c, 0, 64, 127
1, 44731, Note_off_c, 0, 81, 66
1, 44740, Note_on_c, 0, 82, 70
1, 44765, Note_off_c, 0, 82, 68
1, 44791, Note_on_c, 0, 79, 66
1, 44815, Note_off_c, 0, 79, 68
1, 44843, Note_on_c, 0, 93, 82
1, 44857, Control_c, 0, 64, 113
1, 44872, Control_c, 0, 64, 92
1, 44887, Control_c, 0, 64, 77
1, 44893, Note_off_c, 0, 93, 64
1, 44902, Control_c, 0, 64, 68
1, 44905, Note_on_c, 0, 84, 68
1, 44917, Control_c, 0, 64, 59
1, 44931, Control_c, 0, 64, 39
1, 44934, Note_off_c, 0, 84, 66
1, 44946, Control_c, 0, 64, 0
1, 44958, Note_on_c, 0, 91, 66
1, 44967, Note_on_c, 0, 48, 61
1, 44968, Note_on_c, 0, 36, 59
1, 45005, Control_c, 0, 64, 37
1, 45007, Note_off_c, 0, 91, 64
1, 45020, Control_c, 0, 64, 61
1, 45022, Note_on_c, 0, 82, 34
1, 45035, Control_c, 0, 64, 72
1, 45049, Control_c, 0, 64, 101
1, 45054, Note_off_c, 0, 82, 46
1, 45058, Note_off_c, 0, 36, 61
1, 45064, Control_c, 0, 64, 127
1, 45066, Note_on_c, 0, 96, 73
1, 45074, Note_off_c, 0, 48, 62
1, 45139, Note_on_c, 0, 93, 58
1, 45139, Note_off_c, 0, 96, 63
1, 45199, Note_on_c, 0, 94, 70
1, 45217, Note_off_c, 0, 93, 63
1, 45227, Poly_aftertouch_c, 0, 95, 0
1, 45250, Control_c, 0, 64, 99
1, 45253, Note_on_c, 0, 91, 56
1, 45265, Control_c, 0, 64, 80
1, 45271, Note_off_c, 0, 94, 60
1, 45280, Control_c, 0, 64, 71
1, 45295, Control_c, 0, 64, 66
1, 45295, Note_on_c, 0, 41, 53
1, 45297, Note_on_c, 0, 53, 48
1, 45304, Note_on_c, 0, 98, 69
1, 45310, Control_c, 0, 64, 61
1, 45325, Control_c, 0, 64, 53
1, 45333, Note_off_c, 0, 91, 56
1, 45340, Control_c, 0, 64, 41
1, 45354, Control_c, 0, 64, 26
1, 45369, Control_c, 0, 64, 18
1, 45385, Note_on_c, 0, 93, 57
1, 45399, Control_c, 0, 64, 28
1, 45414, Note_off_c, 0, 98, 60
1, 45414, Control_c, 0, 64, 51
1, 45420, Note_off_c, 0, 41, 64
1, 45421, Note_on_c, 0, 96, 56
1, 45428, Control_c, 0, 64, 63
1, 45443, Control_c, 0, 64, 72
1, 45455, Note_off_c, 0, 53, 60
1, 45455, Note_off_c, 0, 93, 66
1, 45458, Control_c, 0, 64, 109
1, 45473, Control_c, 0, 64, 127
1, 45476, Note_off_c, 0, 96, 65
1, 45498, Note_on_c, 0, 89, 67
1, 45548, Note_on_c, 0, 92, 79
1, 45551, Note_off_c, 0, 89, 61
1, 45610, Note_on_c, 0, 89, 61
1, 45622, Note_off_c, 0, 92, 65
1, 45657, Note_on_c, 0, 69, 84
1, 45679, Note_on_c, 0, 93, 79
1, 45683, Note_off_c, 0, 89, 63
1, 45724, Note_off_c, 0, 93, 65
1, 45742, Note_on_c, 0, 84, 78
1, 45786, Note_on_c, 0, 88, 83
1, 45791, Note_off_c, 0, 84, 63
1, 45841, Note_off_c, 0, 69, 63
1, 45845, Note_on_c, 0, 84, 82
1, 45864, Note_off_c, 0, 88, 64
1, 45881, Note_on_c, 0, 57, 76
1, 45903, Note_on_c, 0, 89, 89
1, 45908, Note_off_c, 0, 84, 67
1, 45959, Note_on_c, 0, 81, 68
1, 45978, Note_off_c, 0, 89, 62
1, 46014, Control_c, 0, 64, 98
1, 46019, Note_on_c, 0, 62, 70
1, 46019, Note_on_c, 0, 85, 79
1, 46026, Note_off_c, 0, 81, 65
1, 46028, Note_on_c, 0, 53, 63
1, 46029, Control_c, 0, 64, 78
1, 46044, Control_c, 0, 64, 64
1, 46058, Control_c, 0, 64, 47
1, 46073, Control_c, 0, 64, 25
1, 46080, Note_on_c, 0, 81, 71
1, 46088, Control_c, 0, 64, 22
1, 46099, Note_off_c, 0, 85, 64
1, 46103, Control_c, 0, 64, 34
1, 46118, Control_c, 0, 64, 54
1, 46133, Control_c, 0, 64, 64
1, 46142, Note_on_c, 0, 86, 79
1, 46146, Note_off_c, 0, 81, 65
1, 46148, Control_c, 0, 64, 70
1, 46163, Control_c, 0, 64, 82
1, 46177, Control_c, 0, 64, 127
1, 46187, Note_off_c, 0, 86, 62
1, 46193, Note_on_c, 0, 77, 77
1, 46228, Note_off_c, 0, 62, 58
1, 46237, Note_on_c, 0, 64, 71
1, 46247, Note_on_c, 0, 80, 73
1, 46253, Note_off_c, 0, 77, 61
1, 46300, Note_on_c, 0, 77, 67
1, 46315, Note_off_c, 0, 80, 61
1, 46325, Control_c, 0, 64, 99
1, 46340, Control_c, 0, 64, 81
1, 46343, Note_off_c, 0, 64, 60
1, 46355, Control_c, 0, 64, 68
1, 46362, Note_on_c, 0, 65, 61
1, 46370, Control_c, 0, 64, 56
1, 46373, Note_on_c, 0, 81, 65
1, 46375, Note_off_c, 0, 77, 63
1, 46384, Control_c, 0, 64, 9
1, 46399, Control_c, 0, 64, 0
1, 46428, Note_off_c, 0, 81, 61
1, 46438, Note_off_c, 0, 65, 62
1, 46440, Note_on_c, 0, 74, 62
1, 46444, Control_c, 0, 64, 49
1, 46458, Control_c, 0, 64, 63
1, 46471, Note_off_c, 0, 57, 57
1, 46473, Control_c, 0, 64, 72
1, 46477, Note_off_c, 0, 74, 59
1, 46488, Control_c, 0, 64, 86
1, 46494, Note_on_c, 0, 76, 66
1, 46501, Note_off_c, 0, 53, 64
1, 46502, Control_c, 0, 64, 127
1, 46549, Note_off_c, 0, 76, 63
1, 46562, Note_on_c, 0, 74, 65
1, 46601, Note_off_c, 0, 74, 62
1, 46612, Note_on_c, 0, 77, 68
1, 46658, Control_c, 0, 64, 107
1, 46672, Note_off_c, 0, 77, 56
1, 46674, Control_c, 0, 64, 90
1, 46677, Note_on_c, 0, 69, 57
1, 46689, Control_c, 0, 64, 77
1, 46703, Control_c, 0, 64, 67
1, 46712, Note_on_c, 0, 31, 60
1, 46718, Control_c, 0, 64, 56
1, 46723, Note_off_c, 0, 69, 56
1, 46733, Control_c, 0, 64, 29
1, 46745, Note_on_c, 0, 43, 20
1, 46745, Note_on_c, 0, 76, 53
1, 46748, Control_c, 0, 64, 0
1, 46787, Note_off_c, 0, 76, 64
1, 46795, Note_on_c, 0, 71, 64
1, 46804, Note_off_c, 0, 31, 62
1, 46807, Control_c, 0, 64, 51
1, 46823, Control_c, 0, 64, 64
1, 46836, Note_off_c, 0, 71, 65
1, 46838, Control_c, 0, 64, 73
1, 46853, Control_c, 0, 64, 127
1, 46857, Note_on_c, 0, 74, 56
1, 46866, Note_off_c, 0, 43, 37
1, 46875, Note_off_c, 0, 74, 63
1, 46919, Note_on_c, 0, 77, 77
1, 46950, Note_off_c, 0, 77, 62
1, 46974, Note_on_c, 0, 88, 74
1, 47024, Note_off_c, 0, 88, 66
1, 47026, Note_on_c, 0, 83, 80
1, 47068, Note_on_c, 0, 55, 58
1, 47073, Note_on_c, 0, 59, 68
1, 47086, Note_off_c, 0, 83, 64
1, 47096, Note_on_c, 0, 86, 68
1, 47111, Note_off_c, 0, 55, 62
1, 47112, Note_off_c, 0, 86, 66
1, 47156, Note_on_c, 0, 89, 76
1, 47191, Note_off_c, 0, 89, 57
1, 47203, Note_on_c, 0, 65, 71
1, 47206, Note_on_c, 0, 64, 60
1, 47218, Note_on_c, 0, 100, 71
1, 47218, Note_on_c, 0, 101, 70
1, 47248, Note_off_c, 0, 101, 63
1, 47251, Note_on_c, 0, 95, 77
1, 47255, Note_off_c, 0, 100, 62
1, 47282, Note_off_c, 0, 64, 65
1, 47301, Note_on_c, 0, 69, 85
1, 47302, Note_off_c, 0, 65, 61
1, 47312, Note_on_c, 0, 98, 88
1, 47325, Note_off_c, 0, 95, 65
1, 47357, Note_off_c, 0, 98, 66
1, 47378, Note_on_c, 0, 89, 71
1, 47394, Control_c, 0, 64, 95
1, 47408, Control_c, 0, 64, 77
1, 47418, Note_off_c, 0, 89, 57
1, 47421, Control_c, 0, 64, 63
1, 47436, Control_c, 0, 64, 45
1, 47440, Note_on_c, 0, 67, 82
1, 47443, Note_on_c, 0, 93, 80
1, 47446, Note_off_c, 0, 69, 61
1, 47450, Control_c, 0, 64, 25
1, 47465, Control_c, 0, 64, 24
1, 47480, Control_c, 0, 64, 24
1, 47495, Control_c, 0, 64, 37
1, 47509, Note_on_c, 0, 89, 83
1, 47510, Note_off_c, 0, 93, 66
1, 47510, Control_c, 0, 64, 58
1, 47525, Control_c, 0, 64, 66
1, 47540, Control_c, 0, 64, 76
1, 47555, Control_c, 0, 64, 107
1, 47557, Note_on_c, 0, 91, 81
1, 47570, Control_c, 0, 64, 127
1, 47573, Note_off_c, 0, 89, 63
1, 47594, Note_off_c, 0, 91, 62
1, 47595, Note_off_c, 0, 67, 59
1, 47615, Note_on_c, 0, 83, 73
1, 47617, Note_off_c, 0, 59, 59
1, 47640, Note_off_c, 0, 83, 70
1, 47679, Note_on_c, 0, 81, 77
1, 47736, Note_on_c, 0, 77, 81
1, 47766, Note_off_c, 0, 81, 60
1, 47778, Note_on_c, 0, 65, 65
1, 47781, Note_on_c, 0, 55, 67
1, 47781, Note_on_c, 0, 79, 72
1, 47782, Note_on_c, 0, 59, 60
1, 47789, Note_off_c, 0, 77, 65
1, 47810, Note_off_c, 0, 65, 66
1, 47829, Note_off_c, 0, 59, 57
1, 47834, Note_off_c, 0, 79, 64
1, 47836, Note_on_c, 0, 71, 66
1, 47844, Note_off_c, 0, 55, 61
1, 47865, Note_off_c, 0, 71, 67
1, 47899, Note_on_c, 0, 88, 84
1, 47949, Note_off_c, 0, 88, 62
1, 47957, Note_on_c, 0, 79, 68
1, 48011, Note_on_c, 0, 86, 74
1, 48018, Note_off_c, 0, 79, 64
1, 48062, Note_on_c, 0, 77, 64
1, 48067, Note_off_c, 0, 86, 63
1, 48088, Control_c, 0, 64, 113
1, 48103, Control_c, 0, 64, 84
1, 48126, Control_c, 0, 64, 69
1, 48133, Note_on_c, 0, 36, 53
1, 48136, Note_on_c, 0, 83, 78
1, 48137, Note_on_c, 0, 48, 48
1, 48139, Note_off_c, 0, 77, 59
1, 48141, Control_c, 0, 64, 56
1, 48155, Control_c, 0, 64, 26
1, 48170, Control_c, 0, 64, 0
1, 48199, Note_on_c, 0, 79, 66
1, 48200, Control_c, 0, 64, 18
1, 48201, Note_off_c, 0, 83, 62
1, 48212, Note_off_c, 0, 36, 58
1, 48215, Control_c, 0, 64, 49
1, 48229, Control_c, 0, 64, 63
1, 48244, Control_c, 0, 64, 72
1, 48246, Note_off_c, 0, 79, 64
1, 48246, Note_on_c, 0, 84, 71
1, 48258, Note_off_c, 0, 48, 61
1, 48259, Control_c, 0, 64, 94
1, 48273, Control_c, 0, 64, 127
1, 48303, Note_off_c, 0, 84, 63
1, 48310, Note_on_c, 0, 76, 59
1, 48335, Note_off_c, 0, 76, 64
1, 48367, Note_on_c, 0, 87, 71
1, 48389, Note_on_c, 0, 48, 43
1, 48417, Note_off_c, 0, 48, 57
1, 48425, Note_on_c, 0, 55, 56
1, 48441, Note_on_c, 0, 84, 61
1, 48446, Note_off_c, 0, 87, 55
1, 48482, Note_off_c, 0, 55, 57
1, 48492, Note_on_c, 0, 88, 63
1, 48494, Note_off_c, 0, 84, 61
1, 48509, Note_on_c, 0, 64, 48
1, 48535, Note_off_c, 0, 64, 60
1, 48538, Note_off_c, 0, 88, 62
1, 48559, Note_on_c, 0, 79, 59
1, 48577, Note_off_c, 0, 79, 67
1, 48626, Note_on_c, 0, 90, 73
1, 48672, Note_on_c, 0, 88, 72
1, 48677, Note_off_c, 0, 90, 62
1, 48736, Note_on_c, 0, 91, 87
1, 48741, Note_off_c, 0, 88, 67
1, 48786, Note_off_c, 0, 91, 59
1, 48788, Note_on_c, 0, 84, 76
1, 48836, Note_off_c, 0, 84, 59
1, 48839, Note_on_c, 0, 94, 94
1, 48902, Note_on_c, 0, 91, 85
1, 48929, Note_off_c, 0, 94, 64
1, 48956, Note_on_c, 0, 95, 94
1, 48976, Note_off_c, 0, 91, 64
1, 49010, Note_on_c, 0, 88, 83
1, 49062, Note_off_c, 0, 95, 43
1, 49069, Note_on_c, 0, 96, 103
1, 49069, Note_off_c, 0, 88, 63
1, 49123, Note_on_c, 0, 91, 87
1, 49138, Note_off_c, 0, 96, 67
1, 49143, Note_on_c, 0, 90, 65
1, 49150, Note_off_c, 0, 90, 55
1, 49191, Note_on_c, 0, 97, 108
1, 49206, Note_on_c, 0, 98, 91
1, 49245, Note_on_c, 0, 88, 85
1, 49250, Note_off_c, 0, 98, 61
1, 49266, Note_off_c, 0, 91, 64
1, 49281, Note_off_c, 0, 97, 64
1, 49291, Note_off_c, 0, 88, 64
1, 49313, Note_on_c, 0, 98, 99
1, 49343, Note_on_c, 0, 91, 74
1, 49379, Note_off_c, 0, 98, 67
1, 49383, Note_off_c, 0, 91, 62
1, 49436, Note_on_c, 0, 99, 107
1, 49456, Note_on_c, 0, 100, 78
1, 49473, Note_off_c, 0, 100, 59
1, 49494, Note_on_c, 0, 88, 68
1, 49519, Note_off_c, 0, 99, 64
1, 49543, Note_off_c, 0, 88, 66
1, 49563, Note_on_c, 0, 28, 93
1, 49567, Note_on_c, 0, 40, 95
1, 49572, Control_c, 0, 64, 71
1, 49575, Note_on_c, 0, 100, 99
1, 49586, Control_c, 0, 64, 0
1, 49653, Control_c, 0, 64, 19
1, 49660, Note_on_c, 0, 95, 85
1, 49667, Control_c, 0, 64, 69
1, 49674, Note_off_c, 0, 28, 62
1, 49682, Control_c, 0, 64, 107
1, 49697, Control_c, 0, 64, 127
1, 49711, Note_off_c, 0, 40, 65
1, 49716, Note_off_c, 0, 100, 41
1, 49719, Note_on_c, 0, 99, 85
1, 49753, Note_off_c, 0, 95, 60
1, 49761, Note_on_c, 0, 91, 83
1, 49784, Note_off_c, 0, 99, 65
1, 49826, Note_on_c, 0, 98, 94
1, 49834, Note_off_c, 0, 91, 54
1, 49881, Note_on_c, 0, 95, 74
1, 49925, Note_off_c, 0, 98, 61
1, 49948, Note_on_c, 0, 59, 103
1, 49949, Note_on_c, 0, 97, 90
1, 49950, Note_on_c, 0, 55, 90
1, 49952, Note_on_c, 0, 52, 85
1, 49972, Note_off_c, 0, 95, 65
1, 49983, Note_off_c, 0, 59, 68
1, 49984, Note_off_c, 0, 52, 65
1, 49988, Note_off_c, 0, 55, 66
1, 49999, Note_on_c, 0, 91, 83
1, 50017, Note_off_c, 0, 97, 64
1, 50043, Note_off_c, 0, 91, 64
1, 50071, Note_on_c, 0, 96, 93
1, 50124, Note_on_c, 0, 91, 77
1, 50178, Note_on_c, 0, 95, 91
1, 50188, Note_off_c, 0, 91, 62
1, 50211, Note_off_c, 0, 96, 65
1, 50212, Note_on_c, 0, 88, 75
1, 50228, Note_on_c, 0, 59, 93
1, 50229, Note_on_c, 0, 55, 80
1, 50232, Note_on_c, 0, 52, 78
1, 50251, Note_off_c, 0, 55, 67
1, 50252, Note_off_c, 0, 59, 64
1, 50258, Note_off_c, 0, 52, 67
1, 50285, Note_on_c, 0, 94, 91
1, 50290, Control_c, 0, 64, 76
1, 50300, Note_on_c, 0, 59, 94
1, 50304, Note_on_c, 0, 52, 88
1, 50305, Control_c, 0, 64, 55
1, 50307, Note_off_c, 0, 95, 63
1, 50308, Note_on_c, 0, 55, 83
1, 50320, Control_c, 0, 64, 0
1, 50351, Note_on_c, 0, 91, 82
1, 50375, Note_off_c, 0, 94, 64
1, 50386, Note_off_c, 0, 88, 0
1, 50386, Note_on_c, 0, 88, 18
1, 50387, Control_c, 0, 64, 59
1, 50392, Note_off_c, 0, 91, 67
1, 50396, Note_off_c, 0, 88, 59
1, 50401, Control_c, 0, 64, 73
1, 50416, Control_c, 0, 64, 117
1, 50430, Note_on_c, 0, 93, 88
1, 50431, Control_c, 0, 64, 127
1, 50482, Note_off_c, 0, 52, 57
1, 50491, Note_on_c, 0, 88, 82
1, 50492, Note_off_c, 0, 55, 60
1, 50533, Note_on_c, 0, 92, 88
1, 50543, Note_off_c, 0, 88, 64
1, 50559, Note_off_c, 0, 93, 65
1, 50586, Note_on_c, 0, 88, 76
1, 50608, Note_off_c, 0, 92, 66
1, 50643, Note_on_c, 0, 91, 93
1, 50657, Note_on_c, 0, 60, 101
1, 50660, Note_off_c, 0, 88, 65
1, 50662, Note_on_c, 0, 55, 81
1, 50664, Note_on_c, 0, 52, 84
1, 50668, Control_c, 0, 64, 118
1, 50673, Note_off_c, 0, 59, 59
1, 50683, Control_c, 0, 64, 75
1, 50698, Control_c, 0, 64, 50
1, 50713, Control_c, 0, 64, 0
1, 50725, Note_on_c, 0, 84, 61
1, 50726, Note_on_c, 0, 83, 63
1, 50726, Note_off_c, 0, 91, 62
1, 50756, Note_off_c, 0, 83, 57
1, 50757, Control_c, 0, 64, 48
1, 50765, Note_off_c, 0, 84, 48
1, 50769, Note_on_c, 0, 90, 89
1, 50772, Control_c, 0, 64, 65
1, 50787, Control_c, 0, 64, 81
1, 50802, Control_c, 0, 64, 127
1, 50833, Note_on_c, 0, 84, 88
1, 50837, Note_off_c, 0, 90, 64
1, 50848, Note_off_c, 0, 55, 59
1, 50871, Note_off_c, 0, 52, 54
1, 50871, Note_off_c, 0, 84, 61
1, 50889, Note_on_c, 0, 89, 92
1, 50944, Note_off_c, 0, 89, 61
1, 50959, Note_on_c, 0, 79, 78
1, 50992, Note_on_c, 0, 59, 99
1, 50995, Control_c, 0, 64, 111
1, 50997, Note_on_c, 0, 52, 80
1, 50998, Note_on_c, 0, 55, 85
1, 51001, Note_off_c, 0, 79, 62
1, 51006, Note_on_c, 0, 88, 83
1, 51009, Note_off_c, 0, 60, 66
1, 51010, Control_c, 0, 64, 76
1, 51025, Control_c, 0, 64, 57
1, 51039, Control_c, 0, 64, 0
1, 51072, Note_on_c, 0, 83, 81
1, 51084, Control_c, 0, 64, 44
1, 51099, Control_c, 0, 64, 63
1, 51107, Note_off_c, 0, 88, 64
1, 51121, Control_c, 0, 64, 73
1, 51136, Control_c, 0, 64, 127
1, 51148, Note_on_c, 0, 87, 89
1, 51149, Note_off_c, 0, 52, 61
1, 51167, Note_off_c, 0, 83, 64
1, 51168, Note_off_c, 0, 55, 60
1, 51188, Note_on_c, 0, 79, 79
1, 51206, Note_off_c, 0, 87, 63
1, 51247, Note_on_c, 0, 86, 91
1, 51261, Note_off_c, 0, 79, 56
1, 51288, Note_off_c, 0, 59, 60
1, 51299, Note_on_c, 0, 83, 80
1, 51361, Note_off_c, 0, 86, 56
1, 51363, Note_on_c, 0, 55, 97
1, 51365, Note_on_c, 0, 52, 83
1, 51370, Note_on_c, 0, 47, 80
1, 51373, Control_c, 0, 64, 91
1, 51376, Note_on_c, 0, 85, 78
1, 51388, Control_c, 0, 64, 72
1, 51388, Note_off_c, 0, 83, 64
1, 51403, Control_c, 0, 64, 57
1, 51418, Control_c, 0, 64, 0
1, 51423, Note_on_c, 0, 79, 78
1, 51430, Note_off_c, 0, 85, 65
1, 51447, Control_c, 0, 64, 17
1, 51462, Control_c, 0, 64, 52
1, 51465, Note_off_c, 0, 79, 53
1, 51477, Control_c, 0, 64, 65
1, 51486, Note_on_c, 0, 84, 87
1, 51491, Control_c, 0, 64, 76
1, 51506, Control_c, 0, 64, 127
1, 51542, Note_on_c, 0, 79, 83
1, 51567, Note_off_c, 0, 52, 59
1, 51597, Note_on_c, 0, 83, 84
1, 51605, Note_off_c, 0, 79, 63
1, 51625, Note_off_c, 0, 84, 63
1, 51633, Note_off_c, 0, 55, 56
1, 51636, Note_on_c, 0, 76, 74
1, 51700, Control_c, 0, 64, 91
1, 51705, Note_on_c, 0, 82, 80
1, 51712, Note_on_c, 0, 59, 93
1, 51714, Control_c, 0, 64, 72
1, 51716, Note_on_c, 0, 55, 87
1, 51718, Note_on_c, 0, 52, 75
1, 51721, Note_off_c, 0, 83, 61
1, 51728, Note_off_c, 0, 47, 60
1, 51728, Note_off_c, 0, 76, 57
1, 51729, Control_c, 0, 64, 59
1, 51744, Control_c, 0, 64, 9
1, 51759, Control_c, 0, 64, 0
1, 51776, Note_on_c, 0, 79, 79
1, 51788, Note_off_c, 0, 82, 65
1, 51803, Control_c, 0, 64, 35
1, 51818, Control_c, 0, 64, 59
1, 51831, Note_off_c, 0, 79, 59
1, 51833, Control_c, 0, 64, 67
1, 51838, Note_on_c, 0, 81, 79
1, 51845, Note_off_c, 0, 59, 56
1, 51848, Control_c, 0, 64, 79
1, 51870, Control_c, 0, 64, 127
1, 51911, Note_on_c, 0, 76, 78
1, 51923, Note_off_c, 0, 55, 58
1, 51934, Note_off_c, 0, 52, 61
1, 51959, Note_on_c, 0, 80, 83
1, 51973, Note_off_c, 0, 81, 58
1, 51978, Note_off_c, 0, 76, 54
1, 52017, Note_on_c, 0, 76, 50
1, 52025, Note_off_c, 0, 80, 63
1, 52062, Note_on_c, 0, 79, 82
1, 52074, Note_off_c, 0, 76, 64
1, 52130, Note_on_c, 0, 71, 60
1, 52136, Note_off_c, 0, 79, 61
1, 52163, Note_off_c, 0, 71, 63
1, 52173, Note_on_c, 0, 78, 83
1, 52238, Note_on_c, 0, 71, 73
1, 52243, Note_off_c, 0, 78, 63
1, 52269, Note_off_c, 0, 71, 62
1, 52296, Note_on_c, 0, 77, 79
1, 52321, Note_off_c, 0, 77, 66
1, 52344, Control_c, 0, 64, 113
1, 52359, Control_c, 0, 64, 79
1, 52363, Note_on_c, 0, 67, 67
1, 52374, Control_c, 0, 64, 63
1, 52387, Note_on_c, 0, 28, 88
1, 52388, Control_c, 0, 64, 28
1, 52395, Note_on_c, 0, 76, 72
1, 52402, Note_off_c, 0, 67, 56
1, 52403, Control_c, 0, 64, 0
1, 52434, Control_c, 0, 64, 17
1, 52449, Control_c, 0, 64, 52
1, 52458, Note_off_c, 0, 28, 61
1, 52462, Note_on_c, 0, 71, 70
1, 52464, Control_c, 0, 64, 64
1, 52479, Control_c, 0, 64, 73
1, 52490, Note_off_c, 0, 76, 55
1, 52493, Control_c, 0, 64, 98
1, 52508, Control_c, 0, 64, 127
1, 52517, Note_on_c, 0, 75, 78
1, 52546, Note_off_c, 0, 71, 63
1, 52561, Note_on_c, 0, 67, 67
1, 52573, Note_off_c, 0, 75, 62
1, 52623, Note_on_c, 0, 74, 79
1, 52647, Note_off_c, 0, 67, 55
1, 52684, Note_on_c, 0, 71, 67
1, 52742, Note_on_c, 0, 73, 78
1, 52745, Note_off_c, 0, 74, 56
1, 52747, Note_on_c, 0, 47, 86
1, 52755, Note_on_c, 0, 40, 79
1, 52768, Note_off_c, 0, 71, 63
1, 52780, Note_off_c, 0, 47, 64
1, 52787, Note_off_c, 0, 40, 67
1, 52798, Note_on_c, 0, 67, 64
1, 52803, Note_off_c, 0, 73, 63
1, 52852, Note_off_c, 0, 67, 48
1, 52862, Note_on_c, 0, 72, 81
1, 52926, Note_on_c, 0, 67, 62
1, 52982, Note_off_c, 0, 72, 59
1, 52991, Note_on_c, 0, 71, 74
1, 52995, Note_off_c, 0, 67, 63
1, 53007, Note_on_c, 0, 47, 78
1, 53008, Note_on_c, 0, 64, 68
1, 53013, Note_on_c, 0, 40, 66
1, 53034, Note_off_c, 0, 47, 67
1, 53044, Note_off_c, 0, 40, 65
1, 53078, Control_c, 0, 64, 104
1, 53079, Note_on_c, 0, 70, 75
1, 53093, Control_c, 0, 64, 78
1, 53096, Note_on_c, 0, 47, 88
1, 53098, Note_off_c, 0, 71, 61
1, 53101, Note_off_c, 0, 64, 53
1, 53107, Note_on_c, 0, 40, 76
1, 53108, Control_c, 0, 64, 64
1, 53123, Control_c, 0, 64, 47
1, 53137, Control_c, 0, 64, 26
1, 53150, Note_on_c, 0, 67, 60
1, 53150, Note_off_c, 0, 70, 64
1, 53167, Control_c, 0, 64, 41
1, 53182, Control_c, 0, 64, 59
1, 53195, Note_off_c, 0, 67, 60
1, 53197, Control_c, 0, 64, 66
1, 53202, Note_on_c, 0, 69, 82
1, 53212, Control_c, 0, 64, 76
1, 53227, Control_c, 0, 64, 101
1, 53242, Control_c, 0, 64, 127
1, 53273, Note_on_c, 0, 64, 84
1, 53329, Note_on_c, 0, 68, 81
1, 53331, Note_off_c, 0, 64, 56
1, 53332, Note_off_c, 0, 69, 59
1, 53391, Note_on_c, 0, 64, 61
1, 53394, Note_off_c, 0, 40, 33
1, 53407, Note_off_c, 0, 68, 61
1, 53450, Note_on_c, 0, 67, 78
1, 53455, Note_off_c, 0, 64, 63
1, 53456, Control_c, 0, 64, 121
1, 53462, Note_on_c, 0, 48, 85
1, 53469, Note_off_c, 0, 47, 63
1, 53471, Control_c, 0, 64, 79
1, 53476, Note_on_c, 0, 40, 69
1, 53486, Control_c, 0, 64, 64
1, 53501, Control_c, 0, 64, 43
1, 53515, Control_c, 0, 64, 22
1, 53522, Note_on_c, 0, 60, 62
1, 53530, Control_c, 0, 64, 23
1, 53536, Note_off_c, 0, 67, 54
1, 53545, Control_c, 0, 64, 41
1, 53559, Control_c, 0, 64, 59
1, 53566, Note_off_c, 0, 60, 60
1, 53573, Note_on_c, 0, 66, 75
1, 53574, Control_c, 0, 64, 66
1, 53589, Control_c, 0, 64, 76
1, 53604, Control_c, 0, 64, 104
1, 53619, Control_c, 0, 64, 127
1, 53638, Note_off_c, 0, 66, 61
1, 53640, Note_on_c, 0, 60, 63
1, 53678, Note_off_c, 0, 60, 59
1, 53704, Note_on_c, 0, 65, 68
1, 53709, Note_off_c, 0, 40, 56
1, 53731, Note_off_c, 0, 65, 66
1, 53778, Note_on_c, 0, 55, 62
1, 53797, Control_c, 0, 64, 113
1, 53802, Note_off_c, 0, 48, 40
1, 53810, Note_on_c, 0, 47, 70
1, 53812, Control_c, 0, 64, 81
1, 53818, Note_on_c, 0, 64, 63
1, 53826, Control_c, 0, 64, 66
1, 53829, Note_on_c, 0, 40, 58
1, 53834, Note_off_c, 0, 55, 48
1, 53841, Control_c, 0, 64, 52
1, 53856, Control_c, 0, 64, 44
1, 53880, Note_on_c, 0, 59, 67
1, 53885, Poly_aftertouch_c, 0, 57, 0
1, 53885, Control_c, 0, 64, 47
1, 53900, Control_c, 0, 64, 56
1, 53904, Note_off_c, 0, 64, 57
1, 53915, Control_c, 0, 64, 63
1, 53920, Note_off_c, 0, 47, 59
1, 53930, Control_c, 0, 64, 69
1, 53941, Note_on_c, 0, 63, 67
1, 53945, Control_c, 0, 64, 80
1, 53959, Control_c, 0, 64, 105
1, 53960, Note_off_c, 0, 40, 60
1, 53967, Note_off_c, 0, 59, 60
1, 53974, Control_c, 0, 64, 127
1, 53990, Note_on_c, 0, 55, 62
1, 54002, Note_off_c, 0, 63, 61
1, 54047, Note_on_c, 0, 62, 73
1, 54062, Note_off_c, 0, 55, 55
1, 54111, Note_on_c, 0, 59, 66
1, 54150, Note_off_c, 0, 62, 60
1, 54176, Control_c, 0, 64, 112
1, 54183, Note_on_c, 0, 28, 75
1, 54185, Note_on_c, 0, 61, 74
1, 54190, Control_c, 0, 64, 87
1, 54193, Note_on_c, 0, 29, 59
1, 54193, Note_off_c, 0, 59, 60
1, 54205, Control_c, 0, 64, 73
1, 54220, Control_c, 0, 64, 65
1, 54235, Control_c, 0, 64, 61
1, 54241, Note_off_c, 0, 61, 59
1, 54241, Note_on_c, 0, 55, 61
1, 54250, Control_c, 0, 64, 59
1, 54265, Control_c, 0, 64, 59
1, 54280, Control_c, 0, 64, 59
1, 54294, Control_c, 0, 64, 62
1, 54298, Note_off_c, 0, 55, 47
1, 54299, Note_on_c, 0, 60, 83
1, 54309, Note_off_c, 0, 29, 47
1, 54309, Control_c, 0, 64, 67
1, 54324, Control_c, 0, 64, 76
1, 54339, Control_c, 0, 64, 99
1, 54354, Control_c, 0, 64, 127
1, 54367, Note_on_c, 0, 55, 76
1, 54420, Note_on_c, 0, 59, 79
1, 54434, Note_off_c, 0, 55, 63
1, 54449, Note_off_c, 0, 60, 61
1, 54470, Note_on_c, 0, 52, 74
1, 54530, Note_on_c, 0, 35, 90
1, 54539, Note_on_c, 0, 58, 81
1, 54546, Control_c, 0, 64, 92
1, 54554, Note_off_c, 0, 52, 64
1, 54557, Note_off_c, 0, 59, 61
1, 54561, Control_c, 0, 64, 69
1, 54576, Control_c, 0, 64, 55
1, 54590, Control_c, 0, 64, 46
1, 54605, Control_c, 0, 64, 46
1, 54614, Note_on_c, 0, 55, 74
1, 54619, Note_off_c, 0, 58, 62
1, 54620, Control_c, 0, 64, 47
1, 54635, Control_c, 0, 64, 55
1, 54650, Control_c, 0, 64, 65
1, 54664, Control_c, 0, 64, 76
1, 54669, Note_on_c, 0, 57, 85
1, 54679, Control_c, 0, 64, 127
1, 54685, Note_off_c, 0, 55, 59
1, 54709, Note_on_c, 0, 47, 55
1, 54775, Note_on_c, 0, 56, 82
1, 54786, Note_off_c, 0, 47, 60
1, 54807, Note_off_c, 0, 57, 63
1, 54834, Note_on_c, 0, 52, 81
1, 54849, Note_off_c, 0, 56, 64
1, 54900, Note_on_c, 0, 55, 87
1, 54911, Note_off_c, 0, 28, 60
1, 54920, Note_off_c, 0, 52, 66
1, 54954, Note_on_c, 0, 47, 76
1, 55010, Note_on_c, 0, 54, 86
1, 55025, Note_off_c, 0, 47, 60
1, 55029, Note_off_c, 0, 55, 51
1, 55064, Note_on_c, 0, 52, 79
1, 55118, Note_on_c, 0, 55, 85
1, 55134, Note_off_c, 0, 54, 62
1, 55141, Note_off_c, 0, 52, 64
1, 55155, Note_on_c, 0, 47, 73
1, 55195, Note_off_c, 0, 55, 64
1, 55201, Note_off_c, 0, 35, 31
1, 55206, Control_c, 0, 64, 103
1, 55211, Note_off_c, 0, 47, 60
1, 55221, Control_c, 0, 64, 67
1, 55225, Note_on_c, 0, 27, 89
1, 55236, Control_c, 0, 64, 0
1, 55238, Note_on_c, 0, 59, 81
1, 55305, Note_on_c, 0, 54, 81
1, 55325, Control_c, 0, 64, 67
1, 55327, Note_off_c, 0, 59, 64
1, 55339, Control_c, 0, 64, 127
1, 55356, Note_off_c, 0, 27, 62
1, 55376, Note_on_c, 0, 57, 69
1, 55391, Note_off_c, 0, 54, 64
1, 55405, Note_off_c, 0, 57, 68
1, 55454, Note_on_c, 0, 60, 83
1, 55495, Note_off_c, 0, 60, 64
1, 55508, Note_on_c, 0, 69, 74
1, 55511, Note_on_c, 0, 71, 82
1, 55572, Note_on_c, 0, 65, 79
1, 55585, Note_on_c, 0, 68, 38
1, 55594, Note_off_c, 0, 71, 44
1, 55595, Note_off_c, 0, 69, 63
1, 55644, Note_on_c, 0, 51, 100
1, 55645, Note_on_c, 0, 60, 104
1, 55656, Note_on_c, 0, 69, 66
1, 55659, Note_off_c, 0, 68, 0
1, 55660, Note_off_c, 0, 65, 59
1, 55675, Note_on_c, 0, 68, 28
1, 55691, Note_off_c, 0, 69, 67
1, 55696, Note_off_c, 0, 60, 60
1, 55713, Note_off_c, 0, 51, 61
1, 55713, Note_off_c, 0, 68, 52
1, 55739, Note_on_c, 0, 72, 88
1, 55798, Note_on_c, 0, 83, 93
1, 55802, Note_off_c, 0, 72, 56
1, 55856, Note_on_c, 0, 78, 92
1, 55886, Note_off_c, 0, 83, 52
1, 55919, Note_on_c, 0, 81, 82
1, 55945, Note_off_c, 0, 78, 65
1, 55955, Note_on_c, 0, 51, 94
1, 55955, Control_c, 0, 64, 103
1, 55958, Note_on_c, 0, 60, 93
1, 55970, Control_c, 0, 64, 72
1, 55977, Note_off_c, 0, 60, 68
1, 55982, Note_off_c, 0, 51, 70
1, 55982, Note_on_c, 0, 72, 79
1, 55985, Control_c, 0, 64, 0
1, 55989, Note_off_c, 0, 81, 65
1, 56031, Note_on_c, 0, 52, 97
1, 56032, Note_on_c, 0, 60, 98
1, 56037, Note_off_c, 0, 72, 64
1, 56055, Note_on_c, 0, 81, 87
1, 56063, Note_off_c, 0, 60, 68
1, 56070, Note_off_c, 0, 52, 68
1, 56074, Control_c, 0, 64, 56
1, 56089, Control_c, 0, 64, 75
1, 56103, Control_c, 0, 64, 127
1, 56110, Note_on_c, 0, 76, 85
1, 56119, Note_off_c, 0, 81, 65
1, 56170, Note_on_c, 0, 79, 85
1, 56184, Note_off_c, 0, 76, 65
1, 56215, Note_off_c, 0, 79, 67
1, 56220, Note_on_c, 0, 72, 80
1, 56236, Control_c, 0, 64, 92
1, 56247, Note_off_c, 0, 72, 67
1, 56251, Control_c, 0, 64, 71
1, 56266, Control_c, 0, 64, 62
1, 56280, Control_c, 0, 64, 48
1, 56289, Note_on_c, 0, 69, 92
1, 56295, Control_c, 0, 64, 0
1, 56350, Note_on_c, 0, 64, 76
1, 56369, Note_off_c, 0, 69, 60
1, 56411, Note_on_c, 0, 40, 95
1, 56413, Note_on_c, 0, 28, 95
1, 56414, Note_on_c, 0, 67, 82
1, 56431, Note_off_c, 0, 64, 64
1, 56453, Control_c, 0, 64, 34
1, 56461, Note_off_c, 0, 67, 62
1, 56467, Control_c, 0, 64, 75
1, 56470, Note_on_c, 0, 60, 76
1, 56482, Control_c, 0, 64, 127
1, 56497, Note_off_c, 0, 60, 67
1, 56543, Note_on_c, 0, 57, 86
1, 56591, Note_on_c, 0, 52, 77
1, 56591, Note_off_c, 0, 28, 60
1, 56596, Note_off_c, 0, 40, 61
1, 56629, Note_on_c, 0, 55, 78
1, 56655, Note_off_c, 0, 57, 59
1, 56659, Note_off_c, 0, 52, 65
1, 56680, Note_on_c, 0, 48, 79
1, 56706, Note_off_c, 0, 55, 63
1, 56733, Note_off_c, 0, 48, 60
1, 56748, Control_c, 0, 64, 94
1, 56750, Poly_aftertouch_c, 0, 34, 127
1, 56757, Note_on_c, 0, 59, 87
1, 56763, Note_on_c, 0, 39, 93
1, 56763, Control_c, 0, 64, 67
1, 56766, Note_on_c, 0, 27, 89
1, 56777, Poly_aftertouch_c, 0, 34, 0
1, 56778, Control_c, 0, 64, 19
1, 56792, Control_c, 0, 64, 0
1, 56813, Note_on_c, 0, 54, 82
1, 56830, Note_off_c, 0, 59, 63
1, 56835, Note_off_c, 0, 27, 61
1, 56852, Control_c, 0, 64, 52
1, 56855, Note_off_c, 0, 39, 58
1, 56867, Control_c, 0, 64, 68
1, 56873, Note_on_c, 0, 57, 72
1, 56882, Control_c, 0, 64, 98
1, 56891, Note_off_c, 0, 54, 64
1, 56897, Control_c, 0, 64, 127
1, 56903, Note_off_c, 0, 57, 67
1, 56946, Note_on_c, 0, 60, 77
1, 56985, Note_off_c, 0, 60, 64
1, 56996, Note_on_c, 0, 71, 91
1, 57048, Note_on_c, 0, 66, 84
1, 57080, Note_off_c, 0, 71, 62
1, 57088, Note_on_c, 0, 67, 61
1, 57089, Control_c, 0, 64, 116
1, 57111, Control_c, 0, 64, 77
1, 57126, Control_c, 0, 64, 55
1, 57130, Note_off_c, 0, 66, 57
1, 57136, Note_on_c, 0, 62, 101
1, 57137, Note_on_c, 0, 51, 108
1, 57138, Note_off_c, 0, 67, 60
1, 57140, Note_on_c, 0, 69, 78
1, 57141, Control_c, 0, 64, 0
1, 57177, Note_off_c, 0, 69, 66
1, 57216, Control_c, 0, 64, 54
1, 57231, Control_c, 0, 64, 69
1, 57231, Note_on_c, 0, 72, 82
1, 57242, Note_off_c, 0, 62, 61
1, 57246, Control_c, 0, 64, 84
1, 57253, Note_off_c, 0, 51, 64
1, 57260, Control_c, 0, 64, 127
1, 57303, Note_on_c, 0, 83, 91
1, 57319, Note_on_c, 0, 51, 102
1, 57319, Note_on_c, 0, 60, 96
1, 57320, Control_c, 0, 64, 107
1, 57329, Note_off_c, 0, 72, 47
1, 57335, Control_c, 0, 64, 87
1, 57350, Control_c, 0, 64, 72
1, 57364, Control_c, 0, 64, 62
1, 57376, Note_off_c, 0, 60, 62
1, 57379, Control_c, 0, 64, 45
1, 57383, Note_on_c, 0, 78, 82
1, 57394, Control_c, 0, 64, 0
1, 57395, Note_off_c, 0, 51, 63
1, 57399, Note_off_c, 0, 83, 60
1, 57448, Note_on_c, 0, 81, 77
1, 57469, Note_off_c, 0, 78, 63
1, 57492, Note_on_c, 0, 51, 92
1, 57492, Note_on_c, 0, 59, 91
1, 57514, Note_off_c, 0, 59, 70
1, 57515, Note_off_c, 0, 81, 65
1, 57520, Note_on_c, 0, 72, 74
1, 57522, Note_off_c, 0, 51, 62
1, 57570, Note_off_c, 0, 72, 58
1, 57573, Note_on_c, 0, 52, 87
1, 57574, Note_on_c, 0, 59, 93
1, 57583, Note_on_c, 0, 81, 83
1, 57586, Control_c, 0, 64, 45
1, 57594, Note_off_c, 0, 59, 69
1, 57598, Note_off_c, 0, 52, 69
1, 57601, Control_c, 0, 64, 71
1, 57615, Control_c, 0, 64, 98
1, 57630, Control_c, 0, 64, 127
1, 57646, Note_on_c, 0, 76, 74
1, 57647, Note_off_c, 0, 81, 65
1, 57697, Note_on_c, 0, 79, 77
1, 57723, Note_off_c, 0, 76, 64
1, 57743, Note_off_c, 0, 79, 68
1, 57757, Note_on_c, 0, 71, 79
1, 57783, Note_off_c, 0, 71, 68
1, 57794, Control_c, 0, 64, 110
1, 57808, Control_c, 0, 64, 82
1, 57820, Note_on_c, 0, 69, 87
1, 57823, Control_c, 0, 64, 68
1, 57838, Control_c, 0, 64, 54
1, 57860, Control_c, 0, 64, 27
1, 57875, Control_c, 0, 64, 0
1, 57889, Note_on_c, 0, 64, 83
1, 57904, Note_off_c, 0, 69, 62
1, 57945, Note_on_c, 0, 67, 76
1, 57946, Note_on_c, 0, 40, 90
1, 57946, Note_on_c, 0, 28, 91
1, 57960, Note_off_c, 0, 64, 64
1, 57988, Note_off_c, 0, 67, 63
1, 58006, Note_on_c, 0, 59, 72
1, 58009, Control_c, 0, 64, 30
1, 58024, Control_c, 0, 64, 62
1, 58033, Note_off_c, 0, 59, 67
1, 58038, Control_c, 0, 64, 76
1, 58053, Control_c, 0, 64, 127
1, 58079, Note_on_c, 0, 57, 82
1, 58107, Note_off_c, 0, 40, 61
1, 58155, Note_on_c, 0, 55, 82
1, 58156, Note_off_c, 0, 57, 63
1, 58182, Note_off_c, 0, 28, 51
1, 58192, Poly_aftertouch_c, 0, 52, 127
1, 58195, Note_off_c, 0, 55, 63
1, 58214, Poly_aftertouch_c, 0, 52, 0
1, 58244, Note_on_c, 0, 54, 70
1, 58274, Note_off_c, 0, 54, 66
1, 58275, Control_c, 0, 64, 84
1, 58286, Note_on_c, 0, 42, 76
1, 58289, Note_on_c, 0, 30, 67
1, 58290, Control_c, 0, 64, 65
1, 58304, Control_c, 0, 64, 0
1, 58307, Note_on_c, 0, 64, 68
1, 58368, Note_off_c, 0, 64, 64
1, 58375, Note_on_c, 0, 60, 49
1, 58378, Note_on_c, 0, 59, 59
1, 58399, Note_off_c, 0, 30, 62
1, 58409, Note_off_c, 0, 59, 65
1, 58419, Note_off_c, 0, 60, 66
1, 58423, Note_on_c, 0, 63, 77
1, 58423, Control_c, 0, 64, 56
1, 58426, Note_off_c, 0, 42, 64
1, 58438, Control_c, 0, 64, 84
1, 58447, Note_off_c, 0, 63, 69
1, 58453, Control_c, 0, 64, 127
1, 58492, Note_on_c, 0, 66, 70
1, 58519, Note_off_c, 0, 66, 67
1, 58544, Note_on_c, 0, 76, 76
1, 58575, Note_on_c, 0, 70, 77
1, 58609, Note_off_c, 0, 70, 66
1, 58613, Note_on_c, 0, 71, 74
1, 58617, Note_off_c, 0, 76, 56
1, 58645, Note_on_c, 0, 54, 68
1, 58647, Note_on_c, 0, 59, 80
1, 58654, Note_on_c, 0, 75, 88
1, 58660, Note_off_c, 0, 71, 65
1, 58691, Note_off_c, 0, 75, 60
1, 58744, Note_on_c, 0, 78, 74
1, 58760, Note_off_c, 0, 54, 37
1, 58766, Note_on_c, 0, 63, 88
1, 58769, Note_off_c, 0, 78, 54
1, 58774, Note_on_c, 0, 88, 80
1, 58781, Note_off_c, 0, 59, 55
1, 58833, Note_on_c, 0, 83, 56
1, 58837, Note_off_c, 0, 88, 65
1, 58851, Note_on_c, 0, 82, 58
1, 58870, Note_off_c, 0, 82, 64
1, 58875, Note_on_c, 0, 87, 91
1, 58879, Note_on_c, 0, 66, 70
1, 58888, Note_off_c, 0, 63, 57
1, 58890, Note_on_c, 0, 67, 78
1, 58896, Note_off_c, 0, 83, 64
1, 58912, Note_off_c, 0, 67, 70
1, 58931, Note_off_c, 0, 66, 61
1, 58935, Control_c, 0, 64, 108
1, 58942, Note_on_c, 0, 78, 87
1, 58950, Control_c, 0, 64, 94
1, 58953, Note_off_c, 0, 87, 62
1, 58965, Control_c, 0, 64, 79
1, 58979, Control_c, 0, 64, 64
1, 58994, Control_c, 0, 64, 0
1, 58998, Note_on_c, 0, 66, 92
1, 58999, Note_off_c, 0, 78, 61
1, 59004, Note_on_c, 0, 58, 47
1, 59007, Note_on_c, 0, 87, 81
1, 59008, Note_on_c, 0, 64, 76
1, 59011, Note_on_c, 0, 54, 77
1, 59045, Note_on_c, 0, 63, 38
1, 59060, Note_on_c, 0, 82, 74
1, 59068, Control_c, 0, 64, 49
1, 59073, Note_off_c, 0, 66, 64
1, 59076, Note_off_c, 0, 87, 63
1, 59078, Note_off_c, 0, 63, 33
1, 59083, Control_c, 0, 64, 67
1, 59087, Note_off_c, 0, 64, 62
1, 59098, Control_c, 0, 64, 85
1, 59113, Note_off_c, 0, 58, 63
1, 59113, Control_c, 0, 64, 127
1, 59120, Note_on_c, 0, 85, 83
1, 59123, Note_off_c, 0, 54, 64
1, 59135, Note_off_c, 0, 82, 65
1, 59156, Note_off_c, 0, 85, 66
1, 59189, Note_on_c, 0, 78, 73
1, 59190, Note_on_c, 0, 80, 40
1, 59216, Note_off_c, 0, 78, 68
1, 59217, Note_off_c, 0, 80, 37
1, 59251, Note_on_c, 0, 75, 81
1, 59290, Note_on_c, 0, 70, 77
1, 59313, Note_off_c, 0, 75, 62
1, 59341, Note_on_c, 0, 30, 90
1, 59342, Note_on_c, 0, 42, 99
1, 59368, Note_on_c, 0, 73, 84
1, 59374, Note_off_c, 0, 70, 65
1, 59375, Note_off_c, 0, 42, 68
1, 59378, Note_off_c, 0, 30, 69
1, 59417, Note_off_c, 0, 73, 64
1, 59426, Note_on_c, 0, 66, 83
1, 59445, Note_off_c, 0, 66, 72
1, 59500, Note_on_c, 0, 63, 86
1, 59558, Note_on_c, 0, 58, 81
1, 59589, Note_on_c, 0, 61, 80
1, 59592, Note_off_c, 0, 63, 61
1, 59609, Note_off_c, 0, 58, 64
1, 59630, Note_on_c, 0, 54, 88
1, 59650, Note_off_c, 0, 61, 60
1, 59669, Control_c, 0, 64, 107
1, 59670, Note_off_c, 0, 54, 67
1, 59684, Control_c, 0, 64, 67
1, 59699, Control_c, 0, 64, 0
1, 59708, Note_on_c, 0, 35, 87
1, 59709, Note_on_c, 0, 47, 94
1, 59717, Note_on_c, 0, 64, 86
1, 59759, Note_on_c, 0, 59, 81
1, 59778, Note_off_c, 0, 35, 60
1, 59779, Note_off_c, 0, 64, 65
1, 59788, Control_c, 0, 64, 45
1, 59802, Control_c, 0, 64, 78
1, 59808, Note_off_c, 0, 47, 62
1, 59817, Control_c, 0, 64, 127
1, 59833, Note_on_c, 0, 63, 89
1, 59833, Note_off_c, 0, 59, 66
1, 59852, Note_off_c, 0, 63, 71
1, 59899, Note_on_c, 0, 66, 87
1, 59938, Note_off_c, 0, 66, 63
1, 59943, Note_on_c, 0, 76, 84
1, 60004, Note_on_c, 0, 71, 84
1, 60020, Note_off_c, 0, 76, 61
1, 60061, Note_on_c, 0, 75, 92
1, 60062, Note_on_c, 0, 63, 97
1, 60063, Note_off_c, 0, 71, 67
1, 60069, Note_on_c, 0, 54, 81
1, 60083, Note_off_c, 0, 75, 67
1, 60087, Note_on_c, 0, 56, 52
1, 60101, Note_off_c, 0, 54, 70
1, 60111, Note_off_c, 0, 63, 65
1, 60114, Note_on_c, 0, 55, 55
1, 60121, Note_off_c, 0, 56, 58
1, 60138, Note_off_c, 0, 55, 57
1, 60141, Note_on_c, 0, 78, 87
1, 60179, Note_off_c, 0, 78, 63
1, 60186, Note_on_c, 0, 62, 97
1, 60187, Note_on_c, 0, 88, 84
1, 60188, Note_on_c, 0, 53, 93
1, 60225, Note_off_c, 0, 62, 66
1, 60232, Note_off_c, 0, 53, 63
1, 60233, Note_on_c, 0, 82, 82
1, 60253, Note_off_c, 0, 88, 64
1, 60278, Note_on_c, 0, 54, 69
1, 60283, Note_off_c, 0, 82, 68
1, 60286, Note_on_c, 0, 63, 86
1, 60295, Note_on_c, 0, 87, 94
1, 60304, Note_off_c, 0, 63, 69
1, 60322, Note_on_c, 0, 83, 19
1, 60333, Note_on_c, 0, 56, 11
1, 60334, Note_off_c, 0, 54, 65
1, 60350, Note_on_c, 0, 78, 88
1, 60361, Note_off_c, 0, 83, 54
1, 60382, Note_off_c, 0, 87, 65
1, 60384, Note_off_c, 0, 78, 62
1, 60394, Note_off_c, 0, 56, 50
1, 60447, Control_c, 0, 64, 84
1, 60454, Note_on_c, 0, 59, 84
1, 60455, Note_on_c, 0, 51, 76
1, 60457, Note_on_c, 0, 47, 78
1, 60459, Note_on_c, 0, 95, 116
1, 60462, Control_c, 0, 64, 66
1, 60477, Control_c, 0, 64, 46
1, 60492, Control_c, 0, 64, 0
1, 60869, Note_off_c, 0, 59, 59
1, 60896, Note_off_c, 0, 51, 62
1, 60915, Note_off_c, 0, 47, 59
1, 60939, Note_off_c, 0, 95, 61
1, 61285, Control_c, 0, 64, 31
1, 61294, Note_on_c, 0, 40, 95
1, 61300, Control_c, 0, 64, 127
1, 61301, Note_on_c, 0, 96, 110
1, 61335, Note_off_c, 0, 40, 66
1, 61374, Note_on_c, 0, 91, 90
1, 61434, Note_on_c, 0, 95, 83
1, 61472, Note_off_c, 0, 91, 62
1, 61477, Note_on_c, 0, 88, 74
1, 61525, Note_on_c, 0, 94, 84
1, 61544, Note_off_c, 0, 96, 64
1, 61550, Note_off_c, 0, 95, 64
1, 61591, Note_on_c, 0, 91, 81
1, 61619, Note_off_c, 0, 94, 64
1, 61636, Note_off_c, 0, 88, 61
1, 61637, Note_off_c, 0, 91, 66
1, 61669, Note_on_c, 0, 55, 96
1, 61669, Note_on_c, 0, 59, 99
1, 61669, Note_on_c, 0, 93, 93
1, 61672, Note_on_c, 0, 52, 87
1, 61701, Note_off_c, 0, 59, 68
1, 61704, Note_off_c, 0, 52, 64
1, 61706, Note_off_c, 0, 55, 64
1, 61734, Note_on_c, 0, 88, 83
1, 61777, Note_off_c, 0, 88, 68
1, 61783, Note_on_c, 0, 92, 82
1, 61813, Note_off_c, 0, 93, 66
1, 61843, Note_on_c, 0, 88, 81
1, 61857, Note_off_c, 0, 92, 65
1, 61897, Note_on_c, 0, 91, 87
1, 61913, Note_off_c, 0, 88, 64
1, 61939, Note_on_c, 0, 59, 90
1, 61940, Note_on_c, 0, 55, 83
1, 61949, Note_on_c, 0, 52, 73
1, 61963, Note_on_c, 0, 83, 78
1, 61967, Note_off_c, 0, 59, 62
1, 61971, Note_off_c, 0, 52, 71
1, 61971, Note_off_c, 0, 55, 66
1, 61978, Note_off_c, 0, 91, 63
1, 62004, Control_c, 0, 64, 88
1, 62019, Control_c, 0, 64, 68
1, 62024, Note_on_c, 0, 59, 97
1, 62024, Note_on_c, 0, 90, 93
1, 62026, Note_on_c, 0, 52, 86
1, 62033, Note_on_c, 0, 55, 80
1, 62034, Note_off_c, 0, 83, 63
1, 62034, Control_c, 0, 64, 45
1, 62049, Control_c, 0, 64, 0
1, 62078, Control_c, 0, 64, 43
1, 62093, Note_on_c, 0, 83, 73
1, 62093, Control_c, 0, 64, 62
1, 62104, Note_off_c, 0, 90, 64
1, 62108, Control_c, 0, 64, 71
1, 62123, Control_c, 0, 64, 110
1, 62131, Note_off_c, 0, 83, 63
1, 62138, Control_c, 0, 64, 127
1, 62158, Note_on_c, 0, 89, 83
1, 62203, Note_off_c, 0, 52, 53
1, 62204, Note_on_c, 0, 79, 83
1, 62212, Note_off_c, 0, 89, 58
1, 62228, Note_off_c, 0, 55, 60
1, 62257, Note_off_c, 0, 79, 60
1, 62265, Note_on_c, 0, 88, 78
1, 62312, Note_on_c, 0, 83, 82
1, 62358, Note_off_c, 0, 88, 59
1, 62367, Control_c, 0, 64, 108
1, 62382, Control_c, 0, 64, 83
1, 62384, Note_on_c, 0, 60, 96
1, 62385, Note_on_c, 0, 87, 89
1, 62391, Note_on_c, 0, 55, 78
1, 62397, Note_on_c, 0, 52, 81
1, 62398, Control_c, 0, 64, 67
1, 62406, Note_off_c, 0, 59, 61
1, 62407, Note_off_c, 0, 83, 65
1, 62412, Control_c, 0, 64, 46
1, 62427, Control_c, 0, 64, 0
1, 62444, Note_on_c, 0, 79, 68
1, 62453, Note_off_c, 0, 87, 63
1, 62457, Control_c, 0, 64, 22
1, 62472, Control_c, 0, 64, 54
1, 62486, Control_c, 0, 64, 65
1, 62501, Control_c, 0, 64, 75
1, 62503, Note_on_c, 0, 86, 84
1, 62516, Note_off_c, 0, 79, 66
1, 62516, Control_c, 0, 64, 102
1, 62531, Control_c, 0, 64, 127
1, 62566, Note_on_c, 0, 79, 73
1, 62571, Note_off_c, 0, 86, 65
1, 62595, Note_off_c, 0, 52, 53
1, 62601, Note_off_c, 0, 55, 56
1, 62626, Note_on_c, 0, 85, 83
1, 62646, Note_off_c, 0, 79, 65
1, 62660, Note_on_c, 0, 76, 77
1, 62696, Note_off_c, 0, 85, 65
1, 62727, Note_on_c, 0, 59, 97
1, 62731, Note_on_c, 0, 55, 86
1, 62732, Note_on_c, 0, 52, 80
1, 62738, Note_on_c, 0, 84, 88
1, 62738, Control_c, 0, 64, 107
1, 62742, Note_off_c, 0, 60, 64
1, 62742, Note_off_c, 0, 76, 60
1, 62753, Control_c, 0, 64, 80
1, 62768, Control_c, 0, 64, 65
1, 62783, Control_c, 0, 64, 38
1, 62799, Control_c, 0, 64, 0
1, 62808, Note_on_c, 0, 79, 78
1, 62828, Control_c, 0, 64, 39
1, 62843, Control_c, 0, 64, 59
1, 62858, Control_c, 0, 64, 67
1, 62868, Note_on_c, 0, 83, 84
1, 62873, Control_c, 0, 64, 85
1, 62874, Note_off_c, 0, 52, 61
1, 62875, Note_off_c, 0, 79, 65
1, 62879, Note_off_c, 0, 55, 60
1, 62888, Control_c, 0, 64, 127
1, 62901, Note_off_c, 0, 84, 58
1, 62909, Note_on_c, 0, 76, 73
1, 62960, Note_on_c, 0, 82, 88
1, 62986, Note_off_c, 0, 83, 64
1, 63004, Note_off_c, 0, 59, 60
1, 63031, Note_on_c, 0, 79, 76
1, 63043, Note_off_c, 0, 82, 67
1, 63073, Note_on_c, 0, 55, 92
1, 63076, Note_on_c, 0, 52, 78
1, 63078, Note_on_c, 0, 47, 79
1, 63099, Note_off_c, 0, 79, 59
1, 63100, Note_on_c, 0, 81, 82
1, 63100, Note_off_c, 0, 76, 61
1, 63102, Control_c, 0, 64, 114
1, 63117, Control_c, 0, 64, 83
1, 63132, Control_c, 0, 64, 67
1, 63147, Control_c, 0, 64, 53
1, 63162, Control_c, 0, 64, 13
1, 63164, Note_on_c, 0, 76, 77
1, 63176, Control_c, 0, 64, 0
1, 63191, Control_c, 0, 64, 26
1, 63206, Control_c, 0, 64, 52
1, 63218, Note_off_c, 0, 76, 64
1, 63219, Note_on_c, 0, 80, 81
1, 63221, Control_c, 0, 64, 63
1, 63235, Control_c, 0, 64, 70
1, 63241, Note_off_c, 0, 81, 64
1, 63245, Note_off_c, 0, 52, 61
1, 63250, Control_c, 0, 64, 92
1, 63265, Control_c, 0, 64, 127
1, 63279, Note_on_c, 0, 76, 78
1, 63288, Note_off_c, 0, 55, 61
1, 63290, Note_off_c, 0, 80, 64
1, 63328, Note_on_c, 0, 79, 82
1, 63345, Note_off_c, 0, 76, 64
1, 63389, Note_on_c, 0, 71, 74
1, 63422, Note_on_c, 0, 59, 93
1, 63425, Note_on_c, 0, 55, 85
1, 63428, Control_c, 0, 64, 81
1, 63428, Note_on_c, 0, 52, 77
1, 63430, Note_off_c, 0, 47, 60
1, 63443, Control_c, 0, 64, 64
1, 63449, Note_on_c, 0, 78, 87
1, 63458, Note_off_c, 0, 71, 61
1, 63458, Control_c, 0, 64, 30
1, 63464, Note_off_c, 0, 79, 54
1, 63473, Control_c, 0, 64, 0
1, 63517, Control_c, 0, 64, 45
1, 63521, Note_off_c, 0, 78, 63
1, 63525, Note_on_c, 0, 71, 52
1, 63532, Control_c, 0, 64, 63
1, 63546, Control_c, 0, 64, 71
1, 63547, Note_off_c, 0, 71, 62
1, 63561, Control_c, 0, 64, 89
1, 63574, Note_on_c, 0, 77, 84
1, 63576, Control_c, 0, 64, 127
1, 63586, Note_off_c, 0, 59, 59
1, 63621, Note_off_c, 0, 52, 60
1, 63624, Note_off_c, 0, 77, 61
1, 63627, Note_off_c, 0, 55, 60
1, 63640, Note_on_c, 0, 67, 67
1, 63681, Note_on_c, 0, 76, 81
1, 63708, Note_off_c, 0, 67, 58
1, 63738, Note_on_c, 0, 71, 67
1, 63797, Note_on_c, 0, 75, 85
1, 63800, Note_off_c, 0, 76, 61
1, 63813, Note_off_c, 0, 71, 64
1, 63854, Note_on_c, 0, 67, 64
1, 63863, Note_off_c, 0, 75, 62
1, 63919, Note_on_c, 0, 74, 81
1, 63932, Note_off_c, 0, 67, 63
1, 63979, Note_on_c, 0, 67, 60
1, 64038, Note_on_c, 0, 73, 77
1, 64038, Note_off_c, 0, 74, 50
1, 64060, Note_off_c, 0, 67, 61
1, 64087, Note_on_c, 0, 64, 64
1, 64117, Note_off_c, 0, 73, 62
1, 64117, Control_c, 0, 64, 105
1, 64131, Control_c, 0, 64, 80
1, 64146, Control_c, 0, 64, 65
1, 64161, Note_on_c, 0, 31, 85
1, 64161, Control_c, 0, 64, 38
1, 64173, Note_off_c, 0, 64, 61
1, 64174, Note_on_c, 0, 72, 74
1, 64176, Control_c, 0, 64, 0
1, 64221, Control_c, 0, 64, 51
1, 64225, Note_off_c, 0, 31, 62
1, 64236, Control_c, 0, 64, 63
1, 64245, Note_on_c, 0, 67, 66
1, 64250, Control_c, 0, 64, 71
1, 64265, Control_c, 0, 64, 92
1, 64280, Control_c, 0, 64, 127
1, 64304, Note_off_c, 0, 72, 57
1, 64313, Note_on_c, 0, 71, 71
1, 64318, Note_off_c, 0, 67, 64
1, 64370, Note_on_c, 0, 65, 65
1, 64433, Note_on_c, 0, 70, 75
1, 64462, Note_off_c, 0, 65, 61
1, 64463, Note_off_c, 0, 71, 60
1, 64507, Note_on_c, 0, 67, 71
1, 64526, Note_off_c, 0, 70, 61
1, 64549, Note_on_c, 0, 47, 83
1, 64561, Note_on_c, 0, 38, 65
1, 64562, Control_c, 0, 64, 100
1, 64577, Control_c, 0, 64, 76
1, 64596, Note_on_c, 0, 69, 73
1, 64598, Note_off_c, 0, 67, 64
1, 64599, Control_c, 0, 64, 63
1, 64614, Control_c, 0, 64, 45
1, 64629, Control_c, 0, 64, 39
1, 64644, Control_c, 0, 64, 49
1, 64654, Note_on_c, 0, 62, 61
1, 64659, Control_c, 0, 64, 58
1, 64666, Note_off_c, 0, 47, 59
1, 64673, Control_c, 0, 64, 64
1, 64688, Control_c, 0, 64, 71
1, 64703, Control_c, 0, 64, 83
1, 64712, Note_off_c, 0, 69, 57
1, 64714, Note_on_c, 0, 68, 75
1, 64718, Control_c, 0, 64, 115
1, 64733, Control_c, 0, 64, 127
1, 64743, Note_off_c, 0, 62, 59
1, 64784, Note_on_c, 0, 65, 71
1, 64796, Note_off_c, 0, 68, 61
1, 64850, Note_on_c, 0, 67, 77
1, 64856, Note_off_c, 0, 65, 62
1, 64887, Note_on_c, 0, 47, 80
1, 64910, Note_on_c, 0, 59, 60
1, 64920, Note_off_c, 0, 47, 66
1, 64954, Control_c, 0, 64, 99
1, 64969, Control_c, 0, 64, 79
1, 64977, Note_on_c, 0, 47, 80
1, 64984, Control_c, 0, 64, 66
1, 64987, Note_on_c, 0, 66, 73
1, 64987, Note_off_c, 0, 67, 62
1, 64996, Note_off_c, 0, 59, 63
1, 64999, Control_c, 0, 64, 56
1, 65014, Control_c, 0, 64, 46
1, 65044, Control_c, 0, 64, 51
1, 65056, Note_on_c, 0, 62, 68
1, 65058, Note_off_c, 0, 66, 62
1, 65059, Control_c, 0, 64, 59
1, 65073, Control_c, 0, 64, 65
1, 65088, Control_c, 0, 64, 72
1, 65103, Control_c, 0, 64, 91
1, 65115, Note_on_c, 0, 65, 77
1, 65117, Note_off_c, 0, 62, 64
1, 65118, Control_c, 0, 64, 127
1, 65163, Note_off_c, 0, 65, 61
1, 65163, Note_on_c, 0, 55, 66
1, 65221, Note_off_c, 0, 55, 62
1, 65226, Note_on_c, 0, 64, 77
1, 65282, Note_on_c, 0, 59, 68
1, 65336, Note_off_c, 0, 64, 49
1, 65348, Control_c, 0, 64, 109
1, 65354, Note_on_c, 0, 48, 81
1, 65356, Note_off_c, 0, 47, 61
1, 65361, Note_on_c, 0, 63, 71
1, 65363, Control_c, 0, 64, 85
1, 65370, Note_off_c, 0, 59, 63
1, 65377, Control_c, 0, 64, 70
1, 65392, Control_c, 0, 64, 59
1, 65407, Control_c, 0, 64, 49
1, 65408, Note_on_c, 0, 54, 61
1, 65422, Control_c, 0, 64, 46
1, 65434, Note_off_c, 0, 63, 61
1, 65449, Note_off_c, 0, 54, 66
1, 65452, Control_c, 0, 64, 51
1, 65467, Control_c, 0, 64, 60
1, 65476, Note_on_c, 0, 62, 68
1, 65482, Control_c, 0, 64, 68
1, 65496, Control_c, 0, 64, 77
1, 65511, Control_c, 0, 64, 98
1, 65524, Note_on_c, 0, 55, 67
1, 65526, Control_c, 0, 64, 127
1, 65574, Note_on_c, 0, 61, 72
1, 65575, Note_off_c, 0, 62, 57
1, 65603, Note_off_c, 0, 55, 60
1, 65641, Note_off_c, 0, 48, 55
1, 65647, Note_on_c, 0, 53, 61
1, 65661, Note_off_c, 0, 61, 60
1, 65674, Control_c, 0, 64, 117
1, 65688, Control_c, 0, 64, 88
1, 65703, Note_off_c, 0, 53, 59
1, 65703, Control_c, 0, 64, 73
1, 65705, Note_on_c, 0, 47, 68
1, 65705, Note_on_c, 0, 60, 65
1, 65718, Control_c, 0, 64, 64
1, 65733, Control_c, 0, 64, 57
1, 65748, Control_c, 0, 64, 53
1, 65763, Control_c, 0, 64, 52
1, 65777, Note_on_c, 0, 55, 57
1, 65777, Control_c, 0, 64, 52
1, 65792, Control_c, 0, 64, 55
1, 65807, Control_c, 0, 64, 61
1, 65813, Note_off_c, 0, 60, 59
1, 65822, Control_c, 0, 64, 67
1, 65823, Note_off_c, 0, 47, 60
1, 65831, Note_on_c, 0, 59, 62
1, 65832, Note_off_c, 0, 55, 61
1, 65837, Control_c, 0, 64, 75
1, 65851, Control_c, 0, 64, 97
1, 65866, Control_c, 0, 64, 127
1, 65888, Note_off_c, 0, 38, 55
1, 65891, Note_on_c, 0, 53, 61
1, 65932, Note_off_c, 0, 59, 60
1, 65939, Note_on_c, 0, 58, 69
1, 65949, Note_off_c, 0, 53, 58
1, 66003, Note_on_c, 0, 55, 60
1, 66015, Note_off_c, 0, 58, 61
1, 66045, Control_c, 0, 64, 118
1, 66057, Note_on_c, 0, 31, 73
1, 66060, Control_c, 0, 64, 94
1, 66074, Note_off_c, 0, 55, 63
1, 66075, Control_c, 0, 64, 79
1, 66078, Note_on_c, 0, 57, 71
1, 66097, Control_c, 0, 64, 68
1, 66112, Control_c, 0, 64, 61
1, 66126, Control_c, 0, 64, 57
1, 66137, Note_on_c, 0, 50, 53
1, 66142, Control_c, 0, 64, 56
1, 66172, Control_c, 0, 64, 57
1, 66187, Control_c, 0, 64, 61
1, 66188, Note_off_c, 0, 57, 61
1, 66194, Note_on_c, 0, 56, 67
1, 66201, Control_c, 0, 64, 66
1, 66215, Note_off_c, 0, 50, 57
1, 66216, Control_c, 0, 64, 73
1, 66231, Control_c, 0, 64, 93
1, 66245, Control_c, 0, 64, 127
1, 66263, Note_off_c, 0, 56, 63
1, 66270, Note_on_c, 0, 53, 63
1, 66320, Note_on_c, 0, 55, 68
1, 66334, Note_off_c, 0, 53, 58
1, 66381, Note_on_c, 0, 47, 54
1, 66409, Control_c, 0, 64, 108
1, 66424, Control_c, 0, 64, 86
1, 66429, Note_off_c, 0, 55, 62
1, 66438, Control_c, 0, 64, 72
1, 66442, Note_on_c, 0, 54, 65
1, 66453, Note_on_c, 0, 38, 69
1, 66453, Control_c, 0, 64, 65
1, 66455, Note_off_c, 0, 47, 53
1, 66468, Control_c, 0, 64, 61
1, 66483, Control_c, 0, 64, 59
1, 66498, Control_c, 0, 64, 59
1, 66504, Note_on_c, 0, 53, 64
1, 66504, Note_off_c, 0, 54, 62
1, 66512, Control_c, 0, 64, 59
1, 66527, Control_c, 0, 64, 61
1, 66542, Control_c, 0, 64, 64
1, 66557, Control_c, 0, 64, 70
1, 66571, Note_on_c, 0, 55, 71
1, 66571, Control_c, 0, 64, 83
1, 66582, Note_off_c, 0, 53, 63
1, 66586, Control_c, 0, 64, 127
1, 66624, Note_on_c, 0, 47, 60
1, 66650, Note_off_c, 0, 55, 55
1, 66677, Note_off_c, 0, 47, 60
1, 66686, Note_on_c, 0, 56, 83
1, 66734, Note_on_c, 0, 54, 74
1, 66755, Note_off_c, 0, 54, 65
1, 66755, Note_on_c, 0, 53, 82
1, 66764, Note_off_c, 0, 56, 52
1, 66802, Note_on_c, 0, 57, 80
1, 66805, Note_off_c, 0, 31, 51
1, 66820, Note_off_c, 0, 53, 62
1, 66857, Note_on_c, 0, 50, 74
1, 66878, Note_off_c, 0, 57, 63
1, 66916, Note_off_c, 0, 50, 59
1, 66922, Note_on_c, 0, 58, 84
1, 66973, Note_on_c, 0, 55, 80
1, 67024, Note_off_c, 0, 58, 60
1, 67030, Note_on_c, 0, 59, 72
1, 67050, Note_off_c, 0, 55, 62
1, 67068, Control_c, 0, 64, 110
1, 67083, Note_on_c, 0, 53, 74
1, 67083, Control_c, 0, 64, 79
1, 67094, Note_off_c, 0, 59, 63
1, 67098, Control_c, 0, 64, 59
1, 67113, Control_c, 0, 64, 0
1, 67115, Note_off_c, 0, 38, 48
1, 67132, Note_on_c, 0, 31, 72
1, 67133, Note_off_c, 0, 53, 60
1, 67136, Note_on_c, 0, 29, 80
1, 67157, Note_on_c, 0, 64, 78
1, 67172, Note_off_c, 0, 29, 65
1, 67202, Control_c, 0, 64, 55
1, 67211, Note_on_c, 0, 59, 80
1, 67217, Control_c, 0, 64, 93
1, 67217, Note_off_c, 0, 64, 64
1, 67218, Note_off_c, 0, 31, 63
1, 67232, Control_c, 0, 64, 127
1, 67285, Note_off_c, 0, 59, 64
1, 67288, Note_on_c, 0, 62, 78
1, 67313, Note_off_c, 0, 62, 69
1, 67363, Note_on_c, 0, 65, 62
1, 67366, Note_on_c, 0, 64, 53
1, 67393, Note_off_c, 0, 65, 64
1, 67396, Note_off_c, 0, 64, 63
1, 67403, Note_on_c, 0, 76, 79
1, 67456, Note_on_c, 0, 71, 86
1, 67463, Note_off_c, 0, 76, 65
1, 67488, Note_on_c, 0, 59, 92
1, 67491, Note_on_c, 0, 50, 77
1, 67528, Note_on_c, 0, 74, 78
1, 67534, Note_off_c, 0, 71, 63
1, 67541, Note_off_c, 0, 59, 61
1, 67550, Note_off_c, 0, 74, 69
1, 67610, Note_on_c, 0, 77, 85
1, 67622, Note_on_c, 0, 42, 98
1, 67646, Note_on_c, 0, 88, 84
1, 67652, Note_off_c, 0, 77, 60
1, 67677, Note_off_c, 0, 50, 62
1, 67679, Note_off_c, 0, 42, 64
1, 67694, Note_on_c, 0, 83, 85
1, 67718, Note_on_c, 0, 43, 101
1, 67749, Note_on_c, 0, 86, 86
1, 67756, Note_on_c, 0, 50, 41
1, 67759, Control_c, 0, 64, 118
1, 67765, Note_off_c, 0, 83, 64
1, 67773, Control_c, 0, 64, 85
1, 67774, Note_off_c, 0, 88, 62
1, 67780, Note_off_c, 0, 43, 64
1, 67788, Note_off_c, 0, 50, 56
1, 67788, Control_c, 0, 64, 67
1, 67795, Note_on_c, 0, 77, 83
1, 67803, Control_c, 0, 64, 31
1, 67814, Note_off_c, 0, 86, 67
1, 67817, Control_c, 0, 64, 0
1, 67848, Note_on_c, 0, 44, 87
1, 67848, Note_on_c, 0, 58, 104
1, 67852, Note_on_c, 0, 50, 87
1, 67854, Note_off_c, 0, 77, 64
1, 67870, Note_on_c, 0, 88, 93
1, 67891, Control_c, 0, 64, 45
1, 67902, Note_off_c, 0, 58, 67
1, 67906, Control_c, 0, 64, 71
1, 67917, Note_off_c, 0, 50, 64
1, 67919, Note_on_c, 0, 82, 85
1, 67921, Control_c, 0, 64, 98
1, 67933, Note_off_c, 0, 88, 65
1, 67936, Control_c, 0, 64, 127
1, 67947, Note_off_c, 0, 44, 63
1, 67983, Note_on_c, 0, 86, 80
1, 67995, Note_off_c, 0, 82, 65
1, 68019, Note_on_c, 0, 77, 86
1, 68029, Note_off_c, 0, 86, 64
1, 68054, Control_c, 0, 64, 101
1, 68069, Control_c, 0, 64, 80
1, 68070, Note_off_c, 0, 77, 62
1, 68084, Control_c, 0, 64, 66
1, 68099, Control_c, 0, 64, 56
1, 68111, Note_on_c, 0, 76, 85
1, 68114, Control_c, 0, 64, 16
1, 68129, Control_c, 0, 64, 0
1, 68161, Note_on_c, 0, 70, 79
1, 68167, Note_off_c, 0, 76, 65
1, 68209, Note_on_c, 0, 32, 98
1, 68222, Note_on_c, 0, 74, 85
1, 68237, Note_off_c, 0, 70, 64
1, 68247, Control_c, 0, 64, 68
1, 68262, Control_c, 0, 64, 127
1, 68273, Note_off_c, 0, 74, 66
1, 68278, Note_on_c, 0, 65, 78
1, 68308, Note_off_c, 0, 65, 62
1, 68370, Note_on_c, 0, 64, 86
1, 68411, Note_on_c, 0, 58, 80
1, 68426, Note_off_c, 0, 64, 58
1, 68472, Note_on_c, 0, 62, 79
1, 68481, Note_off_c, 0, 58, 63
1, 68496, Note_on_c, 0, 53, 81
1, 68543, Note_off_c, 0, 62, 60
1, 68550, Control_c, 0, 64, 108
1, 68558, Note_off_c, 0, 53, 60
1, 68558, Note_off_c, 0, 32, 57
1, 68565, Control_c, 0, 64, 70
1, 68569, Note_on_c, 0, 33, 96
1, 68572, Note_on_c, 0, 64, 85
1, 68580, Control_c, 0, 64, 0
1, 68621, Note_on_c, 0, 57, 78
1, 68637, Note_off_c, 0, 33, 62
1, 68642, Note_off_c, 0, 64, 64
1, 68653, Control_c, 0, 64, 57
1, 68668, Control_c, 0, 64, 79
1, 68683, Control_c, 0, 64, 127
1, 68684, Note_on_c, 0, 62, 76
1, 68695, Note_off_c, 0, 57, 64
1, 68713, Note_off_c, 0, 62, 66
1, 68758, Note_on_c, 0, 65, 83
1, 68787, Note_off_c, 0, 65, 64
1, 68808, Note_on_c, 0, 76, 87
1, 68850, Note_on_c, 0, 69, 92
1, 68873, Note_off_c, 0, 76, 62
1, 68904, Note_on_c, 0, 62, 100
1, 68904, Note_on_c, 0, 74, 83
1, 68906, Note_on_c, 0, 53, 81
1, 68907, Note_off_c, 0, 69, 69
1, 68937, Note_off_c, 0, 74, 66
1, 68939, Note_on_c, 0, 54, 40
1, 68940, Note_off_c, 0, 54, 127
1, 68940, Note_off_c, 0, 62, 69
1, 68951, Note_on_c, 0, 51, 33
1, 68961, Note_off_c, 0, 53, 65
1, 68985, Note_on_c, 0, 77, 76
1, 68990, Note_off_c, 0, 51, 52
1, 69001, Note_on_c, 0, 79, 73
1, 69014, Note_off_c, 0, 77, 65
1, 69015, Note_on_c, 0, 44, 95
1, 69016, Note_off_c, 0, 79, 70
1, 69018, Note_on_c, 0, 46, 83
1, 69023, Note_on_c, 0, 88, 86
1, 69053, Note_off_c, 0, 46, 55
1, 69054, Note_off_c, 0, 44, 66
1, 69077, Note_on_c, 0, 81, 86
1, 69113, Note_on_c, 0, 47, 94
1, 69126, Note_on_c, 0, 86, 80
1, 69148, Poly_aftertouch_c, 0, 45, 0
1, 69150, Control_c, 0, 64, 119
1, 69157, Note_off_c, 0, 47, 65
1, 69157, Note_off_c, 0, 81, 65
1, 69164, Note_off_c, 0, 88, 63
1, 69165, Control_c, 0, 64, 86
1, 69180, Control_c, 0, 64, 70
1, 69185, Note_on_c, 0, 77, 87
1, 69196, Control_c, 0, 64, 57
1, 69210, Control_c, 0, 64, 0
1, 69219, Note_on_c, 0, 54, 82
1, 69220, Note_on_c, 0, 47, 75
1, 69234, Note_off_c, 0, 86, 63
1, 69262, Note_on_c, 0, 48, 29
1, 69279, Note_on_c, 0, 53, 59
1, 69280, Note_on_c, 0, 56, 79
1, 69285, Note_off_c, 0, 47, 58
1, 69300, Note_off_c, 0, 54, 64
1, 69300, Note_off_c, 0, 48, 53
1, 69306, Poly_aftertouch_c, 0, 49, 127
1, 69317, Note_off_c, 0, 77, 61
1, 69328, Note_on_c, 0, 62, 98
1, 69329, Control_c, 0, 64, 43
1, 69330, Note_on_c, 0, 88, 95
1, 69341, Poly_aftertouch_c, 0, 49, 0
1, 69343, Control_c, 0, 64, 70
1, 69346, Note_off_c, 0, 53, 57
1, 69358, Control_c, 0, 64, 100
1, 69363, Note_off_c, 0, 62, 68
1, 69367, Note_off_c, 0, 56, 64
1, 69372, Note_on_c, 0, 60, 11
1, 69373, Control_c, 0, 64, 127
1, 69393, Note_off_c, 0, 88, 65
1, 69396, Note_on_c, 0, 80, 86
1, 69423, Note_off_c, 0, 60, 43
1, 69457, Note_on_c, 0, 86, 84
1, 69464, Note_off_c, 0, 80, 65
1, 69511, Note_off_c, 0, 86, 65
1, 69514, Note_on_c, 0, 77, 79
1, 69536, Control_c, 0, 64, 119
1, 69538, Note_off_c, 0, 77, 69
1, 69542, Note_on_c, 0, 79, 8
1, 69551, Control_c, 0, 64, 88
1, 69566, Control_c, 0, 64, 73
1, 69581, Control_c, 0, 64, 64
1, 69585, Note_off_c, 0, 79, 44
1, 69591, Note_on_c, 0, 76, 84
1, 69595, Control_c, 0, 64, 56
1, 69610, Control_c, 0, 64, 44
1, 69625, Control_c, 0, 64, 11
1, 69639, Note_on_c, 0, 68, 81
1, 69640, Control_c, 0, 64, 0
1, 69650, Note_off_c, 0, 76, 64
1, 69718, Note_on_c, 0, 46, 87
1, 69721, Note_on_c, 0, 34, 85
1, 69723, Note_on_c, 0, 74, 82
1, 69726, Note_off_c, 0, 68, 64
1, 69773, Note_off_c, 0, 74, 64
1, 69773, Control_c, 0, 64, 55
1, 69780, Note_on_c, 0, 65, 74
1, 69787, Control_c, 0, 64, 75
1, 69802, Control_c, 0, 64, 114
1, 69811, Note_off_c, 0, 65, 64
1, 69817, Control_c, 0, 64, 127
1, 69875, Note_on_c, 0, 64, 84
1, 69935, Note_on_c, 0, 56, 74
1, 69972, Note_off_c, 0, 64, 52
1, 69989, Note_on_c, 0, 62, 72
1, 69989, Note_off_c, 0, 56, 64
1, 70019, Note_off_c, 0, 46, 59
1, 70038, Note_on_c, 0, 53, 67
1, 70058, Note_off_c, 0, 62, 60
1, 70063, Note_off_c, 0, 34, 52
1, 70078, Control_c, 0, 64, 104
1, 70093, Control_c, 0, 64, 88
1, 70099, Note_off_c, 0, 53, 59
1, 70108, Control_c, 0, 64, 74
1, 70120, Note_on_c, 0, 64, 69
1, 70123, Control_c, 0, 64, 63
1, 70129, Note_on_c, 0, 47, 67
1, 70132, Note_on_c, 0, 35, 66
1, 70133, Poly_aftertouch_c, 0, 39, 0
1, 70138, Control_c, 0, 64, 37
1, 70153, Control_c, 0, 64, 0
1, 70183, Note_off_c, 0, 64, 60
1, 70193, Note_on_c, 0, 55, 66
1, 70224, Note_off_c, 0, 35, 60
1, 70227, Control_c, 0, 64, 18
1, 70241, Control_c, 0, 64, 58
1, 70247, Note_on_c, 0, 62, 65
1, 70252, Note_off_c, 0, 55, 62
1, 70254, Note_off_c, 0, 47, 63
1, 70256, Control_c, 0, 64, 68
1, 70271, Control_c, 0, 64, 83
1, 70285, Control_c, 0, 64, 127
1, 70292, Note_off_c, 0, 62, 58
1, 70299, Note_on_c, 0, 53, 68
1, 70329, Note_off_c, 0, 53, 65
1, 70362, Note_on_c, 0, 67, 86
1, 70423, Note_on_c, 0, 64, 72
1, 70423, Note_off_c, 0, 67, 59
1, 70425, Note_on_c, 0, 65, 49
1, 70492, Note_on_c, 0, 55, 93
1, 70492, Note_off_c, 0, 64, 64
1, 70525, Note_off_c, 0, 65, 61
1, 70545, Note_on_c, 0, 62, 65
1, 70585, Note_off_c, 0, 62, 66
1, 70624, Note_on_c, 0, 76, 81
1, 70666, Note_off_c, 0, 55, 62
1, 70672, Note_off_c, 0, 76, 61
1, 70676, Note_on_c, 0, 67, 81
1, 70741, Note_on_c, 0, 74, 70
1, 70743, Note_off_c, 0, 67, 59
1, 70766, Note_on_c, 0, 55, 65
1, 70791, Note_on_c, 0, 65, 67
1, 70791, Note_off_c, 0, 55, 61
1, 70796, Note_off_c, 0, 74, 61
1, 70797, Control_c, 0, 64, 93
1, 70812, Control_c, 0, 64, 73
1, 70821, Note_off_c, 0, 65, 66
1, 70827, Control_c, 0, 64, 59
1, 70841, Control_c, 0, 64, 9
1, 70847, Note_on_c, 0, 55, 71
1, 70856, Control_c, 0, 64, 0
1, 70869, Note_on_c, 0, 79, 70
1, 70878, Note_off_c, 0, 55, 66
1, 70901, Control_c, 0, 64, 44
1, 70915, Control_c, 0, 64, 61
1, 70919, Note_on_c, 0, 76, 78
1, 70930, Control_c, 0, 64, 69
1, 70932, Note_off_c, 0, 79, 63
1, 70945, Control_c, 0, 64, 81
1, 70960, Control_c, 0, 64, 127
1, 70985, Note_on_c, 0, 77, 70
1, 70991, Note_off_c, 0, 76, 62
1, 71020, Note_off_c, 0, 77, 61
1, 71028, Note_on_c, 0, 74, 69
1, 71056, Note_off_c, 0, 74, 67
1, 71097, Note_on_c, 0, 88, 73
1, 71146, Note_on_c, 0, 79, 72
1, 71148, Note_off_c, 0, 88, 63
1, 71152, Control_c, 0, 64, 97
1, 71167, Control_c, 0, 64, 79
1, 71181, Control_c, 0, 64, 68
1, 71196, Control_c, 0, 64, 57
1, 71205, Note_off_c, 0, 79, 63
1, 71207, Note_on_c, 0, 31, 60
1, 71208, Note_on_c, 0, 43, 60
1, 71210, Note_on_c, 0, 86, 67
1, 71211, Control_c, 0, 64, 37
1, 71226, Control_c, 0, 64, 0
1, 71251, Note_off_c, 0, 86, 63
1, 71258, Note_on_c, 0, 77, 61
1, 71271, Control_c, 0, 64, 33
1, 71286, Control_c, 0, 64, 58
1, 71291, Note_off_c, 0, 77, 66
1, 71295, Note_off_c, 0, 31, 61
1, 71301, Control_c, 0, 64, 67
1, 71315, Control_c, 0, 64, 79
1, 71318, Note_off_c, 0, 43, 63
1, 71337, Control_c, 0, 64, 127
1, 71339, Note_on_c, 0, 91, 62
1, 71387, Note_on_c, 0, 88, 68
1, 71405, Note_off_c, 0, 91, 64
1, 71454, Note_on_c, 0, 89, 71
1, 71454, Note_off_c, 0, 88, 61
1, 71507, Note_on_c, 0, 86, 56
1, 71522, Note_off_c, 0, 89, 61
1, 71530, Control_c, 0, 64, 112
1, 71545, Control_c, 0, 64, 92
1, 71555, Note_on_c, 0, 48, 43
1, 71559, Note_on_c, 0, 36, 49
1, 71560, Control_c, 0, 64, 77
1, 71571, Note_on_c, 0, 93, 65
1, 71575, Control_c, 0, 64, 66
1, 71587, Note_off_c, 0, 86, 59
1, 71590, Control_c, 0, 64, 55
1, 71605, Control_c, 0, 64, 33
1, 71619, Control_c, 0, 64, 0
1, 71625, Note_on_c, 0, 88, 53
1, 71664, Control_c, 0, 64, 37
1, 71666, Note_off_c, 0, 93, 64
1, 71673, Note_off_c, 0, 36, 62
1, 71679, Note_off_c, 0, 88, 65
1, 71679, Control_c, 0, 64, 58
1, 71681, Note_on_c, 0, 91, 58
1, 71694, Control_c, 0, 64, 67
1, 71709, Control_c, 0, 64, 82
1, 71712, Note_off_c, 0, 48, 57
1, 71724, Note_off_c, 0, 91, 62
1, 71724, Control_c, 0, 64, 127
1, 71729, Note_on_c, 0, 84, 57
1, 71755, Note_off_c, 0, 84, 65
1, 71803, Note_on_c, 0, 100, 70
1, 71868, Note_on_c, 0, 91, 62
1, 71873, Note_off_c, 0, 100, 58
1, 71906, Note_on_c, 0, 52, 56
1, 71909, Note_on_c, 0, 98, 75
1, 71930, Note_off_c, 0, 91, 48
1, 71968, Note_off_c, 0, 98, 66
1, 71973, Note_on_c, 0, 88, 63
1, 71984, Note_off_c, 0, 52, 64
1, 72021, Note_on_c, 0, 60, 64
1, 72022, Note_on_c, 0, 96, 86
1, 72031, Note_off_c, 0, 88, 62
1, 72086, Note_on_c, 0, 92, 81
1, 72129, Note_on_c, 0, 95, 75
1, 72130, Note_off_c, 0, 60, 63
1, 72145, Note_off_c, 0, 92, 65
1, 72156, Note_on_c, 0, 68, 18
1, 72168, Note_on_c, 0, 88, 68
1, 72170, Note_off_c, 0, 95, 64
1, 72170, Note_off_c, 0, 96, 66
1, 72175, Control_c, 0, 64, 95
1, 72190, Control_c, 0, 64, 70
1, 72197, Note_off_c, 0, 68, 51
1, 72205, Control_c, 0, 64, 55
1, 72212, Note_off_c, 0, 88, 63
1, 72219, Control_c, 0, 64, 24
1, 72234, Control_c, 0, 64, 0
1, 72249, Control_c, 0, 64, 9
1, 72251, Note_on_c, 0, 41, 69
1, 72253, Note_on_c, 0, 94, 82
1, 72263, Control_c, 0, 64, 30
1, 72278, Control_c, 0, 64, 55
1, 72293, Control_c, 0, 64, 64
1, 72297, Note_on_c, 0, 89, 62
1, 72308, Control_c, 0, 64, 74
1, 72323, Control_c, 0, 64, 105
1, 72332, Note_off_c, 0, 94, 61
1, 72338, Control_c, 0, 64, 127
1, 72349, Note_off_c, 0, 41, 62
1, 72367, Note_on_c, 0, 92, 76
1, 72380, Note_off_c, 0, 89, 62
1, 72423, Note_on_c, 0, 85, 65
1, 72427, Note_off_c, 0, 92, 65
1, 72448, Note_off_c, 0, 85, 67
1, 72475, Note_on_c, 0, 91, 85
1, 72528, Note_on_c, 0, 85, 71
1, 72553, Note_off_c, 0, 91, 62
1, 72585, Note_on_c, 0, 53, 57
1, 72585, Note_on_c, 0, 56, 70
1, 72588, Note_on_c, 0, 89, 83
1, 72594, Note_off_c, 0, 85, 66
1, 72644, Note_on_c, 0, 80, 76
1, 72655, Note_off_c, 0, 89, 64
1, 72670, Note_off_c, 0, 53, 58
1, 72709, Note_on_c, 0, 61, 66
1, 72712, Note_on_c, 0, 87, 81
1, 72717, Note_off_c, 0, 56, 63
1, 72733, Note_off_c, 0, 80, 0
1, 72747, Note_on_c, 0, 80, 57
1, 72749, Note_on_c, 0, 88, 42
1, 72773, Note_off_c, 0, 88, 58
1, 72787, Note_off_c, 0, 87, 58
1, 72788, Note_off_c, 0, 61, 60
1, 72806, Note_on_c, 0, 68, 64
1, 72836, Note_on_c, 0, 85, 71
1, 72840, Note_off_c, 0, 68, 63
1, 72841, Note_off_c, 0, 80, 65
1, 72865, Note_off_c, 0, 85, 64
1, 72877, Note_on_c, 0, 77, 69
1, 72894, Control_c, 0, 64, 102
1, 72909, Control_c, 0, 64, 81
1, 72924, Control_c, 0, 64, 67
1, 72939, Control_c, 0, 64, 46
1, 72944, Note_on_c, 0, 43, 66
1, 72954, Control_c, 0, 64, 0
1, 72955, Note_on_c, 0, 85, 78
1, 72957, Note_off_c, 0, 77, 59
1, 72998, Control_c, 0, 64, 43
1, 73009, Note_on_c, 0, 78, 72
1, 73012, Control_c, 0, 64, 60
1, 73023, Note_off_c, 0, 85, 66
1, 73027, Control_c, 0, 64, 71
1, 73029, Note_off_c, 0, 43, 59
1, 73042, Control_c, 0, 64, 89
1, 73057, Control_c, 0, 64, 127
1, 73066, Note_on_c, 0, 84, 76
1, 73077, Note_off_c, 0, 78, 63
1, 73106, Note_on_c, 0, 76, 60
1, 73117, Note_off_c, 0, 84, 60
1, 73166, Note_on_c, 0, 79, 79
1, 73175, Note_off_c, 0, 76, 64
1, 73214, Note_off_c, 0, 79, 62
1, 73265, Note_on_c, 0, 72, 55
1, 73292, Note_on_c, 0, 80, 71
1, 73294, Note_on_c, 0, 60, 60
1, 73303, Note_on_c, 0, 55, 49
1, 73306, Note_off_c, 0, 72, 43
1, 73345, Note_on_c, 0, 76, 70
1, 73391, Note_off_c, 0, 80, 61
1, 73394, Note_off_c, 0, 60, 62
1, 73414, Note_on_c, 0, 78, 77
1, 73417, Note_on_c, 0, 64, 60
1, 73438, Note_off_c, 0, 76, 63
1, 73482, Note_on_c, 0, 72, 62
1, 73485, Note_off_c, 0, 64, 61
1, 73493, Note_off_c, 0, 78, 61
1, 73513, Note_on_c, 0, 79, 69
1, 73527, Note_on_c, 0, 67, 53
1, 73538, Note_off_c, 0, 55, 63
1, 73541, Note_off_c, 0, 72, 60
1, 73552, Note_off_c, 0, 67, 63
1, 73608, Note_on_c, 0, 76, 56
1, 73629, Control_c, 0, 64, 110
1, 73639, Note_off_c, 0, 79, 61
1, 73644, Control_c, 0, 64, 85
1, 73654, Note_on_c, 0, 81, 67
1, 73658, Control_c, 0, 64, 69
1, 73673, Control_c, 0, 64, 49
1, 73676, Note_on_c, 0, 43, 54
1, 73688, Control_c, 0, 64, 0
1, 73691, Note_off_c, 0, 76, 58
1, 73730, Note_off_c, 0, 81, 64
1, 73733, Control_c, 0, 64, 46
1, 73736, Note_on_c, 0, 71, 56
1, 73741, Note_off_c, 0, 43, 63
1, 73748, Control_c, 0, 64, 63
1, 73763, Control_c, 0, 64, 74
1, 73778, Control_c, 0, 64, 127
1, 73792, Note_off_c, 0, 71, 51
1, 73798, Note_on_c, 0, 78, 9
1, 73806, Note_on_c, 0, 79, 73
1, 73839, Note_on_c, 0, 77, 60
1, 73873, Note_off_c, 0, 79, 58
1, 73890, Note_off_c, 0, 78, 41
1, 73916, Note_off_c, 0, 77, 63
1, 73918, Note_on_c, 0, 71, 29
1, 73927, Note_on_c, 0, 83, 77
1, 73928, Note_on_c, 0, 81, 65
1, 73951, Note_off_c, 0, 71, 46
1, 73951, Note_off_c, 0, 83, 67
1, 73954, Note_off_c, 0, 81, 67
1, 73957, Note_on_c, 0, 63, 25
1, 73987, Note_on_c, 0, 65, 58
1, 73987, Note_on_c, 0, 67, 57
1, 73996, Note_off_c, 0, 63, 60
1, 73998, Note_on_c, 0, 55, 53
1, 74001, Note_on_c, 0, 62, 59
1, 74009, Note_off_c, 0, 65, 63
1, 74009, Note_off_c, 0, 67, 63
1, 74019, Note_on_c, 0, 76, 48
1, 74021, Note_off_c, 0, 62, 63
1, 74036, Note_off_c, 0, 55, 64
1, 74043, Note_off_c, 0, 76, 59
1, 74057, Note_on_c, 0, 88, 85
1, 74100, Note_off_c, 0, 88, 66
1, 74125, Note_on_c, 0, 79, 70
1, 74179, Note_on_c, 0, 86, 72
1, 74183, Note_off_c, 0, 79, 52
1, 74195, Note_on_c, 0, 48, 65
1, 74198, Note_on_c, 0, 88, 54
1, 74199, Note_off_c, 0, 88, 127
1, 74221, Note_on_c, 0, 77, 75
1, 74228, Note_on_c, 0, 55, 55
1, 74231, Note_off_c, 0, 86, 63
1, 74281, Control_c, 0, 64, 104
1, 74287, Note_off_c, 0, 77, 53
1, 74296, Control_c, 0, 64, 86
1, 74311, Control_c, 0, 64, 72
1, 74314, Note_on_c, 0, 64, 60
1, 74318, Note_on_c, 0, 86, 83
1, 74333, Control_c, 0, 64, 60
1, 74348, Control_c, 0, 64, 44
1, 74363, Control_c, 0, 64, 33
1, 74377, Control_c, 0, 64, 34
1, 74380, Note_on_c, 0, 79, 60
1, 74392, Control_c, 0, 64, 49
1, 74407, Control_c, 0, 64, 61
1, 74422, Control_c, 0, 64, 68
1, 74436, Control_c, 0, 64, 78
1, 74440, Note_on_c, 0, 84, 76
1, 74441, Note_off_c, 0, 86, 48
1, 74451, Note_off_c, 0, 79, 65
1, 74451, Control_c, 0, 64, 115
1, 74466, Control_c, 0, 64, 127
1, 74487, Note_off_c, 0, 84, 61
1, 74496, Note_on_c, 0, 76, 64
1, 74574, Note_on_c, 0, 81, 74
1, 74582, Note_off_c, 0, 76, 56
1, 74585, Control_c, 0, 64, 88
1, 74600, Control_c, 0, 64, 73
1, 74614, Control_c, 0, 64, 62
1, 74629, Control_c, 0, 64, 55
1, 74631, Note_on_c, 0, 76, 31
1, 74644, Control_c, 0, 64, 56
1, 74658, Control_c, 0, 64, 61
1, 74673, Control_c, 0, 64, 66
1, 74683, Note_off_c, 0, 81, 62
1, 74688, Control_c, 0, 64, 73
1, 74696, Note_off_c, 0, 76, 63
1, 74697, Note_on_c, 0, 79, 63
1, 74703, Control_c, 0, 64, 87
1, 74718, Control_c, 0, 64, 116
1, 74729, Note_off_c, 0, 79, 65
1, 74732, Control_c, 0, 64, 127
1, 74750, Note_on_c, 0, 72, 52
1, 74778, Control_c, 0, 64, 95
1, 74793, Control_c, 0, 64, 74
1, 74808, Control_c, 0, 64, 66
1, 74822, Control_c, 0, 64, 59
1, 74833, Note_on_c, 0, 77, 56
1, 74837, Control_c, 0, 64, 54
1, 74842, Note_off_c, 0, 72, 0
1, 74852, Control_c, 0, 64, 53
1, 74857, Note_on_c, 0, 72, 43
1, 74867, Control_c, 0, 64, 54
1, 74881, Control_c, 0, 64, 61
1, 74896, Control_c, 0, 64, 67
1, 74911, Control_c, 0, 64, 74
1, 74918, Note_off_c, 0, 64, 35
1, 74922, Note_off_c, 0, 72, 63
1, 74925, Note_off_c, 0, 77, 58
1, 74926, Control_c, 0, 64, 91
1, 74928, Note_on_c, 0, 76, 63
1, 74932, Note_off_c, 0, 48, 38
1, 74941, Control_c, 0, 64, 127
1, 74966, Note_off_c, 0, 76, 63
1, 74996, Note_on_c, 0, 67, 33
1, 74999, Note_off_c, 0, 55, 33
1, 75009, Note_on_c, 0, 69, 22
1, 75028, Note_off_c, 0, 67, 51
1, 75039, Note_on_c, 0, 81, 77
1, 75047, Note_off_c, 0, 69, 54
1, 75112, Note_on_c, 0, 76, 71
1, 75164, Note_on_c, 0, 79, 81
1, 75164, Note_off_c, 0, 81, 64
1, 75191, Note_off_c, 0, 76, 64
1, 75218, Note_on_c, 0, 72, 76
1, 75219, Note_off_c, 0, 79, 65
1, 75247, Note_off_c, 0, 72, 63
1, 75277, Note_on_c, 0, 77, 95
1, 75331, Note_on_c, 0, 72, 74
1, 75375, Note_on_c, 0, 76, 85
1, 75411, Note_off_c, 0, 72, 61
1, 75411, Note_off_c, 0, 77, 61
1, 75429, Note_on_c, 0, 67, 82
1, 75454, Note_off_c, 0, 76, 66
1, 75462, Note_off_c, 0, 67, 60
1, 75506, Note_on_c, 0, 81, 91
1, 75561, Note_on_c, 0, 76, 76
1, 75608, Note_on_c, 0, 79, 84
1, 75649, Note_off_c, 0, 76, 63
1, 75656, Note_off_c, 0, 81, 59
1, 75659, Note_on_c, 0, 72, 80
1, 75676, Note_off_c, 0, 79, 67
1, 75701, Note_off_c, 0, 72, 64
1, 75733, Note_on_c, 0, 79, 101
1, 75737, Note_on_c, 0, 69, 86
1, 75739, Note_on_c, 0, 76, 105
1, 75749, Control_c, 0, 64, 78
1, 75764, Control_c, 0, 64, 44
1, 75778, Control_c, 0, 64, 0
1, 75815, Note_on_c, 0, 64, 79
1, 75831, Control_c, 0, 64, 46
1, 75832, Note_off_c, 0, 69, 62
1, 75846, Control_c, 0, 64, 72
1, 75860, Control_c, 0, 64, 127
1, 75888, Note_on_c, 0, 67, 79
1, 75893, Note_off_c, 0, 64, 64
1, 75934, Note_off_c, 0, 79, 61
1, 75943, Note_on_c, 0, 61, 80
1, 75944, Note_off_c, 0, 76, 59
1, 75955, Note_off_c, 0, 67, 62
1, 76011, Note_off_c, 0, 61, 61
1, 76014, Note_on_c, 0, 65, 84
1, 76076, Note_on_c, 0, 61, 76
1, 76083, Note_off_c, 0, 65, 59
1, 76127, Note_on_c, 0, 64, 86
1, 76127, Control_c, 0, 64, 89
1, 76130, Note_on_c, 0, 79, 101
1, 76130, Note_on_c, 0, 67, 98
1, 76133, Note_on_c, 0, 76, 88
1, 76139, Note_off_c, 0, 61, 61
1, 76142, Control_c, 0, 64, 67
1, 76156, Control_c, 0, 64, 41
1, 76171, Control_c, 0, 64, 0
1, 76186, Control_c, 0, 64, 13
1, 76201, Control_c, 0, 64, 50
1, 76204, Note_on_c, 0, 58, 78
1, 76206, Note_off_c, 0, 64, 62
1, 76216, Control_c, 0, 64, 63
1, 76231, Control_c, 0, 64, 73
1, 76246, Control_c, 0, 64, 95
1, 76260, Control_c, 0, 64, 127
1, 76268, Note_off_c, 0, 58, 62
1, 76277, Note_on_c, 0, 62, 84
1, 76284, Note_off_c, 0, 67, 59
1, 76286, Note_off_c, 0, 79, 62
1, 76306, Note_off_c, 0, 76, 61
1, 76344, Note_off_c, 0, 62, 59
1, 76350, Note_on_c, 0, 58, 80
1, 76404, Note_on_c, 0, 61, 83
1, 76416, Note_off_c, 0, 58, 63
1, 76449, Note_on_c, 0, 67, 84
1, 76449, Note_on_c, 0, 76, 80
1, 76457, Note_on_c, 0, 79, 70
1, 76468, Note_off_c, 0, 67, 71
1, 76473, Note_off_c, 0, 79, 66
1, 76474, Note_off_c, 0, 61, 63
1, 76475, Note_off_c, 0, 76, 68
1, 76478, Note_on_c, 0, 55, 71
1, 76498, Control_c, 0, 64, 100
1, 76509, Note_on_c, 0, 67, 87
1, 76509, Note_on_c, 0, 79, 86
1, 76513, Control_c, 0, 64, 74
1, 76521, Note_on_c, 0, 76, 85
1, 76527, Note_on_c, 0, 60, 83
1, 76527, Control_c, 0, 64, 58
1, 76541, Note_off_c, 0, 55, 63
1, 76542, Control_c, 0, 64, 0
1, 76544, Poly_aftertouch_c, 0, 81, 0
1, 76595, Control_c, 0, 64, 38
1, 76609, Control_c, 0, 64, 60
1, 76611, Note_on_c, 0, 55, 76
1, 76613, Note_off_c, 0, 60, 58
1, 76624, Control_c, 0, 64, 70
1, 76639, Control_c, 0, 64, 86
1, 76654, Control_c, 0, 64, 127
1, 76664, Note_on_c, 0, 58, 81
1, 76670, Note_off_c, 0, 76, 58
1, 76672, Note_off_c, 0, 67, 56
1, 76675, Note_off_c, 0, 55, 63
1, 76722, Note_on_c, 0, 52, 79
1, 76729, Note_off_c, 0, 58, 64
1, 76778, Note_off_c, 0, 52, 64
1, 76780, Note_on_c, 0, 57, 82
1, 76844, Note_on_c, 0, 52, 77
1, 76846, Note_off_c, 0, 57, 61
1, 76896, Note_on_c, 0, 55, 83
1, 76908, Note_on_c, 0, 69, 100
1, 76908, Note_on_c, 0, 81, 95
1, 76909, Note_on_c, 0, 76, 79
1, 76912, Note_off_c, 0, 52, 64
1, 76934, Control_c, 0, 64, 81
1, 76943, Note_off_c, 0, 79, 63
1, 76949, Control_c, 0, 64, 65
1, 76952, Note_on_c, 0, 78, 24
1, 76953, Note_off_c, 0, 78, 127
1, 76964, Note_off_c, 0, 55, 64
1, 76964, Control_c, 0, 64, 46
1, 76969, Note_on_c, 0, 49, 70
1, 76979, Control_c, 0, 64, 26
1, 76994, Control_c, 0, 64, 28
1, 77009, Control_c, 0, 64, 47
1, 77020, Note_off_c, 0, 49, 60
1, 77024, Control_c, 0, 64, 63
1, 77033, Note_on_c, 0, 53, 79
1, 77039, Control_c, 0, 64, 71
1, 77053, Control_c, 0, 64, 93
1, 77068, Control_c, 0, 64, 127
1, 77092, Note_off_c, 0, 81, 59
1, 77093, Note_on_c, 0, 49, 79
1, 77096, Note_off_c, 0, 53, 61
1, 77098, Note_off_c, 0, 76, 61
1, 77104, Note_off_c, 0, 69, 55
1, 77149, Note_on_c, 0, 52, 85
1, 77164, Note_off_c, 0, 49, 63
1, 77212, Note_on_c, 0, 46, 80
1, 77221, Note_off_c, 0, 52, 64
1, 77277, Note_on_c, 0, 50, 86
1, 77281, Note_off_c, 0, 46, 62
1, 77292, Note_on_c, 0, 76, 84
1, 77296, Note_on_c, 0, 67, 99
1, 77298, Note_on_c, 0, 79, 103
1, 77343, Control_c, 0, 64, 92
1, 77358, Control_c, 0, 64, 74
1, 77365, Note_on_c, 0, 46, 78
1, 77373, Control_c, 0, 64, 62
1, 77386, Note_off_c, 0, 50, 58
1, 77388, Control_c, 0, 64, 44
1, 77403, Control_c, 0, 64, 24
1, 77418, Control_c, 0, 64, 26
1, 77423, Note_on_c, 0, 49, 81
1, 77432, Control_c, 0, 64, 44
1, 77441, Note_off_c, 0, 46, 62
1, 77447, Control_c, 0, 64, 59
1, 77462, Control_c, 0, 64, 65
1, 77474, Note_on_c, 0, 43, 73
1, 77477, Control_c, 0, 64, 74
1, 77489, Note_off_c, 0, 49, 63
1, 77492, Control_c, 0, 64, 108
1, 77507, Control_c, 0, 64, 127
1, 77542, Note_on_c, 0, 48, 85
1, 77546, Note_off_c, 0, 43, 62
1, 77603, Note_on_c, 0, 43, 79
1, 77620, Note_off_c, 0, 79, 61
1, 77624, Note_off_c, 0, 67, 58
1, 77627, Note_off_c, 0, 76, 61
1, 77629, Note_off_c, 0, 48, 61
1, 77658, Note_on_c, 0, 46, 91
1, 77684, Control_c, 0, 64, 83
1, 77686, Note_on_c, 0, 76, 97
1, 77689, Note_off_c, 0, 43, 62
1, 77692, Note_on_c, 0, 73, 90
1, 77692, Note_on_c, 0, 67, 91
1, 77699, Control_c, 0, 64, 64
1, 77714, Control_c, 0, 64, 0
1, 77730, Note_on_c, 0, 40, 76
1, 77746, Note_off_c, 0, 46, 64
1, 77773, Control_c, 0, 64, 34
1, 77788, Control_c, 0, 64, 63
1, 77793, Note_on_c, 0, 45, 82
1, 77796, Note_off_c, 0, 40, 61
1, 77803, Control_c, 0, 64, 81
1, 77818, Control_c, 0, 64, 127
1, 77860, Note_on_c, 0, 40, 86
1, 77870, Note_off_c, 0, 45, 63
1, 77908, Note_off_c, 0, 76, 60
1, 77917, Note_on_c, 0, 43, 90
1, 77933, Note_off_c, 0, 67, 53
1, 77938, Note_off_c, 0, 40, 64
1, 77984, Note_on_c, 0, 37, 83
1, 77997, Note_off_c, 0, 43, 62
1, 78041, Control_c, 0, 64, 118
1, 78042, Note_on_c, 0, 79, 102
1, 78043, Note_on_c, 0, 67, 98
1, 78047, Note_on_c, 0, 76, 86
1, 78050, Note_on_c, 0, 41, 88
1, 78055, Control_c, 0, 64, 66
1, 78073, Note_off_c, 0, 37, 63
1, 78078, Control_c, 0, 64, 0
1, 78082, Note_off_c, 0, 73, 65
1, 78131, Note_on_c, 0, 37, 76
1, 78152, Control_c, 0, 64, 61
1, 78155, Note_off_c, 0, 41, 63
1, 78167, Control_c, 0, 64, 127
1, 78192, Note_on_c, 0, 40, 81
1, 78216, Note_off_c, 0, 37, 60
1, 78250, Note_on_c, 0, 34, 82
1, 78259, Note_off_c, 0, 40, 64
1, 78316, Note_off_c, 0, 34, 61
1, 78319, Note_on_c, 0, 38, 90
1, 78341, Note_off_c, 0, 67, 53
1, 78344, Note_off_c, 0, 76, 60
1, 78377, Note_on_c, 0, 34, 83
1, 78426, Note_on_c, 0, 37, 92
1, 78455, Note_off_c, 0, 34, 60
1, 78472, Note_off_c, 0, 38, 23
1, 78490, Note_on_c, 0, 31, 88
1, 78504, Note_off_c, 0, 37, 63
1, 78538, Note_off_c, 0, 79, 58
1, 78560, Note_on_c, 0, 36, 86
1, 78575, Note_off_c, 0, 31, 64
1, 78622, Note_on_c, 0, 31, 79
1, 78622, Note_on_c, 0, 32, 58
1, 78648, Note_off_c, 0, 36, 62
1, 78684, Note_on_c, 0, 28, 88
1, 78684, Note_off_c, 0, 32, 61
1, 78703, Note_on_c, 0, 33, 64
1, 78703, Note_off_c, 0, 31, 62
1, 78732, Note_off_c, 0, 28, 61
1, 78735, Note_off_c, 0, 33, 62
1, 78775, Control_c, 0, 64, 105
1, 78790, Control_c, 0, 64, 66
1, 78804, Control_c, 0, 64, 0
1, 78870, Note_on_c, 0, 82, 106
1, 78873, Note_on_c, 0, 79, 98
1, 78895, Note_on_c, 0, 72, 93
1, 78988, Note_on_c, 0, 67, 81
1, 79013, Note_off_c, 0, 72, 61
1, 79018, Control_c, 0, 64, 79
1, 79033, Control_c, 0, 64, 127
1, 79060, Note_on_c, 0, 70, 88
1, 79082, Note_off_c, 0, 67, 61
1, 79093, Note_off_c, 0, 82, 56
1, 79116, Note_off_c, 0, 79, 53
1, 79125, Note_on_c, 0, 64, 90
1, 79140, Note_off_c, 0, 70, 66
1, 79203, Note_on_c, 0, 69, 91
1, 79212, Note_off_c, 0, 64, 64
1, 79251, Note_off_c, 0, 69, 65
1, 79274, Note_on_c, 0, 64, 90
1, 79344, Note_on_c, 0, 67, 91
1, 79345, Note_on_c, 0, 70, 103
1, 79345, Note_on_c, 0, 79, 78
1, 79345, Note_on_c, 0, 82, 103
1, 79359, Control_c, 0, 64, 111
1, 79363, Note_off_c, 0, 64, 62
1, 79374, Control_c, 0, 64, 67
1, 79389, Control_c, 0, 64, 0
1, 79393, Note_on_c, 0, 80, 31
1, 79394, Note_off_c, 0, 80, 127
1, 79430, Note_on_c, 0, 61, 80
1, 79430, Note_off_c, 0, 67, 62
1, 79447, Control_c, 0, 64, 61
1, 79462, Control_c, 0, 64, 95
1, 79477, Control_c, 0, 64, 127
1, 79495, Note_off_c, 0, 61, 58
1, 79502, Note_on_c, 0, 65, 87
1, 79525, Note_off_c, 0, 70, 58
1, 79528, Note_off_c, 0, 82, 60
1, 79578, Note_on_c, 0, 61, 85
1, 79586, Note_off_c, 0, 79, 57
1, 79590, Note_off_c, 0, 65, 58
1, 79630, Note_on_c, 0, 64, 86
1, 79646, Note_off_c, 0, 61, 61
1, 79676, Note_on_c, 0, 70, 99
1, 79678, Note_on_c, 0, 82, 91
1, 79680, Note_on_c, 0, 79, 88
1, 79699, Note_on_c, 0, 58, 79
1, 79699, Note_off_c, 0, 64, 63
1, 79705, Note_off_c, 0, 79, 65
1, 79705, Note_off_c, 0, 82, 62
1, 79711, Note_off_c, 0, 70, 62
1, 79748, Note_on_c, 0, 82, 93
1, 79750, Note_on_c, 0, 70, 91
1, 79751, Control_c, 0, 64, 83
1, 79755, Note_off_c, 0, 58, 61
1, 79756, Note_on_c, 0, 79, 86
1, 79760, Note_on_c, 0, 62, 88
1, 79766, Control_c, 0, 64, 59
1, 79781, Control_c, 0, 64, 0
1, 79819, Note_on_c, 0, 83, 9
1, 79826, Control_c, 0, 64, 57
1, 79830, Note_on_c, 0, 58, 80
1, 79841, Control_c, 0, 64, 74
1, 79849, Note_off_c, 0, 62, 53
1, 79856, Control_c, 0, 64, 108
1, 79867, Note_off_c, 0, 83, 28
1, 79871, Control_c, 0, 64, 127
1, 79873, Note_off_c, 0, 70, 59
1, 79874, Note_off_c, 0, 79, 63
1, 79877, Note_on_c, 0, 61, 85
1, 79900, Note_off_c, 0, 58, 62
1, 79942, Note_on_c, 0, 55, 87
1, 79950, Note_off_c, 0, 61, 64
1, 79998, Note_on_c, 0, 60, 87
1, 80009, Note_off_c, 0, 55, 64
1, 80058, Note_on_c, 0, 55, 84
1, 80079, Note_off_c, 0, 82, 63
1, 80091, Note_off_c, 0, 60, 60
1, 80108, Note_on_c, 0, 72, 100
1, 80108, Note_on_c, 0, 79, 78
1, 80108, Note_on_c, 0, 84, 104
1, 80114, Note_on_c, 0, 58, 87
1, 80133, Note_off_c, 0, 55, 60
1, 80151, Control_c, 0, 64, 80
1, 80166, Control_c, 0, 64, 54
1, 80181, Control_c, 0, 64, 0
1, 80188, Note_on_c, 0, 52, 79
1, 80199, Note_off_c, 0, 58, 62
1, 80211, Control_c, 0, 64, 17
1, 80225, Control_c, 0, 64, 47
1, 80240, Control_c, 0, 64, 62
1, 80248, Note_off_c, 0, 79, 64
1, 80255, Control_c, 0, 64, 74
1, 80260, Note_on_c, 0, 57, 83
1, 80260, Note_off_c, 0, 52, 65
1, 80270, Control_c, 0, 64, 127
1, 80300, Note_off_c, 0, 84, 60
1, 80306, Note_off_c, 0, 72, 54
1, 80334, Note_on_c, 0, 52, 83
1, 80339, Note_off_c, 0, 57, 62
1, 80387, Note_on_c, 0, 55, 89
1, 80413, Note_off_c, 0, 52, 64
1, 80451, Note_on_c, 0, 49, 83
1, 80463, Note_off_c, 0, 55, 64
1, 80515, Note_on_c, 0, 79, 81
1, 80517, Note_on_c, 0, 82, 103
1, 80517, Note_on_c, 0, 70, 101
1, 80521, Note_on_c, 0, 53, 83
1, 80535, Note_off_c, 0, 49, 62
1, 80545, Control_c, 0, 64, 107
1, 80560, Control_c, 0, 64, 81
1, 80574, Control_c, 0, 64, 63
1, 80589, Control_c, 0, 64, 26
1, 80601, Note_on_c, 0, 49, 72
1, 80604, Control_c, 0, 64, 0
1, 80607, Note_off_c, 0, 53, 63
1, 80659, Note_on_c, 0, 52, 80
1, 80664, Control_c, 0, 64, 45
1, 80675, Note_off_c, 0, 49, 63
1, 80678, Control_c, 0, 64, 62
1, 80693, Control_c, 0, 64, 73
1, 80708, Control_c, 0, 64, 123
1, 80717, Note_on_c, 0, 46, 84
1, 80723, Control_c, 0, 64, 127
1, 80723, Note_off_c, 0, 52, 66
1, 80780, Note_on_c, 0, 50, 89
1, 80788, Note_off_c, 0, 46, 60
1, 80803, Note_off_c, 0, 70, 56
1, 80841, Note_on_c, 0, 46, 77
1, 80847, Note_off_c, 0, 79, 54
1, 80854, Note_off_c, 0, 82, 63
1, 80876, Note_off_c, 0, 50, 57
1, 80893, Note_on_c, 0, 49, 86
1, 80908, Note_on_c, 0, 79, 93
1, 80912, Note_on_c, 0, 76, 88
1, 80913, Note_on_c, 0, 70, 89
1, 80920, Note_off_c, 0, 46, 62
1, 80945, Control_c, 0, 64, 80
1, 80960, Control_c, 0, 64, 62
1, 80974, Control_c, 0, 64, 9
1, 80977, Note_on_c, 0, 43, 72
1, 80977, Note_off_c, 0, 49, 65
1, 80989, Control_c, 0, 64, 0
1, 81024, Note_on_c, 0, 48, 82
1, 81033, Control_c, 0, 64, 44
1, 81036, Note_off_c, 0, 43, 62
1, 81048, Control_c, 0, 64, 61
1, 81071, Control_c, 0, 64, 69
1, 81086, Control_c, 0, 64, 89
1, 81100, Control_c, 0, 64, 127
1, 81102, Note_on_c, 0, 43, 81
1, 81117, Note_off_c, 0, 48, 60
1, 81162, Note_on_c, 0, 46, 85
1, 81164, Note_off_c, 0, 79, 53
1, 81176, Note_off_c, 0, 70, 56
1, 81184, Note_off_c, 0, 43, 62
1, 81230, Note_on_c, 0, 40, 78
1, 81251, Note_off_c, 0, 46, 63
1, 81294, Control_c, 0, 64, 111
1, 81298, Note_on_c, 0, 82, 96
1, 81301, Note_on_c, 0, 45, 79
1, 81301, Note_on_c, 0, 70, 88
1, 81301, Note_on_c, 0, 79, 77
1, 81309, Control_c, 0, 64, 82
1, 81315, Note_off_c, 0, 40, 62
1, 81323, Control_c, 0, 64, 68
1, 81331, Note_off_c, 0, 76, 65
1, 81338, Control_c, 0, 64, 54
1, 81353, Control_c, 0, 64, 0
1, 81387, Note_on_c, 0, 40, 65
1, 81397, Note_off_c, 0, 45, 61
1, 81442, Control_c, 0, 64, 39
1, 81443, Note_on_c, 0, 43, 73
1, 81457, Control_c, 0, 64, 54
1, 81462, Note_off_c, 0, 40, 62
1, 81471, Control_c, 0, 64, 62
1, 81486, Control_c, 0, 64, 67
1, 81501, Control_c, 0, 64, 84
1, 81502, Note_on_c, 0, 37, 71
1, 81510, Note_off_c, 0, 43, 62
1, 81516, Control_c, 0, 64, 127
1, 81518, Note_off_c, 0, 70, 62
1, 81575, Note_on_c, 0, 41, 79
1, 81577, Note_off_c, 0, 37, 61
1, 81601, Note_off_c, 0, 79, 59
1, 81632, Note_off_c, 0, 82, 59
1, 81641, Note_on_c, 0, 37, 61
1, 81672, Note_off_c, 0, 41, 60
1, 81703, Note_on_c, 0, 40, 75
1, 81727, Note_off_c, 0, 37, 52
1, 81767, Note_on_c, 0, 34, 73
1, 81773, Note_off_c, 0, 40, 64
1, 81856, Note_on_c, 0, 38, 71
1, 81866, Note_off_c, 0, 34, 60
1, 81925, Note_on_c, 0, 34, 53
1, 81954, Note_off_c, 0, 38, 58
1, 81999, Note_off_c, 0, 34, 59
1, 82003, Note_on_c, 0, 37, 58
1, 82015, Note_on_c, 0, 31, 59
1, 82052, Note_off_c, 0, 37, 61
1, 82064, Note_off_c, 0, 31, 62
1, 82194, Note_on_c, 0, 39, 59
1, 82201, Note_on_c, 0, 27, 59
1, 82220, Control_c, 0, 64, 97
1, 82235, Control_c, 0, 64, 83
1, 82246, Note_on_c, 0, 96, 72
1, 82250, Control_c, 0, 64, 70
1, 82265, Control_c, 0, 64, 61
1, 82280, Control_c, 0, 64, 37
1, 82294, Control_c, 0, 64, 0
1, 82345, Note_on_c, 0, 87, 64
1, 82349, Note_off_c, 0, 96, 63
1, 82378, Note_off_c, 0, 27, 60
1, 82384, Control_c, 0, 64, 38
1, 82398, Control_c, 0, 64, 59
1, 82407, Note_on_c, 0, 94, 74
1, 82407, Note_off_c, 0, 87, 63
1, 82413, Control_c, 0, 64, 66
1, 82416, Note_off_c, 0, 39, 59
1, 82428, Control_c, 0, 64, 83
1, 82443, Control_c, 0, 64, 127
1, 82484, Note_on_c, 0, 85, 62
1, 82507, Note_on_c, 0, 92, 71
1, 82533, Note_off_c, 0, 85, 47
1, 82536, Note_off_c, 0, 94, 47
1, 82598, Note_on_c, 0, 87, 73
1, 82619, Note_off_c, 0, 92, 62
1, 82702, Note_on_c, 0, 63, 85
1, 82726, Note_on_c, 0, 91, 64
1, 82729, Note_off_c, 0, 87, 59
1, 82777, Note_off_c, 0, 91, 61
1, 82792, Note_on_c, 0, 85, 62
1, 82837, Note_off_c, 0, 85, 55
1, 82870, Note_on_c, 0, 89, 80
1, 82905, Note_off_c, 0, 63, 60
1, 82926, Note_on_c, 0, 85, 69
1, 82973, Note_on_c, 0, 87, 84
1, 82976, Note_on_c, 0, 63, 75
1, 82986, Note_off_c, 0, 89, 58
1, 82994, Note_off_c, 0, 85, 63
1, 83022, Note_off_c, 0, 63, 59
1, 83041, Note_on_c, 0, 79, 61
1, 83069, Note_off_c, 0, 87, 56
1, 83085, Note_on_c, 0, 60, 57
1, 83090, Note_on_c, 0, 63, 64
1, 83091, Note_on_c, 0, 51, 59
1, 83099, Note_off_c, 0, 79, 64
1, 83103, Control_c, 0, 64, 95
1, 83117, Note_on_c, 0, 89, 74
1, 83117, Control_c, 0, 64, 79
1, 83132, Control_c, 0, 64, 66
1, 83147, Control_c, 0, 64, 50
1, 83162, Control_c, 0, 64, 0
1, 83173, Note_on_c, 0, 84, 58
1, 83193, Note_off_c, 0, 89, 55
1, 83221, Control_c, 0, 64, 21
1, 83235, Note_on_c, 0, 87, 73
1, 83236, Control_c, 0, 64, 50
1, 83238, Note_off_c, 0, 84, 64
1, 83242, Note_off_c, 0, 51, 64
1, 83251, Control_c, 0, 64, 61
1, 83266, Control_c, 0, 64, 69
1, 83272, Note_off_c, 0, 87, 60
1, 83281, Control_c, 0, 64, 85
1, 83286, Note_off_c, 0, 63, 60
1, 83290, Note_on_c, 0, 80, 69
1, 83295, Control_c, 0, 64, 127
1, 83348, Note_off_c, 0, 80, 52
1, 83364, Note_on_c, 0, 85, 78
1, 83433, Note_on_c, 0, 80, 73
1, 83435, Note_off_c, 0, 85, 64
1, 83492, Note_on_c, 0, 68, 85
1, 83506, Note_off_c, 0, 80, 63
1, 83513, Note_on_c, 0, 84, 71
1, 83545, Note_on_c, 0, 75, 62
1, 83573, Note_off_c, 0, 84, 52
1, 83583, Note_off_c, 0, 75, 60
1, 83591, Note_off_c, 0, 60, 37
1, 83621, Note_on_c, 0, 82, 70
1, 83666, Note_on_c, 0, 75, 76
1, 83714, Note_off_c, 0, 68, 62
1, 83731, Note_on_c, 0, 80, 75
1, 83742, Note_off_c, 0, 75, 63
1, 83749, Note_on_c, 0, 60, 73
1, 83756, Note_off_c, 0, 82, 60
1, 83792, Note_on_c, 0, 72, 68
1, 83810, Note_off_c, 0, 80, 62
1, 83829, Note_off_c, 0, 72, 65
1, 83856, Note_on_c, 0, 63, 81
1, 83866, Control_c, 0, 64, 104
1, 83867, Note_on_c, 0, 51, 63
1, 83869, Note_on_c, 0, 84, 70
1, 83881, Control_c, 0, 64, 86
1, 83896, Control_c, 0, 64, 75
1, 83910, Control_c, 0, 64, 66
1, 83923, Note_off_c, 0, 84, 52
1, 83925, Control_c, 0, 64, 54
1, 83928, Note_off_c, 0, 60, 56
1, 83937, Note_on_c, 0, 75, 72
1, 83940, Control_c, 0, 64, 25
1, 83955, Control_c, 0, 64, 0
1, 84002, Note_off_c, 0, 75, 62
1, 84008, Note_on_c, 0, 82, 63
1, 84044, Control_c, 0, 64, 20
1, 84052, Note_off_c, 0, 82, 62
1, 84053, Note_on_c, 0, 73, 69
1, 84066, Control_c, 0, 64, 39
1, 84081, Control_c, 0, 64, 51
1, 84096, Control_c, 0, 64, 58
1, 84105, Note_off_c, 0, 73, 63
1, 84110, Control_c, 0, 64, 63
1, 84111, Note_on_c, 0, 81, 69
1, 84125, Control_c, 0, 64, 69
1, 84140, Control_c, 0, 64, 82
1, 84155, Control_c, 0, 64, 127
1, 84179, Note_off_c, 0, 81, 64
1, 84184, Note_on_c, 0, 75, 76
1, 84232, Note_on_c, 0, 58, 79
1, 84239, Note_on_c, 0, 82, 67
1, 84250, Note_off_c, 0, 75, 62
1, 84257, Note_off_c, 0, 63, 59
1, 84302, Note_off_c, 0, 82, 63
1, 84303, Note_on_c, 0, 73, 73
1, 84351, Note_off_c, 0, 73, 50
1, 84363, Note_on_c, 0, 85, 74
1, 84414, Note_off_c, 0, 58, 59
1, 84428, Note_on_c, 0, 63, 70
1, 84434, Note_on_c, 0, 75, 73
1, 84455, Note_off_c, 0, 85, 57
1, 84455, Note_off_c, 0, 63, 66
1, 84473, Note_off_c, 0, 51, 64
1, 84482, Note_on_c, 0, 79, 67
1, 84527, Control_c, 0, 64, 111
1, 84527, Note_off_c, 0, 75, 0
1, 84537, Note_on_c, 0, 75, 50
1, 84539, Note_off_c, 0, 79, 64
1, 84541, Control_c, 0, 64, 87
1, 84556, Control_c, 0, 64, 72
1, 84564, Note_on_c, 0, 51, 62
1, 84566, Note_on_c, 0, 44, 51
1, 84571, Control_c, 0, 64, 55
1, 84586, Control_c, 0, 64, 0
1, 84615, Note_off_c, 0, 44, 63
1, 84623, Note_off_c, 0, 75, 61
1, 84637, Note_on_c, 0, 82, 59
1, 84660, Control_c, 0, 64, 49
1, 84670, Note_on_c, 0, 60, 73
1, 84675, Control_c, 0, 64, 61
1, 84689, Control_c, 0, 64, 68
1, 84691, Note_on_c, 0, 75, 47
1, 84704, Control_c, 0, 64, 80
1, 84719, Control_c, 0, 64, 127
1, 84757, Note_on_c, 0, 80, 69
1, 84764, Note_off_c, 0, 75, 61
1, 84794, Note_off_c, 0, 82, 60
1, 84804, Note_off_c, 0, 60, 55
1, 84825, Note_on_c, 0, 72, 57
1, 84858, Note_off_c, 0, 80, 60
1, 84871, Note_on_c, 0, 79, 68
1, 84909, Note_off_c, 0, 72, 40
1, 84911, Note_off_c, 0, 51, 36
1, 84935, Note_on_c, 0, 75, 72
1, 84939, Note_off_c, 0, 79, 65
1, 85001, Note_on_c, 0, 80, 60
1, 85012, Note_off_c, 0, 75, 60
1, 85068, Note_off_c, 0, 80, 59
1, 85070, Note_on_c, 0, 72, 52
1, 85122, Note_on_c, 0, 82, 55
1, 85129, Note_off_c, 0, 72, 49
1, 85199, Note_on_c, 0, 75, 52
1, 85233, Note_off_c, 0, 82, 56
1, 85254, Note_off_c, 0, 75, 52
1, 85257, Note_on_c, 0, 80, 58
1, 85324, Note_off_c, 0, 80, 59
1, 85335, Note_on_c, 0, 72, 42
1, 85369, Note_off_c, 0, 72, 54
1, 85468, Control_c, 0, 64, 107
1, 85476, Note_on_c, 0, 47, 24
1, 85483, Control_c, 0, 64, 94
1, 85484, Note_on_c, 0, 35, 30
1, 85498, Control_c, 0, 64, 81
1, 85512, Control_c, 0, 64, 72
1, 85527, Control_c, 0, 64, 63
1, 85541, Note_on_c, 0, 92, 58
1, 85542, Control_c, 0, 64, 49
1, 85564, Control_c, 0, 64, 27
1, 85579, Control_c, 0, 64, 17
1, 85624, Control_c, 0, 64, 30
1, 85638, Control_c, 0, 64, 49
1, 85645, Note_on_c, 0, 83, 39
1, 85647, Note_off_c, 0, 92, 59
1, 85653, Control_c, 0, 64, 60
1, 85668, Control_c, 0, 64, 65
1, 85681, Note_off_c, 0, 35, 41
1, 85683, Note_off_c, 0, 83, 51
1, 85683, Control_c, 0, 64, 70
1, 85698, Control_c, 0, 64, 89
1, 85699, Note_off_c, 0, 47, 39
1, 85703, Note_on_c, 0, 90, 56
1, 85712, Control_c, 0, 64, 127
1, 85743, Note_off_c, 0, 90, 63
1, 85776, Note_on_c, 0, 81, 48
1, 85832, Note_off_c, 0, 81, 58
1, 85832, Note_on_c, 0, 88, 63
1, 85887, Note_on_c, 0, 83, 56
1, 85928, Note_off_c, 0, 88, 58
1, 85941, Note_on_c, 0, 59, 67
1, 85958, Note_off_c, 0, 83, 64
1, 85961, Note_on_c, 0, 87, 65
1, 86002, Note_off_c, 0, 87, 60
1, 86025, Note_on_c, 0, 81, 45
1, 86071, Note_off_c, 0, 81, 61
1, 86089, Note_on_c, 0, 85, 65
1, 86096, Note_off_c, 0, 59, 62
1, 86148, Note_on_c, 0, 81, 62
1, 86174, Note_on_c, 0, 59, 61
1, 86176, Note_off_c, 0, 85, 56
1, 86196, Note_off_c, 0, 81, 61
1, 86199, Note_on_c, 0, 83, 58
1, 86202, Note_off_c, 0, 59, 65
1, 86246, Note_on_c, 0, 78, 62
1, 86246, Note_off_c, 0, 83, 63
1, 86274, Note_off_c, 0, 78, 65
1, 86276, Control_c, 0, 64, 94
1, 86291, Control_c, 0, 64, 78
1, 86294, Note_on_c, 0, 47, 42
1, 86295, Note_on_c, 0, 59, 58
1, 86313, Control_c, 0, 64, 68
1, 86318, Note_on_c, 0, 56, 43
1, 86327, Note_on_c, 0, 88, 58
1, 86328, Control_c, 0, 64, 60
1, 86342, Control_c, 0, 64, 48
1, 86357, Control_c, 0, 64, 46
1, 86372, Control_c, 0, 64, 48
1, 86375, Note_on_c, 0, 80, 65
1, 86378, Note_off_c, 0, 88, 58
1, 86387, Control_c, 0, 64, 56
1, 86402, Control_c, 0, 64, 62
1, 86409, Note_off_c, 0, 80, 63
1, 86417, Control_c, 0, 64, 67
1, 86424, Note_off_c, 0, 47, 54
1, 86432, Control_c, 0, 64, 78
1, 86441, Note_off_c, 0, 59, 57
1, 86441, Note_on_c, 0, 87, 66
1, 86447, Control_c, 0, 64, 127
1, 86494, Note_off_c, 0, 87, 54
1, 86504, Note_on_c, 0, 80, 69
1, 86557, Note_on_c, 0, 85, 65
1, 86603, Note_off_c, 0, 85, 63
1, 86648, Note_on_c, 0, 64, 77
1, 86660, Note_off_c, 0, 80, 54
1, 86691, Note_on_c, 0, 76, 37
1, 86721, Note_off_c, 0, 76, 54
1, 86727, Note_off_c, 0, 56, 41
1, 86738, Note_on_c, 0, 81, 72
1, 86799, Note_on_c, 0, 76, 70
1, 86805, Note_off_c, 0, 81, 55
1, 86812, Note_off_c, 0, 64, 58
1, 86866, Note_off_c, 0, 76, 63
1, 86870, Note_on_c, 0, 80, 70
1, 86876, Note_on_c, 0, 56, 72
1, 86898, Note_off_c, 0, 80, 65
1, 86937, Note_off_c, 0, 56, 60
1, 86994, Note_on_c, 0, 59, 68
1, 86995, Note_on_c, 0, 80, 73
1, 86995, Control_c, 0, 64, 87
1, 87001, Note_on_c, 0, 47, 62
1, 87010, Control_c, 0, 64, 71
1, 87013, Poly_aftertouch_c, 0, 71, 0
1, 87025, Control_c, 0, 64, 61
1, 87040, Control_c, 0, 64, 45
1, 87059, Note_on_c, 0, 75, 65
1, 87062, Control_c, 0, 64, 41
1, 87072, Note_off_c, 0, 80, 58
1, 87077, Control_c, 0, 64, 47
1, 87091, Control_c, 0, 64, 59
1, 87100, Note_off_c, 0, 75, 57
1, 87106, Control_c, 0, 64, 64
1, 87121, Control_c, 0, 64, 68
1, 87128, Note_on_c, 0, 78, 71
1, 87135, Control_c, 0, 64, 75
1, 87150, Control_c, 0, 64, 97
1, 87165, Control_c, 0, 64, 127
1, 87195, Note_off_c, 0, 78, 59
1, 87201, Note_on_c, 0, 75, 70
1, 87231, Note_on_c, 0, 77, 72
1, 87272, Note_off_c, 0, 75, 59
1, 87323, Note_on_c, 0, 69, 62
1, 87326, Note_off_c, 0, 77, 62
1, 87343, Note_on_c, 0, 54, 71
1, 87347, Note_off_c, 0, 59, 57
1, 87355, Note_off_c, 0, 69, 62
1, 87359, Note_on_c, 0, 78, 54
1, 87421, Note_off_c, 0, 78, 64
1, 87429, Note_on_c, 0, 81, 56
1, 87462, Note_on_c, 0, 71, 63
1, 87464, Note_off_c, 0, 81, 64
1, 87469, Note_on_c, 0, 56, 77
1, 87502, Note_off_c, 0, 54, 62
1, 87526, Note_off_c, 0, 71, 60
1, 87529, Note_on_c, 0, 75, 85
1, 87549, Note_off_c, 0, 56, 63
1, 87565, Note_on_c, 0, 57, 71
1, 87578, Note_off_c, 0, 47, 62
1, 87594, Note_off_c, 0, 57, 66
1, 87597, Note_off_c, 0, 75, 61
1, 87600, Note_on_c, 0, 69, 62
1, 87655, Control_c, 0, 64, 106
1, 87659, Note_off_c, 0, 69, 56
1, 87670, Control_c, 0, 64, 86
1, 87680, Note_on_c, 0, 78, 75
1, 87685, Control_c, 0, 64, 72
1, 87690, Note_on_c, 0, 40, 59
1, 87699, Control_c, 0, 64, 60
1, 87714, Control_c, 0, 64, 24
1, 87729, Control_c, 0, 64, 0
1, 87737, Note_on_c, 0, 47, 55
1, 87750, Note_on_c, 0, 71, 60
1, 87755, Note_off_c, 0, 40, 62
1, 87755, Note_off_c, 0, 78, 59
1, 87788, Control_c, 0, 64, 45
1, 87811, Control_c, 0, 64, 59
1, 87826, Control_c, 0, 64, 66
1, 87827, Note_off_c, 0, 71, 63
1, 87840, Note_on_c, 0, 56, 71
1, 87840, Control_c, 0, 64, 83
1, 87847, Note_on_c, 0, 77, 65
1, 87855, Control_c, 0, 64, 127
1, 87865, Note_off_c, 0, 47, 55
1, 87868, Note_on_c, 0, 68, 53
1, 87897, Note_off_c, 0, 56, 61
1, 87924, Note_on_c, 0, 76, 67
1, 87928, Note_off_c, 0, 68, 60
1, 87998, Note_on_c, 0, 71, 63
1, 87999, Note_off_c, 0, 77, 47
1, 88009, Note_off_c, 0, 76, 59
1, 88057, Note_on_c, 0, 75, 71
1, 88080, Note_off_c, 0, 71, 63
1, 88124, Note_off_c, 0, 75, 61
1, 88126, Note_on_c, 0, 68, 63
1, 88187, Note_on_c, 0, 74, 65
1, 88202, Note_off_c, 0, 68, 58
1, 88235, Note_on_c, 0, 71, 56
1, 88264, Note_off_c, 0, 74, 61
1, 88284, Note_on_c, 0, 73, 61
1, 88301, Note_off_c, 0, 71, 59
1, 88342, Note_on_c, 0, 68, 62
1, 88352, Note_off_c, 0, 73, 63
1, 88421, Note_off_c, 0, 68, 54
1, 88451, Note_on_c, 0, 52, 74
1, 88462, Note_on_c, 0, 40, 64
1, 88466, Note_on_c, 0, 73, 60
1, 88478, Control_c, 0, 64, 97
1, 88493, Control_c, 0, 64, 80
1, 88508, Control_c, 0, 64, 67
1, 88522, Note_off_c, 0, 73, 54
1, 88523, Control_c, 0, 64, 56
1, 88535, Note_on_c, 0, 68, 56
1, 88537, Control_c, 0, 64, 38
1, 88560, Control_c, 0, 64, 33
1, 88579, Note_on_c, 0, 71, 64
1, 88587, Note_off_c, 0, 68, 56
1, 88589, Control_c, 0, 64, 38
1, 88605, Control_c, 0, 64, 49
1, 88620, Control_c, 0, 64, 59
1, 88634, Control_c, 0, 64, 66
1, 88641, Note_on_c, 0, 62, 66
1, 88649, Control_c, 0, 64, 77
1, 88651, Note_off_c, 0, 71, 60
1, 88664, Control_c, 0, 64, 127
1, 88679, Note_off_c, 0, 52, 62
1, 88688, Note_off_c, 0, 62, 63
1, 88709, Note_off_c, 0, 40, 63
1, 88710, Note_on_c, 0, 73, 58
1, 88754, Note_on_c, 0, 68, 68
1, 88778, Note_off_c, 0, 73, 60
1, 88782, Note_off_c, 0, 68, 66
1, 88798, Note_on_c, 0, 71, 53
1, 88813, Note_on_c, 0, 47, 83
1, 88816, Note_on_c, 0, 35, 79
1, 88825, Note_off_c, 0, 71, 66
1, 88840, Note_off_c, 0, 47, 67
1, 88848, Note_off_c, 0, 35, 64
1, 88872, Note_on_c, 0, 74, 59
1, 88882, Note_on_c, 0, 76, 68
1, 88915, Note_off_c, 0, 74, 61
1, 88917, Note_off_c, 0, 76, 58
1, 88923, Note_on_c, 0, 44, 99
1, 88925, Note_on_c, 0, 32, 97
1, 88931, Note_on_c, 0, 85, 88
1, 88956, Note_off_c, 0, 44, 63
1, 88959, Note_off_c, 0, 32, 63
1, 88979, Note_on_c, 0, 80, 80
1, 88999, Note_off_c, 0, 85, 63
1, 89033, Note_on_c, 0, 83, 79
1, 89035, Note_on_c, 0, 47, 103
1, 89040, Note_on_c, 0, 35, 97
1, 89054, Note_off_c, 0, 80, 64
1, 89066, Note_off_c, 0, 47, 69
1, 89073, Note_off_c, 0, 35, 61
1, 89076, Note_off_c, 0, 83, 63
1, 89106, Note_on_c, 0, 86, 83
1, 89154, Note_off_c, 0, 86, 60
1, 89163, Note_on_c, 0, 28, 101
1, 89163, Note_on_c, 0, 40, 96
1, 89168, Control_c, 0, 64, 98
1, 89179, Note_on_c, 0, 97, 87
1, 89183, Control_c, 0, 64, 74
1, 89198, Control_c, 0, 64, 57
1, 89213, Control_c, 0, 64, 0
1, 89231, Note_on_c, 0, 92, 82
1, 89243, Note_off_c, 0, 28, 62
1, 89261, Note_off_c, 0, 40, 62
1, 89270, Note_off_c, 0, 97, 63
1, 89290, Note_on_c, 0, 95, 88
1, 89316, Note_off_c, 0, 92, 66
1, 89351, Note_off_c, 0, 95, 67
1, 89358, Note_on_c, 0, 86, 84
1, 89391, Note_off_c, 0, 86, 65
1, 89439, Note_on_c, 0, 85, 83
1, 89481, Note_on_c, 0, 52, 68
1, 89483, Note_on_c, 0, 40, 65
1, 89499, Note_off_c, 0, 52, 66
1, 89501, Note_on_c, 0, 80, 73
1, 89512, Note_off_c, 0, 40, 37
1, 89518, Note_off_c, 0, 85, 62
1, 89540, Note_on_c, 0, 42, 85
1, 89542, Note_on_c, 0, 54, 90
1, 89559, Note_on_c, 0, 83, 81
1, 89560, Note_on_c, 0, 41, 59
1, 89563, Note_on_c, 0, 53, 67
1, 89568, Note_off_c, 0, 80, 64
1, 89578, Note_on_c, 0, 40, 49
1, 89594, Note_off_c, 0, 53, 49
1, 89597, Note_off_c, 0, 41, 50
1, 89604, Control_c, 0, 64, 49
1, 89608, Note_off_c, 0, 83, 67
1, 89609, Note_off_c, 0, 40, 55
1, 89619, Control_c, 0, 64, 62
1, 89625, Note_on_c, 0, 74, 80
1, 89634, Control_c, 0, 64, 67
1, 89649, Control_c, 0, 64, 80
1, 89660, Note_off_c, 0, 74, 66
1, 89664, Control_c, 0, 64, 127
1, 89705, Note_on_c, 0, 73, 81
1, 89725, Note_off_c, 0, 54, 62
1, 89753, Note_on_c, 0, 68, 70
1, 89791, Note_off_c, 0, 42, 58
1, 89805, Note_on_c, 0, 71, 73
1, 89805, Note_off_c, 0, 73, 56
1, 89817, Note_on_c, 0, 40, 74
1, 89817, Note_on_c, 0, 52, 67
1, 89817, Note_off_c, 0, 68, 63
1, 89839, Note_off_c, 0, 52, 65
1, 89851, Note_off_c, 0, 71, 64
1, 89856, Note_on_c, 0, 62, 72
1, 89863, Note_off_c, 0, 40, 57
1, 89872, Control_c, 0, 64, 88
1, 89886, Control_c, 0, 64, 59
1, 89889, Poly_aftertouch_c, 0, 70, 0
1, 89895, Note_on_c, 0, 51, 84
1, 89895, Note_off_c, 0, 62, 57
1, 89896, Note_on_c, 0, 39, 72
1, 89901, Control_c, 0, 64, 0
1, 89925, Note_on_c, 0, 74, 83
1, 89980, Note_off_c, 0, 74, 64
1, 89985, Note_on_c, 0, 67, 74
1, 89991, Control_c, 0, 64, 62
1, 90006, Control_c, 0, 64, 86
1, 90021, Control_c, 0, 64, 127
1, 90036, Note_on_c, 0, 72, 74
1, 90041, Note_off_c, 0, 67, 64
1, 90087, Note_on_c, 0, 60, 62
1, 90089, Note_off_c, 0, 72, 62
1, 90108, Note_off_c, 0, 51, 62
1, 90110, Note_off_c, 0, 60, 64
1, 90151, Note_on_c, 0, 77, 96
1, 90205, Note_off_c, 0, 39, 59
1, 90208, Note_on_c, 0, 72, 87
1, 90216, Note_off_c, 0, 77, 61
1, 90220, Control_c, 0, 64, 113
1, 90234, Control_c, 0, 64, 79
1, 90249, Control_c, 0, 64, 62
1, 90264, Control_c, 0, 64, 43
1, 90265, Note_on_c, 0, 48, 80
1, 90268, Note_on_c, 0, 36, 76
1, 90268, Note_on_c, 0, 75, 87
1, 90279, Control_c, 0, 64, 29
1, 90284, Note_off_c, 0, 72, 63
1, 90294, Control_c, 0, 64, 30
1, 90308, Control_c, 0, 64, 48
1, 90323, Note_on_c, 0, 67, 70
1, 90323, Control_c, 0, 64, 63
1, 90325, Note_off_c, 0, 75, 63
1, 90338, Control_c, 0, 64, 72
1, 90350, Note_off_c, 0, 67, 68
1, 90352, Control_c, 0, 64, 108
1, 90367, Control_c, 0, 64, 127
1, 90384, Note_off_c, 0, 36, 58
1, 90386, Note_on_c, 0, 80, 85
1, 90393, Note_off_c, 0, 48, 63
1, 90436, Note_on_c, 0, 75, 75
1, 90447, Poly_aftertouch_c, 0, 43, 127
1, 90479, Note_off_c, 0, 80, 58
1, 90485, Note_on_c, 0, 79, 82
1, 90486, Note_off_c, 0, 75, 64
1, 90545, Control_c, 0, 64, 107
1, 90548, Note_off_c, 0, 79, 65
1, 90551, Note_on_c, 0, 72, 68
1, 90560, Control_c, 0, 64, 85
1, 90575, Control_c, 0, 64, 71
1, 90581, Note_off_c, 0, 72, 67
1, 90590, Control_c, 0, 64, 61
1, 90604, Note_on_c, 0, 51, 69
1, 90605, Control_c, 0, 64, 40
1, 90605, Poly_aftertouch_c, 0, 43, 0
1, 90607, Note_on_c, 0, 39, 62
1, 90616, Note_on_c, 0, 84, 92
1, 90620, Control_c, 0, 64, 0
1, 90649, Control_c, 0, 64, 25
1, 90664, Control_c, 0, 64, 52
1, 90674, Note_off_c, 0, 84, 64
1, 90679, Note_on_c, 0, 79, 61
1, 90679, Control_c, 0, 64, 64
1, 90694, Control_c, 0, 64, 72
1, 90708, Control_c, 0, 64, 97
1, 90723, Control_c, 0, 64, 127
1, 90745, Note_off_c, 0, 51, 55
1, 90748, Note_on_c, 0, 83, 76
1, 90748, Note_off_c, 0, 79, 65
1, 90754, Note_off_c, 0, 39, 60
1, 90796, Note_on_c, 0, 75, 69
1, 90871, Note_on_c, 0, 82, 80
1, 90871, Note_off_c, 0, 75, 57
1, 90876, Note_off_c, 0, 83, 63
1, 90925, Note_off_c, 0, 82, 63
1, 90929, Note_on_c, 0, 75, 55
1, 90961, Note_on_c, 0, 53, 77
1, 90969, Note_on_c, 0, 41, 68
1, 90984, Note_off_c, 0, 75, 61
1, 90986, Note_on_c, 0, 81, 78
1, 90991, Note_off_c, 0, 53, 67
1, 90999, Note_off_c, 0, 41, 65
1, 91027, Note_on_c, 0, 75, 61
1, 91072, Note_on_c, 0, 54, 102
1, 91075, Note_on_c, 0, 42, 94
1, 91084, Note_on_c, 0, 80, 86
1, 91090, Note_off_c, 0, 75, 64
1, 91102, Note_off_c, 0, 42, 69
1, 91113, Note_off_c, 0, 81, 63
1, 91115, Note_off_c, 0, 54, 66
1, 91144, Note_on_c, 0, 75, 83
1, 91162, Note_off_c, 0, 80, 64
1, 91176, Note_on_c, 0, 55, 88
1, 91179, Note_on_c, 0, 43, 95
1, 91204, Note_on_c, 0, 79, 85
1, 91211, Note_on_c, 0, 49, 51
1, 91218, Note_off_c, 0, 75, 64
1, 91229, Note_on_c, 0, 72, 78
1, 91229, Note_off_c, 0, 55, 64
1, 91234, Note_off_c, 0, 43, 64
1, 91245, Note_off_c, 0, 49, 55
1, 91249, Note_off_c, 0, 79, 65
1, 91264, Control_c, 0, 64, 105
1, 91279, Control_c, 0, 64, 87
1, 91293, Note_off_c, 0, 72, 61
1, 91294, Control_c, 0, 64, 76
1, 91303, Note_on_c, 0, 56, 99
1, 91308, Note_on_c, 0, 44, 85
1, 91309, Control_c, 0, 64, 64
1, 91323, Note_on_c, 0, 77, 92
1, 91323, Control_c, 0, 64, 29
1, 91338, Control_c, 0, 64, 0
1, 91369, Note_on_c, 0, 72, 56
1, 91394, Note_off_c, 0, 77, 64
1, 91427, Note_on_c, 0, 75, 79
1, 91442, Control_c, 0, 64, 45
1, 91446, Note_off_c, 0, 72, 64
1, 91457, Control_c, 0, 64, 77
1, 91467, Note_off_c, 0, 56, 62
1, 91472, Control_c, 0, 64, 127
1, 91473, Note_on_c, 0, 66, 76
1, 91496, Note_off_c, 0, 75, 59
1, 91508, Note_off_c, 0, 44, 63
1, 91527, Note_off_c, 0, 66, 62
1, 91535, Note_on_c, 0, 77, 83
1, 91582, Note_on_c, 0, 72, 72
1, 91592, Note_off_c, 0, 77, 63
1, 91641, Note_on_c, 0, 75, 82
1, 91644, Note_on_c, 0, 51, 86
1, 91648, Note_on_c, 0, 39, 79
1, 91651, Note_off_c, 0, 72, 64
1, 91671, Note_off_c, 0, 51, 67
1, 91676, Note_off_c, 0, 75, 62
1, 91679, Note_off_c, 0, 39, 66
1, 91723, Note_on_c, 0, 80, 82
1, 91749, Note_on_c, 0, 48, 103
1, 91751, Note_on_c, 0, 36, 92
1, 91764, Note_on_c, 0, 91, 93
1, 91766, Note_off_c, 0, 80, 61
1, 91784, Note_off_c, 0, 48, 66
1, 91788, Note_off_c, 0, 36, 62
1, 91819, Note_off_c, 0, 91, 66
1, 91830, Note_on_c, 0, 86, 70
1, 91833, Note_on_c, 0, 85, 72
1, 91849, Poly_aftertouch_c, 0, 39, 0
1, 91857, Note_off_c, 0, 85, 71
1, 91859, Note_on_c, 0, 39, 60
1, 91862, Note_on_c, 0, 51, 110
1, 91882, Note_off_c, 0, 86, 65
1, 91887, Note_on_c, 0, 88, 62
1, 91893, Note_off_c, 0, 51, 66
1, 91905, Note_off_c, 0, 88, 67
1, 91913, Note_off_c, 0, 39, 61
1, 91935, Note_on_c, 0, 90, 89
1, 91983, Note_on_c, 0, 32, 95
1, 91984, Note_on_c, 0, 44, 109
1, 91992, Note_off_c, 0, 90, 63
1, 91996, Note_on_c, 0, 101, 99
1, 91997, Control_c, 0, 64, 109
1, 92012, Control_c, 0, 64, 80
1, 92027, Control_c, 0, 64, 63
1, 92042, Control_c, 0, 64, 36
1, 92049, Note_on_c, 0, 96, 66
1, 92057, Note_off_c, 0, 101, 64
1, 92057, Note_off_c, 0, 32, 63
1, 92057, Control_c, 0, 64, 0
1, 92069, Note_off_c, 0, 44, 61
1, 92098, Note_on_c, 0, 99, 85
1, 92126, Note_off_c, 0, 96, 66
1, 92158, Note_on_c, 0, 90, 86
1, 92160, Note_off_c, 0, 99, 64
1, 92185, Note_off_c, 0, 90, 65
1, 92239, Note_on_c, 0, 89, 91
1, 92278, Note_on_c, 0, 44, 93
1, 92279, Note_on_c, 0, 56, 92
1, 92308, Note_off_c, 0, 44, 67
1, 92308, Note_off_c, 0, 56, 70
1, 92319, Note_on_c, 0, 84, 76
1, 92328, Note_off_c, 0, 89, 48
1, 92365, Note_on_c, 0, 46, 95
1, 92365, Note_on_c, 0, 87, 87
1, 92367, Note_on_c, 0, 58, 99
1, 92380, Note_off_c, 0, 84, 64
1, 92410, Note_off_c, 0, 87, 63
1, 92421, Control_c, 0, 64, 58
1, 92436, Control_c, 0, 64, 71
1, 92437, Note_on_c, 0, 78, 64
1, 92451, Control_c, 0, 64, 88
1, 92456, Note_off_c, 0, 78, 66
1, 92466, Control_c, 0, 64, 127
1, 92503, Note_on_c, 0, 76, 84
1, 92539, Note_off_c, 0, 58, 59
1, 92559, Note_off_c, 0, 76, 65
1, 92566, Note_on_c, 0, 72, 67
1, 92572, Note_off_c, 0, 46, 60
1, 92609, Note_on_c, 0, 75, 82
1, 92617, Note_off_c, 0, 72, 63
1, 92623, Note_on_c, 0, 56, 85
1, 92625, Note_on_c, 0, 44, 76
1, 92642, Note_on_c, 0, 66, 69
1, 92653, Note_off_c, 0, 44, 65
1, 92655, Note_off_c, 0, 56, 65
1, 92674, Control_c, 0, 64, 90
1, 92682, Note_off_c, 0, 75, 60
1, 92689, Control_c, 0, 64, 71
1, 92703, Control_c, 0, 64, 55
1, 92707, Note_on_c, 0, 55, 80
1, 92708, Note_on_c, 0, 43, 78
1, 92710, Note_on_c, 0, 78, 84
1, 92718, Control_c, 0, 64, 0
1, 92721, Note_off_c, 0, 66, 62
1, 92766, Note_off_c, 0, 78, 65
1, 92768, Note_on_c, 0, 71, 36
1, 92777, Control_c, 0, 64, 21
1, 92792, Control_c, 0, 64, 55
1, 92807, Control_c, 0, 64, 66
1, 92821, Control_c, 0, 64, 83
1, 92822, Note_on_c, 0, 76, 72
1, 92836, Control_c, 0, 64, 127
1, 92838, Note_off_c, 0, 71, 63
1, 92864, Note_off_c, 0, 55, 60
1, 92867, Note_on_c, 0, 64, 68
1, 92881, Note_off_c, 0, 76, 64
1, 92894, Note_off_c, 0, 64, 67
1, 92940, Note_on_c, 0, 81, 87
1, 92990, Note_on_c, 0, 76, 74
1, 92996, Note_off_c, 0, 81, 64
1, 92996, Note_off_c, 0, 43, 25
1, 93028, Control_c, 0, 64, 97
1, 93043, Control_c, 0, 64, 76
1, 93056, Note_on_c, 0, 79, 83
1, 93066, Control_c, 0, 64, 65
1, 93067, Note_on_c, 0, 52, 82
1, 93069, Note_on_c, 0, 40, 80
1, 93076, Note_off_c, 0, 76, 64
1, 93081, Control_c, 0, 64, 54
1, 93095, Note_on_c, 0, 71, 76
1, 93096, Control_c, 0, 64, 49
1, 93110, Control_c, 0, 64, 57
1, 93115, Note_off_c, 0, 79, 65
1, 93125, Control_c, 0, 64, 66
1, 93130, Note_off_c, 0, 71, 65
1, 93140, Control_c, 0, 64, 81
1, 93156, Control_c, 0, 64, 127
1, 93173, Note_on_c, 0, 84, 91
1, 93189, Note_off_c, 0, 40, 61
1, 93204, Note_off_c, 0, 52, 64
1, 93226, Note_on_c, 0, 79, 78
1, 93278, Note_off_c, 0, 84, 35
1, 93281, Note_on_c, 0, 83, 83
1, 93292, Note_off_c, 0, 79, 65
1, 93333, Note_on_c, 0, 76, 66
1, 93338, Note_off_c, 0, 83, 63
1, 93373, Note_off_c, 0, 76, 61
1, 93378, Control_c, 0, 64, 103
1, 93392, Control_c, 0, 64, 79
1, 93401, Note_on_c, 0, 88, 85
1, 93407, Control_c, 0, 64, 65
1, 93409, Note_on_c, 0, 55, 62
1, 93414, Note_on_c, 0, 43, 60
1, 93422, Control_c, 0, 64, 40
1, 93437, Control_c, 0, 64, 0
1, 93452, Note_on_c, 0, 82, 61
1, 93467, Control_c, 0, 64, 34
1, 93481, Control_c, 0, 64, 57
1, 93496, Control_c, 0, 64, 66
1, 93502, Note_off_c, 0, 82, 65
1, 93511, Control_c, 0, 64, 79
1, 93519, Note_on_c, 0, 83, 56
1, 93526, Control_c, 0, 64, 127
1, 93531, Note_on_c, 0, 87, 78
1, 93532, Note_off_c, 0, 88, 57
1, 93541, Note_off_c, 0, 83, 58
1, 93568, Note_off_c, 0, 43, 53
1, 93580, Note_off_c, 0, 55, 57
1, 93592, Note_off_c, 0, 87, 63
1, 93594, Note_on_c, 0, 79, 54
1, 93627, Note_on_c, 0, 86, 81
1, 93636, Note_off_c, 0, 79, 63
1, 93699, Note_on_c, 0, 79, 61
1, 93717, Note_on_c, 0, 57, 83
1, 93720, Note_on_c, 0, 45, 79
1, 93730, Note_on_c, 0, 85, 80
1, 93735, Note_off_c, 0, 79, 64
1, 93742, Note_off_c, 0, 86, 57
1, 93754, Note_off_c, 0, 45, 65
1, 93754, Note_off_c, 0, 57, 63
1, 93788, Note_on_c, 0, 79, 67
1, 93791, Note_off_c, 0, 85, 64
1, 93848, Note_on_c, 0, 58, 95
1, 93851, Note_on_c, 0, 46, 90
1, 93854, Note_on_c, 0, 84, 97
1, 93871, Note_on_c, 0, 59, 71
1, 93876, Note_off_c, 0, 46, 70
1, 93882, Note_off_c, 0, 79, 0
1, 93890, Note_off_c, 0, 58, 60
1, 93898, Note_on_c, 0, 79, 52
1, 93899, Note_off_c, 0, 59, 66
1, 93915, Note_off_c, 0, 84, 63
1, 93955, Note_on_c, 0, 59, 98
1, 93960, Note_on_c, 0, 47, 101
1, 93969, Note_on_c, 0, 83, 94
1, 93976, Note_off_c, 0, 79, 66
1, 94001, Note_off_c, 0, 47, 64
1, 94003, Note_off_c, 0, 59, 65
1, 94008, Note_on_c, 0, 76, 80
1, 94034, Note_off_c, 0, 83, 63
1, 94078, Note_on_c, 0, 60, 105
1, 94081, Note_on_c, 0, 82, 102
1, 94081, Note_on_c, 0, 48, 111
1, 94096, Note_off_c, 0, 76, 64
1, 94112, Control_c, 0, 64, 107
1, 94127, Control_c, 0, 64, 74
1, 94136, Note_on_c, 0, 76, 76
1, 94142, Control_c, 0, 64, 43
1, 94146, Note_off_c, 0, 60, 66
1, 94152, Note_off_c, 0, 82, 65
1, 94156, Control_c, 0, 64, 0
1, 94172, Note_off_c, 0, 48, 65
1, 94183, Note_off_c, 0, 76, 63
1, 94206, Note_on_c, 0, 81, 81
1, 94267, Note_on_c, 0, 76, 87
1, 94277, Note_off_c, 0, 81, 66
1, 94319, Note_on_c, 0, 80, 72
1, 94340, Note_off_c, 0, 76, 62
1, 94379, Note_on_c, 0, 79, 66
1, 94396, Note_on_c, 0, 70, 78
1, 94399, Note_off_c, 0, 80, 62
1, 94401, Note_on_c, 0, 36, 93
1, 94423, Control_c, 0, 64, 57
1, 94432, Note_on_c, 0, 43, 65
1, 94438, Note_off_c, 0, 70, 58
1, 94438, Control_c, 0, 64, 104
1, 94453, Control_c, 0, 64, 127
1, 94459, Note_off_c, 0, 36, 60
1, 94464, Note_on_c, 0, 76, 77
1, 94470, Note_off_c, 0, 79, 65
1, 94506, Note_on_c, 0, 52, 76
1, 94507, Note_off_c, 0, 43, 63
1, 94537, Note_on_c, 0, 81, 86
1, 94540, Note_off_c, 0, 52, 64
1, 94542, Note_off_c, 0, 76, 62
1, 94585, Note_on_c, 0, 70, 76
1, 94593, Control_c, 0, 64, 108
1, 94596, Note_off_c, 0, 81, 65
1, 94608, Control_c, 0, 64, 77
1, 94622, Note_off_c, 0, 70, 65
1, 94623, Control_c, 0, 64, 60
1, 94638, Control_c, 0, 64, 0
1, 94652, Note_on_c, 0, 79, 89
1, 94692, Note_on_c, 0, 72, 71
1, 94706, Note_off_c, 0, 79, 66
1, 94754, Note_on_c, 0, 41, 92
1, 94762, Note_off_c, 0, 72, 63
1, 94763, Note_on_c, 0, 79, 86
1, 94786, Note_on_c, 0, 48, 75
1, 94802, Control_c, 0, 64, 64
1, 94817, Control_c, 0, 64, 104
1, 94820, Note_on_c, 0, 72, 78
1, 94831, Control_c, 0, 64, 127
1, 94832, Note_off_c, 0, 79, 63
1, 94835, Note_off_c, 0, 41, 63
1, 94867, Note_off_c, 0, 48, 64
1, 94870, Note_on_c, 0, 57, 60
1, 94885, Note_on_c, 0, 78, 77
1, 94891, Note_off_c, 0, 57, 63
1, 94907, Note_off_c, 0, 72, 51
1, 94927, Note_on_c, 0, 69, 76
1, 94935, Control_c, 0, 64, 91
1, 94950, Control_c, 0, 64, 71
1, 94953, Note_off_c, 0, 78, 63
1, 94965, Control_c, 0, 64, 51
1, 94979, Control_c, 0, 64, 0
1, 94990, Note_on_c, 0, 77, 84
1, 94993, Note_off_c, 0, 69, 62
1, 95032, Note_on_c, 0, 72, 67
1, 95048, Note_off_c, 0, 77, 63
1, 95106, Note_on_c, 0, 35, 75
1, 95119, Note_on_c, 0, 78, 77
1, 95124, Note_off_c, 0, 72, 63
1, 95127, Control_c, 0, 64, 60
1, 95135, Note_off_c, 0, 35, 63
1, 95142, Control_c, 0, 64, 83
1, 95157, Control_c, 0, 64, 127
1, 95163, Note_on_c, 0, 69, 66
1, 95181, Note_off_c, 0, 78, 62
1, 95211, Note_on_c, 0, 51, 75
1, 95220, Note_on_c, 0, 79, 80
1, 95222, Note_off_c, 0, 69, 63
1, 95249, Note_off_c, 0, 51, 62
1, 95261, Control_c, 0, 64, 87
1, 95276, Control_c, 0, 64, 67
1, 95277, Note_off_c, 0, 79, 60
1, 95279, Note_on_c, 0, 71, 78
1, 95291, Control_c, 0, 64, 44
1, 95312, Control_c, 0, 64, 0
1, 95354, Note_on_c, 0, 78, 71
1, 95358, Note_off_c, 0, 71, 63
1, 95392, Note_on_c, 0, 69, 69
1, 95395, Note_off_c, 0, 78, 63
1, 95453, Note_on_c, 0, 40, 72
1, 95458, Note_off_c, 0, 69, 64
1, 95458, Note_on_c, 0, 78, 77
1, 95475, Control_c, 0, 64, 54
1, 95488, Note_on_c, 0, 47, 56
1, 95488, Note_off_c, 0, 40, 67
1, 95490, Control_c, 0, 64, 89
1, 95504, Control_c, 0, 64, 127
1, 95524, Note_off_c, 0, 78, 66
1, 95529, Note_on_c, 0, 71, 74
1, 95541, Note_off_c, 0, 47, 61
1, 95557, Note_on_c, 0, 55, 74
1, 95581, Note_on_c, 0, 77, 89
1, 95587, Note_off_c, 0, 55, 65
1, 95594, Note_off_c, 0, 71, 61
1, 95626, Note_on_c, 0, 67, 71
1, 95649, Note_off_c, 0, 77, 53
1, 95668, Control_c, 0, 64, 81
1, 95680, Note_on_c, 0, 45, 75
1, 95683, Control_c, 0, 64, 64
1, 95684, Note_on_c, 0, 76, 83
1, 95687, Note_off_c, 0, 67, 61
1, 95698, Control_c, 0, 64, 45
1, 95713, Control_c, 0, 64, 23
1, 95734, Note_on_c, 0, 52, 72
1, 95742, Control_c, 0, 64, 40
1, 95747, Note_on_c, 0, 71, 76
1, 95754, Note_off_c, 0, 45, 63
1, 95757, Control_c, 0, 64, 56
1, 95758, Note_off_c, 0, 76, 63
1, 95772, Control_c, 0, 64, 63
1, 95780, Note_on_c, 0, 50, 30
1, 95787, Control_c, 0, 64, 70
1, 95801, Control_c, 0, 64, 89
1, 95813, Note_on_c, 0, 61, 100
1, 95816, Note_on_c, 0, 76, 77
1, 95816, Control_c, 0, 64, 127
1, 95819, Note_off_c, 0, 50, 44
1, 95830, Note_off_c, 0, 71, 62
1, 95848, Poly_aftertouch_c, 0, 47, 0
1, 95860, Note_off_c, 0, 52, 65
1, 95875, Note_on_c, 0, 67, 72
1, 95886, Note_off_c, 0, 76, 64
1, 95926, Note_off_c, 0, 67, 61
1, 95932, Note_on_c, 0, 77, 93
1, 95988, Note_on_c, 0, 69, 84
1, 95988, Note_off_c, 0, 77, 61
1, 95993, Note_off_c, 0, 61, 57
1, 96042, Note_on_c, 0, 50, 80
1, 96061, Note_on_c, 0, 76, 89
1, 96063, Note_off_c, 0, 69, 63
1, 96081, Note_on_c, 0, 57, 63
1, 96111, Note_on_c, 0, 67, 75
1, 96120, Note_off_c, 0, 76, 64
1, 96135, Control_c, 0, 64, 94
1, 96150, Control_c, 0, 64, 78
1, 96165, Control_c, 0, 64, 69
1, 96179, Control_c, 0, 64, 62
1, 96194, Control_c, 0, 64, 51
1, 96197, Note_on_c, 0, 62, 88
1, 96197, Note_off_c, 0, 67, 46
1, 96203, Note_on_c, 0, 76, 85
1, 96209, Control_c, 0, 64, 36
1, 96224, Control_c, 0, 64, 9
1, 96239, Control_c, 0, 64, 0
1, 96269, Control_c, 0, 64, 17
1, 96274, Note_on_c, 0, 69, 69
1, 96283, Note_off_c, 0, 76, 55
1, 96283, Control_c, 0, 64, 50
1, 96298, Control_c, 0, 64, 63
1, 96301, Note_off_c, 0, 57, 63
1, 96313, Control_c, 0, 64, 71
1, 96325, Note_off_c, 0, 62, 60
1, 96328, Control_c, 0, 64, 85
1, 96331, Note_on_c, 0, 73, 79
1, 96335, Note_off_c, 0, 69, 64
1, 96343, Control_c, 0, 64, 127
1, 96360, Note_off_c, 0, 50, 63
1, 96383, Note_on_c, 0, 65, 68
1, 96410, Note_off_c, 0, 73, 61
1, 96444, Note_on_c, 0, 74, 82
1, 96448, Note_off_c, 0, 65, 51
1, 96460, Note_on_c, 0, 45, 73
1, 96477, Control_c, 0, 64, 96
1, 96492, Control_c, 0, 64, 78
1, 96494, Note_on_c, 0, 69, 56
1, 96501, Note_off_c, 0, 74, 63
1, 96507, Control_c, 0, 64, 69
1, 96517, Note_on_c, 0, 52, 72
1, 96522, Control_c, 0, 64, 61
1, 96525, Note_off_c, 0, 45, 63
1, 96537, Control_c, 0, 64, 51
1, 96551, Control_c, 0, 64, 45
1, 96561, Note_off_c, 0, 69, 63
1, 96566, Control_c, 0, 64, 46
1, 96567, Note_on_c, 0, 74, 77
1, 96573, Note_on_c, 0, 60, 85
1, 96577, Note_off_c, 0, 52, 65
1, 96581, Control_c, 0, 64, 57
1, 96595, Control_c, 0, 64, 66
1, 96599, Note_off_c, 0, 60, 66
1, 96610, Control_c, 0, 64, 76
1, 96625, Control_c, 0, 64, 97
1, 96629, Note_on_c, 0, 69, 67
1, 96632, Note_off_c, 0, 74, 62
1, 96640, Control_c, 0, 64, 127
1, 96686, Note_on_c, 0, 71, 85
1, 96689, Note_off_c, 0, 69, 61
1, 96754, Note_on_c, 0, 69, 81
1, 96756, Note_off_c, 0, 71, 63
1, 96773, Control_c, 0, 64, 98
1, 96795, Control_c, 0, 64, 83
1, 96810, Control_c, 0, 64, 72
1, 96821, Note_on_c, 0, 72, 89
1, 96825, Control_c, 0, 64, 62
1, 96838, Note_off_c, 0, 69, 65
1, 96840, Control_c, 0, 64, 33
1, 96855, Control_c, 0, 64, 0
1, 96881, Note_on_c, 0, 64, 78
1, 96894, Note_off_c, 0, 72, 64
1, 96940, Note_off_c, 0, 64, 61
1, 96945, Note_on_c, 0, 50, 104
1, 96951, Note_on_c, 0, 38, 89
1, 96963, Note_on_c, 0, 72, 88
1, 96973, Control_c, 0, 64, 49
1, 96975, Note_off_c, 0, 38, 68
1, 96978, Note_off_c, 0, 50, 65
1, 96988, Control_c, 0, 64, 77
1, 97002, Control_c, 0, 64, 127
1, 97016, Note_on_c, 0, 69, 86
1, 97037, Note_off_c, 0, 72, 62
1, 97087, Note_on_c, 0, 71, 82
1, 97094, Note_off_c, 0, 69, 64
1, 97129, Note_on_c, 0, 65, 80
1, 97144, Note_off_c, 0, 71, 62
1, 97204, Note_on_c, 0, 72, 96
1, 97222, Note_off_c, 0, 65, 44
1, 97269, Note_on_c, 0, 69, 92
1, 97286, Note_off_c, 0, 72, 63
1, 97354, Note_on_c, 0, 65, 108
1, 97357, Note_on_c, 0, 71, 82
1, 97358, Note_on_c, 0, 53, 106
1, 97371, Note_off_c, 0, 69, 64
1, 97380, Note_off_c, 0, 71, 70
1, 97381, Note_off_c, 0, 65, 69
1, 97386, Note_off_c, 0, 53, 65
1, 97439, Note_on_c, 0, 77, 94
1, 97491, Note_off_c, 0, 77, 64
1, 97508, Note_on_c, 0, 84, 91
1, 97565, Note_off_c, 0, 84, 65
1, 97566, Note_on_c, 0, 81, 87
1, 97625, Note_on_c, 0, 83, 88
1, 97640, Note_off_c, 0, 81, 66
1, 97651, Note_off_c, 0, 83, 66
1, 97703, Note_on_c, 0, 89, 100
1, 97762, Note_off_c, 0, 89, 56
1, 97766, Control_c, 0, 64, 85
1, 97781, Control_c, 0, 64, 61
1, 97782, Note_on_c, 0, 58, 104
1, 97783, Note_on_c, 0, 46, 95
1, 97784, Note_on_c, 0, 96, 99
1, 97796, Control_c, 0, 64, 0
1, 97848, Note_on_c, 0, 93, 87
1, 97852, Note_off_c, 0, 96, 65
1, 97855, Control_c, 0, 64, 28
1, 97870, Control_c, 0, 64, 64
1, 97885, Control_c, 0, 64, 78
1, 97899, Control_c, 0, 64, 127
1, 97919, Note_on_c, 0, 95, 89
1, 97944, Note_off_c, 0, 93, 66
1, 97968, Note_off_c, 0, 95, 65
1, 97973, Note_off_c, 0, 58, 61
1, 97982, Note_on_c, 0, 89, 76
1, 97985, Note_off_c, 0, 46, 64
1, 98005, Note_off_c, 0, 89, 68
1, 98050, Note_on_c, 0, 84, 90
1, 98069, Note_on_c, 0, 48, 75
1, 98069, Note_on_c, 0, 60, 74
1, 98093, Note_off_c, 0, 60, 69
1, 98094, Note_off_c, 0, 48, 66
1, 98101, Note_on_c, 0, 81, 71
1, 98127, Note_off_c, 0, 84, 53
1, 98153, Control_c, 0, 64, 114
1, 98158, Note_on_c, 0, 83, 79
1, 98160, Note_on_c, 0, 59, 84
1, 98164, Note_on_c, 0, 47, 78
1, 98167, Control_c, 0, 64, 82
1, 98180, Note_off_c, 0, 81, 65
1, 98182, Control_c, 0, 64, 68
1, 98197, Control_c, 0, 64, 53
1, 98212, Control_c, 0, 64, 0
1, 98214, Note_off_c, 0, 83, 65
1, 98227, Note_on_c, 0, 77, 79
1, 98252, Note_off_c, 0, 77, 68
1, 98269, Note_off_c, 0, 59, 64
1, 98269, Note_off_c, 0, 47, 63
1, 98326, Note_on_c, 0, 72, 66
1, 98331, Note_on_c, 0, 74, 55
1, 98367, Note_on_c, 0, 69, 73
1, 98374, Note_off_c, 0, 74, 60
1, 98377, Note_off_c, 0, 72, 60
1, 98426, Note_on_c, 0, 71, 75
1, 98433, Note_off_c, 0, 69, 63
1, 98464, Note_on_c, 0, 65, 68
1, 98477, Note_off_c, 0, 71, 61
1, 98538, Note_on_c, 0, 51, 83
1, 98542, Note_off_c, 0, 65, 48
1, 98544, Note_on_c, 0, 39, 77
1, 98550, Note_on_c, 0, 71, 71
1, 98564, Note_off_c, 0, 51, 69
1, 98575, Control_c, 0, 64, 46
1, 98576, Note_off_c, 0, 39, 64
1, 98585, Note_on_c, 0, 66, 54
1, 98589, Control_c, 0, 64, 86
1, 98604, Control_c, 0, 64, 127
1, 98632, Note_off_c, 0, 71, 54
1, 98655, Note_on_c, 0, 69, 74
1, 98661, Note_off_c, 0, 66, 62
1, 98710, Note_off_c, 0, 69, 63
1, 98713, Note_on_c, 0, 60, 57
1, 98753, Note_off_c, 0, 60, 62
1, 98780, Note_on_c, 0, 71, 77
1, 98802, Poly_aftertouch_c, 0, 62, 127
1, 98834, Poly_aftertouch_c, 0, 62, 0
1, 98848, Note_on_c, 0, 67, 66
1, 98850, Note_off_c, 0, 71, 60
1, 98900, Note_off_c, 0, 67, 57
1, 98903, Note_on_c, 0, 69, 77
1, 98928, Note_on_c, 0, 66, 96
1, 98931, Note_on_c, 0, 54, 95
1, 98933, Note_off_c, 0, 69, 64
1, 99002, Note_on_c, 0, 74, 72
1, 99007, Note_off_c, 0, 66, 59
1, 99013, Note_on_c, 0, 72, 67
1, 99032, Note_off_c, 0, 54, 62
1, 99035, Note_off_c, 0, 72, 58
1, 99065, Note_on_c, 0, 83, 80
1, 99070, Note_off_c, 0, 74, 63
1, 99118, Note_on_c, 0, 78, 90
1, 99137, Note_off_c, 0, 83, 62
1, 99180, Note_on_c, 0, 81, 70
1, 99187, Note_off_c, 0, 78, 65
1, 99206, Note_off_c, 0, 81, 68
1, 99253, Note_on_c, 0, 84, 83
1, 99258, Note_on_c, 0, 83, 61
1, 99294, Control_c, 0, 64, 110
1, 99297, Note_off_c, 0, 83, 63
1, 99309, Control_c, 0, 64, 90
1, 99317, Note_off_c, 0, 84, 53
1, 99319, Note_on_c, 0, 95, 89
1, 99321, Note_on_c, 0, 57, 90
1, 99324, Control_c, 0, 64, 76
1, 99324, Note_on_c, 0, 45, 89
1, 99338, Control_c, 0, 64, 64
1, 99353, Control_c, 0, 64, 40
1, 99368, Control_c, 0, 64, 0
1, 99379, Note_on_c, 0, 90, 78
1, 99401, Note_off_c, 0, 95, 64
1, 99427, Control_c, 0, 64, 40
1, 99442, Control_c, 0, 64, 61
1, 99443, Note_on_c, 0, 93, 85
1, 99457, Control_c, 0, 64, 71
1, 99467, Note_off_c, 0, 90, 64
1, 99471, Control_c, 0, 64, 98
1, 99479, Note_off_c, 0, 45, 63
1, 99485, Note_off_c, 0, 57, 63
1, 99486, Control_c, 0, 64, 127
1, 99491, Note_off_c, 0, 93, 66
1, 99507, Note_on_c, 0, 84, 74
1, 99533, Note_off_c, 0, 84, 67
1, 99586, Note_on_c, 0, 83, 79
1, 99637, Note_on_c, 0, 62, 70
1, 99646, Note_on_c, 0, 50, 55
1, 99650, Note_on_c, 0, 78, 78
1, 99656, Note_off_c, 0, 62, 66
1, 99658, Note_off_c, 0, 83, 61
1, 99673, Note_off_c, 0, 50, 57
1, 99680, Control_c, 0, 64, 104
1, 99694, Control_c, 0, 64, 92
1, 99709, Control_c, 0, 64, 83
1, 99712, Note_on_c, 0, 60, 81
1, 99717, Note_on_c, 0, 48, 75
1, 99719, Note_off_c, 0, 78, 65
1, 99723, Note_on_c, 0, 81, 67
1, 99724, Control_c, 0, 64, 76
1, 99739, Control_c, 0, 64, 69
1, 99754, Control_c, 0, 64, 63
1, 99759, Note_off_c, 0, 81, 65
1, 99768, Control_c, 0, 64, 56
1, 99791, Control_c, 0, 64, 47
1, 99794, Note_on_c, 0, 72, 70
1, 99806, Control_c, 0, 64, 40
1, 99821, Control_c, 0, 64, 36
1, 99823, Note_off_c, 0, 72, 69
1, 99833, Note_off_c, 0, 60, 62
1, 99836, Control_c, 0, 64, 35
1, 99837, Note_off_c, 0, 48, 62
1, 99850, Control_c, 0, 64, 34
1, 99878, Note_on_c, 0, 71, 75
1, 99880, Control_c, 0, 64, 34
1, 99909, Control_c, 0, 64, 33
1, 99962, Note_off_c, 0, 71, 56
1, 99993, Note_on_c, 0, 69, 55
1, 100036, Note_off_c, 0, 69, 62
1, 100072, Control_c, 0, 64, 32
1, 100087, Control_c, 0, 64, 32
1, 100101, Poly_aftertouch_c, 0, 60, 127
1, 100109, Note_on_c, 0, 52, 72
1, 100119, Note_on_c, 0, 40, 61
1, 100128, Note_on_c, 0, 69, 67
1, 100131, Poly_aftertouch_c, 0, 60, 0
1, 100132, Control_c, 0, 64, 32
1, 100147, Control_c, 0, 64, 44
1, 100162, Control_c, 0, 64, 58
1, 100176, Control_c, 0, 64, 64
1, 100181, Note_off_c, 0, 69, 61
1, 100184, Note_on_c, 0, 64, 56
1, 100191, Control_c, 0, 64, 67
1, 100194, Note_off_c, 0, 40, 41
1, 100206, Control_c, 0, 64, 72
1, 100220, Control_c, 0, 64, 81
1, 100224, Note_off_c, 0, 64, 62
1, 100235, Control_c, 0, 64, 89
1, 100239, Note_on_c, 0, 68, 72
1, 100250, Control_c, 0, 64, 96
1, 100265, Control_c, 0, 64, 97
1, 100268, Note_off_c, 0, 68, 66
1, 100280, Control_c, 0, 64, 97
1, 100294, Control_c, 0, 64, 95
1, 100309, Control_c, 0, 64, 92
1, 100323, Note_on_c, 0, 71, 73
1, 100324, Control_c, 0, 64, 86
1, 100340, Control_c, 0, 64, 80
1, 100355, Control_c, 0, 64, 76
1, 100364, Note_off_c, 0, 71, 56
1, 100370, Control_c, 0, 64, 74
1, 100382, Note_on_c, 0, 81, 66
1, 100384, Control_c, 0, 64, 72
1, 100399, Control_c, 0, 64, 68
1, 100414, Control_c, 0, 64, 64
1, 100429, Control_c, 0, 64, 62
1, 100443, Note_on_c, 0, 76, 73
1, 100444, Control_c, 0, 64, 61
1, 100450, Note_off_c, 0, 81, 65
1, 100458, Control_c, 0, 64, 60
1, 100473, Control_c, 0, 64, 58
1, 100488, Control_c, 0, 64, 54
1, 100501, Note_on_c, 0, 59, 89
1, 100503, Control_c, 0, 64, 48
1, 100510, Note_off_c, 0, 76, 64
1, 100512, Note_on_c, 0, 80, 76
1, 100517, Control_c, 0, 64, 44
1, 100540, Control_c, 0, 64, 41
1, 100559, Note_off_c, 0, 80, 62
1, 100598, Control_c, 0, 64, 43
1, 100605, Note_on_c, 0, 83, 78
1, 100613, Control_c, 0, 64, 51
1, 100628, Control_c, 0, 64, 60
1, 100639, Note_off_c, 0, 83, 65
1, 100642, Control_c, 0, 64, 65
1, 100657, Control_c, 0, 64, 72
1, 100664, Note_on_c, 0, 93, 75
1, 100671, Note_on_c, 0, 91, 73
1, 100672, Control_c, 0, 64, 93
1, 100687, Control_c, 0, 64, 127
1, 100691, Note_off_c, 0, 91, 63
1, 100707, Note_on_c, 0, 88, 81
1, 100716, Note_off_c, 0, 93, 67
1, 100771, Note_off_c, 0, 59, 68
1, 100777, Note_on_c, 0, 92, 86
1, 100781, Note_on_c, 0, 64, 86
1, 100782, Note_off_c, 0, 88, 67
1, 100823, Note_on_c, 0, 83, 75
1, 100833, Note_off_c, 0, 92, 64
1, 100865, Control_c, 0, 64, 107
1, 100879, Note_on_c, 0, 62, 80
1, 100879, Note_off_c, 0, 64, 64
1, 100880, Control_c, 0, 64, 82
1, 100895, Control_c, 0, 64, 70
1, 100906, Note_on_c, 0, 92, 76
1, 100907, Note_off_c, 0, 83, 54
1, 100910, Control_c, 0, 64, 61
1, 100924, Control_c, 0, 64, 45
1, 100939, Control_c, 0, 64, 27
1, 100952, Note_on_c, 0, 86, 65
1, 100954, Control_c, 0, 64, 24
1, 100966, Note_off_c, 0, 92, 64
1, 100983, Control_c, 0, 64, 28
1, 100998, Control_c, 0, 64, 47
1, 101013, Control_c, 0, 64, 60
1, 101016, Note_on_c, 0, 90, 74
1, 101020, Note_off_c, 0, 86, 61
1, 101028, Control_c, 0, 64, 68
1, 101042, Control_c, 0, 64, 80
1, 101046, Note_off_c, 0, 90, 64
1, 101057, Control_c, 0, 64, 127
1, 101069, Note_on_c, 0, 83, 69
1, 101093, Note_off_c, 0, 83, 68
1, 101119, Note_off_c, 0, 62, 58
1, 101135, Note_on_c, 0, 80, 77
1, 101190, Note_on_c, 0, 74, 66
1, 101208, Note_off_c, 0, 52, 52
1, 101229, Note_off_c, 0, 80, 49
1, 101244, Note_on_c, 0, 78, 80
1, 101258, Note_off_c, 0, 74, 63
1, 101294, Note_off_c, 0, 78, 62
1, 101311, Note_on_c, 0, 71, 73
1, 101336, Note_off_c, 0, 71, 70
1, 101381, Note_on_c, 0, 68, 80
1, 101443, Note_on_c, 0, 62, 59
1, 101488, Note_on_c, 0, 66, 66
1, 101489, Note_off_c, 0, 62, 59
1, 101491, Note_off_c, 0, 68, 61
1, 101532, Note_off_c, 0, 66, 57
1, 101536, Note_on_c, 0, 59, 61
1, 101613, Control_c, 0, 64, 103
1, 101625, Note_off_c, 0, 59, 54
1, 101628, Control_c, 0, 64, 81
1, 101630, Note_on_c, 0, 66, 69
1, 101642, Note_on_c, 0, 28, 63
1, 101643, Note_on_c, 0, 40, 58
1, 101643, Control_c, 0, 64, 67
1, 101658, Control_c, 0, 64, 55
1, 101673, Control_c, 0, 64, 30
1, 101688, Control_c, 0, 64, 15
1, 101696, Note_on_c, 0, 61, 59
1, 101703, Control_c, 0, 64, 21
1, 101711, Note_off_c, 0, 40, 44
1, 101712, Note_off_c, 0, 66, 60
1, 101716, Note_off_c, 0, 28, 60
1, 101718, Control_c, 0, 64, 50
1, 101732, Control_c, 0, 64, 62
1, 101738, Note_off_c, 0, 61, 60
1, 101742, Note_on_c, 0, 64, 62
1, 101747, Control_c, 0, 64, 68
1, 101762, Control_c, 0, 64, 83
1, 101771, Note_off_c, 0, 64, 66
1, 101777, Control_c, 0, 64, 127
1, 101816, Note_on_c, 0, 68, 77
1, 101872, Note_off_c, 0, 68, 48
1, 101876, Note_on_c, 0, 78, 69
1, 101938, Note_on_c, 0, 73, 71
1, 101962, Note_off_c, 0, 78, 62
1, 101989, Note_on_c, 0, 76, 64
1, 101992, Note_on_c, 0, 56, 87
1, 101994, Note_off_c, 0, 73, 63
1, 102020, Note_off_c, 0, 76, 66
1, 102084, Note_on_c, 0, 80, 70
1, 102148, Note_on_c, 0, 90, 72
1, 102157, Note_off_c, 0, 80, 62
1, 102210, Note_on_c, 0, 85, 67
1, 102234, Note_on_c, 0, 61, 66
1, 102250, Note_on_c, 0, 88, 71
1, 102269, Note_off_c, 0, 85, 64
1, 102269, Note_off_c, 0, 90, 37
1, 102305, Note_off_c, 0, 88, 65
1, 102313, Note_on_c, 0, 80, 68
1, 102341, Note_off_c, 0, 80, 67
1, 102347, Control_c, 0, 64, 91
1, 102362, Control_c, 0, 64, 74
1, 102369, Note_on_c, 0, 59, 60
1, 102376, Control_c, 0, 64, 64
1, 102391, Control_c, 0, 64, 46
1, 102399, Note_off_c, 0, 61, 58
1, 102403, Note_off_c, 0, 56, 52
1, 102405, Note_on_c, 0, 88, 63
1, 102406, Control_c, 0, 64, 0
1, 102440, Note_off_c, 0, 88, 62
1, 102451, Control_c, 0, 64, 12
1, 102457, Note_on_c, 0, 83, 69
1, 102466, Control_c, 0, 64, 42
1, 102480, Control_c, 0, 64, 56
1, 102495, Control_c, 0, 64, 63
1, 102509, Note_off_c, 0, 83, 58
1, 102510, Control_c, 0, 64, 68
1, 102525, Control_c, 0, 64, 82
1, 102531, Note_on_c, 0, 86, 70
1, 102540, Control_c, 0, 64, 127
1, 102573, Note_off_c, 0, 86, 60
1, 102582, Note_on_c, 0, 78, 68
1, 102586, Note_off_c, 0, 59, 62
1, 102623, Note_off_c, 0, 78, 64
1, 102649, Note_on_c, 0, 76, 60
1, 102668, Note_off_c, 0, 76, 63
1, 102702, Note_on_c, 0, 71, 71
1, 102751, Note_off_c, 0, 71, 59
1, 102767, Note_on_c, 0, 74, 69
1, 102834, Note_off_c, 0, 74, 63
1, 102843, Note_on_c, 0, 66, 71
1, 102872, Note_off_c, 0, 66, 65
1, 102907, Note_on_c, 0, 64, 64
1, 102927, Note_off_c, 0, 64, 65
1, 102971, Note_on_c, 0, 59, 72
1, 103002, Note_off_c, 0, 59, 62
1, 103035, Note_on_c, 0, 62, 53
1, 103060, Note_off_c, 0, 62, 62
1, 103096, Note_on_c, 0, 54, 67
1, 103138, Note_off_c, 0, 54, 62
1, 103171, Note_on_c, 0, 40, 72
1, 103178, Note_on_c, 0, 61, 56
1, 103184, Control_c, 0, 64, 113
1, 103199, Control_c, 0, 64, 86
1, 103214, Control_c, 0, 64, 73
1, 103229, Control_c, 0, 64, 64
1, 103244, Control_c, 0, 64, 53
1, 103254, Note_off_c, 0, 61, 55
1, 103255, Note_on_c, 0, 56, 56
1, 103259, Control_c, 0, 64, 44
1, 103289, Control_c, 0, 64, 53
1, 103298, Note_off_c, 0, 56, 61
1, 103303, Control_c, 0, 64, 61
1, 103309, Note_on_c, 0, 59, 53
1, 103318, Control_c, 0, 64, 66
1, 103333, Control_c, 0, 64, 72
1, 103348, Control_c, 0, 64, 86
1, 103350, Note_off_c, 0, 59, 63
1, 103363, Control_c, 0, 64, 127
1, 103368, Note_on_c, 0, 53, 51
1, 103399, Note_off_c, 0, 53, 61
1, 103419, Note_on_c, 0, 64, 60
1, 103473, Note_on_c, 0, 59, 61
1, 103506, Note_off_c, 0, 64, 61
1, 103540, Note_off_c, 0, 59, 60
1, 103545, Note_on_c, 0, 62, 54
1, 103548, Control_c, 0, 64, 89
1, 103558, Note_on_c, 0, 53, 74
1, 103563, Control_c, 0, 64, 75
1, 103579, Control_c, 0, 64, 65
1, 103587, Note_off_c, 0, 62, 65
1, 103594, Note_on_c, 0, 56, 53
1, 103594, Control_c, 0, 64, 60
1, 103623, Control_c, 0, 64, 64
1, 103631, Note_off_c, 0, 56, 66
1, 103638, Control_c, 0, 64, 69
1, 103653, Control_c, 0, 64, 77
1, 103668, Control_c, 0, 64, 97
1, 103682, Control_c, 0, 64, 127
1, 103693, Note_on_c, 0, 67, 68
1, 103717, Note_off_c, 0, 53, 60
1, 103739, Note_on_c, 0, 62, 63
1, 103781, Note_off_c, 0, 67, 54
1, 103797, Note_on_c, 0, 65, 69
1, 103807, Note_off_c, 0, 62, 61
1, 103829, Note_on_c, 0, 53, 77
1, 103842, Note_on_c, 0, 59, 61
1, 103851, Note_off_c, 0, 65, 60
1, 103855, Note_off_c, 0, 53, 67
1, 103893, Note_off_c, 0, 59, 59
1, 103905, Note_on_c, 0, 53, 83
1, 103915, Note_on_c, 0, 69, 79
1, 103920, Control_c, 0, 64, 99
1, 103934, Control_c, 0, 64, 79
1, 103949, Control_c, 0, 64, 65
1, 103964, Control_c, 0, 64, 57
1, 103977, Note_on_c, 0, 65, 67
1, 103979, Control_c, 0, 64, 54
1, 103991, Note_off_c, 0, 69, 63
1, 103994, Control_c, 0, 64, 58
1, 104008, Control_c, 0, 64, 63
1, 104023, Control_c, 0, 64, 69
1, 104038, Control_c, 0, 64, 82
1, 104044, Note_on_c, 0, 68, 80
1, 104052, Note_off_c, 0, 65, 63
1, 104052, Control_c, 0, 64, 121
1, 104067, Control_c, 0, 64, 127
1, 104096, Note_on_c, 0, 62, 70
1, 104098, Note_off_c, 0, 68, 62
1, 104103, Note_off_c, 0, 53, 59
1, 104129, Note_off_c, 0, 62, 64
1, 104160, Note_on_c, 0, 72, 90
1, 104205, Note_on_c, 0, 68, 83
1, 104246, Note_off_c, 0, 72, 61
1, 104267, Note_on_c, 0, 71, 78
1, 104281, Note_on_c, 0, 55, 99
1, 104297, Control_c, 0, 64, 98
1, 104305, Note_off_c, 0, 68, 61
1, 104312, Control_c, 0, 64, 68
1, 104327, Control_c, 0, 64, 0
1, 104335, Note_on_c, 0, 65, 66
1, 104347, Note_off_c, 0, 71, 64
1, 104379, Note_off_c, 0, 65, 63
1, 104402, Control_c, 0, 64, 58
1, 104405, Note_on_c, 0, 76, 85
1, 104417, Control_c, 0, 64, 95
1, 104431, Control_c, 0, 64, 127
1, 104462, Note_on_c, 0, 71, 74
1, 104466, Note_on_c, 0, 72, 72
1, 104484, Note_off_c, 0, 76, 59
1, 104496, Note_off_c, 0, 55, 58
1, 104512, Note_on_c, 0, 74, 83
1, 104517, Note_off_c, 0, 71, 65
1, 104523, Note_off_c, 0, 72, 64
1, 104567, Note_on_c, 0, 68, 82
1, 104579, Note_off_c, 0, 74, 64
1, 104624, Note_off_c, 0, 68, 62
1, 104636, Note_on_c, 0, 53, 102
1, 104636, Note_on_c, 0, 79, 94
1, 104654, Control_c, 0, 64, 82
1, 104669, Control_c, 0, 64, 63
1, 104683, Control_c, 0, 64, 22
1, 104696, Note_on_c, 0, 74, 84
1, 104698, Control_c, 0, 64, 0
1, 104705, Note_off_c, 0, 79, 67
1, 104728, Control_c, 0, 64, 52
1, 104743, Control_c, 0, 64, 65
1, 104757, Control_c, 0, 64, 79
1, 104758, Note_on_c, 0, 77, 92
1, 104772, Control_c, 0, 64, 127
1, 104779, Note_off_c, 0, 74, 66
1, 104818, Note_on_c, 0, 71, 81
1, 104823, Note_off_c, 0, 53, 58
1, 104827, Note_off_c, 0, 77, 64
1, 104861, Note_off_c, 0, 71, 64
1, 104877, Note_on_c, 0, 81, 94
1, 104926, Note_on_c, 0, 77, 92
1, 104952, Note_off_c, 0, 81, 64
1, 104992, Note_on_c, 0, 50, 99
1, 104994, Note_on_c, 0, 80, 96
1, 105018, Note_off_c, 0, 77, 65
1, 105031, Control_c, 0, 64, 74
1, 105046, Control_c, 0, 64, 9
1, 105061, Control_c, 0, 64, 0
1, 105077, Note_on_c, 0, 74, 70
1, 105082, Note_off_c, 0, 80, 65
1, 105083, Note_on_c, 0, 76, 55
1, 105101, Note_off_c, 0, 74, 68
1, 105105, Control_c, 0, 64, 66
1, 105108, Note_off_c, 0, 76, 64
1, 105120, Control_c, 0, 64, 127
1, 105131, Note_on_c, 0, 84, 99
1, 105159, Note_off_c, 0, 50, 61
1, 105183, Note_on_c, 0, 80, 89
1, 105200, Note_off_c, 0, 84, 61
1, 105244, Note_on_c, 0, 83, 87
1, 105268, Note_off_c, 0, 80, 65
1, 105292, Note_on_c, 0, 77, 86
1, 105310, Note_off_c, 0, 83, 66
1, 105320, Note_on_c, 0, 79, 17
1, 105333, Note_off_c, 0, 77, 64
1, 105343, Note_on_c, 0, 53, 104
1, 105358, Control_c, 0, 64, 88
1, 105359, Note_off_c, 0, 79, 36
1, 105360, Note_on_c, 0, 88, 94
1, 105373, Control_c, 0, 64, 62
1, 105387, Control_c, 0, 64, 0
1, 105392, Note_on_c, 0, 42, 27
1, 105417, Control_c, 0, 64, 42
1, 105426, Note_on_c, 0, 83, 85
1, 105432, Control_c, 0, 64, 72
1, 105434, Note_off_c, 0, 88, 66
1, 105441, Note_off_c, 0, 42, 29
1, 105447, Note_on_c, 0, 84, 37
1, 105447, Control_c, 0, 64, 127
1, 105483, Note_off_c, 0, 83, 67
1, 105485, Note_on_c, 0, 86, 91
1, 105485, Note_off_c, 0, 84, 54
1, 105530, Note_on_c, 0, 80, 84
1, 105538, Note_off_c, 0, 86, 66
1, 105557, Note_off_c, 0, 40, 62
1, 105572, Note_off_c, 0, 80, 67
1, 105573, Note_off_c, 0, 53, 58
1, 105587, Note_on_c, 0, 91, 95
1, 105640, Note_on_c, 0, 86, 92
1, 105656, Note_off_c, 0, 91, 66
1, 105703, Note_on_c, 0, 89, 93
1, 105721, Note_off_c, 0, 86, 66
1, 105755, Note_on_c, 0, 83, 92
1, 105792, Note_off_c, 0, 89, 64
1, 105810, Note_off_c, 0, 83, 65
1, 105824, Note_on_c, 0, 93, 97
1, 105884, Note_on_c, 0, 89, 97
1, 105910, Note_off_c, 0, 93, 67
1, 105947, Note_on_c, 0, 92, 101
1, 105968, Note_off_c, 0, 89, 66
1, 106011, Note_on_c, 0, 86, 81
1, 106016, Note_on_c, 0, 88, 77
1, 106059, Note_off_c, 0, 92, 65
1, 106068, Note_off_c, 0, 86, 61
1, 106068, Note_off_c, 0, 88, 59
1, 106076, Control_c, 0, 64, 97
1, 106091, Control_c, 0, 64, 67
1, 106104, Note_on_c, 0, 40, 95
1, 106106, Control_c, 0, 64, 0
1, 106149, Note_on_c, 0, 101, 104
1, 106180, Control_c, 0, 64, 59
1, 106195, Control_c, 0, 64, 72
1, 106200, Note_on_c, 0, 47, 85
1, 106210, Control_c, 0, 64, 114
1, 106213, Note_off_c, 0, 40, 61
1, 106222, Note_off_c, 0, 101, 63
1, 106225, Control_c, 0, 64, 127
1, 106237, Note_on_c, 0, 95, 79
1, 106238, Note_on_c, 0, 96, 67
1, 106282, Note_off_c, 0, 47, 63
1, 106283, Note_on_c, 0, 44, 82
1, 106289, Note_off_c, 0, 95, 64
1, 106295, Note_off_c, 0, 96, 62
1, 106304, Note_on_c, 0, 100, 80
1, 106332, Note_off_c, 0, 44, 62
1, 106336, Note_on_c, 0, 50, 68
1, 106343, Note_on_c, 0, 92, 86
1, 106374, Note_off_c, 0, 50, 65
1, 106394, Note_on_c, 0, 44, 71
1, 106402, Note_on_c, 0, 99, 88
1, 106403, Note_off_c, 0, 92, 59
1, 106433, Note_off_c, 0, 44, 64
1, 106435, Note_off_c, 0, 100, 28
1, 106442, Note_on_c, 0, 50, 71
1, 106472, Note_on_c, 0, 96, 40
1, 106474, Note_off_c, 0, 50, 65
1, 106480, Note_on_c, 0, 95, 57
1, 106499, Note_on_c, 0, 47, 88
1, 106500, Note_off_c, 0, 96, 51
1, 106502, Note_off_c, 0, 95, 60
1, 106508, Note_on_c, 0, 98, 90
1, 106510, Note_off_c, 0, 99, 58
1, 106571, Note_on_c, 0, 53, 82
1, 106572, Note_off_c, 0, 47, 62
1, 106603, Note_on_c, 0, 92, 46
1, 106604, Note_off_c, 0, 92, 127
1, 106609, Note_on_c, 0, 91, 71
1, 106627, Note_off_c, 0, 53, 62
1, 106628, Note_on_c, 0, 47, 75
1, 106632, Note_off_c, 0, 91, 58
1, 106635, Note_on_c, 0, 97, 79
1, 106669, Note_off_c, 0, 47, 62
1, 106672, Note_off_c, 0, 98, 57
1, 106692, Note_on_c, 0, 53, 48
1, 106697, Note_on_c, 0, 92, 78
1, 106709, Note_off_c, 0, 53, 66
1, 106715, Note_off_c, 0, 97, 64
1, 106746, Note_on_c, 0, 50, 83
1, 106753, Note_on_c, 0, 96, 89
1, 106759, Note_on_c, 0, 91, 18
1, 106773, Note_off_c, 0, 92, 64
1, 106799, Note_off_c, 0, 91, 52
1, 106801, Note_on_c, 0, 89, 73
1, 106803, Note_off_c, 0, 50, 63
1, 106804, Note_on_c, 0, 56, 77
1, 106806, Note_off_c, 0, 96, 66
1, 106844, Note_off_c, 0, 56, 61
1, 106857, Note_on_c, 0, 50, 71
1, 106863, Note_off_c, 0, 89, 52
1, 106868, Note_on_c, 0, 95, 94
1, 106903, Note_on_c, 0, 56, 71
1, 106907, Note_off_c, 0, 50, 63
1, 106925, Note_on_c, 0, 89, 87
1, 106946, Note_off_c, 0, 95, 65
1, 106961, Note_on_c, 0, 53, 76
1, 106964, Note_off_c, 0, 56, 62
1, 106998, Note_on_c, 0, 94, 91
1, 107019, Note_off_c, 0, 53, 61
1, 107024, Note_off_c, 0, 89, 60
1, 107024, Note_on_c, 0, 86, 83
1, 107025, Note_on_c, 0, 59, 73
1, 107057, Note_off_c, 0, 59, 61
1, 107059, Note_off_c, 0, 94, 64
1, 107069, Note_on_c, 0, 53, 73
1, 107088, Note_off_c, 0, 86, 61
1, 107096, Note_on_c, 0, 93, 89
1, 107113, Note_off_c, 0, 53, 62
1, 107140, Note_on_c, 0, 59, 76
1, 107153, Note_on_c, 0, 89, 87
1, 107153, Note_on_c, 0, 90, 27
1, 107183, Note_on_c, 0, 56, 84
1, 107189, Note_off_c, 0, 90, 33
1, 107195, Note_off_c, 0, 59, 64
1, 107205, Note_on_c, 0, 92, 88
1, 107225, Note_off_c, 0, 89, 63
1, 107227, Note_off_c, 0, 93, 65
1, 107252, Note_on_c, 0, 62, 82
1, 107253, Note_off_c, 0, 56, 62
1, 107260, Note_on_c, 0, 83, 75
1, 107277, Note_off_c, 0, 92, 65
1, 107291, Note_off_c, 0, 62, 63
1, 107319, Note_on_c, 0, 56, 69
1, 107325, Note_on_c, 0, 91, 92
1, 107333, Note_off_c, 0, 83, 62
1, 107350, Note_on_c, 0, 85, 62
1, 107353, Note_on_c, 0, 62, 78
1, 107356, Note_off_c, 0, 56, 64
1, 107384, Note_off_c, 0, 62, 63
1, 107393, Note_off_c, 0, 91, 65
1, 107428, Note_on_c, 0, 59, 86
1, 107431, Note_on_c, 0, 90, 87
1, 107450, Note_off_c, 0, 85, 66
1, 107479, Note_on_c, 0, 65, 84
1, 107480, Note_off_c, 0, 59, 63
1, 107490, Note_on_c, 0, 80, 79
1, 107504, Note_off_c, 0, 90, 64
1, 107522, Note_off_c, 0, 65, 61
1, 107539, Note_off_c, 0, 80, 64
1, 107546, Note_on_c, 0, 59, 76
1, 107558, Note_on_c, 0, 89, 81
1, 107560, Note_on_c, 0, 88, 75
1, 107585, Note_on_c, 0, 65, 78
1, 107590, Note_off_c, 0, 59, 64
1, 107602, Note_on_c, 0, 83, 78
1, 107611, Note_off_c, 0, 89, 63
1, 107614, Note_off_c, 0, 88, 65
1, 107629, Note_off_c, 0, 65, 61
1, 107664, Note_on_c, 0, 62, 90
1, 107668, Note_on_c, 0, 88, 81
1, 107671, Note_off_c, 0, 83, 65
1, 107717, Note_on_c, 0, 80, 77
1, 107736, Note_on_c, 0, 68, 78
1, 107738, Note_off_c, 0, 62, 59
1, 107741, Note_off_c, 0, 88, 65
1, 107776, Note_off_c, 0, 80, 59
1, 107779, Note_off_c, 0, 68, 59
1, 107784, Note_on_c, 0, 62, 62
1, 107790, Note_on_c, 0, 87, 86
1, 107827, Note_on_c, 0, 68, 67
1, 107847, Note_on_c, 0, 80, 84
1, 107856, Note_off_c, 0, 87, 65
1, 107856, Note_off_c, 0, 62, 61
1, 107899, Note_on_c, 0, 86, 86
1, 107908, Note_off_c, 0, 68, 60
1, 107912, Note_on_c, 0, 65, 79
1, 107912, Note_off_c, 0, 80, 62
1, 107964, Note_on_c, 0, 80, 87
1, 107967, Note_off_c, 0, 65, 63
1, 107968, Note_on_c, 0, 71, 79
1, 107978, Note_off_c, 0, 86, 63
1, 108026, Note_off_c, 0, 71, 62
1, 108034, Note_on_c, 0, 85, 83
1, 108035, Note_on_c, 0, 65, 76
1, 108035, Note_off_c, 0, 80, 64
1, 108063, Note_off_c, 0, 65, 59
1, 108083, Note_on_c, 0, 71, 75
1, 108091, Note_on_c, 0, 80, 86
1, 108111, Note_off_c, 0, 71, 65
1, 108123, Note_off_c, 0, 85, 64
1, 108133, Note_on_c, 0, 84, 85
1, 108142, Note_on_c, 0, 68, 81
1, 108160, Note_off_c, 0, 80, 64
1, 108186, Note_on_c, 0, 75, 20
1, 108195, Note_on_c, 0, 77, 84
1, 108208, Note_on_c, 0, 69, 15
1, 108221, Note_on_c, 0, 74, 75
1, 108222, Note_off_c, 0, 84, 66
1, 108230, Note_off_c, 0, 75, 51
1, 108242, Note_off_c, 0, 68, 65
1, 108255, Note_off_c, 0, 69, 53
1, 108257, Note_on_c, 0, 83, 107
1, 108264, Control_c, 0, 64, 86
1, 108267, Note_on_c, 0, 80, 92
1, 108279, Control_c, 0, 64, 66
1, 108294, Control_c, 0, 64, 48
1, 108308, Control_c, 0, 64, 0
1, 108700, Note_off_c, 0, 80, 63
1, 108702, Note_off_c, 0, 74, 52
1, 108720, Note_off_c, 0, 77, 50
1, 108722, Note_off_c, 0, 83, 40
1, 109117, Control_c, 0, 64, 38
1, 109133, Control_c, 0, 64, 57
1, 109147, Control_c, 0, 64, 66
1, 109159, Note_on_c, 0, 35, 90
1, 109162, Control_c, 0, 64, 79
1, 109177, Control_c, 0, 64, 127
1, 109182, Note_on_c, 0, 95, 110
1, 109265, Note_on_c, 0, 41, 78
1, 109276, Note_on_c, 0, 89, 100
1, 109291, Note_off_c, 0, 35, 61
1, 109303, Note_off_c, 0, 95, 65
1, 109352, Note_on_c, 0, 38, 76
1, 109355, Note_on_c, 0, 94, 108
1, 109362, Note_off_c, 0, 41, 63
1, 109374, Note_off_c, 0, 89, 65
1, 109417, Note_on_c, 0, 44, 86
1, 109420, Note_on_c, 0, 86, 89
1, 109432, Note_off_c, 0, 38, 60
1, 109453, Note_off_c, 0, 94, 63
1, 109478, Note_off_c, 0, 86, 63
1, 109486, Note_on_c, 0, 38, 72
1, 109486, Note_off_c, 0, 44, 55
1, 109487, Note_on_c, 0, 93, 95
1, 109546, Note_on_c, 0, 44, 69
1, 109549, Note_off_c, 0, 38, 62
1, 109550, Note_on_c, 0, 89, 87
1, 109578, Note_off_c, 0, 44, 65
1, 109587, Note_off_c, 0, 93, 66
1, 109618, Note_on_c, 0, 92, 91
1, 109621, Note_on_c, 0, 41, 88
1, 109631, Note_off_c, 0, 89, 63
1, 109671, Note_on_c, 0, 83, 80
1, 109685, Note_on_c, 0, 47, 80
1, 109685, Note_off_c, 0, 92, 66
1, 109694, Note_off_c, 0, 41, 63
1, 109732, Note_off_c, 0, 47, 54
1, 109734, Note_on_c, 0, 91, 76
1, 109737, Note_off_c, 0, 83, 66
1, 109738, Note_on_c, 0, 93, 85
1, 109753, Note_on_c, 0, 41, 69
1, 109774, Note_on_c, 0, 47, 63
1, 109783, Note_off_c, 0, 41, 66
1, 109789, Note_off_c, 0, 93, 64
1, 109796, Note_on_c, 0, 86, 82
1, 109817, Note_off_c, 0, 91, 62
1, 109854, Note_off_c, 0, 47, 63
1, 109856, Note_on_c, 0, 44, 80
1, 109859, Note_on_c, 0, 90, 79
1, 109883, Note_off_c, 0, 86, 63
1, 109902, Note_on_c, 0, 50, 72
1, 109903, Note_on_c, 0, 80, 83
1, 109909, Note_off_c, 0, 44, 61
1, 109927, Note_off_c, 0, 90, 64
1, 109940, Note_off_c, 0, 50, 64
1, 109952, Note_off_c, 0, 80, 63
1, 109962, Note_on_c, 0, 44, 70
1, 109966, Note_on_c, 0, 89, 87
1, 110003, Note_off_c, 0, 44, 58
1, 110019, Note_on_c, 0, 83, 76
1, 110022, Note_on_c, 0, 50, 66
1, 110030, Note_off_c, 0, 89, 62
1, 110047, Note_off_c, 0, 50, 66
1, 110052, Note_on_c, 0, 82, 37
1, 110053, Note_off_c, 0, 82, 127
1, 110077, Note_on_c, 0, 47, 87
1, 110089, Note_off_c, 0, 83, 64
1, 110093, Note_on_c, 0, 88, 69
1, 110111, Note_on_c, 0, 89, 54
1, 110112, Note_off_c, 0, 89, 127
1, 110125, Note_on_c, 0, 80, 85
1, 110132, Note_off_c, 0, 47, 61
1, 110148, Note_on_c, 0, 53, 77
1, 110157, Note_off_c, 0, 88, 64
1, 110180, Note_off_c, 0, 80, 62
1, 110187, Note_off_c, 0, 53, 60
1, 110202, Note_on_c, 0, 47, 78
1, 110202, Note_on_c, 0, 87, 81
1, 110235, Note_off_c, 0, 47, 65
1, 110252, Note_on_c, 0, 53, 67
1, 110278, Note_off_c, 0, 87, 65
1, 110282, Note_on_c, 0, 80, 48
1, 110285, Note_off_c, 0, 53, 65
1, 110294, Note_on_c, 0, 81, 51
1, 110308, Note_off_c, 0, 80, 57
1, 110314, Note_off_c, 0, 81, 61
1, 110322, Note_on_c, 0, 86, 81
1, 110325, Note_on_c, 0, 50, 84
1, 110379, Note_on_c, 0, 80, 88
1, 110383, Note_off_c, 0, 50, 63
1, 110386, Note_on_c, 0, 56, 76
1, 110396, Note_off_c, 0, 86, 61
1, 110422, Note_off_c, 0, 56, 62
1, 110435, Note_on_c, 0, 85, 81
1, 110437, Note_on_c, 0, 50, 66
1, 110441, Note_off_c, 0, 80, 64
1, 110482, Note_on_c, 0, 56, 73
1, 110493, Note_off_c, 0, 50, 63
1, 110496, Note_on_c, 0, 80, 81
1, 110509, Note_off_c, 0, 85, 65
1, 110547, Note_on_c, 0, 53, 77
1, 110557, Note_off_c, 0, 56, 61
1, 110558, Note_on_c, 0, 84, 83
1, 110559, Note_on_c, 0, 79, 43
1, 110563, Note_on_c, 0, 83, 75
1, 110568, Note_off_c, 0, 80, 63
1, 110584, Note_off_c, 0, 79, 60
1, 110601, Note_off_c, 0, 53, 61
1, 110607, Note_off_c, 0, 83, 62
1, 110610, Note_off_c, 0, 84, 65
1, 110611, Note_on_c, 0, 77, 77
1, 110612, Note_on_c, 0, 59, 77
1, 110660, Note_off_c, 0, 59, 57
1, 110662, Note_on_c, 0, 53, 71
1, 110675, Note_off_c, 0, 77, 58
1, 110677, Note_on_c, 0, 83, 83
1, 110708, Note_off_c, 0, 53, 61
1, 110733, Note_on_c, 0, 59, 64
1, 110734, Note_on_c, 0, 77, 82
1, 110759, Note_off_c, 0, 83, 62
1, 110783, Note_on_c, 0, 56, 76
1, 110786, Note_off_c, 0, 59, 58
1, 110801, Note_on_c, 0, 82, 86
1, 110838, Note_off_c, 0, 77, 48
1, 110845, Note_on_c, 0, 62, 75
1, 110846, Note_on_c, 0, 74, 83
1, 110851, Note_off_c, 0, 56, 64
1, 110869, Note_off_c, 0, 82, 64
1, 110872, Note_off_c, 0, 62, 67
1, 110911, Note_on_c, 0, 81, 84
1, 110911, Note_on_c, 0, 56, 59
1, 110914, Note_off_c, 0, 74, 60
1, 110949, Note_off_c, 0, 56, 64
1, 110950, Note_on_c, 0, 62, 76
1, 110961, Note_on_c, 0, 77, 75
1, 110983, Note_off_c, 0, 62, 59
1, 111033, Note_on_c, 0, 80, 84
1, 111039, Note_on_c, 0, 59, 85
1, 111042, Note_off_c, 0, 81, 56
1, 111057, Note_off_c, 0, 77, 62
1, 111093, Note_on_c, 0, 74, 77
1, 111096, Note_off_c, 0, 59, 61
1, 111099, Note_off_c, 0, 80, 65
1, 111107, Note_on_c, 0, 65, 73
1, 111135, Note_off_c, 0, 65, 66
1, 111150, Note_on_c, 0, 79, 83
1, 111152, Note_off_c, 0, 74, 56
1, 111160, Note_on_c, 0, 59, 73
1, 111206, Note_on_c, 0, 65, 72
1, 111206, Note_off_c, 0, 59, 61
1, 111220, Note_on_c, 0, 74, 83
1, 111225, Note_off_c, 0, 79, 65
1, 111232, Note_off_c, 0, 65, 63
1, 111279, Note_on_c, 0, 62, 77
1, 111289, Note_on_c, 0, 78, 84
1, 111297, Note_off_c, 0, 74, 61
1, 111346, Note_on_c, 0, 71, 81
1, 111355, Note_on_c, 0, 68, 71
1, 111364, Control_c, 0, 64, 113
1, 111378, Note_off_c, 0, 78, 66
1, 111379, Control_c, 0, 64, 97
1, 111394, Control_c, 0, 64, 83
1, 111408, Control_c, 0, 64, 75
1, 111412, Note_off_c, 0, 68, 55
1, 111423, Control_c, 0, 64, 69
1, 111435, Note_on_c, 0, 77, 86
1, 111436, Note_on_c, 0, 65, 61
1, 111438, Control_c, 0, 64, 65
1, 111440, Note_on_c, 0, 68, 57
1, 111440, Note_on_c, 0, 74, 66
1, 111453, Control_c, 0, 64, 62
1, 111467, Control_c, 0, 64, 56
1, 111482, Control_c, 0, 64, 49
1, 111497, Control_c, 0, 64, 42
1, 111512, Control_c, 0, 64, 39
1, 111528, Control_c, 0, 64, 36
1, 111542, Control_c, 0, 64, 33
1, 111557, Control_c, 0, 64, 31
1, 111572, Control_c, 0, 64, 28
1, 111587, Control_c, 0, 64, 26
1, 111602, Control_c, 0, 64, 25
1, 111616, Control_c, 0, 64, 25
1, 111661, Control_c, 0, 64, 24
1, 111856, Note_off_c, 0, 71, 19
1, 111860, Note_off_c, 0, 62, 17
1, 111904, Note_off_c, 0, 77, 31
1, 111909, Note_off_c, 0, 65, 33
1, 111921, Note_off_c, 0, 74, 37
1, 111966, Note_off_c, 0, 68, 35
1, 112436, Note_on_c, 0, 65, 40
1, 112437, Note_on_c, 0, 77, 68
1, 112496, Note_on_c, 0, 74, 56
1, 112509, Note_on_c, 0, 62, 40
1, 112531, Note_off_c, 0, 77, 58
1, 112573, Note_off_c, 0, 65, 36
1, 112574, Note_on_c, 0, 76, 49
1, 112580, Note_off_c, 0, 62, 53
1, 112582, Note_on_c, 0, 64, 38
1, 112600, Note_off_c, 0, 74, 60
1, 112632, Note_on_c, 0, 68, 45
1, 112649, Note_on_c, 0, 59, 33
1, 112657, Note_off_c, 0, 64, 42
1, 112659, Note_off_c, 0, 76, 54
1, 112801, Note_off_c, 0, 59, 29
1, 112818, Note_off_c, 0, 68, 29
1, 113289, Note_on_c, 0, 65, 31
1, 113289, Note_on_c, 0, 77, 49
1, 113353, Note_on_c, 0, 74, 40
1, 113355, Note_on_c, 0, 62, 39
1, 113388, Note_off_c, 0, 77, 50
1, 113412, Note_off_c, 0, 62, 55
1, 113421, Note_on_c, 0, 76, 42
1, 113433, Note_off_c, 0, 74, 52
1, 113439, Note_on_c, 0, 64, 20
1, 113444, Note_off_c, 0, 65, 28
1, 113494, Note_off_c, 0, 64, 43
1, 113496, Note_off_c, 0, 76, 51
1, 113498, Note_on_c, 0, 68, 29
1, 113503, Note_on_c, 0, 59, 22
1, 113659, Note_off_c, 0, 59, 22
1, 113702, Note_off_c, 0, 68, 26
1, 113786, Control_c, 0, 64, 24
1, 114165, Note_on_c, 0, 77, 42
1, 114176, Note_on_c, 0, 65, 29
1, 114252, Note_on_c, 0, 74, 35
1, 114260, Note_off_c, 0, 65, 45
1, 114260, Note_off_c, 0, 77, 50
1, 114268, Note_on_c, 0, 62, 26
1, 114316, Note_off_c, 0, 74, 52
1, 114327, Note_on_c, 0, 76, 35
1, 114327, Note_off_c, 0, 62, 45
1, 114333, Note_on_c, 0, 64, 30
1, 114380, Note_off_c, 0, 76, 43
1, 114381, Note_off_c, 0, 64, 47
1, 114394, Note_on_c, 0, 68, 36
1, 114415, Note_on_c, 0, 59, 7
1, 114424, Note_on_c, 0, 65, 36
1, 114448, Note_off_c, 0, 68, 43
1, 114449, Note_on_c, 0, 77, 42
1, 114468, Note_off_c, 0, 59, 48
1, 114503, Note_off_c, 0, 65, 54
1, 114521, Note_on_c, 0, 74, 51
1, 114528, Note_on_c, 0, 62, 40
1, 114531, Note_off_c, 0, 77, 49
1, 114565, Control_c, 0, 64, 23
1, 114570, Note_off_c, 0, 62, 61
1, 114579, Note_off_c, 0, 74, 58
1, 114584, Note_on_c, 0, 76, 52
1, 114587, Note_on_c, 0, 64, 48
1, 114631, Note_off_c, 0, 64, 62
1, 114636, Note_off_c, 0, 76, 58
1, 114640, Note_on_c, 0, 68, 55
1, 114658, Note_on_c, 0, 59, 46
1, 114673, Note_off_c, 0, 68, 61
1, 114702, Note_on_c, 0, 65, 58
1, 114702, Note_off_c, 0, 59, 59
1, 114705, Note_on_c, 0, 77, 63
1, 114765, Note_off_c, 0, 65, 52
1, 114771, Note_on_c, 0, 74, 64
1, 114783, Note_off_c, 0, 77, 59
1, 114786, Note_on_c, 0, 62, 54
1, 114837, Note_off_c, 0, 62, 60
1, 114839, Note_on_c, 0, 76, 67
1, 114843, Note_off_c, 0, 74, 63
1, 114844, Note_on_c, 0, 64, 64
1, 114897, Note_on_c, 0, 59, 61
1, 114899, Note_on_c, 0, 68, 66
1, 114902, Note_off_c, 0, 64, 61
1, 114913, Note_off_c, 0, 76, 61
1, 114915, Control_c, 0, 64, 23
1, 114934, Note_off_c, 0, 68, 60
1, 114958, Note_off_c, 0, 59, 49
1, 114961, Note_on_c, 0, 65, 69
1, 114966, Note_on_c, 0, 77, 75
1, 115023, Note_on_c, 0, 74, 66
1, 115027, Note_on_c, 0, 62, 65
1, 115032, Note_off_c, 0, 65, 59
1, 115055, Note_off_c, 0, 77, 61
1, 115063, Control_c, 0, 64, 22
1, 115084, Note_on_c, 0, 76, 72
1, 115085, Note_on_c, 0, 64, 64
1, 115085, Note_off_c, 0, 62, 61
1, 115102, Note_off_c, 0, 74, 62
1, 115139, Note_on_c, 0, 68, 71
1, 115139, Note_off_c, 0, 64, 62
1, 115142, Note_on_c, 0, 59, 62
1, 115163, Note_off_c, 0, 76, 59
1, 115180, Note_off_c, 0, 68, 55
1, 115200, Note_off_c, 0, 59, 54
1, 115206, Note_on_c, 0, 65, 61
1, 115206, Note_on_c, 0, 77, 69
1, 115259, Note_on_c, 0, 74, 61
1, 115264, Note_on_c, 0, 62, 55
1, 115276, Note_off_c, 0, 65, 59
1, 115296, Note_off_c, 0, 77, 61
1, 115325, Note_off_c, 0, 62, 59
1, 115331, Note_on_c, 0, 64, 59
1, 115336, Note_off_c, 0, 74, 61
1, 115337, Note_on_c, 0, 76, 61
1, 115388, Note_off_c, 0, 64, 58
1, 115395, Note_on_c, 0, 68, 56
1, 115396, Note_on_c, 0, 59, 61
1, 115411, Note_off_c, 0, 76, 59
1, 115474, Note_off_c, 0, 59, 54
1, 115475, Note_on_c, 0, 77, 54
1, 115484, Note_off_c, 0, 68, 53
1, 115488, Note_on_c, 0, 65, 55
1, 115549, Note_on_c, 0, 74, 47
1, 115559, Note_on_c, 0, 62, 51
1, 115571, Note_off_c, 0, 77, 52
1, 115584, Note_off_c, 0, 65, 52
1, 115611, Note_off_c, 0, 62, 59
1, 115622, Note_off_c, 0, 74, 55
1, 115623, Note_on_c, 0, 76, 48
1, 115635, Note_on_c, 0, 64, 47
1, 115698, Note_off_c, 0, 64, 47
1, 115701, Note_on_c, 0, 68, 45
1, 115703, Note_off_c, 0, 76, 53
1, 115704, Note_on_c, 0, 59, 47
1, 115834, Note_on_c, 0, 65, 59
1, 115841, Control_c, 0, 64, 24
1, 115853, Note_on_c, 0, 77, 46
1, 115856, Control_c, 0, 64, 28
1, 115871, Control_c, 0, 64, 34
1, 115886, Control_c, 0, 64, 39
1, 115899, Note_off_c, 0, 59, 41
1, 115901, Control_c, 0, 64, 47
1, 115916, Control_c, 0, 64, 53
1, 115931, Control_c, 0, 64, 58
1, 115945, Control_c, 0, 64, 61
1, 115960, Control_c, 0, 64, 64
1, 115967, Note_on_c, 0, 74, 44
1, 115969, Note_off_c, 0, 65, 58
1, 115971, Note_off_c, 0, 68, 37
1, 115975, Control_c, 0, 64, 67
1, 115980, Note_on_c, 0, 64, 39
1, 115989, Control_c, 0, 64, 73
1, 116004, Control_c, 0, 64, 90
1, 116017, Note_off_c, 0, 64, 54
1, 116018, Note_off_c, 0, 77, 36
1, 116019, Control_c, 0, 64, 127
1, 116040, Note_on_c, 0, 63, 45
1, 116074, Note_off_c, 0, 74, 51
1, 116077, Note_on_c, 0, 76, 36
1, 116088, Note_off_c, 0, 63, 62
1, 116122, Note_on_c, 0, 62, 51
1, 116130, Note_on_c, 0, 68, 44
1, 116151, Note_off_c, 0, 76, 43
1, 116154, Note_off_c, 0, 62, 62
1, 116187, Note_on_c, 0, 77, 43
1, 116196, Note_off_c, 0, 68, 43
1, 116204, Note_on_c, 0, 61, 35
1, 116234, Note_off_c, 0, 61, 52
1, 116254, Note_on_c, 0, 74, 46
1, 116264, Note_on_c, 0, 60, 56
1, 116292, Note_off_c, 0, 77, 50
1, 116303, Note_off_c, 0, 60, 62
1, 116327, Note_on_c, 0, 59, 65
1, 116335, Note_on_c, 0, 76, 57
1, 116347, Note_off_c, 0, 74, 56
1, 116381, Note_off_c, 0, 59, 60
1, 116402, Note_on_c, 0, 68, 54
1, 116404, Note_on_c, 0, 58, 54
1, 116414, Note_off_c, 0, 76, 58
1, 116444, Note_off_c, 0, 58, 63
1, 116449, Note_off_c, 0, 68, 47
1, 116460, Note_on_c, 0, 57, 68
1, 116467, Note_on_c, 0, 77, 60
1, 116497, Note_off_c, 0, 57, 61
1, 116527, Note_on_c, 0, 74, 64
1, 116538, Note_on_c, 0, 56, 64
1, 116548, Note_off_c, 0, 77, 55
1, 116572, Note_off_c, 0, 56, 66
1, 116594, Note_on_c, 0, 55, 71
1, 116598, Note_on_c, 0, 76, 68
1, 116610, Note_off_c, 0, 74, 61
1, 116636, Note_off_c, 0, 55, 57
1, 116649, Note_on_c, 0, 68, 66
1, 116657, Note_on_c, 0, 54, 73
1, 116667, Note_off_c, 0, 76, 60
1, 116703, Note_off_c, 0, 68, 55
1, 116704, Note_off_c, 0, 54, 62
1, 116715, Note_on_c, 0, 77, 77
1, 116721, Note_on_c, 0, 53, 71
1, 116773, Note_on_c, 0, 74, 69
1, 116778, Note_on_c, 0, 52, 81
1, 116787, Note_off_c, 0, 53, 56
1, 116814, Note_off_c, 0, 77, 60
1, 116843, Note_on_c, 0, 76, 79
1, 116849, Note_on_c, 0, 51, 83
1, 116852, Note_off_c, 0, 52, 65
1, 116869, Note_off_c, 0, 74, 62
1, 116901, Note_on_c, 0, 68, 76
1, 116905, Note_off_c, 0, 51, 65
1, 116912, Note_on_c, 0, 50, 80
1, 116914, Note_off_c, 0, 76, 62
1, 116946, Note_off_c, 0, 68, 61
1, 116963, Note_off_c, 0, 50, 62
1, 116964, Note_on_c, 0, 77, 86
1, 116981, Note_on_c, 0, 49, 81
1, 117025, Note_on_c, 0, 74, 75
1, 117042, Note_off_c, 0, 49, 64
1, 117047, Note_on_c, 0, 48, 86
1, 117070, Note_off_c, 0, 77, 56
1, 117093, Note_on_c, 0, 76, 87
1, 117108, Note_on_c, 0, 47, 89
1, 117128, Note_off_c, 0, 74, 62
1, 117158, Note_on_c, 0, 68, 84
1, 117160, Note_on_c, 0, 46, 80
1, 117168, Note_off_c, 0, 76, 62
1, 117174, Note_off_c, 0, 48, 55
1, 117200, Note_off_c, 0, 47, 44
1, 117213, Note_off_c, 0, 68, 61
1, 117215, Note_on_c, 0, 77, 82
1, 117222, Note_on_c, 0, 45, 84
1, 117224, Note_off_c, 0, 46, 62
1, 117246, Note_on_c, 0, 47, 36
1, 117274, Note_on_c, 0, 74, 79
1, 117278, Note_off_c, 0, 47, 49
1, 117292, Note_on_c, 0, 44, 90
1, 117296, Note_off_c, 0, 45, 64
1, 117328, Note_off_c, 0, 77, 57
1, 117332, Note_on_c, 0, 76, 84
1, 117349, Note_off_c, 0, 44, 63
1, 117355, Note_on_c, 0, 43, 89
1, 117366, Note_off_c, 0, 74, 61
1, 117394, Note_on_c, 0, 68, 86
1, 117407, Note_on_c, 0, 42, 88
1, 117413, Note_off_c, 0, 43, 62
1, 117427, Note_off_c, 0, 76, 62
1, 117453, Note_off_c, 0, 42, 64
1, 117469, Note_off_c, 0, 68, 62
1, 117478, Note_on_c, 0, 41, 103
1, 117478, Note_on_c, 0, 77, 101
1, 117487, Control_c, 0, 64, 117
1, 117502, Control_c, 0, 64, 84
1, 117516, Control_c, 0, 64, 65
1, 117531, Control_c, 0, 64, 25
1, 117546, Control_c, 0, 64, 0
1, 117548, Note_on_c, 0, 74, 73
1, 117562, Note_on_c, 0, 40, 84
1, 117590, Control_c, 0, 64, 33
1, 117592, Note_off_c, 0, 77, 56
1, 117601, Note_off_c, 0, 41, 60
1, 117605, Control_c, 0, 64, 61
1, 117614, Note_on_c, 0, 76, 72
1, 117620, Control_c, 0, 64, 73
1, 117624, Note_on_c, 0, 39, 70
1, 117633, Note_off_c, 0, 40, 62
1, 117634, Control_c, 0, 64, 127
1, 117636, Note_off_c, 0, 74, 63
1, 117654, Note_on_c, 0, 68, 74
1, 117674, Note_off_c, 0, 76, 61
1, 117690, Note_on_c, 0, 40, 64
1, 117702, Note_off_c, 0, 39, 61
1, 117708, Note_off_c, 0, 68, 61
1, 117723, Note_on_c, 0, 77, 74
1, 117727, Note_on_c, 0, 41, 65
1, 117730, Note_off_c, 0, 40, 62
1, 117785, Note_on_c, 0, 74, 82
1, 117796, Note_on_c, 0, 40, 68
1, 117798, Note_off_c, 0, 41, 64
1, 117801, Note_off_c, 0, 77, 63
1, 117852, Note_on_c, 0, 39, 68
1, 117854, Note_off_c, 0, 74, 62
1, 117856, Note_on_c, 0, 76, 77
1, 117862, Note_off_c, 0, 40, 63
1, 117880, Note_off_c, 0, 76, 70
1, 117928, Note_on_c, 0, 40, 74
1, 117939, Note_on_c, 0, 80, 74
1, 117939, Note_off_c, 0, 39, 61
1, 117957, Note_on_c, 0, 82, 61
1, 117976, Note_off_c, 0, 82, 65
1, 117987, Note_on_c, 0, 41, 81
1, 117987, Note_off_c, 0, 40, 63
1, 117987, Note_off_c, 0, 80, 64
1, 118003, Note_on_c, 0, 89, 89
1, 118050, Note_on_c, 0, 40, 78
1, 118053, Note_on_c, 0, 86, 88
1, 118058, Note_on_c, 0, 87, 45
1, 118059, Note_off_c, 0, 87, 127
1, 118061, Note_off_c, 0, 41, 58
1, 118062, Note_off_c, 0, 89, 63
1, 118112, Note_on_c, 0, 39, 79
1, 118113, Note_on_c, 0, 88, 85
1, 118114, Note_off_c, 0, 40, 65
1, 118121, Note_off_c, 0, 86, 64
1, 118136, Note_off_c, 0, 88, 69
1, 118179, Note_on_c, 0, 40, 85
1, 118184, Note_on_c, 0, 92, 103
1, 118198, Note_off_c, 0, 39, 61
1, 118240, Note_on_c, 0, 41, 85
1, 118247, Note_off_c, 0, 40, 64
1, 118250, Note_on_c, 0, 101, 100
1, 118259, Note_off_c, 0, 92, 62
1, 118306, Note_off_c, 0, 101, 67
1, 118310, Note_on_c, 0, 40, 85
1, 118312, Note_on_c, 0, 98, 100
1, 118334, Note_off_c, 0, 41, 61
1, 118375, Note_on_c, 0, 39, 84
1, 118375, Note_on_c, 0, 100, 92
1, 118385, Note_off_c, 0, 40, 63
1, 118398, Note_off_c, 0, 98, 66
1, 118431, Note_on_c, 0, 37, 12
1, 118436, Note_on_c, 0, 92, 96
1, 118449, Note_on_c, 0, 40, 84
1, 118464, Note_off_c, 0, 39, 61
1, 118464, Note_off_c, 0, 100, 65
1, 118488, Note_off_c, 0, 37, 46
1, 118499, Note_on_c, 0, 101, 103
1, 118524, Note_on_c, 0, 41, 90
1, 118524, Note_off_c, 0, 92, 66
1, 118527, Note_off_c, 0, 40, 64
1, 118576, Note_off_c, 0, 101, 66
1, 118581, Note_on_c, 0, 98, 104
1, 118584, Control_c, 0, 64, 75
1, 118596, Note_on_c, 0, 40, 90
1, 118599, Control_c, 0, 64, 48
1, 118613, Control_c, 0, 64, 0
1, 118621, Note_off_c, 0, 41, 63
1, 118628, Control_c, 0, 64, 47
1, 118633, Note_off_c, 0, 98, 67
1, 118643, Control_c, 0, 64, 63
1, 118655, Note_on_c, 0, 100, 107
1, 118658, Control_c, 0, 64, 84
1, 118664, Note_on_c, 0, 39, 93
1, 118671, Note_on_c, 0, 98, 47
1, 118673, Control_c, 0, 64, 127
1, 118685, Note_off_c, 0, 40, 64
1, 118700, Note_off_c, 0, 98, 32
1, 118738, Note_on_c, 0, 92, 104
1, 118746, Note_on_c, 0, 40, 85
1, 118763, Note_off_c, 0, 100, 66
1, 118777, Note_off_c, 0, 39, 58
1, 118796, Note_off_c, 0, 40, 65
1, 118807, Note_off_c, 0, 92, 62
1, 118811, Note_on_c, 0, 101, 100
1, 118822, Note_on_c, 0, 41, 93
1, 118863, Note_off_c, 0, 101, 68
1, 118879, Note_off_c, 0, 41, 65
1, 118894, Note_on_c, 0, 98, 113
1, 118903, Note_on_c, 0, 40, 91
1, 118942, Note_off_c, 0, 98, 69
1, 118952, Note_off_c, 0, 40, 65
1, 118986, Note_on_c, 0, 100, 112
1, 118988, Note_on_c, 0, 39, 93
1, 119004, Note_on_c, 0, 98, 78
1, 119020, Note_off_c, 0, 98, 44
1, 119043, Poly_aftertouch_c, 0, 40, 127
1, 119061, Note_on_c, 0, 40, 21
1, 119070, Note_off_c, 0, 39, 60
1, 119071, Note_on_c, 0, 92, 105
1, 119078, Note_on_c, 0, 90, 91
1, 119109, Note_off_c, 0, 100, 64
1, 119114, Note_off_c, 0, 40, 64
1, 119156, Note_off_c, 0, 90, 62
1, 119159, Note_off_c, 0, 92, 65
1, 119177, Control_c, 0, 64, 113
1, 119192, Note_on_c, 0, 33, 116
1, 119192, Control_c, 0, 64, 72
1, 119205, Note_on_c, 0, 101, 99
1, 119207, Control_c, 0, 64, 0
1, 119239, Note_on_c, 0, 102, 32
1, 119240, Note_off_c, 0, 102, 127
1, 119248, Note_on_c, 0, 35, 26
1, 119279, Note_off_c, 0, 101, 66
1, 119283, Note_on_c, 0, 96, 76
1, 119303, Note_off_c, 0, 35, 32
1, 119318, Control_c, 0, 64, 65
1, 119333, Control_c, 0, 64, 121
1, 119348, Control_c, 0, 64, 127
1, 119350, Note_on_c, 0, 100, 87
1, 119358, Note_off_c, 0, 33, 62
1, 119379, Note_off_c, 0, 96, 65
1, 119398, Note_on_c, 0, 93, 72
1, 119453, Note_on_c, 0, 99, 86
1, 119505, Note_off_c, 0, 100, 64
1, 119525, Note_on_c, 0, 96, 82
1, 119548, Note_off_c, 0, 99, 65
1, 119561, Note_off_c, 0, 93, 54
1, 119568, Note_off_c, 0, 96, 65
1, 119584, Note_on_c, 0, 64, 104
1, 119585, Note_on_c, 0, 60, 96
1, 119586, Note_on_c, 0, 57, 93
1, 119587, Note_on_c, 0, 98, 100
1, 119617, Note_off_c, 0, 64, 70
1, 119621, Note_off_c, 0, 60, 68
1, 119624, Note_off_c, 0, 57, 68
1, 119660, Note_on_c, 0, 93, 93
1, 119701, Note_on_c, 0, 97, 78
1, 119705, Note_off_c, 0, 93, 67
1, 119734, Note_off_c, 0, 98, 65
1, 119763, Note_on_c, 0, 93, 82
1, 119778, Note_off_c, 0, 97, 65
1, 119811, Note_on_c, 0, 96, 91
1, 119832, Note_off_c, 0, 93, 65
1, 119859, Note_on_c, 0, 60, 86
1, 119860, Note_on_c, 0, 57, 85
1, 119860, Note_on_c, 0, 64, 87
1, 119865, Note_on_c, 0, 88, 72
1, 119874, Note_off_c, 0, 96, 67
1, 119878, Note_off_c, 0, 64, 74
1, 119882, Note_off_c, 0, 60, 65
1, 119887, Note_off_c, 0, 57, 68
1, 119908, Note_off_c, 0, 88, 64
1, 119932, Note_on_c, 0, 64, 98
1, 119935, Note_on_c, 0, 95, 103
1, 119936, Note_on_c, 0, 57, 78
1, 119941, Control_c, 0, 64, 91
1, 119944, Note_on_c, 0, 60, 77
1, 119948, Note_on_c, 0, 62, 77
1, 119955, Control_c, 0, 64, 65
1, 119970, Control_c, 0, 64, 41
1, 119985, Control_c, 0, 64, 9
1, 119999, Note_on_c, 0, 88, 84
1, 120008, Control_c, 0, 64, 30
1, 120014, Note_off_c, 0, 95, 65
1, 120023, Control_c, 0, 64, 55
1, 120037, Note_off_c, 0, 62, 55
1, 120037, Control_c, 0, 64, 66
1, 120052, Control_c, 0, 64, 82
1, 120067, Control_c, 0, 64, 127
1, 120073, Note_on_c, 0, 94, 88
1, 120087, Note_off_c, 0, 88, 64
1, 120105, Note_on_c, 0, 84, 85
1, 120137, Note_off_c, 0, 94, 64
1, 120154, Note_off_c, 0, 57, 58
1, 120157, Note_off_c, 0, 84, 57
1, 120159, Note_off_c, 0, 60, 25
1, 120167, Note_on_c, 0, 93, 92
1, 120220, Note_on_c, 0, 88, 88
1, 120269, Note_off_c, 0, 64, 61
1, 120289, Note_on_c, 0, 92, 96
1, 120292, Note_on_c, 0, 65, 98
1, 120295, Note_on_c, 0, 60, 82
1, 120301, Note_on_c, 0, 57, 84
1, 120304, Note_off_c, 0, 88, 65
1, 120304, Control_c, 0, 64, 104
1, 120320, Control_c, 0, 64, 74
1, 120334, Control_c, 0, 64, 55
1, 120349, Control_c, 0, 64, 26
1, 120351, Note_off_c, 0, 93, 22
1, 120360, Note_on_c, 0, 84, 75
1, 120362, Note_off_c, 0, 92, 65
1, 120364, Control_c, 0, 64, 26
1, 120379, Control_c, 0, 64, 46
1, 120394, Control_c, 0, 64, 63
1, 120405, Note_off_c, 0, 84, 61
1, 120407, Note_on_c, 0, 91, 89
1, 120408, Control_c, 0, 64, 74
1, 120423, Control_c, 0, 64, 121
1, 120438, Control_c, 0, 64, 127
1, 120467, Note_on_c, 0, 84, 84
1, 120472, Note_off_c, 0, 91, 66
1, 120491, Note_off_c, 0, 57, 55
1, 120497, Note_off_c, 0, 60, 61
1, 120528, Note_on_c, 0, 90, 91
1, 120547, Note_off_c, 0, 84, 63
1, 120575, Note_on_c, 0, 81, 77
1, 120606, Note_off_c, 0, 90, 63
1, 120614, Note_off_c, 0, 65, 55
1, 120642, Note_on_c, 0, 64, 97
1, 120643, Note_on_c, 0, 89, 93
1, 120646, Control_c, 0, 64, 92
1, 120646, Note_on_c, 0, 60, 87
1, 120646, Note_off_c, 0, 81, 62
1, 120649, Note_on_c, 0, 57, 80
1, 120660, Control_c, 0, 64, 70
1, 120675, Control_c, 0, 64, 51
1, 120690, Control_c, 0, 64, 0
1, 120712, Note_on_c, 0, 84, 85
1, 120734, Control_c, 0, 64, 36
1, 120757, Control_c, 0, 64, 62
1, 120772, Control_c, 0, 64, 73
1, 120783, Note_on_c, 0, 88, 84
1, 120786, Control_c, 0, 64, 104
1, 120792, Note_off_c, 0, 84, 62
1, 120800, Control_c, 0, 64, 127
1, 120801, Note_off_c, 0, 60, 61
1, 120809, Note_off_c, 0, 57, 63
1, 120820, Note_on_c, 0, 81, 72
1, 120822, Note_off_c, 0, 89, 61
1, 120877, Note_on_c, 0, 87, 90
1, 120879, Note_off_c, 0, 64, 55
1, 120910, Note_off_c, 0, 88, 65
1, 120945, Note_on_c, 0, 84, 81
1, 120965, Note_off_c, 0, 87, 65
1, 120986, Note_off_c, 0, 81, 58
1, 120995, Note_off_c, 0, 84, 54
1, 121001, Note_on_c, 0, 60, 99
1, 121004, Note_on_c, 0, 57, 88
1, 121004, Note_on_c, 0, 52, 85
1, 121010, Note_on_c, 0, 86, 88
1, 121022, Control_c, 0, 64, 106
1, 121037, Control_c, 0, 64, 79
1, 121052, Control_c, 0, 64, 64
1, 121067, Control_c, 0, 64, 41
1, 121077, Note_on_c, 0, 81, 78
1, 121082, Control_c, 0, 64, 0
1, 121097, Control_c, 0, 64, 30
1, 121112, Control_c, 0, 64, 56
1, 121120, Note_off_c, 0, 81, 67
1, 121124, Note_on_c, 0, 85, 79
1, 121127, Control_c, 0, 64, 67
1, 121142, Control_c, 0, 64, 82
1, 121156, Control_c, 0, 64, 127
1, 121157, Note_off_c, 0, 86, 63
1, 121186, Note_on_c, 0, 81, 79
1, 121189, Note_off_c, 0, 57, 59
1, 121196, Note_off_c, 0, 85, 66
1, 121202, Note_off_c, 0, 60, 57
1, 121235, Note_on_c, 0, 84, 91
1, 121249, Note_off_c, 0, 81, 64
1, 121284, Note_on_c, 0, 76, 71
1, 121296, Note_off_c, 0, 84, 64
1, 121344, Note_off_c, 0, 52, 64
1, 121350, Control_c, 0, 64, 102
1, 121353, Note_on_c, 0, 64, 97
1, 121359, Note_on_c, 0, 57, 77
1, 121362, Note_on_c, 0, 60, 86
1, 121362, Note_on_c, 0, 83, 92
1, 121362, Note_off_c, 0, 76, 44
1, 121364, Control_c, 0, 64, 72
1, 121379, Control_c, 0, 64, 53
1, 121394, Control_c, 0, 64, 0
1, 121425, Note_on_c, 0, 76, 70
1, 121435, Note_off_c, 0, 83, 63
1, 121436, Note_off_c, 0, 64, 54
1, 121438, Control_c, 0, 64, 35
1, 121453, Control_c, 0, 64, 63
1, 121468, Control_c, 0, 64, 74
1, 121482, Control_c, 0, 64, 121
1, 121493, Note_on_c, 0, 82, 83
1, 121497, Control_c, 0, 64, 127
1, 121499, Note_off_c, 0, 60, 58
1, 121513, Note_off_c, 0, 76, 64
1, 121515, Note_off_c, 0, 57, 28
1, 121537, Note_on_c, 0, 72, 73
1, 121557, Note_off_c, 0, 82, 66
1, 121603, Note_on_c, 0, 81, 77
1, 121606, Note_off_c, 0, 72, 62
1, 121657, Note_on_c, 0, 76, 79
1, 121717, Note_on_c, 0, 80, 84
1, 121733, Note_off_c, 0, 81, 60
1, 121737, Note_off_c, 0, 76, 64
1, 121776, Note_on_c, 0, 72, 62
1, 121783, Note_off_c, 0, 80, 65
1, 121824, Note_on_c, 0, 79, 85
1, 121839, Note_off_c, 0, 72, 63
1, 121885, Note_on_c, 0, 72, 69
1, 121895, Note_off_c, 0, 79, 60
1, 121942, Note_on_c, 0, 78, 82
1, 121959, Note_off_c, 0, 72, 64
1, 121986, Note_on_c, 0, 69, 73
1, 122009, Control_c, 0, 64, 104
1, 122019, Note_off_c, 0, 78, 63
1, 122024, Control_c, 0, 64, 76
1, 122038, Control_c, 0, 64, 60
1, 122042, Note_on_c, 0, 33, 96
1, 122053, Control_c, 0, 64, 0
1, 122057, Note_on_c, 0, 77, 84
1, 122066, Note_off_c, 0, 69, 62
1, 122098, Note_off_c, 0, 33, 64
1, 122098, Control_c, 0, 64, 57
1, 122113, Control_c, 0, 64, 69
1, 122118, Note_on_c, 0, 72, 67
1, 122128, Control_c, 0, 64, 88
1, 122143, Control_c, 0, 64, 127
1, 122181, Note_on_c, 0, 76, 77
1, 122186, Note_off_c, 0, 72, 64
1, 122206, Note_on_c, 0, 69, 70
1, 122217, Note_off_c, 0, 77, 59
1, 122277, Note_on_c, 0, 75, 81
1, 122298, Note_off_c, 0, 76, 62
1, 122334, Note_off_c, 0, 75, 63
1, 122340, Note_on_c, 0, 72, 75
1, 122372, Note_off_c, 0, 69, 51
1, 122390, Note_on_c, 0, 52, 92
1, 122395, Note_on_c, 0, 45, 82
1, 122398, Note_on_c, 0, 74, 79
1, 122399, Note_off_c, 0, 72, 59
1, 122423, Note_off_c, 0, 45, 65
1, 122426, Note_off_c, 0, 52, 64
1, 122484, Note_on_c, 0, 69, 72
1, 122506, Note_off_c, 0, 69, 65
1, 122509, Note_on_c, 0, 73, 81
1, 122539, Note_off_c, 0, 74, 61
1, 122584, Note_off_c, 0, 73, 64
1, 122587, Note_on_c, 0, 69, 76
1, 122634, Note_on_c, 0, 72, 83
1, 122641, Note_off_c, 0, 69, 64
1, 122651, Note_on_c, 0, 52, 82
1, 122660, Note_on_c, 0, 45, 70
1, 122674, Note_off_c, 0, 52, 71
1, 122678, Note_off_c, 0, 72, 65
1, 122687, Note_on_c, 0, 64, 61
1, 122691, Note_off_c, 0, 45, 65
1, 122728, Control_c, 0, 64, 104
1, 122736, Note_on_c, 0, 52, 88
1, 122743, Control_c, 0, 64, 81
1, 122748, Note_on_c, 0, 45, 76
1, 122757, Note_on_c, 0, 71, 84
1, 122758, Control_c, 0, 64, 64
1, 122764, Note_off_c, 0, 64, 62
1, 122773, Control_c, 0, 64, 45
1, 122788, Control_c, 0, 64, 26
1, 122802, Control_c, 0, 64, 30
1, 122817, Control_c, 0, 64, 48
1, 122819, Note_on_c, 0, 64, 64
1, 122823, Note_off_c, 0, 71, 61
1, 122832, Control_c, 0, 64, 61
1, 122846, Control_c, 0, 64, 68
1, 122861, Control_c, 0, 64, 83
1, 122876, Control_c, 0, 64, 127
1, 122880, Note_on_c, 0, 70, 77
1, 122890, Note_off_c, 0, 64, 61
1, 122907, Note_on_c, 0, 60, 73
1, 122938, Note_off_c, 0, 70, 63
1, 122942, Note_off_c, 0, 45, 51
1, 122977, Note_off_c, 0, 60, 58
1, 122980, Note_on_c, 0, 69, 84
1, 123037, Note_on_c, 0, 64, 72
1, 123100, Note_on_c, 0, 68, 83
1, 123103, Note_off_c, 0, 52, 63
1, 123110, Note_on_c, 0, 53, 82
1, 123119, Note_on_c, 0, 45, 69
1, 123119, Note_off_c, 0, 69, 56
1, 123121, Note_off_c, 0, 64, 62
1, 123121, Control_c, 0, 64, 89
1, 123135, Control_c, 0, 64, 68
1, 123150, Control_c, 0, 64, 56
1, 123160, Note_on_c, 0, 60, 66
1, 123163, Note_off_c, 0, 68, 62
1, 123165, Control_c, 0, 64, 42
1, 123179, Control_c, 0, 64, 39
1, 123194, Control_c, 0, 64, 38
1, 123209, Control_c, 0, 64, 39
1, 123223, Note_on_c, 0, 67, 77
1, 123224, Control_c, 0, 64, 50
1, 123233, Note_off_c, 0, 60, 64
1, 123239, Control_c, 0, 64, 62
1, 123253, Control_c, 0, 64, 68
1, 123268, Control_c, 0, 64, 77
1, 123281, Note_on_c, 0, 60, 58
1, 123283, Control_c, 0, 64, 97
1, 123289, Note_off_c, 0, 67, 62
1, 123298, Control_c, 0, 64, 127
1, 123341, Note_on_c, 0, 66, 77
1, 123341, Note_off_c, 0, 45, 57
1, 123353, Note_off_c, 0, 60, 63
1, 123388, Note_on_c, 0, 57, 68
1, 123390, Note_off_c, 0, 53, 59
1, 123409, Note_off_c, 0, 66, 62
1, 123446, Control_c, 0, 64, 118
1, 123456, Note_on_c, 0, 52, 73
1, 123460, Control_c, 0, 64, 84
1, 123464, Note_on_c, 0, 65, 73
1, 123468, Note_on_c, 0, 45, 61
1, 123473, Note_off_c, 0, 57, 59
1, 123475, Control_c, 0, 64, 68
1, 123490, Control_c, 0, 64, 59
1, 123506, Control_c, 0, 64, 53
1, 123523, Note_on_c, 0, 60, 61
1, 123536, Control_c, 0, 64, 56
1, 123537, Note_off_c, 0, 52, 64
1, 123550, Control_c, 0, 64, 63
1, 123565, Control_c, 0, 64, 70
1, 123580, Control_c, 0, 64, 85
1, 123583, Note_off_c, 0, 45, 61
1, 123589, Note_off_c, 0, 60, 65
1, 123592, Note_on_c, 0, 64, 74
1, 123595, Note_off_c, 0, 65, 54
1, 123595, Control_c, 0, 64, 127
1, 123621, Note_on_c, 0, 57, 63
1, 123684, Note_on_c, 0, 63, 78
1, 123693, Note_off_c, 0, 64, 61
1, 123756, Note_on_c, 0, 60, 67
1, 123760, Note_off_c, 0, 63, 64
1, 123792, Note_off_c, 0, 60, 55
1, 123807, Note_on_c, 0, 33, 88
1, 123808, Note_off_c, 0, 57, 32
1, 123809, Control_c, 0, 64, 88
1, 123815, Note_on_c, 0, 62, 78
1, 123824, Control_c, 0, 64, 70
1, 123839, Control_c, 0, 64, 61
1, 123854, Control_c, 0, 64, 54
1, 123869, Control_c, 0, 64, 53
1, 123884, Control_c, 0, 64, 55
1, 123899, Control_c, 0, 64, 61
1, 123903, Note_on_c, 0, 57, 64
1, 123913, Control_c, 0, 64, 67
1, 123928, Note_off_c, 0, 57, 66
1, 123928, Control_c, 0, 64, 78
1, 123929, Note_on_c, 0, 61, 76
1, 123943, Control_c, 0, 64, 117
1, 123955, Note_off_c, 0, 62, 58
1, 123958, Control_c, 0, 64, 127
1, 123990, Note_on_c, 0, 57, 76
1, 123997, Note_off_c, 0, 61, 60
1, 124042, Note_on_c, 0, 60, 83
1, 124054, Note_off_c, 0, 57, 65
1, 124087, Note_on_c, 0, 52, 70
1, 124092, Note_off_c, 0, 60, 65
1, 124136, Control_c, 0, 64, 106
1, 124149, Note_off_c, 0, 52, 60
1, 124150, Control_c, 0, 64, 72
1, 124161, Note_on_c, 0, 40, 89
1, 124164, Note_on_c, 0, 59, 86
1, 124165, Control_c, 0, 64, 60
1, 124180, Control_c, 0, 64, 49
1, 124195, Control_c, 0, 64, 47
1, 124224, Control_c, 0, 64, 54
1, 124228, Note_off_c, 0, 59, 61
1, 124229, Note_on_c, 0, 52, 78
1, 124239, Control_c, 0, 64, 64
1, 124254, Control_c, 0, 64, 76
1, 124269, Control_c, 0, 64, 112
1, 124283, Control_c, 0, 64, 127
1, 124289, Note_on_c, 0, 58, 86
1, 124298, Note_off_c, 0, 52, 64
1, 124334, Note_on_c, 0, 48, 78
1, 124358, Note_off_c, 0, 58, 63
1, 124393, Note_off_c, 0, 48, 61
1, 124394, Note_on_c, 0, 57, 88
1, 124427, Note_off_c, 0, 33, 59
1, 124447, Note_on_c, 0, 52, 86
1, 124483, Note_off_c, 0, 57, 0
1, 124506, Note_on_c, 0, 56, 90
1, 124510, Poly_aftertouch_c, 0, 57, 0
1, 124531, Note_off_c, 0, 52, 62
1, 124563, Note_on_c, 0, 48, 87
1, 124611, Note_off_c, 0, 48, 64
1, 124620, Note_on_c, 0, 57, 75
1, 124665, Note_on_c, 0, 52, 84
1, 124694, Note_off_c, 0, 56, 62
1, 124706, Note_on_c, 0, 60, 85
1, 124715, Note_off_c, 0, 52, 65
1, 124717, Note_off_c, 0, 40, 24
1, 124724, Note_off_c, 0, 57, 61
1, 124778, Note_on_c, 0, 53, 72
1, 124784, Note_off_c, 0, 60, 65
1, 124820, Note_on_c, 0, 32, 101
1, 124834, Note_off_c, 0, 53, 62
1, 124840, Control_c, 0, 64, 110
1, 124851, Note_on_c, 0, 64, 84
1, 124855, Control_c, 0, 64, 69
1, 124870, Control_c, 0, 64, 0
1, 124897, Note_on_c, 0, 59, 87
1, 124925, Note_off_c, 0, 64, 64
1, 124944, Control_c, 0, 64, 49
1, 124957, Note_off_c, 0, 32, 62
1, 124959, Control_c, 0, 64, 75
1, 124972, Note_on_c, 0, 62, 81
1, 124973, Control_c, 0, 64, 127
1, 124981, Note_off_c, 0, 59, 63
1, 125001, Note_off_c, 0, 62, 66
1, 125049, Note_on_c, 0, 65, 83
1, 125092, Note_off_c, 0, 65, 63
1, 125103, Note_on_c, 0, 76, 92
1, 125156, Note_on_c, 0, 71, 92
1, 125179, Note_off_c, 0, 76, 65
1, 125233, Note_on_c, 0, 62, 105
1, 125235, Note_on_c, 0, 53, 108
1, 125240, Note_on_c, 0, 74, 85
1, 125262, Note_off_c, 0, 71, 62
1, 125274, Note_off_c, 0, 62, 68
1, 125275, Note_off_c, 0, 53, 66
1, 125288, Note_off_c, 0, 74, 65
1, 125339, Note_on_c, 0, 77, 88
1, 125386, Note_off_c, 0, 77, 63
1, 125390, Note_on_c, 0, 88, 86
1, 125450, Note_on_c, 0, 83, 93
1, 125505, Note_on_c, 0, 86, 81
1, 125507, Note_off_c, 0, 88, 64
1, 125523, Note_off_c, 0, 83, 64
1, 125529, Control_c, 0, 64, 94
1, 125544, Control_c, 0, 64, 76
1, 125559, Control_c, 0, 64, 55
1, 125562, Note_on_c, 0, 77, 83
1, 125574, Control_c, 0, 64, 0
1, 125580, Note_off_c, 0, 86, 63
1, 125582, Note_on_c, 0, 62, 88
1, 125595, Note_on_c, 0, 53, 69
1, 125609, Note_off_c, 0, 62, 64
1, 125612, Note_on_c, 0, 52, 43
1, 125613, Note_off_c, 0, 52, 127
1, 125617, Note_off_c, 0, 77, 64
1, 125619, Note_off_c, 0, 53, 63
1, 125651, Note_on_c, 0, 60, 73
1, 125651, Note_on_c, 0, 86, 88
1, 125654, Note_on_c, 0, 53, 87
1, 125663, Control_c, 0, 64, 54
1, 125678, Control_c, 0, 64, 73
1, 125683, Note_off_c, 0, 53, 67
1, 125690, Note_off_c, 0, 60, 66
1, 125693, Control_c, 0, 64, 108
1, 125708, Control_c, 0, 64, 127
1, 125709, Note_on_c, 0, 81, 79
1, 125714, Note_off_c, 0, 86, 65
1, 125766, Note_on_c, 0, 84, 88
1, 125781, Note_off_c, 0, 81, 66
1, 125818, Note_off_c, 0, 84, 64
1, 125823, Note_on_c, 0, 77, 82
1, 125851, Note_off_c, 0, 77, 64
1, 125871, Control_c, 0, 64, 104
1, 125886, Control_c, 0, 64, 76
1, 125895, Note_on_c, 0, 74, 92
1, 125902, Control_c, 0, 64, 61
1, 125917, Control_c, 0, 64, 0
1, 125952, Note_on_c, 0, 69, 78
1, 125968, Note_off_c, 0, 74, 58
1, 126015, Note_on_c, 0, 72, 82
1, 126022, Note_on_c, 0, 45, 98
1, 126024, Note_on_c, 0, 33, 92
1, 126036, Note_off_c, 0, 69, 65
1, 126070, Note_off_c, 0, 72, 66
1, 126073, Control_c, 0, 64, 63
1, 126076, Note_on_c, 0, 65, 73
1, 126087, Control_c, 0, 64, 100
1, 126101, Note_off_c, 0, 65, 66
1, 126102, Control_c, 0, 64, 127
1, 126151, Note_on_c, 0, 62, 91
1, 126201, Note_off_c, 0, 45, 62
1, 126202, Note_on_c, 0, 57, 77
1, 126210, Note_off_c, 0, 33, 62
1, 126233, Note_off_c, 0, 62, 58
1, 126248, Note_on_c, 0, 60, 82
1, 126274, Note_off_c, 0, 57, 59
1, 126298, Note_on_c, 0, 53, 81
1, 126331, Note_off_c, 0, 60, 65
1, 126352, Note_off_c, 0, 53, 63
1, 126354, Control_c, 0, 64, 94
1, 126368, Note_on_c, 0, 44, 101
1, 126369, Control_c, 0, 64, 68
1, 126370, Note_on_c, 0, 32, 92
1, 126375, Note_on_c, 0, 64, 79
1, 126384, Control_c, 0, 64, 0
1, 126429, Note_on_c, 0, 59, 87
1, 126438, Note_off_c, 0, 32, 61
1, 126439, Note_off_c, 0, 64, 62
1, 126443, Control_c, 0, 64, 31
1, 126451, Note_off_c, 0, 44, 60
1, 126458, Control_c, 0, 64, 71
1, 126472, Control_c, 0, 64, 127
1, 126488, Note_on_c, 0, 62, 83
1, 126495, Note_off_c, 0, 59, 63
1, 126515, Note_off_c, 0, 62, 67
1, 126572, Note_on_c, 0, 65, 75
1, 126609, Note_off_c, 0, 65, 63
1, 126611, Note_on_c, 0, 76, 87
1, 126613, Note_on_c, 0, 67, 24
1, 126651, Note_off_c, 0, 67, 44
1, 126668, Note_on_c, 0, 71, 91
1, 126690, Note_off_c, 0, 76, 65
1, 126695, Control_c, 0, 64, 102
1, 126710, Control_c, 0, 64, 70
1, 126725, Control_c, 0, 64, 0
1, 126735, Note_on_c, 0, 74, 78
1, 126737, Note_on_c, 0, 55, 97
1, 126739, Note_off_c, 0, 71, 65
1, 126740, Note_on_c, 0, 62, 94
1, 126772, Note_off_c, 0, 74, 64
1, 126791, Control_c, 0, 64, 45
1, 126794, Note_off_c, 0, 62, 64
1, 126806, Control_c, 0, 64, 65
1, 126821, Control_c, 0, 64, 81
1, 126823, Note_off_c, 0, 55, 56
1, 126827, Note_on_c, 0, 77, 85
1, 126836, Control_c, 0, 64, 127
1, 126866, Note_on_c, 0, 53, 83
1, 126867, Note_on_c, 0, 62, 92
1, 126871, Note_off_c, 0, 77, 64
1, 126884, Note_on_c, 0, 86, 60
1, 126893, Note_on_c, 0, 88, 68
1, 126910, Note_off_c, 0, 62, 65
1, 126921, Note_on_c, 0, 83, 84
1, 126931, Note_off_c, 0, 53, 62
1, 126933, Note_off_c, 0, 88, 42
1, 126939, Control_c, 0, 64, 97
1, 126948, Note_off_c, 0, 86, 61
1, 126954, Control_c, 0, 64, 78
1, 126969, Control_c, 0, 64, 69
1, 126978, Note_on_c, 0, 62, 91
1, 126979, Note_on_c, 0, 52, 86
1, 126984, Control_c, 0, 64, 60
1, 126985, Note_on_c, 0, 84, 60
1, 126993, Note_on_c, 0, 86, 57
1, 126996, Note_off_c, 0, 83, 62
1, 126999, Control_c, 0, 64, 33
1, 127004, Note_off_c, 0, 84, 63
1, 127014, Control_c, 0, 64, 0
1, 127020, Note_on_c, 0, 77, 80
1, 127024, Note_off_c, 0, 52, 61
1, 127027, Note_off_c, 0, 62, 65
1, 127029, Note_off_c, 0, 86, 66
1, 127078, Note_off_c, 0, 77, 63
1, 127088, Note_on_c, 0, 60, 97
1, 127092, Note_on_c, 0, 52, 86
1, 127096, Note_on_c, 0, 88, 83
1, 127102, Control_c, 0, 64, 35
1, 127105, Note_on_c, 0, 86, 70
1, 127117, Control_c, 0, 64, 65
1, 127125, Note_off_c, 0, 60, 67
1, 127132, Control_c, 0, 64, 78
1, 127139, Note_off_c, 0, 52, 65
1, 127147, Control_c, 0, 64, 111
1, 127152, Note_on_c, 0, 81, 73
1, 127159, Note_off_c, 0, 88, 66
1, 127162, Control_c, 0, 64, 127
1, 127163, Note_off_c, 0, 86, 37
1, 127209, Note_on_c, 0, 84, 85
1, 127222, Note_off_c, 0, 81, 66
1, 127254, Note_off_c, 0, 84, 66
1, 127258, Note_on_c, 0, 76, 79
1, 127290, Note_off_c, 0, 76, 62
1, 127294, Control_c, 0, 64, 90
1, 127309, Control_c, 0, 64, 73
1, 127324, Control_c, 0, 64, 59
1, 127332, Note_on_c, 0, 74, 87
1, 127339, Control_c, 0, 64, 15
1, 127354, Control_c, 0, 64, 0
1, 127394, Note_on_c, 0, 69, 83
1, 127419, Note_off_c, 0, 74, 56
1, 127448, Note_on_c, 0, 72, 75
1, 127449, Note_on_c, 0, 45, 91
1, 127452, Note_on_c, 0, 33, 88
1, 127466, Note_off_c, 0, 69, 63
1, 127505, Note_off_c, 0, 72, 63
1, 127511, Control_c, 0, 64, 40
1, 127525, Control_c, 0, 64, 66
1, 127527, Note_on_c, 0, 64, 64
1, 127540, Control_c, 0, 64, 79
1, 127555, Control_c, 0, 64, 127
1, 127558, Note_off_c, 0, 64, 66
1, 127588, Note_on_c, 0, 62, 77
1, 127645, Note_on_c, 0, 57, 59
1, 127677, Note_off_c, 0, 33, 56
1, 127678, Note_on_c, 0, 60, 73
1, 127678, Note_off_c, 0, 62, 0
1, 127680, Note_off_c, 0, 45, 60
1, 127699, Note_off_c, 0, 57, 63
1, 127717, Poly_aftertouch_c, 0, 62, 127
1, 127741, Note_off_c, 0, 60, 62
1, 127743, Poly_aftertouch_c, 0, 62, 0
1, 127749, Note_on_c, 0, 59, 66
1, 127762, Control_c, 0, 64, 106
1, 127777, Control_c, 0, 64, 86
1, 127792, Control_c, 0, 64, 70
1, 127794, Note_off_c, 0, 59, 58
1, 127807, Control_c, 0, 64, 56
1, 127813, Note_on_c, 0, 47, 72
1, 127815, Note_on_c, 0, 35, 70
1, 127819, Note_on_c, 0, 69, 75
1, 127821, Control_c, 0, 64, 0
1, 127890, Note_on_c, 0, 64, 70
1, 127893, Note_off_c, 0, 69, 62
1, 127910, Note_off_c, 0, 35, 61
1, 127940, Control_c, 0, 64, 55
1, 127945, Note_on_c, 0, 68, 78
1, 127945, Note_off_c, 0, 64, 64
1, 127945, Note_off_c, 0, 47, 64
1, 127955, Control_c, 0, 64, 86
1, 127970, Control_c, 0, 64, 127
1, 127971, Note_off_c, 0, 68, 68
1, 128015, Note_on_c, 0, 71, 82
1, 128060, Note_off_c, 0, 71, 63
1, 128078, Note_on_c, 0, 79, 52
1, 128081, Note_on_c, 0, 81, 62
1, 128109, Note_off_c, 0, 79, 67
1, 128119, Note_on_c, 0, 76, 84
1, 128134, Note_off_c, 0, 81, 60
1, 128170, Note_on_c, 0, 64, 86
1, 128179, Note_on_c, 0, 56, 60
1, 128180, Note_on_c, 0, 59, 72
1, 128187, Note_on_c, 0, 80, 79
1, 128188, Note_off_c, 0, 76, 62
1, 128209, Note_off_c, 0, 80, 69
1, 128220, Note_off_c, 0, 56, 63
1, 128271, Note_off_c, 0, 64, 57
1, 128272, Note_on_c, 0, 83, 78
1, 128295, Note_on_c, 0, 68, 93
1, 128314, Note_off_c, 0, 83, 61
1, 128318, Note_off_c, 0, 59, 63
1, 128319, Note_on_c, 0, 93, 86
1, 128334, Note_off_c, 0, 68, 62
1, 128368, Note_on_c, 0, 88, 79
1, 128384, Note_off_c, 0, 93, 67
1, 128411, Note_on_c, 0, 73, 96
1, 128436, Note_off_c, 0, 88, 67
1, 128437, Note_off_c, 0, 73, 58
1, 128459, Note_on_c, 0, 91, 35
1, 128466, Control_c, 0, 64, 99
1, 128469, Note_on_c, 0, 83, 74
1, 128481, Control_c, 0, 64, 75
1, 128489, Note_off_c, 0, 91, 54
1, 128496, Control_c, 0, 64, 58
1, 128511, Control_c, 0, 64, 0
1, 128518, Note_off_c, 0, 83, 64
1, 128525, Note_on_c, 0, 63, 83
1, 128526, Note_on_c, 0, 69, 92
1, 128527, Note_on_c, 0, 71, 90
1, 128535, Note_on_c, 0, 59, 84
1, 128535, Note_on_c, 0, 92, 74
1, 128585, Control_c, 0, 64, 53
1, 128596, Note_on_c, 0, 87, 80
1, 128600, Control_c, 0, 64, 67
1, 128614, Note_off_c, 0, 92, 64
1, 128615, Control_c, 0, 64, 86
1, 128629, Control_c, 0, 64, 127
1, 128632, Note_off_c, 0, 71, 63
1, 128636, Note_off_c, 0, 69, 63
1, 128651, Note_on_c, 0, 90, 74
1, 128668, Note_off_c, 0, 87, 64
1, 128673, Note_off_c, 0, 63, 63
1, 128675, Note_off_c, 0, 59, 63
1, 128683, Note_off_c, 0, 90, 64
1, 128695, Note_on_c, 0, 83, 81
1, 128724, Note_off_c, 0, 83, 64
1, 128760, Note_on_c, 0, 80, 90
1, 128820, Note_on_c, 0, 75, 84
1, 128843, Note_off_c, 0, 80, 62
1, 128880, Note_on_c, 0, 78, 85
1, 128882, Note_on_c, 0, 59, 98
1, 128885, Note_on_c, 0, 47, 98
1, 128895, Note_off_c, 0, 75, 63
1, 128912, Note_off_c, 0, 59, 69
1, 128918, Note_off_c, 0, 47, 63
1, 128930, Note_off_c, 0, 78, 63
1, 128942, Note_on_c, 0, 71, 82
1, 128981, Note_off_c, 0, 71, 65
1, 129023, Note_on_c, 0, 68, 87
1, 129079, Note_on_c, 0, 63, 84
1, 129127, Note_on_c, 0, 66, 83
1, 129132, Note_off_c, 0, 68, 59
1, 129151, Note_off_c, 0, 63, 64
1, 129175, Note_on_c, 0, 59, 84
1, 129199, Note_off_c, 0, 66, 61
1, 129216, Control_c, 0, 64, 99
1, 129227, Note_off_c, 0, 59, 63
1, 129231, Control_c, 0, 64, 68
1, 129245, Control_c, 0, 64, 0
1, 129252, Note_on_c, 0, 52, 100
1, 129255, Note_on_c, 0, 40, 93
1, 129257, Note_on_c, 0, 69, 86
1, 129297, Note_on_c, 0, 71, 35
1, 129298, Note_off_c, 0, 71, 127
1, 129314, Note_on_c, 0, 64, 75
1, 129314, Note_off_c, 0, 40, 64
1, 129319, Control_c, 0, 64, 15
1, 129330, Note_off_c, 0, 69, 63
1, 129334, Control_c, 0, 64, 64
1, 129342, Note_on_c, 0, 65, 30
1, 129349, Note_off_c, 0, 52, 64
1, 129349, Control_c, 0, 64, 98
1, 129363, Control_c, 0, 64, 127
1, 129374, Note_on_c, 0, 68, 80
1, 129378, Note_off_c, 0, 65, 31
1, 129379, Note_off_c, 0, 64, 64
1, 129398, Note_off_c, 0, 68, 69
1, 129436, Note_on_c, 0, 71, 85
1, 129480, Note_off_c, 0, 71, 67
1, 129491, Note_on_c, 0, 81, 88
1, 129544, Note_on_c, 0, 76, 88
1, 129561, Note_off_c, 0, 81, 66
1, 129602, Note_on_c, 0, 68, 99
1, 129611, Note_off_c, 0, 76, 66
1, 129617, Note_on_c, 0, 59, 64
1, 129619, Note_on_c, 0, 60, 70
1, 129620, Note_on_c, 0, 79, 73
1, 129620, Note_on_c, 0, 80, 43
1, 129635, Note_off_c, 0, 79, 70
1, 129646, Note_off_c, 0, 60, 65
1, 129648, Note_off_c, 0, 59, 67
1, 129650, Note_off_c, 0, 68, 64
1, 129693, Note_on_c, 0, 83, 75
1, 129697, Note_on_c, 0, 81, 56
1, 129716, Note_on_c, 0, 67, 102
1, 129716, Note_off_c, 0, 80, 32
1, 129717, Note_on_c, 0, 58, 95
1, 129718, Note_off_c, 0, 83, 69
1, 129723, Note_on_c, 0, 91, 93
1, 129723, Note_off_c, 0, 81, 65
1, 129760, Note_on_c, 0, 93, 53
1, 129761, Note_off_c, 0, 93, 127
1, 129761, Note_off_c, 0, 67, 65
1, 129770, Note_off_c, 0, 58, 64
1, 129786, Note_on_c, 0, 88, 67
1, 129792, Note_on_c, 0, 86, 80
1, 129816, Note_off_c, 0, 86, 64
1, 129825, Note_on_c, 0, 68, 99
1, 129827, Note_on_c, 0, 59, 74
1, 129830, Note_on_c, 0, 92, 97
1, 129867, Note_off_c, 0, 88, 57
1, 129869, Note_off_c, 0, 68, 65
1, 129887, Note_off_c, 0, 59, 64
1, 129891, Note_off_c, 0, 91, 55
1, 129892, Note_on_c, 0, 83, 67
1, 129893, Note_on_c, 0, 81, 68
1, 129909, Note_off_c, 0, 81, 69
1, 129913, Poly_aftertouch_c, 0, 60, 127
1, 129917, Note_off_c, 0, 83, 68
1, 129927, Note_off_c, 0, 92, 66
1, 129938, Poly_aftertouch_c, 0, 60, 0
1, 129965, Control_c, 0, 64, 87
1, 129975, Note_on_c, 0, 64, 87
1, 129977, Note_on_c, 0, 52, 82
1, 129980, Control_c, 0, 64, 70
1, 129981, Note_on_c, 0, 100, 107
1, 129983, Note_on_c, 0, 56, 74
1, 129995, Control_c, 0, 64, 55
1, 130009, Control_c, 0, 64, 22
1, 130024, Control_c, 0, 64, 0
1, 130391, Note_off_c, 0, 64, 60
1, 130455, Note_off_c, 0, 56, 63
1, 130466, Note_off_c, 0, 52, 62
1, 130477, Note_off_c, 0, 100, 60
1, 130653, Control_c, 0, 64, 9
1, 130668, Control_c, 0, 64, 13
1, 130683, Control_c, 0, 64, 17
1, 130699, Control_c, 0, 64, 21
1, 130714, Control_c, 0, 64, 24
1, 130803, Control_c, 0, 64, 31
1, 130817, Control_c, 0, 64, 60
1, 130832, Control_c, 0, 64, 80
1, 130842, Note_on_c, 0, 33, 95
1, 130847, Control_c, 0, 64, 127
1, 130851, Note_on_c, 0, 103, 108
1, 130870, Note_on_c, 0, 101, 56
1, 130871, Note_off_c, 0, 101, 127
1, 130880, Note_off_c, 0, 33, 67
1, 130931, Note_on_c, 0, 96, 90
1, 130940, Note_off_c, 0, 103, 40
1, 130997, Note_on_c, 0, 100, 65
1, 130997, Note_on_c, 0, 101, 70
1, 130997, Note_off_c, 0, 96, 66
1, 131038, Note_on_c, 0, 93, 72
1, 131083, Note_on_c, 0, 99, 86
1, 131097, Note_off_c, 0, 101, 64
1, 131102, Note_off_c, 0, 100, 63
1, 131148, Note_on_c, 0, 96, 77
1, 131174, Note_off_c, 0, 99, 65
1, 131185, Note_off_c, 0, 96, 65
1, 131204, Note_off_c, 0, 93, 60
1, 131208, Note_on_c, 0, 64, 99
1, 131209, Note_on_c, 0, 57, 92
1, 131210, Note_on_c, 0, 60, 89
1, 131217, Note_on_c, 0, 98, 89
1, 131246, Note_off_c, 0, 64, 70
1, 131250, Note_off_c, 0, 57, 65
1, 131255, Note_off_c, 0, 60, 66
1, 131288, Note_on_c, 0, 93, 88
1, 131328, Note_on_c, 0, 97, 81
1, 131333, Note_off_c, 0, 93, 68
1, 131361, Note_off_c, 0, 98, 63
1, 131399, Note_on_c, 0, 93, 87
1, 131413, Note_off_c, 0, 97, 64
1, 131451, Note_on_c, 0, 96, 90
1, 131467, Note_off_c, 0, 93, 66
1, 131498, Note_on_c, 0, 64, 91
1, 131499, Note_on_c, 0, 60, 77
1, 131500, Note_on_c, 0, 57, 77
1, 131507, Note_on_c, 0, 88, 73
1, 131512, Note_off_c, 0, 96, 66
1, 131524, Note_off_c, 0, 57, 67
1, 131524, Note_off_c, 0, 64, 68
1, 131531, Note_off_c, 0, 60, 64
1, 131551, Control_c, 0, 64, 92
1, 131565, Control_c, 0, 64, 68
1, 131577, Note_on_c, 0, 64, 93
1, 131579, Note_on_c, 0, 95, 99
1, 131580, Control_c, 0, 64, 42
1, 131581, Note_on_c, 0, 57, 84
1, 131583, Note_on_c, 0, 60, 78
1, 131586, Note_off_c, 0, 88, 35
1, 131595, Control_c, 0, 64, 0
1, 131625, Control_c, 0, 64, 24
1, 131637, Note_on_c, 0, 88, 66
1, 131640, Control_c, 0, 64, 57
1, 131652, Note_off_c, 0, 95, 66
1, 131655, Control_c, 0, 64, 67
1, 131670, Control_c, 0, 64, 84
1, 131685, Control_c, 0, 64, 127
1, 131709, Note_on_c, 0, 94, 86
1, 131731, Note_off_c, 0, 88, 60
1, 131738, Note_off_c, 0, 57, 61
1, 131745, Note_on_c, 0, 84, 81
1, 131746, Note_off_c, 0, 60, 54
1, 131769, Note_off_c, 0, 94, 64
1, 131804, Note_off_c, 0, 84, 62
1, 131811, Note_on_c, 0, 93, 87
1, 131858, Note_on_c, 0, 88, 77
1, 131928, Note_on_c, 0, 92, 89
1, 131936, Note_on_c, 0, 65, 100
1, 131936, Control_c, 0, 64, 121
1, 131938, Note_on_c, 0, 60, 82
1, 131944, Note_on_c, 0, 57, 84
1, 131950, Note_off_c, 0, 88, 65
1, 131951, Control_c, 0, 64, 81
1, 131956, Note_off_c, 0, 93, 61
1, 131957, Note_off_c, 0, 64, 57
1, 131965, Control_c, 0, 64, 65
1, 131980, Control_c, 0, 64, 43
1, 132003, Control_c, 0, 64, 25
1, 132007, Note_on_c, 0, 84, 71
1, 132010, Note_off_c, 0, 92, 65
1, 132018, Control_c, 0, 64, 26
1, 132033, Control_c, 0, 64, 41
1, 132047, Control_c, 0, 64, 58
1, 132058, Note_on_c, 0, 91, 85
1, 132062, Control_c, 0, 64, 66
1, 132072, Note_off_c, 0, 84, 64
1, 132077, Control_c, 0, 64, 80
1, 132091, Control_c, 0, 64, 127
1, 132121, Note_on_c, 0, 84, 72
1, 132128, Note_off_c, 0, 91, 66
1, 132154, Note_off_c, 0, 60, 56
1, 132157, Note_off_c, 0, 57, 53
1, 132178, Note_on_c, 0, 90, 87
1, 132194, Note_off_c, 0, 84, 65
1, 132225, Note_on_c, 0, 81, 73
1, 132256, Note_off_c, 0, 90, 63
1, 132302, Note_on_c, 0, 64, 97
1, 132304, Note_on_c, 0, 89, 88
1, 132304, Note_off_c, 0, 81, 63
1, 132307, Note_on_c, 0, 57, 80
1, 132307, Note_on_c, 0, 60, 85
1, 132314, Control_c, 0, 64, 100
1, 132316, Note_off_c, 0, 65, 61
1, 132329, Control_c, 0, 64, 76
1, 132344, Control_c, 0, 64, 64
1, 132359, Control_c, 0, 64, 49
1, 132373, Note_on_c, 0, 84, 80
1, 132374, Control_c, 0, 64, 46
1, 132388, Control_c, 0, 64, 50
1, 132403, Control_c, 0, 64, 60
1, 132418, Control_c, 0, 64, 67
1, 132433, Control_c, 0, 64, 80
1, 132434, Note_on_c, 0, 88, 81
1, 132443, Note_off_c, 0, 84, 64
1, 132448, Control_c, 0, 64, 127
1, 132457, Note_off_c, 0, 57, 61
1, 132464, Note_off_c, 0, 60, 61
1, 132466, Note_off_c, 0, 89, 58
1, 132481, Note_on_c, 0, 81, 67
1, 132532, Note_on_c, 0, 87, 86
1, 132557, Note_off_c, 0, 88, 64
1, 132597, Note_on_c, 0, 84, 78
1, 132605, Note_off_c, 0, 64, 59
1, 132609, Note_off_c, 0, 87, 66
1, 132646, Note_off_c, 0, 84, 51
1, 132656, Note_off_c, 0, 81, 52
1, 132662, Note_on_c, 0, 60, 94
1, 132664, Note_on_c, 0, 86, 80
1, 132665, Note_on_c, 0, 52, 81
1, 132666, Note_on_c, 0, 57, 83
1, 132685, Control_c, 0, 64, 104
1, 132700, Control_c, 0, 64, 80
1, 132714, Control_c, 0, 64, 66
1, 132729, Control_c, 0, 64, 54
1, 132731, Note_on_c, 0, 81, 76
1, 132752, Control_c, 0, 64, 48
1, 132767, Control_c, 0, 64, 49
1, 132779, Note_off_c, 0, 81, 67
1, 132781, Control_c, 0, 64, 57
1, 132783, Note_on_c, 0, 85, 77
1, 132795, Control_c, 0, 64, 65
1, 132810, Control_c, 0, 64, 73
1, 132814, Note_off_c, 0, 86, 62
1, 132825, Control_c, 0, 64, 97
1, 132839, Control_c, 0, 64, 127
1, 132849, Note_on_c, 0, 81, 74
1, 132857, Note_off_c, 0, 85, 66
1, 132862, Note_off_c, 0, 57, 57
1, 132900, Note_on_c, 0, 84, 87
1, 132909, Note_off_c, 0, 60, 56
1, 132913, Note_off_c, 0, 81, 64
1, 132946, Note_on_c, 0, 76, 74
1, 132957, Note_off_c, 0, 84, 63
1, 133002, Control_c, 0, 64, 110
1, 133011, Note_on_c, 0, 64, 90
1, 133017, Control_c, 0, 64, 85
1, 133018, Note_on_c, 0, 60, 77
1, 133023, Note_on_c, 0, 57, 77
1, 133023, Note_on_c, 0, 83, 85
1, 133026, Note_off_c, 0, 52, 64
1, 133027, Note_off_c, 0, 76, 62
1, 133032, Control_c, 0, 64, 70
1, 133047, Control_c, 0, 64, 58
1, 133062, Control_c, 0, 64, 40
1, 133077, Control_c, 0, 64, 33
1, 133081, Note_on_c, 0, 76, 67
1, 133092, Control_c, 0, 64, 35
1, 133099, Note_off_c, 0, 83, 62
1, 133107, Control_c, 0, 64, 49
1, 133122, Control_c, 0, 64, 61
1, 133136, Control_c, 0, 64, 68
1, 133151, Note_off_c, 0, 64, 59
1, 133151, Control_c, 0, 64, 81
1, 133154, Note_on_c, 0, 82, 74
1, 133166, Control_c, 0, 64, 127
1, 133167, Note_off_c, 0, 76, 64
1, 133191, Note_off_c, 0, 60, 59
1, 133192, Note_on_c, 0, 72, 68
1, 133201, Note_off_c, 0, 57, 60
1, 133206, Note_off_c, 0, 82, 66
1, 133254, Note_on_c, 0, 81, 72
1, 133267, Note_off_c, 0, 72, 54
1, 133310, Note_on_c, 0, 76, 75
1, 133367, Note_off_c, 0, 81, 61
1, 133370, Note_on_c, 0, 80, 80
1, 133390, Note_off_c, 0, 76, 62
1, 133429, Note_on_c, 0, 72, 61
1, 133432, Note_off_c, 0, 80, 64
1, 133488, Note_on_c, 0, 79, 81
1, 133508, Note_off_c, 0, 72, 64
1, 133548, Note_on_c, 0, 72, 52
1, 133602, Note_on_c, 0, 78, 81
1, 133626, Note_off_c, 0, 72, 64
1, 133651, Note_off_c, 0, 79, 32
1, 133656, Note_on_c, 0, 69, 64
1, 133695, Note_off_c, 0, 78, 61
1, 133707, Control_c, 0, 64, 102
1, 133722, Control_c, 0, 64, 76
1, 133736, Note_on_c, 0, 31, 87
1, 133736, Control_c, 0, 64, 62
1, 133750, Note_on_c, 0, 77, 74
1, 133751, Control_c, 0, 64, 33
1, 133759, Note_off_c, 0, 69, 59
1, 133766, Control_c, 0, 64, 26
1, 133781, Control_c, 0, 64, 42
1, 133796, Control_c, 0, 64, 58
1, 133810, Control_c, 0, 64, 65
1, 133813, Note_off_c, 0, 31, 61
1, 133820, Note_on_c, 0, 72, 59
1, 133825, Control_c, 0, 64, 74
1, 133840, Control_c, 0, 64, 106
1, 133855, Control_c, 0, 64, 127
1, 133882, Note_on_c, 0, 76, 76
1, 133895, Note_off_c, 0, 72, 64
1, 133911, Note_off_c, 0, 77, 55
1, 133941, Note_on_c, 0, 69, 61
1, 133993, Note_on_c, 0, 75, 82
1, 134025, Note_off_c, 0, 76, 62
1, 134072, Note_on_c, 0, 72, 73
1, 134075, Note_off_c, 0, 75, 63
1, 134126, Note_off_c, 0, 72, 56
1, 134135, Note_on_c, 0, 52, 91
1, 134141, Note_on_c, 0, 43, 77
1, 134148, Note_on_c, 0, 74, 79
1, 134153, Note_off_c, 0, 69, 46
1, 134175, Note_off_c, 0, 43, 65
1, 134177, Note_off_c, 0, 52, 67
1, 134240, Note_on_c, 0, 69, 75
1, 134272, Note_off_c, 0, 69, 58
1, 134284, Note_on_c, 0, 73, 68
1, 134310, Note_off_c, 0, 74, 55
1, 134356, Note_on_c, 0, 69, 74
1, 134362, Note_off_c, 0, 73, 62
1, 134419, Note_on_c, 0, 72, 72
1, 134421, Note_off_c, 0, 69, 62
1, 134472, Note_on_c, 0, 52, 82
1, 134477, Note_off_c, 0, 72, 63
1, 134479, Note_on_c, 0, 64, 61
1, 134481, Note_on_c, 0, 43, 68
1, 134500, Note_off_c, 0, 52, 68
1, 134517, Note_off_c, 0, 43, 59
1, 134531, Control_c, 0, 64, 95
1, 134542, Note_off_c, 0, 64, 49
1, 134546, Control_c, 0, 64, 78
1, 134558, Note_on_c, 0, 71, 73
1, 134560, Control_c, 0, 64, 66
1, 134572, Note_on_c, 0, 52, 75
1, 134574, Note_on_c, 0, 43, 57
1, 134575, Control_c, 0, 64, 55
1, 134590, Control_c, 0, 64, 42
1, 134605, Control_c, 0, 64, 41
1, 134620, Control_c, 0, 64, 46
1, 134625, Note_on_c, 0, 64, 66
1, 134634, Note_off_c, 0, 71, 61
1, 134634, Control_c, 0, 64, 56
1, 134649, Control_c, 0, 64, 63
1, 134664, Control_c, 0, 64, 69
1, 134679, Control_c, 0, 64, 82
1, 134695, Control_c, 0, 64, 118
1, 134696, Note_on_c, 0, 70, 72
1, 134699, Note_off_c, 0, 64, 63
1, 134709, Control_c, 0, 64, 127
1, 134731, Note_on_c, 0, 60, 68
1, 134747, Note_off_c, 0, 70, 64
1, 134795, Note_on_c, 0, 69, 77
1, 134803, Note_off_c, 0, 60, 60
1, 134853, Note_on_c, 0, 64, 68
1, 134887, Control_c, 0, 64, 123
1, 134898, Note_off_c, 0, 52, 64
1, 134901, Control_c, 0, 64, 89
1, 134905, Note_on_c, 0, 53, 83
1, 134907, Note_off_c, 0, 69, 59
1, 134912, Note_on_c, 0, 68, 77
1, 134916, Control_c, 0, 64, 74
1, 134926, Note_off_c, 0, 64, 64
1, 134931, Control_c, 0, 64, 65
1, 134946, Control_c, 0, 64, 60
1, 134961, Control_c, 0, 64, 57
1, 134976, Note_off_c, 0, 68, 62
1, 134983, Control_c, 0, 64, 58
1, 134988, Note_on_c, 0, 60, 53
1, 134998, Control_c, 0, 64, 61
1, 135013, Control_c, 0, 64, 66
1, 135028, Control_c, 0, 64, 75
1, 135040, Note_on_c, 0, 67, 76
1, 135043, Control_c, 0, 64, 92
1, 135047, Note_off_c, 0, 60, 57
1, 135057, Control_c, 0, 64, 127
1, 135100, Note_on_c, 0, 60, 57
1, 135104, Note_off_c, 0, 67, 64
1, 135152, Note_on_c, 0, 66, 74
1, 135161, Note_off_c, 0, 60, 64
1, 135172, Note_off_c, 0, 53, 59
1, 135204, Note_on_c, 0, 57, 66
1, 135223, Note_off_c, 0, 66, 60
1, 135235, Control_c, 0, 64, 108
1, 135250, Control_c, 0, 64, 80
1, 135265, Control_c, 0, 64, 68
1, 135274, Note_on_c, 0, 52, 78
1, 135278, Note_on_c, 0, 65, 69
1, 135279, Note_off_c, 0, 57, 62
1, 135280, Control_c, 0, 64, 62
1, 135295, Control_c, 0, 64, 58
1, 135309, Control_c, 0, 64, 57
1, 135339, Control_c, 0, 64, 59
1, 135342, Note_on_c, 0, 60, 65
1, 135354, Control_c, 0, 64, 64
1, 135369, Control_c, 0, 64, 70
1, 135383, Control_c, 0, 64, 81
1, 135393, Note_on_c, 0, 64, 78
1, 135398, Control_c, 0, 64, 113
1, 135403, Note_off_c, 0, 60, 64
1, 135412, Note_off_c, 0, 65, 49
1, 135413, Control_c, 0, 64, 127
1, 135450, Note_on_c, 0, 57, 67
1, 135489, Note_on_c, 0, 63, 82
1, 135514, Note_off_c, 0, 64, 63
1, 135515, Note_off_c, 0, 52, 62
1, 135558, Note_on_c, 0, 60, 73
1, 135563, Note_off_c, 0, 63, 65
1, 135597, Note_on_c, 0, 48, 87
1, 135603, Note_off_c, 0, 60, 49
1, 135621, Note_on_c, 0, 62, 80
1, 135633, Note_off_c, 0, 43, 61
1, 135640, Note_off_c, 0, 48, 66
1, 135640, Note_off_c, 0, 57, 35
1, 135687, Note_on_c, 0, 57, 76
1, 135740, Note_on_c, 0, 61, 78
1, 135743, Note_off_c, 0, 57, 64
1, 135763, Note_off_c, 0, 62, 56
1, 135807, Note_on_c, 0, 57, 68
1, 135814, Note_off_c, 0, 61, 61
1, 135856, Note_on_c, 0, 60, 84
1, 135874, Note_off_c, 0, 57, 63
1, 135915, Note_on_c, 0, 52, 69
1, 135915, Note_off_c, 0, 60, 63
1, 135939, Control_c, 0, 64, 89
1, 135954, Control_c, 0, 64, 72
1, 135968, Note_on_c, 0, 41, 84
1, 135969, Control_c, 0, 64, 63
1, 135984, Control_c, 0, 64, 57
1, 135992, Note_on_c, 0, 59, 82
1, 135999, Control_c, 0, 64, 56
1, 136002, Note_off_c, 0, 52, 62
1, 136013, Control_c, 0, 64, 58
1, 136028, Control_c, 0, 64, 63
1, 136043, Control_c, 0, 64, 70
1, 136050, Note_on_c, 0, 53, 80
1, 136058, Control_c, 0, 64, 87
1, 136073, Control_c, 0, 64, 127
1, 136077, Note_off_c, 0, 59, 55
1, 136112, Note_on_c, 0, 57, 85
1, 136134, Note_off_c, 0, 53, 63
1, 136164, Note_on_c, 0, 48, 75
1, 136194, Poly_aftertouch_c, 0, 59, 0
1, 136216, Note_on_c, 0, 56, 83
1, 136245, Note_off_c, 0, 57, 64
1, 136265, Note_on_c, 0, 53, 87
1, 136288, Note_off_c, 0, 41, 63
1, 136298, Note_off_c, 0, 56, 65
1, 136326, Control_c, 0, 64, 97
1, 136332, Note_on_c, 0, 40, 94
1, 136332, Note_off_c, 0, 48, 23
1, 136337, Note_on_c, 0, 57, 90
1, 136341, Control_c, 0, 64, 64
1, 136355, Control_c, 0, 64, 0
1, 136363, Note_off_c, 0, 53, 60
1, 136385, Control_c, 0, 64, 44
1, 136400, Control_c, 0, 64, 73
1, 136409, Note_on_c, 0, 48, 69
1, 136415, Control_c, 0, 64, 127
1, 136433, Note_off_c, 0, 48, 66
1, 136454, Note_on_c, 0, 59, 89
1, 136495, Note_off_c, 0, 57, 60
1, 136495, Note_off_c, 0, 40, 61
1, 136532, Note_on_c, 0, 52, 79
1, 136535, Note_off_c, 0, 59, 65
1, 136582, Poly_aftertouch_c, 0, 40, 127
1, 136590, Note_on_c, 0, 60, 96
1, 136590, Note_off_c, 0, 52, 62
1, 136638, Poly_aftertouch_c, 0, 40, 0
1, 136655, Note_on_c, 0, 48, 82
1, 136669, Note_off_c, 0, 60, 58
1, 136705, Note_off_c, 0, 48, 62
1, 136733, Control_c, 0, 64, 73
1, 136737, Note_on_c, 0, 38, 97
1, 136748, Control_c, 0, 64, 0
1, 136749, Note_on_c, 0, 60, 91
1, 136807, Control_c, 0, 64, 55
1, 136812, Note_on_c, 0, 53, 81
1, 136822, Control_c, 0, 64, 88
1, 136827, Note_off_c, 0, 38, 63
1, 136827, Note_off_c, 0, 60, 62
1, 136836, Control_c, 0, 64, 127
1, 136867, Note_off_c, 0, 53, 63
1, 136902, Note_on_c, 0, 59, 77
1, 136937, Note_off_c, 0, 59, 0
1, 136974, Poly_aftertouch_c, 0, 59, 127
1, 136990, Poly_aftertouch_c, 0, 59, 0
1, 137022, Note_on_c, 0, 72, 97
1, 137086, Note_on_c, 0, 65, 80
1, 137086, Note_off_c, 0, 72, 66
1, 137092, Note_on_c, 0, 67, 37
1, 137123, Note_off_c, 0, 67, 53
1, 137152, Note_on_c, 0, 71, 88
1, 137154, Note_off_c, 0, 65, 0
1, 137163, Note_on_c, 0, 57, 93
1, 137176, Note_on_c, 0, 64, 64
1, 137177, Note_off_c, 0, 64, 127
1, 137186, Note_off_c, 0, 71, 65
1, 137190, Poly_aftertouch_c, 0, 65, 127
1, 137197, Note_on_c, 0, 58, 38
1, 137213, Poly_aftertouch_c, 0, 65, 0
1, 137213, Poly_aftertouch_c, 0, 64, 0
1, 137237, Note_off_c, 0, 58, 34
1, 137245, Note_on_c, 0, 72, 85
1, 137282, Note_off_c, 0, 72, 65
1, 137293, Note_on_c, 0, 49, 90
1, 137303, Note_on_c, 0, 84, 96
1, 137322, Note_on_c, 0, 51, 45
1, 137344, Note_off_c, 0, 57, 61
1, 137350, Note_off_c, 0, 49, 66
1, 137351, Note_on_c, 0, 77, 95
1, 137355, Note_off_c, 0, 51, 52
1, 137357, Note_off_c, 0, 84, 63
1, 137372, Note_on_c, 0, 79, 29
1, 137373, Note_off_c, 0, 79, 127
1, 137393, Note_on_c, 0, 50, 100
1, 137406, Note_on_c, 0, 83, 88
1, 137417, Note_off_c, 0, 77, 66
1, 137447, Note_off_c, 0, 83, 67
1, 137455, Note_off_c, 0, 50, 63
1, 137481, Note_on_c, 0, 83, 80
1, 137482, Control_c, 0, 64, 79
1, 137497, Control_c, 0, 64, 58
1, 137511, Control_c, 0, 64, 0
1, 137527, Note_off_c, 0, 83, 63
1, 137559, Note_on_c, 0, 66, 98
1, 137560, Note_on_c, 0, 56, 70
1, 137561, Note_off_c, 0, 56, 127
1, 137564, Note_on_c, 0, 57, 86
1, 137566, Note_on_c, 0, 96, 106
1, 137567, Note_on_c, 0, 51, 101
1, 137572, Control_c, 0, 64, 54
1, 137576, Note_on_c, 0, 63, 63
1, 137577, Note_off_c, 0, 63, 127
1, 137586, Control_c, 0, 64, 91
1, 137594, Note_off_c, 0, 66, 67
1, 137601, Control_c, 0, 64, 127
1, 137609, Note_off_c, 0, 57, 64
1, 137616, Note_on_c, 0, 65, 18
1, 137624, Note_off_c, 0, 51, 65
1, 137630, Note_off_c, 0, 96, 64
1, 137633, Note_on_c, 0, 90, 81
1, 137654, Note_off_c, 0, 65, 53
1, 137654, Note_off_c, 0, 90, 68
1, 137668, Note_on_c, 0, 89, 73
1, 137682, Note_on_c, 0, 95, 75
1, 137700, Note_on_c, 0, 94, 42
1, 137723, Note_off_c, 0, 89, 61
1, 137730, Note_off_c, 0, 94, 33
1, 137737, Note_on_c, 0, 83, 80
1, 137738, Note_off_c, 0, 95, 66
1, 137773, Note_off_c, 0, 83, 58
1, 137794, Control_c, 0, 64, 108
1, 137808, Control_c, 0, 64, 80
1, 137820, Note_on_c, 0, 84, 82
1, 137823, Control_c, 0, 64, 64
1, 137838, Control_c, 0, 64, 26
1, 137853, Control_c, 0, 64, 0
1, 137858, Note_on_c, 0, 86, 11
1, 137859, Note_off_c, 0, 86, 127
1, 137863, Note_on_c, 0, 78, 86
1, 137871, Note_off_c, 0, 84, 63
1, 137918, Note_on_c, 0, 39, 103
1, 137926, Note_on_c, 0, 83, 86
1, 137937, Note_off_c, 0, 78, 65
1, 137943, Control_c, 0, 64, 61
1, 137958, Control_c, 0, 64, 127
1, 137990, Note_off_c, 0, 83, 67
1, 138005, Note_on_c, 0, 72, 67
1, 138035, Note_off_c, 0, 72, 66
1, 138074, Note_on_c, 0, 74, 71
1, 138080, Note_on_c, 0, 72, 75
1, 138128, Note_off_c, 0, 74, 62
1, 138129, Note_on_c, 0, 67, 77
1, 138138, Note_off_c, 0, 72, 60
1, 138164, Note_on_c, 0, 71, 71
1, 138179, Note_off_c, 0, 67, 63
1, 138210, Note_on_c, 0, 60, 78
1, 138231, Note_off_c, 0, 71, 62
1, 138261, Note_off_c, 0, 60, 64
1, 138266, Note_off_c, 0, 39, 59
1, 138279, Note_on_c, 0, 40, 101
1, 138282, Note_on_c, 0, 74, 91
1, 138291, Control_c, 0, 64, 79
1, 138306, Control_c, 0, 64, 33
1, 138321, Control_c, 0, 64, 0
1, 138334, Note_on_c, 0, 67, 80
1, 138346, Note_off_c, 0, 40, 63
1, 138346, Note_off_c, 0, 74, 64
1, 138365, Control_c, 0, 64, 61
1, 138380, Control_c, 0, 64, 91
1, 138395, Note_off_c, 0, 67, 65
1, 138395, Control_c, 0, 64, 127
1, 138398, Note_on_c, 0, 73, 92
1, 138417, Note_off_c, 0, 73, 70
1, 138465, Note_on_c, 0, 73, 85
1, 138489, Note_off_c, 0, 73, 70
1, 138516, Note_on_c, 0, 86, 94
1, 138569, Note_on_c, 0, 81, 63
1, 138578, Note_off_c, 0, 86, 65
1, 138589, Note_on_c, 0, 80, 66
1, 138607, Note_off_c, 0, 80, 63
1, 138611, Note_on_c, 0, 67, 105
1, 138614, Note_on_c, 0, 58, 104
1, 138632, Note_off_c, 0, 81, 66
1, 138633, Note_on_c, 0, 85, 70
1, 138641, Note_on_c, 0, 61, 45
1, 138646, Note_off_c, 0, 67, 68
1, 138648, Note_off_c, 0, 85, 69
1, 138665, Note_off_c, 0, 61, 59
1, 138666, Note_off_c, 0, 58, 67
1, 138711, Note_on_c, 0, 85, 61
1, 138719, Note_on_c, 0, 51, 101
1, 138741, Note_off_c, 0, 85, 66
1, 138742, Poly_aftertouch_c, 0, 56, 0
1, 138754, Note_on_c, 0, 98, 94
1, 138773, Note_off_c, 0, 51, 68
1, 138804, Note_on_c, 0, 92, 71
1, 138822, Note_off_c, 0, 98, 65
1, 138834, Note_on_c, 0, 53, 106
1, 138844, Note_on_c, 0, 97, 85
1, 138853, Note_off_c, 0, 92, 66
1, 138877, Note_off_c, 0, 53, 64
1, 138906, Control_c, 0, 64, 100
1, 138908, Note_on_c, 0, 85, 86
1, 138917, Note_on_c, 0, 53, 89
1, 138921, Control_c, 0, 64, 75
1, 138936, Control_c, 0, 64, 56
1, 138945, Note_on_c, 0, 87, 22
1, 138951, Control_c, 0, 64, 0
1, 138959, Note_on_c, 0, 58, 79
1, 138971, Note_on_c, 0, 63, 59
1, 138973, Note_off_c, 0, 85, 65
1, 138985, Note_on_c, 0, 55, 3
1, 138989, Note_off_c, 0, 87, 50
1, 138993, Note_off_c, 0, 63, 60
1, 139001, Note_on_c, 0, 62, 70
1, 139033, Note_on_c, 0, 68, 105
1, 139040, Note_on_c, 0, 99, 107
1, 139040, Control_c, 0, 64, 58
1, 139041, Note_off_c, 0, 55, 0
1, 139041, Note_on_c, 0, 55, 33
1, 139054, Control_c, 0, 64, 127
1, 139063, Note_off_c, 0, 97, 59
1, 139078, Note_off_c, 0, 68, 69
1, 139087, Note_off_c, 0, 62, 64
1, 139101, Note_off_c, 0, 53, 65
1, 139103, Note_off_c, 0, 58, 63
1, 139118, Note_off_c, 0, 55, 58
1, 139122, Note_off_c, 0, 99, 63
1, 139136, Note_on_c, 0, 94, 49
1, 139150, Note_on_c, 0, 95, 53
1, 139162, Note_on_c, 0, 98, 80
1, 139170, Note_off_c, 0, 94, 54
1, 139186, Note_off_c, 0, 95, 65
1, 139204, Note_off_c, 0, 98, 68
1, 139220, Note_on_c, 0, 86, 71
1, 139221, Note_on_c, 0, 88, 41
1, 139222, Note_off_c, 0, 88, 127
1, 139245, Note_off_c, 0, 86, 68
1, 139284, Note_on_c, 0, 87, 98
1, 139338, Note_on_c, 0, 82, 75
1, 139354, Note_off_c, 0, 87, 61
1, 139396, Note_on_c, 0, 53, 108
1, 139397, Note_on_c, 0, 41, 103
1, 139400, Note_on_c, 0, 86, 84
1, 139412, Note_off_c, 0, 82, 66
1, 139430, Note_off_c, 0, 53, 68
1, 139436, Note_off_c, 0, 41, 66
1, 139457, Note_off_c, 0, 86, 66
1, 139484, Note_on_c, 0, 74, 83
1, 139489, Poly_aftertouch_c, 0, 85, 0
1, 139518, Note_off_c, 0, 74, 65
1, 139559, Note_on_c, 0, 75, 94
1, 139601, Note_on_c, 0, 70, 76
1, 139666, Note_off_c, 0, 75, 0
1, 139667, Note_on_c, 0, 74, 83
1, 139678, Note_off_c, 0, 70, 65
1, 139696, Note_on_c, 0, 75, 18
1, 139726, Note_on_c, 0, 73, 53
1, 139734, Note_on_c, 0, 62, 84
1, 139739, Note_off_c, 0, 74, 64
1, 139752, Note_off_c, 0, 75, 44
1, 139767, Note_off_c, 0, 73, 65
1, 139796, Note_off_c, 0, 62, 63
1, 139803, Control_c, 0, 64, 111
1, 139818, Control_c, 0, 64, 69
1, 139828, Note_on_c, 0, 41, 104
1, 139833, Note_on_c, 0, 29, 97
1, 139833, Control_c, 0, 64, 0
1, 139836, Note_on_c, 0, 76, 90
1, 139868, Note_off_c, 0, 41, 61
1, 139871, Note_off_c, 0, 29, 61
1, 139892, Control_c, 0, 64, 15
1, 139907, Control_c, 0, 64, 77
1, 139916, Note_off_c, 0, 76, 56
1, 139922, Control_c, 0, 64, 127
1, 139924, Note_on_c, 0, 69, 74
1, 139943, Note_on_c, 0, 75, 83
1, 140013, Note_on_c, 0, 63, 83
1, 140017, Note_off_c, 0, 69, 53
1, 140029, Note_off_c, 0, 75, 61
1, 140056, Note_off_c, 0, 63, 63
1, 140080, Note_on_c, 0, 76, 86
1, 140134, Note_on_c, 0, 69, 70
1, 140158, Note_off_c, 0, 76, 57
1, 140184, Note_on_c, 0, 75, 78
1, 140190, Note_off_c, 0, 69, 65
1, 140201, Note_on_c, 0, 65, 111
1, 140203, Note_on_c, 0, 53, 105
1, 140216, Note_off_c, 0, 75, 65
1, 140236, Note_off_c, 0, 65, 68
1, 140241, Note_off_c, 0, 53, 65
1, 140288, Note_on_c, 0, 75, 87
1, 140312, Note_off_c, 0, 75, 62
1, 140344, Note_on_c, 0, 88, 80
1, 140392, Note_off_c, 0, 88, 66
1, 140394, Note_on_c, 0, 81, 73
1, 140443, Note_on_c, 0, 87, 85
1, 140445, Note_off_c, 0, 81, 67
1, 140476, Note_off_c, 0, 87, 66
1, 140485, Note_on_c, 0, 65, 92
1, 140489, Note_on_c, 0, 53, 89
1, 140505, Note_off_c, 0, 65, 67
1, 140506, Note_off_c, 0, 53, 76
1, 140552, Note_on_c, 0, 88, 52
1, 140557, Note_on_c, 0, 65, 103
1, 140561, Note_on_c, 0, 53, 97
1, 140574, Note_off_c, 0, 88, 61
1, 140581, Note_on_c, 0, 100, 89
1, 140597, Note_on_c, 0, 101, 70
1, 140598, Note_off_c, 0, 101, 127
1, 140637, Note_off_c, 0, 100, 64
1, 140638, Poly_aftertouch_c, 0, 89, 0
1, 140643, Note_on_c, 0, 93, 77
1, 140669, Note_on_c, 0, 92, 35
1, 140679, Note_on_c, 0, 99, 84
1, 140701, Note_off_c, 0, 92, 32
1, 140730, Note_off_c, 0, 93, 62
1, 140743, Note_on_c, 0, 87, 98
1, 140752, Note_off_c, 0, 99, 65
1, 140760, Note_off_c, 0, 53, 54
1, 140761, Note_off_c, 0, 87, 72
1, 140774, Note_off_c, 0, 65, 50
1, 140832, Note_on_c, 0, 88, 90
1, 140861, Note_on_c, 0, 82, 67
1, 140894, Note_off_c, 0, 88, 66
1, 140906, Note_off_c, 0, 82, 65
1, 140913, Note_on_c, 0, 81, 67
1, 140918, Note_on_c, 0, 67, 111
1, 140921, Note_on_c, 0, 55, 109
1, 140938, Note_on_c, 0, 87, 86
1, 140951, Note_off_c, 0, 67, 69
1, 140955, Note_off_c, 0, 55, 68
1, 140960, Note_off_c, 0, 81, 62
1, 141001, Note_on_c, 0, 75, 94
1, 141024, Note_off_c, 0, 87, 64
1, 141043, Note_off_c, 0, 75, 66
1, 141070, Note_on_c, 0, 88, 91
1, 141123, Note_on_c, 0, 81, 79
1, 141146, Note_off_c, 0, 88, 0
1, 141162, Note_on_c, 0, 87, 90
1, 141166, Note_off_c, 0, 81, 68
1, 141183, Poly_aftertouch_c, 0, 88, 127
1, 141189, Poly_aftertouch_c, 0, 88, 0
1, 141201, Note_off_c, 0, 87, 63
1, 141239, Note_on_c, 0, 87, 89
1, 141279, Note_off_c, 0, 87, 66
1, 141301, Note_on_c, 0, 65, 111
1, 141303, Note_on_c, 0, 53, 101
1, 141306, Note_on_c, 0, 100, 93
1, 141317, Control_c, 0, 64, 107
1, 141329, Note_on_c, 0, 98, 49
1, 141330, Note_off_c, 0, 98, 127
1, 141332, Control_c, 0, 64, 70
1, 141347, Control_c, 0, 64, 0
1, 141361, Note_on_c, 0, 93, 83
1, 141368, Note_off_c, 0, 100, 65
1, 141406, Control_c, 0, 64, 62
1, 141412, Note_on_c, 0, 99, 93
1, 141420, Control_c, 0, 64, 87
1, 141432, Note_off_c, 0, 93, 64
1, 141435, Control_c, 0, 64, 127
1, 141438, Note_off_c, 0, 65, 60
1, 141454, Note_off_c, 0, 53, 61
1, 141469, Note_off_c, 0, 99, 65
1, 141483, Note_on_c, 0, 87, 82
1, 141496, Note_off_c, 0, 87, 72
1, 141555, Note_on_c, 0, 88, 93
1, 141592, Poly_aftertouch_c, 0, 85, 0
1, 141611, Note_off_c, 0, 88, 67
1, 141612, Note_on_c, 0, 81, 70
1, 141659, Note_on_c, 0, 87, 88
1, 141669, Note_on_c, 0, 60, 107
1, 141672, Note_on_c, 0, 48, 112
1, 141674, Note_off_c, 0, 81, 65
1, 141696, Note_off_c, 0, 60, 71
1, 141699, Note_off_c, 0, 48, 66
1, 141714, Note_on_c, 0, 75, 96
1, 141743, Note_off_c, 0, 87, 61
1, 141763, Note_off_c, 0, 75, 65
1, 141797, Note_on_c, 0, 88, 92
1, 141845, Note_on_c, 0, 81, 76
1, 141846, Note_off_c, 0, 88, 66
1, 141898, Note_on_c, 0, 87, 90
1, 141901, Note_off_c, 0, 81, 68
1, 141940, Note_off_c, 0, 87, 62
1, 141972, Note_on_c, 0, 87, 78
1, 142022, Note_off_c, 0, 87, 64
1, 142026, Note_on_c, 0, 65, 97
1, 142029, Note_on_c, 0, 53, 91
1, 142039, Note_on_c, 0, 100, 92
1, 142050, Control_c, 0, 64, 94
1, 142051, Note_on_c, 0, 55, 63
1, 142052, Note_off_c, 0, 55, 127
1, 142065, Control_c, 0, 64, 72
1, 142080, Control_c, 0, 64, 56
1, 142095, Control_c, 0, 64, 0
1, 142095, Note_on_c, 0, 93, 61
1, 142119, Note_off_c, 0, 100, 64
1, 142152, Note_on_c, 0, 99, 73
1, 142170, Note_off_c, 0, 93, 60
1, 142185, Note_on_c, 0, 87, 62
1, 142213, Control_c, 0, 64, 53
1, 142228, Control_c, 0, 64, 66
1, 142243, Control_c, 0, 64, 79
1, 142244, Note_off_c, 0, 99, 49
1, 142257, Control_c, 0, 64, 127
1, 142259, Note_on_c, 0, 100, 76
1, 142265, Note_off_c, 0, 87, 64
1, 142271, Note_off_c, 0, 65, 53
1, 142313, Note_on_c, 0, 93, 61
1, 142348, Note_off_c, 0, 53, 60
1, 142356, Note_on_c, 0, 99, 74
1, 142390, Note_off_c, 0, 100, 41
1, 142408, Note_off_c, 0, 93, 58
1, 142422, Note_on_c, 0, 87, 71
1, 142459, Note_off_c, 0, 99, 55
1, 142486, Note_off_c, 0, 87, 61
1, 142503, Note_on_c, 0, 100, 66
1, 142551, Note_on_c, 0, 93, 57
1, 142604, Note_on_c, 0, 99, 61
1, 142626, Note_off_c, 0, 93, 59
1, 142636, Note_off_c, 0, 100, 53
1, 142664, Note_on_c, 0, 87, 54
1, 142697, Note_off_c, 0, 99, 56
1, 142713, Note_off_c, 0, 87, 53
1, 142725, Control_c, 0, 64, 104
1, 142740, Note_on_c, 0, 41, 48
1, 142740, Control_c, 0, 64, 85
1, 142754, Control_c, 0, 64, 72
1, 142762, Note_on_c, 0, 100, 44
1, 142769, Control_c, 0, 64, 63
1, 142784, Control_c, 0, 64, 50
1, 142799, Control_c, 0, 64, 46
1, 142813, Control_c, 0, 64, 47
1, 142828, Control_c, 0, 64, 55
1, 142830, Note_on_c, 0, 47, 34
1, 142832, Note_off_c, 0, 41, 55
1, 142843, Control_c, 0, 64, 63
1, 142858, Control_c, 0, 64, 68
1, 142868, Note_off_c, 0, 47, 50
1, 142873, Control_c, 0, 64, 78
1, 142879, Note_off_c, 0, 100, 48
1, 142882, Note_on_c, 0, 45, 40
1, 142888, Control_c, 0, 64, 97
1, 142894, Note_on_c, 0, 95, 10
1, 142903, Control_c, 0, 64, 127
1, 142910, Note_on_c, 0, 51, 50
1, 142911, Note_on_c, 0, 99, 56
1, 142919, Note_off_c, 0, 45, 49
1, 142941, Note_off_c, 0, 95, 53
1, 142949, Note_off_c, 0, 51, 62
1, 142969, Note_on_c, 0, 45, 50
1, 142974, Note_on_c, 0, 93, 45
1, 142980, Note_off_c, 0, 99, 59
1, 143013, Note_off_c, 0, 45, 64
1, 143027, Note_on_c, 0, 100, 47
1, 143028, Note_off_c, 0, 93, 53
1, 143040, Note_on_c, 0, 51, 62
1, 143063, Note_off_c, 0, 51, 61
1, 143088, Note_on_c, 0, 95, 55
1, 143123, Note_on_c, 0, 47, 62
1, 143144, Note_off_c, 0, 100, 37
1, 143161, Note_on_c, 0, 99, 60
1, 143163, Note_off_c, 0, 95, 59
1, 143171, Note_off_c, 0, 47, 55
1, 143201, Note_on_c, 0, 53, 49
1, 143225, Note_on_c, 0, 93, 49
1, 143225, Note_off_c, 0, 99, 59
1, 143261, Note_on_c, 0, 47, 48
1, 143273, Note_off_c, 0, 53, 0
1, 143281, Note_off_c, 0, 93, 56
1, 143286, Note_on_c, 0, 100, 48
1, 143289, Note_on_c, 0, 53, 40
1, 143299, Note_off_c, 0, 47, 58
1, 143345, Note_on_c, 0, 95, 56
1, 143351, Note_off_c, 0, 53, 63
1, 143361, Note_on_c, 0, 51, 63
1, 143396, Note_off_c, 0, 51, 64
1, 143396, Note_off_c, 0, 100, 37
1, 143414, Note_off_c, 0, 95, 58
1, 143416, Note_on_c, 0, 57, 55
1, 143416, Note_on_c, 0, 99, 54
1, 143455, Note_off_c, 0, 57, 62
1, 143458, Note_on_c, 0, 93, 55
1, 143458, Note_off_c, 0, 99, 61
1, 143475, Note_on_c, 0, 51, 70
1, 143509, Note_on_c, 0, 100, 59
1, 143509, Note_off_c, 0, 51, 62
1, 143514, Note_off_c, 0, 93, 56
1, 143538, Note_on_c, 0, 57, 58
1, 143568, Note_off_c, 0, 57, 64
1, 143580, Note_on_c, 0, 95, 68
1, 143597, Note_on_c, 0, 53, 73
1, 143605, Note_off_c, 0, 100, 60
1, 143647, Note_off_c, 0, 53, 60
1, 143656, Note_on_c, 0, 99, 70
1, 143657, Note_on_c, 0, 59, 67
1, 143663, Note_off_c, 0, 95, 62
1, 143692, Note_off_c, 0, 59, 59
1, 143698, Note_on_c, 0, 93, 65
1, 143703, Note_off_c, 0, 99, 58
1, 143722, Note_on_c, 0, 53, 69
1, 143747, Note_off_c, 0, 53, 66
1, 143753, Note_on_c, 0, 59, 62
1, 143755, Note_on_c, 0, 100, 73
1, 143780, Note_off_c, 0, 59, 66
1, 143787, Note_off_c, 0, 93, 41
1, 143808, Note_on_c, 0, 95, 75
1, 143833, Note_on_c, 0, 57, 83
1, 143848, Note_off_c, 0, 100, 49
1, 143875, Note_on_c, 0, 99, 86
1, 143888, Note_off_c, 0, 95, 64
1, 143890, Note_off_c, 0, 57, 63
1, 143892, Note_on_c, 0, 63, 71
1, 143920, Note_off_c, 0, 63, 68
1, 143926, Note_on_c, 0, 93, 69
1, 143937, Note_off_c, 0, 99, 64
1, 143943, Note_on_c, 0, 57, 64
1, 143988, Note_on_c, 0, 100, 85
1, 143991, Note_off_c, 0, 57, 62
1, 143997, Note_on_c, 0, 63, 80
1, 144003, Note_off_c, 0, 93, 65
1, 144048, Note_on_c, 0, 95, 77
1, 144066, Note_on_c, 0, 59, 81
1, 144071, Note_off_c, 0, 63, 63
1, 144104, Note_on_c, 0, 99, 90
1, 144116, Note_off_c, 0, 95, 64
1, 144117, Note_off_c, 0, 100, 56
1, 144124, Note_off_c, 0, 59, 63
1, 144128, Note_on_c, 0, 65, 77
1, 144149, Note_on_c, 0, 93, 72
1, 144168, Note_off_c, 0, 99, 65
1, 144176, Note_on_c, 0, 59, 79
1, 144184, Note_off_c, 0, 65, 62
1, 144207, Note_on_c, 0, 100, 87
1, 144213, Note_off_c, 0, 93, 65
1, 144221, Note_off_c, 0, 59, 65
1, 144256, Note_on_c, 0, 65, 72
1, 144267, Note_on_c, 0, 95, 84
1, 144289, Note_off_c, 0, 65, 59
1, 144299, Note_on_c, 0, 63, 78
1, 144336, Note_on_c, 0, 98, 83
1, 144345, Note_off_c, 0, 95, 63
1, 144346, Note_off_c, 0, 100, 57
1, 144351, Note_off_c, 0, 63, 61
1, 144366, Note_on_c, 0, 69, 75
1, 144369, Note_on_c, 0, 93, 77
1, 144369, Note_on_c, 0, 67, 69
1, 144387, Note_off_c, 0, 98, 66
1, 144392, Note_off_c, 0, 69, 66
1, 144396, Note_off_c, 0, 67, 66
1, 144416, Note_on_c, 0, 63, 81
1, 144433, Note_on_c, 0, 100, 91
1, 144444, Note_off_c, 0, 93, 66
1, 144463, Note_off_c, 0, 63, 63
1, 144472, Note_on_c, 0, 69, 87
1, 144484, Note_on_c, 0, 95, 80
1, 144533, Note_on_c, 0, 65, 94
1, 144541, Note_off_c, 0, 69, 35
1, 144549, Note_on_c, 0, 99, 93
1, 144572, Note_off_c, 0, 95, 65
1, 144587, Note_off_c, 0, 100, 48
1, 144593, Note_on_c, 0, 71, 90
1, 144596, Note_off_c, 0, 65, 62
1, 144600, Note_on_c, 0, 93, 83
1, 144619, Note_off_c, 0, 99, 65
1, 144652, Note_off_c, 0, 71, 60
1, 144659, Note_on_c, 0, 100, 88
1, 144660, Note_on_c, 0, 65, 87
1, 144671, Note_off_c, 0, 93, 65
1, 144701, Note_on_c, 0, 71, 70
1, 144702, Note_off_c, 0, 65, 63
1, 144721, Note_on_c, 0, 95, 89
1, 144729, Note_off_c, 0, 71, 69
1, 144742, Note_off_c, 0, 100, 66
1, 144780, Note_on_c, 0, 69, 97
1, 144786, Note_on_c, 0, 99, 97
1, 144811, Note_off_c, 0, 95, 65
1, 144839, Note_on_c, 0, 93, 86
1, 144843, Note_off_c, 0, 69, 61
1, 144844, Note_on_c, 0, 75, 77
1, 144863, Note_off_c, 0, 99, 65
1, 144868, Note_off_c, 0, 75, 68
1, 144891, Note_on_c, 0, 69, 80
1, 144897, Note_on_c, 0, 100, 93
1, 144912, Note_off_c, 0, 93, 65
1, 144929, Note_on_c, 0, 75, 89
1, 144942, Note_off_c, 0, 69, 63
1, 144948, Note_on_c, 0, 95, 93
1, 144977, Note_off_c, 0, 100, 65
1, 144998, Note_on_c, 0, 71, 85
1, 145010, Note_on_c, 0, 99, 95
1, 145014, Note_off_c, 0, 75, 64
1, 145034, Note_off_c, 0, 95, 65
1, 145065, Note_on_c, 0, 77, 82
1, 145066, Note_off_c, 0, 71, 65
1, 145067, Note_on_c, 0, 93, 87
1, 145088, Note_off_c, 0, 99, 62
1, 145110, Note_on_c, 0, 71, 83
1, 145123, Note_on_c, 0, 100, 94
1, 145124, Note_off_c, 0, 77, 58
1, 145138, Note_off_c, 0, 93, 60
1, 145165, Note_off_c, 0, 71, 61
1, 145171, Note_on_c, 0, 95, 94
1, 145183, Note_on_c, 0, 77, 87
1, 145213, Note_off_c, 0, 100, 65
1, 145230, Note_on_c, 0, 75, 88
1, 145231, Note_off_c, 0, 77, 62
1, 145238, Note_on_c, 0, 99, 95
1, 145267, Note_on_c, 0, 73, 41
1, 145269, Note_on_c, 0, 74, 53
1, 145270, Note_off_c, 0, 95, 59
1, 145290, Note_off_c, 0, 74, 59
1, 145293, Note_off_c, 0, 75, 63
1, 145296, Note_off_c, 0, 73, 54
1, 145302, Note_on_c, 0, 93, 85
1, 145304, Note_on_c, 0, 81, 80
1, 145307, Note_on_c, 0, 79, 79
1, 145329, Note_off_c, 0, 79, 71
1, 145333, Note_on_c, 0, 91, 47
1, 145334, Note_off_c, 0, 91, 127
1, 145336, Note_off_c, 0, 99, 65
1, 145356, Note_off_c, 0, 81, 50
1, 145362, Note_on_c, 0, 100, 100
1, 145366, Note_on_c, 0, 76, 89
1, 145369, Note_on_c, 0, 75, 75
1, 145386, Note_off_c, 0, 93, 65
1, 145415, Note_on_c, 0, 81, 87
1, 145423, Note_off_c, 0, 76, 64
1, 145425, Note_on_c, 0, 95, 96
1, 145432, Note_off_c, 0, 75, 59
1, 145481, Note_off_c, 0, 100, 64
1, 145482, Note_off_c, 0, 81, 62
1, 145499, Note_on_c, 0, 99, 102
1, 145505, Note_on_c, 0, 77, 91
1, 145523, Note_off_c, 0, 95, 66
1, 145533, Note_on_c, 0, 81, 13
1, 145572, Note_on_c, 0, 83, 97
1, 145581, Note_on_c, 0, 93, 100
1, 145584, Note_off_c, 0, 81, 47
1, 145600, Control_c, 0, 64, 84
1, 145608, Note_off_c, 0, 83, 67
1, 145615, Control_c, 0, 64, 58
1, 145615, Note_off_c, 0, 77, 64
1, 145630, Control_c, 0, 64, 0
1, 145673, Note_off_c, 0, 93, 65
1, 145673, Note_off_c, 0, 99, 65
1, 145697, Note_on_c, 0, 76, 115
1, 145702, Note_on_c, 0, 64, 95
1, 145704, Note_on_c, 0, 69, 84
1, 145704, Control_c, 0, 64, 33
1, 145708, Note_on_c, 0, 72, 81
1, 145712, Note_on_c, 0, 101, 103
1, 145718, Control_c, 0, 64, 84
1, 145729, Note_off_c, 0, 72, 70
1, 145732, Note_off_c, 0, 69, 60
1, 145733, Note_off_c, 0, 64, 60
1, 145733, Control_c, 0, 64, 127
1, 145735, Note_off_c, 0, 76, 67
1, 145759, Note_on_c, 0, 100, 10
1, 145760, Note_off_c, 0, 100, 127
1, 145779, Note_on_c, 0, 96, 85
1, 145805, Note_off_c, 0, 101, 62
1, 145840, Note_on_c, 0, 100, 80
1, 145869, Note_off_c, 0, 96, 66
1, 145902, Note_on_c, 0, 93, 82
1, 145908, Note_off_c, 0, 100, 66
1, 145943, Note_off_c, 0, 93, 66
1, 145976, Note_on_c, 0, 86, 84
1, 145978, Note_on_c, 0, 96, 79
1, 145985, Note_on_c, 0, 98, 86
1, 146015, Note_on_c, 0, 93, 30
1, 146016, Note_off_c, 0, 86, 63
1, 146037, Note_off_c, 0, 96, 66
1, 146039, Note_on_c, 0, 81, 73
1, 146042, Note_off_c, 0, 98, 69
1, 146093, Note_on_c, 0, 84, 86
1, 146098, Note_on_c, 0, 96, 84
1, 146101, Note_off_c, 0, 81, 64
1, 146124, Note_off_c, 0, 93, 61
1, 146142, Note_on_c, 0, 88, 73
1, 146154, Note_off_c, 0, 84, 65
1, 146155, Note_on_c, 0, 76, 84
1, 146157, Note_off_c, 0, 96, 65
1, 146197, Note_off_c, 0, 76, 47
1, 146207, Note_on_c, 0, 95, 81
1, 146218, Note_off_c, 0, 88, 56
1, 146223, Note_on_c, 0, 96, 73
1, 146224, Note_on_c, 0, 83, 83
1, 146247, Note_off_c, 0, 96, 53
1, 146258, Note_on_c, 0, 88, 74
1, 146265, Note_off_c, 0, 83, 65
1, 146283, Note_on_c, 0, 76, 76
1, 146287, Note_off_c, 0, 95, 65
1, 146332, Note_on_c, 0, 81, 83
1, 146332, Note_on_c, 0, 93, 83
1, 146346, Note_off_c, 0, 88, 65
1, 146349, Note_off_c, 0, 76, 56
1, 146382, Note_on_c, 0, 84, 76
1, 146388, Note_off_c, 0, 81, 65
1, 146396, Note_off_c, 0, 93, 66
1, 146397, Note_on_c, 0, 72, 82
1, 146445, Note_on_c, 0, 89, 92
1, 146451, Note_on_c, 0, 77, 84
1, 146455, Note_off_c, 0, 72, 54
1, 146462, Note_off_c, 0, 84, 36
1, 146506, Note_on_c, 0, 84, 69
1, 146516, Note_on_c, 0, 72, 77
1, 146520, Note_off_c, 0, 77, 50
1, 146563, Note_on_c, 0, 76, 76
1, 146571, Note_on_c, 0, 88, 83
1, 146583, Note_off_c, 0, 89, 57
1, 146591, Note_off_c, 0, 72, 63
1, 146599, Note_off_c, 0, 84, 64
1, 146623, Note_on_c, 0, 81, 69
1, 146629, Note_off_c, 0, 76, 64
1, 146632, Note_off_c, 0, 88, 65
1, 146632, Note_on_c, 0, 69, 75
1, 146657, Note_off_c, 0, 81, 56
1, 146658, Note_off_c, 0, 69, 67
1, 146680, Note_on_c, 0, 86, 89
1, 146694, Note_on_c, 0, 74, 82
1, 146734, Note_on_c, 0, 81, 65
1, 146743, Note_off_c, 0, 74, 62
1, 146753, Note_on_c, 0, 69, 81
1, 146787, Note_on_c, 0, 84, 89
1, 146802, Note_on_c, 0, 72, 86
1, 146805, Note_off_c, 0, 86, 45
1, 146809, Note_off_c, 0, 81, 65
1, 146818, Note_off_c, 0, 69, 63
1, 146855, Note_on_c, 0, 76, 74
1, 146857, Note_off_c, 0, 84, 63
1, 146864, Note_off_c, 0, 72, 65
1, 146865, Note_on_c, 0, 64, 86
1, 146910, Note_on_c, 0, 83, 91
1, 146921, Note_on_c, 0, 71, 87
1, 146923, Note_off_c, 0, 64, 58
1, 146927, Note_off_c, 0, 76, 59
1, 146956, Note_on_c, 0, 76, 66
1, 146969, Note_off_c, 0, 71, 67
1, 146978, Note_off_c, 0, 83, 63
1, 146994, Note_on_c, 0, 64, 81
1, 147022, Note_on_c, 0, 81, 80
1, 147034, Note_on_c, 0, 69, 87
1, 147043, Note_off_c, 0, 76, 64
1, 147079, Note_off_c, 0, 64, 57
1, 147085, Note_on_c, 0, 72, 71
1, 147090, Note_off_c, 0, 81, 67
1, 147094, Note_off_c, 0, 69, 65
1, 147105, Note_on_c, 0, 60, 82
1, 147111, Note_off_c, 0, 72, 69
1, 147145, Note_on_c, 0, 77, 95
1, 147150, Note_on_c, 0, 65, 85
1, 147157, Control_c, 0, 64, 74
1, 147164, Note_off_c, 0, 60, 63
1, 147171, Control_c, 0, 64, 58
1, 147186, Control_c, 0, 64, 61
1, 147201, Control_c, 0, 64, 65
1, 147206, Note_on_c, 0, 72, 80
1, 147216, Control_c, 0, 64, 75
1, 147222, Note_on_c, 0, 60, 82
1, 147231, Control_c, 0, 64, 127
1, 147242, Note_off_c, 0, 65, 63
1, 147263, Note_on_c, 0, 76, 85
1, 147275, Note_on_c, 0, 64, 78
1, 147285, Note_off_c, 0, 72, 62
1, 147291, Note_off_c, 0, 77, 62
1, 147304, Note_off_c, 0, 60, 60
1, 147315, Note_on_c, 0, 69, 76
1, 147324, Note_off_c, 0, 76, 64
1, 147335, Note_on_c, 0, 57, 82
1, 147338, Note_off_c, 0, 64, 65
1, 147346, Note_off_c, 0, 69, 65
1, 147380, Note_on_c, 0, 74, 93
1, 147395, Note_on_c, 0, 62, 82
1, 147398, Note_off_c, 0, 57, 43
1, 147428, Note_on_c, 0, 69, 62
1, 147439, Note_off_c, 0, 62, 65
1, 147452, Note_on_c, 0, 57, 77
1, 147465, Note_off_c, 0, 74, 58
1, 147492, Note_on_c, 0, 72, 84
1, 147505, Note_on_c, 0, 60, 84
1, 147526, Note_off_c, 0, 69, 61
1, 147532, Note_off_c, 0, 57, 61
1, 147550, Note_on_c, 0, 64, 71
1, 147556, Note_off_c, 0, 72, 64
1, 147571, Note_off_c, 0, 60, 66
1, 147575, Note_on_c, 0, 52, 79
1, 147579, Note_off_c, 0, 64, 65
1, 147610, Note_on_c, 0, 71, 88
1, 147622, Note_on_c, 0, 59, 83
1, 147635, Note_off_c, 0, 52, 62
1, 147651, Note_on_c, 0, 64, 86
1, 147678, Note_off_c, 0, 59, 64
1, 147697, Note_off_c, 0, 71, 46
1, 147699, Note_on_c, 0, 57, 81
1, 147722, Note_on_c, 0, 52, 69
1, 147722, Note_on_c, 0, 69, 80
1, 147762, Note_off_c, 0, 57, 64
1, 147768, Note_on_c, 0, 60, 83
1, 147792, Note_off_c, 0, 52, 65
1, 147806, Note_off_c, 0, 64, 56
1, 147812, Note_off_c, 0, 69, 65
1, 147815, Note_off_c, 0, 60, 65
1, 147861, Control_c, 0, 64, 83
1, 147869, Note_on_c, 0, 52, 94
1, 147869, Note_on_c, 0, 69, 85
1, 147869, Note_on_c, 0, 71, 97
1, 147872, Note_on_c, 0, 40, 89
1, 147872, Note_on_c, 0, 59, 101
1, 147875, Control_c, 0, 64, 55
1, 147880, Note_on_c, 0, 64, 74
1, 147890, Control_c, 0, 64, 0
1, 147893, Note_on_c, 0, 41, 55
1, 147894, Note_off_c, 0, 41, 127
1, 147950, Control_c, 0, 64, 38
1, 147964, Control_c, 0, 64, 70
1, 147973, Note_off_c, 0, 52, 65
1, 147979, Note_off_c, 0, 59, 62
1, 147979, Control_c, 0, 64, 127
1, 147985, Note_off_c, 0, 64, 62
1, 147994, Note_off_c, 0, 40, 64
1, 147999, Note_off_c, 0, 71, 62
1, 148009, Note_off_c, 0, 69, 64
1, 148157, Control_c, 0, 64, 85
1, 148172, Control_c, 0, 64, 72
1, 148186, Control_c, 0, 64, 64
1, 148201, Control_c, 0, 64, 55
1, 148216, Control_c, 0, 64, 41
1, 148231, Control_c, 0, 64, 20
1, 148246, Control_c, 0, 64, 0
1, 148297, Note_on_c, 0, 76, 98
1, 148301, Note_on_c, 0, 28, 98
1, 148301, Note_on_c, 0, 40, 95
1, 148303, Note_on_c, 0, 64, 100
1, 148304, Note_on_c, 0, 62, 98
1, 148304, Note_on_c, 0, 68, 82
1, 148305, Note_on_c, 0, 71, 85
1, 148409, Control_c, 0, 64, 62
1, 148416, Note_off_c, 0, 28, 62
1, 148424, Control_c, 0, 64, 127
1, 148444, Note_off_c, 0, 62, 61
1, 148454, Note_off_c, 0, 64, 62
1, 148468, Note_off_c, 0, 76, 60
1, 148480, Note_off_c, 0, 68, 58
1, 148490, Note_off_c, 0, 40, 50
1, 148495, Note_off_c, 0, 71, 59
1, 148655, Control_c, 0, 64, 91
1, 148670, Control_c, 0, 64, 70
1, 148685, Control_c, 0, 64, 53
1, 148699, Control_c, 0, 64, 0
1, 148820, Note_on_c, 0, 33, 106
1, 148846, Note_on_c, 0, 93, 84
1, 148847, Note_on_c, 0, 91, 83
1, 148847, Control_c, 0, 64, 70
1, 148862, Control_c, 0, 64, 127
1, 148905, Note_off_c, 0, 33, 48
1, 148920, Note_on_c, 0, 88, 72
1, 148941, Note_on_c, 0, 40, 76
1, 148955, Note_off_c, 0, 91, 56
1, 148963, Note_off_c, 0, 93, 48
1, 148965, Note_on_c, 0, 92, 88
1, 148982, Note_off_c, 0, 88, 64
1, 149017, Note_off_c, 0, 40, 62
1, 149022, Note_on_c, 0, 48, 70
1, 149029, Note_off_c, 0, 92, 66
1, 149036, Note_on_c, 0, 84, 65
1, 149072, Note_on_c, 0, 91, 85
1, 149083, Note_off_c, 0, 84, 60
1, 149094, Note_on_c, 0, 40, 79
1, 149097, Note_off_c, 0, 48, 64
1, 149131, Note_off_c, 0, 40, 67
1, 149139, Note_on_c, 0, 88, 78
1, 149193, Note_on_c, 0, 33, 110
1, 149199, Note_on_c, 0, 90, 83
1, 149228, Note_off_c, 0, 88, 64
1, 149234, Note_off_c, 0, 91, 28
1, 149269, Note_on_c, 0, 84, 74
1, 149271, Note_off_c, 0, 90, 65
1, 149294, Note_off_c, 0, 84, 65
1, 149295, Note_off_c, 0, 33, 58
1, 149298, Note_on_c, 0, 40, 81
1, 149326, Note_on_c, 0, 89, 88
1, 149363, Note_off_c, 0, 40, 63
1, 149380, Note_on_c, 0, 48, 74
1, 149384, Note_on_c, 0, 84, 75
1, 149437, Note_on_c, 0, 88, 80
1, 149443, Note_off_c, 0, 48, 64
1, 149449, Note_off_c, 0, 84, 60
1, 149450, Note_on_c, 0, 40, 66
1, 149461, Note_on_c, 0, 81, 71
1, 149481, Note_off_c, 0, 40, 62
1, 149485, Note_off_c, 0, 89, 57
1, 149536, Note_on_c, 0, 87, 89
1, 149543, Note_on_c, 0, 33, 110
1, 149565, Note_off_c, 0, 88, 64
1, 149611, Note_on_c, 0, 84, 76
1, 149612, Note_off_c, 0, 87, 66
1, 149633, Note_on_c, 0, 40, 75
1, 149633, Note_off_c, 0, 84, 67
1, 149645, Note_off_c, 0, 81, 52
1, 149647, Note_off_c, 0, 33, 60
1, 149673, Note_on_c, 0, 86, 83
1, 149690, Note_off_c, 0, 40, 63
1, 149716, Note_on_c, 0, 48, 72
1, 149731, Note_on_c, 0, 81, 71
1, 149763, Note_off_c, 0, 81, 66
1, 149765, Note_on_c, 0, 85, 83
1, 149774, Note_on_c, 0, 40, 77
1, 149783, Note_off_c, 0, 48, 63
1, 149797, Note_off_c, 0, 86, 62
1, 149805, Note_off_c, 0, 40, 66
1, 149834, Note_on_c, 0, 81, 81
1, 149836, Note_off_c, 0, 85, 66
1, 149863, Control_c, 0, 64, 117
1, 149878, Control_c, 0, 64, 73
1, 149887, Note_on_c, 0, 84, 95
1, 149889, Note_on_c, 0, 35, 108
1, 149893, Control_c, 0, 64, 39
1, 149903, Note_off_c, 0, 81, 65
1, 149908, Control_c, 0, 64, 0
1, 149938, Note_on_c, 0, 36, 21
1, 149939, Note_off_c, 0, 36, 127
1, 149952, Note_on_c, 0, 76, 71
1, 149953, Control_c, 0, 64, 40
1, 149961, Note_off_c, 0, 84, 64
1, 149975, Control_c, 0, 64, 67
1, 149990, Control_c, 0, 64, 90
1, 149991, Note_on_c, 0, 40, 80
1, 150000, Note_off_c, 0, 76, 62
1, 150005, Control_c, 0, 64, 127
1, 150029, Note_off_c, 0, 35, 58
1, 150030, Note_on_c, 0, 83, 88
1, 150054, Note_off_c, 0, 40, 62
1, 150075, Note_on_c, 0, 48, 71
1, 150090, Note_on_c, 0, 76, 78
1, 150137, Note_on_c, 0, 40, 80
1, 150137, Note_off_c, 0, 48, 64
1, 150142, Note_on_c, 0, 82, 84
1, 150164, Note_off_c, 0, 76, 60
1, 150167, Note_off_c, 0, 83, 62
1, 150170, Note_off_c, 0, 40, 67
1, 150186, Note_on_c, 0, 72, 71
1, 150206, Note_off_c, 0, 82, 65
1, 150227, Control_c, 0, 64, 107
1, 150242, Control_c, 0, 64, 66
1, 150250, Note_on_c, 0, 33, 108
1, 150257, Control_c, 0, 64, 0
1, 150258, Note_on_c, 0, 81, 85
1, 150260, Note_off_c, 0, 72, 59
1, 150317, Note_on_c, 0, 76, 77
1, 150331, Control_c, 0, 64, 60
1, 150345, Note_on_c, 0, 40, 80
1, 150345, Control_c, 0, 64, 74
1, 150350, Note_off_c, 0, 33, 64
1, 150360, Control_c, 0, 64, 127
1, 150382, Note_on_c, 0, 80, 86
1, 150403, Note_off_c, 0, 76, 63
1, 150405, Note_off_c, 0, 81, 59
1, 150413, Note_off_c, 0, 40, 62
1, 150432, Note_on_c, 0, 72, 76
1, 150439, Note_on_c, 0, 48, 73
1, 150443, Note_off_c, 0, 80, 64
1, 150489, Note_off_c, 0, 48, 64
1, 150494, Note_on_c, 0, 79, 86
1, 150495, Note_on_c, 0, 40, 67
1, 150503, Note_off_c, 0, 72, 58
1, 150520, Note_off_c, 0, 40, 66
1, 150544, Note_on_c, 0, 76, 70
1, 150608, Note_on_c, 0, 28, 109
1, 150608, Note_on_c, 0, 78, 86
1, 150636, Note_off_c, 0, 76, 64
1, 150640, Note_off_c, 0, 79, 63
1, 150662, Note_off_c, 0, 28, 64
1, 150680, Note_on_c, 0, 72, 71
1, 150682, Note_off_c, 0, 78, 64
1, 150714, Note_off_c, 0, 72, 68
1, 150749, Note_on_c, 0, 77, 87
1, 150752, Note_on_c, 0, 40, 76
1, 150803, Note_off_c, 0, 40, 56
1, 150805, Note_on_c, 0, 72, 63
1, 150815, Note_on_c, 0, 48, 69
1, 150855, Note_on_c, 0, 76, 80
1, 150861, Note_off_c, 0, 72, 65
1, 150868, Note_on_c, 0, 40, 50
1, 150874, Note_off_c, 0, 48, 63
1, 150886, Note_on_c, 0, 69, 77
1, 150898, Note_off_c, 0, 77, 59
1, 150899, Note_off_c, 0, 40, 65
1, 150916, Control_c, 0, 64, 101
1, 150931, Control_c, 0, 64, 80
1, 150946, Control_c, 0, 64, 65
1, 150960, Control_c, 0, 64, 28
1, 150961, Note_on_c, 0, 75, 83
1, 150968, Note_on_c, 0, 33, 97
1, 150974, Note_on_c, 0, 35, 83
1, 150975, Control_c, 0, 64, 0
1, 150989, Note_off_c, 0, 69, 60
1, 150990, Note_off_c, 0, 76, 63
1, 151038, Note_on_c, 0, 72, 73
1, 151052, Note_off_c, 0, 75, 63
1, 151076, Note_off_c, 0, 72, 54
1, 151079, Control_c, 0, 64, 61
1, 151085, Note_on_c, 0, 40, 64
1, 151094, Control_c, 0, 64, 72
1, 151104, Note_on_c, 0, 74, 74
1, 151109, Control_c, 0, 64, 92
1, 151124, Control_c, 0, 64, 127
1, 151127, Note_off_c, 0, 33, 54
1, 151134, Note_off_c, 0, 35, 45
1, 151161, Note_off_c, 0, 40, 48
1, 151169, Note_on_c, 0, 69, 72
1, 151196, Note_on_c, 0, 48, 55
1, 151196, Note_on_c, 0, 73, 81
1, 151196, Note_off_c, 0, 69, 65
1, 151229, Note_off_c, 0, 74, 62
1, 151255, Note_on_c, 0, 40, 54
1, 151261, Note_off_c, 0, 73, 65
1, 151267, Note_off_c, 0, 48, 62
1, 151278, Note_on_c, 0, 69, 72
1, 151315, Note_on_c, 0, 72, 83
1, 151327, Note_off_c, 0, 69, 64
1, 151336, Note_off_c, 0, 40, 57
1, 151350, Note_on_c, 0, 48, 55
1, 151365, Note_off_c, 0, 72, 65
1, 151378, Note_on_c, 0, 64, 63
1, 151401, Note_off_c, 0, 48, 58
1, 151420, Note_on_c, 0, 40, 50
1, 151431, Note_on_c, 0, 71, 79
1, 151440, Note_off_c, 0, 64, 62
1, 151473, Note_off_c, 0, 40, 61
1, 151499, Note_on_c, 0, 64, 59
1, 151502, Note_on_c, 0, 48, 54
1, 151516, Note_off_c, 0, 71, 61
1, 151553, Note_off_c, 0, 48, 60
1, 151563, Note_off_c, 0, 64, 60
1, 151565, Note_on_c, 0, 70, 68
1, 151576, Note_on_c, 0, 40, 56
1, 151591, Control_c, 0, 64, 108
1, 151606, Control_c, 0, 64, 88
1, 151607, Note_on_c, 0, 60, 54
1, 151621, Control_c, 0, 64, 74
1, 151624, Note_off_c, 0, 70, 58
1, 151635, Control_c, 0, 64, 64
1, 151650, Control_c, 0, 64, 56
1, 151665, Note_off_c, 0, 40, 48
1, 151665, Control_c, 0, 64, 47
1, 151679, Note_on_c, 0, 33, 48
1, 151679, Note_on_c, 0, 69, 63
1, 151680, Control_c, 0, 64, 43
1, 151695, Control_c, 0, 64, 44
1, 151709, Control_c, 0, 64, 53
1, 151720, Note_off_c, 0, 60, 39
1, 151724, Control_c, 0, 64, 63
1, 151739, Control_c, 0, 64, 67
1, 151751, Note_on_c, 0, 64, 61
1, 151754, Control_c, 0, 64, 74
1, 151763, Note_on_c, 0, 40, 48
1, 151769, Control_c, 0, 64, 86
1, 151783, Control_c, 0, 64, 112
1, 151796, Note_off_c, 0, 69, 53
1, 151798, Control_c, 0, 64, 127
1, 151801, Note_on_c, 0, 68, 70
1, 151827, Note_off_c, 0, 64, 61
1, 151849, Note_off_c, 0, 33, 33
1, 151852, Note_off_c, 0, 40, 61
1, 151857, Note_on_c, 0, 48, 57
1, 151857, Note_on_c, 0, 60, 53
1, 151862, Note_off_c, 0, 68, 62
1, 151906, Note_on_c, 0, 67, 80
1, 151926, Note_off_c, 0, 48, 63
1, 151930, Note_off_c, 0, 60, 51
1, 151941, Note_on_c, 0, 40, 55
1, 151959, Note_on_c, 0, 64, 68
1, 152017, Note_on_c, 0, 66, 82
1, 152017, Note_off_c, 0, 40, 59
1, 152027, Note_on_c, 0, 33, 70
1, 152029, Note_off_c, 0, 67, 58
1, 152038, Note_off_c, 0, 64, 63
1, 152076, Note_on_c, 0, 60, 64
1, 152081, Note_off_c, 0, 66, 61
1, 152102, Note_on_c, 0, 40, 52
1, 152117, Note_off_c, 0, 60, 52
1, 152123, Note_on_c, 0, 65, 86
1, 152179, Note_on_c, 0, 48, 66
1, 152184, Note_off_c, 0, 40, 60
1, 152188, Note_on_c, 0, 60, 74
1, 152223, Note_off_c, 0, 48, 63
1, 152231, Note_on_c, 0, 64, 80
1, 152242, Note_off_c, 0, 60, 63
1, 152273, Note_off_c, 0, 65, 53
1, 152274, Note_on_c, 0, 40, 52
1, 152276, Note_off_c, 0, 33, 60
1, 152295, Note_on_c, 0, 57, 76
1, 152337, Note_on_c, 0, 63, 83
1, 152340, Control_c, 0, 64, 79
1, 152345, Note_on_c, 0, 33, 76
1, 152348, Note_off_c, 0, 40, 60
1, 152350, Note_off_c, 0, 57, 56
1, 152355, Control_c, 0, 64, 60
1, 152358, Note_off_c, 0, 64, 65
1, 152370, Control_c, 0, 64, 32
1, 152385, Control_c, 0, 64, 43
1, 152392, Note_on_c, 0, 60, 80
1, 152400, Control_c, 0, 64, 56
1, 152403, Note_off_c, 0, 63, 65
1, 152414, Control_c, 0, 64, 69
1, 152429, Note_off_c, 0, 60, 62
1, 152429, Control_c, 0, 64, 112
1, 152433, Note_on_c, 0, 40, 66
1, 152444, Control_c, 0, 64, 127
1, 152463, Note_on_c, 0, 62, 79
1, 152509, Note_on_c, 0, 48, 62
1, 152513, Note_off_c, 0, 40, 61
1, 152520, Note_on_c, 0, 57, 81
1, 152556, Note_on_c, 0, 61, 82
1, 152560, Note_off_c, 0, 57, 65
1, 152561, Note_off_c, 0, 48, 63
1, 152588, Note_off_c, 0, 62, 63
1, 152591, Note_off_c, 0, 33, 61
1, 152592, Note_on_c, 0, 40, 58
1, 152620, Note_on_c, 0, 57, 82
1, 152626, Note_off_c, 0, 61, 64
1, 152665, Control_c, 0, 64, 70
1, 152668, Note_on_c, 0, 60, 88
1, 152673, Note_off_c, 0, 40, 62
1, 152674, Note_on_c, 0, 33, 75
1, 152680, Note_off_c, 0, 57, 64
1, 152680, Control_c, 0, 64, 52
1, 152695, Control_c, 0, 64, 57
1, 152710, Control_c, 0, 64, 64
1, 152725, Control_c, 0, 64, 69
1, 152729, Note_off_c, 0, 60, 64
1, 152731, Note_on_c, 0, 52, 78
1, 152740, Control_c, 0, 64, 78
1, 152755, Control_c, 0, 64, 104
1, 152764, Note_on_c, 0, 40, 61
1, 152770, Control_c, 0, 64, 127
1, 152790, Note_on_c, 0, 59, 85
1, 152792, Note_off_c, 0, 52, 56
1, 152827, Note_off_c, 0, 33, 53
1, 152841, Note_on_c, 0, 48, 62
1, 152845, Note_off_c, 0, 40, 62
1, 152848, Note_on_c, 0, 52, 72
1, 152865, Note_off_c, 0, 59, 56
1, 152880, Note_off_c, 0, 48, 64
1, 152908, Note_on_c, 0, 58, 80
1, 152910, Note_on_c, 0, 40, 62
1, 152928, Note_off_c, 0, 52, 63
1, 152962, Note_on_c, 0, 48, 73
1, 152981, Note_off_c, 0, 40, 62
1, 152981, Note_off_c, 0, 58, 64
1, 153014, Control_c, 0, 64, 83
1, 153015, Note_on_c, 0, 45, 91
1, 153029, Control_c, 0, 64, 65
1, 153032, Note_on_c, 0, 57, 77
1, 153032, Note_off_c, 0, 48, 59
1, 153044, Control_c, 0, 64, 45
1, 153059, Note_off_c, 0, 45, 63
1, 153059, Control_c, 0, 64, 0
1, 153086, Note_on_c, 0, 52, 62
1, 153130, Note_on_c, 0, 44, 79
1, 153145, Note_off_c, 0, 57, 58
1, 153146, Note_on_c, 0, 56, 71
1, 153161, Note_off_c, 0, 52, 57
1, 153162, Note_off_c, 0, 44, 68
1, 153199, Note_on_c, 0, 48, 61
1, 153208, Note_off_c, 0, 56, 64
1, 153241, Note_on_c, 0, 43, 86
1, 153258, Note_on_c, 0, 55, 72
1, 153267, Note_off_c, 0, 48, 59
1, 153273, Note_off_c, 0, 43, 66
1, 153317, Note_on_c, 0, 52, 61
1, 153357, Note_on_c, 0, 42, 90
1, 153361, Note_on_c, 0, 54, 75
1, 153367, Note_off_c, 0, 55, 59
1, 153380, Note_off_c, 0, 52, 63
1, 153390, Note_off_c, 0, 42, 65
1, 153425, Note_on_c, 0, 48, 57
1, 153428, Note_off_c, 0, 54, 64
1, 153470, Note_on_c, 0, 41, 101
1, 153476, Note_on_c, 0, 53, 83
1, 153492, Note_off_c, 0, 48, 56
1, 153502, Note_off_c, 0, 41, 66
1, 153533, Note_on_c, 0, 48, 56
1, 153580, Note_on_c, 0, 52, 74
1, 153586, Note_on_c, 0, 40, 104
1, 153598, Note_off_c, 0, 48, 64
1, 153616, Note_off_c, 0, 40, 65
1, 153619, Note_off_c, 0, 53, 59
1, 153630, Note_on_c, 0, 45, 63
1, 153681, Note_on_c, 0, 51, 77
1, 153707, Poly_aftertouch_c, 0, 39, 0
1, 153709, Note_on_c, 0, 39, 99
1, 153721, Note_on_c, 0, 38, 82
1, 153726, Note_off_c, 0, 39, 70
1, 153738, Note_on_c, 0, 49, 60
1, 153747, Note_off_c, 0, 38, 65
1, 153751, Note_off_c, 0, 52, 57
1, 153753, Note_on_c, 0, 48, 74
1, 153768, Note_off_c, 0, 49, 55
1, 153781, Note_off_c, 0, 51, 64
1, 153784, Note_off_c, 0, 48, 68
1, 153800, Note_off_c, 0, 45, 43
1, 153819, Note_on_c, 0, 38, 93
1, 153827, Note_on_c, 0, 50, 78
1, 153863, Note_off_c, 0, 38, 61
1, 153880, Note_on_c, 0, 45, 79
1, 153923, Note_on_c, 0, 49, 72
1, 153937, Note_on_c, 0, 36, 99
1, 153947, Note_off_c, 0, 45, 64
1, 153956, Note_off_c, 0, 50, 60
1, 153958, Note_off_c, 0, 36, 72
1, 153959, Note_on_c, 0, 35, 55
1, 153988, Note_on_c, 0, 45, 64
1, 153995, Note_off_c, 0, 35, 35
1, 154008, Note_off_c, 0, 49, 63
1, 154051, Note_on_c, 0, 48, 84
1, 154054, Note_on_c, 0, 36, 111
1, 154061, Note_off_c, 0, 45, 60
1, 154087, Note_off_c, 0, 36, 65
1, 154108, Note_on_c, 0, 40, 69
1, 154118, Note_off_c, 0, 48, 63
1, 154152, Note_off_c, 0, 40, 62
1, 154169, Note_on_c, 0, 35, 112
1, 154178, Note_on_c, 0, 47, 88
1, 154200, Note_off_c, 0, 35, 66
1, 154246, Note_on_c, 0, 40, 69
1, 154285, Note_off_c, 0, 47, 56
1, 154287, Note_on_c, 0, 35, 103
1, 154292, Note_on_c, 0, 34, 81
1, 154294, Note_on_c, 0, 46, 88
1, 154312, Note_off_c, 0, 40, 58
1, 154314, Note_off_c, 0, 35, 65
1, 154321, Note_off_c, 0, 34, 65
1, 154349, Note_on_c, 0, 40, 60
1, 154375, Note_off_c, 0, 46, 63
1, 154391, Note_off_c, 0, 40, 66
1, 154420, Note_on_c, 0, 33, 111
1, 154427, Note_on_c, 0, 44, 104
1, 154430, Control_c, 0, 64, 21
1, 154445, Control_c, 0, 64, 66
1, 154467, Control_c, 0, 64, 127
1, 154468, Note_on_c, 0, 43, 83
1, 154470, Note_off_c, 0, 33, 66
1, 154487, Note_on_c, 0, 45, 42
1, 154508, Note_off_c, 0, 44, 65
1, 154513, Note_off_c, 0, 43, 62
1, 154521, Note_off_c, 0, 45, 34
1, 154674, Control_c, 0, 64, 108
1, 154689, Control_c, 0, 64, 80
1, 154704, Control_c, 0, 64, 64
1, 154719, Control_c, 0, 64, 49
1, 154733, Control_c, 0, 64, 26
1, 154748, Control_c, 0, 64, 0
1, 154816, Note_on_c, 0, 45, 81
1, 154816, Note_on_c, 0, 69, 95
1, 154818, Note_on_c, 0, 57, 101
1, 154820, Note_on_c, 0, 60, 92
1, 154821, Note_on_c, 0, 33, 83
1, 154822, Note_on_c, 0, 64, 89
1, 154823, Note_on_c, 0, 40, 84
1, 154862, Note_on_c, 0, 61, 20
1, 154863, Note_off_c, 0, 61, 127
1, 154896, Control_c, 0, 64, 38
1, 154911, Control_c, 0, 64, 73
1, 154925, Control_c, 0, 64, 127
1, 155003, Note_off_c, 0, 57, 59
1, 155005, Note_off_c, 0, 69, 60
1, 155008, Note_off_c, 0, 45, 58
1, 155015, Note_off_c, 0, 60, 61
1, 155020, Note_off_c, 0, 33, 59
1, 155024, Note_off_c, 0, 40, 62
1, 155027, Note_off_c, 0, 64, 60
1, 155093, Note_on_c, 0, 69, 90
1, 155094, Note_on_c, 0, 45, 86
1, 155097, Note_on_c, 0, 60, 90
1, 155097, Note_on_c, 0, 64, 79
1, 155098, Note_on_c, 0, 33, 66
1, 155098, Note_on_c, 0, 40, 72
1, 155101, Note_on_c, 0, 57, 80
1, 155121, Note_off_c, 0, 45, 69
1, 155121, Note_off_c, 0, 69, 66
1, 155125, Note_off_c, 0, 57, 67
1, 155129, Note_off_c, 0, 40, 67
1, 155131, Note_off_c, 0, 60, 65
1, 155131, Note_off_c, 0, 33, 62
1, 155141, Note_off_c, 0, 64, 60
1, 155175, Note_on_c, 0, 45, 93
1, 155177, Note_on_c, 0, 40, 86
1, 155177, Note_on_c, 0, 57, 97
1, 155177, Note_on_c, 0, 60, 86
1, 155178, Note_on_c, 0, 33, 83
1, 155179, Note_on_c, 0, 69, 97
1, 155184, Note_on_c, 0, 64, 80
1, 155188, Note_on_c, 0, 67, 78
1, 155192, Note_on_c, 0, 63, 44
1, 155193, Control_c, 0, 64, 95
1, 155214, Control_c, 0, 64, 67
1, 155229, Control_c, 0, 64, 0
1, 155238, Note_off_c, 0, 63, 35
1, 155288, Control_c, 0, 64, 9
1, 155303, Control_c, 0, 64, 60
1, 155318, Control_c, 0, 64, 76
1, 155333, Control_c, 0, 64, 127
1, 155352, Note_off_c, 0, 67, 38
1, 155355, Note_off_c, 0, 60, 61
1, 155398, Note_off_c, 0, 64, 60
1, 155407, Note_off_c, 0, 45, 59
1, 155423, Note_off_c, 0, 69, 53
1, 155467, Note_off_c, 0, 33, 33
1, 155469, Note_off_c, 0, 57, 28
1, 155571, Note_on_c, 0, 45, 91
1, 155572, Note_on_c, 0, 62, 96
1, 155573, Note_on_c, 0, 65, 91
1, 155573, Note_on_c, 0, 69, 98
1, 155574, Note_on_c, 0, 33, 84
1, 155577, Note_on_c, 0, 57, 94
1, 155580, Note_on_c, 0, 38, 79
1, 155600, Note_on_c, 0, 64, 49
1, 155616, Control_c, 0, 64, 92
1, 155616, Note_off_c, 0, 40, 28
1, 155630, Control_c, 0, 64, 67
1, 155645, Control_c, 0, 64, 0
1, 155763, Control_c, 0, 64, 35
1, 155778, Control_c, 0, 64, 73
1, 155793, Control_c, 0, 64, 127
1, 155813, Note_off_c, 0, 62, 60
1, 155849, Note_off_c, 0, 69, 60
1, 155861, Note_off_c, 0, 65, 59
1, 155864, Note_off_c, 0, 57, 53
1, 155867, Note_off_c, 0, 64, 38
1, 155873, Note_off_c, 0, 45, 53
1, 155902, Note_off_c, 0, 33, 53
1, 155970, Note_off_c, 0, 38, 52
1, 156022, Note_on_c, 0, 69, 104
1, 156024, Note_on_c, 0, 64, 82
1, 156025, Note_on_c, 0, 45, 91
1, 156028, Note_on_c, 0, 57, 102
1, 156028, Note_on_c, 0, 60, 91
1, 156028, Note_on_c, 0, 40, 86
1, 156029, Note_on_c, 0, 33, 88
1, 156049, Note_on_c, 0, 61, 59
1, 156052, Control_c, 0, 64, 82
1, 156067, Control_c, 0, 64, 62
1, 156070, Note_off_c, 0, 61, 43
1, 156081, Control_c, 0, 64, 0
1, 156439, Control_c, 0, 64, 60
1, 156453, Control_c, 0, 64, 100
1, 156468, Control_c, 0, 64, 127
1, 156505, Note_off_c, 0, 60, 61
1, 156610, Note_off_c, 0, 69, 52
1, 156622, Note_off_c, 0, 45, 59
1, 156630, Note_off_c, 0, 57, 35
1, 156655, Note_off_c, 0, 33, 38
1, 156672, Note_off_c, 0, 40, 62
1, 156834, Note_off_c, 0, 64, 47
1, 156891, Note_on_c, 0, 41, 90
1, 156892, Note_on_c, 0, 62, 104
1, 156893, Note_on_c, 0, 33, 89
1, 156895, Note_on_c, 0, 45, 93
1, 156897, Note_on_c, 0, 69, 101
1, 156902, Note_on_c, 0, 57, 94
1, 156903, Note_on_c, 0, 59, 96
1, 156931, Note_on_c, 0, 38, 27
1, 156950, Control_c, 0, 64, 100
1, 156965, Control_c, 0, 64, 72
1, 156969, Note_off_c, 0, 38, 48
1, 156979, Control_c, 0, 64, 56
1, 156994, Control_c, 0, 64, 0
1, 157232, Control_c, 0, 64, 9
1, 157247, Control_c, 0, 64, 54
1, 157262, Control_c, 0, 64, 59
1, 157277, Control_c, 0, 64, 62
1, 157292, Control_c, 0, 64, 67
1, 157307, Control_c, 0, 64, 81
1, 157321, Control_c, 0, 64, 127
1, 157473, Note_off_c, 0, 62, 57
1, 157539, Note_off_c, 0, 45, 52
1, 157586, Note_off_c, 0, 69, 55
1, 157593, Note_off_c, 0, 59, 48
1, 157602, Note_off_c, 0, 41, 61
1, 157604, Note_off_c, 0, 33, 51
1, 157624, Note_off_c, 0, 57, 45
1, 157841, Note_on_c, 0, 69, 102
1, 157843, Note_on_c, 0, 60, 87
1, 157843, Note_on_c, 0, 57, 107
1, 157846, Note_on_c, 0, 45, 97
1, 157847, Note_on_c, 0, 33, 90
1, 157847, Note_on_c, 0, 40, 86
1, 157847, Note_on_c, 0, 64, 88
1, 157879, Note_on_c, 0, 61, 40
1, 157882, Note_on_c, 0, 38, 36
1, 157892, Control_c, 0, 64, 70
1, 157907, Control_c, 0, 64, 0
1, 157912, Note_off_c, 0, 61, 36
1, 157921, Note_off_c, 0, 38, 43
1, 157981, Control_c, 0, 64, 65
1, 157996, Control_c, 0, 64, 92
1, 158007, Note_off_c, 0, 45, 60
1, 158010, Note_off_c, 0, 69, 57
1, 158011, Control_c, 0, 64, 127
1, 158031, Note_off_c, 0, 57, 62
1, 158055, Note_off_c, 0, 40, 61
1, 158057, Note_off_c, 0, 64, 61
1, 158059, Note_off_c, 0, 60, 63
1, 158063, Note_off_c, 0, 33, 60
1, 158225, Control_c, 0, 64, 92
1, 158240, Control_c, 0, 64, 74
1, 158254, Control_c, 0, 64, 60
1, 158269, Control_c, 0, 64, 21
1, 158284, Control_c, 0, 64, 0
1, 158398, Note_on_c, 0, 31, 84
1, 158398, Note_on_c, 0, 45, 94
1, 158403, Note_on_c, 0, 33, 88
1, 158432, Control_c, 0, 64, 64
1, 158447, Control_c, 0, 64, 84
1, 158449, Note_off_c, 0, 31, 62
1, 158462, Control_c, 0, 64, 127
1, 158465, Note_off_c, 0, 45, 60
1, 158475, Note_off_c, 0, 33, 0
1, 158509, Note_on_c, 0, 35, 75
1, 158513, Poly_aftertouch_c, 0, 33, 127
1, 158522, Note_on_c, 0, 47, 83
1, 158539, Poly_aftertouch_c, 0, 33, 0
1, 158574, Note_on_c, 0, 36, 71
1, 158583, Note_on_c, 0, 48, 64
1, 158586, Note_off_c, 0, 35, 60
1, 158609, Note_off_c, 0, 47, 61
1, 158623, Note_on_c, 0, 38, 75
1, 158624, Note_on_c, 0, 50, 73
1, 158629, Note_off_c, 0, 36, 63
1, 158644, Note_off_c, 0, 48, 63
1, 158658, Note_off_c, 0, 50, 65
1, 158683, Note_off_c, 0, 38, 62
1, 158684, Note_on_c, 0, 40, 67
1, 158708, Note_on_c, 0, 52, 67
1, 158737, Note_off_c, 0, 40, 59
1, 158741, Note_on_c, 0, 42, 74
1, 158758, Note_on_c, 0, 54, 80
1, 158766, Note_off_c, 0, 52, 59
1, 158782, Note_on_c, 0, 44, 78
1, 158792, Note_on_c, 0, 56, 78
1, 158799, Note_off_c, 0, 42, 62
1, 158809, Note_off_c, 0, 54, 65
1, 158830, Note_off_c, 0, 56, 63
1, 158833, Control_c, 0, 64, 97
1, 158836, Note_off_c, 0, 44, 64
1, 158842, Note_on_c, 0, 45, 68
1, 158848, Control_c, 0, 64, 80
1, 158863, Control_c, 0, 64, 76
1, 158866, Note_on_c, 0, 57, 81
1, 158875, Note_off_c, 0, 45, 55
1, 158877, Control_c, 0, 64, 82
1, 158892, Control_c, 0, 64, 104
1, 158899, Note_on_c, 0, 47, 81
1, 158907, Control_c, 0, 64, 127
1, 158913, Note_on_c, 0, 59, 81
1, 158927, Note_off_c, 0, 57, 61
1, 158952, Note_on_c, 0, 48, 76
1, 158961, Note_off_c, 0, 47, 62
1, 158967, Note_on_c, 0, 60, 80
1, 158995, Note_off_c, 0, 59, 64
1, 159001, Note_on_c, 0, 62, 71
1, 159002, Note_on_c, 0, 50, 84
1, 159006, Note_off_c, 0, 48, 65
1, 159014, Note_off_c, 0, 60, 64
1, 159025, Note_off_c, 0, 62, 67
1, 159047, Note_off_c, 0, 50, 63
1, 159050, Note_on_c, 0, 52, 74
1, 159066, Note_on_c, 0, 64, 76
1, 159104, Note_on_c, 0, 54, 80
1, 159110, Note_off_c, 0, 52, 63
1, 159117, Note_on_c, 0, 66, 78
1, 159118, Note_off_c, 0, 64, 59
1, 159122, Control_c, 0, 64, 94
1, 159137, Control_c, 0, 64, 70
1, 159143, Note_on_c, 0, 56, 76
1, 159152, Control_c, 0, 64, 71
1, 159154, Note_on_c, 0, 68, 78
1, 159158, Note_off_c, 0, 54, 64
1, 159161, Note_off_c, 0, 66, 60
1, 159166, Control_c, 0, 64, 93
1, 159179, Note_off_c, 0, 68, 68
1, 159181, Control_c, 0, 64, 127
1, 159199, Note_on_c, 0, 57, 82
1, 159203, Note_off_c, 0, 56, 66
1, 159205, Note_on_c, 0, 69, 91
1, 159250, Note_on_c, 0, 59, 88
1, 159256, Note_on_c, 0, 71, 87
1, 159258, Note_off_c, 0, 57, 43
1, 159274, Note_off_c, 0, 69, 60
1, 159285, Control_c, 0, 64, 107
1, 159292, Note_on_c, 0, 60, 86
1, 159295, Poly_aftertouch_c, 0, 55, 0
1, 159298, Note_on_c, 0, 72, 78
1, 159299, Control_c, 0, 64, 70
1, 159314, Control_c, 0, 64, 55
1, 159316, Note_off_c, 0, 59, 63
1, 159326, Note_off_c, 0, 71, 66
1, 159329, Control_c, 0, 64, 62
1, 159337, Note_on_c, 0, 62, 82
1, 159341, Note_on_c, 0, 74, 72
1, 159344, Control_c, 0, 64, 91
1, 159346, Note_off_c, 0, 60, 66
1, 159347, Note_off_c, 0, 72, 66
1, 159359, Control_c, 0, 64, 127
1, 159366, Note_off_c, 0, 74, 68
1, 159382, Note_off_c, 0, 62, 64
1, 159383, Note_on_c, 0, 64, 77
1, 159400, Note_on_c, 0, 76, 85
1, 159436, Note_on_c, 0, 66, 82
1, 159450, Note_off_c, 0, 64, 58
1, 159458, Note_on_c, 0, 78, 84
1, 159473, Note_on_c, 0, 68, 89
1, 159473, Note_off_c, 0, 76, 61
1, 159481, Note_on_c, 0, 80, 80
1, 159495, Note_off_c, 0, 66, 63
1, 159505, Note_off_c, 0, 78, 64
1, 159520, Note_off_c, 0, 80, 62
1, 159522, Control_c, 0, 64, 101
1, 159533, Note_on_c, 0, 69, 85
1, 159536, Note_off_c, 0, 68, 64
1, 159537, Control_c, 0, 64, 68
1, 159548, Note_on_c, 0, 81, 79
1, 159552, Control_c, 0, 64, 0
1, 159566, Note_on_c, 0, 79, 46
1, 159582, Control_c, 0, 64, 40
1, 159589, Note_on_c, 0, 71, 89
1, 159590, Note_off_c, 0, 79, 59
1, 159592, Note_on_c, 0, 83, 88
1, 159596, Control_c, 0, 64, 61
1, 159608, Note_off_c, 0, 69, 62
1, 159611, Control_c, 0, 64, 71
1, 159620, Note_off_c, 0, 81, 64
1, 159626, Control_c, 0, 64, 99
1, 159629, Note_on_c, 0, 72, 86
1, 159641, Note_on_c, 0, 84, 80
1, 159641, Control_c, 0, 64, 127
1, 159649, Note_off_c, 0, 71, 57
1, 159670, Note_off_c, 0, 83, 67
1, 159675, Note_on_c, 0, 74, 88
1, 159676, Note_on_c, 0, 86, 78
1, 159682, Note_off_c, 0, 84, 65
1, 159697, Note_off_c, 0, 72, 65
1, 159707, Note_off_c, 0, 86, 70
1, 159730, Note_off_c, 0, 74, 64
1, 159745, Note_on_c, 0, 76, 72
1, 159754, Note_on_c, 0, 88, 88
1, 159793, Note_on_c, 0, 78, 83
1, 159798, Note_on_c, 0, 90, 82
1, 159800, Note_off_c, 0, 76, 64
1, 159808, Note_off_c, 0, 88, 56
1, 159827, Note_on_c, 0, 92, 86
1, 159828, Note_on_c, 0, 80, 87
1, 159841, Control_c, 0, 64, 110
1, 159846, Note_off_c, 0, 90, 65
1, 159851, Note_off_c, 0, 92, 68
1, 159855, Control_c, 0, 64, 77
1, 159858, Note_off_c, 0, 78, 64
1, 159870, Control_c, 0, 64, 54
1, 159885, Control_c, 0, 64, 0
1, 159893, Note_on_c, 0, 93, 113
1, 159894, Note_off_c, 0, 80, 64
1, 159897, Note_on_c, 0, 81, 99
1, 159899, Note_on_c, 0, 79, 94
1, 159920, Note_on_c, 0, 98, 62
1, 159939, Note_off_c, 0, 98, 63
1, 159941, Note_off_c, 0, 79, 38
1, 159960, Control_c, 0, 64, 65
1, 159974, Control_c, 0, 64, 127
1, 159990, Note_off_c, 0, 93, 67
1, 160004, Note_off_c, 0, 81, 65
1, 161502, Control_c, 0, 64, 119
1, 161517, Control_c, 0, 64, 118
1, 161532, Control_c, 0, 64, 117
1, 161547, Control_c, 0, 64, 113
1, 161562, Control_c, 0, 64, 109
1, 161576, Control_c, 0, 64, 107
1, 161606, Control_c, 0, 64, 106
1, 161621, Control_c, 0, 64, 102
1, 161636, Control_c, 0, 64, 98
1, 161650, Control_c, 0, 64, 96
1, 161680, Control_c, 0, 64, 96
1, 161694, Control_c, 0, 64, 95
1, 161709, Control_c, 0, 64, 93
1, 161724, Control_c, 0, 64, 92
1, 161739, Control_c, 0, 64, 91
1, 161754, Control_c, 0, 64, 90
1, 161769, Control_c, 0, 64, 89
1, 161799, Control_c, 0, 64, 89
1, 161813, Control_c, 0, 64, 88
1, 161828, Control_c, 0, 64, 86
1, 161844, Control_c, 0, 64, 84
1, 161859, Control_c, 0, 64, 84
1, 161873, Control_c, 0, 64, 83
1, 161903, Control_c, 0, 64, 82
1, 161918, Control_c, 0, 64, 81
1, 161940, Control_c, 0, 64, 80
1, 161970, Control_c, 0, 64, 80
1, 161985, Control_c, 0, 64, 78
1, 161999, Control_c, 0, 64, 77
1, 162014, Control_c, 0, 64, 76
1, 162029, Control_c, 0, 64, 76
1, 162044, Control_c, 0, 64, 75
1, 162059, Control_c, 0, 64, 73
1, 162073, Control_c, 0, 64, 72
1, 162088, Control_c, 0, 64, 70
1, 162103, Control_c, 0, 64, 69
1, 162118, Control_c, 0, 64, 67
1, 162133, Control_c, 0, 64, 65
1, 162148, Control_c, 0, 64, 64
1, 162162, Control_c, 0, 64, 63
1, 162177, Control_c, 0, 64, 63
1, 162192, Control_c, 0, 64, 61
1, 162207, Control_c, 0, 64, 60
1, 162222, Control_c, 0, 64, 59
1, 162237, Control_c, 0, 64, 59
1, 162252, Control_c, 0, 64, 58
1, 162266, Control_c, 0, 64, 56
1, 162281, Control_c, 0, 64, 55
1, 162296, Control_c, 0, 64, 54
1, 162311, Control_c, 0, 64, 54
1, 162325, Control_c, 0, 64, 52
1, 162340, Control_c, 0, 64, 50
1, 162355, Control_c, 0, 64, 46
1, 162370, Control_c, 0, 64, 45
1, 162385, Control_c, 0, 64, 43
1, 162399, Control_c, 0, 64, 38
1, 162414, Control_c, 0, 64, 30
1, 162429, Control_c, 0, 64, 0
1, 162504, End_track
0, 0, End_of_file
