0, 0, Header, 0, 1, 384
1, 0, Start_track
1, 0, Title_t, "Alborada del G.--K. Shamray     "
1, 0, Text_t, "2006 International Piano-e-Competition Recital Round"
1, 0, Text_t, "St. Paul, Minnesota, July 2006"
1, 0, Text_t, "http://www.piano-e-competition.com/"
1, 0, Instrument_name_t, "Yamaha Disklavier Pro Mark IV concert grand piano"
1, 0, Sequencer_specific, 39, 67, 113, 0, 1, 0, 1, 0, 65, 108, 98, 111, 114, 97, 100, 97, 32, 100, 101, 108, 32, 71, 46, 32, 75, 46, 32, 83, 104, 97, 109, 114, 97, 121, 32, 32, 32, 32, 32, 32
1, 0, Sequencer_specific, 6, 67, 113, 0, 0, 0, 69
1, 0, System_exclusive, 21, 67, 113, 126, 21, 0, 2, 2, 0, 10, 10, 12, 4, 4, 10, 11, 15, 5, 6, 14, 1, 247
1, 0, Sequencer_specific, 5, 67, 123, 12, 2, 1
1, 0, Tempo, 512820
1, 0, Time_signature, 4, 2, 24, 8
1, 0, System_exclusive, 5, 126, 127, 9, 1, 247
1, 1, System_exclusive, 8, 67, 16, 76, 0, 0, 126, 0, 247
1, 2, System_exclusive, 8, 67, 16, 76, 8, 9, 7, 1, 247
1, 3, Control_c, 0, 0, 0
1, 4, Control_c, 0, 32, 0
1, 5, Program_c, 0, 0
1, 6, Control_c, 0, 7, 100
1, 95, Control_c, 0, 64, 5
1, 95, Control_c, 0, 67, 4
1, 184, Control_c, 0, 64, 10
1, 184, Control_c, 0, 67, 8
1, 273, Control_c, 0, 64, 15
1, 273, Control_c, 0, 67, 12
1, 362, Control_c, 0, 64, 21
1, 362, Control_c, 0, 67, 16
1, 452, Control_c, 0, 64, 25
1, 452, Control_c, 0, 67, 20
1, 541, Control_c, 0, 64, 31
1, 541, Control_c, 0, 67, 24
1, 630, Control_c, 0, 64, 35
1, 630, Control_c, 0, 67, 28
1, 719, Control_c, 0, 64, 43
1, 719, Control_c, 0, 67, 33
1, 904, Note_on_c, 0, 62, 80
1, 907, Control_c, 0, 64, 74
1, 907, Control_c, 0, 67, 45
1, 922, Control_c, 0, 64, 84
1, 922, Control_c, 0, 67, 65
1, 925, Note_off_c, 0, 62, 70
1, 937, Control_c, 0, 64, 80
1, 937, Control_c, 0, 67, 84
1, 952, Control_c, 0, 64, 65
1, 952, Control_c, 0, 67, 94
1, 967, Control_c, 0, 64, 52
1, 967, Control_c, 0, 67, 97
1, 982, Control_c, 0, 64, 40
1, 997, Control_c, 0, 64, 30
1, 1012, Control_c, 0, 64, 0
1, 1056, Control_c, 0, 67, 100
1, 1071, Control_c, 0, 67, 105
1, 1086, Control_c, 0, 67, 109
1, 1101, Control_c, 0, 67, 112
1, 1109, Note_on_c, 0, 63, 59
1, 1119, Note_on_c, 0, 74, 71
1, 1121, Note_on_c, 0, 66, 52
1, 1131, Note_off_c, 0, 63, 63
1, 1143, Note_off_c, 0, 74, 69
1, 1143, Note_off_c, 0, 66, 55
1, 1298, Note_on_c, 0, 62, 65
1, 1329, Note_off_c, 0, 62, 65
1, 1441, Control_c, 0, 67, 110
1, 1460, Note_on_c, 0, 63, 62
1, 1462, Note_on_c, 0, 66, 79
1, 1471, Control_c, 0, 67, 107
1, 1474, Note_on_c, 0, 74, 88
1, 1483, Note_off_c, 0, 66, 70
1, 1486, Control_c, 0, 64, 62
1, 1486, Control_c, 0, 67, 104
1, 1490, Note_off_c, 0, 63, 65
1, 1497, Note_off_c, 0, 74, 68
1, 1501, Control_c, 0, 64, 82
1, 1501, Control_c, 0, 67, 101
1, 1515, Control_c, 0, 64, 87
1, 1515, Control_c, 0, 67, 98
1, 1530, Control_c, 0, 64, 84
1, 1545, Control_c, 0, 64, 76
1, 1545, Control_c, 0, 67, 94
1, 1560, Control_c, 0, 64, 73
1, 1560, Control_c, 0, 67, 92
1, 1582, Control_c, 0, 64, 67
1, 1582, Control_c, 0, 67, 89
1, 1597, Control_c, 0, 64, 60
1, 1597, Control_c, 0, 67, 86
1, 1612, Control_c, 0, 64, 49
1, 1612, Control_c, 0, 67, 83
1, 1626, Control_c, 0, 64, 38
1, 1626, Control_c, 0, 67, 83
1, 1641, Control_c, 0, 64, 0
1, 1656, Control_c, 0, 67, 83
1, 1667, Note_on_c, 0, 62, 75
1, 1671, Control_c, 0, 67, 84
1, 1692, Note_off_c, 0, 62, 69
1, 1775, Control_c, 0, 67, 85
1, 1790, Control_c, 0, 67, 85
1, 1804, Note_on_c, 0, 66, 63
1, 1805, Control_c, 0, 67, 86
1, 1813, Note_on_c, 0, 69, 71
1, 1830, Note_on_c, 0, 77, 72
1, 1833, Note_off_c, 0, 66, 66
1, 1835, Note_off_c, 0, 69, 69
1, 1835, Control_c, 0, 67, 87
1, 1851, Note_off_c, 0, 77, 70
1, 1854, Note_on_c, 0, 65, 41
1, 1884, Note_off_c, 0, 65, 56
1, 1894, Control_c, 0, 67, 86
1, 2008, Note_on_c, 0, 62, 81
1, 2013, Control_c, 0, 67, 85
1, 2028, Control_c, 0, 64, 51
1, 2028, Control_c, 0, 67, 84
1, 2028, Note_off_c, 0, 62, 70
1, 2042, Control_c, 0, 64, 68
1, 2057, Control_c, 0, 64, 66
1, 2072, Control_c, 0, 64, 61
1, 2087, Control_c, 0, 64, 56
1, 2116, Control_c, 0, 64, 56
1, 2116, Control_c, 0, 67, 84
1, 2131, Control_c, 0, 64, 53
1, 2146, Control_c, 0, 64, 48
1, 2156, Note_on_c, 0, 63, 76
1, 2161, Control_c, 0, 64, 43
1, 2162, Note_on_c, 0, 66, 79
1, 2175, Control_c, 0, 64, 43
1, 2175, Control_c, 0, 67, 85
1, 2181, Note_on_c, 0, 74, 86
1, 2181, Note_off_c, 0, 66, 70
1, 2183, Note_off_c, 0, 63, 67
1, 2190, Control_c, 0, 64, 45
1, 2190, Control_c, 0, 67, 85
1, 2199, Note_off_c, 0, 74, 72
1, 2205, Control_c, 0, 64, 50
1, 2220, Control_c, 0, 64, 55
1, 2234, Control_c, 0, 64, 57
1, 2234, Control_c, 0, 67, 86
1, 2249, Control_c, 0, 64, 59
1, 2264, Control_c, 0, 67, 86
1, 2279, Control_c, 0, 64, 58
1, 2293, Control_c, 0, 64, 46
1, 2308, Control_c, 0, 64, 0
1, 2331, Control_c, 0, 67, 86
1, 2354, Note_on_c, 0, 62, 85
1, 2373, Note_off_c, 0, 62, 71
1, 2449, Control_c, 0, 67, 85
1, 2464, Control_c, 0, 67, 85
1, 2479, Control_c, 0, 67, 84
1, 2521, Note_on_c, 0, 57, 90
1, 2539, Note_off_c, 0, 57, 73
1, 2554, Control_c, 0, 67, 85
1, 2584, Control_c, 0, 67, 85
1, 2662, Note_on_c, 0, 61, 42
1, 2669, Note_on_c, 0, 64, 56
1, 2684, Note_on_c, 0, 60, 60
1, 2685, Note_on_c, 0, 72, 72
1, 2689, Note_off_c, 0, 64, 63
1, 2705, Note_off_c, 0, 60, 63
1, 2705, Note_off_c, 0, 61, 63
1, 2708, Note_off_c, 0, 72, 70
1, 2845, Note_on_c, 0, 55, 68
1, 2850, Note_on_c, 0, 56, 59
1, 2855, Note_on_c, 0, 67, 66
1, 2871, Note_off_c, 0, 55, 66
1, 2872, Note_off_c, 0, 56, 60
1, 2876, Note_off_c, 0, 67, 66
1, 2998, Control_c, 0, 67, 84
1, 3013, Control_c, 0, 67, 83
1, 3020, Note_on_c, 0, 62, 87
1, 3028, Control_c, 0, 64, 55
1, 3028, Control_c, 0, 67, 82
1, 3039, Note_off_c, 0, 62, 72
1, 3043, Control_c, 0, 64, 65
1, 3043, Control_c, 0, 67, 82
1, 3058, Control_c, 0, 64, 58
1, 3080, Control_c, 0, 64, 39
1, 3095, Control_c, 0, 64, 0
1, 3169, Control_c, 0, 67, 82
1, 3184, Control_c, 0, 67, 83
1, 3191, Note_on_c, 0, 63, 64
1, 3198, Control_c, 0, 67, 83
1, 3208, Note_on_c, 0, 66, 47
1, 3220, Note_on_c, 0, 74, 55
1, 3221, Note_off_c, 0, 63, 66
1, 3233, Note_off_c, 0, 66, 52
1, 3243, Note_off_c, 0, 74, 57
1, 3386, Note_on_c, 0, 62, 68
1, 3405, Note_off_c, 0, 62, 65
1, 3422, Control_c, 0, 67, 83
1, 3437, Control_c, 0, 67, 82
1, 3526, Control_c, 0, 67, 83
1, 3537, Note_on_c, 0, 63, 72
1, 3537, Note_on_c, 0, 66, 82
1, 3547, Note_on_c, 0, 74, 94
1, 3557, Note_off_c, 0, 66, 71
1, 3560, Note_off_c, 0, 63, 69
1, 3575, Note_off_c, 0, 74, 67
1, 3585, Control_c, 0, 64, 62
1, 3585, Control_c, 0, 67, 82
1, 3600, Control_c, 0, 64, 84
1, 3600, Control_c, 0, 67, 82
1, 3614, Control_c, 0, 64, 85
1, 3614, Control_c, 0, 67, 81
1, 3629, Control_c, 0, 64, 83
1, 3644, Control_c, 0, 64, 76
1, 3644, Control_c, 0, 67, 81
1, 3659, Control_c, 0, 64, 74
1, 3674, Control_c, 0, 64, 66
1, 3689, Control_c, 0, 64, 55
1, 3703, Control_c, 0, 64, 0
1, 3721, Note_on_c, 0, 62, 87
1, 3739, Note_off_c, 0, 62, 71
1, 3763, Control_c, 0, 67, 81
1, 3778, Control_c, 0, 67, 82
1, 3866, Note_on_c, 0, 66, 66
1, 3883, Note_on_c, 0, 69, 80
1, 3895, Note_off_c, 0, 66, 66
1, 3897, Note_on_c, 0, 77, 87
1, 3903, Note_off_c, 0, 69, 71
1, 3903, Note_on_c, 0, 65, 74
1, 3918, Note_off_c, 0, 77, 69
1, 3926, Note_off_c, 0, 65, 67
1, 4070, Note_on_c, 0, 62, 89
1, 4080, Control_c, 0, 67, 81
1, 4090, Note_off_c, 0, 62, 72
1, 4097, Control_c, 0, 64, 38
1, 4097, Control_c, 0, 67, 80
1, 4111, Control_c, 0, 64, 72
1, 4126, Control_c, 0, 64, 83
1, 4126, Control_c, 0, 67, 79
1, 4141, Control_c, 0, 64, 83
1, 4156, Control_c, 0, 64, 76
1, 4170, Control_c, 0, 64, 73
1, 4185, Control_c, 0, 64, 72
1, 4200, Control_c, 0, 64, 69
1, 4215, Control_c, 0, 64, 65
1, 4226, Note_on_c, 0, 63, 70
1, 4230, Control_c, 0, 64, 61
1, 4233, Note_on_c, 0, 66, 81
1, 4244, Control_c, 0, 64, 58
1, 4244, Control_c, 0, 67, 80
1, 4247, Note_on_c, 0, 74, 92
1, 4253, Note_off_c, 0, 66, 70
1, 4257, Note_off_c, 0, 63, 67
1, 4259, Control_c, 0, 64, 53
1, 4271, Note_off_c, 0, 74, 67
1, 4274, Control_c, 0, 64, 41
1, 4289, Control_c, 0, 64, 0
1, 4289, Control_c, 0, 67, 80
1, 4333, Control_c, 0, 67, 81
1, 4377, Control_c, 0, 67, 81
1, 4418, Note_on_c, 0, 62, 86
1, 4437, Note_off_c, 0, 62, 70
1, 4511, Control_c, 0, 67, 81
1, 4526, Control_c, 0, 67, 80
1, 4556, Control_c, 0, 67, 80
1, 4596, Note_on_c, 0, 57, 86
1, 4616, Note_off_c, 0, 57, 71
1, 4622, Control_c, 0, 67, 80
1, 4721, Note_on_c, 0, 61, 51
1, 4740, Note_on_c, 0, 64, 59
1, 4741, Control_c, 0, 67, 81
1, 4753, Note_on_c, 0, 60, 77
1, 4762, Note_on_c, 0, 72, 77
1, 4769, Note_off_c, 0, 64, 66
1, 4774, Note_off_c, 0, 60, 71
1, 4777, Note_off_c, 0, 61, 62
1, 4783, Note_off_c, 0, 72, 72
1, 4926, Note_on_c, 0, 56, 67
1, 4938, Note_on_c, 0, 55, 58
1, 4943, Note_on_c, 0, 67, 62
1, 4953, Note_off_c, 0, 56, 64
1, 4964, Note_off_c, 0, 67, 67
1, 4966, Note_off_c, 0, 55, 64
1, 4973, Note_on_c, 0, 59, 5
1, 4973, Note_off_c, 0, 59, 127
1, 5112, Note_on_c, 0, 62, 81
1, 5126, Control_c, 0, 64, 63
1, 5126, Control_c, 0, 67, 80
1, 5133, Note_off_c, 0, 62, 71
1, 5141, Control_c, 0, 64, 64
1, 5156, Control_c, 0, 64, 55
1, 5171, Control_c, 0, 64, 31
1, 5185, Control_c, 0, 64, 0
1, 5274, Control_c, 0, 64, 30
1, 5291, Note_on_c, 0, 63, 48
1, 5292, Note_on_c, 0, 66, 60
1, 5296, Note_on_c, 0, 74, 69
1, 5304, Control_c, 0, 64, 0
1, 5319, Note_off_c, 0, 66, 62
1, 5325, Note_off_c, 0, 63, 55
1, 5329, Note_off_c, 0, 74, 67
1, 5386, Control_c, 0, 67, 80
1, 5445, Control_c, 0, 67, 80
1, 5474, Note_on_c, 0, 62, 68
1, 5492, Note_off_c, 0, 62, 65
1, 5504, Control_c, 0, 67, 80
1, 5549, Control_c, 0, 67, 79
1, 5608, Control_c, 0, 67, 80
1, 5629, Note_on_c, 0, 63, 72
1, 5633, Note_on_c, 0, 66, 85
1, 5640, Note_on_c, 0, 74, 90
1, 5650, Note_off_c, 0, 66, 72
1, 5653, Note_off_c, 0, 63, 69
1, 5668, Note_off_c, 0, 74, 67
1, 5668, Control_c, 0, 64, 67
1, 5683, Control_c, 0, 64, 91
1, 5683, Control_c, 0, 67, 79
1, 5698, Control_c, 0, 64, 103
1, 5713, Control_c, 0, 64, 100
1, 5728, Control_c, 0, 64, 88
1, 5728, Control_c, 0, 67, 79
1, 5742, Control_c, 0, 64, 88
1, 5757, Control_c, 0, 64, 87
1, 5757, Control_c, 0, 67, 78
1, 5787, Control_c, 0, 64, 82
1, 5787, Control_c, 0, 67, 77
1, 5802, Control_c, 0, 64, 66
1, 5802, Control_c, 0, 67, 76
1, 5811, Note_on_c, 0, 62, 97
1, 5817, Control_c, 0, 64, 0
1, 5817, Control_c, 0, 67, 74
1, 5829, Note_off_c, 0, 62, 70
1, 5832, Control_c, 0, 67, 69
1, 5847, Control_c, 0, 67, 64
1, 5862, Control_c, 0, 67, 62
1, 5877, Control_c, 0, 67, 62
1, 5943, Note_on_c, 0, 63, 58
1, 5950, Control_c, 0, 67, 63
1, 5962, Note_on_c, 0, 66, 89
1, 5965, Control_c, 0, 67, 64
1, 5980, Control_c, 0, 67, 64
1, 5981, Note_on_c, 0, 74, 98
1, 5987, Note_off_c, 0, 66, 67
1, 5990, Note_off_c, 0, 63, 63
1, 5995, Control_c, 0, 67, 65
1, 6008, Note_off_c, 0, 74, 70
1, 6054, Control_c, 0, 67, 64
1, 6076, Control_c, 0, 67, 63
1, 6091, Control_c, 0, 67, 62
1, 6106, Control_c, 0, 67, 61
1, 6121, Control_c, 0, 67, 59
1, 6136, Control_c, 0, 67, 55
1, 6149, Note_on_c, 0, 69, 99
1, 6150, Control_c, 0, 67, 45
1, 6163, Note_off_c, 0, 69, 76
1, 6165, Control_c, 0, 67, 30
1, 6180, Control_c, 0, 64, 34
1, 6180, Control_c, 0, 67, 0
1, 6195, Control_c, 0, 64, 96
1, 6210, Control_c, 0, 64, 127
1, 6336, Note_on_c, 0, 67, 72
1, 6339, Note_on_c, 0, 69, 76
1, 6369, Note_off_c, 0, 67, 62
1, 6374, Note_on_c, 0, 73, 85
1, 6375, Note_off_c, 0, 69, 58
1, 6383, Note_on_c, 0, 81, 81
1, 6386, Note_on_c, 0, 75, 80
1, 6407, Note_off_c, 0, 75, 71
1, 6416, Note_off_c, 0, 73, 67
1, 6422, Note_on_c, 0, 67, 74
1, 6422, Note_on_c, 0, 69, 61
1, 6431, Control_c, 0, 64, 95
1, 6434, Note_off_c, 0, 81, 62
1, 6444, Note_off_c, 0, 69, 70
1, 6446, Note_off_c, 0, 67, 68
1, 6446, Control_c, 0, 64, 69
1, 6461, Control_c, 0, 64, 37
1, 6476, Control_c, 0, 64, 0
1, 6476, Control_c, 0, 67, 19
1, 6482, Note_on_c, 0, 65, 96
1, 6491, Control_c, 0, 67, 23
1, 6500, Note_off_c, 0, 65, 71
1, 6521, Control_c, 0, 67, 25
1, 6551, Control_c, 0, 67, 28
1, 6625, Control_c, 0, 67, 30
1, 6655, Control_c, 0, 67, 33
1, 6669, Control_c, 0, 67, 41
1, 6674, Note_on_c, 0, 63, 78
1, 6684, Control_c, 0, 67, 49
1, 6695, Note_off_c, 0, 63, 70
1, 6699, Control_c, 0, 67, 58
1, 6714, Control_c, 0, 67, 67
1, 6729, Control_c, 0, 67, 72
1, 6825, Note_on_c, 0, 62, 55
1, 6825, Control_c, 0, 67, 71
1, 6833, Note_on_c, 0, 66, 74
1, 6839, Note_on_c, 0, 68, 73
1, 6839, Control_c, 0, 67, 71
1, 6855, Note_off_c, 0, 66, 68
1, 6857, Note_on_c, 0, 75, 68
1, 6862, Note_off_c, 0, 68, 70
1, 6863, Note_off_c, 0, 62, 65
1, 6874, Note_off_c, 0, 75, 67
1, 6899, Control_c, 0, 67, 72
1, 6914, Control_c, 0, 67, 73
1, 6929, Control_c, 0, 67, 73
1, 6944, Control_c, 0, 67, 74
1, 6959, Control_c, 0, 67, 77
1, 6973, Control_c, 0, 67, 84
1, 6988, Control_c, 0, 67, 93
1, 7003, Control_c, 0, 67, 101
1, 7009, Note_on_c, 0, 60, 71
1, 7018, Control_c, 0, 67, 107
1, 7033, Control_c, 0, 67, 112
1, 7036, Note_off_c, 0, 60, 69
1, 7047, Control_c, 0, 67, 114
1, 7180, Control_c, 0, 64, 32
1, 7195, Control_c, 0, 64, 49
1, 7197, Note_on_c, 0, 38, 48
1, 7198, Note_on_c, 0, 45, 49
1, 7210, Control_c, 0, 64, 58
1, 7225, Control_c, 0, 64, 64
1, 7239, Note_off_c, 0, 45, 63
1, 7239, Control_c, 0, 64, 68
1, 7254, Control_c, 0, 64, 72
1, 7259, Note_off_c, 0, 38, 63
1, 7269, Control_c, 0, 64, 76
1, 7285, Control_c, 0, 64, 79
1, 7285, Control_c, 0, 67, 111
1, 7300, Control_c, 0, 64, 82
1, 7314, Control_c, 0, 64, 85
1, 7329, Control_c, 0, 64, 87
1, 7344, Control_c, 0, 64, 88
1, 7351, Note_on_c, 0, 57, 68
1, 7355, Note_on_c, 0, 50, 68
1, 7359, Control_c, 0, 64, 90
1, 7374, Control_c, 0, 64, 92
1, 7380, Note_off_c, 0, 57, 66
1, 7385, Note_off_c, 0, 50, 64
1, 7388, Control_c, 0, 64, 94
1, 7388, Control_c, 0, 67, 109
1, 7403, Control_c, 0, 64, 95
1, 7418, Control_c, 0, 64, 95
1, 7433, Control_c, 0, 64, 96
1, 7522, Control_c, 0, 67, 106
1, 7522, Note_on_c, 0, 50, 68
1, 7523, Note_on_c, 0, 57, 83
1, 7537, Control_c, 0, 67, 102
1, 7546, Note_off_c, 0, 57, 72
1, 7552, Control_c, 0, 67, 96
1, 7555, Note_off_c, 0, 50, 65
1, 7574, Control_c, 0, 67, 82
1, 7588, Control_c, 0, 67, 49
1, 7603, Control_c, 0, 67, 0
1, 7648, Control_c, 0, 64, 99
1, 7662, Control_c, 0, 64, 103
1, 7677, Control_c, 0, 64, 111
1, 7692, Control_c, 0, 64, 127
1, 7695, Note_on_c, 0, 69, 90
1, 7701, Note_on_c, 0, 62, 63
1, 7713, Note_off_c, 0, 69, 70
1, 7721, Note_off_c, 0, 62, 61
1, 7856, Note_on_c, 0, 69, 95
1, 7859, Note_on_c, 0, 62, 88
1, 7879, Note_off_c, 0, 69, 67
1, 7883, Note_off_c, 0, 62, 69
1, 8017, Note_on_c, 0, 69, 92
1, 8017, Note_on_c, 0, 81, 98
1, 8022, Note_on_c, 0, 74, 94
1, 8035, Note_off_c, 0, 69, 73
1, 8037, Note_off_c, 0, 74, 74
1, 8048, Note_off_c, 0, 81, 68
1, 8061, Control_c, 0, 64, 85
1, 8076, Control_c, 0, 64, 64
1, 8091, Control_c, 0, 64, 0
1, 8202, Note_on_c, 0, 69, 98
1, 8210, Control_c, 0, 64, 54
1, 8220, Note_off_c, 0, 69, 68
1, 8225, Control_c, 0, 64, 81
1, 8240, Control_c, 0, 64, 93
1, 8254, Control_c, 0, 64, 98
1, 8336, Control_c, 0, 64, 96
1, 8351, Control_c, 0, 64, 92
1, 8366, Control_c, 0, 64, 85
1, 8380, Control_c, 0, 64, 74
1, 8380, Control_c, 0, 67, 19
1, 8395, Note_on_c, 0, 67, 73
1, 8395, Control_c, 0, 64, 62
1, 8398, Note_on_c, 0, 69, 78
1, 8410, Control_c, 0, 64, 33
1, 8425, Control_c, 0, 64, 0
1, 8431, Note_off_c, 0, 67, 62
1, 8433, Note_off_c, 0, 69, 62
1, 8436, Note_on_c, 0, 81, 79
1, 8446, Note_on_c, 0, 73, 57
1, 8448, Note_on_c, 0, 75, 71
1, 8455, Control_c, 0, 64, 45
1, 8468, Note_off_c, 0, 73, 62
1, 8469, Note_off_c, 0, 75, 68
1, 8469, Control_c, 0, 64, 63
1, 8473, Note_on_c, 0, 72, 47
1, 8473, Note_off_c, 0, 72, 127
1, 8473, Note_on_c, 0, 67, 77
1, 8482, Note_on_c, 0, 69, 74
1, 8484, Control_c, 0, 64, 68
1, 8499, Control_c, 0, 64, 65
1, 8503, Note_off_c, 0, 81, 61
1, 8511, Note_off_c, 0, 67, 66
1, 8512, Note_off_c, 0, 69, 66
1, 8514, Control_c, 0, 64, 55
1, 8529, Control_c, 0, 64, 50
1, 8538, Note_on_c, 0, 65, 93
1, 8544, Control_c, 0, 64, 59
1, 8557, Note_off_c, 0, 65, 71
1, 8559, Control_c, 0, 64, 66
1, 8574, Control_c, 0, 64, 63
1, 8589, Control_c, 0, 64, 51
1, 8589, Control_c, 0, 67, 22
1, 8604, Control_c, 0, 64, 0
1, 8604, Control_c, 0, 67, 24
1, 8633, Control_c, 0, 67, 27
1, 8662, Control_c, 0, 67, 29
1, 8677, Control_c, 0, 64, 35
1, 8692, Control_c, 0, 64, 36
1, 8707, Control_c, 0, 64, 38
1, 8717, Note_on_c, 0, 63, 86
1, 8722, Control_c, 0, 64, 37
1, 8735, Note_off_c, 0, 63, 71
1, 8736, Control_c, 0, 64, 0
1, 8838, Note_on_c, 0, 62, 60
1, 8857, Note_on_c, 0, 66, 78
1, 8862, Note_on_c, 0, 68, 83
1, 8875, Note_on_c, 0, 75, 82
1, 8881, Note_off_c, 0, 68, 73
1, 8887, Note_off_c, 0, 66, 66
1, 8892, Note_off_c, 0, 62, 64
1, 8895, Note_off_c, 0, 75, 71
1, 8989, Control_c, 0, 67, 32
1, 9004, Control_c, 0, 67, 35
1, 9019, Control_c, 0, 67, 48
1, 9030, Note_on_c, 0, 60, 68
1, 9033, Control_c, 0, 67, 66
1, 9048, Control_c, 0, 67, 88
1, 9062, Note_off_c, 0, 60, 66
1, 9071, Control_c, 0, 67, 111
1, 9085, Control_c, 0, 67, 127
1, 9219, Control_c, 0, 64, 39
1, 9226, Note_on_c, 0, 38, 54
1, 9228, Note_on_c, 0, 45, 56
1, 9233, Control_c, 0, 64, 53
1, 9248, Control_c, 0, 64, 60
1, 9263, Control_c, 0, 64, 63
1, 9265, Note_off_c, 0, 45, 65
1, 9277, Note_off_c, 0, 38, 65
1, 9278, Control_c, 0, 64, 65
1, 9293, Control_c, 0, 64, 66
1, 9308, Control_c, 0, 64, 67
1, 9337, Control_c, 0, 64, 67
1, 9352, Control_c, 0, 64, 68
1, 9367, Control_c, 0, 64, 69
1, 9382, Control_c, 0, 64, 70
1, 9397, Control_c, 0, 64, 72
1, 9406, Note_on_c, 0, 57, 68
1, 9411, Control_c, 0, 64, 73
1, 9413, Note_on_c, 0, 50, 47
1, 9430, Note_off_c, 0, 57, 67
1, 9442, Note_off_c, 0, 50, 52
1, 9471, Control_c, 0, 64, 73
1, 9515, Control_c, 0, 64, 74
1, 9530, Control_c, 0, 64, 75
1, 9545, Control_c, 0, 64, 77
1, 9559, Control_c, 0, 64, 79
1, 9570, Note_on_c, 0, 57, 71
1, 9574, Control_c, 0, 64, 82
1, 9576, Note_on_c, 0, 50, 65
1, 9589, Control_c, 0, 64, 86
1, 9594, Note_off_c, 0, 57, 67
1, 9602, Note_off_c, 0, 50, 65
1, 9603, Control_c, 0, 64, 90
1, 9618, Control_c, 0, 64, 93
1, 9633, Control_c, 0, 64, 95
1, 9633, Control_c, 0, 67, 114
1, 9648, Control_c, 0, 64, 98
1, 9648, Control_c, 0, 67, 100
1, 9663, Control_c, 0, 64, 102
1, 9663, Control_c, 0, 67, 88
1, 9679, Control_c, 0, 64, 108
1, 9679, Control_c, 0, 67, 78
1, 9694, Control_c, 0, 64, 117
1, 9694, Control_c, 0, 67, 73
1, 9708, Control_c, 0, 64, 127
1, 9708, Control_c, 0, 67, 69
1, 9723, Control_c, 0, 67, 69
1, 9728, Note_on_c, 0, 69, 79
1, 9733, Note_on_c, 0, 62, 65
1, 9751, Note_off_c, 0, 62, 65
1, 9752, Note_off_c, 0, 69, 68
1, 9768, Control_c, 0, 67, 68
1, 9782, Control_c, 0, 67, 67
1, 9797, Control_c, 0, 67, 65
1, 9820, Control_c, 0, 67, 58
1, 9835, Control_c, 0, 67, 48
1, 9850, Control_c, 0, 67, 39
1, 9864, Control_c, 0, 67, 30
1, 9879, Control_c, 0, 67, 19
1, 9894, Control_c, 0, 67, 0
1, 9903, Note_on_c, 0, 62, 85
1, 9904, Note_on_c, 0, 69, 92
1, 9917, Note_off_c, 0, 69, 76
1, 9930, Note_off_c, 0, 62, 67
1, 10065, Note_on_c, 0, 81, 91
1, 10066, Note_on_c, 0, 69, 80
1, 10066, Note_on_c, 0, 74, 89
1, 10083, Note_off_c, 0, 74, 73
1, 10090, Note_off_c, 0, 69, 68
1, 10091, Note_off_c, 0, 81, 64
1, 10234, Control_c, 0, 64, 105
1, 10235, Note_on_c, 0, 45, 89
1, 10237, Note_on_c, 0, 38, 91
1, 10249, Control_c, 0, 64, 79
1, 10257, Note_off_c, 0, 45, 70
1, 10262, Note_off_c, 0, 38, 70
1, 10264, Control_c, 0, 64, 72
1, 10279, Control_c, 0, 64, 71
1, 10308, Control_c, 0, 64, 70
1, 10323, Control_c, 0, 64, 68
1, 10338, Control_c, 0, 64, 64
1, 10353, Control_c, 0, 64, 59
1, 10368, Control_c, 0, 64, 51
1, 10382, Control_c, 0, 64, 41
1, 10382, Control_c, 0, 67, 19
1, 10397, Control_c, 0, 64, 0
1, 10417, Note_on_c, 0, 57, 70
1, 10420, Note_on_c, 0, 50, 62
1, 10441, Note_off_c, 0, 50, 60
1, 10442, Note_off_c, 0, 57, 65
1, 10456, Control_c, 0, 67, 22
1, 10531, Control_c, 0, 67, 24
1, 10607, Note_on_c, 0, 38, 60
1, 10607, Note_on_c, 0, 45, 57
1, 10634, Note_off_c, 0, 45, 56
1, 10637, Note_off_c, 0, 38, 65
1, 10657, Control_c, 0, 67, 26
1, 10672, Control_c, 0, 67, 28
1, 10687, Control_c, 0, 67, 32
1, 10702, Control_c, 0, 67, 33
1, 10717, Control_c, 0, 67, 34
1, 10771, Note_on_c, 0, 57, 73
1, 10773, Note_on_c, 0, 50, 66
1, 10791, Control_c, 0, 64, 40
1, 10794, Note_off_c, 0, 50, 63
1, 10796, Note_off_c, 0, 57, 67
1, 10805, Control_c, 0, 64, 38
1, 10805, Control_c, 0, 67, 34
1, 10820, Control_c, 0, 64, 0
1, 10894, Control_c, 0, 67, 35
1, 10909, Control_c, 0, 67, 35
1, 10924, Control_c, 0, 67, 37
1, 10938, Control_c, 0, 67, 39
1, 10953, Control_c, 0, 67, 48
1, 10956, Note_on_c, 0, 45, 55
1, 10957, Note_on_c, 0, 38, 53
1, 10968, Control_c, 0, 67, 57
1, 10983, Note_off_c, 0, 45, 57
1, 10983, Control_c, 0, 67, 66
1, 10986, Note_off_c, 0, 38, 60
1, 10998, Control_c, 0, 67, 73
1, 11013, Control_c, 0, 67, 79
1, 11028, Control_c, 0, 67, 83
1, 11042, Control_c, 0, 67, 86
1, 11057, Control_c, 0, 67, 88
1, 11072, Control_c, 0, 67, 90
1, 11087, Control_c, 0, 67, 92
1, 11102, Control_c, 0, 67, 93
1, 11123, Note_on_c, 0, 57, 58
1, 11126, Note_on_c, 0, 50, 55
1, 11148, Note_off_c, 0, 57, 64
1, 11149, Note_off_c, 0, 50, 58
1, 11310, Note_on_c, 0, 45, 57
1, 11319, Note_on_c, 0, 38, 47
1, 11341, Note_off_c, 0, 45, 65
1, 11347, Note_off_c, 0, 38, 57
1, 11361, Control_c, 0, 67, 93
1, 11476, Note_on_c, 0, 57, 58
1, 11481, Note_on_c, 0, 50, 40
1, 11501, Note_off_c, 0, 57, 63
1, 11512, Note_off_c, 0, 50, 47
1, 11569, Control_c, 0, 67, 94
1, 11599, Control_c, 0, 67, 95
1, 11613, Control_c, 0, 67, 96
1, 11628, Control_c, 0, 67, 100
1, 11643, Control_c, 0, 67, 110
1, 11646, Note_on_c, 0, 45, 57
1, 11651, Note_on_c, 0, 38, 40
1, 11658, Control_c, 0, 67, 119
1, 11671, Note_off_c, 0, 45, 58
1, 11673, Control_c, 0, 67, 124
1, 11680, Note_off_c, 0, 38, 48
1, 11761, Control_c, 0, 64, 38
1, 11776, Control_c, 0, 64, 49
1, 11791, Control_c, 0, 64, 56
1, 11803, Note_on_c, 0, 50, 45
1, 11806, Control_c, 0, 64, 60
1, 11819, Note_on_c, 0, 57, 48
1, 11820, Control_c, 0, 64, 62
1, 11833, Note_off_c, 0, 50, 59
1, 11835, Control_c, 0, 64, 63
1, 11847, Note_off_c, 0, 57, 54
1, 11850, Control_c, 0, 64, 64
1, 11865, Control_c, 0, 64, 65
1, 11880, Control_c, 0, 64, 66
1, 11895, Control_c, 0, 64, 65
1, 11910, Control_c, 0, 64, 60
1, 11925, Control_c, 0, 64, 52
1, 11940, Control_c, 0, 64, 45
1, 11944, Note_on_c, 0, 38, 24
1, 11948, Note_on_c, 0, 45, 39
1, 11954, Control_c, 0, 64, 45
1, 11969, Control_c, 0, 64, 53
1, 11984, Control_c, 0, 64, 61
1, 11998, Control_c, 0, 64, 65
1, 12013, Control_c, 0, 64, 67
1, 12028, Control_c, 0, 64, 68
1, 12029, Note_off_c, 0, 45, 62
1, 12031, Note_on_c, 0, 62, 62
1, 12035, Note_off_c, 0, 38, 59
1, 12043, Control_c, 0, 64, 70
1, 12065, Control_c, 0, 64, 73
1, 12071, Note_on_c, 0, 50, 50
1, 12081, Control_c, 0, 64, 77
1, 12087, Note_off_c, 0, 62, 60
1, 12096, Control_c, 0, 64, 80
1, 12098, Note_off_c, 0, 50, 57
1, 12099, Note_on_c, 0, 69, 63
1, 12110, Control_c, 0, 64, 85
1, 12125, Control_c, 0, 64, 90
1, 12126, Note_off_c, 0, 69, 67
1, 12140, Control_c, 0, 64, 96
1, 12144, Note_on_c, 0, 74, 55
1, 12155, Control_c, 0, 64, 102
1, 12166, Note_off_c, 0, 74, 58
1, 12170, Control_c, 0, 64, 107
1, 12184, Control_c, 0, 64, 109
1, 12214, Control_c, 0, 64, 103
1, 12215, Note_on_c, 0, 74, 58
1, 12229, Control_c, 0, 64, 90
1, 12244, Control_c, 0, 64, 74
1, 12259, Control_c, 0, 64, 59
1, 12273, Note_on_c, 0, 75, 60
1, 12274, Control_c, 0, 64, 31
1, 12288, Control_c, 0, 64, 0
1, 12309, Note_off_c, 0, 74, 43
1, 12312, Note_on_c, 0, 82, 75
1, 12314, Note_off_c, 0, 75, 63
1, 12359, Note_on_c, 0, 86, 72
1, 12360, Note_off_c, 0, 82, 64
1, 12377, Control_c, 0, 64, 50
1, 12392, Control_c, 0, 64, 60
1, 12393, Note_off_c, 0, 86, 64
1, 12406, Note_on_c, 0, 48, 65
1, 12407, Control_c, 0, 64, 64
1, 12407, Control_c, 0, 67, 122
1, 12420, Note_on_c, 0, 55, 35
1, 12422, Control_c, 0, 64, 65
1, 12436, Control_c, 0, 64, 67
1, 12451, Note_off_c, 0, 55, 46
1, 12451, Control_c, 0, 64, 71
1, 12457, Note_off_c, 0, 48, 60
1, 12466, Control_c, 0, 64, 79
1, 12481, Control_c, 0, 64, 88
1, 12495, Control_c, 0, 64, 96
1, 12510, Control_c, 0, 64, 101
1, 12525, Control_c, 0, 64, 103
1, 12555, Control_c, 0, 64, 106
1, 12561, Note_on_c, 0, 84, 72
1, 12570, Control_c, 0, 64, 110
1, 12579, Note_off_c, 0, 84, 65
1, 12584, Control_c, 0, 64, 114
1, 12599, Control_c, 0, 64, 116
1, 12618, Note_on_c, 0, 86, 76
1, 12646, Note_on_c, 0, 84, 80
1, 12662, Note_off_c, 0, 86, 63
1, 12684, Note_on_c, 0, 63, 37
1, 12691, Note_off_c, 0, 84, 65
1, 12694, Note_on_c, 0, 82, 90
1, 12704, Note_on_c, 0, 67, 48
1, 12709, Note_off_c, 0, 82, 72
1, 12722, Note_on_c, 0, 74, 58
1, 12744, Note_off_c, 0, 74, 64
1, 12748, Control_c, 0, 67, 124
1, 12765, Note_off_c, 0, 63, 62
1, 12825, Note_off_c, 0, 67, 35
1, 12878, Note_on_c, 0, 70, 72
1, 12889, Control_c, 0, 64, 111
1, 12897, Note_on_c, 0, 75, 67
1, 12901, Note_on_c, 0, 81, 91
1, 12901, Note_off_c, 0, 70, 70
1, 12904, Control_c, 0, 64, 101
1, 12912, Note_off_c, 0, 75, 67
1, 12919, Control_c, 0, 64, 92
1, 12928, Note_off_c, 0, 81, 65
1, 12933, Control_c, 0, 64, 84
1, 12933, Control_c, 0, 67, 126
1, 12948, Control_c, 0, 64, 78
1, 12963, Control_c, 0, 64, 74
1, 12978, Control_c, 0, 64, 72
1, 12993, Control_c, 0, 64, 71
1, 13007, Control_c, 0, 64, 70
1, 13022, Control_c, 0, 64, 69
1, 13037, Control_c, 0, 64, 68
1, 13052, Control_c, 0, 64, 67
1, 13066, Control_c, 0, 64, 66
1, 13091, Note_on_c, 0, 77, 52
1, 13096, Control_c, 0, 64, 66
1, 13111, Control_c, 0, 64, 65
1, 13114, Note_off_c, 0, 77, 37
1, 13126, Control_c, 0, 64, 63
1, 13141, Control_c, 0, 64, 61
1, 13156, Control_c, 0, 64, 59
1, 13171, Control_c, 0, 64, 58
1, 13182, Note_on_c, 0, 70, 57
1, 13185, Control_c, 0, 64, 57
1, 13200, Control_c, 0, 64, 53
1, 13208, Note_off_c, 0, 70, 55
1, 13211, Note_on_c, 0, 67, 45
1, 13215, Control_c, 0, 64, 48
1, 13218, Note_on_c, 0, 75, 61
1, 13230, Control_c, 0, 64, 39
1, 13233, Note_on_c, 0, 79, 73
1, 13242, Note_off_c, 0, 67, 55
1, 13245, Control_c, 0, 64, 0
1, 13245, Note_off_c, 0, 75, 66
1, 13256, Note_off_c, 0, 79, 71
1, 13333, Control_c, 0, 64, 30
1, 13348, Control_c, 0, 64, 39
1, 13363, Control_c, 0, 64, 47
1, 13377, Control_c, 0, 64, 54
1, 13392, Control_c, 0, 64, 59
1, 13407, Control_c, 0, 64, 62
1, 13415, Note_on_c, 0, 86, 71
1, 13418, Note_on_c, 0, 48, 40
1, 13422, Control_c, 0, 64, 64
1, 13423, Note_on_c, 0, 55, 48
1, 13429, Note_on_c, 0, 82, 60
1, 13435, Note_on_c, 0, 75, 38
1, 13437, Control_c, 0, 64, 66
1, 13448, Note_off_c, 0, 55, 61
1, 13448, Note_off_c, 0, 82, 61
1, 13451, Control_c, 0, 64, 69
1, 13454, Note_off_c, 0, 86, 61
1, 13461, Note_off_c, 0, 48, 63
1, 13466, Note_off_c, 0, 75, 35
1, 13466, Control_c, 0, 64, 73
1, 13481, Control_c, 0, 64, 77
1, 13496, Control_c, 0, 64, 81
1, 13511, Control_c, 0, 64, 83
1, 13526, Control_c, 0, 64, 85
1, 13540, Control_c, 0, 64, 86
1, 13563, Control_c, 0, 64, 87
1, 13577, Control_c, 0, 64, 88
1, 13607, Control_c, 0, 64, 89
1, 13618, Note_on_c, 0, 84, 69
1, 13622, Control_c, 0, 64, 90
1, 13637, Control_c, 0, 64, 91
1, 13638, Note_off_c, 0, 84, 61
1, 13651, Control_c, 0, 64, 92
1, 13666, Note_on_c, 0, 86, 76
1, 13666, Control_c, 0, 64, 93
1, 13688, Note_on_c, 0, 63, 46
1, 13697, Control_c, 0, 64, 93
1, 13712, Control_c, 0, 64, 94
1, 13715, Note_on_c, 0, 84, 79
1, 13722, Note_off_c, 0, 86, 63
1, 13727, Control_c, 0, 64, 96
1, 13742, Control_c, 0, 64, 98
1, 13752, Note_off_c, 0, 84, 61
1, 13758, Note_on_c, 0, 67, 43
1, 13764, Note_on_c, 0, 82, 81
1, 13768, Note_on_c, 0, 74, 68
1, 13771, Control_c, 0, 64, 100
1, 13782, Note_off_c, 0, 63, 62
1, 13783, Note_off_c, 0, 82, 71
1, 13787, Note_off_c, 0, 67, 57
1, 13796, Note_off_c, 0, 74, 68
1, 13801, Control_c, 0, 64, 104
1, 13816, Control_c, 0, 64, 109
1, 13831, Control_c, 0, 64, 119
1, 13846, Control_c, 0, 64, 127
1, 13932, Note_on_c, 0, 70, 66
1, 13941, Note_on_c, 0, 75, 73
1, 13944, Note_on_c, 0, 81, 87
1, 13950, Note_off_c, 0, 70, 66
1, 13958, Note_off_c, 0, 75, 69
1, 13979, Control_c, 0, 67, 110
1, 13983, Note_off_c, 0, 81, 62
1, 13994, Control_c, 0, 67, 91
1, 14008, Control_c, 0, 67, 69
1, 14023, Control_c, 0, 67, 53
1, 14038, Control_c, 0, 67, 41
1, 14053, Control_c, 0, 67, 34
1, 14068, Control_c, 0, 67, 31
1, 14098, Control_c, 0, 67, 29
1, 14114, Note_on_c, 0, 78, 91
1, 14131, Note_off_c, 0, 78, 72
1, 14239, Note_on_c, 0, 70, 60
1, 14242, Note_on_c, 0, 60, 66
1, 14244, Note_on_c, 0, 67, 61
1, 14263, Note_on_c, 0, 75, 74
1, 14263, Note_off_c, 0, 67, 65
1, 14265, Note_off_c, 0, 60, 67
1, 14271, Note_on_c, 0, 79, 85
1, 14271, Note_off_c, 0, 70, 66
1, 14284, Note_off_c, 0, 75, 70
1, 14290, Control_c, 0, 64, 104
1, 14312, Control_c, 0, 64, 77
1, 14318, Note_off_c, 0, 79, 65
1, 14327, Control_c, 0, 64, 56
1, 14342, Control_c, 0, 64, 0
1, 14456, Note_on_c, 0, 82, 91
1, 14462, Note_on_c, 0, 50, 86
1, 14463, Note_on_c, 0, 43, 75
1, 14476, Control_c, 0, 64, 45
1, 14483, Note_off_c, 0, 50, 71
1, 14491, Control_c, 0, 64, 79
1, 14493, Note_off_c, 0, 82, 66
1, 14494, Note_off_c, 0, 43, 69
1, 14506, Control_c, 0, 64, 99
1, 14521, Control_c, 0, 64, 127
1, 14565, Control_c, 0, 67, 31
1, 14579, Control_c, 0, 67, 32
1, 14594, Control_c, 0, 67, 33
1, 14609, Control_c, 0, 67, 34
1, 14623, Control_c, 0, 67, 34
1, 14658, Note_on_c, 0, 81, 71
1, 14659, Note_on_c, 0, 69, 89
1, 14668, Note_on_c, 0, 65, 70
1, 14670, Note_on_c, 0, 58, 70
1, 14683, Note_off_c, 0, 69, 67
1, 14687, Note_off_c, 0, 65, 66
1, 14694, Note_off_c, 0, 58, 66
1, 14697, Control_c, 0, 67, 34
1, 14711, Note_off_c, 0, 81, 63
1, 14713, Note_on_c, 0, 82, 85
1, 14727, Control_c, 0, 67, 33
1, 14742, Control_c, 0, 67, 33
1, 14769, Note_on_c, 0, 81, 81
1, 14772, Control_c, 0, 67, 32
1, 14786, Control_c, 0, 67, 32
1, 14798, Note_off_c, 0, 82, 63
1, 14815, Note_on_c, 0, 77, 80
1, 14839, Note_off_c, 0, 81, 64
1, 14854, Note_on_c, 0, 70, 66
1, 14873, Note_off_c, 0, 70, 64
1, 15010, Note_on_c, 0, 69, 60
1, 15014, Note_on_c, 0, 58, 55
1, 15028, Note_off_c, 0, 69, 63
1, 15031, Note_on_c, 0, 65, 25
1, 15036, Note_off_c, 0, 58, 65
1, 15082, Note_off_c, 0, 65, 48
1, 15204, Note_on_c, 0, 70, 73
1, 15225, Note_off_c, 0, 70, 71
1, 15241, Note_off_c, 0, 77, 63
1, 15367, Note_on_c, 0, 69, 57
1, 15377, Note_on_c, 0, 65, 46
1, 15378, Note_on_c, 0, 58, 43
1, 15387, Note_off_c, 0, 69, 63
1, 15398, Note_on_c, 0, 77, 28
1, 15403, Note_off_c, 0, 65, 57
1, 15415, Note_off_c, 0, 58, 57
1, 15491, Control_c, 0, 67, 32
1, 15506, Control_c, 0, 67, 33
1, 15520, Control_c, 0, 67, 33
1, 15523, Note_off_c, 0, 77, 55
1, 15535, Control_c, 0, 67, 34
1, 15550, Control_c, 0, 67, 34
1, 15554, Note_on_c, 0, 70, 69
1, 15565, Control_c, 0, 67, 35
1, 15576, Note_off_c, 0, 70, 71
1, 15639, Control_c, 0, 67, 35
1, 15654, Control_c, 0, 67, 36
1, 15714, Control_c, 0, 67, 36
1, 15724, Note_on_c, 0, 74, 75
1, 15727, Note_on_c, 0, 69, 46
1, 15728, Control_c, 0, 67, 37
1, 15732, Note_on_c, 0, 65, 36
1, 15740, Note_on_c, 0, 58, 26
1, 15743, Control_c, 0, 67, 37
1, 15755, Note_off_c, 0, 69, 57
1, 15758, Control_c, 0, 64, 117
1, 15758, Control_c, 0, 67, 38
1, 15761, Note_off_c, 0, 65, 55
1, 15772, Control_c, 0, 64, 110
1, 15772, Control_c, 0, 67, 39
1, 15774, Note_off_c, 0, 58, 53
1, 15787, Control_c, 0, 64, 103
1, 15787, Control_c, 0, 67, 40
1, 15809, Control_c, 0, 64, 98
1, 15809, Control_c, 0, 67, 41
1, 15824, Control_c, 0, 64, 92
1, 15824, Control_c, 0, 67, 43
1, 15839, Control_c, 0, 64, 88
1, 15839, Control_c, 0, 67, 44
1, 15854, Control_c, 0, 64, 84
1, 15854, Control_c, 0, 67, 45
1, 15869, Control_c, 0, 64, 80
1, 15869, Control_c, 0, 67, 50
1, 15883, Control_c, 0, 64, 78
1, 15883, Control_c, 0, 67, 56
1, 15898, Control_c, 0, 64, 75
1, 15898, Control_c, 0, 67, 61
1, 15913, Control_c, 0, 64, 73
1, 15913, Control_c, 0, 67, 67
1, 15917, Note_on_c, 0, 70, 59
1, 15928, Control_c, 0, 64, 72
1, 15928, Control_c, 0, 67, 74
1, 15928, Note_on_c, 0, 62, 52
1, 15943, Control_c, 0, 64, 71
1, 15943, Control_c, 0, 67, 82
1, 15947, Note_off_c, 0, 70, 66
1, 15958, Control_c, 0, 64, 70
1, 15958, Control_c, 0, 67, 89
1, 15958, Note_off_c, 0, 62, 54
1, 15972, Control_c, 0, 64, 68
1, 15972, Control_c, 0, 67, 95
1, 15987, Control_c, 0, 64, 67
1, 15987, Control_c, 0, 67, 99
1, 16002, Control_c, 0, 64, 66
1, 16002, Control_c, 0, 67, 102
1, 16017, Control_c, 0, 64, 65
1, 16017, Control_c, 0, 67, 105
1, 16032, Control_c, 0, 64, 64
1, 16032, Control_c, 0, 67, 107
1, 16047, Control_c, 0, 64, 63
1, 16047, Control_c, 0, 67, 110
1, 16062, Control_c, 0, 64, 62
1, 16062, Control_c, 0, 67, 113
1, 16077, Control_c, 0, 64, 60
1, 16077, Control_c, 0, 67, 116
1, 16086, Note_on_c, 0, 69, 60
1, 16092, Control_c, 0, 64, 58
1, 16092, Control_c, 0, 67, 121
1, 16101, Note_on_c, 0, 58, 45
1, 16106, Note_on_c, 0, 65, 39
1, 16107, Control_c, 0, 64, 57
1, 16107, Control_c, 0, 67, 127
1, 16114, Note_off_c, 0, 69, 67
1, 16122, Control_c, 0, 64, 56
1, 16126, Note_off_c, 0, 58, 60
1, 16137, Note_off_c, 0, 65, 50
1, 16137, Control_c, 0, 64, 54
1, 16152, Control_c, 0, 64, 53
1, 16167, Control_c, 0, 64, 52
1, 16241, Control_c, 0, 64, 51
1, 16256, Control_c, 0, 64, 51
1, 16268, Note_on_c, 0, 62, 56
1, 16268, Note_on_c, 0, 70, 59
1, 16270, Control_c, 0, 64, 50
1, 16299, Note_off_c, 0, 70, 66
1, 16301, Note_off_c, 0, 62, 64
1, 16315, Control_c, 0, 64, 51
1, 16330, Control_c, 0, 64, 51
1, 16344, Control_c, 0, 64, 52
1, 16359, Control_c, 0, 64, 55
1, 16374, Control_c, 0, 64, 58
1, 16389, Control_c, 0, 64, 61
1, 16403, Control_c, 0, 64, 64
1, 16404, Note_on_c, 0, 69, 39
1, 16416, Note_on_c, 0, 58, 51
1, 16418, Note_on_c, 0, 65, 41
1, 16418, Control_c, 0, 64, 66
1, 16430, Note_off_c, 0, 69, 50
1, 16433, Control_c, 0, 64, 69
1, 16447, Note_off_c, 0, 58, 66
1, 16448, Note_off_c, 0, 65, 51
1, 16448, Control_c, 0, 64, 72
1, 16463, Control_c, 0, 64, 74
1, 16477, Control_c, 0, 64, 73
1, 16492, Control_c, 0, 64, 66
1, 16507, Control_c, 0, 64, 56
1, 16522, Note_off_c, 0, 74, 58
1, 16522, Control_c, 0, 64, 40
1, 16537, Control_c, 0, 64, 0
1, 16608, Note_on_c, 0, 48, 41
1, 16624, Note_on_c, 0, 55, 31
1, 16648, Control_c, 0, 64, 35
1, 16663, Control_c, 0, 64, 42
1, 16677, Control_c, 0, 64, 47
1, 16685, Note_on_c, 0, 63, 47
1, 16692, Control_c, 0, 64, 52
1, 16703, Note_on_c, 0, 70, 61
1, 16707, Control_c, 0, 64, 56
1, 16710, Note_off_c, 0, 63, 59
1, 16713, Note_off_c, 0, 55, 57
1, 16721, Control_c, 0, 64, 60
1, 16733, Note_off_c, 0, 70, 67
1, 16736, Control_c, 0, 64, 61
1, 16737, Note_on_c, 0, 74, 69
1, 16751, Control_c, 0, 64, 62
1, 16766, Control_c, 0, 64, 63
1, 16767, Note_off_c, 0, 74, 65
1, 16781, Control_c, 0, 64, 64
1, 16796, Control_c, 0, 64, 65
1, 16840, Control_c, 0, 64, 65
1, 16855, Control_c, 0, 64, 64
1, 16871, Control_c, 0, 64, 64
1, 16900, Control_c, 0, 64, 63
1, 16915, Note_on_c, 0, 72, 50
1, 16939, Note_off_c, 0, 72, 55
1, 16945, Control_c, 0, 64, 64
1, 16949, Note_on_c, 0, 74, 72
1, 16960, Control_c, 0, 64, 65
1, 16974, Control_c, 0, 64, 66
1, 16989, Control_c, 0, 64, 67
1, 17000, Note_off_c, 0, 74, 64
1, 17004, Control_c, 0, 64, 68
1, 17007, Note_on_c, 0, 72, 73
1, 17016, Note_on_c, 0, 55, 37
1, 17019, Control_c, 0, 64, 69
1, 17031, Note_off_c, 0, 72, 68
1, 17034, Control_c, 0, 64, 70
1, 17037, Note_on_c, 0, 70, 79
1, 17040, Note_on_c, 0, 62, 59
1, 17049, Control_c, 0, 64, 72
1, 17058, Note_off_c, 0, 70, 72
1, 17064, Control_c, 0, 64, 74
1, 17079, Control_c, 0, 64, 74
1, 17093, Control_c, 0, 64, 75
1, 17104, Note_off_c, 0, 62, 53
1, 17108, Control_c, 0, 64, 75
1, 17123, Control_c, 0, 64, 76
1, 17137, Control_c, 0, 64, 76
1, 17152, Control_c, 0, 64, 77
1, 17167, Control_c, 0, 64, 78
1, 17182, Control_c, 0, 64, 78
1, 17193, Note_off_c, 0, 55, 61
1, 17211, Control_c, 0, 64, 78
1, 17222, Note_on_c, 0, 63, 75
1, 17225, Note_on_c, 0, 58, 54
1, 17226, Control_c, 0, 64, 70
1, 17228, Note_on_c, 0, 69, 80
1, 17241, Control_c, 0, 64, 54
1, 17245, Note_off_c, 0, 63, 70
1, 17249, Note_off_c, 0, 58, 58
1, 17250, Note_off_c, 0, 48, 58
1, 17256, Control_c, 0, 64, 0
1, 17263, Note_off_c, 0, 69, 65
1, 17397, Note_on_c, 0, 66, 80
1, 17419, Note_off_c, 0, 66, 69
1, 17494, Note_on_c, 0, 58, 52
1, 17523, Note_off_c, 0, 58, 63
1, 17550, Note_on_c, 0, 63, 55
1, 17550, Note_on_c, 0, 67, 68
1, 17562, Note_on_c, 0, 55, 41
1, 17573, Note_off_c, 0, 63, 60
1, 17577, Note_off_c, 0, 67, 69
1, 17591, Note_on_c, 0, 48, 17
1, 17633, Note_off_c, 0, 48, 45
1, 17684, Note_off_c, 0, 55, 44
1, 17709, Control_c, 0, 64, 37
1, 17723, Control_c, 0, 64, 47
1, 17737, Note_on_c, 0, 74, 65
1, 17738, Control_c, 0, 64, 54
1, 17753, Note_on_c, 0, 70, 48
1, 17753, Control_c, 0, 64, 58
1, 17762, Note_on_c, 0, 41, 51
1, 17764, Note_on_c, 0, 48, 36
1, 17767, Note_off_c, 0, 74, 62
1, 17767, Control_c, 0, 64, 61
1, 17776, Note_off_c, 0, 70, 54
1, 17782, Control_c, 0, 64, 64
1, 17790, Note_off_c, 0, 41, 64
1, 17796, Note_off_c, 0, 48, 47
1, 17797, Control_c, 0, 64, 66
1, 17812, Control_c, 0, 64, 67
1, 17842, Control_c, 0, 64, 68
1, 17887, Control_c, 0, 64, 68
1, 17901, Control_c, 0, 64, 69
1, 17914, Note_on_c, 0, 72, 65
1, 17916, Control_c, 0, 64, 70
1, 17931, Control_c, 0, 64, 71
1, 17940, Note_off_c, 0, 72, 66
1, 17961, Control_c, 0, 64, 71
1, 17970, Note_on_c, 0, 74, 74
1, 17975, Control_c, 0, 64, 72
1, 17990, Control_c, 0, 64, 72
1, 18004, Note_on_c, 0, 72, 80
1, 18005, Control_c, 0, 64, 73
1, 18019, Note_off_c, 0, 74, 61
1, 18056, Control_c, 0, 64, 74
1, 18059, Note_off_c, 0, 72, 65
1, 18073, Note_on_c, 0, 70, 75
1, 18075, Note_on_c, 0, 55, 49
1, 18086, Control_c, 0, 64, 74
1, 18089, Note_on_c, 0, 62, 68
1, 18096, Note_off_c, 0, 70, 70
1, 18101, Control_c, 0, 64, 75
1, 18103, Note_off_c, 0, 55, 63
1, 18116, Note_off_c, 0, 62, 68
1, 18146, Control_c, 0, 64, 75
1, 18161, Control_c, 0, 64, 77
1, 18175, Control_c, 0, 64, 80
1, 18190, Control_c, 0, 64, 84
1, 18205, Control_c, 0, 64, 87
1, 18220, Control_c, 0, 64, 89
1, 18244, Note_on_c, 0, 58, 49
1, 18247, Note_on_c, 0, 69, 82
1, 18249, Note_on_c, 0, 63, 74
1, 18249, Control_c, 0, 64, 82
1, 18264, Control_c, 0, 64, 64
1, 18264, Control_c, 0, 67, 119
1, 18271, Note_off_c, 0, 58, 55
1, 18272, Note_off_c, 0, 63, 70
1, 18279, Control_c, 0, 64, 0
1, 18279, Control_c, 0, 67, 100
1, 18282, Note_off_c, 0, 69, 63
1, 18293, Control_c, 0, 67, 73
1, 18308, Control_c, 0, 67, 48
1, 18323, Control_c, 0, 67, 26
1, 18338, Control_c, 0, 64, 32
1, 18338, Control_c, 0, 67, 0
1, 18353, Control_c, 0, 64, 42
1, 18367, Control_c, 0, 64, 44
1, 18382, Control_c, 0, 64, 45
1, 18397, Control_c, 0, 64, 46
1, 18408, Note_on_c, 0, 66, 82
1, 18412, Control_c, 0, 64, 50
1, 18427, Control_c, 0, 64, 55
1, 18432, Note_off_c, 0, 66, 68
1, 18441, Control_c, 0, 64, 58
1, 18456, Control_c, 0, 64, 59
1, 18517, Note_on_c, 0, 58, 48
1, 18532, Control_c, 0, 64, 58
1, 18546, Note_off_c, 0, 58, 63
1, 18546, Control_c, 0, 64, 56
1, 18548, Note_on_c, 0, 60, 62
1, 18551, Note_on_c, 0, 63, 73
1, 18553, Note_on_c, 0, 53, 53
1, 18561, Control_c, 0, 64, 46
1, 18570, Note_on_c, 0, 67, 84
1, 18575, Note_off_c, 0, 63, 69
1, 18576, Control_c, 0, 64, 0
1, 18587, Note_off_c, 0, 60, 59
1, 18588, Note_off_c, 0, 67, 71
1, 18589, Note_off_c, 0, 53, 63
1, 18735, Note_on_c, 0, 70, 91
1, 18747, Note_on_c, 0, 46, 73
1, 18750, Note_off_c, 0, 70, 75
1, 18769, Control_c, 0, 64, 50
1, 18784, Control_c, 0, 64, 75
1, 18805, Control_c, 0, 64, 83
1, 18820, Control_c, 0, 64, 91
1, 18835, Control_c, 0, 64, 91
1, 18850, Control_c, 0, 64, 94
1, 18865, Control_c, 0, 64, 95
1, 18879, Control_c, 0, 64, 95
1, 18909, Control_c, 0, 64, 95
1, 18915, Note_on_c, 0, 69, 80
1, 18924, Control_c, 0, 64, 94
1, 18936, Note_on_c, 0, 53, 56
1, 18939, Control_c, 0, 64, 88
1, 18941, Note_off_c, 0, 69, 65
1, 18954, Control_c, 0, 64, 78
1, 18961, Note_off_c, 0, 53, 62
1, 18968, Note_on_c, 0, 70, 87
1, 18969, Control_c, 0, 64, 69
1, 18984, Control_c, 0, 64, 61
1, 18998, Control_c, 0, 64, 54
1, 19011, Note_on_c, 0, 69, 73
1, 19013, Control_c, 0, 64, 47
1, 19025, Note_off_c, 0, 70, 67
1, 19028, Control_c, 0, 64, 33
1, 19041, Note_off_c, 0, 69, 65
1, 19043, Control_c, 0, 64, 0
1, 19064, Note_on_c, 0, 65, 98
1, 19079, Note_on_c, 0, 58, 66
1, 19100, Note_off_c, 0, 58, 64
1, 19102, Control_c, 0, 64, 44
1, 19116, Control_c, 0, 64, 60
1, 19131, Control_c, 0, 64, 67
1, 19146, Control_c, 0, 64, 71
1, 19161, Control_c, 0, 64, 74
1, 19176, Control_c, 0, 64, 75
1, 19190, Control_c, 0, 64, 75
1, 19220, Control_c, 0, 64, 74
1, 19235, Control_c, 0, 64, 71
1, 19250, Control_c, 0, 64, 66
1, 19252, Note_on_c, 0, 53, 66
1, 19252, Note_on_c, 0, 57, 71
1, 19266, Control_c, 0, 64, 61
1, 19275, Note_off_c, 0, 57, 66
1, 19281, Note_off_c, 0, 53, 65
1, 19281, Control_c, 0, 64, 55
1, 19295, Control_c, 0, 64, 52
1, 19310, Control_c, 0, 64, 49
1, 19325, Control_c, 0, 64, 45
1, 19339, Control_c, 0, 64, 39
1, 19354, Control_c, 0, 64, 30
1, 19369, Control_c, 0, 64, 0
1, 19413, Control_c, 0, 64, 34
1, 19420, Note_on_c, 0, 58, 65
1, 19428, Control_c, 0, 64, 52
1, 19428, Control_c, 0, 67, 19
1, 19443, Control_c, 0, 64, 63
1, 19446, Note_off_c, 0, 58, 65
1, 19458, Control_c, 0, 64, 67
1, 19458, Control_c, 0, 67, 22
1, 19473, Control_c, 0, 64, 68
1, 19487, Control_c, 0, 64, 66
1, 19487, Control_c, 0, 67, 24
1, 19502, Control_c, 0, 64, 58
1, 19517, Control_c, 0, 64, 43
1, 19532, Control_c, 0, 64, 0
1, 19592, Note_off_c, 0, 46, 60
1, 19599, Control_c, 0, 64, 43
1, 19600, Note_on_c, 0, 53, 53
1, 19601, Note_on_c, 0, 57, 67
1, 19614, Control_c, 0, 64, 58
1, 19625, Note_off_c, 0, 53, 62
1, 19627, Note_off_c, 0, 57, 66
1, 19628, Control_c, 0, 64, 64
1, 19643, Control_c, 0, 64, 66
1, 19658, Control_c, 0, 64, 63
1, 19673, Control_c, 0, 64, 52
1, 19688, Control_c, 0, 64, 0
1, 19732, Control_c, 0, 64, 36
1, 19747, Control_c, 0, 64, 56
1, 19759, Note_on_c, 0, 46, 51
1, 19762, Control_c, 0, 64, 61
1, 19776, Control_c, 0, 64, 61
1, 19791, Control_c, 0, 64, 60
1, 19836, Control_c, 0, 64, 59
1, 19851, Control_c, 0, 64, 56
1, 19865, Control_c, 0, 64, 50
1, 19880, Control_c, 0, 64, 48
1, 19895, Control_c, 0, 64, 49
1, 19910, Control_c, 0, 64, 48
1, 19912, Note_off_c, 0, 65, 49
1, 19925, Control_c, 0, 64, 40
1, 19929, Note_on_c, 0, 62, 71
1, 19932, Note_on_c, 0, 51, 49
1, 19939, Control_c, 0, 64, 0
1, 19943, Note_on_c, 0, 55, 57
1, 19961, Note_off_c, 0, 51, 61
1, 19966, Note_off_c, 0, 55, 63
1, 19969, Control_c, 0, 67, 22
1, 19999, Control_c, 0, 64, 35
1, 20013, Control_c, 0, 64, 0
1, 20043, Control_c, 0, 67, 20
1, 20089, Control_c, 0, 64, 38
1, 20101, Note_on_c, 0, 58, 62
1, 20104, Control_c, 0, 64, 34
1, 20118, Control_c, 0, 64, 0
1, 20118, Control_c, 0, 67, 0
1, 20133, Note_off_c, 0, 58, 66
1, 20162, Control_c, 0, 64, 40
1, 20177, Control_c, 0, 64, 43
1, 20192, Control_c, 0, 64, 39
1, 20207, Control_c, 0, 64, 32
1, 20222, Control_c, 0, 64, 30
1, 20236, Control_c, 0, 64, 32
1, 20251, Control_c, 0, 64, 37
1, 20266, Control_c, 0, 64, 42
1, 20277, Note_on_c, 0, 55, 62
1, 20281, Control_c, 0, 64, 47
1, 20283, Note_on_c, 0, 51, 44
1, 20303, Control_c, 0, 64, 53
1, 20311, Note_off_c, 0, 55, 65
1, 20318, Control_c, 0, 64, 58
1, 20319, Note_off_c, 0, 51, 56
1, 20333, Control_c, 0, 64, 60
1, 20363, Control_c, 0, 64, 60
1, 20377, Control_c, 0, 64, 59
1, 20392, Control_c, 0, 64, 58
1, 20407, Control_c, 0, 64, 57
1, 20422, Control_c, 0, 64, 52
1, 20437, Control_c, 0, 64, 43
1, 20451, Control_c, 0, 64, 33
1, 20465, Note_on_c, 0, 58, 54
1, 20466, Control_c, 0, 64, 0
1, 20481, Control_c, 0, 64, 36
1, 20495, Control_c, 0, 64, 43
1, 20510, Control_c, 0, 64, 37
1, 20522, Note_off_c, 0, 58, 61
1, 20525, Control_c, 0, 64, 0
1, 20599, Control_c, 0, 67, 19
1, 20635, Note_on_c, 0, 51, 52
1, 20637, Note_on_c, 0, 55, 59
1, 20659, Control_c, 0, 67, 22
1, 20660, Note_off_c, 0, 51, 60
1, 20668, Note_off_c, 0, 55, 64
1, 20674, Note_off_c, 0, 46, 44
1, 20796, Note_on_c, 0, 58, 71
1, 20802, Note_on_c, 0, 34, 60
1, 20803, Note_off_c, 0, 62, 58
1, 20807, Control_c, 0, 64, 34
1, 20820, Note_off_c, 0, 58, 67
1, 20822, Control_c, 0, 64, 63
1, 20836, Control_c, 0, 64, 67
1, 20851, Control_c, 0, 64, 65
1, 20867, Control_c, 0, 64, 62
1, 20882, Control_c, 0, 64, 61
1, 20897, Control_c, 0, 64, 60
1, 20911, Control_c, 0, 64, 59
1, 20926, Control_c, 0, 64, 57
1, 20941, Control_c, 0, 64, 55
1, 20956, Control_c, 0, 64, 53
1, 20971, Control_c, 0, 64, 51
1, 20975, Note_on_c, 0, 57, 68
1, 20985, Control_c, 0, 64, 49
1, 20989, Note_on_c, 0, 41, 48
1, 21000, Control_c, 0, 64, 44
1, 21004, Note_off_c, 0, 57, 67
1, 21015, Control_c, 0, 64, 31
1, 21018, Note_off_c, 0, 41, 57
1, 21025, Note_on_c, 0, 58, 70
1, 21030, Control_c, 0, 64, 0
1, 21079, Note_on_c, 0, 57, 77
1, 21083, Note_off_c, 0, 58, 64
1, 21107, Note_off_c, 0, 57, 66
1, 21127, Note_on_c, 0, 46, 69
1, 21136, Note_on_c, 0, 53, 78
1, 21154, Note_off_c, 0, 46, 66
1, 21230, Control_c, 0, 67, 25
1, 21276, Note_off_c, 0, 53, 0
1, 21294, Note_on_c, 0, 53, 43
1, 21317, Note_on_c, 0, 41, 49
1, 21330, Note_on_c, 0, 45, 36
1, 21345, Note_off_c, 0, 41, 51
1, 21349, Control_c, 0, 67, 27
1, 21365, Note_off_c, 0, 45, 51
1, 21379, Control_c, 0, 67, 29
1, 21393, Control_c, 0, 67, 34
1, 21408, Control_c, 0, 67, 42
1, 21423, Control_c, 0, 67, 48
1, 21438, Control_c, 0, 67, 51
1, 21490, Note_on_c, 0, 46, 46
1, 21497, Control_c, 0, 67, 51
1, 21521, Note_off_c, 0, 46, 56
1, 21601, Control_c, 0, 67, 50
1, 21616, Control_c, 0, 67, 49
1, 21631, Control_c, 0, 67, 49
1, 21645, Control_c, 0, 67, 48
1, 21654, Note_on_c, 0, 41, 48
1, 21661, Note_on_c, 0, 45, 58
1, 21684, Note_off_c, 0, 41, 59
1, 21687, Note_off_c, 0, 34, 60
1, 21689, Note_off_c, 0, 45, 63
1, 21690, Control_c, 0, 67, 49
1, 21705, Control_c, 0, 64, 44
1, 21720, Control_c, 0, 64, 53
1, 21735, Control_c, 0, 64, 56
1, 21750, Control_c, 0, 67, 49
1, 21765, Control_c, 0, 64, 56
1, 21787, Control_c, 0, 64, 54
1, 21802, Control_c, 0, 64, 51
1, 21802, Control_c, 0, 67, 49
1, 21816, Control_c, 0, 64, 46
1, 21816, Control_c, 0, 67, 48
1, 21831, Control_c, 0, 64, 41
1, 21840, Note_on_c, 0, 34, 48
1, 21846, Control_c, 0, 64, 39
1, 21861, Control_c, 0, 64, 40
1, 21890, Control_c, 0, 64, 40
1, 21896, Note_off_c, 0, 53, 57
1, 21905, Control_c, 0, 64, 39
1, 21920, Control_c, 0, 64, 38
1, 21950, Control_c, 0, 64, 38
1, 21979, Control_c, 0, 64, 37
1, 21979, Control_c, 0, 67, 48
1, 21994, Control_c, 0, 64, 36
1, 21994, Control_c, 0, 67, 47
1, 22009, Control_c, 0, 64, 36
1, 22011, Note_on_c, 0, 50, 62
1, 22012, Note_on_c, 0, 39, 37
1, 22022, Control_c, 0, 64, 36
1, 22037, Control_c, 0, 64, 38
1, 22038, Note_on_c, 0, 43, 37
1, 22052, Control_c, 0, 64, 39
1, 22057, Note_off_c, 0, 39, 51
1, 22066, Control_c, 0, 64, 38
1, 22081, Note_off_c, 0, 43, 63
1, 22081, Control_c, 0, 64, 37
1, 22096, Control_c, 0, 64, 37
1, 22111, Control_c, 0, 64, 37
1, 22126, Control_c, 0, 64, 38
1, 22140, Note_off_c, 0, 50, 0
1, 22140, Control_c, 0, 64, 37
1, 22155, Control_c, 0, 64, 36
1, 22166, Note_on_c, 0, 50, 28
1, 22170, Control_c, 0, 64, 34
1, 22179, Note_on_c, 0, 46, 61
1, 22185, Control_c, 0, 64, 32
1, 22185, Control_c, 0, 67, 46
1, 22200, Control_c, 0, 64, 33
1, 22209, Note_off_c, 0, 46, 65
1, 22215, Control_c, 0, 64, 33
1, 22259, Control_c, 0, 67, 47
1, 22289, Control_c, 0, 64, 34
1, 22304, Control_c, 0, 64, 35
1, 22319, Control_c, 0, 64, 38
1, 22333, Control_c, 0, 64, 40
1, 22347, Note_on_c, 0, 39, 53
1, 22354, Note_on_c, 0, 43, 49
1, 22363, Control_c, 0, 64, 38
1, 22363, Control_c, 0, 67, 46
1, 22378, Control_c, 0, 64, 37
1, 22379, Note_off_c, 0, 39, 61
1, 22382, Note_off_c, 0, 43, 57
1, 22407, Control_c, 0, 64, 38
1, 22407, Control_c, 0, 67, 47
1, 22422, Control_c, 0, 64, 39
1, 22422, Control_c, 0, 67, 47
1, 22437, Control_c, 0, 64, 38
1, 22437, Control_c, 0, 67, 48
1, 22452, Control_c, 0, 64, 35
1, 22468, Control_c, 0, 64, 33
1, 22468, Control_c, 0, 67, 48
1, 22482, Control_c, 0, 64, 34
1, 22497, Control_c, 0, 64, 35
1, 22512, Control_c, 0, 64, 34
1, 22522, Note_on_c, 0, 46, 54
1, 22527, Control_c, 0, 64, 0
1, 22564, Note_off_c, 0, 46, 56
1, 22698, Note_on_c, 0, 39, 59
1, 22701, Note_on_c, 0, 43, 44
1, 22729, Note_off_c, 0, 34, 55
1, 22731, Note_off_c, 0, 39, 63
1, 22736, Note_off_c, 0, 43, 63
1, 22748, Note_off_c, 0, 50, 56
1, 22860, Control_c, 0, 67, 47
1, 22874, Note_on_c, 0, 34, 65
1, 22875, Control_c, 0, 64, 45
1, 22876, Note_on_c, 0, 46, 69
1, 22889, Control_c, 0, 64, 59
1, 22902, Note_off_c, 0, 46, 65
1, 22902, Note_off_c, 0, 34, 63
1, 22904, Control_c, 0, 64, 55
1, 22919, Control_c, 0, 64, 50
1, 22934, Control_c, 0, 64, 47
1, 22963, Control_c, 0, 64, 46
1, 22978, Control_c, 0, 64, 42
1, 22993, Control_c, 0, 64, 34
1, 23008, Control_c, 0, 64, 0
1, 23038, Control_c, 0, 67, 48
1, 23041, Note_on_c, 0, 50, 52
1, 23052, Note_on_c, 0, 53, 46
1, 23052, Control_c, 0, 67, 48
1, 23066, Note_off_c, 0, 50, 59
1, 23078, Note_off_c, 0, 53, 56
1, 23221, Note_on_c, 0, 46, 59
1, 23246, Note_off_c, 0, 46, 60
1, 23252, Note_on_c, 0, 34, 7
1, 23310, Note_off_c, 0, 34, 27
1, 23371, Note_on_c, 0, 41, 51
1, 23395, Note_on_c, 0, 50, 66
1, 23401, Note_on_c, 0, 53, 75
1, 23411, Note_off_c, 0, 41, 63
1, 23416, Note_off_c, 0, 50, 62
1, 23416, Control_c, 0, 64, 39
1, 23426, Note_off_c, 0, 53, 67
1, 23431, Control_c, 0, 64, 68
1, 23431, Control_c, 0, 67, 48
1, 23446, Control_c, 0, 64, 76
1, 23476, Control_c, 0, 64, 73
1, 23491, Control_c, 0, 64, 70
1, 23491, Control_c, 0, 67, 47
1, 23506, Control_c, 0, 64, 65
1, 23520, Control_c, 0, 64, 57
1, 23535, Control_c, 0, 64, 44
1, 23550, Note_on_c, 0, 46, 71
1, 23550, Control_c, 0, 64, 0
1, 23550, Control_c, 0, 67, 47
1, 23575, Note_off_c, 0, 46, 66
1, 23595, Control_c, 0, 67, 47
1, 23610, Control_c, 0, 67, 48
1, 23625, Control_c, 0, 67, 48
1, 23720, Note_on_c, 0, 56, 70
1, 23727, Note_on_c, 0, 49, 64
1, 23727, Note_on_c, 0, 52, 59
1, 23738, Note_on_c, 0, 44, 46
1, 23747, Note_off_c, 0, 56, 65
1, 23751, Note_off_c, 0, 49, 64
1, 23755, Note_off_c, 0, 52, 63
1, 23771, Note_off_c, 0, 44, 57
1, 23902, Note_on_c, 0, 46, 71
1, 23920, Note_on_c, 0, 34, 44
1, 23920, Control_c, 0, 64, 57
1, 23926, Note_off_c, 0, 46, 65
1, 23935, Control_c, 0, 64, 62
1, 23950, Control_c, 0, 64, 60
1, 23950, Control_c, 0, 67, 48
1, 23955, Note_off_c, 0, 34, 47
1, 23965, Control_c, 0, 64, 55
1, 23965, Control_c, 0, 67, 47
1, 23980, Control_c, 0, 64, 52
1, 23994, Control_c, 0, 64, 51
1, 24009, Control_c, 0, 64, 49
1, 24024, Control_c, 0, 64, 47
1, 24046, Control_c, 0, 64, 43
1, 24063, Control_c, 0, 64, 36
1, 24078, Control_c, 0, 64, 0
1, 24085, Note_on_c, 0, 53, 66
1, 24086, Note_on_c, 0, 50, 65
1, 24108, Note_off_c, 0, 50, 64
1, 24115, Note_off_c, 0, 53, 65
1, 24166, Control_c, 0, 67, 48
1, 24181, Control_c, 0, 67, 48
1, 24210, Control_c, 0, 64, 31
1, 24210, Control_c, 0, 67, 49
1, 24225, Control_c, 0, 64, 0
1, 24225, Control_c, 0, 67, 49
1, 24243, Note_on_c, 0, 46, 70
1, 24270, Note_off_c, 0, 46, 66
1, 24329, Control_c, 0, 67, 50
1, 24343, Control_c, 0, 67, 50
1, 24410, Note_on_c, 0, 41, 58
1, 24414, Note_on_c, 0, 47, 52
1, 24417, Note_on_c, 0, 51, 56
1, 24436, Note_off_c, 0, 41, 58
1, 24441, Note_off_c, 0, 47, 62
1, 24448, Note_off_c, 0, 51, 63
1, 24462, Control_c, 0, 67, 51
1, 24492, Control_c, 0, 67, 51
1, 24582, Note_on_c, 0, 44, 56
1, 24594, Note_on_c, 0, 50, 41
1, 24608, Note_off_c, 0, 44, 61
1, 24629, Note_off_c, 0, 50, 49
1, 24755, Note_on_c, 0, 49, 46
1, 24755, Note_on_c, 0, 39, 35
1, 24782, Note_on_c, 0, 45, 25
1, 24791, Note_off_c, 0, 49, 56
1, 24802, Note_off_c, 0, 39, 43
1, 24823, Note_off_c, 0, 45, 44
1, 24885, Control_c, 0, 67, 51
1, 24915, Control_c, 0, 67, 50
1, 24929, Note_on_c, 0, 46, 52
1, 24930, Note_on_c, 0, 34, 49
1, 24945, Control_c, 0, 64, 46
1, 24958, Note_off_c, 0, 46, 57
1, 24959, Note_off_c, 0, 34, 59
1, 24959, Control_c, 0, 64, 61
1, 24974, Control_c, 0, 64, 60
1, 24974, Control_c, 0, 67, 50
1, 24989, Control_c, 0, 64, 59
1, 25004, Control_c, 0, 64, 58
1, 25004, Control_c, 0, 67, 49
1, 25018, Control_c, 0, 64, 57
1, 25032, Control_c, 0, 64, 55
1, 25047, Control_c, 0, 64, 54
1, 25062, Control_c, 0, 64, 52
1, 25077, Control_c, 0, 64, 51
1, 25091, Control_c, 0, 64, 49
1, 25091, Control_c, 0, 67, 50
1, 25096, Note_on_c, 0, 50, 61
1, 25100, Note_on_c, 0, 53, 50
1, 25106, Control_c, 0, 64, 47
1, 25106, Control_c, 0, 67, 50
1, 25121, Note_off_c, 0, 50, 62
1, 25121, Control_c, 0, 64, 45
1, 25126, Note_off_c, 0, 53, 57
1, 25136, Control_c, 0, 64, 41
1, 25151, Control_c, 0, 64, 36
1, 25166, Control_c, 0, 64, 0
1, 25261, Note_on_c, 0, 46, 66
1, 25267, Note_on_c, 0, 34, 56
1, 25288, Note_off_c, 0, 46, 66
1, 25297, Note_off_c, 0, 34, 62
1, 25344, Control_c, 0, 64, 32
1, 25358, Control_c, 0, 64, 36
1, 25373, Control_c, 0, 64, 38
1, 25407, Note_on_c, 0, 41, 55
1, 25417, Control_c, 0, 64, 43
1, 25432, Control_c, 0, 64, 57
1, 25433, Note_on_c, 0, 50, 78
1, 25442, Note_on_c, 0, 53, 83
1, 25447, Control_c, 0, 64, 70
1, 25457, Note_off_c, 0, 41, 63
1, 25458, Note_off_c, 0, 50, 66
1, 25462, Control_c, 0, 64, 101
1, 25469, Note_off_c, 0, 53, 67
1, 25476, Control_c, 0, 64, 127
1, 25506, Control_c, 0, 67, 50
1, 25521, Control_c, 0, 64, 108
1, 25521, Control_c, 0, 67, 49
1, 25544, Control_c, 0, 64, 86
1, 25544, Control_c, 0, 67, 48
1, 25558, Control_c, 0, 64, 76
1, 25558, Control_c, 0, 67, 48
1, 25573, Control_c, 0, 64, 70
1, 25573, Control_c, 0, 67, 47
1, 25588, Control_c, 0, 64, 62
1, 25603, Control_c, 0, 64, 39
1, 25606, Note_on_c, 0, 46, 86
1, 25617, Control_c, 0, 64, 0
1, 25631, Note_off_c, 0, 46, 70
1, 25647, Control_c, 0, 67, 48
1, 25663, Control_c, 0, 67, 49
1, 25678, Control_c, 0, 67, 49
1, 25693, Control_c, 0, 67, 50
1, 25772, Note_on_c, 0, 56, 81
1, 25777, Note_on_c, 0, 49, 76
1, 25783, Note_on_c, 0, 44, 60
1, 25786, Note_on_c, 0, 52, 55
1, 25796, Note_off_c, 0, 56, 65
1, 25801, Note_off_c, 0, 49, 66
1, 25809, Note_off_c, 0, 44, 61
1, 25810, Note_off_c, 0, 52, 58
1, 25953, Note_on_c, 0, 46, 82
1, 25958, Note_on_c, 0, 34, 73
1, 25959, Control_c, 0, 64, 39
1, 25959, Control_c, 0, 67, 50
1, 25974, Control_c, 0, 64, 62
1, 25974, Control_c, 0, 67, 49
1, 25975, Note_off_c, 0, 46, 68
1, 25989, Control_c, 0, 67, 48
1, 25990, Note_off_c, 0, 34, 64
1, 26004, Control_c, 0, 64, 57
1, 26018, Control_c, 0, 64, 49
1, 26018, Control_c, 0, 67, 47
1, 26033, Control_c, 0, 64, 47
1, 26033, Control_c, 0, 67, 47
1, 26048, Control_c, 0, 64, 49
1, 26063, Control_c, 0, 64, 50
1, 26078, Control_c, 0, 64, 49
1, 26093, Control_c, 0, 64, 48
1, 26107, Control_c, 0, 64, 48
1, 26116, Note_on_c, 0, 53, 78
1, 26117, Note_on_c, 0, 50, 76
1, 26140, Note_off_c, 0, 53, 68
1, 26143, Note_off_c, 0, 50, 66
1, 26152, Control_c, 0, 64, 46
1, 26167, Control_c, 0, 64, 38
1, 26167, Control_c, 0, 67, 47
1, 26181, Control_c, 0, 64, 0
1, 26181, Control_c, 0, 67, 48
1, 26196, Control_c, 0, 67, 48
1, 26211, Control_c, 0, 67, 49
1, 26289, Note_on_c, 0, 46, 83
1, 26311, Note_off_c, 0, 46, 67
1, 26337, Control_c, 0, 67, 49
1, 26367, Control_c, 0, 67, 50
1, 26440, Control_c, 0, 67, 49
1, 26453, Note_on_c, 0, 47, 68
1, 26454, Note_on_c, 0, 51, 70
1, 26456, Note_on_c, 0, 41, 74
1, 26456, Control_c, 0, 67, 48
1, 26480, Note_off_c, 0, 47, 66
1, 26481, Note_off_c, 0, 51, 65
1, 26481, Note_off_c, 0, 41, 65
1, 26489, Note_on_c, 0, 40, 35
1, 26516, Control_c, 0, 67, 49
1, 26531, Control_c, 0, 67, 50
1, 26531, Note_off_c, 0, 40, 35
1, 26546, Control_c, 0, 67, 51
1, 26561, Control_c, 0, 67, 52
1, 26576, Control_c, 0, 67, 52
1, 26625, Note_on_c, 0, 50, 63
1, 26630, Note_on_c, 0, 44, 68
1, 26641, Note_on_c, 0, 46, 44
1, 26654, Note_off_c, 0, 50, 64
1, 26656, Note_off_c, 0, 44, 66
1, 26673, Note_off_c, 0, 46, 52
1, 26792, Note_on_c, 0, 49, 54
1, 26798, Control_c, 0, 67, 52
1, 26799, Note_on_c, 0, 45, 51
1, 26799, Note_on_c, 0, 39, 53
1, 26822, Note_off_c, 0, 49, 64
1, 26829, Note_off_c, 0, 39, 52
1, 26831, Note_off_c, 0, 45, 65
1, 26946, Control_c, 0, 67, 51
1, 26960, Control_c, 0, 67, 50
1, 26968, Note_on_c, 0, 34, 54
1, 26969, Note_on_c, 0, 46, 55
1, 26975, Control_c, 0, 64, 50
1, 26975, Control_c, 0, 67, 49
1, 26990, Control_c, 0, 64, 61
1, 26996, Note_off_c, 0, 34, 59
1, 26996, Note_off_c, 0, 46, 58
1, 27005, Control_c, 0, 64, 60
1, 27020, Control_c, 0, 64, 59
1, 27042, Control_c, 0, 64, 58
1, 27056, Control_c, 0, 64, 57
1, 27071, Control_c, 0, 64, 55
1, 27086, Control_c, 0, 64, 54
1, 27101, Control_c, 0, 64, 52
1, 27130, Control_c, 0, 64, 52
1, 27145, Control_c, 0, 64, 50
1, 27145, Control_c, 0, 67, 50
1, 27146, Note_on_c, 0, 53, 47
1, 27149, Note_on_c, 0, 50, 45
1, 27160, Control_c, 0, 64, 47
1, 27160, Control_c, 0, 67, 50
1, 27172, Note_off_c, 0, 53, 58
1, 27175, Control_c, 0, 64, 44
1, 27179, Note_off_c, 0, 50, 48
1, 27190, Control_c, 0, 64, 41
1, 27205, Control_c, 0, 64, 39
1, 27220, Control_c, 0, 64, 36
1, 27235, Control_c, 0, 64, 33
1, 27250, Control_c, 0, 64, 0
1, 27310, Note_on_c, 0, 46, 61
1, 27325, Note_on_c, 0, 34, 43
1, 27336, Note_off_c, 0, 46, 61
1, 27357, Note_off_c, 0, 34, 48
1, 27455, Note_on_c, 0, 41, 47
1, 27472, Control_c, 0, 64, 52
1, 27482, Note_on_c, 0, 50, 77
1, 27487, Control_c, 0, 64, 71
1, 27488, Note_on_c, 0, 53, 81
1, 27502, Control_c, 0, 64, 107
1, 27506, Note_off_c, 0, 50, 68
1, 27509, Note_off_c, 0, 41, 63
1, 27516, Note_off_c, 0, 53, 67
1, 27517, Control_c, 0, 64, 127
1, 27546, Control_c, 0, 64, 89
1, 27546, Control_c, 0, 67, 49
1, 27561, Control_c, 0, 64, 71
1, 27561, Control_c, 0, 67, 48
1, 27576, Control_c, 0, 64, 64
1, 27576, Control_c, 0, 67, 47
1, 27591, Control_c, 0, 64, 62
1, 27591, Control_c, 0, 67, 46
1, 27605, Control_c, 0, 64, 62
1, 27620, Control_c, 0, 64, 58
1, 27635, Control_c, 0, 64, 43
1, 27647, Note_on_c, 0, 46, 79
1, 27650, Control_c, 0, 64, 0
1, 27672, Note_off_c, 0, 46, 66
1, 27694, Control_c, 0, 67, 47
1, 27724, Control_c, 0, 67, 48
1, 27768, Control_c, 0, 67, 48
1, 27791, Control_c, 0, 67, 49
1, 27805, Control_c, 0, 67, 49
1, 27835, Control_c, 0, 67, 50
1, 27845, Note_on_c, 0, 53, 55
1, 27850, Note_on_c, 0, 50, 52
1, 27869, Note_off_c, 0, 53, 60
1, 27876, Note_off_c, 0, 50, 56
1, 27983, Control_c, 0, 67, 49
1, 27998, Control_c, 0, 67, 49
1, 28013, Control_c, 0, 67, 48
1, 28015, Note_on_c, 0, 34, 58
1, 28025, Note_on_c, 0, 46, 36
1, 28028, Control_c, 0, 64, 45
1, 28043, Control_c, 0, 64, 47
1, 28048, Note_off_c, 0, 34, 63
1, 28058, Control_c, 0, 64, 39
1, 28062, Note_off_c, 0, 46, 55
1, 28073, Control_c, 0, 64, 35
1, 28088, Control_c, 0, 64, 37
1, 28102, Control_c, 0, 64, 39
1, 28132, Control_c, 0, 64, 37
1, 28147, Control_c, 0, 64, 35
1, 28162, Control_c, 0, 64, 33
1, 28177, Control_c, 0, 64, 33
1, 28196, Note_on_c, 0, 53, 55
1, 28206, Control_c, 0, 64, 0
1, 28209, Note_on_c, 0, 50, 42
1, 28224, Note_off_c, 0, 53, 65
1, 28241, Note_off_c, 0, 50, 46
1, 28266, Control_c, 0, 67, 49
1, 28367, Note_on_c, 0, 46, 61
1, 28392, Note_off_c, 0, 46, 61
1, 28473, Control_c, 0, 67, 49
1, 28507, Note_on_c, 0, 41, 47
1, 28525, Control_c, 0, 64, 38
1, 28540, Control_c, 0, 64, 63
1, 28542, Note_on_c, 0, 50, 74
1, 28549, Note_on_c, 0, 53, 81
1, 28554, Control_c, 0, 64, 83
1, 28564, Note_off_c, 0, 41, 63
1, 28567, Note_off_c, 0, 50, 67
1, 28569, Control_c, 0, 64, 99
1, 28579, Note_off_c, 0, 53, 65
1, 28584, Control_c, 0, 64, 97
1, 28584, Control_c, 0, 67, 49
1, 28599, Control_c, 0, 64, 87
1, 28599, Control_c, 0, 67, 48
1, 28614, Control_c, 0, 64, 83
1, 28614, Control_c, 0, 67, 47
1, 28628, Control_c, 0, 64, 81
1, 28628, Control_c, 0, 67, 46
1, 28643, Control_c, 0, 67, 46
1, 28658, Control_c, 0, 64, 79
1, 28658, Control_c, 0, 67, 45
1, 28673, Control_c, 0, 64, 73
1, 28688, Control_c, 0, 64, 66
1, 28699, Note_on_c, 0, 46, 83
1, 28702, Control_c, 0, 64, 60
1, 28717, Control_c, 0, 64, 56
1, 28725, Note_off_c, 0, 46, 70
1, 28732, Control_c, 0, 64, 53
1, 28747, Control_c, 0, 64, 47
1, 28762, Control_c, 0, 64, 39
1, 28777, Control_c, 0, 64, 0
1, 28792, Control_c, 0, 67, 46
1, 28807, Control_c, 0, 67, 47
1, 28822, Control_c, 0, 67, 48
1, 28836, Control_c, 0, 67, 49
1, 28852, Control_c, 0, 67, 50
1, 28867, Control_c, 0, 67, 51
1, 28870, Note_on_c, 0, 53, 69
1, 28874, Note_on_c, 0, 50, 65
1, 28882, Control_c, 0, 67, 51
1, 28895, Note_off_c, 0, 53, 66
1, 28904, Note_off_c, 0, 50, 64
1, 29000, Control_c, 0, 67, 51
1, 29015, Control_c, 0, 67, 50
1, 29030, Control_c, 0, 67, 49
1, 29041, Note_on_c, 0, 34, 74
1, 29045, Control_c, 0, 64, 50
1, 29045, Control_c, 0, 67, 48
1, 29059, Control_c, 0, 64, 55
1, 29059, Control_c, 0, 67, 47
1, 29063, Note_off_c, 0, 34, 65
1, 29074, Control_c, 0, 64, 46
1, 29074, Control_c, 0, 67, 47
1, 29089, Control_c, 0, 64, 33
1, 29104, Control_c, 0, 64, 0
1, 29148, Control_c, 0, 67, 47
1, 29178, Control_c, 0, 67, 48
1, 29193, Control_c, 0, 67, 49
1, 29208, Control_c, 0, 67, 50
1, 29209, Note_on_c, 0, 46, 65
1, 29223, Control_c, 0, 67, 50
1, 29236, Note_off_c, 0, 46, 65
1, 29252, Control_c, 0, 67, 51
1, 29348, Control_c, 0, 67, 50
1, 29378, Control_c, 0, 67, 50
1, 29384, Note_on_c, 0, 34, 56
1, 29393, Control_c, 0, 67, 49
1, 29408, Control_c, 0, 67, 49
1, 29412, Note_off_c, 0, 34, 59
1, 29423, Control_c, 0, 67, 48
1, 29558, Note_on_c, 0, 46, 50
1, 29584, Control_c, 0, 67, 49
1, 29587, Note_off_c, 0, 46, 55
1, 29599, Control_c, 0, 67, 50
1, 29614, Control_c, 0, 67, 51
1, 29629, Control_c, 0, 67, 53
1, 29644, Control_c, 0, 67, 55
1, 29660, Control_c, 0, 67, 66
1, 29674, Control_c, 0, 67, 83
1, 29689, Control_c, 0, 67, 103
1, 29704, Control_c, 0, 67, 123
1, 29719, Control_c, 0, 67, 127
1, 29725, Note_on_c, 0, 34, 47
1, 29754, Note_off_c, 0, 34, 54
1, 29895, Note_on_c, 0, 46, 52
1, 29923, Note_off_c, 0, 46, 57
1, 30067, Note_on_c, 0, 34, 47
1, 30095, Note_off_c, 0, 34, 53
1, 30244, Note_on_c, 0, 46, 49
1, 30273, Note_off_c, 0, 46, 56
1, 30414, Note_on_c, 0, 34, 49
1, 30443, Note_off_c, 0, 34, 56
1, 30593, Note_on_c, 0, 46, 47
1, 30623, Note_off_c, 0, 46, 54
1, 30759, Note_on_c, 0, 34, 42
1, 30800, Note_off_c, 0, 34, 47
1, 30936, Note_on_c, 0, 46, 58
1, 30961, Note_off_c, 0, 46, 62
1, 31083, Note_on_c, 0, 22, 106
1, 31083, Control_c, 0, 67, 117
1, 31098, Control_c, 0, 67, 75
1, 31113, Control_c, 0, 64, 110
1, 31113, Control_c, 0, 67, 24
1, 31125, Note_off_c, 0, 22, 64
1, 31128, Control_c, 0, 64, 127
1, 31128, Control_c, 0, 67, 0
1, 31128, Note_on_c, 0, 21, 35
1, 31172, Note_off_c, 0, 21, 43
1, 31264, Note_on_c, 0, 41, 92
1, 31298, Note_on_c, 0, 46, 89
1, 31314, Note_off_c, 0, 41, 62
1, 31320, Note_off_c, 0, 46, 71
1, 31345, Note_on_c, 0, 53, 67
1, 31373, Note_on_c, 0, 58, 88
1, 31396, Note_off_c, 0, 53, 60
1, 31412, Note_off_c, 0, 58, 67
1, 31424, Note_on_c, 0, 59, 68
1, 31428, Note_on_c, 0, 64, 90
1, 31436, Poly_aftertouch_c, 0, 55, 0
1, 31441, Note_on_c, 0, 58, 83
1, 31441, Note_off_c, 0, 59, 65
1, 31461, Note_off_c, 0, 64, 69
1, 31462, Poly_aftertouch_c, 0, 55, 0
1, 31465, Note_off_c, 0, 58, 70
1, 31496, Note_on_c, 0, 64, 65
1, 31496, Note_on_c, 0, 65, 76
1, 31499, Note_on_c, 0, 66, 104
1, 31526, Note_off_c, 0, 64, 66
1, 31530, Note_on_c, 0, 70, 87
1, 31537, Note_off_c, 0, 66, 67
1, 31548, Note_off_c, 0, 65, 66
1, 31560, Note_off_c, 0, 70, 69
1, 31625, Control_c, 0, 64, 73
1, 31640, Control_c, 0, 64, 0
1, 31640, Poly_aftertouch_c, 0, 71, 0
1, 31661, Note_on_c, 0, 70, 107
1, 31661, Note_on_c, 0, 82, 111
1, 31674, Note_on_c, 0, 47, 91
1, 31688, Note_on_c, 0, 74, 55
1, 31691, Note_off_c, 0, 82, 71
1, 31695, Note_off_c, 0, 47, 72
1, 31695, Note_off_c, 0, 70, 69
1, 31699, Control_c, 0, 64, 36
1, 31705, Note_on_c, 0, 48, 48
1, 31705, Note_off_c, 0, 48, 127
1, 31709, Note_off_c, 0, 74, 62
1, 31714, Control_c, 0, 64, 93
1, 31728, Control_c, 0, 64, 127
1, 31873, Note_on_c, 0, 62, 89
1, 31876, Note_on_c, 0, 69, 103
1, 31882, Note_on_c, 0, 58, 73
1, 31882, Note_on_c, 0, 74, 84
1, 31885, Note_on_c, 0, 53, 68
1, 31894, Note_off_c, 0, 62, 69
1, 31904, Note_off_c, 0, 58, 67
1, 31906, Note_off_c, 0, 53, 65
1, 31911, Note_on_c, 0, 73, 14
1, 31913, Note_off_c, 0, 69, 63
1, 31923, Note_off_c, 0, 74, 63
1, 31926, Note_on_c, 0, 82, 95
1, 31954, Note_on_c, 0, 69, 77
1, 31965, Note_off_c, 0, 73, 28
1, 31973, Note_off_c, 0, 82, 67
1, 31986, Note_on_c, 0, 71, 43
1, 31986, Note_off_c, 0, 69, 64
1, 32016, Note_off_c, 0, 71, 58
1, 32045, Note_on_c, 0, 46, 98
1, 32052, Note_on_c, 0, 78, 94
1, 32052, Note_on_c, 0, 66, 109
1, 32055, Note_on_c, 0, 71, 90
1, 32055, Control_c, 0, 64, 68
1, 32062, Note_off_c, 0, 46, 74
1, 32066, Note_on_c, 0, 75, 59
1, 32070, Control_c, 0, 64, 0
1, 32071, Note_on_c, 0, 76, 70
1, 32114, Control_c, 0, 64, 48
1, 32129, Control_c, 0, 64, 74
1, 32144, Control_c, 0, 64, 127
1, 32209, Note_on_c, 0, 63, 97
1, 32213, Note_on_c, 0, 59, 83
1, 32216, Note_on_c, 0, 54, 90
1, 32238, Note_off_c, 0, 59, 68
1, 32243, Note_off_c, 0, 63, 67
1, 32250, Note_off_c, 0, 54, 68
1, 32250, Note_off_c, 0, 75, 59
1, 32252, Note_off_c, 0, 76, 33
1, 32308, Note_on_c, 0, 75, 50
1, 32374, Control_c, 0, 64, 82
1, 32389, Control_c, 0, 64, 63
1, 32398, Note_on_c, 0, 46, 103
1, 32403, Control_c, 0, 64, 45
1, 32418, Control_c, 0, 64, 43
1, 32422, Note_off_c, 0, 46, 69
1, 32433, Control_c, 0, 64, 54
1, 32448, Control_c, 0, 64, 69
1, 32463, Control_c, 0, 64, 83
1, 32477, Control_c, 0, 64, 88
1, 32492, Control_c, 0, 64, 80
1, 32507, Control_c, 0, 64, 68
1, 32521, Control_c, 0, 64, 62
1, 32536, Control_c, 0, 64, 64
1, 32551, Control_c, 0, 64, 69
1, 32566, Control_c, 0, 64, 78
1, 32579, Note_on_c, 0, 63, 85
1, 32580, Note_on_c, 0, 59, 77
1, 32581, Control_c, 0, 64, 91
1, 32582, Note_on_c, 0, 54, 80
1, 32595, Control_c, 0, 64, 127
1, 32599, Note_off_c, 0, 63, 71
1, 32600, Note_off_c, 0, 59, 68
1, 32605, Note_off_c, 0, 54, 67
1, 32714, Control_c, 0, 64, 80
1, 32729, Control_c, 0, 64, 59
1, 32734, Note_off_c, 0, 66, 58
1, 32737, Note_off_c, 0, 71, 61
1, 32743, Control_c, 0, 64, 46
1, 32752, Note_on_c, 0, 46, 95
1, 32758, Control_c, 0, 64, 58
1, 32773, Note_off_c, 0, 46, 70
1, 32773, Control_c, 0, 64, 71
1, 32788, Control_c, 0, 64, 105
1, 32803, Control_c, 0, 64, 127
1, 32812, Note_off_c, 0, 75, 38
1, 32886, Note_off_c, 0, 78, 60
1, 32907, Control_c, 0, 64, 78
1, 32922, Control_c, 0, 64, 60
1, 32930, Note_on_c, 0, 75, 84
1, 32931, Note_on_c, 0, 79, 97
1, 32931, Note_on_c, 0, 63, 77
1, 32933, Note_on_c, 0, 67, 86
1, 32935, Note_on_c, 0, 55, 71
1, 32936, Note_on_c, 0, 60, 71
1, 32937, Control_c, 0, 64, 47
1, 32938, Note_on_c, 0, 72, 80
1, 32951, Note_off_c, 0, 63, 72
1, 32952, Control_c, 0, 64, 56
1, 32961, Note_off_c, 0, 55, 68
1, 32963, Note_off_c, 0, 60, 69
1, 32967, Control_c, 0, 64, 68
1, 32979, Note_off_c, 0, 72, 62
1, 32982, Control_c, 0, 64, 90
1, 32997, Note_off_c, 0, 67, 64
1, 32997, Control_c, 0, 64, 127
1, 32999, Note_off_c, 0, 75, 68
1, 33005, Note_off_c, 0, 79, 68
1, 33098, Note_on_c, 0, 46, 95
1, 33120, Note_off_c, 0, 46, 72
1, 33197, Control_c, 0, 64, 107
1, 33211, Control_c, 0, 64, 68
1, 33226, Control_c, 0, 64, 0
1, 33258, Note_on_c, 0, 70, 106
1, 33258, Note_on_c, 0, 82, 103
1, 33260, Note_on_c, 0, 62, 93
1, 33262, Note_on_c, 0, 53, 86
1, 33262, Note_on_c, 0, 74, 95
1, 33264, Note_on_c, 0, 58, 85
1, 33270, Control_c, 0, 64, 39
1, 33280, Note_off_c, 0, 62, 71
1, 33283, Note_off_c, 0, 58, 73
1, 33285, Note_off_c, 0, 53, 70
1, 33285, Control_c, 0, 64, 70
1, 33291, Note_off_c, 0, 70, 71
1, 33293, Note_off_c, 0, 74, 68
1, 33298, Note_off_c, 0, 82, 69
1, 33299, Control_c, 0, 64, 127
1, 33450, Note_on_c, 0, 69, 90
1, 33453, Note_on_c, 0, 74, 82
1, 33464, Note_on_c, 0, 46, 86
1, 33483, Note_off_c, 0, 46, 68
1, 33489, Note_off_c, 0, 69, 65
1, 33497, Note_on_c, 0, 82, 99
1, 33499, Note_off_c, 0, 74, 60
1, 33534, Note_off_c, 0, 82, 68
1, 33536, Note_on_c, 0, 71, 70
1, 33552, Note_off_c, 0, 71, 68
1, 33618, Note_on_c, 0, 75, 93
1, 33619, Note_on_c, 0, 78, 96
1, 33620, Note_on_c, 0, 71, 92
1, 33622, Note_on_c, 0, 54, 92
1, 33623, Note_on_c, 0, 63, 94
1, 33628, Note_on_c, 0, 59, 88
1, 33629, Note_on_c, 0, 66, 86
1, 33641, Note_on_c, 0, 72, 48
1, 33644, Note_on_c, 0, 68, 73
1, 33647, Note_off_c, 0, 59, 73
1, 33651, Note_off_c, 0, 63, 64
1, 33654, Note_off_c, 0, 54, 66
1, 33663, Note_off_c, 0, 68, 41
1, 33668, Note_on_c, 0, 67, 40
1, 33668, Note_off_c, 0, 72, 36
1, 33697, Note_off_c, 0, 67, 59
1, 33808, Note_on_c, 0, 46, 88
1, 33815, Note_on_c, 0, 45, 81
1, 33839, Note_off_c, 0, 45, 65
1, 33844, Note_off_c, 0, 46, 64
1, 33900, Control_c, 0, 64, 94
1, 33915, Control_c, 0, 64, 68
1, 33930, Control_c, 0, 64, 32
1, 33945, Control_c, 0, 64, 0
1, 33968, Note_on_c, 0, 63, 92
1, 33974, Note_on_c, 0, 54, 84
1, 33983, Note_on_c, 0, 59, 66
1, 33983, Note_on_c, 0, 60, 70
1, 33989, Control_c, 0, 64, 35
1, 33996, Note_off_c, 0, 54, 68
1, 33998, Note_off_c, 0, 63, 66
1, 34002, Note_off_c, 0, 59, 65
1, 34004, Note_off_c, 0, 60, 67
1, 34004, Control_c, 0, 64, 63
1, 34019, Control_c, 0, 64, 78
1, 34034, Control_c, 0, 64, 127
1, 34108, Control_c, 0, 64, 97
1, 34123, Control_c, 0, 64, 72
1, 34138, Control_c, 0, 64, 55
1, 34145, Note_on_c, 0, 46, 98
1, 34153, Control_c, 0, 64, 53
1, 34167, Control_c, 0, 64, 62
1, 34171, Note_off_c, 0, 46, 68
1, 34182, Control_c, 0, 64, 75
1, 34197, Control_c, 0, 64, 112
1, 34212, Control_c, 0, 64, 127
1, 34266, Note_off_c, 0, 71, 58
1, 34271, Control_c, 0, 64, 104
1, 34286, Control_c, 0, 64, 68
1, 34300, Control_c, 0, 64, 44
1, 34317, Note_off_c, 0, 66, 55
1, 34317, Note_on_c, 0, 63, 94
1, 34320, Note_on_c, 0, 59, 83
1, 34322, Note_on_c, 0, 54, 83
1, 34323, Note_off_c, 0, 75, 44
1, 34330, Control_c, 0, 64, 65
1, 34340, Note_off_c, 0, 59, 72
1, 34343, Note_off_c, 0, 63, 68
1, 34345, Note_off_c, 0, 54, 71
1, 34345, Control_c, 0, 64, 86
1, 34360, Control_c, 0, 64, 127
1, 34464, Control_c, 0, 64, 70
1, 34470, Note_off_c, 0, 78, 60
1, 34479, Control_c, 0, 64, 0
1, 34492, Note_on_c, 0, 46, 85
1, 34492, Note_on_c, 0, 79, 96
1, 34495, Note_on_c, 0, 67, 88
1, 34496, Note_on_c, 0, 75, 79
1, 34498, Note_on_c, 0, 72, 82
1, 34520, Note_off_c, 0, 46, 71
1, 34531, Control_c, 0, 64, 45
1, 34546, Control_c, 0, 64, 74
1, 34561, Control_c, 0, 64, 98
1, 34576, Control_c, 0, 64, 90
1, 34591, Control_c, 0, 64, 62
1, 34605, Control_c, 0, 64, 0
1, 34635, Control_c, 0, 64, 31
1, 34650, Control_c, 0, 64, 66
1, 34665, Control_c, 0, 64, 90
1, 34669, Note_on_c, 0, 63, 80
1, 34675, Note_on_c, 0, 60, 68
1, 34679, Note_on_c, 0, 55, 74
1, 34679, Control_c, 0, 64, 127
1, 34689, Note_off_c, 0, 79, 63
1, 34690, Note_off_c, 0, 63, 71
1, 34699, Note_off_c, 0, 60, 68
1, 34706, Note_off_c, 0, 55, 66
1, 34711, Note_off_c, 0, 67, 63
1, 34711, Note_off_c, 0, 72, 64
1, 34714, Note_off_c, 0, 75, 63
1, 34753, Control_c, 0, 67, 27
1, 34768, Control_c, 0, 67, 41
1, 34783, Control_c, 0, 64, 95
1, 34783, Control_c, 0, 67, 58
1, 34797, Control_c, 0, 64, 77
1, 34797, Control_c, 0, 67, 74
1, 34812, Control_c, 0, 64, 65
1, 34812, Control_c, 0, 67, 87
1, 34827, Control_c, 0, 64, 46
1, 34827, Control_c, 0, 67, 105
1, 34842, Control_c, 0, 64, 0
1, 34842, Control_c, 0, 67, 127
1, 34864, Note_on_c, 0, 46, 76
1, 34886, Note_off_c, 0, 46, 67
1, 35059, Note_on_c, 0, 58, 59
1, 35061, Note_on_c, 0, 62, 53
1, 35083, Note_off_c, 0, 58, 64
1, 35085, Note_off_c, 0, 62, 61
1, 35110, Note_on_c, 0, 65, 66
1, 35136, Note_on_c, 0, 62, 64
1, 35144, Note_on_c, 0, 58, 71
1, 35151, Poly_aftertouch_c, 0, 53, 127
1, 35153, Control_c, 0, 64, 43
1, 35161, Poly_aftertouch_c, 0, 53, 0
1, 35165, Note_off_c, 0, 62, 64
1, 35168, Note_off_c, 0, 65, 62
1, 35168, Control_c, 0, 64, 0
1, 35169, Note_off_c, 0, 58, 68
1, 35203, Note_on_c, 0, 54, 78
1, 35226, Note_off_c, 0, 54, 68
1, 35413, Note_on_c, 0, 65, 67
1, 35414, Note_on_c, 0, 62, 55
1, 35415, Note_on_c, 0, 58, 59
1, 35417, Note_on_c, 0, 53, 59
1, 35435, Note_off_c, 0, 62, 61
1, 35437, Note_off_c, 0, 58, 65
1, 35438, Note_off_c, 0, 53, 60
1, 35440, Note_off_c, 0, 65, 68
1, 35578, Note_on_c, 0, 46, 58
1, 35605, Note_off_c, 0, 46, 63
1, 35754, Note_on_c, 0, 65, 64
1, 35755, Note_on_c, 0, 62, 56
1, 35777, Note_off_c, 0, 62, 60
1, 35781, Note_off_c, 0, 65, 66
1, 35787, Note_on_c, 0, 58, 7
1, 35787, Note_off_c, 0, 58, 127
1, 35915, Note_on_c, 0, 41, 58
1, 35945, Note_off_c, 0, 41, 63
1, 35946, Control_c, 0, 64, 35
1, 35961, Control_c, 0, 64, 36
1, 35976, Control_c, 0, 64, 34
1, 35991, Control_c, 0, 64, 32
1, 36006, Control_c, 0, 64, 32
1, 36043, Control_c, 0, 64, 0
1, 36081, Note_on_c, 0, 61, 46
1, 36097, Note_on_c, 0, 66, 62
1, 36112, Note_on_c, 0, 51, 49
1, 36116, Note_off_c, 0, 66, 64
1, 36118, Note_off_c, 0, 61, 62
1, 36145, Note_off_c, 0, 51, 63
1, 36251, Note_on_c, 0, 62, 45
1, 36276, Note_on_c, 0, 57, 66
1, 36277, Note_on_c, 0, 67, 75
1, 36283, Note_on_c, 0, 63, 57
1, 36287, Note_on_c, 0, 74, 89
1, 36294, Note_off_c, 0, 62, 65
1, 36295, Note_off_c, 0, 57, 63
1, 36297, Note_off_c, 0, 67, 71
1, 36305, Note_off_c, 0, 63, 62
1, 36309, Note_off_c, 0, 74, 68
1, 36324, Control_c, 0, 64, 80
1, 36339, Control_c, 0, 64, 127
1, 36458, Control_c, 0, 64, 75
1, 36461, Note_on_c, 0, 46, 84
1, 36473, Control_c, 0, 64, 44
1, 36484, Note_off_c, 0, 46, 67
1, 36487, Control_c, 0, 64, 0
1, 36647, Note_on_c, 0, 58, 66
1, 36654, Note_on_c, 0, 62, 57
1, 36676, Note_off_c, 0, 58, 67
1, 36676, Note_off_c, 0, 62, 59
1, 36701, Note_on_c, 0, 65, 71
1, 36730, Note_on_c, 0, 62, 67
1, 36733, Note_on_c, 0, 53, 28
1, 36735, Note_on_c, 0, 58, 78
1, 36758, Note_off_c, 0, 62, 67
1, 36759, Note_off_c, 0, 58, 69
1, 36771, Note_off_c, 0, 53, 49
1, 36779, Note_off_c, 0, 65, 61
1, 36791, Control_c, 0, 64, 52
1, 36801, Note_on_c, 0, 54, 82
1, 36806, Control_c, 0, 64, 62
1, 36821, Control_c, 0, 64, 55
1, 36824, Note_off_c, 0, 54, 71
1, 36836, Control_c, 0, 64, 0
1, 37000, Note_on_c, 0, 62, 52
1, 37000, Note_on_c, 0, 65, 64
1, 37002, Note_on_c, 0, 53, 57
1, 37010, Note_on_c, 0, 58, 44
1, 37021, Note_off_c, 0, 65, 65
1, 37024, Note_off_c, 0, 62, 56
1, 37026, Note_off_c, 0, 53, 59
1, 37039, Note_off_c, 0, 58, 57
1, 37164, Note_on_c, 0, 46, 65
1, 37190, Note_off_c, 0, 46, 65
1, 37335, Note_on_c, 0, 62, 61
1, 37341, Note_on_c, 0, 65, 58
1, 37343, Note_on_c, 0, 58, 56
1, 37346, Note_on_c, 0, 53, 42
1, 37359, Note_off_c, 0, 62, 64
1, 37364, Note_off_c, 0, 65, 63
1, 37365, Note_off_c, 0, 58, 61
1, 37375, Note_off_c, 0, 53, 56
1, 37525, Control_c, 0, 64, 50
1, 37526, Note_on_c, 0, 41, 50
1, 37540, Control_c, 0, 64, 66
1, 37554, Note_off_c, 0, 41, 60
1, 37555, Control_c, 0, 64, 70
1, 37569, Control_c, 0, 64, 69
1, 37584, Control_c, 0, 64, 63
1, 37599, Control_c, 0, 64, 57
1, 37614, Control_c, 0, 64, 50
1, 37629, Control_c, 0, 64, 45
1, 37644, Control_c, 0, 64, 43
1, 37659, Control_c, 0, 64, 42
1, 37674, Control_c, 0, 64, 40
1, 37689, Control_c, 0, 64, 32
1, 37692, Note_on_c, 0, 51, 62
1, 37692, Note_on_c, 0, 66, 64
1, 37698, Note_on_c, 0, 61, 41
1, 37704, Control_c, 0, 64, 0
1, 37711, Note_off_c, 0, 66, 65
1, 37722, Note_off_c, 0, 51, 64
1, 37725, Note_off_c, 0, 61, 59
1, 37804, Poly_aftertouch_c, 0, 57, 0
1, 37835, Note_on_c, 0, 62, 42
1, 37859, Note_on_c, 0, 67, 71
1, 37865, Note_on_c, 0, 57, 44
1, 37871, Note_on_c, 0, 63, 52
1, 37872, Note_on_c, 0, 74, 80
1, 37879, Note_off_c, 0, 62, 65
1, 37881, Note_off_c, 0, 67, 70
1, 37893, Note_off_c, 0, 74, 70
1, 37894, Note_off_c, 0, 63, 59
1, 37895, Note_off_c, 0, 57, 49
1, 37896, Control_c, 0, 64, 33
1, 37911, Control_c, 0, 64, 69
1, 37926, Control_c, 0, 64, 93
1, 37940, Control_c, 0, 64, 112
1, 38000, Control_c, 0, 64, 107
1, 38014, Control_c, 0, 64, 83
1, 38029, Control_c, 0, 64, 61
1, 38044, Control_c, 0, 64, 0
1, 38046, Note_on_c, 0, 46, 72
1, 38071, Note_off_c, 0, 46, 66
1, 38088, Control_c, 0, 64, 42
1, 38103, Control_c, 0, 64, 52
1, 38118, Control_c, 0, 64, 49
1, 38133, Control_c, 0, 64, 49
1, 38148, Control_c, 0, 64, 48
1, 38178, Control_c, 0, 64, 46
1, 38192, Control_c, 0, 64, 43
1, 38207, Control_c, 0, 64, 39
1, 38222, Control_c, 0, 64, 37
1, 38229, Note_on_c, 0, 58, 67
1, 38234, Note_on_c, 0, 62, 62
1, 38237, Control_c, 0, 64, 37
1, 38246, Note_on_c, 0, 53, 44
1, 38266, Note_off_c, 0, 58, 67
1, 38270, Note_off_c, 0, 62, 65
1, 38273, Control_c, 0, 64, 34
1, 38288, Control_c, 0, 64, 0
1, 38291, Note_on_c, 0, 65, 69
1, 38312, Note_off_c, 0, 53, 0
1, 38323, Note_on_c, 0, 53, 42
1, 38330, Note_on_c, 0, 58, 71
1, 38338, Note_on_c, 0, 62, 51
1, 38348, Note_off_c, 0, 53, 58
1, 38353, Note_off_c, 0, 58, 69
1, 38353, Note_off_c, 0, 65, 61
1, 38363, Note_off_c, 0, 62, 57
1, 38377, Control_c, 0, 64, 46
1, 38392, Control_c, 0, 64, 63
1, 38394, Note_on_c, 0, 54, 78
1, 38407, Control_c, 0, 64, 67
1, 38416, Note_off_c, 0, 54, 68
1, 38422, Control_c, 0, 64, 61
1, 38437, Control_c, 0, 64, 31
1, 38452, Control_c, 0, 64, 0
1, 38497, Control_c, 0, 64, 46
1, 38511, Control_c, 0, 64, 51
1, 38526, Control_c, 0, 64, 50
1, 38541, Control_c, 0, 64, 50
1, 38556, Control_c, 0, 64, 53
1, 38571, Control_c, 0, 64, 57
1, 38577, Note_on_c, 0, 62, 63
1, 38586, Control_c, 0, 64, 59
1, 38587, Note_on_c, 0, 53, 51
1, 38587, Note_on_c, 0, 58, 50
1, 38601, Control_c, 0, 64, 58
1, 38609, Note_off_c, 0, 62, 64
1, 38610, Note_off_c, 0, 58, 60
1, 38616, Control_c, 0, 64, 56
1, 38620, Note_on_c, 0, 65, 65
1, 38624, Note_off_c, 0, 53, 46
1, 38630, Control_c, 0, 64, 56
1, 38645, Control_c, 0, 64, 57
1, 38660, Note_off_c, 0, 65, 62
1, 38660, Control_c, 0, 64, 58
1, 38662, Note_on_c, 0, 62, 62
1, 38669, Note_on_c, 0, 58, 51
1, 38675, Control_c, 0, 64, 60
1, 38680, Note_off_c, 0, 62, 65
1, 38689, Control_c, 0, 64, 63
1, 38695, Note_off_c, 0, 58, 58
1, 38704, Control_c, 0, 64, 65
1, 38719, Control_c, 0, 64, 64
1, 38732, Note_on_c, 0, 46, 79
1, 38734, Control_c, 0, 64, 52
1, 38749, Control_c, 0, 64, 0
1, 38754, Note_off_c, 0, 46, 68
1, 38914, Note_on_c, 0, 62, 69
1, 38919, Note_on_c, 0, 65, 69
1, 38920, Note_on_c, 0, 58, 59
1, 38921, Note_on_c, 0, 53, 58
1, 38936, Note_off_c, 0, 62, 65
1, 38941, Note_off_c, 0, 58, 64
1, 38944, Note_off_c, 0, 53, 59
1, 38946, Note_off_c, 0, 65, 69
1, 39093, Note_on_c, 0, 45, 84
1, 39096, Control_c, 0, 64, 68
1, 39111, Control_c, 0, 64, 112
1, 39117, Note_off_c, 0, 45, 70
1, 39126, Control_c, 0, 64, 127
1, 39247, Control_c, 0, 64, 112
1, 39261, Control_c, 0, 64, 91
1, 39266, Note_on_c, 0, 58, 68
1, 39272, Note_on_c, 0, 62, 66
1, 39276, Control_c, 0, 64, 77
1, 39291, Control_c, 0, 64, 67
1, 39292, Note_off_c, 0, 62, 63
1, 39293, Note_off_c, 0, 58, 69
1, 39306, Control_c, 0, 64, 58
1, 39320, Control_c, 0, 64, 42
1, 39326, Note_on_c, 0, 65, 68
1, 39335, Control_c, 0, 64, 0
1, 39353, Poly_aftertouch_c, 0, 53, 127
1, 39354, Note_on_c, 0, 62, 71
1, 39356, Note_on_c, 0, 58, 75
1, 39370, Note_off_c, 0, 65, 60
1, 39373, Note_off_c, 0, 62, 66
1, 39375, Poly_aftertouch_c, 0, 53, 0
1, 39379, Note_off_c, 0, 58, 67
1, 39415, Note_on_c, 0, 54, 99
1, 39446, Note_off_c, 0, 54, 69
1, 39453, Control_c, 0, 64, 58
1, 39468, Control_c, 0, 64, 94
1, 39483, Control_c, 0, 64, 127
1, 39513, Control_c, 0, 64, 96
1, 39528, Control_c, 0, 64, 95
1, 39543, Control_c, 0, 64, 94
1, 39558, Control_c, 0, 64, 82
1, 39573, Control_c, 0, 64, 62
1, 39587, Note_on_c, 0, 58, 75
1, 39587, Control_c, 0, 64, 0
1, 39591, Note_on_c, 0, 53, 64
1, 39602, Note_on_c, 0, 62, 62
1, 39620, Note_off_c, 0, 53, 64
1, 39630, Note_off_c, 0, 58, 61
1, 39632, Note_off_c, 0, 62, 66
1, 39638, Note_on_c, 0, 65, 78
1, 39663, Note_on_c, 0, 58, 74
1, 39671, Note_on_c, 0, 62, 66
1, 39685, Note_off_c, 0, 65, 62
1, 39696, Note_on_c, 0, 53, 44
1, 39696, Note_off_c, 0, 53, 127
1, 39699, Note_off_c, 0, 62, 66
1, 39706, Note_off_c, 0, 58, 64
1, 39744, Note_on_c, 0, 45, 99
1, 39778, Note_off_c, 0, 45, 69
1, 39787, Control_c, 0, 64, 31
1, 39802, Control_c, 0, 64, 74
1, 39817, Control_c, 0, 64, 127
1, 39832, Control_c, 0, 64, 118
1, 39846, Control_c, 0, 64, 77
1, 39846, Control_c, 0, 67, 118
1, 39861, Note_on_c, 0, 53, 71
1, 39861, Control_c, 0, 64, 68
1, 39861, Control_c, 0, 67, 103
1, 39874, Note_on_c, 0, 58, 82
1, 39876, Control_c, 0, 67, 90
1, 39891, Control_c, 0, 64, 72
1, 39891, Control_c, 0, 67, 75
1, 39904, Note_on_c, 0, 62, 81
1, 39906, Control_c, 0, 64, 73
1, 39906, Control_c, 0, 67, 60
1, 39914, Note_off_c, 0, 58, 69
1, 39915, Note_off_c, 0, 53, 63
1, 39917, Note_on_c, 0, 65, 99
1, 39920, Control_c, 0, 64, 54
1, 39920, Control_c, 0, 67, 46
1, 39924, Note_off_c, 0, 62, 70
1, 39935, Control_c, 0, 64, 0
1, 39935, Control_c, 0, 67, 31
1, 39950, Control_c, 0, 67, 0
1, 39964, Note_off_c, 0, 65, 65
1, 40093, Note_on_c, 0, 56, 107
1, 40103, Note_on_c, 0, 44, 78
1, 40172, Control_c, 0, 64, 65
1, 40187, Control_c, 0, 64, 127
1, 40189, Poly_aftertouch_c, 0, 50, 127
1, 40214, Note_on_c, 0, 60, 90
1, 40215, Note_on_c, 0, 57, 90
1, 40222, Note_on_c, 0, 65, 91
1, 40232, Note_off_c, 0, 56, 59
1, 40249, Note_off_c, 0, 44, 59
1, 40264, Note_off_c, 0, 57, 64
1, 40271, Note_off_c, 0, 65, 65
1, 40283, Note_off_c, 0, 60, 64
1, 40291, Poly_aftertouch_c, 0, 50, 0
1, 40318, Note_on_c, 0, 56, 114
1, 40327, Note_on_c, 0, 44, 71
1, 40353, Note_off_c, 0, 56, 70
1, 40372, Note_off_c, 0, 44, 65
1, 40374, Note_on_c, 0, 43, 22
1, 40399, Note_on_c, 0, 54, 99
1, 40402, Note_on_c, 0, 60, 88
1, 40415, Note_off_c, 0, 43, 41
1, 40443, Note_on_c, 0, 53, 27
1, 40443, Note_on_c, 0, 57, 22
1, 40446, Note_off_c, 0, 60, 64
1, 40452, Note_off_c, 0, 54, 62
1, 40470, Note_on_c, 0, 41, 97
1, 40473, Note_off_c, 0, 57, 55
1, 40494, Note_off_c, 0, 41, 70
1, 40498, Note_off_c, 0, 53, 63
1, 40527, Note_on_c, 0, 54, 91
1, 40533, Note_on_c, 0, 57, 82
1, 40542, Note_on_c, 0, 51, 79
1, 40565, Control_c, 0, 64, 82
1, 40568, Note_off_c, 0, 51, 68
1, 40568, Note_off_c, 0, 54, 66
1, 40577, Note_off_c, 0, 57, 65
1, 40580, Control_c, 0, 64, 52
1, 40595, Control_c, 0, 64, 0
1, 40650, Note_on_c, 0, 49, 111
1, 40651, Note_on_c, 0, 37, 112
1, 40681, Note_off_c, 0, 49, 71
1, 40683, Control_c, 0, 64, 44
1, 40690, Note_off_c, 0, 37, 66
1, 40698, Control_c, 0, 64, 102
1, 40713, Control_c, 0, 64, 127
1, 40729, Note_on_c, 0, 36, 3
1, 40771, Note_off_c, 0, 36, 51
1, 40857, Note_on_c, 0, 85, 101
1, 40859, Note_on_c, 0, 73, 100
1, 40865, Note_on_c, 0, 77, 79
1, 40875, Note_on_c, 0, 65, 101
1, 40883, Note_on_c, 0, 56, 84
1, 40885, Note_on_c, 0, 61, 78
1, 40890, Note_off_c, 0, 73, 70
1, 40890, Note_off_c, 0, 85, 71
1, 40895, Note_off_c, 0, 77, 63
1, 40902, Note_off_c, 0, 65, 66
1, 40905, Note_off_c, 0, 56, 66
1, 40911, Note_off_c, 0, 61, 66
1, 41037, Note_on_c, 0, 72, 88
1, 41039, Note_on_c, 0, 77, 90
1, 41059, Note_on_c, 0, 49, 89
1, 41067, Note_off_c, 0, 72, 63
1, 41079, Note_off_c, 0, 49, 71
1, 41090, Note_on_c, 0, 85, 96
1, 41091, Note_off_c, 0, 77, 63
1, 41114, Note_on_c, 0, 72, 89
1, 41129, Note_off_c, 0, 85, 69
1, 41154, Note_off_c, 0, 72, 66
1, 41219, Note_on_c, 0, 74, 99
1, 41222, Note_on_c, 0, 62, 67
1, 41222, Note_on_c, 0, 81, 100
1, 41224, Note_on_c, 0, 78, 93
1, 41224, Note_on_c, 0, 66, 93
1, 41224, Note_on_c, 0, 69, 100
1, 41230, Note_on_c, 0, 57, 85
1, 41232, Control_c, 0, 64, 96
1, 41247, Control_c, 0, 64, 64
1, 41248, Note_on_c, 0, 79, 52
1, 41248, Note_off_c, 0, 79, 127
1, 41263, Note_off_c, 0, 57, 69
1, 41266, Note_off_c, 0, 66, 65
1, 41269, Control_c, 0, 64, 0
1, 41272, Note_off_c, 0, 62, 63
1, 41299, Control_c, 0, 64, 54
1, 41314, Control_c, 0, 64, 74
1, 41328, Control_c, 0, 64, 107
1, 41343, Control_c, 0, 64, 127
1, 41427, Note_on_c, 0, 49, 99
1, 41460, Note_off_c, 0, 49, 66
1, 41581, Control_c, 0, 64, 82
1, 41596, Control_c, 0, 64, 62
1, 41609, Note_on_c, 0, 66, 86
1, 41610, Control_c, 0, 64, 41
1, 41612, Note_on_c, 0, 62, 82
1, 41614, Note_on_c, 0, 57, 76
1, 41625, Control_c, 0, 64, 51
1, 41632, Note_off_c, 0, 66, 67
1, 41633, Note_off_c, 0, 62, 72
1, 41638, Note_off_c, 0, 57, 67
1, 41641, Control_c, 0, 64, 64
1, 41656, Control_c, 0, 64, 78
1, 41671, Control_c, 0, 64, 101
1, 41686, Control_c, 0, 64, 127
1, 41715, Control_c, 0, 64, 99
1, 41730, Control_c, 0, 64, 76
1, 41745, Control_c, 0, 64, 63
1, 41760, Control_c, 0, 64, 60
1, 41775, Control_c, 0, 64, 66
1, 41784, Note_off_c, 0, 69, 59
1, 41789, Note_on_c, 0, 49, 94
1, 41789, Control_c, 0, 64, 78
1, 41798, Note_off_c, 0, 74, 58
1, 41804, Control_c, 0, 64, 112
1, 41808, Note_off_c, 0, 49, 73
1, 41819, Control_c, 0, 64, 127
1, 41829, Note_off_c, 0, 78, 61
1, 41922, Control_c, 0, 64, 94
1, 41937, Control_c, 0, 64, 67
1, 41952, Control_c, 0, 64, 40
1, 41962, Note_on_c, 0, 78, 79
1, 41962, Note_on_c, 0, 82, 92
1, 41967, Control_c, 0, 64, 0
1, 41968, Note_on_c, 0, 66, 76
1, 41969, Note_on_c, 0, 75, 72
1, 41970, Note_on_c, 0, 63, 72
1, 41970, Note_on_c, 0, 70, 80
1, 41973, Note_on_c, 0, 58, 67
1, 41981, Control_c, 0, 64, 39
1, 41984, Note_off_c, 0, 81, 56
1, 41990, Note_off_c, 0, 66, 70
1, 41995, Note_off_c, 0, 63, 69
1, 41996, Control_c, 0, 64, 62
1, 42010, Note_off_c, 0, 58, 67
1, 42019, Control_c, 0, 64, 82
1, 42033, Control_c, 0, 64, 127
1, 42098, Note_off_c, 0, 82, 63
1, 42107, Note_off_c, 0, 75, 62
1, 42108, Note_off_c, 0, 70, 63
1, 42123, Note_off_c, 0, 78, 65
1, 42142, Note_on_c, 0, 49, 93
1, 42163, Note_off_c, 0, 49, 72
1, 42226, Control_c, 0, 64, 105
1, 42241, Control_c, 0, 64, 69
1, 42255, Control_c, 0, 64, 34
1, 42270, Control_c, 0, 64, 0
1, 42300, Note_on_c, 0, 65, 90
1, 42300, Note_on_c, 0, 85, 103
1, 42300, Control_c, 0, 64, 44
1, 42301, Note_on_c, 0, 73, 99
1, 42304, Note_on_c, 0, 61, 84
1, 42305, Note_on_c, 0, 77, 93
1, 42306, Note_on_c, 0, 56, 80
1, 42315, Control_c, 0, 64, 73
1, 42317, Note_off_c, 0, 65, 72
1, 42322, Note_off_c, 0, 61, 70
1, 42327, Note_off_c, 0, 56, 67
1, 42330, Control_c, 0, 64, 113
1, 42333, Note_off_c, 0, 73, 68
1, 42333, Note_off_c, 0, 77, 64
1, 42343, Note_off_c, 0, 85, 70
1, 42345, Control_c, 0, 64, 127
1, 42479, Note_on_c, 0, 72, 94
1, 42481, Note_on_c, 0, 77, 83
1, 42503, Note_on_c, 0, 51, 66
1, 42514, Note_on_c, 0, 76, 43
1, 42515, Note_on_c, 0, 50, 50
1, 42516, Note_off_c, 0, 72, 67
1, 42531, Note_off_c, 0, 51, 56
1, 42534, Note_on_c, 0, 85, 87
1, 42536, Note_off_c, 0, 77, 63
1, 42543, Note_off_c, 0, 76, 59
1, 42544, Note_off_c, 0, 50, 55
1, 42565, Note_on_c, 0, 72, 86
1, 42587, Note_off_c, 0, 85, 67
1, 42598, Note_off_c, 0, 72, 62
1, 42652, Note_on_c, 0, 74, 101
1, 42653, Note_on_c, 0, 81, 95
1, 42657, Note_on_c, 0, 66, 93
1, 42659, Note_on_c, 0, 78, 94
1, 42660, Note_on_c, 0, 57, 80
1, 42660, Note_on_c, 0, 69, 104
1, 42662, Note_on_c, 0, 62, 87
1, 42681, Note_off_c, 0, 62, 72
1, 42685, Note_off_c, 0, 57, 70
1, 42688, Note_off_c, 0, 66, 63
1, 42841, Note_on_c, 0, 49, 102
1, 42863, Note_off_c, 0, 49, 70
1, 42888, Note_on_c, 0, 51, 22
1, 42888, Note_off_c, 0, 51, 127
1, 42945, Control_c, 0, 64, 80
1, 42960, Control_c, 0, 64, 58
1, 42975, Control_c, 0, 64, 0
1, 43015, Note_on_c, 0, 62, 82
1, 43018, Note_on_c, 0, 66, 86
1, 43019, Control_c, 0, 64, 57
1, 43020, Note_on_c, 0, 57, 77
1, 43034, Control_c, 0, 64, 76
1, 43036, Note_off_c, 0, 62, 71
1, 43036, Note_off_c, 0, 66, 71
1, 43042, Note_off_c, 0, 57, 68
1, 43049, Control_c, 0, 64, 116
1, 43063, Control_c, 0, 64, 127
1, 43138, Control_c, 0, 64, 92
1, 43153, Control_c, 0, 64, 67
1, 43168, Control_c, 0, 64, 48
1, 43182, Control_c, 0, 64, 44
1, 43184, Note_on_c, 0, 49, 96
1, 43197, Control_c, 0, 64, 59
1, 43212, Control_c, 0, 64, 77
1, 43217, Note_off_c, 0, 49, 64
1, 43227, Control_c, 0, 64, 122
1, 43242, Control_c, 0, 64, 127
1, 43293, Note_off_c, 0, 69, 59
1, 43302, Control_c, 0, 64, 86
1, 43311, Note_off_c, 0, 74, 57
1, 43317, Control_c, 0, 64, 64
1, 43332, Control_c, 0, 64, 55
1, 43338, Note_off_c, 0, 78, 59
1, 43346, Control_c, 0, 64, 62
1, 43350, Note_on_c, 0, 56, 40
1, 43358, Note_on_c, 0, 66, 84
1, 43361, Control_c, 0, 64, 74
1, 43362, Note_on_c, 0, 62, 79
1, 43370, Note_on_c, 0, 57, 74
1, 43376, Control_c, 0, 64, 108
1, 43378, Note_off_c, 0, 66, 71
1, 43385, Note_off_c, 0, 62, 69
1, 43385, Note_off_c, 0, 56, 44
1, 43391, Control_c, 0, 64, 127
1, 43397, Note_off_c, 0, 57, 67
1, 43450, Control_c, 0, 64, 98
1, 43465, Control_c, 0, 64, 64
1, 43479, Control_c, 0, 64, 0
1, 43531, Note_off_c, 0, 81, 61
1, 43540, Note_on_c, 0, 49, 77
1, 43544, Note_on_c, 0, 78, 76
1, 43546, Note_on_c, 0, 82, 78
1, 43546, Control_c, 0, 64, 37
1, 43549, Note_on_c, 0, 70, 75
1, 43549, Note_on_c, 0, 75, 72
1, 43561, Control_c, 0, 64, 67
1, 43568, Note_off_c, 0, 49, 68
1, 43576, Control_c, 0, 64, 84
1, 43591, Control_c, 0, 64, 87
1, 43605, Control_c, 0, 64, 69
1, 43620, Control_c, 0, 64, 47
1, 43635, Control_c, 0, 64, 39
1, 43650, Control_c, 0, 64, 53
1, 43665, Control_c, 0, 64, 65
1, 43679, Control_c, 0, 64, 72
1, 43694, Control_c, 0, 64, 74
1, 43724, Control_c, 0, 64, 75
1, 43733, Note_on_c, 0, 63, 66
1, 43734, Note_on_c, 0, 66, 63
1, 43739, Control_c, 0, 64, 78
1, 43739, Control_c, 0, 67, 21
1, 43741, Note_on_c, 0, 58, 60
1, 43752, Note_off_c, 0, 63, 66
1, 43753, Control_c, 0, 64, 86
1, 43753, Control_c, 0, 67, 30
1, 43754, Note_off_c, 0, 66, 65
1, 43756, Note_off_c, 0, 82, 63
1, 43762, Note_off_c, 0, 58, 64
1, 43768, Control_c, 0, 64, 90
1, 43768, Control_c, 0, 67, 47
1, 43777, Note_off_c, 0, 70, 64
1, 43782, Note_off_c, 0, 78, 64
1, 43783, Control_c, 0, 64, 89
1, 43783, Control_c, 0, 67, 68
1, 43785, Note_off_c, 0, 75, 63
1, 43798, Control_c, 0, 64, 83
1, 43798, Control_c, 0, 67, 89
1, 43812, Control_c, 0, 64, 76
1, 43812, Control_c, 0, 67, 110
1, 43827, Control_c, 0, 64, 70
1, 43827, Control_c, 0, 67, 126
1, 43842, Control_c, 0, 64, 66
1, 43857, Control_c, 0, 64, 65
1, 43872, Control_c, 0, 64, 66
1, 43886, Control_c, 0, 64, 68
1, 43901, Control_c, 0, 64, 72
1, 43916, Control_c, 0, 64, 74
1, 43931, Control_c, 0, 64, 64
1, 43932, Note_on_c, 0, 49, 78
1, 43946, Control_c, 0, 64, 0
1, 43958, Note_off_c, 0, 49, 69
1, 44005, Control_c, 0, 64, 34
1, 44020, Control_c, 0, 64, 39
1, 44035, Control_c, 0, 64, 31
1, 44050, Control_c, 0, 64, 0
1, 44130, Note_on_c, 0, 61, 65
1, 44136, Note_on_c, 0, 65, 61
1, 44153, Note_on_c, 0, 56, 35
1, 44158, Note_off_c, 0, 65, 63
1, 44161, Note_off_c, 0, 61, 63
1, 44172, Note_on_c, 0, 68, 71
1, 44197, Note_off_c, 0, 56, 0
1, 44197, Note_on_c, 0, 56, 39
1, 44224, Note_on_c, 0, 65, 60
1, 44225, Note_off_c, 0, 68, 65
1, 44226, Note_on_c, 0, 61, 68
1, 44228, Control_c, 0, 64, 31
1, 44238, Note_off_c, 0, 56, 62
1, 44250, Control_c, 0, 64, 39
1, 44254, Note_off_c, 0, 65, 62
1, 44262, Note_off_c, 0, 61, 65
1, 44265, Control_c, 0, 64, 33
1, 44280, Control_c, 0, 64, 0
1, 44288, Note_on_c, 0, 57, 77
1, 44310, Note_off_c, 0, 57, 71
1, 44339, Control_c, 0, 64, 34
1, 44354, Control_c, 0, 64, 31
1, 44369, Control_c, 0, 64, 0
1, 44485, Note_on_c, 0, 68, 65
1, 44488, Note_on_c, 0, 56, 62
1, 44490, Note_on_c, 0, 65, 58
1, 44492, Note_on_c, 0, 61, 58
1, 44508, Note_off_c, 0, 56, 60
1, 44512, Note_off_c, 0, 65, 61
1, 44512, Note_off_c, 0, 68, 66
1, 44513, Note_off_c, 0, 61, 61
1, 44664, Note_on_c, 0, 49, 51
1, 44691, Note_off_c, 0, 49, 61
1, 44830, Note_on_c, 0, 65, 63
1, 44837, Note_on_c, 0, 68, 60
1, 44843, Note_on_c, 0, 56, 41
1, 44849, Note_off_c, 0, 65, 64
1, 44852, Note_on_c, 0, 61, 27
1, 44857, Note_off_c, 0, 68, 62
1, 44875, Note_off_c, 0, 56, 34
1, 44889, Note_off_c, 0, 61, 31
1, 44992, Control_c, 0, 64, 41
1, 45010, Note_on_c, 0, 44, 58
1, 45014, Control_c, 0, 64, 51
1, 45029, Control_c, 0, 64, 56
1, 45040, Note_off_c, 0, 44, 65
1, 45044, Control_c, 0, 64, 57
1, 45058, Control_c, 0, 64, 57
1, 45073, Control_c, 0, 64, 56
1, 45088, Control_c, 0, 64, 54
1, 45103, Control_c, 0, 64, 53
1, 45118, Control_c, 0, 64, 51
1, 45132, Control_c, 0, 64, 50
1, 45147, Control_c, 0, 64, 47
1, 45159, Note_on_c, 0, 65, 61
1, 45162, Control_c, 0, 64, 42
1, 45177, Control_c, 0, 64, 36
1, 45180, Note_on_c, 0, 69, 59
1, 45186, Note_off_c, 0, 65, 66
1, 45192, Control_c, 0, 64, 0
1, 45192, Note_on_c, 0, 61, 55
1, 45200, Note_off_c, 0, 69, 65
1, 45216, Note_off_c, 0, 61, 58
1, 45329, Note_on_c, 0, 65, 59
1, 45338, Note_on_c, 0, 70, 73
1, 45353, Note_on_c, 0, 66, 72
1, 45359, Note_off_c, 0, 70, 69
1, 45363, Note_off_c, 0, 65, 65
1, 45364, Note_on_c, 0, 79, 79
1, 45371, Note_on_c, 0, 77, 68
1, 45372, Note_on_c, 0, 60, 42
1, 45376, Note_off_c, 0, 66, 69
1, 45383, Note_off_c, 0, 79, 73
1, 45384, Control_c, 0, 64, 41
1, 45386, Note_off_c, 0, 77, 68
1, 45399, Control_c, 0, 64, 84
1, 45404, Note_off_c, 0, 60, 35
1, 45414, Control_c, 0, 64, 127
1, 45518, Control_c, 0, 64, 101
1, 45532, Control_c, 0, 64, 65
1, 45543, Note_on_c, 0, 49, 68
1, 45547, Control_c, 0, 64, 0
1, 45570, Note_off_c, 0, 49, 66
1, 45722, Note_on_c, 0, 65, 53
1, 45725, Note_on_c, 0, 61, 59
1, 45750, Note_on_c, 0, 56, 23
1, 45752, Note_off_c, 0, 65, 61
1, 45764, Note_off_c, 0, 61, 63
1, 45777, Note_on_c, 0, 68, 70
1, 45805, Note_off_c, 0, 56, 0
1, 45805, Note_on_c, 0, 56, 3
1, 45824, Note_on_c, 0, 65, 63
1, 45825, Note_on_c, 0, 61, 73
1, 45833, Note_off_c, 0, 68, 65
1, 45837, Note_off_c, 0, 56, 59
1, 45846, Note_off_c, 0, 65, 62
1, 45852, Control_c, 0, 64, 50
1, 45853, Note_off_c, 0, 61, 66
1, 45867, Control_c, 0, 64, 65
1, 45869, Note_on_c, 0, 57, 84
1, 45890, Note_off_c, 0, 57, 72
1, 45896, Control_c, 0, 64, 48
1, 45911, Control_c, 0, 64, 0
1, 45970, Control_c, 0, 64, 39
1, 45985, Control_c, 0, 64, 31
1, 45999, Control_c, 0, 64, 0
1, 46044, Control_c, 0, 64, 36
1, 46059, Control_c, 0, 64, 32
1, 46072, Note_on_c, 0, 65, 72
1, 46072, Note_on_c, 0, 68, 73
1, 46073, Note_on_c, 0, 56, 69
1, 46074, Control_c, 0, 64, 0
1, 46080, Note_on_c, 0, 61, 51
1, 46089, Note_off_c, 0, 65, 67
1, 46092, Note_off_c, 0, 56, 62
1, 46094, Note_off_c, 0, 68, 69
1, 46104, Note_off_c, 0, 61, 59
1, 46244, Note_on_c, 0, 49, 73
1, 46268, Note_off_c, 0, 49, 66
1, 46418, Note_on_c, 0, 68, 74
1, 46422, Note_on_c, 0, 65, 56
1, 46423, Note_on_c, 0, 56, 61
1, 46426, Note_on_c, 0, 61, 52
1, 46434, Note_off_c, 0, 68, 67
1, 46444, Note_off_c, 0, 56, 60
1, 46447, Note_off_c, 0, 65, 60
1, 46451, Note_off_c, 0, 61, 58
1, 46596, Note_on_c, 0, 44, 68
1, 46601, Control_c, 0, 64, 60
1, 46616, Control_c, 0, 64, 71
1, 46621, Note_off_c, 0, 44, 66
1, 46645, Control_c, 0, 64, 67
1, 46660, Control_c, 0, 64, 64
1, 46675, Control_c, 0, 64, 63
1, 46690, Control_c, 0, 64, 62
1, 46704, Control_c, 0, 64, 60
1, 46719, Control_c, 0, 64, 58
1, 46735, Control_c, 0, 64, 55
1, 46749, Control_c, 0, 64, 51
1, 46763, Note_on_c, 0, 65, 62
1, 46764, Control_c, 0, 64, 43
1, 46767, Note_on_c, 0, 61, 61
1, 46770, Note_on_c, 0, 69, 67
1, 46779, Control_c, 0, 64, 0
1, 46783, Note_off_c, 0, 65, 63
1, 46787, Note_off_c, 0, 69, 66
1, 46789, Note_off_c, 0, 61, 62
1, 46806, Note_on_c, 0, 55, 3
1, 46844, Note_off_c, 0, 55, 33
1, 46931, Note_on_c, 0, 65, 46
1, 46939, Note_on_c, 0, 70, 78
1, 46943, Note_on_c, 0, 66, 45
1, 46947, Note_on_c, 0, 77, 85
1, 46950, Note_on_c, 0, 60, 46
1, 46957, Note_off_c, 0, 65, 61
1, 46959, Note_off_c, 0, 70, 71
1, 46968, Note_off_c, 0, 66, 51
1, 46970, Note_off_c, 0, 77, 66
1, 46971, Control_c, 0, 64, 41
1, 46978, Note_off_c, 0, 60, 58
1, 46986, Control_c, 0, 64, 76
1, 47001, Control_c, 0, 64, 89
1, 47016, Control_c, 0, 64, 91
1, 47031, Control_c, 0, 64, 85
1, 47046, Control_c, 0, 64, 80
1, 47061, Control_c, 0, 64, 79
1, 47076, Control_c, 0, 64, 70
1, 47090, Control_c, 0, 64, 38
1, 47105, Control_c, 0, 64, 0
1, 47126, Note_on_c, 0, 49, 83
1, 47146, Note_off_c, 0, 49, 68
1, 47149, Control_c, 0, 64, 44
1, 47164, Control_c, 0, 64, 63
1, 47179, Control_c, 0, 64, 61
1, 47194, Control_c, 0, 64, 53
1, 47209, Control_c, 0, 64, 42
1, 47225, Control_c, 0, 64, 34
1, 47246, Control_c, 0, 64, 0
1, 47312, Note_on_c, 0, 61, 64
1, 47312, Note_on_c, 0, 65, 67
1, 47320, Note_on_c, 0, 56, 56
1, 47341, Note_off_c, 0, 61, 64
1, 47344, Note_off_c, 0, 56, 58
1, 47345, Note_off_c, 0, 65, 65
1, 47371, Note_on_c, 0, 68, 71
1, 47392, Note_off_c, 0, 68, 68
1, 47400, Note_on_c, 0, 61, 75
1, 47409, Note_on_c, 0, 65, 60
1, 47416, Note_on_c, 0, 56, 36
1, 47428, Note_off_c, 0, 65, 65
1, 47432, Note_off_c, 0, 61, 62
1, 47447, Note_on_c, 0, 57, 99
1, 47450, Note_off_c, 0, 56, 32
1, 47477, Note_off_c, 0, 57, 67
1, 47499, Control_c, 0, 64, 71
1, 47514, Control_c, 0, 64, 90
1, 47528, Control_c, 0, 64, 88
1, 47543, Control_c, 0, 64, 74
1, 47558, Control_c, 0, 64, 63
1, 47572, Control_c, 0, 64, 62
1, 47587, Control_c, 0, 64, 61
1, 47602, Control_c, 0, 64, 55
1, 47617, Control_c, 0, 64, 33
1, 47632, Control_c, 0, 64, 0
1, 47641, Note_on_c, 0, 61, 70
1, 47642, Note_on_c, 0, 65, 65
1, 47677, Note_off_c, 0, 61, 62
1, 47679, Note_off_c, 0, 65, 62
1, 47694, Note_on_c, 0, 68, 73
1, 47718, Note_on_c, 0, 65, 63
1, 47731, Note_on_c, 0, 61, 64
1, 47740, Note_off_c, 0, 68, 63
1, 47749, Note_off_c, 0, 65, 68
1, 47750, Control_c, 0, 64, 30
1, 47758, Note_off_c, 0, 61, 64
1, 47765, Control_c, 0, 64, 41
1, 47779, Control_c, 0, 64, 0
1, 47791, Note_on_c, 0, 56, 83
1, 47802, Note_on_c, 0, 49, 61
1, 47815, Note_off_c, 0, 56, 68
1, 47829, Note_off_c, 0, 49, 66
1, 47984, Note_on_c, 0, 58, 79
1, 48003, Note_on_c, 0, 51, 59
1, 48017, Note_off_c, 0, 58, 68
1, 48032, Note_off_c, 0, 51, 64
1, 48188, Control_c, 0, 64, 60
1, 48196, Note_on_c, 0, 59, 70
1, 48202, Control_c, 0, 64, 73
1, 48210, Note_on_c, 0, 52, 62
1, 48217, Control_c, 0, 64, 79
1, 48218, Note_off_c, 0, 59, 70
1, 48232, Control_c, 0, 64, 90
1, 48232, Note_off_c, 0, 52, 63
1, 48247, Control_c, 0, 64, 104
1, 48262, Control_c, 0, 64, 127
1, 48351, Note_on_c, 0, 68, 74
1, 48360, Note_on_c, 0, 62, 60
1, 48380, Note_off_c, 0, 68, 62
1, 48389, Note_off_c, 0, 62, 64
1, 48396, Note_on_c, 0, 59, 11
1, 48411, Note_on_c, 0, 71, 81
1, 48424, Control_c, 0, 64, 111
1, 48438, Note_on_c, 0, 68, 73
1, 48439, Control_c, 0, 64, 77
1, 48444, Note_off_c, 0, 59, 62
1, 48445, Note_on_c, 0, 62, 74
1, 48454, Control_c, 0, 64, 54
1, 48459, Note_off_c, 0, 62, 69
1, 48467, Note_off_c, 0, 71, 63
1, 48468, Control_c, 0, 64, 0
1, 48472, Note_off_c, 0, 68, 67
1, 48504, Note_on_c, 0, 61, 99
1, 48527, Control_c, 0, 64, 61
1, 48533, Note_off_c, 0, 61, 69
1, 48542, Control_c, 0, 64, 82
1, 48557, Control_c, 0, 64, 127
1, 48602, Control_c, 0, 67, 120
1, 48617, Control_c, 0, 67, 106
1, 48632, Control_c, 0, 64, 92
1, 48632, Control_c, 0, 67, 94
1, 48647, Control_c, 0, 64, 65
1, 48647, Control_c, 0, 67, 82
1, 48661, Control_c, 0, 64, 0
1, 48661, Control_c, 0, 67, 76
1, 48676, Control_c, 0, 67, 74
1, 48680, Note_on_c, 0, 68, 79
1, 48685, Note_on_c, 0, 62, 70
1, 48691, Control_c, 0, 67, 72
1, 48704, Note_on_c, 0, 59, 31
1, 48704, Note_off_c, 0, 59, 127
1, 48706, Control_c, 0, 64, 55
1, 48706, Control_c, 0, 67, 70
1, 48710, Note_off_c, 0, 68, 60
1, 48713, Note_off_c, 0, 62, 66
1, 48720, Control_c, 0, 64, 69
1, 48720, Control_c, 0, 67, 66
1, 48735, Control_c, 0, 64, 78
1, 48735, Control_c, 0, 67, 59
1, 48749, Note_on_c, 0, 71, 83
1, 48757, Control_c, 0, 64, 90
1, 48757, Control_c, 0, 67, 48
1, 48763, Note_on_c, 0, 68, 80
1, 48767, Note_on_c, 0, 62, 77
1, 48772, Control_c, 0, 64, 105
1, 48772, Control_c, 0, 67, 32
1, 48787, Control_c, 0, 64, 127
1, 48787, Control_c, 0, 67, 0
1, 48794, Note_off_c, 0, 71, 63
1, 48796, Note_off_c, 0, 68, 68
1, 48799, Note_off_c, 0, 62, 62
1, 48839, Note_on_c, 0, 59, 93
1, 48843, Note_on_c, 0, 52, 85
1, 48858, Note_off_c, 0, 59, 70
1, 48875, Note_off_c, 0, 52, 63
1, 48891, Control_c, 0, 64, 69
1, 48897, Poly_aftertouch_c, 0, 67, 0
1, 48906, Control_c, 0, 64, 0
1, 49036, Note_on_c, 0, 61, 92
1, 49064, Note_off_c, 0, 61, 65
1, 49070, Note_on_c, 0, 55, 40
1, 49070, Note_off_c, 0, 55, 127
1, 49081, Note_on_c, 0, 54, 7
1, 49081, Note_off_c, 0, 54, 127
1, 49100, Control_c, 0, 67, 20
1, 49115, Control_c, 0, 67, 24
1, 49129, Control_c, 0, 67, 31
1, 49144, Control_c, 0, 67, 38
1, 49159, Control_c, 0, 67, 48
1, 49174, Control_c, 0, 67, 57
1, 49189, Control_c, 0, 67, 67
1, 49204, Control_c, 0, 67, 77
1, 49218, Control_c, 0, 67, 90
1, 49229, Note_on_c, 0, 56, 64
1, 49233, Control_c, 0, 67, 106
1, 49248, Control_c, 0, 67, 124
1, 49263, Control_c, 0, 67, 127
1, 49398, Note_on_c, 0, 63, 39
1, 49468, Note_on_c, 0, 68, 74
1, 49476, Note_off_c, 0, 63, 62
1, 49484, Note_off_c, 0, 68, 69
1, 49522, Control_c, 0, 64, 36
1, 49537, Control_c, 0, 64, 49
1, 49544, Note_on_c, 0, 68, 79
1, 49551, Control_c, 0, 64, 55
1, 49557, Note_off_c, 0, 68, 70
1, 49566, Control_c, 0, 64, 56
1, 49581, Control_c, 0, 64, 57
1, 49596, Control_c, 0, 64, 58
1, 49610, Note_on_c, 0, 68, 72
1, 49611, Control_c, 0, 64, 60
1, 49627, Control_c, 0, 64, 62
1, 49632, Note_off_c, 0, 68, 58
1, 49642, Control_c, 0, 64, 64
1, 49656, Control_c, 0, 64, 65
1, 49666, Note_on_c, 0, 72, 67
1, 49671, Control_c, 0, 64, 66
1, 49673, Note_on_c, 0, 75, 66
1, 49686, Control_c, 0, 64, 67
1, 49693, Note_off_c, 0, 72, 69
1, 49699, Note_off_c, 0, 75, 67
1, 49701, Control_c, 0, 64, 69
1, 49716, Control_c, 0, 64, 71
1, 49730, Control_c, 0, 64, 73
1, 49745, Control_c, 0, 64, 75
1, 49760, Control_c, 0, 64, 76
1, 49774, Control_c, 0, 64, 76
1, 49873, Note_on_c, 0, 63, 29
1, 49889, Note_off_c, 0, 56, 54
1, 49899, Note_on_c, 0, 68, 71
1, 49913, Note_off_c, 0, 68, 68
1, 49934, Note_off_c, 0, 63, 58
1, 49967, Note_on_c, 0, 68, 77
1, 49982, Control_c, 0, 64, 77
1, 49985, Note_off_c, 0, 68, 66
1, 50012, Control_c, 0, 64, 77
1, 50041, Control_c, 0, 64, 78
1, 50071, Note_on_c, 0, 56, 51
1, 50086, Control_c, 0, 64, 78
1, 50087, Note_on_c, 0, 68, 60
1, 50111, Note_off_c, 0, 68, 68
1, 50130, Control_c, 0, 64, 79
1, 50145, Control_c, 0, 64, 80
1, 50160, Control_c, 0, 64, 81
1, 50169, Note_on_c, 0, 68, 53
1, 50174, Control_c, 0, 64, 82
1, 50189, Control_c, 0, 64, 82
1, 50193, Note_off_c, 0, 56, 56
1, 50203, Note_off_c, 0, 68, 0
1, 50203, Note_on_c, 0, 68, 57
1, 50204, Control_c, 0, 64, 83
1, 50206, Note_on_c, 0, 63, 64
1, 50219, Control_c, 0, 64, 85
1, 50234, Note_off_c, 0, 63, 65
1, 50234, Control_c, 0, 64, 87
1, 50244, Note_off_c, 0, 68, 65
1, 50256, Control_c, 0, 64, 88
1, 50271, Control_c, 0, 64, 90
1, 50283, Note_on_c, 0, 68, 87
1, 50286, Control_c, 0, 64, 91
1, 50300, Note_off_c, 0, 68, 73
1, 50300, Control_c, 0, 64, 93
1, 50315, Control_c, 0, 64, 95
1, 50330, Control_c, 0, 64, 99
1, 50340, Note_on_c, 0, 68, 88
1, 50345, Control_c, 0, 64, 103
1, 50355, Note_off_c, 0, 68, 75
1, 50360, Control_c, 0, 64, 106
1, 50374, Control_c, 0, 64, 108
1, 50384, Note_on_c, 0, 68, 67
1, 50406, Note_off_c, 0, 68, 70
1, 50420, Control_c, 0, 64, 110
1, 50450, Control_c, 0, 64, 107
1, 50459, Note_on_c, 0, 61, 72
1, 50465, Control_c, 0, 64, 88
1, 50477, Control_c, 0, 64, 66
1, 50492, Control_c, 0, 64, 0
1, 50551, Control_c, 0, 64, 37
1, 50566, Control_c, 0, 64, 57
1, 50581, Control_c, 0, 64, 66
1, 50584, Note_on_c, 0, 68, 73
1, 50589, Note_off_c, 0, 61, 60
1, 50596, Control_c, 0, 64, 73
1, 50611, Control_c, 0, 64, 79
1, 50621, Note_off_c, 0, 68, 64
1, 50626, Control_c, 0, 64, 85
1, 50630, Note_on_c, 0, 69, 47
1, 50641, Control_c, 0, 64, 92
1, 50643, Note_on_c, 0, 67, 55
1, 50656, Control_c, 0, 64, 104
1, 50663, Note_off_c, 0, 67, 61
1, 50670, Note_on_c, 0, 71, 79
1, 50670, Control_c, 0, 64, 127
1, 50682, Note_off_c, 0, 69, 52
1, 50711, Note_on_c, 0, 73, 78
1, 50715, Note_off_c, 0, 71, 64
1, 50736, Note_off_c, 0, 73, 67
1, 50741, Note_on_c, 0, 75, 67
1, 50759, Note_off_c, 0, 75, 65
1, 50775, Note_on_c, 0, 76, 90
1, 50823, Note_on_c, 0, 78, 83
1, 50823, Note_off_c, 0, 76, 65
1, 50852, Note_on_c, 0, 75, 57
1, 50878, Note_off_c, 0, 78, 64
1, 50905, Note_on_c, 0, 81, 95
1, 50951, Note_off_c, 0, 75, 61
1, 50966, Note_on_c, 0, 80, 87
1, 50981, Control_c, 0, 64, 107
1, 50990, Note_on_c, 0, 78, 77
1, 50990, Note_off_c, 0, 81, 65
1, 51003, Control_c, 0, 64, 101
1, 51028, Note_off_c, 0, 80, 66
1, 51033, Control_c, 0, 64, 98
1, 51035, Note_off_c, 0, 78, 60
1, 51048, Note_on_c, 0, 76, 71
1, 51048, Control_c, 0, 64, 96
1, 51063, Control_c, 0, 64, 91
1, 51077, Control_c, 0, 64, 85
1, 51078, Note_on_c, 0, 68, 61
1, 51092, Control_c, 0, 64, 78
1, 51101, Note_off_c, 0, 76, 49
1, 51107, Control_c, 0, 64, 72
1, 51120, Note_on_c, 0, 75, 61
1, 51121, Control_c, 0, 64, 67
1, 51136, Control_c, 0, 64, 62
1, 51151, Control_c, 0, 64, 57
1, 51166, Control_c, 0, 64, 53
1, 51173, Note_on_c, 0, 73, 69
1, 51181, Control_c, 0, 64, 48
1, 51182, Note_off_c, 0, 68, 51
1, 51186, Note_off_c, 0, 75, 63
1, 51195, Control_c, 0, 64, 43
1, 51210, Control_c, 0, 64, 37
1, 51224, Note_on_c, 0, 71, 73
1, 51226, Control_c, 0, 64, 0
1, 51235, Note_off_c, 0, 73, 62
1, 51264, Note_off_c, 0, 71, 61
1, 51286, Note_on_c, 0, 61, 31
1, 51298, Note_on_c, 0, 67, 56
1, 51304, Note_on_c, 0, 69, 51
1, 51330, Control_c, 0, 64, 35
1, 51332, Note_off_c, 0, 67, 58
1, 51332, Note_off_c, 0, 69, 55
1, 51344, Control_c, 0, 64, 45
1, 51352, Note_on_c, 0, 71, 60
1, 51359, Control_c, 0, 64, 53
1, 51374, Control_c, 0, 64, 56
1, 51389, Control_c, 0, 64, 57
1, 51396, Note_off_c, 0, 71, 64
1, 51408, Note_off_c, 0, 61, 41
1, 51423, Note_on_c, 0, 73, 37
1, 51429, Note_on_c, 0, 75, 67
1, 51449, Control_c, 0, 64, 57
1, 51455, Note_off_c, 0, 73, 50
1, 51467, Note_off_c, 0, 75, 59
1, 51493, Control_c, 0, 64, 59
1, 51504, Note_on_c, 0, 76, 65
1, 51508, Control_c, 0, 64, 61
1, 51523, Control_c, 0, 64, 63
1, 51525, Note_on_c, 0, 68, 54
1, 51537, Control_c, 0, 64, 65
1, 51552, Control_c, 0, 64, 66
1, 51554, Note_off_c, 0, 68, 62
1, 51556, Note_off_c, 0, 76, 60
1, 51567, Note_on_c, 0, 75, 62
1, 51567, Control_c, 0, 64, 66
1, 51582, Control_c, 0, 64, 67
1, 51597, Control_c, 0, 64, 68
1, 51606, Note_on_c, 0, 73, 66
1, 51610, Note_off_c, 0, 75, 59
1, 51611, Control_c, 0, 64, 69
1, 51626, Control_c, 0, 64, 70
1, 51641, Control_c, 0, 64, 71
1, 51656, Control_c, 0, 64, 72
1, 51672, Note_on_c, 0, 71, 52
1, 51681, Note_off_c, 0, 73, 57
1, 51700, Control_c, 0, 64, 72
1, 51703, Note_off_c, 0, 71, 66
1, 51717, Note_on_c, 0, 69, 52
1, 51730, Control_c, 0, 64, 73
1, 51747, Note_off_c, 0, 69, 58
1, 51767, Control_c, 0, 64, 73
1, 51782, Control_c, 0, 64, 72
1, 51797, Control_c, 0, 64, 62
1, 51811, Control_c, 0, 64, 0
1, 51815, Note_on_c, 0, 56, 53
1, 51915, Control_c, 0, 64, 40
1, 51930, Control_c, 0, 64, 48
1, 51944, Control_c, 0, 64, 56
1, 51955, Note_on_c, 0, 63, 53
1, 51959, Control_c, 0, 64, 59
1, 51975, Control_c, 0, 64, 59
1, 52005, Note_on_c, 0, 68, 69
1, 52005, Note_off_c, 0, 63, 61
1, 52005, Control_c, 0, 64, 60
1, 52021, Control_c, 0, 64, 63
1, 52024, Note_off_c, 0, 68, 66
1, 52036, Control_c, 0, 64, 65
1, 52050, Control_c, 0, 64, 66
1, 52059, Note_on_c, 0, 68, 67
1, 52065, Control_c, 0, 64, 67
1, 52079, Note_off_c, 0, 68, 62
1, 52080, Control_c, 0, 64, 68
1, 52094, Control_c, 0, 64, 70
1, 52109, Control_c, 0, 64, 72
1, 52124, Control_c, 0, 64, 73
1, 52128, Note_on_c, 0, 68, 66
1, 52139, Control_c, 0, 64, 75
1, 52154, Control_c, 0, 64, 76
1, 52155, Note_off_c, 0, 68, 61
1, 52168, Control_c, 0, 64, 76
1, 52170, Note_on_c, 0, 72, 75
1, 52174, Note_on_c, 0, 75, 75
1, 52183, Control_c, 0, 64, 77
1, 52192, Note_off_c, 0, 72, 70
1, 52196, Note_off_c, 0, 75, 70
1, 52198, Control_c, 0, 64, 77
1, 52213, Control_c, 0, 64, 78
1, 52228, Control_c, 0, 64, 78
1, 52242, Control_c, 0, 64, 79
1, 52257, Control_c, 0, 64, 81
1, 52272, Control_c, 0, 64, 82
1, 52286, Control_c, 0, 64, 83
1, 52301, Control_c, 0, 64, 83
1, 52316, Control_c, 0, 64, 84
1, 52331, Control_c, 0, 64, 85
1, 52346, Control_c, 0, 64, 86
1, 52347, Note_on_c, 0, 63, 48
1, 52358, Note_off_c, 0, 56, 53
1, 52361, Control_c, 0, 64, 88
1, 52372, Note_on_c, 0, 68, 77
1, 52373, Note_off_c, 0, 63, 58
1, 52376, Control_c, 0, 64, 89
1, 52387, Note_off_c, 0, 68, 70
1, 52405, Control_c, 0, 64, 89
1, 52428, Note_on_c, 0, 68, 88
1, 52435, Control_c, 0, 64, 90
1, 52446, Note_off_c, 0, 68, 73
1, 52450, Control_c, 0, 64, 90
1, 52465, Control_c, 0, 64, 91
1, 52499, Note_on_c, 0, 68, 82
1, 52501, Control_c, 0, 64, 92
1, 52519, Note_off_c, 0, 68, 66
1, 52531, Control_c, 0, 64, 92
1, 52547, Note_on_c, 0, 56, 50
1, 52572, Note_on_c, 0, 68, 85
1, 52572, Note_off_c, 0, 56, 56
1, 52575, Control_c, 0, 64, 93
1, 52575, Control_c, 0, 67, 114
1, 52589, Note_off_c, 0, 68, 74
1, 52590, Control_c, 0, 67, 102
1, 52605, Control_c, 0, 67, 91
1, 52620, Control_c, 0, 67, 82
1, 52628, Note_on_c, 0, 68, 88
1, 52635, Control_c, 0, 64, 94
1, 52635, Control_c, 0, 67, 70
1, 52649, Note_off_c, 0, 68, 68
1, 52650, Control_c, 0, 64, 94
1, 52650, Control_c, 0, 67, 54
1, 52665, Control_c, 0, 64, 95
1, 52665, Control_c, 0, 67, 36
1, 52680, Control_c, 0, 67, 19
1, 52689, Note_on_c, 0, 68, 89
1, 52694, Control_c, 0, 64, 97
1, 52694, Control_c, 0, 67, 0
1, 52709, Control_c, 0, 64, 99
1, 52715, Note_off_c, 0, 68, 55
1, 52723, Note_on_c, 0, 63, 40
1, 52724, Control_c, 0, 64, 101
1, 52752, Note_on_c, 0, 68, 79
1, 52754, Control_c, 0, 64, 104
1, 52757, Note_off_c, 0, 63, 55
1, 52767, Note_off_c, 0, 68, 69
1, 52783, Control_c, 0, 64, 108
1, 52794, Note_on_c, 0, 69, 33
1, 52794, Note_off_c, 0, 69, 127
1, 52798, Control_c, 0, 64, 112
1, 52805, Note_on_c, 0, 68, 90
1, 52814, Control_c, 0, 64, 118
1, 52816, Note_off_c, 0, 68, 76
1, 52829, Control_c, 0, 64, 127
1, 52829, Poly_aftertouch_c, 0, 69, 0
1, 52848, Note_on_c, 0, 68, 91
1, 52873, Control_c, 0, 64, 107
1, 52886, Note_off_c, 0, 68, 63
1, 52888, Control_c, 0, 64, 77
1, 52903, Control_c, 0, 64, 44
1, 52909, Note_on_c, 0, 61, 84
1, 52917, Control_c, 0, 64, 0
1, 52991, Control_c, 0, 64, 61
1, 53006, Control_c, 0, 64, 78
1, 53021, Control_c, 0, 64, 91
1, 53036, Control_c, 0, 64, 116
1, 53051, Control_c, 0, 64, 127
1, 53069, Note_on_c, 0, 68, 74
1, 53070, Note_off_c, 0, 61, 63
1, 53091, Note_off_c, 0, 68, 71
1, 53110, Note_on_c, 0, 67, 54
1, 53130, Note_on_c, 0, 69, 41
1, 53137, Note_on_c, 0, 71, 71
1, 53149, Note_off_c, 0, 67, 65
1, 53159, Note_off_c, 0, 69, 54
1, 53190, Note_on_c, 0, 73, 80
1, 53193, Note_off_c, 0, 71, 66
1, 53216, Note_off_c, 0, 73, 68
1, 53222, Note_on_c, 0, 75, 67
1, 53248, Note_off_c, 0, 75, 65
1, 53269, Note_on_c, 0, 76, 85
1, 53313, Note_on_c, 0, 78, 83
1, 53315, Note_off_c, 0, 76, 65
1, 53344, Note_on_c, 0, 75, 68
1, 53357, Note_on_c, 0, 80, 82
1, 53374, Note_off_c, 0, 78, 63
1, 53402, Note_on_c, 0, 81, 96
1, 53403, Note_off_c, 0, 80, 65
1, 53405, Note_off_c, 0, 75, 57
1, 53456, Note_on_c, 0, 80, 87
1, 53458, Control_c, 0, 67, 19
1, 53471, Note_on_c, 0, 78, 88
1, 53476, Note_off_c, 0, 81, 64
1, 53488, Control_c, 0, 67, 22
1, 53502, Control_c, 0, 67, 24
1, 53508, Note_off_c, 0, 80, 68
1, 53517, Control_c, 0, 67, 27
1, 53523, Note_off_c, 0, 78, 58
1, 53529, Note_on_c, 0, 76, 83
1, 53532, Control_c, 0, 67, 31
1, 53547, Control_c, 0, 67, 38
1, 53562, Control_c, 0, 67, 45
1, 53577, Control_c, 0, 64, 106
1, 53577, Control_c, 0, 67, 53
1, 53577, Note_on_c, 0, 68, 53
1, 53588, Note_on_c, 0, 75, 69
1, 53589, Note_off_c, 0, 76, 60
1, 53591, Control_c, 0, 64, 83
1, 53591, Control_c, 0, 67, 65
1, 53607, Control_c, 0, 64, 69
1, 53607, Control_c, 0, 67, 78
1, 53622, Control_c, 0, 64, 61
1, 53622, Control_c, 0, 67, 89
1, 53626, Note_on_c, 0, 73, 75
1, 53637, Control_c, 0, 64, 57
1, 53637, Control_c, 0, 67, 97
1, 53648, Note_off_c, 0, 68, 43
1, 53651, Control_c, 0, 64, 56
1, 53651, Control_c, 0, 67, 104
1, 53660, Note_off_c, 0, 75, 63
1, 53666, Control_c, 0, 64, 55
1, 53666, Control_c, 0, 67, 108
1, 53681, Control_c, 0, 64, 55
1, 53681, Control_c, 0, 67, 111
1, 53687, Note_on_c, 0, 71, 75
1, 53696, Control_c, 0, 64, 56
1, 53696, Control_c, 0, 67, 116
1, 53698, Note_off_c, 0, 73, 63
1, 53711, Control_c, 0, 64, 60
1, 53711, Control_c, 0, 67, 122
1, 53726, Control_c, 0, 64, 63
1, 53726, Control_c, 0, 67, 127
1, 53726, Note_off_c, 0, 71, 62
1, 53738, Note_on_c, 0, 61, 48
1, 53740, Control_c, 0, 64, 64
1, 53747, Note_on_c, 0, 67, 67
1, 53755, Control_c, 0, 64, 63
1, 53759, Note_on_c, 0, 69, 61
1, 53764, Note_off_c, 0, 61, 60
1, 53770, Control_c, 0, 64, 62
1, 53785, Note_off_c, 0, 69, 54
1, 53785, Control_c, 0, 64, 63
1, 53788, Note_off_c, 0, 67, 64
1, 53800, Control_c, 0, 64, 64
1, 53808, Note_on_c, 0, 71, 61
1, 53814, Control_c, 0, 64, 67
1, 53829, Control_c, 0, 64, 70
1, 53844, Control_c, 0, 64, 72
1, 53854, Note_off_c, 0, 71, 61
1, 53858, Control_c, 0, 64, 74
1, 53873, Control_c, 0, 64, 75
1, 53881, Note_on_c, 0, 75, 70
1, 53884, Note_on_c, 0, 73, 31
1, 53888, Control_c, 0, 64, 77
1, 53903, Control_c, 0, 64, 78
1, 53918, Control_c, 0, 64, 78
1, 53920, Note_off_c, 0, 73, 43
1, 53928, Note_off_c, 0, 75, 60
1, 53932, Control_c, 0, 64, 79
1, 53960, Note_on_c, 0, 76, 61
1, 54000, Control_c, 0, 64, 78
1, 54014, Control_c, 0, 64, 78
1, 54020, Note_off_c, 0, 76, 62
1, 54021, Note_on_c, 0, 75, 65
1, 54029, Control_c, 0, 64, 77
1, 54044, Control_c, 0, 64, 76
1, 54056, Note_on_c, 0, 68, 56
1, 54059, Control_c, 0, 64, 76
1, 54066, Note_on_c, 0, 73, 67
1, 54073, Control_c, 0, 64, 75
1, 54077, Note_off_c, 0, 68, 64
1, 54078, Note_off_c, 0, 75, 62
1, 54088, Control_c, 0, 64, 74
1, 54128, Note_on_c, 0, 71, 53
1, 54135, Note_off_c, 0, 73, 59
1, 54161, Note_off_c, 0, 71, 66
1, 54173, Note_on_c, 0, 69, 51
1, 54193, Note_off_c, 0, 69, 61
1, 54236, Control_c, 0, 64, 67
1, 54251, Control_c, 0, 64, 37
1, 54257, Note_on_c, 0, 56, 58
1, 54266, Control_c, 0, 64, 0
1, 54385, Control_c, 0, 64, 31
1, 54433, Note_on_c, 0, 63, 51
1, 54444, Control_c, 0, 64, 35
1, 54459, Control_c, 0, 64, 42
1, 54465, Note_off_c, 0, 63, 65
1, 54468, Note_on_c, 0, 68, 72
1, 54474, Control_c, 0, 64, 47
1, 54483, Note_off_c, 0, 68, 67
1, 54489, Control_c, 0, 64, 49
1, 54504, Control_c, 0, 64, 51
1, 54519, Control_c, 0, 64, 53
1, 54531, Note_on_c, 0, 68, 68
1, 54534, Control_c, 0, 64, 57
1, 54546, Note_off_c, 0, 68, 68
1, 54549, Control_c, 0, 64, 60
1, 54563, Control_c, 0, 64, 62
1, 54578, Control_c, 0, 64, 62
1, 54605, Note_on_c, 0, 68, 55
1, 54623, Control_c, 0, 64, 63
1, 54629, Note_off_c, 0, 68, 59
1, 54637, Control_c, 0, 64, 64
1, 54644, Note_on_c, 0, 72, 64
1, 54645, Note_on_c, 0, 75, 67
1, 54652, Control_c, 0, 64, 65
1, 54665, Note_off_c, 0, 72, 66
1, 54670, Note_off_c, 0, 75, 67
1, 54681, Control_c, 0, 64, 66
1, 54696, Control_c, 0, 64, 66
1, 54711, Control_c, 0, 64, 68
1, 54734, Control_c, 0, 64, 69
1, 54748, Control_c, 0, 64, 71
1, 54763, Control_c, 0, 64, 72
1, 54778, Control_c, 0, 64, 72
1, 54793, Control_c, 0, 64, 73
1, 54808, Control_c, 0, 64, 75
1, 54823, Control_c, 0, 64, 77
1, 54837, Control_c, 0, 64, 80
1, 54852, Control_c, 0, 64, 82
1, 54857, Note_on_c, 0, 63, 39
1, 54859, Note_on_c, 0, 68, 75
1, 54867, Control_c, 0, 64, 84
1, 54879, Note_off_c, 0, 68, 68
1, 54880, Note_off_c, 0, 56, 37
1, 54882, Control_c, 0, 64, 84
1, 54894, Note_off_c, 0, 63, 49
1, 54896, Control_c, 0, 64, 85
1, 54911, Control_c, 0, 64, 87
1, 54926, Control_c, 0, 64, 90
1, 54927, Note_on_c, 0, 68, 77
1, 54941, Control_c, 0, 64, 93
1, 54947, Note_off_c, 0, 68, 62
1, 54956, Control_c, 0, 64, 95
1, 54970, Control_c, 0, 64, 96
1, 54979, Note_on_c, 0, 68, 73
1, 55008, Note_off_c, 0, 68, 66
1, 55033, Note_on_c, 0, 56, 58
1, 55052, Note_on_c, 0, 68, 88
1, 55061, Note_off_c, 0, 56, 60
1, 55072, Note_off_c, 0, 68, 72
1, 55116, Note_on_c, 0, 68, 78
1, 55127, Note_off_c, 0, 68, 74
1, 55163, Note_on_c, 0, 68, 88
1, 55178, Control_c, 0, 64, 98
1, 55186, Note_off_c, 0, 68, 68
1, 55202, Note_on_c, 0, 63, 63
1, 55232, Note_off_c, 0, 63, 66
1, 55241, Note_on_c, 0, 68, 83
1, 55256, Note_off_c, 0, 68, 74
1, 55300, Note_on_c, 0, 68, 88
1, 55320, Note_off_c, 0, 68, 69
1, 55327, Control_c, 0, 64, 92
1, 55342, Control_c, 0, 64, 79
1, 55357, Control_c, 0, 64, 67
1, 55360, Note_on_c, 0, 68, 87
1, 55371, Control_c, 0, 64, 60
1, 55382, Note_off_c, 0, 68, 69
1, 55386, Control_c, 0, 64, 62
1, 55401, Control_c, 0, 64, 65
1, 55410, Note_on_c, 0, 56, 87
1, 55416, Control_c, 0, 64, 71
1, 55430, Control_c, 0, 64, 78
1, 55431, Note_off_c, 0, 56, 71
1, 55445, Control_c, 0, 64, 86
1, 55460, Control_c, 0, 64, 94
1, 55482, Control_c, 0, 64, 100
1, 55497, Control_c, 0, 64, 105
1, 55512, Control_c, 0, 64, 110
1, 55526, Control_c, 0, 64, 117
1, 55541, Control_c, 0, 64, 127
1, 55633, Note_on_c, 0, 63, 65
1, 55637, Note_on_c, 0, 68, 77
1, 55656, Note_off_c, 0, 68, 68
1, 55661, Note_off_c, 0, 63, 65
1, 55696, Note_on_c, 0, 68, 82
1, 55708, Note_off_c, 0, 68, 72
1, 55744, Note_on_c, 0, 68, 86
1, 55798, Note_off_c, 0, 68, 63
1, 55804, Note_on_c, 0, 72, 78
1, 55807, Note_on_c, 0, 75, 81
1, 55825, Note_off_c, 0, 72, 72
1, 55828, Note_off_c, 0, 75, 72
1, 55991, Note_on_c, 0, 63, 59
1, 56011, Note_on_c, 0, 68, 73
1, 56016, Note_off_c, 0, 63, 65
1, 56030, Note_off_c, 0, 68, 72
1, 56068, Note_on_c, 0, 68, 76
1, 56090, Note_off_c, 0, 68, 67
1, 56137, Note_on_c, 0, 68, 79
1, 56155, Note_off_c, 0, 68, 72
1, 56196, Note_on_c, 0, 56, 64
1, 56201, Note_on_c, 0, 68, 90
1, 56219, Note_off_c, 0, 68, 73
1, 56242, Note_off_c, 0, 56, 63
1, 56246, Control_c, 0, 67, 119
1, 56260, Control_c, 0, 67, 103
1, 56272, Note_on_c, 0, 68, 83
1, 56275, Control_c, 0, 67, 84
1, 56285, Note_off_c, 0, 68, 77
1, 56290, Control_c, 0, 67, 63
1, 56305, Control_c, 0, 67, 36
1, 56320, Control_c, 0, 67, 0
1, 56325, Note_on_c, 0, 68, 83
1, 56364, Note_off_c, 0, 68, 61
1, 56379, Note_on_c, 0, 63, 54
1, 56391, Note_on_c, 0, 68, 77
1, 56403, Note_off_c, 0, 63, 61
1, 56416, Note_off_c, 0, 68, 68
1, 56450, Note_on_c, 0, 68, 81
1, 56472, Note_off_c, 0, 68, 70
1, 56496, Note_on_c, 0, 68, 90
1, 56531, Note_off_c, 0, 68, 68
1, 56543, Control_c, 0, 64, 114
1, 56558, Control_c, 0, 64, 70
1, 56565, Note_on_c, 0, 56, 99
1, 56573, Control_c, 0, 64, 0
1, 56591, Note_off_c, 0, 56, 67
1, 56602, Control_c, 0, 64, 46
1, 56617, Control_c, 0, 64, 66
1, 56632, Control_c, 0, 64, 89
1, 56647, Control_c, 0, 64, 127
1, 56776, Note_on_c, 0, 68, 98
1, 56792, Note_off_c, 0, 68, 72
1, 56837, Note_on_c, 0, 68, 91
1, 56856, Note_off_c, 0, 68, 69
1, 56892, Note_on_c, 0, 68, 100
1, 56922, Note_off_c, 0, 68, 66
1, 56961, Note_on_c, 0, 68, 100
1, 56988, Note_off_c, 0, 68, 69
1, 57181, Note_on_c, 0, 68, 73
1, 57196, Note_off_c, 0, 68, 68
1, 57243, Note_on_c, 0, 68, 88
1, 57256, Note_off_c, 0, 68, 72
1, 57291, Note_on_c, 0, 68, 88
1, 57321, Note_off_c, 0, 68, 64
1, 57355, Note_on_c, 0, 68, 74
1, 57371, Note_off_c, 0, 68, 73
1, 57427, Note_on_c, 0, 68, 92
1, 57443, Note_off_c, 0, 68, 74
1, 57488, Note_on_c, 0, 68, 82
1, 57502, Note_off_c, 0, 68, 77
1, 57527, Note_on_c, 0, 68, 88
1, 57548, Note_off_c, 0, 68, 70
1, 57592, Note_on_c, 0, 68, 88
1, 57613, Note_off_c, 0, 68, 70
1, 57621, Note_on_c, 0, 69, 67
1, 57640, Note_off_c, 0, 69, 64
1, 57650, Note_on_c, 0, 68, 84
1, 57665, Note_off_c, 0, 68, 76
1, 57701, Note_on_c, 0, 68, 111
1, 57732, Note_off_c, 0, 68, 67
1, 57908, Note_on_c, 0, 68, 94
1, 57924, Note_off_c, 0, 68, 71
1, 57977, Note_on_c, 0, 68, 83
1, 57989, Note_off_c, 0, 68, 77
1, 58021, Note_on_c, 0, 68, 84
1, 58048, Note_off_c, 0, 68, 65
1, 58075, Note_on_c, 0, 68, 102
1, 58099, Note_off_c, 0, 68, 62
1, 58272, Note_on_c, 0, 68, 73
1, 58290, Note_off_c, 0, 68, 68
1, 58345, Note_on_c, 0, 68, 75
1, 58361, Note_off_c, 0, 68, 65
1, 58388, Note_on_c, 0, 68, 76
1, 58418, Note_off_c, 0, 68, 67
1, 58439, Note_on_c, 0, 68, 93
1, 58459, Note_off_c, 0, 68, 69
1, 58528, Note_on_c, 0, 68, 89
1, 58540, Note_off_c, 0, 68, 75
1, 58582, Note_on_c, 0, 68, 86
1, 58627, Note_off_c, 0, 68, 69
1, 58686, Note_on_c, 0, 68, 88
1, 58703, Note_off_c, 0, 68, 73
1, 58734, Note_on_c, 0, 68, 83
1, 58744, Control_c, 0, 64, 104
1, 58757, Note_off_c, 0, 68, 69
1, 58759, Control_c, 0, 64, 65
1, 58774, Control_c, 0, 64, 40
1, 58789, Control_c, 0, 64, 45
1, 58791, Note_on_c, 0, 68, 103
1, 58803, Control_c, 0, 64, 57
1, 58803, Control_c, 0, 67, 20
1, 58808, Note_off_c, 0, 68, 69
1, 58818, Control_c, 0, 64, 68
1, 58818, Control_c, 0, 67, 23
1, 58833, Control_c, 0, 64, 83
1, 58833, Control_c, 0, 67, 29
1, 58848, Control_c, 0, 64, 122
1, 58848, Control_c, 0, 67, 37
1, 58862, Control_c, 0, 64, 127
1, 58862, Control_c, 0, 67, 46
1, 58877, Control_c, 0, 67, 57
1, 58892, Control_c, 0, 67, 70
1, 58907, Control_c, 0, 67, 83
1, 58922, Control_c, 0, 67, 95
1, 58937, Control_c, 0, 67, 106
1, 58952, Control_c, 0, 67, 118
1, 58966, Control_c, 0, 67, 127
1, 58971, Note_on_c, 0, 68, 99
1, 58990, Note_off_c, 0, 68, 72
1, 59041, Note_on_c, 0, 68, 83
1, 59055, Note_off_c, 0, 68, 77
1, 59101, Note_on_c, 0, 68, 70
1, 59118, Note_off_c, 0, 68, 72
1, 59144, Control_c, 0, 64, 108
1, 59159, Control_c, 0, 64, 82
1, 59168, Note_on_c, 0, 68, 77
1, 59173, Control_c, 0, 64, 70
1, 59181, Note_off_c, 0, 68, 71
1, 59188, Control_c, 0, 64, 64
1, 59205, Control_c, 0, 64, 64
1, 59226, Control_c, 0, 64, 64
1, 59241, Control_c, 0, 64, 65
1, 59244, Note_on_c, 0, 68, 73
1, 59256, Control_c, 0, 64, 65
1, 59263, Note_off_c, 0, 68, 69
1, 59271, Control_c, 0, 64, 68
1, 59285, Control_c, 0, 64, 72
1, 59300, Control_c, 0, 64, 73
1, 59311, Note_on_c, 0, 68, 74
1, 59315, Control_c, 0, 64, 69
1, 59330, Control_c, 0, 64, 65
1, 59345, Control_c, 0, 64, 64
1, 59348, Note_off_c, 0, 68, 0
1, 59360, Control_c, 0, 64, 67
1, 59360, Note_on_c, 0, 68, 69
1, 59375, Control_c, 0, 64, 72
1, 59386, Note_off_c, 0, 68, 66
1, 59390, Control_c, 0, 64, 74
1, 59443, Note_on_c, 0, 68, 75
1, 59449, Control_c, 0, 64, 75
1, 59461, Note_off_c, 0, 68, 73
1, 59464, Control_c, 0, 64, 75
1, 59494, Control_c, 0, 64, 75
1, 59514, Note_on_c, 0, 68, 71
1, 59539, Control_c, 0, 64, 74
1, 59551, Note_off_c, 0, 68, 0
1, 59553, Control_c, 0, 64, 71
1, 59568, Control_c, 0, 64, 67
1, 59583, Control_c, 0, 64, 66
1, 59586, Poly_aftertouch_c, 0, 68, 0
1, 59598, Control_c, 0, 64, 68
1, 59612, Control_c, 0, 64, 71
1, 59627, Control_c, 0, 64, 73
1, 59642, Control_c, 0, 64, 70
1, 59650, Note_on_c, 0, 68, 68
1, 59657, Control_c, 0, 64, 67
1, 59671, Note_off_c, 0, 68, 71
1, 59672, Control_c, 0, 64, 66
1, 59686, Control_c, 0, 64, 66
1, 59701, Control_c, 0, 64, 65
1, 59716, Control_c, 0, 64, 60
1, 59730, Note_on_c, 0, 68, 69
1, 59731, Control_c, 0, 64, 51
1, 59760, Control_c, 0, 64, 59
1, 59770, Note_off_c, 0, 68, 0
1, 59775, Control_c, 0, 64, 66
1, 59784, Note_on_c, 0, 68, 54
1, 59790, Control_c, 0, 64, 72
1, 59804, Control_c, 0, 64, 77
1, 59808, Note_off_c, 0, 68, 64
1, 59819, Control_c, 0, 64, 78
1, 59849, Control_c, 0, 64, 78
1, 59864, Control_c, 0, 64, 80
1, 59879, Control_c, 0, 64, 83
1, 59888, Note_on_c, 0, 68, 67
1, 59893, Control_c, 0, 64, 86
1, 59908, Control_c, 0, 64, 88
1, 59911, Note_off_c, 0, 68, 70
1, 59923, Control_c, 0, 64, 88
1, 59941, Note_on_c, 0, 68, 63
1, 59962, Note_off_c, 0, 68, 70
1, 60035, Control_c, 0, 64, 87
1, 60050, Control_c, 0, 64, 82
1, 60065, Control_c, 0, 64, 72
1, 60080, Control_c, 0, 64, 62
1, 60095, Control_c, 0, 64, 51
1, 60101, Note_on_c, 0, 59, 32
1, 60103, Note_on_c, 0, 71, 43
1, 60109, Control_c, 0, 64, 46
1, 60124, Control_c, 0, 64, 47
1, 60139, Control_c, 0, 64, 53
1, 60145, Note_on_c, 0, 65, 9
1, 60154, Control_c, 0, 64, 60
1, 60169, Control_c, 0, 64, 63
1, 60183, Control_c, 0, 64, 66
1, 60185, Note_on_c, 0, 68, 69
1, 60198, Control_c, 0, 64, 69
1, 60202, Note_off_c, 0, 65, 50
1, 60212, Note_off_c, 0, 71, 64
1, 60213, Control_c, 0, 64, 73
1, 60225, Note_off_c, 0, 68, 66
1, 60227, Control_c, 0, 64, 77
1, 60242, Control_c, 0, 64, 81
1, 60250, Note_off_c, 0, 59, 62
1, 60257, Control_c, 0, 64, 85
1, 60272, Control_c, 0, 64, 88
1, 60275, Note_on_c, 0, 68, 58
1, 60287, Control_c, 0, 64, 93
1, 60302, Control_c, 0, 64, 98
1, 60311, Note_off_c, 0, 68, 65
1, 60317, Control_c, 0, 64, 105
1, 60332, Control_c, 0, 64, 111
1, 60347, Control_c, 0, 64, 118
1, 60361, Control_c, 0, 64, 127
1, 60376, Note_on_c, 0, 68, 55
1, 60397, Note_off_c, 0, 68, 63
1, 60459, Note_on_c, 0, 49, 31
1, 60477, Note_on_c, 0, 68, 64
1, 60502, Note_off_c, 0, 68, 67
1, 60524, Note_off_c, 0, 49, 56
1, 60551, Note_on_c, 0, 68, 64
1, 60577, Note_on_c, 0, 42, 55
1, 60581, Note_off_c, 0, 68, 66
1, 60616, Note_on_c, 0, 49, 35
1, 60626, Note_on_c, 0, 68, 51
1, 60633, Note_off_c, 0, 42, 61
1, 60645, Note_off_c, 0, 68, 63
1, 60648, Note_on_c, 0, 59, 60
1, 60660, Note_off_c, 0, 49, 62
1, 60680, Note_off_c, 0, 59, 66
1, 60686, Note_on_c, 0, 71, 74
1, 60710, Note_on_c, 0, 65, 54
1, 60739, Note_off_c, 0, 71, 52
1, 60740, Note_off_c, 0, 65, 61
1, 60750, Note_on_c, 0, 68, 67
1, 60776, Note_off_c, 0, 68, 70
1, 60824, Note_on_c, 0, 68, 68
1, 60841, Note_off_c, 0, 68, 67
1, 60893, Note_on_c, 0, 68, 66
1, 60924, Note_off_c, 0, 68, 0
1, 60924, Note_on_c, 0, 68, 62
1, 60956, Note_off_c, 0, 68, 67
1, 60998, Note_on_c, 0, 68, 79
1, 61029, Note_off_c, 0, 68, 59
1, 61038, Note_on_c, 0, 59, 52
1, 61048, Note_on_c, 0, 65, 69
1, 61051, Note_on_c, 0, 71, 69
1, 61065, Note_on_c, 0, 68, 73
1, 61074, Note_off_c, 0, 65, 65
1, 61074, Note_off_c, 0, 71, 70
1, 61080, Control_c, 0, 64, 111
1, 61087, Note_off_c, 0, 68, 69
1, 61091, Note_off_c, 0, 59, 54
1, 61095, Control_c, 0, 64, 87
1, 61110, Control_c, 0, 64, 69
1, 61124, Note_on_c, 0, 68, 81
1, 61125, Control_c, 0, 64, 53
1, 61139, Control_c, 0, 64, 0
1, 61143, Note_off_c, 0, 68, 71
1, 61183, Note_on_c, 0, 68, 78
1, 61204, Note_off_c, 0, 68, 67
1, 61272, Note_on_c, 0, 73, 60
1, 61282, Note_on_c, 0, 72, 75
1, 61292, Note_off_c, 0, 73, 63
1, 61295, Note_on_c, 0, 60, 47
1, 61312, Note_on_c, 0, 66, 20
1, 61318, Control_c, 0, 64, 30
1, 61332, Control_c, 0, 64, 46
1, 61340, Note_off_c, 0, 66, 50
1, 61347, Control_c, 0, 64, 57
1, 61362, Control_c, 0, 64, 61
1, 61363, Note_on_c, 0, 73, 50
1, 61369, Note_off_c, 0, 60, 60
1, 61369, Note_off_c, 0, 72, 60
1, 61376, Control_c, 0, 64, 63
1, 61391, Control_c, 0, 64, 65
1, 61406, Control_c, 0, 64, 68
1, 61421, Control_c, 0, 64, 72
1, 61435, Note_off_c, 0, 73, 0
1, 61435, Note_on_c, 0, 73, 27
1, 61436, Control_c, 0, 64, 76
1, 61450, Control_c, 0, 64, 80
1, 61465, Control_c, 0, 64, 82
1, 61482, Note_off_c, 0, 73, 23
1, 61488, Control_c, 0, 64, 82
1, 61500, Note_on_c, 0, 71, 50
1, 61503, Control_c, 0, 64, 83
1, 61507, Note_on_c, 0, 68, 74
1, 61512, Note_on_c, 0, 59, 46
1, 61524, Note_on_c, 0, 65, 30
1, 61533, Note_off_c, 0, 68, 68
1, 61536, Note_off_c, 0, 71, 51
1, 61547, Control_c, 0, 64, 79
1, 61562, Note_off_c, 0, 65, 48
1, 61562, Control_c, 0, 64, 72
1, 61573, Note_on_c, 0, 68, 73
1, 61576, Control_c, 0, 64, 66
1, 61591, Control_c, 0, 64, 61
1, 61599, Note_off_c, 0, 68, 67
1, 61607, Control_c, 0, 64, 58
1, 61622, Control_c, 0, 64, 59
1, 61627, Poly_aftertouch_c, 0, 68, 0
1, 61634, Note_on_c, 0, 68, 69
1, 61637, Control_c, 0, 64, 62
1, 61651, Note_off_c, 0, 68, 69
1, 61652, Control_c, 0, 64, 65
1, 61667, Control_c, 0, 64, 67
1, 61681, Control_c, 0, 64, 68
1, 61696, Control_c, 0, 64, 67
1, 61710, Note_on_c, 0, 68, 57
1, 61712, Control_c, 0, 64, 68
1, 61727, Control_c, 0, 64, 69
1, 61732, Note_off_c, 0, 68, 38
1, 61742, Note_off_c, 0, 59, 60
1, 61742, Control_c, 0, 64, 71
1, 61755, Note_on_c, 0, 68, 74
1, 61756, Control_c, 0, 64, 71
1, 61771, Control_c, 0, 64, 71
1, 61779, Note_off_c, 0, 68, 67
1, 61786, Control_c, 0, 64, 70
1, 61800, Control_c, 0, 64, 69
1, 61824, Note_on_c, 0, 68, 71
1, 61840, Note_off_c, 0, 68, 71
1, 61845, Control_c, 0, 64, 67
1, 61860, Control_c, 0, 64, 65
1, 61868, Note_on_c, 0, 65, 59
1, 61869, Note_on_c, 0, 71, 76
1, 61874, Note_on_c, 0, 59, 55
1, 61874, Control_c, 0, 64, 64
1, 61888, Note_on_c, 0, 68, 82
1, 61890, Note_off_c, 0, 71, 72
1, 61891, Note_off_c, 0, 65, 60
1, 61902, Note_off_c, 0, 59, 66
1, 61919, Note_off_c, 0, 68, 68
1, 61919, Control_c, 0, 64, 63
1, 61934, Control_c, 0, 64, 57
1, 61948, Control_c, 0, 64, 43
1, 61963, Control_c, 0, 64, 34
1, 61978, Control_c, 0, 64, 37
1, 61989, Note_on_c, 0, 67, 61
1, 61992, Control_c, 0, 64, 42
1, 62007, Control_c, 0, 64, 39
1, 62009, Note_off_c, 0, 67, 62
1, 62022, Control_c, 0, 64, 0
1, 62064, Note_on_c, 0, 63, 76
1, 62067, Note_on_c, 0, 69, 72
1, 62083, Note_on_c, 0, 61, 43
1, 62090, Note_off_c, 0, 69, 69
1, 62090, Note_on_c, 0, 57, 38
1, 62104, Note_off_c, 0, 63, 61
1, 62113, Note_off_c, 0, 61, 35
1, 62126, Note_off_c, 0, 57, 53
1, 62155, Note_on_c, 0, 63, 60
1, 62189, Note_off_c, 0, 63, 63
1, 62256, Note_on_c, 0, 71, 68
1, 62258, Note_on_c, 0, 68, 71
1, 62260, Note_on_c, 0, 65, 46
1, 62266, Note_on_c, 0, 59, 46
1, 62275, Note_off_c, 0, 71, 67
1, 62283, Note_off_c, 0, 68, 67
1, 62287, Note_off_c, 0, 65, 54
1, 62290, Note_off_c, 0, 59, 55
1, 62351, Note_on_c, 0, 68, 69
1, 62376, Note_off_c, 0, 68, 69
1, 62426, Note_on_c, 0, 57, 52
1, 62436, Note_on_c, 0, 69, 51
1, 62442, Note_on_c, 0, 63, 44
1, 62455, Note_off_c, 0, 57, 61
1, 62460, Note_off_c, 0, 69, 57
1, 62470, Note_off_c, 0, 63, 55
1, 62517, Note_on_c, 0, 63, 49
1, 62541, Note_off_c, 0, 63, 58
1, 62548, Control_c, 0, 64, 36
1, 62563, Control_c, 0, 64, 47
1, 62578, Control_c, 0, 64, 55
1, 62593, Control_c, 0, 64, 60
1, 62608, Control_c, 0, 64, 62
1, 62612, Note_on_c, 0, 71, 51
1, 62619, Note_on_c, 0, 68, 62
1, 62622, Control_c, 0, 64, 64
1, 62634, Note_on_c, 0, 59, 42
1, 62637, Control_c, 0, 64, 66
1, 62645, Note_off_c, 0, 71, 65
1, 62646, Note_off_c, 0, 68, 66
1, 62652, Control_c, 0, 64, 68
1, 62660, Note_off_c, 0, 59, 59
1, 62667, Control_c, 0, 64, 71
1, 62682, Control_c, 0, 64, 73
1, 62696, Control_c, 0, 64, 75
1, 62710, Note_on_c, 0, 68, 64
1, 62711, Control_c, 0, 64, 78
1, 62725, Note_off_c, 0, 68, 67
1, 62726, Control_c, 0, 64, 80
1, 62741, Control_c, 0, 64, 83
1, 62755, Control_c, 0, 64, 85
1, 62770, Control_c, 0, 64, 87
1, 62782, Note_on_c, 0, 68, 69
1, 62785, Control_c, 0, 64, 89
1, 62800, Control_c, 0, 64, 92
1, 62801, Note_off_c, 0, 68, 66
1, 62815, Control_c, 0, 64, 94
1, 62827, Note_on_c, 0, 49, 47
1, 62830, Control_c, 0, 64, 96
1, 62859, Note_on_c, 0, 68, 75
1, 62859, Note_off_c, 0, 49, 54
1, 62873, Note_off_c, 0, 68, 71
1, 62904, Control_c, 0, 64, 98
1, 62928, Note_on_c, 0, 68, 65
1, 62932, Note_on_c, 0, 42, 64
1, 62946, Note_on_c, 0, 49, 65
1, 62946, Note_off_c, 0, 68, 64
1, 62980, Note_off_c, 0, 42, 64
1, 63000, Note_on_c, 0, 68, 38
1, 63000, Note_off_c, 0, 49, 62
1, 63000, Control_c, 0, 64, 100
1, 63001, Note_on_c, 0, 59, 59
1, 63020, Note_off_c, 0, 59, 66
1, 63021, Note_off_c, 0, 68, 59
1, 63032, Note_on_c, 0, 71, 81
1, 63065, Note_on_c, 0, 65, 51
1, 63074, Control_c, 0, 64, 102
1, 63083, Note_off_c, 0, 71, 62
1, 63085, Note_on_c, 0, 68, 84
1, 63091, Note_off_c, 0, 65, 59
1, 63111, Note_off_c, 0, 68, 68
1, 63148, Control_c, 0, 64, 104
1, 63168, Note_on_c, 0, 68, 74
1, 63178, Control_c, 0, 64, 106
1, 63203, Note_off_c, 0, 68, 66
1, 63208, Control_c, 0, 64, 109
1, 63238, Control_c, 0, 64, 113
1, 63247, Note_on_c, 0, 68, 69
1, 63253, Control_c, 0, 64, 119
1, 63265, Note_off_c, 0, 68, 73
1, 63268, Control_c, 0, 64, 127
1, 63310, Note_on_c, 0, 68, 71
1, 63344, Note_off_c, 0, 68, 0
1, 63346, Note_on_c, 0, 65, 69
1, 63347, Note_on_c, 0, 59, 59
1, 63354, Note_on_c, 0, 71, 74
1, 63372, Note_off_c, 0, 65, 68
1, 63377, Note_off_c, 0, 71, 69
1, 63378, Note_off_c, 0, 59, 67
1, 63381, Poly_aftertouch_c, 0, 68, 0
1, 63386, Control_c, 0, 64, 121
1, 63401, Control_c, 0, 64, 93
1, 63414, Note_on_c, 0, 68, 83
1, 63416, Control_c, 0, 64, 73
1, 63431, Control_c, 0, 64, 55
1, 63438, Note_off_c, 0, 68, 69
1, 63445, Control_c, 0, 64, 0
1, 63474, Note_on_c, 0, 68, 68
1, 63506, Note_off_c, 0, 68, 65
1, 63534, Note_on_c, 0, 72, 86
1, 63535, Note_on_c, 0, 66, 72
1, 63539, Note_on_c, 0, 73, 85
1, 63553, Note_on_c, 0, 60, 52
1, 63554, Note_off_c, 0, 72, 70
1, 63558, Note_off_c, 0, 66, 66
1, 63564, Control_c, 0, 64, 49
1, 63569, Note_off_c, 0, 73, 69
1, 63577, Note_off_c, 0, 60, 60
1, 63578, Control_c, 0, 64, 56
1, 63593, Control_c, 0, 64, 58
1, 63606, Note_on_c, 0, 73, 79
1, 63608, Control_c, 0, 64, 60
1, 63632, Note_off_c, 0, 73, 68
1, 63638, Control_c, 0, 64, 56
1, 63651, Poly_aftertouch_c, 0, 73, 0
1, 63652, Control_c, 0, 64, 52
1, 63661, Note_on_c, 0, 73, 58
1, 63667, Control_c, 0, 64, 54
1, 63682, Note_off_c, 0, 73, 71
1, 63682, Control_c, 0, 64, 59
1, 63697, Control_c, 0, 64, 58
1, 63709, Note_on_c, 0, 71, 82
1, 63712, Control_c, 0, 64, 53
1, 63724, Note_on_c, 0, 65, 64
1, 63726, Note_on_c, 0, 59, 57
1, 63734, Control_c, 0, 64, 47
1, 63736, Note_off_c, 0, 71, 71
1, 63742, Note_on_c, 0, 68, 82
1, 63745, Note_off_c, 0, 65, 66
1, 63749, Control_c, 0, 64, 49
1, 63763, Note_off_c, 0, 68, 71
1, 63764, Control_c, 0, 64, 57
1, 63778, Control_c, 0, 64, 64
1, 63791, Poly_aftertouch_c, 0, 68, 0
1, 63793, Control_c, 0, 64, 66
1, 63797, Note_on_c, 0, 68, 81
1, 63808, Control_c, 0, 64, 66
1, 63821, Note_off_c, 0, 68, 69
1, 63823, Control_c, 0, 64, 64
1, 63838, Control_c, 0, 64, 64
1, 63861, Note_on_c, 0, 68, 57
1, 63880, Note_off_c, 0, 68, 67
1, 63882, Control_c, 0, 64, 60
1, 63897, Control_c, 0, 64, 51
1, 63912, Control_c, 0, 64, 44
1, 63912, Note_on_c, 0, 68, 75
1, 63927, Control_c, 0, 64, 51
1, 63932, Note_off_c, 0, 68, 71
1, 63934, Note_off_c, 0, 59, 60
1, 63942, Control_c, 0, 64, 61
1, 63956, Control_c, 0, 64, 62
1, 63971, Control_c, 0, 64, 56
1, 63980, Note_on_c, 0, 68, 85
1, 63986, Control_c, 0, 64, 39
1, 64000, Note_off_c, 0, 68, 72
1, 64001, Control_c, 0, 64, 0
1, 64040, Note_on_c, 0, 68, 75
1, 64067, Note_off_c, 0, 68, 62
1, 64090, Note_on_c, 0, 71, 73
1, 64091, Note_on_c, 0, 65, 71
1, 64103, Note_on_c, 0, 59, 45
1, 64112, Note_on_c, 0, 68, 80
1, 64112, Note_off_c, 0, 71, 70
1, 64117, Note_off_c, 0, 65, 68
1, 64128, Note_off_c, 0, 59, 63
1, 64142, Note_off_c, 0, 68, 69
1, 64201, Note_on_c, 0, 68, 80
1, 64223, Note_off_c, 0, 68, 69
1, 64266, Note_on_c, 0, 69, 86
1, 64273, Note_on_c, 0, 57, 76
1, 64280, Note_on_c, 0, 61, 68
1, 64284, Note_off_c, 0, 69, 71
1, 64292, Note_on_c, 0, 63, 75
1, 64296, Note_off_c, 0, 57, 70
1, 64299, Note_off_c, 0, 61, 64
1, 64323, Note_off_c, 0, 63, 64
1, 64357, Control_c, 0, 67, 121
1, 64372, Control_c, 0, 67, 97
1, 64374, Note_on_c, 0, 63, 67
1, 64387, Control_c, 0, 67, 74
1, 64401, Control_c, 0, 67, 58
1, 64402, Note_off_c, 0, 63, 65
1, 64416, Control_c, 0, 67, 52
1, 64449, Note_on_c, 0, 71, 82
1, 64460, Note_on_c, 0, 59, 63
1, 64461, Control_c, 0, 67, 55
1, 64472, Note_on_c, 0, 65, 52
1, 64475, Note_on_c, 0, 68, 76
1, 64479, Note_off_c, 0, 71, 69
1, 64483, Control_c, 0, 67, 60
1, 64487, Note_off_c, 0, 59, 65
1, 64496, Note_off_c, 0, 68, 70
1, 64497, Note_off_c, 0, 65, 58
1, 64498, Control_c, 0, 67, 65
1, 64513, Control_c, 0, 67, 70
1, 64527, Control_c, 0, 67, 82
1, 64542, Control_c, 0, 67, 100
1, 64556, Note_on_c, 0, 68, 76
1, 64557, Control_c, 0, 67, 125
1, 64572, Control_c, 0, 67, 127
1, 64588, Note_off_c, 0, 68, 65
1, 64624, Note_on_c, 0, 69, 74
1, 64636, Note_on_c, 0, 57, 54
1, 64645, Note_off_c, 0, 69, 70
1, 64657, Note_on_c, 0, 63, 56
1, 64660, Note_off_c, 0, 57, 59
1, 64679, Note_off_c, 0, 63, 61
1, 64753, Note_on_c, 0, 63, 31
1, 64789, Note_off_c, 0, 63, 48
1, 64825, Note_on_c, 0, 67, 55
1, 64830, Note_on_c, 0, 62, 45
1, 64841, Note_on_c, 0, 55, 37
1, 64861, Note_on_c, 0, 66, 50
1, 64869, Control_c, 0, 64, 45
1, 64871, Note_off_c, 0, 62, 64
1, 64871, Note_off_c, 0, 67, 63
1, 64884, Control_c, 0, 64, 55
1, 64895, Note_off_c, 0, 55, 63
1, 64895, Note_off_c, 0, 66, 64
1, 64898, Control_c, 0, 64, 60
1, 64913, Control_c, 0, 64, 63
1, 64928, Control_c, 0, 64, 65
1, 64942, Control_c, 0, 64, 68
1, 64952, Note_on_c, 0, 66, 62
1, 64957, Control_c, 0, 64, 71
1, 64969, Note_off_c, 0, 66, 65
1, 64972, Control_c, 0, 64, 74
1, 64987, Control_c, 0, 64, 76
1, 65002, Control_c, 0, 64, 78
1, 65016, Control_c, 0, 64, 79
1, 65030, Note_on_c, 0, 66, 59
1, 65053, Note_off_c, 0, 66, 57
1, 65057, Note_on_c, 0, 47, 68
1, 65061, Control_c, 0, 64, 79
1, 65076, Control_c, 0, 64, 80
1, 65083, Note_off_c, 0, 47, 66
1, 65090, Control_c, 0, 64, 80
1, 65093, Note_on_c, 0, 66, 68
1, 65119, Note_off_c, 0, 66, 66
1, 65157, Note_on_c, 0, 66, 67
1, 65181, Note_off_c, 0, 66, 68
1, 65183, Note_on_c, 0, 40, 60
1, 65198, Note_on_c, 0, 47, 26
1, 65230, Note_on_c, 0, 66, 61
1, 65232, Note_off_c, 0, 40, 65
1, 65253, Note_off_c, 0, 66, 64
1, 65256, Note_off_c, 0, 47, 62
1, 65257, Note_on_c, 0, 55, 61
1, 65281, Note_off_c, 0, 55, 63
1, 65295, Note_on_c, 0, 71, 69
1, 65307, Note_on_c, 0, 66, 74
1, 65320, Note_off_c, 0, 71, 69
1, 65328, Note_off_c, 0, 66, 70
1, 65349, Control_c, 0, 64, 81
1, 65379, Control_c, 0, 64, 81
1, 65409, Control_c, 0, 64, 82
1, 65421, Note_on_c, 0, 66, 87
1, 65423, Control_c, 0, 64, 84
1, 65438, Control_c, 0, 64, 88
1, 65453, Control_c, 0, 64, 91
1, 65468, Control_c, 0, 64, 93
1, 65468, Note_on_c, 0, 65, 39
1, 65468, Note_off_c, 0, 65, 127
1, 65470, Note_off_c, 0, 66, 63
1, 65483, Control_c, 0, 64, 94
1, 65501, Poly_aftertouch_c, 0, 65, 0
1, 65557, Control_c, 0, 64, 93
1, 65566, Note_on_c, 0, 66, 56
1, 65603, Note_on_c, 0, 67, 76
1, 65615, Note_on_c, 0, 55, 60
1, 65620, Note_on_c, 0, 62, 59
1, 65624, Note_off_c, 0, 67, 72
1, 65632, Note_off_c, 0, 66, 69
1, 65639, Note_off_c, 0, 62, 61
1, 65644, Note_off_c, 0, 55, 67
1, 65647, Control_c, 0, 64, 92
1, 65662, Control_c, 0, 64, 87
1, 65676, Control_c, 0, 64, 79
1, 65680, Note_on_c, 0, 65, 68
1, 65691, Control_c, 0, 64, 69
1, 65700, Note_off_c, 0, 65, 63
1, 65706, Control_c, 0, 64, 57
1, 65721, Control_c, 0, 64, 0
1, 65727, Note_on_c, 0, 66, 56
1, 65727, Note_off_c, 0, 66, 127
1, 65793, Note_on_c, 0, 71, 84
1, 65795, Note_on_c, 0, 62, 60
1, 65802, Note_on_c, 0, 68, 83
1, 65818, Note_on_c, 0, 56, 49
1, 65822, Note_off_c, 0, 68, 71
1, 65825, Control_c, 0, 64, 34
1, 65827, Note_off_c, 0, 62, 66
1, 65829, Note_off_c, 0, 71, 0
1, 65839, Control_c, 0, 64, 61
1, 65845, Note_on_c, 0, 71, 66
1, 65847, Note_off_c, 0, 56, 55
1, 65854, Control_c, 0, 64, 55
1, 65869, Control_c, 0, 64, 0
1, 65879, Note_off_c, 0, 71, 67
1, 65911, Note_on_c, 0, 71, 61
1, 65934, Note_off_c, 0, 71, 69
1, 65975, Note_on_c, 0, 67, 70
1, 65980, Note_on_c, 0, 62, 51
1, 65980, Control_c, 0, 64, 39
1, 65988, Note_on_c, 0, 55, 56
1, 65994, Note_on_c, 0, 66, 79
1, 65995, Control_c, 0, 64, 55
1, 65995, Note_off_c, 0, 67, 67
1, 66004, Note_off_c, 0, 62, 60
1, 66010, Control_c, 0, 64, 64
1, 66017, Note_off_c, 0, 66, 68
1, 66025, Control_c, 0, 64, 67
1, 66046, Note_on_c, 0, 66, 74
1, 66054, Control_c, 0, 64, 66
1, 66067, Note_off_c, 0, 66, 70
1, 66084, Control_c, 0, 64, 67
1, 66098, Control_c, 0, 64, 68
1, 66105, Note_on_c, 0, 66, 84
1, 66113, Control_c, 0, 64, 68
1, 66125, Note_off_c, 0, 66, 71
1, 66128, Control_c, 0, 64, 64
1, 66143, Control_c, 0, 64, 59
1, 66158, Control_c, 0, 64, 57
1, 66172, Control_c, 0, 64, 58
1, 66174, Note_on_c, 0, 66, 73
1, 66187, Control_c, 0, 64, 56
1, 66196, Note_off_c, 0, 66, 68
1, 66202, Control_c, 0, 64, 40
1, 66203, Note_off_c, 0, 55, 54
1, 66217, Control_c, 0, 64, 0
1, 66241, Note_on_c, 0, 66, 77
1, 66260, Note_off_c, 0, 66, 72
1, 66302, Note_on_c, 0, 66, 66
1, 66326, Note_off_c, 0, 66, 67
1, 66365, Note_on_c, 0, 67, 63
1, 66366, Note_on_c, 0, 62, 48
1, 66377, Note_on_c, 0, 55, 41
1, 66392, Note_on_c, 0, 66, 65
1, 66392, Note_off_c, 0, 66, 127
1, 66392, Note_off_c, 0, 62, 56
1, 66393, Note_off_c, 0, 67, 52
1, 66404, Note_off_c, 0, 55, 52
1, 66464, Note_on_c, 0, 66, 79
1, 66492, Note_off_c, 0, 66, 64
1, 66571, Note_on_c, 0, 65, 70
1, 66574, Note_on_c, 0, 59, 56
1, 66575, Note_on_c, 0, 61, 69
1, 66589, Note_off_c, 0, 65, 68
1, 66594, Note_off_c, 0, 59, 62
1, 66610, Note_off_c, 0, 61, 61
1, 66657, Note_on_c, 0, 61, 45
1, 66682, Note_off_c, 0, 61, 57
1, 66765, Note_on_c, 0, 67, 56
1, 66767, Note_on_c, 0, 66, 58
1, 66770, Note_on_c, 0, 62, 46
1, 66770, Note_on_c, 0, 55, 46
1, 66786, Note_off_c, 0, 67, 65
1, 66788, Note_off_c, 0, 66, 61
1, 66794, Note_off_c, 0, 55, 58
1, 66796, Note_off_c, 0, 62, 53
1, 66871, Note_on_c, 0, 66, 50
1, 66894, Note_off_c, 0, 66, 56
1, 66907, Control_c, 0, 64, 30
1, 66921, Control_c, 0, 64, 40
1, 66936, Control_c, 0, 64, 49
1, 66945, Note_on_c, 0, 64, 52
1, 66952, Control_c, 0, 64, 55
1, 66966, Note_off_c, 0, 64, 61
1, 66967, Control_c, 0, 64, 58
1, 66982, Control_c, 0, 64, 60
1, 66988, Note_on_c, 0, 61, 30
1, 66996, Control_c, 0, 64, 61
1, 67011, Control_c, 0, 64, 62
1, 67026, Control_c, 0, 64, 64
1, 67032, Note_off_c, 0, 61, 0
1, 67041, Control_c, 0, 64, 65
1, 67049, Note_on_c, 0, 61, 38
1, 67056, Control_c, 0, 64, 66
1, 67086, Note_off_c, 0, 61, 63
1, 67100, Control_c, 0, 64, 65
1, 67114, Control_c, 0, 64, 59
1, 67129, Control_c, 0, 64, 0
1, 67155, Note_on_c, 0, 62, 45
1, 67163, Note_on_c, 0, 55, 37
1, 67224, Note_off_c, 0, 55, 62
1, 67243, Note_off_c, 0, 62, 62
1, 67249, Control_c, 0, 64, 51
1, 67264, Control_c, 0, 64, 62
1, 67279, Control_c, 0, 64, 65
1, 67293, Control_c, 0, 64, 68
1, 67308, Control_c, 0, 64, 72
1, 67310, Note_on_c, 0, 66, 50
1, 67323, Control_c, 0, 64, 78
1, 67337, Control_c, 0, 64, 85
1, 67352, Note_off_c, 0, 66, 61
1, 67352, Control_c, 0, 64, 93
1, 67367, Control_c, 0, 64, 102
1, 67375, Note_on_c, 0, 71, 56
1, 67382, Control_c, 0, 64, 111
1, 67397, Control_c, 0, 64, 119
1, 67411, Control_c, 0, 64, 127
1, 67420, Note_off_c, 0, 71, 62
1, 67449, Note_on_c, 0, 78, 25
1, 67477, Note_on_c, 0, 40, 53
1, 67480, Note_on_c, 0, 47, 29
1, 67495, Note_off_c, 0, 78, 41
1, 67507, Note_off_c, 0, 40, 64
1, 67514, Note_off_c, 0, 47, 52
1, 67620, Note_on_c, 0, 86, 73
1, 67650, Note_off_c, 0, 86, 62
1, 67656, Note_on_c, 0, 74, 22
1, 67694, Note_off_c, 0, 74, 43
1, 67701, Poly_aftertouch_c, 0, 78, 0
1, 67832, Note_on_c, 0, 85, 64
1, 67859, Note_off_c, 0, 85, 67
1, 67890, Note_on_c, 0, 86, 68
1, 67942, Note_on_c, 0, 85, 65
1, 67944, Note_off_c, 0, 86, 63
1, 67966, Note_on_c, 0, 83, 78
1, 67966, Note_off_c, 0, 85, 66
1, 67979, Note_on_c, 0, 59, 29
1, 67986, Note_off_c, 0, 83, 70
1, 68002, Note_on_c, 0, 66, 30
1, 68018, Note_off_c, 0, 59, 52
1, 68035, Note_off_c, 0, 66, 44
1, 68171, Note_on_c, 0, 82, 77
1, 68179, Note_on_c, 0, 74, 61
1, 68188, Note_on_c, 0, 71, 43
1, 68193, Note_off_c, 0, 82, 68
1, 68204, Note_off_c, 0, 74, 66
1, 68225, Note_off_c, 0, 71, 56
1, 68374, Note_on_c, 0, 73, 62
1, 68382, Note_on_c, 0, 78, 57
1, 68394, Note_off_c, 0, 73, 65
1, 68401, Note_off_c, 0, 78, 61
1, 68541, Note_on_c, 0, 79, 72
1, 68542, Note_on_c, 0, 59, 50
1, 68544, Note_on_c, 0, 67, 46
1, 68547, Note_on_c, 0, 74, 65
1, 68550, Note_on_c, 0, 66, 39
1, 68556, Note_off_c, 0, 79, 70
1, 68565, Note_off_c, 0, 59, 63
1, 68569, Note_off_c, 0, 67, 56
1, 68580, Note_off_c, 0, 66, 51
1, 68581, Note_off_c, 0, 74, 55
1, 68672, Control_c, 0, 67, 122
1, 68686, Control_c, 0, 67, 115
1, 68701, Control_c, 0, 67, 108
1, 68705, Note_on_c, 0, 74, 22
1, 68708, Note_on_c, 0, 78, 65
1, 68716, Control_c, 0, 67, 98
1, 68721, Note_on_c, 0, 59, 68
1, 68721, Note_on_c, 0, 86, 85
1, 68727, Note_on_c, 0, 52, 70
1, 68731, Control_c, 0, 67, 81
1, 68733, Note_off_c, 0, 78, 68
1, 68739, Note_off_c, 0, 74, 49
1, 68744, Note_off_c, 0, 59, 70
1, 68745, Note_off_c, 0, 86, 67
1, 68746, Control_c, 0, 67, 60
1, 68754, Note_off_c, 0, 52, 66
1, 68760, Control_c, 0, 67, 38
1, 68775, Control_c, 0, 67, 20
1, 68791, Control_c, 0, 67, 0
1, 68912, Note_on_c, 0, 85, 73
1, 68938, Note_off_c, 0, 85, 66
1, 68974, Note_on_c, 0, 86, 65
1, 69023, Note_off_c, 0, 86, 63
1, 69024, Note_on_c, 0, 85, 80
1, 69054, Note_off_c, 0, 85, 65
1, 69057, Note_on_c, 0, 83, 80
1, 69067, Note_on_c, 0, 67, 60
1, 69076, Note_off_c, 0, 83, 70
1, 69077, Note_on_c, 0, 66, 54
1, 69091, Note_off_c, 0, 67, 66
1, 69097, Note_off_c, 0, 66, 63
1, 69100, Note_on_c, 0, 59, 35
1, 69138, Note_off_c, 0, 59, 52
1, 69250, Note_on_c, 0, 82, 81
1, 69269, Note_off_c, 0, 82, 71
1, 69420, Note_on_c, 0, 78, 87
1, 69426, Note_on_c, 0, 73, 76
1, 69427, Note_on_c, 0, 71, 67
1, 69436, Note_on_c, 0, 74, 43
1, 69438, Note_off_c, 0, 78, 71
1, 69444, Note_off_c, 0, 71, 65
1, 69446, Note_off_c, 0, 73, 71
1, 69465, Note_off_c, 0, 74, 54
1, 69584, Note_on_c, 0, 74, 76
1, 69585, Note_on_c, 0, 79, 89
1, 69611, Note_off_c, 0, 74, 63
1, 69611, Note_off_c, 0, 79, 64
1, 69644, Control_c, 0, 64, 95
1, 69659, Control_c, 0, 64, 69
1, 69674, Control_c, 0, 64, 40
1, 69688, Control_c, 0, 64, 0
1, 69692, Note_on_c, 0, 74, 67
1, 69733, Note_on_c, 0, 79, 76
1, 69766, Note_on_c, 0, 45, 84
1, 69766, Note_off_c, 0, 74, 63
1, 69767, Note_on_c, 0, 52, 83
1, 69772, Note_on_c, 0, 86, 94
1, 69781, Note_off_c, 0, 79, 66
1, 69784, Control_c, 0, 64, 48
1, 69790, Note_off_c, 0, 52, 68
1, 69791, Note_off_c, 0, 45, 70
1, 69799, Control_c, 0, 64, 79
1, 69806, Note_off_c, 0, 86, 65
1, 69814, Control_c, 0, 64, 127
1, 69957, Note_on_c, 0, 85, 71
1, 69984, Note_off_c, 0, 85, 67
1, 69997, Note_on_c, 0, 86, 77
1, 70050, Note_on_c, 0, 85, 92
1, 70056, Note_off_c, 0, 86, 65
1, 70082, Note_on_c, 0, 67, 80
1, 70082, Note_off_c, 0, 85, 69
1, 70087, Note_on_c, 0, 83, 87
1, 70093, Note_on_c, 0, 62, 50
1, 70099, Note_on_c, 0, 59, 54
1, 70106, Note_off_c, 0, 67, 67
1, 70114, Note_off_c, 0, 83, 65
1, 70118, Note_off_c, 0, 62, 62
1, 70127, Note_off_c, 0, 59, 64
1, 70264, Note_on_c, 0, 82, 99
1, 70272, Note_on_c, 0, 74, 77
1, 70274, Note_on_c, 0, 71, 77
1, 70293, Note_off_c, 0, 82, 65
1, 70294, Note_off_c, 0, 74, 70
1, 70297, Note_off_c, 0, 71, 71
1, 70434, Note_on_c, 0, 78, 99
1, 70437, Note_on_c, 0, 73, 89
1, 70466, Note_off_c, 0, 73, 70
1, 70470, Note_off_c, 0, 78, 63
1, 70602, Note_on_c, 0, 67, 72
1, 70602, Note_on_c, 0, 79, 101
1, 70604, Note_on_c, 0, 74, 90
1, 70607, Note_on_c, 0, 62, 66
1, 70632, Note_off_c, 0, 79, 66
1, 70637, Note_off_c, 0, 67, 60
1, 70639, Note_off_c, 0, 74, 59
1, 70640, Note_off_c, 0, 62, 60
1, 70708, Note_on_c, 0, 74, 81
1, 70740, Note_on_c, 0, 79, 84
1, 70757, Note_on_c, 0, 64, 99
1, 70757, Note_off_c, 0, 74, 63
1, 70759, Note_on_c, 0, 57, 95
1, 70768, Note_on_c, 0, 86, 98
1, 70774, Note_off_c, 0, 64, 73
1, 70780, Note_off_c, 0, 79, 70
1, 70792, Note_off_c, 0, 57, 68
1, 70809, Note_off_c, 0, 86, 68
1, 70947, Note_on_c, 0, 85, 89
1, 70994, Note_off_c, 0, 85, 63
1, 70997, Note_on_c, 0, 86, 93
1, 71043, Note_on_c, 0, 85, 85
1, 71060, Note_off_c, 0, 86, 66
1, 71063, Note_on_c, 0, 62, 85
1, 71068, Note_on_c, 0, 67, 84
1, 71073, Note_off_c, 0, 85, 67
1, 71078, Note_on_c, 0, 83, 102
1, 71084, Note_off_c, 0, 67, 75
1, 71093, Note_off_c, 0, 62, 65
1, 71101, Note_off_c, 0, 83, 68
1, 71258, Note_on_c, 0, 82, 109
1, 71284, Note_off_c, 0, 82, 71
1, 71419, Note_on_c, 0, 73, 97
1, 71422, Note_on_c, 0, 71, 93
1, 71424, Note_on_c, 0, 67, 93
1, 71428, Note_on_c, 0, 79, 96
1, 71439, Note_off_c, 0, 71, 74
1, 71440, Note_off_c, 0, 67, 75
1, 71444, Note_off_c, 0, 79, 76
1, 71452, Note_off_c, 0, 73, 68
1, 71576, Note_on_c, 0, 79, 101
1, 71576, Note_on_c, 0, 74, 95
1, 71605, Note_off_c, 0, 79, 70
1, 71608, Control_c, 0, 64, 86
1, 71608, Note_off_c, 0, 74, 68
1, 71623, Control_c, 0, 64, 0
1, 71665, Note_on_c, 0, 74, 78
1, 71727, Note_on_c, 0, 78, 97
1, 71731, Note_off_c, 0, 74, 64
1, 71739, Note_on_c, 0, 86, 104
1, 71749, Note_on_c, 0, 38, 97
1, 71754, Note_on_c, 0, 50, 97
1, 71756, Note_on_c, 0, 52, 85
1, 71756, Note_off_c, 0, 78, 68
1, 71766, Note_off_c, 0, 86, 71
1, 71775, Note_off_c, 0, 52, 66
1, 71776, Note_off_c, 0, 50, 69
1, 71785, Control_c, 0, 64, 67
1, 71788, Note_off_c, 0, 38, 66
1, 71800, Control_c, 0, 64, 127
1, 71925, Note_on_c, 0, 57, 97
1, 71927, Note_on_c, 0, 54, 93
1, 71942, Note_off_c, 0, 57, 75
1, 71945, Note_off_c, 0, 54, 72
1, 71971, Control_c, 0, 64, 93
1, 71987, Control_c, 0, 64, 66
1, 72002, Control_c, 0, 64, 0
1, 72085, Note_on_c, 0, 50, 98
1, 72115, Note_off_c, 0, 50, 69
1, 72129, Note_on_c, 0, 47, 35
1, 72129, Note_off_c, 0, 47, 127
1, 72211, Note_on_c, 0, 45, 65
1, 72246, Note_on_c, 0, 54, 89
1, 72251, Note_on_c, 0, 57, 88
1, 72266, Note_off_c, 0, 45, 65
1, 72276, Note_off_c, 0, 57, 69
1, 72283, Control_c, 0, 64, 61
1, 72287, Note_on_c, 0, 55, 45
1, 72287, Note_off_c, 0, 55, 127
1, 72292, Note_off_c, 0, 54, 59
1, 72298, Control_c, 0, 64, 97
1, 72313, Control_c, 0, 64, 127
1, 72321, Poly_aftertouch_c, 0, 55, 0
1, 72401, Control_c, 0, 64, 77
1, 72414, Note_on_c, 0, 50, 96
1, 72416, Control_c, 0, 64, 41
1, 72431, Control_c, 0, 64, 0
1, 72446, Note_off_c, 0, 50, 64
1, 72577, Note_on_c, 0, 60, 86
1, 72579, Note_on_c, 0, 56, 89
1, 72580, Note_on_c, 0, 53, 90
1, 72598, Note_off_c, 0, 56, 71
1, 72602, Note_off_c, 0, 53, 69
1, 72602, Note_off_c, 0, 60, 69
1, 72750, Note_on_c, 0, 50, 100
1, 72756, Note_on_c, 0, 38, 84
1, 72765, Control_c, 0, 64, 66
1, 72772, Note_off_c, 0, 50, 69
1, 72780, Control_c, 0, 64, 97
1, 72785, Note_off_c, 0, 38, 69
1, 72795, Control_c, 0, 64, 127
1, 72869, Control_c, 0, 64, 105
1, 72884, Control_c, 0, 64, 86
1, 72899, Control_c, 0, 64, 77
1, 72911, Note_on_c, 0, 57, 88
1, 72912, Note_on_c, 0, 54, 88
1, 72914, Control_c, 0, 64, 72
1, 72929, Control_c, 0, 64, 65
1, 72931, Note_off_c, 0, 57, 72
1, 72933, Note_off_c, 0, 54, 72
1, 72943, Control_c, 0, 64, 56
1, 72957, Control_c, 0, 64, 38
1, 72972, Control_c, 0, 64, 0
1, 73080, Note_on_c, 0, 50, 95
1, 73105, Control_c, 0, 64, 39
1, 73108, Note_off_c, 0, 50, 65
1, 73120, Control_c, 0, 64, 0
1, 73234, Note_on_c, 0, 56, 83
1, 73236, Note_on_c, 0, 53, 70
1, 73244, Note_on_c, 0, 45, 88
1, 73244, Note_on_c, 0, 57, 71
1, 73264, Note_off_c, 0, 53, 67
1, 73266, Note_off_c, 0, 56, 64
1, 73269, Note_off_c, 0, 45, 69
1, 73269, Note_off_c, 0, 57, 68
1, 73401, Note_on_c, 0, 55, 69
1, 73404, Note_on_c, 0, 52, 74
1, 73406, Note_on_c, 0, 48, 78
1, 73409, Note_on_c, 0, 57, 54
1, 73430, Note_off_c, 0, 48, 66
1, 73431, Note_off_c, 0, 52, 65
1, 73434, Note_off_c, 0, 55, 64
1, 73438, Note_off_c, 0, 57, 63
1, 73579, Note_on_c, 0, 57, 67
1, 73589, Note_on_c, 0, 54, 66
1, 73592, Note_on_c, 0, 44, 56
1, 73609, Note_off_c, 0, 57, 65
1, 73609, Note_on_c, 0, 51, 30
1, 73609, Note_off_c, 0, 51, 127
1, 73621, Note_off_c, 0, 54, 64
1, 73622, Note_off_c, 0, 44, 64
1, 73751, Control_c, 0, 64, 35
1, 73754, Note_on_c, 0, 50, 77
1, 73758, Note_on_c, 0, 38, 69
1, 73766, Control_c, 0, 64, 60
1, 73778, Note_off_c, 0, 50, 66
1, 73780, Control_c, 0, 64, 70
1, 73784, Note_off_c, 0, 38, 65
1, 73795, Control_c, 0, 64, 82
1, 73810, Control_c, 0, 64, 90
1, 73825, Control_c, 0, 64, 89
1, 73839, Control_c, 0, 64, 81
1, 73854, Control_c, 0, 64, 72
1, 73869, Control_c, 0, 64, 64
1, 73884, Control_c, 0, 64, 57
1, 73899, Control_c, 0, 64, 50
1, 73912, Note_on_c, 0, 54, 70
1, 73913, Control_c, 0, 64, 43
1, 73928, Note_on_c, 0, 57, 52
1, 73928, Control_c, 0, 64, 34
1, 73938, Note_off_c, 0, 54, 66
1, 73943, Control_c, 0, 64, 0
1, 73956, Note_off_c, 0, 57, 56
1, 74002, Control_c, 0, 67, 23
1, 74017, Control_c, 0, 67, 27
1, 74032, Control_c, 0, 67, 30
1, 74047, Control_c, 0, 67, 33
1, 74062, Control_c, 0, 67, 39
1, 74077, Control_c, 0, 67, 44
1, 74089, Note_on_c, 0, 50, 75
1, 74092, Control_c, 0, 67, 50
1, 74106, Control_c, 0, 67, 55
1, 74114, Note_off_c, 0, 50, 67
1, 74121, Control_c, 0, 67, 60
1, 74136, Control_c, 0, 67, 64
1, 74197, Note_on_c, 0, 45, 65
1, 74217, Control_c, 0, 67, 63
1, 74232, Control_c, 0, 67, 63
1, 74237, Note_on_c, 0, 54, 79
1, 74247, Control_c, 0, 67, 62
1, 74253, Note_on_c, 0, 57, 80
1, 74258, Note_off_c, 0, 45, 65
1, 74261, Control_c, 0, 67, 61
1, 74263, Note_off_c, 0, 54, 57
1, 74276, Note_off_c, 0, 57, 70
1, 74276, Control_c, 0, 64, 55
1, 74276, Control_c, 0, 67, 60
1, 74291, Control_c, 0, 64, 90
1, 74291, Control_c, 0, 67, 60
1, 74306, Control_c, 0, 64, 127
1, 74306, Control_c, 0, 67, 60
1, 74321, Control_c, 0, 67, 62
1, 74336, Control_c, 0, 67, 64
1, 74350, Control_c, 0, 67, 65
1, 74365, Control_c, 0, 64, 97
1, 74381, Control_c, 0, 64, 79
1, 74381, Control_c, 0, 67, 65
1, 74396, Control_c, 0, 64, 67
1, 74396, Control_c, 0, 67, 66
1, 74410, Control_c, 0, 64, 56
1, 74410, Control_c, 0, 67, 67
1, 74416, Note_on_c, 0, 50, 77
1, 74425, Control_c, 0, 64, 47
1, 74425, Control_c, 0, 67, 70
1, 74440, Note_off_c, 0, 50, 66
1, 74441, Control_c, 0, 64, 37
1, 74441, Control_c, 0, 67, 82
1, 74455, Control_c, 0, 64, 0
1, 74455, Control_c, 0, 67, 94
1, 74470, Control_c, 0, 67, 104
1, 74485, Control_c, 0, 67, 111
1, 74500, Control_c, 0, 67, 117
1, 74515, Control_c, 0, 67, 123
1, 74530, Control_c, 0, 67, 127
1, 74593, Note_on_c, 0, 60, 72
1, 74594, Note_on_c, 0, 56, 68
1, 74595, Note_on_c, 0, 53, 71
1, 74618, Note_off_c, 0, 60, 69
1, 74622, Note_off_c, 0, 56, 64
1, 74623, Note_off_c, 0, 53, 66
1, 74772, Note_on_c, 0, 50, 76
1, 74777, Note_on_c, 0, 38, 70
1, 74781, Control_c, 0, 64, 61
1, 74794, Note_off_c, 0, 50, 66
1, 74796, Control_c, 0, 64, 68
1, 74801, Note_off_c, 0, 38, 65
1, 74811, Control_c, 0, 64, 66
1, 74826, Control_c, 0, 64, 62
1, 74841, Control_c, 0, 64, 59
1, 74855, Control_c, 0, 64, 58
1, 74885, Control_c, 0, 64, 57
1, 74900, Control_c, 0, 64, 55
1, 74915, Control_c, 0, 64, 52
1, 74929, Control_c, 0, 64, 49
1, 74934, Note_on_c, 0, 57, 81
1, 74939, Note_on_c, 0, 54, 72
1, 74944, Control_c, 0, 64, 47
1, 74967, Control_c, 0, 64, 44
1, 74969, Note_off_c, 0, 57, 68
1, 74974, Note_off_c, 0, 54, 66
1, 74981, Control_c, 0, 64, 41
1, 74996, Control_c, 0, 64, 38
1, 75011, Control_c, 0, 64, 36
1, 75041, Control_c, 0, 64, 37
1, 75055, Control_c, 0, 64, 39
1, 75070, Control_c, 0, 64, 41
1, 75100, Control_c, 0, 64, 41
1, 75115, Control_c, 0, 64, 40
1, 75116, Note_on_c, 0, 50, 78
1, 75129, Control_c, 0, 64, 39
1, 75139, Note_off_c, 0, 50, 68
1, 75144, Control_c, 0, 64, 36
1, 75159, Control_c, 0, 64, 33
1, 75175, Control_c, 0, 64, 0
1, 75204, Control_c, 0, 64, 30
1, 75234, Control_c, 0, 64, 0
1, 75281, Note_on_c, 0, 53, 67
1, 75282, Note_on_c, 0, 56, 66
1, 75286, Note_on_c, 0, 45, 75
1, 75298, Note_on_c, 0, 57, 49
1, 75310, Note_off_c, 0, 45, 67
1, 75310, Note_off_c, 0, 53, 65
1, 75311, Note_off_c, 0, 56, 64
1, 75324, Note_off_c, 0, 57, 57
1, 75457, Note_on_c, 0, 55, 58
1, 75457, Note_on_c, 0, 57, 50
1, 75460, Note_on_c, 0, 48, 57
1, 75466, Note_on_c, 0, 52, 48
1, 75484, Note_off_c, 0, 48, 60
1, 75491, Note_off_c, 0, 55, 64
1, 75493, Note_off_c, 0, 57, 64
1, 75493, Note_off_c, 0, 52, 55
1, 75620, Note_on_c, 0, 57, 62
1, 75621, Note_on_c, 0, 54, 65
1, 75628, Note_on_c, 0, 44, 54
1, 75651, Note_off_c, 0, 57, 65
1, 75652, Note_off_c, 0, 54, 65
1, 75656, Note_off_c, 0, 44, 63
1, 75790, Control_c, 0, 64, 40
1, 75804, Note_on_c, 0, 50, 63
1, 75804, Control_c, 0, 64, 69
1, 75807, Note_on_c, 0, 38, 60
1, 75819, Control_c, 0, 64, 75
1, 75826, Note_off_c, 0, 50, 62
1, 75837, Note_off_c, 0, 38, 64
1, 75849, Control_c, 0, 64, 67
1, 75864, Control_c, 0, 64, 57
1, 75878, Control_c, 0, 64, 45
1, 75893, Control_c, 0, 64, 34
1, 75908, Control_c, 0, 64, 0
1, 75978, Note_on_c, 0, 54, 65
1, 75987, Note_on_c, 0, 57, 50
1, 76007, Note_off_c, 0, 54, 65
1, 76014, Note_off_c, 0, 57, 55
1, 76151, Note_on_c, 0, 50, 66
1, 76179, Note_off_c, 0, 50, 64
1, 76250, Poly_aftertouch_c, 0, 38, 0
1, 76303, Note_on_c, 0, 45, 57
1, 76309, Control_c, 0, 64, 46
1, 76320, Note_on_c, 0, 54, 81
1, 76324, Control_c, 0, 64, 72
1, 76327, Note_on_c, 0, 57, 84
1, 76339, Control_c, 0, 64, 103
1, 76341, Note_off_c, 0, 45, 66
1, 76345, Note_off_c, 0, 54, 69
1, 76352, Note_off_c, 0, 57, 67
1, 76354, Control_c, 0, 64, 121
1, 76368, Control_c, 0, 64, 87
1, 76383, Control_c, 0, 64, 65
1, 76398, Control_c, 0, 64, 49
1, 76413, Control_c, 0, 64, 42
1, 76427, Control_c, 0, 64, 46
1, 76442, Control_c, 0, 64, 53
1, 76464, Control_c, 0, 64, 51
1, 76479, Control_c, 0, 64, 48
1, 76494, Control_c, 0, 64, 45
1, 76507, Note_on_c, 0, 50, 79
1, 76509, Control_c, 0, 64, 42
1, 76524, Control_c, 0, 64, 39
1, 76531, Note_off_c, 0, 50, 66
1, 76539, Control_c, 0, 64, 36
1, 76553, Control_c, 0, 64, 31
1, 76568, Control_c, 0, 64, 0
1, 76690, Note_on_c, 0, 54, 65
1, 76700, Note_on_c, 0, 57, 42
1, 76718, Note_off_c, 0, 54, 65
1, 76731, Note_off_c, 0, 57, 54
1, 76850, Control_c, 0, 64, 43
1, 76863, Note_on_c, 0, 38, 59
1, 76865, Control_c, 0, 64, 62
1, 76870, Note_on_c, 0, 50, 44
1, 76880, Control_c, 0, 64, 65
1, 76895, Control_c, 0, 64, 62
1, 76897, Note_off_c, 0, 38, 65
1, 76902, Note_off_c, 0, 50, 51
1, 76910, Control_c, 0, 64, 58
1, 76924, Control_c, 0, 64, 55
1, 76939, Control_c, 0, 64, 53
1, 76954, Control_c, 0, 64, 51
1, 76968, Control_c, 0, 64, 49
1, 76983, Control_c, 0, 64, 48
1, 76998, Control_c, 0, 64, 47
1, 77028, Control_c, 0, 64, 47
1, 77038, Note_on_c, 0, 54, 59
1, 77042, Note_on_c, 0, 57, 52
1, 77043, Control_c, 0, 64, 44
1, 77058, Control_c, 0, 64, 41
1, 77066, Note_off_c, 0, 57, 58
1, 77068, Note_off_c, 0, 54, 65
1, 77072, Control_c, 0, 64, 38
1, 77087, Control_c, 0, 64, 37
1, 77102, Control_c, 0, 64, 36
1, 77117, Control_c, 0, 64, 34
1, 77132, Control_c, 0, 64, 0
1, 77214, Note_on_c, 0, 50, 63
1, 77236, Note_off_c, 0, 50, 63
1, 77362, Control_c, 0, 64, 36
1, 77369, Note_on_c, 0, 45, 48
1, 77376, Control_c, 0, 64, 62
1, 77377, Note_on_c, 0, 54, 80
1, 77390, Note_on_c, 0, 57, 75
1, 77391, Control_c, 0, 64, 88
1, 77397, Note_off_c, 0, 45, 59
1, 77400, Note_off_c, 0, 54, 69
1, 77406, Control_c, 0, 64, 127
1, 77414, Note_off_c, 0, 57, 68
1, 77450, Control_c, 0, 64, 90
1, 77465, Control_c, 0, 64, 75
1, 77480, Control_c, 0, 64, 68
1, 77495, Control_c, 0, 64, 65
1, 77509, Control_c, 0, 64, 62
1, 77524, Control_c, 0, 64, 58
1, 77539, Control_c, 0, 64, 53
1, 77554, Control_c, 0, 64, 44
1, 77556, Note_on_c, 0, 50, 77
1, 77569, Control_c, 0, 64, 34
1, 77581, Note_off_c, 0, 50, 66
1, 77585, Control_c, 0, 64, 0
1, 77719, Note_on_c, 0, 57, 61
1, 77731, Note_on_c, 0, 54, 53
1, 77741, Note_off_c, 0, 57, 62
1, 77754, Note_off_c, 0, 54, 60
1, 77866, Control_c, 0, 64, 41
1, 77880, Control_c, 0, 64, 62
1, 77894, Note_on_c, 0, 38, 69
1, 77895, Control_c, 0, 64, 65
1, 77898, Note_on_c, 0, 45, 62
1, 77910, Control_c, 0, 64, 59
1, 77919, Note_off_c, 0, 38, 65
1, 77922, Note_off_c, 0, 45, 60
1, 77925, Control_c, 0, 64, 0
1, 78071, Note_on_c, 0, 45, 44
1, 78079, Note_on_c, 0, 42, 39
1, 78102, Note_off_c, 0, 45, 59
1, 78113, Note_off_c, 0, 42, 51
1, 78241, Note_on_c, 0, 45, 51
1, 78244, Note_on_c, 0, 38, 51
1, 78270, Note_off_c, 0, 45, 63
1, 78275, Note_off_c, 0, 38, 63
1, 78417, Note_on_c, 0, 42, 54
1, 78426, Note_on_c, 0, 45, 47
1, 78445, Note_off_c, 0, 42, 59
1, 78456, Note_off_c, 0, 45, 52
1, 78601, Note_on_c, 0, 38, 43
1, 78601, Note_on_c, 0, 45, 43
1, 78631, Note_off_c, 0, 38, 53
1, 78632, Note_off_c, 0, 45, 48
1, 78778, Note_on_c, 0, 42, 48
1, 78784, Note_on_c, 0, 45, 39
1, 78810, Note_off_c, 0, 42, 53
1, 78813, Note_off_c, 0, 45, 53
1, 78944, Note_on_c, 0, 45, 53
1, 78949, Note_on_c, 0, 38, 54
1, 78974, Note_off_c, 0, 45, 64
1, 78981, Note_off_c, 0, 38, 64
1, 79117, Note_on_c, 0, 42, 55
1, 79123, Note_on_c, 0, 45, 37
1, 79145, Note_off_c, 0, 42, 61
1, 79152, Note_off_c, 0, 45, 51
1, 79290, Note_on_c, 0, 45, 52
1, 79296, Note_on_c, 0, 38, 43
1, 79316, Note_off_c, 0, 45, 59
1, 79331, Note_off_c, 0, 38, 54
1, 79469, Note_on_c, 0, 42, 40
1, 79505, Note_off_c, 0, 42, 53
1, 79644, Note_on_c, 0, 45, 50
1, 79645, Note_on_c, 0, 38, 43
1, 79679, Note_off_c, 0, 45, 64
1, 79687, Note_off_c, 0, 38, 62
1, 79837, Note_on_c, 0, 42, 48
1, 79868, Note_off_c, 0, 42, 52
1, 80023, Control_c, 0, 67, 116
1, 80038, Control_c, 0, 67, 68
1, 80053, Control_c, 0, 67, 0
1, 80064, Note_on_c, 0, 26, 108
1, 80065, Note_on_c, 0, 33, 99
1, 80067, Control_c, 0, 64, 57
1, 80082, Control_c, 0, 64, 127
1, 80106, Note_off_c, 0, 33, 66
1, 80122, Note_off_c, 0, 26, 66
1, 80554, Note_on_c, 0, 81, 80
1, 80607, Note_on_c, 0, 83, 71
1, 80640, Note_off_c, 0, 81, 63
1, 80650, Note_on_c, 0, 85, 83
1, 80688, Note_off_c, 0, 83, 63
1, 80700, Poly_aftertouch_c, 0, 62, 127
1, 80709, Note_off_c, 0, 85, 67
1, 80725, Note_on_c, 0, 86, 103
1, 80728, Note_on_c, 0, 81, 97
1, 80730, Note_on_c, 0, 74, 98
1, 80733, Note_on_c, 0, 62, 42
1, 80733, Note_on_c, 0, 66, 98
1, 80736, Note_on_c, 0, 54, 94
1, 80741, Note_on_c, 0, 57, 86
1, 81018, Note_off_c, 0, 74, 52
1, 81028, Note_off_c, 0, 54, 48
1, 81031, Note_off_c, 0, 81, 60
1, 81076, Note_off_c, 0, 86, 57
1, 81079, Note_off_c, 0, 66, 47
1, 81538, Note_off_c, 0, 57, 35
1, 81540, Note_off_c, 0, 62, 41
1, 82032, Control_c, 0, 67, 19
1, 82105, Control_c, 0, 67, 21
1, 82135, Control_c, 0, 64, 94
1, 82150, Control_c, 0, 64, 77
1, 82164, Control_c, 0, 64, 63
1, 82179, Control_c, 0, 64, 30
1, 82194, Control_c, 0, 64, 0
1, 82617, Control_c, 0, 64, 46
1, 82632, Control_c, 0, 64, 51
1, 82647, Control_c, 0, 64, 54
1, 82662, Control_c, 0, 64, 57
1, 82677, Control_c, 0, 64, 60
1, 82692, Control_c, 0, 64, 63
1, 82707, Control_c, 0, 64, 65
1, 82721, Control_c, 0, 64, 65
1, 82751, Control_c, 0, 64, 66
1, 82799, Note_on_c, 0, 62, 76
1, 82811, Control_c, 0, 64, 65
1, 82826, Control_c, 0, 64, 65
1, 82840, Control_c, 0, 64, 64
1, 82855, Control_c, 0, 64, 63
1, 82870, Control_c, 0, 64, 62
1, 82885, Control_c, 0, 64, 58
1, 82900, Control_c, 0, 64, 53
1, 82914, Control_c, 0, 64, 44
1, 82929, Control_c, 0, 64, 0
1, 83151, Control_c, 0, 64, 32
1, 83167, Control_c, 0, 64, 49
1, 83182, Control_c, 0, 64, 59
1, 83204, Control_c, 0, 64, 63
1, 83219, Control_c, 0, 64, 66
1, 83234, Control_c, 0, 64, 69
1, 83249, Control_c, 0, 64, 74
1, 83264, Control_c, 0, 64, 80
1, 83278, Control_c, 0, 64, 88
1, 83293, Control_c, 0, 64, 101
1, 83308, Control_c, 0, 64, 127
1, 83888, Note_on_c, 0, 64, 69
1, 84006, Note_off_c, 0, 62, 40
1, 84119, Note_off_c, 0, 64, 65
1, 84334, Note_on_c, 0, 62, 51
1, 84409, Note_on_c, 0, 64, 55
1, 84410, Note_off_c, 0, 62, 57
1, 84456, Control_c, 0, 64, 119
1, 84471, Control_c, 0, 64, 105
1, 84485, Control_c, 0, 64, 99
1, 84494, Note_on_c, 0, 66, 61
1, 84500, Control_c, 0, 64, 94
1, 84515, Control_c, 0, 64, 89
1, 84530, Control_c, 0, 64, 85
1, 84545, Note_off_c, 0, 64, 53
1, 84545, Control_c, 0, 64, 80
1, 84559, Control_c, 0, 64, 75
1, 84574, Control_c, 0, 64, 70
1, 84589, Control_c, 0, 64, 67
1, 84604, Control_c, 0, 64, 64
1, 84619, Control_c, 0, 64, 62
1, 84633, Control_c, 0, 64, 61
1, 84648, Control_c, 0, 64, 60
1, 84663, Control_c, 0, 64, 60
1, 84685, Control_c, 0, 64, 59
1, 84700, Control_c, 0, 64, 58
1, 84715, Control_c, 0, 64, 56
1, 84730, Control_c, 0, 64, 55
1, 84745, Control_c, 0, 64, 53
1, 84760, Control_c, 0, 64, 50
1, 84775, Control_c, 0, 64, 48
1, 84790, Control_c, 0, 64, 45
1, 84805, Control_c, 0, 64, 42
1, 84820, Control_c, 0, 64, 38
1, 84835, Control_c, 0, 64, 32
1, 84850, Control_c, 0, 64, 0
1, 85553, Control_c, 0, 64, 37
1, 85569, Control_c, 0, 64, 50
1, 85584, Control_c, 0, 64, 59
1, 85599, Control_c, 0, 64, 60
1, 85613, Control_c, 0, 64, 61
1, 85628, Control_c, 0, 64, 62
1, 85643, Control_c, 0, 64, 63
1, 85657, Control_c, 0, 64, 65
1, 85672, Control_c, 0, 64, 69
1, 85687, Control_c, 0, 64, 72
1, 85702, Control_c, 0, 64, 76
1, 85717, Control_c, 0, 64, 81
1, 85732, Control_c, 0, 64, 86
1, 85747, Control_c, 0, 64, 91
1, 85762, Control_c, 0, 64, 100
1, 85777, Control_c, 0, 64, 115
1, 85792, Control_c, 0, 64, 127
1, 85912, Note_off_c, 0, 66, 36
1, 86120, Note_on_c, 0, 66, 47
1, 86510, Note_off_c, 0, 66, 49
1, 86610, Note_on_c, 0, 66, 65
1, 86798, Note_off_c, 0, 66, 59
1, 86873, Note_on_c, 0, 66, 72
1, 87020, Note_off_c, 0, 66, 64
1, 87082, Note_on_c, 0, 66, 73
1, 87163, Note_off_c, 0, 66, 61
1, 87231, Note_on_c, 0, 66, 76
1, 87246, Control_c, 0, 67, 23
1, 87304, Control_c, 0, 67, 25
1, 87319, Control_c, 0, 67, 28
1, 87334, Control_c, 0, 67, 31
1, 87349, Control_c, 0, 67, 32
1, 87356, Note_off_c, 0, 66, 61
1, 87364, Control_c, 0, 67, 34
1, 87378, Control_c, 0, 67, 35
1, 87393, Control_c, 0, 67, 36
1, 87408, Control_c, 0, 64, 121
1, 87408, Control_c, 0, 67, 36
1, 87416, Note_on_c, 0, 66, 50
1, 87423, Control_c, 0, 64, 111
1, 87437, Control_c, 0, 64, 106
1, 87452, Control_c, 0, 64, 103
1, 87467, Control_c, 0, 64, 98
1, 87482, Control_c, 0, 64, 94
1, 87497, Control_c, 0, 64, 90
1, 87506, Note_on_c, 0, 69, 65
1, 87512, Control_c, 0, 64, 87
1, 87526, Control_c, 0, 64, 84
1, 87541, Control_c, 0, 64, 82
1, 87556, Control_c, 0, 64, 81
1, 87571, Control_c, 0, 64, 78
1, 87572, Note_off_c, 0, 66, 32
1, 87586, Control_c, 0, 64, 76
1, 87601, Control_c, 0, 64, 74
1, 87616, Control_c, 0, 64, 73
1, 87630, Control_c, 0, 64, 72
1, 87630, Control_c, 0, 67, 36
1, 87645, Control_c, 0, 64, 71
1, 87660, Control_c, 0, 64, 70
1, 87675, Control_c, 0, 64, 68
1, 87697, Control_c, 0, 64, 68
1, 87711, Control_c, 0, 64, 67
1, 87726, Control_c, 0, 64, 67
1, 87741, Control_c, 0, 64, 66
1, 87756, Control_c, 0, 64, 64
1, 87771, Control_c, 0, 64, 63
1, 87786, Control_c, 0, 64, 62
1, 87801, Control_c, 0, 64, 61
1, 87831, Control_c, 0, 64, 60
1, 87831, Control_c, 0, 67, 35
1, 87845, Control_c, 0, 64, 58
1, 87860, Control_c, 0, 64, 56
1, 87875, Control_c, 0, 64, 53
1, 87875, Control_c, 0, 67, 35
1, 87890, Control_c, 0, 64, 51
1, 87905, Control_c, 0, 64, 49
1, 87918, Control_c, 0, 64, 46
1, 87933, Control_c, 0, 64, 41
1, 87948, Control_c, 0, 64, 32
1, 87964, Control_c, 0, 64, 0
1, 88156, Control_c, 0, 67, 34
1, 88290, Control_c, 0, 67, 34
1, 88304, Control_c, 0, 64, 33
1, 88319, Control_c, 0, 64, 40
1, 88334, Control_c, 0, 64, 49
1, 88349, Control_c, 0, 64, 58
1, 88364, Control_c, 0, 64, 63
1, 88378, Control_c, 0, 64, 65
1, 88393, Control_c, 0, 64, 67
1, 88408, Control_c, 0, 64, 70
1, 88430, Control_c, 0, 64, 73
1, 88445, Control_c, 0, 64, 78
1, 88459, Control_c, 0, 64, 85
1, 88474, Control_c, 0, 64, 95
1, 88489, Control_c, 0, 64, 106
1, 88504, Control_c, 0, 64, 127
1, 88772, Note_on_c, 0, 66, 45
1, 88889, Note_off_c, 0, 69, 55
1, 88890, Control_c, 0, 64, 121
1, 88905, Control_c, 0, 64, 112
1, 88920, Control_c, 0, 64, 105
1, 88935, Control_c, 0, 64, 100
1, 88950, Control_c, 0, 64, 96
1, 88964, Control_c, 0, 64, 93
1, 88979, Control_c, 0, 64, 90
1, 88994, Control_c, 0, 64, 88
1, 89008, Control_c, 0, 64, 84
1, 89023, Control_c, 0, 64, 80
1, 89038, Control_c, 0, 64, 76
1, 89053, Control_c, 0, 64, 72
1, 89068, Control_c, 0, 64, 69
1, 89073, Note_on_c, 0, 61, 34
1, 89082, Control_c, 0, 64, 67
1, 89097, Control_c, 0, 64, 64
1, 89112, Control_c, 0, 64, 60
1, 89127, Control_c, 0, 64, 57
1, 89132, Note_off_c, 0, 66, 48
1, 89142, Control_c, 0, 64, 54
1, 89157, Control_c, 0, 64, 50
1, 89179, Control_c, 0, 64, 45
1, 89194, Control_c, 0, 64, 36
1, 89208, Control_c, 0, 64, 0
1, 89461, Control_c, 0, 64, 41
1, 89475, Control_c, 0, 64, 53
1, 89490, Control_c, 0, 64, 60
1, 89505, Control_c, 0, 64, 63
1, 89520, Control_c, 0, 64, 65
1, 89535, Control_c, 0, 64, 66
1, 89550, Control_c, 0, 64, 68
1, 89565, Control_c, 0, 64, 71
1, 89580, Control_c, 0, 64, 76
1, 89595, Control_c, 0, 64, 82
1, 89610, Control_c, 0, 64, 90
1, 89625, Control_c, 0, 64, 100
1, 89639, Control_c, 0, 64, 113
1, 89654, Control_c, 0, 64, 127
1, 89673, Note_off_c, 0, 61, 34
1, 89841, Note_on_c, 0, 61, 62
1, 89986, Note_on_c, 0, 62, 56
1, 89987, Control_c, 0, 67, 34
1, 90002, Control_c, 0, 64, 117
1, 90017, Control_c, 0, 64, 111
1, 90031, Control_c, 0, 64, 107
1, 90046, Control_c, 0, 64, 104
1, 90055, Note_on_c, 0, 64, 45
1, 90061, Control_c, 0, 64, 100
1, 90061, Control_c, 0, 67, 35
1, 90076, Control_c, 0, 64, 97
1, 90085, Note_off_c, 0, 62, 56
1, 90091, Control_c, 0, 64, 94
1, 90105, Control_c, 0, 64, 92
1, 90120, Control_c, 0, 64, 90
1, 90135, Control_c, 0, 64, 86
1, 90141, Note_off_c, 0, 64, 62
1, 90150, Control_c, 0, 64, 82
1, 90165, Control_c, 0, 64, 77
1, 90165, Control_c, 0, 67, 35
1, 90180, Control_c, 0, 64, 73
1, 90195, Control_c, 0, 64, 70
1, 90195, Control_c, 0, 67, 36
1, 90210, Control_c, 0, 64, 68
1, 90224, Control_c, 0, 64, 65
1, 90239, Control_c, 0, 64, 62
1, 90254, Control_c, 0, 64, 58
1, 90269, Control_c, 0, 64, 57
1, 90284, Control_c, 0, 64, 56
1, 90314, Control_c, 0, 64, 56
1, 90329, Control_c, 0, 64, 54
1, 90343, Control_c, 0, 64, 52
1, 90359, Control_c, 0, 64, 49
1, 90374, Control_c, 0, 64, 47
1, 90389, Control_c, 0, 64, 45
1, 90403, Control_c, 0, 64, 43
1, 90418, Control_c, 0, 64, 37
1, 90433, Control_c, 0, 64, 0
1, 90478, Control_c, 0, 67, 36
1, 90492, Control_c, 0, 67, 37
1, 90737, Control_c, 0, 67, 36
1, 90944, Control_c, 0, 67, 36
1, 90988, Control_c, 0, 64, 36
1, 91003, Control_c, 0, 64, 41
1, 91018, Control_c, 0, 64, 45
1, 91033, Control_c, 0, 64, 46
1, 91048, Control_c, 0, 64, 46
1, 91062, Control_c, 0, 64, 48
1, 91077, Control_c, 0, 64, 51
1, 91092, Control_c, 0, 64, 55
1, 91107, Control_c, 0, 64, 59
1, 91121, Control_c, 0, 64, 61
1, 91136, Control_c, 0, 64, 62
1, 91152, Control_c, 0, 64, 64
1, 91152, Control_c, 0, 67, 35
1, 91167, Control_c, 0, 64, 65
1, 91182, Control_c, 0, 64, 68
1, 91196, Control_c, 0, 64, 70
1, 91211, Control_c, 0, 64, 72
1, 91226, Control_c, 0, 64, 74
1, 91241, Control_c, 0, 64, 75
1, 91256, Control_c, 0, 64, 77
1, 91256, Control_c, 0, 67, 35
1, 91270, Control_c, 0, 64, 79
1, 91285, Control_c, 0, 64, 80
1, 91300, Control_c, 0, 64, 81
1, 91330, Control_c, 0, 64, 81
1, 91485, Control_c, 0, 64, 82
1, 91692, Control_c, 0, 64, 81
1, 91751, Control_c, 0, 64, 81
1, 91766, Control_c, 0, 64, 80
1, 91766, Control_c, 0, 67, 35
1, 91781, Control_c, 0, 64, 80
1, 91786, Note_on_c, 0, 59, 31
1, 91796, Control_c, 0, 64, 79
1, 91810, Control_c, 0, 64, 79
1, 91810, Control_c, 0, 67, 36
1, 91825, Control_c, 0, 64, 78
1, 91840, Control_c, 0, 64, 77
1, 91855, Control_c, 0, 64, 75
1, 91870, Control_c, 0, 64, 73
1, 91870, Control_c, 0, 67, 36
1, 91885, Control_c, 0, 64, 71
1, 91885, Control_c, 0, 67, 37
1, 91899, Control_c, 0, 64, 68
1, 91914, Control_c, 0, 64, 64
1, 91914, Control_c, 0, 67, 38
1, 91923, Note_off_c, 0, 61, 32
1, 91929, Control_c, 0, 64, 59
1, 91945, Control_c, 0, 64, 49
1, 91945, Control_c, 0, 67, 38
1, 91960, Control_c, 0, 64, 0
1, 91960, Control_c, 0, 67, 39
1, 91974, Control_c, 0, 67, 40
1, 91989, Control_c, 0, 67, 46
1, 92004, Control_c, 0, 67, 55
1, 92019, Control_c, 0, 67, 64
1, 92034, Control_c, 0, 67, 72
1, 92048, Control_c, 0, 67, 82
1, 92063, Control_c, 0, 67, 96
1, 92078, Control_c, 0, 67, 112
1, 92093, Control_c, 0, 67, 127
1, 92219, Control_c, 0, 64, 43
1, 92233, Control_c, 0, 64, 57
1, 92248, Control_c, 0, 64, 62
1, 92263, Control_c, 0, 64, 64
1, 92278, Control_c, 0, 64, 66
1, 92293, Control_c, 0, 64, 68
1, 92308, Control_c, 0, 64, 72
1, 92323, Control_c, 0, 64, 78
1, 92338, Control_c, 0, 64, 86
1, 92352, Control_c, 0, 64, 97
1, 92367, Control_c, 0, 64, 111
1, 92382, Control_c, 0, 64, 127
1, 92432, Note_off_c, 0, 59, 49
1, 92657, Note_on_c, 0, 47, 32
1, 92684, Note_on_c, 0, 35, 29
1, 92716, Note_off_c, 0, 47, 61
1, 92727, Note_off_c, 0, 35, 59
1, 93173, Note_on_c, 0, 90, 52
1, 93174, Note_on_c, 0, 93, 56
1, 93178, Note_on_c, 0, 66, 40
1, 93189, Note_on_c, 0, 81, 49
1, 93192, Note_on_c, 0, 61, 43
1, 93198, Note_on_c, 0, 69, 39
1, 93202, Note_on_c, 0, 86, 45
1, 93226, Note_off_c, 0, 86, 60
1, 93228, Note_off_c, 0, 69, 61
1, 93235, Note_off_c, 0, 90, 62
1, 93238, Note_off_c, 0, 66, 60
1, 93241, Note_off_c, 0, 61, 58
1, 93244, Note_off_c, 0, 93, 63
1, 93254, Note_off_c, 0, 81, 52
1, 93610, Note_on_c, 0, 30, 46
1, 93696, Note_off_c, 0, 30, 59
1, 93990, Note_on_c, 0, 47, 46
1, 93997, Note_on_c, 0, 35, 44
1, 94029, Note_off_c, 0, 47, 63
1, 94034, Note_off_c, 0, 35, 62
1, 94364, Note_on_c, 0, 93, 50
1, 94365, Note_on_c, 0, 90, 48
1, 94368, Note_on_c, 0, 69, 49
1, 94371, Note_on_c, 0, 81, 47
1, 94373, Note_on_c, 0, 66, 49
1, 94386, Note_on_c, 0, 61, 32
1, 94386, Note_on_c, 0, 86, 41
1, 94391, Note_on_c, 0, 62, 29
1, 94414, Note_off_c, 0, 69, 61
1, 94427, Note_off_c, 0, 66, 61
1, 94433, Note_off_c, 0, 62, 53
1, 94442, Note_off_c, 0, 93, 61
1, 94448, Note_off_c, 0, 86, 53
1, 94451, Note_off_c, 0, 61, 61
1, 94451, Note_off_c, 0, 90, 53
1, 94472, Note_off_c, 0, 81, 44
1, 94542, Note_on_c, 0, 81, 45
1, 94549, Note_on_c, 0, 93, 45
1, 94551, Note_on_c, 0, 90, 39
1, 94567, Note_on_c, 0, 86, 31
1, 94585, Note_off_c, 0, 81, 48
1, 94594, Note_off_c, 0, 93, 52
1, 94599, Note_off_c, 0, 90, 55
1, 94601, Note_off_c, 0, 86, 45
1, 94699, Note_on_c, 0, 81, 54
1, 94711, Note_on_c, 0, 90, 48
1, 94717, Note_on_c, 0, 93, 33
1, 94725, Note_off_c, 0, 81, 62
1, 94734, Note_off_c, 0, 90, 61
1, 94747, Note_off_c, 0, 93, 45
1, 94789, Poly_aftertouch_c, 0, 86, 0
1, 94831, Note_on_c, 0, 30, 45
1, 94871, Note_off_c, 0, 30, 56
1, 94874, Poly_aftertouch_c, 0, 42, 127
1, 94907, Poly_aftertouch_c, 0, 42, 0
1, 95020, Note_on_c, 0, 47, 52
1, 95033, Note_on_c, 0, 35, 45
1, 95053, Note_off_c, 0, 47, 65
1, 95066, Note_off_c, 0, 35, 57
1, 95381, Note_on_c, 0, 66, 45
1, 95392, Note_on_c, 0, 62, 34
1, 95393, Note_on_c, 0, 90, 52
1, 95396, Note_on_c, 0, 93, 56
1, 95400, Note_on_c, 0, 81, 53
1, 95402, Note_on_c, 0, 69, 49
1, 95408, Note_on_c, 0, 86, 43
1, 95417, Note_on_c, 0, 61, 38
1, 95423, Note_off_c, 0, 62, 56
1, 95423, Note_off_c, 0, 66, 63
1, 95424, Note_off_c, 0, 69, 60
1, 95433, Note_off_c, 0, 86, 59
1, 95438, Note_off_c, 0, 90, 61
1, 95441, Note_off_c, 0, 81, 57
1, 95445, Note_off_c, 0, 61, 56
1, 95447, Note_off_c, 0, 93, 62
1, 95748, Note_on_c, 0, 30, 46
1, 95753, Note_on_c, 0, 42, 40
1, 95787, Note_off_c, 0, 42, 54
1, 95792, Note_off_c, 0, 30, 60
1, 96097, Note_on_c, 0, 35, 46
1, 96099, Note_on_c, 0, 47, 42
1, 96124, Note_off_c, 0, 47, 60
1, 96129, Note_off_c, 0, 35, 58
1, 96448, Note_on_c, 0, 66, 45
1, 96456, Note_on_c, 0, 90, 46
1, 96457, Note_on_c, 0, 69, 49
1, 96458, Note_on_c, 0, 93, 47
1, 96465, Note_on_c, 0, 81, 42
1, 96475, Note_on_c, 0, 86, 41
1, 96475, Note_on_c, 0, 61, 38
1, 96481, Note_off_c, 0, 69, 61
1, 96483, Note_off_c, 0, 66, 61
1, 96494, Poly_aftertouch_c, 0, 62, 127
1, 96507, Note_off_c, 0, 61, 59
1, 96516, Note_off_c, 0, 86, 46
1, 96524, Poly_aftertouch_c, 0, 62, 0
1, 96531, Note_off_c, 0, 90, 49
1, 96531, Note_off_c, 0, 93, 57
1, 96535, Note_off_c, 0, 81, 41
1, 96642, Note_on_c, 0, 90, 47
1, 96642, Note_on_c, 0, 93, 54
1, 96644, Note_on_c, 0, 81, 48
1, 96647, Note_on_c, 0, 86, 43
1, 96683, Note_off_c, 0, 81, 51
1, 96688, Note_off_c, 0, 86, 51
1, 96692, Note_off_c, 0, 93, 61
1, 96700, Note_off_c, 0, 90, 54
1, 96794, Note_on_c, 0, 81, 49
1, 96808, Note_on_c, 0, 90, 45
1, 96821, Note_on_c, 0, 86, 10
1, 96822, Note_off_c, 0, 81, 56
1, 96826, Note_on_c, 0, 93, 15
1, 96830, Note_off_c, 0, 90, 59
1, 96867, Note_off_c, 0, 86, 36
1, 96867, Note_off_c, 0, 93, 43
1, 96928, Note_on_c, 0, 30, 40
1, 96934, Note_on_c, 0, 42, 14
1, 96976, Note_off_c, 0, 30, 61
1, 96982, Note_off_c, 0, 42, 52
1, 97172, Note_on_c, 0, 47, 45
1, 97178, Note_on_c, 0, 35, 40
1, 97210, Note_off_c, 0, 47, 64
1, 97211, Note_off_c, 0, 35, 60
1, 97713, Note_on_c, 0, 62, 40
1, 97716, Note_on_c, 0, 69, 36
1, 97739, Note_on_c, 0, 66, 33
1, 97843, Note_off_c, 0, 62, 54
1, 97867, Note_off_c, 0, 66, 35
1, 97876, Note_off_c, 0, 69, 39
1, 98269, Control_c, 0, 67, 106
1, 98284, Control_c, 0, 67, 65
1, 98298, Control_c, 0, 67, 29
1, 98313, Control_c, 0, 67, 0
1, 98500, Note_on_c, 0, 59, 78
1, 98713, Control_c, 0, 64, 107
1, 98728, Control_c, 0, 64, 98
1, 98743, Control_c, 0, 64, 91
1, 98758, Control_c, 0, 64, 82
1, 98773, Control_c, 0, 64, 71
1, 98787, Control_c, 0, 64, 58
1, 98802, Control_c, 0, 64, 36
1, 98817, Control_c, 0, 64, 0
1, 99017, Control_c, 0, 64, 38
1, 99032, Control_c, 0, 64, 59
1, 99046, Control_c, 0, 64, 63
1, 99061, Control_c, 0, 64, 65
1, 99076, Control_c, 0, 64, 66
1, 99091, Control_c, 0, 64, 69
1, 99106, Control_c, 0, 64, 71
1, 99120, Control_c, 0, 64, 73
1, 99135, Control_c, 0, 64, 75
1, 99181, Control_c, 0, 64, 74
1, 99196, Control_c, 0, 64, 69
1, 99211, Control_c, 0, 64, 63
1, 99225, Control_c, 0, 64, 55
1, 99240, Control_c, 0, 64, 50
1, 99255, Control_c, 0, 64, 53
1, 99268, Note_on_c, 0, 61, 82
1, 99270, Control_c, 0, 64, 58
1, 99285, Control_c, 0, 64, 63
1, 99299, Control_c, 0, 64, 66
1, 99314, Control_c, 0, 64, 69
1, 99329, Control_c, 0, 64, 74
1, 99343, Control_c, 0, 64, 81
1, 99358, Control_c, 0, 64, 88
1, 99373, Control_c, 0, 64, 96
1, 99388, Control_c, 0, 64, 104
1, 99392, Note_off_c, 0, 59, 59
1, 99403, Control_c, 0, 64, 117
1, 99417, Control_c, 0, 64, 127
1, 99560, Note_on_c, 0, 62, 66
1, 99566, Control_c, 0, 64, 119
1, 99581, Control_c, 0, 64, 111
1, 99596, Control_c, 0, 64, 105
1, 99610, Control_c, 0, 64, 100
1, 99625, Control_c, 0, 64, 95
1, 99640, Control_c, 0, 64, 91
1, 99662, Control_c, 0, 64, 85
1, 99677, Control_c, 0, 64, 80
1, 99677, Note_off_c, 0, 61, 53
1, 99692, Control_c, 0, 64, 76
1, 99706, Control_c, 0, 64, 71
1, 99721, Control_c, 0, 64, 67
1, 99736, Control_c, 0, 64, 63
1, 99751, Control_c, 0, 64, 58
1, 99766, Control_c, 0, 64, 52
1, 99781, Control_c, 0, 64, 47
1, 99796, Control_c, 0, 64, 40
1, 99810, Control_c, 0, 64, 0
1, 100389, Control_c, 0, 64, 38
1, 100412, Control_c, 0, 64, 55
1, 100427, Control_c, 0, 64, 63
1, 100441, Control_c, 0, 64, 67
1, 100456, Control_c, 0, 64, 70
1, 100471, Control_c, 0, 64, 74
1, 100485, Control_c, 0, 64, 81
1, 100500, Control_c, 0, 64, 90
1, 100515, Control_c, 0, 64, 105
1, 100530, Control_c, 0, 64, 127
1, 100632, Note_off_c, 0, 62, 57
1, 100690, Note_on_c, 0, 61, 75
1, 100759, Note_on_c, 0, 62, 65
1, 100794, Note_off_c, 0, 62, 63
1, 100857, Control_c, 0, 67, 19
1, 100887, Control_c, 0, 64, 118
1, 100902, Control_c, 0, 64, 109
1, 100916, Control_c, 0, 64, 103
1, 100916, Control_c, 0, 67, 21
1, 100931, Control_c, 0, 64, 98
1, 100946, Control_c, 0, 64, 93
1, 100961, Control_c, 0, 64, 89
1, 100976, Control_c, 0, 64, 84
1, 100990, Control_c, 0, 64, 80
1, 101005, Control_c, 0, 64, 76
1, 101020, Control_c, 0, 64, 71
1, 101035, Control_c, 0, 64, 67
1, 101050, Control_c, 0, 64, 64
1, 101064, Control_c, 0, 64, 61
1, 101079, Control_c, 0, 64, 58
1, 101094, Control_c, 0, 64, 55
1, 101108, Control_c, 0, 64, 52
1, 101123, Control_c, 0, 64, 46
1, 101138, Control_c, 0, 64, 38
1, 101153, Control_c, 0, 64, 0
1, 101323, Control_c, 0, 67, 23
1, 101620, Control_c, 0, 64, 37
1, 101635, Control_c, 0, 64, 46
1, 101650, Control_c, 0, 64, 54
1, 101665, Control_c, 0, 64, 59
1, 101680, Control_c, 0, 64, 62
1, 101695, Control_c, 0, 64, 65
1, 101710, Control_c, 0, 64, 66
1, 101724, Control_c, 0, 64, 69
1, 101739, Control_c, 0, 64, 71
1, 101754, Control_c, 0, 64, 75
1, 101769, Control_c, 0, 64, 80
1, 101784, Control_c, 0, 64, 85
1, 101799, Control_c, 0, 64, 91
1, 101813, Control_c, 0, 64, 95
1, 101828, Control_c, 0, 64, 98
1, 101843, Control_c, 0, 64, 102
1, 101857, Control_c, 0, 64, 105
1, 101872, Control_c, 0, 64, 109
1, 101887, Control_c, 0, 64, 111
1, 102149, Note_off_c, 0, 61, 28
1, 102190, Control_c, 0, 64, 106
1, 102205, Control_c, 0, 64, 102
1, 102219, Control_c, 0, 64, 97
1, 102234, Control_c, 0, 64, 93
1, 102249, Control_c, 0, 64, 89
1, 102264, Control_c, 0, 64, 85
1, 102279, Control_c, 0, 64, 78
1, 102285, Note_on_c, 0, 59, 39
1, 102294, Control_c, 0, 64, 69
1, 102309, Control_c, 0, 64, 61
1, 102324, Control_c, 0, 64, 45
1, 102339, Control_c, 0, 64, 0
1, 102413, Control_c, 0, 64, 50
1, 102428, Control_c, 0, 64, 64
1, 102443, Control_c, 0, 64, 71
1, 102458, Control_c, 0, 64, 80
1, 102473, Control_c, 0, 64, 89
1, 102487, Control_c, 0, 64, 100
1, 102502, Control_c, 0, 64, 127
1, 102601, Note_off_c, 0, 59, 38
1, 102722, Note_on_c, 0, 59, 50
1, 102825, Note_off_c, 0, 59, 50
1, 102829, Note_on_c, 0, 55, 53
1, 102865, Control_c, 0, 64, 110
1, 102880, Control_c, 0, 64, 104
1, 102880, Control_c, 0, 67, 25
1, 102895, Control_c, 0, 64, 99
1, 102910, Control_c, 0, 64, 93
1, 102925, Control_c, 0, 64, 85
1, 102940, Control_c, 0, 64, 78
1, 102955, Control_c, 0, 64, 73
1, 102969, Control_c, 0, 64, 68
1, 102984, Control_c, 0, 64, 64
1, 102999, Control_c, 0, 64, 57
1, 103013, Control_c, 0, 64, 40
1, 103028, Control_c, 0, 64, 0
1, 103177, Control_c, 0, 67, 28
1, 103192, Control_c, 0, 67, 33
1, 103207, Control_c, 0, 67, 37
1, 103222, Control_c, 0, 67, 42
1, 103236, Control_c, 0, 67, 49
1, 103251, Control_c, 0, 67, 59
1, 103266, Control_c, 0, 67, 72
1, 103281, Control_c, 0, 67, 88
1, 103296, Control_c, 0, 67, 100
1, 103310, Control_c, 0, 67, 112
1, 103325, Control_c, 0, 67, 127
1, 103407, Control_c, 0, 64, 42
1, 103422, Control_c, 0, 64, 53
1, 103436, Control_c, 0, 64, 58
1, 103451, Control_c, 0, 64, 60
1, 103466, Control_c, 0, 64, 62
1, 103481, Control_c, 0, 64, 64
1, 103496, Control_c, 0, 64, 65
1, 103510, Control_c, 0, 64, 67
1, 103525, Control_c, 0, 64, 69
1, 103540, Control_c, 0, 64, 72
1, 103555, Control_c, 0, 64, 76
1, 103570, Control_c, 0, 64, 80
1, 103585, Control_c, 0, 64, 86
1, 103599, Control_c, 0, 64, 93
1, 103614, Control_c, 0, 64, 104
1, 103629, Control_c, 0, 64, 119
1, 103644, Control_c, 0, 64, 127
1, 103646, Note_off_c, 0, 55, 56
1, 103731, Note_on_c, 0, 45, 41
1, 103754, Note_on_c, 0, 33, 33
1, 103820, Note_off_c, 0, 45, 60
1, 103822, Note_off_c, 0, 33, 57
1, 104337, Note_on_c, 0, 91, 46
1, 104337, Note_on_c, 0, 93, 51
1, 104345, Note_on_c, 0, 88, 39
1, 104349, Note_on_c, 0, 69, 31
1, 104350, Note_on_c, 0, 67, 41
1, 104352, Note_on_c, 0, 60, 37
1, 104352, Note_on_c, 0, 84, 41
1, 104383, Note_on_c, 0, 79, 28
1, 104384, Note_on_c, 0, 81, 21
1, 104386, Note_off_c, 0, 67, 63
1, 104387, Poly_aftertouch_c, 0, 64, 127
1, 104395, Note_off_c, 0, 84, 62
1, 104395, Note_off_c, 0, 69, 59
1, 104395, Note_off_c, 0, 88, 60
1, 104412, Note_off_c, 0, 60, 63
1, 104412, Note_off_c, 0, 91, 62
1, 104419, Note_off_c, 0, 79, 52
1, 104424, Poly_aftertouch_c, 0, 64, 0
1, 104426, Note_off_c, 0, 81, 49
1, 104428, Note_off_c, 0, 93, 63
1, 104801, Note_on_c, 0, 40, 42
1, 104819, Note_on_c, 0, 28, 30
1, 104840, Note_off_c, 0, 40, 57
1, 104946, Note_off_c, 0, 28, 0
1, 105021, Poly_aftertouch_c, 0, 28, 0
1, 105161, Note_on_c, 0, 45, 49
1, 105164, Note_on_c, 0, 33, 42
1, 105198, Note_off_c, 0, 45, 63
1, 105202, Note_off_c, 0, 33, 61
1, 105528, Note_on_c, 0, 91, 54
1, 105531, Note_on_c, 0, 88, 50
1, 105534, Note_on_c, 0, 93, 56
1, 105537, Note_on_c, 0, 84, 44
1, 105540, Note_on_c, 0, 69, 52
1, 105540, Note_on_c, 0, 79, 50
1, 105541, Note_on_c, 0, 67, 47
1, 105542, Note_on_c, 0, 81, 49
1, 105545, Note_on_c, 0, 64, 41
1, 105552, Note_on_c, 0, 60, 42
1, 105573, Note_off_c, 0, 64, 60
1, 105573, Note_off_c, 0, 69, 65
1, 105575, Note_off_c, 0, 67, 65
1, 105593, Note_off_c, 0, 60, 63
1, 105597, Note_off_c, 0, 84, 57
1, 105600, Note_off_c, 0, 79, 58
1, 105603, Note_off_c, 0, 93, 59
1, 105604, Note_off_c, 0, 88, 61
1, 105611, Note_off_c, 0, 91, 56
1, 105626, Note_off_c, 0, 81, 37
1, 105691, Note_on_c, 0, 93, 52
1, 105692, Note_on_c, 0, 84, 60
1, 105693, Note_on_c, 0, 91, 53
1, 105697, Note_on_c, 0, 88, 59
1, 105698, Note_on_c, 0, 79, 49
1, 105698, Note_on_c, 0, 81, 50
1, 105734, Note_off_c, 0, 79, 57
1, 105735, Note_off_c, 0, 84, 58
1, 105745, Note_off_c, 0, 93, 60
1, 105746, Note_off_c, 0, 81, 47
1, 105747, Note_off_c, 0, 91, 60
1, 105752, Note_off_c, 0, 88, 58
1, 105836, Note_on_c, 0, 79, 50
1, 105844, Note_on_c, 0, 81, 49
1, 105845, Note_on_c, 0, 93, 40
1, 105849, Note_on_c, 0, 84, 42
1, 105856, Note_on_c, 0, 88, 47
1, 105863, Note_off_c, 0, 79, 56
1, 105868, Note_off_c, 0, 81, 57
1, 105874, Note_off_c, 0, 93, 52
1, 105875, Note_off_c, 0, 84, 54
1, 105880, Note_off_c, 0, 88, 59
1, 105890, Poly_aftertouch_c, 0, 91, 127
1, 105925, Poly_aftertouch_c, 0, 91, 0
1, 105976, Note_on_c, 0, 28, 49
1, 106057, Note_off_c, 0, 28, 61
1, 106159, Note_on_c, 0, 33, 46
1, 106190, Note_on_c, 0, 45, 38
1, 106196, Note_off_c, 0, 33, 63
1, 106218, Note_off_c, 0, 45, 55
1, 106514, Note_on_c, 0, 93, 51
1, 106515, Note_on_c, 0, 91, 49
1, 106520, Note_on_c, 0, 84, 42
1, 106523, Note_on_c, 0, 88, 43
1, 106533, Note_on_c, 0, 79, 40
1, 106533, Note_on_c, 0, 81, 35
1, 106535, Note_on_c, 0, 69, 49
1, 106538, Note_on_c, 0, 64, 41
1, 106540, Note_on_c, 0, 67, 45
1, 106563, Note_off_c, 0, 69, 64
1, 106565, Note_off_c, 0, 64, 62
1, 106566, Note_off_c, 0, 67, 57
1, 106572, Note_off_c, 0, 88, 62
1, 106572, Note_off_c, 0, 84, 63
1, 106574, Note_on_c, 0, 60, 32
1, 106582, Note_off_c, 0, 91, 59
1, 106583, Note_off_c, 0, 79, 62
1, 106586, Note_off_c, 0, 93, 63
1, 106608, Note_off_c, 0, 81, 39
1, 106611, Note_off_c, 0, 60, 53
1, 106924, Note_on_c, 0, 28, 45
1, 106962, Note_off_c, 0, 28, 57
1, 107007, Poly_aftertouch_c, 0, 40, 0
1, 107402, Note_on_c, 0, 33, 50
1, 107402, Note_on_c, 0, 45, 49
1, 107433, Note_off_c, 0, 45, 59
1, 107437, Note_off_c, 0, 33, 64
1, 107999, Note_on_c, 0, 69, 32
1, 108010, Note_on_c, 0, 64, 25
1, 108025, Note_on_c, 0, 67, 34
1, 108045, Note_on_c, 0, 60, 41
1, 108169, Note_off_c, 0, 69, 52
1, 108268, Note_off_c, 0, 60, 63
1, 108342, Note_off_c, 0, 67, 55
1, 108378, Note_off_c, 0, 64, 38
1, 108419, Control_c, 0, 67, 118
1, 108433, Control_c, 0, 67, 92
1, 108448, Control_c, 0, 67, 62
1, 108463, Control_c, 0, 67, 33
1, 108478, Control_c, 0, 67, 0
1, 108563, Note_on_c, 0, 55, 81
1, 108915, Control_c, 0, 64, 108
1, 108929, Control_c, 0, 64, 99
1, 108944, Control_c, 0, 64, 90
1, 108959, Control_c, 0, 64, 82
1, 108974, Control_c, 0, 64, 73
1, 108989, Control_c, 0, 64, 63
1, 109004, Control_c, 0, 64, 43
1, 109019, Control_c, 0, 64, 0
1, 109279, Note_on_c, 0, 57, 88
1, 109285, Control_c, 0, 64, 45
1, 109299, Control_c, 0, 64, 60
1, 109314, Control_c, 0, 64, 63
1, 109329, Control_c, 0, 64, 66
1, 109344, Control_c, 0, 64, 68
1, 109359, Control_c, 0, 64, 70
1, 109373, Control_c, 0, 64, 73
1, 109388, Control_c, 0, 64, 76
1, 109411, Control_c, 0, 64, 80
1, 109412, Note_off_c, 0, 55, 58
1, 109426, Control_c, 0, 64, 82
1, 109441, Control_c, 0, 64, 84
1, 109455, Control_c, 0, 64, 84
1, 109560, Control_c, 0, 64, 84
1, 109575, Control_c, 0, 64, 82
1, 109588, Note_on_c, 0, 59, 71
1, 109590, Control_c, 0, 64, 80
1, 109604, Control_c, 0, 64, 76
1, 109619, Control_c, 0, 64, 74
1, 109634, Control_c, 0, 64, 72
1, 109649, Control_c, 0, 64, 70
1, 109664, Control_c, 0, 64, 68
1, 109678, Control_c, 0, 64, 66
1, 109693, Control_c, 0, 64, 62
1, 109708, Control_c, 0, 64, 55
1, 109722, Note_off_c, 0, 57, 57
1, 109723, Control_c, 0, 64, 41
1, 109738, Control_c, 0, 64, 0
1, 110399, Control_c, 0, 64, 39
1, 110414, Control_c, 0, 64, 48
1, 110428, Control_c, 0, 64, 50
1, 110443, Control_c, 0, 64, 51
1, 110458, Control_c, 0, 64, 53
1, 110473, Control_c, 0, 64, 57
1, 110488, Control_c, 0, 64, 60
1, 110502, Control_c, 0, 64, 63
1, 110517, Control_c, 0, 64, 64
1, 110532, Control_c, 0, 64, 65
1, 110546, Control_c, 0, 64, 67
1, 110561, Control_c, 0, 64, 70
1, 110576, Control_c, 0, 64, 74
1, 110591, Control_c, 0, 64, 80
1, 110606, Control_c, 0, 64, 87
1, 110620, Control_c, 0, 64, 100
1, 110635, Control_c, 0, 64, 127
1, 110829, Note_off_c, 0, 59, 56
1, 110840, Note_on_c, 0, 57, 78
1, 110934, Note_on_c, 0, 59, 54
1, 110953, Note_off_c, 0, 59, 63
1, 111087, Control_c, 0, 64, 113
1, 111102, Control_c, 0, 64, 102
1, 111117, Control_c, 0, 64, 94
1, 111132, Control_c, 0, 64, 86
1, 111147, Control_c, 0, 64, 80
1, 111162, Control_c, 0, 64, 75
1, 111177, Control_c, 0, 64, 70
1, 111192, Control_c, 0, 64, 65
1, 111207, Control_c, 0, 64, 62
1, 111222, Control_c, 0, 64, 58
1, 111237, Control_c, 0, 64, 57
1, 111251, Control_c, 0, 64, 56
1, 111281, Control_c, 0, 64, 55
1, 111296, Control_c, 0, 64, 55
1, 111311, Control_c, 0, 64, 54
1, 111325, Control_c, 0, 64, 52
1, 111340, Control_c, 0, 64, 51
1, 111355, Control_c, 0, 64, 51
1, 111369, Control_c, 0, 64, 49
1, 111384, Control_c, 0, 64, 47
1, 111399, Control_c, 0, 64, 44
1, 111414, Control_c, 0, 64, 40
1, 111429, Control_c, 0, 64, 36
1, 111443, Control_c, 0, 64, 31
1, 111458, Control_c, 0, 64, 0
1, 111791, Control_c, 0, 64, 31
1, 111806, Control_c, 0, 64, 39
1, 111821, Control_c, 0, 64, 47
1, 111836, Control_c, 0, 64, 54
1, 111851, Control_c, 0, 64, 57
1, 111866, Control_c, 0, 64, 59
1, 111880, Control_c, 0, 64, 61
1, 111895, Control_c, 0, 64, 63
1, 111910, Control_c, 0, 64, 65
1, 111925, Control_c, 0, 64, 67
1, 111940, Control_c, 0, 64, 70
1, 111955, Control_c, 0, 64, 72
1, 111970, Control_c, 0, 64, 75
1, 111985, Control_c, 0, 64, 78
1, 112000, Control_c, 0, 64, 82
1, 112015, Control_c, 0, 64, 85
1, 112029, Control_c, 0, 64, 87
1, 112044, Control_c, 0, 64, 89
1, 112059, Control_c, 0, 64, 91
1, 112074, Control_c, 0, 64, 91
1, 112089, Control_c, 0, 64, 92
1, 112104, Control_c, 0, 64, 93
1, 112252, Control_c, 0, 64, 92
1, 112281, Control_c, 0, 64, 92
1, 112296, Control_c, 0, 64, 91
1, 112311, Control_c, 0, 64, 91
1, 112325, Control_c, 0, 64, 90
1, 112355, Control_c, 0, 64, 89
1, 112370, Control_c, 0, 64, 89
1, 112385, Control_c, 0, 64, 88
1, 112407, Control_c, 0, 64, 86
1, 112422, Control_c, 0, 64, 85
1, 112437, Control_c, 0, 64, 84
1, 112440, Note_on_c, 0, 55, 50
1, 112452, Control_c, 0, 64, 83
1, 112467, Control_c, 0, 64, 82
1, 112481, Control_c, 0, 64, 82
1, 112496, Control_c, 0, 64, 80
1, 112509, Note_off_c, 0, 57, 47
1, 112511, Control_c, 0, 64, 79
1, 112525, Control_c, 0, 64, 78
1, 112540, Control_c, 0, 64, 76
1, 112555, Control_c, 0, 64, 75
1, 112570, Control_c, 0, 64, 74
1, 112585, Control_c, 0, 64, 72
1, 112599, Control_c, 0, 64, 70
1, 112614, Control_c, 0, 64, 69
1, 112629, Control_c, 0, 64, 67
1, 112644, Control_c, 0, 64, 66
1, 112659, Control_c, 0, 64, 65
1, 112673, Control_c, 0, 64, 63
1, 112688, Control_c, 0, 64, 62
1, 112703, Control_c, 0, 64, 61
1, 112719, Control_c, 0, 64, 61
1, 112734, Control_c, 0, 64, 60
1, 112748, Control_c, 0, 64, 60
1, 112763, Control_c, 0, 64, 59
1, 112778, Control_c, 0, 64, 58
1, 112793, Control_c, 0, 64, 58
1, 112808, Control_c, 0, 64, 57
1, 112822, Control_c, 0, 64, 57
1, 112837, Control_c, 0, 64, 56
1, 112852, Control_c, 0, 64, 56
1, 112867, Control_c, 0, 64, 55
1, 112892, Note_on_c, 0, 54, 47
1, 112897, Control_c, 0, 64, 55
1, 112912, Control_c, 0, 64, 54
1, 112927, Control_c, 0, 64, 53
1, 112941, Control_c, 0, 64, 51
1, 112956, Control_c, 0, 64, 49
1, 112971, Control_c, 0, 64, 46
1, 112986, Control_c, 0, 64, 38
1, 112994, Note_off_c, 0, 55, 32
1, 113001, Control_c, 0, 64, 0
1, 113175, Note_on_c, 0, 57, 47
1, 113223, Note_off_c, 0, 54, 31
1, 113304, Control_c, 0, 64, 38
1, 113319, Control_c, 0, 64, 52
1, 113334, Control_c, 0, 64, 60
1, 113348, Control_c, 0, 64, 64
1, 113363, Control_c, 0, 64, 66
1, 113378, Control_c, 0, 64, 68
1, 113393, Control_c, 0, 64, 72
1, 113408, Control_c, 0, 64, 76
1, 113422, Control_c, 0, 64, 81
1, 113437, Control_c, 0, 64, 86
1, 113452, Control_c, 0, 64, 90
1, 113466, Control_c, 0, 64, 93
1, 113481, Control_c, 0, 64, 96
1, 113590, Note_on_c, 0, 54, 61
1, 113597, Note_off_c, 0, 57, 37
1, 113631, Control_c, 0, 64, 95
1, 113645, Control_c, 0, 64, 93
1, 113658, Note_on_c, 0, 57, 51
1, 113660, Control_c, 0, 64, 90
1, 113660, Control_c, 0, 67, 19
1, 113675, Control_c, 0, 64, 87
1, 113690, Control_c, 0, 64, 83
1, 113705, Control_c, 0, 64, 80
1, 113705, Control_c, 0, 67, 22
1, 113720, Control_c, 0, 64, 78
1, 113720, Control_c, 0, 67, 24
1, 113721, Note_off_c, 0, 57, 57
1, 113735, Control_c, 0, 64, 75
1, 113749, Control_c, 0, 64, 72
1, 113764, Control_c, 0, 64, 69
1, 113764, Control_c, 0, 67, 26
1, 113779, Control_c, 0, 64, 66
1, 113794, Control_c, 0, 64, 64
1, 113809, Control_c, 0, 64, 62
1, 113809, Control_c, 0, 67, 28
1, 113824, Control_c, 0, 64, 60
1, 113838, Control_c, 0, 64, 57
1, 113853, Control_c, 0, 64, 55
1, 113868, Control_c, 0, 64, 53
1, 113890, Control_c, 0, 64, 52
1, 113904, Control_c, 0, 64, 51
1, 113919, Control_c, 0, 64, 49
1, 113934, Control_c, 0, 64, 45
1, 113949, Control_c, 0, 64, 40
1, 113964, Control_c, 0, 64, 36
1, 113979, Control_c, 0, 64, 33
1, 113994, Control_c, 0, 64, 31
1, 114009, Control_c, 0, 64, 0
1, 114602, Control_c, 0, 64, 37
1, 114617, Control_c, 0, 64, 45
1, 114639, Control_c, 0, 64, 51
1, 114654, Control_c, 0, 64, 54
1, 114668, Control_c, 0, 64, 55
1, 114683, Control_c, 0, 64, 57
1, 114698, Control_c, 0, 64, 59
1, 114712, Control_c, 0, 64, 60
1, 114727, Control_c, 0, 64, 62
1, 114742, Control_c, 0, 64, 64
1, 114757, Control_c, 0, 64, 65
1, 114772, Control_c, 0, 64, 66
1, 114787, Control_c, 0, 64, 68
1, 114802, Control_c, 0, 64, 70
1, 114817, Control_c, 0, 64, 72
1, 114832, Control_c, 0, 64, 75
1, 114846, Control_c, 0, 64, 78
1, 114861, Control_c, 0, 64, 82
1, 114876, Control_c, 0, 64, 85
1, 114891, Control_c, 0, 64, 88
1, 114906, Control_c, 0, 64, 91
1, 114920, Control_c, 0, 64, 93
1, 114935, Control_c, 0, 64, 93
1, 114950, Control_c, 0, 64, 94
1, 114994, Control_c, 0, 67, 30
1, 115053, Control_c, 0, 67, 32
1, 115068, Control_c, 0, 67, 32
1, 115083, Control_c, 0, 67, 36
1, 115098, Control_c, 0, 67, 43
1, 115114, Control_c, 0, 67, 49
1, 115129, Control_c, 0, 67, 54
1, 115143, Control_c, 0, 64, 93
1, 115143, Control_c, 0, 67, 59
1, 115158, Control_c, 0, 67, 63
1, 115173, Control_c, 0, 64, 93
1, 115173, Control_c, 0, 67, 67
1, 115188, Control_c, 0, 67, 72
1, 115203, Control_c, 0, 67, 77
1, 115217, Control_c, 0, 67, 82
1, 115232, Control_c, 0, 67, 88
1, 115247, Control_c, 0, 64, 92
1, 115247, Control_c, 0, 67, 92
1, 115262, Control_c, 0, 67, 96
1, 115277, Control_c, 0, 64, 92
1, 115277, Control_c, 0, 67, 100
1, 115291, Control_c, 0, 64, 91
1, 115291, Control_c, 0, 67, 105
1, 115306, Control_c, 0, 67, 108
1, 115321, Control_c, 0, 67, 112
1, 115335, Control_c, 0, 64, 91
1, 115335, Control_c, 0, 67, 116
1, 115350, Control_c, 0, 64, 90
1, 115350, Control_c, 0, 67, 120
1, 115365, Control_c, 0, 64, 89
1, 115365, Control_c, 0, 67, 123
1, 115388, Control_c, 0, 64, 88
1, 115388, Control_c, 0, 67, 126
1, 115403, Control_c, 0, 64, 88
1, 115414, Note_on_c, 0, 52, 31
1, 115417, Control_c, 0, 64, 87
1, 115432, Control_c, 0, 64, 86
1, 115447, Control_c, 0, 64, 85
1, 115461, Control_c, 0, 64, 84
1, 115476, Control_c, 0, 64, 82
1, 115491, Control_c, 0, 64, 81
1, 115506, Control_c, 0, 64, 80
1, 115521, Control_c, 0, 64, 79
1, 115535, Control_c, 0, 64, 77
1, 115550, Control_c, 0, 64, 75
1, 115565, Control_c, 0, 64, 73
1, 115580, Control_c, 0, 64, 70
1, 115589, Note_off_c, 0, 54, 25
1, 115595, Control_c, 0, 64, 68
1, 115610, Control_c, 0, 64, 65
1, 115625, Control_c, 0, 64, 61
1, 115640, Control_c, 0, 64, 56
1, 115655, Control_c, 0, 64, 51
1, 115669, Control_c, 0, 64, 45
1, 115684, Control_c, 0, 64, 35
1, 115699, Control_c, 0, 64, 0
1, 115937, Control_c, 0, 64, 38
1, 115952, Control_c, 0, 64, 51
1, 115967, Control_c, 0, 64, 59
1, 115982, Control_c, 0, 64, 63
1, 115997, Control_c, 0, 64, 65
1, 116012, Control_c, 0, 64, 68
1, 116027, Control_c, 0, 64, 72
1, 116041, Control_c, 0, 64, 76
1, 116056, Control_c, 0, 64, 82
1, 116071, Control_c, 0, 64, 91
1, 116085, Control_c, 0, 64, 109
1, 116100, Control_c, 0, 64, 127
1, 116110, Note_off_c, 0, 52, 41
1, 116244, Note_on_c, 0, 43, 37
1, 116254, Note_on_c, 0, 31, 27
1, 116303, Note_off_c, 0, 43, 61
1, 116307, Note_off_c, 0, 31, 57
1, 116852, Note_on_c, 0, 93, 50
1, 116856, Note_on_c, 0, 91, 47
1, 116859, Note_on_c, 0, 64, 38
1, 116862, Note_on_c, 0, 86, 43
1, 116864, Note_on_c, 0, 88, 42
1, 116865, Note_on_c, 0, 62, 37
1, 116868, Note_on_c, 0, 59, 39
1, 116877, Note_on_c, 0, 69, 27
1, 116888, Note_on_c, 0, 67, 30
1, 116891, Note_on_c, 0, 81, 20
1, 116892, Note_on_c, 0, 83, 18
1, 116914, Note_off_c, 0, 88, 61
1, 116915, Note_off_c, 0, 91, 57
1, 116918, Note_off_c, 0, 86, 56
1, 116924, Note_off_c, 0, 62, 60
1, 116927, Note_off_c, 0, 67, 53
1, 116927, Note_off_c, 0, 69, 51
1, 116927, Note_off_c, 0, 93, 52
1, 116930, Note_off_c, 0, 64, 62
1, 116957, Note_off_c, 0, 83, 44
1, 116959, Note_off_c, 0, 59, 60
1, 116966, Note_off_c, 0, 81, 42
1, 117306, Note_on_c, 0, 26, 49
1, 117383, Note_off_c, 0, 26, 48
1, 117403, Poly_aftertouch_c, 0, 38, 0
1, 117713, Note_on_c, 0, 43, 49
1, 117714, Note_on_c, 0, 31, 46
1, 117756, Note_off_c, 0, 31, 60
1, 117758, Note_off_c, 0, 43, 63
1, 118079, Note_on_c, 0, 88, 48
1, 118079, Note_on_c, 0, 93, 51
1, 118083, Note_on_c, 0, 91, 46
1, 118084, Note_on_c, 0, 83, 43
1, 118087, Note_on_c, 0, 81, 46
1, 118090, Note_on_c, 0, 67, 38
1, 118092, Note_on_c, 0, 86, 43
1, 118093, Note_on_c, 0, 62, 42
1, 118096, Note_on_c, 0, 64, 39
1, 118098, Note_on_c, 0, 69, 41
1, 118099, Note_on_c, 0, 59, 38
1, 118122, Note_off_c, 0, 62, 59
1, 118122, Note_off_c, 0, 67, 62
1, 118123, Note_off_c, 0, 64, 58
1, 118125, Note_off_c, 0, 69, 55
1, 118136, Note_off_c, 0, 59, 62
1, 118140, Note_off_c, 0, 86, 56
1, 118143, Note_off_c, 0, 91, 52
1, 118146, Note_off_c, 0, 93, 60
1, 118146, Note_off_c, 0, 88, 60
1, 118153, Note_off_c, 0, 83, 60
1, 118176, Note_off_c, 0, 81, 40
1, 118239, Note_on_c, 0, 93, 56
1, 118246, Note_on_c, 0, 88, 50
1, 118252, Note_on_c, 0, 83, 41
1, 118253, Note_on_c, 0, 91, 54
1, 118254, Note_on_c, 0, 86, 40
1, 118257, Note_on_c, 0, 81, 41
1, 118283, Note_off_c, 0, 91, 55
1, 118286, Note_off_c, 0, 81, 53
1, 118290, Note_off_c, 0, 86, 52
1, 118291, Note_off_c, 0, 83, 55
1, 118292, Note_off_c, 0, 88, 59
1, 118294, Note_off_c, 0, 93, 57
1, 118390, Note_on_c, 0, 93, 47
1, 118397, Note_on_c, 0, 83, 53
1, 118404, Note_on_c, 0, 81, 42
1, 118404, Note_on_c, 0, 88, 44
1, 118406, Note_on_c, 0, 91, 43
1, 118429, Note_off_c, 0, 88, 58
1, 118429, Note_off_c, 0, 83, 49
1, 118433, Note_off_c, 0, 91, 54
1, 118435, Note_off_c, 0, 81, 51
1, 118435, Note_off_c, 0, 93, 63
1, 118542, Note_on_c, 0, 26, 50
1, 118601, Note_off_c, 0, 26, 47
1, 118760, Note_on_c, 0, 43, 44
1, 118772, Note_on_c, 0, 31, 37
1, 118797, Note_off_c, 0, 43, 63
1, 118813, Note_off_c, 0, 31, 44
1, 119303, Note_on_c, 0, 67, 25
1, 119307, Note_on_c, 0, 69, 25
1, 119322, Note_on_c, 0, 62, 29
1, 119326, Note_on_c, 0, 64, 18
1, 119339, Note_on_c, 0, 59, 30
1, 119583, Note_off_c, 0, 67, 37
1, 119623, Note_off_c, 0, 69, 39
1, 119726, Note_off_c, 0, 59, 62
1, 119824, Note_off_c, 0, 64, 54
1, 119848, Note_off_c, 0, 62, 38
1, 119873, Control_c, 0, 67, 121
1, 119896, Control_c, 0, 67, 98
1, 119911, Control_c, 0, 67, 75
1, 119926, Control_c, 0, 67, 53
1, 119941, Control_c, 0, 67, 35
1, 119956, Control_c, 0, 67, 19
1, 119964, Note_on_c, 0, 52, 81
1, 119971, Control_c, 0, 67, 0
1, 120281, Control_c, 0, 64, 87
1, 120296, Control_c, 0, 64, 65
1, 120311, Control_c, 0, 64, 0
1, 120430, Control_c, 0, 64, 33
1, 120445, Control_c, 0, 64, 61
1, 120459, Control_c, 0, 64, 68
1, 120489, Control_c, 0, 64, 67
1, 120504, Control_c, 0, 64, 66
1, 120519, Control_c, 0, 64, 67
1, 120525, Note_on_c, 0, 54, 93
1, 120533, Control_c, 0, 64, 68
1, 120548, Control_c, 0, 64, 70
1, 120563, Control_c, 0, 64, 75
1, 120577, Control_c, 0, 64, 81
1, 120592, Control_c, 0, 64, 90
1, 120607, Control_c, 0, 64, 101
1, 120614, Note_off_c, 0, 52, 59
1, 120622, Control_c, 0, 64, 116
1, 120644, Control_c, 0, 64, 127
1, 120737, Note_off_c, 0, 54, 61
1, 120778, Control_c, 0, 64, 80
1, 120782, Note_on_c, 0, 55, 101
1, 120793, Control_c, 0, 64, 58
1, 120808, Control_c, 0, 64, 0
1, 120868, Control_c, 0, 64, 57
1, 120882, Control_c, 0, 64, 71
1, 120897, Control_c, 0, 64, 87
1, 120912, Control_c, 0, 64, 127
1, 121013, Note_off_c, 0, 55, 53
1, 121077, Note_on_c, 0, 55, 75
1, 121172, Note_on_c, 0, 62, 94
1, 121270, Note_off_c, 0, 55, 62
1, 121312, Control_c, 0, 64, 110
1, 121327, Control_c, 0, 64, 94
1, 121342, Control_c, 0, 64, 86
1, 121356, Control_c, 0, 64, 77
1, 121378, Control_c, 0, 64, 68
1, 121393, Control_c, 0, 64, 56
1, 121407, Control_c, 0, 64, 0
1, 121852, Control_c, 0, 64, 43
1, 121867, Control_c, 0, 64, 54
1, 121882, Control_c, 0, 64, 61
1, 121896, Control_c, 0, 64, 64
1, 121911, Control_c, 0, 64, 67
1, 121926, Control_c, 0, 64, 68
1, 121941, Control_c, 0, 64, 69
1, 121956, Control_c, 0, 64, 72
1, 121971, Control_c, 0, 64, 75
1, 121986, Control_c, 0, 64, 78
1, 122001, Control_c, 0, 64, 79
1, 122016, Control_c, 0, 64, 80
1, 122030, Control_c, 0, 64, 82
1, 122045, Control_c, 0, 64, 84
1, 122060, Control_c, 0, 64, 88
1, 122075, Control_c, 0, 64, 91
1, 122090, Control_c, 0, 64, 93
1, 122104, Control_c, 0, 64, 94
1, 122126, Control_c, 0, 64, 94
1, 122141, Control_c, 0, 64, 95
1, 122156, Control_c, 0, 64, 96
1, 122200, Control_c, 0, 64, 98
1, 122251, Note_on_c, 0, 64, 83
1, 122317, Note_off_c, 0, 62, 61
1, 122320, Control_c, 0, 64, 96
1, 122424, Control_c, 0, 64, 95
1, 122439, Control_c, 0, 64, 94
1, 122453, Control_c, 0, 64, 93
1, 122468, Control_c, 0, 64, 92
1, 122483, Control_c, 0, 64, 91
1, 122498, Control_c, 0, 64, 91
1, 122513, Control_c, 0, 64, 90
1, 122527, Control_c, 0, 64, 89
1, 122542, Control_c, 0, 64, 89
1, 122557, Control_c, 0, 64, 88
1, 122572, Control_c, 0, 64, 87
1, 122586, Control_c, 0, 64, 86
1, 122601, Control_c, 0, 64, 84
1, 122616, Control_c, 0, 64, 84
1, 122631, Control_c, 0, 64, 83
1, 122646, Control_c, 0, 64, 82
1, 122660, Control_c, 0, 64, 81
1, 122675, Control_c, 0, 64, 80
1, 122690, Control_c, 0, 64, 78
1, 122697, Note_on_c, 0, 61, 85
1, 122705, Control_c, 0, 64, 74
1, 122719, Control_c, 0, 64, 69
1, 122734, Control_c, 0, 64, 63
1, 122749, Control_c, 0, 64, 56
1, 122764, Control_c, 0, 64, 51
1, 122779, Control_c, 0, 64, 52
1, 122794, Control_c, 0, 64, 55
1, 122808, Note_off_c, 0, 64, 60
1, 122808, Control_c, 0, 64, 60
1, 122823, Control_c, 0, 64, 64
1, 122838, Control_c, 0, 64, 67
1, 122853, Control_c, 0, 64, 70
1, 122875, Control_c, 0, 64, 71
1, 122890, Control_c, 0, 64, 72
1, 122905, Control_c, 0, 64, 72
1, 122978, Control_c, 0, 64, 72
1, 122993, Control_c, 0, 64, 70
1, 123008, Control_c, 0, 64, 67
1, 123023, Control_c, 0, 64, 64
1, 123028, Note_on_c, 0, 62, 84
1, 123038, Control_c, 0, 64, 61
1, 123053, Control_c, 0, 64, 60
1, 123068, Control_c, 0, 64, 61
1, 123083, Control_c, 0, 64, 63
1, 123094, Note_off_c, 0, 61, 60
1, 123098, Control_c, 0, 64, 66
1, 123113, Control_c, 0, 64, 68
1, 123128, Control_c, 0, 64, 70
1, 123143, Control_c, 0, 64, 72
1, 123157, Control_c, 0, 64, 74
1, 123172, Control_c, 0, 64, 74
1, 123232, Control_c, 0, 64, 74
1, 123247, Control_c, 0, 64, 73
1, 123262, Control_c, 0, 64, 69
1, 123270, Note_on_c, 0, 59, 84
1, 123276, Control_c, 0, 64, 66
1, 123291, Control_c, 0, 64, 63
1, 123306, Control_c, 0, 64, 62
1, 123321, Control_c, 0, 64, 63
1, 123336, Control_c, 0, 64, 66
1, 123350, Control_c, 0, 64, 70
1, 123365, Control_c, 0, 64, 72
1, 123380, Note_off_c, 0, 62, 59
1, 123380, Control_c, 0, 64, 73
1, 123395, Control_c, 0, 64, 73
1, 123409, Control_c, 0, 64, 70
1, 123424, Control_c, 0, 64, 65
1, 123439, Control_c, 0, 64, 60
1, 123454, Control_c, 0, 64, 58
1, 123469, Control_c, 0, 64, 59
1, 123483, Control_c, 0, 64, 61
1, 123485, Note_on_c, 0, 61, 85
1, 123498, Control_c, 0, 64, 63
1, 123513, Control_c, 0, 64, 65
1, 123515, Note_off_c, 0, 59, 65
1, 123528, Control_c, 0, 64, 67
1, 123543, Control_c, 0, 64, 69
1, 123557, Control_c, 0, 64, 70
1, 123572, Control_c, 0, 64, 66
1, 123587, Control_c, 0, 64, 61
1, 123601, Control_c, 0, 64, 59
1, 123616, Control_c, 0, 64, 61
1, 123639, Control_c, 0, 64, 65
1, 123644, Note_on_c, 0, 57, 86
1, 123648, Note_off_c, 0, 61, 62
1, 123654, Control_c, 0, 64, 69
1, 123669, Control_c, 0, 64, 71
1, 123683, Control_c, 0, 64, 72
1, 123698, Control_c, 0, 64, 73
1, 123727, Control_c, 0, 64, 70
1, 123742, Control_c, 0, 64, 64
1, 123757, Control_c, 0, 64, 56
1, 123772, Control_c, 0, 64, 55
1, 123781, Note_on_c, 0, 59, 83
1, 123787, Control_c, 0, 64, 58
1, 123800, Note_off_c, 0, 57, 58
1, 123801, Control_c, 0, 64, 62
1, 123816, Control_c, 0, 64, 65
1, 123831, Control_c, 0, 64, 65
1, 123846, Control_c, 0, 64, 65
1, 123861, Control_c, 0, 64, 64
1, 123880, Note_off_c, 0, 59, 63
1, 123897, Note_on_c, 0, 55, 78
1, 123906, Control_c, 0, 64, 61
1, 123921, Control_c, 0, 64, 55
1, 123936, Control_c, 0, 64, 50
1, 123951, Control_c, 0, 64, 54
1, 123966, Control_c, 0, 64, 59
1, 123980, Control_c, 0, 64, 61
1, 123995, Control_c, 0, 64, 56
1, 124010, Control_c, 0, 64, 48
1, 124012, Note_on_c, 0, 57, 76
1, 124025, Control_c, 0, 64, 35
1, 124028, Note_off_c, 0, 55, 62
1, 124040, Control_c, 0, 64, 30
1, 124054, Control_c, 0, 64, 33
1, 124069, Control_c, 0, 64, 37
1, 124084, Control_c, 0, 64, 36
1, 124099, Control_c, 0, 64, 34
1, 124114, Control_c, 0, 64, 34
1, 124129, Control_c, 0, 64, 38
1, 124138, Note_on_c, 0, 54, 68
1, 124143, Control_c, 0, 64, 44
1, 124153, Note_off_c, 0, 57, 62
1, 124158, Control_c, 0, 64, 40
1, 124173, Control_c, 0, 64, 0
1, 124259, Note_off_c, 0, 54, 62
1, 124266, Note_on_c, 0, 55, 67
1, 124321, Control_c, 0, 64, 34
1, 124365, Control_c, 0, 64, 37
1, 124388, Control_c, 0, 64, 43
1, 124393, Note_off_c, 0, 55, 62
1, 124403, Control_c, 0, 64, 49
1, 124412, Note_on_c, 0, 52, 60
1, 124418, Control_c, 0, 64, 52
1, 124432, Control_c, 0, 64, 51
1, 124447, Control_c, 0, 64, 49
1, 124462, Control_c, 0, 64, 48
1, 124477, Control_c, 0, 64, 47
1, 124492, Control_c, 0, 64, 44
1, 124506, Control_c, 0, 64, 36
1, 124521, Control_c, 0, 64, 0
1, 124561, Note_on_c, 0, 54, 65
1, 124565, Control_c, 0, 64, 31
1, 124580, Control_c, 0, 64, 35
1, 124583, Note_off_c, 0, 52, 50
1, 124639, Control_c, 0, 64, 36
1, 124654, Control_c, 0, 64, 36
1, 124669, Control_c, 0, 64, 34
1, 124684, Control_c, 0, 64, 32
1, 124700, Control_c, 0, 64, 32
1, 124744, Control_c, 0, 64, 30
1, 124747, Note_off_c, 0, 54, 63
1, 124759, Control_c, 0, 64, 0
1, 124771, Note_on_c, 0, 50, 64
1, 124773, Control_c, 0, 64, 30
1, 124788, Control_c, 0, 64, 36
1, 124803, Control_c, 0, 64, 44
1, 124818, Control_c, 0, 64, 48
1, 124847, Control_c, 0, 64, 47
1, 124862, Control_c, 0, 64, 48
1, 124877, Control_c, 0, 64, 48
1, 124892, Control_c, 0, 64, 49
1, 124907, Control_c, 0, 64, 48
1, 124922, Control_c, 0, 64, 47
1, 124937, Control_c, 0, 64, 44
1, 124952, Control_c, 0, 64, 42
1, 124981, Control_c, 0, 64, 43
1, 124987, Note_on_c, 0, 52, 57
1, 124993, Note_off_c, 0, 50, 51
1, 125011, Control_c, 0, 64, 42
1, 125040, Control_c, 0, 64, 42
1, 125070, Control_c, 0, 64, 40
1, 125085, Control_c, 0, 64, 39
1, 125100, Control_c, 0, 64, 37
1, 125122, Control_c, 0, 64, 35
1, 125137, Control_c, 0, 64, 35
1, 125166, Control_c, 0, 64, 34
1, 125196, Control_c, 0, 64, 34
1, 125211, Control_c, 0, 64, 33
1, 125226, Control_c, 0, 64, 32
1, 125233, Note_on_c, 0, 49, 53
1, 125241, Control_c, 0, 64, 32
1, 125271, Note_off_c, 0, 52, 58
1, 125329, Control_c, 0, 64, 0
1, 126004, Control_c, 0, 64, 41
1, 126019, Control_c, 0, 64, 50
1, 126034, Control_c, 0, 64, 53
1, 126049, Control_c, 0, 64, 55
1, 126064, Control_c, 0, 64, 58
1, 126078, Control_c, 0, 64, 61
1, 126093, Control_c, 0, 64, 64
1, 126108, Control_c, 0, 64, 67
1, 126123, Control_c, 0, 64, 69
1, 126138, Control_c, 0, 64, 70
1, 126153, Control_c, 0, 64, 70
1, 126168, Control_c, 0, 64, 71
1, 126257, Control_c, 0, 64, 70
1, 126271, Control_c, 0, 64, 70
1, 126302, Control_c, 0, 64, 69
1, 126332, Control_c, 0, 64, 69
1, 126346, Control_c, 0, 64, 68
1, 126361, Control_c, 0, 64, 68
1, 126465, Control_c, 0, 64, 68
1, 126480, Control_c, 0, 64, 69
1, 126494, Control_c, 0, 64, 69
1, 126538, Control_c, 0, 64, 70
1, 126553, Control_c, 0, 64, 72
1, 126568, Control_c, 0, 64, 74
1, 126583, Control_c, 0, 64, 77
1, 126598, Control_c, 0, 64, 79
1, 126620, Control_c, 0, 64, 81
1, 126635, Control_c, 0, 64, 83
1, 126650, Control_c, 0, 64, 85
1, 126665, Control_c, 0, 64, 88
1, 126680, Control_c, 0, 64, 90
1, 126694, Control_c, 0, 64, 91
1, 126842, Control_c, 0, 64, 91
1, 126872, Control_c, 0, 64, 90
1, 126885, Note_on_c, 0, 47, 49
1, 126887, Control_c, 0, 64, 89
1, 126901, Control_c, 0, 64, 88
1, 126916, Control_c, 0, 64, 87
1, 126931, Control_c, 0, 64, 85
1, 126946, Control_c, 0, 64, 82
1, 126961, Control_c, 0, 64, 79
1, 126976, Control_c, 0, 64, 75
1, 126991, Control_c, 0, 64, 71
1, 127006, Control_c, 0, 64, 66
1, 127020, Control_c, 0, 64, 60
1, 127034, Note_off_c, 0, 49, 55
1, 127035, Control_c, 0, 64, 55
1, 127050, Control_c, 0, 64, 51
1, 127065, Control_c, 0, 64, 48
1, 127079, Control_c, 0, 64, 47
1, 127095, Control_c, 0, 64, 45
1, 127110, Control_c, 0, 64, 41
1, 127125, Control_c, 0, 64, 36
1, 127140, Control_c, 0, 64, 30
1, 127155, Control_c, 0, 64, 0
1, 127298, Note_on_c, 0, 49, 49
1, 127353, Note_off_c, 0, 47, 52
1, 127584, Note_on_c, 0, 52, 42
1, 127643, Note_off_c, 0, 49, 33
1, 127842, Control_c, 0, 64, 39
1, 127857, Control_c, 0, 64, 52
1, 127872, Control_c, 0, 64, 59
1, 127888, Control_c, 0, 64, 61
1, 127903, Control_c, 0, 64, 63
1, 127917, Control_c, 0, 64, 64
1, 127932, Control_c, 0, 64, 66
1, 127947, Control_c, 0, 64, 69
1, 127962, Control_c, 0, 64, 71
1, 127977, Control_c, 0, 64, 74
1, 127991, Control_c, 0, 64, 75
1, 128006, Control_c, 0, 64, 77
1, 128021, Control_c, 0, 64, 78
1, 128036, Control_c, 0, 64, 79
1, 128051, Control_c, 0, 64, 80
1, 128080, Control_c, 0, 64, 80
1, 128095, Control_c, 0, 64, 81
1, 128175, Note_on_c, 0, 50, 60
1, 128183, Note_off_c, 0, 52, 57
1, 128221, Control_c, 0, 64, 80
1, 128234, Note_on_c, 0, 53, 49
1, 128236, Control_c, 0, 64, 78
1, 128251, Control_c, 0, 64, 76
1, 128266, Control_c, 0, 64, 73
1, 128280, Control_c, 0, 64, 70
1, 128284, Note_off_c, 0, 53, 40
1, 128295, Control_c, 0, 64, 68
1, 128310, Control_c, 0, 64, 65
1, 128324, Control_c, 0, 64, 63
1, 128339, Control_c, 0, 64, 61
1, 128355, Control_c, 0, 64, 59
1, 128370, Control_c, 0, 64, 59
1, 128385, Control_c, 0, 64, 58
1, 128399, Control_c, 0, 64, 56
1, 128414, Control_c, 0, 64, 53
1, 128429, Control_c, 0, 64, 49
1, 128444, Control_c, 0, 64, 43
1, 128459, Control_c, 0, 64, 38
1, 128473, Control_c, 0, 64, 35
1, 128488, Control_c, 0, 64, 31
1, 128503, Control_c, 0, 64, 0
1, 129414, Control_c, 0, 64, 38
1, 129429, Control_c, 0, 64, 49
1, 129444, Control_c, 0, 64, 55
1, 129459, Control_c, 0, 64, 57
1, 129505, Control_c, 0, 64, 58
1, 129519, Control_c, 0, 64, 60
1, 129534, Control_c, 0, 64, 62
1, 129549, Control_c, 0, 64, 62
1, 129563, Control_c, 0, 64, 63
1, 129578, Control_c, 0, 64, 64
1, 129593, Control_c, 0, 64, 65
1, 129616, Control_c, 0, 64, 67
1, 129631, Control_c, 0, 64, 69
1, 129645, Control_c, 0, 64, 73
1, 129660, Control_c, 0, 64, 76
1, 129675, Control_c, 0, 64, 80
1, 129689, Control_c, 0, 64, 84
1, 129704, Control_c, 0, 64, 89
1, 129719, Control_c, 0, 64, 93
1, 129734, Control_c, 0, 64, 97
1, 129749, Control_c, 0, 64, 102
1, 129763, Control_c, 0, 64, 105
1, 129793, Control_c, 0, 64, 108
1, 129823, Control_c, 0, 64, 110
1, 129837, Control_c, 0, 67, 19
1, 129882, Control_c, 0, 67, 21
1, 129942, Control_c, 0, 67, 23
1, 129971, Control_c, 0, 67, 26
1, 130060, Control_c, 0, 64, 107
1, 130075, Control_c, 0, 67, 28
1, 130104, Control_c, 0, 67, 30
1, 130119, Control_c, 0, 64, 105
1, 130119, Control_c, 0, 67, 34
1, 130134, Control_c, 0, 67, 36
1, 130149, Control_c, 0, 67, 38
1, 130163, Control_c, 0, 64, 102
1, 130163, Control_c, 0, 67, 39
1, 130178, Control_c, 0, 67, 40
1, 130186, Note_on_c, 0, 49, 33
1, 130193, Control_c, 0, 67, 42
1, 130208, Control_c, 0, 64, 100
1, 130208, Control_c, 0, 67, 43
1, 130222, Control_c, 0, 67, 44
1, 130237, Control_c, 0, 64, 98
1, 130237, Control_c, 0, 67, 44
1, 130252, Control_c, 0, 67, 45
1, 130267, Control_c, 0, 64, 95
1, 130267, Control_c, 0, 67, 46
1, 130283, Control_c, 0, 64, 94
1, 130283, Control_c, 0, 67, 47
1, 130298, Control_c, 0, 64, 92
1, 130298, Control_c, 0, 67, 50
1, 130312, Control_c, 0, 64, 89
1, 130312, Control_c, 0, 67, 51
1, 130327, Control_c, 0, 64, 86
1, 130327, Control_c, 0, 67, 53
1, 130342, Control_c, 0, 64, 83
1, 130342, Control_c, 0, 67, 54
1, 130365, Control_c, 0, 64, 80
1, 130365, Control_c, 0, 67, 55
1, 130375, Note_off_c, 0, 50, 33
1, 130380, Control_c, 0, 64, 75
1, 130380, Control_c, 0, 67, 58
1, 130394, Control_c, 0, 64, 70
1, 130394, Control_c, 0, 67, 63
1, 130409, Control_c, 0, 64, 64
1, 130409, Control_c, 0, 67, 66
1, 130424, Control_c, 0, 64, 58
1, 130424, Control_c, 0, 67, 69
1, 130439, Control_c, 0, 64, 48
1, 130439, Control_c, 0, 67, 71
1, 130454, Control_c, 0, 64, 37
1, 130454, Control_c, 0, 67, 75
1, 130468, Control_c, 0, 64, 0
1, 130468, Control_c, 0, 67, 79
1, 130483, Control_c, 0, 67, 87
1, 130498, Control_c, 0, 67, 96
1, 130512, Control_c, 0, 67, 107
1, 130527, Control_c, 0, 67, 119
1, 130542, Control_c, 0, 67, 127
1, 130809, Control_c, 0, 64, 38
1, 130824, Control_c, 0, 64, 49
1, 130839, Control_c, 0, 64, 54
1, 130854, Control_c, 0, 64, 58
1, 130869, Control_c, 0, 64, 62
1, 130884, Control_c, 0, 64, 64
1, 130899, Control_c, 0, 64, 66
1, 130913, Control_c, 0, 64, 68
1, 130928, Control_c, 0, 64, 71
1, 130943, Control_c, 0, 64, 74
1, 130958, Control_c, 0, 64, 79
1, 130973, Note_off_c, 0, 49, 53
1, 130973, Control_c, 0, 64, 85
1, 130978, Note_on_c, 0, 42, 38
1, 130987, Control_c, 0, 64, 93
1, 130991, Note_on_c, 0, 30, 41
1, 131002, Control_c, 0, 64, 102
1, 131017, Control_c, 0, 64, 113
1, 131024, Note_off_c, 0, 42, 54
1, 131032, Control_c, 0, 64, 127
1, 131038, Note_off_c, 0, 30, 60
1, 131543, Note_on_c, 0, 93, 51
1, 131545, Note_on_c, 0, 61, 39
1, 131558, Note_on_c, 0, 58, 34
1, 131558, Note_on_c, 0, 64, 31
1, 131558, Note_on_c, 0, 81, 38
1, 131560, Note_on_c, 0, 85, 43
1, 131566, Note_on_c, 0, 88, 41
1, 131572, Note_on_c, 0, 67, 31
1, 131572, Note_on_c, 0, 69, 33
1, 131581, Note_on_c, 0, 82, 33
1, 131597, Note_off_c, 0, 64, 62
1, 131597, Note_off_c, 0, 88, 58
1, 131600, Note_off_c, 0, 85, 62
1, 131603, Note_off_c, 0, 61, 60
1, 131603, Note_off_c, 0, 67, 57
1, 131603, Note_off_c, 0, 69, 55
1, 131613, Note_off_c, 0, 93, 63
1, 131621, Note_off_c, 0, 82, 48
1, 131625, Note_off_c, 0, 58, 61
1, 131658, Note_off_c, 0, 81, 44
1, 132029, Note_on_c, 0, 25, 47
1, 132153, Note_off_c, 0, 25, 48
1, 132374, Note_on_c, 0, 30, 47
1, 132374, Note_on_c, 0, 42, 46
1, 132413, Note_off_c, 0, 30, 61
1, 132413, Note_off_c, 0, 42, 62
1, 132753, Note_on_c, 0, 93, 56
1, 132756, Note_on_c, 0, 81, 53
1, 132762, Note_on_c, 0, 88, 53
1, 132764, Note_on_c, 0, 64, 52
1, 132765, Note_on_c, 0, 82, 53
1, 132768, Note_on_c, 0, 85, 47
1, 132769, Note_on_c, 0, 69, 59
1, 132772, Note_on_c, 0, 67, 62
1, 132773, Note_on_c, 0, 61, 46
1, 132780, Note_on_c, 0, 58, 55
1, 132797, Note_off_c, 0, 64, 65
1, 132797, Note_off_c, 0, 69, 66
1, 132798, Note_off_c, 0, 67, 66
1, 132804, Note_off_c, 0, 61, 62
1, 132807, Note_off_c, 0, 85, 60
1, 132809, Note_off_c, 0, 82, 57
1, 132811, Note_off_c, 0, 58, 66
1, 132814, Note_off_c, 0, 88, 59
1, 132819, Note_off_c, 0, 93, 63
1, 132820, Note_off_c, 0, 81, 61
1, 132899, Note_on_c, 0, 81, 52
1, 132904, Note_on_c, 0, 85, 51
1, 132905, Note_on_c, 0, 93, 44
1, 132911, Note_on_c, 0, 82, 51
1, 132922, Note_on_c, 0, 88, 41
1, 132939, Note_off_c, 0, 82, 54
1, 132944, Note_off_c, 0, 81, 48
1, 132944, Note_off_c, 0, 85, 47
1, 132951, Note_off_c, 0, 88, 55
1, 132954, Note_off_c, 0, 93, 47
1, 133021, Note_on_c, 0, 93, 36
1, 133035, Note_on_c, 0, 81, 39
1, 133036, Note_on_c, 0, 85, 49
1, 133039, Note_on_c, 0, 82, 62
1, 133055, Note_on_c, 0, 88, 44
1, 133055, Note_off_c, 0, 93, 58
1, 133063, Note_off_c, 0, 81, 55
1, 133067, Note_off_c, 0, 85, 66
1, 133068, Note_off_c, 0, 82, 65
1, 133081, Note_off_c, 0, 88, 55
1, 133179, Note_on_c, 0, 25, 55
1, 133267, Note_off_c, 0, 25, 54
1, 133320, Note_on_c, 0, 30, 57
1, 133322, Control_c, 0, 64, 99
1, 133328, Note_on_c, 0, 42, 59
1, 133337, Control_c, 0, 64, 96
1, 133364, Note_off_c, 0, 42, 62
1, 133366, Note_off_c, 0, 30, 62
1, 133374, Control_c, 0, 64, 101
1, 133388, Control_c, 0, 64, 104
1, 133403, Control_c, 0, 64, 107
1, 133418, Control_c, 0, 64, 114
1, 133432, Control_c, 0, 64, 127
1, 133582, Control_c, 0, 64, 119
1, 133598, Control_c, 0, 64, 109
1, 133612, Control_c, 0, 64, 105
1, 133627, Control_c, 0, 64, 103
1, 133666, Note_on_c, 0, 73, 51
1, 133667, Note_on_c, 0, 69, 59
1, 133667, Note_on_c, 0, 81, 58
1, 133669, Note_on_c, 0, 64, 57
1, 133670, Note_on_c, 0, 61, 54
1, 133671, Note_on_c, 0, 76, 56
1, 133673, Note_on_c, 0, 70, 60
1, 133682, Note_on_c, 0, 58, 47
1, 133686, Control_c, 0, 64, 107
1, 133688, Note_off_c, 0, 64, 63
1, 133692, Note_off_c, 0, 61, 59
1, 133698, Note_off_c, 0, 69, 65
1, 133701, Note_off_c, 0, 76, 66
1, 133701, Control_c, 0, 64, 113
1, 133704, Note_off_c, 0, 70, 68
1, 133704, Note_off_c, 0, 81, 61
1, 133705, Note_off_c, 0, 73, 65
1, 133706, Note_off_c, 0, 58, 58
1, 133716, Control_c, 0, 64, 127
1, 133972, Note_on_c, 0, 25, 74
1, 133981, Note_on_c, 0, 37, 55
1, 134015, Note_off_c, 0, 37, 51
1, 134041, Note_off_c, 0, 25, 58
1, 134153, Control_c, 0, 64, 109
1, 134168, Control_c, 0, 64, 80
1, 134182, Control_c, 0, 64, 62
1, 134197, Control_c, 0, 64, 41
1, 134212, Control_c, 0, 64, 40
1, 134226, Note_on_c, 0, 42, 76
1, 134227, Control_c, 0, 64, 56
1, 134228, Note_on_c, 0, 30, 71
1, 134242, Control_c, 0, 64, 69
1, 134255, Note_off_c, 0, 42, 65
1, 134255, Note_off_c, 0, 30, 64
1, 134256, Control_c, 0, 64, 88
1, 134271, Control_c, 0, 64, 127
1, 134421, Control_c, 0, 64, 119
1, 134435, Control_c, 0, 64, 84
1, 134450, Control_c, 0, 64, 65
1, 134465, Control_c, 0, 64, 47
1, 134479, Control_c, 0, 64, 38
1, 134494, Control_c, 0, 64, 50
1, 134498, Note_on_c, 0, 57, 75
1, 134508, Note_on_c, 0, 58, 67
1, 134508, Note_on_c, 0, 69, 61
1, 134509, Control_c, 0, 64, 66
1, 134510, Note_on_c, 0, 52, 52
1, 134510, Note_on_c, 0, 64, 57
1, 134515, Note_on_c, 0, 61, 58
1, 134516, Note_on_c, 0, 49, 50
1, 134523, Note_on_c, 0, 46, 49
1, 134524, Control_c, 0, 64, 94
1, 134525, Note_off_c, 0, 57, 68
1, 134537, Note_off_c, 0, 52, 56
1, 134539, Control_c, 0, 64, 127
1, 134540, Note_off_c, 0, 58, 63
1, 134546, Note_off_c, 0, 69, 59
1, 134546, Note_off_c, 0, 49, 56
1, 134549, Note_off_c, 0, 61, 63
1, 134550, Note_off_c, 0, 64, 62
1, 134553, Note_off_c, 0, 46, 56
1, 134568, Control_c, 0, 64, 121
1, 134583, Control_c, 0, 64, 101
1, 134598, Control_c, 0, 64, 94
1, 134607, Note_on_c, 0, 58, 70
1, 134611, Note_on_c, 0, 64, 56
1, 134611, Note_on_c, 0, 69, 49
1, 134613, Control_c, 0, 64, 92
1, 134616, Note_on_c, 0, 61, 67
1, 134628, Control_c, 0, 64, 91
1, 134634, Note_off_c, 0, 69, 60
1, 134638, Note_off_c, 0, 58, 65
1, 134638, Note_off_c, 0, 61, 63
1, 134643, Control_c, 0, 64, 88
1, 134646, Note_off_c, 0, 64, 62
1, 134658, Control_c, 0, 64, 84
1, 134672, Control_c, 0, 64, 83
1, 134709, Note_on_c, 0, 61, 69
1, 134709, Note_on_c, 0, 69, 63
1, 134711, Note_on_c, 0, 58, 65
1, 134721, Note_on_c, 0, 64, 50
1, 134732, Control_c, 0, 64, 83
1, 134738, Note_off_c, 0, 69, 65
1, 134743, Note_off_c, 0, 61, 62
1, 134750, Note_off_c, 0, 58, 64
1, 134753, Note_off_c, 0, 64, 64
1, 134791, Control_c, 0, 64, 84
1, 134805, Control_c, 0, 64, 83
1, 134810, Note_on_c, 0, 25, 79
1, 134820, Control_c, 0, 64, 70
1, 134822, Note_on_c, 0, 37, 63
1, 134835, Control_c, 0, 64, 50
1, 134849, Note_off_c, 0, 37, 59
1, 134850, Control_c, 0, 64, 0
1, 134899, Note_off_c, 0, 25, 64
1, 134932, Control_c, 0, 64, 43
1, 134947, Note_on_c, 0, 42, 87
1, 134947, Control_c, 0, 64, 65
1, 134953, Note_on_c, 0, 30, 73
1, 134961, Control_c, 0, 64, 82
1, 134970, Note_off_c, 0, 42, 67
1, 134976, Note_off_c, 0, 30, 65
1, 134976, Control_c, 0, 64, 91
1, 134991, Control_c, 0, 64, 86
1, 135006, Control_c, 0, 64, 72
1, 135020, Control_c, 0, 64, 65
1, 135035, Control_c, 0, 64, 62
1, 135050, Control_c, 0, 64, 61
1, 135065, Control_c, 0, 64, 59
1, 135081, Control_c, 0, 64, 57
1, 135096, Control_c, 0, 64, 57
1, 135125, Control_c, 0, 64, 55
1, 135140, Control_c, 0, 64, 50
1, 135155, Control_c, 0, 64, 40
1, 135170, Control_c, 0, 64, 0
1, 135206, Note_on_c, 0, 52, 53
1, 135206, Note_on_c, 0, 57, 48
1, 135212, Note_on_c, 0, 45, 39
1, 135221, Note_on_c, 0, 49, 39
1, 135226, Note_on_c, 0, 46, 45
1, 135243, Control_c, 0, 64, 48
1, 135258, Control_c, 0, 64, 58
1, 135273, Control_c, 0, 64, 60
1, 135302, Control_c, 0, 64, 60
1, 135317, Control_c, 0, 64, 58
1, 135332, Control_c, 0, 64, 55
1, 135347, Control_c, 0, 64, 51
1, 135362, Control_c, 0, 64, 45
1, 135376, Control_c, 0, 64, 36
1, 135391, Control_c, 0, 64, 0
1, 135400, Note_off_c, 0, 52, 41
1, 135407, Note_off_c, 0, 49, 41
1, 135411, Note_on_c, 0, 25, 56
1, 135416, Note_off_c, 0, 46, 50
1, 135416, Note_off_c, 0, 57, 50
1, 135435, Note_off_c, 0, 45, 48
1, 135436, Control_c, 0, 64, 41
1, 135450, Control_c, 0, 64, 61
1, 135463, Note_off_c, 0, 25, 62
1, 135465, Control_c, 0, 64, 64
1, 135480, Control_c, 0, 64, 60
1, 135495, Control_c, 0, 64, 41
1, 135510, Control_c, 0, 64, 0
1, 135621, Control_c, 0, 64, 33
1, 135635, Control_c, 0, 64, 51
1, 135643, Note_on_c, 0, 42, 60
1, 135650, Control_c, 0, 64, 59
1, 135658, Note_on_c, 0, 30, 47
1, 135665, Control_c, 0, 64, 62
1, 135680, Control_c, 0, 64, 65
1, 135690, Note_off_c, 0, 42, 64
1, 135695, Control_c, 0, 64, 69
1, 135696, Note_off_c, 0, 30, 63
1, 135710, Control_c, 0, 64, 71
1, 135740, Control_c, 0, 64, 70
1, 135754, Control_c, 0, 64, 67
1, 135769, Control_c, 0, 64, 63
1, 135784, Control_c, 0, 64, 61
1, 135799, Control_c, 0, 64, 59
1, 135814, Control_c, 0, 64, 56
1, 135829, Control_c, 0, 64, 53
1, 135842, Control_c, 0, 64, 52
1, 135857, Control_c, 0, 64, 53
1, 135872, Control_c, 0, 64, 54
1, 135884, Note_on_c, 0, 49, 64
1, 135892, Note_on_c, 0, 45, 49
1, 135896, Note_on_c, 0, 46, 51
1, 135903, Control_c, 0, 64, 53
1, 135918, Control_c, 0, 64, 52
1, 135920, Note_off_c, 0, 45, 58
1, 135927, Note_off_c, 0, 46, 62
1, 135927, Note_off_c, 0, 49, 61
1, 135932, Control_c, 0, 64, 51
1, 135962, Control_c, 0, 64, 52
1, 135977, Control_c, 0, 64, 51
1, 135982, Note_on_c, 0, 49, 54
1, 135987, Note_on_c, 0, 45, 53
1, 135992, Control_c, 0, 64, 50
1, 135996, Note_on_c, 0, 46, 39
1, 136006, Control_c, 0, 64, 49
1, 136015, Note_off_c, 0, 45, 54
1, 136019, Note_off_c, 0, 49, 62
1, 136021, Control_c, 0, 64, 48
1, 136035, Note_off_c, 0, 46, 45
1, 136050, Control_c, 0, 64, 48
1, 136065, Control_c, 0, 64, 46
1, 136080, Control_c, 0, 64, 43
1, 136093, Note_on_c, 0, 49, 51
1, 136095, Control_c, 0, 64, 40
1, 136098, Note_on_c, 0, 46, 32
1, 136100, Note_on_c, 0, 45, 42
1, 136110, Control_c, 0, 64, 39
1, 136124, Note_off_c, 0, 49, 60
1, 136124, Control_c, 0, 64, 38
1, 136136, Note_off_c, 0, 46, 54
1, 136139, Note_off_c, 0, 45, 57
1, 136139, Control_c, 0, 64, 37
1, 136154, Control_c, 0, 64, 35
1, 136169, Control_c, 0, 64, 30
1, 136182, Note_on_c, 0, 25, 57
1, 136184, Control_c, 0, 64, 0
1, 136230, Note_off_c, 0, 25, 61
1, 136243, Control_c, 0, 64, 30
1, 136258, Control_c, 0, 64, 33
1, 136273, Control_c, 0, 64, 34
1, 136288, Control_c, 0, 64, 37
1, 136303, Control_c, 0, 64, 45
1, 136318, Control_c, 0, 64, 54
1, 136321, Note_on_c, 0, 30, 58
1, 136330, Note_on_c, 0, 42, 56
1, 136332, Control_c, 0, 64, 58
1, 136366, Note_off_c, 0, 30, 64
1, 136366, Note_off_c, 0, 42, 61
1, 136398, Control_c, 0, 64, 58
1, 136428, Control_c, 0, 64, 57
1, 136443, Control_c, 0, 64, 56
1, 136458, Control_c, 0, 64, 55
1, 136473, Control_c, 0, 64, 54
1, 136488, Control_c, 0, 64, 52
1, 136503, Control_c, 0, 64, 49
1, 136518, Control_c, 0, 64, 44
1, 136532, Control_c, 0, 64, 40
1, 136547, Control_c, 0, 64, 39
1, 136577, Control_c, 0, 64, 40
1, 136589, Note_on_c, 0, 25, 55
1, 136591, Control_c, 0, 64, 44
1, 136606, Control_c, 0, 64, 51
1, 136621, Control_c, 0, 64, 57
1, 136630, Note_off_c, 0, 25, 62
1, 136636, Control_c, 0, 64, 60
1, 136651, Control_c, 0, 64, 61
1, 136665, Control_c, 0, 64, 63
1, 136681, Control_c, 0, 64, 64
1, 136696, Control_c, 0, 64, 64
1, 136726, Control_c, 0, 64, 64
1, 136741, Control_c, 0, 64, 63
1, 136755, Control_c, 0, 64, 63
1, 136770, Control_c, 0, 64, 60
1, 136785, Control_c, 0, 64, 57
1, 136799, Control_c, 0, 64, 55
1, 136814, Control_c, 0, 64, 55
1, 136829, Control_c, 0, 64, 55
1, 136844, Control_c, 0, 64, 57
1, 136846, Note_on_c, 0, 30, 72
1, 136859, Control_c, 0, 64, 60
1, 136873, Control_c, 0, 64, 63
1, 136878, Note_off_c, 0, 30, 66
1, 136888, Control_c, 0, 64, 65
1, 136903, Control_c, 0, 64, 67
1, 136918, Control_c, 0, 64, 70
1, 136933, Control_c, 0, 64, 74
1, 136947, Control_c, 0, 64, 77
1, 136962, Control_c, 0, 64, 78
1, 137021, Control_c, 0, 64, 75
1, 137036, Control_c, 0, 64, 67
1, 137051, Control_c, 0, 64, 59
1, 137066, Control_c, 0, 64, 51
1, 137081, Control_c, 0, 64, 52
1, 137102, Note_on_c, 0, 37, 88
1, 137103, Control_c, 0, 64, 58
1, 137118, Control_c, 0, 64, 66
1, 137131, Note_off_c, 0, 37, 68
1, 137133, Control_c, 0, 64, 74
1, 137148, Control_c, 0, 64, 86
1, 137162, Control_c, 0, 64, 113
1, 137177, Control_c, 0, 64, 127
1, 137311, Control_c, 0, 64, 106
1, 137325, Control_c, 0, 64, 82
1, 137340, Control_c, 0, 64, 68
1, 137355, Control_c, 0, 64, 60
1, 137357, Note_on_c, 0, 42, 96
1, 137370, Control_c, 0, 64, 63
1, 137381, Note_off_c, 0, 42, 69
1, 137385, Control_c, 0, 64, 79
1, 137399, Control_c, 0, 64, 127
1, 137399, Control_c, 0, 67, 118
1, 137414, Control_c, 0, 67, 97
1, 137429, Control_c, 0, 67, 69
1, 137444, Control_c, 0, 67, 44
1, 137459, Control_c, 0, 67, 27
1, 137474, Control_c, 0, 67, 21
1, 137549, Control_c, 0, 64, 110
1, 137564, Control_c, 0, 64, 70
1, 137578, Control_c, 0, 64, 39
1, 137593, Control_c, 0, 64, 0
1, 137608, Control_c, 0, 67, 0
1, 137615, Note_on_c, 0, 49, 102
1, 137622, Control_c, 0, 64, 53
1, 137637, Control_c, 0, 64, 81
1, 137638, Note_off_c, 0, 49, 68
1, 137652, Control_c, 0, 64, 127
1, 137741, Control_c, 0, 67, 21
1, 137785, Control_c, 0, 67, 23
1, 137882, Control_c, 0, 64, 97
1, 137897, Control_c, 0, 64, 64
1, 137897, Control_c, 0, 67, 20
1, 137911, Control_c, 0, 64, 0
1, 137911, Control_c, 0, 67, 0
1, 137945, Note_on_c, 0, 54, 106
1, 137970, Control_c, 0, 64, 60
1, 137985, Control_c, 0, 64, 76
1, 138000, Control_c, 0, 64, 101
1, 138015, Control_c, 0, 64, 127
1, 138059, Control_c, 0, 67, 20
1, 138074, Control_c, 0, 67, 27
1, 138089, Control_c, 0, 67, 38
1, 138103, Control_c, 0, 67, 56
1, 138118, Control_c, 0, 67, 73
1, 138123, Note_on_c, 0, 65, 31
1, 138133, Control_c, 0, 64, 112
1, 138133, Control_c, 0, 67, 77
1, 138138, Note_on_c, 0, 67, 84
1, 138140, Note_on_c, 0, 55, 78
1, 138141, Note_on_c, 0, 53, 70
1, 138148, Control_c, 0, 64, 75
1, 138148, Control_c, 0, 67, 78
1, 138163, Control_c, 0, 64, 57
1, 138163, Control_c, 0, 67, 79
1, 138178, Control_c, 0, 64, 0
1, 138178, Control_c, 0, 67, 78
1, 138193, Control_c, 0, 67, 75
1, 138208, Control_c, 0, 67, 73
1, 138222, Control_c, 0, 64, 46
1, 138222, Control_c, 0, 67, 70
1, 138237, Control_c, 0, 64, 64
1, 138237, Control_c, 0, 67, 69
1, 138252, Control_c, 0, 64, 73
1, 138252, Control_c, 0, 67, 68
1, 138267, Control_c, 0, 64, 82
1, 138267, Control_c, 0, 67, 67
1, 138272, Note_off_c, 0, 53, 62
1, 138273, Note_off_c, 0, 55, 62
1, 138282, Control_c, 0, 64, 92
1, 138282, Control_c, 0, 67, 65
1, 138291, Note_off_c, 0, 65, 56
1, 138296, Note_off_c, 0, 67, 59
1, 138297, Control_c, 0, 64, 102
1, 138297, Control_c, 0, 67, 64
1, 138312, Control_c, 0, 64, 127
1, 138357, Control_c, 0, 67, 65
1, 138371, Control_c, 0, 67, 67
1, 138386, Control_c, 0, 67, 69
1, 138401, Control_c, 0, 67, 70
1, 138416, Control_c, 0, 67, 72
1, 138431, Control_c, 0, 67, 72
1, 138446, Control_c, 0, 67, 73
1, 138455, Note_on_c, 0, 67, 59
1, 138458, Note_on_c, 0, 65, 51
1, 138460, Control_c, 0, 64, 88
1, 138467, Note_on_c, 0, 53, 56
1, 138467, Note_on_c, 0, 55, 58
1, 138475, Control_c, 0, 64, 71
1, 138490, Control_c, 0, 64, 62
1, 138505, Control_c, 0, 64, 61
1, 138520, Control_c, 0, 64, 65
1, 138520, Control_c, 0, 67, 73
1, 138534, Control_c, 0, 64, 73
1, 138534, Control_c, 0, 67, 75
1, 138549, Control_c, 0, 64, 83
1, 138549, Control_c, 0, 67, 76
1, 138564, Control_c, 0, 64, 94
1, 138564, Control_c, 0, 67, 77
1, 138578, Control_c, 0, 64, 106
1, 138578, Control_c, 0, 67, 77
1, 138601, Control_c, 0, 64, 127
1, 138616, Control_c, 0, 67, 78
1, 138630, Note_off_c, 0, 53, 60
1, 138631, Note_off_c, 0, 55, 61
1, 138643, Note_off_c, 0, 65, 59
1, 138649, Note_off_c, 0, 67, 60
1, 138660, Control_c, 0, 67, 77
1, 138705, Control_c, 0, 67, 78
1, 138778, Control_c, 0, 67, 77
1, 138793, Control_c, 0, 67, 76
1, 138808, Control_c, 0, 64, 91
1, 138808, Control_c, 0, 67, 75
1, 138823, Control_c, 0, 64, 72
1, 138823, Control_c, 0, 67, 75
1, 138829, Note_on_c, 0, 67, 69
1, 138832, Note_on_c, 0, 65, 70
1, 138838, Control_c, 0, 64, 61
1, 138849, Note_on_c, 0, 53, 52
1, 138849, Note_on_c, 0, 55, 53
1, 138852, Control_c, 0, 64, 58
1, 138867, Control_c, 0, 64, 61
1, 138867, Control_c, 0, 67, 74
1, 138882, Control_c, 0, 64, 66
1, 138882, Control_c, 0, 67, 74
1, 138897, Control_c, 0, 64, 74
1, 138912, Control_c, 0, 64, 84
1, 138926, Control_c, 0, 64, 92
1, 138941, Control_c, 0, 64, 103
1, 138941, Control_c, 0, 67, 75
1, 138956, Control_c, 0, 64, 127
1, 138956, Control_c, 0, 67, 76
1, 138971, Control_c, 0, 67, 77
1, 138986, Control_c, 0, 67, 78
1, 139006, Note_off_c, 0, 53, 55
1, 139009, Note_off_c, 0, 55, 56
1, 139015, Note_off_c, 0, 65, 56
1, 139028, Note_off_c, 0, 67, 56
1, 139045, Control_c, 0, 67, 77
1, 139060, Control_c, 0, 67, 76
1, 139075, Control_c, 0, 67, 75
1, 139090, Control_c, 0, 67, 75
1, 139105, Control_c, 0, 67, 74
1, 139194, Control_c, 0, 64, 105
1, 139209, Control_c, 0, 64, 81
1, 139219, Note_on_c, 0, 67, 47
1, 139224, Control_c, 0, 64, 69
1, 139227, Note_on_c, 0, 65, 46
1, 139239, Control_c, 0, 64, 63
1, 139249, Note_on_c, 0, 55, 37
1, 139251, Note_on_c, 0, 53, 38
1, 139269, Control_c, 0, 64, 66
1, 139283, Control_c, 0, 64, 72
1, 139298, Control_c, 0, 64, 81
1, 139313, Control_c, 0, 64, 86
1, 139328, Control_c, 0, 64, 88
1, 139343, Control_c, 0, 64, 92
1, 139343, Control_c, 0, 67, 73
1, 139364, Control_c, 0, 64, 99
1, 139364, Control_c, 0, 67, 73
1, 139379, Note_off_c, 0, 65, 51
1, 139379, Control_c, 0, 64, 111
1, 139379, Control_c, 0, 67, 72
1, 139394, Control_c, 0, 64, 127
1, 139395, Note_off_c, 0, 55, 38
1, 139397, Note_off_c, 0, 53, 36
1, 139399, Note_off_c, 0, 67, 52
1, 139409, Control_c, 0, 67, 71
1, 139439, Control_c, 0, 67, 71
1, 139655, Note_on_c, 0, 67, 37
1, 139665, Note_on_c, 0, 55, 34
1, 139669, Note_on_c, 0, 53, 34
1, 139672, Note_on_c, 0, 65, 39
1, 139719, Control_c, 0, 67, 70
1, 139734, Control_c, 0, 67, 70
1, 139764, Control_c, 0, 67, 69
1, 139809, Control_c, 0, 67, 68
1, 139815, Note_off_c, 0, 54, 54
1, 139838, Control_c, 0, 67, 68
1, 139869, Control_c, 0, 67, 67
1, 139884, Control_c, 0, 67, 67
1, 139886, Note_off_c, 0, 53, 38
1, 139889, Note_off_c, 0, 55, 39
1, 139903, Note_off_c, 0, 65, 37
1, 139910, Note_off_c, 0, 67, 38
1, 139928, Control_c, 0, 67, 66
1, 139958, Control_c, 0, 67, 66
1, 139987, Control_c, 0, 67, 65
1, 140017, Control_c, 0, 67, 65
1, 140047, Control_c, 0, 67, 64
1, 140098, Control_c, 0, 67, 64
1, 140157, Control_c, 0, 67, 63
1, 140202, Control_c, 0, 67, 63
1, 140277, Control_c, 0, 67, 62
1, 140293, Note_on_c, 0, 65, 31
1, 140299, Note_on_c, 0, 67, 33
1, 140306, Control_c, 0, 67, 62
1, 140315, Note_on_c, 0, 55, 25
1, 140318, Note_on_c, 0, 53, 21
1, 140336, Control_c, 0, 67, 61
1, 140350, Control_c, 0, 67, 61
1, 140365, Control_c, 0, 67, 60
1, 140380, Control_c, 0, 67, 53
1, 140395, Control_c, 0, 67, 44
1, 140410, Control_c, 0, 67, 36
1, 140424, Control_c, 0, 67, 31
1, 140454, Control_c, 0, 67, 29
1, 140707, Control_c, 0, 67, 31
1, 140806, Note_on_c, 0, 61, 77
1, 140837, Note_on_c, 0, 49, 50
1, 140847, Control_c, 0, 64, 91
1, 140847, Control_c, 0, 67, 32
1, 140862, Control_c, 0, 64, 69
1, 140862, Control_c, 0, 67, 32
1, 140877, Control_c, 0, 64, 48
1, 140877, Control_c, 0, 67, 33
1, 140892, Control_c, 0, 64, 0
1, 140892, Control_c, 0, 67, 34
1, 140898, Note_off_c, 0, 65, 59
1, 140901, Note_off_c, 0, 67, 60
1, 140903, Note_off_c, 0, 53, 55
1, 140905, Note_off_c, 0, 55, 56
1, 140907, Control_c, 0, 67, 36
1, 140921, Control_c, 0, 67, 38
1, 140936, Control_c, 0, 67, 39
1, 140951, Control_c, 0, 67, 39
1, 140966, Control_c, 0, 67, 40
1, 140995, Control_c, 0, 67, 39
1, 141010, Control_c, 0, 67, 37
1, 141025, Control_c, 0, 67, 37
1, 141055, Control_c, 0, 67, 36
1, 141069, Control_c, 0, 67, 35
1, 141085, Control_c, 0, 67, 34
1, 141115, Control_c, 0, 64, 35
1, 141129, Control_c, 0, 64, 43
1, 141139, Note_on_c, 0, 65, 32
1, 141143, Note_on_c, 0, 67, 32
1, 141144, Control_c, 0, 64, 52
1, 141155, Note_on_c, 0, 53, 37
1, 141158, Note_on_c, 0, 55, 34
1, 141159, Control_c, 0, 64, 59
1, 141174, Control_c, 0, 64, 63
1, 141189, Control_c, 0, 64, 67
1, 141204, Control_c, 0, 64, 70
1, 141218, Control_c, 0, 64, 74
1, 141233, Control_c, 0, 64, 78
1, 141248, Control_c, 0, 64, 88
1, 141263, Control_c, 0, 64, 105
1, 141263, Control_c, 0, 67, 34
1, 141278, Control_c, 0, 64, 127
1, 141278, Control_c, 0, 67, 33
1, 141293, Control_c, 0, 67, 32
1, 141307, Control_c, 0, 67, 32
1, 141348, Note_off_c, 0, 65, 40
1, 141352, Control_c, 0, 67, 30
1, 141357, Note_off_c, 0, 49, 37
1, 141368, Note_off_c, 0, 67, 39
1, 141396, Control_c, 0, 67, 28
1, 141441, Note_off_c, 0, 55, 33
1, 141441, Control_c, 0, 67, 22
1, 141447, Note_off_c, 0, 53, 34
1, 141455, Control_c, 0, 67, 0
1, 141594, Note_off_c, 0, 61, 31
1, 141848, Note_on_c, 0, 67, 34
1, 141850, Note_on_c, 0, 65, 33
1, 141867, Note_on_c, 0, 55, 23
1, 141868, Note_on_c, 0, 53, 20
1, 142014, Note_off_c, 0, 53, 42
1, 142016, Note_off_c, 0, 55, 40
1, 142016, Note_off_c, 0, 67, 44
1, 142020, Note_off_c, 0, 65, 41
1, 142199, Note_on_c, 0, 65, 48
1, 142216, Note_on_c, 0, 67, 41
1, 142230, Note_on_c, 0, 55, 32
1, 142233, Note_on_c, 0, 53, 34
1, 142414, Note_on_c, 0, 61, 89
1, 142416, Note_on_c, 0, 49, 87
1, 142452, Note_off_c, 0, 49, 62
1, 142497, Note_off_c, 0, 65, 54
1, 142505, Note_off_c, 0, 67, 53
1, 142548, Note_off_c, 0, 55, 41
1, 142559, Note_off_c, 0, 53, 35
1, 142742, Note_on_c, 0, 67, 73
1, 142744, Note_on_c, 0, 65, 67
1, 142751, Note_on_c, 0, 53, 57
1, 142766, Note_on_c, 0, 55, 57
1, 142985, Note_off_c, 0, 53, 51
1, 142995, Note_off_c, 0, 65, 58
1, 142996, Note_off_c, 0, 55, 43
1, 143054, Note_off_c, 0, 67, 24
1, 143135, Note_on_c, 0, 67, 56
1, 143141, Note_on_c, 0, 65, 59
1, 143151, Note_on_c, 0, 53, 34
1, 143157, Note_on_c, 0, 55, 50
1, 143387, Note_off_c, 0, 67, 35
1, 143393, Note_off_c, 0, 55, 46
1, 143407, Note_off_c, 0, 53, 40
1, 143424, Note_off_c, 0, 65, 33
1, 143632, Note_on_c, 0, 65, 37
1, 143632, Note_on_c, 0, 67, 48
1, 143645, Note_on_c, 0, 55, 37
1, 143646, Note_on_c, 0, 53, 36
1, 143858, Note_off_c, 0, 55, 46
1, 143858, Note_off_c, 0, 67, 36
1, 143863, Note_off_c, 0, 65, 43
1, 143871, Note_off_c, 0, 53, 40
1, 144033, Note_on_c, 0, 67, 23
1, 144044, Note_on_c, 0, 55, 17
1, 144047, Note_off_c, 0, 61, 59
1, 144050, Note_on_c, 0, 53, 12
1, 144056, Poly_aftertouch_c, 0, 65, 127
1, 144135, Note_on_c, 0, 61, 71
1, 144147, Note_on_c, 0, 49, 58
1, 144249, Poly_aftertouch_c, 0, 65, 0
1, 144286, Note_off_c, 0, 49, 33
1, 144292, Note_off_c, 0, 67, 32
1, 144343, Note_off_c, 0, 53, 37
1, 144361, Note_off_c, 0, 55, 40
1, 144514, Note_on_c, 0, 67, 52
1, 144518, Note_on_c, 0, 55, 42
1, 144520, Note_on_c, 0, 65, 47
1, 144521, Note_off_c, 0, 61, 59
1, 144521, Note_on_c, 0, 53, 38
1, 144626, Note_on_c, 0, 61, 93
1, 144628, Note_on_c, 0, 49, 87
1, 144666, Note_off_c, 0, 53, 53
1, 144670, Note_off_c, 0, 55, 54
1, 144672, Note_off_c, 0, 65, 57
1, 144685, Note_off_c, 0, 49, 62
1, 144707, Note_off_c, 0, 67, 37
1, 144894, Note_on_c, 0, 65, 70
1, 144900, Note_on_c, 0, 67, 69
1, 144906, Note_on_c, 0, 55, 60
1, 144907, Note_on_c, 0, 53, 60
1, 144925, Note_off_c, 0, 61, 57
1, 145028, Note_on_c, 0, 61, 95
1, 145034, Note_on_c, 0, 49, 82
1, 145056, Note_off_c, 0, 65, 62
1, 145061, Note_off_c, 0, 53, 60
1, 145067, Note_off_c, 0, 55, 62
1, 145069, Note_off_c, 0, 67, 61
1, 145257, Note_on_c, 0, 65, 66
1, 145259, Control_c, 0, 64, 107
1, 145260, Note_on_c, 0, 67, 75
1, 145264, Note_on_c, 0, 55, 67
1, 145267, Note_on_c, 0, 53, 66
1, 145273, Control_c, 0, 64, 78
1, 145288, Control_c, 0, 64, 60
1, 145303, Control_c, 0, 64, 45
1, 145318, Control_c, 0, 64, 44
1, 145340, Control_c, 0, 64, 53
1, 145355, Control_c, 0, 64, 64
1, 145370, Control_c, 0, 64, 74
1, 145385, Control_c, 0, 64, 84
1, 145400, Control_c, 0, 64, 92
1, 145411, Note_off_c, 0, 67, 39
1, 145414, Control_c, 0, 64, 97
1, 145429, Control_c, 0, 64, 111
1, 145442, Note_off_c, 0, 65, 37
1, 145444, Control_c, 0, 64, 127
1, 145458, Note_off_c, 0, 53, 53
1, 145459, Note_off_c, 0, 55, 55
1, 145652, Control_c, 0, 67, 19
1, 145667, Control_c, 0, 67, 22
1, 145682, Control_c, 0, 67, 25
1, 145696, Control_c, 0, 64, 112
1, 145711, Control_c, 0, 64, 106
1, 145711, Control_c, 0, 67, 27
1, 145726, Control_c, 0, 64, 102
1, 145741, Control_c, 0, 64, 96
1, 145741, Control_c, 0, 67, 29
1, 145755, Note_on_c, 0, 65, 39
1, 145756, Control_c, 0, 64, 89
1, 145756, Control_c, 0, 67, 34
1, 145760, Note_on_c, 0, 67, 45
1, 145766, Note_on_c, 0, 55, 32
1, 145770, Control_c, 0, 64, 83
1, 145770, Control_c, 0, 67, 43
1, 145777, Note_on_c, 0, 53, 32
1, 145782, Note_off_c, 0, 61, 54
1, 145785, Control_c, 0, 64, 80
1, 145785, Control_c, 0, 67, 52
1, 145800, Control_c, 0, 67, 61
1, 145815, Control_c, 0, 67, 69
1, 145830, Control_c, 0, 64, 79
1, 145830, Control_c, 0, 67, 78
1, 145845, Control_c, 0, 64, 78
1, 145845, Control_c, 0, 67, 86
1, 145860, Control_c, 0, 64, 76
1, 145860, Control_c, 0, 67, 95
1, 145875, Control_c, 0, 64, 74
1, 145875, Control_c, 0, 67, 105
1, 145889, Control_c, 0, 64, 72
1, 145889, Control_c, 0, 67, 113
1, 145904, Control_c, 0, 64, 71
1, 145904, Control_c, 0, 67, 120
1, 145919, Control_c, 0, 64, 69
1, 145919, Control_c, 0, 67, 126
1, 145934, Control_c, 0, 64, 67
1, 145949, Control_c, 0, 64, 65
1, 145963, Control_c, 0, 64, 63
1, 145978, Control_c, 0, 64, 62
1, 145993, Control_c, 0, 64, 62
1, 146008, Control_c, 0, 64, 61
1, 146023, Control_c, 0, 64, 61
1, 146028, Note_off_c, 0, 49, 35
1, 146051, Note_on_c, 0, 59, 63
1, 146052, Control_c, 0, 64, 60
1, 146067, Control_c, 0, 64, 59
1, 146082, Control_c, 0, 64, 58
1, 146104, Control_c, 0, 64, 56
1, 146107, Note_on_c, 0, 47, 37
1, 146134, Control_c, 0, 64, 55
1, 146137, Note_off_c, 0, 53, 41
1, 146148, Note_off_c, 0, 67, 39
1, 146149, Control_c, 0, 64, 53
1, 146157, Note_off_c, 0, 65, 38
1, 146159, Note_off_c, 0, 55, 42
1, 146164, Control_c, 0, 64, 49
1, 146178, Control_c, 0, 64, 43
1, 146193, Control_c, 0, 64, 32
1, 146208, Control_c, 0, 64, 0
1, 146386, Control_c, 0, 64, 32
1, 146401, Control_c, 0, 64, 41
1, 146416, Control_c, 0, 64, 47
1, 146431, Control_c, 0, 64, 53
1, 146446, Control_c, 0, 64, 58
1, 146459, Note_on_c, 0, 65, 30
1, 146460, Control_c, 0, 64, 61
1, 146471, Note_on_c, 0, 53, 20
1, 146475, Note_on_c, 0, 55, 19
1, 146475, Control_c, 0, 64, 63
1, 146476, Note_on_c, 0, 67, 12
1, 146490, Control_c, 0, 64, 65
1, 146505, Control_c, 0, 64, 67
1, 146519, Control_c, 0, 64, 69
1, 146534, Control_c, 0, 64, 73
1, 146549, Control_c, 0, 64, 78
1, 146564, Control_c, 0, 64, 83
1, 146579, Control_c, 0, 64, 88
1, 146584, Note_off_c, 0, 47, 50
1, 146593, Control_c, 0, 64, 91
1, 146608, Control_c, 0, 64, 95
1, 146623, Control_c, 0, 64, 99
1, 146638, Control_c, 0, 64, 104
1, 146653, Control_c, 0, 64, 107
1, 146668, Control_c, 0, 64, 109
1, 146675, Note_off_c, 0, 67, 42
1, 146682, Note_off_c, 0, 65, 43
1, 146694, Note_off_c, 0, 53, 41
1, 146695, Note_off_c, 0, 55, 41
1, 146757, Control_c, 0, 64, 104
1, 146772, Control_c, 0, 64, 97
1, 146786, Control_c, 0, 64, 88
1, 146801, Control_c, 0, 64, 80
1, 146802, Note_on_c, 0, 65, 45
1, 146802, Note_on_c, 0, 67, 32
1, 146816, Note_on_c, 0, 55, 35
1, 146816, Control_c, 0, 64, 74
1, 146821, Note_on_c, 0, 53, 40
1, 146831, Control_c, 0, 64, 68
1, 146852, Control_c, 0, 64, 62
1, 146867, Control_c, 0, 64, 57
1, 146882, Control_c, 0, 64, 49
1, 146897, Control_c, 0, 64, 41
1, 146912, Control_c, 0, 64, 0
1, 146923, Note_off_c, 0, 53, 46
1, 146930, Note_on_c, 0, 35, 63
1, 146933, Note_off_c, 0, 67, 44
1, 146944, Note_off_c, 0, 55, 39
1, 146951, Note_off_c, 0, 65, 43
1, 146962, Note_off_c, 0, 35, 63
1, 147094, Note_on_c, 0, 30, 53
1, 147103, Note_on_c, 0, 67, 44
1, 147104, Note_on_c, 0, 65, 31
1, 147120, Note_on_c, 0, 55, 28
1, 147129, Note_on_c, 0, 53, 16
1, 147142, Note_off_c, 0, 30, 55
1, 147228, Note_off_c, 0, 67, 38
1, 147240, Note_off_c, 0, 53, 43
1, 147249, Note_off_c, 0, 55, 39
1, 147252, Note_on_c, 0, 35, 44
1, 147253, Note_off_c, 0, 65, 35
1, 147285, Note_off_c, 0, 35, 45
1, 147395, Note_on_c, 0, 65, 42
1, 147402, Note_on_c, 0, 67, 38
1, 147407, Note_on_c, 0, 55, 21
1, 147413, Note_on_c, 0, 53, 21
1, 147535, Note_on_c, 0, 35, 49
1, 147535, Note_off_c, 0, 67, 42
1, 147547, Note_off_c, 0, 53, 42
1, 147551, Note_off_c, 0, 65, 37
1, 147556, Note_off_c, 0, 55, 40
1, 147565, Note_off_c, 0, 35, 54
1, 147686, Note_on_c, 0, 55, 31
1, 147693, Note_on_c, 0, 53, 34
1, 147696, Note_on_c, 0, 30, 52
1, 147696, Note_on_c, 0, 65, 36
1, 147699, Note_on_c, 0, 67, 29
1, 147705, Control_c, 0, 64, 30
1, 147720, Control_c, 0, 64, 0
1, 147740, Note_on_c, 0, 42, 3
1, 147764, Note_off_c, 0, 30, 55
1, 147780, Note_off_c, 0, 42, 37
1, 147827, Note_on_c, 0, 35, 58
1, 147830, Note_off_c, 0, 67, 43
1, 147833, Note_off_c, 0, 53, 42
1, 147845, Note_off_c, 0, 55, 42
1, 147853, Note_off_c, 0, 65, 42
1, 147855, Note_off_c, 0, 35, 60
1, 147958, Control_c, 0, 64, 30
1, 147971, Note_on_c, 0, 30, 63
1, 147973, Control_c, 0, 64, 0
1, 147975, Note_on_c, 0, 67, 42
1, 147976, Note_on_c, 0, 55, 36
1, 147978, Note_on_c, 0, 65, 48
1, 147979, Note_on_c, 0, 53, 45
1, 147985, Note_on_c, 0, 42, 37
1, 148012, Note_off_c, 0, 30, 64
1, 148023, Note_off_c, 0, 42, 47
1, 148107, Note_on_c, 0, 35, 66
1, 148118, Note_off_c, 0, 67, 44
1, 148119, Note_off_c, 0, 55, 53
1, 148127, Note_off_c, 0, 53, 42
1, 148139, Note_off_c, 0, 35, 63
1, 148143, Note_off_c, 0, 65, 45
1, 148250, Note_on_c, 0, 65, 56
1, 148253, Note_on_c, 0, 55, 39
1, 148253, Note_on_c, 0, 67, 39
1, 148261, Note_on_c, 0, 53, 49
1, 148385, Note_on_c, 0, 35, 67
1, 148395, Note_off_c, 0, 53, 51
1, 148402, Note_off_c, 0, 55, 51
1, 148405, Note_off_c, 0, 67, 49
1, 148405, Note_off_c, 0, 65, 54
1, 148416, Note_off_c, 0, 35, 63
1, 148520, Note_on_c, 0, 30, 79
1, 148529, Note_on_c, 0, 67, 50
1, 148531, Note_on_c, 0, 55, 43
1, 148536, Note_on_c, 0, 65, 59
1, 148540, Note_on_c, 0, 53, 45
1, 148543, Control_c, 0, 64, 39
1, 148550, Note_on_c, 0, 42, 28
1, 148550, Note_off_c, 0, 42, 127
1, 148550, Note_off_c, 0, 30, 67
1, 148557, Control_c, 0, 64, 51
1, 148573, Control_c, 0, 64, 39
1, 148588, Control_c, 0, 64, 0
1, 148659, Note_off_c, 0, 67, 46
1, 148662, Note_off_c, 0, 53, 43
1, 148662, Note_off_c, 0, 55, 53
1, 148663, Note_on_c, 0, 35, 77
1, 148683, Note_off_c, 0, 65, 37
1, 148695, Note_off_c, 0, 35, 63
1, 148796, Note_on_c, 0, 65, 52
1, 148797, Note_on_c, 0, 67, 52
1, 148798, Note_on_c, 0, 55, 49
1, 148816, Note_on_c, 0, 53, 48
1, 148918, Note_on_c, 0, 35, 80
1, 148923, Note_off_c, 0, 67, 49
1, 148933, Note_off_c, 0, 65, 50
1, 148941, Note_off_c, 0, 55, 52
1, 148942, Note_off_c, 0, 53, 41
1, 148946, Note_off_c, 0, 35, 63
1, 149048, Control_c, 0, 64, 43
1, 149057, Note_on_c, 0, 30, 84
1, 149063, Control_c, 0, 64, 61
1, 149065, Note_on_c, 0, 55, 50
1, 149065, Note_on_c, 0, 65, 55
1, 149070, Note_on_c, 0, 67, 56
1, 149085, Note_on_c, 0, 53, 56
1, 149085, Control_c, 0, 64, 66
1, 149089, Note_on_c, 0, 42, 39
1, 149097, Note_off_c, 0, 30, 67
1, 149100, Control_c, 0, 64, 67
1, 149115, Control_c, 0, 64, 68
1, 149127, Note_off_c, 0, 42, 55
1, 149145, Control_c, 0, 64, 65
1, 149160, Control_c, 0, 64, 53
1, 149175, Control_c, 0, 64, 0
1, 149193, Note_off_c, 0, 53, 51
1, 149201, Note_off_c, 0, 67, 56
1, 149203, Note_off_c, 0, 55, 53
1, 149207, Note_off_c, 0, 65, 54
1, 149213, Note_on_c, 0, 35, 83
1, 149240, Note_off_c, 0, 35, 64
1, 149307, Control_c, 0, 64, 49
1, 149322, Control_c, 0, 64, 67
1, 149337, Control_c, 0, 64, 77
1, 149344, Note_on_c, 0, 55, 54
1, 149346, Note_on_c, 0, 67, 63
1, 149347, Note_on_c, 0, 30, 80
1, 149348, Note_on_c, 0, 65, 65
1, 149352, Control_c, 0, 64, 88
1, 149353, Note_on_c, 0, 53, 62
1, 149367, Control_c, 0, 64, 89
1, 149370, Note_on_c, 0, 42, 43
1, 149381, Control_c, 0, 64, 77
1, 149383, Note_off_c, 0, 30, 64
1, 149396, Control_c, 0, 64, 62
1, 149404, Note_off_c, 0, 42, 53
1, 149411, Control_c, 0, 64, 0
1, 149463, Note_off_c, 0, 53, 44
1, 149475, Note_off_c, 0, 67, 51
1, 149478, Note_on_c, 0, 35, 85
1, 149483, Note_off_c, 0, 65, 56
1, 149486, Control_c, 0, 64, 54
1, 149501, Control_c, 0, 64, 68
1, 149503, Note_off_c, 0, 35, 66
1, 149503, Note_off_c, 0, 55, 37
1, 149516, Control_c, 0, 64, 76
1, 149530, Control_c, 0, 64, 80
1, 149605, Control_c, 0, 64, 80
1, 149619, Control_c, 0, 64, 74
1, 149634, Control_c, 0, 64, 59
1, 149643, Note_on_c, 0, 65, 65
1, 149649, Control_c, 0, 64, 0
1, 149653, Note_on_c, 0, 67, 63
1, 149660, Note_on_c, 0, 55, 41
1, 149663, Note_on_c, 0, 53, 46
1, 149693, Control_c, 0, 67, 111
1, 149708, Control_c, 0, 67, 85
1, 149723, Control_c, 0, 67, 55
1, 149738, Control_c, 0, 67, 0
1, 149827, Control_c, 0, 64, 40
1, 149841, Note_off_c, 0, 55, 54
1, 149844, Note_off_c, 0, 53, 59
1, 149849, Control_c, 0, 64, 74
1, 149850, Note_off_c, 0, 67, 38
1, 149863, Control_c, 0, 64, 127
1, 149878, Note_off_c, 0, 65, 64
1, 149894, Note_off_c, 0, 59, 63
1, 150013, Note_on_c, 0, 47, 82
1, 150057, Note_on_c, 0, 59, 90
1, 150057, Note_on_c, 0, 65, 77
1, 150066, Note_on_c, 0, 67, 81
1, 150078, Note_on_c, 0, 55, 61
1, 150082, Note_on_c, 0, 53, 66
1, 150099, Control_c, 0, 64, 94
1, 150114, Control_c, 0, 64, 76
1, 150128, Control_c, 0, 64, 67
1, 150158, Control_c, 0, 64, 73
1, 150173, Control_c, 0, 64, 90
1, 150188, Control_c, 0, 64, 127
1, 150272, Note_off_c, 0, 53, 61
1, 150275, Note_off_c, 0, 55, 63
1, 150289, Note_off_c, 0, 59, 60
1, 150292, Control_c, 0, 64, 99
1, 150305, Note_off_c, 0, 65, 0
1, 150307, Control_c, 0, 64, 75
1, 150318, Note_off_c, 0, 67, 59
1, 150319, Note_on_c, 0, 61, 95
1, 150322, Note_on_c, 0, 65, 44
1, 150322, Control_c, 0, 64, 67
1, 150327, Note_on_c, 0, 49, 80
1, 150337, Control_c, 0, 64, 73
1, 150352, Control_c, 0, 64, 98
1, 150367, Control_c, 0, 64, 127
1, 150385, Note_off_c, 0, 65, 63
1, 150425, Note_off_c, 0, 49, 61
1, 150434, Note_off_c, 0, 61, 63
1, 150486, Note_on_c, 0, 62, 98
1, 150490, Note_on_c, 0, 50, 81
1, 150495, Note_on_c, 0, 65, 85
1, 150503, Note_on_c, 0, 67, 76
1, 150506, Note_on_c, 0, 53, 71
1, 150517, Note_on_c, 0, 55, 65
1, 150558, Note_off_c, 0, 67, 53
1, 150584, Note_off_c, 0, 53, 60
1, 150584, Note_off_c, 0, 55, 58
1, 150588, Note_off_c, 0, 50, 61
1, 150590, Note_off_c, 0, 47, 60
1, 150608, Note_off_c, 0, 65, 53
1, 150630, Note_on_c, 0, 49, 94
1, 150636, Note_on_c, 0, 61, 99
1, 150647, Note_off_c, 0, 62, 63
1, 150661, Note_off_c, 0, 49, 65
1, 150745, Note_off_c, 0, 61, 40
1, 150901, Note_on_c, 0, 64, 98
1, 150912, Note_on_c, 0, 52, 82
1, 150921, Note_on_c, 0, 53, 72
1, 150923, Note_on_c, 0, 55, 71
1, 150929, Note_on_c, 0, 65, 61
1, 150930, Note_on_c, 0, 67, 62
1, 150952, Control_c, 0, 64, 113
1, 150967, Control_c, 0, 64, 80
1, 150982, Control_c, 0, 64, 63
1, 150997, Control_c, 0, 64, 37
1, 151011, Control_c, 0, 64, 0
1, 151039, Note_off_c, 0, 67, 0
1, 151039, Note_on_c, 0, 67, 4
1, 151279, Control_c, 0, 64, 45
1, 151294, Control_c, 0, 64, 59
1, 151309, Control_c, 0, 64, 64
1, 151331, Control_c, 0, 64, 67
1, 151346, Control_c, 0, 64, 70
1, 151361, Control_c, 0, 64, 73
1, 151371, Note_off_c, 0, 67, 52
1, 151376, Control_c, 0, 64, 78
1, 151380, Note_off_c, 0, 65, 37
1, 151390, Control_c, 0, 64, 84
1, 151405, Control_c, 0, 64, 89
1, 151420, Control_c, 0, 64, 94
1, 151423, Note_off_c, 0, 55, 60
1, 151424, Note_off_c, 0, 53, 60
1, 151434, Control_c, 0, 64, 101
1, 151449, Control_c, 0, 64, 109
1, 151464, Control_c, 0, 64, 126
1, 151580, Note_on_c, 0, 67, 61
1, 151586, Note_on_c, 0, 53, 59
1, 151589, Note_on_c, 0, 65, 56
1, 151593, Note_on_c, 0, 55, 58
1, 151613, Control_c, 0, 64, 118
1, 151628, Control_c, 0, 64, 108
1, 151642, Control_c, 0, 64, 104
1, 151716, Control_c, 0, 64, 106
1, 151746, Control_c, 0, 64, 113
1, 151760, Control_c, 0, 64, 127
1, 151826, Note_off_c, 0, 65, 61
1, 151862, Note_off_c, 0, 67, 58
1, 151904, Note_off_c, 0, 55, 60
1, 151905, Note_off_c, 0, 53, 58
1, 152000, Note_on_c, 0, 67, 65
1, 152007, Note_on_c, 0, 65, 65
1, 152023, Note_on_c, 0, 53, 60
1, 152028, Control_c, 0, 64, 108
1, 152029, Note_on_c, 0, 55, 65
1, 152043, Control_c, 0, 64, 86
1, 152057, Control_c, 0, 64, 72
1, 152080, Control_c, 0, 64, 67
1, 152095, Control_c, 0, 64, 69
1, 152110, Control_c, 0, 64, 76
1, 152125, Control_c, 0, 64, 87
1, 152139, Control_c, 0, 64, 103
1, 152154, Control_c, 0, 64, 127
1, 152225, Note_off_c, 0, 67, 59
1, 152235, Note_off_c, 0, 65, 59
1, 152252, Note_off_c, 0, 53, 54
1, 152257, Note_off_c, 0, 55, 61
1, 152355, Note_on_c, 0, 67, 68
1, 152360, Note_on_c, 0, 65, 64
1, 152380, Note_on_c, 0, 53, 53
1, 152381, Note_on_c, 0, 55, 59
1, 152522, Note_off_c, 0, 53, 38
1, 152553, Note_off_c, 0, 67, 56
1, 152562, Note_off_c, 0, 55, 61
1, 152567, Note_off_c, 0, 65, 39
1, 152694, Note_on_c, 0, 65, 59
1, 152710, Note_on_c, 0, 67, 43
1, 152744, Note_on_c, 0, 55, 48
1, 152745, Note_on_c, 0, 53, 39
1, 152748, Note_off_c, 0, 64, 64
1, 152753, Note_off_c, 0, 67, 0
1, 152753, Note_on_c, 0, 67, 33
1, 152889, Note_on_c, 0, 62, 80
1, 152897, Note_on_c, 0, 50, 75
1, 152961, Control_c, 0, 64, 96
1, 152976, Control_c, 0, 64, 77
1, 152991, Control_c, 0, 64, 62
1, 153005, Control_c, 0, 64, 35
1, 153020, Control_c, 0, 64, 0
1, 153057, Note_off_c, 0, 52, 58
1, 153079, Note_off_c, 0, 67, 42
1, 153107, Note_off_c, 0, 53, 62
1, 153109, Control_c, 0, 64, 49
1, 153110, Note_off_c, 0, 55, 62
1, 153124, Control_c, 0, 64, 61
1, 153137, Note_off_c, 0, 65, 33
1, 153139, Control_c, 0, 64, 67
1, 153154, Control_c, 0, 64, 71
1, 153169, Control_c, 0, 64, 74
1, 153184, Control_c, 0, 64, 77
1, 153198, Control_c, 0, 64, 80
1, 153213, Control_c, 0, 64, 85
1, 153228, Control_c, 0, 64, 90
1, 153243, Control_c, 0, 64, 93
1, 153253, Note_on_c, 0, 55, 47
1, 153258, Note_on_c, 0, 53, 56
1, 153258, Control_c, 0, 64, 94
1, 153276, Note_on_c, 0, 65, 35
1, 153281, Note_on_c, 0, 67, 37
1, 153389, Note_on_c, 0, 61, 80
1, 153391, Control_c, 0, 64, 93
1, 153405, Control_c, 0, 64, 88
1, 153407, Note_on_c, 0, 49, 64
1, 153420, Control_c, 0, 64, 77
1, 153433, Note_off_c, 0, 67, 47
1, 153435, Control_c, 0, 64, 63
1, 153451, Control_c, 0, 64, 40
1, 153466, Control_c, 0, 64, 0
1, 153480, Note_off_c, 0, 65, 36
1, 153489, Note_off_c, 0, 62, 55
1, 153510, Control_c, 0, 64, 49
1, 153512, Note_off_c, 0, 50, 50
1, 153524, Note_off_c, 0, 53, 55
1, 153525, Control_c, 0, 64, 60
1, 153532, Note_off_c, 0, 55, 50
1, 153540, Control_c, 0, 64, 64
1, 153555, Control_c, 0, 64, 67
1, 153577, Control_c, 0, 64, 71
1, 153592, Control_c, 0, 64, 76
1, 153607, Control_c, 0, 64, 82
1, 153622, Control_c, 0, 64, 88
1, 153636, Control_c, 0, 64, 91
1, 153651, Control_c, 0, 64, 92
1, 153666, Control_c, 0, 64, 93
1, 153681, Control_c, 0, 64, 95
1, 153696, Control_c, 0, 64, 97
1, 153712, Note_on_c, 0, 65, 55
1, 153728, Note_on_c, 0, 67, 57
1, 153735, Note_off_c, 0, 61, 61
1, 153737, Note_on_c, 0, 53, 45
1, 153738, Note_on_c, 0, 55, 45
1, 153844, Control_c, 0, 64, 92
1, 153855, Note_on_c, 0, 59, 75
1, 153859, Control_c, 0, 64, 81
1, 153874, Control_c, 0, 64, 68
1, 153879, Note_on_c, 0, 47, 40
1, 153889, Control_c, 0, 64, 53
1, 153893, Note_off_c, 0, 49, 35
1, 153903, Control_c, 0, 64, 0
1, 153935, Note_off_c, 0, 65, 36
1, 153960, Note_off_c, 0, 67, 48
1, 154001, Note_off_c, 0, 55, 54
1, 154002, Note_off_c, 0, 53, 45
1, 154007, Control_c, 0, 64, 44
1, 154021, Control_c, 0, 64, 62
1, 154036, Control_c, 0, 64, 68
1, 154051, Control_c, 0, 64, 76
1, 154066, Control_c, 0, 64, 88
1, 154081, Control_c, 0, 64, 102
1, 154096, Control_c, 0, 64, 127
1, 154104, Note_on_c, 0, 65, 39
1, 154126, Note_on_c, 0, 67, 41
1, 154141, Note_on_c, 0, 53, 46
1, 154142, Note_on_c, 0, 55, 42
1, 154163, Note_off_c, 0, 59, 60
1, 154171, Note_off_c, 0, 67, 0
1, 154171, Note_on_c, 0, 67, 16
1, 154196, Note_off_c, 0, 47, 37
1, 154275, Control_c, 0, 64, 94
1, 154289, Note_on_c, 0, 59, 70
1, 154290, Control_c, 0, 64, 78
1, 154294, Note_on_c, 0, 47, 57
1, 154305, Control_c, 0, 64, 65
1, 154320, Control_c, 0, 64, 55
1, 154341, Control_c, 0, 64, 54
1, 154356, Control_c, 0, 64, 61
1, 154371, Control_c, 0, 64, 69
1, 154385, Control_c, 0, 64, 78
1, 154400, Control_c, 0, 64, 87
1, 154415, Control_c, 0, 64, 92
1, 154430, Note_off_c, 0, 67, 42
1, 154430, Control_c, 0, 64, 95
1, 154445, Control_c, 0, 64, 98
1, 154456, Note_off_c, 0, 55, 62
1, 154460, Note_off_c, 0, 65, 34
1, 154469, Note_off_c, 0, 53, 41
1, 154519, Control_c, 0, 64, 92
1, 154534, Control_c, 0, 64, 82
1, 154549, Control_c, 0, 64, 71
1, 154564, Control_c, 0, 64, 59
1, 154578, Control_c, 0, 64, 39
1, 154593, Control_c, 0, 64, 0
1, 154596, Note_on_c, 0, 65, 48
1, 154606, Note_on_c, 0, 67, 57
1, 154615, Note_on_c, 0, 53, 43
1, 154615, Note_on_c, 0, 55, 40
1, 154712, Control_c, 0, 64, 33
1, 154726, Control_c, 0, 64, 48
1, 154741, Control_c, 0, 64, 59
1, 154756, Control_c, 0, 64, 65
1, 154770, Control_c, 0, 64, 67
1, 154785, Control_c, 0, 64, 69
1, 154800, Control_c, 0, 64, 70
1, 154815, Control_c, 0, 64, 72
1, 154830, Control_c, 0, 64, 75
1, 154844, Control_c, 0, 64, 77
1, 154854, Note_off_c, 0, 67, 37
1, 154859, Control_c, 0, 64, 79
1, 154874, Control_c, 0, 64, 80
1, 154877, Note_off_c, 0, 53, 35
1, 154889, Control_c, 0, 64, 80
1, 154891, Note_off_c, 0, 55, 36
1, 154904, Control_c, 0, 64, 81
1, 154904, Control_c, 0, 67, 19
1, 154913, Note_off_c, 0, 65, 36
1, 154919, Control_c, 0, 64, 82
1, 154919, Control_c, 0, 67, 21
1, 154934, Control_c, 0, 64, 83
1, 154934, Control_c, 0, 67, 24
1, 154949, Control_c, 0, 64, 83
1, 154978, Control_c, 0, 67, 26
1, 155075, Control_c, 0, 67, 28
1, 155135, Control_c, 0, 67, 33
1, 155149, Control_c, 0, 64, 82
1, 155149, Control_c, 0, 67, 37
1, 155164, Control_c, 0, 64, 80
1, 155164, Control_c, 0, 67, 40
1, 155179, Control_c, 0, 64, 76
1, 155179, Control_c, 0, 67, 44
1, 155194, Control_c, 0, 64, 72
1, 155194, Control_c, 0, 67, 46
1, 155208, Control_c, 0, 64, 68
1, 155208, Control_c, 0, 67, 48
1, 155223, Control_c, 0, 64, 67
1, 155223, Control_c, 0, 67, 50
1, 155229, Note_on_c, 0, 55, 19
1, 155230, Note_on_c, 0, 67, 23
1, 155235, Note_on_c, 0, 53, 18
1, 155238, Note_on_c, 0, 65, 38
1, 155238, Control_c, 0, 67, 53
1, 155253, Control_c, 0, 64, 68
1, 155253, Control_c, 0, 67, 58
1, 155268, Control_c, 0, 64, 70
1, 155268, Control_c, 0, 67, 64
1, 155282, Control_c, 0, 64, 72
1, 155282, Control_c, 0, 67, 70
1, 155297, Control_c, 0, 64, 75
1, 155297, Control_c, 0, 67, 76
1, 155312, Control_c, 0, 64, 77
1, 155312, Control_c, 0, 67, 82
1, 155326, Note_off_c, 0, 59, 61
1, 155327, Control_c, 0, 64, 79
1, 155327, Control_c, 0, 67, 87
1, 155342, Control_c, 0, 64, 79
1, 155342, Control_c, 0, 67, 92
1, 155357, Control_c, 0, 67, 97
1, 155372, Control_c, 0, 67, 103
1, 155387, Control_c, 0, 67, 107
1, 155401, Control_c, 0, 67, 110
1, 155431, Control_c, 0, 67, 112
1, 155461, Control_c, 0, 64, 79
1, 155505, Control_c, 0, 64, 78
1, 155519, Control_c, 0, 64, 77
1, 155534, Control_c, 0, 64, 76
1, 155549, Control_c, 0, 64, 75
1, 155564, Control_c, 0, 64, 75
1, 155564, Control_c, 0, 67, 114
1, 155579, Control_c, 0, 64, 74
1, 155583, Note_on_c, 0, 58, 58
1, 155593, Control_c, 0, 64, 72
1, 155608, Control_c, 0, 64, 71
1, 155620, Note_on_c, 0, 46, 38
1, 155623, Control_c, 0, 64, 70
1, 155638, Control_c, 0, 64, 69
1, 155653, Control_c, 0, 64, 67
1, 155667, Note_off_c, 0, 67, 42
1, 155667, Control_c, 0, 64, 65
1, 155682, Control_c, 0, 64, 62
1, 155697, Control_c, 0, 64, 59
1, 155702, Note_off_c, 0, 47, 37
1, 155703, Note_off_c, 0, 53, 42
1, 155706, Note_off_c, 0, 55, 42
1, 155712, Control_c, 0, 64, 57
1, 155727, Control_c, 0, 64, 53
1, 155741, Control_c, 0, 64, 46
1, 155750, Note_off_c, 0, 65, 44
1, 155756, Control_c, 0, 64, 0
1, 155913, Control_c, 0, 64, 34
1, 155928, Control_c, 0, 64, 42
1, 155943, Control_c, 0, 64, 49
1, 155957, Control_c, 0, 64, 57
1, 155972, Control_c, 0, 64, 60
1, 155987, Control_c, 0, 64, 62
1, 156002, Control_c, 0, 64, 63
1, 156017, Control_c, 0, 64, 64
1, 156031, Control_c, 0, 64, 65
1, 156046, Control_c, 0, 64, 68
1, 156062, Control_c, 0, 64, 71
1, 156077, Control_c, 0, 64, 73
1, 156092, Control_c, 0, 64, 75
1, 156106, Control_c, 0, 64, 77
1, 156110, Note_on_c, 0, 65, 18
1, 156110, Note_off_c, 0, 46, 43
1, 156121, Control_c, 0, 64, 79
1, 156128, Note_on_c, 0, 53, 34
1, 156128, Note_on_c, 0, 55, 35
1, 156132, Note_on_c, 0, 67, 20
1, 156136, Control_c, 0, 64, 80
1, 156150, Control_c, 0, 64, 82
1, 156165, Control_c, 0, 64, 85
1, 156173, Note_off_c, 0, 58, 63
1, 156180, Control_c, 0, 64, 88
1, 156195, Control_c, 0, 64, 90
1, 156197, Note_off_c, 0, 65, 53
1, 156210, Control_c, 0, 64, 92
1, 156224, Control_c, 0, 64, 93
1, 156239, Control_c, 0, 64, 94
1, 156254, Control_c, 0, 64, 96
1, 156284, Control_c, 0, 64, 99
1, 156303, Note_on_c, 0, 58, 70
1, 156314, Note_off_c, 0, 53, 57
1, 156315, Note_on_c, 0, 46, 48
1, 156350, Note_off_c, 0, 67, 44
1, 156358, Note_off_c, 0, 55, 42
1, 156457, Note_off_c, 0, 58, 62
1, 156516, Note_on_c, 0, 59, 73
1, 156534, Note_off_c, 0, 46, 34
1, 156557, Note_on_c, 0, 47, 46
1, 156623, Note_off_c, 0, 47, 55
1, 156628, Note_off_c, 0, 59, 61
1, 156630, Note_on_c, 0, 58, 80
1, 156663, Note_on_c, 0, 46, 58
1, 156677, Control_c, 0, 64, 97
1, 156692, Control_c, 0, 64, 89
1, 156707, Control_c, 0, 64, 78
1, 156722, Control_c, 0, 64, 65
1, 156723, Note_off_c, 0, 58, 61
1, 156737, Control_c, 0, 64, 44
1, 156738, Note_on_c, 0, 54, 80
1, 156752, Control_c, 0, 64, 0
1, 156752, Note_off_c, 0, 46, 64
1, 156758, Note_on_c, 0, 42, 55
1, 156781, Control_c, 0, 67, 117
1, 156884, Note_off_c, 0, 54, 62
1, 156941, Note_on_c, 0, 54, 65
1, 156951, Note_on_c, 0, 61, 77
1, 156958, Control_c, 0, 67, 114
1, 156973, Control_c, 0, 67, 107
1, 156979, Note_on_c, 0, 66, 81
1, 156987, Control_c, 0, 67, 99
1, 157000, Note_off_c, 0, 66, 70
1, 157002, Control_c, 0, 64, 54
1, 157002, Control_c, 0, 67, 81
1, 157006, Note_on_c, 0, 67, 74
1, 157006, Note_off_c, 0, 61, 62
1, 157017, Control_c, 0, 64, 68
1, 157017, Control_c, 0, 67, 40
1, 157029, Note_off_c, 0, 54, 63
1, 157032, Control_c, 0, 64, 75
1, 157032, Control_c, 0, 67, 0
1, 157046, Note_off_c, 0, 67, 50
1, 157047, Control_c, 0, 64, 83
1, 157062, Control_c, 0, 64, 84
1, 157087, Note_on_c, 0, 67, 36
1, 157092, Control_c, 0, 64, 84
1, 157134, Note_off_c, 0, 42, 65
1, 157154, Note_off_c, 0, 67, 0
1, 157166, Control_c, 0, 67, 25
1, 157180, Control_c, 0, 67, 37
1, 157191, Poly_aftertouch_c, 0, 67, 127
1, 157195, Control_c, 0, 67, 52
1, 157210, Control_c, 0, 67, 68
1, 157225, Control_c, 0, 67, 82
1, 157240, Control_c, 0, 67, 96
1, 157250, Poly_aftertouch_c, 0, 67, 0
1, 157254, Control_c, 0, 67, 109
1, 157269, Control_c, 0, 67, 123
1, 157284, Control_c, 0, 64, 83
1, 157284, Control_c, 0, 67, 127
1, 157298, Control_c, 0, 64, 82
1, 157313, Control_c, 0, 64, 80
1, 157328, Note_on_c, 0, 54, 43
1, 157336, Control_c, 0, 64, 77
1, 157344, Note_on_c, 0, 66, 64
1, 157348, Note_on_c, 0, 61, 38
1, 157351, Control_c, 0, 64, 74
1, 157366, Control_c, 0, 64, 70
1, 157376, Note_off_c, 0, 66, 62
1, 157379, Note_off_c, 0, 61, 56
1, 157380, Control_c, 0, 64, 68
1, 157389, Note_on_c, 0, 67, 42
1, 157395, Control_c, 0, 64, 66
1, 157410, Control_c, 0, 64, 66
1, 157425, Control_c, 0, 64, 65
1, 157438, Note_off_c, 0, 54, 48
1, 157440, Control_c, 0, 64, 63
1, 157455, Control_c, 0, 64, 61
1, 157470, Control_c, 0, 64, 60
1, 157485, Control_c, 0, 64, 59
1, 157500, Note_on_c, 0, 30, 45
1, 157500, Control_c, 0, 64, 59
1, 157515, Control_c, 0, 64, 58
1, 157529, Control_c, 0, 64, 55
1, 157531, Note_off_c, 0, 30, 55
1, 157544, Control_c, 0, 64, 52
1, 157559, Control_c, 0, 64, 49
1, 157607, Note_off_c, 0, 67, 51
1, 157618, Control_c, 0, 64, 48
1, 157633, Control_c, 0, 64, 47
1, 157648, Control_c, 0, 64, 47
1, 157663, Control_c, 0, 64, 49
1, 157670, Note_on_c, 0, 42, 55
1, 157674, Note_on_c, 0, 54, 42
1, 157677, Control_c, 0, 64, 50
1, 157679, Note_on_c, 0, 66, 47
1, 157688, Note_on_c, 0, 61, 32
1, 157692, Control_c, 0, 64, 52
1, 157698, Note_off_c, 0, 42, 62
1, 157704, Note_on_c, 0, 67, 44
1, 157707, Control_c, 0, 64, 53
1, 157713, Note_off_c, 0, 66, 54
1, 157721, Control_c, 0, 64, 56
1, 157724, Note_off_c, 0, 61, 54
1, 157736, Control_c, 0, 64, 59
1, 157742, Note_off_c, 0, 67, 50
1, 157751, Control_c, 0, 64, 62
1, 157759, Note_off_c, 0, 54, 50
1, 157766, Control_c, 0, 64, 63
1, 157795, Control_c, 0, 64, 63
1, 157850, Note_on_c, 0, 30, 25
1, 157855, Control_c, 0, 64, 62
1, 157870, Control_c, 0, 64, 62
1, 157880, Note_off_c, 0, 30, 45
1, 157914, Control_c, 0, 64, 62
1, 157995, Note_on_c, 0, 66, 43
1, 158002, Note_on_c, 0, 54, 35
1, 158014, Note_on_c, 0, 67, 44
1, 158018, Control_c, 0, 64, 62
1, 158019, Note_on_c, 0, 61, 19
1, 158081, Note_off_c, 0, 66, 42
1, 158099, Control_c, 0, 64, 61
1, 158102, Note_off_c, 0, 61, 35
1, 158114, Note_off_c, 0, 54, 34
1, 158114, Control_c, 0, 64, 60
1, 158129, Control_c, 0, 64, 59
1, 158141, Note_on_c, 0, 30, 48
1, 158144, Control_c, 0, 64, 59
1, 158159, Control_c, 0, 64, 58
1, 158173, Note_off_c, 0, 30, 56
1, 158174, Control_c, 0, 64, 57
1, 158189, Control_c, 0, 64, 55
1, 158192, Note_off_c, 0, 67, 43
1, 158203, Control_c, 0, 64, 54
1, 158218, Control_c, 0, 64, 53
1, 158248, Control_c, 0, 64, 53
1, 158263, Control_c, 0, 64, 52
1, 158278, Control_c, 0, 64, 50
1, 158293, Control_c, 0, 64, 48
1, 158296, Note_on_c, 0, 42, 59
1, 158302, Note_on_c, 0, 37, 55
1, 158308, Control_c, 0, 64, 47
1, 158317, Note_on_c, 0, 67, 37
1, 158323, Control_c, 0, 64, 47
1, 158326, Note_off_c, 0, 42, 65
1, 158329, Note_on_c, 0, 66, 27
1, 158332, Note_off_c, 0, 37, 60
1, 158335, Note_on_c, 0, 54, 30
1, 158338, Control_c, 0, 64, 46
1, 158344, Note_on_c, 0, 61, 16
1, 158352, Control_c, 0, 64, 43
1, 158367, Control_c, 0, 64, 41
1, 158376, Note_off_c, 0, 66, 44
1, 158382, Control_c, 0, 64, 40
1, 158403, Note_off_c, 0, 61, 41
1, 158412, Control_c, 0, 64, 42
1, 158420, Note_off_c, 0, 54, 35
1, 158426, Control_c, 0, 64, 45
1, 158441, Control_c, 0, 64, 51
1, 158450, Note_on_c, 0, 30, 48
1, 158456, Control_c, 0, 64, 57
1, 158471, Control_c, 0, 64, 60
1, 158481, Note_off_c, 0, 30, 55
1, 158487, Note_off_c, 0, 67, 36
1, 158500, Control_c, 0, 64, 59
1, 158515, Control_c, 0, 64, 57
1, 158544, Control_c, 0, 64, 58
1, 158559, Control_c, 0, 64, 59
1, 158574, Control_c, 0, 64, 58
1, 158592, Note_on_c, 0, 42, 49
1, 158594, Note_on_c, 0, 67, 44
1, 158597, Note_on_c, 0, 37, 48
1, 158603, Note_on_c, 0, 54, 34
1, 158604, Control_c, 0, 64, 59
1, 158606, Note_on_c, 0, 66, 35
1, 158611, Note_on_c, 0, 61, 25
1, 158618, Control_c, 0, 64, 60
1, 158621, Note_off_c, 0, 42, 58
1, 158630, Note_off_c, 0, 37, 47
1, 158633, Control_c, 0, 64, 61
1, 158648, Control_c, 0, 64, 63
1, 158663, Control_c, 0, 64, 63
1, 158678, Control_c, 0, 64, 63
1, 158693, Control_c, 0, 64, 61
1, 158695, Note_off_c, 0, 66, 37
1, 158707, Note_off_c, 0, 54, 37
1, 158707, Control_c, 0, 64, 60
1, 158722, Control_c, 0, 64, 59
1, 158727, Note_off_c, 0, 61, 33
1, 158734, Note_on_c, 0, 30, 62
1, 158764, Note_off_c, 0, 30, 62
1, 158767, Control_c, 0, 64, 60
1, 158771, Note_off_c, 0, 67, 40
1, 158782, Control_c, 0, 64, 61
1, 158797, Control_c, 0, 64, 63
1, 158818, Control_c, 0, 64, 64
1, 158833, Control_c, 0, 64, 65
1, 158848, Control_c, 0, 64, 65
1, 158863, Control_c, 0, 64, 66
1, 158894, Note_on_c, 0, 67, 56
1, 158898, Note_on_c, 0, 66, 45
1, 158898, Note_on_c, 0, 54, 49
1, 158907, Control_c, 0, 64, 66
1, 158908, Note_on_c, 0, 61, 34
1, 158940, Note_off_c, 0, 66, 56
1, 158952, Note_off_c, 0, 54, 55
1, 158958, Note_off_c, 0, 61, 44
1, 158967, Control_c, 0, 64, 66
1, 158982, Control_c, 0, 64, 65
1, 158997, Control_c, 0, 64, 63
1, 159012, Control_c, 0, 64, 61
1, 159015, Note_on_c, 0, 30, 64
1, 159026, Control_c, 0, 64, 57
1, 159041, Control_c, 0, 64, 54
1, 159047, Note_off_c, 0, 30, 63
1, 159057, Control_c, 0, 64, 52
1, 159072, Control_c, 0, 64, 54
1, 159076, Note_off_c, 0, 67, 27
1, 159087, Control_c, 0, 64, 57
1, 159102, Control_c, 0, 64, 59
1, 159131, Control_c, 0, 64, 56
1, 159146, Control_c, 0, 64, 50
1, 159161, Control_c, 0, 64, 52
1, 159162, Note_on_c, 0, 42, 71
1, 159168, Note_on_c, 0, 37, 65
1, 159175, Control_c, 0, 64, 60
1, 159176, Note_on_c, 0, 54, 43
1, 159179, Note_on_c, 0, 66, 47
1, 159185, Note_on_c, 0, 61, 38
1, 159186, Note_off_c, 0, 42, 66
1, 159190, Control_c, 0, 64, 66
1, 159196, Note_on_c, 0, 67, 35
1, 159197, Note_off_c, 0, 37, 62
1, 159205, Control_c, 0, 64, 73
1, 159220, Control_c, 0, 64, 76
1, 159229, Note_off_c, 0, 66, 57
1, 159235, Control_c, 0, 64, 77
1, 159238, Note_off_c, 0, 61, 43
1, 159249, Note_off_c, 0, 54, 47
1, 159280, Control_c, 0, 64, 76
1, 159294, Control_c, 0, 64, 69
1, 159299, Note_on_c, 0, 30, 80
1, 159309, Control_c, 0, 64, 58
1, 159324, Control_c, 0, 64, 42
1, 159328, Note_off_c, 0, 30, 66
1, 159339, Control_c, 0, 64, 30
1, 159354, Control_c, 0, 64, 32
1, 159355, Note_off_c, 0, 67, 40
1, 159368, Control_c, 0, 64, 40
1, 159383, Control_c, 0, 64, 48
1, 159398, Control_c, 0, 64, 57
1, 159413, Control_c, 0, 64, 64
1, 159428, Control_c, 0, 64, 71
1, 159441, Note_on_c, 0, 54, 60
1, 159442, Control_c, 0, 64, 78
1, 159446, Note_on_c, 0, 66, 47
1, 159447, Note_on_c, 0, 61, 39
1, 159447, Note_on_c, 0, 67, 58
1, 159457, Control_c, 0, 64, 83
1, 159472, Control_c, 0, 64, 85
1, 159486, Control_c, 0, 64, 86
1, 159497, Note_off_c, 0, 66, 54
1, 159500, Note_off_c, 0, 54, 62
1, 159501, Control_c, 0, 64, 87
1, 159513, Note_off_c, 0, 61, 49
1, 159516, Control_c, 0, 64, 84
1, 159531, Control_c, 0, 64, 74
1, 159534, Note_off_c, 0, 67, 57
1, 159546, Control_c, 0, 64, 61
1, 159559, Note_on_c, 0, 30, 75
1, 159568, Control_c, 0, 64, 51
1, 159583, Control_c, 0, 64, 53
1, 159598, Control_c, 0, 64, 59
1, 159599, Note_off_c, 0, 30, 66
1, 159613, Control_c, 0, 64, 64
1, 159628, Control_c, 0, 64, 68
1, 159642, Control_c, 0, 64, 75
1, 159657, Control_c, 0, 64, 83
1, 159672, Control_c, 0, 64, 91
1, 159687, Control_c, 0, 64, 95
1, 159701, Control_c, 0, 64, 92
1, 159706, Note_on_c, 0, 37, 77
1, 159715, Note_on_c, 0, 67, 54
1, 159716, Note_on_c, 0, 61, 58
1, 159716, Control_c, 0, 64, 80
1, 159719, Note_on_c, 0, 54, 61
1, 159724, Note_on_c, 0, 66, 52
1, 159731, Control_c, 0, 64, 69
1, 159733, Note_off_c, 0, 37, 66
1, 159746, Control_c, 0, 64, 63
1, 159759, Note_off_c, 0, 66, 63
1, 159760, Note_off_c, 0, 67, 59
1, 159760, Note_off_c, 0, 54, 61
1, 159761, Control_c, 0, 64, 66
1, 159766, Note_off_c, 0, 61, 60
1, 159775, Control_c, 0, 64, 74
1, 159790, Control_c, 0, 64, 87
1, 159805, Control_c, 0, 64, 112
1, 159820, Control_c, 0, 64, 127
1, 159831, Note_on_c, 0, 42, 85
1, 159856, Note_off_c, 0, 42, 70
1, 159880, Control_c, 0, 64, 92
1, 159895, Control_c, 0, 64, 71
1, 159910, Control_c, 0, 64, 60
1, 159924, Control_c, 0, 64, 56
1, 159939, Control_c, 0, 64, 61
1, 159954, Control_c, 0, 64, 68
1, 159961, Note_on_c, 0, 49, 81
1, 159969, Control_c, 0, 64, 79
1, 159971, Note_on_c, 0, 54, 69
1, 159976, Note_on_c, 0, 67, 66
1, 159977, Note_on_c, 0, 61, 64
1, 159980, Note_on_c, 0, 66, 61
1, 159984, Control_c, 0, 64, 99
1, 159986, Note_off_c, 0, 49, 69
1, 159998, Note_off_c, 0, 54, 66
1, 159998, Control_c, 0, 64, 127
1, 160009, Note_off_c, 0, 61, 62
1, 160014, Note_off_c, 0, 66, 60
1, 160025, Note_off_c, 0, 67, 61
1, 160088, Note_on_c, 0, 37, 80
1, 160088, Control_c, 0, 64, 101
1, 160103, Control_c, 0, 64, 82
1, 160117, Control_c, 0, 64, 77
1, 160130, Note_off_c, 0, 37, 60
1, 160132, Control_c, 0, 64, 80
1, 160147, Control_c, 0, 64, 95
1, 160162, Control_c, 0, 64, 127
1, 160207, Note_on_c, 0, 42, 84
1, 160214, Note_on_c, 0, 54, 75
1, 160216, Note_on_c, 0, 67, 69
1, 160219, Note_on_c, 0, 66, 61
1, 160219, Note_on_c, 0, 61, 71
1, 160234, Note_off_c, 0, 42, 71
1, 160243, Note_off_c, 0, 54, 65
1, 160246, Note_off_c, 0, 61, 66
1, 160246, Note_off_c, 0, 66, 67
1, 160250, Note_off_c, 0, 67, 62
1, 160340, Note_on_c, 0, 49, 96
1, 160361, Note_off_c, 0, 49, 72
1, 160362, Control_c, 0, 64, 92
1, 160377, Control_c, 0, 64, 77
1, 160391, Control_c, 0, 64, 66
1, 160391, Control_c, 0, 67, 122
1, 160406, Control_c, 0, 64, 59
1, 160406, Control_c, 0, 67, 117
1, 160421, Control_c, 0, 64, 56
1, 160421, Control_c, 0, 67, 114
1, 160436, Control_c, 0, 64, 62
1, 160450, Control_c, 0, 64, 75
1, 160465, Control_c, 0, 64, 101
1, 160471, Note_on_c, 0, 54, 96
1, 160476, Note_on_c, 0, 66, 75
1, 160478, Note_on_c, 0, 67, 76
1, 160480, Control_c, 0, 64, 127
1, 160481, Note_on_c, 0, 61, 68
1, 160499, Note_off_c, 0, 54, 64
1, 160502, Note_off_c, 0, 67, 69
1, 160505, Note_off_c, 0, 66, 64
1, 160508, Note_off_c, 0, 61, 65
1, 160553, Control_c, 0, 67, 112
1, 160595, Note_on_c, 0, 42, 88
1, 160597, Control_c, 0, 67, 109
1, 160612, Control_c, 0, 67, 104
1, 160618, Note_off_c, 0, 42, 68
1, 160627, Control_c, 0, 67, 96
1, 160643, Control_c, 0, 67, 85
1, 160658, Control_c, 0, 67, 70
1, 160669, Note_on_c, 0, 54, 84
1, 160673, Control_c, 0, 67, 55
1, 160687, Control_c, 0, 67, 40
1, 160690, Note_off_c, 0, 54, 70
1, 160702, Control_c, 0, 67, 26
1, 160715, Poly_aftertouch_c, 0, 54, 0
1, 160717, Control_c, 0, 67, 0
1, 160720, Note_on_c, 0, 54, 88
1, 160740, Note_off_c, 0, 54, 67
1, 160752, Poly_aftertouch_c, 0, 42, 127
1, 160758, Note_on_c, 0, 66, 76
1, 160782, Poly_aftertouch_c, 0, 42, 0
1, 160783, Note_off_c, 0, 66, 68
1, 160836, Note_on_c, 0, 42, 91
1, 160866, Note_off_c, 0, 42, 67
1, 160893, Note_on_c, 0, 54, 82
1, 160934, Note_off_c, 0, 54, 0
1, 160971, Poly_aftertouch_c, 0, 54, 0
1, 160985, Note_on_c, 0, 53, 29
1, 160985, Note_on_c, 0, 66, 79
1, 161004, Note_off_c, 0, 66, 72
1, 161021, Note_off_c, 0, 53, 46
1, 161076, Note_on_c, 0, 66, 92
1, 161091, Note_off_c, 0, 66, 75
1, 161126, Note_on_c, 0, 78, 91
1, 161141, Note_off_c, 0, 78, 74
1, 161174, Note_on_c, 0, 54, 104
1, 161184, Note_on_c, 0, 74, 35
1, 161207, Note_off_c, 0, 54, 65
1, 161228, Note_on_c, 0, 66, 91
1, 161268, Note_off_c, 0, 66, 64
1, 161280, Note_on_c, 0, 66, 89
1, 161309, Note_off_c, 0, 66, 70
1, 161320, Note_on_c, 0, 78, 93
1, 161324, Note_off_c, 0, 74, 61
1, 161334, Note_off_c, 0, 78, 65
1, 161337, Note_on_c, 0, 77, 80
1, 161351, Note_off_c, 0, 77, 72
1, 161399, Note_on_c, 0, 78, 108
1, 161432, Note_off_c, 0, 78, 70
1, 161457, Note_on_c, 0, 90, 100
1, 161480, Note_off_c, 0, 90, 67
1, 161498, Note_on_c, 0, 86, 50
1, 161501, Note_on_c, 0, 66, 102
1, 161518, Note_off_c, 0, 66, 70
1, 161521, Note_off_c, 0, 86, 57
1, 161562, Note_on_c, 0, 78, 89
1, 161566, Note_on_c, 0, 86, 60
1, 161591, Note_on_c, 0, 85, 53
1, 161595, Note_off_c, 0, 78, 68
1, 161614, Note_on_c, 0, 78, 98
1, 161618, Note_off_c, 0, 85, 59
1, 161635, Note_off_c, 0, 86, 66
1, 161641, Note_on_c, 0, 90, 103
1, 161641, Note_off_c, 0, 78, 68
1, 161658, Note_on_c, 0, 91, 88
1, 161671, Note_off_c, 0, 90, 48
1, 161673, Note_off_c, 0, 91, 73
1, 161733, Note_on_c, 0, 90, 101
1, 161736, Note_on_c, 0, 92, 81
1, 161736, Note_off_c, 0, 92, 127
1, 161755, Note_on_c, 0, 91, 73
1, 161755, Note_off_c, 0, 91, 127
1, 161760, Note_off_c, 0, 90, 69
1, 161776, Note_on_c, 0, 102, 117
1, 161802, Note_off_c, 0, 102, 71
1, 161904, Note_on_c, 0, 66, 84
1, 161916, Note_off_c, 0, 66, 72
1, 161981, Note_on_c, 0, 77, 87
1, 161991, Note_on_c, 0, 79, 74
1, 162015, Note_on_c, 0, 82, 51
1, 162018, Note_off_c, 0, 79, 54
1, 162027, Note_off_c, 0, 77, 67
1, 162028, Note_on_c, 0, 83, 77
1, 162037, Note_off_c, 0, 82, 61
1, 162059, Note_on_c, 0, 86, 94
1, 162092, Note_off_c, 0, 83, 66
1, 162109, Note_on_c, 0, 91, 108
1, 162112, Note_off_c, 0, 86, 72
1, 162151, Note_off_c, 0, 91, 72
1, 162404, Note_on_c, 0, 78, 86
1, 162443, Note_off_c, 0, 78, 63
1, 162532, Note_on_c, 0, 78, 95
1, 162539, Note_on_c, 0, 93, 93
1, 162572, Note_off_c, 0, 78, 64
1, 162592, Note_on_c, 0, 91, 84
1, 162603, Note_off_c, 0, 93, 67
1, 162634, Note_on_c, 0, 90, 98
1, 162645, Note_off_c, 0, 91, 67
1, 162683, Note_on_c, 0, 91, 85
1, 162704, Note_off_c, 0, 90, 65
1, 162725, Note_on_c, 0, 90, 98
1, 162728, Note_off_c, 0, 91, 66
1, 162758, Note_off_c, 0, 90, 69
1, 162810, Note_on_c, 0, 84, 86
1, 162839, Note_on_c, 0, 83, 32
1, 162839, Note_off_c, 0, 83, 127
1, 162862, Note_on_c, 0, 85, 88
1, 162883, Note_off_c, 0, 84, 64
1, 162884, Note_on_c, 0, 88, 98
1, 162911, Note_off_c, 0, 85, 66
1, 162940, Note_on_c, 0, 91, 95
1, 162944, Note_off_c, 0, 88, 69
1, 162976, Note_on_c, 0, 95, 110
1, 162992, Note_off_c, 0, 91, 64
1, 163021, Note_on_c, 0, 78, 99
1, 163028, Note_off_c, 0, 95, 69
1, 163049, Note_off_c, 0, 78, 67
1, 163218, Note_on_c, 0, 78, 74
1, 163374, Note_off_c, 0, 78, 57
1, 163400, Note_on_c, 0, 66, 77
1, 163530, Note_on_c, 0, 81, 70
1, 163531, Note_on_c, 0, 79, 72
1, 163558, Note_on_c, 0, 78, 73
1, 163570, Note_off_c, 0, 66, 61
1, 163573, Note_on_c, 0, 85, 83
1, 163599, Note_off_c, 0, 79, 64
1, 163609, Note_on_c, 0, 88, 89
1, 163613, Note_off_c, 0, 81, 63
1, 163622, Note_off_c, 0, 78, 63
1, 163638, Note_off_c, 0, 85, 67
1, 163665, Note_off_c, 0, 88, 70
1, 163668, Note_on_c, 0, 93, 96
1, 163702, Note_off_c, 0, 93, 67
1, 163706, Note_on_c, 0, 66, 63
1, 163735, Note_off_c, 0, 66, 65
1, 163838, Note_on_c, 0, 72, 73
1, 163849, Note_on_c, 0, 74, 81
1, 163897, Note_off_c, 0, 74, 62
1, 163900, Note_on_c, 0, 77, 72
1, 163901, Note_off_c, 0, 72, 63
1, 163914, Note_on_c, 0, 78, 16
1, 163923, Note_on_c, 0, 81, 85
1, 163951, Note_off_c, 0, 77, 61
1, 163961, Note_off_c, 0, 78, 28
1, 163963, Note_off_c, 0, 81, 67
1, 163965, Note_on_c, 0, 88, 89
1, 163966, Note_on_c, 0, 86, 83
1, 163996, Note_on_c, 0, 54, 90
1, 164007, Note_off_c, 0, 88, 68
1, 164011, Note_off_c, 0, 86, 69
1, 164040, Note_off_c, 0, 54, 64
1, 164148, Note_on_c, 0, 66, 86
1, 164207, Note_off_c, 0, 66, 62
1, 164243, Note_on_c, 0, 88, 89
1, 164286, Note_off_c, 0, 88, 67
1, 164297, Note_on_c, 0, 86, 79
1, 164318, Note_on_c, 0, 85, 95
1, 164321, Note_off_c, 0, 86, 68
1, 164322, Note_on_c, 0, 66, 76
1, 164359, Note_off_c, 0, 66, 64
1, 164370, Note_on_c, 0, 86, 92
1, 164388, Note_off_c, 0, 85, 66
1, 164403, Note_off_c, 0, 86, 66
1, 164446, Note_on_c, 0, 78, 103
1, 164480, Note_on_c, 0, 80, 41
1, 164480, Note_off_c, 0, 80, 127
1, 164480, Note_off_c, 0, 78, 68
1, 164506, Note_on_c, 0, 76, 77
1, 164550, Note_on_c, 0, 80, 88
1, 164552, Note_on_c, 0, 77, 21
1, 164552, Note_off_c, 0, 77, 127
1, 164554, Poly_aftertouch_c, 0, 79, 0
1, 164589, Note_on_c, 0, 82, 90
1, 164606, Poly_aftertouch_c, 0, 77, 0
1, 164617, Note_off_c, 0, 76, 60
1, 164640, Note_off_c, 0, 80, 63
1, 164646, Note_on_c, 0, 85, 82
1, 164655, Note_off_c, 0, 82, 66
1, 164690, Note_on_c, 0, 90, 105
1, 164693, Note_off_c, 0, 85, 71
1, 164723, Note_off_c, 0, 90, 70
1, 164744, Note_on_c, 0, 66, 90
1, 164762, Note_off_c, 0, 66, 69
1, 164943, Note_on_c, 0, 66, 72
1, 165074, Note_off_c, 0, 66, 61
1, 165099, Note_on_c, 0, 54, 82
1, 165224, Note_on_c, 0, 66, 78
1, 165236, Note_on_c, 0, 76, 66
1, 165239, Note_on_c, 0, 74, 68
1, 165279, Note_on_c, 0, 80, 87
1, 165292, Note_off_c, 0, 54, 50
1, 165310, Note_off_c, 0, 76, 59
1, 165312, Note_off_c, 0, 74, 59
1, 165313, Note_on_c, 0, 83, 86
1, 165322, Note_off_c, 0, 66, 58
1, 165345, Note_off_c, 0, 80, 66
1, 165364, Note_on_c, 0, 88, 98
1, 165368, Note_off_c, 0, 83, 66
1, 165406, Note_off_c, 0, 88, 66
1, 165409, Note_on_c, 0, 54, 73
1, 165454, Note_off_c, 0, 54, 65
1, 165570, Note_on_c, 0, 69, 62
1, 165578, Note_on_c, 0, 67, 75
1, 165616, Note_on_c, 0, 73, 82
1, 165635, Note_off_c, 0, 67, 52
1, 165656, Note_off_c, 0, 69, 62
1, 165661, Note_on_c, 0, 76, 69
1, 165688, Note_off_c, 0, 73, 66
1, 165704, Note_on_c, 0, 81, 94
1, 165713, Note_off_c, 0, 76, 65
1, 165769, Note_off_c, 0, 81, 70
1, 165795, Note_on_c, 0, 42, 65
1, 165903, Note_off_c, 0, 42, 63
1, 165936, Note_on_c, 0, 54, 78
1, 165990, Note_off_c, 0, 54, 61
1, 166064, Note_on_c, 0, 83, 76
1, 166076, Note_on_c, 0, 54, 55
1, 166115, Note_off_c, 0, 83, 65
1, 166123, Note_on_c, 0, 81, 80
1, 166165, Note_on_c, 0, 80, 84
1, 166169, Note_off_c, 0, 81, 61
1, 166220, Note_on_c, 0, 81, 87
1, 166229, Note_off_c, 0, 80, 62
1, 166240, Note_on_c, 0, 83, 47
1, 166246, Note_off_c, 0, 81, 64
1, 166264, Note_off_c, 0, 83, 58
1, 166312, Note_on_c, 0, 66, 84
1, 166362, Note_on_c, 0, 70, 80
1, 166373, Note_off_c, 0, 66, 61
1, 166413, Note_off_c, 0, 54, 48
1, 166425, Note_on_c, 0, 76, 78
1, 166436, Note_off_c, 0, 70, 63
1, 166475, Note_on_c, 0, 80, 84
1, 166504, Note_off_c, 0, 76, 62
1, 166535, Note_on_c, 0, 85, 83
1, 166546, Note_off_c, 0, 80, 66
1, 166622, Note_off_c, 0, 85, 63
1, 166754, Note_on_c, 0, 54, 55
1, 166923, Note_on_c, 0, 42, 54
1, 166937, Note_off_c, 0, 54, 43
1, 167057, Note_on_c, 0, 54, 60
1, 167072, Note_off_c, 0, 42, 37
1, 167131, Note_on_c, 0, 69, 57
1, 167131, Note_on_c, 0, 71, 56
1, 167153, Note_off_c, 0, 54, 34
1, 167168, Note_on_c, 0, 75, 69
1, 167194, Note_off_c, 0, 69, 59
1, 167197, Note_off_c, 0, 71, 60
1, 167212, Note_on_c, 0, 78, 73
1, 167224, Note_off_c, 0, 75, 64
1, 167251, Note_off_c, 0, 78, 66
1, 167260, Note_on_c, 0, 83, 83
1, 167304, Note_off_c, 0, 83, 65
1, 167310, Note_on_c, 0, 42, 46
1, 167379, Note_off_c, 0, 42, 60
1, 167426, Control_c, 0, 67, 19
1, 167441, Control_c, 0, 67, 22
1, 167456, Control_c, 0, 67, 24
1, 167471, Control_c, 0, 67, 27
1, 167486, Control_c, 0, 67, 32
1, 167501, Control_c, 0, 67, 38
1, 167515, Control_c, 0, 67, 47
1, 167530, Control_c, 0, 67, 57
1, 167535, Note_on_c, 0, 62, 50
1, 167538, Note_on_c, 0, 60, 51
1, 167545, Control_c, 0, 67, 66
1, 167560, Control_c, 0, 67, 72
1, 167561, Note_on_c, 0, 66, 66
1, 167575, Control_c, 0, 67, 76
1, 167589, Control_c, 0, 67, 77
1, 167604, Control_c, 0, 67, 79
1, 167611, Note_off_c, 0, 60, 57
1, 167614, Note_on_c, 0, 69, 68
1, 167619, Control_c, 0, 67, 79
1, 167629, Note_off_c, 0, 62, 55
1, 167633, Control_c, 0, 67, 80
1, 167648, Control_c, 0, 67, 82
1, 167655, Note_off_c, 0, 66, 61
1, 167663, Control_c, 0, 67, 86
1, 167675, Note_on_c, 0, 74, 83
1, 167678, Control_c, 0, 67, 89
1, 167693, Note_off_c, 0, 69, 61
1, 167693, Control_c, 0, 67, 92
1, 167707, Control_c, 0, 67, 93
1, 167722, Control_c, 0, 67, 95
1, 167737, Control_c, 0, 67, 95
1, 167743, Note_on_c, 0, 30, 48
1, 167752, Control_c, 0, 67, 96
1, 167896, Note_off_c, 0, 30, 47
1, 167933, Note_on_c, 0, 42, 58
1, 167967, Note_off_c, 0, 74, 62
1, 167970, Note_off_c, 0, 42, 62
1, 167982, Control_c, 0, 67, 95
1, 168124, Note_on_c, 0, 54, 53
1, 168207, Note_on_c, 0, 76, 65
1, 168266, Note_on_c, 0, 74, 76
1, 168289, Note_off_c, 0, 76, 62
1, 168332, Note_off_c, 0, 74, 62
1, 168335, Note_on_c, 0, 73, 81
1, 168369, Note_off_c, 0, 54, 41
1, 168383, Note_on_c, 0, 74, 80
1, 168398, Note_off_c, 0, 73, 62
1, 168446, Note_on_c, 0, 42, 64
1, 168456, Control_c, 0, 64, 92
1, 168471, Control_c, 0, 64, 70
1, 168486, Control_c, 0, 64, 61
1, 168501, Control_c, 0, 64, 63
1, 168516, Control_c, 0, 64, 74
1, 168521, Note_off_c, 0, 74, 61
1, 168530, Control_c, 0, 64, 101
1, 168530, Control_c, 0, 67, 95
1, 168545, Control_c, 0, 64, 127
1, 168555, Note_on_c, 0, 54, 76
1, 168556, Note_off_c, 0, 42, 63
1, 168568, Control_c, 0, 67, 94
1, 168597, Control_c, 0, 67, 94
1, 168598, Note_off_c, 0, 54, 58
1, 168612, Control_c, 0, 67, 93
1, 168658, Note_on_c, 0, 54, 58
1, 168732, Note_on_c, 0, 64, 69
1, 168771, Note_on_c, 0, 68, 76
1, 168828, Note_on_c, 0, 66, 68
1, 168830, Note_on_c, 0, 70, 78
1, 168830, Note_off_c, 0, 64, 61
1, 168866, Note_off_c, 0, 66, 59
1, 168868, Note_off_c, 0, 68, 63
1, 168876, Note_off_c, 0, 54, 47
1, 168881, Note_on_c, 0, 73, 68
1, 168910, Note_off_c, 0, 70, 64
1, 168929, Note_on_c, 0, 78, 88
1, 168960, Note_off_c, 0, 73, 64
1, 169006, Note_off_c, 0, 78, 62
1, 169263, Note_on_c, 0, 54, 59
1, 169330, Note_off_c, 0, 54, 60
1, 169455, Note_on_c, 0, 54, 52
1, 169510, Control_c, 0, 67, 94
1, 169540, Control_c, 0, 67, 95
1, 169555, Control_c, 0, 67, 95
1, 169561, Note_off_c, 0, 54, 46
1, 169585, Control_c, 0, 67, 96
1, 169624, Note_on_c, 0, 42, 47
1, 169747, Control_c, 0, 67, 95
1, 169790, Note_on_c, 0, 54, 54
1, 169807, Control_c, 0, 67, 95
1, 169813, Note_off_c, 0, 54, 61
1, 169821, Note_off_c, 0, 42, 52
1, 169866, Control_c, 0, 67, 94
1, 169901, Note_on_c, 0, 54, 57
1, 169964, Note_off_c, 0, 54, 54
1, 170051, Control_c, 0, 67, 94
1, 170087, Note_on_c, 0, 66, 63
1, 170236, Note_on_c, 0, 54, 53
1, 170290, Note_off_c, 0, 54, 53
1, 170327, Note_off_c, 0, 66, 52
1, 170348, Control_c, 0, 67, 94
1, 170414, Note_on_c, 0, 54, 39
1, 170452, Control_c, 0, 67, 95
1, 170482, Control_c, 0, 67, 95
1, 170545, Note_on_c, 0, 42, 44
1, 170574, Note_off_c, 0, 54, 32
1, 170709, Note_off_c, 0, 42, 45
1, 170730, Note_on_c, 0, 54, 41
1, 170756, Note_on_c, 0, 66, 46
1, 170777, Control_c, 0, 67, 95
1, 170850, Note_off_c, 0, 54, 38
1, 170896, Note_off_c, 0, 66, 36
1, 170945, Note_on_c, 0, 54, 66
1, 171040, Note_off_c, 0, 54, 61
1, 171142, Note_on_c, 0, 66, 51
1, 171201, Note_off_c, 0, 66, 48
1, 171295, Note_on_c, 0, 54, 51
1, 171304, Control_c, 0, 67, 94
1, 171433, Note_off_c, 0, 54, 35
1, 171461, Note_on_c, 0, 66, 43
1, 171507, Note_off_c, 0, 66, 51
1, 171563, Control_c, 0, 67, 95
1, 171578, Control_c, 0, 67, 95
1, 171610, Note_on_c, 0, 54, 44
1, 171637, Control_c, 0, 67, 96
1, 171713, Note_off_c, 0, 54, 51
1, 171725, Control_c, 0, 67, 98
1, 171761, Note_on_c, 0, 66, 44
1, 171786, Control_c, 0, 67, 105
1, 171800, Control_c, 0, 67, 111
1, 171815, Control_c, 0, 67, 115
1, 171831, Control_c, 0, 67, 118
1, 171846, Control_c, 0, 67, 121
1, 171861, Control_c, 0, 67, 124
1, 171880, Note_off_c, 0, 66, 36
1, 171891, Control_c, 0, 67, 126
1, 171931, Note_on_c, 0, 54, 30
1, 172033, Note_off_c, 0, 54, 37
1, 172080, Note_on_c, 0, 66, 40
1, 172144, Note_off_c, 0, 66, 56
1, 172233, Note_on_c, 0, 54, 35
1, 172327, Note_off_c, 0, 54, 49
1, 172376, Note_on_c, 0, 66, 45
1, 172473, Note_off_c, 0, 66, 52
1, 172554, Note_on_c, 0, 54, 38
1, 172667, Note_off_c, 0, 54, 38
1, 172706, Note_on_c, 0, 66, 42
1, 172780, Note_off_c, 0, 66, 46
1, 172867, Note_on_c, 0, 54, 45
1, 172971, Note_off_c, 0, 54, 38
1, 173109, Note_on_c, 0, 67, 61
1, 173115, Note_on_c, 0, 65, 64
1, 173126, Note_on_c, 0, 53, 48
1, 173129, Note_on_c, 0, 55, 50
1, 173415, Note_on_c, 0, 54, 53
1, 173432, Note_off_c, 0, 65, 57
1, 173433, Note_off_c, 0, 53, 56
1, 173433, Note_off_c, 0, 55, 57
1, 173439, Note_off_c, 0, 67, 57
1, 173507, Control_c, 0, 67, 122
1, 173521, Control_c, 0, 67, 116
1, 173536, Control_c, 0, 67, 110
1, 173551, Control_c, 0, 67, 105
1, 173557, Note_off_c, 0, 54, 36
1, 173566, Control_c, 0, 67, 101
1, 173575, Note_on_c, 0, 67, 66
1, 173576, Note_on_c, 0, 65, 65
1, 173581, Control_c, 0, 67, 98
1, 173587, Note_on_c, 0, 55, 54
1, 173587, Note_on_c, 0, 53, 52
1, 173595, Control_c, 0, 67, 95
1, 173610, Control_c, 0, 67, 92
1, 173625, Control_c, 0, 67, 88
1, 173640, Control_c, 0, 67, 85
1, 173655, Control_c, 0, 67, 82
1, 173669, Control_c, 0, 67, 80
1, 173684, Control_c, 0, 67, 77
1, 173699, Control_c, 0, 67, 73
1, 173713, Control_c, 0, 67, 68
1, 173728, Control_c, 0, 67, 63
1, 173743, Control_c, 0, 67, 58
1, 173758, Control_c, 0, 67, 54
1, 173773, Note_on_c, 0, 54, 60
1, 173773, Control_c, 0, 67, 50
1, 173795, Control_c, 0, 67, 44
1, 173798, Note_off_c, 0, 53, 60
1, 173799, Note_off_c, 0, 55, 59
1, 173810, Control_c, 0, 67, 41
1, 173813, Note_off_c, 0, 65, 58
1, 173817, Note_off_c, 0, 67, 59
1, 173825, Control_c, 0, 67, 39
1, 173840, Control_c, 0, 67, 39
1, 173869, Control_c, 0, 67, 38
1, 173884, Control_c, 0, 67, 38
1, 173899, Control_c, 0, 67, 37
1, 173911, Note_off_c, 0, 54, 37
1, 173914, Control_c, 0, 67, 37
1, 173924, Note_on_c, 0, 65, 82
1, 173925, Note_on_c, 0, 67, 77
1, 173928, Control_c, 0, 67, 35
1, 173929, Note_on_c, 0, 53, 64
1, 173930, Note_on_c, 0, 55, 64
1, 173943, Control_c, 0, 67, 32
1, 173958, Control_c, 0, 67, 29
1, 173973, Control_c, 0, 67, 25
1, 173988, Control_c, 0, 67, 21
1, 174002, Control_c, 0, 67, 19
1, 174017, Control_c, 0, 67, 0
1, 174086, Note_on_c, 0, 54, 67
1, 174116, Note_off_c, 0, 55, 59
1, 174117, Note_off_c, 0, 53, 61
1, 174136, Note_off_c, 0, 65, 55
1, 174140, Note_off_c, 0, 67, 55
1, 174181, Control_c, 0, 67, 19
1, 174246, Note_off_c, 0, 54, 35
1, 174253, Note_on_c, 0, 65, 78
1, 174253, Note_on_c, 0, 67, 75
1, 174255, Note_on_c, 0, 53, 67
1, 174255, Note_on_c, 0, 55, 66
1, 174405, Control_c, 0, 67, 22
1, 174410, Note_off_c, 0, 55, 52
1, 174412, Note_off_c, 0, 53, 50
1, 174428, Note_on_c, 0, 54, 58
1, 174449, Control_c, 0, 67, 24
1, 174459, Note_off_c, 0, 65, 37
1, 174469, Note_off_c, 0, 67, 37
1, 174493, Control_c, 0, 67, 26
1, 174508, Control_c, 0, 67, 28
1, 174575, Control_c, 0, 67, 30
1, 174616, Note_on_c, 0, 67, 53
1, 174619, Note_on_c, 0, 65, 51
1, 174619, Control_c, 0, 64, 113
1, 174619, Control_c, 0, 67, 32
1, 174634, Control_c, 0, 64, 89
1, 174634, Control_c, 0, 67, 32
1, 174639, Note_on_c, 0, 53, 49
1, 174639, Note_on_c, 0, 55, 49
1, 174649, Control_c, 0, 64, 77
1, 174649, Control_c, 0, 67, 34
1, 174655, Note_off_c, 0, 54, 36
1, 174664, Control_c, 0, 64, 71
1, 174664, Control_c, 0, 67, 36
1, 174678, Control_c, 0, 64, 69
1, 174678, Control_c, 0, 67, 42
1, 174693, Control_c, 0, 64, 70
1, 174693, Control_c, 0, 67, 48
1, 174708, Control_c, 0, 64, 72
1, 174708, Control_c, 0, 67, 54
1, 174723, Control_c, 0, 64, 77
1, 174723, Control_c, 0, 67, 58
1, 174738, Control_c, 0, 64, 81
1, 174738, Control_c, 0, 67, 63
1, 174752, Control_c, 0, 64, 85
1, 174752, Control_c, 0, 67, 69
1, 174767, Control_c, 0, 64, 86
1, 174767, Control_c, 0, 67, 77
1, 174782, Control_c, 0, 67, 85
1, 174797, Control_c, 0, 67, 93
1, 174802, Note_off_c, 0, 55, 52
1, 174812, Control_c, 0, 67, 98
1, 174818, Note_off_c, 0, 53, 40
1, 174826, Control_c, 0, 67, 100
1, 174836, Note_off_c, 0, 65, 37
1, 174845, Note_on_c, 0, 54, 50
1, 174849, Note_off_c, 0, 67, 37
1, 174870, Control_c, 0, 67, 102
1, 174931, Note_off_c, 0, 54, 42
1, 175004, Control_c, 0, 64, 87
1, 175019, Note_on_c, 0, 67, 43
1, 175020, Control_c, 0, 64, 87
1, 175031, Note_on_c, 0, 65, 43
1, 175035, Control_c, 0, 64, 88
1, 175045, Note_on_c, 0, 53, 32
1, 175045, Note_on_c, 0, 55, 36
1, 175049, Control_c, 0, 64, 88
1, 175064, Control_c, 0, 64, 89
1, 175079, Control_c, 0, 64, 90
1, 175094, Control_c, 0, 64, 91
1, 175109, Control_c, 0, 64, 92
1, 175123, Control_c, 0, 64, 93
1, 175138, Control_c, 0, 64, 94
1, 175153, Control_c, 0, 64, 94
1, 175168, Control_c, 0, 64, 95
1, 175183, Control_c, 0, 67, 100
1, 175198, Control_c, 0, 64, 95
1, 175219, Note_off_c, 0, 65, 35
1, 175229, Note_off_c, 0, 53, 33
1, 175235, Note_off_c, 0, 55, 36
1, 175237, Note_off_c, 0, 67, 29
1, 175268, Note_on_c, 0, 54, 75
1, 175272, Control_c, 0, 67, 97
1, 175368, Control_c, 0, 64, 95
1, 175427, Control_c, 0, 64, 94
1, 175427, Control_c, 0, 67, 101
1, 175442, Control_c, 0, 64, 94
1, 175442, Control_c, 0, 67, 103
1, 175472, Control_c, 0, 64, 93
1, 175487, Control_c, 0, 64, 91
1, 175501, Control_c, 0, 64, 86
1, 175501, Control_c, 0, 67, 108
1, 175514, Note_on_c, 0, 67, 58
1, 175516, Note_on_c, 0, 65, 60
1, 175516, Control_c, 0, 64, 81
1, 175516, Control_c, 0, 67, 110
1, 175530, Control_c, 0, 64, 76
1, 175540, Note_on_c, 0, 55, 37
1, 175541, Note_on_c, 0, 53, 36
1, 175545, Control_c, 0, 64, 73
1, 175560, Control_c, 0, 64, 69
1, 175574, Control_c, 0, 64, 65
1, 175574, Control_c, 0, 67, 108
1, 175589, Control_c, 0, 64, 62
1, 175604, Control_c, 0, 64, 61
1, 175619, Control_c, 0, 64, 62
1, 175619, Control_c, 0, 67, 106
1, 175634, Control_c, 0, 64, 66
1, 175648, Control_c, 0, 64, 70
1, 175663, Control_c, 0, 64, 74
1, 175678, Control_c, 0, 64, 76
1, 175680, Note_off_c, 0, 65, 53
1, 175686, Note_off_c, 0, 67, 54
1, 175693, Control_c, 0, 64, 79
1, 175708, Control_c, 0, 64, 82
1, 175711, Note_off_c, 0, 53, 37
1, 175714, Note_off_c, 0, 55, 36
1, 175722, Control_c, 0, 64, 86
1, 175722, Control_c, 0, 67, 109
1, 175737, Control_c, 0, 64, 90
1, 175752, Control_c, 0, 64, 91
1, 175767, Control_c, 0, 67, 111
1, 175842, Control_c, 0, 64, 90
1, 175857, Control_c, 0, 64, 88
1, 175871, Control_c, 0, 64, 85
1, 175886, Control_c, 0, 64, 80
1, 175901, Control_c, 0, 64, 74
1, 175916, Control_c, 0, 64, 68
1, 175925, Note_on_c, 0, 67, 44
1, 175930, Note_on_c, 0, 65, 44
1, 175931, Control_c, 0, 64, 64
1, 175946, Note_on_c, 0, 55, 26
1, 175946, Control_c, 0, 64, 62
1, 175952, Note_on_c, 0, 53, 30
1, 175961, Control_c, 0, 64, 63
1, 175976, Control_c, 0, 64, 64
1, 175990, Control_c, 0, 64, 68
1, 176005, Control_c, 0, 64, 71
1, 176020, Control_c, 0, 64, 74
1, 176042, Control_c, 0, 64, 77
1, 176057, Control_c, 0, 64, 80
1, 176071, Control_c, 0, 64, 84
1, 176077, Note_off_c, 0, 53, 36
1, 176086, Control_c, 0, 64, 88
1, 176087, Note_off_c, 0, 65, 35
1, 176092, Note_off_c, 0, 55, 33
1, 176098, Note_off_c, 0, 67, 35
1, 176101, Control_c, 0, 64, 90
1, 176220, Control_c, 0, 64, 89
1, 176235, Control_c, 0, 64, 88
1, 176250, Control_c, 0, 64, 88
1, 176264, Control_c, 0, 64, 87
1, 176280, Control_c, 0, 64, 85
1, 176295, Control_c, 0, 64, 81
1, 176310, Control_c, 0, 64, 77
1, 176324, Control_c, 0, 64, 73
1, 176339, Control_c, 0, 64, 69
1, 176350, Note_on_c, 0, 67, 33
1, 176354, Control_c, 0, 64, 65
1, 176369, Note_on_c, 0, 65, 43
1, 176369, Control_c, 0, 64, 61
1, 176375, Note_on_c, 0, 53, 29
1, 176378, Note_on_c, 0, 55, 27
1, 176384, Control_c, 0, 64, 58
1, 176413, Control_c, 0, 64, 60
1, 176413, Control_c, 0, 67, 109
1, 176428, Control_c, 0, 64, 61
1, 176442, Control_c, 0, 64, 64
1, 176457, Control_c, 0, 64, 66
1, 176472, Control_c, 0, 64, 70
1, 176487, Control_c, 0, 64, 74
1, 176502, Control_c, 0, 64, 78
1, 176516, Control_c, 0, 64, 80
1, 176531, Control_c, 0, 64, 82
1, 176538, Note_off_c, 0, 55, 41
1, 176539, Note_off_c, 0, 53, 41
1, 176546, Control_c, 0, 64, 85
1, 176548, Note_off_c, 0, 65, 34
1, 176561, Control_c, 0, 64, 87
1, 176566, Note_off_c, 0, 67, 33
1, 176576, Control_c, 0, 64, 88
1, 176739, Control_c, 0, 64, 87
1, 176754, Control_c, 0, 64, 87
1, 176769, Control_c, 0, 64, 86
1, 176784, Control_c, 0, 64, 85
1, 176807, Control_c, 0, 64, 83
1, 176821, Control_c, 0, 64, 81
1, 176824, Note_on_c, 0, 67, 33
1, 176831, Note_on_c, 0, 65, 36
1, 176836, Control_c, 0, 64, 78
1, 176850, Note_on_c, 0, 53, 23
1, 176851, Control_c, 0, 64, 74
1, 176852, Note_on_c, 0, 55, 27
1, 176866, Control_c, 0, 64, 70
1, 176880, Control_c, 0, 64, 66
1, 176895, Control_c, 0, 64, 65
1, 176910, Control_c, 0, 64, 66
1, 176925, Control_c, 0, 64, 68
1, 176939, Control_c, 0, 64, 70
1, 176954, Control_c, 0, 64, 72
1, 176969, Control_c, 0, 64, 73
1, 176984, Control_c, 0, 64, 74
1, 176999, Control_c, 0, 64, 77
1, 177013, Control_c, 0, 64, 81
1, 177020, Note_off_c, 0, 55, 39
1, 177022, Note_off_c, 0, 53, 40
1, 177028, Control_c, 0, 64, 84
1, 177032, Note_off_c, 0, 65, 39
1, 177043, Control_c, 0, 64, 86
1, 177050, Note_off_c, 0, 67, 40
1, 177058, Control_c, 0, 64, 86
1, 177073, Control_c, 0, 64, 87
1, 177088, Control_c, 0, 64, 87
1, 177103, Control_c, 0, 64, 88
1, 177118, Control_c, 0, 64, 88
1, 177132, Control_c, 0, 64, 89
1, 177162, Control_c, 0, 64, 90
1, 177280, Control_c, 0, 64, 89
1, 177325, Control_c, 0, 64, 89
1, 177354, Control_c, 0, 64, 88
1, 177369, Control_c, 0, 64, 87
1, 177384, Control_c, 0, 64, 86
1, 177399, Control_c, 0, 64, 85
1, 177414, Note_on_c, 0, 67, 27
1, 177415, Control_c, 0, 64, 84
1, 177430, Control_c, 0, 64, 82
1, 177432, Note_on_c, 0, 65, 32
1, 177444, Control_c, 0, 64, 80
1, 177445, Note_on_c, 0, 53, 6
1, 177448, Note_on_c, 0, 55, 15
1, 177459, Control_c, 0, 64, 77
1, 177474, Control_c, 0, 64, 74
1, 177488, Control_c, 0, 64, 71
1, 177503, Control_c, 0, 64, 67
1, 177518, Control_c, 0, 64, 63
1, 177541, Control_c, 0, 64, 58
1, 177556, Control_c, 0, 64, 51
1, 177570, Control_c, 0, 64, 41
1, 177585, Control_c, 0, 64, 0
1, 177688, Control_c, 0, 64, 32
1, 177703, Control_c, 0, 64, 46
1, 177718, Control_c, 0, 64, 55
1, 177733, Control_c, 0, 64, 59
1, 177748, Control_c, 0, 64, 61
1, 177758, Note_off_c, 0, 55, 34
1, 177762, Note_off_c, 0, 53, 37
1, 177763, Control_c, 0, 64, 64
1, 177776, Control_c, 0, 64, 66
1, 177776, Control_c, 0, 67, 107
1, 177791, Control_c, 0, 64, 69
1, 177802, Note_off_c, 0, 67, 36
1, 177805, Note_off_c, 0, 65, 35
1, 177806, Control_c, 0, 64, 72
1, 177821, Control_c, 0, 64, 75
1, 177836, Control_c, 0, 64, 78
1, 177850, Control_c, 0, 64, 83
1, 177865, Control_c, 0, 64, 90
1, 177880, Control_c, 0, 64, 96
1, 177894, Control_c, 0, 64, 104
1, 177909, Control_c, 0, 64, 112
1, 177924, Control_c, 0, 64, 127
1, 177924, Control_c, 0, 67, 105
1, 178062, Note_off_c, 0, 54, 37
1, 178072, Control_c, 0, 67, 103
1, 178096, Note_on_c, 0, 67, 16
1, 178108, Note_on_c, 0, 65, 25
1, 178135, Note_on_c, 0, 55, 11
1, 178143, Note_on_c, 0, 53, 3
1, 178316, Note_off_c, 0, 53, 39
1, 178326, Note_off_c, 0, 55, 36
1, 178332, Control_c, 0, 67, 101
1, 178406, Control_c, 0, 67, 99
1, 178510, Control_c, 0, 67, 101
1, 178629, Control_c, 0, 64, 89
1, 178643, Control_c, 0, 64, 62
1, 178658, Control_c, 0, 64, 0
1, 178670, Note_on_c, 0, 61, 71
1, 178685, Note_on_c, 0, 49, 66
1, 178703, Note_off_c, 0, 65, 49
1, 178736, Note_off_c, 0, 67, 40
1, 178747, Control_c, 0, 64, 37
1, 178762, Control_c, 0, 64, 61
1, 178762, Control_c, 0, 67, 104
1, 178777, Control_c, 0, 64, 69
1, 178791, Control_c, 0, 64, 79
1, 178791, Control_c, 0, 67, 107
1, 178806, Control_c, 0, 64, 84
1, 178821, Control_c, 0, 64, 89
1, 178835, Control_c, 0, 64, 104
1, 178850, Control_c, 0, 64, 127
1, 178880, Control_c, 0, 67, 104
1, 178939, Control_c, 0, 67, 102
1, 178957, Note_off_c, 0, 49, 52
1, 179055, Note_on_c, 0, 65, 26
1, 179079, Note_on_c, 0, 55, 21
1, 179080, Note_on_c, 0, 53, 25
1, 179082, Note_on_c, 0, 67, 11
1, 179154, Note_off_c, 0, 67, 39
1, 179194, Note_off_c, 0, 65, 39
1, 179244, Control_c, 0, 67, 100
1, 179256, Note_off_c, 0, 55, 37
1, 179269, Note_off_c, 0, 53, 39
1, 179452, Control_c, 0, 67, 98
1, 179645, Control_c, 0, 67, 96
1, 179674, Control_c, 0, 67, 95
1, 179800, Control_c, 0, 67, 95
1, 179807, Note_on_c, 0, 67, 22
1, 179812, Note_on_c, 0, 65, 25
1, 179818, Note_on_c, 0, 53, 23
1, 179818, Note_on_c, 0, 55, 24
1, 179831, Control_c, 0, 67, 94
1, 179964, Control_c, 0, 67, 94
1, 180009, Control_c, 0, 67, 93
1, 180061, Note_off_c, 0, 53, 40
1, 180063, Note_off_c, 0, 55, 40
1, 180073, Note_off_c, 0, 67, 42
1, 180092, Note_off_c, 0, 65, 37
1, 180127, Control_c, 0, 67, 93
1, 180142, Control_c, 0, 67, 92
1, 180171, Control_c, 0, 67, 91
1, 180186, Control_c, 0, 67, 86
1, 180201, Control_c, 0, 67, 74
1, 180215, Control_c, 0, 67, 56
1, 180226, Note_on_c, 0, 65, 45
1, 180230, Control_c, 0, 67, 42
1, 180234, Note_off_c, 0, 61, 49
1, 180239, Note_on_c, 0, 55, 26
1, 180240, Note_on_c, 0, 53, 25
1, 180245, Note_on_c, 0, 67, 36
1, 180245, Control_c, 0, 67, 32
1, 180260, Control_c, 0, 67, 23
1, 180275, Control_c, 0, 67, 0
1, 180420, Note_on_c, 0, 61, 89
1, 180432, Note_on_c, 0, 49, 82
1, 180460, Note_off_c, 0, 49, 67
1, 180465, Note_off_c, 0, 65, 59
1, 180478, Note_off_c, 0, 53, 40
1, 180478, Note_off_c, 0, 67, 58
1, 180480, Note_off_c, 0, 55, 41
1, 180665, Note_off_c, 0, 61, 0
1, 180703, Poly_aftertouch_c, 0, 61, 127
1, 180757, Note_on_c, 0, 65, 60
1, 180766, Note_on_c, 0, 53, 62
1, 180767, Note_on_c, 0, 55, 64
1, 180773, Note_on_c, 0, 67, 55
1, 180811, Note_off_c, 0, 67, 56
1, 180815, Poly_aftertouch_c, 0, 61, 0
1, 180823, Note_off_c, 0, 65, 59
1, 180829, Note_off_c, 0, 55, 59
1, 180832, Note_off_c, 0, 53, 60
1, 180846, Control_c, 0, 67, 19
1, 180935, Control_c, 0, 67, 0
1, 181231, Control_c, 0, 67, 19
1, 181401, Note_on_c, 0, 67, 42
1, 181410, Note_on_c, 0, 65, 41
1, 181425, Note_on_c, 0, 53, 34
1, 181425, Note_on_c, 0, 55, 35
1, 181565, Control_c, 0, 67, 21
1, 181672, Note_off_c, 0, 53, 36
1, 181680, Note_off_c, 0, 55, 34
1, 181680, Note_off_c, 0, 67, 40
1, 181696, Note_off_c, 0, 65, 40
1, 181728, Control_c, 0, 67, 19
1, 181743, Control_c, 0, 67, 0
1, 181798, Note_on_c, 0, 67, 37
1, 181801, Note_on_c, 0, 65, 38
1, 181833, Note_on_c, 0, 55, 34
1, 181836, Note_on_c, 0, 53, 37
1, 181861, Control_c, 0, 67, 19
1, 181965, Control_c, 0, 67, 0
1, 182011, Note_off_c, 0, 53, 33
1, 182036, Note_off_c, 0, 55, 40
1, 182060, Note_on_c, 0, 61, 61
1, 182119, Note_on_c, 0, 49, 27
1, 182134, Note_off_c, 0, 67, 43
1, 182168, Note_off_c, 0, 65, 57
1, 182269, Note_off_c, 0, 61, 56
1, 182287, Note_off_c, 0, 49, 43
1, 182425, Note_on_c, 0, 61, 73
1, 182435, Note_on_c, 0, 49, 54
1, 182576, Note_off_c, 0, 61, 58
1, 182595, Note_off_c, 0, 49, 38
1, 182672, Note_on_c, 0, 61, 71
1, 182692, Note_on_c, 0, 49, 63
1, 182744, Note_off_c, 0, 61, 60
1, 182753, Note_off_c, 0, 49, 62
1, 182829, Note_on_c, 0, 61, 86
1, 182837, Note_on_c, 0, 49, 73
1, 182880, Note_off_c, 0, 61, 61
1, 182884, Note_off_c, 0, 49, 60
1, 182973, Note_on_c, 0, 61, 96
1, 182983, Note_on_c, 0, 49, 78
1, 183023, Note_off_c, 0, 61, 61
1, 183026, Note_off_c, 0, 49, 61
1, 183090, Note_on_c, 0, 61, 96
1, 183096, Note_on_c, 0, 49, 87
1, 183130, Note_off_c, 0, 61, 66
1, 183134, Note_off_c, 0, 49, 63
1, 183184, Note_on_c, 0, 61, 97
1, 183196, Note_on_c, 0, 49, 87
1, 183216, Note_off_c, 0, 49, 65
1, 183222, Note_off_c, 0, 61, 59
1, 183260, Note_on_c, 0, 61, 90
1, 183282, Note_on_c, 0, 49, 80
1, 183299, Note_off_c, 0, 61, 66
1, 183309, Note_off_c, 0, 49, 66
1, 183352, Note_on_c, 0, 49, 90
1, 183352, Note_on_c, 0, 61, 101
1, 183374, Control_c, 0, 64, 105
1, 183389, Control_c, 0, 64, 78
1, 183404, Control_c, 0, 64, 71
1, 183419, Control_c, 0, 64, 74
1, 183433, Control_c, 0, 64, 87
1, 183448, Control_c, 0, 64, 127
1, 183589, Control_c, 0, 64, 89
1, 183604, Control_c, 0, 64, 67
1, 183619, Control_c, 0, 64, 49
1, 183633, Control_c, 0, 64, 0
1, 183638, Note_on_c, 0, 67, 71
1, 183640, Note_on_c, 0, 55, 60
1, 183640, Note_on_c, 0, 65, 59
1, 183649, Note_on_c, 0, 53, 66
1, 183707, Control_c, 0, 64, 44
1, 183722, Control_c, 0, 64, 63
1, 183737, Control_c, 0, 64, 74
1, 183751, Control_c, 0, 64, 88
1, 183766, Control_c, 0, 64, 111
1, 183772, Note_off_c, 0, 53, 56
1, 183774, Note_off_c, 0, 67, 58
1, 183776, Note_off_c, 0, 55, 60
1, 183777, Note_off_c, 0, 65, 63
1, 183781, Control_c, 0, 64, 127
1, 183886, Control_c, 0, 67, 21
1, 183901, Control_c, 0, 67, 0
1, 183916, Control_c, 0, 64, 106
1, 183930, Control_c, 0, 64, 81
1, 183930, Control_c, 0, 67, 21
1, 183945, Control_c, 0, 64, 65
1, 183945, Control_c, 0, 67, 24
1, 183960, Control_c, 0, 64, 49
1, 183974, Control_c, 0, 64, 0
1, 184034, Control_c, 0, 64, 38
1, 184034, Control_c, 0, 67, 29
1, 184048, Control_c, 0, 64, 52
1, 184048, Control_c, 0, 67, 36
1, 184063, Control_c, 0, 64, 59
1, 184063, Control_c, 0, 67, 48
1, 184068, Note_on_c, 0, 65, 19
1, 184078, Control_c, 0, 64, 63
1, 184078, Control_c, 0, 67, 63
1, 184080, Note_on_c, 0, 55, 37
1, 184082, Note_on_c, 0, 53, 47
1, 184089, Note_on_c, 0, 67, 37
1, 184093, Control_c, 0, 64, 65
1, 184093, Control_c, 0, 67, 73
1, 184108, Control_c, 0, 64, 68
1, 184108, Control_c, 0, 67, 80
1, 184123, Control_c, 0, 64, 70
1, 184123, Control_c, 0, 67, 85
1, 184138, Control_c, 0, 64, 72
1, 184138, Control_c, 0, 67, 90
1, 184152, Control_c, 0, 64, 74
1, 184152, Control_c, 0, 67, 94
1, 184167, Control_c, 0, 64, 76
1, 184167, Control_c, 0, 67, 97
1, 184182, Control_c, 0, 64, 77
1, 184182, Control_c, 0, 67, 101
1, 184197, Control_c, 0, 67, 104
1, 184197, Note_off_c, 0, 49, 51
1, 184212, Control_c, 0, 67, 108
1, 184227, Control_c, 0, 67, 112
1, 184242, Control_c, 0, 67, 115
1, 184256, Control_c, 0, 67, 120
1, 184278, Control_c, 0, 67, 125
1, 184293, Control_c, 0, 67, 127
1, 184337, Control_c, 0, 64, 76
1, 184352, Control_c, 0, 64, 75
1, 184367, Control_c, 0, 64, 74
1, 184382, Control_c, 0, 64, 73
1, 184397, Control_c, 0, 64, 70
1, 184400, Note_off_c, 0, 61, 27
1, 184409, Note_on_c, 0, 59, 56
1, 184412, Control_c, 0, 64, 68
1, 184427, Control_c, 0, 64, 65
1, 184434, Note_on_c, 0, 47, 40
1, 184436, Note_off_c, 0, 53, 35
1, 184442, Control_c, 0, 64, 63
1, 184456, Control_c, 0, 64, 59
1, 184457, Note_off_c, 0, 55, 31
1, 184471, Control_c, 0, 64, 55
1, 184480, Note_off_c, 0, 65, 50
1, 184486, Control_c, 0, 64, 49
1, 184490, Note_off_c, 0, 67, 42
1, 184501, Control_c, 0, 64, 41
1, 184516, Control_c, 0, 64, 0
1, 184740, Note_on_c, 0, 65, 37
1, 184758, Note_on_c, 0, 53, 33
1, 184761, Note_on_c, 0, 55, 32
1, 184767, Note_on_c, 0, 67, 35
1, 184769, Control_c, 0, 64, 30
1, 184784, Control_c, 0, 64, 48
1, 184798, Control_c, 0, 64, 58
1, 184813, Control_c, 0, 64, 62
1, 184828, Control_c, 0, 64, 65
1, 184843, Control_c, 0, 64, 69
1, 184854, Note_off_c, 0, 47, 65
1, 184858, Control_c, 0, 64, 74
1, 184872, Control_c, 0, 64, 82
1, 184887, Control_c, 0, 64, 89
1, 184902, Control_c, 0, 64, 97
1, 184917, Control_c, 0, 64, 104
1, 184932, Control_c, 0, 64, 107
1, 184950, Note_off_c, 0, 53, 52
1, 184972, Note_off_c, 0, 55, 40
1, 184972, Note_off_c, 0, 67, 37
1, 185043, Control_c, 0, 64, 104
1, 185058, Control_c, 0, 64, 101
1, 185063, Note_off_c, 0, 65, 0
1, 185073, Control_c, 0, 64, 97
1, 185087, Control_c, 0, 64, 93
1, 185100, Poly_aftertouch_c, 0, 65, 127
1, 185102, Control_c, 0, 64, 89
1, 185112, Note_on_c, 0, 67, 42
1, 185115, Note_on_c, 0, 55, 36
1, 185117, Note_on_c, 0, 53, 40
1, 185117, Control_c, 0, 64, 86
1, 185131, Control_c, 0, 64, 83
1, 185146, Control_c, 0, 64, 80
1, 185161, Control_c, 0, 64, 76
1, 185176, Control_c, 0, 64, 74
1, 185185, Note_on_c, 0, 35, 45
1, 185191, Control_c, 0, 64, 73
1, 185205, Control_c, 0, 64, 71
1, 185220, Control_c, 0, 64, 69
1, 185221, Note_off_c, 0, 35, 51
1, 185235, Control_c, 0, 64, 66
1, 185244, Note_off_c, 0, 53, 38
1, 185250, Control_c, 0, 64, 64
1, 185257, Note_off_c, 0, 55, 35
1, 185265, Control_c, 0, 64, 61
1, 185273, Note_off_c, 0, 67, 39
1, 185279, Control_c, 0, 64, 59
1, 185294, Control_c, 0, 64, 58
1, 185309, Control_c, 0, 64, 57
1, 185324, Control_c, 0, 64, 54
1, 185339, Control_c, 0, 64, 52
1, 185345, Poly_aftertouch_c, 0, 65, 0
1, 185347, Note_on_c, 0, 30, 48
1, 185354, Control_c, 0, 64, 51
1, 185369, Control_c, 0, 64, 52
1, 185376, Note_on_c, 0, 67, 35
1, 185383, Poly_aftertouch_c, 0, 65, 127
1, 185388, Note_on_c, 0, 53, 41
1, 185389, Note_on_c, 0, 55, 27
1, 185390, Note_on_c, 0, 65, 3
1, 185390, Note_off_c, 0, 30, 58
1, 185399, Control_c, 0, 64, 52
1, 185404, Poly_aftertouch_c, 0, 42, 127
1, 185414, Control_c, 0, 64, 53
1, 185428, Control_c, 0, 64, 55
1, 185440, Poly_aftertouch_c, 0, 42, 0
1, 185443, Control_c, 0, 64, 56
1, 185473, Control_c, 0, 64, 56
1, 185485, Note_off_c, 0, 53, 47
1, 185488, Control_c, 0, 64, 55
1, 185493, Note_on_c, 0, 35, 54
1, 185503, Control_c, 0, 64, 56
1, 185504, Note_off_c, 0, 55, 37
1, 185518, Control_c, 0, 64, 56
1, 185521, Note_off_c, 0, 67, 41
1, 185524, Note_off_c, 0, 35, 61
1, 185562, Control_c, 0, 64, 55
1, 185586, Note_off_c, 0, 65, 33
1, 185607, Control_c, 0, 64, 55
1, 185621, Control_c, 0, 64, 54
1, 185636, Control_c, 0, 64, 52
1, 185647, Note_on_c, 0, 65, 28
1, 185651, Control_c, 0, 64, 52
1, 185663, Note_on_c, 0, 67, 34
1, 185707, Poly_aftertouch_c, 0, 55, 127
1, 185709, Poly_aftertouch_c, 0, 53, 127
1, 185710, Control_c, 0, 64, 51
1, 185725, Control_c, 0, 64, 51
1, 185803, Poly_aftertouch_c, 0, 53, 0
1, 185804, Note_on_c, 0, 35, 49
1, 185807, Control_c, 0, 64, 50
1, 185808, Poly_aftertouch_c, 0, 55, 0
1, 185812, Note_off_c, 0, 67, 42
1, 185822, Control_c, 0, 64, 50
1, 185833, Note_off_c, 0, 35, 58
1, 185896, Control_c, 0, 64, 50
1, 185910, Control_c, 0, 64, 51
1, 185917, Note_off_c, 0, 65, 0
1, 185925, Control_c, 0, 64, 53
1, 185940, Control_c, 0, 64, 58
1, 185944, Note_on_c, 0, 65, 14
1, 185954, Control_c, 0, 64, 62
1, 185958, Note_on_c, 0, 30, 52
1, 185959, Note_on_c, 0, 67, 30
1, 185967, Note_on_c, 0, 42, 33
1, 185969, Control_c, 0, 64, 63
1, 185970, Note_on_c, 0, 53, 16
1, 185970, Note_on_c, 0, 55, 20
1, 185984, Control_c, 0, 64, 61
1, 185995, Note_off_c, 0, 30, 59
1, 185999, Control_c, 0, 64, 60
1, 186008, Note_off_c, 0, 42, 44
1, 186013, Control_c, 0, 64, 59
1, 186057, Control_c, 0, 64, 58
1, 186072, Control_c, 0, 64, 55
1, 186077, Note_off_c, 0, 53, 38
1, 186086, Note_off_c, 0, 55, 34
1, 186087, Control_c, 0, 64, 54
1, 186098, Note_on_c, 0, 35, 50
1, 186102, Control_c, 0, 64, 54
1, 186117, Control_c, 0, 64, 53
1, 186122, Note_off_c, 0, 67, 35
1, 186128, Note_off_c, 0, 35, 52
1, 186132, Control_c, 0, 64, 53
1, 186147, Control_c, 0, 64, 52
1, 186161, Control_c, 0, 64, 50
1, 186198, Note_off_c, 0, 65, 0
1, 186206, Control_c, 0, 64, 50
1, 186221, Control_c, 0, 64, 50
1, 186236, Poly_aftertouch_c, 0, 65, 127
1, 186236, Control_c, 0, 64, 52
1, 186245, Note_on_c, 0, 67, 25
1, 186248, Note_on_c, 0, 65, 3
1, 186249, Note_on_c, 0, 30, 57
1, 186251, Control_c, 0, 64, 58
1, 186263, Note_on_c, 0, 42, 32
1, 186266, Control_c, 0, 64, 63
1, 186267, Note_on_c, 0, 55, 9
1, 186281, Note_off_c, 0, 30, 62
1, 186281, Control_c, 0, 64, 65
1, 186290, Note_on_c, 0, 53, 3
1, 186296, Control_c, 0, 64, 63
1, 186303, Note_off_c, 0, 42, 46
1, 186311, Control_c, 0, 64, 57
1, 186325, Control_c, 0, 64, 51
1, 186355, Control_c, 0, 64, 55
1, 186369, Control_c, 0, 64, 58
1, 186384, Control_c, 0, 64, 55
1, 186386, Note_on_c, 0, 35, 50
1, 186399, Control_c, 0, 64, 51
1, 186404, Note_off_c, 0, 67, 43
1, 186407, Note_off_c, 0, 53, 43
1, 186411, Note_off_c, 0, 55, 43
1, 186414, Control_c, 0, 64, 50
1, 186417, Note_off_c, 0, 35, 50
1, 186429, Control_c, 0, 64, 51
1, 186430, Note_off_c, 0, 65, 41
1, 186443, Control_c, 0, 64, 52
1, 186458, Control_c, 0, 64, 51
1, 186473, Control_c, 0, 64, 49
1, 186488, Control_c, 0, 64, 48
1, 186503, Control_c, 0, 64, 50
1, 186525, Control_c, 0, 64, 55
1, 186528, Note_on_c, 0, 65, 33
1, 186529, Note_on_c, 0, 67, 43
1, 186540, Control_c, 0, 64, 59
1, 186540, Note_on_c, 0, 55, 31
1, 186547, Note_on_c, 0, 53, 33
1, 186555, Control_c, 0, 64, 58
1, 186570, Control_c, 0, 64, 56
1, 186584, Control_c, 0, 64, 55
1, 186599, Control_c, 0, 64, 56
1, 186614, Control_c, 0, 64, 56
1, 186629, Control_c, 0, 64, 56
1, 186644, Control_c, 0, 64, 52
1, 186658, Control_c, 0, 64, 42
1, 186667, Note_on_c, 0, 35, 63
1, 186673, Control_c, 0, 64, 37
1, 186688, Note_off_c, 0, 67, 52
1, 186688, Control_c, 0, 64, 38
1, 186699, Note_off_c, 0, 35, 62
1, 186702, Note_off_c, 0, 53, 49
1, 186703, Control_c, 0, 64, 43
1, 186704, Note_off_c, 0, 55, 51
1, 186718, Control_c, 0, 64, 41
1, 186732, Note_off_c, 0, 65, 40
1, 186732, Control_c, 0, 64, 32
1, 186747, Control_c, 0, 64, 0
1, 186807, Control_c, 0, 64, 44
1, 186811, Note_on_c, 0, 30, 72
1, 186817, Note_on_c, 0, 65, 38
1, 186818, Note_on_c, 0, 42, 56
1, 186822, Note_on_c, 0, 55, 39
1, 186822, Control_c, 0, 64, 50
1, 186827, Note_on_c, 0, 53, 44
1, 186830, Note_on_c, 0, 67, 40
1, 186836, Note_off_c, 0, 30, 64
1, 186837, Control_c, 0, 64, 51
1, 186844, Note_off_c, 0, 42, 60
1, 186851, Control_c, 0, 64, 51
1, 186866, Control_c, 0, 64, 51
1, 186881, Control_c, 0, 64, 44
1, 186895, Control_c, 0, 64, 0
1, 186940, Control_c, 0, 64, 37
1, 186945, Note_on_c, 0, 35, 77
1, 186955, Control_c, 0, 64, 57
1, 186962, Note_off_c, 0, 53, 55
1, 186966, Note_off_c, 0, 55, 54
1, 186969, Control_c, 0, 64, 56
1, 186972, Note_off_c, 0, 35, 63
1, 186984, Control_c, 0, 64, 48
1, 186996, Note_off_c, 0, 67, 40
1, 187000, Control_c, 0, 64, 36
1, 187015, Control_c, 0, 64, 0
1, 187019, Note_off_c, 0, 65, 40
1, 187030, Control_c, 0, 64, 31
1, 187045, Control_c, 0, 64, 33
1, 187060, Control_c, 0, 64, 0
1, 187097, Note_on_c, 0, 65, 40
1, 187101, Note_on_c, 0, 55, 37
1, 187104, Note_on_c, 0, 67, 46
1, 187105, Note_on_c, 0, 53, 49
1, 187119, Control_c, 0, 64, 32
1, 187134, Control_c, 0, 64, 43
1, 187148, Control_c, 0, 64, 0
1, 187202, Note_on_c, 0, 35, 75
1, 187208, Control_c, 0, 64, 34
1, 187223, Control_c, 0, 64, 44
1, 187232, Note_off_c, 0, 35, 65
1, 187238, Note_off_c, 0, 53, 53
1, 187238, Control_c, 0, 64, 0
1, 187241, Note_off_c, 0, 67, 38
1, 187243, Note_off_c, 0, 55, 51
1, 187288, Note_off_c, 0, 65, 34
1, 187351, Note_on_c, 0, 30, 76
1, 187361, Note_on_c, 0, 42, 64
1, 187363, Control_c, 0, 64, 49
1, 187376, Note_on_c, 0, 65, 36
1, 187378, Control_c, 0, 64, 65
1, 187380, Note_off_c, 0, 30, 68
1, 187381, Note_on_c, 0, 67, 43
1, 187385, Note_on_c, 0, 55, 40
1, 187387, Note_on_c, 0, 53, 44
1, 187390, Note_off_c, 0, 42, 65
1, 187393, Control_c, 0, 64, 72
1, 187422, Control_c, 0, 64, 65
1, 187437, Control_c, 0, 64, 51
1, 187452, Control_c, 0, 64, 0
1, 187486, Note_on_c, 0, 35, 82
1, 187489, Note_off_c, 0, 53, 52
1, 187491, Note_off_c, 0, 55, 51
1, 187509, Note_off_c, 0, 67, 37
1, 187513, Note_off_c, 0, 35, 63
1, 187536, Note_off_c, 0, 65, 40
1, 187541, Control_c, 0, 64, 51
1, 187556, Control_c, 0, 64, 61
1, 187571, Control_c, 0, 64, 51
1, 187586, Control_c, 0, 64, 0
1, 187621, Note_on_c, 0, 30, 77
1, 187621, Note_on_c, 0, 65, 50
1, 187625, Note_on_c, 0, 67, 59
1, 187628, Note_on_c, 0, 55, 52
1, 187628, Note_on_c, 0, 42, 61
1, 187628, Note_on_c, 0, 53, 54
1, 187630, Control_c, 0, 64, 31
1, 187645, Control_c, 0, 64, 46
1, 187652, Note_off_c, 0, 30, 67
1, 187654, Note_off_c, 0, 42, 60
1, 187660, Control_c, 0, 64, 30
1, 187674, Control_c, 0, 64, 0
1, 187704, Control_c, 0, 64, 39
1, 187718, Control_c, 0, 64, 62
1, 187733, Control_c, 0, 64, 64
1, 187748, Control_c, 0, 64, 58
1, 187757, Note_on_c, 0, 35, 72
1, 187763, Control_c, 0, 64, 0
1, 187765, Note_off_c, 0, 53, 51
1, 187767, Note_off_c, 0, 55, 52
1, 187790, Note_off_c, 0, 35, 63
1, 187794, Control_c, 0, 64, 39
1, 187803, Note_off_c, 0, 67, 38
1, 187809, Control_c, 0, 64, 59
1, 187815, Note_off_c, 0, 65, 38
1, 187823, Control_c, 0, 64, 61
1, 187838, Control_c, 0, 64, 53
1, 187853, Control_c, 0, 64, 0
1, 187905, Note_on_c, 0, 53, 59
1, 187906, Note_on_c, 0, 65, 68
1, 187908, Note_on_c, 0, 55, 59
1, 187908, Note_on_c, 0, 67, 65
1, 187941, Control_c, 0, 67, 119
1, 187956, Control_c, 0, 67, 96
1, 187971, Control_c, 0, 67, 73
1, 187986, Control_c, 0, 67, 47
1, 188001, Control_c, 0, 67, 0
1, 188023, Control_c, 0, 64, 56
1, 188038, Control_c, 0, 64, 79
1, 188040, Note_off_c, 0, 67, 62
1, 188046, Note_off_c, 0, 55, 61
1, 188052, Note_off_c, 0, 59, 64
1, 188053, Note_off_c, 0, 65, 65
1, 188053, Control_c, 0, 64, 113
1, 188054, Note_off_c, 0, 53, 63
1, 188068, Control_c, 0, 64, 127
1, 188198, Note_on_c, 0, 47, 77
1, 188237, Note_on_c, 0, 59, 94
1, 188246, Note_on_c, 0, 65, 82
1, 188257, Note_on_c, 0, 67, 70
1, 188264, Note_on_c, 0, 53, 62
1, 188272, Note_on_c, 0, 55, 59
1, 188290, Control_c, 0, 64, 87
1, 188305, Control_c, 0, 64, 72
1, 188320, Control_c, 0, 64, 67
1, 188335, Control_c, 0, 64, 71
1, 188349, Control_c, 0, 64, 83
1, 188364, Control_c, 0, 64, 127
1, 188434, Note_off_c, 0, 53, 62
1, 188436, Note_off_c, 0, 55, 61
1, 188443, Note_off_c, 0, 67, 56
1, 188445, Note_off_c, 0, 59, 62
1, 188455, Note_off_c, 0, 65, 61
1, 188515, Note_on_c, 0, 61, 98
1, 188516, Note_on_c, 0, 49, 83
1, 188527, Note_on_c, 0, 65, 76
1, 188561, Note_off_c, 0, 47, 62
1, 188574, Note_off_c, 0, 49, 64
1, 188576, Note_off_c, 0, 65, 62
1, 188614, Note_off_c, 0, 61, 60
1, 188680, Note_on_c, 0, 50, 96
1, 188689, Note_on_c, 0, 62, 97
1, 188693, Note_on_c, 0, 65, 88
1, 188699, Note_on_c, 0, 53, 83
1, 188700, Note_on_c, 0, 67, 80
1, 188709, Note_on_c, 0, 55, 75
1, 188723, Note_off_c, 0, 50, 65
1, 188758, Note_off_c, 0, 67, 60
1, 188780, Note_off_c, 0, 55, 35
1, 188791, Note_off_c, 0, 53, 61
1, 188806, Note_off_c, 0, 65, 57
1, 188825, Note_off_c, 0, 62, 59
1, 188835, Note_on_c, 0, 49, 105
1, 188839, Note_on_c, 0, 61, 102
1, 188869, Note_off_c, 0, 49, 69
1, 188880, Note_off_c, 0, 61, 70
1, 189089, Note_on_c, 0, 64, 101
1, 189098, Control_c, 0, 64, 105
1, 189100, Note_on_c, 0, 52, 96
1, 189102, Note_on_c, 0, 55, 80
1, 189105, Note_on_c, 0, 65, 80
1, 189110, Note_on_c, 0, 53, 79
1, 189111, Note_on_c, 0, 67, 80
1, 189113, Control_c, 0, 64, 83
1, 189128, Control_c, 0, 64, 68
1, 189143, Control_c, 0, 64, 46
1, 189158, Control_c, 0, 64, 0
1, 189336, Control_c, 0, 64, 43
1, 189351, Control_c, 0, 64, 62
1, 189365, Control_c, 0, 64, 69
1, 189377, Note_off_c, 0, 65, 60
1, 189380, Control_c, 0, 64, 76
1, 189384, Note_off_c, 0, 67, 64
1, 189396, Control_c, 0, 64, 81
1, 189402, Note_off_c, 0, 55, 62
1, 189405, Note_off_c, 0, 53, 60
1, 189426, Control_c, 0, 64, 79
1, 189441, Control_c, 0, 64, 73
1, 189455, Control_c, 0, 64, 65
1, 189470, Control_c, 0, 64, 61
1, 189481, Note_on_c, 0, 67, 80
1, 189483, Note_on_c, 0, 65, 79
1, 189485, Control_c, 0, 64, 63
1, 189491, Note_on_c, 0, 55, 70
1, 189492, Note_on_c, 0, 53, 65
1, 189500, Control_c, 0, 64, 67
1, 189521, Control_c, 0, 64, 71
1, 189536, Control_c, 0, 64, 74
1, 189551, Control_c, 0, 64, 75
1, 189566, Control_c, 0, 64, 76
1, 189581, Control_c, 0, 64, 80
1, 189596, Control_c, 0, 64, 92
1, 189610, Control_c, 0, 64, 127
1, 189687, Note_off_c, 0, 65, 60
1, 189698, Note_off_c, 0, 67, 62
1, 189707, Note_off_c, 0, 55, 60
1, 189711, Note_off_c, 0, 53, 61
1, 189729, Control_c, 0, 64, 118
1, 189744, Control_c, 0, 64, 89
1, 189758, Control_c, 0, 64, 74
1, 189773, Control_c, 0, 64, 67
1, 189788, Control_c, 0, 64, 63
1, 189802, Control_c, 0, 64, 62
1, 189804, Note_on_c, 0, 65, 77
1, 189806, Note_on_c, 0, 67, 74
1, 189807, Note_on_c, 0, 55, 68
1, 189808, Note_on_c, 0, 53, 74
1, 189817, Control_c, 0, 64, 64
1, 189832, Control_c, 0, 64, 68
1, 189847, Control_c, 0, 64, 75
1, 189862, Control_c, 0, 64, 81
1, 189876, Control_c, 0, 64, 87
1, 189891, Control_c, 0, 64, 95
1, 189906, Control_c, 0, 64, 110
1, 189920, Control_c, 0, 64, 127
1, 190007, Note_off_c, 0, 67, 62
1, 190016, Note_off_c, 0, 65, 54
1, 190022, Note_off_c, 0, 55, 62
1, 190023, Note_off_c, 0, 53, 61
1, 190084, Control_c, 0, 64, 101
1, 190099, Control_c, 0, 64, 95
1, 190113, Control_c, 0, 64, 94
1, 190128, Control_c, 0, 64, 95
1, 190143, Control_c, 0, 64, 98
1, 190145, Note_on_c, 0, 67, 63
1, 190150, Note_on_c, 0, 65, 52
1, 190151, Note_on_c, 0, 55, 57
1, 190153, Note_on_c, 0, 53, 52
1, 190158, Control_c, 0, 64, 102
1, 190173, Control_c, 0, 64, 108
1, 190189, Control_c, 0, 64, 116
1, 190204, Control_c, 0, 64, 127
1, 190326, Note_off_c, 0, 65, 60
1, 190327, Note_off_c, 0, 67, 63
1, 190338, Note_off_c, 0, 53, 60
1, 190341, Note_off_c, 0, 55, 63
1, 190482, Note_on_c, 0, 65, 46
1, 190512, Note_off_c, 0, 64, 58
1, 190517, Note_on_c, 0, 53, 47
1, 190517, Note_on_c, 0, 55, 52
1, 190522, Note_on_c, 0, 67, 54
1, 190654, Note_on_c, 0, 62, 88
1, 190657, Note_on_c, 0, 50, 79
1, 190714, Control_c, 0, 64, 113
1, 190729, Control_c, 0, 64, 96
1, 190743, Control_c, 0, 64, 79
1, 190752, Note_off_c, 0, 67, 61
1, 190758, Control_c, 0, 64, 66
1, 190773, Control_c, 0, 64, 50
1, 190788, Control_c, 0, 64, 0
1, 190797, Note_off_c, 0, 52, 53
1, 190830, Note_off_c, 0, 65, 31
1, 190845, Note_off_c, 0, 53, 61
1, 190848, Note_off_c, 0, 55, 63
1, 190862, Control_c, 0, 64, 44
1, 190877, Control_c, 0, 64, 59
1, 190892, Control_c, 0, 64, 67
1, 190907, Control_c, 0, 64, 76
1, 190922, Control_c, 0, 64, 87
1, 190937, Control_c, 0, 64, 98
1, 190951, Control_c, 0, 64, 116
1, 190954, Note_on_c, 0, 65, 57
1, 190958, Note_on_c, 0, 67, 61
1, 190960, Note_on_c, 0, 53, 60
1, 190966, Control_c, 0, 64, 127
1, 190979, Note_on_c, 0, 55, 57
1, 191031, Note_off_c, 0, 55, 0
1, 191068, Note_on_c, 0, 61, 93
1, 191068, Poly_aftertouch_c, 0, 55, 127
1, 191071, Note_on_c, 0, 49, 83
1, 191086, Note_off_c, 0, 67, 59
1, 191093, Control_c, 0, 64, 88
1, 191096, Note_off_c, 0, 65, 63
1, 191108, Control_c, 0, 64, 66
1, 191112, Note_off_c, 0, 53, 55
1, 191122, Control_c, 0, 64, 50
1, 191126, Poly_aftertouch_c, 0, 55, 0
1, 191128, Note_off_c, 0, 62, 61
1, 191136, Note_off_c, 0, 50, 51
1, 191137, Control_c, 0, 64, 48
1, 191152, Control_c, 0, 64, 59
1, 191167, Control_c, 0, 64, 69
1, 191181, Control_c, 0, 64, 84
1, 191196, Control_c, 0, 64, 126
1, 191269, Note_on_c, 0, 65, 35
1, 191286, Note_on_c, 0, 67, 66
1, 191296, Note_off_c, 0, 61, 63
1, 191298, Note_on_c, 0, 55, 52
1, 191301, Note_on_c, 0, 53, 50
1, 191368, Note_off_c, 0, 49, 63
1, 191390, Note_on_c, 0, 47, 81
1, 191395, Note_on_c, 0, 59, 89
1, 191434, Control_c, 0, 64, 91
1, 191448, Control_c, 0, 64, 64
1, 191458, Note_off_c, 0, 65, 50
1, 191461, Note_off_c, 0, 67, 57
1, 191463, Control_c, 0, 64, 0
1, 191477, Note_off_c, 0, 53, 37
1, 191499, Note_off_c, 0, 55, 33
1, 191537, Control_c, 0, 64, 42
1, 191552, Control_c, 0, 64, 62
1, 191566, Control_c, 0, 64, 72
1, 191581, Control_c, 0, 64, 89
1, 191596, Control_c, 0, 64, 127
1, 191626, Note_on_c, 0, 65, 23
1, 191635, Note_on_c, 0, 67, 61
1, 191647, Note_off_c, 0, 59, 62
1, 191658, Note_on_c, 0, 55, 56
1, 191659, Note_on_c, 0, 53, 59
1, 191810, Note_off_c, 0, 47, 56
1, 191873, Note_on_c, 0, 59, 89
1, 191896, Note_on_c, 0, 47, 75
1, 191916, Control_c, 0, 64, 93
1, 191919, Note_off_c, 0, 53, 55
1, 191926, Note_off_c, 0, 67, 61
1, 191930, Control_c, 0, 64, 67
1, 191945, Note_off_c, 0, 65, 50
1, 191945, Control_c, 0, 64, 0
1, 191968, Note_off_c, 0, 55, 41
1, 192108, Control_c, 0, 64, 53
1, 192122, Control_c, 0, 64, 69
1, 192122, Control_c, 0, 67, 19
1, 192137, Control_c, 0, 64, 78
1, 192137, Control_c, 0, 67, 22
1, 192152, Control_c, 0, 64, 90
1, 192152, Control_c, 0, 67, 27
1, 192159, Note_off_c, 0, 47, 64
1, 192167, Control_c, 0, 64, 97
1, 192167, Control_c, 0, 67, 30
1, 192182, Control_c, 0, 64, 111
1, 192182, Control_c, 0, 67, 37
1, 192196, Control_c, 0, 64, 127
1, 192196, Control_c, 0, 67, 48
1, 192211, Control_c, 0, 67, 66
1, 192226, Control_c, 0, 67, 93
1, 192241, Control_c, 0, 67, 127
1, 192329, Control_c, 0, 64, 121
1, 192344, Control_c, 0, 64, 98
1, 192359, Control_c, 0, 64, 89
1, 192374, Control_c, 0, 64, 80
1, 192389, Control_c, 0, 64, 69
1, 192404, Control_c, 0, 64, 58
1, 192418, Control_c, 0, 64, 39
1, 192427, Note_on_c, 0, 21, 58
1, 192433, Control_c, 0, 64, 0
1, 192463, Control_c, 0, 64, 31
1, 192478, Control_c, 0, 64, 49
1, 192493, Control_c, 0, 64, 61
1, 192514, Control_c, 0, 64, 67
1, 192529, Control_c, 0, 64, 72
1, 192544, Control_c, 0, 64, 77
1, 192559, Control_c, 0, 64, 81
1, 192574, Control_c, 0, 64, 86
1, 192576, Note_off_c, 0, 21, 59
1, 192590, Control_c, 0, 64, 93
1, 192605, Control_c, 0, 64, 101
1, 192619, Control_c, 0, 64, 121
1, 192621, Note_on_c, 0, 33, 61
1, 192634, Control_c, 0, 64, 127
1, 192675, Note_off_c, 0, 33, 62
1, 192836, Note_on_c, 0, 69, 35
1, 192842, Note_on_c, 0, 67, 15
1, 192849, Note_on_c, 0, 55, 41
1, 192853, Note_on_c, 0, 57, 44
1, 192934, Note_on_c, 0, 49, 60
1, 192942, Note_off_c, 0, 55, 56
1, 192942, Note_off_c, 0, 57, 55
1, 192963, Note_off_c, 0, 69, 33
1, 192976, Note_off_c, 0, 49, 63
1, 192982, Note_off_c, 0, 67, 42
1, 193261, Note_on_c, 0, 69, 53
1, 193264, Note_on_c, 0, 67, 54
1, 193296, Note_on_c, 0, 57, 30
1, 193306, Note_on_c, 0, 55, 28
1, 193340, Note_off_c, 0, 55, 55
1, 193366, Note_off_c, 0, 57, 56
1, 193407, Note_off_c, 0, 69, 54
1, 193412, Note_off_c, 0, 67, 52
1, 193620, Control_c, 0, 67, 123
1, 193635, Control_c, 0, 67, 120
1, 193644, Note_on_c, 0, 69, 72
1, 193650, Control_c, 0, 67, 117
1, 193665, Control_c, 0, 67, 114
1, 193665, Note_on_c, 0, 67, 52
1, 193686, Note_on_c, 0, 57, 41
1, 193689, Note_on_c, 0, 55, 38
1, 193739, Note_off_c, 0, 55, 50
1, 193756, Note_off_c, 0, 57, 53
1, 193814, Note_off_c, 0, 69, 49
1, 193828, Note_off_c, 0, 67, 37
1, 193857, Control_c, 0, 67, 116
1, 193946, Control_c, 0, 67, 118
1, 194063, Note_on_c, 0, 69, 54
1, 194075, Note_on_c, 0, 67, 41
1, 194123, Note_on_c, 0, 57, 30
1, 194124, Note_on_c, 0, 55, 29
1, 194192, Note_off_c, 0, 55, 52
1, 194199, Note_off_c, 0, 57, 51
1, 194249, Note_off_c, 0, 69, 38
1, 194253, Note_off_c, 0, 67, 37
1, 194473, Control_c, 0, 67, 120
1, 194490, Note_on_c, 0, 69, 43
1, 194496, Note_on_c, 0, 67, 39
1, 194499, Note_off_c, 0, 59, 49
1, 194547, Note_on_c, 0, 55, 25
1, 194553, Note_on_c, 0, 57, 28
1, 194577, Control_c, 0, 67, 122
1, 194681, Control_c, 0, 67, 124
1, 194755, Control_c, 0, 67, 126
1, 194788, Note_on_c, 0, 58, 61
1, 194858, Note_off_c, 0, 57, 37
1, 194860, Note_off_c, 0, 55, 36
1, 194866, Control_c, 0, 64, 116
1, 194866, Note_on_c, 0, 46, 37
1, 194881, Control_c, 0, 64, 107
1, 194896, Control_c, 0, 64, 100
1, 194910, Control_c, 0, 64, 93
1, 194925, Control_c, 0, 64, 87
1, 194940, Control_c, 0, 64, 80
1, 194942, Note_off_c, 0, 69, 39
1, 194955, Control_c, 0, 64, 74
1, 194967, Note_off_c, 0, 67, 36
1, 194970, Control_c, 0, 64, 66
1, 194985, Control_c, 0, 64, 59
1, 195000, Control_c, 0, 64, 48
1, 195015, Control_c, 0, 64, 38
1, 195030, Control_c, 0, 64, 0
1, 195089, Control_c, 0, 64, 31
1, 195104, Control_c, 0, 64, 42
1, 195119, Control_c, 0, 64, 49
1, 195133, Control_c, 0, 64, 54
1, 195148, Control_c, 0, 64, 56
1, 195163, Control_c, 0, 64, 58
1, 195178, Control_c, 0, 64, 60
1, 195193, Control_c, 0, 64, 63
1, 195207, Control_c, 0, 64, 66
1, 195222, Control_c, 0, 64, 68
1, 195237, Control_c, 0, 64, 71
1, 195252, Control_c, 0, 64, 73
1, 195266, Control_c, 0, 64, 74
1, 195281, Control_c, 0, 64, 76
1, 195292, Note_on_c, 0, 69, 26
1, 195294, Note_on_c, 0, 67, 31
1, 195296, Control_c, 0, 64, 79
1, 195311, Control_c, 0, 64, 82
1, 195326, Control_c, 0, 64, 86
1, 195333, Note_on_c, 0, 55, 37
1, 195339, Note_on_c, 0, 57, 38
1, 195340, Control_c, 0, 64, 92
1, 195355, Control_c, 0, 64, 94
1, 195361, Note_off_c, 0, 58, 55
1, 195370, Control_c, 0, 64, 96
1, 195390, Note_off_c, 0, 46, 43
1, 195400, Control_c, 0, 64, 99
1, 195414, Control_c, 0, 64, 104
1, 195429, Control_c, 0, 64, 110
1, 195444, Control_c, 0, 64, 114
1, 195459, Control_c, 0, 64, 117
1, 195474, Control_c, 0, 64, 119
1, 195524, Note_on_c, 0, 58, 69
1, 195537, Note_off_c, 0, 55, 59
1, 195553, Note_on_c, 0, 46, 44
1, 195559, Note_off_c, 0, 57, 47
1, 195578, Note_off_c, 0, 69, 39
1, 195603, Note_off_c, 0, 67, 46
1, 195644, Control_c, 0, 64, 115
1, 195659, Control_c, 0, 64, 113
1, 195703, Control_c, 0, 64, 110
1, 195718, Control_c, 0, 64, 106
1, 195733, Control_c, 0, 64, 99
1, 195739, Note_off_c, 0, 58, 54
1, 195748, Note_on_c, 0, 47, 46
1, 195748, Control_c, 0, 64, 93
1, 195749, Note_on_c, 0, 59, 59
1, 195763, Control_c, 0, 64, 88
1, 195771, Note_off_c, 0, 46, 21
1, 195778, Control_c, 0, 64, 83
1, 195793, Control_c, 0, 64, 78
1, 195808, Control_c, 0, 64, 73
1, 195815, Note_off_c, 0, 47, 55
1, 195823, Control_c, 0, 64, 67
1, 195826, Note_off_c, 0, 59, 58
1, 195837, Note_on_c, 0, 46, 42
1, 195838, Control_c, 0, 64, 62
1, 195852, Control_c, 0, 64, 59
1, 195854, Note_on_c, 0, 58, 71
1, 195867, Control_c, 0, 64, 57
1, 195882, Control_c, 0, 64, 54
1, 195897, Control_c, 0, 64, 50
1, 195912, Control_c, 0, 64, 46
1, 195927, Control_c, 0, 64, 38
1, 195942, Control_c, 0, 64, 30
1, 195945, Note_off_c, 0, 58, 61
1, 195956, Control_c, 0, 64, 0
1, 195972, Note_on_c, 0, 66, 57
1, 195980, Note_off_c, 0, 46, 39
1, 195998, Note_on_c, 0, 54, 33
1, 196294, Note_on_c, 0, 71, 43
1, 196306, Note_on_c, 0, 69, 28
1, 196323, Note_on_c, 0, 57, 36
1, 196327, Note_on_c, 0, 59, 32
1, 196378, Control_c, 0, 64, 34
1, 196393, Control_c, 0, 64, 45
1, 196408, Control_c, 0, 64, 54
1, 196422, Control_c, 0, 64, 61
1, 196437, Control_c, 0, 64, 65
1, 196452, Control_c, 0, 64, 69
1, 196467, Control_c, 0, 64, 72
1, 196481, Control_c, 0, 64, 74
1, 196484, Note_off_c, 0, 54, 56
1, 196496, Control_c, 0, 64, 76
1, 196511, Control_c, 0, 64, 78
1, 196526, Control_c, 0, 64, 80
1, 196538, Note_off_c, 0, 71, 36
1, 196541, Control_c, 0, 64, 81
1, 196543, Note_off_c, 0, 69, 40
1, 196550, Note_off_c, 0, 59, 39
1, 196556, Control_c, 0, 64, 81
1, 196563, Note_off_c, 0, 57, 35
1, 196570, Control_c, 0, 64, 82
1, 196660, Control_c, 0, 64, 81
1, 196675, Control_c, 0, 64, 80
1, 196690, Note_on_c, 0, 71, 42
1, 196690, Control_c, 0, 64, 78
1, 196702, Note_on_c, 0, 69, 26
1, 196704, Control_c, 0, 64, 76
1, 196711, Note_on_c, 0, 59, 14
1, 196718, Note_on_c, 0, 57, 26
1, 196719, Control_c, 0, 64, 74
1, 196734, Control_c, 0, 64, 73
1, 196749, Control_c, 0, 64, 72
1, 196764, Control_c, 0, 64, 71
1, 196778, Control_c, 0, 64, 68
1, 196793, Control_c, 0, 64, 66
1, 196808, Control_c, 0, 64, 64
1, 196817, Note_on_c, 0, 38, 47
1, 196822, Note_off_c, 0, 57, 44
1, 196823, Control_c, 0, 64, 62
1, 196830, Note_off_c, 0, 59, 38
1, 196834, Note_off_c, 0, 71, 46
1, 196837, Control_c, 0, 64, 61
1, 196844, Note_off_c, 0, 38, 53
1, 196845, Note_off_c, 0, 69, 39
1, 196852, Control_c, 0, 64, 60
1, 196867, Control_c, 0, 64, 59
1, 196882, Control_c, 0, 64, 56
1, 196897, Control_c, 0, 64, 54
1, 196911, Control_c, 0, 64, 50
1, 196926, Control_c, 0, 64, 47
1, 196941, Control_c, 0, 64, 44
1, 196956, Control_c, 0, 64, 40
1, 196971, Control_c, 0, 64, 38
1, 196990, Note_on_c, 0, 71, 41
1, 196997, Note_on_c, 0, 33, 44
1, 197008, Control_c, 0, 64, 40
1, 197009, Note_on_c, 0, 69, 31
1, 197023, Control_c, 0, 64, 47
1, 197024, Note_on_c, 0, 59, 21
1, 197025, Note_on_c, 0, 57, 25
1, 197037, Note_off_c, 0, 33, 62
1, 197037, Control_c, 0, 64, 55
1, 197038, Note_on_c, 0, 45, 3
1, 197052, Control_c, 0, 64, 59
1, 197067, Control_c, 0, 64, 60
1, 197076, Note_off_c, 0, 45, 37
1, 197082, Control_c, 0, 64, 60
1, 197111, Control_c, 0, 64, 61
1, 197126, Control_c, 0, 64, 62
1, 197130, Note_off_c, 0, 59, 39
1, 197135, Note_off_c, 0, 57, 38
1, 197141, Control_c, 0, 64, 63
1, 197142, Note_off_c, 0, 69, 41
1, 197143, Note_on_c, 0, 38, 55
1, 197156, Control_c, 0, 64, 63
1, 197158, Note_off_c, 0, 71, 36
1, 197173, Note_off_c, 0, 38, 63
1, 197245, Control_c, 0, 64, 63
1, 197289, Note_on_c, 0, 71, 46
1, 197299, Note_on_c, 0, 69, 42
1, 197325, Note_on_c, 0, 59, 26
1, 197325, Note_on_c, 0, 57, 33
1, 197409, Control_c, 0, 64, 63
1, 197438, Note_on_c, 0, 38, 55
1, 197439, Control_c, 0, 64, 63
1, 197453, Control_c, 0, 64, 62
1, 197462, Note_off_c, 0, 59, 42
1, 197462, Note_off_c, 0, 57, 43
1, 197468, Note_off_c, 0, 38, 63
1, 197468, Control_c, 0, 64, 61
1, 197469, Note_off_c, 0, 71, 35
1, 197482, Note_off_c, 0, 69, 38
1, 197483, Control_c, 0, 64, 58
1, 197498, Control_c, 0, 64, 55
1, 197513, Control_c, 0, 64, 52
1, 197528, Control_c, 0, 64, 48
1, 197543, Control_c, 0, 64, 45
1, 197558, Control_c, 0, 64, 42
1, 197572, Control_c, 0, 64, 41
1, 197582, Note_on_c, 0, 33, 70
1, 197587, Control_c, 0, 64, 44
1, 197592, Note_on_c, 0, 71, 52
1, 197598, Note_on_c, 0, 69, 36
1, 197602, Note_on_c, 0, 59, 20
1, 197602, Control_c, 0, 64, 53
1, 197602, Note_on_c, 0, 45, 42
1, 197604, Note_on_c, 0, 57, 34
1, 197617, Control_c, 0, 64, 61
1, 197624, Note_off_c, 0, 33, 63
1, 197632, Control_c, 0, 64, 67
1, 197636, Note_off_c, 0, 45, 55
1, 197647, Control_c, 0, 64, 69
1, 197661, Control_c, 0, 64, 67
1, 197676, Control_c, 0, 64, 62
1, 197691, Control_c, 0, 64, 57
1, 197706, Control_c, 0, 64, 55
1, 197728, Note_on_c, 0, 38, 63
1, 197735, Control_c, 0, 64, 54
1, 197737, Note_off_c, 0, 71, 37
1, 197740, Note_off_c, 0, 59, 43
1, 197741, Note_off_c, 0, 57, 44
1, 197757, Control_c, 0, 64, 51
1, 197763, Note_off_c, 0, 38, 64
1, 197770, Note_off_c, 0, 69, 31
1, 197772, Control_c, 0, 64, 47
1, 197787, Control_c, 0, 64, 45
1, 197802, Control_c, 0, 64, 46
1, 197817, Control_c, 0, 64, 48
1, 197832, Control_c, 0, 64, 47
1, 197847, Control_c, 0, 64, 47
1, 197876, Control_c, 0, 64, 50
1, 197891, Control_c, 0, 64, 57
1, 197893, Note_on_c, 0, 33, 61
1, 197893, Note_on_c, 0, 71, 44
1, 197897, Note_on_c, 0, 69, 29
1, 197906, Control_c, 0, 64, 64
1, 197912, Note_on_c, 0, 57, 30
1, 197913, Note_on_c, 0, 59, 22
1, 197921, Control_c, 0, 64, 68
1, 197926, Note_off_c, 0, 33, 65
1, 197935, Control_c, 0, 64, 69
1, 197950, Control_c, 0, 64, 64
1, 197965, Control_c, 0, 64, 56
1, 197979, Control_c, 0, 64, 46
1, 197994, Control_c, 0, 64, 39
1, 198009, Control_c, 0, 64, 38
1, 198020, Note_on_c, 0, 38, 61
1, 198022, Note_off_c, 0, 57, 38
1, 198024, Note_off_c, 0, 59, 34
1, 198039, Control_c, 0, 64, 40
1, 198042, Note_off_c, 0, 71, 38
1, 198049, Note_off_c, 0, 38, 64
1, 198053, Control_c, 0, 64, 49
1, 198068, Control_c, 0, 64, 58
1, 198072, Note_off_c, 0, 69, 37
1, 198083, Control_c, 0, 64, 63
1, 198098, Control_c, 0, 64, 60
1, 198113, Control_c, 0, 64, 49
1, 198127, Control_c, 0, 64, 0
1, 198157, Note_on_c, 0, 71, 53
1, 198157, Control_c, 0, 64, 33
1, 198160, Note_on_c, 0, 69, 39
1, 198171, Note_on_c, 0, 57, 35
1, 198171, Note_on_c, 0, 59, 32
1, 198172, Control_c, 0, 64, 52
1, 198188, Control_c, 0, 64, 60
1, 198202, Control_c, 0, 64, 60
1, 198232, Control_c, 0, 64, 62
1, 198247, Control_c, 0, 64, 63
1, 198262, Control_c, 0, 64, 61
1, 198276, Control_c, 0, 64, 51
1, 198291, Control_c, 0, 64, 0
1, 198301, Note_off_c, 0, 59, 47
1, 198303, Note_off_c, 0, 57, 48
1, 198304, Note_on_c, 0, 38, 60
1, 198311, Note_off_c, 0, 71, 43
1, 198336, Note_off_c, 0, 38, 65
1, 198343, Note_off_c, 0, 69, 35
1, 198438, Note_on_c, 0, 71, 57
1, 198439, Note_on_c, 0, 69, 45
1, 198440, Control_c, 0, 64, 55
1, 198443, Note_on_c, 0, 33, 68
1, 198444, Note_on_c, 0, 59, 38
1, 198446, Note_on_c, 0, 57, 46
1, 198455, Note_on_c, 0, 45, 50
1, 198455, Control_c, 0, 64, 66
1, 198470, Control_c, 0, 64, 72
1, 198473, Note_off_c, 0, 33, 66
1, 198483, Note_off_c, 0, 45, 52
1, 198484, Control_c, 0, 64, 77
1, 198506, Control_c, 0, 64, 77
1, 198521, Control_c, 0, 64, 76
1, 198536, Control_c, 0, 64, 71
1, 198551, Control_c, 0, 64, 65
1, 198565, Control_c, 0, 64, 54
1, 198580, Control_c, 0, 64, 32
1, 198583, Note_on_c, 0, 38, 71
1, 198593, Note_off_c, 0, 57, 50
1, 198595, Control_c, 0, 64, 0
1, 198599, Note_off_c, 0, 59, 45
1, 198599, Note_off_c, 0, 71, 52
1, 198610, Note_off_c, 0, 38, 65
1, 198628, Note_off_c, 0, 69, 36
1, 198669, Control_c, 0, 64, 38
1, 198684, Control_c, 0, 64, 54
1, 198699, Control_c, 0, 64, 63
1, 198714, Control_c, 0, 64, 64
1, 198720, Note_on_c, 0, 71, 68
1, 198725, Note_on_c, 0, 69, 55
1, 198729, Control_c, 0, 64, 61
1, 198729, Note_on_c, 0, 59, 43
1, 198732, Note_on_c, 0, 57, 52
1, 198744, Control_c, 0, 64, 58
1, 198758, Control_c, 0, 64, 59
1, 198773, Control_c, 0, 64, 61
1, 198802, Control_c, 0, 64, 56
1, 198817, Control_c, 0, 64, 42
1, 198832, Control_c, 0, 64, 0
1, 198847, Note_on_c, 0, 38, 72
1, 198872, Note_off_c, 0, 57, 55
1, 198874, Note_off_c, 0, 38, 65
1, 198875, Note_off_c, 0, 59, 53
1, 198882, Note_off_c, 0, 71, 58
1, 198893, Note_off_c, 0, 69, 53
1, 198981, Control_c, 0, 64, 44
1, 198991, Note_on_c, 0, 33, 79
1, 198996, Control_c, 0, 64, 63
1, 198997, Note_on_c, 0, 45, 67
1, 198999, Note_on_c, 0, 71, 64
1, 199001, Note_on_c, 0, 57, 58
1, 199002, Note_on_c, 0, 59, 50
1, 199004, Note_on_c, 0, 69, 49
1, 199011, Control_c, 0, 64, 75
1, 199019, Note_off_c, 0, 45, 64
1, 199021, Note_off_c, 0, 33, 67
1, 199025, Control_c, 0, 64, 96
1, 199040, Control_c, 0, 64, 99
1, 199055, Control_c, 0, 64, 86
1, 199070, Control_c, 0, 64, 71
1, 199085, Control_c, 0, 64, 56
1, 199099, Control_c, 0, 64, 0
1, 199106, Note_off_c, 0, 57, 58
1, 199108, Note_off_c, 0, 59, 53
1, 199116, Note_on_c, 0, 38, 75
1, 199123, Note_off_c, 0, 71, 57
1, 199140, Note_off_c, 0, 38, 65
1, 199145, Note_off_c, 0, 69, 46
1, 199233, Control_c, 0, 64, 51
1, 199248, Control_c, 0, 64, 67
1, 199258, Note_on_c, 0, 33, 77
1, 199261, Note_on_c, 0, 71, 57
1, 199264, Note_on_c, 0, 69, 52
1, 199265, Note_on_c, 0, 45, 61
1, 199270, Note_on_c, 0, 57, 48
1, 199270, Control_c, 0, 64, 64
1, 199271, Note_on_c, 0, 59, 34
1, 199285, Control_c, 0, 64, 47
1, 199287, Note_off_c, 0, 45, 62
1, 199291, Note_off_c, 0, 33, 66
1, 199300, Control_c, 0, 64, 0
1, 199373, Note_off_c, 0, 59, 51
1, 199373, Note_off_c, 0, 57, 53
1, 199382, Note_on_c, 0, 38, 74
1, 199393, Note_off_c, 0, 71, 58
1, 199403, Control_c, 0, 64, 47
1, 199407, Note_off_c, 0, 38, 65
1, 199418, Note_off_c, 0, 69, 44
1, 199418, Control_c, 0, 64, 64
1, 199433, Control_c, 0, 64, 61
1, 199447, Control_c, 0, 64, 42
1, 199462, Control_c, 0, 64, 0
1, 199507, Control_c, 0, 64, 52
1, 199522, Note_on_c, 0, 71, 65
1, 199522, Control_c, 0, 64, 67
1, 199524, Note_on_c, 0, 69, 56
1, 199536, Note_on_c, 0, 59, 37
1, 199537, Control_c, 0, 64, 69
1, 199538, Note_on_c, 0, 57, 47
1, 199552, Control_c, 0, 64, 70
1, 199567, Control_c, 0, 64, 70
1, 199582, Control_c, 0, 64, 72
1, 199597, Control_c, 0, 64, 74
1, 199611, Control_c, 0, 64, 76
1, 199626, Control_c, 0, 64, 78
1, 199629, Note_off_c, 0, 57, 62
1, 199631, Note_off_c, 0, 59, 62
1, 199634, Note_on_c, 0, 33, 64
1, 199641, Control_c, 0, 64, 79
1, 199644, Note_off_c, 0, 71, 53
1, 199656, Control_c, 0, 64, 80
1, 199662, Note_off_c, 0, 69, 51
1, 199671, Control_c, 0, 64, 81
1, 199676, Note_off_c, 0, 33, 58
1, 199686, Control_c, 0, 64, 83
1, 199700, Control_c, 0, 64, 85
1, 199715, Control_c, 0, 64, 87
1, 199725, Note_off_c, 0, 66, 0
1, 199730, Control_c, 0, 64, 88
1, 199745, Control_c, 0, 64, 88
1, 199755, Note_on_c, 0, 38, 59
1, 199762, Poly_aftertouch_c, 0, 66, 127
1, 199775, Control_c, 0, 64, 89
1, 199779, Note_on_c, 0, 71, 68
1, 199787, Note_on_c, 0, 69, 63
1, 199790, Control_c, 0, 64, 92
1, 199794, Note_on_c, 0, 59, 47
1, 199796, Note_on_c, 0, 57, 58
1, 199796, Note_off_c, 0, 38, 63
1, 199805, Control_c, 0, 64, 96
1, 199820, Control_c, 0, 64, 104
1, 199832, Note_off_c, 0, 69, 49
1, 199835, Control_c, 0, 64, 111
1, 199837, Note_off_c, 0, 57, 61
1, 199838, Note_off_c, 0, 59, 59
1, 199849, Control_c, 0, 64, 118
1, 199850, Note_off_c, 0, 71, 57
1, 199864, Control_c, 0, 64, 127
1, 199877, Poly_aftertouch_c, 0, 66, 0
1, 199888, Note_on_c, 0, 45, 72
1, 199917, Note_off_c, 0, 45, 65
1, 200023, Note_on_c, 0, 50, 64
1, 200023, Note_on_c, 0, 66, 59
1, 200025, Note_on_c, 0, 71, 66
1, 200031, Note_on_c, 0, 69, 55
1, 200038, Note_on_c, 0, 59, 47
1, 200044, Note_on_c, 0, 57, 60
1, 200050, Note_off_c, 0, 50, 64
1, 200070, Note_off_c, 0, 57, 65
1, 200071, Note_off_c, 0, 69, 62
1, 200073, Note_off_c, 0, 59, 65
1, 200079, Note_off_c, 0, 71, 62
1, 200091, Note_off_c, 0, 66, 61
1, 200145, Note_on_c, 0, 38, 72
1, 200175, Note_off_c, 0, 38, 66
1, 200265, Note_on_c, 0, 45, 72
1, 200278, Note_on_c, 0, 71, 69
1, 200280, Note_on_c, 0, 66, 61
1, 200285, Note_on_c, 0, 69, 54
1, 200288, Note_on_c, 0, 59, 52
1, 200289, Note_on_c, 0, 57, 59
1, 200292, Note_off_c, 0, 45, 66
1, 200307, Note_off_c, 0, 59, 65
1, 200310, Note_off_c, 0, 66, 64
1, 200315, Note_off_c, 0, 57, 64
1, 200319, Note_off_c, 0, 69, 65
1, 200330, Note_off_c, 0, 71, 61
1, 200375, Note_on_c, 0, 50, 85
1, 200407, Note_off_c, 0, 50, 63
1, 200449, Control_c, 0, 67, 124
1, 200463, Control_c, 0, 67, 119
1, 200478, Control_c, 0, 67, 104
1, 200493, Control_c, 0, 67, 83
1, 200503, Note_on_c, 0, 57, 93
1, 200508, Control_c, 0, 67, 67
1, 200512, Note_on_c, 0, 71, 79
1, 200515, Note_on_c, 0, 69, 76
1, 200522, Control_c, 0, 67, 58
1, 200537, Note_off_c, 0, 57, 67
1, 200537, Control_c, 0, 67, 55
1, 200540, Note_off_c, 0, 69, 65
1, 200552, Control_c, 0, 67, 55
1, 200553, Note_off_c, 0, 71, 64
1, 200567, Control_c, 0, 67, 54
1, 200643, Note_on_c, 0, 45, 87
1, 200657, Control_c, 0, 67, 51
1, 200669, Note_off_c, 0, 45, 66
1, 200671, Control_c, 0, 67, 41
1, 200686, Control_c, 0, 67, 22
1, 200701, Control_c, 0, 67, 0
1, 200712, Note_on_c, 0, 57, 88
1, 200735, Note_off_c, 0, 57, 68
1, 200774, Note_on_c, 0, 57, 79
1, 200794, Note_off_c, 0, 57, 72
1, 200828, Note_on_c, 0, 69, 73
1, 200853, Note_off_c, 0, 69, 67
1, 200881, Note_on_c, 0, 45, 93
1, 200904, Note_off_c, 0, 45, 71
1, 200949, Note_on_c, 0, 57, 85
1, 200989, Note_on_c, 0, 55, 60
1, 201008, Note_off_c, 0, 55, 64
1, 201018, Note_off_c, 0, 57, 63
1, 201030, Note_on_c, 0, 69, 84
1, 201054, Note_off_c, 0, 69, 68
1, 201095, Note_on_c, 0, 69, 93
1, 201141, Note_off_c, 0, 69, 61
1, 201171, Note_on_c, 0, 81, 93
1, 201203, Note_off_c, 0, 81, 60
1, 201213, Note_on_c, 0, 57, 99
1, 201251, Note_off_c, 0, 57, 63
1, 201277, Note_on_c, 0, 69, 88
1, 201346, Note_off_c, 0, 69, 71
1, 201373, Note_on_c, 0, 76, 50
1, 201378, Note_on_c, 0, 81, 89
1, 201399, Note_off_c, 0, 76, 55
1, 201409, Note_off_c, 0, 81, 69
1, 201443, Note_on_c, 0, 81, 107
1, 201488, Note_off_c, 0, 81, 68
1, 201537, Note_on_c, 0, 93, 89
1, 201558, Note_on_c, 0, 69, 99
1, 201561, Note_off_c, 0, 93, 66
1, 201594, Note_off_c, 0, 69, 68
1, 201635, Note_on_c, 0, 81, 98
1, 201682, Note_on_c, 0, 88, 7
1, 201683, Note_on_c, 0, 79, 87
1, 201683, Note_off_c, 0, 79, 127
1, 201683, Note_on_c, 0, 92, 23
1, 201716, Note_off_c, 0, 81, 67
1, 201725, Note_off_c, 0, 92, 44
1, 201731, Note_on_c, 0, 93, 94
1, 201736, Note_off_c, 0, 88, 65
1, 201769, Note_off_c, 0, 93, 70
1, 201807, Note_on_c, 0, 93, 108
1, 201835, Note_off_c, 0, 93, 69
1, 201879, Note_on_c, 0, 107, 104
1, 201883, Note_on_c, 0, 105, 99
1, 201905, Note_off_c, 0, 105, 67
1, 201913, Note_off_c, 0, 107, 64
1, 201972, Note_on_c, 0, 69, 99
1, 202004, Note_off_c, 0, 69, 66
1, 202071, Note_on_c, 0, 81, 83
1, 202077, Note_on_c, 0, 83, 90
1, 202123, Note_on_c, 0, 86, 84
1, 202135, Note_off_c, 0, 83, 65
1, 202136, Note_off_c, 0, 81, 64
1, 202172, Note_on_c, 0, 90, 98
1, 202196, Note_off_c, 0, 86, 66
1, 202223, Note_off_c, 0, 90, 70
1, 202225, Note_on_c, 0, 93, 87
1, 202270, Note_on_c, 0, 92, 5
1, 202270, Note_off_c, 0, 92, 127
1, 202271, Note_on_c, 0, 95, 112
1, 202285, Note_off_c, 0, 93, 68
1, 202321, Note_off_c, 0, 95, 71
1, 202527, Note_on_c, 0, 81, 93
1, 202591, Note_off_c, 0, 81, 60
1, 202616, Note_on_c, 0, 97, 90
1, 202648, Note_off_c, 0, 97, 68
1, 202653, Note_on_c, 0, 81, 45
1, 202667, Note_on_c, 0, 95, 89
1, 202700, Note_on_c, 0, 94, 94
1, 202716, Note_off_c, 0, 95, 66
1, 202733, Note_off_c, 0, 81, 62
1, 202738, Note_off_c, 0, 94, 67
1, 202754, Note_on_c, 0, 95, 89
1, 202757, Note_on_c, 0, 93, 57
1, 202783, Note_on_c, 0, 69, 83
1, 202787, Note_off_c, 0, 93, 49
1, 202792, Note_off_c, 0, 95, 69
1, 202833, Note_on_c, 0, 80, 39
1, 202833, Note_off_c, 0, 80, 127
1, 202852, Note_on_c, 0, 75, 84
1, 202916, Note_on_c, 0, 78, 53
1, 202919, Note_on_c, 0, 79, 95
1, 202919, Note_off_c, 0, 75, 67
1, 202938, Note_off_c, 0, 78, 61
1, 202957, Note_on_c, 0, 82, 102
1, 202967, Note_off_c, 0, 79, 64
1, 202976, Note_off_c, 0, 69, 59
1, 203021, Note_off_c, 0, 82, 65
1, 203034, Note_on_c, 0, 86, 84
1, 203078, Note_on_c, 0, 91, 81
1, 203103, Note_on_c, 0, 89, 43
1, 203119, Note_off_c, 0, 86, 61
1, 203132, Note_off_c, 0, 89, 58
1, 203141, Note_on_c, 0, 94, 105
1, 203160, Note_off_c, 0, 91, 65
1, 203184, Note_on_c, 0, 98, 104
1, 203186, Note_off_c, 0, 94, 71
1, 203388, Note_on_c, 0, 93, 83
1, 203394, Note_off_c, 0, 98, 64
1, 203435, Note_off_c, 0, 93, 65
1, 203564, Note_on_c, 0, 81, 84
1, 203612, Note_off_c, 0, 81, 62
1, 203615, Note_on_c, 0, 76, 78
1, 203651, Note_on_c, 0, 79, 78
1, 203683, Note_on_c, 0, 83, 94
1, 203739, Note_on_c, 0, 85, 83
1, 203752, Note_off_c, 0, 83, 64
1, 203779, Note_on_c, 0, 91, 85
1, 203816, Note_off_c, 0, 85, 62
1, 203824, Note_on_c, 0, 95, 83
1, 203836, Note_off_c, 0, 91, 67
1, 203844, Note_on_c, 0, 94, 40
1, 203852, Note_off_c, 0, 79, 63
1, 203855, Note_on_c, 0, 97, 99
1, 203862, Note_off_c, 0, 94, 37
1, 203864, Note_off_c, 0, 95, 65
1, 203876, Note_off_c, 0, 76, 60
1, 203883, Note_off_c, 0, 97, 70
1, 203891, Note_on_c, 0, 69, 75
1, 203948, Note_off_c, 0, 69, 52
1, 204006, Note_on_c, 0, 66, 70
1, 204017, Note_on_c, 0, 74, 84
1, 204022, Note_on_c, 0, 71, 74
1, 204076, Note_off_c, 0, 74, 63
1, 204081, Note_on_c, 0, 78, 78
1, 204104, Note_on_c, 0, 83, 81
1, 204114, Note_off_c, 0, 71, 61
1, 204122, Note_off_c, 0, 66, 61
1, 204133, Note_on_c, 0, 86, 79
1, 204135, Note_off_c, 0, 78, 65
1, 204165, Note_off_c, 0, 83, 68
1, 204175, Note_on_c, 0, 90, 107
1, 204176, Note_off_c, 0, 86, 67
1, 204212, Note_off_c, 0, 90, 69
1, 204358, Note_on_c, 0, 57, 82
1, 204463, Note_on_c, 0, 91, 79
1, 204500, Note_on_c, 0, 69, 71
1, 204514, Note_off_c, 0, 91, 66
1, 204516, Note_on_c, 0, 90, 91
1, 204548, Note_off_c, 0, 90, 68
1, 204559, Note_on_c, 0, 89, 88
1, 204578, Note_off_c, 0, 57, 59
1, 204603, Note_on_c, 0, 90, 99
1, 204615, Note_on_c, 0, 63, 27
1, 204615, Note_off_c, 0, 89, 67
1, 204624, Note_off_c, 0, 69, 56
1, 204637, Note_off_c, 0, 90, 69
1, 204655, Note_off_c, 0, 63, 54
1, 204669, Note_on_c, 0, 57, 87
1, 204736, Note_on_c, 0, 60, 85
1, 204795, Note_on_c, 0, 63, 89
1, 204811, Note_off_c, 0, 60, 64
1, 204837, Note_on_c, 0, 67, 82
1, 204837, Note_off_c, 0, 63, 68
1, 204880, Note_off_c, 0, 57, 63
1, 204908, Note_off_c, 0, 67, 64
1, 204910, Note_on_c, 0, 83, 90
1, 204950, Note_on_c, 0, 87, 89
1, 204995, Note_off_c, 0, 83, 61
1, 205010, Note_on_c, 0, 91, 86
1, 205023, Note_on_c, 0, 89, 70
1, 205036, Note_off_c, 0, 87, 67
1, 205046, Note_off_c, 0, 89, 39
1, 205054, Note_on_c, 0, 95, 102
1, 205073, Note_off_c, 0, 91, 64
1, 205222, Note_off_c, 0, 95, 55
1, 205304, Note_on_c, 0, 81, 76
1, 205345, Note_off_c, 0, 81, 61
1, 205508, Note_on_c, 0, 69, 67
1, 205572, Note_off_c, 0, 69, 62
1, 205573, Note_on_c, 0, 61, 69
1, 205624, Note_on_c, 0, 65, 71
1, 205653, Note_off_c, 0, 61, 59
1, 205681, Note_on_c, 0, 68, 83
1, 205741, Note_on_c, 0, 81, 74
1, 205771, Note_off_c, 0, 68, 64
1, 205774, Note_on_c, 0, 85, 80
1, 205812, Note_on_c, 0, 89, 80
1, 205815, Note_off_c, 0, 81, 63
1, 205837, Note_off_c, 0, 85, 65
1, 205868, Note_off_c, 0, 89, 67
1, 205869, Note_on_c, 0, 93, 86
1, 205880, Note_off_c, 0, 65, 52
1, 205910, Note_off_c, 0, 93, 67
1, 205919, Note_on_c, 0, 57, 63
1, 206011, Note_on_c, 0, 62, 69
1, 206074, Note_on_c, 0, 66, 69
1, 206088, Note_on_c, 0, 69, 81
1, 206113, Control_c, 0, 64, 91
1, 206128, Control_c, 0, 64, 67
1, 206143, Control_c, 0, 64, 56
1, 206157, Control_c, 0, 64, 57
1, 206166, Note_on_c, 0, 71, 76
1, 206173, Control_c, 0, 64, 63
1, 206177, Note_off_c, 0, 62, 56
1, 206188, Control_c, 0, 64, 72
1, 206199, Note_on_c, 0, 74, 82
1, 206203, Control_c, 0, 64, 92
1, 206207, Note_off_c, 0, 69, 60
1, 206217, Control_c, 0, 64, 127
1, 206240, Note_off_c, 0, 71, 58
1, 206253, Note_on_c, 0, 78, 89
1, 206256, Note_off_c, 0, 57, 61
1, 206268, Note_off_c, 0, 66, 62
1, 206282, Note_off_c, 0, 74, 63
1, 206301, Note_off_c, 0, 78, 70
1, 206304, Note_on_c, 0, 83, 102
1, 206432, Note_off_c, 0, 83, 66
1, 206503, Note_on_c, 0, 57, 84
1, 206614, Note_off_c, 0, 57, 59
1, 206622, Note_on_c, 0, 45, 74
1, 206665, Note_on_c, 0, 85, 80
1, 206681, Note_off_c, 0, 45, 64
1, 206701, Note_off_c, 0, 85, 64
1, 206725, Note_on_c, 0, 57, 79
1, 206725, Note_on_c, 0, 83, 81
1, 206760, Note_off_c, 0, 57, 69
1, 206778, Note_on_c, 0, 82, 85
1, 206781, Note_off_c, 0, 83, 67
1, 206827, Note_on_c, 0, 83, 95
1, 206843, Note_off_c, 0, 82, 63
1, 206867, Note_off_c, 0, 83, 68
1, 206918, Note_on_c, 0, 63, 39
1, 206921, Note_on_c, 0, 67, 82
1, 206931, Note_on_c, 0, 62, 57
1, 206950, Note_off_c, 0, 63, 34
1, 206953, Note_off_c, 0, 62, 60
1, 206992, Note_on_c, 0, 70, 94
1, 206998, Note_off_c, 0, 67, 64
1, 207031, Note_off_c, 0, 70, 67
1, 207055, Note_on_c, 0, 78, 91
1, 207102, Note_on_c, 0, 82, 89
1, 207126, Note_off_c, 0, 78, 62
1, 207141, Note_on_c, 0, 85, 88
1, 207169, Note_off_c, 0, 82, 63
1, 207196, Note_on_c, 0, 90, 103
1, 207210, Note_off_c, 0, 85, 61
1, 207358, Note_off_c, 0, 90, 49
1, 207432, Note_on_c, 0, 81, 82
1, 207470, Note_off_c, 0, 81, 60
1, 207657, Note_on_c, 0, 69, 68
1, 207717, Note_off_c, 0, 69, 61
1, 207734, Note_on_c, 0, 64, 49
1, 207772, Note_on_c, 0, 67, 54
1, 207809, Note_on_c, 0, 71, 72
1, 207833, Control_c, 0, 67, 19
1, 207848, Control_c, 0, 67, 23
1, 207863, Control_c, 0, 67, 27
1, 207877, Control_c, 0, 67, 31
1, 207892, Control_c, 0, 67, 37
1, 207897, Note_on_c, 0, 73, 69
1, 207907, Control_c, 0, 67, 46
1, 207919, Note_off_c, 0, 71, 58
1, 207922, Control_c, 0, 67, 57
1, 207937, Control_c, 0, 67, 69
1, 207943, Note_on_c, 0, 79, 66
1, 207952, Control_c, 0, 67, 77
1, 207967, Control_c, 0, 67, 82
1, 207973, Note_off_c, 0, 73, 59
1, 207982, Note_off_c, 0, 67, 57
1, 207982, Control_c, 0, 67, 86
1, 207984, Note_on_c, 0, 83, 73
1, 207996, Control_c, 0, 67, 89
1, 208008, Note_off_c, 0, 64, 58
1, 208009, Note_off_c, 0, 79, 65
1, 208011, Control_c, 0, 67, 91
1, 208018, Note_on_c, 0, 85, 86
1, 208026, Control_c, 0, 67, 92
1, 208038, Note_off_c, 0, 83, 65
1, 208041, Control_c, 0, 67, 94
1, 208056, Control_c, 0, 67, 95
1, 208071, Note_off_c, 0, 85, 68
1, 208074, Note_on_c, 0, 57, 66
1, 208085, Control_c, 0, 67, 98
1, 208100, Control_c, 0, 67, 101
1, 208114, Control_c, 0, 67, 105
1, 208116, Note_off_c, 0, 57, 56
1, 208129, Control_c, 0, 67, 108
1, 208144, Control_c, 0, 67, 111
1, 208159, Control_c, 0, 67, 114
1, 208174, Control_c, 0, 67, 116
1, 208188, Control_c, 0, 67, 119
1, 208203, Control_c, 0, 67, 123
1, 208218, Control_c, 0, 67, 125
1, 208250, Note_on_c, 0, 50, 57
1, 208256, Control_c, 0, 67, 127
1, 208286, Note_on_c, 0, 54, 59
1, 208324, Note_on_c, 0, 57, 66
1, 208403, Note_on_c, 0, 59, 71
1, 208441, Note_on_c, 0, 62, 66
1, 208477, Control_c, 0, 64, 89
1, 208492, Control_c, 0, 64, 69
1, 208502, Note_off_c, 0, 57, 38
1, 208507, Control_c, 0, 64, 60
1, 208509, Note_on_c, 0, 66, 77
1, 208521, Control_c, 0, 64, 59
1, 208536, Control_c, 0, 64, 64
1, 208551, Control_c, 0, 64, 71
1, 208555, Note_off_c, 0, 62, 60
1, 208564, Note_on_c, 0, 71, 84
1, 208567, Control_c, 0, 64, 82
1, 208572, Note_off_c, 0, 59, 43
1, 208582, Control_c, 0, 64, 95
1, 208597, Control_c, 0, 64, 108
1, 208600, Note_off_c, 0, 54, 60
1, 208603, Note_off_c, 0, 50, 58
1, 208608, Note_off_c, 0, 66, 62
1, 208612, Control_c, 0, 64, 127
1, 208656, Control_c, 0, 67, 125
1, 208837, Note_off_c, 0, 71, 66
1, 208869, Note_on_c, 0, 45, 51
1, 208995, Note_off_c, 0, 45, 58
1, 209017, Note_on_c, 0, 33, 43
1, 209063, Control_c, 0, 67, 123
1, 209107, Note_off_c, 0, 33, 61
1, 209115, Note_on_c, 0, 73, 62
1, 209148, Note_on_c, 0, 45, 61
1, 209181, Note_off_c, 0, 45, 65
1, 209189, Note_on_c, 0, 71, 65
1, 209197, Note_off_c, 0, 73, 57
1, 209226, Control_c, 0, 67, 121
1, 209245, Note_off_c, 0, 71, 65
1, 209247, Note_on_c, 0, 70, 77
1, 209293, Note_on_c, 0, 71, 76
1, 209299, Note_off_c, 0, 70, 63
1, 209347, Note_on_c, 0, 51, 75
1, 209348, Note_off_c, 0, 71, 66
1, 209389, Note_on_c, 0, 55, 74
1, 209389, Note_off_c, 0, 51, 64
1, 209430, Note_on_c, 0, 58, 83
1, 209434, Note_off_c, 0, 55, 62
1, 209485, Note_off_c, 0, 58, 65
1, 209503, Note_on_c, 0, 66, 73
1, 209564, Note_on_c, 0, 70, 80
1, 209594, Note_off_c, 0, 66, 59
1, 209616, Note_on_c, 0, 73, 77
1, 209653, Note_off_c, 0, 70, 61
1, 209674, Note_on_c, 0, 78, 93
1, 209714, Note_off_c, 0, 73, 60
1, 209891, Note_off_c, 0, 78, 61
1, 210029, Note_on_c, 0, 69, 59
1, 210065, Control_c, 0, 67, 123
1, 210091, Note_off_c, 0, 69, 59
1, 210239, Note_on_c, 0, 57, 52
1, 210289, Note_off_c, 0, 57, 60
1, 210313, Note_on_c, 0, 52, 52
1, 210349, Note_on_c, 0, 55, 48
1, 210375, Note_on_c, 0, 59, 61
1, 210450, Control_c, 0, 64, 118
1, 210465, Control_c, 0, 64, 106
1, 210473, Note_on_c, 0, 61, 57
1, 210488, Control_c, 0, 64, 97
1, 210503, Control_c, 0, 64, 93
1, 210517, Control_c, 0, 64, 90
1, 210530, Note_on_c, 0, 67, 64
1, 210532, Control_c, 0, 64, 86
1, 210547, Control_c, 0, 64, 79
1, 210562, Control_c, 0, 64, 71
1, 210577, Control_c, 0, 64, 64
1, 210591, Control_c, 0, 64, 56
1, 210601, Note_on_c, 0, 71, 70
1, 210606, Control_c, 0, 64, 51
1, 210621, Control_c, 0, 64, 47
1, 210635, Control_c, 0, 64, 47
1, 210640, Note_on_c, 0, 73, 72
1, 210650, Control_c, 0, 64, 48
1, 210665, Control_c, 0, 64, 51
1, 210671, Note_off_c, 0, 59, 39
1, 210680, Control_c, 0, 64, 56
1, 210695, Control_c, 0, 64, 62
1, 210709, Control_c, 0, 64, 66
1, 210724, Control_c, 0, 64, 70
1, 210725, Note_off_c, 0, 52, 38
1, 210739, Control_c, 0, 64, 74
1, 210754, Control_c, 0, 64, 78
1, 210754, Note_off_c, 0, 55, 38
1, 210769, Control_c, 0, 64, 81
1, 210775, Note_on_c, 0, 45, 42
1, 210783, Control_c, 0, 64, 84
1, 210798, Control_c, 0, 64, 88
1, 210799, Note_off_c, 0, 71, 48
1, 210813, Control_c, 0, 64, 92
1, 210821, Note_off_c, 0, 45, 60
1, 210827, Note_off_c, 0, 61, 36
1, 210828, Control_c, 0, 64, 98
1, 210842, Control_c, 0, 64, 104
1, 210857, Control_c, 0, 64, 107
1, 210929, Note_off_c, 0, 67, 42
1, 211006, Control_c, 0, 64, 109
1, 211063, Note_off_c, 0, 73, 53
1, 211064, Note_on_c, 0, 33, 41
1, 211169, Control_c, 0, 64, 111
1, 211284, Note_on_c, 0, 45, 47
1, 211295, Control_c, 0, 64, 113
1, 211308, Note_off_c, 0, 33, 36
1, 211339, Control_c, 0, 64, 116
1, 211369, Control_c, 0, 64, 122
1, 211384, Control_c, 0, 64, 127
1, 211401, Note_off_c, 0, 45, 37
1, 211443, Note_on_c, 0, 57, 56
1, 211487, Control_c, 0, 67, 121
1, 211532, Control_c, 0, 67, 119
1, 211606, Control_c, 0, 67, 116
1, 211613, Note_on_c, 0, 69, 62
1, 211613, Note_off_c, 0, 57, 51
1, 211778, Note_off_c, 0, 69, 57
1, 211786, Note_on_c, 0, 57, 55
1, 211833, Note_off_c, 0, 57, 57
1, 211937, Note_on_c, 0, 45, 59
1, 212029, Control_c, 0, 67, 114
1, 212080, Note_off_c, 0, 45, 58
1, 212114, Note_on_c, 0, 33, 49
1, 212118, Control_c, 0, 67, 110
1, 212133, Control_c, 0, 67, 107
1, 212148, Control_c, 0, 67, 101
1, 212162, Control_c, 0, 67, 94
1, 212177, Control_c, 0, 67, 87
1, 212192, Control_c, 0, 67, 81
1, 212207, Control_c, 0, 67, 75
1, 212222, Control_c, 0, 67, 68
1, 212229, Note_off_c, 0, 33, 60
1, 212237, Control_c, 0, 67, 62
1, 212252, Control_c, 0, 67, 54
1, 212253, Note_on_c, 0, 45, 53
1, 212267, Control_c, 0, 67, 47
1, 212281, Control_c, 0, 67, 40
1, 212287, Note_off_c, 0, 45, 66
1, 212296, Control_c, 0, 67, 35
1, 212311, Control_c, 0, 67, 31
1, 212326, Control_c, 0, 67, 29
1, 212341, Control_c, 0, 67, 27
1, 212355, Control_c, 0, 67, 25
1, 212407, Note_on_c, 0, 57, 63
1, 212465, Note_off_c, 0, 57, 61
1, 212474, Note_on_c, 0, 54, 70
1, 212531, Note_on_c, 0, 58, 77
1, 212575, Note_on_c, 0, 61, 70
1, 212638, Note_off_c, 0, 54, 58
1, 212653, Note_on_c, 0, 66, 80
1, 212734, Control_c, 0, 67, 27
1, 212751, Note_off_c, 0, 61, 56
1, 212773, Note_off_c, 0, 58, 61
1, 212808, Control_c, 0, 67, 29
1, 212931, Note_off_c, 0, 66, 58
1, 212982, Note_on_c, 0, 45, 44
1, 213187, Note_on_c, 0, 57, 43
1, 213231, Note_off_c, 0, 45, 34
1, 213306, Note_off_c, 0, 57, 36
1, 213344, Note_on_c, 0, 69, 54
1, 213493, Note_on_c, 0, 81, 65
1, 213502, Note_off_c, 0, 69, 53
1, 213631, Control_c, 0, 67, 31
1, 213651, Note_off_c, 0, 81, 57
1, 213657, Note_on_c, 0, 69, 48
1, 213660, Control_c, 0, 67, 32
1, 213675, Control_c, 0, 67, 32
1, 213690, Control_c, 0, 67, 33
1, 213698, Note_off_c, 0, 69, 63
1, 213705, Control_c, 0, 67, 33
1, 213720, Control_c, 0, 67, 34
1, 213750, Control_c, 0, 67, 35
1, 213779, Control_c, 0, 67, 36
1, 213794, Control_c, 0, 67, 36
1, 213809, Control_c, 0, 67, 37
1, 213823, Note_on_c, 0, 57, 39
1, 213824, Control_c, 0, 67, 37
1, 213839, Control_c, 0, 67, 38
1, 213853, Control_c, 0, 67, 39
1, 213868, Control_c, 0, 67, 41
1, 213883, Control_c, 0, 67, 43
1, 213898, Control_c, 0, 67, 46
1, 213913, Control_c, 0, 67, 49
1, 213927, Control_c, 0, 67, 53
1, 213942, Control_c, 0, 67, 58
1, 213957, Control_c, 0, 67, 63
1, 213967, Note_on_c, 0, 45, 33
1, 213972, Control_c, 0, 67, 68
1, 213986, Control_c, 0, 67, 72
1, 213994, Note_off_c, 0, 57, 35
1, 214001, Control_c, 0, 67, 76
1, 214016, Control_c, 0, 67, 80
1, 214031, Control_c, 0, 67, 83
1, 214046, Control_c, 0, 67, 85
1, 214060, Control_c, 0, 67, 86
1, 214067, Note_off_c, 0, 45, 42
1, 214125, Note_on_c, 0, 57, 43
1, 214165, Control_c, 0, 67, 85
1, 214178, Note_off_c, 0, 57, 63
1, 214277, Control_c, 0, 64, 115
1, 214291, Control_c, 0, 64, 109
1, 214306, Control_c, 0, 64, 105
1, 214315, Note_on_c, 0, 61, 75
1, 214321, Control_c, 0, 64, 101
1, 214334, Note_on_c, 0, 59, 48
1, 214336, Control_c, 0, 64, 97
1, 214349, Note_on_c, 0, 55, 49
1, 214351, Control_c, 0, 64, 92
1, 214365, Control_c, 0, 64, 88
1, 214376, Note_off_c, 0, 59, 0
1, 214376, Note_on_c, 0, 59, 24
1, 214380, Control_c, 0, 64, 85
1, 214395, Control_c, 0, 64, 81
1, 214409, Control_c, 0, 64, 76
1, 214424, Control_c, 0, 64, 68
1, 214439, Control_c, 0, 64, 61
1, 214455, Control_c, 0, 64, 54
1, 214470, Control_c, 0, 64, 50
1, 214484, Control_c, 0, 64, 51
1, 214499, Control_c, 0, 64, 55
1, 214514, Control_c, 0, 64, 59
1, 214529, Control_c, 0, 64, 63
1, 214544, Control_c, 0, 64, 67
1, 214558, Control_c, 0, 64, 71
1, 214573, Control_c, 0, 64, 75
1, 214588, Control_c, 0, 64, 78
1, 214602, Control_c, 0, 64, 79
1, 214617, Control_c, 0, 64, 80
1, 214632, Control_c, 0, 64, 81
1, 214632, Control_c, 0, 67, 85
1, 214638, Note_on_c, 0, 69, 46
1, 214647, Control_c, 0, 64, 83
1, 214662, Control_c, 0, 64, 84
1, 214677, Control_c, 0, 64, 86
1, 214686, Note_off_c, 0, 55, 38
1, 214692, Control_c, 0, 64, 88
1, 214707, Control_c, 0, 64, 91
1, 214722, Control_c, 0, 64, 93
1, 214737, Control_c, 0, 64, 96
1, 214751, Control_c, 0, 64, 99
1, 214751, Control_c, 0, 67, 84
1, 214766, Control_c, 0, 64, 104
1, 214781, Control_c, 0, 64, 110
1, 214796, Control_c, 0, 64, 121
1, 214810, Control_c, 0, 64, 127
1, 214850, Note_on_c, 0, 57, 48
1, 214884, Control_c, 0, 67, 84
1, 214917, Note_off_c, 0, 69, 53
1, 214928, Control_c, 0, 67, 83
1, 215031, Note_off_c, 0, 59, 41
1, 215041, Note_on_c, 0, 45, 40
1, 215070, Note_off_c, 0, 57, 37
1, 215187, Note_off_c, 0, 61, 38
1, 215200, Note_on_c, 0, 33, 44
1, 215202, Note_off_c, 0, 45, 40
1, 215312, Note_off_c, 0, 33, 55
1, 215360, Note_on_c, 0, 45, 46
1, 215412, Note_off_c, 0, 45, 59
1, 215425, Control_c, 0, 67, 84
1, 215440, Control_c, 0, 67, 84
1, 215470, Control_c, 0, 67, 85
1, 215485, Control_c, 0, 67, 85
1, 215499, Control_c, 0, 67, 86
1, 215514, Control_c, 0, 67, 86
1, 215631, Note_on_c, 0, 66, 62
1, 215632, Control_c, 0, 64, 119
1, 215647, Control_c, 0, 64, 107
1, 215655, Note_on_c, 0, 61, 47
1, 215660, Note_on_c, 0, 54, 40
1, 215661, Note_on_c, 0, 58, 47
1, 215662, Control_c, 0, 64, 95
1, 215677, Control_c, 0, 64, 88
1, 215692, Control_c, 0, 64, 80
1, 215706, Control_c, 0, 64, 73
1, 215729, Control_c, 0, 64, 66
1, 215744, Control_c, 0, 64, 60
1, 215759, Control_c, 0, 64, 55
1, 215774, Control_c, 0, 64, 56
1, 215789, Control_c, 0, 64, 59
1, 215804, Control_c, 0, 64, 63
1, 215819, Control_c, 0, 64, 66
1, 215819, Control_c, 0, 67, 87
1, 215833, Control_c, 0, 64, 71
1, 215848, Control_c, 0, 64, 76
1, 215852, Note_off_c, 0, 54, 59
1, 215863, Control_c, 0, 64, 82
1, 215878, Control_c, 0, 64, 87
1, 215893, Control_c, 0, 64, 92
1, 215908, Control_c, 0, 64, 97
1, 215915, Note_off_c, 0, 58, 57
1, 215922, Control_c, 0, 64, 105
1, 215937, Control_c, 0, 64, 116
1, 215952, Control_c, 0, 64, 127
1, 215958, Note_off_c, 0, 61, 55
1, 216020, Note_off_c, 0, 66, 61
1, 216046, Note_on_c, 0, 57, 45
1, 216195, Note_off_c, 0, 57, 37
1, 216281, Note_on_c, 0, 69, 60
1, 216367, Control_c, 0, 67, 86
1, 216486, Note_off_c, 0, 69, 47
1, 216509, Note_on_c, 0, 81, 69
1, 216629, Note_off_c, 0, 81, 58
1, 216686, Note_on_c, 0, 69, 51
1, 216724, Note_off_c, 0, 69, 62
1, 216731, Control_c, 0, 67, 87
1, 216746, Control_c, 0, 67, 87
1, 216760, Control_c, 0, 67, 88
1, 216775, Control_c, 0, 67, 88
1, 216790, Control_c, 0, 67, 89
1, 216804, Control_c, 0, 67, 91
1, 216819, Control_c, 0, 67, 103
1, 216834, Control_c, 0, 67, 116
1, 216841, Note_on_c, 0, 57, 40
1, 216849, Control_c, 0, 67, 127
1, 216925, Note_off_c, 0, 57, 59
1, 216983, Note_on_c, 0, 45, 46
1, 216996, Control_c, 0, 64, 116
1, 217011, Control_c, 0, 64, 111
1, 217026, Control_c, 0, 64, 107
1, 217030, Note_off_c, 0, 45, 58
1, 217041, Control_c, 0, 64, 103
1, 217056, Control_c, 0, 64, 100
1, 217071, Control_c, 0, 64, 97
1, 217085, Control_c, 0, 64, 96
1, 217100, Control_c, 0, 64, 94
1, 217115, Control_c, 0, 64, 93
1, 217130, Control_c, 0, 64, 91
1, 217136, Note_on_c, 0, 57, 42
1, 217145, Control_c, 0, 64, 90
1, 217160, Control_c, 0, 64, 89
1, 217175, Control_c, 0, 64, 88
1, 217190, Control_c, 0, 64, 88
1, 217204, Control_c, 0, 64, 87
1, 217210, Note_off_c, 0, 57, 56
1, 217226, Control_c, 0, 64, 85
1, 217241, Control_c, 0, 64, 83
1, 217256, Control_c, 0, 64, 80
1, 217271, Control_c, 0, 64, 76
1, 217285, Control_c, 0, 64, 72
1, 217299, Note_on_c, 0, 45, 44
1, 217300, Control_c, 0, 64, 66
1, 217315, Control_c, 0, 64, 60
1, 217330, Control_c, 0, 64, 56
1, 217345, Control_c, 0, 64, 54
1, 217361, Control_c, 0, 64, 56
1, 217375, Control_c, 0, 64, 59
1, 217390, Control_c, 0, 64, 61
1, 217397, Note_off_c, 0, 45, 48
1, 217405, Control_c, 0, 64, 62
1, 217420, Control_c, 0, 64, 64
1, 217434, Control_c, 0, 64, 65
1, 217450, Control_c, 0, 64, 67
1, 217465, Control_c, 0, 64, 68
1, 217480, Note_on_c, 0, 57, 41
1, 217480, Control_c, 0, 64, 69
1, 217553, Control_c, 0, 64, 69
1, 217582, Note_off_c, 0, 57, 51
1, 217583, Control_c, 0, 64, 68
1, 217598, Control_c, 0, 64, 66
1, 217613, Control_c, 0, 64, 65
1, 217628, Control_c, 0, 64, 63
1, 217636, Note_on_c, 0, 45, 38
1, 217658, Control_c, 0, 64, 64
1, 217673, Control_c, 0, 64, 65
1, 217688, Control_c, 0, 64, 66
1, 217702, Control_c, 0, 64, 66
1, 217714, Note_off_c, 0, 45, 50
1, 217717, Control_c, 0, 64, 67
1, 217732, Control_c, 0, 64, 67
1, 217746, Control_c, 0, 64, 68
1, 217761, Control_c, 0, 64, 68
1, 217806, Note_on_c, 0, 57, 32
1, 217850, Control_c, 0, 64, 68
1, 217865, Control_c, 0, 64, 66
1, 217880, Control_c, 0, 64, 64
1, 217894, Control_c, 0, 64, 62
1, 217909, Control_c, 0, 64, 61
1, 217924, Control_c, 0, 64, 60
1, 217925, Note_off_c, 0, 57, 39
1, 217932, Note_on_c, 0, 45, 39
1, 217939, Control_c, 0, 64, 59
1, 217976, Control_c, 0, 64, 60
1, 217991, Control_c, 0, 64, 61
1, 218006, Control_c, 0, 64, 62
1, 218021, Control_c, 0, 64, 64
1, 218035, Control_c, 0, 64, 66
1, 218050, Control_c, 0, 64, 68
1, 218063, Note_off_c, 0, 45, 48
1, 218065, Control_c, 0, 64, 69
1, 218080, Control_c, 0, 64, 71
1, 218095, Control_c, 0, 64, 72
1, 218109, Control_c, 0, 64, 73
1, 218119, Note_on_c, 0, 57, 34
1, 218124, Control_c, 0, 64, 74
1, 218199, Control_c, 0, 64, 73
1, 218214, Control_c, 0, 64, 73
1, 218229, Control_c, 0, 64, 72
1, 218240, Note_off_c, 0, 57, 37
1, 218244, Control_c, 0, 64, 70
1, 218254, Note_on_c, 0, 45, 41
1, 218258, Control_c, 0, 64, 69
1, 218313, Note_off_c, 0, 45, 63
1, 218437, Note_on_c, 0, 57, 33
1, 218540, Control_c, 0, 64, 69
1, 218573, Note_off_c, 0, 57, 40
1, 218573, Note_on_c, 0, 45, 40
1, 218643, Control_c, 0, 64, 68
1, 218647, Note_off_c, 0, 45, 60
1, 218673, Control_c, 0, 64, 68
1, 218775, Note_on_c, 0, 57, 21
1, 218877, Note_off_c, 0, 57, 36
1, 218905, Note_on_c, 0, 45, 31
1, 218932, Control_c, 0, 64, 67
1, 219006, Control_c, 0, 64, 67
1, 219021, Note_off_c, 0, 45, 42
1, 219100, Note_on_c, 0, 57, 33
1, 219110, Control_c, 0, 64, 66
1, 219169, Control_c, 0, 64, 66
1, 219184, Control_c, 0, 64, 65
1, 219199, Control_c, 0, 64, 65
1, 219243, Note_on_c, 0, 45, 42
1, 219245, Note_off_c, 0, 57, 39
1, 219288, Control_c, 0, 64, 64
1, 219303, Control_c, 0, 64, 64
1, 219316, Note_off_c, 0, 45, 53
1, 219317, Control_c, 0, 64, 63
1, 219332, Control_c, 0, 64, 62
1, 219347, Control_c, 0, 64, 61
1, 219362, Control_c, 0, 64, 55
1, 219377, Control_c, 0, 64, 43
1, 219391, Control_c, 0, 64, 0
1, 219451, Control_c, 0, 64, 61
1, 219461, Note_on_c, 0, 46, 61
1, 219472, Note_on_c, 0, 39, 46
1, 219473, Control_c, 0, 64, 93
1, 219488, Control_c, 0, 64, 127
1, 219497, Note_off_c, 0, 46, 65
1, 219508, Note_off_c, 0, 39, 61
1, 219518, Control_c, 0, 64, 82
1, 219532, Control_c, 0, 64, 64
1, 219547, Control_c, 0, 64, 42
1, 219562, Control_c, 0, 64, 0
1, 219658, Note_on_c, 0, 58, 62
1, 219688, Note_off_c, 0, 58, 66
1, 219717, Note_on_c, 0, 67, 48
1, 219718, Note_on_c, 0, 63, 42
1, 219750, Note_off_c, 0, 67, 52
1, 219753, Note_on_c, 0, 58, 68
1, 219760, Note_off_c, 0, 63, 62
1, 219785, Note_off_c, 0, 58, 64
1, 219796, Note_on_c, 0, 59, 68
1, 219804, Note_on_c, 0, 55, 56
1, 219820, Note_off_c, 0, 59, 69
1, 219827, Note_off_c, 0, 55, 59
1, 220006, Note_on_c, 0, 67, 57
1, 220009, Note_on_c, 0, 58, 56
1, 220026, Note_off_c, 0, 67, 62
1, 220031, Note_off_c, 0, 58, 60
1, 220153, Note_on_c, 0, 39, 57
1, 220154, Note_on_c, 0, 46, 53
1, 220183, Note_off_c, 0, 46, 56
1, 220187, Note_off_c, 0, 39, 63
1, 220326, Note_on_c, 0, 67, 60
1, 220338, Note_on_c, 0, 58, 51
1, 220344, Note_off_c, 0, 67, 65
1, 220361, Note_off_c, 0, 58, 59
1, 220480, Note_on_c, 0, 46, 65
1, 220508, Note_off_c, 0, 46, 66
1, 220630, Note_on_c, 0, 57, 52
1, 220644, Note_on_c, 0, 59, 60
1, 220656, Note_on_c, 0, 51, 63
1, 220658, Note_off_c, 0, 57, 66
1, 220664, Note_off_c, 0, 59, 65
1, 220685, Note_off_c, 0, 51, 64
1, 220815, Note_on_c, 0, 63, 71
1, 220823, Note_on_c, 0, 59, 69
1, 220829, Note_on_c, 0, 66, 66
1, 220829, Note_on_c, 0, 73, 82
1, 220832, Note_on_c, 0, 57, 48
1, 220838, Note_off_c, 0, 63, 68
1, 220844, Note_off_c, 0, 59, 68
1, 220845, Note_off_c, 0, 73, 76
1, 220846, Note_off_c, 0, 66, 64
1, 220859, Control_c, 0, 64, 61
1, 220861, Note_off_c, 0, 57, 56
1, 220874, Control_c, 0, 64, 66
1, 220889, Control_c, 0, 64, 61
1, 220904, Control_c, 0, 64, 46
1, 220919, Control_c, 0, 64, 0
1, 221007, Note_on_c, 0, 46, 72
1, 221011, Note_on_c, 0, 39, 75
1, 221030, Control_c, 0, 64, 57
1, 221031, Note_off_c, 0, 46, 66
1, 221036, Note_off_c, 0, 39, 65
1, 221044, Control_c, 0, 64, 82
1, 221059, Control_c, 0, 64, 82
1, 221074, Control_c, 0, 64, 71
1, 221089, Control_c, 0, 64, 52
1, 221104, Control_c, 0, 64, 0
1, 221196, Note_on_c, 0, 58, 59
1, 221220, Note_off_c, 0, 58, 60
1, 221226, Note_on_c, 0, 63, 65
1, 221237, Note_on_c, 0, 67, 67
1, 221262, Note_off_c, 0, 67, 69
1, 221264, Note_off_c, 0, 63, 62
1, 221282, Note_on_c, 0, 58, 68
1, 221311, Note_off_c, 0, 58, 66
1, 221342, Note_on_c, 0, 55, 75
1, 221346, Note_on_c, 0, 59, 70
1, 221366, Note_off_c, 0, 55, 69
1, 221369, Note_off_c, 0, 59, 65
1, 221527, Note_on_c, 0, 58, 61
1, 221530, Note_on_c, 0, 67, 53
1, 221548, Note_off_c, 0, 58, 64
1, 221552, Note_on_c, 0, 63, 21
1, 221553, Note_off_c, 0, 67, 59
1, 221590, Note_off_c, 0, 63, 31
1, 221685, Note_on_c, 0, 39, 61
1, 221688, Note_on_c, 0, 46, 57
1, 221722, Note_off_c, 0, 46, 59
1, 221724, Note_off_c, 0, 39, 63
1, 221863, Note_on_c, 0, 63, 59
1, 221864, Note_on_c, 0, 67, 57
1, 221864, Note_on_c, 0, 58, 58
1, 221885, Note_off_c, 0, 67, 62
1, 221888, Note_off_c, 0, 58, 64
1, 221891, Note_off_c, 0, 63, 64
1, 222023, Note_on_c, 0, 46, 56
1, 222049, Note_off_c, 0, 46, 61
1, 222165, Note_on_c, 0, 57, 50
1, 222184, Note_on_c, 0, 51, 68
1, 222186, Note_on_c, 0, 59, 56
1, 222196, Note_off_c, 0, 57, 65
1, 222208, Note_off_c, 0, 59, 62
1, 222210, Note_off_c, 0, 51, 65
1, 222341, Note_on_c, 0, 63, 70
1, 222349, Note_on_c, 0, 58, 64
1, 222359, Note_on_c, 0, 66, 61
1, 222359, Note_on_c, 0, 73, 78
1, 222367, Note_off_c, 0, 63, 68
1, 222377, Note_off_c, 0, 66, 63
1, 222378, Note_on_c, 0, 59, 18
1, 222379, Note_off_c, 0, 58, 66
1, 222379, Note_off_c, 0, 73, 72
1, 222386, Control_c, 0, 64, 60
1, 222401, Control_c, 0, 64, 66
1, 222415, Control_c, 0, 64, 62
1, 222419, Note_off_c, 0, 59, 29
1, 222430, Control_c, 0, 64, 51
1, 222445, Control_c, 0, 64, 32
1, 222467, Control_c, 0, 64, 0
1, 222532, Note_on_c, 0, 46, 76
1, 222536, Note_on_c, 0, 39, 71
1, 222555, Note_off_c, 0, 46, 67
1, 222556, Control_c, 0, 64, 53
1, 222559, Note_off_c, 0, 39, 65
1, 222571, Control_c, 0, 64, 63
1, 222586, Control_c, 0, 64, 55
1, 222601, Control_c, 0, 64, 0
1, 222704, Note_on_c, 0, 58, 72
1, 222731, Note_off_c, 0, 58, 68
1, 222747, Note_on_c, 0, 67, 57
1, 222762, Note_on_c, 0, 63, 48
1, 222768, Note_off_c, 0, 67, 63
1, 222794, Note_on_c, 0, 58, 74
1, 222797, Note_off_c, 0, 63, 64
1, 222819, Note_off_c, 0, 58, 70
1, 222841, Note_on_c, 0, 59, 71
1, 222845, Note_on_c, 0, 55, 64
1, 222864, Note_off_c, 0, 55, 63
1, 222864, Note_off_c, 0, 59, 69
1, 223035, Note_on_c, 0, 58, 58
1, 223056, Note_off_c, 0, 58, 62
1, 223070, Note_on_c, 0, 67, 55
1, 223083, Note_on_c, 0, 63, 52
1, 223091, Note_off_c, 0, 67, 64
1, 223115, Note_off_c, 0, 63, 64
1, 223134, Note_on_c, 0, 58, 48
1, 223160, Note_off_c, 0, 58, 60
1, 223172, Note_on_c, 0, 46, 58
1, 223172, Note_on_c, 0, 39, 62
1, 223197, Note_off_c, 0, 46, 60
1, 223202, Note_off_c, 0, 39, 64
1, 223368, Note_on_c, 0, 58, 61
1, 223372, Note_on_c, 0, 67, 49
1, 223389, Note_off_c, 0, 58, 63
1, 223396, Note_off_c, 0, 67, 57
1, 223528, Control_c, 0, 64, 36
1, 223530, Note_on_c, 0, 39, 51
1, 223533, Note_on_c, 0, 46, 46
1, 223543, Control_c, 0, 64, 55
1, 223558, Control_c, 0, 64, 53
1, 223561, Note_off_c, 0, 39, 60
1, 223566, Note_off_c, 0, 46, 55
1, 223572, Control_c, 0, 64, 50
1, 223587, Control_c, 0, 64, 48
1, 223602, Control_c, 0, 64, 47
1, 223617, Control_c, 0, 64, 46
1, 223632, Control_c, 0, 64, 43
1, 223646, Control_c, 0, 64, 39
1, 223661, Control_c, 0, 64, 36
1, 223676, Control_c, 0, 64, 32
1, 223691, Control_c, 0, 64, 0
1, 223702, Note_on_c, 0, 58, 58
1, 223724, Note_off_c, 0, 58, 62
1, 223736, Control_c, 0, 64, 30
1, 223744, Note_on_c, 0, 67, 54
1, 223751, Note_on_c, 0, 63, 42
1, 223751, Control_c, 0, 64, 32
1, 223766, Control_c, 0, 64, 32
1, 223768, Note_off_c, 0, 67, 56
1, 223789, Note_on_c, 0, 58, 66
1, 223790, Note_off_c, 0, 63, 64
1, 223795, Control_c, 0, 64, 33
1, 223807, Note_off_c, 0, 58, 66
1, 223810, Control_c, 0, 64, 36
1, 223825, Control_c, 0, 64, 41
1, 223840, Control_c, 0, 64, 45
1, 223851, Note_on_c, 0, 59, 70
1, 223855, Note_on_c, 0, 55, 61
1, 223855, Control_c, 0, 64, 36
1, 223870, Control_c, 0, 64, 0
1, 223873, Note_off_c, 0, 59, 70
1, 223876, Note_off_c, 0, 55, 64
1, 224050, Note_on_c, 0, 58, 50
1, 224074, Note_off_c, 0, 58, 59
1, 224080, Note_on_c, 0, 67, 58
1, 224084, Note_on_c, 0, 63, 57
1, 224100, Note_off_c, 0, 67, 65
1, 224118, Note_off_c, 0, 63, 65
1, 224136, Note_on_c, 0, 58, 63
1, 224157, Note_off_c, 0, 58, 65
1, 224179, Note_on_c, 0, 46, 80
1, 224191, Note_on_c, 0, 39, 60
1, 224201, Note_off_c, 0, 46, 67
1, 224223, Note_off_c, 0, 39, 64
1, 224357, Note_on_c, 0, 48, 75
1, 224368, Note_on_c, 0, 41, 57
1, 224382, Note_off_c, 0, 48, 67
1, 224395, Note_off_c, 0, 41, 61
1, 224539, Note_on_c, 0, 49, 75
1, 224541, Note_on_c, 0, 42, 70
1, 224544, Control_c, 0, 64, 44
1, 224559, Control_c, 0, 64, 66
1, 224565, Note_off_c, 0, 42, 66
1, 224566, Note_off_c, 0, 49, 66
1, 224574, Control_c, 0, 64, 68
1, 224618, Control_c, 0, 64, 67
1, 224633, Control_c, 0, 64, 65
1, 224648, Control_c, 0, 64, 62
1, 224663, Control_c, 0, 64, 60
1, 224678, Control_c, 0, 64, 57
1, 224693, Control_c, 0, 64, 55
1, 224715, Control_c, 0, 64, 53
1, 224730, Control_c, 0, 64, 50
1, 224731, Note_on_c, 0, 61, 46
1, 224744, Control_c, 0, 64, 49
1, 224758, Note_off_c, 0, 61, 54
1, 224759, Control_c, 0, 64, 48
1, 224760, Note_on_c, 0, 70, 59
1, 224768, Note_on_c, 0, 66, 55
1, 224774, Control_c, 0, 64, 46
1, 224778, Note_off_c, 0, 70, 64
1, 224789, Control_c, 0, 64, 42
1, 224802, Note_off_c, 0, 66, 64
1, 224804, Control_c, 0, 64, 37
1, 224806, Note_on_c, 0, 61, 66
1, 224818, Control_c, 0, 64, 36
1, 224833, Control_c, 0, 64, 38
1, 224835, Note_off_c, 0, 61, 64
1, 224848, Control_c, 0, 64, 45
1, 224863, Control_c, 0, 64, 40
1, 224868, Note_on_c, 0, 62, 69
1, 224875, Note_on_c, 0, 58, 63
1, 224878, Control_c, 0, 64, 0
1, 224891, Note_off_c, 0, 62, 64
1, 224897, Note_off_c, 0, 58, 65
1, 225050, Note_on_c, 0, 61, 75
1, 225054, Note_on_c, 0, 70, 72
1, 225071, Note_on_c, 0, 66, 40
1, 225073, Note_off_c, 0, 61, 68
1, 225077, Note_off_c, 0, 70, 70
1, 225101, Note_off_c, 0, 66, 35
1, 225208, Note_on_c, 0, 49, 66
1, 225211, Note_on_c, 0, 42, 63
1, 225236, Note_off_c, 0, 49, 65
1, 225238, Note_off_c, 0, 42, 65
1, 225381, Note_on_c, 0, 61, 65
1, 225382, Note_on_c, 0, 70, 68
1, 225403, Note_off_c, 0, 61, 64
1, 225405, Note_on_c, 0, 66, 32
1, 225406, Note_off_c, 0, 70, 66
1, 225438, Note_off_c, 0, 66, 33
1, 225545, Note_on_c, 0, 49, 62
1, 225568, Control_c, 0, 64, 33
1, 225573, Note_off_c, 0, 49, 65
1, 225583, Control_c, 0, 64, 47
1, 225598, Control_c, 0, 64, 57
1, 225613, Control_c, 0, 64, 60
1, 225628, Control_c, 0, 64, 60
1, 225685, Control_c, 0, 64, 60
1, 225700, Control_c, 0, 64, 57
1, 225715, Control_c, 0, 64, 53
1, 225724, Note_on_c, 0, 54, 63
1, 225730, Note_on_c, 0, 62, 48
1, 225730, Control_c, 0, 64, 51
1, 225736, Note_on_c, 0, 60, 62
1, 225745, Control_c, 0, 64, 53
1, 225760, Control_c, 0, 64, 56
1, 225764, Note_on_c, 0, 66, 77
1, 225772, Note_off_c, 0, 60, 65
1, 225775, Control_c, 0, 64, 58
1, 225781, Note_off_c, 0, 62, 59
1, 225794, Note_on_c, 0, 61, 76
1, 225808, Note_on_c, 0, 69, 80
1, 225808, Note_off_c, 0, 54, 65
1, 225820, Note_off_c, 0, 66, 61
1, 225826, Note_off_c, 0, 61, 65
1, 225834, Control_c, 0, 64, 59
1, 225849, Control_c, 0, 64, 62
1, 225850, Note_on_c, 0, 66, 74
1, 225852, Note_on_c, 0, 72, 84
1, 225857, Note_on_c, 0, 76, 100
1, 225861, Note_off_c, 0, 69, 66
1, 225864, Control_c, 0, 64, 69
1, 225873, Note_off_c, 0, 72, 71
1, 225879, Control_c, 0, 64, 88
1, 225885, Note_off_c, 0, 76, 69
1, 225893, Control_c, 0, 64, 127
1, 225894, Note_off_c, 0, 66, 63
1, 225982, Control_c, 0, 64, 90
1, 225997, Control_c, 0, 64, 67
1, 226011, Control_c, 0, 64, 37
1, 226026, Control_c, 0, 64, 0
1, 226054, Note_on_c, 0, 49, 87
1, 226071, Control_c, 0, 64, 34
1, 226076, Note_off_c, 0, 49, 71
1, 226078, Note_on_c, 0, 42, 40
1, 226078, Note_off_c, 0, 42, 127
1, 226085, Control_c, 0, 64, 45
1, 226100, Control_c, 0, 64, 0
1, 226240, Note_on_c, 0, 61, 64
1, 226261, Note_off_c, 0, 61, 63
1, 226276, Note_on_c, 0, 66, 59
1, 226290, Note_on_c, 0, 70, 60
1, 226308, Note_off_c, 0, 70, 63
1, 226310, Note_off_c, 0, 66, 61
1, 226323, Note_on_c, 0, 61, 78
1, 226348, Note_off_c, 0, 61, 66
1, 226383, Note_on_c, 0, 62, 68
1, 226386, Note_on_c, 0, 58, 71
1, 226401, Note_off_c, 0, 62, 66
1, 226412, Note_off_c, 0, 58, 65
1, 226574, Note_on_c, 0, 61, 73
1, 226577, Note_on_c, 0, 70, 71
1, 226592, Note_on_c, 0, 66, 50
1, 226598, Note_off_c, 0, 61, 67
1, 226600, Note_off_c, 0, 70, 70
1, 226615, Note_off_c, 0, 66, 54
1, 226730, Note_on_c, 0, 42, 72
1, 226735, Note_on_c, 0, 49, 68
1, 226756, Note_off_c, 0, 49, 64
1, 226758, Note_off_c, 0, 42, 66
1, 226905, Note_on_c, 0, 70, 74
1, 226906, Note_on_c, 0, 61, 63
1, 226918, Note_on_c, 0, 66, 55
1, 226926, Note_off_c, 0, 70, 71
1, 226933, Note_off_c, 0, 61, 63
1, 226940, Note_off_c, 0, 66, 58
1, 227074, Note_on_c, 0, 49, 53
1, 227080, Control_c, 0, 64, 45
1, 227095, Control_c, 0, 64, 57
1, 227101, Note_off_c, 0, 49, 59
1, 227110, Control_c, 0, 64, 61
1, 227125, Control_c, 0, 64, 63
1, 227139, Control_c, 0, 64, 63
1, 227169, Control_c, 0, 64, 64
1, 227185, Control_c, 0, 64, 65
1, 227214, Control_c, 0, 64, 65
1, 227239, Note_on_c, 0, 54, 55
1, 227255, Note_on_c, 0, 60, 49
1, 227262, Note_on_c, 0, 62, 45
1, 227273, Control_c, 0, 64, 65
1, 227282, Note_on_c, 0, 66, 72
1, 227288, Control_c, 0, 64, 64
1, 227289, Note_off_c, 0, 62, 59
1, 227295, Note_off_c, 0, 60, 66
1, 227303, Control_c, 0, 64, 64
1, 227307, Note_on_c, 0, 61, 70
1, 227319, Note_off_c, 0, 54, 60
1, 227328, Note_on_c, 0, 69, 71
1, 227340, Note_off_c, 0, 66, 64
1, 227347, Control_c, 0, 64, 65
1, 227350, Note_off_c, 0, 61, 62
1, 227362, Control_c, 0, 64, 68
1, 227367, Note_on_c, 0, 66, 65
1, 227373, Note_on_c, 0, 72, 82
1, 227377, Note_off_c, 0, 69, 66
1, 227377, Control_c, 0, 64, 74
1, 227379, Note_on_c, 0, 76, 92
1, 227392, Control_c, 0, 64, 88
1, 227393, Note_off_c, 0, 72, 72
1, 227399, Note_off_c, 0, 66, 65
1, 227407, Control_c, 0, 64, 127
1, 227408, Note_off_c, 0, 76, 66
1, 227539, Control_c, 0, 64, 89
1, 227554, Note_on_c, 0, 42, 80
1, 227554, Control_c, 0, 64, 55
1, 227557, Note_on_c, 0, 49, 89
1, 227569, Control_c, 0, 64, 0
1, 227577, Note_off_c, 0, 49, 72
1, 227581, Note_off_c, 0, 42, 70
1, 227735, Note_on_c, 0, 61, 72
1, 227766, Note_off_c, 0, 61, 63
1, 227778, Note_on_c, 0, 66, 56
1, 227800, Note_on_c, 0, 70, 53
1, 227807, Note_off_c, 0, 66, 64
1, 227821, Note_off_c, 0, 70, 60
1, 227835, Note_on_c, 0, 61, 71
1, 227860, Note_off_c, 0, 61, 67
1, 227880, Note_on_c, 0, 62, 77
1, 227885, Note_on_c, 0, 58, 73
1, 227903, Note_off_c, 0, 62, 69
1, 227907, Note_off_c, 0, 58, 68
1, 228040, Note_on_c, 0, 66, 69
1, 228061, Note_on_c, 0, 61, 49
1, 228070, Note_off_c, 0, 66, 64
1, 228088, Note_off_c, 0, 61, 55
1, 228099, Note_on_c, 0, 70, 65
1, 228113, Note_on_c, 0, 73, 39
1, 228129, Note_off_c, 0, 70, 67
1, 228136, Note_on_c, 0, 66, 75
1, 228142, Note_off_c, 0, 73, 62
1, 228157, Note_off_c, 0, 66, 69
1, 228189, Note_on_c, 0, 49, 72
1, 228189, Note_on_c, 0, 42, 63
1, 228216, Note_off_c, 0, 49, 66
1, 228224, Note_off_c, 0, 42, 67
1, 228359, Note_on_c, 0, 51, 71
1, 228364, Note_on_c, 0, 44, 62
1, 228383, Note_off_c, 0, 51, 65
1, 228392, Note_off_c, 0, 44, 66
1, 228517, Note_on_c, 0, 52, 83
1, 228523, Note_on_c, 0, 45, 80
1, 228534, Control_c, 0, 64, 58
1, 228540, Note_off_c, 0, 52, 70
1, 228549, Control_c, 0, 64, 92
1, 228550, Note_off_c, 0, 45, 69
1, 228564, Control_c, 0, 64, 127
1, 228667, Control_c, 0, 64, 106
1, 228682, Control_c, 0, 64, 92
1, 228686, Note_on_c, 0, 64, 73
1, 228697, Control_c, 0, 64, 84
1, 228711, Note_off_c, 0, 64, 69
1, 228711, Control_c, 0, 64, 76
1, 228721, Note_on_c, 0, 69, 59
1, 228726, Control_c, 0, 64, 68
1, 228729, Note_on_c, 0, 73, 78
1, 228741, Control_c, 0, 64, 61
1, 228756, Note_off_c, 0, 73, 63
1, 228756, Control_c, 0, 64, 52
1, 228759, Note_off_c, 0, 69, 52
1, 228770, Note_on_c, 0, 64, 76
1, 228771, Control_c, 0, 64, 36
1, 228786, Control_c, 0, 64, 0
1, 228794, Note_off_c, 0, 64, 65
1, 228818, Note_on_c, 0, 65, 91
1, 228825, Note_on_c, 0, 61, 83
1, 228845, Note_off_c, 0, 61, 69
1, 228845, Note_off_c, 0, 65, 69
1, 228860, Control_c, 0, 64, 56
1, 228875, Control_c, 0, 64, 82
1, 228890, Control_c, 0, 64, 101
1, 228919, Control_c, 0, 64, 81
1, 228934, Control_c, 0, 64, 68
1, 228949, Control_c, 0, 64, 63
1, 228964, Control_c, 0, 64, 60
1, 228978, Control_c, 0, 64, 49
1, 228993, Control_c, 0, 64, 0
1, 228997, Note_on_c, 0, 64, 71
1, 229021, Note_off_c, 0, 64, 69
1, 229023, Note_on_c, 0, 69, 53
1, 229033, Note_on_c, 0, 73, 84
1, 229053, Note_off_c, 0, 73, 69
1, 229056, Note_off_c, 0, 69, 65
1, 229078, Note_on_c, 0, 64, 75
1, 229097, Control_c, 0, 64, 63
1, 229098, Note_off_c, 0, 64, 71
1, 229110, Note_on_c, 0, 52, 98
1, 229111, Control_c, 0, 64, 110
1, 229113, Note_on_c, 0, 45, 82
1, 229126, Control_c, 0, 64, 127
1, 229141, Note_off_c, 0, 52, 66
1, 229141, Control_c, 0, 64, 86
1, 229141, Control_c, 0, 67, 121
1, 229148, Note_off_c, 0, 45, 64
1, 229155, Control_c, 0, 64, 39
1, 229155, Control_c, 0, 67, 73
1, 229170, Control_c, 0, 64, 0
1, 229170, Control_c, 0, 67, 0
1, 229297, Note_on_c, 0, 54, 96
1, 229301, Note_on_c, 0, 47, 88
1, 229315, Note_off_c, 0, 54, 74
1, 229322, Note_off_c, 0, 47, 72
1, 229483, Note_on_c, 0, 49, 83
1, 229483, Note_on_c, 0, 61, 100
1, 229486, Note_on_c, 0, 56, 90
1, 229506, Note_off_c, 0, 56, 70
1, 229517, Note_off_c, 0, 49, 67
1, 229519, Control_c, 0, 64, 90
1, 229520, Note_off_c, 0, 61, 65
1, 229534, Control_c, 0, 64, 127
1, 229647, Note_on_c, 0, 68, 81
1, 229668, Note_off_c, 0, 68, 71
1, 229703, Note_on_c, 0, 73, 92
1, 229720, Note_off_c, 0, 73, 74
1, 229752, Note_on_c, 0, 73, 78
1, 229768, Note_off_c, 0, 73, 69
1, 229804, Note_on_c, 0, 73, 93
1, 229826, Note_on_c, 0, 77, 66
1, 229850, Note_on_c, 0, 85, 99
1, 229850, Note_off_c, 0, 73, 65
1, 229855, Note_on_c, 0, 80, 91
1, 229865, Note_off_c, 0, 85, 78
1, 229871, Note_off_c, 0, 80, 75
1, 229905, Note_off_c, 0, 77, 57
1, 230010, Note_on_c, 0, 68, 72
1, 230035, Note_off_c, 0, 68, 69
1, 230040, Note_on_c, 0, 73, 94
1, 230061, Note_off_c, 0, 73, 70
1, 230109, Note_on_c, 0, 73, 70
1, 230126, Note_off_c, 0, 73, 68
1, 230160, Note_on_c, 0, 61, 47
1, 230164, Note_on_c, 0, 73, 78
1, 230184, Note_off_c, 0, 73, 73
1, 230259, Note_on_c, 0, 68, 62
1, 230259, Note_off_c, 0, 61, 58
1, 230260, Note_on_c, 0, 72, 51
1, 230279, Note_off_c, 0, 68, 64
1, 230284, Note_off_c, 0, 72, 62
1, 230324, Note_on_c, 0, 72, 25
1, 230358, Note_on_c, 0, 73, 58
1, 230362, Note_off_c, 0, 72, 53
1, 230422, Note_off_c, 0, 73, 71
1, 230453, Note_on_c, 0, 73, 83
1, 230471, Note_off_c, 0, 73, 72
1, 230497, Note_on_c, 0, 73, 83
1, 230527, Note_off_c, 0, 73, 64
1, 230565, Control_c, 0, 64, 79
1, 230570, Note_on_c, 0, 59, 72
1, 230572, Note_on_c, 0, 69, 78
1, 230574, Note_on_c, 0, 65, 70
1, 230580, Control_c, 0, 64, 43
1, 230595, Control_c, 0, 64, 0
1, 230649, Note_off_c, 0, 65, 58
1, 230669, Control_c, 0, 64, 55
1, 230683, Control_c, 0, 64, 66
1, 230705, Control_c, 0, 64, 70
1, 230720, Control_c, 0, 64, 78
1, 230723, Note_off_c, 0, 69, 60
1, 230735, Control_c, 0, 64, 96
1, 230750, Control_c, 0, 64, 127
1, 230784, Note_on_c, 0, 62, 49
1, 230839, Note_on_c, 0, 74, 31
1, 230850, Note_on_c, 0, 65, 69
1, 230854, Note_off_c, 0, 62, 56
1, 230857, Note_on_c, 0, 76, 63
1, 230875, Note_off_c, 0, 74, 47
1, 230876, Note_off_c, 0, 59, 58
1, 230883, Note_off_c, 0, 76, 50
1, 230895, Note_on_c, 0, 77, 57
1, 230901, Note_off_c, 0, 65, 63
1, 230923, Note_on_c, 0, 79, 72
1, 230923, Note_off_c, 0, 77, 51
1, 230953, Note_on_c, 0, 69, 55
1, 230953, Note_on_c, 0, 81, 65
1, 230960, Note_off_c, 0, 79, 42
1, 230972, Note_off_c, 0, 69, 66
1, 230978, Note_off_c, 0, 81, 56
1, 230985, Note_on_c, 0, 83, 73
1, 230999, Note_on_c, 0, 84, 82
1, 231001, Note_off_c, 0, 83, 67
1, 231014, Note_on_c, 0, 86, 82
1, 231034, Note_on_c, 0, 88, 88
1, 231038, Note_off_c, 0, 86, 0
1, 231045, Note_on_c, 0, 83, 31
1, 231045, Note_off_c, 0, 83, 127
1, 231047, Note_off_c, 0, 84, 39
1, 231056, Note_on_c, 0, 89, 87
1, 231060, Note_on_c, 0, 84, 38
1, 231060, Note_off_c, 0, 84, 127
1, 231065, Poly_aftertouch_c, 0, 86, 0
1, 231076, Note_on_c, 0, 91, 81
1, 231079, Note_off_c, 0, 88, 70
1, 231094, Note_off_c, 0, 89, 69
1, 231095, Note_on_c, 0, 93, 77
1, 231099, Note_off_c, 0, 91, 66
1, 231111, Note_off_c, 0, 93, 68
1, 231125, Note_on_c, 0, 95, 45
1, 231125, Note_off_c, 0, 95, 127
1, 231132, Note_on_c, 0, 77, 99
1, 231139, Note_on_c, 0, 74, 87
1, 231154, Note_on_c, 0, 98, 109
1, 231160, Note_on_c, 0, 93, 101
1, 231166, Note_off_c, 0, 77, 71
1, 231173, Note_off_c, 0, 74, 63
1, 231297, Note_off_c, 0, 98, 49
1, 231319, Note_on_c, 0, 96, 82
1, 231320, Note_off_c, 0, 93, 65
1, 231332, Note_on_c, 0, 91, 68
1, 231338, Note_off_c, 0, 96, 72
1, 231355, Note_off_c, 0, 91, 68
1, 231361, Note_on_c, 0, 95, 78
1, 231374, Note_on_c, 0, 89, 78
1, 231376, Note_off_c, 0, 95, 69
1, 231386, Note_on_c, 0, 93, 84
1, 231394, Note_off_c, 0, 89, 71
1, 231405, Note_off_c, 0, 93, 72
1, 231406, Note_on_c, 0, 88, 82
1, 231426, Note_on_c, 0, 91, 83
1, 231426, Note_off_c, 0, 88, 70
1, 231451, Note_off_c, 0, 91, 72
1, 231453, Note_on_c, 0, 86, 79
1, 231478, Note_on_c, 0, 89, 85
1, 231478, Note_off_c, 0, 86, 63
1, 231492, Note_on_c, 0, 84, 79
1, 231493, Note_off_c, 0, 89, 71
1, 231510, Note_on_c, 0, 88, 82
1, 231511, Note_off_c, 0, 84, 72
1, 231523, Note_on_c, 0, 83, 78
1, 231531, Note_off_c, 0, 88, 71
1, 231542, Note_on_c, 0, 86, 83
1, 231542, Note_off_c, 0, 83, 72
1, 231553, Note_on_c, 0, 81, 79
1, 231560, Note_off_c, 0, 86, 71
1, 231585, Note_off_c, 0, 81, 64
1, 231591, Note_on_c, 0, 84, 76
1, 231596, Note_on_c, 0, 79, 73
1, 231605, Note_off_c, 0, 84, 70
1, 231620, Note_off_c, 0, 79, 70
1, 231629, Note_on_c, 0, 83, 66
1, 231635, Note_on_c, 0, 77, 65
1, 231646, Note_off_c, 0, 83, 64
1, 231651, Note_off_c, 0, 77, 66
1, 231659, Note_on_c, 0, 81, 57
1, 231673, Note_on_c, 0, 76, 69
1, 231679, Note_off_c, 0, 81, 63
1, 231689, Note_off_c, 0, 76, 65
1, 231703, Note_on_c, 0, 79, 49
1, 231704, Note_on_c, 0, 74, 72
1, 231720, Note_off_c, 0, 74, 67
1, 231725, Note_on_c, 0, 77, 55
1, 231728, Note_off_c, 0, 79, 63
1, 231736, Note_on_c, 0, 72, 74
1, 231743, Note_off_c, 0, 77, 65
1, 231763, Note_off_c, 0, 72, 62
1, 231772, Note_on_c, 0, 76, 51
1, 231778, Note_on_c, 0, 71, 74
1, 231800, Note_off_c, 0, 76, 53
1, 231802, Note_off_c, 0, 71, 70
1, 231805, Note_on_c, 0, 74, 66
1, 231809, Note_on_c, 0, 61, 84
1, 231825, Note_off_c, 0, 74, 63
1, 231826, Control_c, 0, 64, 83
1, 231841, Control_c, 0, 64, 0
1, 231991, Note_on_c, 0, 68, 68
1, 231995, Note_on_c, 0, 73, 88
1, 232003, Control_c, 0, 67, 21
1, 232011, Note_off_c, 0, 73, 74
1, 232033, Control_c, 0, 64, 49
1, 232033, Control_c, 0, 67, 23
1, 232047, Control_c, 0, 64, 58
1, 232056, Note_on_c, 0, 73, 86
1, 232062, Control_c, 0, 64, 60
1, 232073, Note_off_c, 0, 73, 73
1, 232077, Control_c, 0, 64, 63
1, 232092, Control_c, 0, 64, 65
1, 232107, Control_c, 0, 64, 65
1, 232110, Note_on_c, 0, 73, 71
1, 232118, Note_off_c, 0, 61, 58
1, 232121, Control_c, 0, 64, 67
1, 232136, Control_c, 0, 64, 69
1, 232145, Note_off_c, 0, 73, 64
1, 232151, Control_c, 0, 64, 72
1, 232166, Control_c, 0, 64, 74
1, 232175, Note_on_c, 0, 84, 70
1, 232181, Control_c, 0, 64, 76
1, 232191, Note_off_c, 0, 84, 66
1, 232202, Note_on_c, 0, 77, 64
1, 232203, Control_c, 0, 64, 76
1, 232206, Note_off_c, 0, 68, 50
1, 232218, Control_c, 0, 64, 77
1, 232233, Control_c, 0, 64, 79
1, 232248, Control_c, 0, 64, 83
1, 232252, Note_off_c, 0, 77, 61
1, 232262, Control_c, 0, 64, 87
1, 232277, Control_c, 0, 64, 92
1, 232292, Control_c, 0, 64, 94
1, 232307, Control_c, 0, 64, 95
1, 232322, Control_c, 0, 64, 97
1, 232336, Control_c, 0, 64, 101
1, 232351, Control_c, 0, 64, 110
1, 232361, Note_on_c, 0, 73, 81
1, 232366, Control_c, 0, 64, 127
1, 232380, Note_off_c, 0, 73, 71
1, 232384, Note_on_c, 0, 68, 50
1, 232416, Note_on_c, 0, 73, 80
1, 232435, Note_off_c, 0, 73, 73
1, 232486, Note_on_c, 0, 73, 72
1, 232508, Note_off_c, 0, 73, 70
1, 232509, Note_off_c, 0, 68, 59
1, 232531, Control_c, 0, 67, 21
1, 232536, Note_on_c, 0, 61, 58
1, 232551, Note_on_c, 0, 73, 86
1, 232572, Note_off_c, 0, 73, 71
1, 232609, Note_on_c, 0, 73, 83
1, 232625, Note_off_c, 0, 73, 73
1, 232634, Control_c, 0, 67, 0
1, 232669, Note_off_c, 0, 61, 52
1, 232672, Note_on_c, 0, 68, 65
1, 232678, Note_on_c, 0, 73, 74
1, 232698, Note_off_c, 0, 73, 71
1, 232699, Note_off_c, 0, 68, 66
1, 232732, Note_on_c, 0, 73, 85
1, 232751, Note_off_c, 0, 73, 71
1, 232780, Note_on_c, 0, 73, 84
1, 232801, Note_off_c, 0, 73, 72
1, 232834, Note_on_c, 0, 73, 80
1, 232857, Control_c, 0, 64, 75
1, 232859, Note_off_c, 0, 73, 65
1, 232871, Control_c, 0, 64, 0
1, 232906, Note_on_c, 0, 67, 73
1, 232908, Note_on_c, 0, 64, 62
1, 232923, Note_on_c, 0, 57, 60
1, 232998, Control_c, 0, 64, 41
1, 233012, Control_c, 0, 64, 52
1, 233021, Note_off_c, 0, 64, 56
1, 233027, Control_c, 0, 64, 56
1, 233027, Control_c, 0, 67, 20
1, 233042, Control_c, 0, 64, 62
1, 233042, Control_c, 0, 67, 23
1, 233057, Control_c, 0, 64, 65
1, 233057, Control_c, 0, 67, 25
1, 233071, Note_off_c, 0, 57, 64
1, 233072, Control_c, 0, 64, 67
1, 233072, Control_c, 0, 67, 28
1, 233086, Control_c, 0, 64, 68
1, 233086, Control_c, 0, 67, 31
1, 233101, Control_c, 0, 64, 69
1, 233101, Control_c, 0, 67, 33
1, 233116, Control_c, 0, 64, 71
1, 233116, Control_c, 0, 67, 33
1, 233130, Control_c, 0, 64, 76
1, 233145, Control_c, 0, 64, 83
1, 233158, Note_off_c, 0, 67, 62
1, 233160, Control_c, 0, 64, 93
1, 233160, Control_c, 0, 67, 32
1, 233175, Control_c, 0, 64, 109
1, 233183, Note_on_c, 0, 76, 29
1, 233189, Note_on_c, 0, 64, 44
1, 233190, Control_c, 0, 64, 127
1, 233190, Control_c, 0, 67, 29
1, 233204, Control_c, 0, 67, 27
1, 233218, Note_off_c, 0, 76, 44
1, 233219, Control_c, 0, 67, 25
1, 233224, Note_on_c, 0, 77, 49
1, 233236, Note_off_c, 0, 64, 62
1, 233242, Note_on_c, 0, 67, 61
1, 233248, Note_off_c, 0, 77, 55
1, 233249, Control_c, 0, 67, 22
1, 233274, Note_on_c, 0, 79, 56
1, 233293, Control_c, 0, 67, 19
1, 233294, Note_off_c, 0, 79, 63
1, 233299, Note_on_c, 0, 81, 63
1, 233302, Note_off_c, 0, 67, 62
1, 233308, Control_c, 0, 67, 0
1, 233319, Note_off_c, 0, 81, 63
1, 233326, Note_on_c, 0, 83, 65
1, 233343, Note_off_c, 0, 83, 63
1, 233345, Note_on_c, 0, 84, 77
1, 233356, Note_on_c, 0, 72, 59
1, 233359, Note_off_c, 0, 84, 67
1, 233364, Note_on_c, 0, 86, 76
1, 233379, Note_off_c, 0, 86, 68
1, 233385, Note_on_c, 0, 88, 82
1, 233392, Note_off_c, 0, 72, 62
1, 233400, Note_off_c, 0, 88, 71
1, 233406, Note_on_c, 0, 89, 86
1, 233427, Note_on_c, 0, 91, 86
1, 233440, Note_off_c, 0, 89, 42
1, 233445, Note_on_c, 0, 93, 84
1, 233454, Note_off_c, 0, 91, 45
1, 233457, Note_off_c, 0, 93, 71
1, 233466, Note_on_c, 0, 95, 76
1, 233481, Note_off_c, 0, 95, 43
1, 233506, Note_on_c, 0, 76, 99
1, 233517, Note_on_c, 0, 72, 77
1, 233531, Note_on_c, 0, 100, 107
1, 233537, Note_on_c, 0, 96, 64
1, 233537, Note_off_c, 0, 72, 70
1, 233549, Note_off_c, 0, 76, 71
1, 233727, Note_on_c, 0, 98, 84
1, 233737, Note_off_c, 0, 100, 56
1, 233741, Note_off_c, 0, 96, 0
1, 233742, Note_on_c, 0, 95, 63
1, 233755, Note_on_c, 0, 96, 64
1, 233764, Note_off_c, 0, 98, 65
1, 233777, Note_on_c, 0, 93, 76
1, 233784, Note_off_c, 0, 95, 0
1, 233803, Note_off_c, 0, 93, 63
1, 233810, Note_off_c, 0, 96, 62
1, 233815, Note_on_c, 0, 91, 77
1, 233821, Poly_aftertouch_c, 0, 95, 127
1, 233836, Note_off_c, 0, 91, 66
1, 233838, Poly_aftertouch_c, 0, 95, 0
1, 233856, Note_on_c, 0, 89, 78
1, 233861, Poly_aftertouch_c, 0, 93, 127
1, 233875, Note_on_c, 0, 91, 92
1, 233877, Note_off_c, 0, 89, 71
1, 233879, Poly_aftertouch_c, 0, 93, 0
1, 233891, Note_on_c, 0, 88, 80
1, 233916, Note_on_c, 0, 89, 83
1, 233922, Note_on_c, 0, 86, 75
1, 233929, Note_off_c, 0, 91, 60
1, 233954, Note_off_c, 0, 89, 65
1, 233957, Note_on_c, 0, 84, 81
1, 233962, Note_off_c, 0, 86, 0
1, 233969, Note_on_c, 0, 86, 83
1, 233971, Note_off_c, 0, 84, 70
1, 233981, Note_off_c, 0, 88, 58
1, 233984, Note_on_c, 0, 83, 80
1, 234005, Note_on_c, 0, 84, 84
1, 234008, Note_on_c, 0, 81, 78
1, 234020, Note_off_c, 0, 86, 58
1, 234025, Note_off_c, 0, 83, 0
1, 234035, Note_on_c, 0, 83, 68
1, 234038, Note_on_c, 0, 79, 79
1, 234053, Note_off_c, 0, 84, 62
1, 234071, Note_on_c, 0, 77, 73
1, 234074, Note_off_c, 0, 83, 65
1, 234075, Note_off_c, 0, 79, 0
1, 234085, Note_off_c, 0, 81, 66
1, 234097, Note_off_c, 0, 77, 0
1, 234100, Note_on_c, 0, 76, 76
1, 234115, Poly_aftertouch_c, 0, 79, 0
1, 234123, Note_on_c, 0, 74, 77
1, 234133, Note_off_c, 0, 76, 0
1, 234136, Poly_aftertouch_c, 0, 77, 0
1, 234144, Note_on_c, 0, 76, 64
1, 234150, Note_off_c, 0, 74, 0
1, 234156, Note_on_c, 0, 72, 67
1, 234169, Note_off_c, 0, 76, 66
1, 234171, Poly_aftertouch_c, 0, 74, 0
1, 234174, Note_off_c, 0, 72, 66
1, 234175, Control_c, 0, 64, 102
1, 234175, Control_c, 0, 67, 23
1, 234176, Note_on_c, 0, 61, 74
1, 234190, Control_c, 0, 64, 63
1, 234190, Control_c, 0, 67, 34
1, 234205, Control_c, 0, 64, 0
1, 234205, Control_c, 0, 67, 52
1, 234220, Control_c, 0, 67, 83
1, 234235, Control_c, 0, 67, 115
1, 234250, Control_c, 0, 67, 127
1, 234372, Note_on_c, 0, 73, 75
1, 234378, Note_on_c, 0, 68, 60
1, 234386, Note_off_c, 0, 73, 70
1, 234413, Control_c, 0, 64, 43
1, 234428, Control_c, 0, 64, 54
1, 234435, Poly_aftertouch_c, 0, 74, 0
1, 234449, Control_c, 0, 64, 61
1, 234452, Note_on_c, 0, 74, 20
1, 234452, Note_off_c, 0, 74, 127
1, 234464, Control_c, 0, 64, 65
1, 234479, Control_c, 0, 64, 66
1, 234485, Note_on_c, 0, 73, 77
1, 234494, Control_c, 0, 64, 67
1, 234509, Control_c, 0, 64, 68
1, 234510, Note_off_c, 0, 61, 58
1, 234520, Note_off_c, 0, 73, 63
1, 234524, Control_c, 0, 64, 70
1, 234539, Note_on_c, 0, 85, 77
1, 234539, Control_c, 0, 64, 74
1, 234548, Note_on_c, 0, 80, 67
1, 234554, Control_c, 0, 64, 77
1, 234558, Note_off_c, 0, 85, 72
1, 234564, Note_off_c, 0, 80, 66
1, 234568, Control_c, 0, 64, 80
1, 234577, Note_on_c, 0, 77, 57
1, 234583, Control_c, 0, 64, 82
1, 234598, Control_c, 0, 64, 84
1, 234613, Control_c, 0, 64, 87
1, 234613, Note_off_c, 0, 68, 35
1, 234628, Control_c, 0, 64, 93
1, 234643, Control_c, 0, 64, 102
1, 234657, Note_off_c, 0, 77, 63
1, 234657, Control_c, 0, 64, 119
1, 234671, Control_c, 0, 64, 127
1, 234734, Note_on_c, 0, 73, 85
1, 234745, Note_on_c, 0, 68, 50
1, 234753, Note_off_c, 0, 73, 71
1, 234799, Note_on_c, 0, 74, 80
1, 234819, Note_off_c, 0, 74, 71
1, 234852, Note_off_c, 0, 68, 59
1, 234857, Note_on_c, 0, 73, 82
1, 234860, Note_on_c, 0, 61, 52
1, 234874, Note_off_c, 0, 73, 72
1, 234929, Note_on_c, 0, 73, 93
1, 234943, Note_off_c, 0, 73, 77
1, 234984, Note_on_c, 0, 73, 88
1, 235004, Note_off_c, 0, 73, 69
1, 235007, Note_on_c, 0, 68, 70
1, 235019, Note_off_c, 0, 61, 52
1, 235033, Note_off_c, 0, 68, 69
1, 235045, Note_on_c, 0, 73, 77
1, 235072, Control_c, 0, 67, 118
1, 235084, Note_off_c, 0, 73, 0
1, 235087, Control_c, 0, 67, 97
1, 235102, Control_c, 0, 67, 70
1, 235116, Control_c, 0, 67, 41
1, 235122, Poly_aftertouch_c, 0, 73, 0
1, 235131, Control_c, 0, 67, 0
1, 235148, Note_on_c, 0, 73, 87
1, 235168, Note_on_c, 0, 74, 5
1, 235177, Note_off_c, 0, 73, 67
1, 235200, Note_on_c, 0, 73, 83
1, 235227, Control_c, 0, 64, 95
1, 235236, Note_off_c, 0, 74, 35
1, 235239, Note_off_c, 0, 73, 64
1, 235242, Control_c, 0, 64, 54
1, 235254, Note_on_c, 0, 62, 94
1, 235254, Note_on_c, 0, 65, 100
1, 235256, Note_on_c, 0, 55, 82
1, 235257, Control_c, 0, 64, 0
1, 235331, Control_c, 0, 64, 56
1, 235346, Control_c, 0, 64, 110
1, 235361, Control_c, 0, 64, 127
1, 235361, Note_off_c, 0, 62, 60
1, 235367, Note_off_c, 0, 55, 62
1, 235418, Note_off_c, 0, 65, 55
1, 235444, Note_on_c, 0, 62, 95
1, 235452, Note_on_c, 0, 81, 83
1, 235460, Note_on_c, 0, 77, 69
1, 235477, Note_on_c, 0, 83, 63
1, 235481, Note_off_c, 0, 77, 64
1, 235488, Note_on_c, 0, 65, 61
1, 235492, Note_off_c, 0, 81, 66
1, 235518, Note_off_c, 0, 62, 64
1, 235526, Note_on_c, 0, 84, 81
1, 235532, Note_off_c, 0, 83, 63
1, 235547, Note_off_c, 0, 84, 65
1, 235549, Note_on_c, 0, 86, 88
1, 235571, Note_on_c, 0, 88, 82
1, 235576, Note_off_c, 0, 65, 62
1, 235585, Note_on_c, 0, 71, 83
1, 235592, Note_on_c, 0, 89, 88
1, 235604, Note_off_c, 0, 86, 38
1, 235612, Note_off_c, 0, 89, 0
1, 235613, Note_on_c, 0, 91, 89
1, 235624, Note_off_c, 0, 88, 58
1, 235631, Note_on_c, 0, 93, 96
1, 235636, Note_off_c, 0, 71, 66
1, 235639, Poly_aftertouch_c, 0, 89, 0
1, 235651, Note_on_c, 0, 95, 89
1, 235660, Note_off_c, 0, 91, 65
1, 235671, Note_on_c, 0, 96, 95
1, 235680, Note_off_c, 0, 93, 67
1, 235689, Note_on_c, 0, 98, 98
1, 235695, Note_on_c, 0, 70, 57
1, 235699, Note_off_c, 0, 95, 67
1, 235710, Note_on_c, 0, 100, 94
1, 235719, Note_off_c, 0, 96, 68
1, 235735, Note_on_c, 0, 101, 83
1, 235735, Note_off_c, 0, 98, 70
1, 235742, Note_off_c, 0, 70, 55
1, 235753, Note_off_c, 0, 101, 71
1, 235755, Note_off_c, 0, 100, 67
1, 235773, Note_on_c, 0, 103, 45
1, 235773, Note_off_c, 0, 103, 127
1, 235800, Note_on_c, 0, 77, 100
1, 235801, Note_on_c, 0, 71, 100
1, 235808, Note_on_c, 0, 105, 118
1, 235814, Note_on_c, 0, 101, 113
1, 235838, Note_off_c, 0, 71, 70
1, 235839, Note_off_c, 0, 77, 70
1, 235964, Note_on_c, 0, 100, 68
1, 235967, Note_on_c, 0, 103, 99
1, 235974, Note_off_c, 0, 105, 37
1, 235999, Note_off_c, 0, 103, 66
1, 236003, Note_on_c, 0, 98, 76
1, 236008, Note_off_c, 0, 100, 0
1, 236023, Note_off_c, 0, 98, 69
1, 236033, Note_off_c, 0, 101, 61
1, 236034, Note_on_c, 0, 96, 87
1, 236044, Poly_aftertouch_c, 0, 100, 127
1, 236050, Note_on_c, 0, 98, 78
1, 236061, Poly_aftertouch_c, 0, 100, 0
1, 236068, Note_off_c, 0, 96, 0
1, 236070, Note_on_c, 0, 95, 82
1, 236098, Note_off_c, 0, 98, 68
1, 236098, Note_off_c, 0, 95, 0
1, 236101, Note_on_c, 0, 93, 84
1, 236104, Poly_aftertouch_c, 0, 96, 127
1, 236130, Note_on_c, 0, 91, 89
1, 236130, Poly_aftertouch_c, 0, 96, 0
1, 236131, Note_off_c, 0, 93, 0
1, 236136, Poly_aftertouch_c, 0, 95, 127
1, 236150, Poly_aftertouch_c, 0, 95, 0
1, 236157, Note_on_c, 0, 89, 95
1, 236159, Note_off_c, 0, 91, 0
1, 236168, Poly_aftertouch_c, 0, 93, 127
1, 236173, Poly_aftertouch_c, 0, 93, 0
1, 236181, Note_on_c, 0, 88, 93
1, 236190, Note_off_c, 0, 89, 0
1, 236196, Poly_aftertouch_c, 0, 91, 127
1, 236197, Note_on_c, 0, 89, 80
1, 236205, Note_on_c, 0, 86, 89
1, 236206, Poly_aftertouch_c, 0, 91, 0
1, 236229, Note_off_c, 0, 89, 67
1, 236234, Note_on_c, 0, 84, 91
1, 236234, Note_off_c, 0, 86, 0
1, 236252, Note_off_c, 0, 88, 67
1, 236257, Note_on_c, 0, 83, 95
1, 236258, Note_off_c, 0, 84, 0
1, 236271, Poly_aftertouch_c, 0, 86, 127
1, 236280, Note_on_c, 0, 81, 94
1, 236282, Poly_aftertouch_c, 0, 86, 0
1, 236284, Note_off_c, 0, 83, 0
1, 236294, Poly_aftertouch_c, 0, 84, 127
1, 236303, Poly_aftertouch_c, 0, 84, 0
1, 236305, Note_on_c, 0, 79, 92
1, 236321, Poly_aftertouch_c, 0, 83, 0
1, 236329, Note_on_c, 0, 77, 85
1, 236335, Note_off_c, 0, 79, 0
1, 236339, Note_off_c, 0, 81, 67
1, 236342, Note_on_c, 0, 79, 90
1, 236349, Note_off_c, 0, 77, 0
1, 236354, Note_on_c, 0, 76, 90
1, 236372, Note_off_c, 0, 79, 66
1, 236375, Note_on_c, 0, 74, 86
1, 236375, Note_off_c, 0, 76, 0
1, 236391, Poly_aftertouch_c, 0, 77, 0
1, 236393, Note_off_c, 0, 74, 0
1, 236395, Note_on_c, 0, 72, 85
1, 236411, Poly_aftertouch_c, 0, 76, 0
1, 236417, Note_on_c, 0, 71, 89
1, 236417, Note_off_c, 0, 72, 0
1, 236428, Note_on_c, 0, 72, 81
1, 236432, Poly_aftertouch_c, 0, 74, 0
1, 236434, Note_off_c, 0, 71, 0
1, 236439, Note_on_c, 0, 69, 87
1, 236456, Note_off_c, 0, 72, 65
1, 236458, Note_on_c, 0, 67, 88
1, 236472, Poly_aftertouch_c, 0, 71, 0
1, 236477, Note_on_c, 0, 65, 90
1, 236491, Note_on_c, 0, 43, 86
1, 236491, Note_off_c, 0, 69, 64
1, 236499, Note_off_c, 0, 67, 73
1, 236503, Note_on_c, 0, 64, 72
1, 236505, Note_on_c, 0, 50, 91
1, 236509, Note_off_c, 0, 65, 68
1, 236526, Note_off_c, 0, 64, 69
1, 236533, Note_on_c, 0, 62, 67
1, 236550, Note_off_c, 0, 62, 62
1, 236560, Note_on_c, 0, 53, 94
1, 236653, Note_on_c, 0, 59, 100
1, 236658, Note_on_c, 0, 57, 100
1, 236715, Note_off_c, 0, 57, 59
1, 236725, Control_c, 0, 64, 82
1, 236740, Control_c, 0, 64, 60
1, 236755, Control_c, 0, 64, 0
1, 236784, Control_c, 0, 67, 21
1, 236799, Control_c, 0, 64, 54
1, 236799, Control_c, 0, 67, 23
1, 236814, Control_c, 0, 64, 99
1, 236816, Note_off_c, 0, 53, 60
1, 236829, Control_c, 0, 64, 127
1, 236829, Control_c, 0, 67, 26
1, 236844, Note_off_c, 0, 59, 69
1, 236858, Control_c, 0, 67, 28
1, 236873, Control_c, 0, 67, 30
1, 236888, Control_c, 0, 67, 32
1, 236903, Control_c, 0, 67, 35
1, 236917, Control_c, 0, 67, 38
1, 236932, Control_c, 0, 67, 43
1, 236935, Note_on_c, 0, 57, 104
1, 236947, Note_on_c, 0, 53, 85
1, 236947, Control_c, 0, 67, 47
1, 236962, Control_c, 0, 67, 52
1, 236969, Note_off_c, 0, 43, 63
1, 236977, Control_c, 0, 67, 61
1, 236992, Control_c, 0, 67, 71
1, 237007, Control_c, 0, 67, 78
1, 237016, Note_off_c, 0, 50, 61
1, 237022, Control_c, 0, 67, 80
1, 237049, Note_off_c, 0, 53, 39
1, 237075, Note_on_c, 0, 59, 57
1, 237089, Note_off_c, 0, 57, 62
1, 237110, Note_on_c, 0, 55, 54
1, 237144, Note_on_c, 0, 60, 74
1, 237151, Note_off_c, 0, 55, 43
1, 237153, Note_on_c, 0, 57, 52
1, 237155, Control_c, 0, 67, 79
1, 237184, Control_c, 0, 67, 78
1, 237185, Note_off_c, 0, 59, 0
1, 237196, Note_on_c, 0, 62, 73
1, 237198, Note_on_c, 0, 59, 44
1, 237209, Note_off_c, 0, 60, 63
1, 237218, Note_off_c, 0, 57, 60
1, 237243, Control_c, 0, 67, 77
1, 237248, Note_off_c, 0, 62, 59
1, 237251, Note_on_c, 0, 60, 47
1, 237260, Note_on_c, 0, 64, 75
1, 237263, Note_off_c, 0, 59, 56
1, 237273, Control_c, 0, 67, 77
1, 237281, Note_off_c, 0, 64, 57
1, 237291, Note_on_c, 0, 62, 53
1, 237296, Note_on_c, 0, 65, 81
1, 237299, Note_off_c, 0, 60, 60
1, 237329, Note_off_c, 0, 65, 52
1, 237338, Note_off_c, 0, 62, 45
1, 237350, Note_on_c, 0, 67, 76
1, 237374, Note_off_c, 0, 67, 60
1, 237377, Poly_aftertouch_c, 0, 64, 0
1, 237397, Note_on_c, 0, 69, 74
1, 237409, Note_on_c, 0, 65, 65
1, 237414, Note_off_c, 0, 69, 68
1, 237430, Note_off_c, 0, 65, 63
1, 237445, Note_on_c, 0, 71, 75
1, 237445, Control_c, 0, 67, 77
1, 237460, Control_c, 0, 67, 78
1, 237460, Note_off_c, 0, 71, 69
1, 237466, Note_on_c, 0, 67, 56
1, 237474, Control_c, 0, 67, 79
1, 237478, Note_on_c, 0, 72, 76
1, 237482, Note_off_c, 0, 67, 69
1, 237489, Control_c, 0, 67, 80
1, 237497, Note_on_c, 0, 69, 51
1, 237501, Note_off_c, 0, 72, 67
1, 237504, Control_c, 0, 67, 82
1, 237518, Control_c, 0, 67, 86
1, 237524, Note_off_c, 0, 69, 53
1, 237531, Note_on_c, 0, 74, 76
1, 237533, Control_c, 0, 67, 98
1, 237548, Control_c, 0, 67, 115
1, 237555, Note_off_c, 0, 74, 62
1, 237563, Control_c, 0, 67, 127
1, 237569, Note_on_c, 0, 71, 33
1, 237585, Note_on_c, 0, 76, 76
1, 237597, Note_off_c, 0, 71, 58
1, 237600, Note_off_c, 0, 76, 68
1, 237609, Note_on_c, 0, 72, 51
1, 237627, Note_on_c, 0, 77, 70
1, 237631, Note_off_c, 0, 72, 60
1, 237642, Note_off_c, 0, 77, 68
1, 237652, Control_c, 0, 64, 94
1, 237667, Control_c, 0, 64, 82
1, 237670, Note_on_c, 0, 79, 71
1, 237676, Note_on_c, 0, 74, 25
1, 237682, Control_c, 0, 64, 74
1, 237686, Note_off_c, 0, 79, 68
1, 237697, Note_on_c, 0, 76, 37
1, 237697, Control_c, 0, 64, 66
1, 237711, Note_on_c, 0, 81, 71
1, 237712, Control_c, 0, 64, 59
1, 237716, Note_off_c, 0, 74, 42
1, 237724, Note_off_c, 0, 76, 33
1, 237726, Control_c, 0, 64, 42
1, 237727, Note_off_c, 0, 81, 63
1, 237741, Control_c, 0, 64, 0
1, 237752, Note_on_c, 0, 77, 20
1, 237755, Note_on_c, 0, 83, 73
1, 237770, Note_off_c, 0, 77, 35
1, 237776, Note_off_c, 0, 83, 69
1, 237797, Note_on_c, 0, 84, 73
1, 237826, Note_off_c, 0, 84, 61
1, 237840, Note_on_c, 0, 86, 71
1, 237860, Control_c, 0, 64, 32
1, 237868, Note_off_c, 0, 86, 58
1, 237874, Control_c, 0, 64, 56
1, 237886, Note_on_c, 0, 88, 69
1, 237889, Control_c, 0, 64, 64
1, 237904, Note_off_c, 0, 88, 69
1, 237904, Control_c, 0, 64, 69
1, 237919, Control_c, 0, 64, 74
1, 237928, Note_on_c, 0, 89, 69
1, 237934, Control_c, 0, 64, 80
1, 237945, Note_off_c, 0, 89, 65
1, 237949, Control_c, 0, 64, 85
1, 237964, Control_c, 0, 64, 89
1, 237967, Note_on_c, 0, 91, 66
1, 237967, Poly_aftertouch_c, 0, 84, 127
1, 237979, Control_c, 0, 64, 95
1, 237983, Note_off_c, 0, 91, 66
1, 237993, Poly_aftertouch_c, 0, 84, 0
1, 237993, Control_c, 0, 64, 104
1, 237999, Note_on_c, 0, 93, 68
1, 238008, Control_c, 0, 64, 114
1, 238017, Note_off_c, 0, 93, 58
1, 238023, Control_c, 0, 64, 127
1, 238044, Note_on_c, 0, 95, 64
1, 238071, Note_off_c, 0, 95, 51
1, 238093, Note_on_c, 0, 96, 64
1, 238107, Note_on_c, 0, 93, 27
1, 238114, Note_off_c, 0, 96, 60
1, 238142, Note_off_c, 0, 93, 53
1, 238166, Note_on_c, 0, 77, 61
1, 238172, Note_on_c, 0, 61, 50
1, 238177, Note_on_c, 0, 68, 58
1, 238238, Control_c, 0, 64, 85
1, 238240, Note_off_c, 0, 68, 52
1, 238253, Control_c, 0, 64, 60
1, 238258, Note_on_c, 0, 97, 89
1, 238268, Control_c, 0, 64, 0
1, 238271, Note_on_c, 0, 92, 67
1, 238282, Note_on_c, 0, 85, 63
1, 238289, Note_off_c, 0, 92, 67
1, 238290, Note_off_c, 0, 97, 64
1, 238300, Note_off_c, 0, 85, 68
1, 238312, Control_c, 0, 64, 45
1, 238327, Control_c, 0, 64, 66
1, 238342, Control_c, 0, 64, 76
1, 238357, Control_c, 0, 64, 87
1, 238372, Control_c, 0, 64, 93
1, 238387, Control_c, 0, 64, 97
1, 238402, Control_c, 0, 64, 100
1, 238467, Note_off_c, 0, 77, 40
1, 238494, Note_on_c, 0, 68, 49
1, 238507, Note_on_c, 0, 73, 78
1, 238528, Note_off_c, 0, 73, 70
1, 238548, Note_off_c, 0, 61, 52
1, 238565, Note_on_c, 0, 73, 76
1, 238586, Note_off_c, 0, 73, 71
1, 238638, Control_c, 0, 64, 102
1, 238639, Note_on_c, 0, 73, 56
1, 238656, Note_off_c, 0, 73, 66
1, 238667, Control_c, 0, 64, 105
1, 238674, Note_on_c, 0, 85, 82
1, 238687, Note_on_c, 0, 80, 68
1, 238693, Note_off_c, 0, 85, 73
1, 238703, Note_off_c, 0, 80, 66
1, 238722, Note_on_c, 0, 77, 22
1, 238734, Note_off_c, 0, 68, 44
1, 238742, Control_c, 0, 64, 107
1, 238786, Control_c, 0, 64, 110
1, 238816, Control_c, 0, 64, 113
1, 238831, Control_c, 0, 64, 116
1, 238846, Control_c, 0, 64, 127
1, 238882, Note_off_c, 0, 77, 50
1, 238882, Note_on_c, 0, 73, 66
1, 238900, Note_off_c, 0, 73, 66
1, 238918, Note_on_c, 0, 68, 40
1, 238960, Note_on_c, 0, 73, 53
1, 238995, Note_off_c, 0, 73, 0
1, 239009, Note_on_c, 0, 73, 46
1, 239033, Note_off_c, 0, 73, 59
1, 239078, Note_off_c, 0, 68, 47
1, 239079, Note_on_c, 0, 73, 84
1, 239088, Note_on_c, 0, 61, 49
1, 239096, Note_off_c, 0, 73, 74
1, 239137, Note_on_c, 0, 73, 73
1, 239155, Note_off_c, 0, 73, 72
1, 239203, Note_on_c, 0, 73, 65
1, 239221, Note_off_c, 0, 73, 66
1, 239267, Note_on_c, 0, 73, 88
1, 239284, Note_off_c, 0, 73, 74
1, 239287, Note_off_c, 0, 61, 40
1, 239301, Note_on_c, 0, 68, 52
1, 239319, Note_on_c, 0, 73, 78
1, 239338, Note_off_c, 0, 73, 73
1, 239376, Note_on_c, 0, 73, 67
1, 239396, Note_off_c, 0, 73, 72
1, 239458, Note_on_c, 0, 61, 65
1, 239462, Note_off_c, 0, 68, 61
1, 239538, Note_off_c, 0, 61, 53
1, 239628, Note_on_c, 0, 68, 56
1, 239630, Note_on_c, 0, 73, 80
1, 239651, Note_off_c, 0, 73, 71
1, 239693, Note_on_c, 0, 73, 64
1, 239710, Note_off_c, 0, 73, 67
1, 239749, Note_on_c, 0, 73, 73
1, 239785, Note_off_c, 0, 73, 61
1, 239805, Note_on_c, 0, 85, 86
1, 239815, Note_on_c, 0, 80, 73
1, 239817, Note_on_c, 0, 77, 67
1, 239824, Note_off_c, 0, 68, 38
1, 239824, Note_off_c, 0, 85, 72
1, 239830, Note_off_c, 0, 80, 69
1, 239955, Note_off_c, 0, 77, 55
1, 240014, Note_on_c, 0, 73, 74
1, 240017, Note_on_c, 0, 68, 60
1, 240030, Note_off_c, 0, 73, 68
1, 240047, Note_off_c, 0, 68, 62
1, 240079, Note_on_c, 0, 73, 60
1, 240115, Note_off_c, 0, 73, 0
1, 240126, Note_on_c, 0, 73, 55
1, 240149, Note_off_c, 0, 73, 61
1, 240195, Note_on_c, 0, 73, 91
1, 240210, Note_off_c, 0, 73, 77
1, 240214, Note_on_c, 0, 61, 58
1, 240256, Note_on_c, 0, 73, 84
1, 240273, Note_off_c, 0, 73, 73
1, 240298, Note_off_c, 0, 61, 36
1, 240299, Control_c, 0, 67, 111
1, 240310, Note_on_c, 0, 73, 76
1, 240313, Control_c, 0, 67, 89
1, 240328, Control_c, 0, 67, 69
1, 240332, Note_off_c, 0, 73, 70
1, 240343, Control_c, 0, 67, 50
1, 240358, Control_c, 0, 67, 39
1, 240363, Note_on_c, 0, 68, 71
1, 240373, Control_c, 0, 67, 33
1, 240378, Note_on_c, 0, 73, 91
1, 240385, Note_off_c, 0, 68, 70
1, 240387, Control_c, 0, 67, 27
1, 240399, Note_off_c, 0, 73, 72
1, 240402, Control_c, 0, 67, 20
1, 240417, Control_c, 0, 67, 0
1, 240458, Note_on_c, 0, 72, 62
1, 240458, Note_off_c, 0, 72, 127
1, 240492, Note_on_c, 0, 73, 45
1, 240536, Note_off_c, 0, 73, 61
1, 240554, Note_on_c, 0, 61, 98
1, 240585, Note_off_c, 0, 61, 67
1, 240766, Note_on_c, 0, 73, 91
1, 240784, Note_off_c, 0, 73, 73
1, 240816, Note_on_c, 0, 73, 83
1, 240830, Note_off_c, 0, 73, 77
1, 240876, Note_on_c, 0, 73, 87
1, 240906, Note_off_c, 0, 73, 64
1, 240933, Note_on_c, 0, 73, 99
1, 240957, Note_off_c, 0, 73, 65
1, 241112, Note_on_c, 0, 73, 94
1, 241130, Note_off_c, 0, 73, 72
1, 241178, Note_on_c, 0, 73, 79
1, 241208, Note_off_c, 0, 73, 67
1, 241240, Note_on_c, 0, 73, 77
1, 241255, Note_off_c, 0, 73, 75
1, 241311, Note_on_c, 0, 73, 79
1, 241327, Note_off_c, 0, 73, 68
1, 241374, Note_on_c, 0, 73, 94
1, 241388, Note_off_c, 0, 73, 76
1, 241433, Note_on_c, 0, 73, 85
1, 241448, Note_off_c, 0, 73, 76
1, 241475, Note_on_c, 0, 73, 97
1, 241498, Note_off_c, 0, 73, 65
1, 241542, Note_on_c, 0, 73, 83
1, 241554, Note_off_c, 0, 73, 79
1, 241600, Note_on_c, 0, 73, 87
1, 241618, Note_off_c, 0, 73, 72
1, 241640, Note_on_c, 0, 73, 108
1, 241662, Note_off_c, 0, 73, 67
1, 241825, Note_on_c, 0, 73, 88
1, 241845, Note_off_c, 0, 73, 71
1, 241856, Control_c, 0, 67, 19
1, 241871, Control_c, 0, 67, 24
1, 241885, Control_c, 0, 67, 28
1, 241890, Note_on_c, 0, 73, 75
1, 241900, Control_c, 0, 67, 31
1, 241907, Note_off_c, 0, 73, 72
1, 241915, Control_c, 0, 67, 33
1, 241937, Control_c, 0, 67, 37
1, 241952, Control_c, 0, 67, 44
1, 241967, Control_c, 0, 67, 58
1, 241970, Note_on_c, 0, 73, 64
1, 241982, Control_c, 0, 67, 73
1, 241994, Note_off_c, 0, 73, 64
1, 241997, Control_c, 0, 67, 85
1, 242011, Control_c, 0, 67, 93
1, 242026, Control_c, 0, 67, 100
1, 242039, Note_on_c, 0, 73, 71
1, 242041, Control_c, 0, 67, 106
1, 242054, Note_off_c, 0, 73, 71
1, 242056, Control_c, 0, 67, 113
1, 242071, Control_c, 0, 67, 120
1, 242085, Control_c, 0, 67, 126
1, 242110, Note_on_c, 0, 73, 79
1, 242116, Control_c, 0, 64, 122
1, 242128, Note_off_c, 0, 73, 72
1, 242131, Control_c, 0, 64, 103
1, 242146, Control_c, 0, 64, 93
1, 242161, Control_c, 0, 64, 87
1, 242176, Control_c, 0, 64, 81
1, 242182, Note_on_c, 0, 73, 66
1, 242190, Control_c, 0, 64, 74
1, 242203, Note_off_c, 0, 73, 71
1, 242205, Control_c, 0, 64, 68
1, 242220, Control_c, 0, 64, 63
1, 242234, Control_c, 0, 64, 63
1, 242237, Note_on_c, 0, 73, 72
1, 242249, Control_c, 0, 64, 65
1, 242262, Note_off_c, 0, 73, 68
1, 242264, Control_c, 0, 64, 69
1, 242279, Control_c, 0, 64, 72
1, 242294, Control_c, 0, 64, 74
1, 242308, Control_c, 0, 64, 76
1, 242323, Control_c, 0, 64, 78
1, 242325, Note_on_c, 0, 73, 75
1, 242338, Control_c, 0, 64, 81
1, 242346, Note_off_c, 0, 73, 66
1, 242353, Control_c, 0, 64, 83
1, 242368, Control_c, 0, 64, 85
1, 242382, Control_c, 0, 64, 86
1, 242412, Control_c, 0, 64, 86
1, 242423, Note_on_c, 0, 73, 13
1, 242441, Control_c, 0, 64, 87
1, 242456, Control_c, 0, 64, 89
1, 242471, Control_c, 0, 64, 91
1, 242476, Note_off_c, 0, 73, 59
1, 242486, Control_c, 0, 64, 92
1, 242501, Control_c, 0, 64, 92
1, 242507, Note_on_c, 0, 73, 37
1, 242516, Control_c, 0, 64, 93
1, 242530, Control_c, 0, 64, 93
1, 242545, Note_off_c, 0, 73, 65
1, 242545, Control_c, 0, 64, 94
1, 242560, Control_c, 0, 64, 95
1, 242575, Control_c, 0, 64, 96
1, 242589, Note_on_c, 0, 73, 58
1, 242632, Note_off_c, 0, 73, 60
1, 242734, Note_on_c, 0, 65, 54
1, 242758, Note_on_c, 0, 71, 56
1, 242774, Note_on_c, 0, 59, 28
1, 242775, Control_c, 0, 64, 93
1, 242790, Control_c, 0, 64, 82
1, 242805, Control_c, 0, 64, 69
1, 242820, Control_c, 0, 64, 56
1, 242834, Control_c, 0, 64, 38
1, 242849, Control_c, 0, 64, 30
1, 242864, Control_c, 0, 64, 35
1, 242879, Control_c, 0, 64, 45
1, 242885, Note_on_c, 0, 80, 82
1, 242894, Control_c, 0, 64, 54
1, 242910, Control_c, 0, 64, 58
1, 242925, Control_c, 0, 64, 62
1, 242939, Note_off_c, 0, 71, 62
1, 242939, Control_c, 0, 64, 65
1, 242945, Note_on_c, 0, 73, 24
1, 242954, Control_c, 0, 64, 69
1, 242969, Note_off_c, 0, 65, 58
1, 242969, Control_c, 0, 64, 74
1, 242984, Control_c, 0, 64, 81
1, 242999, Control_c, 0, 64, 86
1, 243013, Control_c, 0, 64, 92
1, 243020, Note_off_c, 0, 59, 63
1, 243028, Control_c, 0, 64, 99
1, 243029, Note_off_c, 0, 73, 54
1, 243043, Control_c, 0, 64, 111
1, 243058, Control_c, 0, 64, 127
1, 243080, Note_off_c, 0, 80, 63
1, 243085, Note_on_c, 0, 68, 59
1, 243118, Note_off_c, 0, 68, 65
1, 243193, Note_on_c, 0, 68, 54
1, 243211, Note_off_c, 0, 68, 63
1, 243250, Note_on_c, 0, 49, 40
1, 243260, Note_on_c, 0, 68, 70
1, 243276, Note_off_c, 0, 68, 67
1, 243314, Note_off_c, 0, 49, 52
1, 243344, Note_on_c, 0, 42, 48
1, 243352, Note_on_c, 0, 68, 43
1, 243377, Note_off_c, 0, 68, 59
1, 243385, Note_on_c, 0, 59, 43
1, 243389, Note_off_c, 0, 42, 62
1, 243392, Note_on_c, 0, 49, 17
1, 243407, Note_on_c, 0, 80, 69
1, 243452, Note_off_c, 0, 49, 56
1, 243453, Note_off_c, 0, 59, 59
1, 243456, Note_on_c, 0, 73, 31
1, 243482, Note_off_c, 0, 80, 62
1, 243492, Note_off_c, 0, 73, 53
1, 243508, Note_on_c, 0, 68, 66
1, 243539, Note_off_c, 0, 68, 65
1, 243592, Note_on_c, 0, 68, 70
1, 243611, Note_off_c, 0, 68, 68
1, 243651, Note_on_c, 0, 68, 85
1, 243666, Note_off_c, 0, 68, 69
1, 243715, Note_on_c, 0, 68, 73
1, 243735, Note_off_c, 0, 68, 68
1, 243769, Note_on_c, 0, 80, 85
1, 243779, Note_on_c, 0, 73, 65
1, 243783, Note_on_c, 0, 59, 42
1, 243788, Note_on_c, 0, 65, 43
1, 243797, Note_off_c, 0, 73, 65
1, 243804, Note_on_c, 0, 71, 36
1, 243805, Note_off_c, 0, 80, 63
1, 243809, Note_off_c, 0, 59, 57
1, 243819, Note_off_c, 0, 65, 54
1, 243836, Control_c, 0, 64, 103
1, 243839, Note_off_c, 0, 71, 52
1, 243845, Note_on_c, 0, 68, 79
1, 243851, Control_c, 0, 64, 87
1, 243866, Control_c, 0, 64, 73
1, 243881, Control_c, 0, 64, 58
1, 243896, Control_c, 0, 64, 33
1, 243902, Note_off_c, 0, 68, 63
1, 243911, Control_c, 0, 64, 0
1, 243944, Note_on_c, 0, 85, 89
1, 243958, Note_on_c, 0, 80, 64
1, 243959, Note_on_c, 0, 72, 70
1, 243960, Note_on_c, 0, 66, 51
1, 243970, Control_c, 0, 64, 39
1, 243974, Note_off_c, 0, 80, 65
1, 243981, Note_on_c, 0, 60, 35
1, 243983, Note_off_c, 0, 72, 70
1, 243985, Control_c, 0, 64, 56
1, 243987, Note_off_c, 0, 66, 63
1, 243991, Note_off_c, 0, 85, 67
1, 243999, Control_c, 0, 64, 64
1, 244012, Note_off_c, 0, 60, 49
1, 244014, Control_c, 0, 64, 69
1, 244029, Control_c, 0, 64, 72
1, 244033, Note_on_c, 0, 73, 74
1, 244044, Control_c, 0, 64, 72
1, 244062, Note_off_c, 0, 73, 61
1, 244103, Control_c, 0, 64, 72
1, 244118, Control_c, 0, 64, 71
1, 244133, Control_c, 0, 64, 71
1, 244137, Note_on_c, 0, 80, 76
1, 244148, Control_c, 0, 64, 70
1, 244154, Note_on_c, 0, 59, 42
1, 244155, Note_on_c, 0, 71, 58
1, 244165, Note_on_c, 0, 65, 51
1, 244169, Note_on_c, 0, 73, 30
1, 244185, Control_c, 0, 64, 72
1, 244200, Control_c, 0, 64, 73
1, 244200, Note_off_c, 0, 80, 66
1, 244201, Note_off_c, 0, 71, 64
1, 244209, Note_off_c, 0, 73, 46
1, 244212, Note_off_c, 0, 65, 64
1, 244214, Control_c, 0, 64, 75
1, 244229, Control_c, 0, 64, 76
1, 244238, Note_on_c, 0, 68, 63
1, 244259, Note_off_c, 0, 68, 66
1, 244259, Control_c, 0, 64, 77
1, 244276, Note_off_c, 0, 59, 36
1, 244312, Note_on_c, 0, 68, 66
1, 244329, Note_off_c, 0, 68, 67
1, 244368, Note_on_c, 0, 68, 70
1, 244390, Note_off_c, 0, 68, 38
1, 244426, Note_on_c, 0, 68, 74
1, 244461, Note_off_c, 0, 68, 61
1, 244465, Control_c, 0, 64, 76
1, 244480, Control_c, 0, 64, 74
1, 244495, Control_c, 0, 64, 72
1, 244496, Note_on_c, 0, 80, 78
1, 244510, Note_on_c, 0, 71, 65
1, 244510, Control_c, 0, 64, 68
1, 244517, Note_on_c, 0, 59, 44
1, 244519, Note_on_c, 0, 65, 51
1, 244525, Control_c, 0, 64, 65
1, 244537, Note_off_c, 0, 71, 67
1, 244540, Control_c, 0, 64, 63
1, 244541, Note_off_c, 0, 59, 63
1, 244544, Note_off_c, 0, 65, 59
1, 244549, Note_off_c, 0, 80, 63
1, 244555, Control_c, 0, 64, 62
1, 244570, Control_c, 0, 64, 63
1, 244577, Note_on_c, 0, 68, 72
1, 244584, Control_c, 0, 64, 63
1, 244599, Control_c, 0, 64, 64
1, 244613, Note_off_c, 0, 68, 61
1, 244659, Control_c, 0, 64, 62
1, 244672, Note_on_c, 0, 73, 79
1, 244674, Note_on_c, 0, 75, 79
1, 244674, Control_c, 0, 64, 54
1, 244688, Note_on_c, 0, 69, 76
1, 244689, Control_c, 0, 64, 41
1, 244690, Note_off_c, 0, 73, 72
1, 244696, Note_on_c, 0, 57, 63
1, 244696, Note_on_c, 0, 61, 62
1, 244701, Note_off_c, 0, 75, 68
1, 244703, Control_c, 0, 64, 0
1, 244707, Note_off_c, 0, 69, 71
1, 244716, Note_off_c, 0, 61, 61
1, 244718, Control_c, 0, 64, 32
1, 244721, Note_off_c, 0, 57, 64
1, 244733, Control_c, 0, 64, 40
1, 244733, Control_c, 0, 67, 115
1, 244748, Note_on_c, 0, 63, 67
1, 244748, Control_c, 0, 64, 44
1, 244748, Control_c, 0, 67, 106
1, 244763, Control_c, 0, 64, 39
1, 244777, Control_c, 0, 64, 0
1, 244789, Note_off_c, 0, 63, 62
1, 244841, Note_on_c, 0, 80, 79
1, 244855, Note_on_c, 0, 73, 60
1, 244859, Note_on_c, 0, 71, 68
1, 244867, Note_on_c, 0, 65, 48
1, 244868, Note_on_c, 0, 59, 41
1, 244877, Note_off_c, 0, 71, 67
1, 244881, Control_c, 0, 67, 108
1, 244884, Note_off_c, 0, 73, 66
1, 244893, Note_off_c, 0, 65, 56
1, 244894, Note_off_c, 0, 59, 57
1, 244896, Note_off_c, 0, 80, 64
1, 244951, Note_on_c, 0, 68, 54
1, 244980, Note_off_c, 0, 68, 57
1, 244992, Control_c, 0, 67, 106
1, 245007, Control_c, 0, 67, 104
1, 245022, Control_c, 0, 67, 100
1, 245025, Note_on_c, 0, 69, 52
1, 245026, Note_on_c, 0, 75, 64
1, 245036, Control_c, 0, 67, 88
1, 245037, Note_on_c, 0, 73, 48
1, 245040, Note_on_c, 0, 57, 38
1, 245046, Note_off_c, 0, 69, 59
1, 245051, Control_c, 0, 67, 74
1, 245056, Note_off_c, 0, 75, 66
1, 245062, Note_off_c, 0, 73, 55
1, 245066, Control_c, 0, 67, 57
1, 245075, Note_off_c, 0, 57, 46
1, 245081, Control_c, 0, 67, 40
1, 245095, Note_on_c, 0, 63, 61
1, 245096, Control_c, 0, 67, 25
1, 245110, Control_c, 0, 67, 0
1, 245127, Note_off_c, 0, 63, 65
1, 245185, Control_c, 0, 64, 33
1, 245200, Control_c, 0, 64, 45
1, 245204, Note_on_c, 0, 80, 75
1, 245215, Control_c, 0, 64, 53
1, 245230, Control_c, 0, 64, 57
1, 245237, Note_on_c, 0, 71, 47
1, 245244, Control_c, 0, 64, 60
1, 245249, Note_on_c, 0, 65, 47
1, 245259, Control_c, 0, 64, 62
1, 245264, Note_on_c, 0, 59, 38
1, 245274, Control_c, 0, 64, 63
1, 245289, Control_c, 0, 64, 66
1, 245301, Note_off_c, 0, 71, 64
1, 245303, Note_off_c, 0, 65, 64
1, 245305, Control_c, 0, 64, 69
1, 245320, Control_c, 0, 64, 74
1, 245321, Note_off_c, 0, 59, 63
1, 245334, Control_c, 0, 64, 81
1, 245349, Control_c, 0, 64, 88
1, 245364, Control_c, 0, 64, 96
1, 245369, Poly_aftertouch_c, 0, 73, 0
1, 245373, Note_off_c, 0, 80, 62
1, 245379, Note_on_c, 0, 68, 60
1, 245379, Control_c, 0, 64, 102
1, 245394, Control_c, 0, 64, 108
1, 245400, Note_off_c, 0, 68, 63
1, 245408, Control_c, 0, 64, 119
1, 245423, Control_c, 0, 64, 127
1, 245477, Note_on_c, 0, 68, 41
1, 245490, Note_on_c, 0, 49, 49
1, 245523, Note_off_c, 0, 49, 62
1, 245541, Note_off_c, 0, 68, 0
1, 245557, Note_on_c, 0, 68, 51
1, 245583, Note_on_c, 0, 42, 65
1, 245602, Note_off_c, 0, 68, 64
1, 245614, Note_off_c, 0, 42, 65
1, 245622, Note_on_c, 0, 49, 55
1, 245631, Note_on_c, 0, 80, 84
1, 245634, Note_on_c, 0, 59, 71
1, 245654, Note_off_c, 0, 49, 66
1, 245660, Note_off_c, 0, 59, 69
1, 245681, Note_off_c, 0, 80, 66
1, 245715, Poly_aftertouch_c, 0, 73, 127
1, 245721, Note_on_c, 0, 68, 71
1, 245738, Note_off_c, 0, 68, 67
1, 245753, Poly_aftertouch_c, 0, 73, 0
1, 245783, Note_on_c, 0, 68, 84
1, 245805, Note_off_c, 0, 68, 70
1, 245839, Note_on_c, 0, 68, 86
1, 245861, Note_off_c, 0, 68, 67
1, 245910, Note_on_c, 0, 68, 69
1, 245931, Note_off_c, 0, 68, 65
1, 245941, Note_on_c, 0, 65, 66
1, 245943, Note_on_c, 0, 71, 70
1, 245945, Note_on_c, 0, 59, 52
1, 245953, Note_on_c, 0, 73, 78
1, 245957, Note_on_c, 0, 80, 87
1, 245967, Note_off_c, 0, 71, 69
1, 245969, Note_off_c, 0, 65, 67
1, 245973, Note_off_c, 0, 73, 71
1, 245975, Note_off_c, 0, 59, 67
1, 245997, Note_off_c, 0, 80, 60
1, 246023, Control_c, 0, 64, 97
1, 246024, Note_on_c, 0, 68, 83
1, 246038, Control_c, 0, 64, 71
1, 246038, Control_c, 0, 67, 19
1, 246052, Control_c, 0, 64, 51
1, 246066, Note_off_c, 0, 68, 65
1, 246067, Control_c, 0, 64, 0
1, 246097, Control_c, 0, 67, 22
1, 246125, Note_on_c, 0, 85, 91
1, 246128, Note_on_c, 0, 80, 77
1, 246128, Control_c, 0, 67, 24
1, 246139, Note_on_c, 0, 72, 67
1, 246146, Note_off_c, 0, 80, 72
1, 246160, Note_on_c, 0, 66, 35
1, 246162, Note_off_c, 0, 72, 70
1, 246167, Note_off_c, 0, 85, 67
1, 246169, Note_off_c, 0, 66, 41
1, 246187, Control_c, 0, 64, 52
1, 246212, Note_on_c, 0, 73, 81
1, 246216, Control_c, 0, 64, 35
1, 246231, Control_c, 0, 64, 0
1, 246249, Note_off_c, 0, 73, 65
1, 246290, Control_c, 0, 64, 42
1, 246298, Note_on_c, 0, 80, 86
1, 246303, Note_on_c, 0, 71, 61
1, 246305, Control_c, 0, 64, 56
1, 246313, Note_on_c, 0, 65, 42
1, 246316, Note_on_c, 0, 73, 56
1, 246320, Control_c, 0, 64, 62
1, 246323, Note_off_c, 0, 71, 65
1, 246325, Note_on_c, 0, 59, 20
1, 246335, Control_c, 0, 64, 66
1, 246339, Note_off_c, 0, 73, 60
1, 246343, Note_off_c, 0, 65, 54
1, 246345, Note_off_c, 0, 80, 67
1, 246349, Control_c, 0, 64, 69
1, 246357, Note_off_c, 0, 59, 46
1, 246364, Control_c, 0, 64, 71
1, 246379, Control_c, 0, 64, 73
1, 246386, Note_on_c, 0, 68, 80
1, 246394, Control_c, 0, 64, 74
1, 246409, Control_c, 0, 64, 75
1, 246418, Note_off_c, 0, 68, 65
1, 246431, Control_c, 0, 64, 75
1, 246456, Note_on_c, 0, 68, 70
1, 246482, Note_off_c, 0, 68, 69
1, 246516, Note_on_c, 0, 68, 95
1, 246534, Note_off_c, 0, 68, 70
1, 246535, Control_c, 0, 67, 26
1, 246550, Control_c, 0, 64, 74
1, 246564, Control_c, 0, 64, 73
1, 246564, Control_c, 0, 67, 29
1, 246570, Note_on_c, 0, 68, 96
1, 246579, Control_c, 0, 64, 73
1, 246594, Control_c, 0, 64, 72
1, 246594, Control_c, 0, 67, 31
1, 246608, Control_c, 0, 64, 72
1, 246608, Control_c, 0, 67, 32
1, 246617, Note_off_c, 0, 68, 62
1, 246623, Control_c, 0, 64, 71
1, 246623, Control_c, 0, 67, 33
1, 246638, Control_c, 0, 64, 69
1, 246638, Control_c, 0, 67, 34
1, 246644, Note_on_c, 0, 80, 88
1, 246652, Note_on_c, 0, 71, 65
1, 246653, Control_c, 0, 64, 69
1, 246653, Control_c, 0, 67, 35
1, 246658, Note_on_c, 0, 65, 46
1, 246664, Note_on_c, 0, 59, 56
1, 246668, Control_c, 0, 67, 36
1, 246679, Note_off_c, 0, 71, 67
1, 246683, Control_c, 0, 64, 67
1, 246683, Control_c, 0, 67, 38
1, 246683, Note_off_c, 0, 65, 54
1, 246686, Note_off_c, 0, 80, 66
1, 246692, Note_off_c, 0, 59, 65
1, 246698, Control_c, 0, 64, 60
1, 246698, Control_c, 0, 67, 41
1, 246713, Control_c, 0, 64, 44
1, 246713, Control_c, 0, 67, 45
1, 246727, Control_c, 0, 64, 0
1, 246727, Control_c, 0, 67, 48
1, 246728, Note_on_c, 0, 68, 81
1, 246742, Control_c, 0, 64, 36
1, 246742, Control_c, 0, 67, 51
1, 246757, Control_c, 0, 64, 53
1, 246757, Control_c, 0, 67, 54
1, 246772, Control_c, 0, 64, 62
1, 246772, Control_c, 0, 67, 55
1, 246772, Note_off_c, 0, 68, 63
1, 246787, Control_c, 0, 64, 60
1, 246787, Control_c, 0, 67, 57
1, 246801, Control_c, 0, 64, 55
1, 246801, Control_c, 0, 67, 58
1, 246814, Note_on_c, 0, 69, 86
1, 246816, Control_c, 0, 64, 49
1, 246826, Note_on_c, 0, 57, 74
1, 246826, Note_on_c, 0, 74, 60
1, 246831, Control_c, 0, 64, 47
1, 246835, Note_on_c, 0, 76, 45
1, 246835, Note_off_c, 0, 69, 68
1, 246838, Note_on_c, 0, 61, 42
1, 246838, Note_off_c, 0, 61, 127
1, 246846, Control_c, 0, 64, 42
1, 246848, Note_off_c, 0, 74, 61
1, 246851, Note_off_c, 0, 57, 66
1, 246861, Control_c, 0, 64, 0
1, 246861, Control_c, 0, 67, 59
1, 246862, Note_off_c, 0, 76, 60
1, 246890, Control_c, 0, 67, 59
1, 246906, Control_c, 0, 67, 61
1, 246921, Control_c, 0, 67, 65
1, 246936, Control_c, 0, 67, 67
1, 246950, Control_c, 0, 67, 69
1, 246965, Control_c, 0, 67, 70
1, 246978, Note_on_c, 0, 80, 76
1, 246980, Control_c, 0, 67, 70
1, 246987, Note_on_c, 0, 73, 60
1, 246992, Note_on_c, 0, 71, 62
1, 246993, Note_on_c, 0, 59, 49
1, 246995, Control_c, 0, 67, 73
1, 247002, Note_on_c, 0, 65, 46
1, 247007, Note_off_c, 0, 80, 67
1, 247010, Control_c, 0, 67, 80
1, 247014, Note_off_c, 0, 73, 64
1, 247017, Note_off_c, 0, 59, 60
1, 247020, Note_off_c, 0, 71, 66
1, 247024, Control_c, 0, 67, 91
1, 247029, Note_off_c, 0, 65, 54
1, 247039, Control_c, 0, 67, 104
1, 247054, Control_c, 0, 67, 120
1, 247064, Note_on_c, 0, 68, 74
1, 247069, Control_c, 0, 67, 127
1, 247111, Note_off_c, 0, 68, 63
1, 247141, Note_on_c, 0, 73, 63
1, 247144, Note_on_c, 0, 69, 58
1, 247151, Note_on_c, 0, 75, 57
1, 247175, Note_off_c, 0, 73, 68
1, 247183, Note_off_c, 0, 69, 62
1, 247183, Note_off_c, 0, 75, 66
1, 247225, Note_on_c, 0, 63, 68
1, 247253, Note_off_c, 0, 63, 67
1, 247302, Note_on_c, 0, 55, 35
1, 247321, Note_on_c, 0, 62, 38
1, 247357, Control_c, 0, 64, 34
1, 247372, Control_c, 0, 64, 45
1, 247387, Control_c, 0, 64, 54
1, 247400, Note_on_c, 0, 67, 37
1, 247402, Control_c, 0, 64, 59
1, 247417, Control_c, 0, 64, 62
1, 247427, Note_on_c, 0, 78, 75
1, 247431, Control_c, 0, 64, 63
1, 247446, Control_c, 0, 64, 65
1, 247449, Note_off_c, 0, 62, 60
1, 247451, Note_off_c, 0, 67, 65
1, 247461, Control_c, 0, 64, 67
1, 247476, Control_c, 0, 64, 70
1, 247482, Note_off_c, 0, 55, 57
1, 247491, Control_c, 0, 64, 73
1, 247492, Note_on_c, 0, 71, 57
1, 247506, Control_c, 0, 64, 76
1, 247520, Control_c, 0, 64, 82
1, 247526, Note_off_c, 0, 71, 66
1, 247535, Control_c, 0, 64, 89
1, 247550, Control_c, 0, 64, 102
1, 247558, Note_off_c, 0, 78, 62
1, 247565, Control_c, 0, 64, 127
1, 247582, Note_on_c, 0, 66, 52
1, 247604, Note_off_c, 0, 66, 61
1, 247679, Note_on_c, 0, 66, 65
1, 247690, Note_on_c, 0, 47, 53
1, 247697, Note_off_c, 0, 66, 66
1, 247738, Note_off_c, 0, 47, 52
1, 247751, Note_on_c, 0, 66, 73
1, 247771, Note_off_c, 0, 66, 66
1, 247822, Note_on_c, 0, 40, 47
1, 247831, Note_on_c, 0, 66, 57
1, 247848, Note_off_c, 0, 66, 62
1, 247851, Note_on_c, 0, 47, 48
1, 247866, Note_off_c, 0, 40, 61
1, 247884, Note_on_c, 0, 55, 57
1, 247890, Note_on_c, 0, 78, 69
1, 247890, Note_off_c, 0, 47, 60
1, 247916, Note_off_c, 0, 55, 64
1, 247932, Note_on_c, 0, 71, 35
1, 247957, Note_off_c, 0, 78, 63
1, 247968, Note_off_c, 0, 71, 47
1, 247981, Note_on_c, 0, 66, 56
1, 248015, Note_off_c, 0, 66, 64
1, 248059, Note_on_c, 0, 66, 66
1, 248081, Note_off_c, 0, 66, 61
1, 248110, Note_on_c, 0, 66, 66
1, 248126, Note_off_c, 0, 66, 68
1, 248167, Note_on_c, 0, 66, 82
1, 248202, Note_off_c, 0, 66, 60
1, 248216, Note_on_c, 0, 62, 60
1, 248218, Note_on_c, 0, 55, 51
1, 248221, Note_on_c, 0, 67, 57
1, 248231, Note_on_c, 0, 78, 88
1, 248239, Note_off_c, 0, 62, 63
1, 248240, Note_off_c, 0, 67, 63
1, 248240, Control_c, 0, 64, 90
1, 248251, Note_off_c, 0, 55, 64
1, 248254, Control_c, 0, 64, 73
1, 248269, Control_c, 0, 64, 58
1, 248273, Note_off_c, 0, 78, 66
1, 248284, Control_c, 0, 64, 36
1, 248299, Control_c, 0, 64, 0
1, 248313, Note_on_c, 0, 66, 71
1, 248339, Note_off_c, 0, 66, 68
1, 248409, Note_on_c, 0, 68, 72
1, 248410, Note_on_c, 0, 83, 90
1, 248415, Note_on_c, 0, 78, 74
1, 248418, Note_on_c, 0, 56, 49
1, 248420, Note_on_c, 0, 62, 42
1, 248433, Control_c, 0, 64, 36
1, 248436, Note_off_c, 0, 68, 66
1, 248437, Note_off_c, 0, 78, 70
1, 248447, Control_c, 0, 64, 57
1, 248448, Note_off_c, 0, 62, 60
1, 248456, Note_off_c, 0, 56, 62
1, 248458, Note_off_c, 0, 83, 65
1, 248462, Control_c, 0, 64, 65
1, 248477, Control_c, 0, 64, 68
1, 248499, Note_on_c, 0, 71, 75
1, 248531, Note_off_c, 0, 71, 64
1, 248537, Control_c, 0, 64, 67
1, 248552, Control_c, 0, 64, 67
1, 248567, Control_c, 0, 64, 65
1, 248577, Note_on_c, 0, 67, 69
1, 248578, Note_on_c, 0, 62, 34
1, 248594, Note_on_c, 0, 55, 45
1, 248596, Control_c, 0, 64, 67
1, 248600, Note_on_c, 0, 78, 78
1, 248601, Note_on_c, 0, 71, 40
1, 248604, Note_off_c, 0, 67, 64
1, 248611, Control_c, 0, 64, 71
1, 248617, Note_off_c, 0, 62, 64
1, 248625, Note_off_c, 0, 71, 61
1, 248626, Control_c, 0, 64, 76
1, 248627, Note_off_c, 0, 78, 67
1, 248630, Note_off_c, 0, 55, 59
1, 248641, Control_c, 0, 64, 80
1, 248656, Control_c, 0, 64, 83
1, 248677, Control_c, 0, 64, 83
1, 248686, Note_on_c, 0, 66, 73
1, 248707, Control_c, 0, 64, 83
1, 248712, Note_off_c, 0, 66, 68
1, 248722, Control_c, 0, 64, 80
1, 248737, Control_c, 0, 64, 76
1, 248752, Control_c, 0, 64, 72
1, 248767, Control_c, 0, 64, 70
1, 248801, Note_on_c, 0, 65, 19
1, 248811, Control_c, 0, 64, 69
1, 248812, Note_on_c, 0, 66, 69
1, 248826, Control_c, 0, 64, 68
1, 248835, Note_off_c, 0, 66, 67
1, 248841, Control_c, 0, 64, 66
1, 248844, Note_off_c, 0, 65, 29
1, 248856, Control_c, 0, 64, 63
1, 248871, Control_c, 0, 64, 63
1, 248872, Note_on_c, 0, 66, 84
1, 248911, Note_off_c, 0, 66, 58
1, 248922, Note_on_c, 0, 67, 55
1, 248926, Note_on_c, 0, 55, 50
1, 248927, Note_on_c, 0, 62, 53
1, 248928, Control_c, 0, 64, 62
1, 248942, Note_off_c, 0, 67, 64
1, 248947, Note_on_c, 0, 78, 80
1, 248950, Note_off_c, 0, 55, 60
1, 248951, Note_off_c, 0, 62, 59
1, 248958, Control_c, 0, 64, 61
1, 248973, Control_c, 0, 64, 55
1, 248988, Control_c, 0, 64, 43
1, 248996, Note_off_c, 0, 78, 64
1, 249002, Control_c, 0, 64, 0
1, 249035, Note_on_c, 0, 66, 68
1, 249068, Note_off_c, 0, 66, 59
1, 249109, Note_on_c, 0, 73, 92
1, 249112, Note_on_c, 0, 65, 76
1, 249116, Note_on_c, 0, 53, 68
1, 249120, Note_on_c, 0, 59, 54
1, 249124, Note_on_c, 0, 67, 60
1, 249136, Note_off_c, 0, 65, 70
1, 249140, Note_off_c, 0, 73, 68
1, 249142, Note_off_c, 0, 59, 61
1, 249144, Note_off_c, 0, 53, 66
1, 249144, Note_off_c, 0, 67, 64
1, 249199, Note_on_c, 0, 61, 66
1, 249229, Note_off_c, 0, 61, 66
1, 249291, Note_on_c, 0, 67, 59
1, 249294, Note_on_c, 0, 78, 69
1, 249305, Note_on_c, 0, 55, 42
1, 249306, Note_on_c, 0, 71, 38
1, 249311, Note_on_c, 0, 62, 30
1, 249318, Note_off_c, 0, 67, 65
1, 249318, Note_off_c, 0, 78, 69
1, 249332, Note_off_c, 0, 55, 53
1, 249340, Note_off_c, 0, 71, 50
1, 249349, Note_off_c, 0, 62, 30
1, 249367, Note_on_c, 0, 66, 68
1, 249398, Note_off_c, 0, 66, 62
1, 249467, Note_on_c, 0, 73, 62
1, 249472, Note_on_c, 0, 65, 24
1, 249503, Note_off_c, 0, 65, 44
1, 249553, Note_off_c, 0, 73, 56
1, 249556, Note_on_c, 0, 61, 36
1, 249588, Note_off_c, 0, 61, 51
1, 249626, Note_on_c, 0, 62, 50
1, 249633, Note_on_c, 0, 55, 40
1, 249681, Note_off_c, 0, 55, 62
1, 249692, Control_c, 0, 64, 38
1, 249699, Note_off_c, 0, 62, 61
1, 249707, Control_c, 0, 64, 54
1, 249722, Control_c, 0, 64, 61
1, 249737, Control_c, 0, 64, 64
1, 249743, Note_on_c, 0, 66, 58
1, 249751, Control_c, 0, 64, 66
1, 249766, Control_c, 0, 64, 69
1, 249781, Control_c, 0, 64, 71
1, 249793, Note_off_c, 0, 66, 58
1, 249796, Control_c, 0, 64, 75
1, 249805, Note_on_c, 0, 71, 54
1, 249811, Control_c, 0, 64, 81
1, 249825, Control_c, 0, 64, 87
1, 249840, Control_c, 0, 64, 92
1, 249854, Note_off_c, 0, 71, 63
1, 249855, Control_c, 0, 64, 97
1, 249860, Note_on_c, 0, 78, 61
1, 249869, Control_c, 0, 64, 101
1, 249884, Control_c, 0, 64, 105
1, 249887, Note_off_c, 0, 78, 67
1, 249899, Control_c, 0, 64, 110
1, 249914, Control_c, 0, 64, 127
1, 249918, Note_on_c, 0, 40, 41
1, 249921, Note_on_c, 0, 47, 47
1, 249968, Note_off_c, 0, 47, 62
1, 249971, Note_off_c, 0, 40, 58
1, 250061, Note_on_c, 0, 86, 76
1, 250082, Note_on_c, 0, 78, 42
1, 250108, Note_off_c, 0, 86, 64
1, 250112, Note_off_c, 0, 78, 54
1, 250284, Note_on_c, 0, 85, 51
1, 250307, Note_off_c, 0, 85, 59
1, 250322, Note_on_c, 0, 59, 13
1, 250326, Note_on_c, 0, 86, 68
1, 250376, Note_on_c, 0, 85, 66
1, 250377, Note_on_c, 0, 62, 50
1, 250379, Note_off_c, 0, 86, 62
1, 250401, Note_off_c, 0, 59, 36
1, 250401, Note_off_c, 0, 85, 69
1, 250418, Note_on_c, 0, 83, 71
1, 250425, Note_off_c, 0, 62, 57
1, 250449, Note_off_c, 0, 83, 63
1, 250589, Control_c, 0, 67, 120
1, 250598, Note_on_c, 0, 82, 77
1, 250604, Control_c, 0, 67, 109
1, 250610, Note_on_c, 0, 71, 46
1, 250614, Note_on_c, 0, 74, 43
1, 250619, Control_c, 0, 67, 97
1, 250620, Note_off_c, 0, 82, 69
1, 250634, Control_c, 0, 67, 82
1, 250639, Note_off_c, 0, 71, 56
1, 250642, Note_off_c, 0, 74, 53
1, 250648, Control_c, 0, 67, 69
1, 250663, Control_c, 0, 67, 54
1, 250678, Control_c, 0, 67, 38
1, 250692, Control_c, 0, 67, 0
1, 250779, Note_on_c, 0, 71, 46
1, 250782, Note_on_c, 0, 78, 76
1, 250786, Note_on_c, 0, 73, 66
1, 250805, Note_off_c, 0, 78, 69
1, 250812, Note_off_c, 0, 73, 65
1, 250852, Note_on_c, 0, 67, 54
1, 250860, Note_off_c, 0, 71, 62
1, 250923, Note_off_c, 0, 67, 61
1, 250951, Note_on_c, 0, 79, 69
1, 250953, Note_on_c, 0, 62, 39
1, 250957, Note_on_c, 0, 74, 63
1, 250962, Note_on_c, 0, 59, 52
1, 250968, Note_off_c, 0, 79, 66
1, 250978, Note_off_c, 0, 74, 65
1, 250983, Note_off_c, 0, 62, 54
1, 250990, Note_off_c, 0, 59, 64
1, 251075, Note_on_c, 0, 74, 41
1, 251101, Note_on_c, 0, 78, 61
1, 251123, Note_on_c, 0, 86, 81
1, 251128, Note_off_c, 0, 78, 66
1, 251133, Note_on_c, 0, 59, 42
1, 251136, Note_off_c, 0, 74, 61
1, 251139, Note_on_c, 0, 52, 64
1, 251158, Note_off_c, 0, 59, 57
1, 251161, Note_off_c, 0, 52, 62
1, 251163, Note_off_c, 0, 86, 66
1, 251306, Note_on_c, 0, 85, 63
1, 251315, Note_on_c, 0, 59, 38
1, 251334, Note_off_c, 0, 85, 66
1, 251350, Note_on_c, 0, 86, 69
1, 251393, Note_on_c, 0, 62, 62
1, 251398, Note_on_c, 0, 85, 81
1, 251402, Note_off_c, 0, 86, 64
1, 251432, Note_off_c, 0, 85, 64
1, 251446, Note_on_c, 0, 66, 65
1, 251448, Note_off_c, 0, 59, 34
1, 251451, Note_on_c, 0, 83, 75
1, 251462, Note_off_c, 0, 62, 59
1, 251470, Note_off_c, 0, 66, 66
1, 251470, Note_off_c, 0, 83, 71
1, 251632, Note_on_c, 0, 82, 89
1, 251637, Note_on_c, 0, 74, 69
1, 251646, Note_on_c, 0, 71, 60
1, 251652, Note_off_c, 0, 82, 68
1, 251662, Note_off_c, 0, 74, 66
1, 251673, Note_off_c, 0, 71, 62
1, 251814, Note_on_c, 0, 71, 58
1, 251818, Note_on_c, 0, 78, 89
1, 251835, Note_on_c, 0, 74, 71
1, 251842, Note_off_c, 0, 78, 63
1, 251853, Note_off_c, 0, 74, 67
1, 251882, Note_on_c, 0, 67, 65
1, 251889, Note_off_c, 0, 71, 63
1, 251946, Note_off_c, 0, 67, 63
1, 251956, Note_on_c, 0, 62, 59
1, 251963, Note_on_c, 0, 79, 91
1, 251967, Note_on_c, 0, 59, 68
1, 251968, Note_on_c, 0, 74, 71
1, 251980, Note_off_c, 0, 79, 73
1, 251986, Note_off_c, 0, 62, 65
1, 251989, Note_off_c, 0, 74, 70
1, 251993, Note_off_c, 0, 59, 66
1, 252078, Note_on_c, 0, 78, 71
1, 252114, Note_on_c, 0, 83, 72
1, 252137, Note_off_c, 0, 78, 64
1, 252138, Note_on_c, 0, 40, 92
1, 252147, Note_on_c, 0, 48, 56
1, 252148, Note_on_c, 0, 90, 92
1, 252157, Note_off_c, 0, 40, 68
1, 252161, Note_off_c, 0, 83, 65
1, 252162, Note_on_c, 0, 47, 40
1, 252172, Note_off_c, 0, 48, 60
1, 252186, Note_off_c, 0, 90, 66
1, 252194, Note_off_c, 0, 47, 56
1, 252303, Note_on_c, 0, 88, 88
1, 252303, Poly_aftertouch_c, 0, 40, 0
1, 252338, Note_on_c, 0, 62, 65
1, 252345, Note_off_c, 0, 88, 66
1, 252364, Note_on_c, 0, 90, 89
1, 252388, Note_on_c, 0, 66, 76
1, 252389, Note_off_c, 0, 62, 56
1, 252406, Note_on_c, 0, 88, 78
1, 252421, Note_on_c, 0, 89, 62
1, 252429, Note_off_c, 0, 90, 65
1, 252439, Note_off_c, 0, 89, 64
1, 252443, Note_off_c, 0, 66, 65
1, 252451, Note_off_c, 0, 88, 66
1, 252457, Note_on_c, 0, 86, 87
1, 252463, Note_on_c, 0, 71, 42
1, 252484, Note_off_c, 0, 86, 65
1, 252496, Note_off_c, 0, 71, 55
1, 252622, Note_on_c, 0, 85, 98
1, 252627, Note_on_c, 0, 78, 78
1, 252631, Note_on_c, 0, 74, 67
1, 252647, Note_off_c, 0, 78, 71
1, 252648, Note_off_c, 0, 85, 68
1, 252648, Note_off_c, 0, 74, 64
1, 252789, Note_on_c, 0, 74, 66
1, 252791, Note_on_c, 0, 78, 89
1, 252803, Note_on_c, 0, 73, 64
1, 252803, Note_on_c, 0, 81, 78
1, 252805, Note_on_c, 0, 82, 51
1, 252805, Note_off_c, 0, 82, 127
1, 252820, Note_off_c, 0, 78, 60
1, 252823, Note_off_c, 0, 73, 65
1, 252824, Note_off_c, 0, 81, 71
1, 252829, Note_off_c, 0, 74, 62
1, 252837, Note_on_c, 0, 71, 62
1, 252894, Note_on_c, 0, 67, 60
1, 252913, Note_off_c, 0, 71, 64
1, 252938, Note_on_c, 0, 83, 97
1, 252940, Note_on_c, 0, 62, 85
1, 252940, Note_on_c, 0, 74, 86
1, 252944, Note_off_c, 0, 67, 66
1, 252946, Note_on_c, 0, 79, 80
1, 252960, Note_off_c, 0, 74, 71
1, 252965, Note_off_c, 0, 62, 67
1, 252966, Note_off_c, 0, 79, 72
1, 252971, Note_off_c, 0, 83, 66
1, 253066, Note_on_c, 0, 78, 79
1, 253085, Note_on_c, 0, 83, 72
1, 253104, Note_on_c, 0, 59, 88
1, 253108, Note_on_c, 0, 52, 99
1, 253110, Note_on_c, 0, 90, 105
1, 253113, Note_off_c, 0, 78, 64
1, 253121, Note_off_c, 0, 59, 73
1, 253125, Note_off_c, 0, 52, 74
1, 253126, Note_off_c, 0, 83, 64
1, 253139, Note_off_c, 0, 90, 68
1, 253288, Note_on_c, 0, 88, 85
1, 253301, Note_on_c, 0, 62, 77
1, 253330, Note_off_c, 0, 88, 63
1, 253336, Note_on_c, 0, 90, 88
1, 253363, Note_off_c, 0, 62, 61
1, 253369, Note_on_c, 0, 67, 73
1, 253373, Note_on_c, 0, 88, 84
1, 253378, Note_on_c, 0, 87, 64
1, 253392, Note_off_c, 0, 67, 70
1, 253392, Note_off_c, 0, 90, 65
1, 253396, Note_on_c, 0, 71, 79
1, 253397, Note_off_c, 0, 87, 65
1, 253406, Note_off_c, 0, 88, 69
1, 253417, Note_on_c, 0, 86, 89
1, 253417, Note_off_c, 0, 71, 72
1, 253455, Note_off_c, 0, 86, 67
1, 253578, Note_on_c, 0, 85, 105
1, 253578, Note_on_c, 0, 78, 88
1, 253595, Note_on_c, 0, 74, 60
1, 253596, Note_off_c, 0, 78, 72
1, 253605, Note_off_c, 0, 85, 68
1, 253614, Note_off_c, 0, 74, 62
1, 253730, Note_on_c, 0, 74, 66
1, 253732, Note_on_c, 0, 82, 100
1, 253733, Note_on_c, 0, 78, 102
1, 253738, Note_on_c, 0, 73, 90
1, 253751, Note_off_c, 0, 78, 67
1, 253754, Note_off_c, 0, 73, 74
1, 253754, Note_off_c, 0, 82, 69
1, 253800, Note_off_c, 0, 74, 63
1, 253801, Note_on_c, 0, 71, 75
1, 253822, Note_on_c, 0, 67, 70
1, 253869, Note_off_c, 0, 71, 66
1, 253879, Note_on_c, 0, 62, 99
1, 253880, Note_on_c, 0, 83, 111
1, 253885, Note_off_c, 0, 67, 65
1, 253896, Note_on_c, 0, 79, 71
1, 253896, Note_off_c, 0, 79, 127
1, 253897, Note_on_c, 0, 74, 61
1, 253902, Note_off_c, 0, 62, 67
1, 253906, Note_off_c, 0, 83, 71
1, 253925, Note_off_c, 0, 74, 63
1, 254022, Control_c, 0, 64, 75
1, 254037, Control_c, 0, 64, 0
1, 254049, Note_on_c, 0, 96, 106
1, 254049, Note_on_c, 0, 98, 105
1, 254052, Note_on_c, 0, 86, 104
1, 254059, Note_on_c, 0, 91, 79
1, 254069, Note_off_c, 0, 98, 68
1, 254070, Note_off_c, 0, 86, 69
1, 254073, Note_off_c, 0, 91, 70
1, 254077, Note_off_c, 0, 96, 71
1, 254081, Control_c, 0, 64, 49
1, 254097, Control_c, 0, 64, 92
1, 254112, Control_c, 0, 64, 127
1, 254199, Note_on_c, 0, 83, 102
1, 254201, Note_on_c, 0, 79, 87
1, 254204, Note_on_c, 0, 78, 89
1, 254231, Note_off_c, 0, 79, 66
1, 254275, Note_off_c, 0, 83, 0
1, 254290, Note_off_c, 0, 78, 56
1, 254312, Poly_aftertouch_c, 0, 83, 127
1, 254344, Note_on_c, 0, 76, 95
1, 254352, Poly_aftertouch_c, 0, 83, 0
1, 254386, Note_off_c, 0, 76, 72
1, 254484, Note_on_c, 0, 67, 87
1, 254485, Note_on_c, 0, 71, 99
1, 254486, Note_on_c, 0, 66, 97
1, 254530, Note_off_c, 0, 66, 66
1, 254531, Note_off_c, 0, 67, 63
1, 254613, Note_off_c, 0, 71, 67
1, 254630, Note_on_c, 0, 64, 88
1, 254667, Control_c, 0, 64, 107
1, 254682, Control_c, 0, 64, 61
1, 254684, Note_off_c, 0, 64, 64
1, 254697, Control_c, 0, 64, 0
1, 254763, Note_on_c, 0, 52, 69
1, 254804, Note_on_c, 0, 59, 49
1, 254837, Note_on_c, 0, 67, 71
1, 254861, Note_on_c, 0, 74, 83
1, 254862, Note_on_c, 0, 62, 92
1, 254865, Note_on_c, 0, 79, 101
1, 254868, Note_on_c, 0, 83, 104
1, 254871, Note_off_c, 0, 59, 64
1, 254890, Note_off_c, 0, 67, 65
1, 254893, Note_off_c, 0, 52, 65
1, 254894, Note_off_c, 0, 79, 69
1, 254897, Note_off_c, 0, 74, 66
1, 254904, Control_c, 0, 64, 44
1, 254907, Note_off_c, 0, 62, 68
1, 254907, Note_off_c, 0, 83, 68
1, 254919, Control_c, 0, 64, 98
1, 254934, Control_c, 0, 64, 127
1, 255245, Control_c, 0, 64, 94
1, 255260, Control_c, 0, 64, 81
1, 255275, Control_c, 0, 64, 73
1, 255289, Control_c, 0, 64, 67
1, 255304, Control_c, 0, 64, 60
1, 255319, Control_c, 0, 64, 53
1, 255334, Control_c, 0, 64, 47
1, 255349, Control_c, 0, 64, 44
1, 255363, Control_c, 0, 64, 45
1, 255415, Control_c, 0, 64, 44
1, 255445, Control_c, 0, 64, 44
1, 255549, Control_c, 0, 64, 44
1, 255563, Control_c, 0, 67, 19
1, 255593, Control_c, 0, 64, 43
1, 255608, Control_c, 0, 64, 42
1, 255623, Control_c, 0, 64, 42
1, 255638, Control_c, 0, 64, 43
1, 255653, Control_c, 0, 64, 46
1, 255668, Control_c, 0, 64, 48
1, 255683, Control_c, 0, 64, 50
1, 255699, Control_c, 0, 64, 45
1, 255713, Control_c, 0, 64, 0
1, 255713, Control_c, 0, 67, 21
1, 255728, Control_c, 0, 67, 24
1, 255743, Control_c, 0, 67, 26
1, 255758, Control_c, 0, 67, 28
1, 255773, Control_c, 0, 67, 31
1, 255787, Control_c, 0, 67, 39
1, 255802, Control_c, 0, 67, 50
1, 255817, Control_c, 0, 67, 61
1, 255832, Control_c, 0, 67, 69
1, 255847, Control_c, 0, 67, 72
1, 255861, Control_c, 0, 67, 74
1, 255876, Control_c, 0, 67, 78
1, 255891, Control_c, 0, 67, 84
1, 255906, Control_c, 0, 67, 90
1, 255921, Control_c, 0, 67, 96
1, 255936, Control_c, 0, 67, 98
1, 255995, Control_c, 0, 67, 101
1, 256010, Control_c, 0, 67, 105
1, 256025, Control_c, 0, 67, 107
1, 256082, Note_on_c, 0, 42, 82
1, 256084, Control_c, 0, 67, 112
1, 256086, Note_on_c, 0, 50, 78
1, 256094, Note_on_c, 0, 46, 67
1, 256099, Control_c, 0, 64, 44
1, 256099, Control_c, 0, 67, 124
1, 256105, Note_off_c, 0, 42, 67
1, 256109, Note_off_c, 0, 50, 68
1, 256113, Control_c, 0, 64, 70
1, 256113, Control_c, 0, 67, 127
1, 256120, Note_off_c, 0, 46, 65
1, 256143, Control_c, 0, 64, 67
1, 256165, Control_c, 0, 64, 61
1, 256180, Control_c, 0, 64, 59
1, 256195, Control_c, 0, 64, 56
1, 256210, Control_c, 0, 64, 51
1, 256225, Control_c, 0, 64, 48
1, 256239, Control_c, 0, 64, 47
1, 256254, Control_c, 0, 64, 47
1, 256269, Control_c, 0, 64, 46
1, 256284, Control_c, 0, 64, 43
1, 256293, Note_on_c, 0, 38, 60
1, 256299, Control_c, 0, 64, 37
1, 256301, Note_on_c, 0, 45, 48
1, 256313, Control_c, 0, 64, 31
1, 256321, Note_off_c, 0, 38, 64
1, 256327, Note_off_c, 0, 45, 59
1, 256328, Control_c, 0, 64, 0
1, 256472, Note_on_c, 0, 50, 70
1, 256475, Note_on_c, 0, 42, 63
1, 256478, Note_on_c, 0, 46, 54
1, 256499, Note_off_c, 0, 50, 65
1, 256502, Note_off_c, 0, 42, 64
1, 256506, Note_off_c, 0, 46, 61
1, 256647, Note_on_c, 0, 33, 60
1, 256654, Note_on_c, 0, 45, 54
1, 256678, Note_off_c, 0, 33, 64
1, 256681, Note_off_c, 0, 45, 55
1, 256814, Note_on_c, 0, 50, 64
1, 256825, Note_on_c, 0, 42, 53
1, 256833, Note_on_c, 0, 46, 42
1, 256844, Note_off_c, 0, 50, 64
1, 256851, Note_off_c, 0, 42, 59
1, 256867, Note_off_c, 0, 46, 51
1, 256988, Note_on_c, 0, 54, 67
1, 257002, Note_on_c, 0, 49, 55
1, 257018, Note_off_c, 0, 54, 65
1, 257030, Note_off_c, 0, 49, 63
1, 257156, Note_on_c, 0, 46, 64
1, 257158, Note_on_c, 0, 50, 69
1, 257168, Note_on_c, 0, 42, 51
1, 257185, Note_off_c, 0, 46, 65
1, 257186, Note_off_c, 0, 50, 64
1, 257199, Note_off_c, 0, 42, 57
1, 257319, Note_on_c, 0, 38, 51
1, 257323, Note_on_c, 0, 45, 45
1, 257349, Note_off_c, 0, 38, 61
1, 257353, Note_off_c, 0, 45, 52
1, 257486, Note_on_c, 0, 50, 45
1, 257494, Note_on_c, 0, 42, 35
1, 257496, Note_on_c, 0, 46, 44
1, 257515, Note_off_c, 0, 50, 52
1, 257527, Note_off_c, 0, 46, 55
1, 257532, Note_off_c, 0, 42, 45
1, 257663, Note_on_c, 0, 21, 71
1, 257670, Note_on_c, 0, 45, 55
1, 257678, Control_c, 0, 64, 48
1, 257692, Control_c, 0, 64, 61
1, 257695, Note_off_c, 0, 21, 68
1, 257707, Control_c, 0, 64, 67
1, 257722, Control_c, 0, 64, 70
1, 257752, Control_c, 0, 64, 69
1, 257762, Note_off_c, 0, 45, 30
1, 257766, Control_c, 0, 64, 67
1, 257781, Control_c, 0, 64, 66
1, 257796, Control_c, 0, 64, 64
1, 257811, Control_c, 0, 64, 62
1, 257825, Control_c, 0, 64, 60
1, 257828, Note_on_c, 0, 48, 64
1, 257831, Note_on_c, 0, 44, 46
1, 257840, Control_c, 0, 64, 56
1, 257851, Note_on_c, 0, 40, 26
1, 257855, Control_c, 0, 64, 54
1, 257860, Note_off_c, 0, 44, 58
1, 257860, Note_off_c, 0, 48, 64
1, 257870, Control_c, 0, 64, 54
1, 257891, Note_off_c, 0, 40, 31
1, 257900, Control_c, 0, 64, 53
1, 257915, Control_c, 0, 64, 51
1, 257930, Control_c, 0, 64, 47
1, 257945, Control_c, 0, 64, 40
1, 257960, Control_c, 0, 64, 33
1, 257975, Control_c, 0, 64, 0
1, 257985, Note_on_c, 0, 39, 63
1, 257987, Note_on_c, 0, 43, 65
1, 258013, Note_off_c, 0, 43, 64
1, 258017, Note_off_c, 0, 39, 64
1, 258166, Note_on_c, 0, 50, 81
1, 258173, Note_on_c, 0, 42, 65
1, 258174, Note_on_c, 0, 46, 66
1, 258183, Control_c, 0, 64, 31
1, 258189, Note_off_c, 0, 50, 69
1, 258196, Note_off_c, 0, 42, 63
1, 258197, Note_off_c, 0, 46, 64
1, 258198, Control_c, 0, 64, 49
1, 258213, Control_c, 0, 64, 45
1, 258227, Control_c, 0, 64, 32
1, 258242, Control_c, 0, 64, 30
1, 258257, Control_c, 0, 64, 33
1, 258287, Control_c, 0, 64, 31
1, 258302, Control_c, 0, 64, 0
1, 258350, Note_on_c, 0, 38, 56
1, 258350, Note_on_c, 0, 45, 64
1, 258373, Note_off_c, 0, 45, 62
1, 258377, Note_off_c, 0, 38, 56
1, 258511, Note_on_c, 0, 50, 78
1, 258521, Note_on_c, 0, 42, 63
1, 258521, Note_on_c, 0, 46, 62
1, 258536, Note_off_c, 0, 50, 69
1, 258546, Note_off_c, 0, 42, 61
1, 258546, Note_off_c, 0, 46, 61
1, 258675, Note_on_c, 0, 33, 73
1, 258678, Control_c, 0, 64, 43
1, 258691, Note_on_c, 0, 45, 46
1, 258693, Control_c, 0, 64, 60
1, 258698, Note_off_c, 0, 33, 65
1, 258722, Note_off_c, 0, 45, 56
1, 258723, Control_c, 0, 64, 57
1, 258738, Control_c, 0, 64, 55
1, 258753, Control_c, 0, 64, 55
1, 258767, Control_c, 0, 64, 53
1, 258782, Control_c, 0, 64, 51
1, 258797, Control_c, 0, 64, 46
1, 258812, Control_c, 0, 64, 39
1, 258827, Control_c, 0, 64, 0
1, 258832, Note_on_c, 0, 50, 77
1, 258837, Note_on_c, 0, 42, 64
1, 258839, Note_on_c, 0, 46, 62
1, 258862, Note_off_c, 0, 50, 65
1, 258866, Note_off_c, 0, 42, 65
1, 258866, Note_off_c, 0, 46, 63
1, 258997, Note_on_c, 0, 49, 74
1, 258998, Note_on_c, 0, 54, 78
1, 259013, Note_on_c, 0, 46, 45
1, 259023, Note_off_c, 0, 54, 70
1, 259024, Note_off_c, 0, 49, 68
1, 259047, Note_off_c, 0, 46, 56
1, 259149, Note_on_c, 0, 50, 82
1, 259167, Note_on_c, 0, 46, 59
1, 259169, Note_on_c, 0, 42, 64
1, 259185, Note_off_c, 0, 50, 66
1, 259190, Control_c, 0, 64, 43
1, 259193, Note_off_c, 0, 46, 63
1, 259194, Note_off_c, 0, 42, 62
1, 259205, Control_c, 0, 64, 56
1, 259220, Control_c, 0, 64, 47
1, 259235, Control_c, 0, 64, 0
1, 259331, Note_on_c, 0, 45, 74
1, 259332, Note_on_c, 0, 38, 69
1, 259355, Note_off_c, 0, 45, 66
1, 259360, Note_off_c, 0, 38, 65
1, 259483, Note_on_c, 0, 50, 64
1, 259494, Note_on_c, 0, 46, 58
1, 259496, Note_on_c, 0, 42, 46
1, 259513, Note_off_c, 0, 50, 64
1, 259522, Note_off_c, 0, 46, 64
1, 259528, Note_off_c, 0, 42, 51
1, 259643, Note_on_c, 0, 21, 75
1, 259650, Control_c, 0, 64, 40
1, 259653, Note_on_c, 0, 41, 43
1, 259653, Note_on_c, 0, 45, 58
1, 259664, Control_c, 0, 64, 55
1, 259674, Note_off_c, 0, 21, 68
1, 259680, Control_c, 0, 64, 59
1, 259686, Note_off_c, 0, 41, 61
1, 259695, Control_c, 0, 64, 61
1, 259697, Note_off_c, 0, 45, 56
1, 259709, Control_c, 0, 64, 62
1, 259724, Control_c, 0, 64, 63
1, 259784, Control_c, 0, 64, 63
1, 259790, Note_on_c, 0, 48, 65
1, 259798, Control_c, 0, 64, 64
1, 259799, Note_on_c, 0, 40, 51
1, 259813, Control_c, 0, 64, 65
1, 259826, Note_off_c, 0, 48, 62
1, 259828, Control_c, 0, 64, 66
1, 259829, Note_off_c, 0, 40, 58
1, 259843, Control_c, 0, 64, 66
1, 259873, Control_c, 0, 64, 67
1, 259887, Control_c, 0, 64, 68
1, 259909, Control_c, 0, 64, 69
1, 259955, Note_on_c, 0, 39, 51
1, 259958, Note_on_c, 0, 43, 58
1, 259987, Note_off_c, 0, 39, 51
1, 259990, Note_off_c, 0, 43, 65
1, 259999, Control_c, 0, 64, 69
1, 260013, Control_c, 0, 64, 68
1, 260028, Control_c, 0, 64, 66
1, 260043, Control_c, 0, 64, 64
1, 260058, Control_c, 0, 64, 63
1, 260073, Control_c, 0, 64, 62
1, 260087, Control_c, 0, 64, 59
1, 260102, Control_c, 0, 64, 53
1, 260117, Control_c, 0, 64, 42
1, 260132, Control_c, 0, 64, 0
1, 260157, Note_on_c, 0, 55, 46
1, 260257, Note_on_c, 0, 57, 52
1, 260416, Note_on_c, 0, 60, 40
1, 260428, Control_c, 0, 64, 36
1, 260443, Control_c, 0, 64, 52
1, 260450, Note_on_c, 0, 64, 58
1, 260458, Control_c, 0, 64, 61
1, 260473, Control_c, 0, 64, 62
1, 260502, Control_c, 0, 67, 121
1, 260517, Control_c, 0, 64, 64
1, 260517, Control_c, 0, 67, 106
1, 260532, Control_c, 0, 64, 69
1, 260532, Control_c, 0, 67, 95
1, 260547, Control_c, 0, 64, 74
1, 260547, Control_c, 0, 67, 88
1, 260562, Control_c, 0, 64, 76
1, 260562, Control_c, 0, 67, 86
1, 260577, Note_on_c, 0, 72, 77
1, 260577, Control_c, 0, 64, 77
1, 260577, Control_c, 0, 67, 85
1, 260592, Control_c, 0, 64, 77
1, 260592, Control_c, 0, 67, 84
1, 260607, Control_c, 0, 64, 80
1, 260607, Control_c, 0, 67, 84
1, 260622, Control_c, 0, 64, 86
1, 260622, Control_c, 0, 67, 83
1, 260627, Note_off_c, 0, 57, 56
1, 260636, Control_c, 0, 64, 94
1, 260636, Control_c, 0, 67, 83
1, 260658, Control_c, 0, 64, 99
1, 260658, Control_c, 0, 67, 82
1, 260667, Note_off_c, 0, 55, 59
1, 260673, Control_c, 0, 64, 103
1, 260688, Control_c, 0, 64, 116
1, 260703, Control_c, 0, 64, 127
1, 260710, Note_off_c, 0, 60, 43
1, 260786, Note_off_c, 0, 64, 57
1, 260971, Note_on_c, 0, 45, 33
1, 261080, Note_on_c, 0, 71, 58
1, 261080, Note_off_c, 0, 72, 29
1, 261107, Note_off_c, 0, 71, 61
1, 261148, Note_on_c, 0, 72, 60
1, 261175, Note_off_c, 0, 45, 36
1, 261183, Note_on_c, 0, 71, 72
1, 261236, Note_off_c, 0, 72, 53
1, 261255, Note_on_c, 0, 68, 74
1, 261270, Note_off_c, 0, 71, 63
1, 261297, Control_c, 0, 67, 83
1, 261313, Note_on_c, 0, 33, 20
1, 261322, Note_off_c, 0, 68, 63
1, 261341, Control_c, 0, 67, 83
1, 261469, Note_on_c, 0, 45, 52
1, 261475, Note_off_c, 0, 33, 38
1, 261526, Note_off_c, 0, 45, 62
1, 261709, Note_on_c, 0, 55, 43
1, 261745, Note_on_c, 0, 57, 46
1, 261763, Control_c, 0, 67, 84
1, 261796, Note_off_c, 0, 55, 53
1, 261874, Note_off_c, 0, 57, 37
1, 261883, Note_on_c, 0, 69, 75
1, 261985, Control_c, 0, 67, 84
1, 262020, Note_on_c, 0, 64, 60
1, 262021, Note_on_c, 0, 55, 58
1, 262030, Control_c, 0, 67, 85
1, 262045, Control_c, 0, 67, 86
1, 262051, Note_on_c, 0, 60, 45
1, 262059, Control_c, 0, 64, 89
1, 262059, Control_c, 0, 67, 86
1, 262062, Note_on_c, 0, 59, 62
1, 262075, Control_c, 0, 64, 60
1, 262075, Control_c, 0, 67, 87
1, 262080, Note_off_c, 0, 60, 61
1, 262089, Note_off_c, 0, 64, 64
1, 262090, Control_c, 0, 64, 0
1, 262105, Control_c, 0, 67, 87
1, 262135, Control_c, 0, 64, 41
1, 262157, Control_c, 0, 64, 65
1, 262157, Note_off_c, 0, 69, 65
1, 262172, Control_c, 0, 64, 76
1, 262178, Note_on_c, 0, 64, 69
1, 262187, Control_c, 0, 64, 89
1, 262190, Note_on_c, 0, 67, 68
1, 262201, Control_c, 0, 64, 93
1, 262214, Note_off_c, 0, 59, 62
1, 262216, Control_c, 0, 64, 91
1, 262219, Note_off_c, 0, 55, 60
1, 262231, Control_c, 0, 64, 86
1, 262246, Control_c, 0, 64, 86
1, 262246, Control_c, 0, 67, 87
1, 262255, Note_on_c, 0, 71, 70
1, 262261, Control_c, 0, 64, 86
1, 262276, Control_c, 0, 64, 87
1, 262290, Control_c, 0, 64, 89
1, 262305, Control_c, 0, 64, 92
1, 262315, Note_on_c, 0, 76, 83
1, 262320, Control_c, 0, 64, 94
1, 262335, Control_c, 0, 64, 101
1, 262349, Note_off_c, 0, 71, 63
1, 262350, Control_c, 0, 64, 118
1, 262364, Control_c, 0, 64, 127
1, 262398, Note_off_c, 0, 64, 52
1, 262423, Control_c, 0, 67, 86
1, 262529, Note_off_c, 0, 76, 56
1, 262547, Note_off_c, 0, 67, 37
1, 262649, Note_on_c, 0, 45, 39
1, 262681, Note_off_c, 0, 45, 61
1, 262779, Control_c, 0, 67, 87
1, 262884, Note_on_c, 0, 33, 39
1, 262899, Note_on_c, 0, 72, 57
1, 262956, Note_off_c, 0, 33, 48
1, 263014, Note_on_c, 0, 71, 52
1, 263014, Note_off_c, 0, 72, 60
1, 263079, Note_off_c, 0, 71, 63
1, 263084, Note_on_c, 0, 67, 66
1, 263109, Note_off_c, 0, 67, 68
1, 263129, Note_on_c, 0, 21, 49
1, 263149, Note_on_c, 0, 64, 62
1, 263167, Note_off_c, 0, 64, 63
1, 263199, Note_off_c, 0, 21, 63
1, 263212, Note_on_c, 0, 60, 75
1, 263222, Note_on_c, 0, 33, 73
1, 263245, Control_c, 0, 67, 86
1, 263247, Note_off_c, 0, 33, 65
1, 263252, Note_on_c, 0, 59, 71
1, 263275, Note_off_c, 0, 60, 48
1, 263298, Note_on_c, 0, 55, 71
1, 263304, Note_off_c, 0, 59, 64
1, 263324, Note_off_c, 0, 55, 67
1, 263343, Note_on_c, 0, 52, 74
1, 263376, Note_off_c, 0, 52, 64
1, 263387, Note_on_c, 0, 45, 62
1, 263394, Control_c, 0, 67, 87
1, 263407, Note_on_c, 0, 48, 62
1, 263409, Control_c, 0, 67, 87
1, 263413, Note_off_c, 0, 45, 60
1, 263421, Note_on_c, 0, 44, 46
1, 263423, Control_c, 0, 67, 88
1, 263433, Note_off_c, 0, 48, 65
1, 263438, Control_c, 0, 67, 89
1, 263452, Note_off_c, 0, 44, 60
1, 263453, Control_c, 0, 67, 91
1, 263468, Control_c, 0, 67, 93
1, 263483, Control_c, 0, 67, 97
1, 263497, Control_c, 0, 67, 101
1, 263512, Control_c, 0, 64, 94
1, 263512, Control_c, 0, 67, 110
1, 263527, Control_c, 0, 64, 61
1, 263527, Control_c, 0, 67, 124
1, 263542, Control_c, 0, 64, 0
1, 263542, Control_c, 0, 67, 127
1, 263690, Note_on_c, 0, 63, 75
1, 263702, Note_on_c, 0, 33, 54
1, 263703, Note_on_c, 0, 58, 68
1, 263707, Note_on_c, 0, 61, 55
1, 263740, Note_off_c, 0, 61, 61
1, 263757, Control_c, 0, 64, 53
1, 263759, Note_off_c, 0, 58, 62
1, 263759, Note_off_c, 0, 63, 64
1, 263772, Control_c, 0, 64, 66
1, 263787, Control_c, 0, 64, 75
1, 263802, Control_c, 0, 64, 92
1, 263817, Control_c, 0, 64, 112
1, 263832, Control_c, 0, 64, 121
1, 263871, Note_off_c, 0, 33, 59
1, 263895, Note_on_c, 0, 45, 54
1, 263921, Note_off_c, 0, 45, 56
1, 264024, Control_c, 0, 64, 118
1, 264067, Note_on_c, 0, 63, 55
1, 264074, Note_on_c, 0, 58, 51
1, 264105, Note_off_c, 0, 63, 62
1, 264106, Note_off_c, 0, 58, 55
1, 264125, Poly_aftertouch_c, 0, 61, 127
1, 264127, Control_c, 0, 64, 121
1, 264142, Control_c, 0, 64, 127
1, 264160, Poly_aftertouch_c, 0, 61, 0
1, 264210, Note_on_c, 0, 57, 88
1, 264248, Note_off_c, 0, 57, 59
1, 264291, Control_c, 0, 67, 125
1, 264305, Control_c, 0, 67, 121
1, 264320, Control_c, 0, 67, 108
1, 264335, Control_c, 0, 67, 94
1, 264350, Control_c, 0, 67, 87
1, 264365, Control_c, 0, 67, 87
1, 264379, Control_c, 0, 67, 90
1, 264383, Note_on_c, 0, 63, 67
1, 264401, Note_on_c, 0, 58, 63
1, 264401, Control_c, 0, 67, 93
1, 264403, Note_on_c, 0, 61, 57
1, 264416, Control_c, 0, 67, 96
1, 264431, Control_c, 0, 67, 99
1, 264437, Note_off_c, 0, 61, 64
1, 264438, Note_off_c, 0, 58, 60
1, 264450, Note_off_c, 0, 63, 62
1, 264461, Control_c, 0, 67, 102
1, 264491, Control_c, 0, 67, 104
1, 264536, Control_c, 0, 67, 102
1, 264559, Note_on_c, 0, 67, 77
1, 264565, Control_c, 0, 67, 97
1, 264573, Note_on_c, 0, 63, 60
1, 264580, Control_c, 0, 67, 95
1, 264583, Note_on_c, 0, 61, 44
1, 264595, Control_c, 0, 67, 93
1, 264602, Note_off_c, 0, 63, 64
1, 264609, Note_off_c, 0, 67, 65
1, 264610, Control_c, 0, 67, 91
1, 264613, Note_off_c, 0, 61, 52
1, 264625, Control_c, 0, 67, 90
1, 264640, Control_c, 0, 67, 89
1, 264714, Note_on_c, 0, 63, 80
1, 264726, Note_on_c, 0, 61, 57
1, 264735, Note_on_c, 0, 58, 62
1, 264753, Note_off_c, 0, 61, 59
1, 264759, Note_off_c, 0, 58, 59
1, 264759, Note_off_c, 0, 63, 65
1, 264834, Note_on_c, 0, 57, 94
1, 264878, Note_off_c, 0, 57, 65
1, 264965, Control_c, 0, 67, 89
1, 264980, Control_c, 0, 67, 88
1, 264986, Note_on_c, 0, 57, 91
1, 264995, Control_c, 0, 64, 110
1, 264995, Control_c, 0, 67, 88
1, 265009, Control_c, 0, 64, 79
1, 265009, Control_c, 0, 67, 87
1, 265024, Control_c, 0, 64, 67
1, 265036, Note_off_c, 0, 57, 65
1, 265039, Control_c, 0, 64, 63
1, 265039, Control_c, 0, 67, 86
1, 265054, Control_c, 0, 64, 66
1, 265054, Control_c, 0, 67, 85
1, 265069, Control_c, 0, 64, 72
1, 265069, Control_c, 0, 67, 83
1, 265084, Control_c, 0, 64, 79
1, 265084, Control_c, 0, 67, 81
1, 265099, Control_c, 0, 64, 84
1, 265099, Control_c, 0, 67, 79
1, 265108, Note_on_c, 0, 63, 63
1, 265114, Control_c, 0, 64, 84
1, 265114, Control_c, 0, 67, 76
1, 265114, Note_on_c, 0, 61, 59
1, 265116, Note_on_c, 0, 57, 92
1, 265128, Control_c, 0, 64, 85
1, 265128, Control_c, 0, 67, 73
1, 265135, Note_on_c, 0, 58, 37
1, 265150, Control_c, 0, 64, 89
1, 265150, Control_c, 0, 67, 70
1, 265165, Note_off_c, 0, 57, 61
1, 265165, Control_c, 0, 64, 98
1, 265165, Control_c, 0, 67, 66
1, 265180, Control_c, 0, 64, 110
1, 265180, Control_c, 0, 67, 62
1, 265188, Note_off_c, 0, 58, 45
1, 265195, Control_c, 0, 64, 127
1, 265195, Control_c, 0, 67, 58
1, 265209, Control_c, 0, 67, 55
1, 265224, Note_off_c, 0, 61, 36
1, 265224, Control_c, 0, 67, 54
1, 265233, Note_on_c, 0, 57, 97
1, 265236, Note_off_c, 0, 63, 44
1, 265239, Control_c, 0, 67, 53
1, 265270, Note_off_c, 0, 57, 66
1, 265285, Control_c, 0, 64, 119
1, 265285, Control_c, 0, 67, 53
1, 265299, Control_c, 0, 64, 105
1, 265314, Control_c, 0, 64, 94
1, 265329, Control_c, 0, 64, 84
1, 265334, Note_on_c, 0, 57, 98
1, 265344, Control_c, 0, 64, 75
1, 265358, Control_c, 0, 64, 74
1, 265358, Control_c, 0, 67, 52
1, 265364, Note_on_c, 0, 58, 62
1, 265373, Control_c, 0, 64, 80
1, 265376, Note_on_c, 0, 53, 44
1, 265388, Control_c, 0, 64, 99
1, 265388, Control_c, 0, 67, 51
1, 265403, Control_c, 0, 64, 127
1, 265403, Control_c, 0, 67, 51
1, 265418, Control_c, 0, 67, 48
1, 265422, Note_off_c, 0, 53, 58
1, 265433, Control_c, 0, 67, 43
1, 265448, Control_c, 0, 67, 36
1, 265457, Note_off_c, 0, 57, 65
1, 265463, Control_c, 0, 67, 30
1, 265477, Note_off_c, 0, 58, 57
1, 265477, Control_c, 0, 67, 24
1, 265492, Control_c, 0, 67, 20
1, 265507, Control_c, 0, 67, 0
1, 265617, Note_on_c, 0, 55, 87
1, 265650, Note_off_c, 0, 55, 68
1, 265719, Note_on_c, 0, 51, 74
1, 265722, Note_on_c, 0, 58, 76
1, 265880, Note_off_c, 0, 51, 56
1, 265886, Note_on_c, 0, 33, 89
1, 265899, Control_c, 0, 64, 83
1, 265914, Control_c, 0, 64, 55
1, 265929, Control_c, 0, 64, 33
1, 265944, Control_c, 0, 64, 42
1, 265958, Control_c, 0, 64, 57
1, 265973, Control_c, 0, 64, 70
1, 265980, Note_off_c, 0, 58, 54
1, 265988, Control_c, 0, 64, 89
1, 266003, Control_c, 0, 64, 127
1, 266026, Note_off_c, 0, 33, 58
1, 266050, Note_on_c, 0, 58, 65
1, 266056, Note_on_c, 0, 45, 87
1, 266086, Note_off_c, 0, 45, 68
1, 266133, Note_off_c, 0, 58, 61
1, 266189, Note_on_c, 0, 61, 57
1, 266196, Note_on_c, 0, 63, 64
1, 266210, Note_on_c, 0, 55, 98
1, 266218, Note_off_c, 0, 61, 64
1, 266226, Note_off_c, 0, 63, 67
1, 266345, Note_off_c, 0, 55, 64
1, 266432, Note_on_c, 0, 57, 102
1, 266471, Note_off_c, 0, 57, 68
1, 266586, Note_on_c, 0, 58, 98
1, 266587, Note_on_c, 0, 55, 72
1, 266598, Note_on_c, 0, 63, 63
1, 266599, Note_on_c, 0, 61, 62
1, 266622, Note_off_c, 0, 55, 62
1, 266628, Note_off_c, 0, 58, 61
1, 266661, Note_off_c, 0, 63, 48
1, 266718, Note_off_c, 0, 61, 58
1, 266736, Note_on_c, 0, 57, 104
1, 266750, Note_on_c, 0, 67, 71
1, 266753, Note_on_c, 0, 63, 67
1, 266784, Note_off_c, 0, 67, 61
1, 266786, Note_off_c, 0, 63, 61
1, 266895, Note_off_c, 0, 57, 61
1, 266911, Note_on_c, 0, 60, 99
1, 266975, Control_c, 0, 64, 110
1, 266990, Control_c, 0, 64, 77
1, 267004, Control_c, 0, 64, 61
1, 267019, Control_c, 0, 64, 55
1, 267034, Control_c, 0, 64, 61
1, 267049, Control_c, 0, 64, 68
1, 267064, Control_c, 0, 64, 80
1, 267078, Control_c, 0, 64, 97
1, 267093, Control_c, 0, 64, 127
1, 267141, Note_on_c, 0, 67, 61
1, 267142, Note_on_c, 0, 61, 63
1, 267143, Note_off_c, 0, 60, 67
1, 267218, Note_off_c, 0, 61, 59
1, 267234, Note_on_c, 0, 58, 105
1, 267297, Note_off_c, 0, 58, 66
1, 267339, Note_on_c, 0, 63, 80
1, 267340, Note_on_c, 0, 73, 84
1, 267342, Note_on_c, 0, 75, 79
1, 267376, Note_off_c, 0, 67, 49
1, 267381, Note_off_c, 0, 73, 66
1, 267383, Note_off_c, 0, 63, 60
1, 267383, Note_off_c, 0, 75, 67
1, 267472, Note_on_c, 0, 57, 105
1, 267602, Note_on_c, 0, 75, 82
1, 267606, Note_on_c, 0, 73, 77
1, 267609, Note_on_c, 0, 67, 76
1, 267639, Note_off_c, 0, 73, 62
1, 267642, Note_off_c, 0, 75, 65
1, 267645, Note_off_c, 0, 57, 59
1, 267655, Note_off_c, 0, 67, 60
1, 267659, Note_on_c, 0, 55, 103
1, 267686, Note_off_c, 0, 55, 71
1, 267748, Note_on_c, 0, 79, 95
1, 267749, Note_on_c, 0, 67, 90
1, 267749, Note_on_c, 0, 75, 91
1, 267756, Note_on_c, 0, 73, 80
1, 267764, Note_off_c, 0, 67, 75
1, 267765, Note_off_c, 0, 75, 74
1, 267776, Note_off_c, 0, 79, 65
1, 267778, Note_off_c, 0, 73, 69
1, 267813, Control_c, 0, 64, 106
1, 267813, Control_c, 0, 67, 21
1, 267827, Control_c, 0, 64, 69
1, 267842, Control_c, 0, 64, 38
1, 267857, Control_c, 0, 64, 0
1, 267928, Note_on_c, 0, 63, 92
1, 267932, Note_on_c, 0, 59, 78
1, 267936, Note_on_c, 0, 83, 102
1, 267938, Note_on_c, 0, 78, 93
1, 267940, Note_on_c, 0, 75, 86
1, 267941, Note_on_c, 0, 71, 82
1, 267946, Control_c, 0, 67, 0
1, 267946, Note_off_c, 0, 63, 73
1, 267949, Note_on_c, 0, 53, 63
1, 267949, Note_on_c, 0, 69, 69
1, 267950, Note_off_c, 0, 59, 71
1, 267953, Note_off_c, 0, 78, 75
1, 267955, Note_off_c, 0, 71, 70
1, 267960, Note_off_c, 0, 75, 72
1, 267961, Control_c, 0, 64, 73
1, 267961, Control_c, 0, 67, 19
1, 267966, Note_off_c, 0, 69, 67
1, 267967, Note_off_c, 0, 83, 64
1, 267975, Note_off_c, 0, 53, 64
1, 267975, Control_c, 0, 64, 110
1, 267975, Control_c, 0, 67, 23
1, 267990, Control_c, 0, 64, 86
1, 267990, Control_c, 0, 67, 32
1, 268005, Control_c, 0, 64, 47
1, 268005, Control_c, 0, 67, 48
1, 268020, Control_c, 0, 64, 0
1, 268020, Control_c, 0, 67, 69
1, 268035, Control_c, 0, 67, 85
1, 268050, Control_c, 0, 67, 93
1, 268064, Control_c, 0, 67, 94
1, 268079, Control_c, 0, 67, 94
1, 268094, Control_c, 0, 67, 97
1, 268101, Note_on_c, 0, 45, 80
1, 268109, Control_c, 0, 67, 108
1, 268124, Control_c, 0, 67, 127
1, 268127, Note_off_c, 0, 45, 68
1, 268260, Note_on_c, 0, 33, 63
1, 268269, Note_on_c, 0, 78, 64
1, 268274, Note_on_c, 0, 75, 58
1, 268278, Note_on_c, 0, 83, 58
1, 268279, Note_on_c, 0, 69, 51
1, 268286, Note_off_c, 0, 78, 65
1, 268291, Note_off_c, 0, 33, 63
1, 268293, Note_off_c, 0, 75, 62
1, 268297, Note_off_c, 0, 83, 61
1, 268302, Note_off_c, 0, 69, 57
1, 268426, Note_on_c, 0, 45, 73
1, 268450, Note_off_c, 0, 45, 66
1, 268569, Note_on_c, 0, 78, 73
1, 268569, Note_on_c, 0, 83, 76
1, 268578, Note_on_c, 0, 57, 70
1, 268588, Note_off_c, 0, 83, 72
1, 268590, Note_off_c, 0, 78, 70
1, 268598, Note_off_c, 0, 57, 66
1, 268722, Note_on_c, 0, 86, 86
1, 268725, Note_on_c, 0, 63, 65
1, 268734, Note_on_c, 0, 78, 62
1, 268738, Note_on_c, 0, 81, 53
1, 268739, Note_on_c, 0, 72, 48
1, 268742, Note_off_c, 0, 86, 69
1, 268753, Note_off_c, 0, 78, 64
1, 268753, Note_on_c, 0, 74, 31
1, 268753, Note_off_c, 0, 74, 127
1, 268754, Note_off_c, 0, 63, 66
1, 268763, Note_off_c, 0, 72, 59
1, 268763, Note_off_c, 0, 81, 38
1, 268881, Note_on_c, 0, 59, 65
1, 268882, Note_on_c, 0, 63, 63
1, 268896, Note_on_c, 0, 83, 92
1, 268900, Note_on_c, 0, 78, 75
1, 268903, Note_on_c, 0, 69, 70
1, 268905, Note_on_c, 0, 54, 59
1, 268905, Note_on_c, 0, 75, 66
1, 268909, Note_on_c, 0, 71, 64
1, 268913, Note_off_c, 0, 59, 65
1, 268914, Note_off_c, 0, 78, 70
1, 268914, Note_off_c, 0, 83, 66
1, 268918, Note_off_c, 0, 63, 66
1, 268920, Note_off_c, 0, 69, 66
1, 268923, Note_off_c, 0, 75, 66
1, 268925, Control_c, 0, 64, 63
1, 268928, Note_off_c, 0, 54, 60
1, 268930, Note_off_c, 0, 71, 41
1, 268940, Control_c, 0, 64, 70
1, 268955, Control_c, 0, 64, 69
1, 269014, Control_c, 0, 64, 67
1, 269029, Control_c, 0, 64, 61
1, 269043, Note_on_c, 0, 33, 90
1, 269043, Control_c, 0, 64, 44
1, 269047, Note_on_c, 0, 31, 72
1, 269058, Control_c, 0, 64, 0
1, 269066, Note_off_c, 0, 33, 66
1, 269074, Note_off_c, 0, 31, 62
1, 269194, Note_on_c, 0, 45, 83
1, 269195, Note_on_c, 0, 83, 88
1, 269200, Note_on_c, 0, 78, 71
1, 269204, Note_on_c, 0, 75, 64
1, 269214, Note_off_c, 0, 83, 69
1, 269218, Note_off_c, 0, 45, 68
1, 269218, Note_off_c, 0, 78, 67
1, 269221, Note_off_c, 0, 75, 65
1, 269236, Note_on_c, 0, 71, 10
1, 269236, Note_off_c, 0, 71, 127
1, 269353, Note_on_c, 0, 52, 74
1, 269354, Note_on_c, 0, 78, 89
1, 269361, Note_on_c, 0, 61, 72
1, 269361, Note_on_c, 0, 69, 78
1, 269362, Note_on_c, 0, 73, 80
1, 269363, Note_on_c, 0, 64, 63
1, 269379, Note_off_c, 0, 78, 68
1, 269381, Note_off_c, 0, 69, 71
1, 269381, Note_off_c, 0, 73, 72
1, 269382, Note_off_c, 0, 64, 66
1, 269385, Note_off_c, 0, 61, 66
1, 269388, Note_off_c, 0, 52, 63
1, 269505, Note_on_c, 0, 55, 71
1, 269505, Note_on_c, 0, 81, 87
1, 269530, Note_off_c, 0, 55, 68
1, 269540, Note_off_c, 0, 81, 63
1, 269660, Note_on_c, 0, 76, 70
1, 269665, Note_on_c, 0, 67, 54
1, 269670, Note_on_c, 0, 64, 52
1, 269679, Note_on_c, 0, 60, 39
1, 269681, Note_off_c, 0, 76, 69
1, 269686, Note_off_c, 0, 67, 60
1, 269687, Note_on_c, 0, 57, 15
1, 269691, Note_off_c, 0, 64, 61
1, 269692, Note_on_c, 0, 59, 18
1, 269712, Note_off_c, 0, 60, 55
1, 269730, Note_off_c, 0, 57, 28
1, 269735, Note_off_c, 0, 59, 28
1, 269806, Note_on_c, 0, 83, 91
1, 269814, Note_on_c, 0, 59, 63
1, 269815, Note_on_c, 0, 78, 73
1, 269818, Note_on_c, 0, 69, 55
1, 269821, Note_on_c, 0, 63, 60
1, 269821, Note_on_c, 0, 75, 56
1, 269825, Note_on_c, 0, 54, 56
1, 269830, Note_off_c, 0, 78, 68
1, 269835, Note_off_c, 0, 59, 65
1, 269835, Note_off_c, 0, 83, 65
1, 269836, Control_c, 0, 64, 64
1, 269839, Note_off_c, 0, 69, 39
1, 269842, Note_off_c, 0, 63, 64
1, 269843, Note_off_c, 0, 75, 38
1, 269849, Note_off_c, 0, 54, 63
1, 269850, Control_c, 0, 64, 82
1, 269865, Control_c, 0, 64, 98
1, 269880, Control_c, 0, 64, 111
1, 269917, Poly_aftertouch_c, 0, 71, 0
1, 269949, Note_on_c, 0, 45, 72
1, 269955, Control_c, 0, 64, 108
1, 269955, Control_c, 0, 67, 123
1, 269970, Control_c, 0, 64, 103
1, 269970, Control_c, 0, 67, 105
1, 269982, Note_on_c, 0, 51, 76
1, 269985, Control_c, 0, 64, 96
1, 269985, Control_c, 0, 67, 80
1, 269999, Control_c, 0, 64, 89
1, 269999, Control_c, 0, 67, 57
1, 270006, Note_off_c, 0, 45, 57
1, 270013, Note_on_c, 0, 54, 72
1, 270014, Control_c, 0, 64, 88
1, 270014, Control_c, 0, 67, 35
1, 270029, Control_c, 0, 64, 86
1, 270029, Control_c, 0, 67, 0
1, 270033, Note_off_c, 0, 51, 63
1, 270038, Note_on_c, 0, 59, 69
1, 270039, Note_off_c, 0, 54, 67
1, 270043, Control_c, 0, 64, 72
1, 270058, Control_c, 0, 64, 48
1, 270068, Note_off_c, 0, 59, 65
1, 270074, Control_c, 0, 64, 0
1, 270093, Poly_aftertouch_c, 0, 71, 0
1, 270104, Note_on_c, 0, 83, 94
1, 270107, Note_on_c, 0, 63, 88
1, 270107, Note_on_c, 0, 78, 93
1, 270110, Note_on_c, 0, 75, 80
1, 270113, Note_on_c, 0, 71, 42
1, 270120, Note_on_c, 0, 69, 59
1, 270122, Note_off_c, 0, 78, 75
1, 270125, Note_off_c, 0, 63, 73
1, 270128, Note_off_c, 0, 75, 71
1, 270135, Note_off_c, 0, 83, 65
1, 270140, Note_off_c, 0, 69, 61
1, 270140, Note_off_c, 0, 71, 49
1, 270271, Note_on_c, 0, 61, 81
1, 270271, Note_on_c, 0, 78, 101
1, 270274, Note_on_c, 0, 64, 74
1, 270279, Note_on_c, 0, 69, 69
1, 270280, Note_on_c, 0, 52, 69
1, 270295, Note_off_c, 0, 61, 68
1, 270299, Note_off_c, 0, 64, 69
1, 270299, Note_off_c, 0, 78, 63
1, 270302, Note_off_c, 0, 69, 66
1, 270309, Note_off_c, 0, 52, 65
1, 270323, Note_on_c, 0, 74, 8
1, 270323, Note_off_c, 0, 74, 127
1, 270420, Note_on_c, 0, 55, 64
1, 270429, Note_on_c, 0, 81, 78
1, 270450, Note_off_c, 0, 55, 66
1, 270460, Note_off_c, 0, 81, 61
1, 270466, Control_c, 0, 67, 23
1, 270481, Control_c, 0, 67, 29
1, 270496, Control_c, 0, 67, 34
1, 270511, Control_c, 0, 67, 39
1, 270526, Control_c, 0, 67, 47
1, 270540, Control_c, 0, 67, 58
1, 270555, Control_c, 0, 67, 71
1, 270558, Note_on_c, 0, 64, 51
1, 270570, Control_c, 0, 67, 82
1, 270580, Note_off_c, 0, 64, 60
1, 270585, Control_c, 0, 67, 90
1, 270586, Note_on_c, 0, 60, 13
1, 270587, Note_on_c, 0, 76, 71
1, 270597, Note_on_c, 0, 67, 45
1, 270600, Control_c, 0, 67, 96
1, 270615, Control_c, 0, 67, 99
1, 270620, Note_off_c, 0, 76, 59
1, 270623, Note_off_c, 0, 67, 56
1, 270630, Control_c, 0, 67, 102
1, 270632, Note_off_c, 0, 60, 43
1, 270645, Control_c, 0, 67, 107
1, 270660, Control_c, 0, 67, 114
1, 270674, Control_c, 0, 67, 125
1, 270689, Control_c, 0, 67, 127
1, 270746, Note_on_c, 0, 44, 47
1, 270928, Note_on_c, 0, 66, 53
1, 270971, Control_c, 0, 64, 33
1, 270983, Note_on_c, 0, 70, 59
1, 270986, Control_c, 0, 64, 38
1, 271001, Control_c, 0, 64, 50
1, 271016, Control_c, 0, 64, 59
1, 271031, Control_c, 0, 64, 62
1, 271046, Control_c, 0, 64, 62
1, 271049, Note_on_c, 0, 73, 73
1, 271052, Note_off_c, 0, 70, 64
1, 271061, Control_c, 0, 64, 63
1, 271076, Control_c, 0, 64, 64
1, 271090, Note_on_c, 0, 78, 76
1, 271090, Control_c, 0, 64, 67
1, 271105, Control_c, 0, 64, 71
1, 271108, Note_off_c, 0, 73, 63
1, 271120, Control_c, 0, 64, 76
1, 271142, Control_c, 0, 64, 80
1, 271157, Control_c, 0, 64, 83
1, 271171, Control_c, 0, 64, 85
1, 271172, Note_off_c, 0, 66, 62
1, 271186, Control_c, 0, 64, 88
1, 271201, Control_c, 0, 64, 97
1, 271204, Note_off_c, 0, 78, 64
1, 271215, Note_on_c, 0, 51, 25
1, 271216, Control_c, 0, 64, 112
1, 271231, Control_c, 0, 64, 127
1, 271390, Note_off_c, 0, 44, 58
1, 271392, Note_on_c, 0, 54, 42
1, 271419, Note_off_c, 0, 51, 42
1, 271460, Note_off_c, 0, 54, 62
1, 271461, Note_on_c, 0, 58, 50
1, 271484, Note_on_c, 0, 65, 40
1, 271500, Note_off_c, 0, 58, 64
1, 271522, Note_off_c, 0, 65, 58
1, 271538, Note_on_c, 0, 66, 65
1, 271590, Note_on_c, 0, 65, 77
1, 271606, Note_off_c, 0, 66, 60
1, 271628, Note_off_c, 0, 65, 64
1, 271648, Note_on_c, 0, 62, 87
1, 271676, Control_c, 0, 64, 95
1, 271691, Control_c, 0, 64, 77
1, 271706, Control_c, 0, 64, 67
1, 271720, Control_c, 0, 64, 61
1, 271735, Control_c, 0, 64, 60
1, 271750, Control_c, 0, 64, 62
1, 271765, Note_on_c, 0, 70, 60
1, 271765, Control_c, 0, 64, 64
1, 271780, Control_c, 0, 64, 67
1, 271794, Control_c, 0, 64, 70
1, 271800, Note_on_c, 0, 66, 22
1, 271805, Note_off_c, 0, 70, 64
1, 271809, Control_c, 0, 64, 74
1, 271824, Control_c, 0, 64, 77
1, 271839, Note_off_c, 0, 66, 40
1, 271839, Control_c, 0, 64, 81
1, 271854, Control_c, 0, 64, 84
1, 271869, Control_c, 0, 64, 86
1, 271891, Control_c, 0, 64, 88
1, 271906, Control_c, 0, 64, 92
1, 271920, Control_c, 0, 64, 97
1, 271935, Control_c, 0, 64, 103
1, 271950, Control_c, 0, 64, 107
1, 271994, Control_c, 0, 64, 109
1, 272005, Note_on_c, 0, 58, 45
1, 272024, Control_c, 0, 64, 112
1, 272083, Note_on_c, 0, 63, 71
1, 272091, Note_off_c, 0, 62, 60
1, 272134, Note_off_c, 0, 58, 38
1, 272167, Note_on_c, 0, 51, 58
1, 272187, Control_c, 0, 64, 117
1, 272190, Note_off_c, 0, 51, 61
1, 272202, Control_c, 0, 64, 127
1, 272246, Control_c, 0, 64, 122
1, 272261, Control_c, 0, 64, 85
1, 272276, Control_c, 0, 64, 56
1, 272280, Note_on_c, 0, 42, 71
1, 272291, Control_c, 0, 64, 0
1, 272348, Note_off_c, 0, 63, 63
1, 272365, Control_c, 0, 64, 55
1, 272371, Note_on_c, 0, 49, 61
1, 272376, Note_off_c, 0, 42, 63
1, 272380, Control_c, 0, 64, 69
1, 272381, Note_on_c, 0, 75, 82
1, 272394, Control_c, 0, 64, 85
1, 272396, Note_off_c, 0, 49, 66
1, 272403, Note_on_c, 0, 64, 57
1, 272409, Control_c, 0, 64, 127
1, 272423, Note_off_c, 0, 64, 64
1, 272424, Control_c, 0, 67, 121
1, 272433, Note_off_c, 0, 75, 66
1, 272438, Control_c, 0, 67, 106
1, 272453, Control_c, 0, 67, 92
1, 272469, Control_c, 0, 67, 79
1, 272484, Control_c, 0, 67, 68
1, 272486, Poly_aftertouch_c, 0, 70, 0
1, 272499, Control_c, 0, 67, 58
1, 272514, Control_c, 0, 67, 51
1, 272529, Control_c, 0, 67, 48
1, 272543, Note_on_c, 0, 58, 58
1, 272543, Control_c, 0, 67, 45
1, 272558, Control_c, 0, 67, 43
1, 272573, Control_c, 0, 67, 41
1, 272588, Control_c, 0, 67, 38
1, 272590, Note_on_c, 0, 67, 82
1, 272603, Control_c, 0, 67, 34
1, 272617, Control_c, 0, 67, 30
1, 272622, Note_off_c, 0, 67, 63
1, 272640, Control_c, 0, 67, 26
1, 272655, Control_c, 0, 67, 22
1, 272666, Note_on_c, 0, 61, 51
1, 272669, Control_c, 0, 67, 0
1, 272679, Note_on_c, 0, 67, 79
1, 272696, Note_off_c, 0, 58, 34
1, 272709, Note_off_c, 0, 67, 65
1, 272712, Note_on_c, 0, 64, 54
1, 272730, Note_off_c, 0, 61, 62
1, 272733, Note_off_c, 0, 64, 64
1, 272763, Note_on_c, 0, 67, 65
1, 272775, Note_on_c, 0, 69, 58
1, 272781, Note_off_c, 0, 67, 72
1, 272796, Note_off_c, 0, 69, 62
1, 272821, Note_on_c, 0, 67, 86
1, 272852, Note_off_c, 0, 67, 61
1, 272886, Poly_aftertouch_c, 0, 67, 0
1, 272893, Note_on_c, 0, 67, 72
1, 272933, Note_off_c, 0, 67, 0
1, 272943, Note_on_c, 0, 67, 72
1, 272977, Note_off_c, 0, 67, 67
1, 272982, Note_on_c, 0, 76, 89
1, 272995, Note_off_c, 0, 76, 72
1, 272995, Note_on_c, 0, 70, 76
1, 273009, Note_off_c, 0, 70, 69
1, 273015, Note_on_c, 0, 67, 93
1, 273038, Poly_aftertouch_c, 0, 65, 0
1, 273100, Note_off_c, 0, 67, 44
1, 273148, Note_on_c, 0, 64, 76
1, 273160, Note_on_c, 0, 66, 41
1, 273188, Note_off_c, 0, 66, 62
1, 273219, Note_off_c, 0, 64, 53
1, 273228, Note_on_c, 0, 61, 74
1, 273234, Note_on_c, 0, 70, 88
1, 273256, Note_on_c, 0, 58, 77
1, 273270, Note_off_c, 0, 61, 64
1, 273278, Note_off_c, 0, 58, 70
1, 273289, Note_on_c, 0, 67, 91
1, 273303, Note_off_c, 0, 70, 67
1, 273330, Note_off_c, 0, 67, 68
1, 273448, Control_c, 0, 64, 76
1, 273463, Control_c, 0, 64, 0
1, 273465, Note_on_c, 0, 40, 97
1, 273517, Note_on_c, 0, 41, 26
1, 273517, Note_off_c, 0, 41, 127
1, 273581, Control_c, 0, 64, 46
1, 273586, Note_on_c, 0, 47, 93
1, 273587, Note_on_c, 0, 66, 80
1, 273596, Control_c, 0, 64, 78
1, 273610, Control_c, 0, 64, 96
1, 273625, Control_c, 0, 64, 127
1, 273629, Note_off_c, 0, 47, 68
1, 273630, Note_on_c, 0, 68, 91
1, 273634, Note_off_c, 0, 40, 61
1, 273650, Note_off_c, 0, 66, 63
1, 273669, Note_on_c, 0, 74, 87
1, 273675, Note_off_c, 0, 68, 64
1, 273687, Note_on_c, 0, 78, 97
1, 273702, Note_off_c, 0, 74, 63
1, 273722, Note_off_c, 0, 78, 70
1, 273806, Note_on_c, 0, 56, 53
1, 273818, Note_on_c, 0, 55, 67
1, 273840, Note_off_c, 0, 56, 50
1, 273849, Note_off_c, 0, 55, 66
1, 273851, Note_on_c, 0, 59, 81
1, 273854, Note_on_c, 0, 73, 69
1, 273890, Note_off_c, 0, 59, 67
1, 273895, Note_on_c, 0, 75, 91
1, 273906, Note_off_c, 0, 73, 64
1, 273919, Note_on_c, 0, 62, 85
1, 273941, Note_off_c, 0, 62, 71
1, 273947, Note_on_c, 0, 74, 76
1, 273953, Note_on_c, 0, 73, 87
1, 273955, Note_off_c, 0, 75, 55
1, 273964, Note_off_c, 0, 74, 67
1, 273983, Note_off_c, 0, 73, 68
1, 274009, Note_on_c, 0, 70, 104
1, 274125, Note_on_c, 0, 68, 90
1, 274141, Note_on_c, 0, 66, 86
1, 274155, Note_off_c, 0, 68, 70
1, 274159, Note_off_c, 0, 66, 70
1, 274268, Note_off_c, 0, 70, 58
1, 274305, Note_on_c, 0, 71, 104
1, 274308, Note_on_c, 0, 62, 107
1, 274417, Note_off_c, 0, 62, 58
1, 274429, Note_on_c, 0, 56, 92
1, 274450, Note_off_c, 0, 56, 70
1, 274468, Note_off_c, 0, 71, 55
1, 274507, Control_c, 0, 64, 112
1, 274522, Control_c, 0, 64, 65
1, 274537, Control_c, 0, 64, 0
1, 274663, Note_on_c, 0, 78, 83
1, 274665, Note_on_c, 0, 83, 103
1, 274669, Note_on_c, 0, 72, 91
1, 274671, Note_on_c, 0, 38, 104
1, 274671, Note_on_c, 0, 45, 103
1, 274671, Note_on_c, 0, 71, 95
1, 274698, Note_off_c, 0, 78, 70
1, 274700, Control_c, 0, 64, 75
1, 274704, Note_off_c, 0, 45, 69
1, 274712, Note_off_c, 0, 71, 62
1, 274714, Note_off_c, 0, 38, 67
1, 274715, Control_c, 0, 64, 127
1, 274720, Note_off_c, 0, 83, 70
1, 274721, Note_off_c, 0, 72, 61
1, 274941, Note_on_c, 0, 54, 85
1, 274954, Note_on_c, 0, 75, 100
1, 274969, Note_on_c, 0, 53, 58
1, 274987, Note_off_c, 0, 75, 69
1, 274993, Note_off_c, 0, 53, 59
1, 275018, Note_off_c, 0, 54, 60
1, 275038, Note_on_c, 0, 60, 69
1, 275048, Note_on_c, 0, 59, 64
1, 275061, Note_on_c, 0, 75, 95
1, 275067, Note_off_c, 0, 59, 63
1, 275084, Note_off_c, 0, 75, 64
1, 275091, Note_off_c, 0, 60, 64
1, 275096, Note_on_c, 0, 63, 95
1, 275133, Note_off_c, 0, 63, 64
1, 275133, Note_on_c, 0, 75, 92
1, 275167, Note_off_c, 0, 75, 67
1, 275206, Note_on_c, 0, 75, 93
1, 275238, Note_off_c, 0, 75, 64
1, 275285, Note_on_c, 0, 75, 88
1, 275344, Note_off_c, 0, 75, 68
1, 275352, Note_on_c, 0, 63, 86
1, 275396, Note_off_c, 0, 63, 65
1, 275400, Note_on_c, 0, 75, 111
1, 275408, Note_on_c, 0, 69, 75
1, 275444, Note_off_c, 0, 75, 69
1, 275458, Note_on_c, 0, 66, 72
1, 275464, Note_off_c, 0, 69, 64
1, 275506, Note_off_c, 0, 66, 66
1, 275532, Note_on_c, 0, 62, 65
1, 275535, Note_on_c, 0, 69, 61
1, 275540, Note_on_c, 0, 67, 43
1, 275553, Note_off_c, 0, 62, 64
1, 275553, Note_off_c, 0, 69, 65
1, 275568, Note_off_c, 0, 67, 55
1, 275574, Note_on_c, 0, 78, 102
1, 275636, Note_on_c, 0, 75, 99
1, 275640, Note_off_c, 0, 78, 71
1, 275672, Note_off_c, 0, 75, 70
1, 275773, Note_on_c, 0, 72, 88
1, 275824, Note_on_c, 0, 69, 85
1, 275859, Note_off_c, 0, 72, 63
1, 275865, Note_on_c, 0, 66, 85
1, 275901, Note_on_c, 0, 63, 87
1, 275905, Note_off_c, 0, 69, 63
1, 275920, Note_off_c, 0, 66, 65
1, 275933, Note_off_c, 0, 63, 63
1, 275944, Note_on_c, 0, 60, 88
1, 275982, Note_off_c, 0, 60, 68
1, 275991, Note_on_c, 0, 59, 81
1, 276029, Note_off_c, 0, 59, 64
1, 276034, Note_on_c, 0, 55, 68
1, 276052, Note_on_c, 0, 54, 24
1, 276052, Note_off_c, 0, 54, 127
1, 276055, Note_off_c, 0, 55, 63
1, 276081, Note_on_c, 0, 50, 85
1, 276089, Note_on_c, 0, 52, 33
1, 276121, Note_off_c, 0, 52, 54
1, 276125, Note_off_c, 0, 50, 63
1, 276146, Note_on_c, 0, 47, 95
1, 276173, Note_on_c, 0, 43, 102
1, 276174, Note_on_c, 0, 36, 97
1, 276184, Control_c, 0, 64, 91
1, 276185, Note_off_c, 0, 47, 63
1, 276199, Control_c, 0, 64, 50
1, 276208, Note_off_c, 0, 43, 65
1, 276213, Control_c, 0, 64, 0
1, 276227, Note_off_c, 0, 36, 64
1, 276399, Control_c, 0, 67, 26
1, 276413, Control_c, 0, 67, 35
1, 276420, Note_on_c, 0, 51, 72
1, 276428, Control_c, 0, 67, 46
1, 276443, Control_c, 0, 67, 53
1, 276459, Note_off_c, 0, 51, 64
1, 276459, Control_c, 0, 67, 55
1, 276473, Note_on_c, 0, 59, 69
1, 276483, Note_on_c, 0, 55, 66
1, 276502, Note_on_c, 0, 47, 19
1, 276507, Note_on_c, 0, 51, 78
1, 276511, Note_off_c, 0, 55, 68
1, 276535, Note_off_c, 0, 51, 68
1, 276537, Note_off_c, 0, 59, 65
1, 276539, Note_off_c, 0, 47, 65
1, 276548, Control_c, 0, 67, 55
1, 276554, Note_on_c, 0, 44, 77
1, 276563, Control_c, 0, 67, 56
1, 276578, Control_c, 0, 67, 62
1, 276583, Note_off_c, 0, 44, 69
1, 276592, Control_c, 0, 67, 76
1, 276607, Control_c, 0, 67, 95
1, 276622, Control_c, 0, 67, 115
1, 276636, Control_c, 0, 67, 123
1, 276651, Control_c, 0, 67, 127
1, 276754, Note_on_c, 0, 55, 60
1, 276761, Note_on_c, 0, 47, 50
1, 276763, Note_on_c, 0, 59, 52
1, 276764, Note_on_c, 0, 51, 48
1, 276781, Note_off_c, 0, 55, 63
1, 276785, Note_off_c, 0, 59, 62
1, 276788, Note_off_c, 0, 47, 59
1, 276793, Note_off_c, 0, 51, 55
1, 276896, Note_on_c, 0, 36, 52
1, 276903, Note_on_c, 0, 43, 52
1, 276924, Note_off_c, 0, 36, 62
1, 276930, Note_off_c, 0, 43, 54
1, 277073, Note_on_c, 0, 55, 51
1, 277076, Note_on_c, 0, 59, 55
1, 277081, Note_on_c, 0, 51, 45
1, 277082, Note_on_c, 0, 47, 44
1, 277095, Note_off_c, 0, 55, 60
1, 277102, Note_off_c, 0, 59, 64
1, 277113, Note_off_c, 0, 51, 52
1, 277115, Note_off_c, 0, 47, 34
1, 277231, Note_on_c, 0, 31, 68
1, 277234, Note_on_c, 0, 43, 48
1, 277264, Note_off_c, 0, 31, 62
1, 277265, Note_off_c, 0, 43, 49
1, 277398, Note_on_c, 0, 57, 70
1, 277411, Note_on_c, 0, 49, 58
1, 277413, Note_on_c, 0, 53, 40
1, 277422, Note_on_c, 0, 46, 46
1, 277425, Note_off_c, 0, 57, 66
1, 277437, Note_off_c, 0, 49, 59
1, 277446, Note_off_c, 0, 53, 54
1, 277452, Note_off_c, 0, 46, 55
1, 277565, Note_on_c, 0, 65, 78
1, 277569, Note_on_c, 0, 50, 78
1, 277574, Note_on_c, 0, 53, 52
1, 277578, Note_on_c, 0, 56, 54
1, 277584, Note_on_c, 0, 47, 52
1, 277589, Note_off_c, 0, 65, 67
1, 277591, Note_off_c, 0, 50, 67
1, 277600, Note_off_c, 0, 53, 54
1, 277604, Note_off_c, 0, 56, 56
1, 277612, Note_off_c, 0, 47, 59
1, 277739, Note_on_c, 0, 36, 80
1, 277745, Note_on_c, 0, 43, 65
1, 277754, Control_c, 0, 64, 53
1, 277759, Note_off_c, 0, 36, 67
1, 277768, Note_off_c, 0, 43, 60
1, 277768, Control_c, 0, 64, 39
1, 277783, Control_c, 0, 64, 0
1, 277828, Control_c, 0, 64, 40
1, 277842, Control_c, 0, 64, 52
1, 277857, Control_c, 0, 64, 53
1, 277880, Control_c, 0, 64, 51
1, 277895, Control_c, 0, 64, 51
1, 277910, Control_c, 0, 64, 52
1, 277914, Note_on_c, 0, 51, 72
1, 277924, Control_c, 0, 64, 54
1, 277938, Note_on_c, 0, 47, 39
1, 277939, Control_c, 0, 64, 53
1, 277944, Note_off_c, 0, 51, 64
1, 277954, Control_c, 0, 64, 53
1, 277971, Note_off_c, 0, 47, 51
1, 277983, Control_c, 0, 64, 53
1, 277992, Note_on_c, 0, 55, 39
1, 277997, Note_on_c, 0, 59, 30
1, 277998, Control_c, 0, 64, 55
1, 278001, Note_on_c, 0, 51, 77
1, 278007, Note_on_c, 0, 47, 54
1, 278013, Control_c, 0, 64, 58
1, 278018, Note_off_c, 0, 55, 56
1, 278028, Note_off_c, 0, 51, 68
1, 278028, Control_c, 0, 64, 59
1, 278029, Note_off_c, 0, 59, 48
1, 278032, Note_off_c, 0, 47, 62
1, 278043, Control_c, 0, 64, 60
1, 278058, Note_on_c, 0, 44, 87
1, 278059, Control_c, 0, 64, 56
1, 278074, Control_c, 0, 64, 0
1, 278084, Note_off_c, 0, 44, 70
1, 278092, Note_on_c, 0, 43, 40
1, 278092, Note_off_c, 0, 43, 127
1, 278248, Note_on_c, 0, 59, 60
1, 278248, Note_on_c, 0, 47, 58
1, 278251, Note_on_c, 0, 51, 58
1, 278251, Note_on_c, 0, 55, 48
1, 278271, Note_off_c, 0, 59, 65
1, 278272, Note_off_c, 0, 47, 60
1, 278276, Note_off_c, 0, 55, 56
1, 278276, Note_off_c, 0, 51, 63
1, 278411, Note_on_c, 0, 43, 60
1, 278412, Note_on_c, 0, 36, 69
1, 278435, Note_off_c, 0, 43, 59
1, 278440, Note_off_c, 0, 36, 63
1, 278576, Note_on_c, 0, 55, 43
1, 278576, Note_on_c, 0, 59, 51
1, 278578, Note_on_c, 0, 47, 46
1, 278590, Note_on_c, 0, 51, 36
1, 278599, Note_off_c, 0, 59, 63
1, 278600, Note_off_c, 0, 55, 52
1, 278608, Note_off_c, 0, 47, 35
1, 278634, Note_off_c, 0, 51, 32
1, 278735, Note_on_c, 0, 31, 75
1, 278740, Note_on_c, 0, 43, 66
1, 278760, Note_off_c, 0, 31, 64
1, 278764, Note_off_c, 0, 43, 62
1, 278889, Note_on_c, 0, 57, 67
1, 278894, Note_on_c, 0, 53, 50
1, 278902, Note_on_c, 0, 49, 60
1, 278917, Note_off_c, 0, 57, 66
1, 278919, Note_off_c, 0, 53, 54
1, 278924, Note_on_c, 0, 46, 29
1, 278926, Note_off_c, 0, 49, 59
1, 278965, Note_off_c, 0, 46, 44
1, 279053, Note_on_c, 0, 56, 69
1, 279053, Note_on_c, 0, 65, 73
1, 279055, Note_on_c, 0, 50, 59
1, 279058, Note_on_c, 0, 53, 46
1, 279064, Note_on_c, 0, 47, 49
1, 279079, Note_off_c, 0, 50, 60
1, 279079, Note_off_c, 0, 65, 69
1, 279083, Note_off_c, 0, 56, 64
1, 279088, Note_off_c, 0, 53, 50
1, 279092, Note_off_c, 0, 47, 56
1, 279220, Note_on_c, 0, 43, 78
1, 279222, Control_c, 0, 64, 47
1, 279226, Note_on_c, 0, 36, 71
1, 279237, Control_c, 0, 64, 69
1, 279243, Note_off_c, 0, 43, 67
1, 279252, Control_c, 0, 64, 74
1, 279256, Note_off_c, 0, 36, 62
1, 279267, Control_c, 0, 64, 81
1, 279282, Control_c, 0, 64, 83
1, 279297, Control_c, 0, 64, 88
1, 279312, Control_c, 0, 64, 90
1, 279404, Note_on_c, 0, 63, 60
1, 279408, Note_on_c, 0, 59, 54
1, 279426, Note_off_c, 0, 63, 65
1, 279429, Note_off_c, 0, 59, 60
1, 279443, Note_on_c, 0, 71, 62
1, 279456, Note_on_c, 0, 67, 54
1, 279482, Control_c, 0, 64, 90
1, 279488, Note_on_c, 0, 63, 83
1, 279488, Note_off_c, 0, 67, 65
1, 279497, Control_c, 0, 64, 87
1, 279498, Note_on_c, 0, 59, 48
1, 279503, Note_off_c, 0, 71, 61
1, 279512, Control_c, 0, 64, 81
1, 279525, Note_off_c, 0, 59, 55
1, 279526, Control_c, 0, 64, 73
1, 279541, Control_c, 0, 64, 65
1, 279544, Note_on_c, 0, 56, 78
1, 279544, Note_on_c, 0, 68, 83
1, 279556, Control_c, 0, 64, 59
1, 279564, Note_off_c, 0, 63, 61
1, 279565, Note_off_c, 0, 68, 71
1, 279568, Note_off_c, 0, 56, 67
1, 279571, Control_c, 0, 64, 60
1, 279586, Control_c, 0, 64, 66
1, 279586, Control_c, 0, 67, 119
1, 279600, Control_c, 0, 64, 72
1, 279600, Control_c, 0, 67, 98
1, 279615, Control_c, 0, 64, 77
1, 279615, Control_c, 0, 67, 74
1, 279629, Control_c, 0, 64, 78
1, 279629, Control_c, 0, 67, 51
1, 279645, Control_c, 0, 64, 79
1, 279645, Control_c, 0, 67, 33
1, 279660, Control_c, 0, 67, 23
1, 279675, Control_c, 0, 64, 79
1, 279675, Control_c, 0, 67, 0
1, 279690, Control_c, 0, 64, 81
1, 279705, Control_c, 0, 64, 86
1, 279714, Note_on_c, 0, 59, 68
1, 279716, Note_on_c, 0, 63, 72
1, 279720, Control_c, 0, 64, 92
1, 279723, Note_on_c, 0, 67, 55
1, 279726, Note_on_c, 0, 71, 48
1, 279734, Control_c, 0, 64, 96
1, 279739, Note_off_c, 0, 63, 69
1, 279740, Note_off_c, 0, 59, 68
1, 279746, Note_off_c, 0, 67, 60
1, 279749, Control_c, 0, 64, 98
1, 279751, Note_off_c, 0, 71, 59
1, 279838, Control_c, 0, 64, 96
1, 279852, Control_c, 0, 64, 94
1, 279858, Note_on_c, 0, 55, 89
1, 279867, Control_c, 0, 64, 90
1, 279881, Note_off_c, 0, 55, 70
1, 279882, Control_c, 0, 64, 88
1, 279897, Control_c, 0, 64, 87
1, 279926, Control_c, 0, 64, 87
1, 279941, Control_c, 0, 64, 89
1, 279956, Control_c, 0, 64, 94
1, 279971, Control_c, 0, 64, 101
1, 279986, Control_c, 0, 64, 109
1, 280000, Control_c, 0, 64, 127
1, 280015, Note_on_c, 0, 67, 64
1, 280015, Note_on_c, 0, 63, 68
1, 280015, Note_on_c, 0, 71, 60
1, 280020, Note_on_c, 0, 59, 61
1, 280035, Note_off_c, 0, 67, 65
1, 280037, Note_off_c, 0, 71, 65
1, 280039, Note_off_c, 0, 59, 64
1, 280041, Note_off_c, 0, 63, 64
1, 280075, Control_c, 0, 64, 89
1, 280090, Control_c, 0, 64, 66
1, 280104, Control_c, 0, 64, 0
1, 280179, Note_on_c, 0, 31, 91
1, 280187, Note_on_c, 0, 43, 81
1, 280200, Control_c, 0, 64, 64
1, 280209, Note_off_c, 0, 43, 67
1, 280215, Control_c, 0, 64, 88
1, 280220, Note_off_c, 0, 31, 62
1, 280230, Control_c, 0, 64, 127
1, 280334, Note_on_c, 0, 65, 64
1, 280335, Note_on_c, 0, 57, 62
1, 280336, Note_on_c, 0, 69, 68
1, 280337, Note_on_c, 0, 53, 71
1, 280339, Note_on_c, 0, 61, 64
1, 280353, Note_on_c, 0, 49, 61
1, 280356, Note_off_c, 0, 57, 63
1, 280360, Note_off_c, 0, 61, 62
1, 280360, Note_off_c, 0, 65, 66
1, 280361, Note_off_c, 0, 69, 69
1, 280363, Note_off_c, 0, 53, 68
1, 280389, Note_off_c, 0, 49, 64
1, 280491, Note_on_c, 0, 59, 67
1, 280495, Note_on_c, 0, 77, 72
1, 280500, Note_on_c, 0, 68, 71
1, 280501, Note_on_c, 0, 53, 50
1, 280501, Note_on_c, 0, 65, 58
1, 280511, Note_off_c, 0, 59, 65
1, 280521, Note_off_c, 0, 53, 62
1, 280521, Note_off_c, 0, 65, 68
1, 280524, Note_off_c, 0, 68, 68
1, 280531, Note_off_c, 0, 77, 59
1, 280647, Note_on_c, 0, 31, 97
1, 280651, Note_on_c, 0, 43, 93
1, 280675, Note_off_c, 0, 43, 70
1, 280683, Note_off_c, 0, 31, 67
1, 280794, Note_on_c, 0, 69, 66
1, 280796, Note_on_c, 0, 77, 69
1, 280797, Note_on_c, 0, 81, 76
1, 280801, Note_on_c, 0, 73, 68
1, 280805, Note_on_c, 0, 61, 76
1, 280811, Note_off_c, 0, 69, 67
1, 280813, Note_off_c, 0, 77, 67
1, 280818, Note_off_c, 0, 73, 66
1, 280820, Note_on_c, 0, 58, 50
1, 280827, Note_off_c, 0, 81, 65
1, 280830, Note_off_c, 0, 61, 68
1, 280850, Note_off_c, 0, 58, 65
1, 280946, Note_on_c, 0, 65, 74
1, 280950, Note_on_c, 0, 89, 87
1, 280951, Note_on_c, 0, 77, 69
1, 280951, Note_on_c, 0, 80, 85
1, 280954, Note_on_c, 0, 59, 68
1, 280969, Note_off_c, 0, 65, 69
1, 280973, Note_off_c, 0, 80, 68
1, 280976, Note_off_c, 0, 89, 65
1, 280978, Note_off_c, 0, 77, 66
1, 280981, Note_off_c, 0, 59, 67
1, 281103, Note_on_c, 0, 43, 98
1, 281139, Note_off_c, 0, 43, 67
1, 281237, Note_on_c, 0, 69, 81
1, 281237, Note_on_c, 0, 81, 86
1, 281239, Note_on_c, 0, 77, 76
1, 281242, Note_on_c, 0, 58, 72
1, 281242, Note_on_c, 0, 73, 78
1, 281253, Note_on_c, 0, 62, 68
1, 281255, Note_off_c, 0, 69, 72
1, 281260, Note_off_c, 0, 77, 70
1, 281263, Note_off_c, 0, 73, 71
1, 281273, Note_off_c, 0, 58, 67
1, 281276, Note_off_c, 0, 81, 66
1, 281281, Note_off_c, 0, 62, 66
1, 281381, Note_on_c, 0, 65, 93
1, 281387, Note_on_c, 0, 89, 100
1, 281388, Note_on_c, 0, 59, 82
1, 281390, Note_on_c, 0, 77, 95
1, 281390, Note_on_c, 0, 80, 98
1, 281398, Note_off_c, 0, 65, 73
1, 281410, Note_off_c, 0, 77, 67
1, 281412, Note_off_c, 0, 59, 71
1, 281413, Note_off_c, 0, 80, 66
1, 281421, Note_off_c, 0, 89, 65
1, 281530, Note_on_c, 0, 43, 104
1, 281562, Note_off_c, 0, 43, 69
1, 281655, Note_on_c, 0, 81, 94
1, 281657, Note_on_c, 0, 69, 79
1, 281657, Note_on_c, 0, 77, 80
1, 281660, Note_on_c, 0, 73, 77
1, 281664, Note_on_c, 0, 58, 87
1, 281666, Note_on_c, 0, 61, 95
1, 281675, Note_off_c, 0, 73, 70
1, 281675, Note_off_c, 0, 77, 71
1, 281676, Note_off_c, 0, 69, 70
1, 281676, Note_on_c, 0, 74, 71
1, 281687, Note_off_c, 0, 58, 69
1, 281691, Note_off_c, 0, 81, 68
1, 281692, Note_off_c, 0, 74, 67
1, 281703, Note_on_c, 0, 60, 27
1, 281704, Note_off_c, 0, 61, 61
1, 281741, Note_off_c, 0, 60, 53
1, 281798, Note_on_c, 0, 65, 98
1, 281799, Note_on_c, 0, 59, 83
1, 281807, Note_on_c, 0, 89, 104
1, 281810, Note_on_c, 0, 77, 102
1, 281815, Note_on_c, 0, 81, 92
1, 281825, Note_off_c, 0, 65, 65
1, 281826, Note_off_c, 0, 77, 68
1, 281828, Note_off_c, 0, 59, 69
1, 281831, Note_off_c, 0, 81, 74
1, 281837, Note_off_c, 0, 89, 64
1, 281944, Note_on_c, 0, 43, 106
1, 281979, Note_off_c, 0, 43, 67
1, 282069, Note_on_c, 0, 69, 87
1, 282069, Note_on_c, 0, 77, 84
1, 282070, Note_on_c, 0, 81, 96
1, 282072, Note_on_c, 0, 73, 100
1, 282081, Note_on_c, 0, 58, 78
1, 282086, Note_off_c, 0, 77, 74
1, 282087, Note_off_c, 0, 73, 75
1, 282089, Note_off_c, 0, 69, 70
1, 282095, Note_on_c, 0, 61, 58
1, 282105, Note_on_c, 0, 56, 36
1, 282109, Note_off_c, 0, 58, 66
1, 282109, Note_off_c, 0, 81, 67
1, 282115, Note_on_c, 0, 62, 55
1, 282118, Note_off_c, 0, 61, 41
1, 282135, Note_off_c, 0, 62, 62
1, 282138, Note_off_c, 0, 56, 50
1, 282169, Poly_aftertouch_c, 0, 60, 0
1, 282194, Poly_aftertouch_c, 0, 60, 0
1, 282272, Note_on_c, 0, 89, 104
1, 282275, Note_on_c, 0, 77, 96
1, 282278, Note_on_c, 0, 88, 92
1, 282278, Note_on_c, 0, 65, 101
1, 282280, Note_on_c, 0, 59, 96
1, 282280, Note_on_c, 0, 79, 103
1, 282284, Note_on_c, 0, 80, 79
1, 282307, Note_off_c, 0, 88, 0
1, 282307, Note_on_c, 0, 88, 61
1, 282322, Note_off_c, 0, 65, 71
1, 282329, Note_off_c, 0, 59, 68
1, 282343, Note_on_c, 0, 60, 3
1, 282343, Note_off_c, 0, 60, 127
1, 282349, Note_off_c, 0, 88, 0
1, 282349, Note_on_c, 0, 88, 6
1, 282354, Note_off_c, 0, 77, 69
1, 282354, Note_off_c, 0, 79, 69
1, 282358, Note_off_c, 0, 89, 67
1, 282364, Note_off_c, 0, 80, 28
1, 282392, Poly_aftertouch_c, 0, 60, 0
1, 282403, Note_off_c, 0, 88, 43
1, 282478, Control_c, 0, 64, 64
1, 282492, Control_c, 0, 64, 0
1, 282759, Control_c, 0, 64, 127
1, 282781, Note_on_c, 0, 47, 103
1, 282785, Note_on_c, 0, 31, 98
1, 282791, Note_on_c, 0, 37, 90
1, 282823, Note_on_c, 0, 43, 48
1, 282830, Note_on_c, 0, 54, 40
1, 282853, Note_off_c, 0, 43, 56
1, 282888, Note_on_c, 0, 49, 88
1, 282890, Note_off_c, 0, 47, 62
1, 282898, Note_on_c, 0, 43, 85
1, 282899, Note_off_c, 0, 37, 61
1, 282909, Note_off_c, 0, 31, 54
1, 282937, Note_off_c, 0, 49, 65
1, 282942, Note_off_c, 0, 54, 0
1, 282946, Note_on_c, 0, 50, 47
1, 282949, Note_on_c, 0, 53, 85
1, 282965, Note_on_c, 0, 31, 80
1, 282966, Note_on_c, 0, 37, 86
1, 282972, Note_off_c, 0, 53, 70
1, 282974, Note_off_c, 0, 43, 61
1, 282975, Note_off_c, 0, 50, 54
1, 282979, Poly_aftertouch_c, 0, 54, 127
1, 283012, Poly_aftertouch_c, 0, 54, 0
1, 283022, Note_on_c, 0, 57, 79
1, 283025, Note_on_c, 0, 59, 83
1, 283029, Note_on_c, 0, 43, 88
1, 283047, Note_off_c, 0, 31, 40
1, 283071, Note_off_c, 0, 57, 63
1, 283075, Note_off_c, 0, 59, 63
1, 283093, Note_on_c, 0, 60, 63
1, 283095, Note_off_c, 0, 37, 56
1, 283129, Note_off_c, 0, 60, 67
1, 283133, Note_on_c, 0, 65, 75
1, 283139, Note_on_c, 0, 64, 74
1, 283158, Note_off_c, 0, 65, 71
1, 283162, Note_off_c, 0, 64, 70
1, 283167, Note_off_c, 0, 43, 64
1, 283195, Note_on_c, 0, 69, 88
1, 283253, Note_off_c, 0, 69, 58
1, 283283, Note_on_c, 0, 77, 75
1, 283285, Note_on_c, 0, 76, 82
1, 283285, Control_c, 0, 64, 88
1, 283291, Note_on_c, 0, 72, 45
1, 283300, Control_c, 0, 64, 51
1, 283306, Poly_aftertouch_c, 0, 71, 0
1, 283312, Note_off_c, 0, 76, 65
1, 283313, Note_off_c, 0, 77, 64
1, 283315, Control_c, 0, 64, 0
1, 283317, Note_off_c, 0, 72, 53
1, 283412, Note_on_c, 0, 86, 105
1, 283418, Note_on_c, 0, 74, 102
1, 283420, Note_on_c, 0, 45, 104
1, 283420, Note_on_c, 0, 78, 105
1, 283420, Note_on_c, 0, 38, 97
1, 283451, Note_off_c, 0, 74, 71
1, 283452, Note_off_c, 0, 45, 68
1, 283455, Note_off_c, 0, 86, 67
1, 283459, Note_off_c, 0, 38, 67
1, 283460, Note_off_c, 0, 78, 66
1, 283464, Control_c, 0, 64, 104
1, 283479, Control_c, 0, 64, 127
1, 283645, Note_on_c, 0, 62, 99
1, 283646, Note_on_c, 0, 69, 98
1, 283652, Note_on_c, 0, 66, 86
1, 283667, Note_off_c, 0, 69, 67
1, 283670, Note_off_c, 0, 62, 64
1, 283670, Note_off_c, 0, 66, 71
1, 283816, Note_on_c, 0, 86, 103
1, 283818, Note_on_c, 0, 74, 103
1, 283818, Note_on_c, 0, 78, 102
1, 283843, Note_off_c, 0, 74, 66
1, 283846, Note_off_c, 0, 78, 68
1, 283847, Note_off_c, 0, 86, 69
1, 283996, Note_on_c, 0, 62, 94
1, 283998, Note_on_c, 0, 69, 96
1, 284001, Note_on_c, 0, 66, 91
1, 284022, Note_off_c, 0, 66, 67
1, 284024, Note_off_c, 0, 69, 66
1, 284030, Note_off_c, 0, 62, 69
1, 284142, Note_on_c, 0, 86, 101
1, 284144, Note_on_c, 0, 74, 87
1, 284147, Note_on_c, 0, 78, 91
1, 284164, Note_off_c, 0, 74, 70
1, 284164, Note_off_c, 0, 78, 72
1, 284177, Note_off_c, 0, 86, 67
1, 284304, Note_on_c, 0, 70, 97
1, 284306, Note_on_c, 0, 66, 90
1, 284308, Note_on_c, 0, 90, 105
1, 284311, Note_on_c, 0, 78, 98
1, 284311, Note_on_c, 0, 82, 99
1, 284327, Note_off_c, 0, 70, 68
1, 284329, Note_off_c, 0, 66, 69
1, 284330, Note_off_c, 0, 82, 68
1, 284335, Note_off_c, 0, 78, 65
1, 284336, Note_off_c, 0, 90, 70
1, 284493, Note_on_c, 0, 86, 107
1, 284493, Note_on_c, 0, 74, 108
1, 284493, Note_on_c, 0, 78, 106
1, 284499, Note_on_c, 0, 84, 93
1, 284513, Note_off_c, 0, 78, 68
1, 284513, Note_off_c, 0, 84, 71
1, 284516, Note_off_c, 0, 74, 67
1, 284517, Note_off_c, 0, 86, 70
1, 284629, Poly_aftertouch_c, 0, 84, 127
1, 284653, Note_on_c, 0, 50, 81
1, 284658, Note_on_c, 0, 57, 88
1, 284661, Poly_aftertouch_c, 0, 84, 0
1, 284707, Note_off_c, 0, 57, 64
1, 284721, Note_on_c, 0, 62, 89
1, 284726, Note_off_c, 0, 50, 60
1, 284761, Note_off_c, 0, 62, 66
1, 284821, Note_on_c, 0, 78, 103
1, 284821, Note_on_c, 0, 74, 94
1, 284823, Note_on_c, 0, 66, 97
1, 284824, Note_on_c, 0, 86, 94
1, 284829, Note_on_c, 0, 84, 96
1, 284831, Note_on_c, 0, 69, 84
1, 284841, Note_off_c, 0, 74, 68
1, 284846, Note_off_c, 0, 84, 73
1, 284850, Note_off_c, 0, 69, 71
1, 284853, Note_off_c, 0, 66, 62
1, 284853, Note_off_c, 0, 78, 70
1, 284853, Note_off_c, 0, 86, 65
1, 284999, Note_on_c, 0, 80, 100
1, 285003, Note_on_c, 0, 81, 101
1, 285010, Note_on_c, 0, 68, 97
1, 285032, Note_on_c, 0, 65, 59
1, 285041, Note_on_c, 0, 58, 40
1, 285055, Note_off_c, 0, 65, 60
1, 285060, Note_off_c, 0, 68, 63
1, 285063, Note_off_c, 0, 81, 60
1, 285068, Note_on_c, 0, 69, 93
1, 285073, Note_off_c, 0, 58, 57
1, 285103, Poly_aftertouch_c, 0, 57, 127
1, 285113, Note_off_c, 0, 80, 61
1, 285122, Note_off_c, 0, 69, 63
1, 285147, Note_on_c, 0, 79, 93
1, 285147, Poly_aftertouch_c, 0, 57, 0
1, 285158, Note_on_c, 0, 67, 77
1, 285159, Note_on_c, 0, 84, 94
1, 285160, Note_on_c, 0, 64, 76
1, 285172, Note_on_c, 0, 65, 62
1, 285178, Note_on_c, 0, 60, 58
1, 285181, Note_off_c, 0, 79, 69
1, 285184, Note_off_c, 0, 64, 67
1, 285192, Note_off_c, 0, 65, 64
1, 285196, Note_off_c, 0, 67, 65
1, 285198, Note_on_c, 0, 59, 27
1, 285200, Note_off_c, 0, 84, 65
1, 285208, Note_off_c, 0, 60, 66
1, 285229, Note_on_c, 0, 72, 85
1, 285229, Note_off_c, 0, 59, 53
1, 285266, Note_off_c, 0, 72, 66
1, 285292, Note_on_c, 0, 75, 92
1, 285296, Note_on_c, 0, 55, 90
1, 285300, Note_on_c, 0, 79, 86
1, 285302, Note_on_c, 0, 63, 87
1, 285315, Note_on_c, 0, 61, 58
1, 285321, Note_on_c, 0, 73, 40
1, 285323, Note_off_c, 0, 63, 71
1, 285330, Note_off_c, 0, 75, 63
1, 285336, Note_off_c, 0, 55, 66
1, 285338, Note_off_c, 0, 61, 60
1, 285352, Note_off_c, 0, 73, 54
1, 285360, Note_on_c, 0, 67, 78
1, 285388, Note_off_c, 0, 67, 72
1, 285389, Note_off_c, 0, 79, 66
1, 285399, Control_c, 0, 64, 113
1, 285414, Control_c, 0, 64, 73
1, 285429, Control_c, 0, 64, 48
1, 285444, Control_c, 0, 64, 0
1, 285464, Note_on_c, 0, 69, 94
1, 285466, Note_on_c, 0, 66, 99
1, 285469, Note_on_c, 0, 62, 97
1, 285470, Note_on_c, 0, 86, 101
1, 285472, Note_on_c, 0, 78, 102
1, 285473, Control_c, 0, 64, 39
1, 285488, Control_c, 0, 64, 61
1, 285491, Note_off_c, 0, 69, 68
1, 285496, Note_off_c, 0, 66, 66
1, 285498, Note_off_c, 0, 62, 66
1, 285503, Control_c, 0, 64, 73
1, 285505, Note_off_c, 0, 78, 70
1, 285511, Note_off_c, 0, 86, 67
1, 285517, Control_c, 0, 64, 91
1, 285532, Control_c, 0, 64, 127
1, 285612, Note_on_c, 0, 80, 55
1, 285633, Note_off_c, 0, 80, 61
1, 285652, Note_on_c, 0, 74, 88
1, 285655, Note_on_c, 0, 50, 70
1, 285661, Note_on_c, 0, 52, 73
1, 285667, Note_on_c, 0, 57, 83
1, 285682, Note_on_c, 0, 78, 85
1, 285690, Note_off_c, 0, 52, 62
1, 285707, Note_off_c, 0, 57, 63
1, 285709, Note_off_c, 0, 50, 60
1, 285712, Note_off_c, 0, 74, 64
1, 285714, Note_on_c, 0, 81, 91
1, 285736, Note_off_c, 0, 78, 63
1, 285754, Note_on_c, 0, 62, 12
1, 285784, Note_off_c, 0, 81, 61
1, 285785, Note_on_c, 0, 78, 96
1, 285787, Note_on_c, 0, 86, 98
1, 285792, Note_on_c, 0, 74, 88
1, 285795, Note_on_c, 0, 84, 88
1, 285800, Note_on_c, 0, 69, 80
1, 285800, Note_on_c, 0, 71, 97
1, 285804, Note_off_c, 0, 62, 47
1, 285809, Note_off_c, 0, 74, 74
1, 285810, Note_on_c, 0, 67, 84
1, 285810, Note_off_c, 0, 84, 71
1, 285815, Note_off_c, 0, 78, 70
1, 285816, Note_off_c, 0, 71, 75
1, 285818, Note_off_c, 0, 69, 73
1, 285818, Note_off_c, 0, 86, 66
1, 285829, Note_off_c, 0, 67, 69
1, 285957, Note_on_c, 0, 79, 105
1, 285961, Note_on_c, 0, 68, 97
1, 285961, Note_on_c, 0, 81, 96
1, 285968, Note_on_c, 0, 65, 80
1, 285972, Note_on_c, 0, 57, 80
1, 285988, Note_off_c, 0, 65, 72
1, 285989, Note_on_c, 0, 58, 16
1, 285989, Note_off_c, 0, 58, 127
1, 285992, Note_on_c, 0, 78, 26
1, 285992, Note_off_c, 0, 78, 127
1, 285993, Note_off_c, 0, 57, 67
1, 285999, Note_off_c, 0, 68, 67
1, 286000, Note_off_c, 0, 81, 58
1, 286007, Note_off_c, 0, 79, 60
1, 286035, Note_on_c, 0, 69, 84
1, 286079, Note_off_c, 0, 69, 64
1, 286105, Note_on_c, 0, 67, 69
1, 286107, Note_on_c, 0, 79, 68
1, 286121, Note_on_c, 0, 84, 93
1, 286123, Note_on_c, 0, 64, 68
1, 286126, Note_on_c, 0, 60, 61
1, 286140, Note_off_c, 0, 79, 67
1, 286147, Note_off_c, 0, 64, 69
1, 286152, Note_off_c, 0, 60, 67
1, 286159, Note_off_c, 0, 67, 63
1, 286168, Note_off_c, 0, 84, 63
1, 286191, Note_on_c, 0, 72, 85
1, 286233, Note_off_c, 0, 72, 66
1, 286248, Note_on_c, 0, 75, 87
1, 286253, Note_on_c, 0, 55, 77
1, 286259, Note_on_c, 0, 79, 74
1, 286263, Note_on_c, 0, 73, 63
1, 286281, Control_c, 0, 67, 39
1, 286284, Note_off_c, 0, 73, 64
1, 286284, Note_on_c, 0, 61, 33
1, 286291, Note_off_c, 0, 75, 64
1, 286296, Control_c, 0, 67, 51
1, 286299, Note_off_c, 0, 55, 63
1, 286311, Control_c, 0, 67, 58
1, 286313, Note_off_c, 0, 79, 62
1, 286322, Note_off_c, 0, 61, 50
1, 286326, Control_c, 0, 64, 97
1, 286326, Control_c, 0, 67, 72
1, 286335, Note_on_c, 0, 67, 43
1, 286341, Control_c, 0, 64, 78
1, 286341, Control_c, 0, 67, 89
1, 286342, Note_on_c, 0, 69, 48
1, 286356, Control_c, 0, 64, 64
1, 286356, Control_c, 0, 67, 101
1, 286361, Note_off_c, 0, 67, 58
1, 286362, Note_off_c, 0, 69, 60
1, 286371, Control_c, 0, 64, 51
1, 286371, Control_c, 0, 67, 105
1, 286386, Control_c, 0, 64, 33
1, 286400, Control_c, 0, 64, 0
1, 286409, Note_on_c, 0, 62, 67
1, 286413, Note_on_c, 0, 86, 90
1, 286415, Note_on_c, 0, 66, 68
1, 286415, Note_on_c, 0, 69, 75
1, 286415, Control_c, 0, 67, 108
1, 286422, Note_on_c, 0, 78, 74
1, 286430, Control_c, 0, 67, 114
1, 286437, Note_off_c, 0, 62, 67
1, 286438, Note_off_c, 0, 69, 70
1, 286443, Note_off_c, 0, 66, 67
1, 286445, Control_c, 0, 64, 47
1, 286445, Control_c, 0, 67, 120
1, 286450, Note_off_c, 0, 78, 62
1, 286454, Note_off_c, 0, 86, 60
1, 286460, Control_c, 0, 64, 58
1, 286460, Control_c, 0, 67, 124
1, 286489, Control_c, 0, 64, 54
1, 286500, Note_on_c, 0, 74, 67
1, 286504, Control_c, 0, 64, 50
1, 286519, Control_c, 0, 64, 50
1, 286526, Note_off_c, 0, 74, 68
1, 286534, Control_c, 0, 64, 55
1, 286534, Control_c, 0, 67, 126
1, 286548, Control_c, 0, 64, 61
1, 286556, Note_on_c, 0, 80, 75
1, 286562, Note_on_c, 0, 81, 75
1, 286563, Control_c, 0, 64, 66
1, 286567, Note_on_c, 0, 68, 72
1, 286567, Note_on_c, 0, 57, 64
1, 286578, Control_c, 0, 64, 70
1, 286593, Control_c, 0, 64, 73
1, 286596, Note_off_c, 0, 81, 61
1, 286602, Note_off_c, 0, 68, 64
1, 286603, Note_off_c, 0, 80, 59
1, 286603, Note_off_c, 0, 57, 64
1, 286608, Control_c, 0, 64, 74
1, 286631, Note_on_c, 0, 69, 72
1, 286652, Control_c, 0, 67, 124
1, 286666, Note_off_c, 0, 69, 63
1, 286696, Control_c, 0, 67, 122
1, 286708, Note_on_c, 0, 84, 87
1, 286710, Note_on_c, 0, 67, 72
1, 286710, Note_on_c, 0, 79, 65
1, 286717, Note_on_c, 0, 64, 52
1, 286726, Note_on_c, 0, 60, 45
1, 286727, Note_off_c, 0, 79, 68
1, 286734, Note_off_c, 0, 84, 66
1, 286739, Note_off_c, 0, 67, 64
1, 286747, Note_off_c, 0, 64, 64
1, 286755, Note_off_c, 0, 60, 54
1, 286769, Note_on_c, 0, 72, 74
1, 286785, Control_c, 0, 64, 73
1, 286797, Note_off_c, 0, 72, 64
1, 286800, Control_c, 0, 64, 72
1, 286815, Control_c, 0, 64, 72
1, 286830, Control_c, 0, 64, 72
1, 286830, Control_c, 0, 67, 119
1, 286832, Note_on_c, 0, 75, 80
1, 286838, Note_on_c, 0, 79, 72
1, 286845, Control_c, 0, 64, 75
1, 286846, Note_on_c, 0, 73, 66
1, 286850, Note_on_c, 0, 63, 69
1, 286851, Note_on_c, 0, 55, 66
1, 286856, Note_off_c, 0, 75, 67
1, 286868, Control_c, 0, 64, 79
1, 286868, Control_c, 0, 67, 116
1, 286873, Note_on_c, 0, 61, 44
1, 286873, Note_off_c, 0, 73, 65
1, 286879, Note_off_c, 0, 55, 65
1, 286883, Control_c, 0, 64, 83
1, 286884, Note_off_c, 0, 63, 68
1, 286895, Note_off_c, 0, 79, 66
1, 286897, Control_c, 0, 64, 86
1, 286903, Note_off_c, 0, 61, 55
1, 286925, Note_on_c, 0, 67, 51
1, 286927, Control_c, 0, 64, 80
1, 286942, Control_c, 0, 64, 67
1, 286942, Control_c, 0, 67, 114
1, 286948, Note_off_c, 0, 67, 59
1, 286957, Control_c, 0, 64, 53
1, 286971, Control_c, 0, 64, 54
1, 286971, Control_c, 0, 67, 111
1, 286986, Control_c, 0, 64, 60
1, 286986, Control_c, 0, 67, 109
1, 286990, Note_on_c, 0, 69, 87
1, 286991, Note_on_c, 0, 86, 100
1, 286995, Note_on_c, 0, 62, 79
1, 286995, Note_on_c, 0, 78, 82
1, 287001, Control_c, 0, 64, 67
1, 287007, Note_on_c, 0, 67, 68
1, 287012, Note_off_c, 0, 78, 72
1, 287016, Note_on_c, 0, 66, 33
1, 287016, Note_off_c, 0, 66, 127
1, 287016, Control_c, 0, 64, 74
1, 287017, Note_off_c, 0, 62, 70
1, 287020, Note_off_c, 0, 69, 64
1, 287024, Note_off_c, 0, 67, 67
1, 287031, Control_c, 0, 64, 80
1, 287032, Note_off_c, 0, 86, 65
1, 287045, Control_c, 0, 64, 83
1, 287060, Control_c, 0, 64, 83
1, 287064, Note_on_c, 0, 74, 79
1, 287075, Control_c, 0, 64, 78
1, 287089, Control_c, 0, 64, 67
1, 287089, Control_c, 0, 67, 111
1, 287104, Control_c, 0, 64, 60
1, 287109, Note_off_c, 0, 74, 61
1, 287119, Control_c, 0, 64, 66
1, 287123, Note_on_c, 0, 80, 83
1, 287124, Note_on_c, 0, 68, 84
1, 287127, Note_on_c, 0, 81, 87
1, 287134, Control_c, 0, 64, 78
1, 287139, Note_on_c, 0, 57, 60
1, 287146, Note_on_c, 0, 65, 49
1, 287149, Control_c, 0, 64, 127
1, 287169, Note_off_c, 0, 81, 65
1, 287170, Note_off_c, 0, 65, 59
1, 287173, Note_off_c, 0, 80, 63
1, 287174, Note_off_c, 0, 68, 64
1, 287177, Note_off_c, 0, 57, 47
1, 287190, Note_on_c, 0, 69, 86
1, 287193, Control_c, 0, 67, 109
1, 287208, Control_c, 0, 64, 101
1, 287208, Control_c, 0, 67, 107
1, 287223, Control_c, 0, 64, 86
1, 287223, Control_c, 0, 67, 105
1, 287236, Note_off_c, 0, 69, 65
1, 287238, Control_c, 0, 64, 81
1, 287238, Control_c, 0, 67, 97
1, 287253, Control_c, 0, 64, 81
1, 287253, Control_c, 0, 67, 80
1, 287268, Note_on_c, 0, 67, 78
1, 287268, Control_c, 0, 64, 81
1, 287268, Control_c, 0, 67, 59
1, 287270, Note_on_c, 0, 84, 104
1, 287271, Note_on_c, 0, 60, 74
1, 287271, Note_on_c, 0, 64, 69
1, 287272, Note_on_c, 0, 79, 79
1, 287282, Control_c, 0, 64, 85
1, 287282, Control_c, 0, 67, 38
1, 287292, Note_off_c, 0, 79, 72
1, 287295, Note_off_c, 0, 64, 69
1, 287295, Note_off_c, 0, 67, 67
1, 287297, Control_c, 0, 64, 91
1, 287297, Control_c, 0, 67, 0
1, 287298, Note_off_c, 0, 60, 68
1, 287312, Note_off_c, 0, 84, 64
1, 287312, Control_c, 0, 64, 93
1, 287327, Control_c, 0, 64, 87
1, 287336, Note_on_c, 0, 72, 81
1, 287342, Control_c, 0, 64, 73
1, 287357, Control_c, 0, 64, 66
1, 287371, Control_c, 0, 64, 72
1, 287386, Control_c, 0, 64, 91
1, 287388, Note_on_c, 0, 75, 84
1, 287393, Note_on_c, 0, 79, 89
1, 287398, Note_on_c, 0, 63, 86
1, 287401, Control_c, 0, 64, 127
1, 287403, Note_on_c, 0, 55, 78
1, 287403, Note_on_c, 0, 73, 72
1, 287408, Note_on_c, 0, 61, 71
1, 287411, Note_off_c, 0, 72, 58
1, 287425, Note_off_c, 0, 63, 64
1, 287425, Note_off_c, 0, 75, 60
1, 287426, Note_off_c, 0, 73, 69
1, 287434, Note_off_c, 0, 55, 65
1, 287435, Note_off_c, 0, 61, 65
1, 287453, Note_off_c, 0, 79, 64
1, 287464, Note_on_c, 0, 69, 71
1, 287474, Note_on_c, 0, 67, 51
1, 287475, Control_c, 0, 64, 102
1, 287488, Note_off_c, 0, 69, 67
1, 287489, Control_c, 0, 64, 69
1, 287491, Note_off_c, 0, 67, 66
1, 287504, Control_c, 0, 64, 35
1, 287519, Control_c, 0, 64, 0
1, 287534, Control_c, 0, 64, 31
1, 287536, Note_on_c, 0, 69, 82
1, 287538, Note_on_c, 0, 78, 95
1, 287542, Note_on_c, 0, 62, 77
1, 287542, Note_on_c, 0, 86, 93
1, 287543, Note_on_c, 0, 66, 84
1, 287549, Note_on_c, 0, 84, 87
1, 287549, Control_c, 0, 64, 60
1, 287563, Control_c, 0, 64, 74
1, 287570, Note_off_c, 0, 69, 65
1, 287570, Note_off_c, 0, 78, 64
1, 287572, Note_off_c, 0, 62, 67
1, 287572, Note_off_c, 0, 84, 59
1, 287577, Note_off_c, 0, 86, 66
1, 287578, Control_c, 0, 64, 89
1, 287581, Note_off_c, 0, 66, 61
1, 287593, Control_c, 0, 64, 109
1, 287615, Control_c, 0, 64, 121
1, 287617, Note_on_c, 0, 74, 86
1, 287646, Control_c, 0, 64, 105
1, 287661, Control_c, 0, 64, 88
1, 287676, Control_c, 0, 64, 76
1, 287677, Note_on_c, 0, 80, 93
1, 287682, Note_on_c, 0, 81, 95
1, 287684, Note_on_c, 0, 68, 100
1, 287688, Note_off_c, 0, 74, 63
1, 287691, Note_on_c, 0, 57, 77
1, 287691, Control_c, 0, 64, 77
1, 287706, Control_c, 0, 64, 92
1, 287709, Note_off_c, 0, 57, 64
1, 287711, Note_on_c, 0, 65, 56
1, 287720, Control_c, 0, 64, 127
1, 287732, Note_on_c, 0, 64, 30
1, 287732, Note_off_c, 0, 68, 65
1, 287735, Note_off_c, 0, 65, 60
1, 287748, Note_on_c, 0, 69, 88
1, 287748, Note_off_c, 0, 81, 60
1, 287750, Control_c, 0, 64, 92
1, 287760, Note_off_c, 0, 80, 58
1, 287765, Control_c, 0, 64, 60
1, 287766, Note_off_c, 0, 64, 47
1, 287775, Note_on_c, 0, 71, 52
1, 287780, Control_c, 0, 64, 0
1, 287794, Control_c, 0, 64, 31
1, 287798, Note_off_c, 0, 69, 63
1, 287801, Note_off_c, 0, 71, 41
1, 287809, Control_c, 0, 64, 56
1, 287821, Note_on_c, 0, 79, 86
1, 287824, Control_c, 0, 64, 72
1, 287826, Note_on_c, 0, 84, 105
1, 287827, Note_on_c, 0, 67, 86
1, 287828, Note_on_c, 0, 60, 79
1, 287832, Note_on_c, 0, 64, 75
1, 287837, Control_c, 0, 64, 96
1, 287851, Note_off_c, 0, 64, 71
1, 287851, Note_off_c, 0, 79, 63
1, 287852, Control_c, 0, 64, 127
1, 287859, Note_off_c, 0, 60, 66
1, 287865, Note_off_c, 0, 67, 62
1, 287876, Note_off_c, 0, 84, 64
1, 287891, Note_on_c, 0, 72, 90
1, 287947, Note_on_c, 0, 75, 95
1, 287957, Note_on_c, 0, 63, 84
1, 287959, Note_on_c, 0, 55, 76
1, 287959, Note_on_c, 0, 79, 82
1, 287964, Note_off_c, 0, 72, 60
1, 287966, Note_on_c, 0, 61, 66
1, 287977, Note_on_c, 0, 73, 58
1, 287977, Note_off_c, 0, 63, 72
1, 287982, Note_off_c, 0, 75, 70
1, 287985, Note_off_c, 0, 55, 69
1, 287985, Note_off_c, 0, 61, 63
1, 287998, Note_off_c, 0, 73, 62
1, 288028, Note_on_c, 0, 67, 92
1, 288030, Control_c, 0, 64, 86
1, 288045, Control_c, 0, 64, 43
1, 288058, Note_off_c, 0, 79, 68
1, 288060, Control_c, 0, 64, 0
1, 288069, Note_off_c, 0, 67, 64
1, 288195, Note_on_c, 0, 86, 101
1, 288197, Note_on_c, 0, 66, 94
1, 288197, Note_on_c, 0, 69, 103
1, 288198, Note_on_c, 0, 78, 97
1, 288200, Note_on_c, 0, 62, 91
1, 288201, Note_on_c, 0, 74, 96
1, 288454, Control_c, 0, 64, 33
1, 288468, Control_c, 0, 64, 59
1, 288482, Note_off_c, 0, 86, 40
1, 288483, Control_c, 0, 64, 69
1, 288498, Control_c, 0, 64, 83
1, 288513, Control_c, 0, 64, 127
1, 288526, Note_off_c, 0, 74, 54
1, 288542, Note_off_c, 0, 78, 62
1, 288549, Note_off_c, 0, 69, 66
1, 288561, Note_off_c, 0, 66, 61
1, 288585, Note_off_c, 0, 62, 56
1, 288647, Control_c, 0, 64, 71
1, 288661, Control_c, 0, 64, 0
1, 288800, Note_on_c, 0, 54, 120
1, 288824, Control_c, 0, 64, 30
1, 288833, Note_off_c, 0, 54, 69
1, 288839, Control_c, 0, 64, 54
1, 288854, Control_c, 0, 64, 62
1, 288869, Control_c, 0, 64, 71
1, 288884, Control_c, 0, 64, 86
1, 288898, Note_on_c, 0, 54, 112
1, 288898, Control_c, 0, 64, 127
1, 288925, Note_off_c, 0, 54, 72
1, 288980, Note_on_c, 0, 54, 119
1, 289008, Note_off_c, 0, 54, 70
1, 289065, Note_on_c, 0, 30, 110
1, 289100, Note_off_c, 0, 30, 67
1, 289381, Poly_aftertouch_c, 0, 85, 127
1, 289405, Note_on_c, 0, 78, 91
1, 289414, Poly_aftertouch_c, 0, 85, 0
1, 289453, Note_off_c, 0, 78, 63
1, 289453, Note_on_c, 0, 85, 75
1, 289454, Note_on_c, 0, 90, 75
1, 289505, Note_off_c, 0, 85, 66
1, 289508, Note_on_c, 0, 78, 91
1, 289564, Note_on_c, 0, 79, 109
1, 289567, Note_on_c, 0, 70, 90
1, 289568, Note_off_c, 0, 78, 63
1, 289569, Note_on_c, 0, 73, 97
1, 289577, Note_off_c, 0, 90, 40
1, 289615, Note_off_c, 0, 73, 70
1, 289615, Note_off_c, 0, 79, 71
1, 289622, Note_off_c, 0, 70, 67
1, 289834, Note_on_c, 0, 78, 82
1, 289882, Note_on_c, 0, 85, 84
1, 289885, Note_off_c, 0, 78, 62
1, 289890, Note_on_c, 0, 90, 77
1, 289930, Note_off_c, 0, 85, 71
1, 289938, Note_on_c, 0, 78, 84
1, 289966, Note_off_c, 0, 90, 33
1, 289974, Note_on_c, 0, 79, 103
1, 289976, Note_on_c, 0, 73, 100
1, 289977, Note_on_c, 0, 70, 103
1, 289988, Note_off_c, 0, 78, 63
1, 289998, Note_on_c, 0, 87, 39
1, 290003, Note_off_c, 0, 73, 65
1, 290013, Note_off_c, 0, 79, 70
1, 290016, Note_off_c, 0, 70, 70
1, 290028, Note_off_c, 0, 87, 55
1, 290142, Note_on_c, 0, 78, 89
1, 290188, Note_off_c, 0, 78, 64
1, 290189, Note_on_c, 0, 90, 79
1, 290207, Note_on_c, 0, 86, 64
1, 290226, Note_on_c, 0, 85, 33
1, 290237, Note_on_c, 0, 78, 84
1, 290252, Note_off_c, 0, 86, 56
1, 290261, Note_off_c, 0, 85, 48
1, 290269, Note_off_c, 0, 90, 47
1, 290271, Note_on_c, 0, 79, 106
1, 290275, Note_on_c, 0, 70, 99
1, 290277, Note_on_c, 0, 73, 94
1, 290290, Note_off_c, 0, 78, 65
1, 290302, Note_off_c, 0, 73, 66
1, 290302, Note_off_c, 0, 79, 71
1, 290308, Note_off_c, 0, 70, 69
1, 290404, Note_on_c, 0, 78, 86
1, 290447, Note_on_c, 0, 85, 82
1, 290447, Note_off_c, 0, 78, 64
1, 290463, Note_on_c, 0, 90, 71
1, 290487, Note_off_c, 0, 90, 68
1, 290495, Note_on_c, 0, 78, 81
1, 290499, Note_off_c, 0, 85, 63
1, 290556, Note_on_c, 0, 85, 89
1, 290556, Note_on_c, 0, 90, 97
1, 290558, Note_off_c, 0, 78, 58
1, 290562, Note_on_c, 0, 79, 94
1, 290564, Note_on_c, 0, 70, 86
1, 290580, Note_on_c, 0, 73, 48
1, 290580, Note_off_c, 0, 73, 127
1, 290584, Note_off_c, 0, 79, 69
1, 290586, Note_on_c, 0, 77, 44
1, 290589, Note_off_c, 0, 70, 69
1, 290598, Note_on_c, 0, 72, 46
1, 290618, Note_off_c, 0, 77, 61
1, 290624, Note_off_c, 0, 90, 60
1, 290630, Note_off_c, 0, 72, 58
1, 290642, Note_off_c, 0, 85, 55
1, 290649, Note_on_c, 0, 78, 92
1, 290702, Note_off_c, 0, 78, 64
1, 290705, Note_on_c, 0, 90, 82
1, 290708, Note_on_c, 0, 85, 68
1, 290728, Note_on_c, 0, 79, 75
1, 290736, Note_off_c, 0, 90, 61
1, 290753, Note_on_c, 0, 73, 45
1, 290762, Note_off_c, 0, 85, 61
1, 290770, Note_off_c, 0, 79, 62
1, 290776, Note_on_c, 0, 78, 75
1, 290777, Note_off_c, 0, 73, 61
1, 290821, Note_off_c, 0, 78, 60
1, 290834, Note_on_c, 0, 90, 77
1, 290836, Note_on_c, 0, 79, 74
1, 290840, Note_on_c, 0, 85, 67
1, 290854, Note_on_c, 0, 70, 50
1, 290856, Note_off_c, 0, 90, 67
1, 290865, Note_off_c, 0, 85, 67
1, 290866, Note_on_c, 0, 73, 42
1, 290870, Note_off_c, 0, 70, 65
1, 290875, Note_off_c, 0, 79, 65
1, 290891, Note_on_c, 0, 78, 75
1, 290893, Note_off_c, 0, 73, 57
1, 290940, Note_off_c, 0, 78, 62
1, 290951, Note_on_c, 0, 90, 97
1, 290953, Note_on_c, 0, 85, 86
1, 290957, Note_on_c, 0, 79, 103
1, 290959, Note_on_c, 0, 70, 84
1, 290963, Note_on_c, 0, 73, 88
1, 290989, Note_off_c, 0, 70, 65
1, 290991, Note_off_c, 0, 79, 69
1, 290994, Note_off_c, 0, 73, 61
1, 290995, Note_off_c, 0, 90, 65
1, 290997, Note_off_c, 0, 85, 65
1, 291030, Note_on_c, 0, 78, 86
1, 291075, Note_off_c, 0, 78, 63
1, 291087, Note_on_c, 0, 85, 58
1, 291089, Note_on_c, 0, 90, 67
1, 291092, Note_on_c, 0, 79, 87
1, 291104, Note_on_c, 0, 73, 71
1, 291105, Note_on_c, 0, 70, 64
1, 291113, Note_off_c, 0, 90, 69
1, 291124, Note_off_c, 0, 85, 63
1, 291127, Note_off_c, 0, 73, 68
1, 291134, Note_off_c, 0, 70, 68
1, 291134, Note_off_c, 0, 79, 66
1, 291146, Note_on_c, 0, 78, 77
1, 291193, Note_off_c, 0, 78, 62
1, 291200, Note_on_c, 0, 90, 81
1, 291211, Note_on_c, 0, 79, 92
1, 291211, Note_on_c, 0, 85, 76
1, 291220, Note_on_c, 0, 70, 69
1, 291224, Note_on_c, 0, 73, 68
1, 291232, Note_off_c, 0, 85, 69
1, 291240, Note_off_c, 0, 90, 63
1, 291241, Note_off_c, 0, 70, 70
1, 291241, Note_off_c, 0, 79, 64
1, 291245, Note_off_c, 0, 73, 71
1, 291271, Note_on_c, 0, 78, 82
1, 291327, Note_off_c, 0, 78, 62
1, 291330, Note_on_c, 0, 79, 105
1, 291332, Note_on_c, 0, 85, 91
1, 291335, Note_on_c, 0, 90, 103
1, 291338, Note_on_c, 0, 70, 94
1, 291341, Note_on_c, 0, 73, 95
1, 291375, Note_off_c, 0, 79, 69
1, 291382, Note_off_c, 0, 70, 60
1, 291384, Note_off_c, 0, 73, 62
1, 291397, Note_off_c, 0, 90, 61
1, 291411, Note_off_c, 0, 85, 48
1, 291419, Note_on_c, 0, 78, 91
1, 291467, Note_on_c, 0, 79, 104
1, 291471, Note_off_c, 0, 78, 66
1, 291473, Note_on_c, 0, 85, 93
1, 291478, Note_on_c, 0, 70, 91
1, 291480, Note_on_c, 0, 90, 100
1, 291485, Note_on_c, 0, 73, 79
1, 291495, Note_off_c, 0, 70, 72
1, 291503, Note_off_c, 0, 79, 70
1, 291504, Note_off_c, 0, 73, 74
1, 291513, Note_off_c, 0, 85, 64
1, 291533, Note_off_c, 0, 90, 61
1, 291542, Note_on_c, 0, 78, 100
1, 291596, Note_off_c, 0, 78, 63
1, 291598, Note_on_c, 0, 79, 101
1, 291604, Note_on_c, 0, 85, 93
1, 291605, Note_on_c, 0, 70, 90
1, 291605, Note_on_c, 0, 90, 100
1, 291610, Note_on_c, 0, 73, 81
1, 291626, Note_off_c, 0, 70, 72
1, 291629, Note_off_c, 0, 79, 70
1, 291632, Note_off_c, 0, 73, 70
1, 291665, Note_on_c, 0, 78, 92
1, 291670, Note_off_c, 0, 90, 67
1, 291674, Note_off_c, 0, 85, 62
1, 291736, Note_on_c, 0, 90, 115
1, 291739, Note_on_c, 0, 79, 111
1, 291741, Note_on_c, 0, 85, 101
1, 291745, Note_on_c, 0, 70, 100
1, 291745, Note_off_c, 0, 78, 42
1, 291749, Note_on_c, 0, 73, 93
1, 291760, Note_off_c, 0, 70, 73
1, 291762, Note_off_c, 0, 73, 77
1, 291766, Note_off_c, 0, 90, 72
1, 291768, Note_off_c, 0, 79, 74
1, 291769, Note_off_c, 0, 85, 66
1, 292041, Control_c, 0, 64, 112
1, 292056, Control_c, 0, 64, 58
1, 292070, Control_c, 0, 64, 0
1, 292198, Poly_aftertouch_c, 0, 61, 127
1, 292272, Poly_aftertouch_c, 0, 61, 0
1, 292287, Note_on_c, 0, 53, 77
1, 292308, Note_on_c, 0, 57, 76
1, 292352, Note_on_c, 0, 58, 87
1, 292372, Note_on_c, 0, 62, 103
1, 292377, Note_off_c, 0, 57, 67
1, 292380, Note_off_c, 0, 58, 70
1, 292380, Note_on_c, 0, 46, 110
1, 292382, Note_on_c, 0, 41, 97
1, 292385, Note_on_c, 0, 34, 91
1, 292409, Note_off_c, 0, 34, 70
1, 292419, Note_off_c, 0, 53, 63
1, 292419, Control_c, 0, 64, 57
1, 292431, Note_off_c, 0, 46, 67
1, 292434, Control_c, 0, 64, 127
1, 292443, Note_off_c, 0, 41, 65
1, 292652, Note_off_c, 0, 62, 54
1, 292687, Note_on_c, 0, 38, 103
1, 292687, Note_on_c, 0, 45, 104
1, 292687, Note_on_c, 0, 57, 107
1, 292688, Note_on_c, 0, 50, 99
1, 292721, Note_off_c, 0, 45, 68
1, 292724, Note_off_c, 0, 50, 68
1, 292728, Note_off_c, 0, 57, 68
1, 292729, Note_off_c, 0, 38, 67
1, 292901, Control_c, 0, 64, 81
1, 292916, Control_c, 0, 64, 31
1, 292931, Control_c, 0, 64, 0
1, 293124, Note_on_c, 0, 26, 104
1, 293124, Note_on_c, 0, 33, 103
1, 293142, Note_on_c, 0, 31, 71
1, 293152, Control_c, 0, 64, 49
1, 293167, Control_c, 0, 64, 127
1, 293176, Note_off_c, 0, 31, 36
1, 293415, Note_off_c, 0, 33, 59
1, 293431, Note_off_c, 0, 26, 60
1, 293632, Note_on_c, 0, 98, 74
1, 293677, Note_on_c, 0, 100, 78
1, 293707, Note_off_c, 0, 98, 65
1, 293760, Note_off_c, 0, 100, 68
1, 293763, Note_on_c, 0, 78, 107
1, 293763, Note_on_c, 0, 98, 101
1, 293765, Note_on_c, 0, 103, 104
1, 293766, Note_on_c, 0, 66, 88
1, 293767, Note_on_c, 0, 93, 105
1, 293769, Note_on_c, 0, 74, 100
1, 293770, Note_on_c, 0, 69, 88
1, 293778, Note_on_c, 0, 105, 66
1, 293790, Poly_aftertouch_c, 0, 100, 0
1, 293790, Note_off_c, 0, 105, 44
1, 293793, Note_on_c, 0, 101, 57
1, 293796, Note_on_c, 0, 100, 18
1, 293796, Note_off_c, 0, 100, 127
1, 293796, Note_off_c, 0, 66, 63
1, 293804, Note_off_c, 0, 69, 65
1, 293804, Note_off_c, 0, 78, 69
1, 293805, Note_off_c, 0, 93, 71
1, 293814, Note_off_c, 0, 74, 69
1, 293814, Note_off_c, 0, 101, 60
1, 293816, Note_off_c, 0, 103, 66
1, 293816, Note_off_c, 0, 98, 69
1, 295051, Control_c, 0, 64, 95
1, 295066, Control_c, 0, 64, 60
1, 295081, Control_c, 0, 64, 0
1, 295081, End_track
0, 0, End_of_file
