0, 0, Header, 0, 1, 384
1, 0, Start_track
1, 0, Title_t, "Three Etudes Op. 65--K. Shamray "
1, 0, Text_t, "2006 International Piano-e-Competition Recital Round"
1, 0, Text_t, "St. Paul, Minnesota, July 2006"
1, 0, Text_t, "http://www.piano-e-competition.com/"
1, 0, Instrument_name_t, "Yamaha Disklavier Pro Mark IV concert grand piano"
1, 0, Sequencer_specific, 39, 67, 113, 0, 1, 0, 1, 0, 51, 32, 69, 116, 117, 100, 101, 115, 44, 32, 79, 112, 46, 32, 54, 53, 75, 46, 32, 83, 104, 97, 109, 114, 97, 121, 32, 32, 32, 32, 32, 32
1, 0, Sequencer_specific, 6, 67, 113, 0, 0, 0, 69
1, 0, System_exclusive, 21, 67, 113, 126, 21, 0, 2, 2, 0, 10, 10, 12, 4, 4, 10, 11, 15, 5, 6, 14, 1, 247
1, 0, Sequencer_specific, 5, 67, 123, 12, 2, 1
1, 0, Tempo, 512820
1, 0, Time_signature, 4, 2, 24, 8
1, 0, System_exclusive, 5, 126, 127, 9, 1, 247
1, 1, System_exclusive, 8, 67, 16, 76, 0, 0, 126, 0, 247
1, 2, System_exclusive, 8, 67, 16, 76, 8, 9, 7, 1, 247
1, 3, Control_c, 0, 0, 0
1, 4, Control_c, 0, 32, 0
1, 5, Program_c, 0, 0
1, 6, Control_c, 0, 7, 100
1, 95, Control_c, 0, 64, 15
1, 95, Control_c, 0, 67, 15
1, 184, Control_c, 0, 64, 31
1, 184, Control_c, 0, 67, 31
1, 273, Control_c, 0, 64, 46
1, 273, Control_c, 0, 67, 46
1, 362, Control_c, 0, 64, 63
1, 362, Control_c, 0, 67, 63
1, 452, Control_c, 0, 64, 77
1, 452, Control_c, 0, 67, 77
1, 541, Control_c, 0, 64, 94
1, 541, Control_c, 0, 67, 94
1, 630, Control_c, 0, 64, 108
1, 630, Control_c, 0, 67, 108
1, 719, Control_c, 0, 64, 127
1, 719, Control_c, 0, 67, 127
1, 910, Note_on_c, 0, 52, 33
1, 914, Note_on_c, 0, 62, 30
1, 928, Note_on_c, 0, 58, 35
1, 967, Note_on_c, 0, 80, 62
1, 979, Note_off_c, 0, 62, 59
1, 998, Note_off_c, 0, 52, 52
1, 1014, Note_off_c, 0, 58, 53
1, 1052, Poly_aftertouch_c, 0, 66, 127
1, 1054, Note_off_c, 0, 80, 63
1, 1080, Poly_aftertouch_c, 0, 66, 0
1, 1182, Note_on_c, 0, 81, 70
1, 1217, Note_off_c, 0, 81, 58
1, 1310, Note_on_c, 0, 82, 72
1, 1313, Note_on_c, 0, 68, 67
1, 1344, Note_off_c, 0, 68, 64
1, 1349, Note_off_c, 0, 82, 54
1, 1372, Control_c, 0, 64, 99
1, 1387, Control_c, 0, 64, 76
1, 1402, Control_c, 0, 64, 64
1, 1410, Note_on_c, 0, 49, 55
1, 1410, Note_on_c, 0, 65, 51
1, 1413, Note_on_c, 0, 83, 72
1, 1417, Control_c, 0, 64, 58
1, 1418, Note_on_c, 0, 69, 58
1, 1432, Control_c, 0, 64, 59
1, 1433, Note_off_c, 0, 65, 63
1, 1441, Note_on_c, 0, 55, 18
1, 1442, Note_off_c, 0, 83, 59
1, 1447, Note_off_c, 0, 69, 65
1, 1447, Control_c, 0, 64, 62
1, 1462, Control_c, 0, 64, 66
1, 1473, Note_off_c, 0, 49, 64
1, 1476, Control_c, 0, 64, 70
1, 1481, Note_off_c, 0, 55, 29
1, 1491, Control_c, 0, 64, 77
1, 1506, Control_c, 0, 64, 81
1, 1511, Note_on_c, 0, 84, 79
1, 1518, Note_on_c, 0, 70, 76
1, 1521, Control_c, 0, 64, 83
1, 1536, Control_c, 0, 64, 83
1, 1542, Note_off_c, 0, 70, 69
1, 1553, Note_on_c, 0, 46, 57
1, 1557, Note_off_c, 0, 84, 52
1, 1566, Control_c, 0, 64, 83
1, 1569, Note_on_c, 0, 52, 37
1, 1580, Note_off_c, 0, 46, 65
1, 1595, Note_on_c, 0, 85, 79
1, 1600, Note_off_c, 0, 52, 51
1, 1609, Note_on_c, 0, 62, 58
1, 1611, Control_c, 0, 64, 83
1, 1638, Note_off_c, 0, 62, 65
1, 1640, Note_off_c, 0, 85, 64
1, 1688, Poly_aftertouch_c, 0, 71, 0
1, 1691, Note_on_c, 0, 68, 73
1, 1693, Note_on_c, 0, 86, 82
1, 1694, Note_on_c, 0, 72, 77
1, 1713, Note_off_c, 0, 68, 70
1, 1715, Control_c, 0, 64, 84
1, 1715, Control_c, 0, 67, 119
1, 1716, Note_off_c, 0, 72, 70
1, 1729, Control_c, 0, 64, 85
1, 1738, Note_off_c, 0, 86, 59
1, 1744, Control_c, 0, 64, 86
1, 1759, Control_c, 0, 64, 88
1, 1773, Control_c, 0, 64, 89
1, 1783, Note_on_c, 0, 87, 82
1, 1788, Control_c, 0, 64, 90
1, 1788, Control_c, 0, 67, 121
1, 1789, Note_on_c, 0, 73, 77
1, 1803, Control_c, 0, 64, 91
1, 1816, Note_off_c, 0, 73, 65
1, 1818, Control_c, 0, 67, 123
1, 1833, Control_c, 0, 64, 90
1, 1834, Note_off_c, 0, 87, 65
1, 1847, Control_c, 0, 64, 86
1, 1862, Control_c, 0, 64, 78
1, 1863, Note_on_c, 0, 88, 79
1, 1876, Note_on_c, 0, 74, 54
1, 1877, Control_c, 0, 64, 67
1, 1900, Control_c, 0, 64, 55
1, 1906, Note_off_c, 0, 74, 57
1, 1915, Control_c, 0, 64, 38
1, 1921, Note_off_c, 0, 88, 59
1, 1929, Control_c, 0, 64, 36
1, 1930, Note_on_c, 0, 65, 59
1, 1936, Note_on_c, 0, 71, 58
1, 1944, Control_c, 0, 64, 47
1, 1949, Note_on_c, 0, 59, 56
1, 1958, Note_off_c, 0, 71, 65
1, 1959, Note_off_c, 0, 65, 67
1, 1959, Control_c, 0, 64, 60
1, 1960, Note_on_c, 0, 89, 82
1, 1972, Note_on_c, 0, 75, 67
1, 1973, Control_c, 0, 64, 68
1, 1978, Note_off_c, 0, 59, 65
1, 1988, Control_c, 0, 64, 78
1, 1998, Note_off_c, 0, 75, 68
1, 2003, Control_c, 0, 64, 86
1, 2006, Note_off_c, 0, 89, 65
1, 2018, Control_c, 0, 64, 89
1, 2033, Control_c, 0, 64, 92
1, 2033, Control_c, 0, 67, 121
1, 2047, Control_c, 0, 64, 94
1, 2048, Note_on_c, 0, 90, 82
1, 2053, Poly_aftertouch_c, 0, 88, 0
1, 2056, Note_on_c, 0, 76, 71
1, 2062, Control_c, 0, 64, 95
1, 2073, Note_off_c, 0, 76, 67
1, 2077, Control_c, 0, 64, 96
1, 2086, Note_on_c, 0, 49, 64
1, 2089, Note_off_c, 0, 90, 61
1, 2097, Note_on_c, 0, 43, 53
1, 2109, Note_off_c, 0, 49, 62
1, 2126, Note_off_c, 0, 43, 53
1, 2139, Note_on_c, 0, 91, 95
1, 2151, Control_c, 0, 64, 94
1, 2153, Note_on_c, 0, 77, 65
1, 2166, Control_c, 0, 64, 85
1, 2170, Note_off_c, 0, 77, 65
1, 2180, Control_c, 0, 64, 69
1, 2185, Note_off_c, 0, 91, 65
1, 2195, Control_c, 0, 64, 51
1, 2210, Control_c, 0, 64, 0
1, 2228, Note_on_c, 0, 40, 30
1, 2251, Note_on_c, 0, 92, 92
1, 2275, Note_on_c, 0, 78, 56
1, 2293, Note_off_c, 0, 92, 65
1, 2296, Note_off_c, 0, 78, 60
1, 2299, Control_c, 0, 64, 48
1, 2315, Control_c, 0, 64, 58
1, 2330, Control_c, 0, 64, 62
1, 2344, Control_c, 0, 64, 64
1, 2347, Note_on_c, 0, 92, 94
1, 2355, Note_on_c, 0, 78, 79
1, 2357, Note_on_c, 0, 46, 57
1, 2359, Control_c, 0, 64, 66
1, 2359, Control_c, 0, 67, 119
1, 2374, Control_c, 0, 64, 69
1, 2376, Note_off_c, 0, 78, 70
1, 2383, Note_off_c, 0, 92, 63
1, 2389, Control_c, 0, 64, 74
1, 2395, Note_off_c, 0, 40, 62
1, 2404, Control_c, 0, 64, 82
1, 2412, Note_off_c, 0, 46, 63
1, 2418, Control_c, 0, 64, 93
1, 2423, Note_on_c, 0, 56, 60
1, 2433, Control_c, 0, 64, 106
1, 2436, Note_on_c, 0, 92, 85
1, 2448, Note_on_c, 0, 78, 67
1, 2448, Note_off_c, 0, 56, 62
1, 2448, Control_c, 0, 64, 127
1, 2463, Control_c, 0, 67, 117
1, 2464, Note_off_c, 0, 78, 65
1, 2469, Note_off_c, 0, 92, 64
1, 2520, Note_on_c, 0, 92, 79
1, 2532, Note_on_c, 0, 78, 66
1, 2537, Control_c, 0, 67, 119
1, 2549, Note_off_c, 0, 78, 64
1, 2563, Note_off_c, 0, 92, 64
1, 2567, Control_c, 0, 67, 121
1, 2579, Note_on_c, 0, 62, 41
1, 2596, Control_c, 0, 67, 123
1, 2615, Note_on_c, 0, 92, 78
1, 2615, Note_off_c, 0, 62, 52
1, 2624, Note_on_c, 0, 78, 65
1, 2645, Note_on_c, 0, 72, 67
1, 2648, Control_c, 0, 67, 125
1, 2654, Note_off_c, 0, 78, 59
1, 2663, Note_off_c, 0, 92, 65
1, 2669, Note_off_c, 0, 72, 70
1, 2720, Note_on_c, 0, 92, 76
1, 2735, Note_on_c, 0, 78, 57
1, 2756, Note_off_c, 0, 92, 64
1, 2758, Note_off_c, 0, 78, 61
1, 2812, Note_on_c, 0, 92, 75
1, 2842, Note_off_c, 0, 92, 65
1, 2845, Note_on_c, 0, 78, 38
1, 2856, Control_c, 0, 67, 123
1, 2877, Note_off_c, 0, 78, 47
1, 2900, Control_c, 0, 67, 121
1, 2913, Note_on_c, 0, 92, 72
1, 2930, Note_on_c, 0, 78, 37
1, 2930, Control_c, 0, 67, 118
1, 2938, Note_off_c, 0, 92, 68
1, 2964, Note_off_c, 0, 78, 47
1, 2998, Note_on_c, 0, 92, 75
1, 3018, Control_c, 0, 67, 116
1, 3033, Note_off_c, 0, 92, 63
1, 3133, Note_on_c, 0, 92, 70
1, 3139, Note_on_c, 0, 72, 52
1, 3164, Note_off_c, 0, 92, 63
1, 3167, Control_c, 0, 67, 114
1, 3168, Note_off_c, 0, 72, 63
1, 3182, Control_c, 0, 67, 109
1, 3197, Control_c, 0, 67, 99
1, 3211, Control_c, 0, 67, 90
1, 3217, Poly_aftertouch_c, 0, 78, 0
1, 3226, Control_c, 0, 67, 82
1, 3241, Control_c, 0, 67, 75
1, 3256, Control_c, 0, 67, 74
1, 3262, Note_on_c, 0, 92, 64
1, 3271, Control_c, 0, 67, 73
1, 3293, Note_off_c, 0, 92, 65
1, 3301, Control_c, 0, 67, 74
1, 3307, Poly_aftertouch_c, 0, 78, 127
1, 3316, Control_c, 0, 67, 77
1, 3331, Control_c, 0, 67, 79
1, 3337, Poly_aftertouch_c, 0, 78, 0
1, 3345, Control_c, 0, 67, 80
1, 3360, Control_c, 0, 67, 81
1, 3375, Control_c, 0, 67, 83
1, 3397, Control_c, 0, 67, 85
1, 3405, Note_on_c, 0, 92, 49
1, 3412, Control_c, 0, 67, 87
1, 3414, Note_on_c, 0, 78, 42
1, 3426, Control_c, 0, 67, 88
1, 3441, Control_c, 0, 67, 89
1, 3442, Note_off_c, 0, 92, 66
1, 3444, Note_off_c, 0, 78, 59
1, 3456, Control_c, 0, 67, 92
1, 3471, Control_c, 0, 67, 97
1, 3486, Control_c, 0, 67, 103
1, 3500, Control_c, 0, 67, 109
1, 3515, Control_c, 0, 67, 114
1, 3530, Control_c, 0, 67, 117
1, 3545, Control_c, 0, 67, 122
1, 3560, Control_c, 0, 67, 126
1, 3605, Control_c, 0, 64, 112
1, 3620, Control_c, 0, 64, 89
1, 3626, Note_on_c, 0, 67, 50
1, 3635, Control_c, 0, 64, 72
1, 3645, Note_on_c, 0, 56, 38
1, 3650, Control_c, 0, 64, 56
1, 3664, Control_c, 0, 64, 0
1, 3668, Note_on_c, 0, 62, 29
1, 3679, Note_off_c, 0, 67, 0
1, 3679, Note_on_c, 0, 67, 19
1, 3724, Control_c, 0, 64, 42
1, 3739, Control_c, 0, 64, 60
1, 3747, Note_off_c, 0, 67, 53
1, 3753, Control_c, 0, 64, 67
1, 3768, Control_c, 0, 64, 72
1, 3771, Note_off_c, 0, 62, 49
1, 3783, Control_c, 0, 64, 77
1, 3793, Note_on_c, 0, 66, 44
1, 3798, Control_c, 0, 64, 81
1, 3813, Control_c, 0, 64, 85
1, 3823, Note_off_c, 0, 66, 63
1, 3827, Control_c, 0, 64, 90
1, 3842, Control_c, 0, 64, 96
1, 3854, Note_off_c, 0, 56, 52
1, 3857, Control_c, 0, 64, 101
1, 3872, Control_c, 0, 64, 107
1, 3887, Control_c, 0, 64, 111
1, 3901, Control_c, 0, 64, 117
1, 3917, Control_c, 0, 64, 127
1, 3924, Note_on_c, 0, 92, 79
1, 3937, Note_on_c, 0, 78, 65
1, 3959, Note_off_c, 0, 78, 62
1, 3974, Note_off_c, 0, 92, 64
1, 4046, Note_on_c, 0, 46, 56
1, 4061, Note_on_c, 0, 92, 79
1, 4067, Note_on_c, 0, 78, 58
1, 4079, Note_off_c, 0, 46, 64
1, 4082, Note_off_c, 0, 92, 71
1, 4088, Note_off_c, 0, 78, 62
1, 4177, Note_on_c, 0, 86, 84
1, 4189, Note_on_c, 0, 72, 69
1, 4207, Note_off_c, 0, 72, 67
1, 4207, Note_off_c, 0, 86, 60
1, 4250, Control_c, 0, 64, 122
1, 4272, Note_on_c, 0, 72, 81
1, 4275, Note_on_c, 0, 66, 67
1, 4275, Note_on_c, 0, 86, 86
1, 4280, Control_c, 0, 64, 118
1, 4286, Note_on_c, 0, 56, 54
1, 4295, Control_c, 0, 64, 116
1, 4296, Note_on_c, 0, 62, 49
1, 4296, Note_off_c, 0, 72, 63
1, 4310, Control_c, 0, 64, 111
1, 4318, Note_off_c, 0, 86, 63
1, 4324, Control_c, 0, 64, 100
1, 4339, Control_c, 0, 64, 87
1, 4340, Note_off_c, 0, 66, 55
1, 4354, Control_c, 0, 64, 77
1, 4364, Note_on_c, 0, 85, 87
1, 4367, Control_c, 0, 64, 67
1, 4372, Note_on_c, 0, 71, 70
1, 4382, Control_c, 0, 64, 53
1, 4383, Note_on_c, 0, 65, 58
1, 4389, Note_off_c, 0, 71, 67
1, 4397, Control_c, 0, 64, 0
1, 4402, Note_off_c, 0, 85, 66
1, 4425, Note_off_c, 0, 62, 35
1, 4464, Note_off_c, 0, 65, 63
1, 4466, Note_on_c, 0, 86, 83
1, 4469, Note_on_c, 0, 72, 73
1, 4485, Note_on_c, 0, 66, 59
1, 4494, Note_off_c, 0, 72, 67
1, 4501, Control_c, 0, 64, 45
1, 4506, Note_off_c, 0, 56, 61
1, 4515, Control_c, 0, 64, 57
1, 4523, Note_off_c, 0, 86, 62
1, 4530, Control_c, 0, 64, 63
1, 4545, Control_c, 0, 64, 66
1, 4560, Control_c, 0, 64, 69
1, 4561, Note_on_c, 0, 85, 74
1, 4574, Control_c, 0, 64, 73
1, 4577, Note_on_c, 0, 71, 56
1, 4589, Control_c, 0, 64, 76
1, 4599, Note_off_c, 0, 71, 61
1, 4604, Control_c, 0, 64, 81
1, 4612, Note_off_c, 0, 85, 66
1, 4619, Control_c, 0, 64, 84
1, 4634, Control_c, 0, 64, 86
1, 4648, Note_on_c, 0, 70, 54
1, 4648, Note_on_c, 0, 84, 81
1, 4672, Note_off_c, 0, 66, 53
1, 4687, Note_off_c, 0, 70, 64
1, 4693, Control_c, 0, 64, 85
1, 4693, Note_off_c, 0, 84, 63
1, 4708, Control_c, 0, 64, 82
1, 4724, Control_c, 0, 64, 76
1, 4738, Control_c, 0, 64, 68
1, 4753, Control_c, 0, 64, 57
1, 4761, Note_on_c, 0, 83, 68
1, 4767, Note_on_c, 0, 69, 52
1, 4767, Note_on_c, 0, 65, 53
1, 4768, Control_c, 0, 64, 39
1, 4775, Note_on_c, 0, 55, 38
1, 4783, Control_c, 0, 64, 0
1, 4787, Note_off_c, 0, 69, 60
1, 4794, Note_off_c, 0, 83, 59
1, 4796, Note_on_c, 0, 49, 31
1, 4827, Control_c, 0, 64, 37
1, 4842, Control_c, 0, 64, 54
1, 4857, Control_c, 0, 64, 62
1, 4866, Note_on_c, 0, 84, 56
1, 4870, Note_off_c, 0, 49, 58
1, 4872, Control_c, 0, 64, 66
1, 4881, Note_on_c, 0, 70, 53
1, 4891, Note_off_c, 0, 55, 61
1, 4894, Control_c, 0, 64, 67
1, 4909, Control_c, 0, 64, 69
1, 4924, Note_off_c, 0, 84, 52
1, 4924, Control_c, 0, 64, 70
1, 4928, Note_off_c, 0, 70, 62
1, 4938, Control_c, 0, 64, 73
1, 4953, Control_c, 0, 64, 75
1, 4962, Note_off_c, 0, 65, 58
1, 4968, Control_c, 0, 64, 77
1, 4983, Control_c, 0, 64, 77
1, 4985, Note_on_c, 0, 71, 45
1, 5000, Note_on_c, 0, 85, 49
1, 5025, Note_off_c, 0, 71, 56
1, 5034, Note_off_c, 0, 85, 55
1, 5071, Control_c, 0, 64, 77
1, 5086, Control_c, 0, 64, 75
1, 5101, Control_c, 0, 64, 73
1, 5116, Control_c, 0, 64, 67
1, 5131, Control_c, 0, 64, 58
1, 5145, Note_on_c, 0, 67, 45
1, 5146, Control_c, 0, 64, 37
1, 5155, Note_on_c, 0, 62, 20
1, 5157, Note_on_c, 0, 56, 42
1, 5161, Control_c, 0, 64, 0
1, 5190, Control_c, 0, 64, 34
1, 5205, Control_c, 0, 64, 53
1, 5220, Control_c, 0, 64, 64
1, 5223, Note_off_c, 0, 67, 63
1, 5235, Control_c, 0, 64, 69
1, 5249, Note_on_c, 0, 66, 49
1, 5250, Control_c, 0, 64, 73
1, 5252, Note_off_c, 0, 62, 38
1, 5264, Control_c, 0, 64, 75
1, 5274, Note_off_c, 0, 66, 63
1, 5279, Control_c, 0, 64, 78
1, 5294, Control_c, 0, 64, 82
1, 5297, Note_off_c, 0, 56, 61
1, 5308, Control_c, 0, 64, 87
1, 5323, Control_c, 0, 64, 92
1, 5324, Note_on_c, 0, 92, 81
1, 5337, Note_on_c, 0, 78, 64
1, 5338, Control_c, 0, 64, 97
1, 5353, Control_c, 0, 64, 100
1, 5357, Note_off_c, 0, 78, 64
1, 5368, Control_c, 0, 64, 103
1, 5369, Note_off_c, 0, 92, 64
1, 5383, Control_c, 0, 64, 105
1, 5397, Control_c, 0, 64, 108
1, 5412, Control_c, 0, 64, 113
1, 5427, Control_c, 0, 64, 117
1, 5433, Note_on_c, 0, 92, 78
1, 5437, Note_on_c, 0, 78, 73
1, 5439, Note_on_c, 0, 46, 66
1, 5442, Control_c, 0, 64, 119
1, 5458, Note_off_c, 0, 92, 68
1, 5459, Note_off_c, 0, 78, 69
1, 5466, Note_off_c, 0, 46, 65
1, 5541, Note_on_c, 0, 86, 88
1, 5550, Note_on_c, 0, 72, 72
1, 5567, Note_off_c, 0, 72, 67
1, 5568, Note_off_c, 0, 86, 61
1, 5606, Control_c, 0, 64, 117
1, 5642, Note_on_c, 0, 72, 82
1, 5649, Note_on_c, 0, 86, 79
1, 5651, Note_on_c, 0, 66, 60
1, 5659, Note_on_c, 0, 56, 53
1, 5665, Note_on_c, 0, 62, 51
1, 5668, Note_on_c, 0, 84, 61
1, 5670, Note_off_c, 0, 72, 64
1, 5680, Note_off_c, 0, 66, 52
1, 5688, Note_off_c, 0, 84, 39
1, 5690, Note_off_c, 0, 86, 63
1, 5702, Control_c, 0, 64, 113
1, 5717, Control_c, 0, 64, 108
1, 5732, Control_c, 0, 64, 102
1, 5742, Note_on_c, 0, 85, 84
1, 5746, Control_c, 0, 64, 96
1, 5754, Note_on_c, 0, 65, 65
1, 5761, Control_c, 0, 64, 90
1, 5766, Note_on_c, 0, 71, 44
1, 5776, Control_c, 0, 64, 78
1, 5783, Note_off_c, 0, 85, 67
1, 5791, Control_c, 0, 64, 66
1, 5793, Note_off_c, 0, 71, 56
1, 5806, Control_c, 0, 64, 47
1, 5814, Note_off_c, 0, 62, 46
1, 5820, Control_c, 0, 64, 0
1, 5831, Note_off_c, 0, 65, 61
1, 5849, Note_on_c, 0, 86, 83
1, 5854, Note_on_c, 0, 72, 72
1, 5864, Note_on_c, 0, 66, 66
1, 5879, Note_off_c, 0, 72, 68
1, 5895, Control_c, 0, 64, 50
1, 5899, Note_off_c, 0, 86, 58
1, 5910, Control_c, 0, 64, 61
1, 5924, Note_off_c, 0, 56, 45
1, 5925, Control_c, 0, 64, 66
1, 5939, Control_c, 0, 64, 69
1, 5948, Note_on_c, 0, 85, 84
1, 5954, Control_c, 0, 64, 71
1, 5969, Control_c, 0, 64, 74
1, 5984, Control_c, 0, 64, 77
1, 5999, Control_c, 0, 64, 80
1, 6006, Note_off_c, 0, 85, 65
1, 6013, Control_c, 0, 64, 80
1, 6044, Note_on_c, 0, 84, 76
1, 6046, Note_on_c, 0, 70, 71
1, 6058, Control_c, 0, 64, 80
1, 6062, Note_off_c, 0, 66, 57
1, 6065, Note_off_c, 0, 70, 67
1, 6073, Control_c, 0, 64, 79
1, 6088, Control_c, 0, 64, 76
1, 6103, Control_c, 0, 64, 71
1, 6118, Control_c, 0, 64, 64
1, 6132, Control_c, 0, 64, 57
1, 6133, Note_off_c, 0, 84, 38
1, 6147, Control_c, 0, 64, 45
1, 6162, Control_c, 0, 64, 0
1, 6200, Note_on_c, 0, 83, 71
1, 6210, Note_on_c, 0, 65, 38
1, 6222, Note_on_c, 0, 49, 26
1, 6222, Note_on_c, 0, 69, 49
1, 6228, Note_on_c, 0, 59, 22
1, 6265, Control_c, 0, 64, 53
1, 6280, Control_c, 0, 64, 62
1, 6295, Control_c, 0, 64, 66
1, 6311, Control_c, 0, 64, 69
1, 6319, Note_off_c, 0, 83, 58
1, 6326, Control_c, 0, 64, 73
1, 6331, Note_off_c, 0, 69, 62
1, 6335, Note_off_c, 0, 49, 59
1, 6341, Control_c, 0, 64, 78
1, 6356, Control_c, 0, 64, 85
1, 6370, Control_c, 0, 64, 98
1, 6392, Control_c, 0, 64, 109
1, 6399, Note_off_c, 0, 65, 45
1, 6407, Control_c, 0, 64, 119
1, 6422, Control_c, 0, 64, 127
1, 6439, Note_off_c, 0, 59, 40
1, 6481, Control_c, 0, 64, 112
1, 6496, Control_c, 0, 64, 89
1, 6511, Control_c, 0, 64, 70
1, 6526, Control_c, 0, 64, 55
1, 6541, Control_c, 0, 64, 42
1, 6541, Note_on_c, 0, 64, 41
1, 6548, Note_on_c, 0, 53, 37
1, 6552, Note_on_c, 0, 59, 39
1, 6556, Control_c, 0, 64, 46
1, 6570, Control_c, 0, 64, 57
1, 6581, Note_off_c, 0, 64, 54
1, 6585, Control_c, 0, 64, 66
1, 6600, Control_c, 0, 64, 74
1, 6607, Note_off_c, 0, 59, 56
1, 6615, Control_c, 0, 64, 82
1, 6630, Control_c, 0, 64, 88
1, 6642, Note_on_c, 0, 63, 43
1, 6644, Control_c, 0, 64, 92
1, 6659, Control_c, 0, 64, 95
1, 6660, Note_off_c, 0, 53, 62
1, 6672, Note_off_c, 0, 63, 55
1, 6674, Control_c, 0, 64, 97
1, 6689, Control_c, 0, 64, 100
1, 6699, Note_on_c, 0, 89, 84
1, 6704, Control_c, 0, 64, 104
1, 6718, Control_c, 0, 64, 110
1, 6721, Note_on_c, 0, 75, 55
1, 6733, Control_c, 0, 64, 116
1, 6741, Note_off_c, 0, 75, 63
1, 6747, Note_off_c, 0, 89, 65
1, 6748, Control_c, 0, 64, 121
1, 6792, Control_c, 0, 64, 126
1, 6833, Note_on_c, 0, 89, 82
1, 6839, Note_on_c, 0, 75, 61
1, 6851, Note_on_c, 0, 43, 38
1, 6870, Note_off_c, 0, 75, 66
1, 6872, Note_off_c, 0, 89, 62
1, 6887, Note_off_c, 0, 43, 54
1, 6949, Note_on_c, 0, 83, 85
1, 6961, Note_on_c, 0, 69, 68
1, 6970, Control_c, 0, 64, 122
1, 6979, Note_off_c, 0, 83, 59
1, 6983, Note_off_c, 0, 69, 65
1, 7044, Control_c, 0, 64, 118
1, 7046, Note_on_c, 0, 69, 74
1, 7047, Note_on_c, 0, 83, 81
1, 7068, Note_on_c, 0, 63, 49
1, 7071, Note_off_c, 0, 69, 68
1, 7085, Note_on_c, 0, 53, 31
1, 7088, Control_c, 0, 64, 116
1, 7092, Note_on_c, 0, 59, 41
1, 7093, Note_off_c, 0, 83, 61
1, 7104, Control_c, 0, 64, 114
1, 7116, Note_off_c, 0, 63, 50
1, 7119, Control_c, 0, 64, 109
1, 7141, Control_c, 0, 64, 101
1, 7156, Control_c, 0, 64, 95
1, 7157, Note_on_c, 0, 82, 80
1, 7161, Note_on_c, 0, 62, 62
1, 7171, Control_c, 0, 64, 86
1, 7185, Control_c, 0, 64, 78
1, 7187, Note_on_c, 0, 68, 47
1, 7194, Note_off_c, 0, 82, 62
1, 7200, Control_c, 0, 64, 69
1, 7212, Note_off_c, 0, 68, 54
1, 7215, Control_c, 0, 64, 58
1, 7230, Control_c, 0, 64, 38
1, 7238, Note_off_c, 0, 62, 59
1, 7245, Control_c, 0, 64, 0
1, 7264, Note_on_c, 0, 83, 75
1, 7276, Note_off_c, 0, 59, 38
1, 7277, Note_on_c, 0, 63, 60
1, 7283, Note_on_c, 0, 69, 44
1, 7299, Note_off_c, 0, 83, 58
1, 7310, Note_off_c, 0, 69, 54
1, 7349, Control_c, 0, 64, 48
1, 7355, Note_off_c, 0, 53, 54
1, 7364, Control_c, 0, 64, 59
1, 7370, Note_on_c, 0, 82, 72
1, 7379, Control_c, 0, 64, 64
1, 7393, Control_c, 0, 64, 67
1, 7405, Note_on_c, 0, 68, 51
1, 7408, Control_c, 0, 64, 69
1, 7420, Note_off_c, 0, 82, 57
1, 7423, Control_c, 0, 64, 72
1, 7429, Note_off_c, 0, 68, 58
1, 7438, Control_c, 0, 64, 73
1, 7453, Control_c, 0, 64, 73
1, 7473, Note_on_c, 0, 81, 67
1, 7482, Control_c, 0, 64, 73
1, 7511, Control_c, 0, 64, 72
1, 7526, Control_c, 0, 64, 71
1, 7540, Note_off_c, 0, 63, 61
1, 7541, Control_c, 0, 64, 68
1, 7556, Control_c, 0, 64, 65
1, 7571, Control_c, 0, 64, 62
1, 7585, Control_c, 0, 64, 59
1, 7600, Control_c, 0, 64, 54
1, 7613, Note_off_c, 0, 81, 39
1, 7615, Control_c, 0, 64, 44
1, 7630, Control_c, 0, 64, 0
1, 7633, Note_on_c, 0, 80, 55
1, 7644, Note_on_c, 0, 66, 39
1, 7653, Note_on_c, 0, 62, 36
1, 7671, Note_on_c, 0, 52, 30
1, 7688, Note_on_c, 0, 46, 27
1, 7778, Control_c, 0, 64, 40
1, 7793, Control_c, 0, 64, 57
1, 7802, Note_off_c, 0, 66, 53
1, 7808, Control_c, 0, 64, 63
1, 7820, Note_off_c, 0, 80, 60
1, 7823, Control_c, 0, 64, 67
1, 7838, Control_c, 0, 64, 72
1, 7853, Control_c, 0, 64, 80
1, 7854, Note_off_c, 0, 62, 61
1, 7867, Control_c, 0, 64, 93
1, 7889, Control_c, 0, 64, 114
1, 7904, Control_c, 0, 64, 127
1, 7954, Note_off_c, 0, 52, 0
1, 7973, Note_on_c, 0, 62, 58
1, 7991, Poly_aftertouch_c, 0, 52, 127
1, 7995, Note_on_c, 0, 52, 3
1, 7997, Note_off_c, 0, 62, 63
1, 8017, Note_on_c, 0, 80, 71
1, 8037, Note_off_c, 0, 52, 38
1, 8051, Note_off_c, 0, 80, 63
1, 8055, Note_off_c, 0, 46, 40
1, 8057, Note_on_c, 0, 66, 12
1, 8103, Note_off_c, 0, 66, 37
1, 8124, Note_on_c, 0, 67, 65
1, 8125, Note_on_c, 0, 81, 70
1, 8151, Note_off_c, 0, 67, 67
1, 8151, Note_off_c, 0, 81, 65
1, 8163, Note_on_c, 0, 49, 49
1, 8164, Note_on_c, 0, 43, 29
1, 8186, Note_on_c, 0, 59, 61
1, 8193, Note_off_c, 0, 49, 61
1, 8204, Note_off_c, 0, 43, 54
1, 8214, Note_off_c, 0, 59, 69
1, 8219, Note_on_c, 0, 82, 83
1, 8233, Note_on_c, 0, 68, 68
1, 8260, Control_c, 0, 67, 114
1, 8264, Note_off_c, 0, 68, 62
1, 8269, Note_off_c, 0, 82, 62
1, 8273, Note_on_c, 0, 65, 76
1, 8275, Control_c, 0, 67, 91
1, 8289, Control_c, 0, 67, 68
1, 8295, Note_off_c, 0, 65, 71
1, 8304, Control_c, 0, 67, 50
1, 8309, Note_on_c, 0, 83, 83
1, 8319, Note_on_c, 0, 69, 62
1, 8319, Control_c, 0, 67, 38
1, 8333, Control_c, 0, 67, 34
1, 8338, Note_off_c, 0, 69, 65
1, 8356, Note_off_c, 0, 83, 64
1, 8363, Control_c, 0, 67, 35
1, 8378, Control_c, 0, 67, 38
1, 8393, Control_c, 0, 67, 41
1, 8399, Note_on_c, 0, 84, 83
1, 8401, Note_on_c, 0, 70, 80
1, 8407, Control_c, 0, 67, 45
1, 8422, Control_c, 0, 67, 49
1, 8431, Note_off_c, 0, 70, 63
1, 8437, Control_c, 0, 64, 91
1, 8437, Control_c, 0, 67, 56
1, 8452, Control_c, 0, 64, 71
1, 8452, Control_c, 0, 67, 65
1, 8467, Control_c, 0, 64, 45
1, 8467, Control_c, 0, 67, 73
1, 8477, Note_on_c, 0, 85, 89
1, 8482, Control_c, 0, 64, 0
1, 8482, Control_c, 0, 67, 81
1, 8487, Note_on_c, 0, 71, 74
1, 8490, Note_off_c, 0, 84, 63
1, 8496, Control_c, 0, 67, 89
1, 8511, Note_off_c, 0, 71, 70
1, 8511, Control_c, 0, 67, 98
1, 8526, Control_c, 0, 67, 107
1, 8528, Note_off_c, 0, 85, 66
1, 8541, Control_c, 0, 67, 115
1, 8556, Control_c, 0, 67, 118
1, 8583, Note_on_c, 0, 67, 55
1, 8586, Control_c, 0, 67, 121
1, 8595, Note_on_c, 0, 62, 45
1, 8598, Note_on_c, 0, 86, 78
1, 8613, Note_on_c, 0, 55, 37
1, 8615, Note_on_c, 0, 56, 38
1, 8615, Control_c, 0, 64, 47
1, 8617, Note_on_c, 0, 72, 48
1, 8637, Control_c, 0, 64, 61
1, 8641, Note_off_c, 0, 67, 63
1, 8647, Note_off_c, 0, 62, 63
1, 8647, Note_off_c, 0, 86, 60
1, 8649, Note_off_c, 0, 72, 55
1, 8652, Control_c, 0, 64, 66
1, 8663, Note_off_c, 0, 56, 63
1, 8666, Control_c, 0, 64, 71
1, 8670, Note_off_c, 0, 55, 62
1, 8681, Control_c, 0, 64, 77
1, 8696, Control_c, 0, 64, 84
1, 8712, Control_c, 0, 64, 94
1, 8726, Note_on_c, 0, 72, 67
1, 8727, Control_c, 0, 64, 113
1, 8732, Note_on_c, 0, 86, 73
1, 8742, Control_c, 0, 64, 127
1, 8747, Note_off_c, 0, 72, 65
1, 8761, Note_off_c, 0, 86, 58
1, 8801, Control_c, 0, 67, 119
1, 8826, Note_on_c, 0, 72, 66
1, 8829, Note_on_c, 0, 86, 76
1, 8848, Note_off_c, 0, 72, 67
1, 8856, Note_off_c, 0, 86, 64
1, 8900, Note_on_c, 0, 50, 47
1, 8926, Note_on_c, 0, 40, 47
1, 8950, Control_c, 0, 67, 117
1, 8957, Note_off_c, 0, 50, 60
1, 8960, Note_off_c, 0, 40, 63
1, 8970, Note_on_c, 0, 86, 70
1, 8979, Control_c, 0, 67, 115
1, 8988, Note_on_c, 0, 72, 48
1, 9012, Note_off_c, 0, 72, 59
1, 9018, Note_off_c, 0, 86, 63
1, 9039, Control_c, 0, 67, 113
1, 9102, Note_on_c, 0, 72, 55
1, 9104, Note_on_c, 0, 86, 67
1, 9113, Control_c, 0, 67, 111
1, 9124, Note_off_c, 0, 72, 61
1, 9163, Note_off_c, 0, 86, 54
1, 9230, Note_on_c, 0, 86, 59
1, 9239, Note_on_c, 0, 72, 42
1, 9261, Control_c, 0, 67, 113
1, 9277, Note_off_c, 0, 86, 61
1, 9279, Note_off_c, 0, 72, 62
1, 9335, Control_c, 0, 67, 115
1, 9387, Control_c, 0, 67, 117
1, 9409, Note_on_c, 0, 67, 71
1, 9430, Note_on_c, 0, 56, 52
1, 9432, Control_c, 0, 64, 107
1, 9446, Note_on_c, 0, 62, 41
1, 9446, Control_c, 0, 64, 75
1, 9461, Control_c, 0, 64, 52
1, 9476, Control_c, 0, 64, 0
1, 9536, Control_c, 0, 64, 38
1, 9551, Control_c, 0, 64, 63
1, 9566, Control_c, 0, 64, 76
1, 9579, Note_off_c, 0, 67, 59
1, 9580, Control_c, 0, 64, 94
1, 9595, Control_c, 0, 64, 127
1, 9595, Control_c, 0, 67, 115
1, 9607, Note_on_c, 0, 66, 62
1, 9625, Control_c, 0, 67, 113
1, 9631, Note_off_c, 0, 62, 41
1, 9640, Note_off_c, 0, 66, 65
1, 9678, Note_off_c, 0, 56, 50
1, 9709, Note_on_c, 0, 92, 91
1, 9713, Control_c, 0, 67, 111
1, 9727, Note_on_c, 0, 78, 66
1, 9754, Note_off_c, 0, 78, 65
1, 9773, Note_off_c, 0, 92, 61
1, 9802, Control_c, 0, 67, 109
1, 9832, Control_c, 0, 67, 107
1, 9850, Note_on_c, 0, 92, 90
1, 9857, Note_on_c, 0, 46, 62
1, 9862, Note_on_c, 0, 78, 62
1, 9877, Control_c, 0, 67, 105
1, 9885, Note_off_c, 0, 92, 68
1, 9886, Note_off_c, 0, 46, 65
1, 9889, Note_off_c, 0, 78, 66
1, 9892, Control_c, 0, 67, 101
1, 9906, Control_c, 0, 67, 96
1, 9921, Control_c, 0, 67, 90
1, 9936, Control_c, 0, 67, 83
1, 9951, Control_c, 0, 67, 78
1, 9966, Control_c, 0, 67, 75
1, 9968, Note_on_c, 0, 86, 84
1, 9980, Note_on_c, 0, 72, 68
1, 9980, Control_c, 0, 67, 73
1, 10005, Note_off_c, 0, 72, 69
1, 10010, Control_c, 0, 67, 73
1, 10012, Note_off_c, 0, 86, 63
1, 10054, Control_c, 0, 67, 73
1, 10069, Control_c, 0, 67, 74
1, 10071, Note_on_c, 0, 86, 77
1, 10077, Note_on_c, 0, 66, 59
1, 10084, Control_c, 0, 67, 75
1, 10087, Note_on_c, 0, 72, 71
1, 10089, Note_on_c, 0, 56, 51
1, 10098, Note_on_c, 0, 62, 51
1, 10098, Control_c, 0, 67, 76
1, 10107, Note_off_c, 0, 72, 71
1, 10109, Note_off_c, 0, 66, 57
1, 10113, Control_c, 0, 67, 78
1, 10134, Note_off_c, 0, 86, 61
1, 10136, Control_c, 0, 67, 79
1, 10151, Control_c, 0, 67, 81
1, 10166, Control_c, 0, 64, 101
1, 10166, Control_c, 0, 67, 82
1, 10181, Control_c, 0, 64, 89
1, 10181, Control_c, 0, 67, 83
1, 10187, Note_on_c, 0, 85, 82
1, 10193, Note_on_c, 0, 65, 59
1, 10195, Control_c, 0, 64, 78
1, 10195, Control_c, 0, 67, 84
1, 10203, Note_on_c, 0, 71, 56
1, 10210, Control_c, 0, 64, 67
1, 10210, Control_c, 0, 67, 85
1, 10224, Note_off_c, 0, 71, 61
1, 10225, Control_c, 0, 64, 52
1, 10225, Control_c, 0, 67, 86
1, 10230, Note_off_c, 0, 85, 66
1, 10239, Control_c, 0, 64, 0
1, 10239, Control_c, 0, 67, 88
1, 10242, Note_off_c, 0, 62, 31
1, 10254, Control_c, 0, 67, 89
1, 10269, Control_c, 0, 67, 93
1, 10284, Control_c, 0, 67, 98
1, 10286, Note_off_c, 0, 65, 57
1, 10297, Note_on_c, 0, 86, 76
1, 10299, Control_c, 0, 67, 104
1, 10305, Note_on_c, 0, 66, 69
1, 10315, Control_c, 0, 67, 110
1, 10320, Note_on_c, 0, 72, 46
1, 10330, Control_c, 0, 64, 34
1, 10330, Control_c, 0, 67, 115
1, 10344, Note_off_c, 0, 86, 56
1, 10344, Control_c, 0, 64, 52
1, 10344, Control_c, 0, 67, 120
1, 10345, Note_off_c, 0, 72, 52
1, 10357, Note_off_c, 0, 56, 40
1, 10359, Control_c, 0, 64, 62
1, 10359, Control_c, 0, 67, 124
1, 10374, Control_c, 0, 64, 65
1, 10374, Control_c, 0, 67, 127
1, 10389, Control_c, 0, 64, 68
1, 10404, Control_c, 0, 64, 70
1, 10406, Note_on_c, 0, 85, 79
1, 10412, Note_on_c, 0, 71, 71
1, 10418, Control_c, 0, 64, 74
1, 10433, Control_c, 0, 64, 79
1, 10437, Note_off_c, 0, 71, 68
1, 10443, Note_off_c, 0, 85, 62
1, 10448, Control_c, 0, 64, 84
1, 10463, Control_c, 0, 64, 86
1, 10499, Note_on_c, 0, 84, 78
1, 10510, Note_on_c, 0, 70, 66
1, 10510, Note_off_c, 0, 66, 61
1, 10532, Note_off_c, 0, 70, 60
1, 10544, Note_off_c, 0, 84, 58
1, 10551, Control_c, 0, 64, 82
1, 10566, Control_c, 0, 64, 71
1, 10581, Control_c, 0, 64, 60
1, 10596, Control_c, 0, 64, 39
1, 10606, Note_on_c, 0, 83, 69
1, 10610, Control_c, 0, 64, 0
1, 10612, Note_on_c, 0, 65, 55
1, 10619, Note_on_c, 0, 55, 36
1, 10623, Note_on_c, 0, 69, 45
1, 10636, Note_on_c, 0, 49, 30
1, 10648, Note_off_c, 0, 83, 64
1, 10649, Note_off_c, 0, 69, 52
1, 10655, Control_c, 0, 64, 51
1, 10670, Control_c, 0, 64, 63
1, 10684, Control_c, 0, 64, 68
1, 10692, Note_off_c, 0, 55, 62
1, 10696, Note_off_c, 0, 49, 54
1, 10699, Note_on_c, 0, 84, 62
1, 10699, Control_c, 0, 64, 72
1, 10709, Note_off_c, 0, 65, 55
1, 10714, Control_c, 0, 64, 76
1, 10729, Control_c, 0, 64, 79
1, 10736, Note_on_c, 0, 70, 60
1, 10744, Control_c, 0, 64, 82
1, 10759, Control_c, 0, 64, 85
1, 10770, Note_off_c, 0, 70, 65
1, 10774, Control_c, 0, 64, 86
1, 10792, Note_off_c, 0, 84, 58
1, 10804, Note_on_c, 0, 71, 53
1, 10807, Note_on_c, 0, 85, 68
1, 10828, Note_off_c, 0, 71, 59
1, 10847, Control_c, 0, 64, 85
1, 10852, Note_off_c, 0, 85, 61
1, 10862, Control_c, 0, 64, 81
1, 10884, Control_c, 0, 64, 74
1, 10899, Control_c, 0, 64, 65
1, 10914, Control_c, 0, 64, 50
1, 10923, Note_on_c, 0, 67, 64
1, 10929, Control_c, 0, 64, 0
1, 10959, Note_on_c, 0, 56, 39
1, 10989, Control_c, 0, 64, 49
1, 10999, Poly_aftertouch_c, 0, 62, 127
1, 11003, Control_c, 0, 64, 63
1, 11003, Note_off_c, 0, 67, 41
1, 11018, Control_c, 0, 64, 68
1, 11033, Control_c, 0, 64, 71
1, 11035, Note_on_c, 0, 66, 53
1, 11039, Poly_aftertouch_c, 0, 62, 0
1, 11048, Control_c, 0, 64, 73
1, 11062, Control_c, 0, 64, 75
1, 11066, Note_on_c, 0, 92, 74
1, 11067, Note_off_c, 0, 66, 64
1, 11077, Control_c, 0, 64, 80
1, 11086, Note_off_c, 0, 56, 61
1, 11092, Control_c, 0, 64, 87
1, 11096, Note_on_c, 0, 78, 28
1, 11099, Note_off_c, 0, 92, 58
1, 11108, Control_c, 0, 64, 97
1, 11123, Control_c, 0, 64, 111
1, 11133, Note_off_c, 0, 78, 44
1, 11138, Control_c, 0, 64, 127
1, 11190, Note_on_c, 0, 92, 71
1, 11212, Note_off_c, 0, 92, 69
1, 11266, Note_on_c, 0, 46, 40
1, 11294, Poly_aftertouch_c, 0, 78, 0
1, 11302, Note_off_c, 0, 46, 55
1, 11330, Note_on_c, 0, 86, 68
1, 11354, Note_on_c, 0, 72, 36
1, 11354, Note_off_c, 0, 86, 66
1, 11386, Note_off_c, 0, 72, 48
1, 11450, Note_on_c, 0, 86, 59
1, 11491, Note_on_c, 0, 66, 62
1, 11516, Note_on_c, 0, 62, 51
1, 11522, Note_on_c, 0, 56, 43
1, 11534, Poly_aftertouch_c, 0, 72, 127
1, 11537, Note_off_c, 0, 66, 52
1, 11563, Poly_aftertouch_c, 0, 72, 0
1, 11590, Note_off_c, 0, 86, 54
1, 11620, Note_off_c, 0, 62, 58
1, 11623, Note_off_c, 0, 56, 50
1, 11638, Note_on_c, 0, 85, 66
1, 11648, Note_on_c, 0, 71, 48
1, 11652, Note_on_c, 0, 65, 65
1, 11676, Note_off_c, 0, 71, 57
1, 11700, Note_off_c, 0, 65, 61
1, 11871, Control_c, 0, 64, 118
1, 11880, Note_off_c, 0, 85, 58
1, 11885, Control_c, 0, 64, 106
1, 11893, Note_on_c, 0, 84, 58
1, 11901, Control_c, 0, 64, 99
1, 11916, Control_c, 0, 64, 93
1, 11930, Note_on_c, 0, 70, 35
1, 11930, Control_c, 0, 64, 88
1, 11945, Control_c, 0, 64, 82
1, 11960, Control_c, 0, 64, 73
1, 11975, Control_c, 0, 64, 66
1, 11990, Control_c, 0, 64, 57
1, 11996, Note_on_c, 0, 68, 72
1, 12005, Control_c, 0, 64, 48
1, 12012, Note_on_c, 0, 63, 60
1, 12020, Control_c, 0, 64, 32
1, 12035, Control_c, 0, 64, 0
1, 12168, Control_c, 0, 64, 44
1, 12181, Note_off_c, 0, 68, 60
1, 12182, Control_c, 0, 64, 66
1, 12197, Control_c, 0, 64, 74
1, 12212, Control_c, 0, 64, 84
1, 12226, Control_c, 0, 64, 91
1, 12241, Control_c, 0, 64, 106
1, 12246, Note_on_c, 0, 64, 65
1, 12256, Control_c, 0, 64, 127
1, 12283, Note_on_c, 0, 58, 52
1, 12285, Note_off_c, 0, 63, 55
1, 12290, Note_off_c, 0, 64, 63
1, 12323, Note_off_c, 0, 58, 65
1, 12325, Note_off_c, 0, 70, 53
1, 12378, Note_off_c, 0, 84, 55
1, 12479, Note_on_c, 0, 52, 52
1, 12532, Note_off_c, 0, 52, 60
1, 12658, Note_on_c, 0, 42, 46
1, 12756, Note_off_c, 0, 42, 56
1, 13010, Note_on_c, 0, 37, 42
1, 13064, Control_c, 0, 67, 125
1, 13075, Note_off_c, 0, 37, 60
1, 13109, Control_c, 0, 67, 119
1, 13131, Control_c, 0, 67, 110
1, 13146, Control_c, 0, 67, 101
1, 13161, Control_c, 0, 67, 90
1, 13176, Control_c, 0, 67, 80
1, 13191, Control_c, 0, 67, 71
1, 13205, Control_c, 0, 67, 64
1, 13220, Control_c, 0, 67, 57
1, 13235, Control_c, 0, 67, 51
1, 13250, Control_c, 0, 67, 47
1, 13264, Control_c, 0, 67, 44
1, 13279, Control_c, 0, 67, 43
1, 13294, Control_c, 0, 67, 43
1, 13368, Control_c, 0, 67, 43
1, 13398, Control_c, 0, 67, 44
1, 13412, Control_c, 0, 67, 45
1, 13427, Control_c, 0, 67, 45
1, 13457, Control_c, 0, 67, 46
1, 13472, Control_c, 0, 67, 46
1, 13487, Control_c, 0, 67, 47
1, 13502, Control_c, 0, 67, 47
1, 13517, Control_c, 0, 67, 48
1, 13532, Control_c, 0, 67, 48
1, 13546, Control_c, 0, 67, 49
1, 13561, Control_c, 0, 67, 50
1, 13576, Control_c, 0, 67, 50
1, 13591, Control_c, 0, 67, 51
1, 13597, Note_on_c, 0, 69, 44
1, 13606, Control_c, 0, 67, 51
1, 13618, Note_on_c, 0, 58, 36
1, 13621, Control_c, 0, 64, 101
1, 13621, Control_c, 0, 67, 52
1, 13636, Control_c, 0, 64, 79
1, 13644, Note_on_c, 0, 64, 34
1, 13650, Control_c, 0, 64, 58
1, 13665, Control_c, 0, 64, 0
1, 13665, Control_c, 0, 67, 53
1, 13710, Control_c, 0, 64, 36
1, 13725, Control_c, 0, 64, 58
1, 13740, Control_c, 0, 64, 67
1, 13754, Control_c, 0, 64, 75
1, 13768, Note_off_c, 0, 69, 49
1, 13769, Control_c, 0, 64, 81
1, 13784, Control_c, 0, 64, 84
1, 13799, Control_c, 0, 64, 86
1, 13799, Control_c, 0, 67, 52
1, 13803, Note_on_c, 0, 68, 49
1, 13811, Note_off_c, 0, 64, 53
1, 13814, Control_c, 0, 64, 89
1, 13828, Control_c, 0, 64, 92
1, 13828, Control_c, 0, 67, 51
1, 13841, Note_off_c, 0, 68, 65
1, 13843, Control_c, 0, 64, 96
1, 13858, Note_off_c, 0, 58, 58
1, 13858, Control_c, 0, 64, 101
1, 13880, Control_c, 0, 64, 105
1, 13895, Control_c, 0, 64, 109
1, 13898, Note_on_c, 0, 94, 78
1, 13910, Control_c, 0, 64, 111
1, 13922, Note_on_c, 0, 80, 46
1, 13925, Control_c, 0, 64, 113
1, 13940, Control_c, 0, 64, 115
1, 13948, Note_off_c, 0, 80, 56
1, 13954, Control_c, 0, 67, 51
1, 13964, Note_off_c, 0, 94, 64
1, 13969, Control_c, 0, 67, 50
1, 13984, Control_c, 0, 64, 118
1, 13999, Control_c, 0, 64, 122
1, 14013, Control_c, 0, 64, 127
1, 14041, Note_on_c, 0, 94, 79
1, 14047, Note_on_c, 0, 80, 56
1, 14071, Note_off_c, 0, 80, 64
1, 14075, Note_off_c, 0, 94, 65
1, 14082, Note_on_c, 0, 48, 31
1, 14087, Control_c, 0, 67, 49
1, 14121, Note_off_c, 0, 48, 54
1, 14176, Note_on_c, 0, 88, 75
1, 14184, Note_on_c, 0, 74, 63
1, 14202, Note_off_c, 0, 74, 62
1, 14206, Control_c, 0, 67, 50
1, 14211, Note_off_c, 0, 88, 55
1, 14221, Control_c, 0, 67, 50
1, 14251, Control_c, 0, 67, 51
1, 14266, Control_c, 0, 67, 52
1, 14280, Control_c, 0, 67, 54
1, 14282, Note_on_c, 0, 74, 68
1, 14284, Note_on_c, 0, 68, 57
1, 14294, Note_on_c, 0, 88, 75
1, 14296, Control_c, 0, 64, 121
1, 14296, Control_c, 0, 67, 56
1, 14304, Note_on_c, 0, 64, 44
1, 14308, Note_off_c, 0, 74, 69
1, 14311, Control_c, 0, 64, 113
1, 14311, Control_c, 0, 67, 58
1, 14315, Note_on_c, 0, 58, 39
1, 14326, Control_c, 0, 64, 105
1, 14326, Control_c, 0, 67, 60
1, 14327, Note_off_c, 0, 68, 49
1, 14341, Control_c, 0, 64, 98
1, 14341, Control_c, 0, 67, 67
1, 14347, Note_off_c, 0, 88, 61
1, 14356, Control_c, 0, 64, 90
1, 14356, Control_c, 0, 67, 74
1, 14370, Control_c, 0, 64, 82
1, 14370, Control_c, 0, 67, 80
1, 14385, Control_c, 0, 64, 72
1, 14385, Control_c, 0, 67, 84
1, 14393, Note_on_c, 0, 87, 73
1, 14394, Note_on_c, 0, 67, 59
1, 14400, Control_c, 0, 64, 62
1, 14400, Control_c, 0, 67, 86
1, 14415, Control_c, 0, 64, 48
1, 14415, Control_c, 0, 67, 87
1, 14420, Note_on_c, 0, 73, 45
1, 14429, Control_c, 0, 64, 0
1, 14446, Note_off_c, 0, 73, 56
1, 14452, Note_off_c, 0, 87, 59
1, 14488, Note_off_c, 0, 67, 60
1, 14515, Note_on_c, 0, 68, 65
1, 14518, Note_on_c, 0, 88, 72
1, 14518, Control_c, 0, 67, 87
1, 14519, Note_off_c, 0, 64, 48
1, 14533, Control_c, 0, 67, 86
1, 14548, Control_c, 0, 64, 45
1, 14555, Note_off_c, 0, 88, 61
1, 14563, Control_c, 0, 64, 55
1, 14578, Control_c, 0, 64, 61
1, 14581, Note_off_c, 0, 58, 54
1, 14592, Control_c, 0, 64, 64
1, 14607, Control_c, 0, 64, 67
1, 14629, Control_c, 0, 64, 70
1, 14636, Note_on_c, 0, 87, 80
1, 14644, Control_c, 0, 64, 74
1, 14655, Note_on_c, 0, 73, 59
1, 14659, Control_c, 0, 64, 77
1, 14659, Control_c, 0, 67, 86
1, 14674, Control_c, 0, 64, 80
1, 14674, Control_c, 0, 67, 85
1, 14685, Note_off_c, 0, 73, 66
1, 14687, Note_off_c, 0, 87, 62
1, 14689, Control_c, 0, 64, 82
1, 14703, Control_c, 0, 64, 82
1, 14718, Control_c, 0, 67, 85
1, 14733, Note_on_c, 0, 86, 82
1, 14733, Control_c, 0, 67, 84
1, 14744, Note_on_c, 0, 72, 64
1, 14759, Note_off_c, 0, 68, 63
1, 14762, Note_off_c, 0, 72, 64
1, 14763, Control_c, 0, 67, 83
1, 14770, Note_off_c, 0, 86, 58
1, 14777, Control_c, 0, 64, 80
1, 14777, Control_c, 0, 67, 83
1, 14792, Control_c, 0, 64, 73
1, 14792, Control_c, 0, 67, 82
1, 14807, Control_c, 0, 64, 65
1, 14807, Control_c, 0, 67, 81
1, 14822, Control_c, 0, 64, 57
1, 14822, Control_c, 0, 67, 80
1, 14828, Note_on_c, 0, 67, 46
1, 14830, Note_on_c, 0, 85, 83
1, 14834, Note_on_c, 0, 57, 50
1, 14837, Control_c, 0, 64, 56
1, 14837, Control_c, 0, 67, 79
1, 14845, Note_on_c, 0, 71, 62
1, 14847, Note_on_c, 0, 51, 44
1, 14852, Control_c, 0, 64, 60
1, 14852, Control_c, 0, 67, 78
1, 14864, Note_off_c, 0, 71, 64
1, 14867, Control_c, 0, 64, 65
1, 14867, Control_c, 0, 67, 77
1, 14873, Note_off_c, 0, 67, 64
1, 14875, Note_off_c, 0, 85, 65
1, 14876, Note_off_c, 0, 51, 59
1, 14882, Control_c, 0, 64, 69
1, 14882, Control_c, 0, 67, 75
1, 14885, Note_off_c, 0, 57, 61
1, 14896, Control_c, 0, 64, 73
1, 14896, Control_c, 0, 67, 74
1, 14911, Control_c, 0, 64, 78
1, 14911, Control_c, 0, 67, 73
1, 14926, Control_c, 0, 64, 81
1, 14926, Control_c, 0, 67, 73
1, 14927, Note_on_c, 0, 86, 85
1, 14940, Note_on_c, 0, 72, 61
1, 14941, Control_c, 0, 64, 86
1, 14941, Control_c, 0, 67, 71
1, 14955, Control_c, 0, 64, 90
1, 14955, Control_c, 0, 67, 64
1, 14958, Note_off_c, 0, 72, 61
1, 14970, Control_c, 0, 64, 93
1, 14970, Control_c, 0, 67, 55
1, 14985, Control_c, 0, 64, 95
1, 14985, Control_c, 0, 67, 46
1, 14986, Note_off_c, 0, 86, 62
1, 15000, Control_c, 0, 64, 98
1, 15000, Control_c, 0, 67, 39
1, 15015, Control_c, 0, 64, 101
1, 15015, Control_c, 0, 67, 36
1, 15017, Note_on_c, 0, 87, 87
1, 15024, Note_on_c, 0, 73, 77
1, 15029, Control_c, 0, 64, 105
1, 15029, Control_c, 0, 67, 35
1, 15036, Note_off_c, 0, 87, 70
1, 15043, Note_off_c, 0, 73, 67
1, 15044, Control_c, 0, 64, 107
1, 15089, Control_c, 0, 64, 91
1, 15105, Control_c, 0, 64, 71
1, 15120, Control_c, 0, 64, 50
1, 15123, Note_on_c, 0, 69, 77
1, 15130, Note_on_c, 0, 58, 58
1, 15134, Control_c, 0, 64, 0
1, 15145, Note_on_c, 0, 64, 44
1, 15179, Control_c, 0, 64, 52
1, 15192, Note_off_c, 0, 69, 58
1, 15194, Control_c, 0, 64, 67
1, 15203, Note_off_c, 0, 64, 57
1, 15208, Control_c, 0, 64, 76
1, 15210, Note_on_c, 0, 68, 73
1, 15223, Control_c, 0, 64, 86
1, 15224, Note_off_c, 0, 58, 58
1, 15234, Note_off_c, 0, 68, 69
1, 15238, Control_c, 0, 64, 91
1, 15238, Control_c, 0, 67, 33
1, 15252, Control_c, 0, 64, 95
1, 15252, Control_c, 0, 67, 32
1, 15263, Note_on_c, 0, 94, 93
1, 15267, Control_c, 0, 64, 99
1, 15267, Control_c, 0, 67, 29
1, 15269, Note_on_c, 0, 80, 78
1, 15282, Control_c, 0, 64, 105
1, 15282, Control_c, 0, 67, 23
1, 15296, Note_off_c, 0, 80, 65
1, 15297, Control_c, 0, 64, 116
1, 15297, Control_c, 0, 67, 0
1, 15303, Note_off_c, 0, 94, 67
1, 15312, Control_c, 0, 64, 127
1, 15387, Note_on_c, 0, 94, 96
1, 15394, Note_on_c, 0, 80, 81
1, 15400, Note_on_c, 0, 48, 73
1, 15413, Note_off_c, 0, 80, 71
1, 15418, Note_off_c, 0, 94, 66
1, 15428, Note_off_c, 0, 48, 69
1, 15515, Note_on_c, 0, 88, 88
1, 15528, Note_on_c, 0, 74, 70
1, 15546, Note_off_c, 0, 74, 67
1, 15560, Note_off_c, 0, 88, 64
1, 15627, Note_on_c, 0, 68, 80
1, 15629, Note_on_c, 0, 64, 68
1, 15638, Note_on_c, 0, 88, 88
1, 15639, Note_on_c, 0, 74, 72
1, 15643, Note_on_c, 0, 58, 36
1, 15656, Note_off_c, 0, 68, 61
1, 15675, Note_off_c, 0, 58, 53
1, 15681, Note_off_c, 0, 74, 61
1, 15730, Note_off_c, 0, 64, 53
1, 15772, Note_on_c, 0, 67, 68
1, 15773, Note_on_c, 0, 87, 88
1, 15779, Note_off_c, 0, 88, 60
1, 15800, Note_on_c, 0, 73, 64
1, 15820, Note_off_c, 0, 67, 62
1, 15832, Note_off_c, 0, 73, 63
1, 15928, Control_c, 0, 64, 119
1, 15943, Control_c, 0, 64, 101
1, 15944, Note_off_c, 0, 87, 59
1, 15957, Control_c, 0, 64, 93
1, 15972, Control_c, 0, 64, 86
1, 15987, Control_c, 0, 64, 79
1, 15987, Control_c, 0, 67, 19
1, 15988, Note_on_c, 0, 86, 80
1, 16001, Note_on_c, 0, 72, 63
1, 16001, Control_c, 0, 64, 72
1, 16016, Control_c, 0, 64, 64
1, 16031, Control_c, 0, 64, 54
1, 16046, Control_c, 0, 64, 39
1, 16050, Note_on_c, 0, 65, 83
1, 16061, Control_c, 0, 64, 0
1, 16075, Control_c, 0, 67, 22
1, 16079, Note_on_c, 0, 70, 70
1, 16261, Control_c, 0, 64, 46
1, 16275, Control_c, 0, 64, 62
1, 16290, Control_c, 0, 64, 65
1, 16305, Control_c, 0, 64, 70
1, 16317, Note_on_c, 0, 66, 75
1, 16320, Control_c, 0, 64, 79
1, 16327, Note_off_c, 0, 65, 63
1, 16335, Control_c, 0, 64, 95
1, 16337, Note_on_c, 0, 60, 51
1, 16340, Note_off_c, 0, 70, 64
1, 16349, Control_c, 0, 64, 127
1, 16379, Note_off_c, 0, 66, 64
1, 16407, Note_off_c, 0, 60, 63
1, 16477, Note_off_c, 0, 72, 38
1, 16578, Note_on_c, 0, 54, 35
1, 16659, Note_off_c, 0, 86, 57
1, 16733, Note_off_c, 0, 54, 34
1, 16755, Note_on_c, 0, 44, 41
1, 16955, Note_off_c, 0, 44, 44
1, 16988, Note_on_c, 0, 39, 49
1, 17043, Note_off_c, 0, 39, 54
1, 17350, Control_c, 0, 67, 24
1, 17365, Control_c, 0, 67, 26
1, 17380, Control_c, 0, 64, 111
1, 17380, Control_c, 0, 67, 29
1, 17394, Control_c, 0, 64, 78
1, 17394, Control_c, 0, 67, 32
1, 17405, Note_on_c, 0, 65, 60
1, 17409, Control_c, 0, 64, 57
1, 17409, Control_c, 0, 67, 36
1, 17424, Control_c, 0, 64, 0
1, 17424, Control_c, 0, 67, 40
1, 17433, Note_on_c, 0, 60, 38
1, 17434, Note_on_c, 0, 54, 34
1, 17439, Control_c, 0, 67, 43
1, 17454, Control_c, 0, 67, 46
1, 17469, Control_c, 0, 64, 41
1, 17469, Control_c, 0, 67, 48
1, 17484, Control_c, 0, 64, 63
1, 17484, Control_c, 0, 67, 50
1, 17499, Note_off_c, 0, 54, 61
1, 17499, Control_c, 0, 64, 72
1, 17499, Control_c, 0, 67, 51
1, 17514, Control_c, 0, 64, 83
1, 17514, Control_c, 0, 67, 52
1, 17529, Control_c, 0, 64, 92
1, 17530, Note_off_c, 0, 65, 64
1, 17544, Control_c, 0, 64, 94
1, 17558, Control_c, 0, 64, 96
1, 17583, Note_on_c, 0, 64, 47
1, 17588, Control_c, 0, 64, 99
1, 17603, Control_c, 0, 64, 103
1, 17604, Note_off_c, 0, 60, 36
1, 17606, Note_off_c, 0, 64, 60
1, 17625, Control_c, 0, 64, 110
1, 17640, Control_c, 0, 64, 127
1, 17680, Note_on_c, 0, 90, 74
1, 17701, Note_on_c, 0, 76, 55
1, 17714, Control_c, 0, 67, 52
1, 17725, Note_off_c, 0, 76, 57
1, 17752, Note_off_c, 0, 90, 62
1, 17845, Note_on_c, 0, 90, 77
1, 17846, Note_on_c, 0, 38, 59
1, 17847, Control_c, 0, 67, 51
1, 17855, Note_on_c, 0, 44, 56
1, 17855, Note_on_c, 0, 76, 60
1, 17874, Note_off_c, 0, 90, 64
1, 17880, Note_off_c, 0, 76, 64
1, 17884, Note_off_c, 0, 44, 63
1, 17892, Control_c, 0, 67, 51
1, 17895, Note_off_c, 0, 38, 63
1, 17907, Control_c, 0, 67, 50
1, 17921, Control_c, 0, 67, 49
1, 17936, Control_c, 0, 67, 48
1, 17951, Control_c, 0, 67, 48
1, 17966, Control_c, 0, 67, 47
1, 17997, Note_on_c, 0, 84, 84
1, 18005, Note_on_c, 0, 70, 69
1, 18023, Note_off_c, 0, 84, 63
1, 18025, Control_c, 0, 67, 48
1, 18027, Note_off_c, 0, 70, 65
1, 18040, Control_c, 0, 67, 49
1, 18054, Control_c, 0, 67, 50
1, 18084, Control_c, 0, 67, 51
1, 18124, Note_on_c, 0, 84, 78
1, 18125, Note_on_c, 0, 64, 59
1, 18128, Control_c, 0, 64, 116
1, 18131, Note_on_c, 0, 70, 63
1, 18142, Note_on_c, 0, 60, 59
1, 18143, Control_c, 0, 64, 112
1, 18152, Note_on_c, 0, 54, 39
1, 18158, Control_c, 0, 64, 108
1, 18162, Note_off_c, 0, 84, 58
1, 18164, Note_off_c, 0, 70, 66
1, 18172, Control_c, 0, 64, 103
1, 18180, Note_off_c, 0, 64, 61
1, 18187, Control_c, 0, 64, 98
1, 18202, Control_c, 0, 64, 92
1, 18217, Control_c, 0, 64, 87
1, 18217, Control_c, 0, 67, 52
1, 18232, Control_c, 0, 64, 83
1, 18232, Control_c, 0, 67, 53
1, 18241, Note_off_c, 0, 60, 54
1, 18247, Control_c, 0, 64, 81
1, 18247, Control_c, 0, 67, 53
1, 18262, Control_c, 0, 64, 80
1, 18262, Control_c, 0, 67, 54
1, 18263, Note_on_c, 0, 83, 75
1, 18270, Note_on_c, 0, 63, 71
1, 18274, Note_off_c, 0, 54, 25
1, 18277, Control_c, 0, 64, 79
1, 18277, Control_c, 0, 67, 55
1, 18279, Note_on_c, 0, 69, 49
1, 18292, Control_c, 0, 64, 78
1, 18292, Control_c, 0, 67, 62
1, 18303, Note_off_c, 0, 69, 58
1, 18307, Control_c, 0, 64, 77
1, 18307, Control_c, 0, 67, 73
1, 18322, Control_c, 0, 64, 76
1, 18322, Control_c, 0, 67, 92
1, 18333, Note_off_c, 0, 63, 59
1, 18336, Control_c, 0, 64, 75
1, 18336, Control_c, 0, 67, 110
1, 18351, Control_c, 0, 64, 73
1, 18351, Control_c, 0, 67, 127
1, 18374, Control_c, 0, 64, 70
1, 18389, Control_c, 0, 64, 67
1, 18403, Control_c, 0, 64, 64
1, 18418, Control_c, 0, 64, 61
1, 18433, Control_c, 0, 64, 59
1, 18448, Control_c, 0, 64, 57
1, 18463, Control_c, 0, 64, 55
1, 18477, Control_c, 0, 64, 53
1, 18492, Control_c, 0, 64, 49
1, 18507, Control_c, 0, 64, 43
1, 18521, Note_on_c, 0, 82, 59
1, 18522, Control_c, 0, 64, 30
1, 18537, Control_c, 0, 64, 0
1, 18539, Note_off_c, 0, 83, 38
1, 18540, Note_on_c, 0, 68, 42
1, 18566, Note_on_c, 0, 66, 51
1, 18579, Note_on_c, 0, 61, 45
1, 18758, Control_c, 0, 64, 39
1, 18773, Control_c, 0, 64, 56
1, 18788, Control_c, 0, 64, 65
1, 18802, Control_c, 0, 64, 70
1, 18817, Control_c, 0, 64, 74
1, 18832, Control_c, 0, 64, 78
1, 18841, Note_off_c, 0, 66, 57
1, 18847, Control_c, 0, 64, 82
1, 18862, Control_c, 0, 64, 90
1, 18873, Note_off_c, 0, 61, 55
1, 18876, Control_c, 0, 64, 100
1, 18889, Note_on_c, 0, 62, 47
1, 18891, Control_c, 0, 64, 114
1, 18894, Note_on_c, 0, 56, 43
1, 18906, Control_c, 0, 64, 127
1, 18936, Note_off_c, 0, 62, 62
1, 18980, Note_off_c, 0, 56, 59
1, 19094, Note_off_c, 0, 68, 42
1, 19206, Note_on_c, 0, 50, 38
1, 19217, Note_off_c, 0, 82, 47
1, 19255, Poly_aftertouch_c, 0, 48, 127
1, 19301, Poly_aftertouch_c, 0, 48, 0
1, 19438, Note_on_c, 0, 40, 45
1, 19454, Note_off_c, 0, 50, 34
1, 19649, Note_off_c, 0, 40, 38
1, 19687, Note_on_c, 0, 35, 35
1, 19919, Note_off_c, 0, 35, 40
1, 19988, Note_on_c, 0, 36, 93
1, 19989, Control_c, 0, 64, 66
1, 20004, Control_c, 0, 64, 0
1, 20034, Control_c, 0, 67, 86
1, 20048, Control_c, 0, 67, 0
1, 20063, Control_c, 0, 64, 38
1, 20071, Note_on_c, 0, 42, 87
1, 20078, Control_c, 0, 64, 85
1, 20093, Control_c, 0, 64, 127
1, 20097, Note_off_c, 0, 42, 68
1, 20107, Note_off_c, 0, 36, 61
1, 20251, Note_on_c, 0, 63, 95
1, 20258, Note_on_c, 0, 52, 66
1, 20259, Note_on_c, 0, 58, 88
1, 20283, Note_off_c, 0, 58, 69
1, 20289, Note_off_c, 0, 63, 66
1, 20319, Note_off_c, 0, 52, 62
1, 20375, Note_on_c, 0, 94, 96
1, 20382, Note_on_c, 0, 80, 83
1, 20405, Note_off_c, 0, 80, 68
1, 20408, Note_on_c, 0, 92, 45
1, 20415, Note_off_c, 0, 94, 66
1, 20434, Note_off_c, 0, 92, 58
1, 20465, Note_on_c, 0, 94, 92
1, 20469, Note_on_c, 0, 80, 90
1, 20484, Note_on_c, 0, 62, 70
1, 20491, Note_on_c, 0, 52, 12
1, 20499, Note_off_c, 0, 94, 70
1, 20506, Note_off_c, 0, 80, 62
1, 20512, Note_off_c, 0, 62, 67
1, 20529, Note_off_c, 0, 52, 53
1, 20531, Note_on_c, 0, 68, 84
1, 20554, Note_off_c, 0, 68, 69
1, 20572, Note_on_c, 0, 88, 100
1, 20572, Poly_aftertouch_c, 0, 53, 127
1, 20583, Note_on_c, 0, 74, 85
1, 20599, Poly_aftertouch_c, 0, 53, 0
1, 20666, Note_off_c, 0, 74, 60
1, 20732, Note_off_c, 0, 88, 65
1, 20762, Note_on_c, 0, 87, 89
1, 20766, Note_on_c, 0, 73, 84
1, 20787, Note_off_c, 0, 73, 69
1, 20794, Note_off_c, 0, 87, 63
1, 20842, Control_c, 0, 64, 97
1, 20842, Control_c, 0, 67, 19
1, 20857, Control_c, 0, 64, 66
1, 20857, Control_c, 0, 67, 23
1, 20871, Control_c, 0, 64, 0
1, 20871, Control_c, 0, 67, 27
1, 20876, Note_on_c, 0, 63, 67
1, 20883, Note_on_c, 0, 58, 55
1, 20886, Control_c, 0, 67, 31
1, 20890, Note_on_c, 0, 52, 44
1, 20901, Control_c, 0, 67, 36
1, 20909, Note_off_c, 0, 63, 60
1, 20915, Control_c, 0, 67, 41
1, 20930, Control_c, 0, 67, 47
1, 20945, Control_c, 0, 67, 56
1, 20960, Control_c, 0, 67, 67
1, 20973, Note_on_c, 0, 82, 87
1, 20975, Control_c, 0, 67, 80
1, 20982, Note_on_c, 0, 68, 74
1, 20989, Control_c, 0, 67, 89
1, 21004, Note_off_c, 0, 68, 70
1, 21004, Control_c, 0, 67, 98
1, 21005, Note_off_c, 0, 82, 60
1, 21019, Control_c, 0, 67, 106
1, 21034, Control_c, 0, 64, 35
1, 21034, Control_c, 0, 67, 114
1, 21041, Note_on_c, 0, 62, 62
1, 21049, Control_c, 0, 64, 47
1, 21049, Control_c, 0, 67, 122
1, 21059, Note_off_c, 0, 52, 43
1, 21064, Control_c, 0, 64, 56
1, 21064, Control_c, 0, 67, 127
1, 21065, Note_on_c, 0, 82, 75
1, 21076, Note_on_c, 0, 68, 73
1, 21079, Control_c, 0, 64, 61
1, 21079, Note_off_c, 0, 62, 65
1, 21085, Note_off_c, 0, 82, 70
1, 21091, Note_off_c, 0, 58, 64
1, 21094, Control_c, 0, 64, 63
1, 21095, Note_off_c, 0, 68, 68
1, 21109, Control_c, 0, 64, 62
1, 21124, Control_c, 0, 64, 60
1, 21138, Control_c, 0, 64, 54
1, 21153, Control_c, 0, 64, 47
1, 21168, Control_c, 0, 64, 39
1, 21172, Note_on_c, 0, 76, 77
1, 21182, Control_c, 0, 64, 0
1, 21186, Note_on_c, 0, 62, 63
1, 21256, Control_c, 0, 64, 33
1, 21271, Control_c, 0, 64, 53
1, 21283, Note_off_c, 0, 62, 57
1, 21285, Note_off_c, 0, 76, 63
1, 21286, Control_c, 0, 64, 63
1, 21301, Control_c, 0, 64, 66
1, 21315, Control_c, 0, 64, 69
1, 21330, Control_c, 0, 64, 72
1, 21345, Control_c, 0, 64, 74
1, 21368, Control_c, 0, 64, 76
1, 21378, Note_on_c, 0, 77, 43
1, 21383, Control_c, 0, 64, 76
1, 21395, Note_on_c, 0, 62, 39
1, 21397, Control_c, 0, 64, 76
1, 21412, Control_c, 0, 64, 74
1, 21413, Note_off_c, 0, 77, 48
1, 21424, Note_off_c, 0, 62, 48
1, 21427, Control_c, 0, 64, 68
1, 21442, Control_c, 0, 64, 60
1, 21457, Control_c, 0, 64, 45
1, 21471, Control_c, 0, 64, 0
1, 21499, Note_on_c, 0, 62, 67
1, 21499, Note_on_c, 0, 48, 27
1, 21514, Note_on_c, 0, 76, 58
1, 21526, Note_on_c, 0, 58, 48
1, 21527, Note_on_c, 0, 54, 39
1, 21528, Note_off_c, 0, 62, 66
1, 21535, Note_off_c, 0, 76, 64
1, 21546, Control_c, 0, 64, 30
1, 21556, Note_off_c, 0, 54, 59
1, 21561, Control_c, 0, 64, 46
1, 21576, Control_c, 0, 64, 58
1, 21577, Note_off_c, 0, 58, 60
1, 21592, Control_c, 0, 64, 63
1, 21606, Control_c, 0, 64, 65
1, 21621, Control_c, 0, 64, 66
1, 21636, Control_c, 0, 64, 66
1, 21647, Note_on_c, 0, 77, 60
1, 21650, Note_on_c, 0, 63, 56
1, 21651, Control_c, 0, 64, 67
1, 21678, Note_off_c, 0, 77, 61
1, 21683, Note_off_c, 0, 63, 64
1, 21710, Control_c, 0, 64, 66
1, 21725, Control_c, 0, 64, 63
1, 21736, Note_on_c, 0, 78, 71
1, 21738, Note_on_c, 0, 64, 50
1, 21739, Control_c, 0, 64, 56
1, 21754, Control_c, 0, 64, 39
1, 21759, Note_off_c, 0, 64, 58
1, 21765, Note_off_c, 0, 78, 65
1, 21769, Control_c, 0, 64, 0
1, 21822, Note_on_c, 0, 79, 83
1, 21830, Note_on_c, 0, 65, 64
1, 21834, Note_on_c, 0, 61, 76
1, 21839, Note_on_c, 0, 51, 59
1, 21850, Note_off_c, 0, 65, 64
1, 21851, Note_off_c, 0, 79, 61
1, 21858, Control_c, 0, 64, 53
1, 21863, Note_on_c, 0, 57, 40
1, 21873, Control_c, 0, 64, 75
1, 21887, Control_c, 0, 64, 107
1, 21902, Control_c, 0, 64, 127
1, 21908, Note_off_c, 0, 57, 0
1, 21908, Note_on_c, 0, 57, 25
1, 21908, Note_on_c, 0, 80, 88
1, 21914, Note_off_c, 0, 61, 58
1, 21924, Note_on_c, 0, 66, 60
1, 21940, Note_off_c, 0, 48, 40
1, 21942, Note_off_c, 0, 66, 63
1, 21952, Note_off_c, 0, 80, 65
1, 21976, Control_c, 0, 64, 93
1, 21977, Note_off_c, 0, 51, 53
1, 21987, Note_on_c, 0, 81, 87
1, 21991, Control_c, 0, 64, 63
1, 21995, Note_on_c, 0, 67, 64
1, 22006, Control_c, 0, 64, 0
1, 22012, Note_off_c, 0, 67, 66
1, 22035, Note_off_c, 0, 81, 65
1, 22051, Control_c, 0, 64, 36
1, 22060, Note_on_c, 0, 64, 77
1, 22066, Control_c, 0, 64, 71
1, 22066, Control_c, 0, 67, 124
1, 22075, Note_on_c, 0, 68, 80
1, 22075, Note_on_c, 0, 82, 91
1, 22077, Note_on_c, 0, 48, 61
1, 22080, Control_c, 0, 64, 127
1, 22080, Control_c, 0, 67, 120
1, 22083, Note_on_c, 0, 54, 76
1, 22086, Note_off_c, 0, 57, 59
1, 22088, Note_off_c, 0, 64, 64
1, 22095, Control_c, 0, 67, 115
1, 22102, Note_off_c, 0, 48, 66
1, 22107, Note_off_c, 0, 54, 66
1, 22116, Note_off_c, 0, 82, 67
1, 22117, Control_c, 0, 67, 105
1, 22118, Note_off_c, 0, 68, 63
1, 22132, Control_c, 0, 64, 73
1, 22132, Control_c, 0, 67, 90
1, 22146, Control_c, 0, 64, 0
1, 22146, Control_c, 0, 67, 72
1, 22161, Control_c, 0, 67, 56
1, 22165, Note_on_c, 0, 83, 92
1, 22170, Note_on_c, 0, 69, 79
1, 22176, Control_c, 0, 64, 39
1, 22176, Control_c, 0, 67, 44
1, 22191, Note_off_c, 0, 69, 70
1, 22191, Control_c, 0, 64, 58
1, 22191, Control_c, 0, 67, 35
1, 22206, Control_c, 0, 64, 69
1, 22206, Control_c, 0, 67, 28
1, 22212, Note_on_c, 0, 45, 44
1, 22212, Note_off_c, 0, 83, 62
1, 22219, Note_on_c, 0, 51, 59
1, 22221, Control_c, 0, 64, 70
1, 22221, Control_c, 0, 67, 20
1, 22232, Note_on_c, 0, 61, 81
1, 22235, Control_c, 0, 64, 69
1, 22235, Control_c, 0, 67, 0
1, 22243, Note_off_c, 0, 45, 54
1, 22246, Note_on_c, 0, 84, 83
1, 22248, Note_off_c, 0, 51, 64
1, 22250, Control_c, 0, 64, 68
1, 22261, Note_on_c, 0, 70, 78
1, 22265, Note_off_c, 0, 61, 60
1, 22285, Note_off_c, 0, 70, 68
1, 22287, Note_off_c, 0, 84, 67
1, 22296, Control_c, 0, 64, 67
1, 22310, Note_on_c, 0, 67, 88
1, 22310, Control_c, 0, 64, 67
1, 22325, Control_c, 0, 64, 67
1, 22328, Note_on_c, 0, 85, 92
1, 22335, Note_on_c, 0, 71, 81
1, 22335, Note_off_c, 0, 67, 66
1, 22340, Control_c, 0, 64, 68
1, 22354, Note_off_c, 0, 71, 72
1, 22355, Control_c, 0, 64, 70
1, 22368, Note_off_c, 0, 85, 67
1, 22369, Control_c, 0, 64, 70
1, 22414, Control_c, 0, 64, 71
1, 22419, Note_on_c, 0, 86, 95
1, 22429, Control_c, 0, 64, 73
1, 22434, Note_on_c, 0, 72, 72
1, 22443, Control_c, 0, 64, 73
1, 22451, Note_off_c, 0, 72, 67
1, 22496, Note_off_c, 0, 86, 41
1, 22499, Note_on_c, 0, 87, 98
1, 22503, Control_c, 0, 64, 74
1, 22510, Note_on_c, 0, 73, 81
1, 22517, Control_c, 0, 64, 75
1, 22531, Note_off_c, 0, 73, 71
1, 22532, Control_c, 0, 64, 75
1, 22536, Note_off_c, 0, 87, 67
1, 22606, Control_c, 0, 64, 75
1, 22621, Control_c, 0, 64, 74
1, 22635, Control_c, 0, 64, 74
1, 22635, Control_c, 0, 67, 19
1, 22650, Control_c, 0, 67, 22
1, 22665, Control_c, 0, 64, 73
1, 22665, Control_c, 0, 67, 26
1, 22680, Control_c, 0, 64, 73
1, 22680, Control_c, 0, 67, 29
1, 22695, Control_c, 0, 67, 34
1, 22709, Control_c, 0, 64, 72
1, 22709, Control_c, 0, 67, 38
1, 22724, Control_c, 0, 64, 71
1, 22724, Control_c, 0, 67, 44
1, 22739, Control_c, 0, 64, 71
1, 22739, Control_c, 0, 67, 50
1, 22754, Control_c, 0, 64, 70
1, 22754, Control_c, 0, 67, 57
1, 22769, Control_c, 0, 64, 69
1, 22769, Control_c, 0, 67, 65
1, 22784, Control_c, 0, 64, 69
1, 22784, Control_c, 0, 67, 74
1, 22799, Control_c, 0, 67, 85
1, 22814, Control_c, 0, 64, 68
1, 22814, Control_c, 0, 67, 96
1, 22829, Control_c, 0, 67, 107
1, 22843, Control_c, 0, 64, 68
1, 22843, Control_c, 0, 67, 117
1, 22865, Control_c, 0, 64, 67
1, 22865, Control_c, 0, 67, 126
1, 22880, Control_c, 0, 64, 66
1, 22894, Control_c, 0, 64, 66
1, 22909, Control_c, 0, 64, 65
1, 22924, Control_c, 0, 64, 64
1, 22939, Control_c, 0, 64, 63
1, 22954, Control_c, 0, 64, 61
1, 22969, Control_c, 0, 64, 60
1, 22984, Control_c, 0, 64, 59
1, 22999, Control_c, 0, 64, 59
1, 23000, Note_on_c, 0, 30, 53
1, 23013, Control_c, 0, 64, 58
1, 23028, Control_c, 0, 64, 56
1, 23043, Control_c, 0, 64, 53
1, 23058, Control_c, 0, 64, 50
1, 23073, Control_c, 0, 64, 48
1, 23088, Control_c, 0, 64, 48
1, 23103, Control_c, 0, 64, 43
1, 23118, Control_c, 0, 64, 0
1, 23473, Control_c, 0, 64, 42
1, 23488, Control_c, 0, 64, 57
1, 23503, Control_c, 0, 64, 64
1, 23517, Control_c, 0, 64, 70
1, 23532, Control_c, 0, 64, 76
1, 23547, Control_c, 0, 64, 82
1, 23562, Control_c, 0, 64, 86
1, 23577, Control_c, 0, 64, 92
1, 23592, Control_c, 0, 64, 99
1, 23614, Control_c, 0, 64, 114
1, 23622, Note_on_c, 0, 42, 32
1, 23629, Control_c, 0, 64, 127
1, 23631, Note_off_c, 0, 30, 35
1, 23701, Note_off_c, 0, 42, 53
1, 23721, Note_on_c, 0, 88, 75
1, 23745, Note_on_c, 0, 74, 52
1, 23839, Note_off_c, 0, 74, 60
1, 23844, Note_off_c, 0, 88, 64
1, 24158, Note_on_c, 0, 52, 27
1, 24190, Note_on_c, 0, 81, 64
1, 24233, Note_on_c, 0, 67, 38
1, 24327, Note_off_c, 0, 67, 62
1, 24445, Note_off_c, 0, 81, 63
1, 24466, Note_on_c, 0, 82, 65
1, 24468, Note_on_c, 0, 58, 34
1, 24496, Note_on_c, 0, 68, 40
1, 24531, Note_off_c, 0, 68, 56
1, 24537, Note_off_c, 0, 82, 62
1, 24581, Note_off_c, 0, 58, 52
1, 24584, Note_off_c, 0, 52, 26
1, 24656, Note_on_c, 0, 58, 36
1, 24750, Note_on_c, 0, 76, 62
1, 24775, Note_on_c, 0, 62, 45
1, 24832, Note_off_c, 0, 62, 59
1, 24856, Note_off_c, 0, 58, 41
1, 24922, Note_off_c, 0, 76, 62
1, 24948, Note_on_c, 0, 52, 34
1, 24995, Note_off_c, 0, 52, 60
1, 25090, Note_on_c, 0, 68, 54
1, 25134, Note_off_c, 0, 68, 63
1, 25201, Control_c, 0, 67, 122
1, 25216, Control_c, 0, 67, 117
1, 25219, Note_on_c, 0, 77, 67
1, 25231, Control_c, 0, 67, 113
1, 25246, Control_c, 0, 67, 110
1, 25260, Note_on_c, 0, 63, 47
1, 25261, Control_c, 0, 67, 108
1, 25276, Control_c, 0, 67, 105
1, 25290, Control_c, 0, 67, 101
1, 25295, Note_off_c, 0, 63, 63
1, 25305, Control_c, 0, 67, 98
1, 25320, Control_c, 0, 67, 95
1, 25335, Control_c, 0, 67, 93
1, 25350, Control_c, 0, 67, 92
1, 25398, Note_on_c, 0, 78, 71
1, 25404, Note_off_c, 0, 77, 54
1, 25409, Control_c, 0, 67, 92
1, 25431, Note_on_c, 0, 64, 35
1, 25461, Note_off_c, 0, 64, 53
1, 25476, Note_on_c, 0, 63, 82
1, 25484, Control_c, 0, 67, 91
1, 25513, Control_c, 0, 67, 90
1, 25514, Note_on_c, 0, 48, 49
1, 25528, Control_c, 0, 67, 87
1, 25543, Control_c, 0, 67, 81
1, 25556, Note_off_c, 0, 78, 59
1, 25558, Control_c, 0, 67, 72
1, 25573, Control_c, 0, 67, 62
1, 25587, Control_c, 0, 67, 52
1, 25602, Control_c, 0, 67, 43
1, 25617, Control_c, 0, 67, 38
1, 25632, Control_c, 0, 67, 36
1, 25647, Control_c, 0, 67, 35
1, 25720, Control_c, 0, 67, 35
1, 25721, Note_off_c, 0, 63, 61
1, 25795, Control_c, 0, 67, 34
1, 25810, Control_c, 0, 67, 33
1, 25824, Control_c, 0, 67, 29
1, 25839, Control_c, 0, 67, 0
1, 25855, Note_off_c, 0, 48, 37
1, 25856, Note_on_c, 0, 52, 42
1, 26009, Note_off_c, 0, 52, 59
1, 26051, Note_on_c, 0, 58, 44
1, 26236, Note_off_c, 0, 58, 35
1, 26253, Note_on_c, 0, 42, 41
1, 26428, Note_on_c, 0, 52, 41
1, 26454, Control_c, 0, 67, 19
1, 26466, Note_off_c, 0, 42, 41
1, 26484, Control_c, 0, 67, 22
1, 26556, Note_on_c, 0, 58, 40
1, 26616, Note_off_c, 0, 52, 56
1, 26623, Note_off_c, 0, 58, 58
1, 26660, Note_on_c, 0, 63, 67
1, 26733, Note_off_c, 0, 63, 61
1, 26802, Note_on_c, 0, 63, 55
1, 26862, Note_off_c, 0, 63, 62
1, 27213, Note_on_c, 0, 24, 49
1, 27227, Note_on_c, 0, 36, 38
1, 27279, Note_off_c, 0, 36, 59
1, 27289, Note_off_c, 0, 24, 59
1, 27616, Note_on_c, 0, 46, 51
1, 27813, Note_on_c, 0, 52, 40
1, 27869, Note_on_c, 0, 78, 71
1, 27883, Note_on_c, 0, 64, 53
1, 27902, Note_off_c, 0, 46, 43
1, 27908, Control_c, 0, 67, 20
1, 27925, Note_off_c, 0, 64, 61
1, 27961, Note_off_c, 0, 52, 34
1, 27967, Note_on_c, 0, 56, 56
1, 27972, Note_off_c, 0, 78, 62
1, 27998, Note_off_c, 0, 56, 63
1, 28200, Note_on_c, 0, 63, 38
1, 28207, Note_on_c, 0, 84, 77
1, 28228, Note_on_c, 0, 70, 65
1, 28256, Note_off_c, 0, 70, 67
1, 28295, Note_off_c, 0, 84, 61
1, 28377, Note_off_c, 0, 63, 22
1, 28611, Note_on_c, 0, 63, 73
1, 28703, Note_off_c, 0, 63, 58
1, 29472, Note_on_c, 0, 63, 52
1, 29708, Note_off_c, 0, 63, 36
1, 29858, Control_c, 0, 67, 22
1, 29947, Control_c, 0, 67, 24
1, 30006, Control_c, 0, 67, 26
1, 30036, Control_c, 0, 67, 28
1, 30051, Control_c, 0, 67, 33
1, 30066, Control_c, 0, 67, 38
1, 30080, Control_c, 0, 67, 42
1, 30095, Control_c, 0, 67, 46
1, 30110, Control_c, 0, 67, 51
1, 30125, Control_c, 0, 67, 56
1, 30140, Control_c, 0, 67, 62
1, 30154, Control_c, 0, 67, 68
1, 30169, Control_c, 0, 67, 74
1, 30184, Control_c, 0, 67, 78
1, 30198, Control_c, 0, 67, 82
1, 30213, Control_c, 0, 67, 85
1, 30221, Note_on_c, 0, 63, 44
1, 30228, Control_c, 0, 67, 89
1, 30243, Control_c, 0, 67, 93
1, 30258, Control_c, 0, 67, 96
1, 30289, Control_c, 0, 64, 113
1, 30289, Control_c, 0, 67, 98
1, 30303, Control_c, 0, 64, 103
1, 30318, Control_c, 0, 64, 94
1, 30333, Control_c, 0, 64, 87
1, 30355, Control_c, 0, 64, 80
1, 30370, Control_c, 0, 64, 74
1, 30385, Control_c, 0, 64, 69
1, 30400, Control_c, 0, 64, 64
1, 30415, Control_c, 0, 64, 60
1, 30429, Note_on_c, 0, 68, 59
1, 30429, Control_c, 0, 64, 56
1, 30444, Control_c, 0, 64, 53
1, 30459, Control_c, 0, 64, 49
1, 30468, Note_off_c, 0, 63, 57
1, 30474, Control_c, 0, 64, 43
1, 30489, Control_c, 0, 64, 35
1, 30503, Control_c, 0, 64, 0
1, 30740, Control_c, 0, 64, 35
1, 30755, Control_c, 0, 64, 50
1, 30770, Control_c, 0, 64, 59
1, 30777, Note_on_c, 0, 42, 31
1, 30784, Control_c, 0, 64, 64
1, 30799, Control_c, 0, 64, 69
1, 30814, Control_c, 0, 64, 74
1, 30828, Control_c, 0, 64, 81
1, 30828, Control_c, 0, 67, 96
1, 30839, Note_off_c, 0, 68, 54
1, 30843, Control_c, 0, 64, 89
1, 30858, Control_c, 0, 64, 101
1, 30873, Control_c, 0, 64, 127
1, 30873, Control_c, 0, 67, 96
1, 30946, Control_c, 0, 67, 95
1, 30976, Control_c, 0, 67, 95
1, 30991, Control_c, 0, 67, 94
1, 31050, Control_c, 0, 67, 94
1, 31067, Note_on_c, 0, 52, 39
1, 31070, Note_off_c, 0, 42, 44
1, 31104, Control_c, 0, 67, 93
1, 31209, Note_on_c, 0, 58, 37
1, 31259, Note_off_c, 0, 58, 60
1, 31261, Note_off_c, 0, 52, 27
1, 31294, Note_on_c, 0, 84, 72
1, 31296, Control_c, 0, 67, 93
1, 31323, Note_on_c, 0, 70, 52
1, 31352, Note_off_c, 0, 70, 63
1, 31354, Note_off_c, 0, 84, 66
1, 31457, Note_on_c, 0, 58, 37
1, 31499, Note_off_c, 0, 58, 50
1, 31596, Note_on_c, 0, 76, 71
1, 31601, Poly_aftertouch_c, 0, 58, 127
1, 31618, Note_on_c, 0, 62, 48
1, 31654, Poly_aftertouch_c, 0, 58, 0
1, 31749, Note_on_c, 0, 52, 42
1, 31770, Control_c, 0, 67, 92
1, 31785, Note_off_c, 0, 52, 54
1, 31902, Note_on_c, 0, 68, 77
1, 31986, Control_c, 0, 67, 92
1, 32015, Note_off_c, 0, 62, 48
1, 32028, Note_off_c, 0, 76, 59
1, 32031, Control_c, 0, 67, 91
1, 32061, Control_c, 0, 67, 91
1, 32075, Control_c, 0, 67, 90
1, 32126, Note_on_c, 0, 42, 38
1, 32164, Control_c, 0, 67, 90
1, 32199, Note_off_c, 0, 42, 61
1, 32245, Note_on_c, 0, 52, 52
1, 32253, Control_c, 0, 67, 89
1, 32301, Note_off_c, 0, 52, 52
1, 32327, Control_c, 0, 67, 89
1, 32336, Note_on_c, 0, 58, 59
1, 32356, Control_c, 0, 67, 88
1, 32361, Note_off_c, 0, 58, 65
1, 32414, Note_on_c, 0, 77, 77
1, 32415, Control_c, 0, 67, 88
1, 32436, Note_on_c, 0, 63, 58
1, 32445, Control_c, 0, 67, 87
1, 32451, Note_off_c, 0, 68, 39
1, 32475, Control_c, 0, 67, 86
1, 32490, Control_c, 0, 67, 85
1, 32505, Control_c, 0, 67, 84
1, 32520, Control_c, 0, 67, 83
1, 32534, Control_c, 0, 67, 82
1, 32535, Note_off_c, 0, 63, 57
1, 32549, Control_c, 0, 67, 81
1, 32564, Control_c, 0, 67, 80
1, 32569, Note_on_c, 0, 58, 82
1, 32579, Control_c, 0, 67, 74
1, 32600, Control_c, 0, 67, 70
1, 32615, Control_c, 0, 67, 67
1, 32630, Control_c, 0, 67, 65
1, 32645, Control_c, 0, 67, 62
1, 32660, Control_c, 0, 67, 56
1, 32672, Note_off_c, 0, 58, 66
1, 32676, Control_c, 0, 67, 48
1, 32691, Control_c, 0, 67, 38
1, 32705, Control_c, 0, 67, 30
1, 32720, Control_c, 0, 67, 22
1, 32735, Control_c, 0, 67, 0
1, 32922, Note_on_c, 0, 78, 63
1, 32961, Note_on_c, 0, 64, 41
1, 32983, Note_off_c, 0, 77, 60
1, 32999, Note_on_c, 0, 63, 73
1, 33036, Note_on_c, 0, 52, 36
1, 33066, Note_off_c, 0, 64, 50
1, 33152, Note_off_c, 0, 63, 60
1, 33196, Note_off_c, 0, 52, 31
1, 33275, Note_off_c, 0, 78, 33
1, 33314, Note_on_c, 0, 62, 74
1, 33366, Note_off_c, 0, 62, 61
1, 33497, Control_c, 0, 67, 19
1, 33542, Control_c, 0, 67, 21
1, 33572, Note_on_c, 0, 79, 71
1, 33600, Note_on_c, 0, 65, 50
1, 33601, Control_c, 0, 64, 109
1, 33616, Control_c, 0, 64, 100
1, 33620, Note_on_c, 0, 61, 68
1, 33631, Control_c, 0, 64, 94
1, 33645, Control_c, 0, 64, 88
1, 33660, Control_c, 0, 64, 79
1, 33675, Control_c, 0, 64, 69
1, 33690, Control_c, 0, 64, 55
1, 33705, Control_c, 0, 64, 0
1, 34008, Note_on_c, 0, 45, 42
1, 34112, Control_c, 0, 64, 40
1, 34126, Control_c, 0, 64, 51
1, 34141, Control_c, 0, 64, 59
1, 34156, Control_c, 0, 64, 63
1, 34171, Control_c, 0, 64, 65
1, 34186, Control_c, 0, 64, 68
1, 34201, Control_c, 0, 64, 71
1, 34216, Control_c, 0, 64, 75
1, 34228, Note_off_c, 0, 45, 40
1, 34231, Control_c, 0, 64, 81
1, 34244, Note_on_c, 0, 55, 44
1, 34245, Control_c, 0, 64, 86
1, 34260, Control_c, 0, 64, 91
1, 34275, Control_c, 0, 64, 96
1, 34290, Control_c, 0, 64, 100
1, 34305, Control_c, 0, 64, 103
1, 34309, Note_off_c, 0, 61, 57
1, 34321, Control_c, 0, 64, 106
1, 34328, Note_off_c, 0, 55, 51
1, 34336, Control_c, 0, 64, 109
1, 34350, Control_c, 0, 64, 111
1, 34365, Control_c, 0, 64, 113
1, 34380, Control_c, 0, 64, 117
1, 34382, Note_on_c, 0, 61, 53
1, 34395, Control_c, 0, 64, 127
1, 34429, Note_off_c, 0, 61, 60
1, 34438, Note_off_c, 0, 65, 0
1, 34475, Poly_aftertouch_c, 0, 65, 127
1, 34507, Note_on_c, 0, 61, 52
1, 34528, Poly_aftertouch_c, 0, 65, 0
1, 34563, Note_off_c, 0, 61, 51
1, 34621, Note_on_c, 0, 55, 45
1, 34647, Note_off_c, 0, 55, 59
1, 34719, Note_off_c, 0, 79, 39
1, 34778, Note_on_c, 0, 71, 47
1, 34803, Note_off_c, 0, 71, 56
1, 34923, Note_on_c, 0, 39, 37
1, 34996, Note_off_c, 0, 39, 56
1, 34999, Note_on_c, 0, 85, 77
1, 35021, Note_on_c, 0, 71, 51
1, 35056, Note_off_c, 0, 71, 54
1, 35077, Note_off_c, 0, 85, 66
1, 35159, Control_c, 0, 67, 19
1, 35168, Note_on_c, 0, 45, 12
1, 35188, Control_c, 0, 67, 0
1, 35229, Note_off_c, 0, 45, 44
1, 35296, Note_on_c, 0, 55, 45
1, 35334, Note_off_c, 0, 55, 61
1, 35453, Note_on_c, 0, 86, 71
1, 35460, Note_on_c, 0, 72, 66
1, 35515, Note_off_c, 0, 86, 60
1, 35520, Note_off_c, 0, 72, 61
1, 35671, Note_on_c, 0, 67, 42
1, 35916, Note_off_c, 0, 67, 39
1, 35951, Note_on_c, 0, 60, 46
1, 35955, Note_on_c, 0, 87, 61
1, 35961, Note_on_c, 0, 73, 54
1, 35971, Note_on_c, 0, 61, 36
1, 36036, Note_off_c, 0, 73, 61
1, 36058, Note_off_c, 0, 87, 63
1, 36090, Note_off_c, 0, 61, 50
1, 36286, Note_off_c, 0, 60, 51
1, 36320, Note_on_c, 0, 59, 48
1, 36343, Note_on_c, 0, 67, 47
1, 36413, Note_off_c, 0, 67, 61
1, 36574, Note_off_c, 0, 59, 58
1, 36690, Note_on_c, 0, 58, 57
1, 36776, Control_c, 0, 67, 19
1, 36850, Control_c, 0, 64, 98
1, 36864, Control_c, 0, 64, 84
1, 36879, Control_c, 0, 64, 72
1, 36879, Control_c, 0, 67, 21
1, 36894, Control_c, 0, 64, 64
1, 36908, Control_c, 0, 64, 53
1, 36923, Control_c, 0, 64, 0
1, 36923, Control_c, 0, 67, 24
1, 36968, Control_c, 0, 67, 27
1, 36994, Note_on_c, 0, 42, 34
1, 36997, Control_c, 0, 67, 30
1, 37012, Control_c, 0, 67, 32
1, 37027, Control_c, 0, 67, 33
1, 37042, Control_c, 0, 67, 34
1, 37057, Control_c, 0, 67, 36
1, 37071, Control_c, 0, 67, 38
1, 37094, Control_c, 0, 67, 40
1, 37109, Control_c, 0, 67, 41
1, 37113, Note_on_c, 0, 88, 72
1, 37123, Control_c, 0, 67, 44
1, 37138, Control_c, 0, 67, 46
1, 37153, Control_c, 0, 67, 49
1, 37158, Note_on_c, 0, 74, 23
1, 37168, Control_c, 0, 67, 52
1, 37183, Control_c, 0, 67, 54
1, 37197, Control_c, 0, 64, 41
1, 37197, Control_c, 0, 67, 54
1, 37212, Control_c, 0, 64, 57
1, 37227, Control_c, 0, 64, 64
1, 37231, Note_off_c, 0, 88, 65
1, 37238, Note_off_c, 0, 74, 49
1, 37242, Control_c, 0, 64, 69
1, 37257, Control_c, 0, 64, 76
1, 37257, Control_c, 0, 67, 55
1, 37271, Control_c, 0, 64, 84
1, 37286, Control_c, 0, 64, 89
1, 37301, Control_c, 0, 64, 91
1, 37315, Control_c, 0, 64, 93
1, 37330, Control_c, 0, 64, 94
1, 37345, Control_c, 0, 64, 95
1, 37349, Note_on_c, 0, 52, 35
1, 37375, Control_c, 0, 67, 54
1, 37376, Note_on_c, 0, 81, 69
1, 37389, Control_c, 0, 64, 97
1, 37423, Note_off_c, 0, 58, 37
1, 37449, Control_c, 0, 67, 54
1, 37477, Poly_aftertouch_c, 0, 67, 0
1, 37480, Control_c, 0, 67, 53
1, 37487, Note_off_c, 0, 42, 45
1, 37522, Note_off_c, 0, 81, 61
1, 37524, Control_c, 0, 64, 99
1, 37538, Control_c, 0, 64, 102
1, 37548, Note_on_c, 0, 82, 65
1, 37568, Control_c, 0, 64, 105
1, 37592, Note_off_c, 0, 82, 48
1, 37598, Control_c, 0, 64, 108
1, 37612, Control_c, 0, 64, 111
1, 37612, Control_c, 0, 67, 54
1, 37627, Control_c, 0, 64, 114
1, 37642, Control_c, 0, 64, 116
1, 37642, Control_c, 0, 67, 54
1, 37660, Note_on_c, 0, 58, 46
1, 37672, Control_c, 0, 64, 121
1, 37672, Control_c, 0, 67, 55
1, 37686, Control_c, 0, 64, 127
1, 37693, Note_off_c, 0, 52, 39
1, 37701, Control_c, 0, 67, 55
1, 37705, Note_off_c, 0, 58, 50
1, 37790, Note_on_c, 0, 76, 64
1, 37810, Note_on_c, 0, 62, 46
1, 37901, Control_c, 0, 67, 55
1, 37916, Control_c, 0, 67, 54
1, 37960, Control_c, 0, 67, 54
1, 37966, Note_on_c, 0, 52, 39
1, 37968, Note_off_c, 0, 62, 36
1, 38005, Control_c, 0, 67, 53
1, 38034, Note_off_c, 0, 76, 35
1, 38034, Control_c, 0, 67, 53
1, 38057, Note_off_c, 0, 52, 37
1, 38064, Control_c, 0, 67, 52
1, 38157, Note_on_c, 0, 68, 44
1, 38309, Note_off_c, 0, 68, 52
1, 38317, Control_c, 0, 67, 52
1, 38361, Control_c, 0, 67, 51
1, 38389, Note_on_c, 0, 77, 58
1, 38406, Control_c, 0, 67, 51
1, 38412, Note_on_c, 0, 63, 47
1, 38450, Control_c, 0, 67, 50
1, 38460, Note_off_c, 0, 63, 60
1, 38495, Control_c, 0, 67, 50
1, 38520, Note_on_c, 0, 78, 70
1, 38524, Control_c, 0, 67, 49
1, 38525, Note_off_c, 0, 77, 54
1, 38562, Note_on_c, 0, 64, 15
1, 38619, Note_on_c, 0, 63, 81
1, 38623, Note_off_c, 0, 64, 44
1, 38645, Note_on_c, 0, 48, 55
1, 38650, Control_c, 0, 67, 49
1, 38739, Control_c, 0, 67, 48
1, 38765, Note_off_c, 0, 63, 62
1, 38783, Control_c, 0, 67, 48
1, 38828, Control_c, 0, 67, 47
1, 38842, Note_off_c, 0, 78, 62
1, 38914, Note_off_c, 0, 48, 37
1, 38922, Note_on_c, 0, 52, 59
1, 38946, Control_c, 0, 67, 48
1, 38991, Control_c, 0, 67, 48
1, 39021, Control_c, 0, 67, 49
1, 39030, Note_off_c, 0, 52, 61
1, 39035, Control_c, 0, 67, 49
1, 39105, Note_on_c, 0, 58, 52
1, 39110, Control_c, 0, 67, 50
1, 39214, Control_c, 0, 67, 50
1, 39215, Note_off_c, 0, 58, 38
1, 39250, Note_on_c, 0, 42, 49
1, 39340, Control_c, 0, 67, 50
1, 39355, Control_c, 0, 67, 49
1, 39385, Control_c, 0, 67, 49
1, 39391, Note_off_c, 0, 42, 62
1, 39399, Control_c, 0, 67, 48
1, 39411, Note_on_c, 0, 52, 46
1, 39414, Control_c, 0, 67, 48
1, 39444, Control_c, 0, 67, 47
1, 39508, Note_on_c, 0, 58, 43
1, 39567, Note_off_c, 0, 52, 45
1, 39572, Note_off_c, 0, 58, 58
1, 39683, Note_on_c, 0, 63, 69
1, 39743, Note_off_c, 0, 63, 61
1, 39805, Note_on_c, 0, 63, 61
1, 39865, Note_off_c, 0, 63, 56
1, 40052, Control_c, 0, 67, 48
1, 40089, Control_c, 0, 67, 48
1, 40119, Control_c, 0, 67, 49
1, 40133, Control_c, 0, 67, 49
1, 40158, Note_on_c, 0, 24, 41
1, 40160, Note_on_c, 0, 36, 15
1, 40218, Note_off_c, 0, 24, 56
1, 40258, Note_off_c, 0, 36, 36
1, 40550, Note_on_c, 0, 46, 44
1, 40809, Note_on_c, 0, 78, 58
1, 40851, Note_on_c, 0, 64, 38
1, 40906, Note_off_c, 0, 64, 50
1, 40956, Note_on_c, 0, 52, 32
1, 40995, Note_off_c, 0, 78, 61
1, 41039, Note_on_c, 0, 56, 49
1, 41040, Note_off_c, 0, 46, 46
1, 41046, Note_off_c, 0, 52, 55
1, 41072, Note_off_c, 0, 56, 58
1, 41153, Note_on_c, 0, 84, 65
1, 41182, Note_on_c, 0, 70, 49
1, 41208, Note_off_c, 0, 70, 64
1, 41241, Note_off_c, 0, 84, 62
1, 41275, Note_on_c, 0, 63, 65
1, 41347, Note_off_c, 0, 63, 58
1, 41646, Control_c, 0, 67, 50
1, 41660, Control_c, 0, 67, 50
1, 41734, Control_c, 0, 67, 51
1, 41764, Control_c, 0, 67, 51
1, 41793, Control_c, 0, 67, 52
1, 41809, Control_c, 0, 67, 52
1, 41853, Control_c, 0, 67, 53
1, 41868, Control_c, 0, 67, 53
1, 41909, Note_on_c, 0, 63, 48
1, 41957, Control_c, 0, 67, 54
1, 42198, Note_off_c, 0, 63, 35
1, 42351, Control_c, 0, 67, 53
1, 42366, Control_c, 0, 67, 53
1, 42380, Control_c, 0, 67, 52
1, 42410, Control_c, 0, 67, 52
1, 42425, Control_c, 0, 67, 51
1, 42440, Control_c, 0, 67, 51
1, 42573, Control_c, 0, 67, 51
1, 42588, Control_c, 0, 67, 52
1, 42602, Control_c, 0, 67, 52
1, 42617, Control_c, 0, 67, 53
1, 42632, Control_c, 0, 67, 53
1, 42647, Control_c, 0, 67, 54
1, 42661, Control_c, 0, 67, 55
1, 42676, Control_c, 0, 67, 56
1, 42691, Control_c, 0, 67, 57
1, 42706, Control_c, 0, 67, 57
1, 42721, Control_c, 0, 67, 58
1, 42735, Control_c, 0, 67, 65
1, 42750, Control_c, 0, 67, 79
1, 42765, Control_c, 0, 67, 94
1, 42780, Control_c, 0, 67, 108
1, 42795, Control_c, 0, 67, 114
1, 42810, Control_c, 0, 67, 120
1, 42825, Control_c, 0, 67, 127
1, 43066, Note_on_c, 0, 62, 36
1, 43159, Note_off_c, 0, 62, 49
1, 43292, Control_c, 0, 64, 115
1, 43307, Control_c, 0, 64, 107
1, 43322, Control_c, 0, 64, 102
1, 43337, Control_c, 0, 64, 97
1, 43351, Control_c, 0, 64, 89
1, 43366, Control_c, 0, 64, 81
1, 43381, Control_c, 0, 64, 73
1, 43396, Control_c, 0, 64, 66
1, 43411, Control_c, 0, 64, 59
1, 43425, Control_c, 0, 64, 53
1, 43440, Control_c, 0, 64, 49
1, 43455, Control_c, 0, 64, 45
1, 43470, Control_c, 0, 64, 44
1, 43477, Note_on_c, 0, 76, 54
1, 43484, Control_c, 0, 64, 43
1, 43497, Note_on_c, 0, 54, 39
1, 43499, Control_c, 0, 64, 42
1, 43505, Note_on_c, 0, 58, 37
1, 43507, Note_on_c, 0, 48, 25
1, 43508, Note_on_c, 0, 62, 31
1, 43514, Control_c, 0, 64, 43
1, 43529, Control_c, 0, 64, 47
1, 43539, Note_off_c, 0, 62, 55
1, 43543, Note_off_c, 0, 76, 63
1, 43544, Control_c, 0, 64, 52
1, 43558, Control_c, 0, 64, 57
1, 43573, Control_c, 0, 64, 58
1, 43588, Control_c, 0, 64, 57
1, 43603, Control_c, 0, 64, 55
1, 43617, Control_c, 0, 64, 54
1, 43632, Control_c, 0, 64, 53
1, 43662, Control_c, 0, 64, 52
1, 43682, Note_on_c, 0, 77, 57
1, 43685, Note_on_c, 0, 63, 52
1, 43692, Control_c, 0, 64, 51
1, 43693, Note_off_c, 0, 58, 56
1, 43703, Note_off_c, 0, 54, 46
1, 43707, Control_c, 0, 64, 50
1, 43713, Note_off_c, 0, 63, 60
1, 43718, Note_off_c, 0, 77, 59
1, 43722, Control_c, 0, 64, 49
1, 43737, Control_c, 0, 64, 48
1, 43751, Control_c, 0, 64, 47
1, 43766, Control_c, 0, 64, 46
1, 43781, Control_c, 0, 64, 44
1, 43792, Note_on_c, 0, 78, 69
1, 43796, Control_c, 0, 64, 41
1, 43802, Note_on_c, 0, 64, 45
1, 43810, Control_c, 0, 64, 36
1, 43832, Control_c, 0, 64, 0
1, 43834, Note_off_c, 0, 64, 53
1, 43836, Note_off_c, 0, 78, 59
1, 43923, Note_on_c, 0, 79, 60
1, 43925, Note_on_c, 0, 65, 46
1, 43936, Note_on_c, 0, 61, 56
1, 43937, Control_c, 0, 64, 48
1, 43944, Note_off_c, 0, 79, 63
1, 43945, Note_on_c, 0, 51, 44
1, 43948, Note_off_c, 0, 48, 41
1, 43952, Control_c, 0, 64, 62
1, 43953, Note_off_c, 0, 65, 56
1, 43967, Control_c, 0, 64, 66
1, 43981, Control_c, 0, 64, 67
1, 44017, Note_on_c, 0, 80, 73
1, 44023, Poly_aftertouch_c, 0, 57, 127
1, 44028, Note_off_c, 0, 61, 60
1, 44038, Note_on_c, 0, 66, 41
1, 44038, Note_off_c, 0, 80, 70
1, 44041, Control_c, 0, 64, 67
1, 44056, Control_c, 0, 64, 65
1, 44067, Note_off_c, 0, 66, 50
1, 44071, Control_c, 0, 64, 62
1, 44086, Control_c, 0, 64, 56
1, 44101, Control_c, 0, 64, 41
1, 44104, Note_on_c, 0, 81, 75
1, 44109, Note_on_c, 0, 67, 61
1, 44115, Control_c, 0, 64, 0
1, 44127, Note_off_c, 0, 51, 45
1, 44132, Note_off_c, 0, 67, 66
1, 44154, Note_off_c, 0, 81, 59
1, 44175, Control_c, 0, 64, 47
1, 44187, Note_on_c, 0, 64, 61
1, 44190, Control_c, 0, 64, 71
1, 44202, Note_on_c, 0, 82, 81
1, 44205, Control_c, 0, 64, 119
1, 44211, Note_on_c, 0, 48, 45
1, 44214, Note_off_c, 0, 64, 67
1, 44219, Note_on_c, 0, 54, 62
1, 44220, Control_c, 0, 64, 127
1, 44220, Note_off_c, 0, 82, 71
1, 44226, Note_on_c, 0, 68, 54
1, 44234, Poly_aftertouch_c, 0, 57, 0
1, 44242, Note_off_c, 0, 48, 54
1, 44246, Note_off_c, 0, 54, 64
1, 44248, Note_off_c, 0, 68, 63
1, 44264, Control_c, 0, 64, 73
1, 44279, Note_on_c, 0, 83, 86
1, 44279, Control_c, 0, 64, 43
1, 44293, Note_on_c, 0, 69, 59
1, 44294, Control_c, 0, 64, 0
1, 44312, Note_off_c, 0, 69, 64
1, 44327, Note_on_c, 0, 45, 51
1, 44336, Note_off_c, 0, 83, 60
1, 44338, Control_c, 0, 64, 42
1, 44351, Note_on_c, 0, 61, 76
1, 44353, Control_c, 0, 64, 64
1, 44355, Note_off_c, 0, 45, 54
1, 44368, Control_c, 0, 64, 69
1, 44369, Note_on_c, 0, 84, 81
1, 44375, Note_off_c, 0, 61, 68
1, 44382, Control_c, 0, 64, 66
1, 44383, Note_on_c, 0, 70, 70
1, 44384, Note_on_c, 0, 83, 61
1, 44397, Control_c, 0, 64, 54
1, 44404, Note_off_c, 0, 83, 60
1, 44409, Note_off_c, 0, 70, 67
1, 44412, Control_c, 0, 64, 34
1, 44420, Note_off_c, 0, 84, 62
1, 44426, Control_c, 0, 64, 41
1, 44432, Note_on_c, 0, 67, 71
1, 44441, Control_c, 0, 64, 56
1, 44449, Note_off_c, 0, 67, 68
1, 44452, Note_on_c, 0, 85, 86
1, 44456, Control_c, 0, 64, 63
1, 44471, Control_c, 0, 64, 62
1, 44474, Note_on_c, 0, 71, 52
1, 44486, Control_c, 0, 64, 61
1, 44493, Note_off_c, 0, 85, 67
1, 44497, Note_off_c, 0, 71, 59
1, 44500, Control_c, 0, 64, 62
1, 44515, Control_c, 0, 64, 66
1, 44530, Control_c, 0, 64, 72
1, 44541, Note_on_c, 0, 86, 92
1, 44545, Control_c, 0, 64, 74
1, 44560, Control_c, 0, 64, 71
1, 44582, Control_c, 0, 64, 64
1, 44597, Control_c, 0, 64, 59
1, 44612, Control_c, 0, 64, 56
1, 44615, Note_off_c, 0, 86, 64
1, 44619, Note_on_c, 0, 87, 90
1, 44625, Note_on_c, 0, 73, 78
1, 44626, Control_c, 0, 64, 50
1, 44641, Control_c, 0, 64, 32
1, 44645, Note_off_c, 0, 73, 71
1, 44657, Control_c, 0, 64, 0
1, 44661, Note_off_c, 0, 87, 66
1, 44712, Note_on_c, 0, 68, 48
1, 44746, Note_on_c, 0, 63, 54
1, 44746, Control_c, 0, 64, 58
1, 44753, Note_off_c, 0, 68, 63
1, 44759, Note_on_c, 0, 58, 38
1, 44761, Control_c, 0, 64, 69
1, 44776, Control_c, 0, 64, 73
1, 44791, Control_c, 0, 64, 74
1, 44805, Control_c, 0, 64, 75
1, 44808, Note_off_c, 0, 58, 57
1, 44816, Note_off_c, 0, 63, 57
1, 44820, Control_c, 0, 64, 76
1, 44834, Note_on_c, 0, 62, 38
1, 44835, Control_c, 0, 64, 77
1, 44850, Control_c, 0, 64, 77
1, 44865, Note_off_c, 0, 62, 46
1, 44932, Note_on_c, 0, 88, 78
1, 44956, Note_on_c, 0, 74, 49
1, 44971, Note_off_c, 0, 88, 61
1, 44980, Note_off_c, 0, 74, 56
1, 45021, Note_on_c, 0, 52, 39
1, 45045, Note_on_c, 0, 88, 78
1, 45048, Note_on_c, 0, 74, 74
1, 45072, Note_off_c, 0, 74, 69
1, 45078, Note_off_c, 0, 52, 55
1, 45081, Note_off_c, 0, 88, 62
1, 45115, Note_on_c, 0, 42, 47
1, 45149, Note_off_c, 0, 42, 63
1, 45175, Note_on_c, 0, 82, 81
1, 45175, Control_c, 0, 64, 77
1, 45190, Control_c, 0, 64, 74
1, 45197, Note_on_c, 0, 68, 56
1, 45205, Control_c, 0, 64, 68
1, 45217, Note_off_c, 0, 68, 63
1, 45220, Control_c, 0, 64, 61
1, 45231, Note_off_c, 0, 82, 62
1, 45235, Control_c, 0, 64, 50
1, 45249, Control_c, 0, 64, 40
1, 45264, Control_c, 0, 64, 38
1, 45279, Control_c, 0, 64, 36
1, 45294, Control_c, 0, 64, 32
1, 45301, Note_on_c, 0, 81, 78
1, 45302, Note_on_c, 0, 67, 67
1, 45309, Control_c, 0, 64, 0
1, 45331, Control_c, 0, 64, 30
1, 45335, Note_off_c, 0, 67, 68
1, 45346, Control_c, 0, 64, 34
1, 45361, Note_off_c, 0, 81, 44
1, 45361, Control_c, 0, 64, 38
1, 45390, Control_c, 0, 64, 39
1, 45405, Control_c, 0, 64, 44
1, 45420, Control_c, 0, 64, 50
1, 45435, Control_c, 0, 64, 53
1, 45438, Note_on_c, 0, 80, 70
1, 45447, Note_on_c, 0, 66, 56
1, 45451, Control_c, 0, 64, 54
1, 45472, Note_off_c, 0, 66, 57
1, 45495, Control_c, 0, 64, 55
1, 45510, Control_c, 0, 64, 56
1, 45525, Control_c, 0, 64, 57
1, 45540, Control_c, 0, 64, 57
1, 45568, Control_c, 0, 64, 57
1, 45598, Control_c, 0, 64, 56
1, 45619, Note_off_c, 0, 80, 43
1, 45627, Control_c, 0, 64, 57
1, 45642, Control_c, 0, 64, 56
1, 45657, Control_c, 0, 64, 56
1, 45671, Control_c, 0, 64, 55
1, 45686, Control_c, 0, 64, 55
1, 45701, Control_c, 0, 64, 54
1, 45713, Note_on_c, 0, 79, 53
1, 45716, Control_c, 0, 64, 52
1, 45730, Note_on_c, 0, 65, 49
1, 45731, Control_c, 0, 64, 50
1, 45737, Note_on_c, 0, 61, 45
1, 45746, Control_c, 0, 64, 47
1, 45761, Note_on_c, 0, 45, 24
1, 45761, Control_c, 0, 64, 45
1, 45767, Note_on_c, 0, 51, 29
1, 45776, Control_c, 0, 64, 42
1, 45791, Control_c, 0, 64, 36
1, 45805, Control_c, 0, 64, 0
1, 46273, Control_c, 0, 64, 33
1, 46288, Control_c, 0, 64, 40
1, 46302, Control_c, 0, 64, 47
1, 46317, Control_c, 0, 64, 55
1, 46332, Control_c, 0, 64, 61
1, 46347, Control_c, 0, 64, 65
1, 46362, Control_c, 0, 64, 67
1, 46376, Control_c, 0, 64, 70
1, 46391, Control_c, 0, 64, 72
1, 46406, Control_c, 0, 64, 76
1, 46420, Note_off_c, 0, 65, 56
1, 46420, Control_c, 0, 64, 81
1, 46423, Note_off_c, 0, 79, 62
1, 46435, Control_c, 0, 64, 86
1, 46450, Control_c, 0, 64, 92
1, 46465, Control_c, 0, 64, 96
1, 46480, Control_c, 0, 64, 100
1, 46488, Note_off_c, 0, 45, 42
1, 46494, Control_c, 0, 64, 104
1, 46506, Note_off_c, 0, 51, 54
1, 46509, Control_c, 0, 64, 109
1, 46524, Control_c, 0, 64, 119
1, 46539, Control_c, 0, 64, 127
1, 46545, Note_off_c, 0, 61, 55
1, 46613, Control_c, 0, 64, 121
1, 46628, Control_c, 0, 64, 101
1, 46643, Control_c, 0, 64, 85
1, 46658, Control_c, 0, 64, 72
1, 46673, Control_c, 0, 64, 63
1, 46688, Control_c, 0, 64, 57
1, 46690, Note_on_c, 0, 79, 68
1, 46693, Note_on_c, 0, 61, 46
1, 46694, Note_on_c, 0, 57, 42
1, 46699, Note_on_c, 0, 65, 59
1, 46717, Control_c, 0, 64, 59
1, 46732, Control_c, 0, 64, 62
1, 46733, Note_off_c, 0, 65, 66
1, 46747, Control_c, 0, 64, 66
1, 46750, Note_off_c, 0, 79, 64
1, 46762, Control_c, 0, 64, 68
1, 46768, Note_off_c, 0, 57, 63
1, 46776, Control_c, 0, 64, 70
1, 46778, Note_off_c, 0, 61, 62
1, 46791, Control_c, 0, 64, 73
1, 46806, Control_c, 0, 64, 76
1, 46828, Control_c, 0, 64, 78
1, 46841, Note_on_c, 0, 80, 72
1, 46843, Control_c, 0, 64, 79
1, 46847, Note_on_c, 0, 66, 54
1, 46882, Note_off_c, 0, 66, 65
1, 46888, Note_off_c, 0, 80, 61
1, 46917, Control_c, 0, 64, 77
1, 46932, Control_c, 0, 64, 72
1, 46941, Note_on_c, 0, 81, 81
1, 46944, Note_on_c, 0, 67, 67
1, 46947, Control_c, 0, 64, 64
1, 46961, Control_c, 0, 64, 53
1, 46969, Note_off_c, 0, 67, 67
1, 46976, Control_c, 0, 64, 45
1, 46984, Note_off_c, 0, 81, 60
1, 46991, Control_c, 0, 64, 47
1, 47001, Note_on_c, 0, 64, 72
1, 47006, Control_c, 0, 64, 56
1, 47017, Note_on_c, 0, 60, 54
1, 47018, Note_on_c, 0, 54, 53
1, 47021, Control_c, 0, 64, 65
1, 47034, Note_on_c, 0, 82, 79
1, 47035, Control_c, 0, 64, 75
1, 47037, Note_off_c, 0, 64, 64
1, 47043, Note_on_c, 0, 68, 69
1, 47047, Note_off_c, 0, 60, 66
1, 47050, Note_off_c, 0, 54, 63
1, 47051, Control_c, 0, 64, 95
1, 47066, Control_c, 0, 64, 127
1, 47070, Note_off_c, 0, 68, 69
1, 47084, Note_off_c, 0, 82, 61
1, 47116, Note_on_c, 0, 83, 89
1, 47126, Note_on_c, 0, 69, 66
1, 47153, Note_off_c, 0, 69, 68
1, 47174, Note_off_c, 0, 83, 59
1, 47201, Note_on_c, 0, 84, 85
1, 47214, Control_c, 0, 64, 83
1, 47218, Note_on_c, 0, 70, 72
1, 47229, Control_c, 0, 64, 68
1, 47231, Note_on_c, 0, 67, 81
1, 47243, Control_c, 0, 64, 70
1, 47250, Note_off_c, 0, 84, 67
1, 47251, Note_on_c, 0, 51, 64
1, 47256, Note_on_c, 0, 57, 62
1, 47258, Control_c, 0, 64, 87
1, 47264, Note_off_c, 0, 70, 59
1, 47271, Note_off_c, 0, 67, 62
1, 47273, Control_c, 0, 64, 127
1, 47280, Note_on_c, 0, 85, 92
1, 47283, Note_off_c, 0, 57, 66
1, 47285, Note_off_c, 0, 51, 63
1, 47288, Control_c, 0, 67, 116
1, 47303, Note_on_c, 0, 71, 54
1, 47303, Control_c, 0, 67, 97
1, 47317, Control_c, 0, 64, 80
1, 47317, Control_c, 0, 67, 69
1, 47325, Note_off_c, 0, 71, 60
1, 47328, Note_off_c, 0, 85, 68
1, 47332, Control_c, 0, 64, 67
1, 47332, Control_c, 0, 67, 34
1, 47347, Control_c, 0, 64, 67
1, 47347, Control_c, 0, 67, 0
1, 47356, Note_on_c, 0, 48, 73
1, 47362, Control_c, 0, 64, 75
1, 47367, Note_on_c, 0, 86, 96
1, 47373, Note_on_c, 0, 54, 68
1, 47376, Control_c, 0, 64, 92
1, 47380, Note_on_c, 0, 72, 76
1, 47381, Note_off_c, 0, 48, 67
1, 47391, Control_c, 0, 64, 127
1, 47400, Note_off_c, 0, 72, 72
1, 47406, Note_off_c, 0, 54, 66
1, 47410, Note_on_c, 0, 64, 48
1, 47420, Note_off_c, 0, 86, 62
1, 47424, Note_on_c, 0, 62, 22
1, 47436, Note_off_c, 0, 64, 60
1, 47454, Note_on_c, 0, 87, 96
1, 47464, Note_on_c, 0, 73, 77
1, 47466, Note_on_c, 0, 70, 90
1, 47466, Note_off_c, 0, 62, 52
1, 47481, Note_off_c, 0, 70, 75
1, 47485, Note_off_c, 0, 87, 69
1, 47499, Note_off_c, 0, 73, 62
1, 47535, Note_on_c, 0, 88, 100
1, 47554, Note_on_c, 0, 74, 62
1, 47573, Note_off_c, 0, 88, 67
1, 47580, Note_off_c, 0, 74, 62
1, 47625, Note_on_c, 0, 89, 92
1, 47627, Note_on_c, 0, 90, 82
1, 47632, Note_on_c, 0, 75, 87
1, 47668, Note_off_c, 0, 90, 63
1, 47674, Note_off_c, 0, 75, 66
1, 47710, Control_c, 0, 64, 84
1, 47715, Note_on_c, 0, 88, 70
1, 47725, Control_c, 0, 64, 56
1, 47730, Note_off_c, 0, 89, 66
1, 47732, Note_off_c, 0, 88, 65
1, 47740, Control_c, 0, 64, 0
1, 47767, Note_on_c, 0, 71, 61
1, 47795, Note_off_c, 0, 71, 68
1, 47798, Control_c, 0, 67, 20
1, 47799, Note_on_c, 0, 65, 44
1, 47813, Control_c, 0, 64, 59
1, 47813, Control_c, 0, 67, 23
1, 47828, Control_c, 0, 64, 71
1, 47828, Control_c, 0, 67, 27
1, 47839, Note_on_c, 0, 64, 75
1, 47843, Control_c, 0, 64, 75
1, 47859, Control_c, 0, 64, 76
1, 47859, Control_c, 0, 67, 29
1, 47861, Note_off_c, 0, 64, 71
1, 47873, Note_off_c, 0, 65, 55
1, 47926, Note_on_c, 0, 91, 85
1, 47933, Control_c, 0, 64, 73
1, 47940, Note_on_c, 0, 77, 64
1, 47946, Note_on_c, 0, 89, 57
1, 47947, Control_c, 0, 64, 68
1, 47947, Control_c, 0, 67, 31
1, 47956, Note_off_c, 0, 77, 66
1, 47961, Note_off_c, 0, 91, 65
1, 47962, Control_c, 0, 64, 63
1, 47962, Control_c, 0, 67, 32
1, 47972, Note_off_c, 0, 89, 37
1, 47977, Control_c, 0, 64, 59
1, 47977, Control_c, 0, 67, 33
1, 47978, Note_on_c, 0, 55, 64
1, 47991, Control_c, 0, 64, 60
1, 47991, Control_c, 0, 67, 37
1, 48006, Control_c, 0, 64, 62
1, 48006, Control_c, 0, 67, 48
1, 48021, Control_c, 0, 64, 65
1, 48021, Control_c, 0, 67, 64
1, 48025, Note_off_c, 0, 55, 63
1, 48034, Note_on_c, 0, 77, 76
1, 48035, Note_on_c, 0, 91, 86
1, 48036, Control_c, 0, 64, 66
1, 48036, Control_c, 0, 67, 84
1, 48051, Control_c, 0, 64, 65
1, 48051, Control_c, 0, 67, 102
1, 48056, Note_off_c, 0, 77, 69
1, 48064, Note_off_c, 0, 91, 64
1, 48065, Control_c, 0, 64, 64
1, 48065, Control_c, 0, 67, 116
1, 48072, Note_on_c, 0, 45, 42
1, 48080, Control_c, 0, 64, 62
1, 48080, Control_c, 0, 67, 127
1, 48095, Control_c, 0, 64, 59
1, 48102, Note_off_c, 0, 45, 60
1, 48110, Control_c, 0, 64, 57
1, 48125, Control_c, 0, 64, 53
1, 48140, Note_on_c, 0, 85, 95
1, 48140, Control_c, 0, 64, 46
1, 48148, Note_on_c, 0, 71, 76
1, 48154, Control_c, 0, 64, 43
1, 48169, Control_c, 0, 64, 46
1, 48170, Note_off_c, 0, 71, 70
1, 48184, Control_c, 0, 64, 51
1, 48190, Note_off_c, 0, 85, 65
1, 48199, Control_c, 0, 64, 52
1, 48214, Control_c, 0, 64, 51
1, 48244, Control_c, 0, 64, 54
1, 48245, Note_on_c, 0, 84, 83
1, 48259, Control_c, 0, 64, 59
1, 48273, Control_c, 0, 64, 62
1, 48274, Note_on_c, 0, 71, 46
1, 48288, Control_c, 0, 64, 63
1, 48289, Note_off_c, 0, 84, 66
1, 48300, Note_off_c, 0, 71, 57
1, 48303, Control_c, 0, 64, 63
1, 48325, Control_c, 0, 64, 64
1, 48354, Control_c, 0, 64, 63
1, 48366, Note_on_c, 0, 83, 87
1, 48369, Control_c, 0, 64, 61
1, 48380, Note_on_c, 0, 69, 67
1, 48384, Control_c, 0, 64, 56
1, 48399, Control_c, 0, 64, 51
1, 48405, Note_off_c, 0, 69, 68
1, 48414, Control_c, 0, 64, 49
1, 48429, Control_c, 0, 64, 47
1, 48444, Control_c, 0, 64, 43
1, 48458, Control_c, 0, 64, 30
1, 48473, Control_c, 0, 64, 0
1, 48544, Note_on_c, 0, 82, 85
1, 48556, Note_on_c, 0, 68, 70
1, 48571, Note_on_c, 0, 64, 55
1, 48578, Note_off_c, 0, 83, 60
1, 48599, Note_on_c, 0, 48, 40
1, 48607, Note_on_c, 0, 54, 39
1, 48829, Control_c, 0, 64, 34
1, 48844, Control_c, 0, 64, 57
1, 48859, Control_c, 0, 64, 66
1, 48874, Control_c, 0, 64, 72
1, 48876, Note_off_c, 0, 48, 63
1, 48888, Control_c, 0, 64, 82
1, 48897, Note_off_c, 0, 54, 62
1, 48903, Control_c, 0, 64, 96
1, 48918, Control_c, 0, 64, 127
1, 48938, Note_off_c, 0, 64, 59
1, 48939, Note_off_c, 0, 68, 50
1, 48984, Note_off_c, 0, 82, 55
1, 49236, Control_c, 0, 64, 97
1, 49251, Control_c, 0, 64, 81
1, 49266, Control_c, 0, 64, 70
1, 49281, Control_c, 0, 64, 60
1, 49283, Note_on_c, 0, 69, 44
1, 49286, Note_on_c, 0, 64, 39
1, 49296, Control_c, 0, 64, 49
1, 49300, Note_on_c, 0, 58, 29
1, 49311, Control_c, 0, 64, 44
1, 49326, Control_c, 0, 64, 47
1, 49341, Control_c, 0, 64, 57
1, 49356, Control_c, 0, 64, 64
1, 49371, Control_c, 0, 64, 69
1, 49380, Note_off_c, 0, 69, 55
1, 49386, Control_c, 0, 64, 75
1, 49400, Control_c, 0, 64, 80
1, 49401, Note_off_c, 0, 64, 61
1, 49415, Control_c, 0, 64, 83
1, 49421, Note_on_c, 0, 68, 48
1, 49430, Control_c, 0, 64, 85
1, 49445, Control_c, 0, 64, 89
1, 49448, Note_off_c, 0, 68, 54
1, 49460, Control_c, 0, 64, 92
1, 49463, Note_off_c, 0, 58, 41
1, 49475, Control_c, 0, 64, 96
1, 49487, Note_on_c, 0, 94, 78
1, 49509, Note_on_c, 0, 80, 45
1, 49534, Note_off_c, 0, 80, 56
1, 49538, Note_off_c, 0, 94, 64
1, 49549, Control_c, 0, 64, 98
1, 49630, Note_on_c, 0, 94, 66
1, 49639, Note_on_c, 0, 80, 41
1, 49649, Note_on_c, 0, 48, 37
1, 49654, Note_off_c, 0, 94, 69
1, 49667, Note_off_c, 0, 80, 53
1, 49684, Note_off_c, 0, 48, 49
1, 49782, Note_on_c, 0, 88, 63
1, 49826, Note_off_c, 0, 88, 50
1, 49933, Note_on_c, 0, 88, 61
1, 49965, Note_on_c, 0, 64, 20
1, 49983, Note_on_c, 0, 68, 22
1, 49989, Note_on_c, 0, 58, 27
1, 50004, Note_off_c, 0, 64, 46
1, 50024, Note_off_c, 0, 68, 52
1, 50038, Note_off_c, 0, 58, 62
1, 50059, Note_off_c, 0, 88, 52
1, 50068, Poly_aftertouch_c, 0, 67, 0
1, 50127, Note_on_c, 0, 87, 57
1, 50146, Note_on_c, 0, 73, 40
1, 50178, Control_c, 0, 64, 96
1, 50193, Control_c, 0, 64, 94
1, 50208, Control_c, 0, 64, 89
1, 50223, Control_c, 0, 64, 84
1, 50239, Control_c, 0, 64, 75
1, 50254, Control_c, 0, 64, 65
1, 50255, Note_on_c, 0, 51, 39
1, 50268, Control_c, 0, 64, 50
1, 50283, Control_c, 0, 64, 0
1, 50328, Note_on_c, 0, 56, 28
1, 50372, Note_off_c, 0, 73, 44
1, 50372, Control_c, 0, 64, 43
1, 50387, Control_c, 0, 64, 54
1, 50398, Note_on_c, 0, 66, 31
1, 50402, Control_c, 0, 64, 60
1, 50417, Control_c, 0, 64, 64
1, 50417, Note_off_c, 0, 51, 55
1, 50432, Control_c, 0, 64, 66
1, 50447, Control_c, 0, 64, 68
1, 50459, Note_off_c, 0, 66, 57
1, 50462, Control_c, 0, 64, 70
1, 50476, Control_c, 0, 64, 73
1, 50491, Control_c, 0, 64, 76
1, 50506, Control_c, 0, 64, 79
1, 50521, Control_c, 0, 64, 81
1, 50536, Control_c, 0, 64, 83
1, 50550, Control_c, 0, 64, 84
1, 50572, Control_c, 0, 64, 85
1, 50587, Control_c, 0, 64, 85
1, 50602, Control_c, 0, 64, 86
1, 50604, Note_off_c, 0, 87, 33
1, 50617, Control_c, 0, 64, 86
1, 50626, Note_on_c, 0, 86, 47
1, 50632, Control_c, 0, 64, 87
1, 50646, Control_c, 0, 64, 88
1, 50661, Control_c, 0, 64, 89
1, 50667, Note_on_c, 0, 72, 30
1, 50676, Control_c, 0, 64, 90
1, 50691, Control_c, 0, 64, 91
1, 50694, Note_on_c, 0, 70, 48
1, 50706, Control_c, 0, 64, 91
1, 50720, Control_c, 0, 64, 93
1, 50735, Control_c, 0, 64, 96
1, 50739, Note_off_c, 0, 70, 0
1, 50750, Control_c, 0, 64, 98
1, 50753, Note_off_c, 0, 56, 35
1, 50777, Poly_aftertouch_c, 0, 70, 127
1, 50780, Control_c, 0, 64, 101
1, 50793, Note_off_c, 0, 72, 28
1, 50794, Control_c, 0, 64, 103
1, 50809, Control_c, 0, 64, 108
1, 50824, Control_c, 0, 64, 121
1, 50830, Poly_aftertouch_c, 0, 70, 0
1, 50839, Control_c, 0, 64, 127
1, 50851, Note_off_c, 0, 86, 26
1, 51616, Control_c, 0, 64, 95
1, 51631, Control_c, 0, 64, 77
1, 51634, Note_on_c, 0, 65, 40
1, 51644, Note_on_c, 0, 60, 26
1, 51646, Control_c, 0, 64, 68
1, 51661, Control_c, 0, 64, 65
1, 51666, Note_on_c, 0, 54, 15
1, 51675, Control_c, 0, 64, 66
1, 51690, Control_c, 0, 64, 71
1, 51705, Control_c, 0, 64, 78
1, 51720, Control_c, 0, 64, 84
1, 51735, Control_c, 0, 64, 88
1, 51749, Control_c, 0, 64, 89
1, 51763, Note_off_c, 0, 65, 54
1, 51764, Control_c, 0, 64, 89
1, 51770, Note_on_c, 0, 64, 39
1, 51779, Control_c, 0, 64, 91
1, 51794, Control_c, 0, 64, 93
1, 51795, Note_off_c, 0, 64, 57
1, 51809, Control_c, 0, 64, 95
1, 51815, Note_off_c, 0, 60, 42
1, 51817, Note_on_c, 0, 96, 65
1, 51824, Control_c, 0, 64, 97
1, 51836, Note_on_c, 0, 82, 54
1, 51837, Note_off_c, 0, 54, 36
1, 51859, Note_off_c, 0, 82, 58
1, 51872, Note_off_c, 0, 96, 60
1, 51931, Note_on_c, 0, 96, 72
1, 51939, Note_on_c, 0, 82, 71
1, 51956, Note_on_c, 0, 44, 60
1, 51964, Note_off_c, 0, 82, 65
1, 51968, Note_off_c, 0, 96, 63
1, 51981, Note_off_c, 0, 44, 62
1, 52084, Note_on_c, 0, 90, 69
1, 52097, Note_on_c, 0, 76, 48
1, 52128, Note_off_c, 0, 76, 49
1, 52134, Note_on_c, 0, 70, 65
1, 52151, Note_off_c, 0, 70, 65
1, 52233, Note_off_c, 0, 90, 43
1, 52310, Note_on_c, 0, 89, 56
1, 52322, Control_c, 0, 64, 99
1, 52325, Note_on_c, 0, 75, 42
1, 52335, Note_off_c, 0, 89, 61
1, 52351, Note_off_c, 0, 75, 53
1, 52366, Control_c, 0, 64, 83
1, 52381, Control_c, 0, 64, 63
1, 52396, Control_c, 0, 64, 0
1, 52396, Note_on_c, 0, 71, 64
1, 52435, Note_on_c, 0, 60, 39
1, 52440, Control_c, 0, 64, 33
1, 52441, Note_on_c, 0, 66, 29
1, 52452, Note_off_c, 0, 71, 61
1, 52455, Control_c, 0, 64, 54
1, 52470, Control_c, 0, 64, 61
1, 52485, Control_c, 0, 64, 62
1, 52494, Note_on_c, 0, 90, 68
1, 52514, Control_c, 0, 64, 63
1, 52517, Note_off_c, 0, 90, 69
1, 52518, Note_on_c, 0, 76, 35
1, 52544, Control_c, 0, 64, 63
1, 52549, Note_off_c, 0, 76, 44
1, 52559, Control_c, 0, 64, 64
1, 52563, Note_on_c, 0, 70, 54
1, 52573, Control_c, 0, 64, 65
1, 52578, Note_off_c, 0, 66, 50
1, 52588, Control_c, 0, 64, 67
1, 52591, Note_on_c, 0, 90, 69
1, 52591, Note_off_c, 0, 70, 67
1, 52603, Control_c, 0, 64, 68
1, 52607, Note_off_c, 0, 90, 67
1, 52633, Control_c, 0, 64, 65
1, 52649, Control_c, 0, 64, 60
1, 52663, Control_c, 0, 64, 54
1, 52678, Control_c, 0, 64, 48
1, 52693, Control_c, 0, 64, 38
1, 52708, Control_c, 0, 64, 0
1, 52718, Note_on_c, 0, 84, 69
1, 52737, Control_c, 0, 64, 41
1, 52752, Control_c, 0, 64, 58
1, 52757, Note_on_c, 0, 70, 42
1, 52767, Control_c, 0, 64, 68
1, 52781, Note_off_c, 0, 84, 64
1, 52781, Control_c, 0, 64, 76
1, 52782, Note_off_c, 0, 70, 51
1, 52796, Control_c, 0, 64, 84
1, 52819, Control_c, 0, 64, 90
1, 52834, Control_c, 0, 64, 96
1, 52849, Control_c, 0, 64, 102
1, 52863, Control_c, 0, 64, 108
1, 52878, Control_c, 0, 64, 112
1, 52908, Note_on_c, 0, 84, 67
1, 52926, Note_on_c, 0, 70, 35
1, 52937, Control_c, 0, 64, 110
1, 52942, Note_off_c, 0, 84, 60
1, 52952, Control_c, 0, 64, 98
1, 52960, Note_off_c, 0, 70, 44
1, 52967, Control_c, 0, 64, 81
1, 52982, Control_c, 0, 64, 65
1, 52996, Control_c, 0, 64, 48
1, 52996, Control_c, 0, 67, 124
1, 53011, Control_c, 0, 64, 37
1, 53011, Control_c, 0, 67, 116
1, 53026, Note_on_c, 0, 62, 50
1, 53026, Control_c, 0, 64, 48
1, 53026, Control_c, 0, 67, 107
1, 53032, Note_on_c, 0, 66, 59
1, 53032, Note_off_c, 0, 60, 52
1, 53038, Note_on_c, 0, 84, 64
1, 53041, Control_c, 0, 64, 61
1, 53041, Control_c, 0, 67, 96
1, 53052, Note_on_c, 0, 70, 45
1, 53055, Note_off_c, 0, 66, 63
1, 53056, Control_c, 0, 64, 71
1, 53056, Control_c, 0, 67, 85
1, 53060, Note_off_c, 0, 62, 64
1, 53070, Note_off_c, 0, 84, 63
1, 53070, Control_c, 0, 64, 83
1, 53070, Control_c, 0, 67, 75
1, 53077, Note_off_c, 0, 70, 52
1, 53085, Control_c, 0, 64, 97
1, 53085, Control_c, 0, 67, 68
1, 53100, Control_c, 0, 64, 107
1, 53100, Control_c, 0, 67, 62
1, 53115, Control_c, 0, 64, 112
1, 53115, Control_c, 0, 67, 58
1, 53130, Control_c, 0, 64, 115
1, 53130, Control_c, 0, 67, 55
1, 53137, Note_on_c, 0, 85, 75
1, 53144, Control_c, 0, 64, 117
1, 53144, Control_c, 0, 67, 53
1, 53159, Control_c, 0, 67, 52
1, 53165, Note_off_c, 0, 85, 64
1, 53170, Note_on_c, 0, 71, 14
1, 53204, Control_c, 0, 64, 106
1, 53219, Control_c, 0, 64, 82
1, 53219, Note_off_c, 0, 71, 38
1, 53227, Note_on_c, 0, 86, 75
1, 53234, Control_c, 0, 64, 60
1, 53234, Control_c, 0, 67, 51
1, 53238, Note_on_c, 0, 72, 45
1, 53249, Control_c, 0, 64, 0
1, 53249, Control_c, 0, 67, 49
1, 53252, Note_off_c, 0, 86, 68
1, 53263, Control_c, 0, 67, 42
1, 53267, Note_off_c, 0, 72, 35
1, 53278, Control_c, 0, 64, 38
1, 53278, Control_c, 0, 67, 29
1, 53291, Note_on_c, 0, 69, 73
1, 53293, Control_c, 0, 64, 62
1, 53293, Control_c, 0, 67, 0
1, 53303, Note_on_c, 0, 87, 88
1, 53305, Note_on_c, 0, 59, 48
1, 53308, Note_on_c, 0, 65, 57
1, 53308, Control_c, 0, 64, 85
1, 53311, Note_on_c, 0, 73, 78
1, 53312, Note_off_c, 0, 69, 70
1, 53322, Control_c, 0, 64, 127
1, 53329, Note_off_c, 0, 59, 60
1, 53331, Note_off_c, 0, 65, 60
1, 53344, Note_off_c, 0, 87, 66
1, 53350, Note_off_c, 0, 73, 61
1, 53383, Note_on_c, 0, 88, 89
1, 53397, Note_on_c, 0, 74, 58
1, 53418, Note_off_c, 0, 74, 60
1, 53432, Note_off_c, 0, 88, 65
1, 53457, Control_c, 0, 64, 95
1, 53467, Note_on_c, 0, 89, 88
1, 53472, Control_c, 0, 64, 67
1, 53486, Control_c, 0, 64, 57
1, 53487, Note_on_c, 0, 75, 72
1, 53494, Note_on_c, 0, 72, 77
1, 53501, Control_c, 0, 64, 66
1, 53508, Note_on_c, 0, 62, 65
1, 53511, Note_off_c, 0, 75, 69
1, 53514, Note_on_c, 0, 56, 55
1, 53516, Control_c, 0, 64, 85
1, 53522, Note_off_c, 0, 89, 62
1, 53526, Note_off_c, 0, 72, 63
1, 53530, Control_c, 0, 64, 127
1, 53537, Note_off_c, 0, 62, 65
1, 53544, Note_off_c, 0, 56, 62
1, 53544, Note_on_c, 0, 90, 92
1, 53576, Note_on_c, 0, 76, 63
1, 53583, Control_c, 0, 64, 87
1, 53595, Note_off_c, 0, 76, 61
1, 53598, Note_off_c, 0, 90, 68
1, 53598, Control_c, 0, 64, 74
1, 53612, Control_c, 0, 64, 74
1, 53615, Note_on_c, 0, 53, 72
1, 53627, Control_c, 0, 64, 85
1, 53636, Note_on_c, 0, 60, 32
1, 53636, Note_on_c, 0, 91, 97
1, 53642, Control_c, 0, 64, 103
1, 53648, Note_off_c, 0, 53, 61
1, 53649, Note_on_c, 0, 77, 76
1, 53655, Note_on_c, 0, 69, 76
1, 53657, Control_c, 0, 64, 127
1, 53669, Note_off_c, 0, 77, 72
1, 53674, Note_off_c, 0, 60, 54
1, 53690, Note_off_c, 0, 69, 60
1, 53690, Note_off_c, 0, 91, 64
1, 53725, Note_on_c, 0, 92, 95
1, 53731, Note_on_c, 0, 75, 86
1, 53735, Note_on_c, 0, 78, 75
1, 53748, Note_off_c, 0, 75, 72
1, 53768, Note_off_c, 0, 78, 62
1, 53770, Note_off_c, 0, 92, 67
1, 53806, Note_on_c, 0, 93, 96
1, 53829, Note_on_c, 0, 79, 58
1, 53847, Note_off_c, 0, 93, 67
1, 53852, Note_off_c, 0, 79, 61
1, 53884, Note_on_c, 0, 94, 102
1, 53897, Note_on_c, 0, 80, 83
1, 53916, Note_off_c, 0, 80, 73
1, 53924, Note_off_c, 0, 94, 68
1, 53953, Note_on_c, 0, 95, 92
1, 53976, Note_on_c, 0, 81, 62
1, 53993, Note_off_c, 0, 95, 68
1, 53994, Note_off_c, 0, 81, 63
1, 54230, Note_on_c, 0, 38, 79
1, 54265, Control_c, 0, 64, 105
1, 54280, Control_c, 0, 64, 72
1, 54295, Control_c, 0, 64, 0
1, 54509, Control_c, 0, 64, 35
1, 54524, Control_c, 0, 64, 66
1, 54524, Control_c, 0, 67, 19
1, 54532, Note_off_c, 0, 38, 63
1, 54540, Control_c, 0, 64, 76
1, 54554, Control_c, 0, 64, 94
1, 54562, Note_on_c, 0, 50, 55
1, 54569, Control_c, 0, 64, 127
1, 54599, Note_off_c, 0, 50, 63
1, 54599, Control_c, 0, 67, 0
1, 54653, Note_on_c, 0, 96, 95
1, 54671, Note_on_c, 0, 82, 80
1, 54695, Note_off_c, 0, 82, 66
1, 54709, Note_off_c, 0, 96, 66
1, 54835, Control_c, 0, 67, 19
1, 54861, Note_on_c, 0, 60, 54
1, 54984, Control_c, 0, 67, 21
1, 54993, Note_on_c, 0, 89, 72
1, 55000, Note_on_c, 0, 75, 60
1, 55039, Note_on_c, 0, 66, 45
1, 55061, Note_off_c, 0, 75, 56
1, 55071, Note_off_c, 0, 60, 39
1, 55082, Note_off_c, 0, 66, 64
1, 55235, Note_on_c, 0, 90, 78
1, 55240, Note_off_c, 0, 89, 59
1, 55255, Note_on_c, 0, 76, 63
1, 55287, Note_off_c, 0, 76, 65
1, 55298, Note_off_c, 0, 90, 62
1, 55364, Note_on_c, 0, 66, 58
1, 55465, Note_off_c, 0, 66, 52
1, 55491, Note_on_c, 0, 84, 79
1, 55516, Note_on_c, 0, 70, 59
1, 55552, Note_off_c, 0, 70, 64
1, 55654, Note_on_c, 0, 60, 55
1, 55690, Note_off_c, 0, 60, 63
1, 55752, Note_off_c, 0, 84, 62
1, 55784, Note_on_c, 0, 76, 52
1, 55816, Note_off_c, 0, 76, 64
1, 55865, Note_on_c, 0, 85, 73
1, 55882, Note_on_c, 0, 71, 53
1, 55926, Note_off_c, 0, 71, 52
1, 55957, Note_off_c, 0, 85, 68
1, 55985, Note_on_c, 0, 86, 70
1, 56024, Note_on_c, 0, 72, 38
1, 56048, Note_on_c, 0, 71, 81
1, 56076, Note_on_c, 0, 56, 58
1, 56078, Note_off_c, 0, 86, 62
1, 56105, Note_off_c, 0, 72, 31
1, 56212, Note_off_c, 0, 71, 63
1, 56247, Note_off_c, 0, 56, 31
1, 56305, Note_on_c, 0, 60, 45
1, 56318, Control_c, 0, 67, 24
1, 56346, Note_off_c, 0, 60, 63
1, 56347, Control_c, 0, 67, 28
1, 56377, Control_c, 0, 67, 31
1, 56392, Control_c, 0, 67, 33
1, 56406, Control_c, 0, 67, 37
1, 56421, Control_c, 0, 67, 43
1, 56436, Control_c, 0, 67, 50
1, 56440, Note_on_c, 0, 66, 37
1, 56450, Control_c, 0, 67, 55
1, 56465, Control_c, 0, 67, 57
1, 56480, Control_c, 0, 67, 57
1, 56565, Note_off_c, 0, 66, 35
1, 56592, Control_c, 0, 67, 57
1, 56599, Note_on_c, 0, 50, 48
1, 56652, Control_c, 0, 67, 56
1, 56726, Control_c, 0, 67, 56
1, 56732, Note_on_c, 0, 60, 45
1, 56755, Control_c, 0, 67, 55
1, 56757, Note_off_c, 0, 50, 36
1, 56868, Note_on_c, 0, 66, 45
1, 56905, Note_off_c, 0, 66, 51
1, 56922, Note_off_c, 0, 60, 54
1, 57013, Note_on_c, 0, 71, 65
1, 57023, Control_c, 0, 67, 55
1, 57067, Control_c, 0, 67, 54
1, 57077, Note_off_c, 0, 71, 63
1, 57142, Note_on_c, 0, 71, 68
1, 57234, Note_off_c, 0, 71, 60
1, 57480, Note_on_c, 0, 32, 43
1, 57481, Note_on_c, 0, 44, 41
1, 57534, Note_off_c, 0, 32, 59
1, 57541, Note_off_c, 0, 44, 59
1, 57910, Note_on_c, 0, 54, 19
1, 58060, Note_on_c, 0, 86, 65
1, 58060, Control_c, 0, 67, 54
1, 58075, Control_c, 0, 67, 53
1, 58089, Note_on_c, 0, 72, 44
1, 58105, Control_c, 0, 67, 53
1, 58120, Note_off_c, 0, 72, 56
1, 58132, Note_off_c, 0, 54, 35
1, 58135, Note_on_c, 0, 60, 43
1, 58149, Control_c, 0, 67, 52
1, 58184, Note_off_c, 0, 60, 63
1, 58194, Control_c, 0, 67, 52
1, 58221, Note_on_c, 0, 64, 30
1, 58255, Note_off_c, 0, 64, 44
1, 58313, Control_c, 0, 67, 52
1, 58340, Note_on_c, 0, 92, 77
1, 58343, Note_off_c, 0, 86, 62
1, 58360, Note_on_c, 0, 78, 48
1, 58394, Note_off_c, 0, 78, 62
1, 58403, Note_off_c, 0, 92, 63
1, 58465, Note_on_c, 0, 71, 68
1, 58593, Note_off_c, 0, 71, 60
1, 58951, Note_on_c, 0, 71, 75
1, 59012, Note_off_c, 0, 71, 62
1, 59462, Control_c, 0, 67, 53
1, 59476, Control_c, 0, 67, 53
1, 59491, Control_c, 0, 67, 54
1, 59506, Control_c, 0, 67, 54
1, 59536, Control_c, 0, 67, 55
1, 59558, Control_c, 0, 67, 55
1, 59588, Control_c, 0, 67, 56
1, 59602, Control_c, 0, 67, 57
1, 59617, Control_c, 0, 67, 58
1, 59630, Note_on_c, 0, 71, 58
1, 59632, Control_c, 0, 67, 58
1, 59647, Control_c, 0, 67, 59
1, 59662, Control_c, 0, 67, 60
1, 59676, Control_c, 0, 67, 61
1, 59691, Control_c, 0, 67, 72
1, 59706, Control_c, 0, 67, 84
1, 59721, Control_c, 0, 67, 98
1, 59736, Control_c, 0, 67, 110
1, 59750, Control_c, 0, 67, 118
1, 59765, Control_c, 0, 67, 125
1, 59780, Control_c, 0, 64, 116
1, 59780, Control_c, 0, 67, 127
1, 59795, Control_c, 0, 64, 107
1, 59804, Note_on_c, 0, 76, 55
1, 59810, Control_c, 0, 64, 99
1, 59825, Control_c, 0, 64, 91
1, 59841, Control_c, 0, 64, 82
1, 59855, Control_c, 0, 64, 75
1, 59856, Note_off_c, 0, 71, 57
1, 59870, Control_c, 0, 64, 69
1, 59885, Control_c, 0, 64, 63
1, 59900, Control_c, 0, 64, 55
1, 59914, Control_c, 0, 64, 32
1, 59929, Control_c, 0, 64, 0
1, 60075, Note_on_c, 0, 50, 30
1, 60167, Control_c, 0, 64, 37
1, 60181, Control_c, 0, 64, 43
1, 60196, Control_c, 0, 64, 52
1, 60211, Control_c, 0, 64, 61
1, 60225, Control_c, 0, 64, 65
1, 60240, Control_c, 0, 64, 68
1, 60255, Control_c, 0, 64, 72
1, 60270, Control_c, 0, 64, 76
1, 60285, Control_c, 0, 64, 82
1, 60287, Note_off_c, 0, 76, 57
1, 60307, Control_c, 0, 64, 94
1, 60322, Control_c, 0, 64, 117
1, 60337, Control_c, 0, 64, 127
1, 60377, Note_on_c, 0, 60, 36
1, 60437, Note_off_c, 0, 50, 39
1, 60571, Note_on_c, 0, 66, 32
1, 60611, Note_off_c, 0, 60, 28
1, 60618, Note_off_c, 0, 66, 53
1, 60672, Note_on_c, 0, 92, 71
1, 60686, Note_on_c, 0, 78, 56
1, 60709, Note_off_c, 0, 78, 60
1, 60737, Note_off_c, 0, 92, 63
1, 60814, Note_on_c, 0, 66, 47
1, 60909, Note_off_c, 0, 66, 0
1, 60909, Note_on_c, 0, 66, 12
1, 60948, Note_on_c, 0, 60, 37
1, 60949, Note_off_c, 0, 66, 56
1, 60988, Note_off_c, 0, 60, 51
1, 61042, Note_on_c, 0, 84, 64
1, 61080, Note_on_c, 0, 70, 25
1, 61170, Note_off_c, 0, 70, 39
1, 61249, Note_on_c, 0, 76, 78
1, 61356, Note_off_c, 0, 84, 60
1, 61434, Note_on_c, 0, 50, 38
1, 61551, Note_off_c, 0, 50, 36
1, 61579, Note_on_c, 0, 60, 42
1, 61595, Note_off_c, 0, 76, 53
1, 61643, Note_off_c, 0, 60, 59
1, 61683, Note_on_c, 0, 66, 57
1, 61715, Note_off_c, 0, 66, 58
1, 61822, Note_on_c, 0, 85, 77
1, 61840, Note_on_c, 0, 71, 59
1, 61961, Note_on_c, 0, 66, 80
1, 61966, Note_off_c, 0, 71, 36
1, 62113, Note_off_c, 0, 66, 61
1, 62358, Note_on_c, 0, 86, 63
1, 62388, Note_off_c, 0, 85, 54
1, 62400, Note_on_c, 0, 71, 68
1, 62404, Note_on_c, 0, 72, 44
1, 62443, Note_on_c, 0, 60, 30
1, 62503, Note_off_c, 0, 71, 59
1, 62523, Note_off_c, 0, 72, 53
1, 62562, Note_off_c, 0, 60, 38
1, 62776, Note_on_c, 0, 70, 66
1, 62940, Note_off_c, 0, 70, 38
1, 63023, Note_on_c, 0, 87, 64
1, 63038, Note_on_c, 0, 73, 52
1, 63057, Note_on_c, 0, 69, 62
1, 63072, Control_c, 0, 64, 109
1, 63087, Control_c, 0, 64, 97
1, 63102, Control_c, 0, 64, 86
1, 63107, Note_off_c, 0, 86, 51
1, 63116, Control_c, 0, 64, 76
1, 63131, Control_c, 0, 64, 65
1, 63146, Control_c, 0, 64, 48
1, 63161, Control_c, 0, 64, 0
1, 63519, Note_on_c, 0, 53, 32
1, 63539, Control_c, 0, 64, 34
1, 63554, Control_c, 0, 64, 46
1, 63568, Control_c, 0, 64, 55
1, 63583, Control_c, 0, 64, 59
1, 63598, Control_c, 0, 64, 61
1, 63613, Control_c, 0, 64, 63
1, 63628, Control_c, 0, 64, 65
1, 63643, Control_c, 0, 64, 68
1, 63657, Control_c, 0, 64, 73
1, 63672, Control_c, 0, 64, 79
1, 63687, Control_c, 0, 64, 87
1, 63702, Control_c, 0, 64, 99
1, 63717, Control_c, 0, 64, 112
1, 63731, Control_c, 0, 64, 127
1, 63792, Note_on_c, 0, 63, 37
1, 63833, Note_off_c, 0, 69, 57
1, 63924, Note_on_c, 0, 69, 49
1, 63936, Note_off_c, 0, 53, 36
1, 63940, Note_off_c, 0, 63, 34
1, 63965, Note_off_c, 0, 69, 63
1, 63966, Note_off_c, 0, 73, 47
1, 64064, Note_on_c, 0, 69, 48
1, 64114, Note_off_c, 0, 69, 53
1, 64165, Note_off_c, 0, 87, 56
1, 64178, Note_on_c, 0, 63, 23
1, 64216, Note_off_c, 0, 63, 53
1, 64326, Note_on_c, 0, 79, 45
1, 64351, Note_off_c, 0, 79, 64
1, 64449, Note_on_c, 0, 47, 39
1, 64541, Note_on_c, 0, 93, 66
1, 64552, Note_on_c, 0, 79, 61
1, 64590, Note_off_c, 0, 79, 59
1, 64594, Note_off_c, 0, 93, 65
1, 64711, Note_on_c, 0, 53, 43
1, 64713, Note_off_c, 0, 47, 38
1, 64917, Note_off_c, 0, 53, 42
1, 64925, Note_on_c, 0, 63, 27
1, 64977, Note_off_c, 0, 63, 49
1, 65029, Note_on_c, 0, 94, 58
1, 65030, Note_on_c, 0, 80, 58
1, 65092, Note_off_c, 0, 80, 63
1, 65113, Note_off_c, 0, 94, 61
1, 65262, Note_on_c, 0, 75, 44
1, 65394, Note_off_c, 0, 75, 37
1, 65561, Note_on_c, 0, 95, 56
1, 65585, Note_on_c, 0, 81, 43
1, 65602, Note_on_c, 0, 69, 46
1, 65609, Note_on_c, 0, 68, 47
1, 65637, Note_off_c, 0, 95, 63
1, 65638, Note_off_c, 0, 81, 44
1, 65711, Note_off_c, 0, 69, 56
1, 65715, Note_off_c, 0, 68, 53
1, 65977, Note_on_c, 0, 75, 48
1, 65982, Note_on_c, 0, 67, 46
1, 66061, Note_off_c, 0, 75, 63
1, 66083, Note_off_c, 0, 67, 62
1, 66261, Note_on_c, 0, 66, 39
1, 66357, Control_c, 0, 64, 102
1, 66372, Control_c, 0, 64, 79
1, 66387, Control_c, 0, 64, 59
1, 66401, Control_c, 0, 64, 0
1, 66464, Note_on_c, 0, 50, 45
1, 66520, Control_c, 0, 64, 53
1, 66535, Control_c, 0, 64, 59
1, 66549, Control_c, 0, 64, 61
1, 66564, Control_c, 0, 64, 64
1, 66570, Note_on_c, 0, 96, 84
1, 66579, Control_c, 0, 64, 66
1, 66593, Control_c, 0, 64, 69
1, 66605, Note_on_c, 0, 82, 62
1, 66608, Control_c, 0, 64, 73
1, 66622, Note_off_c, 0, 82, 65
1, 66623, Control_c, 0, 64, 78
1, 66638, Control_c, 0, 64, 83
1, 66642, Note_off_c, 0, 96, 65
1, 66653, Control_c, 0, 64, 88
1, 66667, Control_c, 0, 64, 94
1, 66679, Note_off_c, 0, 50, 31
1, 66682, Control_c, 0, 64, 101
1, 66697, Control_c, 0, 64, 109
1, 66711, Control_c, 0, 64, 127
1, 66728, Note_off_c, 0, 66, 53
1, 66748, Note_on_c, 0, 60, 43
1, 66793, Note_on_c, 0, 89, 80
1, 66797, Note_off_c, 0, 60, 44
1, 66819, Note_on_c, 0, 75, 60
1, 66860, Note_off_c, 0, 75, 59
1, 66938, Note_off_c, 0, 89, 63
1, 66945, Note_on_c, 0, 90, 71
1, 66998, Note_off_c, 0, 90, 61
1, 67059, Poly_aftertouch_c, 0, 76, 0
1, 67064, Note_on_c, 0, 66, 48
1, 67137, Note_off_c, 0, 66, 0
1, 67137, Note_on_c, 0, 66, 8
1, 67195, Note_off_c, 0, 66, 44
1, 67197, Note_on_c, 0, 84, 62
1, 67214, Note_on_c, 0, 60, 43
1, 67235, Note_on_c, 0, 70, 39
1, 67256, Note_off_c, 0, 60, 57
1, 67338, Note_off_c, 0, 70, 36
1, 67423, Note_off_c, 0, 84, 60
1, 67424, Note_on_c, 0, 76, 55
1, 67477, Control_c, 0, 67, 115
1, 67486, Note_off_c, 0, 76, 62
1, 67491, Control_c, 0, 67, 96
1, 67506, Control_c, 0, 67, 74
1, 67515, Note_on_c, 0, 85, 73
1, 67521, Control_c, 0, 67, 51
1, 67534, Note_on_c, 0, 71, 38
1, 67536, Control_c, 0, 67, 26
1, 67550, Control_c, 0, 67, 0
1, 67565, Note_off_c, 0, 71, 53
1, 67658, Note_off_c, 0, 85, 63
1, 67673, Note_on_c, 0, 86, 62
1, 67712, Note_on_c, 0, 71, 80
1, 67712, Note_on_c, 0, 72, 23
1, 67735, Note_on_c, 0, 56, 56
1, 67749, Note_off_c, 0, 72, 44
1, 67906, Note_off_c, 0, 71, 57
1, 67969, Note_on_c, 0, 60, 52
1, 67987, Note_off_c, 0, 56, 58
1, 68019, Note_off_c, 0, 60, 59
1, 68115, Note_on_c, 0, 66, 47
1, 68147, Note_off_c, 0, 66, 61
1, 68150, Note_off_c, 0, 86, 45
1, 68267, Note_on_c, 0, 66, 77
1, 68487, Note_on_c, 0, 60, 41
1, 68568, Note_off_c, 0, 60, 55
1, 68718, Note_on_c, 0, 71, 56
1, 68748, Note_off_c, 0, 71, 64
1, 68813, Note_off_c, 0, 66, 52
1, 69044, Note_on_c, 0, 66, 81
1, 69145, Note_off_c, 0, 66, 61
1, 69194, Note_on_c, 0, 66, 78
1, 69359, Note_on_c, 0, 52, 75
1, 69426, Control_c, 0, 64, 106
1, 69441, Control_c, 0, 64, 84
1, 69456, Control_c, 0, 64, 65
1, 69471, Control_c, 0, 64, 0
1, 69607, Note_off_c, 0, 66, 64
1, 69608, Note_on_c, 0, 62, 70
1, 69620, Control_c, 0, 64, 57
1, 69635, Control_c, 0, 64, 80
1, 69650, Control_c, 0, 64, 97
1, 69665, Note_off_c, 0, 52, 51
1, 69665, Control_c, 0, 64, 127
1, 69709, Note_on_c, 0, 86, 89
1, 69717, Note_on_c, 0, 72, 81
1, 69739, Note_off_c, 0, 62, 61
1, 69739, Note_off_c, 0, 72, 68
1, 69770, Note_off_c, 0, 86, 64
1, 69811, Note_on_c, 0, 68, 66
1, 69851, Note_off_c, 0, 68, 61
1, 69941, Note_on_c, 0, 67, 34
1, 69942, Note_on_c, 0, 66, 64
1, 69973, Note_off_c, 0, 67, 49
1, 70009, Note_on_c, 0, 72, 66
1, 70048, Note_on_c, 0, 92, 88
1, 70058, Note_on_c, 0, 78, 77
1, 70058, Note_off_c, 0, 72, 62
1, 70085, Note_off_c, 0, 66, 59
1, 70094, Note_off_c, 0, 78, 62
1, 70101, Note_off_c, 0, 92, 67
1, 70512, Note_on_c, 0, 34, 65
1, 70528, Note_on_c, 0, 46, 46
1, 70564, Note_off_c, 0, 46, 59
1, 70609, Note_off_c, 0, 34, 61
1, 70924, Note_on_c, 0, 56, 52
1, 71154, Note_on_c, 0, 62, 43
1, 71229, Note_off_c, 0, 62, 58
1, 71242, Note_off_c, 0, 56, 57
1, 71348, Note_on_c, 0, 66, 46
1, 71415, Note_off_c, 0, 66, 51
1, 71526, Note_on_c, 0, 72, 67
1, 71577, Note_off_c, 0, 72, 62
1, 72014, Control_c, 0, 67, 19
1, 72103, Control_c, 0, 67, 22
1, 72132, Control_c, 0, 67, 25
1, 72162, Control_c, 0, 67, 27
1, 72206, Control_c, 0, 67, 29
1, 72221, Control_c, 0, 67, 33
1, 72236, Control_c, 0, 67, 38
1, 72251, Control_c, 0, 67, 43
1, 72265, Control_c, 0, 67, 48
1, 72288, Control_c, 0, 67, 53
1, 72303, Control_c, 0, 67, 58
1, 72318, Control_c, 0, 67, 62
1, 72332, Control_c, 0, 67, 68
1, 72333, Note_on_c, 0, 72, 38
1, 72347, Control_c, 0, 67, 73
1, 72362, Control_c, 0, 67, 80
1, 72377, Control_c, 0, 67, 86
1, 72392, Control_c, 0, 67, 91
1, 72406, Control_c, 0, 67, 95
1, 72410, Note_off_c, 0, 72, 39
1, 72421, Control_c, 0, 67, 98
1, 72436, Control_c, 0, 67, 102
1, 72451, Control_c, 0, 67, 105
1, 72465, Control_c, 0, 67, 108
1, 72480, Control_c, 0, 67, 111
1, 72495, Control_c, 0, 67, 114
1, 72511, Control_c, 0, 67, 116
1, 72540, Control_c, 0, 64, 110
1, 72540, Control_c, 0, 67, 119
1, 72554, Note_on_c, 0, 72, 49
1, 72555, Control_c, 0, 64, 99
1, 72570, Control_c, 0, 64, 87
1, 72570, Control_c, 0, 67, 121
1, 72585, Control_c, 0, 64, 75
1, 72600, Control_c, 0, 64, 64
1, 72600, Control_c, 0, 67, 124
1, 72616, Control_c, 0, 64, 46
1, 72630, Control_c, 0, 64, 0
1, 72630, Control_c, 0, 67, 126
1, 72719, Control_c, 0, 64, 34
1, 72734, Control_c, 0, 64, 53
1, 72749, Control_c, 0, 64, 62
1, 72750, Note_off_c, 0, 72, 52
1, 72763, Control_c, 0, 64, 65
1, 72778, Control_c, 0, 64, 67
1, 72793, Control_c, 0, 64, 70
1, 72808, Control_c, 0, 64, 74
1, 72820, Note_on_c, 0, 98, 69
1, 72823, Control_c, 0, 64, 79
1, 72837, Control_c, 0, 64, 84
1, 72848, Note_on_c, 0, 84, 59
1, 72852, Control_c, 0, 64, 89
1, 72867, Control_c, 0, 64, 94
1, 72869, Note_off_c, 0, 84, 66
1, 72881, Note_off_c, 0, 98, 65
1, 72881, Control_c, 0, 64, 99
1, 72896, Control_c, 0, 64, 104
1, 72911, Control_c, 0, 64, 111
1, 72926, Control_c, 0, 64, 127
1, 73044, Note_on_c, 0, 91, 69
1, 73060, Note_on_c, 0, 77, 55
1, 73087, Note_off_c, 0, 77, 57
1, 73126, Control_c, 0, 67, 124
1, 73153, Note_off_c, 0, 91, 59
1, 73189, Note_on_c, 0, 52, 31
1, 73199, Note_on_c, 0, 92, 72
1, 73210, Note_on_c, 0, 78, 60
1, 73242, Note_off_c, 0, 78, 55
1, 73242, Note_off_c, 0, 92, 59
1, 73338, Note_on_c, 0, 62, 45
1, 73352, Note_on_c, 0, 86, 61
1, 73363, Control_c, 0, 64, 118
1, 73370, Note_on_c, 0, 72, 35
1, 73378, Control_c, 0, 64, 103
1, 73387, Note_off_c, 0, 52, 41
1, 73393, Control_c, 0, 64, 91
1, 73403, Note_off_c, 0, 72, 48
1, 73409, Control_c, 0, 64, 83
1, 73410, Note_off_c, 0, 86, 42
1, 73424, Control_c, 0, 64, 80
1, 73453, Control_c, 0, 64, 83
1, 73465, Note_off_c, 0, 62, 33
1, 73468, Control_c, 0, 64, 87
1, 73471, Note_on_c, 0, 87, 66
1, 73482, Note_on_c, 0, 73, 57
1, 73483, Control_c, 0, 64, 92
1, 73498, Control_c, 0, 64, 96
1, 73512, Control_c, 0, 64, 99
1, 73521, Note_off_c, 0, 73, 55
1, 73527, Control_c, 0, 64, 103
1, 73542, Control_c, 0, 64, 108
1, 73557, Control_c, 0, 64, 116
1, 73572, Control_c, 0, 64, 127
1, 73573, Poly_aftertouch_c, 0, 68, 127
1, 73603, Poly_aftertouch_c, 0, 68, 0
1, 73691, Note_on_c, 0, 73, 73
1, 73691, Note_off_c, 0, 87, 43
1, 73725, Note_on_c, 0, 88, 63
1, 73732, Note_off_c, 0, 73, 59
1, 73739, Note_on_c, 0, 74, 44
1, 73801, Note_off_c, 0, 74, 61
1, 73860, Control_c, 0, 67, 122
1, 73973, Note_off_c, 0, 88, 63
1, 74096, Note_on_c, 0, 46, 44
1, 74208, Note_off_c, 0, 46, 51
1, 74238, Note_on_c, 0, 56, 52
1, 74294, Note_off_c, 0, 56, 56
1, 74328, Note_on_c, 0, 62, 50
1, 74355, Note_off_c, 0, 62, 58
1, 74427, Note_on_c, 0, 68, 59
1, 74453, Control_c, 0, 64, 78
1, 74468, Note_on_c, 0, 52, 60
1, 74468, Control_c, 0, 64, 51
1, 74483, Control_c, 0, 64, 0
1, 74512, Note_off_c, 0, 68, 63
1, 74517, Note_on_c, 0, 62, 48
1, 74539, Note_off_c, 0, 52, 58
1, 74550, Control_c, 0, 64, 30
1, 74565, Control_c, 0, 64, 57
1, 74580, Control_c, 0, 64, 66
1, 74595, Control_c, 0, 64, 70
1, 74598, Note_on_c, 0, 68, 64
1, 74607, Note_off_c, 0, 62, 62
1, 74609, Control_c, 0, 64, 74
1, 74624, Control_c, 0, 64, 76
1, 74639, Control_c, 0, 64, 79
1, 74653, Control_c, 0, 64, 84
1, 74658, Note_off_c, 0, 68, 41
1, 74668, Control_c, 0, 64, 91
1, 74670, Note_on_c, 0, 72, 70
1, 74683, Control_c, 0, 64, 98
1, 74694, Note_off_c, 0, 72, 70
1, 74698, Control_c, 0, 64, 106
1, 74713, Control_c, 0, 64, 117
1, 74727, Control_c, 0, 64, 127
1, 74860, Control_c, 0, 67, 124
1, 74884, Note_on_c, 0, 98, 87
1, 74906, Note_on_c, 0, 84, 70
1, 74930, Note_off_c, 0, 84, 69
1, 74935, Note_off_c, 0, 98, 65
1, 75102, Note_on_c, 0, 91, 74
1, 75127, Note_on_c, 0, 77, 52
1, 75149, Note_off_c, 0, 77, 64
1, 75197, Note_off_c, 0, 91, 59
1, 75243, Note_on_c, 0, 92, 73
1, 75257, Note_on_c, 0, 78, 58
1, 75293, Note_off_c, 0, 78, 62
1, 75297, Note_off_c, 0, 92, 63
1, 75352, Note_on_c, 0, 46, 44
1, 75373, Control_c, 0, 64, 100
1, 75388, Control_c, 0, 64, 92
1, 75402, Control_c, 0, 64, 91
1, 75406, Note_off_c, 0, 46, 59
1, 75407, Note_on_c, 0, 86, 59
1, 75411, Note_on_c, 0, 56, 48
1, 75426, Note_on_c, 0, 72, 33
1, 75459, Note_off_c, 0, 72, 44
1, 75462, Control_c, 0, 64, 91
1, 75463, Note_off_c, 0, 56, 54
1, 75476, Control_c, 0, 64, 93
1, 75480, Note_off_c, 0, 86, 58
1, 75483, Note_on_c, 0, 62, 39
1, 75491, Control_c, 0, 64, 96
1, 75519, Note_off_c, 0, 62, 53
1, 75520, Control_c, 0, 64, 98
1, 75564, Note_on_c, 0, 87, 58
1, 75589, Note_on_c, 0, 73, 20
1, 75632, Note_off_c, 0, 73, 50
1, 75802, Control_c, 0, 64, 96
1, 75828, Note_off_c, 0, 87, 38
1, 75904, Note_on_c, 0, 88, 50
1, 75925, Note_on_c, 0, 72, 46
1, 75932, Note_on_c, 0, 74, 40
1, 75961, Note_on_c, 0, 68, 34
1, 75996, Note_off_c, 0, 68, 55
1, 76008, Note_off_c, 0, 72, 56
1, 76047, Note_off_c, 0, 74, 36
1, 76083, Note_off_c, 0, 88, 59
1, 76655, Control_c, 0, 67, 122
1, 76685, Control_c, 0, 67, 119
1, 76714, Control_c, 0, 67, 116
1, 76729, Control_c, 0, 67, 114
1, 76744, Control_c, 0, 67, 111
1, 76759, Control_c, 0, 67, 107
1, 76781, Control_c, 0, 67, 97
1, 76796, Control_c, 0, 67, 77
1, 76810, Control_c, 0, 67, 53
1, 76825, Control_c, 0, 67, 29
1, 76840, Control_c, 0, 67, 22
1, 76884, Control_c, 0, 67, 26
1, 76899, Control_c, 0, 67, 29
1, 76914, Control_c, 0, 64, 98
1, 76914, Control_c, 0, 67, 32
1, 76929, Control_c, 0, 64, 100
1, 76929, Control_c, 0, 67, 34
1, 76944, Control_c, 0, 67, 35
1, 76959, Control_c, 0, 64, 102
1, 76959, Control_c, 0, 67, 35
1, 77002, Control_c, 0, 64, 105
1, 77017, Control_c, 0, 64, 108
1, 77032, Control_c, 0, 64, 111
1, 77076, Control_c, 0, 64, 86
1, 77091, Control_c, 0, 64, 59
1, 77106, Control_c, 0, 64, 0
1, 77106, Control_c, 0, 67, 35
1, 77114, Note_on_c, 0, 68, 79
1, 77117, Note_on_c, 0, 52, 64
1, 77119, Note_on_c, 0, 62, 76
1, 77120, Control_c, 0, 67, 34
1, 77133, Note_off_c, 0, 68, 71
1, 77135, Control_c, 0, 67, 34
1, 77143, Note_off_c, 0, 62, 66
1, 77150, Note_off_c, 0, 52, 65
1, 77150, Control_c, 0, 67, 33
1, 77165, Control_c, 0, 67, 33
1, 77209, Control_c, 0, 67, 32
1, 77239, Control_c, 0, 67, 32
1, 77324, Note_on_c, 0, 91, 70
1, 77343, Note_on_c, 0, 77, 32
1, 77347, Note_off_c, 0, 91, 70
1, 77372, Control_c, 0, 67, 32
1, 77376, Note_off_c, 0, 77, 33
1, 77433, Control_c, 0, 67, 33
1, 77512, Note_on_c, 0, 62, 56
1, 77513, Note_on_c, 0, 46, 58
1, 77513, Note_on_c, 0, 92, 83
1, 77524, Note_on_c, 0, 56, 51
1, 77525, Note_on_c, 0, 78, 70
1, 77540, Note_off_c, 0, 92, 72
1, 77542, Note_off_c, 0, 62, 59
1, 77544, Control_c, 0, 64, 49
1, 77544, Control_c, 0, 67, 32
1, 77549, Note_off_c, 0, 46, 64
1, 77549, Note_off_c, 0, 78, 65
1, 77550, Note_off_c, 0, 56, 55
1, 77558, Control_c, 0, 64, 42
1, 77573, Control_c, 0, 64, 0
1, 77573, Control_c, 0, 67, 32
1, 77698, Note_on_c, 0, 86, 69
1, 77710, Note_on_c, 0, 72, 50
1, 77721, Note_off_c, 0, 86, 68
1, 77734, Note_off_c, 0, 72, 55
1, 77867, Note_on_c, 0, 68, 79
1, 77871, Control_c, 0, 67, 30
1, 77884, Note_on_c, 0, 52, 47
1, 77886, Note_off_c, 0, 68, 71
1, 77888, Note_on_c, 0, 62, 47
1, 77900, Control_c, 0, 67, 28
1, 77912, Note_off_c, 0, 52, 54
1, 77916, Note_off_c, 0, 62, 51
1, 78032, Note_on_c, 0, 91, 71
1, 78039, Note_on_c, 0, 77, 55
1, 78053, Note_off_c, 0, 91, 70
1, 78059, Note_off_c, 0, 77, 61
1, 78107, Control_c, 0, 67, 30
1, 78187, Note_on_c, 0, 46, 72
1, 78190, Note_on_c, 0, 62, 66
1, 78190, Note_on_c, 0, 92, 90
1, 78192, Note_on_c, 0, 56, 69
1, 78202, Note_on_c, 0, 78, 72
1, 78210, Note_off_c, 0, 46, 67
1, 78213, Note_off_c, 0, 56, 64
1, 78213, Note_off_c, 0, 92, 69
1, 78217, Note_off_c, 0, 62, 63
1, 78222, Note_off_c, 0, 78, 70
1, 78226, Control_c, 0, 64, 44
1, 78241, Control_c, 0, 64, 0
1, 78294, Control_c, 0, 67, 28
1, 78353, Note_on_c, 0, 86, 77
1, 78360, Note_on_c, 0, 72, 60
1, 78376, Note_off_c, 0, 86, 68
1, 78378, Note_off_c, 0, 72, 63
1, 78412, Control_c, 0, 64, 31
1, 78426, Control_c, 0, 64, 37
1, 78441, Control_c, 0, 64, 43
1, 78456, Control_c, 0, 64, 49
1, 78471, Control_c, 0, 64, 45
1, 78486, Control_c, 0, 64, 0
1, 78496, Note_on_c, 0, 71, 88
1, 78500, Control_c, 0, 67, 22
1, 78503, Note_on_c, 0, 65, 81
1, 78505, Note_on_c, 0, 55, 71
1, 78513, Note_off_c, 0, 71, 73
1, 78515, Control_c, 0, 67, 0
1, 78524, Note_off_c, 0, 65, 72
1, 78530, Note_off_c, 0, 55, 68
1, 78642, Note_on_c, 0, 80, 77
1, 78643, Note_on_c, 0, 94, 91
1, 78664, Note_off_c, 0, 80, 68
1, 78673, Note_off_c, 0, 94, 66
1, 78786, Note_on_c, 0, 65, 75
1, 78789, Note_on_c, 0, 59, 76
1, 78791, Note_on_c, 0, 95, 95
1, 78792, Note_on_c, 0, 49, 64
1, 78792, Note_on_c, 0, 81, 88
1, 78810, Note_off_c, 0, 65, 69
1, 78811, Note_off_c, 0, 59, 70
1, 78815, Note_off_c, 0, 81, 66
1, 78816, Note_off_c, 0, 49, 61
1, 78817, Note_off_c, 0, 95, 63
1, 78826, Control_c, 0, 64, 32
1, 78838, Note_on_c, 0, 93, 17
1, 78838, Note_off_c, 0, 93, 127
1, 78841, Control_c, 0, 64, 48
1, 78856, Control_c, 0, 64, 0
1, 78926, Note_on_c, 0, 75, 81
1, 78926, Note_on_c, 0, 89, 93
1, 78930, Control_c, 0, 64, 58
1, 78944, Control_c, 0, 64, 69
1, 78946, Note_off_c, 0, 75, 71
1, 78952, Note_off_c, 0, 89, 65
1, 78959, Control_c, 0, 64, 70
1, 78965, Note_on_c, 0, 62, 24
1, 78974, Control_c, 0, 64, 69
1, 78990, Control_c, 0, 64, 64
1, 78998, Note_off_c, 0, 62, 53
1, 79005, Control_c, 0, 64, 38
1, 79028, Control_c, 0, 64, 0
1, 79059, Note_on_c, 0, 74, 89
1, 79061, Note_on_c, 0, 68, 89
1, 79072, Note_on_c, 0, 58, 71
1, 79076, Note_off_c, 0, 74, 73
1, 79080, Note_off_c, 0, 68, 71
1, 79094, Note_off_c, 0, 58, 68
1, 79191, Note_on_c, 0, 97, 103
1, 79198, Note_on_c, 0, 83, 74
1, 79212, Note_off_c, 0, 83, 69
1, 79212, Note_off_c, 0, 97, 69
1, 79313, Note_on_c, 0, 68, 88
1, 79320, Note_on_c, 0, 52, 63
1, 79323, Note_on_c, 0, 62, 77
1, 79325, Note_on_c, 0, 98, 95
1, 79326, Note_on_c, 0, 84, 100
1, 79329, Note_off_c, 0, 68, 73
1, 79331, Note_on_c, 0, 96, 89
1, 79338, Control_c, 0, 64, 58
1, 79341, Note_off_c, 0, 52, 61
1, 79348, Note_off_c, 0, 62, 66
1, 79353, Note_off_c, 0, 84, 66
1, 79353, Control_c, 0, 64, 89
1, 79355, Note_off_c, 0, 96, 66
1, 79358, Note_off_c, 0, 98, 68
1, 79367, Control_c, 0, 64, 127
1, 79442, Control_c, 0, 64, 94
1, 79448, Note_on_c, 0, 92, 91
1, 79451, Note_on_c, 0, 78, 82
1, 79457, Control_c, 0, 64, 60
1, 79457, Control_c, 0, 67, 21
1, 79460, Note_off_c, 0, 92, 73
1, 79470, Note_off_c, 0, 78, 70
1, 79472, Control_c, 0, 64, 0
1, 79472, Control_c, 0, 67, 38
1, 79487, Control_c, 0, 67, 59
1, 79502, Control_c, 0, 67, 84
1, 79517, Control_c, 0, 67, 105
1, 79531, Control_c, 0, 67, 124
1, 79546, Control_c, 0, 67, 127
1, 79654, Note_on_c, 0, 80, 56
1, 79662, Note_on_c, 0, 62, 43
1, 79672, Note_on_c, 0, 58, 32
1, 79672, Note_on_c, 0, 66, 40
1, 79680, Note_on_c, 0, 52, 38
1, 79693, Note_off_c, 0, 80, 63
1, 79698, Note_off_c, 0, 66, 50
1, 79753, Control_c, 0, 64, 50
1, 79775, Note_on_c, 0, 81, 68
1, 79775, Control_c, 0, 64, 59
1, 79785, Note_on_c, 0, 67, 37
1, 79790, Note_off_c, 0, 62, 63
1, 79790, Control_c, 0, 64, 61
1, 79803, Note_off_c, 0, 81, 66
1, 79806, Note_off_c, 0, 52, 62
1, 79806, Control_c, 0, 64, 62
1, 79814, Note_off_c, 0, 67, 50
1, 79821, Control_c, 0, 64, 62
1, 79835, Control_c, 0, 64, 57
1, 79850, Control_c, 0, 64, 47
1, 79859, Note_on_c, 0, 82, 83
1, 79865, Control_c, 0, 64, 30
1, 79869, Note_on_c, 0, 68, 64
1, 79876, Note_off_c, 0, 58, 52
1, 79880, Control_c, 0, 64, 0
1, 79883, Note_off_c, 0, 82, 63
1, 79890, Note_off_c, 0, 68, 66
1, 79945, Note_on_c, 0, 65, 73
1, 79954, Control_c, 0, 64, 34
1, 79958, Note_on_c, 0, 83, 68
1, 79961, Note_on_c, 0, 69, 55
1, 79967, Note_on_c, 0, 55, 43
1, 79969, Control_c, 0, 64, 59
1, 79971, Note_on_c, 0, 49, 52
1, 79971, Note_off_c, 0, 65, 67
1, 79979, Note_off_c, 0, 83, 67
1, 79981, Note_off_c, 0, 69, 61
1, 79984, Control_c, 0, 64, 67
1, 79993, Note_off_c, 0, 55, 52
1, 79999, Control_c, 0, 64, 72
1, 79999, Note_off_c, 0, 49, 60
1, 80014, Control_c, 0, 64, 77
1, 80029, Control_c, 0, 64, 79
1, 80037, Note_on_c, 0, 70, 79
1, 80043, Note_on_c, 0, 84, 73
1, 80048, Note_on_c, 0, 83, 68
1, 80059, Note_off_c, 0, 70, 71
1, 80059, Control_c, 0, 64, 77
1, 80064, Note_off_c, 0, 83, 66
1, 80066, Note_off_c, 0, 84, 68
1, 80072, Note_on_c, 0, 52, 59
1, 80073, Control_c, 0, 64, 71
1, 80084, Note_on_c, 0, 46, 61
1, 80088, Control_c, 0, 64, 63
1, 80103, Control_c, 0, 64, 50
1, 80107, Note_on_c, 0, 85, 78
1, 80116, Note_off_c, 0, 46, 66
1, 80118, Control_c, 0, 64, 0
1, 80122, Note_off_c, 0, 52, 61
1, 80135, Note_on_c, 0, 62, 64
1, 80148, Note_off_c, 0, 85, 63
1, 80162, Note_off_c, 0, 62, 66
1, 80191, Control_c, 0, 64, 41
1, 80196, Note_on_c, 0, 68, 79
1, 80197, Note_on_c, 0, 86, 92
1, 80206, Control_c, 0, 64, 55
1, 80208, Note_on_c, 0, 72, 69
1, 80216, Note_off_c, 0, 68, 71
1, 80221, Control_c, 0, 64, 63
1, 80226, Note_off_c, 0, 72, 66
1, 80230, Note_off_c, 0, 86, 61
1, 80236, Control_c, 0, 64, 67
1, 80251, Control_c, 0, 64, 69
1, 80265, Control_c, 0, 64, 71
1, 80280, Control_c, 0, 64, 72
1, 80288, Note_on_c, 0, 87, 87
1, 80289, Note_on_c, 0, 73, 84
1, 80295, Control_c, 0, 64, 71
1, 80310, Control_c, 0, 64, 69
1, 80324, Control_c, 0, 64, 65
1, 80325, Note_off_c, 0, 73, 63
1, 80330, Note_off_c, 0, 87, 64
1, 80339, Control_c, 0, 64, 57
1, 80354, Control_c, 0, 64, 40
1, 80369, Control_c, 0, 64, 0
1, 80371, Note_on_c, 0, 88, 85
1, 80378, Note_on_c, 0, 74, 69
1, 80396, Note_off_c, 0, 74, 65
1, 80415, Note_off_c, 0, 88, 64
1, 80421, Note_on_c, 0, 71, 61
1, 80426, Note_on_c, 0, 59, 58
1, 80429, Control_c, 0, 64, 31
1, 80432, Note_on_c, 0, 65, 61
1, 80440, Note_off_c, 0, 71, 64
1, 80444, Control_c, 0, 64, 55
1, 80446, Note_off_c, 0, 59, 64
1, 80454, Note_off_c, 0, 65, 61
1, 80456, Note_on_c, 0, 89, 82
1, 80458, Control_c, 0, 64, 64
1, 80463, Note_on_c, 0, 75, 67
1, 80473, Control_c, 0, 64, 69
1, 80487, Note_off_c, 0, 75, 67
1, 80488, Note_off_c, 0, 89, 64
1, 80488, Control_c, 0, 64, 74
1, 80503, Control_c, 0, 64, 76
1, 80524, Control_c, 0, 64, 77
1, 80542, Note_on_c, 0, 90, 84
1, 80551, Note_on_c, 0, 76, 69
1, 80554, Control_c, 0, 64, 77
1, 80563, Note_on_c, 0, 49, 64
1, 80566, Note_on_c, 0, 43, 52
1, 80567, Note_off_c, 0, 76, 67
1, 80569, Control_c, 0, 64, 73
1, 80573, Note_off_c, 0, 90, 62
1, 80584, Note_off_c, 0, 49, 65
1, 80584, Control_c, 0, 64, 64
1, 80596, Note_off_c, 0, 43, 53
1, 80600, Control_c, 0, 64, 45
1, 80615, Control_c, 0, 64, 0
1, 80634, Note_on_c, 0, 91, 92
1, 80654, Note_on_c, 0, 77, 47
1, 80660, Note_off_c, 0, 91, 63
1, 80678, Note_off_c, 0, 77, 38
1, 80691, Note_on_c, 0, 40, 31
1, 80731, Note_on_c, 0, 92, 92
1, 80747, Note_on_c, 0, 78, 57
1, 80747, Note_off_c, 0, 92, 74
1, 80766, Note_off_c, 0, 78, 62
1, 80807, Control_c, 0, 64, 44
1, 80810, Note_on_c, 0, 46, 53
1, 80813, Note_on_c, 0, 92, 91
1, 80821, Control_c, 0, 64, 59
1, 80834, Note_on_c, 0, 78, 46
1, 80836, Control_c, 0, 64, 64
1, 80840, Note_off_c, 0, 92, 64
1, 80849, Note_off_c, 0, 78, 41
1, 80851, Control_c, 0, 64, 67
1, 80855, Note_off_c, 0, 40, 62
1, 80855, Note_off_c, 0, 46, 63
1, 80866, Control_c, 0, 64, 70
1, 80870, Note_on_c, 0, 56, 66
1, 80881, Control_c, 0, 64, 74
1, 80895, Control_c, 0, 64, 80
1, 80896, Note_off_c, 0, 56, 63
1, 80900, Note_on_c, 0, 92, 80
1, 80910, Control_c, 0, 64, 84
1, 80920, Note_off_c, 0, 92, 72
1, 80925, Control_c, 0, 64, 85
1, 80927, Note_on_c, 0, 78, 20
1, 80927, Note_off_c, 0, 78, 127
1, 80954, Control_c, 0, 64, 86
1, 80970, Note_on_c, 0, 78, 40
1, 80979, Note_on_c, 0, 92, 88
1, 80984, Control_c, 0, 64, 87
1, 80990, Note_on_c, 0, 62, 64
1, 80999, Control_c, 0, 64, 88
1, 81001, Note_off_c, 0, 78, 63
1, 81001, Note_off_c, 0, 92, 67
1, 81013, Control_c, 0, 64, 88
1, 81025, Note_off_c, 0, 62, 64
1, 81043, Control_c, 0, 64, 89
1, 81057, Note_on_c, 0, 72, 80
1, 81058, Control_c, 0, 64, 91
1, 81063, Note_on_c, 0, 78, 78
1, 81067, Note_on_c, 0, 92, 82
1, 81073, Control_c, 0, 64, 96
1, 81075, Note_off_c, 0, 72, 72
1, 81084, Note_off_c, 0, 78, 67
1, 81087, Note_off_c, 0, 92, 71
1, 81087, Control_c, 0, 64, 104
1, 81102, Control_c, 0, 64, 108
1, 81132, Control_c, 0, 64, 110
1, 81147, Control_c, 0, 64, 122
1, 81150, Note_on_c, 0, 78, 76
1, 81151, Note_on_c, 0, 92, 83
1, 81162, Control_c, 0, 64, 127
1, 81170, Note_off_c, 0, 78, 59
1, 81180, Note_off_c, 0, 92, 63
1, 81231, Note_on_c, 0, 78, 69
1, 81245, Note_on_c, 0, 92, 76
1, 81269, Note_off_c, 0, 78, 64
1, 81274, Note_off_c, 0, 92, 70
1, 81333, Note_on_c, 0, 78, 66
1, 81335, Note_on_c, 0, 92, 83
1, 81351, Note_off_c, 0, 78, 65
1, 81356, Note_off_c, 0, 92, 69
1, 81417, Note_on_c, 0, 78, 83
1, 81421, Note_on_c, 0, 92, 90
1, 81439, Note_off_c, 0, 78, 64
1, 81454, Note_off_c, 0, 92, 62
1, 81511, Note_on_c, 0, 92, 82
1, 81511, Note_on_c, 0, 72, 68
1, 81515, Note_on_c, 0, 78, 77
1, 81528, Note_off_c, 0, 78, 71
1, 81532, Note_off_c, 0, 72, 65
1, 81541, Note_off_c, 0, 92, 63
1, 81585, Control_c, 0, 67, 124
1, 81599, Note_on_c, 0, 92, 89
1, 81600, Control_c, 0, 67, 108
1, 81600, Note_on_c, 0, 78, 67
1, 81615, Control_c, 0, 67, 87
1, 81624, Note_off_c, 0, 78, 65
1, 81630, Control_c, 0, 67, 66
1, 81639, Note_off_c, 0, 92, 62
1, 81644, Control_c, 0, 67, 45
1, 81659, Control_c, 0, 67, 29
1, 81674, Control_c, 0, 67, 20
1, 81700, Note_on_c, 0, 92, 86
1, 81702, Note_on_c, 0, 78, 79
1, 81704, Control_c, 0, 67, 23
1, 81718, Control_c, 0, 67, 26
1, 81723, Note_off_c, 0, 78, 70
1, 81725, Note_off_c, 0, 92, 66
1, 81733, Control_c, 0, 67, 28
1, 81748, Control_c, 0, 67, 30
1, 81762, Control_c, 0, 67, 34
1, 81777, Control_c, 0, 64, 104
1, 81777, Control_c, 0, 67, 41
1, 81792, Control_c, 0, 64, 72
1, 81792, Control_c, 0, 67, 53
1, 81807, Control_c, 0, 64, 42
1, 81807, Control_c, 0, 67, 72
1, 81822, Control_c, 0, 64, 0
1, 81822, Control_c, 0, 67, 85
1, 81826, Note_on_c, 0, 67, 81
1, 81836, Control_c, 0, 67, 96
1, 81845, Note_on_c, 0, 56, 48
1, 81851, Control_c, 0, 67, 105
1, 81857, Note_on_c, 0, 62, 48
1, 81866, Control_c, 0, 67, 111
1, 81881, Control_c, 0, 67, 115
1, 81893, Note_off_c, 0, 67, 62
1, 81896, Control_c, 0, 64, 33
1, 81896, Control_c, 0, 67, 118
1, 81910, Control_c, 0, 64, 63
1, 81925, Control_c, 0, 64, 71
1, 81940, Control_c, 0, 64, 75
1, 81945, Note_off_c, 0, 62, 61
1, 81946, Note_on_c, 0, 66, 75
1, 81955, Control_c, 0, 64, 75
1, 81964, Note_off_c, 0, 66, 67
1, 81969, Note_off_c, 0, 56, 60
1, 82022, Control_c, 0, 67, 120
1, 82026, Note_on_c, 0, 92, 92
1, 82036, Note_on_c, 0, 78, 69
1, 82037, Control_c, 0, 64, 72
1, 82051, Control_c, 0, 64, 67
1, 82051, Control_c, 0, 67, 125
1, 82052, Note_off_c, 0, 78, 68
1, 82066, Note_off_c, 0, 92, 64
1, 82066, Control_c, 0, 64, 61
1, 82066, Control_c, 0, 67, 127
1, 82081, Control_c, 0, 64, 56
1, 82095, Control_c, 0, 64, 59
1, 82106, Note_on_c, 0, 46, 78
1, 82110, Control_c, 0, 64, 62
1, 82125, Control_c, 0, 64, 63
1, 82126, Note_on_c, 0, 92, 82
1, 82128, Note_off_c, 0, 46, 68
1, 82133, Note_on_c, 0, 78, 63
1, 82140, Control_c, 0, 64, 55
1, 82146, Note_off_c, 0, 92, 73
1, 82152, Note_off_c, 0, 78, 66
1, 82155, Control_c, 0, 64, 37
1, 82170, Control_c, 0, 64, 0
1, 82230, Note_on_c, 0, 86, 85
1, 82244, Note_on_c, 0, 72, 61
1, 82258, Note_off_c, 0, 86, 63
1, 82264, Note_off_c, 0, 72, 63
1, 82313, Note_on_c, 0, 66, 58
1, 82330, Note_on_c, 0, 56, 41
1, 82336, Note_on_c, 0, 72, 65
1, 82336, Note_on_c, 0, 86, 78
1, 82348, Note_on_c, 0, 62, 48
1, 82353, Note_off_c, 0, 72, 65
1, 82354, Note_off_c, 0, 66, 50
1, 82366, Note_off_c, 0, 86, 61
1, 82418, Note_on_c, 0, 85, 81
1, 82420, Note_off_c, 0, 62, 58
1, 82436, Note_on_c, 0, 65, 44
1, 82456, Note_off_c, 0, 85, 64
1, 82475, Note_off_c, 0, 65, 54
1, 82514, Note_on_c, 0, 86, 78
1, 82515, Note_on_c, 0, 66, 64
1, 82527, Control_c, 0, 64, 39
1, 82530, Note_on_c, 0, 72, 64
1, 82541, Note_off_c, 0, 56, 55
1, 82542, Note_off_c, 0, 86, 63
1, 82542, Control_c, 0, 64, 52
1, 82548, Note_off_c, 0, 72, 65
1, 82557, Control_c, 0, 64, 55
1, 82572, Control_c, 0, 64, 59
1, 82586, Control_c, 0, 64, 62
1, 82601, Control_c, 0, 64, 64
1, 82609, Note_on_c, 0, 85, 84
1, 82616, Control_c, 0, 64, 66
1, 82620, Note_on_c, 0, 71, 62
1, 82631, Control_c, 0, 64, 69
1, 82636, Note_off_c, 0, 85, 67
1, 82639, Note_off_c, 0, 71, 64
1, 82646, Control_c, 0, 64, 71
1, 82658, Note_off_c, 0, 66, 60
1, 82660, Control_c, 0, 64, 73
1, 82675, Control_c, 0, 64, 75
1, 82690, Control_c, 0, 64, 76
1, 82699, Note_on_c, 0, 84, 83
1, 82718, Note_on_c, 0, 70, 48
1, 82719, Control_c, 0, 64, 75
1, 82722, Note_off_c, 0, 84, 65
1, 82734, Control_c, 0, 64, 68
1, 82742, Note_off_c, 0, 70, 55
1, 82749, Control_c, 0, 64, 58
1, 82772, Control_c, 0, 64, 37
1, 82773, Note_on_c, 0, 65, 69
1, 82785, Note_on_c, 0, 49, 57
1, 82787, Control_c, 0, 64, 0
1, 82787, Note_on_c, 0, 55, 45
1, 82796, Note_on_c, 0, 83, 78
1, 82806, Note_on_c, 0, 69, 65
1, 82822, Note_off_c, 0, 83, 65
1, 82825, Note_off_c, 0, 69, 64
1, 82828, Note_off_c, 0, 49, 65
1, 82831, Control_c, 0, 64, 46
1, 82831, Note_off_c, 0, 55, 64
1, 82834, Note_off_c, 0, 65, 64
1, 82846, Control_c, 0, 64, 59
1, 82861, Control_c, 0, 64, 64
1, 82875, Control_c, 0, 64, 66
1, 82890, Control_c, 0, 64, 69
1, 82895, Note_on_c, 0, 84, 63
1, 82905, Control_c, 0, 64, 72
1, 82913, Note_on_c, 0, 70, 57
1, 82919, Control_c, 0, 64, 75
1, 82922, Note_off_c, 0, 84, 67
1, 82933, Note_off_c, 0, 70, 64
1, 82934, Control_c, 0, 64, 77
1, 82949, Control_c, 0, 64, 77
1, 82977, Note_on_c, 0, 71, 46
1, 82983, Note_on_c, 0, 85, 70
1, 83004, Note_off_c, 0, 71, 55
1, 83010, Control_c, 0, 64, 76
1, 83022, Note_off_c, 0, 85, 57
1, 83024, Control_c, 0, 64, 71
1, 83039, Control_c, 0, 64, 62
1, 83054, Control_c, 0, 64, 47
1, 83069, Control_c, 0, 64, 0
1, 83086, Note_on_c, 0, 67, 54
1, 83097, Note_on_c, 0, 56, 43
1, 83097, Note_on_c, 0, 62, 36
1, 83123, Note_off_c, 0, 67, 52
1, 83128, Control_c, 0, 64, 49
1, 83142, Control_c, 0, 64, 61
1, 83157, Control_c, 0, 64, 64
1, 83164, Note_off_c, 0, 62, 61
1, 83168, Note_on_c, 0, 66, 60
1, 83172, Control_c, 0, 64, 65
1, 83187, Control_c, 0, 64, 66
1, 83190, Note_off_c, 0, 66, 63
1, 83206, Note_off_c, 0, 56, 62
1, 83227, Note_on_c, 0, 92, 81
1, 83240, Note_on_c, 0, 78, 51
1, 83261, Note_off_c, 0, 78, 61
1, 83264, Note_off_c, 0, 92, 62
1, 83276, Control_c, 0, 64, 66
1, 83290, Control_c, 0, 64, 67
1, 83305, Control_c, 0, 64, 67
1, 83325, Note_on_c, 0, 92, 78
1, 83326, Note_on_c, 0, 46, 61
1, 83331, Note_on_c, 0, 78, 72
1, 83344, Note_off_c, 0, 92, 70
1, 83350, Note_off_c, 0, 46, 60
1, 83353, Note_off_c, 0, 78, 70
1, 83380, Control_c, 0, 64, 67
1, 83395, Control_c, 0, 64, 66
1, 83410, Control_c, 0, 64, 65
1, 83421, Note_on_c, 0, 86, 84
1, 83424, Control_c, 0, 64, 63
1, 83430, Note_on_c, 0, 72, 72
1, 83439, Control_c, 0, 64, 55
1, 83442, Note_off_c, 0, 86, 68
1, 83448, Note_off_c, 0, 72, 68
1, 83454, Control_c, 0, 64, 32
1, 83469, Control_c, 0, 64, 0
1, 83493, Note_on_c, 0, 66, 49
1, 83506, Note_on_c, 0, 56, 44
1, 83520, Note_on_c, 0, 62, 50
1, 83521, Note_on_c, 0, 72, 76
1, 83522, Note_on_c, 0, 86, 85
1, 83532, Note_off_c, 0, 66, 59
1, 83541, Note_off_c, 0, 72, 71
1, 83550, Note_off_c, 0, 86, 61
1, 83602, Note_on_c, 0, 85, 88
1, 83606, Note_on_c, 0, 65, 58
1, 83618, Note_on_c, 0, 71, 51
1, 83642, Note_off_c, 0, 71, 60
1, 83642, Note_off_c, 0, 85, 65
1, 83666, Note_off_c, 0, 62, 30
1, 83679, Note_off_c, 0, 65, 63
1, 83684, Control_c, 0, 64, 45
1, 83698, Control_c, 0, 64, 62
1, 83699, Note_on_c, 0, 86, 80
1, 83700, Note_on_c, 0, 72, 73
1, 83703, Note_on_c, 0, 66, 63
1, 83709, Note_off_c, 0, 56, 61
1, 83713, Control_c, 0, 64, 69
1, 83723, Note_off_c, 0, 72, 70
1, 83728, Control_c, 0, 64, 73
1, 83739, Note_off_c, 0, 86, 57
1, 83742, Control_c, 0, 64, 74
1, 83757, Control_c, 0, 64, 76
1, 83772, Control_c, 0, 64, 78
1, 83782, Note_on_c, 0, 85, 79
1, 83788, Note_on_c, 0, 71, 65
1, 83788, Control_c, 0, 64, 80
1, 83803, Control_c, 0, 64, 82
1, 83808, Note_off_c, 0, 71, 63
1, 83818, Control_c, 0, 64, 82
1, 83827, Note_off_c, 0, 85, 62
1, 83833, Control_c, 0, 64, 83
1, 83836, Note_off_c, 0, 66, 61
1, 83871, Note_on_c, 0, 84, 82
1, 83877, Control_c, 0, 64, 82
1, 83892, Control_c, 0, 64, 82
1, 83899, Note_off_c, 0, 84, 60
1, 83907, Control_c, 0, 64, 79
1, 83911, Note_on_c, 0, 70, 17
1, 83921, Control_c, 0, 64, 73
1, 83936, Control_c, 0, 64, 65
1, 83944, Note_off_c, 0, 70, 40
1, 83951, Control_c, 0, 64, 57
1, 83965, Control_c, 0, 64, 43
1, 83971, Note_on_c, 0, 65, 46
1, 83979, Note_on_c, 0, 49, 36
1, 83980, Control_c, 0, 64, 0
1, 83997, Note_on_c, 0, 83, 60
1, 84005, Note_on_c, 0, 59, 36
1, 84018, Note_on_c, 0, 69, 59
1, 84054, Control_c, 0, 64, 45
1, 84069, Control_c, 0, 64, 62
1, 84074, Note_off_c, 0, 49, 61
1, 84080, Note_off_c, 0, 65, 51
1, 84084, Control_c, 0, 64, 70
1, 84091, Note_off_c, 0, 69, 60
1, 84098, Control_c, 0, 64, 78
1, 84109, Note_off_c, 0, 83, 61
1, 84113, Control_c, 0, 64, 85
1, 84128, Note_off_c, 0, 59, 58
1, 84128, Control_c, 0, 64, 91
1, 84143, Control_c, 0, 64, 97
1, 84158, Control_c, 0, 64, 104
1, 84173, Control_c, 0, 64, 107
1, 84202, Control_c, 0, 64, 91
1, 84217, Control_c, 0, 64, 71
1, 84232, Control_c, 0, 64, 49
1, 84247, Control_c, 0, 64, 31
1, 84247, Note_on_c, 0, 64, 52
1, 84269, Control_c, 0, 64, 42
1, 84280, Note_on_c, 0, 53, 45
1, 84284, Control_c, 0, 64, 56
1, 84298, Control_c, 0, 64, 65
1, 84304, Note_off_c, 0, 64, 56
1, 84313, Poly_aftertouch_c, 0, 59, 127
1, 84313, Control_c, 0, 64, 72
1, 84328, Control_c, 0, 64, 77
1, 84340, Poly_aftertouch_c, 0, 59, 0
1, 84343, Note_on_c, 0, 63, 57
1, 84343, Control_c, 0, 64, 79
1, 84356, Note_off_c, 0, 53, 60
1, 84358, Control_c, 0, 64, 79
1, 84364, Note_off_c, 0, 63, 62
1, 84372, Control_c, 0, 64, 80
1, 84381, Note_on_c, 0, 89, 77
1, 84388, Note_on_c, 0, 75, 60
1, 84402, Control_c, 0, 64, 80
1, 84405, Note_off_c, 0, 89, 69
1, 84407, Note_off_c, 0, 75, 63
1, 84417, Control_c, 0, 64, 81
1, 84432, Control_c, 0, 64, 83
1, 84447, Control_c, 0, 64, 84
1, 84462, Control_c, 0, 64, 84
1, 84481, Note_on_c, 0, 75, 68
1, 84483, Note_on_c, 0, 89, 87
1, 84487, Note_on_c, 0, 43, 66
1, 84501, Note_off_c, 0, 89, 71
1, 84507, Note_off_c, 0, 75, 68
1, 84515, Note_off_c, 0, 43, 65
1, 84581, Note_on_c, 0, 83, 88
1, 84590, Note_on_c, 0, 69, 73
1, 84612, Note_off_c, 0, 69, 66
1, 84621, Note_off_c, 0, 83, 61
1, 84641, Control_c, 0, 64, 82
1, 84656, Control_c, 0, 64, 74
1, 84670, Note_on_c, 0, 83, 84
1, 84670, Control_c, 0, 64, 62
1, 84672, Note_on_c, 0, 63, 65
1, 84673, Note_on_c, 0, 69, 76
1, 84679, Note_on_c, 0, 53, 43
1, 84685, Control_c, 0, 64, 32
1, 84692, Note_off_c, 0, 69, 72
1, 84700, Control_c, 0, 64, 0
1, 84700, Note_on_c, 0, 59, 47
1, 84712, Note_off_c, 0, 83, 64
1, 84721, Note_off_c, 0, 63, 46
1, 84761, Note_on_c, 0, 82, 90
1, 84766, Note_on_c, 0, 62, 58
1, 84770, Note_on_c, 0, 68, 77
1, 84784, Note_off_c, 0, 82, 68
1, 84790, Note_off_c, 0, 68, 71
1, 84835, Note_off_c, 0, 62, 54
1, 84854, Note_on_c, 0, 83, 81
1, 84859, Note_off_c, 0, 59, 43
1, 84864, Note_on_c, 0, 69, 64
1, 84868, Note_on_c, 0, 63, 64
1, 84882, Note_off_c, 0, 69, 65
1, 84902, Note_off_c, 0, 83, 59
1, 84907, Note_off_c, 0, 53, 55
1, 84936, Control_c, 0, 64, 41
1, 84945, Note_on_c, 0, 82, 83
1, 84951, Control_c, 0, 64, 53
1, 84965, Note_on_c, 0, 68, 63
1, 84966, Control_c, 0, 64, 59
1, 84981, Control_c, 0, 64, 60
1, 84983, Note_off_c, 0, 68, 66
1, 84994, Note_off_c, 0, 82, 64
1, 84995, Control_c, 0, 64, 59
1, 85018, Control_c, 0, 64, 58
1, 85030, Note_off_c, 0, 63, 59
1, 85033, Control_c, 0, 64, 57
1, 85042, Note_on_c, 0, 81, 75
1, 85047, Note_on_c, 0, 67, 71
1, 85048, Control_c, 0, 64, 54
1, 85062, Control_c, 0, 64, 48
1, 85070, Note_off_c, 0, 67, 69
1, 85077, Control_c, 0, 64, 38
1, 85092, Control_c, 0, 64, 0
1, 85151, Note_off_c, 0, 81, 51
1, 85158, Note_on_c, 0, 52, 42
1, 85170, Note_on_c, 0, 46, 36
1, 85191, Note_on_c, 0, 62, 28
1, 85200, Note_on_c, 0, 80, 69
1, 85246, Note_on_c, 0, 66, 39
1, 85270, Control_c, 0, 64, 32
1, 85285, Control_c, 0, 64, 53
1, 85285, Note_off_c, 0, 66, 53
1, 85299, Control_c, 0, 64, 63
1, 85300, Note_off_c, 0, 80, 64
1, 85314, Control_c, 0, 64, 68
1, 85329, Control_c, 0, 64, 75
1, 85330, Note_off_c, 0, 62, 56
1, 85339, Note_off_c, 0, 52, 57
1, 85344, Control_c, 0, 64, 80
1, 85359, Control_c, 0, 64, 86
1, 85374, Control_c, 0, 64, 94
1, 85389, Control_c, 0, 64, 102
1, 85404, Control_c, 0, 64, 108
1, 85416, Note_on_c, 0, 62, 53
1, 85419, Control_c, 0, 64, 112
1, 85429, Note_on_c, 0, 52, 33
1, 85440, Note_off_c, 0, 62, 62
1, 85460, Note_on_c, 0, 73, 72
1, 85460, Note_off_c, 0, 52, 51
1, 85466, Note_on_c, 0, 80, 70
1, 85478, Note_on_c, 0, 66, 54
1, 85491, Note_off_c, 0, 46, 40
1, 85491, Note_off_c, 0, 73, 58
1, 85496, Note_off_c, 0, 80, 64
1, 85499, Note_off_c, 0, 66, 57
1, 85508, Control_c, 0, 64, 103
1, 85523, Control_c, 0, 64, 87
1, 85537, Control_c, 0, 64, 73
1, 85549, Note_on_c, 0, 74, 74
1, 85552, Control_c, 0, 64, 64
1, 85562, Note_on_c, 0, 81, 63
1, 85567, Control_c, 0, 64, 61
1, 85580, Note_off_c, 0, 74, 65
1, 85582, Control_c, 0, 64, 64
1, 85583, Note_on_c, 0, 43, 46
1, 85583, Note_off_c, 0, 81, 63
1, 85588, Note_on_c, 0, 49, 40
1, 85597, Control_c, 0, 64, 68
1, 85611, Note_off_c, 0, 43, 52
1, 85611, Control_c, 0, 64, 74
1, 85618, Note_off_c, 0, 49, 55
1, 85620, Note_on_c, 0, 59, 60
1, 85626, Control_c, 0, 64, 83
1, 85641, Control_c, 0, 64, 90
1, 85648, Note_off_c, 0, 59, 68
1, 85656, Control_c, 0, 64, 98
1, 85657, Note_on_c, 0, 81, 80
1, 85666, Note_on_c, 0, 68, 68
1, 85671, Control_c, 0, 64, 109
1, 85684, Note_off_c, 0, 81, 64
1, 85685, Control_c, 0, 64, 127
1, 85687, Note_on_c, 0, 64, 73
1, 85708, Note_off_c, 0, 68, 58
1, 85711, Note_off_c, 0, 64, 67
1, 85729, Note_on_c, 0, 76, 69
1, 85735, Note_on_c, 0, 83, 73
1, 85764, Note_off_c, 0, 76, 66
1, 85767, Note_off_c, 0, 83, 66
1, 85824, Note_on_c, 0, 84, 88
1, 85834, Note_on_c, 0, 77, 54
1, 85854, Note_off_c, 0, 77, 64
1, 85865, Note_on_c, 0, 70, 44
1, 85883, Note_off_c, 0, 84, 0
1, 85891, Note_off_c, 0, 70, 62
1, 85901, Note_on_c, 0, 85, 90
1, 85908, Poly_aftertouch_c, 0, 84, 0
1, 85915, Control_c, 0, 64, 83
1, 85930, Control_c, 0, 64, 57
1, 85944, Control_c, 0, 64, 0
1, 85961, Note_off_c, 0, 85, 63
1, 85991, Note_on_c, 0, 67, 74
1, 85997, Note_on_c, 0, 62, 62
1, 86000, Note_on_c, 0, 79, 76
1, 86000, Note_on_c, 0, 86, 84
1, 86006, Note_on_c, 0, 55, 62
1, 86011, Note_on_c, 0, 72, 73
1, 86012, Note_off_c, 0, 67, 71
1, 86016, Note_on_c, 0, 56, 62
1, 86027, Note_off_c, 0, 62, 65
1, 86032, Note_off_c, 0, 72, 71
1, 86033, Control_c, 0, 64, 44
1, 86036, Note_off_c, 0, 55, 65
1, 86040, Note_off_c, 0, 86, 65
1, 86043, Note_off_c, 0, 79, 63
1, 86047, Note_off_c, 0, 56, 63
1, 86048, Control_c, 0, 64, 64
1, 86063, Control_c, 0, 64, 70
1, 86077, Control_c, 0, 64, 78
1, 86092, Control_c, 0, 64, 85
1, 86102, Note_on_c, 0, 86, 89
1, 86107, Note_on_c, 0, 72, 84
1, 86107, Control_c, 0, 64, 95
1, 86122, Control_c, 0, 64, 127
1, 86128, Note_off_c, 0, 72, 67
1, 86142, Note_off_c, 0, 86, 62
1, 86152, Control_c, 0, 67, 111
1, 86167, Control_c, 0, 67, 80
1, 86182, Control_c, 0, 67, 48
1, 86197, Control_c, 0, 67, 0
1, 86203, Note_on_c, 0, 86, 87
1, 86210, Note_on_c, 0, 72, 76
1, 86215, Note_on_c, 0, 40, 75
1, 86220, Note_on_c, 0, 50, 67
1, 86225, Note_off_c, 0, 72, 71
1, 86235, Note_off_c, 0, 86, 63
1, 86238, Note_off_c, 0, 40, 66
1, 86242, Note_off_c, 0, 50, 63
1, 86294, Note_on_c, 0, 72, 75
1, 86298, Note_on_c, 0, 86, 97
1, 86320, Note_off_c, 0, 72, 64
1, 86340, Note_off_c, 0, 86, 63
1, 86382, Note_on_c, 0, 86, 82
1, 86393, Note_on_c, 0, 72, 68
1, 86413, Note_off_c, 0, 72, 65
1, 86422, Note_off_c, 0, 86, 66
1, 86475, Note_on_c, 0, 86, 89
1, 86480, Note_on_c, 0, 72, 71
1, 86500, Note_off_c, 0, 72, 67
1, 86500, Note_off_c, 0, 86, 65
1, 86560, Control_c, 0, 64, 87
1, 86575, Control_c, 0, 64, 63
1, 86590, Control_c, 0, 64, 0
1, 86598, Note_on_c, 0, 67, 75
1, 86614, Note_on_c, 0, 56, 55
1, 86625, Note_on_c, 0, 62, 48
1, 86649, Control_c, 0, 67, 20
1, 86664, Control_c, 0, 67, 23
1, 86679, Control_c, 0, 67, 26
1, 86690, Note_off_c, 0, 62, 0
1, 86690, Note_on_c, 0, 62, 5
1, 86693, Control_c, 0, 64, 36
1, 86693, Control_c, 0, 67, 28
1, 86708, Control_c, 0, 64, 55
1, 86712, Note_off_c, 0, 67, 62
1, 86723, Control_c, 0, 64, 59
1, 86726, Note_off_c, 0, 62, 56
1, 86727, Note_on_c, 0, 66, 66
1, 86738, Control_c, 0, 64, 62
1, 86745, Note_off_c, 0, 66, 64
1, 86753, Control_c, 0, 64, 65
1, 86753, Control_c, 0, 67, 30
1, 86759, Note_off_c, 0, 56, 62
1, 86767, Control_c, 0, 64, 68
1, 86782, Control_c, 0, 64, 71
1, 86782, Control_c, 0, 67, 34
1, 86786, Note_on_c, 0, 92, 96
1, 86797, Note_on_c, 0, 78, 68
1, 86797, Control_c, 0, 64, 73
1, 86797, Control_c, 0, 67, 39
1, 86812, Control_c, 0, 64, 73
1, 86812, Control_c, 0, 67, 41
1, 86820, Note_off_c, 0, 78, 69
1, 86827, Control_c, 0, 67, 43
1, 86831, Note_off_c, 0, 92, 65
1, 86841, Control_c, 0, 67, 45
1, 86856, Control_c, 0, 67, 48
1, 86871, Control_c, 0, 67, 54
1, 86885, Control_c, 0, 67, 65
1, 86889, Note_on_c, 0, 46, 74
1, 86900, Note_on_c, 0, 92, 90
1, 86900, Control_c, 0, 67, 82
1, 86902, Note_on_c, 0, 78, 75
1, 86911, Note_off_c, 0, 46, 67
1, 86915, Control_c, 0, 67, 95
1, 86919, Note_off_c, 0, 92, 72
1, 86923, Note_off_c, 0, 78, 71
1, 86930, Control_c, 0, 64, 73
1, 86930, Control_c, 0, 67, 106
1, 86945, Control_c, 0, 64, 72
1, 86945, Control_c, 0, 67, 113
1, 86960, Control_c, 0, 64, 71
1, 86960, Control_c, 0, 67, 120
1, 86975, Control_c, 0, 64, 68
1, 86975, Control_c, 0, 67, 127
1, 86990, Control_c, 0, 64, 66
1, 87005, Control_c, 0, 64, 63
1, 87006, Note_on_c, 0, 86, 87
1, 87019, Note_on_c, 0, 72, 69
1, 87020, Control_c, 0, 64, 59
1, 87035, Control_c, 0, 64, 54
1, 87046, Note_off_c, 0, 72, 68
1, 87050, Control_c, 0, 64, 47
1, 87051, Note_off_c, 0, 86, 63
1, 87064, Control_c, 0, 64, 33
1, 87079, Control_c, 0, 64, 0
1, 87087, Note_on_c, 0, 66, 51
1, 87106, Note_on_c, 0, 62, 43
1, 87109, Note_on_c, 0, 86, 76
1, 87113, Note_on_c, 0, 56, 37
1, 87123, Note_off_c, 0, 66, 59
1, 87124, Note_on_c, 0, 72, 65
1, 87142, Note_off_c, 0, 72, 65
1, 87168, Note_off_c, 0, 86, 62
1, 87189, Note_on_c, 0, 65, 57
1, 87204, Note_on_c, 0, 85, 80
1, 87220, Note_on_c, 0, 71, 51
1, 87239, Note_off_c, 0, 85, 65
1, 87244, Note_off_c, 0, 71, 59
1, 87279, Note_off_c, 0, 62, 56
1, 87279, Note_off_c, 0, 65, 63
1, 87309, Control_c, 0, 64, 32
1, 87310, Note_on_c, 0, 86, 79
1, 87313, Note_on_c, 0, 66, 55
1, 87323, Note_on_c, 0, 72, 64
1, 87323, Control_c, 0, 64, 48
1, 87338, Note_off_c, 0, 56, 50
1, 87338, Control_c, 0, 64, 58
1, 87343, Note_off_c, 0, 72, 67
1, 87353, Control_c, 0, 64, 62
1, 87360, Note_off_c, 0, 86, 62
1, 87368, Control_c, 0, 64, 64
1, 87383, Control_c, 0, 64, 65
1, 87398, Control_c, 0, 64, 67
1, 87407, Note_on_c, 0, 85, 79
1, 87413, Control_c, 0, 64, 69
1, 87419, Note_on_c, 0, 71, 62
1, 87428, Control_c, 0, 64, 72
1, 87437, Note_off_c, 0, 71, 65
1, 87443, Control_c, 0, 64, 74
1, 87449, Note_off_c, 0, 85, 58
1, 87457, Control_c, 0, 64, 76
1, 87472, Control_c, 0, 64, 76
1, 87490, Note_off_c, 0, 66, 61
1, 87502, Note_on_c, 0, 84, 74
1, 87502, Note_on_c, 0, 70, 71
1, 87526, Note_off_c, 0, 70, 69
1, 87532, Control_c, 0, 64, 76
1, 87537, Note_off_c, 0, 84, 55
1, 87547, Control_c, 0, 64, 73
1, 87562, Control_c, 0, 64, 66
1, 87577, Control_c, 0, 64, 55
1, 87589, Note_on_c, 0, 83, 78
1, 87591, Control_c, 0, 64, 32
1, 87603, Note_on_c, 0, 69, 52
1, 87606, Control_c, 0, 64, 0
1, 87615, Note_on_c, 0, 65, 51
1, 87625, Note_off_c, 0, 69, 60
1, 87626, Note_on_c, 0, 55, 29
1, 87629, Note_on_c, 0, 49, 35
1, 87639, Note_off_c, 0, 83, 63
1, 87650, Control_c, 0, 64, 46
1, 87665, Control_c, 0, 64, 60
1, 87680, Control_c, 0, 64, 66
1, 87687, Note_off_c, 0, 49, 63
1, 87687, Note_off_c, 0, 55, 62
1, 87695, Note_on_c, 0, 84, 74
1, 87695, Note_off_c, 0, 65, 63
1, 87695, Control_c, 0, 64, 70
1, 87709, Control_c, 0, 64, 73
1, 87711, Note_on_c, 0, 70, 65
1, 87724, Control_c, 0, 64, 75
1, 87738, Note_off_c, 0, 70, 68
1, 87739, Control_c, 0, 64, 76
1, 87753, Note_off_c, 0, 84, 59
1, 87754, Control_c, 0, 64, 76
1, 87777, Note_on_c, 0, 71, 66
1, 87791, Note_on_c, 0, 85, 72
1, 87799, Control_c, 0, 64, 76
1, 87806, Note_off_c, 0, 71, 66
1, 87814, Control_c, 0, 64, 72
1, 87829, Control_c, 0, 64, 64
1, 87834, Note_off_c, 0, 85, 61
1, 87844, Control_c, 0, 64, 50
1, 87859, Control_c, 0, 64, 0
1, 87887, Note_on_c, 0, 67, 54
1, 87903, Control_c, 0, 64, 34
1, 87905, Note_on_c, 0, 62, 35
1, 87913, Note_on_c, 0, 56, 40
1, 87918, Control_c, 0, 64, 58
1, 87932, Control_c, 0, 64, 66
1, 87947, Note_off_c, 0, 67, 55
1, 87947, Control_c, 0, 64, 70
1, 87958, Note_off_c, 0, 62, 62
1, 87962, Control_c, 0, 64, 72
1, 87977, Control_c, 0, 64, 73
1, 87992, Control_c, 0, 64, 74
1, 87997, Note_on_c, 0, 92, 76
1, 88000, Note_off_c, 0, 56, 62
1, 88012, Note_on_c, 0, 78, 61
1, 88014, Control_c, 0, 64, 74
1, 88027, Note_off_c, 0, 92, 69
1, 88029, Control_c, 0, 64, 75
1, 88036, Note_off_c, 0, 78, 63
1, 88073, Control_c, 0, 64, 75
1, 88103, Control_c, 0, 64, 76
1, 88104, Note_on_c, 0, 92, 80
1, 88110, Note_on_c, 0, 78, 66
1, 88123, Note_off_c, 0, 92, 72
1, 88125, Note_on_c, 0, 46, 62
1, 88128, Note_off_c, 0, 78, 66
1, 88147, Control_c, 0, 64, 76
1, 88149, Note_off_c, 0, 46, 63
1, 88221, Control_c, 0, 64, 76
1, 88224, Note_on_c, 0, 72, 59
1, 88224, Note_on_c, 0, 86, 62
1, 88225, Note_on_c, 0, 84, 61
1, 88241, Note_off_c, 0, 86, 66
1, 88243, Note_off_c, 0, 72, 61
1, 88244, Note_off_c, 0, 84, 64
1, 88310, Control_c, 0, 64, 75
1, 88316, Note_on_c, 0, 86, 77
1, 88328, Note_on_c, 0, 72, 57
1, 88339, Note_on_c, 0, 66, 54
1, 88340, Control_c, 0, 64, 76
1, 88350, Note_off_c, 0, 72, 63
1, 88357, Note_on_c, 0, 62, 35
1, 88360, Note_off_c, 0, 66, 60
1, 88372, Note_on_c, 0, 56, 10
1, 88385, Note_off_c, 0, 86, 56
1, 88411, Note_off_c, 0, 62, 39
1, 88429, Note_off_c, 0, 56, 44
1, 88443, Note_on_c, 0, 65, 61
1, 88450, Note_on_c, 0, 85, 74
1, 88458, Control_c, 0, 64, 75
1, 88468, Note_on_c, 0, 71, 47
1, 88473, Control_c, 0, 64, 75
1, 88479, Note_off_c, 0, 65, 63
1, 88488, Control_c, 0, 64, 74
1, 88495, Note_off_c, 0, 71, 56
1, 88503, Control_c, 0, 64, 74
1, 88518, Control_c, 0, 64, 72
1, 88532, Control_c, 0, 64, 71
1, 88547, Control_c, 0, 64, 69
1, 88562, Control_c, 0, 64, 66
1, 88578, Control_c, 0, 64, 63
1, 88593, Control_c, 0, 64, 56
1, 88608, Control_c, 0, 64, 43
1, 88623, Control_c, 0, 64, 0
1, 88652, Note_off_c, 0, 85, 57
1, 88656, Note_on_c, 0, 84, 69
1, 88688, Note_on_c, 0, 70, 37
1, 88698, Note_on_c, 0, 63, 63
1, 88706, Note_on_c, 0, 68, 62
1, 88793, Control_c, 0, 64, 50
1, 88808, Control_c, 0, 64, 62
1, 88823, Control_c, 0, 64, 67
1, 88829, Note_off_c, 0, 68, 62
1, 88837, Control_c, 0, 64, 71
1, 88852, Control_c, 0, 64, 77
1, 88867, Control_c, 0, 64, 84
1, 88881, Control_c, 0, 64, 93
1, 88896, Control_c, 0, 64, 107
1, 88905, Note_on_c, 0, 64, 52
1, 88911, Control_c, 0, 64, 126
1, 88921, Note_on_c, 0, 58, 39
1, 88921, Note_off_c, 0, 84, 57
1, 88924, Note_off_c, 0, 70, 40
1, 88940, Note_off_c, 0, 64, 65
1, 88954, Note_off_c, 0, 63, 40
1, 88968, Note_off_c, 0, 58, 64
1, 89093, Note_on_c, 0, 52, 62
1, 89130, Note_off_c, 0, 52, 63
1, 89244, Note_on_c, 0, 42, 50
1, 89321, Note_off_c, 0, 42, 48
1, 89438, Note_on_c, 0, 37, 50
1, 89488, Note_off_c, 0, 37, 59
1, 89732, Control_c, 0, 64, 94
1, 89747, Control_c, 0, 64, 78
1, 89762, Control_c, 0, 64, 64
1, 89777, Control_c, 0, 64, 43
1, 89792, Control_c, 0, 64, 0
1, 89801, Note_on_c, 0, 69, 50
1, 89826, Note_on_c, 0, 58, 41
1, 89839, Note_on_c, 0, 64, 37
1, 89851, Control_c, 0, 64, 36
1, 89866, Control_c, 0, 64, 54
1, 89881, Control_c, 0, 64, 62
1, 89895, Note_off_c, 0, 69, 60
1, 89896, Control_c, 0, 64, 65
1, 89908, Note_off_c, 0, 64, 62
1, 89910, Control_c, 0, 64, 67
1, 89925, Control_c, 0, 64, 68
1, 89940, Note_off_c, 0, 58, 63
1, 89940, Control_c, 0, 64, 70
1, 89955, Control_c, 0, 64, 71
1, 89960, Note_on_c, 0, 94, 70
1, 89962, Note_on_c, 0, 68, 3
1, 89970, Control_c, 0, 64, 72
1, 89984, Control_c, 0, 64, 73
1, 90000, Note_off_c, 0, 68, 26
1, 90006, Note_off_c, 0, 94, 62
1, 90075, Note_on_c, 0, 48, 60
1, 90078, Note_on_c, 0, 94, 67
1, 90083, Note_on_c, 0, 80, 41
1, 90103, Note_off_c, 0, 94, 69
1, 90106, Note_off_c, 0, 48, 65
1, 90108, Note_off_c, 0, 80, 59
1, 90117, Control_c, 0, 64, 73
1, 90132, Control_c, 0, 64, 72
1, 90147, Control_c, 0, 64, 71
1, 90162, Control_c, 0, 64, 69
1, 90178, Control_c, 0, 64, 68
1, 90181, Note_on_c, 0, 88, 83
1, 90191, Note_on_c, 0, 74, 68
1, 90193, Control_c, 0, 64, 67
1, 90207, Control_c, 0, 64, 64
1, 90211, Note_off_c, 0, 88, 65
1, 90215, Note_off_c, 0, 74, 68
1, 90222, Control_c, 0, 64, 56
1, 90237, Control_c, 0, 64, 36
1, 90259, Control_c, 0, 64, 0
1, 90275, Note_on_c, 0, 68, 58
1, 90286, Note_on_c, 0, 88, 81
1, 90291, Note_on_c, 0, 64, 53
1, 90296, Note_on_c, 0, 74, 65
1, 90304, Note_on_c, 0, 58, 37
1, 90313, Note_off_c, 0, 68, 59
1, 90315, Note_off_c, 0, 74, 63
1, 90323, Note_off_c, 0, 88, 61
1, 90370, Note_on_c, 0, 67, 60
1, 90382, Note_on_c, 0, 87, 77
1, 90396, Note_on_c, 0, 73, 61
1, 90423, Note_off_c, 0, 73, 67
1, 90432, Note_off_c, 0, 87, 63
1, 90450, Note_off_c, 0, 67, 60
1, 90484, Note_off_c, 0, 64, 56
1, 90485, Note_on_c, 0, 68, 64
1, 90489, Note_on_c, 0, 88, 75
1, 90497, Control_c, 0, 64, 33
1, 90508, Note_on_c, 0, 74, 47
1, 90512, Control_c, 0, 64, 51
1, 90525, Note_off_c, 0, 88, 60
1, 90526, Control_c, 0, 64, 61
1, 90528, Note_off_c, 0, 58, 57
1, 90533, Note_off_c, 0, 74, 56
1, 90541, Control_c, 0, 64, 64
1, 90556, Control_c, 0, 64, 66
1, 90571, Control_c, 0, 64, 68
1, 90580, Note_on_c, 0, 87, 76
1, 90586, Control_c, 0, 64, 69
1, 90600, Control_c, 0, 64, 71
1, 90602, Note_on_c, 0, 73, 55
1, 90615, Control_c, 0, 64, 73
1, 90623, Note_off_c, 0, 73, 62
1, 90626, Note_off_c, 0, 87, 64
1, 90630, Control_c, 0, 64, 74
1, 90645, Control_c, 0, 64, 75
1, 90665, Note_on_c, 0, 86, 81
1, 90674, Control_c, 0, 64, 74
1, 90680, Note_on_c, 0, 72, 61
1, 90689, Control_c, 0, 64, 72
1, 90692, Note_off_c, 0, 68, 60
1, 90698, Note_off_c, 0, 72, 64
1, 90704, Control_c, 0, 64, 66
1, 90717, Note_off_c, 0, 86, 61
1, 90719, Control_c, 0, 64, 58
1, 90734, Control_c, 0, 64, 47
1, 90749, Control_c, 0, 64, 43
1, 90758, Note_on_c, 0, 85, 85
1, 90763, Control_c, 0, 64, 49
1, 90767, Note_on_c, 0, 67, 65
1, 90775, Note_on_c, 0, 71, 47
1, 90778, Note_on_c, 0, 51, 50
1, 90778, Control_c, 0, 64, 57
1, 90784, Note_on_c, 0, 57, 37
1, 90793, Control_c, 0, 64, 63
1, 90796, Note_off_c, 0, 67, 66
1, 90801, Note_off_c, 0, 71, 57
1, 90802, Note_off_c, 0, 85, 63
1, 90808, Note_off_c, 0, 51, 60
1, 90808, Control_c, 0, 64, 68
1, 90816, Note_off_c, 0, 57, 49
1, 90823, Control_c, 0, 64, 71
1, 90838, Control_c, 0, 64, 74
1, 90847, Note_on_c, 0, 86, 85
1, 90850, Note_on_c, 0, 72, 63
1, 90852, Control_c, 0, 64, 77
1, 90867, Control_c, 0, 64, 82
1, 90875, Note_off_c, 0, 72, 68
1, 90882, Control_c, 0, 64, 91
1, 90897, Control_c, 0, 64, 105
1, 90910, Note_off_c, 0, 86, 63
1, 90912, Control_c, 0, 64, 127
1, 90934, Note_on_c, 0, 87, 90
1, 90948, Note_on_c, 0, 73, 60
1, 90967, Note_off_c, 0, 73, 65
1, 90974, Note_off_c, 0, 87, 63
1, 91009, Control_c, 0, 64, 110
1, 91024, Control_c, 0, 64, 73
1, 91035, Note_on_c, 0, 69, 77
1, 91038, Control_c, 0, 64, 54
1, 91046, Note_on_c, 0, 64, 59
1, 91050, Note_on_c, 0, 58, 57
1, 91053, Control_c, 0, 64, 46
1, 91068, Control_c, 0, 64, 57
1, 91082, Control_c, 0, 64, 66
1, 91093, Note_off_c, 0, 69, 61
1, 91097, Control_c, 0, 64, 79
1, 91112, Note_on_c, 0, 68, 75
1, 91112, Note_off_c, 0, 64, 61
1, 91112, Control_c, 0, 64, 117
1, 91127, Control_c, 0, 64, 127
1, 91133, Note_off_c, 0, 68, 71
1, 91139, Note_off_c, 0, 58, 60
1, 91146, Note_on_c, 0, 94, 91
1, 91152, Note_on_c, 0, 80, 75
1, 91157, Control_c, 0, 67, 123
1, 91172, Control_c, 0, 67, 99
1, 91175, Note_off_c, 0, 80, 69
1, 91177, Note_off_c, 0, 94, 59
1, 91187, Control_c, 0, 67, 68
1, 91202, Control_c, 0, 67, 43
1, 91217, Control_c, 0, 67, 21
1, 91230, Control_c, 0, 67, 0
1, 91242, Note_on_c, 0, 94, 94
1, 91253, Note_on_c, 0, 80, 74
1, 91257, Note_off_c, 0, 94, 73
1, 91264, Note_on_c, 0, 47, 36
1, 91268, Note_off_c, 0, 80, 69
1, 91271, Note_on_c, 0, 48, 43
1, 91300, Note_off_c, 0, 47, 51
1, 91303, Note_off_c, 0, 48, 54
1, 91342, Note_on_c, 0, 88, 88
1, 91355, Note_on_c, 0, 74, 78
1, 91376, Note_off_c, 0, 74, 71
1, 91385, Note_off_c, 0, 88, 65
1, 91434, Note_on_c, 0, 68, 83
1, 91449, Note_on_c, 0, 88, 92
1, 91455, Note_on_c, 0, 58, 35
1, 91455, Note_on_c, 0, 64, 67
1, 91455, Note_on_c, 0, 74, 84
1, 91484, Note_off_c, 0, 74, 64
1, 91486, Note_off_c, 0, 68, 61
1, 91506, Note_off_c, 0, 58, 59
1, 91542, Note_on_c, 0, 67, 72
1, 91546, Note_off_c, 0, 88, 61
1, 91547, Note_on_c, 0, 87, 87
1, 91548, Note_off_c, 0, 64, 61
1, 91580, Note_on_c, 0, 73, 62
1, 91601, Note_off_c, 0, 73, 65
1, 91630, Control_c, 0, 64, 90
1, 91645, Control_c, 0, 64, 67
1, 91660, Control_c, 0, 64, 33
1, 91674, Control_c, 0, 64, 0
1, 91686, Note_off_c, 0, 87, 61
1, 91691, Note_off_c, 0, 67, 38
1, 91724, Note_on_c, 0, 86, 85
1, 91741, Note_on_c, 0, 72, 69
1, 91803, Note_on_c, 0, 65, 79
1, 91815, Note_on_c, 0, 70, 78
1, 91875, Control_c, 0, 64, 45
1, 91890, Control_c, 0, 64, 62
1, 91905, Control_c, 0, 64, 71
1, 91910, Note_off_c, 0, 72, 62
1, 91920, Control_c, 0, 64, 84
1, 91935, Control_c, 0, 64, 127
1, 91957, Note_off_c, 0, 70, 61
1, 91999, Note_off_c, 0, 65, 63
1, 92004, Note_on_c, 0, 66, 82
1, 92019, Note_on_c, 0, 60, 65
1, 92042, Note_off_c, 0, 66, 66
1, 92048, Note_off_c, 0, 60, 67
1, 92170, Note_on_c, 0, 54, 67
1, 92199, Note_off_c, 0, 86, 61
1, 92244, Note_off_c, 0, 54, 51
1, 92345, Note_on_c, 0, 44, 52
1, 92479, Note_off_c, 0, 44, 52
1, 92499, Note_on_c, 0, 39, 59
1, 92528, Note_off_c, 0, 39, 63
1, 92653, Control_c, 0, 64, 76
1, 92668, Control_c, 0, 64, 0
1, 92679, Note_on_c, 0, 71, 95
1, 92694, Note_on_c, 0, 60, 79
1, 92697, Note_on_c, 0, 66, 65
1, 92728, Control_c, 0, 64, 39
1, 92743, Control_c, 0, 64, 69
1, 92758, Control_c, 0, 64, 91
1, 92773, Control_c, 0, 64, 127
1, 92803, Note_off_c, 0, 71, 59
1, 92835, Note_on_c, 0, 70, 80
1, 92841, Note_on_c, 0, 96, 103
1, 92844, Note_off_c, 0, 60, 63
1, 92844, Note_off_c, 0, 66, 63
1, 92850, Note_on_c, 0, 82, 88
1, 92856, Note_off_c, 0, 70, 70
1, 92876, Note_off_c, 0, 82, 63
1, 92892, Note_off_c, 0, 96, 64
1, 92961, Note_on_c, 0, 96, 99
1, 92967, Note_on_c, 0, 82, 92
1, 92999, Note_off_c, 0, 96, 67
1, 93000, Note_off_c, 0, 82, 61
1, 93026, Note_on_c, 0, 50, 69
1, 93052, Note_off_c, 0, 50, 65
1, 93055, Note_on_c, 0, 48, 19
1, 93074, Note_on_c, 0, 90, 101
1, 93080, Note_on_c, 0, 76, 87
1, 93095, Note_off_c, 0, 48, 44
1, 93106, Note_off_c, 0, 76, 66
1, 93114, Note_off_c, 0, 90, 65
1, 93181, Note_on_c, 0, 90, 99
1, 93182, Note_on_c, 0, 76, 89
1, 93188, Note_on_c, 0, 70, 86
1, 93196, Note_on_c, 0, 66, 65
1, 93214, Note_off_c, 0, 76, 62
1, 93216, Note_off_c, 0, 90, 68
1, 93269, Note_off_c, 0, 70, 63
1, 93283, Note_on_c, 0, 89, 92
1, 93296, Note_on_c, 0, 75, 79
1, 93301, Note_on_c, 0, 69, 80
1, 93316, Note_off_c, 0, 66, 63
1, 93337, Note_off_c, 0, 89, 66
1, 93342, Note_off_c, 0, 75, 62
1, 93404, Control_c, 0, 64, 88
1, 93419, Control_c, 0, 64, 61
1, 93433, Control_c, 0, 64, 0
1, 93462, Note_on_c, 0, 72, 93
1, 93463, Note_on_c, 0, 67, 81
1, 93482, Note_on_c, 0, 88, 89
1, 93491, Note_off_c, 0, 69, 55
1, 93501, Note_on_c, 0, 74, 75
1, 93509, Note_on_c, 0, 64, 20
1, 93549, Note_off_c, 0, 64, 31
1, 93551, Control_c, 0, 64, 58
1, 93566, Control_c, 0, 64, 80
1, 93581, Control_c, 0, 64, 111
1, 93595, Control_c, 0, 64, 127
1, 93600, Note_off_c, 0, 72, 40
1, 93650, Note_off_c, 0, 67, 66
1, 93655, Note_on_c, 0, 68, 95
1, 93661, Note_on_c, 0, 62, 87
1, 93685, Note_off_c, 0, 68, 70
1, 93697, Note_off_c, 0, 62, 61
1, 93852, Note_on_c, 0, 56, 94
1, 93932, Note_on_c, 0, 42, 14
1, 93952, Note_off_c, 0, 56, 52
1, 93990, Note_off_c, 0, 42, 47
1, 94010, Note_on_c, 0, 46, 84
1, 94024, Poly_aftertouch_c, 0, 82, 127
1, 94054, Note_off_c, 0, 46, 66
1, 94083, Note_off_c, 0, 74, 61
1, 94129, Note_on_c, 0, 40, 86
1, 94156, Note_on_c, 0, 41, 39
1, 94156, Note_off_c, 0, 41, 127
1, 94157, Note_off_c, 0, 40, 68
1, 94202, Note_off_c, 0, 88, 65
1, 94213, Poly_aftertouch_c, 0, 82, 0
1, 94256, Control_c, 0, 64, 92
1, 94262, Note_on_c, 0, 40, 102
1, 94271, Control_c, 0, 64, 51
1, 94286, Control_c, 0, 64, 0
1, 94376, Note_on_c, 0, 46, 96
1, 94389, Control_c, 0, 64, 62
1, 94403, Note_off_c, 0, 40, 39
1, 94404, Control_c, 0, 64, 127
1, 94421, Note_off_c, 0, 46, 67
1, 94425, Note_on_c, 0, 44, 20
1, 94425, Note_off_c, 0, 44, 127
1, 94458, Poly_aftertouch_c, 0, 38, 127
1, 94471, Poly_aftertouch_c, 0, 44, 0
1, 94490, Poly_aftertouch_c, 0, 38, 0
1, 94503, Poly_aftertouch_c, 0, 45, 0
1, 94529, Note_on_c, 0, 56, 81
1, 94535, Note_on_c, 0, 67, 94
1, 94536, Note_on_c, 0, 62, 83
1, 94567, Note_on_c, 0, 65, 39
1, 94567, Note_off_c, 0, 65, 127
1, 94639, Note_on_c, 0, 98, 96
1, 94641, Note_on_c, 0, 84, 95
1, 94641, Note_off_c, 0, 67, 63
1, 94674, Note_on_c, 0, 96, 40
1, 94674, Note_off_c, 0, 96, 127
1, 94677, Note_off_c, 0, 84, 67
1, 94681, Note_off_c, 0, 98, 68
1, 94725, Note_on_c, 0, 98, 86
1, 94755, Note_on_c, 0, 66, 86
1, 94755, Note_on_c, 0, 83, 79
1, 94756, Note_on_c, 0, 84, 73
1, 94768, Note_off_c, 0, 98, 67
1, 94772, Note_off_c, 0, 84, 69
1, 94775, Note_off_c, 0, 62, 57
1, 94775, Note_off_c, 0, 83, 68
1, 94778, Note_off_c, 0, 56, 61
1, 94829, Note_on_c, 0, 72, 90
1, 94830, Note_off_c, 0, 66, 60
1, 94842, Note_on_c, 0, 92, 101
1, 94845, Note_off_c, 0, 72, 75
1, 94851, Note_on_c, 0, 78, 90
1, 94893, Note_off_c, 0, 78, 63
1, 94901, Note_off_c, 0, 92, 67
1, 94970, Note_on_c, 0, 87, 51
1, 94994, Note_off_c, 0, 87, 60
1, 95029, Note_on_c, 0, 91, 81
1, 95032, Note_on_c, 0, 77, 73
1, 95049, Note_off_c, 0, 91, 69
1, 95053, Note_off_c, 0, 77, 70
1, 95139, Control_c, 0, 64, 93
1, 95144, Note_on_c, 0, 67, 60
1, 95145, Note_on_c, 0, 56, 58
1, 95154, Control_c, 0, 64, 63
1, 95163, Note_on_c, 0, 62, 38
1, 95168, Control_c, 0, 64, 0
1, 95168, Control_c, 0, 67, 24
1, 95183, Control_c, 0, 67, 37
1, 95198, Control_c, 0, 67, 49
1, 95213, Control_c, 0, 67, 60
1, 95228, Control_c, 0, 67, 73
1, 95235, Note_off_c, 0, 67, 63
1, 95242, Control_c, 0, 67, 91
1, 95249, Note_on_c, 0, 86, 74
1, 95257, Control_c, 0, 67, 113
1, 95259, Note_on_c, 0, 72, 51
1, 95271, Note_off_c, 0, 86, 70
1, 95272, Control_c, 0, 67, 127
1, 95277, Note_on_c, 0, 66, 60
1, 95283, Note_off_c, 0, 72, 55
1, 95333, Note_on_c, 0, 86, 85
1, 95348, Note_on_c, 0, 72, 62
1, 95351, Note_off_c, 0, 86, 73
1, 95352, Note_off_c, 0, 66, 57
1, 95354, Note_off_c, 0, 56, 58
1, 95357, Note_off_c, 0, 62, 55
1, 95361, Control_c, 0, 64, 35
1, 95366, Note_off_c, 0, 72, 64
1, 95375, Control_c, 0, 64, 43
1, 95390, Control_c, 0, 64, 52
1, 95405, Control_c, 0, 64, 57
1, 95420, Control_c, 0, 64, 59
1, 95435, Control_c, 0, 64, 56
1, 95449, Control_c, 0, 64, 47
1, 95458, Note_on_c, 0, 80, 78
1, 95464, Control_c, 0, 64, 34
1, 95473, Note_on_c, 0, 66, 66
1, 95479, Control_c, 0, 64, 32
1, 95502, Control_c, 0, 64, 45
1, 95517, Control_c, 0, 64, 56
1, 95531, Control_c, 0, 64, 62
1, 95546, Control_c, 0, 64, 63
1, 95561, Control_c, 0, 64, 64
1, 95571, Note_off_c, 0, 66, 61
1, 95575, Control_c, 0, 64, 66
1, 95578, Note_off_c, 0, 80, 61
1, 95590, Control_c, 0, 64, 68
1, 95605, Control_c, 0, 64, 73
1, 95620, Control_c, 0, 64, 77
1, 95635, Control_c, 0, 64, 80
1, 95649, Control_c, 0, 64, 80
1, 95664, Control_c, 0, 64, 81
1, 95679, Note_on_c, 0, 80, 51
1, 95684, Note_on_c, 0, 66, 52
1, 95708, Note_off_c, 0, 80, 54
1, 95714, Note_off_c, 0, 66, 53
1, 95738, Control_c, 0, 64, 80
1, 95752, Note_on_c, 0, 52, 42
1, 95753, Control_c, 0, 64, 77
1, 95768, Control_c, 0, 64, 71
1, 95783, Control_c, 0, 64, 64
1, 95798, Control_c, 0, 64, 57
1, 95801, Note_on_c, 0, 58, 42
1, 95805, Note_on_c, 0, 62, 29
1, 95813, Control_c, 0, 64, 57
1, 95828, Control_c, 0, 64, 60
1, 95840, Note_off_c, 0, 62, 55
1, 95843, Control_c, 0, 64, 65
1, 95843, Note_off_c, 0, 58, 65
1, 95845, Note_on_c, 0, 73, 53
1, 95853, Note_on_c, 0, 66, 26
1, 95855, Note_on_c, 0, 80, 46
1, 95858, Control_c, 0, 64, 68
1, 95872, Control_c, 0, 64, 70
1, 95879, Note_off_c, 0, 52, 60
1, 95886, Note_off_c, 0, 73, 61
1, 95887, Control_c, 0, 64, 72
1, 95889, Note_off_c, 0, 66, 60
1, 95902, Control_c, 0, 64, 73
1, 95917, Control_c, 0, 64, 74
1, 95932, Control_c, 0, 64, 76
1, 95937, Note_off_c, 0, 80, 59
1, 95946, Control_c, 0, 64, 77
1, 95961, Control_c, 0, 64, 79
1, 95969, Note_on_c, 0, 81, 65
1, 95976, Control_c, 0, 64, 81
1, 95990, Control_c, 0, 64, 84
1, 95991, Note_on_c, 0, 74, 47
1, 96004, Note_on_c, 0, 67, 16
1, 96005, Control_c, 0, 64, 87
1, 96007, Note_off_c, 0, 81, 56
1, 96018, Note_off_c, 0, 74, 50
1, 96020, Control_c, 0, 64, 92
1, 96035, Control_c, 0, 64, 100
1, 96049, Note_off_c, 0, 67, 51
1, 96050, Control_c, 0, 64, 127
1, 96067, Note_on_c, 0, 82, 83
1, 96082, Note_on_c, 0, 68, 65
1, 96101, Note_off_c, 0, 68, 66
1, 96114, Note_off_c, 0, 82, 63
1, 96124, Control_c, 0, 64, 87
1, 96138, Control_c, 0, 64, 59
1, 96152, Note_on_c, 0, 83, 80
1, 96153, Note_on_c, 0, 76, 76
1, 96153, Control_c, 0, 64, 0
1, 96156, Note_on_c, 0, 65, 70
1, 96162, Note_on_c, 0, 55, 53
1, 96165, Note_on_c, 0, 61, 59
1, 96176, Note_off_c, 0, 83, 64
1, 96180, Note_off_c, 0, 65, 66
1, 96181, Note_on_c, 0, 69, 29
1, 96183, Note_off_c, 0, 76, 64
1, 96186, Note_off_c, 0, 55, 62
1, 96188, Note_off_c, 0, 61, 63
1, 96198, Control_c, 0, 64, 55
1, 96213, Control_c, 0, 64, 73
1, 96213, Control_c, 0, 67, 120
1, 96214, Note_off_c, 0, 69, 32
1, 96227, Control_c, 0, 64, 90
1, 96250, Control_c, 0, 64, 127
1, 96251, Note_on_c, 0, 84, 85
1, 96254, Note_on_c, 0, 77, 74
1, 96259, Note_on_c, 0, 70, 73
1, 96265, Control_c, 0, 67, 123
1, 96278, Note_off_c, 0, 77, 68
1, 96279, Control_c, 0, 67, 126
1, 96286, Note_off_c, 0, 70, 66
1, 96295, Note_off_c, 0, 84, 62
1, 96338, Note_on_c, 0, 85, 99
1, 96375, Note_on_c, 0, 68, 79
1, 96378, Note_on_c, 0, 52, 58
1, 96379, Note_on_c, 0, 58, 68
1, 96397, Control_c, 0, 64, 71
1, 96398, Note_off_c, 0, 85, 53
1, 96399, Note_off_c, 0, 68, 69
1, 96405, Note_off_c, 0, 52, 62
1, 96409, Note_off_c, 0, 58, 68
1, 96412, Note_on_c, 0, 79, 77
1, 96412, Control_c, 0, 64, 46
1, 96412, Control_c, 0, 67, 124
1, 96417, Note_on_c, 0, 72, 69
1, 96417, Note_on_c, 0, 86, 89
1, 96427, Control_c, 0, 64, 31
1, 96427, Control_c, 0, 67, 120
1, 96434, Note_off_c, 0, 79, 71
1, 96442, Control_c, 0, 64, 46
1, 96442, Control_c, 0, 67, 117
1, 96445, Note_off_c, 0, 72, 65
1, 96457, Control_c, 0, 64, 61
1, 96457, Control_c, 0, 67, 110
1, 96471, Note_off_c, 0, 86, 64
1, 96472, Control_c, 0, 64, 75
1, 96472, Control_c, 0, 67, 97
1, 96487, Control_c, 0, 64, 101
1, 96487, Control_c, 0, 67, 77
1, 96502, Control_c, 0, 64, 127
1, 96502, Control_c, 0, 67, 57
1, 96503, Note_on_c, 0, 87, 90
1, 96507, Note_on_c, 0, 49, 70
1, 96517, Control_c, 0, 67, 36
1, 96517, Note_on_c, 0, 55, 53
1, 96518, Note_on_c, 0, 80, 76
1, 96519, Note_on_c, 0, 73, 83
1, 96531, Control_c, 0, 67, 0
1, 96534, Note_off_c, 0, 49, 66
1, 96540, Note_off_c, 0, 80, 71
1, 96542, Note_off_c, 0, 55, 63
1, 96546, Note_off_c, 0, 87, 68
1, 96559, Note_on_c, 0, 65, 76
1, 96576, Note_on_c, 0, 88, 95
1, 96582, Note_off_c, 0, 65, 71
1, 96607, Note_off_c, 0, 73, 63
1, 96618, Note_off_c, 0, 88, 66
1, 96622, Note_on_c, 0, 71, 78
1, 96642, Note_off_c, 0, 71, 72
1, 96683, Note_on_c, 0, 89, 98
1, 96687, Note_on_c, 0, 75, 82
1, 96687, Note_on_c, 0, 82, 78
1, 96706, Note_off_c, 0, 82, 70
1, 96722, Note_off_c, 0, 75, 62
1, 96784, Note_on_c, 0, 90, 78
1, 96786, Note_on_c, 0, 76, 78
1, 96793, Note_off_c, 0, 89, 57
1, 96800, Note_on_c, 0, 83, 61
1, 96823, Note_off_c, 0, 83, 61
1, 96827, Note_off_c, 0, 76, 56
1, 96838, Note_off_c, 0, 90, 64
1, 96877, Note_on_c, 0, 91, 81
1, 96919, Note_off_c, 0, 91, 65
1, 97014, Control_c, 0, 67, 19
1, 97028, Control_c, 0, 67, 21
1, 97043, Control_c, 0, 67, 24
1, 97058, Control_c, 0, 67, 28
1, 97073, Control_c, 0, 67, 32
1, 97088, Control_c, 0, 67, 37
1, 97102, Control_c, 0, 67, 44
1, 97117, Control_c, 0, 67, 51
1, 97132, Control_c, 0, 67, 57
1, 97146, Control_c, 0, 67, 65
1, 97161, Control_c, 0, 67, 72
1, 97176, Control_c, 0, 67, 80
1, 97191, Control_c, 0, 67, 90
1, 97206, Control_c, 0, 64, 110
1, 97206, Control_c, 0, 67, 99
1, 97220, Control_c, 0, 64, 104
1, 97220, Control_c, 0, 67, 108
1, 97235, Control_c, 0, 64, 101
1, 97235, Control_c, 0, 67, 117
1, 97250, Control_c, 0, 64, 98
1, 97250, Control_c, 0, 67, 126
1, 97265, Control_c, 0, 64, 94
1, 97280, Control_c, 0, 64, 89
1, 97295, Control_c, 0, 64, 84
1, 97310, Control_c, 0, 64, 81
1, 97324, Control_c, 0, 64, 78
1, 97339, Control_c, 0, 64, 75
1, 97354, Control_c, 0, 64, 73
1, 97369, Control_c, 0, 64, 71
1, 97384, Control_c, 0, 64, 69
1, 97399, Control_c, 0, 64, 66
1, 97414, Control_c, 0, 64, 64
1, 97429, Control_c, 0, 64, 63
1, 97438, Note_on_c, 0, 34, 41
1, 97444, Control_c, 0, 64, 62
1, 97459, Control_c, 0, 64, 61
1, 97473, Control_c, 0, 64, 59
1, 97488, Control_c, 0, 64, 54
1, 97503, Control_c, 0, 64, 51
1, 97518, Control_c, 0, 64, 49
1, 97533, Control_c, 0, 64, 47
1, 97548, Control_c, 0, 64, 42
1, 97562, Control_c, 0, 64, 0
1, 97940, Control_c, 0, 64, 33
1, 97955, Control_c, 0, 64, 44
1, 97970, Control_c, 0, 64, 59
1, 97985, Control_c, 0, 64, 67
1, 98000, Control_c, 0, 64, 71
1, 98015, Control_c, 0, 64, 76
1, 98030, Control_c, 0, 64, 79
1, 98044, Control_c, 0, 64, 82
1, 98059, Control_c, 0, 64, 86
1, 98069, Note_on_c, 0, 46, 33
1, 98074, Control_c, 0, 64, 91
1, 98088, Control_c, 0, 64, 98
1, 98103, Control_c, 0, 64, 105
1, 98118, Control_c, 0, 64, 117
1, 98126, Note_off_c, 0, 34, 30
1, 98133, Control_c, 0, 64, 127
1, 98204, Note_on_c, 0, 92, 74
1, 98216, Note_off_c, 0, 46, 48
1, 98237, Note_on_c, 0, 78, 56
1, 98297, Note_off_c, 0, 78, 59
1, 98341, Note_off_c, 0, 92, 67
1, 98594, Note_on_c, 0, 85, 68
1, 98621, Note_on_c, 0, 71, 45
1, 98705, Note_off_c, 0, 71, 59
1, 98719, Note_on_c, 0, 56, 24
1, 98882, Note_on_c, 0, 62, 35
1, 98950, Note_off_c, 0, 85, 57
1, 98975, Note_on_c, 0, 86, 63
1, 98976, Note_off_c, 0, 62, 50
1, 98977, Note_off_c, 0, 56, 37
1, 99016, Note_on_c, 0, 72, 41
1, 99043, Note_off_c, 0, 72, 56
1, 99052, Note_off_c, 0, 86, 62
1, 99137, Note_on_c, 0, 62, 49
1, 99250, Note_on_c, 0, 80, 58
1, 99274, Note_on_c, 0, 66, 35
1, 99298, Note_off_c, 0, 62, 34
1, 99365, Note_off_c, 0, 66, 33
1, 99396, Note_on_c, 0, 56, 35
1, 99524, Note_off_c, 0, 56, 37
1, 99575, Note_on_c, 0, 72, 42
1, 99645, Note_off_c, 0, 72, 59
1, 99650, Note_off_c, 0, 80, 51
1, 99671, Note_on_c, 0, 81, 65
1, 99697, Note_on_c, 0, 67, 39
1, 99727, Note_off_c, 0, 67, 54
1, 99828, Note_off_c, 0, 81, 62
1, 99838, Note_on_c, 0, 82, 67
1, 99870, Note_on_c, 0, 68, 31
1, 99891, Note_on_c, 0, 67, 75
1, 99906, Note_off_c, 0, 68, 54
1, 99951, Note_on_c, 0, 52, 37
1, 99951, Note_off_c, 0, 82, 59
1, 100109, Note_off_c, 0, 67, 61
1, 100236, Note_on_c, 0, 56, 46
1, 100245, Note_off_c, 0, 52, 37
1, 100346, Note_off_c, 0, 56, 56
1, 100423, Note_on_c, 0, 62, 14
1, 100469, Note_off_c, 0, 62, 49
1, 100528, Note_on_c, 0, 46, 49
1, 100659, Note_off_c, 0, 46, 58
1, 100678, Note_on_c, 0, 56, 47
1, 100800, Note_on_c, 0, 62, 43
1, 100864, Note_off_c, 0, 62, 56
1, 100877, Note_off_c, 0, 56, 50
1, 100907, Note_on_c, 0, 67, 58
1, 100973, Note_off_c, 0, 67, 55
1, 101031, Note_on_c, 0, 67, 48
1, 101115, Note_off_c, 0, 67, 56
1, 101397, Note_on_c, 0, 40, 36
1, 101410, Note_on_c, 0, 28, 38
1, 101461, Note_off_c, 0, 40, 56
1, 101467, Note_off_c, 0, 28, 59
1, 101822, Note_on_c, 0, 50, 39
1, 102043, Note_on_c, 0, 56, 43
1, 102072, Note_on_c, 0, 82, 58
1, 102088, Note_on_c, 0, 68, 45
1, 102139, Note_off_c, 0, 68, 64
1, 102168, Note_off_c, 0, 50, 37
1, 102198, Note_off_c, 0, 56, 51
1, 102223, Note_on_c, 0, 60, 34
1, 102266, Note_off_c, 0, 60, 55
1, 102313, Note_off_c, 0, 82, 61
1, 102353, Note_on_c, 0, 88, 59
1, 102380, Note_on_c, 0, 74, 47
1, 102442, Note_off_c, 0, 74, 56
1, 102490, Note_off_c, 0, 88, 63
1, 102510, Note_on_c, 0, 67, 68
1, 102681, Note_off_c, 0, 67, 60
1, 103025, Note_on_c, 0, 67, 64
1, 103096, Note_off_c, 0, 67, 57
1, 103615, Note_on_c, 0, 67, 68
1, 103769, Control_c, 0, 64, 114
1, 103784, Control_c, 0, 64, 97
1, 103799, Control_c, 0, 64, 88
1, 103809, Note_on_c, 0, 72, 57
1, 103814, Control_c, 0, 64, 79
1, 103829, Control_c, 0, 64, 70
1, 103841, Note_off_c, 0, 67, 58
1, 103844, Control_c, 0, 64, 60
1, 103858, Control_c, 0, 64, 38
1, 103873, Control_c, 0, 64, 0
1, 104097, Note_on_c, 0, 46, 31
1, 104168, Control_c, 0, 64, 52
1, 104183, Control_c, 0, 64, 60
1, 104198, Control_c, 0, 64, 62
1, 104212, Control_c, 0, 64, 63
1, 104227, Control_c, 0, 64, 65
1, 104242, Control_c, 0, 64, 70
1, 104248, Note_off_c, 0, 72, 54
1, 104256, Control_c, 0, 64, 77
1, 104271, Control_c, 0, 64, 89
1, 104286, Control_c, 0, 64, 98
1, 104301, Control_c, 0, 64, 108
1, 104316, Control_c, 0, 64, 127
1, 104409, Note_off_c, 0, 46, 46
1, 104435, Note_on_c, 0, 56, 28
1, 104559, Note_on_c, 0, 62, 45
1, 104619, Note_off_c, 0, 62, 53
1, 104653, Note_on_c, 0, 88, 67
1, 104680, Note_off_c, 0, 56, 34
1, 104681, Note_on_c, 0, 74, 57
1, 104717, Note_off_c, 0, 74, 65
1, 104722, Note_off_c, 0, 88, 63
1, 104795, Note_on_c, 0, 62, 42
1, 104939, Note_off_c, 0, 62, 62
1, 104989, Note_on_c, 0, 56, 24
1, 105026, Note_on_c, 0, 80, 69
1, 105036, Note_off_c, 0, 56, 47
1, 105063, Note_on_c, 0, 66, 40
1, 105175, Note_off_c, 0, 66, 54
1, 105269, Note_on_c, 0, 72, 73
1, 105389, Note_off_c, 0, 80, 55
1, 105458, Note_on_c, 0, 46, 39
1, 105540, Note_off_c, 0, 72, 60
1, 105602, Note_on_c, 0, 56, 43
1, 105607, Note_off_c, 0, 46, 35
1, 105700, Note_off_c, 0, 56, 58
1, 105703, Note_on_c, 0, 62, 46
1, 105731, Note_off_c, 0, 62, 60
1, 105820, Note_on_c, 0, 81, 76
1, 105853, Note_on_c, 0, 67, 61
1, 105940, Note_on_c, 0, 62, 77
1, 106004, Note_off_c, 0, 67, 38
1, 106304, Note_on_c, 0, 82, 66
1, 106328, Note_off_c, 0, 81, 56
1, 106343, Note_on_c, 0, 68, 32
1, 106373, Note_on_c, 0, 67, 64
1, 106410, Note_off_c, 0, 68, 44
1, 106425, Note_off_c, 0, 62, 55
1, 106428, Note_on_c, 0, 56, 37
1, 106515, Note_off_c, 0, 56, 50
1, 106538, Note_off_c, 0, 82, 32
1, 106592, Note_off_c, 0, 67, 49
1, 106686, Note_on_c, 0, 66, 69
1, 106920, Note_on_c, 0, 83, 66
1, 106944, Note_off_c, 0, 66, 61
1, 106948, Note_on_c, 0, 65, 71
1, 106953, Note_on_c, 0, 69, 46
1, 106956, Control_c, 0, 64, 110
1, 106971, Control_c, 0, 64, 98
1, 106986, Control_c, 0, 64, 91
1, 107000, Control_c, 0, 64, 86
1, 107015, Control_c, 0, 64, 81
1, 107030, Control_c, 0, 64, 73
1, 107045, Control_c, 0, 64, 63
1, 107060, Control_c, 0, 64, 36
1, 107074, Control_c, 0, 64, 0
1, 107379, Note_on_c, 0, 49, 41
1, 107481, Control_c, 0, 64, 37
1, 107496, Control_c, 0, 64, 48
1, 107511, Control_c, 0, 64, 55
1, 107526, Control_c, 0, 64, 60
1, 107541, Control_c, 0, 64, 64
1, 107555, Control_c, 0, 64, 67
1, 107570, Control_c, 0, 64, 70
1, 107585, Control_c, 0, 64, 72
1, 107600, Control_c, 0, 64, 74
1, 107615, Control_c, 0, 64, 78
1, 107629, Control_c, 0, 64, 83
1, 107635, Note_on_c, 0, 59, 38
1, 107644, Control_c, 0, 64, 91
1, 107659, Control_c, 0, 64, 104
1, 107674, Control_c, 0, 64, 127
1, 107674, Note_off_c, 0, 49, 41
1, 107708, Note_off_c, 0, 65, 57
1, 107763, Note_off_c, 0, 69, 36
1, 107802, Note_on_c, 0, 65, 57
1, 107838, Note_off_c, 0, 59, 27
1, 107858, Note_off_c, 0, 65, 62
1, 107942, Note_on_c, 0, 65, 47
1, 108040, Note_off_c, 0, 83, 24
1, 108059, Note_off_c, 0, 65, 49
1, 108073, Note_on_c, 0, 59, 38
1, 108113, Note_off_c, 0, 59, 63
1, 108242, Note_on_c, 0, 75, 44
1, 108276, Note_off_c, 0, 75, 65
1, 108413, Note_on_c, 0, 43, 38
1, 108510, Note_on_c, 0, 89, 67
1, 108523, Note_on_c, 0, 75, 50
1, 108574, Note_off_c, 0, 75, 59
1, 108576, Note_off_c, 0, 89, 61
1, 108677, Note_off_c, 0, 43, 40
1, 108703, Note_on_c, 0, 49, 39
1, 108858, Note_on_c, 0, 59, 39
1, 108864, Note_off_c, 0, 49, 42
1, 108905, Note_off_c, 0, 59, 59
1, 108980, Note_on_c, 0, 76, 64
1, 108989, Note_on_c, 0, 90, 62
1, 109051, Note_off_c, 0, 76, 57
1, 109074, Note_off_c, 0, 90, 61
1, 109182, Note_on_c, 0, 71, 52
1, 109353, Note_off_c, 0, 71, 43
1, 109480, Note_on_c, 0, 91, 56
1, 109495, Note_on_c, 0, 77, 45
1, 109528, Note_on_c, 0, 64, 42
1, 109533, Note_on_c, 0, 65, 46
1, 109540, Note_off_c, 0, 91, 56
1, 109546, Note_off_c, 0, 77, 55
1, 109817, Note_off_c, 0, 64, 35
1, 109825, Note_off_c, 0, 65, 35
1, 109925, Note_on_c, 0, 67, 40
1, 109928, Note_on_c, 0, 63, 45
1, 109965, Note_off_c, 0, 67, 56
1, 110107, Note_off_c, 0, 63, 61
1, 110193, Note_on_c, 0, 62, 48
1, 110291, Control_c, 0, 64, 109
1, 110306, Control_c, 0, 64, 87
1, 110321, Control_c, 0, 64, 70
1, 110336, Control_c, 0, 64, 53
1, 110351, Control_c, 0, 64, 0
1, 110436, Note_on_c, 0, 46, 42
1, 110547, Note_on_c, 0, 92, 81
1, 110594, Note_on_c, 0, 78, 32
1, 110610, Control_c, 0, 64, 46
1, 110625, Control_c, 0, 64, 60
1, 110640, Control_c, 0, 64, 66
1, 110645, Note_off_c, 0, 78, 34
1, 110655, Control_c, 0, 64, 69
1, 110664, Note_off_c, 0, 92, 65
1, 110670, Control_c, 0, 64, 71
1, 110685, Control_c, 0, 64, 73
1, 110700, Control_c, 0, 64, 75
1, 110715, Control_c, 0, 64, 80
1, 110720, Note_off_c, 0, 62, 54
1, 110730, Control_c, 0, 64, 87
1, 110742, Note_on_c, 0, 56, 42
1, 110744, Control_c, 0, 64, 96
1, 110759, Control_c, 0, 64, 104
1, 110774, Control_c, 0, 64, 110
1, 110789, Control_c, 0, 64, 116
1, 110795, Note_off_c, 0, 46, 44
1, 110804, Control_c, 0, 64, 127
1, 110849, Note_on_c, 0, 85, 68
1, 110864, Note_on_c, 0, 71, 54
1, 110941, Note_off_c, 0, 71, 60
1, 111037, Note_on_c, 0, 62, 53
1, 111042, Note_off_c, 0, 56, 35
1, 111096, Note_off_c, 0, 62, 47
1, 111117, Note_off_c, 0, 85, 59
1, 111135, Note_on_c, 0, 86, 61
1, 111143, Note_on_c, 0, 72, 54
1, 111198, Note_off_c, 0, 72, 61
1, 111203, Note_off_c, 0, 86, 61
1, 111296, Note_on_c, 0, 62, 38
1, 111432, Note_on_c, 0, 56, 41
1, 111448, Note_off_c, 0, 62, 35
1, 111449, Note_on_c, 0, 80, 59
1, 111493, Note_on_c, 0, 66, 42
1, 111502, Note_off_c, 0, 56, 54
1, 111601, Note_off_c, 0, 66, 54
1, 111689, Note_on_c, 0, 72, 53
1, 111746, Control_c, 0, 67, 118
1, 111753, Note_off_c, 0, 80, 58
1, 111761, Note_off_c, 0, 72, 60
1, 111761, Control_c, 0, 67, 107
1, 111772, Note_on_c, 0, 81, 71
1, 111776, Control_c, 0, 67, 95
1, 111790, Control_c, 0, 67, 88
1, 111795, Note_on_c, 0, 67, 51
1, 111805, Control_c, 0, 67, 82
1, 111817, Note_off_c, 0, 67, 61
1, 111820, Control_c, 0, 67, 76
1, 111835, Control_c, 0, 67, 70
1, 111850, Control_c, 0, 67, 65
1, 111864, Control_c, 0, 67, 60
1, 111879, Control_c, 0, 67, 58
1, 111924, Note_off_c, 0, 81, 61
1, 111924, Control_c, 0, 67, 57
1, 111935, Note_on_c, 0, 82, 67
1, 111938, Control_c, 0, 67, 57
1, 111953, Control_c, 0, 67, 56
1, 111957, Note_on_c, 0, 68, 52
1, 111968, Note_on_c, 0, 67, 71
1, 111990, Control_c, 0, 67, 56
1, 112005, Control_c, 0, 67, 55
1, 112011, Note_on_c, 0, 52, 41
1, 112012, Note_off_c, 0, 68, 53
1, 112035, Control_c, 0, 67, 54
1, 112072, Note_off_c, 0, 82, 54
1, 112094, Control_c, 0, 67, 54
1, 112109, Control_c, 0, 67, 53
1, 112139, Control_c, 0, 67, 52
1, 112153, Control_c, 0, 67, 48
1, 112168, Control_c, 0, 67, 46
1, 112188, Note_off_c, 0, 67, 60
1, 112256, Note_on_c, 0, 56, 46
1, 112257, Control_c, 0, 67, 47
1, 112271, Control_c, 0, 67, 47
1, 112280, Note_off_c, 0, 52, 52
1, 112286, Control_c, 0, 67, 48
1, 112301, Control_c, 0, 67, 49
1, 112315, Control_c, 0, 67, 50
1, 112330, Control_c, 0, 67, 50
1, 112345, Control_c, 0, 67, 51
1, 112355, Note_off_c, 0, 56, 56
1, 112360, Control_c, 0, 67, 51
1, 112375, Control_c, 0, 67, 52
1, 112390, Control_c, 0, 67, 53
1, 112405, Control_c, 0, 67, 53
1, 112414, Note_on_c, 0, 62, 38
1, 112420, Control_c, 0, 67, 54
1, 112435, Control_c, 0, 67, 55
1, 112450, Control_c, 0, 67, 56
1, 112464, Control_c, 0, 67, 57
1, 112479, Control_c, 0, 67, 58
1, 112494, Control_c, 0, 67, 59
1, 112509, Control_c, 0, 67, 60
1, 112523, Control_c, 0, 67, 61
1, 112539, Control_c, 0, 67, 62
1, 112554, Control_c, 0, 67, 64
1, 112569, Control_c, 0, 67, 67
1, 112573, Note_on_c, 0, 46, 49
1, 112584, Control_c, 0, 67, 71
1, 112599, Control_c, 0, 67, 73
1, 112613, Control_c, 0, 67, 77
1, 112628, Control_c, 0, 67, 81
1, 112643, Control_c, 0, 67, 84
1, 112658, Control_c, 0, 67, 85
1, 112661, Note_off_c, 0, 62, 37
1, 112731, Note_on_c, 0, 56, 44
1, 112754, Note_off_c, 0, 46, 36
1, 112768, Control_c, 0, 67, 85
1, 112798, Control_c, 0, 67, 84
1, 112858, Control_c, 0, 67, 84
1, 112861, Note_on_c, 0, 62, 41
1, 112915, Note_off_c, 0, 62, 55
1, 112962, Control_c, 0, 67, 83
1, 112986, Note_off_c, 0, 56, 35
1, 113040, Note_on_c, 0, 67, 59
1, 113111, Note_off_c, 0, 67, 53
1, 113161, Note_on_c, 0, 67, 52
1, 113241, Note_off_c, 0, 67, 60
1, 113377, Control_c, 0, 67, 84
1, 113407, Control_c, 0, 67, 84
1, 113437, Control_c, 0, 67, 85
1, 113474, Control_c, 0, 67, 86
1, 113489, Control_c, 0, 67, 86
1, 113495, Note_on_c, 0, 40, 39
1, 113507, Note_on_c, 0, 28, 35
1, 113518, Control_c, 0, 67, 87
1, 113581, Note_off_c, 0, 28, 58
1, 113581, Note_off_c, 0, 40, 54
1, 113592, Control_c, 0, 67, 87
1, 113711, Control_c, 0, 67, 87
1, 113888, Control_c, 0, 67, 86
1, 113952, Note_on_c, 0, 50, 38
1, 114132, Note_on_c, 0, 56, 43
1, 114171, Control_c, 0, 67, 86
1, 114200, Control_c, 0, 67, 85
1, 114202, Note_off_c, 0, 50, 41
1, 114257, Note_on_c, 0, 82, 66
1, 114268, Note_off_c, 0, 56, 57
1, 114277, Note_on_c, 0, 68, 45
1, 114285, Note_on_c, 0, 60, 28
1, 114297, Control_c, 0, 67, 85
1, 114322, Note_off_c, 0, 60, 47
1, 114322, Note_off_c, 0, 68, 64
1, 114327, Control_c, 0, 67, 84
1, 114371, Control_c, 0, 67, 83
1, 114400, Control_c, 0, 67, 83
1, 114412, Note_off_c, 0, 82, 60
1, 114415, Control_c, 0, 67, 82
1, 114499, Note_on_c, 0, 88, 58
1, 114518, Note_on_c, 0, 74, 51
1, 114548, Control_c, 0, 67, 82
1, 114605, Note_off_c, 0, 74, 62
1, 114620, Note_off_c, 0, 88, 65
1, 114701, Note_on_c, 0, 67, 62
1, 114780, Note_off_c, 0, 67, 59
1, 115001, Control_c, 0, 67, 82
1, 115030, Control_c, 0, 67, 83
1, 115045, Control_c, 0, 67, 83
1, 115060, Control_c, 0, 67, 84
1, 115075, Control_c, 0, 67, 84
1, 115089, Control_c, 0, 67, 85
1, 115104, Control_c, 0, 67, 85
1, 115119, Control_c, 0, 67, 86
1, 115134, Control_c, 0, 67, 87
1, 115148, Control_c, 0, 67, 87
1, 115163, Control_c, 0, 67, 88
1, 115178, Control_c, 0, 67, 88
1, 115355, Note_on_c, 0, 67, 42
1, 115401, Control_c, 0, 67, 88
1, 115430, Control_c, 0, 67, 87
1, 115474, Control_c, 0, 67, 87
1, 115504, Control_c, 0, 67, 86
1, 115550, Note_off_c, 0, 67, 38
1, 115593, Control_c, 0, 67, 86
1, 115622, Control_c, 0, 67, 85
1, 115719, Control_c, 0, 67, 85
1, 115838, Control_c, 0, 67, 84
1, 116194, Control_c, 0, 67, 85
1, 116402, Control_c, 0, 67, 85
1, 116468, Control_c, 0, 67, 86
1, 116543, Control_c, 0, 67, 87
1, 116558, Control_c, 0, 67, 87
1, 116573, Control_c, 0, 67, 88
1, 116602, Control_c, 0, 67, 88
1, 116613, Note_on_c, 0, 66, 37
1, 116647, Control_c, 0, 67, 89
1, 116662, Control_c, 0, 67, 90
1, 116676, Control_c, 0, 67, 90
1, 116691, Control_c, 0, 67, 101
1, 116706, Control_c, 0, 67, 113
1, 116721, Control_c, 0, 67, 124
1, 116736, Control_c, 0, 67, 127
1, 116799, Note_off_c, 0, 66, 34
1, 116810, Control_c, 0, 64, 117
1, 116825, Control_c, 0, 64, 110
1, 116840, Control_c, 0, 64, 105
1, 116855, Control_c, 0, 64, 101
1, 116869, Control_c, 0, 64, 97
1, 116884, Control_c, 0, 64, 94
1, 116899, Control_c, 0, 64, 91
1, 116913, Control_c, 0, 64, 88
1, 116928, Control_c, 0, 64, 83
1, 116943, Control_c, 0, 64, 78
1, 116958, Control_c, 0, 64, 72
1, 116973, Control_c, 0, 64, 66
1, 116987, Control_c, 0, 64, 61
1, 117002, Control_c, 0, 64, 55
1, 117017, Control_c, 0, 64, 50
1, 117032, Control_c, 0, 64, 46
1, 117047, Control_c, 0, 64, 44
1, 117061, Control_c, 0, 64, 42
1, 117076, Control_c, 0, 64, 40
1, 117091, Control_c, 0, 64, 37
1, 117097, Note_on_c, 0, 80, 41
1, 117106, Control_c, 0, 64, 35
1, 117109, Note_on_c, 0, 58, 32
1, 117117, Note_on_c, 0, 62, 32
1, 117127, Note_on_c, 0, 52, 5
1, 117136, Control_c, 0, 64, 39
1, 117150, Control_c, 0, 64, 45
1, 117156, Poly_aftertouch_c, 0, 66, 127
1, 117165, Control_c, 0, 64, 51
1, 117180, Control_c, 0, 64, 55
1, 117187, Poly_aftertouch_c, 0, 66, 0
1, 117195, Control_c, 0, 64, 58
1, 117198, Note_off_c, 0, 62, 62
1, 117212, Note_off_c, 0, 80, 57
1, 117217, Control_c, 0, 64, 58
1, 117223, Note_off_c, 0, 58, 60
1, 117232, Control_c, 0, 64, 56
1, 117246, Control_c, 0, 64, 51
1, 117261, Control_c, 0, 64, 46
1, 117265, Note_on_c, 0, 81, 62
1, 117276, Control_c, 0, 64, 43
1, 117279, Note_on_c, 0, 67, 40
1, 117291, Control_c, 0, 64, 42
1, 117299, Note_off_c, 0, 81, 62
1, 117306, Control_c, 0, 64, 43
1, 117307, Note_off_c, 0, 67, 50
1, 117320, Control_c, 0, 64, 44
1, 117380, Note_on_c, 0, 82, 67
1, 117389, Note_on_c, 0, 68, 59
1, 117410, Note_off_c, 0, 82, 61
1, 117410, Note_off_c, 0, 68, 62
1, 117410, Control_c, 0, 64, 43
1, 117425, Control_c, 0, 64, 40
1, 117440, Control_c, 0, 64, 36
1, 117455, Control_c, 0, 64, 32
1, 117470, Control_c, 0, 64, 0
1, 117482, Note_on_c, 0, 83, 69
1, 117484, Control_c, 0, 64, 30
1, 117487, Note_on_c, 0, 55, 51
1, 117495, Note_on_c, 0, 65, 51
1, 117496, Note_on_c, 0, 69, 48
1, 117499, Control_c, 0, 64, 37
1, 117503, Note_on_c, 0, 61, 40
1, 117509, Note_off_c, 0, 83, 63
1, 117514, Control_c, 0, 64, 48
1, 117519, Note_off_c, 0, 65, 61
1, 117520, Note_off_c, 0, 69, 55
1, 117523, Note_off_c, 0, 52, 34
1, 117529, Control_c, 0, 64, 58
1, 117539, Note_off_c, 0, 55, 60
1, 117539, Note_off_c, 0, 61, 56
1, 117544, Control_c, 0, 64, 63
1, 117559, Control_c, 0, 64, 65
1, 117574, Control_c, 0, 64, 66
1, 117581, Note_on_c, 0, 84, 71
1, 117592, Note_on_c, 0, 70, 68
1, 117604, Control_c, 0, 64, 65
1, 117618, Note_off_c, 0, 84, 59
1, 117620, Note_off_c, 0, 70, 66
1, 117633, Control_c, 0, 64, 65
1, 117648, Control_c, 0, 64, 64
1, 117662, Control_c, 0, 64, 63
1, 117665, Note_on_c, 0, 85, 74
1, 117677, Control_c, 0, 64, 59
1, 117692, Control_c, 0, 64, 48
1, 117699, Note_off_c, 0, 85, 65
1, 117707, Control_c, 0, 64, 0
1, 117738, Note_on_c, 0, 68, 77
1, 117744, Note_on_c, 0, 58, 58
1, 117746, Note_on_c, 0, 52, 65
1, 117751, Note_on_c, 0, 86, 84
1, 117762, Note_on_c, 0, 72, 73
1, 117766, Control_c, 0, 64, 49
1, 117769, Note_off_c, 0, 68, 66
1, 117772, Note_off_c, 0, 58, 66
1, 117779, Note_off_c, 0, 52, 65
1, 117781, Control_c, 0, 64, 70
1, 117785, Note_off_c, 0, 72, 69
1, 117796, Control_c, 0, 64, 90
1, 117800, Note_off_c, 0, 86, 62
1, 117810, Control_c, 0, 64, 127
1, 117845, Note_on_c, 0, 87, 82
1, 117858, Note_on_c, 0, 73, 72
1, 117869, Control_c, 0, 64, 82
1, 117882, Note_off_c, 0, 73, 69
1, 117884, Control_c, 0, 64, 64
1, 117890, Note_on_c, 0, 49, 58
1, 117899, Note_off_c, 0, 87, 64
1, 117899, Control_c, 0, 64, 40
1, 117905, Note_on_c, 0, 55, 18
1, 117914, Note_off_c, 0, 49, 63
1, 117914, Control_c, 0, 64, 0
1, 117925, Note_on_c, 0, 65, 74
1, 117926, Note_on_c, 0, 88, 79
1, 117931, Note_off_c, 0, 55, 48
1, 117946, Note_off_c, 0, 65, 69
1, 117966, Control_c, 0, 64, 48
1, 117981, Control_c, 0, 64, 63
1, 117994, Note_off_c, 0, 88, 59
1, 117996, Control_c, 0, 64, 69
1, 117999, Note_on_c, 0, 71, 77
1, 118011, Control_c, 0, 64, 71
1, 118011, Control_c, 0, 67, 105
1, 118015, Note_on_c, 0, 89, 81
1, 118020, Note_on_c, 0, 75, 75
1, 118020, Note_off_c, 0, 71, 71
1, 118025, Control_c, 0, 64, 68
1, 118025, Control_c, 0, 67, 86
1, 118040, Control_c, 0, 64, 66
1, 118040, Control_c, 0, 67, 75
1, 118055, Control_c, 0, 64, 70
1, 118055, Control_c, 0, 67, 74
1, 118063, Note_off_c, 0, 75, 63
1, 118069, Control_c, 0, 64, 80
1, 118069, Control_c, 0, 67, 77
1, 118084, Control_c, 0, 64, 83
1, 118084, Control_c, 0, 67, 81
1, 118099, Control_c, 0, 64, 80
1, 118099, Control_c, 0, 67, 84
1, 118104, Note_on_c, 0, 90, 82
1, 118114, Control_c, 0, 64, 68
1, 118114, Control_c, 0, 67, 87
1, 118120, Note_on_c, 0, 76, 63
1, 118129, Control_c, 0, 64, 43
1, 118129, Control_c, 0, 67, 92
1, 118139, Note_off_c, 0, 76, 63
1, 118140, Note_off_c, 0, 89, 25
1, 118145, Control_c, 0, 64, 0
1, 118145, Control_c, 0, 67, 100
1, 118146, Note_off_c, 0, 90, 66
1, 118159, Control_c, 0, 67, 110
1, 118174, Control_c, 0, 67, 120
1, 118188, Control_c, 0, 67, 127
1, 118200, Note_on_c, 0, 91, 83
1, 118225, Note_off_c, 0, 91, 64
1, 118227, Note_on_c, 0, 77, 24
1, 118253, Note_off_c, 0, 77, 34
1, 118282, Note_on_c, 0, 72, 58
1, 118322, Control_c, 0, 64, 40
1, 118326, Note_on_c, 0, 62, 5
1, 118337, Control_c, 0, 64, 54
1, 118343, Note_on_c, 0, 67, 43
1, 118346, Note_off_c, 0, 72, 63
1, 118352, Control_c, 0, 64, 60
1, 118366, Control_c, 0, 64, 62
1, 118379, Note_off_c, 0, 62, 46
1, 118381, Control_c, 0, 64, 63
1, 118385, Note_off_c, 0, 67, 66
1, 118401, Note_on_c, 0, 66, 47
1, 118411, Control_c, 0, 64, 63
1, 118426, Note_off_c, 0, 66, 51
1, 118483, Note_on_c, 0, 92, 83
1, 118501, Note_on_c, 0, 78, 51
1, 118516, Note_off_c, 0, 92, 59
1, 118524, Note_off_c, 0, 78, 59
1, 118573, Control_c, 0, 64, 64
1, 118584, Note_on_c, 0, 56, 29
1, 118596, Note_on_c, 0, 92, 82
1, 118597, Note_on_c, 0, 78, 68
1, 118603, Control_c, 0, 64, 64
1, 118619, Note_off_c, 0, 92, 71
1, 118622, Note_off_c, 0, 78, 69
1, 118626, Note_on_c, 0, 46, 54
1, 118630, Note_off_c, 0, 56, 61
1, 118654, Note_off_c, 0, 46, 61
1, 118677, Control_c, 0, 64, 63
1, 118692, Control_c, 0, 64, 60
1, 118714, Note_on_c, 0, 86, 85
1, 118714, Control_c, 0, 64, 56
1, 118725, Note_on_c, 0, 72, 67
1, 118729, Control_c, 0, 64, 48
1, 118743, Note_off_c, 0, 72, 67
1, 118744, Control_c, 0, 64, 43
1, 118758, Control_c, 0, 64, 38
1, 118766, Note_off_c, 0, 86, 63
1, 118773, Control_c, 0, 64, 34
1, 118788, Control_c, 0, 64, 32
1, 118803, Control_c, 0, 64, 33
1, 118818, Control_c, 0, 64, 39
1, 118831, Note_on_c, 0, 85, 76
1, 118833, Control_c, 0, 64, 47
1, 118835, Note_on_c, 0, 71, 63
1, 118847, Control_c, 0, 64, 50
1, 118854, Note_off_c, 0, 71, 64
1, 118862, Control_c, 0, 64, 50
1, 118872, Note_off_c, 0, 85, 62
1, 118877, Control_c, 0, 64, 47
1, 118891, Control_c, 0, 64, 44
1, 118906, Control_c, 0, 64, 44
1, 118921, Control_c, 0, 64, 44
1, 118928, Note_on_c, 0, 84, 78
1, 118933, Note_on_c, 0, 70, 69
1, 118937, Control_c, 0, 64, 44
1, 118952, Control_c, 0, 64, 43
1, 118966, Note_off_c, 0, 70, 63
1, 118967, Control_c, 0, 64, 40
1, 118981, Control_c, 0, 64, 37
1, 118996, Control_c, 0, 64, 34
1, 119011, Control_c, 0, 64, 33
1, 119026, Control_c, 0, 64, 32
1, 119041, Control_c, 0, 64, 0
1, 119052, Note_off_c, 0, 84, 61
1, 119163, Note_on_c, 0, 83, 74
1, 119187, Note_on_c, 0, 69, 51
1, 119191, Note_on_c, 0, 65, 49
1, 119207, Note_on_c, 0, 55, 38
1, 119225, Note_on_c, 0, 49, 29
1, 119670, Control_c, 0, 64, 39
1, 119685, Control_c, 0, 64, 51
1, 119700, Control_c, 0, 64, 58
1, 119710, Note_off_c, 0, 83, 62
1, 119714, Control_c, 0, 64, 63
1, 119730, Control_c, 0, 64, 67
1, 119737, Note_off_c, 0, 69, 50
1, 119745, Control_c, 0, 64, 71
1, 119760, Control_c, 0, 64, 76
1, 119775, Control_c, 0, 64, 82
1, 119790, Control_c, 0, 64, 87
1, 119804, Note_off_c, 0, 55, 57
1, 119805, Control_c, 0, 64, 91
1, 119819, Control_c, 0, 64, 95
1, 119834, Control_c, 0, 64, 97
1, 119847, Note_off_c, 0, 49, 42
1, 119847, Note_off_c, 0, 65, 34
1, 119849, Control_c, 0, 64, 100
1, 119878, Control_c, 0, 64, 102
1, 120042, Control_c, 0, 64, 100
1, 120056, Control_c, 0, 64, 97
1, 120071, Control_c, 0, 64, 94
1, 120086, Control_c, 0, 64, 91
1, 120101, Control_c, 0, 64, 89
1, 120116, Control_c, 0, 64, 85
1, 120130, Control_c, 0, 64, 81
1, 120145, Control_c, 0, 64, 75
1, 120160, Control_c, 0, 64, 67
1, 120173, Note_on_c, 0, 80, 35
1, 120175, Note_on_c, 0, 73, 38
1, 120175, Control_c, 0, 64, 60
1, 120190, Control_c, 0, 64, 55
1, 120209, Note_on_c, 0, 66, 30
1, 120212, Control_c, 0, 64, 54
1, 120214, Note_on_c, 0, 52, 26
1, 120219, Note_on_c, 0, 62, 29
1, 120223, Note_on_c, 0, 58, 34
1, 120227, Control_c, 0, 64, 54
1, 120242, Control_c, 0, 64, 56
1, 120242, Note_off_c, 0, 73, 53
1, 120254, Note_off_c, 0, 66, 51
1, 120256, Control_c, 0, 64, 57
1, 120271, Control_c, 0, 64, 58
1, 120286, Control_c, 0, 64, 59
1, 120299, Note_off_c, 0, 80, 51
1, 120301, Control_c, 0, 64, 61
1, 120311, Note_off_c, 0, 62, 60
1, 120316, Control_c, 0, 64, 63
1, 120322, Note_off_c, 0, 58, 62
1, 120330, Control_c, 0, 64, 65
1, 120345, Control_c, 0, 64, 65
1, 120347, Note_on_c, 0, 81, 51
1, 120375, Note_on_c, 0, 74, 34
1, 120375, Control_c, 0, 64, 66
1, 120376, Note_off_c, 0, 81, 55
1, 120379, Note_on_c, 0, 67, 7
1, 120390, Control_c, 0, 64, 67
1, 120400, Note_off_c, 0, 74, 49
1, 120404, Control_c, 0, 64, 69
1, 120419, Control_c, 0, 64, 71
1, 120429, Note_off_c, 0, 67, 27
1, 120434, Control_c, 0, 64, 71
1, 120462, Note_on_c, 0, 82, 69
1, 120494, Note_on_c, 0, 68, 32
1, 120502, Note_off_c, 0, 52, 41
1, 120504, Note_off_c, 0, 82, 53
1, 120523, Control_c, 0, 64, 70
1, 120525, Note_off_c, 0, 68, 47
1, 120539, Control_c, 0, 64, 67
1, 120553, Control_c, 0, 64, 62
1, 120568, Control_c, 0, 64, 58
1, 120569, Note_on_c, 0, 83, 73
1, 120573, Note_on_c, 0, 76, 70
1, 120586, Note_on_c, 0, 55, 50
1, 120589, Note_on_c, 0, 65, 58
1, 120593, Note_on_c, 0, 69, 36
1, 120598, Note_off_c, 0, 83, 64
1, 120598, Control_c, 0, 64, 60
1, 120603, Note_on_c, 0, 61, 44
1, 120603, Note_off_c, 0, 76, 63
1, 120613, Control_c, 0, 64, 63
1, 120618, Note_off_c, 0, 65, 66
1, 120623, Note_off_c, 0, 55, 64
1, 120623, Note_off_c, 0, 69, 51
1, 120627, Control_c, 0, 64, 66
1, 120629, Note_off_c, 0, 61, 56
1, 120642, Control_c, 0, 64, 69
1, 120657, Control_c, 0, 64, 73
1, 120672, Control_c, 0, 64, 76
1, 120677, Note_on_c, 0, 77, 62
1, 120678, Note_on_c, 0, 84, 72
1, 120683, Note_on_c, 0, 70, 63
1, 120686, Control_c, 0, 64, 79
1, 120701, Control_c, 0, 64, 83
1, 120706, Note_off_c, 0, 77, 64
1, 120710, Note_off_c, 0, 84, 60
1, 120713, Note_off_c, 0, 70, 67
1, 120716, Control_c, 0, 64, 86
1, 120731, Control_c, 0, 64, 90
1, 120746, Control_c, 0, 64, 94
1, 120760, Control_c, 0, 64, 98
1, 120767, Note_on_c, 0, 85, 83
1, 120775, Control_c, 0, 64, 102
1, 120790, Control_c, 0, 64, 107
1, 120802, Note_on_c, 0, 71, 24
1, 120805, Control_c, 0, 64, 109
1, 120811, Note_off_c, 0, 85, 65
1, 120815, Note_on_c, 0, 68, 68
1, 120817, Note_on_c, 0, 58, 63
1, 120818, Note_on_c, 0, 52, 47
1, 120820, Control_c, 0, 64, 101
1, 120835, Control_c, 0, 64, 78
1, 120841, Note_off_c, 0, 71, 44
1, 120848, Note_on_c, 0, 86, 84
1, 120849, Note_off_c, 0, 58, 67
1, 120849, Note_off_c, 0, 68, 64
1, 120850, Note_on_c, 0, 72, 77
1, 120850, Control_c, 0, 64, 61
1, 120853, Note_on_c, 0, 79, 76
1, 120856, Note_off_c, 0, 52, 65
1, 120865, Control_c, 0, 64, 45
1, 120873, Note_off_c, 0, 72, 68
1, 120877, Note_off_c, 0, 79, 69
1, 120879, Control_c, 0, 64, 49
1, 120894, Control_c, 0, 64, 58
1, 120894, Note_off_c, 0, 86, 56
1, 120909, Control_c, 0, 64, 71
1, 120924, Control_c, 0, 64, 90
1, 120939, Control_c, 0, 64, 127
1, 120942, Note_on_c, 0, 87, 91
1, 120960, Note_on_c, 0, 73, 78
1, 120969, Note_on_c, 0, 49, 62
1, 120981, Note_on_c, 0, 80, 43
1, 120984, Note_on_c, 0, 55, 47
1, 120990, Control_c, 0, 67, 119
1, 120999, Note_off_c, 0, 87, 67
1, 121000, Note_off_c, 0, 49, 66
1, 121005, Control_c, 0, 67, 109
1, 121008, Note_off_c, 0, 80, 57
1, 121011, Note_off_c, 0, 55, 60
1, 121013, Note_off_c, 0, 73, 61
1, 121020, Control_c, 0, 64, 103
1, 121020, Control_c, 0, 67, 97
1, 121023, Note_on_c, 0, 65, 82
1, 121023, Note_on_c, 0, 88, 77
1, 121035, Control_c, 0, 67, 85
1, 121043, Note_off_c, 0, 65, 71
1, 121049, Control_c, 0, 67, 69
1, 121056, Note_off_c, 0, 88, 65
1, 121064, Control_c, 0, 67, 52
1, 121079, Control_c, 0, 64, 105
1, 121079, Control_c, 0, 67, 31
1, 121082, Note_on_c, 0, 71, 81
1, 121094, Control_c, 0, 67, 0
1, 121100, Note_off_c, 0, 71, 72
1, 121111, Note_on_c, 0, 89, 91
1, 121112, Note_on_c, 0, 75, 80
1, 121120, Note_on_c, 0, 82, 74
1, 121124, Control_c, 0, 64, 113
1, 121135, Note_off_c, 0, 75, 70
1, 121139, Control_c, 0, 64, 127
1, 121144, Note_off_c, 0, 82, 66
1, 121193, Note_on_c, 0, 83, 77
1, 121204, Note_on_c, 0, 90, 79
1, 121207, Note_on_c, 0, 76, 64
1, 121207, Note_off_c, 0, 89, 65
1, 121225, Note_off_c, 0, 76, 64
1, 121244, Note_off_c, 0, 90, 62
1, 121246, Note_off_c, 0, 83, 61
1, 121282, Note_on_c, 0, 91, 97
1, 121290, Note_on_c, 0, 77, 80
1, 121309, Note_off_c, 0, 77, 72
1, 121316, Control_c, 0, 64, 80
1, 121321, Note_off_c, 0, 91, 67
1, 121332, Control_c, 0, 64, 52
1, 121347, Control_c, 0, 64, 0
1, 121376, Control_c, 0, 67, 19
1, 121391, Control_c, 0, 67, 23
1, 121398, Note_on_c, 0, 72, 69
1, 121406, Control_c, 0, 67, 26
1, 121410, Note_on_c, 0, 62, 41
1, 121421, Control_c, 0, 67, 29
1, 121435, Control_c, 0, 67, 32
1, 121447, Note_on_c, 0, 67, 44
1, 121450, Control_c, 0, 67, 36
1, 121465, Control_c, 0, 64, 31
1, 121465, Control_c, 0, 67, 39
1, 121471, Note_off_c, 0, 72, 65
1, 121479, Note_off_c, 0, 62, 57
1, 121480, Control_c, 0, 64, 59
1, 121480, Control_c, 0, 67, 40
1, 121495, Control_c, 0, 64, 67
1, 121504, Note_on_c, 0, 66, 71
1, 121506, Note_off_c, 0, 67, 65
1, 121509, Control_c, 0, 64, 72
1, 121524, Control_c, 0, 64, 76
1, 121527, Note_off_c, 0, 66, 66
1, 121539, Control_c, 0, 64, 80
1, 121539, Control_c, 0, 67, 40
1, 121554, Control_c, 0, 64, 85
1, 121569, Control_c, 0, 64, 91
1, 121583, Control_c, 0, 64, 97
1, 121598, Control_c, 0, 64, 101
1, 121624, Note_on_c, 0, 92, 88
1, 121641, Note_on_c, 0, 78, 61
1, 121658, Control_c, 0, 64, 104
1, 121659, Note_off_c, 0, 78, 63
1, 121662, Note_on_c, 0, 56, 60
1, 121668, Note_off_c, 0, 92, 65
1, 121672, Control_c, 0, 64, 108
1, 121687, Control_c, 0, 64, 113
1, 121709, Control_c, 0, 64, 115
1, 121739, Control_c, 0, 67, 40
1, 121756, Note_on_c, 0, 78, 67
1, 121756, Note_on_c, 0, 92, 82
1, 121761, Note_off_c, 0, 56, 60
1, 121765, Note_on_c, 0, 46, 59
1, 121781, Note_off_c, 0, 78, 67
1, 121784, Note_off_c, 0, 92, 66
1, 121795, Note_off_c, 0, 46, 60
1, 121813, Control_c, 0, 67, 39
1, 121828, Control_c, 0, 67, 39
1, 121842, Control_c, 0, 64, 113
1, 121842, Control_c, 0, 67, 38
1, 121857, Control_c, 0, 64, 110
1, 121872, Control_c, 0, 64, 107
1, 121875, Note_on_c, 0, 86, 88
1, 121884, Note_on_c, 0, 72, 74
1, 121887, Control_c, 0, 64, 103
1, 121902, Control_c, 0, 64, 98
1, 121905, Note_off_c, 0, 72, 70
1, 121917, Control_c, 0, 64, 92
1, 121932, Control_c, 0, 64, 87
1, 121947, Control_c, 0, 64, 82
1, 121962, Control_c, 0, 64, 77
1, 121962, Control_c, 0, 67, 40
1, 121966, Note_off_c, 0, 86, 48
1, 121976, Control_c, 0, 64, 74
1, 121976, Control_c, 0, 67, 41
1, 121991, Control_c, 0, 64, 72
1, 121991, Control_c, 0, 67, 42
1, 122001, Note_on_c, 0, 85, 87
1, 122006, Control_c, 0, 64, 71
1, 122006, Control_c, 0, 67, 42
1, 122006, Note_on_c, 0, 71, 68
1, 122021, Control_c, 0, 67, 45
1, 122027, Note_off_c, 0, 71, 67
1, 122035, Control_c, 0, 64, 72
1, 122035, Control_c, 0, 67, 52
1, 122050, Control_c, 0, 67, 61
1, 122062, Note_off_c, 0, 85, 66
1, 122065, Control_c, 0, 67, 76
1, 122080, Control_c, 0, 64, 71
1, 122080, Control_c, 0, 67, 89
1, 122095, Control_c, 0, 64, 71
1, 122095, Control_c, 0, 67, 100
1, 122109, Control_c, 0, 67, 108
1, 122110, Note_on_c, 0, 84, 89
1, 122114, Note_on_c, 0, 70, 75
1, 122125, Control_c, 0, 64, 70
1, 122125, Control_c, 0, 67, 112
1, 122137, Note_off_c, 0, 70, 70
1, 122140, Control_c, 0, 64, 69
1, 122155, Control_c, 0, 64, 67
1, 122170, Control_c, 0, 64, 64
1, 122185, Control_c, 0, 64, 61
1, 122199, Control_c, 0, 64, 60
1, 122214, Control_c, 0, 64, 59
1, 122221, Note_off_c, 0, 84, 44
1, 122229, Control_c, 0, 64, 59
1, 122244, Control_c, 0, 64, 57
1, 122258, Control_c, 0, 64, 55
1, 122273, Control_c, 0, 64, 52
1, 122288, Control_c, 0, 64, 50
1, 122303, Control_c, 0, 64, 48
1, 122318, Control_c, 0, 64, 46
1, 122330, Note_on_c, 0, 83, 87
1, 122332, Control_c, 0, 64, 40
1, 122347, Control_c, 0, 64, 0
1, 122349, Note_on_c, 0, 65, 54
1, 122358, Note_on_c, 0, 69, 50
1, 122362, Control_c, 0, 67, 110
1, 122374, Note_on_c, 0, 55, 35
1, 122382, Note_on_c, 0, 49, 36
1, 122392, Control_c, 0, 67, 107
1, 122421, Control_c, 0, 67, 105
1, 122488, Control_c, 0, 67, 108
1, 122503, Control_c, 0, 67, 110
1, 122532, Control_c, 0, 67, 112
1, 122606, Control_c, 0, 67, 110
1, 122636, Control_c, 0, 67, 107
1, 122680, Control_c, 0, 67, 105
1, 122755, Control_c, 0, 67, 103
1, 122784, Control_c, 0, 64, 34
1, 122784, Control_c, 0, 67, 98
1, 122799, Control_c, 0, 64, 53
1, 122799, Control_c, 0, 67, 96
1, 122814, Control_c, 0, 64, 64
1, 122814, Control_c, 0, 67, 89
1, 122829, Control_c, 0, 64, 68
1, 122829, Control_c, 0, 67, 80
1, 122844, Control_c, 0, 64, 73
1, 122844, Control_c, 0, 67, 66
1, 122858, Control_c, 0, 64, 79
1, 122858, Control_c, 0, 67, 50
1, 122873, Control_c, 0, 64, 86
1, 122873, Control_c, 0, 67, 29
1, 122878, Note_off_c, 0, 55, 56
1, 122888, Control_c, 0, 64, 99
1, 122888, Control_c, 0, 67, 0
1, 122895, Note_off_c, 0, 65, 37
1, 122898, Note_off_c, 0, 69, 36
1, 122903, Control_c, 0, 64, 127
1, 122918, Note_off_c, 0, 49, 42
1, 122946, Note_off_c, 0, 83, 56
1, 123066, Note_on_c, 0, 83, 88
1, 123084, Note_on_c, 0, 69, 69
1, 123085, Note_on_c, 0, 65, 68
1, 123108, Note_on_c, 0, 55, 45
1, 123121, Note_off_c, 0, 69, 61
1, 123122, Note_on_c, 0, 49, 33
1, 123141, Note_off_c, 0, 55, 60
1, 123145, Note_off_c, 0, 65, 50
1, 123155, Note_off_c, 0, 49, 57
1, 123178, Note_off_c, 0, 83, 64
1, 123607, Control_c, 0, 67, 19
1, 123637, Control_c, 0, 67, 21
1, 123652, Control_c, 0, 67, 23
1, 123682, Control_c, 0, 67, 26
1, 123696, Control_c, 0, 67, 28
1, 123711, Control_c, 0, 67, 31
1, 123727, Control_c, 0, 67, 34
1, 123742, Control_c, 0, 67, 39
1, 123757, Control_c, 0, 67, 44
1, 123771, Control_c, 0, 67, 50
1, 123786, Control_c, 0, 67, 56
1, 123801, Control_c, 0, 67, 66
1, 123816, Control_c, 0, 67, 75
1, 123831, Control_c, 0, 67, 84
1, 123846, Control_c, 0, 67, 91
1, 123860, Control_c, 0, 67, 96
1, 123875, Control_c, 0, 67, 100
1, 123890, Control_c, 0, 67, 104
1, 123905, Control_c, 0, 67, 108
1, 123920, Control_c, 0, 67, 111
1, 123935, Control_c, 0, 67, 115
1, 123957, Control_c, 0, 67, 118
1, 123972, Control_c, 0, 67, 120
1, 124430, Note_on_c, 0, 83, 40
1, 124430, Control_c, 0, 64, 121
1, 124445, Control_c, 0, 64, 116
1, 124448, Note_on_c, 0, 65, 36
1, 124454, Note_on_c, 0, 49, 34
1, 124457, Note_on_c, 0, 69, 31
1, 124460, Control_c, 0, 64, 112
1, 124469, Note_off_c, 0, 83, 0
1, 124469, Note_on_c, 0, 83, 12
1, 124475, Control_c, 0, 64, 108
1, 124486, Note_on_c, 0, 55, 38
1, 124490, Control_c, 0, 64, 105
1, 124504, Control_c, 0, 64, 100
1, 124520, Control_c, 0, 64, 96
1, 124535, Control_c, 0, 64, 92
1, 124550, Control_c, 0, 64, 89
1, 124565, Control_c, 0, 64, 85
1, 124580, Control_c, 0, 64, 82
1, 124594, Control_c, 0, 64, 77
1, 124609, Control_c, 0, 64, 73
1, 124624, Control_c, 0, 64, 69
1, 124639, Control_c, 0, 64, 65
1, 124653, Control_c, 0, 64, 62
1, 124668, Control_c, 0, 64, 60
1, 124683, Control_c, 0, 64, 59
1, 124706, Control_c, 0, 64, 58
1, 124721, Control_c, 0, 64, 57
1, 124735, Control_c, 0, 64, 55
1, 124750, Control_c, 0, 64, 54
1, 124765, Control_c, 0, 64, 52
1, 124779, Control_c, 0, 64, 51
1, 124794, Control_c, 0, 64, 49
1, 124809, Control_c, 0, 64, 48
1, 124824, Control_c, 0, 64, 46
1, 124839, Control_c, 0, 64, 45
1, 124853, Control_c, 0, 64, 43
1, 124868, Control_c, 0, 64, 42
1, 124883, Control_c, 0, 64, 40
1, 124898, Control_c, 0, 64, 40
1, 124913, Control_c, 0, 64, 39
1, 124927, Control_c, 0, 64, 38
1, 124942, Control_c, 0, 64, 38
1, 124957, Control_c, 0, 64, 37
1, 125001, Control_c, 0, 64, 37
1, 125031, Control_c, 0, 64, 36
1, 125060, Control_c, 0, 64, 36
1, 125075, Control_c, 0, 64, 34
1, 125090, Control_c, 0, 64, 32
1, 125105, Control_c, 0, 64, 30
1, 125119, Control_c, 0, 64, 0
1, 125297, Control_c, 0, 64, 30
1, 125313, Control_c, 0, 64, 34
1, 125328, Control_c, 0, 64, 37
1, 125342, Control_c, 0, 64, 41
1, 125357, Control_c, 0, 64, 45
1, 125372, Control_c, 0, 64, 49
1, 125387, Control_c, 0, 64, 52
1, 125402, Control_c, 0, 64, 53
1, 125416, Control_c, 0, 64, 55
1, 125431, Control_c, 0, 64, 56
1, 125454, Control_c, 0, 64, 57
1, 125469, Control_c, 0, 64, 58
1, 125483, Control_c, 0, 64, 59
1, 125498, Control_c, 0, 64, 60
1, 125513, Control_c, 0, 64, 61
1, 125557, Control_c, 0, 64, 62
1, 125587, Control_c, 0, 64, 62
1, 125601, Control_c, 0, 64, 63
1, 125631, Control_c, 0, 64, 64
1, 125661, Control_c, 0, 64, 64
1, 125676, Control_c, 0, 64, 65
1, 125691, Control_c, 0, 64, 66
1, 125706, Control_c, 0, 64, 68
1, 125721, Control_c, 0, 64, 69
1, 125736, Control_c, 0, 64, 70
1, 125750, Control_c, 0, 64, 72
1, 125765, Control_c, 0, 64, 73
1, 125780, Control_c, 0, 64, 75
1, 125795, Control_c, 0, 64, 76
1, 125810, Control_c, 0, 64, 77
1, 125825, Control_c, 0, 64, 78
1, 125840, Control_c, 0, 64, 79
1, 125855, Control_c, 0, 64, 81
1, 125869, Control_c, 0, 64, 82
1, 125884, Control_c, 0, 64, 83
1, 125899, Control_c, 0, 64, 84
1, 125914, Control_c, 0, 64, 85
1, 125928, Control_c, 0, 64, 86
1, 125943, Control_c, 0, 64, 87
1, 125958, Control_c, 0, 64, 87
1, 125973, Control_c, 0, 64, 88
1, 125988, Control_c, 0, 64, 89
1, 126002, Control_c, 0, 64, 91
1, 126017, Control_c, 0, 64, 93
1, 126032, Control_c, 0, 64, 94
1, 126047, Control_c, 0, 64, 96
1, 126066, Note_off_c, 0, 49, 44
1, 126070, Note_off_c, 0, 69, 35
1, 126076, Control_c, 0, 64, 98
1, 126106, Control_c, 0, 64, 101
1, 126181, Control_c, 0, 67, 122
1, 126218, Control_c, 0, 67, 127
1, 126329, Note_off_c, 0, 83, 53
1, 126434, Note_on_c, 0, 49, 39
1, 126499, Control_c, 0, 64, 99
1, 126520, Note_off_c, 0, 65, 30
1, 126529, Control_c, 0, 64, 95
1, 126543, Control_c, 0, 64, 91
1, 126558, Control_c, 0, 64, 84
1, 126567, Note_off_c, 0, 55, 41
1, 126573, Control_c, 0, 64, 75
1, 126588, Control_c, 0, 64, 67
1, 126603, Control_c, 0, 64, 60
1, 126618, Control_c, 0, 64, 59
1, 126633, Control_c, 0, 64, 61
1, 126648, Control_c, 0, 64, 65
1, 126662, Control_c, 0, 64, 69
1, 126677, Control_c, 0, 64, 73
1, 126692, Control_c, 0, 64, 75
1, 126705, Note_on_c, 0, 95, 62
1, 126707, Control_c, 0, 64, 77
1, 126722, Control_c, 0, 64, 79
1, 126733, Note_on_c, 0, 81, 40
1, 126737, Control_c, 0, 64, 82
1, 126751, Control_c, 0, 64, 84
1, 126766, Control_c, 0, 64, 87
1, 126781, Control_c, 0, 64, 89
1, 126784, Note_off_c, 0, 81, 45
1, 126784, Note_off_c, 0, 95, 61
1, 126796, Control_c, 0, 64, 92
1, 126811, Control_c, 0, 64, 94
1, 126825, Control_c, 0, 64, 98
1, 126840, Control_c, 0, 64, 102
1, 126855, Control_c, 0, 64, 109
1, 126870, Control_c, 0, 64, 118
1, 126885, Control_c, 0, 64, 127
1, 126889, Note_on_c, 0, 59, 36
1, 127004, Note_on_c, 0, 88, 63
1, 127011, Note_off_c, 0, 49, 42
1, 127028, Note_on_c, 0, 74, 48
1, 127074, Note_off_c, 0, 74, 63
1, 127142, Note_off_c, 0, 88, 36
1, 127187, Note_off_c, 0, 59, 39
1, 127189, Note_on_c, 0, 65, 52
1, 127226, Note_off_c, 0, 65, 61
1, 127287, Note_on_c, 0, 89, 62
1, 127311, Note_on_c, 0, 75, 28
1, 127335, Note_off_c, 0, 89, 59
1, 127353, Note_off_c, 0, 75, 55
1, 127493, Note_on_c, 0, 65, 37
1, 127528, Note_off_c, 0, 65, 54
1, 127614, Note_on_c, 0, 83, 57
1, 127642, Note_on_c, 0, 69, 25
1, 127774, Note_off_c, 0, 69, 42
1, 127983, Note_on_c, 0, 59, 32
1, 128038, Note_off_c, 0, 59, 57
1, 128147, Note_off_c, 0, 83, 40
1, 128153, Note_on_c, 0, 75, 52
1, 128278, Note_off_c, 0, 75, 60
1, 128353, Note_on_c, 0, 49, 38
1, 128491, Note_off_c, 0, 49, 35
1, 128533, Note_on_c, 0, 59, 25
1, 128665, Note_off_c, 0, 59, 40
1, 128678, Note_on_c, 0, 65, 35
1, 128711, Note_off_c, 0, 65, 53
1, 128805, Note_on_c, 0, 84, 73
1, 128821, Note_on_c, 0, 70, 53
1, 128896, Note_off_c, 0, 70, 62
1, 128997, Note_off_c, 0, 84, 59
1, 129172, Note_on_c, 0, 65, 54
1, 129628, Note_on_c, 0, 85, 52
1, 129636, Note_off_c, 0, 65, 19
1, 129670, Note_on_c, 0, 71, 41
1, 129708, Note_on_c, 0, 70, 52
1, 129736, Note_off_c, 0, 71, 53
1, 129778, Note_on_c, 0, 59, 20
1, 129814, Note_off_c, 0, 85, 52
1, 130042, Note_off_c, 0, 70, 45
1, 130086, Note_off_c, 0, 59, 25
1, 130153, Note_on_c, 0, 69, 53
1, 130460, Note_on_c, 0, 86, 61
1, 130485, Note_on_c, 0, 68, 53
1, 130496, Note_on_c, 0, 72, 42
1, 130496, Control_c, 0, 64, 116
1, 130508, Note_off_c, 0, 69, 38
1, 130511, Control_c, 0, 64, 105
1, 130526, Control_c, 0, 64, 96
1, 130541, Control_c, 0, 64, 85
1, 130556, Control_c, 0, 64, 73
1, 130570, Control_c, 0, 64, 62
1, 130585, Control_c, 0, 64, 40
1, 130600, Control_c, 0, 64, 0
1, 130964, Control_c, 0, 64, 52
1, 130979, Control_c, 0, 64, 64
1, 130994, Control_c, 0, 64, 70
1, 131009, Control_c, 0, 64, 74
1, 131024, Control_c, 0, 64, 78
1, 131038, Control_c, 0, 64, 84
1, 131053, Note_off_c, 0, 68, 62
1, 131053, Control_c, 0, 64, 97
1, 131068, Control_c, 0, 64, 127
1, 131407, Note_on_c, 0, 46, 43
1, 131624, Note_off_c, 0, 46, 46
1, 131715, Note_on_c, 0, 56, 39
1, 131766, Note_off_c, 0, 72, 3
1, 131918, Note_on_c, 0, 62, 34
1, 131924, Note_off_c, 0, 56, 41
1, 131985, Note_off_c, 0, 62, 59
1, 132434, Note_on_c, 0, 67, 38
1, 132680, Note_off_c, 0, 67, 42
1, 134486, Note_on_c, 0, 66, 31
1, 134705, Note_off_c, 0, 66, 25
1, 135008, Note_off_c, 0, 86, 28
1, 136398, Control_c, 0, 64, 121
1, 136412, Control_c, 0, 64, 113
1, 136427, Control_c, 0, 64, 109
1, 136442, Control_c, 0, 64, 107
1, 136456, Control_c, 0, 64, 105
1, 136471, Control_c, 0, 64, 103
1, 136502, Control_c, 0, 64, 99
1, 136532, Control_c, 0, 64, 97
1, 136546, Control_c, 0, 64, 96
1, 136561, Control_c, 0, 64, 95
1, 136576, Control_c, 0, 64, 94
1, 136591, Control_c, 0, 64, 93
1, 136606, Control_c, 0, 64, 92
1, 136621, Control_c, 0, 64, 91
1, 136635, Control_c, 0, 64, 90
1, 136650, Control_c, 0, 64, 89
1, 136665, Control_c, 0, 64, 87
1, 136687, Control_c, 0, 64, 85
1, 136702, Control_c, 0, 64, 83
1, 136717, Control_c, 0, 64, 82
1, 136732, Control_c, 0, 64, 81
1, 136747, Control_c, 0, 64, 80
1, 136761, Control_c, 0, 64, 79
1, 136776, Control_c, 0, 64, 77
1, 136791, Control_c, 0, 64, 75
1, 136806, Control_c, 0, 64, 73
1, 136821, Control_c, 0, 64, 72
1, 136835, Control_c, 0, 64, 72
1, 136850, Control_c, 0, 64, 71
1, 136880, Control_c, 0, 64, 70
1, 136894, Control_c, 0, 64, 69
1, 136909, Control_c, 0, 64, 69
1, 136924, Control_c, 0, 64, 68
1, 136939, Control_c, 0, 64, 67
1, 136953, Control_c, 0, 64, 67
1, 136968, Control_c, 0, 64, 66
1, 136983, Control_c, 0, 64, 65
1, 136998, Control_c, 0, 64, 64
1, 137012, Control_c, 0, 64, 64
1, 137027, Control_c, 0, 64, 63
1, 137042, Control_c, 0, 64, 63
1, 137057, Control_c, 0, 64, 62
1, 137072, Control_c, 0, 64, 62
1, 137117, Control_c, 0, 64, 61
1, 137146, Control_c, 0, 64, 61
1, 137205, Control_c, 0, 64, 60
1, 137220, Control_c, 0, 64, 60
1, 137235, Control_c, 0, 64, 59
1, 137250, Control_c, 0, 64, 59
1, 137279, Control_c, 0, 64, 58
1, 137310, Control_c, 0, 64, 58
1, 137325, Control_c, 0, 64, 57
1, 137384, Control_c, 0, 64, 57
1, 137435, Control_c, 0, 64, 56
1, 137450, Control_c, 0, 64, 55
1, 137525, Control_c, 0, 64, 55
1, 137555, Control_c, 0, 64, 54
1, 137628, Control_c, 0, 64, 54
1, 137643, Control_c, 0, 64, 53
1, 137688, Control_c, 0, 64, 53
1, 137702, Control_c, 0, 64, 52
1, 137717, Control_c, 0, 64, 51
1, 137806, Control_c, 0, 64, 51
1, 137821, Control_c, 0, 64, 50
1, 137835, Control_c, 0, 64, 50
1, 137880, Control_c, 0, 64, 50
1, 137954, Control_c, 0, 64, 51
1, 137999, Control_c, 0, 64, 50
1, 138073, Control_c, 0, 64, 50
1, 138088, Control_c, 0, 64, 49
1, 138103, Control_c, 0, 64, 48
1, 138118, Control_c, 0, 64, 47
1, 138133, Control_c, 0, 64, 47
1, 138148, Control_c, 0, 64, 46
1, 138163, Control_c, 0, 64, 45
1, 138185, Control_c, 0, 64, 44
1, 138200, Control_c, 0, 64, 43
1, 138214, Control_c, 0, 64, 42
1, 138229, Control_c, 0, 64, 41
1, 138273, Control_c, 0, 64, 41
1, 138288, Control_c, 0, 64, 40
1, 138303, Control_c, 0, 64, 39
1, 138318, Control_c, 0, 64, 38
1, 138333, Control_c, 0, 64, 37
1, 138348, Control_c, 0, 64, 35
1, 138363, Control_c, 0, 64, 33
1, 138377, Control_c, 0, 64, 31
1, 138392, Control_c, 0, 64, 0
1, 138571, Control_c, 0, 64, 36
1, 138585, Control_c, 0, 64, 46
1, 138600, Control_c, 0, 64, 53
1, 138615, Control_c, 0, 64, 58
1, 138615, Control_c, 0, 67, 118
1, 138630, Control_c, 0, 64, 61
1, 138630, Control_c, 0, 67, 100
1, 138645, Control_c, 0, 64, 63
1, 138645, Control_c, 0, 67, 81
1, 138659, Control_c, 0, 64, 66
1, 138659, Control_c, 0, 67, 62
1, 138674, Control_c, 0, 64, 68
1, 138674, Control_c, 0, 67, 43
1, 138689, Control_c, 0, 64, 70
1, 138689, Control_c, 0, 67, 29
1, 138704, Control_c, 0, 64, 72
1, 138704, Control_c, 0, 67, 0
1, 138719, Control_c, 0, 64, 74
1, 138733, Control_c, 0, 64, 77
1, 138748, Control_c, 0, 64, 79
1, 138763, Control_c, 0, 64, 84
1, 138777, Control_c, 0, 64, 88
1, 138792, Control_c, 0, 64, 93
1, 138807, Control_c, 0, 64, 99
1, 138822, Control_c, 0, 64, 104
1, 138837, Control_c, 0, 64, 111
1, 138849, Note_on_c, 0, 66, 53
1, 138851, Control_c, 0, 64, 122
1, 138866, Control_c, 0, 64, 127
1, 139201, Note_off_c, 0, 66, 31
1, 139383, Note_on_c, 0, 56, 43
1, 139598, Note_off_c, 0, 56, 27
1, 139727, Note_on_c, 0, 51, 39
1, 139942, Note_on_c, 0, 82, 71
1, 139968, Note_on_c, 0, 71, 50
1, 140002, Note_off_c, 0, 71, 56
1, 140083, Note_off_c, 0, 82, 38
1, 140212, Note_on_c, 0, 56, 38
1, 140467, Note_on_c, 0, 66, 40
1, 140533, Note_off_c, 0, 51, 39
1, 140628, Note_off_c, 0, 56, 40
1, 141082, Note_on_c, 0, 56, 35
1, 141203, Note_off_c, 0, 66, 35
1, 141416, Note_on_c, 0, 50, 44
1, 141503, Note_off_c, 0, 56, 40
1, 141659, Note_on_c, 0, 82, 80
1, 141684, Control_c, 0, 64, 99
1, 141691, Note_on_c, 0, 71, 57
1, 141699, Control_c, 0, 64, 80
1, 141714, Control_c, 0, 64, 65
1, 141729, Control_c, 0, 64, 52
1, 141743, Control_c, 0, 64, 45
1, 141758, Control_c, 0, 64, 49
1, 141773, Control_c, 0, 64, 56
1, 141788, Control_c, 0, 64, 62
1, 141802, Control_c, 0, 64, 65
1, 141817, Control_c, 0, 64, 69
1, 141832, Control_c, 0, 64, 74
1, 141847, Control_c, 0, 64, 80
1, 141862, Control_c, 0, 64, 84
1, 141877, Control_c, 0, 64, 88
1, 141882, Note_on_c, 0, 56, 49
1, 141892, Control_c, 0, 64, 94
1, 141907, Control_c, 0, 64, 102
1, 141928, Control_c, 0, 64, 118
1, 141943, Control_c, 0, 64, 127
1, 141969, Note_off_c, 0, 50, 34
1, 142033, Note_off_c, 0, 56, 55
1, 142133, Note_on_c, 0, 66, 46
1, 142240, Note_off_c, 0, 66, 52
1, 142342, Note_on_c, 0, 65, 64
1, 142418, Control_c, 0, 64, 88
1, 142433, Control_c, 0, 64, 67
1, 142448, Control_c, 0, 64, 46
1, 142463, Control_c, 0, 64, 0
1, 142507, Control_c, 0, 64, 54
1, 142522, Control_c, 0, 64, 65
1, 142537, Control_c, 0, 64, 72
1, 142551, Control_c, 0, 64, 80
1, 142566, Control_c, 0, 64, 84
1, 142571, Note_on_c, 0, 59, 55
1, 142581, Control_c, 0, 64, 89
1, 142596, Control_c, 0, 64, 96
1, 142611, Control_c, 0, 64, 107
1, 142613, Note_off_c, 0, 71, 56
1, 142614, Note_off_c, 0, 82, 57
1, 142625, Control_c, 0, 64, 127
1, 142635, Note_off_c, 0, 65, 39
1, 142755, Note_off_c, 0, 59, 54
1, 142816, Note_on_c, 0, 49, 42
1, 142891, Note_off_c, 0, 49, 55
1, 142929, Note_on_c, 0, 82, 77
1, 142952, Note_on_c, 0, 71, 58
1, 143114, Note_off_c, 0, 71, 38
1, 143123, Note_on_c, 0, 43, 47
1, 143198, Note_on_c, 0, 53, 44
1, 143237, Note_off_c, 0, 43, 48
1, 143255, Note_off_c, 0, 53, 57
1, 143288, Note_on_c, 0, 59, 45
1, 143317, Note_off_c, 0, 59, 63
1, 143451, Note_on_c, 0, 85, 69
1, 143465, Note_off_c, 0, 82, 58
1, 143476, Note_on_c, 0, 74, 48
1, 143568, Note_on_c, 0, 65, 51
1, 143622, Note_off_c, 0, 65, 58
1, 143623, Note_off_c, 0, 74, 32
1, 143794, Note_off_c, 0, 85, 24
1, 145323, Poly_aftertouch_c, 0, 85, 127
1, 145547, Control_c, 0, 67, 20
1, 145576, Control_c, 0, 67, 23
1, 145606, Control_c, 0, 67, 27
1, 145636, Control_c, 0, 67, 31
1, 145651, Control_c, 0, 67, 37
1, 145673, Control_c, 0, 67, 44
1, 145688, Control_c, 0, 67, 52
1, 145701, Note_on_c, 0, 65, 42
1, 145703, Control_c, 0, 67, 61
1, 145717, Control_c, 0, 67, 70
1, 145729, Poly_aftertouch_c, 0, 74, 127
1, 145732, Control_c, 0, 67, 78
1, 145747, Control_c, 0, 67, 85
1, 145762, Control_c, 0, 67, 91
1, 145776, Control_c, 0, 67, 96
1, 145791, Control_c, 0, 67, 102
1, 145806, Control_c, 0, 67, 109
1, 145821, Control_c, 0, 67, 117
1, 145836, Control_c, 0, 67, 122
1, 145851, Control_c, 0, 67, 124
1, 145859, Poly_aftertouch_c, 0, 85, 0
1, 145865, Control_c, 0, 67, 126
1, 145888, Note_off_c, 0, 65, 41
1, 145889, Note_on_c, 0, 59, 46
1, 145985, Poly_aftertouch_c, 0, 74, 0
1, 146015, Note_off_c, 0, 59, 52
1, 146028, Note_on_c, 0, 49, 58
1, 146163, Control_c, 0, 67, 124
1, 146207, Control_c, 0, 64, 113
1, 146207, Control_c, 0, 67, 122
1, 146222, Control_c, 0, 64, 108
1, 146237, Control_c, 0, 64, 105
1, 146252, Control_c, 0, 64, 103
1, 146278, Note_on_c, 0, 75, 69
1, 146281, Control_c, 0, 64, 98
1, 146292, Note_on_c, 0, 64, 59
1, 146296, Control_c, 0, 64, 94
1, 146301, Note_on_c, 0, 59, 44
1, 146310, Control_c, 0, 64, 91
1, 146311, Note_on_c, 0, 55, 49
1, 146325, Control_c, 0, 64, 87
1, 146325, Control_c, 0, 67, 120
1, 146340, Control_c, 0, 64, 83
1, 146355, Control_c, 0, 64, 78
1, 146370, Control_c, 0, 64, 72
1, 146384, Control_c, 0, 64, 65
1, 146399, Control_c, 0, 64, 56
1, 146422, Control_c, 0, 64, 44
1, 146422, Control_c, 0, 67, 118
1, 146437, Control_c, 0, 64, 0
1, 146481, Control_c, 0, 67, 116
1, 146525, Control_c, 0, 67, 114
1, 146570, Control_c, 0, 67, 112
1, 146599, Control_c, 0, 67, 106
1, 146614, Control_c, 0, 67, 103
1, 146629, Control_c, 0, 67, 99
1, 146643, Control_c, 0, 67, 96
1, 146658, Control_c, 0, 64, 31
1, 146658, Control_c, 0, 67, 94
1, 146673, Control_c, 0, 64, 46
1, 146673, Control_c, 0, 67, 92
1, 146688, Control_c, 0, 64, 58
1, 146688, Control_c, 0, 67, 91
1, 146703, Control_c, 0, 64, 63
1, 146703, Control_c, 0, 67, 89
1, 146717, Control_c, 0, 64, 66
1, 146717, Control_c, 0, 67, 87
1, 146732, Control_c, 0, 64, 69
1, 146732, Control_c, 0, 67, 84
1, 146747, Control_c, 0, 64, 73
1, 146747, Control_c, 0, 67, 82
1, 146762, Control_c, 0, 64, 78
1, 146762, Control_c, 0, 67, 79
1, 146777, Control_c, 0, 64, 84
1, 146777, Control_c, 0, 67, 75
1, 146783, Note_off_c, 0, 64, 62
1, 146791, Control_c, 0, 64, 91
1, 146791, Control_c, 0, 67, 72
1, 146806, Control_c, 0, 64, 102
1, 146806, Control_c, 0, 67, 67
1, 146821, Control_c, 0, 64, 127
1, 146821, Control_c, 0, 67, 60
1, 146835, Control_c, 0, 67, 53
1, 146850, Control_c, 0, 67, 45
1, 146865, Control_c, 0, 67, 37
1, 146881, Control_c, 0, 67, 28
1, 146882, Note_off_c, 0, 75, 38
1, 146896, Control_c, 0, 67, 0
1, 147185, Control_c, 0, 64, 116
1, 147197, Note_on_c, 0, 76, 75
1, 147200, Control_c, 0, 64, 107
1, 147214, Control_c, 0, 64, 98
1, 147223, Note_on_c, 0, 65, 63
1, 147229, Control_c, 0, 64, 88
1, 147244, Control_c, 0, 64, 76
1, 147259, Control_c, 0, 64, 67
1, 147274, Control_c, 0, 64, 57
1, 147288, Control_c, 0, 64, 40
1, 147303, Control_c, 0, 64, 0
1, 147466, Control_c, 0, 64, 35
1, 147481, Control_c, 0, 64, 54
1, 147496, Control_c, 0, 64, 60
1, 147511, Control_c, 0, 64, 63
1, 147526, Control_c, 0, 64, 67
1, 147540, Control_c, 0, 64, 73
1, 147555, Control_c, 0, 64, 81
1, 147559, Note_off_c, 0, 65, 64
1, 147570, Control_c, 0, 64, 92
1, 147579, Note_off_c, 0, 55, 33
1, 147585, Control_c, 0, 64, 108
1, 147585, Control_c, 0, 67, 20
1, 147600, Control_c, 0, 64, 127
1, 147601, Note_off_c, 0, 59, 36
1, 147645, Note_off_c, 0, 49, 53
1, 147673, Control_c, 0, 67, 22
1, 147719, Control_c, 0, 67, 25
1, 147749, Control_c, 0, 67, 27
1, 147763, Control_c, 0, 67, 30
1, 147778, Control_c, 0, 67, 34
1, 147793, Control_c, 0, 67, 40
1, 147808, Control_c, 0, 67, 49
1, 147823, Control_c, 0, 67, 60
1, 147837, Control_c, 0, 67, 73
1, 147852, Control_c, 0, 67, 87
1, 147867, Control_c, 0, 67, 95
1, 147881, Control_c, 0, 67, 100
1, 147919, Control_c, 0, 67, 102
1, 147949, Note_on_c, 0, 79, 65
1, 147958, Note_on_c, 0, 68, 59
1, 147964, Control_c, 0, 64, 107
1, 147978, Control_c, 0, 64, 96
1, 147993, Control_c, 0, 64, 88
1, 148008, Control_c, 0, 64, 80
1, 148010, Note_on_c, 0, 62, 38
1, 148012, Note_off_c, 0, 76, 58
1, 148023, Control_c, 0, 64, 73
1, 148037, Control_c, 0, 64, 65
1, 148052, Control_c, 0, 64, 54
1, 148067, Control_c, 0, 64, 30
1, 148082, Control_c, 0, 64, 0
1, 148200, Control_c, 0, 67, 104
1, 148334, Control_c, 0, 67, 108
1, 148349, Control_c, 0, 67, 116
1, 148363, Control_c, 0, 67, 126
1, 148400, Note_on_c, 0, 56, 34
1, 148408, Control_c, 0, 64, 40
1, 148423, Control_c, 0, 64, 54
1, 148437, Control_c, 0, 64, 58
1, 148452, Control_c, 0, 64, 59
1, 148467, Control_c, 0, 64, 61
1, 148483, Control_c, 0, 64, 64
1, 148498, Control_c, 0, 64, 67
1, 148512, Control_c, 0, 64, 70
1, 148527, Control_c, 0, 64, 73
1, 148542, Control_c, 0, 64, 76
1, 148557, Control_c, 0, 64, 80
1, 148572, Control_c, 0, 64, 84
1, 148586, Control_c, 0, 64, 89
1, 148601, Control_c, 0, 64, 94
1, 148616, Control_c, 0, 64, 100
1, 148631, Control_c, 0, 64, 110
1, 148646, Control_c, 0, 64, 127
1, 148673, Note_off_c, 0, 62, 28
1, 148675, Note_off_c, 0, 56, 32
1, 148723, Note_on_c, 0, 46, 48
1, 148906, Note_off_c, 0, 46, 43
1, 149091, Note_on_c, 0, 56, 43
1, 149261, Note_off_c, 0, 56, 50
1, 149280, Note_on_c, 0, 62, 32
1, 149358, Note_off_c, 0, 62, 56
1, 149550, Control_c, 0, 67, 122
1, 149565, Control_c, 0, 67, 111
1, 149580, Control_c, 0, 67, 99
1, 149595, Control_c, 0, 67, 89
1, 149609, Control_c, 0, 67, 79
1, 149624, Control_c, 0, 67, 70
1, 149639, Control_c, 0, 67, 62
1, 149654, Control_c, 0, 67, 55
1, 149668, Control_c, 0, 67, 50
1, 149683, Control_c, 0, 67, 46
1, 149698, Control_c, 0, 67, 43
1, 149708, Note_on_c, 0, 72, 45
1, 149713, Note_on_c, 0, 60, 57
1, 149713, Control_c, 0, 67, 39
1, 149727, Control_c, 0, 67, 35
1, 149742, Control_c, 0, 67, 32
1, 149757, Control_c, 0, 67, 30
1, 149772, Control_c, 0, 67, 27
1, 149787, Control_c, 0, 67, 23
1, 149802, Control_c, 0, 67, 0
1, 150011, Note_off_c, 0, 60, 36
1, 150110, Note_off_c, 0, 72, 35
1, 150518, Note_on_c, 0, 71, 37
1, 150523, Note_on_c, 0, 59, 54
1, 150715, Note_off_c, 0, 59, 35
1, 150800, Note_off_c, 0, 71, 39
1, 151142, Note_on_c, 0, 59, 44
1, 151145, Note_on_c, 0, 71, 32
1, 151271, Note_off_c, 0, 59, 35
1, 151631, Note_off_c, 0, 79, 61
1, 151691, Note_off_c, 0, 71, 37
1, 152039, Note_on_c, 0, 82, 78
1, 152082, Note_on_c, 0, 71, 42
1, 152100, Note_on_c, 0, 62, 46
1, 152105, Note_off_c, 0, 68, 36
1, 152173, Note_off_c, 0, 82, 63
1, 152242, Note_off_c, 0, 62, 35
1, 152265, Note_on_c, 0, 56, 54
1, 152375, Note_off_c, 0, 56, 57
1, 152420, Note_on_c, 0, 46, 54
1, 152486, Note_off_c, 0, 71, 52
1, 152540, Note_on_c, 0, 72, 75
1, 152543, Note_on_c, 0, 61, 74
1, 152578, Note_on_c, 0, 56, 57
1, 152584, Note_on_c, 0, 52, 51
1, 152620, Control_c, 0, 64, 98
1, 152635, Control_c, 0, 64, 74
1, 152650, Control_c, 0, 64, 54
1, 152665, Control_c, 0, 64, 0
1, 152739, Control_c, 0, 64, 49
1, 152753, Control_c, 0, 64, 62
1, 152768, Control_c, 0, 64, 70
1, 152783, Control_c, 0, 64, 81
1, 152798, Control_c, 0, 64, 94
1, 152813, Control_c, 0, 64, 107
1, 152827, Control_c, 0, 64, 127
1, 152845, Note_off_c, 0, 72, 60
1, 152869, Note_off_c, 0, 61, 54
1, 153064, Control_c, 0, 67, 19
1, 153079, Control_c, 0, 64, 102
1, 153094, Control_c, 0, 64, 91
1, 153095, Note_on_c, 0, 73, 78
1, 153109, Control_c, 0, 64, 81
1, 153111, Note_on_c, 0, 62, 63
1, 153124, Control_c, 0, 64, 70
1, 153139, Control_c, 0, 64, 61
1, 153139, Control_c, 0, 67, 21
1, 153160, Control_c, 0, 64, 48
1, 153175, Control_c, 0, 64, 0
1, 153324, Control_c, 0, 64, 40
1, 153324, Control_c, 0, 67, 23
1, 153339, Control_c, 0, 64, 55
1, 153354, Control_c, 0, 64, 62
1, 153369, Control_c, 0, 64, 66
1, 153383, Control_c, 0, 64, 71
1, 153385, Note_off_c, 0, 56, 56
1, 153398, Control_c, 0, 64, 76
1, 153413, Control_c, 0, 64, 82
1, 153419, Note_off_c, 0, 62, 49
1, 153420, Note_off_c, 0, 52, 53
1, 153428, Control_c, 0, 64, 91
1, 153428, Control_c, 0, 67, 25
1, 153443, Control_c, 0, 64, 101
1, 153458, Control_c, 0, 64, 110
1, 153473, Control_c, 0, 64, 121
1, 153473, Control_c, 0, 67, 28
1, 153488, Control_c, 0, 64, 127
1, 153488, Control_c, 0, 67, 30
1, 153517, Control_c, 0, 67, 33
1, 153532, Control_c, 0, 67, 36
1, 153547, Control_c, 0, 67, 39
1, 153553, Note_off_c, 0, 46, 28
1, 153562, Control_c, 0, 67, 42
1, 153576, Control_c, 0, 67, 45
1, 153591, Control_c, 0, 67, 48
1, 153606, Control_c, 0, 67, 52
1, 153621, Control_c, 0, 67, 57
1, 153635, Control_c, 0, 67, 63
1, 153650, Control_c, 0, 67, 73
1, 153665, Control_c, 0, 67, 84
1, 153680, Control_c, 0, 67, 94
1, 153695, Control_c, 0, 67, 103
1, 153709, Control_c, 0, 67, 109
1, 153724, Control_c, 0, 67, 115
1, 153739, Control_c, 0, 67, 119
1, 153754, Control_c, 0, 67, 124
1, 153769, Control_c, 0, 64, 121
1, 153769, Control_c, 0, 67, 127
1, 153772, Note_off_c, 0, 73, 61
1, 153783, Control_c, 0, 64, 110
1, 153795, Note_on_c, 0, 76, 66
1, 153798, Control_c, 0, 64, 101
1, 153813, Control_c, 0, 64, 91
1, 153823, Note_on_c, 0, 65, 49
1, 153827, Control_c, 0, 64, 84
1, 153842, Note_on_c, 0, 59, 33
1, 153842, Control_c, 0, 64, 77
1, 153857, Control_c, 0, 64, 71
1, 153872, Control_c, 0, 64, 66
1, 153887, Control_c, 0, 64, 59
1, 153909, Control_c, 0, 64, 47
1, 153924, Control_c, 0, 64, 0
1, 154145, Note_on_c, 0, 53, 43
1, 154192, Control_c, 0, 64, 44
1, 154206, Control_c, 0, 64, 55
1, 154221, Control_c, 0, 64, 61
1, 154236, Control_c, 0, 64, 64
1, 154251, Control_c, 0, 64, 67
1, 154266, Control_c, 0, 64, 70
1, 154281, Control_c, 0, 64, 74
1, 154295, Control_c, 0, 64, 78
1, 154301, Note_off_c, 0, 59, 34
1, 154310, Control_c, 0, 64, 82
1, 154325, Control_c, 0, 64, 86
1, 154340, Control_c, 0, 64, 91
1, 154355, Control_c, 0, 64, 97
1, 154370, Control_c, 0, 64, 105
1, 154385, Control_c, 0, 64, 115
1, 154399, Note_on_c, 0, 43, 43
1, 154399, Control_c, 0, 64, 127
1, 154503, Note_off_c, 0, 53, 31
1, 154597, Note_off_c, 0, 43, 40
1, 154606, Control_c, 0, 67, 125
1, 154621, Control_c, 0, 67, 123
1, 154658, Control_c, 0, 67, 121
1, 154688, Control_c, 0, 67, 119
1, 154762, Control_c, 0, 67, 116
1, 154776, Control_c, 0, 67, 113
1, 154791, Control_c, 0, 67, 110
1, 154797, Note_on_c, 0, 69, 39
1, 154812, Note_on_c, 0, 57, 60
1, 154821, Control_c, 0, 67, 108
1, 154988, Note_off_c, 0, 57, 29
1, 155103, Control_c, 0, 67, 106
1, 155118, Control_c, 0, 67, 104
1, 155133, Control_c, 0, 67, 94
1, 155148, Control_c, 0, 67, 79
1, 155163, Control_c, 0, 67, 60
1, 155178, Control_c, 0, 67, 34
1, 155193, Control_c, 0, 67, 0
1, 155671, Note_off_c, 0, 69, 37
1, 155852, Control_c, 0, 67, 20
1, 155867, Control_c, 0, 67, 22
1, 155896, Control_c, 0, 67, 24
1, 155926, Control_c, 0, 67, 27
1, 155941, Control_c, 0, 67, 29
1, 155971, Control_c, 0, 67, 32
1, 155986, Control_c, 0, 67, 34
1, 156001, Control_c, 0, 67, 36
1, 156015, Control_c, 0, 67, 39
1, 156030, Control_c, 0, 67, 41
1, 156045, Control_c, 0, 67, 44
1, 156054, Note_on_c, 0, 56, 46
1, 156060, Control_c, 0, 67, 46
1, 156070, Note_on_c, 0, 68, 37
1, 156075, Control_c, 0, 67, 48
1, 156090, Control_c, 0, 67, 51
1, 156104, Control_c, 0, 67, 53
1, 156119, Control_c, 0, 67, 54
1, 156133, Note_off_c, 0, 56, 61
1, 156134, Control_c, 0, 67, 54
1, 156156, Control_c, 0, 67, 55
1, 156185, Control_c, 0, 67, 56
1, 156215, Control_c, 0, 67, 56
1, 156245, Control_c, 0, 67, 57
1, 156260, Control_c, 0, 67, 57
1, 156275, Control_c, 0, 67, 58
1, 156290, Control_c, 0, 67, 64
1, 156304, Control_c, 0, 67, 71
1, 156319, Control_c, 0, 67, 75
1, 156334, Control_c, 0, 67, 77
1, 156348, Control_c, 0, 67, 77
1, 156363, Control_c, 0, 67, 78
1, 156498, Control_c, 0, 64, 90
1, 156513, Control_c, 0, 64, 75
1, 156528, Control_c, 0, 64, 72
1, 156539, Note_on_c, 0, 37, 44
1, 156539, Note_off_c, 0, 65, 60
1, 156543, Control_c, 0, 64, 74
1, 156558, Note_on_c, 0, 49, 35
1, 156558, Control_c, 0, 64, 81
1, 156573, Control_c, 0, 64, 94
1, 156588, Control_c, 0, 64, 127
1, 156594, Note_off_c, 0, 49, 60
1, 156594, Note_off_c, 0, 68, 55
1, 156601, Note_off_c, 0, 37, 61
1, 156606, Note_off_c, 0, 76, 60
1, 156646, Control_c, 0, 67, 77
1, 156676, Control_c, 0, 67, 77
1, 156976, Note_on_c, 0, 56, 55
1, 156978, Note_on_c, 0, 68, 47
1, 156979, Control_c, 0, 67, 76
1, 156985, Note_on_c, 0, 53, 39
1, 156990, Note_on_c, 0, 59, 31
1, 156996, Note_on_c, 0, 49, 43
1, 157061, Note_off_c, 0, 68, 59
1, 157070, Note_off_c, 0, 56, 50
1, 157083, Control_c, 0, 67, 76
1, 157608, Note_off_c, 0, 59, 36
1, 157717, Note_off_c, 0, 53, 37
1, 157802, Control_c, 0, 67, 75
1, 157876, Control_c, 0, 67, 75
1, 158165, Note_off_c, 0, 49, 37
1, 158277, Control_c, 0, 67, 75
1, 158321, Control_c, 0, 67, 76
1, 158380, Control_c, 0, 67, 76
1, 158403, Control_c, 0, 67, 77
1, 158432, Control_c, 0, 67, 77
1, 158462, Control_c, 0, 67, 78
1, 158699, Control_c, 0, 64, 112
1, 158700, Note_on_c, 0, 72, 56
1, 158714, Control_c, 0, 64, 107
1, 158729, Control_c, 0, 64, 103
1, 158730, Note_on_c, 0, 61, 45
1, 158743, Control_c, 0, 64, 99
1, 158744, Note_on_c, 0, 56, 36
1, 158752, Note_on_c, 0, 52, 31
1, 158754, Note_on_c, 0, 46, 36
1, 158758, Control_c, 0, 64, 95
1, 158773, Control_c, 0, 64, 89
1, 158788, Control_c, 0, 64, 82
1, 158803, Control_c, 0, 64, 74
1, 158817, Control_c, 0, 64, 68
1, 158832, Control_c, 0, 64, 61
1, 158847, Control_c, 0, 64, 50
1, 158862, Control_c, 0, 64, 31
1, 158878, Control_c, 0, 64, 0
1, 158922, Control_c, 0, 64, 31
1, 158937, Control_c, 0, 64, 50
1, 158952, Control_c, 0, 64, 61
1, 158952, Control_c, 0, 67, 77
1, 158967, Control_c, 0, 64, 65
1, 158967, Control_c, 0, 67, 77
1, 158981, Control_c, 0, 64, 67
1, 158996, Control_c, 0, 64, 69
1, 159011, Control_c, 0, 64, 72
1, 159025, Note_off_c, 0, 61, 52
1, 159026, Control_c, 0, 64, 75
1, 159041, Control_c, 0, 64, 80
1, 159041, Control_c, 0, 67, 76
1, 159056, Control_c, 0, 64, 85
1, 159071, Control_c, 0, 64, 91
1, 159086, Control_c, 0, 64, 96
1, 159101, Control_c, 0, 64, 100
1, 159115, Control_c, 0, 64, 102
1, 159152, Control_c, 0, 64, 105
1, 159167, Control_c, 0, 64, 107
1, 159181, Control_c, 0, 64, 112
1, 159196, Control_c, 0, 64, 118
1, 159211, Control_c, 0, 64, 127
1, 159230, Note_on_c, 0, 73, 69
1, 159241, Control_c, 0, 67, 76
1, 159249, Note_on_c, 0, 62, 51
1, 159256, Note_off_c, 0, 52, 40
1, 159256, Note_off_c, 0, 72, 56
1, 159287, Note_off_c, 0, 56, 38
1, 159318, Note_off_c, 0, 46, 44
1, 159345, Note_off_c, 0, 62, 57
1, 159679, Note_on_c, 0, 76, 68
1, 159699, Note_on_c, 0, 65, 51
1, 159701, Control_c, 0, 64, 107
1, 159715, Note_on_c, 0, 59, 40
1, 159716, Control_c, 0, 64, 93
1, 159731, Control_c, 0, 64, 78
1, 159745, Control_c, 0, 64, 66
1, 159754, Note_off_c, 0, 73, 38
1, 159757, Note_off_c, 0, 65, 0
1, 159757, Note_on_c, 0, 65, 17
1, 159760, Control_c, 0, 64, 51
1, 159775, Control_c, 0, 64, 0
1, 159864, Control_c, 0, 64, 46
1, 159879, Note_on_c, 0, 53, 40
1, 159879, Control_c, 0, 64, 58
1, 159901, Control_c, 0, 64, 63
1, 159916, Control_c, 0, 64, 64
1, 159930, Control_c, 0, 64, 64
1, 159945, Control_c, 0, 64, 65
1, 159960, Control_c, 0, 64, 67
1, 159975, Control_c, 0, 64, 69
1, 159989, Control_c, 0, 64, 71
1, 160004, Control_c, 0, 64, 73
1, 160019, Control_c, 0, 64, 74
1, 160034, Control_c, 0, 64, 76
1, 160049, Control_c, 0, 64, 80
1, 160050, Note_off_c, 0, 59, 27
1, 160064, Control_c, 0, 64, 84
1, 160066, Note_on_c, 0, 43, 27
1, 160078, Control_c, 0, 64, 89
1, 160093, Control_c, 0, 64, 95
1, 160108, Control_c, 0, 64, 104
1, 160108, Control_c, 0, 67, 75
1, 160123, Note_off_c, 0, 53, 37
1, 160123, Control_c, 0, 64, 118
1, 160124, Note_off_c, 0, 43, 42
1, 160138, Control_c, 0, 64, 127
1, 160197, Control_c, 0, 67, 75
1, 160316, Control_c, 0, 67, 74
1, 160360, Control_c, 0, 67, 74
1, 160486, Note_on_c, 0, 57, 66
1, 160489, Note_on_c, 0, 69, 37
1, 160524, Control_c, 0, 67, 73
1, 160583, Control_c, 0, 67, 73
1, 160584, Note_off_c, 0, 57, 39
1, 160959, Control_c, 0, 67, 73
1, 160974, Control_c, 0, 67, 74
1, 161004, Control_c, 0, 67, 75
1, 161011, Note_off_c, 0, 69, 34
1, 161033, Control_c, 0, 67, 75
1, 161048, Control_c, 0, 67, 76
1, 161077, Control_c, 0, 67, 76
1, 161181, Control_c, 0, 67, 77
1, 161301, Control_c, 0, 67, 77
1, 161315, Control_c, 0, 67, 78
1, 161397, Control_c, 0, 67, 78
1, 161412, Control_c, 0, 67, 79
1, 161441, Control_c, 0, 67, 79
1, 161471, Control_c, 0, 67, 80
1, 161486, Control_c, 0, 67, 80
1, 161501, Control_c, 0, 67, 81
1, 161515, Control_c, 0, 67, 81
1, 161530, Control_c, 0, 67, 89
1, 161545, Control_c, 0, 67, 97
1, 161560, Control_c, 0, 67, 100
1, 161620, Control_c, 0, 67, 102
1, 161664, Control_c, 0, 67, 107
1, 161679, Control_c, 0, 67, 110
1, 161709, Control_c, 0, 67, 112
1, 161772, Note_on_c, 0, 56, 38
1, 161789, Note_on_c, 0, 68, 37
1, 161813, Control_c, 0, 67, 116
1, 161828, Control_c, 0, 67, 121
1, 161830, Note_off_c, 0, 56, 61
1, 161842, Control_c, 0, 67, 125
1, 161857, Control_c, 0, 67, 127
1, 161983, Note_off_c, 0, 65, 42
1, 162228, Note_off_c, 0, 76, 39
1, 162246, Note_on_c, 0, 37, 41
1, 162263, Note_on_c, 0, 49, 14
1, 162266, Note_off_c, 0, 68, 43
1, 162303, Note_off_c, 0, 37, 59
1, 162310, Note_off_c, 0, 49, 53
1, 162701, Note_on_c, 0, 56, 49
1, 162710, Note_on_c, 0, 68, 38
1, 162713, Note_on_c, 0, 59, 36
1, 162717, Note_on_c, 0, 49, 51
1, 162722, Note_on_c, 0, 53, 41
1, 162827, Note_off_c, 0, 68, 35
1, 162833, Note_off_c, 0, 56, 35
1, 163086, Note_off_c, 0, 59, 27
1, 163119, Note_off_c, 0, 49, 41
1, 163336, Note_off_c, 0, 53, 38
1, 164175, Note_on_c, 0, 76, 54
1, 164210, Note_on_c, 0, 65, 42
1, 164255, Note_off_c, 0, 65, 60
1, 164961, Note_off_c, 0, 76, 12
1, 165408, Control_c, 0, 67, 125
1, 165423, Control_c, 0, 67, 116
1, 165438, Control_c, 0, 67, 105
1, 165453, Control_c, 0, 67, 93
1, 165468, Control_c, 0, 67, 81
1, 165483, Control_c, 0, 67, 68
1, 165498, Control_c, 0, 67, 57
1, 165513, Control_c, 0, 67, 49
1, 165528, Control_c, 0, 67, 42
1, 165542, Control_c, 0, 67, 35
1, 165557, Control_c, 0, 67, 29
1, 165572, Control_c, 0, 67, 23
1, 165587, Control_c, 0, 67, 0
1, 165803, Note_on_c, 0, 38, 62
1, 165933, Note_on_c, 0, 43, 67
1, 166019, Note_on_c, 0, 53, 66
1, 166053, Control_c, 0, 64, 107
1, 166069, Control_c, 0, 64, 94
1, 166083, Control_c, 0, 64, 83
1, 166098, Control_c, 0, 64, 75
1, 166113, Control_c, 0, 64, 67
1, 166128, Control_c, 0, 64, 58
1, 166138, Note_on_c, 0, 59, 73
1, 166143, Control_c, 0, 64, 43
1, 166157, Control_c, 0, 64, 0
1, 166772, Control_c, 0, 64, 43
1, 166787, Control_c, 0, 64, 58
1, 166802, Control_c, 0, 64, 65
1, 166816, Control_c, 0, 64, 69
1, 166831, Control_c, 0, 64, 74
1, 166846, Control_c, 0, 64, 78
1, 166863, Control_c, 0, 64, 85
1, 166878, Control_c, 0, 64, 99
1, 166893, Control_c, 0, 64, 127
1, 166962, Note_off_c, 0, 59, 61
1, 167394, Note_on_c, 0, 76, 78
1, 167417, Note_on_c, 0, 65, 59
1, 167522, Note_off_c, 0, 65, 55
1, 167522, Note_off_c, 0, 38, 36
1, 167544, Note_off_c, 0, 53, 37
1, 167608, Note_off_c, 0, 43, 36
1, 167947, Note_off_c, 0, 76, 52
1, 168563, Note_on_c, 0, 76, 83
1, 168591, Note_on_c, 0, 65, 63
1, 168656, Note_off_c, 0, 65, 60
1, 168739, Note_on_c, 0, 79, 85
1, 168773, Note_off_c, 0, 76, 60
1, 168789, Note_on_c, 0, 68, 53
1, 168872, Note_off_c, 0, 68, 63
1, 169079, Note_on_c, 0, 76, 78
1, 169129, Note_on_c, 0, 65, 55
1, 169140, Note_off_c, 0, 79, 58
1, 169152, Control_c, 0, 64, 95
1, 169167, Control_c, 0, 64, 68
1, 169167, Control_c, 0, 67, 19
1, 169182, Control_c, 0, 64, 42
1, 169185, Note_on_c, 0, 38, 43
1, 169185, Note_off_c, 0, 65, 0
1, 169185, Note_on_c, 0, 65, 17
1, 169197, Control_c, 0, 64, 0
1, 169249, Note_on_c, 0, 43, 44
1, 169257, Control_c, 0, 64, 45
1, 169269, Note_off_c, 0, 65, 58
1, 169272, Control_c, 0, 64, 64
1, 169287, Control_c, 0, 64, 71
1, 169301, Control_c, 0, 64, 80
1, 169316, Control_c, 0, 64, 89
1, 169323, Note_on_c, 0, 53, 57
1, 169331, Control_c, 0, 64, 102
1, 169346, Control_c, 0, 64, 127
1, 169355, Note_off_c, 0, 76, 60
1, 169372, Note_off_c, 0, 43, 58
1, 169376, Note_off_c, 0, 53, 59
1, 169379, Note_off_c, 0, 38, 40
1, 169435, Note_on_c, 0, 76, 77
1, 169464, Note_on_c, 0, 65, 50
1, 169555, Note_off_c, 0, 65, 0
1, 169558, Note_on_c, 0, 58, 72
1, 169591, Poly_aftertouch_c, 0, 65, 127
1, 169593, Note_off_c, 0, 58, 61
1, 169680, Control_c, 0, 67, 0
1, 169809, Note_off_c, 0, 76, 46
1, 170483, Poly_aftertouch_c, 0, 65, 0
1, 170591, Note_on_c, 0, 69, 62
1, 170626, Note_on_c, 0, 58, 45
1, 170698, Note_off_c, 0, 58, 57
1, 171006, Control_c, 0, 67, 19
1, 171066, Control_c, 0, 67, 21
1, 171096, Control_c, 0, 67, 23
1, 171133, Control_c, 0, 67, 27
1, 171148, Control_c, 0, 67, 30
1, 171162, Control_c, 0, 67, 33
1, 171177, Control_c, 0, 67, 37
1, 171192, Control_c, 0, 67, 45
1, 171203, Note_off_c, 0, 69, 39
1, 171206, Control_c, 0, 67, 53
1, 171221, Control_c, 0, 67, 62
1, 171236, Control_c, 0, 67, 75
1, 171251, Control_c, 0, 67, 91
1, 171266, Control_c, 0, 67, 105
1, 171281, Control_c, 0, 67, 119
1, 171296, Control_c, 0, 67, 127
1, 171469, Note_on_c, 0, 59, 50
1, 171518, Control_c, 0, 64, 111
1, 171532, Control_c, 0, 64, 103
1, 171547, Control_c, 0, 64, 95
1, 171562, Control_c, 0, 64, 85
1, 171577, Control_c, 0, 64, 78
1, 171592, Control_c, 0, 64, 70
1, 171606, Control_c, 0, 64, 63
1, 171621, Control_c, 0, 64, 55
1, 171636, Control_c, 0, 64, 41
1, 171652, Control_c, 0, 64, 0
1, 171829, Control_c, 0, 64, 31
1, 171844, Control_c, 0, 64, 47
1, 171859, Control_c, 0, 64, 59
1, 171882, Control_c, 0, 64, 63
1, 171884, Note_on_c, 0, 53, 28
1, 171897, Control_c, 0, 64, 64
1, 171911, Control_c, 0, 64, 66
1, 171926, Control_c, 0, 64, 68
1, 171941, Control_c, 0, 64, 71
1, 171956, Control_c, 0, 64, 76
1, 171966, Note_off_c, 0, 59, 38
1, 171971, Control_c, 0, 64, 81
1, 171985, Control_c, 0, 64, 85
1, 172000, Control_c, 0, 64, 89
1, 172015, Control_c, 0, 64, 91
1, 172029, Control_c, 0, 64, 92
1, 172059, Control_c, 0, 64, 92
1, 172074, Control_c, 0, 64, 94
1, 172080, Note_off_c, 0, 53, 40
1, 172089, Control_c, 0, 64, 95
1, 172091, Note_on_c, 0, 43, 32
1, 172104, Control_c, 0, 64, 96
1, 172143, Note_off_c, 0, 43, 44
1, 172284, Note_on_c, 0, 53, 27
1, 172312, Control_c, 0, 64, 95
1, 172324, Note_on_c, 0, 76, 59
1, 172327, Control_c, 0, 64, 95
1, 172354, Note_on_c, 0, 65, 42
1, 172396, Note_off_c, 0, 65, 52
1, 172475, Note_off_c, 0, 76, 54
1, 172491, Note_on_c, 0, 43, 23
1, 172507, Note_off_c, 0, 53, 26
1, 172609, Control_c, 0, 64, 94
1, 172643, Note_on_c, 0, 38, 41
1, 172668, Note_off_c, 0, 43, 37
1, 172696, Note_off_c, 0, 38, 58
1, 173078, Note_on_c, 0, 38, 28
1, 173090, Control_c, 0, 64, 94
1, 173119, Control_c, 0, 64, 93
1, 173134, Control_c, 0, 64, 92
1, 173142, Note_off_c, 0, 38, 41
1, 173149, Control_c, 0, 64, 89
1, 173164, Control_c, 0, 64, 85
1, 173171, Note_on_c, 0, 43, 24
1, 173178, Control_c, 0, 64, 82
1, 173193, Control_c, 0, 64, 81
1, 173206, Note_on_c, 0, 76, 51
1, 173208, Control_c, 0, 64, 80
1, 173226, Note_off_c, 0, 43, 45
1, 173227, Note_on_c, 0, 65, 38
1, 173284, Note_off_c, 0, 65, 62
1, 173303, Note_off_c, 0, 76, 48
1, 173340, Poly_aftertouch_c, 0, 53, 127
1, 173346, Note_on_c, 0, 79, 60
1, 173355, Note_on_c, 0, 68, 64
1, 173392, Poly_aftertouch_c, 0, 53, 0
1, 173397, Note_off_c, 0, 68, 63
1, 173504, Note_on_c, 0, 43, 26
1, 173543, Control_c, 0, 64, 81
1, 173601, Control_c, 0, 64, 81
1, 173642, Note_off_c, 0, 43, 24
1, 173646, Control_c, 0, 64, 82
1, 173656, Note_on_c, 0, 53, 40
1, 173683, Note_off_c, 0, 79, 55
1, 173715, Note_on_c, 0, 76, 69
1, 173719, Control_c, 0, 64, 82
1, 173733, Note_on_c, 0, 65, 49
1, 173746, Note_off_c, 0, 76, 62
1, 173761, Note_off_c, 0, 65, 53
1, 173859, Note_on_c, 0, 65, 34
1, 173862, Note_on_c, 0, 76, 46
1, 173891, Note_on_c, 0, 58, 68
1, 173907, Note_off_c, 0, 53, 36
1, 173910, Note_off_c, 0, 65, 0
1, 173913, Control_c, 0, 64, 82
1, 173927, Control_c, 0, 64, 81
1, 173942, Control_c, 0, 64, 78
1, 173947, Poly_aftertouch_c, 0, 65, 127
1, 173957, Control_c, 0, 64, 71
1, 173972, Control_c, 0, 64, 65
1, 173987, Control_c, 0, 64, 60
1, 174001, Control_c, 0, 64, 58
1, 174016, Control_c, 0, 64, 59
1, 174031, Control_c, 0, 64, 62
1, 174047, Control_c, 0, 64, 66
1, 174062, Control_c, 0, 64, 69
1, 174077, Control_c, 0, 64, 72
1, 174091, Control_c, 0, 64, 74
1, 174106, Control_c, 0, 64, 76
1, 174128, Control_c, 0, 64, 78
1, 174143, Control_c, 0, 64, 78
1, 174150, Note_off_c, 0, 76, 36
1, 174158, Control_c, 0, 64, 79
1, 174172, Control_c, 0, 64, 80
1, 174199, Note_off_c, 0, 58, 61
1, 174202, Control_c, 0, 64, 80
1, 174206, Note_on_c, 0, 53, 43
1, 174217, Control_c, 0, 64, 81
1, 174247, Control_c, 0, 64, 81
1, 174345, Note_off_c, 0, 53, 38
1, 174369, Note_on_c, 0, 43, 30
1, 174381, Control_c, 0, 64, 82
1, 174431, Note_off_c, 0, 43, 41
1, 174476, Note_on_c, 0, 53, 45
1, 174518, Note_off_c, 0, 53, 54
1, 174593, Note_on_c, 0, 43, 41
1, 174647, Control_c, 0, 64, 81
1, 174669, Note_off_c, 0, 43, 62
1, 174677, Control_c, 0, 64, 81
1, 174685, Note_on_c, 0, 38, 45
1, 174691, Control_c, 0, 64, 80
1, 174706, Control_c, 0, 64, 80
1, 174721, Control_c, 0, 64, 79
1, 174722, Note_off_c, 0, 38, 52
1, 174736, Control_c, 0, 64, 77
1, 174750, Control_c, 0, 64, 75
1, 174757, Poly_aftertouch_c, 0, 65, 0
1, 174765, Control_c, 0, 64, 72
1, 174769, Note_on_c, 0, 69, 54
1, 174780, Control_c, 0, 64, 70
1, 174795, Control_c, 0, 64, 69
1, 174805, Note_on_c, 0, 58, 30
1, 174810, Control_c, 0, 64, 69
1, 174825, Control_c, 0, 64, 69
1, 174840, Control_c, 0, 64, 70
1, 174855, Control_c, 0, 64, 71
1, 174878, Control_c, 0, 64, 72
1, 174884, Note_on_c, 0, 38, 38
1, 174884, Note_off_c, 0, 58, 54
1, 174893, Control_c, 0, 64, 74
1, 174908, Control_c, 0, 64, 75
1, 174922, Control_c, 0, 64, 76
1, 174937, Control_c, 0, 64, 78
1, 174952, Control_c, 0, 64, 79
1, 174966, Control_c, 0, 64, 80
1, 174969, Note_on_c, 0, 43, 52
1, 174981, Control_c, 0, 64, 80
1, 174992, Note_off_c, 0, 69, 54
1, 174996, Control_c, 0, 64, 81
1, 174998, Note_off_c, 0, 38, 36
1, 175011, Control_c, 0, 64, 81
1, 175026, Control_c, 0, 64, 82
1, 175032, Note_off_c, 0, 43, 59
1, 175071, Note_on_c, 0, 53, 51
1, 175099, Control_c, 0, 64, 79
1, 175114, Control_c, 0, 64, 75
1, 175120, Note_off_c, 0, 53, 60
1, 175128, Control_c, 0, 64, 70
1, 175143, Control_c, 0, 64, 67
1, 175158, Control_c, 0, 64, 66
1, 175168, Note_on_c, 0, 43, 47
1, 175172, Control_c, 0, 64, 67
1, 175187, Control_c, 0, 64, 67
1, 175202, Control_c, 0, 64, 67
1, 175217, Control_c, 0, 64, 66
1, 175232, Control_c, 0, 64, 64
1, 175237, Note_off_c, 0, 43, 53
1, 175240, Note_on_c, 0, 53, 62
1, 175246, Control_c, 0, 64, 63
1, 175261, Control_c, 0, 64, 61
1, 175276, Control_c, 0, 64, 60
1, 175291, Control_c, 0, 64, 56
1, 175299, Note_off_c, 0, 53, 51
1, 175306, Control_c, 0, 64, 52
1, 175320, Control_c, 0, 64, 48
1, 175335, Control_c, 0, 64, 45
1, 175350, Control_c, 0, 64, 45
1, 175354, Note_on_c, 0, 76, 62
1, 175364, Control_c, 0, 64, 47
1, 175379, Control_c, 0, 64, 51
1, 175393, Note_on_c, 0, 65, 55
1, 175394, Control_c, 0, 64, 54
1, 175400, Note_on_c, 0, 58, 47
1, 175409, Control_c, 0, 64, 56
1, 175424, Control_c, 0, 64, 58
1, 175439, Control_c, 0, 64, 60
1, 175454, Control_c, 0, 64, 62
1, 175469, Control_c, 0, 64, 64
1, 175484, Control_c, 0, 64, 65
1, 175489, Note_off_c, 0, 58, 59
1, 175498, Control_c, 0, 64, 66
1, 175511, Note_on_c, 0, 53, 57
1, 175513, Control_c, 0, 64, 67
1, 175528, Control_c, 0, 64, 69
1, 175543, Control_c, 0, 64, 70
1, 175548, Note_off_c, 0, 76, 40
1, 175551, Note_off_c, 0, 53, 65
1, 175558, Control_c, 0, 64, 71
1, 175594, Note_on_c, 0, 43, 46
1, 175602, Control_c, 0, 64, 70
1, 175639, Control_c, 0, 64, 70
1, 175641, Note_off_c, 0, 43, 62
1, 175669, Control_c, 0, 64, 69
1, 175681, Note_on_c, 0, 53, 66
1, 175699, Control_c, 0, 64, 69
1, 175729, Control_c, 0, 64, 68
1, 175735, Note_off_c, 0, 53, 57
1, 175743, Control_c, 0, 64, 68
1, 175762, Note_on_c, 0, 43, 48
1, 175773, Control_c, 0, 64, 67
1, 175788, Control_c, 0, 64, 66
1, 175803, Control_c, 0, 64, 66
1, 175818, Control_c, 0, 64, 64
1, 175818, Note_off_c, 0, 43, 60
1, 175832, Note_on_c, 0, 38, 64
1, 175832, Control_c, 0, 64, 61
1, 175847, Control_c, 0, 64, 55
1, 175859, Note_off_c, 0, 38, 64
1, 175862, Control_c, 0, 64, 49
1, 175877, Control_c, 0, 64, 42
1, 175892, Control_c, 0, 64, 39
1, 175907, Control_c, 0, 64, 38
1, 175921, Control_c, 0, 64, 40
1, 175928, Note_off_c, 0, 65, 44
1, 175934, Note_on_c, 0, 69, 57
1, 175936, Control_c, 0, 64, 44
1, 175951, Control_c, 0, 64, 50
1, 175966, Control_c, 0, 64, 55
1, 175972, Note_on_c, 0, 58, 28
1, 175981, Control_c, 0, 64, 59
1, 175995, Control_c, 0, 64, 62
1, 176010, Control_c, 0, 64, 64
1, 176020, Note_on_c, 0, 38, 49
1, 176025, Control_c, 0, 64, 65
1, 176040, Note_off_c, 0, 58, 63
1, 176040, Control_c, 0, 64, 68
1, 176055, Control_c, 0, 64, 70
1, 176056, Note_off_c, 0, 69, 63
1, 176069, Control_c, 0, 64, 72
1, 176084, Control_c, 0, 64, 74
1, 176089, Note_off_c, 0, 38, 58
1, 176092, Note_on_c, 0, 43, 57
1, 176099, Control_c, 0, 64, 75
1, 176113, Control_c, 0, 64, 76
1, 176128, Control_c, 0, 64, 76
1, 176150, Note_off_c, 0, 43, 61
1, 176173, Control_c, 0, 64, 75
1, 176186, Note_on_c, 0, 53, 60
1, 176187, Control_c, 0, 64, 74
1, 176202, Control_c, 0, 64, 71
1, 176217, Control_c, 0, 64, 67
1, 176221, Note_off_c, 0, 53, 62
1, 176232, Control_c, 0, 64, 64
1, 176247, Control_c, 0, 64, 60
1, 176262, Control_c, 0, 64, 57
1, 176276, Note_on_c, 0, 43, 46
1, 176277, Control_c, 0, 64, 53
1, 176292, Control_c, 0, 64, 49
1, 176306, Control_c, 0, 64, 41
1, 176307, Note_off_c, 0, 43, 54
1, 176320, Note_on_c, 0, 53, 58
1, 176321, Control_c, 0, 64, 0
1, 176372, Note_off_c, 0, 53, 57
1, 176448, Note_on_c, 0, 59, 61
1, 176455, Note_on_c, 0, 76, 56
1, 176501, Note_off_c, 0, 59, 58
1, 176520, Note_off_c, 0, 76, 58
1, 176550, Note_on_c, 0, 49, 54
1, 176576, Note_on_c, 0, 75, 60
1, 176582, Note_off_c, 0, 49, 65
1, 176594, Note_on_c, 0, 64, 34
1, 176622, Note_off_c, 0, 64, 45
1, 176631, Note_on_c, 0, 44, 49
1, 176639, Note_off_c, 0, 75, 46
1, 176685, Note_off_c, 0, 44, 63
1, 176688, Note_on_c, 0, 59, 57
1, 176694, Note_on_c, 0, 76, 66
1, 176734, Note_off_c, 0, 59, 59
1, 176749, Note_off_c, 0, 76, 59
1, 176774, Note_on_c, 0, 53, 49
1, 176783, Note_on_c, 0, 79, 71
1, 176801, Note_off_c, 0, 53, 54
1, 176819, Control_c, 0, 64, 33
1, 176822, Note_on_c, 0, 43, 44
1, 176834, Control_c, 0, 64, 0
1, 176840, Note_off_c, 0, 79, 65
1, 176855, Note_off_c, 0, 43, 51
1, 176908, Note_on_c, 0, 79, 70
1, 176918, Note_on_c, 0, 68, 65
1, 176920, Note_on_c, 0, 62, 69
1, 176923, Control_c, 0, 64, 44
1, 176937, Control_c, 0, 64, 59
1, 176948, Note_off_c, 0, 68, 65
1, 176952, Control_c, 0, 64, 54
1, 176966, Note_off_c, 0, 62, 56
1, 176967, Control_c, 0, 64, 34
1, 176982, Control_c, 0, 64, 0
1, 176998, Note_on_c, 0, 52, 60
1, 176998, Note_off_c, 0, 79, 62
1, 177014, Note_on_c, 0, 78, 70
1, 177022, Note_off_c, 0, 52, 62
1, 177040, Note_on_c, 0, 67, 31
1, 177075, Note_off_c, 0, 67, 32
1, 177102, Note_on_c, 0, 62, 54
1, 177122, Note_on_c, 0, 79, 68
1, 177123, Control_c, 0, 64, 52
1, 177138, Control_c, 0, 64, 62
1, 177142, Note_off_c, 0, 62, 62
1, 177147, Poly_aftertouch_c, 0, 47, 0
1, 177149, Note_on_c, 0, 68, 43
1, 177152, Control_c, 0, 64, 66
1, 177167, Control_c, 0, 64, 67
1, 177180, Note_off_c, 0, 78, 50
1, 177180, Note_off_c, 0, 68, 50
1, 177180, Note_off_c, 0, 79, 61
1, 177182, Control_c, 0, 64, 68
1, 177186, Note_on_c, 0, 56, 62
1, 177197, Control_c, 0, 64, 67
1, 177201, Note_on_c, 0, 46, 60
1, 177204, Note_on_c, 0, 82, 74
1, 177207, Note_off_c, 0, 56, 61
1, 177212, Control_c, 0, 64, 63
1, 177226, Note_off_c, 0, 82, 70
1, 177226, Control_c, 0, 64, 48
1, 177228, Note_off_c, 0, 46, 66
1, 177242, Control_c, 0, 64, 0
1, 177302, Note_on_c, 0, 65, 78
1, 177310, Note_on_c, 0, 82, 84
1, 177316, Note_on_c, 0, 71, 55
1, 177316, Control_c, 0, 67, 120
1, 177331, Control_c, 0, 64, 45
1, 177331, Control_c, 0, 67, 104
1, 177338, Note_off_c, 0, 71, 62
1, 177346, Control_c, 0, 64, 61
1, 177346, Control_c, 0, 67, 85
1, 177356, Note_off_c, 0, 65, 65
1, 177361, Control_c, 0, 64, 43
1, 177361, Control_c, 0, 67, 68
1, 177363, Note_off_c, 0, 82, 62
1, 177370, Note_on_c, 0, 55, 55
1, 177375, Control_c, 0, 64, 0
1, 177375, Control_c, 0, 67, 54
1, 177390, Control_c, 0, 67, 45
1, 177401, Note_off_c, 0, 55, 64
1, 177402, Note_on_c, 0, 81, 70
1, 177405, Control_c, 0, 67, 40
1, 177409, Note_on_c, 0, 50, 73
1, 177420, Control_c, 0, 64, 49
1, 177431, Note_on_c, 0, 70, 56
1, 177435, Control_c, 0, 64, 63
1, 177442, Note_off_c, 0, 50, 65
1, 177449, Control_c, 0, 64, 60
1, 177449, Control_c, 0, 67, 39
1, 177462, Note_off_c, 0, 70, 57
1, 177464, Control_c, 0, 64, 48
1, 177479, Control_c, 0, 64, 0
1, 177479, Control_c, 0, 67, 38
1, 177486, Note_off_c, 0, 81, 60
1, 177494, Note_on_c, 0, 82, 79
1, 177496, Note_on_c, 0, 65, 71
1, 177508, Control_c, 0, 67, 38
1, 177521, Note_on_c, 0, 71, 59
1, 177523, Control_c, 0, 64, 43
1, 177524, Note_off_c, 0, 65, 67
1, 177538, Control_c, 0, 64, 66
1, 177552, Note_on_c, 0, 59, 67
1, 177552, Note_off_c, 0, 82, 59
1, 177553, Note_off_c, 0, 71, 60
1, 177553, Control_c, 0, 64, 69
1, 177564, Note_on_c, 0, 49, 68
1, 177567, Control_c, 0, 64, 66
1, 177578, Note_off_c, 0, 59, 68
1, 177582, Control_c, 0, 64, 49
1, 177589, Note_on_c, 0, 74, 47
1, 177589, Note_on_c, 0, 85, 75
1, 177593, Note_off_c, 0, 49, 66
1, 177597, Control_c, 0, 64, 0
1, 177597, Control_c, 0, 67, 40
1, 177611, Note_off_c, 0, 74, 37
1, 177612, Control_c, 0, 67, 41
1, 177616, Note_off_c, 0, 85, 67
1, 177627, Control_c, 0, 67, 41
1, 177642, Control_c, 0, 67, 42
1, 177657, Control_c, 0, 67, 43
1, 177672, Control_c, 0, 64, 45
1, 177672, Control_c, 0, 67, 44
1, 177678, Note_on_c, 0, 68, 74
1, 177683, Note_on_c, 0, 85, 87
1, 177686, Note_on_c, 0, 74, 79
1, 177686, Control_c, 0, 64, 63
1, 177686, Control_c, 0, 67, 44
1, 177701, Control_c, 0, 64, 44
1, 177707, Note_off_c, 0, 74, 71
1, 177707, Note_off_c, 0, 85, 63
1, 177716, Control_c, 0, 64, 0
1, 177716, Control_c, 0, 67, 45
1, 177733, Note_on_c, 0, 86, 21
1, 177733, Note_off_c, 0, 68, 64
1, 177735, Note_off_c, 0, 86, 48
1, 177755, Note_on_c, 0, 85, 72
1, 177758, Note_on_c, 0, 58, 68
1, 177782, Note_off_c, 0, 58, 65
1, 177786, Note_on_c, 0, 53, 64
1, 177790, Control_c, 0, 64, 36
1, 177793, Note_on_c, 0, 73, 73
1, 177805, Note_off_c, 0, 85, 68
1, 177805, Control_c, 0, 64, 0
1, 177829, Note_off_c, 0, 73, 65
1, 177841, Note_on_c, 0, 85, 78
1, 177842, Note_on_c, 0, 68, 86
1, 177849, Control_c, 0, 67, 45
1, 177863, Note_off_c, 0, 53, 58
1, 177883, Note_on_c, 0, 74, 28
1, 177885, Note_off_c, 0, 68, 67
1, 177886, Control_c, 0, 67, 44
1, 177901, Control_c, 0, 67, 41
1, 177907, Note_on_c, 0, 62, 62
1, 177916, Control_c, 0, 67, 36
1, 177916, Note_off_c, 0, 74, 41
1, 177918, Note_off_c, 0, 85, 67
1, 177927, Note_on_c, 0, 88, 89
1, 177931, Control_c, 0, 64, 36
1, 177931, Control_c, 0, 67, 29
1, 177939, Note_off_c, 0, 62, 64
1, 177940, Note_on_c, 0, 77, 65
1, 177945, Note_on_c, 0, 52, 63
1, 177946, Control_c, 0, 64, 53
1, 177946, Control_c, 0, 67, 0
1, 177958, Note_off_c, 0, 77, 66
1, 177961, Control_c, 0, 64, 0
1, 177964, Note_off_c, 0, 88, 64
1, 177966, Note_off_c, 0, 52, 61
1, 178020, Control_c, 0, 67, 21
1, 178035, Control_c, 0, 67, 26
1, 178050, Note_on_c, 0, 71, 65
1, 178050, Control_c, 0, 67, 33
1, 178065, Control_c, 0, 67, 43
1, 178080, Note_off_c, 0, 71, 60
1, 178080, Control_c, 0, 67, 57
1, 178095, Control_c, 0, 67, 75
1, 178107, Note_on_c, 0, 61, 60
1, 178110, Control_c, 0, 67, 86
1, 178124, Control_c, 0, 67, 88
1, 178126, Note_off_c, 0, 61, 63
1, 178128, Note_on_c, 0, 56, 61
1, 178151, Note_off_c, 0, 56, 60
1, 178154, Control_c, 0, 67, 86
1, 178169, Control_c, 0, 67, 85
1, 178174, Note_on_c, 0, 71, 69
1, 178184, Control_c, 0, 67, 84
1, 178198, Control_c, 0, 64, 45
1, 178199, Note_off_c, 0, 71, 68
1, 178204, Note_on_c, 0, 77, 53
1, 178212, Note_on_c, 0, 88, 80
1, 178213, Control_c, 0, 64, 55
1, 178213, Control_c, 0, 67, 85
1, 178224, Note_off_c, 0, 77, 63
1, 178228, Control_c, 0, 64, 58
1, 178237, Note_off_c, 0, 88, 68
1, 178243, Control_c, 0, 64, 64
1, 178243, Control_c, 0, 67, 86
1, 178258, Control_c, 0, 64, 65
1, 178272, Control_c, 0, 64, 63
1, 178272, Control_c, 0, 67, 86
1, 178287, Control_c, 0, 64, 58
1, 178302, Control_c, 0, 64, 48
1, 178316, Control_c, 0, 64, 39
1, 178331, Control_c, 0, 64, 31
1, 178346, Control_c, 0, 64, 0
1, 178361, Control_c, 0, 67, 85
1, 178366, Note_on_c, 0, 71, 64
1, 178376, Control_c, 0, 67, 84
1, 178390, Control_c, 0, 67, 83
1, 178393, Note_off_c, 0, 71, 67
1, 178405, Control_c, 0, 67, 82
1, 178419, Note_on_c, 0, 65, 71
1, 178420, Control_c, 0, 67, 79
1, 178435, Control_c, 0, 67, 74
1, 178447, Note_off_c, 0, 65, 68
1, 178450, Control_c, 0, 67, 68
1, 178456, Note_on_c, 0, 55, 43
1, 178464, Note_on_c, 0, 77, 69
1, 178465, Note_on_c, 0, 88, 66
1, 178465, Control_c, 0, 67, 55
1, 178480, Control_c, 0, 64, 47
1, 178480, Control_c, 0, 67, 40
1, 178482, Note_off_c, 0, 55, 35
1, 178494, Control_c, 0, 64, 65
1, 178494, Control_c, 0, 67, 31
1, 178501, Note_off_c, 0, 77, 58
1, 178505, Note_on_c, 0, 91, 95
1, 178506, Note_off_c, 0, 88, 66
1, 178509, Control_c, 0, 64, 78
1, 178509, Control_c, 0, 67, 29
1, 178509, Note_on_c, 0, 80, 88
1, 178524, Control_c, 0, 64, 98
1, 178525, Note_off_c, 0, 80, 75
1, 178535, Note_off_c, 0, 91, 65
1, 178539, Control_c, 0, 64, 107
1, 178554, Control_c, 0, 64, 88
1, 178554, Control_c, 0, 67, 33
1, 178569, Control_c, 0, 64, 67
1, 178569, Control_c, 0, 67, 35
1, 178583, Control_c, 0, 64, 37
1, 178583, Control_c, 0, 67, 37
1, 178598, Control_c, 0, 64, 0
1, 178598, Control_c, 0, 67, 38
1, 178665, Note_on_c, 0, 68, 63
1, 178708, Note_off_c, 0, 68, 65
1, 178721, Note_on_c, 0, 65, 48
1, 178724, Control_c, 0, 67, 36
1, 178739, Control_c, 0, 67, 35
1, 178739, Note_on_c, 0, 59, 51
1, 178748, Note_off_c, 0, 65, 53
1, 178754, Control_c, 0, 64, 49
1, 178754, Control_c, 0, 67, 34
1, 178764, Note_off_c, 0, 59, 59
1, 178769, Control_c, 0, 64, 58
1, 178777, Note_on_c, 0, 71, 67
1, 178783, Control_c, 0, 64, 59
1, 178798, Control_c, 0, 64, 60
1, 178804, Note_off_c, 0, 71, 68
1, 178804, Note_on_c, 0, 77, 61
1, 178813, Control_c, 0, 64, 62
1, 178818, Note_on_c, 0, 49, 63
1, 178821, Note_on_c, 0, 88, 77
1, 178828, Control_c, 0, 64, 63
1, 178830, Note_off_c, 0, 77, 66
1, 178843, Note_off_c, 0, 49, 59
1, 178843, Control_c, 0, 64, 64
1, 178843, Note_off_c, 0, 88, 71
1, 178858, Control_c, 0, 67, 36
1, 178873, Control_c, 0, 64, 63
1, 178873, Control_c, 0, 67, 40
1, 178887, Control_c, 0, 64, 61
1, 178887, Control_c, 0, 67, 45
1, 178902, Control_c, 0, 64, 58
1, 178902, Control_c, 0, 67, 56
1, 178917, Control_c, 0, 64, 53
1, 178917, Control_c, 0, 67, 73
1, 178932, Control_c, 0, 64, 45
1, 178932, Control_c, 0, 67, 96
1, 178946, Control_c, 0, 64, 0
1, 178946, Control_c, 0, 67, 115
1, 178961, Control_c, 0, 67, 127
1, 179035, Note_on_c, 0, 68, 63
1, 179065, Control_c, 0, 64, 31
1, 179080, Control_c, 0, 64, 46
1, 179086, Note_off_c, 0, 68, 64
1, 179094, Control_c, 0, 64, 54
1, 179109, Control_c, 0, 64, 58
1, 179117, Note_on_c, 0, 65, 54
1, 179124, Control_c, 0, 64, 61
1, 179138, Control_c, 0, 64, 62
1, 179141, Note_off_c, 0, 65, 57
1, 179153, Control_c, 0, 64, 63
1, 179168, Note_on_c, 0, 59, 16
1, 179168, Control_c, 0, 64, 63
1, 179181, Note_on_c, 0, 88, 54
1, 179194, Note_on_c, 0, 77, 38
1, 179209, Note_off_c, 0, 59, 29
1, 179240, Note_off_c, 0, 77, 45
1, 179251, Note_on_c, 0, 91, 73
1, 179254, Note_off_c, 0, 88, 62
1, 179272, Control_c, 0, 64, 64
1, 179281, Note_on_c, 0, 80, 41
1, 179287, Note_off_c, 0, 91, 60
1, 179287, Note_on_c, 0, 53, 53
1, 179308, Note_off_c, 0, 80, 52
1, 179327, Note_off_c, 0, 53, 63
1, 179346, Control_c, 0, 64, 63
1, 179404, Note_on_c, 0, 43, 19
1, 179446, Note_off_c, 0, 43, 44
1, 179472, Control_c, 0, 64, 63
1, 179532, Control_c, 0, 64, 62
1, 179576, Control_c, 0, 64, 62
1, 179606, Control_c, 0, 64, 61
1, 179621, Control_c, 0, 64, 61
1, 179636, Control_c, 0, 64, 60
1, 179651, Control_c, 0, 64, 60
1, 179666, Control_c, 0, 64, 59
1, 179711, Control_c, 0, 64, 58
1, 179726, Control_c, 0, 64, 57
1, 179740, Control_c, 0, 64, 54
1, 179755, Control_c, 0, 64, 52
1, 179770, Control_c, 0, 64, 49
1, 179785, Control_c, 0, 64, 47
1, 179800, Control_c, 0, 64, 43
1, 179815, Control_c, 0, 64, 33
1, 179830, Control_c, 0, 64, 0
1, 179927, Note_on_c, 0, 60, 66
1, 180036, Control_c, 0, 64, 47
1, 180051, Control_c, 0, 64, 57
1, 180066, Control_c, 0, 64, 61
1, 180080, Control_c, 0, 64, 62
1, 180095, Control_c, 0, 64, 63
1, 180118, Control_c, 0, 64, 64
1, 180133, Control_c, 0, 64, 67
1, 180148, Control_c, 0, 64, 70
1, 180162, Control_c, 0, 64, 73
1, 180162, Control_c, 0, 67, 121
1, 180177, Control_c, 0, 64, 77
1, 180177, Control_c, 0, 67, 115
1, 180192, Control_c, 0, 64, 80
1, 180192, Control_c, 0, 67, 110
1, 180207, Control_c, 0, 64, 84
1, 180207, Control_c, 0, 67, 108
1, 180222, Control_c, 0, 64, 88
1, 180236, Control_c, 0, 64, 95
1, 180236, Control_c, 0, 67, 106
1, 180251, Control_c, 0, 64, 105
1, 180251, Control_c, 0, 67, 103
1, 180266, Control_c, 0, 64, 127
1, 180266, Control_c, 0, 67, 100
1, 180281, Control_c, 0, 67, 97
1, 180295, Control_c, 0, 67, 94
1, 180310, Control_c, 0, 67, 91
1, 180325, Control_c, 0, 67, 88
1, 180328, Note_on_c, 0, 50, 66
1, 180340, Control_c, 0, 67, 84
1, 180355, Control_c, 0, 67, 80
1, 180369, Control_c, 0, 67, 76
1, 180384, Control_c, 0, 67, 72
1, 180399, Control_c, 0, 67, 68
1, 180414, Control_c, 0, 67, 63
1, 180429, Control_c, 0, 67, 58
1, 180445, Control_c, 0, 67, 52
1, 180459, Control_c, 0, 67, 44
1, 180462, Note_off_c, 0, 60, 57
1, 180474, Control_c, 0, 67, 38
1, 180489, Control_c, 0, 67, 32
1, 180504, Control_c, 0, 67, 27
1, 180518, Control_c, 0, 67, 23
1, 180521, Note_on_c, 0, 45, 65
1, 180528, Note_off_c, 0, 50, 61
1, 180533, Control_c, 0, 67, 19
1, 180548, Control_c, 0, 67, 0
1, 180703, Note_on_c, 0, 76, 86
1, 180724, Note_on_c, 0, 65, 61
1, 180888, Note_on_c, 0, 50, 68
1, 181031, Note_off_c, 0, 45, 49
1, 181070, Note_on_c, 0, 60, 78
1, 181176, Note_off_c, 0, 50, 36
1, 181409, Note_on_c, 0, 50, 80
1, 181475, Control_c, 0, 64, 84
1, 181490, Control_c, 0, 64, 60
1, 181505, Control_c, 0, 64, 0
1, 181615, Control_c, 0, 64, 31
1, 181630, Control_c, 0, 64, 58
1, 181645, Control_c, 0, 64, 63
1, 181660, Control_c, 0, 64, 64
1, 181674, Note_on_c, 0, 44, 87
1, 181675, Control_c, 0, 64, 66
1, 181690, Control_c, 0, 64, 70
1, 181705, Control_c, 0, 64, 74
1, 181720, Control_c, 0, 64, 81
1, 181728, Note_off_c, 0, 60, 58
1, 181734, Control_c, 0, 64, 89
1, 181749, Control_c, 0, 64, 96
1, 181754, Note_off_c, 0, 76, 58
1, 181764, Control_c, 0, 64, 101
1, 181777, Note_off_c, 0, 50, 58
1, 181779, Control_c, 0, 64, 107
1, 181785, Note_off_c, 0, 65, 62
1, 181794, Control_c, 0, 64, 119
1, 181808, Control_c, 0, 64, 127
1, 181908, Note_off_c, 0, 44, 61
1, 181991, Note_on_c, 0, 76, 93
1, 182013, Note_on_c, 0, 65, 79
1, 182152, Note_on_c, 0, 50, 80
1, 182305, Note_off_c, 0, 50, 55
1, 182337, Note_on_c, 0, 60, 84
1, 182450, Note_off_c, 0, 60, 64
1, 182535, Note_on_c, 0, 59, 92
1, 182557, Control_c, 0, 64, 88
1, 182572, Control_c, 0, 64, 64
1, 182587, Control_c, 0, 64, 0
1, 182721, Control_c, 0, 64, 47
1, 182736, Control_c, 0, 64, 76
1, 182737, Note_on_c, 0, 53, 86
1, 182751, Control_c, 0, 64, 95
1, 182754, Note_off_c, 0, 59, 61
1, 182765, Control_c, 0, 64, 127
1, 182797, Note_on_c, 0, 50, 20
1, 182798, Note_off_c, 0, 76, 54
1, 182822, Note_off_c, 0, 65, 62
1, 182859, Note_off_c, 0, 53, 56
1, 182878, Note_on_c, 0, 43, 78
1, 182903, Note_off_c, 0, 50, 45
1, 182917, Note_off_c, 0, 43, 63
1, 182987, Note_on_c, 0, 76, 97
1, 182995, Note_on_c, 0, 65, 92
1, 183077, Control_c, 0, 64, 96
1, 183085, Note_on_c, 0, 37, 93
1, 183092, Control_c, 0, 64, 82
1, 183114, Control_c, 0, 64, 81
1, 183129, Control_c, 0, 64, 86
1, 183133, Note_off_c, 0, 37, 64
1, 183144, Control_c, 0, 64, 97
1, 183157, Note_off_c, 0, 65, 65
1, 183159, Control_c, 0, 64, 127
1, 183253, Note_on_c, 0, 47, 76
1, 183326, Note_on_c, 0, 53, 88
1, 183397, Note_off_c, 0, 47, 62
1, 183415, Note_off_c, 0, 53, 60
1, 183416, Note_on_c, 0, 59, 85
1, 183454, Note_off_c, 0, 59, 64
1, 183470, Note_off_c, 0, 76, 60
1, 183504, Note_on_c, 0, 79, 102
1, 183510, Note_on_c, 0, 68, 95
1, 183566, Note_off_c, 0, 68, 58
1, 183936, Control_c, 0, 67, 19
1, 183966, Control_c, 0, 67, 22
1, 183981, Control_c, 0, 67, 25
1, 184010, Control_c, 0, 67, 27
1, 184084, Control_c, 0, 67, 29
1, 184158, Control_c, 0, 67, 33
1, 184173, Control_c, 0, 67, 40
1, 184188, Control_c, 0, 67, 46
1, 184203, Control_c, 0, 67, 51
1, 184218, Control_c, 0, 67, 54
1, 184233, Control_c, 0, 67, 57
1, 184248, Control_c, 0, 67, 59
1, 184262, Control_c, 0, 67, 61
1, 184277, Control_c, 0, 67, 62
1, 184292, Control_c, 0, 67, 65
1, 184307, Control_c, 0, 67, 69
1, 184322, Control_c, 0, 67, 74
1, 184336, Control_c, 0, 67, 81
1, 184351, Control_c, 0, 67, 88
1, 184366, Control_c, 0, 67, 93
1, 184380, Control_c, 0, 67, 98
1, 184395, Control_c, 0, 67, 104
1, 184410, Control_c, 0, 67, 110
1, 184426, Control_c, 0, 67, 118
1, 184441, Control_c, 0, 64, 117
1, 184441, Control_c, 0, 67, 124
1, 184444, Poly_aftertouch_c, 0, 68, 127
1, 184456, Control_c, 0, 64, 113
1, 184456, Control_c, 0, 67, 127
1, 184471, Control_c, 0, 64, 108
1, 184485, Control_c, 0, 64, 105
1, 184515, Control_c, 0, 64, 102
1, 184545, Control_c, 0, 64, 98
1, 184574, Control_c, 0, 64, 96
1, 184589, Control_c, 0, 64, 95
1, 184611, Control_c, 0, 64, 94
1, 184626, Control_c, 0, 64, 93
1, 184641, Control_c, 0, 64, 92
1, 184656, Control_c, 0, 64, 90
1, 184671, Control_c, 0, 64, 89
1, 184685, Control_c, 0, 64, 88
1, 184700, Control_c, 0, 64, 87
1, 184715, Control_c, 0, 64, 86
1, 184730, Control_c, 0, 64, 85
1, 184745, Control_c, 0, 64, 83
1, 184759, Control_c, 0, 64, 82
1, 184774, Control_c, 0, 64, 81
1, 184789, Control_c, 0, 64, 80
1, 184803, Control_c, 0, 64, 79
1, 184818, Control_c, 0, 64, 77
1, 184834, Control_c, 0, 64, 76
1, 184849, Control_c, 0, 64, 75
1, 184864, Control_c, 0, 64, 74
1, 184878, Control_c, 0, 64, 74
1, 184893, Control_c, 0, 64, 72
1, 184906, Note_on_c, 0, 59, 39
1, 184908, Control_c, 0, 64, 70
1, 184923, Control_c, 0, 64, 68
1, 184938, Control_c, 0, 64, 66
1, 184952, Control_c, 0, 64, 65
1, 184967, Control_c, 0, 64, 64
1, 184982, Control_c, 0, 64, 63
1, 184997, Control_c, 0, 64, 61
1, 185011, Control_c, 0, 64, 59
1, 185026, Control_c, 0, 64, 56
1, 185041, Control_c, 0, 64, 52
1, 185056, Control_c, 0, 64, 46
1, 185071, Control_c, 0, 64, 34
1, 185085, Control_c, 0, 64, 0
1, 185204, Control_c, 0, 64, 38
1, 185219, Control_c, 0, 64, 47
1, 185234, Control_c, 0, 64, 53
1, 185249, Control_c, 0, 64, 57
1, 185264, Control_c, 0, 64, 59
1, 185279, Control_c, 0, 64, 61
1, 185294, Control_c, 0, 64, 63
1, 185298, Note_off_c, 0, 79, 44
1, 185309, Control_c, 0, 64, 65
1, 185324, Control_c, 0, 64, 67
1, 185339, Control_c, 0, 64, 68
1, 185361, Control_c, 0, 64, 70
1, 185375, Control_c, 0, 64, 71
1, 185390, Control_c, 0, 64, 73
1, 185405, Control_c, 0, 64, 76
1, 185420, Control_c, 0, 64, 79
1, 185427, Note_on_c, 0, 53, 31
1, 185430, Poly_aftertouch_c, 0, 68, 0
1, 185434, Control_c, 0, 64, 82
1, 185449, Control_c, 0, 64, 84
1, 185464, Control_c, 0, 64, 86
1, 185479, Control_c, 0, 64, 87
1, 185494, Control_c, 0, 64, 88
1, 185509, Control_c, 0, 64, 88
1, 185538, Note_off_c, 0, 59, 31
1, 185538, Control_c, 0, 64, 89
1, 185568, Control_c, 0, 64, 89
1, 185613, Control_c, 0, 64, 90
1, 185657, Control_c, 0, 64, 90
1, 185672, Control_c, 0, 64, 91
1, 185686, Note_off_c, 0, 53, 32
1, 185767, Note_on_c, 0, 43, 26
1, 185997, Control_c, 0, 64, 90
1, 186043, Control_c, 0, 64, 90
1, 186072, Control_c, 0, 64, 89
1, 186087, Control_c, 0, 64, 88
1, 186110, Control_c, 0, 64, 88
1, 186124, Control_c, 0, 64, 87
1, 186139, Control_c, 0, 64, 86
1, 186154, Control_c, 0, 64, 85
1, 186155, Note_on_c, 0, 69, 65
1, 186169, Control_c, 0, 64, 83
1, 186171, Note_on_c, 0, 58, 49
1, 186184, Control_c, 0, 64, 81
1, 186199, Control_c, 0, 64, 78
1, 186212, Note_on_c, 0, 53, 24
1, 186213, Control_c, 0, 64, 75
1, 186214, Note_on_c, 0, 49, 30
1, 186228, Control_c, 0, 64, 69
1, 186243, Control_c, 0, 64, 64
1, 186257, Control_c, 0, 64, 56
1, 186272, Control_c, 0, 64, 45
1, 186287, Control_c, 0, 64, 0
1, 186465, Control_c, 0, 64, 37
1, 186480, Control_c, 0, 64, 51
1, 186495, Control_c, 0, 64, 59
1, 186510, Control_c, 0, 64, 62
1, 186524, Control_c, 0, 64, 65
1, 186539, Control_c, 0, 64, 67
1, 186554, Control_c, 0, 64, 69
1, 186569, Control_c, 0, 64, 72
1, 186583, Control_c, 0, 64, 76
1, 186598, Control_c, 0, 64, 81
1, 186613, Control_c, 0, 64, 87
1, 186628, Control_c, 0, 64, 92
1, 186643, Control_c, 0, 64, 96
1, 186657, Control_c, 0, 64, 99
1, 186672, Control_c, 0, 64, 101
1, 186717, Control_c, 0, 64, 103
1, 186727, Note_off_c, 0, 58, 32
1, 186772, Note_off_c, 0, 69, 34
1, 187021, Control_c, 0, 64, 101
1, 187051, Control_c, 0, 64, 99
1, 187080, Control_c, 0, 64, 97
1, 187095, Control_c, 0, 64, 96
1, 187110, Control_c, 0, 64, 95
1, 187125, Control_c, 0, 64, 93
1, 187140, Control_c, 0, 64, 92
1, 187154, Control_c, 0, 64, 90
1, 187169, Control_c, 0, 64, 88
1, 187184, Control_c, 0, 64, 86
1, 187199, Control_c, 0, 64, 84
1, 187214, Control_c, 0, 64, 80
1, 187228, Control_c, 0, 64, 77
1, 187243, Control_c, 0, 64, 74
1, 187258, Control_c, 0, 64, 72
1, 187265, Note_on_c, 0, 70, 48
1, 187273, Control_c, 0, 64, 69
1, 187288, Control_c, 0, 64, 65
1, 187296, Note_on_c, 0, 59, 17
1, 187303, Control_c, 0, 64, 58
1, 187318, Control_c, 0, 64, 53
1, 187333, Control_c, 0, 64, 47
1, 187347, Control_c, 0, 64, 36
1, 187362, Control_c, 0, 64, 0
1, 187606, Control_c, 0, 64, 42
1, 187621, Control_c, 0, 64, 53
1, 187637, Control_c, 0, 64, 60
1, 187652, Control_c, 0, 64, 63
1, 187667, Control_c, 0, 64, 65
1, 187682, Control_c, 0, 64, 67
1, 187696, Control_c, 0, 64, 68
1, 187699, Note_off_c, 0, 49, 44
1, 187711, Control_c, 0, 64, 71
1, 187726, Control_c, 0, 64, 74
1, 187741, Control_c, 0, 64, 78
1, 187747, Note_off_c, 0, 53, 40
1, 187756, Control_c, 0, 64, 81
1, 187771, Control_c, 0, 64, 84
1, 187785, Control_c, 0, 64, 88
1, 187800, Control_c, 0, 64, 91
1, 187815, Control_c, 0, 64, 93
1, 187829, Control_c, 0, 64, 94
1, 187834, Note_off_c, 0, 59, 42
1, 187844, Control_c, 0, 64, 95
1, 187859, Control_c, 0, 64, 96
1, 187917, Note_off_c, 0, 43, 39
1, 187977, Control_c, 0, 64, 95
1, 187991, Note_on_c, 0, 56, 43
1, 187992, Control_c, 0, 64, 94
1, 188007, Control_c, 0, 64, 91
1, 188021, Control_c, 0, 64, 89
1, 188036, Control_c, 0, 64, 86
1, 188051, Control_c, 0, 64, 82
1, 188059, Note_on_c, 0, 73, 52
1, 188066, Control_c, 0, 64, 78
1, 188081, Note_on_c, 0, 62, 43
1, 188081, Control_c, 0, 64, 72
1, 188096, Control_c, 0, 64, 66
1, 188111, Control_c, 0, 64, 57
1, 188120, Note_off_c, 0, 70, 45
1, 188126, Control_c, 0, 64, 46
1, 188140, Control_c, 0, 64, 0
1, 188329, Note_on_c, 0, 50, 36
1, 188385, Control_c, 0, 64, 40
1, 188400, Control_c, 0, 64, 53
1, 188415, Control_c, 0, 64, 59
1, 188430, Control_c, 0, 64, 62
1, 188445, Control_c, 0, 64, 64
1, 188460, Control_c, 0, 64, 65
1, 188474, Control_c, 0, 64, 67
1, 188489, Control_c, 0, 64, 69
1, 188504, Control_c, 0, 64, 72
1, 188519, Control_c, 0, 64, 75
1, 188534, Control_c, 0, 64, 76
1, 188549, Control_c, 0, 64, 77
1, 188564, Control_c, 0, 64, 78
1, 188578, Control_c, 0, 64, 78
1, 188591, Note_on_c, 0, 40, 40
1, 188593, Control_c, 0, 64, 79
1, 188608, Control_c, 0, 64, 81
1, 188623, Control_c, 0, 64, 83
1, 188638, Control_c, 0, 64, 85
1, 188652, Control_c, 0, 64, 87
1, 188666, Note_off_c, 0, 50, 37
1, 188667, Control_c, 0, 64, 88
1, 188682, Control_c, 0, 64, 90
1, 188697, Control_c, 0, 64, 91
1, 188712, Control_c, 0, 64, 94
1, 188726, Control_c, 0, 64, 97
1, 188735, Note_off_c, 0, 40, 28
1, 188741, Control_c, 0, 64, 101
1, 188756, Control_c, 0, 64, 104
1, 188770, Control_c, 0, 64, 108
1, 188782, Note_off_c, 0, 56, 33
1, 188785, Control_c, 0, 64, 113
1, 188800, Control_c, 0, 64, 127
1, 188973, Note_on_c, 0, 50, 39
1, 189154, Note_on_c, 0, 56, 37
1, 189157, Note_off_c, 0, 50, 36
1, 189271, Note_off_c, 0, 56, 39
1, 189524, Note_on_c, 0, 66, 38
1, 189534, Note_on_c, 0, 54, 63
1, 189661, Note_off_c, 0, 66, 41
1, 189754, Note_off_c, 0, 62, 38
1, 189766, Note_off_c, 0, 54, 31
1, 189884, Note_off_c, 0, 73, 36
1, 190358, Note_on_c, 0, 65, 46
1, 190367, Note_on_c, 0, 53, 57
1, 190510, Poly_aftertouch_c, 0, 73, 127
1, 190612, Note_off_c, 0, 65, 39
1, 190636, Note_off_c, 0, 53, 35
1, 191001, Note_on_c, 0, 65, 28
1, 191005, Note_on_c, 0, 53, 26
1, 191061, Control_c, 0, 64, 111
1, 191076, Control_c, 0, 64, 102
1, 191079, Poly_aftertouch_c, 0, 62, 127
1, 191091, Control_c, 0, 64, 94
1, 191106, Control_c, 0, 64, 85
1, 191120, Control_c, 0, 64, 79
1, 191135, Control_c, 0, 64, 74
1, 191150, Control_c, 0, 64, 72
1, 191164, Control_c, 0, 64, 70
1, 191209, Control_c, 0, 64, 71
1, 191224, Control_c, 0, 64, 73
1, 191238, Control_c, 0, 64, 75
1, 191253, Control_c, 0, 64, 76
1, 191268, Control_c, 0, 64, 76
1, 191283, Control_c, 0, 64, 77
1, 191297, Control_c, 0, 64, 79
1, 191312, Control_c, 0, 64, 82
1, 191327, Control_c, 0, 64, 85
1, 191350, Control_c, 0, 64, 87
1, 191365, Control_c, 0, 64, 88
1, 191379, Control_c, 0, 64, 89
1, 191386, Note_off_c, 0, 53, 40
1, 191394, Control_c, 0, 64, 91
1, 191409, Control_c, 0, 64, 92
1, 191424, Control_c, 0, 64, 94
1, 191439, Control_c, 0, 64, 95
1, 191453, Control_c, 0, 64, 95
1, 191557, Control_c, 0, 64, 96
1, 191594, Note_off_c, 0, 65, 39
1, 191663, Poly_aftertouch_c, 0, 62, 0
1, 191736, Control_c, 0, 64, 94
1, 191751, Control_c, 0, 64, 91
1, 191760, Poly_aftertouch_c, 0, 73, 0
1, 191765, Control_c, 0, 64, 85
1, 191780, Control_c, 0, 64, 77
1, 191783, Note_on_c, 0, 56, 46
1, 191785, Note_on_c, 0, 76, 79
1, 191795, Control_c, 0, 64, 69
1, 191810, Control_c, 0, 64, 64
1, 191825, Control_c, 0, 64, 62
1, 191840, Control_c, 0, 64, 64
1, 191855, Control_c, 0, 64, 67
1, 191857, Note_on_c, 0, 65, 44
1, 191869, Control_c, 0, 64, 72
1, 191884, Control_c, 0, 64, 78
1, 191899, Control_c, 0, 64, 84
1, 191906, Note_off_c, 0, 65, 0
1, 191906, Note_on_c, 0, 65, 24
1, 191913, Control_c, 0, 64, 90
1, 191928, Control_c, 0, 64, 99
1, 191943, Control_c, 0, 64, 115
1, 191953, Note_off_c, 0, 76, 60
1, 191958, Control_c, 0, 64, 127
1, 191965, Note_off_c, 0, 56, 58
1, 192006, Note_off_c, 0, 65, 61
1, 192054, Note_on_c, 0, 50, 42
1, 192099, Control_c, 0, 67, 124
1, 192114, Control_c, 0, 67, 115
1, 192128, Control_c, 0, 67, 106
1, 192143, Control_c, 0, 67, 96
1, 192158, Note_off_c, 0, 50, 54
1, 192158, Control_c, 0, 67, 87
1, 192173, Control_c, 0, 67, 78
1, 192188, Control_c, 0, 67, 71
1, 192202, Control_c, 0, 67, 65
1, 192208, Note_on_c, 0, 40, 57
1, 192217, Control_c, 0, 67, 59
1, 192232, Control_c, 0, 67, 54
1, 192247, Control_c, 0, 67, 48
1, 192262, Control_c, 0, 67, 44
1, 192276, Control_c, 0, 67, 41
1, 192291, Control_c, 0, 67, 40
1, 192336, Control_c, 0, 64, 118
1, 192347, Note_on_c, 0, 55, 82
1, 192347, Note_on_c, 0, 66, 74
1, 192351, Control_c, 0, 64, 102
1, 192366, Control_c, 0, 64, 92
1, 192381, Control_c, 0, 64, 84
1, 192390, Note_on_c, 0, 50, 53
1, 192395, Control_c, 0, 64, 76
1, 192410, Note_on_c, 0, 46, 49
1, 192410, Control_c, 0, 64, 68
1, 192426, Control_c, 0, 64, 58
1, 192441, Control_c, 0, 64, 0
1, 192515, Control_c, 0, 67, 39
1, 192530, Control_c, 0, 67, 39
1, 192544, Control_c, 0, 67, 38
1, 192559, Control_c, 0, 67, 37
1, 192574, Control_c, 0, 64, 40
1, 192574, Control_c, 0, 67, 33
1, 192589, Control_c, 0, 64, 58
1, 192589, Control_c, 0, 67, 23
1, 192604, Control_c, 0, 64, 67
1, 192604, Control_c, 0, 67, 0
1, 192618, Control_c, 0, 64, 73
1, 192633, Control_c, 0, 64, 78
1, 192636, Note_off_c, 0, 55, 64
1, 192648, Control_c, 0, 64, 82
1, 192663, Control_c, 0, 64, 86
1, 192678, Control_c, 0, 64, 90
1, 192692, Control_c, 0, 64, 92
1, 192707, Control_c, 0, 64, 93
1, 192737, Control_c, 0, 64, 92
1, 192752, Control_c, 0, 64, 92
1, 192767, Control_c, 0, 64, 89
1, 192782, Control_c, 0, 64, 84
1, 192797, Control_c, 0, 64, 76
1, 192811, Control_c, 0, 64, 68
1, 192826, Control_c, 0, 64, 60
1, 192842, Note_on_c, 0, 67, 79
1, 192847, Note_off_c, 0, 66, 53
1, 192848, Control_c, 0, 64, 43
1, 192855, Note_on_c, 0, 56, 73
1, 192863, Control_c, 0, 64, 0
1, 193115, Control_c, 0, 67, 19
1, 193220, Control_c, 0, 67, 22
1, 193235, Control_c, 0, 64, 47
1, 193249, Control_c, 0, 64, 61
1, 193264, Control_c, 0, 64, 66
1, 193264, Control_c, 0, 67, 24
1, 193279, Control_c, 0, 64, 71
1, 193294, Control_c, 0, 64, 77
1, 193309, Control_c, 0, 64, 84
1, 193309, Control_c, 0, 67, 27
1, 193311, Note_off_c, 0, 50, 58
1, 193323, Control_c, 0, 64, 92
1, 193323, Control_c, 0, 67, 30
1, 193338, Control_c, 0, 64, 102
1, 193338, Control_c, 0, 67, 33
1, 193345, Note_off_c, 0, 56, 59
1, 193353, Control_c, 0, 64, 112
1, 193353, Control_c, 0, 67, 36
1, 193367, Control_c, 0, 64, 126
1, 193367, Control_c, 0, 67, 39
1, 193382, Control_c, 0, 67, 43
1, 193397, Control_c, 0, 67, 48
1, 193410, Note_off_c, 0, 40, 27
1, 193412, Control_c, 0, 67, 53
1, 193427, Control_c, 0, 67, 59
1, 193441, Control_c, 0, 64, 119
1, 193441, Control_c, 0, 67, 66
1, 193448, Note_off_c, 0, 46, 43
1, 193456, Control_c, 0, 64, 116
1, 193456, Control_c, 0, 67, 74
1, 193471, Control_c, 0, 64, 114
1, 193471, Control_c, 0, 67, 82
1, 193485, Control_c, 0, 64, 109
1, 193485, Control_c, 0, 67, 90
1, 193492, Note_on_c, 0, 70, 69
1, 193500, Control_c, 0, 64, 101
1, 193500, Control_c, 0, 67, 98
1, 193515, Note_on_c, 0, 59, 52
1, 193515, Control_c, 0, 64, 93
1, 193515, Control_c, 0, 67, 105
1, 193530, Control_c, 0, 64, 86
1, 193530, Control_c, 0, 67, 111
1, 193545, Control_c, 0, 64, 80
1, 193545, Control_c, 0, 67, 117
1, 193551, Note_off_c, 0, 67, 55
1, 193560, Control_c, 0, 64, 75
1, 193560, Control_c, 0, 67, 123
1, 193567, Note_on_c, 0, 53, 32
1, 193575, Control_c, 0, 64, 70
1, 193575, Control_c, 0, 67, 127
1, 193597, Control_c, 0, 64, 64
1, 193612, Control_c, 0, 64, 55
1, 193627, Control_c, 0, 64, 42
1, 193641, Control_c, 0, 64, 0
1, 193857, Note_on_c, 0, 47, 46
1, 193966, Control_c, 0, 64, 37
1, 193981, Control_c, 0, 64, 47
1, 193996, Control_c, 0, 64, 58
1, 194012, Control_c, 0, 64, 62
1, 194027, Control_c, 0, 64, 65
1, 194042, Control_c, 0, 64, 66
1, 194057, Control_c, 0, 64, 68
1, 194071, Control_c, 0, 64, 70
1, 194085, Note_off_c, 0, 53, 32
1, 194086, Control_c, 0, 64, 73
1, 194101, Control_c, 0, 64, 76
1, 194108, Note_on_c, 0, 37, 45
1, 194115, Control_c, 0, 64, 78
1, 194130, Control_c, 0, 64, 80
1, 194145, Control_c, 0, 64, 83
1, 194160, Control_c, 0, 64, 87
1, 194175, Control_c, 0, 64, 92
1, 194189, Control_c, 0, 64, 98
1, 194204, Control_c, 0, 64, 104
1, 194210, Note_off_c, 0, 47, 41
1, 194219, Control_c, 0, 64, 112
1, 194234, Control_c, 0, 64, 127
1, 194475, Note_off_c, 0, 37, 35
1, 194493, Control_c, 0, 67, 125
1, 194514, Note_on_c, 0, 63, 49
1, 194519, Note_on_c, 0, 51, 62
1, 194538, Control_c, 0, 67, 123
1, 194771, Note_off_c, 0, 51, 36
1, 195027, Note_off_c, 0, 63, 41
1, 195709, Note_on_c, 0, 50, 51
1, 195712, Note_on_c, 0, 62, 40
1, 195718, Control_c, 0, 64, 110
1, 195733, Control_c, 0, 64, 92
1, 195748, Control_c, 0, 64, 81
1, 195762, Control_c, 0, 64, 73
1, 195762, Control_c, 0, 67, 125
1, 195777, Control_c, 0, 64, 70
1, 195792, Control_c, 0, 64, 71
1, 195807, Control_c, 0, 64, 73
1, 195822, Control_c, 0, 64, 78
1, 195843, Control_c, 0, 64, 82
1, 195858, Control_c, 0, 64, 85
1, 195873, Control_c, 0, 64, 88
1, 195888, Control_c, 0, 64, 92
1, 195903, Control_c, 0, 64, 96
1, 195918, Control_c, 0, 64, 100
1, 195923, Note_off_c, 0, 50, 38
1, 195933, Control_c, 0, 64, 102
1, 196007, Control_c, 0, 64, 104
1, 196035, Note_off_c, 0, 62, 27
1, 196140, Control_c, 0, 64, 102
1, 196169, Control_c, 0, 64, 99
1, 196184, Control_c, 0, 64, 97
1, 196199, Control_c, 0, 64, 96
1, 196214, Control_c, 0, 64, 94
1, 196229, Control_c, 0, 64, 92
1, 196243, Control_c, 0, 64, 89
1, 196258, Control_c, 0, 64, 87
1, 196273, Control_c, 0, 64, 86
1, 196273, Control_c, 0, 67, 127
1, 196287, Control_c, 0, 64, 84
1, 196302, Control_c, 0, 64, 83
1, 196317, Note_on_c, 0, 62, 33
1, 196317, Control_c, 0, 64, 81
1, 196324, Note_on_c, 0, 53, 37
1, 196325, Note_on_c, 0, 50, 31
1, 196332, Control_c, 0, 64, 78
1, 196338, Note_on_c, 0, 43, 34
1, 196347, Control_c, 0, 64, 76
1, 196362, Control_c, 0, 64, 73
1, 196377, Control_c, 0, 64, 70
1, 196392, Control_c, 0, 64, 66
1, 196407, Control_c, 0, 64, 62
1, 196422, Control_c, 0, 64, 57
1, 196437, Control_c, 0, 64, 54
1, 196451, Control_c, 0, 64, 50
1, 196466, Control_c, 0, 64, 43
1, 196481, Control_c, 0, 64, 31
1, 196496, Control_c, 0, 64, 0
1, 196904, Control_c, 0, 64, 36
1, 196918, Control_c, 0, 64, 48
1, 196933, Control_c, 0, 64, 57
1, 196948, Control_c, 0, 64, 60
1, 196963, Control_c, 0, 64, 62
1, 196978, Control_c, 0, 64, 64
1, 196992, Control_c, 0, 64, 66
1, 197007, Control_c, 0, 64, 69
1, 197022, Control_c, 0, 64, 73
1, 197036, Control_c, 0, 64, 77
1, 197051, Control_c, 0, 64, 82
1, 197066, Control_c, 0, 64, 88
1, 197081, Control_c, 0, 64, 93
1, 197096, Control_c, 0, 64, 97
1, 197110, Control_c, 0, 64, 101
1, 197113, Note_off_c, 0, 50, 37
1, 197122, Note_off_c, 0, 59, 33
1, 197125, Control_c, 0, 64, 107
1, 197135, Note_off_c, 0, 43, 40
1, 197140, Control_c, 0, 64, 116
1, 197155, Control_c, 0, 64, 127
1, 197189, Note_off_c, 0, 62, 41
1, 197247, Note_off_c, 0, 70, 55
1, 197253, Note_off_c, 0, 53, 33
1, 197459, Control_c, 0, 64, 122
1, 197465, Note_on_c, 0, 40, 40
1, 197474, Control_c, 0, 64, 96
1, 197489, Control_c, 0, 64, 78
1, 197504, Control_c, 0, 64, 64
1, 197519, Control_c, 0, 64, 45
1, 197533, Control_c, 0, 64, 0
1, 197591, Note_on_c, 0, 50, 38
1, 197623, Control_c, 0, 64, 46
1, 197638, Control_c, 0, 64, 57
1, 197653, Control_c, 0, 64, 61
1, 197667, Control_c, 0, 64, 63
1, 197682, Control_c, 0, 64, 65
1, 197697, Control_c, 0, 64, 66
1, 197712, Control_c, 0, 64, 67
1, 197722, Note_off_c, 0, 40, 33
1, 197727, Control_c, 0, 64, 69
1, 197741, Control_c, 0, 64, 70
1, 197756, Control_c, 0, 64, 71
1, 197758, Note_on_c, 0, 78, 60
1, 197771, Control_c, 0, 64, 72
1, 197786, Control_c, 0, 64, 73
1, 197790, Note_on_c, 0, 67, 47
1, 197801, Control_c, 0, 64, 74
1, 197815, Control_c, 0, 64, 75
1, 197830, Control_c, 0, 64, 77
1, 197845, Control_c, 0, 64, 77
1, 197859, Control_c, 0, 64, 78
1, 197915, Note_off_c, 0, 78, 58
1, 197919, Control_c, 0, 64, 78
1, 197923, Note_off_c, 0, 67, 22
1, 197948, Note_on_c, 0, 58, 43
1, 197993, Control_c, 0, 64, 79
1, 198009, Control_c, 0, 64, 79
1, 198024, Control_c, 0, 64, 80
1, 198026, Note_off_c, 0, 50, 40
1, 198038, Control_c, 0, 64, 81
1, 198053, Control_c, 0, 64, 81
1, 198068, Control_c, 0, 64, 83
1, 198090, Control_c, 0, 64, 84
1, 198105, Control_c, 0, 64, 87
1, 198120, Control_c, 0, 64, 90
1, 198135, Control_c, 0, 64, 93
1, 198150, Control_c, 0, 64, 97
1, 198162, Note_off_c, 0, 58, 39
1, 198164, Control_c, 0, 64, 100
1, 198179, Control_c, 0, 64, 103
1, 198189, Note_on_c, 0, 79, 83
1, 198194, Control_c, 0, 64, 105
1, 198209, Control_c, 0, 64, 107
1, 198219, Note_on_c, 0, 68, 62
1, 198224, Control_c, 0, 64, 110
1, 198238, Note_off_c, 0, 68, 62
1, 198238, Control_c, 0, 64, 115
1, 198253, Control_c, 0, 64, 127
1, 198362, Note_off_c, 0, 79, 62
1, 198395, Note_on_c, 0, 65, 69
1, 198475, Control_c, 0, 64, 122
1, 198490, Control_c, 0, 64, 96
1, 198505, Control_c, 0, 64, 80
1, 198520, Control_c, 0, 64, 65
1, 198527, Note_on_c, 0, 59, 47
1, 198535, Control_c, 0, 64, 48
1, 198550, Control_c, 0, 64, 0
1, 198669, Note_on_c, 0, 82, 83
1, 198722, Note_on_c, 0, 71, 14
1, 198884, Control_c, 0, 64, 30
1, 198899, Control_c, 0, 64, 41
1, 198904, Note_on_c, 0, 53, 41
1, 198913, Control_c, 0, 64, 55
1, 198924, Note_off_c, 0, 59, 60
1, 198928, Control_c, 0, 64, 64
1, 198942, Note_off_c, 0, 53, 62
1, 198943, Control_c, 0, 64, 69
1, 198945, Note_off_c, 0, 65, 39
1, 198958, Control_c, 0, 64, 75
1, 198973, Control_c, 0, 64, 81
1, 198987, Control_c, 0, 64, 88
1, 199002, Control_c, 0, 64, 98
1, 199017, Control_c, 0, 64, 112
1, 199031, Control_c, 0, 64, 127
1, 199123, Note_off_c, 0, 71, 0
1, 199149, Note_on_c, 0, 71, 15
1, 199187, Note_on_c, 0, 37, 45
1, 199271, Note_off_c, 0, 37, 60
1, 199605, Note_on_c, 0, 75, 49
1, 199626, Note_on_c, 0, 63, 59
1, 199713, Note_off_c, 0, 71, 42
1, 199724, Note_off_c, 0, 63, 60
1, 199764, Note_off_c, 0, 75, 51
1, 199775, Note_off_c, 0, 82, 36
1, 200850, Note_on_c, 0, 74, 49
1, 200862, Note_on_c, 0, 62, 42
1, 201028, Note_off_c, 0, 74, 36
1, 201063, Note_off_c, 0, 62, 35
1, 201579, Note_on_c, 0, 74, 50
1, 201585, Note_on_c, 0, 62, 45
1, 201601, Note_on_c, 0, 59, 39
1, 201602, Note_on_c, 0, 65, 42
1, 201608, Note_on_c, 0, 43, 42
1, 201608, Note_on_c, 0, 53, 44
1, 201706, Note_off_c, 0, 62, 55
1, 201724, Note_off_c, 0, 65, 30
1, 201762, Note_off_c, 0, 59, 33
1, 201767, Control_c, 0, 67, 125
1, 201803, Note_off_c, 0, 43, 56
1, 201834, Note_off_c, 0, 53, 22
1, 201834, Control_c, 0, 67, 123
1, 201863, Note_off_c, 0, 74, 39
1, 201923, Control_c, 0, 67, 121
1, 202028, Control_c, 0, 67, 119
1, 202043, Control_c, 0, 67, 113
1, 202057, Control_c, 0, 67, 108
1, 202072, Control_c, 0, 67, 103
1, 202087, Control_c, 0, 67, 100
1, 202472, Control_c, 0, 67, 102
1, 202672, Control_c, 0, 67, 104
1, 202969, Note_on_c, 0, 82, 54
1, 202990, Note_on_c, 0, 71, 42
1, 203040, Note_off_c, 0, 71, 57
1, 203218, Note_off_c, 0, 82, 32
1, 203939, Control_c, 0, 67, 107
1, 203999, Control_c, 0, 67, 109
1, 204043, Control_c, 0, 67, 111
1, 204080, Control_c, 0, 67, 113
1, 204109, Control_c, 0, 67, 115
1, 204154, Control_c, 0, 67, 118
1, 204169, Control_c, 0, 67, 124
1, 204184, Control_c, 0, 67, 127
1, 204378, Note_on_c, 0, 44, 35
1, 204421, Control_c, 0, 64, 113
1, 204436, Control_c, 0, 64, 105
1, 204450, Control_c, 0, 64, 100
1, 204465, Control_c, 0, 64, 96
1, 204480, Control_c, 0, 64, 91
1, 204495, Control_c, 0, 64, 87
1, 204510, Control_c, 0, 64, 83
1, 204524, Control_c, 0, 64, 78
1, 204534, Note_on_c, 0, 49, 34
1, 204539, Control_c, 0, 64, 73
1, 204554, Control_c, 0, 64, 67
1, 204568, Control_c, 0, 64, 63
1, 204583, Control_c, 0, 64, 58
1, 204598, Control_c, 0, 64, 55
1, 204613, Control_c, 0, 64, 52
1, 204628, Control_c, 0, 64, 49
1, 204637, Note_on_c, 0, 59, 32
1, 204643, Control_c, 0, 64, 47
1, 204658, Control_c, 0, 64, 42
1, 204673, Control_c, 0, 64, 34
1, 204688, Control_c, 0, 64, 0
1, 204826, Note_on_c, 0, 65, 39
1, 205466, Control_c, 0, 64, 36
1, 205481, Control_c, 0, 64, 52
1, 205496, Control_c, 0, 64, 63
1, 205511, Control_c, 0, 64, 66
1, 205526, Control_c, 0, 64, 69
1, 205540, Control_c, 0, 64, 72
1, 205555, Control_c, 0, 64, 77
1, 205578, Control_c, 0, 64, 85
1, 205593, Control_c, 0, 64, 95
1, 205607, Control_c, 0, 64, 107
1, 205622, Note_off_c, 0, 65, 57
1, 205622, Control_c, 0, 64, 127
1, 206157, Note_on_c, 0, 82, 56
1, 206209, Note_on_c, 0, 71, 21
1, 206270, Note_off_c, 0, 71, 43
1, 206404, Note_off_c, 0, 82, 34
1, 206738, Note_off_c, 0, 44, 38
1, 206958, Note_off_c, 0, 59, 34
1, 207087, Note_off_c, 0, 49, 32
1, 207404, Note_on_c, 0, 82, 49
1, 207413, Note_on_c, 0, 71, 51
1, 207477, Note_off_c, 0, 71, 56
1, 207514, Note_off_c, 0, 82, 55
1, 207549, Note_on_c, 0, 85, 61
1, 207595, Note_on_c, 0, 74, 37
1, 207666, Note_off_c, 0, 74, 37
1, 207697, Note_off_c, 0, 85, 39
1, 208101, Note_on_c, 0, 82, 56
1, 208137, Note_on_c, 0, 71, 38
1, 208180, Control_c, 0, 64, 93
1, 208194, Control_c, 0, 64, 73
1, 208209, Control_c, 0, 64, 60
1, 208224, Note_on_c, 0, 44, 31
1, 208224, Control_c, 0, 64, 52
1, 208239, Control_c, 0, 64, 54
1, 208254, Control_c, 0, 64, 62
1, 208268, Control_c, 0, 64, 70
1, 208273, Note_off_c, 0, 71, 38
1, 208283, Control_c, 0, 64, 82
1, 208296, Note_on_c, 0, 49, 36
1, 208298, Control_c, 0, 64, 99
1, 208312, Control_c, 0, 64, 127
1, 208356, Note_on_c, 0, 59, 46
1, 208379, Note_off_c, 0, 44, 37
1, 208406, Note_off_c, 0, 59, 57
1, 208429, Note_off_c, 0, 49, 35
1, 208461, Note_off_c, 0, 82, 0
1, 208475, Note_on_c, 0, 82, 45
1, 208518, Note_on_c, 0, 71, 34
1, 208629, Note_on_c, 0, 64, 48
1, 208667, Note_off_c, 0, 64, 61
1, 208721, Note_off_c, 0, 82, 41
1, 209341, Note_off_c, 0, 71, 40
1, 209794, Note_on_c, 0, 75, 44
1, 209818, Note_on_c, 0, 64, 28
1, 209965, Note_off_c, 0, 64, 40
1, 210214, Note_off_c, 0, 75, 24
1, 210799, Note_on_c, 0, 65, 51
1, 210835, Control_c, 0, 64, 111
1, 210850, Control_c, 0, 64, 101
1, 210865, Control_c, 0, 64, 94
1, 210880, Control_c, 0, 64, 89
1, 210894, Control_c, 0, 64, 84
1, 210909, Control_c, 0, 64, 80
1, 210924, Control_c, 0, 64, 74
1, 210939, Control_c, 0, 64, 67
1, 210953, Control_c, 0, 64, 61
1, 210968, Control_c, 0, 64, 53
1, 210983, Control_c, 0, 64, 44
1, 210998, Control_c, 0, 64, 0
1, 211132, Control_c, 0, 64, 34
1, 211146, Control_c, 0, 64, 52
1, 211161, Control_c, 0, 64, 61
1, 211176, Control_c, 0, 64, 66
1, 211191, Control_c, 0, 64, 70
1, 211195, Note_on_c, 0, 59, 26
1, 211206, Control_c, 0, 64, 73
1, 211220, Control_c, 0, 64, 77
1, 211235, Control_c, 0, 64, 85
1, 211250, Control_c, 0, 64, 95
1, 211264, Control_c, 0, 64, 109
1, 211279, Note_off_c, 0, 65, 37
1, 211279, Control_c, 0, 64, 127
1, 211362, Note_off_c, 0, 59, 43
1, 211381, Note_on_c, 0, 49, 38
1, 211446, Note_off_c, 0, 49, 43
1, 211565, Note_on_c, 0, 82, 61
1, 211597, Note_on_c, 0, 71, 43
1, 211622, Note_on_c, 0, 59, 10
1, 211633, Note_off_c, 0, 71, 53
1, 211657, Note_off_c, 0, 82, 63
1, 211778, Note_on_c, 0, 49, 35
1, 211930, Note_off_c, 0, 59, 40
1, 211931, Note_on_c, 0, 44, 36
1, 211959, Note_off_c, 0, 49, 42
1, 212028, Note_off_c, 0, 44, 39
1, 212249, Note_on_c, 0, 44, 47
1, 212372, Note_on_c, 0, 82, 57
1, 212380, Note_on_c, 0, 71, 44
1, 212402, Note_on_c, 0, 49, 43
1, 212432, Note_off_c, 0, 44, 34
1, 212474, Note_off_c, 0, 49, 55
1, 212474, Note_off_c, 0, 71, 46
1, 212508, Note_off_c, 0, 82, 46
1, 212513, Note_on_c, 0, 85, 65
1, 212524, Note_on_c, 0, 74, 54
1, 212573, Note_on_c, 0, 59, 29
1, 212593, Note_off_c, 0, 85, 52
1, 212645, Note_off_c, 0, 59, 40
1, 212675, Note_on_c, 0, 49, 51
1, 212710, Note_off_c, 0, 74, 25
1, 212804, Note_off_c, 0, 49, 49
1, 212827, Note_on_c, 0, 59, 44
1, 212869, Note_on_c, 0, 82, 67
1, 212886, Note_on_c, 0, 71, 47
1, 212916, Note_off_c, 0, 71, 60
1, 212960, Note_off_c, 0, 82, 57
1, 213015, Note_off_c, 0, 59, 21
1, 213021, Note_on_c, 0, 82, 55
1, 213044, Note_on_c, 0, 71, 35
1, 213085, Note_on_c, 0, 64, 69
1, 213110, Control_c, 0, 64, 115
1, 213125, Control_c, 0, 64, 96
1, 213140, Control_c, 0, 64, 82
1, 213155, Control_c, 0, 64, 73
1, 213170, Control_c, 0, 64, 66
1, 213186, Control_c, 0, 64, 61
1, 213201, Control_c, 0, 64, 60
1, 213215, Control_c, 0, 64, 61
1, 213230, Control_c, 0, 64, 64
1, 213245, Control_c, 0, 64, 67
1, 213259, Control_c, 0, 64, 73
1, 213274, Control_c, 0, 64, 80
1, 213289, Control_c, 0, 64, 87
1, 213304, Control_c, 0, 64, 93
1, 213319, Control_c, 0, 64, 99
1, 213333, Control_c, 0, 64, 107
1, 213343, Note_off_c, 0, 64, 52
1, 213344, Note_off_c, 0, 82, 48
1, 213348, Control_c, 0, 64, 126
1, 213362, Note_on_c, 0, 59, 38
1, 213497, Note_off_c, 0, 59, 36
1, 213517, Note_on_c, 0, 49, 40
1, 213574, Note_off_c, 0, 49, 45
1, 213642, Note_on_c, 0, 59, 39
1, 213756, Note_off_c, 0, 71, 40
1, 213758, Note_on_c, 0, 49, 41
1, 213854, Note_on_c, 0, 44, 49
1, 213859, Note_off_c, 0, 59, 26
1, 213887, Note_off_c, 0, 44, 57
1, 213897, Note_off_c, 0, 49, 37
1, 213964, Note_on_c, 0, 75, 60
1, 213993, Note_on_c, 0, 64, 35
1, 214041, Note_off_c, 0, 64, 53
1, 214068, Note_on_c, 0, 44, 40
1, 214086, Note_off_c, 0, 75, 56
1, 214165, Note_on_c, 0, 49, 52
1, 214167, Note_off_c, 0, 44, 56
1, 214227, Note_off_c, 0, 49, 59
1, 214258, Note_on_c, 0, 59, 53
1, 214296, Note_off_c, 0, 59, 61
1, 214357, Note_on_c, 0, 49, 52
1, 214419, Note_on_c, 0, 59, 51
1, 214438, Control_c, 0, 64, 116
1, 214440, Note_off_c, 0, 49, 56
1, 214453, Control_c, 0, 64, 109
1, 214468, Control_c, 0, 64, 102
1, 214482, Control_c, 0, 64, 96
1, 214497, Control_c, 0, 64, 90
1, 214512, Control_c, 0, 64, 84
1, 214516, Note_off_c, 0, 59, 47
1, 214527, Control_c, 0, 64, 76
1, 214542, Control_c, 0, 64, 68
1, 214548, Note_on_c, 0, 82, 71
1, 214563, Control_c, 0, 64, 59
1, 214578, Control_c, 0, 64, 46
1, 214586, Note_on_c, 0, 64, 44
1, 214592, Note_on_c, 0, 71, 49
1, 214593, Control_c, 0, 64, 0
1, 214636, Note_off_c, 0, 64, 55
1, 214653, Control_c, 0, 64, 37
1, 214668, Control_c, 0, 64, 53
1, 214668, Note_on_c, 0, 59, 48
1, 214682, Control_c, 0, 64, 62
1, 214697, Control_c, 0, 64, 66
1, 214711, Note_off_c, 0, 59, 61
1, 214712, Control_c, 0, 64, 67
1, 214727, Control_c, 0, 64, 66
1, 214742, Control_c, 0, 64, 65
1, 214749, Note_on_c, 0, 49, 51
1, 214756, Control_c, 0, 64, 62
1, 214771, Control_c, 0, 64, 59
1, 214786, Note_off_c, 0, 49, 59
1, 214787, Control_c, 0, 64, 57
1, 214802, Control_c, 0, 64, 56
1, 214805, Note_off_c, 0, 82, 62
1, 214817, Control_c, 0, 64, 57
1, 214832, Control_c, 0, 64, 60
1, 214836, Note_on_c, 0, 59, 60
1, 214847, Control_c, 0, 64, 61
1, 214861, Control_c, 0, 64, 62
1, 214876, Control_c, 0, 64, 62
1, 214890, Note_off_c, 0, 59, 56
1, 214891, Control_c, 0, 64, 63
1, 214906, Control_c, 0, 64, 63
1, 214926, Note_on_c, 0, 49, 54
1, 214936, Control_c, 0, 64, 64
1, 214961, Note_off_c, 0, 49, 62
1, 214966, Control_c, 0, 64, 63
1, 214980, Control_c, 0, 64, 62
1, 214995, Control_c, 0, 64, 60
1, 215010, Control_c, 0, 64, 56
1, 215014, Note_on_c, 0, 44, 38
1, 215024, Control_c, 0, 64, 50
1, 215039, Control_c, 0, 64, 46
1, 215048, Note_off_c, 0, 44, 50
1, 215054, Control_c, 0, 64, 43
1, 215057, Note_off_c, 0, 71, 51
1, 215069, Control_c, 0, 64, 43
1, 215084, Control_c, 0, 64, 46
1, 215087, Note_on_c, 0, 75, 48
1, 215098, Control_c, 0, 64, 50
1, 215100, Note_on_c, 0, 64, 40
1, 215113, Control_c, 0, 64, 53
1, 215128, Control_c, 0, 64, 57
1, 215143, Control_c, 0, 64, 60
1, 215158, Control_c, 0, 64, 62
1, 215172, Control_c, 0, 64, 64
1, 215180, Note_on_c, 0, 44, 46
1, 215187, Control_c, 0, 64, 65
1, 215192, Note_off_c, 0, 64, 50
1, 215202, Control_c, 0, 64, 67
1, 215217, Control_c, 0, 64, 68
1, 215229, Note_off_c, 0, 75, 62
1, 215231, Control_c, 0, 64, 69
1, 215246, Control_c, 0, 64, 70
1, 215261, Control_c, 0, 64, 70
1, 215266, Note_off_c, 0, 44, 60
1, 215272, Note_on_c, 0, 49, 45
1, 215276, Control_c, 0, 64, 71
1, 215291, Control_c, 0, 64, 70
1, 215313, Control_c, 0, 64, 69
1, 215318, Note_off_c, 0, 49, 62
1, 215328, Control_c, 0, 64, 66
1, 215343, Control_c, 0, 64, 62
1, 215357, Note_on_c, 0, 59, 55
1, 215357, Control_c, 0, 64, 58
1, 215372, Control_c, 0, 64, 51
1, 215387, Control_c, 0, 64, 39
1, 215389, Note_off_c, 0, 59, 65
1, 215402, Control_c, 0, 64, 0
1, 215431, Note_on_c, 0, 49, 53
1, 215483, Note_off_c, 0, 49, 63
1, 215496, Note_on_c, 0, 59, 47
1, 215531, Note_off_c, 0, 59, 57
1, 215600, Note_on_c, 0, 82, 64
1, 215603, Note_on_c, 0, 65, 63
1, 215642, Note_off_c, 0, 65, 60
1, 215666, Note_off_c, 0, 82, 49
1, 215693, Note_on_c, 0, 55, 51
1, 215729, Note_on_c, 0, 81, 62
1, 215730, Note_off_c, 0, 55, 64
1, 215750, Note_on_c, 0, 50, 55
1, 215757, Note_on_c, 0, 70, 38
1, 215786, Note_off_c, 0, 70, 58
1, 215792, Note_off_c, 0, 50, 60
1, 215794, Note_off_c, 0, 81, 59
1, 215833, Note_on_c, 0, 65, 45
1, 215856, Note_on_c, 0, 82, 62
1, 215858, Note_on_c, 0, 71, 55
1, 215864, Note_off_c, 0, 65, 56
1, 215892, Control_c, 0, 64, 31
1, 215893, Note_off_c, 0, 71, 53
1, 215900, Note_off_c, 0, 82, 54
1, 215907, Control_c, 0, 64, 39
1, 215908, Note_on_c, 0, 59, 54
1, 215922, Control_c, 0, 64, 0
1, 215930, Note_off_c, 0, 59, 63
1, 215951, Note_on_c, 0, 49, 46
1, 215955, Note_on_c, 0, 85, 67
1, 215979, Note_off_c, 0, 49, 56
1, 215985, Note_off_c, 0, 85, 64
1, 216069, Note_on_c, 0, 68, 70
1, 216075, Note_on_c, 0, 85, 74
1, 216091, Note_on_c, 0, 74, 46
1, 216092, Control_c, 0, 64, 48
1, 216107, Control_c, 0, 64, 48
1, 216109, Note_off_c, 0, 85, 62
1, 216119, Note_off_c, 0, 74, 52
1, 216122, Control_c, 0, 64, 31
1, 216130, Note_off_c, 0, 68, 64
1, 216136, Control_c, 0, 64, 0
1, 216139, Note_on_c, 0, 58, 51
1, 216164, Note_on_c, 0, 84, 67
1, 216166, Control_c, 0, 64, 30
1, 216188, Note_on_c, 0, 53, 59
1, 216189, Note_off_c, 0, 58, 64
1, 216195, Control_c, 0, 64, 0
1, 216206, Note_on_c, 0, 73, 51
1, 216230, Note_off_c, 0, 53, 63
1, 216236, Note_off_c, 0, 73, 55
1, 216237, Note_off_c, 0, 84, 63
1, 216252, Note_on_c, 0, 68, 75
1, 216268, Note_on_c, 0, 85, 74
1, 216287, Note_off_c, 0, 68, 65
1, 216313, Note_on_c, 0, 62, 60
1, 216335, Note_off_c, 0, 62, 64
1, 216343, Control_c, 0, 64, 47
1, 216351, Note_on_c, 0, 52, 70
1, 216358, Control_c, 0, 64, 0
1, 216358, Note_on_c, 0, 88, 79
1, 216366, Note_off_c, 0, 85, 37
1, 216370, Note_on_c, 0, 77, 47
1, 216382, Note_off_c, 0, 52, 67
1, 216394, Note_off_c, 0, 77, 59
1, 216409, Note_off_c, 0, 88, 65
1, 216462, Note_on_c, 0, 71, 75
1, 216471, Note_on_c, 0, 77, 67
1, 216476, Note_on_c, 0, 88, 77
1, 216496, Note_off_c, 0, 77, 68
1, 216516, Note_off_c, 0, 71, 64
1, 216519, Note_on_c, 0, 61, 57
1, 216533, Note_off_c, 0, 88, 58
1, 216551, Note_off_c, 0, 61, 64
1, 216564, Note_on_c, 0, 87, 75
1, 216566, Note_on_c, 0, 56, 57
1, 216581, Note_on_c, 0, 76, 68
1, 216607, Note_off_c, 0, 76, 66
1, 216629, Note_on_c, 0, 71, 78
1, 216629, Note_off_c, 0, 56, 55
1, 216662, Note_off_c, 0, 71, 67
1, 216668, Note_on_c, 0, 88, 78
1, 216668, Note_off_c, 0, 87, 61
1, 216686, Note_on_c, 0, 77, 54
1, 216692, Note_on_c, 0, 65, 72
1, 216711, Note_off_c, 0, 77, 58
1, 216717, Note_off_c, 0, 65, 69
1, 216725, Note_off_c, 0, 88, 62
1, 216736, Note_on_c, 0, 55, 52
1, 216736, Note_on_c, 0, 91, 79
1, 216757, Note_off_c, 0, 55, 60
1, 216787, Note_off_c, 0, 91, 63
1, 216841, Note_on_c, 0, 74, 82
1, 216846, Note_on_c, 0, 91, 73
1, 216847, Note_on_c, 0, 80, 56
1, 216859, Note_on_c, 0, 90, 24
1, 216859, Note_off_c, 0, 90, 127
1, 216885, Note_off_c, 0, 74, 64
1, 216901, Note_off_c, 0, 80, 63
1, 216910, Note_on_c, 0, 64, 59
1, 216926, Note_on_c, 0, 90, 76
1, 216929, Control_c, 0, 67, 113
1, 216940, Note_off_c, 0, 64, 65
1, 216944, Control_c, 0, 67, 89
1, 216946, Note_on_c, 0, 59, 62
1, 216946, Note_off_c, 0, 91, 55
1, 216958, Control_c, 0, 67, 67
1, 216973, Control_c, 0, 67, 46
1, 216975, Note_off_c, 0, 59, 66
1, 216988, Control_c, 0, 67, 29
1, 217002, Control_c, 0, 67, 0
1, 217014, Note_on_c, 0, 74, 72
1, 217026, Note_on_c, 0, 91, 66
1, 217035, Note_on_c, 0, 80, 53
1, 217047, Note_off_c, 0, 90, 64
1, 217055, Note_off_c, 0, 74, 61
1, 217077, Note_off_c, 0, 80, 49
1, 217080, Note_on_c, 0, 68, 74
1, 217083, Note_off_c, 0, 91, 46
1, 217094, Note_on_c, 0, 94, 87
1, 217104, Note_on_c, 0, 58, 51
1, 217105, Note_off_c, 0, 68, 68
1, 217120, Note_off_c, 0, 94, 66
1, 217128, Note_off_c, 0, 58, 59
1, 217211, Control_c, 0, 67, 20
1, 217213, Note_on_c, 0, 77, 70
1, 217236, Note_off_c, 0, 77, 70
1, 217280, Note_on_c, 0, 67, 58
1, 217300, Note_off_c, 0, 67, 64
1, 217306, Note_on_c, 0, 62, 62
1, 217315, Control_c, 0, 67, 0
1, 217336, Note_off_c, 0, 62, 65
1, 217339, Note_on_c, 0, 77, 62
1, 217345, Control_c, 0, 64, 32
1, 217359, Control_c, 0, 64, 56
1, 217368, Note_off_c, 0, 77, 67
1, 217374, Control_c, 0, 64, 67
1, 217377, Note_on_c, 0, 83, 63
1, 217382, Note_on_c, 0, 94, 82
1, 217389, Control_c, 0, 64, 73
1, 217389, Control_c, 0, 67, 19
1, 217395, Note_off_c, 0, 83, 64
1, 217400, Note_off_c, 0, 94, 72
1, 217404, Control_c, 0, 64, 73
1, 217419, Control_c, 0, 64, 63
1, 217419, Control_c, 0, 67, 21
1, 217433, Control_c, 0, 64, 47
1, 217448, Control_c, 0, 64, 0
1, 217448, Control_c, 0, 67, 23
1, 217493, Control_c, 0, 67, 26
1, 217559, Note_on_c, 0, 77, 66
1, 217592, Note_off_c, 0, 77, 66
1, 217604, Control_c, 0, 64, 31
1, 217604, Control_c, 0, 67, 23
1, 217610, Note_on_c, 0, 71, 63
1, 217619, Control_c, 0, 64, 46
1, 217630, Note_on_c, 0, 94, 65
1, 217633, Control_c, 0, 64, 56
1, 217633, Control_c, 0, 67, 20
1, 217636, Note_on_c, 0, 83, 66
1, 217637, Note_off_c, 0, 71, 66
1, 217643, Note_on_c, 0, 61, 61
1, 217648, Control_c, 0, 64, 63
1, 217663, Control_c, 0, 64, 68
1, 217664, Note_off_c, 0, 61, 59
1, 217677, Note_on_c, 0, 86, 81
1, 217678, Control_c, 0, 64, 73
1, 217680, Note_off_c, 0, 83, 63
1, 217681, Note_on_c, 0, 97, 91
1, 217687, Note_off_c, 0, 94, 67
1, 217693, Control_c, 0, 64, 81
1, 217693, Control_c, 0, 67, 0
1, 217696, Note_off_c, 0, 86, 72
1, 217702, Note_off_c, 0, 97, 70
1, 217707, Control_c, 0, 64, 92
1, 217722, Control_c, 0, 64, 107
1, 217737, Control_c, 0, 64, 105
1, 217737, Control_c, 0, 67, 20
1, 217751, Control_c, 0, 64, 92
1, 217751, Control_c, 0, 67, 23
1, 217766, Control_c, 0, 64, 76
1, 217766, Control_c, 0, 67, 26
1, 217781, Control_c, 0, 64, 63
1, 217796, Control_c, 0, 64, 47
1, 217804, Note_on_c, 0, 74, 66
1, 217811, Control_c, 0, 64, 0
1, 217866, Note_on_c, 0, 71, 51
1, 217872, Note_off_c, 0, 74, 63
1, 217885, Control_c, 0, 67, 24
1, 217891, Note_off_c, 0, 71, 64
1, 217909, Note_on_c, 0, 65, 39
1, 217914, Control_c, 0, 64, 44
1, 217914, Control_c, 0, 67, 21
1, 217917, Note_on_c, 0, 77, 68
1, 217929, Control_c, 0, 64, 52
1, 217942, Note_off_c, 0, 65, 54
1, 217944, Control_c, 0, 64, 57
1, 217959, Control_c, 0, 64, 61
1, 217961, Note_off_c, 0, 77, 64
1, 217962, Note_on_c, 0, 83, 66
1, 217974, Note_on_c, 0, 94, 81
1, 217974, Control_c, 0, 64, 64
1, 217978, Note_on_c, 0, 55, 57
1, 217987, Note_off_c, 0, 83, 69
1, 217989, Control_c, 0, 64, 65
1, 217994, Note_off_c, 0, 94, 72
1, 217999, Note_off_c, 0, 55, 60
1, 218004, Control_c, 0, 64, 66
1, 218034, Control_c, 0, 64, 64
1, 218034, Control_c, 0, 67, 24
1, 218048, Control_c, 0, 64, 61
1, 218048, Control_c, 0, 67, 26
1, 218063, Control_c, 0, 64, 56
1, 218069, Poly_aftertouch_c, 0, 53, 0
1, 218078, Control_c, 0, 64, 47
1, 218078, Control_c, 0, 67, 30
1, 218093, Control_c, 0, 64, 32
1, 218093, Control_c, 0, 67, 36
1, 218108, Control_c, 0, 64, 0
1, 218108, Control_c, 0, 67, 42
1, 218123, Control_c, 0, 67, 46
1, 218137, Control_c, 0, 67, 49
1, 218152, Control_c, 0, 67, 51
1, 218163, Note_on_c, 0, 74, 65
1, 218167, Control_c, 0, 67, 55
1, 218182, Control_c, 0, 67, 60
1, 218192, Note_off_c, 0, 74, 67
1, 218197, Control_c, 0, 67, 64
1, 218212, Control_c, 0, 67, 66
1, 218223, Note_on_c, 0, 71, 60
1, 218227, Control_c, 0, 64, 39
1, 218227, Control_c, 0, 67, 67
1, 218242, Control_c, 0, 64, 49
1, 218243, Note_off_c, 0, 71, 66
1, 218254, Poly_aftertouch_c, 0, 87, 0
1, 218256, Note_on_c, 0, 65, 54
1, 218256, Control_c, 0, 64, 56
1, 218271, Control_c, 0, 64, 60
1, 218280, Note_off_c, 0, 65, 58
1, 218286, Control_c, 0, 64, 62
1, 218304, Note_on_c, 0, 94, 54
1, 218308, Control_c, 0, 64, 62
1, 218316, Note_on_c, 0, 83, 45
1, 218323, Control_c, 0, 64, 63
1, 218337, Control_c, 0, 64, 64
1, 218337, Control_c, 0, 67, 67
1, 218350, Note_off_c, 0, 83, 54
1, 218352, Control_c, 0, 64, 65
1, 218355, Note_off_c, 0, 94, 63
1, 218358, Note_on_c, 0, 97, 67
1, 218367, Control_c, 0, 64, 66
1, 218370, Note_on_c, 0, 86, 42
1, 218380, Note_on_c, 0, 59, 40
1, 218382, Control_c, 0, 64, 66
1, 218388, Note_off_c, 0, 97, 66
1, 218396, Note_off_c, 0, 86, 50
1, 218397, Control_c, 0, 64, 67
1, 218427, Control_c, 0, 64, 67
1, 218436, Note_off_c, 0, 59, 60
1, 218439, Note_on_c, 0, 49, 53
1, 218442, Control_c, 0, 64, 68
1, 218456, Control_c, 0, 64, 68
1, 218465, Note_off_c, 0, 49, 60
1, 218471, Control_c, 0, 64, 69
1, 218516, Control_c, 0, 64, 69
1, 218529, Control_c, 0, 64, 70
1, 218544, Control_c, 0, 64, 71
1, 218559, Control_c, 0, 64, 72
1, 218573, Control_c, 0, 64, 73
1, 218573, Control_c, 0, 67, 68
1, 218588, Control_c, 0, 64, 73
1, 218603, Control_c, 0, 64, 74
1, 218618, Control_c, 0, 64, 76
1, 218633, Control_c, 0, 64, 78
1, 218647, Control_c, 0, 64, 80
1, 218662, Control_c, 0, 64, 81
1, 218677, Control_c, 0, 64, 82
1, 218687, Note_on_c, 0, 74, 67
1, 218692, Control_c, 0, 64, 84
1, 218707, Control_c, 0, 64, 86
1, 218722, Control_c, 0, 64, 88
1, 218737, Note_off_c, 0, 74, 63
1, 218737, Control_c, 0, 64, 90
1, 218766, Note_on_c, 0, 71, 61
1, 218767, Control_c, 0, 67, 67
1, 218782, Control_c, 0, 67, 67
1, 218789, Note_off_c, 0, 71, 66
1, 218796, Note_on_c, 0, 65, 59
1, 218796, Control_c, 0, 64, 90
1, 218817, Note_on_c, 0, 94, 56
1, 218818, Note_off_c, 0, 65, 62
1, 218829, Note_on_c, 0, 83, 54
1, 218856, Control_c, 0, 67, 66
1, 218874, Note_off_c, 0, 83, 54
1, 218886, Note_on_c, 0, 97, 61
1, 218886, Note_off_c, 0, 94, 64
1, 218904, Note_on_c, 0, 86, 30
1, 218915, Note_off_c, 0, 97, 67
1, 218930, Note_on_c, 0, 59, 44
1, 218937, Note_off_c, 0, 86, 43
1, 219007, Note_off_c, 0, 59, 39
1, 219019, Control_c, 0, 64, 90
1, 219022, Note_on_c, 0, 49, 42
1, 219062, Note_off_c, 0, 49, 54
1, 219070, Control_c, 0, 67, 66
1, 219115, Control_c, 0, 64, 89
1, 219219, Control_c, 0, 64, 89
1, 219382, Control_c, 0, 64, 89
1, 219456, Control_c, 0, 64, 86
1, 219470, Control_c, 0, 64, 73
1, 219485, Control_c, 0, 64, 59
1, 219500, Control_c, 0, 64, 33
1, 219515, Control_c, 0, 64, 0
1, 219559, Control_c, 0, 64, 37
1, 219566, Note_on_c, 0, 74, 48
1, 219575, Control_c, 0, 64, 54
1, 219590, Control_c, 0, 64, 63
1, 219605, Control_c, 0, 64, 68
1, 219605, Control_c, 0, 67, 65
1, 219619, Control_c, 0, 64, 70
1, 219634, Note_off_c, 0, 74, 64
1, 219634, Control_c, 0, 64, 72
1, 219634, Control_c, 0, 67, 64
1, 219649, Control_c, 0, 64, 75
1, 219649, Control_c, 0, 67, 63
1, 219664, Control_c, 0, 64, 79
1, 219664, Control_c, 0, 67, 62
1, 219669, Note_on_c, 0, 71, 48
1, 219679, Control_c, 0, 64, 84
1, 219679, Control_c, 0, 67, 61
1, 219694, Control_c, 0, 64, 90
1, 219694, Control_c, 0, 67, 60
1, 219708, Control_c, 0, 64, 97
1, 219708, Control_c, 0, 67, 59
1, 219711, Note_off_c, 0, 71, 65
1, 219723, Control_c, 0, 64, 103
1, 219723, Control_c, 0, 67, 59
1, 219738, Note_on_c, 0, 65, 47
1, 219738, Control_c, 0, 64, 110
1, 219738, Control_c, 0, 67, 58
1, 219753, Control_c, 0, 64, 122
1, 219753, Control_c, 0, 67, 58
1, 219765, Note_off_c, 0, 65, 55
1, 219768, Control_c, 0, 64, 127
1, 219768, Control_c, 0, 67, 57
1, 219776, Note_on_c, 0, 94, 61
1, 219783, Control_c, 0, 67, 56
1, 219788, Note_on_c, 0, 83, 53
1, 219805, Control_c, 0, 67, 56
1, 219819, Control_c, 0, 67, 55
1, 219834, Note_off_c, 0, 83, 60
1, 219834, Control_c, 0, 67, 55
1, 219849, Control_c, 0, 67, 54
1, 219857, Note_off_c, 0, 94, 64
1, 219857, Note_on_c, 0, 97, 71
1, 219879, Control_c, 0, 67, 53
1, 219884, Note_on_c, 0, 86, 24
1, 219886, Note_off_c, 0, 97, 67
1, 219923, Control_c, 0, 67, 53
1, 219924, Note_off_c, 0, 86, 42
1, 219946, Note_on_c, 0, 59, 35
1, 219968, Control_c, 0, 67, 52
1, 219998, Control_c, 0, 67, 52
1, 220012, Control_c, 0, 67, 51
1, 220027, Control_c, 0, 67, 51
1, 220042, Control_c, 0, 67, 50
1, 220072, Control_c, 0, 67, 50
1, 220087, Control_c, 0, 67, 47
1, 220102, Control_c, 0, 67, 38
1, 220117, Control_c, 0, 67, 29
1, 220132, Control_c, 0, 67, 22
1, 220142, Note_on_c, 0, 49, 39
1, 220146, Control_c, 0, 67, 0
1, 220196, Note_off_c, 0, 49, 59
1, 220197, Note_off_c, 0, 59, 34
1, 220644, Control_c, 0, 64, 93
1, 220658, Control_c, 0, 64, 55
1, 220673, Control_c, 0, 64, 0
1, 220897, Note_on_c, 0, 70, 101
1, 220900, Note_on_c, 0, 59, 94
1, 220925, Control_c, 0, 64, 64
1, 220940, Control_c, 0, 64, 82
1, 220955, Control_c, 0, 64, 127
1, 220971, Note_off_c, 0, 59, 63
1, 220983, Note_off_c, 0, 70, 64
1, 221366, Note_on_c, 0, 25, 102
1, 221370, Note_on_c, 0, 37, 94
1, 221408, Note_off_c, 0, 25, 65
1, 221409, Note_off_c, 0, 37, 63
1, 221803, Note_on_c, 0, 73, 99
1, 221807, Note_on_c, 0, 62, 98
1, 221810, Note_on_c, 0, 59, 90
1, 221813, Note_on_c, 0, 53, 85
1, 221843, Note_off_c, 0, 53, 65
1, 221845, Note_off_c, 0, 59, 68
1, 221881, Note_off_c, 0, 62, 61
1, 221912, Note_off_c, 0, 73, 63
1, 222586, Control_c, 0, 67, 20
1, 222645, Control_c, 0, 67, 22
1, 222689, Control_c, 0, 67, 25
1, 222719, Control_c, 0, 67, 27
1, 222802, Control_c, 0, 67, 29
1, 223306, Poly_aftertouch_c, 0, 73, 127
1, 223438, Control_c, 0, 67, 31
1, 224186, Poly_aftertouch_c, 0, 73, 0
1, 224374, Control_c, 0, 67, 32
1, 224507, Control_c, 0, 67, 32
1, 224536, Control_c, 0, 67, 33
1, 224596, Control_c, 0, 67, 37
1, 224610, Control_c, 0, 67, 44
1, 224625, Control_c, 0, 67, 49
1, 224640, Control_c, 0, 67, 51
1, 224655, Control_c, 0, 67, 54
1, 224670, Control_c, 0, 67, 56
1, 224684, Control_c, 0, 67, 57
1, 224699, Control_c, 0, 67, 58
1, 224714, Control_c, 0, 67, 58
1, 224773, Control_c, 0, 67, 59
1, 224788, Control_c, 0, 67, 59
1, 224833, Control_c, 0, 67, 60
1, 224847, Control_c, 0, 67, 62
1, 224862, Control_c, 0, 64, 105
1, 224862, Control_c, 0, 67, 67
1, 224877, Control_c, 0, 64, 91
1, 224877, Control_c, 0, 67, 70
1, 224892, Control_c, 0, 64, 82
1, 224892, Control_c, 0, 67, 72
1, 224907, Control_c, 0, 64, 75
1, 224922, Control_c, 0, 64, 71
1, 224936, Control_c, 0, 64, 67
1, 224936, Control_c, 0, 67, 72
1, 224951, Control_c, 0, 64, 63
1, 224966, Control_c, 0, 64, 59
1, 224966, Control_c, 0, 67, 73
1, 224981, Control_c, 0, 64, 56
1, 224996, Control_c, 0, 64, 53
1, 225010, Control_c, 0, 64, 52
1, 225025, Control_c, 0, 64, 51
1, 225047, Control_c, 0, 64, 50
1, 225062, Control_c, 0, 64, 48
1, 225062, Control_c, 0, 67, 73
1, 225077, Control_c, 0, 64, 46
1, 225077, Control_c, 0, 67, 74
1, 225092, Control_c, 0, 64, 45
1, 225107, Control_c, 0, 64, 44
1, 225122, Control_c, 0, 64, 43
1, 225137, Control_c, 0, 64, 41
1, 225151, Control_c, 0, 64, 37
1, 225166, Control_c, 0, 64, 34
1, 225181, Control_c, 0, 64, 33
1, 225196, Control_c, 0, 64, 31
1, 225226, Control_c, 0, 64, 0
1, 225567, Control_c, 0, 67, 73
1, 225597, Control_c, 0, 67, 73
1, 225656, Control_c, 0, 67, 72
1, 225671, Control_c, 0, 67, 72
1, 225700, Control_c, 0, 67, 71
1, 225715, Control_c, 0, 67, 70
1, 225730, Control_c, 0, 67, 69
1, 225745, Control_c, 0, 67, 68
1, 225760, Control_c, 0, 67, 67
1, 225775, Control_c, 0, 67, 66
1, 225797, Control_c, 0, 67, 66
1, 225812, Control_c, 0, 67, 65
1, 225827, Control_c, 0, 67, 64
1, 225841, Control_c, 0, 67, 63
1, 225856, Control_c, 0, 67, 62
1, 225871, Control_c, 0, 67, 61
1, 225886, Control_c, 0, 67, 60
1, 225976, Control_c, 0, 67, 61
1, 226050, Control_c, 0, 67, 59
1, 226064, Control_c, 0, 67, 57
1, 226079, Control_c, 0, 67, 54
1, 226094, Control_c, 0, 67, 48
1, 226109, Control_c, 0, 67, 41
1, 226123, Control_c, 0, 67, 32
1, 226138, Control_c, 0, 67, 24
1, 226153, Control_c, 0, 67, 0
1, 226257, Control_c, 0, 67, 22
1, 226272, Control_c, 0, 67, 27
1, 226287, Control_c, 0, 67, 34
1, 226302, Control_c, 0, 64, 38
1, 226302, Control_c, 0, 67, 46
1, 226316, Control_c, 0, 64, 49
1, 226316, Control_c, 0, 67, 68
1, 226331, Control_c, 0, 64, 53
1, 226331, Control_c, 0, 67, 89
1, 226346, Control_c, 0, 64, 53
1, 226346, Control_c, 0, 67, 110
1, 226353, Note_on_c, 0, 76, 51
1, 226361, Control_c, 0, 67, 127
1, 226375, Note_on_c, 0, 55, 32
1, 226376, Control_c, 0, 64, 54
1, 226390, Control_c, 0, 64, 56
1, 226405, Control_c, 0, 64, 58
1, 226420, Control_c, 0, 64, 59
1, 226425, Poly_aftertouch_c, 0, 69, 127
1, 226434, Control_c, 0, 64, 60
1, 226449, Control_c, 0, 64, 61
1, 226452, Note_off_c, 0, 55, 54
1, 226464, Control_c, 0, 64, 62
1, 226466, Note_on_c, 0, 65, 45
1, 226479, Control_c, 0, 64, 63
1, 226492, Note_off_c, 0, 65, 61
1, 226492, Poly_aftertouch_c, 0, 69, 0
1, 226494, Control_c, 0, 64, 63
1, 226508, Control_c, 0, 64, 63
1, 226509, Note_off_c, 0, 76, 18
1, 226523, Control_c, 0, 64, 61
1, 226546, Control_c, 0, 64, 59
1, 226561, Control_c, 0, 64, 55
1, 226572, Note_on_c, 0, 64, 48
1, 226576, Control_c, 0, 64, 51
1, 226589, Note_on_c, 0, 71, 37
1, 226590, Control_c, 0, 64, 44
1, 226605, Control_c, 0, 64, 37
1, 226609, Note_off_c, 0, 64, 63
1, 226620, Control_c, 0, 64, 0
1, 226630, Note_off_c, 0, 71, 62
1, 226670, Note_on_c, 0, 76, 48
1, 226694, Note_off_c, 0, 76, 51
1, 226773, Note_on_c, 0, 65, 19
1, 226798, Control_c, 0, 64, 52
1, 226801, Note_on_c, 0, 70, 53
1, 226803, Note_on_c, 0, 77, 58
1, 226808, Note_off_c, 0, 65, 57
1, 226812, Control_c, 0, 64, 62
1, 226821, Note_on_c, 0, 59, 44
1, 226821, Note_off_c, 0, 70, 62
1, 226827, Control_c, 0, 64, 59
1, 226842, Control_c, 0, 64, 46
1, 226848, Note_off_c, 0, 59, 63
1, 226857, Control_c, 0, 64, 0
1, 226863, Note_on_c, 0, 49, 55
1, 226871, Note_off_c, 0, 77, 61
1, 226889, Note_off_c, 0, 49, 60
1, 226900, Note_on_c, 0, 82, 53
1, 226938, Note_off_c, 0, 82, 45
1, 226976, Note_on_c, 0, 77, 59
1, 226986, Poly_aftertouch_c, 0, 75, 0
1, 226988, Note_on_c, 0, 70, 47
1, 226994, Note_off_c, 0, 77, 65
1, 227011, Note_off_c, 0, 70, 57
1, 227101, Note_on_c, 0, 43, 46
1, 227101, Note_on_c, 0, 76, 61
1, 227124, Control_c, 0, 64, 42
1, 227137, Note_on_c, 0, 53, 54
1, 227138, Control_c, 0, 64, 52
1, 227149, Note_off_c, 0, 43, 61
1, 227149, Note_off_c, 0, 76, 43
1, 227153, Control_c, 0, 64, 0
1, 227167, Note_off_c, 0, 53, 64
1, 227211, Note_on_c, 0, 71, 54
1, 227216, Note_on_c, 0, 64, 37
1, 227242, Note_off_c, 0, 64, 58
1, 227247, Note_off_c, 0, 71, 65
1, 227293, Note_on_c, 0, 69, 44
1, 227304, Note_on_c, 0, 76, 54
1, 227319, Note_off_c, 0, 69, 55
1, 227323, Note_off_c, 0, 76, 62
1, 227395, Note_on_c, 0, 65, 53
1, 227412, Control_c, 0, 64, 35
1, 227414, Note_on_c, 0, 77, 64
1, 227423, Note_on_c, 0, 70, 51
1, 227426, Note_off_c, 0, 65, 59
1, 227427, Control_c, 0, 64, 61
1, 227442, Control_c, 0, 64, 64
1, 227445, Note_off_c, 0, 70, 59
1, 227450, Note_on_c, 0, 59, 50
1, 227456, Control_c, 0, 64, 61
1, 227471, Control_c, 0, 64, 53
1, 227473, Note_off_c, 0, 59, 61
1, 227475, Note_on_c, 0, 49, 54
1, 227485, Note_off_c, 0, 77, 61
1, 227486, Control_c, 0, 64, 43
1, 227499, Note_on_c, 0, 82, 70
1, 227502, Note_off_c, 0, 49, 59
1, 227517, Control_c, 0, 64, 45
1, 227532, Control_c, 0, 64, 46
1, 227540, Note_on_c, 0, 75, 26
1, 227546, Control_c, 0, 64, 44
1, 227554, Note_off_c, 0, 82, 58
1, 227562, Control_c, 0, 64, 41
1, 227572, Note_on_c, 0, 77, 55
1, 227572, Note_off_c, 0, 75, 44
1, 227577, Control_c, 0, 64, 35
1, 227589, Note_on_c, 0, 70, 46
1, 227591, Note_off_c, 0, 77, 63
1, 227592, Control_c, 0, 64, 0
1, 227612, Note_off_c, 0, 70, 59
1, 227652, Note_on_c, 0, 55, 55
1, 227688, Note_on_c, 0, 69, 60
1, 227688, Note_on_c, 0, 76, 72
1, 227696, Note_off_c, 0, 55, 64
1, 227720, Note_off_c, 0, 76, 58
1, 227721, Note_off_c, 0, 69, 62
1, 227725, Control_c, 0, 64, 48
1, 227740, Control_c, 0, 64, 62
1, 227740, Control_c, 0, 67, 121
1, 227743, Note_on_c, 0, 65, 54
1, 227755, Control_c, 0, 67, 118
1, 227766, Note_off_c, 0, 65, 60
1, 227769, Control_c, 0, 64, 58
1, 227778, Note_on_c, 0, 64, 49
1, 227778, Note_on_c, 0, 71, 65
1, 227784, Control_c, 0, 64, 45
1, 227799, Control_c, 0, 64, 33
1, 227800, Note_off_c, 0, 64, 59
1, 227814, Control_c, 0, 64, 0
1, 227814, Control_c, 0, 67, 120
1, 227819, Note_off_c, 0, 71, 60
1, 227858, Control_c, 0, 67, 122
1, 227861, Note_on_c, 0, 69, 43
1, 227865, Note_on_c, 0, 76, 67
1, 227888, Note_off_c, 0, 69, 51
1, 227889, Note_off_c, 0, 76, 68
1, 227931, Note_on_c, 0, 65, 46
1, 227971, Note_on_c, 0, 77, 66
1, 227973, Note_on_c, 0, 70, 53
1, 227977, Note_off_c, 0, 65, 62
1, 227992, Control_c, 0, 64, 43
1, 227995, Note_off_c, 0, 70, 60
1, 227998, Note_on_c, 0, 59, 55
1, 228007, Control_c, 0, 64, 62
1, 228022, Control_c, 0, 64, 60
1, 228035, Note_off_c, 0, 59, 65
1, 228043, Control_c, 0, 64, 54
1, 228049, Note_off_c, 0, 77, 61
1, 228058, Note_on_c, 0, 82, 75
1, 228058, Control_c, 0, 64, 42
1, 228073, Control_c, 0, 64, 0
1, 228115, Note_off_c, 0, 82, 58
1, 228131, Note_on_c, 0, 77, 59
1, 228133, Note_on_c, 0, 70, 57
1, 228150, Poly_aftertouch_c, 0, 75, 0
1, 228150, Note_off_c, 0, 77, 65
1, 228161, Note_off_c, 0, 70, 66
1, 228223, Note_on_c, 0, 45, 57
1, 228232, Note_on_c, 0, 78, 71
1, 228251, Control_c, 0, 64, 45
1, 228264, Note_off_c, 0, 45, 63
1, 228266, Note_on_c, 0, 71, 22
1, 228266, Control_c, 0, 64, 64
1, 228271, Note_on_c, 0, 55, 58
1, 228280, Control_c, 0, 64, 67
1, 228299, Note_off_c, 0, 55, 65
1, 228302, Note_off_c, 0, 71, 43
1, 228305, Note_off_c, 0, 78, 59
1, 228310, Control_c, 0, 64, 66
1, 228311, Note_on_c, 0, 61, 57
1, 228325, Control_c, 0, 64, 65
1, 228326, Note_on_c, 0, 73, 67
1, 228335, Note_on_c, 0, 66, 50
1, 228336, Note_off_c, 0, 61, 57
1, 228340, Control_c, 0, 64, 62
1, 228356, Control_c, 0, 64, 56
1, 228358, Note_off_c, 0, 66, 61
1, 228371, Control_c, 0, 64, 50
1, 228385, Control_c, 0, 64, 44
1, 228391, Note_off_c, 0, 73, 60
1, 228399, Note_on_c, 0, 78, 81
1, 228400, Control_c, 0, 64, 34
1, 228415, Control_c, 0, 64, 0
1, 228418, Note_on_c, 0, 71, 19
1, 228420, Note_off_c, 0, 78, 70
1, 228458, Note_off_c, 0, 71, 29
1, 228489, Control_c, 0, 67, 119
1, 228490, Note_on_c, 0, 55, 61
1, 228503, Note_on_c, 0, 79, 66
1, 228503, Control_c, 0, 67, 117
1, 228514, Note_on_c, 0, 72, 59
1, 228518, Note_off_c, 0, 55, 65
1, 228518, Control_c, 0, 64, 39
1, 228518, Control_c, 0, 67, 114
1, 228533, Control_c, 0, 64, 62
1, 228533, Control_c, 0, 67, 107
1, 228535, Note_off_c, 0, 72, 65
1, 228548, Note_on_c, 0, 49, 61
1, 228548, Control_c, 0, 64, 64
1, 228548, Control_c, 0, 67, 99
1, 228563, Control_c, 0, 64, 60
1, 228563, Control_c, 0, 67, 94
1, 228565, Note_off_c, 0, 79, 65
1, 228577, Note_off_c, 0, 49, 65
1, 228578, Note_on_c, 0, 84, 80
1, 228578, Control_c, 0, 64, 43
1, 228578, Control_c, 0, 67, 94
1, 228579, Note_on_c, 0, 39, 46
1, 228580, Note_on_c, 0, 77, 30
1, 228592, Control_c, 0, 64, 0
1, 228608, Note_off_c, 0, 77, 56
1, 228610, Note_off_c, 0, 39, 47
1, 228625, Note_off_c, 0, 84, 61
1, 228642, Note_on_c, 0, 79, 63
1, 228651, Control_c, 0, 67, 93
1, 228657, Note_on_c, 0, 72, 56
1, 228666, Control_c, 0, 67, 92
1, 228667, Note_off_c, 0, 79, 68
1, 228680, Note_off_c, 0, 72, 65
1, 228681, Control_c, 0, 67, 92
1, 228711, Control_c, 0, 67, 91
1, 228723, Note_on_c, 0, 47, 52
1, 228726, Control_c, 0, 67, 90
1, 228741, Control_c, 0, 67, 87
1, 228752, Note_on_c, 0, 80, 75
1, 228755, Control_c, 0, 67, 81
1, 228764, Note_on_c, 0, 57, 57
1, 228770, Control_c, 0, 67, 79
1, 228772, Note_off_c, 0, 47, 62
1, 228788, Note_off_c, 0, 80, 67
1, 228789, Note_on_c, 0, 73, 21
1, 228792, Control_c, 0, 67, 79
1, 228804, Note_off_c, 0, 57, 65
1, 228807, Control_c, 0, 64, 40
1, 228822, Control_c, 0, 64, 53
1, 228823, Note_on_c, 0, 63, 58
1, 228824, Note_off_c, 0, 73, 44
1, 228835, Note_on_c, 0, 75, 65
1, 228836, Control_c, 0, 64, 58
1, 228836, Control_c, 0, 67, 80
1, 228844, Note_off_c, 0, 63, 61
1, 228851, Control_c, 0, 64, 62
1, 228851, Control_c, 0, 67, 81
1, 228866, Control_c, 0, 64, 65
1, 228866, Control_c, 0, 67, 82
1, 228872, Note_off_c, 0, 75, 64
1, 228881, Control_c, 0, 64, 67
1, 228893, Note_on_c, 0, 80, 74
1, 228896, Control_c, 0, 64, 68
1, 228912, Note_off_c, 0, 80, 71
1, 228925, Control_c, 0, 64, 68
1, 228925, Control_c, 0, 67, 82
1, 228940, Control_c, 0, 64, 67
1, 228940, Control_c, 0, 67, 81
1, 228955, Control_c, 0, 64, 67
1, 228955, Control_c, 0, 67, 80
1, 228970, Control_c, 0, 64, 66
1, 228970, Control_c, 0, 67, 79
1, 228985, Control_c, 0, 67, 79
1, 228995, Note_on_c, 0, 57, 59
1, 229015, Control_c, 0, 67, 78
1, 229025, Note_on_c, 0, 87, 92
1, 229030, Control_c, 0, 67, 77
1, 229033, Note_off_c, 0, 57, 64
1, 229044, Control_c, 0, 67, 75
1, 229049, Note_on_c, 0, 80, 58
1, 229057, Note_on_c, 0, 73, 50
1, 229058, Note_on_c, 0, 51, 53
1, 229059, Control_c, 0, 67, 71
1, 229068, Note_off_c, 0, 80, 61
1, 229074, Control_c, 0, 67, 66
1, 229083, Note_on_c, 0, 41, 54
1, 229083, Note_off_c, 0, 73, 58
1, 229086, Note_off_c, 0, 51, 64
1, 229089, Control_c, 0, 67, 62
1, 229104, Control_c, 0, 67, 58
1, 229107, Note_off_c, 0, 41, 54
1, 229107, Note_off_c, 0, 87, 65
1, 229118, Control_c, 0, 64, 67
1, 229118, Control_c, 0, 67, 55
1, 229133, Control_c, 0, 64, 68
1, 229133, Control_c, 0, 67, 53
1, 229148, Control_c, 0, 64, 71
1, 229148, Control_c, 0, 67, 51
1, 229164, Control_c, 0, 64, 74
1, 229179, Control_c, 0, 64, 77
1, 229179, Control_c, 0, 67, 50
1, 229194, Control_c, 0, 64, 79
1, 229194, Control_c, 0, 67, 50
1, 229208, Control_c, 0, 64, 79
1, 229208, Control_c, 0, 67, 47
1, 229223, Control_c, 0, 67, 40
1, 229238, Control_c, 0, 67, 32
1, 229240, Note_on_c, 0, 47, 44
1, 229252, Control_c, 0, 67, 23
1, 229267, Control_c, 0, 64, 80
1, 229267, Control_c, 0, 67, 0
1, 229282, Control_c, 0, 64, 82
1, 229286, Note_on_c, 0, 57, 61
1, 229292, Note_off_c, 0, 47, 65
1, 229297, Control_c, 0, 64, 84
1, 229312, Control_c, 0, 64, 85
1, 229315, Note_off_c, 0, 57, 66
1, 229327, Control_c, 0, 64, 85
1, 229327, Note_on_c, 0, 63, 72
1, 229351, Note_off_c, 0, 63, 69
1, 229371, Control_c, 0, 64, 86
1, 229492, Note_on_c, 0, 87, 75
1, 229503, Note_on_c, 0, 69, 56
1, 229510, Note_on_c, 0, 80, 53
1, 229519, Note_off_c, 0, 87, 67
1, 229522, Note_on_c, 0, 73, 34
1, 229539, Note_off_c, 0, 80, 61
1, 229541, Note_off_c, 0, 69, 65
1, 229561, Note_on_c, 0, 63, 60
1, 229563, Note_off_c, 0, 73, 48
1, 229571, Control_c, 0, 64, 86
1, 229586, Control_c, 0, 64, 87
1, 229601, Control_c, 0, 64, 87
1, 229607, Note_off_c, 0, 63, 61
1, 229614, Note_on_c, 0, 53, 43
1, 229615, Control_c, 0, 64, 88
1, 229645, Control_c, 0, 64, 87
1, 229659, Control_c, 0, 64, 84
1, 229674, Control_c, 0, 64, 76
1, 229689, Control_c, 0, 64, 63
1, 229704, Control_c, 0, 64, 47
1, 229718, Note_on_c, 0, 59, 55
1, 229718, Note_on_c, 0, 80, 61
1, 229719, Control_c, 0, 64, 0
1, 229723, Note_on_c, 0, 73, 47
1, 229742, Note_off_c, 0, 53, 22
1, 229751, Note_off_c, 0, 80, 64
1, 229756, Note_off_c, 0, 73, 61
1, 229776, Note_on_c, 0, 68, 46
1, 229778, Control_c, 0, 64, 41
1, 229779, Note_on_c, 0, 75, 70
1, 229793, Control_c, 0, 64, 54
1, 229799, Note_off_c, 0, 68, 60
1, 229802, Note_off_c, 0, 59, 62
1, 229805, Note_on_c, 0, 69, 31
1, 229808, Control_c, 0, 64, 61
1, 229823, Control_c, 0, 64, 64
1, 229825, Note_off_c, 0, 75, 65
1, 229835, Note_on_c, 0, 80, 74
1, 229838, Control_c, 0, 64, 65
1, 229838, Note_off_c, 0, 69, 32
1, 229852, Control_c, 0, 64, 66
1, 229855, Note_off_c, 0, 80, 70
1, 229867, Control_c, 0, 64, 67
1, 229882, Control_c, 0, 64, 69
1, 229897, Control_c, 0, 64, 70
1, 229912, Control_c, 0, 64, 71
1, 229927, Control_c, 0, 64, 72
1, 229941, Control_c, 0, 64, 73
1, 229957, Control_c, 0, 64, 73
1, 229964, Note_on_c, 0, 87, 85
1, 229965, Note_on_c, 0, 69, 39
1, 229972, Control_c, 0, 64, 74
1, 229981, Note_on_c, 0, 80, 52
1, 229984, Note_on_c, 0, 73, 55
1, 229995, Note_off_c, 0, 69, 57
1, 230001, Control_c, 0, 64, 75
1, 230003, Note_on_c, 0, 63, 62
1, 230004, Note_off_c, 0, 80, 60
1, 230006, Note_off_c, 0, 73, 61
1, 230007, Note_off_c, 0, 87, 62
1, 230016, Control_c, 0, 64, 75
1, 230031, Control_c, 0, 64, 77
1, 230037, Note_off_c, 0, 63, 65
1, 230046, Control_c, 0, 64, 79
1, 230052, Note_on_c, 0, 53, 59
1, 230061, Control_c, 0, 64, 82
1, 230075, Control_c, 0, 64, 88
1, 230084, Note_off_c, 0, 53, 64
1, 230090, Control_c, 0, 64, 93
1, 230105, Control_c, 0, 64, 100
1, 230120, Control_c, 0, 64, 111
1, 230135, Control_c, 0, 64, 127
1, 230202, Note_on_c, 0, 59, 53
1, 230237, Note_off_c, 0, 59, 63
1, 230267, Note_on_c, 0, 69, 68
1, 230300, Note_off_c, 0, 69, 68
1, 230436, Poly_aftertouch_c, 0, 65, 127
1, 230478, Note_on_c, 0, 87, 72
1, 230481, Poly_aftertouch_c, 0, 65, 0
1, 230489, Note_on_c, 0, 80, 45
1, 230502, Note_on_c, 0, 73, 36
1, 230506, Note_off_c, 0, 87, 68
1, 230517, Note_off_c, 0, 80, 56
1, 230536, Note_off_c, 0, 73, 53
1, 230541, Note_on_c, 0, 71, 46
1, 230601, Note_off_c, 0, 71, 40
1, 230616, Control_c, 0, 64, 122
1, 230631, Control_c, 0, 64, 94
1, 230646, Control_c, 0, 64, 78
1, 230661, Control_c, 0, 64, 63
1, 230676, Control_c, 0, 64, 41
1, 230690, Control_c, 0, 64, 0
1, 230700, Note_on_c, 0, 63, 40
1, 230723, Note_on_c, 0, 84, 60
1, 230747, Note_on_c, 0, 77, 23
1, 230750, Control_c, 0, 67, 19
1, 230766, Control_c, 0, 64, 48
1, 230774, Note_off_c, 0, 84, 57
1, 230776, Note_off_c, 0, 63, 60
1, 230780, Control_c, 0, 64, 62
1, 230780, Control_c, 0, 67, 23
1, 230785, Note_off_c, 0, 77, 44
1, 230795, Control_c, 0, 64, 63
1, 230796, Note_on_c, 0, 79, 68
1, 230800, Note_on_c, 0, 72, 40
1, 230810, Control_c, 0, 64, 62
1, 230810, Control_c, 0, 67, 27
1, 230825, Control_c, 0, 64, 60
1, 230825, Control_c, 0, 67, 29
1, 230827, Note_off_c, 0, 72, 57
1, 230837, Note_off_c, 0, 79, 57
1, 230839, Control_c, 0, 64, 58
1, 230854, Control_c, 0, 64, 57
1, 230869, Note_on_c, 0, 77, 48
1, 230869, Control_c, 0, 64, 56
1, 230884, Note_on_c, 0, 84, 55
1, 230884, Control_c, 0, 64, 51
1, 230896, Note_off_c, 0, 77, 59
1, 230899, Control_c, 0, 64, 42
1, 230899, Control_c, 0, 67, 31
1, 230905, Note_off_c, 0, 84, 59
1, 230914, Control_c, 0, 64, 0
1, 230914, Control_c, 0, 67, 32
1, 230929, Control_c, 0, 67, 35
1, 230943, Control_c, 0, 67, 37
1, 230948, Note_on_c, 0, 73, 61
1, 230958, Control_c, 0, 67, 38
1, 230969, Note_on_c, 0, 85, 75
1, 230980, Note_on_c, 0, 78, 57
1, 230987, Note_off_c, 0, 73, 63
1, 230988, Control_c, 0, 64, 44
1, 230999, Note_off_c, 0, 78, 64
1, 231003, Control_c, 0, 64, 63
1, 231018, Control_c, 0, 64, 69
1, 231018, Control_c, 0, 67, 36
1, 231020, Note_on_c, 0, 67, 61
1, 231038, Note_off_c, 0, 85, 62
1, 231039, Control_c, 0, 64, 68
1, 231039, Control_c, 0, 67, 35
1, 231052, Note_off_c, 0, 67, 66
1, 231054, Control_c, 0, 64, 62
1, 231054, Control_c, 0, 67, 33
1, 231055, Note_on_c, 0, 90, 67
1, 231059, Note_on_c, 0, 83, 59
1, 231069, Control_c, 0, 64, 46
1, 231069, Control_c, 0, 67, 33
1, 231081, Note_on_c, 0, 57, 43
1, 231084, Control_c, 0, 64, 0
1, 231084, Control_c, 0, 67, 32
1, 231094, Note_off_c, 0, 83, 52
1, 231105, Note_off_c, 0, 90, 61
1, 231110, Note_off_c, 0, 57, 54
1, 231111, Note_on_c, 0, 85, 54
1, 231113, Note_on_c, 0, 78, 54
1, 231135, Note_off_c, 0, 85, 61
1, 231142, Note_off_c, 0, 78, 66
1, 231224, Note_on_c, 0, 84, 73
1, 231232, Control_c, 0, 64, 39
1, 231232, Control_c, 0, 67, 32
1, 231239, Note_on_c, 0, 51, 58
1, 231239, Note_on_c, 0, 77, 50
1, 231247, Control_c, 0, 64, 61
1, 231247, Control_c, 0, 67, 30
1, 231261, Control_c, 0, 64, 60
1, 231261, Control_c, 0, 67, 28
1, 231264, Note_off_c, 0, 84, 57
1, 231266, Note_off_c, 0, 77, 55
1, 231271, Note_off_c, 0, 51, 64
1, 231276, Control_c, 0, 64, 45
1, 231284, Note_on_c, 0, 61, 60
1, 231291, Control_c, 0, 64, 0
1, 231291, Control_c, 0, 67, 25
1, 231299, Note_on_c, 0, 79, 69
1, 231300, Note_on_c, 0, 72, 57
1, 231313, Note_on_c, 0, 67, 61
1, 231317, Note_off_c, 0, 61, 64
1, 231332, Note_off_c, 0, 72, 66
1, 231334, Note_off_c, 0, 67, 65
1, 231352, Note_off_c, 0, 79, 60
1, 231375, Note_on_c, 0, 84, 72
1, 231394, Control_c, 0, 67, 27
1, 231402, Note_off_c, 0, 84, 66
1, 231409, Control_c, 0, 67, 29
1, 231423, Control_c, 0, 67, 31
1, 231438, Control_c, 0, 67, 32
1, 231453, Control_c, 0, 67, 32
1, 231468, Control_c, 0, 67, 33
1, 231471, Note_on_c, 0, 73, 72
1, 231483, Control_c, 0, 64, 32
1, 231484, Note_on_c, 0, 85, 70
1, 231489, Note_on_c, 0, 78, 59
1, 231498, Control_c, 0, 64, 61
1, 231503, Note_off_c, 0, 73, 66
1, 231510, Note_off_c, 0, 78, 61
1, 231513, Control_c, 0, 64, 69
1, 231513, Control_c, 0, 67, 31
1, 231527, Note_on_c, 0, 67, 66
1, 231528, Control_c, 0, 67, 29
1, 231540, Note_off_c, 0, 85, 61
1, 231543, Control_c, 0, 64, 64
1, 231543, Control_c, 0, 67, 27
1, 231556, Note_on_c, 0, 90, 71
1, 231558, Control_c, 0, 64, 52
1, 231558, Control_c, 0, 67, 25
1, 231562, Note_off_c, 0, 67, 67
1, 231570, Note_on_c, 0, 57, 62
1, 231573, Control_c, 0, 64, 31
1, 231578, Note_on_c, 0, 83, 51
1, 231588, Control_c, 0, 64, 0
1, 231588, Control_c, 0, 67, 22
1, 231592, Note_off_c, 0, 57, 62
1, 231602, Control_c, 0, 67, 20
1, 231610, Note_on_c, 0, 85, 70
1, 231611, Note_off_c, 0, 83, 66
1, 231611, Note_off_c, 0, 90, 62
1, 231614, Note_on_c, 0, 78, 58
1, 231617, Control_c, 0, 67, 0
1, 231634, Note_off_c, 0, 85, 70
1, 231641, Note_off_c, 0, 78, 66
1, 231662, Control_c, 0, 67, 20
1, 231718, Note_on_c, 0, 77, 65
1, 231721, Note_on_c, 0, 84, 72
1, 231722, Note_on_c, 0, 63, 67
1, 231736, Control_c, 0, 64, 40
1, 231745, Note_off_c, 0, 77, 67
1, 231750, Note_off_c, 0, 63, 66
1, 231751, Control_c, 0, 64, 64
1, 231763, Note_off_c, 0, 84, 59
1, 231766, Control_c, 0, 64, 68
1, 231788, Control_c, 0, 64, 67
1, 231789, Note_on_c, 0, 73, 67
1, 231795, Note_on_c, 0, 72, 58
1, 231799, Note_on_c, 0, 79, 66
1, 231803, Control_c, 0, 64, 63
1, 231815, Note_off_c, 0, 73, 68
1, 231817, Control_c, 0, 64, 60
1, 231826, Note_off_c, 0, 72, 66
1, 231832, Control_c, 0, 64, 55
1, 231841, Note_off_c, 0, 79, 49
1, 231847, Control_c, 0, 64, 48
1, 231862, Control_c, 0, 64, 35
1, 231862, Control_c, 0, 67, 22
1, 231866, Note_on_c, 0, 77, 46
1, 231866, Note_on_c, 0, 84, 76
1, 231876, Control_c, 0, 64, 0
1, 231888, Note_off_c, 0, 84, 70
1, 231894, Note_off_c, 0, 77, 51
1, 231939, Note_on_c, 0, 73, 69
1, 231966, Note_on_c, 0, 85, 75
1, 231969, Note_off_c, 0, 73, 66
1, 231969, Note_on_c, 0, 78, 65
1, 231993, Note_off_c, 0, 78, 65
1, 231995, Control_c, 0, 64, 54
1, 232001, Note_on_c, 0, 67, 62
1, 232009, Control_c, 0, 64, 68
1, 232009, Control_c, 0, 67, 19
1, 232024, Control_c, 0, 64, 75
1, 232024, Control_c, 0, 67, 0
1, 232028, Note_off_c, 0, 85, 64
1, 232032, Note_off_c, 0, 67, 67
1, 232033, Note_on_c, 0, 90, 76
1, 232039, Control_c, 0, 64, 76
1, 232043, Note_on_c, 0, 83, 66
1, 232049, Note_on_c, 0, 57, 57
1, 232053, Control_c, 0, 64, 72
1, 232068, Control_c, 0, 64, 63
1, 232072, Note_off_c, 0, 57, 60
1, 232078, Note_on_c, 0, 78, 65
1, 232083, Control_c, 0, 64, 43
1, 232086, Note_on_c, 0, 85, 75
1, 232091, Note_off_c, 0, 90, 64
1, 232093, Note_off_c, 0, 83, 64
1, 232098, Control_c, 0, 64, 0
1, 232106, Note_off_c, 0, 78, 67
1, 232110, Note_off_c, 0, 85, 70
1, 232177, Note_on_c, 0, 53, 65
1, 232190, Note_on_c, 0, 79, 71
1, 232196, Note_on_c, 0, 86, 72
1, 232205, Note_on_c, 0, 63, 72
1, 232210, Note_off_c, 0, 53, 63
1, 232215, Note_off_c, 0, 79, 70
1, 232216, Control_c, 0, 64, 33
1, 232231, Control_c, 0, 64, 61
1, 232234, Note_off_c, 0, 86, 63
1, 232237, Note_off_c, 0, 63, 67
1, 232241, Note_on_c, 0, 69, 66
1, 232246, Control_c, 0, 64, 69
1, 232249, Note_on_c, 0, 81, 70
1, 232259, Note_on_c, 0, 74, 35
1, 232261, Control_c, 0, 64, 73
1, 232267, Note_off_c, 0, 69, 65
1, 232276, Control_c, 0, 64, 75
1, 232289, Note_off_c, 0, 74, 50
1, 232291, Control_c, 0, 64, 76
1, 232303, Note_off_c, 0, 81, 63
1, 232306, Control_c, 0, 64, 77
1, 232306, Note_on_c, 0, 79, 66
1, 232309, Note_on_c, 0, 86, 78
1, 232323, Note_off_c, 0, 79, 67
1, 232331, Note_off_c, 0, 86, 68
1, 232335, Control_c, 0, 64, 76
1, 232350, Control_c, 0, 64, 71
1, 232365, Control_c, 0, 64, 60
1, 232380, Note_on_c, 0, 63, 75
1, 232380, Control_c, 0, 64, 38
1, 232395, Control_c, 0, 64, 0
1, 232410, Note_on_c, 0, 87, 83
1, 232413, Note_on_c, 0, 80, 76
1, 232416, Note_off_c, 0, 63, 66
1, 232437, Note_on_c, 0, 57, 71
1, 232440, Control_c, 0, 64, 42
1, 232446, Note_off_c, 0, 80, 65
1, 232455, Control_c, 0, 64, 63
1, 232466, Note_off_c, 0, 87, 64
1, 232470, Control_c, 0, 64, 76
1, 232472, Note_on_c, 0, 92, 82
1, 232473, Note_on_c, 0, 47, 73
1, 232481, Note_on_c, 0, 85, 73
1, 232483, Note_off_c, 0, 57, 62
1, 232484, Control_c, 0, 64, 99
1, 232499, Control_c, 0, 64, 127
1, 232501, Note_off_c, 0, 47, 69
1, 232533, Note_off_c, 0, 85, 47
1, 232537, Note_on_c, 0, 80, 72
1, 232537, Note_on_c, 0, 87, 88
1, 232541, Note_off_c, 0, 92, 66
1, 232556, Note_off_c, 0, 87, 70
1, 232559, Note_off_c, 0, 80, 70
1, 232565, Control_c, 0, 64, 84
1, 232580, Control_c, 0, 64, 56
1, 232595, Control_c, 0, 64, 0
1, 232607, Note_on_c, 0, 43, 80
1, 232636, Note_on_c, 0, 81, 78
1, 232640, Note_on_c, 0, 88, 87
1, 232656, Note_on_c, 0, 53, 73
1, 232669, Note_off_c, 0, 81, 58
1, 232676, Note_off_c, 0, 43, 63
1, 232684, Control_c, 0, 64, 33
1, 232684, Note_off_c, 0, 88, 65
1, 232689, Note_off_c, 0, 53, 65
1, 232691, Note_on_c, 0, 59, 75
1, 232699, Control_c, 0, 64, 65
1, 232699, Note_on_c, 0, 83, 88
1, 232704, Note_on_c, 0, 76, 75
1, 232714, Control_c, 0, 64, 81
1, 232720, Note_off_c, 0, 59, 68
1, 232729, Control_c, 0, 64, 97
1, 232744, Note_off_c, 0, 76, 60
1, 232744, Control_c, 0, 64, 121
1, 232747, Note_off_c, 0, 83, 64
1, 232752, Note_on_c, 0, 88, 94
1, 232759, Control_c, 0, 64, 127
1, 232786, Note_off_c, 0, 88, 63
1, 232850, Note_on_c, 0, 53, 75
1, 232861, Note_on_c, 0, 95, 94
1, 232866, Note_on_c, 0, 93, 85
1, 232872, Note_on_c, 0, 81, 91
1, 232884, Note_off_c, 0, 93, 72
1, 232886, Note_on_c, 0, 88, 62
1, 232890, Note_off_c, 0, 81, 69
1, 232900, Note_off_c, 0, 53, 62
1, 232904, Note_off_c, 0, 95, 67
1, 232905, Note_off_c, 0, 88, 63
1, 232907, Note_on_c, 0, 43, 69
1, 232942, Note_off_c, 0, 43, 67
1, 232949, Note_on_c, 0, 38, 63
1, 232973, Note_off_c, 0, 38, 61
1, 233091, Note_on_c, 0, 43, 64
1, 233116, Note_on_c, 0, 53, 30
1, 233155, Note_off_c, 0, 43, 62
1, 233155, Note_on_c, 0, 59, 85
1, 233158, Note_off_c, 0, 53, 63
1, 233178, Note_off_c, 0, 59, 68
1, 233301, Note_on_c, 0, 95, 83
1, 233307, Note_on_c, 0, 81, 73
1, 233313, Note_on_c, 0, 65, 75
1, 233313, Note_on_c, 0, 88, 64
1, 233329, Note_off_c, 0, 81, 67
1, 233332, Note_off_c, 0, 88, 67
1, 233343, Note_off_c, 0, 95, 65
1, 233363, Note_off_c, 0, 65, 64
1, 233368, Note_on_c, 0, 59, 65
1, 233394, Note_on_c, 0, 49, 77
1, 233410, Note_off_c, 0, 59, 63
1, 233421, Note_off_c, 0, 49, 69
1, 233525, Note_on_c, 0, 55, 64
1, 233540, Note_on_c, 0, 65, 65
1, 233545, Note_on_c, 0, 88, 64
1, 233558, Note_on_c, 0, 81, 47
1, 233569, Note_off_c, 0, 55, 59
1, 233576, Note_on_c, 0, 83, 82
1, 233581, Note_off_c, 0, 88, 65
1, 233587, Note_off_c, 0, 81, 63
1, 233588, Note_on_c, 0, 71, 77
1, 233593, Note_off_c, 0, 65, 65
1, 233595, Note_on_c, 0, 76, 63
1, 233611, Note_off_c, 0, 71, 71
1, 233624, Note_off_c, 0, 76, 66
1, 233635, Note_on_c, 0, 88, 83
1, 233635, Note_off_c, 0, 83, 63
1, 233660, Note_off_c, 0, 88, 66
1, 233668, Note_on_c, 0, 81, 10
1, 233715, Note_off_c, 0, 81, 52
1, 233781, Note_on_c, 0, 95, 102
1, 233782, Note_on_c, 0, 65, 84
1, 233786, Note_on_c, 0, 81, 100
1, 233791, Note_on_c, 0, 88, 92
1, 233808, Note_off_c, 0, 88, 75
1, 233815, Note_off_c, 0, 81, 69
1, 233819, Note_off_c, 0, 95, 70
1, 233839, Note_off_c, 0, 65, 64
1, 233842, Note_on_c, 0, 59, 57
1, 233877, Note_on_c, 0, 49, 77
1, 233892, Note_off_c, 0, 59, 65
1, 233900, Note_off_c, 0, 49, 65
1, 234050, Note_on_c, 0, 55, 69
1, 234096, Note_on_c, 0, 65, 56
1, 234105, Note_off_c, 0, 55, 63
1, 234114, Note_off_c, 0, 65, 67
1, 234124, Note_on_c, 0, 71, 70
1, 234147, Note_off_c, 0, 71, 67
1, 234184, Poly_aftertouch_c, 0, 69, 127
1, 234211, Poly_aftertouch_c, 0, 69, 0
1, 234253, Note_on_c, 0, 61, 66
1, 234294, Note_on_c, 0, 71, 52
1, 234335, Note_off_c, 0, 61, 60
1, 234347, Note_off_c, 0, 71, 62
1, 234352, Note_on_c, 0, 77, 65
1, 234372, Note_off_c, 0, 77, 66
1, 234384, Note_on_c, 0, 76, 22
1, 234428, Note_off_c, 0, 76, 48
1, 234440, Note_on_c, 0, 95, 101
1, 234442, Note_on_c, 0, 81, 100
1, 234444, Note_on_c, 0, 88, 103
1, 234470, Note_off_c, 0, 81, 69
1, 234481, Note_off_c, 0, 88, 70
1, 234506, Note_off_c, 0, 95, 68
1, 234611, Note_on_c, 0, 77, 64
1, 234615, Note_on_c, 0, 67, 48
1, 234665, Note_on_c, 0, 83, 104
1, 234679, Note_on_c, 0, 81, 72
1, 234679, Note_off_c, 0, 77, 65
1, 234697, Note_off_c, 0, 81, 40
1, 234703, Note_off_c, 0, 67, 65
1, 234708, Note_off_c, 0, 83, 69
1, 234960, Control_c, 0, 64, 84
1, 234975, Control_c, 0, 64, 32
1, 234990, Control_c, 0, 64, 0
1, 235294, Note_on_c, 0, 49, 104
1, 235295, Note_on_c, 0, 37, 100
1, 235316, Control_c, 0, 64, 90
1, 235330, Control_c, 0, 64, 127
1, 235347, Note_off_c, 0, 49, 68
1, 235366, Note_off_c, 0, 37, 63
1, 235713, Note_on_c, 0, 65, 81
1, 235729, Note_on_c, 0, 53, 55
1, 235731, Note_on_c, 0, 59, 55
1, 235766, Note_off_c, 0, 59, 63
1, 235770, Note_off_c, 0, 53, 59
1, 235771, Note_off_c, 0, 65, 61
1, 235862, Note_on_c, 0, 65, 72
1, 235872, Note_on_c, 0, 59, 50
1, 235886, Note_on_c, 0, 53, 40
1, 235904, Note_off_c, 0, 59, 62
1, 235916, Note_off_c, 0, 65, 59
1, 235928, Note_off_c, 0, 53, 46
1, 235963, Note_on_c, 0, 81, 106
1, 235966, Note_on_c, 0, 69, 100
1, 235970, Note_on_c, 0, 74, 105
1, 235980, Note_on_c, 0, 65, 85
1, 235994, Note_on_c, 0, 59, 68
1, 235996, Note_on_c, 0, 53, 69
1, 235999, Note_off_c, 0, 69, 69
1, 236002, Note_off_c, 0, 74, 70
1, 236011, Note_off_c, 0, 81, 70
1, 236017, Note_off_c, 0, 59, 70
1, 236019, Note_off_c, 0, 53, 70
1, 236022, Note_off_c, 0, 65, 63
1, 236103, Note_on_c, 0, 53, 58
1, 236106, Note_on_c, 0, 65, 64
1, 236114, Note_on_c, 0, 59, 45
1, 236124, Note_off_c, 0, 53, 64
1, 236131, Note_off_c, 0, 65, 61
1, 236139, Note_off_c, 0, 59, 58
1, 236192, Note_on_c, 0, 53, 73
1, 236211, Note_on_c, 0, 59, 56
1, 236227, Note_off_c, 0, 53, 64
1, 236231, Note_off_c, 0, 59, 63
1, 236414, Control_c, 0, 64, 100
1, 236429, Control_c, 0, 64, 75
1, 236444, Control_c, 0, 64, 64
1, 236458, Control_c, 0, 64, 64
1, 236467, Note_on_c, 0, 43, 108
1, 236469, Note_on_c, 0, 31, 97
1, 236473, Control_c, 0, 64, 73
1, 236488, Control_c, 0, 64, 95
1, 236503, Control_c, 0, 64, 127
1, 236512, Note_off_c, 0, 43, 67
1, 236517, Note_off_c, 0, 31, 65
1, 236783, Note_on_c, 0, 65, 97
1, 236789, Note_on_c, 0, 53, 85
1, 236798, Note_on_c, 0, 59, 67
1, 236828, Note_off_c, 0, 59, 64
1, 236845, Note_off_c, 0, 53, 57
1, 236849, Note_off_c, 0, 65, 55
1, 236941, Note_on_c, 0, 65, 89
1, 236947, Note_on_c, 0, 53, 75
1, 236950, Note_on_c, 0, 59, 67
1, 236978, Note_off_c, 0, 53, 59
1, 236981, Note_off_c, 0, 59, 62
1, 236987, Note_off_c, 0, 65, 65
1, 236998, Note_on_c, 0, 82, 103
1, 237001, Note_on_c, 0, 70, 104
1, 237001, Note_on_c, 0, 75, 84
1, 237038, Note_on_c, 0, 65, 82
1, 237039, Note_off_c, 0, 70, 70
1, 237044, Note_on_c, 0, 53, 71
1, 237045, Note_off_c, 0, 82, 69
1, 237045, Note_on_c, 0, 59, 70
1, 237045, Note_off_c, 0, 75, 67
1, 237076, Note_off_c, 0, 53, 64
1, 237086, Note_off_c, 0, 59, 62
1, 237087, Note_off_c, 0, 65, 65
1, 237144, Note_on_c, 0, 59, 53
1, 237172, Note_off_c, 0, 59, 57
1, 237179, Note_on_c, 0, 65, 7
1, 237218, Note_off_c, 0, 65, 0
1, 237218, Note_on_c, 0, 65, 32
1, 237231, Note_on_c, 0, 53, 92
1, 237231, Note_on_c, 0, 59, 82
1, 237245, Note_off_c, 0, 59, 77
1, 237248, Note_off_c, 0, 65, 66
1, 237272, Note_off_c, 0, 53, 63
1, 237385, Control_c, 0, 64, 112
1, 237399, Control_c, 0, 64, 76
1, 237414, Control_c, 0, 64, 52
1, 237429, Control_c, 0, 64, 0
1, 237504, Note_on_c, 0, 37, 109
1, 237507, Note_on_c, 0, 25, 99
1, 237532, Control_c, 0, 64, 68
1, 237547, Control_c, 0, 64, 127
1, 237555, Note_off_c, 0, 25, 66
1, 237557, Note_off_c, 0, 37, 66
1, 237828, Note_on_c, 0, 88, 102
1, 237831, Note_on_c, 0, 53, 74
1, 237832, Note_on_c, 0, 76, 106
1, 237833, Note_on_c, 0, 81, 106
1, 237835, Note_on_c, 0, 65, 87
1, 237856, Note_on_c, 0, 59, 50
1, 237860, Note_off_c, 0, 76, 70
1, 237865, Note_off_c, 0, 81, 70
1, 237870, Note_off_c, 0, 88, 69
1, 237878, Note_off_c, 0, 59, 63
1, 237880, Note_off_c, 0, 65, 64
1, 237887, Note_off_c, 0, 53, 61
1, 237983, Note_on_c, 0, 59, 55
1, 237984, Note_on_c, 0, 65, 79
1, 238005, Note_on_c, 0, 53, 57
1, 238029, Note_off_c, 0, 59, 61
1, 238031, Note_off_c, 0, 53, 66
1, 238041, Note_off_c, 0, 65, 63
1, 238107, Note_on_c, 0, 65, 67
1, 238113, Note_on_c, 0, 59, 61
1, 238121, Note_on_c, 0, 53, 62
1, 238151, Note_on_c, 0, 83, 104
1, 238155, Note_off_c, 0, 59, 57
1, 238157, Note_on_c, 0, 71, 91
1, 238158, Note_off_c, 0, 53, 60
1, 238160, Note_off_c, 0, 65, 62
1, 238162, Note_on_c, 0, 76, 77
1, 238178, Note_off_c, 0, 71, 70
1, 238181, Note_off_c, 0, 76, 70
1, 238188, Note_off_c, 0, 83, 64
1, 238220, Note_on_c, 0, 83, 88
1, 238222, Note_on_c, 0, 69, 95
1, 238233, Note_on_c, 0, 81, 73
1, 238236, Note_on_c, 0, 74, 72
1, 238240, Note_on_c, 0, 65, 82
1, 238247, Note_on_c, 0, 59, 73
1, 238249, Note_on_c, 0, 75, 59
1, 238253, Note_off_c, 0, 69, 67
1, 238253, Note_off_c, 0, 74, 68
1, 238253, Note_off_c, 0, 81, 39
1, 238258, Note_on_c, 0, 53, 59
1, 238261, Note_off_c, 0, 83, 65
1, 238268, Note_off_c, 0, 75, 63
1, 238280, Note_off_c, 0, 59, 58
1, 238282, Note_off_c, 0, 53, 69
1, 238284, Note_off_c, 0, 65, 65
1, 238360, Note_on_c, 0, 65, 80
1, 238373, Note_on_c, 0, 59, 65
1, 238380, Note_on_c, 0, 53, 59
1, 238397, Note_off_c, 0, 59, 67
1, 238409, Note_off_c, 0, 65, 63
1, 238418, Note_off_c, 0, 53, 57
1, 238455, Note_on_c, 0, 65, 69
1, 238459, Note_on_c, 0, 59, 83
1, 238471, Note_on_c, 0, 53, 51
1, 238486, Note_off_c, 0, 65, 67
1, 238503, Note_off_c, 0, 53, 64
1, 238507, Note_off_c, 0, 59, 63
1, 238551, Note_on_c, 0, 57, 50
1, 238552, Note_on_c, 0, 69, 86
1, 238561, Note_on_c, 0, 65, 79
1, 238567, Note_on_c, 0, 59, 48
1, 238578, Note_off_c, 0, 69, 66
1, 238583, Note_off_c, 0, 65, 68
1, 238584, Note_off_c, 0, 59, 68
1, 238597, Note_off_c, 0, 57, 64
1, 238642, Note_on_c, 0, 65, 82
1, 238645, Note_on_c, 0, 59, 74
1, 238659, Note_off_c, 0, 65, 75
1, 238662, Note_on_c, 0, 53, 71
1, 238666, Note_off_c, 0, 59, 67
1, 238689, Note_off_c, 0, 53, 66
1, 238722, Note_on_c, 0, 65, 95
1, 238727, Note_on_c, 0, 53, 79
1, 238736, Note_on_c, 0, 59, 65
1, 238750, Note_off_c, 0, 53, 68
1, 238764, Note_off_c, 0, 59, 65
1, 238765, Note_off_c, 0, 65, 62
1, 238801, Note_on_c, 0, 65, 76
1, 238807, Note_on_c, 0, 59, 80
1, 238808, Note_on_c, 0, 53, 73
1, 238832, Note_off_c, 0, 53, 69
1, 238834, Note_off_c, 0, 65, 59
1, 238836, Note_off_c, 0, 59, 63
1, 238874, Note_on_c, 0, 65, 90
1, 238882, Note_on_c, 0, 59, 71
1, 238891, Note_on_c, 0, 53, 74
1, 238917, Note_off_c, 0, 65, 65
1, 238920, Note_off_c, 0, 53, 60
1, 238926, Note_off_c, 0, 59, 60
1, 238949, Note_on_c, 0, 65, 81
1, 238951, Note_on_c, 0, 59, 73
1, 238958, Note_on_c, 0, 53, 74
1, 238980, Note_off_c, 0, 53, 66
1, 238995, Note_off_c, 0, 59, 64
1, 238998, Note_off_c, 0, 65, 66
1, 239001, Control_c, 0, 64, 75
1, 239016, Control_c, 0, 64, 44
1, 239031, Control_c, 0, 64, 0
1, 239138, Note_on_c, 0, 49, 73
1, 239143, Note_on_c, 0, 37, 95
1, 239209, Control_c, 0, 64, 54
1, 239224, Control_c, 0, 64, 75
1, 239238, Control_c, 0, 64, 88
1, 239253, Control_c, 0, 64, 127
1, 239293, Note_off_c, 0, 37, 63
1, 239325, Note_off_c, 0, 49, 61
1, 239457, Note_on_c, 0, 65, 74
1, 239479, Note_on_c, 0, 53, 47
1, 239487, Note_on_c, 0, 59, 44
1, 239508, Note_off_c, 0, 65, 65
1, 239514, Note_off_c, 0, 53, 63
1, 239514, Note_off_c, 0, 59, 56
1, 239588, Note_on_c, 0, 65, 78
1, 239591, Note_on_c, 0, 59, 63
1, 239608, Note_on_c, 0, 53, 51
1, 239629, Note_off_c, 0, 59, 62
1, 239633, Note_off_c, 0, 53, 60
1, 239636, Note_off_c, 0, 65, 62
1, 239703, Note_on_c, 0, 81, 103
1, 239707, Note_on_c, 0, 65, 78
1, 239707, Note_on_c, 0, 69, 93
1, 239710, Note_on_c, 0, 74, 94
1, 239711, Note_on_c, 0, 53, 64
1, 239720, Note_on_c, 0, 59, 58
1, 239733, Note_off_c, 0, 74, 67
1, 239734, Note_off_c, 0, 69, 66
1, 239748, Note_off_c, 0, 81, 68
1, 239754, Note_off_c, 0, 53, 60
1, 239754, Note_off_c, 0, 59, 64
1, 239755, Note_off_c, 0, 65, 61
1, 239824, Note_on_c, 0, 65, 66
1, 239838, Note_on_c, 0, 59, 56
1, 239860, Note_off_c, 0, 59, 64
1, 239880, Poly_aftertouch_c, 0, 53, 127
1, 239899, Note_on_c, 0, 53, 3
1, 239908, Note_off_c, 0, 65, 64
1, 239928, Note_on_c, 0, 59, 40
1, 239935, Note_off_c, 0, 53, 63
1, 239951, Note_off_c, 0, 59, 62
1, 240098, Control_c, 0, 64, 101
1, 240113, Control_c, 0, 64, 78
1, 240128, Control_c, 0, 64, 70
1, 240143, Control_c, 0, 64, 72
1, 240155, Note_on_c, 0, 43, 97
1, 240156, Note_on_c, 0, 31, 102
1, 240157, Control_c, 0, 64, 91
1, 240172, Control_c, 0, 64, 127
1, 240196, Note_off_c, 0, 43, 67
1, 240202, Note_off_c, 0, 31, 64
1, 240422, Note_on_c, 0, 53, 71
1, 240424, Note_on_c, 0, 65, 80
1, 240446, Note_on_c, 0, 59, 47
1, 240455, Note_off_c, 0, 53, 58
1, 240475, Note_off_c, 0, 59, 56
1, 240477, Note_off_c, 0, 65, 63
1, 240525, Note_on_c, 0, 65, 77
1, 240537, Note_on_c, 0, 59, 69
1, 240552, Note_on_c, 0, 53, 44
1, 240566, Note_off_c, 0, 59, 63
1, 240575, Note_off_c, 0, 53, 59
1, 240578, Note_off_c, 0, 65, 64
1, 240605, Note_on_c, 0, 82, 92
1, 240608, Note_on_c, 0, 70, 86
1, 240614, Note_on_c, 0, 75, 77
1, 240625, Note_on_c, 0, 65, 79
1, 240637, Note_on_c, 0, 53, 73
1, 240643, Note_on_c, 0, 59, 59
1, 240658, Note_off_c, 0, 70, 64
1, 240664, Note_off_c, 0, 59, 65
1, 240667, Note_off_c, 0, 53, 65
1, 240667, Note_off_c, 0, 82, 67
1, 240670, Note_off_c, 0, 75, 58
1, 240671, Note_off_c, 0, 65, 65
1, 240731, Note_on_c, 0, 65, 93
1, 240731, Note_on_c, 0, 59, 79
1, 240731, Poly_aftertouch_c, 0, 60, 127
1, 240733, Note_on_c, 0, 53, 83
1, 240778, Poly_aftertouch_c, 0, 60, 0
1, 240785, Note_off_c, 0, 53, 59
1, 240795, Note_off_c, 0, 65, 60
1, 240846, Note_off_c, 0, 59, 30
1, 240876, Note_on_c, 0, 71, 95
1, 240876, Note_on_c, 0, 83, 100
1, 240879, Note_on_c, 0, 53, 98
1, 240879, Note_on_c, 0, 65, 102
1, 240881, Note_on_c, 0, 76, 87
1, 240884, Note_on_c, 0, 59, 67
1, 240897, Note_off_c, 0, 71, 68
1, 240899, Note_off_c, 0, 76, 74
1, 240907, Note_off_c, 0, 59, 70
1, 240909, Note_off_c, 0, 65, 69
1, 240914, Note_off_c, 0, 83, 70
1, 240926, Note_off_c, 0, 53, 68
1, 241013, Note_on_c, 0, 87, 60
1, 241025, Control_c, 0, 64, 73
1, 241040, Control_c, 0, 64, 37
1, 241043, Note_off_c, 0, 87, 67
1, 241055, Control_c, 0, 64, 0
1, 241189, Note_on_c, 0, 93, 103
1, 241192, Note_on_c, 0, 81, 108
1, 241193, Note_on_c, 0, 86, 98
1, 241199, Note_on_c, 0, 25, 89
1, 241203, Note_on_c, 0, 37, 101
1, 241234, Control_c, 0, 64, 68
1, 241236, Note_off_c, 0, 81, 68
1, 241241, Note_off_c, 0, 37, 65
1, 241243, Note_off_c, 0, 25, 64
1, 241244, Note_off_c, 0, 86, 68
1, 241248, Control_c, 0, 64, 127
1, 241252, Note_off_c, 0, 93, 67
1, 241291, Note_on_c, 0, 26, 3
1, 241332, Note_off_c, 0, 26, 36
1, 241594, Note_on_c, 0, 65, 100
1, 241607, Note_on_c, 0, 59, 74
1, 241609, Note_on_c, 0, 53, 73
1, 241669, Note_off_c, 0, 53, 52
1, 241688, Note_off_c, 0, 59, 56
1, 241694, Note_off_c, 0, 65, 59
1, 241779, Note_on_c, 0, 65, 87
1, 241788, Note_on_c, 0, 59, 68
1, 241791, Note_on_c, 0, 53, 53
1, 241820, Note_off_c, 0, 53, 59
1, 241823, Note_off_c, 0, 65, 60
1, 241824, Note_off_c, 0, 59, 57
1, 241830, Note_on_c, 0, 55, 20
1, 241868, Note_off_c, 0, 55, 45
1, 241890, Note_on_c, 0, 65, 80
1, 241897, Note_on_c, 0, 53, 72
1, 241911, Note_off_c, 0, 65, 72
1, 241917, Note_on_c, 0, 59, 53
1, 241945, Note_off_c, 0, 53, 63
1, 241949, Note_off_c, 0, 59, 65
1, 242003, Note_on_c, 0, 65, 76
1, 242011, Note_on_c, 0, 53, 68
1, 242056, Note_off_c, 0, 53, 60
1, 242056, Note_off_c, 0, 65, 62
1, 242114, Note_on_c, 0, 59, 43
1, 242114, Note_on_c, 0, 65, 70
1, 242123, Note_on_c, 0, 53, 64
1, 242140, Note_off_c, 0, 65, 66
1, 242146, Note_off_c, 0, 59, 67
1, 242150, Note_off_c, 0, 53, 67
1, 242187, Note_on_c, 0, 65, 87
1, 242190, Note_on_c, 0, 53, 85
1, 242192, Note_on_c, 0, 59, 69
1, 242217, Note_off_c, 0, 53, 63
1, 242223, Note_off_c, 0, 65, 61
1, 242235, Note_off_c, 0, 59, 60
1, 242263, Note_on_c, 0, 37, 100
1, 242264, Note_on_c, 0, 25, 108
1, 242274, Note_on_c, 0, 53, 76
1, 242275, Note_on_c, 0, 65, 82
1, 242277, Note_on_c, 0, 59, 62
1, 242298, Note_off_c, 0, 25, 66
1, 242300, Note_off_c, 0, 37, 65
1, 242316, Note_off_c, 0, 53, 62
1, 242320, Note_off_c, 0, 59, 65
1, 242323, Note_off_c, 0, 65, 64
1, 242363, Note_on_c, 0, 59, 79
1, 242363, Note_on_c, 0, 65, 79
1, 242366, Note_on_c, 0, 53, 72
1, 242389, Note_off_c, 0, 53, 68
1, 242402, Note_off_c, 0, 59, 65
1, 242411, Note_off_c, 0, 65, 0
1, 242434, Poly_aftertouch_c, 0, 59, 0
1, 242437, Note_on_c, 0, 53, 80
1, 242439, Note_on_c, 0, 59, 72
1, 242447, Poly_aftertouch_c, 0, 65, 127
1, 242459, Note_off_c, 0, 53, 69
1, 242469, Poly_aftertouch_c, 0, 65, 0
1, 242471, Note_off_c, 0, 59, 67
1, 242478, Control_c, 0, 64, 80
1, 242493, Control_c, 0, 64, 0
1, 242598, Note_on_c, 0, 37, 98
1, 242598, Note_on_c, 0, 49, 107
1, 242760, Control_c, 0, 64, 61
1, 242775, Control_c, 0, 64, 90
1, 242790, Control_c, 0, 64, 127
1, 242804, Note_off_c, 0, 37, 61
1, 242819, Note_off_c, 0, 49, 63
1, 242927, Note_on_c, 0, 73, 37
1, 242959, Note_off_c, 0, 73, 53
1, 242962, Note_on_c, 0, 59, 58
1, 242962, Note_on_c, 0, 67, 54
1, 242968, Note_on_c, 0, 65, 61
1, 242987, Note_off_c, 0, 67, 64
1, 242990, Note_off_c, 0, 65, 65
1, 242997, Note_off_c, 0, 59, 65
1, 243062, Note_on_c, 0, 65, 86
1, 243064, Note_on_c, 0, 53, 34
1, 243086, Note_on_c, 0, 59, 58
1, 243112, Note_off_c, 0, 65, 65
1, 243114, Note_off_c, 0, 59, 64
1, 243121, Note_off_c, 0, 53, 61
1, 243153, Note_on_c, 0, 81, 104
1, 243157, Note_on_c, 0, 69, 100
1, 243158, Note_on_c, 0, 74, 103
1, 243168, Note_on_c, 0, 65, 83
1, 243173, Note_on_c, 0, 59, 76
1, 243184, Note_off_c, 0, 69, 69
1, 243187, Note_on_c, 0, 53, 59
1, 243190, Note_off_c, 0, 74, 70
1, 243203, Note_off_c, 0, 81, 69
1, 243213, Note_off_c, 0, 65, 65
1, 243215, Note_off_c, 0, 53, 65
1, 243222, Note_off_c, 0, 59, 59
1, 243308, Note_on_c, 0, 65, 59
1, 243334, Note_off_c, 0, 65, 54
1, 243350, Poly_aftertouch_c, 0, 59, 127
1, 243381, Note_on_c, 0, 53, 49
1, 243382, Poly_aftertouch_c, 0, 65, 0
1, 243417, Note_off_c, 0, 53, 64
1, 243421, Poly_aftertouch_c, 0, 59, 0
1, 243584, Control_c, 0, 64, 95
1, 243599, Control_c, 0, 64, 78
1, 243614, Control_c, 0, 64, 73
1, 243629, Control_c, 0, 64, 78
1, 243630, Note_on_c, 0, 31, 94
1, 243632, Note_on_c, 0, 43, 99
1, 243643, Control_c, 0, 64, 112
1, 243658, Control_c, 0, 64, 127
1, 243675, Note_off_c, 0, 43, 66
1, 243679, Note_off_c, 0, 31, 65
1, 243921, Note_on_c, 0, 53, 74
1, 243934, Note_on_c, 0, 65, 72
1, 243942, Note_on_c, 0, 59, 52
1, 243967, Note_off_c, 0, 59, 60
1, 243978, Note_off_c, 0, 53, 62
1, 243979, Note_off_c, 0, 65, 60
1, 244020, Note_on_c, 0, 65, 65
1, 244038, Note_on_c, 0, 59, 74
1, 244046, Note_on_c, 0, 53, 41
1, 244055, Note_on_c, 0, 52, 45
1, 244065, Note_off_c, 0, 59, 64
1, 244068, Note_off_c, 0, 65, 66
1, 244078, Note_off_c, 0, 53, 53
1, 244085, Note_off_c, 0, 52, 54
1, 244109, Note_on_c, 0, 82, 105
1, 244112, Note_on_c, 0, 70, 103
1, 244112, Note_on_c, 0, 75, 95
1, 244115, Note_on_c, 0, 65, 90
1, 244125, Note_on_c, 0, 59, 73
1, 244129, Note_on_c, 0, 53, 74
1, 244146, Note_off_c, 0, 70, 70
1, 244147, Note_on_c, 0, 80, 43
1, 244152, Note_off_c, 0, 75, 68
1, 244158, Note_off_c, 0, 82, 68
1, 244165, Note_off_c, 0, 53, 59
1, 244167, Note_off_c, 0, 59, 64
1, 244170, Note_off_c, 0, 65, 65
1, 244175, Note_off_c, 0, 80, 57
1, 244226, Note_on_c, 0, 65, 79
1, 244230, Note_on_c, 0, 59, 62
1, 244231, Note_on_c, 0, 53, 59
1, 244256, Note_off_c, 0, 53, 59
1, 244262, Note_off_c, 0, 59, 56
1, 244270, Note_off_c, 0, 65, 62
1, 244329, Note_on_c, 0, 53, 92
1, 244331, Note_on_c, 0, 65, 83
1, 244342, Note_on_c, 0, 59, 69
1, 244349, Note_off_c, 0, 65, 74
1, 244360, Note_off_c, 0, 59, 66
1, 244368, Note_off_c, 0, 53, 66
1, 244437, Control_c, 0, 64, 110
1, 244451, Control_c, 0, 64, 71
1, 244466, Control_c, 0, 64, 31
1, 244481, Control_c, 0, 64, 0
1, 244643, Note_on_c, 0, 25, 104
1, 244643, Note_on_c, 0, 37, 100
1, 244666, Control_c, 0, 64, 65
1, 244681, Control_c, 0, 64, 127
1, 244682, Note_on_c, 0, 24, 44
1, 244700, Note_off_c, 0, 25, 65
1, 244700, Note_off_c, 0, 37, 65
1, 244728, Note_off_c, 0, 24, 49
1, 244928, Note_on_c, 0, 53, 77
1, 244946, Note_on_c, 0, 59, 59
1, 244947, Note_on_c, 0, 65, 79
1, 244974, Note_on_c, 0, 88, 107
1, 244977, Note_on_c, 0, 76, 106
1, 244977, Note_on_c, 0, 81, 105
1, 244990, Note_off_c, 0, 59, 62
1, 244992, Note_off_c, 0, 65, 65
1, 244995, Note_off_c, 0, 53, 57
1, 245007, Note_off_c, 0, 76, 70
1, 245011, Note_off_c, 0, 81, 69
1, 245018, Note_off_c, 0, 88, 68
1, 245070, Note_on_c, 0, 65, 79
1, 245074, Note_on_c, 0, 59, 68
1, 245079, Note_on_c, 0, 53, 52
1, 245109, Note_off_c, 0, 53, 64
1, 245113, Note_off_c, 0, 59, 62
1, 245120, Note_off_c, 0, 65, 64
1, 245206, Note_on_c, 0, 59, 64
1, 245208, Note_on_c, 0, 65, 77
1, 245226, Note_on_c, 0, 53, 54
1, 245263, Note_off_c, 0, 53, 66
1, 245264, Note_off_c, 0, 65, 59
1, 245270, Note_off_c, 0, 59, 60
1, 245304, Note_on_c, 0, 83, 93
1, 245305, Note_on_c, 0, 71, 89
1, 245309, Note_on_c, 0, 76, 78
1, 245317, Note_on_c, 0, 81, 81
1, 245329, Note_off_c, 0, 71, 67
1, 245331, Note_off_c, 0, 76, 70
1, 245332, Note_off_c, 0, 83, 62
1, 245332, Note_off_c, 0, 81, 67
1, 245362, Note_on_c, 0, 59, 68
1, 245369, Note_on_c, 0, 65, 74
1, 245371, Note_on_c, 0, 79, 103
1, 245376, Note_on_c, 0, 69, 94
1, 245377, Note_on_c, 0, 53, 61
1, 245389, Note_on_c, 0, 74, 77
1, 245407, Note_off_c, 0, 65, 62
1, 245409, Note_off_c, 0, 53, 64
1, 245409, Note_off_c, 0, 74, 70
1, 245410, Note_off_c, 0, 69, 65
1, 245410, Note_off_c, 0, 79, 71
1, 245420, Note_off_c, 0, 59, 62
1, 245496, Note_on_c, 0, 59, 71
1, 245496, Note_on_c, 0, 65, 89
1, 245508, Note_on_c, 0, 53, 50
1, 245526, Note_on_c, 0, 52, 39
1, 245535, Note_off_c, 0, 59, 61
1, 245535, Note_off_c, 0, 65, 61
1, 245557, Note_off_c, 0, 53, 57
1, 245560, Note_off_c, 0, 52, 52
1, 245590, Note_on_c, 0, 65, 79
1, 245593, Note_on_c, 0, 59, 67
1, 245600, Note_on_c, 0, 53, 48
1, 245622, Note_off_c, 0, 65, 68
1, 245633, Note_off_c, 0, 59, 61
1, 245645, Note_off_c, 0, 53, 56
1, 245675, Note_on_c, 0, 59, 58
1, 245679, Note_on_c, 0, 65, 79
1, 245683, Note_on_c, 0, 57, 73
1, 245685, Note_on_c, 0, 69, 90
1, 245707, Note_off_c, 0, 65, 66
1, 245708, Note_off_c, 0, 59, 60
1, 245710, Note_off_c, 0, 57, 67
1, 245712, Note_off_c, 0, 69, 64
1, 245769, Note_on_c, 0, 65, 92
1, 245785, Note_on_c, 0, 53, 66
1, 245786, Note_on_c, 0, 59, 65
1, 245788, Note_off_c, 0, 65, 72
1, 245809, Note_off_c, 0, 59, 71
1, 245813, Note_off_c, 0, 53, 66
1, 245865, Note_on_c, 0, 65, 80
1, 245876, Note_on_c, 0, 53, 66
1, 245895, Note_on_c, 0, 59, 49
1, 245907, Note_off_c, 0, 53, 64
1, 245909, Note_off_c, 0, 65, 61
1, 245925, Note_off_c, 0, 59, 56
1, 245934, Control_c, 0, 64, 104
1, 245949, Control_c, 0, 64, 85
1, 245961, Note_on_c, 0, 65, 62
1, 245964, Control_c, 0, 64, 76
1, 245967, Note_on_c, 0, 53, 74
1, 245979, Control_c, 0, 64, 71
1, 245984, Note_off_c, 0, 65, 63
1, 245985, Note_off_c, 0, 53, 64
1, 245994, Control_c, 0, 64, 69
1, 246007, Note_on_c, 0, 59, 14
1, 246016, Control_c, 0, 64, 66
1, 246016, Control_c, 0, 67, 27
1, 246030, Control_c, 0, 64, 62
1, 246030, Control_c, 0, 67, 40
1, 246045, Control_c, 0, 64, 58
1, 246045, Control_c, 0, 67, 60
1, 246051, Note_on_c, 0, 53, 72
1, 246052, Note_on_c, 0, 65, 81
1, 246060, Control_c, 0, 64, 55
1, 246060, Control_c, 0, 67, 87
1, 246063, Note_off_c, 0, 59, 0
1, 246063, Note_on_c, 0, 59, 5
1, 246075, Control_c, 0, 64, 53
1, 246075, Control_c, 0, 67, 113
1, 246077, Note_off_c, 0, 65, 64
1, 246077, Note_off_c, 0, 53, 64
1, 246089, Control_c, 0, 64, 47
1, 246089, Control_c, 0, 67, 127
1, 246093, Note_off_c, 0, 59, 63
1, 246104, Control_c, 0, 64, 34
1, 246119, Control_c, 0, 64, 0
1, 246129, Note_on_c, 0, 65, 71
1, 246137, Note_on_c, 0, 59, 51
1, 246140, Note_on_c, 0, 53, 50
1, 246161, Note_off_c, 0, 65, 65
1, 246165, Note_off_c, 0, 53, 58
1, 246167, Note_off_c, 0, 59, 64
1, 246217, Note_on_c, 0, 49, 87
1, 246218, Note_on_c, 0, 37, 84
1, 246267, Control_c, 0, 64, 59
1, 246277, Note_off_c, 0, 37, 63
1, 246280, Note_off_c, 0, 49, 65
1, 246281, Control_c, 0, 64, 77
1, 246296, Control_c, 0, 64, 110
1, 246311, Control_c, 0, 64, 127
1, 246439, Note_on_c, 0, 59, 55
1, 246448, Note_on_c, 0, 65, 51
1, 246471, Note_off_c, 0, 59, 50
1, 246473, Note_off_c, 0, 65, 59
1, 246497, Poly_aftertouch_c, 0, 53, 127
1, 246519, Control_c, 0, 67, 116
1, 246521, Note_on_c, 0, 65, 77
1, 246525, Note_on_c, 0, 59, 52
1, 246534, Control_c, 0, 67, 94
1, 246548, Control_c, 0, 67, 71
1, 246557, Note_off_c, 0, 65, 61
1, 246561, Note_off_c, 0, 59, 60
1, 246563, Control_c, 0, 67, 47
1, 246578, Control_c, 0, 67, 27
1, 246581, Poly_aftertouch_c, 0, 53, 0
1, 246593, Control_c, 0, 67, 0
1, 246607, Note_on_c, 0, 81, 95
1, 246611, Note_on_c, 0, 69, 85
1, 246614, Note_on_c, 0, 74, 88
1, 246619, Note_on_c, 0, 65, 69
1, 246623, Note_on_c, 0, 59, 59
1, 246633, Note_off_c, 0, 69, 68
1, 246633, Note_off_c, 0, 74, 71
1, 246647, Note_off_c, 0, 81, 68
1, 246647, Note_on_c, 0, 53, 11
1, 246658, Note_off_c, 0, 65, 57
1, 246665, Note_off_c, 0, 59, 61
1, 246713, Note_off_c, 0, 53, 0
1, 246725, Note_on_c, 0, 53, 52
1, 246727, Note_on_c, 0, 65, 60
1, 246736, Note_on_c, 0, 59, 52
1, 246754, Note_off_c, 0, 65, 68
1, 246776, Note_off_c, 0, 59, 63
1, 246781, Note_off_c, 0, 53, 63
1, 246957, Control_c, 0, 64, 88
1, 246972, Control_c, 0, 64, 64
1, 246986, Control_c, 0, 64, 49
1, 246993, Note_on_c, 0, 31, 93
1, 246993, Note_on_c, 0, 43, 96
1, 247001, Control_c, 0, 64, 56
1, 247016, Control_c, 0, 64, 66
1, 247030, Control_c, 0, 64, 87
1, 247039, Note_off_c, 0, 43, 66
1, 247043, Note_off_c, 0, 31, 63
1, 247045, Control_c, 0, 64, 127
1, 247208, Note_on_c, 0, 53, 57
1, 247214, Note_on_c, 0, 59, 53
1, 247219, Note_on_c, 0, 65, 59
1, 247245, Note_off_c, 0, 53, 63
1, 247251, Note_off_c, 0, 59, 63
1, 247256, Note_off_c, 0, 65, 64
1, 247285, Note_on_c, 0, 82, 97
1, 247286, Note_on_c, 0, 75, 70
1, 247291, Note_on_c, 0, 70, 78
1, 247325, Note_on_c, 0, 65, 76
1, 247331, Note_on_c, 0, 59, 65
1, 247340, Note_on_c, 0, 53, 55
1, 247357, Note_off_c, 0, 59, 66
1, 247357, Note_off_c, 0, 65, 64
1, 247363, Note_off_c, 0, 53, 62
1, 247373, Note_off_c, 0, 75, 62
1, 247404, Note_off_c, 0, 82, 61
1, 247418, Note_on_c, 0, 65, 93
1, 247426, Note_on_c, 0, 53, 88
1, 247430, Note_on_c, 0, 59, 76
1, 247430, Note_off_c, 0, 70, 63
1, 247472, Note_off_c, 0, 65, 63
1, 247475, Note_off_c, 0, 59, 61
1, 247477, Note_off_c, 0, 53, 62
1, 247536, Note_on_c, 0, 53, 70
1, 247537, Note_on_c, 0, 65, 88
1, 247540, Note_on_c, 0, 83, 101
1, 247543, Note_on_c, 0, 71, 100
1, 247546, Note_on_c, 0, 59, 68
1, 247546, Note_on_c, 0, 76, 96
1, 247556, Note_on_c, 0, 56, 29
1, 247577, Note_off_c, 0, 76, 66
1, 247579, Note_off_c, 0, 71, 68
1, 247586, Note_off_c, 0, 53, 60
1, 247589, Note_off_c, 0, 65, 62
1, 247594, Note_off_c, 0, 56, 48
1, 247598, Note_off_c, 0, 59, 59
1, 247600, Note_off_c, 0, 83, 69
1, 247648, Note_on_c, 0, 65, 99
1, 247649, Note_on_c, 0, 53, 84
1, 247657, Note_on_c, 0, 59, 69
1, 247676, Note_off_c, 0, 65, 63
1, 247684, Note_off_c, 0, 59, 65
1, 247689, Note_off_c, 0, 53, 68
1, 247750, Control_c, 0, 64, 92
1, 247765, Control_c, 0, 64, 53
1, 247780, Control_c, 0, 64, 0
1, 247956, Note_on_c, 0, 91, 101
1, 247959, Note_on_c, 0, 79, 96
1, 247964, Note_on_c, 0, 84, 100
1, 247973, Note_on_c, 0, 28, 96
1, 247973, Note_on_c, 0, 40, 99
1, 247986, Control_c, 0, 64, 70
1, 247991, Note_off_c, 0, 79, 68
1, 247997, Note_off_c, 0, 91, 67
1, 247999, Note_off_c, 0, 84, 66
1, 248001, Control_c, 0, 64, 127
1, 248016, Note_off_c, 0, 40, 65
1, 248020, Note_off_c, 0, 28, 64
1, 248195, Note_on_c, 0, 86, 96
1, 248198, Note_on_c, 0, 74, 89
1, 248200, Note_on_c, 0, 79, 86
1, 248235, Note_off_c, 0, 79, 66
1, 248238, Note_off_c, 0, 74, 66
1, 248277, Note_off_c, 0, 86, 50
1, 248344, Note_on_c, 0, 56, 80
1, 248346, Note_on_c, 0, 68, 87
1, 248355, Note_on_c, 0, 62, 66
1, 248380, Note_on_c, 0, 72, 74
1, 248382, Note_on_c, 0, 84, 94
1, 248383, Note_off_c, 0, 62, 65
1, 248384, Note_on_c, 0, 77, 71
1, 248390, Note_off_c, 0, 68, 63
1, 248397, Note_off_c, 0, 56, 60
1, 248401, Note_off_c, 0, 72, 71
1, 248403, Note_off_c, 0, 77, 67
1, 248417, Note_off_c, 0, 84, 69
1, 248438, Note_on_c, 0, 68, 84
1, 248438, Note_on_c, 0, 56, 67
1, 248444, Note_on_c, 0, 62, 81
1, 248452, Note_on_c, 0, 91, 106
1, 248459, Note_on_c, 0, 79, 100
1, 248467, Note_on_c, 0, 84, 83
1, 248478, Note_off_c, 0, 79, 69
1, 248481, Note_off_c, 0, 91, 71
1, 248483, Note_off_c, 0, 84, 70
1, 248487, Note_off_c, 0, 68, 65
1, 248493, Note_off_c, 0, 62, 62
1, 248496, Note_off_c, 0, 56, 60
1, 248571, Note_on_c, 0, 68, 84
1, 248575, Note_on_c, 0, 56, 69
1, 248577, Note_on_c, 0, 62, 70
1, 248604, Note_off_c, 0, 62, 65
1, 248611, Note_off_c, 0, 56, 63
1, 248612, Note_off_c, 0, 68, 61
1, 248667, Note_on_c, 0, 68, 73
1, 248675, Note_on_c, 0, 56, 73
1, 248679, Note_on_c, 0, 62, 58
1, 248686, Note_off_c, 0, 68, 70
1, 248698, Note_off_c, 0, 62, 64
1, 248704, Note_off_c, 0, 56, 63
1, 248838, Note_on_c, 0, 56, 68
1, 248841, Note_on_c, 0, 86, 90
1, 248843, Note_on_c, 0, 68, 82
1, 248844, Note_on_c, 0, 74, 84
1, 248845, Note_on_c, 0, 62, 50
1, 248847, Note_on_c, 0, 79, 84
1, 248865, Note_off_c, 0, 56, 62
1, 248875, Note_off_c, 0, 68, 63
1, 248877, Note_off_c, 0, 79, 64
1, 248879, Note_off_c, 0, 62, 63
1, 248889, Note_off_c, 0, 74, 61
1, 248920, Note_off_c, 0, 86, 61
1, 248938, Note_on_c, 0, 62, 86
1, 248938, Note_on_c, 0, 68, 94
1, 248941, Note_on_c, 0, 56, 86
1, 248960, Note_on_c, 0, 84, 103
1, 248960, Note_on_c, 0, 72, 96
1, 248968, Note_on_c, 0, 77, 70
1, 248978, Note_off_c, 0, 62, 66
1, 248984, Note_off_c, 0, 77, 69
1, 248990, Note_off_c, 0, 68, 66
1, 248990, Note_off_c, 0, 56, 62
1, 249003, Note_off_c, 0, 72, 68
1, 249011, Note_off_c, 0, 84, 67
1, 249179, Note_on_c, 0, 91, 108
1, 249182, Note_on_c, 0, 79, 104
1, 249184, Note_on_c, 0, 84, 109
1, 249188, Note_on_c, 0, 74, 99
1, 249190, Note_on_c, 0, 68, 88
1, 249191, Note_on_c, 0, 62, 80
1, 249209, Note_off_c, 0, 79, 70
1, 249212, Note_off_c, 0, 84, 72
1, 249213, Note_off_c, 0, 68, 69
1, 249216, Note_off_c, 0, 91, 70
1, 249218, Note_off_c, 0, 74, 68
1, 249229, Note_off_c, 0, 62, 63
1, 249367, Control_c, 0, 67, 21
1, 249381, Control_c, 0, 67, 26
1, 249396, Control_c, 0, 67, 29
1, 249411, Control_c, 0, 67, 31
1, 249425, Control_c, 0, 67, 36
1, 249440, Control_c, 0, 67, 47
1, 249455, Control_c, 0, 67, 68
1, 249470, Control_c, 0, 67, 88
1, 249485, Control_c, 0, 67, 108
1, 249500, Control_c, 0, 67, 127
1, 249514, Control_c, 0, 64, 90
1, 249529, Control_c, 0, 64, 58
1, 249544, Control_c, 0, 64, 0
1, 249771, Note_on_c, 0, 52, 34
1, 249819, Control_c, 0, 64, 32
1, 249833, Control_c, 0, 64, 46
1, 249848, Control_c, 0, 64, 51
1, 249863, Control_c, 0, 64, 53
1, 249867, Note_on_c, 0, 72, 66
1, 249878, Control_c, 0, 64, 55
1, 249893, Control_c, 0, 64, 57
1, 249907, Control_c, 0, 64, 60
1, 249923, Control_c, 0, 64, 63
1, 249938, Control_c, 0, 64, 65
1, 249953, Control_c, 0, 64, 67
1, 249968, Control_c, 0, 64, 69
1, 249973, Note_on_c, 0, 62, 33
1, 249982, Control_c, 0, 64, 70
1, 249997, Control_c, 0, 64, 71
1, 250042, Control_c, 0, 64, 72
1, 250056, Control_c, 0, 64, 73
1, 250057, Note_off_c, 0, 52, 37
1, 250063, Note_off_c, 0, 62, 54
1, 250071, Control_c, 0, 64, 74
1, 250086, Control_c, 0, 64, 75
1, 250101, Control_c, 0, 64, 76
1, 250122, Note_on_c, 0, 67, 78
1, 250130, Control_c, 0, 64, 77
1, 250145, Control_c, 0, 64, 78
1, 250158, Note_off_c, 0, 72, 64
1, 250160, Control_c, 0, 64, 80
1, 250174, Note_on_c, 0, 60, 47
1, 250174, Control_c, 0, 64, 82
1, 250189, Control_c, 0, 64, 82
1, 250204, Control_c, 0, 64, 83
1, 250219, Control_c, 0, 64, 83
1, 250229, Note_off_c, 0, 60, 53
1, 250234, Control_c, 0, 64, 85
1, 250248, Control_c, 0, 64, 87
1, 250260, Note_off_c, 0, 67, 63
1, 250263, Control_c, 0, 64, 88
1, 250277, Note_on_c, 0, 72, 86
1, 250278, Control_c, 0, 64, 89
1, 250316, Note_off_c, 0, 72, 68
1, 250337, Control_c, 0, 64, 88
1, 250367, Control_c, 0, 64, 88
1, 250375, Poly_aftertouch_c, 0, 65, 0
1, 250382, Control_c, 0, 64, 86
1, 250397, Control_c, 0, 64, 84
1, 250399, Note_on_c, 0, 74, 81
1, 250412, Control_c, 0, 64, 81
1, 250426, Note_on_c, 0, 67, 42
1, 250427, Control_c, 0, 64, 76
1, 250442, Control_c, 0, 64, 70
1, 250447, Note_off_c, 0, 67, 55
1, 250456, Control_c, 0, 64, 63
1, 250471, Control_c, 0, 64, 56
1, 250481, Note_off_c, 0, 74, 60
1, 250486, Control_c, 0, 64, 52
1, 250508, Control_c, 0, 64, 50
1, 250512, Note_on_c, 0, 79, 72
1, 250523, Control_c, 0, 64, 51
1, 250537, Control_c, 0, 64, 54
1, 250552, Control_c, 0, 64, 59
1, 250567, Control_c, 0, 64, 63
1, 250582, Control_c, 0, 64, 64
1, 250589, Note_off_c, 0, 79, 64
1, 250597, Control_c, 0, 64, 65
1, 250602, Note_on_c, 0, 74, 67
1, 250628, Note_on_c, 0, 67, 37
1, 250631, Note_off_c, 0, 74, 65
1, 250641, Control_c, 0, 64, 66
1, 250654, Note_off_c, 0, 67, 51
1, 250656, Control_c, 0, 64, 65
1, 250668, Note_on_c, 0, 62, 48
1, 250671, Control_c, 0, 64, 64
1, 250686, Control_c, 0, 64, 61
1, 250700, Control_c, 0, 64, 59
1, 250725, Note_on_c, 0, 72, 70
1, 250732, Control_c, 0, 64, 61
1, 250746, Control_c, 0, 64, 62
1, 250761, Control_c, 0, 64, 64
1, 250766, Note_off_c, 0, 62, 61
1, 250769, Note_on_c, 0, 65, 28
1, 250776, Control_c, 0, 64, 65
1, 250786, Note_on_c, 0, 56, 43
1, 250791, Control_c, 0, 64, 66
1, 250805, Note_off_c, 0, 65, 51
1, 250805, Control_c, 0, 64, 67
1, 250820, Control_c, 0, 64, 68
1, 250835, Control_c, 0, 64, 70
1, 250842, Note_off_c, 0, 72, 49
1, 250850, Control_c, 0, 64, 74
1, 250865, Note_off_c, 0, 56, 55
1, 250865, Control_c, 0, 64, 78
1, 250868, Note_on_c, 0, 46, 37
1, 250875, Note_on_c, 0, 67, 48
1, 250880, Control_c, 0, 64, 81
1, 250891, Note_on_c, 0, 60, 28
1, 250895, Control_c, 0, 64, 83
1, 250910, Control_c, 0, 64, 84
1, 250924, Control_c, 0, 64, 86
1, 250926, Note_off_c, 0, 46, 47
1, 250939, Control_c, 0, 64, 89
1, 250946, Note_off_c, 0, 60, 47
1, 250954, Control_c, 0, 64, 94
1, 250969, Control_c, 0, 64, 100
1, 250981, Note_off_c, 0, 67, 61
1, 250984, Control_c, 0, 64, 108
1, 250998, Control_c, 0, 64, 117
1, 251004, Note_on_c, 0, 72, 55
1, 251013, Control_c, 0, 64, 127
1, 251035, Note_off_c, 0, 72, 67
1, 251162, Note_on_c, 0, 74, 16
1, 251264, Note_on_c, 0, 79, 57
1, 251270, Note_off_c, 0, 74, 38
1, 251348, Poly_aftertouch_c, 0, 72, 127
1, 251370, Note_on_c, 0, 67, 51
1, 251374, Note_off_c, 0, 79, 63
1, 251375, Note_on_c, 0, 74, 65
1, 251384, Poly_aftertouch_c, 0, 72, 0
1, 251394, Note_off_c, 0, 67, 65
1, 251401, Note_off_c, 0, 74, 67
1, 251435, Control_c, 0, 67, 99
1, 251450, Control_c, 0, 67, 21
1, 251465, Control_c, 0, 64, 79
1, 251465, Control_c, 0, 67, 0
1, 251479, Control_c, 0, 64, 0
1, 251614, Control_c, 0, 64, 93
1, 251623, Note_on_c, 0, 91, 101
1, 251628, Note_on_c, 0, 79, 102
1, 251628, Control_c, 0, 64, 127
1, 251633, Note_on_c, 0, 28, 95
1, 251634, Note_on_c, 0, 84, 103
1, 251635, Note_on_c, 0, 40, 95
1, 251662, Note_off_c, 0, 79, 69
1, 251667, Note_off_c, 0, 84, 70
1, 251667, Note_off_c, 0, 91, 68
1, 251671, Note_off_c, 0, 28, 62
1, 251674, Note_off_c, 0, 40, 65
1, 251840, Note_on_c, 0, 86, 95
1, 251843, Note_on_c, 0, 79, 92
1, 251844, Note_on_c, 0, 74, 92
1, 251876, Note_off_c, 0, 79, 66
1, 251878, Note_off_c, 0, 74, 62
1, 251903, Note_off_c, 0, 86, 58
1, 251942, Note_on_c, 0, 56, 77
1, 251946, Note_on_c, 0, 68, 89
1, 251955, Note_on_c, 0, 62, 67
1, 251988, Note_off_c, 0, 62, 62
1, 251990, Note_off_c, 0, 68, 64
1, 252005, Note_on_c, 0, 84, 102
1, 252007, Note_off_c, 0, 56, 60
1, 252013, Note_on_c, 0, 77, 63
1, 252023, Note_on_c, 0, 72, 45
1, 252033, Note_off_c, 0, 77, 66
1, 252038, Note_off_c, 0, 84, 70
1, 252049, Note_off_c, 0, 72, 58
1, 252060, Note_on_c, 0, 68, 89
1, 252069, Note_on_c, 0, 56, 68
1, 252069, Note_on_c, 0, 62, 75
1, 252081, Note_on_c, 0, 91, 109
1, 252098, Note_on_c, 0, 79, 69
1, 252102, Note_off_c, 0, 56, 61
1, 252106, Note_off_c, 0, 68, 65
1, 252108, Note_off_c, 0, 91, 71
1, 252114, Note_off_c, 0, 79, 68
1, 252117, Note_off_c, 0, 62, 60
1, 252133, Note_on_c, 0, 81, 15
1, 252133, Note_off_c, 0, 81, 127
1, 252160, Note_on_c, 0, 68, 94
1, 252173, Note_on_c, 0, 62, 66
1, 252177, Note_on_c, 0, 56, 80
1, 252196, Note_off_c, 0, 68, 67
1, 252203, Note_off_c, 0, 56, 66
1, 252209, Note_off_c, 0, 62, 63
1, 252245, Note_on_c, 0, 68, 99
1, 252259, Note_on_c, 0, 57, 71
1, 252260, Note_on_c, 0, 62, 77
1, 252286, Note_off_c, 0, 62, 63
1, 252287, Note_off_c, 0, 57, 65
1, 252290, Note_off_c, 0, 68, 66
1, 252348, Note_on_c, 0, 72, 95
1, 252358, Note_on_c, 0, 74, 82
1, 252371, Note_on_c, 0, 60, 68
1, 252372, Note_off_c, 0, 74, 70
1, 252377, Note_off_c, 0, 72, 66
1, 252379, Note_on_c, 0, 62, 67
1, 252401, Note_off_c, 0, 60, 67
1, 252406, Note_off_c, 0, 62, 67
1, 252445, Poly_aftertouch_c, 0, 61, 0
1, 252476, Poly_aftertouch_c, 0, 68, 0
1, 252495, Note_on_c, 0, 68, 60
1, 252498, Note_on_c, 0, 62, 58
1, 252505, Note_on_c, 0, 56, 68
1, 252527, Note_off_c, 0, 62, 65
1, 252534, Note_off_c, 0, 56, 62
1, 252537, Note_off_c, 0, 68, 61
1, 252594, Note_on_c, 0, 86, 88
1, 252602, Note_on_c, 0, 74, 76
1, 252616, Note_on_c, 0, 79, 60
1, 252629, Note_on_c, 0, 68, 77
1, 252636, Note_on_c, 0, 56, 64
1, 252636, Note_off_c, 0, 79, 67
1, 252640, Note_off_c, 0, 74, 62
1, 252642, Note_on_c, 0, 62, 47
1, 252656, Note_off_c, 0, 68, 64
1, 252668, Note_off_c, 0, 56, 63
1, 252672, Note_off_c, 0, 62, 54
1, 252679, Note_off_c, 0, 86, 61
1, 252708, Note_on_c, 0, 68, 89
1, 252725, Note_on_c, 0, 56, 72
1, 252729, Note_on_c, 0, 84, 99
1, 252731, Note_on_c, 0, 62, 72
1, 252731, Note_on_c, 0, 72, 82
1, 252761, Note_off_c, 0, 68, 62
1, 252766, Note_on_c, 0, 77, 37
1, 252770, Note_off_c, 0, 56, 60
1, 252775, Note_off_c, 0, 72, 60
1, 252781, Note_off_c, 0, 84, 66
1, 252784, Note_off_c, 0, 62, 54
1, 252795, Note_off_c, 0, 77, 58
1, 252847, Note_on_c, 0, 68, 81
1, 252855, Note_on_c, 0, 56, 67
1, 252856, Note_on_c, 0, 62, 58
1, 252864, Note_on_c, 0, 91, 109
1, 252870, Note_on_c, 0, 79, 95
1, 252873, Note_on_c, 0, 85, 83
1, 252880, Note_on_c, 0, 84, 84
1, 252884, Note_off_c, 0, 56, 64
1, 252891, Note_off_c, 0, 68, 64
1, 252891, Note_off_c, 0, 79, 68
1, 252892, Note_off_c, 0, 85, 73
1, 252892, Note_off_c, 0, 91, 70
1, 252898, Note_off_c, 0, 84, 72
1, 252908, Note_on_c, 0, 60, 5
1, 252910, Note_off_c, 0, 62, 58
1, 252958, Note_on_c, 0, 68, 79
1, 252982, Note_on_c, 0, 56, 42
1, 252990, Note_on_c, 0, 62, 27
1, 252999, Note_off_c, 0, 68, 62
1, 253011, Note_off_c, 0, 56, 54
1, 253019, Note_off_c, 0, 60, 39
1, 253036, Note_off_c, 0, 62, 0
1, 253047, Note_on_c, 0, 68, 65
1, 253049, Note_on_c, 0, 62, 46
1, 253052, Note_on_c, 0, 56, 56
1, 253066, Control_c, 0, 64, 111
1, 253069, Note_off_c, 0, 68, 64
1, 253078, Note_off_c, 0, 56, 67
1, 253080, Note_off_c, 0, 62, 63
1, 253081, Control_c, 0, 64, 61
1, 253095, Control_c, 0, 64, 0
1, 253216, Note_on_c, 0, 72, 66
1, 253229, Note_on_c, 0, 52, 54
1, 253250, Note_on_c, 0, 65, 52
1, 253273, Note_on_c, 0, 62, 79
1, 253294, Note_off_c, 0, 65, 65
1, 253295, Note_off_c, 0, 62, 69
1, 253300, Note_off_c, 0, 52, 62
1, 253318, Control_c, 0, 67, 22
1, 253333, Note_off_c, 0, 72, 62
1, 253333, Control_c, 0, 67, 25
1, 253344, Note_on_c, 0, 67, 64
1, 253346, Note_on_c, 0, 60, 60
1, 253348, Control_c, 0, 67, 27
1, 253382, Note_off_c, 0, 60, 61
1, 253393, Control_c, 0, 67, 30
1, 253402, Note_off_c, 0, 67, 61
1, 253418, Note_on_c, 0, 72, 67
1, 253422, Control_c, 0, 67, 32
1, 253439, Note_on_c, 0, 65, 35
1, 253439, Note_off_c, 0, 65, 127
1, 253444, Note_off_c, 0, 72, 67
1, 253481, Note_on_c, 0, 62, 71
1, 253504, Control_c, 0, 64, 39
1, 253518, Control_c, 0, 64, 0
1, 253519, Note_on_c, 0, 73, 79
1, 253524, Note_off_c, 0, 62, 62
1, 253530, Note_on_c, 0, 66, 67
1, 253541, Note_on_c, 0, 56, 76
1, 253561, Note_off_c, 0, 66, 63
1, 253563, Note_off_c, 0, 56, 66
1, 253580, Note_on_c, 0, 46, 42
1, 253580, Note_off_c, 0, 46, 127
1, 253597, Note_on_c, 0, 78, 75
1, 253600, Note_off_c, 0, 73, 61
1, 253623, Note_on_c, 0, 71, 48
1, 253655, Note_on_c, 0, 73, 71
1, 253655, Note_off_c, 0, 71, 58
1, 253657, Note_on_c, 0, 66, 67
1, 253660, Note_off_c, 0, 78, 63
1, 253679, Note_off_c, 0, 73, 68
1, 253682, Note_off_c, 0, 66, 67
1, 253700, Note_on_c, 0, 42, 67
1, 253712, Control_c, 0, 67, 28
1, 253726, Control_c, 0, 67, 26
1, 253738, Note_on_c, 0, 52, 73
1, 253741, Control_c, 0, 64, 31
1, 253741, Control_c, 0, 67, 22
1, 253756, Control_c, 0, 64, 59
1, 253756, Control_c, 0, 67, 20
1, 253756, Note_on_c, 0, 74, 76
1, 253760, Note_on_c, 0, 67, 64
1, 253765, Note_on_c, 0, 58, 82
1, 253767, Note_off_c, 0, 42, 64
1, 253771, Control_c, 0, 64, 49
1, 253777, Note_off_c, 0, 52, 62
1, 253786, Control_c, 0, 64, 0
1, 253787, Note_off_c, 0, 67, 69
1, 253794, Note_off_c, 0, 58, 68
1, 253801, Note_off_c, 0, 74, 61
1, 253814, Note_on_c, 0, 62, 61
1, 253815, Control_c, 0, 67, 22
1, 253824, Note_on_c, 0, 69, 75
1, 253830, Control_c, 0, 67, 24
1, 253860, Control_c, 0, 67, 26
1, 253871, Note_off_c, 0, 62, 62
1, 253876, Note_off_c, 0, 69, 61
1, 253879, Note_on_c, 0, 74, 90
1, 253917, Note_off_c, 0, 74, 65
1, 253922, Note_on_c, 0, 67, 18
1, 253922, Note_off_c, 0, 67, 127
1, 253935, Control_c, 0, 67, 24
1, 253935, Note_on_c, 0, 52, 82
1, 253949, Control_c, 0, 67, 22
1, 253964, Control_c, 0, 67, 20
1, 253975, Note_on_c, 0, 46, 81
1, 253977, Note_off_c, 0, 52, 63
1, 253979, Control_c, 0, 64, 54
1, 253979, Control_c, 0, 67, 0
1, 253987, Note_on_c, 0, 75, 85
1, 253991, Note_on_c, 0, 36, 86
1, 253994, Note_on_c, 0, 45, 76
1, 253994, Control_c, 0, 64, 83
1, 253997, Note_on_c, 0, 68, 69
1, 254004, Note_off_c, 0, 46, 58
1, 254009, Control_c, 0, 64, 127
1, 254013, Note_off_c, 0, 45, 65
1, 254017, Note_off_c, 0, 36, 67
1, 254019, Note_off_c, 0, 68, 70
1, 254048, Note_off_c, 0, 75, 46
1, 254051, Note_on_c, 0, 80, 94
1, 254097, Control_c, 0, 64, 110
1, 254101, Note_on_c, 0, 68, 47
1, 254102, Note_on_c, 0, 75, 86
1, 254111, Note_off_c, 0, 80, 65
1, 254112, Control_c, 0, 64, 66
1, 254112, Control_c, 0, 67, 21
1, 254127, Control_c, 0, 64, 0
1, 254134, Note_off_c, 0, 68, 66
1, 254138, Note_off_c, 0, 75, 66
1, 254141, Control_c, 0, 67, 23
1, 254356, Control_c, 0, 67, 21
1, 254428, Note_on_c, 0, 54, 109
1, 254429, Note_on_c, 0, 42, 102
1, 254460, Control_c, 0, 67, 19
1, 254475, Control_c, 0, 67, 0
1, 254534, Control_c, 0, 64, 51
1, 254549, Control_c, 0, 64, 65
1, 254564, Control_c, 0, 64, 73
1, 254579, Control_c, 0, 64, 92
1, 254594, Control_c, 0, 64, 127
1, 254629, Note_off_c, 0, 42, 64
1, 254634, Note_off_c, 0, 54, 65
1, 254826, Note_on_c, 0, 70, 71
1, 254829, Note_on_c, 0, 58, 57
1, 254838, Note_on_c, 0, 64, 54
1, 254890, Note_off_c, 0, 70, 63
1, 254892, Note_off_c, 0, 58, 61
1, 254905, Note_off_c, 0, 64, 61
1, 254968, Note_on_c, 0, 70, 87
1, 254979, Note_on_c, 0, 64, 50
1, 254999, Note_on_c, 0, 58, 59
1, 255024, Note_off_c, 0, 58, 62
1, 255024, Note_off_c, 0, 70, 64
1, 255029, Note_off_c, 0, 64, 63
1, 255089, Note_on_c, 0, 86, 108
1, 255090, Note_on_c, 0, 74, 100
1, 255093, Note_on_c, 0, 79, 103
1, 255096, Note_on_c, 0, 70, 89
1, 255108, Note_on_c, 0, 58, 61
1, 255120, Note_off_c, 0, 74, 70
1, 255125, Note_on_c, 0, 64, 55
1, 255125, Note_off_c, 0, 79, 73
1, 255127, Note_on_c, 0, 84, 45
1, 255127, Note_off_c, 0, 84, 127
1, 255135, Note_off_c, 0, 86, 69
1, 255143, Note_off_c, 0, 64, 66
1, 255146, Note_off_c, 0, 70, 62
1, 255152, Note_off_c, 0, 58, 62
1, 255219, Note_on_c, 0, 70, 79
1, 255220, Note_on_c, 0, 64, 58
1, 255248, Note_on_c, 0, 58, 32
1, 255258, Note_off_c, 0, 64, 62
1, 255261, Note_off_c, 0, 70, 54
1, 255307, Note_off_c, 0, 58, 0
1, 255310, Note_on_c, 0, 70, 50
1, 255319, Note_on_c, 0, 58, 57
1, 255329, Note_on_c, 0, 64, 42
1, 255338, Note_off_c, 0, 70, 59
1, 255350, Note_off_c, 0, 58, 68
1, 255351, Note_off_c, 0, 64, 59
1, 255551, Control_c, 0, 64, 85
1, 255554, Poly_aftertouch_c, 0, 37, 127
1, 255566, Control_c, 0, 64, 67
1, 255581, Control_c, 0, 64, 58
1, 255588, Note_on_c, 0, 48, 101
1, 255589, Note_on_c, 0, 36, 94
1, 255590, Poly_aftertouch_c, 0, 37, 0
1, 255595, Control_c, 0, 64, 61
1, 255610, Control_c, 0, 64, 70
1, 255625, Control_c, 0, 64, 94
1, 255640, Control_c, 0, 64, 127
1, 255646, Note_off_c, 0, 48, 67
1, 255650, Note_off_c, 0, 36, 64
1, 255929, Note_on_c, 0, 70, 102
1, 255940, Note_on_c, 0, 58, 80
1, 255944, Note_on_c, 0, 64, 66
1, 255974, Note_off_c, 0, 64, 61
1, 256016, Note_off_c, 0, 58, 58
1, 256020, Note_off_c, 0, 70, 62
1, 256080, Note_on_c, 0, 70, 90
1, 256084, Note_on_c, 0, 58, 64
1, 256099, Note_on_c, 0, 64, 55
1, 256130, Note_off_c, 0, 70, 62
1, 256135, Note_off_c, 0, 64, 64
1, 256138, Note_off_c, 0, 58, 60
1, 256164, Note_on_c, 0, 87, 100
1, 256167, Note_on_c, 0, 75, 99
1, 256168, Note_on_c, 0, 80, 100
1, 256180, Note_on_c, 0, 70, 90
1, 256187, Note_on_c, 0, 58, 64
1, 256198, Note_on_c, 0, 64, 73
1, 256198, Note_off_c, 0, 75, 70
1, 256201, Note_off_c, 0, 80, 69
1, 256202, Note_off_c, 0, 87, 71
1, 256230, Note_off_c, 0, 70, 65
1, 256235, Note_off_c, 0, 64, 54
1, 256238, Note_off_c, 0, 58, 61
1, 256291, Note_on_c, 0, 70, 83
1, 256302, Note_on_c, 0, 58, 54
1, 256305, Note_on_c, 0, 64, 60
1, 256325, Note_off_c, 0, 58, 63
1, 256334, Note_off_c, 0, 70, 61
1, 256338, Note_off_c, 0, 64, 64
1, 256377, Note_on_c, 0, 70, 55
1, 256383, Note_on_c, 0, 58, 86
1, 256387, Note_on_c, 0, 64, 73
1, 256397, Note_off_c, 0, 70, 67
1, 256408, Note_off_c, 0, 64, 65
1, 256409, Note_off_c, 0, 58, 68
1, 256543, Control_c, 0, 64, 105
1, 256558, Control_c, 0, 64, 73
1, 256573, Control_c, 0, 64, 47
1, 256588, Control_c, 0, 64, 0
1, 256633, Note_on_c, 0, 42, 100
1, 256635, Note_on_c, 0, 30, 98
1, 256662, Control_c, 0, 64, 68
1, 256677, Control_c, 0, 64, 127
1, 256687, Note_off_c, 0, 30, 65
1, 256688, Note_off_c, 0, 42, 67
1, 256901, Note_on_c, 0, 70, 86
1, 256908, Note_on_c, 0, 58, 69
1, 256915, Note_on_c, 0, 64, 54
1, 256921, Note_on_c, 0, 93, 103
1, 256922, Note_on_c, 0, 81, 100
1, 256924, Note_on_c, 0, 86, 104
1, 256955, Note_off_c, 0, 81, 70
1, 256955, Note_off_c, 0, 70, 66
1, 256958, Note_off_c, 0, 86, 69
1, 256959, Note_off_c, 0, 64, 62
1, 256963, Note_off_c, 0, 93, 70
1, 256967, Note_off_c, 0, 58, 61
1, 257031, Note_on_c, 0, 70, 78
1, 257046, Note_on_c, 0, 58, 49
1, 257048, Note_on_c, 0, 64, 49
1, 257079, Note_off_c, 0, 58, 64
1, 257080, Note_off_c, 0, 70, 62
1, 257081, Note_off_c, 0, 64, 65
1, 257154, Note_on_c, 0, 70, 68
1, 257166, Note_on_c, 0, 58, 62
1, 257172, Note_on_c, 0, 64, 54
1, 257196, Note_on_c, 0, 88, 102
1, 257196, Note_on_c, 0, 76, 97
1, 257200, Note_on_c, 0, 81, 86
1, 257202, Note_off_c, 0, 64, 57
1, 257204, Note_off_c, 0, 58, 63
1, 257205, Note_off_c, 0, 70, 62
1, 257219, Note_off_c, 0, 81, 72
1, 257227, Note_off_c, 0, 76, 65
1, 257229, Note_off_c, 0, 88, 68
1, 257271, Note_on_c, 0, 86, 106
1, 257275, Note_on_c, 0, 74, 101
1, 257284, Note_on_c, 0, 79, 85
1, 257287, Note_on_c, 0, 70, 90
1, 257294, Note_on_c, 0, 58, 76
1, 257295, Note_on_c, 0, 64, 70
1, 257301, Note_off_c, 0, 79, 74
1, 257307, Note_off_c, 0, 74, 67
1, 257312, Note_off_c, 0, 86, 65
1, 257323, Note_off_c, 0, 64, 63
1, 257333, Note_off_c, 0, 70, 65
1, 257354, Note_off_c, 0, 58, 58
1, 257411, Note_on_c, 0, 58, 62
1, 257423, Note_on_c, 0, 70, 77
1, 257440, Note_on_c, 0, 64, 50
1, 257449, Note_off_c, 0, 70, 62
1, 257459, Note_off_c, 0, 64, 64
1, 257503, Note_on_c, 0, 70, 67
1, 257518, Note_on_c, 0, 64, 64
1, 257528, Note_on_c, 0, 62, 53
1, 257538, Note_off_c, 0, 58, 58
1, 257539, Note_off_c, 0, 70, 65
1, 257551, Note_off_c, 0, 64, 65
1, 257596, Note_on_c, 0, 74, 82
1, 257608, Note_on_c, 0, 70, 80
1, 257614, Note_off_c, 0, 74, 72
1, 257639, Note_on_c, 0, 64, 31
1, 257648, Note_off_c, 0, 62, 50
1, 257672, Note_on_c, 0, 58, 72
1, 257677, Note_off_c, 0, 64, 0
1, 257677, Note_on_c, 0, 64, 15
1, 257688, Note_off_c, 0, 70, 66
1, 257713, Note_off_c, 0, 64, 64
1, 257715, Note_off_c, 0, 58, 66
1, 257780, Note_on_c, 0, 70, 79
1, 257783, Note_on_c, 0, 58, 72
1, 257785, Note_on_c, 0, 64, 64
1, 257802, Note_off_c, 0, 70, 64
1, 257807, Note_off_c, 0, 58, 69
1, 257816, Note_off_c, 0, 64, 65
1, 257863, Note_on_c, 0, 70, 85
1, 257870, Note_on_c, 0, 58, 77
1, 257870, Note_on_c, 0, 64, 77
1, 257889, Note_off_c, 0, 58, 71
1, 257891, Note_off_c, 0, 64, 67
1, 257912, Note_off_c, 0, 70, 61
1, 257945, Note_on_c, 0, 64, 81
1, 257950, Note_on_c, 0, 58, 78
1, 257950, Note_on_c, 0, 70, 70
1, 257987, Note_off_c, 0, 58, 65
1, 257997, Note_off_c, 0, 64, 62
1, 258010, Note_off_c, 0, 70, 64
1, 258030, Note_on_c, 0, 64, 70
1, 258030, Note_on_c, 0, 70, 66
1, 258033, Note_on_c, 0, 58, 87
1, 258061, Note_off_c, 0, 58, 64
1, 258066, Note_off_c, 0, 64, 66
1, 258084, Note_off_c, 0, 70, 65
1, 258101, Control_c, 0, 64, 80
1, 258115, Control_c, 0, 64, 53
1, 258130, Control_c, 0, 64, 0
1, 258178, Note_on_c, 0, 54, 100
1, 258180, Note_on_c, 0, 42, 89
1, 258323, Control_c, 0, 64, 49
1, 258338, Note_off_c, 0, 42, 64
1, 258338, Control_c, 0, 64, 72
1, 258353, Control_c, 0, 64, 84
1, 258354, Note_off_c, 0, 54, 65
1, 258368, Control_c, 0, 64, 110
1, 258383, Control_c, 0, 64, 127
1, 258497, Note_on_c, 0, 70, 89
1, 258521, Note_on_c, 0, 58, 54
1, 258537, Note_on_c, 0, 64, 38
1, 258567, Note_off_c, 0, 58, 55
1, 258576, Note_off_c, 0, 70, 64
1, 258586, Note_off_c, 0, 64, 62
1, 258648, Note_on_c, 0, 70, 77
1, 258661, Note_on_c, 0, 58, 55
1, 258668, Note_on_c, 0, 64, 49
1, 258681, Note_off_c, 0, 70, 57
1, 258699, Note_off_c, 0, 58, 64
1, 258702, Note_off_c, 0, 64, 64
1, 258750, Note_on_c, 0, 86, 99
1, 258751, Note_on_c, 0, 74, 95
1, 258755, Note_on_c, 0, 79, 94
1, 258758, Note_on_c, 0, 70, 82
1, 258777, Note_on_c, 0, 58, 51
1, 258781, Note_off_c, 0, 74, 66
1, 258786, Note_off_c, 0, 79, 67
1, 258787, Note_on_c, 0, 64, 51
1, 258797, Note_off_c, 0, 86, 66
1, 258804, Note_off_c, 0, 58, 64
1, 258807, Note_off_c, 0, 70, 62
1, 258809, Note_off_c, 0, 64, 62
1, 258865, Note_on_c, 0, 70, 68
1, 258895, Note_on_c, 0, 64, 42
1, 258897, Note_on_c, 0, 58, 34
1, 258941, Note_off_c, 0, 58, 0
1, 258952, Note_off_c, 0, 70, 62
1, 258954, Note_on_c, 0, 58, 56
1, 258972, Note_off_c, 0, 64, 0
1, 258972, Note_on_c, 0, 64, 10
1, 258985, Note_off_c, 0, 64, 0
1, 258985, Note_off_c, 0, 58, 67
1, 259011, Poly_aftertouch_c, 0, 64, 0
1, 259146, Control_c, 0, 64, 92
1, 259161, Control_c, 0, 64, 70
1, 259174, Note_on_c, 0, 48, 96
1, 259176, Note_on_c, 0, 36, 88
1, 259176, Control_c, 0, 64, 62
1, 259191, Control_c, 0, 64, 65
1, 259205, Control_c, 0, 64, 73
1, 259218, Note_off_c, 0, 48, 67
1, 259220, Control_c, 0, 64, 91
1, 259230, Note_off_c, 0, 36, 64
1, 259235, Control_c, 0, 64, 127
1, 259405, Note_on_c, 0, 70, 73
1, 259405, Note_on_c, 0, 58, 50
1, 259408, Note_on_c, 0, 64, 48
1, 259444, Note_off_c, 0, 58, 53
1, 259446, Note_off_c, 0, 70, 59
1, 259449, Note_off_c, 0, 64, 61
1, 259507, Note_on_c, 0, 70, 74
1, 259512, Note_on_c, 0, 64, 55
1, 259514, Note_on_c, 0, 58, 69
1, 259545, Note_off_c, 0, 64, 64
1, 259545, Note_off_c, 0, 58, 62
1, 259557, Note_off_c, 0, 70, 63
1, 259584, Note_on_c, 0, 87, 91
1, 259588, Note_on_c, 0, 75, 76
1, 259594, Note_on_c, 0, 80, 79
1, 259616, Note_on_c, 0, 70, 73
1, 259628, Note_on_c, 0, 58, 61
1, 259633, Note_on_c, 0, 64, 59
1, 259661, Note_off_c, 0, 58, 65
1, 259664, Note_off_c, 0, 70, 63
1, 259667, Note_off_c, 0, 64, 65
1, 259677, Note_off_c, 0, 80, 64
1, 259696, Note_off_c, 0, 87, 58
1, 259704, Note_off_c, 0, 75, 54
1, 259715, Note_on_c, 0, 70, 89
1, 259728, Note_on_c, 0, 58, 84
1, 259730, Note_on_c, 0, 64, 71
1, 259775, Note_off_c, 0, 70, 63
1, 259793, Note_off_c, 0, 58, 54
1, 259796, Note_off_c, 0, 64, 57
1, 259840, Note_on_c, 0, 70, 103
1, 259840, Note_on_c, 0, 88, 110
1, 259843, Note_on_c, 0, 76, 101
1, 259845, Note_on_c, 0, 58, 79
1, 259846, Note_on_c, 0, 64, 63
1, 259852, Note_on_c, 0, 81, 79
1, 259867, Note_off_c, 0, 81, 70
1, 259873, Note_off_c, 0, 64, 68
1, 259876, Note_off_c, 0, 76, 70
1, 259877, Note_off_c, 0, 70, 71
1, 259888, Note_off_c, 0, 88, 70
1, 259904, Note_off_c, 0, 58, 66
1, 260028, Control_c, 0, 64, 82
1, 260043, Control_c, 0, 64, 47
1, 260058, Control_c, 0, 64, 0
1, 260183, Note_on_c, 0, 96, 103
1, 260187, Note_on_c, 0, 84, 102
1, 260190, Note_on_c, 0, 89, 99
1, 260198, Note_on_c, 0, 33, 95
1, 260198, Note_on_c, 0, 45, 100
1, 260221, Control_c, 0, 64, 59
1, 260224, Note_off_c, 0, 84, 67
1, 260226, Note_off_c, 0, 89, 69
1, 260237, Note_off_c, 0, 96, 68
1, 260243, Control_c, 0, 64, 127
1, 260254, Note_off_c, 0, 33, 66
1, 260255, Note_off_c, 0, 45, 67
1, 260424, Note_on_c, 0, 91, 104
1, 260427, Note_on_c, 0, 84, 97
1, 260428, Note_on_c, 0, 79, 91
1, 260464, Note_off_c, 0, 84, 67
1, 260465, Note_off_c, 0, 79, 68
1, 260571, Note_off_c, 0, 91, 63
1, 260583, Note_on_c, 0, 67, 80
1, 260588, Note_on_c, 0, 55, 72
1, 260596, Note_on_c, 0, 61, 59
1, 260603, Note_on_c, 0, 82, 95
1, 260609, Note_on_c, 0, 77, 78
1, 260610, Note_on_c, 0, 89, 96
1, 260626, Note_off_c, 0, 55, 54
1, 260629, Note_off_c, 0, 61, 64
1, 260630, Note_off_c, 0, 67, 62
1, 260630, Note_off_c, 0, 77, 70
1, 260632, Note_off_c, 0, 82, 64
1, 260645, Note_off_c, 0, 89, 68
1, 260673, Note_on_c, 0, 67, 74
1, 260678, Poly_aftertouch_c, 0, 89, 0
1, 260679, Note_on_c, 0, 96, 104
1, 260680, Note_on_c, 0, 55, 63
1, 260681, Note_on_c, 0, 61, 85
1, 260687, Note_on_c, 0, 84, 90
1, 260688, Note_on_c, 0, 89, 70
1, 260701, Note_on_c, 0, 90, 67
1, 260705, Note_off_c, 0, 84, 74
1, 260709, Note_off_c, 0, 96, 70
1, 260714, Note_off_c, 0, 89, 67
1, 260717, Note_on_c, 0, 91, 41
1, 260717, Note_off_c, 0, 91, 127
1, 260719, Note_on_c, 0, 86, 47
1, 260719, Note_off_c, 0, 86, 127
1, 260719, Note_off_c, 0, 90, 64
1, 260723, Note_off_c, 0, 67, 66
1, 260731, Note_off_c, 0, 61, 60
1, 260743, Note_off_c, 0, 55, 62
1, 260811, Note_on_c, 0, 67, 80
1, 260818, Note_on_c, 0, 61, 73
1, 260852, Note_on_c, 0, 55, 25
1, 260857, Note_off_c, 0, 61, 57
1, 260857, Note_off_c, 0, 67, 61
1, 260886, Note_off_c, 0, 55, 48
1, 260949, Note_on_c, 0, 67, 68
1, 260965, Note_on_c, 0, 61, 57
1, 260988, Note_off_c, 0, 67, 54
1, 260994, Note_on_c, 0, 55, 43
1, 261002, Note_off_c, 0, 61, 63
1, 261026, Note_off_c, 0, 55, 54
1, 261074, Note_on_c, 0, 61, 78
1, 261076, Note_on_c, 0, 67, 80
1, 261076, Note_on_c, 0, 91, 100
1, 261080, Note_on_c, 0, 84, 84
1, 261080, Note_on_c, 0, 79, 93
1, 261110, Note_off_c, 0, 67, 63
1, 261111, Note_off_c, 0, 61, 59
1, 261117, Note_off_c, 0, 84, 64
1, 261120, Note_off_c, 0, 79, 66
1, 261138, Note_off_c, 0, 91, 60
1, 261143, Note_on_c, 0, 55, 2
1, 261167, Note_off_c, 0, 55, 0
1, 261167, Note_on_c, 0, 55, 29
1, 261172, Note_on_c, 0, 67, 89
1, 261181, Note_on_c, 0, 61, 87
1, 261208, Note_on_c, 0, 89, 102
1, 261209, Note_off_c, 0, 61, 63
1, 261209, Note_on_c, 0, 77, 92
1, 261210, Note_off_c, 0, 67, 66
1, 261212, Note_on_c, 0, 82, 92
1, 261224, Note_off_c, 0, 55, 63
1, 261239, Note_off_c, 0, 82, 63
1, 261243, Note_off_c, 0, 77, 64
1, 261259, Note_off_c, 0, 89, 67
1, 261407, Note_on_c, 0, 96, 103
1, 261410, Note_on_c, 0, 67, 77
1, 261411, Note_on_c, 0, 84, 102
1, 261411, Note_on_c, 0, 73, 98
1, 261413, Note_on_c, 0, 89, 103
1, 261423, Note_on_c, 0, 61, 72
1, 261435, Note_off_c, 0, 67, 70
1, 261439, Note_off_c, 0, 73, 67
1, 261443, Note_off_c, 0, 84, 69
1, 261445, Note_off_c, 0, 61, 69
1, 261445, Note_off_c, 0, 89, 71
1, 261451, Note_off_c, 0, 96, 69
1, 261476, Note_on_c, 0, 72, 26
1, 261515, Note_off_c, 0, 72, 45
1, 261740, Control_c, 0, 67, 40
1, 261755, Control_c, 0, 64, 100
1, 261755, Control_c, 0, 67, 44
1, 261770, Control_c, 0, 64, 80
1, 261770, Control_c, 0, 67, 33
1, 261784, Control_c, 0, 64, 64
1, 261784, Control_c, 0, 67, 35
1, 261799, Control_c, 0, 64, 46
1, 261799, Control_c, 0, 67, 41
1, 261814, Control_c, 0, 64, 0
1, 261814, Control_c, 0, 67, 42
1, 261829, Control_c, 0, 67, 43
1, 261844, Control_c, 0, 67, 45
1, 261858, Control_c, 0, 67, 49
1, 261873, Control_c, 0, 67, 56
1, 261888, Control_c, 0, 67, 64
1, 261904, Control_c, 0, 67, 70
1, 261919, Control_c, 0, 67, 76
1, 261933, Note_on_c, 0, 45, 42
1, 261934, Control_c, 0, 67, 84
1, 261949, Control_c, 0, 67, 90
1, 261960, Note_on_c, 0, 77, 85
1, 261963, Control_c, 0, 67, 97
1, 261978, Control_c, 0, 67, 104
1, 261993, Control_c, 0, 67, 112
1, 262007, Control_c, 0, 67, 120
1, 262022, Control_c, 0, 67, 127
1, 262052, Control_c, 0, 64, 44
1, 262067, Control_c, 0, 64, 57
1, 262082, Control_c, 0, 64, 62
1, 262097, Control_c, 0, 64, 65
1, 262106, Note_off_c, 0, 45, 54
1, 262112, Control_c, 0, 64, 67
1, 262114, Note_on_c, 0, 55, 50
1, 262127, Control_c, 0, 64, 69
1, 262142, Control_c, 0, 64, 71
1, 262156, Control_c, 0, 64, 72
1, 262204, Note_off_c, 0, 55, 59
1, 262230, Control_c, 0, 64, 73
1, 262240, Note_on_c, 0, 65, 69
1, 262240, Note_on_c, 0, 61, 43
1, 262245, Control_c, 0, 64, 75
1, 262246, Note_on_c, 0, 72, 56
1, 262247, Note_off_c, 0, 77, 60
1, 262260, Control_c, 0, 64, 76
1, 262268, Note_off_c, 0, 61, 58
1, 262274, Control_c, 0, 64, 77
1, 262384, Note_off_c, 0, 65, 52
1, 262386, Note_off_c, 0, 72, 51
1, 262407, Note_on_c, 0, 70, 55
1, 262415, Note_on_c, 0, 77, 64
1, 262428, Note_off_c, 0, 70, 61
1, 262457, Note_off_c, 0, 77, 60
1, 262489, Control_c, 0, 64, 75
1, 262504, Control_c, 0, 64, 73
1, 262519, Control_c, 0, 64, 70
1, 262534, Control_c, 0, 64, 65
1, 262549, Control_c, 0, 64, 61
1, 262556, Note_on_c, 0, 79, 57
1, 262557, Note_on_c, 0, 72, 61
1, 262563, Control_c, 0, 64, 60
1, 262578, Control_c, 0, 64, 62
1, 262593, Control_c, 0, 64, 66
1, 262607, Control_c, 0, 64, 70
1, 262622, Control_c, 0, 64, 73
1, 262625, Note_off_c, 0, 72, 60
1, 262637, Control_c, 0, 64, 75
1, 262643, Note_off_c, 0, 79, 57
1, 262652, Control_c, 0, 64, 76
1, 262667, Control_c, 0, 64, 77
1, 262669, Note_on_c, 0, 84, 65
1, 262681, Control_c, 0, 64, 80
1, 262696, Control_c, 0, 64, 82
1, 262711, Control_c, 0, 64, 84
1, 262726, Control_c, 0, 64, 85
1, 262736, Note_off_c, 0, 84, 59
1, 262741, Control_c, 0, 64, 86
1, 262755, Poly_aftertouch_c, 0, 77, 127
1, 262756, Control_c, 0, 64, 87
1, 262759, Note_on_c, 0, 79, 61
1, 262776, Note_off_c, 0, 79, 66
1, 262779, Note_on_c, 0, 72, 49
1, 262782, Poly_aftertouch_c, 0, 77, 0
1, 262805, Note_off_c, 0, 72, 53
1, 262845, Control_c, 0, 64, 86
1, 262860, Control_c, 0, 64, 85
1, 262875, Control_c, 0, 64, 84
1, 262883, Note_on_c, 0, 77, 63
1, 262890, Control_c, 0, 64, 84
1, 262893, Note_on_c, 0, 55, 40
1, 262893, Note_on_c, 0, 70, 65
1, 262919, Control_c, 0, 64, 83
1, 262934, Note_off_c, 0, 70, 53
1, 262978, Control_c, 0, 64, 84
1, 262982, Note_off_c, 0, 55, 56
1, 262993, Control_c, 0, 64, 84
1, 263005, Note_on_c, 0, 49, 38
1, 263008, Control_c, 0, 64, 85
1, 263022, Control_c, 0, 64, 86
1, 263037, Control_c, 0, 64, 87
1, 263052, Control_c, 0, 64, 89
1, 263067, Control_c, 0, 64, 93
1, 263082, Control_c, 0, 64, 99
1, 263084, Note_on_c, 0, 39, 51
1, 263084, Note_on_c, 0, 72, 51
1, 263084, Note_off_c, 0, 77, 16
1, 263085, Note_on_c, 0, 65, 46
1, 263096, Control_c, 0, 64, 107
1, 263111, Control_c, 0, 64, 119
1, 263118, Note_off_c, 0, 39, 53
1, 263126, Control_c, 0, 64, 127
1, 263172, Note_off_c, 0, 65, 56
1, 263189, Note_off_c, 0, 49, 38
1, 263236, Note_off_c, 0, 72, 35
1, 263237, Note_on_c, 0, 70, 44
1, 263241, Note_on_c, 0, 77, 48
1, 263260, Note_off_c, 0, 70, 58
1, 263276, Note_off_c, 0, 77, 64
1, 263361, Note_on_c, 0, 79, 62
1, 263378, Note_on_c, 0, 72, 48
1, 263429, Control_c, 0, 67, 113
1, 263434, Note_off_c, 0, 72, 55
1, 263444, Control_c, 0, 67, 81
1, 263459, Note_off_c, 0, 79, 63
1, 263460, Control_c, 0, 67, 40
1, 263467, Note_on_c, 0, 84, 67
1, 263475, Control_c, 0, 67, 0
1, 263488, Note_on_c, 0, 77, 50
1, 263530, Note_off_c, 0, 77, 56
1, 263551, Note_off_c, 0, 84, 56
1, 263570, Note_on_c, 0, 72, 62
1, 263570, Note_on_c, 0, 79, 76
1, 263589, Note_off_c, 0, 72, 66
1, 263591, Note_off_c, 0, 79, 71
1, 263668, Control_c, 0, 64, 69
1, 263683, Control_c, 0, 64, 0
1, 263799, Note_on_c, 0, 96, 105
1, 263804, Note_on_c, 0, 84, 106
1, 263806, Note_on_c, 0, 89, 105
1, 263811, Note_on_c, 0, 33, 92
1, 263811, Note_on_c, 0, 45, 95
1, 263817, Control_c, 0, 64, 80
1, 263832, Control_c, 0, 64, 127
1, 263842, Note_off_c, 0, 84, 67
1, 263843, Note_off_c, 0, 89, 69
1, 263845, Note_off_c, 0, 96, 67
1, 263861, Note_off_c, 0, 45, 67
1, 263879, Note_off_c, 0, 33, 61
1, 264044, Note_on_c, 0, 91, 96
1, 264049, Note_on_c, 0, 79, 93
1, 264053, Note_on_c, 0, 84, 87
1, 264091, Note_off_c, 0, 84, 61
1, 264099, Note_off_c, 0, 79, 65
1, 264154, Note_on_c, 0, 67, 86
1, 264158, Note_on_c, 0, 55, 75
1, 264173, Note_off_c, 0, 91, 62
1, 264199, Note_off_c, 0, 55, 54
1, 264201, Note_off_c, 0, 67, 66
1, 264218, Note_on_c, 0, 89, 80
1, 264219, Note_on_c, 0, 81, 71
1, 264222, Note_on_c, 0, 88, 81
1, 264228, Note_on_c, 0, 76, 49
1, 264234, Note_off_c, 0, 81, 68
1, 264235, Note_on_c, 0, 77, 44
1, 264249, Poly_aftertouch_c, 0, 61, 0
1, 264253, Note_off_c, 0, 76, 61
1, 264253, Note_off_c, 0, 89, 67
1, 264260, Note_off_c, 0, 88, 62
1, 264261, Note_off_c, 0, 77, 60
1, 264266, Note_on_c, 0, 67, 82
1, 264267, Note_on_c, 0, 61, 45
1, 264274, Note_on_c, 0, 55, 65
1, 264294, Note_on_c, 0, 96, 106
1, 264298, Note_on_c, 0, 84, 92
1, 264313, Note_off_c, 0, 61, 62
1, 264313, Note_off_c, 0, 67, 66
1, 264314, Note_off_c, 0, 55, 60
1, 264318, Note_off_c, 0, 84, 72
1, 264322, Note_off_c, 0, 96, 71
1, 264365, Note_on_c, 0, 67, 90
1, 264373, Note_on_c, 0, 55, 77
1, 264385, Note_on_c, 0, 61, 62
1, 264405, Note_off_c, 0, 55, 65
1, 264406, Note_off_c, 0, 61, 60
1, 264413, Note_off_c, 0, 67, 64
1, 264450, Note_on_c, 0, 67, 84
1, 264455, Note_on_c, 0, 55, 83
1, 264467, Note_on_c, 0, 61, 78
1, 264491, Note_off_c, 0, 61, 67
1, 264492, Note_off_c, 0, 55, 63
1, 264505, Note_off_c, 0, 67, 63
1, 264571, Note_on_c, 0, 79, 100
1, 264574, Note_on_c, 0, 77, 96
1, 264580, Note_on_c, 0, 67, 66
1, 264585, Note_on_c, 0, 65, 74
1, 264591, Note_off_c, 0, 77, 70
1, 264595, Note_off_c, 0, 79, 70
1, 264604, Note_off_c, 0, 67, 60
1, 264614, Note_off_c, 0, 65, 62
1, 264749, Note_on_c, 0, 61, 52
1, 264750, Note_on_c, 0, 55, 48
1, 264756, Note_on_c, 0, 67, 53
1, 264798, Note_off_c, 0, 61, 56
1, 264805, Note_off_c, 0, 67, 59
1, 264844, Note_on_c, 0, 91, 97
1, 264849, Note_on_c, 0, 79, 98
1, 264851, Note_off_c, 0, 55, 49
1, 264855, Note_on_c, 0, 84, 68
1, 264879, Note_off_c, 0, 84, 68
1, 264887, Note_off_c, 0, 79, 67
1, 264896, Note_off_c, 0, 91, 68
1, 264920, Note_on_c, 0, 67, 75
1, 264925, Note_on_c, 0, 55, 40
1, 264926, Note_on_c, 0, 61, 59
1, 264965, Note_off_c, 0, 61, 58
1, 264976, Note_off_c, 0, 67, 64
1, 264976, Note_off_c, 0, 55, 61
1, 265037, Note_on_c, 0, 67, 81
1, 265048, Note_on_c, 0, 89, 114
1, 265051, Note_on_c, 0, 55, 54
1, 265051, Note_on_c, 0, 61, 76
1, 265052, Note_on_c, 0, 82, 103
1, 265053, Note_on_c, 0, 77, 99
1, 265078, Note_off_c, 0, 82, 65
1, 265079, Note_off_c, 0, 77, 68
1, 265084, Note_off_c, 0, 61, 57
1, 265091, Note_off_c, 0, 67, 64
1, 265091, Note_off_c, 0, 89, 68
1, 265093, Note_off_c, 0, 55, 63
1, 265150, Note_on_c, 0, 67, 90
1, 265160, Note_on_c, 0, 61, 78
1, 265161, Note_on_c, 0, 55, 75
1, 265182, Note_off_c, 0, 61, 68
1, 265196, Note_off_c, 0, 55, 62
1, 265198, Note_off_c, 0, 67, 65
1, 265221, Note_on_c, 0, 96, 110
1, 265227, Note_on_c, 0, 84, 101
1, 265228, Note_on_c, 0, 90, 95
1, 265235, Note_on_c, 0, 89, 73
1, 265242, Note_off_c, 0, 90, 77
1, 265245, Note_off_c, 0, 84, 68
1, 265248, Note_on_c, 0, 55, 64
1, 265248, Note_off_c, 0, 96, 72
1, 265250, Note_off_c, 0, 89, 70
1, 265252, Note_on_c, 0, 67, 80
1, 265266, Note_on_c, 0, 61, 75
1, 265291, Note_off_c, 0, 61, 64
1, 265302, Note_off_c, 0, 55, 60
1, 265302, Note_off_c, 0, 67, 65
1, 265373, Note_on_c, 0, 67, 77
1, 265378, Note_on_c, 0, 55, 44
1, 265385, Note_on_c, 0, 61, 66
1, 265423, Note_off_c, 0, 61, 0
1, 265450, Note_off_c, 0, 67, 59
1, 265459, Note_off_c, 0, 55, 29
1, 265460, Poly_aftertouch_c, 0, 61, 127
1, 265482, Poly_aftertouch_c, 0, 61, 0
1, 265485, Control_c, 0, 64, 82
1, 265500, Control_c, 0, 64, 40
1, 265514, Control_c, 0, 64, 0
1, 265533, Note_on_c, 0, 57, 73
1, 265547, Note_on_c, 0, 76, 75
1, 265590, Note_off_c, 0, 57, 59
1, 265595, Note_on_c, 0, 67, 77
1, 265618, Control_c, 0, 67, 23
1, 265623, Note_off_c, 0, 76, 60
1, 265627, Note_off_c, 0, 67, 66
1, 265632, Control_c, 0, 67, 30
1, 265647, Control_c, 0, 67, 34
1, 265648, Poly_aftertouch_c, 0, 69, 0
1, 265653, Note_on_c, 0, 72, 66
1, 265662, Control_c, 0, 67, 41
1, 265667, Note_on_c, 0, 65, 49
1, 265677, Control_c, 0, 67, 49
1, 265692, Control_c, 0, 67, 56
1, 265707, Control_c, 0, 67, 63
1, 265710, Note_off_c, 0, 72, 61
1, 265714, Note_off_c, 0, 65, 57
1, 265722, Control_c, 0, 67, 68
1, 265737, Control_c, 0, 67, 73
1, 265738, Note_on_c, 0, 70, 67
1, 265739, Note_on_c, 0, 77, 72
1, 265751, Control_c, 0, 67, 77
1, 265757, Note_off_c, 0, 70, 66
1, 265766, Control_c, 0, 67, 82
1, 265766, Note_off_c, 0, 77, 61
1, 265769, Note_on_c, 0, 67, 65
1, 265781, Control_c, 0, 67, 87
1, 265796, Control_c, 0, 67, 93
1, 265811, Control_c, 0, 67, 100
1, 265825, Control_c, 0, 67, 107
1, 265831, Note_on_c, 0, 61, 76
1, 265832, Note_off_c, 0, 67, 64
1, 265837, Note_on_c, 0, 78, 70
1, 265840, Control_c, 0, 67, 110
1, 265844, Note_on_c, 0, 71, 60
1, 265856, Note_off_c, 0, 61, 68
1, 265868, Note_on_c, 0, 51, 57
1, 265870, Control_c, 0, 67, 112
1, 265877, Note_off_c, 0, 71, 66
1, 265893, Note_off_c, 0, 51, 58
1, 265906, Note_off_c, 0, 78, 35
1, 265922, Note_on_c, 0, 83, 67
1, 265924, Note_on_c, 0, 76, 62
1, 265955, Note_off_c, 0, 76, 63
1, 265969, Note_on_c, 0, 56, 34
1, 265969, Note_off_c, 0, 56, 127
1, 265979, Note_off_c, 0, 83, 60
1, 265987, Note_on_c, 0, 71, 62
1, 265993, Note_on_c, 0, 78, 69
1, 266017, Note_off_c, 0, 71, 66
1, 266017, Note_off_c, 0, 78, 68
1, 266050, Poly_aftertouch_c, 0, 47, 127
1, 266052, Note_on_c, 0, 57, 65
1, 266056, Note_on_c, 0, 47, 3
1, 266077, Note_off_c, 0, 47, 51
1, 266083, Note_off_c, 0, 57, 66
1, 266092, Note_on_c, 0, 63, 74
1, 266094, Note_on_c, 0, 72, 55
1, 266101, Note_on_c, 0, 79, 64
1, 266108, Control_c, 0, 67, 114
1, 266115, Note_off_c, 0, 63, 70
1, 266129, Note_off_c, 0, 72, 63
1, 266146, Note_off_c, 0, 79, 59
1, 266167, Note_on_c, 0, 67, 60
1, 266167, Control_c, 0, 67, 112
1, 266174, Note_on_c, 0, 74, 65
1, 266196, Control_c, 0, 67, 110
1, 266199, Note_off_c, 0, 67, 65
1, 266234, Note_off_c, 0, 74, 62
1, 266240, Note_on_c, 0, 57, 61
1, 266253, Note_on_c, 0, 73, 55
1, 266255, Note_on_c, 0, 79, 59
1, 266263, Control_c, 0, 67, 108
1, 266274, Note_off_c, 0, 79, 64
1, 266275, Note_off_c, 0, 73, 60
1, 266300, Note_on_c, 0, 51, 63
1, 266305, Note_off_c, 0, 57, 63
1, 266308, Control_c, 0, 67, 105
1, 266323, Control_c, 0, 64, 44
1, 266323, Control_c, 0, 67, 101
1, 266330, Note_off_c, 0, 51, 64
1, 266337, Control_c, 0, 64, 65
1, 266337, Control_c, 0, 67, 96
1, 266340, Note_on_c, 0, 80, 75
1, 266341, Note_on_c, 0, 41, 51
1, 266342, Note_on_c, 0, 73, 69
1, 266352, Control_c, 0, 64, 73
1, 266352, Control_c, 0, 67, 85
1, 266367, Control_c, 0, 64, 87
1, 266367, Control_c, 0, 67, 67
1, 266369, Note_off_c, 0, 73, 66
1, 266370, Note_off_c, 0, 41, 49
1, 266379, Note_off_c, 0, 80, 53
1, 266381, Control_c, 0, 64, 127
1, 266381, Control_c, 0, 67, 40
1, 266396, Control_c, 0, 67, 0
1, 266409, Note_on_c, 0, 85, 76
1, 266424, Note_on_c, 0, 78, 52
1, 266444, Note_off_c, 0, 78, 61
1, 266455, Control_c, 0, 64, 104
1, 266457, Note_on_c, 0, 80, 89
1, 266466, Note_off_c, 0, 85, 64
1, 266470, Note_on_c, 0, 73, 40
1, 266470, Control_c, 0, 64, 48
1, 266473, Note_off_c, 0, 80, 74
1, 266485, Control_c, 0, 64, 0
1, 266500, Note_off_c, 0, 73, 49
1, 266563, Poly_aftertouch_c, 0, 34, 0
1, 266651, Note_on_c, 0, 98, 104
1, 266653, Note_on_c, 0, 86, 101
1, 266654, Note_on_c, 0, 35, 95
1, 266654, Note_on_c, 0, 47, 102
1, 266654, Note_on_c, 0, 91, 104
1, 266663, Control_c, 0, 64, 56
1, 266678, Control_c, 0, 64, 127
1, 266693, Note_off_c, 0, 91, 69
1, 266693, Note_off_c, 0, 86, 66
1, 266694, Note_off_c, 0, 47, 68
1, 266695, Note_off_c, 0, 98, 70
1, 266699, Note_off_c, 0, 35, 64
1, 266893, Note_on_c, 0, 86, 94
1, 266894, Note_on_c, 0, 93, 96
1, 266896, Note_on_c, 0, 81, 98
1, 266932, Note_off_c, 0, 81, 67
1, 266932, Note_off_c, 0, 86, 66
1, 266976, Note_off_c, 0, 93, 53
1, 267007, Note_on_c, 0, 69, 91
1, 267011, Note_on_c, 0, 57, 83
1, 267040, Note_on_c, 0, 63, 39
1, 267048, Note_off_c, 0, 57, 55
1, 267049, Note_on_c, 0, 79, 87
1, 267049, Note_off_c, 0, 69, 65
1, 267050, Note_on_c, 0, 91, 97
1, 267055, Note_on_c, 0, 84, 78
1, 267067, Note_off_c, 0, 79, 74
1, 267073, Note_off_c, 0, 63, 56
1, 267075, Note_off_c, 0, 84, 66
1, 267089, Note_off_c, 0, 91, 69
1, 267106, Note_on_c, 0, 69, 87
1, 267114, Note_on_c, 0, 63, 77
1, 267117, Note_on_c, 0, 57, 69
1, 267126, Note_on_c, 0, 98, 107
1, 267132, Note_on_c, 0, 86, 94
1, 267147, Note_off_c, 0, 57, 63
1, 267147, Note_off_c, 0, 86, 75
1, 267149, Note_on_c, 0, 91, 45
1, 267149, Note_off_c, 0, 91, 127
1, 267149, Note_off_c, 0, 69, 67
1, 267152, Note_off_c, 0, 98, 71
1, 267164, Note_off_c, 0, 63, 63
1, 267228, Note_on_c, 0, 69, 76
1, 267228, Note_on_c, 0, 71, 77
1, 267238, Note_on_c, 0, 57, 67
1, 267239, Note_on_c, 0, 64, 67
1, 267259, Note_off_c, 0, 71, 61
1, 267262, Note_off_c, 0, 69, 61
1, 267263, Note_off_c, 0, 64, 69
1, 267268, Note_off_c, 0, 57, 53
1, 267302, Poly_aftertouch_c, 0, 63, 0
1, 267322, Note_on_c, 0, 69, 81
1, 267331, Note_on_c, 0, 63, 57
1, 267345, Note_on_c, 0, 57, 68
1, 267370, Note_off_c, 0, 69, 63
1, 267373, Note_off_c, 0, 57, 64
1, 267376, Note_off_c, 0, 63, 58
1, 267460, Note_on_c, 0, 69, 85
1, 267467, Note_on_c, 0, 63, 78
1, 267469, Note_on_c, 0, 57, 70
1, 267473, Note_on_c, 0, 81, 95
1, 267474, Note_on_c, 0, 93, 95
1, 267475, Note_on_c, 0, 86, 87
1, 267494, Note_off_c, 0, 63, 64
1, 267497, Note_off_c, 0, 86, 68
1, 267504, Note_off_c, 0, 69, 60
1, 267506, Note_off_c, 0, 57, 64
1, 267515, Note_off_c, 0, 81, 65
1, 267549, Note_off_c, 0, 93, 62
1, 267555, Note_on_c, 0, 69, 94
1, 267566, Note_on_c, 0, 57, 87
1, 267567, Note_on_c, 0, 63, 90
1, 267597, Note_off_c, 0, 69, 66
1, 267600, Note_on_c, 0, 79, 90
1, 267600, Note_on_c, 0, 91, 104
1, 267600, Note_off_c, 0, 57, 59
1, 267603, Note_off_c, 0, 63, 65
1, 267612, Note_on_c, 0, 84, 60
1, 267631, Note_off_c, 0, 79, 69
1, 267632, Note_off_c, 0, 84, 62
1, 267638, Note_off_c, 0, 91, 67
1, 267750, Note_on_c, 0, 90, 33
1, 267760, Note_on_c, 0, 75, 94
1, 267762, Note_on_c, 0, 63, 82
1, 267764, Note_on_c, 0, 98, 106
1, 267766, Note_on_c, 0, 86, 100
1, 267766, Note_on_c, 0, 91, 98
1, 267770, Note_on_c, 0, 69, 76
1, 267791, Note_off_c, 0, 90, 53
1, 267793, Note_off_c, 0, 69, 66
1, 267798, Note_off_c, 0, 86, 68
1, 267799, Note_off_c, 0, 91, 69
1, 267800, Note_off_c, 0, 75, 68
1, 267802, Note_off_c, 0, 98, 70
1, 267805, Note_off_c, 0, 63, 66
1, 267939, Control_c, 0, 64, 76
1, 267953, Control_c, 0, 64, 41
1, 267968, Control_c, 0, 64, 0
1, 267998, Control_c, 0, 67, 31
1, 268008, Note_on_c, 0, 73, 47
1, 268013, Control_c, 0, 67, 50
1, 268027, Control_c, 0, 67, 49
1, 268034, Note_off_c, 0, 73, 60
1, 268042, Control_c, 0, 67, 52
1, 268054, Note_on_c, 0, 59, 49
1, 268057, Control_c, 0, 67, 57
1, 268067, Note_on_c, 0, 79, 78
1, 268072, Control_c, 0, 67, 68
1, 268087, Control_c, 0, 67, 85
1, 268098, Note_on_c, 0, 72, 45
1, 268101, Control_c, 0, 67, 103
1, 268107, Note_on_c, 0, 69, 67
1, 268110, Note_off_c, 0, 59, 61
1, 268116, Control_c, 0, 67, 123
1, 268124, Note_off_c, 0, 72, 60
1, 268126, Note_off_c, 0, 69, 66
1, 268126, Note_off_c, 0, 79, 64
1, 268131, Control_c, 0, 67, 127
1, 268182, Note_on_c, 0, 67, 59
1, 268183, Note_on_c, 0, 74, 67
1, 268211, Note_off_c, 0, 67, 67
1, 268232, Note_off_c, 0, 74, 56
1, 268254, Note_on_c, 0, 79, 81
1, 268281, Note_off_c, 0, 79, 66
1, 268285, Note_on_c, 0, 69, 55
1, 268324, Control_c, 0, 64, 44
1, 268326, Note_on_c, 0, 63, 66
1, 268335, Note_off_c, 0, 69, 61
1, 268339, Control_c, 0, 64, 49
1, 268345, Note_on_c, 0, 81, 78
1, 268348, Note_on_c, 0, 74, 70
1, 268354, Control_c, 0, 64, 0
1, 268365, Note_on_c, 0, 53, 61
1, 268365, Note_off_c, 0, 63, 59
1, 268380, Note_off_c, 0, 74, 63
1, 268393, Note_off_c, 0, 53, 65
1, 268419, Note_off_c, 0, 81, 61
1, 268425, Note_on_c, 0, 86, 76
1, 268490, Note_off_c, 0, 86, 62
1, 268494, Note_on_c, 0, 74, 71
1, 268497, Note_on_c, 0, 81, 60
1, 268516, Note_off_c, 0, 81, 63
1, 268518, Note_off_c, 0, 74, 68
1, 268529, Note_on_c, 0, 47, 50
1, 268565, Note_on_c, 0, 57, 58
1, 268571, Note_off_c, 0, 47, 62
1, 268583, Control_c, 0, 64, 40
1, 268597, Note_on_c, 0, 63, 73
1, 268597, Note_off_c, 0, 57, 68
1, 268598, Control_c, 0, 64, 0
1, 268600, Note_on_c, 0, 72, 67
1, 268601, Note_on_c, 0, 79, 67
1, 268623, Note_off_c, 0, 63, 68
1, 268628, Note_off_c, 0, 72, 67
1, 268639, Note_off_c, 0, 79, 62
1, 268673, Control_c, 0, 64, 51
1, 268683, Note_on_c, 0, 74, 63
1, 268685, Note_on_c, 0, 67, 55
1, 268688, Control_c, 0, 64, 50
1, 268703, Control_c, 0, 64, 48
1, 268717, Note_off_c, 0, 67, 64
1, 268732, Control_c, 0, 64, 50
1, 268738, Note_off_c, 0, 74, 62
1, 268747, Control_c, 0, 64, 54
1, 268759, Note_on_c, 0, 79, 67
1, 268762, Note_on_c, 0, 72, 48
1, 268762, Control_c, 0, 64, 58
1, 268771, Note_on_c, 0, 57, 52
1, 268777, Control_c, 0, 64, 61
1, 268785, Note_off_c, 0, 79, 69
1, 268785, Note_off_c, 0, 72, 57
1, 268792, Control_c, 0, 64, 63
1, 268807, Control_c, 0, 64, 64
1, 268810, Note_on_c, 0, 51, 61
1, 268816, Note_off_c, 0, 57, 63
1, 268822, Control_c, 0, 64, 66
1, 268837, Control_c, 0, 64, 67
1, 268837, Note_on_c, 0, 41, 56
1, 268840, Note_off_c, 0, 51, 64
1, 268851, Control_c, 0, 64, 69
1, 268861, Note_on_c, 0, 81, 57
1, 268864, Note_off_c, 0, 41, 59
1, 268866, Control_c, 0, 64, 72
1, 268867, Note_on_c, 0, 74, 46
1, 268881, Control_c, 0, 64, 76
1, 268893, Note_off_c, 0, 74, 53
1, 268895, Control_c, 0, 64, 82
1, 268910, Control_c, 0, 64, 91
1, 268923, Note_on_c, 0, 86, 73
1, 268925, Control_c, 0, 64, 105
1, 268932, Note_off_c, 0, 81, 55
1, 268940, Control_c, 0, 64, 127
1, 268953, Note_on_c, 0, 79, 47
1, 268971, Note_on_c, 0, 74, 59
1, 268977, Note_off_c, 0, 79, 56
1, 268983, Note_off_c, 0, 86, 62
1, 268984, Control_c, 0, 67, 110
1, 268991, Note_off_c, 0, 74, 62
1, 268999, Control_c, 0, 67, 93
1, 269014, Control_c, 0, 67, 78
1, 269029, Control_c, 0, 67, 60
1, 269043, Control_c, 0, 67, 46
1, 269058, Control_c, 0, 64, 106
1, 269058, Control_c, 0, 67, 33
1, 269069, Poly_aftertouch_c, 0, 81, 0
1, 269073, Control_c, 0, 64, 65
1, 269073, Control_c, 0, 67, 25
1, 269088, Control_c, 0, 64, 0
1, 269088, Control_c, 0, 67, 0
1, 269196, Note_on_c, 0, 35, 93
1, 269200, Note_on_c, 0, 47, 84
1, 269201, Note_on_c, 0, 98, 92
1, 269206, Note_on_c, 0, 86, 84
1, 269207, Control_c, 0, 64, 33
1, 269210, Note_on_c, 0, 91, 73
1, 269230, Control_c, 0, 64, 75
1, 269239, Note_off_c, 0, 91, 70
1, 269245, Control_c, 0, 64, 127
1, 269253, Note_off_c, 0, 47, 66
1, 269264, Note_off_c, 0, 86, 64
1, 269266, Note_off_c, 0, 98, 66
1, 269269, Note_off_c, 0, 35, 63
1, 269475, Note_on_c, 0, 93, 76
1, 269486, Note_on_c, 0, 86, 63
1, 269491, Note_on_c, 0, 81, 60
1, 269513, Note_off_c, 0, 86, 66
1, 269516, Note_off_c, 0, 81, 63
1, 269529, Note_off_c, 0, 93, 64
1, 269561, Note_on_c, 0, 69, 51
1, 269565, Note_on_c, 0, 63, 50
1, 269594, Note_on_c, 0, 57, 14
1, 269615, Note_off_c, 0, 63, 57
1, 269647, Note_on_c, 0, 91, 86
1, 269662, Note_on_c, 0, 79, 45
1, 269666, Note_off_c, 0, 69, 0
1, 269667, Note_on_c, 0, 84, 46
1, 269680, Note_on_c, 0, 69, 40
1, 269684, Note_on_c, 0, 63, 52
1, 269685, Note_off_c, 0, 91, 67
1, 269692, Note_off_c, 0, 79, 53
1, 269694, Note_off_c, 0, 84, 59
1, 269724, Note_off_c, 0, 63, 63
1, 269725, Note_off_c, 0, 69, 60
1, 269739, Note_on_c, 0, 98, 97
1, 269746, Note_on_c, 0, 86, 74
1, 269762, Note_off_c, 0, 86, 67
1, 269773, Note_off_c, 0, 98, 63
1, 269781, Note_on_c, 0, 69, 61
1, 269787, Note_off_c, 0, 57, 0
1, 269789, Note_on_c, 0, 63, 63
1, 269807, Note_on_c, 0, 57, 23
1, 269814, Note_off_c, 0, 69, 63
1, 269817, Note_off_c, 0, 63, 66
1, 269871, Note_on_c, 0, 69, 78
1, 269871, Note_off_c, 0, 57, 0
1, 269878, Note_on_c, 0, 63, 76
1, 269885, Note_on_c, 0, 57, 59
1, 269908, Note_off_c, 0, 63, 64
1, 269919, Note_off_c, 0, 69, 62
1, 269957, Note_on_c, 0, 63, 77
1, 269957, Note_on_c, 0, 69, 69
1, 270009, Note_off_c, 0, 63, 64
1, 270018, Note_off_c, 0, 69, 60
1, 270022, Note_off_c, 0, 57, 59
1, 270046, Note_on_c, 0, 79, 102
1, 270059, Note_on_c, 0, 81, 74
1, 270071, Note_on_c, 0, 69, 53
1, 270073, Note_on_c, 0, 67, 83
1, 270075, Note_off_c, 0, 79, 72
1, 270075, Note_off_c, 0, 81, 67
1, 270104, Note_off_c, 0, 69, 61
1, 270144, Note_off_c, 0, 67, 46
1, 270260, Note_on_c, 0, 69, 57
1, 270261, Note_on_c, 0, 63, 63
1, 270273, Note_on_c, 0, 57, 50
1, 270297, Note_off_c, 0, 63, 56
1, 270301, Note_off_c, 0, 69, 60
1, 270311, Note_off_c, 0, 57, 61
1, 270387, Note_on_c, 0, 69, 62
1, 270403, Note_on_c, 0, 63, 58
1, 270434, Note_on_c, 0, 57, 29
1, 270434, Note_off_c, 0, 69, 57
1, 270436, Note_off_c, 0, 63, 65
1, 270458, Note_on_c, 0, 91, 86
1, 270460, Note_on_c, 0, 79, 78
1, 270462, Note_on_c, 0, 84, 65
1, 270493, Note_off_c, 0, 84, 65
1, 270496, Note_off_c, 0, 57, 0
1, 270502, Note_on_c, 0, 69, 66
1, 270503, Note_on_c, 0, 63, 78
1, 270510, Note_off_c, 0, 79, 66
1, 270513, Note_on_c, 0, 57, 37
1, 270518, Note_off_c, 0, 91, 64
1, 270541, Note_off_c, 0, 63, 61
1, 270546, Note_off_c, 0, 69, 61
1, 270551, Note_off_c, 0, 57, 63
1, 270593, Note_on_c, 0, 69, 70
1, 270604, Note_on_c, 0, 63, 82
1, 270613, Note_on_c, 0, 57, 65
1, 270643, Note_off_c, 0, 69, 65
1, 270644, Note_off_c, 0, 57, 61
1, 270659, Note_off_c, 0, 63, 61
1, 270749, Note_on_c, 0, 69, 103
1, 270750, Note_on_c, 0, 80, 96
1, 270750, Note_on_c, 0, 92, 106
1, 270751, Note_on_c, 0, 85, 82
1, 270756, Note_on_c, 0, 57, 92
1, 270757, Note_on_c, 0, 63, 99
1, 270768, Note_off_c, 0, 85, 72
1, 270777, Note_on_c, 0, 93, 70
1, 270780, Note_off_c, 0, 80, 67
1, 270781, Note_off_c, 0, 69, 68
1, 270782, Note_off_c, 0, 63, 68
1, 270798, Note_off_c, 0, 57, 68
1, 270800, Note_off_c, 0, 93, 68
1, 270803, Note_off_c, 0, 92, 65
1, 270949, Poly_aftertouch_c, 0, 93, 127
1, 270950, Control_c, 0, 64, 81
1, 270965, Control_c, 0, 64, 42
1, 270975, Poly_aftertouch_c, 0, 97, 127
1, 270979, Control_c, 0, 64, 0
1, 270985, Note_on_c, 0, 32, 34
1, 270993, Poly_aftertouch_c, 0, 99, 127
1, 271021, Note_off_c, 0, 32, 44
1, 271035, Poly_aftertouch_c, 0, 97, 0
1, 271054, Poly_aftertouch_c, 0, 99, 0
1, 271079, Poly_aftertouch_c, 0, 93, 0
1, 271088, Note_on_c, 0, 100, 99
1, 271090, Note_on_c, 0, 43, 103
1, 271091, Note_on_c, 0, 88, 104
1, 271092, Note_on_c, 0, 93, 56
1, 271093, Note_on_c, 0, 31, 94
1, 271108, Note_on_c, 0, 29, 78
1, 271120, Note_off_c, 0, 93, 66
1, 271127, Control_c, 0, 64, 77
1, 271135, Note_off_c, 0, 29, 39
1, 271140, Note_off_c, 0, 100, 70
1, 271142, Control_c, 0, 64, 127
1, 271144, Note_off_c, 0, 88, 68
1, 271146, Note_off_c, 0, 31, 65
1, 271156, Note_off_c, 0, 43, 63
1, 271317, Note_on_c, 0, 88, 70
1, 271317, Note_on_c, 0, 95, 93
1, 271323, Note_on_c, 0, 83, 90
1, 271347, Note_off_c, 0, 88, 67
1, 271374, Note_off_c, 0, 83, 65
1, 271379, Note_on_c, 0, 65, 93
1, 271389, Note_on_c, 0, 53, 66
1, 271395, Note_on_c, 0, 52, 65
1, 271397, Note_on_c, 0, 59, 65
1, 271410, Note_off_c, 0, 95, 58
1, 271420, Note_off_c, 0, 52, 63
1, 271421, Note_off_c, 0, 65, 64
1, 271423, Note_off_c, 0, 59, 68
1, 271424, Note_off_c, 0, 53, 62
1, 271446, Note_on_c, 0, 86, 87
1, 271447, Note_on_c, 0, 81, 93
1, 271448, Note_on_c, 0, 93, 96
1, 271480, Note_on_c, 0, 53, 74
1, 271484, Note_on_c, 0, 65, 68
1, 271487, Note_off_c, 0, 81, 65
1, 271489, Note_on_c, 0, 59, 75
1, 271491, Note_off_c, 0, 86, 64
1, 271508, Note_off_c, 0, 93, 68
1, 271512, Note_off_c, 0, 59, 68
1, 271525, Note_off_c, 0, 53, 56
1, 271525, Note_off_c, 0, 65, 64
1, 271551, Note_on_c, 0, 100, 113
1, 271557, Note_on_c, 0, 88, 95
1, 271564, Note_on_c, 0, 65, 82
1, 271569, Note_on_c, 0, 53, 73
1, 271570, Note_on_c, 0, 59, 78
1, 271574, Note_off_c, 0, 88, 74
1, 271578, Note_off_c, 0, 100, 73
1, 271593, Poly_aftertouch_c, 0, 64, 0
1, 271597, Note_on_c, 0, 56, 35
1, 271615, Note_off_c, 0, 53, 61
1, 271617, Note_off_c, 0, 65, 65
1, 271619, Note_off_c, 0, 59, 60
1, 271635, Note_off_c, 0, 56, 52
1, 271664, Note_on_c, 0, 59, 61
1, 271666, Note_on_c, 0, 65, 69
1, 271695, Note_off_c, 0, 59, 60
1, 271716, Note_off_c, 0, 65, 0
1, 271734, Note_on_c, 0, 53, 49
1, 271734, Note_on_c, 0, 59, 80
1, 271752, Poly_aftertouch_c, 0, 65, 0
1, 271761, Note_off_c, 0, 59, 69
1, 271775, Note_on_c, 0, 80, 21
1, 271775, Note_off_c, 0, 80, 127
1, 271776, Note_off_c, 0, 53, 66
1, 271834, Poly_aftertouch_c, 0, 80, 0
1, 271900, Note_on_c, 0, 81, 108
1, 271911, Note_on_c, 0, 69, 86
1, 271911, Note_on_c, 0, 71, 95
1, 271913, Note_on_c, 0, 37, 109
1, 271913, Note_on_c, 0, 49, 108
1, 271937, Note_off_c, 0, 37, 68
1, 271943, Note_off_c, 0, 71, 65
1, 271945, Note_off_c, 0, 81, 72
1, 271946, Note_off_c, 0, 69, 60
1, 271952, Note_off_c, 0, 49, 63
1, 272142, Note_on_c, 0, 58, 60
1, 272159, Note_on_c, 0, 53, 60
1, 272163, Note_on_c, 0, 65, 66
1, 272194, Note_off_c, 0, 65, 58
1, 272195, Note_off_c, 0, 53, 62
1, 272199, Note_off_c, 0, 58, 62
1, 272277, Poly_aftertouch_c, 0, 64, 0
1, 272287, Note_on_c, 0, 65, 71
1, 272289, Note_on_c, 0, 53, 65
1, 272300, Note_on_c, 0, 59, 55
1, 272342, Note_off_c, 0, 59, 63
1, 272342, Note_off_c, 0, 65, 63
1, 272349, Note_off_c, 0, 53, 60
1, 272396, Note_on_c, 0, 81, 100
1, 272398, Note_on_c, 0, 93, 104
1, 272403, Note_on_c, 0, 86, 79
1, 272408, Note_on_c, 0, 65, 80
1, 272412, Note_on_c, 0, 53, 73
1, 272420, Note_off_c, 0, 86, 72
1, 272422, Note_on_c, 0, 59, 65
1, 272434, Note_off_c, 0, 81, 67
1, 272435, Note_off_c, 0, 93, 69
1, 272443, Note_off_c, 0, 59, 70
1, 272458, Note_off_c, 0, 65, 65
1, 272466, Note_off_c, 0, 53, 60
1, 272525, Note_on_c, 0, 65, 91
1, 272529, Note_on_c, 0, 59, 70
1, 272530, Note_on_c, 0, 53, 67
1, 272563, Note_off_c, 0, 59, 63
1, 272567, Note_off_c, 0, 53, 63
1, 272577, Note_off_c, 0, 65, 63
1, 272626, Note_on_c, 0, 59, 69
1, 272629, Note_on_c, 0, 65, 65
1, 272631, Note_on_c, 0, 53, 92
1, 272646, Note_off_c, 0, 59, 71
1, 272646, Note_off_c, 0, 65, 69
1, 272662, Note_on_c, 0, 94, 112
1, 272662, Note_off_c, 0, 53, 64
1, 272665, Note_on_c, 0, 82, 100
1, 272665, Note_on_c, 0, 87, 94
1, 272680, Note_off_c, 0, 87, 76
1, 272684, Note_off_c, 0, 82, 69
1, 272703, Note_on_c, 0, 95, 57
1, 272713, Note_off_c, 0, 94, 66
1, 272724, Note_off_c, 0, 95, 60
1, 272874, Note_on_c, 0, 43, 115
1, 272875, Note_on_c, 0, 31, 106
1, 272909, Note_on_c, 0, 41, 34
1, 272909, Note_off_c, 0, 41, 127
1, 272911, Note_off_c, 0, 31, 65
1, 272915, Note_off_c, 0, 43, 64
1, 272947, Poly_aftertouch_c, 0, 41, 0
1, 273086, Note_on_c, 0, 107, 106
1, 273090, Note_on_c, 0, 93, 109
1, 273094, Note_on_c, 0, 100, 98
1, 273095, Note_on_c, 0, 95, 104
1, 273096, Note_on_c, 0, 58, 90
1, 273099, Note_on_c, 0, 53, 94
1, 273101, Note_on_c, 0, 65, 99
1, 273114, Note_off_c, 0, 58, 75
1, 273120, Note_on_c, 0, 106, 64
1, 273120, Note_off_c, 0, 106, 127
1, 273129, Note_off_c, 0, 53, 67
1, 273129, Note_off_c, 0, 65, 64
1, 273135, Note_off_c, 0, 107, 68
1, 273137, Note_off_c, 0, 93, 68
1, 273142, Note_off_c, 0, 95, 65
1, 273154, Note_on_c, 0, 59, 25
1, 273154, Note_off_c, 0, 59, 127
1, 273187, Poly_aftertouch_c, 0, 59, 0
1, 273357, Note_off_c, 0, 100, 0
1, 273370, Note_on_c, 0, 100, 60
1, 273371, Note_on_c, 0, 107, 108
1, 273377, Note_on_c, 0, 95, 85
1, 273381, Note_on_c, 0, 93, 87
1, 273384, Note_on_c, 0, 49, 73
1, 273396, Note_on_c, 0, 59, 62
1, 273415, Note_off_c, 0, 100, 68
1, 273422, Note_off_c, 0, 107, 66
1, 273428, Note_off_c, 0, 93, 54
1, 273433, Note_off_c, 0, 95, 55
1, 273441, Note_on_c, 0, 65, 93
1, 273454, Note_off_c, 0, 59, 65
1, 273457, Note_off_c, 0, 49, 65
1, 273478, Note_off_c, 0, 65, 69
1, 273582, Note_on_c, 0, 107, 101
1, 273582, Note_on_c, 0, 100, 62
1, 273591, Note_on_c, 0, 95, 80
1, 273592, Note_on_c, 0, 93, 80
1, 273630, Note_off_c, 0, 107, 66
1, 273633, Note_off_c, 0, 100, 60
1, 273636, Note_off_c, 0, 93, 64
1, 273638, Note_off_c, 0, 95, 64
1, 273639, Note_on_c, 0, 55, 70
1, 273677, Note_on_c, 0, 65, 82
1, 273701, Note_off_c, 0, 55, 63
1, 273701, Note_off_c, 0, 65, 69
1, 273704, Note_on_c, 0, 71, 93
1, 273744, Note_off_c, 0, 71, 66
1, 273770, Note_on_c, 0, 107, 106
1, 273770, Note_on_c, 0, 100, 68
1, 273777, Note_on_c, 0, 95, 89
1, 273780, Note_on_c, 0, 93, 88
1, 273813, Note_off_c, 0, 95, 64
1, 273813, Note_off_c, 0, 107, 67
1, 273817, Note_off_c, 0, 100, 67
1, 273818, Note_off_c, 0, 93, 63
1, 273930, Note_on_c, 0, 61, 73
1, 273931, Note_on_c, 0, 107, 104
1, 273940, Note_on_c, 0, 95, 82
1, 273944, Note_on_c, 0, 93, 80
1, 273946, Note_on_c, 0, 100, 65
1, 273968, Note_on_c, 0, 71, 64
1, 273992, Note_off_c, 0, 107, 64
1, 273994, Note_off_c, 0, 95, 62
1, 273997, Note_off_c, 0, 93, 61
1, 274015, Note_off_c, 0, 100, 36
1, 274044, Note_off_c, 0, 61, 61
1, 274049, Note_on_c, 0, 77, 92
1, 274061, Note_off_c, 0, 71, 65
1, 274082, Note_off_c, 0, 77, 69
1, 274153, Note_on_c, 0, 107, 112
1, 274154, Note_on_c, 0, 100, 94
1, 274157, Note_on_c, 0, 93, 97
1, 274159, Note_on_c, 0, 95, 100
1, 274192, Note_off_c, 0, 93, 68
1, 274193, Note_off_c, 0, 95, 70
1, 274196, Note_off_c, 0, 107, 70
1, 274198, Note_off_c, 0, 100, 71
1, 274449, Control_c, 0, 67, 37
1, 274471, Control_c, 0, 67, 36
1, 274486, Control_c, 0, 67, 32
1, 274515, Control_c, 0, 67, 34
1, 274530, Control_c, 0, 67, 35
1, 274560, Control_c, 0, 67, 34
1, 274635, Control_c, 0, 67, 35
1, 274649, Control_c, 0, 67, 35
1, 274664, Control_c, 0, 67, 36
1, 274723, Control_c, 0, 67, 34
1, 274737, Control_c, 0, 67, 33
1, 274767, Control_c, 0, 64, 67
1, 274782, Control_c, 0, 64, 0
1, 274782, Control_c, 0, 67, 36
1, 274797, Control_c, 0, 67, 37
1, 274811, Control_c, 0, 67, 37
1, 274826, Control_c, 0, 67, 40
1, 274841, Control_c, 0, 67, 41
1, 274855, Control_c, 0, 67, 42
1, 274870, Control_c, 0, 67, 44
1, 274885, Control_c, 0, 67, 45
1, 274900, Control_c, 0, 67, 46
1, 275049, Control_c, 0, 67, 52
1, 275049, Note_on_c, 0, 69, 72
1, 275052, Note_on_c, 0, 55, 72
1, 275055, Note_on_c, 0, 76, 60
1, 275063, Control_c, 0, 64, 42
1, 275063, Control_c, 0, 67, 72
1, 275074, Note_off_c, 0, 76, 61
1, 275077, Note_off_c, 0, 55, 66
1, 275078, Control_c, 0, 64, 0
1, 275078, Control_c, 0, 67, 103
1, 275093, Control_c, 0, 67, 127
1, 275103, Note_on_c, 0, 65, 66
1, 275106, Note_on_c, 0, 64, 68
1, 275114, Note_on_c, 0, 71, 82
1, 275118, Note_off_c, 0, 69, 59
1, 275128, Note_off_c, 0, 65, 69
1, 275133, Note_off_c, 0, 64, 64
1, 275142, Note_on_c, 0, 76, 75
1, 275142, Note_off_c, 0, 71, 64
1, 275180, Note_off_c, 0, 76, 64
1, 275317, Note_on_c, 0, 77, 64
1, 275327, Note_on_c, 0, 65, 52
1, 275358, Note_off_c, 0, 65, 66
1, 275366, Note_on_c, 0, 59, 54
1, 275369, Note_off_c, 0, 77, 61
1, 275382, Note_on_c, 0, 75, 73
1, 275385, Note_on_c, 0, 82, 60
1, 275388, Note_off_c, 0, 59, 63
1, 275400, Note_on_c, 0, 49, 52
1, 275416, Note_off_c, 0, 82, 60
1, 275417, Note_off_c, 0, 75, 63
1, 275423, Note_on_c, 0, 70, 29
1, 275429, Note_off_c, 0, 49, 58
1, 275433, Note_on_c, 0, 77, 44
1, 275445, Note_off_c, 0, 70, 52
1, 275457, Note_off_c, 0, 77, 54
1, 275591, Note_on_c, 0, 69, 31
1, 275608, Note_on_c, 0, 64, 47
1, 275609, Note_on_c, 0, 43, 24
1, 275619, Note_on_c, 0, 53, 55
1, 275624, Note_off_c, 0, 69, 44
1, 275626, Note_on_c, 0, 71, 67
1, 275639, Note_off_c, 0, 64, 59
1, 275646, Note_off_c, 0, 53, 63
1, 275649, Note_off_c, 0, 43, 47
1, 275664, Note_on_c, 0, 59, 30
1, 275665, Note_off_c, 0, 71, 66
1, 275683, Poly_aftertouch_c, 0, 76, 127
1, 275701, Note_off_c, 0, 59, 48
1, 275706, Poly_aftertouch_c, 0, 76, 0
1, 275824, Note_on_c, 0, 77, 70
1, 275839, Note_on_c, 0, 70, 53
1, 275845, Note_on_c, 0, 65, 48
1, 275862, Note_off_c, 0, 70, 56
1, 275869, Note_off_c, 0, 77, 59
1, 275871, Note_off_c, 0, 65, 60
1, 275873, Note_on_c, 0, 59, 45
1, 275879, Note_on_c, 0, 82, 74
1, 275889, Note_on_c, 0, 75, 73
1, 275907, Note_on_c, 0, 49, 51
1, 275907, Note_off_c, 0, 59, 65
1, 275925, Note_off_c, 0, 82, 60
1, 275926, Note_on_c, 0, 77, 69
1, 275934, Note_off_c, 0, 75, 62
1, 275936, Note_off_c, 0, 49, 64
1, 275938, Note_on_c, 0, 70, 53
1, 275949, Note_off_c, 0, 77, 70
1, 275967, Note_off_c, 0, 70, 59
1, 276089, Note_on_c, 0, 76, 80
1, 276098, Note_on_c, 0, 55, 62
1, 276109, Note_on_c, 0, 69, 44
1, 276113, Note_on_c, 0, 64, 61
1, 276136, Note_off_c, 0, 69, 53
1, 276140, Note_off_c, 0, 76, 63
1, 276146, Note_off_c, 0, 55, 57
1, 276149, Note_on_c, 0, 71, 77
1, 276160, Note_on_c, 0, 65, 46
1, 276168, Note_off_c, 0, 64, 61
1, 276186, Note_off_c, 0, 65, 56
1, 276191, Note_off_c, 0, 71, 64
1, 276204, Note_on_c, 0, 76, 55
1, 276227, Note_off_c, 0, 76, 65
1, 276343, Note_on_c, 0, 77, 78
1, 276352, Note_on_c, 0, 65, 53
1, 276374, Note_on_c, 0, 70, 33
1, 276384, Note_off_c, 0, 65, 66
1, 276387, Note_on_c, 0, 59, 51
1, 276396, Note_off_c, 0, 77, 61
1, 276405, Note_off_c, 0, 70, 33
1, 276407, Note_on_c, 0, 82, 73
1, 276418, Note_off_c, 0, 59, 65
1, 276419, Note_on_c, 0, 49, 60
1, 276421, Note_on_c, 0, 75, 64
1, 276443, Note_off_c, 0, 49, 60
1, 276448, Note_on_c, 0, 77, 69
1, 276451, Note_off_c, 0, 75, 63
1, 276453, Note_off_c, 0, 82, 63
1, 276485, Note_off_c, 0, 77, 65
1, 276591, Note_on_c, 0, 78, 70
1, 276599, Note_on_c, 0, 45, 58
1, 276615, Note_on_c, 0, 66, 64
1, 276623, Note_on_c, 0, 71, 37
1, 276627, Note_on_c, 0, 55, 66
1, 276631, Note_off_c, 0, 45, 62
1, 276632, Note_off_c, 0, 78, 58
1, 276654, Note_on_c, 0, 73, 72
1, 276655, Note_off_c, 0, 71, 55
1, 276656, Note_off_c, 0, 66, 60
1, 276657, Note_off_c, 0, 55, 65
1, 276662, Note_on_c, 0, 61, 52
1, 276691, Note_off_c, 0, 61, 63
1, 276691, Note_off_c, 0, 73, 65
1, 276694, Note_on_c, 0, 78, 60
1, 276728, Note_off_c, 0, 78, 66
1, 276835, Note_on_c, 0, 72, 73
1, 276843, Note_on_c, 0, 55, 56
1, 276843, Note_on_c, 0, 79, 71
1, 276867, Note_off_c, 0, 72, 61
1, 276874, Note_off_c, 0, 55, 64
1, 276884, Note_off_c, 0, 79, 62
1, 276893, Note_on_c, 0, 84, 79
1, 276895, Control_c, 0, 67, 125
1, 276903, Note_on_c, 0, 49, 65
1, 276909, Control_c, 0, 67, 120
1, 276915, Note_on_c, 0, 77, 57
1, 276925, Note_on_c, 0, 39, 47
1, 276929, Note_off_c, 0, 49, 65
1, 276936, Note_off_c, 0, 77, 64
1, 276942, Note_on_c, 0, 79, 71
1, 276945, Note_off_c, 0, 84, 63
1, 276954, Control_c, 0, 67, 122
1, 276957, Note_off_c, 0, 39, 49
1, 276969, Note_off_c, 0, 79, 69
1, 276981, Note_on_c, 0, 72, 39
1, 277008, Note_off_c, 0, 72, 49
1, 277074, Note_on_c, 0, 80, 72
1, 277076, Note_on_c, 0, 47, 56
1, 277082, Note_on_c, 0, 73, 69
1, 277088, Control_c, 0, 67, 119
1, 277113, Note_off_c, 0, 73, 61
1, 277118, Note_on_c, 0, 57, 49
1, 277118, Control_c, 0, 67, 117
1, 277118, Note_off_c, 0, 80, 62
1, 277119, Note_off_c, 0, 47, 63
1, 277128, Note_on_c, 0, 75, 71
1, 277145, Note_off_c, 0, 57, 65
1, 277147, Control_c, 0, 67, 121
1, 277155, Note_on_c, 0, 63, 60
1, 277162, Control_c, 0, 67, 125
1, 277170, Note_off_c, 0, 75, 65
1, 277177, Note_off_c, 0, 63, 61
1, 277177, Control_c, 0, 67, 127
1, 277180, Note_on_c, 0, 80, 71
1, 277202, Note_off_c, 0, 80, 68
1, 277280, Control_c, 0, 67, 124
1, 277295, Control_c, 0, 67, 122
1, 277310, Control_c, 0, 67, 120
1, 277325, Control_c, 0, 67, 118
1, 277326, Note_on_c, 0, 57, 63
1, 277327, Note_on_c, 0, 87, 87
1, 277339, Control_c, 0, 64, 32
1, 277339, Control_c, 0, 67, 116
1, 277354, Control_c, 0, 64, 38
1, 277354, Control_c, 0, 67, 113
1, 277369, Control_c, 0, 64, 45
1, 277369, Control_c, 0, 67, 108
1, 277370, Note_off_c, 0, 57, 60
1, 277373, Note_on_c, 0, 80, 26
1, 277380, Note_on_c, 0, 51, 56
1, 277384, Control_c, 0, 64, 52
1, 277399, Control_c, 0, 64, 56
1, 277399, Control_c, 0, 67, 112
1, 277400, Note_on_c, 0, 41, 52
1, 277407, Note_off_c, 0, 51, 64
1, 277413, Control_c, 0, 64, 59
1, 277413, Control_c, 0, 67, 114
1, 277428, Note_off_c, 0, 41, 55
1, 277428, Poly_aftertouch_c, 0, 73, 0
1, 277428, Control_c, 0, 64, 61
1, 277443, Control_c, 0, 64, 62
1, 277443, Control_c, 0, 67, 116
1, 277465, Control_c, 0, 64, 63
1, 277495, Control_c, 0, 64, 63
1, 277510, Control_c, 0, 64, 61
1, 277510, Control_c, 0, 67, 113
1, 277525, Control_c, 0, 64, 58
1, 277525, Control_c, 0, 67, 111
1, 277539, Control_c, 0, 64, 53
1, 277539, Control_c, 0, 67, 108
1, 277554, Control_c, 0, 64, 54
1, 277563, Note_on_c, 0, 47, 53
1, 277569, Control_c, 0, 64, 56
1, 277569, Control_c, 0, 67, 105
1, 277583, Control_c, 0, 64, 59
1, 277583, Control_c, 0, 67, 103
1, 277588, Note_on_c, 0, 57, 65
1, 277593, Note_off_c, 0, 47, 65
1, 277598, Control_c, 0, 64, 60
1, 277613, Control_c, 0, 64, 62
1, 277613, Control_c, 0, 67, 107
1, 277617, Note_off_c, 0, 57, 65
1, 277628, Control_c, 0, 64, 63
1, 277628, Control_c, 0, 67, 111
1, 277637, Note_on_c, 0, 63, 62
1, 277639, Note_off_c, 0, 80, 60
1, 277643, Control_c, 0, 64, 65
1, 277643, Control_c, 0, 67, 115
1, 277655, Note_off_c, 0, 87, 59
1, 277657, Note_off_c, 0, 63, 63
1, 277657, Control_c, 0, 64, 66
1, 277657, Control_c, 0, 67, 117
1, 277672, Control_c, 0, 64, 67
1, 277687, Control_c, 0, 64, 68
1, 277717, Control_c, 0, 64, 68
1, 277732, Control_c, 0, 64, 67
1, 277732, Control_c, 0, 67, 114
1, 277747, Control_c, 0, 64, 64
1, 277747, Control_c, 0, 67, 112
1, 277762, Control_c, 0, 64, 63
1, 277762, Control_c, 0, 67, 110
1, 277778, Note_on_c, 0, 69, 62
1, 277778, Note_on_c, 0, 87, 73
1, 277791, Control_c, 0, 64, 64
1, 277791, Control_c, 0, 67, 107
1, 277797, Note_on_c, 0, 80, 62
1, 277806, Control_c, 0, 64, 66
1, 277807, Note_on_c, 0, 73, 34
1, 277817, Note_off_c, 0, 69, 64
1, 277818, Note_off_c, 0, 80, 67
1, 277821, Control_c, 0, 64, 67
1, 277823, Note_off_c, 0, 87, 62
1, 277833, Note_on_c, 0, 63, 54
1, 277836, Control_c, 0, 64, 69
1, 277839, Note_off_c, 0, 73, 50
1, 277850, Control_c, 0, 64, 70
1, 277865, Control_c, 0, 64, 72
1, 277873, Note_off_c, 0, 63, 64
1, 277876, Note_on_c, 0, 53, 58
1, 277881, Control_c, 0, 64, 73
1, 277914, Note_off_c, 0, 53, 60
1, 277925, Control_c, 0, 64, 70
1, 277925, Control_c, 0, 67, 105
1, 277940, Control_c, 0, 64, 64
1, 277955, Control_c, 0, 64, 54
1, 277970, Control_c, 0, 64, 36
1, 277985, Control_c, 0, 64, 0
1, 277999, Control_c, 0, 67, 103
1, 278006, Note_on_c, 0, 80, 59
1, 278009, Note_on_c, 0, 59, 48
1, 278020, Note_on_c, 0, 68, 67
1, 278029, Control_c, 0, 64, 34
1, 278033, Note_off_c, 0, 80, 56
1, 278036, Note_on_c, 0, 69, 67
1, 278044, Control_c, 0, 64, 46
1, 278054, Note_off_c, 0, 59, 63
1, 278059, Control_c, 0, 64, 55
1, 278061, Note_off_c, 0, 69, 68
1, 278073, Control_c, 0, 64, 61
1, 278073, Control_c, 0, 67, 105
1, 278077, Note_off_c, 0, 68, 64
1, 278088, Control_c, 0, 64, 64
1, 278103, Control_c, 0, 64, 66
1, 278103, Control_c, 0, 67, 108
1, 278105, Note_on_c, 0, 80, 78
1, 278107, Note_on_c, 0, 73, 57
1, 278118, Control_c, 0, 64, 68
1, 278122, Note_off_c, 0, 80, 69
1, 278129, Note_off_c, 0, 73, 61
1, 278133, Control_c, 0, 64, 68
1, 278133, Control_c, 0, 67, 110
1, 278162, Control_c, 0, 64, 67
1, 278177, Control_c, 0, 64, 65
1, 278192, Control_c, 0, 64, 60
1, 278214, Control_c, 0, 64, 52
1, 278220, Note_on_c, 0, 69, 46
1, 278229, Control_c, 0, 64, 42
1, 278244, Control_c, 0, 64, 35
1, 278244, Control_c, 0, 67, 108
1, 278244, Note_on_c, 0, 87, 83
1, 278248, Note_on_c, 0, 73, 57
1, 278257, Note_on_c, 0, 80, 43
1, 278259, Control_c, 0, 64, 36
1, 278259, Control_c, 0, 67, 106
1, 278270, Note_off_c, 0, 69, 44
1, 278274, Control_c, 0, 64, 43
1, 278274, Note_on_c, 0, 63, 57
1, 278285, Note_off_c, 0, 73, 62
1, 278288, Control_c, 0, 64, 51
1, 278303, Note_on_c, 0, 53, 55
1, 278303, Control_c, 0, 64, 58
1, 278309, Note_off_c, 0, 63, 65
1, 278318, Control_c, 0, 64, 63
1, 278331, Note_off_c, 0, 53, 63
1, 278333, Control_c, 0, 64, 66
1, 278348, Control_c, 0, 64, 68
1, 278362, Control_c, 0, 64, 70
1, 278377, Control_c, 0, 64, 72
1, 278392, Control_c, 0, 64, 73
1, 278406, Control_c, 0, 64, 72
1, 278421, Control_c, 0, 64, 68
1, 278437, Control_c, 0, 64, 62
1, 278446, Note_on_c, 0, 59, 54
1, 278452, Control_c, 0, 64, 61
1, 278467, Control_c, 0, 64, 65
1, 278481, Control_c, 0, 64, 70
1, 278484, Note_off_c, 0, 59, 63
1, 278484, Note_off_c, 0, 80, 60
1, 278489, Note_off_c, 0, 87, 61
1, 278496, Control_c, 0, 64, 76
1, 278510, Note_on_c, 0, 69, 65
1, 278511, Control_c, 0, 64, 79
1, 278526, Control_c, 0, 64, 79
1, 278531, Note_off_c, 0, 69, 66
1, 278541, Control_c, 0, 64, 77
1, 278555, Control_c, 0, 64, 71
1, 278570, Control_c, 0, 64, 64
1, 278585, Control_c, 0, 64, 61
1, 278600, Control_c, 0, 64, 63
1, 278614, Control_c, 0, 64, 67
1, 278617, Note_on_c, 0, 65, 37
1, 278629, Control_c, 0, 64, 72
1, 278629, Control_c, 0, 67, 104
1, 278644, Control_c, 0, 64, 76
1, 278650, Note_off_c, 0, 65, 53
1, 278659, Control_c, 0, 64, 78
1, 278675, Control_c, 0, 64, 80
1, 278683, Note_on_c, 0, 87, 76
1, 278690, Control_c, 0, 64, 82
1, 278700, Note_on_c, 0, 80, 51
1, 278700, Note_on_c, 0, 73, 53
1, 278704, Control_c, 0, 64, 85
1, 278704, Control_c, 0, 67, 101
1, 278706, Note_off_c, 0, 87, 70
1, 278719, Control_c, 0, 64, 88
1, 278722, Note_on_c, 0, 71, 68
1, 278724, Note_off_c, 0, 80, 58
1, 278725, Note_off_c, 0, 73, 59
1, 278734, Control_c, 0, 64, 91
1, 278748, Note_off_c, 0, 71, 69
1, 278749, Control_c, 0, 64, 91
1, 278764, Control_c, 0, 64, 91
1, 278778, Control_c, 0, 64, 88
1, 278778, Control_c, 0, 67, 104
1, 278793, Control_c, 0, 64, 84
1, 278808, Control_c, 0, 64, 76
1, 278808, Control_c, 0, 67, 106
1, 278823, Control_c, 0, 64, 66
1, 278838, Control_c, 0, 64, 52
1, 278853, Control_c, 0, 64, 0
1, 278881, Note_on_c, 0, 84, 83
1, 278882, Control_c, 0, 64, 35
1, 278884, Note_on_c, 0, 63, 65
1, 278888, Note_on_c, 0, 77, 64
1, 278897, Control_c, 0, 64, 59
1, 278912, Control_c, 0, 64, 65
1, 278912, Control_c, 0, 67, 109
1, 278912, Note_off_c, 0, 63, 66
1, 278913, Note_off_c, 0, 77, 67
1, 278927, Control_c, 0, 64, 55
1, 278927, Control_c, 0, 67, 113
1, 278933, Note_off_c, 0, 84, 64
1, 278941, Note_on_c, 0, 72, 56
1, 278942, Control_c, 0, 64, 0
1, 278944, Note_on_c, 0, 73, 65
1, 278945, Note_on_c, 0, 79, 80
1, 278964, Control_c, 0, 67, 115
1, 278976, Note_off_c, 0, 72, 67
1, 278979, Note_off_c, 0, 73, 65
1, 278993, Note_off_c, 0, 79, 66
1, 278996, Note_on_c, 0, 77, 61
1, 279015, Note_off_c, 0, 77, 64
1, 279019, Note_on_c, 0, 84, 53
1, 279040, Note_off_c, 0, 84, 60
1, 279082, Control_c, 0, 67, 117
1, 279125, Note_on_c, 0, 73, 33
1, 279125, Note_on_c, 0, 85, 87
1, 279127, Control_c, 0, 64, 45
1, 279132, Note_on_c, 0, 78, 72
1, 279142, Control_c, 0, 67, 115
1, 279154, Note_off_c, 0, 73, 53
1, 279154, Note_on_c, 0, 67, 53
1, 279154, Note_off_c, 0, 78, 69
1, 279156, Control_c, 0, 64, 0
1, 279156, Control_c, 0, 67, 113
1, 279176, Note_off_c, 0, 67, 63
1, 279180, Note_off_c, 0, 85, 49
1, 279186, Note_on_c, 0, 82, 82
1, 279195, Note_on_c, 0, 57, 53
1, 279207, Note_off_c, 0, 82, 66
1, 279212, Note_on_c, 0, 89, 49
1, 279219, Note_off_c, 0, 57, 59
1, 279227, Note_on_c, 0, 85, 81
1, 279232, Note_on_c, 0, 83, 51
1, 279237, Note_off_c, 0, 89, 57
1, 279254, Note_off_c, 0, 83, 59
1, 279256, Note_off_c, 0, 85, 67
1, 279349, Control_c, 0, 67, 110
1, 279350, Note_on_c, 0, 51, 62
1, 279357, Note_on_c, 0, 84, 80
1, 279363, Control_c, 0, 67, 108
1, 279378, Control_c, 0, 67, 105
1, 279386, Note_off_c, 0, 51, 66
1, 279387, Note_on_c, 0, 61, 58
1, 279393, Control_c, 0, 67, 102
1, 279396, Note_on_c, 0, 72, 66
1, 279403, Note_off_c, 0, 84, 62
1, 279407, Note_on_c, 0, 79, 80
1, 279422, Note_on_c, 0, 67, 60
1, 279422, Note_off_c, 0, 61, 66
1, 279423, Control_c, 0, 67, 99
1, 279435, Note_off_c, 0, 72, 65
1, 279437, Control_c, 0, 67, 96
1, 279442, Note_off_c, 0, 67, 63
1, 279452, Control_c, 0, 67, 94
1, 279460, Note_off_c, 0, 79, 67
1, 279479, Note_on_c, 0, 84, 57
1, 279483, Control_c, 0, 67, 96
1, 279498, Note_off_c, 0, 84, 62
1, 279498, Control_c, 0, 67, 100
1, 279513, Control_c, 0, 67, 103
1, 279527, Control_c, 0, 67, 105
1, 279572, Control_c, 0, 67, 107
1, 279586, Note_on_c, 0, 73, 72
1, 279586, Note_on_c, 0, 85, 85
1, 279595, Note_on_c, 0, 78, 72
1, 279612, Note_off_c, 0, 73, 68
1, 279619, Note_off_c, 0, 78, 67
1, 279631, Control_c, 0, 67, 103
1, 279640, Note_on_c, 0, 90, 77
1, 279640, Note_off_c, 0, 85, 65
1, 279645, Control_c, 0, 67, 99
1, 279646, Note_on_c, 0, 67, 53
1, 279657, Note_on_c, 0, 83, 68
1, 279660, Control_c, 0, 67, 96
1, 279666, Note_on_c, 0, 57, 65
1, 279675, Control_c, 0, 67, 94
1, 279676, Note_off_c, 0, 67, 66
1, 279676, Poly_aftertouch_c, 0, 85, 0
1, 279683, Note_on_c, 0, 85, 78
1, 279690, Control_c, 0, 67, 93
1, 279693, Note_off_c, 0, 83, 64
1, 279695, Note_off_c, 0, 57, 65
1, 279695, Note_off_c, 0, 90, 65
1, 279713, Control_c, 0, 67, 93
1, 279717, Note_on_c, 0, 78, 50
1, 279719, Note_off_c, 0, 85, 66
1, 279727, Control_c, 0, 67, 92
1, 279739, Note_off_c, 0, 78, 56
1, 279831, Control_c, 0, 67, 91
1, 279836, Note_on_c, 0, 84, 74
1, 279838, Note_on_c, 0, 63, 68
1, 279844, Note_on_c, 0, 77, 55
1, 279846, Control_c, 0, 64, 31
1, 279846, Control_c, 0, 67, 90
1, 279848, Note_on_c, 0, 72, 73
1, 279860, Control_c, 0, 64, 0
1, 279860, Control_c, 0, 67, 89
1, 279863, Note_off_c, 0, 63, 67
1, 279869, Note_off_c, 0, 77, 59
1, 279875, Control_c, 0, 67, 88
1, 279876, Note_off_c, 0, 84, 63
1, 279879, Note_on_c, 0, 79, 81
1, 279890, Control_c, 0, 67, 89
1, 279896, Note_off_c, 0, 72, 62
1, 279902, Note_on_c, 0, 73, 66
1, 279905, Control_c, 0, 67, 90
1, 279920, Control_c, 0, 67, 93
1, 279921, Note_off_c, 0, 73, 66
1, 279934, Note_off_c, 0, 79, 66
1, 279935, Control_c, 0, 67, 95
1, 279941, Note_on_c, 0, 84, 72
1, 279949, Control_c, 0, 67, 97
1, 279968, Note_off_c, 0, 84, 67
1, 279979, Control_c, 0, 67, 99
1, 280051, Note_on_c, 0, 73, 59
1, 280059, Note_on_c, 0, 85, 85
1, 280069, Note_on_c, 0, 78, 67
1, 280083, Note_off_c, 0, 73, 67
1, 280094, Note_off_c, 0, 78, 64
1, 280098, Control_c, 0, 67, 97
1, 280105, Note_on_c, 0, 67, 53
1, 280110, Note_off_c, 0, 85, 64
1, 280112, Note_on_c, 0, 90, 75
1, 280113, Control_c, 0, 67, 95
1, 280123, Note_on_c, 0, 83, 80
1, 280127, Control_c, 0, 67, 93
1, 280137, Note_off_c, 0, 67, 66
1, 280142, Control_c, 0, 67, 92
1, 280155, Note_on_c, 0, 57, 48
1, 280157, Control_c, 0, 67, 92
1, 280162, Note_on_c, 0, 85, 80
1, 280170, Note_off_c, 0, 90, 64
1, 280172, Control_c, 0, 67, 91
1, 280173, Note_off_c, 0, 83, 65
1, 280179, Note_off_c, 0, 57, 59
1, 280180, Poly_aftertouch_c, 0, 78, 0
1, 280186, Note_off_c, 0, 85, 69
1, 280186, Control_c, 0, 67, 90
1, 280201, Control_c, 0, 67, 89
1, 280216, Control_c, 0, 67, 88
1, 280246, Control_c, 0, 67, 87
1, 280260, Control_c, 0, 67, 84
1, 280276, Control_c, 0, 67, 75
1, 280291, Note_on_c, 0, 86, 86
1, 280291, Control_c, 0, 67, 59
1, 280297, Note_on_c, 0, 79, 73
1, 280304, Note_on_c, 0, 53, 60
1, 280306, Control_c, 0, 67, 39
1, 280321, Note_off_c, 0, 79, 68
1, 280321, Control_c, 0, 64, 32
1, 280321, Control_c, 0, 67, 0
1, 280328, Note_on_c, 0, 63, 66
1, 280328, Note_on_c, 0, 74, 51
1, 280330, Note_off_c, 0, 53, 59
1, 280336, Control_c, 0, 64, 0
1, 280346, Note_off_c, 0, 86, 64
1, 280346, Note_on_c, 0, 69, 71
1, 280350, Note_on_c, 0, 81, 85
1, 280356, Note_off_c, 0, 63, 67
1, 280370, Note_off_c, 0, 69, 65
1, 280370, Note_off_c, 0, 74, 63
1, 280397, Note_off_c, 0, 81, 66
1, 280399, Note_on_c, 0, 79, 64
1, 280410, Note_on_c, 0, 86, 76
1, 280418, Note_off_c, 0, 79, 65
1, 280439, Control_c, 0, 67, 19
1, 280440, Note_off_c, 0, 86, 59
1, 280477, Control_c, 0, 67, 22
1, 280506, Control_c, 0, 67, 24
1, 280516, Note_on_c, 0, 63, 59
1, 280532, Note_on_c, 0, 80, 74
1, 280535, Note_on_c, 0, 87, 83
1, 280551, Control_c, 0, 64, 52
1, 280559, Note_off_c, 0, 63, 64
1, 280565, Control_c, 0, 64, 62
1, 280569, Note_off_c, 0, 80, 62
1, 280573, Note_on_c, 0, 57, 57
1, 280580, Control_c, 0, 64, 64
1, 280586, Note_off_c, 0, 87, 63
1, 280593, Note_on_c, 0, 92, 83
1, 280595, Note_on_c, 0, 85, 76
1, 280608, Note_off_c, 0, 57, 65
1, 280609, Control_c, 0, 64, 63
1, 280615, Note_on_c, 0, 47, 60
1, 280624, Control_c, 0, 64, 59
1, 280625, Note_off_c, 0, 85, 61
1, 280639, Note_on_c, 0, 87, 82
1, 280639, Control_c, 0, 64, 49
1, 280639, Control_c, 0, 67, 22
1, 280646, Note_off_c, 0, 47, 66
1, 280648, Note_off_c, 0, 92, 66
1, 280654, Control_c, 0, 64, 0
1, 280659, Note_off_c, 0, 87, 72
1, 280668, Note_on_c, 0, 80, 17
1, 280669, Control_c, 0, 67, 20
1, 280670, Note_off_c, 0, 80, 39
1, 280698, Control_c, 0, 67, 0
1, 280754, Note_on_c, 0, 43, 56
1, 280763, Note_on_c, 0, 88, 78
1, 280788, Note_on_c, 0, 53, 63
1, 280802, Note_off_c, 0, 88, 63
1, 280807, Note_on_c, 0, 76, 57
1, 280808, Note_off_c, 0, 43, 59
1, 280815, Note_on_c, 0, 83, 80
1, 280817, Control_c, 0, 64, 49
1, 280823, Note_off_c, 0, 53, 64
1, 280832, Control_c, 0, 64, 59
1, 280832, Note_on_c, 0, 59, 68
1, 280842, Note_off_c, 0, 76, 65
1, 280847, Control_c, 0, 64, 61
1, 280859, Note_off_c, 0, 59, 66
1, 280860, Note_on_c, 0, 88, 77
1, 280862, Control_c, 0, 64, 63
1, 280862, Note_off_c, 0, 83, 64
1, 280864, Poly_aftertouch_c, 0, 81, 0
1, 280876, Control_c, 0, 64, 64
1, 280880, Note_off_c, 0, 88, 70
1, 280920, Control_c, 0, 64, 63
1, 280935, Control_c, 0, 64, 63
1, 280950, Control_c, 0, 64, 61
1, 280965, Control_c, 0, 64, 58
1, 280979, Note_on_c, 0, 53, 60
1, 280980, Control_c, 0, 64, 53
1, 280986, Note_on_c, 0, 95, 84
1, 280994, Control_c, 0, 64, 50
1, 281009, Control_c, 0, 64, 52
1, 281024, Control_c, 0, 64, 56
1, 281025, Note_off_c, 0, 53, 61
1, 281039, Note_on_c, 0, 43, 47
1, 281039, Control_c, 0, 64, 58
1, 281054, Control_c, 0, 64, 60
1, 281058, Note_on_c, 0, 37, 68
1, 281068, Note_off_c, 0, 43, 55
1, 281069, Control_c, 0, 64, 61
1, 281079, Poly_aftertouch_c, 0, 89, 127
1, 281084, Note_off_c, 0, 37, 64
1, 281085, Control_c, 0, 64, 62
1, 281099, Control_c, 0, 64, 64
1, 281114, Control_c, 0, 64, 65
1, 281122, Poly_aftertouch_c, 0, 89, 0
1, 281129, Control_c, 0, 64, 66
1, 281144, Control_c, 0, 64, 67
1, 281159, Control_c, 0, 64, 68
1, 281201, Note_on_c, 0, 43, 42
1, 281225, Control_c, 0, 64, 69
1, 281240, Note_off_c, 0, 95, 0
1, 281240, Note_on_c, 0, 95, 25
1, 281240, Control_c, 0, 64, 70
1, 281255, Control_c, 0, 64, 71
1, 281256, Note_on_c, 0, 53, 64
1, 281267, Note_off_c, 0, 43, 63
1, 281270, Control_c, 0, 64, 72
1, 281283, Note_off_c, 0, 53, 66
1, 281285, Control_c, 0, 64, 73
1, 281292, Note_on_c, 0, 59, 56
1, 281300, Control_c, 0, 64, 74
1, 281313, Note_off_c, 0, 59, 60
1, 281314, Control_c, 0, 64, 75
1, 281329, Control_c, 0, 64, 76
1, 281344, Control_c, 0, 64, 77
1, 281359, Note_off_c, 0, 95, 39
1, 281429, Note_on_c, 0, 65, 48
1, 281446, Note_on_c, 0, 88, 62
1, 281446, Note_on_c, 0, 95, 69
1, 281447, Control_c, 0, 64, 77
1, 281459, Note_on_c, 0, 81, 45
1, 281464, Note_off_c, 0, 88, 65
1, 281470, Note_on_c, 0, 59, 54
1, 281470, Note_off_c, 0, 65, 51
1, 281473, Note_off_c, 0, 95, 67
1, 281477, Control_c, 0, 64, 78
1, 281487, Note_off_c, 0, 81, 53
1, 281492, Control_c, 0, 64, 80
1, 281506, Control_c, 0, 64, 84
1, 281518, Note_on_c, 0, 49, 57
1, 281521, Note_off_c, 0, 59, 62
1, 281521, Control_c, 0, 64, 92
1, 281536, Control_c, 0, 64, 101
1, 281548, Note_off_c, 0, 49, 64
1, 281550, Control_c, 0, 64, 117
1, 281565, Control_c, 0, 64, 127
1, 281610, Control_c, 0, 64, 97
1, 281625, Control_c, 0, 64, 76
1, 281640, Control_c, 0, 64, 65
1, 281651, Note_on_c, 0, 88, 65
1, 281655, Control_c, 0, 64, 61
1, 281656, Note_on_c, 0, 81, 45
1, 281669, Control_c, 0, 64, 62
1, 281671, Note_on_c, 0, 55, 50
1, 281678, Note_on_c, 0, 65, 57
1, 281679, Note_off_c, 0, 88, 67
1, 281684, Control_c, 0, 64, 65
1, 281685, Note_off_c, 0, 81, 54
1, 281686, Note_on_c, 0, 83, 75
1, 281699, Control_c, 0, 64, 69
1, 281707, Note_off_c, 0, 65, 66
1, 281709, Note_off_c, 0, 55, 50
1, 281711, Note_on_c, 0, 71, 57
1, 281714, Control_c, 0, 64, 74
1, 281715, Note_on_c, 0, 76, 58
1, 281729, Control_c, 0, 64, 78
1, 281732, Note_off_c, 0, 71, 61
1, 281734, Note_off_c, 0, 83, 65
1, 281736, Note_off_c, 0, 76, 63
1, 281743, Control_c, 0, 64, 82
1, 281754, Note_on_c, 0, 88, 75
1, 281758, Control_c, 0, 64, 84
1, 281770, Note_off_c, 0, 88, 69
1, 281773, Control_c, 0, 64, 88
1, 281788, Control_c, 0, 64, 91
1, 281803, Control_c, 0, 64, 94
1, 281817, Control_c, 0, 64, 97
1, 281832, Control_c, 0, 64, 99
1, 281838, Poly_aftertouch_c, 0, 81, 0
1, 281847, Control_c, 0, 64, 103
1, 281861, Note_on_c, 0, 65, 64
1, 281862, Control_c, 0, 64, 107
1, 281868, Note_on_c, 0, 95, 91
1, 281878, Control_c, 0, 64, 112
1, 281878, Note_on_c, 0, 88, 60
1, 281886, Note_on_c, 0, 81, 53
1, 281893, Control_c, 0, 64, 118
1, 281901, Note_off_c, 0, 65, 59
1, 281907, Note_off_c, 0, 95, 66
1, 281908, Control_c, 0, 64, 127
1, 281908, Note_off_c, 0, 88, 67
1, 281909, Note_off_c, 0, 81, 59
1, 281914, Note_on_c, 0, 59, 60
1, 281935, Note_on_c, 0, 49, 63
1, 281943, Note_off_c, 0, 59, 66
1, 281966, Note_off_c, 0, 49, 62
1, 282078, Note_on_c, 0, 55, 66
1, 282093, Note_on_c, 0, 65, 51
1, 282109, Note_off_c, 0, 55, 66
1, 282122, Note_off_c, 0, 65, 66
1, 282130, Note_on_c, 0, 71, 72
1, 282154, Note_off_c, 0, 71, 69
1, 282245, Note_on_c, 0, 61, 67
1, 282273, Note_on_c, 0, 71, 66
1, 282300, Note_on_c, 0, 77, 80
1, 282304, Note_off_c, 0, 61, 62
1, 282305, Note_off_c, 0, 71, 63
1, 282340, Note_off_c, 0, 77, 62
1, 282358, Note_on_c, 0, 95, 95
1, 282364, Note_on_c, 0, 81, 89
1, 282367, Note_on_c, 0, 88, 84
1, 282384, Note_off_c, 0, 81, 70
1, 282385, Note_off_c, 0, 88, 73
1, 282415, Note_off_c, 0, 95, 68
1, 282449, Note_on_c, 0, 67, 76
1, 282480, Note_on_c, 0, 77, 81
1, 282502, Note_on_c, 0, 83, 104
1, 282522, Note_off_c, 0, 77, 66
1, 282535, Note_off_c, 0, 67, 63
1, 282542, Note_off_c, 0, 83, 70
1, 282640, Control_c, 0, 64, 109
1, 282655, Control_c, 0, 64, 60
1, 282671, Control_c, 0, 64, 0
1, 283011, Note_on_c, 0, 49, 103
1, 283011, Note_on_c, 0, 37, 99
1, 283034, Control_c, 0, 64, 50
1, 283049, Control_c, 0, 64, 127
1, 283152, Note_off_c, 0, 37, 64
1, 283159, Note_off_c, 0, 49, 63
1, 283342, Note_on_c, 0, 65, 71
1, 283355, Note_on_c, 0, 59, 58
1, 283389, Note_on_c, 0, 53, 5
1, 283397, Note_off_c, 0, 65, 64
1, 283412, Note_off_c, 0, 59, 57
1, 283446, Note_off_c, 0, 53, 49
1, 283502, Note_on_c, 0, 65, 76
1, 283511, Note_on_c, 0, 59, 47
1, 283527, Note_on_c, 0, 53, 42
1, 283538, Note_off_c, 0, 65, 60
1, 283550, Note_off_c, 0, 59, 62
1, 283554, Note_off_c, 0, 53, 55
1, 283603, Note_on_c, 0, 81, 106
1, 283607, Note_on_c, 0, 69, 97
1, 283608, Note_on_c, 0, 74, 101
1, 283618, Note_on_c, 0, 65, 88
1, 283628, Note_on_c, 0, 53, 73
1, 283630, Note_on_c, 0, 59, 70
1, 283635, Note_off_c, 0, 69, 67
1, 283640, Note_off_c, 0, 74, 70
1, 283651, Note_off_c, 0, 81, 69
1, 283652, Note_off_c, 0, 59, 69
1, 283658, Note_off_c, 0, 53, 65
1, 283662, Note_off_c, 0, 65, 64
1, 283738, Note_on_c, 0, 65, 79
1, 283739, Note_on_c, 0, 59, 66
1, 283775, Note_on_c, 0, 53, 12
1, 283777, Note_off_c, 0, 59, 60
1, 283819, Note_off_c, 0, 53, 0
1, 283827, Note_off_c, 0, 65, 55
1, 283829, Note_on_c, 0, 53, 67
1, 283834, Note_on_c, 0, 59, 53
1, 283846, Note_on_c, 0, 55, 30
1, 283854, Note_off_c, 0, 59, 64
1, 283856, Note_off_c, 0, 53, 68
1, 283883, Note_off_c, 0, 55, 32
1, 284035, Control_c, 0, 64, 105
1, 284050, Control_c, 0, 64, 73
1, 284065, Control_c, 0, 64, 54
1, 284080, Control_c, 0, 64, 51
1, 284090, Note_on_c, 0, 43, 105
1, 284090, Note_on_c, 0, 31, 96
1, 284094, Control_c, 0, 64, 65
1, 284109, Control_c, 0, 64, 92
1, 284124, Control_c, 0, 64, 127
1, 284144, Note_off_c, 0, 31, 64
1, 284150, Note_off_c, 0, 43, 66
1, 284349, Note_on_c, 0, 53, 74
1, 284355, Note_on_c, 0, 65, 73
1, 284380, Note_on_c, 0, 59, 54
1, 284405, Note_off_c, 0, 53, 62
1, 284410, Note_off_c, 0, 59, 64
1, 284413, Note_off_c, 0, 65, 64
1, 284457, Note_on_c, 0, 65, 80
1, 284466, Note_on_c, 0, 53, 65
1, 284470, Note_on_c, 0, 59, 77
1, 284498, Note_off_c, 0, 59, 62
1, 284501, Note_off_c, 0, 53, 58
1, 284507, Note_off_c, 0, 65, 65
1, 284519, Note_on_c, 0, 82, 107
1, 284521, Note_on_c, 0, 70, 106
1, 284522, Note_on_c, 0, 75, 92
1, 284538, Note_on_c, 0, 65, 79
1, 284540, Note_on_c, 0, 53, 68
1, 284551, Note_on_c, 0, 59, 71
1, 284561, Note_off_c, 0, 70, 70
1, 284564, Note_off_c, 0, 82, 69
1, 284566, Note_off_c, 0, 75, 66
1, 284591, Note_off_c, 0, 65, 65
1, 284597, Note_off_c, 0, 59, 62
1, 284599, Note_off_c, 0, 53, 55
1, 284661, Note_on_c, 0, 59, 48
1, 284673, Note_on_c, 0, 65, 67
1, 284701, Note_off_c, 0, 59, 52
1, 284704, Note_off_c, 0, 65, 60
1, 284740, Note_on_c, 0, 59, 59
1, 284749, Note_on_c, 0, 53, 76
1, 284752, Poly_aftertouch_c, 0, 65, 0
1, 284762, Note_off_c, 0, 59, 72
1, 284777, Note_off_c, 0, 53, 68
1, 284932, Control_c, 0, 64, 86
1, 284954, Control_c, 0, 64, 61
1, 284969, Control_c, 0, 64, 0
1, 285058, Note_on_c, 0, 37, 108
1, 285059, Note_on_c, 0, 25, 103
1, 285089, Control_c, 0, 64, 69
1, 285103, Control_c, 0, 64, 127
1, 285121, Note_off_c, 0, 37, 65
1, 285126, Note_off_c, 0, 25, 64
1, 285342, Note_on_c, 0, 53, 65
1, 285346, Note_on_c, 0, 65, 78
1, 285359, Note_on_c, 0, 88, 102
1, 285362, Note_on_c, 0, 76, 105
1, 285363, Note_on_c, 0, 59, 54
1, 285363, Note_on_c, 0, 81, 106
1, 285390, Note_off_c, 0, 76, 70
1, 285395, Note_off_c, 0, 81, 70
1, 285398, Note_off_c, 0, 59, 64
1, 285399, Note_off_c, 0, 65, 64
1, 285402, Note_off_c, 0, 88, 69
1, 285404, Note_off_c, 0, 53, 62
1, 285494, Note_on_c, 0, 65, 76
1, 285498, Note_on_c, 0, 59, 63
1, 285506, Note_on_c, 0, 53, 63
1, 285525, Note_off_c, 0, 59, 67
1, 285536, Note_off_c, 0, 65, 59
1, 285536, Note_off_c, 0, 53, 63
1, 285624, Note_on_c, 0, 65, 72
1, 285626, Note_on_c, 0, 59, 61
1, 285635, Note_on_c, 0, 53, 58
1, 285663, Note_off_c, 0, 59, 60
1, 285667, Note_on_c, 0, 83, 100
1, 285670, Note_on_c, 0, 71, 97
1, 285672, Note_on_c, 0, 76, 86
1, 285674, Note_off_c, 0, 65, 62
1, 285678, Note_off_c, 0, 53, 60
1, 285697, Note_off_c, 0, 76, 71
1, 285704, Note_off_c, 0, 71, 66
1, 285707, Note_off_c, 0, 83, 68
1, 285741, Note_on_c, 0, 81, 101
1, 285746, Note_on_c, 0, 69, 98
1, 285756, Note_on_c, 0, 74, 86
1, 285761, Note_on_c, 0, 65, 80
1, 285766, Note_on_c, 0, 59, 72
1, 285775, Note_off_c, 0, 74, 72
1, 285780, Note_on_c, 0, 53, 62
1, 285780, Note_off_c, 0, 69, 66
1, 285780, Note_off_c, 0, 81, 69
1, 285804, Note_off_c, 0, 59, 60
1, 285807, Note_off_c, 0, 65, 65
1, 285814, Note_off_c, 0, 53, 61
1, 285880, Note_on_c, 0, 65, 79
1, 285887, Note_on_c, 0, 59, 67
1, 285892, Note_on_c, 0, 53, 62
1, 285914, Note_off_c, 0, 59, 67
1, 285919, Note_off_c, 0, 65, 62
1, 285920, Note_off_c, 0, 53, 63
1, 285966, Note_on_c, 0, 65, 80
1, 285971, Note_on_c, 0, 59, 73
1, 285980, Note_on_c, 0, 57, 71
1, 285997, Note_off_c, 0, 59, 60
1, 286004, Note_off_c, 0, 65, 63
1, 286007, Note_off_c, 0, 57, 66
1, 286055, Note_on_c, 0, 65, 88
1, 286060, Note_on_c, 0, 69, 87
1, 286066, Note_on_c, 0, 59, 71
1, 286070, Note_on_c, 0, 53, 73
1, 286072, Note_on_c, 0, 57, 61
1, 286080, Note_off_c, 0, 65, 67
1, 286084, Note_off_c, 0, 69, 66
1, 286086, Note_off_c, 0, 59, 72
1, 286091, Note_off_c, 0, 57, 66
1, 286102, Note_off_c, 0, 53, 67
1, 286189, Note_on_c, 0, 67, 79
1, 286207, Note_on_c, 0, 53, 73
1, 286214, Note_on_c, 0, 65, 52
1, 286220, Note_on_c, 0, 59, 51
1, 286229, Note_off_c, 0, 53, 70
1, 286233, Note_off_c, 0, 65, 36
1, 286239, Note_off_c, 0, 59, 62
1, 286243, Note_off_c, 0, 67, 63
1, 286265, Poly_aftertouch_c, 0, 60, 127
1, 286289, Note_on_c, 0, 65, 85
1, 286290, Note_on_c, 0, 53, 76
1, 286290, Note_on_c, 0, 59, 78
1, 286294, Poly_aftertouch_c, 0, 60, 0
1, 286321, Note_off_c, 0, 65, 62
1, 286328, Note_off_c, 0, 53, 61
1, 286332, Note_off_c, 0, 59, 62
1, 286364, Note_on_c, 0, 65, 84
1, 286366, Note_on_c, 0, 59, 65
1, 286368, Note_on_c, 0, 53, 77
1, 286403, Note_off_c, 0, 53, 60
1, 286406, Note_off_c, 0, 65, 64
1, 286415, Note_off_c, 0, 59, 62
1, 286431, Note_on_c, 0, 65, 78
1, 286435, Note_on_c, 0, 53, 65
1, 286447, Note_on_c, 0, 59, 63
1, 286481, Control_c, 0, 64, 68
1, 286484, Note_off_c, 0, 65, 67
1, 286485, Note_off_c, 0, 53, 62
1, 286490, Note_off_c, 0, 59, 62
1, 286496, Control_c, 0, 64, 0
1, 286587, Note_on_c, 0, 49, 102
1, 286588, Note_on_c, 0, 37, 93
1, 286690, Control_c, 0, 64, 55
1, 286705, Control_c, 0, 64, 76
1, 286719, Note_off_c, 0, 37, 62
1, 286719, Control_c, 0, 64, 107
1, 286731, Note_off_c, 0, 49, 64
1, 286734, Control_c, 0, 64, 127
1, 286870, Note_on_c, 0, 53, 59
1, 286870, Note_on_c, 0, 65, 79
1, 286893, Note_on_c, 0, 59, 44
1, 286920, Note_off_c, 0, 59, 59
1, 286922, Note_off_c, 0, 65, 64
1, 286938, Note_off_c, 0, 53, 57
1, 286970, Note_on_c, 0, 65, 75
1, 286993, Note_on_c, 0, 59, 65
1, 287000, Note_on_c, 0, 53, 11
1, 287020, Note_off_c, 0, 59, 68
1, 287029, Note_off_c, 0, 65, 60
1, 287038, Note_off_c, 0, 53, 44
1, 287051, Note_on_c, 0, 81, 102
1, 287053, Note_on_c, 0, 69, 94
1, 287053, Note_on_c, 0, 74, 100
1, 287060, Note_on_c, 0, 65, 66
1, 287081, Note_on_c, 0, 59, 73
1, 287083, Note_off_c, 0, 69, 68
1, 287083, Note_on_c, 0, 53, 46
1, 287085, Note_off_c, 0, 74, 69
1, 287097, Note_off_c, 0, 81, 68
1, 287107, Note_off_c, 0, 59, 64
1, 287113, Note_off_c, 0, 53, 60
1, 287117, Note_off_c, 0, 65, 64
1, 287162, Note_on_c, 0, 65, 61
1, 287180, Note_on_c, 0, 53, 44
1, 287183, Note_on_c, 0, 59, 56
1, 287207, Note_off_c, 0, 59, 68
1, 287239, Note_off_c, 0, 53, 0
1, 287247, Note_on_c, 0, 53, 68
1, 287259, Note_off_c, 0, 65, 65
1, 287262, Note_on_c, 0, 59, 66
1, 287284, Note_off_c, 0, 59, 61
1, 287284, Note_off_c, 0, 53, 65
1, 287438, Control_c, 0, 64, 89
1, 287452, Control_c, 0, 64, 69
1, 287468, Control_c, 0, 64, 63
1, 287473, Note_on_c, 0, 43, 100
1, 287473, Note_on_c, 0, 31, 95
1, 287483, Control_c, 0, 64, 70
1, 287498, Control_c, 0, 64, 93
1, 287512, Control_c, 0, 64, 127
1, 287522, Note_off_c, 0, 31, 64
1, 287525, Note_off_c, 0, 43, 66
1, 287686, Note_on_c, 0, 53, 66
1, 287691, Note_on_c, 0, 65, 79
1, 287707, Note_on_c, 0, 59, 56
1, 287725, Note_off_c, 0, 59, 67
1, 287733, Note_off_c, 0, 65, 62
1, 287762, Note_off_c, 0, 53, 0
1, 287781, Note_on_c, 0, 53, 45
1, 287781, Note_on_c, 0, 65, 69
1, 287789, Note_on_c, 0, 59, 64
1, 287821, Note_off_c, 0, 59, 65
1, 287829, Note_off_c, 0, 65, 65
1, 287832, Note_off_c, 0, 53, 60
1, 287882, Note_on_c, 0, 65, 85
1, 287886, Note_on_c, 0, 82, 95
1, 287888, Note_on_c, 0, 70, 91
1, 287888, Note_on_c, 0, 53, 68
1, 287890, Note_on_c, 0, 75, 87
1, 287891, Note_on_c, 0, 59, 68
1, 287891, Poly_aftertouch_c, 0, 60, 0
1, 287941, Note_off_c, 0, 59, 60
1, 287947, Note_off_c, 0, 65, 64
1, 287950, Note_off_c, 0, 53, 59
1, 287957, Note_off_c, 0, 70, 60
1, 287961, Note_off_c, 0, 82, 63
1, 288003, Note_on_c, 0, 65, 87
1, 288006, Poly_aftertouch_c, 0, 80, 0
1, 288007, Note_on_c, 0, 53, 76
1, 288012, Note_on_c, 0, 59, 73
1, 288049, Note_off_c, 0, 65, 64
1, 288051, Note_off_c, 0, 53, 60
1, 288064, Note_off_c, 0, 59, 60
1, 288104, Note_off_c, 0, 75, 60
1, 288137, Note_on_c, 0, 83, 102
1, 288139, Note_on_c, 0, 71, 96
1, 288140, Note_on_c, 0, 76, 97
1, 288141, Note_on_c, 0, 65, 104
1, 288145, Note_on_c, 0, 53, 93
1, 288150, Note_on_c, 0, 59, 81
1, 288165, Note_off_c, 0, 76, 68
1, 288168, Note_off_c, 0, 59, 72
1, 288170, Note_off_c, 0, 71, 64
1, 288171, Note_off_c, 0, 65, 66
1, 288180, Note_off_c, 0, 83, 70
1, 288189, Note_off_c, 0, 53, 67
1, 288291, Control_c, 0, 64, 101
1, 288306, Control_c, 0, 64, 65
1, 288321, Control_c, 0, 64, 0
1, 288439, Note_on_c, 0, 93, 105
1, 288442, Note_on_c, 0, 37, 101
1, 288443, Note_on_c, 0, 25, 102
1, 288443, Note_on_c, 0, 86, 104
1, 288444, Note_on_c, 0, 81, 106
1, 288484, Control_c, 0, 64, 59
1, 288489, Note_off_c, 0, 81, 69
1, 288492, Note_off_c, 0, 25, 65
1, 288492, Note_off_c, 0, 37, 65
1, 288496, Note_off_c, 0, 93, 69
1, 288496, Note_off_c, 0, 86, 70
1, 288499, Control_c, 0, 64, 127
1, 288789, Note_on_c, 0, 65, 92
1, 288792, Note_on_c, 0, 59, 70
1, 288793, Note_on_c, 0, 53, 68
1, 288839, Note_off_c, 0, 65, 64
1, 288846, Note_off_c, 0, 59, 63
1, 288859, Note_off_c, 0, 53, 60
1, 288919, Note_on_c, 0, 65, 87
1, 288928, Note_on_c, 0, 59, 67
1, 288929, Note_on_c, 0, 53, 62
1, 288956, Note_off_c, 0, 59, 64
1, 288957, Note_off_c, 0, 65, 65
1, 288959, Note_off_c, 0, 53, 64
1, 289011, Note_on_c, 0, 65, 77
1, 289014, Note_on_c, 0, 53, 77
1, 289020, Note_on_c, 0, 59, 71
1, 289030, Note_off_c, 0, 65, 68
1, 289040, Note_off_c, 0, 53, 67
1, 289042, Note_off_c, 0, 59, 71
1, 289119, Note_on_c, 0, 65, 50
1, 289137, Note_on_c, 0, 53, 58
1, 289155, Note_on_c, 0, 59, 42
1, 289168, Note_off_c, 0, 53, 66
1, 289177, Note_off_c, 0, 65, 64
1, 289181, Note_off_c, 0, 59, 58
1, 289217, Poly_aftertouch_c, 0, 65, 0
1, 289224, Note_on_c, 0, 65, 72
1, 289230, Note_on_c, 0, 53, 71
1, 289243, Note_on_c, 0, 59, 59
1, 289247, Control_c, 0, 64, 105
1, 289252, Note_off_c, 0, 65, 64
1, 289262, Control_c, 0, 64, 93
1, 289265, Note_off_c, 0, 53, 60
1, 289269, Note_off_c, 0, 59, 58
1, 289277, Control_c, 0, 64, 86
1, 289291, Control_c, 0, 64, 81
1, 289295, Note_on_c, 0, 65, 89
1, 289306, Note_on_c, 0, 59, 70
1, 289306, Control_c, 0, 64, 75
1, 289321, Control_c, 0, 64, 74
1, 289321, Poly_aftertouch_c, 0, 53, 0
1, 289334, Note_off_c, 0, 65, 64
1, 289336, Note_off_c, 0, 59, 68
1, 289336, Control_c, 0, 64, 77
1, 289351, Control_c, 0, 64, 89
1, 289365, Control_c, 0, 64, 127
1, 289371, Note_on_c, 0, 25, 107
1, 289372, Note_on_c, 0, 37, 120
1, 289377, Note_on_c, 0, 65, 86
1, 289381, Note_on_c, 0, 53, 86
1, 289387, Note_on_c, 0, 59, 67
1, 289397, Note_off_c, 0, 25, 66
1, 289407, Note_off_c, 0, 53, 60
1, 289411, Note_off_c, 0, 37, 61
1, 289413, Note_on_c, 0, 60, 52
1, 289425, Note_off_c, 0, 59, 62
1, 289425, Note_off_c, 0, 65, 64
1, 289444, Note_off_c, 0, 60, 61
1, 289462, Note_on_c, 0, 65, 79
1, 289465, Note_on_c, 0, 59, 76
1, 289470, Note_on_c, 0, 53, 74
1, 289486, Note_on_c, 0, 63, 21
1, 289497, Note_off_c, 0, 53, 64
1, 289530, Note_off_c, 0, 63, 32
1, 289541, Note_on_c, 0, 53, 80
1, 289568, Note_off_c, 0, 53, 65
1, 289583, Note_off_c, 0, 65, 66
1, 289584, Note_off_c, 0, 59, 60
1, 289595, Control_c, 0, 64, 97
1, 289610, Control_c, 0, 64, 54
1, 289624, Control_c, 0, 64, 0
1, 289640, Note_on_c, 0, 37, 99
1, 289640, Note_on_c, 0, 49, 95
1, 289787, Control_c, 0, 64, 65
1, 289791, Note_off_c, 0, 37, 64
1, 289802, Control_c, 0, 64, 105
1, 289810, Note_off_c, 0, 49, 66
1, 289816, Control_c, 0, 64, 127
1, 289924, Poly_aftertouch_c, 0, 73, 127
1, 289941, Note_on_c, 0, 53, 60
1, 289949, Note_on_c, 0, 65, 79
1, 289954, Poly_aftertouch_c, 0, 73, 0
1, 289981, Note_off_c, 0, 65, 64
1, 289989, Note_on_c, 0, 59, 3
1, 290029, Note_off_c, 0, 53, 0
1, 290036, Note_on_c, 0, 65, 79
1, 290037, Note_off_c, 0, 59, 0
1, 290037, Note_on_c, 0, 59, 32
1, 290044, Note_on_c, 0, 53, 36
1, 290079, Note_off_c, 0, 65, 63
1, 290086, Note_off_c, 0, 53, 57
1, 290088, Note_off_c, 0, 59, 63
1, 290112, Note_on_c, 0, 74, 91
1, 290112, Note_on_c, 0, 81, 104
1, 290114, Note_on_c, 0, 69, 104
1, 290128, Note_on_c, 0, 65, 79
1, 290137, Note_on_c, 0, 59, 67
1, 290144, Note_off_c, 0, 69, 69
1, 290151, Note_on_c, 0, 53, 49
1, 290151, Note_off_c, 0, 74, 68
1, 290158, Note_off_c, 0, 81, 69
1, 290175, Note_off_c, 0, 53, 61
1, 290178, Note_off_c, 0, 65, 64
1, 290190, Note_off_c, 0, 59, 60
1, 290238, Note_on_c, 0, 65, 70
1, 290249, Note_on_c, 0, 59, 47
1, 290279, Note_on_c, 0, 53, 21
1, 290280, Note_off_c, 0, 59, 65
1, 290295, Note_off_c, 0, 65, 0
1, 290318, Note_off_c, 0, 53, 0
1, 290318, Note_on_c, 0, 53, 48
1, 290320, Note_on_c, 0, 65, 30
1, 290345, Note_on_c, 0, 59, 51
1, 290351, Note_off_c, 0, 65, 51
1, 290359, Note_off_c, 0, 53, 63
1, 290365, Note_off_c, 0, 59, 65
1, 290541, Note_on_c, 0, 43, 99
1, 290543, Note_on_c, 0, 31, 96
1, 290586, Note_off_c, 0, 31, 64
1, 290587, Note_off_c, 0, 43, 66
1, 290750, Note_on_c, 0, 65, 79
1, 290772, Note_on_c, 0, 55, 30
1, 290773, Note_on_c, 0, 59, 43
1, 290796, Note_off_c, 0, 65, 62
1, 290799, Note_off_c, 0, 59, 61
1, 290806, Note_off_c, 0, 55, 46
1, 290821, Poly_aftertouch_c, 0, 53, 127
1, 290840, Note_on_c, 0, 65, 75
1, 290843, Note_on_c, 0, 53, 7
1, 290855, Note_on_c, 0, 59, 73
1, 290881, Note_off_c, 0, 59, 67
1, 290886, Note_off_c, 0, 65, 62
1, 290894, Note_off_c, 0, 53, 57
1, 290918, Note_on_c, 0, 70, 90
1, 290919, Note_on_c, 0, 82, 96
1, 290923, Note_on_c, 0, 75, 84
1, 290925, Note_on_c, 0, 65, 74
1, 290937, Note_on_c, 0, 53, 73
1, 290943, Note_on_c, 0, 59, 80
1, 290976, Note_off_c, 0, 82, 68
1, 290979, Note_off_c, 0, 70, 63
1, 290980, Note_off_c, 0, 59, 65
1, 290983, Note_off_c, 0, 53, 59
1, 290985, Note_off_c, 0, 65, 65
1, 290991, Note_off_c, 0, 75, 52
1, 291033, Note_on_c, 0, 65, 91
1, 291034, Note_on_c, 0, 53, 84
1, 291037, Note_on_c, 0, 59, 77
1, 291075, Note_off_c, 0, 53, 61
1, 291084, Note_off_c, 0, 65, 64
1, 291092, Note_off_c, 0, 59, 59
1, 291137, Poly_aftertouch_c, 0, 56, 0
1, 291152, Note_on_c, 0, 65, 94
1, 291153, Note_on_c, 0, 53, 96
1, 291154, Note_on_c, 0, 71, 95
1, 291154, Note_on_c, 0, 83, 108
1, 291156, Note_on_c, 0, 76, 84
1, 291158, Note_on_c, 0, 59, 71
1, 291173, Note_off_c, 0, 76, 73
1, 291178, Note_off_c, 0, 59, 71
1, 291178, Note_off_c, 0, 71, 67
1, 291182, Note_off_c, 0, 65, 64
1, 291190, Note_off_c, 0, 83, 70
1, 291194, Note_off_c, 0, 53, 69
1, 291300, Control_c, 0, 64, 88
1, 291315, Control_c, 0, 64, 59
1, 291329, Control_c, 0, 64, 0
1, 291435, Note_on_c, 0, 100, 101
1, 291440, Note_on_c, 0, 93, 102
1, 291441, Note_on_c, 0, 88, 107
1, 291445, Note_on_c, 0, 37, 103
1, 291446, Note_on_c, 0, 25, 105
1, 291460, Note_on_c, 0, 24, 81
1, 291475, Note_on_c, 0, 97, 61
1, 291475, Note_off_c, 0, 97, 127
1, 291485, Note_off_c, 0, 88, 68
1, 291489, Note_off_c, 0, 24, 65
1, 291489, Note_off_c, 0, 93, 70
1, 291490, Note_off_c, 0, 25, 68
1, 291490, Note_off_c, 0, 100, 71
1, 291492, Note_off_c, 0, 37, 66
1, 291493, Control_c, 0, 64, 69
1, 291508, Control_c, 0, 64, 127
1, 291772, Note_on_c, 0, 65, 94
1, 291781, Note_on_c, 0, 59, 74
1, 291788, Note_on_c, 0, 53, 65
1, 291817, Note_off_c, 0, 65, 65
1, 291821, Note_off_c, 0, 53, 63
1, 291831, Note_off_c, 0, 59, 63
1, 291891, Note_on_c, 0, 65, 95
1, 291900, Note_on_c, 0, 59, 65
1, 291911, Note_on_c, 0, 53, 57
1, 291930, Note_off_c, 0, 65, 66
1, 291941, Note_off_c, 0, 59, 62
1, 291944, Note_off_c, 0, 53, 61
1, 291974, Poly_aftertouch_c, 0, 59, 0
1, 291981, Note_on_c, 0, 59, 67
1, 291988, Note_on_c, 0, 53, 73
1, 292006, Note_off_c, 0, 59, 67
1, 292012, Note_off_c, 0, 53, 68
1, 292070, Note_on_c, 0, 65, 88
1, 292073, Note_on_c, 0, 53, 78
1, 292073, Note_on_c, 0, 59, 65
1, 292100, Note_off_c, 0, 59, 61
1, 292101, Note_off_c, 0, 53, 64
1, 292114, Note_off_c, 0, 65, 62
1, 292153, Note_on_c, 0, 65, 75
1, 292155, Note_on_c, 0, 53, 74
1, 292155, Note_on_c, 0, 59, 76
1, 292178, Note_off_c, 0, 53, 66
1, 292182, Control_c, 0, 64, 110
1, 292183, Note_off_c, 0, 59, 66
1, 292187, Note_off_c, 0, 65, 60
1, 292197, Control_c, 0, 64, 72
1, 292211, Control_c, 0, 64, 47
1, 292226, Note_on_c, 0, 65, 85
1, 292226, Control_c, 0, 64, 0
1, 292237, Note_on_c, 0, 53, 77
1, 292241, Note_on_c, 0, 59, 72
1, 292264, Note_off_c, 0, 53, 62
1, 292266, Note_on_c, 0, 37, 106
1, 292267, Note_on_c, 0, 25, 95
1, 292273, Note_off_c, 0, 59, 63
1, 292277, Note_off_c, 0, 65, 65
1, 292287, Control_c, 0, 64, 34
1, 292291, Note_off_c, 0, 25, 67
1, 292302, Control_c, 0, 64, 64
1, 292303, Note_on_c, 0, 38, 44
1, 292303, Note_off_c, 0, 38, 127
1, 292305, Note_off_c, 0, 37, 65
1, 292310, Note_on_c, 0, 65, 74
1, 292314, Note_on_c, 0, 59, 70
1, 292316, Control_c, 0, 64, 89
1, 292325, Note_on_c, 0, 53, 58
1, 292331, Control_c, 0, 64, 127
1, 292341, Poly_aftertouch_c, 0, 38, 0
1, 292350, Note_off_c, 0, 53, 60
1, 292355, Note_off_c, 0, 65, 62
1, 292358, Note_off_c, 0, 59, 62
1, 292387, Note_on_c, 0, 65, 73
1, 292389, Note_on_c, 0, 59, 72
1, 292398, Note_on_c, 0, 53, 71
1, 292442, Note_off_c, 0, 53, 0
1, 292472, Control_c, 0, 64, 82
1, 292475, Poly_aftertouch_c, 0, 53, 0
1, 292487, Control_c, 0, 64, 43
1, 292501, Note_off_c, 0, 59, 66
1, 292502, Note_off_c, 0, 65, 66
1, 292502, Control_c, 0, 64, 0
1, 292528, Note_on_c, 0, 37, 101
1, 292528, Note_on_c, 0, 49, 102
1, 292580, Note_off_c, 0, 49, 68
1, 292582, Note_off_c, 0, 37, 64
1, 292590, Control_c, 0, 64, 62
1, 292605, Control_c, 0, 64, 104
1, 292620, Control_c, 0, 64, 127
1, 292721, Note_on_c, 0, 53, 68
1, 292722, Note_on_c, 0, 65, 68
1, 292752, Note_on_c, 0, 59, 31
1, 292756, Note_off_c, 0, 65, 63
1, 292759, Note_off_c, 0, 53, 58
1, 292803, Note_off_c, 0, 59, 0
1, 292806, Note_on_c, 0, 65, 71
1, 292816, Note_on_c, 0, 59, 51
1, 292824, Note_on_c, 0, 53, 26
1, 292849, Note_off_c, 0, 53, 57
1, 292851, Note_off_c, 0, 59, 63
1, 292854, Note_off_c, 0, 65, 64
1, 292876, Note_on_c, 0, 81, 100
1, 292878, Note_on_c, 0, 69, 97
1, 292878, Note_on_c, 0, 74, 96
1, 292892, Note_on_c, 0, 65, 76
1, 292904, Note_on_c, 0, 59, 76
1, 292905, Note_off_c, 0, 69, 66
1, 292906, Note_off_c, 0, 74, 68
1, 292919, Note_off_c, 0, 81, 68
1, 292929, Note_on_c, 0, 53, 38
1, 292935, Note_off_c, 0, 59, 60
1, 292940, Note_off_c, 0, 65, 65
1, 292956, Note_off_c, 0, 53, 55
1, 292985, Note_on_c, 0, 65, 75
1, 292997, Note_on_c, 0, 59, 70
1, 293003, Note_on_c, 0, 53, 62
1, 293035, Note_off_c, 0, 59, 64
1, 293069, Note_off_c, 0, 65, 58
1, 293084, Note_on_c, 0, 59, 36
1, 293089, Note_off_c, 0, 53, 67
1, 293110, Note_off_c, 0, 59, 33
1, 293206, Control_c, 0, 64, 108
1, 293220, Control_c, 0, 64, 93
1, 293235, Control_c, 0, 64, 92
1, 293247, Note_on_c, 0, 31, 104
1, 293247, Note_on_c, 0, 43, 100
1, 293250, Control_c, 0, 64, 98
1, 293257, Note_on_c, 0, 45, 70
1, 293257, Note_off_c, 0, 45, 127
1, 293265, Control_c, 0, 64, 127
1, 293285, Note_off_c, 0, 31, 65
1, 293286, Note_off_c, 0, 43, 66
1, 293426, Note_on_c, 0, 65, 82
1, 293432, Note_on_c, 0, 60, 59
1, 293436, Note_on_c, 0, 55, 57
1, 293438, Note_on_c, 0, 53, 59
1, 293453, Note_off_c, 0, 60, 63
1, 293463, Note_off_c, 0, 65, 60
1, 293465, Note_off_c, 0, 55, 66
1, 293466, Note_off_c, 0, 53, 66
1, 293519, Note_on_c, 0, 65, 72
1, 293523, Note_on_c, 0, 59, 63
1, 293535, Note_on_c, 0, 53, 54
1, 293546, Note_off_c, 0, 59, 69
1, 293551, Note_off_c, 0, 65, 68
1, 293569, Note_on_c, 0, 82, 97
1, 293569, Note_off_c, 0, 53, 53
1, 293573, Note_on_c, 0, 70, 86
1, 293573, Note_on_c, 0, 75, 80
1, 293596, Note_on_c, 0, 53, 70
1, 293597, Note_on_c, 0, 65, 85
1, 293603, Note_on_c, 0, 59, 74
1, 293634, Note_off_c, 0, 59, 63
1, 293637, Note_off_c, 0, 75, 61
1, 293641, Note_off_c, 0, 53, 60
1, 293644, Note_off_c, 0, 65, 66
1, 293673, Note_off_c, 0, 70, 41
1, 293681, Note_on_c, 0, 53, 69
1, 293691, Note_on_c, 0, 59, 64
1, 293692, Note_on_c, 0, 65, 69
1, 293702, Note_off_c, 0, 82, 61
1, 293712, Note_off_c, 0, 53, 59
1, 293718, Note_off_c, 0, 59, 62
1, 293775, Note_on_c, 0, 83, 109
1, 293778, Note_on_c, 0, 71, 92
1, 293778, Note_on_c, 0, 76, 90
1, 293779, Note_on_c, 0, 59, 64
1, 293784, Note_on_c, 0, 53, 62
1, 293803, Note_off_c, 0, 76, 67
1, 293804, Note_off_c, 0, 53, 65
1, 293805, Note_off_c, 0, 71, 64
1, 293808, Note_off_c, 0, 59, 65
1, 293811, Note_off_c, 0, 83, 70
1, 293831, Note_off_c, 0, 65, 47
1, 294013, Control_c, 0, 64, 107
1, 294028, Control_c, 0, 64, 60
1, 294043, Control_c, 0, 64, 0
1, 294043, Control_c, 0, 67, 25
1, 294058, Control_c, 0, 67, 38
1, 294073, Control_c, 0, 67, 54
1, 294088, Control_c, 0, 67, 70
1, 294103, Control_c, 0, 67, 81
1, 294118, Control_c, 0, 67, 90
1, 294133, Control_c, 0, 67, 99
1, 294148, Control_c, 0, 67, 106
1, 294162, Control_c, 0, 67, 111
1, 294177, Control_c, 0, 67, 113
1, 294371, Note_on_c, 0, 49, 28
1, 294424, Note_on_c, 0, 59, 33
1, 294461, Note_off_c, 0, 59, 65
1, 294462, Note_on_c, 0, 81, 48
1, 294463, Note_on_c, 0, 65, 44
1, 294464, Note_off_c, 0, 49, 59
1, 294471, Note_on_c, 0, 74, 34
1, 294474, Control_c, 0, 64, 40
1, 294488, Control_c, 0, 64, 32
1, 294488, Control_c, 0, 67, 116
1, 294491, Note_off_c, 0, 65, 54
1, 294496, Note_off_c, 0, 81, 51
1, 294503, Control_c, 0, 64, 0
1, 294503, Control_c, 0, 67, 118
1, 294504, Note_off_c, 0, 74, 43
1, 294518, Control_c, 0, 67, 125
1, 294533, Control_c, 0, 67, 127
1, 294544, Note_on_c, 0, 82, 74
1, 294565, Note_on_c, 0, 70, 52
1, 294586, Note_off_c, 0, 70, 62
1, 294589, Note_off_c, 0, 82, 57
1, 294624, Poly_aftertouch_c, 0, 75, 0
1, 294636, Note_on_c, 0, 83, 79
1, 294657, Note_on_c, 0, 71, 49
1, 294669, Note_off_c, 0, 83, 64
1, 294689, Note_off_c, 0, 71, 56
1, 294702, Note_on_c, 0, 52, 39
1, 294736, Note_on_c, 0, 62, 52
1, 294738, Note_on_c, 0, 84, 79
1, 294741, Note_on_c, 0, 68, 70
1, 294749, Note_on_c, 0, 77, 59
1, 294752, Note_off_c, 0, 52, 53
1, 294759, Note_off_c, 0, 62, 60
1, 294764, Control_c, 0, 64, 38
1, 294765, Note_off_c, 0, 68, 68
1, 294774, Note_off_c, 0, 77, 67
1, 294778, Control_c, 0, 64, 0
1, 294784, Note_off_c, 0, 84, 61
1, 294843, Note_on_c, 0, 85, 74
1, 294851, Note_on_c, 0, 78, 61
1, 294864, Note_on_c, 0, 73, 43
1, 294866, Note_off_c, 0, 85, 69
1, 294878, Note_off_c, 0, 78, 65
1, 294893, Note_off_c, 0, 73, 56
1, 294924, Note_on_c, 0, 86, 77
1, 294949, Note_on_c, 0, 74, 38
1, 294962, Note_off_c, 0, 86, 59
1, 294964, Note_on_c, 0, 49, 58
1, 294980, Note_off_c, 0, 74, 45
1, 294985, Control_c, 0, 64, 41
1, 294995, Note_on_c, 0, 59, 60
1, 295000, Note_on_c, 0, 65, 73
1, 295000, Control_c, 0, 64, 59
1, 295014, Note_off_c, 0, 49, 63
1, 295015, Note_off_c, 0, 59, 64
1, 295015, Control_c, 0, 64, 65
1, 295016, Note_on_c, 0, 87, 74
1, 295017, Note_on_c, 0, 80, 68
1, 295026, Note_off_c, 0, 65, 66
1, 295030, Control_c, 0, 64, 68
1, 295039, Note_off_c, 0, 80, 69
1, 295045, Note_on_c, 0, 75, 27
1, 295045, Control_c, 0, 64, 70
1, 295045, Note_off_c, 0, 87, 63
1, 295060, Control_c, 0, 64, 71
1, 295081, Note_off_c, 0, 75, 31
1, 295095, Note_on_c, 0, 88, 80
1, 295104, Note_on_c, 0, 76, 58
1, 295104, Control_c, 0, 64, 70
1, 295119, Control_c, 0, 64, 68
1, 295122, Note_off_c, 0, 88, 66
1, 295125, Note_off_c, 0, 76, 59
1, 295134, Control_c, 0, 64, 65
1, 295148, Control_c, 0, 64, 62
1, 295163, Control_c, 0, 64, 56
1, 295178, Control_c, 0, 64, 44
1, 295190, Note_on_c, 0, 89, 81
1, 295193, Control_c, 0, 64, 0
1, 295203, Note_on_c, 0, 82, 53
1, 295223, Note_on_c, 0, 46, 59
1, 295224, Note_off_c, 0, 82, 59
1, 295230, Note_off_c, 0, 89, 55
1, 295248, Note_on_c, 0, 56, 63
1, 295267, Control_c, 0, 64, 41
1, 295269, Note_on_c, 0, 62, 62
1, 295275, Note_on_c, 0, 90, 74
1, 295280, Note_off_c, 0, 56, 65
1, 295282, Control_c, 0, 64, 57
1, 295282, Control_c, 0, 67, 125
1, 295283, Note_on_c, 0, 82, 67
1, 295289, Note_off_c, 0, 62, 62
1, 295292, Note_on_c, 0, 78, 48
1, 295297, Note_off_c, 0, 46, 64
1, 295297, Control_c, 0, 64, 63
1, 295297, Control_c, 0, 67, 122
1, 295299, Note_off_c, 0, 82, 66
1, 295307, Note_off_c, 0, 90, 60
1, 295311, Control_c, 0, 64, 67
1, 295316, Note_off_c, 0, 78, 37
1, 295326, Control_c, 0, 64, 70
1, 295341, Control_c, 0, 64, 73
1, 295355, Control_c, 0, 64, 74
1, 295359, Note_on_c, 0, 91, 75
1, 295370, Control_c, 0, 64, 76
1, 295376, Note_on_c, 0, 79, 42
1, 295385, Control_c, 0, 64, 76
1, 295399, Note_off_c, 0, 91, 62
1, 295407, Note_off_c, 0, 79, 34
1, 295447, Note_on_c, 0, 92, 83
1, 295453, Control_c, 0, 64, 74
1, 295465, Note_on_c, 0, 85, 69
1, 295468, Control_c, 0, 64, 67
1, 295468, Control_c, 0, 67, 119
1, 295482, Note_off_c, 0, 85, 67
1, 295483, Control_c, 0, 64, 47
1, 295483, Control_c, 0, 67, 115
1, 295489, Note_off_c, 0, 92, 63
1, 295492, Note_on_c, 0, 43, 56
1, 295498, Control_c, 0, 64, 0
1, 295498, Control_c, 0, 67, 103
1, 295513, Control_c, 0, 67, 86
1, 295520, Note_on_c, 0, 53, 69
1, 295525, Note_on_c, 0, 59, 81
1, 295527, Control_c, 0, 67, 69
1, 295528, Note_on_c, 0, 93, 86
1, 295540, Note_on_c, 0, 81, 69
1, 295542, Control_c, 0, 67, 54
1, 295544, Note_off_c, 0, 53, 66
1, 295546, Note_off_c, 0, 59, 68
1, 295556, Note_off_c, 0, 81, 66
1, 295557, Note_off_c, 0, 43, 64
1, 295557, Control_c, 0, 64, 52
1, 295557, Control_c, 0, 67, 40
1, 295560, Note_on_c, 0, 86, 38
1, 295572, Control_c, 0, 64, 65
1, 295572, Control_c, 0, 67, 25
1, 295575, Note_off_c, 0, 93, 66
1, 295584, Note_off_c, 0, 86, 36
1, 295587, Control_c, 0, 64, 76
1, 295587, Control_c, 0, 67, 0
1, 295601, Control_c, 0, 64, 94
1, 295616, Control_c, 0, 64, 127
1, 295623, Note_on_c, 0, 94, 87
1, 295627, Note_on_c, 0, 87, 80
1, 295639, Note_on_c, 0, 82, 67
1, 295653, Note_off_c, 0, 87, 62
1, 295657, Note_off_c, 0, 82, 66
1, 295667, Note_off_c, 0, 94, 65
1, 295704, Note_on_c, 0, 95, 87
1, 295715, Note_on_c, 0, 88, 64
1, 295719, Control_c, 0, 64, 106
1, 295722, Note_on_c, 0, 83, 47
1, 295731, Note_on_c, 0, 40, 68
1, 295733, Note_off_c, 0, 88, 64
1, 295733, Control_c, 0, 64, 72
1, 295740, Note_off_c, 0, 95, 67
1, 295745, Note_off_c, 0, 83, 57
1, 295748, Control_c, 0, 64, 52
1, 295758, Note_on_c, 0, 50, 78
1, 295763, Control_c, 0, 64, 39
1, 295778, Control_c, 0, 64, 53
1, 295779, Note_on_c, 0, 56, 91
1, 295784, Note_off_c, 0, 50, 69
1, 295791, Note_off_c, 0, 40, 62
1, 295793, Control_c, 0, 64, 66
1, 295794, Note_on_c, 0, 96, 91
1, 295798, Note_off_c, 0, 56, 69
1, 295801, Note_on_c, 0, 90, 42
1, 295801, Note_off_c, 0, 90, 127
1, 295804, Note_on_c, 0, 89, 70
1, 295806, Note_on_c, 0, 84, 63
1, 295808, Control_c, 0, 64, 83
1, 295821, Note_off_c, 0, 89, 66
1, 295823, Control_c, 0, 64, 127
1, 295826, Note_off_c, 0, 84, 40
1, 295835, Note_off_c, 0, 96, 66
1, 295879, Note_on_c, 0, 90, 96
1, 295879, Note_on_c, 0, 97, 92
1, 295890, Note_on_c, 0, 85, 78
1, 295904, Note_off_c, 0, 85, 70
1, 295914, Note_off_c, 0, 90, 66
1, 295919, Note_off_c, 0, 97, 66
1, 295957, Note_on_c, 0, 98, 99
1, 295963, Note_on_c, 0, 86, 83
1, 295970, Control_c, 0, 64, 105
1, 295975, Note_on_c, 0, 91, 63
1, 295983, Note_off_c, 0, 86, 69
1, 295985, Control_c, 0, 64, 65
1, 295995, Note_off_c, 0, 91, 61
1, 296000, Control_c, 0, 64, 30
1, 296011, Note_off_c, 0, 98, 65
1, 296015, Control_c, 0, 64, 0
1, 296023, Note_on_c, 0, 54, 67
1, 296030, Control_c, 0, 64, 48
1, 296033, Note_on_c, 0, 43, 51
1, 296045, Note_off_c, 0, 54, 57
1, 296045, Control_c, 0, 64, 67
1, 296047, Note_on_c, 0, 59, 95
1, 296047, Note_on_c, 0, 99, 96
1, 296048, Note_on_c, 0, 53, 72
1, 296050, Note_on_c, 0, 92, 100
1, 296056, Note_on_c, 0, 87, 86
1, 296059, Control_c, 0, 64, 88
1, 296074, Control_c, 0, 64, 127
1, 296076, Note_off_c, 0, 53, 67
1, 296083, Note_on_c, 0, 45, 42
1, 296085, Note_off_c, 0, 87, 62
1, 296088, Note_off_c, 0, 92, 68
1, 296088, Note_off_c, 0, 59, 67
1, 296096, Note_off_c, 0, 99, 65
1, 296118, Note_off_c, 0, 45, 48
1, 296125, Note_off_c, 0, 43, 35
1, 296136, Note_on_c, 0, 92, 94
1, 296136, Note_on_c, 0, 100, 103
1, 296140, Note_on_c, 0, 88, 97
1, 296180, Note_off_c, 0, 88, 64
1, 296180, Note_off_c, 0, 92, 67
1, 296186, Note_off_c, 0, 100, 70
1, 296218, Note_on_c, 0, 50, 43
1, 296234, Note_on_c, 0, 101, 105
1, 296236, Note_on_c, 0, 94, 95
1, 296238, Note_on_c, 0, 89, 94
1, 296260, Note_off_c, 0, 50, 0
1, 296263, Note_on_c, 0, 40, 79
1, 296270, Note_on_c, 0, 50, 68
1, 296272, Note_off_c, 0, 89, 64
1, 296274, Note_off_c, 0, 94, 66
1, 296287, Note_off_c, 0, 101, 60
1, 296303, Note_on_c, 0, 56, 88
1, 296309, Note_off_c, 0, 40, 63
1, 296314, Note_off_c, 0, 50, 65
1, 296317, Note_off_c, 0, 56, 69
1, 296319, Note_on_c, 0, 55, 82
1, 296336, Note_on_c, 0, 90, 103
1, 296338, Note_on_c, 0, 102, 104
1, 296339, Note_off_c, 0, 55, 71
1, 296351, Note_on_c, 0, 94, 73
1, 296369, Note_off_c, 0, 94, 66
1, 296383, Note_off_c, 0, 90, 67
1, 296392, Note_off_c, 0, 102, 65
1, 296432, Note_on_c, 0, 103, 105
1, 296436, Note_on_c, 0, 91, 104
1, 296449, Note_on_c, 0, 97, 67
1, 296467, Note_off_c, 0, 97, 64
1, 296475, Note_off_c, 0, 91, 68
1, 296479, Note_off_c, 0, 103, 69
1, 296530, Note_on_c, 0, 104, 97
1, 296533, Note_on_c, 0, 92, 108
1, 296538, Note_on_c, 0, 97, 80
1, 296543, Control_c, 0, 64, 90
1, 296557, Control_c, 0, 64, 57
1, 296561, Note_off_c, 0, 97, 67
1, 296572, Control_c, 0, 64, 0
1, 296578, Note_off_c, 0, 92, 67
1, 296617, Note_off_c, 0, 104, 64
1, 296639, Note_on_c, 0, 37, 111
1, 296640, Note_on_c, 0, 25, 108
1, 296649, Note_on_c, 0, 98, 92
1, 296649, Note_on_c, 0, 105, 106
1, 296653, Note_on_c, 0, 93, 94
1, 296675, Control_c, 0, 64, 59
1, 296690, Control_c, 0, 64, 127
1, 296703, Note_off_c, 0, 105, 68
1, 296721, Note_off_c, 0, 37, 64
1, 296724, Note_off_c, 0, 25, 65
1, 296724, Note_off_c, 0, 93, 60
1, 296741, Note_off_c, 0, 98, 61
1, 296836, Note_on_c, 0, 98, 88
1, 296839, Note_on_c, 0, 105, 104
1, 296840, Note_on_c, 0, 93, 87
1, 296892, Note_off_c, 0, 105, 66
1, 296898, Note_off_c, 0, 93, 63
1, 296917, Note_on_c, 0, 47, 106
1, 296968, Note_off_c, 0, 98, 58
1, 297005, Note_on_c, 0, 105, 90
1, 297009, Note_on_c, 0, 98, 71
1, 297017, Note_on_c, 0, 93, 84
1, 297058, Note_off_c, 0, 93, 65
1, 297067, Note_off_c, 0, 105, 66
1, 297069, Note_off_c, 0, 98, 65
1, 297119, Note_on_c, 0, 53, 105
1, 297129, Note_on_c, 0, 98, 82
1, 297137, Note_on_c, 0, 105, 81
1, 297140, Note_on_c, 0, 93, 83
1, 297141, Note_on_c, 0, 107, 81
1, 297152, Note_off_c, 0, 47, 60
1, 297162, Note_off_c, 0, 107, 69
1, 297179, Note_off_c, 0, 93, 64
1, 297188, Note_off_c, 0, 105, 65
1, 297190, Note_off_c, 0, 98, 64
1, 297239, Note_on_c, 0, 98, 73
1, 297243, Note_on_c, 0, 105, 86
1, 297254, Note_on_c, 0, 93, 79
1, 297287, Note_off_c, 0, 93, 64
1, 297288, Note_on_c, 0, 59, 111
1, 297291, Note_off_c, 0, 53, 64
1, 297294, Note_off_c, 0, 105, 64
1, 297301, Note_off_c, 0, 98, 63
1, 297326, Note_off_c, 0, 59, 71
1, 297341, Note_on_c, 0, 105, 77
1, 297343, Note_on_c, 0, 98, 73
1, 297351, Note_on_c, 0, 93, 81
1, 297391, Note_off_c, 0, 93, 66
1, 297394, Note_off_c, 0, 105, 66
1, 297398, Note_off_c, 0, 98, 64
1, 297443, Note_on_c, 0, 65, 105
1, 297444, Note_on_c, 0, 98, 79
1, 297444, Note_on_c, 0, 105, 92
1, 297453, Note_on_c, 0, 93, 83
1, 297491, Note_off_c, 0, 93, 65
1, 297492, Note_off_c, 0, 105, 66
1, 297495, Note_off_c, 0, 98, 66
1, 297544, Note_on_c, 0, 105, 96
1, 297545, Note_on_c, 0, 98, 84
1, 297547, Note_on_c, 0, 93, 86
1, 297560, Note_off_c, 0, 65, 59
1, 297585, Note_off_c, 0, 105, 66
1, 297586, Note_off_c, 0, 93, 66
1, 297588, Note_on_c, 0, 71, 106
1, 297588, Note_off_c, 0, 98, 66
1, 297626, Note_off_c, 0, 71, 70
1, 297638, Note_on_c, 0, 98, 88
1, 297638, Note_on_c, 0, 105, 101
1, 297639, Note_on_c, 0, 93, 95
1, 297686, Note_off_c, 0, 93, 68
1, 297686, Note_off_c, 0, 105, 68
1, 297692, Note_off_c, 0, 98, 66
1, 297745, Note_on_c, 0, 105, 111
1, 297745, Note_on_c, 0, 98, 93
1, 297746, Note_on_c, 0, 93, 98
1, 297754, Note_on_c, 0, 77, 106
1, 297779, Note_off_c, 0, 93, 68
1, 297781, Note_off_c, 0, 105, 68
1, 297789, Note_off_c, 0, 98, 67
1, 297825, Note_off_c, 0, 77, 59
1, 297837, Note_on_c, 0, 98, 85
1, 297838, Note_on_c, 0, 105, 116
1, 297838, Note_on_c, 0, 93, 101
1, 297874, Note_off_c, 0, 93, 68
1, 297876, Note_on_c, 0, 83, 101
1, 297877, Note_off_c, 0, 105, 68
1, 297883, Note_off_c, 0, 98, 66
1, 297910, Note_off_c, 0, 83, 69
1, 297929, Note_on_c, 0, 98, 84
1, 297929, Note_on_c, 0, 105, 109
1, 297930, Note_on_c, 0, 93, 101
1, 297972, Note_off_c, 0, 93, 66
1, 297976, Note_off_c, 0, 105, 66
1, 297978, Note_off_c, 0, 98, 66
1, 298034, Note_on_c, 0, 105, 116
1, 298035, Note_on_c, 0, 93, 109
1, 298036, Note_on_c, 0, 98, 96
1, 298039, Note_on_c, 0, 89, 121
1, 298063, Note_off_c, 0, 89, 74
1, 298070, Note_off_c, 0, 98, 69
1, 298071, Note_off_c, 0, 93, 70
1, 298077, Note_off_c, 0, 105, 72
1, 299085, Control_c, 0, 64, 98
1, 299100, Control_c, 0, 64, 84
1, 299115, Control_c, 0, 64, 76
1, 299129, Control_c, 0, 64, 70
1, 299144, Control_c, 0, 64, 65
1, 299159, Control_c, 0, 64, 59
1, 299182, Control_c, 0, 64, 48
1, 299197, Control_c, 0, 64, 33
1, 299211, Control_c, 0, 64, 0
1, 299211, End_track
0, 0, End_of_file
