0, 0, Header, 0, 1, 384
1, 0, Start_track
1, 0, Title_t, "Sonata Op. 53--Rui Shi          "
1, 0, Text_t, "2009 Piano-e-Competition audition round"
1, 0, Text_t, "captured January 2009"
1, 0, Text_t, "http://www.piano-e-competition.com/"
1, 0, Text_t, "File processed for distribution by software from Zenph Studios, Inc., http://www.zenph.com"
1, 0, Instrument_name_t, "Yamaha Disklavier Pro Mark IV concert grand piano, model DCFIIISM4PRO"
1, 0, Sequencer_specific, 39, 67, 113, 0, 1, 0, 1, 0, 83, 111, 110, 97, 116, 97, 32, 79, 112, 46, 32, 53, 51, 32, 32, 32, 82, 117, 105, 32, 83, 104, 105, 32, 32, 32, 32, 32, 32, 32, 32, 32
1, 0, Sequencer_specific, 6, 67, 113, 0, 0, 0, 69
1, 0, System_exclusive, 21, 67, 113, 126, 21, 0, 2, 2, 0, 3, 14, 1, 4, 1, 13, 13, 10, 11, 9, 2, 7, 247
1, 0, Sequencer_specific, 5, 67, 123, 12, 2, 1
1, 0, Tempo, 512820
1, 0, Time_signature, 4, 2, 24, 8
1, 0, System_exclusive, 5, 126, 127, 9, 1, 247
1, 1, System_exclusive, 8, 67, 16, 76, 0, 0, 126, 0, 247
1, 2, System_exclusive, 8, 67, 16, 76, 8, 9, 7, 1, 247
1, 3, Control_c, 0, 0, 0
1, 3, Control_c, 1, 0, 0
1, 3, Control_c, 2, 0, 0
1, 3, Control_c, 3, 0, 0
1, 3, Control_c, 4, 0, 0
1, 3, Control_c, 5, 0, 0
1, 3, Control_c, 6, 0, 0
1, 3, Control_c, 7, 0, 0
1, 3, Control_c, 8, 0, 0
1, 3, Control_c, 9, 0, 127
1, 3, Control_c, 10, 0, 0
1, 3, Control_c, 11, 0, 0
1, 3, Control_c, 12, 0, 0
1, 3, Control_c, 13, 0, 0
1, 3, Control_c, 14, 0, 0
1, 3, Control_c, 15, 0, 0
1, 4, Control_c, 0, 32, 0
1, 4, Control_c, 1, 32, 0
1, 4, Control_c, 2, 32, 0
1, 4, Control_c, 3, 32, 0
1, 4, Control_c, 4, 32, 0
1, 4, Control_c, 5, 32, 0
1, 4, Control_c, 6, 32, 0
1, 4, Control_c, 7, 32, 0
1, 4, Control_c, 8, 32, 0
1, 4, Control_c, 9, 32, 0
1, 4, Control_c, 10, 32, 0
1, 4, Control_c, 11, 32, 0
1, 4, Control_c, 12, 32, 0
1, 4, Control_c, 13, 32, 0
1, 4, Control_c, 14, 32, 0
1, 4, Control_c, 15, 32, 0
1, 5, Program_c, 0, 0
1, 5, Program_c, 1, 0
1, 5, Program_c, 2, 0
1, 5, Program_c, 3, 0
1, 5, Program_c, 4, 0
1, 5, Program_c, 5, 0
1, 5, Program_c, 6, 0
1, 5, Program_c, 7, 0
1, 5, Program_c, 8, 0
1, 5, Program_c, 9, 0
1, 5, Program_c, 10, 0
1, 5, Program_c, 11, 0
1, 5, Program_c, 12, 0
1, 5, Program_c, 13, 0
1, 5, Program_c, 14, 0
1, 5, Program_c, 15, 0
1, 6, Control_c, 0, 7, 100
1, 6, Control_c, 1, 7, 100
1, 6, Control_c, 2, 7, 100
1, 6, Control_c, 3, 7, 100
1, 6, Control_c, 4, 7, 100
1, 6, Control_c, 5, 7, 100
1, 6, Control_c, 6, 7, 100
1, 6, Control_c, 7, 7, 100
1, 6, Control_c, 8, 7, 100
1, 6, Control_c, 9, 7, 100
1, 6, Control_c, 10, 7, 100
1, 6, Control_c, 11, 7, 100
1, 6, Control_c, 12, 7, 100
1, 6, Control_c, 13, 7, 100
1, 6, Control_c, 14, 7, 100
1, 6, Control_c, 15, 7, 100
1, 117, Control_c, 0, 67, 15
1, 229, Control_c, 0, 67, 31
1, 341, Control_c, 0, 67, 46
1, 452, Control_c, 0, 67, 63
1, 564, Control_c, 0, 67, 77
1, 676, Control_c, 0, 67, 94
1, 787, Control_c, 0, 67, 108
1, 899, Control_c, 0, 67, 127
1, 1133, Note_on_c, 0, 36, 59
1, 1164, Note_off_c, 0, 36, 64
1, 1254, Note_on_c, 0, 36, 56
1, 1262, Note_on_c, 0, 48, 52
1, 1264, Note_on_c, 0, 52, 52
1, 1275, Note_on_c, 0, 43, 37
1, 1285, Note_off_c, 0, 36, 64
1, 1294, Note_off_c, 0, 48, 60
1, 1296, Note_off_c, 0, 52, 65
1, 1311, Note_off_c, 0, 43, 49
1, 1393, Note_on_c, 0, 52, 51
1, 1407, Note_on_c, 0, 36, 15
1, 1410, Note_on_c, 0, 43, 22
1, 1419, Note_off_c, 0, 52, 62
1, 1451, Note_off_c, 0, 36, 49
1, 1452, Note_off_c, 0, 43, 46
1, 1515, Note_on_c, 0, 52, 50
1, 1549, Note_off_c, 0, 52, 64
1, 1555, Poly_aftertouch_c, 0, 48, 127
1, 1599, Poly_aftertouch_c, 0, 48, 0
1, 1654, Note_on_c, 0, 52, 51
1, 1658, Note_on_c, 0, 43, 31
1, 1681, Note_on_c, 0, 48, 22
1, 1692, Note_off_c, 0, 52, 62
1, 1697, Note_off_c, 0, 43, 53
1, 1723, Note_off_c, 0, 48, 45
1, 1776, Note_on_c, 0, 36, 33
1, 1782, Note_on_c, 0, 43, 52
1, 1809, Note_off_c, 0, 36, 57
1, 1810, Note_off_c, 0, 43, 57
1, 1815, Note_on_c, 0, 52, 24
1, 1853, Note_off_c, 0, 52, 50
1, 1898, Note_on_c, 0, 36, 59
1, 1900, Note_on_c, 0, 43, 57
1, 1925, Note_on_c, 0, 52, 32
1, 1925, Note_on_c, 0, 48, 27
1, 1933, Note_off_c, 0, 36, 63
1, 1934, Note_off_c, 0, 43, 61
1, 1953, Note_off_c, 0, 52, 53
1, 1962, Note_off_c, 0, 48, 47
1, 2029, Note_on_c, 0, 43, 52
1, 2035, Note_on_c, 0, 36, 50
1, 2047, Note_on_c, 0, 52, 51
1, 2056, Note_on_c, 0, 48, 45
1, 2059, Note_off_c, 0, 43, 58
1, 2064, Note_off_c, 0, 36, 57
1, 2077, Note_off_c, 0, 52, 59
1, 2086, Note_off_c, 0, 48, 55
1, 2156, Note_on_c, 0, 36, 54
1, 2159, Note_on_c, 0, 43, 45
1, 2180, Note_on_c, 0, 48, 42
1, 2184, Note_on_c, 0, 52, 39
1, 2188, Note_off_c, 0, 36, 64
1, 2189, Note_off_c, 0, 43, 57
1, 2212, Note_off_c, 0, 48, 53
1, 2217, Note_off_c, 0, 52, 49
1, 2286, Note_on_c, 0, 43, 48
1, 2286, Note_on_c, 0, 36, 57
1, 2296, Note_on_c, 0, 52, 51
1, 2306, Note_on_c, 0, 48, 40
1, 2318, Note_off_c, 0, 43, 59
1, 2318, Note_off_c, 0, 36, 64
1, 2333, Note_off_c, 0, 52, 64
1, 2336, Note_off_c, 0, 48, 54
1, 2420, Note_on_c, 0, 43, 48
1, 2421, Note_on_c, 0, 36, 53
1, 2423, Note_on_c, 0, 48, 49
1, 2432, Note_on_c, 0, 52, 50
1, 2450, Note_off_c, 0, 43, 58
1, 2452, Note_off_c, 0, 36, 63
1, 2455, Note_off_c, 0, 48, 55
1, 2467, Note_off_c, 0, 52, 62
1, 2551, Note_on_c, 0, 36, 61
1, 2556, Note_on_c, 0, 43, 47
1, 2563, Note_on_c, 0, 52, 55
1, 2570, Note_on_c, 0, 48, 45
1, 2584, Note_off_c, 0, 36, 63
1, 2587, Note_off_c, 0, 43, 57
1, 2602, Note_off_c, 0, 48, 57
1, 2605, Note_off_c, 0, 52, 62
1, 2694, Note_on_c, 0, 36, 51
1, 2694, Note_on_c, 0, 43, 42
1, 2694, Note_on_c, 0, 52, 45
1, 2697, Note_on_c, 0, 48, 50
1, 2723, Note_off_c, 0, 36, 60
1, 2723, Note_off_c, 0, 48, 59
1, 2727, Note_off_c, 0, 43, 52
1, 2742, Note_off_c, 0, 52, 60
1, 2808, Note_on_c, 0, 48, 54
1, 2816, Note_on_c, 0, 43, 55
1, 2818, Note_on_c, 0, 52, 58
1, 2821, Note_on_c, 0, 36, 52
1, 2843, Note_off_c, 0, 48, 66
1, 2848, Note_off_c, 0, 43, 62
1, 2852, Note_off_c, 0, 36, 63
1, 2858, Note_off_c, 0, 52, 64
1, 2942, Note_on_c, 0, 54, 66
1, 2950, Note_on_c, 0, 50, 55
1, 2953, Note_on_c, 0, 36, 56
1, 2959, Note_on_c, 0, 45, 56
1, 2974, Note_off_c, 0, 50, 60
1, 2974, Note_off_c, 0, 54, 63
1, 2980, Note_off_c, 0, 36, 60
1, 2983, Note_off_c, 0, 45, 59
1, 3067, Note_on_c, 0, 54, 67
1, 3070, Note_on_c, 0, 45, 64
1, 3074, Note_on_c, 0, 50, 52
1, 3079, Note_on_c, 0, 36, 55
1, 3098, Note_off_c, 0, 50, 60
1, 3103, Note_off_c, 0, 45, 64
1, 3105, Note_off_c, 0, 54, 60
1, 3107, Note_off_c, 0, 36, 61
1, 3194, Note_on_c, 0, 55, 59
1, 3199, Note_on_c, 0, 50, 43
1, 3216, Note_on_c, 0, 35, 64
1, 3219, Note_on_c, 0, 43, 60
1, 3254, Note_off_c, 0, 35, 65
1, 3256, Note_off_c, 0, 43, 63
1, 3350, Note_on_c, 0, 35, 60
1, 3356, Note_on_c, 0, 43, 50
1, 3377, Note_off_c, 0, 35, 63
1, 3386, Note_off_c, 0, 43, 54
1, 3476, Note_on_c, 0, 43, 63
1, 3480, Note_on_c, 0, 35, 61
1, 3506, Note_off_c, 0, 43, 62
1, 3509, Note_off_c, 0, 35, 64
1, 3606, Note_off_c, 0, 55, 52
1, 3621, Note_on_c, 0, 35, 59
1, 3625, Note_on_c, 0, 43, 52
1, 3626, Note_on_c, 0, 59, 60
1, 3650, Note_off_c, 0, 35, 61
1, 3654, Note_off_c, 0, 43, 56
1, 3681, Note_off_c, 0, 50, 24
1, 3683, Note_on_c, 0, 57, 60
1, 3722, Note_off_c, 0, 59, 58
1, 3742, Note_on_c, 0, 55, 54
1, 3749, Note_on_c, 0, 35, 59
1, 3753, Note_on_c, 0, 43, 52
1, 3777, Note_off_c, 0, 35, 65
1, 3779, Note_off_c, 0, 57, 62
1, 3787, Note_off_c, 0, 43, 63
1, 3806, Note_off_c, 0, 55, 66
1, 3874, Note_on_c, 0, 35, 54
1, 3875, Note_on_c, 0, 43, 56
1, 3902, Note_off_c, 0, 35, 61
1, 3910, Note_off_c, 0, 43, 58
1, 4019, Note_on_c, 0, 35, 48
1, 4020, Note_on_c, 0, 43, 44
1, 4048, Note_off_c, 0, 35, 54
1, 4052, Note_off_c, 0, 43, 53
1, 4150, Note_on_c, 0, 35, 52
1, 4153, Note_on_c, 0, 43, 48
1, 4178, Note_off_c, 0, 35, 59
1, 4183, Note_off_c, 0, 43, 55
1, 4278, Note_on_c, 0, 85, 62
1, 4285, Note_on_c, 0, 35, 55
1, 4286, Note_on_c, 0, 43, 52
1, 4292, Note_on_c, 0, 86, 69
1, 4321, Note_off_c, 0, 35, 64
1, 4329, Note_off_c, 0, 43, 58
1, 4330, Note_off_c, 0, 85, 62
1, 4415, Note_on_c, 0, 43, 59
1, 4422, Note_on_c, 0, 35, 47
1, 4434, Note_off_c, 0, 86, 0
1, 4434, Note_on_c, 0, 86, 3
1, 4448, Note_off_c, 0, 43, 61
1, 4451, Note_off_c, 0, 35, 53
1, 4545, Note_on_c, 0, 43, 55
1, 4546, Note_on_c, 0, 35, 54
1, 4578, Note_off_c, 0, 35, 63
1, 4578, Note_off_c, 0, 43, 62
1, 4607, Note_off_c, 0, 86, 46
1, 4611, Note_on_c, 0, 84, 61
1, 4679, Note_on_c, 0, 83, 55
1, 4685, Note_on_c, 0, 35, 55
1, 4685, Note_on_c, 0, 43, 51
1, 4705, Note_off_c, 0, 84, 60
1, 4712, Note_off_c, 0, 35, 59
1, 4715, Note_off_c, 0, 43, 57
1, 4751, Note_on_c, 0, 81, 59
1, 4769, Note_off_c, 0, 83, 60
1, 4817, Note_on_c, 0, 43, 54
1, 4822, Note_on_c, 0, 35, 46
1, 4825, Note_on_c, 0, 79, 56
1, 4828, Note_off_c, 0, 81, 60
1, 4849, Note_off_c, 0, 43, 63
1, 4850, Note_off_c, 0, 35, 56
1, 4945, Note_on_c, 0, 35, 54
1, 4946, Note_on_c, 0, 43, 55
1, 4954, Note_off_c, 0, 79, 61
1, 4977, Note_off_c, 0, 35, 63
1, 4978, Note_off_c, 0, 43, 62
1, 5079, Note_on_c, 0, 35, 56
1, 5080, Note_on_c, 0, 43, 52
1, 5107, Note_off_c, 0, 35, 61
1, 5113, Note_off_c, 0, 43, 61
1, 5205, Note_on_c, 0, 35, 52
1, 5208, Note_on_c, 0, 43, 51
1, 5236, Note_off_c, 0, 35, 61
1, 5237, Note_off_c, 0, 43, 57
1, 5335, Note_on_c, 0, 41, 60
1, 5349, Note_on_c, 0, 34, 45
1, 5352, Note_on_c, 0, 50, 54
1, 5353, Note_on_c, 0, 46, 50
1, 5371, Note_off_c, 0, 41, 63
1, 5379, Note_off_c, 0, 34, 51
1, 5379, Note_off_c, 0, 46, 58
1, 5379, Note_off_c, 0, 50, 62
1, 5467, Note_on_c, 0, 34, 54
1, 5473, Note_on_c, 0, 46, 43
1, 5484, Note_on_c, 0, 41, 40
1, 5485, Note_on_c, 0, 50, 56
1, 5506, Note_off_c, 0, 34, 64
1, 5519, Note_off_c, 0, 41, 50
1, 5519, Note_off_c, 0, 46, 58
1, 5520, Note_off_c, 0, 50, 65
1, 5610, Note_on_c, 0, 34, 51
1, 5612, Note_on_c, 0, 41, 45
1, 5624, Note_on_c, 0, 46, 41
1, 5629, Note_on_c, 0, 50, 49
1, 5640, Note_off_c, 0, 34, 60
1, 5646, Note_off_c, 0, 41, 54
1, 5655, Note_off_c, 0, 50, 59
1, 5656, Note_off_c, 0, 46, 52
1, 5738, Note_on_c, 0, 34, 52
1, 5741, Note_on_c, 0, 41, 45
1, 5742, Note_on_c, 0, 46, 50
1, 5752, Note_on_c, 0, 50, 52
1, 5771, Note_off_c, 0, 34, 65
1, 5774, Note_off_c, 0, 41, 57
1, 5776, Note_off_c, 0, 46, 63
1, 5782, Note_off_c, 0, 50, 63
1, 5873, Note_on_c, 0, 34, 54
1, 5875, Note_on_c, 0, 41, 45
1, 5882, Note_on_c, 0, 46, 42
1, 5892, Note_on_c, 0, 50, 47
1, 5903, Note_off_c, 0, 34, 64
1, 5905, Note_off_c, 0, 41, 57
1, 5913, Note_off_c, 0, 46, 56
1, 5919, Note_off_c, 0, 50, 58
1, 6009, Note_on_c, 0, 46, 48
1, 6009, Note_on_c, 0, 34, 51
1, 6014, Note_on_c, 0, 41, 35
1, 6021, Note_on_c, 0, 50, 47
1, 6036, Note_off_c, 0, 34, 59
1, 6042, Note_off_c, 0, 46, 57
1, 6048, Note_off_c, 0, 50, 59
1, 6050, Note_off_c, 0, 41, 47
1, 6137, Note_on_c, 0, 34, 53
1, 6142, Note_on_c, 0, 46, 46
1, 6143, Note_on_c, 0, 41, 46
1, 6152, Note_on_c, 0, 50, 46
1, 6170, Note_off_c, 0, 34, 65
1, 6172, Note_off_c, 0, 46, 59
1, 6173, Note_off_c, 0, 41, 55
1, 6181, Note_off_c, 0, 50, 59
1, 6279, Note_on_c, 0, 34, 53
1, 6283, Note_on_c, 0, 41, 33
1, 6287, Note_on_c, 0, 46, 39
1, 6297, Note_on_c, 0, 50, 43
1, 6304, Note_off_c, 0, 34, 60
1, 6319, Note_off_c, 0, 46, 53
1, 6323, Note_off_c, 0, 50, 58
1, 6326, Note_off_c, 0, 41, 44
1, 6411, Note_on_c, 0, 34, 47
1, 6415, Note_on_c, 0, 46, 44
1, 6418, Note_on_c, 0, 41, 38
1, 6426, Note_on_c, 0, 50, 41
1, 6439, Note_off_c, 0, 34, 60
1, 6444, Note_off_c, 0, 46, 59
1, 6453, Note_off_c, 0, 50, 58
1, 6455, Note_off_c, 0, 41, 50
1, 6539, Note_on_c, 0, 34, 51
1, 6546, Note_on_c, 0, 41, 39
1, 6546, Note_on_c, 0, 46, 45
1, 6557, Note_on_c, 0, 50, 41
1, 6569, Note_off_c, 0, 34, 61
1, 6576, Note_off_c, 0, 46, 58
1, 6583, Note_off_c, 0, 50, 59
1, 6584, Note_off_c, 0, 41, 47
1, 6676, Note_on_c, 0, 34, 49
1, 6679, Note_on_c, 0, 46, 44
1, 6693, Note_on_c, 0, 41, 20
1, 6693, Note_on_c, 0, 50, 41
1, 6703, Note_off_c, 0, 34, 60
1, 6709, Note_off_c, 0, 46, 57
1, 6719, Note_off_c, 0, 50, 55
1, 6740, Note_off_c, 0, 41, 54
1, 6805, Note_on_c, 0, 34, 49
1, 6816, Note_on_c, 0, 46, 37
1, 6822, Note_on_c, 0, 50, 42
1, 6831, Note_off_c, 0, 34, 59
1, 6847, Note_off_c, 0, 46, 54
1, 6847, Note_off_c, 0, 50, 58
1, 6942, Note_on_c, 0, 34, 51
1, 6945, Note_on_c, 0, 46, 47
1, 6951, Note_on_c, 0, 50, 46
1, 6970, Note_off_c, 0, 34, 62
1, 6985, Note_off_c, 0, 46, 60
1, 6987, Note_off_c, 0, 50, 59
1, 7086, Note_on_c, 0, 46, 43
1, 7090, Note_on_c, 0, 34, 44
1, 7090, Note_on_c, 0, 50, 51
1, 7114, Note_off_c, 0, 46, 58
1, 7115, Note_off_c, 0, 50, 61
1, 7118, Note_off_c, 0, 34, 53
1, 7217, Note_on_c, 0, 34, 49
1, 7220, Note_on_c, 0, 52, 59
1, 7225, Note_on_c, 0, 43, 50
1, 7247, Note_off_c, 0, 34, 63
1, 7247, Note_off_c, 0, 52, 67
1, 7255, Note_off_c, 0, 43, 55
1, 7346, Note_on_c, 0, 52, 58
1, 7349, Note_on_c, 0, 43, 52
1, 7351, Note_on_c, 0, 34, 56
1, 7377, Note_off_c, 0, 43, 59
1, 7381, Note_off_c, 0, 34, 63
1, 7385, Note_off_c, 0, 52, 65
1, 7494, Note_on_c, 0, 53, 59
1, 7499, Note_on_c, 0, 33, 61
1, 7505, Note_on_c, 0, 41, 51
1, 7505, Note_on_c, 0, 48, 42
1, 7529, Note_off_c, 0, 33, 66
1, 7534, Note_off_c, 0, 41, 57
1, 7629, Note_on_c, 0, 41, 54
1, 7631, Note_on_c, 0, 33, 59
1, 7661, Note_off_c, 0, 41, 65
1, 7663, Note_off_c, 0, 33, 64
1, 7778, Note_on_c, 0, 41, 50
1, 7779, Note_on_c, 0, 33, 50
1, 7806, Note_off_c, 0, 41, 60
1, 7806, Note_off_c, 0, 33, 58
1, 7899, Note_off_c, 0, 53, 52
1, 7917, Note_on_c, 0, 57, 54
1, 7917, Note_off_c, 0, 48, 38
1, 7919, Note_on_c, 0, 33, 50
1, 7919, Note_on_c, 0, 41, 50
1, 7948, Note_off_c, 0, 33, 60
1, 7948, Note_off_c, 0, 41, 60
1, 7982, Note_on_c, 0, 55, 54
1, 8003, Note_off_c, 0, 57, 55
1, 8048, Note_on_c, 0, 53, 53
1, 8055, Note_on_c, 0, 33, 59
1, 8057, Note_on_c, 0, 41, 50
1, 8062, Note_off_c, 0, 55, 64
1, 8086, Note_off_c, 0, 33, 65
1, 8089, Note_off_c, 0, 41, 64
1, 8098, Note_off_c, 0, 53, 66
1, 8186, Note_on_c, 0, 33, 49
1, 8186, Note_on_c, 0, 41, 50
1, 8217, Note_off_c, 0, 33, 57
1, 8219, Note_off_c, 0, 41, 60
1, 8310, Note_on_c, 0, 33, 50
1, 8321, Note_on_c, 0, 41, 39
1, 8341, Note_off_c, 0, 33, 62
1, 8355, Note_off_c, 0, 41, 52
1, 8444, Note_on_c, 0, 33, 52
1, 8460, Note_on_c, 0, 41, 36
1, 8488, Note_off_c, 0, 33, 62
1, 8516, Note_off_c, 0, 41, 48
1, 8575, Note_on_c, 0, 83, 57
1, 8596, Note_on_c, 0, 32, 54
1, 8605, Note_on_c, 0, 84, 62
1, 8615, Note_on_c, 0, 41, 10
1, 8617, Note_off_c, 0, 83, 64
1, 8629, Note_off_c, 0, 32, 62
1, 8669, Note_off_c, 0, 41, 53
1, 8720, Note_on_c, 0, 32, 58
1, 8731, Note_on_c, 0, 41, 37
1, 8752, Note_off_c, 0, 32, 63
1, 8769, Note_off_c, 0, 41, 47
1, 8857, Note_on_c, 0, 41, 53
1, 8859, Note_on_c, 0, 32, 54
1, 8888, Note_off_c, 0, 32, 60
1, 8888, Note_off_c, 0, 41, 62
1, 8913, Note_off_c, 0, 84, 59
1, 8930, Note_on_c, 0, 82, 54
1, 8989, Note_on_c, 0, 32, 51
1, 8992, Note_on_c, 0, 41, 48
1, 9000, Note_on_c, 0, 80, 56
1, 9022, Note_off_c, 0, 32, 62
1, 9024, Note_off_c, 0, 82, 58
1, 9031, Note_off_c, 0, 41, 51
1, 9068, Note_on_c, 0, 79, 53
1, 9072, Note_off_c, 0, 80, 61
1, 9123, Note_on_c, 0, 32, 53
1, 9126, Note_on_c, 0, 41, 48
1, 9127, Note_off_c, 0, 79, 59
1, 9140, Note_on_c, 0, 77, 55
1, 9156, Note_off_c, 0, 32, 62
1, 9158, Note_off_c, 0, 41, 57
1, 9264, Note_on_c, 0, 41, 47
1, 9267, Note_on_c, 0, 32, 53
1, 9281, Note_off_c, 0, 77, 59
1, 9298, Note_off_c, 0, 41, 55
1, 9301, Note_off_c, 0, 32, 62
1, 9401, Note_on_c, 0, 32, 52
1, 9402, Note_on_c, 0, 41, 39
1, 9431, Note_off_c, 0, 32, 60
1, 9435, Note_off_c, 0, 41, 53
1, 9532, Note_on_c, 0, 41, 47
1, 9534, Note_on_c, 0, 32, 54
1, 9564, Note_off_c, 0, 41, 58
1, 9573, Note_off_c, 0, 32, 63
1, 9676, Note_on_c, 0, 88, 46
1, 9682, Note_on_c, 0, 41, 36
1, 9688, Note_on_c, 0, 31, 53
1, 9693, Note_on_c, 0, 89, 51
1, 9720, Note_off_c, 0, 31, 57
1, 9723, Note_off_c, 0, 41, 51
1, 9774, Note_off_c, 0, 88, 41
1, 9825, Note_on_c, 0, 31, 57
1, 9834, Note_on_c, 0, 41, 42
1, 9857, Note_off_c, 0, 31, 63
1, 9868, Note_off_c, 0, 41, 50
1, 9966, Note_on_c, 0, 31, 54
1, 9976, Note_on_c, 0, 41, 42
1, 10002, Note_off_c, 0, 31, 59
1, 10012, Note_off_c, 0, 41, 51
1, 10104, Note_on_c, 0, 31, 50
1, 10113, Note_on_c, 0, 41, 43
1, 10137, Note_off_c, 0, 31, 62
1, 10147, Note_off_c, 0, 41, 51
1, 10242, Note_on_c, 0, 31, 55
1, 10247, Note_on_c, 0, 41, 42
1, 10274, Note_off_c, 0, 31, 62
1, 10281, Note_off_c, 0, 41, 51
1, 10374, Note_on_c, 0, 31, 54
1, 10386, Note_on_c, 0, 41, 30
1, 10396, Note_off_c, 0, 89, 44
1, 10413, Note_off_c, 0, 31, 58
1, 10426, Note_off_c, 0, 41, 53
1, 10510, Note_on_c, 0, 89, 51
1, 10515, Note_on_c, 0, 32, 47
1, 10528, Note_on_c, 0, 41, 21
1, 10546, Note_off_c, 0, 32, 56
1, 10574, Note_off_c, 0, 41, 43
1, 10584, Note_off_c, 0, 89, 55
1, 10588, Note_on_c, 0, 87, 55
1, 10641, Note_on_c, 0, 32, 53
1, 10652, Note_on_c, 0, 86, 50
1, 10659, Note_off_c, 0, 87, 60
1, 10670, Note_on_c, 0, 41, 29
1, 10675, Note_off_c, 0, 32, 63
1, 10681, Note_off_c, 0, 86, 56
1, 10701, Note_on_c, 0, 84, 52
1, 10711, Note_off_c, 0, 41, 53
1, 10769, Note_off_c, 0, 84, 63
1, 10784, Note_on_c, 0, 83, 57
1, 10787, Note_on_c, 0, 31, 55
1, 10806, Note_on_c, 0, 41, 31
1, 10816, Note_off_c, 0, 31, 56
1, 10817, Note_off_c, 0, 83, 64
1, 10847, Note_off_c, 0, 41, 55
1, 10855, Note_on_c, 0, 84, 49
1, 10906, Note_on_c, 0, 31, 56
1, 10916, Note_on_c, 0, 86, 68
1, 10925, Note_off_c, 0, 84, 45
1, 10930, Note_on_c, 0, 41, 45
1, 10945, Note_off_c, 0, 31, 61
1, 10968, Note_off_c, 0, 41, 53
1, 10985, Note_off_c, 0, 86, 58
1, 10992, Note_on_c, 0, 87, 65
1, 11055, Note_off_c, 0, 87, 61
1, 11057, Note_on_c, 0, 89, 84
1, 11060, Note_on_c, 0, 41, 57
1, 11061, Note_on_c, 0, 32, 67
1, 11093, Note_off_c, 0, 32, 62
1, 11094, Note_off_c, 0, 41, 62
1, 11130, Note_on_c, 0, 87, 70
1, 11173, Note_off_c, 0, 89, 62
1, 11195, Note_on_c, 0, 41, 53
1, 11200, Note_on_c, 0, 32, 53
1, 11204, Note_on_c, 0, 86, 65
1, 11224, Note_off_c, 0, 41, 60
1, 11227, Note_off_c, 0, 32, 60
1, 11230, Note_off_c, 0, 87, 62
1, 11264, Note_off_c, 0, 86, 62
1, 11276, Note_on_c, 0, 84, 61
1, 11339, Note_on_c, 0, 41, 66
1, 11342, Note_on_c, 0, 31, 78
1, 11342, Note_off_c, 0, 84, 64
1, 11345, Note_on_c, 0, 83, 75
1, 11364, Note_off_c, 0, 41, 67
1, 11368, Note_off_c, 0, 31, 65
1, 11404, Note_off_c, 0, 83, 67
1, 11423, Note_on_c, 0, 84, 67
1, 11482, Note_on_c, 0, 31, 73
1, 11483, Note_on_c, 0, 41, 61
1, 11499, Note_on_c, 0, 86, 78
1, 11510, Note_off_c, 0, 41, 66
1, 11512, Note_off_c, 0, 84, 59
1, 11518, Note_off_c, 0, 31, 60
1, 11567, Note_on_c, 0, 87, 75
1, 11568, Control_c, 0, 67, 127
1, 11571, Note_off_c, 0, 86, 62
1, 11583, Control_c, 0, 67, 121
1, 11598, Control_c, 0, 67, 109
1, 11613, Control_c, 0, 67, 87
1, 11622, Note_on_c, 0, 41, 74
1, 11628, Note_on_c, 0, 89, 103
1, 11628, Control_c, 0, 67, 47
1, 11631, Note_on_c, 0, 32, 73
1, 11640, Note_off_c, 0, 87, 64
1, 11643, Control_c, 0, 67, 0
1, 11655, Note_off_c, 0, 41, 64
1, 11662, Note_off_c, 0, 32, 62
1, 11666, Note_on_c, 0, 31, 4
1, 11667, Note_off_c, 0, 31, 127
1, 11709, Note_on_c, 0, 87, 76
1, 11750, Note_on_c, 0, 41, 64
1, 11754, Note_on_c, 0, 32, 65
1, 11771, Note_on_c, 0, 86, 71
1, 11774, Note_off_c, 0, 89, 63
1, 11784, Note_off_c, 0, 41, 61
1, 11794, Note_off_c, 0, 32, 58
1, 11807, Note_off_c, 0, 87, 65
1, 11836, Note_on_c, 0, 84, 72
1, 11836, Note_off_c, 0, 86, 63
1, 11899, Note_on_c, 0, 41, 81
1, 11907, Note_off_c, 0, 84, 62
1, 11915, Note_on_c, 0, 31, 66
1, 11919, Note_on_c, 0, 83, 76
1, 11924, Note_on_c, 0, 33, 48
1, 11927, Note_off_c, 0, 41, 69
1, 11942, Note_off_c, 0, 31, 57
1, 11958, Note_off_c, 0, 33, 50
1, 11971, Note_off_c, 0, 83, 67
1, 11982, Note_on_c, 0, 84, 64
1, 12057, Note_on_c, 0, 86, 84
1, 12072, Note_off_c, 0, 84, 63
1, 12127, Note_on_c, 0, 87, 70
1, 12138, Note_off_c, 0, 86, 61
1, 12196, Note_on_c, 0, 89, 100
1, 12200, Note_on_c, 0, 55, 99
1, 12203, Note_off_c, 0, 87, 55
1, 12205, Note_on_c, 0, 43, 85
1, 12206, Control_c, 0, 64, 45
1, 12229, Control_c, 0, 64, 127
1, 12305, Note_on_c, 0, 87, 83
1, 12358, Note_on_c, 0, 86, 75
1, 12370, Note_off_c, 0, 89, 58
1, 12395, Note_off_c, 0, 87, 64
1, 12420, Note_off_c, 0, 86, 61
1, 12427, Note_on_c, 0, 84, 70
1, 12471, Note_off_c, 0, 84, 60
1, 12505, Note_on_c, 0, 83, 79
1, 12573, Note_on_c, 0, 80, 87
1, 12580, Note_off_c, 0, 43, 50
1, 12603, Note_off_c, 0, 83, 65
1, 12638, Note_on_c, 0, 79, 82
1, 12657, Note_off_c, 0, 80, 63
1, 12692, Note_on_c, 0, 77, 77
1, 12694, Note_off_c, 0, 79, 63
1, 12755, Note_off_c, 0, 77, 53
1, 12767, Note_on_c, 0, 75, 80
1, 12828, Note_on_c, 0, 74, 78
1, 12855, Note_off_c, 0, 75, 60
1, 12889, Note_on_c, 0, 72, 78
1, 12890, Note_off_c, 0, 74, 66
1, 12903, Note_off_c, 0, 55, 53
1, 12977, Note_off_c, 0, 72, 56
1, 12978, Note_on_c, 0, 71, 85
1, 12989, Note_on_c, 0, 57, 71
1, 13038, Note_on_c, 0, 59, 72
1, 13053, Control_c, 0, 64, 63
1, 13056, Note_on_c, 0, 72, 110
1, 13062, Note_off_c, 0, 57, 63
1, 13068, Control_c, 0, 64, 0
1, 13072, Note_on_c, 0, 60, 97
1, 13086, Note_off_c, 0, 71, 64
1, 13095, Note_off_c, 0, 72, 71
1, 13096, Note_off_c, 0, 59, 66
1, 13109, Note_off_c, 0, 60, 70
1, 13391, Note_on_c, 0, 67, 104
1, 13394, Note_on_c, 0, 55, 98
1, 13395, Note_on_c, 0, 43, 80
1, 13423, Note_off_c, 0, 43, 67
1, 13423, Note_off_c, 0, 55, 68
1, 13423, Note_off_c, 0, 67, 69
1, 13729, Note_on_c, 0, 51, 72
1, 13733, Note_on_c, 0, 39, 63
1, 13734, Note_on_c, 0, 63, 94
1, 13753, Note_off_c, 0, 51, 69
1, 13759, Note_off_c, 0, 39, 56
1, 13772, Note_off_c, 0, 63, 68
1, 14075, Note_on_c, 0, 60, 82
1, 14081, Note_on_c, 0, 36, 62
1, 14081, Note_on_c, 0, 48, 61
1, 14104, Note_off_c, 0, 48, 62
1, 14106, Note_off_c, 0, 36, 65
1, 14112, Note_off_c, 0, 60, 67
1, 14558, Note_on_c, 0, 43, 39
1, 14559, Note_on_c, 0, 55, 44
1, 14573, Note_on_c, 0, 31, 40
1, 15097, Control_c, 0, 64, 11
1, 15112, Control_c, 0, 64, 13
1, 15127, Control_c, 0, 64, 15
1, 15142, Control_c, 0, 64, 16
1, 15157, Control_c, 0, 64, 19
1, 15171, Control_c, 0, 64, 21
1, 15186, Control_c, 0, 64, 22
1, 15223, Control_c, 0, 64, 23
1, 15267, Control_c, 0, 64, 22
1, 15282, Control_c, 0, 64, 22
1, 15297, Control_c, 0, 64, 21
1, 15312, Control_c, 0, 64, 20
1, 15327, Control_c, 0, 64, 20
1, 15342, Control_c, 0, 64, 19
1, 15357, Control_c, 0, 64, 18
1, 15565, Control_c, 0, 64, 19
1, 15580, Control_c, 0, 64, 20
1, 15594, Control_c, 0, 64, 21
1, 15609, Control_c, 0, 64, 23
1, 15624, Control_c, 0, 64, 24
1, 15639, Control_c, 0, 64, 27
1, 15654, Control_c, 0, 64, 30
1, 15668, Control_c, 0, 64, 34
1, 15683, Control_c, 0, 64, 38
1, 15698, Control_c, 0, 64, 42
1, 15713, Control_c, 0, 64, 46
1, 15727, Control_c, 0, 64, 48
1, 15742, Control_c, 0, 64, 50
1, 15757, Control_c, 0, 64, 51
1, 15772, Control_c, 0, 64, 52
1, 15787, Control_c, 0, 64, 53
1, 15801, Control_c, 0, 64, 54
1, 15816, Control_c, 0, 64, 55
1, 15831, Control_c, 0, 64, 56
1, 15846, Control_c, 0, 64, 58
1, 15861, Control_c, 0, 64, 59
1, 15876, Control_c, 0, 64, 60
1, 15890, Control_c, 0, 64, 60
1, 15905, Control_c, 0, 64, 61
1, 15920, Control_c, 0, 64, 62
1, 15935, Control_c, 0, 64, 63
1, 15950, Control_c, 0, 64, 65
1, 15972, Control_c, 0, 64, 66
1, 15987, Control_c, 0, 64, 67
1, 16001, Control_c, 0, 64, 69
1, 16016, Control_c, 0, 64, 71
1, 16031, Control_c, 0, 64, 74
1, 16046, Control_c, 0, 64, 77
1, 16061, Control_c, 0, 64, 80
1, 16075, Control_c, 0, 64, 82
1, 16090, Control_c, 0, 64, 84
1, 16105, Control_c, 0, 64, 85
1, 16120, Control_c, 0, 64, 85
1, 16135, Control_c, 0, 64, 86
1, 16150, Control_c, 0, 64, 87
1, 16165, Control_c, 0, 64, 87
1, 16180, Control_c, 0, 64, 88
1, 16240, Control_c, 0, 64, 88
1, 16285, Control_c, 0, 64, 89
1, 16299, Control_c, 0, 64, 89
1, 16337, Note_off_c, 0, 31, 27
1, 16534, Note_off_c, 0, 55, 35
1, 16540, Note_off_c, 0, 43, 31
1, 17180, Control_c, 0, 64, 86
1, 17195, Control_c, 0, 64, 77
1, 17210, Control_c, 0, 64, 66
1, 17225, Control_c, 0, 64, 54
1, 17239, Control_c, 0, 64, 21
1, 17254, Control_c, 0, 64, 0
1, 17269, Control_c, 0, 67, 8
1, 17284, Control_c, 0, 64, 10
1, 17284, Control_c, 0, 67, 19
1, 17286, Note_on_c, 0, 64, 54
1, 17289, Note_on_c, 0, 36, 51
1, 17298, Control_c, 0, 64, 33
1, 17298, Control_c, 0, 67, 34
1, 17299, Note_on_c, 0, 48, 49
1, 17313, Control_c, 0, 64, 45
1, 17313, Control_c, 0, 67, 52
1, 17319, Note_off_c, 0, 36, 55
1, 17324, Note_off_c, 0, 64, 64
1, 17328, Control_c, 0, 64, 55
1, 17328, Control_c, 0, 67, 69
1, 17330, Note_off_c, 0, 48, 63
1, 17343, Control_c, 0, 64, 59
1, 17343, Control_c, 0, 67, 84
1, 17345, Note_on_c, 0, 60, 51
1, 17357, Control_c, 0, 64, 59
1, 17357, Control_c, 0, 67, 98
1, 17372, Control_c, 0, 67, 115
1, 17380, Note_off_c, 0, 60, 51
1, 17387, Control_c, 0, 64, 58
1, 17387, Control_c, 0, 67, 127
1, 17402, Control_c, 0, 64, 56
1, 17414, Note_on_c, 0, 48, 66
1, 17417, Control_c, 0, 64, 49
1, 17422, Note_on_c, 0, 64, 57
1, 17432, Control_c, 0, 64, 33
1, 17446, Control_c, 0, 64, 0
1, 17463, Note_off_c, 0, 64, 65
1, 17468, Note_off_c, 0, 48, 62
1, 17483, Note_on_c, 0, 60, 56
1, 17506, Note_on_c, 0, 55, 54
1, 17524, Note_off_c, 0, 60, 59
1, 17544, Note_off_c, 0, 55, 60
1, 17560, Note_on_c, 0, 64, 55
1, 17578, Note_on_c, 0, 48, 52
1, 17589, Note_off_c, 0, 64, 58
1, 17617, Note_off_c, 0, 48, 64
1, 17634, Note_on_c, 0, 60, 47
1, 17643, Note_on_c, 0, 55, 49
1, 17659, Note_off_c, 0, 60, 56
1, 17688, Note_off_c, 0, 55, 61
1, 17694, Note_on_c, 0, 64, 58
1, 17710, Note_on_c, 0, 48, 56
1, 17732, Note_off_c, 0, 64, 64
1, 17744, Note_off_c, 0, 48, 65
1, 17745, Note_on_c, 0, 60, 55
1, 17791, Note_on_c, 0, 55, 42
1, 17810, Note_off_c, 0, 60, 60
1, 17822, Note_off_c, 0, 55, 56
1, 17827, Note_on_c, 0, 48, 65
1, 17837, Note_on_c, 0, 64, 57
1, 17863, Note_off_c, 0, 48, 65
1, 17864, Note_off_c, 0, 64, 63
1, 17889, Note_on_c, 0, 60, 52
1, 17906, Note_on_c, 0, 55, 54
1, 17934, Note_off_c, 0, 60, 64
1, 17937, Note_off_c, 0, 55, 55
1, 17945, Note_on_c, 0, 48, 58
1, 17952, Note_on_c, 0, 64, 60
1, 17992, Note_off_c, 0, 64, 63
1, 17995, Note_off_c, 0, 48, 62
1, 18016, Note_on_c, 0, 60, 57
1, 18025, Note_on_c, 0, 55, 54
1, 18066, Note_off_c, 0, 60, 61
1, 18072, Note_off_c, 0, 55, 60
1, 18075, Note_on_c, 0, 48, 53
1, 18091, Note_on_c, 0, 64, 55
1, 18117, Note_off_c, 0, 48, 63
1, 18123, Note_off_c, 0, 64, 54
1, 18149, Note_on_c, 0, 60, 57
1, 18153, Note_on_c, 0, 55, 53
1, 18195, Note_off_c, 0, 60, 59
1, 18199, Note_off_c, 0, 55, 62
1, 18220, Note_on_c, 0, 48, 55
1, 18223, Note_on_c, 0, 64, 59
1, 18256, Note_off_c, 0, 48, 57
1, 18270, Note_off_c, 0, 64, 62
1, 18290, Note_on_c, 0, 60, 61
1, 18295, Note_on_c, 0, 55, 51
1, 18339, Note_off_c, 0, 60, 60
1, 18340, Note_off_c, 0, 55, 54
1, 18349, Note_on_c, 0, 48, 64
1, 18365, Note_on_c, 0, 64, 62
1, 18394, Note_off_c, 0, 48, 63
1, 18400, Note_off_c, 0, 64, 64
1, 18426, Note_on_c, 0, 60, 57
1, 18440, Note_on_c, 0, 55, 33
1, 18474, Note_off_c, 0, 60, 62
1, 18486, Note_off_c, 0, 55, 51
1, 18493, Note_on_c, 0, 48, 52
1, 18496, Note_on_c, 0, 64, 60
1, 18532, Note_off_c, 0, 48, 63
1, 18534, Note_off_c, 0, 64, 63
1, 18555, Note_on_c, 0, 60, 60
1, 18562, Note_on_c, 0, 55, 49
1, 18615, Note_off_c, 0, 60, 61
1, 18618, Note_off_c, 0, 55, 58
1, 18629, Note_on_c, 0, 48, 48
1, 18633, Note_on_c, 0, 64, 61
1, 18667, Note_off_c, 0, 48, 57
1, 18669, Note_off_c, 0, 64, 62
1, 18693, Note_on_c, 0, 55, 43
1, 18693, Note_on_c, 0, 60, 54
1, 18745, Note_off_c, 0, 60, 62
1, 18754, Note_off_c, 0, 55, 59
1, 18764, Note_on_c, 0, 48, 55
1, 18767, Note_on_c, 0, 64, 60
1, 18802, Note_off_c, 0, 48, 62
1, 18804, Note_off_c, 0, 64, 62
1, 18829, Note_on_c, 0, 55, 46
1, 18830, Note_on_c, 0, 60, 59
1, 18877, Note_off_c, 0, 60, 59
1, 18889, Note_off_c, 0, 55, 58
1, 18893, Note_on_c, 0, 48, 55
1, 18904, Note_on_c, 0, 64, 62
1, 18939, Note_off_c, 0, 48, 64
1, 18943, Note_off_c, 0, 64, 63
1, 18973, Note_on_c, 0, 55, 52
1, 18976, Note_on_c, 0, 60, 61
1, 19015, Note_off_c, 0, 60, 64
1, 19026, Note_off_c, 0, 55, 60
1, 19041, Note_on_c, 0, 64, 59
1, 19047, Note_on_c, 0, 48, 55
1, 19077, Note_off_c, 0, 48, 62
1, 19081, Note_off_c, 0, 64, 63
1, 19101, Note_on_c, 0, 60, 63
1, 19109, Note_on_c, 0, 55, 52
1, 19135, Note_off_c, 0, 60, 62
1, 19149, Note_off_c, 0, 55, 65
1, 19159, Note_on_c, 0, 48, 67
1, 19171, Note_on_c, 0, 66, 68
1, 19196, Note_off_c, 0, 48, 66
1, 19213, Note_off_c, 0, 66, 56
1, 19240, Note_on_c, 0, 62, 63
1, 19245, Note_on_c, 0, 57, 56
1, 19278, Note_off_c, 0, 62, 55
1, 19284, Note_off_c, 0, 57, 59
1, 19301, Note_on_c, 0, 48, 60
1, 19306, Note_on_c, 0, 66, 69
1, 19331, Note_off_c, 0, 48, 66
1, 19349, Note_off_c, 0, 66, 59
1, 19357, Note_on_c, 0, 57, 63
1, 19366, Note_on_c, 0, 62, 66
1, 19394, Note_off_c, 0, 57, 58
1, 19408, Note_off_c, 0, 62, 56
1, 19432, Note_on_c, 0, 67, 76
1, 19444, Note_on_c, 0, 50, 53
1, 19448, Note_on_c, 0, 47, 59
1, 19475, Note_off_c, 0, 50, 65
1, 19494, Note_off_c, 0, 47, 58
1, 19516, Note_on_c, 0, 55, 66
1, 19566, Note_off_c, 0, 55, 59
1, 19582, Note_on_c, 0, 47, 61
1, 19582, Note_on_c, 0, 50, 53
1, 19612, Note_off_c, 0, 50, 65
1, 19618, Note_off_c, 0, 47, 65
1, 19649, Note_on_c, 0, 55, 64
1, 19694, Note_off_c, 0, 55, 57
1, 19712, Note_on_c, 0, 50, 62
1, 19716, Note_on_c, 0, 47, 55
1, 19749, Note_off_c, 0, 50, 65
1, 19765, Note_off_c, 0, 47, 59
1, 19781, Note_on_c, 0, 55, 60
1, 19822, Note_off_c, 0, 67, 53
1, 19840, Note_on_c, 0, 71, 66
1, 19843, Note_off_c, 0, 55, 56
1, 19858, Note_on_c, 0, 47, 55
1, 19865, Note_on_c, 0, 50, 39
1, 19891, Note_off_c, 0, 50, 57
1, 19897, Note_off_c, 0, 47, 56
1, 19904, Note_on_c, 0, 69, 68
1, 19926, Note_on_c, 0, 55, 53
1, 19934, Note_off_c, 0, 71, 64
1, 19965, Note_on_c, 0, 67, 65
1, 19979, Note_off_c, 0, 55, 60
1, 19986, Note_off_c, 0, 69, 63
1, 19988, Note_on_c, 0, 47, 58
1, 19997, Note_on_c, 0, 50, 40
1, 20020, Note_off_c, 0, 67, 64
1, 20037, Note_off_c, 0, 47, 60
1, 20043, Note_off_c, 0, 50, 53
1, 20072, Note_on_c, 0, 55, 62
1, 20128, Note_off_c, 0, 55, 58
1, 20144, Note_on_c, 0, 47, 56
1, 20156, Note_on_c, 0, 50, 47
1, 20175, Note_off_c, 0, 47, 58
1, 20183, Note_off_c, 0, 50, 59
1, 20201, Note_on_c, 0, 55, 58
1, 20252, Note_off_c, 0, 55, 51
1, 20263, Note_on_c, 0, 47, 61
1, 20267, Note_on_c, 0, 50, 54
1, 20296, Note_off_c, 0, 50, 66
1, 20308, Note_off_c, 0, 47, 60
1, 20335, Note_on_c, 0, 55, 61
1, 20383, Note_off_c, 0, 55, 55
1, 20398, Note_on_c, 0, 50, 50
1, 20405, Note_on_c, 0, 47, 53
1, 20436, Note_off_c, 0, 50, 59
1, 20440, Note_off_c, 0, 47, 54
1, 20468, Note_on_c, 0, 55, 56
1, 20532, Note_off_c, 0, 55, 44
1, 20542, Note_on_c, 0, 47, 56
1, 20548, Note_on_c, 0, 85, 61
1, 20550, Note_on_c, 0, 50, 53
1, 20563, Note_on_c, 0, 86, 67
1, 20585, Note_off_c, 0, 50, 64
1, 20594, Note_off_c, 0, 47, 59
1, 20594, Note_off_c, 0, 85, 60
1, 20625, Note_on_c, 0, 55, 53
1, 20663, Note_off_c, 0, 86, 0
1, 20681, Note_off_c, 0, 55, 60
1, 20689, Note_on_c, 0, 47, 60
1, 20692, Note_on_c, 0, 86, 19
1, 20697, Note_on_c, 0, 50, 48
1, 20724, Note_off_c, 0, 50, 60
1, 20732, Note_off_c, 0, 47, 58
1, 20756, Note_on_c, 0, 55, 52
1, 20810, Note_off_c, 0, 55, 46
1, 20827, Note_on_c, 0, 47, 59
1, 20833, Note_on_c, 0, 50, 44
1, 20863, Note_off_c, 0, 50, 59
1, 20872, Note_off_c, 0, 47, 59
1, 20906, Note_on_c, 0, 55, 48
1, 20916, Note_off_c, 0, 86, 40
1, 20919, Note_on_c, 0, 84, 59
1, 20949, Note_off_c, 0, 55, 48
1, 20967, Note_on_c, 0, 47, 53
1, 20969, Note_on_c, 0, 50, 46
1, 20988, Note_on_c, 0, 83, 60
1, 21007, Note_off_c, 0, 47, 60
1, 21011, Note_off_c, 0, 50, 55
1, 21012, Note_off_c, 0, 84, 59
1, 21053, Note_on_c, 0, 55, 50
1, 21058, Note_on_c, 0, 81, 63
1, 21060, Note_off_c, 0, 83, 60
1, 21097, Note_off_c, 0, 55, 54
1, 21110, Note_on_c, 0, 47, 51
1, 21127, Note_on_c, 0, 50, 44
1, 21128, Note_on_c, 0, 79, 58
1, 21128, Note_off_c, 0, 81, 58
1, 21152, Note_off_c, 0, 47, 58
1, 21154, Note_off_c, 0, 50, 58
1, 21192, Note_on_c, 0, 55, 60
1, 21234, Note_off_c, 0, 55, 51
1, 21259, Note_on_c, 0, 47, 54
1, 21259, Note_on_c, 0, 50, 50
1, 21273, Note_off_c, 0, 79, 57
1, 21290, Note_off_c, 0, 50, 60
1, 21298, Note_off_c, 0, 47, 58
1, 21325, Note_on_c, 0, 55, 63
1, 21363, Note_off_c, 0, 55, 62
1, 21392, Note_on_c, 0, 50, 46
1, 21393, Note_on_c, 0, 47, 45
1, 21417, Note_off_c, 0, 50, 60
1, 21447, Note_on_c, 0, 55, 61
1, 21447, Note_off_c, 0, 47, 49
1, 21480, Note_off_c, 0, 55, 63
1, 21506, Note_on_c, 0, 50, 55
1, 21518, Note_on_c, 0, 47, 10
1, 21556, Note_off_c, 0, 50, 60
1, 21564, Note_on_c, 0, 55, 65
1, 21566, Note_off_c, 0, 47, 53
1, 21592, Note_off_c, 0, 55, 67
1, 21697, Note_on_c, 0, 65, 69
1, 21700, Note_on_c, 0, 50, 75
1, 21702, Control_c, 0, 64, 27
1, 21706, Note_on_c, 0, 38, 59
1, 21717, Control_c, 0, 64, 45
1, 21728, Note_off_c, 0, 50, 67
1, 21731, Control_c, 0, 64, 62
1, 21733, Note_off_c, 0, 38, 57
1, 21746, Control_c, 0, 64, 79
1, 21760, Note_off_c, 0, 65, 65
1, 21761, Control_c, 0, 64, 87
1, 21771, Note_on_c, 0, 62, 65
1, 21777, Control_c, 0, 64, 87
1, 21792, Control_c, 0, 64, 88
1, 21807, Control_c, 0, 64, 88
1, 21837, Note_off_c, 0, 62, 58
1, 21859, Note_on_c, 0, 65, 60
1, 21873, Note_on_c, 0, 50, 50
1, 21880, Control_c, 0, 64, 86
1, 21891, Note_off_c, 0, 65, 67
1, 21895, Control_c, 0, 64, 78
1, 21907, Note_on_c, 0, 62, 61
1, 21910, Control_c, 0, 64, 65
1, 21919, Note_off_c, 0, 50, 43
1, 21925, Control_c, 0, 64, 51
1, 21932, Note_on_c, 0, 57, 69
1, 21940, Control_c, 0, 64, 0
1, 21977, Note_off_c, 0, 62, 53
1, 21998, Note_on_c, 0, 65, 63
1, 22011, Note_off_c, 0, 57, 55
1, 22028, Note_on_c, 0, 50, 63
1, 22038, Note_off_c, 0, 65, 65
1, 22058, Note_off_c, 0, 50, 63
1, 22059, Note_on_c, 0, 62, 63
1, 22094, Note_on_c, 0, 57, 62
1, 22114, Note_off_c, 0, 62, 57
1, 22138, Note_off_c, 0, 57, 57
1, 22141, Note_on_c, 0, 65, 63
1, 22162, Note_on_c, 0, 50, 58
1, 22176, Note_off_c, 0, 65, 65
1, 22195, Note_on_c, 0, 62, 65
1, 22201, Note_off_c, 0, 50, 65
1, 22239, Note_on_c, 0, 57, 56
1, 22258, Note_off_c, 0, 62, 58
1, 22276, Note_on_c, 0, 65, 69
1, 22284, Note_off_c, 0, 57, 58
1, 22297, Note_on_c, 0, 50, 52
1, 22314, Note_off_c, 0, 65, 64
1, 22328, Note_off_c, 0, 50, 59
1, 22339, Note_on_c, 0, 62, 64
1, 22358, Note_on_c, 0, 57, 55
1, 22398, Note_off_c, 0, 62, 57
1, 22417, Note_on_c, 0, 65, 68
1, 22421, Note_on_c, 0, 50, 61
1, 22421, Note_off_c, 0, 57, 51
1, 22459, Note_off_c, 0, 50, 65
1, 22466, Note_off_c, 0, 65, 62
1, 22482, Note_on_c, 0, 62, 66
1, 22497, Note_on_c, 0, 57, 49
1, 22537, Note_off_c, 0, 62, 53
1, 22555, Note_off_c, 0, 57, 55
1, 22562, Note_on_c, 0, 65, 66
1, 22565, Note_on_c, 0, 50, 50
1, 22592, Note_off_c, 0, 50, 59
1, 22602, Note_off_c, 0, 65, 65
1, 22624, Note_on_c, 0, 62, 66
1, 22630, Note_on_c, 0, 57, 49
1, 22684, Note_on_c, 0, 50, 61
1, 22691, Note_off_c, 0, 62, 61
1, 22707, Note_off_c, 0, 57, 54
1, 22709, Note_on_c, 0, 65, 70
1, 22735, Note_off_c, 0, 50, 61
1, 22755, Note_off_c, 0, 65, 62
1, 22770, Note_on_c, 0, 62, 56
1, 22776, Note_on_c, 0, 57, 42
1, 22835, Note_off_c, 0, 57, 57
1, 22836, Note_off_c, 0, 62, 63
1, 22842, Note_on_c, 0, 50, 54
1, 22849, Note_on_c, 0, 65, 66
1, 22872, Note_off_c, 0, 50, 58
1, 22896, Note_off_c, 0, 65, 63
1, 22907, Note_on_c, 0, 62, 61
1, 22915, Note_on_c, 0, 57, 52
1, 22973, Note_on_c, 0, 50, 50
1, 22976, Note_off_c, 0, 57, 52
1, 22977, Note_off_c, 0, 62, 62
1, 22988, Note_on_c, 0, 65, 65
1, 23013, Note_off_c, 0, 50, 62
1, 23033, Note_off_c, 0, 65, 63
1, 23051, Note_on_c, 0, 57, 45
1, 23053, Note_on_c, 0, 62, 60
1, 23113, Note_off_c, 0, 62, 60
1, 23116, Note_on_c, 0, 50, 58
1, 23122, Note_off_c, 0, 57, 56
1, 23134, Note_on_c, 0, 65, 66
1, 23155, Note_off_c, 0, 50, 65
1, 23173, Note_off_c, 0, 65, 65
1, 23192, Note_on_c, 0, 62, 58
1, 23206, Note_on_c, 0, 57, 34
1, 23249, Note_off_c, 0, 62, 61
1, 23260, Note_off_c, 0, 57, 47
1, 23268, Note_on_c, 0, 65, 68
1, 23269, Note_on_c, 0, 50, 53
1, 23310, Note_off_c, 0, 50, 62
1, 23313, Note_off_c, 0, 65, 63
1, 23332, Note_on_c, 0, 62, 63
1, 23358, Note_on_c, 0, 57, 42
1, 23396, Note_off_c, 0, 62, 61
1, 23408, Note_on_c, 0, 65, 66
1, 23422, Note_off_c, 0, 57, 47
1, 23423, Note_on_c, 0, 50, 54
1, 23465, Note_off_c, 0, 65, 61
1, 23473, Note_off_c, 0, 50, 63
1, 23479, Note_on_c, 0, 62, 60
1, 23507, Note_on_c, 0, 57, 40
1, 23533, Note_off_c, 0, 62, 60
1, 23546, Note_on_c, 0, 65, 62
1, 23553, Note_off_c, 0, 57, 48
1, 23577, Note_on_c, 0, 50, 53
1, 23602, Note_off_c, 0, 65, 64
1, 23608, Note_on_c, 0, 62, 63
1, 23611, Note_off_c, 0, 50, 63
1, 23641, Note_on_c, 0, 57, 54
1, 23655, Note_off_c, 0, 62, 56
1, 23676, Note_off_c, 0, 57, 61
1, 23689, Note_on_c, 0, 68, 72
1, 23702, Note_on_c, 0, 50, 64
1, 23730, Note_off_c, 0, 50, 65
1, 23748, Note_off_c, 0, 68, 60
1, 23758, Note_on_c, 0, 64, 66
1, 23772, Note_on_c, 0, 59, 57
1, 23805, Note_off_c, 0, 64, 52
1, 23809, Note_off_c, 0, 59, 60
1, 23824, Note_on_c, 0, 68, 66
1, 23828, Note_on_c, 0, 50, 54
1, 23865, Note_off_c, 0, 50, 65
1, 23883, Note_off_c, 0, 68, 60
1, 23894, Note_on_c, 0, 59, 63
1, 23894, Note_on_c, 0, 64, 64
1, 23928, Note_off_c, 0, 59, 59
1, 23961, Note_off_c, 0, 64, 56
1, 23971, Note_on_c, 0, 69, 73
1, 23982, Note_on_c, 0, 48, 57
1, 23989, Note_on_c, 0, 52, 54
1, 24019, Note_off_c, 0, 52, 67
1, 24030, Note_off_c, 0, 48, 62
1, 24060, Note_on_c, 0, 57, 63
1, 24111, Note_off_c, 0, 57, 49
1, 24122, Note_on_c, 0, 52, 51
1, 24136, Note_on_c, 0, 48, 56
1, 24156, Note_off_c, 0, 52, 67
1, 24162, Note_off_c, 0, 48, 62
1, 24207, Note_on_c, 0, 57, 66
1, 24264, Note_off_c, 0, 57, 55
1, 24265, Note_on_c, 0, 48, 56
1, 24265, Note_on_c, 0, 52, 54
1, 24304, Note_off_c, 0, 52, 64
1, 24311, Note_off_c, 0, 48, 59
1, 24344, Note_on_c, 0, 57, 47
1, 24388, Note_off_c, 0, 69, 51
1, 24397, Note_off_c, 0, 57, 55
1, 24409, Note_on_c, 0, 52, 51
1, 24413, Note_on_c, 0, 72, 61
1, 24415, Note_on_c, 0, 48, 52
1, 24449, Note_off_c, 0, 52, 64
1, 24450, Note_off_c, 0, 48, 62
1, 24484, Note_on_c, 0, 71, 62
1, 24498, Note_on_c, 0, 57, 40
1, 24500, Note_off_c, 0, 72, 55
1, 24534, Note_off_c, 0, 57, 49
1, 24549, Note_on_c, 0, 69, 62
1, 24554, Note_on_c, 0, 48, 51
1, 24556, Note_on_c, 0, 52, 49
1, 24562, Note_off_c, 0, 71, 63
1, 24595, Note_off_c, 0, 52, 64
1, 24598, Note_off_c, 0, 48, 61
1, 24598, Note_off_c, 0, 69, 63
1, 24623, Note_on_c, 0, 57, 58
1, 24675, Note_off_c, 0, 57, 59
1, 24689, Note_on_c, 0, 52, 55
1, 24691, Note_on_c, 0, 48, 60
1, 24727, Note_off_c, 0, 52, 64
1, 24729, Note_off_c, 0, 48, 62
1, 24754, Note_on_c, 0, 57, 53
1, 24817, Note_off_c, 0, 57, 54
1, 24826, Note_on_c, 0, 52, 50
1, 24827, Note_on_c, 0, 48, 53
1, 24863, Note_off_c, 0, 52, 65
1, 24864, Note_off_c, 0, 48, 60
1, 24894, Note_on_c, 0, 57, 56
1, 24954, Note_off_c, 0, 57, 58
1, 24958, Note_on_c, 0, 48, 59
1, 24964, Note_on_c, 0, 52, 55
1, 25000, Note_off_c, 0, 48, 60
1, 25004, Note_off_c, 0, 52, 65
1, 25036, Note_on_c, 0, 57, 43
1, 25089, Note_off_c, 0, 57, 41
1, 25101, Note_on_c, 0, 48, 52
1, 25105, Note_on_c, 0, 52, 51
1, 25124, Note_on_c, 0, 87, 56
1, 25131, Note_on_c, 0, 88, 60
1, 25148, Note_off_c, 0, 52, 65
1, 25149, Note_off_c, 0, 48, 61
1, 25169, Note_off_c, 0, 87, 60
1, 25180, Note_on_c, 0, 57, 49
1, 25229, Note_off_c, 0, 57, 60
1, 25253, Note_on_c, 0, 48, 47
1, 25254, Note_on_c, 0, 52, 43
1, 25283, Note_off_c, 0, 48, 54
1, 25286, Note_off_c, 0, 52, 56
1, 25314, Note_on_c, 0, 57, 59
1, 25373, Note_off_c, 0, 57, 51
1, 25375, Note_on_c, 0, 52, 57
1, 25378, Note_on_c, 0, 48, 52
1, 25420, Note_off_c, 0, 48, 59
1, 25423, Note_off_c, 0, 52, 62
1, 25460, Note_on_c, 0, 57, 43
1, 25473, Note_off_c, 0, 88, 49
1, 25474, Note_on_c, 0, 86, 61
1, 25504, Note_off_c, 0, 57, 46
1, 25522, Note_on_c, 0, 48, 49
1, 25551, Note_on_c, 0, 52, 35
1, 25561, Note_on_c, 0, 84, 61
1, 25563, Note_off_c, 0, 48, 53
1, 25570, Note_off_c, 0, 86, 56
1, 25583, Note_off_c, 0, 52, 55
1, 25596, Note_on_c, 0, 57, 57
1, 25630, Note_on_c, 0, 83, 56
1, 25640, Note_off_c, 0, 84, 59
1, 25668, Note_off_c, 0, 57, 57
1, 25671, Note_on_c, 0, 48, 47
1, 25674, Note_on_c, 0, 52, 52
1, 25708, Note_on_c, 0, 81, 59
1, 25713, Note_off_c, 0, 83, 61
1, 25729, Note_off_c, 0, 52, 62
1, 25729, Note_off_c, 0, 48, 45
1, 25778, Note_on_c, 0, 57, 52
1, 25833, Note_off_c, 0, 57, 55
1, 25838, Note_on_c, 0, 48, 57
1, 25840, Note_on_c, 0, 52, 61
1, 25879, Note_off_c, 0, 81, 58
1, 25882, Note_off_c, 0, 52, 62
1, 25892, Note_off_c, 0, 48, 56
1, 25917, Note_on_c, 0, 57, 61
1, 25961, Note_off_c, 0, 57, 49
1, 25987, Note_on_c, 0, 52, 64
1, 25994, Note_on_c, 0, 48, 50
1, 26022, Note_off_c, 0, 48, 59
1, 26024, Note_off_c, 0, 52, 66
1, 26047, Note_on_c, 0, 57, 76
1, 26079, Note_off_c, 0, 57, 62
1, 26112, Note_on_c, 0, 48, 63
1, 26122, Note_on_c, 0, 52, 69
1, 26167, Note_off_c, 0, 48, 59
1, 26171, Note_on_c, 0, 57, 76
1, 26172, Note_off_c, 0, 52, 66
1, 26210, Note_off_c, 0, 57, 65
1, 26251, Note_on_c, 0, 48, 65
1, 26255, Control_c, 0, 67, 99
1, 26256, Note_on_c, 0, 87, 79
1, 26257, Note_on_c, 0, 52, 66
1, 26260, Note_on_c, 0, 88, 88
1, 26270, Control_c, 0, 67, 64
1, 26285, Control_c, 0, 67, 20
1, 26290, Note_off_c, 0, 48, 67
1, 26300, Control_c, 0, 67, 0
1, 26312, Note_off_c, 0, 87, 63
1, 26314, Note_off_c, 0, 52, 61
1, 26316, Note_on_c, 0, 58, 83
1, 26392, Note_off_c, 0, 58, 58
1, 26404, Note_on_c, 0, 52, 69
1, 26405, Note_on_c, 0, 48, 58
1, 26437, Note_off_c, 0, 48, 65
1, 26464, Note_on_c, 0, 58, 82
1, 26481, Note_off_c, 0, 52, 64
1, 26541, Note_on_c, 0, 48, 73
1, 26541, Note_off_c, 0, 58, 41
1, 26547, Note_on_c, 0, 52, 69
1, 26597, Note_off_c, 0, 48, 63
1, 26616, Note_off_c, 0, 88, 64
1, 26616, Note_on_c, 0, 58, 76
1, 26629, Note_on_c, 0, 86, 74
1, 26629, Note_off_c, 0, 52, 66
1, 26694, Note_on_c, 0, 52, 68
1, 26696, Note_off_c, 0, 58, 58
1, 26697, Note_on_c, 0, 48, 75
1, 26709, Note_on_c, 0, 84, 83
1, 26744, Note_off_c, 0, 86, 62
1, 26745, Note_off_c, 0, 48, 63
1, 26768, Note_on_c, 0, 58, 80
1, 26780, Note_on_c, 0, 83, 82
1, 26780, Note_off_c, 0, 52, 59
1, 26802, Note_off_c, 0, 84, 65
1, 26839, Note_on_c, 0, 52, 59
1, 26843, Note_off_c, 0, 58, 61
1, 26845, Note_on_c, 0, 48, 72
1, 26853, Note_on_c, 0, 82, 96
1, 26890, Note_off_c, 0, 48, 65
1, 26896, Note_off_c, 0, 83, 61
1, 26911, Note_off_c, 0, 52, 65
1, 26922, Note_on_c, 0, 58, 77
1, 26994, Note_off_c, 0, 58, 63
1, 26997, Note_on_c, 0, 52, 72
1, 26998, Note_on_c, 0, 48, 73
1, 27047, Note_off_c, 0, 48, 63
1, 27069, Note_on_c, 0, 58, 83
1, 27087, Note_off_c, 0, 52, 63
1, 27126, Poly_aftertouch_c, 0, 52, 0
1, 27126, Note_off_c, 0, 58, 64
1, 27137, Note_on_c, 0, 52, 56
1, 27158, Note_on_c, 0, 48, 65
1, 27193, Note_off_c, 0, 48, 65
1, 27218, Note_on_c, 0, 58, 88
1, 27238, Note_off_c, 0, 52, 66
1, 27283, Note_off_c, 0, 82, 53
1, 27288, Note_off_c, 0, 58, 61
1, 27297, Note_on_c, 0, 48, 69
1, 27301, Note_on_c, 0, 52, 71
1, 27366, Note_on_c, 0, 58, 91
1, 27372, Note_off_c, 0, 48, 60
1, 27415, Note_off_c, 0, 52, 65
1, 27567, Note_off_c, 0, 58, 39
1, 27589, Note_on_c, 0, 83, 63
1, 27604, Note_on_c, 0, 47, 43
1, 27671, Note_off_c, 0, 47, 50
1, 27681, Note_on_c, 0, 51, 48
1, 27760, Note_on_c, 0, 54, 59
1, 27772, Note_off_c, 0, 51, 63
1, 27823, Note_off_c, 0, 54, 60
1, 27827, Note_on_c, 0, 59, 47
1, 27886, Note_on_c, 0, 47, 59
1, 27889, Note_off_c, 0, 59, 51
1, 27972, Note_on_c, 0, 51, 51
1, 27973, Note_on_c, 0, 81, 70
1, 27994, Note_off_c, 0, 83, 49
1, 28010, Note_off_c, 0, 47, 37
1, 28044, Note_on_c, 0, 54, 64
1, 28047, Note_on_c, 0, 79, 64
1, 28049, Note_off_c, 0, 51, 62
1, 28057, Note_off_c, 0, 81, 60
1, 28097, Note_off_c, 0, 79, 63
1, 28106, Note_on_c, 0, 78, 72
1, 28108, Note_off_c, 0, 54, 61
1, 28118, Note_on_c, 0, 59, 49
1, 28157, Note_off_c, 0, 59, 52
1, 28161, Note_off_c, 0, 78, 62
1, 28178, Note_on_c, 0, 79, 70
1, 28198, Note_on_c, 0, 47, 41
1, 28246, Note_on_c, 0, 78, 75
1, 28247, Note_off_c, 0, 79, 62
1, 28247, Note_off_c, 0, 47, 46
1, 28258, Note_on_c, 0, 52, 48
1, 28300, Note_off_c, 0, 78, 67
1, 28312, Note_off_c, 0, 52, 64
1, 28314, Note_on_c, 0, 76, 68
1, 28325, Note_on_c, 0, 55, 55
1, 28363, Note_off_c, 0, 76, 67
1, 28365, Note_off_c, 0, 55, 63
1, 28374, Note_on_c, 0, 59, 57
1, 28381, Note_on_c, 0, 75, 66
1, 28424, Note_off_c, 0, 75, 59
1, 28426, Note_off_c, 0, 59, 52
1, 28451, Note_on_c, 0, 76, 64
1, 28453, Note_on_c, 0, 47, 46
1, 28501, Note_off_c, 0, 47, 49
1, 28507, Note_off_c, 0, 76, 59
1, 28512, Note_on_c, 0, 79, 69
1, 28520, Note_on_c, 0, 52, 53
1, 28570, Note_off_c, 0, 52, 65
1, 28580, Note_on_c, 0, 78, 72
1, 28583, Note_on_c, 0, 55, 54
1, 28596, Note_off_c, 0, 79, 59
1, 28634, Note_off_c, 0, 55, 60
1, 28638, Note_off_c, 0, 78, 66
1, 28642, Note_on_c, 0, 76, 65
1, 28652, Note_on_c, 0, 59, 52
1, 28686, Note_off_c, 0, 59, 62
1, 28687, Note_off_c, 0, 76, 63
1, 28726, Note_on_c, 0, 47, 69
1, 28726, Note_on_c, 0, 75, 74
1, 28798, Note_on_c, 0, 73, 73
1, 28801, Note_off_c, 0, 75, 62
1, 28810, Note_on_c, 0, 54, 59
1, 28843, Note_off_c, 0, 47, 38
1, 28854, Note_off_c, 0, 73, 65
1, 28862, Note_on_c, 0, 71, 69
1, 28865, Note_off_c, 0, 54, 62
1, 28866, Note_on_c, 0, 57, 65
1, 28911, Note_off_c, 0, 57, 64
1, 28919, Note_off_c, 0, 71, 63
1, 28932, Note_on_c, 0, 70, 71
1, 28933, Note_on_c, 0, 59, 53
1, 28965, Note_off_c, 0, 59, 55
1, 28983, Note_off_c, 0, 70, 62
1, 28987, Note_on_c, 0, 47, 69
1, 29003, Note_on_c, 0, 71, 63
1, 29024, Note_off_c, 0, 71, 66
1, 29073, Note_on_c, 0, 54, 58
1, 29075, Note_on_c, 0, 73, 68
1, 29100, Note_off_c, 0, 47, 37
1, 29108, Note_off_c, 0, 73, 63
1, 29132, Note_off_c, 0, 54, 60
1, 29138, Note_on_c, 0, 57, 62
1, 29138, Note_on_c, 0, 74, 70
1, 29181, Note_off_c, 0, 57, 63
1, 29197, Note_off_c, 0, 74, 63
1, 29206, Note_on_c, 0, 75, 70
1, 29215, Note_on_c, 0, 59, 37
1, 29251, Note_off_c, 0, 59, 49
1, 29265, Note_off_c, 0, 75, 61
1, 29272, Note_on_c, 0, 76, 71
1, 29276, Note_on_c, 0, 47, 55
1, 29334, Note_off_c, 0, 76, 66
1, 29337, Note_off_c, 0, 47, 52
1, 29343, Note_on_c, 0, 52, 49
1, 29343, Note_on_c, 0, 75, 67
1, 29376, Note_off_c, 0, 75, 65
1, 29399, Note_on_c, 0, 76, 62
1, 29403, Note_off_c, 0, 52, 64
1, 29415, Note_on_c, 0, 55, 54
1, 29431, Note_off_c, 0, 76, 60
1, 29465, Note_off_c, 0, 55, 63
1, 29469, Note_on_c, 0, 59, 51
1, 29475, Note_on_c, 0, 78, 64
1, 29510, Note_off_c, 0, 59, 57
1, 29518, Note_off_c, 0, 78, 66
1, 29543, Note_on_c, 0, 79, 70
1, 29551, Note_on_c, 0, 47, 45
1, 29582, Note_off_c, 0, 79, 61
1, 29605, Note_off_c, 0, 47, 42
1, 29615, Note_on_c, 0, 80, 59
1, 29624, Note_on_c, 0, 52, 42
1, 29646, Note_off_c, 0, 80, 62
1, 29678, Note_on_c, 0, 81, 69
1, 29680, Note_off_c, 0, 52, 62
1, 29686, Note_on_c, 0, 55, 58
1, 29725, Note_off_c, 0, 81, 55
1, 29733, Note_off_c, 0, 55, 63
1, 29749, Note_on_c, 0, 82, 54
1, 29764, Note_on_c, 0, 59, 44
1, 29795, Note_off_c, 0, 82, 65
1, 29809, Note_on_c, 0, 83, 68
1, 29821, Note_off_c, 0, 59, 52
1, 29835, Note_on_c, 0, 47, 55
1, 29877, Note_off_c, 0, 83, 62
1, 29888, Note_on_c, 0, 82, 66
1, 29902, Note_off_c, 0, 47, 51
1, 29908, Note_on_c, 0, 51, 48
1, 29936, Note_off_c, 0, 82, 63
1, 29955, Note_on_c, 0, 83, 65
1, 29982, Note_off_c, 0, 51, 64
1, 29984, Note_on_c, 0, 54, 63
1, 30018, Note_off_c, 0, 83, 65
1, 30024, Note_on_c, 0, 82, 76
1, 30044, Note_on_c, 0, 59, 51
1, 30047, Note_off_c, 0, 54, 58
1, 30074, Note_off_c, 0, 82, 61
1, 30097, Note_on_c, 0, 83, 74
1, 30106, Note_off_c, 0, 59, 48
1, 30112, Note_on_c, 0, 47, 61
1, 30166, Note_on_c, 0, 81, 76
1, 30200, Note_on_c, 0, 51, 53
1, 30205, Note_off_c, 0, 83, 63
1, 30229, Note_off_c, 0, 47, 37
1, 30243, Note_on_c, 0, 79, 72
1, 30255, Note_off_c, 0, 81, 60
1, 30264, Note_off_c, 0, 51, 61
1, 30270, Note_on_c, 0, 54, 57
1, 30299, Note_off_c, 0, 79, 64
1, 30309, Note_on_c, 0, 78, 73
1, 30323, Note_on_c, 0, 59, 48
1, 30330, Note_off_c, 0, 54, 60
1, 30364, Note_off_c, 0, 59, 58
1, 30372, Note_off_c, 0, 78, 65
1, 30383, Note_on_c, 0, 79, 73
1, 30401, Note_on_c, 0, 47, 54
1, 30455, Note_off_c, 0, 79, 62
1, 30457, Note_on_c, 0, 78, 75
1, 30460, Note_off_c, 0, 47, 57
1, 30468, Note_on_c, 0, 52, 50
1, 30512, Note_off_c, 0, 78, 66
1, 30521, Note_on_c, 0, 76, 69
1, 30533, Note_off_c, 0, 52, 64
1, 30534, Note_on_c, 0, 55, 58
1, 30579, Note_off_c, 0, 76, 64
1, 30587, Note_off_c, 0, 55, 60
1, 30593, Note_on_c, 0, 75, 72
1, 30598, Note_on_c, 0, 59, 52
1, 30651, Note_off_c, 0, 75, 62
1, 30652, Note_off_c, 0, 59, 56
1, 30667, Note_on_c, 0, 76, 69
1, 30673, Note_on_c, 0, 47, 53
1, 30732, Note_off_c, 0, 76, 60
1, 30733, Note_on_c, 0, 52, 51
1, 30733, Note_on_c, 0, 79, 77
1, 30735, Note_off_c, 0, 47, 52
1, 30798, Note_off_c, 0, 52, 64
1, 30803, Note_on_c, 0, 55, 54
1, 30809, Note_on_c, 0, 78, 78
1, 30825, Note_off_c, 0, 79, 60
1, 30858, Note_off_c, 0, 55, 60
1, 30870, Note_on_c, 0, 59, 55
1, 30872, Note_off_c, 0, 78, 66
1, 30879, Note_on_c, 0, 76, 70
1, 30917, Note_off_c, 0, 59, 57
1, 30931, Note_on_c, 0, 47, 67
1, 30946, Note_off_c, 0, 76, 62
1, 30962, Note_on_c, 0, 75, 74
1, 31028, Note_on_c, 0, 73, 78
1, 31029, Note_on_c, 0, 54, 59
1, 31036, Note_off_c, 0, 75, 62
1, 31042, Note_off_c, 0, 47, 38
1, 31075, Note_off_c, 0, 54, 63
1, 31090, Note_on_c, 0, 57, 59
1, 31090, Note_off_c, 0, 73, 63
1, 31099, Note_on_c, 0, 71, 70
1, 31129, Note_off_c, 0, 57, 62
1, 31150, Note_on_c, 0, 59, 53
1, 31153, Note_off_c, 0, 71, 65
1, 31163, Note_on_c, 0, 70, 74
1, 31187, Note_off_c, 0, 59, 61
1, 31213, Note_off_c, 0, 70, 63
1, 31215, Note_on_c, 0, 47, 67
1, 31231, Note_on_c, 0, 71, 70
1, 31257, Note_off_c, 0, 71, 68
1, 31293, Note_off_c, 0, 47, 53
1, 31300, Note_on_c, 0, 54, 52
1, 31305, Note_on_c, 0, 73, 70
1, 31342, Note_off_c, 0, 73, 61
1, 31355, Note_off_c, 0, 54, 60
1, 31370, Note_on_c, 0, 74, 66
1, 31371, Note_on_c, 0, 57, 56
1, 31406, Note_off_c, 0, 57, 62
1, 31427, Note_off_c, 0, 74, 65
1, 31435, Note_on_c, 0, 59, 46
1, 31439, Note_on_c, 0, 75, 67
1, 31478, Note_off_c, 0, 59, 56
1, 31494, Note_off_c, 0, 75, 60
1, 31501, Note_on_c, 0, 76, 67
1, 31508, Note_on_c, 0, 47, 53
1, 31562, Note_off_c, 0, 76, 66
1, 31564, Note_off_c, 0, 47, 54
1, 31568, Note_on_c, 0, 75, 69
1, 31571, Note_on_c, 0, 52, 42
1, 31603, Note_off_c, 0, 75, 64
1, 31628, Note_on_c, 0, 76, 61
1, 31633, Note_off_c, 0, 52, 64
1, 31641, Note_on_c, 0, 55, 53
1, 31662, Note_off_c, 0, 76, 57
1, 31693, Note_off_c, 0, 55, 61
1, 31704, Note_on_c, 0, 78, 63
1, 31707, Note_on_c, 0, 59, 51
1, 31746, Note_off_c, 0, 59, 58
1, 31755, Note_off_c, 0, 78, 58
1, 31778, Note_on_c, 0, 79, 65
1, 31789, Note_on_c, 0, 47, 43
1, 31810, Note_off_c, 0, 79, 54
1, 31841, Note_on_c, 0, 80, 57
1, 31850, Note_off_c, 0, 47, 48
1, 31853, Note_on_c, 0, 52, 51
1, 31877, Note_off_c, 0, 80, 62
1, 31910, Note_on_c, 0, 81, 66
1, 31913, Note_off_c, 0, 52, 64
1, 31928, Note_on_c, 0, 55, 52
1, 31964, Note_off_c, 0, 81, 48
1, 31968, Note_off_c, 0, 55, 65
1, 31987, Note_on_c, 0, 82, 54
1, 31999, Note_on_c, 0, 59, 38
1, 32013, Note_off_c, 0, 82, 67
1, 32046, Note_off_c, 0, 59, 48
1, 32048, Note_on_c, 0, 83, 67
1, 32059, Note_on_c, 0, 47, 52
1, 32095, Control_c, 0, 64, 24
1, 32110, Control_c, 0, 64, 41
1, 32121, Note_off_c, 0, 47, 55
1, 32124, Note_off_c, 0, 83, 65
1, 32125, Control_c, 0, 64, 55
1, 32126, Note_on_c, 0, 78, 76
1, 32127, Note_on_c, 0, 51, 53
1, 32139, Control_c, 0, 64, 62
1, 32154, Control_c, 0, 64, 62
1, 32176, Note_off_c, 0, 51, 62
1, 32181, Note_off_c, 0, 78, 66
1, 32185, Control_c, 0, 64, 63
1, 32194, Note_on_c, 0, 54, 57
1, 32199, Note_on_c, 0, 75, 56
1, 32228, Note_off_c, 0, 75, 58
1, 32230, Note_off_c, 0, 54, 65
1, 32256, Note_on_c, 0, 59, 53
1, 32256, Note_on_c, 0, 71, 54
1, 32259, Control_c, 0, 64, 61
1, 32274, Control_c, 0, 64, 52
1, 32288, Control_c, 0, 64, 0
1, 32303, Note_off_c, 0, 71, 58
1, 32310, Note_off_c, 0, 59, 57
1, 32322, Note_on_c, 0, 70, 72
1, 32330, Note_on_c, 0, 58, 65
1, 32357, Note_off_c, 0, 70, 60
1, 32373, Note_off_c, 0, 58, 60
1, 32403, Note_on_c, 0, 71, 60
1, 32404, Note_on_c, 0, 59, 59
1, 32449, Note_off_c, 0, 71, 59
1, 32467, Note_off_c, 0, 59, 59
1, 32482, Note_on_c, 0, 76, 68
1, 32488, Note_on_c, 0, 55, 59
1, 32544, Note_on_c, 0, 52, 62
1, 32544, Note_off_c, 0, 76, 65
1, 32545, Note_on_c, 0, 79, 71
1, 32545, Note_off_c, 0, 55, 63
1, 32594, Note_off_c, 0, 52, 65
1, 32611, Note_on_c, 0, 83, 82
1, 32612, Note_on_c, 0, 47, 66
1, 32616, Note_off_c, 0, 79, 64
1, 32637, Control_c, 0, 64, 25
1, 32652, Control_c, 0, 64, 39
1, 32667, Control_c, 0, 64, 53
1, 32682, Control_c, 0, 64, 66
1, 32683, Note_on_c, 0, 78, 75
1, 32694, Note_off_c, 0, 83, 59
1, 32694, Note_on_c, 0, 51, 64
1, 32697, Control_c, 0, 64, 72
1, 32725, Note_off_c, 0, 47, 54
1, 32727, Control_c, 0, 64, 73
1, 32742, Control_c, 0, 64, 74
1, 32756, Note_on_c, 0, 54, 70
1, 32757, Note_on_c, 0, 75, 74
1, 32759, Note_off_c, 0, 78, 65
1, 32762, Note_off_c, 0, 51, 64
1, 32786, Control_c, 0, 64, 74
1, 32787, Note_off_c, 0, 75, 59
1, 32804, Note_off_c, 0, 54, 61
1, 32820, Note_on_c, 0, 71, 62
1, 32827, Note_on_c, 0, 59, 58
1, 32830, Control_c, 0, 64, 74
1, 32845, Control_c, 0, 64, 69
1, 32860, Control_c, 0, 64, 61
1, 32875, Control_c, 0, 64, 31
1, 32880, Note_off_c, 0, 59, 53
1, 32885, Note_off_c, 0, 71, 62
1, 32889, Note_on_c, 0, 70, 74
1, 32889, Control_c, 0, 64, 0
1, 32903, Note_on_c, 0, 58, 69
1, 32940, Note_off_c, 0, 70, 62
1, 32947, Note_off_c, 0, 58, 61
1, 32966, Note_on_c, 0, 71, 67
1, 32977, Note_on_c, 0, 59, 56
1, 33034, Note_off_c, 0, 59, 58
1, 33037, Note_on_c, 0, 76, 75
1, 33038, Note_off_c, 0, 71, 57
1, 33053, Note_on_c, 0, 55, 65
1, 33102, Note_on_c, 0, 79, 75
1, 33105, Note_on_c, 0, 52, 60
1, 33111, Note_off_c, 0, 76, 64
1, 33119, Note_off_c, 0, 55, 60
1, 33172, Note_on_c, 0, 83, 87
1, 33174, Note_off_c, 0, 52, 64
1, 33179, Note_on_c, 0, 47, 69
1, 33180, Note_off_c, 0, 79, 63
1, 33194, Control_c, 0, 64, 23
1, 33209, Control_c, 0, 64, 41
1, 33224, Control_c, 0, 64, 58
1, 33239, Control_c, 0, 64, 73
1, 33253, Control_c, 0, 64, 83
1, 33257, Note_on_c, 0, 78, 76
1, 33263, Note_off_c, 0, 83, 60
1, 33269, Note_on_c, 0, 51, 68
1, 33328, Note_on_c, 0, 75, 75
1, 33332, Note_on_c, 0, 54, 70
1, 33341, Note_off_c, 0, 78, 63
1, 33342, Control_c, 0, 64, 83
1, 33354, Note_off_c, 0, 51, 63
1, 33357, Control_c, 0, 64, 84
1, 33365, Note_off_c, 0, 47, 37
1, 33376, Note_off_c, 0, 75, 56
1, 33388, Note_on_c, 0, 71, 72
1, 33401, Control_c, 0, 64, 83
1, 33405, Note_on_c, 0, 59, 63
1, 33409, Note_off_c, 0, 54, 63
1, 33416, Control_c, 0, 64, 73
1, 33431, Control_c, 0, 64, 60
1, 33442, Note_off_c, 0, 71, 64
1, 33444, Note_off_c, 0, 59, 59
1, 33445, Control_c, 0, 64, 0
1, 33465, Note_on_c, 0, 83, 96
1, 33470, Note_on_c, 0, 47, 81
1, 33520, Control_c, 0, 64, 32
1, 33534, Control_c, 0, 64, 58
1, 33546, Note_on_c, 0, 52, 68
1, 33547, Note_on_c, 0, 79, 83
1, 33549, Control_c, 0, 64, 81
1, 33558, Note_off_c, 0, 47, 53
1, 33564, Control_c, 0, 64, 127
1, 33570, Note_off_c, 0, 83, 62
1, 33618, Note_on_c, 0, 55, 76
1, 33621, Note_on_c, 0, 76, 74
1, 33630, Note_off_c, 0, 79, 59
1, 33633, Note_off_c, 0, 52, 65
1, 33684, Note_off_c, 0, 76, 66
1, 33689, Note_off_c, 0, 55, 62
1, 33689, Note_on_c, 0, 71, 69
1, 33697, Note_on_c, 0, 59, 68
1, 33742, Control_c, 0, 64, 73
1, 33754, Note_off_c, 0, 59, 61
1, 33758, Control_c, 0, 64, 48
1, 33771, Note_on_c, 0, 47, 87
1, 33773, Control_c, 0, 64, 0
1, 33773, Note_on_c, 0, 83, 94
1, 33779, Note_off_c, 0, 71, 0
1, 33807, Poly_aftertouch_c, 0, 71, 0
1, 33817, Control_c, 0, 64, 11
1, 33832, Control_c, 0, 64, 45
1, 33847, Control_c, 0, 64, 65
1, 33855, Note_on_c, 0, 51, 70
1, 33859, Note_on_c, 0, 78, 81
1, 33861, Control_c, 0, 64, 127
1, 33886, Note_off_c, 0, 83, 59
1, 33927, Note_on_c, 0, 54, 75
1, 33940, Note_on_c, 0, 75, 74
1, 33957, Note_off_c, 0, 78, 65
1, 33964, Note_off_c, 0, 47, 52
1, 33966, Note_off_c, 0, 51, 65
1, 33999, Note_off_c, 0, 75, 63
1, 34000, Note_on_c, 0, 59, 74
1, 34007, Note_on_c, 0, 71, 71
1, 34018, Note_off_c, 0, 54, 64
1, 34032, Control_c, 0, 64, 84
1, 34047, Control_c, 0, 64, 56
1, 34053, Note_off_c, 0, 59, 62
1, 34057, Note_off_c, 0, 71, 65
1, 34062, Control_c, 0, 64, 0
1, 34082, Note_on_c, 0, 47, 89
1, 34083, Note_on_c, 0, 83, 103
1, 34120, Control_c, 0, 64, 33
1, 34135, Control_c, 0, 64, 57
1, 34149, Control_c, 0, 64, 127
1, 34160, Note_on_c, 0, 52, 70
1, 34171, Note_on_c, 0, 79, 82
1, 34199, Note_off_c, 0, 83, 63
1, 34227, Note_off_c, 0, 47, 58
1, 34233, Note_on_c, 0, 55, 74
1, 34241, Note_on_c, 0, 76, 84
1, 34253, Note_off_c, 0, 52, 64
1, 34259, Note_off_c, 0, 79, 62
1, 34303, Note_on_c, 0, 59, 68
1, 34307, Note_off_c, 0, 55, 63
1, 34307, Note_off_c, 0, 76, 65
1, 34311, Note_on_c, 0, 71, 72
1, 34356, Note_off_c, 0, 59, 62
1, 34372, Control_c, 0, 64, 79
1, 34386, Control_c, 0, 64, 54
1, 34401, Control_c, 0, 64, 0
1, 34408, Note_on_c, 0, 83, 100
1, 34411, Note_off_c, 0, 71, 0
1, 34414, Note_on_c, 0, 59, 89
1, 34421, Note_on_c, 0, 47, 76
1, 34421, Note_on_c, 0, 51, 84
1, 34421, Note_on_c, 0, 54, 88
1, 34448, Poly_aftertouch_c, 0, 71, 127
1, 34475, Control_c, 0, 64, 13
1, 34490, Control_c, 0, 64, 47
1, 34505, Control_c, 0, 64, 80
1, 34506, Poly_aftertouch_c, 0, 71, 0
1, 34520, Control_c, 0, 64, 127
1, 34533, Note_on_c, 0, 78, 78
1, 34560, Note_off_c, 0, 83, 62
1, 34602, Note_on_c, 0, 75, 80
1, 34631, Note_off_c, 0, 78, 66
1, 34658, Note_off_c, 0, 75, 61
1, 34669, Note_on_c, 0, 71, 75
1, 34691, Control_c, 0, 64, 94
1, 34706, Control_c, 0, 64, 60
1, 34721, Control_c, 0, 64, 21
1, 34730, Note_off_c, 0, 71, 64
1, 34736, Control_c, 0, 64, 0
1, 34750, Note_on_c, 0, 78, 93
1, 34757, Note_off_c, 0, 47, 58
1, 34772, Note_off_c, 0, 51, 61
1, 34780, Control_c, 0, 64, 16
1, 34780, Note_off_c, 0, 54, 61
1, 34794, Note_off_c, 0, 59, 60
1, 34795, Control_c, 0, 64, 44
1, 34809, Control_c, 0, 64, 63
1, 34824, Control_c, 0, 64, 93
1, 34828, Note_on_c, 0, 75, 75
1, 34839, Control_c, 0, 64, 119
1, 34861, Note_off_c, 0, 78, 62
1, 34869, Control_c, 0, 64, 127
1, 34899, Note_on_c, 0, 71, 69
1, 34923, Note_off_c, 0, 75, 56
1, 34957, Control_c, 0, 64, 94
1, 34960, Note_off_c, 0, 71, 64
1, 34971, Note_on_c, 0, 66, 73
1, 34972, Control_c, 0, 64, 65
1, 34987, Control_c, 0, 64, 45
1, 35002, Control_c, 0, 64, 0
1, 35024, Note_off_c, 0, 66, 61
1, 35037, Note_on_c, 0, 75, 94
1, 35061, Control_c, 0, 64, 16
1, 35076, Control_c, 0, 64, 46
1, 35090, Control_c, 0, 64, 65
1, 35105, Control_c, 0, 64, 105
1, 35116, Note_on_c, 0, 71, 70
1, 35120, Control_c, 0, 64, 127
1, 35146, Note_off_c, 0, 75, 56
1, 35192, Note_on_c, 0, 66, 70
1, 35208, Note_off_c, 0, 71, 64
1, 35251, Note_off_c, 0, 66, 63
1, 35254, Control_c, 0, 64, 103
1, 35261, Note_on_c, 0, 63, 65
1, 35269, Control_c, 0, 64, 74
1, 35283, Control_c, 0, 64, 57
1, 35296, Note_off_c, 0, 63, 66
1, 35298, Control_c, 0, 64, 18
1, 35313, Control_c, 0, 64, 0
1, 35333, Note_on_c, 0, 71, 88
1, 35359, Control_c, 0, 64, 37
1, 35374, Control_c, 0, 64, 55
1, 35388, Control_c, 0, 64, 72
1, 35403, Control_c, 0, 64, 90
1, 35410, Note_on_c, 0, 66, 79
1, 35418, Control_c, 0, 64, 90
1, 35448, Note_off_c, 0, 71, 62
1, 35469, Control_c, 0, 64, 91
1, 35492, Note_on_c, 0, 63, 70
1, 35499, Control_c, 0, 64, 92
1, 35505, Note_off_c, 0, 66, 61
1, 35514, Control_c, 0, 64, 93
1, 35544, Note_off_c, 0, 63, 65
1, 35553, Note_on_c, 0, 59, 69
1, 35558, Control_c, 0, 64, 85
1, 35573, Control_c, 0, 64, 70
1, 35588, Control_c, 0, 64, 56
1, 35591, Note_off_c, 0, 59, 60
1, 35603, Control_c, 0, 64, 23
1, 35618, Control_c, 0, 64, 0
1, 35621, Note_on_c, 0, 66, 94
1, 35647, Control_c, 0, 64, 22
1, 35662, Control_c, 0, 64, 44
1, 35677, Control_c, 0, 64, 60
1, 35692, Control_c, 0, 64, 77
1, 35695, Note_on_c, 0, 63, 82
1, 35706, Control_c, 0, 64, 84
1, 35733, Note_off_c, 0, 66, 57
1, 35769, Note_on_c, 0, 59, 62
1, 35787, Note_off_c, 0, 63, 63
1, 35795, Control_c, 0, 64, 84
1, 35810, Control_c, 0, 64, 85
1, 35825, Control_c, 0, 64, 86
1, 35833, Note_off_c, 0, 59, 63
1, 35837, Note_on_c, 0, 54, 73
1, 35854, Control_c, 0, 64, 83
1, 35869, Control_c, 0, 64, 69
1, 35884, Control_c, 0, 64, 56
1, 35894, Note_off_c, 0, 54, 62
1, 35899, Control_c, 0, 64, 30
1, 35913, Control_c, 0, 64, 8
1, 35914, Note_on_c, 0, 63, 96
1, 35928, Control_c, 0, 64, 35
1, 35943, Control_c, 0, 64, 51
1, 35958, Control_c, 0, 64, 66
1, 35973, Control_c, 0, 64, 83
1, 35988, Control_c, 0, 64, 85
1, 35990, Note_on_c, 0, 59, 75
1, 36018, Control_c, 0, 64, 87
1, 36028, Note_off_c, 0, 63, 61
1, 36032, Control_c, 0, 64, 88
1, 36075, Note_on_c, 0, 54, 76
1, 36093, Note_off_c, 0, 59, 61
1, 36106, Control_c, 0, 64, 89
1, 36121, Control_c, 0, 64, 89
1, 36140, Note_off_c, 0, 54, 64
1, 36142, Note_on_c, 0, 51, 70
1, 36151, Control_c, 0, 64, 82
1, 36167, Control_c, 0, 64, 67
1, 36185, Note_off_c, 0, 51, 66
1, 36188, Control_c, 0, 64, 52
1, 36203, Control_c, 0, 64, 13
1, 36218, Control_c, 0, 64, 0
1, 36231, Note_on_c, 0, 59, 87
1, 36233, Control_c, 0, 64, 28
1, 36248, Control_c, 0, 64, 48
1, 36262, Control_c, 0, 64, 64
1, 36277, Control_c, 0, 64, 92
1, 36292, Control_c, 0, 64, 102
1, 36311, Note_on_c, 0, 54, 78
1, 36378, Note_off_c, 0, 59, 62
1, 36379, Note_on_c, 0, 51, 77
1, 36396, Control_c, 0, 64, 108
1, 36411, Control_c, 0, 64, 127
1, 36432, Note_off_c, 0, 54, 63
1, 36435, Note_on_c, 0, 47, 80
1, 36471, Note_off_c, 0, 51, 64
1, 36471, Control_c, 0, 64, 105
1, 36483, Note_off_c, 0, 47, 62
1, 36486, Control_c, 0, 64, 75
1, 36500, Control_c, 0, 64, 53
1, 36515, Note_on_c, 0, 35, 93
1, 36515, Control_c, 0, 64, 0
1, 36608, Note_on_c, 0, 39, 75
1, 36658, Note_on_c, 0, 37, 11
1, 36674, Note_on_c, 0, 42, 73
1, 36697, Note_off_c, 0, 37, 36
1, 36712, Note_off_c, 0, 39, 65
1, 36715, Note_off_c, 0, 35, 63
1, 36742, Note_on_c, 0, 47, 82
1, 36763, Note_off_c, 0, 42, 62
1, 36800, Note_off_c, 0, 47, 64
1, 36827, Note_on_c, 0, 35, 94
1, 36869, Note_off_c, 0, 35, 64
1, 36994, Note_on_c, 0, 47, 97
1, 37032, Note_off_c, 0, 47, 66
1, 37149, Note_on_c, 0, 37, 98
1, 37182, Note_off_c, 0, 37, 68
1, 37184, Note_on_c, 0, 39, 29
1, 37185, Note_off_c, 0, 39, 127
1, 37298, Note_on_c, 0, 49, 98
1, 37338, Note_off_c, 0, 49, 64
1, 37448, Note_on_c, 0, 39, 97
1, 37456, Note_on_c, 0, 71, 96
1, 37481, Note_off_c, 0, 39, 68
1, 37490, Note_off_c, 0, 71, 71
1, 37602, Note_on_c, 0, 51, 103
1, 37606, Note_on_c, 0, 59, 88
1, 37632, Note_off_c, 0, 51, 66
1, 37634, Note_off_c, 0, 59, 62
1, 37767, Note_on_c, 0, 73, 96
1, 37798, Note_off_c, 0, 73, 71
1, 37922, Note_on_c, 0, 61, 93
1, 37958, Note_off_c, 0, 61, 65
1, 38066, Note_on_c, 0, 75, 97
1, 38073, Note_on_c, 0, 39, 82
1, 38101, Note_off_c, 0, 75, 64
1, 38106, Note_off_c, 0, 39, 70
1, 38221, Note_on_c, 0, 51, 91
1, 38221, Note_on_c, 0, 63, 95
1, 38262, Note_off_c, 0, 63, 66
1, 38269, Note_off_c, 0, 51, 61
1, 38372, Note_on_c, 0, 40, 91
1, 38405, Note_off_c, 0, 40, 66
1, 38545, Note_on_c, 0, 52, 90
1, 38577, Note_off_c, 0, 52, 70
1, 38691, Note_on_c, 0, 42, 86
1, 38695, Note_on_c, 0, 75, 93
1, 38717, Note_off_c, 0, 42, 68
1, 38734, Note_off_c, 0, 75, 59
1, 38843, Note_on_c, 0, 63, 91
1, 38846, Note_on_c, 0, 54, 89
1, 38870, Note_off_c, 0, 54, 69
1, 38887, Note_off_c, 0, 63, 66
1, 39004, Note_on_c, 0, 76, 97
1, 39039, Note_off_c, 0, 76, 67
1, 39159, Note_on_c, 0, 64, 85
1, 39207, Note_off_c, 0, 64, 63
1, 39312, Note_on_c, 0, 78, 96
1, 39346, Note_off_c, 0, 78, 66
1, 39477, Note_on_c, 0, 66, 86
1, 39521, Note_off_c, 0, 66, 61
1, 39624, Note_on_c, 0, 80, 94
1, 39654, Note_off_c, 0, 80, 65
1, 39775, Note_on_c, 0, 68, 86
1, 39821, Note_off_c, 0, 68, 59
1, 39934, Note_on_c, 0, 81, 94
1, 39935, Note_on_c, 0, 42, 73
1, 39964, Note_off_c, 0, 42, 65
1, 39971, Note_off_c, 0, 81, 63
1, 40083, Note_on_c, 0, 69, 89
1, 40084, Note_on_c, 0, 54, 78
1, 40111, Note_off_c, 0, 54, 68
1, 40122, Note_off_c, 0, 69, 63
1, 40236, Note_on_c, 0, 44, 71
1, 40238, Note_on_c, 0, 81, 92
1, 40268, Note_off_c, 0, 44, 65
1, 40275, Note_off_c, 0, 81, 63
1, 40384, Note_on_c, 0, 71, 83
1, 40387, Note_on_c, 0, 56, 75
1, 40412, Note_off_c, 0, 71, 66
1, 40414, Note_off_c, 0, 56, 69
1, 40536, Note_on_c, 0, 81, 86
1, 40545, Note_on_c, 0, 45, 72
1, 40569, Note_off_c, 0, 45, 66
1, 40570, Note_off_c, 0, 81, 63
1, 40701, Note_on_c, 0, 73, 78
1, 40709, Note_on_c, 0, 57, 67
1, 40724, Note_off_c, 0, 73, 66
1, 40734, Note_off_c, 0, 57, 65
1, 40865, Note_on_c, 0, 81, 78
1, 40867, Note_on_c, 0, 47, 68
1, 40895, Note_off_c, 0, 81, 63
1, 40896, Note_off_c, 0, 47, 67
1, 41027, Note_on_c, 0, 75, 69
1, 41034, Note_on_c, 0, 59, 61
1, 41052, Note_off_c, 0, 75, 65
1, 41060, Note_off_c, 0, 59, 65
1, 41186, Note_on_c, 0, 81, 72
1, 41195, Note_on_c, 0, 49, 58
1, 41216, Note_off_c, 0, 81, 63
1, 41220, Note_off_c, 0, 49, 64
1, 41361, Note_on_c, 0, 76, 60
1, 41365, Note_on_c, 0, 61, 56
1, 41380, Note_off_c, 0, 76, 66
1, 41398, Note_off_c, 0, 61, 66
1, 41542, Note_on_c, 0, 51, 53
1, 41544, Note_on_c, 0, 81, 57
1, 41569, Note_off_c, 0, 81, 57
1, 41570, Note_off_c, 0, 51, 64
1, 41763, Note_on_c, 0, 78, 58
1, 41765, Note_on_c, 0, 63, 52
1, 41803, Note_off_c, 0, 63, 60
1, 41815, Note_off_c, 0, 78, 61
1, 42126, Note_on_c, 0, 80, 67
1, 42140, Note_on_c, 0, 64, 40
1, 42145, Note_on_c, 0, 68, 44
1, 42145, Note_on_c, 0, 71, 38
1, 42151, Note_on_c, 0, 76, 37
1, 42283, Control_c, 0, 64, 12
1, 42298, Control_c, 0, 64, 24
1, 42313, Control_c, 0, 64, 32
1, 42327, Control_c, 0, 64, 38
1, 42340, Control_c, 0, 64, 48
1, 42355, Control_c, 0, 64, 56
1, 42370, Control_c, 0, 64, 61
1, 42385, Control_c, 0, 64, 63
1, 42400, Control_c, 0, 64, 66
1, 42415, Control_c, 0, 64, 70
1, 42429, Control_c, 0, 64, 77
1, 42444, Control_c, 0, 64, 80
1, 42459, Control_c, 0, 64, 82
1, 42474, Control_c, 0, 64, 82
1, 42519, Control_c, 0, 64, 83
1, 42533, Control_c, 0, 64, 83
1, 42575, Note_off_c, 0, 76, 43
1, 42577, Note_off_c, 0, 71, 36
1, 42801, Control_c, 0, 64, 82
1, 42816, Control_c, 0, 64, 76
1, 42830, Control_c, 0, 64, 67
1, 42845, Control_c, 0, 64, 59
1, 42854, Note_off_c, 0, 64, 40
1, 42855, Note_on_c, 0, 78, 68
1, 42860, Control_c, 0, 64, 43
1, 42864, Note_on_c, 0, 66, 44
1, 42874, Note_on_c, 0, 69, 43
1, 42875, Control_c, 0, 64, 0
1, 42877, Note_on_c, 0, 59, 38
1, 42881, Note_on_c, 0, 63, 34
1, 42886, Note_on_c, 0, 75, 36
1, 42910, Note_off_c, 0, 66, 0
1, 42910, Note_on_c, 0, 66, 11
1, 42943, Note_off_c, 0, 80, 62
1, 42956, Control_c, 0, 64, 31
1, 42971, Control_c, 0, 64, 47
1, 42977, Note_off_c, 0, 68, 51
1, 42986, Control_c, 0, 64, 59
1, 43001, Control_c, 0, 64, 66
1, 43008, Note_off_c, 0, 63, 52
1, 43014, Note_off_c, 0, 69, 58
1, 43016, Control_c, 0, 64, 67
1, 43044, Note_off_c, 0, 75, 40
1, 43045, Control_c, 0, 64, 68
1, 43060, Control_c, 0, 64, 69
1, 43164, Control_c, 0, 64, 66
1, 43179, Control_c, 0, 64, 62
1, 43194, Control_c, 0, 64, 52
1, 43202, Note_on_c, 0, 76, 70
1, 43209, Control_c, 0, 64, 32
1, 43210, Note_on_c, 0, 61, 58
1, 43213, Note_on_c, 0, 64, 48
1, 43219, Note_on_c, 0, 68, 52
1, 43219, Note_off_c, 0, 59, 53
1, 43220, Note_on_c, 0, 73, 55
1, 43223, Control_c, 0, 64, 0
1, 43230, Note_off_c, 0, 66, 41
1, 43255, Note_off_c, 0, 78, 63
1, 43297, Control_c, 0, 64, 18
1, 43312, Control_c, 0, 64, 38
1, 43327, Control_c, 0, 64, 53
1, 43343, Control_c, 0, 64, 62
1, 43348, Note_off_c, 0, 73, 49
1, 43358, Control_c, 0, 64, 64
1, 43377, Note_off_c, 0, 68, 49
1, 43387, Control_c, 0, 64, 64
1, 43402, Control_c, 0, 64, 65
1, 43417, Control_c, 0, 64, 66
1, 43432, Control_c, 0, 64, 67
1, 43565, Control_c, 0, 64, 66
1, 43579, Note_on_c, 0, 75, 66
1, 43580, Control_c, 0, 64, 66
1, 43595, Control_c, 0, 64, 64
1, 43595, Note_on_c, 0, 72, 52
1, 43596, Note_on_c, 0, 66, 48
1, 43602, Note_on_c, 0, 60, 38
1, 43610, Note_on_c, 0, 56, 45
1, 43610, Control_c, 0, 64, 59
1, 43612, Note_on_c, 0, 63, 37
1, 43625, Control_c, 0, 64, 47
1, 43634, Note_off_c, 0, 76, 37
1, 43640, Control_c, 0, 64, 20
1, 43640, Note_off_c, 0, 61, 33
1, 43654, Control_c, 0, 64, 0
1, 43672, Note_off_c, 0, 63, 0
1, 43672, Note_on_c, 0, 63, 6
1, 43693, Note_off_c, 0, 72, 0
1, 43693, Note_on_c, 0, 72, 7
1, 43693, Note_off_c, 0, 66, 0
1, 43693, Note_on_c, 0, 66, 6
1, 43718, Note_off_c, 0, 64, 47
1, 43810, Control_c, 0, 64, 32
1, 43825, Control_c, 0, 64, 47
1, 43839, Control_c, 0, 64, 59
1, 43854, Control_c, 0, 64, 65
1, 43869, Control_c, 0, 64, 66
1, 43872, Note_off_c, 0, 72, 41
1, 43884, Control_c, 0, 64, 67
1, 43896, Note_off_c, 0, 56, 56
1, 43898, Control_c, 0, 64, 70
1, 43913, Control_c, 0, 64, 75
1, 43928, Control_c, 0, 64, 76
1, 43943, Control_c, 0, 64, 77
1, 43958, Control_c, 0, 64, 77
1, 43972, Control_c, 0, 64, 79
1, 43987, Control_c, 0, 64, 82
1, 44002, Control_c, 0, 64, 84
1, 44017, Control_c, 0, 64, 84
1, 44032, Control_c, 0, 64, 85
1, 44034, Note_off_c, 0, 66, 41
1, 44299, Control_c, 0, 64, 85
1, 44313, Control_c, 0, 64, 83
1, 44328, Control_c, 0, 64, 78
1, 44331, Note_on_c, 0, 73, 50
1, 44342, Note_on_c, 0, 57, 36
1, 44343, Control_c, 0, 64, 67
1, 44346, Note_on_c, 0, 61, 42
1, 44350, Note_on_c, 0, 69, 41
1, 44352, Note_on_c, 0, 64, 31
1, 44358, Control_c, 0, 64, 59
1, 44373, Control_c, 0, 64, 42
1, 44388, Control_c, 0, 64, 0
1, 44404, Note_off_c, 0, 63, 45
1, 44410, Note_off_c, 0, 75, 38
1, 44410, Note_off_c, 0, 60, 41
1, 44588, Control_c, 0, 64, 12
1, 44602, Control_c, 0, 64, 25
1, 44617, Control_c, 0, 64, 33
1, 44632, Control_c, 0, 64, 42
1, 44647, Control_c, 0, 64, 51
1, 44662, Control_c, 0, 64, 59
1, 44669, Note_off_c, 0, 64, 42
1, 44676, Control_c, 0, 64, 64
1, 44691, Control_c, 0, 64, 71
1, 44706, Control_c, 0, 64, 82
1, 44720, Control_c, 0, 64, 102
1, 44726, Note_off_c, 0, 61, 55
1, 44727, Note_off_c, 0, 57, 40
1, 44735, Control_c, 0, 64, 127
1, 44739, Note_off_c, 0, 69, 40
1, 44821, Note_off_c, 0, 73, 54
1, 45106, Control_c, 0, 64, 117
1, 45121, Control_c, 0, 64, 105
1, 45136, Control_c, 0, 64, 98
1, 45151, Control_c, 0, 64, 91
1, 45173, Control_c, 0, 64, 81
1, 45180, Note_on_c, 0, 75, 49
1, 45188, Control_c, 0, 64, 69
1, 45193, Note_on_c, 0, 57, 37
1, 45198, Note_on_c, 0, 71, 27
1, 45200, Note_on_c, 0, 69, 39
1, 45202, Note_on_c, 0, 54, 49
1, 45203, Control_c, 0, 64, 58
1, 45205, Note_on_c, 0, 63, 34
1, 45207, Note_on_c, 0, 59, 32
1, 45218, Control_c, 0, 64, 41
1, 45232, Control_c, 0, 64, 0
1, 45381, Control_c, 0, 64, 12
1, 45395, Control_c, 0, 64, 37
1, 45410, Control_c, 0, 64, 51
1, 45425, Control_c, 0, 64, 63
1, 45440, Control_c, 0, 64, 69
1, 45455, Control_c, 0, 64, 72
1, 45469, Control_c, 0, 64, 78
1, 45484, Control_c, 0, 64, 92
1, 45499, Control_c, 0, 64, 108
1, 45514, Control_c, 0, 64, 127
1, 45518, Note_off_c, 0, 71, 44
1, 45533, Note_off_c, 0, 69, 41
1, 45550, Note_off_c, 0, 63, 46
1, 45575, Note_off_c, 0, 57, 39
1, 45613, Note_off_c, 0, 59, 34
1, 45826, Control_c, 0, 64, 115
1, 45840, Control_c, 0, 64, 94
1, 45855, Control_c, 0, 64, 79
1, 45870, Control_c, 0, 64, 66
1, 45885, Control_c, 0, 64, 55
1, 45900, Control_c, 0, 64, 34
1, 45901, Note_on_c, 0, 76, 71
1, 45909, Note_on_c, 0, 64, 51
1, 45922, Control_c, 0, 64, 0
1, 45929, Note_off_c, 0, 75, 56
1, 45931, Note_on_c, 0, 56, 49
1, 45931, Note_on_c, 0, 71, 47
1, 45939, Note_on_c, 0, 59, 46
1, 45981, Control_c, 0, 64, 23
1, 45987, Note_off_c, 0, 71, 0
1, 45987, Note_on_c, 0, 71, 12
1, 45996, Control_c, 0, 64, 43
1, 46011, Control_c, 0, 64, 59
1, 46015, Note_off_c, 0, 54, 47
1, 46026, Control_c, 0, 64, 72
1, 46040, Control_c, 0, 64, 80
1, 46046, Note_off_c, 0, 56, 63
1, 46048, Note_off_c, 0, 64, 55
1, 46055, Control_c, 0, 64, 82
1, 46060, Note_off_c, 0, 59, 61
1, 46070, Control_c, 0, 64, 90
1, 46086, Control_c, 0, 64, 109
1, 46100, Control_c, 0, 64, 127
1, 46234, Control_c, 0, 64, 113
1, 46248, Control_c, 0, 64, 92
1, 46263, Control_c, 0, 64, 75
1, 46270, Note_on_c, 0, 78, 84
1, 46278, Control_c, 0, 64, 63
1, 46280, Note_on_c, 0, 73, 65
1, 46282, Note_on_c, 0, 66, 68
1, 46284, Note_on_c, 0, 61, 58
1, 46287, Note_on_c, 0, 57, 54
1, 46293, Control_c, 0, 64, 46
1, 46308, Control_c, 0, 64, 0
1, 46412, Control_c, 0, 64, 29
1, 46427, Control_c, 0, 64, 50
1, 46436, Note_off_c, 0, 71, 45
1, 46441, Control_c, 0, 64, 66
1, 46444, Note_off_c, 0, 76, 31
1, 46456, Control_c, 0, 64, 74
1, 46486, Control_c, 0, 64, 77
1, 46500, Control_c, 0, 64, 92
1, 46515, Control_c, 0, 64, 127
1, 46534, Note_off_c, 0, 66, 58
1, 46733, Note_on_c, 0, 80, 81
1, 46738, Note_on_c, 0, 71, 69
1, 46743, Note_on_c, 0, 68, 59
1, 46746, Note_on_c, 0, 59, 48
1, 46758, Note_on_c, 0, 64, 44
1, 46761, Note_on_c, 0, 76, 58
1, 46776, Control_c, 0, 64, 107
1, 46790, Control_c, 0, 64, 101
1, 46820, Control_c, 0, 64, 100
1, 46835, Control_c, 0, 64, 93
1, 46837, Note_off_c, 0, 61, 62
1, 46850, Control_c, 0, 64, 78
1, 46864, Control_c, 0, 64, 66
1, 46879, Control_c, 0, 64, 57
1, 46892, Note_off_c, 0, 78, 32
1, 46894, Control_c, 0, 64, 40
1, 46909, Control_c, 0, 64, 0
1, 46927, Note_off_c, 0, 73, 39
1, 46982, Note_off_c, 0, 57, 36
1, 47086, Control_c, 0, 64, 8
1, 47101, Control_c, 0, 64, 32
1, 47115, Control_c, 0, 64, 47
1, 47130, Control_c, 0, 64, 57
1, 47145, Control_c, 0, 64, 62
1, 47160, Control_c, 0, 64, 65
1, 47175, Control_c, 0, 64, 69
1, 47190, Control_c, 0, 64, 77
1, 47205, Control_c, 0, 64, 86
1, 47220, Control_c, 0, 64, 91
1, 47235, Control_c, 0, 64, 95
1, 47250, Control_c, 0, 64, 103
1, 47264, Control_c, 0, 64, 110
1, 47279, Control_c, 0, 64, 119
1, 47294, Control_c, 0, 64, 127
1, 47351, Note_off_c, 0, 68, 33
1, 47673, Control_c, 0, 64, 119
1, 47688, Control_c, 0, 64, 117
1, 47746, Control_c, 0, 64, 114
1, 47761, Control_c, 0, 64, 113
1, 47791, Control_c, 0, 64, 108
1, 47802, Note_on_c, 0, 78, 51
1, 47806, Control_c, 0, 64, 95
1, 47807, Note_off_c, 0, 80, 0
1, 47810, Note_on_c, 0, 75, 40
1, 47820, Control_c, 0, 64, 79
1, 47822, Note_on_c, 0, 63, 38
1, 47827, Note_on_c, 0, 66, 29
1, 47835, Control_c, 0, 64, 67
1, 47844, Poly_aftertouch_c, 0, 80, 127
1, 47850, Control_c, 0, 64, 58
1, 47864, Control_c, 0, 64, 42
1, 47879, Control_c, 0, 64, 0
1, 47887, Note_off_c, 0, 76, 17
1, 47932, Poly_aftertouch_c, 0, 80, 0
1, 47934, Note_off_c, 0, 64, 43
1, 47983, Control_c, 0, 64, 24
1, 47994, Note_off_c, 0, 71, 46
1, 47998, Control_c, 0, 64, 45
1, 48013, Control_c, 0, 64, 61
1, 48028, Control_c, 0, 64, 74
1, 48042, Control_c, 0, 64, 78
1, 48057, Control_c, 0, 64, 79
1, 48072, Control_c, 0, 64, 86
1, 48087, Control_c, 0, 64, 95
1, 48102, Control_c, 0, 64, 97
1, 48117, Control_c, 0, 64, 97
1, 48199, Control_c, 0, 64, 98
1, 48228, Note_off_c, 0, 66, 42
1, 48238, Note_on_c, 0, 69, 41
1, 48238, Note_off_c, 0, 63, 45
1, 48249, Note_off_c, 0, 75, 35
1, 48258, Note_off_c, 0, 59, 40
1, 48281, Note_off_c, 0, 78, 33
1, 48317, Note_off_c, 0, 69, 57
1, 48569, Control_c, 0, 64, 97
1, 48584, Control_c, 0, 64, 97
1, 48643, Control_c, 0, 64, 96
1, 48658, Control_c, 0, 64, 96
1, 48673, Control_c, 0, 64, 95
1, 48702, Control_c, 0, 64, 94
1, 48717, Control_c, 0, 64, 93
1, 48732, Control_c, 0, 64, 92
1, 48747, Control_c, 0, 64, 90
1, 48761, Note_on_c, 0, 68, 67
1, 48761, Control_c, 0, 64, 87
1, 48768, Note_on_c, 0, 59, 50
1, 48776, Control_c, 0, 64, 80
1, 48779, Note_on_c, 0, 56, 43
1, 48783, Note_on_c, 0, 52, 40
1, 48784, Note_on_c, 0, 64, 43
1, 48791, Control_c, 0, 64, 71
1, 48806, Control_c, 0, 64, 63
1, 48821, Control_c, 0, 64, 52
1, 48835, Control_c, 0, 64, 20
1, 48850, Control_c, 0, 64, 0
1, 49066, Control_c, 0, 64, 12
1, 49080, Control_c, 0, 64, 26
1, 49095, Control_c, 0, 64, 36
1, 49110, Control_c, 0, 64, 47
1, 49125, Control_c, 0, 64, 57
1, 49139, Control_c, 0, 64, 61
1, 49154, Control_c, 0, 64, 62
1, 49169, Control_c, 0, 64, 63
1, 49184, Control_c, 0, 64, 65
1, 49199, Control_c, 0, 64, 68
1, 49214, Control_c, 0, 64, 70
1, 49229, Control_c, 0, 64, 71
1, 49244, Control_c, 0, 64, 71
1, 49273, Control_c, 0, 64, 72
1, 49288, Control_c, 0, 64, 72
1, 49318, Note_off_c, 0, 59, 52
1, 49495, Control_c, 0, 64, 72
1, 49509, Control_c, 0, 64, 69
1, 49524, Control_c, 0, 64, 64
1, 49525, Note_on_c, 0, 66, 68
1, 49533, Note_on_c, 0, 47, 45
1, 49536, Note_on_c, 0, 51, 48
1, 49539, Control_c, 0, 64, 54
1, 49540, Note_on_c, 0, 57, 47
1, 49541, Note_on_c, 0, 63, 52
1, 49542, Note_on_c, 0, 54, 44
1, 49554, Control_c, 0, 64, 28
1, 49557, Note_off_c, 0, 52, 42
1, 49569, Control_c, 0, 64, 0
1, 49593, Note_off_c, 0, 68, 58
1, 49613, Note_off_c, 0, 56, 45
1, 49622, Note_off_c, 0, 57, 0
1, 49622, Note_on_c, 0, 57, 9
1, 49643, Control_c, 0, 64, 20
1, 49651, Note_off_c, 0, 64, 36
1, 49665, Control_c, 0, 64, 39
1, 49666, Note_off_c, 0, 51, 61
1, 49680, Control_c, 0, 64, 52
1, 49695, Control_c, 0, 64, 62
1, 49709, Control_c, 0, 64, 64
1, 49724, Note_off_c, 0, 57, 38
1, 49755, Note_off_c, 0, 63, 46
1, 49770, Control_c, 0, 64, 65
1, 49785, Control_c, 0, 64, 66
1, 49800, Control_c, 0, 64, 67
1, 49860, Control_c, 0, 64, 65
1, 49875, Control_c, 0, 64, 61
1, 49889, Control_c, 0, 64, 47
1, 49898, Note_on_c, 0, 64, 71
1, 49901, Note_off_c, 0, 54, 54
1, 49904, Control_c, 0, 64, 0
1, 49912, Note_on_c, 0, 56, 57
1, 49914, Note_on_c, 0, 61, 58
1, 49917, Note_on_c, 0, 52, 53
1, 49919, Note_on_c, 0, 49, 51
1, 49929, Note_off_c, 0, 47, 53
1, 49941, Note_off_c, 0, 66, 51
1, 49993, Control_c, 0, 64, 25
1, 50008, Control_c, 0, 64, 42
1, 50022, Control_c, 0, 64, 54
1, 50037, Control_c, 0, 64, 62
1, 50049, Note_off_c, 0, 61, 51
1, 50052, Control_c, 0, 64, 63
1, 50074, Note_off_c, 0, 56, 41
1, 50096, Control_c, 0, 64, 64
1, 50274, Control_c, 0, 64, 63
1, 50289, Control_c, 0, 64, 59
1, 50295, Note_on_c, 0, 60, 55
1, 50296, Note_on_c, 0, 63, 65
1, 50299, Note_on_c, 0, 44, 43
1, 50304, Control_c, 0, 64, 48
1, 50309, Note_on_c, 0, 51, 44
1, 50315, Note_on_c, 0, 54, 46
1, 50319, Control_c, 0, 64, 16
1, 50322, Note_on_c, 0, 48, 22
1, 50333, Control_c, 0, 64, 0
1, 50362, Note_off_c, 0, 64, 36
1, 50364, Note_off_c, 0, 49, 42
1, 50432, Note_off_c, 0, 52, 57
1, 50549, Control_c, 0, 64, 18
1, 50564, Control_c, 0, 64, 32
1, 50579, Control_c, 0, 64, 40
1, 50594, Control_c, 0, 64, 48
1, 50600, Note_off_c, 0, 60, 56
1, 50609, Control_c, 0, 64, 54
1, 50621, Note_off_c, 0, 44, 52
1, 50624, Control_c, 0, 64, 59
1, 50638, Control_c, 0, 64, 63
1, 50653, Control_c, 0, 64, 67
1, 50668, Control_c, 0, 64, 72
1, 50682, Control_c, 0, 64, 76
1, 50697, Control_c, 0, 64, 77
1, 50838, Note_off_c, 0, 54, 42
1, 50934, Control_c, 0, 64, 76
1, 50979, Control_c, 0, 64, 76
1, 51008, Control_c, 0, 64, 75
1, 51023, Control_c, 0, 64, 75
1, 51038, Control_c, 0, 64, 74
1, 51068, Control_c, 0, 64, 74
1, 51083, Control_c, 0, 64, 72
1, 51097, Control_c, 0, 64, 69
1, 51112, Note_on_c, 0, 61, 55
1, 51112, Control_c, 0, 64, 63
1, 51125, Note_on_c, 0, 57, 43
1, 51127, Control_c, 0, 64, 50
1, 51131, Note_on_c, 0, 49, 42
1, 51137, Note_on_c, 0, 45, 37
1, 51139, Note_on_c, 0, 52, 32
1, 51142, Control_c, 0, 64, 15
1, 51163, Control_c, 0, 64, 0
1, 51198, Note_off_c, 0, 51, 37
1, 51216, Note_off_c, 0, 45, 0
1, 51216, Note_on_c, 0, 45, 2
1, 51219, Note_off_c, 0, 48, 43
1, 51282, Note_off_c, 0, 63, 38
1, 51372, Control_c, 0, 64, 22
1, 51387, Control_c, 0, 64, 38
1, 51402, Control_c, 0, 64, 51
1, 51414, Note_off_c, 0, 57, 34
1, 51417, Control_c, 0, 64, 62
1, 51432, Control_c, 0, 64, 67
1, 51447, Control_c, 0, 64, 69
1, 51461, Control_c, 0, 64, 72
1, 51462, Note_off_c, 0, 49, 42
1, 51476, Control_c, 0, 64, 75
1, 51477, Note_off_c, 0, 45, 44
1, 51491, Control_c, 0, 64, 76
1, 51503, Note_off_c, 0, 52, 38
1, 51927, Control_c, 0, 64, 75
1, 51957, Control_c, 0, 64, 75
1, 51972, Control_c, 0, 64, 74
1, 51986, Control_c, 0, 64, 70
1, 52001, Control_c, 0, 64, 65
1, 52016, Control_c, 0, 64, 57
1, 52025, Note_on_c, 0, 59, 49
1, 52031, Note_on_c, 0, 56, 39
1, 52031, Control_c, 0, 64, 38
1, 52037, Note_on_c, 0, 35, 41
1, 52046, Control_c, 0, 64, 0
1, 52049, Note_on_c, 0, 47, 31
1, 52061, Note_on_c, 0, 52, 22
1, 52116, Note_off_c, 0, 56, 0
1, 52116, Note_on_c, 0, 56, 3
1, 52165, Note_off_c, 0, 61, 37
1, 52165, Control_c, 0, 64, 12
1, 52180, Control_c, 0, 64, 37
1, 52195, Control_c, 0, 64, 50
1, 52210, Control_c, 0, 64, 60
1, 52225, Control_c, 0, 64, 63
1, 52237, Note_off_c, 0, 52, 48
1, 52240, Control_c, 0, 64, 65
1, 52255, Control_c, 0, 64, 66
1, 52269, Note_off_c, 0, 56, 44
1, 52269, Control_c, 0, 64, 68
1, 52284, Control_c, 0, 64, 69
1, 52343, Control_c, 0, 64, 69
1, 52388, Control_c, 0, 64, 69
1, 52402, Control_c, 0, 64, 66
1, 52408, Note_on_c, 0, 57, 66
1, 52413, Note_on_c, 0, 54, 53
1, 52417, Control_c, 0, 64, 61
1, 52432, Control_c, 0, 64, 46
1, 52447, Control_c, 0, 64, 0
1, 52506, Control_c, 0, 64, 18
1, 52521, Control_c, 0, 64, 39
1, 52535, Control_c, 0, 64, 55
1, 52550, Control_c, 0, 64, 65
1, 52565, Control_c, 0, 64, 70
1, 52580, Control_c, 0, 64, 71
1, 52595, Control_c, 0, 64, 72
1, 52609, Control_c, 0, 64, 74
1, 52624, Control_c, 0, 64, 76
1, 52691, Control_c, 0, 64, 76
1, 52765, Control_c, 0, 64, 76
1, 52780, Control_c, 0, 64, 71
1, 52795, Control_c, 0, 64, 64
1, 52803, Note_on_c, 0, 61, 75
1, 52809, Control_c, 0, 64, 52
1, 52824, Control_c, 0, 64, 25
1, 52839, Control_c, 0, 64, 0
1, 52869, Control_c, 0, 64, 14
1, 52883, Control_c, 0, 64, 32
1, 52898, Control_c, 0, 64, 45
1, 52913, Control_c, 0, 64, 58
1, 52928, Control_c, 0, 64, 67
1, 52944, Control_c, 0, 64, 72
1, 52958, Control_c, 0, 64, 73
1, 52973, Control_c, 0, 64, 74
1, 52988, Control_c, 0, 64, 78
1, 53003, Control_c, 0, 64, 82
1, 53018, Control_c, 0, 64, 83
1, 53033, Control_c, 0, 64, 83
1, 53062, Control_c, 0, 64, 84
1, 53077, Control_c, 0, 64, 84
1, 53107, Control_c, 0, 64, 84
1, 53122, Control_c, 0, 64, 75
1, 53137, Control_c, 0, 64, 64
1, 53152, Control_c, 0, 64, 52
1, 53166, Control_c, 0, 64, 40
1, 53168, Note_on_c, 0, 63, 80
1, 53170, Note_off_c, 0, 35, 44
1, 53173, Note_off_c, 0, 59, 53
1, 53181, Control_c, 0, 64, 43
1, 53196, Control_c, 0, 64, 53
1, 53211, Control_c, 0, 64, 60
1, 53226, Control_c, 0, 64, 66
1, 53240, Control_c, 0, 64, 68
1, 53241, Note_off_c, 0, 47, 39
1, 53255, Control_c, 0, 64, 71
1, 53257, Note_off_c, 0, 57, 59
1, 53270, Control_c, 0, 64, 74
1, 53284, Control_c, 0, 64, 77
1, 53288, Note_off_c, 0, 54, 37
1, 53300, Note_off_c, 0, 61, 53
1, 53327, Note_off_c, 0, 63, 63
1, 53529, Control_c, 0, 64, 77
1, 53544, Control_c, 0, 64, 72
1, 53558, Control_c, 0, 64, 66
1, 53573, Control_c, 0, 64, 57
1, 53585, Note_on_c, 0, 64, 59
1, 53588, Control_c, 0, 64, 37
1, 53603, Note_on_c, 0, 40, 46
1, 53603, Control_c, 0, 64, 0
1, 53604, Note_on_c, 0, 52, 36
1, 53604, Note_on_c, 0, 56, 42
1, 53636, Note_off_c, 0, 56, 64
1, 53691, Control_c, 0, 64, 20
1, 53706, Control_c, 0, 64, 38
1, 53720, Note_on_c, 0, 66, 61
1, 53721, Control_c, 0, 64, 49
1, 53737, Control_c, 0, 64, 56
1, 53752, Control_c, 0, 64, 58
1, 53775, Note_off_c, 0, 64, 49
1, 53781, Control_c, 0, 64, 58
1, 53796, Control_c, 0, 64, 57
1, 53810, Note_on_c, 0, 68, 60
1, 53811, Control_c, 0, 64, 55
1, 53826, Control_c, 0, 64, 54
1, 53841, Control_c, 0, 64, 52
1, 53849, Note_off_c, 0, 66, 54
1, 53855, Control_c, 0, 64, 49
1, 53870, Control_c, 0, 64, 46
1, 53885, Control_c, 0, 64, 43
1, 53889, Note_off_c, 0, 68, 59
1, 53900, Control_c, 0, 64, 41
1, 53915, Control_c, 0, 64, 40
1, 53918, Note_on_c, 0, 69, 67
1, 53930, Control_c, 0, 64, 38
1, 53945, Control_c, 0, 64, 36
1, 53960, Control_c, 0, 64, 32
1, 53974, Control_c, 0, 64, 28
1, 53989, Control_c, 0, 64, 25
1, 54004, Control_c, 0, 64, 22
1, 54013, Note_off_c, 0, 69, 62
1, 54019, Control_c, 0, 64, 20
1, 54024, Note_on_c, 0, 71, 61
1, 54033, Control_c, 0, 64, 18
1, 54048, Control_c, 0, 64, 15
1, 54058, Note_off_c, 0, 40, 42
1, 54063, Control_c, 0, 64, 10
1, 54078, Control_c, 0, 64, 0
1, 54132, Note_on_c, 0, 73, 66
1, 54139, Note_off_c, 0, 71, 61
1, 54179, Note_off_c, 0, 52, 47
1, 54231, Note_off_c, 0, 73, 60
1, 54240, Note_on_c, 0, 74, 68
1, 54335, Note_off_c, 0, 74, 63
1, 54350, Note_on_c, 0, 75, 63
1, 54426, Note_off_c, 0, 75, 60
1, 54448, Note_on_c, 0, 76, 63
1, 54549, Note_off_c, 0, 76, 56
1, 54558, Note_on_c, 0, 77, 63
1, 54660, Note_on_c, 0, 78, 60
1, 54663, Note_off_c, 0, 77, 55
1, 54739, Note_off_c, 0, 78, 64
1, 54761, Note_on_c, 0, 79, 54
1, 54909, Note_on_c, 0, 68, 64
1, 54916, Note_on_c, 0, 64, 51
1, 54916, Note_on_c, 0, 80, 57
1, 54937, Note_on_c, 0, 71, 18
1, 54948, Note_off_c, 0, 79, 37
1, 55018, Note_off_c, 0, 80, 58
1, 55062, Note_on_c, 0, 79, 57
1, 55116, Control_c, 0, 64, 9
1, 55130, Control_c, 0, 64, 24
1, 55145, Control_c, 0, 64, 34
1, 55160, Control_c, 0, 64, 40
1, 55164, Note_on_c, 0, 80, 53
1, 55175, Control_c, 0, 64, 48
1, 55190, Control_c, 0, 64, 54
1, 55196, Note_off_c, 0, 79, 37
1, 55204, Control_c, 0, 64, 59
1, 55219, Control_c, 0, 64, 61
1, 55234, Control_c, 0, 64, 62
1, 55249, Control_c, 0, 64, 63
1, 55255, Note_on_c, 0, 81, 59
1, 55262, Note_off_c, 0, 80, 51
1, 55263, Control_c, 0, 64, 65
1, 55278, Control_c, 0, 64, 66
1, 55293, Control_c, 0, 64, 66
1, 55355, Note_off_c, 0, 81, 59
1, 55388, Note_on_c, 0, 79, 48
1, 55481, Note_on_c, 0, 80, 58
1, 55486, Control_c, 0, 64, 66
1, 55501, Note_off_c, 0, 79, 54
1, 55513, Note_off_c, 0, 71, 45
1, 55546, Control_c, 0, 64, 65
1, 55575, Control_c, 0, 64, 64
1, 55590, Control_c, 0, 64, 62
1, 55599, Note_off_c, 0, 80, 35
1, 55605, Control_c, 0, 64, 56
1, 55607, Note_on_c, 0, 63, 51
1, 55608, Note_on_c, 0, 66, 60
1, 55611, Note_on_c, 0, 59, 47
1, 55620, Control_c, 0, 64, 40
1, 55630, Note_on_c, 0, 69, 54
1, 55635, Control_c, 0, 64, 9
1, 55657, Control_c, 0, 64, 0
1, 55667, Note_off_c, 0, 64, 37
1, 55712, Note_off_c, 0, 63, 65
1, 55721, Note_off_c, 0, 68, 59
1, 55731, Control_c, 0, 64, 23
1, 55746, Control_c, 0, 64, 36
1, 55760, Note_on_c, 0, 80, 50
1, 55760, Control_c, 0, 64, 46
1, 55775, Control_c, 0, 64, 54
1, 55780, Note_off_c, 0, 69, 54
1, 55790, Control_c, 0, 64, 58
1, 55805, Control_c, 0, 64, 59
1, 55818, Control_c, 0, 64, 59
1, 55833, Control_c, 0, 64, 60
1, 55848, Control_c, 0, 64, 60
1, 55861, Note_off_c, 0, 80, 58
1, 55863, Control_c, 0, 64, 61
1, 55876, Note_on_c, 0, 78, 53
1, 55937, Control_c, 0, 64, 60
1, 55951, Control_c, 0, 64, 59
1, 55966, Control_c, 0, 64, 55
1, 55967, Note_on_c, 0, 64, 69
1, 55970, Note_on_c, 0, 61, 55
1, 55978, Note_on_c, 0, 68, 55
1, 55980, Note_off_c, 0, 78, 38
1, 55981, Control_c, 0, 64, 47
1, 55996, Control_c, 0, 64, 27
1, 56006, Note_off_c, 0, 66, 62
1, 56007, Note_off_c, 0, 59, 60
1, 56010, Control_c, 0, 64, 0
1, 56096, Note_on_c, 0, 78, 54
1, 56100, Control_c, 0, 64, 32
1, 56115, Control_c, 0, 64, 44
1, 56130, Control_c, 0, 64, 54
1, 56145, Control_c, 0, 64, 59
1, 56160, Control_c, 0, 64, 60
1, 56195, Note_off_c, 0, 68, 36
1, 56205, Note_on_c, 0, 76, 57
1, 56234, Control_c, 0, 64, 59
1, 56264, Control_c, 0, 64, 59
1, 56275, Note_off_c, 0, 78, 34
1, 56279, Control_c, 0, 64, 58
1, 56308, Control_c, 0, 64, 57
1, 56323, Control_c, 0, 64, 53
1, 56329, Note_on_c, 0, 60, 51
1, 56332, Note_on_c, 0, 56, 55
1, 56336, Note_on_c, 0, 63, 61
1, 56338, Control_c, 0, 64, 44
1, 56342, Note_on_c, 0, 66, 50
1, 56343, Note_off_c, 0, 76, 37
1, 56353, Control_c, 0, 64, 29
1, 56368, Control_c, 0, 64, 0
1, 56375, Note_off_c, 0, 61, 55
1, 56461, Note_off_c, 0, 64, 52
1, 56484, Note_on_c, 0, 72, 43
1, 56598, Control_c, 0, 64, 8
1, 56605, Note_on_c, 0, 75, 36
1, 56613, Control_c, 0, 64, 23
1, 56627, Control_c, 0, 64, 31
1, 56642, Control_c, 0, 64, 38
1, 56649, Note_off_c, 0, 72, 30
1, 56657, Control_c, 0, 64, 45
1, 56672, Control_c, 0, 64, 52
1, 56676, Note_off_c, 0, 75, 38
1, 56687, Control_c, 0, 64, 57
1, 56698, Note_on_c, 0, 76, 47
1, 56701, Control_c, 0, 64, 60
1, 56716, Control_c, 0, 64, 62
1, 56719, Note_off_c, 0, 56, 34
1, 56731, Control_c, 0, 64, 63
1, 56746, Control_c, 0, 64, 64
1, 56761, Control_c, 0, 64, 65
1, 56821, Note_on_c, 0, 72, 45
1, 56861, Note_off_c, 0, 76, 35
1, 56921, Note_off_c, 0, 66, 41
1, 56924, Note_on_c, 0, 75, 53
1, 56939, Control_c, 0, 64, 64
1, 56954, Note_off_c, 0, 72, 53
1, 56982, Note_off_c, 0, 75, 57
1, 57028, Control_c, 0, 64, 63
1, 57042, Control_c, 0, 64, 62
1, 57043, Note_on_c, 0, 57, 40
1, 57047, Note_on_c, 0, 61, 59
1, 57057, Control_c, 0, 64, 57
1, 57072, Control_c, 0, 64, 48
1, 57076, Note_on_c, 0, 64, 49
1, 57087, Control_c, 0, 64, 31
1, 57102, Control_c, 0, 64, 0
1, 57128, Note_off_c, 0, 63, 44
1, 57131, Note_off_c, 0, 60, 39
1, 57208, Note_on_c, 0, 69, 41
1, 57257, Control_c, 0, 64, 20
1, 57272, Control_c, 0, 64, 35
1, 57287, Control_c, 0, 64, 46
1, 57302, Control_c, 0, 64, 57
1, 57317, Control_c, 0, 64, 63
1, 57328, Note_on_c, 0, 73, 45
1, 57331, Control_c, 0, 64, 64
1, 57346, Control_c, 0, 64, 65
1, 57361, Control_c, 0, 64, 67
1, 57376, Control_c, 0, 64, 70
1, 57391, Control_c, 0, 64, 72
1, 57396, Note_off_c, 0, 57, 35
1, 57406, Control_c, 0, 64, 73
1, 57418, Note_off_c, 0, 61, 63
1, 57420, Control_c, 0, 64, 74
1, 57421, Note_off_c, 0, 69, 40
1, 57438, Note_on_c, 0, 75, 47
1, 57450, Control_c, 0, 64, 74
1, 57450, Note_off_c, 0, 73, 34
1, 57480, Control_c, 0, 64, 75
1, 57535, Note_on_c, 0, 69, 53
1, 57535, Note_off_c, 0, 64, 39
1, 57632, Note_off_c, 0, 75, 37
1, 57645, Note_off_c, 0, 69, 54
1, 57661, Note_on_c, 0, 73, 47
1, 57721, Note_off_c, 0, 73, 56
1, 57762, Control_c, 0, 64, 72
1, 57766, Note_on_c, 0, 63, 61
1, 57777, Note_on_c, 0, 54, 50
1, 57777, Control_c, 0, 64, 68
1, 57782, Note_on_c, 0, 57, 45
1, 57784, Note_on_c, 0, 69, 46
1, 57789, Note_on_c, 0, 59, 41
1, 57792, Control_c, 0, 64, 62
1, 57807, Control_c, 0, 64, 52
1, 57821, Control_c, 0, 64, 23
1, 57836, Control_c, 0, 64, 0
1, 57921, Note_on_c, 0, 74, 48
1, 57977, Control_c, 0, 64, 8
1, 57992, Control_c, 0, 64, 28
1, 58007, Control_c, 0, 64, 42
1, 58022, Control_c, 0, 64, 57
1, 58036, Control_c, 0, 64, 64
1, 58037, Note_on_c, 0, 75, 44
1, 58051, Control_c, 0, 64, 66
1, 58074, Note_off_c, 0, 74, 30
1, 58080, Control_c, 0, 64, 67
1, 58095, Control_c, 0, 64, 69
1, 58110, Control_c, 0, 64, 70
1, 58125, Note_off_c, 0, 75, 58
1, 58139, Note_on_c, 0, 76, 57
1, 58151, Note_off_c, 0, 57, 39
1, 58184, Note_off_c, 0, 63, 37
1, 58195, Note_off_c, 0, 59, 40
1, 58198, Control_c, 0, 64, 70
1, 58244, Note_off_c, 0, 76, 59
1, 58254, Note_on_c, 0, 74, 52
1, 58258, Note_off_c, 0, 69, 40
1, 58359, Note_off_c, 0, 74, 56
1, 58362, Control_c, 0, 64, 71
1, 58367, Note_on_c, 0, 75, 50
1, 58406, Control_c, 0, 64, 70
1, 58421, Control_c, 0, 64, 67
1, 58436, Control_c, 0, 64, 60
1, 58451, Control_c, 0, 64, 43
1, 58464, Note_off_c, 0, 75, 59
1, 58466, Control_c, 0, 64, 0
1, 58467, Note_on_c, 0, 64, 65
1, 58478, Note_on_c, 0, 59, 51
1, 58482, Note_on_c, 0, 56, 52
1, 58489, Note_on_c, 0, 71, 59
1, 58570, Note_off_c, 0, 54, 51
1, 58570, Control_c, 0, 64, 32
1, 58585, Control_c, 0, 64, 51
1, 58598, Note_off_c, 0, 56, 61
1, 58600, Control_c, 0, 64, 62
1, 58604, Note_on_c, 0, 78, 61
1, 58604, Note_off_c, 0, 59, 61
1, 58615, Control_c, 0, 64, 67
1, 58622, Note_off_c, 0, 71, 57
1, 58629, Control_c, 0, 64, 70
1, 58632, Note_off_c, 0, 64, 62
1, 58652, Control_c, 0, 64, 72
1, 58666, Control_c, 0, 64, 74
1, 58681, Control_c, 0, 64, 76
1, 58696, Control_c, 0, 64, 77
1, 58714, Note_on_c, 0, 76, 60
1, 58718, Note_off_c, 0, 78, 59
1, 58726, Control_c, 0, 64, 77
1, 58741, Control_c, 0, 64, 78
1, 58756, Control_c, 0, 64, 79
1, 58771, Control_c, 0, 64, 80
1, 58785, Control_c, 0, 64, 79
1, 58799, Note_off_c, 0, 76, 61
1, 58800, Control_c, 0, 64, 73
1, 58815, Control_c, 0, 64, 64
1, 58827, Note_on_c, 0, 73, 68
1, 58829, Control_c, 0, 64, 52
1, 58833, Note_on_c, 0, 66, 80
1, 58837, Note_on_c, 0, 61, 63
1, 58838, Note_on_c, 0, 57, 66
1, 58844, Control_c, 0, 64, 23
1, 58859, Control_c, 0, 64, 0
1, 58903, Control_c, 0, 64, 19
1, 58918, Control_c, 0, 64, 41
1, 58933, Control_c, 0, 64, 58
1, 58948, Control_c, 0, 64, 72
1, 58959, Note_on_c, 0, 80, 72
1, 58963, Control_c, 0, 64, 86
1, 58977, Control_c, 0, 64, 92
1, 58992, Control_c, 0, 64, 113
1, 59007, Control_c, 0, 64, 127
1, 59008, Note_off_c, 0, 73, 36
1, 59048, Note_off_c, 0, 66, 58
1, 59073, Note_on_c, 0, 78, 78
1, 59096, Note_off_c, 0, 80, 59
1, 59255, Note_on_c, 0, 64, 65
1, 59257, Note_on_c, 0, 68, 70
1, 59259, Control_c, 0, 64, 85
1, 59260, Note_on_c, 0, 80, 82
1, 59265, Note_on_c, 0, 59, 54
1, 59269, Note_on_c, 0, 76, 65
1, 59274, Control_c, 0, 64, 66
1, 59289, Control_c, 0, 64, 53
1, 59292, Note_off_c, 0, 61, 65
1, 59303, Control_c, 0, 64, 22
1, 59319, Control_c, 0, 64, 0
1, 59322, Note_off_c, 0, 78, 62
1, 59369, Note_off_c, 0, 57, 43
1, 59443, Note_on_c, 0, 79, 73
1, 59445, Note_off_c, 0, 80, 61
1, 59474, Control_c, 0, 64, 33
1, 59489, Control_c, 0, 64, 51
1, 59504, Control_c, 0, 64, 64
1, 59519, Control_c, 0, 64, 76
1, 59534, Control_c, 0, 64, 79
1, 59549, Control_c, 0, 64, 84
1, 59550, Note_on_c, 0, 80, 81
1, 59564, Control_c, 0, 64, 100
1, 59579, Control_c, 0, 64, 127
1, 59626, Note_off_c, 0, 79, 38
1, 59671, Note_on_c, 0, 83, 77
1, 59701, Note_off_c, 0, 80, 61
1, 59738, Note_off_c, 0, 68, 35
1, 59786, Note_on_c, 0, 81, 79
1, 59802, Note_off_c, 0, 83, 53
1, 59821, Note_off_c, 0, 76, 61
1, 59898, Note_on_c, 0, 80, 78
1, 59918, Control_c, 0, 64, 106
1, 59933, Control_c, 0, 64, 88
1, 59939, Note_off_c, 0, 81, 59
1, 59948, Control_c, 0, 64, 72
1, 59963, Control_c, 0, 64, 61
1, 59978, Control_c, 0, 64, 43
1, 59993, Control_c, 0, 64, 0
1, 60010, Note_on_c, 0, 78, 68
1, 60016, Note_off_c, 0, 80, 61
1, 60017, Note_on_c, 0, 63, 54
1, 60017, Note_on_c, 0, 66, 52
1, 60023, Control_c, 0, 64, 25
1, 60035, Note_on_c, 0, 75, 61
1, 60038, Control_c, 0, 64, 43
1, 60048, Note_off_c, 0, 78, 65
1, 60052, Control_c, 0, 64, 61
1, 60065, Note_off_c, 0, 75, 62
1, 60066, Note_off_c, 0, 66, 62
1, 60067, Control_c, 0, 64, 84
1, 60070, Note_off_c, 0, 59, 54
1, 60076, Note_off_c, 0, 64, 27
1, 60082, Control_c, 0, 64, 108
1, 60094, Note_off_c, 0, 63, 64
1, 60112, Control_c, 0, 64, 115
1, 60127, Control_c, 0, 64, 127
1, 60151, Note_on_c, 0, 76, 72
1, 60164, Note_on_c, 0, 73, 62
1, 60236, Note_off_c, 0, 73, 46
1, 60253, Note_on_c, 0, 75, 72
1, 60261, Note_on_c, 0, 71, 59
1, 60312, Control_c, 0, 64, 105
1, 60318, Note_off_c, 0, 76, 51
1, 60327, Control_c, 0, 64, 85
1, 60342, Control_c, 0, 64, 68
1, 60356, Note_on_c, 0, 73, 63
1, 60357, Control_c, 0, 64, 55
1, 60362, Note_off_c, 0, 71, 65
1, 60366, Note_off_c, 0, 75, 60
1, 60367, Note_on_c, 0, 47, 57
1, 60372, Control_c, 0, 64, 28
1, 60381, Note_off_c, 0, 73, 69
1, 60383, Note_on_c, 0, 69, 59
1, 60386, Control_c, 0, 64, 0
1, 60416, Control_c, 0, 64, 24
1, 60423, Note_off_c, 0, 69, 57
1, 60431, Control_c, 0, 64, 40
1, 60446, Control_c, 0, 64, 56
1, 60461, Control_c, 0, 64, 70
1, 60473, Note_on_c, 0, 49, 60
1, 60475, Control_c, 0, 64, 81
1, 60482, Note_on_c, 0, 71, 61
1, 60484, Note_on_c, 0, 68, 66
1, 60505, Control_c, 0, 64, 82
1, 60520, Control_c, 0, 64, 83
1, 60535, Control_c, 0, 64, 85
1, 60549, Control_c, 0, 64, 87
1, 60550, Note_off_c, 0, 47, 34
1, 60564, Control_c, 0, 64, 88
1, 60568, Note_on_c, 0, 51, 64
1, 60570, Note_off_c, 0, 49, 64
1, 60579, Control_c, 0, 64, 88
1, 60586, Note_on_c, 0, 66, 48
1, 60589, Note_on_c, 0, 69, 62
1, 60589, Note_off_c, 0, 71, 59
1, 60591, Note_off_c, 0, 68, 50
1, 60595, Note_off_c, 0, 51, 68
1, 60610, Note_off_c, 0, 66, 57
1, 60625, Note_off_c, 0, 69, 64
1, 60667, Control_c, 0, 64, 85
1, 60682, Control_c, 0, 64, 76
1, 60697, Control_c, 0, 64, 65
1, 60706, Note_on_c, 0, 56, 82
1, 60708, Note_on_c, 0, 68, 73
1, 60712, Control_c, 0, 64, 52
1, 60717, Note_on_c, 0, 52, 63
1, 60727, Control_c, 0, 64, 0
1, 60734, Note_on_c, 0, 59, 50
1, 60828, Note_off_c, 0, 68, 58
1, 60834, Note_on_c, 0, 67, 58
1, 60943, Control_c, 0, 64, 27
1, 60947, Note_on_c, 0, 68, 67
1, 60950, Note_off_c, 0, 67, 60
1, 60958, Control_c, 0, 64, 40
1, 60972, Control_c, 0, 64, 54
1, 60987, Control_c, 0, 64, 61
1, 61002, Control_c, 0, 64, 63
1, 61017, Control_c, 0, 64, 63
1, 61031, Control_c, 0, 64, 64
1, 61052, Note_on_c, 0, 69, 68
1, 61057, Note_off_c, 0, 68, 50
1, 61061, Control_c, 0, 64, 64
1, 61076, Control_c, 0, 64, 65
1, 61091, Control_c, 0, 64, 65
1, 61145, Note_off_c, 0, 69, 63
1, 61168, Note_on_c, 0, 67, 56
1, 61265, Note_on_c, 0, 68, 66
1, 61293, Note_off_c, 0, 67, 57
1, 61298, Note_off_c, 0, 59, 40
1, 61355, Note_off_c, 0, 68, 47
1, 61358, Control_c, 0, 64, 62
1, 61372, Control_c, 0, 64, 53
1, 61387, Note_on_c, 0, 47, 55
1, 61387, Control_c, 0, 64, 29
1, 61394, Note_on_c, 0, 54, 69
1, 61397, Note_on_c, 0, 51, 44
1, 61402, Control_c, 0, 64, 0
1, 61409, Note_on_c, 0, 57, 56
1, 61415, Note_off_c, 0, 52, 59
1, 61465, Note_off_c, 0, 51, 59
1, 61490, Control_c, 0, 64, 20
1, 61503, Note_off_c, 0, 56, 63
1, 61505, Control_c, 0, 64, 35
1, 61510, Note_on_c, 0, 68, 56
1, 61520, Control_c, 0, 64, 47
1, 61527, Note_off_c, 0, 57, 57
1, 61535, Control_c, 0, 64, 59
1, 61549, Control_c, 0, 64, 63
1, 61609, Control_c, 0, 64, 63
1, 61618, Note_on_c, 0, 66, 61
1, 61673, Note_off_c, 0, 68, 37
1, 61691, Control_c, 0, 64, 63
1, 61705, Control_c, 0, 64, 62
1, 61721, Control_c, 0, 64, 60
1, 61736, Control_c, 0, 64, 51
1, 61740, Note_on_c, 0, 56, 67
1, 61742, Note_on_c, 0, 52, 73
1, 61743, Note_on_c, 0, 49, 65
1, 61751, Note_off_c, 0, 66, 50
1, 61751, Control_c, 0, 64, 22
1, 61766, Control_c, 0, 64, 0
1, 61782, Note_off_c, 0, 54, 64
1, 61784, Note_off_c, 0, 47, 61
1, 61868, Note_on_c, 0, 66, 66
1, 61899, Control_c, 0, 64, 24
1, 61913, Control_c, 0, 64, 37
1, 61928, Control_c, 0, 64, 47
1, 61943, Control_c, 0, 64, 53
1, 61954, Note_off_c, 0, 56, 55
1, 61958, Control_c, 0, 64, 55
1, 61968, Note_on_c, 0, 64, 65
1, 61973, Control_c, 0, 64, 56
1, 62002, Control_c, 0, 64, 55
1, 62044, Note_off_c, 0, 66, 37
1, 62047, Control_c, 0, 64, 55
1, 62062, Control_c, 0, 64, 53
1, 62077, Control_c, 0, 64, 49
1, 62091, Note_on_c, 0, 44, 53
1, 62091, Control_c, 0, 64, 39
1, 62092, Note_on_c, 0, 48, 54
1, 62103, Note_on_c, 0, 51, 64
1, 62103, Note_on_c, 0, 54, 59
1, 62106, Control_c, 0, 64, 14
1, 62115, Note_off_c, 0, 64, 46
1, 62121, Control_c, 0, 64, 0
1, 62140, Note_off_c, 0, 49, 57
1, 62190, Note_off_c, 0, 52, 60
1, 62229, Note_on_c, 0, 60, 52
1, 62332, Note_on_c, 0, 63, 53
1, 62404, Note_off_c, 0, 60, 53
1, 62410, Control_c, 0, 64, 24
1, 62425, Control_c, 0, 64, 33
1, 62437, Note_off_c, 0, 63, 61
1, 62440, Control_c, 0, 64, 41
1, 62447, Note_on_c, 0, 64, 57
1, 62454, Control_c, 0, 64, 50
1, 62467, Note_off_c, 0, 44, 35
1, 62469, Control_c, 0, 64, 56
1, 62484, Control_c, 0, 64, 60
1, 62499, Control_c, 0, 64, 61
1, 62514, Control_c, 0, 64, 62
1, 62530, Control_c, 0, 64, 62
1, 62544, Control_c, 0, 64, 63
1, 62559, Note_on_c, 0, 60, 49
1, 62583, Note_off_c, 0, 64, 48
1, 62669, Note_on_c, 0, 63, 58
1, 62685, Note_off_c, 0, 54, 41
1, 62703, Note_off_c, 0, 60, 58
1, 62741, Note_off_c, 0, 63, 61
1, 62751, Control_c, 0, 64, 62
1, 62766, Control_c, 0, 64, 62
1, 62781, Control_c, 0, 64, 61
1, 62795, Control_c, 0, 64, 56
1, 62801, Note_on_c, 0, 49, 56
1, 62802, Note_on_c, 0, 45, 48
1, 62810, Control_c, 0, 64, 45
1, 62818, Note_on_c, 0, 52, 52
1, 62825, Control_c, 0, 64, 16
1, 62840, Control_c, 0, 64, 0
1, 62861, Note_off_c, 0, 51, 52
1, 62890, Note_off_c, 0, 48, 41
1, 62955, Note_on_c, 0, 57, 48
1, 63033, Control_c, 0, 64, 16
1, 63048, Control_c, 0, 64, 31
1, 63050, Note_on_c, 0, 61, 52
1, 63062, Control_c, 0, 64, 42
1, 63077, Control_c, 0, 64, 54
1, 63083, Note_off_c, 0, 45, 56
1, 63092, Control_c, 0, 64, 59
1, 63107, Control_c, 0, 64, 61
1, 63122, Control_c, 0, 64, 62
1, 63126, Note_off_c, 0, 49, 36
1, 63144, Control_c, 0, 64, 63
1, 63146, Note_off_c, 0, 61, 57
1, 63154, Note_off_c, 0, 57, 25
1, 63159, Note_on_c, 0, 63, 58
1, 63159, Control_c, 0, 64, 63
1, 63174, Control_c, 0, 64, 64
1, 63266, Note_on_c, 0, 57, 53
1, 63306, Note_off_c, 0, 63, 35
1, 63337, Note_off_c, 0, 52, 35
1, 63367, Note_on_c, 0, 61, 58
1, 63441, Control_c, 0, 64, 63
1, 63442, Note_off_c, 0, 57, 37
1, 63456, Control_c, 0, 64, 61
1, 63469, Note_off_c, 0, 61, 59
1, 63471, Control_c, 0, 64, 54
1, 63485, Control_c, 0, 64, 36
1, 63490, Note_on_c, 0, 35, 50
1, 63493, Note_on_c, 0, 47, 53
1, 63500, Note_on_c, 0, 52, 54
1, 63500, Control_c, 0, 64, 0
1, 63604, Control_c, 0, 64, 23
1, 63612, Note_on_c, 0, 56, 55
1, 63618, Control_c, 0, 64, 40
1, 63633, Control_c, 0, 64, 52
1, 63648, Control_c, 0, 64, 60
1, 63651, Note_off_c, 0, 52, 36
1, 63663, Control_c, 0, 64, 62
1, 63707, Control_c, 0, 64, 63
1, 63716, Note_on_c, 0, 59, 61
1, 63722, Control_c, 0, 64, 65
1, 63738, Note_off_c, 0, 56, 61
1, 63767, Control_c, 0, 64, 64
1, 63782, Control_c, 0, 64, 61
1, 63797, Control_c, 0, 64, 55
1, 63811, Control_c, 0, 64, 38
1, 63816, Note_on_c, 0, 54, 70
1, 63820, Note_off_c, 0, 59, 54
1, 63826, Control_c, 0, 64, 0
1, 63892, Control_c, 0, 64, 28
1, 63907, Control_c, 0, 64, 45
1, 63922, Control_c, 0, 64, 58
1, 63925, Note_on_c, 0, 57, 66
1, 63937, Control_c, 0, 64, 65
1, 63952, Control_c, 0, 64, 65
1, 63981, Control_c, 0, 64, 66
1, 63996, Control_c, 0, 64, 67
1, 64011, Control_c, 0, 64, 68
1, 64026, Control_c, 0, 64, 69
1, 64037, Note_off_c, 0, 54, 37
1, 64041, Note_on_c, 0, 59, 69
1, 64056, Control_c, 0, 64, 68
1, 64060, Note_off_c, 0, 57, 60
1, 64071, Control_c, 0, 64, 66
1, 64086, Control_c, 0, 64, 61
1, 64100, Control_c, 0, 64, 46
1, 64116, Control_c, 0, 64, 0
1, 64136, Note_on_c, 0, 54, 85
1, 64163, Note_off_c, 0, 59, 56
1, 64175, Control_c, 0, 64, 36
1, 64190, Control_c, 0, 64, 54
1, 64205, Control_c, 0, 64, 66
1, 64220, Control_c, 0, 64, 80
1, 64235, Control_c, 0, 64, 81
1, 64246, Note_on_c, 0, 57, 74
1, 64249, Control_c, 0, 64, 85
1, 64264, Control_c, 0, 64, 94
1, 64279, Note_off_c, 0, 54, 62
1, 64279, Control_c, 0, 64, 103
1, 64294, Control_c, 0, 64, 107
1, 64309, Control_c, 0, 64, 111
1, 64323, Control_c, 0, 64, 119
1, 64349, Note_on_c, 0, 61, 81
1, 64353, Control_c, 0, 64, 117
1, 64368, Note_off_c, 0, 57, 61
1, 64368, Control_c, 0, 64, 94
1, 64383, Control_c, 0, 64, 73
1, 64397, Control_c, 0, 64, 59
1, 64412, Control_c, 0, 64, 25
1, 64427, Control_c, 0, 64, 0
1, 64446, Note_on_c, 0, 54, 83
1, 64448, Note_off_c, 0, 61, 52
1, 64452, Note_off_c, 0, 35, 57
1, 64471, Control_c, 0, 64, 46
1, 64475, Note_off_c, 0, 47, 58
1, 64486, Control_c, 0, 64, 68
1, 64501, Control_c, 0, 64, 127
1, 64548, Note_on_c, 0, 57, 74
1, 64606, Note_off_c, 0, 54, 49
1, 64664, Note_on_c, 0, 63, 75
1, 64680, Note_off_c, 0, 57, 61
1, 64701, Control_c, 0, 64, 109
1, 64715, Control_c, 0, 64, 64
1, 64717, Note_off_c, 0, 63, 63
1, 64730, Control_c, 0, 64, 34
1, 64745, Control_c, 0, 64, 0
1, 64770, Note_on_c, 0, 40, 72
1, 64772, Note_on_c, 0, 64, 86
1, 64777, Note_on_c, 0, 52, 80
1, 64780, Note_on_c, 0, 56, 78
1, 64789, Control_c, 0, 64, 11
1, 64799, Note_off_c, 0, 40, 63
1, 64801, Note_off_c, 0, 52, 71
1, 64804, Control_c, 0, 64, 47
1, 64819, Control_c, 0, 64, 64
1, 64820, Note_off_c, 0, 56, 53
1, 64834, Control_c, 0, 64, 84
1, 64849, Control_c, 0, 64, 88
1, 64879, Control_c, 0, 64, 88
1, 64884, Note_off_c, 0, 64, 60
1, 64885, Note_on_c, 0, 59, 76
1, 64908, Control_c, 0, 64, 89
1, 64924, Control_c, 0, 64, 92
1, 64938, Control_c, 0, 64, 100
1, 64953, Control_c, 0, 64, 103
1, 64983, Control_c, 0, 64, 100
1, 64984, Note_on_c, 0, 56, 80
1, 64997, Note_off_c, 0, 59, 57
1, 64998, Control_c, 0, 64, 85
1, 65013, Control_c, 0, 64, 68
1, 65028, Control_c, 0, 64, 51
1, 65043, Control_c, 0, 64, 0
1, 65085, Note_on_c, 0, 59, 83
1, 65085, Note_off_c, 0, 56, 54
1, 65088, Note_on_c, 0, 47, 82
1, 65187, Note_on_c, 0, 64, 70
1, 65198, Note_off_c, 0, 59, 61
1, 65293, Note_off_c, 0, 64, 61
1, 65296, Note_on_c, 0, 68, 72
1, 65397, Note_on_c, 0, 66, 77
1, 65410, Note_off_c, 0, 68, 55
1, 65420, Control_c, 0, 64, 20
1, 65435, Control_c, 0, 64, 32
1, 65450, Control_c, 0, 64, 44
1, 65464, Control_c, 0, 64, 61
1, 65479, Control_c, 0, 64, 77
1, 65494, Control_c, 0, 64, 83
1, 65501, Note_on_c, 0, 63, 81
1, 65508, Note_off_c, 0, 66, 59
1, 65524, Control_c, 0, 64, 83
1, 65538, Control_c, 0, 64, 84
1, 65549, Note_off_c, 0, 47, 34
1, 65553, Control_c, 0, 64, 86
1, 65568, Control_c, 0, 64, 89
1, 65582, Control_c, 0, 64, 92
1, 65597, Control_c, 0, 64, 95
1, 65603, Note_on_c, 0, 59, 75
1, 65612, Control_c, 0, 64, 96
1, 65618, Note_off_c, 0, 63, 57
1, 65642, Control_c, 0, 64, 96
1, 65657, Control_c, 0, 64, 84
1, 65672, Control_c, 0, 64, 70
1, 65686, Control_c, 0, 64, 57
1, 65701, Control_c, 0, 64, 9
1, 65704, Note_on_c, 0, 47, 91
1, 65707, Note_off_c, 0, 59, 39
1, 65713, Note_on_c, 0, 63, 79
1, 65717, Control_c, 0, 64, 0
1, 65814, Note_on_c, 0, 66, 73
1, 65827, Note_off_c, 0, 63, 62
1, 65904, Note_off_c, 0, 66, 58
1, 65919, Note_on_c, 0, 69, 74
1, 66009, Note_on_c, 0, 68, 81
1, 66019, Note_off_c, 0, 69, 61
1, 66028, Control_c, 0, 64, 26
1, 66043, Control_c, 0, 64, 46
1, 66058, Control_c, 0, 64, 63
1, 66072, Note_off_c, 0, 47, 59
1, 66073, Control_c, 0, 64, 86
1, 66087, Control_c, 0, 64, 94
1, 66113, Note_on_c, 0, 64, 77
1, 66116, Note_off_c, 0, 68, 57
1, 66117, Control_c, 0, 64, 94
1, 66140, Control_c, 0, 64, 95
1, 66154, Control_c, 0, 64, 96
1, 66169, Control_c, 0, 64, 97
1, 66184, Control_c, 0, 64, 98
1, 66199, Control_c, 0, 64, 100
1, 66213, Control_c, 0, 64, 100
1, 66223, Note_on_c, 0, 59, 75
1, 66235, Note_off_c, 0, 64, 59
1, 66243, Control_c, 0, 64, 100
1, 66258, Control_c, 0, 64, 91
1, 66273, Control_c, 0, 64, 76
1, 66283, Note_off_c, 0, 59, 56
1, 66287, Control_c, 0, 64, 62
1, 66302, Control_c, 0, 64, 36
1, 66317, Control_c, 0, 64, 0
1, 66323, Note_on_c, 0, 64, 82
1, 66327, Note_on_c, 0, 47, 95
1, 66432, Note_on_c, 0, 68, 74
1, 66444, Note_off_c, 0, 64, 58
1, 66539, Note_on_c, 0, 71, 74
1, 66541, Note_off_c, 0, 68, 60
1, 66635, Note_on_c, 0, 69, 83
1, 66640, Note_off_c, 0, 71, 63
1, 66643, Control_c, 0, 64, 25
1, 66658, Control_c, 0, 64, 41
1, 66673, Control_c, 0, 64, 57
1, 66688, Control_c, 0, 64, 71
1, 66703, Control_c, 0, 64, 79
1, 66718, Note_off_c, 0, 47, 51
1, 66741, Note_off_c, 0, 69, 63
1, 66744, Note_on_c, 0, 66, 77
1, 66811, Note_off_c, 0, 66, 61
1, 66836, Control_c, 0, 64, 77
1, 66837, Note_on_c, 0, 63, 72
1, 66851, Control_c, 0, 64, 70
1, 66866, Control_c, 0, 64, 62
1, 66888, Control_c, 0, 64, 45
1, 66903, Control_c, 0, 64, 0
1, 66924, Note_off_c, 0, 63, 62
1, 66942, Note_on_c, 0, 75, 79
1, 66943, Note_on_c, 0, 47, 96
1, 66962, Control_c, 0, 64, 19
1, 66977, Control_c, 0, 64, 42
1, 66988, Note_off_c, 0, 47, 68
1, 66992, Control_c, 0, 64, 58
1, 67007, Control_c, 0, 64, 70
1, 67022, Control_c, 0, 64, 73
1, 67041, Note_on_c, 0, 69, 69
1, 67047, Note_off_c, 0, 75, 56
1, 67082, Control_c, 0, 64, 73
1, 67096, Control_c, 0, 64, 74
1, 67126, Control_c, 0, 64, 73
1, 67130, Note_off_c, 0, 69, 60
1, 67138, Note_on_c, 0, 66, 73
1, 67141, Control_c, 0, 64, 69
1, 67156, Control_c, 0, 64, 62
1, 67170, Control_c, 0, 64, 50
1, 67185, Control_c, 0, 64, 0
1, 67200, Note_off_c, 0, 66, 62
1, 67254, Note_on_c, 0, 76, 92
1, 67260, Note_on_c, 0, 52, 74
1, 67264, Note_on_c, 0, 68, 78
1, 67289, Control_c, 0, 64, 24
1, 67290, Note_off_c, 0, 68, 64
1, 67305, Control_c, 0, 64, 44
1, 67305, Note_off_c, 0, 76, 67
1, 67320, Control_c, 0, 64, 58
1, 67334, Control_c, 0, 64, 67
1, 67347, Note_on_c, 0, 47, 76
1, 67349, Control_c, 0, 64, 69
1, 67374, Note_off_c, 0, 52, 62
1, 67379, Control_c, 0, 64, 71
1, 67393, Control_c, 0, 64, 75
1, 67408, Control_c, 0, 64, 77
1, 67438, Control_c, 0, 64, 75
1, 67453, Control_c, 0, 64, 72
1, 67457, Note_on_c, 0, 44, 67
1, 67459, Note_off_c, 0, 47, 62
1, 67467, Control_c, 0, 64, 67
1, 67482, Control_c, 0, 64, 62
1, 67497, Control_c, 0, 64, 51
1, 67512, Control_c, 0, 64, 16
1, 67527, Control_c, 0, 64, 0
1, 67562, Note_on_c, 0, 71, 92
1, 67572, Note_on_c, 0, 47, 72
1, 67584, Note_off_c, 0, 44, 60
1, 67650, Note_off_c, 0, 47, 63
1, 67678, Note_on_c, 0, 52, 66
1, 67767, Note_on_c, 0, 56, 76
1, 67767, Note_off_c, 0, 52, 56
1, 67859, Control_c, 0, 64, 11
1, 67865, Note_on_c, 0, 54, 74
1, 67869, Note_off_c, 0, 56, 65
1, 67874, Control_c, 0, 64, 29
1, 67889, Control_c, 0, 64, 50
1, 67904, Control_c, 0, 64, 70
1, 67918, Control_c, 0, 64, 127
1, 67967, Note_on_c, 0, 51, 76
1, 67977, Note_off_c, 0, 54, 61
1, 68056, Note_off_c, 0, 71, 40
1, 68071, Note_on_c, 0, 47, 76
1, 68074, Note_off_c, 0, 51, 63
1, 68142, Control_c, 0, 64, 107
1, 68156, Control_c, 0, 64, 81
1, 68171, Control_c, 0, 64, 64
1, 68179, Note_on_c, 0, 51, 78
1, 68186, Control_c, 0, 64, 47
1, 68188, Note_on_c, 0, 71, 93
1, 68201, Control_c, 0, 64, 0
1, 68214, Note_off_c, 0, 47, 63
1, 68278, Note_on_c, 0, 54, 78
1, 68290, Note_off_c, 0, 51, 58
1, 68387, Note_on_c, 0, 57, 77
1, 68397, Note_off_c, 0, 54, 63
1, 68489, Note_on_c, 0, 56, 80
1, 68507, Note_off_c, 0, 57, 58
1, 68519, Control_c, 0, 64, 22
1, 68533, Control_c, 0, 64, 45
1, 68548, Control_c, 0, 64, 63
1, 68563, Control_c, 0, 64, 107
1, 68578, Control_c, 0, 64, 127
1, 68592, Note_on_c, 0, 52, 74
1, 68621, Note_off_c, 0, 56, 65
1, 68659, Note_off_c, 0, 71, 50
1, 68697, Note_on_c, 0, 47, 76
1, 68715, Note_off_c, 0, 52, 63
1, 68770, Control_c, 0, 64, 117
1, 68785, Control_c, 0, 64, 87
1, 68793, Note_on_c, 0, 71, 98
1, 68800, Control_c, 0, 64, 69
1, 68804, Note_on_c, 0, 52, 80
1, 68814, Control_c, 0, 64, 53
1, 68827, Note_off_c, 0, 47, 61
1, 68829, Control_c, 0, 64, 0
1, 68903, Note_on_c, 0, 56, 80
1, 68934, Note_off_c, 0, 52, 62
1, 68995, Note_off_c, 0, 56, 62
1, 69005, Note_on_c, 0, 59, 72
1, 69101, Note_on_c, 0, 57, 79
1, 69120, Note_off_c, 0, 59, 55
1, 69163, Control_c, 0, 64, 24
1, 69178, Control_c, 0, 64, 47
1, 69193, Control_c, 0, 64, 63
1, 69208, Control_c, 0, 64, 74
1, 69211, Note_on_c, 0, 54, 78
1, 69214, Note_off_c, 0, 57, 61
1, 69223, Control_c, 0, 64, 83
1, 69237, Control_c, 0, 64, 98
1, 69252, Control_c, 0, 64, 111
1, 69267, Control_c, 0, 64, 117
1, 69282, Control_c, 0, 64, 127
1, 69306, Note_on_c, 0, 51, 76
1, 69310, Note_off_c, 0, 71, 58
1, 69321, Note_off_c, 0, 54, 56
1, 69326, Control_c, 0, 64, 101
1, 69341, Control_c, 0, 64, 82
1, 69356, Control_c, 0, 64, 68
1, 69371, Control_c, 0, 64, 57
1, 69386, Control_c, 0, 64, 26
1, 69401, Control_c, 0, 64, 0
1, 69409, Note_on_c, 0, 71, 96
1, 69410, Note_on_c, 0, 63, 81
1, 69445, Control_c, 0, 64, 29
1, 69460, Control_c, 0, 64, 49
1, 69463, Note_off_c, 0, 51, 64
1, 69472, Note_off_c, 0, 63, 64
1, 69475, Control_c, 0, 64, 65
1, 69490, Control_c, 0, 64, 96
1, 69501, Note_on_c, 0, 57, 70
1, 69504, Control_c, 0, 64, 103
1, 69519, Control_c, 0, 64, 109
1, 69526, Note_off_c, 0, 71, 61
1, 69534, Control_c, 0, 64, 127
1, 69603, Note_on_c, 0, 54, 68
1, 69606, Note_off_c, 0, 57, 61
1, 69636, Note_off_c, 0, 54, 65
1, 69667, Control_c, 0, 64, 88
1, 69681, Control_c, 0, 64, 70
1, 69696, Control_c, 0, 64, 59
1, 69713, Control_c, 0, 64, 37
1, 69727, Control_c, 0, 64, 0
1, 69738, Note_on_c, 0, 76, 72
1, 69748, Note_on_c, 0, 56, 60
1, 69830, Note_off_c, 0, 76, 64
1, 69831, Control_c, 0, 64, 30
1, 69841, Note_on_c, 0, 59, 60
1, 69842, Note_off_c, 0, 56, 58
1, 69845, Note_on_c, 0, 71, 72
1, 69846, Control_c, 0, 64, 45
1, 69860, Control_c, 0, 64, 59
1, 69883, Control_c, 0, 64, 64
1, 69898, Control_c, 0, 64, 64
1, 69913, Control_c, 0, 64, 65
1, 69928, Control_c, 0, 64, 68
1, 69937, Note_on_c, 0, 68, 81
1, 69940, Note_on_c, 0, 64, 71
1, 69942, Control_c, 0, 64, 73
1, 69943, Note_off_c, 0, 59, 56
1, 69946, Note_off_c, 0, 71, 61
1, 69957, Control_c, 0, 64, 77
1, 69972, Control_c, 0, 64, 78
1, 70039, Note_on_c, 0, 59, 66
1, 70039, Note_off_c, 0, 64, 59
1, 70039, Note_on_c, 0, 71, 77
1, 70041, Note_off_c, 0, 68, 58
1, 70128, Note_on_c, 0, 76, 75
1, 70130, Note_on_c, 0, 56, 68
1, 70137, Note_off_c, 0, 71, 65
1, 70157, Note_off_c, 0, 59, 57
1, 70206, Note_off_c, 0, 56, 65
1, 70208, Control_c, 0, 64, 77
1, 70219, Note_on_c, 0, 52, 66
1, 70223, Control_c, 0, 64, 77
1, 70225, Note_on_c, 0, 80, 82
1, 70230, Note_off_c, 0, 76, 65
1, 70238, Control_c, 0, 64, 75
1, 70253, Control_c, 0, 64, 70
1, 70268, Control_c, 0, 64, 63
1, 70283, Control_c, 0, 64, 51
1, 70298, Control_c, 0, 64, 11
1, 70312, Control_c, 0, 64, 0
1, 70316, Note_on_c, 0, 51, 73
1, 70322, Note_on_c, 0, 78, 84
1, 70325, Note_off_c, 0, 52, 64
1, 70342, Note_off_c, 0, 80, 59
1, 70386, Control_c, 0, 64, 22
1, 70401, Control_c, 0, 64, 43
1, 70416, Control_c, 0, 64, 58
1, 70419, Note_on_c, 0, 75, 83
1, 70419, Note_off_c, 0, 51, 64
1, 70423, Note_on_c, 0, 54, 75
1, 70425, Note_off_c, 0, 78, 65
1, 70431, Control_c, 0, 64, 73
1, 70446, Control_c, 0, 64, 80
1, 70460, Control_c, 0, 64, 81
1, 70475, Control_c, 0, 64, 85
1, 70490, Control_c, 0, 64, 90
1, 70506, Control_c, 0, 64, 94
1, 70510, Note_on_c, 0, 57, 71
1, 70515, Note_off_c, 0, 54, 62
1, 70516, Note_on_c, 0, 71, 80
1, 70521, Control_c, 0, 64, 95
1, 70524, Note_off_c, 0, 75, 60
1, 70615, Note_on_c, 0, 75, 88
1, 70617, Note_on_c, 0, 54, 78
1, 70648, Note_off_c, 0, 57, 57
1, 70650, Note_off_c, 0, 71, 56
1, 70715, Note_on_c, 0, 78, 87
1, 70717, Note_on_c, 0, 51, 76
1, 70740, Note_off_c, 0, 75, 62
1, 70744, Note_off_c, 0, 54, 62
1, 70780, Control_c, 0, 64, 97
1, 70795, Control_c, 0, 64, 100
1, 70809, Control_c, 0, 64, 100
1, 70812, Note_on_c, 0, 47, 77
1, 70812, Note_on_c, 0, 81, 89
1, 70818, Note_off_c, 0, 51, 63
1, 70819, Note_off_c, 0, 78, 66
1, 70824, Control_c, 0, 64, 99
1, 70839, Control_c, 0, 64, 86
1, 70854, Control_c, 0, 64, 71
1, 70869, Control_c, 0, 64, 58
1, 70883, Control_c, 0, 64, 32
1, 70898, Control_c, 0, 64, 0
1, 70904, Note_on_c, 0, 52, 82
1, 70909, Note_on_c, 0, 80, 88
1, 70912, Note_off_c, 0, 47, 62
1, 70934, Note_off_c, 0, 81, 63
1, 70972, Control_c, 0, 64, 35
1, 70987, Control_c, 0, 64, 52
1, 71001, Note_on_c, 0, 76, 86
1, 71001, Control_c, 0, 64, 69
1, 71008, Note_on_c, 0, 56, 84
1, 71012, Note_off_c, 0, 80, 58
1, 71016, Control_c, 0, 64, 92
1, 71031, Control_c, 0, 64, 103
1, 71043, Note_off_c, 0, 52, 62
1, 71046, Control_c, 0, 64, 107
1, 71061, Control_c, 0, 64, 127
1, 71095, Note_on_c, 0, 71, 82
1, 71101, Note_on_c, 0, 59, 77
1, 71110, Note_off_c, 0, 56, 64
1, 71113, Note_off_c, 0, 76, 58
1, 71162, Note_off_c, 0, 71, 56
1, 71192, Note_on_c, 0, 76, 88
1, 71193, Note_on_c, 0, 56, 78
1, 71203, Note_off_c, 0, 59, 55
1, 71281, Note_on_c, 0, 52, 69
1, 71290, Note_on_c, 0, 80, 84
1, 71305, Note_off_c, 0, 76, 64
1, 71308, Note_off_c, 0, 56, 59
1, 71385, Note_off_c, 0, 52, 65
1, 71386, Note_on_c, 0, 47, 74
1, 71392, Note_on_c, 0, 83, 84
1, 71395, Control_c, 0, 64, 110
1, 71397, Note_off_c, 0, 80, 61
1, 71410, Control_c, 0, 64, 77
1, 71425, Control_c, 0, 64, 59
1, 71440, Control_c, 0, 64, 27
1, 71455, Control_c, 0, 64, 0
1, 71485, Note_off_c, 0, 47, 63
1, 71486, Note_on_c, 0, 81, 91
1, 71493, Note_on_c, 0, 54, 73
1, 71514, Control_c, 0, 64, 25
1, 71529, Control_c, 0, 64, 48
1, 71544, Control_c, 0, 64, 65
1, 71558, Control_c, 0, 64, 97
1, 71570, Note_off_c, 0, 83, 57
1, 71571, Note_off_c, 0, 81, 62
1, 71573, Control_c, 0, 64, 122
1, 71582, Note_on_c, 0, 57, 76
1, 71584, Note_on_c, 0, 78, 88
1, 71588, Control_c, 0, 64, 127
1, 71616, Note_off_c, 0, 54, 63
1, 71639, Note_off_c, 0, 78, 60
1, 71656, Note_off_c, 0, 57, 62
1, 71670, Note_on_c, 0, 59, 70
1, 71673, Note_on_c, 0, 75, 83
1, 71692, Control_c, 0, 64, 104
1, 71706, Control_c, 0, 64, 72
1, 71721, Control_c, 0, 64, 58
1, 71722, Note_off_c, 0, 75, 64
1, 71725, Note_off_c, 0, 59, 56
1, 71736, Control_c, 0, 64, 32
1, 71750, Control_c, 0, 64, 0
1, 71763, Note_on_c, 0, 57, 76
1, 71765, Control_c, 0, 64, 28
1, 71767, Note_on_c, 0, 87, 95
1, 71780, Control_c, 0, 64, 48
1, 71795, Control_c, 0, 64, 65
1, 71810, Control_c, 0, 64, 108
1, 71824, Control_c, 0, 64, 127
1, 71857, Note_on_c, 0, 59, 74
1, 71863, Note_off_c, 0, 57, 61
1, 71872, Note_on_c, 0, 83, 77
1, 71891, Note_off_c, 0, 87, 61
1, 71908, Note_off_c, 0, 59, 62
1, 71964, Note_on_c, 0, 66, 73
1, 71968, Note_on_c, 0, 78, 82
1, 71968, Note_off_c, 0, 83, 60
1, 72003, Note_off_c, 0, 78, 65
1, 72018, Control_c, 0, 64, 82
1, 72021, Note_off_c, 0, 66, 62
1, 72032, Control_c, 0, 64, 53
1, 72047, Control_c, 0, 64, 0
1, 72059, Note_on_c, 0, 88, 105
1, 72061, Note_on_c, 0, 56, 78
1, 72107, Control_c, 0, 64, 33
1, 72129, Control_c, 0, 64, 57
1, 72144, Control_c, 0, 64, 92
1, 72159, Control_c, 0, 64, 127
1, 72168, Note_on_c, 0, 59, 74
1, 72175, Note_on_c, 0, 83, 66
1, 72195, Note_off_c, 0, 88, 62
1, 72204, Note_off_c, 0, 56, 58
1, 72258, Note_on_c, 0, 80, 82
1, 72264, Note_off_c, 0, 83, 65
1, 72265, Note_on_c, 0, 64, 72
1, 72280, Note_off_c, 0, 59, 62
1, 72307, Control_c, 0, 64, 108
1, 72311, Note_off_c, 0, 80, 63
1, 72322, Control_c, 0, 64, 69
1, 72323, Note_off_c, 0, 64, 61
1, 72337, Control_c, 0, 64, 51
1, 72350, Note_on_c, 0, 83, 98
1, 72352, Note_on_c, 0, 52, 84
1, 72352, Control_c, 0, 64, 0
1, 72396, Control_c, 0, 64, 33
1, 72411, Control_c, 0, 64, 53
1, 72426, Control_c, 0, 64, 70
1, 72441, Control_c, 0, 64, 109
1, 72444, Note_on_c, 0, 56, 77
1, 72450, Note_on_c, 0, 80, 86
1, 72469, Note_off_c, 0, 83, 61
1, 72470, Control_c, 0, 64, 110
1, 72474, Note_off_c, 0, 52, 64
1, 72485, Control_c, 0, 64, 127
1, 72534, Note_off_c, 0, 80, 61
1, 72545, Note_off_c, 0, 56, 65
1, 72546, Note_on_c, 0, 76, 75
1, 72547, Note_on_c, 0, 59, 75
1, 72573, Control_c, 0, 64, 114
1, 72588, Control_c, 0, 64, 74
1, 72602, Note_off_c, 0, 76, 63
1, 72603, Control_c, 0, 64, 57
1, 72618, Control_c, 0, 64, 22
1, 72633, Control_c, 0, 64, 0
1, 72639, Note_on_c, 0, 81, 100
1, 72642, Note_on_c, 0, 54, 79
1, 72660, Note_off_c, 0, 59, 35
1, 72662, Control_c, 0, 64, 25
1, 72677, Control_c, 0, 64, 47
1, 72692, Control_c, 0, 64, 63
1, 72706, Control_c, 0, 64, 88
1, 72721, Control_c, 0, 64, 102
1, 72736, Control_c, 0, 64, 103
1, 72737, Note_off_c, 0, 81, 62
1, 72738, Note_on_c, 0, 57, 77
1, 72738, Note_on_c, 0, 78, 84
1, 72747, Note_off_c, 0, 54, 64
1, 72751, Control_c, 0, 64, 107
1, 72766, Control_c, 0, 64, 117
1, 72781, Control_c, 0, 64, 127
1, 72793, Note_off_c, 0, 78, 65
1, 72817, Note_off_c, 0, 57, 60
1, 72827, Note_on_c, 0, 59, 71
1, 72830, Note_on_c, 0, 75, 73
1, 72855, Control_c, 0, 64, 104
1, 72877, Control_c, 0, 64, 77
1, 72892, Control_c, 0, 64, 61
1, 72908, Control_c, 0, 64, 38
1, 72912, Note_off_c, 0, 59, 52
1, 72917, Note_off_c, 0, 75, 61
1, 72923, Control_c, 0, 64, 0
1, 72939, Note_on_c, 0, 57, 69
1, 72943, Note_on_c, 0, 87, 96
1, 72952, Control_c, 0, 64, 28
1, 72967, Control_c, 0, 64, 51
1, 72982, Control_c, 0, 64, 70
1, 72996, Control_c, 0, 64, 127
1, 73033, Note_on_c, 0, 59, 71
1, 73036, Note_off_c, 0, 57, 62
1, 73043, Note_off_c, 0, 87, 65
1, 73047, Note_on_c, 0, 83, 73
1, 73080, Note_off_c, 0, 59, 60
1, 73123, Note_off_c, 0, 83, 59
1, 73130, Note_on_c, 0, 66, 75
1, 73140, Note_on_c, 0, 78, 73
1, 73160, Control_c, 0, 64, 114
1, 73174, Control_c, 0, 64, 76
1, 73180, Note_off_c, 0, 78, 64
1, 73189, Control_c, 0, 64, 61
1, 73196, Note_off_c, 0, 66, 61
1, 73204, Control_c, 0, 64, 31
1, 73219, Control_c, 0, 64, 0
1, 73233, Note_on_c, 0, 56, 71
1, 73235, Note_on_c, 0, 88, 94
1, 73249, Control_c, 0, 64, 8
1, 73264, Control_c, 0, 64, 39
1, 73278, Control_c, 0, 64, 56
1, 73293, Control_c, 0, 64, 72
1, 73308, Control_c, 0, 64, 85
1, 73320, Note_on_c, 0, 83, 75
1, 73335, Note_on_c, 0, 59, 65
1, 73338, Note_off_c, 0, 56, 63
1, 73341, Note_off_c, 0, 88, 62
1, 73367, Control_c, 0, 64, 85
1, 73382, Control_c, 0, 64, 86
1, 73410, Note_off_c, 0, 59, 59
1, 73412, Note_off_c, 0, 83, 65
1, 73419, Note_on_c, 0, 64, 62
1, 73422, Note_on_c, 0, 80, 68
1, 73426, Control_c, 0, 64, 86
1, 73441, Control_c, 0, 64, 79
1, 73456, Control_c, 0, 64, 68
1, 73465, Note_off_c, 0, 64, 59
1, 73470, Control_c, 0, 64, 56
1, 73478, Note_off_c, 0, 80, 61
1, 73485, Control_c, 0, 64, 28
1, 73500, Control_c, 0, 64, 0
1, 73514, Note_on_c, 0, 52, 64
1, 73516, Note_on_c, 0, 83, 92
1, 73544, Control_c, 0, 64, 34
1, 73559, Control_c, 0, 64, 49
1, 73574, Control_c, 0, 64, 62
1, 73589, Control_c, 0, 64, 69
1, 73603, Note_on_c, 0, 56, 61
1, 73604, Control_c, 0, 64, 70
1, 73604, Note_on_c, 0, 80, 75
1, 73607, Note_off_c, 0, 52, 63
1, 73608, Note_off_c, 0, 83, 63
1, 73656, Control_c, 0, 64, 71
1, 73671, Note_off_c, 0, 80, 62
1, 73671, Control_c, 0, 64, 72
1, 73676, Note_off_c, 0, 56, 65
1, 73685, Control_c, 0, 64, 73
1, 73702, Note_on_c, 0, 59, 54
1, 73702, Note_on_c, 0, 76, 57
1, 73716, Control_c, 0, 64, 72
1, 73731, Control_c, 0, 64, 67
1, 73746, Control_c, 0, 64, 59
1, 73760, Control_c, 0, 64, 41
1, 73765, Note_off_c, 0, 59, 48
1, 73769, Note_off_c, 0, 76, 51
1, 73775, Control_c, 0, 64, 0
1, 73802, Note_on_c, 0, 54, 57
1, 73803, Note_on_c, 0, 81, 79
1, 73820, Control_c, 0, 64, 23
1, 73834, Control_c, 0, 64, 40
1, 73849, Control_c, 0, 64, 55
1, 73864, Control_c, 0, 64, 65
1, 73875, Note_off_c, 0, 81, 59
1, 73879, Control_c, 0, 64, 69
1, 73884, Note_off_c, 0, 54, 61
1, 73892, Note_on_c, 0, 78, 69
1, 73894, Note_on_c, 0, 57, 53
1, 73908, Control_c, 0, 64, 69
1, 73923, Control_c, 0, 64, 72
1, 73931, Note_off_c, 0, 78, 64
1, 73938, Control_c, 0, 64, 74
1, 73952, Note_off_c, 0, 57, 57
1, 73952, Control_c, 0, 64, 75
1, 73967, Control_c, 0, 64, 76
1, 73983, Note_on_c, 0, 59, 51
1, 73997, Control_c, 0, 64, 75
1, 73999, Note_on_c, 0, 75, 47
1, 74012, Control_c, 0, 64, 71
1, 74027, Control_c, 0, 64, 64
1, 74042, Control_c, 0, 64, 52
1, 74046, Note_off_c, 0, 59, 51
1, 74054, Note_off_c, 0, 75, 53
1, 74057, Control_c, 0, 64, 16
1, 74072, Control_c, 0, 64, 0
1, 74078, Note_on_c, 0, 87, 80
1, 74081, Note_on_c, 0, 57, 49
1, 74101, Control_c, 0, 64, 35
1, 74116, Control_c, 0, 64, 55
1, 74131, Control_c, 0, 64, 75
1, 74145, Control_c, 0, 64, 107
1, 74153, Note_off_c, 0, 57, 61
1, 74158, Note_on_c, 0, 59, 65
1, 74158, Note_off_c, 0, 87, 64
1, 74160, Control_c, 0, 64, 109
1, 74175, Control_c, 0, 64, 127
1, 74176, Note_on_c, 0, 83, 58
1, 74191, Note_off_c, 0, 59, 61
1, 74245, Note_off_c, 0, 83, 64
1, 74253, Note_on_c, 0, 66, 63
1, 74265, Note_on_c, 0, 78, 56
1, 74279, Note_off_c, 0, 66, 63
1, 74292, Note_off_c, 0, 78, 64
1, 74338, Control_c, 0, 64, 95
1, 74352, Control_c, 0, 64, 67
1, 74358, Note_on_c, 0, 56, 62
1, 74360, Note_on_c, 0, 88, 82
1, 74375, Control_c, 0, 64, 50
1, 74390, Control_c, 0, 64, 0
1, 74414, Note_off_c, 0, 56, 62
1, 74434, Note_on_c, 0, 83, 59
1, 74443, Note_off_c, 0, 88, 62
1, 74448, Note_on_c, 0, 59, 63
1, 74480, Note_off_c, 0, 59, 62
1, 74500, Note_on_c, 0, 80, 65
1, 74506, Note_off_c, 0, 83, 65
1, 74533, Note_on_c, 0, 52, 51
1, 74554, Note_off_c, 0, 80, 59
1, 74567, Note_on_c, 0, 76, 60
1, 74574, Note_off_c, 0, 52, 59
1, 74583, Note_on_c, 0, 59, 58
1, 74593, Note_off_c, 0, 76, 66
1, 74620, Note_off_c, 0, 59, 62
1, 74640, Note_on_c, 0, 81, 70
1, 74648, Note_on_c, 0, 54, 56
1, 74678, Note_off_c, 0, 54, 64
1, 74689, Note_off_c, 0, 81, 57
1, 74704, Note_on_c, 0, 78, 74
1, 74713, Note_on_c, 0, 59, 58
1, 74752, Note_off_c, 0, 59, 58
1, 74763, Note_off_c, 0, 78, 62
1, 74784, Note_on_c, 0, 87, 74
1, 74800, Note_on_c, 0, 57, 52
1, 74841, Note_off_c, 0, 57, 60
1, 74842, Note_off_c, 0, 87, 65
1, 74847, Note_on_c, 0, 59, 55
1, 74869, Note_on_c, 0, 83, 41
1, 74890, Note_off_c, 0, 59, 61
1, 74900, Note_off_c, 0, 83, 59
1, 74909, Note_on_c, 0, 88, 71
1, 74914, Note_on_c, 0, 56, 59
1, 74951, Note_off_c, 0, 56, 62
1, 74981, Note_off_c, 0, 88, 61
1, 74984, Note_on_c, 0, 83, 67
1, 74999, Note_on_c, 0, 59, 49
1, 75027, Note_off_c, 0, 59, 54
1, 75050, Note_off_c, 0, 83, 65
1, 75052, Note_on_c, 0, 80, 63
1, 75068, Note_on_c, 0, 52, 51
1, 75094, Note_off_c, 0, 80, 63
1, 75111, Note_off_c, 0, 52, 61
1, 75115, Note_on_c, 0, 76, 63
1, 75127, Note_on_c, 0, 59, 57
1, 75146, Note_off_c, 0, 76, 63
1, 75171, Note_off_c, 0, 59, 59
1, 75190, Note_on_c, 0, 81, 74
1, 75193, Note_on_c, 0, 54, 54
1, 75226, Note_off_c, 0, 54, 65
1, 75231, Note_off_c, 0, 81, 61
1, 75260, Note_on_c, 0, 78, 70
1, 75262, Note_on_c, 0, 59, 56
1, 75305, Note_off_c, 0, 78, 61
1, 75314, Note_off_c, 0, 59, 53
1, 75329, Note_on_c, 0, 87, 67
1, 75346, Note_on_c, 0, 57, 57
1, 75379, Note_off_c, 0, 87, 59
1, 75395, Note_off_c, 0, 57, 58
1, 75404, Note_on_c, 0, 83, 53
1, 75408, Note_on_c, 0, 59, 53
1, 75449, Note_off_c, 0, 59, 61
1, 75461, Note_off_c, 0, 83, 62
1, 75467, Note_on_c, 0, 56, 60
1, 75470, Note_on_c, 0, 88, 74
1, 75505, Note_off_c, 0, 56, 64
1, 75511, Note_off_c, 0, 88, 62
1, 75539, Note_on_c, 0, 59, 61
1, 75540, Note_on_c, 0, 83, 62
1, 75583, Note_off_c, 0, 83, 58
1, 75591, Note_off_c, 0, 59, 58
1, 75607, Note_on_c, 0, 87, 70
1, 75612, Note_on_c, 0, 57, 62
1, 75649, Note_off_c, 0, 87, 60
1, 75661, Note_off_c, 0, 57, 60
1, 75684, Note_on_c, 0, 59, 49
1, 75685, Note_on_c, 0, 83, 58
1, 75711, Note_off_c, 0, 83, 59
1, 75720, Note_off_c, 0, 59, 63
1, 75735, Note_on_c, 0, 56, 64
1, 75737, Note_on_c, 0, 88, 82
1, 75769, Note_off_c, 0, 56, 64
1, 75784, Note_off_c, 0, 88, 63
1, 75801, Note_on_c, 0, 83, 69
1, 75807, Note_on_c, 0, 59, 60
1, 75859, Note_off_c, 0, 83, 55
1, 75874, Note_off_c, 0, 59, 60
1, 75884, Note_on_c, 0, 57, 68
1, 75887, Note_on_c, 0, 87, 76
1, 75929, Note_off_c, 0, 87, 58
1, 75936, Note_off_c, 0, 57, 59
1, 75959, Note_on_c, 0, 83, 64
1, 75965, Note_on_c, 0, 59, 51
1, 75997, Note_off_c, 0, 83, 61
1, 75999, Note_off_c, 0, 59, 62
1, 76016, Note_on_c, 0, 56, 72
1, 76018, Note_on_c, 0, 88, 89
1, 76048, Note_off_c, 0, 56, 65
1, 76065, Note_off_c, 0, 88, 61
1, 76087, Note_on_c, 0, 59, 68
1, 76093, Note_on_c, 0, 83, 73
1, 76139, Note_off_c, 0, 83, 60
1, 76148, Note_off_c, 0, 59, 60
1, 76161, Note_on_c, 0, 57, 65
1, 76173, Note_on_c, 0, 87, 76
1, 76211, Note_off_c, 0, 87, 61
1, 76217, Note_off_c, 0, 57, 61
1, 76233, Note_on_c, 0, 59, 57
1, 76242, Note_on_c, 0, 83, 59
1, 76272, Note_off_c, 0, 59, 61
1, 76280, Note_off_c, 0, 83, 59
1, 76293, Note_on_c, 0, 56, 77
1, 76295, Note_on_c, 0, 88, 97
1, 76331, Note_off_c, 0, 56, 67
1, 76352, Note_off_c, 0, 88, 63
1, 76367, Note_on_c, 0, 59, 69
1, 76376, Note_on_c, 0, 83, 74
1, 76431, Note_off_c, 0, 59, 62
1, 76442, Note_on_c, 0, 57, 66
1, 76454, Note_on_c, 0, 87, 76
1, 76457, Note_off_c, 0, 83, 65
1, 76498, Note_off_c, 0, 57, 61
1, 76506, Note_off_c, 0, 87, 65
1, 76510, Note_on_c, 0, 59, 58
1, 76524, Note_on_c, 0, 83, 52
1, 76557, Note_off_c, 0, 59, 58
1, 76579, Note_on_c, 0, 88, 96
1, 76585, Note_on_c, 0, 56, 66
1, 76590, Note_off_c, 0, 83, 61
1, 76600, Control_c, 0, 64, 31
1, 76621, Control_c, 0, 64, 51
1, 76629, Note_off_c, 0, 56, 67
1, 76636, Note_on_c, 0, 59, 63
1, 76636, Control_c, 0, 64, 71
1, 76651, Control_c, 0, 64, 127
1, 76658, Note_off_c, 0, 59, 66
1, 76663, Note_on_c, 0, 83, 72
1, 76666, Note_off_c, 0, 88, 66
1, 76728, Note_off_c, 0, 83, 56
1, 76738, Note_on_c, 0, 44, 78
1, 76740, Control_c, 0, 64, 96
1, 76749, Note_on_c, 0, 86, 87
1, 76755, Control_c, 0, 64, 90
1, 76769, Control_c, 0, 64, 83
1, 76785, Control_c, 0, 64, 73
1, 76800, Control_c, 0, 64, 63
1, 76805, Note_off_c, 0, 86, 64
1, 76811, Note_on_c, 0, 52, 76
1, 76813, Note_off_c, 0, 44, 59
1, 76815, Note_on_c, 0, 83, 75
1, 76815, Control_c, 0, 64, 48
1, 76829, Control_c, 0, 64, 0
1, 76846, Note_off_c, 0, 52, 69
1, 76880, Note_on_c, 0, 44, 78
1, 76882, Note_off_c, 0, 83, 60
1, 76886, Note_on_c, 0, 86, 93
1, 76948, Note_off_c, 0, 44, 61
1, 76949, Note_off_c, 0, 86, 62
1, 76957, Note_on_c, 0, 83, 81
1, 76962, Note_on_c, 0, 52, 75
1, 76996, Note_off_c, 0, 52, 65
1, 77011, Note_off_c, 0, 83, 58
1, 77030, Note_on_c, 0, 44, 75
1, 77031, Note_on_c, 0, 86, 95
1, 77088, Note_off_c, 0, 86, 61
1, 77092, Note_off_c, 0, 44, 60
1, 77099, Note_on_c, 0, 52, 76
1, 77100, Note_on_c, 0, 83, 87
1, 77142, Note_off_c, 0, 52, 67
1, 77157, Note_off_c, 0, 83, 54
1, 77164, Note_on_c, 0, 44, 79
1, 77170, Note_on_c, 0, 86, 96
1, 77229, Note_off_c, 0, 44, 60
1, 77231, Note_off_c, 0, 86, 62
1, 77240, Note_on_c, 0, 52, 84
1, 77243, Note_on_c, 0, 83, 88
1, 77282, Note_off_c, 0, 52, 67
1, 77291, Note_off_c, 0, 83, 60
1, 77309, Note_on_c, 0, 44, 80
1, 77313, Note_on_c, 0, 86, 99
1, 77381, Note_off_c, 0, 86, 61
1, 77382, Note_off_c, 0, 44, 60
1, 77387, Note_on_c, 0, 83, 87
1, 77388, Note_on_c, 0, 52, 82
1, 77434, Note_off_c, 0, 52, 67
1, 77436, Note_off_c, 0, 83, 62
1, 77461, Note_on_c, 0, 86, 96
1, 77464, Note_on_c, 0, 44, 81
1, 77524, Note_off_c, 0, 86, 62
1, 77527, Note_off_c, 0, 44, 61
1, 77531, Note_on_c, 0, 83, 84
1, 77536, Note_on_c, 0, 52, 83
1, 77579, Note_off_c, 0, 52, 66
1, 77582, Note_off_c, 0, 83, 61
1, 77606, Note_on_c, 0, 86, 92
1, 77612, Note_on_c, 0, 44, 78
1, 77667, Note_off_c, 0, 86, 62
1, 77673, Note_on_c, 0, 83, 83
1, 77680, Note_on_c, 0, 52, 83
1, 77687, Note_off_c, 0, 44, 60
1, 77712, Note_off_c, 0, 83, 66
1, 77727, Note_off_c, 0, 52, 66
1, 77753, Note_on_c, 0, 86, 109
1, 77756, Note_on_c, 0, 44, 91
1, 77787, Control_c, 0, 64, 39
1, 77801, Control_c, 0, 64, 75
1, 77816, Control_c, 0, 64, 127
1, 77826, Note_on_c, 0, 52, 92
1, 77845, Note_off_c, 0, 44, 61
1, 77881, Note_off_c, 0, 52, 67
1, 77915, Note_on_c, 0, 44, 74
1, 77926, Note_on_c, 0, 85, 85
1, 77951, Note_off_c, 0, 86, 58
1, 77982, Note_on_c, 0, 52, 88
1, 77999, Note_off_c, 0, 44, 61
1, 78001, Note_on_c, 0, 83, 91
1, 78024, Control_c, 0, 64, 81
1, 78027, Note_off_c, 0, 85, 63
1, 78037, Note_off_c, 0, 52, 66
1, 78039, Control_c, 0, 64, 64
1, 78054, Control_c, 0, 64, 47
1, 78063, Note_on_c, 0, 44, 72
1, 78068, Control_c, 0, 64, 0
1, 78072, Note_off_c, 0, 83, 68
1, 78074, Note_on_c, 0, 81, 85
1, 78129, Note_off_c, 0, 44, 59
1, 78135, Note_off_c, 0, 81, 61
1, 78141, Note_on_c, 0, 52, 83
1, 78159, Note_on_c, 0, 80, 90
1, 78193, Note_off_c, 0, 52, 68
1, 78220, Note_on_c, 0, 44, 75
1, 78234, Note_on_c, 0, 78, 87
1, 78264, Note_off_c, 0, 80, 63
1, 78286, Note_off_c, 0, 44, 60
1, 78301, Note_on_c, 0, 52, 79
1, 78312, Note_on_c, 0, 76, 88
1, 78336, Note_off_c, 0, 78, 64
1, 78352, Note_off_c, 0, 52, 65
1, 78385, Note_off_c, 0, 76, 66
1, 78387, Note_on_c, 0, 44, 75
1, 78388, Note_on_c, 0, 74, 83
1, 78439, Note_off_c, 0, 74, 63
1, 78439, Note_off_c, 0, 44, 59
1, 78465, Note_on_c, 0, 52, 73
1, 78467, Note_on_c, 0, 73, 81
1, 78510, Note_off_c, 0, 52, 63
1, 78537, Note_on_c, 0, 71, 77
1, 78545, Note_on_c, 0, 44, 70
1, 78566, Note_off_c, 0, 73, 63
1, 78588, Note_off_c, 0, 44, 61
1, 78604, Note_on_c, 0, 69, 79
1, 78604, Note_off_c, 0, 71, 66
1, 78621, Note_on_c, 0, 52, 72
1, 78651, Note_off_c, 0, 52, 69
1, 78654, Note_off_c, 0, 69, 64
1, 78683, Note_on_c, 0, 68, 84
1, 78686, Note_on_c, 0, 44, 72
1, 78728, Note_off_c, 0, 44, 60
1, 78750, Note_on_c, 0, 66, 82
1, 78758, Note_on_c, 0, 52, 72
1, 78782, Note_off_c, 0, 68, 60
1, 78786, Note_off_c, 0, 52, 68
1, 78817, Note_on_c, 0, 44, 68
1, 78823, Note_on_c, 0, 64, 72
1, 78835, Note_off_c, 0, 66, 61
1, 78881, Note_on_c, 0, 52, 74
1, 78890, Note_off_c, 0, 64, 63
1, 78896, Note_off_c, 0, 44, 56
1, 78900, Note_on_c, 0, 62, 74
1, 78909, Note_off_c, 0, 52, 70
1, 78979, Note_on_c, 0, 61, 83
1, 78981, Note_on_c, 0, 52, 93
1, 78984, Note_on_c, 0, 45, 80
1, 78985, Note_on_c, 0, 49, 84
1, 78987, Control_c, 0, 64, 41
1, 78990, Note_off_c, 0, 62, 61
1, 78999, Note_off_c, 0, 52, 75
1, 79002, Control_c, 0, 64, 57
1, 79008, Note_off_c, 0, 45, 67
1, 79008, Note_off_c, 0, 49, 71
1, 79016, Control_c, 0, 64, 68
1, 79031, Control_c, 0, 64, 70
1, 79046, Control_c, 0, 64, 67
1, 79058, Note_on_c, 0, 63, 70
1, 79061, Control_c, 0, 64, 59
1, 79071, Note_off_c, 0, 61, 61
1, 79075, Control_c, 0, 64, 26
1, 79090, Control_c, 0, 64, 0
1, 79129, Note_on_c, 0, 45, 63
1, 79133, Note_on_c, 0, 64, 70
1, 79134, Note_on_c, 0, 52, 69
1, 79134, Note_off_c, 0, 63, 64
1, 79139, Note_on_c, 0, 49, 59
1, 79152, Note_off_c, 0, 52, 66
1, 79154, Note_off_c, 0, 45, 65
1, 79158, Note_off_c, 0, 49, 66
1, 79211, Note_on_c, 0, 63, 74
1, 79218, Note_off_c, 0, 64, 63
1, 79264, Note_off_c, 0, 63, 64
1, 79295, Note_on_c, 0, 64, 68
1, 79369, Note_off_c, 0, 64, 50
1, 79372, Note_on_c, 0, 68, 80
1, 79446, Note_on_c, 0, 45, 58
1, 79448, Note_off_c, 0, 68, 60
1, 79449, Note_on_c, 0, 69, 78
1, 79450, Note_on_c, 0, 49, 57
1, 79451, Note_on_c, 0, 52, 54
1, 79472, Note_off_c, 0, 45, 58
1, 79476, Note_off_c, 0, 49, 60
1, 79479, Note_off_c, 0, 52, 36
1, 79524, Note_off_c, 0, 69, 65
1, 79525, Note_on_c, 0, 68, 77
1, 79593, Note_off_c, 0, 68, 59
1, 79601, Note_on_c, 0, 69, 83
1, 79607, Note_on_c, 0, 52, 91
1, 79610, Note_on_c, 0, 45, 74
1, 79610, Note_on_c, 0, 49, 75
1, 79632, Control_c, 0, 64, 35
1, 79637, Note_off_c, 0, 52, 73
1, 79643, Note_off_c, 0, 45, 64
1, 79643, Note_off_c, 0, 49, 68
1, 79646, Control_c, 0, 64, 54
1, 79661, Control_c, 0, 64, 64
1, 79676, Control_c, 0, 64, 68
1, 79689, Note_on_c, 0, 72, 81
1, 79693, Note_off_c, 0, 69, 61
1, 79706, Control_c, 0, 64, 65
1, 79721, Control_c, 0, 64, 57
1, 79735, Control_c, 0, 64, 32
1, 79750, Control_c, 0, 64, 0
1, 79771, Note_off_c, 0, 72, 61
1, 79772, Note_on_c, 0, 73, 80
1, 79776, Note_on_c, 0, 52, 76
1, 79777, Note_on_c, 0, 49, 65
1, 79779, Note_on_c, 0, 45, 56
1, 79796, Note_off_c, 0, 52, 66
1, 79802, Note_off_c, 0, 45, 60
1, 79803, Note_off_c, 0, 49, 65
1, 79836, Note_off_c, 0, 73, 64
1, 79860, Note_on_c, 0, 72, 72
1, 79932, Note_on_c, 0, 73, 77
1, 79938, Note_off_c, 0, 72, 58
1, 80006, Note_on_c, 0, 75, 70
1, 80011, Note_off_c, 0, 73, 61
1, 80074, Note_off_c, 0, 75, 61
1, 80075, Note_on_c, 0, 76, 75
1, 80088, Note_on_c, 0, 52, 68
1, 80093, Note_on_c, 0, 49, 64
1, 80097, Note_on_c, 0, 45, 49
1, 80108, Note_off_c, 0, 52, 66
1, 80121, Note_off_c, 0, 49, 67
1, 80126, Note_off_c, 0, 45, 56
1, 80151, Note_on_c, 0, 75, 77
1, 80170, Note_off_c, 0, 76, 65
1, 80215, Note_off_c, 0, 75, 61
1, 80230, Note_on_c, 0, 76, 85
1, 80233, Note_on_c, 0, 52, 94
1, 80235, Note_on_c, 0, 45, 77
1, 80239, Note_on_c, 0, 49, 82
1, 80255, Control_c, 0, 64, 37
1, 80261, Note_off_c, 0, 52, 66
1, 80264, Note_off_c, 0, 49, 69
1, 80265, Note_off_c, 0, 45, 67
1, 80269, Control_c, 0, 64, 55
1, 80284, Control_c, 0, 64, 68
1, 80299, Control_c, 0, 64, 70
1, 80314, Control_c, 0, 64, 70
1, 80323, Note_on_c, 0, 80, 82
1, 80329, Note_off_c, 0, 76, 59
1, 80329, Control_c, 0, 64, 67
1, 80344, Control_c, 0, 64, 61
1, 80358, Control_c, 0, 64, 45
1, 80381, Control_c, 0, 64, 0
1, 80398, Note_on_c, 0, 52, 81
1, 80409, Note_on_c, 0, 49, 67
1, 80410, Note_on_c, 0, 45, 56
1, 80417, Note_on_c, 0, 81, 79
1, 80417, Note_off_c, 0, 80, 61
1, 80420, Note_off_c, 0, 52, 74
1, 80430, Note_off_c, 0, 49, 67
1, 80436, Note_off_c, 0, 45, 60
1, 80497, Note_off_c, 0, 81, 63
1, 80498, Note_on_c, 0, 80, 76
1, 80562, Note_off_c, 0, 80, 63
1, 80567, Note_on_c, 0, 81, 76
1, 80642, Note_off_c, 0, 81, 50
1, 80645, Note_on_c, 0, 84, 83
1, 80710, Note_off_c, 0, 84, 62
1, 80713, Note_on_c, 0, 49, 66
1, 80713, Note_on_c, 0, 85, 78
1, 80716, Note_on_c, 0, 45, 54
1, 80716, Note_on_c, 0, 52, 69
1, 80736, Note_off_c, 0, 52, 65
1, 80741, Note_off_c, 0, 49, 67
1, 80742, Note_off_c, 0, 45, 59
1, 80770, Note_off_c, 0, 85, 66
1, 80787, Note_on_c, 0, 84, 76
1, 80868, Note_on_c, 0, 52, 99
1, 80868, Note_on_c, 0, 85, 87
1, 80870, Control_c, 0, 64, 31
1, 80873, Note_on_c, 0, 45, 75
1, 80875, Note_on_c, 0, 49, 83
1, 80877, Note_off_c, 0, 84, 59
1, 80886, Control_c, 0, 64, 59
1, 80892, Note_off_c, 0, 52, 70
1, 80899, Note_off_c, 0, 45, 66
1, 80899, Note_off_c, 0, 49, 71
1, 80901, Control_c, 0, 64, 107
1, 80916, Control_c, 0, 64, 127
1, 80950, Note_on_c, 0, 87, 86
1, 80975, Note_off_c, 0, 85, 63
1, 80975, Control_c, 0, 64, 81
1, 80990, Control_c, 0, 64, 63
1, 81005, Control_c, 0, 64, 40
1, 81017, Note_on_c, 0, 52, 88
1, 81019, Control_c, 0, 64, 0
1, 81026, Note_on_c, 0, 45, 49
1, 81032, Note_on_c, 0, 49, 62
1, 81037, Note_on_c, 0, 88, 86
1, 81037, Note_off_c, 0, 52, 75
1, 81044, Note_off_c, 0, 87, 65
1, 81046, Note_off_c, 0, 45, 67
1, 81056, Note_off_c, 0, 49, 65
1, 81117, Note_on_c, 0, 87, 81
1, 81123, Note_off_c, 0, 88, 66
1, 81192, Note_on_c, 0, 88, 82
1, 81196, Note_off_c, 0, 87, 65
1, 81263, Note_on_c, 0, 87, 87
1, 81285, Note_off_c, 0, 88, 63
1, 81330, Note_on_c, 0, 85, 77
1, 81331, Note_on_c, 0, 52, 76
1, 81335, Note_on_c, 0, 49, 59
1, 81342, Note_on_c, 0, 45, 51
1, 81344, Note_off_c, 0, 87, 67
1, 81355, Note_off_c, 0, 52, 70
1, 81363, Note_off_c, 0, 49, 67
1, 81370, Note_off_c, 0, 45, 57
1, 81399, Note_on_c, 0, 84, 81
1, 81400, Note_off_c, 0, 85, 64
1, 81470, Note_on_c, 0, 52, 76
1, 81471, Note_on_c, 0, 54, 91
1, 81477, Note_on_c, 0, 46, 75
1, 81478, Note_on_c, 0, 49, 68
1, 81479, Note_on_c, 0, 85, 97
1, 81485, Note_off_c, 0, 84, 59
1, 81499, Control_c, 0, 64, 11
1, 81514, Control_c, 0, 64, 42
1, 81521, Note_off_c, 0, 46, 60
1, 81529, Control_c, 0, 64, 63
1, 81536, Note_off_c, 0, 54, 63
1, 81538, Note_off_c, 0, 49, 60
1, 81543, Control_c, 0, 64, 106
1, 81544, Note_off_c, 0, 52, 65
1, 81553, Note_on_c, 0, 84, 80
1, 81558, Control_c, 0, 64, 127
1, 81560, Note_off_c, 0, 85, 61
1, 81632, Control_c, 0, 64, 101
1, 81638, Note_on_c, 0, 46, 60
1, 81639, Note_on_c, 0, 85, 90
1, 81640, Note_on_c, 0, 54, 64
1, 81647, Note_on_c, 0, 52, 65
1, 81647, Control_c, 0, 64, 78
1, 81655, Note_on_c, 0, 49, 61
1, 81661, Control_c, 0, 64, 65
1, 81664, Note_off_c, 0, 84, 64
1, 81673, Note_off_c, 0, 54, 65
1, 81674, Note_off_c, 0, 52, 67
1, 81676, Note_off_c, 0, 46, 64
1, 81676, Control_c, 0, 64, 50
1, 81688, Note_off_c, 0, 49, 61
1, 81692, Control_c, 0, 64, 0
1, 81720, Note_on_c, 0, 87, 75
1, 81741, Note_off_c, 0, 85, 63
1, 81789, Note_on_c, 0, 88, 88
1, 81803, Note_off_c, 0, 87, 64
1, 81871, Note_on_c, 0, 87, 76
1, 81898, Note_off_c, 0, 88, 66
1, 81942, Note_on_c, 0, 54, 69
1, 81949, Note_on_c, 0, 85, 78
1, 81950, Note_on_c, 0, 49, 58
1, 81951, Note_on_c, 0, 46, 58
1, 81951, Note_on_c, 0, 52, 60
1, 81970, Note_off_c, 0, 87, 66
1, 81980, Note_off_c, 0, 54, 59
1, 81988, Note_off_c, 0, 46, 63
1, 81994, Note_off_c, 0, 49, 65
1, 81994, Note_off_c, 0, 52, 61
1, 82013, Note_off_c, 0, 85, 65
1, 82015, Note_on_c, 0, 84, 78
1, 82091, Note_on_c, 0, 85, 98
1, 82093, Note_on_c, 0, 52, 91
1, 82093, Note_on_c, 0, 54, 93
1, 82098, Note_on_c, 0, 46, 77
1, 82099, Control_c, 0, 64, 48
1, 82101, Note_on_c, 0, 49, 74
1, 82105, Note_off_c, 0, 84, 61
1, 82114, Control_c, 0, 64, 73
1, 82129, Control_c, 0, 64, 127
1, 82159, Note_off_c, 0, 46, 63
1, 82167, Note_on_c, 0, 84, 78
1, 82171, Note_off_c, 0, 49, 65
1, 82171, Note_off_c, 0, 54, 62
1, 82174, Note_off_c, 0, 85, 64
1, 82180, Note_off_c, 0, 52, 63
1, 82248, Control_c, 0, 64, 75
1, 82257, Note_on_c, 0, 85, 90
1, 82261, Note_on_c, 0, 54, 74
1, 82263, Control_c, 0, 64, 58
1, 82271, Note_on_c, 0, 52, 66
1, 82273, Note_on_c, 0, 46, 63
1, 82278, Control_c, 0, 64, 25
1, 82284, Note_off_c, 0, 84, 64
1, 82285, Note_off_c, 0, 54, 61
1, 82286, Note_on_c, 0, 49, 55
1, 82292, Control_c, 0, 64, 0
1, 82298, Note_off_c, 0, 52, 68
1, 82304, Note_off_c, 0, 49, 69
1, 82305, Note_off_c, 0, 46, 65
1, 82335, Note_on_c, 0, 87, 78
1, 82359, Note_off_c, 0, 85, 62
1, 82410, Note_on_c, 0, 88, 90
1, 82426, Note_off_c, 0, 87, 64
1, 82489, Note_on_c, 0, 87, 79
1, 82515, Note_off_c, 0, 88, 65
1, 82562, Note_on_c, 0, 54, 67
1, 82566, Note_on_c, 0, 52, 65
1, 82567, Note_on_c, 0, 85, 84
1, 82567, Note_on_c, 0, 49, 58
1, 82570, Note_on_c, 0, 46, 54
1, 82586, Note_off_c, 0, 87, 67
1, 82612, Note_off_c, 0, 54, 60
1, 82622, Note_off_c, 0, 46, 60
1, 82630, Note_off_c, 0, 49, 60
1, 82641, Note_off_c, 0, 52, 56
1, 82644, Note_off_c, 0, 85, 65
1, 82645, Note_on_c, 0, 84, 80
1, 82717, Note_on_c, 0, 54, 90
1, 82719, Note_on_c, 0, 46, 77
1, 82719, Note_on_c, 0, 85, 99
1, 82722, Note_on_c, 0, 52, 86
1, 82724, Note_off_c, 0, 84, 68
1, 82729, Note_on_c, 0, 49, 81
1, 82730, Control_c, 0, 64, 17
1, 82745, Control_c, 0, 64, 49
1, 82760, Control_c, 0, 64, 79
1, 82775, Control_c, 0, 64, 127
1, 82779, Note_off_c, 0, 46, 64
1, 82795, Note_off_c, 0, 49, 64
1, 82797, Note_off_c, 0, 54, 62
1, 82799, Note_on_c, 0, 84, 82
1, 82804, Note_off_c, 0, 85, 63
1, 82806, Note_off_c, 0, 52, 64
1, 82883, Note_on_c, 0, 85, 91
1, 82885, Note_on_c, 0, 54, 79
1, 82894, Note_on_c, 0, 46, 65
1, 82895, Note_on_c, 0, 52, 71
1, 82902, Note_on_c, 0, 49, 68
1, 82912, Note_off_c, 0, 84, 60
1, 82919, Note_off_c, 0, 54, 53
1, 82922, Control_c, 0, 64, 86
1, 82929, Note_off_c, 0, 52, 64
1, 82932, Note_off_c, 0, 46, 65
1, 82932, Note_off_c, 0, 49, 66
1, 82937, Control_c, 0, 64, 62
1, 82952, Control_c, 0, 64, 21
1, 82967, Control_c, 0, 64, 0
1, 82970, Note_on_c, 0, 87, 82
1, 82991, Note_off_c, 0, 85, 64
1, 83038, Note_on_c, 0, 88, 87
1, 83057, Note_off_c, 0, 87, 63
1, 83116, Note_on_c, 0, 87, 80
1, 83143, Note_off_c, 0, 88, 65
1, 83180, Note_on_c, 0, 54, 72
1, 83187, Note_on_c, 0, 85, 83
1, 83190, Note_on_c, 0, 52, 63
1, 83190, Note_on_c, 0, 49, 59
1, 83192, Note_on_c, 0, 46, 57
1, 83208, Note_off_c, 0, 87, 67
1, 83221, Note_off_c, 0, 54, 57
1, 83242, Note_off_c, 0, 46, 60
1, 83242, Note_off_c, 0, 49, 59
1, 83247, Note_off_c, 0, 52, 53
1, 83258, Note_on_c, 0, 84, 80
1, 83258, Note_off_c, 0, 85, 65
1, 83331, Note_on_c, 0, 46, 74
1, 83333, Note_on_c, 0, 54, 88
1, 83335, Note_on_c, 0, 85, 98
1, 83339, Note_on_c, 0, 52, 84
1, 83347, Note_on_c, 0, 49, 76
1, 83347, Note_off_c, 0, 84, 62
1, 83353, Control_c, 0, 64, 25
1, 83375, Control_c, 0, 64, 51
1, 83390, Control_c, 0, 64, 70
1, 83399, Note_off_c, 0, 46, 64
1, 83405, Control_c, 0, 64, 127
1, 83417, Note_off_c, 0, 49, 62
1, 83417, Note_off_c, 0, 54, 62
1, 83418, Note_on_c, 0, 84, 82
1, 83422, Note_off_c, 0, 85, 65
1, 83425, Note_off_c, 0, 52, 64
1, 83503, Note_on_c, 0, 54, 86
1, 83506, Note_on_c, 0, 85, 92
1, 83512, Note_on_c, 0, 52, 76
1, 83512, Note_on_c, 0, 46, 71
1, 83521, Note_on_c, 0, 49, 69
1, 83530, Note_off_c, 0, 84, 64
1, 83538, Note_off_c, 0, 54, 59
1, 83540, Note_off_c, 0, 52, 63
1, 83549, Note_off_c, 0, 46, 66
1, 83551, Note_off_c, 0, 49, 66
1, 83554, Control_c, 0, 64, 92
1, 83569, Control_c, 0, 64, 68
1, 83581, Note_on_c, 0, 87, 83
1, 83584, Control_c, 0, 64, 52
1, 83599, Control_c, 0, 64, 0
1, 83608, Note_off_c, 0, 85, 63
1, 83661, Note_on_c, 0, 88, 84
1, 83672, Note_off_c, 0, 87, 64
1, 83732, Note_off_c, 0, 88, 65
1, 83735, Note_on_c, 0, 87, 74
1, 83798, Note_on_c, 0, 54, 70
1, 83801, Note_on_c, 0, 88, 75
1, 83805, Note_on_c, 0, 52, 54
1, 83815, Note_on_c, 0, 46, 44
1, 83828, Note_on_c, 0, 49, 28
1, 83831, Note_off_c, 0, 87, 63
1, 83848, Note_off_c, 0, 52, 63
1, 83854, Note_off_c, 0, 46, 60
1, 83866, Note_on_c, 0, 85, 70
1, 83871, Note_off_c, 0, 49, 43
1, 83873, Note_off_c, 0, 88, 67
1, 83882, Note_off_c, 0, 54, 49
1, 83887, Note_off_c, 0, 85, 69
1, 83953, Control_c, 0, 64, 32
1, 83959, Note_on_c, 0, 47, 80
1, 83962, Note_on_c, 0, 71, 100
1, 83963, Note_on_c, 0, 83, 103
1, 83968, Control_c, 0, 64, 60
1, 83983, Control_c, 0, 64, 127
1, 83987, Note_off_c, 0, 71, 65
1, 83993, Note_off_c, 0, 83, 70
1, 84051, Note_on_c, 0, 52, 66
1, 84134, Note_on_c, 0, 56, 78
1, 84135, Note_on_c, 0, 83, 87
1, 84135, Note_on_c, 0, 71, 89
1, 84151, Note_off_c, 0, 83, 76
1, 84153, Note_off_c, 0, 71, 75
1, 84155, Control_c, 0, 64, 91
1, 84158, Note_off_c, 0, 47, 53
1, 84167, Note_off_c, 0, 52, 66
1, 84169, Control_c, 0, 64, 65
1, 84184, Control_c, 0, 64, 44
1, 84197, Note_on_c, 0, 59, 64
1, 84199, Control_c, 0, 64, 0
1, 84215, Note_off_c, 0, 56, 62
1, 84261, Note_off_c, 0, 59, 59
1, 84282, Note_on_c, 0, 47, 74
1, 84282, Note_on_c, 0, 80, 94
1, 84283, Note_on_c, 0, 68, 93
1, 84298, Note_off_c, 0, 80, 74
1, 84301, Note_off_c, 0, 68, 71
1, 84365, Note_on_c, 0, 52, 62
1, 84430, Note_on_c, 0, 56, 73
1, 84433, Note_on_c, 0, 76, 98
1, 84436, Note_on_c, 0, 64, 83
1, 84452, Note_off_c, 0, 47, 39
1, 84454, Note_off_c, 0, 64, 69
1, 84460, Note_off_c, 0, 76, 66
1, 84462, Note_off_c, 0, 52, 65
1, 84493, Note_on_c, 0, 59, 58
1, 84512, Note_off_c, 0, 56, 59
1, 84565, Note_off_c, 0, 59, 53
1, 84583, Control_c, 0, 64, 46
1, 84585, Note_on_c, 0, 76, 105
1, 84585, Note_on_c, 0, 88, 107
1, 84586, Note_on_c, 0, 47, 82
1, 84598, Control_c, 0, 64, 64
1, 84610, Note_off_c, 0, 76, 65
1, 84612, Control_c, 0, 64, 127
1, 84615, Note_off_c, 0, 88, 69
1, 84675, Note_on_c, 0, 52, 76
1, 84746, Note_on_c, 0, 76, 98
1, 84746, Note_on_c, 0, 88, 100
1, 84751, Note_on_c, 0, 56, 79
1, 84762, Note_off_c, 0, 76, 73
1, 84776, Control_c, 0, 64, 88
1, 84776, Note_off_c, 0, 47, 61
1, 84779, Note_off_c, 0, 88, 63
1, 84787, Note_off_c, 0, 52, 64
1, 84791, Control_c, 0, 64, 63
1, 84805, Control_c, 0, 64, 41
1, 84812, Note_on_c, 0, 59, 62
1, 84820, Control_c, 0, 64, 0
1, 84825, Note_off_c, 0, 56, 64
1, 84883, Note_off_c, 0, 59, 58
1, 84909, Note_on_c, 0, 47, 75
1, 84910, Note_on_c, 0, 83, 91
1, 84913, Note_on_c, 0, 71, 84
1, 84927, Note_off_c, 0, 83, 76
1, 84931, Note_off_c, 0, 71, 75
1, 84986, Note_on_c, 0, 52, 63
1, 85059, Note_on_c, 0, 68, 95
1, 85060, Note_on_c, 0, 56, 75
1, 85060, Note_on_c, 0, 80, 96
1, 85077, Note_off_c, 0, 68, 71
1, 85077, Note_off_c, 0, 80, 73
1, 85081, Note_off_c, 0, 47, 56
1, 85091, Note_off_c, 0, 52, 66
1, 85125, Note_on_c, 0, 59, 63
1, 85135, Note_off_c, 0, 56, 65
1, 85177, Note_off_c, 0, 59, 54
1, 85210, Note_on_c, 0, 47, 81
1, 85217, Note_on_c, 0, 71, 101
1, 85217, Note_on_c, 0, 83, 100
1, 85228, Control_c, 0, 64, 42
1, 85235, Note_on_c, 0, 81, 71
1, 85236, Note_off_c, 0, 81, 127
1, 85237, Note_off_c, 0, 71, 69
1, 85243, Control_c, 0, 64, 61
1, 85245, Note_off_c, 0, 83, 67
1, 85258, Control_c, 0, 64, 110
1, 85273, Control_c, 0, 64, 127
1, 85299, Note_on_c, 0, 52, 66
1, 85373, Note_on_c, 0, 83, 94
1, 85375, Note_on_c, 0, 56, 79
1, 85377, Note_on_c, 0, 71, 93
1, 85384, Note_off_c, 0, 47, 58
1, 85395, Note_off_c, 0, 71, 73
1, 85402, Note_off_c, 0, 83, 62
1, 85406, Control_c, 0, 64, 109
1, 85410, Note_off_c, 0, 52, 64
1, 85421, Control_c, 0, 64, 73
1, 85429, Note_on_c, 0, 59, 64
1, 85435, Control_c, 0, 64, 51
1, 85447, Note_off_c, 0, 56, 64
1, 85450, Control_c, 0, 64, 0
1, 85483, Note_off_c, 0, 59, 53
1, 85522, Note_on_c, 0, 47, 69
1, 85530, Note_on_c, 0, 68, 89
1, 85530, Note_on_c, 0, 80, 99
1, 85549, Note_off_c, 0, 68, 70
1, 85551, Note_off_c, 0, 80, 67
1, 85611, Note_on_c, 0, 52, 65
1, 85664, Note_on_c, 0, 56, 74
1, 85686, Note_off_c, 0, 47, 38
1, 85691, Note_on_c, 0, 76, 94
1, 85692, Note_on_c, 0, 64, 87
1, 85712, Note_off_c, 0, 64, 71
1, 85721, Note_off_c, 0, 52, 61
1, 85722, Note_off_c, 0, 76, 64
1, 85730, Note_on_c, 0, 59, 56
1, 85734, Note_off_c, 0, 56, 65
1, 85757, Note_off_c, 0, 59, 62
1, 85843, Note_on_c, 0, 56, 94
1, 85844, Control_c, 0, 64, 45
1, 85845, Note_on_c, 0, 76, 104
1, 85845, Note_on_c, 0, 88, 103
1, 85858, Control_c, 0, 64, 65
1, 85861, Note_off_c, 0, 76, 70
1, 85873, Note_off_c, 0, 56, 65
1, 85873, Control_c, 0, 64, 127
1, 85874, Note_off_c, 0, 88, 67
1, 85992, Note_on_c, 0, 56, 85
1, 85992, Control_c, 0, 64, 86
1, 85999, Note_on_c, 0, 76, 98
1, 86000, Note_on_c, 0, 88, 100
1, 86007, Control_c, 0, 64, 63
1, 86022, Note_off_c, 0, 76, 67
1, 86022, Control_c, 0, 64, 29
1, 86022, Note_off_c, 0, 56, 65
1, 86023, Note_off_c, 0, 88, 65
1, 86037, Control_c, 0, 64, 0
1, 86156, Note_on_c, 0, 83, 91
1, 86159, Note_on_c, 0, 52, 75
1, 86161, Note_on_c, 0, 71, 84
1, 86176, Note_off_c, 0, 83, 67
1, 86178, Note_off_c, 0, 71, 75
1, 86189, Note_off_c, 0, 52, 67
1, 86309, Note_on_c, 0, 80, 90
1, 86310, Note_on_c, 0, 68, 85
1, 86312, Note_on_c, 0, 47, 86
1, 86329, Note_off_c, 0, 68, 70
1, 86337, Note_off_c, 0, 47, 69
1, 86360, Note_off_c, 0, 80, 61
1, 86468, Note_on_c, 0, 59, 98
1, 86499, Note_off_c, 0, 59, 67
1, 86544, Note_on_c, 0, 80, 74
1, 86610, Note_off_c, 0, 80, 62
1, 86615, Note_on_c, 0, 83, 73
1, 86616, Note_on_c, 0, 56, 71
1, 86643, Note_off_c, 0, 56, 68
1, 86682, Note_off_c, 0, 83, 65
1, 86687, Note_on_c, 0, 80, 72
1, 86757, Note_on_c, 0, 64, 69
1, 86759, Note_on_c, 0, 83, 73
1, 86759, Note_off_c, 0, 80, 62
1, 86785, Note_off_c, 0, 64, 66
1, 86824, Note_off_c, 0, 83, 64
1, 86842, Note_on_c, 0, 80, 69
1, 86907, Note_off_c, 0, 80, 62
1, 86912, Note_on_c, 0, 59, 58
1, 86912, Note_on_c, 0, 83, 64
1, 86932, Note_off_c, 0, 59, 60
1, 86973, Note_off_c, 0, 83, 65
1, 86982, Note_on_c, 0, 80, 70
1, 87054, Note_off_c, 0, 80, 62
1, 87057, Note_on_c, 0, 68, 65
1, 87061, Note_on_c, 0, 83, 66
1, 87076, Note_off_c, 0, 68, 62
1, 87128, Note_off_c, 0, 83, 66
1, 87147, Note_on_c, 0, 80, 62
1, 87206, Note_off_c, 0, 80, 61
1, 87210, Note_on_c, 0, 64, 70
1, 87213, Note_on_c, 0, 83, 68
1, 87235, Note_off_c, 0, 64, 67
1, 87270, Note_off_c, 0, 83, 63
1, 87292, Note_on_c, 0, 80, 67
1, 87358, Note_off_c, 0, 80, 60
1, 87366, Note_on_c, 0, 71, 62
1, 87368, Note_on_c, 0, 83, 66
1, 87384, Note_off_c, 0, 71, 68
1, 87412, Note_off_c, 0, 83, 61
1, 87438, Note_on_c, 0, 80, 61
1, 87502, Note_off_c, 0, 80, 59
1, 87514, Note_on_c, 0, 68, 63
1, 87515, Note_on_c, 0, 83, 67
1, 87544, Note_off_c, 0, 68, 64
1, 87565, Note_off_c, 0, 83, 61
1, 87587, Note_on_c, 0, 80, 62
1, 87658, Note_off_c, 0, 80, 61
1, 87665, Note_on_c, 0, 76, 63
1, 87669, Note_on_c, 0, 83, 63
1, 87684, Note_off_c, 0, 76, 66
1, 87715, Note_off_c, 0, 83, 63
1, 87745, Note_on_c, 0, 80, 55
1, 87808, Note_off_c, 0, 80, 62
1, 87813, Note_on_c, 0, 71, 54
1, 87821, Note_on_c, 0, 83, 60
1, 87833, Note_off_c, 0, 71, 64
1, 87868, Note_off_c, 0, 83, 66
1, 87897, Note_on_c, 0, 80, 57
1, 87955, Note_off_c, 0, 80, 58
1, 87968, Note_on_c, 0, 76, 61
1, 87978, Note_on_c, 0, 83, 60
1, 87988, Note_off_c, 0, 76, 66
1, 88016, Note_off_c, 0, 83, 66
1, 88054, Note_on_c, 0, 80, 55
1, 88103, Note_off_c, 0, 80, 61
1, 88124, Note_on_c, 0, 71, 54
1, 88127, Note_on_c, 0, 83, 57
1, 88145, Note_off_c, 0, 71, 63
1, 88165, Note_off_c, 0, 83, 66
1, 88192, Note_on_c, 0, 80, 57
1, 88258, Note_off_c, 0, 80, 60
1, 88270, Note_on_c, 0, 76, 61
1, 88276, Note_on_c, 0, 83, 61
1, 88292, Note_off_c, 0, 76, 66
1, 88314, Note_off_c, 0, 83, 64
1, 88347, Note_on_c, 0, 80, 54
1, 88405, Note_off_c, 0, 80, 61
1, 88422, Note_on_c, 0, 83, 57
1, 88428, Note_on_c, 0, 71, 42
1, 88455, Note_off_c, 0, 71, 58
1, 88464, Note_off_c, 0, 83, 66
1, 88491, Note_on_c, 0, 80, 56
1, 88550, Note_off_c, 0, 80, 60
1, 88568, Note_on_c, 0, 76, 60
1, 88568, Note_on_c, 0, 83, 57
1, 88586, Note_off_c, 0, 76, 66
1, 88620, Note_off_c, 0, 83, 63
1, 88653, Note_on_c, 0, 80, 53
1, 88703, Note_off_c, 0, 80, 62
1, 88718, Note_on_c, 0, 83, 56
1, 88725, Note_on_c, 0, 71, 52
1, 88747, Note_off_c, 0, 71, 62
1, 88774, Note_off_c, 0, 83, 64
1, 88793, Note_on_c, 0, 80, 55
1, 88821, Note_off_c, 0, 80, 63
1, 88863, Note_on_c, 0, 75, 60
1, 88887, Note_off_c, 0, 75, 65
1, 88935, Note_on_c, 0, 81, 62
1, 88991, Note_off_c, 0, 81, 60
1, 89018, Note_on_c, 0, 71, 46
1, 89020, Note_on_c, 0, 83, 47
1, 89043, Note_off_c, 0, 71, 60
1, 89055, Note_off_c, 0, 83, 55
1, 89081, Note_on_c, 0, 81, 58
1, 89091, Control_c, 0, 67, 8
1, 89106, Control_c, 0, 67, 10
1, 89121, Control_c, 0, 67, 10
1, 89135, Note_off_c, 0, 81, 57
1, 89151, Note_on_c, 0, 75, 58
1, 89163, Note_on_c, 0, 84, 52
1, 89173, Note_off_c, 0, 75, 61
1, 89197, Note_off_c, 0, 84, 59
1, 89239, Note_on_c, 0, 81, 44
1, 89275, Note_off_c, 0, 81, 54
1, 89301, Note_on_c, 0, 83, 54
1, 89308, Note_on_c, 0, 71, 39
1, 89337, Note_off_c, 0, 71, 56
1, 89338, Note_off_c, 0, 83, 64
1, 89375, Note_on_c, 0, 81, 58
1, 89427, Note_off_c, 0, 81, 56
1, 89450, Note_on_c, 0, 75, 59
1, 89454, Note_on_c, 0, 84, 59
1, 89454, Control_c, 0, 67, 9
1, 89469, Control_c, 0, 67, 8
1, 89472, Note_off_c, 0, 75, 62
1, 89497, Note_off_c, 0, 84, 62
1, 89498, Control_c, 0, 67, 0
1, 89534, Note_on_c, 0, 81, 51
1, 89571, Note_off_c, 0, 81, 54
1, 89595, Note_on_c, 0, 83, 57
1, 89605, Note_on_c, 0, 71, 46
1, 89629, Note_off_c, 0, 71, 60
1, 89633, Note_off_c, 0, 83, 66
1, 89663, Note_on_c, 0, 81, 60
1, 89718, Note_off_c, 0, 81, 54
1, 89745, Note_on_c, 0, 84, 62
1, 89750, Note_on_c, 0, 75, 54
1, 89771, Note_off_c, 0, 75, 59
1, 89783, Note_off_c, 0, 84, 61
1, 89825, Note_on_c, 0, 81, 52
1, 89861, Note_off_c, 0, 81, 55
1, 89883, Note_on_c, 0, 83, 56
1, 89900, Note_on_c, 0, 71, 41
1, 89924, Note_off_c, 0, 83, 65
1, 89928, Note_off_c, 0, 71, 57
1, 89951, Note_on_c, 0, 81, 62
1, 90015, Note_off_c, 0, 81, 55
1, 90037, Note_on_c, 0, 75, 54
1, 90045, Note_on_c, 0, 84, 58
1, 90059, Note_off_c, 0, 75, 61
1, 90079, Note_off_c, 0, 84, 57
1, 90132, Note_on_c, 0, 81, 49
1, 90169, Note_off_c, 0, 81, 53
1, 90198, Note_on_c, 0, 83, 47
1, 90201, Note_on_c, 0, 71, 41
1, 90228, Note_off_c, 0, 71, 58
1, 90240, Note_off_c, 0, 83, 52
1, 90264, Note_on_c, 0, 81, 55
1, 90319, Note_off_c, 0, 81, 53
1, 90342, Note_on_c, 0, 75, 51
1, 90347, Note_on_c, 0, 84, 55
1, 90365, Note_off_c, 0, 75, 58
1, 90383, Note_off_c, 0, 84, 60
1, 90434, Note_on_c, 0, 81, 45
1, 90467, Note_off_c, 0, 81, 55
1, 90494, Note_on_c, 0, 71, 41
1, 90496, Note_on_c, 0, 83, 47
1, 90522, Note_off_c, 0, 71, 57
1, 90529, Note_off_c, 0, 83, 56
1, 90556, Note_on_c, 0, 81, 55
1, 90617, Note_off_c, 0, 81, 57
1, 90645, Note_on_c, 0, 75, 47
1, 90646, Note_on_c, 0, 84, 51
1, 90669, Note_off_c, 0, 75, 52
1, 90684, Note_off_c, 0, 84, 57
1, 90730, Note_on_c, 0, 81, 51
1, 90767, Note_off_c, 0, 81, 53
1, 90798, Note_on_c, 0, 71, 44
1, 90798, Note_on_c, 0, 83, 45
1, 90824, Note_off_c, 0, 71, 58
1, 90831, Note_off_c, 0, 83, 56
1, 90870, Note_on_c, 0, 81, 53
1, 90925, Note_off_c, 0, 81, 60
1, 90949, Note_on_c, 0, 84, 55
1, 90953, Note_on_c, 0, 75, 53
1, 90975, Note_off_c, 0, 75, 58
1, 90981, Note_off_c, 0, 84, 54
1, 91028, Note_on_c, 0, 81, 51
1, 91063, Note_off_c, 0, 81, 54
1, 91096, Note_on_c, 0, 83, 47
1, 91102, Note_on_c, 0, 71, 43
1, 91127, Note_off_c, 0, 83, 58
1, 91128, Note_off_c, 0, 71, 58
1, 91156, Note_on_c, 0, 81, 55
1, 91214, Note_off_c, 0, 81, 55
1, 91245, Note_on_c, 0, 85, 52
1, 91254, Note_on_c, 0, 75, 42
1, 91282, Note_off_c, 0, 75, 55
1, 91282, Note_off_c, 0, 85, 58
1, 91309, Control_c, 0, 64, 19
1, 91315, Note_on_c, 0, 76, 39
1, 91324, Control_c, 0, 64, 36
1, 91333, Note_on_c, 0, 81, 43
1, 91339, Control_c, 0, 64, 50
1, 91349, Note_off_c, 0, 76, 51
1, 91353, Control_c, 0, 64, 62
1, 91368, Control_c, 0, 64, 72
1, 91374, Note_off_c, 0, 81, 48
1, 91379, Note_on_c, 0, 75, 49
1, 91383, Control_c, 0, 64, 75
1, 91396, Note_on_c, 0, 83, 50
1, 91397, Control_c, 0, 64, 78
1, 91412, Control_c, 0, 64, 88
1, 91427, Control_c, 0, 64, 109
1, 91429, Note_off_c, 0, 75, 56
1, 91431, Note_off_c, 0, 83, 57
1, 91442, Control_c, 0, 64, 127
1, 91452, Note_on_c, 0, 76, 51
1, 91460, Note_on_c, 0, 81, 60
1, 91495, Note_off_c, 0, 76, 56
1, 91518, Note_off_c, 0, 81, 56
1, 91537, Note_on_c, 0, 85, 63
1, 91544, Note_on_c, 0, 75, 38
1, 91575, Note_off_c, 0, 75, 51
1, 91584, Note_off_c, 0, 85, 57
1, 91613, Note_on_c, 0, 76, 46
1, 91620, Note_on_c, 0, 81, 56
1, 91647, Note_off_c, 0, 76, 51
1, 91674, Note_on_c, 0, 75, 47
1, 91676, Note_off_c, 0, 81, 60
1, 91695, Note_on_c, 0, 83, 59
1, 91710, Note_off_c, 0, 75, 49
1, 91737, Note_off_c, 0, 83, 66
1, 91748, Note_on_c, 0, 76, 48
1, 91762, Note_on_c, 0, 81, 63
1, 91787, Note_off_c, 0, 76, 52
1, 91821, Note_on_c, 0, 75, 41
1, 91826, Note_off_c, 0, 81, 55
1, 91847, Note_on_c, 0, 85, 62
1, 91854, Note_off_c, 0, 75, 50
1, 91881, Note_off_c, 0, 85, 61
1, 91895, Note_on_c, 0, 76, 50
1, 91908, Note_on_c, 0, 81, 57
1, 91934, Note_off_c, 0, 76, 51
1, 91957, Note_on_c, 0, 75, 53
1, 91977, Note_off_c, 0, 81, 63
1, 91984, Note_on_c, 0, 83, 65
1, 92003, Note_off_c, 0, 75, 56
1, 92031, Note_on_c, 0, 76, 59
1, 92042, Note_off_c, 0, 83, 65
1, 92053, Note_on_c, 0, 81, 64
1, 92079, Note_off_c, 0, 76, 58
1, 92110, Note_on_c, 0, 75, 47
1, 92124, Note_off_c, 0, 81, 59
1, 92142, Note_on_c, 0, 85, 75
1, 92142, Note_off_c, 0, 75, 53
1, 92172, Note_on_c, 0, 76, 56
1, 92199, Note_off_c, 0, 85, 63
1, 92211, Note_off_c, 0, 76, 51
1, 92225, Note_on_c, 0, 81, 67
1, 92247, Note_on_c, 0, 75, 45
1, 92280, Note_off_c, 0, 81, 62
1, 92283, Note_off_c, 0, 75, 52
1, 92288, Note_on_c, 0, 83, 68
1, 92300, Note_on_c, 0, 76, 64
1, 92349, Note_off_c, 0, 76, 56
1, 92351, Note_off_c, 0, 83, 65
1, 92366, Note_on_c, 0, 81, 69
1, 92392, Note_on_c, 0, 75, 54
1, 92410, Note_off_c, 0, 81, 59
1, 92422, Note_off_c, 0, 75, 56
1, 92439, Note_on_c, 0, 90, 84
1, 92457, Note_on_c, 0, 76, 52
1, 92485, Note_off_c, 0, 90, 66
1, 92490, Note_off_c, 0, 76, 52
1, 92518, Note_on_c, 0, 81, 50
1, 92524, Note_on_c, 0, 75, 49
1, 92526, Note_on_c, 0, 83, 55
1, 92553, Note_off_c, 0, 75, 53
1, 92566, Note_off_c, 0, 83, 53
1, 92574, Note_on_c, 0, 76, 63
1, 92589, Note_on_c, 0, 90, 86
1, 92607, Note_off_c, 0, 81, 45
1, 92624, Note_off_c, 0, 76, 57
1, 92634, Note_off_c, 0, 90, 66
1, 92652, Note_on_c, 0, 75, 54
1, 92674, Note_on_c, 0, 81, 62
1, 92674, Note_on_c, 0, 83, 33
1, 92679, Note_off_c, 0, 75, 58
1, 92713, Note_on_c, 0, 76, 59
1, 92714, Note_off_c, 0, 81, 57
1, 92720, Note_off_c, 0, 83, 54
1, 92734, Note_on_c, 0, 90, 90
1, 92756, Note_off_c, 0, 76, 53
1, 92773, Note_on_c, 0, 75, 58
1, 92780, Note_off_c, 0, 90, 66
1, 92812, Note_off_c, 0, 75, 60
1, 92819, Note_on_c, 0, 83, 50
1, 92822, Note_on_c, 0, 81, 57
1, 92842, Note_on_c, 0, 76, 63
1, 92863, Note_off_c, 0, 81, 60
1, 92878, Note_on_c, 0, 90, 100
1, 92887, Note_off_c, 0, 76, 54
1, 92899, Note_off_c, 0, 83, 37
1, 92908, Note_on_c, 0, 75, 65
1, 92931, Note_off_c, 0, 90, 66
1, 92948, Note_off_c, 0, 75, 61
1, 92955, Note_on_c, 0, 81, 52
1, 92959, Note_on_c, 0, 83, 61
1, 92974, Note_on_c, 0, 76, 61
1, 93007, Note_off_c, 0, 76, 51
1, 93017, Note_off_c, 0, 83, 66
1, 93018, Note_off_c, 0, 81, 63
1, 93022, Note_on_c, 0, 90, 106
1, 93028, Note_on_c, 0, 75, 66
1, 93077, Note_off_c, 0, 90, 66
1, 93083, Note_off_c, 0, 75, 59
1, 93096, Note_on_c, 0, 76, 74
1, 93116, Note_on_c, 0, 81, 57
1, 93120, Note_on_c, 0, 83, 56
1, 93158, Note_off_c, 0, 76, 64
1, 93164, Note_on_c, 0, 75, 66
1, 93172, Note_off_c, 0, 81, 63
1, 93176, Note_off_c, 0, 83, 64
1, 93179, Note_on_c, 0, 90, 100
1, 93225, Note_off_c, 0, 75, 61
1, 93233, Note_on_c, 0, 76, 69
1, 93248, Note_off_c, 0, 90, 64
1, 93258, Note_on_c, 0, 81, 64
1, 93259, Note_on_c, 0, 83, 60
1, 93278, Note_off_c, 0, 76, 55
1, 93290, Note_on_c, 0, 75, 64
1, 93310, Note_off_c, 0, 83, 65
1, 93313, Note_off_c, 0, 81, 62
1, 93326, Note_on_c, 0, 90, 102
1, 93352, Note_off_c, 0, 75, 62
1, 93361, Note_on_c, 0, 76, 74
1, 93410, Note_on_c, 0, 81, 76
1, 93411, Note_on_c, 0, 83, 76
1, 93415, Note_off_c, 0, 90, 67
1, 93445, Note_on_c, 0, 75, 72
1, 93448, Note_off_c, 0, 76, 61
1, 93459, Note_off_c, 0, 83, 63
1, 93464, Note_off_c, 0, 81, 61
1, 93476, Note_on_c, 0, 90, 93
1, 93497, Note_on_c, 0, 73, 80
1, 93502, Note_off_c, 0, 75, 63
1, 93545, Note_on_c, 0, 81, 75
1, 93558, Note_on_c, 0, 83, 64
1, 93569, Note_on_c, 0, 75, 79
1, 93569, Note_off_c, 0, 73, 64
1, 93585, Note_off_c, 0, 83, 49
1, 93585, Note_off_c, 0, 90, 64
1, 93609, Note_off_c, 0, 81, 63
1, 93615, Note_off_c, 0, 75, 61
1, 93696, Note_on_c, 0, 83, 80
1, 93701, Note_on_c, 0, 80, 99
1, 93703, Note_on_c, 0, 88, 92
1, 93707, Note_on_c, 0, 76, 102
1, 93713, Note_on_c, 0, 64, 90
1, 93718, Control_c, 0, 64, 78
1, 93733, Control_c, 0, 64, 53
1, 93747, Control_c, 0, 64, 0
1, 94006, Control_c, 0, 64, 12
1, 94021, Control_c, 0, 64, 35
1, 94036, Control_c, 0, 64, 53
1, 94051, Control_c, 0, 64, 73
1, 94065, Control_c, 0, 64, 127
1, 94184, Note_off_c, 0, 76, 48
1, 94276, Note_off_c, 0, 80, 54
1, 94491, Note_off_c, 0, 83, 32
1, 94626, Note_off_c, 0, 88, 41
1, 94703, Note_on_c, 0, 71, 51
1, 94704, Note_on_c, 0, 68, 55
1, 94710, Note_on_c, 0, 74, 49
1, 95144, Note_off_c, 0, 71, 35
1, 95168, Note_on_c, 0, 88, 58
1, 95244, Note_on_c, 0, 86, 68
1, 95263, Note_off_c, 0, 88, 53
1, 95319, Note_on_c, 0, 84, 65
1, 95349, Note_off_c, 0, 86, 59
1, 95387, Note_off_c, 0, 84, 63
1, 95390, Note_on_c, 0, 83, 66
1, 95460, Note_off_c, 0, 83, 64
1, 95472, Note_on_c, 0, 84, 72
1, 95484, Note_on_c, 0, 69, 47
1, 95485, Note_on_c, 0, 72, 50
1, 95504, Control_c, 0, 64, 84
1, 95518, Control_c, 0, 64, 67
1, 95533, Control_c, 0, 64, 56
1, 95543, Note_on_c, 0, 83, 64
1, 95548, Control_c, 0, 64, 35
1, 95559, Note_off_c, 0, 84, 61
1, 95563, Control_c, 0, 64, 0
1, 95609, Note_off_c, 0, 74, 37
1, 95609, Note_off_c, 0, 83, 67
1, 95618, Note_on_c, 0, 81, 71
1, 95627, Note_off_c, 0, 68, 36
1, 95686, Note_off_c, 0, 81, 64
1, 95694, Note_on_c, 0, 80, 74
1, 95755, Control_c, 0, 64, 21
1, 95759, Note_off_c, 0, 80, 63
1, 95770, Control_c, 0, 64, 35
1, 95770, Note_on_c, 0, 81, 71
1, 95785, Control_c, 0, 64, 45
1, 95800, Control_c, 0, 64, 55
1, 95814, Control_c, 0, 64, 59
1, 95841, Note_on_c, 0, 83, 74
1, 95846, Note_off_c, 0, 81, 60
1, 95859, Control_c, 0, 64, 59
1, 95874, Control_c, 0, 64, 58
1, 95888, Note_off_c, 0, 72, 61
1, 95889, Control_c, 0, 64, 58
1, 95904, Control_c, 0, 64, 57
1, 95917, Note_off_c, 0, 83, 66
1, 95918, Note_on_c, 0, 84, 77
1, 95918, Control_c, 0, 64, 57
1, 95933, Control_c, 0, 64, 55
1, 95948, Control_c, 0, 64, 53
1, 95966, Note_off_c, 0, 84, 64
1, 95993, Note_on_c, 0, 86, 83
1, 96007, Control_c, 0, 64, 53
1, 96022, Control_c, 0, 64, 51
1, 96036, Control_c, 0, 64, 47
1, 96051, Control_c, 0, 64, 34
1, 96066, Note_on_c, 0, 68, 51
1, 96067, Note_on_c, 0, 88, 77
1, 96067, Control_c, 0, 64, 0
1, 96072, Note_on_c, 0, 71, 50
1, 96080, Note_on_c, 0, 74, 48
1, 96099, Note_off_c, 0, 86, 59
1, 96127, Note_off_c, 0, 69, 55
1, 96150, Note_off_c, 0, 88, 66
1, 96153, Note_on_c, 0, 89, 80
1, 96227, Note_on_c, 0, 88, 83
1, 96261, Note_off_c, 0, 89, 64
1, 96303, Note_on_c, 0, 87, 74
1, 96303, Note_off_c, 0, 88, 66
1, 96354, Note_off_c, 0, 87, 68
1, 96375, Note_on_c, 0, 88, 71
1, 96456, Note_on_c, 0, 86, 84
1, 96503, Note_off_c, 0, 88, 64
1, 96522, Note_on_c, 0, 84, 74
1, 96527, Note_off_c, 0, 74, 38
1, 96563, Note_off_c, 0, 86, 59
1, 96596, Note_off_c, 0, 84, 63
1, 96599, Note_on_c, 0, 83, 66
1, 96677, Note_on_c, 0, 72, 43
1, 96677, Note_on_c, 0, 84, 72
1, 96681, Note_on_c, 0, 69, 47
1, 96685, Note_off_c, 0, 83, 62
1, 96724, Note_off_c, 0, 71, 54
1, 96746, Note_off_c, 0, 84, 62
1, 96759, Note_on_c, 0, 86, 72
1, 96767, Note_off_c, 0, 64, 41
1, 96774, Note_off_c, 0, 68, 42
1, 96840, Note_on_c, 0, 84, 73
1, 96876, Note_off_c, 0, 86, 58
1, 96922, Note_on_c, 0, 83, 67
1, 96929, Note_off_c, 0, 84, 63
1, 96941, Note_off_c, 0, 72, 37
1, 96983, Note_off_c, 0, 83, 66
1, 96988, Note_off_c, 0, 69, 56
1, 96998, Note_on_c, 0, 81, 63
1, 97062, Note_off_c, 0, 81, 60
1, 97077, Note_on_c, 0, 80, 68
1, 97123, Note_off_c, 0, 80, 61
1, 97147, Note_on_c, 0, 81, 63
1, 97180, Control_c, 0, 64, 31
1, 97195, Control_c, 0, 64, 45
1, 97204, Note_off_c, 0, 81, 55
1, 97210, Control_c, 0, 64, 57
1, 97216, Note_on_c, 0, 83, 67
1, 97224, Control_c, 0, 64, 61
1, 97248, Note_off_c, 0, 83, 66
1, 97320, Note_on_c, 0, 66, 54
1, 97328, Control_c, 0, 64, 59
1, 97330, Note_on_c, 0, 57, 47
1, 97330, Note_on_c, 0, 84, 76
1, 97335, Note_on_c, 0, 69, 47
1, 97336, Note_on_c, 0, 60, 49
1, 97342, Control_c, 0, 64, 54
1, 97344, Note_on_c, 0, 72, 60
1, 97357, Control_c, 0, 64, 42
1, 97372, Control_c, 0, 64, 16
1, 97387, Control_c, 0, 64, 0
1, 97393, Note_off_c, 0, 72, 0
1, 97393, Note_on_c, 0, 72, 21
1, 97476, Control_c, 0, 64, 27
1, 97490, Control_c, 0, 64, 42
1, 97505, Control_c, 0, 64, 53
1, 97520, Control_c, 0, 64, 60
1, 97534, Control_c, 0, 64, 62
1, 97549, Control_c, 0, 64, 64
1, 97564, Control_c, 0, 64, 66
1, 97587, Control_c, 0, 64, 70
1, 97602, Control_c, 0, 64, 74
1, 97616, Control_c, 0, 64, 76
1, 97620, Note_off_c, 0, 57, 37
1, 97631, Control_c, 0, 64, 76
1, 97646, Control_c, 0, 64, 77
1, 97647, Note_off_c, 0, 69, 36
1, 97669, Note_on_c, 0, 81, 72
1, 97710, Note_off_c, 0, 66, 55
1, 97721, Note_off_c, 0, 84, 48
1, 97829, Note_on_c, 0, 78, 81
1, 97869, Note_off_c, 0, 72, 47
1, 97903, Note_off_c, 0, 81, 58
1, 97958, Control_c, 0, 64, 76
1, 97973, Control_c, 0, 64, 75
1, 97988, Control_c, 0, 64, 73
1, 98002, Control_c, 0, 64, 67
1, 98009, Note_on_c, 0, 83, 73
1, 98012, Note_on_c, 0, 59, 40
1, 98017, Control_c, 0, 64, 60
1, 98020, Note_on_c, 0, 67, 46
1, 98022, Note_on_c, 0, 64, 44
1, 98022, Note_on_c, 0, 71, 55
1, 98032, Control_c, 0, 64, 46
1, 98047, Control_c, 0, 64, 9
1, 98058, Note_off_c, 0, 78, 55
1, 98062, Control_c, 0, 64, 0
1, 98096, Note_off_c, 0, 60, 46
1, 98210, Control_c, 0, 64, 26
1, 98225, Control_c, 0, 64, 42
1, 98239, Control_c, 0, 64, 55
1, 98254, Control_c, 0, 64, 64
1, 98269, Control_c, 0, 64, 65
1, 98298, Note_off_c, 0, 59, 52
1, 98299, Control_c, 0, 64, 66
1, 98313, Control_c, 0, 64, 67
1, 98328, Control_c, 0, 64, 69
1, 98347, Note_on_c, 0, 79, 65
1, 98351, Control_c, 0, 64, 69
1, 98354, Note_off_c, 0, 83, 34
1, 98365, Note_off_c, 0, 64, 59
1, 98410, Control_c, 0, 64, 70
1, 98521, Note_on_c, 0, 76, 74
1, 98557, Note_off_c, 0, 71, 44
1, 98566, Note_off_c, 0, 79, 54
1, 98677, Control_c, 0, 64, 69
1, 98692, Control_c, 0, 64, 68
1, 98707, Control_c, 0, 64, 65
1, 98709, Note_on_c, 0, 81, 67
1, 98712, Note_off_c, 0, 76, 55
1, 98719, Note_on_c, 0, 59, 44
1, 98722, Control_c, 0, 64, 58
1, 98724, Note_on_c, 0, 66, 44
1, 98728, Note_on_c, 0, 69, 47
1, 98729, Note_on_c, 0, 63, 47
1, 98736, Control_c, 0, 64, 37
1, 98751, Control_c, 0, 64, 0
1, 98773, Note_off_c, 0, 66, 0
1, 98773, Note_on_c, 0, 66, 5
1, 98840, Note_off_c, 0, 67, 47
1, 98914, Control_c, 0, 64, 19
1, 98929, Control_c, 0, 64, 32
1, 98944, Control_c, 0, 64, 42
1, 98959, Control_c, 0, 64, 52
1, 98974, Control_c, 0, 64, 58
1, 98988, Control_c, 0, 64, 61
1, 99003, Control_c, 0, 64, 62
1, 99018, Control_c, 0, 64, 63
1, 99033, Control_c, 0, 64, 65
1, 99046, Note_on_c, 0, 78, 59
1, 99048, Control_c, 0, 64, 67
1, 99053, Note_off_c, 0, 81, 38
1, 99062, Control_c, 0, 64, 69
1, 99063, Note_off_c, 0, 66, 50
1, 99084, Control_c, 0, 64, 69
1, 99097, Note_off_c, 0, 59, 35
1, 99135, Note_off_c, 0, 63, 36
1, 99231, Note_on_c, 0, 75, 60
1, 99305, Note_off_c, 0, 69, 40
1, 99318, Note_off_c, 0, 75, 56
1, 99334, Note_off_c, 0, 78, 38
1, 99425, Control_c, 0, 64, 69
1, 99440, Control_c, 0, 64, 68
1, 99455, Control_c, 0, 64, 66
1, 99470, Control_c, 0, 64, 60
1, 99484, Control_c, 0, 64, 41
1, 99487, Note_on_c, 0, 76, 84
1, 99489, Note_on_c, 0, 64, 74
1, 99490, Note_on_c, 0, 52, 70
1, 99499, Control_c, 0, 64, 0
1, 99863, Control_c, 0, 64, 10
1, 99877, Control_c, 0, 64, 37
1, 99892, Control_c, 0, 64, 51
1, 99907, Control_c, 0, 64, 61
1, 99922, Control_c, 0, 64, 63
1, 99951, Control_c, 0, 64, 65
1, 99966, Control_c, 0, 64, 70
1, 99981, Control_c, 0, 64, 74
1, 100056, Control_c, 0, 64, 74
1, 100085, Note_off_c, 0, 64, 34
1, 100396, Control_c, 0, 64, 71
1, 100411, Control_c, 0, 64, 63
1, 100423, Note_on_c, 0, 62, 46
1, 100426, Control_c, 0, 64, 52
1, 100430, Note_on_c, 0, 56, 48
1, 100436, Note_on_c, 0, 59, 39
1, 100441, Control_c, 0, 64, 41
1, 100456, Control_c, 0, 64, 42
1, 100471, Control_c, 0, 64, 49
1, 100471, Note_off_c, 0, 62, 0
1, 100471, Note_on_c, 0, 62, 11
1, 100486, Control_c, 0, 64, 56
1, 100500, Control_c, 0, 64, 64
1, 100515, Control_c, 0, 64, 73
1, 100530, Control_c, 0, 64, 79
1, 100545, Control_c, 0, 64, 86
1, 100559, Control_c, 0, 64, 93
1, 100566, Note_off_c, 0, 76, 33
1, 100581, Control_c, 0, 64, 96
1, 100611, Control_c, 0, 64, 95
1, 100626, Control_c, 0, 64, 93
1, 100641, Control_c, 0, 64, 93
1, 100655, Control_c, 0, 64, 92
1, 100670, Control_c, 0, 64, 91
1, 100685, Control_c, 0, 64, 88
1, 100700, Control_c, 0, 64, 83
1, 100760, Control_c, 0, 64, 82
1, 100778, Note_off_c, 0, 59, 36
1, 100790, Control_c, 0, 64, 82
1, 100852, Note_on_c, 0, 76, 52
1, 100922, Note_on_c, 0, 74, 54
1, 100934, Note_off_c, 0, 76, 54
1, 100995, Note_on_c, 0, 72, 60
1, 100998, Control_c, 0, 64, 81
1, 101013, Note_off_c, 0, 74, 58
1, 101043, Control_c, 0, 64, 81
1, 101052, Note_off_c, 0, 72, 58
1, 101057, Control_c, 0, 64, 80
1, 101070, Note_on_c, 0, 71, 57
1, 101072, Control_c, 0, 64, 78
1, 101087, Control_c, 0, 64, 74
1, 101102, Control_c, 0, 64, 71
1, 101117, Control_c, 0, 64, 66
1, 101131, Control_c, 0, 64, 61
1, 101132, Note_off_c, 0, 71, 61
1, 101134, Note_on_c, 0, 60, 41
1, 101145, Note_on_c, 0, 57, 42
1, 101146, Control_c, 0, 64, 50
1, 101154, Note_on_c, 0, 72, 67
1, 101161, Control_c, 0, 64, 26
1, 101176, Control_c, 0, 64, 0
1, 101220, Note_off_c, 0, 72, 60
1, 101231, Note_on_c, 0, 71, 61
1, 101251, Note_off_c, 0, 56, 44
1, 101264, Note_off_c, 0, 62, 44
1, 101284, Note_off_c, 0, 71, 64
1, 101302, Note_on_c, 0, 69, 64
1, 101367, Note_off_c, 0, 69, 64
1, 101379, Note_on_c, 0, 68, 67
1, 101437, Note_off_c, 0, 68, 60
1, 101455, Note_on_c, 0, 69, 62
1, 101518, Note_off_c, 0, 69, 62
1, 101525, Note_on_c, 0, 71, 68
1, 101531, Note_off_c, 0, 60, 62
1, 101595, Note_off_c, 0, 71, 65
1, 101596, Note_on_c, 0, 72, 69
1, 101642, Control_c, 0, 64, 9
1, 101651, Note_off_c, 0, 72, 64
1, 101658, Control_c, 0, 64, 9
1, 101675, Note_on_c, 0, 74, 67
1, 101702, Control_c, 0, 64, 9
1, 101717, Control_c, 0, 64, 0
1, 101744, Note_on_c, 0, 56, 40
1, 101749, Note_off_c, 0, 74, 61
1, 101751, Note_on_c, 0, 76, 68
1, 101756, Note_on_c, 0, 62, 36
1, 101761, Note_on_c, 0, 59, 25
1, 101808, Note_off_c, 0, 57, 46
1, 101816, Note_off_c, 0, 76, 65
1, 101825, Note_on_c, 0, 77, 70
1, 101904, Note_on_c, 0, 76, 71
1, 101928, Note_off_c, 0, 77, 58
1, 101968, Note_off_c, 0, 76, 66
1, 101973, Note_on_c, 0, 75, 75
1, 102028, Note_off_c, 0, 75, 64
1, 102053, Note_on_c, 0, 76, 68
1, 102108, Note_off_c, 0, 62, 45
1, 102131, Note_on_c, 0, 74, 77
1, 102178, Note_off_c, 0, 76, 63
1, 102213, Note_on_c, 0, 72, 64
1, 102234, Note_off_c, 0, 74, 63
1, 102271, Note_off_c, 0, 72, 62
1, 102274, Note_on_c, 0, 71, 60
1, 102356, Note_on_c, 0, 60, 35
1, 102364, Note_on_c, 0, 72, 61
1, 102365, Note_on_c, 0, 57, 40
1, 102369, Note_off_c, 0, 71, 59
1, 102387, Note_off_c, 0, 56, 30
1, 102409, Note_off_c, 0, 59, 40
1, 102412, Note_off_c, 0, 72, 60
1, 102437, Note_on_c, 0, 74, 63
1, 102464, Note_off_c, 0, 52, 42
1, 102516, Note_on_c, 0, 72, 71
1, 102540, Note_off_c, 0, 74, 58
1, 102559, Note_off_c, 0, 60, 55
1, 102591, Note_on_c, 0, 71, 62
1, 102593, Note_off_c, 0, 72, 62
1, 102611, Note_off_c, 0, 57, 57
1, 102647, Note_off_c, 0, 71, 66
1, 102662, Note_on_c, 0, 69, 58
1, 102715, Note_off_c, 0, 69, 60
1, 102744, Note_on_c, 0, 68, 58
1, 102781, Note_off_c, 0, 68, 63
1, 102834, Note_on_c, 0, 69, 45
1, 102858, Control_c, 0, 64, 26
1, 102867, Note_off_c, 0, 69, 53
1, 102873, Control_c, 0, 64, 40
1, 102888, Control_c, 0, 64, 50
1, 102903, Control_c, 0, 64, 57
1, 102908, Note_on_c, 0, 71, 34
1, 102918, Control_c, 0, 64, 59
1, 102933, Control_c, 0, 64, 60
1, 102941, Note_off_c, 0, 71, 55
1, 102998, Note_on_c, 0, 57, 34
1, 102999, Note_on_c, 0, 45, 49
1, 102999, Note_on_c, 0, 54, 45
1, 103001, Note_on_c, 0, 72, 65
1, 103002, Note_on_c, 0, 60, 55
1, 103006, Control_c, 0, 64, 59
1, 103007, Note_on_c, 0, 48, 43
1, 103021, Control_c, 0, 64, 57
1, 103035, Control_c, 0, 64, 51
1, 103050, Control_c, 0, 64, 36
1, 103057, Note_off_c, 0, 60, 0
1, 103065, Control_c, 0, 64, 0
1, 103086, Note_on_c, 0, 60, 33
1, 103183, Control_c, 0, 64, 20
1, 103198, Control_c, 0, 64, 36
1, 103213, Control_c, 0, 64, 49
1, 103228, Control_c, 0, 64, 59
1, 103243, Control_c, 0, 64, 63
1, 103258, Control_c, 0, 64, 64
1, 103273, Control_c, 0, 64, 65
1, 103276, Note_off_c, 0, 57, 42
1, 103288, Note_off_c, 0, 45, 36
1, 103288, Control_c, 0, 64, 66
1, 103303, Control_c, 0, 64, 67
1, 103329, Note_on_c, 0, 69, 61
1, 103344, Note_off_c, 0, 54, 55
1, 103380, Note_off_c, 0, 72, 37
1, 103487, Note_on_c, 0, 66, 66
1, 103511, Note_off_c, 0, 60, 41
1, 103520, Note_off_c, 0, 69, 57
1, 103607, Control_c, 0, 64, 66
1, 103621, Control_c, 0, 64, 65
1, 103636, Control_c, 0, 64, 63
1, 103651, Control_c, 0, 64, 57
1, 103666, Control_c, 0, 64, 41
1, 103672, Note_on_c, 0, 71, 63
1, 103674, Note_off_c, 0, 66, 50
1, 103681, Control_c, 0, 64, 0
1, 103682, Note_on_c, 0, 55, 42
1, 103683, Note_on_c, 0, 47, 44
1, 103691, Note_on_c, 0, 59, 42
1, 103699, Note_on_c, 0, 52, 43
1, 103742, Note_off_c, 0, 48, 44
1, 103873, Control_c, 0, 64, 17
1, 103888, Control_c, 0, 64, 32
1, 103902, Control_c, 0, 64, 43
1, 103917, Control_c, 0, 64, 53
1, 103932, Control_c, 0, 64, 59
1, 103947, Control_c, 0, 64, 61
1, 103962, Control_c, 0, 64, 62
1, 103973, Note_off_c, 0, 47, 42
1, 103976, Control_c, 0, 64, 63
1, 103991, Control_c, 0, 64, 65
1, 103994, Note_on_c, 0, 67, 56
1, 104005, Note_off_c, 0, 52, 57
1, 104006, Control_c, 0, 64, 66
1, 104022, Note_off_c, 0, 71, 37
1, 104081, Control_c, 0, 64, 66
1, 104155, Note_on_c, 0, 64, 59
1, 104168, Note_off_c, 0, 59, 42
1, 104175, Note_off_c, 0, 67, 50
1, 104289, Control_c, 0, 64, 66
1, 104304, Control_c, 0, 64, 63
1, 104325, Control_c, 0, 64, 58
1, 104340, Control_c, 0, 64, 43
1, 104350, Note_off_c, 0, 64, 51
1, 104355, Control_c, 0, 64, 0
1, 104360, Note_on_c, 0, 69, 57
1, 104376, Note_on_c, 0, 47, 32
1, 104382, Note_on_c, 0, 54, 37
1, 104385, Note_on_c, 0, 51, 36
1, 104388, Note_on_c, 0, 57, 19
1, 104456, Note_off_c, 0, 55, 45
1, 104489, Control_c, 0, 64, 15
1, 104504, Control_c, 0, 64, 29
1, 104519, Control_c, 0, 64, 39
1, 104534, Control_c, 0, 64, 48
1, 104548, Control_c, 0, 64, 54
1, 104563, Control_c, 0, 64, 57
1, 104578, Control_c, 0, 64, 58
1, 104593, Control_c, 0, 64, 59
1, 104608, Control_c, 0, 64, 60
1, 104623, Control_c, 0, 64, 60
1, 104641, Note_off_c, 0, 51, 41
1, 104671, Note_on_c, 0, 66, 55
1, 104745, Note_off_c, 0, 69, 38
1, 104829, Note_on_c, 0, 63, 55
1, 104853, Note_off_c, 0, 57, 38
1, 104905, Control_c, 0, 64, 60
1, 104910, Note_off_c, 0, 66, 26
1, 104920, Control_c, 0, 64, 59
1, 104935, Control_c, 0, 64, 56
1, 104949, Control_c, 0, 64, 44
1, 104964, Control_c, 0, 64, 22
1, 104979, Control_c, 0, 64, 0
1, 104985, Note_off_c, 0, 63, 38
1, 105027, Note_on_c, 0, 64, 47
1, 105037, Note_off_c, 0, 47, 44
1, 105043, Note_on_c, 0, 52, 37
1, 105046, Note_on_c, 0, 55, 27
1, 105105, Control_c, 0, 64, 27
1, 105120, Note_off_c, 0, 54, 31
1, 105120, Control_c, 0, 64, 41
1, 105135, Control_c, 0, 64, 54
1, 105136, Note_off_c, 0, 52, 62
1, 105142, Note_off_c, 0, 55, 37
1, 105149, Control_c, 0, 64, 60
1, 105157, Note_off_c, 0, 64, 48
1, 105164, Control_c, 0, 64, 62
1, 105179, Control_c, 0, 64, 63
1, 105209, Control_c, 0, 64, 63
1, 105223, Control_c, 0, 64, 64
1, 105327, Control_c, 0, 64, 63
1, 105342, Control_c, 0, 64, 60
1, 105356, Control_c, 0, 64, 52
1, 105371, Control_c, 0, 64, 31
1, 105377, Note_on_c, 0, 43, 40
1, 105379, Note_on_c, 0, 76, 50
1, 105386, Control_c, 0, 64, 0
1, 105395, Note_on_c, 0, 52, 35
1, 105543, Note_on_c, 0, 74, 62
1, 105694, Note_on_c, 0, 45, 51
1, 105705, Note_on_c, 0, 72, 73
1, 105708, Note_off_c, 0, 43, 40
1, 105802, Control_c, 0, 64, 20
1, 105817, Control_c, 0, 64, 39
1, 105830, Note_off_c, 0, 76, 34
1, 105839, Control_c, 0, 64, 52
1, 105854, Control_c, 0, 64, 59
1, 105860, Note_on_c, 0, 53, 71
1, 105869, Control_c, 0, 64, 60
1, 105891, Note_off_c, 0, 52, 54
1, 105973, Control_c, 0, 64, 59
1, 105987, Control_c, 0, 64, 53
1, 106002, Control_c, 0, 64, 34
1, 106003, Note_on_c, 0, 69, 81
1, 106006, Note_off_c, 0, 74, 63
1, 106011, Note_on_c, 0, 55, 67
1, 106017, Control_c, 0, 64, 0
1, 106033, Note_off_c, 0, 45, 63
1, 106043, Note_off_c, 0, 72, 62
1, 106047, Note_off_c, 0, 53, 66
1, 106061, Control_c, 0, 64, 11
1, 106076, Control_c, 0, 64, 30
1, 106091, Control_c, 0, 64, 45
1, 106105, Control_c, 0, 64, 56
1, 106120, Control_c, 0, 64, 61
1, 106135, Control_c, 0, 64, 63
1, 106161, Note_on_c, 0, 65, 86
1, 106165, Control_c, 0, 64, 63
1, 106168, Note_on_c, 0, 57, 71
1, 106177, Note_off_c, 0, 69, 63
1, 106179, Control_c, 0, 64, 64
1, 106183, Note_off_c, 0, 55, 63
1, 106194, Control_c, 0, 64, 65
1, 106203, Note_off_c, 0, 57, 59
1, 106298, Control_c, 0, 64, 64
1, 106313, Control_c, 0, 64, 62
1, 106328, Control_c, 0, 64, 56
1, 106340, Note_on_c, 0, 55, 42
1, 106343, Control_c, 0, 64, 41
1, 106348, Note_on_c, 0, 71, 72
1, 106355, Note_on_c, 0, 47, 56
1, 106358, Control_c, 0, 64, 0
1, 106359, Note_on_c, 0, 59, 58
1, 106383, Note_off_c, 0, 65, 52
1, 106551, Control_c, 0, 64, 11
1, 106566, Control_c, 0, 64, 30
1, 106588, Control_c, 0, 64, 41
1, 106602, Control_c, 0, 64, 49
1, 106615, Note_off_c, 0, 59, 53
1, 106617, Control_c, 0, 64, 55
1, 106632, Control_c, 0, 64, 57
1, 106647, Control_c, 0, 64, 58
1, 106661, Note_on_c, 0, 67, 70
1, 106662, Control_c, 0, 64, 60
1, 106677, Control_c, 0, 64, 61
1, 106683, Note_off_c, 0, 71, 59
1, 106692, Control_c, 0, 64, 62
1, 106707, Control_c, 0, 64, 62
1, 106721, Control_c, 0, 64, 63
1, 106808, Note_off_c, 0, 67, 62
1, 106819, Note_on_c, 0, 64, 73
1, 106914, Control_c, 0, 64, 62
1, 106928, Control_c, 0, 64, 60
1, 106943, Control_c, 0, 64, 57
1, 106958, Control_c, 0, 64, 51
1, 106973, Control_c, 0, 64, 40
1, 106988, Control_c, 0, 64, 20
1, 106999, Note_on_c, 0, 69, 63
1, 107002, Control_c, 0, 64, 0
1, 107008, Note_on_c, 0, 57, 38
1, 107019, Note_on_c, 0, 54, 43
1, 107036, Note_off_c, 0, 64, 43
1, 107106, Note_off_c, 0, 55, 45
1, 107166, Control_c, 0, 64, 22
1, 107181, Control_c, 0, 64, 34
1, 107195, Control_c, 0, 64, 43
1, 107210, Control_c, 0, 64, 50
1, 107225, Control_c, 0, 64, 54
1, 107237, Note_off_c, 0, 47, 40
1, 107240, Control_c, 0, 64, 55
1, 107255, Control_c, 0, 64, 55
1, 107270, Control_c, 0, 64, 58
1, 107285, Control_c, 0, 64, 60
1, 107300, Control_c, 0, 64, 61
1, 107315, Control_c, 0, 64, 62
1, 107326, Note_off_c, 0, 69, 53
1, 107327, Note_on_c, 0, 66, 59
1, 107425, Control_c, 0, 64, 61
1, 107479, Note_off_c, 0, 66, 48
1, 107482, Note_on_c, 0, 63, 58
1, 107499, Control_c, 0, 64, 61
1, 107514, Control_c, 0, 64, 60
1, 107544, Control_c, 0, 64, 60
1, 107573, Control_c, 0, 64, 58
1, 107588, Control_c, 0, 64, 54
1, 107603, Control_c, 0, 64, 43
1, 107618, Control_c, 0, 64, 12
1, 107632, Control_c, 0, 64, 0
1, 107639, Note_off_c, 0, 63, 46
1, 107649, Note_off_c, 0, 57, 38
1, 107670, Note_on_c, 0, 64, 45
1, 107675, Note_off_c, 0, 54, 35
1, 107678, Note_on_c, 0, 52, 36
1, 107690, Note_on_c, 0, 48, 39
1, 107690, Note_on_c, 0, 55, 29
1, 107765, Control_c, 0, 64, 30
1, 107769, Note_off_c, 0, 55, 58
1, 107774, Note_off_c, 0, 52, 60
1, 107780, Control_c, 0, 64, 44
1, 107788, Note_off_c, 0, 48, 56
1, 107795, Control_c, 0, 64, 54
1, 107810, Control_c, 0, 64, 61
1, 107825, Control_c, 0, 64, 61
1, 107830, Note_off_c, 0, 64, 36
1, 107884, Control_c, 0, 64, 62
1, 107899, Control_c, 0, 64, 61
1, 107929, Control_c, 0, 64, 60
1, 107943, Control_c, 0, 64, 56
1, 107958, Control_c, 0, 64, 47
1, 107973, Control_c, 0, 64, 22
1, 107988, Control_c, 0, 64, 0
1, 107999, Note_on_c, 0, 72, 48
1, 108002, Note_on_c, 0, 40, 43
1, 108015, Note_on_c, 0, 48, 29
1, 108163, Note_on_c, 0, 71, 56
1, 108253, Note_off_c, 0, 72, 31
1, 108319, Note_on_c, 0, 41, 46
1, 108328, Note_on_c, 0, 69, 56
1, 108358, Note_off_c, 0, 40, 33
1, 108370, Note_off_c, 0, 71, 50
1, 108455, Control_c, 0, 64, 25
1, 108468, Note_off_c, 0, 48, 56
1, 108470, Control_c, 0, 64, 34
1, 108483, Note_on_c, 0, 50, 58
1, 108485, Control_c, 0, 64, 41
1, 108499, Control_c, 0, 64, 45
1, 108514, Control_c, 0, 64, 48
1, 108529, Control_c, 0, 64, 50
1, 108544, Control_c, 0, 64, 52
1, 108559, Control_c, 0, 64, 53
1, 108573, Control_c, 0, 64, 54
1, 108603, Control_c, 0, 64, 53
1, 108634, Note_on_c, 0, 52, 66
1, 108639, Note_on_c, 0, 65, 68
1, 108647, Control_c, 0, 64, 54
1, 108650, Note_off_c, 0, 50, 61
1, 108662, Control_c, 0, 64, 53
1, 108671, Note_off_c, 0, 69, 56
1, 108686, Note_off_c, 0, 41, 42
1, 108692, Control_c, 0, 64, 53
1, 108752, Control_c, 0, 64, 53
1, 108766, Control_c, 0, 64, 53
1, 108789, Note_off_c, 0, 65, 63
1, 108790, Note_on_c, 0, 62, 67
1, 108790, Note_off_c, 0, 52, 62
1, 108794, Note_on_c, 0, 53, 60
1, 108830, Note_off_c, 0, 53, 56
1, 108864, Control_c, 0, 64, 52
1, 108878, Control_c, 0, 64, 50
1, 108893, Control_c, 0, 64, 46
1, 108908, Control_c, 0, 64, 39
1, 108922, Control_c, 0, 64, 30
1, 108937, Control_c, 0, 64, 14
1, 108952, Control_c, 0, 64, 0
1, 108981, Note_off_c, 0, 62, 48
1, 108985, Note_on_c, 0, 67, 60
1, 108990, Note_on_c, 0, 43, 46
1, 108996, Note_on_c, 0, 52, 37
1, 109002, Note_on_c, 0, 55, 43
1, 109175, Control_c, 0, 64, 21
1, 109189, Control_c, 0, 64, 31
1, 109204, Control_c, 0, 64, 39
1, 109219, Control_c, 0, 64, 46
1, 109231, Note_off_c, 0, 55, 37
1, 109234, Control_c, 0, 64, 52
1, 109249, Control_c, 0, 64, 56
1, 109263, Control_c, 0, 64, 57
1, 109278, Control_c, 0, 64, 58
1, 109288, Note_on_c, 0, 64, 53
1, 109293, Control_c, 0, 64, 59
1, 109308, Control_c, 0, 64, 59
1, 109366, Note_off_c, 0, 67, 33
1, 109421, Note_off_c, 0, 64, 56
1, 109443, Note_on_c, 0, 60, 54
1, 109500, Control_c, 0, 64, 59
1, 109515, Control_c, 0, 64, 58
1, 109559, Control_c, 0, 64, 57
1, 109582, Control_c, 0, 64, 56
1, 109596, Control_c, 0, 64, 51
1, 109611, Control_c, 0, 64, 39
1, 109625, Note_off_c, 0, 60, 48
1, 109626, Control_c, 0, 64, 0
1, 109640, Note_on_c, 0, 65, 52
1, 109649, Note_on_c, 0, 53, 31
1, 109664, Note_on_c, 0, 50, 29
1, 109744, Note_off_c, 0, 52, 42
1, 109774, Control_c, 0, 64, 16
1, 109789, Control_c, 0, 64, 29
1, 109804, Control_c, 0, 64, 37
1, 109819, Control_c, 0, 64, 47
1, 109834, Control_c, 0, 64, 54
1, 109849, Control_c, 0, 64, 58
1, 109863, Control_c, 0, 64, 59
1, 109893, Control_c, 0, 64, 60
1, 109959, Note_off_c, 0, 65, 55
1, 109962, Note_on_c, 0, 62, 53
1, 109967, Control_c, 0, 64, 59
1, 109997, Control_c, 0, 64, 59
1, 110011, Control_c, 0, 64, 58
1, 110026, Control_c, 0, 64, 58
1, 110056, Control_c, 0, 64, 57
1, 110085, Control_c, 0, 64, 57
1, 110092, Note_off_c, 0, 62, 58
1, 110100, Control_c, 0, 64, 56
1, 110124, Note_on_c, 0, 59, 46
1, 110174, Control_c, 0, 64, 55
1, 110189, Control_c, 0, 64, 53
1, 110203, Note_off_c, 0, 53, 41
1, 110204, Control_c, 0, 64, 46
1, 110218, Control_c, 0, 64, 35
1, 110233, Control_c, 0, 64, 0
1, 110247, Note_off_c, 0, 43, 29
1, 110269, Note_off_c, 0, 50, 34
1, 110281, Note_off_c, 0, 59, 35
1, 110301, Note_on_c, 0, 60, 44
1, 110303, Note_on_c, 0, 48, 40
1, 110316, Note_on_c, 0, 52, 39
1, 110389, Control_c, 0, 64, 32
1, 110404, Control_c, 0, 64, 49
1, 110418, Control_c, 0, 64, 62
1, 110427, Note_off_c, 0, 60, 64
1, 110433, Control_c, 0, 64, 68
1, 110449, Control_c, 0, 64, 68
1, 110465, Note_off_c, 0, 48, 36
1, 110477, Note_off_c, 0, 52, 36
1, 110479, Control_c, 0, 64, 69
1, 110553, Control_c, 0, 64, 68
1, 110567, Control_c, 0, 64, 66
1, 110582, Control_c, 0, 64, 60
1, 110597, Control_c, 0, 64, 47
1, 110612, Control_c, 0, 64, 0
1, 110641, Note_on_c, 0, 77, 78
1, 110650, Note_on_c, 0, 45, 54
1, 110652, Note_on_c, 0, 53, 49
1, 110795, Note_on_c, 0, 76, 82
1, 110951, Note_on_c, 0, 74, 82
1, 110959, Note_on_c, 0, 46, 61
1, 110975, Note_off_c, 0, 77, 61
1, 110995, Note_off_c, 0, 76, 62
1, 110997, Control_c, 0, 64, 28
1, 111011, Control_c, 0, 64, 44
1, 111026, Control_c, 0, 64, 56
1, 111041, Control_c, 0, 64, 63
1, 111064, Control_c, 0, 64, 64
1, 111079, Control_c, 0, 64, 65
1, 111093, Control_c, 0, 64, 66
1, 111104, Note_off_c, 0, 46, 60
1, 111108, Control_c, 0, 64, 70
1, 111117, Note_on_c, 0, 55, 78
1, 111117, Note_off_c, 0, 45, 37
1, 111123, Control_c, 0, 64, 75
1, 111138, Control_c, 0, 64, 77
1, 111151, Note_off_c, 0, 53, 64
1, 111261, Note_on_c, 0, 70, 89
1, 111264, Note_on_c, 0, 57, 71
1, 111273, Note_off_c, 0, 55, 65
1, 111273, Control_c, 0, 64, 76
1, 111288, Control_c, 0, 64, 76
1, 111305, Note_off_c, 0, 74, 62
1, 111347, Control_c, 0, 64, 75
1, 111362, Control_c, 0, 64, 75
1, 111377, Control_c, 0, 64, 74
1, 111391, Control_c, 0, 64, 74
1, 111411, Note_on_c, 0, 67, 96
1, 111411, Note_on_c, 0, 58, 75
1, 111420, Note_off_c, 0, 57, 60
1, 111436, Control_c, 0, 64, 73
1, 111446, Note_off_c, 0, 70, 62
1, 111451, Control_c, 0, 64, 72
1, 111464, Note_off_c, 0, 58, 62
1, 111465, Control_c, 0, 64, 72
1, 111480, Control_c, 0, 64, 71
1, 111510, Control_c, 0, 64, 70
1, 111524, Control_c, 0, 64, 64
1, 111539, Control_c, 0, 64, 52
1, 111554, Control_c, 0, 64, 0
1, 111576, Note_on_c, 0, 57, 31
1, 111586, Note_on_c, 0, 72, 77
1, 111589, Note_on_c, 0, 48, 56
1, 111590, Note_on_c, 0, 60, 67
1, 111637, Note_off_c, 0, 67, 62
1, 111762, Control_c, 0, 64, 17
1, 111777, Control_c, 0, 64, 28
1, 111791, Control_c, 0, 64, 34
1, 111813, Control_c, 0, 64, 38
1, 111828, Control_c, 0, 64, 45
1, 111843, Control_c, 0, 64, 52
1, 111857, Note_off_c, 0, 60, 55
1, 111858, Control_c, 0, 64, 58
1, 111873, Control_c, 0, 64, 62
1, 111886, Note_on_c, 0, 69, 80
1, 111887, Control_c, 0, 64, 66
1, 111901, Note_off_c, 0, 72, 54
1, 111902, Control_c, 0, 64, 71
1, 111917, Control_c, 0, 64, 73
1, 112047, Note_on_c, 0, 65, 81
1, 112059, Note_off_c, 0, 69, 60
1, 112155, Control_c, 0, 64, 72
1, 112170, Control_c, 0, 64, 70
1, 112185, Control_c, 0, 64, 65
1, 112200, Control_c, 0, 64, 59
1, 112214, Control_c, 0, 64, 39
1, 112229, Control_c, 0, 64, 0
1, 112230, Note_on_c, 0, 70, 72
1, 112242, Note_on_c, 0, 58, 47
1, 112246, Note_on_c, 0, 55, 45
1, 112291, Note_off_c, 0, 65, 57
1, 112317, Note_off_c, 0, 57, 45
1, 112347, Control_c, 0, 64, 17
1, 112362, Control_c, 0, 64, 34
1, 112377, Control_c, 0, 64, 46
1, 112392, Control_c, 0, 64, 56
1, 112407, Control_c, 0, 64, 60
1, 112421, Control_c, 0, 64, 61
1, 112436, Control_c, 0, 64, 61
1, 112451, Control_c, 0, 64, 63
1, 112454, Note_off_c, 0, 48, 43
1, 112466, Control_c, 0, 64, 64
1, 112481, Control_c, 0, 64, 66
1, 112540, Control_c, 0, 64, 66
1, 112543, Note_on_c, 0, 67, 77
1, 112567, Note_off_c, 0, 70, 59
1, 112577, Control_c, 0, 64, 67
1, 112636, Control_c, 0, 64, 67
1, 112701, Note_on_c, 0, 64, 80
1, 112704, Note_off_c, 0, 67, 62
1, 112704, Note_off_c, 0, 58, 41
1, 112710, Control_c, 0, 64, 68
1, 112725, Control_c, 0, 64, 69
1, 112740, Control_c, 0, 64, 70
1, 112770, Control_c, 0, 64, 69
1, 112785, Control_c, 0, 64, 66
1, 112800, Control_c, 0, 64, 59
1, 112814, Control_c, 0, 64, 43
1, 112829, Control_c, 0, 64, 0
1, 112867, Note_off_c, 0, 55, 43
1, 112878, Note_on_c, 0, 57, 52
1, 112882, Note_on_c, 0, 65, 75
1, 112886, Note_on_c, 0, 53, 43
1, 112896, Note_off_c, 0, 64, 58
1, 112901, Note_on_c, 0, 50, 50
1, 112951, Note_off_c, 0, 57, 62
1, 112970, Note_off_c, 0, 53, 64
1, 112978, Control_c, 0, 64, 24
1, 112985, Note_off_c, 0, 50, 65
1, 112993, Control_c, 0, 64, 38
1, 113008, Control_c, 0, 64, 50
1, 113023, Control_c, 0, 64, 59
1, 113037, Control_c, 0, 64, 61
1, 113053, Note_off_c, 0, 65, 58
1, 113096, Control_c, 0, 64, 61
1, 113111, Control_c, 0, 64, 57
1, 113126, Control_c, 0, 64, 46
1, 113141, Control_c, 0, 64, 0
1, 113196, Note_on_c, 0, 33, 54
1, 113196, Note_on_c, 0, 65, 52
1, 113210, Note_on_c, 0, 41, 46
1, 113354, Note_on_c, 0, 64, 67
1, 113507, Note_on_c, 0, 62, 67
1, 113508, Note_on_c, 0, 34, 45
1, 113512, Note_off_c, 0, 65, 58
1, 113569, Note_off_c, 0, 64, 60
1, 113577, Control_c, 0, 64, 22
1, 113592, Control_c, 0, 64, 31
1, 113606, Control_c, 0, 64, 36
1, 113621, Control_c, 0, 64, 41
1, 113625, Note_off_c, 0, 34, 56
1, 113637, Control_c, 0, 64, 45
1, 113652, Control_c, 0, 64, 48
1, 113654, Note_on_c, 0, 43, 65
1, 113667, Control_c, 0, 64, 49
1, 113680, Note_off_c, 0, 41, 59
1, 113697, Control_c, 0, 64, 48
1, 113707, Note_off_c, 0, 33, 23
1, 113711, Control_c, 0, 64, 49
1, 113726, Control_c, 0, 64, 51
1, 113741, Control_c, 0, 64, 55
1, 113756, Control_c, 0, 64, 58
1, 113771, Control_c, 0, 64, 59
1, 113795, Note_on_c, 0, 58, 71
1, 113800, Control_c, 0, 64, 59
1, 113802, Note_off_c, 0, 43, 61
1, 113815, Note_on_c, 0, 45, 61
1, 113815, Control_c, 0, 64, 58
1, 113834, Note_off_c, 0, 62, 58
1, 113874, Control_c, 0, 64, 59
1, 113939, Note_on_c, 0, 55, 75
1, 113945, Note_on_c, 0, 46, 68
1, 113950, Note_off_c, 0, 45, 61
1, 113959, Note_off_c, 0, 58, 62
1, 113977, Control_c, 0, 64, 58
1, 113981, Note_off_c, 0, 46, 65
1, 113992, Control_c, 0, 64, 58
1, 114007, Control_c, 0, 64, 56
1, 114022, Control_c, 0, 64, 52
1, 114037, Control_c, 0, 64, 43
1, 114052, Control_c, 0, 64, 27
1, 114074, Control_c, 0, 64, 0
1, 114117, Note_on_c, 0, 60, 60
1, 114117, Note_off_c, 0, 55, 53
1, 114139, Note_on_c, 0, 36, 36
1, 114141, Note_on_c, 0, 45, 26
1, 114143, Note_on_c, 0, 48, 41
1, 114311, Control_c, 0, 64, 10
1, 114326, Control_c, 0, 64, 28
1, 114341, Control_c, 0, 64, 38
1, 114356, Control_c, 0, 64, 48
1, 114371, Control_c, 0, 64, 55
1, 114385, Control_c, 0, 64, 59
1, 114400, Control_c, 0, 64, 60
1, 114409, Note_on_c, 0, 57, 59
1, 114415, Control_c, 0, 64, 61
1, 114418, Note_off_c, 0, 48, 44
1, 114474, Note_off_c, 0, 60, 38
1, 114540, Note_off_c, 0, 57, 59
1, 114562, Note_on_c, 0, 53, 60
1, 114668, Control_c, 0, 64, 60
1, 114683, Control_c, 0, 64, 57
1, 114698, Control_c, 0, 64, 46
1, 114713, Control_c, 0, 64, 21
1, 114724, Note_on_c, 0, 58, 57
1, 114727, Control_c, 0, 64, 0
1, 114729, Note_off_c, 0, 53, 54
1, 114746, Note_on_c, 0, 43, 36
1, 114758, Note_on_c, 0, 46, 27
1, 114795, Note_off_c, 0, 45, 43
1, 114928, Control_c, 0, 64, 17
1, 114942, Control_c, 0, 64, 31
1, 114957, Control_c, 0, 64, 42
1, 114972, Control_c, 0, 64, 52
1, 114987, Control_c, 0, 64, 61
1, 114998, Note_off_c, 0, 36, 38
1, 115002, Control_c, 0, 64, 63
1, 115008, Note_off_c, 0, 46, 49
1, 115016, Control_c, 0, 64, 64
1, 115027, Note_on_c, 0, 55, 57
1, 115029, Note_off_c, 0, 58, 51
1, 115031, Control_c, 0, 64, 65
1, 115046, Control_c, 0, 64, 65
1, 115059, Note_off_c, 0, 43, 45
1, 115060, Control_c, 0, 64, 66
1, 115128, Note_off_c, 0, 55, 62
1, 115175, Note_on_c, 0, 52, 51
1, 115214, Note_off_c, 0, 52, 62
1, 115254, Control_c, 0, 64, 65
1, 115269, Control_c, 0, 64, 62
1, 115283, Control_c, 0, 64, 54
1, 115298, Control_c, 0, 64, 33
1, 115298, Control_c, 0, 67, 10
1, 115313, Control_c, 0, 64, 0
1, 115313, Control_c, 0, 67, 16
1, 115326, Note_on_c, 0, 53, 66
1, 115328, Control_c, 0, 67, 26
1, 115332, Note_on_c, 0, 45, 64
1, 115336, Note_on_c, 0, 29, 65
1, 115343, Control_c, 0, 67, 40
1, 115344, Note_on_c, 0, 41, 50
1, 115357, Note_off_c, 0, 45, 64
1, 115357, Note_off_c, 0, 53, 67
1, 115357, Control_c, 0, 67, 62
1, 115370, Note_off_c, 0, 29, 60
1, 115372, Control_c, 0, 67, 82
1, 115375, Note_off_c, 0, 41, 56
1, 115387, Control_c, 0, 67, 101
1, 115402, Control_c, 0, 67, 122
1, 115417, Control_c, 0, 67, 127
1, 115469, Note_on_c, 0, 29, 55
1, 115471, Note_on_c, 0, 41, 52
1, 115486, Note_on_c, 0, 36, 40
1, 115502, Note_off_c, 0, 29, 60
1, 115505, Note_on_c, 0, 45, 19
1, 115506, Note_off_c, 0, 41, 65
1, 115522, Note_off_c, 0, 36, 50
1, 115558, Note_off_c, 0, 45, 42
1, 115616, Note_on_c, 0, 41, 52
1, 115620, Note_on_c, 0, 36, 51
1, 115623, Note_on_c, 0, 29, 46
1, 115625, Note_on_c, 0, 45, 33
1, 115648, Note_off_c, 0, 36, 58
1, 115653, Note_off_c, 0, 41, 62
1, 115655, Note_off_c, 0, 29, 50
1, 115660, Note_off_c, 0, 45, 54
1, 115751, Note_on_c, 0, 45, 54
1, 115751, Note_on_c, 0, 41, 52
1, 115759, Note_on_c, 0, 29, 44
1, 115764, Note_on_c, 0, 36, 44
1, 115789, Note_off_c, 0, 41, 62
1, 115792, Note_off_c, 0, 29, 51
1, 115794, Note_off_c, 0, 36, 55
1, 115800, Note_off_c, 0, 45, 61
1, 115891, Note_on_c, 0, 36, 60
1, 115897, Note_on_c, 0, 29, 48
1, 115903, Note_on_c, 0, 41, 44
1, 115903, Note_on_c, 0, 45, 54
1, 115921, Note_off_c, 0, 36, 64
1, 115931, Note_off_c, 0, 29, 56
1, 115935, Note_off_c, 0, 41, 62
1, 115936, Note_off_c, 0, 45, 63
1, 116033, Note_on_c, 0, 41, 50
1, 116034, Note_on_c, 0, 29, 50
1, 116037, Note_on_c, 0, 36, 50
1, 116040, Note_on_c, 0, 45, 49
1, 116065, Note_off_c, 0, 36, 58
1, 116068, Note_off_c, 0, 29, 58
1, 116070, Note_off_c, 0, 41, 63
1, 116077, Note_off_c, 0, 45, 62
1, 116168, Note_on_c, 0, 29, 56
1, 116168, Note_on_c, 0, 36, 57
1, 116180, Note_on_c, 0, 45, 46
1, 116182, Note_on_c, 0, 41, 41
1, 116198, Note_off_c, 0, 36, 64
1, 116203, Note_off_c, 0, 29, 60
1, 116214, Note_off_c, 0, 41, 59
1, 116215, Note_off_c, 0, 45, 63
1, 116316, Note_on_c, 0, 29, 54
1, 116317, Note_on_c, 0, 36, 52
1, 116320, Note_on_c, 0, 41, 50
1, 116323, Note_on_c, 0, 45, 53
1, 116345, Note_off_c, 0, 36, 59
1, 116350, Note_off_c, 0, 29, 59
1, 116356, Note_off_c, 0, 41, 63
1, 116361, Note_off_c, 0, 45, 61
1, 116456, Note_on_c, 0, 29, 50
1, 116457, Note_on_c, 0, 41, 47
1, 116457, Note_on_c, 0, 45, 49
1, 116460, Note_on_c, 0, 36, 46
1, 116489, Note_off_c, 0, 29, 55
1, 116490, Note_off_c, 0, 36, 51
1, 116493, Note_off_c, 0, 41, 64
1, 116497, Note_off_c, 0, 45, 62
1, 116588, Note_on_c, 0, 36, 57
1, 116594, Note_on_c, 0, 45, 49
1, 116596, Note_on_c, 0, 41, 48
1, 116597, Note_on_c, 0, 29, 42
1, 116618, Note_off_c, 0, 36, 63
1, 116629, Note_off_c, 0, 41, 63
1, 116630, Note_off_c, 0, 45, 62
1, 116636, Note_off_c, 0, 29, 42
1, 116731, Note_on_c, 0, 29, 44
1, 116731, Note_on_c, 0, 41, 45
1, 116734, Note_on_c, 0, 36, 45
1, 116734, Note_on_c, 0, 45, 43
1, 116766, Note_off_c, 0, 41, 59
1, 116767, Note_off_c, 0, 36, 49
1, 116768, Note_off_c, 0, 29, 45
1, 116771, Note_off_c, 0, 45, 61
1, 116866, Note_on_c, 0, 41, 49
1, 116868, Note_on_c, 0, 45, 49
1, 116873, Note_on_c, 0, 36, 49
1, 116874, Note_on_c, 0, 29, 44
1, 116902, Note_off_c, 0, 36, 53
1, 116903, Note_off_c, 0, 41, 63
1, 116907, Note_off_c, 0, 29, 47
1, 116911, Note_off_c, 0, 45, 59
1, 117010, Note_on_c, 0, 41, 46
1, 117011, Note_on_c, 0, 45, 46
1, 117017, Note_on_c, 0, 36, 44
1, 117018, Note_on_c, 0, 29, 40
1, 117042, Note_off_c, 0, 41, 59
1, 117050, Note_off_c, 0, 36, 48
1, 117051, Note_off_c, 0, 45, 60
1, 117067, Note_off_c, 0, 29, 42
1, 117151, Note_on_c, 0, 45, 54
1, 117155, Note_on_c, 0, 36, 57
1, 117156, Note_on_c, 0, 41, 38
1, 117159, Note_on_c, 0, 29, 53
1, 117184, Note_off_c, 0, 36, 61
1, 117192, Note_off_c, 0, 29, 54
1, 117192, Note_off_c, 0, 41, 50
1, 117201, Note_off_c, 0, 45, 56
1, 117292, Note_on_c, 0, 29, 53
1, 117293, Note_on_c, 0, 47, 56
1, 117304, Note_on_c, 0, 43, 32
1, 117310, Note_on_c, 0, 38, 43
1, 117326, Note_off_c, 0, 29, 53
1, 117331, Note_off_c, 0, 47, 63
1, 117343, Note_off_c, 0, 43, 49
1, 117345, Note_off_c, 0, 38, 53
1, 117432, Note_on_c, 0, 29, 57
1, 117432, Note_on_c, 0, 47, 57
1, 117433, Note_on_c, 0, 38, 63
1, 117462, Note_off_c, 0, 38, 63
1, 117463, Note_off_c, 0, 29, 57
1, 117463, Note_off_c, 0, 47, 65
1, 117514, Poly_aftertouch_c, 0, 43, 0
1, 117577, Note_on_c, 0, 48, 57
1, 117587, Note_on_c, 0, 40, 52
1, 117617, Note_off_c, 0, 40, 55
1, 117617, Note_on_c, 0, 43, 12
1, 117618, Note_off_c, 0, 43, 127
1, 117715, Note_on_c, 0, 40, 52
1, 117743, Note_off_c, 0, 40, 58
1, 117748, Note_on_c, 0, 43, 12
1, 117796, Note_off_c, 0, 43, 26
1, 117857, Note_on_c, 0, 40, 53
1, 117885, Note_off_c, 0, 40, 58
1, 117977, Note_off_c, 0, 48, 42
1, 118000, Note_on_c, 0, 40, 49
1, 118007, Note_on_c, 0, 52, 58
1, 118028, Note_off_c, 0, 40, 59
1, 118074, Note_on_c, 0, 50, 50
1, 118078, Note_off_c, 0, 52, 50
1, 118130, Note_on_c, 0, 48, 57
1, 118134, Note_on_c, 0, 40, 59
1, 118149, Note_off_c, 0, 50, 56
1, 118165, Note_off_c, 0, 40, 65
1, 118168, Note_off_c, 0, 48, 67
1, 118267, Note_on_c, 0, 40, 58
1, 118296, Note_off_c, 0, 40, 61
1, 118307, Poly_aftertouch_c, 0, 43, 127
1, 118356, Poly_aftertouch_c, 0, 43, 0
1, 118404, Note_on_c, 0, 40, 53
1, 118432, Note_off_c, 0, 40, 58
1, 118538, Note_on_c, 0, 40, 57
1, 118574, Note_off_c, 0, 40, 61
1, 118581, Note_on_c, 0, 43, 22
1, 118625, Note_off_c, 0, 43, 45
1, 118666, Note_on_c, 0, 78, 63
1, 118690, Note_on_c, 0, 39, 56
1, 118692, Note_on_c, 0, 79, 65
1, 118708, Note_off_c, 0, 78, 63
1, 118714, Note_off_c, 0, 39, 60
1, 118731, Note_on_c, 0, 43, 4
1, 118732, Note_off_c, 0, 43, 127
1, 118818, Note_on_c, 0, 39, 58
1, 118847, Note_on_c, 0, 43, 19
1, 118851, Note_off_c, 0, 39, 66
1, 118891, Note_off_c, 0, 43, 38
1, 118964, Note_on_c, 0, 43, 63
1, 118974, Note_on_c, 0, 39, 50
1, 118992, Note_off_c, 0, 43, 63
1, 119001, Note_off_c, 0, 39, 57
1, 119007, Note_off_c, 0, 79, 55
1, 119036, Note_on_c, 0, 77, 55
1, 119102, Note_on_c, 0, 39, 51
1, 119106, Note_on_c, 0, 75, 55
1, 119110, Note_on_c, 0, 43, 41
1, 119133, Note_off_c, 0, 39, 60
1, 119136, Note_off_c, 0, 77, 51
1, 119146, Note_off_c, 0, 43, 49
1, 119178, Note_on_c, 0, 74, 56
1, 119203, Note_off_c, 0, 75, 57
1, 119242, Note_on_c, 0, 43, 47
1, 119244, Note_on_c, 0, 39, 49
1, 119257, Note_on_c, 0, 72, 56
1, 119260, Note_off_c, 0, 74, 60
1, 119274, Note_off_c, 0, 39, 58
1, 119274, Note_off_c, 0, 43, 54
1, 119380, Note_off_c, 0, 72, 61
1, 119389, Note_on_c, 0, 39, 56
1, 119393, Note_on_c, 0, 43, 47
1, 119423, Note_off_c, 0, 39, 65
1, 119423, Note_off_c, 0, 43, 54
1, 119525, Note_on_c, 0, 43, 46
1, 119527, Note_on_c, 0, 39, 56
1, 119554, Note_off_c, 0, 39, 65
1, 119557, Note_off_c, 0, 43, 52
1, 119664, Note_on_c, 0, 43, 48
1, 119667, Note_on_c, 0, 39, 49
1, 119694, Note_off_c, 0, 43, 55
1, 119695, Note_off_c, 0, 39, 56
1, 119818, Note_on_c, 0, 54, 55
1, 119826, Note_on_c, 0, 45, 54
1, 119827, Note_on_c, 0, 38, 53
1, 119852, Note_off_c, 0, 45, 58
1, 119855, Note_off_c, 0, 38, 57
1, 119958, Note_on_c, 0, 38, 53
1, 119963, Note_on_c, 0, 45, 41
1, 119987, Note_off_c, 0, 38, 58
1, 119995, Note_off_c, 0, 45, 49
1, 120109, Note_on_c, 0, 38, 45
1, 120110, Note_on_c, 0, 45, 42
1, 120142, Note_off_c, 0, 38, 51
1, 120142, Note_off_c, 0, 45, 51
1, 120242, Note_on_c, 0, 45, 52
1, 120243, Note_off_c, 0, 54, 52
1, 120249, Note_on_c, 0, 38, 44
1, 120252, Note_on_c, 0, 57, 58
1, 120268, Note_off_c, 0, 45, 61
1, 120281, Note_off_c, 0, 38, 51
1, 120322, Note_on_c, 0, 55, 56
1, 120350, Note_off_c, 0, 57, 55
1, 120381, Note_on_c, 0, 45, 54
1, 120383, Note_on_c, 0, 54, 56
1, 120388, Note_on_c, 0, 38, 50
1, 120396, Note_off_c, 0, 55, 64
1, 120407, Note_off_c, 0, 45, 63
1, 120416, Note_off_c, 0, 38, 57
1, 120434, Note_off_c, 0, 54, 63
1, 120516, Note_on_c, 0, 45, 59
1, 120518, Note_on_c, 0, 38, 53
1, 120547, Note_off_c, 0, 38, 57
1, 120547, Note_off_c, 0, 45, 63
1, 120653, Note_on_c, 0, 45, 55
1, 120661, Note_on_c, 0, 38, 42
1, 120678, Note_off_c, 0, 45, 62
1, 120696, Note_off_c, 0, 38, 46
1, 120791, Note_on_c, 0, 45, 51
1, 120791, Note_on_c, 0, 38, 52
1, 120827, Note_off_c, 0, 38, 58
1, 120828, Note_off_c, 0, 45, 65
1, 120936, Note_on_c, 0, 86, 65
1, 120946, Note_on_c, 0, 42, 67
1, 120950, Note_on_c, 0, 50, 59
1, 120955, Note_on_c, 0, 87, 68
1, 120970, Note_off_c, 0, 42, 59
1, 120973, Note_off_c, 0, 50, 64
1, 120988, Note_off_c, 0, 86, 60
1, 121077, Note_on_c, 0, 42, 54
1, 121083, Note_on_c, 0, 50, 57
1, 121105, Note_off_c, 0, 50, 63
1, 121110, Note_off_c, 0, 42, 63
1, 121233, Note_on_c, 0, 42, 49
1, 121233, Note_on_c, 0, 50, 48
1, 121258, Note_off_c, 0, 50, 54
1, 121261, Note_off_c, 0, 42, 54
1, 121302, Note_on_c, 0, 86, 63
1, 121310, Note_off_c, 0, 87, 52
1, 121360, Note_on_c, 0, 50, 53
1, 121361, Note_on_c, 0, 42, 44
1, 121384, Note_off_c, 0, 50, 62
1, 121387, Note_on_c, 0, 84, 59
1, 121391, Note_off_c, 0, 42, 53
1, 121408, Note_off_c, 0, 86, 54
1, 121438, Note_on_c, 0, 82, 59
1, 121462, Note_off_c, 0, 84, 60
1, 121505, Note_on_c, 0, 42, 44
1, 121517, Note_on_c, 0, 50, 42
1, 121519, Note_off_c, 0, 82, 61
1, 121525, Note_on_c, 0, 81, 56
1, 121534, Note_off_c, 0, 42, 56
1, 121555, Note_off_c, 0, 50, 47
1, 121659, Note_on_c, 0, 42, 42
1, 121659, Note_on_c, 0, 50, 52
1, 121660, Note_off_c, 0, 81, 60
1, 121683, Note_off_c, 0, 50, 60
1, 121689, Note_off_c, 0, 42, 50
1, 121797, Note_on_c, 0, 42, 43
1, 121800, Note_on_c, 0, 50, 50
1, 121825, Note_off_c, 0, 50, 56
1, 121829, Note_off_c, 0, 42, 49
1, 121933, Note_on_c, 0, 42, 48
1, 121939, Note_on_c, 0, 50, 53
1, 121962, Note_off_c, 0, 42, 59
1, 121963, Note_off_c, 0, 50, 60
1, 122085, Note_on_c, 0, 58, 54
1, 122091, Note_on_c, 0, 43, 55
1, 122127, Note_off_c, 0, 43, 63
1, 122171, Note_on_c, 0, 50, 56
1, 122201, Note_off_c, 0, 50, 59
1, 122213, Note_off_c, 0, 58, 47
1, 122228, Note_on_c, 0, 62, 58
1, 122249, Note_on_c, 0, 43, 45
1, 122282, Note_off_c, 0, 43, 54
1, 122288, Note_on_c, 0, 60, 59
1, 122314, Note_on_c, 0, 50, 55
1, 122336, Note_off_c, 0, 62, 58
1, 122344, Note_off_c, 0, 50, 58
1, 122368, Note_on_c, 0, 58, 63
1, 122378, Note_off_c, 0, 60, 63
1, 122382, Note_on_c, 0, 43, 42
1, 122408, Note_off_c, 0, 58, 65
1, 122414, Note_off_c, 0, 43, 57
1, 122447, Note_on_c, 0, 50, 57
1, 122478, Note_off_c, 0, 50, 56
1, 122502, Note_on_c, 0, 43, 56
1, 122552, Note_off_c, 0, 43, 61
1, 122571, Note_on_c, 0, 50, 59
1, 122631, Note_off_c, 0, 50, 57
1, 122663, Note_on_c, 0, 45, 56
1, 122664, Note_on_c, 0, 84, 65
1, 122702, Note_off_c, 0, 45, 63
1, 122721, Note_on_c, 0, 82, 67
1, 122728, Note_on_c, 0, 50, 53
1, 122751, Note_off_c, 0, 84, 63
1, 122771, Note_off_c, 0, 50, 55
1, 122789, Note_on_c, 0, 81, 64
1, 122802, Note_on_c, 0, 45, 50
1, 122819, Note_off_c, 0, 82, 65
1, 122839, Note_off_c, 0, 45, 64
1, 122857, Note_on_c, 0, 79, 57
1, 122867, Note_on_c, 0, 50, 56
1, 122868, Note_off_c, 0, 81, 60
1, 122905, Note_off_c, 0, 50, 55
1, 122921, Note_on_c, 0, 78, 67
1, 122927, Note_off_c, 0, 79, 60
1, 122942, Note_on_c, 0, 45, 47
1, 122970, Note_off_c, 0, 45, 61
1, 122982, Note_off_c, 0, 78, 65
1, 123015, Note_on_c, 0, 50, 42
1, 123052, Note_off_c, 0, 50, 50
1, 123069, Note_on_c, 0, 45, 56
1, 123116, Note_off_c, 0, 45, 59
1, 123142, Note_on_c, 0, 50, 57
1, 123189, Note_off_c, 0, 50, 61
1, 123209, Note_on_c, 0, 46, 59
1, 123213, Note_on_c, 0, 67, 66
1, 123254, Note_off_c, 0, 46, 65
1, 123298, Note_on_c, 0, 50, 50
1, 123337, Note_off_c, 0, 50, 51
1, 123341, Note_off_c, 0, 67, 55
1, 123357, Note_on_c, 0, 46, 61
1, 123367, Note_on_c, 0, 70, 57
1, 123402, Note_off_c, 0, 46, 65
1, 123415, Note_on_c, 0, 69, 61
1, 123438, Note_on_c, 0, 50, 54
1, 123468, Note_off_c, 0, 70, 56
1, 123480, Note_off_c, 0, 50, 62
1, 123491, Note_on_c, 0, 67, 65
1, 123495, Note_off_c, 0, 69, 64
1, 123511, Note_on_c, 0, 46, 53
1, 123527, Note_off_c, 0, 67, 63
1, 123546, Note_off_c, 0, 46, 66
1, 123580, Note_on_c, 0, 50, 58
1, 123621, Note_off_c, 0, 50, 59
1, 123647, Note_on_c, 0, 46, 54
1, 123687, Note_off_c, 0, 46, 65
1, 123720, Note_on_c, 0, 50, 46
1, 123752, Note_off_c, 0, 50, 54
1, 123790, Note_on_c, 0, 42, 57
1, 123803, Note_on_c, 0, 87, 64
1, 123839, Note_off_c, 0, 42, 60
1, 123865, Note_on_c, 0, 86, 63
1, 123871, Note_on_c, 0, 50, 53
1, 123883, Note_off_c, 0, 87, 57
1, 123922, Note_off_c, 0, 50, 56
1, 123947, Note_on_c, 0, 84, 59
1, 123951, Note_on_c, 0, 42, 50
1, 123966, Note_off_c, 0, 86, 57
1, 123993, Note_on_c, 0, 82, 57
1, 123996, Note_off_c, 0, 42, 60
1, 124024, Note_off_c, 0, 84, 59
1, 124029, Note_on_c, 0, 50, 52
1, 124067, Note_off_c, 0, 50, 56
1, 124075, Note_on_c, 0, 81, 66
1, 124090, Note_off_c, 0, 82, 63
1, 124098, Note_on_c, 0, 42, 55
1, 124103, Note_off_c, 0, 81, 67
1, 124142, Note_off_c, 0, 42, 59
1, 124170, Note_on_c, 0, 50, 56
1, 124209, Note_off_c, 0, 50, 60
1, 124228, Note_on_c, 0, 42, 59
1, 124277, Note_off_c, 0, 42, 55
1, 124321, Note_on_c, 0, 50, 27
1, 124356, Note_off_c, 0, 50, 49
1, 124366, Note_on_c, 0, 58, 60
1, 124381, Note_on_c, 0, 43, 55
1, 124427, Note_off_c, 0, 43, 57
1, 124448, Note_on_c, 0, 50, 60
1, 124492, Note_off_c, 0, 50, 58
1, 124500, Note_off_c, 0, 58, 56
1, 124515, Note_on_c, 0, 43, 55
1, 124517, Note_on_c, 0, 62, 62
1, 124566, Note_off_c, 0, 43, 63
1, 124593, Note_on_c, 0, 60, 56
1, 124608, Note_on_c, 0, 50, 50
1, 124637, Note_off_c, 0, 50, 56
1, 124640, Note_off_c, 0, 62, 55
1, 124665, Note_on_c, 0, 58, 65
1, 124666, Note_on_c, 0, 43, 50
1, 124679, Note_off_c, 0, 60, 64
1, 124699, Note_off_c, 0, 43, 62
1, 124707, Note_off_c, 0, 58, 65
1, 124736, Note_on_c, 0, 50, 52
1, 124771, Note_off_c, 0, 50, 56
1, 124787, Note_on_c, 0, 43, 57
1, 124840, Note_off_c, 0, 43, 59
1, 124869, Note_on_c, 0, 50, 58
1, 124923, Note_off_c, 0, 50, 56
1, 124953, Note_on_c, 0, 45, 57
1, 124957, Note_on_c, 0, 84, 66
1, 124993, Note_off_c, 0, 45, 62
1, 125015, Note_on_c, 0, 82, 66
1, 125031, Note_on_c, 0, 50, 56
1, 125048, Note_off_c, 0, 84, 62
1, 125075, Note_off_c, 0, 50, 57
1, 125080, Note_on_c, 0, 81, 67
1, 125100, Note_on_c, 0, 45, 49
1, 125111, Note_off_c, 0, 82, 63
1, 125138, Note_off_c, 0, 45, 63
1, 125143, Note_on_c, 0, 79, 65
1, 125166, Note_off_c, 0, 81, 61
1, 125177, Note_on_c, 0, 50, 54
1, 125215, Note_on_c, 0, 78, 76
1, 125215, Note_off_c, 0, 50, 52
1, 125223, Note_off_c, 0, 79, 63
1, 125234, Note_on_c, 0, 45, 56
1, 125268, Note_off_c, 0, 78, 67
1, 125271, Note_off_c, 0, 45, 64
1, 125317, Note_on_c, 0, 50, 61
1, 125370, Note_on_c, 0, 45, 62
1, 125380, Note_off_c, 0, 50, 62
1, 125438, Note_off_c, 0, 45, 61
1, 125451, Note_on_c, 0, 50, 52
1, 125505, Note_off_c, 0, 50, 61
1, 125524, Note_on_c, 0, 46, 65
1, 125525, Note_on_c, 0, 74, 88
1, 125570, Note_off_c, 0, 46, 63
1, 125573, Control_c, 0, 67, 119
1, 125588, Control_c, 0, 67, 103
1, 125597, Note_on_c, 0, 50, 69
1, 125602, Note_on_c, 0, 72, 78
1, 125602, Control_c, 0, 67, 82
1, 125618, Control_c, 0, 67, 62
1, 125632, Control_c, 0, 67, 46
1, 125637, Note_off_c, 0, 74, 64
1, 125641, Note_off_c, 0, 50, 63
1, 125647, Control_c, 0, 67, 41
1, 125657, Note_on_c, 0, 70, 79
1, 125662, Note_on_c, 0, 46, 64
1, 125662, Control_c, 0, 67, 36
1, 125677, Control_c, 0, 67, 26
1, 125692, Control_c, 0, 67, 12
1, 125697, Note_off_c, 0, 46, 68
1, 125701, Note_off_c, 0, 72, 61
1, 125707, Control_c, 0, 67, 0
1, 125729, Note_on_c, 0, 50, 63
1, 125730, Note_on_c, 0, 69, 83
1, 125764, Note_off_c, 0, 50, 64
1, 125770, Note_off_c, 0, 70, 59
1, 125787, Note_on_c, 0, 46, 83
1, 125794, Note_on_c, 0, 67, 84
1, 125820, Note_off_c, 0, 69, 64
1, 125844, Note_off_c, 0, 67, 65
1, 125848, Note_off_c, 0, 46, 65
1, 125876, Note_on_c, 0, 55, 70
1, 125907, Note_off_c, 0, 55, 67
1, 125931, Note_on_c, 0, 46, 74
1, 125994, Note_on_c, 0, 55, 72
1, 125996, Note_off_c, 0, 46, 62
1, 126059, Note_off_c, 0, 55, 64
1, 126069, Note_on_c, 0, 80, 99
1, 126080, Note_on_c, 0, 47, 81
1, 126137, Note_on_c, 0, 79, 96
1, 126144, Note_on_c, 0, 55, 89
1, 126157, Note_off_c, 0, 47, 64
1, 126159, Note_off_c, 0, 80, 62
1, 126193, Note_off_c, 0, 79, 58
1, 126221, Note_on_c, 0, 47, 83
1, 126224, Note_on_c, 0, 77, 93
1, 126232, Note_off_c, 0, 55, 61
1, 126286, Note_on_c, 0, 55, 78
1, 126295, Note_on_c, 0, 75, 94
1, 126304, Note_off_c, 0, 47, 63
1, 126313, Poly_aftertouch_c, 0, 53, 127
1, 126314, Note_off_c, 0, 77, 64
1, 126359, Note_on_c, 0, 74, 98
1, 126366, Note_on_c, 0, 47, 89
1, 126382, Note_off_c, 0, 55, 60
1, 126402, Note_off_c, 0, 75, 58
1, 126439, Note_on_c, 0, 55, 77
1, 126455, Note_off_c, 0, 47, 64
1, 126461, Note_off_c, 0, 74, 66
1, 126515, Note_on_c, 0, 47, 82
1, 126530, Note_off_c, 0, 55, 66
1, 126588, Note_on_c, 0, 55, 75
1, 126601, Note_off_c, 0, 47, 64
1, 126652, Poly_aftertouch_c, 0, 53, 0
1, 126707, Control_c, 0, 67, 10
1, 126722, Control_c, 0, 67, 18
1, 126732, Note_off_c, 0, 55, 32
1, 126737, Control_c, 0, 67, 29
1, 126752, Control_c, 0, 67, 41
1, 126766, Note_on_c, 0, 48, 55
1, 126766, Control_c, 0, 67, 46
1, 126768, Note_on_c, 0, 63, 57
1, 126789, Control_c, 0, 67, 50
1, 126804, Control_c, 0, 67, 53
1, 126819, Control_c, 0, 67, 58
1, 126822, Note_off_c, 0, 48, 60
1, 126834, Control_c, 0, 67, 68
1, 126848, Control_c, 0, 67, 79
1, 126858, Note_on_c, 0, 55, 54
1, 126863, Control_c, 0, 67, 85
1, 126878, Control_c, 0, 67, 87
1, 126888, Note_off_c, 0, 63, 52
1, 126890, Note_off_c, 0, 55, 62
1, 126893, Control_c, 0, 67, 88
1, 126908, Control_c, 0, 67, 88
1, 126918, Note_on_c, 0, 67, 63
1, 126922, Control_c, 0, 67, 91
1, 126932, Note_on_c, 0, 48, 57
1, 126937, Control_c, 0, 67, 96
1, 126952, Control_c, 0, 67, 102
1, 126965, Note_off_c, 0, 48, 66
1, 126966, Control_c, 0, 67, 104
1, 126987, Note_on_c, 0, 55, 60
1, 127002, Note_on_c, 0, 65, 64
1, 127025, Note_off_c, 0, 67, 54
1, 127025, Note_off_c, 0, 55, 62
1, 127063, Note_on_c, 0, 63, 60
1, 127070, Note_on_c, 0, 48, 49
1, 127083, Note_off_c, 0, 65, 65
1, 127097, Note_off_c, 0, 48, 60
1, 127125, Note_off_c, 0, 63, 66
1, 127130, Note_on_c, 0, 55, 56
1, 127161, Note_off_c, 0, 55, 56
1, 127177, Note_on_c, 0, 48, 66
1, 127233, Note_off_c, 0, 48, 60
1, 127251, Note_on_c, 0, 55, 61
1, 127263, Control_c, 0, 67, 103
1, 127305, Note_off_c, 0, 55, 58
1, 127308, Control_c, 0, 67, 103
1, 127343, Note_on_c, 0, 77, 66
1, 127346, Note_on_c, 0, 50, 48
1, 127375, Note_off_c, 0, 50, 59
1, 127397, Control_c, 0, 67, 101
1, 127407, Note_on_c, 0, 55, 58
1, 127409, Note_on_c, 0, 75, 64
1, 127428, Note_off_c, 0, 77, 56
1, 127453, Note_off_c, 0, 55, 54
1, 127457, Control_c, 0, 67, 101
1, 127471, Control_c, 0, 67, 102
1, 127480, Note_on_c, 0, 50, 50
1, 127482, Note_on_c, 0, 74, 60
1, 127501, Control_c, 0, 67, 102
1, 127502, Note_off_c, 0, 75, 58
1, 127512, Note_off_c, 0, 50, 59
1, 127516, Control_c, 0, 67, 103
1, 127537, Control_c, 0, 67, 103
1, 127555, Note_on_c, 0, 72, 65
1, 127558, Note_on_c, 0, 55, 52
1, 127558, Note_off_c, 0, 74, 62
1, 127597, Note_off_c, 0, 55, 49
1, 127624, Note_on_c, 0, 50, 54
1, 127630, Note_on_c, 0, 71, 64
1, 127630, Note_off_c, 0, 72, 59
1, 127657, Note_off_c, 0, 50, 62
1, 127671, Control_c, 0, 67, 104
1, 127672, Note_off_c, 0, 71, 64
1, 127686, Control_c, 0, 67, 105
1, 127697, Note_on_c, 0, 55, 54
1, 127701, Control_c, 0, 67, 105
1, 127746, Note_off_c, 0, 55, 52
1, 127755, Note_on_c, 0, 50, 60
1, 127800, Note_off_c, 0, 50, 61
1, 127835, Note_on_c, 0, 55, 50
1, 127887, Note_off_c, 0, 55, 61
1, 127907, Note_on_c, 0, 51, 52
1, 127919, Note_on_c, 0, 60, 60
1, 127952, Note_off_c, 0, 51, 63
1, 127996, Note_on_c, 0, 55, 53
1, 127997, Control_c, 0, 67, 105
1, 128013, Control_c, 0, 67, 104
1, 128038, Note_off_c, 0, 55, 52
1, 128045, Note_off_c, 0, 60, 54
1, 128068, Note_on_c, 0, 51, 51
1, 128072, Note_on_c, 0, 63, 57
1, 128100, Note_off_c, 0, 51, 65
1, 128117, Control_c, 0, 67, 104
1, 128129, Note_on_c, 0, 62, 60
1, 128133, Note_on_c, 0, 55, 54
1, 128167, Note_off_c, 0, 55, 59
1, 128173, Note_off_c, 0, 63, 60
1, 128176, Control_c, 0, 67, 103
1, 128193, Note_on_c, 0, 51, 58
1, 128202, Note_on_c, 0, 60, 63
1, 128212, Note_off_c, 0, 62, 63
1, 128235, Control_c, 0, 67, 103
1, 128239, Note_off_c, 0, 51, 62
1, 128248, Note_off_c, 0, 60, 62
1, 128270, Note_on_c, 0, 55, 56
1, 128315, Note_off_c, 0, 55, 64
1, 128353, Note_on_c, 0, 51, 36
1, 128383, Note_off_c, 0, 51, 56
1, 128391, Control_c, 0, 67, 103
1, 128401, Note_on_c, 0, 55, 64
1, 128452, Note_off_c, 0, 55, 55
1, 128479, Control_c, 0, 67, 104
1, 128506, Note_on_c, 0, 47, 54
1, 128508, Note_on_c, 0, 80, 69
1, 128509, Control_c, 0, 67, 104
1, 128538, Control_c, 0, 67, 105
1, 128553, Control_c, 0, 67, 106
1, 128555, Note_off_c, 0, 47, 62
1, 128563, Note_on_c, 0, 79, 64
1, 128568, Control_c, 0, 67, 107
1, 128577, Note_on_c, 0, 55, 57
1, 128583, Control_c, 0, 67, 108
1, 128595, Note_off_c, 0, 80, 57
1, 128598, Control_c, 0, 67, 109
1, 128612, Control_c, 0, 67, 110
1, 128618, Note_off_c, 0, 55, 60
1, 128627, Control_c, 0, 67, 112
1, 128640, Note_on_c, 0, 77, 65
1, 128642, Control_c, 0, 67, 114
1, 128656, Note_on_c, 0, 47, 56
1, 128657, Control_c, 0, 67, 117
1, 128664, Note_off_c, 0, 79, 58
1, 128672, Control_c, 0, 67, 120
1, 128686, Control_c, 0, 67, 123
1, 128691, Note_off_c, 0, 47, 62
1, 128701, Control_c, 0, 67, 125
1, 128711, Note_on_c, 0, 75, 60
1, 128716, Note_off_c, 0, 77, 59
1, 128716, Control_c, 0, 67, 126
1, 128722, Note_on_c, 0, 55, 60
1, 128766, Note_off_c, 0, 55, 57
1, 128777, Note_on_c, 0, 74, 66
1, 128791, Note_on_c, 0, 47, 51
1, 128794, Note_off_c, 0, 75, 56
1, 128827, Note_off_c, 0, 74, 63
1, 128845, Note_off_c, 0, 47, 63
1, 128885, Note_on_c, 0, 55, 54
1, 128914, Note_off_c, 0, 55, 53
1, 128941, Note_on_c, 0, 47, 60
1, 128974, Note_off_c, 0, 47, 65
1, 128983, Control_c, 0, 67, 125
1, 128996, Note_on_c, 0, 55, 58
1, 129049, Note_off_c, 0, 55, 56
1, 129084, Note_on_c, 0, 63, 60
1, 129090, Note_on_c, 0, 48, 50
1, 129110, Control_c, 0, 67, 125
1, 129124, Control_c, 0, 67, 124
1, 129125, Note_off_c, 0, 48, 63
1, 129157, Note_on_c, 0, 55, 54
1, 129191, Note_off_c, 0, 63, 0
1, 129191, Note_on_c, 0, 63, 3
1, 129194, Note_off_c, 0, 55, 55
1, 129198, Control_c, 0, 67, 124
1, 129222, Note_on_c, 0, 48, 55
1, 129228, Note_on_c, 0, 67, 63
1, 129228, Control_c, 0, 67, 123
1, 129230, Note_off_c, 0, 63, 50
1, 129260, Note_off_c, 0, 48, 63
1, 129295, Note_on_c, 0, 55, 54
1, 129299, Note_on_c, 0, 65, 62
1, 129334, Note_off_c, 0, 55, 60
1, 129346, Note_off_c, 0, 67, 56
1, 129362, Note_on_c, 0, 48, 52
1, 129364, Note_on_c, 0, 63, 65
1, 129384, Note_off_c, 0, 65, 64
1, 129393, Note_off_c, 0, 48, 64
1, 129406, Control_c, 0, 67, 123
1, 129421, Note_off_c, 0, 63, 66
1, 129426, Note_on_c, 0, 55, 62
1, 129435, Control_c, 0, 67, 122
1, 129465, Control_c, 0, 67, 122
1, 129467, Note_off_c, 0, 55, 58
1, 129489, Note_on_c, 0, 48, 57
1, 129538, Note_off_c, 0, 48, 60
1, 129570, Note_on_c, 0, 55, 57
1, 129598, Control_c, 0, 67, 121
1, 129614, Control_c, 0, 67, 120
1, 129621, Note_off_c, 0, 55, 59
1, 129629, Control_c, 0, 67, 120
1, 129644, Control_c, 0, 67, 119
1, 129649, Note_on_c, 0, 50, 54
1, 129653, Note_on_c, 0, 77, 71
1, 129658, Control_c, 0, 67, 118
1, 129673, Control_c, 0, 67, 117
1, 129682, Note_off_c, 0, 50, 64
1, 129688, Control_c, 0, 67, 116
1, 129703, Control_c, 0, 67, 116
1, 129716, Note_on_c, 0, 55, 61
1, 129723, Note_on_c, 0, 75, 69
1, 129747, Control_c, 0, 67, 115
1, 129750, Note_off_c, 0, 77, 60
1, 129775, Note_off_c, 0, 55, 54
1, 129792, Note_on_c, 0, 50, 56
1, 129804, Note_on_c, 0, 74, 62
1, 129827, Note_off_c, 0, 75, 60
1, 129831, Note_off_c, 0, 50, 63
1, 129857, Note_on_c, 0, 72, 72
1, 129873, Note_on_c, 0, 55, 44
1, 129873, Control_c, 0, 67, 115
1, 129882, Note_off_c, 0, 74, 61
1, 129888, Control_c, 0, 67, 114
1, 129921, Note_off_c, 0, 55, 50
1, 129929, Note_on_c, 0, 50, 62
1, 129934, Note_on_c, 0, 71, 77
1, 129946, Note_off_c, 0, 72, 61
1, 129947, Control_c, 0, 67, 113
1, 129962, Control_c, 0, 67, 111
1, 129967, Note_off_c, 0, 50, 63
1, 129977, Control_c, 0, 67, 109
1, 129991, Note_off_c, 0, 71, 66
1, 129991, Control_c, 0, 67, 108
1, 130012, Note_on_c, 0, 55, 65
1, 130021, Control_c, 0, 67, 108
1, 130036, Control_c, 0, 67, 105
1, 130051, Control_c, 0, 67, 102
1, 130061, Note_off_c, 0, 55, 60
1, 130065, Control_c, 0, 67, 98
1, 130076, Note_on_c, 0, 50, 61
1, 130080, Control_c, 0, 67, 94
1, 130095, Control_c, 0, 67, 91
1, 130110, Control_c, 0, 67, 86
1, 130125, Control_c, 0, 67, 79
1, 130125, Note_off_c, 0, 50, 60
1, 130140, Control_c, 0, 67, 68
1, 130142, Note_on_c, 0, 55, 63
1, 130154, Control_c, 0, 67, 53
1, 130169, Control_c, 0, 67, 36
1, 130184, Control_c, 0, 67, 20
1, 130199, Control_c, 0, 67, 0
1, 130207, Note_off_c, 0, 55, 63
1, 130218, Note_on_c, 0, 79, 91
1, 130222, Note_on_c, 0, 51, 61
1, 130261, Note_off_c, 0, 51, 64
1, 130287, Note_on_c, 0, 55, 66
1, 130293, Note_on_c, 0, 77, 75
1, 130327, Note_off_c, 0, 79, 60
1, 130336, Note_off_c, 0, 55, 61
1, 130355, Note_on_c, 0, 75, 76
1, 130361, Note_on_c, 0, 51, 62
1, 130393, Note_off_c, 0, 77, 63
1, 130393, Note_off_c, 0, 51, 66
1, 130416, Note_on_c, 0, 55, 67
1, 130429, Note_on_c, 0, 74, 78
1, 130461, Note_off_c, 0, 55, 66
1, 130466, Note_off_c, 0, 75, 60
1, 130485, Note_on_c, 0, 51, 82
1, 130494, Note_on_c, 0, 72, 81
1, 130513, Note_off_c, 0, 74, 66
1, 130551, Note_off_c, 0, 72, 65
1, 130559, Note_off_c, 0, 51, 63
1, 130582, Note_on_c, 0, 60, 79
1, 130620, Note_off_c, 0, 60, 65
1, 130652, Note_on_c, 0, 51, 79
1, 130715, Note_on_c, 0, 60, 72
1, 130718, Note_off_c, 0, 51, 63
1, 130772, Note_off_c, 0, 60, 64
1, 130785, Note_on_c, 0, 85, 95
1, 130792, Note_on_c, 0, 52, 82
1, 130855, Note_on_c, 0, 84, 98
1, 130857, Note_on_c, 0, 60, 89
1, 130870, Note_off_c, 0, 52, 67
1, 130879, Note_off_c, 0, 85, 63
1, 130940, Note_off_c, 0, 60, 57
1, 130943, Note_on_c, 0, 52, 84
1, 130948, Note_on_c, 0, 82, 87
1, 130958, Note_on_c, 0, 58, 54
1, 130964, Note_off_c, 0, 84, 54
1, 130983, Note_off_c, 0, 58, 56
1, 131007, Note_on_c, 0, 60, 88
1, 131024, Note_on_c, 0, 80, 96
1, 131027, Note_off_c, 0, 52, 67
1, 131076, Note_off_c, 0, 82, 49
1, 131089, Note_on_c, 0, 79, 110
1, 131091, Note_on_c, 0, 52, 85
1, 131102, Note_off_c, 0, 60, 60
1, 131139, Note_off_c, 0, 80, 55
1, 131170, Note_on_c, 0, 60, 89
1, 131189, Note_off_c, 0, 52, 67
1, 131250, Note_off_c, 0, 60, 60
1, 131263, Note_on_c, 0, 52, 82
1, 131314, Note_off_c, 0, 79, 56
1, 131342, Note_on_c, 0, 60, 95
1, 131367, Note_off_c, 0, 52, 66
1, 131535, Note_off_c, 0, 60, 59
1, 131558, Note_on_c, 0, 80, 63
1, 131567, Note_on_c, 0, 53, 46
1, 131671, Note_on_c, 0, 56, 51
1, 131691, Note_off_c, 0, 80, 55
1, 131697, Note_off_c, 0, 53, 56
1, 131706, Note_on_c, 0, 84, 62
1, 131718, Note_off_c, 0, 56, 61
1, 131719, Note_on_c, 0, 60, 55
1, 131784, Note_on_c, 0, 82, 68
1, 131793, Note_off_c, 0, 60, 62
1, 131802, Note_on_c, 0, 65, 50
1, 131821, Note_off_c, 0, 84, 58
1, 131855, Note_on_c, 0, 80, 64
1, 131878, Note_off_c, 0, 82, 62
1, 131880, Note_off_c, 0, 65, 36
1, 131882, Note_on_c, 0, 53, 52
1, 131946, Note_off_c, 0, 80, 62
1, 131948, Note_on_c, 0, 56, 52
1, 131973, Note_off_c, 0, 53, 47
1, 132013, Note_off_c, 0, 56, 64
1, 132015, Note_on_c, 0, 60, 61
1, 132081, Note_off_c, 0, 60, 61
1, 132089, Note_on_c, 0, 65, 54
1, 132155, Note_on_c, 0, 85, 64
1, 132169, Note_on_c, 0, 53, 52
1, 132176, Note_off_c, 0, 65, 49
1, 132243, Note_off_c, 0, 53, 51
1, 132244, Note_on_c, 0, 58, 52
1, 132287, Note_off_c, 0, 85, 46
1, 132314, Note_on_c, 0, 61, 54
1, 132314, Note_off_c, 0, 58, 60
1, 132318, Note_on_c, 0, 89, 67
1, 132370, Note_off_c, 0, 61, 58
1, 132377, Note_on_c, 0, 65, 51
1, 132395, Note_on_c, 0, 87, 70
1, 132446, Note_off_c, 0, 65, 44
1, 132453, Note_off_c, 0, 89, 56
1, 132456, Note_on_c, 0, 85, 64
1, 132463, Note_on_c, 0, 53, 49
1, 132517, Note_off_c, 0, 87, 57
1, 132542, Note_off_c, 0, 85, 62
1, 132547, Note_on_c, 0, 58, 53
1, 132585, Note_off_c, 0, 53, 37
1, 132613, Note_on_c, 0, 61, 54
1, 132618, Note_off_c, 0, 58, 62
1, 132676, Note_on_c, 0, 65, 59
1, 132693, Note_off_c, 0, 61, 60
1, 132709, Note_off_c, 0, 65, 57
1, 132753, Note_on_c, 0, 66, 76
1, 132763, Note_on_c, 0, 53, 47
1, 132838, Note_on_c, 0, 54, 55
1, 132847, Note_off_c, 0, 53, 59
1, 132906, Note_off_c, 0, 54, 63
1, 132922, Note_on_c, 0, 58, 62
1, 132924, Note_on_c, 0, 70, 74
1, 132927, Note_off_c, 0, 66, 58
1, 132972, Note_on_c, 0, 61, 59
1, 132993, Note_on_c, 0, 68, 73
1, 133002, Note_off_c, 0, 58, 57
1, 133036, Note_off_c, 0, 70, 57
1, 133063, Note_on_c, 0, 66, 70
1, 133066, Note_on_c, 0, 53, 46
1, 133096, Note_off_c, 0, 68, 58
1, 133102, Note_off_c, 0, 61, 37
1, 133116, Note_off_c, 0, 53, 59
1, 133127, Note_on_c, 0, 54, 51
1, 133199, Note_off_c, 0, 54, 62
1, 133207, Note_on_c, 0, 58, 55
1, 133207, Note_off_c, 0, 66, 56
1, 133269, Note_off_c, 0, 58, 58
1, 133291, Note_on_c, 0, 61, 52
1, 133361, Note_on_c, 0, 51, 45
1, 133364, Note_off_c, 0, 61, 55
1, 133365, Note_on_c, 0, 71, 57
1, 133454, Note_on_c, 0, 54, 47
1, 133477, Note_off_c, 0, 51, 37
1, 133499, Note_off_c, 0, 54, 63
1, 133502, Note_on_c, 0, 59, 48
1, 133585, Note_off_c, 0, 59, 58
1, 133601, Note_on_c, 0, 63, 52
1, 133670, Note_on_c, 0, 51, 51
1, 133715, Note_off_c, 0, 71, 61
1, 133718, Note_off_c, 0, 63, 36
1, 133740, Note_on_c, 0, 54, 50
1, 133775, Note_off_c, 0, 51, 39
1, 133815, Note_on_c, 0, 59, 47
1, 133816, Note_off_c, 0, 54, 63
1, 133879, Note_off_c, 0, 59, 58
1, 133910, Note_on_c, 0, 63, 27
1, 133941, Note_on_c, 0, 77, 55
1, 133944, Note_off_c, 0, 63, 57
1, 133955, Note_on_c, 0, 51, 51
1, 134036, Note_on_c, 0, 53, 46
1, 134060, Note_off_c, 0, 51, 34
1, 134080, Note_off_c, 0, 77, 55
1, 134096, Note_off_c, 0, 53, 62
1, 134103, Note_on_c, 0, 81, 60
1, 134110, Note_on_c, 0, 57, 47
1, 134170, Note_on_c, 0, 60, 51
1, 134177, Note_on_c, 0, 79, 58
1, 134184, Note_off_c, 0, 57, 52
1, 134190, Note_off_c, 0, 81, 55
1, 134247, Note_off_c, 0, 60, 61
1, 134250, Note_on_c, 0, 51, 47
1, 134251, Note_on_c, 0, 77, 57
1, 134260, Note_off_c, 0, 79, 62
1, 134350, Note_off_c, 0, 77, 57
1, 134355, Note_on_c, 0, 53, 33
1, 134355, Note_off_c, 0, 51, 39
1, 134394, Note_off_c, 0, 53, 54
1, 134410, Note_on_c, 0, 57, 49
1, 134466, Note_on_c, 0, 60, 52
1, 134474, Note_off_c, 0, 57, 52
1, 134521, Note_off_c, 0, 60, 48
1, 134541, Note_on_c, 0, 82, 56
1, 134559, Note_on_c, 0, 49, 47
1, 134654, Note_on_c, 0, 53, 41
1, 134673, Note_off_c, 0, 49, 43
1, 134700, Note_on_c, 0, 58, 48
1, 134703, Note_off_c, 0, 82, 46
1, 134703, Note_off_c, 0, 53, 58
1, 134709, Note_on_c, 0, 85, 57
1, 134751, Note_on_c, 0, 61, 55
1, 134784, Note_off_c, 0, 58, 52
1, 134787, Note_on_c, 0, 84, 63
1, 134808, Note_off_c, 0, 61, 50
1, 134818, Note_off_c, 0, 85, 55
1, 134843, Note_on_c, 0, 49, 43
1, 134846, Note_on_c, 0, 82, 50
1, 134900, Note_off_c, 0, 84, 58
1, 134937, Note_on_c, 0, 53, 44
1, 134940, Note_off_c, 0, 82, 64
1, 134997, Note_off_c, 0, 53, 63
1, 134998, Note_off_c, 0, 49, 37
1, 135007, Note_on_c, 0, 58, 50
1, 135079, Note_on_c, 0, 61, 49
1, 135087, Note_off_c, 0, 58, 59
1, 135147, Note_off_c, 0, 61, 60
1, 135170, Note_on_c, 0, 49, 44
1, 135177, Note_on_c, 0, 63, 54
1, 135259, Note_on_c, 0, 51, 35
1, 135288, Note_off_c, 0, 49, 37
1, 135313, Note_off_c, 0, 51, 54
1, 135323, Note_on_c, 0, 55, 53
1, 135345, Note_off_c, 0, 63, 55
1, 135350, Note_on_c, 0, 67, 63
1, 135389, Note_on_c, 0, 58, 49
1, 135396, Note_off_c, 0, 55, 59
1, 135412, Note_on_c, 0, 65, 64
1, 135468, Note_off_c, 0, 67, 59
1, 135473, Note_on_c, 0, 49, 45
1, 135478, Note_on_c, 0, 63, 66
1, 135482, Note_off_c, 0, 58, 50
1, 135516, Note_off_c, 0, 65, 63
1, 135554, Note_on_c, 0, 51, 44
1, 135586, Note_off_c, 0, 49, 50
1, 135610, Note_off_c, 0, 63, 58
1, 135610, Note_on_c, 0, 55, 50
1, 135615, Note_off_c, 0, 51, 60
1, 135674, Note_on_c, 0, 58, 50
1, 135695, Note_off_c, 0, 55, 56
1, 135731, Note_off_c, 0, 58, 59
1, 135780, Note_on_c, 0, 68, 58
1, 135803, Note_on_c, 0, 48, 45
1, 135852, Note_off_c, 0, 48, 57
1, 135878, Note_on_c, 0, 51, 50
1, 135934, Note_off_c, 0, 51, 59
1, 135940, Note_on_c, 0, 56, 49
1, 135997, Note_off_c, 0, 56, 56
1, 136007, Note_on_c, 0, 60, 49
1, 136063, Note_off_c, 0, 60, 45
1, 136098, Note_on_c, 0, 48, 47
1, 136127, Note_off_c, 0, 68, 60
1, 136161, Note_on_c, 0, 51, 50
1, 136164, Note_off_c, 0, 48, 50
1, 136235, Note_on_c, 0, 56, 51
1, 136244, Note_off_c, 0, 51, 61
1, 136295, Note_off_c, 0, 56, 61
1, 136301, Note_on_c, 0, 60, 44
1, 136331, Note_off_c, 0, 60, 55
1, 136378, Note_on_c, 0, 73, 49
1, 136390, Note_on_c, 0, 48, 42
1, 136461, Note_off_c, 0, 48, 41
1, 136468, Note_on_c, 0, 49, 42
1, 136530, Note_off_c, 0, 49, 64
1, 136543, Note_on_c, 0, 53, 48
1, 136545, Note_off_c, 0, 73, 43
1, 136548, Note_on_c, 0, 77, 55
1, 136612, Note_on_c, 0, 56, 44
1, 136617, Note_off_c, 0, 53, 58
1, 136623, Note_off_c, 0, 77, 60
1, 136626, Note_on_c, 0, 75, 54
1, 136663, Note_off_c, 0, 56, 54
1, 136686, Note_on_c, 0, 48, 45
1, 136692, Note_off_c, 0, 75, 62
1, 136701, Note_on_c, 0, 73, 59
1, 136740, Note_off_c, 0, 48, 55
1, 136760, Note_on_c, 0, 49, 42
1, 136807, Note_off_c, 0, 49, 62
1, 136809, Note_off_c, 0, 73, 50
1, 136829, Note_on_c, 0, 53, 43
1, 136894, Note_off_c, 0, 53, 61
1, 136901, Note_on_c, 0, 56, 44
1, 136960, Note_off_c, 0, 56, 58
1, 136980, Note_on_c, 0, 78, 51
1, 137002, Note_on_c, 0, 46, 36
1, 137100, Note_on_c, 0, 49, 37
1, 137105, Note_off_c, 0, 46, 34
1, 137105, Note_off_c, 0, 78, 55
1, 137133, Note_on_c, 0, 82, 51
1, 137143, Note_off_c, 0, 49, 57
1, 137154, Note_on_c, 0, 54, 45
1, 137201, Note_on_c, 0, 58, 48
1, 137212, Note_on_c, 0, 80, 61
1, 137219, Note_off_c, 0, 54, 55
1, 137232, Note_off_c, 0, 82, 56
1, 137290, Note_on_c, 0, 78, 58
1, 137292, Note_off_c, 0, 58, 52
1, 137297, Note_off_c, 0, 80, 59
1, 137311, Note_on_c, 0, 46, 48
1, 137392, Note_on_c, 0, 49, 43
1, 137399, Note_off_c, 0, 78, 65
1, 137454, Note_off_c, 0, 46, 37
1, 137473, Note_on_c, 0, 54, 47
1, 137476, Note_off_c, 0, 49, 59
1, 137535, Note_on_c, 0, 58, 49
1, 137553, Note_off_c, 0, 54, 54
1, 137591, Note_off_c, 0, 58, 61
1, 137607, Note_on_c, 0, 60, 58
1, 137619, Note_on_c, 0, 46, 42
1, 137710, Note_on_c, 0, 48, 44
1, 137710, Note_off_c, 0, 46, 46
1, 137762, Note_off_c, 0, 48, 60
1, 137765, Note_off_c, 0, 60, 37
1, 137780, Note_on_c, 0, 64, 49
1, 137782, Note_on_c, 0, 52, 48
1, 137836, Note_on_c, 0, 55, 43
1, 137851, Note_on_c, 0, 62, 52
1, 137852, Note_off_c, 0, 52, 52
1, 137855, Note_off_c, 0, 64, 58
1, 137904, Note_off_c, 0, 55, 59
1, 137910, Note_off_c, 0, 62, 61
1, 137916, Note_on_c, 0, 46, 47
1, 137919, Note_on_c, 0, 60, 51
1, 137987, Note_off_c, 0, 46, 54
1, 137998, Note_on_c, 0, 48, 36
1, 138063, Note_off_c, 0, 48, 45
1, 138063, Note_on_c, 0, 52, 41
1, 138092, Note_off_c, 0, 60, 35
1, 138134, Note_on_c, 0, 55, 41
1, 138140, Note_off_c, 0, 52, 57
1, 138197, Note_off_c, 0, 55, 42
1, 138228, Note_on_c, 0, 72, 52
1, 138237, Note_on_c, 0, 44, 43
1, 138337, Note_on_c, 0, 48, 45
1, 138382, Note_off_c, 0, 44, 34
1, 138396, Note_off_c, 0, 48, 59
1, 138403, Note_on_c, 0, 53, 44
1, 138468, Note_on_c, 0, 56, 45
1, 138505, Note_off_c, 0, 53, 39
1, 138524, Note_off_c, 0, 56, 58
1, 138534, Note_on_c, 0, 44, 53
1, 138624, Note_on_c, 0, 48, 51
1, 138665, Note_off_c, 0, 44, 53
1, 138688, Note_on_c, 0, 53, 48
1, 138698, Note_off_c, 0, 48, 59
1, 138755, Note_off_c, 0, 72, 37
1, 138758, Note_on_c, 0, 56, 55
1, 138774, Note_off_c, 0, 53, 62
1, 138805, Note_off_c, 0, 56, 65
1, 138853, Note_on_c, 0, 43, 64
1, 138853, Note_on_c, 0, 72, 71
1, 138947, Note_on_c, 0, 46, 59
1, 138999, Note_off_c, 0, 43, 50
1, 139009, Note_off_c, 0, 72, 54
1, 139013, Note_on_c, 0, 52, 55
1, 139022, Note_on_c, 0, 76, 69
1, 139041, Note_off_c, 0, 46, 61
1, 139087, Note_on_c, 0, 55, 58
1, 139091, Note_on_c, 0, 74, 70
1, 139111, Note_off_c, 0, 52, 55
1, 139124, Note_off_c, 0, 76, 64
1, 139163, Note_on_c, 0, 43, 60
1, 139163, Note_on_c, 0, 72, 80
1, 139169, Note_off_c, 0, 74, 67
1, 139178, Note_off_c, 0, 55, 54
1, 139246, Note_on_c, 0, 46, 63
1, 139317, Note_on_c, 0, 52, 60
1, 139318, Note_off_c, 0, 43, 51
1, 139353, Note_off_c, 0, 46, 62
1, 139372, Note_off_c, 0, 72, 50
1, 139397, Note_on_c, 0, 55, 63
1, 139397, Note_off_c, 0, 52, 66
1, 139431, Note_off_c, 0, 55, 66
1, 139477, Note_on_c, 0, 84, 95
1, 139481, Note_on_c, 0, 41, 74
1, 139577, Note_on_c, 0, 44, 65
1, 139643, Note_on_c, 0, 48, 61
1, 139661, Note_off_c, 0, 41, 52
1, 139684, Note_off_c, 0, 44, 62
1, 139714, Note_on_c, 0, 53, 71
1, 139723, Note_off_c, 0, 48, 65
1, 139791, Note_off_c, 0, 53, 59
1, 139799, Note_on_c, 0, 41, 82
1, 139887, Note_on_c, 0, 44, 74
1, 139953, Note_off_c, 0, 41, 50
1, 139978, Note_on_c, 0, 53, 82
1, 140000, Note_off_c, 0, 44, 63
1, 140023, Note_off_c, 0, 84, 58
1, 140045, Note_off_c, 0, 53, 65
1, 140079, Note_on_c, 0, 40, 90
1, 140083, Note_on_c, 0, 84, 99
1, 140199, Note_on_c, 0, 43, 63
1, 140245, Note_off_c, 0, 84, 43
1, 140250, Note_off_c, 0, 40, 62
1, 140260, Note_on_c, 0, 88, 93
1, 140296, Note_on_c, 0, 52, 76
1, 140332, Note_on_c, 0, 86, 90
1, 140334, Note_off_c, 0, 43, 59
1, 140339, Note_on_c, 0, 46, 41
1, 140349, Note_off_c, 0, 52, 69
1, 140361, Note_off_c, 0, 88, 65
1, 140394, Note_off_c, 0, 46, 60
1, 140398, Note_on_c, 0, 84, 100
1, 140403, Note_on_c, 0, 39, 85
1, 140420, Note_off_c, 0, 86, 60
1, 140434, Note_off_c, 0, 84, 65
1, 140501, Note_on_c, 0, 43, 67
1, 140552, Note_off_c, 0, 39, 61
1, 140557, Note_on_c, 0, 84, 100
1, 140589, Note_off_c, 0, 84, 65
1, 140604, Note_on_c, 0, 51, 78
1, 140613, Note_off_c, 0, 43, 60
1, 140683, Note_off_c, 0, 51, 64
1, 140719, Note_on_c, 0, 84, 112
1, 140720, Note_on_c, 0, 38, 87
1, 140754, Note_off_c, 0, 84, 68
1, 140841, Note_on_c, 0, 41, 69
1, 140886, Note_on_c, 0, 84, 107
1, 140931, Note_off_c, 0, 38, 51
1, 140948, Note_on_c, 0, 50, 82
1, 140987, Note_off_c, 0, 41, 63
1, 141001, Note_off_c, 0, 50, 61
1, 141062, Poly_aftertouch_c, 0, 43, 127
1, 141063, Note_on_c, 0, 37, 84
1, 141064, Note_on_c, 0, 89, 112
1, 141089, Note_off_c, 0, 84, 67
1, 141108, Poly_aftertouch_c, 0, 43, 0
1, 141178, Note_on_c, 0, 42, 60
1, 141198, Note_on_c, 0, 41, 75
1, 141204, Note_off_c, 0, 42, 56
1, 141251, Note_off_c, 0, 37, 58
1, 141256, Note_on_c, 0, 83, 104
1, 141282, Note_off_c, 0, 89, 63
1, 141315, Note_on_c, 0, 49, 87
1, 141361, Poly_aftertouch_c, 0, 43, 127
1, 141377, Note_off_c, 0, 41, 38
1, 141388, Note_off_c, 0, 49, 62
1, 141438, Note_off_c, 0, 83, 0
1, 141450, Note_on_c, 0, 84, 103
1, 141457, Note_on_c, 0, 48, 100
1, 141464, Note_on_c, 0, 36, 83
1, 141467, Poly_aftertouch_c, 0, 83, 0
1, 141489, Control_c, 0, 64, 44
1, 141504, Control_c, 0, 64, 59
1, 141505, Note_on_c, 0, 39, 9
1, 141512, Poly_aftertouch_c, 0, 43, 0
1, 141519, Control_c, 0, 64, 87
1, 141534, Control_c, 0, 64, 127
1, 141546, Note_off_c, 0, 84, 65
1, 141557, Note_off_c, 0, 39, 47
1, 141584, Note_off_c, 0, 48, 54
1, 141587, Note_on_c, 0, 43, 87
1, 141615, Note_off_c, 0, 36, 61
1, 141702, Note_on_c, 0, 40, 84
1, 141724, Note_off_c, 0, 43, 60
1, 141819, Note_on_c, 0, 67, 110
1, 141822, Note_on_c, 0, 43, 84
1, 141838, Control_c, 0, 64, 83
1, 141849, Note_off_c, 0, 40, 61
1, 141853, Control_c, 0, 64, 61
1, 141868, Control_c, 0, 64, 32
1, 141883, Control_c, 0, 64, 0
1, 141905, Note_off_c, 0, 43, 61
1, 141920, Note_on_c, 0, 48, 76
1, 141958, Control_c, 0, 64, 25
1, 141972, Control_c, 0, 64, 41
1, 141987, Control_c, 0, 64, 54
1, 142002, Control_c, 0, 64, 61
1, 142017, Control_c, 0, 64, 63
1, 142018, Note_off_c, 0, 48, 67
1, 142025, Note_on_c, 0, 52, 90
1, 142090, Control_c, 0, 64, 60
1, 142105, Control_c, 0, 64, 49
1, 142120, Control_c, 0, 64, 0
1, 142135, Note_on_c, 0, 50, 70
1, 142147, Note_off_c, 0, 52, 65
1, 142194, Control_c, 0, 64, 12
1, 142209, Control_c, 0, 64, 33
1, 142223, Note_on_c, 0, 47, 82
1, 142224, Note_off_c, 0, 50, 66
1, 142224, Control_c, 0, 64, 47
1, 142239, Control_c, 0, 64, 56
1, 142254, Control_c, 0, 64, 60
1, 142269, Control_c, 0, 64, 60
1, 142313, Control_c, 0, 64, 62
1, 142316, Note_on_c, 0, 43, 89
1, 142328, Control_c, 0, 64, 62
1, 142336, Note_off_c, 0, 47, 61
1, 142358, Control_c, 0, 64, 62
1, 142365, Note_off_c, 0, 67, 55
1, 142372, Control_c, 0, 64, 57
1, 142388, Control_c, 0, 64, 42
1, 142403, Control_c, 0, 64, 0
1, 142429, Note_on_c, 0, 47, 82
1, 142437, Note_on_c, 0, 67, 99
1, 142477, Note_off_c, 0, 43, 57
1, 142477, Control_c, 0, 64, 34
1, 142492, Control_c, 0, 64, 48
1, 142513, Control_c, 0, 64, 60
1, 142528, Control_c, 0, 64, 63
1, 142540, Note_on_c, 0, 50, 83
1, 142558, Control_c, 0, 64, 63
1, 142573, Note_off_c, 0, 47, 61
1, 142588, Control_c, 0, 64, 64
1, 142603, Control_c, 0, 64, 65
1, 142635, Note_off_c, 0, 50, 59
1, 142640, Note_on_c, 0, 53, 81
1, 142647, Control_c, 0, 64, 65
1, 142660, Note_off_c, 0, 67, 57
1, 142662, Control_c, 0, 64, 61
1, 142676, Control_c, 0, 64, 51
1, 142691, Control_c, 0, 64, 19
1, 142698, Note_off_c, 0, 53, 64
1, 142706, Control_c, 0, 64, 0
1, 142746, Note_on_c, 0, 52, 85
1, 142751, Note_on_c, 0, 72, 95
1, 142838, Control_c, 0, 64, 16
1, 142845, Note_off_c, 0, 72, 65
1, 142850, Note_on_c, 0, 67, 92
1, 142853, Control_c, 0, 64, 40
1, 142854, Note_on_c, 0, 55, 78
1, 142868, Control_c, 0, 64, 55
1, 142878, Note_off_c, 0, 52, 64
1, 142883, Control_c, 0, 64, 65
1, 142898, Control_c, 0, 64, 66
1, 142928, Control_c, 0, 64, 67
1, 142931, Note_off_c, 0, 55, 58
1, 142943, Control_c, 0, 64, 68
1, 142943, Note_on_c, 0, 64, 87
1, 142948, Note_on_c, 0, 60, 81
1, 142954, Note_off_c, 0, 67, 60
1, 142957, Control_c, 0, 64, 68
1, 143030, Note_off_c, 0, 60, 47
1, 143036, Note_off_c, 0, 64, 60
1, 143037, Note_on_c, 0, 67, 88
1, 143043, Note_on_c, 0, 55, 84
1, 143136, Note_on_c, 0, 72, 88
1, 143144, Note_on_c, 0, 52, 79
1, 143149, Note_off_c, 0, 67, 61
1, 143159, Note_off_c, 0, 55, 64
1, 143225, Control_c, 0, 64, 68
1, 143229, Note_on_c, 0, 76, 91
1, 143238, Note_off_c, 0, 72, 63
1, 143240, Control_c, 0, 64, 64
1, 143246, Note_off_c, 0, 52, 66
1, 143248, Note_on_c, 0, 48, 77
1, 143261, Control_c, 0, 64, 52
1, 143276, Control_c, 0, 64, 0
1, 143294, Note_off_c, 0, 76, 64
1, 143330, Note_on_c, 0, 76, 61
1, 143336, Note_on_c, 0, 74, 94
1, 143344, Note_on_c, 0, 53, 78
1, 143348, Note_off_c, 0, 48, 64
1, 143361, Note_off_c, 0, 76, 67
1, 143425, Control_c, 0, 64, 23
1, 143434, Note_off_c, 0, 74, 66
1, 143438, Note_on_c, 0, 71, 86
1, 143440, Control_c, 0, 64, 39
1, 143440, Note_off_c, 0, 53, 62
1, 143443, Note_on_c, 0, 56, 83
1, 143455, Control_c, 0, 64, 54
1, 143469, Control_c, 0, 64, 65
1, 143484, Control_c, 0, 64, 67
1, 143494, Note_off_c, 0, 71, 63
1, 143535, Note_on_c, 0, 60, 80
1, 143537, Note_on_c, 0, 68, 89
1, 143541, Note_off_c, 0, 56, 63
1, 143592, Note_off_c, 0, 68, 61
1, 143620, Note_on_c, 0, 56, 74
1, 143622, Note_off_c, 0, 60, 54
1, 143634, Note_on_c, 0, 71, 81
1, 143714, Note_on_c, 0, 53, 69
1, 143730, Note_on_c, 0, 74, 86
1, 143740, Note_off_c, 0, 56, 63
1, 143759, Note_off_c, 0, 71, 61
1, 143765, Control_c, 0, 64, 67
1, 143795, Control_c, 0, 64, 67
1, 143810, Control_c, 0, 64, 64
1, 143821, Note_on_c, 0, 48, 81
1, 143824, Note_off_c, 0, 53, 64
1, 143825, Control_c, 0, 64, 56
1, 143825, Note_on_c, 0, 77, 92
1, 143826, Note_off_c, 0, 74, 62
1, 143840, Control_c, 0, 64, 15
1, 143855, Control_c, 0, 64, 0
1, 143916, Note_on_c, 0, 55, 82
1, 143916, Note_on_c, 0, 76, 89
1, 143928, Note_off_c, 0, 48, 62
1, 143946, Note_off_c, 0, 77, 63
1, 143989, Control_c, 0, 64, 25
1, 144004, Control_c, 0, 64, 42
1, 144016, Note_on_c, 0, 73, 86
1, 144021, Note_on_c, 0, 58, 86
1, 144026, Control_c, 0, 64, 54
1, 144037, Note_off_c, 0, 55, 61
1, 144040, Control_c, 0, 64, 61
1, 144042, Note_off_c, 0, 76, 66
1, 144055, Control_c, 0, 64, 62
1, 144099, Control_c, 0, 64, 61
1, 144104, Note_on_c, 0, 70, 90
1, 144110, Note_on_c, 0, 60, 84
1, 144110, Note_off_c, 0, 73, 64
1, 144114, Control_c, 0, 64, 61
1, 144122, Note_off_c, 0, 58, 63
1, 144129, Control_c, 0, 64, 60
1, 144144, Control_c, 0, 64, 59
1, 144159, Control_c, 0, 64, 59
1, 144174, Control_c, 0, 64, 59
1, 144189, Control_c, 0, 64, 60
1, 144197, Note_on_c, 0, 73, 88
1, 144203, Control_c, 0, 64, 61
1, 144209, Note_on_c, 0, 58, 83
1, 144209, Note_off_c, 0, 70, 62
1, 144218, Control_c, 0, 64, 61
1, 144233, Control_c, 0, 64, 62
1, 144251, Note_off_c, 0, 73, 66
1, 144289, Note_on_c, 0, 76, 92
1, 144298, Note_on_c, 0, 55, 76
1, 144322, Control_c, 0, 64, 61
1, 144337, Control_c, 0, 64, 55
1, 144352, Control_c, 0, 64, 37
1, 144366, Control_c, 0, 64, 0
1, 144379, Note_off_c, 0, 76, 37
1, 144385, Note_on_c, 0, 79, 98
1, 144397, Note_on_c, 0, 48, 92
1, 144440, Control_c, 0, 64, 32
1, 144455, Control_c, 0, 64, 48
1, 144470, Control_c, 0, 64, 58
1, 144478, Note_on_c, 0, 82, 94
1, 144483, Note_off_c, 0, 79, 67
1, 144484, Control_c, 0, 64, 62
1, 144529, Control_c, 0, 64, 63
1, 144544, Control_c, 0, 64, 65
1, 144553, Note_off_c, 0, 82, 66
1, 144558, Control_c, 0, 64, 67
1, 144571, Note_on_c, 0, 76, 93
1, 144603, Control_c, 0, 64, 63
1, 144618, Control_c, 0, 64, 52
1, 144633, Control_c, 0, 64, 17
1, 144639, Note_off_c, 0, 76, 62
1, 144648, Control_c, 0, 64, 0
1, 144669, Note_on_c, 0, 85, 93
1, 144677, Control_c, 0, 64, 14
1, 144692, Control_c, 0, 64, 33
1, 144707, Control_c, 0, 64, 50
1, 144722, Control_c, 0, 64, 62
1, 144737, Control_c, 0, 64, 66
1, 144752, Control_c, 0, 64, 67
1, 144763, Note_on_c, 0, 76, 94
1, 144788, Note_off_c, 0, 85, 61
1, 144789, Control_c, 0, 64, 68
1, 144804, Control_c, 0, 64, 69
1, 144819, Control_c, 0, 64, 71
1, 144834, Control_c, 0, 64, 71
1, 144840, Note_off_c, 0, 76, 64
1, 144863, Note_on_c, 0, 73, 88
1, 144878, Control_c, 0, 64, 69
1, 144893, Control_c, 0, 64, 63
1, 144908, Control_c, 0, 64, 51
1, 144923, Control_c, 0, 64, 43
1, 144924, Note_off_c, 0, 73, 58
1, 144938, Control_c, 0, 64, 48
1, 144950, Note_on_c, 0, 82, 89
1, 144953, Control_c, 0, 64, 59
1, 144968, Control_c, 0, 64, 66
1, 144983, Control_c, 0, 64, 70
1, 144997, Control_c, 0, 64, 71
1, 145012, Control_c, 0, 64, 73
1, 145027, Control_c, 0, 64, 75
1, 145041, Control_c, 0, 64, 75
1, 145042, Note_on_c, 0, 73, 83
1, 145056, Control_c, 0, 64, 76
1, 145077, Note_off_c, 0, 82, 61
1, 145128, Note_on_c, 0, 70, 78
1, 145131, Note_off_c, 0, 73, 61
1, 145145, Control_c, 0, 64, 72
1, 145160, Control_c, 0, 64, 64
1, 145174, Note_off_c, 0, 70, 61
1, 145175, Control_c, 0, 64, 50
1, 145190, Control_c, 0, 64, 40
1, 145205, Control_c, 0, 64, 45
1, 145217, Note_on_c, 0, 76, 88
1, 145220, Control_c, 0, 64, 55
1, 145234, Control_c, 0, 64, 62
1, 145249, Control_c, 0, 64, 66
1, 145264, Control_c, 0, 64, 69
1, 145279, Control_c, 0, 64, 70
1, 145294, Control_c, 0, 64, 71
1, 145319, Note_on_c, 0, 70, 82
1, 145338, Control_c, 0, 64, 71
1, 145353, Control_c, 0, 64, 72
1, 145368, Control_c, 0, 64, 74
1, 145382, Control_c, 0, 64, 74
1, 145409, Note_on_c, 0, 64, 82
1, 145412, Control_c, 0, 64, 72
1, 145423, Note_off_c, 0, 70, 62
1, 145427, Control_c, 0, 64, 66
1, 145441, Control_c, 0, 64, 58
1, 145445, Note_off_c, 0, 76, 0
1, 145445, Note_on_c, 0, 76, 13
1, 145456, Control_c, 0, 64, 45
1, 145471, Control_c, 0, 64, 42
1, 145486, Control_c, 0, 64, 50
1, 145500, Note_on_c, 0, 73, 83
1, 145501, Control_c, 0, 64, 58
1, 145523, Control_c, 0, 64, 64
1, 145538, Note_off_c, 0, 76, 58
1, 145538, Control_c, 0, 64, 68
1, 145551, Note_off_c, 0, 64, 56
1, 145553, Control_c, 0, 64, 70
1, 145568, Control_c, 0, 64, 72
1, 145583, Control_c, 0, 64, 76
1, 145599, Control_c, 0, 64, 79
1, 145610, Note_on_c, 0, 70, 85
1, 145613, Control_c, 0, 64, 80
1, 145628, Control_c, 0, 64, 81
1, 145643, Control_c, 0, 64, 81
1, 145668, Note_off_c, 0, 73, 52
1, 145700, Control_c, 0, 64, 76
1, 145702, Note_on_c, 0, 64, 80
1, 145715, Control_c, 0, 64, 66
1, 145728, Note_off_c, 0, 70, 61
1, 145730, Control_c, 0, 64, 54
1, 145745, Control_c, 0, 64, 33
1, 145757, Note_off_c, 0, 60, 53
1, 145759, Control_c, 0, 64, 31
1, 145774, Control_c, 0, 64, 46
1, 145789, Control_c, 0, 64, 61
1, 145792, Note_on_c, 0, 72, 92
1, 145804, Control_c, 0, 64, 75
1, 145819, Control_c, 0, 64, 84
1, 145823, Note_off_c, 0, 48, 61
1, 145829, Note_off_c, 0, 64, 58
1, 145837, Note_off_c, 0, 55, 56
1, 145843, Note_off_c, 0, 58, 61
1, 145849, Control_c, 0, 64, 86
1, 145863, Control_c, 0, 64, 87
1, 145888, Note_on_c, 0, 70, 89
1, 145908, Control_c, 0, 64, 86
1, 145911, Note_off_c, 0, 72, 61
1, 145976, Note_on_c, 0, 64, 80
1, 145995, Note_off_c, 0, 70, 59
1, 146026, Control_c, 0, 64, 86
1, 146041, Control_c, 0, 64, 84
1, 146055, Control_c, 0, 64, 76
1, 146064, Note_on_c, 0, 72, 93
1, 146070, Control_c, 0, 64, 64
1, 146085, Control_c, 0, 64, 48
1, 146097, Note_off_c, 0, 64, 62
1, 146100, Control_c, 0, 64, 0
1, 146113, Note_off_c, 0, 72, 64
1, 146172, Note_on_c, 0, 72, 92
1, 146176, Note_on_c, 0, 41, 74
1, 146176, Note_on_c, 0, 65, 88
1, 146180, Note_on_c, 0, 53, 78
1, 146182, Note_on_c, 0, 69, 78
1, 146204, Control_c, 0, 64, 8
1, 146207, Note_off_c, 0, 69, 66
1, 146219, Control_c, 0, 64, 40
1, 146225, Note_off_c, 0, 65, 64
1, 146233, Control_c, 0, 64, 60
1, 146238, Note_off_c, 0, 72, 64
1, 146255, Control_c, 0, 64, 76
1, 146270, Control_c, 0, 64, 83
1, 146284, Note_on_c, 0, 48, 83
1, 146290, Note_off_c, 0, 53, 64
1, 146297, Note_off_c, 0, 41, 62
1, 146300, Control_c, 0, 64, 84
1, 146315, Control_c, 0, 64, 85
1, 146329, Control_c, 0, 64, 85
1, 146359, Control_c, 0, 64, 86
1, 146390, Control_c, 0, 64, 86
1, 146400, Note_on_c, 0, 45, 72
1, 146411, Note_off_c, 0, 48, 63
1, 146434, Control_c, 0, 64, 79
1, 146449, Control_c, 0, 64, 68
1, 146464, Control_c, 0, 64, 55
1, 146478, Control_c, 0, 64, 0
1, 146508, Note_on_c, 0, 72, 91
1, 146518, Note_on_c, 0, 48, 79
1, 146521, Note_off_c, 0, 45, 63
1, 146582, Note_off_c, 0, 48, 65
1, 146617, Note_on_c, 0, 53, 71
1, 146687, Note_off_c, 0, 53, 63
1, 146711, Note_on_c, 0, 57, 76
1, 146812, Note_on_c, 0, 55, 76
1, 146821, Note_off_c, 0, 57, 61
1, 146864, Control_c, 0, 64, 29
1, 146878, Control_c, 0, 64, 48
1, 146893, Control_c, 0, 64, 63
1, 146903, Note_off_c, 0, 55, 66
1, 146908, Control_c, 0, 64, 69
1, 146912, Note_on_c, 0, 52, 78
1, 146923, Control_c, 0, 64, 70
1, 146952, Control_c, 0, 64, 71
1, 146967, Control_c, 0, 64, 72
1, 146982, Control_c, 0, 64, 77
1, 146997, Control_c, 0, 64, 80
1, 147016, Note_on_c, 0, 48, 78
1, 147017, Note_off_c, 0, 52, 64
1, 147019, Control_c, 0, 64, 80
1, 147029, Note_off_c, 0, 72, 58
1, 147034, Control_c, 0, 64, 77
1, 147049, Control_c, 0, 64, 67
1, 147064, Control_c, 0, 64, 56
1, 147079, Control_c, 0, 64, 29
1, 147093, Control_c, 0, 64, 0
1, 147116, Note_on_c, 0, 72, 91
1, 147124, Note_on_c, 0, 52, 71
1, 147136, Note_off_c, 0, 48, 61
1, 147153, Control_c, 0, 64, 33
1, 147167, Control_c, 0, 64, 51
1, 147183, Control_c, 0, 64, 64
1, 147198, Control_c, 0, 64, 70
1, 147218, Note_on_c, 0, 56, 51
1, 147220, Note_off_c, 0, 52, 65
1, 147227, Control_c, 0, 64, 71
1, 147228, Note_off_c, 0, 72, 60
1, 147237, Note_on_c, 0, 55, 71
1, 147242, Note_off_c, 0, 56, 62
1, 147242, Control_c, 0, 64, 72
1, 147257, Control_c, 0, 64, 74
1, 147272, Control_c, 0, 64, 75
1, 147310, Note_off_c, 0, 55, 62
1, 147332, Note_on_c, 0, 58, 60
1, 147363, Note_off_c, 0, 58, 65
1, 147376, Control_c, 0, 64, 74
1, 147390, Control_c, 0, 64, 69
1, 147405, Control_c, 0, 64, 62
1, 147420, Control_c, 0, 64, 51
1, 147435, Control_c, 0, 64, 15
1, 147440, Note_on_c, 0, 77, 85
1, 147445, Note_on_c, 0, 57, 56
1, 147450, Control_c, 0, 64, 0
1, 147539, Control_c, 0, 64, 15
1, 147546, Note_on_c, 0, 60, 69
1, 147547, Note_on_c, 0, 72, 80
1, 147554, Control_c, 0, 64, 38
1, 147554, Note_off_c, 0, 77, 62
1, 147569, Control_c, 0, 64, 55
1, 147569, Note_off_c, 0, 57, 55
1, 147583, Control_c, 0, 64, 65
1, 147598, Control_c, 0, 64, 68
1, 147627, Control_c, 0, 64, 69
1, 147642, Control_c, 0, 64, 70
1, 147643, Note_on_c, 0, 69, 87
1, 147648, Note_on_c, 0, 65, 78
1, 147648, Note_off_c, 0, 72, 56
1, 147652, Note_off_c, 0, 60, 61
1, 147657, Control_c, 0, 64, 70
1, 147731, Control_c, 0, 64, 70
1, 147736, Note_off_c, 0, 69, 62
1, 147739, Note_on_c, 0, 72, 90
1, 147760, Note_on_c, 0, 60, 79
1, 147765, Note_off_c, 0, 65, 40
1, 147838, Note_on_c, 0, 77, 84
1, 147840, Note_off_c, 0, 72, 64
1, 147856, Note_on_c, 0, 57, 73
1, 147866, Note_off_c, 0, 60, 60
1, 147902, Control_c, 0, 64, 70
1, 147931, Control_c, 0, 64, 70
1, 147936, Note_on_c, 0, 81, 92
1, 147942, Note_off_c, 0, 77, 63
1, 147946, Control_c, 0, 64, 67
1, 147954, Note_off_c, 0, 57, 61
1, 147960, Control_c, 0, 64, 57
1, 147961, Note_on_c, 0, 53, 69
1, 147975, Control_c, 0, 64, 25
1, 147992, Control_c, 0, 64, 0
1, 148032, Note_on_c, 0, 79, 93
1, 148043, Note_on_c, 0, 58, 78
1, 148048, Note_off_c, 0, 53, 65
1, 148057, Note_off_c, 0, 81, 63
1, 148110, Control_c, 0, 64, 22
1, 148125, Control_c, 0, 64, 38
1, 148127, Note_on_c, 0, 76, 89
1, 148127, Note_off_c, 0, 79, 59
1, 148135, Note_on_c, 0, 61, 81
1, 148139, Control_c, 0, 64, 50
1, 148140, Note_off_c, 0, 58, 62
1, 148154, Control_c, 0, 64, 61
1, 148169, Control_c, 0, 64, 66
1, 148184, Control_c, 0, 64, 72
1, 148185, Note_off_c, 0, 76, 63
1, 148198, Control_c, 0, 64, 89
1, 148213, Control_c, 0, 64, 127
1, 148226, Note_on_c, 0, 65, 80
1, 148227, Note_on_c, 0, 73, 85
1, 148239, Note_off_c, 0, 61, 64
1, 148317, Note_on_c, 0, 76, 77
1, 148324, Note_on_c, 0, 61, 76
1, 148326, Note_off_c, 0, 65, 58
1, 148326, Note_off_c, 0, 73, 61
1, 148413, Note_on_c, 0, 79, 80
1, 148414, Note_on_c, 0, 58, 75
1, 148425, Note_off_c, 0, 76, 65
1, 148436, Note_off_c, 0, 61, 60
1, 148508, Note_off_c, 0, 79, 60
1, 148516, Note_on_c, 0, 82, 85
1, 148526, Note_on_c, 0, 53, 77
1, 148532, Control_c, 0, 64, 89
1, 148540, Note_off_c, 0, 58, 57
1, 148547, Control_c, 0, 64, 66
1, 148562, Control_c, 0, 64, 46
1, 148576, Control_c, 0, 64, 0
1, 148579, Note_off_c, 0, 82, 59
1, 148608, Note_on_c, 0, 81, 93
1, 148611, Note_on_c, 0, 60, 83
1, 148627, Note_off_c, 0, 53, 62
1, 148666, Control_c, 0, 64, 19
1, 148681, Control_c, 0, 64, 42
1, 148696, Control_c, 0, 64, 57
1, 148708, Note_on_c, 0, 78, 94
1, 148711, Control_c, 0, 64, 67
1, 148714, Note_off_c, 0, 81, 64
1, 148716, Note_on_c, 0, 63, 89
1, 148725, Control_c, 0, 64, 72
1, 148749, Note_off_c, 0, 60, 59
1, 148778, Note_off_c, 0, 78, 65
1, 148785, Control_c, 0, 64, 72
1, 148810, Note_on_c, 0, 65, 89
1, 148812, Note_on_c, 0, 75, 87
1, 148815, Control_c, 0, 64, 73
1, 148828, Note_off_c, 0, 63, 63
1, 148830, Control_c, 0, 64, 75
1, 148845, Control_c, 0, 64, 80
1, 148860, Control_c, 0, 64, 82
1, 148889, Control_c, 0, 64, 77
1, 148904, Control_c, 0, 64, 64
1, 148907, Note_on_c, 0, 78, 88
1, 148913, Note_on_c, 0, 63, 88
1, 148913, Note_off_c, 0, 75, 57
1, 148919, Control_c, 0, 64, 49
1, 148934, Control_c, 0, 64, 12
1, 148949, Control_c, 0, 64, 0
1, 148963, Control_c, 0, 64, 29
1, 148978, Control_c, 0, 64, 45
1, 148993, Control_c, 0, 64, 61
1, 149003, Note_on_c, 0, 60, 75
1, 149007, Control_c, 0, 64, 80
1, 149008, Note_on_c, 0, 81, 83
1, 149022, Control_c, 0, 64, 88
1, 149023, Note_off_c, 0, 78, 66
1, 149052, Control_c, 0, 64, 85
1, 149067, Control_c, 0, 64, 71
1, 149077, Note_off_c, 0, 81, 65
1, 149081, Control_c, 0, 64, 58
1, 149095, Note_on_c, 0, 53, 83
1, 149096, Control_c, 0, 64, 41
1, 149103, Note_on_c, 0, 84, 92
1, 149111, Control_c, 0, 64, 44
1, 149126, Control_c, 0, 64, 57
1, 149141, Control_c, 0, 64, 67
1, 149155, Control_c, 0, 64, 79
1, 149170, Control_c, 0, 64, 80
1, 149185, Control_c, 0, 64, 83
1, 149195, Note_on_c, 0, 81, 99
1, 149199, Control_c, 0, 64, 94
1, 149201, Note_off_c, 0, 84, 61
1, 149214, Control_c, 0, 64, 100
1, 149229, Control_c, 0, 64, 91
1, 149252, Control_c, 0, 64, 70
1, 149267, Control_c, 0, 64, 57
1, 149268, Note_off_c, 0, 81, 60
1, 149281, Control_c, 0, 64, 45
1, 149296, Control_c, 0, 64, 52
1, 149297, Note_on_c, 0, 78, 90
1, 149311, Control_c, 0, 64, 64
1, 149326, Control_c, 0, 64, 76
1, 149341, Control_c, 0, 64, 88
1, 149355, Control_c, 0, 64, 92
1, 149370, Control_c, 0, 64, 99
1, 149385, Control_c, 0, 64, 102
1, 149396, Note_on_c, 0, 87, 90
1, 149400, Control_c, 0, 64, 89
1, 149402, Note_off_c, 0, 78, 46
1, 149414, Control_c, 0, 64, 69
1, 149429, Control_c, 0, 64, 59
1, 149444, Control_c, 0, 64, 55
1, 149459, Control_c, 0, 64, 61
1, 149474, Control_c, 0, 64, 70
1, 149488, Control_c, 0, 64, 81
1, 149498, Note_on_c, 0, 78, 85
1, 149503, Control_c, 0, 64, 88
1, 149518, Control_c, 0, 64, 96
1, 149528, Note_off_c, 0, 87, 63
1, 149533, Control_c, 0, 64, 108
1, 149548, Control_c, 0, 64, 127
1, 149593, Control_c, 0, 64, 94
1, 149593, Note_on_c, 0, 75, 81
1, 149598, Note_off_c, 0, 78, 65
1, 149608, Control_c, 0, 64, 69
1, 149623, Control_c, 0, 64, 60
1, 149637, Control_c, 0, 64, 57
1, 149649, Note_off_c, 0, 75, 62
1, 149652, Control_c, 0, 64, 63
1, 149667, Control_c, 0, 64, 73
1, 149682, Control_c, 0, 64, 84
1, 149684, Note_on_c, 0, 84, 90
1, 149697, Control_c, 0, 64, 90
1, 149711, Control_c, 0, 64, 95
1, 149726, Control_c, 0, 64, 102
1, 149741, Control_c, 0, 64, 109
1, 149756, Control_c, 0, 64, 111
1, 149771, Control_c, 0, 64, 109
1, 149785, Control_c, 0, 64, 90
1, 149790, Note_on_c, 0, 75, 86
1, 149800, Control_c, 0, 64, 70
1, 149814, Note_off_c, 0, 84, 60
1, 149815, Control_c, 0, 64, 60
1, 149829, Control_c, 0, 64, 54
1, 149844, Control_c, 0, 64, 59
1, 149859, Control_c, 0, 64, 70
1, 149874, Control_c, 0, 64, 82
1, 149882, Note_on_c, 0, 72, 79
1, 149882, Note_off_c, 0, 75, 62
1, 149889, Control_c, 0, 64, 90
1, 149903, Control_c, 0, 64, 98
1, 149918, Control_c, 0, 64, 101
1, 149933, Control_c, 0, 64, 95
1, 149948, Control_c, 0, 64, 76
1, 149963, Control_c, 0, 64, 62
1, 149971, Note_on_c, 0, 81, 89
1, 149977, Control_c, 0, 64, 55
1, 149984, Note_off_c, 0, 72, 54
1, 150000, Control_c, 0, 64, 58
1, 150015, Control_c, 0, 64, 65
1, 150029, Control_c, 0, 64, 72
1, 150044, Control_c, 0, 64, 78
1, 150059, Control_c, 0, 64, 88
1, 150074, Note_off_c, 0, 65, 59
1, 150074, Control_c, 0, 64, 98
1, 150082, Note_on_c, 0, 75, 83
1, 150089, Control_c, 0, 64, 99
1, 150103, Control_c, 0, 64, 88
1, 150118, Control_c, 0, 64, 70
1, 150132, Note_off_c, 0, 60, 52
1, 150133, Control_c, 0, 64, 60
1, 150148, Control_c, 0, 64, 56
1, 150150, Note_off_c, 0, 63, 60
1, 150163, Control_c, 0, 64, 62
1, 150172, Note_on_c, 0, 69, 79
1, 150177, Control_c, 0, 64, 72
1, 150183, Note_off_c, 0, 75, 59
1, 150192, Control_c, 0, 64, 84
1, 150207, Control_c, 0, 64, 86
1, 150222, Control_c, 0, 64, 87
1, 150234, Note_off_c, 0, 53, 38
1, 150237, Control_c, 0, 64, 90
1, 150252, Control_c, 0, 64, 91
1, 150267, Control_c, 0, 64, 88
1, 150270, Note_on_c, 0, 78, 89
1, 150282, Control_c, 0, 64, 75
1, 150296, Control_c, 0, 64, 64
1, 150308, Note_off_c, 0, 69, 57
1, 150311, Control_c, 0, 64, 55
1, 150311, Note_off_c, 0, 81, 44
1, 150326, Control_c, 0, 64, 54
1, 150341, Control_c, 0, 64, 63
1, 150355, Control_c, 0, 64, 74
1, 150370, Control_c, 0, 64, 82
1, 150371, Note_on_c, 0, 75, 88
1, 150416, Control_c, 0, 64, 79
1, 150426, Note_off_c, 0, 78, 48
1, 150431, Control_c, 0, 64, 68
1, 150445, Control_c, 0, 64, 57
1, 150460, Control_c, 0, 64, 52
1, 150466, Note_on_c, 0, 69, 80
1, 150475, Control_c, 0, 64, 58
1, 150485, Note_off_c, 0, 75, 59
1, 150490, Control_c, 0, 64, 71
1, 150505, Control_c, 0, 64, 91
1, 150520, Control_c, 0, 64, 96
1, 150534, Control_c, 0, 64, 102
1, 150549, Control_c, 0, 64, 109
1, 150556, Note_on_c, 0, 77, 92
1, 150579, Control_c, 0, 64, 108
1, 150594, Control_c, 0, 64, 104
1, 150597, Note_off_c, 0, 69, 61
1, 150657, Note_on_c, 0, 75, 92
1, 150682, Control_c, 0, 64, 103
1, 150693, Note_off_c, 0, 77, 55
1, 150712, Control_c, 0, 64, 103
1, 150761, Note_on_c, 0, 69, 83
1, 150781, Note_off_c, 0, 75, 58
1, 150793, Control_c, 0, 64, 103
1, 150808, Control_c, 0, 64, 105
1, 150838, Control_c, 0, 64, 99
1, 150848, Note_on_c, 0, 77, 87
1, 150852, Control_c, 0, 64, 80
1, 150864, Note_off_c, 0, 69, 63
1, 150867, Control_c, 0, 64, 64
1, 150882, Control_c, 0, 64, 41
1, 150897, Control_c, 0, 64, 0
1, 150899, Note_off_c, 0, 77, 62
1, 150951, Note_on_c, 0, 77, 90
1, 150957, Note_on_c, 0, 70, 90
1, 150960, Note_on_c, 0, 34, 70
1, 150964, Note_on_c, 0, 74, 72
1, 150965, Note_on_c, 0, 46, 81
1, 150985, Note_off_c, 0, 74, 72
1, 150985, Control_c, 0, 64, 39
1, 151000, Control_c, 0, 64, 59
1, 151002, Note_off_c, 0, 70, 60
1, 151008, Note_off_c, 0, 77, 65
1, 151015, Control_c, 0, 64, 79
1, 151030, Control_c, 0, 64, 85
1, 151045, Control_c, 0, 64, 86
1, 151060, Note_on_c, 0, 41, 75
1, 151060, Control_c, 0, 64, 88
1, 151074, Note_off_c, 0, 46, 62
1, 151074, Control_c, 0, 64, 90
1, 151080, Note_off_c, 0, 34, 63
1, 151089, Control_c, 0, 64, 92
1, 151104, Control_c, 0, 64, 93
1, 151149, Control_c, 0, 64, 93
1, 151163, Note_on_c, 0, 38, 75
1, 151176, Note_off_c, 0, 41, 63
1, 151179, Control_c, 0, 64, 88
1, 151194, Control_c, 0, 64, 74
1, 151209, Control_c, 0, 64, 59
1, 151223, Control_c, 0, 64, 31
1, 151238, Control_c, 0, 64, 0
1, 151277, Note_on_c, 0, 41, 65
1, 151291, Note_off_c, 0, 38, 60
1, 151292, Note_on_c, 0, 65, 81
1, 151374, Note_off_c, 0, 41, 64
1, 151380, Note_on_c, 0, 46, 69
1, 151428, Note_off_c, 0, 46, 63
1, 151483, Note_on_c, 0, 50, 73
1, 151587, Note_on_c, 0, 48, 69
1, 151593, Note_off_c, 0, 50, 64
1, 151616, Control_c, 0, 64, 23
1, 151631, Control_c, 0, 64, 39
1, 151646, Control_c, 0, 64, 50
1, 151662, Control_c, 0, 64, 57
1, 151674, Note_off_c, 0, 48, 64
1, 151676, Control_c, 0, 64, 57
1, 151688, Note_on_c, 0, 45, 65
1, 151762, Note_off_c, 0, 65, 58
1, 151765, Control_c, 0, 64, 58
1, 151787, Note_off_c, 0, 45, 63
1, 151793, Note_on_c, 0, 41, 67
1, 151809, Control_c, 0, 64, 57
1, 151824, Control_c, 0, 64, 57
1, 151839, Control_c, 0, 64, 54
1, 151854, Control_c, 0, 64, 49
1, 151869, Control_c, 0, 64, 28
1, 151883, Control_c, 0, 64, 0
1, 151903, Note_off_c, 0, 41, 54
1, 151909, Note_on_c, 0, 45, 55
1, 151934, Note_on_c, 0, 65, 76
1, 151988, Control_c, 0, 64, 27
1, 152001, Note_off_c, 0, 45, 63
1, 152003, Control_c, 0, 64, 41
1, 152010, Note_on_c, 0, 48, 60
1, 152018, Control_c, 0, 64, 53
1, 152032, Control_c, 0, 64, 59
1, 152047, Control_c, 0, 64, 60
1, 152106, Note_off_c, 0, 48, 60
1, 152107, Note_off_c, 0, 65, 58
1, 152133, Note_on_c, 0, 51, 66
1, 152167, Note_off_c, 0, 51, 65
1, 152210, Control_c, 0, 64, 59
1, 152225, Control_c, 0, 64, 52
1, 152240, Control_c, 0, 64, 25
1, 152262, Control_c, 0, 64, 0
1, 152265, Note_on_c, 0, 70, 71
1, 152275, Note_on_c, 0, 50, 58
1, 152348, Note_off_c, 0, 50, 64
1, 152363, Note_on_c, 0, 53, 60
1, 152375, Note_on_c, 0, 65, 66
1, 152395, Control_c, 0, 64, 28
1, 152407, Note_off_c, 0, 70, 54
1, 152410, Control_c, 0, 64, 40
1, 152425, Control_c, 0, 64, 51
1, 152440, Control_c, 0, 64, 59
1, 152455, Control_c, 0, 64, 65
1, 152466, Note_off_c, 0, 53, 61
1, 152467, Note_on_c, 0, 62, 73
1, 152467, Note_off_c, 0, 65, 65
1, 152468, Note_on_c, 0, 58, 68
1, 152469, Control_c, 0, 64, 67
1, 152484, Control_c, 0, 64, 69
1, 152499, Control_c, 0, 64, 71
1, 152514, Control_c, 0, 64, 74
1, 152529, Control_c, 0, 64, 75
1, 152561, Note_on_c, 0, 65, 81
1, 152573, Control_c, 0, 64, 75
1, 152575, Note_off_c, 0, 62, 58
1, 152577, Note_on_c, 0, 53, 64
1, 152577, Note_off_c, 0, 58, 56
1, 152660, Note_on_c, 0, 70, 75
1, 152664, Note_on_c, 0, 50, 65
1, 152669, Note_off_c, 0, 65, 62
1, 152674, Note_off_c, 0, 53, 63
1, 152692, Control_c, 0, 64, 76
1, 152706, Control_c, 0, 64, 76
1, 152721, Control_c, 0, 64, 77
1, 152736, Control_c, 0, 64, 77
1, 152747, Note_off_c, 0, 70, 61
1, 152768, Note_on_c, 0, 74, 77
1, 152771, Note_off_c, 0, 50, 60
1, 152776, Note_on_c, 0, 46, 66
1, 152782, Control_c, 0, 64, 76
1, 152796, Control_c, 0, 64, 69
1, 152811, Control_c, 0, 64, 59
1, 152826, Control_c, 0, 64, 20
1, 152840, Control_c, 0, 64, 0
1, 152841, Note_off_c, 0, 74, 0
1, 152865, Note_on_c, 0, 72, 90
1, 152869, Note_on_c, 0, 51, 72
1, 152869, Note_off_c, 0, 46, 63
1, 152878, Poly_aftertouch_c, 0, 74, 127
1, 152902, Poly_aftertouch_c, 0, 74, 0
1, 152944, Control_c, 0, 64, 36
1, 152946, Note_off_c, 0, 72, 52
1, 152959, Control_c, 0, 64, 52
1, 152967, Note_on_c, 0, 69, 86
1, 152967, Note_on_c, 0, 54, 78
1, 152973, Control_c, 0, 64, 65
1, 152975, Note_off_c, 0, 51, 59
1, 152988, Control_c, 0, 64, 75
1, 153011, Control_c, 0, 64, 78
1, 153026, Control_c, 0, 64, 81
1, 153027, Note_off_c, 0, 69, 66
1, 153041, Control_c, 0, 64, 86
1, 153055, Control_c, 0, 64, 93
1, 153066, Note_on_c, 0, 58, 76
1, 153070, Control_c, 0, 64, 97
1, 153072, Note_off_c, 0, 54, 63
1, 153073, Note_on_c, 0, 66, 84
1, 153085, Control_c, 0, 64, 99
1, 153100, Control_c, 0, 64, 101
1, 153115, Control_c, 0, 64, 110
1, 153129, Control_c, 0, 64, 127
1, 153164, Note_on_c, 0, 69, 79
1, 153169, Note_on_c, 0, 54, 77
1, 153176, Note_off_c, 0, 66, 56
1, 153181, Note_off_c, 0, 58, 57
1, 153263, Note_on_c, 0, 72, 78
1, 153266, Note_on_c, 0, 51, 74
1, 153271, Note_off_c, 0, 69, 62
1, 153282, Note_off_c, 0, 54, 62
1, 153351, Control_c, 0, 64, 122
1, 153357, Note_off_c, 0, 72, 59
1, 153360, Note_on_c, 0, 75, 83
1, 153366, Control_c, 0, 64, 100
1, 153367, Note_on_c, 0, 46, 77
1, 153373, Note_off_c, 0, 51, 64
1, 153380, Control_c, 0, 64, 78
1, 153395, Control_c, 0, 64, 61
1, 153410, Control_c, 0, 64, 22
1, 153425, Control_c, 0, 64, 0
1, 153448, Note_on_c, 0, 74, 88
1, 153450, Note_off_c, 0, 46, 64
1, 153452, Note_on_c, 0, 53, 79
1, 153460, Note_off_c, 0, 75, 53
1, 153543, Note_off_c, 0, 74, 68
1, 153545, Note_on_c, 0, 71, 82
1, 153553, Note_on_c, 0, 56, 84
1, 153575, Note_off_c, 0, 53, 64
1, 153589, Control_c, 0, 64, 14
1, 153603, Control_c, 0, 64, 37
1, 153618, Control_c, 0, 64, 49
1, 153633, Control_c, 0, 64, 58
1, 153648, Note_on_c, 0, 58, 81
1, 153648, Control_c, 0, 64, 61
1, 153650, Note_on_c, 0, 68, 82
1, 153656, Note_off_c, 0, 56, 64
1, 153659, Note_off_c, 0, 71, 62
1, 153662, Control_c, 0, 64, 62
1, 153677, Control_c, 0, 64, 64
1, 153692, Control_c, 0, 64, 69
1, 153707, Control_c, 0, 64, 72
1, 153720, Note_off_c, 0, 68, 59
1, 153722, Control_c, 0, 64, 74
1, 153744, Control_c, 0, 64, 75
1, 153754, Note_on_c, 0, 71, 80
1, 153758, Note_on_c, 0, 56, 77
1, 153759, Control_c, 0, 64, 76
1, 153774, Control_c, 0, 64, 76
1, 153789, Control_c, 0, 64, 74
1, 153803, Control_c, 0, 64, 65
1, 153818, Control_c, 0, 64, 56
1, 153833, Control_c, 0, 64, 48
1, 153844, Note_on_c, 0, 74, 72
1, 153847, Note_on_c, 0, 53, 65
1, 153848, Control_c, 0, 64, 52
1, 153863, Control_c, 0, 64, 61
1, 153868, Note_off_c, 0, 71, 62
1, 153877, Control_c, 0, 64, 67
1, 153892, Control_c, 0, 64, 74
1, 153907, Control_c, 0, 64, 78
1, 153922, Control_c, 0, 64, 86
1, 153928, Note_off_c, 0, 74, 64
1, 153931, Note_on_c, 0, 46, 73
1, 153937, Control_c, 0, 64, 97
1, 153944, Note_on_c, 0, 77, 71
1, 153951, Control_c, 0, 64, 104
1, 153966, Note_off_c, 0, 77, 67
1, 153981, Control_c, 0, 64, 89
1, 153996, Control_c, 0, 64, 70
1, 154011, Control_c, 0, 64, 58
1, 154026, Control_c, 0, 64, 52
1, 154040, Control_c, 0, 64, 56
1, 154046, Note_on_c, 0, 80, 94
1, 154055, Control_c, 0, 64, 65
1, 154070, Control_c, 0, 64, 78
1, 154085, Control_c, 0, 64, 86
1, 154100, Control_c, 0, 64, 91
1, 154115, Control_c, 0, 64, 94
1, 154130, Control_c, 0, 64, 92
1, 154139, Note_off_c, 0, 80, 62
1, 154143, Note_on_c, 0, 74, 83
1, 154144, Control_c, 0, 64, 75
1, 154159, Control_c, 0, 64, 63
1, 154174, Control_c, 0, 64, 55
1, 154189, Control_c, 0, 64, 59
1, 154203, Control_c, 0, 64, 66
1, 154218, Control_c, 0, 64, 75
1, 154233, Control_c, 0, 64, 79
1, 154243, Note_on_c, 0, 83, 93
1, 154248, Control_c, 0, 64, 82
1, 154254, Note_off_c, 0, 74, 39
1, 154263, Control_c, 0, 64, 86
1, 154277, Control_c, 0, 64, 86
1, 154307, Control_c, 0, 64, 83
1, 154321, Control_c, 0, 64, 73
1, 154336, Control_c, 0, 64, 63
1, 154344, Note_on_c, 0, 74, 91
1, 154351, Control_c, 0, 64, 54
1, 154353, Note_off_c, 0, 83, 60
1, 154367, Control_c, 0, 64, 55
1, 154382, Control_c, 0, 64, 62
1, 154397, Control_c, 0, 64, 67
1, 154412, Control_c, 0, 64, 71
1, 154421, Note_off_c, 0, 74, 62
1, 154426, Control_c, 0, 64, 75
1, 154441, Control_c, 0, 64, 79
1, 154448, Note_on_c, 0, 71, 77
1, 154456, Control_c, 0, 64, 81
1, 154486, Control_c, 0, 64, 80
1, 154508, Control_c, 0, 64, 75
1, 154518, Note_off_c, 0, 71, 65
1, 154523, Control_c, 0, 64, 65
1, 154538, Control_c, 0, 64, 57
1, 154549, Note_on_c, 0, 80, 83
1, 154553, Control_c, 0, 64, 51
1, 154568, Control_c, 0, 64, 56
1, 154582, Control_c, 0, 64, 63
1, 154597, Control_c, 0, 64, 69
1, 154612, Control_c, 0, 64, 72
1, 154626, Control_c, 0, 64, 74
1, 154641, Control_c, 0, 64, 77
1, 154650, Note_on_c, 0, 71, 76
1, 154656, Control_c, 0, 64, 77
1, 154671, Control_c, 0, 64, 76
1, 154674, Note_off_c, 0, 80, 59
1, 154686, Control_c, 0, 64, 71
1, 154700, Control_c, 0, 64, 63
1, 154715, Control_c, 0, 64, 55
1, 154730, Control_c, 0, 64, 52
1, 154732, Note_off_c, 0, 71, 65
1, 154744, Control_c, 0, 64, 59
1, 154748, Note_on_c, 0, 68, 73
1, 154759, Control_c, 0, 64, 65
1, 154774, Control_c, 0, 64, 71
1, 154789, Control_c, 0, 64, 74
1, 154801, Note_off_c, 0, 68, 60
1, 154804, Control_c, 0, 64, 76
1, 154833, Control_c, 0, 64, 74
1, 154836, Note_on_c, 0, 77, 82
1, 154848, Control_c, 0, 64, 68
1, 154863, Control_c, 0, 64, 60
1, 154878, Control_c, 0, 64, 50
1, 154893, Control_c, 0, 64, 48
1, 154908, Control_c, 0, 64, 54
1, 154923, Control_c, 0, 64, 60
1, 154936, Note_on_c, 0, 68, 82
1, 154938, Control_c, 0, 64, 65
1, 154952, Control_c, 0, 64, 68
1, 154967, Control_c, 0, 64, 70
1, 154973, Note_off_c, 0, 77, 56
1, 154982, Control_c, 0, 64, 73
1, 154997, Control_c, 0, 64, 75
1, 155012, Control_c, 0, 64, 76
1, 155033, Note_off_c, 0, 68, 61
1, 155036, Note_on_c, 0, 65, 73
1, 155041, Control_c, 0, 64, 75
1, 155056, Control_c, 0, 64, 72
1, 155071, Control_c, 0, 64, 66
1, 155086, Control_c, 0, 64, 60
1, 155100, Control_c, 0, 64, 54
1, 155108, Note_off_c, 0, 65, 58
1, 155115, Control_c, 0, 64, 53
1, 155128, Note_on_c, 0, 74, 81
1, 155130, Control_c, 0, 64, 58
1, 155144, Control_c, 0, 64, 61
1, 155159, Control_c, 0, 64, 64
1, 155175, Control_c, 0, 64, 67
1, 155190, Control_c, 0, 64, 71
1, 155205, Control_c, 0, 64, 74
1, 155220, Control_c, 0, 64, 76
1, 155245, Note_on_c, 0, 68, 82
1, 155257, Control_c, 0, 64, 75
1, 155266, Note_off_c, 0, 74, 58
1, 155272, Control_c, 0, 64, 74
1, 155286, Note_off_c, 0, 58, 42
1, 155301, Control_c, 0, 64, 73
1, 155316, Control_c, 0, 64, 68
1, 155319, Note_off_c, 0, 46, 42
1, 155331, Control_c, 0, 64, 60
1, 155345, Note_on_c, 0, 62, 78
1, 155346, Control_c, 0, 64, 46
1, 155355, Note_off_c, 0, 68, 58
1, 155361, Control_c, 0, 64, 34
1, 155366, Note_off_c, 0, 56, 56
1, 155375, Control_c, 0, 64, 41
1, 155382, Note_off_c, 0, 53, 46
1, 155390, Control_c, 0, 64, 53
1, 155406, Control_c, 0, 64, 63
1, 155421, Control_c, 0, 64, 73
1, 155423, Note_off_c, 0, 62, 53
1, 155435, Control_c, 0, 64, 75
1, 155442, Note_on_c, 0, 71, 78
1, 155450, Control_c, 0, 64, 78
1, 155465, Control_c, 0, 64, 83
1, 155480, Control_c, 0, 64, 87
1, 155495, Control_c, 0, 64, 88
1, 155531, Note_on_c, 0, 68, 78
1, 155537, Note_off_c, 0, 71, 64
1, 155539, Control_c, 0, 64, 88
1, 155554, Control_c, 0, 64, 89
1, 155568, Control_c, 0, 64, 90
1, 155583, Control_c, 0, 64, 91
1, 155613, Note_off_c, 0, 68, 58
1, 155623, Note_on_c, 0, 62, 74
1, 155628, Control_c, 0, 64, 92
1, 155642, Control_c, 0, 64, 93
1, 155687, Note_off_c, 0, 62, 57
1, 155702, Control_c, 0, 64, 95
1, 155711, Note_on_c, 0, 70, 76
1, 155716, Control_c, 0, 64, 98
1, 155731, Control_c, 0, 64, 101
1, 155734, Note_off_c, 0, 70, 68
1, 155746, Control_c, 0, 64, 104
1, 155761, Control_c, 0, 64, 105
1, 155775, Control_c, 0, 64, 98
1, 155790, Control_c, 0, 64, 74
1, 155805, Control_c, 0, 64, 57
1, 155820, Control_c, 0, 64, 11
1, 155835, Control_c, 0, 64, 0
1, 155848, Note_on_c, 0, 78, 95
1, 155850, Note_on_c, 0, 51, 75
1, 155939, Control_c, 0, 64, 12
1, 155947, Note_on_c, 0, 54, 83
1, 155951, Note_on_c, 0, 75, 93
1, 155954, Control_c, 0, 64, 34
1, 155969, Note_off_c, 0, 78, 63
1, 155969, Control_c, 0, 64, 47
1, 155984, Control_c, 0, 64, 60
1, 156002, Note_off_c, 0, 51, 57
1, 156006, Control_c, 0, 64, 68
1, 156021, Control_c, 0, 64, 81
1, 156036, Control_c, 0, 64, 91
1, 156050, Note_on_c, 0, 58, 89
1, 156051, Control_c, 0, 64, 98
1, 156056, Note_on_c, 0, 70, 85
1, 156066, Control_c, 0, 64, 106
1, 156072, Note_off_c, 0, 54, 64
1, 156075, Note_off_c, 0, 75, 55
1, 156080, Control_c, 0, 64, 113
1, 156095, Control_c, 0, 64, 117
1, 156110, Control_c, 0, 64, 127
1, 156156, Note_on_c, 0, 75, 89
1, 156157, Note_on_c, 0, 54, 77
1, 156169, Control_c, 0, 64, 91
1, 156184, Control_c, 0, 64, 66
1, 156195, Note_off_c, 0, 70, 53
1, 156199, Control_c, 0, 64, 58
1, 156214, Control_c, 0, 64, 57
1, 156228, Control_c, 0, 64, 63
1, 156240, Note_on_c, 0, 78, 88
1, 156243, Control_c, 0, 64, 69
1, 156249, Note_on_c, 0, 51, 74
1, 156258, Control_c, 0, 64, 75
1, 156273, Control_c, 0, 64, 84
1, 156273, Note_off_c, 0, 75, 61
1, 156288, Control_c, 0, 64, 95
1, 156303, Control_c, 0, 64, 105
1, 156318, Control_c, 0, 64, 105
1, 156333, Control_c, 0, 64, 88
1, 156334, Note_off_c, 0, 78, 66
1, 156335, Note_on_c, 0, 46, 84
1, 156337, Note_on_c, 0, 82, 85
1, 156347, Control_c, 0, 64, 68
1, 156362, Control_c, 0, 64, 58
1, 156377, Control_c, 0, 64, 54
1, 156391, Control_c, 0, 64, 61
1, 156406, Control_c, 0, 64, 70
1, 156421, Control_c, 0, 64, 77
1, 156436, Note_on_c, 0, 78, 91
1, 156436, Control_c, 0, 64, 82
1, 156440, Note_off_c, 0, 82, 64
1, 156451, Control_c, 0, 64, 89
1, 156465, Control_c, 0, 64, 91
1, 156480, Control_c, 0, 64, 81
1, 156495, Control_c, 0, 64, 67
1, 156510, Control_c, 0, 64, 60
1, 156521, Note_off_c, 0, 78, 65
1, 156527, Note_on_c, 0, 75, 86
1, 156539, Control_c, 0, 64, 66
1, 156554, Control_c, 0, 64, 76
1, 156569, Control_c, 0, 64, 81
1, 156583, Control_c, 0, 64, 87
1, 156598, Control_c, 0, 64, 95
1, 156613, Control_c, 0, 64, 103
1, 156619, Note_on_c, 0, 87, 88
1, 156628, Control_c, 0, 64, 108
1, 156643, Control_c, 0, 64, 108
1, 156653, Note_off_c, 0, 87, 64
1, 156658, Control_c, 0, 64, 108
1, 156660, Note_off_c, 0, 75, 60
1, 156673, Control_c, 0, 64, 93
1, 156687, Control_c, 0, 64, 74
1, 156702, Control_c, 0, 64, 64
1, 156717, Control_c, 0, 64, 62
1, 156732, Control_c, 0, 64, 65
1, 156745, Note_on_c, 0, 75, 87
1, 156754, Control_c, 0, 64, 72
1, 156770, Control_c, 0, 64, 79
1, 156785, Control_c, 0, 64, 88
1, 156800, Control_c, 0, 64, 96
1, 156815, Control_c, 0, 64, 103
1, 156829, Control_c, 0, 64, 107
1, 156839, Note_on_c, 0, 70, 80
1, 156840, Note_off_c, 0, 75, 60
1, 156859, Control_c, 0, 64, 104
1, 156874, Control_c, 0, 64, 87
1, 156889, Control_c, 0, 64, 70
1, 156903, Control_c, 0, 64, 62
1, 156918, Control_c, 0, 64, 62
1, 156929, Note_on_c, 0, 82, 79
1, 156933, Control_c, 0, 64, 67
1, 156947, Control_c, 0, 64, 79
1, 156957, Note_off_c, 0, 82, 66
1, 156962, Control_c, 0, 64, 89
1, 156972, Note_off_c, 0, 70, 58
1, 156977, Control_c, 0, 64, 97
1, 156992, Control_c, 0, 64, 104
1, 157007, Control_c, 0, 64, 105
1, 157021, Control_c, 0, 64, 103
1, 157036, Control_c, 0, 64, 98
1, 157049, Note_on_c, 0, 70, 86
1, 157051, Control_c, 0, 64, 86
1, 157066, Control_c, 0, 64, 72
1, 157081, Control_c, 0, 64, 63
1, 157096, Control_c, 0, 64, 60
1, 157111, Control_c, 0, 64, 64
1, 157126, Control_c, 0, 64, 72
1, 157140, Note_on_c, 0, 66, 84
1, 157140, Control_c, 0, 64, 83
1, 157144, Note_off_c, 0, 70, 61
1, 157155, Control_c, 0, 64, 91
1, 157170, Control_c, 0, 64, 99
1, 157185, Control_c, 0, 64, 108
1, 157200, Control_c, 0, 64, 109
1, 157214, Control_c, 0, 64, 100
1, 157229, Control_c, 0, 64, 80
1, 157235, Note_on_c, 0, 78, 86
1, 157244, Control_c, 0, 64, 67
1, 157259, Control_c, 0, 64, 64
1, 157263, Note_off_c, 0, 66, 61
1, 157264, Note_off_c, 0, 78, 67
1, 157274, Control_c, 0, 64, 67
1, 157288, Control_c, 0, 64, 77
1, 157303, Control_c, 0, 64, 91
1, 157318, Control_c, 0, 64, 111
1, 157333, Control_c, 0, 64, 127
1, 157346, Note_on_c, 0, 66, 87
1, 157382, Note_off_c, 0, 58, 55
1, 157426, Note_off_c, 0, 46, 36
1, 157452, Note_on_c, 0, 63, 79
1, 157452, Note_off_c, 0, 66, 63
1, 157503, Control_c, 0, 64, 114
1, 157516, Note_off_c, 0, 51, 34
1, 157518, Control_c, 0, 64, 87
1, 157533, Control_c, 0, 64, 80
1, 157542, Note_off_c, 0, 54, 56
1, 157547, Control_c, 0, 64, 79
1, 157555, Note_on_c, 0, 75, 84
1, 157583, Note_off_c, 0, 63, 62
1, 157593, Control_c, 0, 64, 79
1, 157623, Control_c, 0, 64, 84
1, 157638, Control_c, 0, 64, 99
1, 157651, Control_c, 0, 64, 127
1, 157652, Note_on_c, 0, 66, 87
1, 157686, Note_off_c, 0, 75, 52
1, 157748, Note_on_c, 0, 63, 80
1, 157771, Note_off_c, 0, 66, 62
1, 157856, Note_on_c, 0, 75, 83
1, 157878, Note_off_c, 0, 63, 57
1, 157949, Note_on_c, 0, 66, 83
1, 157960, Note_off_c, 0, 75, 58
1, 158051, Note_on_c, 0, 63, 76
1, 158074, Note_off_c, 0, 66, 51
1, 158114, Note_off_c, 0, 63, 64
1, 158143, Note_on_c, 0, 75, 79
1, 158190, Note_off_c, 0, 75, 61
1, 158229, Control_c, 0, 64, 108
1, 158251, Control_c, 0, 64, 68
1, 158266, Control_c, 0, 64, 49
1, 158281, Control_c, 0, 64, 0
1, 158283, Note_on_c, 0, 49, 88
1, 158294, Note_on_c, 0, 78, 99
1, 158399, Note_on_c, 0, 76, 88
1, 158400, Note_on_c, 0, 54, 79
1, 158423, Note_off_c, 0, 49, 64
1, 158425, Note_off_c, 0, 78, 62
1, 158430, Control_c, 0, 64, 36
1, 158445, Control_c, 0, 64, 54
1, 158459, Control_c, 0, 64, 80
1, 158474, Control_c, 0, 64, 127
1, 158494, Note_on_c, 0, 58, 87
1, 158497, Note_on_c, 0, 73, 83
1, 158519, Note_off_c, 0, 54, 64
1, 158524, Note_off_c, 0, 76, 63
1, 158586, Note_off_c, 0, 73, 62
1, 158586, Note_on_c, 0, 76, 83
1, 158589, Note_on_c, 0, 54, 77
1, 158680, Note_on_c, 0, 78, 92
1, 158689, Note_on_c, 0, 49, 75
1, 158700, Note_off_c, 0, 76, 64
1, 158771, Note_on_c, 0, 46, 83
1, 158771, Note_on_c, 0, 85, 86
1, 158774, Note_off_c, 0, 78, 64
1, 158830, Control_c, 0, 64, 80
1, 158845, Control_c, 0, 64, 69
1, 158859, Control_c, 0, 64, 72
1, 158865, Note_on_c, 0, 78, 96
1, 158874, Control_c, 0, 64, 84
1, 158889, Control_c, 0, 64, 105
1, 158894, Note_off_c, 0, 85, 57
1, 158904, Control_c, 0, 64, 127
1, 158962, Note_on_c, 0, 76, 90
1, 158965, Note_off_c, 0, 78, 66
1, 158978, Control_c, 0, 64, 86
1, 159000, Control_c, 0, 64, 68
1, 159015, Control_c, 0, 64, 67
1, 159030, Control_c, 0, 64, 74
1, 159045, Control_c, 0, 64, 91
1, 159060, Control_c, 0, 64, 127
1, 159066, Note_on_c, 0, 88, 87
1, 159093, Note_off_c, 0, 88, 65
1, 159108, Note_off_c, 0, 76, 63
1, 159181, Note_on_c, 0, 76, 86
1, 159221, Note_off_c, 0, 76, 67
1, 159253, Control_c, 0, 64, 98
1, 159268, Control_c, 0, 64, 83
1, 159275, Note_on_c, 0, 73, 80
1, 159282, Control_c, 0, 64, 84
1, 159297, Control_c, 0, 64, 96
1, 159312, Control_c, 0, 64, 127
1, 159358, Note_on_c, 0, 85, 89
1, 159391, Note_off_c, 0, 73, 62
1, 159398, Note_off_c, 0, 85, 63
1, 159460, Control_c, 0, 64, 101
1, 159475, Control_c, 0, 64, 77
1, 159484, Note_on_c, 0, 73, 81
1, 159490, Control_c, 0, 64, 76
1, 159504, Control_c, 0, 64, 88
1, 159519, Control_c, 0, 64, 127
1, 159575, Note_on_c, 0, 66, 83
1, 159579, Note_off_c, 0, 73, 59
1, 159638, Control_c, 0, 64, 81
1, 159653, Control_c, 0, 64, 75
1, 159662, Note_on_c, 0, 78, 88
1, 159668, Control_c, 0, 64, 82
1, 159682, Control_c, 0, 64, 109
1, 159697, Control_c, 0, 64, 127
1, 159699, Note_off_c, 0, 66, 60
1, 159705, Note_off_c, 0, 78, 68
1, 159782, Note_on_c, 0, 66, 89
1, 159880, Note_on_c, 0, 64, 83
1, 159909, Note_off_c, 0, 66, 63
1, 159971, Note_off_c, 0, 58, 59
1, 159975, Note_on_c, 0, 76, 93
1, 159984, Note_off_c, 0, 46, 57
1, 160008, Note_off_c, 0, 64, 61
1, 160031, Note_off_c, 0, 49, 51
1, 160048, Note_off_c, 0, 54, 61
1, 160076, Note_on_c, 0, 66, 96
1, 160094, Note_off_c, 0, 76, 56
1, 160172, Note_on_c, 0, 64, 83
1, 160200, Note_off_c, 0, 66, 61
1, 160268, Note_on_c, 0, 76, 90
1, 160300, Note_off_c, 0, 64, 60
1, 160366, Note_on_c, 0, 66, 92
1, 160434, Note_off_c, 0, 76, 41
1, 160464, Note_on_c, 0, 64, 84
1, 160555, Note_off_c, 0, 64, 59
1, 160566, Note_on_c, 0, 76, 89
1, 160584, Note_off_c, 0, 66, 64
1, 160611, Note_off_c, 0, 76, 66
1, 160723, Note_on_c, 0, 50, 73
1, 160726, Note_on_c, 0, 78, 95
1, 160749, Control_c, 0, 64, 83
1, 160765, Control_c, 0, 64, 60
1, 160780, Control_c, 0, 64, 34
1, 160794, Control_c, 0, 64, 0
1, 160846, Note_on_c, 0, 74, 83
1, 160849, Note_on_c, 0, 54, 67
1, 160868, Note_off_c, 0, 78, 60
1, 160902, Note_off_c, 0, 50, 56
1, 160942, Control_c, 0, 64, 24
1, 160944, Note_on_c, 0, 59, 73
1, 160948, Note_on_c, 0, 71, 78
1, 160957, Control_c, 0, 64, 47
1, 160963, Note_off_c, 0, 74, 62
1, 160965, Note_off_c, 0, 54, 64
1, 160972, Control_c, 0, 64, 61
1, 160986, Control_c, 0, 64, 69
1, 161001, Control_c, 0, 64, 69
1, 161031, Control_c, 0, 64, 70
1, 161046, Control_c, 0, 64, 72
1, 161048, Note_on_c, 0, 54, 72
1, 161051, Note_on_c, 0, 74, 84
1, 161060, Control_c, 0, 64, 74
1, 161063, Note_off_c, 0, 71, 59
1, 161075, Control_c, 0, 64, 75
1, 161105, Control_c, 0, 64, 76
1, 161120, Control_c, 0, 64, 76
1, 161135, Control_c, 0, 64, 77
1, 161144, Note_on_c, 0, 78, 82
1, 161147, Note_on_c, 0, 50, 65
1, 161165, Control_c, 0, 64, 73
1, 161168, Note_off_c, 0, 74, 61
1, 161179, Control_c, 0, 64, 64
1, 161194, Control_c, 0, 64, 54
1, 161209, Control_c, 0, 64, 48
1, 161231, Control_c, 0, 64, 54
1, 161243, Note_off_c, 0, 78, 64
1, 161244, Note_on_c, 0, 83, 80
1, 161246, Control_c, 0, 64, 63
1, 161248, Note_on_c, 0, 47, 74
1, 161260, Control_c, 0, 64, 68
1, 161275, Control_c, 0, 64, 73
1, 161290, Control_c, 0, 64, 79
1, 161305, Control_c, 0, 64, 85
1, 161320, Control_c, 0, 64, 90
1, 161335, Control_c, 0, 64, 93
1, 161344, Note_on_c, 0, 78, 86
1, 161350, Control_c, 0, 64, 93
1, 161352, Note_off_c, 0, 83, 60
1, 161365, Control_c, 0, 64, 91
1, 161379, Control_c, 0, 64, 77
1, 161394, Control_c, 0, 64, 65
1, 161409, Control_c, 0, 64, 58
1, 161424, Control_c, 0, 64, 59
1, 161436, Note_on_c, 0, 74, 80
1, 161438, Note_off_c, 0, 78, 65
1, 161439, Control_c, 0, 64, 65
1, 161454, Control_c, 0, 64, 74
1, 161468, Control_c, 0, 64, 82
1, 161483, Control_c, 0, 64, 92
1, 161498, Control_c, 0, 64, 103
1, 161512, Control_c, 0, 64, 117
1, 161531, Note_on_c, 0, 86, 84
1, 161542, Control_c, 0, 64, 93
1, 161556, Note_off_c, 0, 86, 63
1, 161558, Control_c, 0, 64, 74
1, 161573, Control_c, 0, 64, 63
1, 161577, Note_off_c, 0, 74, 64
1, 161588, Control_c, 0, 64, 60
1, 161603, Control_c, 0, 64, 63
1, 161617, Control_c, 0, 64, 72
1, 161632, Control_c, 0, 64, 90
1, 161644, Note_on_c, 0, 74, 85
1, 161647, Control_c, 0, 64, 103
1, 161662, Control_c, 0, 64, 117
1, 161677, Control_c, 0, 64, 127
1, 161706, Control_c, 0, 64, 115
1, 161721, Control_c, 0, 64, 84
1, 161735, Control_c, 0, 64, 72
1, 161738, Note_off_c, 0, 74, 63
1, 161746, Note_on_c, 0, 71, 79
1, 161750, Control_c, 0, 64, 70
1, 161765, Control_c, 0, 64, 73
1, 161780, Control_c, 0, 64, 80
1, 161795, Control_c, 0, 64, 93
1, 161809, Control_c, 0, 64, 127
1, 161824, Note_on_c, 0, 83, 77
1, 161846, Note_off_c, 0, 83, 72
1, 161873, Note_off_c, 0, 71, 64
1, 161883, Control_c, 0, 64, 95
1, 161898, Control_c, 0, 64, 74
1, 161913, Control_c, 0, 64, 72
1, 161928, Control_c, 0, 64, 78
1, 161939, Note_on_c, 0, 71, 70
1, 161943, Control_c, 0, 64, 94
1, 161958, Control_c, 0, 64, 127
1, 161986, Note_off_c, 0, 71, 65
1, 162047, Note_on_c, 0, 66, 78
1, 162069, Control_c, 0, 64, 91
1, 162083, Control_c, 0, 64, 75
1, 162113, Control_c, 0, 64, 85
1, 162128, Control_c, 0, 64, 127
1, 162134, Note_on_c, 0, 78, 86
1, 162170, Note_off_c, 0, 66, 62
1, 162178, Note_off_c, 0, 78, 69
1, 162242, Note_on_c, 0, 66, 82
1, 162339, Note_on_c, 0, 62, 81
1, 162438, Note_on_c, 0, 74, 79
1, 162450, Note_off_c, 0, 62, 53
1, 162454, Note_off_c, 0, 66, 28
1, 162502, Note_off_c, 0, 59, 37
1, 162537, Note_on_c, 0, 66, 88
1, 162566, Note_off_c, 0, 47, 55
1, 162586, Note_off_c, 0, 74, 52
1, 162597, Note_off_c, 0, 50, 58
1, 162615, Note_off_c, 0, 54, 60
1, 162632, Note_on_c, 0, 62, 83
1, 162674, Note_off_c, 0, 66, 55
1, 162745, Note_on_c, 0, 74, 77
1, 162768, Note_off_c, 0, 62, 49
1, 162848, Note_on_c, 0, 66, 88
1, 162882, Note_off_c, 0, 74, 54
1, 162942, Note_on_c, 0, 62, 83
1, 163019, Note_off_c, 0, 62, 60
1, 163038, Note_on_c, 0, 74, 79
1, 163051, Note_off_c, 0, 66, 65
1, 163082, Note_off_c, 0, 74, 68
1, 163129, Control_c, 0, 64, 74
1, 163144, Control_c, 0, 64, 54
1, 163159, Note_on_c, 0, 79, 104
1, 163160, Control_c, 0, 64, 0
1, 163162, Note_on_c, 0, 50, 87
1, 163234, Control_c, 0, 64, 18
1, 163249, Control_c, 0, 64, 45
1, 163263, Control_c, 0, 64, 68
1, 163266, Note_on_c, 0, 55, 87
1, 163269, Note_on_c, 0, 74, 93
1, 163278, Note_off_c, 0, 79, 56
1, 163278, Control_c, 0, 64, 127
1, 163281, Note_off_c, 0, 50, 62
1, 163357, Note_on_c, 0, 59, 86
1, 163371, Note_on_c, 0, 71, 87
1, 163384, Note_off_c, 0, 55, 65
1, 163397, Note_off_c, 0, 74, 61
1, 163464, Note_on_c, 0, 55, 76
1, 163468, Note_on_c, 0, 74, 93
1, 163484, Note_off_c, 0, 71, 64
1, 163565, Note_on_c, 0, 79, 86
1, 163574, Note_on_c, 0, 50, 77
1, 163586, Note_off_c, 0, 74, 68
1, 163651, Note_on_c, 0, 47, 85
1, 163660, Note_on_c, 0, 83, 89
1, 163672, Note_off_c, 0, 79, 61
1, 163755, Note_on_c, 0, 79, 93
1, 163770, Note_off_c, 0, 83, 63
1, 163848, Note_on_c, 0, 74, 85
1, 163855, Note_off_c, 0, 79, 61
1, 163938, Note_on_c, 0, 86, 93
1, 163974, Note_off_c, 0, 86, 64
1, 163985, Note_off_c, 0, 74, 59
1, 164054, Note_on_c, 0, 74, 95
1, 164155, Note_on_c, 0, 71, 85
1, 164156, Note_off_c, 0, 74, 66
1, 164246, Note_on_c, 0, 83, 90
1, 164277, Note_off_c, 0, 83, 65
1, 164295, Note_off_c, 0, 71, 66
1, 164358, Note_on_c, 0, 71, 93
1, 164390, Control_c, 0, 64, 106
1, 164404, Control_c, 0, 64, 86
1, 164419, Control_c, 0, 64, 88
1, 164434, Control_c, 0, 64, 108
1, 164449, Control_c, 0, 64, 127
1, 164457, Note_on_c, 0, 67, 88
1, 164458, Note_off_c, 0, 71, 62
1, 164537, Control_c, 0, 64, 103
1, 164542, Note_on_c, 0, 79, 92
1, 164552, Control_c, 0, 64, 99
1, 164567, Control_c, 0, 64, 127
1, 164575, Note_off_c, 0, 79, 66
1, 164583, Note_off_c, 0, 67, 60
1, 164655, Note_on_c, 0, 67, 94
1, 164655, Control_c, 0, 64, 113
1, 164670, Control_c, 0, 64, 99
1, 164685, Control_c, 0, 64, 114
1, 164700, Control_c, 0, 64, 127
1, 164754, Note_off_c, 0, 67, 62
1, 164756, Note_on_c, 0, 65, 86
1, 164843, Note_on_c, 0, 77, 98
1, 164879, Control_c, 0, 64, 99
1, 164880, Note_off_c, 0, 77, 67
1, 164881, Note_off_c, 0, 65, 66
1, 164894, Control_c, 0, 64, 97
1, 164909, Control_c, 0, 64, 127
1, 164958, Note_on_c, 0, 67, 96
1, 165034, Note_off_c, 0, 59, 50
1, 165067, Note_on_c, 0, 62, 87
1, 165068, Note_off_c, 0, 47, 59
1, 165101, Note_off_c, 0, 67, 54
1, 165104, Note_off_c, 0, 50, 61
1, 165107, Note_off_c, 0, 55, 59
1, 165162, Note_off_c, 0, 62, 57
1, 165166, Note_on_c, 0, 74, 89
1, 165270, Note_on_c, 0, 67, 90
1, 165287, Note_off_c, 0, 74, 58
1, 165372, Note_on_c, 0, 62, 87
1, 165435, Note_off_c, 0, 62, 61
1, 165457, Poly_aftertouch_c, 0, 69, 0
1, 165463, Note_on_c, 0, 74, 88
1, 165484, Note_off_c, 0, 67, 65
1, 165506, Note_off_c, 0, 74, 69
1, 165584, Control_c, 0, 64, 92
1, 165599, Control_c, 0, 64, 57
1, 165614, Control_c, 0, 64, 0
1, 165620, Note_on_c, 0, 84, 101
1, 165624, Note_on_c, 0, 51, 80
1, 165673, Control_c, 0, 64, 20
1, 165688, Control_c, 0, 64, 51
1, 165702, Control_c, 0, 64, 127
1, 165764, Note_on_c, 0, 79, 98
1, 165767, Note_on_c, 0, 55, 88
1, 165776, Note_off_c, 0, 84, 53
1, 165803, Note_off_c, 0, 51, 61
1, 165822, Note_off_c, 0, 79, 60
1, 165898, Note_on_c, 0, 60, 100
1, 165898, Note_on_c, 0, 75, 90
1, 165925, Note_off_c, 0, 55, 65
1, 165958, Note_off_c, 0, 75, 62
1, 166015, Note_on_c, 0, 79, 99
1, 166018, Note_on_c, 0, 55, 81
1, 166119, Note_on_c, 0, 84, 88
1, 166124, Note_on_c, 0, 51, 86
1, 166134, Note_off_c, 0, 79, 55
1, 166140, Control_c, 0, 64, 85
1, 166155, Control_c, 0, 64, 78
1, 166164, Note_on_c, 0, 54, 42
1, 166170, Control_c, 0, 64, 83
1, 166184, Control_c, 0, 64, 109
1, 166199, Control_c, 0, 64, 127
1, 166214, Note_off_c, 0, 54, 44
1, 166220, Note_on_c, 0, 48, 92
1, 166228, Note_on_c, 0, 87, 88
1, 166256, Note_off_c, 0, 84, 57
1, 166302, Control_c, 0, 64, 85
1, 166317, Control_c, 0, 64, 75
1, 166323, Note_on_c, 0, 79, 87
1, 166332, Control_c, 0, 64, 77
1, 166333, Note_off_c, 0, 87, 65
1, 166348, Control_c, 0, 64, 95
1, 166363, Control_c, 0, 64, 127
1, 166421, Note_on_c, 0, 75, 88
1, 166435, Note_off_c, 0, 79, 60
1, 166520, Note_on_c, 0, 87, 87
1, 166533, Control_c, 0, 64, 89
1, 166548, Note_off_c, 0, 75, 59
1, 166548, Control_c, 0, 64, 93
1, 166556, Note_off_c, 0, 87, 65
1, 166563, Control_c, 0, 64, 127
1, 166616, Note_on_c, 0, 75, 90
1, 166709, Note_off_c, 0, 75, 64
1, 166715, Note_on_c, 0, 72, 89
1, 166740, Control_c, 0, 64, 85
1, 166755, Control_c, 0, 64, 84
1, 166770, Control_c, 0, 64, 114
1, 166785, Control_c, 0, 64, 127
1, 166802, Note_on_c, 0, 84, 88
1, 166831, Note_off_c, 0, 84, 62
1, 166849, Note_off_c, 0, 72, 61
1, 166873, Control_c, 0, 64, 111
1, 166888, Control_c, 0, 64, 82
1, 166903, Control_c, 0, 64, 88
1, 166915, Note_on_c, 0, 72, 93
1, 166918, Control_c, 0, 64, 127
1, 167009, Note_on_c, 0, 67, 86
1, 167019, Note_off_c, 0, 72, 62
1, 167037, Control_c, 0, 64, 98
1, 167051, Control_c, 0, 64, 77
1, 167066, Control_c, 0, 64, 83
1, 167081, Control_c, 0, 64, 127
1, 167095, Note_on_c, 0, 79, 90
1, 167121, Note_off_c, 0, 79, 60
1, 167134, Note_off_c, 0, 67, 62
1, 167186, Control_c, 0, 64, 106
1, 167201, Control_c, 0, 64, 87
1, 167208, Note_on_c, 0, 67, 90
1, 167216, Control_c, 0, 64, 91
1, 167237, Control_c, 0, 64, 127
1, 167317, Note_off_c, 0, 67, 0
1, 167317, Note_on_c, 0, 63, 82
1, 167326, Control_c, 0, 64, 91
1, 167341, Control_c, 0, 64, 73
1, 167346, Note_on_c, 0, 67, 6
1, 167356, Control_c, 0, 64, 76
1, 167371, Control_c, 0, 64, 102
1, 167386, Control_c, 0, 64, 127
1, 167403, Note_on_c, 0, 75, 88
1, 167419, Note_off_c, 0, 63, 65
1, 167435, Note_off_c, 0, 67, 37
1, 167445, Control_c, 0, 64, 83
1, 167460, Control_c, 0, 64, 67
1, 167474, Control_c, 0, 64, 68
1, 167489, Control_c, 0, 64, 81
1, 167497, Note_on_c, 0, 67, 88
1, 167504, Note_off_c, 0, 75, 61
1, 167504, Control_c, 0, 64, 127
1, 167563, Control_c, 0, 64, 96
1, 167578, Control_c, 0, 64, 76
1, 167593, Control_c, 0, 64, 77
1, 167600, Note_on_c, 0, 63, 83
1, 167608, Control_c, 0, 64, 89
1, 167622, Control_c, 0, 64, 122
1, 167637, Control_c, 0, 64, 127
1, 167640, Note_off_c, 0, 67, 58
1, 167698, Note_on_c, 0, 75, 84
1, 167701, Note_off_c, 0, 60, 59
1, 167714, Note_off_c, 0, 63, 62
1, 167723, Note_off_c, 0, 48, 62
1, 167747, Note_off_c, 0, 51, 61
1, 167753, Note_off_c, 0, 55, 62
1, 167787, Note_on_c, 0, 67, 90
1, 167794, Note_off_c, 0, 75, 61
1, 167889, Note_on_c, 0, 63, 87
1, 167979, Note_off_c, 0, 63, 63
1, 167999, Note_on_c, 0, 75, 81
1, 168009, Note_off_c, 0, 67, 62
1, 168045, Note_off_c, 0, 75, 64
1, 168075, Control_c, 0, 64, 99
1, 168090, Control_c, 0, 64, 65
1, 168104, Control_c, 0, 64, 42
1, 168119, Control_c, 0, 64, 0
1, 168121, Note_on_c, 0, 77, 94
1, 168123, Note_on_c, 0, 56, 75
1, 168208, Control_c, 0, 64, 38
1, 168218, Note_on_c, 0, 61, 81
1, 168222, Note_on_c, 0, 73, 83
1, 168223, Control_c, 0, 64, 61
1, 168224, Note_off_c, 0, 77, 62
1, 168238, Control_c, 0, 64, 89
1, 168249, Note_off_c, 0, 56, 61
1, 168252, Control_c, 0, 64, 127
1, 168307, Note_on_c, 0, 65, 88
1, 168310, Note_on_c, 0, 68, 82
1, 168326, Note_off_c, 0, 61, 64
1, 168335, Note_off_c, 0, 73, 59
1, 168341, Control_c, 0, 64, 117
1, 168356, Control_c, 0, 64, 80
1, 168370, Control_c, 0, 64, 64
1, 168385, Control_c, 0, 64, 57
1, 168408, Note_on_c, 0, 61, 84
1, 168412, Note_on_c, 0, 73, 86
1, 168415, Control_c, 0, 64, 64
1, 168430, Control_c, 0, 64, 76
1, 168433, Note_off_c, 0, 68, 52
1, 168444, Control_c, 0, 64, 93
1, 168459, Control_c, 0, 64, 104
1, 168474, Control_c, 0, 64, 114
1, 168489, Control_c, 0, 64, 127
1, 168496, Note_on_c, 0, 56, 76
1, 168505, Note_on_c, 0, 77, 78
1, 168529, Note_off_c, 0, 73, 63
1, 168565, Note_off_c, 0, 65, 53
1, 168600, Note_on_c, 0, 53, 77
1, 168606, Note_on_c, 0, 80, 89
1, 168637, Note_off_c, 0, 77, 60
1, 168647, Note_off_c, 0, 61, 60
1, 168659, Note_off_c, 0, 53, 66
1, 168663, Note_off_c, 0, 56, 45
1, 168706, Note_on_c, 0, 77, 83
1, 168724, Note_off_c, 0, 80, 58
1, 168816, Note_on_c, 0, 73, 84
1, 168829, Note_off_c, 0, 77, 62
1, 168910, Note_on_c, 0, 68, 79
1, 168923, Note_off_c, 0, 73, 62
1, 169002, Note_on_c, 0, 77, 85
1, 169025, Note_off_c, 0, 68, 57
1, 169103, Note_on_c, 0, 73, 79
1, 169124, Note_off_c, 0, 77, 61
1, 169192, Note_on_c, 0, 68, 74
1, 169204, Note_off_c, 0, 73, 61
1, 169234, Note_off_c, 0, 68, 60
1, 169239, Control_c, 0, 64, 93
1, 169253, Control_c, 0, 64, 63
1, 169268, Control_c, 0, 64, 27
1, 169283, Control_c, 0, 64, 0
1, 169289, Note_on_c, 0, 60, 83
1, 169292, Note_on_c, 0, 75, 88
1, 169387, Control_c, 0, 64, 16
1, 169395, Note_on_c, 0, 63, 85
1, 169399, Note_on_c, 0, 72, 89
1, 169401, Control_c, 0, 64, 38
1, 169416, Control_c, 0, 64, 55
1, 169425, Note_off_c, 0, 60, 59
1, 169431, Control_c, 0, 64, 66
1, 169432, Note_off_c, 0, 75, 52
1, 169446, Control_c, 0, 64, 72
1, 169483, Control_c, 0, 64, 74
1, 169493, Note_on_c, 0, 69, 89
1, 169498, Control_c, 0, 64, 82
1, 169505, Note_on_c, 0, 66, 90
1, 169513, Control_c, 0, 64, 93
1, 169522, Note_off_c, 0, 72, 63
1, 169524, Note_off_c, 0, 63, 62
1, 169527, Control_c, 0, 64, 97
1, 169543, Control_c, 0, 64, 96
1, 169558, Control_c, 0, 64, 81
1, 169573, Control_c, 0, 64, 67
1, 169588, Control_c, 0, 64, 60
1, 169596, Note_on_c, 0, 72, 94
1, 169603, Control_c, 0, 64, 58
1, 169607, Note_on_c, 0, 63, 83
1, 169613, Note_off_c, 0, 69, 63
1, 169618, Control_c, 0, 64, 61
1, 169632, Control_c, 0, 64, 70
1, 169647, Control_c, 0, 64, 109
1, 169662, Control_c, 0, 64, 127
1, 169691, Note_on_c, 0, 75, 90
1, 169696, Note_on_c, 0, 60, 75
1, 169721, Control_c, 0, 64, 81
1, 169732, Note_off_c, 0, 72, 59
1, 169736, Control_c, 0, 64, 66
1, 169744, Note_off_c, 0, 66, 47
1, 169750, Control_c, 0, 64, 61
1, 169765, Control_c, 0, 64, 64
1, 169780, Control_c, 0, 64, 83
1, 169782, Note_on_c, 0, 54, 83
1, 169792, Note_on_c, 0, 81, 97
1, 169795, Control_c, 0, 64, 127
1, 169809, Note_off_c, 0, 75, 59
1, 169818, Note_off_c, 0, 60, 64
1, 169833, Note_off_c, 0, 63, 55
1, 169837, Note_off_c, 0, 54, 66
1, 169891, Note_on_c, 0, 75, 91
1, 169922, Note_off_c, 0, 81, 60
1, 169994, Note_on_c, 0, 72, 90
1, 170072, Note_off_c, 0, 75, 57
1, 170087, Note_on_c, 0, 69, 86
1, 170116, Note_off_c, 0, 72, 63
1, 170196, Note_on_c, 0, 75, 86
1, 170238, Note_off_c, 0, 69, 61
1, 170314, Note_on_c, 0, 72, 87
1, 170391, Note_off_c, 0, 75, 61
1, 170423, Note_on_c, 0, 69, 85
1, 170454, Note_off_c, 0, 72, 60
1, 170536, Note_on_c, 0, 59, 97
1, 170588, Control_c, 0, 64, 70
1, 170603, Control_c, 0, 64, 51
1, 170618, Control_c, 0, 64, 0
1, 170665, Note_on_c, 0, 62, 87
1, 170668, Note_off_c, 0, 69, 50
1, 170689, Note_off_c, 0, 59, 61
1, 170692, Control_c, 0, 64, 8
1, 170707, Control_c, 0, 64, 38
1, 170722, Control_c, 0, 64, 57
1, 170736, Control_c, 0, 64, 79
1, 170751, Control_c, 0, 64, 127
1, 170772, Note_on_c, 0, 67, 95
1, 170808, Note_off_c, 0, 62, 61
1, 170841, Control_c, 0, 64, 101
1, 170855, Control_c, 0, 64, 71
1, 170865, Note_on_c, 0, 71, 95
1, 170870, Control_c, 0, 64, 54
1, 170882, Note_on_c, 0, 62, 72
1, 170885, Control_c, 0, 64, 20
1, 170899, Control_c, 0, 64, 24
1, 170914, Control_c, 0, 64, 39
1, 170929, Control_c, 0, 64, 54
1, 170944, Control_c, 0, 64, 70
1, 170959, Control_c, 0, 64, 111
1, 170975, Note_on_c, 0, 74, 94
1, 170981, Control_c, 0, 64, 127
1, 170987, Note_on_c, 0, 59, 73
1, 170996, Control_c, 0, 64, 115
1, 171011, Control_c, 0, 64, 97
1, 171017, Note_off_c, 0, 71, 63
1, 171025, Control_c, 0, 64, 84
1, 171040, Control_c, 0, 64, 75
1, 171055, Control_c, 0, 64, 73
1, 171073, Note_on_c, 0, 55, 78
1, 171079, Note_on_c, 0, 79, 94
1, 171085, Control_c, 0, 64, 74
1, 171099, Control_c, 0, 64, 77
1, 171106, Note_off_c, 0, 74, 62
1, 171114, Control_c, 0, 64, 80
1, 171129, Control_c, 0, 64, 81
1, 171177, Note_on_c, 0, 74, 88
1, 171197, Note_off_c, 0, 62, 61
1, 171205, Note_off_c, 0, 67, 56
1, 171222, Note_off_c, 0, 79, 56
1, 171278, Control_c, 0, 64, 81
1, 171283, Note_on_c, 0, 71, 74
1, 171319, Note_off_c, 0, 74, 56
1, 171322, Control_c, 0, 64, 82
1, 171337, Control_c, 0, 64, 82
1, 171352, Control_c, 0, 64, 83
1, 171367, Control_c, 0, 64, 84
1, 171369, Note_on_c, 0, 67, 77
1, 171382, Control_c, 0, 64, 84
1, 171398, Note_off_c, 0, 71, 63
1, 171411, Control_c, 0, 64, 81
1, 171426, Control_c, 0, 64, 70
1, 171440, Control_c, 0, 64, 59
1, 171455, Control_c, 0, 64, 36
1, 171470, Note_on_c, 0, 77, 73
1, 171470, Control_c, 0, 64, 0
1, 171473, Note_on_c, 0, 62, 60
1, 171486, Note_off_c, 0, 67, 60
1, 171514, Control_c, 0, 64, 11
1, 171523, Note_off_c, 0, 59, 60
1, 171529, Control_c, 0, 64, 30
1, 171544, Control_c, 0, 64, 44
1, 171559, Control_c, 0, 64, 59
1, 171574, Control_c, 0, 64, 65
1, 171575, Note_on_c, 0, 71, 63
1, 171589, Control_c, 0, 64, 66
1, 171608, Note_off_c, 0, 77, 51
1, 171648, Control_c, 0, 64, 67
1, 171664, Note_off_c, 0, 71, 61
1, 171675, Note_on_c, 0, 67, 65
1, 171693, Control_c, 0, 64, 65
1, 171708, Control_c, 0, 64, 60
1, 171729, Control_c, 0, 64, 49
1, 171744, Control_c, 0, 64, 27
1, 171759, Control_c, 0, 64, 0
1, 171768, Note_on_c, 0, 77, 70
1, 171771, Note_off_c, 0, 67, 54
1, 171774, Control_c, 0, 64, 11
1, 171786, Note_on_c, 0, 59, 51
1, 171789, Control_c, 0, 64, 25
1, 171804, Control_c, 0, 64, 36
1, 171819, Control_c, 0, 64, 47
1, 171822, Note_off_c, 0, 55, 64
1, 171833, Control_c, 0, 64, 58
1, 171848, Control_c, 0, 64, 65
1, 171863, Control_c, 0, 64, 67
1, 171872, Note_on_c, 0, 74, 62
1, 171884, Note_off_c, 0, 77, 59
1, 171907, Control_c, 0, 64, 68
1, 171921, Control_c, 0, 64, 68
1, 171936, Control_c, 0, 64, 69
1, 171940, Note_off_c, 0, 74, 62
1, 171967, Control_c, 0, 64, 68
1, 171976, Note_on_c, 0, 67, 64
1, 171982, Control_c, 0, 64, 65
1, 171997, Control_c, 0, 64, 60
1, 172012, Control_c, 0, 64, 48
1, 172026, Control_c, 0, 64, 28
1, 172041, Control_c, 0, 64, 16
1, 172056, Control_c, 0, 64, 23
1, 172062, Note_on_c, 0, 75, 66
1, 172069, Note_on_c, 0, 55, 51
1, 172070, Control_c, 0, 64, 32
1, 172072, Note_off_c, 0, 67, 59
1, 172085, Control_c, 0, 64, 42
1, 172086, Note_off_c, 0, 59, 52
1, 172100, Control_c, 0, 64, 53
1, 172115, Control_c, 0, 64, 63
1, 172126, Note_off_c, 0, 62, 61
1, 172130, Control_c, 0, 64, 69
1, 172144, Control_c, 0, 64, 70
1, 172159, Control_c, 0, 64, 71
1, 172161, Note_on_c, 0, 74, 60
1, 172170, Note_off_c, 0, 75, 61
1, 172174, Control_c, 0, 64, 72
1, 172189, Control_c, 0, 64, 72
1, 172233, Control_c, 0, 64, 71
1, 172245, Note_off_c, 0, 74, 60
1, 172248, Control_c, 0, 64, 67
1, 172263, Control_c, 0, 64, 62
1, 172271, Note_on_c, 0, 67, 65
1, 172278, Control_c, 0, 64, 52
1, 172293, Control_c, 0, 64, 38
1, 172307, Control_c, 0, 64, 30
1, 172322, Control_c, 0, 64, 33
1, 172337, Control_c, 0, 64, 38
1, 172352, Control_c, 0, 64, 43
1, 172363, Note_on_c, 0, 60, 57
1, 172367, Control_c, 0, 64, 52
1, 172369, Note_on_c, 0, 75, 64
1, 172382, Control_c, 0, 64, 60
1, 172388, Note_off_c, 0, 67, 54
1, 172397, Control_c, 0, 64, 67
1, 172411, Control_c, 0, 64, 70
1, 172426, Control_c, 0, 64, 71
1, 172441, Control_c, 0, 64, 72
1, 172462, Control_c, 0, 64, 72
1, 172477, Control_c, 0, 64, 74
1, 172480, Note_on_c, 0, 72, 63
1, 172492, Control_c, 0, 64, 74
1, 172504, Note_off_c, 0, 75, 54
1, 172507, Control_c, 0, 64, 75
1, 172552, Control_c, 0, 64, 73
1, 172567, Control_c, 0, 64, 69
1, 172576, Note_on_c, 0, 67, 60
1, 172577, Note_off_c, 0, 72, 56
1, 172582, Control_c, 0, 64, 62
1, 172596, Control_c, 0, 64, 51
1, 172611, Control_c, 0, 64, 34
1, 172626, Control_c, 0, 64, 19
1, 172641, Control_c, 0, 64, 22
1, 172656, Control_c, 0, 64, 29
1, 172670, Control_c, 0, 64, 38
1, 172677, Note_on_c, 0, 66, 60
1, 172681, Note_off_c, 0, 67, 53
1, 172684, Note_on_c, 0, 74, 62
1, 172685, Control_c, 0, 64, 50
1, 172700, Control_c, 0, 64, 62
1, 172715, Control_c, 0, 64, 73
1, 172730, Control_c, 0, 64, 76
1, 172746, Control_c, 0, 64, 77
1, 172755, Note_off_c, 0, 66, 63
1, 172761, Control_c, 0, 64, 82
1, 172768, Note_off_c, 0, 60, 58
1, 172775, Control_c, 0, 64, 86
1, 172788, Note_off_c, 0, 55, 64
1, 172790, Control_c, 0, 64, 87
1, 172793, Note_on_c, 0, 72, 60
1, 172820, Control_c, 0, 64, 87
1, 172835, Control_c, 0, 64, 88
1, 172849, Control_c, 0, 64, 91
1, 172864, Control_c, 0, 64, 97
1, 172879, Control_c, 0, 64, 100
1, 172890, Note_on_c, 0, 69, 63
1, 172908, Control_c, 0, 64, 93
1, 172923, Control_c, 0, 64, 80
1, 172938, Control_c, 0, 64, 65
1, 172950, Note_off_c, 0, 72, 55
1, 172953, Control_c, 0, 64, 50
1, 172960, Note_off_c, 0, 69, 63
1, 172960, Note_off_c, 0, 74, 60
1, 172967, Control_c, 0, 64, 0
1, 172985, Note_on_c, 0, 47, 92
1, 173084, Note_on_c, 0, 50, 91
1, 173114, Note_off_c, 0, 47, 64
1, 173130, Control_c, 0, 64, 25
1, 173145, Control_c, 0, 64, 36
1, 173160, Control_c, 0, 64, 44
1, 173175, Control_c, 0, 64, 52
1, 173178, Note_on_c, 0, 55, 88
1, 173190, Control_c, 0, 64, 59
1, 173205, Note_off_c, 0, 50, 62
1, 173205, Control_c, 0, 64, 64
1, 173226, Control_c, 0, 64, 69
1, 173241, Control_c, 0, 64, 70
1, 173256, Control_c, 0, 64, 67
1, 173271, Control_c, 0, 64, 61
1, 173285, Note_on_c, 0, 59, 93
1, 173286, Control_c, 0, 64, 41
1, 173300, Note_on_c, 0, 50, 79
1, 173300, Control_c, 0, 64, 0
1, 173360, Control_c, 0, 64, 12
1, 173375, Control_c, 0, 64, 31
1, 173382, Note_on_c, 0, 62, 91
1, 173389, Control_c, 0, 64, 45
1, 173396, Note_on_c, 0, 47, 72
1, 173404, Control_c, 0, 64, 54
1, 173418, Note_off_c, 0, 59, 62
1, 173419, Control_c, 0, 64, 60
1, 173434, Control_c, 0, 64, 61
1, 173479, Control_c, 0, 64, 57
1, 173488, Note_on_c, 0, 43, 80
1, 173489, Note_on_c, 0, 67, 91
1, 173493, Control_c, 0, 64, 43
1, 173508, Control_c, 0, 64, 0
1, 173510, Note_off_c, 0, 62, 60
1, 173567, Note_off_c, 0, 55, 53
1, 173568, Control_c, 0, 64, 12
1, 173579, Note_off_c, 0, 50, 55
1, 173583, Control_c, 0, 64, 31
1, 173589, Note_on_c, 0, 62, 87
1, 173598, Control_c, 0, 64, 43
1, 173613, Control_c, 0, 64, 54
1, 173620, Note_off_c, 0, 67, 61
1, 173628, Control_c, 0, 64, 60
1, 173642, Control_c, 0, 64, 62
1, 173672, Control_c, 0, 64, 62
1, 173687, Control_c, 0, 64, 63
1, 173697, Note_on_c, 0, 59, 76
1, 173702, Control_c, 0, 64, 64
1, 173730, Note_off_c, 0, 62, 56
1, 173776, Control_c, 0, 64, 64
1, 173792, Note_on_c, 0, 55, 75
1, 173805, Control_c, 0, 64, 64
1, 173820, Note_off_c, 0, 59, 55
1, 173820, Control_c, 0, 64, 63
1, 173834, Control_c, 0, 64, 60
1, 173849, Control_c, 0, 64, 48
1, 173864, Control_c, 0, 64, 23
1, 173879, Control_c, 0, 64, 0
1, 173919, Note_on_c, 0, 50, 53
1, 173920, Note_on_c, 0, 65, 70
1, 173939, Note_off_c, 0, 55, 39
1, 174020, Control_c, 0, 64, 13
1, 174021, Note_off_c, 0, 47, 54
1, 174035, Control_c, 0, 64, 28
1, 174040, Note_on_c, 0, 59, 56
1, 174049, Control_c, 0, 64, 39
1, 174061, Note_off_c, 0, 65, 57
1, 174064, Control_c, 0, 64, 47
1, 174079, Control_c, 0, 64, 53
1, 174094, Control_c, 0, 64, 57
1, 174109, Control_c, 0, 64, 58
1, 174129, Note_off_c, 0, 59, 57
1, 174137, Note_on_c, 0, 55, 61
1, 174138, Control_c, 0, 64, 59
1, 174153, Control_c, 0, 64, 59
1, 174182, Control_c, 0, 64, 58
1, 174197, Control_c, 0, 64, 53
1, 174212, Control_c, 0, 64, 39
1, 174227, Control_c, 0, 64, 0
1, 174233, Note_off_c, 0, 55, 55
1, 174234, Note_on_c, 0, 65, 68
1, 174245, Note_on_c, 0, 47, 49
1, 174286, Control_c, 0, 64, 12
1, 174301, Control_c, 0, 64, 26
1, 174315, Control_c, 0, 64, 36
1, 174319, Note_off_c, 0, 43, 59
1, 174330, Control_c, 0, 64, 45
1, 174346, Control_c, 0, 64, 53
1, 174349, Note_on_c, 0, 62, 54
1, 174361, Control_c, 0, 64, 57
1, 174376, Control_c, 0, 64, 59
1, 174380, Note_off_c, 0, 65, 53
1, 174421, Note_off_c, 0, 62, 62
1, 174450, Control_c, 0, 64, 58
1, 174458, Note_on_c, 0, 55, 51
1, 174464, Control_c, 0, 64, 56
1, 174479, Control_c, 0, 64, 50
1, 174494, Control_c, 0, 64, 34
1, 174509, Control_c, 0, 64, 0
1, 174547, Note_on_c, 0, 63, 65
1, 174558, Note_on_c, 0, 43, 52
1, 174571, Note_off_c, 0, 55, 38
1, 174583, Control_c, 0, 64, 16
1, 174598, Control_c, 0, 64, 30
1, 174612, Control_c, 0, 64, 39
1, 174617, Note_off_c, 0, 50, 58
1, 174618, Note_off_c, 0, 47, 37
1, 174627, Control_c, 0, 64, 49
1, 174642, Control_c, 0, 64, 55
1, 174651, Note_on_c, 0, 62, 62
1, 174656, Control_c, 0, 64, 57
1, 174671, Control_c, 0, 64, 58
1, 174690, Note_off_c, 0, 63, 58
1, 174724, Control_c, 0, 64, 57
1, 174738, Control_c, 0, 64, 54
1, 174739, Note_off_c, 0, 62, 60
1, 174753, Control_c, 0, 64, 46
1, 174763, Note_on_c, 0, 55, 56
1, 174768, Control_c, 0, 64, 27
1, 174783, Control_c, 0, 64, 0
1, 174857, Control_c, 0, 64, 15
1, 174859, Note_on_c, 0, 63, 58
1, 174861, Note_on_c, 0, 48, 57
1, 174871, Control_c, 0, 64, 30
1, 174872, Note_off_c, 0, 55, 59
1, 174886, Control_c, 0, 64, 39
1, 174901, Control_c, 0, 64, 47
1, 174916, Control_c, 0, 64, 54
1, 174931, Control_c, 0, 64, 57
1, 174946, Control_c, 0, 64, 58
1, 174960, Control_c, 0, 64, 58
1, 174961, Note_on_c, 0, 60, 60
1, 174978, Note_off_c, 0, 63, 58
1, 175005, Control_c, 0, 64, 58
1, 175020, Control_c, 0, 64, 56
1, 175035, Control_c, 0, 64, 52
1, 175050, Control_c, 0, 64, 43
1, 175057, Note_off_c, 0, 60, 62
1, 175064, Control_c, 0, 64, 24
1, 175068, Note_on_c, 0, 55, 50
1, 175079, Control_c, 0, 64, 0
1, 175139, Control_c, 0, 64, 9
1, 175154, Control_c, 0, 64, 27
1, 175162, Note_on_c, 0, 54, 54
1, 175162, Note_on_c, 0, 62, 66
1, 175169, Control_c, 0, 64, 38
1, 175180, Note_off_c, 0, 55, 37
1, 175184, Control_c, 0, 64, 47
1, 175199, Control_c, 0, 64, 55
1, 175210, Note_off_c, 0, 48, 43
1, 175214, Control_c, 0, 64, 57
1, 175229, Control_c, 0, 64, 58
1, 175258, Control_c, 0, 64, 59
1, 175268, Note_on_c, 0, 60, 61
1, 175273, Control_c, 0, 64, 59
1, 175275, Note_off_c, 0, 62, 57
1, 175287, Control_c, 0, 64, 60
1, 175332, Control_c, 0, 64, 59
1, 175347, Control_c, 0, 64, 56
1, 175349, Note_off_c, 0, 60, 64
1, 175354, Note_off_c, 0, 54, 59
1, 175361, Control_c, 0, 64, 48
1, 175362, Note_on_c, 0, 57, 57
1, 175376, Control_c, 0, 64, 30
1, 175391, Control_c, 0, 64, 0
1, 175466, Note_off_c, 0, 57, 45
1, 175473, Note_on_c, 0, 62, 67
1, 175473, Control_c, 0, 64, 10
1, 175477, Note_on_c, 0, 55, 56
1, 175487, Control_c, 0, 64, 37
1, 175502, Control_c, 0, 64, 50
1, 175509, Note_off_c, 0, 55, 66
1, 175517, Control_c, 0, 64, 59
1, 175532, Control_c, 0, 64, 62
1, 175534, Note_off_c, 0, 43, 41
1, 175547, Control_c, 0, 64, 63
1, 175580, Note_on_c, 0, 59, 57
1, 175593, Note_off_c, 0, 62, 59
1, 175652, Note_off_c, 0, 59, 62
1, 175666, Control_c, 0, 64, 62
1, 175677, Note_on_c, 0, 55, 60
1, 175681, Control_c, 0, 64, 59
1, 175695, Control_c, 0, 64, 50
1, 175710, Control_c, 0, 64, 23
1, 175725, Control_c, 0, 64, 0
1, 175763, Note_off_c, 0, 55, 46
1, 175766, Note_on_c, 0, 60, 74
1, 175768, Note_on_c, 0, 48, 66
1, 175867, Note_off_c, 0, 60, 63
1, 175879, Note_on_c, 0, 55, 60
1, 175965, Note_off_c, 0, 55, 62
1, 175971, Note_on_c, 0, 51, 57
1, 176020, Note_off_c, 0, 48, 37
1, 176031, Note_off_c, 0, 51, 64
1, 176044, Note_on_c, 0, 43, 64
1, 176063, Note_on_c, 0, 59, 60
1, 176145, Note_off_c, 0, 59, 60
1, 176158, Note_on_c, 0, 55, 58
1, 176221, Note_off_c, 0, 55, 63
1, 176264, Note_on_c, 0, 50, 53
1, 176347, Note_off_c, 0, 50, 51
1, 176350, Note_on_c, 0, 57, 67
1, 176351, Note_on_c, 0, 36, 56
1, 176380, Note_off_c, 0, 43, 33
1, 176439, Note_off_c, 0, 57, 61
1, 176452, Note_on_c, 0, 51, 52
1, 176523, Note_off_c, 0, 51, 58
1, 176549, Note_on_c, 0, 48, 48
1, 176613, Note_off_c, 0, 36, 55
1, 176645, Note_on_c, 0, 55, 62
1, 176646, Note_off_c, 0, 48, 56
1, 176651, Note_on_c, 0, 31, 53
1, 176732, Note_off_c, 0, 55, 64
1, 176762, Note_on_c, 0, 50, 38
1, 176811, Note_off_c, 0, 50, 49
1, 176843, Note_on_c, 0, 47, 45
1, 176934, Note_off_c, 0, 31, 61
1, 176944, Note_off_c, 0, 47, 40
1, 176962, Note_on_c, 0, 54, 52
1, 176971, Note_on_c, 0, 36, 51
1, 177045, Note_off_c, 0, 54, 61
1, 177057, Note_on_c, 0, 51, 47
1, 177113, Note_off_c, 0, 51, 58
1, 177166, Note_on_c, 0, 45, 44
1, 177233, Note_off_c, 0, 45, 52
1, 177269, Note_on_c, 0, 31, 50
1, 177271, Note_on_c, 0, 55, 53
1, 177275, Note_off_c, 0, 36, 42
1, 177347, Note_off_c, 0, 55, 60
1, 177380, Note_on_c, 0, 50, 44
1, 177426, Note_off_c, 0, 50, 59
1, 177474, Note_on_c, 0, 47, 35
1, 177551, Note_off_c, 0, 47, 41
1, 177557, Note_off_c, 0, 31, 55
1, 177571, Note_on_c, 0, 54, 50
1, 177587, Note_on_c, 0, 36, 44
1, 177655, Note_off_c, 0, 54, 54
1, 177670, Note_on_c, 0, 51, 38
1, 177682, Control_c, 0, 67, 9
1, 177697, Control_c, 0, 67, 10
1, 177720, Control_c, 0, 67, 12
1, 177733, Note_off_c, 0, 51, 44
1, 177735, Control_c, 0, 67, 14
1, 177759, Note_on_c, 0, 45, 46
1, 177764, Control_c, 0, 67, 14
1, 177779, Control_c, 0, 67, 15
1, 177794, Control_c, 0, 67, 23
1, 177795, Note_off_c, 0, 45, 56
1, 177808, Control_c, 0, 67, 36
1, 177823, Control_c, 0, 67, 48
1, 177838, Control_c, 0, 67, 56
1, 177853, Control_c, 0, 67, 64
1, 177868, Control_c, 0, 67, 71
1, 177880, Note_off_c, 0, 36, 43
1, 177882, Control_c, 0, 67, 80
1, 177897, Control_c, 0, 67, 90
1, 177900, Note_on_c, 0, 31, 49
1, 177906, Note_on_c, 0, 55, 49
1, 177912, Control_c, 0, 67, 99
1, 177927, Control_c, 0, 67, 108
1, 177929, Note_on_c, 0, 47, 41
1, 177942, Control_c, 0, 67, 115
1, 177950, Note_on_c, 0, 50, 16
1, 177955, Note_off_c, 0, 31, 59
1, 177956, Control_c, 0, 67, 123
1, 177971, Control_c, 0, 67, 127
1, 177996, Note_on_c, 0, 36, 39
1, 178049, Note_off_c, 0, 36, 57
1, 178078, Note_on_c, 0, 35, 39
1, 178135, Note_off_c, 0, 35, 55
1, 178141, Note_on_c, 0, 33, 47
1, 178222, Note_off_c, 0, 33, 61
1, 178226, Note_on_c, 0, 31, 51
1, 178266, Note_off_c, 0, 31, 62
1, 178303, Note_on_c, 0, 36, 36
1, 178353, Note_off_c, 0, 36, 47
1, 178366, Note_on_c, 0, 35, 41
1, 178432, Note_on_c, 0, 33, 48
1, 178481, Note_off_c, 0, 35, 36
1, 178526, Note_on_c, 0, 31, 52
1, 178540, Note_off_c, 0, 33, 59
1, 178577, Note_off_c, 0, 31, 60
1, 178606, Note_on_c, 0, 36, 39
1, 178654, Note_off_c, 0, 36, 53
1, 178674, Note_on_c, 0, 35, 43
1, 178724, Note_on_c, 0, 33, 47
1, 178797, Note_off_c, 0, 35, 37
1, 178824, Note_on_c, 0, 31, 55
1, 178836, Note_off_c, 0, 33, 58
1, 178850, Note_off_c, 0, 47, 24
1, 178871, Note_off_c, 0, 31, 62
1, 178892, Note_off_c, 0, 50, 42
1, 178904, Note_on_c, 0, 36, 40
1, 178955, Note_off_c, 0, 36, 54
1, 178970, Note_on_c, 0, 35, 48
1, 179035, Note_on_c, 0, 33, 45
1, 179064, Note_off_c, 0, 35, 51
1, 179113, Note_off_c, 0, 33, 62
1, 179128, Note_on_c, 0, 31, 49
1, 179194, Note_off_c, 0, 55, 44
1, 179215, Note_on_c, 0, 50, 42
1, 179276, Note_off_c, 0, 50, 43
1, 179290, Note_on_c, 0, 52, 39
1, 179366, Note_on_c, 0, 54, 47
1, 179405, Note_off_c, 0, 52, 38
1, 179438, Note_off_c, 0, 54, 61
1, 179441, Note_on_c, 0, 55, 53
1, 179488, Note_off_c, 0, 55, 64
1, 179518, Note_on_c, 0, 50, 50
1, 179568, Note_off_c, 0, 50, 58
1, 179581, Note_on_c, 0, 52, 45
1, 179658, Note_on_c, 0, 54, 50
1, 179694, Note_off_c, 0, 52, 38
1, 179727, Note_off_c, 0, 54, 59
1, 179736, Note_on_c, 0, 55, 51
1, 179785, Note_off_c, 0, 55, 63
1, 179813, Note_on_c, 0, 50, 50
1, 179862, Note_off_c, 0, 50, 58
1, 179881, Note_on_c, 0, 52, 43
1, 179977, Note_on_c, 0, 54, 49
1, 179991, Note_off_c, 0, 52, 52
1, 180040, Note_off_c, 0, 54, 61
1, 180048, Note_on_c, 0, 55, 51
1, 180094, Note_off_c, 0, 55, 64
1, 180125, Note_on_c, 0, 50, 39
1, 180162, Note_off_c, 0, 50, 51
1, 180180, Note_on_c, 0, 52, 42
1, 180262, Note_on_c, 0, 54, 49
1, 180287, Note_off_c, 0, 52, 49
1, 180339, Note_on_c, 0, 55, 49
1, 180340, Note_off_c, 0, 54, 61
1, 180375, Note_off_c, 0, 31, 56
1, 180414, Note_on_c, 0, 36, 41
1, 180469, Note_off_c, 0, 36, 58
1, 180490, Note_on_c, 0, 35, 42
1, 180548, Note_on_c, 0, 33, 50
1, 180576, Note_off_c, 0, 35, 46
1, 180627, Note_on_c, 0, 31, 54
1, 180640, Note_off_c, 0, 33, 60
1, 180681, Note_off_c, 0, 31, 61
1, 180723, Note_on_c, 0, 36, 42
1, 180778, Note_off_c, 0, 36, 55
1, 180788, Note_on_c, 0, 35, 48
1, 180850, Note_on_c, 0, 33, 47
1, 180918, Note_off_c, 0, 35, 36
1, 180948, Note_on_c, 0, 31, 53
1, 180970, Note_off_c, 0, 33, 50
1, 181003, Note_off_c, 0, 31, 62
1, 181032, Note_on_c, 0, 36, 43
1, 181077, Note_off_c, 0, 36, 56
1, 181095, Note_on_c, 0, 35, 48
1, 181167, Note_on_c, 0, 33, 44
1, 181226, Note_off_c, 0, 35, 48
1, 181256, Note_on_c, 0, 31, 59
1, 181266, Note_off_c, 0, 33, 62
1, 181301, Note_off_c, 0, 31, 63
1, 181331, Note_on_c, 0, 36, 46
1, 181380, Note_off_c, 0, 36, 57
1, 181396, Note_on_c, 0, 35, 48
1, 181470, Note_on_c, 0, 33, 48
1, 181484, Note_off_c, 0, 35, 56
1, 181536, Note_off_c, 0, 33, 64
1, 181554, Note_on_c, 0, 31, 54
1, 181618, Note_off_c, 0, 55, 50
1, 181632, Note_on_c, 0, 54, 48
1, 181669, Note_off_c, 0, 54, 66
1, 181696, Note_on_c, 0, 55, 49
1, 181776, Note_off_c, 0, 55, 57
1, 181790, Note_on_c, 0, 57, 41
1, 181841, Note_off_c, 0, 57, 60
1, 181846, Note_on_c, 0, 59, 62
1, 181916, Note_off_c, 0, 59, 62
1, 181927, Note_on_c, 0, 54, 59
1, 181985, Note_off_c, 0, 54, 61
1, 182011, Note_on_c, 0, 55, 47
1, 182068, Note_off_c, 0, 55, 60
1, 182076, Note_on_c, 0, 57, 45
1, 182140, Note_off_c, 0, 57, 57
1, 182147, Note_on_c, 0, 59, 56
1, 182223, Note_off_c, 0, 59, 61
1, 182225, Note_on_c, 0, 54, 56
1, 182276, Note_off_c, 0, 54, 61
1, 182305, Note_on_c, 0, 55, 46
1, 182365, Note_off_c, 0, 55, 60
1, 182371, Note_on_c, 0, 57, 47
1, 182433, Note_off_c, 0, 57, 56
1, 182438, Note_on_c, 0, 59, 54
1, 182511, Note_off_c, 0, 59, 60
1, 182517, Note_on_c, 0, 54, 54
1, 182577, Note_off_c, 0, 54, 58
1, 182593, Note_on_c, 0, 55, 46
1, 182661, Note_on_c, 0, 57, 44
1, 182663, Note_off_c, 0, 55, 56
1, 182751, Note_on_c, 0, 59, 44
1, 182763, Note_off_c, 0, 57, 49
1, 182785, Note_off_c, 0, 31, 46
1, 182821, Note_on_c, 0, 36, 36
1, 182893, Note_off_c, 0, 36, 54
1, 182916, Note_on_c, 0, 35, 39
1, 182949, Note_off_c, 0, 59, 36
1, 182974, Note_on_c, 0, 33, 47
1, 182997, Note_off_c, 0, 35, 51
1, 183045, Note_on_c, 0, 31, 54
1, 183045, Note_off_c, 0, 33, 62
1, 183092, Note_off_c, 0, 31, 61
1, 183134, Note_on_c, 0, 36, 38
1, 183187, Note_off_c, 0, 36, 52
1, 183208, Note_on_c, 0, 35, 42
1, 183228, Note_on_c, 0, 59, 35
1, 183284, Note_on_c, 0, 33, 42
1, 183284, Note_off_c, 0, 59, 44
1, 183285, Note_on_c, 0, 60, 46
1, 183354, Note_off_c, 0, 35, 37
1, 183366, Note_on_c, 0, 31, 50
1, 183369, Note_off_c, 0, 33, 58
1, 183373, Note_on_c, 0, 62, 47
1, 183396, Note_off_c, 0, 60, 56
1, 183411, Note_off_c, 0, 31, 60
1, 183446, Note_on_c, 0, 36, 41
1, 183468, Note_off_c, 0, 62, 63
1, 183498, Note_off_c, 0, 36, 57
1, 183511, Note_on_c, 0, 35, 42
1, 183581, Note_on_c, 0, 33, 46
1, 183621, Note_off_c, 0, 35, 48
1, 183657, Note_on_c, 0, 31, 52
1, 183665, Note_off_c, 0, 33, 62
1, 183707, Note_off_c, 0, 31, 62
1, 183740, Note_on_c, 0, 36, 41
1, 183812, Note_off_c, 0, 36, 51
1, 183824, Note_on_c, 0, 35, 37
1, 183848, Note_on_c, 0, 62, 40
1, 183892, Note_on_c, 0, 64, 49
1, 183909, Note_on_c, 0, 33, 42
1, 183934, Note_off_c, 0, 62, 40
1, 183942, Note_on_c, 0, 66, 55
1, 183974, Note_off_c, 0, 35, 48
1, 183992, Note_on_c, 0, 31, 49
1, 183996, Note_off_c, 0, 64, 56
1, 184001, Note_off_c, 0, 33, 56
1, 184006, Note_on_c, 0, 67, 58
1, 184007, Note_off_c, 0, 66, 62
1, 184039, Note_off_c, 0, 31, 59
1, 184072, Note_on_c, 0, 36, 44
1, 184118, Note_off_c, 0, 67, 63
1, 184142, Note_off_c, 0, 36, 55
1, 184144, Note_on_c, 0, 35, 48
1, 184217, Note_on_c, 0, 33, 47
1, 184256, Note_off_c, 0, 35, 54
1, 184288, Note_on_c, 0, 31, 56
1, 184289, Note_off_c, 0, 33, 63
1, 184329, Note_off_c, 0, 31, 63
1, 184358, Note_on_c, 0, 36, 43
1, 184434, Note_on_c, 0, 35, 41
1, 184439, Note_on_c, 0, 67, 52
1, 184464, Note_off_c, 0, 36, 37
1, 184508, Note_off_c, 0, 67, 56
1, 184511, Note_on_c, 0, 69, 55
1, 184529, Note_on_c, 0, 33, 47
1, 184565, Note_off_c, 0, 35, 55
1, 184577, Note_off_c, 0, 69, 64
1, 184584, Note_on_c, 0, 71, 56
1, 184588, Note_on_c, 0, 31, 54
1, 184597, Note_off_c, 0, 33, 63
1, 184604, Note_off_c, 0, 71, 67
1, 184627, Note_off_c, 0, 31, 63
1, 184649, Note_on_c, 0, 36, 47
1, 184717, Note_off_c, 0, 36, 55
1, 184735, Note_on_c, 0, 35, 44
1, 184741, Note_on_c, 0, 71, 48
1, 184798, Note_off_c, 0, 71, 58
1, 184802, Note_on_c, 0, 72, 59
1, 184819, Note_on_c, 0, 33, 49
1, 184847, Note_off_c, 0, 35, 54
1, 184854, Note_on_c, 0, 74, 67
1, 184854, Note_off_c, 0, 72, 61
1, 184874, Note_on_c, 0, 31, 55
1, 184877, Note_off_c, 0, 74, 71
1, 184880, Note_off_c, 0, 33, 63
1, 184913, Note_off_c, 0, 31, 63
1, 184942, Note_on_c, 0, 36, 46
1, 185015, Note_off_c, 0, 36, 54
1, 185016, Note_on_c, 0, 74, 54
1, 185029, Note_on_c, 0, 35, 46
1, 185063, Note_on_c, 0, 76, 55
1, 185065, Note_off_c, 0, 74, 50
1, 185113, Note_on_c, 0, 78, 66
1, 185121, Note_on_c, 0, 33, 47
1, 185131, Note_off_c, 0, 76, 62
1, 185131, Note_off_c, 0, 35, 55
1, 185167, Note_on_c, 0, 79, 64
1, 185172, Note_on_c, 0, 31, 52
1, 185172, Note_off_c, 0, 78, 66
1, 185179, Note_off_c, 0, 33, 60
1, 185223, Note_off_c, 0, 31, 62
1, 185246, Note_on_c, 0, 36, 52
1, 185320, Note_off_c, 0, 36, 58
1, 185326, Note_on_c, 0, 35, 48
1, 185346, Note_off_c, 0, 79, 58
1, 185400, Note_on_c, 0, 33, 52
1, 185429, Note_off_c, 0, 35, 56
1, 185463, Note_on_c, 0, 31, 57
1, 185472, Note_off_c, 0, 33, 64
1, 185508, Note_off_c, 0, 31, 63
1, 185533, Note_on_c, 0, 36, 49
1, 185613, Note_on_c, 0, 35, 46
1, 185614, Note_off_c, 0, 36, 49
1, 185630, Note_on_c, 0, 62, 50
1, 185685, Note_on_c, 0, 64, 54
1, 185693, Note_off_c, 0, 62, 55
1, 185701, Note_on_c, 0, 33, 46
1, 185727, Note_on_c, 0, 66, 62
1, 185743, Note_off_c, 0, 35, 51
1, 185772, Note_off_c, 0, 64, 60
1, 185774, Note_on_c, 0, 31, 52
1, 185783, Note_off_c, 0, 33, 61
1, 185784, Note_on_c, 0, 67, 64
1, 185800, Note_off_c, 0, 66, 64
1, 185817, Note_off_c, 0, 31, 61
1, 185844, Note_on_c, 0, 36, 49
1, 185921, Note_off_c, 0, 36, 55
1, 185924, Note_on_c, 0, 35, 48
1, 185958, Note_off_c, 0, 67, 63
1, 186005, Note_on_c, 0, 33, 52
1, 186046, Note_off_c, 0, 35, 57
1, 186076, Note_on_c, 0, 31, 57
1, 186086, Note_off_c, 0, 33, 65
1, 186121, Note_off_c, 0, 31, 64
1, 186144, Note_on_c, 0, 36, 55
1, 186231, Note_on_c, 0, 35, 51
1, 186235, Note_off_c, 0, 36, 53
1, 186243, Note_on_c, 0, 67, 63
1, 186312, Note_on_c, 0, 69, 68
1, 186317, Note_off_c, 0, 67, 61
1, 186329, Note_on_c, 0, 33, 50
1, 186363, Note_off_c, 0, 35, 53
1, 186385, Note_on_c, 0, 71, 73
1, 186389, Note_on_c, 0, 31, 58
1, 186404, Note_off_c, 0, 33, 64
1, 186407, Note_off_c, 0, 69, 64
1, 186437, Note_off_c, 0, 31, 63
1, 186459, Note_on_c, 0, 36, 54
1, 186539, Note_off_c, 0, 36, 58
1, 186543, Note_on_c, 0, 35, 54
1, 186598, Note_off_c, 0, 71, 61
1, 186620, Note_on_c, 0, 33, 57
1, 186654, Note_off_c, 0, 35, 60
1, 186678, Note_on_c, 0, 31, 64
1, 186699, Note_off_c, 0, 33, 65
1, 186741, Note_off_c, 0, 31, 60
1, 186753, Note_on_c, 0, 36, 62
1, 186842, Note_off_c, 0, 36, 59
1, 186844, Note_on_c, 0, 35, 56
1, 186857, Note_on_c, 0, 71, 60
1, 186920, Note_off_c, 0, 71, 63
1, 186921, Note_on_c, 0, 72, 68
1, 186932, Note_on_c, 0, 33, 56
1, 186955, Note_off_c, 0, 35, 59
1, 186985, Note_on_c, 0, 74, 74
1, 186988, Note_off_c, 0, 72, 63
1, 186995, Note_on_c, 0, 31, 64
1, 187002, Note_off_c, 0, 33, 65
1, 187010, Note_off_c, 0, 74, 67
1, 187042, Note_off_c, 0, 31, 65
1, 187053, Note_on_c, 0, 36, 65
1, 187136, Note_off_c, 0, 36, 59
1, 187146, Note_on_c, 0, 35, 57
1, 187151, Note_on_c, 0, 74, 60
1, 187194, Note_on_c, 0, 76, 65
1, 187221, Note_on_c, 0, 33, 57
1, 187235, Note_off_c, 0, 74, 61
1, 187239, Note_on_c, 0, 78, 74
1, 187251, Note_off_c, 0, 35, 59
1, 187268, Note_off_c, 0, 76, 65
1, 187280, Note_on_c, 0, 31, 62
1, 187285, Note_on_c, 0, 79, 81
1, 187292, Note_off_c, 0, 78, 69
1, 187298, Note_off_c, 0, 33, 65
1, 187322, Note_off_c, 0, 79, 66
1, 187327, Note_off_c, 0, 31, 66
1, 187337, Note_on_c, 0, 36, 62
1, 187426, Note_off_c, 0, 36, 59
1, 187444, Note_on_c, 0, 35, 59
1, 187448, Note_on_c, 0, 79, 74
1, 187514, Note_on_c, 0, 81, 80
1, 187523, Note_on_c, 0, 33, 58
1, 187526, Note_off_c, 0, 79, 60
1, 187558, Note_off_c, 0, 35, 59
1, 187577, Note_on_c, 0, 83, 86
1, 187595, Note_on_c, 0, 31, 67
1, 187604, Note_off_c, 0, 81, 64
1, 187611, Note_off_c, 0, 33, 65
1, 187647, Note_off_c, 0, 31, 63
1, 187659, Note_on_c, 0, 36, 64
1, 187675, Control_c, 0, 67, 127
1, 187690, Control_c, 0, 67, 126
1, 187705, Control_c, 0, 67, 126
1, 187734, Control_c, 0, 67, 125
1, 187748, Note_on_c, 0, 35, 63
1, 187749, Control_c, 0, 67, 125
1, 187755, Note_off_c, 0, 36, 57
1, 187764, Control_c, 0, 67, 124
1, 187779, Control_c, 0, 67, 122
1, 187793, Control_c, 0, 67, 121
1, 187804, Note_off_c, 0, 83, 61
1, 187808, Control_c, 0, 67, 119
1, 187823, Control_c, 0, 67, 117
1, 187826, Note_on_c, 0, 33, 63
1, 187838, Control_c, 0, 67, 115
1, 187853, Control_c, 0, 67, 114
1, 187856, Note_off_c, 0, 35, 60
1, 187868, Control_c, 0, 67, 113
1, 187886, Note_on_c, 0, 31, 71
1, 187902, Note_off_c, 0, 33, 67
1, 187957, Note_on_c, 0, 36, 63
1, 187958, Control_c, 0, 67, 113
1, 187960, Note_off_c, 0, 31, 62
1, 187972, Control_c, 0, 67, 112
1, 187987, Control_c, 0, 67, 112
1, 188002, Control_c, 0, 67, 111
1, 188046, Note_on_c, 0, 35, 58
1, 188058, Note_on_c, 0, 74, 67
1, 188066, Note_off_c, 0, 36, 53
1, 188103, Note_on_c, 0, 76, 70
1, 188121, Control_c, 0, 67, 110
1, 188131, Note_off_c, 0, 74, 58
1, 188135, Control_c, 0, 67, 109
1, 188137, Note_on_c, 0, 33, 62
1, 188150, Control_c, 0, 67, 108
1, 188159, Note_on_c, 0, 78, 78
1, 188165, Note_off_c, 0, 35, 60
1, 188165, Control_c, 0, 67, 107
1, 188180, Control_c, 0, 67, 105
1, 188202, Control_c, 0, 67, 103
1, 188208, Note_off_c, 0, 76, 54
1, 188214, Note_on_c, 0, 79, 90
1, 188217, Note_on_c, 0, 31, 72
1, 188217, Control_c, 0, 67, 103
1, 188231, Control_c, 0, 67, 101
1, 188238, Note_off_c, 0, 33, 65
1, 188246, Control_c, 0, 67, 99
1, 188249, Note_off_c, 0, 78, 66
1, 188261, Control_c, 0, 67, 97
1, 188282, Note_off_c, 0, 31, 61
1, 188292, Note_on_c, 0, 36, 68
1, 188374, Note_on_c, 0, 35, 67
1, 188384, Note_off_c, 0, 36, 59
1, 188405, Note_off_c, 0, 79, 56
1, 188452, Note_on_c, 0, 33, 65
1, 188489, Note_off_c, 0, 35, 61
1, 188516, Note_on_c, 0, 31, 75
1, 188536, Note_off_c, 0, 33, 64
1, 188557, Control_c, 0, 67, 97
1, 188570, Note_off_c, 0, 31, 60
1, 188592, Note_on_c, 0, 36, 73
1, 188631, Control_c, 0, 67, 97
1, 188678, Note_on_c, 0, 35, 71
1, 188681, Note_off_c, 0, 36, 57
1, 188689, Note_on_c, 0, 79, 67
1, 188738, Note_off_c, 0, 79, 61
1, 188747, Note_on_c, 0, 81, 84
1, 188765, Control_c, 0, 67, 96
1, 188766, Note_on_c, 0, 33, 66
1, 188780, Control_c, 0, 67, 96
1, 188792, Note_off_c, 0, 35, 62
1, 188795, Control_c, 0, 67, 95
1, 188810, Control_c, 0, 67, 94
1, 188821, Note_on_c, 0, 83, 94
1, 188825, Control_c, 0, 67, 94
1, 188830, Note_on_c, 0, 31, 73
1, 188837, Note_off_c, 0, 33, 66
1, 188840, Control_c, 0, 67, 93
1, 188845, Note_off_c, 0, 81, 64
1, 188854, Control_c, 0, 67, 92
1, 188869, Control_c, 0, 67, 92
1, 188884, Control_c, 0, 67, 91
1, 188890, Note_on_c, 0, 36, 74
1, 188892, Note_off_c, 0, 31, 62
1, 188899, Control_c, 0, 67, 90
1, 188914, Control_c, 0, 67, 86
1, 188929, Control_c, 0, 67, 80
1, 188951, Control_c, 0, 67, 75
1, 188965, Control_c, 0, 67, 71
1, 188980, Control_c, 0, 67, 69
1, 188989, Note_on_c, 0, 35, 71
1, 188992, Note_off_c, 0, 36, 62
1, 188995, Control_c, 0, 67, 67
1, 189010, Control_c, 0, 67, 66
1, 189036, Note_off_c, 0, 83, 58
1, 189039, Control_c, 0, 67, 67
1, 189069, Note_on_c, 0, 33, 70
1, 189069, Control_c, 0, 67, 67
1, 189097, Note_off_c, 0, 35, 62
1, 189125, Note_on_c, 0, 31, 75
1, 189129, Control_c, 0, 67, 68
1, 189132, Note_off_c, 0, 33, 64
1, 189190, Note_on_c, 0, 36, 72
1, 189195, Note_off_c, 0, 31, 64
1, 189218, Control_c, 0, 67, 67
1, 189262, Control_c, 0, 67, 68
1, 189277, Note_on_c, 0, 35, 73
1, 189281, Note_off_c, 0, 36, 63
1, 189292, Note_on_c, 0, 79, 71
1, 189306, Control_c, 0, 67, 68
1, 189351, Control_c, 0, 67, 68
1, 189352, Note_on_c, 0, 81, 80
1, 189360, Note_off_c, 0, 79, 61
1, 189364, Note_on_c, 0, 33, 70
1, 189380, Control_c, 0, 67, 67
1, 189391, Note_off_c, 0, 35, 62
1, 189395, Control_c, 0, 67, 66
1, 189410, Note_on_c, 0, 83, 90
1, 189410, Control_c, 0, 67, 66
1, 189421, Note_off_c, 0, 81, 65
1, 189422, Note_on_c, 0, 31, 76
1, 189425, Control_c, 0, 67, 65
1, 189433, Note_off_c, 0, 33, 65
1, 189438, Note_off_c, 0, 83, 69
1, 189439, Control_c, 0, 67, 64
1, 189454, Control_c, 0, 67, 64
1, 189469, Control_c, 0, 67, 63
1, 189481, Note_on_c, 0, 36, 76
1, 189482, Note_off_c, 0, 31, 61
1, 189484, Control_c, 0, 67, 63
1, 189498, Control_c, 0, 67, 62
1, 189515, Control_c, 0, 67, 62
1, 189530, Control_c, 0, 67, 61
1, 189559, Control_c, 0, 67, 62
1, 189576, Note_on_c, 0, 83, 74
1, 189579, Note_on_c, 0, 35, 69
1, 189585, Note_off_c, 0, 36, 61
1, 189633, Control_c, 0, 67, 62
1, 189638, Note_on_c, 0, 84, 84
1, 189648, Control_c, 0, 67, 63
1, 189653, Note_off_c, 0, 83, 62
1, 189662, Note_on_c, 0, 33, 64
1, 189697, Note_off_c, 0, 35, 61
1, 189700, Control_c, 0, 67, 62
1, 189709, Note_on_c, 0, 86, 97
1, 189713, Note_off_c, 0, 84, 68
1, 189714, Control_c, 0, 67, 61
1, 189725, Note_on_c, 0, 31, 75
1, 189729, Control_c, 0, 67, 59
1, 189738, Note_off_c, 0, 33, 66
1, 189744, Note_off_c, 0, 86, 67
1, 189744, Control_c, 0, 67, 57
1, 189759, Control_c, 0, 67, 56
1, 189774, Control_c, 0, 67, 55
1, 189788, Control_c, 0, 67, 54
1, 189790, Note_on_c, 0, 36, 74
1, 189792, Note_off_c, 0, 31, 63
1, 189803, Control_c, 0, 67, 53
1, 189848, Control_c, 0, 67, 53
1, 189862, Control_c, 0, 67, 54
1, 189887, Note_on_c, 0, 86, 73
1, 189888, Note_on_c, 0, 35, 71
1, 189898, Note_off_c, 0, 36, 59
1, 189907, Control_c, 0, 67, 53
1, 189936, Control_c, 0, 67, 53
1, 189955, Note_on_c, 0, 88, 85
1, 189961, Note_off_c, 0, 86, 63
1, 189983, Note_on_c, 0, 33, 66
1, 189996, Control_c, 0, 67, 52
1, 190008, Note_off_c, 0, 35, 62
1, 190011, Control_c, 0, 67, 52
1, 190017, Note_on_c, 0, 89, 103
1, 190026, Control_c, 0, 67, 51
1, 190029, Note_off_c, 0, 88, 67
1, 190039, Note_on_c, 0, 31, 79
1, 190041, Control_c, 0, 67, 49
1, 190052, Note_off_c, 0, 33, 65
1, 190056, Control_c, 0, 67, 46
1, 190070, Control_c, 0, 67, 42
1, 190085, Control_c, 0, 67, 37
1, 190100, Control_c, 0, 67, 32
1, 190103, Note_on_c, 0, 36, 78
1, 190108, Note_off_c, 0, 31, 63
1, 190114, Control_c, 0, 67, 27
1, 190129, Control_c, 0, 67, 20
1, 190144, Control_c, 0, 67, 10
1, 190159, Control_c, 0, 67, 0
1, 190196, Note_on_c, 0, 35, 72
1, 190216, Note_off_c, 0, 36, 55
1, 190249, Note_off_c, 0, 89, 59
1, 190285, Note_on_c, 0, 33, 74
1, 190311, Note_off_c, 0, 35, 62
1, 190339, Note_on_c, 0, 31, 73
1, 190353, Note_off_c, 0, 33, 65
1, 190410, Note_on_c, 0, 36, 77
1, 190419, Note_off_c, 0, 31, 62
1, 190485, Note_on_c, 0, 86, 84
1, 190500, Note_on_c, 0, 35, 69
1, 190554, Note_on_c, 0, 88, 85
1, 190565, Note_off_c, 0, 86, 62
1, 190566, Note_off_c, 0, 36, 60
1, 190568, Note_on_c, 0, 33, 66
1, 190598, Note_off_c, 0, 35, 63
1, 190610, Note_on_c, 0, 31, 68
1, 190613, Note_on_c, 0, 89, 104
1, 190626, Note_off_c, 0, 88, 62
1, 190694, Note_on_c, 0, 37, 87
1, 190741, Note_off_c, 0, 31, 49
1, 190743, Note_off_c, 0, 33, 47
1, 190789, Note_off_c, 0, 37, 63
1, 190789, Note_off_c, 0, 89, 50
1, 190795, Note_on_c, 0, 35, 75
1, 190878, Note_on_c, 0, 33, 65
1, 190903, Note_on_c, 0, 31, 84
1, 190912, Note_off_c, 0, 35, 61
1, 190953, Note_off_c, 0, 33, 57
1, 191001, Note_on_c, 0, 37, 83
1, 191045, Note_off_c, 0, 31, 62
1, 191066, Note_on_c, 0, 86, 86
1, 191092, Note_on_c, 0, 35, 68
1, 191092, Note_off_c, 0, 37, 63
1, 191138, Note_on_c, 0, 88, 85
1, 191155, Note_off_c, 0, 86, 63
1, 191161, Note_on_c, 0, 33, 62
1, 191203, Note_on_c, 0, 89, 103
1, 191206, Note_off_c, 0, 88, 70
1, 191211, Note_on_c, 0, 31, 90
1, 191223, Note_off_c, 0, 35, 60
1, 191242, Note_off_c, 0, 33, 67
1, 191243, Note_off_c, 0, 89, 72
1, 191293, Note_on_c, 0, 38, 85
1, 191302, Note_off_c, 0, 31, 62
1, 191382, Note_on_c, 0, 86, 79
1, 191386, Note_on_c, 0, 35, 76
1, 191403, Note_off_c, 0, 38, 59
1, 191451, Note_on_c, 0, 88, 83
1, 191463, Note_on_c, 0, 33, 67
1, 191476, Note_off_c, 0, 86, 62
1, 191501, Note_on_c, 0, 89, 106
1, 191507, Note_off_c, 0, 35, 64
1, 191509, Note_off_c, 0, 88, 70
1, 191511, Note_on_c, 0, 31, 84
1, 191529, Note_off_c, 0, 33, 65
1, 191545, Note_off_c, 0, 89, 70
1, 191577, Note_on_c, 0, 38, 86
1, 191582, Note_off_c, 0, 31, 64
1, 191677, Note_on_c, 0, 35, 76
1, 191695, Note_on_c, 0, 86, 67
1, 191715, Note_off_c, 0, 38, 56
1, 191751, Note_on_c, 0, 88, 85
1, 191758, Note_on_c, 0, 33, 65
1, 191773, Note_off_c, 0, 86, 63
1, 191803, Note_on_c, 0, 89, 98
1, 191804, Note_off_c, 0, 35, 62
1, 191813, Note_on_c, 0, 31, 85
1, 191814, Note_off_c, 0, 88, 70
1, 191827, Note_off_c, 0, 33, 66
1, 191850, Note_off_c, 0, 89, 69
1, 191879, Note_on_c, 0, 38, 82
1, 191889, Note_off_c, 0, 31, 63
1, 191996, Note_on_c, 0, 35, 65
1, 191999, Note_on_c, 0, 86, 78
1, 192021, Note_off_c, 0, 38, 58
1, 192063, Note_on_c, 0, 88, 87
1, 192071, Poly_aftertouch_c, 0, 33, 127
1, 192087, Note_off_c, 0, 86, 61
1, 192101, Note_off_c, 0, 35, 63
1, 192111, Note_on_c, 0, 89, 103
1, 192127, Note_on_c, 0, 31, 79
1, 192130, Note_off_c, 0, 88, 69
1, 192148, Poly_aftertouch_c, 0, 33, 0
1, 192159, Note_off_c, 0, 89, 70
1, 192193, Note_on_c, 0, 38, 76
1, 192193, Note_off_c, 0, 31, 63
1, 192283, Note_on_c, 0, 35, 72
1, 192300, Note_on_c, 0, 86, 80
1, 192307, Note_off_c, 0, 38, 60
1, 192364, Note_on_c, 0, 88, 76
1, 192366, Note_off_c, 0, 86, 62
1, 192368, Note_on_c, 0, 33, 64
1, 192399, Note_off_c, 0, 35, 62
1, 192414, Note_on_c, 0, 89, 110
1, 192418, Note_on_c, 0, 31, 77
1, 192435, Note_off_c, 0, 33, 65
1, 192437, Note_off_c, 0, 88, 64
1, 192450, Control_c, 0, 64, 24
1, 192464, Control_c, 0, 64, 38
1, 192479, Control_c, 0, 64, 51
1, 192492, Note_on_c, 0, 88, 79
1, 192494, Control_c, 0, 64, 61
1, 192503, Note_on_c, 0, 33, 63
1, 192509, Control_c, 0, 64, 64
1, 192524, Control_c, 0, 64, 64
1, 192539, Control_c, 0, 64, 65
1, 192552, Note_off_c, 0, 31, 61
1, 192554, Control_c, 0, 64, 66
1, 192569, Control_c, 0, 64, 68
1, 192572, Note_on_c, 0, 86, 82
1, 192574, Note_on_c, 0, 35, 65
1, 192580, Note_off_c, 0, 89, 59
1, 192583, Control_c, 0, 64, 70
1, 192595, Note_off_c, 0, 33, 62
1, 192598, Control_c, 0, 64, 72
1, 192604, Note_off_c, 0, 88, 66
1, 192613, Control_c, 0, 64, 73
1, 192624, Note_on_c, 0, 36, 70
1, 192628, Control_c, 0, 64, 74
1, 192636, Note_off_c, 0, 35, 60
1, 192639, Note_on_c, 0, 84, 80
1, 192643, Control_c, 0, 64, 76
1, 192646, Note_off_c, 0, 86, 63
1, 192694, Control_c, 0, 64, 75
1, 192710, Control_c, 0, 64, 72
1, 192715, Note_off_c, 0, 36, 61
1, 192718, Note_on_c, 0, 38, 76
1, 192718, Note_off_c, 0, 84, 66
1, 192724, Note_on_c, 0, 83, 79
1, 192725, Control_c, 0, 64, 65
1, 192739, Control_c, 0, 64, 57
1, 192754, Control_c, 0, 64, 37
1, 192769, Control_c, 0, 64, 0
1, 192787, Note_off_c, 0, 83, 68
1, 192788, Note_off_c, 0, 38, 62
1, 192791, Note_on_c, 0, 36, 71
1, 192801, Note_on_c, 0, 84, 80
1, 192873, Note_on_c, 0, 86, 82
1, 192878, Note_on_c, 0, 35, 76
1, 192885, Note_off_c, 0, 84, 62
1, 192892, Note_off_c, 0, 36, 60
1, 192951, Note_off_c, 0, 86, 63
1, 192952, Note_on_c, 0, 88, 77
1, 192963, Note_on_c, 0, 33, 61
1, 192983, Note_off_c, 0, 35, 62
1, 193007, Control_c, 0, 64, 43
1, 193011, Note_on_c, 0, 89, 114
1, 193019, Note_on_c, 0, 31, 77
1, 193021, Control_c, 0, 64, 66
1, 193031, Note_off_c, 0, 33, 63
1, 193036, Control_c, 0, 64, 127
1, 193043, Note_off_c, 0, 88, 52
1, 193102, Note_on_c, 0, 88, 76
1, 193102, Note_on_c, 0, 33, 67
1, 193147, Note_off_c, 0, 31, 61
1, 193179, Note_on_c, 0, 35, 69
1, 193180, Note_off_c, 0, 89, 63
1, 193185, Note_on_c, 0, 86, 84
1, 193192, Note_off_c, 0, 33, 64
1, 193222, Note_off_c, 0, 88, 65
1, 193238, Note_on_c, 0, 36, 68
1, 193242, Note_off_c, 0, 35, 63
1, 193243, Control_c, 0, 64, 72
1, 193256, Note_on_c, 0, 84, 79
1, 193258, Control_c, 0, 64, 51
1, 193259, Note_off_c, 0, 86, 63
1, 193273, Control_c, 0, 64, 0
1, 193312, Note_off_c, 0, 36, 55
1, 193326, Note_on_c, 0, 38, 77
1, 193330, Note_off_c, 0, 84, 65
1, 193333, Note_on_c, 0, 83, 82
1, 193401, Note_on_c, 0, 36, 54
1, 193401, Note_off_c, 0, 83, 66
1, 193403, Note_off_c, 0, 38, 64
1, 193408, Note_on_c, 0, 84, 85
1, 193493, Note_on_c, 0, 35, 77
1, 193493, Note_on_c, 0, 86, 90
1, 193511, Note_off_c, 0, 36, 60
1, 193513, Note_off_c, 0, 84, 63
1, 193566, Note_on_c, 0, 88, 86
1, 193568, Note_on_c, 0, 33, 76
1, 193579, Note_off_c, 0, 86, 64
1, 193597, Note_off_c, 0, 35, 63
1, 193614, Note_off_c, 0, 88, 67
1, 193637, Note_off_c, 0, 33, 66
1, 193695, Note_on_c, 0, 89, 116
1, 193695, Control_c, 0, 64, 41
1, 193701, Note_on_c, 0, 31, 93
1, 193710, Control_c, 0, 64, 64
1, 193725, Control_c, 0, 64, 127
1, 194031, Note_on_c, 0, 88, 90
1, 194032, Note_on_c, 0, 33, 78
1, 194044, Note_off_c, 0, 89, 55
1, 194059, Note_off_c, 0, 31, 56
1, 194099, Note_on_c, 0, 35, 71
1, 194110, Note_on_c, 0, 86, 92
1, 194114, Note_off_c, 0, 33, 64
1, 194137, Note_off_c, 0, 88, 66
1, 194172, Note_on_c, 0, 36, 71
1, 194184, Note_off_c, 0, 35, 62
1, 194195, Note_on_c, 0, 84, 85
1, 194199, Note_off_c, 0, 86, 64
1, 194222, Control_c, 0, 64, 89
1, 194236, Control_c, 0, 64, 66
1, 194244, Note_off_c, 0, 84, 63
1, 194245, Note_off_c, 0, 36, 61
1, 194251, Control_c, 0, 64, 51
1, 194266, Note_on_c, 0, 38, 74
1, 194266, Control_c, 0, 64, 0
1, 194271, Note_on_c, 0, 83, 85
1, 194348, Note_on_c, 0, 81, 88
1, 194348, Note_on_c, 0, 40, 74
1, 194396, Note_off_c, 0, 83, 63
1, 194411, Note_on_c, 0, 79, 84
1, 194412, Note_off_c, 0, 38, 63
1, 194415, Note_on_c, 0, 41, 77
1, 194438, Note_off_c, 0, 40, 64
1, 194453, Note_off_c, 0, 81, 61
1, 194483, Note_on_c, 0, 77, 86
1, 194483, Note_off_c, 0, 41, 64
1, 194487, Note_on_c, 0, 43, 66
1, 194494, Note_off_c, 0, 79, 63
1, 194544, Note_off_c, 0, 77, 56
1, 194561, Note_on_c, 0, 45, 79
1, 194563, Note_on_c, 0, 76, 88
1, 194573, Note_off_c, 0, 43, 34
1, 194626, Note_on_c, 0, 74, 77
1, 194652, Note_on_c, 0, 47, 73
1, 194661, Note_off_c, 0, 76, 59
1, 194665, Note_off_c, 0, 45, 64
1, 194695, Note_on_c, 0, 72, 83
1, 194697, Note_off_c, 0, 47, 64
1, 194700, Note_on_c, 0, 48, 71
1, 194700, Note_off_c, 0, 74, 67
1, 194739, Note_off_c, 0, 48, 65
1, 194743, Note_off_c, 0, 72, 64
1, 194774, Note_on_c, 0, 71, 88
1, 194778, Note_on_c, 0, 50, 77
1, 194843, Note_on_c, 0, 69, 90
1, 194847, Note_on_c, 0, 52, 75
1, 194895, Note_off_c, 0, 71, 62
1, 194907, Note_on_c, 0, 67, 83
1, 194915, Note_on_c, 0, 53, 72
1, 194918, Note_off_c, 0, 50, 64
1, 194945, Note_off_c, 0, 52, 66
1, 194947, Note_off_c, 0, 69, 65
1, 194980, Note_on_c, 0, 65, 83
1, 194986, Note_on_c, 0, 55, 72
1, 194987, Note_off_c, 0, 67, 65
1, 194995, Note_off_c, 0, 53, 65
1, 195034, Note_off_c, 0, 65, 67
1, 195050, Note_off_c, 0, 55, 65
1, 195070, Note_on_c, 0, 48, 97
1, 195071, Note_on_c, 0, 64, 101
1, 195074, Control_c, 0, 64, 38
1, 195089, Control_c, 0, 64, 60
1, 195105, Control_c, 0, 64, 127
1, 195108, Note_off_c, 0, 64, 70
1, 195115, Note_off_c, 0, 48, 68
1, 195386, Control_c, 0, 64, 101
1, 195399, Note_on_c, 0, 48, 65
1, 195401, Control_c, 0, 64, 66
1, 195401, Control_c, 0, 67, 15
1, 195407, Note_on_c, 0, 43, 67
1, 195409, Note_on_c, 0, 52, 63
1, 195416, Control_c, 0, 64, 47
1, 195416, Control_c, 0, 67, 32
1, 195421, Note_on_c, 0, 36, 38
1, 195431, Control_c, 0, 64, 0
1, 195431, Control_c, 0, 67, 54
1, 195436, Note_on_c, 0, 38, 37
1, 195436, Note_off_c, 0, 43, 64
1, 195439, Note_off_c, 0, 48, 63
1, 195442, Note_off_c, 0, 52, 67
1, 195446, Control_c, 0, 67, 75
1, 195458, Note_off_c, 0, 36, 51
1, 195461, Control_c, 0, 67, 96
1, 195474, Note_off_c, 0, 38, 31
1, 195475, Control_c, 0, 67, 118
1, 195490, Control_c, 0, 67, 127
1, 195545, Note_on_c, 0, 36, 61
1, 195546, Note_on_c, 0, 43, 55
1, 195552, Note_on_c, 0, 52, 52
1, 195565, Note_on_c, 0, 48, 38
1, 195573, Note_off_c, 0, 43, 60
1, 195576, Note_off_c, 0, 36, 64
1, 195584, Note_off_c, 0, 52, 67
1, 195598, Note_off_c, 0, 48, 56
1, 195675, Note_on_c, 0, 36, 61
1, 195684, Note_on_c, 0, 43, 52
1, 195687, Note_on_c, 0, 52, 60
1, 195693, Note_on_c, 0, 48, 51
1, 195712, Note_off_c, 0, 36, 64
1, 195714, Note_off_c, 0, 43, 62
1, 195718, Note_off_c, 0, 48, 59
1, 195719, Note_off_c, 0, 52, 68
1, 195824, Note_on_c, 0, 36, 54
1, 195824, Note_on_c, 0, 43, 55
1, 195825, Note_on_c, 0, 52, 55
1, 195827, Note_on_c, 0, 48, 45
1, 195854, Note_off_c, 0, 36, 62
1, 195854, Note_off_c, 0, 43, 58
1, 195855, Note_off_c, 0, 48, 59
1, 195857, Note_off_c, 0, 52, 67
1, 195959, Note_on_c, 0, 48, 55
1, 195960, Note_on_c, 0, 52, 59
1, 195976, Note_on_c, 0, 36, 45
1, 195984, Note_on_c, 0, 43, 25
1, 195990, Note_off_c, 0, 48, 65
1, 195992, Note_off_c, 0, 52, 67
1, 196009, Note_off_c, 0, 36, 49
1, 196027, Note_off_c, 0, 43, 48
1, 196098, Note_on_c, 0, 48, 57
1, 196098, Note_on_c, 0, 52, 55
1, 196106, Note_on_c, 0, 43, 58
1, 196107, Note_on_c, 0, 36, 55
1, 196125, Note_off_c, 0, 48, 63
1, 196128, Note_off_c, 0, 52, 67
1, 196134, Note_off_c, 0, 43, 62
1, 196137, Note_off_c, 0, 36, 63
1, 196236, Note_on_c, 0, 52, 56
1, 196237, Note_on_c, 0, 36, 57
1, 196238, Note_on_c, 0, 48, 47
1, 196239, Note_on_c, 0, 43, 45
1, 196265, Note_off_c, 0, 48, 59
1, 196269, Note_off_c, 0, 36, 64
1, 196269, Note_off_c, 0, 52, 67
1, 196271, Note_off_c, 0, 43, 55
1, 196375, Note_on_c, 0, 52, 58
1, 196381, Note_on_c, 0, 36, 56
1, 196381, Note_on_c, 0, 43, 47
1, 196387, Note_on_c, 0, 48, 30
1, 196407, Note_off_c, 0, 52, 67
1, 196411, Note_off_c, 0, 36, 60
1, 196414, Note_off_c, 0, 43, 54
1, 196423, Note_off_c, 0, 48, 45
1, 196515, Note_on_c, 0, 48, 60
1, 196518, Note_on_c, 0, 52, 56
1, 196521, Note_on_c, 0, 43, 48
1, 196521, Note_on_c, 0, 36, 55
1, 196545, Note_off_c, 0, 48, 66
1, 196548, Note_off_c, 0, 52, 68
1, 196550, Note_off_c, 0, 36, 61
1, 196551, Note_off_c, 0, 43, 58
1, 196652, Note_on_c, 0, 52, 56
1, 196655, Note_on_c, 0, 36, 56
1, 196656, Note_on_c, 0, 48, 51
1, 196658, Note_on_c, 0, 43, 48
1, 196682, Note_off_c, 0, 48, 60
1, 196683, Note_off_c, 0, 52, 67
1, 196685, Note_off_c, 0, 36, 63
1, 196688, Note_off_c, 0, 43, 55
1, 196793, Note_on_c, 0, 43, 50
1, 196794, Note_on_c, 0, 48, 47
1, 196796, Note_on_c, 0, 36, 56
1, 196796, Note_on_c, 0, 52, 55
1, 196822, Note_off_c, 0, 43, 59
1, 196822, Note_off_c, 0, 48, 60
1, 196824, Note_off_c, 0, 36, 59
1, 196830, Note_off_c, 0, 52, 67
1, 196931, Note_on_c, 0, 36, 55
1, 196934, Note_on_c, 0, 43, 48
1, 196934, Note_on_c, 0, 52, 58
1, 196939, Note_on_c, 0, 48, 43
1, 196962, Note_off_c, 0, 36, 63
1, 196963, Note_off_c, 0, 43, 57
1, 196967, Note_off_c, 0, 48, 58
1, 196971, Note_off_c, 0, 52, 64
1, 197071, Note_on_c, 0, 43, 52
1, 197072, Note_on_c, 0, 48, 53
1, 197073, Note_on_c, 0, 52, 58
1, 197085, Note_on_c, 0, 36, 44
1, 197098, Note_off_c, 0, 48, 62
1, 197101, Note_off_c, 0, 43, 62
1, 197106, Note_off_c, 0, 52, 66
1, 197118, Note_off_c, 0, 36, 48
1, 197213, Note_on_c, 0, 36, 57
1, 197216, Note_on_c, 0, 45, 61
1, 197216, Note_on_c, 0, 54, 59
1, 197217, Note_on_c, 0, 50, 53
1, 197238, Note_off_c, 0, 45, 62
1, 197240, Note_off_c, 0, 50, 57
1, 197241, Note_off_c, 0, 36, 60
1, 197243, Note_off_c, 0, 54, 66
1, 197343, Note_on_c, 0, 54, 65
1, 197354, Note_on_c, 0, 45, 51
1, 197355, Note_on_c, 0, 50, 46
1, 197364, Note_on_c, 0, 36, 47
1, 197377, Note_off_c, 0, 54, 64
1, 197380, Note_off_c, 0, 50, 54
1, 197380, Note_off_c, 0, 45, 62
1, 197396, Note_off_c, 0, 36, 49
1, 197483, Note_on_c, 0, 50, 54
1, 197489, Note_on_c, 0, 55, 60
1, 197502, Note_on_c, 0, 43, 63
1, 197507, Note_on_c, 0, 35, 60
1, 197532, Note_off_c, 0, 43, 64
1, 197533, Note_off_c, 0, 35, 61
1, 197634, Note_on_c, 0, 35, 54
1, 197634, Note_on_c, 0, 43, 58
1, 197662, Note_off_c, 0, 43, 60
1, 197663, Note_off_c, 0, 35, 58
1, 197769, Note_on_c, 0, 43, 52
1, 197773, Note_on_c, 0, 35, 49
1, 197797, Note_off_c, 0, 43, 59
1, 197802, Note_off_c, 0, 35, 55
1, 197897, Note_off_c, 0, 55, 43
1, 197910, Note_on_c, 0, 43, 52
1, 197910, Note_on_c, 0, 35, 52
1, 197932, Note_on_c, 0, 59, 53
1, 197947, Note_off_c, 0, 43, 62
1, 197948, Note_off_c, 0, 35, 62
1, 197979, Note_on_c, 0, 57, 55
1, 198003, Note_off_c, 0, 59, 56
1, 198014, Note_off_c, 0, 50, 21
1, 198053, Note_on_c, 0, 55, 50
1, 198065, Note_on_c, 0, 35, 55
1, 198068, Note_on_c, 0, 43, 49
1, 198074, Note_off_c, 0, 57, 60
1, 198093, Note_off_c, 0, 35, 60
1, 198098, Note_off_c, 0, 43, 55
1, 198104, Note_off_c, 0, 55, 65
1, 198192, Note_on_c, 0, 43, 52
1, 198200, Note_on_c, 0, 35, 44
1, 198222, Note_off_c, 0, 43, 62
1, 198230, Note_off_c, 0, 35, 51
1, 198334, Note_on_c, 0, 35, 50
1, 198339, Note_on_c, 0, 43, 49
1, 198362, Note_off_c, 0, 35, 59
1, 198368, Note_off_c, 0, 43, 55
1, 198466, Note_on_c, 0, 43, 53
1, 198471, Note_on_c, 0, 35, 50
1, 198500, Note_off_c, 0, 35, 59
1, 198500, Note_off_c, 0, 43, 62
1, 198605, Note_on_c, 0, 85, 55
1, 198620, Note_on_c, 0, 43, 54
1, 198623, Note_on_c, 0, 35, 51
1, 198624, Note_on_c, 0, 86, 70
1, 198645, Note_off_c, 0, 85, 64
1, 198650, Note_off_c, 0, 43, 62
1, 198651, Note_off_c, 0, 35, 60
1, 198731, Note_off_c, 0, 86, 0
1, 198756, Note_on_c, 0, 43, 59
1, 198757, Note_on_c, 0, 86, 20
1, 198758, Note_on_c, 0, 35, 56
1, 198786, Note_off_c, 0, 35, 59
1, 198787, Note_off_c, 0, 43, 63
1, 198903, Note_on_c, 0, 35, 44
1, 198903, Note_on_c, 0, 43, 43
1, 198933, Note_off_c, 0, 35, 51
1, 198937, Note_off_c, 0, 43, 53
1, 198966, Note_off_c, 0, 86, 42
1, 198969, Note_on_c, 0, 84, 59
1, 199034, Note_on_c, 0, 83, 58
1, 199037, Note_on_c, 0, 43, 50
1, 199040, Note_on_c, 0, 35, 48
1, 199055, Note_off_c, 0, 84, 59
1, 199068, Note_off_c, 0, 43, 58
1, 199069, Note_off_c, 0, 35, 59
1, 199105, Note_on_c, 0, 81, 59
1, 199115, Note_off_c, 0, 83, 61
1, 199177, Note_on_c, 0, 43, 48
1, 199178, Note_on_c, 0, 35, 51
1, 199180, Note_off_c, 0, 81, 59
1, 199182, Note_on_c, 0, 79, 57
1, 199207, Note_off_c, 0, 35, 59
1, 199207, Note_off_c, 0, 43, 58
1, 199306, Note_on_c, 0, 43, 54
1, 199310, Note_on_c, 0, 35, 48
1, 199341, Note_off_c, 0, 35, 59
1, 199341, Note_off_c, 0, 43, 63
1, 199346, Note_off_c, 0, 79, 62
1, 199457, Note_on_c, 0, 35, 52
1, 199458, Note_on_c, 0, 43, 54
1, 199486, Note_off_c, 0, 35, 59
1, 199487, Note_off_c, 0, 43, 59
1, 199593, Note_on_c, 0, 35, 56
1, 199594, Note_on_c, 0, 43, 55
1, 199623, Note_off_c, 0, 35, 64
1, 199625, Note_off_c, 0, 43, 63
1, 199732, Note_on_c, 0, 34, 57
1, 199733, Note_on_c, 0, 41, 54
1, 199750, Note_on_c, 0, 50, 50
1, 199758, Note_on_c, 0, 46, 40
1, 199762, Note_off_c, 0, 41, 59
1, 199765, Note_off_c, 0, 34, 65
1, 199776, Note_off_c, 0, 50, 60
1, 199789, Note_off_c, 0, 46, 52
1, 199869, Note_on_c, 0, 34, 55
1, 199869, Note_on_c, 0, 41, 44
1, 199885, Note_on_c, 0, 50, 46
1, 199891, Note_on_c, 0, 46, 37
1, 199901, Note_off_c, 0, 41, 58
1, 199902, Note_off_c, 0, 34, 65
1, 199917, Note_off_c, 0, 50, 60
1, 199921, Note_off_c, 0, 46, 56
1, 200003, Note_on_c, 0, 41, 53
1, 200008, Note_on_c, 0, 34, 53
1, 200015, Note_on_c, 0, 46, 53
1, 200021, Note_on_c, 0, 50, 48
1, 200036, Note_off_c, 0, 41, 64
1, 200041, Note_off_c, 0, 34, 65
1, 200047, Note_off_c, 0, 46, 63
1, 200050, Note_off_c, 0, 50, 62
1, 200142, Note_on_c, 0, 41, 48
1, 200145, Note_on_c, 0, 34, 56
1, 200149, Note_on_c, 0, 46, 55
1, 200155, Note_on_c, 0, 50, 53
1, 200180, Note_off_c, 0, 41, 61
1, 200187, Note_off_c, 0, 34, 66
1, 200191, Note_off_c, 0, 46, 65
1, 200195, Note_off_c, 0, 50, 64
1, 200291, Note_on_c, 0, 41, 50
1, 200295, Note_on_c, 0, 34, 52
1, 200298, Note_on_c, 0, 46, 53
1, 200302, Note_on_c, 0, 50, 52
1, 200321, Note_off_c, 0, 41, 60
1, 200324, Note_off_c, 0, 34, 62
1, 200327, Note_off_c, 0, 46, 62
1, 200334, Note_off_c, 0, 50, 64
1, 200429, Note_on_c, 0, 34, 56
1, 200432, Note_on_c, 0, 46, 49
1, 200435, Note_on_c, 0, 41, 44
1, 200438, Note_on_c, 0, 50, 52
1, 200462, Note_off_c, 0, 46, 61
1, 200463, Note_off_c, 0, 34, 66
1, 200466, Note_off_c, 0, 50, 63
1, 200467, Note_off_c, 0, 41, 52
1, 200571, Note_on_c, 0, 41, 48
1, 200572, Note_on_c, 0, 46, 45
1, 200575, Note_on_c, 0, 50, 51
1, 200575, Note_on_c, 0, 34, 52
1, 200601, Note_off_c, 0, 41, 58
1, 200602, Note_off_c, 0, 34, 61
1, 200602, Note_off_c, 0, 46, 59
1, 200603, Note_off_c, 0, 50, 61
1, 200708, Note_on_c, 0, 34, 51
1, 200709, Note_on_c, 0, 41, 48
1, 200714, Note_on_c, 0, 46, 47
1, 200718, Note_on_c, 0, 50, 49
1, 200741, Note_off_c, 0, 41, 58
1, 200742, Note_off_c, 0, 34, 65
1, 200748, Note_off_c, 0, 46, 62
1, 200751, Note_off_c, 0, 50, 65
1, 200853, Note_on_c, 0, 46, 50
1, 200855, Note_on_c, 0, 34, 55
1, 200856, Note_on_c, 0, 41, 44
1, 200866, Note_on_c, 0, 50, 46
1, 200881, Note_off_c, 0, 34, 61
1, 200883, Note_off_c, 0, 46, 62
1, 200888, Note_off_c, 0, 41, 51
1, 200891, Note_off_c, 0, 50, 60
1, 201004, Note_on_c, 0, 34, 49
1, 201005, Note_on_c, 0, 46, 50
1, 201005, Note_on_c, 0, 41, 39
1, 201008, Note_on_c, 0, 50, 45
1, 201030, Note_off_c, 0, 34, 59
1, 201038, Note_off_c, 0, 46, 63
1, 201038, Note_off_c, 0, 50, 63
1, 201039, Note_off_c, 0, 41, 48
1, 201146, Note_on_c, 0, 34, 50
1, 201146, Note_on_c, 0, 41, 46
1, 201157, Note_on_c, 0, 46, 41
1, 201157, Note_on_c, 0, 50, 46
1, 201173, Note_off_c, 0, 34, 59
1, 201178, Note_off_c, 0, 41, 52
1, 201183, Note_off_c, 0, 50, 60
1, 201187, Note_off_c, 0, 46, 55
1, 201285, Note_on_c, 0, 34, 50
1, 201285, Note_on_c, 0, 41, 46
1, 201288, Note_on_c, 0, 46, 50
1, 201296, Note_on_c, 0, 50, 46
1, 201315, Note_off_c, 0, 34, 63
1, 201318, Note_off_c, 0, 41, 55
1, 201327, Note_off_c, 0, 46, 65
1, 201328, Note_off_c, 0, 50, 65
1, 201425, Note_on_c, 0, 41, 47
1, 201425, Note_on_c, 0, 34, 53
1, 201434, Note_on_c, 0, 46, 52
1, 201438, Note_on_c, 0, 50, 52
1, 201454, Note_off_c, 0, 34, 62
1, 201455, Note_off_c, 0, 41, 57
1, 201463, Note_off_c, 0, 46, 59
1, 201464, Note_off_c, 0, 50, 60
1, 201565, Note_on_c, 0, 41, 49
1, 201566, Note_on_c, 0, 50, 54
1, 201569, Note_on_c, 0, 46, 45
1, 201574, Note_on_c, 0, 34, 47
1, 201595, Note_off_c, 0, 41, 62
1, 201597, Note_off_c, 0, 46, 61
1, 201602, Note_off_c, 0, 34, 59
1, 201602, Note_off_c, 0, 50, 65
1, 201711, Note_on_c, 0, 34, 49
1, 201718, Note_on_c, 0, 43, 52
1, 201721, Note_on_c, 0, 52, 59
1, 201738, Note_on_c, 0, 48, 35
1, 201742, Note_off_c, 0, 34, 61
1, 201749, Note_off_c, 0, 43, 54
1, 201754, Note_off_c, 0, 52, 65
1, 201771, Note_off_c, 0, 48, 53
1, 201857, Note_on_c, 0, 43, 52
1, 201857, Note_on_c, 0, 52, 56
1, 201858, Note_on_c, 0, 48, 48
1, 201859, Note_on_c, 0, 34, 54
1, 201886, Note_off_c, 0, 43, 59
1, 201887, Note_off_c, 0, 48, 58
1, 201893, Note_off_c, 0, 52, 66
1, 201893, Note_off_c, 0, 34, 66
1, 201997, Note_on_c, 0, 53, 57
1, 202007, Note_on_c, 0, 33, 63
1, 202010, Note_on_c, 0, 48, 30
1, 202021, Note_on_c, 0, 41, 42
1, 202036, Note_off_c, 0, 33, 66
1, 202056, Note_off_c, 0, 41, 53
1, 202139, Note_on_c, 0, 41, 60
1, 202146, Note_on_c, 0, 33, 53
1, 202170, Note_off_c, 0, 41, 65
1, 202174, Note_off_c, 0, 33, 62
1, 202287, Note_on_c, 0, 33, 51
1, 202292, Note_on_c, 0, 41, 46
1, 202319, Note_off_c, 0, 33, 64
1, 202323, Note_off_c, 0, 41, 55
1, 202404, Note_off_c, 0, 53, 46
1, 202434, Note_on_c, 0, 33, 54
1, 202437, Note_on_c, 0, 41, 41
1, 202440, Note_on_c, 0, 57, 56
1, 202468, Note_off_c, 0, 33, 65
1, 202473, Note_off_c, 0, 41, 55
1, 202476, Note_off_c, 0, 48, 28
1, 202506, Note_on_c, 0, 55, 56
1, 202516, Note_off_c, 0, 57, 53
1, 202573, Note_on_c, 0, 53, 54
1, 202573, Note_on_c, 0, 33, 51
1, 202576, Note_on_c, 0, 41, 49
1, 202580, Note_off_c, 0, 55, 59
1, 202608, Note_off_c, 0, 33, 65
1, 202618, Note_off_c, 0, 41, 60
1, 202625, Note_off_c, 0, 53, 64
1, 202716, Note_on_c, 0, 41, 48
1, 202725, Note_on_c, 0, 33, 40
1, 202748, Note_off_c, 0, 41, 56
1, 202759, Note_off_c, 0, 33, 47
1, 202848, Note_on_c, 0, 33, 59
1, 202861, Note_on_c, 0, 41, 38
1, 202880, Note_off_c, 0, 33, 65
1, 202897, Note_off_c, 0, 41, 48
1, 202989, Note_on_c, 0, 33, 55
1, 202989, Note_on_c, 0, 41, 54
1, 203026, Note_off_c, 0, 33, 65
1, 203034, Note_off_c, 0, 41, 57
1, 203115, Note_on_c, 0, 83, 59
1, 203125, Note_on_c, 0, 41, 55
1, 203130, Note_on_c, 0, 32, 58
1, 203143, Note_on_c, 0, 84, 59
1, 203154, Note_off_c, 0, 83, 65
1, 203161, Note_off_c, 0, 41, 62
1, 203178, Note_off_c, 0, 32, 63
1, 203273, Note_on_c, 0, 41, 50
1, 203280, Note_on_c, 0, 32, 52
1, 203306, Note_off_c, 0, 41, 61
1, 203311, Note_off_c, 0, 32, 61
1, 203418, Note_on_c, 0, 32, 51
1, 203419, Note_on_c, 0, 41, 47
1, 203448, Note_off_c, 0, 41, 58
1, 203454, Note_off_c, 0, 32, 63
1, 203473, Note_off_c, 0, 84, 57
1, 203497, Note_on_c, 0, 82, 57
1, 203555, Note_on_c, 0, 41, 44
1, 203562, Note_on_c, 0, 32, 47
1, 203571, Note_on_c, 0, 80, 55
1, 203582, Note_off_c, 0, 82, 60
1, 203588, Note_off_c, 0, 41, 58
1, 203595, Note_off_c, 0, 32, 56
1, 203632, Note_off_c, 0, 80, 59
1, 203634, Note_on_c, 0, 79, 55
1, 203692, Note_on_c, 0, 41, 49
1, 203696, Note_on_c, 0, 32, 47
1, 203708, Note_off_c, 0, 79, 61
1, 203717, Note_on_c, 0, 77, 50
1, 203726, Note_off_c, 0, 41, 62
1, 203731, Note_off_c, 0, 32, 60
1, 203832, Note_on_c, 0, 41, 48
1, 203838, Note_on_c, 0, 32, 50
1, 203862, Note_off_c, 0, 41, 63
1, 203869, Note_off_c, 0, 32, 59
1, 203878, Note_off_c, 0, 77, 60
1, 203978, Note_on_c, 0, 41, 46
1, 203982, Note_on_c, 0, 32, 50
1, 204012, Note_off_c, 0, 41, 58
1, 204015, Note_off_c, 0, 32, 60
1, 204119, Note_on_c, 0, 41, 49
1, 204121, Note_on_c, 0, 32, 48
1, 204154, Note_off_c, 0, 41, 61
1, 204157, Note_off_c, 0, 32, 62
1, 204270, Note_on_c, 0, 88, 51
1, 204276, Note_on_c, 0, 41, 45
1, 204280, Note_on_c, 0, 31, 54
1, 204310, Note_on_c, 0, 89, 44
1, 204310, Note_off_c, 0, 31, 56
1, 204313, Note_off_c, 0, 41, 52
1, 204366, Note_off_c, 0, 88, 33
1, 204417, Note_on_c, 0, 31, 49
1, 204420, Note_on_c, 0, 41, 44
1, 204450, Note_off_c, 0, 31, 59
1, 204454, Note_off_c, 0, 41, 53
1, 204560, Note_on_c, 0, 31, 49
1, 204563, Note_on_c, 0, 41, 37
1, 204590, Note_off_c, 0, 31, 54
1, 204601, Note_off_c, 0, 41, 46
1, 204710, Note_on_c, 0, 31, 48
1, 204710, Note_on_c, 0, 41, 45
1, 204745, Note_off_c, 0, 31, 59
1, 204752, Note_off_c, 0, 41, 50
1, 204848, Note_on_c, 0, 31, 57
1, 204855, Note_on_c, 0, 41, 42
1, 204883, Note_off_c, 0, 31, 62
1, 204890, Note_off_c, 0, 41, 53
1, 204984, Note_on_c, 0, 31, 60
1, 204993, Note_on_c, 0, 41, 42
1, 205026, Note_off_c, 0, 31, 61
1, 205029, Note_off_c, 0, 41, 55
1, 205049, Note_off_c, 0, 89, 44
1, 205136, Note_on_c, 0, 41, 46
1, 205143, Note_on_c, 0, 32, 53
1, 205148, Note_on_c, 0, 89, 46
1, 205177, Note_off_c, 0, 41, 53
1, 205183, Note_off_c, 0, 32, 61
1, 205216, Note_on_c, 0, 87, 53
1, 205231, Note_off_c, 0, 89, 52
1, 205280, Note_on_c, 0, 86, 51
1, 205282, Note_on_c, 0, 32, 52
1, 205282, Note_on_c, 0, 41, 45
1, 205286, Note_off_c, 0, 87, 58
1, 205312, Note_off_c, 0, 32, 60
1, 205316, Note_off_c, 0, 41, 54
1, 205319, Note_off_c, 0, 86, 62
1, 205345, Note_on_c, 0, 84, 46
1, 205398, Note_off_c, 0, 84, 55
1, 205426, Note_on_c, 0, 41, 42
1, 205426, Note_on_c, 0, 83, 52
1, 205428, Note_on_c, 0, 31, 56
1, 205457, Note_off_c, 0, 31, 60
1, 205460, Note_off_c, 0, 83, 59
1, 205464, Note_off_c, 0, 41, 52
1, 205505, Note_on_c, 0, 84, 51
1, 205545, Note_off_c, 0, 84, 47
1, 205561, Note_on_c, 0, 31, 62
1, 205571, Note_on_c, 0, 41, 43
1, 205571, Note_on_c, 0, 86, 65
1, 205600, Note_off_c, 0, 31, 61
1, 205607, Note_off_c, 0, 41, 55
1, 205637, Note_off_c, 0, 86, 59
1, 205651, Note_on_c, 0, 87, 57
1, 205694, Note_off_c, 0, 87, 63
1, 205706, Note_on_c, 0, 89, 79
1, 205715, Note_on_c, 0, 41, 50
1, 205716, Note_on_c, 0, 32, 67
1, 205745, Note_off_c, 0, 32, 64
1, 205745, Note_off_c, 0, 41, 58
1, 205781, Note_on_c, 0, 87, 71
1, 205820, Note_off_c, 0, 89, 59
1, 205840, Note_on_c, 0, 41, 56
1, 205846, Note_on_c, 0, 32, 58
1, 205854, Note_on_c, 0, 86, 68
1, 205872, Note_off_c, 0, 41, 65
1, 205875, Note_off_c, 0, 87, 61
1, 205878, Note_off_c, 0, 32, 64
1, 205914, Note_off_c, 0, 86, 62
1, 205922, Note_on_c, 0, 84, 62
1, 205990, Note_on_c, 0, 41, 66
1, 205992, Note_off_c, 0, 84, 64
1, 205994, Note_on_c, 0, 31, 75
1, 205996, Note_on_c, 0, 83, 75
1, 206018, Note_off_c, 0, 41, 67
1, 206019, Note_off_c, 0, 31, 66
1, 206033, Control_c, 0, 67, 123
1, 206048, Control_c, 0, 67, 118
1, 206060, Note_off_c, 0, 83, 65
1, 206062, Control_c, 0, 67, 111
1, 206075, Note_on_c, 0, 84, 71
1, 206077, Control_c, 0, 67, 98
1, 206092, Control_c, 0, 67, 84
1, 206107, Control_c, 0, 67, 72
1, 206122, Control_c, 0, 67, 69
1, 206124, Note_on_c, 0, 41, 60
1, 206126, Note_on_c, 0, 31, 71
1, 206143, Note_on_c, 0, 86, 80
1, 206147, Note_off_c, 0, 84, 62
1, 206162, Note_off_c, 0, 41, 64
1, 206165, Note_off_c, 0, 31, 61
1, 206173, Control_c, 0, 67, 67
1, 206188, Control_c, 0, 67, 62
1, 206203, Control_c, 0, 67, 57
1, 206218, Control_c, 0, 67, 53
1, 206231, Note_off_c, 0, 86, 61
1, 206233, Note_on_c, 0, 87, 68
1, 206233, Control_c, 0, 67, 48
1, 206248, Control_c, 0, 67, 34
1, 206262, Control_c, 0, 67, 0
1, 206279, Note_on_c, 0, 41, 77
1, 206284, Note_on_c, 0, 89, 97
1, 206285, Note_on_c, 0, 32, 77
1, 206295, Note_off_c, 0, 87, 63
1, 206314, Note_off_c, 0, 41, 65
1, 206324, Note_off_c, 0, 32, 61
1, 206367, Note_on_c, 0, 87, 74
1, 206418, Note_on_c, 0, 32, 67
1, 206418, Note_on_c, 0, 41, 70
1, 206430, Note_off_c, 0, 89, 62
1, 206445, Note_on_c, 0, 86, 74
1, 206451, Note_off_c, 0, 41, 64
1, 206457, Note_off_c, 0, 32, 59
1, 206473, Note_off_c, 0, 87, 65
1, 206505, Note_on_c, 0, 84, 69
1, 206515, Note_off_c, 0, 86, 61
1, 206571, Note_on_c, 0, 41, 85
1, 206573, Note_on_c, 0, 31, 85
1, 206583, Note_on_c, 0, 83, 86
1, 206588, Note_off_c, 0, 84, 62
1, 206597, Note_off_c, 0, 31, 67
1, 206600, Note_off_c, 0, 41, 67
1, 206656, Note_off_c, 0, 83, 65
1, 206671, Note_on_c, 0, 84, 79
1, 206740, Note_on_c, 0, 86, 81
1, 206800, Note_off_c, 0, 84, 61
1, 206820, Note_on_c, 0, 87, 73
1, 206825, Note_off_c, 0, 86, 62
1, 206880, Note_on_c, 0, 55, 98
1, 206880, Note_on_c, 0, 89, 101
1, 206886, Control_c, 0, 64, 29
1, 206889, Note_on_c, 0, 43, 84
1, 206893, Note_off_c, 0, 87, 60
1, 206901, Control_c, 0, 64, 58
1, 206923, Control_c, 0, 64, 127
1, 206987, Note_on_c, 0, 87, 82
1, 207055, Note_on_c, 0, 86, 85
1, 207055, Note_off_c, 0, 89, 60
1, 207086, Note_off_c, 0, 87, 62
1, 207117, Note_on_c, 0, 84, 74
1, 207124, Note_off_c, 0, 86, 62
1, 207166, Note_off_c, 0, 84, 63
1, 207202, Note_on_c, 0, 83, 80
1, 207267, Note_on_c, 0, 80, 86
1, 207300, Note_off_c, 0, 83, 66
1, 207316, Note_off_c, 0, 43, 33
1, 207331, Note_on_c, 0, 79, 79
1, 207367, Note_off_c, 0, 80, 62
1, 207390, Note_on_c, 0, 77, 78
1, 207391, Note_off_c, 0, 79, 63
1, 207455, Note_off_c, 0, 77, 52
1, 207468, Note_on_c, 0, 75, 83
1, 207530, Note_on_c, 0, 74, 79
1, 207555, Note_off_c, 0, 75, 59
1, 207586, Note_off_c, 0, 55, 54
1, 207594, Note_on_c, 0, 72, 79
1, 207599, Note_off_c, 0, 74, 66
1, 207649, Note_off_c, 0, 72, 56
1, 207684, Note_on_c, 0, 57, 75
1, 207688, Note_on_c, 0, 71, 86
1, 207723, Note_on_c, 0, 59, 78
1, 207746, Control_c, 0, 64, 67
1, 207758, Note_on_c, 0, 72, 114
1, 207759, Note_off_c, 0, 57, 53
1, 207761, Control_c, 0, 64, 35
1, 207761, Note_on_c, 0, 60, 101
1, 207775, Control_c, 0, 64, 0
1, 207788, Note_off_c, 0, 59, 68
1, 207790, Note_off_c, 0, 71, 67
1, 207798, Note_off_c, 0, 72, 71
1, 207802, Note_off_c, 0, 60, 71
1, 208091, Note_on_c, 0, 67, 106
1, 208092, Note_on_c, 0, 55, 97
1, 208094, Note_on_c, 0, 43, 81
1, 208124, Note_off_c, 0, 43, 67
1, 208125, Note_off_c, 0, 67, 71
1, 208126, Note_off_c, 0, 55, 68
1, 208439, Note_on_c, 0, 51, 76
1, 208443, Note_on_c, 0, 63, 101
1, 208444, Note_on_c, 0, 39, 71
1, 208463, Note_off_c, 0, 51, 69
1, 208478, Note_off_c, 0, 39, 66
1, 208481, Note_off_c, 0, 63, 70
1, 208802, Note_on_c, 0, 60, 86
1, 208806, Note_on_c, 0, 36, 64
1, 208806, Note_on_c, 0, 48, 68
1, 208832, Note_off_c, 0, 48, 67
1, 208833, Note_off_c, 0, 36, 64
1, 208847, Note_off_c, 0, 60, 68
1, 209392, Note_on_c, 0, 44, 34
1, 209393, Note_on_c, 0, 56, 49
1, 209399, Note_on_c, 0, 32, 42
1, 209837, Control_c, 0, 64, 13
1, 209852, Control_c, 0, 64, 19
1, 209867, Control_c, 0, 64, 24
1, 209882, Control_c, 0, 64, 28
1, 209897, Control_c, 0, 64, 34
1, 209918, Control_c, 0, 64, 38
1, 209933, Control_c, 0, 64, 43
1, 209948, Control_c, 0, 64, 49
1, 209962, Control_c, 0, 64, 52
1, 209977, Control_c, 0, 64, 54
1, 209992, Control_c, 0, 64, 55
1, 210007, Control_c, 0, 64, 57
1, 210022, Control_c, 0, 64, 58
1, 210037, Control_c, 0, 64, 58
1, 210168, Control_c, 0, 64, 58
1, 210213, Control_c, 0, 64, 57
1, 210272, Control_c, 0, 64, 57
1, 210288, Control_c, 0, 64, 56
1, 210303, Control_c, 0, 64, 56
1, 210362, Control_c, 0, 64, 55
1, 210377, Control_c, 0, 64, 54
1, 210392, Control_c, 0, 64, 54
1, 210737, Note_off_c, 0, 32, 21
1, 211175, Note_off_c, 0, 56, 26
1, 211244, Control_c, 0, 64, 54
1, 211357, Note_off_c, 0, 44, 13
1, 212008, Control_c, 0, 67, 10
1, 212022, Control_c, 0, 67, 15
1, 212037, Control_c, 0, 67, 22
1, 212052, Control_c, 0, 67, 33
1, 212067, Control_c, 0, 67, 45
1, 212082, Control_c, 0, 67, 56
1, 212097, Control_c, 0, 67, 67
1, 212111, Control_c, 0, 67, 76
1, 212126, Control_c, 0, 67, 85
1, 212141, Control_c, 0, 67, 93
1, 212163, Control_c, 0, 67, 99
1, 212178, Control_c, 0, 67, 105
1, 212193, Control_c, 0, 67, 108
1, 212208, Control_c, 0, 67, 110
1, 212223, Control_c, 0, 67, 112
1, 212237, Control_c, 0, 67, 113
1, 212252, Control_c, 0, 67, 114
1, 212267, Control_c, 0, 67, 115
1, 212282, Control_c, 0, 67, 115
1, 212504, Control_c, 0, 67, 115
1, 212519, Control_c, 0, 67, 114
1, 212667, Control_c, 0, 64, 54
1, 212727, Control_c, 0, 67, 114
1, 212786, Control_c, 0, 67, 113
1, 212831, Control_c, 0, 67, 113
1, 212942, Control_c, 0, 67, 112
1, 213121, Control_c, 0, 67, 112
1, 213268, Control_c, 0, 64, 53
1, 213283, Control_c, 0, 64, 52
1, 213298, Control_c, 0, 64, 49
1, 213313, Control_c, 0, 64, 42
1, 213322, Note_on_c, 0, 73, 54
1, 213327, Note_on_c, 0, 61, 48
1, 213328, Control_c, 0, 64, 20
1, 213343, Control_c, 0, 64, 0
1, 213362, Note_off_c, 0, 73, 60
1, 213363, Note_off_c, 0, 61, 62
1, 213697, Note_on_c, 0, 68, 52
1, 213700, Note_on_c, 0, 56, 47
1, 213733, Note_off_c, 0, 68, 61
1, 213736, Note_off_c, 0, 56, 66
1, 213972, Control_c, 0, 67, 111
1, 214079, Note_on_c, 0, 65, 49
1, 214089, Note_on_c, 0, 53, 37
1, 214112, Note_off_c, 0, 65, 62
1, 214120, Note_off_c, 0, 53, 59
1, 214194, Control_c, 0, 67, 111
1, 214498, Note_on_c, 0, 61, 54
1, 214509, Note_on_c, 0, 49, 39
1, 214546, Note_off_c, 0, 49, 62
1, 214547, Note_off_c, 0, 61, 61
1, 215086, Note_on_c, 0, 58, 45
1, 215097, Note_on_c, 0, 46, 38
1, 215110, Note_on_c, 0, 34, 38
1, 215426, Control_c, 0, 64, 20
1, 215441, Control_c, 0, 64, 26
1, 215455, Control_c, 0, 64, 31
1, 215470, Control_c, 0, 64, 37
1, 215485, Control_c, 0, 64, 43
1, 215500, Control_c, 0, 64, 48
1, 215515, Control_c, 0, 64, 52
1, 215529, Control_c, 0, 64, 55
1, 215544, Control_c, 0, 64, 56
1, 215559, Control_c, 0, 64, 58
1, 215573, Control_c, 0, 64, 60
1, 215588, Control_c, 0, 64, 61
1, 215603, Control_c, 0, 64, 62
1, 215618, Control_c, 0, 64, 63
1, 215633, Control_c, 0, 64, 63
1, 215647, Control_c, 0, 64, 64
1, 215662, Control_c, 0, 64, 64
1, 215840, Control_c, 0, 67, 110
1, 215952, Control_c, 0, 67, 110
1, 216026, Control_c, 0, 67, 109
1, 216057, Control_c, 0, 64, 64
1, 216145, Note_off_c, 0, 58, 26
1, 216338, Control_c, 0, 67, 109
1, 216530, Control_c, 0, 64, 63
1, 216545, Control_c, 0, 67, 108
1, 217027, Control_c, 0, 67, 108
1, 217152, Note_off_c, 0, 34, 34
1, 217191, Control_c, 0, 67, 107
1, 217250, Control_c, 0, 64, 63
1, 217510, Control_c, 0, 67, 108
1, 217516, Note_off_c, 0, 46, 28
1, 217540, Control_c, 0, 67, 108
1, 217555, Control_c, 0, 67, 109
1, 217569, Control_c, 0, 67, 109
1, 217584, Control_c, 0, 67, 110
1, 217599, Control_c, 0, 67, 110
1, 217614, Control_c, 0, 67, 111
1, 217673, Control_c, 0, 67, 112
1, 217688, Control_c, 0, 67, 112
1, 217703, Control_c, 0, 67, 113
1, 217865, Control_c, 0, 67, 113
1, 217895, Control_c, 0, 64, 62
1, 218117, Control_c, 0, 64, 62
1, 218421, Control_c, 0, 64, 61
1, 218569, Control_c, 0, 64, 61
1, 218613, Control_c, 0, 64, 60
1, 218628, Control_c, 0, 64, 58
1, 218643, Control_c, 0, 64, 52
1, 218658, Control_c, 0, 64, 35
1, 218667, Note_on_c, 0, 63, 47
1, 218672, Control_c, 0, 64, 0
1, 218693, Note_off_c, 0, 63, 59
1, 218746, Note_on_c, 0, 67, 36
1, 218835, Note_on_c, 0, 70, 43
1, 218852, Note_off_c, 0, 67, 34
1, 218911, Note_on_c, 0, 75, 50
1, 218914, Note_off_c, 0, 70, 49
1, 218962, Note_off_c, 0, 75, 52
1, 218987, Note_on_c, 0, 58, 56
1, 219018, Note_off_c, 0, 58, 65
1, 219082, Note_on_c, 0, 67, 40
1, 219125, Control_c, 0, 67, 113
1, 219158, Note_off_c, 0, 67, 42
1, 219160, Note_on_c, 0, 70, 43
1, 219218, Note_off_c, 0, 70, 57
1, 219231, Note_on_c, 0, 75, 47
1, 219262, Note_off_c, 0, 75, 53
1, 219305, Note_on_c, 0, 55, 57
1, 219337, Note_off_c, 0, 55, 66
1, 219397, Note_on_c, 0, 67, 47
1, 219407, Control_c, 0, 67, 112
1, 219421, Control_c, 0, 67, 112
1, 219468, Note_off_c, 0, 67, 49
1, 219471, Note_on_c, 0, 70, 43
1, 219533, Note_off_c, 0, 70, 54
1, 219539, Note_on_c, 0, 75, 50
1, 219573, Note_off_c, 0, 75, 52
1, 219615, Note_on_c, 0, 51, 63
1, 219656, Note_off_c, 0, 51, 66
1, 219713, Note_on_c, 0, 67, 46
1, 219769, Control_c, 0, 67, 111
1, 219784, Control_c, 0, 67, 111
1, 219795, Note_on_c, 0, 70, 46
1, 219833, Note_off_c, 0, 67, 46
1, 219856, Note_off_c, 0, 70, 54
1, 219861, Note_on_c, 0, 75, 51
1, 219898, Note_off_c, 0, 75, 54
1, 219939, Note_on_c, 0, 53, 61
1, 219971, Note_off_c, 0, 53, 66
1, 220035, Note_on_c, 0, 65, 47
1, 220084, Note_on_c, 0, 68, 63
1, 220145, Note_off_c, 0, 65, 35
1, 220165, Note_on_c, 0, 75, 65
1, 220175, Note_off_c, 0, 68, 57
1, 220204, Note_off_c, 0, 75, 57
1, 220252, Note_on_c, 0, 56, 62
1, 220283, Note_off_c, 0, 56, 66
1, 220336, Note_on_c, 0, 65, 54
1, 220404, Note_on_c, 0, 71, 50
1, 220436, Note_off_c, 0, 65, 53
1, 220464, Note_off_c, 0, 71, 66
1, 220476, Note_on_c, 0, 74, 54
1, 220507, Note_off_c, 0, 74, 66
1, 220551, Note_on_c, 0, 57, 72
1, 220580, Note_off_c, 0, 57, 65
1, 220635, Note_on_c, 0, 63, 46
1, 220708, Note_on_c, 0, 66, 53
1, 220754, Note_off_c, 0, 63, 37
1, 220780, Note_on_c, 0, 74, 58
1, 220792, Note_off_c, 0, 66, 59
1, 220815, Note_off_c, 0, 74, 61
1, 220856, Note_on_c, 0, 54, 62
1, 220882, Note_off_c, 0, 54, 67
1, 220944, Note_on_c, 0, 63, 43
1, 221012, Note_off_c, 0, 63, 57
1, 221015, Note_on_c, 0, 69, 53
1, 221079, Note_off_c, 0, 69, 56
1, 221090, Note_on_c, 0, 72, 60
1, 221123, Note_off_c, 0, 72, 63
1, 221179, Note_on_c, 0, 55, 59
1, 221205, Note_off_c, 0, 55, 67
1, 221261, Note_on_c, 0, 62, 48
1, 221337, Note_off_c, 0, 62, 53
1, 221352, Note_on_c, 0, 67, 45
1, 221410, Note_off_c, 0, 67, 61
1, 221424, Note_on_c, 0, 72, 50
1, 221454, Note_off_c, 0, 72, 54
1, 221477, Control_c, 0, 67, 110
1, 221489, Note_on_c, 0, 54, 60
1, 221519, Note_off_c, 0, 54, 66
1, 221590, Note_on_c, 0, 62, 46
1, 221609, Control_c, 0, 67, 110
1, 221654, Control_c, 0, 67, 109
1, 221673, Note_off_c, 0, 62, 51
1, 221674, Note_on_c, 0, 67, 45
1, 221725, Note_off_c, 0, 67, 47
1, 221732, Note_on_c, 0, 72, 49
1, 221743, Control_c, 0, 67, 109
1, 221758, Control_c, 0, 67, 108
1, 221773, Control_c, 0, 67, 108
1, 221779, Note_off_c, 0, 72, 57
1, 221787, Control_c, 0, 67, 107
1, 221802, Control_c, 0, 67, 107
1, 221817, Control_c, 0, 67, 106
1, 221817, Note_on_c, 0, 55, 57
1, 221847, Control_c, 0, 67, 106
1, 221847, Note_off_c, 0, 55, 66
1, 221877, Control_c, 0, 67, 105
1, 221898, Control_c, 0, 67, 105
1, 221901, Note_on_c, 0, 62, 48
1, 221913, Control_c, 0, 67, 104
1, 221928, Control_c, 0, 67, 103
1, 221942, Control_c, 0, 67, 102
1, 221957, Control_c, 0, 67, 100
1, 221972, Control_c, 0, 67, 98
1, 221982, Note_off_c, 0, 62, 52
1, 221984, Note_on_c, 0, 67, 44
1, 221987, Control_c, 0, 67, 96
1, 222017, Control_c, 0, 67, 95
1, 222044, Note_off_c, 0, 67, 58
1, 222046, Control_c, 0, 67, 95
1, 222060, Note_on_c, 0, 71, 41
1, 222061, Control_c, 0, 67, 94
1, 222075, Control_c, 0, 67, 90
1, 222089, Note_off_c, 0, 71, 58
1, 222090, Control_c, 0, 67, 87
1, 222105, Control_c, 0, 67, 83
1, 222120, Control_c, 0, 67, 80
1, 222124, Note_on_c, 0, 43, 55
1, 222135, Control_c, 0, 67, 77
1, 222149, Control_c, 0, 67, 74
1, 222160, Note_off_c, 0, 43, 63
1, 222164, Control_c, 0, 67, 70
1, 222179, Control_c, 0, 67, 65
1, 222194, Control_c, 0, 67, 59
1, 222209, Control_c, 0, 67, 52
1, 222210, Note_on_c, 0, 62, 46
1, 222223, Control_c, 0, 67, 45
1, 222238, Control_c, 0, 67, 34
1, 222253, Control_c, 0, 67, 20
1, 222269, Control_c, 0, 67, 0
1, 222276, Note_off_c, 0, 62, 57
1, 222284, Note_on_c, 0, 65, 43
1, 222341, Note_off_c, 0, 65, 52
1, 222360, Note_on_c, 0, 71, 41
1, 222390, Note_off_c, 0, 71, 59
1, 222481, Note_on_c, 0, 72, 97
1, 222485, Note_on_c, 0, 36, 77
1, 222486, Note_on_c, 0, 64, 85
1, 222488, Note_on_c, 0, 48, 77
1, 222491, Control_c, 0, 64, 13
1, 222506, Control_c, 0, 64, 49
1, 222521, Control_c, 0, 64, 70
1, 222521, Note_off_c, 0, 36, 65
1, 222528, Note_off_c, 0, 48, 64
1, 222536, Note_off_c, 0, 64, 60
1, 222536, Note_off_c, 0, 72, 64
1, 222536, Control_c, 0, 64, 127
1, 222780, Control_c, 0, 64, 95
1, 222789, Note_on_c, 0, 48, 63
1, 222792, Note_on_c, 0, 64, 69
1, 222795, Control_c, 0, 64, 63
1, 222810, Control_c, 0, 64, 39
1, 222825, Control_c, 0, 64, 0
1, 222830, Note_off_c, 0, 64, 64
1, 222834, Note_off_c, 0, 48, 63
1, 222848, Note_on_c, 0, 60, 66
1, 222860, Note_on_c, 0, 55, 65
1, 222913, Note_off_c, 0, 60, 54
1, 222914, Control_c, 0, 67, 8
1, 222917, Note_off_c, 0, 55, 52
1, 222929, Control_c, 0, 67, 10
1, 222942, Note_on_c, 0, 64, 63
1, 222944, Control_c, 0, 67, 12
1, 222946, Note_on_c, 0, 48, 56
1, 222959, Control_c, 0, 67, 14
1, 222973, Note_off_c, 0, 64, 65
1, 222973, Control_c, 0, 67, 15
1, 222977, Note_off_c, 0, 48, 65
1, 222988, Control_c, 0, 67, 17
1, 222998, Note_on_c, 0, 60, 62
1, 223003, Control_c, 0, 67, 23
1, 223013, Note_on_c, 0, 55, 62
1, 223018, Control_c, 0, 67, 34
1, 223033, Control_c, 0, 67, 43
1, 223039, Note_off_c, 0, 60, 59
1, 223047, Control_c, 0, 67, 52
1, 223063, Control_c, 0, 67, 61
1, 223071, Note_off_c, 0, 55, 58
1, 223077, Note_on_c, 0, 48, 55
1, 223077, Note_on_c, 0, 64, 66
1, 223078, Control_c, 0, 67, 70
1, 223093, Control_c, 0, 67, 79
1, 223108, Control_c, 0, 67, 87
1, 223112, Note_off_c, 0, 64, 63
1, 223112, Note_off_c, 0, 48, 65
1, 223122, Control_c, 0, 67, 91
1, 223137, Control_c, 0, 67, 93
1, 223138, Note_on_c, 0, 60, 65
1, 223147, Note_on_c, 0, 55, 51
1, 223152, Control_c, 0, 67, 95
1, 223167, Control_c, 0, 67, 97
1, 223179, Note_off_c, 0, 60, 59
1, 223181, Control_c, 0, 67, 100
1, 223196, Control_c, 0, 67, 102
1, 223203, Note_off_c, 0, 55, 60
1, 223211, Control_c, 0, 67, 103
1, 223212, Note_on_c, 0, 48, 52
1, 223213, Note_on_c, 0, 64, 60
1, 223247, Note_off_c, 0, 64, 65
1, 223248, Note_off_c, 0, 48, 65
1, 223266, Note_on_c, 0, 60, 64
1, 223270, Note_on_c, 0, 55, 46
1, 223309, Note_off_c, 0, 60, 60
1, 223332, Note_off_c, 0, 55, 61
1, 223342, Note_on_c, 0, 64, 65
1, 223344, Note_on_c, 0, 48, 50
1, 223388, Note_off_c, 0, 48, 65
1, 223388, Note_off_c, 0, 64, 63
1, 223409, Note_on_c, 0, 55, 45
1, 223409, Note_on_c, 0, 60, 59
1, 223461, Note_off_c, 0, 60, 59
1, 223479, Note_off_c, 0, 55, 62
1, 223482, Note_on_c, 0, 48, 56
1, 223482, Note_on_c, 0, 64, 68
1, 223516, Note_off_c, 0, 48, 66
1, 223524, Note_off_c, 0, 64, 61
1, 223544, Note_on_c, 0, 55, 45
1, 223544, Note_on_c, 0, 60, 59
1, 223599, Note_off_c, 0, 60, 61
1, 223603, Note_off_c, 0, 55, 59
1, 223615, Note_on_c, 0, 48, 53
1, 223621, Note_on_c, 0, 64, 61
1, 223656, Note_off_c, 0, 48, 65
1, 223656, Note_off_c, 0, 64, 63
1, 223675, Note_on_c, 0, 60, 58
1, 223688, Note_on_c, 0, 55, 40
1, 223734, Note_off_c, 0, 60, 62
1, 223748, Note_off_c, 0, 55, 50
1, 223752, Note_on_c, 0, 64, 64
1, 223755, Note_on_c, 0, 48, 59
1, 223793, Note_off_c, 0, 48, 64
1, 223793, Note_off_c, 0, 64, 62
1, 223811, Note_on_c, 0, 60, 59
1, 223823, Note_on_c, 0, 55, 43
1, 223878, Note_off_c, 0, 60, 63
1, 223887, Note_off_c, 0, 55, 57
1, 223893, Note_on_c, 0, 48, 49
1, 223896, Note_on_c, 0, 64, 58
1, 223932, Note_off_c, 0, 64, 63
1, 223933, Note_off_c, 0, 48, 63
1, 223948, Note_on_c, 0, 60, 57
1, 223955, Note_on_c, 0, 55, 36
1, 224014, Note_off_c, 0, 60, 64
1, 224023, Note_off_c, 0, 55, 62
1, 224029, Note_on_c, 0, 64, 64
1, 224031, Note_on_c, 0, 48, 59
1, 224072, Note_off_c, 0, 48, 61
1, 224075, Note_off_c, 0, 64, 60
1, 224094, Note_on_c, 0, 60, 58
1, 224112, Note_on_c, 0, 55, 35
1, 224163, Note_off_c, 0, 60, 62
1, 224167, Note_off_c, 0, 55, 56
1, 224177, Note_on_c, 0, 48, 57
1, 224184, Note_on_c, 0, 64, 64
1, 224214, Note_off_c, 0, 48, 65
1, 224220, Note_off_c, 0, 64, 61
1, 224244, Note_on_c, 0, 60, 56
1, 224248, Control_c, 0, 67, 103
1, 224253, Note_on_c, 0, 55, 44
1, 224278, Control_c, 0, 67, 104
1, 224292, Control_c, 0, 67, 104
1, 224304, Note_off_c, 0, 60, 61
1, 224309, Note_on_c, 0, 48, 56
1, 224309, Note_off_c, 0, 55, 53
1, 224321, Control_c, 0, 67, 105
1, 224330, Note_on_c, 0, 64, 60
1, 224347, Note_off_c, 0, 48, 63
1, 224351, Control_c, 0, 67, 105
1, 224365, Note_off_c, 0, 64, 62
1, 224378, Note_on_c, 0, 55, 44
1, 224387, Note_on_c, 0, 60, 54
1, 224422, Note_off_c, 0, 55, 58
1, 224439, Note_off_c, 0, 60, 62
1, 224441, Note_on_c, 0, 48, 50
1, 224460, Note_on_c, 0, 64, 64
1, 224476, Note_off_c, 0, 48, 64
1, 224501, Note_off_c, 0, 64, 62
1, 224514, Note_on_c, 0, 55, 56
1, 224519, Note_on_c, 0, 60, 56
1, 224550, Note_off_c, 0, 55, 65
1, 224557, Note_off_c, 0, 60, 63
1, 224579, Note_on_c, 0, 48, 51
1, 224590, Note_on_c, 0, 66, 63
1, 224616, Note_off_c, 0, 48, 63
1, 224635, Note_off_c, 0, 66, 57
1, 224648, Note_on_c, 0, 57, 60
1, 224652, Note_on_c, 0, 62, 69
1, 224702, Note_off_c, 0, 62, 55
1, 224703, Note_off_c, 0, 57, 54
1, 224718, Note_on_c, 0, 66, 64
1, 224724, Note_on_c, 0, 48, 51
1, 224757, Note_off_c, 0, 48, 66
1, 224776, Note_off_c, 0, 66, 62
1, 224781, Note_on_c, 0, 62, 65
1, 224792, Note_on_c, 0, 57, 52
1, 224827, Note_off_c, 0, 57, 62
1, 224843, Note_off_c, 0, 62, 58
1, 224856, Note_on_c, 0, 67, 74
1, 224884, Note_on_c, 0, 47, 52
1, 224885, Note_on_c, 0, 50, 50
1, 224922, Note_off_c, 0, 50, 63
1, 224923, Note_off_c, 0, 47, 63
1, 224956, Note_on_c, 0, 55, 61
1, 225000, Note_off_c, 0, 55, 56
1, 225025, Note_on_c, 0, 47, 51
1, 225026, Note_on_c, 0, 50, 57
1, 225057, Note_off_c, 0, 50, 65
1, 225058, Note_off_c, 0, 47, 65
1, 225096, Note_on_c, 0, 55, 59
1, 225145, Note_off_c, 0, 55, 60
1, 225149, Note_on_c, 0, 47, 64
1, 225150, Note_on_c, 0, 50, 61
1, 225189, Note_off_c, 0, 50, 63
1, 225197, Note_off_c, 0, 47, 58
1, 225204, Control_c, 0, 67, 105
1, 225221, Note_on_c, 0, 55, 54
1, 225263, Control_c, 0, 67, 104
1, 225266, Note_off_c, 0, 67, 49
1, 225272, Note_off_c, 0, 55, 56
1, 225290, Note_on_c, 0, 71, 64
1, 225311, Note_on_c, 0, 50, 36
1, 225314, Note_on_c, 0, 47, 41
1, 225341, Note_off_c, 0, 50, 56
1, 225346, Note_off_c, 0, 47, 52
1, 225358, Note_on_c, 0, 69, 64
1, 225370, Note_on_c, 0, 55, 54
1, 225374, Note_off_c, 0, 71, 61
1, 225414, Note_off_c, 0, 55, 55
1, 225424, Note_on_c, 0, 67, 60
1, 225433, Note_on_c, 0, 47, 54
1, 225441, Note_on_c, 0, 50, 45
1, 225441, Note_off_c, 0, 69, 62
1, 225484, Note_off_c, 0, 50, 59
1, 225484, Note_off_c, 0, 67, 64
1, 225486, Note_off_c, 0, 47, 60
1, 225508, Note_on_c, 0, 55, 60
1, 225566, Note_off_c, 0, 55, 61
1, 225588, Note_on_c, 0, 47, 53
1, 225594, Note_on_c, 0, 50, 47
1, 225618, Note_off_c, 0, 47, 60
1, 225622, Note_off_c, 0, 50, 60
1, 225653, Note_on_c, 0, 55, 53
1, 225705, Note_off_c, 0, 55, 50
1, 225719, Note_on_c, 0, 50, 60
1, 225720, Note_on_c, 0, 47, 54
1, 225756, Note_off_c, 0, 50, 64
1, 225761, Note_off_c, 0, 47, 61
1, 225792, Note_on_c, 0, 55, 58
1, 225846, Note_off_c, 0, 55, 58
1, 225854, Note_on_c, 0, 47, 56
1, 225857, Note_on_c, 0, 50, 56
1, 225900, Note_off_c, 0, 50, 63
1, 225901, Note_off_c, 0, 47, 59
1, 225926, Note_on_c, 0, 55, 52
1, 225976, Note_off_c, 0, 55, 54
1, 225993, Note_on_c, 0, 85, 63
1, 226002, Note_on_c, 0, 47, 59
1, 226006, Note_on_c, 0, 86, 72
1, 226012, Note_on_c, 0, 50, 56
1, 226038, Note_off_c, 0, 50, 63
1, 226039, Note_off_c, 0, 47, 64
1, 226039, Note_off_c, 0, 85, 59
1, 226077, Note_on_c, 0, 55, 66
1, 226140, Note_off_c, 0, 86, 0
1, 226140, Note_on_c, 0, 86, 20
1, 226143, Note_off_c, 0, 55, 60
1, 226145, Note_on_c, 0, 47, 58
1, 226145, Note_on_c, 0, 50, 51
1, 226180, Note_off_c, 0, 50, 65
1, 226184, Note_off_c, 0, 47, 62
1, 226210, Note_on_c, 0, 55, 50
1, 226263, Note_off_c, 0, 55, 54
1, 226288, Note_on_c, 0, 47, 55
1, 226294, Note_on_c, 0, 50, 51
1, 226323, Note_off_c, 0, 50, 60
1, 226327, Note_off_c, 0, 47, 62
1, 226338, Control_c, 0, 67, 104
1, 226360, Note_off_c, 0, 86, 47
1, 226367, Note_on_c, 0, 55, 57
1, 226368, Control_c, 0, 67, 103
1, 226369, Note_on_c, 0, 84, 62
1, 226413, Note_off_c, 0, 55, 57
1, 226441, Note_on_c, 0, 47, 52
1, 226441, Note_on_c, 0, 50, 48
1, 226453, Note_on_c, 0, 83, 59
1, 226467, Note_off_c, 0, 84, 60
1, 226480, Note_off_c, 0, 47, 60
1, 226484, Note_off_c, 0, 50, 62
1, 226514, Note_on_c, 0, 81, 63
1, 226518, Note_off_c, 0, 83, 62
1, 226521, Note_on_c, 0, 55, 49
1, 226539, Control_c, 0, 67, 103
1, 226569, Note_off_c, 0, 55, 56
1, 226587, Note_off_c, 0, 81, 59
1, 226592, Note_on_c, 0, 79, 58
1, 226597, Note_on_c, 0, 47, 45
1, 226605, Note_on_c, 0, 50, 41
1, 226633, Note_off_c, 0, 47, 58
1, 226634, Note_off_c, 0, 50, 59
1, 226669, Note_on_c, 0, 55, 58
1, 226712, Note_off_c, 0, 55, 57
1, 226721, Note_off_c, 0, 79, 50
1, 226743, Note_on_c, 0, 50, 42
1, 226746, Note_on_c, 0, 47, 39
1, 226772, Note_off_c, 0, 50, 59
1, 226779, Note_off_c, 0, 47, 55
1, 226804, Note_on_c, 0, 55, 59
1, 226844, Note_off_c, 0, 55, 58
1, 226868, Note_on_c, 0, 47, 49
1, 226870, Note_on_c, 0, 50, 52
1, 226894, Control_c, 0, 67, 103
1, 226898, Note_off_c, 0, 50, 62
1, 226938, Control_c, 0, 67, 104
1, 226944, Note_on_c, 0, 55, 55
1, 226953, Control_c, 0, 67, 104
1, 226968, Control_c, 0, 67, 105
1, 226973, Note_off_c, 0, 47, 0
1, 226976, Note_off_c, 0, 55, 57
1, 226983, Control_c, 0, 67, 105
1, 226995, Note_on_c, 0, 50, 55
1, 226996, Note_on_c, 0, 47, 27
1, 226998, Control_c, 0, 67, 106
1, 227013, Control_c, 0, 67, 106
1, 227028, Control_c, 0, 67, 107
1, 227034, Note_off_c, 0, 47, 58
1, 227035, Note_off_c, 0, 50, 62
1, 227043, Control_c, 0, 67, 108
1, 227058, Control_c, 0, 67, 110
1, 227059, Note_on_c, 0, 55, 63
1, 227073, Control_c, 0, 67, 116
1, 227078, Note_off_c, 0, 55, 66
1, 227087, Control_c, 0, 67, 123
1, 227102, Control_c, 0, 67, 127
1, 227154, Control_c, 0, 64, 22
1, 227169, Note_on_c, 0, 65, 67
1, 227169, Control_c, 0, 64, 41
1, 227172, Note_on_c, 0, 38, 68
1, 227178, Note_on_c, 0, 50, 60
1, 227184, Control_c, 0, 64, 54
1, 227199, Control_c, 0, 64, 61
1, 227204, Note_off_c, 0, 38, 64
1, 227207, Note_off_c, 0, 50, 59
1, 227227, Note_off_c, 0, 65, 65
1, 227234, Note_on_c, 0, 62, 65
1, 227258, Control_c, 0, 64, 62
1, 227287, Control_c, 0, 64, 62
1, 227306, Note_off_c, 0, 62, 59
1, 227307, Note_on_c, 0, 50, 64
1, 227317, Control_c, 0, 64, 62
1, 227325, Note_on_c, 0, 65, 65
1, 227332, Control_c, 0, 64, 59
1, 227347, Control_c, 0, 64, 52
1, 227354, Note_off_c, 0, 50, 61
1, 227357, Note_off_c, 0, 65, 64
1, 227362, Control_c, 0, 64, 30
1, 227377, Control_c, 0, 64, 0
1, 227380, Note_on_c, 0, 62, 60
1, 227391, Note_on_c, 0, 57, 68
1, 227434, Note_off_c, 0, 62, 60
1, 227440, Note_off_c, 0, 57, 57
1, 227462, Note_on_c, 0, 65, 75
1, 227474, Note_on_c, 0, 50, 52
1, 227499, Note_off_c, 0, 50, 60
1, 227511, Note_off_c, 0, 65, 64
1, 227529, Note_on_c, 0, 62, 64
1, 227541, Note_on_c, 0, 57, 63
1, 227576, Note_off_c, 0, 62, 54
1, 227595, Note_off_c, 0, 57, 54
1, 227599, Note_on_c, 0, 50, 52
1, 227606, Note_on_c, 0, 65, 73
1, 227652, Note_off_c, 0, 50, 62
1, 227653, Note_off_c, 0, 65, 63
1, 227668, Note_on_c, 0, 62, 65
1, 227679, Note_on_c, 0, 57, 54
1, 227731, Note_off_c, 0, 57, 53
1, 227738, Note_off_c, 0, 62, 62
1, 227748, Note_on_c, 0, 65, 69
1, 227753, Note_on_c, 0, 50, 57
1, 227786, Note_off_c, 0, 50, 64
1, 227790, Note_off_c, 0, 65, 62
1, 227806, Note_on_c, 0, 62, 60
1, 227830, Note_on_c, 0, 57, 58
1, 227881, Note_off_c, 0, 57, 57
1, 227884, Note_off_c, 0, 62, 61
1, 227892, Note_on_c, 0, 50, 58
1, 227898, Note_on_c, 0, 65, 68
1, 227930, Note_off_c, 0, 50, 66
1, 227935, Note_off_c, 0, 65, 64
1, 227952, Note_on_c, 0, 62, 61
1, 227976, Note_on_c, 0, 57, 54
1, 228028, Note_off_c, 0, 62, 63
1, 228029, Note_off_c, 0, 57, 53
1, 228040, Note_on_c, 0, 65, 69
1, 228046, Note_on_c, 0, 50, 55
1, 228078, Note_off_c, 0, 65, 63
1, 228079, Note_off_c, 0, 50, 64
1, 228098, Note_on_c, 0, 62, 62
1, 228113, Note_on_c, 0, 57, 51
1, 228169, Note_off_c, 0, 62, 63
1, 228170, Note_off_c, 0, 57, 55
1, 228182, Note_on_c, 0, 50, 57
1, 228183, Note_on_c, 0, 65, 66
1, 228216, Note_off_c, 0, 50, 65
1, 228220, Note_off_c, 0, 65, 64
1, 228238, Note_on_c, 0, 62, 60
1, 228259, Note_on_c, 0, 57, 43
1, 228305, Note_off_c, 0, 57, 52
1, 228312, Note_off_c, 0, 62, 63
1, 228319, Note_on_c, 0, 50, 53
1, 228328, Note_on_c, 0, 65, 63
1, 228354, Note_off_c, 0, 50, 64
1, 228364, Note_off_c, 0, 65, 63
1, 228387, Note_on_c, 0, 62, 57
1, 228401, Note_on_c, 0, 57, 44
1, 228447, Note_off_c, 0, 57, 51
1, 228454, Note_off_c, 0, 62, 62
1, 228456, Note_on_c, 0, 50, 55
1, 228471, Note_on_c, 0, 65, 62
1, 228493, Note_off_c, 0, 50, 63
1, 228505, Note_off_c, 0, 65, 64
1, 228525, Note_on_c, 0, 62, 56
1, 228543, Note_on_c, 0, 57, 42
1, 228584, Note_off_c, 0, 57, 49
1, 228593, Note_off_c, 0, 62, 60
1, 228599, Note_on_c, 0, 50, 52
1, 228611, Note_on_c, 0, 65, 64
1, 228644, Note_off_c, 0, 50, 63
1, 228657, Note_off_c, 0, 65, 64
1, 228681, Note_on_c, 0, 62, 56
1, 228682, Note_on_c, 0, 57, 50
1, 228731, Note_off_c, 0, 57, 56
1, 228745, Note_off_c, 0, 62, 62
1, 228752, Note_on_c, 0, 50, 49
1, 228761, Note_on_c, 0, 65, 63
1, 228783, Note_off_c, 0, 50, 59
1, 228797, Note_off_c, 0, 65, 65
1, 228814, Note_on_c, 0, 62, 56
1, 228825, Note_on_c, 0, 57, 50
1, 228873, Note_off_c, 0, 57, 54
1, 228883, Note_off_c, 0, 62, 63
1, 228887, Note_on_c, 0, 50, 52
1, 228897, Note_on_c, 0, 65, 67
1, 228933, Note_off_c, 0, 50, 61
1, 228942, Note_off_c, 0, 65, 61
1, 228960, Note_on_c, 0, 62, 57
1, 228976, Note_on_c, 0, 57, 42
1, 229013, Note_off_c, 0, 62, 61
1, 229016, Note_off_c, 0, 57, 49
1, 229035, Note_on_c, 0, 65, 64
1, 229047, Note_on_c, 0, 50, 44
1, 229076, Note_off_c, 0, 50, 58
1, 229079, Note_off_c, 0, 65, 62
1, 229093, Note_on_c, 0, 62, 64
1, 229104, Note_on_c, 0, 57, 53
1, 229144, Note_off_c, 0, 62, 56
1, 229150, Note_off_c, 0, 57, 57
1, 229172, Note_on_c, 0, 50, 55
1, 229174, Note_on_c, 0, 68, 66
1, 229206, Note_off_c, 0, 50, 65
1, 229232, Note_off_c, 0, 68, 58
1, 229244, Note_on_c, 0, 64, 57
1, 229256, Note_on_c, 0, 59, 47
1, 229284, Note_off_c, 0, 64, 60
1, 229296, Note_off_c, 0, 59, 51
1, 229308, Note_on_c, 0, 68, 61
1, 229311, Note_on_c, 0, 50, 55
1, 229344, Note_off_c, 0, 50, 65
1, 229360, Note_off_c, 0, 68, 59
1, 229381, Note_on_c, 0, 64, 61
1, 229384, Note_on_c, 0, 59, 53
1, 229416, Note_off_c, 0, 59, 58
1, 229439, Note_off_c, 0, 64, 52
1, 229464, Note_on_c, 0, 69, 71
1, 229472, Note_on_c, 0, 48, 60
1, 229472, Note_on_c, 0, 52, 56
1, 229514, Note_off_c, 0, 52, 63
1, 229516, Note_off_c, 0, 48, 62
1, 229556, Note_on_c, 0, 57, 64
1, 229603, Note_off_c, 0, 57, 50
1, 229630, Note_on_c, 0, 48, 58
1, 229632, Note_on_c, 0, 52, 54
1, 229668, Note_off_c, 0, 48, 64
1, 229669, Note_off_c, 0, 52, 66
1, 229711, Note_on_c, 0, 57, 56
1, 229756, Note_off_c, 0, 57, 47
1, 229769, Note_on_c, 0, 52, 54
1, 229770, Note_on_c, 0, 48, 58
1, 229808, Note_off_c, 0, 52, 65
1, 229813, Note_off_c, 0, 48, 60
1, 229842, Note_on_c, 0, 57, 57
1, 229887, Note_off_c, 0, 69, 56
1, 229912, Note_off_c, 0, 57, 54
1, 229917, Note_on_c, 0, 72, 63
1, 229919, Note_on_c, 0, 48, 55
1, 229921, Note_on_c, 0, 52, 50
1, 229960, Note_off_c, 0, 48, 61
1, 229961, Note_off_c, 0, 52, 64
1, 229994, Note_on_c, 0, 71, 63
1, 230000, Note_on_c, 0, 57, 47
1, 230002, Note_off_c, 0, 72, 56
1, 230053, Note_off_c, 0, 57, 57
1, 230062, Note_on_c, 0, 48, 53
1, 230065, Note_on_c, 0, 52, 52
1, 230071, Note_on_c, 0, 69, 63
1, 230080, Note_off_c, 0, 71, 63
1, 230101, Note_off_c, 0, 48, 62
1, 230104, Note_off_c, 0, 52, 64
1, 230135, Note_off_c, 0, 69, 63
1, 230149, Note_on_c, 0, 57, 54
1, 230198, Note_off_c, 0, 57, 57
1, 230206, Note_on_c, 0, 48, 54
1, 230211, Note_on_c, 0, 52, 52
1, 230247, Note_off_c, 0, 48, 63
1, 230251, Note_off_c, 0, 52, 63
1, 230280, Note_on_c, 0, 57, 55
1, 230332, Note_off_c, 0, 57, 52
1, 230346, Note_on_c, 0, 52, 57
1, 230352, Note_on_c, 0, 48, 54
1, 230384, Note_off_c, 0, 52, 63
1, 230387, Note_off_c, 0, 48, 65
1, 230420, Note_on_c, 0, 57, 57
1, 230477, Note_off_c, 0, 57, 55
1, 230484, Note_on_c, 0, 48, 57
1, 230488, Note_on_c, 0, 52, 55
1, 230526, Note_off_c, 0, 48, 60
1, 230528, Note_off_c, 0, 52, 62
1, 230551, Note_on_c, 0, 57, 50
1, 230617, Note_off_c, 0, 57, 45
1, 230636, Note_on_c, 0, 48, 52
1, 230644, Note_on_c, 0, 52, 48
1, 230651, Note_on_c, 0, 87, 61
1, 230671, Note_on_c, 0, 88, 53
1, 230687, Note_off_c, 0, 48, 61
1, 230691, Note_off_c, 0, 52, 63
1, 230707, Note_off_c, 0, 87, 60
1, 230721, Note_on_c, 0, 57, 56
1, 230771, Note_off_c, 0, 57, 49
1, 230796, Note_on_c, 0, 48, 51
1, 230800, Note_on_c, 0, 52, 49
1, 230831, Note_off_c, 0, 48, 63
1, 230841, Note_off_c, 0, 52, 64
1, 230876, Note_on_c, 0, 57, 57
1, 230918, Note_off_c, 0, 57, 54
1, 230949, Note_on_c, 0, 48, 49
1, 230957, Note_on_c, 0, 52, 49
1, 230993, Note_off_c, 0, 48, 60
1, 230998, Note_off_c, 0, 52, 63
1, 231023, Note_on_c, 0, 57, 54
1, 231033, Note_off_c, 0, 88, 50
1, 231034, Note_on_c, 0, 86, 63
1, 231077, Note_off_c, 0, 57, 51
1, 231096, Note_on_c, 0, 48, 54
1, 231104, Note_on_c, 0, 52, 49
1, 231106, Note_on_c, 0, 84, 59
1, 231124, Note_off_c, 0, 86, 56
1, 231147, Note_off_c, 0, 48, 59
1, 231147, Note_off_c, 0, 52, 63
1, 231177, Note_on_c, 0, 83, 60
1, 231190, Note_off_c, 0, 84, 58
1, 231191, Note_on_c, 0, 57, 45
1, 231231, Note_off_c, 0, 57, 52
1, 231247, Note_off_c, 0, 83, 63
1, 231253, Note_on_c, 0, 52, 52
1, 231255, Note_on_c, 0, 81, 65
1, 231255, Note_on_c, 0, 48, 50
1, 231291, Note_off_c, 0, 48, 58
1, 231298, Note_off_c, 0, 52, 63
1, 231325, Note_on_c, 0, 57, 54
1, 231371, Note_off_c, 0, 57, 55
1, 231398, Note_on_c, 0, 48, 48
1, 231399, Note_on_c, 0, 52, 51
1, 231410, Note_off_c, 0, 81, 48
1, 231437, Note_off_c, 0, 48, 56
1, 231439, Note_off_c, 0, 52, 63
1, 231469, Note_on_c, 0, 57, 60
1, 231504, Note_off_c, 0, 57, 57
1, 231538, Note_on_c, 0, 48, 47
1, 231542, Note_on_c, 0, 52, 50
1, 231574, Note_off_c, 0, 52, 62
1, 231582, Note_off_c, 0, 48, 54
1, 231593, Note_on_c, 0, 57, 51
1, 231644, Note_off_c, 0, 57, 58
1, 231675, Note_on_c, 0, 52, 50
1, 231685, Note_on_c, 0, 48, 48
1, 231713, Note_off_c, 0, 52, 66
1, 231720, Note_off_c, 0, 48, 55
1, 231733, Note_on_c, 0, 57, 67
1, 231769, Note_off_c, 0, 57, 57
1, 231841, Note_on_c, 0, 83, 55
1, 231859, Note_on_c, 0, 57, 39
1, 231863, Note_on_c, 0, 53, 47
1, 231875, Note_on_c, 0, 84, 57
1, 231908, Note_off_c, 0, 83, 65
1, 231909, Note_off_c, 0, 53, 63
1, 231913, Note_off_c, 0, 57, 61
1, 231943, Note_on_c, 0, 60, 58
1, 231985, Note_off_c, 0, 60, 51
1, 232020, Note_on_c, 0, 53, 44
1, 232021, Note_on_c, 0, 57, 53
1, 232059, Note_off_c, 0, 53, 55
1, 232062, Note_off_c, 0, 57, 61
1, 232084, Note_on_c, 0, 60, 54
1, 232140, Note_off_c, 0, 60, 54
1, 232159, Note_on_c, 0, 53, 50
1, 232162, Note_on_c, 0, 57, 49
1, 232209, Note_off_c, 0, 53, 59
1, 232218, Note_off_c, 0, 57, 55
1, 232225, Note_on_c, 0, 83, 60
1, 232238, Note_off_c, 0, 84, 40
1, 232249, Note_on_c, 0, 60, 57
1, 232295, Note_off_c, 0, 60, 58
1, 232322, Note_on_c, 0, 81, 63
1, 232323, Note_on_c, 0, 53, 42
1, 232327, Note_on_c, 0, 57, 50
1, 232340, Note_off_c, 0, 83, 61
1, 232343, Control_c, 0, 67, 127
1, 232358, Note_off_c, 0, 53, 52
1, 232358, Control_c, 0, 67, 126
1, 232376, Note_off_c, 0, 57, 59
1, 232381, Control_c, 0, 67, 125
1, 232388, Note_off_c, 0, 81, 63
1, 232393, Note_on_c, 0, 80, 66
1, 232395, Control_c, 0, 67, 125
1, 232396, Note_on_c, 0, 60, 61
1, 232410, Control_c, 0, 67, 123
1, 232425, Control_c, 0, 67, 121
1, 232440, Control_c, 0, 67, 116
1, 232449, Note_off_c, 0, 60, 56
1, 232455, Control_c, 0, 67, 111
1, 232468, Note_on_c, 0, 53, 51
1, 232470, Control_c, 0, 67, 107
1, 232474, Note_on_c, 0, 57, 53
1, 232474, Note_on_c, 0, 81, 70
1, 232477, Note_off_c, 0, 80, 61
1, 232484, Control_c, 0, 67, 104
1, 232499, Control_c, 0, 67, 102
1, 232514, Note_off_c, 0, 53, 61
1, 232514, Control_c, 0, 67, 99
1, 232516, Note_off_c, 0, 57, 59
1, 232528, Control_c, 0, 67, 96
1, 232543, Control_c, 0, 67, 93
1, 232554, Note_on_c, 0, 62, 66
1, 232557, Control_c, 0, 67, 90
1, 232572, Control_c, 0, 67, 86
1, 232587, Control_c, 0, 67, 80
1, 232602, Control_c, 0, 67, 73
1, 232614, Note_off_c, 0, 62, 48
1, 232617, Control_c, 0, 67, 64
1, 232626, Note_on_c, 0, 53, 51
1, 232626, Note_on_c, 0, 57, 57
1, 232632, Control_c, 0, 67, 55
1, 232647, Control_c, 0, 67, 47
1, 232662, Control_c, 0, 67, 39
1, 232669, Note_off_c, 0, 53, 64
1, 232671, Note_off_c, 0, 57, 61
1, 232677, Control_c, 0, 67, 30
1, 232692, Control_c, 0, 67, 25
1, 232705, Note_on_c, 0, 62, 68
1, 232706, Control_c, 0, 67, 25
1, 232724, Note_off_c, 0, 81, 61
1, 232751, Control_c, 0, 67, 24
1, 232766, Note_off_c, 0, 62, 54
1, 232766, Control_c, 0, 67, 23
1, 232775, Note_on_c, 0, 53, 56
1, 232775, Note_on_c, 0, 57, 65
1, 232781, Control_c, 0, 67, 24
1, 232811, Note_off_c, 0, 57, 61
1, 232814, Note_off_c, 0, 53, 67
1, 232844, Note_on_c, 0, 62, 72
1, 232870, Control_c, 0, 67, 24
1, 232888, Note_off_c, 0, 62, 58
1, 232899, Control_c, 0, 67, 24
1, 232909, Note_on_c, 0, 57, 62
1, 232909, Note_on_c, 0, 53, 60
1, 232929, Control_c, 0, 67, 23
1, 232947, Note_off_c, 0, 53, 65
1, 232966, Note_off_c, 0, 57, 56
1, 232973, Control_c, 0, 67, 22
1, 232975, Note_on_c, 0, 62, 80
1, 232988, Control_c, 0, 67, 19
1, 233003, Control_c, 0, 67, 14
1, 233017, Control_c, 0, 67, 0
1, 233027, Note_off_c, 0, 62, 57
1, 233052, Note_on_c, 0, 53, 56
1, 233061, Note_on_c, 0, 83, 76
1, 233063, Note_on_c, 0, 57, 66
1, 233073, Note_on_c, 0, 84, 83
1, 233104, Note_off_c, 0, 53, 62
1, 233112, Note_off_c, 0, 83, 66
1, 233131, Note_off_c, 0, 57, 54
1, 233142, Note_on_c, 0, 63, 76
1, 233204, Note_off_c, 0, 63, 58
1, 233228, Note_on_c, 0, 53, 59
1, 233229, Note_on_c, 0, 57, 59
1, 233259, Note_off_c, 0, 53, 66
1, 233270, Note_off_c, 0, 57, 58
1, 233295, Note_on_c, 0, 63, 74
1, 233326, Note_off_c, 0, 63, 66
1, 233359, Note_on_c, 0, 53, 58
1, 233374, Note_on_c, 0, 57, 56
1, 233398, Note_off_c, 0, 53, 66
1, 233413, Note_off_c, 0, 57, 60
1, 233426, Note_on_c, 0, 83, 77
1, 233429, Note_on_c, 0, 63, 65
1, 233433, Note_off_c, 0, 84, 56
1, 233468, Note_off_c, 0, 63, 61
1, 233502, Note_on_c, 0, 81, 88
1, 233508, Note_on_c, 0, 57, 57
1, 233517, Note_on_c, 0, 53, 44
1, 233525, Note_off_c, 0, 83, 64
1, 233550, Note_off_c, 0, 57, 60
1, 233574, Note_on_c, 0, 63, 67
1, 233574, Note_off_c, 0, 81, 64
1, 233576, Note_off_c, 0, 53, 59
1, 233577, Note_on_c, 0, 80, 82
1, 233610, Note_off_c, 0, 63, 63
1, 233646, Note_on_c, 0, 53, 39
1, 233655, Note_on_c, 0, 81, 81
1, 233657, Note_off_c, 0, 80, 61
1, 233660, Note_on_c, 0, 57, 48
1, 233688, Note_off_c, 0, 57, 61
1, 233695, Note_off_c, 0, 53, 64
1, 233724, Note_on_c, 0, 60, 81
1, 233731, Note_on_c, 0, 80, 90
1, 233732, Note_off_c, 0, 81, 64
1, 233771, Note_off_c, 0, 60, 63
1, 233785, Note_off_c, 0, 80, 66
1, 233796, Note_on_c, 0, 81, 84
1, 233806, Note_on_c, 0, 53, 76
1, 233879, Note_on_c, 0, 83, 82
1, 233880, Note_off_c, 0, 81, 63
1, 233881, Note_on_c, 0, 57, 85
1, 233890, Note_off_c, 0, 53, 64
1, 233946, Note_off_c, 0, 83, 62
1, 233952, Note_on_c, 0, 53, 77
1, 233957, Note_on_c, 0, 84, 90
1, 233967, Note_off_c, 0, 57, 63
1, 234027, Note_on_c, 0, 85, 92
1, 234035, Note_on_c, 0, 57, 85
1, 234035, Note_off_c, 0, 84, 62
1, 234040, Note_off_c, 0, 53, 67
1, 234092, Note_off_c, 0, 85, 63
1, 234100, Note_on_c, 0, 86, 95
1, 234102, Note_on_c, 0, 53, 76
1, 234115, Note_off_c, 0, 57, 62
1, 234175, Note_on_c, 0, 87, 99
1, 234176, Note_on_c, 0, 57, 82
1, 234192, Note_off_c, 0, 53, 66
1, 234194, Note_off_c, 0, 86, 66
1, 234236, Note_off_c, 0, 87, 65
1, 234369, Note_off_c, 0, 57, 55
1, 234402, Note_on_c, 0, 52, 52
1, 234404, Note_on_c, 0, 88, 75
1, 234497, Note_off_c, 0, 52, 57
1, 234502, Note_on_c, 0, 56, 53
1, 234561, Note_off_c, 0, 56, 62
1, 234579, Note_on_c, 0, 59, 52
1, 234650, Note_off_c, 0, 59, 57
1, 234651, Note_on_c, 0, 64, 53
1, 234716, Note_off_c, 0, 64, 47
1, 234731, Note_on_c, 0, 52, 54
1, 234780, Note_off_c, 0, 88, 53
1, 234790, Note_on_c, 0, 56, 52
1, 234792, Note_on_c, 0, 86, 66
1, 234808, Note_off_c, 0, 52, 56
1, 234850, Note_off_c, 0, 56, 61
1, 234865, Note_on_c, 0, 84, 70
1, 234865, Note_off_c, 0, 86, 61
1, 234868, Note_on_c, 0, 59, 53
1, 234917, Note_off_c, 0, 59, 57
1, 234924, Note_off_c, 0, 84, 64
1, 234939, Note_on_c, 0, 83, 68
1, 234944, Note_on_c, 0, 64, 58
1, 234984, Note_off_c, 0, 64, 58
1, 234992, Note_off_c, 0, 83, 62
1, 235005, Note_on_c, 0, 84, 76
1, 235026, Note_on_c, 0, 52, 46
1, 235068, Note_off_c, 0, 52, 63
1, 235069, Note_off_c, 0, 84, 64
1, 235071, Note_on_c, 0, 83, 72
1, 235082, Note_on_c, 0, 57, 47
1, 235121, Note_off_c, 0, 83, 65
1, 235128, Note_off_c, 0, 57, 61
1, 235139, Note_on_c, 0, 60, 65
1, 235141, Note_on_c, 0, 81, 73
1, 235200, Note_off_c, 0, 81, 59
1, 235201, Note_off_c, 0, 60, 60
1, 235214, Note_on_c, 0, 64, 60
1, 235214, Note_on_c, 0, 80, 73
1, 235252, Note_off_c, 0, 64, 61
1, 235271, Note_off_c, 0, 80, 62
1, 235285, Note_on_c, 0, 81, 74
1, 235286, Note_on_c, 0, 52, 55
1, 235335, Note_off_c, 0, 52, 61
1, 235349, Note_off_c, 0, 81, 60
1, 235355, Note_on_c, 0, 57, 47
1, 235355, Note_on_c, 0, 84, 76
1, 235408, Note_off_c, 0, 57, 62
1, 235423, Note_on_c, 0, 60, 55
1, 235430, Note_on_c, 0, 83, 73
1, 235440, Note_off_c, 0, 84, 60
1, 235476, Note_off_c, 0, 60, 54
1, 235482, Note_off_c, 0, 83, 66
1, 235494, Note_on_c, 0, 81, 75
1, 235496, Note_on_c, 0, 64, 57
1, 235530, Note_off_c, 0, 64, 64
1, 235544, Note_off_c, 0, 81, 58
1, 235563, Note_on_c, 0, 52, 66
1, 235569, Note_on_c, 0, 80, 79
1, 235631, Note_on_c, 0, 78, 77
1, 235637, Note_off_c, 0, 80, 64
1, 235638, Note_off_c, 0, 52, 54
1, 235652, Note_on_c, 0, 59, 50
1, 235695, Note_off_c, 0, 78, 66
1, 235698, Note_off_c, 0, 59, 62
1, 235699, Note_on_c, 0, 76, 74
1, 235708, Note_on_c, 0, 62, 61
1, 235754, Note_off_c, 0, 76, 62
1, 235759, Note_off_c, 0, 62, 58
1, 235771, Note_on_c, 0, 64, 64
1, 235771, Note_on_c, 0, 75, 76
1, 235810, Note_off_c, 0, 64, 62
1, 235819, Note_off_c, 0, 75, 61
1, 235843, Note_on_c, 0, 76, 70
1, 235851, Note_on_c, 0, 52, 59
1, 235869, Note_off_c, 0, 76, 62
1, 235901, Note_off_c, 0, 52, 52
1, 235911, Note_on_c, 0, 78, 72
1, 235929, Note_on_c, 0, 59, 50
1, 235959, Note_off_c, 0, 78, 64
1, 235971, Note_off_c, 0, 59, 63
1, 235982, Note_on_c, 0, 62, 54
1, 235983, Note_on_c, 0, 79, 68
1, 236028, Note_off_c, 0, 62, 62
1, 236042, Note_on_c, 0, 64, 57
1, 236042, Note_off_c, 0, 79, 61
1, 236050, Note_on_c, 0, 80, 73
1, 236080, Note_off_c, 0, 64, 63
1, 236119, Note_off_c, 0, 80, 62
1, 236123, Note_on_c, 0, 81, 71
1, 236133, Note_on_c, 0, 52, 55
1, 236185, Note_off_c, 0, 81, 63
1, 236189, Note_off_c, 0, 52, 55
1, 236194, Note_on_c, 0, 80, 71
1, 236199, Note_on_c, 0, 57, 49
1, 236237, Note_off_c, 0, 80, 63
1, 236246, Note_on_c, 0, 81, 71
1, 236248, Note_off_c, 0, 57, 60
1, 236259, Note_on_c, 0, 60, 63
1, 236295, Note_off_c, 0, 81, 52
1, 236303, Note_off_c, 0, 60, 59
1, 236319, Note_on_c, 0, 64, 54
1, 236322, Note_on_c, 0, 83, 64
1, 236370, Note_off_c, 0, 64, 54
1, 236374, Note_off_c, 0, 83, 65
1, 236389, Note_on_c, 0, 84, 69
1, 236394, Note_on_c, 0, 52, 54
1, 236435, Note_off_c, 0, 84, 58
1, 236440, Note_off_c, 0, 52, 59
1, 236453, Note_on_c, 0, 85, 65
1, 236457, Note_on_c, 0, 57, 49
1, 236493, Note_off_c, 0, 85, 61
1, 236514, Note_off_c, 0, 57, 60
1, 236526, Note_on_c, 0, 86, 70
1, 236528, Note_on_c, 0, 60, 54
1, 236568, Note_off_c, 0, 86, 54
1, 236580, Note_off_c, 0, 60, 59
1, 236594, Note_on_c, 0, 64, 56
1, 236594, Note_on_c, 0, 87, 65
1, 236643, Note_off_c, 0, 87, 61
1, 236662, Note_on_c, 0, 88, 66
1, 236665, Note_off_c, 0, 64, 53
1, 236679, Note_on_c, 0, 52, 49
1, 236724, Note_off_c, 0, 88, 64
1, 236735, Note_off_c, 0, 52, 56
1, 236740, Note_on_c, 0, 87, 64
1, 236746, Note_on_c, 0, 56, 52
1, 236778, Note_off_c, 0, 87, 64
1, 236802, Note_off_c, 0, 56, 64
1, 236803, Note_on_c, 0, 88, 63
1, 236815, Note_on_c, 0, 59, 55
1, 236871, Note_off_c, 0, 88, 64
1, 236879, Note_on_c, 0, 87, 71
1, 236883, Note_off_c, 0, 59, 58
1, 236891, Note_on_c, 0, 64, 52
1, 236924, Note_off_c, 0, 87, 63
1, 236942, Note_on_c, 0, 88, 76
1, 236963, Note_on_c, 0, 52, 57
1, 236964, Note_off_c, 0, 64, 54
1, 237017, Note_on_c, 0, 86, 76
1, 237031, Note_on_c, 0, 56, 54
1, 237041, Note_off_c, 0, 52, 49
1, 237048, Note_off_c, 0, 88, 65
1, 237088, Note_on_c, 0, 84, 79
1, 237091, Note_off_c, 0, 56, 63
1, 237098, Note_off_c, 0, 86, 61
1, 237106, Note_on_c, 0, 59, 56
1, 237151, Note_off_c, 0, 84, 65
1, 237157, Note_off_c, 0, 59, 61
1, 237158, Note_on_c, 0, 83, 72
1, 237166, Note_on_c, 0, 64, 52
1, 237219, Note_off_c, 0, 64, 52
1, 237223, Note_off_c, 0, 83, 63
1, 237231, Note_on_c, 0, 84, 80
1, 237240, Note_on_c, 0, 52, 50
1, 237300, Note_on_c, 0, 83, 75
1, 237300, Note_off_c, 0, 52, 53
1, 237304, Note_off_c, 0, 84, 65
1, 237315, Note_on_c, 0, 57, 48
1, 237354, Note_off_c, 0, 83, 67
1, 237363, Note_off_c, 0, 57, 61
1, 237367, Note_on_c, 0, 81, 77
1, 237374, Note_on_c, 0, 60, 60
1, 237422, Note_off_c, 0, 60, 58
1, 237426, Note_off_c, 0, 81, 60
1, 237434, Note_on_c, 0, 64, 62
1, 237445, Note_on_c, 0, 80, 74
1, 237489, Note_off_c, 0, 64, 55
1, 237501, Note_off_c, 0, 80, 65
1, 237507, Note_on_c, 0, 81, 80
1, 237516, Note_on_c, 0, 52, 56
1, 237562, Note_off_c, 0, 52, 60
1, 237573, Note_off_c, 0, 81, 58
1, 237578, Note_on_c, 0, 57, 45
1, 237579, Note_on_c, 0, 84, 83
1, 237639, Note_off_c, 0, 57, 61
1, 237644, Note_on_c, 0, 60, 63
1, 237658, Note_on_c, 0, 83, 77
1, 237681, Note_off_c, 0, 84, 61
1, 237707, Note_off_c, 0, 60, 59
1, 237717, Note_on_c, 0, 64, 66
1, 237717, Note_off_c, 0, 83, 67
1, 237725, Note_on_c, 0, 81, 75
1, 237761, Note_off_c, 0, 64, 59
1, 237778, Note_off_c, 0, 81, 60
1, 237799, Note_on_c, 0, 80, 81
1, 237800, Note_on_c, 0, 52, 66
1, 237863, Note_on_c, 0, 78, 81
1, 237867, Note_off_c, 0, 52, 56
1, 237872, Note_off_c, 0, 80, 63
1, 237879, Note_on_c, 0, 59, 47
1, 237923, Note_off_c, 0, 59, 63
1, 237931, Note_on_c, 0, 62, 59
1, 237935, Note_off_c, 0, 78, 65
1, 237935, Note_on_c, 0, 76, 71
1, 237987, Note_off_c, 0, 62, 59
1, 237992, Note_off_c, 0, 76, 63
1, 237995, Note_on_c, 0, 64, 58
1, 238008, Note_on_c, 0, 75, 72
1, 238029, Note_off_c, 0, 64, 63
1, 238056, Note_off_c, 0, 75, 61
1, 238070, Note_on_c, 0, 52, 58
1, 238078, Note_on_c, 0, 76, 69
1, 238104, Note_off_c, 0, 76, 66
1, 238149, Note_off_c, 0, 52, 41
1, 238153, Note_on_c, 0, 78, 68
1, 238157, Note_on_c, 0, 59, 46
1, 238188, Note_off_c, 0, 78, 64
1, 238202, Note_off_c, 0, 59, 60
1, 238214, Note_on_c, 0, 62, 57
1, 238223, Note_on_c, 0, 79, 68
1, 238262, Note_off_c, 0, 62, 62
1, 238275, Note_off_c, 0, 79, 58
1, 238277, Note_on_c, 0, 64, 52
1, 238295, Note_on_c, 0, 80, 63
1, 238317, Note_off_c, 0, 64, 62
1, 238346, Note_off_c, 0, 80, 60
1, 238371, Note_on_c, 0, 52, 49
1, 238372, Note_on_c, 0, 81, 66
1, 238424, Note_off_c, 0, 81, 63
1, 238433, Note_off_c, 0, 52, 55
1, 238438, Note_on_c, 0, 80, 66
1, 238449, Note_on_c, 0, 57, 39
1, 238469, Note_off_c, 0, 80, 64
1, 238483, Note_off_c, 0, 57, 59
1, 238494, Note_on_c, 0, 81, 62
1, 238495, Note_on_c, 0, 60, 56
1, 238534, Note_off_c, 0, 81, 58
1, 238546, Note_off_c, 0, 60, 58
1, 238556, Note_on_c, 0, 64, 54
1, 238560, Note_on_c, 0, 83, 65
1, 238597, Note_off_c, 0, 64, 61
1, 238615, Note_off_c, 0, 83, 62
1, 238641, Note_on_c, 0, 84, 68
1, 238642, Note_on_c, 0, 52, 50
1, 238677, Note_off_c, 0, 84, 61
1, 238691, Note_off_c, 0, 52, 59
1, 238700, Note_on_c, 0, 85, 63
1, 238710, Note_on_c, 0, 57, 43
1, 238733, Note_off_c, 0, 85, 61
1, 238764, Note_off_c, 0, 57, 62
1, 238766, Note_on_c, 0, 60, 58
1, 238776, Note_on_c, 0, 86, 69
1, 238826, Note_off_c, 0, 60, 58
1, 238833, Note_off_c, 0, 86, 57
1, 238844, Note_on_c, 0, 64, 50
1, 238844, Note_on_c, 0, 87, 58
1, 238874, Note_off_c, 0, 87, 68
1, 238893, Note_off_c, 0, 64, 51
1, 238907, Note_on_c, 0, 88, 70
1, 238909, Note_on_c, 0, 52, 48
1, 238963, Note_off_c, 0, 52, 57
1, 238963, Control_c, 0, 64, 17
1, 238978, Note_off_c, 0, 88, 64
1, 238978, Control_c, 0, 64, 38
1, 238978, Note_on_c, 0, 56, 50
1, 238983, Note_on_c, 0, 83, 68
1, 238993, Control_c, 0, 64, 52
1, 239008, Control_c, 0, 64, 61
1, 239023, Control_c, 0, 64, 64
1, 239032, Note_off_c, 0, 56, 64
1, 239038, Note_on_c, 0, 59, 54
1, 239043, Note_off_c, 0, 83, 64
1, 239053, Control_c, 0, 64, 64
1, 239055, Note_on_c, 0, 80, 68
1, 239068, Control_c, 0, 64, 66
1, 239075, Note_off_c, 0, 59, 62
1, 239083, Control_c, 0, 64, 69
1, 239087, Note_off_c, 0, 80, 61
1, 239098, Control_c, 0, 64, 71
1, 239112, Note_on_c, 0, 64, 56
1, 239121, Note_on_c, 0, 76, 62
1, 239149, Control_c, 0, 64, 67
1, 239164, Control_c, 0, 64, 60
1, 239169, Note_off_c, 0, 76, 53
1, 239169, Note_off_c, 0, 64, 58
1, 239179, Control_c, 0, 64, 45
1, 239192, Note_on_c, 0, 63, 66
1, 239193, Note_on_c, 0, 75, 70
1, 239193, Control_c, 0, 64, 0
1, 239230, Note_off_c, 0, 75, 62
1, 239241, Note_off_c, 0, 63, 59
1, 239262, Note_on_c, 0, 64, 63
1, 239268, Note_on_c, 0, 76, 67
1, 239300, Note_off_c, 0, 76, 51
1, 239311, Note_off_c, 0, 64, 60
1, 239328, Note_on_c, 0, 60, 65
1, 239336, Note_on_c, 0, 81, 75
1, 239395, Note_on_c, 0, 57, 63
1, 239395, Note_off_c, 0, 60, 63
1, 239397, Note_off_c, 0, 81, 62
1, 239402, Note_on_c, 0, 84, 71
1, 239441, Note_off_c, 0, 57, 61
1, 239463, Note_on_c, 0, 88, 86
1, 239465, Note_on_c, 0, 52, 65
1, 239473, Note_off_c, 0, 84, 64
1, 239504, Control_c, 0, 64, 14
1, 239519, Control_c, 0, 64, 39
1, 239533, Control_c, 0, 64, 59
1, 239536, Note_on_c, 0, 56, 67
1, 239537, Note_on_c, 0, 83, 71
1, 239548, Control_c, 0, 64, 73
1, 239553, Note_off_c, 0, 88, 56
1, 239563, Note_off_c, 0, 52, 57
1, 239563, Control_c, 0, 64, 78
1, 239591, Note_on_c, 0, 59, 65
1, 239592, Control_c, 0, 64, 78
1, 239593, Note_off_c, 0, 56, 65
1, 239607, Control_c, 0, 64, 80
1, 239609, Note_on_c, 0, 80, 75
1, 239610, Note_off_c, 0, 83, 65
1, 239622, Control_c, 0, 64, 83
1, 239637, Note_off_c, 0, 59, 59
1, 239637, Control_c, 0, 64, 84
1, 239661, Note_off_c, 0, 80, 62
1, 239665, Note_on_c, 0, 64, 62
1, 239665, Note_on_c, 0, 76, 68
1, 239712, Control_c, 0, 64, 80
1, 239725, Note_off_c, 0, 64, 57
1, 239727, Control_c, 0, 64, 70
1, 239738, Note_on_c, 0, 63, 74
1, 239738, Note_on_c, 0, 75, 81
1, 239738, Note_off_c, 0, 76, 65
1, 239741, Control_c, 0, 64, 59
1, 239756, Control_c, 0, 64, 35
1, 239771, Control_c, 0, 64, 0
1, 239788, Note_off_c, 0, 75, 64
1, 239804, Note_off_c, 0, 63, 63
1, 239811, Note_on_c, 0, 76, 72
1, 239813, Note_on_c, 0, 64, 69
1, 239893, Note_off_c, 0, 64, 61
1, 239896, Note_on_c, 0, 81, 79
1, 239899, Note_off_c, 0, 76, 63
1, 239901, Note_on_c, 0, 60, 67
1, 239964, Note_on_c, 0, 57, 63
1, 239967, Note_on_c, 0, 84, 75
1, 239968, Note_off_c, 0, 81, 63
1, 239980, Note_off_c, 0, 60, 62
1, 240026, Note_off_c, 0, 57, 60
1, 240035, Note_on_c, 0, 52, 71
1, 240037, Note_on_c, 0, 88, 92
1, 240051, Note_off_c, 0, 84, 64
1, 240061, Control_c, 0, 64, 20
1, 240076, Control_c, 0, 64, 44
1, 240090, Control_c, 0, 64, 62
1, 240105, Control_c, 0, 64, 84
1, 240112, Note_on_c, 0, 83, 79
1, 240116, Note_on_c, 0, 56, 67
1, 240120, Control_c, 0, 64, 100
1, 240135, Control_c, 0, 64, 127
1, 240136, Note_off_c, 0, 88, 63
1, 240163, Note_off_c, 0, 52, 59
1, 240174, Note_on_c, 0, 59, 66
1, 240186, Note_on_c, 0, 80, 79
1, 240188, Note_off_c, 0, 56, 65
1, 240192, Note_off_c, 0, 83, 62
1, 240246, Note_on_c, 0, 76, 73
1, 240246, Note_off_c, 0, 80, 63
1, 240247, Note_on_c, 0, 64, 70
1, 240254, Note_off_c, 0, 59, 61
1, 240269, Control_c, 0, 64, 86
1, 240283, Control_c, 0, 64, 66
1, 240298, Control_c, 0, 64, 47
1, 240300, Note_off_c, 0, 76, 63
1, 240305, Note_off_c, 0, 64, 62
1, 240313, Control_c, 0, 64, 0
1, 240329, Note_on_c, 0, 88, 102
1, 240335, Note_on_c, 0, 52, 79
1, 240357, Control_c, 0, 64, 26
1, 240372, Control_c, 0, 64, 47
1, 240387, Control_c, 0, 64, 67
1, 240402, Control_c, 0, 64, 96
1, 240406, Note_on_c, 0, 57, 68
1, 240408, Note_on_c, 0, 84, 80
1, 240416, Control_c, 0, 64, 110
1, 240431, Control_c, 0, 64, 113
1, 240432, Note_off_c, 0, 88, 62
1, 240446, Control_c, 0, 64, 127
1, 240448, Note_off_c, 0, 52, 59
1, 240478, Note_on_c, 0, 60, 76
1, 240484, Note_off_c, 0, 84, 62
1, 240486, Note_on_c, 0, 81, 74
1, 240490, Note_off_c, 0, 57, 60
1, 240543, Note_on_c, 0, 76, 74
1, 240553, Note_off_c, 0, 81, 63
1, 240557, Note_on_c, 0, 64, 76
1, 240558, Note_off_c, 0, 60, 62
1, 240564, Control_c, 0, 64, 96
1, 240579, Control_c, 0, 64, 65
1, 240594, Control_c, 0, 64, 46
1, 240615, Note_off_c, 0, 76, 64
1, 240616, Control_c, 0, 64, 0
1, 240617, Note_off_c, 0, 64, 62
1, 240640, Note_on_c, 0, 52, 83
1, 240640, Note_on_c, 0, 88, 101
1, 240662, Control_c, 0, 64, 28
1, 240677, Control_c, 0, 64, 52
1, 240692, Control_c, 0, 64, 70
1, 240707, Control_c, 0, 64, 119
1, 240719, Note_on_c, 0, 56, 70
1, 240721, Control_c, 0, 64, 127
1, 240730, Note_on_c, 0, 83, 81
1, 240749, Note_off_c, 0, 88, 61
1, 240791, Note_off_c, 0, 52, 56
1, 240794, Note_on_c, 0, 59, 72
1, 240806, Note_on_c, 0, 80, 76
1, 240812, Note_off_c, 0, 56, 65
1, 240820, Note_off_c, 0, 83, 63
1, 240860, Note_on_c, 0, 64, 77
1, 240866, Note_on_c, 0, 76, 79
1, 240868, Note_off_c, 0, 80, 63
1, 240879, Note_off_c, 0, 59, 63
1, 240884, Control_c, 0, 64, 79
1, 240899, Control_c, 0, 64, 60
1, 240913, Control_c, 0, 64, 33
1, 240916, Note_off_c, 0, 64, 62
1, 240921, Note_off_c, 0, 76, 64
1, 240928, Control_c, 0, 64, 0
1, 240946, Note_on_c, 0, 52, 81
1, 240949, Note_on_c, 0, 88, 102
1, 240958, Control_c, 0, 64, 33
1, 240973, Control_c, 0, 64, 56
1, 240987, Control_c, 0, 64, 87
1, 241002, Control_c, 0, 64, 127
1, 241023, Note_on_c, 0, 57, 72
1, 241036, Note_on_c, 0, 84, 86
1, 241068, Note_off_c, 0, 88, 61
1, 241094, Note_on_c, 0, 60, 79
1, 241103, Note_off_c, 0, 52, 62
1, 241114, Note_on_c, 0, 81, 86
1, 241116, Note_off_c, 0, 57, 61
1, 241133, Note_off_c, 0, 84, 64
1, 241134, Note_on_c, 0, 83, 24
1, 241173, Note_off_c, 0, 83, 53
1, 241184, Note_on_c, 0, 64, 70
1, 241185, Note_on_c, 0, 76, 79
1, 241199, Note_off_c, 0, 81, 63
1, 241199, Note_off_c, 0, 60, 54
1, 241225, Control_c, 0, 64, 86
1, 241230, Note_off_c, 0, 64, 62
1, 241239, Control_c, 0, 64, 61
1, 241254, Control_c, 0, 64, 0
1, 241290, Note_on_c, 0, 88, 102
1, 241291, Note_on_c, 0, 64, 94
1, 241297, Note_on_c, 0, 56, 82
1, 241299, Note_on_c, 0, 52, 82
1, 241299, Note_on_c, 0, 59, 83
1, 241323, Note_off_c, 0, 76, 53
1, 241343, Control_c, 0, 64, 44
1, 241365, Control_c, 0, 64, 66
1, 241380, Control_c, 0, 64, 127
1, 241424, Note_on_c, 0, 83, 74
1, 241442, Note_off_c, 0, 88, 62
1, 241506, Note_on_c, 0, 80, 83
1, 241519, Note_off_c, 0, 83, 63
1, 241574, Note_off_c, 0, 80, 62
1, 241574, Control_c, 0, 64, 108
1, 241578, Note_on_c, 0, 76, 77
1, 241588, Control_c, 0, 64, 66
1, 241603, Control_c, 0, 64, 46
1, 241617, Note_off_c, 0, 56, 59
1, 241618, Control_c, 0, 64, 0
1, 241619, Note_off_c, 0, 76, 61
1, 241629, Note_off_c, 0, 52, 62
1, 241644, Note_off_c, 0, 59, 58
1, 241650, Note_on_c, 0, 83, 90
1, 241652, Note_off_c, 0, 64, 58
1, 241662, Control_c, 0, 64, 18
1, 241677, Control_c, 0, 64, 43
1, 241692, Control_c, 0, 64, 62
1, 241707, Control_c, 0, 64, 102
1, 241722, Control_c, 0, 64, 127
1, 241726, Note_on_c, 0, 80, 86
1, 241759, Note_off_c, 0, 83, 64
1, 241799, Note_on_c, 0, 76, 72
1, 241813, Note_off_c, 0, 80, 62
1, 241855, Control_c, 0, 64, 109
1, 241857, Note_off_c, 0, 76, 65
1, 241867, Note_on_c, 0, 71, 75
1, 241870, Control_c, 0, 64, 71
1, 241885, Control_c, 0, 64, 54
1, 241900, Control_c, 0, 64, 9
1, 241914, Control_c, 0, 64, 0
1, 241917, Note_off_c, 0, 71, 65
1, 241942, Note_on_c, 0, 80, 92
1, 241944, Control_c, 0, 64, 27
1, 241959, Control_c, 0, 64, 50
1, 241973, Control_c, 0, 64, 68
1, 241988, Control_c, 0, 64, 117
1, 242003, Control_c, 0, 64, 127
1, 242022, Note_on_c, 0, 76, 74
1, 242062, Note_off_c, 0, 80, 56
1, 242090, Note_on_c, 0, 71, 66
1, 242113, Note_off_c, 0, 76, 64
1, 242159, Control_c, 0, 64, 111
1, 242159, Note_off_c, 0, 71, 65
1, 242164, Note_on_c, 0, 68, 74
1, 242174, Control_c, 0, 64, 79
1, 242188, Control_c, 0, 64, 63
1, 242200, Note_off_c, 0, 68, 60
1, 242203, Control_c, 0, 64, 43
1, 242218, Control_c, 0, 64, 8
1, 242233, Control_c, 0, 64, 17
1, 242236, Note_on_c, 0, 76, 90
1, 242248, Control_c, 0, 64, 36
1, 242263, Control_c, 0, 64, 52
1, 242278, Control_c, 0, 64, 67
1, 242293, Control_c, 0, 64, 85
1, 242308, Control_c, 0, 64, 88
1, 242323, Control_c, 0, 64, 89
1, 242327, Note_on_c, 0, 71, 69
1, 242338, Control_c, 0, 64, 93
1, 242353, Control_c, 0, 64, 97
1, 242359, Note_off_c, 0, 76, 61
1, 242367, Control_c, 0, 64, 103
1, 242382, Control_c, 0, 64, 108
1, 242393, Note_on_c, 0, 68, 69
1, 242397, Control_c, 0, 64, 115
1, 242411, Control_c, 0, 64, 127
1, 242415, Note_off_c, 0, 71, 65
1, 242454, Note_off_c, 0, 68, 61
1, 242456, Control_c, 0, 64, 107
1, 242457, Note_on_c, 0, 64, 71
1, 242471, Control_c, 0, 64, 78
1, 242485, Control_c, 0, 64, 60
1, 242500, Note_off_c, 0, 64, 62
1, 242500, Control_c, 0, 64, 40
1, 242515, Control_c, 0, 64, 21
1, 242527, Note_on_c, 0, 71, 86
1, 242530, Control_c, 0, 64, 34
1, 242545, Control_c, 0, 64, 50
1, 242559, Control_c, 0, 64, 66
1, 242574, Control_c, 0, 64, 97
1, 242589, Control_c, 0, 64, 110
1, 242603, Note_on_c, 0, 68, 82
1, 242603, Control_c, 0, 64, 113
1, 242618, Control_c, 0, 64, 127
1, 242630, Note_off_c, 0, 71, 65
1, 242678, Note_on_c, 0, 64, 76
1, 242696, Note_off_c, 0, 68, 58
1, 242743, Note_on_c, 0, 59, 74
1, 242747, Note_off_c, 0, 64, 62
1, 242752, Control_c, 0, 64, 82
1, 242767, Control_c, 0, 64, 64
1, 242782, Control_c, 0, 64, 44
1, 242795, Note_off_c, 0, 59, 64
1, 242797, Control_c, 0, 64, 11
1, 242811, Control_c, 0, 64, 22
1, 242825, Note_on_c, 0, 68, 95
1, 242826, Control_c, 0, 64, 45
1, 242841, Control_c, 0, 64, 64
1, 242863, Control_c, 0, 64, 127
1, 242904, Note_on_c, 0, 64, 79
1, 242950, Note_off_c, 0, 68, 55
1, 242984, Note_on_c, 0, 59, 71
1, 243011, Note_off_c, 0, 64, 61
1, 243048, Note_on_c, 0, 56, 77
1, 243053, Note_off_c, 0, 59, 62
1, 243071, Control_c, 0, 64, 101
1, 243083, Note_off_c, 0, 56, 66
1, 243086, Control_c, 0, 64, 62
1, 243101, Control_c, 0, 64, 23
1, 243115, Control_c, 0, 64, 0
1, 243125, Note_on_c, 0, 64, 86
1, 243160, Control_c, 0, 64, 44
1, 243175, Control_c, 0, 64, 68
1, 243189, Control_c, 0, 64, 127
1, 243214, Note_on_c, 0, 59, 75
1, 243270, Note_off_c, 0, 64, 58
1, 243277, Note_on_c, 0, 56, 80
1, 243287, Poly_aftertouch_c, 0, 62, 127
1, 243314, Note_off_c, 0, 59, 55
1, 243321, Poly_aftertouch_c, 0, 62, 0
1, 243341, Note_on_c, 0, 52, 76
1, 243363, Note_off_c, 0, 56, 64
1, 243372, Note_off_c, 0, 52, 65
1, 243396, Control_c, 0, 64, 79
1, 243411, Control_c, 0, 64, 57
1, 243413, Note_on_c, 0, 40, 97
1, 243426, Control_c, 0, 64, 0
1, 243498, Note_on_c, 0, 44, 75
1, 243571, Note_on_c, 0, 47, 81
1, 243585, Note_off_c, 0, 40, 62
1, 243593, Note_off_c, 0, 44, 63
1, 243660, Note_on_c, 0, 52, 84
1, 243667, Note_off_c, 0, 47, 65
1, 243721, Note_off_c, 0, 52, 65
1, 243741, Note_on_c, 0, 40, 97
1, 243778, Note_off_c, 0, 40, 67
1, 243903, Note_on_c, 0, 52, 97
1, 243944, Note_off_c, 0, 52, 68
1, 244057, Note_on_c, 0, 42, 98
1, 244091, Note_off_c, 0, 42, 61
1, 244208, Note_on_c, 0, 54, 99
1, 244251, Note_off_c, 0, 54, 65
1, 244370, Note_on_c, 0, 44, 101
1, 244377, Note_on_c, 0, 76, 97
1, 244400, Note_off_c, 0, 44, 63
1, 244412, Note_off_c, 0, 76, 70
1, 244529, Note_on_c, 0, 56, 100
1, 244533, Note_on_c, 0, 64, 93
1, 244562, Note_off_c, 0, 56, 67
1, 244567, Note_off_c, 0, 64, 64
1, 244691, Note_on_c, 0, 78, 99
1, 244721, Note_off_c, 0, 78, 68
1, 244849, Note_on_c, 0, 66, 99
1, 244888, Note_off_c, 0, 66, 66
1, 244994, Note_on_c, 0, 44, 87
1, 244996, Note_on_c, 0, 80, 97
1, 245023, Note_off_c, 0, 44, 67
1, 245031, Note_off_c, 0, 80, 66
1, 245156, Note_on_c, 0, 56, 94
1, 245162, Note_on_c, 0, 68, 93
1, 245192, Note_off_c, 0, 56, 67
1, 245208, Note_off_c, 0, 68, 61
1, 245315, Note_on_c, 0, 45, 91
1, 245343, Note_off_c, 0, 45, 68
1, 245472, Note_on_c, 0, 57, 90
1, 245504, Note_off_c, 0, 57, 66
1, 245620, Note_on_c, 0, 80, 96
1, 245620, Note_on_c, 0, 47, 88
1, 245648, Note_off_c, 0, 47, 67
1, 245657, Note_off_c, 0, 80, 66
1, 245774, Note_on_c, 0, 68, 94
1, 245776, Note_on_c, 0, 59, 85
1, 245798, Note_off_c, 0, 59, 71
1, 245816, Note_off_c, 0, 68, 62
1, 245943, Note_on_c, 0, 81, 99
1, 245977, Note_off_c, 0, 81, 68
1, 246100, Note_on_c, 0, 69, 90
1, 246137, Note_off_c, 0, 69, 64
1, 246258, Note_on_c, 0, 83, 97
1, 246291, Note_off_c, 0, 83, 71
1, 246414, Note_on_c, 0, 71, 89
1, 246448, Note_off_c, 0, 71, 65
1, 246567, Note_on_c, 0, 85, 96
1, 246611, Note_off_c, 0, 85, 63
1, 246733, Note_on_c, 0, 73, 81
1, 246769, Note_off_c, 0, 73, 63
1, 246881, Note_on_c, 0, 47, 84
1, 246883, Note_on_c, 0, 86, 96
1, 246907, Note_off_c, 0, 47, 69
1, 246919, Note_off_c, 0, 86, 62
1, 247037, Note_on_c, 0, 74, 80
1, 247042, Note_on_c, 0, 59, 79
1, 247066, Note_off_c, 0, 59, 68
1, 247076, Note_off_c, 0, 74, 64
1, 247189, Note_on_c, 0, 49, 79
1, 247196, Note_on_c, 0, 86, 88
1, 247217, Note_off_c, 0, 49, 69
1, 247231, Note_off_c, 0, 86, 62
1, 247350, Note_on_c, 0, 76, 85
1, 247355, Note_on_c, 0, 61, 80
1, 247382, Note_off_c, 0, 61, 66
1, 247393, Note_off_c, 0, 76, 66
1, 247508, Note_on_c, 0, 86, 87
1, 247513, Note_on_c, 0, 50, 77
1, 247537, Note_off_c, 0, 50, 68
1, 247541, Note_off_c, 0, 86, 62
1, 247668, Note_on_c, 0, 78, 84
1, 247671, Note_on_c, 0, 62, 76
1, 247694, Note_off_c, 0, 62, 69
1, 247700, Note_off_c, 0, 78, 67
1, 247836, Note_on_c, 0, 86, 78
1, 247837, Note_on_c, 0, 52, 71
1, 247861, Note_off_c, 0, 86, 64
1, 247862, Note_off_c, 0, 52, 69
1, 247991, Note_on_c, 0, 80, 83
1, 248005, Note_on_c, 0, 64, 65
1, 248016, Note_off_c, 0, 80, 62
1, 248032, Note_off_c, 0, 64, 66
1, 248160, Note_on_c, 0, 86, 81
1, 248164, Note_on_c, 0, 54, 60
1, 248188, Note_off_c, 0, 86, 61
1, 248195, Note_off_c, 0, 54, 65
1, 248325, Note_on_c, 0, 66, 67
1, 248326, Note_on_c, 0, 81, 75
1, 248348, Note_off_c, 0, 81, 68
1, 248353, Note_off_c, 0, 66, 66
1, 248508, Note_on_c, 0, 56, 53
1, 248510, Note_on_c, 0, 86, 67
1, 248535, Note_off_c, 0, 56, 61
1, 248538, Note_off_c, 0, 86, 64
1, 248714, Note_on_c, 0, 83, 56
1, 248722, Note_on_c, 0, 68, 45
1, 248753, Note_off_c, 0, 83, 65
1, 248765, Note_off_c, 0, 68, 51
1, 249086, Note_on_c, 0, 85, 67
1, 249095, Note_on_c, 0, 64, 35
1, 249095, Note_on_c, 0, 57, 33
1, 249096, Note_on_c, 0, 81, 52
1, 249097, Note_on_c, 0, 61, 43
1, 249097, Note_on_c, 0, 73, 44
1, 249098, Note_on_c, 0, 69, 33
1, 249103, Note_on_c, 0, 76, 42
1, 249253, Control_c, 0, 64, 12
1, 249268, Control_c, 0, 64, 27
1, 249283, Control_c, 0, 64, 39
1, 249297, Control_c, 0, 64, 51
1, 249312, Control_c, 0, 64, 60
1, 249327, Control_c, 0, 64, 64
1, 249342, Control_c, 0, 64, 68
1, 249357, Control_c, 0, 64, 73
1, 249371, Control_c, 0, 64, 81
1, 249386, Control_c, 0, 64, 88
1, 249401, Control_c, 0, 64, 93
1, 249417, Control_c, 0, 64, 100
1, 249418, Note_off_c, 0, 69, 36
1, 249424, Note_off_c, 0, 64, 42
1, 249432, Control_c, 0, 64, 115
1, 249435, Note_off_c, 0, 57, 41
1, 249447, Control_c, 0, 64, 127
1, 249453, Note_off_c, 0, 85, 45
1, 249456, Note_off_c, 0, 61, 37
1, 249471, Note_off_c, 0, 81, 36
1, 249533, Note_off_c, 0, 73, 35
1, 249535, Note_off_c, 0, 76, 32
1, 249838, Control_c, 0, 64, 96
1, 249853, Control_c, 0, 64, 70
1, 249868, Control_c, 0, 64, 59
1, 249868, Note_on_c, 0, 83, 68
1, 249869, Note_on_c, 0, 52, 49
1, 249874, Note_on_c, 0, 64, 42
1, 249874, Note_on_c, 0, 80, 57
1, 249876, Note_on_c, 0, 56, 49
1, 249876, Note_on_c, 0, 71, 52
1, 249882, Control_c, 0, 64, 44
1, 249887, Note_on_c, 0, 59, 35
1, 249897, Control_c, 0, 64, 20
1, 249912, Note_on_c, 0, 76, 31
1, 249912, Control_c, 0, 64, 11
1, 249924, Note_off_c, 0, 71, 0
1, 249924, Note_on_c, 0, 71, 18
1, 249927, Control_c, 0, 64, 22
1, 249942, Control_c, 0, 64, 35
1, 249957, Control_c, 0, 64, 49
1, 249972, Control_c, 0, 64, 63
1, 249984, Note_off_c, 0, 52, 63
1, 249987, Control_c, 0, 64, 78
1, 250001, Control_c, 0, 64, 88
1, 250016, Control_c, 0, 64, 95
1, 250020, Note_off_c, 0, 56, 35
1, 250024, Note_off_c, 0, 59, 50
1, 250024, Note_off_c, 0, 64, 52
1, 250031, Control_c, 0, 64, 127
1, 250031, Note_off_c, 0, 76, 43
1, 250033, Note_off_c, 0, 83, 62
1, 250036, Note_off_c, 0, 80, 61
1, 250092, Note_off_c, 0, 71, 53
1, 250193, Control_c, 0, 64, 88
1, 250208, Control_c, 0, 64, 68
1, 250222, Note_on_c, 0, 81, 74
1, 250224, Control_c, 0, 64, 58
1, 250226, Note_on_c, 0, 61, 47
1, 250227, Note_on_c, 0, 57, 46
1, 250233, Note_on_c, 0, 69, 59
1, 250233, Note_on_c, 0, 78, 70
1, 250237, Note_on_c, 0, 54, 52
1, 250239, Control_c, 0, 64, 40
1, 250241, Note_on_c, 0, 66, 45
1, 250246, Note_on_c, 0, 73, 51
1, 250254, Control_c, 0, 64, 37
1, 250269, Control_c, 0, 64, 46
1, 250283, Control_c, 0, 64, 59
1, 250298, Control_c, 0, 64, 74
1, 250313, Control_c, 0, 64, 100
1, 250326, Note_off_c, 0, 66, 61
1, 250328, Control_c, 0, 64, 114
1, 250329, Note_off_c, 0, 57, 60
1, 250330, Note_off_c, 0, 54, 63
1, 250332, Note_off_c, 0, 61, 64
1, 250350, Control_c, 0, 64, 127
1, 250351, Note_off_c, 0, 81, 57
1, 250360, Note_off_c, 0, 73, 57
1, 250389, Note_off_c, 0, 78, 64
1, 250404, Note_off_c, 0, 69, 63
1, 250593, Note_on_c, 0, 80, 72
1, 250600, Note_on_c, 0, 56, 48
1, 250600, Note_on_c, 0, 68, 53
1, 250603, Note_on_c, 0, 49, 53
1, 250603, Note_on_c, 0, 77, 57
1, 250603, Control_c, 0, 64, 97
1, 250610, Note_on_c, 0, 61, 42
1, 250611, Note_on_c, 0, 53, 44
1, 250616, Note_on_c, 0, 71, 46
1, 250617, Control_c, 0, 64, 76
1, 250632, Control_c, 0, 64, 63
1, 250647, Control_c, 0, 64, 50
1, 250662, Control_c, 0, 64, 16
1, 250677, Control_c, 0, 64, 0
1, 250795, Control_c, 0, 64, 9
1, 250810, Control_c, 0, 64, 36
1, 250824, Control_c, 0, 64, 52
1, 250839, Control_c, 0, 64, 65
1, 250854, Control_c, 0, 64, 77
1, 250869, Control_c, 0, 64, 81
1, 250884, Control_c, 0, 64, 86
1, 250891, Note_off_c, 0, 80, 47
1, 250899, Control_c, 0, 64, 104
1, 250912, Note_off_c, 0, 77, 51
1, 250914, Control_c, 0, 64, 127
1, 250932, Note_off_c, 0, 56, 41
1, 250956, Note_off_c, 0, 71, 41
1, 250963, Note_off_c, 0, 61, 57
1, 251081, Note_off_c, 0, 49, 43
1, 251179, Note_off_c, 0, 68, 35
1, 251382, Note_on_c, 0, 78, 61
1, 251396, Note_on_c, 0, 74, 40
1, 251397, Note_on_c, 0, 66, 41
1, 251398, Note_on_c, 0, 54, 41
1, 251406, Note_on_c, 0, 50, 40
1, 251406, Note_on_c, 0, 57, 36
1, 251407, Note_on_c, 0, 69, 40
1, 251411, Control_c, 0, 64, 102
1, 251416, Note_on_c, 0, 62, 33
1, 251426, Control_c, 0, 64, 82
1, 251440, Control_c, 0, 64, 67
1, 251455, Control_c, 0, 64, 54
1, 251470, Control_c, 0, 64, 0
1, 251529, Note_off_c, 0, 53, 43
1, 251588, Control_c, 0, 64, 28
1, 251603, Control_c, 0, 64, 43
1, 251618, Control_c, 0, 64, 56
1, 251633, Control_c, 0, 64, 65
1, 251647, Control_c, 0, 64, 72
1, 251662, Control_c, 0, 64, 87
1, 251677, Control_c, 0, 64, 122
1, 251684, Note_off_c, 0, 74, 60
1, 251692, Control_c, 0, 64, 127
1, 251703, Note_off_c, 0, 62, 42
1, 251705, Note_off_c, 0, 69, 45
1, 251713, Note_off_c, 0, 50, 51
1, 251714, Note_off_c, 0, 57, 56
1, 251734, Note_off_c, 0, 66, 52
1, 251775, Note_off_c, 0, 54, 41
1, 251829, Note_off_c, 0, 78, 37
1, 252130, Control_c, 0, 64, 122
1, 252145, Control_c, 0, 64, 100
1, 252160, Note_on_c, 0, 80, 59
1, 252160, Control_c, 0, 64, 85
1, 252163, Note_on_c, 0, 68, 43
1, 252169, Note_on_c, 0, 74, 36
1, 252172, Note_on_c, 0, 76, 43
1, 252175, Control_c, 0, 64, 72
1, 252175, Note_on_c, 0, 52, 42
1, 252176, Note_on_c, 0, 47, 37
1, 252179, Note_on_c, 0, 56, 36
1, 252187, Note_on_c, 0, 59, 32
1, 252189, Control_c, 0, 64, 63
1, 252204, Control_c, 0, 64, 52
1, 252219, Control_c, 0, 64, 29
1, 252234, Control_c, 0, 64, 0
1, 252337, Control_c, 0, 64, 24
1, 252352, Control_c, 0, 64, 42
1, 252367, Control_c, 0, 64, 57
1, 252382, Control_c, 0, 64, 67
1, 252396, Control_c, 0, 64, 74
1, 252411, Control_c, 0, 64, 78
1, 252426, Control_c, 0, 64, 87
1, 252437, Note_off_c, 0, 47, 44
1, 252441, Control_c, 0, 64, 100
1, 252456, Control_c, 0, 64, 111
1, 252464, Note_off_c, 0, 59, 41
1, 252470, Control_c, 0, 64, 127
1, 252478, Note_off_c, 0, 76, 35
1, 252512, Note_off_c, 0, 52, 35
1, 252525, Note_off_c, 0, 74, 44
1, 252539, Note_off_c, 0, 68, 40
1, 252563, Note_off_c, 0, 56, 41
1, 252887, Note_off_c, 0, 80, 33
1, 252893, Control_c, 0, 64, 85
1, 252908, Control_c, 0, 64, 67
1, 252917, Note_on_c, 0, 81, 72
1, 252923, Control_c, 0, 64, 56
1, 252926, Note_on_c, 0, 69, 57
1, 252927, Note_on_c, 0, 57, 47
1, 252932, Note_on_c, 0, 49, 54
1, 252933, Note_on_c, 0, 76, 54
1, 252938, Note_on_c, 0, 61, 53
1, 252938, Control_c, 0, 64, 36
1, 252942, Note_on_c, 0, 52, 45
1, 252953, Control_c, 0, 64, 0
1, 252977, Note_off_c, 0, 69, 0
1, 252977, Note_on_c, 0, 69, 21
1, 252997, Control_c, 0, 64, 33
1, 253012, Control_c, 0, 64, 52
1, 253027, Control_c, 0, 64, 67
1, 253042, Control_c, 0, 64, 85
1, 253057, Control_c, 0, 64, 88
1, 253072, Control_c, 0, 64, 92
1, 253073, Note_off_c, 0, 52, 63
1, 253074, Note_off_c, 0, 57, 60
1, 253086, Control_c, 0, 64, 108
1, 253097, Note_off_c, 0, 49, 63
1, 253098, Note_off_c, 0, 76, 63
1, 253101, Control_c, 0, 64, 127
1, 253106, Note_off_c, 0, 69, 36
1, 253122, Note_off_c, 0, 61, 64
1, 253276, Note_on_c, 0, 83, 81
1, 253278, Control_c, 0, 64, 90
1, 253282, Note_on_c, 0, 71, 74
1, 253287, Note_on_c, 0, 78, 74
1, 253293, Note_on_c, 0, 50, 63
1, 253293, Note_on_c, 0, 59, 63
1, 253293, Control_c, 0, 64, 66
1, 253294, Note_on_c, 0, 54, 60
1, 253295, Note_on_c, 0, 62, 61
1, 253308, Control_c, 0, 64, 51
1, 253323, Control_c, 0, 64, 9
1, 253345, Control_c, 0, 64, 0
1, 253421, Control_c, 0, 64, 37
1, 253436, Control_c, 0, 64, 56
1, 253450, Control_c, 0, 64, 71
1, 253462, Note_off_c, 0, 83, 61
1, 253465, Control_c, 0, 64, 84
1, 253466, Note_off_c, 0, 71, 58
1, 253480, Control_c, 0, 64, 86
1, 253495, Control_c, 0, 64, 101
1, 253498, Note_off_c, 0, 59, 61
1, 253504, Note_off_c, 0, 50, 37
1, 253510, Control_c, 0, 64, 127
1, 253517, Note_off_c, 0, 62, 56
1, 253539, Note_off_c, 0, 78, 59
1, 253763, Note_on_c, 0, 85, 85
1, 253764, Note_on_c, 0, 76, 74
1, 253765, Note_on_c, 0, 73, 77
1, 253767, Note_on_c, 0, 57, 57
1, 253767, Note_on_c, 0, 64, 54
1, 253769, Note_on_c, 0, 52, 56
1, 253770, Note_on_c, 0, 61, 59
1, 253850, Control_c, 0, 64, 109
1, 253865, Control_c, 0, 64, 81
1, 253880, Control_c, 0, 64, 71
1, 253894, Control_c, 0, 64, 64
1, 253909, Control_c, 0, 64, 53
1, 253924, Control_c, 0, 64, 26
1, 253933, Note_off_c, 0, 54, 47
1, 253939, Control_c, 0, 64, 0
1, 254072, Control_c, 0, 64, 27
1, 254094, Control_c, 0, 64, 44
1, 254109, Control_c, 0, 64, 61
1, 254124, Control_c, 0, 64, 83
1, 254139, Control_c, 0, 64, 127
1, 254245, Note_off_c, 0, 85, 49
1, 254302, Note_off_c, 0, 81, 43
1, 254342, Note_off_c, 0, 73, 26
1, 254346, Note_off_c, 0, 61, 30
1, 254377, Note_off_c, 0, 64, 30
1, 254899, Note_off_c, 0, 76, 0
1, 254923, Note_on_c, 0, 83, 60
1, 254931, Note_on_c, 0, 56, 39
1, 254935, Poly_aftertouch_c, 0, 76, 127
1, 254938, Note_on_c, 0, 71, 40
1, 254947, Control_c, 0, 64, 114
1, 254950, Note_on_c, 0, 80, 46
1, 254955, Note_on_c, 0, 64, 14
1, 254960, Note_on_c, 0, 59, 22
1, 254962, Control_c, 0, 64, 78
1, 254977, Control_c, 0, 64, 63
1, 254991, Control_c, 0, 64, 48
1, 255003, Note_off_c, 0, 71, 0
1, 255003, Note_on_c, 0, 71, 6
1, 255006, Control_c, 0, 64, 17
1, 255022, Control_c, 0, 64, 0
1, 255041, Note_off_c, 0, 57, 34
1, 255090, Poly_aftertouch_c, 0, 76, 0
1, 255111, Control_c, 0, 64, 28
1, 255126, Control_c, 0, 64, 44
1, 255140, Control_c, 0, 64, 59
1, 255155, Control_c, 0, 64, 72
1, 255170, Control_c, 0, 64, 80
1, 255185, Control_c, 0, 64, 83
1, 255200, Control_c, 0, 64, 97
1, 255214, Control_c, 0, 64, 127
1, 255300, Note_off_c, 0, 64, 42
1, 255347, Note_on_c, 0, 74, 48
1, 255413, Note_off_c, 0, 83, 44
1, 255431, Note_off_c, 0, 74, 60
1, 255442, Note_off_c, 0, 80, 37
1, 255534, Note_off_c, 0, 71, 46
1, 255993, Control_c, 0, 64, 122
1, 255999, Note_on_c, 0, 60, 34
1, 256002, Note_on_c, 0, 72, 58
1, 256004, Note_on_c, 0, 57, 37
1, 256008, Control_c, 0, 64, 115
1, 256017, Note_on_c, 0, 69, 37
1, 256018, Note_on_c, 0, 64, 42
1, 256023, Control_c, 0, 64, 113
1, 256037, Control_c, 0, 64, 109
1, 256052, Control_c, 0, 64, 103
1, 256067, Control_c, 0, 64, 87
1, 256081, Control_c, 0, 64, 75
1, 256096, Control_c, 0, 64, 67
1, 256111, Control_c, 0, 64, 62
1, 256126, Control_c, 0, 64, 55
1, 256141, Control_c, 0, 64, 42
1, 256155, Control_c, 0, 64, 12
1, 256156, Note_off_c, 0, 59, 42
1, 256170, Control_c, 0, 64, 0
1, 256226, Note_off_c, 0, 56, 30
1, 256314, Note_off_c, 0, 52, 44
1, 256370, Control_c, 0, 64, 8
1, 256385, Control_c, 0, 64, 17
1, 256400, Control_c, 0, 64, 23
1, 256415, Control_c, 0, 64, 28
1, 256430, Control_c, 0, 64, 35
1, 256444, Control_c, 0, 64, 45
1, 256459, Control_c, 0, 64, 54
1, 256474, Control_c, 0, 64, 60
1, 256488, Control_c, 0, 64, 64
1, 256503, Control_c, 0, 64, 66
1, 256518, Control_c, 0, 64, 70
1, 256533, Control_c, 0, 64, 75
1, 256548, Control_c, 0, 64, 81
1, 256563, Control_c, 0, 64, 85
1, 256578, Control_c, 0, 64, 88
1, 256592, Control_c, 0, 64, 90
1, 256608, Control_c, 0, 64, 92
1, 256623, Control_c, 0, 64, 93
1, 256638, Control_c, 0, 64, 94
1, 256653, Control_c, 0, 64, 94
1, 256682, Control_c, 0, 64, 95
1, 256691, Note_off_c, 0, 64, 31
1, 256875, Control_c, 0, 64, 92
1, 256890, Control_c, 0, 64, 85
1, 256904, Control_c, 0, 64, 75
1, 256919, Control_c, 0, 64, 63
1, 256920, Note_on_c, 0, 71, 60
1, 256923, Note_on_c, 0, 55, 35
1, 256925, Note_on_c, 0, 59, 39
1, 256933, Note_on_c, 0, 67, 41
1, 256934, Control_c, 0, 64, 51
1, 256938, Note_on_c, 0, 52, 38
1, 256949, Note_on_c, 0, 64, 23
1, 256949, Control_c, 0, 64, 24
1, 256951, Note_off_c, 0, 57, 36
1, 256964, Control_c, 0, 64, 0
1, 256981, Note_off_c, 0, 60, 41
1, 257015, Note_off_c, 0, 69, 31
1, 257018, Note_off_c, 0, 52, 0
1, 257018, Note_on_c, 0, 52, 3
1, 257023, Control_c, 0, 64, 22
1, 257038, Control_c, 0, 64, 38
1, 257045, Note_off_c, 0, 72, 35
1, 257052, Control_c, 0, 64, 53
1, 257067, Control_c, 0, 64, 65
1, 257088, Note_off_c, 0, 55, 37
1, 257090, Control_c, 0, 64, 73
1, 257105, Control_c, 0, 64, 74
1, 257124, Note_off_c, 0, 64, 39
1, 257134, Control_c, 0, 64, 74
1, 257139, Note_off_c, 0, 67, 41
1, 257149, Control_c, 0, 64, 76
1, 257164, Control_c, 0, 64, 77
1, 257268, Control_c, 0, 64, 76
1, 257283, Control_c, 0, 64, 72
1, 257298, Control_c, 0, 64, 66
1, 257311, Note_on_c, 0, 69, 68
1, 257312, Control_c, 0, 64, 55
1, 257315, Note_on_c, 0, 57, 45
1, 257323, Note_on_c, 0, 65, 51
1, 257326, Note_on_c, 0, 60, 47
1, 257327, Note_on_c, 0, 53, 42
1, 257327, Control_c, 0, 64, 33
1, 257334, Note_off_c, 0, 59, 44
1, 257342, Control_c, 0, 64, 0
1, 257374, Note_off_c, 0, 52, 43
1, 257381, Note_off_c, 0, 71, 65
1, 257401, Control_c, 0, 64, 12
1, 257417, Control_c, 0, 64, 31
1, 257432, Control_c, 0, 64, 45
1, 257447, Control_c, 0, 64, 58
1, 257457, Note_off_c, 0, 65, 61
1, 257462, Control_c, 0, 64, 66
1, 257466, Note_off_c, 0, 60, 38
1, 257477, Control_c, 0, 64, 68
1, 257506, Control_c, 0, 64, 69
1, 257654, Control_c, 0, 64, 68
1, 257669, Control_c, 0, 64, 65
1, 257678, Note_on_c, 0, 67, 63
1, 257683, Note_on_c, 0, 60, 47
1, 257683, Note_on_c, 0, 64, 47
1, 257683, Control_c, 0, 64, 59
1, 257685, Note_on_c, 0, 48, 46
1, 257688, Note_on_c, 0, 55, 41
1, 257695, Note_on_c, 0, 52, 44
1, 257698, Control_c, 0, 64, 45
1, 257713, Control_c, 0, 64, 8
1, 257717, Note_off_c, 0, 53, 33
1, 257728, Control_c, 0, 64, 0
1, 257770, Note_off_c, 0, 57, 49
1, 257800, Note_off_c, 0, 69, 53
1, 257898, Control_c, 0, 64, 25
1, 257913, Control_c, 0, 64, 36
1, 257928, Control_c, 0, 64, 45
1, 257943, Control_c, 0, 64, 54
1, 257958, Control_c, 0, 64, 61
1, 257973, Control_c, 0, 64, 67
1, 257988, Control_c, 0, 64, 76
1, 257991, Note_off_c, 0, 52, 36
1, 257991, Note_off_c, 0, 64, 56
1, 258002, Control_c, 0, 64, 94
1, 258016, Control_c, 0, 64, 127
1, 258063, Note_off_c, 0, 60, 57
1, 258239, Control_c, 0, 64, 117
1, 258254, Control_c, 0, 64, 113
1, 258269, Control_c, 0, 64, 108
1, 258283, Control_c, 0, 64, 106
1, 258298, Control_c, 0, 64, 104
1, 258313, Control_c, 0, 64, 103
1, 258328, Control_c, 0, 64, 103
1, 258343, Control_c, 0, 64, 102
1, 258357, Control_c, 0, 64, 101
1, 258372, Control_c, 0, 64, 99
1, 258387, Control_c, 0, 64, 98
1, 258402, Control_c, 0, 64, 97
1, 258417, Control_c, 0, 64, 95
1, 258432, Control_c, 0, 64, 93
1, 258447, Control_c, 0, 64, 89
1, 258461, Control_c, 0, 64, 83
1, 258473, Note_on_c, 0, 65, 55
1, 258476, Control_c, 0, 64, 74
1, 258488, Note_on_c, 0, 57, 36
1, 258489, Note_on_c, 0, 50, 39
1, 258490, Note_on_c, 0, 62, 33
1, 258491, Control_c, 0, 64, 64
1, 258497, Note_on_c, 0, 53, 25
1, 258506, Control_c, 0, 64, 53
1, 258521, Control_c, 0, 64, 25
1, 258536, Control_c, 0, 64, 0
1, 258622, Note_off_c, 0, 67, 29
1, 258625, Note_off_c, 0, 48, 42
1, 258654, Note_off_c, 0, 55, 35
1, 258691, Control_c, 0, 64, 24
1, 258706, Control_c, 0, 64, 38
1, 258721, Control_c, 0, 64, 51
1, 258736, Control_c, 0, 64, 61
1, 258751, Control_c, 0, 64, 66
1, 258765, Control_c, 0, 64, 68
1, 258780, Control_c, 0, 64, 70
1, 258781, Note_off_c, 0, 57, 36
1, 258795, Control_c, 0, 64, 72
1, 258810, Control_c, 0, 64, 73
1, 258816, Note_off_c, 0, 62, 40
1, 259245, Note_off_c, 0, 65, 35
1, 259314, Control_c, 0, 64, 72
1, 259319, Note_off_c, 0, 50, 38
1, 259336, Control_c, 0, 64, 68
1, 259351, Control_c, 0, 64, 62
1, 259354, Note_on_c, 0, 67, 51
1, 259363, Note_on_c, 0, 60, 42
1, 259366, Note_on_c, 0, 64, 39
1, 259366, Control_c, 0, 64, 52
1, 259374, Note_off_c, 0, 53, 34
1, 259378, Note_on_c, 0, 48, 32
1, 259379, Note_on_c, 0, 43, 36
1, 259380, Control_c, 0, 64, 28
1, 259387, Note_on_c, 0, 52, 37
1, 259395, Control_c, 0, 64, 0
1, 259484, Control_c, 0, 64, 23
1, 259499, Control_c, 0, 64, 44
1, 259514, Control_c, 0, 64, 57
1, 259529, Control_c, 0, 64, 64
1, 259544, Control_c, 0, 64, 66
1, 259558, Control_c, 0, 64, 67
1, 259573, Control_c, 0, 64, 68
1, 259574, Note_off_c, 0, 60, 42
1, 259578, Note_off_c, 0, 64, 41
1, 259588, Control_c, 0, 64, 70
1, 259603, Control_c, 0, 64, 71
1, 259721, Control_c, 0, 64, 70
1, 259736, Control_c, 0, 64, 68
1, 259751, Control_c, 0, 64, 64
1, 259756, Note_on_c, 0, 65, 66
1, 259759, Note_on_c, 0, 62, 54
1, 259766, Control_c, 0, 64, 57
1, 259770, Note_on_c, 0, 53, 52
1, 259780, Control_c, 0, 64, 41
1, 259788, Note_on_c, 0, 50, 48
1, 259796, Control_c, 0, 64, 0
1, 259818, Note_off_c, 0, 52, 56
1, 259923, Note_off_c, 0, 48, 43
1, 259929, Control_c, 0, 64, 18
1, 259944, Control_c, 0, 64, 32
1, 259959, Control_c, 0, 64, 42
1, 259974, Control_c, 0, 64, 51
1, 259989, Control_c, 0, 64, 56
1, 260003, Control_c, 0, 64, 58
1, 260018, Control_c, 0, 64, 58
1, 260033, Control_c, 0, 64, 59
1, 260047, Control_c, 0, 64, 61
1, 260062, Control_c, 0, 64, 62
1, 260100, Control_c, 0, 64, 60
1, 260115, Control_c, 0, 64, 56
1, 260129, Note_on_c, 0, 69, 74
1, 260129, Control_c, 0, 64, 43
1, 260144, Control_c, 0, 64, 14
1, 260159, Control_c, 0, 64, 0
1, 260160, Note_off_c, 0, 67, 64
1, 260233, Control_c, 0, 64, 32
1, 260249, Control_c, 0, 64, 47
1, 260263, Control_c, 0, 64, 59
1, 260278, Control_c, 0, 64, 67
1, 260293, Control_c, 0, 64, 68
1, 260323, Control_c, 0, 64, 69
1, 260337, Control_c, 0, 64, 71
1, 260352, Control_c, 0, 64, 72
1, 260456, Control_c, 0, 64, 69
1, 260471, Control_c, 0, 64, 64
1, 260486, Control_c, 0, 64, 56
1, 260500, Control_c, 0, 64, 39
1, 260515, Control_c, 0, 64, 0
1, 260517, Note_on_c, 0, 71, 76
1, 260539, Note_off_c, 0, 62, 45
1, 260560, Control_c, 0, 64, 14
1, 260575, Control_c, 0, 64, 37
1, 260590, Control_c, 0, 64, 53
1, 260605, Note_off_c, 0, 43, 42
1, 260605, Control_c, 0, 64, 67
1, 260620, Control_c, 0, 64, 82
1, 260633, Note_off_c, 0, 50, 60
1, 260635, Control_c, 0, 64, 85
1, 260639, Note_off_c, 0, 69, 41
1, 260649, Control_c, 0, 64, 92
1, 260664, Control_c, 0, 64, 108
1, 260665, Note_off_c, 0, 53, 60
1, 260679, Control_c, 0, 64, 127
1, 260685, Note_off_c, 0, 65, 57
1, 260798, Control_c, 0, 64, 114
1, 260813, Control_c, 0, 64, 113
1, 260829, Note_off_c, 0, 71, 54
1, 260834, Control_c, 0, 64, 111
1, 260849, Control_c, 0, 64, 110
1, 260864, Control_c, 0, 64, 104
1, 260879, Control_c, 0, 64, 98
1, 260894, Control_c, 0, 64, 97
1, 260909, Control_c, 0, 64, 96
1, 260924, Control_c, 0, 64, 95
1, 260939, Control_c, 0, 64, 90
1, 260953, Control_c, 0, 64, 85
1, 260968, Control_c, 0, 64, 82
1, 260983, Control_c, 0, 64, 81
1, 260998, Control_c, 0, 64, 79
1, 261013, Control_c, 0, 64, 76
1, 261026, Note_on_c, 0, 72, 52
1, 261027, Control_c, 0, 64, 71
1, 261028, Note_on_c, 0, 60, 42
1, 261031, Note_on_c, 0, 52, 46
1, 261033, Note_on_c, 0, 48, 45
1, 261042, Control_c, 0, 64, 65
1, 261057, Control_c, 0, 64, 61
1, 261072, Control_c, 0, 64, 55
1, 261086, Control_c, 0, 64, 48
1, 261101, Control_c, 0, 64, 39
1, 261116, Control_c, 0, 64, 31
1, 261131, Control_c, 0, 64, 23
1, 261146, Control_c, 0, 64, 19
1, 261155, Note_off_c, 0, 72, 59
1, 261160, Control_c, 0, 64, 14
1, 261165, Note_on_c, 0, 74, 55
1, 261175, Control_c, 0, 64, 0
1, 261261, Note_off_c, 0, 74, 62
1, 261272, Note_on_c, 0, 76, 57
1, 261344, Note_off_c, 0, 76, 64
1, 261376, Note_on_c, 0, 77, 56
1, 261477, Note_off_c, 0, 77, 52
1, 261482, Note_on_c, 0, 79, 62
1, 261595, Note_on_c, 0, 81, 58
1, 261607, Note_off_c, 0, 48, 43
1, 261639, Note_off_c, 0, 79, 37
1, 261693, Note_off_c, 0, 81, 56
1, 261696, Note_on_c, 0, 82, 60
1, 261732, Note_off_c, 0, 60, 36
1, 261733, Note_off_c, 0, 52, 36
1, 261778, Note_off_c, 0, 82, 64
1, 261811, Note_on_c, 0, 83, 60
1, 261894, Note_off_c, 0, 83, 63
1, 261912, Note_on_c, 0, 84, 60
1, 262015, Note_off_c, 0, 84, 60
1, 262030, Note_on_c, 0, 85, 51
1, 262103, Note_off_c, 0, 85, 62
1, 262129, Note_on_c, 0, 86, 55
1, 262220, Note_off_c, 0, 86, 57
1, 262244, Note_on_c, 0, 87, 54
1, 262349, Note_off_c, 0, 87, 60
1, 262375, Control_c, 0, 64, 17
1, 262376, Note_on_c, 0, 88, 57
1, 262388, Note_on_c, 0, 76, 62
1, 262390, Control_c, 0, 64, 26
1, 262393, Note_on_c, 0, 72, 52
1, 262396, Note_on_c, 0, 84, 33
1, 262405, Control_c, 0, 64, 37
1, 262420, Control_c, 0, 64, 49
1, 262435, Control_c, 0, 64, 59
1, 262449, Control_c, 0, 64, 64
1, 262464, Control_c, 0, 64, 69
1, 262479, Control_c, 0, 64, 74
1, 262494, Control_c, 0, 64, 86
1, 262501, Note_off_c, 0, 88, 62
1, 262509, Control_c, 0, 64, 114
1, 262513, Note_on_c, 0, 87, 60
1, 262523, Control_c, 0, 64, 127
1, 262593, Note_off_c, 0, 87, 51
1, 262630, Note_on_c, 0, 88, 59
1, 262712, Note_off_c, 0, 88, 63
1, 262730, Note_on_c, 0, 89, 58
1, 262743, Note_off_c, 0, 76, 49
1, 262831, Note_off_c, 0, 89, 59
1, 262857, Note_on_c, 0, 87, 52
1, 262889, Note_off_c, 0, 84, 43
1, 262944, Note_off_c, 0, 87, 58
1, 262967, Note_on_c, 0, 88, 48
1, 263079, Control_c, 0, 64, 97
1, 263094, Control_c, 0, 64, 78
1, 263101, Note_on_c, 0, 77, 57
1, 263104, Note_on_c, 0, 74, 51
1, 263106, Note_on_c, 0, 71, 48
1, 263109, Control_c, 0, 64, 65
1, 263112, Note_on_c, 0, 68, 51
1, 263115, Note_on_c, 0, 83, 47
1, 263124, Control_c, 0, 64, 52
1, 263128, Note_off_c, 0, 88, 45
1, 263139, Control_c, 0, 64, 23
1, 263153, Control_c, 0, 64, 0
1, 263166, Note_off_c, 0, 72, 46
1, 263183, Control_c, 0, 64, 15
1, 263198, Control_c, 0, 64, 30
1, 263213, Control_c, 0, 64, 43
1, 263228, Control_c, 0, 64, 56
1, 263234, Note_on_c, 0, 88, 51
1, 263243, Control_c, 0, 64, 67
1, 263258, Control_c, 0, 64, 71
1, 263287, Control_c, 0, 64, 71
1, 263293, Note_off_c, 0, 83, 44
1, 263302, Control_c, 0, 64, 72
1, 263317, Control_c, 0, 64, 73
1, 263321, Note_off_c, 0, 68, 61
1, 263322, Note_off_c, 0, 77, 36
1, 263356, Note_on_c, 0, 86, 47
1, 263405, Control_c, 0, 64, 72
1, 263412, Note_off_c, 0, 88, 35
1, 263418, Note_off_c, 0, 71, 35
1, 263420, Control_c, 0, 64, 65
1, 263422, Note_off_c, 0, 86, 56
1, 263435, Control_c, 0, 64, 57
1, 263450, Control_c, 0, 64, 42
1, 263451, Note_on_c, 0, 72, 62
1, 263457, Note_on_c, 0, 76, 58
1, 263457, Note_on_c, 0, 69, 54
1, 263465, Control_c, 0, 64, 30
1, 263466, Note_on_c, 0, 81, 48
1, 263479, Control_c, 0, 64, 33
1, 263494, Control_c, 0, 64, 41
1, 263509, Control_c, 0, 64, 52
1, 263524, Control_c, 0, 64, 65
1, 263533, Note_off_c, 0, 74, 37
1, 263539, Control_c, 0, 64, 77
1, 263553, Note_off_c, 0, 69, 62
1, 263553, Control_c, 0, 64, 81
1, 263568, Control_c, 0, 64, 82
1, 263583, Note_on_c, 0, 86, 52
1, 263583, Control_c, 0, 64, 85
1, 263584, Note_off_c, 0, 72, 62
1, 263595, Note_off_c, 0, 76, 57
1, 263598, Control_c, 0, 64, 87
1, 263663, Note_off_c, 0, 81, 33
1, 263693, Note_off_c, 0, 86, 57
1, 263702, Note_on_c, 0, 84, 50
1, 263732, Control_c, 0, 64, 86
1, 263776, Control_c, 0, 64, 84
1, 263784, Note_off_c, 0, 84, 46
1, 263791, Control_c, 0, 64, 79
1, 263806, Control_c, 0, 64, 71
1, 263829, Control_c, 0, 64, 63
1, 263838, Note_on_c, 0, 74, 60
1, 263840, Note_on_c, 0, 71, 60
1, 263840, Note_on_c, 0, 80, 58
1, 263843, Note_on_c, 0, 68, 52
1, 263844, Control_c, 0, 64, 51
1, 263845, Note_on_c, 0, 64, 57
1, 263858, Control_c, 0, 64, 27
1, 263873, Control_c, 0, 64, 0
1, 263899, Note_off_c, 0, 80, 0
1, 263899, Note_on_c, 0, 80, 8
1, 263986, Note_on_c, 0, 82, 46
1, 264006, Control_c, 0, 64, 15
1, 264021, Control_c, 0, 64, 27
1, 264036, Control_c, 0, 64, 37
1, 264051, Control_c, 0, 64, 46
1, 264066, Control_c, 0, 64, 54
1, 264080, Control_c, 0, 64, 59
1, 264095, Control_c, 0, 64, 61
1, 264110, Note_on_c, 0, 83, 46
1, 264110, Control_c, 0, 64, 62
1, 264113, Note_off_c, 0, 82, 37
1, 264125, Control_c, 0, 64, 63
1, 264140, Control_c, 0, 64, 64
1, 264142, Note_off_c, 0, 68, 25
1, 264149, Note_off_c, 0, 64, 47
1, 264155, Control_c, 0, 64, 65
1, 264187, Note_off_c, 0, 74, 35
1, 264205, Note_off_c, 0, 83, 56
1, 264229, Note_on_c, 0, 84, 50
1, 264333, Note_off_c, 0, 80, 43
1, 264346, Note_on_c, 0, 82, 49
1, 264440, Note_off_c, 0, 84, 30
1, 264453, Note_on_c, 0, 83, 48
1, 264476, Note_off_c, 0, 82, 36
1, 264525, Note_off_c, 0, 83, 53
1, 264554, Control_c, 0, 64, 64
1, 264576, Control_c, 0, 64, 62
1, 264581, Note_on_c, 0, 69, 51
1, 264588, Note_on_c, 0, 65, 40
1, 264588, Note_on_c, 0, 72, 40
1, 264591, Note_on_c, 0, 77, 49
1, 264591, Control_c, 0, 64, 57
1, 264607, Control_c, 0, 64, 44
1, 264622, Control_c, 0, 64, 13
1, 264637, Control_c, 0, 64, 0
1, 264647, Note_off_c, 0, 72, 0
1, 264647, Note_on_c, 0, 72, 3
1, 264674, Note_off_c, 0, 71, 38
1, 264719, Note_on_c, 0, 80, 45
1, 264755, Control_c, 0, 64, 9
1, 264770, Control_c, 0, 64, 27
1, 264785, Control_c, 0, 64, 36
1, 264790, Note_off_c, 0, 80, 54
1, 264799, Control_c, 0, 64, 46
1, 264814, Control_c, 0, 64, 54
1, 264817, Note_on_c, 0, 81, 48
1, 264829, Control_c, 0, 64, 59
1, 264844, Control_c, 0, 64, 61
1, 264872, Note_off_c, 0, 65, 44
1, 264873, Control_c, 0, 64, 61
1, 264879, Note_off_c, 0, 69, 56
1, 264888, Control_c, 0, 64, 62
1, 264903, Control_c, 0, 64, 63
1, 264918, Control_c, 0, 64, 64
1, 264940, Note_on_c, 0, 83, 48
1, 264941, Note_off_c, 0, 81, 35
1, 264965, Note_off_c, 0, 72, 40
1, 265040, Note_off_c, 0, 83, 48
1, 265046, Note_on_c, 0, 80, 52
1, 265131, Note_off_c, 0, 77, 39
1, 265172, Note_on_c, 0, 81, 48
1, 265199, Note_off_c, 0, 80, 37
1, 265229, Control_c, 0, 64, 63
1, 265273, Control_c, 0, 64, 63
1, 265288, Control_c, 0, 64, 62
1, 265299, Note_on_c, 0, 71, 55
1, 265303, Control_c, 0, 64, 61
1, 265307, Note_on_c, 0, 62, 44
1, 265307, Note_off_c, 0, 81, 34
1, 265324, Note_on_c, 0, 65, 44
1, 265324, Note_on_c, 0, 67, 47
1, 265325, Control_c, 0, 64, 58
1, 265328, Note_on_c, 0, 77, 44
1, 265340, Control_c, 0, 64, 50
1, 265355, Control_c, 0, 64, 34
1, 265369, Control_c, 0, 64, 10
1, 265384, Control_c, 0, 64, 0
1, 265462, Note_on_c, 0, 82, 47
1, 265504, Control_c, 0, 64, 8
1, 265519, Control_c, 0, 64, 17
1, 265534, Control_c, 0, 64, 26
1, 265548, Control_c, 0, 64, 35
1, 265550, Note_off_c, 0, 82, 57
1, 265563, Control_c, 0, 64, 44
1, 265577, Note_on_c, 0, 83, 41
1, 265578, Control_c, 0, 64, 53
1, 265593, Control_c, 0, 64, 60
1, 265608, Control_c, 0, 64, 62
1, 265622, Control_c, 0, 64, 63
1, 265637, Control_c, 0, 64, 64
1, 265652, Control_c, 0, 64, 65
1, 265666, Control_c, 0, 64, 67
1, 265672, Note_off_c, 0, 65, 39
1, 265681, Control_c, 0, 64, 69
1, 265693, Note_on_c, 0, 84, 53
1, 265696, Control_c, 0, 64, 69
1, 265712, Note_off_c, 0, 83, 37
1, 265726, Control_c, 0, 64, 70
1, 265736, Note_off_c, 0, 67, 42
1, 265741, Control_c, 0, 64, 71
1, 265756, Control_c, 0, 64, 72
1, 265771, Control_c, 0, 64, 72
1, 265790, Note_on_c, 0, 82, 54
1, 265796, Note_off_c, 0, 84, 47
1, 265820, Note_off_c, 0, 77, 35
1, 265824, Note_off_c, 0, 71, 37
1, 265910, Note_on_c, 0, 83, 59
1, 265914, Note_off_c, 0, 82, 58
1, 265963, Control_c, 0, 64, 72
1, 265978, Control_c, 0, 64, 69
1, 265992, Control_c, 0, 64, 64
1, 266003, Note_off_c, 0, 83, 62
1, 266007, Control_c, 0, 64, 53
1, 266021, Note_on_c, 0, 72, 68
1, 266022, Control_c, 0, 64, 32
1, 266024, Note_on_c, 0, 79, 61
1, 266028, Note_on_c, 0, 67, 50
1, 266032, Note_on_c, 0, 64, 46
1, 266037, Control_c, 0, 64, 0
1, 266074, Control_c, 0, 64, 11
1, 266089, Control_c, 0, 64, 27
1, 266104, Control_c, 0, 64, 45
1, 266119, Note_off_c, 0, 67, 54
1, 266119, Control_c, 0, 64, 59
1, 266124, Note_off_c, 0, 62, 53
1, 266134, Control_c, 0, 64, 70
1, 266142, Note_off_c, 0, 64, 60
1, 266148, Control_c, 0, 64, 74
1, 266158, Note_on_c, 0, 86, 68
1, 266178, Control_c, 0, 64, 75
1, 266194, Control_c, 0, 64, 75
1, 266201, Note_off_c, 0, 79, 48
1, 266209, Control_c, 0, 64, 76
1, 266262, Note_off_c, 0, 72, 58
1, 266268, Note_on_c, 0, 84, 67
1, 266300, Note_off_c, 0, 86, 51
1, 266327, Control_c, 0, 64, 72
1, 266342, Control_c, 0, 64, 66
1, 266357, Control_c, 0, 64, 58
1, 266371, Control_c, 0, 64, 42
1, 266384, Note_on_c, 0, 74, 79
1, 266385, Note_off_c, 0, 84, 60
1, 266386, Note_on_c, 0, 81, 73
1, 266386, Control_c, 0, 64, 18
1, 266390, Note_on_c, 0, 65, 66
1, 266391, Note_on_c, 0, 72, 57
1, 266395, Note_on_c, 0, 69, 63
1, 266401, Control_c, 0, 64, 14
1, 266415, Control_c, 0, 64, 19
1, 266430, Control_c, 0, 64, 27
1, 266445, Control_c, 0, 64, 38
1, 266460, Control_c, 0, 64, 52
1, 266475, Control_c, 0, 64, 65
1, 266489, Control_c, 0, 64, 83
1, 266504, Control_c, 0, 64, 85
1, 266513, Note_on_c, 0, 88, 76
1, 266519, Control_c, 0, 64, 87
1, 266534, Control_c, 0, 64, 94
1, 266549, Control_c, 0, 64, 101
1, 266564, Control_c, 0, 64, 103
1, 266565, Note_off_c, 0, 81, 54
1, 266578, Note_off_c, 0, 72, 34
1, 266578, Control_c, 0, 64, 104
1, 266605, Note_off_c, 0, 65, 58
1, 266623, Control_c, 0, 64, 105
1, 266632, Note_on_c, 0, 86, 86
1, 266638, Control_c, 0, 64, 108
1, 266644, Note_off_c, 0, 74, 62
1, 266653, Control_c, 0, 64, 109
1, 266665, Note_off_c, 0, 88, 64
1, 266683, Control_c, 0, 64, 111
1, 266697, Control_c, 0, 64, 119
1, 266712, Control_c, 0, 64, 127
1, 266771, Control_c, 0, 64, 119
1, 266786, Control_c, 0, 64, 101
1, 266794, Note_on_c, 0, 88, 84
1, 266796, Note_on_c, 0, 84, 74
1, 266799, Note_on_c, 0, 76, 79
1, 266801, Control_c, 0, 64, 84
1, 266805, Note_on_c, 0, 72, 72
1, 266805, Note_on_c, 0, 67, 70
1, 266815, Note_off_c, 0, 86, 57
1, 266823, Control_c, 0, 64, 70
1, 266838, Control_c, 0, 64, 60
1, 266853, Control_c, 0, 64, 45
1, 266868, Control_c, 0, 64, 0
1, 266923, Note_off_c, 0, 69, 38
1, 266982, Note_on_c, 0, 87, 77
1, 267014, Note_off_c, 0, 88, 62
1, 267032, Control_c, 0, 64, 21
1, 267046, Control_c, 0, 64, 35
1, 267061, Control_c, 0, 64, 51
1, 267076, Control_c, 0, 64, 63
1, 267091, Control_c, 0, 64, 70
1, 267106, Note_on_c, 0, 88, 83
1, 267106, Control_c, 0, 64, 72
1, 267113, Note_off_c, 0, 87, 66
1, 267120, Control_c, 0, 64, 75
1, 267135, Control_c, 0, 64, 83
1, 267150, Control_c, 0, 64, 110
1, 267165, Control_c, 0, 64, 127
1, 267225, Note_on_c, 0, 91, 83
1, 267245, Note_off_c, 0, 88, 62
1, 267336, Note_on_c, 0, 89, 84
1, 267359, Note_off_c, 0, 76, 38
1, 267368, Note_off_c, 0, 91, 59
1, 267371, Note_off_c, 0, 84, 59
1, 267449, Note_on_c, 0, 88, 82
1, 267491, Control_c, 0, 64, 80
1, 267506, Control_c, 0, 64, 63
1, 267520, Control_c, 0, 64, 48
1, 267534, Note_off_c, 0, 89, 39
1, 267535, Control_c, 0, 64, 20
1, 267550, Control_c, 0, 64, 26
1, 267553, Note_on_c, 0, 74, 57
1, 267556, Note_on_c, 0, 71, 52
1, 267556, Note_on_c, 0, 86, 69
1, 267559, Note_off_c, 0, 72, 48
1, 267571, Control_c, 0, 64, 39
1, 267575, Note_off_c, 0, 88, 64
1, 267586, Control_c, 0, 64, 55
1, 267589, Note_on_c, 0, 83, 59
1, 267593, Note_off_c, 0, 86, 60
1, 267601, Control_c, 0, 64, 73
1, 267616, Control_c, 0, 64, 127
1, 267640, Note_off_c, 0, 74, 64
1, 267668, Note_off_c, 0, 67, 57
1, 267679, Note_off_c, 0, 71, 64
1, 267685, Note_off_c, 0, 83, 64
1, 267694, Note_on_c, 0, 84, 68
1, 267700, Note_on_c, 0, 81, 62
1, 267799, Note_off_c, 0, 81, 59
1, 267804, Note_on_c, 0, 79, 63
1, 267804, Note_on_c, 0, 83, 70
1, 267842, Note_off_c, 0, 84, 59
1, 267869, Control_c, 0, 64, 98
1, 267884, Control_c, 0, 64, 74
1, 267899, Control_c, 0, 64, 61
1, 267914, Control_c, 0, 64, 42
1, 267915, Note_on_c, 0, 81, 68
1, 267916, Note_off_c, 0, 79, 62
1, 267921, Note_off_c, 0, 83, 65
1, 267924, Note_on_c, 0, 55, 51
1, 267929, Note_on_c, 0, 77, 60
1, 267929, Control_c, 0, 64, 25
1, 267941, Note_off_c, 0, 81, 67
1, 267944, Control_c, 0, 64, 32
1, 267959, Control_c, 0, 64, 43
1, 267974, Control_c, 0, 64, 57
1, 267987, Note_off_c, 0, 77, 60
1, 267988, Control_c, 0, 64, 73
1, 268003, Control_c, 0, 64, 100
1, 268018, Control_c, 0, 64, 101
1, 268029, Note_on_c, 0, 57, 58
1, 268032, Note_off_c, 0, 55, 62
1, 268036, Note_on_c, 0, 79, 74
1, 268042, Note_on_c, 0, 76, 68
1, 268048, Control_c, 0, 64, 102
1, 268062, Control_c, 0, 64, 103
1, 268145, Note_on_c, 0, 59, 71
1, 268151, Note_off_c, 0, 57, 61
1, 268151, Control_c, 0, 64, 103
1, 268152, Note_off_c, 0, 76, 63
1, 268152, Note_off_c, 0, 79, 59
1, 268153, Note_on_c, 0, 77, 66
1, 268156, Note_on_c, 0, 74, 62
1, 268171, Note_off_c, 0, 59, 66
1, 268177, Note_off_c, 0, 74, 68
1, 268200, Note_off_c, 0, 77, 60
1, 268225, Control_c, 0, 64, 99
1, 268240, Control_c, 0, 64, 82
1, 268255, Control_c, 0, 64, 66
1, 268269, Control_c, 0, 64, 51
1, 268281, Note_on_c, 0, 64, 77
1, 268283, Note_on_c, 0, 76, 69
1, 268284, Control_c, 0, 64, 0
1, 268289, Note_on_c, 0, 60, 64
1, 268298, Note_on_c, 0, 67, 56
1, 268408, Note_off_c, 0, 76, 63
1, 268415, Note_on_c, 0, 75, 65
1, 268455, Control_c, 0, 64, 14
1, 268469, Control_c, 0, 64, 27
1, 268483, Control_c, 0, 64, 34
1, 268498, Control_c, 0, 64, 40
1, 268507, Note_off_c, 0, 75, 59
1, 268513, Control_c, 0, 64, 46
1, 268521, Note_on_c, 0, 76, 69
1, 268528, Control_c, 0, 64, 51
1, 268543, Control_c, 0, 64, 56
1, 268558, Control_c, 0, 64, 60
1, 268573, Control_c, 0, 64, 61
1, 268616, Note_off_c, 0, 76, 61
1, 268629, Note_on_c, 0, 77, 69
1, 268740, Note_off_c, 0, 77, 58
1, 268749, Note_on_c, 0, 75, 62
1, 268865, Note_on_c, 0, 76, 64
1, 268894, Note_off_c, 0, 67, 45
1, 268898, Note_off_c, 0, 75, 36
1, 268958, Control_c, 0, 64, 59
1, 268973, Control_c, 0, 64, 53
1, 268988, Control_c, 0, 64, 38
1, 268992, Note_off_c, 0, 76, 36
1, 268993, Note_on_c, 0, 59, 46
1, 268993, Note_on_c, 0, 56, 59
1, 268993, Note_on_c, 0, 65, 63
1, 268996, Note_on_c, 0, 62, 67
1, 269002, Control_c, 0, 64, 0
1, 269035, Note_off_c, 0, 60, 61
1, 269085, Control_c, 0, 64, 12
1, 269099, Control_c, 0, 64, 32
1, 269114, Control_c, 0, 64, 44
1, 269124, Note_off_c, 0, 64, 50
1, 269129, Control_c, 0, 64, 55
1, 269131, Note_on_c, 0, 76, 59
1, 269144, Control_c, 0, 64, 60
1, 269159, Control_c, 0, 64, 61
1, 269201, Note_off_c, 0, 56, 65
1, 269203, Control_c, 0, 64, 62
1, 269217, Control_c, 0, 64, 63
1, 269232, Control_c, 0, 64, 64
1, 269247, Note_on_c, 0, 74, 58
1, 269276, Note_off_c, 0, 65, 45
1, 269277, Control_c, 0, 64, 63
1, 269289, Note_off_c, 0, 76, 38
1, 269291, Control_c, 0, 64, 58
1, 269306, Control_c, 0, 64, 46
1, 269321, Control_c, 0, 64, 23
1, 269327, Note_off_c, 0, 74, 60
1, 269336, Control_c, 0, 64, 0
1, 269340, Note_on_c, 0, 60, 71
1, 269347, Note_on_c, 0, 57, 52
1, 269357, Note_on_c, 0, 64, 66
1, 269366, Control_c, 0, 64, 19
1, 269381, Control_c, 0, 64, 31
1, 269396, Control_c, 0, 64, 43
1, 269411, Control_c, 0, 64, 55
1, 269420, Note_off_c, 0, 59, 24
1, 269426, Control_c, 0, 64, 63
1, 269428, Note_off_c, 0, 62, 55
1, 269440, Control_c, 0, 64, 67
1, 269452, Note_off_c, 0, 57, 61
1, 269467, Note_on_c, 0, 74, 61
1, 269587, Note_on_c, 0, 72, 60
1, 269592, Note_off_c, 0, 64, 36
1, 269660, Note_off_c, 0, 74, 33
1, 269678, Control_c, 0, 64, 66
1, 269682, Note_off_c, 0, 72, 54
1, 269693, Control_c, 0, 64, 65
1, 269707, Control_c, 0, 64, 61
1, 269711, Note_on_c, 0, 52, 63
1, 269712, Note_on_c, 0, 62, 63
1, 269721, Note_on_c, 0, 56, 61
1, 269722, Control_c, 0, 64, 53
1, 269723, Note_on_c, 0, 59, 67
1, 269737, Control_c, 0, 64, 26
1, 269752, Control_c, 0, 64, 0
1, 269834, Note_off_c, 0, 60, 58
1, 269869, Note_on_c, 0, 70, 46
1, 269951, Note_off_c, 0, 70, 57
1, 269965, Note_on_c, 0, 71, 57
1, 270081, Note_off_c, 0, 71, 63
1, 270092, Note_on_c, 0, 72, 61
1, 270100, Control_c, 0, 64, 16
1, 270114, Control_c, 0, 64, 31
1, 270129, Control_c, 0, 64, 38
1, 270144, Control_c, 0, 64, 45
1, 270159, Control_c, 0, 64, 50
1, 270173, Control_c, 0, 64, 54
1, 270190, Control_c, 0, 64, 57
1, 270205, Control_c, 0, 64, 58
1, 270211, Note_off_c, 0, 72, 51
1, 270215, Note_on_c, 0, 70, 54
1, 270308, Control_c, 0, 64, 57
1, 270317, Note_off_c, 0, 62, 49
1, 270323, Control_c, 0, 64, 57
1, 270324, Note_on_c, 0, 71, 57
1, 270337, Control_c, 0, 64, 56
1, 270364, Note_off_c, 0, 70, 37
1, 270397, Control_c, 0, 64, 55
1, 270406, Note_off_c, 0, 71, 56
1, 270412, Control_c, 0, 64, 53
1, 270427, Control_c, 0, 64, 46
1, 270442, Control_c, 0, 64, 34
1, 270449, Note_on_c, 0, 57, 57
1, 270451, Note_on_c, 0, 53, 47
1, 270456, Control_c, 0, 64, 0
1, 270457, Note_on_c, 0, 60, 52
1, 270505, Note_off_c, 0, 56, 54
1, 270531, Note_off_c, 0, 59, 37
1, 270582, Note_off_c, 0, 52, 57
1, 270598, Note_on_c, 0, 68, 49
1, 270683, Note_off_c, 0, 68, 53
1, 270705, Note_on_c, 0, 69, 49
1, 270746, Control_c, 0, 64, 25
1, 270761, Control_c, 0, 64, 35
1, 270776, Control_c, 0, 64, 44
1, 270785, Note_off_c, 0, 53, 59
1, 270790, Control_c, 0, 64, 53
1, 270792, Note_off_c, 0, 69, 61
1, 270805, Control_c, 0, 64, 59
1, 270818, Note_on_c, 0, 71, 54
1, 270820, Control_c, 0, 64, 61
1, 270835, Control_c, 0, 64, 63
1, 270850, Control_c, 0, 64, 64
1, 270864, Control_c, 0, 64, 66
1, 270879, Control_c, 0, 64, 67
1, 270912, Note_off_c, 0, 57, 34
1, 270921, Note_off_c, 0, 71, 58
1, 270943, Note_on_c, 0, 68, 50
1, 270953, Control_c, 0, 64, 68
1, 270968, Control_c, 0, 64, 68
1, 271046, Note_on_c, 0, 69, 53
1, 271076, Note_off_c, 0, 60, 41
1, 271083, Note_off_c, 0, 68, 35
1, 271147, Control_c, 0, 64, 68
1, 271161, Control_c, 0, 64, 65
1, 271175, Note_off_c, 0, 69, 35
1, 271176, Control_c, 0, 64, 60
1, 271189, Note_on_c, 0, 60, 58
1, 271191, Control_c, 0, 64, 50
1, 271201, Note_on_c, 0, 43, 42
1, 271202, Note_on_c, 0, 52, 38
1, 271203, Note_on_c, 0, 48, 40
1, 271205, Control_c, 0, 64, 28
1, 271220, Control_c, 0, 64, 0
1, 271317, Control_c, 0, 64, 25
1, 271328, Note_on_c, 0, 64, 46
1, 271332, Control_c, 0, 64, 38
1, 271347, Control_c, 0, 64, 50
1, 271352, Note_off_c, 0, 52, 57
1, 271360, Note_off_c, 0, 60, 33
1, 271361, Control_c, 0, 64, 59
1, 271376, Control_c, 0, 64, 62
1, 271406, Control_c, 0, 64, 62
1, 271420, Control_c, 0, 64, 63
1, 271434, Note_on_c, 0, 67, 57
1, 271435, Control_c, 0, 64, 64
1, 271461, Note_off_c, 0, 64, 57
1, 271494, Control_c, 0, 64, 62
1, 271509, Control_c, 0, 64, 57
1, 271524, Control_c, 0, 64, 46
1, 271539, Control_c, 0, 64, 26
1, 271545, Note_off_c, 0, 67, 54
1, 271548, Note_on_c, 0, 53, 54
1, 271551, Note_on_c, 0, 62, 64
1, 271554, Control_c, 0, 64, 0
1, 271559, Note_on_c, 0, 50, 49
1, 271613, Control_c, 0, 64, 14
1, 271628, Control_c, 0, 64, 28
1, 271643, Control_c, 0, 64, 44
1, 271658, Control_c, 0, 64, 55
1, 271667, Note_on_c, 0, 65, 69
1, 271673, Control_c, 0, 64, 62
1, 271678, Note_off_c, 0, 48, 45
1, 271687, Control_c, 0, 64, 64
1, 271714, Note_off_c, 0, 62, 38
1, 271731, Control_c, 0, 64, 64
1, 271761, Control_c, 0, 64, 65
1, 271768, Note_on_c, 0, 67, 77
1, 271777, Control_c, 0, 64, 64
1, 271790, Note_off_c, 0, 65, 62
1, 271792, Control_c, 0, 64, 62
1, 271807, Control_c, 0, 64, 56
1, 271822, Control_c, 0, 64, 43
1, 271836, Control_c, 0, 64, 17
1, 271851, Control_c, 0, 64, 0
1, 271866, Control_c, 0, 64, 14
1, 271870, Note_on_c, 0, 62, 79
1, 271881, Control_c, 0, 64, 26
1, 271896, Control_c, 0, 64, 36
1, 271910, Control_c, 0, 64, 49
1, 271925, Control_c, 0, 64, 62
1, 271940, Control_c, 0, 64, 68
1, 271944, Note_off_c, 0, 67, 36
1, 271954, Control_c, 0, 64, 68
1, 271982, Note_on_c, 0, 65, 84
1, 271984, Control_c, 0, 64, 69
1, 271999, Control_c, 0, 64, 72
1, 272012, Note_off_c, 0, 62, 59
1, 272014, Control_c, 0, 64, 75
1, 272028, Control_c, 0, 64, 76
1, 272066, Control_c, 0, 64, 74
1, 272081, Control_c, 0, 64, 68
1, 272096, Control_c, 0, 64, 60
1, 272100, Note_on_c, 0, 69, 88
1, 272110, Control_c, 0, 64, 43
1, 272117, Note_off_c, 0, 65, 62
1, 272125, Control_c, 0, 64, 0
1, 272140, Control_c, 0, 64, 14
1, 272155, Control_c, 0, 64, 32
1, 272169, Control_c, 0, 64, 48
1, 272184, Control_c, 0, 64, 64
1, 272197, Note_on_c, 0, 62, 84
1, 272199, Control_c, 0, 64, 87
1, 272200, Note_off_c, 0, 53, 62
1, 272214, Control_c, 0, 64, 92
1, 272228, Control_c, 0, 64, 93
1, 272242, Control_c, 0, 64, 94
1, 272244, Note_off_c, 0, 50, 63
1, 272251, Note_off_c, 0, 69, 56
1, 272257, Control_c, 0, 64, 95
1, 272275, Note_off_c, 0, 43, 41
1, 272296, Note_on_c, 0, 65, 87
1, 272322, Note_off_c, 0, 62, 57
1, 272347, Control_c, 0, 64, 97
1, 272361, Control_c, 0, 64, 103
1, 272376, Control_c, 0, 64, 108
1, 272406, Control_c, 0, 64, 100
1, 272406, Note_on_c, 0, 71, 77
1, 272412, Note_off_c, 0, 65, 62
1, 272421, Control_c, 0, 64, 83
1, 272435, Control_c, 0, 64, 66
1, 272441, Note_off_c, 0, 71, 62
1, 272450, Control_c, 0, 64, 45
1, 272465, Control_c, 0, 64, 0
1, 272512, Note_on_c, 0, 72, 93
1, 272513, Note_on_c, 0, 64, 84
1, 272515, Note_on_c, 0, 36, 73
1, 272517, Note_on_c, 0, 48, 81
1, 272539, Control_c, 0, 64, 17
1, 272540, Note_off_c, 0, 36, 66
1, 272540, Note_off_c, 0, 64, 65
1, 272542, Note_off_c, 0, 48, 70
1, 272549, Note_off_c, 0, 72, 62
1, 272553, Control_c, 0, 64, 47
1, 272568, Control_c, 0, 64, 67
1, 272584, Control_c, 0, 64, 114
1, 272599, Control_c, 0, 64, 122
1, 272639, Note_on_c, 0, 55, 92
1, 272703, Control_c, 0, 64, 127
1, 272732, Note_on_c, 0, 52, 84
1, 272744, Note_off_c, 0, 55, 58
1, 272791, Control_c, 0, 64, 110
1, 272814, Control_c, 0, 64, 80
1, 272818, Note_off_c, 0, 52, 59
1, 272829, Control_c, 0, 64, 62
1, 272844, Control_c, 0, 64, 31
1, 272848, Note_on_c, 0, 55, 91
1, 272859, Control_c, 0, 64, 0
1, 272860, Note_on_c, 0, 43, 83
1, 272957, Note_on_c, 0, 60, 84
1, 272970, Note_off_c, 0, 55, 63
1, 273066, Note_on_c, 0, 64, 83
1, 273072, Note_off_c, 0, 60, 65
1, 273167, Note_on_c, 0, 62, 90
1, 273184, Control_c, 0, 64, 39
1, 273191, Note_off_c, 0, 64, 63
1, 273199, Control_c, 0, 64, 60
1, 273214, Control_c, 0, 64, 89
1, 273229, Control_c, 0, 64, 114
1, 273234, Note_off_c, 0, 43, 58
1, 273258, Control_c, 0, 64, 127
1, 273276, Note_on_c, 0, 59, 80
1, 273279, Note_off_c, 0, 62, 63
1, 273377, Note_off_c, 0, 59, 47
1, 273378, Note_on_c, 0, 55, 81
1, 273437, Control_c, 0, 64, 105
1, 273452, Control_c, 0, 64, 77
1, 273467, Control_c, 0, 64, 57
1, 273473, Note_off_c, 0, 55, 45
1, 273473, Note_on_c, 0, 59, 90
1, 273476, Note_on_c, 0, 43, 83
1, 273481, Control_c, 0, 64, 0
1, 273584, Note_on_c, 0, 62, 86
1, 273607, Note_off_c, 0, 59, 62
1, 273680, Note_off_c, 0, 62, 64
1, 273687, Note_on_c, 0, 65, 87
1, 273785, Control_c, 0, 64, 11
1, 273786, Note_on_c, 0, 64, 89
1, 273800, Control_c, 0, 64, 31
1, 273805, Note_off_c, 0, 65, 64
1, 273814, Control_c, 0, 64, 48
1, 273829, Control_c, 0, 64, 63
1, 273844, Control_c, 0, 64, 80
1, 273859, Control_c, 0, 64, 81
1, 273874, Control_c, 0, 64, 82
1, 273885, Note_off_c, 0, 43, 38
1, 273888, Control_c, 0, 64, 84
1, 273889, Note_on_c, 0, 60, 83
1, 273891, Note_off_c, 0, 64, 62
1, 273903, Control_c, 0, 64, 87
1, 273918, Control_c, 0, 64, 89
1, 273932, Control_c, 0, 64, 91
1, 273947, Control_c, 0, 64, 92
1, 273962, Control_c, 0, 64, 93
1, 273997, Note_on_c, 0, 55, 84
1, 274007, Control_c, 0, 64, 92
1, 274017, Note_off_c, 0, 60, 53
1, 274022, Control_c, 0, 64, 84
1, 274037, Control_c, 0, 64, 70
1, 274052, Control_c, 0, 64, 60
1, 274064, Note_off_c, 0, 55, 61
1, 274067, Control_c, 0, 64, 39
1, 274081, Control_c, 0, 64, 0
1, 274084, Note_on_c, 0, 43, 89
1, 274090, Note_on_c, 0, 60, 89
1, 274194, Note_on_c, 0, 64, 83
1, 274204, Note_off_c, 0, 60, 63
1, 274295, Note_on_c, 0, 67, 85
1, 274309, Note_off_c, 0, 64, 63
1, 274371, Control_c, 0, 64, 18
1, 274385, Control_c, 0, 64, 42
1, 274397, Note_on_c, 0, 65, 90
1, 274400, Control_c, 0, 64, 57
1, 274415, Control_c, 0, 64, 66
1, 274421, Note_off_c, 0, 67, 62
1, 274430, Control_c, 0, 64, 69
1, 274434, Note_off_c, 0, 43, 57
1, 274445, Control_c, 0, 64, 72
1, 274460, Control_c, 0, 64, 77
1, 274474, Control_c, 0, 64, 79
1, 274489, Control_c, 0, 64, 80
1, 274493, Note_on_c, 0, 62, 87
1, 274496, Note_off_c, 0, 65, 66
1, 274548, Control_c, 0, 64, 80
1, 274562, Control_c, 0, 64, 76
1, 274577, Control_c, 0, 64, 69
1, 274585, Note_off_c, 0, 62, 59
1, 274591, Note_on_c, 0, 59, 76
1, 274592, Control_c, 0, 64, 59
1, 274607, Control_c, 0, 64, 33
1, 274622, Control_c, 0, 64, 0
1, 274648, Note_off_c, 0, 59, 62
1, 274681, Control_c, 0, 64, 16
1, 274687, Note_on_c, 0, 43, 89
1, 274690, Note_on_c, 0, 71, 93
1, 274696, Control_c, 0, 64, 45
1, 274710, Control_c, 0, 64, 61
1, 274722, Note_off_c, 0, 43, 62
1, 274725, Control_c, 0, 64, 73
1, 274740, Control_c, 0, 64, 77
1, 274788, Note_on_c, 0, 65, 81
1, 274809, Note_off_c, 0, 71, 61
1, 274844, Control_c, 0, 64, 76
1, 274859, Control_c, 0, 64, 72
1, 274874, Control_c, 0, 64, 65
1, 274876, Note_off_c, 0, 65, 65
1, 274883, Note_on_c, 0, 62, 74
1, 274889, Control_c, 0, 64, 51
1, 274903, Control_c, 0, 64, 13
1, 274918, Control_c, 0, 64, 0
1, 274946, Note_off_c, 0, 62, 61
1, 274983, Note_on_c, 0, 48, 86
1, 274985, Note_on_c, 0, 72, 88
1, 274992, Note_on_c, 0, 64, 83
1, 275038, Control_c, 0, 64, 25
1, 275038, Note_off_c, 0, 64, 60
1, 275041, Note_off_c, 0, 72, 64
1, 275059, Control_c, 0, 64, 44
1, 275074, Control_c, 0, 64, 58
1, 275086, Note_on_c, 0, 43, 90
1, 275089, Control_c, 0, 64, 67
1, 275101, Note_off_c, 0, 48, 60
1, 275104, Control_c, 0, 64, 68
1, 275134, Control_c, 0, 64, 70
1, 275149, Control_c, 0, 64, 72
1, 275163, Control_c, 0, 64, 74
1, 275178, Control_c, 0, 64, 75
1, 275191, Note_on_c, 0, 40, 80
1, 275208, Note_off_c, 0, 43, 61
1, 275208, Control_c, 0, 64, 75
1, 275223, Control_c, 0, 64, 70
1, 275238, Control_c, 0, 64, 63
1, 275252, Control_c, 0, 64, 50
1, 275267, Control_c, 0, 64, 0
1, 275308, Note_on_c, 0, 43, 78
1, 275313, Note_on_c, 0, 67, 90
1, 275323, Note_off_c, 0, 40, 63
1, 275410, Note_off_c, 0, 43, 59
1, 275414, Note_on_c, 0, 48, 79
1, 275496, Note_off_c, 0, 48, 61
1, 275515, Note_on_c, 0, 52, 85
1, 275618, Note_on_c, 0, 50, 78
1, 275628, Note_off_c, 0, 52, 66
1, 275637, Control_c, 0, 64, 20
1, 275652, Control_c, 0, 64, 42
1, 275667, Control_c, 0, 64, 57
1, 275682, Control_c, 0, 64, 69
1, 275696, Control_c, 0, 64, 75
1, 275709, Note_off_c, 0, 50, 65
1, 275715, Note_on_c, 0, 47, 82
1, 275819, Note_off_c, 0, 67, 48
1, 275822, Note_on_c, 0, 43, 80
1, 275828, Note_off_c, 0, 47, 63
1, 275853, Note_on_c, 0, 45, 37
1, 275854, Note_off_c, 0, 45, 127
1, 275882, Control_c, 0, 64, 73
1, 275897, Control_c, 0, 64, 69
1, 275912, Control_c, 0, 64, 62
1, 275924, Note_on_c, 0, 67, 93
1, 275925, Note_on_c, 0, 47, 89
1, 275927, Control_c, 0, 64, 47
1, 275942, Control_c, 0, 64, 0
1, 275971, Note_off_c, 0, 43, 52
1, 276035, Note_on_c, 0, 50, 85
1, 276042, Note_off_c, 0, 47, 64
1, 276133, Note_on_c, 0, 53, 84
1, 276135, Note_off_c, 0, 50, 59
1, 276207, Note_off_c, 0, 53, 0
1, 276231, Note_on_c, 0, 52, 92
1, 276249, Poly_aftertouch_c, 0, 53, 0
1, 276282, Control_c, 0, 64, 23
1, 276297, Control_c, 0, 64, 37
1, 276312, Control_c, 0, 64, 53
1, 276326, Control_c, 0, 64, 66
1, 276329, Note_on_c, 0, 48, 86
1, 276341, Control_c, 0, 64, 71
1, 276350, Note_off_c, 0, 52, 66
1, 276430, Control_c, 0, 64, 71
1, 276431, Note_on_c, 0, 43, 89
1, 276443, Note_off_c, 0, 48, 65
1, 276460, Note_off_c, 0, 67, 56
1, 276475, Control_c, 0, 64, 70
1, 276490, Control_c, 0, 64, 66
1, 276505, Control_c, 0, 64, 60
1, 276519, Control_c, 0, 64, 37
1, 276534, Control_c, 0, 64, 0
1, 276552, Note_on_c, 0, 48, 89
1, 276559, Note_on_c, 0, 67, 89
1, 276570, Note_off_c, 0, 43, 61
1, 276658, Note_on_c, 0, 52, 87
1, 276669, Note_off_c, 0, 48, 62
1, 276756, Note_off_c, 0, 52, 46
1, 276760, Note_on_c, 0, 55, 89
1, 276859, Note_on_c, 0, 53, 86
1, 276870, Note_off_c, 0, 55, 64
1, 276898, Control_c, 0, 64, 19
1, 276913, Control_c, 0, 64, 32
1, 276928, Control_c, 0, 64, 47
1, 276943, Control_c, 0, 64, 60
1, 276957, Control_c, 0, 64, 65
1, 276963, Note_on_c, 0, 50, 86
1, 276982, Note_off_c, 0, 53, 64
1, 277031, Control_c, 0, 64, 64
1, 277046, Control_c, 0, 64, 60
1, 277056, Note_off_c, 0, 50, 63
1, 277058, Note_on_c, 0, 47, 86
1, 277061, Control_c, 0, 64, 48
1, 277076, Control_c, 0, 64, 0
1, 277083, Note_off_c, 0, 67, 58
1, 277163, Note_on_c, 0, 59, 86
1, 277172, Note_on_c, 0, 67, 88
1, 277209, Control_c, 0, 64, 28
1, 277223, Control_c, 0, 64, 46
1, 277238, Control_c, 0, 64, 61
1, 277253, Control_c, 0, 64, 71
1, 277262, Note_off_c, 0, 59, 55
1, 277267, Note_on_c, 0, 53, 81
1, 277268, Control_c, 0, 64, 72
1, 277299, Note_off_c, 0, 67, 61
1, 277301, Note_off_c, 0, 47, 58
1, 277378, Note_on_c, 0, 50, 82
1, 277394, Note_off_c, 0, 53, 68
1, 277410, Control_c, 0, 64, 71
1, 277414, Note_off_c, 0, 50, 64
1, 277425, Control_c, 0, 64, 67
1, 277440, Control_c, 0, 64, 62
1, 277454, Control_c, 0, 64, 51
1, 277470, Control_c, 0, 64, 20
1, 277485, Control_c, 0, 64, 0
1, 277509, Note_on_c, 0, 52, 77
1, 277511, Note_on_c, 0, 72, 78
1, 277605, Note_off_c, 0, 72, 60
1, 277608, Note_on_c, 0, 67, 76
1, 277615, Note_on_c, 0, 55, 73
1, 277622, Note_off_c, 0, 52, 65
1, 277633, Control_c, 0, 64, 22
1, 277647, Control_c, 0, 64, 37
1, 277662, Control_c, 0, 64, 51
1, 277677, Control_c, 0, 64, 61
1, 277685, Note_off_c, 0, 67, 54
1, 277692, Control_c, 0, 64, 64
1, 277703, Note_on_c, 0, 64, 83
1, 277706, Note_on_c, 0, 60, 78
1, 277707, Control_c, 0, 64, 66
1, 277708, Note_off_c, 0, 55, 59
1, 277721, Control_c, 0, 64, 67
1, 277736, Control_c, 0, 64, 69
1, 277751, Control_c, 0, 64, 69
1, 277766, Control_c, 0, 64, 70
1, 277794, Note_off_c, 0, 60, 53
1, 277801, Note_on_c, 0, 67, 86
1, 277808, Note_on_c, 0, 55, 76
1, 277816, Note_off_c, 0, 64, 58
1, 277825, Control_c, 0, 64, 70
1, 277899, Note_on_c, 0, 52, 68
1, 277899, Note_on_c, 0, 72, 84
1, 277901, Note_off_c, 0, 55, 63
1, 277909, Note_off_c, 0, 67, 59
1, 277987, Note_off_c, 0, 52, 63
1, 277995, Note_on_c, 0, 48, 76
1, 277999, Note_on_c, 0, 76, 88
1, 278008, Note_off_c, 0, 72, 62
1, 278055, Control_c, 0, 64, 66
1, 278070, Control_c, 0, 64, 58
1, 278085, Control_c, 0, 64, 34
1, 278094, Note_off_c, 0, 48, 58
1, 278099, Control_c, 0, 64, 0
1, 278108, Note_on_c, 0, 74, 88
1, 278111, Note_on_c, 0, 47, 74
1, 278128, Note_off_c, 0, 76, 62
1, 278205, Note_on_c, 0, 71, 86
1, 278207, Note_off_c, 0, 74, 65
1, 278211, Note_on_c, 0, 50, 76
1, 278219, Control_c, 0, 64, 29
1, 278221, Note_off_c, 0, 47, 63
1, 278234, Control_c, 0, 64, 39
1, 278249, Control_c, 0, 64, 50
1, 278264, Control_c, 0, 64, 56
1, 278278, Control_c, 0, 64, 60
1, 278293, Control_c, 0, 64, 63
1, 278296, Note_off_c, 0, 50, 59
1, 278302, Note_on_c, 0, 53, 77
1, 278304, Note_off_c, 0, 71, 46
1, 278307, Note_on_c, 0, 67, 88
1, 278308, Control_c, 0, 64, 66
1, 278323, Control_c, 0, 64, 68
1, 278401, Note_on_c, 0, 50, 82
1, 278407, Note_on_c, 0, 71, 87
1, 278409, Note_off_c, 0, 53, 58
1, 278425, Note_off_c, 0, 67, 55
1, 278500, Control_c, 0, 64, 68
1, 278507, Note_on_c, 0, 74, 88
1, 278511, Note_on_c, 0, 47, 71
1, 278530, Note_off_c, 0, 50, 60
1, 278533, Note_off_c, 0, 71, 61
1, 278544, Control_c, 0, 64, 69
1, 278559, Control_c, 0, 64, 69
1, 278574, Control_c, 0, 64, 70
1, 278589, Control_c, 0, 64, 71
1, 278598, Note_off_c, 0, 74, 64
1, 278601, Note_on_c, 0, 77, 91
1, 278615, Note_on_c, 0, 43, 74
1, 278615, Note_off_c, 0, 47, 64
1, 278618, Control_c, 0, 64, 68
1, 278633, Control_c, 0, 64, 62
1, 278648, Control_c, 0, 64, 47
1, 278663, Control_c, 0, 64, 0
1, 278702, Note_on_c, 0, 76, 93
1, 278711, Note_on_c, 0, 48, 82
1, 278718, Note_off_c, 0, 43, 60
1, 278727, Note_off_c, 0, 77, 62
1, 278782, Control_c, 0, 64, 31
1, 278803, Control_c, 0, 64, 48
1, 278812, Note_on_c, 0, 72, 92
1, 278818, Note_on_c, 0, 52, 84
1, 278818, Note_off_c, 0, 76, 64
1, 278818, Control_c, 0, 64, 63
1, 278832, Note_off_c, 0, 48, 61
1, 278833, Control_c, 0, 64, 69
1, 278848, Control_c, 0, 64, 69
1, 278893, Control_c, 0, 64, 70
1, 278909, Note_on_c, 0, 67, 90
1, 278913, Note_on_c, 0, 55, 74
1, 278914, Note_off_c, 0, 52, 64
1, 278924, Note_off_c, 0, 72, 60
1, 278987, Note_off_c, 0, 67, 51
1, 279012, Note_on_c, 0, 52, 78
1, 279012, Note_on_c, 0, 72, 90
1, 279014, Note_off_c, 0, 55, 60
1, 279103, Note_on_c, 0, 48, 76
1, 279106, Note_on_c, 0, 76, 91
1, 279112, Note_off_c, 0, 72, 62
1, 279115, Control_c, 0, 64, 70
1, 279126, Note_off_c, 0, 52, 64
1, 279144, Control_c, 0, 64, 71
1, 279189, Control_c, 0, 64, 68
1, 279202, Note_on_c, 0, 79, 92
1, 279204, Control_c, 0, 64, 61
1, 279206, Note_off_c, 0, 76, 63
1, 279209, Note_on_c, 0, 43, 80
1, 279218, Note_off_c, 0, 48, 57
1, 279218, Control_c, 0, 64, 42
1, 279233, Control_c, 0, 64, 0
1, 279301, Note_on_c, 0, 77, 93
1, 279304, Note_on_c, 0, 50, 84
1, 279304, Note_off_c, 0, 43, 51
1, 279324, Note_off_c, 0, 79, 61
1, 279337, Control_c, 0, 64, 27
1, 279352, Control_c, 0, 64, 40
1, 279367, Control_c, 0, 64, 49
1, 279381, Control_c, 0, 64, 56
1, 279393, Note_on_c, 0, 74, 86
1, 279396, Control_c, 0, 64, 58
1, 279399, Note_on_c, 0, 53, 81
1, 279402, Note_off_c, 0, 77, 62
1, 279411, Control_c, 0, 64, 61
1, 279420, Note_off_c, 0, 50, 60
1, 279426, Control_c, 0, 64, 66
1, 279441, Control_c, 0, 64, 72
1, 279456, Control_c, 0, 64, 74
1, 279474, Note_off_c, 0, 74, 62
1, 279486, Control_c, 0, 64, 73
1, 279488, Note_off_c, 0, 53, 61
1, 279489, Note_on_c, 0, 55, 77
1, 279492, Note_on_c, 0, 71, 79
1, 279500, Control_c, 0, 64, 70
1, 279515, Control_c, 0, 64, 64
1, 279530, Control_c, 0, 64, 55
1, 279550, Note_off_c, 0, 55, 65
1, 279551, Control_c, 0, 64, 25
1, 279554, Note_off_c, 0, 71, 64
1, 279566, Control_c, 0, 64, 0
1, 279595, Note_on_c, 0, 53, 91
1, 279599, Note_on_c, 0, 83, 98
1, 279641, Control_c, 0, 64, 39
1, 279656, Control_c, 0, 64, 56
1, 279670, Control_c, 0, 64, 71
1, 279683, Note_on_c, 0, 55, 80
1, 279685, Control_c, 0, 64, 75
1, 279701, Note_on_c, 0, 79, 83
1, 279711, Note_off_c, 0, 53, 63
1, 279715, Control_c, 0, 64, 76
1, 279724, Note_off_c, 0, 83, 60
1, 279744, Control_c, 0, 64, 77
1, 279757, Note_off_c, 0, 55, 66
1, 279759, Control_c, 0, 64, 78
1, 279775, Control_c, 0, 64, 79
1, 279781, Note_off_c, 0, 79, 63
1, 279793, Note_on_c, 0, 62, 79
1, 279798, Note_on_c, 0, 74, 75
1, 279805, Control_c, 0, 64, 75
1, 279820, Control_c, 0, 64, 67
1, 279835, Control_c, 0, 64, 55
1, 279849, Control_c, 0, 64, 13
1, 279858, Note_off_c, 0, 74, 62
1, 279863, Note_off_c, 0, 62, 60
1, 279864, Control_c, 0, 64, 0
1, 279894, Note_on_c, 0, 84, 105
1, 279896, Note_on_c, 0, 52, 88
1, 279923, Control_c, 0, 64, 12
1, 279938, Control_c, 0, 64, 43
1, 279953, Control_c, 0, 64, 62
1, 279967, Control_c, 0, 64, 92
1, 279982, Control_c, 0, 64, 97
1, 279988, Note_on_c, 0, 55, 79
1, 279997, Note_on_c, 0, 79, 80
1, 280007, Note_off_c, 0, 52, 61
1, 280026, Note_off_c, 0, 84, 61
1, 280041, Control_c, 0, 64, 98
1, 280056, Control_c, 0, 64, 101
1, 280064, Note_off_c, 0, 55, 65
1, 280071, Control_c, 0, 64, 103
1, 280080, Note_off_c, 0, 79, 62
1, 280082, Note_on_c, 0, 76, 82
1, 280086, Control_c, 0, 64, 104
1, 280088, Note_on_c, 0, 60, 76
1, 280100, Control_c, 0, 64, 103
1, 280115, Control_c, 0, 64, 98
1, 280130, Control_c, 0, 64, 79
1, 280136, Note_off_c, 0, 76, 65
1, 280144, Note_off_c, 0, 60, 62
1, 280145, Control_c, 0, 64, 61
1, 280160, Control_c, 0, 64, 36
1, 280174, Control_c, 0, 64, 0
1, 280175, Note_on_c, 0, 79, 102
1, 280181, Note_on_c, 0, 48, 80
1, 280234, Control_c, 0, 64, 31
1, 280249, Control_c, 0, 64, 54
1, 280264, Control_c, 0, 64, 68
1, 280270, Note_on_c, 0, 52, 77
1, 280273, Note_on_c, 0, 76, 81
1, 280274, Note_off_c, 0, 48, 62
1, 280279, Control_c, 0, 64, 82
1, 280298, Note_off_c, 0, 79, 59
1, 280300, Control_c, 0, 64, 82
1, 280345, Control_c, 0, 64, 84
1, 280357, Note_off_c, 0, 52, 66
1, 280360, Control_c, 0, 64, 85
1, 280364, Note_off_c, 0, 76, 62
1, 280374, Control_c, 0, 64, 86
1, 280380, Note_on_c, 0, 72, 71
1, 280384, Note_on_c, 0, 55, 74
1, 280389, Control_c, 0, 64, 85
1, 280404, Control_c, 0, 64, 79
1, 280419, Control_c, 0, 64, 67
1, 280434, Control_c, 0, 64, 50
1, 280436, Note_off_c, 0, 72, 61
1, 280449, Control_c, 0, 64, 0
1, 280453, Note_off_c, 0, 55, 57
1, 280472, Note_on_c, 0, 77, 99
1, 280473, Note_on_c, 0, 50, 85
1, 280508, Control_c, 0, 64, 14
1, 280523, Control_c, 0, 64, 39
1, 280538, Control_c, 0, 64, 58
1, 280553, Control_c, 0, 64, 70
1, 280568, Note_on_c, 0, 74, 72
1, 280568, Control_c, 0, 64, 75
1, 280577, Note_on_c, 0, 53, 71
1, 280581, Note_off_c, 0, 77, 58
1, 280598, Note_off_c, 0, 50, 61
1, 280613, Control_c, 0, 64, 75
1, 280627, Control_c, 0, 64, 78
1, 280642, Note_off_c, 0, 74, 64
1, 280642, Control_c, 0, 64, 87
1, 280656, Note_off_c, 0, 53, 65
1, 280657, Control_c, 0, 64, 102
1, 280663, Note_on_c, 0, 71, 69
1, 280666, Note_on_c, 0, 55, 73
1, 280672, Control_c, 0, 64, 104
1, 280687, Control_c, 0, 64, 89
1, 280702, Control_c, 0, 64, 68
1, 280716, Control_c, 0, 64, 53
1, 280727, Note_off_c, 0, 71, 61
1, 280728, Note_off_c, 0, 55, 61
1, 280731, Control_c, 0, 64, 43
1, 280746, Control_c, 0, 64, 45
1, 280761, Control_c, 0, 64, 52
1, 280764, Note_on_c, 0, 53, 80
1, 280767, Note_on_c, 0, 83, 98
1, 280776, Control_c, 0, 64, 57
1, 280790, Control_c, 0, 64, 65
1, 280805, Control_c, 0, 64, 76
1, 280820, Control_c, 0, 64, 85
1, 280852, Note_on_c, 0, 55, 75
1, 280864, Control_c, 0, 64, 83
1, 280868, Note_on_c, 0, 79, 75
1, 280870, Note_off_c, 0, 53, 63
1, 280878, Note_off_c, 0, 83, 60
1, 280879, Control_c, 0, 64, 79
1, 280894, Control_c, 0, 64, 78
1, 280923, Control_c, 0, 64, 76
1, 280932, Note_off_c, 0, 55, 58
1, 280934, Note_off_c, 0, 79, 63
1, 280938, Control_c, 0, 64, 70
1, 280953, Note_on_c, 0, 74, 66
1, 280953, Control_c, 0, 64, 61
1, 280958, Note_on_c, 0, 62, 69
1, 280968, Control_c, 0, 64, 45
1, 280983, Control_c, 0, 64, 0
1, 281028, Note_off_c, 0, 62, 57
1, 281058, Note_off_c, 0, 74, 60
1, 281064, Note_on_c, 0, 52, 73
1, 281065, Control_c, 0, 64, 27
1, 281067, Note_on_c, 0, 84, 97
1, 281079, Control_c, 0, 64, 47
1, 281094, Control_c, 0, 64, 62
1, 281109, Control_c, 0, 64, 74
1, 281157, Note_on_c, 0, 79, 77
1, 281159, Note_on_c, 0, 55, 68
1, 281164, Note_off_c, 0, 52, 64
1, 281175, Note_off_c, 0, 84, 56
1, 281232, Note_off_c, 0, 55, 62
1, 281246, Note_off_c, 0, 79, 62
1, 281258, Control_c, 0, 64, 73
1, 281260, Note_on_c, 0, 76, 68
1, 281262, Note_on_c, 0, 60, 70
1, 281272, Control_c, 0, 64, 70
1, 281287, Control_c, 0, 64, 64
1, 281302, Control_c, 0, 64, 49
1, 281317, Control_c, 0, 64, 0
1, 281318, Note_off_c, 0, 60, 61
1, 281348, Note_off_c, 0, 76, 44
1, 281353, Note_on_c, 0, 79, 88
1, 281358, Note_on_c, 0, 48, 67
1, 281377, Control_c, 0, 64, 9
1, 281392, Control_c, 0, 64, 36
1, 281407, Control_c, 0, 64, 51
1, 281421, Control_c, 0, 64, 61
1, 281436, Control_c, 0, 64, 64
1, 281444, Note_off_c, 0, 48, 62
1, 281450, Note_on_c, 0, 52, 62
1, 281450, Note_on_c, 0, 76, 76
1, 281456, Note_off_c, 0, 79, 60
1, 281510, Control_c, 0, 64, 65
1, 281517, Note_off_c, 0, 52, 64
1, 281521, Note_off_c, 0, 76, 63
1, 281544, Note_on_c, 0, 72, 63
1, 281548, Note_on_c, 0, 55, 62
1, 281555, Control_c, 0, 64, 64
1, 281569, Control_c, 0, 64, 60
1, 281584, Control_c, 0, 64, 48
1, 281599, Control_c, 0, 64, 21
1, 281614, Control_c, 0, 64, 0
1, 281632, Note_off_c, 0, 55, 49
1, 281632, Note_off_c, 0, 72, 51
1, 281650, Note_on_c, 0, 50, 56
1, 281654, Note_on_c, 0, 77, 76
1, 281674, Control_c, 0, 64, 31
1, 281688, Control_c, 0, 64, 45
1, 281703, Control_c, 0, 64, 56
1, 281718, Control_c, 0, 64, 63
1, 281733, Control_c, 0, 64, 64
1, 281734, Note_off_c, 0, 50, 63
1, 281736, Note_off_c, 0, 77, 60
1, 281746, Note_on_c, 0, 53, 60
1, 281747, Note_on_c, 0, 74, 60
1, 281762, Control_c, 0, 64, 64
1, 281777, Control_c, 0, 64, 65
1, 281799, Control_c, 0, 64, 65
1, 281814, Note_off_c, 0, 74, 65
1, 281816, Note_off_c, 0, 53, 62
1, 281844, Control_c, 0, 64, 64
1, 281849, Note_on_c, 0, 55, 59
1, 281850, Note_on_c, 0, 71, 54
1, 281859, Control_c, 0, 64, 61
1, 281873, Control_c, 0, 64, 50
1, 281888, Control_c, 0, 64, 27
1, 281891, Note_off_c, 0, 55, 57
1, 281899, Note_off_c, 0, 71, 53
1, 281903, Control_c, 0, 64, 0
1, 281939, Note_on_c, 0, 83, 80
1, 281940, Note_on_c, 0, 53, 57
1, 281947, Control_c, 0, 64, 14
1, 281962, Control_c, 0, 64, 35
1, 281977, Control_c, 0, 64, 52
1, 281992, Control_c, 0, 64, 63
1, 282007, Control_c, 0, 64, 66
1, 282012, Note_off_c, 0, 83, 63
1, 282018, Note_off_c, 0, 53, 63
1, 282020, Note_on_c, 0, 55, 62
1, 282037, Note_on_c, 0, 79, 61
1, 282073, Note_off_c, 0, 55, 62
1, 282080, Control_c, 0, 64, 67
1, 282083, Note_off_c, 0, 79, 60
1, 282095, Control_c, 0, 64, 68
1, 282110, Control_c, 0, 64, 69
1, 282120, Note_on_c, 0, 74, 50
1, 282121, Note_on_c, 0, 62, 52
1, 282125, Control_c, 0, 64, 69
1, 282145, Note_off_c, 0, 62, 61
1, 282182, Note_off_c, 0, 74, 52
1, 282185, Control_c, 0, 64, 67
1, 282200, Control_c, 0, 64, 63
1, 282215, Control_c, 0, 64, 52
1, 282222, Note_on_c, 0, 84, 77
1, 282230, Control_c, 0, 64, 19
1, 282234, Note_on_c, 0, 52, 58
1, 282244, Control_c, 0, 64, 0
1, 282267, Note_off_c, 0, 52, 66
1, 282291, Note_off_c, 0, 84, 59
1, 282300, Note_on_c, 0, 79, 60
1, 282306, Note_on_c, 0, 55, 57
1, 282340, Note_off_c, 0, 55, 65
1, 282353, Note_on_c, 0, 76, 56
1, 282365, Note_off_c, 0, 79, 62
1, 282397, Note_off_c, 0, 76, 65
1, 282399, Note_on_c, 0, 48, 42
1, 282423, Note_on_c, 0, 72, 57
1, 282436, Note_off_c, 0, 48, 52
1, 282447, Note_on_c, 0, 55, 58
1, 282454, Note_off_c, 0, 72, 52
1, 282485, Note_off_c, 0, 55, 67
1, 282499, Note_on_c, 0, 77, 60
1, 282509, Note_on_c, 0, 50, 48
1, 282535, Note_off_c, 0, 50, 60
1, 282536, Note_off_c, 0, 77, 61
1, 282570, Note_on_c, 0, 74, 57
1, 282595, Note_on_c, 0, 55, 52
1, 282612, Note_off_c, 0, 74, 59
1, 282626, Note_off_c, 0, 55, 58
1, 282634, Note_on_c, 0, 83, 60
1, 282656, Note_on_c, 0, 53, 53
1, 282681, Note_off_c, 0, 83, 62
1, 282699, Note_off_c, 0, 53, 64
1, 282700, Note_on_c, 0, 79, 57
1, 282711, Note_on_c, 0, 55, 62
1, 282744, Note_off_c, 0, 79, 56
1, 282750, Note_off_c, 0, 55, 66
1, 282768, Note_on_c, 0, 84, 73
1, 282777, Note_on_c, 0, 52, 47
1, 282804, Note_off_c, 0, 52, 61
1, 282830, Note_off_c, 0, 84, 59
1, 282837, Note_on_c, 0, 79, 69
1, 282843, Note_on_c, 0, 55, 49
1, 282874, Note_off_c, 0, 55, 58
1, 282901, Note_off_c, 0, 79, 62
1, 282905, Note_on_c, 0, 76, 58
1, 282917, Note_on_c, 0, 48, 48
1, 282946, Note_off_c, 0, 76, 64
1, 282950, Note_off_c, 0, 48, 62
1, 282967, Note_on_c, 0, 55, 61
1, 282970, Note_on_c, 0, 72, 57
1, 283000, Note_off_c, 0, 72, 52
1, 283011, Note_off_c, 0, 55, 63
1, 283034, Note_on_c, 0, 50, 49
1, 283043, Note_on_c, 0, 77, 66
1, 283060, Note_off_c, 0, 50, 61
1, 283079, Note_off_c, 0, 77, 61
1, 283102, Note_on_c, 0, 74, 60
1, 283107, Note_on_c, 0, 55, 51
1, 283146, Note_off_c, 0, 55, 53
1, 283146, Note_off_c, 0, 74, 61
1, 283175, Note_on_c, 0, 83, 70
1, 283177, Note_on_c, 0, 53, 59
1, 283221, Note_off_c, 0, 53, 64
1, 283233, Note_off_c, 0, 83, 61
1, 283237, Note_on_c, 0, 79, 65
1, 283243, Note_on_c, 0, 55, 54
1, 283275, Note_off_c, 0, 55, 58
1, 283298, Note_off_c, 0, 79, 54
1, 283316, Note_on_c, 0, 52, 51
1, 283320, Note_on_c, 0, 84, 72
1, 283343, Note_off_c, 0, 52, 63
1, 283371, Note_off_c, 0, 84, 62
1, 283373, Note_on_c, 0, 55, 61
1, 283389, Note_on_c, 0, 79, 70
1, 283423, Note_off_c, 0, 55, 57
1, 283430, Note_off_c, 0, 79, 59
1, 283459, Note_on_c, 0, 83, 63
1, 283459, Note_on_c, 0, 53, 54
1, 283499, Note_off_c, 0, 83, 64
1, 283502, Note_off_c, 0, 53, 65
1, 283528, Note_on_c, 0, 55, 47
1, 283537, Note_on_c, 0, 79, 63
1, 283561, Note_off_c, 0, 55, 58
1, 283566, Note_off_c, 0, 79, 57
1, 283588, Note_on_c, 0, 84, 81
1, 283590, Note_on_c, 0, 52, 53
1, 283623, Note_off_c, 0, 52, 67
1, 283630, Note_off_c, 0, 84, 61
1, 283651, Note_on_c, 0, 55, 66
1, 283655, Note_on_c, 0, 79, 61
1, 283716, Note_off_c, 0, 55, 62
1, 283718, Note_off_c, 0, 79, 51
1, 283735, Note_on_c, 0, 53, 62
1, 283737, Note_on_c, 0, 83, 72
1, 283784, Note_off_c, 0, 83, 61
1, 283793, Note_off_c, 0, 53, 64
1, 283808, Note_on_c, 0, 79, 62
1, 283814, Note_on_c, 0, 55, 57
1, 283853, Note_off_c, 0, 79, 53
1, 283859, Note_off_c, 0, 55, 64
1, 283864, Note_on_c, 0, 84, 88
1, 283874, Note_on_c, 0, 52, 66
1, 283901, Note_off_c, 0, 52, 67
1, 283916, Note_off_c, 0, 84, 60
1, 283942, Note_on_c, 0, 55, 62
1, 283948, Note_on_c, 0, 79, 66
1, 283994, Note_off_c, 0, 79, 53
1, 283999, Note_off_c, 0, 55, 62
1, 284018, Note_on_c, 0, 53, 63
1, 284020, Note_on_c, 0, 83, 76
1, 284073, Note_off_c, 0, 83, 62
1, 284077, Note_off_c, 0, 53, 65
1, 284097, Note_on_c, 0, 79, 61
1, 284097, Note_on_c, 0, 55, 57
1, 284139, Note_off_c, 0, 79, 57
1, 284144, Note_off_c, 0, 55, 60
1, 284155, Note_on_c, 0, 84, 94
1, 284161, Note_on_c, 0, 52, 72
1, 284192, Note_off_c, 0, 52, 65
1, 284212, Note_off_c, 0, 84, 59
1, 284233, Note_on_c, 0, 55, 71
1, 284244, Note_on_c, 0, 79, 73
1, 284291, Note_off_c, 0, 55, 56
1, 284312, Note_on_c, 0, 53, 68
1, 284316, Note_off_c, 0, 79, 58
1, 284318, Note_on_c, 0, 83, 83
1, 284363, Note_off_c, 0, 53, 66
1, 284366, Note_off_c, 0, 83, 65
1, 284383, Note_on_c, 0, 55, 62
1, 284388, Note_on_c, 0, 79, 59
1, 284417, Note_off_c, 0, 55, 66
1, 284437, Note_off_c, 0, 79, 56
1, 284439, Note_on_c, 0, 84, 96
1, 284449, Note_on_c, 0, 52, 72
1, 284460, Control_c, 0, 64, 23
1, 284475, Control_c, 0, 64, 42
1, 284488, Note_off_c, 0, 52, 64
1, 284490, Control_c, 0, 64, 57
1, 284505, Control_c, 0, 64, 70
1, 284512, Note_on_c, 0, 55, 74
1, 284515, Note_off_c, 0, 84, 63
1, 284518, Note_on_c, 0, 79, 78
1, 284520, Control_c, 0, 64, 80
1, 284538, Note_off_c, 0, 55, 68
1, 284549, Control_c, 0, 64, 81
1, 284583, Note_off_c, 0, 79, 57
1, 284595, Note_on_c, 0, 82, 86
1, 284616, Note_on_c, 0, 40, 80
1, 284625, Control_c, 0, 64, 78
1, 284639, Control_c, 0, 64, 68
1, 284654, Control_c, 0, 64, 58
1, 284660, Note_off_c, 0, 82, 63
1, 284662, Note_off_c, 0, 40, 57
1, 284667, Note_on_c, 0, 79, 86
1, 284669, Control_c, 0, 64, 37
1, 284682, Note_on_c, 0, 48, 77
1, 284683, Control_c, 0, 64, 0
1, 284726, Note_off_c, 0, 79, 51
1, 284728, Note_off_c, 0, 48, 63
1, 284739, Note_on_c, 0, 82, 93
1, 284757, Note_on_c, 0, 40, 86
1, 284810, Note_off_c, 0, 82, 65
1, 284811, Note_off_c, 0, 40, 64
1, 284816, Note_on_c, 0, 79, 83
1, 284831, Note_on_c, 0, 48, 77
1, 284874, Note_off_c, 0, 48, 65
1, 284886, Note_off_c, 0, 79, 47
1, 284890, Note_on_c, 0, 82, 93
1, 284901, Note_on_c, 0, 40, 81
1, 284946, Note_off_c, 0, 40, 65
1, 284954, Note_off_c, 0, 82, 64
1, 284957, Note_on_c, 0, 79, 86
1, 284968, Note_on_c, 0, 48, 77
1, 285009, Note_off_c, 0, 79, 61
1, 285011, Note_off_c, 0, 48, 65
1, 285034, Note_on_c, 0, 82, 94
1, 285038, Note_on_c, 0, 40, 86
1, 285088, Note_off_c, 0, 40, 64
1, 285100, Note_on_c, 0, 48, 81
1, 285100, Note_off_c, 0, 82, 65
1, 285103, Note_on_c, 0, 79, 88
1, 285154, Note_off_c, 0, 48, 65
1, 285161, Note_off_c, 0, 79, 55
1, 285175, Note_on_c, 0, 40, 87
1, 285181, Note_on_c, 0, 82, 98
1, 285226, Note_off_c, 0, 40, 63
1, 285239, Note_on_c, 0, 48, 83
1, 285245, Note_off_c, 0, 82, 65
1, 285250, Note_on_c, 0, 79, 88
1, 285293, Note_off_c, 0, 48, 66
1, 285318, Note_off_c, 0, 79, 49
1, 285319, Note_on_c, 0, 40, 83
1, 285322, Note_on_c, 0, 82, 98
1, 285382, Note_off_c, 0, 40, 63
1, 285388, Note_on_c, 0, 48, 82
1, 285394, Note_off_c, 0, 82, 64
1, 285399, Note_on_c, 0, 79, 91
1, 285445, Note_off_c, 0, 48, 65
1, 285448, Note_off_c, 0, 79, 61
1, 285467, Note_on_c, 0, 82, 95
1, 285469, Note_on_c, 0, 40, 87
1, 285543, Note_on_c, 0, 79, 88
1, 285543, Note_off_c, 0, 82, 63
1, 285548, Note_off_c, 0, 40, 64
1, 285559, Note_on_c, 0, 48, 85
1, 285603, Note_off_c, 0, 79, 63
1, 285618, Note_off_c, 0, 48, 66
1, 285637, Note_on_c, 0, 82, 98
1, 285643, Note_on_c, 0, 40, 94
1, 285677, Control_c, 0, 64, 43
1, 285692, Control_c, 0, 64, 58
1, 285700, Note_on_c, 0, 41, 31
1, 285707, Control_c, 0, 64, 91
1, 285721, Control_c, 0, 64, 127
1, 285731, Note_on_c, 0, 48, 88
1, 285740, Note_off_c, 0, 41, 55
1, 285747, Note_off_c, 0, 40, 63
1, 285842, Note_on_c, 0, 40, 85
1, 285846, Note_off_c, 0, 48, 60
1, 285848, Note_off_c, 0, 82, 39
1, 285855, Note_on_c, 0, 81, 89
1, 285914, Note_on_c, 0, 48, 86
1, 285930, Note_off_c, 0, 40, 62
1, 285933, Note_on_c, 0, 79, 85
1, 285957, Note_off_c, 0, 81, 61
1, 285973, Control_c, 0, 64, 71
1, 285987, Control_c, 0, 64, 52
1, 285997, Note_on_c, 0, 40, 85
1, 286002, Control_c, 0, 64, 0
1, 286008, Note_off_c, 0, 48, 61
1, 286011, Note_off_c, 0, 79, 63
1, 286026, Poly_aftertouch_c, 0, 77, 127
1, 286075, Note_on_c, 0, 48, 82
1, 286076, Poly_aftertouch_c, 0, 77, 0
1, 286085, Note_on_c, 0, 76, 90
1, 286088, Note_off_c, 0, 40, 60
1, 286118, Poly_aftertouch_c, 0, 77, 0
1, 286163, Note_on_c, 0, 74, 82
1, 286165, Note_on_c, 0, 40, 79
1, 286178, Note_off_c, 0, 76, 63
1, 286181, Note_off_c, 0, 48, 62
1, 286223, Note_off_c, 0, 74, 66
1, 286230, Note_on_c, 0, 72, 82
1, 286236, Note_on_c, 0, 48, 75
1, 286244, Note_off_c, 0, 40, 63
1, 286276, Note_off_c, 0, 72, 64
1, 286312, Note_off_c, 0, 48, 55
1, 286317, Note_on_c, 0, 70, 83
1, 286333, Note_on_c, 0, 40, 82
1, 286390, Note_on_c, 0, 69, 90
1, 286406, Note_off_c, 0, 40, 63
1, 286408, Note_on_c, 0, 48, 77
1, 286423, Note_off_c, 0, 70, 62
1, 286465, Note_on_c, 0, 67, 85
1, 286469, Note_off_c, 0, 48, 63
1, 286491, Note_off_c, 0, 69, 64
1, 286497, Note_on_c, 0, 40, 82
1, 286525, Note_on_c, 0, 65, 83
1, 286535, Note_off_c, 0, 67, 65
1, 286559, Note_off_c, 0, 40, 61
1, 286576, Note_on_c, 0, 48, 79
1, 286586, Note_off_c, 0, 65, 62
1, 286611, Note_on_c, 0, 64, 85
1, 286613, Note_off_c, 0, 48, 66
1, 286644, Note_on_c, 0, 40, 78
1, 286686, Note_on_c, 0, 62, 80
1, 286692, Note_off_c, 0, 40, 64
1, 286703, Note_off_c, 0, 64, 61
1, 286718, Note_on_c, 0, 48, 76
1, 286750, Note_off_c, 0, 62, 64
1, 286753, Note_on_c, 0, 60, 73
1, 286756, Note_off_c, 0, 48, 67
1, 286790, Note_off_c, 0, 60, 61
1, 286792, Note_on_c, 0, 40, 71
1, 286842, Note_on_c, 0, 58, 74
1, 286843, Note_off_c, 0, 40, 62
1, 286855, Note_on_c, 0, 48, 73
1, 286882, Note_off_c, 0, 48, 66
1, 286908, Note_off_c, 0, 58, 59
1, 286932, Note_on_c, 0, 57, 78
1, 286944, Control_c, 0, 64, 40
1, 286946, Note_on_c, 0, 48, 96
1, 286950, Note_on_c, 0, 41, 86
1, 286952, Note_on_c, 0, 45, 82
1, 286959, Control_c, 0, 64, 61
1, 286974, Control_c, 0, 64, 114
1, 286986, Note_off_c, 0, 41, 65
1, 286989, Control_c, 0, 64, 127
1, 286990, Note_off_c, 0, 48, 66
1, 286992, Note_off_c, 0, 45, 62
1, 287013, Note_on_c, 0, 59, 77
1, 287048, Note_off_c, 0, 57, 53
1, 287085, Control_c, 0, 64, 83
1, 287100, Note_off_c, 0, 59, 60
1, 287100, Control_c, 0, 64, 62
1, 287102, Note_on_c, 0, 60, 80
1, 287115, Control_c, 0, 64, 36
1, 287116, Note_on_c, 0, 48, 82
1, 287122, Note_on_c, 0, 45, 63
1, 287124, Note_on_c, 0, 41, 59
1, 287130, Control_c, 0, 64, 0
1, 287138, Note_off_c, 0, 48, 72
1, 287146, Note_off_c, 0, 41, 67
1, 287152, Note_off_c, 0, 45, 65
1, 287176, Note_off_c, 0, 60, 65
1, 287185, Note_on_c, 0, 59, 67
1, 287227, Note_off_c, 0, 59, 63
1, 287265, Note_on_c, 0, 60, 75
1, 287320, Note_off_c, 0, 60, 57
1, 287341, Note_on_c, 0, 64, 76
1, 287400, Note_on_c, 0, 45, 59
1, 287403, Note_on_c, 0, 48, 58
1, 287406, Note_on_c, 0, 41, 48
1, 287406, Note_off_c, 0, 64, 61
1, 287415, Note_on_c, 0, 65, 76
1, 287427, Note_off_c, 0, 48, 59
1, 287427, Note_off_c, 0, 45, 63
1, 287437, Note_off_c, 0, 41, 53
1, 287484, Note_off_c, 0, 65, 66
1, 287488, Note_on_c, 0, 64, 69
1, 287543, Note_off_c, 0, 64, 63
1, 287557, Note_on_c, 0, 65, 87
1, 287559, Note_on_c, 0, 48, 92
1, 287561, Note_on_c, 0, 41, 72
1, 287564, Note_on_c, 0, 45, 76
1, 287573, Control_c, 0, 64, 20
1, 287588, Note_off_c, 0, 45, 67
1, 287588, Control_c, 0, 64, 47
1, 287592, Note_off_c, 0, 41, 68
1, 287592, Note_off_c, 0, 48, 64
1, 287603, Control_c, 0, 64, 64
1, 287618, Control_c, 0, 64, 82
1, 287633, Control_c, 0, 64, 88
1, 287642, Note_on_c, 0, 68, 84
1, 287651, Note_off_c, 0, 65, 61
1, 287677, Control_c, 0, 64, 82
1, 287692, Control_c, 0, 64, 67
1, 287707, Control_c, 0, 64, 50
1, 287722, Note_off_c, 0, 68, 60
1, 287722, Control_c, 0, 64, 0
1, 287724, Note_on_c, 0, 48, 73
1, 287725, Note_on_c, 0, 45, 49
1, 287725, Note_on_c, 0, 69, 73
1, 287728, Note_on_c, 0, 41, 62
1, 287746, Note_off_c, 0, 41, 68
1, 287748, Note_off_c, 0, 48, 65
1, 287756, Note_off_c, 0, 45, 61
1, 287810, Note_on_c, 0, 68, 80
1, 287814, Note_off_c, 0, 69, 64
1, 287877, Note_off_c, 0, 68, 61
1, 287878, Note_on_c, 0, 69, 79
1, 287954, Note_off_c, 0, 69, 62
1, 287955, Note_on_c, 0, 71, 83
1, 288024, Note_off_c, 0, 71, 64
1, 288029, Note_on_c, 0, 72, 76
1, 288042, Note_on_c, 0, 45, 61
1, 288047, Note_on_c, 0, 48, 59
1, 288052, Note_on_c, 0, 41, 50
1, 288068, Note_off_c, 0, 45, 65
1, 288071, Note_off_c, 0, 48, 62
1, 288083, Note_off_c, 0, 41, 55
1, 288102, Note_off_c, 0, 72, 64
1, 288104, Note_on_c, 0, 71, 76
1, 288182, Note_off_c, 0, 71, 61
1, 288187, Note_on_c, 0, 48, 94
1, 288187, Note_on_c, 0, 41, 80
1, 288187, Note_on_c, 0, 72, 92
1, 288192, Note_on_c, 0, 45, 81
1, 288204, Control_c, 0, 64, 10
1, 288219, Control_c, 0, 64, 42
1, 288226, Note_off_c, 0, 45, 59
1, 288233, Control_c, 0, 64, 56
1, 288235, Note_off_c, 0, 41, 61
1, 288236, Note_off_c, 0, 48, 62
1, 288248, Control_c, 0, 64, 69
1, 288263, Control_c, 0, 64, 87
1, 288278, Control_c, 0, 64, 88
1, 288285, Note_on_c, 0, 76, 77
1, 288285, Note_off_c, 0, 72, 56
1, 288307, Control_c, 0, 64, 88
1, 288322, Control_c, 0, 64, 78
1, 288337, Control_c, 0, 64, 64
1, 288346, Note_on_c, 0, 48, 84
1, 288351, Note_on_c, 0, 41, 62
1, 288352, Control_c, 0, 64, 47
1, 288358, Note_on_c, 0, 45, 59
1, 288361, Note_on_c, 0, 77, 82
1, 288365, Note_off_c, 0, 76, 64
1, 288367, Control_c, 0, 64, 0
1, 288371, Note_off_c, 0, 48, 70
1, 288378, Note_off_c, 0, 45, 66
1, 288381, Note_off_c, 0, 41, 61
1, 288437, Note_on_c, 0, 76, 77
1, 288441, Note_off_c, 0, 77, 64
1, 288498, Note_off_c, 0, 76, 66
1, 288516, Note_on_c, 0, 77, 82
1, 288604, Note_on_c, 0, 80, 83
1, 288615, Note_off_c, 0, 77, 57
1, 288667, Note_on_c, 0, 45, 62
1, 288667, Note_on_c, 0, 48, 66
1, 288670, Note_on_c, 0, 41, 56
1, 288674, Note_on_c, 0, 81, 79
1, 288695, Note_off_c, 0, 45, 64
1, 288696, Note_off_c, 0, 48, 66
1, 288700, Note_off_c, 0, 41, 64
1, 288710, Note_off_c, 0, 80, 50
1, 288746, Note_on_c, 0, 80, 75
1, 288751, Note_off_c, 0, 81, 65
1, 288813, Note_on_c, 0, 48, 98
1, 288816, Note_on_c, 0, 41, 81
1, 288819, Note_on_c, 0, 45, 74
1, 288819, Note_on_c, 0, 81, 93
1, 288831, Note_off_c, 0, 80, 63
1, 288834, Control_c, 0, 64, 33
1, 288849, Note_off_c, 0, 41, 66
1, 288849, Note_off_c, 0, 45, 64
1, 288849, Control_c, 0, 64, 56
1, 288852, Note_off_c, 0, 48, 61
1, 288864, Control_c, 0, 64, 75
1, 288879, Control_c, 0, 64, 127
1, 288906, Note_on_c, 0, 83, 87
1, 288915, Note_off_c, 0, 81, 59
1, 288938, Control_c, 0, 64, 105
1, 288953, Control_c, 0, 64, 76
1, 288968, Control_c, 0, 64, 62
1, 288973, Note_on_c, 0, 48, 77
1, 288974, Note_on_c, 0, 41, 68
1, 288975, Note_on_c, 0, 45, 65
1, 288983, Control_c, 0, 64, 39
1, 288992, Note_on_c, 0, 84, 85
1, 288996, Note_off_c, 0, 83, 66
1, 288998, Control_c, 0, 64, 0
1, 288999, Note_off_c, 0, 48, 69
1, 289000, Note_off_c, 0, 41, 71
1, 289007, Note_off_c, 0, 45, 64
1, 289060, Note_off_c, 0, 84, 64
1, 289061, Note_on_c, 0, 83, 81
1, 289136, Note_on_c, 0, 84, 85
1, 289139, Note_off_c, 0, 83, 64
1, 289207, Note_on_c, 0, 83, 84
1, 289215, Note_off_c, 0, 84, 64
1, 289266, Note_on_c, 0, 41, 55
1, 289266, Note_on_c, 0, 45, 44
1, 289266, Note_on_c, 0, 48, 63
1, 289279, Note_off_c, 0, 83, 65
1, 289285, Note_on_c, 0, 81, 85
1, 289303, Note_off_c, 0, 41, 58
1, 289307, Note_off_c, 0, 45, 54
1, 289311, Note_off_c, 0, 48, 63
1, 289347, Note_off_c, 0, 81, 56
1, 289369, Note_on_c, 0, 80, 83
1, 289426, Note_on_c, 0, 50, 93
1, 289427, Note_on_c, 0, 45, 67
1, 289428, Note_on_c, 0, 42, 83
1, 289428, Note_on_c, 0, 81, 97
1, 289430, Note_on_c, 0, 48, 79
1, 289435, Control_c, 0, 64, 23
1, 289449, Control_c, 0, 64, 55
1, 289452, Note_off_c, 0, 80, 62
1, 289464, Control_c, 0, 64, 98
1, 289478, Control_c, 0, 64, 127
1, 289482, Note_off_c, 0, 50, 62
1, 289490, Note_off_c, 0, 42, 60
1, 289501, Note_off_c, 0, 81, 48
1, 289503, Note_off_c, 0, 48, 63
1, 289511, Note_off_c, 0, 45, 63
1, 289519, Note_on_c, 0, 80, 82
1, 289583, Note_off_c, 0, 80, 63
1, 289584, Note_on_c, 0, 50, 78
1, 289593, Note_on_c, 0, 42, 68
1, 289596, Note_on_c, 0, 48, 60
1, 289597, Control_c, 0, 64, 76
1, 289598, Note_on_c, 0, 45, 57
1, 289600, Note_on_c, 0, 81, 81
1, 289606, Note_off_c, 0, 50, 69
1, 289612, Control_c, 0, 64, 56
1, 289627, Note_off_c, 0, 48, 66
1, 289627, Control_c, 0, 64, 0
1, 289630, Note_off_c, 0, 42, 54
1, 289636, Note_off_c, 0, 45, 62
1, 289672, Note_on_c, 0, 83, 88
1, 289673, Note_off_c, 0, 81, 63
1, 289749, Note_on_c, 0, 84, 88
1, 289755, Note_off_c, 0, 83, 68
1, 289824, Note_on_c, 0, 83, 81
1, 289834, Note_off_c, 0, 84, 59
1, 289874, Note_on_c, 0, 50, 78
1, 289879, Note_on_c, 0, 45, 56
1, 289880, Note_on_c, 0, 42, 60
1, 289883, Note_off_c, 0, 83, 65
1, 289886, Note_on_c, 0, 48, 60
1, 289891, Note_on_c, 0, 81, 82
1, 289907, Note_off_c, 0, 50, 57
1, 289927, Note_off_c, 0, 42, 59
1, 289949, Note_off_c, 0, 48, 49
1, 289952, Note_off_c, 0, 45, 53
1, 289967, Note_off_c, 0, 81, 60
1, 289970, Note_on_c, 0, 80, 83
1, 290035, Note_on_c, 0, 50, 95
1, 290041, Note_on_c, 0, 42, 83
1, 290044, Note_on_c, 0, 48, 82
1, 290045, Note_on_c, 0, 45, 75
1, 290045, Note_on_c, 0, 81, 96
1, 290064, Control_c, 0, 64, 48
1, 290068, Note_off_c, 0, 80, 61
1, 290078, Control_c, 0, 64, 64
1, 290093, Control_c, 0, 64, 127
1, 290104, Note_off_c, 0, 42, 60
1, 290106, Note_off_c, 0, 50, 63
1, 290125, Note_off_c, 0, 48, 61
1, 290126, Note_off_c, 0, 81, 45
1, 290130, Note_off_c, 0, 45, 62
1, 290140, Note_on_c, 0, 80, 86
1, 290204, Note_on_c, 0, 50, 79
1, 290205, Note_on_c, 0, 42, 76
1, 290207, Note_off_c, 0, 80, 62
1, 290208, Note_on_c, 0, 48, 70
1, 290209, Note_on_c, 0, 45, 58
1, 290213, Control_c, 0, 64, 90
1, 290217, Note_on_c, 0, 81, 83
1, 290226, Note_off_c, 0, 50, 68
1, 290228, Control_c, 0, 64, 65
1, 290243, Control_c, 0, 64, 47
1, 290249, Note_off_c, 0, 42, 55
1, 290252, Note_off_c, 0, 48, 66
1, 290253, Note_off_c, 0, 45, 62
1, 290257, Control_c, 0, 64, 0
1, 290285, Note_off_c, 0, 81, 60
1, 290286, Note_on_c, 0, 83, 92
1, 290368, Note_on_c, 0, 84, 90
1, 290374, Note_off_c, 0, 83, 66
1, 290442, Note_on_c, 0, 83, 78
1, 290453, Note_off_c, 0, 84, 62
1, 290509, Note_off_c, 0, 83, 64
1, 290511, Note_on_c, 0, 50, 75
1, 290512, Note_on_c, 0, 48, 67
1, 290515, Note_on_c, 0, 81, 84
1, 290516, Note_on_c, 0, 42, 57
1, 290520, Note_on_c, 0, 45, 59
1, 290553, Note_off_c, 0, 50, 54
1, 290563, Note_off_c, 0, 42, 60
1, 290581, Note_off_c, 0, 45, 53
1, 290586, Note_off_c, 0, 81, 59
1, 290591, Note_on_c, 0, 80, 84
1, 290599, Note_off_c, 0, 48, 59
1, 290646, Poly_aftertouch_c, 0, 48, 0
1, 290655, Note_on_c, 0, 50, 95
1, 290655, Note_on_c, 0, 48, 74
1, 290658, Note_on_c, 0, 42, 74
1, 290658, Note_on_c, 0, 81, 90
1, 290663, Note_on_c, 0, 45, 72
1, 290670, Note_off_c, 0, 80, 63
1, 290672, Control_c, 0, 64, 31
1, 290687, Control_c, 0, 64, 55
1, 290701, Control_c, 0, 64, 82
1, 290716, Control_c, 0, 64, 127
1, 290718, Note_off_c, 0, 50, 62
1, 290724, Note_off_c, 0, 42, 60
1, 290739, Note_off_c, 0, 48, 61
1, 290739, Note_off_c, 0, 81, 55
1, 290745, Note_off_c, 0, 45, 61
1, 290748, Note_on_c, 0, 80, 86
1, 290821, Note_on_c, 0, 50, 84
1, 290822, Note_on_c, 0, 42, 69
1, 290822, Note_off_c, 0, 80, 63
1, 290827, Note_on_c, 0, 48, 69
1, 290827, Control_c, 0, 64, 98
1, 290828, Note_on_c, 0, 45, 54
1, 290834, Note_on_c, 0, 81, 86
1, 290842, Control_c, 0, 64, 70
1, 290853, Note_off_c, 0, 50, 59
1, 290857, Control_c, 0, 64, 52
1, 290867, Note_off_c, 0, 42, 58
1, 290871, Note_off_c, 0, 45, 61
1, 290872, Control_c, 0, 64, 0
1, 290877, Note_off_c, 0, 48, 64
1, 290903, Note_off_c, 0, 81, 59
1, 290906, Note_on_c, 0, 83, 93
1, 290984, Note_on_c, 0, 84, 87
1, 290989, Note_off_c, 0, 83, 68
1, 291055, Note_on_c, 0, 83, 75
1, 291063, Note_off_c, 0, 84, 63
1, 291122, Note_on_c, 0, 50, 77
1, 291123, Note_on_c, 0, 81, 85
1, 291123, Note_off_c, 0, 83, 65
1, 291125, Note_on_c, 0, 42, 66
1, 291129, Note_on_c, 0, 48, 65
1, 291130, Note_on_c, 0, 45, 57
1, 291157, Note_off_c, 0, 50, 56
1, 291168, Note_off_c, 0, 42, 61
1, 291192, Note_off_c, 0, 45, 56
1, 291201, Note_off_c, 0, 81, 57
1, 291203, Note_off_c, 0, 48, 48
1, 291204, Note_on_c, 0, 80, 89
1, 291263, Note_on_c, 0, 42, 78
1, 291263, Note_on_c, 0, 50, 91
1, 291267, Note_on_c, 0, 48, 70
1, 291268, Note_on_c, 0, 45, 60
1, 291276, Note_on_c, 0, 81, 89
1, 291277, Note_off_c, 0, 80, 64
1, 291288, Control_c, 0, 64, 40
1, 291303, Control_c, 0, 64, 58
1, 291318, Control_c, 0, 64, 84
1, 291323, Note_off_c, 0, 50, 62
1, 291332, Control_c, 0, 64, 127
1, 291337, Note_off_c, 0, 42, 59
1, 291352, Note_off_c, 0, 48, 61
1, 291353, Note_on_c, 0, 80, 88
1, 291354, Note_off_c, 0, 81, 61
1, 291356, Note_off_c, 0, 45, 61
1, 291411, Note_off_c, 0, 80, 65
1, 291421, Note_on_c, 0, 42, 77
1, 291421, Note_on_c, 0, 50, 88
1, 291426, Note_on_c, 0, 45, 65
1, 291427, Note_on_c, 0, 81, 82
1, 291430, Note_on_c, 0, 48, 66
1, 291451, Control_c, 0, 64, 93
1, 291457, Note_off_c, 0, 50, 50
1, 291466, Control_c, 0, 64, 68
1, 291470, Note_off_c, 0, 45, 61
1, 291478, Note_off_c, 0, 42, 52
1, 291481, Control_c, 0, 64, 51
1, 291484, Note_off_c, 0, 48, 50
1, 291496, Control_c, 0, 64, 0
1, 291497, Note_off_c, 0, 81, 58
1, 291505, Note_on_c, 0, 83, 90
1, 291588, Note_on_c, 0, 84, 88
1, 291596, Note_off_c, 0, 83, 66
1, 291657, Note_off_c, 0, 84, 60
1, 291663, Note_on_c, 0, 83, 86
1, 291726, Note_on_c, 0, 84, 85
1, 291736, Note_on_c, 0, 48, 60
1, 291737, Note_on_c, 0, 42, 60
1, 291740, Note_off_c, 0, 83, 65
1, 291753, Note_on_c, 0, 50, 44
1, 291778, Note_off_c, 0, 48, 59
1, 291782, Note_off_c, 0, 84, 66
1, 291788, Note_off_c, 0, 42, 58
1, 291791, Note_on_c, 0, 81, 84
1, 291812, Note_off_c, 0, 81, 71
1, 291822, Note_off_c, 0, 50, 47
1, 291889, Control_c, 0, 64, 38
1, 291898, Note_on_c, 0, 43, 92
1, 291904, Control_c, 0, 64, 62
1, 291907, Note_on_c, 0, 79, 96
1, 291908, Note_on_c, 0, 67, 99
1, 291919, Control_c, 0, 64, 127
1, 291932, Note_off_c, 0, 67, 63
1, 291941, Note_off_c, 0, 79, 64
1, 292004, Note_on_c, 0, 48, 68
1, 292065, Note_on_c, 0, 52, 84
1, 292069, Note_on_c, 0, 67, 96
1, 292071, Note_on_c, 0, 79, 91
1, 292084, Note_off_c, 0, 67, 73
1, 292085, Note_off_c, 0, 48, 64
1, 292086, Note_off_c, 0, 79, 72
1, 292111, Control_c, 0, 64, 75
1, 292117, Note_off_c, 0, 43, 36
1, 292126, Control_c, 0, 64, 59
1, 292141, Control_c, 0, 64, 31
1, 292143, Note_on_c, 0, 55, 78
1, 292149, Note_off_c, 0, 52, 65
1, 292155, Control_c, 0, 64, 0
1, 292205, Note_off_c, 0, 55, 65
1, 292225, Note_on_c, 0, 43, 76
1, 292226, Note_on_c, 0, 64, 90
1, 292226, Note_on_c, 0, 76, 95
1, 292241, Note_off_c, 0, 76, 77
1, 292244, Note_off_c, 0, 64, 70
1, 292313, Note_on_c, 0, 48, 69
1, 292358, Note_off_c, 0, 43, 52
1, 292376, Note_on_c, 0, 52, 81
1, 292383, Note_on_c, 0, 60, 92
1, 292384, Note_on_c, 0, 72, 97
1, 292390, Note_off_c, 0, 48, 64
1, 292400, Note_off_c, 0, 60, 75
1, 292412, Note_off_c, 0, 72, 62
1, 292435, Note_on_c, 0, 55, 75
1, 292438, Note_off_c, 0, 52, 66
1, 292506, Note_off_c, 0, 55, 64
1, 292533, Control_c, 0, 64, 34
1, 292539, Note_on_c, 0, 43, 84
1, 292539, Note_on_c, 0, 72, 104
1, 292541, Note_on_c, 0, 84, 106
1, 292549, Control_c, 0, 64, 64
1, 292560, Note_off_c, 0, 72, 64
1, 292564, Control_c, 0, 64, 127
1, 292571, Note_off_c, 0, 84, 65
1, 292587, Note_on_c, 0, 80, 17
1, 292588, Note_off_c, 0, 80, 127
1, 292626, Note_on_c, 0, 48, 72
1, 292693, Note_on_c, 0, 52, 80
1, 292702, Note_on_c, 0, 72, 90
1, 292705, Note_on_c, 0, 84, 88
1, 292714, Note_off_c, 0, 43, 56
1, 292721, Note_off_c, 0, 72, 68
1, 292724, Note_off_c, 0, 84, 71
1, 292728, Note_off_c, 0, 48, 63
1, 292765, Note_on_c, 0, 55, 74
1, 292771, Control_c, 0, 64, 68
1, 292772, Note_off_c, 0, 52, 63
1, 292786, Control_c, 0, 64, 46
1, 292801, Control_c, 0, 64, 0
1, 292832, Note_off_c, 0, 55, 63
1, 292860, Note_on_c, 0, 67, 90
1, 292862, Note_on_c, 0, 79, 92
1, 292864, Note_on_c, 0, 43, 77
1, 292878, Note_off_c, 0, 79, 73
1, 292879, Note_off_c, 0, 67, 72
1, 292945, Note_on_c, 0, 48, 70
1, 293001, Note_on_c, 0, 52, 77
1, 293010, Note_on_c, 0, 64, 96
1, 293011, Note_on_c, 0, 76, 92
1, 293031, Note_off_c, 0, 43, 56
1, 293034, Note_off_c, 0, 64, 72
1, 293036, Note_off_c, 0, 48, 63
1, 293040, Note_off_c, 0, 76, 66
1, 293076, Note_on_c, 0, 55, 79
1, 293085, Note_off_c, 0, 52, 65
1, 293143, Note_off_c, 0, 55, 64
1, 293173, Note_on_c, 0, 43, 85
1, 293173, Note_on_c, 0, 67, 104
1, 293175, Note_on_c, 0, 79, 105
1, 293178, Control_c, 0, 64, 24
1, 293192, Control_c, 0, 64, 45
1, 293198, Note_off_c, 0, 67, 66
1, 293205, Note_off_c, 0, 79, 66
1, 293207, Control_c, 0, 64, 62
1, 293222, Control_c, 0, 64, 88
1, 293237, Control_c, 0, 64, 127
1, 293263, Note_on_c, 0, 48, 77
1, 293284, Poly_aftertouch_c, 0, 73, 0
1, 293330, Note_on_c, 0, 52, 78
1, 293340, Note_on_c, 0, 67, 98
1, 293341, Note_on_c, 0, 79, 96
1, 293350, Note_off_c, 0, 43, 59
1, 293356, Control_c, 0, 64, 108
1, 293359, Note_off_c, 0, 48, 61
1, 293362, Note_off_c, 0, 67, 66
1, 293371, Control_c, 0, 64, 86
1, 293377, Note_off_c, 0, 79, 59
1, 293386, Control_c, 0, 64, 70
1, 293391, Note_on_c, 0, 55, 79
1, 293401, Control_c, 0, 64, 60
1, 293407, Note_off_c, 0, 52, 63
1, 293416, Control_c, 0, 64, 43
1, 293430, Control_c, 0, 64, 0
1, 293459, Note_off_c, 0, 55, 63
1, 293489, Note_on_c, 0, 43, 74
1, 293498, Note_on_c, 0, 64, 89
1, 293502, Note_on_c, 0, 76, 89
1, 293517, Note_off_c, 0, 64, 71
1, 293523, Note_off_c, 0, 76, 70
1, 293556, Note_on_c, 0, 48, 60
1, 293612, Note_on_c, 0, 52, 69
1, 293639, Note_off_c, 0, 43, 36
1, 293645, Note_off_c, 0, 48, 61
1, 293646, Note_on_c, 0, 60, 93
1, 293647, Note_on_c, 0, 72, 94
1, 293664, Note_on_c, 0, 55, 78
1, 293664, Note_off_c, 0, 60, 72
1, 293681, Note_off_c, 0, 52, 66
1, 293687, Note_off_c, 0, 72, 67
1, 293707, Note_off_c, 0, 55, 65
1, 293779, Control_c, 0, 64, 27
1, 293794, Control_c, 0, 64, 58
1, 293801, Note_on_c, 0, 52, 98
1, 293808, Note_on_c, 0, 72, 100
1, 293808, Control_c, 0, 64, 127
1, 293809, Note_on_c, 0, 84, 105
1, 293827, Note_off_c, 0, 72, 64
1, 293833, Note_off_c, 0, 84, 63
1, 293833, Note_off_c, 0, 52, 71
1, 293956, Control_c, 0, 64, 88
1, 293960, Note_on_c, 0, 52, 97
1, 293966, Note_on_c, 0, 72, 95
1, 293970, Note_on_c, 0, 84, 93
1, 293970, Control_c, 0, 64, 65
1, 293985, Control_c, 0, 64, 51
1, 293988, Note_off_c, 0, 52, 68
1, 293988, Note_off_c, 0, 84, 70
1, 293988, Note_off_c, 0, 72, 66
1, 294000, Control_c, 0, 64, 23
1, 294015, Control_c, 0, 64, 0
1, 294119, Note_on_c, 0, 48, 86
1, 294122, Note_on_c, 0, 67, 98
1, 294123, Note_on_c, 0, 79, 95
1, 294149, Note_off_c, 0, 48, 65
1, 294149, Note_off_c, 0, 67, 64
1, 294154, Note_off_c, 0, 79, 65
1, 294272, Note_on_c, 0, 43, 84
1, 294275, Note_on_c, 0, 76, 98
1, 294277, Note_on_c, 0, 64, 90
1, 294295, Note_off_c, 0, 64, 73
1, 294301, Note_off_c, 0, 43, 66
1, 294309, Note_off_c, 0, 76, 67
1, 294420, Note_on_c, 0, 55, 100
1, 294456, Note_off_c, 0, 55, 67
1, 294527, Note_on_c, 0, 84, 87
1, 294575, Note_on_c, 0, 52, 77
1, 294578, Note_off_c, 0, 84, 65
1, 294590, Note_on_c, 0, 88, 76
1, 294599, Note_off_c, 0, 52, 71
1, 294656, Note_on_c, 0, 84, 74
1, 294658, Note_off_c, 0, 88, 66
1, 294717, Note_on_c, 0, 60, 75
1, 294721, Note_off_c, 0, 84, 58
1, 294730, Note_on_c, 0, 91, 86
1, 294743, Note_off_c, 0, 60, 67
1, 294794, Note_off_c, 0, 91, 59
1, 294801, Note_on_c, 0, 88, 68
1, 294867, Note_off_c, 0, 88, 62
1, 294878, Note_on_c, 0, 91, 76
1, 294879, Note_on_c, 0, 55, 52
1, 294904, Note_off_c, 0, 55, 60
1, 294935, Note_off_c, 0, 91, 60
1, 294954, Note_on_c, 0, 88, 69
1, 295015, Note_off_c, 0, 88, 62
1, 295024, Note_on_c, 0, 91, 78
1, 295027, Note_on_c, 0, 64, 64
1, 295048, Note_off_c, 0, 64, 66
1, 295079, Note_off_c, 0, 91, 60
1, 295115, Note_on_c, 0, 88, 69
1, 295153, Note_off_c, 0, 88, 57
1, 295178, Note_on_c, 0, 60, 60
1, 295178, Note_on_c, 0, 91, 74
1, 295204, Note_off_c, 0, 60, 66
1, 295231, Note_off_c, 0, 91, 60
1, 295252, Note_on_c, 0, 88, 67
1, 295312, Note_off_c, 0, 88, 54
1, 295330, Note_on_c, 0, 67, 65
1, 295335, Note_on_c, 0, 91, 74
1, 295356, Note_off_c, 0, 67, 68
1, 295389, Note_off_c, 0, 91, 60
1, 295410, Note_on_c, 0, 88, 70
1, 295470, Note_off_c, 0, 88, 56
1, 295482, Note_on_c, 0, 64, 62
1, 295490, Note_on_c, 0, 91, 73
1, 295507, Note_off_c, 0, 64, 65
1, 295541, Note_off_c, 0, 91, 59
1, 295568, Note_on_c, 0, 88, 69
1, 295614, Note_off_c, 0, 88, 58
1, 295636, Note_on_c, 0, 91, 78
1, 295639, Note_on_c, 0, 72, 53
1, 295660, Note_off_c, 0, 72, 60
1, 295680, Note_off_c, 0, 91, 60
1, 295711, Note_on_c, 0, 88, 73
1, 295767, Note_off_c, 0, 88, 54
1, 295788, Note_on_c, 0, 91, 77
1, 295791, Note_on_c, 0, 67, 54
1, 295814, Note_off_c, 0, 67, 61
1, 295836, Note_off_c, 0, 91, 59
1, 295862, Note_on_c, 0, 88, 71
1, 295911, Note_off_c, 0, 88, 56
1, 295937, Note_on_c, 0, 91, 74
1, 295941, Note_on_c, 0, 76, 62
1, 295959, Note_off_c, 0, 76, 67
1, 295978, Note_off_c, 0, 91, 59
1, 296006, Note_on_c, 0, 88, 71
1, 296065, Note_off_c, 0, 88, 52
1, 296091, Note_on_c, 0, 91, 74
1, 296101, Note_on_c, 0, 72, 59
1, 296121, Note_off_c, 0, 72, 62
1, 296137, Note_off_c, 0, 91, 59
1, 296163, Note_on_c, 0, 88, 68
1, 296212, Note_off_c, 0, 88, 55
1, 296247, Note_on_c, 0, 91, 70
1, 296250, Note_on_c, 0, 79, 60
1, 296270, Note_off_c, 0, 79, 64
1, 296287, Note_off_c, 0, 91, 59
1, 296312, Note_on_c, 0, 88, 68
1, 296368, Note_off_c, 0, 88, 55
1, 296391, Note_on_c, 0, 76, 60
1, 296396, Note_on_c, 0, 91, 67
1, 296410, Note_off_c, 0, 76, 65
1, 296445, Note_off_c, 0, 91, 57
1, 296471, Note_on_c, 0, 88, 64
1, 296517, Note_off_c, 0, 88, 61
1, 296535, Note_on_c, 0, 84, 72
1, 296543, Note_on_c, 0, 91, 71
1, 296562, Note_off_c, 0, 84, 67
1, 296601, Note_off_c, 0, 91, 59
1, 296623, Note_on_c, 0, 88, 66
1, 296663, Note_off_c, 0, 88, 61
1, 296685, Note_on_c, 0, 79, 69
1, 296687, Note_on_c, 0, 91, 64
1, 296711, Note_off_c, 0, 79, 66
1, 296750, Note_off_c, 0, 91, 60
1, 296766, Note_on_c, 0, 88, 69
1, 296796, Note_off_c, 0, 88, 64
1, 296841, Note_on_c, 0, 83, 68
1, 296864, Note_off_c, 0, 83, 71
1, 296924, Note_on_c, 0, 89, 63
1, 296975, Note_off_c, 0, 89, 62
1, 296985, Note_on_c, 0, 79, 61
1, 296999, Note_on_c, 0, 91, 59
1, 297014, Note_off_c, 0, 79, 63
1, 297041, Note_off_c, 0, 91, 59
1, 297061, Note_on_c, 0, 89, 56
1, 297105, Note_off_c, 0, 89, 61
1, 297130, Note_on_c, 0, 92, 64
1, 297137, Note_on_c, 0, 83, 55
1, 297156, Note_off_c, 0, 83, 65
1, 297171, Note_off_c, 0, 92, 58
1, 297206, Note_on_c, 0, 89, 54
1, 297247, Note_off_c, 0, 89, 53
1, 297273, Note_on_c, 0, 91, 64
1, 297277, Note_on_c, 0, 79, 60
1, 297300, Note_off_c, 0, 79, 64
1, 297320, Note_off_c, 0, 91, 56
1, 297337, Note_on_c, 0, 89, 60
1, 297401, Note_off_c, 0, 89, 61
1, 297416, Note_on_c, 0, 92, 71
1, 297432, Note_on_c, 0, 83, 53
1, 297453, Note_off_c, 0, 83, 64
1, 297473, Note_off_c, 0, 92, 64
1, 297492, Note_on_c, 0, 89, 52
1, 297559, Note_off_c, 0, 89, 63
1, 297576, Note_on_c, 0, 91, 65
1, 297583, Note_on_c, 0, 79, 53
1, 297606, Note_off_c, 0, 79, 61
1, 297632, Note_off_c, 0, 91, 57
1, 297647, Note_on_c, 0, 89, 50
1, 297715, Note_off_c, 0, 89, 62
1, 297728, Note_on_c, 0, 92, 69
1, 297735, Note_on_c, 0, 83, 55
1, 297756, Note_off_c, 0, 83, 65
1, 297786, Note_off_c, 0, 92, 63
1, 297803, Note_on_c, 0, 89, 51
1, 297867, Note_off_c, 0, 89, 63
1, 297874, Note_on_c, 0, 79, 60
1, 297879, Note_on_c, 0, 91, 65
1, 297899, Note_off_c, 0, 79, 61
1, 297932, Note_off_c, 0, 91, 54
1, 297950, Note_on_c, 0, 89, 47
1, 298015, Note_off_c, 0, 89, 62
1, 298026, Note_on_c, 0, 83, 56
1, 298033, Note_on_c, 0, 92, 65
1, 298047, Note_off_c, 0, 83, 64
1, 298088, Note_off_c, 0, 92, 63
1, 298108, Note_on_c, 0, 89, 52
1, 298169, Note_off_c, 0, 89, 62
1, 298178, Note_on_c, 0, 79, 56
1, 298185, Note_on_c, 0, 91, 61
1, 298200, Note_off_c, 0, 79, 61
1, 298237, Note_off_c, 0, 91, 56
1, 298252, Note_on_c, 0, 89, 46
1, 298323, Note_off_c, 0, 89, 62
1, 298333, Note_on_c, 0, 83, 57
1, 298338, Note_on_c, 0, 92, 64
1, 298355, Note_off_c, 0, 83, 64
1, 298388, Note_off_c, 0, 92, 60
1, 298410, Note_on_c, 0, 89, 48
1, 298465, Note_off_c, 0, 89, 62
1, 298485, Note_on_c, 0, 79, 51
1, 298486, Note_on_c, 0, 91, 55
1, 298509, Note_off_c, 0, 79, 59
1, 298528, Note_off_c, 0, 91, 55
1, 298543, Note_on_c, 0, 89, 48
1, 298616, Note_off_c, 0, 89, 63
1, 298635, Note_on_c, 0, 92, 59
1, 298637, Note_on_c, 0, 83, 47
1, 298660, Note_off_c, 0, 83, 61
1, 298681, Note_off_c, 0, 92, 58
1, 298707, Note_on_c, 0, 89, 47
1, 298767, Note_off_c, 0, 89, 62
1, 298778, Note_on_c, 0, 79, 54
1, 298788, Note_on_c, 0, 91, 54
1, 298803, Note_off_c, 0, 79, 60
1, 298832, Note_off_c, 0, 91, 55
1, 298855, Note_on_c, 0, 89, 44
1, 298911, Note_off_c, 0, 89, 63
1, 298932, Note_on_c, 0, 83, 44
1, 298933, Note_on_c, 0, 92, 58
1, 298957, Note_off_c, 0, 83, 58
1, 298979, Note_off_c, 0, 92, 58
1, 299004, Note_on_c, 0, 89, 53
1, 299066, Note_off_c, 0, 89, 61
1, 299079, Note_on_c, 0, 79, 52
1, 299087, Note_on_c, 0, 91, 60
1, 299102, Note_off_c, 0, 79, 58
1, 299130, Note_off_c, 0, 91, 58
1, 299148, Note_on_c, 0, 89, 50
1, 299213, Note_off_c, 0, 89, 56
1, 299231, Note_on_c, 0, 83, 41
1, 299237, Note_on_c, 0, 93, 69
1, 299243, Control_c, 0, 64, 11
1, 299258, Control_c, 0, 64, 22
1, 299263, Note_off_c, 0, 83, 57
1, 299273, Control_c, 0, 64, 33
1, 299278, Note_off_c, 0, 93, 58
1, 299288, Control_c, 0, 64, 46
1, 299289, Note_on_c, 0, 84, 44
1, 299303, Control_c, 0, 64, 58
1, 299318, Control_c, 0, 64, 65
1, 299319, Note_on_c, 0, 89, 48
1, 299331, Note_off_c, 0, 84, 48
1, 299333, Control_c, 0, 64, 73
1, 299347, Control_c, 0, 64, 79
1, 299353, Note_off_c, 0, 89, 56
1, 299362, Control_c, 0, 64, 90
1, 299367, Note_on_c, 0, 83, 44
1, 299374, Note_on_c, 0, 91, 61
1, 299377, Control_c, 0, 64, 119
1, 299391, Control_c, 0, 64, 127
1, 299417, Note_off_c, 0, 83, 48
1, 299421, Note_off_c, 0, 91, 58
1, 299440, Note_on_c, 0, 89, 60
1, 299444, Note_on_c, 0, 84, 42
1, 299484, Note_off_c, 0, 84, 48
1, 299486, Note_off_c, 0, 89, 59
1, 299524, Note_on_c, 0, 83, 44
1, 299532, Note_on_c, 0, 93, 71
1, 299551, Note_off_c, 0, 83, 57
1, 299565, Note_off_c, 0, 93, 60
1, 299591, Note_on_c, 0, 84, 44
1, 299602, Note_on_c, 0, 89, 53
1, 299620, Note_off_c, 0, 84, 53
1, 299645, Note_off_c, 0, 89, 54
1, 299655, Note_on_c, 0, 83, 49
1, 299665, Note_on_c, 0, 91, 69
1, 299690, Note_off_c, 0, 83, 61
1, 299709, Note_off_c, 0, 91, 57
1, 299722, Note_on_c, 0, 84, 47
1, 299736, Note_on_c, 0, 89, 63
1, 299781, Note_off_c, 0, 84, 57
1, 299795, Note_off_c, 0, 89, 57
1, 299800, Note_on_c, 0, 83, 55
1, 299828, Note_on_c, 0, 93, 75
1, 299839, Note_off_c, 0, 83, 63
1, 299862, Note_off_c, 0, 93, 59
1, 299884, Note_on_c, 0, 84, 50
1, 299902, Note_on_c, 0, 89, 61
1, 299911, Note_off_c, 0, 84, 54
1, 299947, Note_off_c, 0, 89, 55
1, 299951, Note_on_c, 0, 83, 54
1, 299963, Note_on_c, 0, 91, 77
1, 299974, Note_off_c, 0, 83, 61
1, 300005, Note_on_c, 0, 84, 51
1, 300010, Note_off_c, 0, 91, 60
1, 300031, Note_on_c, 0, 89, 64
1, 300059, Note_off_c, 0, 84, 60
1, 300077, Note_on_c, 0, 83, 51
1, 300087, Note_off_c, 0, 89, 58
1, 300111, Note_on_c, 0, 93, 83
1, 300113, Note_off_c, 0, 83, 65
1, 300150, Note_off_c, 0, 93, 59
1, 300154, Note_on_c, 0, 84, 51
1, 300184, Note_off_c, 0, 84, 51
1, 300196, Note_on_c, 0, 89, 49
1, 300221, Note_on_c, 0, 83, 53
1, 300248, Note_on_c, 0, 91, 70
1, 300249, Note_off_c, 0, 83, 61
1, 300257, Note_off_c, 0, 89, 0
1, 300272, Note_on_c, 0, 84, 56
1, 300289, Note_off_c, 0, 91, 57
1, 300294, Note_on_c, 0, 89, 19
1, 300317, Note_off_c, 0, 84, 59
1, 300345, Note_on_c, 0, 83, 56
1, 300370, Note_on_c, 0, 93, 83
1, 300379, Note_off_c, 0, 89, 59
1, 300385, Note_off_c, 0, 83, 64
1, 300415, Note_off_c, 0, 93, 62
1, 300421, Note_on_c, 0, 84, 54
1, 300459, Note_off_c, 0, 84, 50
1, 300491, Note_on_c, 0, 83, 64
1, 300530, Note_on_c, 0, 91, 73
1, 300530, Note_off_c, 0, 83, 64
1, 300533, Note_on_c, 0, 89, 54
1, 300549, Note_off_c, 0, 91, 65
1, 300555, Note_off_c, 0, 89, 63
1, 300556, Note_on_c, 0, 84, 59
1, 300602, Note_off_c, 0, 84, 54
1, 300641, Note_on_c, 0, 83, 60
1, 300659, Note_on_c, 0, 89, 69
1, 300665, Note_on_c, 0, 91, 69
1, 300676, Note_off_c, 0, 83, 66
1, 300684, Note_off_c, 0, 89, 69
1, 300686, Note_off_c, 0, 91, 64
1, 300707, Note_on_c, 0, 84, 59
1, 300743, Note_off_c, 0, 84, 53
1, 300778, Note_on_c, 0, 83, 59
1, 300811, Note_on_c, 0, 91, 77
1, 300811, Note_off_c, 0, 83, 68
1, 300813, Note_on_c, 0, 89, 67
1, 300827, Note_off_c, 0, 91, 67
1, 300829, Note_off_c, 0, 89, 68
1, 300830, Note_on_c, 0, 84, 67
1, 300882, Note_off_c, 0, 84, 58
1, 300904, Note_on_c, 0, 83, 66
1, 300956, Note_on_c, 0, 91, 85
1, 300957, Note_on_c, 0, 89, 74
1, 300957, Note_off_c, 0, 83, 65
1, 300973, Note_on_c, 0, 84, 65
1, 300973, Note_off_c, 0, 91, 69
1, 300978, Note_off_c, 0, 89, 71
1, 301027, Note_off_c, 0, 84, 60
1, 301039, Note_on_c, 0, 83, 64
1, 301085, Note_off_c, 0, 83, 62
1, 301095, Note_on_c, 0, 89, 93
1, 301096, Note_on_c, 0, 91, 102
1, 301097, Note_on_c, 0, 84, 64
1, 301113, Note_off_c, 0, 89, 72
1, 301118, Note_off_c, 0, 91, 61
1, 301154, Note_off_c, 0, 84, 61
1, 301162, Note_on_c, 0, 83, 72
1, 301222, Note_off_c, 0, 83, 63
1, 301241, Note_on_c, 0, 84, 42
1, 301246, Note_on_c, 0, 91, 100
1, 301246, Note_on_c, 0, 89, 97
1, 301274, Note_off_c, 0, 89, 69
1, 301279, Note_off_c, 0, 84, 53
1, 301284, Note_off_c, 0, 91, 64
1, 301290, Note_on_c, 0, 83, 54
1, 301322, Note_on_c, 0, 84, 60
1, 301324, Note_off_c, 0, 83, 67
1, 301389, Note_off_c, 0, 84, 62
1, 301391, Note_on_c, 0, 83, 77
1, 301398, Note_on_c, 0, 89, 102
1, 301403, Note_on_c, 0, 91, 101
1, 301434, Note_on_c, 0, 81, 79
1, 301446, Note_off_c, 0, 89, 62
1, 301446, Note_off_c, 0, 83, 62
1, 301452, Note_off_c, 0, 91, 57
1, 301500, Note_on_c, 0, 83, 69
1, 301524, Note_off_c, 0, 83, 69
1, 301530, Note_off_c, 0, 81, 60
1, 301694, Note_on_c, 0, 84, 109
1, 301696, Note_on_c, 0, 72, 94
1, 301702, Note_on_c, 0, 60, 73
1, 301741, Control_c, 0, 64, 82
1, 301756, Control_c, 0, 64, 60
1, 301771, Control_c, 0, 64, 39
1, 301785, Control_c, 0, 64, 0
1, 301889, Control_c, 0, 64, 8
1, 301904, Control_c, 0, 64, 30
1, 301919, Control_c, 0, 64, 45
1, 301933, Control_c, 0, 64, 62
1, 301948, Control_c, 0, 64, 99
1, 301963, Control_c, 0, 64, 127
1, 302055, Note_off_c, 0, 72, 44
1, 302785, Note_on_c, 0, 67, 45
1, 302787, Note_on_c, 0, 70, 49
1, 302791, Note_on_c, 0, 64, 41
1, 302838, Control_c, 0, 64, 80
1, 302853, Control_c, 0, 64, 68
1, 302868, Control_c, 0, 64, 63
1, 302882, Control_c, 0, 64, 62
1, 302897, Control_c, 0, 64, 64
1, 302912, Control_c, 0, 64, 69
1, 302927, Control_c, 0, 64, 78
1, 302943, Control_c, 0, 64, 84
1, 302955, Note_off_c, 0, 84, 11
1, 302957, Control_c, 0, 64, 87
1, 302972, Control_c, 0, 64, 88
1, 303002, Control_c, 0, 64, 86
1, 303184, Note_off_c, 0, 67, 48
1, 303284, Note_on_c, 0, 84, 52
1, 303298, Control_c, 0, 64, 86
1, 303348, Note_on_c, 0, 82, 62
1, 303381, Note_off_c, 0, 84, 52
1, 303425, Note_on_c, 0, 80, 65
1, 303446, Control_c, 0, 64, 85
1, 303456, Note_off_c, 0, 82, 60
1, 303492, Note_off_c, 0, 80, 61
1, 303494, Note_on_c, 0, 79, 63
1, 303527, Control_c, 0, 64, 85
1, 303542, Control_c, 0, 64, 83
1, 303557, Control_c, 0, 64, 79
1, 303572, Note_off_c, 0, 79, 60
1, 303572, Control_c, 0, 64, 74
1, 303586, Control_c, 0, 64, 69
1, 303589, Note_on_c, 0, 68, 49
1, 303590, Note_on_c, 0, 80, 70
1, 303594, Note_on_c, 0, 65, 46
1, 303601, Control_c, 0, 64, 64
1, 303616, Control_c, 0, 64, 55
1, 303631, Control_c, 0, 64, 36
1, 303646, Control_c, 0, 64, 0
1, 303669, Note_on_c, 0, 79, 66
1, 303682, Note_off_c, 0, 80, 57
1, 303729, Note_off_c, 0, 79, 62
1, 303739, Note_on_c, 0, 77, 67
1, 303747, Note_off_c, 0, 70, 43
1, 303760, Note_off_c, 0, 64, 38
1, 303800, Note_off_c, 0, 77, 60
1, 303812, Note_on_c, 0, 76, 70
1, 303839, Control_c, 0, 64, 15
1, 303853, Control_c, 0, 64, 26
1, 303868, Control_c, 0, 64, 33
1, 303869, Note_off_c, 0, 76, 64
1, 303883, Control_c, 0, 64, 39
1, 303895, Note_on_c, 0, 77, 66
1, 303898, Control_c, 0, 64, 44
1, 303913, Control_c, 0, 64, 46
1, 303927, Control_c, 0, 64, 47
1, 303969, Note_on_c, 0, 79, 69
1, 303971, Note_off_c, 0, 77, 59
1, 303972, Control_c, 0, 64, 46
1, 304001, Note_off_c, 0, 68, 60
1, 304016, Control_c, 0, 64, 46
1, 304031, Control_c, 0, 64, 45
1, 304035, Note_on_c, 0, 80, 74
1, 304046, Control_c, 0, 64, 45
1, 304057, Note_off_c, 0, 79, 57
1, 304060, Control_c, 0, 64, 44
1, 304075, Control_c, 0, 64, 44
1, 304090, Control_c, 0, 64, 43
1, 304105, Control_c, 0, 64, 39
1, 304109, Note_off_c, 0, 80, 65
1, 304113, Note_on_c, 0, 82, 69
1, 304120, Control_c, 0, 64, 31
1, 304135, Control_c, 0, 64, 0
1, 304141, Note_off_c, 0, 82, 69
1, 304187, Note_on_c, 0, 84, 75
1, 304193, Note_on_c, 0, 67, 54
1, 304195, Note_on_c, 0, 64, 44
1, 304196, Note_on_c, 0, 70, 48
1, 304218, Note_off_c, 0, 60, 0
1, 304245, Note_off_c, 0, 84, 64
1, 304246, Note_off_c, 0, 65, 37
1, 304262, Note_on_c, 0, 85, 68
1, 304263, Poly_aftertouch_c, 0, 60, 127
1, 304329, Note_off_c, 0, 85, 62
1, 304347, Note_on_c, 0, 84, 64
1, 304413, Note_on_c, 0, 83, 72
1, 304415, Note_off_c, 0, 84, 61
1, 304493, Note_on_c, 0, 84, 77
1, 304496, Note_off_c, 0, 83, 65
1, 304568, Note_on_c, 0, 82, 84
1, 304586, Note_off_c, 0, 67, 63
1, 304604, Note_off_c, 0, 84, 60
1, 304643, Note_on_c, 0, 80, 79
1, 304682, Note_off_c, 0, 82, 63
1, 304722, Note_off_c, 0, 80, 63
1, 304727, Note_on_c, 0, 79, 73
1, 304803, Note_on_c, 0, 80, 75
1, 304809, Note_on_c, 0, 68, 46
1, 304814, Note_off_c, 0, 79, 60
1, 304815, Note_on_c, 0, 65, 38
1, 304871, Note_off_c, 0, 80, 62
1, 304876, Poly_aftertouch_c, 0, 60, 0
1, 304880, Note_on_c, 0, 82, 74
1, 304882, Note_off_c, 0, 70, 52
1, 304902, Note_off_c, 0, 64, 33
1, 304951, Note_on_c, 0, 80, 79
1, 304973, Note_off_c, 0, 82, 61
1, 305033, Note_on_c, 0, 79, 70
1, 305042, Note_off_c, 0, 80, 61
1, 305089, Note_off_c, 0, 68, 61
1, 305097, Note_off_c, 0, 79, 62
1, 305105, Note_off_c, 0, 65, 63
1, 305110, Note_on_c, 0, 77, 62
1, 305166, Note_off_c, 0, 77, 59
1, 305178, Note_on_c, 0, 76, 72
1, 305226, Note_off_c, 0, 76, 65
1, 305253, Note_on_c, 0, 77, 64
1, 305262, Control_c, 0, 64, 12
1, 305277, Control_c, 0, 64, 34
1, 305291, Control_c, 0, 64, 49
1, 305306, Control_c, 0, 64, 58
1, 305321, Note_off_c, 0, 77, 59
1, 305321, Control_c, 0, 64, 61
1, 305330, Note_on_c, 0, 79, 63
1, 305348, Note_off_c, 0, 79, 65
1, 305381, Control_c, 0, 64, 62
1, 305426, Control_c, 0, 64, 60
1, 305441, Note_on_c, 0, 80, 85
1, 305441, Control_c, 0, 64, 55
1, 305449, Note_on_c, 0, 68, 67
1, 305455, Note_on_c, 0, 53, 50
1, 305455, Note_on_c, 0, 61, 48
1, 305455, Control_c, 0, 64, 38
1, 305461, Note_on_c, 0, 56, 45
1, 305470, Control_c, 0, 64, 0
1, 305472, Note_on_c, 0, 65, 37
1, 305504, Note_off_c, 0, 68, 0
1, 305504, Note_on_c, 0, 68, 16
1, 305604, Control_c, 0, 64, 25
1, 305613, Note_off_c, 0, 53, 58
1, 305619, Control_c, 0, 64, 40
1, 305621, Note_off_c, 0, 65, 52
1, 305633, Control_c, 0, 64, 53
1, 305648, Control_c, 0, 64, 62
1, 305663, Control_c, 0, 64, 66
1, 305678, Control_c, 0, 64, 67
1, 305693, Control_c, 0, 64, 69
1, 305707, Control_c, 0, 64, 72
1, 305722, Control_c, 0, 64, 76
1, 305737, Control_c, 0, 64, 78
1, 305759, Control_c, 0, 64, 79
1, 305768, Note_on_c, 0, 77, 72
1, 305846, Note_off_c, 0, 61, 45
1, 305862, Note_off_c, 0, 80, 51
1, 305921, Note_off_c, 0, 68, 41
1, 305929, Note_on_c, 0, 73, 77
1, 306028, Note_off_c, 0, 77, 50
1, 306070, Control_c, 0, 64, 76
1, 306075, Note_off_c, 0, 56, 40
1, 306084, Control_c, 0, 64, 69
1, 306099, Control_c, 0, 64, 61
1, 306111, Note_on_c, 0, 79, 71
1, 306113, Note_on_c, 0, 55, 46
1, 306114, Control_c, 0, 64, 48
1, 306126, Note_on_c, 0, 67, 51
1, 306130, Control_c, 0, 64, 10
1, 306132, Note_on_c, 0, 63, 42
1, 306136, Note_on_c, 0, 60, 38
1, 306138, Note_off_c, 0, 73, 57
1, 306145, Control_c, 0, 64, 0
1, 306293, Control_c, 0, 64, 22
1, 306308, Control_c, 0, 64, 37
1, 306323, Control_c, 0, 64, 49
1, 306338, Control_c, 0, 64, 60
1, 306353, Control_c, 0, 64, 63
1, 306368, Control_c, 0, 64, 63
1, 306382, Control_c, 0, 64, 65
1, 306397, Control_c, 0, 64, 67
1, 306412, Control_c, 0, 64, 70
1, 306427, Control_c, 0, 64, 72
1, 306442, Control_c, 0, 64, 73
1, 306442, Note_off_c, 0, 55, 56
1, 306444, Note_on_c, 0, 75, 62
1, 306461, Note_off_c, 0, 63, 36
1, 306503, Note_off_c, 0, 79, 34
1, 306508, Control_c, 0, 64, 73
1, 306609, Note_on_c, 0, 72, 68
1, 306618, Note_off_c, 0, 67, 43
1, 306695, Note_off_c, 0, 75, 33
1, 306745, Control_c, 0, 64, 73
1, 306760, Control_c, 0, 64, 70
1, 306775, Control_c, 0, 64, 65
1, 306789, Control_c, 0, 64, 59
1, 306790, Note_on_c, 0, 77, 60
1, 306797, Note_off_c, 0, 72, 55
1, 306800, Note_on_c, 0, 55, 43
1, 306803, Note_on_c, 0, 62, 42
1, 306804, Control_c, 0, 64, 43
1, 306807, Note_on_c, 0, 59, 38
1, 306812, Note_on_c, 0, 65, 35
1, 306819, Control_c, 0, 64, 0
1, 306824, Note_off_c, 0, 60, 44
1, 306877, Note_off_c, 0, 62, 0
1, 306877, Note_on_c, 0, 62, 3
1, 306939, Control_c, 0, 64, 17
1, 306953, Control_c, 0, 64, 32
1, 306968, Control_c, 0, 64, 44
1, 306983, Control_c, 0, 64, 55
1, 306997, Control_c, 0, 64, 62
1, 307012, Control_c, 0, 64, 64
1, 307032, Note_off_c, 0, 62, 45
1, 307042, Control_c, 0, 64, 66
1, 307057, Control_c, 0, 64, 69
1, 307061, Note_off_c, 0, 55, 45
1, 307071, Control_c, 0, 64, 73
1, 307086, Note_off_c, 0, 59, 39
1, 307086, Control_c, 0, 64, 75
1, 307101, Control_c, 0, 64, 76
1, 307120, Note_on_c, 0, 74, 49
1, 307148, Note_off_c, 0, 77, 36
1, 307161, Control_c, 0, 64, 76
1, 307280, Note_on_c, 0, 71, 52
1, 307283, Note_off_c, 0, 65, 42
1, 307304, Note_off_c, 0, 74, 37
1, 307325, Note_off_c, 0, 71, 58
1, 307375, Control_c, 0, 64, 76
1, 307479, Control_c, 0, 64, 74
1, 307494, Control_c, 0, 64, 68
1, 307506, Note_on_c, 0, 72, 82
1, 307507, Note_on_c, 0, 60, 72
1, 307509, Note_on_c, 0, 48, 72
1, 307509, Control_c, 0, 64, 60
1, 307524, Control_c, 0, 64, 42
1, 307538, Control_c, 0, 64, 0
1, 307820, Control_c, 0, 64, 29
1, 307835, Control_c, 0, 64, 45
1, 307850, Control_c, 0, 64, 59
1, 307865, Control_c, 0, 64, 71
1, 307880, Control_c, 0, 64, 77
1, 307894, Control_c, 0, 64, 81
1, 307909, Control_c, 0, 64, 91
1, 307924, Control_c, 0, 64, 127
1, 308024, Note_off_c, 0, 60, 37
1, 308316, Note_off_c, 0, 72, 0
1, 308316, Note_on_c, 0, 72, 4
1, 308317, Control_c, 0, 64, 99
1, 308332, Control_c, 0, 64, 78
1, 308347, Control_c, 0, 64, 64
1, 308348, Note_on_c, 0, 52, 45
1, 308349, Note_on_c, 0, 55, 43
1, 308349, Note_on_c, 0, 58, 47
1, 308361, Control_c, 0, 64, 54
1, 308376, Control_c, 0, 64, 37
1, 308391, Control_c, 0, 64, 15
1, 308406, Control_c, 0, 64, 12
1, 308421, Control_c, 0, 64, 20
1, 308435, Control_c, 0, 64, 29
1, 308450, Control_c, 0, 64, 42
1, 308465, Control_c, 0, 64, 57
1, 308479, Control_c, 0, 64, 71
1, 308494, Control_c, 0, 64, 82
1, 308507, Note_off_c, 0, 72, 40
1, 308540, Control_c, 0, 64, 83
1, 308614, Control_c, 0, 64, 82
1, 308629, Control_c, 0, 64, 82
1, 308643, Control_c, 0, 64, 81
1, 308658, Control_c, 0, 64, 80
1, 308673, Control_c, 0, 64, 79
1, 308688, Control_c, 0, 64, 78
1, 308717, Control_c, 0, 64, 78
1, 308726, Note_off_c, 0, 55, 36
1, 308732, Control_c, 0, 64, 77
1, 308755, Control_c, 0, 64, 77
1, 308770, Control_c, 0, 64, 76
1, 308784, Control_c, 0, 64, 75
1, 308801, Note_on_c, 0, 72, 51
1, 308829, Control_c, 0, 64, 74
1, 308844, Control_c, 0, 64, 73
1, 308858, Control_c, 0, 64, 71
1, 308872, Note_on_c, 0, 70, 61
1, 308873, Control_c, 0, 64, 71
1, 308888, Control_c, 0, 64, 70
1, 308902, Control_c, 0, 64, 70
1, 308917, Control_c, 0, 64, 68
1, 308932, Control_c, 0, 64, 67
1, 308935, Note_off_c, 0, 72, 36
1, 308947, Control_c, 0, 64, 66
1, 308954, Note_on_c, 0, 69, 65
1, 308986, Note_off_c, 0, 70, 60
1, 308991, Control_c, 0, 64, 65
1, 309006, Control_c, 0, 64, 64
1, 309012, Note_on_c, 0, 67, 65
1, 309014, Note_off_c, 0, 69, 63
1, 309021, Control_c, 0, 64, 59
1, 309036, Control_c, 0, 64, 51
1, 309050, Control_c, 0, 64, 38
1, 309065, Control_c, 0, 64, 21
1, 309080, Control_c, 0, 64, 0
1, 309091, Note_off_c, 0, 67, 63
1, 309096, Note_on_c, 0, 57, 47
1, 309098, Note_on_c, 0, 53, 36
1, 309103, Note_on_c, 0, 69, 69
1, 309178, Note_on_c, 0, 67, 65
1, 309183, Note_off_c, 0, 69, 63
1, 309202, Note_off_c, 0, 52, 21
1, 309217, Note_off_c, 0, 58, 39
1, 309238, Note_off_c, 0, 67, 64
1, 309248, Note_on_c, 0, 65, 64
1, 309313, Note_off_c, 0, 65, 65
1, 309325, Note_on_c, 0, 64, 67
1, 309381, Note_off_c, 0, 64, 62
1, 309393, Note_on_c, 0, 65, 66
1, 309460, Note_off_c, 0, 57, 61
1, 309468, Note_on_c, 0, 67, 73
1, 309481, Note_off_c, 0, 65, 61
1, 309545, Note_on_c, 0, 69, 71
1, 309572, Note_off_c, 0, 67, 58
1, 309620, Note_on_c, 0, 70, 72
1, 309627, Note_off_c, 0, 69, 65
1, 309667, Note_off_c, 0, 70, 64
1, 309698, Note_on_c, 0, 58, 45
1, 309700, Note_on_c, 0, 55, 40
1, 309703, Note_on_c, 0, 52, 43
1, 309710, Note_on_c, 0, 72, 73
1, 309746, Note_off_c, 0, 53, 44
1, 309766, Note_off_c, 0, 72, 48
1, 309789, Note_on_c, 0, 74, 64
1, 309841, Note_off_c, 0, 74, 62
1, 309864, Note_on_c, 0, 72, 61
1, 309926, Note_off_c, 0, 72, 60
1, 309933, Note_on_c, 0, 71, 65
1, 309997, Note_off_c, 0, 71, 64
1, 310003, Note_on_c, 0, 72, 71
1, 310008, Note_off_c, 0, 55, 63
1, 310085, Note_on_c, 0, 70, 76
1, 310121, Note_off_c, 0, 72, 60
1, 310160, Note_on_c, 0, 69, 74
1, 310189, Note_off_c, 0, 70, 61
1, 310229, Note_off_c, 0, 69, 65
1, 310234, Note_on_c, 0, 67, 69
1, 310324, Note_on_c, 0, 57, 38
1, 310331, Note_off_c, 0, 67, 62
1, 310332, Note_on_c, 0, 69, 69
1, 310350, Note_on_c, 0, 53, 33
1, 310362, Note_off_c, 0, 58, 50
1, 310391, Note_off_c, 0, 69, 64
1, 310403, Note_on_c, 0, 70, 70
1, 310411, Note_off_c, 0, 52, 40
1, 310481, Note_on_c, 0, 69, 72
1, 310484, Note_off_c, 0, 70, 59
1, 310485, Note_off_c, 0, 48, 43
1, 310547, Note_on_c, 0, 67, 70
1, 310553, Note_off_c, 0, 69, 64
1, 310585, Note_off_c, 0, 57, 56
1, 310613, Note_off_c, 0, 67, 63
1, 310627, Note_on_c, 0, 65, 60
1, 310627, Note_off_c, 0, 53, 56
1, 310684, Note_off_c, 0, 65, 62
1, 310699, Note_on_c, 0, 64, 58
1, 310743, Note_off_c, 0, 64, 61
1, 310767, Note_on_c, 0, 65, 62
1, 310815, Control_c, 0, 64, 23
1, 310830, Control_c, 0, 64, 42
1, 310835, Note_off_c, 0, 65, 60
1, 310845, Control_c, 0, 64, 54
1, 310848, Note_on_c, 0, 67, 65
1, 310860, Control_c, 0, 64, 60
1, 310867, Note_off_c, 0, 67, 66
1, 310874, Control_c, 0, 64, 61
1, 310949, Control_c, 0, 64, 61
1, 310964, Control_c, 0, 64, 58
1, 310967, Note_on_c, 0, 69, 71
1, 310967, Note_on_c, 0, 50, 45
1, 310967, Note_on_c, 0, 57, 60
1, 310976, Note_on_c, 0, 41, 44
1, 310979, Control_c, 0, 64, 51
1, 310983, Note_on_c, 0, 45, 48
1, 311001, Control_c, 0, 64, 34
1, 311016, Control_c, 0, 64, 0
1, 311120, Control_c, 0, 64, 12
1, 311134, Control_c, 0, 64, 29
1, 311149, Control_c, 0, 64, 39
1, 311164, Control_c, 0, 64, 48
1, 311179, Control_c, 0, 64, 55
1, 311194, Control_c, 0, 64, 58
1, 311209, Control_c, 0, 64, 59
1, 311223, Control_c, 0, 64, 60
1, 311238, Control_c, 0, 64, 61
1, 311253, Control_c, 0, 64, 62
1, 311262, Note_off_c, 0, 41, 35
1, 311268, Control_c, 0, 64, 63
1, 311286, Note_on_c, 0, 65, 65
1, 311292, Note_off_c, 0, 50, 41
1, 311301, Note_off_c, 0, 69, 35
1, 311449, Note_on_c, 0, 62, 72
1, 311470, Note_off_c, 0, 57, 36
1, 311475, Note_off_c, 0, 65, 58
1, 311593, Control_c, 0, 64, 61
1, 311608, Control_c, 0, 64, 56
1, 311623, Control_c, 0, 64, 45
1, 311638, Control_c, 0, 64, 21
1, 311644, Note_off_c, 0, 62, 58
1, 311650, Note_on_c, 0, 67, 59
1, 311651, Note_on_c, 0, 43, 35
1, 311653, Control_c, 0, 64, 0
1, 311657, Note_on_c, 0, 52, 40
1, 311665, Note_on_c, 0, 55, 41
1, 311666, Note_on_c, 0, 48, 39
1, 311727, Note_off_c, 0, 45, 45
1, 311868, Control_c, 0, 64, 20
1, 311883, Control_c, 0, 64, 33
1, 311898, Control_c, 0, 64, 42
1, 311913, Control_c, 0, 64, 50
1, 311927, Control_c, 0, 64, 56
1, 311942, Control_c, 0, 64, 59
1, 311957, Control_c, 0, 64, 60
1, 311972, Control_c, 0, 64, 60
1, 311979, Note_off_c, 0, 52, 35
1, 311985, Note_on_c, 0, 64, 55
1, 311987, Control_c, 0, 64, 62
1, 312001, Control_c, 0, 64, 63
1, 312011, Note_off_c, 0, 67, 39
1, 312146, Note_on_c, 0, 60, 63
1, 312154, Note_off_c, 0, 64, 55
1, 312254, Control_c, 0, 64, 62
1, 312268, Control_c, 0, 64, 60
1, 312283, Control_c, 0, 64, 55
1, 312298, Control_c, 0, 64, 44
1, 312311, Note_off_c, 0, 48, 38
1, 312313, Control_c, 0, 64, 23
1, 312327, Control_c, 0, 64, 0
1, 312337, Note_on_c, 0, 65, 53
1, 312346, Note_on_c, 0, 53, 36
1, 312356, Note_on_c, 0, 50, 36
1, 312374, Note_off_c, 0, 60, 39
1, 312498, Control_c, 0, 64, 18
1, 312513, Control_c, 0, 64, 32
1, 312529, Control_c, 0, 64, 41
1, 312543, Control_c, 0, 64, 50
1, 312558, Control_c, 0, 64, 57
1, 312573, Control_c, 0, 64, 59
1, 312576, Note_off_c, 0, 53, 46
1, 312588, Control_c, 0, 64, 59
1, 312603, Control_c, 0, 64, 60
1, 312617, Control_c, 0, 64, 60
1, 312632, Control_c, 0, 64, 61
1, 312654, Note_on_c, 0, 62, 50
1, 312777, Note_off_c, 0, 65, 33
1, 312816, Note_on_c, 0, 59, 51
1, 312842, Note_off_c, 0, 62, 36
1, 312869, Control_c, 0, 64, 60
1, 312884, Control_c, 0, 64, 60
1, 312890, Note_off_c, 0, 55, 39
1, 312899, Control_c, 0, 64, 58
1, 312914, Control_c, 0, 64, 54
1, 312929, Control_c, 0, 64, 45
1, 312943, Control_c, 0, 64, 27
1, 312958, Control_c, 0, 64, 0
1, 312994, Note_off_c, 0, 50, 38
1, 313000, Note_on_c, 0, 60, 49
1, 313006, Note_on_c, 0, 48, 37
1, 313011, Note_on_c, 0, 52, 25
1, 313021, Note_off_c, 0, 59, 35
1, 313047, Control_c, 0, 64, 14
1, 313057, Note_off_c, 0, 43, 43
1, 313062, Control_c, 0, 64, 33
1, 313076, Control_c, 0, 64, 47
1, 313091, Control_c, 0, 64, 58
1, 313098, Note_off_c, 0, 52, 53
1, 313106, Control_c, 0, 64, 63
1, 313121, Control_c, 0, 64, 63
1, 313124, Note_off_c, 0, 60, 64
1, 313136, Control_c, 0, 64, 64
1, 313150, Control_c, 0, 64, 64
1, 313151, Note_off_c, 0, 48, 33
1, 313165, Control_c, 0, 64, 65
1, 313210, Control_c, 0, 64, 65
1, 313247, Control_c, 0, 64, 64
1, 313262, Control_c, 0, 64, 63
1, 313276, Control_c, 0, 64, 58
1, 313291, Control_c, 0, 64, 47
1, 313306, Control_c, 0, 64, 23
1, 313322, Control_c, 0, 64, 0
1, 313329, Note_on_c, 0, 40, 50
1, 313334, Note_on_c, 0, 72, 58
1, 313351, Note_on_c, 0, 48, 35
1, 313492, Note_on_c, 0, 71, 71
1, 313639, Note_on_c, 0, 41, 50
1, 313650, Note_on_c, 0, 69, 74
1, 313713, Note_off_c, 0, 40, 38
1, 313780, Note_off_c, 0, 72, 26
1, 313795, Control_c, 0, 64, 21
1, 313799, Note_on_c, 0, 50, 74
1, 313810, Control_c, 0, 64, 34
1, 313825, Control_c, 0, 64, 42
1, 313836, Note_off_c, 0, 48, 56
1, 313839, Control_c, 0, 64, 48
1, 313854, Control_c, 0, 64, 51
1, 313869, Control_c, 0, 64, 51
1, 313928, Control_c, 0, 64, 52
1, 313943, Control_c, 0, 64, 52
1, 313954, Note_on_c, 0, 65, 79
1, 313957, Note_on_c, 0, 52, 70
1, 313976, Note_off_c, 0, 71, 42
1, 313995, Control_c, 0, 64, 52
1, 313996, Note_off_c, 0, 50, 63
1, 313998, Note_off_c, 0, 41, 41
1, 314001, Note_off_c, 0, 69, 63
1, 314084, Control_c, 0, 64, 51
1, 314098, Control_c, 0, 64, 50
1, 314100, Note_on_c, 0, 62, 84
1, 314103, Note_on_c, 0, 53, 73
1, 314118, Note_off_c, 0, 65, 64
1, 314122, Note_off_c, 0, 52, 62
1, 314129, Control_c, 0, 64, 51
1, 314144, Control_c, 0, 64, 51
1, 314156, Note_off_c, 0, 53, 62
1, 314187, Control_c, 0, 64, 51
1, 314202, Control_c, 0, 64, 50
1, 314217, Control_c, 0, 64, 49
1, 314232, Control_c, 0, 64, 47
1, 314247, Control_c, 0, 64, 44
1, 314261, Control_c, 0, 64, 37
1, 314276, Control_c, 0, 64, 18
1, 314291, Note_on_c, 0, 67, 68
1, 314291, Control_c, 0, 64, 0
1, 314300, Note_on_c, 0, 43, 54
1, 314309, Note_on_c, 0, 52, 33
1, 314311, Note_on_c, 0, 55, 49
1, 314349, Note_off_c, 0, 62, 49
1, 314558, Control_c, 0, 64, 16
1, 314559, Note_off_c, 0, 55, 46
1, 314573, Control_c, 0, 64, 32
1, 314587, Control_c, 0, 64, 40
1, 314602, Control_c, 0, 64, 48
1, 314609, Note_on_c, 0, 64, 65
1, 314617, Control_c, 0, 64, 53
1, 314632, Control_c, 0, 64, 55
1, 314647, Control_c, 0, 64, 56
1, 314661, Control_c, 0, 64, 57
1, 314676, Control_c, 0, 64, 57
1, 314691, Control_c, 0, 64, 58
1, 314697, Note_off_c, 0, 67, 33
1, 314774, Note_on_c, 0, 60, 67
1, 314774, Note_off_c, 0, 64, 61
1, 314923, Control_c, 0, 64, 57
1, 314938, Control_c, 0, 64, 54
1, 314952, Control_c, 0, 64, 46
1, 314958, Note_on_c, 0, 65, 60
1, 314958, Note_off_c, 0, 60, 55
1, 314967, Control_c, 0, 64, 30
1, 314978, Note_on_c, 0, 53, 38
1, 314979, Note_on_c, 0, 50, 38
1, 314982, Control_c, 0, 64, 0
1, 315035, Note_off_c, 0, 52, 42
1, 315159, Control_c, 0, 64, 8
1, 315174, Control_c, 0, 64, 26
1, 315189, Control_c, 0, 64, 35
1, 315204, Control_c, 0, 64, 42
1, 315218, Control_c, 0, 64, 49
1, 315233, Control_c, 0, 64, 55
1, 315248, Control_c, 0, 64, 60
1, 315263, Control_c, 0, 64, 63
1, 315267, Note_on_c, 0, 62, 58
1, 315278, Control_c, 0, 64, 64
1, 315295, Note_off_c, 0, 65, 38
1, 315403, Note_off_c, 0, 62, 60
1, 315432, Note_on_c, 0, 59, 55
1, 315463, Note_off_c, 0, 53, 39
1, 315507, Control_c, 0, 64, 64
1, 315522, Control_c, 0, 64, 62
1, 315537, Control_c, 0, 64, 58
1, 315548, Note_off_c, 0, 50, 38
1, 315552, Control_c, 0, 64, 49
1, 315567, Control_c, 0, 64, 29
1, 315582, Control_c, 0, 64, 0
1, 315591, Note_off_c, 0, 59, 36
1, 315602, Note_off_c, 0, 43, 30
1, 315623, Note_on_c, 0, 60, 53
1, 315633, Note_on_c, 0, 48, 40
1, 315633, Note_on_c, 0, 52, 44
1, 315685, Control_c, 0, 64, 10
1, 315700, Control_c, 0, 64, 35
1, 315716, Control_c, 0, 64, 52
1, 315731, Control_c, 0, 64, 61
1, 315746, Control_c, 0, 64, 64
1, 315748, Note_off_c, 0, 60, 62
1, 315775, Control_c, 0, 64, 64
1, 315775, Note_off_c, 0, 52, 54
1, 315793, Note_off_c, 0, 48, 40
1, 315805, Control_c, 0, 64, 65
1, 315864, Control_c, 0, 64, 63
1, 315879, Control_c, 0, 64, 60
1, 315893, Control_c, 0, 64, 51
1, 315908, Control_c, 0, 64, 26
1, 315923, Control_c, 0, 64, 0
1, 315951, Note_on_c, 0, 77, 80
1, 315963, Note_on_c, 0, 45, 57
1, 315964, Note_on_c, 0, 53, 62
1, 316102, Note_on_c, 0, 76, 82
1, 316270, Note_on_c, 0, 74, 87
1, 316276, Note_off_c, 0, 77, 30
1, 316276, Note_on_c, 0, 46, 58
1, 316306, Note_off_c, 0, 76, 66
1, 316360, Control_c, 0, 64, 11
1, 316374, Control_c, 0, 64, 39
1, 316389, Control_c, 0, 64, 54
1, 316404, Note_off_c, 0, 46, 64
1, 316404, Control_c, 0, 64, 62
1, 316419, Control_c, 0, 64, 64
1, 316428, Note_on_c, 0, 55, 77
1, 316460, Note_off_c, 0, 53, 64
1, 316497, Note_off_c, 0, 45, 30
1, 316538, Control_c, 0, 64, 61
1, 316553, Control_c, 0, 64, 54
1, 316568, Control_c, 0, 64, 33
1, 316576, Note_on_c, 0, 70, 80
1, 316583, Control_c, 0, 64, 0
1, 316588, Note_on_c, 0, 57, 68
1, 316588, Note_off_c, 0, 55, 64
1, 316623, Note_off_c, 0, 74, 63
1, 316643, Control_c, 0, 64, 24
1, 316658, Control_c, 0, 64, 41
1, 316672, Control_c, 0, 64, 57
1, 316687, Control_c, 0, 64, 64
1, 316702, Control_c, 0, 64, 65
1, 316721, Note_on_c, 0, 67, 89
1, 316723, Note_on_c, 0, 58, 76
1, 316743, Note_off_c, 0, 57, 60
1, 316759, Note_off_c, 0, 70, 62
1, 316761, Control_c, 0, 64, 65
1, 316777, Note_off_c, 0, 58, 61
1, 316879, Control_c, 0, 64, 64
1, 316894, Control_c, 0, 64, 62
1, 316908, Note_on_c, 0, 72, 75
1, 316908, Control_c, 0, 64, 57
1, 316914, Note_on_c, 0, 57, 45
1, 316919, Note_on_c, 0, 60, 59
1, 316920, Note_on_c, 0, 48, 51
1, 316923, Control_c, 0, 64, 46
1, 316936, Note_off_c, 0, 67, 49
1, 316938, Control_c, 0, 64, 27
1, 316953, Control_c, 0, 64, 0
1, 317138, Control_c, 0, 64, 14
1, 317153, Control_c, 0, 64, 31
1, 317168, Control_c, 0, 64, 41
1, 317182, Control_c, 0, 64, 52
1, 317197, Control_c, 0, 64, 59
1, 317212, Note_off_c, 0, 60, 47
1, 317212, Control_c, 0, 64, 62
1, 317239, Note_on_c, 0, 69, 71
1, 317242, Control_c, 0, 64, 63
1, 317257, Control_c, 0, 64, 65
1, 317269, Note_off_c, 0, 72, 58
1, 317272, Control_c, 0, 64, 67
1, 317287, Control_c, 0, 64, 69
1, 317302, Control_c, 0, 64, 70
1, 317317, Control_c, 0, 64, 70
1, 317331, Control_c, 0, 64, 71
1, 317403, Note_on_c, 0, 65, 73
1, 317405, Note_off_c, 0, 69, 62
1, 317569, Control_c, 0, 64, 69
1, 317584, Control_c, 0, 64, 65
1, 317594, Note_on_c, 0, 70, 65
1, 317599, Control_c, 0, 64, 58
1, 317606, Note_on_c, 0, 58, 43
1, 317609, Note_on_c, 0, 55, 48
1, 317612, Note_off_c, 0, 65, 55
1, 317613, Control_c, 0, 64, 36
1, 317628, Control_c, 0, 64, 0
1, 317652, Note_off_c, 0, 57, 37
1, 317799, Control_c, 0, 64, 23
1, 317813, Control_c, 0, 64, 36
1, 317828, Control_c, 0, 64, 45
1, 317843, Control_c, 0, 64, 51
1, 317858, Control_c, 0, 64, 56
1, 317872, Control_c, 0, 64, 61
1, 317887, Control_c, 0, 64, 65
1, 317902, Control_c, 0, 64, 70
1, 317917, Note_on_c, 0, 67, 59
1, 317917, Control_c, 0, 64, 72
1, 317955, Note_off_c, 0, 58, 41
1, 317978, Note_off_c, 0, 70, 36
1, 318048, Note_off_c, 0, 48, 37
1, 318059, Note_off_c, 0, 67, 61
1, 318082, Note_on_c, 0, 64, 58
1, 318193, Note_off_c, 0, 55, 39
1, 318229, Control_c, 0, 64, 71
1, 318244, Control_c, 0, 64, 69
1, 318258, Control_c, 0, 64, 64
1, 318273, Control_c, 0, 64, 58
1, 318285, Note_off_c, 0, 64, 33
1, 318288, Control_c, 0, 64, 40
1, 318303, Control_c, 0, 64, 0
1, 318311, Note_on_c, 0, 65, 48
1, 318327, Note_on_c, 0, 56, 27
1, 318333, Note_on_c, 0, 53, 31
1, 318407, Control_c, 0, 64, 22
1, 318422, Control_c, 0, 64, 37
1, 318436, Control_c, 0, 64, 48
1, 318447, Note_off_c, 0, 53, 49
1, 318451, Control_c, 0, 64, 57
1, 318466, Note_off_c, 0, 56, 43
1, 318466, Control_c, 0, 64, 61
1, 318488, Control_c, 0, 64, 62
1, 318499, Note_off_c, 0, 65, 41
1, 318503, Control_c, 0, 64, 63
1, 318518, Control_c, 0, 64, 64
1, 318533, Control_c, 0, 64, 65
1, 318577, Control_c, 0, 67, 8
1, 318592, Control_c, 0, 67, 10
1, 318607, Control_c, 0, 67, 12
1, 318622, Control_c, 0, 67, 14
1, 318636, Control_c, 0, 67, 16
1, 318651, Control_c, 0, 67, 19
1, 318666, Control_c, 0, 67, 22
1, 318681, Control_c, 0, 64, 64
1, 318681, Control_c, 0, 67, 26
1, 318695, Control_c, 0, 64, 63
1, 318695, Control_c, 0, 67, 29
1, 318710, Control_c, 0, 64, 60
1, 318710, Control_c, 0, 67, 32
1, 318725, Control_c, 0, 64, 53
1, 318725, Control_c, 0, 67, 36
1, 318740, Control_c, 0, 64, 38
1, 318740, Control_c, 0, 67, 40
1, 318753, Note_on_c, 0, 77, 44
1, 318755, Control_c, 0, 64, 0
1, 318755, Control_c, 0, 67, 43
1, 318759, Note_on_c, 0, 44, 36
1, 318769, Control_c, 0, 67, 44
1, 318775, Note_on_c, 0, 53, 34
1, 318828, Control_c, 0, 67, 44
1, 318931, Note_on_c, 0, 75, 55
1, 318933, Control_c, 0, 67, 43
1, 318948, Control_c, 0, 67, 43
1, 318963, Control_c, 0, 67, 42
1, 318977, Control_c, 0, 67, 41
1, 319007, Control_c, 0, 67, 41
1, 319022, Control_c, 0, 67, 40
1, 319037, Control_c, 0, 67, 40
1, 319087, Note_on_c, 0, 46, 46
1, 319093, Note_on_c, 0, 73, 59
1, 319103, Note_off_c, 0, 53, 43
1, 319126, Control_c, 0, 67, 39
1, 319141, Control_c, 0, 67, 39
1, 319179, Note_off_c, 0, 44, 39
1, 319215, Control_c, 0, 64, 17
1, 319236, Control_c, 0, 64, 28
1, 319236, Control_c, 0, 67, 38
1, 319251, Note_on_c, 0, 55, 60
1, 319251, Control_c, 0, 64, 37
1, 319266, Control_c, 0, 64, 43
1, 319281, Control_c, 0, 64, 47
1, 319296, Control_c, 0, 64, 50
1, 319311, Control_c, 0, 64, 51
1, 319326, Control_c, 0, 64, 51
1, 319349, Note_off_c, 0, 77, 30
1, 319355, Control_c, 0, 64, 51
1, 319370, Control_c, 0, 64, 50
1, 319385, Control_c, 0, 64, 48
1, 319386, Note_off_c, 0, 55, 63
1, 319400, Control_c, 0, 64, 46
1, 319400, Note_on_c, 0, 70, 70
1, 319404, Note_on_c, 0, 56, 63
1, 319415, Control_c, 0, 64, 43
1, 319430, Control_c, 0, 64, 43
1, 319444, Control_c, 0, 64, 44
1, 319459, Control_c, 0, 64, 44
1, 319470, Note_off_c, 0, 75, 35
1, 319474, Control_c, 0, 64, 45
1, 319489, Control_c, 0, 64, 45
1, 319504, Note_off_c, 0, 73, 33
1, 319504, Control_c, 0, 64, 46
1, 319518, Control_c, 0, 64, 46
1, 319529, Note_off_c, 0, 46, 41
1, 319540, Note_on_c, 0, 58, 66
1, 319548, Note_on_c, 0, 67, 76
1, 319550, Note_off_c, 0, 56, 63
1, 319563, Note_off_c, 0, 70, 60
1, 319563, Control_c, 0, 67, 38
1, 319597, Note_off_c, 0, 58, 61
1, 319636, Control_c, 0, 64, 46
1, 319651, Control_c, 0, 64, 44
1, 319666, Control_c, 0, 64, 42
1, 319681, Control_c, 0, 64, 37
1, 319696, Control_c, 0, 64, 24
1, 319712, Control_c, 0, 64, 0
1, 319712, Control_c, 0, 67, 38
1, 319727, Control_c, 0, 67, 39
1, 319735, Note_on_c, 0, 72, 60
1, 319744, Note_on_c, 0, 60, 44
1, 319750, Note_off_c, 0, 67, 48
1, 319755, Note_on_c, 0, 48, 41
1, 319756, Control_c, 0, 67, 39
1, 319762, Note_on_c, 0, 56, 39
1, 319771, Control_c, 0, 67, 40
1, 319786, Control_c, 0, 67, 40
1, 319815, Control_c, 0, 67, 41
1, 319845, Control_c, 0, 67, 41
1, 319874, Control_c, 0, 67, 42
1, 319904, Control_c, 0, 67, 43
1, 319986, Control_c, 0, 64, 20
1, 320001, Control_c, 0, 64, 31
1, 320015, Control_c, 0, 64, 40
1, 320030, Control_c, 0, 64, 48
1, 320045, Control_c, 0, 64, 53
1, 320048, Note_on_c, 0, 68, 55
1, 320059, Control_c, 0, 64, 56
1, 320059, Control_c, 0, 67, 43
1, 320074, Note_off_c, 0, 60, 33
1, 320074, Control_c, 0, 64, 58
1, 320089, Control_c, 0, 64, 60
1, 320089, Control_c, 0, 67, 44
1, 320104, Note_off_c, 0, 72, 32
1, 320104, Control_c, 0, 64, 61
1, 320119, Control_c, 0, 64, 62
1, 320133, Control_c, 0, 64, 62
1, 320179, Note_off_c, 0, 68, 56
1, 320202, Note_on_c, 0, 65, 58
1, 320282, Control_c, 0, 67, 45
1, 320327, Control_c, 0, 64, 62
1, 320341, Control_c, 0, 64, 61
1, 320356, Control_c, 0, 64, 57
1, 320371, Control_c, 0, 64, 50
1, 320386, Control_c, 0, 64, 35
1, 320386, Control_c, 0, 67, 45
1, 320387, Note_on_c, 0, 70, 54
1, 320401, Control_c, 0, 64, 0
1, 320401, Control_c, 0, 67, 46
1, 320402, Note_on_c, 0, 58, 36
1, 320414, Note_off_c, 0, 65, 41
1, 320415, Control_c, 0, 67, 49
1, 320423, Note_on_c, 0, 55, 36
1, 320430, Control_c, 0, 67, 53
1, 320445, Control_c, 0, 67, 55
1, 320459, Control_c, 0, 67, 56
1, 320474, Note_off_c, 0, 56, 44
1, 320474, Control_c, 0, 67, 57
1, 320489, Control_c, 0, 67, 58
1, 320505, Control_c, 0, 67, 60
1, 320520, Control_c, 0, 67, 62
1, 320535, Control_c, 0, 64, 17
1, 320535, Control_c, 0, 67, 64
1, 320550, Control_c, 0, 64, 30
1, 320550, Control_c, 0, 67, 65
1, 320564, Control_c, 0, 64, 38
1, 320564, Control_c, 0, 67, 65
1, 320579, Control_c, 0, 64, 46
1, 320594, Note_off_c, 0, 48, 43
1, 320594, Control_c, 0, 64, 52
1, 320609, Control_c, 0, 64, 55
1, 320609, Control_c, 0, 67, 66
1, 320623, Control_c, 0, 64, 56
1, 320623, Control_c, 0, 67, 67
1, 320638, Control_c, 0, 64, 57
1, 320638, Control_c, 0, 67, 68
1, 320653, Control_c, 0, 64, 58
1, 320668, Control_c, 0, 64, 59
1, 320668, Control_c, 0, 67, 69
1, 320682, Control_c, 0, 67, 71
1, 320694, Note_on_c, 0, 67, 52
1, 320697, Control_c, 0, 67, 74
1, 320708, Note_off_c, 0, 70, 37
1, 320712, Control_c, 0, 67, 76
1, 320735, Control_c, 0, 67, 79
1, 320750, Control_c, 0, 67, 81
1, 320764, Control_c, 0, 67, 83
1, 320779, Control_c, 0, 67, 84
1, 320794, Control_c, 0, 67, 86
1, 320809, Control_c, 0, 67, 88
1, 320822, Note_off_c, 0, 67, 60
1, 320824, Control_c, 0, 67, 89
1, 320838, Control_c, 0, 67, 90
1, 320858, Note_on_c, 0, 64, 53
1, 320868, Control_c, 0, 67, 91
1, 320882, Control_c, 0, 64, 58
1, 320882, Control_c, 0, 67, 92
1, 320897, Control_c, 0, 64, 54
1, 320897, Control_c, 0, 67, 95
1, 320912, Control_c, 0, 64, 44
1, 320912, Control_c, 0, 67, 99
1, 320927, Control_c, 0, 64, 21
1, 320927, Control_c, 0, 67, 102
1, 320942, Control_c, 0, 64, 0
1, 320942, Control_c, 0, 67, 105
1, 320944, Note_off_c, 0, 64, 42
1, 320956, Control_c, 0, 67, 108
1, 320971, Control_c, 0, 67, 112
1, 320974, Note_off_c, 0, 58, 43
1, 320986, Control_c, 0, 67, 116
1, 321001, Control_c, 0, 64, 29
1, 321001, Control_c, 0, 67, 121
1, 321015, Note_on_c, 0, 56, 63
1, 321016, Note_on_c, 0, 65, 67
1, 321016, Control_c, 0, 64, 51
1, 321016, Control_c, 0, 67, 127
1, 321031, Control_c, 0, 64, 66
1, 321031, Note_on_c, 0, 49, 67
1, 321037, Note_off_c, 0, 56, 67
1, 321043, Note_off_c, 0, 55, 39
1, 321043, Note_off_c, 0, 65, 69
1, 321046, Control_c, 0, 64, 81
1, 321059, Note_off_c, 0, 49, 68
1, 321060, Control_c, 0, 64, 82
1, 321075, Control_c, 0, 64, 83
1, 321090, Control_c, 0, 64, 83
1, 321109, Poly_aftertouch_c, 0, 53, 0
1, 321135, Control_c, 0, 64, 82
1, 321150, Control_c, 0, 64, 75
1, 321164, Control_c, 0, 64, 63
1, 321179, Control_c, 0, 64, 49
1, 321186, Note_on_c, 0, 37, 64
1, 321189, Note_on_c, 0, 44, 56
1, 321194, Note_on_c, 0, 53, 46
1, 321194, Control_c, 0, 64, 0
1, 321195, Note_on_c, 0, 49, 37
1, 321211, Note_off_c, 0, 37, 54
1, 321214, Note_off_c, 0, 44, 57
1, 321220, Note_off_c, 0, 53, 59
1, 321236, Note_off_c, 0, 49, 49
1, 321299, Note_on_c, 0, 37, 67
1, 321302, Note_on_c, 0, 44, 64
1, 321305, Note_on_c, 0, 53, 52
1, 321321, Note_on_c, 0, 49, 55
1, 321332, Note_off_c, 0, 37, 63
1, 321334, Note_off_c, 0, 44, 63
1, 321345, Note_off_c, 0, 53, 65
1, 321347, Note_off_c, 0, 49, 59
1, 321438, Note_on_c, 0, 37, 63
1, 321440, Note_on_c, 0, 44, 60
1, 321448, Note_on_c, 0, 53, 56
1, 321457, Note_on_c, 0, 49, 40
1, 321466, Note_off_c, 0, 44, 61
1, 321471, Note_off_c, 0, 37, 63
1, 321489, Note_off_c, 0, 53, 66
1, 321498, Note_off_c, 0, 49, 53
1, 321587, Note_on_c, 0, 37, 60
1, 321591, Note_on_c, 0, 49, 45
1, 321592, Note_on_c, 0, 44, 44
1, 321594, Note_on_c, 0, 53, 50
1, 321620, Note_off_c, 0, 37, 62
1, 321621, Note_off_c, 0, 44, 53
1, 321621, Note_off_c, 0, 49, 59
1, 321630, Note_off_c, 0, 53, 66
1, 321729, Note_on_c, 0, 44, 49
1, 321730, Note_on_c, 0, 37, 57
1, 321737, Note_on_c, 0, 53, 48
1, 321743, Note_on_c, 0, 49, 33
1, 321758, Note_off_c, 0, 44, 57
1, 321758, Note_off_c, 0, 37, 60
1, 321767, Note_off_c, 0, 53, 62
1, 321777, Note_off_c, 0, 49, 49
1, 321866, Note_on_c, 0, 37, 56
1, 321866, Note_on_c, 0, 44, 51
1, 321876, Note_on_c, 0, 53, 45
1, 321880, Note_on_c, 0, 49, 44
1, 321893, Note_off_c, 0, 44, 58
1, 321896, Note_off_c, 0, 37, 61
1, 321909, Note_off_c, 0, 49, 59
1, 321913, Note_off_c, 0, 53, 66
1, 322005, Note_on_c, 0, 37, 60
1, 322011, Note_on_c, 0, 44, 45
1, 322014, Note_on_c, 0, 49, 48
1, 322023, Note_on_c, 0, 53, 48
1, 322036, Note_off_c, 0, 37, 62
1, 322038, Note_off_c, 0, 44, 54
1, 322044, Note_off_c, 0, 49, 59
1, 322050, Note_off_c, 0, 53, 61
1, 322145, Note_on_c, 0, 37, 61
1, 322148, Note_on_c, 0, 44, 49
1, 322154, Note_on_c, 0, 53, 51
1, 322159, Note_on_c, 0, 49, 43
1, 322175, Note_off_c, 0, 37, 62
1, 322175, Note_off_c, 0, 44, 55
1, 322187, Note_off_c, 0, 49, 58
1, 322190, Note_off_c, 0, 53, 66
1, 322286, Note_on_c, 0, 37, 63
1, 322288, Note_on_c, 0, 44, 50
1, 322303, Note_on_c, 0, 49, 38
1, 322304, Note_on_c, 0, 53, 45
1, 322315, Note_off_c, 0, 44, 57
1, 322318, Note_off_c, 0, 37, 63
1, 322332, Note_off_c, 0, 53, 58
1, 322336, Note_off_c, 0, 49, 51
1, 322426, Note_on_c, 0, 37, 60
1, 322426, Note_on_c, 0, 44, 52
1, 322434, Note_on_c, 0, 49, 49
1, 322435, Note_on_c, 0, 53, 48
1, 322453, Note_off_c, 0, 37, 60
1, 322453, Note_off_c, 0, 44, 58
1, 322467, Note_off_c, 0, 49, 60
1, 322472, Note_off_c, 0, 53, 65
1, 322561, Note_on_c, 0, 37, 62
1, 322565, Note_on_c, 0, 44, 53
1, 322581, Note_on_c, 0, 53, 52
1, 322583, Note_on_c, 0, 49, 43
1, 322592, Note_off_c, 0, 44, 58
1, 322593, Note_off_c, 0, 37, 62
1, 322612, Note_off_c, 0, 49, 58
1, 322615, Note_off_c, 0, 53, 65
1, 322696, Note_on_c, 0, 37, 65
1, 322698, Note_on_c, 0, 44, 52
1, 322711, Note_on_c, 0, 53, 54
1, 322712, Note_on_c, 0, 49, 42
1, 322726, Note_off_c, 0, 44, 58
1, 322730, Note_off_c, 0, 37, 63
1, 322749, Note_off_c, 0, 49, 54
1, 322751, Note_off_c, 0, 53, 64
1, 322837, Note_on_c, 0, 37, 60
1, 322843, Note_on_c, 0, 44, 47
1, 322858, Note_on_c, 0, 53, 45
1, 322864, Note_off_c, 0, 37, 61
1, 322867, Note_on_c, 0, 49, 22
1, 322870, Note_off_c, 0, 44, 55
1, 322887, Note_off_c, 0, 53, 59
1, 322909, Note_off_c, 0, 49, 48
1, 322978, Note_on_c, 0, 37, 62
1, 322989, Note_on_c, 0, 55, 59
1, 322992, Note_on_c, 0, 46, 57
1, 323002, Note_on_c, 0, 51, 47
1, 323010, Note_off_c, 0, 37, 64
1, 323017, Note_off_c, 0, 55, 67
1, 323018, Note_off_c, 0, 46, 59
1, 323027, Note_off_c, 0, 51, 58
1, 323116, Note_on_c, 0, 46, 61
1, 323117, Note_on_c, 0, 51, 54
1, 323120, Note_on_c, 0, 55, 62
1, 323126, Note_on_c, 0, 37, 55
1, 323146, Note_off_c, 0, 55, 68
1, 323147, Note_off_c, 0, 51, 67
1, 323148, Note_off_c, 0, 46, 66
1, 323153, Note_off_c, 0, 37, 57
1, 323253, Note_on_c, 0, 51, 63
1, 323257, Note_on_c, 0, 56, 66
1, 323259, Note_on_c, 0, 44, 63
1, 323269, Note_on_c, 0, 36, 51
1, 323287, Note_off_c, 0, 44, 62
1, 323293, Note_on_c, 0, 39, 10
1, 323299, Note_off_c, 0, 36, 55
1, 323344, Note_off_c, 0, 39, 28
1, 323387, Note_on_c, 0, 36, 54
1, 323389, Note_on_c, 0, 44, 57
1, 323415, Note_off_c, 0, 44, 60
1, 323418, Note_off_c, 0, 36, 64
1, 323529, Note_on_c, 0, 36, 56
1, 323532, Note_on_c, 0, 44, 51
1, 323558, Note_off_c, 0, 44, 57
1, 323560, Note_off_c, 0, 36, 64
1, 323664, Note_off_c, 0, 56, 44
1, 323673, Note_on_c, 0, 44, 52
1, 323681, Note_on_c, 0, 36, 46
1, 323686, Note_on_c, 0, 60, 62
1, 323703, Note_off_c, 0, 44, 60
1, 323711, Note_on_c, 0, 39, 10
1, 323711, Note_off_c, 0, 36, 55
1, 323758, Note_on_c, 0, 58, 65
1, 323774, Note_off_c, 0, 39, 26
1, 323785, Note_off_c, 0, 60, 62
1, 323807, Note_off_c, 0, 51, 34
1, 323826, Note_on_c, 0, 36, 48
1, 323835, Note_on_c, 0, 56, 59
1, 323836, Note_on_c, 0, 44, 45
1, 323846, Note_on_c, 0, 39, 42
1, 323849, Note_off_c, 0, 58, 63
1, 323855, Note_off_c, 0, 36, 60
1, 323866, Note_off_c, 0, 44, 51
1, 323869, Note_off_c, 0, 56, 67
1, 323876, Note_off_c, 0, 39, 48
1, 323952, Note_on_c, 0, 44, 57
1, 323953, Note_on_c, 0, 39, 61
1, 323960, Note_on_c, 0, 36, 45
1, 323984, Note_off_c, 0, 44, 62
1, 323986, Note_off_c, 0, 39, 66
1, 323989, Note_off_c, 0, 36, 55
1, 324095, Note_on_c, 0, 44, 64
1, 324099, Note_on_c, 0, 39, 55
1, 324103, Note_on_c, 0, 36, 37
1, 324118, Note_off_c, 0, 44, 61
1, 324128, Note_off_c, 0, 39, 61
1, 324139, Note_off_c, 0, 36, 46
1, 324219, Note_on_c, 0, 44, 57
1, 324226, Note_on_c, 0, 36, 47
1, 324238, Note_on_c, 0, 39, 36
1, 324256, Note_off_c, 0, 36, 55
1, 324262, Note_off_c, 0, 44, 60
1, 324289, Note_off_c, 0, 39, 47
1, 324322, Control_c, 0, 67, 123
1, 324337, Control_c, 0, 67, 69
1, 324345, Note_on_c, 0, 86, 98
1, 324350, Note_on_c, 0, 87, 100
1, 324352, Control_c, 0, 67, 0
1, 324357, Note_on_c, 0, 41, 85
1, 324358, Note_on_c, 0, 45, 92
1, 324365, Note_on_c, 0, 36, 75
1, 324367, Control_c, 0, 64, 30
1, 324369, Note_on_c, 0, 39, 85
1, 324379, Note_on_c, 0, 85, 45
1, 324381, Control_c, 0, 64, 81
1, 324396, Control_c, 0, 64, 127
1, 324403, Note_off_c, 0, 85, 55
1, 324405, Note_off_c, 0, 36, 64
1, 324406, Note_off_c, 0, 86, 62
1, 324408, Note_off_c, 0, 45, 62
1, 324415, Note_off_c, 0, 39, 61
1, 324417, Note_off_c, 0, 41, 63
1, 324491, Note_on_c, 0, 45, 68
1, 324494, Note_on_c, 0, 41, 59
1, 324503, Note_on_c, 0, 36, 51
1, 324507, Note_on_c, 0, 39, 55
1, 324515, Note_off_c, 0, 45, 68
1, 324527, Note_off_c, 0, 41, 64
1, 324537, Note_off_c, 0, 36, 52
1, 324537, Note_off_c, 0, 39, 65
1, 324618, Note_on_c, 0, 36, 80
1, 324618, Note_on_c, 0, 45, 87
1, 324619, Note_on_c, 0, 41, 70
1, 324619, Note_off_c, 0, 87, 55
1, 324644, Note_on_c, 0, 40, 57
1, 324655, Note_off_c, 0, 41, 64
1, 324658, Note_off_c, 0, 36, 58
1, 324660, Note_off_c, 0, 45, 64
1, 324670, Note_off_c, 0, 40, 59
1, 324700, Note_on_c, 0, 85, 88
1, 324711, Note_on_c, 0, 87, 33
1, 324745, Note_off_c, 0, 87, 48
1, 324747, Note_on_c, 0, 41, 68
1, 324749, Note_on_c, 0, 36, 65
1, 324751, Note_on_c, 0, 45, 70
1, 324759, Note_on_c, 0, 39, 66
1, 324772, Note_off_c, 0, 45, 66
1, 324773, Note_on_c, 0, 84, 87
1, 324799, Note_off_c, 0, 36, 62
1, 324807, Note_off_c, 0, 85, 63
1, 324807, Note_off_c, 0, 41, 47
1, 324822, Note_off_c, 0, 39, 57
1, 324834, Note_on_c, 0, 82, 90
1, 324853, Note_off_c, 0, 84, 65
1, 324894, Control_c, 0, 64, 90
1, 324897, Note_on_c, 0, 45, 89
1, 324899, Note_on_c, 0, 81, 110
1, 324903, Note_on_c, 0, 36, 75
1, 324905, Note_on_c, 0, 41, 75
1, 324909, Control_c, 0, 64, 62
1, 324923, Control_c, 0, 64, 34
1, 324938, Control_c, 0, 64, 0
1, 324946, Note_on_c, 0, 38, 33
1, 324948, Note_off_c, 0, 36, 61
1, 324953, Note_off_c, 0, 45, 64
1, 324959, Note_off_c, 0, 82, 42
1, 324964, Note_off_c, 0, 41, 60
1, 324983, Note_off_c, 0, 38, 52
1, 325013, Note_off_c, 0, 81, 62
1, 325034, Note_on_c, 0, 45, 82
1, 325037, Note_on_c, 0, 36, 60
1, 325049, Note_on_c, 0, 41, 59
1, 325054, Note_on_c, 0, 39, 66
1, 325079, Note_off_c, 0, 36, 61
1, 325084, Note_off_c, 0, 45, 61
1, 325085, Note_off_c, 0, 41, 66
1, 325088, Note_off_c, 0, 39, 64
1, 325171, Note_on_c, 0, 45, 81
1, 325174, Note_on_c, 0, 41, 71
1, 325181, Note_on_c, 0, 36, 58
1, 325183, Note_on_c, 0, 39, 61
1, 325210, Note_off_c, 0, 45, 62
1, 325224, Note_off_c, 0, 36, 65
1, 325226, Note_off_c, 0, 41, 57
1, 325232, Note_off_c, 0, 39, 63
1, 325327, Note_on_c, 0, 45, 73
1, 325328, Note_on_c, 0, 39, 63
1, 325337, Note_on_c, 0, 41, 53
1, 325350, Note_off_c, 0, 45, 67
1, 325362, Note_off_c, 0, 39, 65
1, 325367, Note_off_c, 0, 41, 55
1, 325462, Note_on_c, 0, 58, 66
1, 325474, Note_on_c, 0, 37, 65
1, 325474, Note_on_c, 0, 41, 33
1, 325493, Note_on_c, 0, 46, 44
1, 325510, Control_c, 0, 67, 11
1, 325516, Note_off_c, 0, 37, 63
1, 325525, Note_off_c, 0, 46, 54
1, 325525, Control_c, 0, 67, 24
1, 325529, Note_off_c, 0, 41, 58
1, 325540, Control_c, 0, 67, 37
1, 325554, Control_c, 0, 67, 50
1, 325569, Control_c, 0, 67, 60
1, 325584, Control_c, 0, 67, 70
1, 325598, Control_c, 0, 67, 82
1, 325602, Note_on_c, 0, 46, 62
1, 325608, Note_on_c, 0, 37, 59
1, 325613, Control_c, 0, 67, 103
1, 325628, Control_c, 0, 67, 122
1, 325632, Note_off_c, 0, 46, 66
1, 325641, Note_off_c, 0, 37, 63
1, 325643, Control_c, 0, 67, 127
1, 325669, Poly_aftertouch_c, 0, 41, 127
1, 325738, Poly_aftertouch_c, 0, 41, 0
1, 325752, Note_on_c, 0, 41, 42
1, 325757, Note_on_c, 0, 37, 46
1, 325785, Note_off_c, 0, 37, 53
1, 325785, Note_off_c, 0, 41, 62
1, 325883, Note_on_c, 0, 37, 52
1, 325891, Note_on_c, 0, 41, 43
1, 325896, Note_off_c, 0, 58, 58
1, 325907, Note_on_c, 0, 61, 63
1, 325918, Note_off_c, 0, 37, 63
1, 325924, Note_off_c, 0, 41, 61
1, 325988, Note_on_c, 0, 60, 62
1, 326024, Note_on_c, 0, 41, 54
1, 326027, Note_off_c, 0, 61, 59
1, 326029, Note_on_c, 0, 37, 58
1, 326036, Note_on_c, 0, 58, 66
1, 326059, Note_off_c, 0, 41, 64
1, 326060, Note_off_c, 0, 60, 65
1, 326063, Note_off_c, 0, 37, 63
1, 326073, Note_off_c, 0, 58, 67
1, 326167, Note_on_c, 0, 41, 51
1, 326173, Note_on_c, 0, 37, 51
1, 326200, Note_off_c, 0, 37, 59
1, 326200, Note_off_c, 0, 41, 65
1, 326272, Control_c, 0, 67, 126
1, 326287, Control_c, 0, 67, 121
1, 326301, Control_c, 0, 67, 111
1, 326304, Note_on_c, 0, 37, 53
1, 326316, Note_on_c, 0, 41, 40
1, 326316, Control_c, 0, 67, 98
1, 326331, Control_c, 0, 67, 74
1, 326341, Note_off_c, 0, 37, 63
1, 326346, Control_c, 0, 67, 44
1, 326350, Note_off_c, 0, 41, 52
1, 326361, Control_c, 0, 67, 9
1, 326375, Control_c, 0, 67, 0
1, 326448, Note_on_c, 0, 37, 50
1, 326453, Note_on_c, 0, 41, 30
1, 326480, Note_off_c, 0, 37, 59
1, 326489, Note_off_c, 0, 41, 53
1, 326577, Note_on_c, 0, 88, 90
1, 326578, Note_on_c, 0, 89, 112
1, 326587, Note_on_c, 0, 41, 80
1, 326590, Note_on_c, 0, 47, 98
1, 326590, Note_on_c, 0, 38, 87
1, 326598, Control_c, 0, 64, 53
1, 326612, Control_c, 0, 64, 117
1, 326626, Note_off_c, 0, 38, 63
1, 326627, Control_c, 0, 64, 127
1, 326632, Note_off_c, 0, 47, 63
1, 326633, Note_off_c, 0, 41, 63
1, 326666, Note_off_c, 0, 88, 62
1, 326736, Note_on_c, 0, 47, 84
1, 326738, Note_on_c, 0, 38, 75
1, 326739, Note_on_c, 0, 41, 74
1, 326761, Note_off_c, 0, 47, 64
1, 326766, Note_off_c, 0, 41, 68
1, 326770, Note_off_c, 0, 38, 63
1, 326866, Note_on_c, 0, 47, 95
1, 326870, Note_on_c, 0, 38, 79
1, 326877, Note_on_c, 0, 41, 66
1, 326903, Note_off_c, 0, 47, 49
1, 326906, Note_off_c, 0, 38, 61
1, 326909, Note_off_c, 0, 41, 65
1, 326951, Note_on_c, 0, 87, 89
1, 327006, Note_on_c, 0, 47, 79
1, 327007, Note_on_c, 0, 41, 66
1, 327013, Note_off_c, 0, 89, 38
1, 327015, Note_on_c, 0, 38, 64
1, 327025, Note_on_c, 0, 86, 95
1, 327057, Note_off_c, 0, 38, 54
1, 327058, Note_off_c, 0, 87, 64
1, 327076, Note_off_c, 0, 47, 62
1, 327084, Note_off_c, 0, 41, 58
1, 327093, Note_on_c, 0, 84, 90
1, 327130, Note_off_c, 0, 86, 58
1, 327163, Note_on_c, 0, 47, 94
1, 327163, Note_on_c, 0, 83, 107
1, 327165, Note_on_c, 0, 41, 81
1, 327167, Note_on_c, 0, 38, 71
1, 327200, Note_off_c, 0, 84, 63
1, 327212, Note_off_c, 0, 38, 57
1, 327220, Note_off_c, 0, 47, 64
1, 327228, Note_off_c, 0, 41, 63
1, 327259, Note_off_c, 0, 83, 63
1, 327302, Note_on_c, 0, 47, 95
1, 327312, Note_on_c, 0, 38, 73
1, 327320, Note_on_c, 0, 41, 66
1, 327332, Control_c, 0, 64, 89
1, 327338, Note_off_c, 0, 38, 67
1, 327343, Poly_aftertouch_c, 0, 81, 0
1, 327347, Control_c, 0, 64, 60
1, 327353, Note_off_c, 0, 41, 66
1, 327354, Note_off_c, 0, 47, 64
1, 327361, Control_c, 0, 64, 0
1, 327444, Note_on_c, 0, 47, 86
1, 327445, Note_on_c, 0, 41, 65
1, 327451, Note_on_c, 0, 38, 62
1, 327492, Note_off_c, 0, 47, 64
1, 327494, Note_off_c, 0, 38, 62
1, 327496, Note_off_c, 0, 41, 63
1, 327601, Note_on_c, 0, 41, 55
1, 327603, Note_on_c, 0, 47, 68
1, 327612, Note_on_c, 0, 38, 33
1, 327629, Note_off_c, 0, 41, 59
1, 327633, Note_off_c, 0, 47, 65
1, 327654, Note_off_c, 0, 38, 51
1, 327736, Note_on_c, 0, 60, 77
1, 327740, Note_on_c, 0, 47, 52
1, 327741, Note_on_c, 0, 43, 48
1, 327752, Note_on_c, 0, 39, 43
1, 327773, Note_off_c, 0, 47, 57
1, 327788, Note_off_c, 0, 39, 53
1, 327796, Note_off_c, 0, 43, 46
1, 327845, Note_off_c, 0, 60, 49
1, 327883, Note_on_c, 0, 47, 63
1, 327897, Note_on_c, 0, 63, 72
1, 327898, Note_on_c, 0, 43, 50
1, 327914, Note_on_c, 0, 39, 17
1, 327922, Note_off_c, 0, 47, 64
1, 327952, Note_off_c, 0, 39, 41
1, 327958, Note_off_c, 0, 43, 50
1, 327961, Note_on_c, 0, 62, 81
1, 327992, Note_off_c, 0, 63, 60
1, 328013, Note_on_c, 0, 48, 86
1, 328013, Note_on_c, 0, 60, 103
1, 328014, Note_on_c, 0, 43, 56
1, 328023, Note_on_c, 0, 39, 54
1, 328036, Control_c, 0, 64, 43
1, 328041, Note_off_c, 0, 62, 66
1, 328043, Note_off_c, 0, 48, 65
1, 328051, Control_c, 0, 64, 60
1, 328053, Note_off_c, 0, 60, 66
1, 328063, Note_off_c, 0, 39, 65
1, 328066, Control_c, 0, 64, 92
1, 328068, Note_off_c, 0, 43, 60
1, 328080, Control_c, 0, 64, 127
1, 328138, Note_on_c, 0, 39, 57
1, 328141, Note_on_c, 0, 48, 69
1, 328145, Note_on_c, 0, 43, 50
1, 328170, Note_off_c, 0, 48, 60
1, 328178, Note_off_c, 0, 43, 56
1, 328179, Note_off_c, 0, 39, 64
1, 328251, Control_c, 0, 64, 86
1, 328266, Control_c, 0, 64, 64
1, 328280, Control_c, 0, 64, 43
1, 328295, Control_c, 0, 64, 0
1, 328304, Note_on_c, 0, 80, 73
1, 328313, Note_on_c, 0, 48, 65
1, 328316, Note_on_c, 0, 44, 56
1, 328321, Note_on_c, 0, 41, 47
1, 328335, Note_off_c, 0, 48, 63
1, 328343, Note_off_c, 0, 44, 59
1, 328352, Note_off_c, 0, 41, 54
1, 328376, Note_on_c, 0, 79, 71
1, 328418, Note_off_c, 0, 80, 58
1, 328428, Note_on_c, 0, 77, 76
1, 328432, Note_on_c, 0, 44, 58
1, 328434, Note_on_c, 0, 48, 61
1, 328435, Note_on_c, 0, 41, 53
1, 328466, Note_off_c, 0, 79, 60
1, 328470, Note_off_c, 0, 41, 63
1, 328474, Note_off_c, 0, 48, 62
1, 328476, Note_off_c, 0, 44, 60
1, 328494, Note_on_c, 0, 75, 78
1, 328533, Note_off_c, 0, 77, 59
1, 328569, Note_on_c, 0, 74, 104
1, 328573, Note_on_c, 0, 44, 71
1, 328575, Note_on_c, 0, 50, 77
1, 328575, Note_on_c, 0, 41, 59
1, 328578, Control_c, 0, 64, 28
1, 328593, Control_c, 0, 64, 57
1, 328596, Note_off_c, 0, 75, 63
1, 328603, Note_off_c, 0, 74, 69
1, 328606, Note_off_c, 0, 41, 66
1, 328608, Control_c, 0, 64, 127
1, 328615, Note_off_c, 0, 44, 60
1, 328621, Note_off_c, 0, 50, 60
1, 328690, Note_on_c, 0, 41, 58
1, 328705, Note_on_c, 0, 44, 67
1, 328709, Note_on_c, 0, 50, 60
1, 328729, Note_off_c, 0, 41, 62
1, 328736, Note_off_c, 0, 50, 62
1, 328740, Note_off_c, 0, 44, 61
1, 328815, Control_c, 0, 64, 75
1, 328830, Control_c, 0, 64, 58
1, 328845, Control_c, 0, 64, 22
1, 328848, Note_on_c, 0, 64, 65
1, 328857, Note_on_c, 0, 50, 60
1, 328860, Control_c, 0, 64, 0
1, 328863, Note_on_c, 0, 46, 59
1, 328870, Note_on_c, 0, 43, 41
1, 328879, Note_off_c, 0, 50, 65
1, 328891, Note_off_c, 0, 46, 65
1, 328907, Note_off_c, 0, 43, 50
1, 328986, Note_off_c, 0, 64, 62
1, 329000, Note_on_c, 0, 43, 53
1, 329000, Note_on_c, 0, 67, 77
1, 329002, Note_on_c, 0, 50, 59
1, 329005, Note_on_c, 0, 46, 53
1, 329032, Note_off_c, 0, 43, 57
1, 329034, Note_off_c, 0, 50, 58
1, 329044, Note_off_c, 0, 46, 64
1, 329068, Note_on_c, 0, 65, 83
1, 329100, Note_off_c, 0, 67, 62
1, 329131, Note_on_c, 0, 43, 59
1, 329133, Note_on_c, 0, 64, 99
1, 329136, Note_on_c, 0, 46, 70
1, 329139, Note_on_c, 0, 52, 79
1, 329163, Control_c, 0, 64, 45
1, 329163, Note_off_c, 0, 65, 67
1, 329171, Note_off_c, 0, 43, 65
1, 329175, Note_off_c, 0, 64, 70
1, 329177, Control_c, 0, 64, 67
1, 329185, Note_off_c, 0, 46, 62
1, 329186, Note_off_c, 0, 52, 63
1, 329192, Control_c, 0, 64, 127
1, 329271, Note_on_c, 0, 46, 69
1, 329277, Note_on_c, 0, 52, 74
1, 329303, Note_off_c, 0, 52, 63
1, 329322, Poly_aftertouch_c, 0, 43, 127
1, 329324, Note_off_c, 0, 46, 62
1, 329371, Poly_aftertouch_c, 0, 43, 0
1, 329416, Control_c, 0, 64, 72
1, 329424, Note_on_c, 0, 52, 69
1, 329425, Note_on_c, 0, 48, 64
1, 329425, Note_on_c, 0, 84, 83
1, 329427, Note_on_c, 0, 44, 63
1, 329431, Control_c, 0, 64, 52
1, 329445, Control_c, 0, 64, 0
1, 329454, Note_off_c, 0, 52, 64
1, 329466, Note_off_c, 0, 44, 61
1, 329467, Note_off_c, 0, 48, 60
1, 329502, Note_on_c, 0, 82, 77
1, 329527, Note_off_c, 0, 84, 61
1, 329556, Note_on_c, 0, 52, 66
1, 329567, Note_on_c, 0, 80, 79
1, 329577, Note_on_c, 0, 48, 41
1, 329577, Note_on_c, 0, 44, 18
1, 329588, Note_off_c, 0, 52, 63
1, 329591, Note_off_c, 0, 82, 61
1, 329622, Note_off_c, 0, 44, 39
1, 329629, Note_off_c, 0, 48, 45
1, 329631, Note_on_c, 0, 79, 82
1, 329642, Note_off_c, 0, 80, 63
1, 329694, Note_on_c, 0, 44, 71
1, 329696, Note_on_c, 0, 77, 111
1, 329701, Note_on_c, 0, 53, 79
1, 329719, Control_c, 0, 64, 52
1, 329720, Note_on_c, 0, 48, 59
1, 329730, Note_off_c, 0, 79, 61
1, 329734, Control_c, 0, 64, 79
1, 329741, Note_off_c, 0, 53, 63
1, 329747, Note_off_c, 0, 44, 59
1, 329749, Note_off_c, 0, 77, 66
1, 329749, Control_c, 0, 64, 127
1, 329758, Note_off_c, 0, 48, 62
1, 329830, Note_on_c, 0, 53, 81
1, 329842, Note_on_c, 0, 44, 67
1, 329845, Note_on_c, 0, 48, 60
1, 329860, Note_off_c, 0, 53, 57
1, 329877, Note_off_c, 0, 44, 56
1, 329899, Note_off_c, 0, 48, 55
1, 329941, Control_c, 0, 64, 71
1, 329956, Control_c, 0, 64, 48
1, 329970, Control_c, 0, 64, 0
1, 329994, Note_on_c, 0, 87, 94
1, 330000, Note_on_c, 0, 54, 78
1, 330004, Note_on_c, 0, 45, 68
1, 330011, Note_on_c, 0, 48, 64
1, 330030, Control_c, 0, 64, 40
1, 330042, Note_off_c, 0, 54, 62
1, 330045, Note_off_c, 0, 45, 63
1, 330045, Control_c, 0, 64, 66
1, 330056, Note_off_c, 0, 48, 59
1, 330060, Control_c, 0, 64, 127
1, 330069, Note_on_c, 0, 86, 88
1, 330127, Note_on_c, 0, 54, 65
1, 330134, Note_on_c, 0, 48, 49
1, 330136, Note_on_c, 0, 84, 84
1, 330158, Note_off_c, 0, 87, 38
1, 330162, Note_on_c, 0, 45, 26
1, 330164, Note_off_c, 0, 54, 62
1, 330166, Note_off_c, 0, 86, 58
1, 330194, Control_c, 0, 64, 89
1, 330195, Note_off_c, 0, 45, 56
1, 330202, Note_on_c, 0, 83, 84
1, 330208, Note_off_c, 0, 84, 64
1, 330209, Control_c, 0, 64, 63
1, 330214, Note_off_c, 0, 48, 56
1, 330224, Control_c, 0, 64, 32
1, 330239, Control_c, 0, 64, 0
1, 330251, Note_off_c, 0, 83, 67
1, 330280, Note_on_c, 0, 84, 101
1, 330282, Note_on_c, 0, 54, 82
1, 330283, Note_on_c, 0, 45, 63
1, 330283, Control_c, 0, 64, 42
1, 330292, Note_on_c, 0, 48, 58
1, 330298, Control_c, 0, 64, 65
1, 330308, Note_on_c, 0, 83, 4
1, 330313, Note_off_c, 0, 54, 63
1, 330313, Control_c, 0, 64, 127
1, 330316, Note_off_c, 0, 84, 69
1, 330325, Note_off_c, 0, 45, 61
1, 330340, Note_off_c, 0, 48, 61
1, 330371, Note_off_c, 0, 83, 48
1, 330418, Note_on_c, 0, 54, 75
1, 330426, Note_on_c, 0, 45, 56
1, 330435, Note_on_c, 0, 48, 57
1, 330465, Note_off_c, 0, 54, 62
1, 330480, Note_off_c, 0, 45, 55
1, 330501, Note_off_c, 0, 48, 56
1, 330513, Control_c, 0, 64, 71
1, 330528, Control_c, 0, 64, 48
1, 330542, Control_c, 0, 64, 0
1, 330567, Note_on_c, 0, 75, 92
1, 330575, Note_on_c, 0, 54, 86
1, 330579, Note_on_c, 0, 45, 70
1, 330587, Control_c, 0, 64, 11
1, 330588, Note_on_c, 0, 48, 62
1, 330601, Control_c, 0, 64, 45
1, 330611, Note_off_c, 0, 54, 63
1, 330616, Control_c, 0, 64, 66
1, 330620, Note_off_c, 0, 45, 63
1, 330631, Control_c, 0, 64, 127
1, 330632, Note_off_c, 0, 48, 58
1, 330639, Note_on_c, 0, 74, 92
1, 330669, Note_off_c, 0, 75, 60
1, 330701, Note_on_c, 0, 48, 59
1, 330709, Note_on_c, 0, 54, 72
1, 330710, Note_on_c, 0, 72, 80
1, 330713, Note_on_c, 0, 45, 57
1, 330731, Note_off_c, 0, 74, 67
1, 330735, Note_off_c, 0, 54, 60
1, 330760, Note_off_c, 0, 45, 60
1, 330772, Note_on_c, 0, 71, 81
1, 330772, Note_off_c, 0, 48, 60
1, 330779, Control_c, 0, 64, 64
1, 330780, Note_off_c, 0, 72, 62
1, 330793, Control_c, 0, 64, 30
1, 330808, Control_c, 0, 64, 0
1, 330823, Note_off_c, 0, 71, 64
1, 330823, Control_c, 0, 64, 20
1, 330838, Control_c, 0, 64, 45
1, 330847, Note_on_c, 0, 54, 81
1, 330849, Note_on_c, 0, 72, 104
1, 330852, Note_on_c, 0, 45, 68
1, 330853, Control_c, 0, 64, 65
1, 330856, Note_on_c, 0, 48, 68
1, 330862, Note_on_c, 0, 71, 26
1, 330868, Control_c, 0, 64, 127
1, 330883, Note_off_c, 0, 54, 58
1, 330894, Note_off_c, 0, 72, 66
1, 330902, Note_off_c, 0, 45, 48
1, 330902, Note_off_c, 0, 71, 54
1, 330927, Note_off_c, 0, 48, 47
1, 330981, Note_on_c, 0, 48, 56
1, 330989, Note_on_c, 0, 45, 50
1, 330989, Note_on_c, 0, 54, 72
1, 331020, Note_off_c, 0, 45, 63
1, 331023, Note_off_c, 0, 54, 55
1, 331044, Note_off_c, 0, 48, 62
1, 331061, Control_c, 0, 64, 78
1, 331076, Control_c, 0, 64, 56
1, 331091, Control_c, 0, 64, 0
1, 331127, Note_on_c, 0, 54, 83
1, 331127, Note_on_c, 0, 63, 100
1, 331130, Note_on_c, 0, 44, 73
1, 331141, Note_on_c, 0, 48, 59
1, 331151, Control_c, 0, 64, 20
1, 331165, Control_c, 0, 64, 46
1, 331166, Note_off_c, 0, 54, 61
1, 331170, Note_off_c, 0, 44, 63
1, 331178, Note_off_c, 0, 48, 61
1, 331180, Control_c, 0, 64, 65
1, 331195, Control_c, 0, 64, 115
1, 331199, Note_on_c, 0, 62, 91
1, 331216, Control_c, 0, 64, 127
1, 331240, Note_off_c, 0, 63, 62
1, 331275, Note_on_c, 0, 48, 64
1, 331276, Note_on_c, 0, 54, 76
1, 331281, Note_on_c, 0, 60, 82
1, 331285, Note_on_c, 0, 44, 58
1, 331305, Note_off_c, 0, 62, 64
1, 331306, Control_c, 0, 64, 111
1, 331308, Note_off_c, 0, 54, 65
1, 331315, Note_off_c, 0, 44, 65
1, 331321, Control_c, 0, 64, 77
1, 331327, Note_off_c, 0, 48, 60
1, 331335, Control_c, 0, 64, 60
1, 331350, Control_c, 0, 64, 26
1, 331351, Note_on_c, 0, 59, 81
1, 331353, Note_off_c, 0, 60, 66
1, 331365, Control_c, 0, 64, 0
1, 331415, Note_on_c, 0, 54, 78
1, 331418, Note_on_c, 0, 44, 63
1, 331422, Note_on_c, 0, 60, 98
1, 331424, Control_c, 0, 64, 34
1, 331434, Note_on_c, 0, 48, 56
1, 331436, Note_off_c, 0, 59, 64
1, 331439, Control_c, 0, 64, 56
1, 331447, Note_off_c, 0, 54, 62
1, 331454, Control_c, 0, 64, 77
1, 331458, Note_off_c, 0, 44, 61
1, 331459, Note_off_c, 0, 60, 71
1, 331469, Note_off_c, 0, 48, 63
1, 331469, Control_c, 0, 64, 100
1, 331550, Note_on_c, 0, 54, 82
1, 331558, Note_on_c, 0, 44, 56
1, 331562, Note_on_c, 0, 48, 57
1, 331582, Note_off_c, 0, 54, 65
1, 331586, Note_off_c, 0, 44, 53
1, 331595, Note_off_c, 0, 48, 62
1, 331602, Control_c, 0, 64, 97
1, 331616, Control_c, 0, 64, 83
1, 331631, Control_c, 0, 64, 68
1, 331646, Control_c, 0, 64, 52
1, 331661, Control_c, 0, 64, 0
1, 331698, Note_on_c, 0, 51, 77
1, 331708, Note_on_c, 0, 75, 81
1, 331712, Note_on_c, 0, 48, 45
1, 331717, Note_on_c, 0, 44, 30
1, 331721, Control_c, 0, 64, 35
1, 331723, Note_off_c, 0, 51, 68
1, 331736, Control_c, 0, 64, 57
1, 331742, Note_off_c, 0, 48, 56
1, 331751, Control_c, 0, 64, 79
1, 331755, Note_off_c, 0, 44, 45
1, 331765, Control_c, 0, 64, 110
1, 331779, Note_on_c, 0, 74, 79
1, 331780, Control_c, 0, 64, 114
1, 331795, Control_c, 0, 64, 127
1, 331804, Note_off_c, 0, 75, 59
1, 331826, Note_on_c, 0, 48, 67
1, 331837, Note_on_c, 0, 44, 60
1, 331841, Note_on_c, 0, 72, 78
1, 331860, Note_off_c, 0, 74, 64
1, 331869, Note_off_c, 0, 44, 62
1, 331869, Control_c, 0, 64, 122
1, 331872, Note_off_c, 0, 48, 65
1, 331884, Control_c, 0, 64, 74
1, 331899, Control_c, 0, 64, 55
1, 331905, Note_off_c, 0, 72, 64
1, 331911, Note_on_c, 0, 71, 73
1, 331914, Control_c, 0, 64, 0
1, 331963, Note_on_c, 0, 44, 59
1, 331979, Note_on_c, 0, 48, 59
1, 331986, Note_off_c, 0, 71, 65
1, 331992, Note_on_c, 0, 72, 72
1, 332005, Note_off_c, 0, 44, 61
1, 332008, Note_off_c, 0, 48, 65
1, 332014, Note_off_c, 0, 72, 63
1, 332060, Note_on_c, 0, 74, 74
1, 332090, Note_on_c, 0, 48, 64
1, 332096, Note_on_c, 0, 44, 49
1, 332136, Note_on_c, 0, 75, 79
1, 332140, Note_off_c, 0, 44, 58
1, 332145, Note_off_c, 0, 48, 56
1, 332148, Note_off_c, 0, 74, 58
1, 332192, Note_on_c, 0, 78, 80
1, 332200, Note_off_c, 0, 75, 62
1, 332237, Note_on_c, 0, 47, 89
1, 332238, Note_on_c, 0, 43, 91
1, 332240, Note_on_c, 0, 79, 96
1, 332248, Control_c, 0, 64, 12
1, 332263, Control_c, 0, 64, 0
1, 332265, Note_off_c, 0, 78, 67
1, 332275, Note_off_c, 0, 79, 66
1, 332394, Note_on_c, 0, 79, 80
1, 332395, Note_on_c, 0, 67, 74
1, 332412, Note_off_c, 0, 67, 69
1, 332415, Note_off_c, 0, 79, 68
1, 332450, Note_off_c, 0, 47, 56
1, 332472, Note_off_c, 0, 43, 59
1, 332543, Note_on_c, 0, 79, 68
1, 332546, Note_on_c, 0, 67, 62
1, 332567, Note_off_c, 0, 67, 63
1, 332567, Note_off_c, 0, 79, 65
1, 332684, Note_on_c, 0, 67, 53
1, 332688, Note_on_c, 0, 79, 65
1, 332713, Note_off_c, 0, 67, 63
1, 332713, Note_off_c, 0, 79, 63
1, 332826, Note_on_c, 0, 79, 63
1, 332828, Note_on_c, 0, 67, 62
1, 332848, Note_off_c, 0, 67, 66
1, 332851, Note_off_c, 0, 79, 65
1, 332969, Note_on_c, 0, 67, 61
1, 332973, Note_on_c, 0, 79, 62
1, 332988, Note_off_c, 0, 67, 65
1, 332993, Note_off_c, 0, 79, 61
1, 333104, Note_on_c, 0, 79, 60
1, 333110, Note_on_c, 0, 67, 47
1, 333124, Note_off_c, 0, 79, 61
1, 333135, Note_off_c, 0, 67, 59
1, 333245, Note_on_c, 0, 67, 61
1, 333249, Note_on_c, 0, 79, 58
1, 333267, Note_off_c, 0, 67, 67
1, 333271, Note_off_c, 0, 79, 59
1, 333379, Note_on_c, 0, 79, 60
1, 333382, Note_on_c, 0, 67, 62
1, 333385, Note_on_c, 0, 73, 62
1, 333402, Note_off_c, 0, 67, 63
1, 333404, Note_off_c, 0, 73, 66
1, 333404, Note_off_c, 0, 79, 56
1, 333406, Note_on_c, 0, 70, 27
1, 333418, Note_off_c, 0, 70, 40
1, 333522, Note_on_c, 0, 70, 63
1, 333524, Note_on_c, 0, 67, 54
1, 333524, Note_on_c, 0, 73, 60
1, 333527, Note_on_c, 0, 79, 56
1, 333540, Note_off_c, 0, 70, 65
1, 333544, Note_off_c, 0, 73, 66
1, 333547, Note_off_c, 0, 67, 61
1, 333549, Note_off_c, 0, 79, 60
1, 333664, Note_on_c, 0, 67, 60
1, 333665, Note_on_c, 0, 79, 59
1, 333669, Note_on_c, 0, 73, 61
1, 333670, Note_on_c, 0, 70, 54
1, 333682, Note_off_c, 0, 67, 64
1, 333685, Note_off_c, 0, 79, 62
1, 333687, Note_off_c, 0, 73, 66
1, 333691, Note_off_c, 0, 70, 60
1, 333795, Note_on_c, 0, 67, 74
1, 333798, Note_on_c, 0, 70, 66
1, 333798, Note_on_c, 0, 79, 68
1, 333800, Note_on_c, 0, 73, 66
1, 333818, Note_off_c, 0, 67, 70
1, 333820, Note_off_c, 0, 79, 63
1, 333824, Note_off_c, 0, 70, 65
1, 333825, Note_off_c, 0, 73, 68
1, 333932, Note_on_c, 0, 67, 83
1, 333932, Note_on_c, 0, 70, 74
1, 333936, Note_on_c, 0, 73, 69
1, 333936, Note_on_c, 0, 79, 68
1, 333951, Note_off_c, 0, 67, 74
1, 333953, Note_off_c, 0, 79, 66
1, 333954, Note_off_c, 0, 70, 69
1, 333960, Note_off_c, 0, 73, 69
1, 334069, Note_on_c, 0, 67, 92
1, 334070, Note_on_c, 0, 70, 89
1, 334070, Note_on_c, 0, 73, 89
1, 334071, Note_on_c, 0, 79, 82
1, 334086, Note_off_c, 0, 67, 75
1, 334092, Note_off_c, 0, 70, 68
1, 334093, Note_off_c, 0, 79, 69
1, 334101, Note_off_c, 0, 73, 62
1, 334209, Note_on_c, 0, 67, 96
1, 334210, Note_on_c, 0, 70, 96
1, 334210, Note_on_c, 0, 73, 89
1, 334215, Note_on_c, 0, 79, 85
1, 334225, Note_off_c, 0, 67, 75
1, 334231, Note_off_c, 0, 70, 66
1, 334231, Note_off_c, 0, 79, 68
1, 334236, Note_off_c, 0, 73, 57
1, 334346, Note_on_c, 0, 67, 99
1, 334346, Note_on_c, 0, 79, 88
1, 334347, Note_on_c, 0, 73, 91
1, 334348, Note_on_c, 0, 70, 95
1, 334361, Note_off_c, 0, 67, 74
1, 334370, Note_off_c, 0, 79, 66
1, 334382, Note_off_c, 0, 70, 47
1, 334385, Note_off_c, 0, 73, 69
1, 334517, Note_on_c, 0, 79, 81
1, 334519, Note_on_c, 0, 47, 66
1, 334519, Note_on_c, 0, 67, 77
1, 334520, Note_on_c, 0, 74, 69
1, 334523, Note_on_c, 0, 50, 65
1, 334526, Note_on_c, 0, 71, 64
1, 334534, Note_off_c, 0, 67, 71
1, 334538, Note_off_c, 0, 74, 71
1, 334540, Note_off_c, 0, 79, 67
1, 334545, Note_off_c, 0, 50, 66
1, 334545, Note_off_c, 0, 71, 68
1, 334545, Note_off_c, 0, 47, 66
1, 334553, Control_c, 0, 67, 9
1, 334567, Control_c, 0, 67, 10
1, 334597, Control_c, 0, 67, 11
1, 334612, Control_c, 0, 67, 16
1, 334627, Control_c, 0, 67, 32
1, 334641, Control_c, 0, 67, 53
1, 334656, Control_c, 0, 67, 68
1, 334671, Control_c, 0, 67, 76
1, 334686, Control_c, 0, 67, 85
1, 334701, Control_c, 0, 67, 94
1, 334709, Note_on_c, 0, 91, 79
1, 334710, Note_on_c, 0, 50, 59
1, 334716, Control_c, 0, 67, 101
1, 334717, Note_on_c, 0, 79, 58
1, 334718, Note_on_c, 0, 47, 56
1, 334731, Control_c, 0, 67, 104
1, 334733, Note_off_c, 0, 50, 64
1, 334745, Note_off_c, 0, 47, 61
1, 334764, Note_off_c, 0, 79, 0
1, 334764, Note_on_c, 0, 79, 41
1, 334775, Control_c, 0, 67, 103
1, 334790, Control_c, 0, 67, 102
1, 334884, Note_on_c, 0, 47, 37
1, 334889, Note_off_c, 0, 91, 53
1, 334889, Note_off_c, 0, 79, 61
1, 334910, Control_c, 0, 67, 102
1, 334919, Note_off_c, 0, 47, 46
1, 334925, Control_c, 0, 67, 103
1, 334939, Control_c, 0, 67, 104
1, 334976, Control_c, 0, 67, 104
1, 335011, Note_on_c, 0, 47, 61
1, 335020, Control_c, 0, 67, 107
1, 335023, Note_on_c, 0, 89, 73
1, 335028, Note_on_c, 0, 77, 64
1, 335035, Control_c, 0, 67, 109
1, 335042, Note_off_c, 0, 47, 65
1, 335050, Control_c, 0, 67, 109
1, 335109, Control_c, 0, 67, 110
1, 335125, Control_c, 0, 67, 110
1, 335139, Control_c, 0, 67, 111
1, 335154, Control_c, 0, 67, 113
1, 335169, Control_c, 0, 67, 115
1, 335172, Note_off_c, 0, 89, 59
1, 335174, Note_on_c, 0, 47, 49
1, 335184, Note_off_c, 0, 77, 57
1, 335184, Control_c, 0, 67, 116
1, 335185, Note_on_c, 0, 50, 36
1, 335199, Control_c, 0, 67, 117
1, 335202, Note_off_c, 0, 47, 53
1, 335214, Control_c, 0, 67, 118
1, 335219, Note_off_c, 0, 50, 47
1, 335229, Control_c, 0, 67, 119
1, 335244, Control_c, 0, 67, 119
1, 335303, Control_c, 0, 67, 121
1, 335303, Note_on_c, 0, 47, 57
1, 335305, Note_on_c, 0, 50, 65
1, 335306, Note_on_c, 0, 88, 71
1, 335313, Note_on_c, 0, 76, 62
1, 335317, Control_c, 0, 67, 126
1, 335330, Note_off_c, 0, 50, 66
1, 335332, Note_off_c, 0, 47, 66
1, 335332, Control_c, 0, 67, 127
1, 335449, Note_on_c, 0, 47, 60
1, 335452, Note_on_c, 0, 50, 56
1, 335458, Note_off_c, 0, 88, 58
1, 335461, Note_off_c, 0, 76, 54
1, 335474, Note_off_c, 0, 47, 64
1, 335474, Note_off_c, 0, 50, 61
1, 335586, Note_on_c, 0, 86, 68
1, 335590, Note_on_c, 0, 47, 55
1, 335591, Note_on_c, 0, 74, 60
1, 335599, Note_on_c, 0, 50, 44
1, 335618, Note_off_c, 0, 47, 63
1, 335626, Note_off_c, 0, 50, 52
1, 335756, Note_on_c, 0, 47, 55
1, 335758, Note_on_c, 0, 50, 51
1, 335758, Note_off_c, 0, 86, 56
1, 335776, Note_off_c, 0, 74, 59
1, 335782, Note_off_c, 0, 47, 60
1, 335783, Note_off_c, 0, 50, 56
1, 335898, Note_on_c, 0, 47, 54
1, 335899, Note_on_c, 0, 84, 67
1, 335904, Note_on_c, 0, 72, 58
1, 335906, Note_on_c, 0, 50, 51
1, 335926, Note_off_c, 0, 47, 62
1, 335930, Note_off_c, 0, 50, 57
1, 336037, Note_off_c, 0, 84, 58
1, 336050, Note_on_c, 0, 47, 57
1, 336050, Note_off_c, 0, 72, 58
1, 336051, Note_on_c, 0, 50, 56
1, 336075, Note_off_c, 0, 50, 60
1, 336075, Note_off_c, 0, 47, 60
1, 336186, Note_on_c, 0, 83, 61
1, 336192, Note_on_c, 0, 47, 52
1, 336194, Note_on_c, 0, 50, 55
1, 336197, Note_on_c, 0, 71, 46
1, 336215, Note_off_c, 0, 50, 62
1, 336218, Note_off_c, 0, 47, 60
1, 336275, Note_off_c, 0, 71, 0
1, 336275, Note_on_c, 0, 71, 19
1, 336331, Note_on_c, 0, 47, 55
1, 336331, Note_on_c, 0, 50, 61
1, 336347, Note_off_c, 0, 83, 55
1, 336353, Note_off_c, 0, 50, 65
1, 336356, Note_off_c, 0, 71, 56
1, 336358, Note_off_c, 0, 47, 62
1, 336481, Note_on_c, 0, 81, 69
1, 336484, Note_on_c, 0, 47, 54
1, 336487, Note_on_c, 0, 50, 59
1, 336489, Note_on_c, 0, 69, 61
1, 336509, Note_off_c, 0, 47, 60
1, 336509, Note_off_c, 0, 50, 63
1, 336621, Note_off_c, 0, 81, 58
1, 336628, Note_on_c, 0, 49, 61
1, 336629, Note_on_c, 0, 52, 60
1, 336635, Note_off_c, 0, 69, 59
1, 336651, Note_off_c, 0, 49, 61
1, 336651, Note_off_c, 0, 52, 61
1, 336760, Note_on_c, 0, 49, 55
1, 336760, Note_on_c, 0, 52, 62
1, 336771, Note_on_c, 0, 79, 65
1, 336772, Note_on_c, 0, 67, 64
1, 336788, Note_off_c, 0, 52, 67
1, 336788, Note_off_c, 0, 49, 65
1, 336791, Note_off_c, 0, 79, 63
1, 336792, Note_off_c, 0, 67, 66
1, 336922, Note_on_c, 0, 77, 67
1, 336925, Note_on_c, 0, 53, 67
1, 336931, Note_on_c, 0, 50, 65
1, 336940, Note_off_c, 0, 77, 65
1, 336958, Note_on_c, 0, 65, 5
1, 337005, Note_off_c, 0, 65, 28
1, 337025, Note_on_c, 0, 62, 68
1, 337078, Note_off_c, 0, 62, 58
1, 337086, Note_on_c, 0, 64, 65
1, 337145, Note_off_c, 0, 64, 63
1, 337148, Note_on_c, 0, 65, 61
1, 337181, Note_off_c, 0, 65, 67
1, 337225, Note_on_c, 0, 67, 66
1, 337262, Note_off_c, 0, 67, 59
1, 337291, Note_on_c, 0, 69, 67
1, 337339, Note_off_c, 0, 53, 44
1, 337355, Note_on_c, 0, 57, 65
1, 337356, Note_off_c, 0, 69, 62
1, 337357, Note_on_c, 0, 71, 58
1, 337403, Note_off_c, 0, 57, 60
1, 337414, Note_off_c, 0, 71, 65
1, 337425, Note_on_c, 0, 73, 64
1, 337432, Note_on_c, 0, 55, 63
1, 337498, Note_off_c, 0, 73, 61
1, 337507, Note_off_c, 0, 55, 62
1, 337512, Note_on_c, 0, 74, 63
1, 337516, Note_on_c, 0, 53, 57
1, 337575, Note_off_c, 0, 74, 58
1, 337577, Note_on_c, 0, 65, 59
1, 337631, Note_off_c, 0, 50, 56
1, 337634, Note_off_c, 0, 65, 64
1, 337643, Note_on_c, 0, 67, 62
1, 337663, Note_off_c, 0, 53, 64
1, 337697, Note_off_c, 0, 67, 62
1, 337707, Note_on_c, 0, 69, 61
1, 337733, Note_off_c, 0, 69, 61
1, 337777, Note_on_c, 0, 71, 64
1, 337839, Note_off_c, 0, 71, 64
1, 337846, Note_on_c, 0, 73, 69
1, 337909, Note_off_c, 0, 73, 62
1, 337912, Note_on_c, 0, 74, 62
1, 337974, Note_off_c, 0, 74, 64
1, 337978, Note_on_c, 0, 76, 64
1, 338052, Note_off_c, 0, 76, 65
1, 338053, Note_on_c, 0, 77, 64
1, 338062, Note_on_c, 0, 69, 80
1, 338120, Note_off_c, 0, 77, 61
1, 338132, Note_on_c, 0, 74, 61
1, 338191, Note_off_c, 0, 74, 61
1, 338202, Note_on_c, 0, 76, 66
1, 338269, Note_off_c, 0, 76, 65
1, 338276, Note_on_c, 0, 77, 66
1, 338314, Note_off_c, 0, 77, 61
1, 338353, Note_on_c, 0, 79, 66
1, 338391, Note_off_c, 0, 69, 51
1, 338423, Note_off_c, 0, 79, 59
1, 338430, Note_on_c, 0, 67, 60
1, 338432, Note_on_c, 0, 81, 68
1, 338504, Note_off_c, 0, 67, 64
1, 338505, Note_on_c, 0, 65, 69
1, 338511, Note_off_c, 0, 81, 60
1, 338518, Note_on_c, 0, 83, 55
1, 338559, Note_off_c, 0, 65, 66
1, 338569, Note_on_c, 0, 64, 69
1, 338582, Note_off_c, 0, 83, 64
1, 338584, Note_on_c, 0, 85, 70
1, 338634, Note_off_c, 0, 64, 63
1, 338645, Note_off_c, 0, 85, 64
1, 338649, Note_on_c, 0, 62, 69
1, 338663, Note_on_c, 0, 86, 69
1, 338740, Note_off_c, 0, 86, 59
1, 338751, Note_on_c, 0, 85, 70
1, 338810, Note_off_c, 0, 85, 63
1, 338824, Note_on_c, 0, 86, 74
1, 338845, Note_off_c, 0, 62, 63
1, 338886, Note_on_c, 0, 88, 70
1, 338901, Note_off_c, 0, 86, 58
1, 338952, Note_on_c, 0, 89, 75
1, 338958, Note_off_c, 0, 88, 66
1, 339025, Note_on_c, 0, 85, 70
1, 339027, Note_off_c, 0, 89, 66
1, 339090, Note_on_c, 0, 86, 69
1, 339102, Note_off_c, 0, 85, 56
1, 339144, Note_on_c, 0, 88, 53
1, 339155, Note_off_c, 0, 86, 59
1, 339184, Note_on_c, 0, 45, 62
1, 339184, Note_on_c, 0, 48, 65
1, 339186, Note_on_c, 0, 89, 77
1, 339187, Note_off_c, 0, 88, 68
1, 339205, Note_off_c, 0, 48, 63
1, 339205, Note_off_c, 0, 89, 73
1, 339206, Note_off_c, 0, 45, 62
1, 339345, Note_on_c, 0, 89, 74
1, 339351, Note_on_c, 0, 45, 50
1, 339352, Note_on_c, 0, 77, 65
1, 339354, Note_on_c, 0, 48, 52
1, 339378, Note_off_c, 0, 45, 58
1, 339380, Note_off_c, 0, 48, 59
1, 339503, Note_on_c, 0, 48, 59
1, 339506, Note_on_c, 0, 45, 52
1, 339516, Note_off_c, 0, 89, 63
1, 339527, Note_off_c, 0, 77, 61
1, 339530, Note_off_c, 0, 48, 66
1, 339535, Note_off_c, 0, 45, 64
1, 339643, Note_on_c, 0, 88, 70
1, 339649, Note_on_c, 0, 48, 63
1, 339649, Note_on_c, 0, 45, 60
1, 339655, Note_on_c, 0, 76, 56
1, 339676, Note_off_c, 0, 48, 65
1, 339679, Note_off_c, 0, 45, 65
1, 339720, Note_off_c, 0, 76, 0
1, 339720, Note_on_c, 0, 76, 22
1, 339798, Note_off_c, 0, 88, 59
1, 339799, Note_on_c, 0, 45, 58
1, 339800, Note_on_c, 0, 48, 56
1, 339811, Note_off_c, 0, 76, 54
1, 339825, Note_off_c, 0, 45, 61
1, 339825, Note_off_c, 0, 48, 60
1, 339940, Note_on_c, 0, 45, 50
1, 339942, Note_on_c, 0, 48, 53
1, 339942, Note_on_c, 0, 86, 68
1, 339948, Note_on_c, 0, 74, 57
1, 339966, Note_off_c, 0, 48, 60
1, 339967, Note_off_c, 0, 45, 61
1, 340086, Note_on_c, 0, 45, 58
1, 340091, Note_on_c, 0, 48, 50
1, 340108, Note_off_c, 0, 86, 57
1, 340114, Note_off_c, 0, 45, 65
1, 340117, Note_off_c, 0, 48, 57
1, 340120, Note_off_c, 0, 74, 58
1, 340249, Note_on_c, 0, 48, 50
1, 340251, Note_on_c, 0, 45, 54
1, 340253, Note_on_c, 0, 84, 61
1, 340255, Note_on_c, 0, 72, 55
1, 340274, Note_off_c, 0, 48, 57
1, 340275, Note_off_c, 0, 45, 59
1, 340388, Note_on_c, 0, 45, 50
1, 340392, Note_on_c, 0, 48, 53
1, 340417, Note_off_c, 0, 45, 64
1, 340417, Note_off_c, 0, 48, 60
1, 340423, Note_off_c, 0, 84, 59
1, 340436, Note_off_c, 0, 72, 61
1, 340543, Note_on_c, 0, 45, 55
1, 340544, Note_on_c, 0, 48, 48
1, 340550, Note_on_c, 0, 83, 62
1, 340556, Note_on_c, 0, 71, 52
1, 340567, Note_off_c, 0, 45, 60
1, 340573, Note_off_c, 0, 48, 52
1, 340630, Note_off_c, 0, 83, 0
1, 340630, Note_on_c, 0, 83, 11
1, 340631, Note_off_c, 0, 71, 0
1, 340631, Note_on_c, 0, 71, 12
1, 340697, Note_on_c, 0, 45, 47
1, 340699, Note_on_c, 0, 48, 51
1, 340722, Note_off_c, 0, 83, 53
1, 340724, Note_off_c, 0, 45, 54
1, 340725, Note_off_c, 0, 48, 54
1, 340741, Note_off_c, 0, 71, 51
1, 340834, Note_on_c, 0, 45, 52
1, 340842, Note_on_c, 0, 48, 47
1, 340847, Note_on_c, 0, 81, 70
1, 340854, Note_on_c, 0, 69, 58
1, 340863, Note_off_c, 0, 45, 63
1, 340869, Note_off_c, 0, 48, 53
1, 340991, Note_on_c, 0, 48, 51
1, 340994, Note_on_c, 0, 45, 55
1, 340996, Note_off_c, 0, 81, 57
1, 341009, Note_off_c, 0, 69, 62
1, 341016, Note_off_c, 0, 48, 59
1, 341018, Note_off_c, 0, 45, 60
1, 341131, Note_on_c, 0, 45, 48
1, 341136, Note_on_c, 0, 79, 69
1, 341137, Note_on_c, 0, 48, 47
1, 341142, Note_on_c, 0, 67, 55
1, 341160, Note_off_c, 0, 45, 63
1, 341164, Note_off_c, 0, 48, 56
1, 341192, Note_off_c, 0, 79, 0
1, 341192, Note_on_c, 0, 79, 28
1, 341289, Note_on_c, 0, 50, 53
1, 341293, Note_on_c, 0, 47, 44
1, 341301, Note_off_c, 0, 79, 53
1, 341308, Note_off_c, 0, 67, 58
1, 341312, Note_off_c, 0, 50, 57
1, 341327, Note_off_c, 0, 47, 54
1, 341427, Note_on_c, 0, 77, 70
1, 341429, Note_on_c, 0, 47, 51
1, 341431, Note_on_c, 0, 50, 52
1, 341434, Note_on_c, 0, 65, 59
1, 341447, Note_off_c, 0, 77, 64
1, 341453, Note_off_c, 0, 65, 66
1, 341454, Note_off_c, 0, 50, 60
1, 341456, Note_off_c, 0, 47, 54
1, 341581, Note_on_c, 0, 76, 74
1, 341585, Note_on_c, 0, 48, 64
1, 341585, Note_on_c, 0, 64, 64
1, 341586, Note_on_c, 0, 52, 68
1, 341602, Note_off_c, 0, 76, 59
1, 341604, Note_off_c, 0, 64, 64
1, 341669, Note_on_c, 0, 64, 72
1, 341740, Note_off_c, 0, 64, 61
1, 341745, Note_on_c, 0, 65, 65
1, 341805, Note_off_c, 0, 65, 65
1, 341810, Note_on_c, 0, 67, 60
1, 341841, Note_off_c, 0, 67, 61
1, 341876, Note_on_c, 0, 69, 66
1, 341910, Note_off_c, 0, 69, 60
1, 341949, Note_on_c, 0, 71, 56
1, 341983, Note_off_c, 0, 52, 55
1, 342010, Note_off_c, 0, 71, 63
1, 342018, Note_on_c, 0, 72, 64
1, 342028, Note_on_c, 0, 55, 62
1, 342082, Note_off_c, 0, 72, 63
1, 342094, Note_off_c, 0, 55, 64
1, 342098, Note_on_c, 0, 74, 62
1, 342103, Note_on_c, 0, 53, 64
1, 342174, Note_off_c, 0, 74, 61
1, 342181, Note_off_c, 0, 53, 65
1, 342186, Note_on_c, 0, 76, 67
1, 342198, Note_on_c, 0, 52, 61
1, 342258, Note_off_c, 0, 76, 60
1, 342267, Note_on_c, 0, 69, 55
1, 342311, Note_off_c, 0, 48, 61
1, 342315, Note_off_c, 0, 69, 62
1, 342331, Note_on_c, 0, 71, 59
1, 342335, Note_off_c, 0, 52, 63
1, 342389, Note_off_c, 0, 71, 62
1, 342401, Note_on_c, 0, 72, 63
1, 342432, Note_off_c, 0, 72, 65
1, 342475, Note_on_c, 0, 74, 67
1, 342535, Note_off_c, 0, 74, 60
1, 342548, Note_on_c, 0, 76, 71
1, 342617, Note_off_c, 0, 76, 63
1, 342618, Note_on_c, 0, 78, 70
1, 342678, Note_off_c, 0, 78, 67
1, 342680, Note_on_c, 0, 48, 57
1, 342687, Note_on_c, 0, 80, 68
1, 342704, Note_off_c, 0, 48, 61
1, 342756, Note_on_c, 0, 64, 77
1, 342773, Note_on_c, 0, 81, 71
1, 342773, Note_off_c, 0, 80, 61
1, 342853, Note_off_c, 0, 81, 60
1, 342855, Note_on_c, 0, 76, 57
1, 342898, Note_off_c, 0, 76, 62
1, 342905, Note_on_c, 0, 78, 71
1, 342970, Note_off_c, 0, 78, 65
1, 342971, Note_off_c, 0, 64, 0
1, 342971, Note_on_c, 0, 64, 17
1, 342979, Note_on_c, 0, 80, 67
1, 343015, Note_off_c, 0, 80, 62
1, 343051, Note_on_c, 0, 81, 70
1, 343109, Note_off_c, 0, 81, 58
1, 343116, Note_off_c, 0, 64, 42
1, 343118, Note_on_c, 0, 83, 70
1, 343119, Note_on_c, 0, 62, 65
1, 343184, Note_off_c, 0, 83, 65
1, 343186, Note_on_c, 0, 84, 67
1, 343200, Note_off_c, 0, 62, 62
1, 343203, Note_on_c, 0, 60, 64
1, 343249, Note_off_c, 0, 84, 65
1, 343250, Note_off_c, 0, 60, 64
1, 343265, Note_on_c, 0, 86, 72
1, 343266, Note_on_c, 0, 59, 62
1, 343328, Note_off_c, 0, 86, 61
1, 343333, Note_off_c, 0, 59, 62
1, 343344, Note_on_c, 0, 88, 71
1, 343348, Note_on_c, 0, 57, 64
1, 343421, Note_on_c, 0, 86, 73
1, 343424, Note_off_c, 0, 88, 61
1, 343479, Note_on_c, 0, 84, 74
1, 343492, Note_off_c, 0, 86, 57
1, 343546, Note_on_c, 0, 83, 66
1, 343548, Note_off_c, 0, 57, 59
1, 343550, Note_off_c, 0, 84, 63
1, 343602, Note_off_c, 0, 83, 65
1, 343617, Note_on_c, 0, 81, 67
1, 343682, Note_off_c, 0, 81, 62
1, 343690, Note_on_c, 0, 83, 62
1, 343751, Note_on_c, 0, 84, 64
1, 343764, Note_off_c, 0, 83, 59
1, 343806, Note_off_c, 0, 84, 63
1, 343808, Note_on_c, 0, 81, 67
1, 343835, Note_off_c, 0, 81, 67
1, 343903, Note_on_c, 0, 53, 65
1, 343905, Note_on_c, 0, 50, 51
1, 344013, Note_on_c, 0, 65, 63
1, 344067, Note_off_c, 0, 65, 64
1, 344080, Note_on_c, 0, 67, 60
1, 344132, Note_off_c, 0, 67, 62
1, 344146, Note_on_c, 0, 69, 59
1, 344174, Note_off_c, 0, 69, 61
1, 344214, Note_on_c, 0, 71, 68
1, 344257, Note_off_c, 0, 71, 53
1, 344292, Note_on_c, 0, 72, 63
1, 344354, Note_off_c, 0, 53, 42
1, 344356, Note_off_c, 0, 72, 60
1, 344358, Note_on_c, 0, 57, 67
1, 344362, Note_on_c, 0, 74, 64
1, 344414, Note_off_c, 0, 74, 64
1, 344426, Note_on_c, 0, 76, 70
1, 344434, Note_off_c, 0, 57, 62
1, 344436, Note_on_c, 0, 55, 71
1, 344502, Note_off_c, 0, 76, 64
1, 344516, Note_on_c, 0, 77, 69
1, 344533, Note_on_c, 0, 53, 59
1, 344533, Note_off_c, 0, 55, 64
1, 344590, Note_off_c, 0, 77, 60
1, 344592, Note_on_c, 0, 71, 56
1, 344652, Note_off_c, 0, 71, 65
1, 344655, Note_on_c, 0, 72, 65
1, 344680, Note_off_c, 0, 50, 48
1, 344712, Note_off_c, 0, 53, 60
1, 344729, Note_off_c, 0, 72, 62
1, 344730, Note_on_c, 0, 74, 68
1, 344765, Note_off_c, 0, 74, 62
1, 344803, Note_on_c, 0, 76, 72
1, 344867, Note_off_c, 0, 76, 64
1, 344869, Note_on_c, 0, 77, 73
1, 344937, Note_on_c, 0, 79, 71
1, 344937, Note_off_c, 0, 77, 61
1, 344989, Note_on_c, 0, 50, 64
1, 344989, Note_off_c, 0, 79, 65
1, 344999, Note_on_c, 0, 81, 73
1, 345016, Note_off_c, 0, 50, 66
1, 345066, Note_on_c, 0, 65, 87
1, 345068, Note_on_c, 0, 83, 72
1, 345070, Note_off_c, 0, 81, 63
1, 345142, Note_off_c, 0, 83, 61
1, 345158, Note_on_c, 0, 77, 68
1, 345217, Note_off_c, 0, 77, 62
1, 345220, Note_on_c, 0, 79, 74
1, 345282, Note_off_c, 0, 79, 62
1, 345289, Note_on_c, 0, 81, 69
1, 345327, Note_off_c, 0, 81, 61
1, 345366, Note_on_c, 0, 83, 73
1, 345400, Note_off_c, 0, 65, 48
1, 345421, Control_c, 0, 67, 127
1, 345434, Note_on_c, 0, 64, 61
1, 345435, Note_off_c, 0, 83, 64
1, 345449, Note_on_c, 0, 84, 73
1, 345473, Control_c, 0, 67, 126
1, 345488, Control_c, 0, 67, 125
1, 345503, Control_c, 0, 67, 123
1, 345517, Note_on_c, 0, 86, 71
1, 345517, Note_off_c, 0, 84, 63
1, 345517, Control_c, 0, 67, 119
1, 345520, Note_on_c, 0, 62, 68
1, 345523, Note_off_c, 0, 64, 62
1, 345532, Control_c, 0, 67, 115
1, 345547, Control_c, 0, 67, 113
1, 345562, Control_c, 0, 67, 112
1, 345575, Note_off_c, 0, 86, 64
1, 345577, Control_c, 0, 67, 111
1, 345581, Note_off_c, 0, 62, 64
1, 345581, Note_on_c, 0, 60, 70
1, 345587, Note_on_c, 0, 88, 77
1, 345591, Control_c, 0, 67, 110
1, 345607, Control_c, 0, 67, 109
1, 345622, Control_c, 0, 67, 107
1, 345637, Control_c, 0, 67, 104
1, 345652, Control_c, 0, 67, 102
1, 345656, Note_off_c, 0, 60, 64
1, 345658, Note_on_c, 0, 59, 70
1, 345661, Note_off_c, 0, 88, 66
1, 345666, Note_on_c, 0, 89, 77
1, 345666, Control_c, 0, 67, 101
1, 345725, Control_c, 0, 67, 100
1, 345738, Note_on_c, 0, 88, 73
1, 345740, Control_c, 0, 67, 99
1, 345755, Control_c, 0, 67, 98
1, 345764, Note_off_c, 0, 89, 63
1, 345770, Control_c, 0, 67, 97
1, 345801, Note_on_c, 0, 86, 81
1, 345833, Note_off_c, 0, 88, 64
1, 345862, Note_on_c, 0, 84, 75
1, 345868, Note_off_c, 0, 59, 59
1, 345876, Note_off_c, 0, 86, 63
1, 345918, Note_off_c, 0, 84, 65
1, 345930, Note_on_c, 0, 83, 68
1, 345933, Control_c, 0, 67, 96
1, 345948, Control_c, 0, 67, 95
1, 345963, Control_c, 0, 67, 94
1, 345978, Control_c, 0, 67, 92
1, 345991, Note_off_c, 0, 83, 65
1, 345992, Control_c, 0, 67, 89
1, 345995, Note_on_c, 0, 84, 72
1, 346007, Control_c, 0, 67, 86
1, 346022, Control_c, 0, 67, 82
1, 346036, Control_c, 0, 67, 77
1, 346041, Note_on_c, 0, 86, 74
1, 346051, Control_c, 0, 67, 72
1, 346067, Control_c, 0, 67, 67
1, 346075, Note_off_c, 0, 84, 61
1, 346082, Control_c, 0, 67, 55
1, 346097, Control_c, 0, 67, 44
1, 346105, Note_on_c, 0, 83, 71
1, 346109, Note_off_c, 0, 86, 60
1, 346112, Control_c, 0, 67, 35
1, 346127, Control_c, 0, 67, 28
1, 346128, Note_on_c, 0, 52, 68
1, 346141, Control_c, 0, 67, 25
1, 346148, Note_off_c, 0, 83, 64
1, 346153, Note_off_c, 0, 52, 69
1, 346156, Control_c, 0, 67, 23
1, 346171, Control_c, 0, 67, 22
1, 346207, Note_on_c, 0, 67, 94
1, 346282, Control_c, 0, 67, 23
1, 346286, Note_on_c, 0, 79, 75
1, 346297, Control_c, 0, 67, 23
1, 346312, Control_c, 0, 67, 24
1, 346327, Control_c, 0, 67, 24
1, 346349, Note_off_c, 0, 79, 63
1, 346356, Note_on_c, 0, 81, 72
1, 346371, Control_c, 0, 67, 24
1, 346416, Note_off_c, 0, 81, 63
1, 346420, Note_on_c, 0, 83, 65
1, 346445, Control_c, 0, 67, 23
1, 346462, Note_off_c, 0, 83, 65
1, 346474, Control_c, 0, 67, 23
1, 346494, Note_on_c, 0, 84, 70
1, 346534, Control_c, 0, 67, 22
1, 346548, Control_c, 0, 67, 21
1, 346562, Note_on_c, 0, 86, 77
1, 346562, Note_off_c, 0, 84, 62
1, 346563, Control_c, 0, 67, 20
1, 346577, Note_on_c, 0, 65, 69
1, 346578, Control_c, 0, 67, 15
1, 346590, Note_off_c, 0, 67, 36
1, 346593, Control_c, 0, 67, 0
1, 346629, Note_on_c, 0, 88, 74
1, 346643, Note_on_c, 0, 64, 68
1, 346646, Note_off_c, 0, 86, 61
1, 346653, Note_off_c, 0, 65, 66
1, 346697, Note_on_c, 0, 62, 74
1, 346699, Note_off_c, 0, 88, 68
1, 346707, Note_on_c, 0, 89, 74
1, 346708, Note_off_c, 0, 64, 62
1, 346774, Note_on_c, 0, 61, 72
1, 346781, Note_off_c, 0, 89, 66
1, 346783, Note_on_c, 0, 91, 82
1, 346796, Note_off_c, 0, 62, 61
1, 346859, Note_on_c, 0, 89, 71
1, 346887, Note_off_c, 0, 91, 60
1, 346915, Note_on_c, 0, 88, 78
1, 346950, Note_off_c, 0, 89, 65
1, 346979, Note_on_c, 0, 86, 72
1, 346991, Note_off_c, 0, 88, 66
1, 347003, Note_off_c, 0, 61, 62
1, 347034, Note_off_c, 0, 86, 63
1, 347039, Note_on_c, 0, 85, 75
1, 347106, Note_on_c, 0, 86, 69
1, 347107, Note_off_c, 0, 85, 61
1, 347158, Note_on_c, 0, 88, 70
1, 347176, Note_off_c, 0, 86, 60
1, 347210, Note_off_c, 0, 88, 67
1, 347211, Note_on_c, 0, 85, 71
1, 347235, Note_off_c, 0, 85, 69
1, 347260, Note_on_c, 0, 53, 63
1, 347284, Note_off_c, 0, 53, 67
1, 347328, Note_on_c, 0, 69, 92
1, 347403, Note_on_c, 0, 73, 57
1, 347431, Control_c, 0, 64, 24
1, 347433, Note_off_c, 0, 73, 60
1, 347445, Control_c, 0, 64, 38
1, 347460, Control_c, 0, 64, 46
1, 347465, Note_on_c, 0, 74, 64
1, 347475, Control_c, 0, 64, 52
1, 347489, Control_c, 0, 64, 54
1, 347534, Control_c, 0, 64, 53
1, 347549, Control_c, 0, 64, 53
1, 347550, Note_on_c, 0, 76, 68
1, 347552, Note_off_c, 0, 74, 54
1, 347564, Control_c, 0, 64, 51
1, 347565, Note_off_c, 0, 69, 62
1, 347579, Control_c, 0, 64, 48
1, 347588, Note_on_c, 0, 67, 66
1, 347593, Control_c, 0, 64, 41
1, 347608, Control_c, 0, 64, 26
1, 347616, Note_on_c, 0, 77, 66
1, 347623, Control_c, 0, 64, 0
1, 347626, Note_off_c, 0, 76, 64
1, 347655, Note_on_c, 0, 79, 71
1, 347655, Note_off_c, 0, 67, 64
1, 347657, Note_on_c, 0, 65, 68
1, 347674, Note_off_c, 0, 77, 63
1, 347698, Note_off_c, 0, 65, 64
1, 347730, Note_on_c, 0, 81, 75
1, 347738, Note_on_c, 0, 64, 67
1, 347743, Note_off_c, 0, 79, 59
1, 347799, Note_on_c, 0, 77, 75
1, 347814, Note_on_c, 0, 62, 76
1, 347814, Note_off_c, 0, 81, 62
1, 347814, Note_off_c, 0, 64, 62
1, 347866, Note_off_c, 0, 62, 64
1, 347870, Note_on_c, 0, 55, 78
1, 347894, Note_off_c, 0, 55, 72
1, 347933, Note_on_c, 0, 71, 94
1, 347966, Note_on_c, 0, 75, 75
1, 347972, Note_off_c, 0, 77, 56
1, 348016, Control_c, 0, 64, 22
1, 348030, Note_off_c, 0, 75, 62
1, 348031, Control_c, 0, 64, 36
1, 348044, Note_on_c, 0, 76, 67
1, 348045, Control_c, 0, 64, 46
1, 348060, Control_c, 0, 64, 53
1, 348075, Control_c, 0, 64, 56
1, 348105, Control_c, 0, 64, 55
1, 348123, Note_on_c, 0, 77, 73
1, 348130, Note_off_c, 0, 76, 62
1, 348171, Note_off_c, 0, 71, 61
1, 348179, Control_c, 0, 64, 55
1, 348181, Note_on_c, 0, 69, 65
1, 348189, Note_on_c, 0, 79, 73
1, 348193, Control_c, 0, 64, 51
1, 348208, Note_off_c, 0, 77, 61
1, 348208, Control_c, 0, 64, 35
1, 348223, Control_c, 0, 64, 0
1, 348242, Note_on_c, 0, 81, 72
1, 348249, Note_off_c, 0, 69, 64
1, 348251, Note_on_c, 0, 67, 67
1, 348259, Note_off_c, 0, 79, 62
1, 348285, Note_off_c, 0, 67, 59
1, 348297, Note_on_c, 0, 83, 74
1, 348318, Note_on_c, 0, 65, 72
1, 348318, Note_off_c, 0, 81, 61
1, 348372, Note_on_c, 0, 79, 75
1, 348392, Note_off_c, 0, 83, 63
1, 348396, Note_on_c, 0, 64, 74
1, 348397, Note_off_c, 0, 65, 65
1, 348446, Note_on_c, 0, 57, 78
1, 348449, Note_off_c, 0, 64, 63
1, 348477, Note_off_c, 0, 57, 65
1, 348517, Note_on_c, 0, 72, 100
1, 348559, Note_on_c, 0, 76, 76
1, 348560, Note_off_c, 0, 79, 58
1, 348572, Control_c, 0, 64, 8
1, 348587, Control_c, 0, 64, 24
1, 348603, Control_c, 0, 64, 32
1, 348617, Control_c, 0, 64, 38
1, 348626, Note_off_c, 0, 76, 65
1, 348632, Control_c, 0, 64, 42
1, 348643, Note_on_c, 0, 77, 71
1, 348647, Control_c, 0, 64, 46
1, 348661, Control_c, 0, 64, 49
1, 348676, Control_c, 0, 64, 49
1, 348691, Control_c, 0, 64, 50
1, 348721, Control_c, 0, 64, 49
1, 348724, Note_on_c, 0, 79, 75
1, 348729, Note_off_c, 0, 77, 60
1, 348735, Control_c, 0, 64, 47
1, 348750, Control_c, 0, 64, 44
1, 348754, Note_off_c, 0, 72, 57
1, 348765, Control_c, 0, 64, 38
1, 348770, Note_on_c, 0, 71, 66
1, 348780, Control_c, 0, 64, 19
1, 348787, Note_on_c, 0, 81, 78
1, 348795, Control_c, 0, 64, 0
1, 348801, Note_off_c, 0, 79, 63
1, 348828, Note_on_c, 0, 69, 73
1, 348829, Note_off_c, 0, 71, 66
1, 348833, Note_on_c, 0, 83, 68
1, 348848, Note_off_c, 0, 81, 64
1, 348860, Note_off_c, 0, 69, 52
1, 348900, Note_on_c, 0, 84, 76
1, 348901, Note_on_c, 0, 67, 75
1, 348917, Note_off_c, 0, 83, 62
1, 348967, Note_on_c, 0, 81, 77
1, 348978, Note_off_c, 0, 67, 64
1, 348981, Note_on_c, 0, 65, 74
1, 348990, Note_off_c, 0, 84, 62
1, 349024, Note_on_c, 0, 59, 74
1, 349030, Note_off_c, 0, 65, 66
1, 349051, Note_off_c, 0, 59, 66
1, 349093, Note_on_c, 0, 74, 98
1, 349106, Control_c, 0, 64, 14
1, 349121, Control_c, 0, 64, 31
1, 349132, Note_on_c, 0, 78, 78
1, 349135, Control_c, 0, 64, 33
1, 349150, Control_c, 0, 64, 40
1, 349155, Note_off_c, 0, 81, 58
1, 349165, Control_c, 0, 64, 52
1, 349187, Control_c, 0, 64, 59
1, 349202, Control_c, 0, 64, 60
1, 349206, Note_off_c, 0, 78, 65
1, 349220, Note_on_c, 0, 79, 73
1, 349232, Control_c, 0, 64, 59
1, 349247, Control_c, 0, 64, 58
1, 349296, Note_on_c, 0, 81, 80
1, 349307, Control_c, 0, 64, 58
1, 349322, Control_c, 0, 64, 55
1, 349322, Note_off_c, 0, 79, 47
1, 349325, Note_off_c, 0, 74, 60
1, 349337, Control_c, 0, 64, 47
1, 349337, Note_on_c, 0, 72, 70
1, 349352, Control_c, 0, 64, 22
1, 349359, Note_on_c, 0, 83, 75
1, 349366, Control_c, 0, 64, 0
1, 349373, Note_off_c, 0, 81, 63
1, 349404, Note_off_c, 0, 72, 61
1, 349407, Note_on_c, 0, 84, 69
1, 349409, Note_on_c, 0, 71, 68
1, 349428, Note_off_c, 0, 83, 66
1, 349448, Note_off_c, 0, 71, 57
1, 349461, Note_on_c, 0, 86, 81
1, 349474, Note_on_c, 0, 69, 79
1, 349486, Note_off_c, 0, 84, 60
1, 349528, Note_on_c, 0, 83, 78
1, 349548, Note_off_c, 0, 69, 64
1, 349550, Note_on_c, 0, 67, 73
1, 349555, Note_off_c, 0, 86, 60
1, 349583, Note_on_c, 0, 60, 75
1, 349587, Note_off_c, 0, 67, 64
1, 349615, Note_off_c, 0, 60, 69
1, 349660, Note_on_c, 0, 76, 102
1, 349677, Control_c, 0, 64, 29
1, 349692, Control_c, 0, 64, 30
1, 349704, Note_on_c, 0, 66, 38
1, 349707, Note_on_c, 0, 80, 62
1, 349707, Control_c, 0, 64, 37
1, 349722, Control_c, 0, 64, 49
1, 349733, Note_off_c, 0, 83, 63
1, 349736, Note_off_c, 0, 66, 34
1, 349737, Control_c, 0, 64, 61
1, 349752, Control_c, 0, 64, 65
1, 349766, Control_c, 0, 64, 66
1, 349781, Control_c, 0, 64, 65
1, 349790, Note_off_c, 0, 80, 64
1, 349791, Note_on_c, 0, 81, 78
1, 349796, Control_c, 0, 64, 64
1, 349810, Control_c, 0, 64, 63
1, 349866, Note_on_c, 0, 83, 79
1, 349870, Control_c, 0, 64, 63
1, 349875, Note_off_c, 0, 81, 61
1, 349880, Note_off_c, 0, 76, 62
1, 349884, Control_c, 0, 64, 61
1, 349899, Control_c, 0, 64, 56
1, 349904, Note_on_c, 0, 74, 65
1, 349914, Control_c, 0, 64, 45
1, 349936, Control_c, 0, 64, 0
1, 349944, Note_on_c, 0, 84, 76
1, 349960, Note_off_c, 0, 83, 66
1, 349973, Note_on_c, 0, 72, 74
1, 349973, Note_off_c, 0, 74, 64
1, 349987, Note_on_c, 0, 86, 76
1, 350004, Note_off_c, 0, 72, 61
1, 350013, Note_off_c, 0, 84, 63
1, 350050, Note_on_c, 0, 88, 78
1, 350050, Note_on_c, 0, 71, 73
1, 350067, Note_off_c, 0, 86, 58
1, 350113, Note_on_c, 0, 84, 79
1, 350124, Note_off_c, 0, 71, 64
1, 350130, Note_on_c, 0, 69, 64
1, 350139, Note_on_c, 0, 67, 56
1, 350140, Note_off_c, 0, 88, 64
1, 350162, Note_off_c, 0, 67, 65
1, 350169, Note_off_c, 0, 69, 65
1, 350174, Note_on_c, 0, 62, 80
1, 350209, Note_off_c, 0, 62, 64
1, 350250, Note_on_c, 0, 77, 100
1, 350263, Control_c, 0, 64, 36
1, 350278, Control_c, 0, 64, 49
1, 350293, Control_c, 0, 64, 57
1, 350302, Note_on_c, 0, 82, 78
1, 350307, Control_c, 0, 64, 62
1, 350322, Control_c, 0, 64, 67
1, 350337, Note_off_c, 0, 84, 62
1, 350337, Control_c, 0, 64, 71
1, 350352, Control_c, 0, 64, 72
1, 350374, Note_off_c, 0, 82, 66
1, 350381, Note_on_c, 0, 83, 75
1, 350396, Control_c, 0, 64, 71
1, 350461, Note_on_c, 0, 84, 77
1, 350470, Control_c, 0, 64, 70
1, 350473, Note_off_c, 0, 83, 60
1, 350476, Note_off_c, 0, 77, 49
1, 350485, Control_c, 0, 64, 69
1, 350500, Control_c, 0, 64, 69
1, 350512, Note_on_c, 0, 76, 72
1, 350515, Control_c, 0, 64, 66
1, 350523, Note_on_c, 0, 86, 84
1, 350530, Control_c, 0, 64, 61
1, 350545, Control_c, 0, 64, 45
1, 350547, Note_off_c, 0, 84, 64
1, 350559, Control_c, 0, 64, 0
1, 350574, Note_off_c, 0, 76, 65
1, 350576, Note_on_c, 0, 74, 67
1, 350582, Note_on_c, 0, 88, 72
1, 350595, Note_off_c, 0, 86, 63
1, 350616, Note_off_c, 0, 74, 65
1, 350631, Note_on_c, 0, 89, 82
1, 350650, Note_on_c, 0, 72, 77
1, 350658, Note_off_c, 0, 88, 65
1, 350711, Note_on_c, 0, 86, 88
1, 350716, Note_off_c, 0, 72, 63
1, 350730, Note_on_c, 0, 71, 79
1, 350730, Note_off_c, 0, 89, 66
1, 350780, Note_off_c, 0, 71, 66
1, 350789, Note_on_c, 0, 64, 76
1, 350789, Note_off_c, 0, 86, 62
1, 350848, Control_c, 0, 64, 27
1, 350853, Note_on_c, 0, 72, 83
1, 350864, Control_c, 0, 64, 36
1, 350878, Control_c, 0, 64, 54
1, 350893, Control_c, 0, 64, 72
1, 350905, Note_off_c, 0, 64, 57
1, 350908, Control_c, 0, 64, 109
1, 350920, Note_on_c, 0, 76, 89
1, 350923, Control_c, 0, 64, 127
1, 350945, Note_off_c, 0, 72, 59
1, 350967, Note_on_c, 0, 79, 86
1, 351017, Note_off_c, 0, 76, 57
1, 351027, Note_on_c, 0, 84, 85
1, 351042, Control_c, 0, 64, 104
1, 351042, Note_off_c, 0, 79, 61
1, 351056, Control_c, 0, 64, 74
1, 351071, Control_c, 0, 64, 60
1, 351072, Note_on_c, 0, 91, 89
1, 351086, Control_c, 0, 64, 45
1, 351101, Control_c, 0, 64, 41
1, 351103, Note_on_c, 0, 64, 75
1, 351116, Control_c, 0, 64, 51
1, 351130, Control_c, 0, 64, 65
1, 351145, Control_c, 0, 64, 98
1, 351148, Note_off_c, 0, 84, 62
1, 351160, Control_c, 0, 64, 127
1, 351164, Note_on_c, 0, 72, 77
1, 351167, Note_off_c, 0, 91, 58
1, 351186, Note_off_c, 0, 64, 63
1, 351200, Note_on_c, 0, 76, 93
1, 351239, Note_off_c, 0, 72, 61
1, 351251, Note_on_c, 0, 79, 82
1, 351293, Note_off_c, 0, 76, 54
1, 351308, Control_c, 0, 64, 74
1, 351317, Note_on_c, 0, 84, 81
1, 351323, Control_c, 0, 64, 61
1, 351334, Note_off_c, 0, 79, 62
1, 351337, Control_c, 0, 64, 56
1, 351352, Control_c, 0, 64, 58
1, 351361, Note_on_c, 0, 91, 92
1, 351367, Control_c, 0, 64, 66
1, 351382, Control_c, 0, 64, 79
1, 351397, Control_c, 0, 64, 111
1, 351405, Note_on_c, 0, 64, 79
1, 351412, Control_c, 0, 64, 127
1, 351434, Note_off_c, 0, 91, 61
1, 351447, Note_off_c, 0, 84, 59
1, 351471, Note_on_c, 0, 72, 73
1, 351485, Note_off_c, 0, 64, 62
1, 351493, Control_c, 0, 64, 117
1, 351507, Note_on_c, 0, 76, 90
1, 351508, Control_c, 0, 64, 71
1, 351523, Control_c, 0, 64, 65
1, 351537, Control_c, 0, 64, 69
1, 351552, Control_c, 0, 64, 103
1, 351564, Note_on_c, 0, 80, 83
1, 351567, Control_c, 0, 64, 127
1, 351579, Note_off_c, 0, 72, 54
1, 351592, Note_off_c, 0, 76, 59
1, 351630, Note_on_c, 0, 84, 83
1, 351666, Note_off_c, 0, 80, 62
1, 351686, Note_on_c, 0, 92, 94
1, 351731, Note_on_c, 0, 64, 80
1, 351775, Note_on_c, 0, 72, 75
1, 351794, Note_off_c, 0, 84, 57
1, 351794, Note_off_c, 0, 92, 64
1, 351800, Note_off_c, 0, 64, 64
1, 351820, Note_on_c, 0, 76, 95
1, 351867, Note_on_c, 0, 80, 84
1, 351872, Note_off_c, 0, 72, 56
1, 351931, Note_off_c, 0, 76, 63
1, 351941, Note_on_c, 0, 84, 85
1, 351980, Note_off_c, 0, 80, 61
1, 352010, Note_on_c, 0, 92, 89
1, 352047, Note_on_c, 0, 90, 47
1, 352056, Note_off_c, 0, 84, 59
1, 352075, Note_off_c, 0, 90, 60
1, 352098, Note_off_c, 0, 92, 66
1, 352101, Control_c, 0, 64, 67
1, 352112, Note_on_c, 0, 81, 99
1, 352116, Control_c, 0, 64, 42
1, 352116, Note_on_c, 0, 65, 66
1, 352116, Note_on_c, 0, 77, 100
1, 352121, Note_on_c, 0, 72, 75
1, 352130, Control_c, 0, 64, 0
1, 352256, Control_c, 0, 64, 17
1, 352271, Control_c, 0, 64, 36
1, 352285, Control_c, 0, 64, 51
1, 352297, Note_off_c, 0, 81, 53
1, 352300, Control_c, 0, 64, 63
1, 352309, Note_on_c, 0, 93, 102
1, 352315, Control_c, 0, 64, 73
1, 352330, Control_c, 0, 64, 76
1, 352345, Control_c, 0, 64, 79
1, 352347, Note_off_c, 0, 77, 58
1, 352351, Note_off_c, 0, 65, 58
1, 352360, Control_c, 0, 64, 81
1, 352375, Control_c, 0, 64, 82
1, 352390, Control_c, 0, 64, 83
1, 352402, Note_off_c, 0, 72, 58
1, 352404, Control_c, 0, 64, 89
1, 352417, Note_on_c, 0, 91, 97
1, 352419, Control_c, 0, 64, 92
1, 352434, Control_c, 0, 64, 93
1, 352449, Control_c, 0, 64, 95
1, 352449, Note_off_c, 0, 93, 61
1, 352464, Control_c, 0, 64, 101
1, 352479, Control_c, 0, 64, 109
1, 352494, Control_c, 0, 64, 127
1, 352506, Note_on_c, 0, 89, 93
1, 352545, Note_off_c, 0, 91, 57
1, 352589, Note_on_c, 0, 88, 90
1, 352619, Note_off_c, 0, 89, 63
1, 352649, Note_on_c, 0, 86, 86
1, 352659, Note_off_c, 0, 88, 67
1, 352701, Control_c, 0, 64, 98
1, 352716, Control_c, 0, 64, 96
1, 352727, Note_on_c, 0, 84, 87
1, 352746, Control_c, 0, 64, 97
1, 352775, Control_c, 0, 64, 94
1, 352777, Note_off_c, 0, 86, 26
1, 352790, Control_c, 0, 64, 78
1, 352802, Note_on_c, 0, 83, 82
1, 352805, Control_c, 0, 64, 69
1, 352820, Control_c, 0, 64, 63
1, 352823, Note_off_c, 0, 84, 61
1, 352834, Control_c, 0, 64, 57
1, 352849, Control_c, 0, 64, 41
1, 352860, Note_on_c, 0, 81, 87
1, 352864, Note_off_c, 0, 83, 67
1, 352864, Control_c, 0, 64, 0
1, 352935, Note_off_c, 0, 81, 61
1, 352943, Note_on_c, 0, 79, 86
1, 353013, Note_on_c, 0, 77, 86
1, 353059, Note_off_c, 0, 79, 60
1, 353078, Note_on_c, 0, 76, 80
1, 353123, Note_off_c, 0, 77, 54
1, 353143, Note_on_c, 0, 74, 81
1, 353150, Note_off_c, 0, 76, 67
1, 353197, Note_off_c, 0, 74, 63
1, 353217, Note_on_c, 0, 72, 83
1, 353286, Note_on_c, 0, 71, 74
1, 353302, Note_off_c, 0, 72, 62
1, 353344, Note_off_c, 0, 71, 67
1, 353349, Note_on_c, 0, 69, 78
1, 353421, Note_on_c, 0, 68, 79
1, 353424, Note_off_c, 0, 69, 62
1, 353495, Note_on_c, 0, 69, 77
1, 353495, Note_off_c, 0, 68, 61
1, 353561, Note_on_c, 0, 67, 88
1, 353599, Note_off_c, 0, 69, 62
1, 353640, Note_on_c, 0, 65, 84
1, 353693, Note_off_c, 0, 67, 62
1, 353721, Note_on_c, 0, 64, 88
1, 353726, Note_on_c, 0, 29, 100
1, 353759, Note_off_c, 0, 65, 62
1, 353798, Note_on_c, 0, 62, 87
1, 353806, Note_off_c, 0, 64, 64
1, 353854, Note_off_c, 0, 62, 62
1, 353882, Note_on_c, 0, 60, 83
1, 353956, Note_on_c, 0, 59, 81
1, 353991, Note_off_c, 0, 60, 63
1, 354037, Note_on_c, 0, 57, 81
1, 354062, Note_off_c, 0, 59, 60
1, 354089, Note_off_c, 0, 29, 59
1, 354107, Note_on_c, 0, 31, 68
1, 354111, Note_on_c, 0, 55, 86
1, 354113, Note_off_c, 0, 57, 63
1, 354165, Note_off_c, 0, 55, 64
1, 354178, Note_off_c, 0, 31, 62
1, 354182, Note_on_c, 0, 33, 66
1, 354193, Note_on_c, 0, 53, 85
1, 354240, Note_off_c, 0, 33, 65
1, 354251, Note_on_c, 0, 35, 64
1, 354268, Note_on_c, 0, 52, 89
1, 354294, Note_off_c, 0, 35, 64
1, 354298, Note_off_c, 0, 53, 66
1, 354329, Note_on_c, 0, 36, 57
1, 354346, Note_on_c, 0, 50, 79
1, 354360, Note_off_c, 0, 36, 64
1, 354369, Note_off_c, 0, 52, 65
1, 354407, Note_on_c, 0, 38, 64
1, 354413, Note_off_c, 0, 50, 64
1, 354414, Note_on_c, 0, 48, 80
1, 354472, Note_off_c, 0, 38, 60
1, 354499, Note_on_c, 0, 47, 85
1, 354500, Note_on_c, 0, 40, 62
1, 354509, Note_off_c, 0, 48, 37
1, 354534, Note_off_c, 0, 40, 64
1, 354561, Note_on_c, 0, 41, 55
1, 354568, Note_on_c, 0, 45, 77
1, 354584, Note_off_c, 0, 47, 64
1, 354598, Note_off_c, 0, 41, 65
1, 354640, Note_off_c, 0, 45, 53
1, 354654, Note_on_c, 0, 40, 99
1, 354654, Note_on_c, 0, 43, 84
1, 354661, Note_on_c, 0, 31, 88
1, 354662, Note_on_c, 0, 36, 88
1, 354665, Control_c, 0, 64, 28
1, 354679, Control_c, 0, 64, 50
1, 354694, Control_c, 0, 64, 65
1, 354698, Note_off_c, 0, 31, 66
1, 354700, Note_off_c, 0, 36, 64
1, 354709, Note_off_c, 0, 40, 67
1, 354709, Control_c, 0, 64, 96
1, 354719, Note_off_c, 0, 43, 58
1, 354724, Control_c, 0, 64, 107
1, 354739, Control_c, 0, 64, 127
1, 354746, Note_on_c, 0, 48, 80
1, 354798, Control_c, 0, 64, 109
1, 354813, Control_c, 0, 64, 103
1, 354822, Note_on_c, 0, 47, 76
1, 354828, Control_c, 0, 64, 101
1, 354830, Note_off_c, 0, 48, 62
1, 354843, Control_c, 0, 64, 100
1, 354858, Control_c, 0, 64, 99
1, 354873, Control_c, 0, 64, 95
1, 354888, Control_c, 0, 64, 91
1, 354889, Note_off_c, 0, 47, 63
1, 354890, Note_on_c, 0, 50, 75
1, 354903, Control_c, 0, 64, 82
1, 354918, Control_c, 0, 64, 72
1, 354932, Control_c, 0, 64, 63
1, 354947, Control_c, 0, 64, 49
1, 354955, Note_off_c, 0, 50, 61
1, 354962, Control_c, 0, 64, 0
1, 354970, Note_on_c, 0, 48, 68
1, 355046, Note_on_c, 0, 52, 74
1, 355055, Note_off_c, 0, 48, 63
1, 355109, Note_off_c, 0, 52, 66
1, 355113, Note_on_c, 0, 51, 73
1, 355185, Note_off_c, 0, 51, 66
1, 355190, Note_on_c, 0, 53, 65
1, 355249, Note_off_c, 0, 53, 61
1, 355263, Note_on_c, 0, 52, 68
1, 355338, Note_on_c, 0, 55, 68
1, 355343, Note_off_c, 0, 52, 63
1, 355394, Note_on_c, 0, 54, 67
1, 355396, Note_off_c, 0, 55, 63
1, 355451, Note_off_c, 0, 54, 65
1, 355460, Note_on_c, 0, 57, 67
1, 355512, Note_off_c, 0, 57, 58
1, 355532, Note_on_c, 0, 55, 68
1, 355603, Note_on_c, 0, 60, 69
1, 355609, Note_off_c, 0, 55, 62
1, 355665, Note_off_c, 0, 60, 65
1, 355672, Note_on_c, 0, 59, 64
1, 355732, Note_off_c, 0, 59, 62
1, 355734, Note_on_c, 0, 62, 70
1, 355780, Note_off_c, 0, 62, 61
1, 355804, Note_on_c, 0, 60, 71
1, 355876, Note_off_c, 0, 60, 62
1, 355877, Note_on_c, 0, 64, 65
1, 355944, Note_off_c, 0, 64, 63
1, 355953, Note_on_c, 0, 63, 69
1, 356009, Note_off_c, 0, 63, 65
1, 356019, Note_on_c, 0, 65, 63
1, 356057, Note_off_c, 0, 65, 64
1, 356086, Note_on_c, 0, 64, 63
1, 356147, Note_off_c, 0, 64, 51
1, 356157, Note_on_c, 0, 67, 65
1, 356214, Note_off_c, 0, 67, 63
1, 356220, Note_on_c, 0, 66, 69
1, 356276, Note_off_c, 0, 66, 64
1, 356282, Note_on_c, 0, 69, 66
1, 356319, Note_off_c, 0, 69, 61
1, 356349, Note_on_c, 0, 67, 68
1, 356409, Note_off_c, 0, 67, 48
1, 356425, Note_on_c, 0, 72, 67
1, 356480, Note_off_c, 0, 72, 60
1, 356495, Note_on_c, 0, 71, 56
1, 356543, Note_off_c, 0, 71, 64
1, 356552, Note_on_c, 0, 74, 60
1, 356593, Note_off_c, 0, 74, 59
1, 356627, Note_on_c, 0, 72, 64
1, 356680, Note_off_c, 0, 72, 49
1, 356705, Note_on_c, 0, 76, 60
1, 356747, Note_off_c, 0, 76, 63
1, 356768, Note_on_c, 0, 75, 57
1, 356816, Note_off_c, 0, 75, 61
1, 356835, Note_on_c, 0, 77, 48
1, 356867, Note_off_c, 0, 77, 55
1, 356904, Note_on_c, 0, 76, 57
1, 356945, Note_off_c, 0, 76, 51
1, 356971, Note_on_c, 0, 79, 59
1, 357017, Note_off_c, 0, 79, 60
1, 357043, Note_on_c, 0, 78, 60
1, 357080, Note_off_c, 0, 78, 66
1, 357109, Note_on_c, 0, 81, 57
1, 357133, Note_off_c, 0, 81, 61
1, 357178, Note_on_c, 0, 79, 60
1, 357222, Note_off_c, 0, 79, 54
1, 357257, Note_on_c, 0, 76, 42
1, 357258, Note_on_c, 0, 84, 64
1, 357284, Note_off_c, 0, 76, 59
1, 357298, Note_off_c, 0, 84, 63
1, 357317, Note_on_c, 0, 83, 64
1, 357324, Note_on_c, 0, 75, 43
1, 357356, Note_off_c, 0, 75, 53
1, 357374, Note_on_c, 0, 76, 61
1, 357380, Note_off_c, 0, 83, 64
1, 357387, Note_on_c, 0, 84, 64
1, 357397, Note_off_c, 0, 76, 63
1, 357425, Note_off_c, 0, 84, 66
1, 357445, Note_on_c, 0, 79, 66
1, 357457, Note_on_c, 0, 67, 49
1, 357493, Note_off_c, 0, 67, 50
1, 357504, Note_off_c, 0, 79, 48
1, 357508, Note_on_c, 0, 88, 71
1, 357523, Note_on_c, 0, 72, 54
1, 357547, Note_off_c, 0, 72, 59
1, 357574, Note_off_c, 0, 88, 64
1, 357586, Note_on_c, 0, 87, 65
1, 357587, Note_on_c, 0, 71, 49
1, 357614, Note_off_c, 0, 71, 62
1, 357622, Note_on_c, 0, 72, 59
1, 357648, Note_on_c, 0, 88, 71
1, 357653, Note_off_c, 0, 87, 62
1, 357659, Note_off_c, 0, 72, 61
1, 357704, Note_on_c, 0, 67, 45
1, 357707, Note_on_c, 0, 79, 69
1, 357708, Note_off_c, 0, 88, 55
1, 357742, Note_off_c, 0, 67, 49
1, 357755, Note_off_c, 0, 79, 57
1, 357769, Note_on_c, 0, 76, 59
1, 357770, Note_on_c, 0, 84, 70
1, 357795, Note_off_c, 0, 76, 57
1, 357824, Note_off_c, 0, 84, 65
1, 357833, Note_on_c, 0, 83, 68
1, 357833, Note_on_c, 0, 75, 57
1, 357871, Note_off_c, 0, 75, 56
1, 357883, Note_on_c, 0, 76, 60
1, 357898, Note_on_c, 0, 84, 71
1, 357901, Note_off_c, 0, 83, 64
1, 357913, Note_off_c, 0, 76, 66
1, 357951, Note_off_c, 0, 84, 62
1, 357960, Note_on_c, 0, 67, 49
1, 357960, Note_on_c, 0, 79, 79
1, 358002, Note_off_c, 0, 67, 49
1, 358003, Note_off_c, 0, 79, 61
1, 358021, Note_on_c, 0, 72, 63
1, 358025, Note_on_c, 0, 88, 76
1, 358060, Note_off_c, 0, 72, 62
1, 358089, Note_off_c, 0, 88, 63
1, 358089, Note_on_c, 0, 87, 75
1, 358093, Note_on_c, 0, 71, 52
1, 358130, Note_off_c, 0, 71, 64
1, 358155, Note_on_c, 0, 72, 58
1, 358157, Note_on_c, 0, 88, 80
1, 358173, Note_off_c, 0, 87, 62
1, 358182, Note_off_c, 0, 72, 65
1, 358226, Note_on_c, 0, 79, 84
1, 358238, Note_on_c, 0, 67, 54
1, 358242, Note_off_c, 0, 88, 62
1, 358286, Note_on_c, 0, 84, 78
1, 358287, Note_off_c, 0, 79, 59
1, 358291, Note_on_c, 0, 76, 69
1, 358334, Note_off_c, 0, 76, 62
1, 358350, Note_on_c, 0, 83, 82
1, 358351, Note_off_c, 0, 84, 65
1, 358357, Note_on_c, 0, 75, 68
1, 358379, Note_off_c, 0, 67, 43
1, 358414, Note_on_c, 0, 84, 84
1, 358414, Note_off_c, 0, 75, 62
1, 358419, Note_on_c, 0, 76, 72
1, 358430, Note_off_c, 0, 83, 65
1, 358445, Note_off_c, 0, 76, 68
1, 358481, Note_on_c, 0, 79, 86
1, 358481, Note_off_c, 0, 84, 64
1, 358489, Note_on_c, 0, 67, 62
1, 358529, Note_off_c, 0, 79, 64
1, 358545, Note_on_c, 0, 72, 74
1, 358557, Note_on_c, 0, 88, 84
1, 358564, Note_off_c, 0, 67, 56
1, 358595, Note_off_c, 0, 72, 64
1, 358611, Note_on_c, 0, 87, 84
1, 358613, Note_on_c, 0, 71, 66
1, 358623, Note_off_c, 0, 88, 62
1, 358679, Note_off_c, 0, 71, 66
1, 358683, Note_on_c, 0, 72, 75
1, 358687, Note_on_c, 0, 88, 85
1, 358706, Note_off_c, 0, 87, 64
1, 358727, Note_off_c, 0, 72, 61
1, 358755, Note_on_c, 0, 79, 90
1, 358757, Note_on_c, 0, 67, 69
1, 358786, Note_off_c, 0, 88, 64
1, 358820, Note_on_c, 0, 76, 79
1, 358829, Note_on_c, 0, 84, 91
1, 358845, Note_off_c, 0, 79, 60
1, 358900, Note_off_c, 0, 76, 65
1, 358906, Note_on_c, 0, 83, 93
1, 358910, Note_on_c, 0, 75, 76
1, 358926, Note_off_c, 0, 84, 64
1, 358975, Note_off_c, 0, 67, 61
1, 358994, Note_on_c, 0, 84, 97
1, 358999, Note_on_c, 0, 76, 81
1, 359008, Note_off_c, 0, 75, 62
1, 359025, Note_off_c, 0, 83, 65
1, 359079, Note_off_c, 0, 76, 56
1, 359112, Note_off_c, 0, 84, 63
1, 359159, Note_on_c, 0, 83, 109
1, 359161, Note_on_c, 0, 89, 111
1, 359167, Note_on_c, 0, 77, 95
1, 359170, Note_on_c, 0, 74, 77
1, 359174, Note_on_c, 0, 67, 79
1, 359410, Control_c, 0, 64, 28
1, 359425, Control_c, 0, 64, 47
1, 359440, Control_c, 0, 64, 64
1, 359455, Control_c, 0, 64, 94
1, 359469, Control_c, 0, 64, 127
1, 359937, Note_off_c, 0, 83, 26
1, 360311, Note_off_c, 0, 89, 37
1, 361581, Note_on_c, 0, 89, 99
1, 361681, Note_on_c, 0, 88, 84
1, 361687, Note_off_c, 0, 77, 50
1, 361704, Note_off_c, 0, 89, 63
1, 361717, Note_off_c, 0, 74, 37
1, 361739, Note_on_c, 0, 86, 75
1, 361770, Note_off_c, 0, 88, 66
1, 361771, Note_off_c, 0, 67, 58
1, 361792, Note_on_c, 0, 84, 76
1, 361796, Note_off_c, 0, 86, 63
1, 361830, Note_off_c, 0, 84, 59
1, 361862, Note_on_c, 0, 83, 79
1, 361917, Note_on_c, 0, 81, 81
1, 361958, Note_off_c, 0, 83, 66
1, 361964, Note_on_c, 0, 79, 78
1, 361988, Note_off_c, 0, 81, 64
1, 362019, Note_off_c, 0, 79, 63
1, 362020, Note_on_c, 0, 77, 73
1, 362047, Note_off_c, 0, 77, 63
1, 362075, Note_on_c, 0, 76, 84
1, 362138, Note_on_c, 0, 74, 75
1, 362158, Note_off_c, 0, 76, 65
1, 362182, Note_on_c, 0, 72, 83
1, 362188, Note_off_c, 0, 74, 67
1, 362251, Note_on_c, 0, 71, 89
1, 362266, Note_off_c, 0, 72, 64
1, 362288, Note_off_c, 0, 71, 69
1, 362335, Note_on_c, 0, 71, 95
1, 362336, Note_on_c, 0, 77, 102
1, 362342, Note_on_c, 0, 65, 88
1, 362345, Note_on_c, 0, 55, 76
1, 362346, Note_on_c, 0, 62, 78
1, 362361, Control_c, 0, 64, 66
1, 362376, Control_c, 0, 64, 44
1, 362391, Control_c, 0, 64, 0
1, 362783, Control_c, 0, 64, 12
1, 362798, Control_c, 0, 64, 20
1, 362812, Control_c, 0, 64, 27
1, 362828, Control_c, 0, 64, 36
1, 362844, Control_c, 0, 64, 48
1, 362859, Control_c, 0, 64, 59
1, 362874, Control_c, 0, 64, 66
1, 362889, Control_c, 0, 64, 72
1, 362903, Control_c, 0, 64, 75
1, 362918, Control_c, 0, 64, 83
1, 362933, Control_c, 0, 64, 97
1, 362948, Control_c, 0, 64, 122
1, 362962, Control_c, 0, 64, 127
1, 363119, Note_off_c, 0, 71, 34
1, 363657, Note_off_c, 0, 77, 1
1, 365289, Note_on_c, 0, 77, 41
1, 365378, Note_off_c, 0, 65, 21
1, 365424, Note_off_c, 0, 77, 51
1, 365439, Note_on_c, 0, 76, 46
1, 365505, Note_off_c, 0, 76, 0
1, 365505, Note_on_c, 0, 76, 7
1, 365559, Note_off_c, 0, 62, 14
1, 365562, Note_on_c, 0, 74, 42
1, 365622, Note_off_c, 0, 76, 35
1, 365679, Note_on_c, 0, 72, 50
1, 365705, Note_off_c, 0, 74, 37
1, 365760, Note_off_c, 0, 55, 37
1, 365769, Note_off_c, 0, 72, 59
1, 365797, Note_on_c, 0, 71, 47
1, 365807, Control_c, 0, 67, 8
1, 365882, Control_c, 0, 67, 8
1, 365897, Control_c, 0, 67, 10
1, 365902, Note_off_c, 0, 71, 54
1, 365911, Control_c, 0, 67, 11
1, 365922, Note_on_c, 0, 69, 50
1, 365926, Control_c, 0, 67, 13
1, 365956, Control_c, 0, 67, 13
1, 365971, Control_c, 0, 67, 15
1, 365986, Control_c, 0, 67, 17
1, 366001, Control_c, 0, 67, 19
1, 366015, Control_c, 0, 67, 20
1, 366074, Note_on_c, 0, 67, 56
1, 366121, Note_off_c, 0, 69, 36
1, 366135, Control_c, 0, 67, 20
1, 366165, Control_c, 0, 67, 21
1, 366179, Control_c, 0, 67, 24
1, 366194, Control_c, 0, 67, 26
1, 366209, Control_c, 0, 67, 27
1, 366224, Control_c, 0, 67, 28
1, 366249, Note_off_c, 0, 67, 56
1, 366253, Control_c, 0, 67, 30
1, 366259, Note_on_c, 0, 65, 50
1, 366268, Control_c, 0, 67, 35
1, 366283, Control_c, 0, 67, 42
1, 366298, Control_c, 0, 67, 48
1, 366309, Note_off_c, 0, 65, 64
1, 366312, Control_c, 0, 67, 51
1, 366327, Control_c, 0, 67, 52
1, 366342, Control_c, 0, 67, 52
1, 366372, Control_c, 0, 67, 53
1, 366386, Control_c, 0, 67, 54
1, 366409, Control_c, 0, 67, 56
1, 366424, Control_c, 0, 67, 57
1, 366616, Control_c, 0, 67, 56
1, 366625, Note_on_c, 0, 64, 60
1, 366633, Note_on_c, 0, 60, 46
1, 366645, Note_on_c, 0, 55, 44
1, 366652, Note_on_c, 0, 36, 39
1, 366656, Note_on_c, 0, 48, 37
1, 366660, Control_c, 0, 64, 107
1, 366660, Control_c, 0, 67, 56
1, 366675, Control_c, 0, 64, 88
1, 366675, Control_c, 0, 67, 55
1, 366690, Control_c, 0, 64, 73
1, 366704, Control_c, 0, 64, 62
1, 366719, Control_c, 0, 64, 48
1, 366734, Control_c, 0, 64, 0
1, 366854, Control_c, 0, 67, 55
1, 366869, Control_c, 0, 64, 16
1, 366869, Control_c, 0, 67, 54
1, 366883, Control_c, 0, 64, 32
1, 366898, Control_c, 0, 64, 45
1, 366898, Control_c, 0, 67, 54
1, 366913, Control_c, 0, 64, 57
1, 366928, Control_c, 0, 64, 64
1, 366928, Control_c, 0, 67, 53
1, 366943, Control_c, 0, 64, 66
1, 366953, Note_off_c, 0, 48, 43
1, 366957, Control_c, 0, 64, 67
1, 366957, Control_c, 0, 67, 53
1, 366972, Control_c, 0, 64, 68
1, 366987, Control_c, 0, 64, 70
1, 367002, Control_c, 0, 64, 72
1, 367032, Control_c, 0, 67, 52
1, 367047, Control_c, 0, 67, 52
1, 367053, Note_off_c, 0, 36, 40
1, 367062, Note_off_c, 0, 55, 35
1, 367076, Control_c, 0, 64, 72
1, 367157, Control_c, 0, 67, 51
1, 367297, Note_off_c, 0, 64, 37
1, 367306, Control_c, 0, 64, 71
1, 367321, Control_c, 0, 64, 67
1, 367335, Control_c, 0, 64, 60
1, 367339, Note_on_c, 0, 62, 64
1, 367350, Note_on_c, 0, 44, 51
1, 367350, Control_c, 0, 64, 46
1, 367350, Control_c, 0, 67, 51
1, 367352, Note_on_c, 0, 32, 49
1, 367357, Note_on_c, 0, 53, 47
1, 367365, Control_c, 0, 64, 9
1, 367377, Note_on_c, 0, 59, 21
1, 367380, Control_c, 0, 64, 0
1, 367380, Control_c, 0, 67, 50
1, 367395, Control_c, 0, 67, 50
1, 367402, Note_off_c, 0, 60, 33
1, 367409, Control_c, 0, 67, 49
1, 367424, Control_c, 0, 67, 48
1, 367439, Control_c, 0, 67, 45
1, 367454, Control_c, 0, 64, 31
1, 367454, Control_c, 0, 67, 37
1, 367469, Control_c, 0, 64, 48
1, 367469, Control_c, 0, 67, 21
1, 367483, Control_c, 0, 64, 61
1, 367483, Control_c, 0, 67, 0
1, 367498, Control_c, 0, 64, 69
1, 367511, Note_off_c, 0, 59, 38
1, 367513, Control_c, 0, 64, 71
1, 367560, Note_off_c, 0, 53, 35
1, 367595, Note_off_c, 0, 44, 51
1, 367626, Note_off_c, 0, 32, 39
1, 367662, Control_c, 0, 64, 68
1, 367677, Control_c, 0, 64, 62
1, 367681, Note_on_c, 0, 60, 69
1, 367692, Control_c, 0, 64, 49
1, 367693, Note_on_c, 0, 57, 51
1, 367700, Note_on_c, 0, 45, 45
1, 367700, Note_on_c, 0, 33, 50
1, 367706, Control_c, 0, 64, 0
1, 367711, Note_on_c, 0, 52, 39
1, 367731, Note_off_c, 0, 62, 57
1, 367780, Control_c, 0, 64, 19
1, 367795, Control_c, 0, 64, 39
1, 367803, Note_off_c, 0, 57, 25
1, 367810, Control_c, 0, 64, 52
1, 367825, Control_c, 0, 64, 61
1, 367840, Control_c, 0, 64, 65
1, 367858, Note_off_c, 0, 52, 45
1, 367906, Control_c, 0, 64, 65
1, 368069, Control_c, 0, 64, 65
1, 368071, Note_on_c, 0, 59, 61
1, 368075, Note_on_c, 0, 40, 52
1, 368084, Note_on_c, 0, 56, 49
1, 368084, Control_c, 0, 64, 62
1, 368085, Note_on_c, 0, 50, 48
1, 368099, Control_c, 0, 64, 56
1, 368114, Control_c, 0, 64, 40
1, 368129, Control_c, 0, 64, 0
1, 368156, Note_off_c, 0, 60, 62
1, 368244, Note_off_c, 0, 45, 39
1, 368254, Note_off_c, 0, 33, 43
1, 368276, Control_c, 0, 64, 14
1, 368291, Control_c, 0, 64, 24
1, 368306, Control_c, 0, 64, 32
1, 368321, Control_c, 0, 64, 39
1, 368336, Control_c, 0, 64, 46
1, 368350, Control_c, 0, 64, 52
1, 368365, Control_c, 0, 64, 56
1, 368380, Control_c, 0, 64, 59
1, 368395, Control_c, 0, 64, 62
1, 368410, Control_c, 0, 64, 65
1, 368426, Control_c, 0, 64, 68
1, 368441, Control_c, 0, 64, 72
1, 368455, Control_c, 0, 64, 75
1, 368470, Control_c, 0, 64, 78
1, 368473, Note_off_c, 0, 56, 35
1, 368485, Control_c, 0, 64, 79
1, 368500, Control_c, 0, 64, 79
1, 368524, Note_off_c, 0, 50, 41
1, 368832, Control_c, 0, 64, 78
1, 368847, Control_c, 0, 64, 74
1, 368852, Note_on_c, 0, 57, 52
1, 368859, Note_on_c, 0, 48, 48
1, 368862, Control_c, 0, 64, 66
1, 368867, Note_on_c, 0, 41, 37
1, 368877, Control_c, 0, 64, 59
1, 368892, Control_c, 0, 64, 42
1, 368906, Control_c, 0, 64, 0
1, 368919, Note_off_c, 0, 59, 50
1, 368953, Note_off_c, 0, 40, 45
1, 369054, Control_c, 0, 64, 26
1, 369069, Control_c, 0, 64, 42
1, 369084, Control_c, 0, 64, 55
1, 369098, Control_c, 0, 64, 64
1, 369113, Control_c, 0, 64, 67
1, 369142, Note_off_c, 0, 41, 43
1, 369143, Control_c, 0, 64, 70
1, 369158, Control_c, 0, 64, 74
1, 369160, Note_off_c, 0, 48, 45
1, 369172, Control_c, 0, 64, 78
1, 369187, Control_c, 0, 64, 79
1, 369222, Note_off_c, 0, 57, 55
1, 369248, Control_c, 0, 64, 79
1, 369321, Control_c, 0, 64, 80
1, 369715, Control_c, 0, 64, 79
1, 369759, Control_c, 0, 64, 79
1, 369774, Control_c, 0, 64, 78
1, 369781, Note_on_c, 0, 71, 54
1, 369789, Control_c, 0, 64, 75
1, 369796, Note_on_c, 0, 67, 31
1, 369798, Note_on_c, 0, 59, 23
1, 369803, Note_on_c, 0, 50, 34
1, 369803, Note_on_c, 0, 53, 32
1, 369803, Note_on_c, 0, 65, 37
1, 369804, Control_c, 0, 64, 69
1, 369810, Note_on_c, 0, 55, 30
1, 369819, Control_c, 0, 64, 64
1, 369834, Control_c, 0, 64, 58
1, 369849, Control_c, 0, 64, 47
1, 369864, Control_c, 0, 64, 27
1, 369878, Control_c, 0, 64, 0
1, 369996, Control_c, 0, 64, 13
1, 370011, Control_c, 0, 64, 29
1, 370027, Control_c, 0, 64, 42
1, 370042, Control_c, 0, 64, 55
1, 370057, Control_c, 0, 64, 64
1, 370072, Control_c, 0, 64, 70
1, 370082, Note_off_c, 0, 53, 42
1, 370087, Control_c, 0, 64, 72
1, 370101, Control_c, 0, 64, 77
1, 370102, Note_off_c, 0, 55, 38
1, 370116, Control_c, 0, 64, 88
1, 370124, Note_off_c, 0, 67, 36
1, 370131, Control_c, 0, 64, 100
1, 370132, Note_off_c, 0, 65, 30
1, 370153, Control_c, 0, 64, 106
1, 370156, Note_off_c, 0, 59, 41
1, 370360, Control_c, 0, 64, 105
1, 370449, Control_c, 0, 64, 104
1, 370464, Control_c, 0, 64, 98
1, 370478, Control_c, 0, 64, 84
1, 370493, Control_c, 0, 64, 70
1, 370508, Control_c, 0, 64, 60
1, 370515, Note_on_c, 0, 72, 69
1, 370523, Note_on_c, 0, 60, 41
1, 370523, Control_c, 0, 64, 47
1, 370528, Note_on_c, 0, 55, 42
1, 370535, Note_on_c, 0, 52, 44
1, 370538, Control_c, 0, 64, 33
1, 370539, Note_on_c, 0, 67, 45
1, 370552, Control_c, 0, 64, 33
1, 370567, Control_c, 0, 64, 39
1, 370577, Note_off_c, 0, 71, 44
1, 370582, Control_c, 0, 64, 47
1, 370597, Control_c, 0, 64, 58
1, 370612, Control_c, 0, 64, 71
1, 370627, Control_c, 0, 64, 127
1, 370632, Note_off_c, 0, 55, 63
1, 370646, Note_off_c, 0, 52, 64
1, 370666, Note_off_c, 0, 50, 38
1, 370705, Note_off_c, 0, 60, 60
1, 370850, Control_c, 0, 64, 80
1, 370865, Control_c, 0, 64, 62
1, 370880, Note_on_c, 0, 74, 77
1, 370880, Control_c, 0, 64, 44
1, 370883, Note_on_c, 0, 62, 52
1, 370887, Note_on_c, 0, 60, 41
1, 370889, Note_on_c, 0, 53, 48
1, 370899, Note_on_c, 0, 69, 59
1, 370901, Control_c, 0, 64, 0
1, 370908, Note_on_c, 0, 57, 49
1, 370964, Note_off_c, 0, 72, 50
1, 370976, Control_c, 0, 64, 14
1, 370991, Control_c, 0, 64, 38
1, 371006, Control_c, 0, 64, 58
1, 371020, Control_c, 0, 64, 81
1, 371035, Control_c, 0, 64, 127
1, 371114, Note_off_c, 0, 62, 60
1, 371122, Note_off_c, 0, 67, 38
1, 371122, Note_off_c, 0, 60, 41
1, 371125, Note_off_c, 0, 53, 35
1, 371280, Note_off_c, 0, 69, 36
1, 371312, Note_on_c, 0, 76, 79
1, 371316, Note_on_c, 0, 64, 51
1, 371320, Note_on_c, 0, 55, 52
1, 371321, Note_on_c, 0, 67, 61
1, 371328, Note_on_c, 0, 72, 63
1, 371329, Note_on_c, 0, 60, 51
1, 371390, Control_c, 0, 64, 105
1, 371405, Control_c, 0, 64, 79
1, 371420, Control_c, 0, 64, 67
1, 371435, Control_c, 0, 64, 56
1, 371450, Control_c, 0, 64, 36
1, 371465, Control_c, 0, 64, 0
1, 371476, Note_off_c, 0, 74, 33
1, 371494, Note_off_c, 0, 57, 37
1, 371651, Control_c, 0, 64, 11
1, 371666, Control_c, 0, 64, 26
1, 371680, Control_c, 0, 64, 38
1, 371695, Control_c, 0, 64, 50
1, 371710, Control_c, 0, 64, 59
1, 371725, Control_c, 0, 64, 63
1, 371754, Control_c, 0, 64, 64
1, 371769, Control_c, 0, 64, 65
1, 371784, Control_c, 0, 64, 67
1, 371798, Control_c, 0, 64, 70
1, 371813, Control_c, 0, 64, 71
1, 371824, Note_off_c, 0, 64, 29
1, 371828, Control_c, 0, 64, 72
1, 371876, Note_off_c, 0, 67, 33
1, 371918, Control_c, 0, 64, 72
1, 372110, Control_c, 0, 64, 72
1, 372198, Control_c, 0, 64, 71
1, 372213, Control_c, 0, 64, 69
1, 372228, Control_c, 0, 64, 65
1, 372230, Note_on_c, 0, 74, 53
1, 372243, Control_c, 0, 64, 57
1, 372246, Note_on_c, 0, 62, 36
1, 372254, Note_on_c, 0, 59, 39
1, 372256, Note_on_c, 0, 71, 31
1, 372257, Control_c, 0, 64, 39
1, 372260, Note_on_c, 0, 67, 36
1, 372263, Note_off_c, 0, 72, 28
1, 372263, Note_off_c, 0, 60, 23
1, 372272, Control_c, 0, 64, 0
1, 372280, Note_off_c, 0, 76, 49
1, 372314, Note_off_c, 0, 62, 0
1, 372314, Note_on_c, 0, 62, 3
1, 372362, Control_c, 0, 64, 8
1, 372377, Control_c, 0, 64, 31
1, 372387, Note_off_c, 0, 55, 44
1, 372392, Control_c, 0, 64, 47
1, 372413, Control_c, 0, 64, 59
1, 372429, Control_c, 0, 64, 65
1, 372444, Control_c, 0, 64, 67
1, 372474, Control_c, 0, 64, 67
1, 372488, Note_off_c, 0, 67, 43
1, 372489, Control_c, 0, 64, 69
1, 372503, Control_c, 0, 64, 71
1, 372518, Control_c, 0, 64, 71
1, 372577, Control_c, 0, 64, 72
1, 372593, Note_off_c, 0, 59, 40
1, 372599, Note_off_c, 0, 71, 38
1, 372630, Note_off_c, 0, 74, 37
1, 372639, Note_off_c, 0, 62, 43
1, 372668, Note_on_c, 0, 79, 45
1, 372681, Control_c, 0, 64, 72
1, 372853, Note_on_c, 0, 77, 50
1, 373006, Note_off_c, 0, 79, 33
1, 373085, Note_off_c, 0, 77, 35
1, 373209, Note_on_c, 0, 76, 45
1, 373220, Note_on_c, 0, 72, 43
1, 373222, Control_c, 0, 64, 71
1, 373238, Control_c, 0, 64, 67
1, 373252, Control_c, 0, 64, 60
1, 373267, Control_c, 0, 64, 46
1, 373282, Control_c, 0, 64, 17
1, 373296, Control_c, 0, 64, 0
1, 373459, Control_c, 0, 64, 11
1, 373474, Control_c, 0, 64, 22
1, 373489, Control_c, 0, 64, 30
1, 373503, Control_c, 0, 64, 38
1, 373518, Control_c, 0, 64, 47
1, 373533, Control_c, 0, 64, 56
1, 373548, Control_c, 0, 64, 61
1, 373563, Control_c, 0, 64, 63
1, 373578, Control_c, 0, 64, 63
1, 373593, Control_c, 0, 64, 64
1, 373608, Control_c, 0, 64, 66
1, 373623, Control_c, 0, 64, 68
1, 373638, Control_c, 0, 64, 69
1, 373652, Control_c, 0, 64, 70
1, 373659, Note_on_c, 0, 88, 60
1, 373667, Control_c, 0, 64, 70
1, 373679, Note_on_c, 0, 84, 34
1, 373859, Control_c, 0, 64, 70
1, 373926, Control_c, 0, 64, 69
1, 374031, Control_c, 0, 64, 69
1, 374046, Control_c, 0, 64, 68
1, 374061, Control_c, 0, 64, 66
1, 374075, Control_c, 0, 64, 62
1, 374089, Note_on_c, 0, 86, 64
1, 374090, Control_c, 0, 64, 55
1, 374097, Note_on_c, 0, 74, 44
1, 374100, Note_on_c, 0, 83, 38
1, 374102, Note_on_c, 0, 68, 44
1, 374102, Note_on_c, 0, 71, 21
1, 374105, Control_c, 0, 64, 41
1, 374108, Note_on_c, 0, 77, 30
1, 374119, Control_c, 0, 64, 15
1, 374127, Note_off_c, 0, 72, 44
1, 374134, Control_c, 0, 64, 0
1, 374138, Note_off_c, 0, 84, 44
1, 374156, Note_off_c, 0, 68, 0
1, 374156, Note_on_c, 0, 68, 4
1, 374163, Note_off_c, 0, 83, 40
1, 374165, Note_off_c, 0, 88, 50
1, 374179, Control_c, 0, 64, 15
1, 374194, Control_c, 0, 64, 24
1, 374208, Control_c, 0, 64, 37
1, 374223, Control_c, 0, 64, 50
1, 374238, Control_c, 0, 64, 61
1, 374253, Control_c, 0, 64, 67
1, 374263, Note_off_c, 0, 77, 39
1, 374265, Note_off_c, 0, 76, 36
1, 374267, Control_c, 0, 64, 68
1, 374348, Note_off_c, 0, 68, 38
1, 374431, Control_c, 0, 64, 66
1, 374445, Control_c, 0, 64, 63
1, 374460, Control_c, 0, 64, 57
1, 374475, Control_c, 0, 64, 44
1, 374476, Note_on_c, 0, 69, 45
1, 374480, Note_on_c, 0, 84, 63
1, 374484, Note_on_c, 0, 81, 48
1, 374484, Note_on_c, 0, 72, 50
1, 374490, Control_c, 0, 64, 20
1, 374498, Note_on_c, 0, 76, 37
1, 374498, Note_off_c, 0, 71, 40
1, 374505, Control_c, 0, 64, 0
1, 374523, Note_off_c, 0, 86, 52
1, 374544, Note_off_c, 0, 74, 37
1, 374549, Control_c, 0, 64, 16
1, 374564, Control_c, 0, 64, 28
1, 374579, Control_c, 0, 64, 40
1, 374593, Control_c, 0, 64, 54
1, 374599, Note_off_c, 0, 69, 63
1, 374608, Control_c, 0, 64, 64
1, 374623, Control_c, 0, 64, 69
1, 374645, Control_c, 0, 64, 70
1, 374683, Note_off_c, 0, 76, 46
1, 374684, Note_off_c, 0, 81, 45
1, 374824, Control_c, 0, 64, 69
1, 374854, Control_c, 0, 64, 69
1, 374868, Control_c, 0, 64, 68
1, 374898, Control_c, 0, 64, 68
1, 374913, Control_c, 0, 64, 67
1, 374928, Control_c, 0, 64, 65
1, 374942, Control_c, 0, 64, 63
1, 374952, Note_on_c, 0, 83, 59
1, 374956, Note_on_c, 0, 80, 48
1, 374957, Control_c, 0, 64, 57
1, 374967, Note_on_c, 0, 71, 40
1, 374968, Note_on_c, 0, 64, 35
1, 374970, Note_on_c, 0, 74, 34
1, 374972, Control_c, 0, 64, 42
1, 374976, Note_on_c, 0, 68, 40
1, 374987, Control_c, 0, 64, 21
1, 375002, Control_c, 0, 64, 0
1, 375020, Note_off_c, 0, 84, 50
1, 375049, Note_off_c, 0, 72, 38
1, 375209, Control_c, 0, 64, 9
1, 375223, Control_c, 0, 64, 16
1, 375238, Control_c, 0, 64, 24
1, 375253, Control_c, 0, 64, 32
1, 375268, Control_c, 0, 64, 39
1, 375283, Control_c, 0, 64, 45
1, 375298, Control_c, 0, 64, 52
1, 375313, Control_c, 0, 64, 56
1, 375328, Control_c, 0, 64, 59
1, 375342, Control_c, 0, 64, 61
1, 375357, Control_c, 0, 64, 63
1, 375372, Control_c, 0, 64, 65
1, 375394, Control_c, 0, 64, 66
1, 375409, Control_c, 0, 64, 67
1, 375414, Note_off_c, 0, 80, 37
1, 375423, Control_c, 0, 64, 68
1, 375438, Control_c, 0, 64, 68
1, 375453, Note_off_c, 0, 74, 41
1, 375453, Control_c, 0, 64, 69
1, 375677, Control_c, 0, 64, 68
1, 375884, Control_c, 0, 64, 68
1, 375958, Control_c, 0, 64, 67
1, 375987, Control_c, 0, 64, 67
1, 375995, Note_on_c, 0, 81, 49
1, 376010, Note_on_c, 0, 65, 37
1, 376016, Note_on_c, 0, 72, 34
1, 376017, Control_c, 0, 64, 66
1, 376019, Note_on_c, 0, 69, 35
1, 376032, Control_c, 0, 64, 64
1, 376046, Control_c, 0, 64, 60
1, 376061, Control_c, 0, 64, 49
1, 376065, Note_off_c, 0, 68, 37
1, 376076, Control_c, 0, 64, 30
1, 376091, Control_c, 0, 64, 0
1, 376097, Note_off_c, 0, 69, 0
1, 376097, Note_on_c, 0, 69, 9
1, 376099, Note_off_c, 0, 72, 0
1, 376099, Note_on_c, 0, 72, 5
1, 376105, Note_off_c, 0, 83, 36
1, 376115, Note_off_c, 0, 64, 38
1, 376157, Note_off_c, 0, 71, 48
1, 376261, Control_c, 0, 64, 9
1, 376276, Control_c, 0, 64, 19
1, 376291, Control_c, 0, 64, 27
1, 376306, Control_c, 0, 64, 35
1, 376321, Control_c, 0, 64, 45
1, 376336, Control_c, 0, 64, 54
1, 376351, Control_c, 0, 64, 61
1, 376365, Control_c, 0, 64, 64
1, 376380, Control_c, 0, 64, 65
1, 376395, Note_off_c, 0, 65, 46
1, 376395, Control_c, 0, 64, 66
1, 376410, Control_c, 0, 64, 69
1, 376426, Control_c, 0, 64, 71
1, 376441, Control_c, 0, 64, 73
1, 376456, Control_c, 0, 64, 75
1, 376470, Control_c, 0, 64, 76
1, 376485, Control_c, 0, 64, 77
1, 376500, Control_c, 0, 64, 77
1, 376524, Note_off_c, 0, 72, 34
1, 376566, Note_off_c, 0, 69, 41
1, 377054, Control_c, 0, 64, 77
1, 377128, Control_c, 0, 64, 76
1, 377233, Control_c, 0, 64, 76
1, 377248, Control_c, 0, 64, 75
1, 377260, Note_on_c, 0, 79, 44
1, 377262, Control_c, 0, 64, 71
1, 377271, Note_on_c, 0, 60, 37
1, 377275, Note_on_c, 0, 55, 34
1, 377277, Control_c, 0, 64, 65
1, 377282, Note_on_c, 0, 64, 25
1, 377286, Note_on_c, 0, 72, 30
1, 377289, Note_on_c, 0, 76, 31
1, 377292, Control_c, 0, 64, 59
1, 377307, Control_c, 0, 64, 47
1, 377322, Control_c, 0, 64, 28
1, 377337, Control_c, 0, 64, 0
1, 377441, Control_c, 0, 64, 19
1, 377456, Control_c, 0, 64, 34
1, 377470, Control_c, 0, 64, 47
1, 377483, Note_off_c, 0, 81, 39
1, 377485, Control_c, 0, 64, 59
1, 377500, Control_c, 0, 64, 65
1, 377515, Control_c, 0, 64, 68
1, 377519, Note_off_c, 0, 64, 40
1, 377544, Control_c, 0, 64, 68
1, 377551, Note_off_c, 0, 76, 43
1, 377559, Control_c, 0, 64, 69
1, 377568, Note_off_c, 0, 72, 42
1, 377715, Control_c, 0, 64, 69
1, 377730, Control_c, 0, 64, 68
1, 377744, Control_c, 0, 64, 67
1, 377752, Note_on_c, 0, 74, 50
1, 377757, Note_on_c, 0, 77, 61
1, 377759, Note_on_c, 0, 65, 57
1, 377764, Note_on_c, 0, 62, 51
1, 377789, Control_c, 0, 64, 67
1, 377803, Control_c, 0, 64, 65
1, 377817, Control_c, 0, 64, 63
1, 377832, Control_c, 0, 64, 60
1, 377847, Control_c, 0, 64, 57
1, 377862, Control_c, 0, 64, 54
1, 377876, Control_c, 0, 64, 50
1, 377891, Control_c, 0, 64, 46
1, 377906, Control_c, 0, 64, 42
1, 377921, Control_c, 0, 64, 37
1, 377936, Control_c, 0, 64, 29
1, 377951, Control_c, 0, 64, 21
1, 377966, Control_c, 0, 64, 0
1, 377974, Note_off_c, 0, 60, 44
1, 378196, Note_on_c, 0, 81, 82
1, 378950, Note_on_c, 0, 83, 47
1, 379143, Note_off_c, 0, 81, 36
1, 379175, Note_off_c, 0, 79, 35
1, 379463, Control_c, 0, 64, 17
1, 379478, Control_c, 0, 64, 26
1, 379493, Control_c, 0, 64, 35
1, 379507, Control_c, 0, 64, 43
1, 379522, Control_c, 0, 64, 51
1, 379537, Control_c, 0, 64, 56
1, 379552, Control_c, 0, 64, 59
1, 379567, Control_c, 0, 64, 60
1, 379582, Control_c, 0, 64, 62
1, 379596, Control_c, 0, 64, 65
1, 379612, Control_c, 0, 64, 69
1, 379627, Control_c, 0, 64, 73
1, 379642, Control_c, 0, 64, 77
1, 379656, Control_c, 0, 64, 81
1, 379671, Control_c, 0, 64, 85
1, 379686, Control_c, 0, 64, 88
1, 379701, Control_c, 0, 64, 92
1, 379716, Control_c, 0, 64, 95
1, 379731, Control_c, 0, 64, 96
1, 379746, Control_c, 0, 64, 98
1, 379751, Note_off_c, 0, 65, 32
1, 379760, Control_c, 0, 64, 98
1, 379775, Control_c, 0, 64, 99
1, 379790, Control_c, 0, 64, 101
1, 379805, Control_c, 0, 64, 103
1, 379820, Control_c, 0, 64, 104
1, 379930, Note_off_c, 0, 83, 44
1, 379939, Note_off_c, 0, 62, 40
1, 379990, Note_off_c, 0, 77, 36
1, 380005, Control_c, 0, 64, 103
1, 380020, Control_c, 0, 64, 103
1, 380023, Note_off_c, 0, 55, 32
1, 380035, Control_c, 0, 64, 101
1, 380050, Control_c, 0, 64, 101
1, 380064, Control_c, 0, 64, 100
1, 380079, Control_c, 0, 64, 99
1, 380090, Note_off_c, 0, 74, 38
1, 380094, Control_c, 0, 64, 99
1, 380109, Control_c, 0, 64, 98
1, 380124, Control_c, 0, 64, 97
1, 380138, Control_c, 0, 64, 96
1, 380153, Control_c, 0, 64, 95
1, 380183, Control_c, 0, 64, 95
1, 380198, Control_c, 0, 64, 94
1, 380212, Control_c, 0, 64, 93
1, 380286, Control_c, 0, 64, 93
1, 380316, Control_c, 0, 64, 92
1, 380330, Control_c, 0, 64, 92
1, 380375, Control_c, 0, 64, 91
1, 380389, Control_c, 0, 64, 91
1, 380435, Control_c, 0, 64, 90
1, 380479, Control_c, 0, 64, 90
1, 380553, Control_c, 0, 64, 89
1, 380739, Control_c, 0, 64, 89
1, 380798, Control_c, 0, 64, 88
1, 380872, Control_c, 0, 64, 88
1, 380932, Control_c, 0, 64, 87
1, 381065, Control_c, 0, 64, 87
1, 381332, Control_c, 0, 64, 86
1, 381414, Control_c, 0, 64, 86
1, 381458, Control_c, 0, 64, 85
1, 381503, Control_c, 0, 64, 85
1, 381532, Control_c, 0, 64, 84
1, 381562, Control_c, 0, 64, 84
1, 381577, Control_c, 0, 64, 83
1, 381591, Control_c, 0, 64, 82
1, 381606, Control_c, 0, 64, 78
1, 381618, Note_on_c, 0, 67, 49
1, 381620, Note_on_c, 0, 43, 35
1, 381620, Note_on_c, 0, 60, 37
1, 381620, Note_on_c, 0, 64, 33
1, 381621, Control_c, 0, 64, 71
1, 381628, Note_on_c, 0, 52, 32
1, 381630, Note_on_c, 0, 48, 33
1, 381635, Control_c, 0, 64, 65
1, 381650, Control_c, 0, 64, 60
1, 381665, Control_c, 0, 64, 48
1, 381680, Control_c, 0, 64, 31
1, 381695, Control_c, 0, 64, 0
1, 381814, Control_c, 0, 64, 17
1, 381828, Control_c, 0, 64, 33
1, 381843, Control_c, 0, 64, 46
1, 381858, Control_c, 0, 64, 59
1, 381873, Control_c, 0, 64, 64
1, 381888, Control_c, 0, 64, 65
1, 381889, Note_off_c, 0, 64, 42
1, 381907, Note_off_c, 0, 52, 43
1, 381929, Note_off_c, 0, 60, 41
1, 382096, Control_c, 0, 64, 64
1, 382108, Note_on_c, 0, 65, 68
1, 382112, Note_on_c, 0, 62, 57
1, 382115, Note_on_c, 0, 53, 54
1, 382121, Note_on_c, 0, 50, 55
1, 382133, Control_c, 0, 64, 64
1, 382148, Control_c, 0, 64, 63
1, 382163, Control_c, 0, 64, 60
1, 382178, Control_c, 0, 64, 57
1, 382193, Control_c, 0, 64, 52
1, 382207, Control_c, 0, 64, 46
1, 382222, Control_c, 0, 64, 39
1, 382237, Control_c, 0, 64, 31
1, 382252, Control_c, 0, 64, 25
1, 382266, Control_c, 0, 64, 15
1, 382281, Control_c, 0, 64, 0
1, 382333, Note_off_c, 0, 48, 42
1, 383895, Note_on_c, 0, 68, 78
1, 384263, Note_off_c, 0, 67, 36
1, 385785, Note_on_c, 0, 71, 50
1, 386194, Note_off_c, 0, 68, 33
1, 386894, Control_c, 0, 64, 14
1, 386909, Control_c, 0, 64, 19
1, 386923, Control_c, 0, 64, 23
1, 386938, Control_c, 0, 64, 26
1, 386953, Control_c, 0, 64, 33
1, 386968, Control_c, 0, 64, 39
1, 386983, Control_c, 0, 64, 45
1, 386997, Control_c, 0, 64, 50
1, 387012, Control_c, 0, 64, 55
1, 387027, Control_c, 0, 64, 58
1, 387042, Control_c, 0, 64, 60
1, 387056, Control_c, 0, 64, 62
1, 387071, Control_c, 0, 64, 65
1, 387086, Control_c, 0, 64, 71
1, 387101, Control_c, 0, 64, 79
1, 387116, Control_c, 0, 64, 87
1, 387130, Control_c, 0, 64, 92
1, 387145, Control_c, 0, 64, 97
1, 387160, Control_c, 0, 64, 105
1, 387174, Control_c, 0, 64, 119
1, 387189, Control_c, 0, 64, 127
1, 387201, Note_off_c, 0, 53, 36
1, 387219, Note_off_c, 0, 71, 34
1, 387320, Note_off_c, 0, 65, 41
1, 387344, Note_off_c, 0, 62, 40
1, 387384, Note_off_c, 0, 50, 39
1, 387434, Note_off_c, 0, 43, 36
1, 387997, Control_c, 0, 64, 122
1, 388012, Control_c, 0, 64, 119
1, 388041, Control_c, 0, 64, 117
1, 388086, Control_c, 0, 64, 115
1, 388116, Control_c, 0, 64, 114
1, 388152, Control_c, 0, 64, 113
1, 388182, Control_c, 0, 64, 111
1, 388211, Control_c, 0, 64, 110
1, 388271, Control_c, 0, 64, 109
1, 388301, Control_c, 0, 64, 108
1, 388345, Control_c, 0, 64, 108
1, 388360, Control_c, 0, 64, 107
1, 388375, Control_c, 0, 64, 106
1, 388405, Control_c, 0, 64, 105
1, 388435, Control_c, 0, 64, 105
1, 388465, Control_c, 0, 64, 104
1, 388509, Control_c, 0, 64, 103
1, 388554, Control_c, 0, 64, 103
1, 388568, Control_c, 0, 64, 102
1, 388598, Control_c, 0, 64, 101
1, 388627, Control_c, 0, 64, 101
1, 388642, Control_c, 0, 64, 100
1, 388657, Control_c, 0, 64, 100
1, 388672, Control_c, 0, 64, 99
1, 388701, Control_c, 0, 64, 99
1, 388716, Control_c, 0, 64, 98
1, 388731, Control_c, 0, 64, 98
1, 388746, Note_on_c, 0, 55, 47
1, 388746, Control_c, 0, 64, 97
1, 388752, Note_on_c, 0, 52, 39
1, 388754, Note_on_c, 0, 48, 36
1, 388757, Note_on_c, 0, 31, 31
1, 388759, Note_on_c, 0, 40, 32
1, 388761, Control_c, 0, 64, 96
1, 388766, Note_on_c, 0, 36, 33
1, 388775, Control_c, 0, 64, 92
1, 388790, Control_c, 0, 64, 83
1, 388805, Control_c, 0, 64, 73
1, 388819, Control_c, 0, 64, 64
1, 388834, Control_c, 0, 64, 54
1, 388849, Control_c, 0, 64, 38
1, 388872, Control_c, 0, 64, 0
1, 389034, Control_c, 0, 64, 23
1, 389049, Control_c, 0, 64, 36
1, 389064, Control_c, 0, 64, 47
1, 389079, Control_c, 0, 64, 58
1, 389094, Control_c, 0, 64, 64
1, 389109, Control_c, 0, 64, 66
1, 389123, Control_c, 0, 64, 66
1, 389129, Note_off_c, 0, 52, 41
1, 389138, Control_c, 0, 64, 67
1, 389153, Control_c, 0, 64, 68
1, 389168, Control_c, 0, 64, 68
1, 389173, Note_off_c, 0, 40, 40
1, 389177, Note_off_c, 0, 48, 35
1, 389183, Control_c, 0, 64, 69
1, 389258, Control_c, 0, 64, 69
1, 389406, Control_c, 0, 64, 69
1, 389419, Note_on_c, 0, 53, 60
1, 389420, Note_on_c, 0, 41, 46
1, 389421, Control_c, 0, 64, 68
1, 389422, Note_on_c, 0, 38, 48
1, 389426, Note_on_c, 0, 50, 49
1, 389436, Control_c, 0, 64, 68
1, 389450, Control_c, 0, 64, 67
1, 389465, Control_c, 0, 64, 67
1, 389480, Control_c, 0, 64, 65
1, 389495, Control_c, 0, 64, 63
1, 389510, Control_c, 0, 64, 61
1, 389524, Control_c, 0, 64, 57
1, 389539, Control_c, 0, 64, 50
1, 389554, Control_c, 0, 64, 40
1, 389568, Control_c, 0, 64, 30
1, 389583, Control_c, 0, 64, 23
1, 389598, Control_c, 0, 64, 19
1, 389621, Control_c, 0, 64, 14
1, 389636, Control_c, 0, 64, 0
1, 389677, Note_off_c, 0, 36, 40
1, 391703, Note_on_c, 0, 57, 64
1, 394324, Note_on_c, 0, 59, 39
1, 394583, Note_off_c, 0, 57, 40
1, 394907, Note_off_c, 0, 50, 1
1, 395365, Control_c, 0, 64, 8
1, 395380, Control_c, 0, 64, 14
1, 395395, Control_c, 0, 64, 20
1, 395410, Control_c, 0, 64, 27
1, 395425, Control_c, 0, 64, 34
1, 395440, Control_c, 0, 64, 38
1, 395454, Control_c, 0, 64, 44
1, 395469, Control_c, 0, 64, 48
1, 395484, Control_c, 0, 64, 52
1, 395499, Control_c, 0, 64, 55
1, 395513, Control_c, 0, 64, 58
1, 395528, Control_c, 0, 64, 62
1, 395543, Control_c, 0, 64, 64
1, 395558, Control_c, 0, 64, 66
1, 395573, Control_c, 0, 64, 67
1, 395589, Control_c, 0, 64, 68
1, 395601, Note_off_c, 0, 31, 10
1, 395604, Control_c, 0, 64, 70
1, 395625, Control_c, 0, 64, 71
1, 395640, Control_c, 0, 64, 72
1, 395655, Control_c, 0, 64, 73
1, 395670, Control_c, 0, 64, 74
1, 395685, Control_c, 0, 64, 75
1, 395693, Note_off_c, 0, 55, 32
1, 395739, Note_off_c, 0, 41, 40
1, 395815, Note_off_c, 0, 53, 30
1, 395833, Control_c, 0, 64, 74
1, 395856, Note_off_c, 0, 59, 36
1, 395874, Note_off_c, 0, 38, 35
1, 395907, Control_c, 0, 64, 74
1, 396025, Control_c, 0, 64, 73
1, 396218, Control_c, 0, 64, 73
1, 396612, Control_c, 0, 67, 9
1, 396627, Control_c, 0, 67, 11
1, 396641, Control_c, 0, 67, 14
1, 396656, Control_c, 0, 67, 18
1, 396671, Control_c, 0, 67, 22
1, 396686, Control_c, 0, 67, 28
1, 396701, Control_c, 0, 67, 32
1, 396716, Control_c, 0, 67, 37
1, 396731, Control_c, 0, 67, 41
1, 396746, Control_c, 0, 67, 45
1, 396760, Control_c, 0, 67, 49
1, 396775, Control_c, 0, 67, 52
1, 396790, Control_c, 0, 67, 55
1, 396805, Control_c, 0, 67, 57
1, 396820, Control_c, 0, 64, 72
1, 396820, Control_c, 0, 67, 59
1, 396834, Control_c, 0, 64, 66
1, 396834, Control_c, 0, 67, 62
1, 396849, Control_c, 0, 64, 58
1, 396849, Control_c, 0, 67, 64
1, 396864, Control_c, 0, 64, 37
1, 396864, Control_c, 0, 67, 69
1, 396878, Control_c, 0, 64, 0
1, 396878, Control_c, 0, 67, 76
1, 396893, Control_c, 0, 67, 84
1, 396895, Note_on_c, 0, 60, 51
1, 396900, Note_on_c, 0, 52, 45
1, 396904, Note_on_c, 0, 36, 52
1, 396908, Control_c, 0, 64, 14
1, 396908, Control_c, 0, 67, 94
1, 396912, Note_on_c, 0, 48, 49
1, 396923, Control_c, 0, 64, 32
1, 396923, Control_c, 0, 67, 105
1, 396927, Note_off_c, 0, 52, 58
1, 396929, Note_off_c, 0, 60, 66
1, 396932, Note_off_c, 0, 36, 57
1, 396938, Control_c, 0, 64, 46
1, 396938, Control_c, 0, 67, 117
1, 396939, Note_off_c, 0, 48, 61
1, 396952, Control_c, 0, 64, 59
1, 396952, Control_c, 0, 67, 127
1, 396967, Control_c, 0, 64, 63
1, 396982, Control_c, 0, 64, 64
1, 396997, Control_c, 0, 64, 63
1, 397012, Control_c, 0, 64, 62
1, 397026, Control_c, 0, 64, 56
1, 397041, Control_c, 0, 64, 40
1, 397049, Note_on_c, 0, 48, 58
1, 397049, Note_on_c, 0, 64, 63
1, 397056, Note_on_c, 0, 60, 49
1, 397056, Control_c, 0, 64, 0
1, 397066, Note_on_c, 0, 55, 51
1, 397071, Note_off_c, 0, 64, 63
1, 397078, Note_off_c, 0, 60, 62
1, 397082, Note_off_c, 0, 48, 63
1, 397091, Note_off_c, 0, 55, 59
1, 397179, Note_on_c, 0, 48, 58
1, 397179, Note_on_c, 0, 55, 57
1, 397187, Note_on_c, 0, 60, 45
1, 397191, Note_on_c, 0, 64, 51
1, 397205, Note_off_c, 0, 55, 64
1, 397210, Note_off_c, 0, 48, 65
1, 397212, Note_off_c, 0, 60, 59
1, 397214, Note_off_c, 0, 64, 59
1, 397301, Note_on_c, 0, 48, 62
1, 397312, Note_on_c, 0, 55, 48
1, 397312, Note_on_c, 0, 60, 51
1, 397312, Note_on_c, 0, 64, 54
1, 397332, Note_off_c, 0, 48, 65
1, 397339, Note_off_c, 0, 55, 59
1, 397343, Note_off_c, 0, 60, 59
1, 397345, Note_off_c, 0, 64, 63
1, 397432, Note_on_c, 0, 55, 55
1, 397439, Note_on_c, 0, 48, 50
1, 397440, Note_on_c, 0, 64, 52
1, 397451, Note_on_c, 0, 60, 36
1, 397464, Note_off_c, 0, 48, 60
1, 397465, Note_off_c, 0, 55, 65
1, 397467, Note_off_c, 0, 64, 57
1, 397478, Note_off_c, 0, 60, 53
1, 397562, Note_on_c, 0, 48, 51
1, 397568, Note_on_c, 0, 55, 49
1, 397570, Note_on_c, 0, 64, 49
1, 397571, Note_on_c, 0, 60, 47
1, 397592, Note_off_c, 0, 48, 65
1, 397598, Note_off_c, 0, 55, 62
1, 397598, Note_off_c, 0, 60, 58
1, 397598, Note_off_c, 0, 64, 57
1, 397697, Note_on_c, 0, 48, 58
1, 397699, Note_on_c, 0, 60, 55
1, 397700, Note_on_c, 0, 55, 48
1, 397701, Note_on_c, 0, 64, 53
1, 397725, Note_off_c, 0, 48, 65
1, 397726, Note_off_c, 0, 55, 60
1, 397726, Note_off_c, 0, 64, 60
1, 397729, Note_off_c, 0, 60, 61
1, 397819, Note_on_c, 0, 48, 63
1, 397826, Note_on_c, 0, 55, 49
1, 397830, Note_on_c, 0, 64, 51
1, 397832, Note_on_c, 0, 60, 51
1, 397847, Note_off_c, 0, 48, 65
1, 397858, Note_off_c, 0, 55, 63
1, 397865, Note_off_c, 0, 60, 58
1, 397866, Note_off_c, 0, 64, 57
1, 397959, Note_on_c, 0, 55, 50
1, 397961, Note_on_c, 0, 48, 57
1, 397965, Note_on_c, 0, 60, 49
1, 397970, Note_on_c, 0, 64, 49
1, 397991, Note_off_c, 0, 48, 66
1, 397991, Note_off_c, 0, 55, 66
1, 397997, Note_off_c, 0, 60, 59
1, 398003, Note_off_c, 0, 64, 58
1, 398090, Note_on_c, 0, 48, 62
1, 398096, Note_on_c, 0, 55, 51
1, 398097, Note_on_c, 0, 64, 54
1, 398101, Note_on_c, 0, 60, 45
1, 398119, Note_off_c, 0, 48, 66
1, 398120, Note_off_c, 0, 55, 62
1, 398126, Note_off_c, 0, 60, 58
1, 398131, Note_off_c, 0, 64, 63
1, 398221, Note_on_c, 0, 55, 56
1, 398223, Note_on_c, 0, 48, 60
1, 398226, Note_on_c, 0, 60, 46
1, 398226, Note_on_c, 0, 64, 57
1, 398251, Note_off_c, 0, 48, 66
1, 398251, Note_off_c, 0, 55, 67
1, 398257, Note_off_c, 0, 60, 58
1, 398260, Note_off_c, 0, 64, 63
1, 398352, Note_on_c, 0, 55, 59
1, 398352, Note_on_c, 0, 48, 60
1, 398363, Note_on_c, 0, 64, 51
1, 398365, Note_on_c, 0, 60, 42
1, 398380, Note_off_c, 0, 55, 67
1, 398382, Note_off_c, 0, 48, 65
1, 398391, Note_off_c, 0, 60, 58
1, 398393, Note_off_c, 0, 64, 56
1, 398480, Note_on_c, 0, 48, 61
1, 398487, Note_on_c, 0, 55, 50
1, 398491, Note_on_c, 0, 64, 46
1, 398492, Note_on_c, 0, 60, 42
1, 398511, Note_off_c, 0, 48, 65
1, 398512, Note_off_c, 0, 55, 62
1, 398521, Note_off_c, 0, 60, 58
1, 398526, Note_off_c, 0, 64, 57
1, 398620, Note_on_c, 0, 55, 57
1, 398625, Note_on_c, 0, 60, 49
1, 398630, Note_on_c, 0, 48, 50
1, 398634, Note_on_c, 0, 64, 49
1, 398651, Note_off_c, 0, 55, 67
1, 398653, Note_off_c, 0, 60, 57
1, 398654, Note_off_c, 0, 48, 59
1, 398661, Note_off_c, 0, 64, 58
1, 398750, Note_on_c, 0, 48, 56
1, 398755, Note_on_c, 0, 66, 61
1, 398761, Note_on_c, 0, 57, 52
1, 398779, Note_on_c, 0, 62, 24
1, 398782, Note_off_c, 0, 66, 58
1, 398784, Note_off_c, 0, 48, 65
1, 398785, Note_off_c, 0, 57, 58
1, 398818, Note_off_c, 0, 62, 53
1, 398879, Note_on_c, 0, 66, 62
1, 398883, Note_on_c, 0, 57, 52
1, 398894, Note_on_c, 0, 48, 51
1, 398915, Note_off_c, 0, 57, 63
1, 398916, Note_off_c, 0, 66, 64
1, 398918, Note_off_c, 0, 48, 58
1, 399019, Note_on_c, 0, 67, 64
1, 399026, Note_on_c, 0, 47, 61
1, 399034, Note_on_c, 0, 55, 49
1, 399053, Note_off_c, 0, 47, 64
1, 399058, Note_on_c, 0, 50, 13
1, 399060, Note_off_c, 0, 55, 59
1, 399103, Note_off_c, 0, 50, 28
1, 399115, Note_off_c, 0, 67, 41
1, 399151, Note_on_c, 0, 47, 51
1, 399151, Note_on_c, 0, 55, 54
1, 399156, Note_on_c, 0, 71, 64
1, 399178, Note_off_c, 0, 55, 60
1, 399178, Note_off_c, 0, 47, 58
1, 399206, Note_on_c, 0, 69, 65
1, 399235, Note_off_c, 0, 71, 59
1, 399264, Note_on_c, 0, 67, 68
1, 399266, Note_off_c, 0, 69, 66
1, 399271, Note_on_c, 0, 47, 51
1, 399289, Note_on_c, 0, 55, 38
1, 399289, Note_off_c, 0, 67, 68
1, 399301, Note_off_c, 0, 47, 62
1, 399305, Note_on_c, 0, 50, 19
1, 399324, Note_off_c, 0, 55, 53
1, 399356, Note_off_c, 0, 50, 39
1, 399398, Note_on_c, 0, 47, 56
1, 399418, Note_on_c, 0, 55, 48
1, 399428, Note_off_c, 0, 47, 60
1, 399443, Note_off_c, 0, 55, 59
1, 399533, Note_on_c, 0, 72, 84
1, 399541, Note_on_c, 0, 55, 62
1, 399549, Note_on_c, 0, 46, 60
1, 399553, Note_on_c, 0, 48, 50
1, 399562, Note_off_c, 0, 55, 65
1, 399582, Note_off_c, 0, 48, 58
1, 399583, Note_off_c, 0, 46, 66
1, 399642, Note_off_c, 0, 72, 55
1, 399671, Note_on_c, 0, 48, 56
1, 399673, Note_on_c, 0, 76, 80
1, 399676, Note_on_c, 0, 55, 45
1, 399687, Note_on_c, 0, 46, 47
1, 399703, Note_off_c, 0, 55, 60
1, 399706, Note_off_c, 0, 48, 63
1, 399714, Note_off_c, 0, 46, 60
1, 399732, Note_on_c, 0, 74, 72
1, 399756, Note_off_c, 0, 76, 65
1, 399784, Control_c, 0, 67, 124
1, 399795, Note_on_c, 0, 72, 91
1, 399797, Note_on_c, 0, 46, 57
1, 399797, Note_off_c, 0, 74, 62
1, 399799, Note_on_c, 0, 55, 61
1, 399799, Control_c, 0, 67, 121
1, 399813, Note_on_c, 0, 48, 49
1, 399814, Control_c, 0, 67, 119
1, 399829, Note_off_c, 0, 55, 65
1, 399829, Control_c, 0, 67, 117
1, 399832, Note_off_c, 0, 72, 67
1, 399839, Note_off_c, 0, 46, 65
1, 399842, Note_off_c, 0, 48, 59
1, 399844, Control_c, 0, 67, 114
1, 399858, Control_c, 0, 67, 111
1, 399873, Control_c, 0, 67, 107
1, 399888, Control_c, 0, 67, 101
1, 399902, Control_c, 0, 67, 91
1, 399917, Control_c, 0, 67, 77
1, 399932, Control_c, 0, 67, 63
1, 399944, Note_on_c, 0, 48, 55
1, 399947, Note_on_c, 0, 46, 44
1, 399947, Note_on_c, 0, 55, 51
1, 399947, Control_c, 0, 67, 51
1, 399962, Control_c, 0, 67, 43
1, 399976, Note_off_c, 0, 46, 53
1, 399977, Control_c, 0, 67, 33
1, 399977, Note_off_c, 0, 55, 60
1, 399982, Note_off_c, 0, 48, 61
1, 399992, Control_c, 0, 67, 18
1, 400007, Control_c, 0, 67, 0
1, 400069, Note_on_c, 0, 77, 104
1, 400076, Note_on_c, 0, 45, 71
1, 400083, Note_on_c, 0, 53, 60
1, 400086, Note_on_c, 0, 48, 51
1, 400111, Note_off_c, 0, 45, 64
1, 400114, Note_off_c, 0, 53, 61
1, 400119, Note_off_c, 0, 48, 59
1, 400186, Note_off_c, 0, 77, 54
1, 400214, Note_on_c, 0, 48, 62
1, 400216, Note_on_c, 0, 45, 62
1, 400220, Note_on_c, 0, 53, 55
1, 400224, Note_on_c, 0, 81, 91
1, 400242, Note_off_c, 0, 48, 65
1, 400247, Note_off_c, 0, 45, 64
1, 400250, Note_off_c, 0, 53, 61
1, 400285, Note_on_c, 0, 79, 81
1, 400310, Note_off_c, 0, 81, 63
1, 400341, Note_on_c, 0, 77, 97
1, 400347, Note_on_c, 0, 45, 61
1, 400351, Note_on_c, 0, 53, 53
1, 400351, Note_off_c, 0, 79, 55
1, 400357, Note_on_c, 0, 48, 53
1, 400376, Note_off_c, 0, 45, 65
1, 400379, Note_off_c, 0, 53, 56
1, 400385, Note_off_c, 0, 48, 60
1, 400388, Note_off_c, 0, 77, 65
1, 400474, Note_on_c, 0, 48, 59
1, 400475, Note_on_c, 0, 45, 56
1, 400481, Note_on_c, 0, 53, 63
1, 400513, Note_off_c, 0, 45, 65
1, 400516, Note_off_c, 0, 53, 65
1, 400539, Note_off_c, 0, 48, 62
1, 400610, Note_on_c, 0, 53, 72
1, 400614, Note_on_c, 0, 48, 53
1, 400616, Note_on_c, 0, 89, 94
1, 400621, Note_on_c, 0, 44, 68
1, 400636, Note_off_c, 0, 53, 68
1, 400641, Note_off_c, 0, 48, 62
1, 400657, Note_off_c, 0, 44, 65
1, 400680, Note_on_c, 0, 88, 82
1, 400680, Note_off_c, 0, 89, 66
1, 400749, Note_on_c, 0, 44, 92
1, 400755, Note_off_c, 0, 88, 66
1, 400755, Note_on_c, 0, 89, 80
1, 400763, Note_on_c, 0, 32, 72
1, 400773, Note_off_c, 0, 44, 68
1, 400793, Note_off_c, 0, 32, 64
1, 400816, Note_on_c, 0, 88, 83
1, 400823, Note_off_c, 0, 89, 51
1, 400889, Note_off_c, 0, 88, 61
1, 400901, Note_on_c, 0, 89, 86
1, 400901, Note_on_c, 0, 44, 84
1, 400904, Note_on_c, 0, 32, 68
1, 400923, Note_off_c, 0, 44, 67
1, 400931, Note_off_c, 0, 32, 60
1, 400966, Note_off_c, 0, 89, 63
1, 400975, Note_on_c, 0, 88, 89
1, 401032, Note_on_c, 0, 32, 64
1, 401033, Note_on_c, 0, 44, 77
1, 401035, Note_off_c, 0, 88, 65
1, 401040, Note_on_c, 0, 89, 82
1, 401063, Note_off_c, 0, 44, 65
1, 401066, Note_off_c, 0, 32, 62
1, 401110, Note_on_c, 0, 88, 81
1, 401110, Note_off_c, 0, 89, 67
1, 401148, Note_off_c, 0, 88, 67
1, 401199, Note_on_c, 0, 43, 95
1, 401202, Note_on_c, 0, 89, 110
1, 401208, Note_on_c, 0, 31, 89
1, 401209, Control_c, 0, 64, 36
1, 401224, Control_c, 0, 64, 72
1, 401238, Control_c, 0, 64, 127
1, 401242, Note_off_c, 0, 43, 60
1, 401281, Note_off_c, 0, 31, 58
1, 401303, Note_on_c, 0, 33, 66
1, 401307, Note_on_c, 0, 88, 86
1, 401335, Note_off_c, 0, 89, 64
1, 401366, Note_on_c, 0, 86, 87
1, 401372, Note_on_c, 0, 35, 73
1, 401393, Note_off_c, 0, 33, 63
1, 401394, Note_off_c, 0, 88, 63
1, 401431, Note_on_c, 0, 84, 80
1, 401432, Note_off_c, 0, 86, 62
1, 401433, Note_on_c, 0, 36, 76
1, 401437, Note_off_c, 0, 35, 62
1, 401474, Note_off_c, 0, 84, 64
1, 401479, Note_off_c, 0, 36, 64
1, 401490, Control_c, 0, 64, 69
1, 401505, Control_c, 0, 64, 52
1, 401506, Note_on_c, 0, 83, 90
1, 401509, Note_on_c, 0, 38, 84
1, 401520, Control_c, 0, 64, 0
1, 401572, Note_on_c, 0, 81, 88
1, 401582, Note_on_c, 0, 40, 80
1, 401625, Note_off_c, 0, 83, 64
1, 401634, Note_off_c, 0, 38, 63
1, 401638, Note_on_c, 0, 79, 74
1, 401640, Note_on_c, 0, 41, 74
1, 401661, Note_off_c, 0, 40, 64
1, 401670, Note_off_c, 0, 81, 63
1, 401691, Note_on_c, 0, 43, 78
1, 401693, Note_on_c, 0, 77, 89
1, 401694, Note_off_c, 0, 41, 64
1, 401705, Note_off_c, 0, 79, 61
1, 401732, Note_off_c, 0, 77, 63
1, 401746, Note_off_c, 0, 43, 60
1, 401762, Note_on_c, 0, 76, 90
1, 401775, Note_on_c, 0, 45, 81
1, 401824, Note_on_c, 0, 74, 80
1, 401836, Note_on_c, 0, 47, 74
1, 401869, Note_off_c, 0, 76, 66
1, 401876, Note_off_c, 0, 45, 63
1, 401888, Note_on_c, 0, 72, 74
1, 401898, Note_on_c, 0, 48, 73
1, 401907, Note_off_c, 0, 47, 64
1, 401910, Note_off_c, 0, 74, 66
1, 401935, Note_off_c, 0, 48, 67
1, 401940, Note_on_c, 0, 71, 80
1, 401947, Note_off_c, 0, 72, 63
1, 401952, Note_on_c, 0, 50, 67
1, 401984, Note_off_c, 0, 71, 63
1, 401986, Note_off_c, 0, 50, 66
1, 402013, Note_on_c, 0, 69, 89
1, 402026, Note_on_c, 0, 52, 76
1, 402076, Note_on_c, 0, 67, 86
1, 402081, Note_on_c, 0, 53, 69
1, 402110, Note_off_c, 0, 52, 65
1, 402118, Note_off_c, 0, 69, 64
1, 402129, Note_off_c, 0, 53, 67
1, 402137, Note_on_c, 0, 55, 69
1, 402139, Note_on_c, 0, 65, 73
1, 402167, Note_off_c, 0, 55, 66
1, 402171, Note_off_c, 0, 67, 59
1, 402195, Note_on_c, 0, 64, 81
1, 402202, Note_off_c, 0, 65, 67
1, 402247, Note_off_c, 0, 64, 64
1, 402280, Note_on_c, 0, 62, 99
1, 402281, Note_on_c, 0, 41, 94
1, 402283, Control_c, 0, 64, 38
1, 402297, Control_c, 0, 64, 61
1, 402308, Note_off_c, 0, 41, 68
1, 402311, Note_off_c, 0, 62, 71
1, 402312, Control_c, 0, 64, 127
1, 402439, Control_c, 0, 64, 74
1, 402453, Control_c, 0, 64, 60
1, 402468, Control_c, 0, 64, 37
1, 402483, Control_c, 0, 64, 0
1, 402601, Control_c, 0, 64, 8
1, 402608, Note_on_c, 0, 67, 106
1, 402609, Note_on_c, 0, 71, 90
1, 402612, Note_on_c, 0, 55, 98
1, 402612, Note_on_c, 0, 74, 85
1, 402612, Note_on_c, 0, 79, 95
1, 402615, Note_on_c, 0, 50, 82
1, 402616, Control_c, 0, 64, 51
1, 402617, Note_on_c, 0, 43, 83
1, 402618, Note_on_c, 0, 47, 84
1, 402630, Control_c, 0, 64, 127
1, 402648, Note_off_c, 0, 67, 68
1, 402650, Note_off_c, 0, 43, 64
1, 402658, Note_off_c, 0, 74, 66
1, 402665, Note_off_c, 0, 55, 71
1, 402665, Note_off_c, 0, 71, 66
1, 402666, Note_off_c, 0, 47, 64
1, 402666, Note_off_c, 0, 79, 66
1, 402668, Note_off_c, 0, 50, 64
1, 402928, Control_c, 0, 64, 89
1, 402943, Control_c, 0, 64, 62
1, 402958, Control_c, 0, 64, 32
1, 402973, Control_c, 0, 64, 0
1, 403694, Note_on_c, 0, 64, 102
1, 403694, Note_on_c, 0, 60, 98
1, 403697, Note_on_c, 0, 48, 79
1, 403697, Note_on_c, 0, 67, 95
1, 403697, Note_on_c, 0, 76, 97
1, 403700, Note_on_c, 0, 55, 85
1, 403700, Note_on_c, 0, 72, 88
1, 403703, Note_on_c, 0, 52, 83
1, 403707, Control_c, 0, 64, 14
1, 403722, Control_c, 0, 64, 49
1, 403725, Note_off_c, 0, 48, 70
1, 403728, Note_off_c, 0, 60, 68
1, 403731, Note_off_c, 0, 64, 68
1, 403736, Note_off_c, 0, 55, 68
1, 403737, Control_c, 0, 64, 74
1, 403739, Note_off_c, 0, 52, 68
1, 403742, Note_off_c, 0, 76, 69
1, 403745, Note_off_c, 0, 67, 67
1, 403751, Control_c, 0, 64, 127
1, 403755, Note_off_c, 0, 72, 63
1, 403907, Control_c, 0, 64, 87
1, 403922, Control_c, 0, 64, 65
1, 403937, Control_c, 0, 64, 46
1, 403951, Control_c, 0, 64, 0
1, 404365, Control_c, 0, 64, 41
1, 404366, Note_on_c, 0, 67, 104
1, 404368, Note_on_c, 0, 79, 94
1, 404369, Note_on_c, 0, 55, 99
1, 404369, Note_on_c, 0, 74, 88
1, 404371, Note_on_c, 0, 43, 81
1, 404372, Note_on_c, 0, 71, 86
1, 404374, Note_on_c, 0, 50, 92
1, 404380, Control_c, 0, 64, 70
1, 404384, Note_on_c, 0, 47, 71
1, 404386, Note_on_c, 0, 48, 81
1, 404395, Control_c, 0, 64, 127
1, 404407, Note_off_c, 0, 67, 68
1, 404412, Note_off_c, 0, 48, 69
1, 404412, Note_off_c, 0, 55, 67
1, 404415, Note_off_c, 0, 43, 62
1, 404415, Note_off_c, 0, 47, 67
1, 404420, Note_off_c, 0, 79, 68
1, 404424, Note_off_c, 0, 50, 64
1, 404425, Note_off_c, 0, 71, 65
1, 404426, Note_off_c, 0, 74, 64
1, 404610, Control_c, 0, 64, 80
1, 404625, Control_c, 0, 64, 59
1, 404640, Control_c, 0, 64, 15
1, 404654, Control_c, 0, 64, 0
1, 405089, Note_on_c, 0, 72, 105
1, 405092, Note_on_c, 0, 48, 98
1, 405092, Note_on_c, 0, 84, 100
1, 405094, Note_on_c, 0, 79, 95
1, 405095, Note_on_c, 0, 76, 96
1, 405097, Note_on_c, 0, 36, 86
1, 405098, Control_c, 0, 64, 20
1, 405099, Note_on_c, 0, 43, 90
1, 405101, Note_on_c, 0, 40, 86
1, 405113, Control_c, 0, 64, 52
1, 405128, Control_c, 0, 64, 87
1, 405143, Control_c, 0, 64, 127
1, 405149, Note_off_c, 0, 36, 64
1, 405155, Note_off_c, 0, 72, 67
1, 405157, Note_off_c, 0, 84, 66
1, 405173, Note_off_c, 0, 40, 64
1, 405173, Note_off_c, 0, 43, 62
1, 405174, Note_off_c, 0, 79, 62
1, 405175, Note_off_c, 0, 76, 68
1, 405179, Note_off_c, 0, 48, 66
1, 405581, Control_c, 0, 64, 104
1, 405596, Control_c, 0, 64, 92
1, 405611, Control_c, 0, 64, 86
1, 405626, Control_c, 0, 64, 80
1, 405640, Control_c, 0, 64, 73
1, 405655, Control_c, 0, 64, 66
1, 405670, Control_c, 0, 64, 57
1, 405685, Control_c, 0, 64, 40
1, 405700, Control_c, 0, 64, 0
1, 405775, End_track
0, 0, End_of_file
