0, 0, Header, 0, 1, 384
1, 0, Start_track
1, 0, Title_t, "Etude Op. 10/2--Rui Shi         "
1, 0, Text_t, "2009 Piano-e-Competition audition round"
1, 0, Text_t, "captured January 2009"
1, 0, Text_t, "http://www.piano-e-competition.com/"
1, 0, Text_t, "File processed for distribution by software from Zenph Studios, Inc., http://www.zenph.com"
1, 0, Instrument_name_t, "Yamaha Disklavier Pro Mark IV concert grand piano, model DCFIIISM4PRO"
1, 0, Sequencer_specific, 39, 67, 113, 0, 1, 0, 1, 0, 69, 116, 117, 100, 101, 32, 79, 112, 46, 32, 49, 48, 47, 50, 32, 32, 82, 117, 105, 32, 83, 104, 105, 32, 32, 32, 32, 32, 32, 32, 32, 32
1, 0, Sequencer_specific, 6, 67, 113, 0, 0, 0, 69
1, 0, System_exclusive, 21, 67, 113, 126, 21, 0, 2, 2, 0, 3, 14, 1, 4, 1, 13, 13, 10, 11, 9, 2, 7, 247
1, 0, Sequencer_specific, 5, 67, 123, 12, 2, 1
1, 0, Tempo, 512820
1, 0, Time_signature, 4, 2, 24, 8
1, 0, System_exclusive, 5, 126, 127, 9, 1, 247
1, 1, System_exclusive, 8, 67, 16, 76, 0, 0, 126, 0, 247
1, 2, System_exclusive, 8, 67, 16, 76, 8, 9, 7, 1, 247
1, 3, Control_c, 0, 0, 0
1, 3, Control_c, 1, 0, 0
1, 3, Control_c, 2, 0, 0
1, 3, Control_c, 3, 0, 0
1, 3, Control_c, 4, 0, 0
1, 3, Control_c, 5, 0, 0
1, 3, Control_c, 6, 0, 0
1, 3, Control_c, 7, 0, 0
1, 3, Control_c, 8, 0, 0
1, 3, Control_c, 9, 0, 127
1, 3, Control_c, 10, 0, 0
1, 3, Control_c, 11, 0, 0
1, 3, Control_c, 12, 0, 0
1, 3, Control_c, 13, 0, 0
1, 3, Control_c, 14, 0, 0
1, 3, Control_c, 15, 0, 0
1, 4, Control_c, 0, 32, 0
1, 4, Control_c, 1, 32, 0
1, 4, Control_c, 2, 32, 0
1, 4, Control_c, 3, 32, 0
1, 4, Control_c, 4, 32, 0
1, 4, Control_c, 5, 32, 0
1, 4, Control_c, 6, 32, 0
1, 4, Control_c, 7, 32, 0
1, 4, Control_c, 8, 32, 0
1, 4, Control_c, 9, 32, 0
1, 4, Control_c, 10, 32, 0
1, 4, Control_c, 11, 32, 0
1, 4, Control_c, 12, 32, 0
1, 4, Control_c, 13, 32, 0
1, 4, Control_c, 14, 32, 0
1, 4, Control_c, 15, 32, 0
1, 5, Program_c, 0, 0
1, 5, Program_c, 1, 0
1, 5, Program_c, 2, 0
1, 5, Program_c, 3, 0
1, 5, Program_c, 4, 0
1, 5, Program_c, 5, 0
1, 5, Program_c, 6, 0
1, 5, Program_c, 7, 0
1, 5, Program_c, 8, 0
1, 5, Program_c, 9, 0
1, 5, Program_c, 10, 0
1, 5, Program_c, 11, 0
1, 5, Program_c, 12, 0
1, 5, Program_c, 13, 0
1, 5, Program_c, 14, 0
1, 5, Program_c, 15, 0
1, 6, Control_c, 0, 7, 100
1, 6, Control_c, 1, 7, 100
1, 6, Control_c, 2, 7, 100
1, 6, Control_c, 3, 7, 100
1, 6, Control_c, 4, 7, 100
1, 6, Control_c, 5, 7, 100
1, 6, Control_c, 6, 7, 100
1, 6, Control_c, 7, 7, 100
1, 6, Control_c, 8, 7, 100
1, 6, Control_c, 9, 7, 100
1, 6, Control_c, 10, 7, 100
1, 6, Control_c, 11, 7, 100
1, 6, Control_c, 12, 7, 100
1, 6, Control_c, 13, 7, 100
1, 6, Control_c, 14, 7, 100
1, 6, Control_c, 15, 7, 100
1, 117, Control_c, 0, 67, 15
1, 229, Control_c, 0, 67, 31
1, 341, Control_c, 0, 67, 46
1, 452, Control_c, 0, 67, 63
1, 564, Control_c, 0, 67, 77
1, 676, Control_c, 0, 67, 94
1, 787, Control_c, 0, 67, 108
1, 899, Control_c, 0, 67, 127
1, 1131, Note_on_c, 0, 69, 60
1, 1137, Note_on_c, 0, 60, 32
1, 1148, Note_on_c, 0, 45, 49
1, 1166, Note_off_c, 0, 69, 64
1, 1169, Note_off_c, 0, 60, 48
1, 1175, Note_off_c, 0, 45, 59
1, 1209, Note_on_c, 0, 70, 51
1, 1248, Note_off_c, 0, 70, 63
1, 1265, Note_on_c, 0, 71, 54
1, 1315, Note_off_c, 0, 71, 65
1, 1339, Note_on_c, 0, 72, 59
1, 1407, Note_off_c, 0, 72, 64
1, 1420, Note_on_c, 0, 69, 51
1, 1430, Note_on_c, 0, 64, 27
1, 1431, Note_on_c, 0, 73, 46
1, 1440, Note_on_c, 0, 57, 54
1, 1440, Note_on_c, 0, 60, 53
1, 1442, Note_off_c, 0, 69, 61
1, 1445, Note_on_c, 0, 52, 52
1, 1460, Note_off_c, 0, 73, 60
1, 1463, Note_off_c, 0, 60, 60
1, 1466, Note_off_c, 0, 57, 63
1, 1468, Note_off_c, 0, 64, 45
1, 1469, Note_off_c, 0, 52, 63
1, 1482, Note_on_c, 0, 74, 68
1, 1532, Note_off_c, 0, 74, 55
1, 1563, Note_on_c, 0, 75, 64
1, 1616, Note_off_c, 0, 75, 63
1, 1636, Note_on_c, 0, 76, 56
1, 1708, Note_off_c, 0, 76, 56
1, 1710, Note_on_c, 0, 77, 74
1, 1713, Note_on_c, 0, 69, 64
1, 1719, Note_on_c, 0, 45, 63
1, 1739, Note_off_c, 0, 69, 57
1, 1748, Note_off_c, 0, 45, 65
1, 1781, Note_off_c, 0, 77, 60
1, 1798, Note_on_c, 0, 78, 62
1, 1839, Note_off_c, 0, 78, 66
1, 1869, Note_on_c, 0, 79, 72
1, 1928, Note_off_c, 0, 79, 62
1, 1938, Note_on_c, 0, 80, 66
1, 1981, Note_off_c, 0, 80, 62
1, 2002, Note_on_c, 0, 74, 33
1, 2007, Note_on_c, 0, 81, 76
1, 2010, Note_on_c, 0, 62, 69
1, 2015, Control_c, 0, 67, 117
1, 2018, Note_on_c, 0, 53, 57
1, 2023, Note_on_c, 0, 57, 55
1, 2029, Control_c, 0, 67, 80
1, 2037, Note_off_c, 0, 62, 67
1, 2040, Note_off_c, 0, 74, 51
1, 2044, Control_c, 0, 67, 24
1, 2050, Note_off_c, 0, 57, 63
1, 2052, Note_off_c, 0, 53, 66
1, 2060, Control_c, 0, 67, 0
1, 2070, Note_off_c, 0, 81, 62
1, 2080, Note_on_c, 0, 82, 66
1, 2133, Note_off_c, 0, 82, 64
1, 2149, Note_on_c, 0, 83, 67
1, 2208, Note_off_c, 0, 83, 65
1, 2225, Note_on_c, 0, 84, 64
1, 2283, Note_on_c, 0, 33, 63
1, 2289, Note_on_c, 0, 76, 68
1, 2294, Note_on_c, 0, 85, 73
1, 2297, Note_off_c, 0, 84, 65
1, 2298, Note_on_c, 0, 45, 57
1, 2306, Note_on_c, 0, 81, 64
1, 2313, Note_off_c, 0, 33, 65
1, 2326, Note_off_c, 0, 76, 56
1, 2327, Note_off_c, 0, 45, 65
1, 2335, Note_off_c, 0, 81, 66
1, 2358, Note_off_c, 0, 85, 64
1, 2371, Note_on_c, 0, 86, 72
1, 2434, Note_off_c, 0, 86, 61
1, 2452, Note_on_c, 0, 87, 73
1, 2509, Note_off_c, 0, 87, 66
1, 2524, Note_on_c, 0, 88, 70
1, 2578, Note_on_c, 0, 89, 85
1, 2586, Note_off_c, 0, 88, 65
1, 2587, Note_on_c, 0, 52, 60
1, 2592, Note_on_c, 0, 81, 65
1, 2595, Note_on_c, 0, 57, 53
1, 2595, Note_on_c, 0, 60, 52
1, 2617, Note_off_c, 0, 60, 60
1, 2618, Note_off_c, 0, 57, 60
1, 2619, Note_off_c, 0, 52, 67
1, 2627, Note_off_c, 0, 81, 58
1, 2655, Note_on_c, 0, 88, 74
1, 2694, Note_off_c, 0, 89, 57
1, 2726, Note_off_c, 0, 88, 65
1, 2731, Note_on_c, 0, 87, 65
1, 2757, Note_off_c, 0, 87, 68
1, 2810, Note_on_c, 0, 86, 61
1, 2869, Note_on_c, 0, 76, 57
1, 2875, Note_off_c, 0, 86, 62
1, 2876, Note_on_c, 0, 85, 67
1, 2880, Note_on_c, 0, 57, 51
1, 2891, Note_on_c, 0, 64, 58
1, 2900, Note_off_c, 0, 76, 64
1, 2905, Note_off_c, 0, 57, 62
1, 2911, Note_off_c, 0, 85, 66
1, 2915, Note_on_c, 0, 60, 4
1, 2917, Note_off_c, 0, 64, 60
1, 2955, Note_on_c, 0, 84, 71
1, 2957, Note_off_c, 0, 60, 28
1, 3020, Note_on_c, 0, 83, 67
1, 3050, Note_off_c, 0, 84, 61
1, 3085, Note_on_c, 0, 82, 69
1, 3093, Note_off_c, 0, 83, 64
1, 3129, Note_off_c, 0, 82, 66
1, 3156, Note_on_c, 0, 81, 65
1, 3163, Note_on_c, 0, 76, 46
1, 3167, Note_on_c, 0, 72, 48
1, 3199, Note_off_c, 0, 76, 57
1, 3201, Note_off_c, 0, 72, 55
1, 3227, Note_off_c, 0, 81, 62
1, 3233, Note_on_c, 0, 80, 66
1, 3263, Note_off_c, 0, 80, 64
1, 3302, Note_on_c, 0, 83, 65
1, 3365, Note_on_c, 0, 81, 66
1, 3396, Note_off_c, 0, 83, 60
1, 3437, Note_off_c, 0, 81, 60
1, 3440, Note_on_c, 0, 40, 64
1, 3443, Note_on_c, 0, 80, 66
1, 3458, Note_on_c, 0, 71, 59
1, 3472, Note_off_c, 0, 40, 65
1, 3488, Note_off_c, 0, 80, 62
1, 3523, Note_on_c, 0, 79, 69
1, 3537, Note_off_c, 0, 71, 51
1, 3576, Note_off_c, 0, 79, 61
1, 3582, Note_on_c, 0, 78, 70
1, 3606, Note_off_c, 0, 78, 72
1, 3655, Note_on_c, 0, 77, 71
1, 3731, Note_on_c, 0, 76, 64
1, 3742, Note_on_c, 0, 52, 52
1, 3744, Note_on_c, 0, 59, 55
1, 3744, Note_off_c, 0, 77, 60
1, 3746, Note_on_c, 0, 68, 58
1, 3754, Note_on_c, 0, 62, 32
1, 3758, Note_on_c, 0, 71, 42
1, 3772, Note_off_c, 0, 59, 64
1, 3779, Note_off_c, 0, 52, 66
1, 3788, Note_off_c, 0, 62, 53
1, 3788, Note_off_c, 0, 68, 59
1, 3788, Note_off_c, 0, 71, 58
1, 3805, Note_on_c, 0, 75, 66
1, 3807, Note_off_c, 0, 76, 63
1, 3856, Note_off_c, 0, 75, 59
1, 3866, Note_on_c, 0, 77, 70
1, 3946, Note_on_c, 0, 76, 64
1, 3970, Note_off_c, 0, 77, 57
1, 3996, Note_off_c, 0, 76, 64
1, 4002, Note_on_c, 0, 69, 49
1, 4008, Note_on_c, 0, 75, 61
1, 4027, Note_on_c, 0, 45, 48
1, 4040, Note_off_c, 0, 75, 65
1, 4051, Note_off_c, 0, 69, 56
1, 4054, Note_off_c, 0, 45, 59
1, 4093, Note_on_c, 0, 74, 69
1, 4150, Note_off_c, 0, 74, 66
1, 4159, Note_on_c, 0, 73, 63
1, 4187, Note_off_c, 0, 73, 69
1, 4221, Note_on_c, 0, 72, 73
1, 4283, Note_off_c, 0, 72, 63
1, 4295, Note_on_c, 0, 71, 64
1, 4303, Note_on_c, 0, 52, 60
1, 4315, Note_on_c, 0, 57, 47
1, 4317, Note_on_c, 0, 69, 35
1, 4318, Note_on_c, 0, 64, 28
1, 4322, Note_on_c, 0, 60, 39
1, 4333, Note_off_c, 0, 52, 67
1, 4339, Note_off_c, 0, 57, 59
1, 4345, Note_off_c, 0, 69, 48
1, 4347, Note_off_c, 0, 71, 67
1, 4351, Note_off_c, 0, 60, 51
1, 4364, Note_on_c, 0, 72, 62
1, 4379, Note_off_c, 0, 64, 47
1, 4423, Note_off_c, 0, 72, 63
1, 4440, Note_on_c, 0, 74, 63
1, 4509, Note_off_c, 0, 74, 61
1, 4513, Note_on_c, 0, 72, 62
1, 4572, Note_off_c, 0, 72, 62
1, 4581, Note_on_c, 0, 52, 54
1, 4584, Note_on_c, 0, 64, 48
1, 4590, Note_on_c, 0, 71, 61
1, 4598, Note_on_c, 0, 68, 41
1, 4605, Note_off_c, 0, 52, 62
1, 4625, Note_off_c, 0, 64, 51
1, 4629, Note_off_c, 0, 68, 48
1, 4648, Note_off_c, 0, 71, 64
1, 4661, Note_on_c, 0, 72, 68
1, 4726, Note_off_c, 0, 72, 63
1, 4733, Note_on_c, 0, 71, 65
1, 4794, Note_off_c, 0, 71, 65
1, 4808, Note_on_c, 0, 72, 63
1, 4860, Note_off_c, 0, 72, 63
1, 4862, Note_on_c, 0, 59, 74
1, 4865, Note_on_c, 0, 53, 66
1, 4871, Note_on_c, 0, 69, 61
1, 4872, Note_on_c, 0, 63, 68
1, 4874, Note_on_c, 0, 71, 55
1, 4892, Control_c, 0, 64, 43
1, 4896, Note_off_c, 0, 63, 70
1, 4896, Note_off_c, 0, 69, 61
1, 4906, Control_c, 0, 64, 60
1, 4921, Control_c, 0, 64, 91
1, 4936, Control_c, 0, 64, 127
1, 4944, Note_on_c, 0, 72, 73
1, 4946, Note_off_c, 0, 71, 66
1, 5005, Note_off_c, 0, 72, 62
1, 5023, Note_on_c, 0, 71, 58
1, 5073, Note_off_c, 0, 71, 66
1, 5082, Note_on_c, 0, 72, 65
1, 5129, Note_off_c, 0, 53, 36
1, 5144, Control_c, 0, 64, 78
1, 5144, Note_off_c, 0, 72, 64
1, 5147, Note_on_c, 0, 71, 68
1, 5157, Note_on_c, 0, 64, 47
1, 5159, Control_c, 0, 64, 59
1, 5169, Note_on_c, 0, 52, 62
1, 5173, Control_c, 0, 64, 33
1, 5174, Note_off_c, 0, 59, 53
1, 5175, Note_off_c, 0, 71, 67
1, 5180, Note_on_c, 0, 68, 26
1, 5182, Note_off_c, 0, 64, 56
1, 5188, Control_c, 0, 64, 0
1, 5188, Control_c, 0, 67, 15
1, 5191, Note_off_c, 0, 52, 64
1, 5203, Control_c, 0, 67, 25
1, 5218, Control_c, 0, 67, 40
1, 5220, Note_off_c, 0, 68, 30
1, 5227, Note_on_c, 0, 76, 67
1, 5233, Control_c, 0, 67, 52
1, 5248, Control_c, 0, 67, 65
1, 5263, Control_c, 0, 67, 79
1, 5278, Control_c, 0, 67, 92
1, 5293, Control_c, 0, 67, 106
1, 5299, Note_on_c, 0, 75, 75
1, 5302, Note_off_c, 0, 76, 63
1, 5308, Control_c, 0, 67, 118
1, 5322, Control_c, 0, 67, 127
1, 5375, Note_on_c, 0, 74, 72
1, 5384, Note_off_c, 0, 75, 61
1, 5441, Note_off_c, 0, 74, 65
1, 5445, Note_on_c, 0, 62, 55
1, 5454, Note_on_c, 0, 73, 65
1, 5459, Note_on_c, 0, 68, 50
1, 5477, Note_off_c, 0, 62, 65
1, 5484, Note_off_c, 0, 68, 50
1, 5492, Note_off_c, 0, 73, 64
1, 5505, Note_on_c, 0, 72, 62
1, 5533, Note_off_c, 0, 72, 63
1, 5580, Note_on_c, 0, 71, 63
1, 5632, Note_off_c, 0, 71, 63
1, 5642, Note_on_c, 0, 70, 65
1, 5669, Note_off_c, 0, 70, 67
1, 5730, Note_on_c, 0, 69, 68
1, 5742, Note_on_c, 0, 45, 54
1, 5746, Note_on_c, 0, 60, 42
1, 5768, Note_off_c, 0, 45, 61
1, 5775, Note_off_c, 0, 60, 54
1, 5781, Note_on_c, 0, 64, 2
1, 5782, Note_off_c, 0, 64, 127
1, 5791, Note_off_c, 0, 69, 63
1, 5806, Note_on_c, 0, 70, 65
1, 5859, Note_off_c, 0, 70, 62
1, 5882, Note_on_c, 0, 71, 54
1, 5916, Note_off_c, 0, 71, 67
1, 5956, Note_on_c, 0, 72, 47
1, 6003, Note_off_c, 0, 72, 63
1, 6014, Note_on_c, 0, 64, 47
1, 6018, Note_on_c, 0, 73, 57
1, 6022, Note_on_c, 0, 69, 40
1, 6026, Note_on_c, 0, 57, 50
1, 6029, Note_on_c, 0, 60, 40
1, 6030, Note_on_c, 0, 52, 43
1, 6047, Note_off_c, 0, 64, 54
1, 6050, Note_off_c, 0, 69, 58
1, 6053, Note_off_c, 0, 57, 63
1, 6056, Note_off_c, 0, 60, 52
1, 6057, Note_off_c, 0, 52, 60
1, 6076, Note_off_c, 0, 73, 63
1, 6089, Note_on_c, 0, 74, 63
1, 6126, Note_off_c, 0, 74, 57
1, 6146, Control_c, 0, 67, 120
1, 6161, Control_c, 0, 67, 113
1, 6162, Note_on_c, 0, 75, 60
1, 6183, Control_c, 0, 67, 109
1, 6197, Control_c, 0, 67, 106
1, 6212, Control_c, 0, 67, 105
1, 6218, Note_off_c, 0, 75, 61
1, 6244, Note_on_c, 0, 76, 58
1, 6313, Note_off_c, 0, 76, 56
1, 6313, Note_on_c, 0, 45, 58
1, 6313, Note_on_c, 0, 69, 56
1, 6313, Note_on_c, 0, 77, 65
1, 6344, Note_off_c, 0, 69, 56
1, 6344, Note_off_c, 0, 45, 64
1, 6345, Control_c, 0, 67, 106
1, 6360, Control_c, 0, 67, 106
1, 6375, Control_c, 0, 67, 107
1, 6384, Note_off_c, 0, 77, 62
1, 6390, Control_c, 0, 67, 107
1, 6396, Note_on_c, 0, 78, 67
1, 6420, Control_c, 0, 67, 108
1, 6441, Note_off_c, 0, 78, 66
1, 6483, Note_on_c, 0, 79, 59
1, 6494, Control_c, 0, 67, 107
1, 6508, Control_c, 0, 67, 106
1, 6521, Note_off_c, 0, 79, 58
1, 6523, Control_c, 0, 67, 105
1, 6538, Control_c, 0, 67, 100
1, 6541, Note_on_c, 0, 80, 64
1, 6552, Control_c, 0, 67, 87
1, 6567, Control_c, 0, 67, 63
1, 6582, Control_c, 0, 67, 26
1, 6592, Note_off_c, 0, 80, 61
1, 6597, Control_c, 0, 67, 0
1, 6608, Note_on_c, 0, 81, 73
1, 6616, Note_on_c, 0, 74, 37
1, 6619, Note_on_c, 0, 62, 55
1, 6626, Note_on_c, 0, 53, 47
1, 6640, Note_on_c, 0, 57, 34
1, 6644, Note_off_c, 0, 62, 63
1, 6666, Note_off_c, 0, 53, 66
1, 6666, Note_off_c, 0, 74, 51
1, 6673, Note_off_c, 0, 81, 63
1, 6673, Note_off_c, 0, 57, 44
1, 6676, Note_on_c, 0, 82, 69
1, 6731, Note_off_c, 0, 82, 66
1, 6751, Note_on_c, 0, 83, 63
1, 6810, Note_off_c, 0, 83, 64
1, 6837, Note_on_c, 0, 84, 57
1, 6896, Note_on_c, 0, 76, 68
1, 6900, Note_on_c, 0, 85, 71
1, 6905, Note_off_c, 0, 84, 64
1, 6906, Note_on_c, 0, 33, 61
1, 6909, Note_on_c, 0, 81, 66
1, 6914, Note_on_c, 0, 45, 62
1, 6942, Note_off_c, 0, 33, 57
1, 6948, Note_off_c, 0, 45, 66
1, 6948, Note_off_c, 0, 76, 64
1, 6948, Note_off_c, 0, 81, 62
1, 6983, Note_off_c, 0, 85, 64
1, 6987, Note_on_c, 0, 86, 76
1, 7043, Note_off_c, 0, 86, 62
1, 7065, Note_on_c, 0, 87, 71
1, 7122, Note_off_c, 0, 87, 66
1, 7135, Note_on_c, 0, 88, 70
1, 7192, Note_on_c, 0, 89, 87
1, 7198, Note_on_c, 0, 81, 76
1, 7198, Note_on_c, 0, 52, 58
1, 7204, Note_off_c, 0, 88, 64
1, 7205, Note_on_c, 0, 57, 56
1, 7206, Note_on_c, 0, 60, 57
1, 7226, Note_off_c, 0, 60, 64
1, 7229, Note_off_c, 0, 57, 63
1, 7235, Note_off_c, 0, 52, 67
1, 7236, Note_off_c, 0, 81, 59
1, 7278, Note_on_c, 0, 88, 71
1, 7303, Note_off_c, 0, 89, 62
1, 7336, Note_on_c, 0, 87, 65
1, 7344, Note_off_c, 0, 88, 64
1, 7368, Note_off_c, 0, 87, 66
1, 7421, Note_on_c, 0, 86, 56
1, 7482, Note_on_c, 0, 76, 60
1, 7485, Note_on_c, 0, 57, 48
1, 7485, Note_on_c, 0, 85, 70
1, 7489, Note_off_c, 0, 86, 60
1, 7490, Note_on_c, 0, 64, 55
1, 7495, Note_on_c, 0, 60, 34
1, 7506, Note_off_c, 0, 76, 63
1, 7510, Note_off_c, 0, 57, 57
1, 7520, Note_off_c, 0, 64, 64
1, 7525, Note_off_c, 0, 60, 48
1, 7525, Note_off_c, 0, 85, 64
1, 7563, Note_on_c, 0, 84, 67
1, 7621, Note_on_c, 0, 83, 68
1, 7649, Note_off_c, 0, 84, 61
1, 7695, Note_on_c, 0, 82, 64
1, 7705, Note_off_c, 0, 83, 61
1, 7752, Note_off_c, 0, 82, 65
1, 7764, Note_on_c, 0, 81, 69
1, 7769, Note_on_c, 0, 76, 58
1, 7776, Note_on_c, 0, 72, 53
1, 7789, Note_off_c, 0, 76, 63
1, 7798, Note_off_c, 0, 72, 60
1, 7834, Note_off_c, 0, 81, 63
1, 7847, Note_on_c, 0, 80, 58
1, 7870, Note_off_c, 0, 80, 65
1, 7901, Note_on_c, 0, 83, 61
1, 7970, Note_on_c, 0, 81, 68
1, 7998, Note_off_c, 0, 83, 61
1, 8033, Note_off_c, 0, 81, 63
1, 8046, Note_on_c, 0, 79, 68
1, 8048, Note_on_c, 0, 47, 69
1, 8057, Note_on_c, 0, 71, 56
1, 8069, Note_on_c, 0, 76, 18
1, 8077, Note_off_c, 0, 47, 66
1, 8112, Note_off_c, 0, 76, 43
1, 8119, Note_on_c, 0, 80, 76
1, 8123, Note_off_c, 0, 79, 63
1, 8131, Note_off_c, 0, 71, 45
1, 8172, Note_off_c, 0, 80, 65
1, 8185, Note_on_c, 0, 81, 68
1, 8237, Note_off_c, 0, 81, 59
1, 8245, Note_on_c, 0, 82, 72
1, 8313, Note_off_c, 0, 82, 67
1, 8318, Note_on_c, 0, 83, 73
1, 8319, Note_on_c, 0, 76, 56
1, 8331, Note_on_c, 0, 59, 54
1, 8331, Note_on_c, 0, 64, 56
1, 8332, Note_on_c, 0, 67, 51
1, 8354, Note_off_c, 0, 76, 56
1, 8355, Note_off_c, 0, 64, 64
1, 8356, Note_off_c, 0, 67, 60
1, 8362, Note_off_c, 0, 59, 64
1, 8387, Note_off_c, 0, 83, 67
1, 8397, Note_on_c, 0, 84, 72
1, 8474, Note_on_c, 0, 83, 66
1, 8485, Note_off_c, 0, 84, 55
1, 8529, Note_off_c, 0, 83, 66
1, 8533, Note_on_c, 0, 82, 63
1, 8562, Note_off_c, 0, 82, 68
1, 8617, Note_on_c, 0, 47, 62
1, 8623, Note_on_c, 0, 75, 62
1, 8623, Note_on_c, 0, 81, 67
1, 8647, Note_off_c, 0, 47, 66
1, 8648, Note_off_c, 0, 75, 54
1, 8685, Note_on_c, 0, 80, 75
1, 8688, Note_off_c, 0, 81, 58
1, 8709, Note_off_c, 0, 80, 66
1, 8785, Note_on_c, 0, 79, 51
1, 8826, Note_on_c, 0, 78, 74
1, 8846, Note_off_c, 0, 79, 54
1, 8906, Note_off_c, 0, 78, 65
1, 8918, Note_on_c, 0, 59, 47
1, 8919, Note_on_c, 0, 66, 68
1, 8920, Note_on_c, 0, 77, 62
1, 8923, Note_on_c, 0, 69, 55
1, 8938, Note_on_c, 0, 71, 38
1, 8944, Note_off_c, 0, 59, 60
1, 8948, Note_off_c, 0, 66, 67
1, 8969, Note_off_c, 0, 71, 58
1, 8978, Note_on_c, 0, 78, 64
1, 8987, Note_off_c, 0, 77, 64
1, 8996, Note_off_c, 0, 69, 59
1, 9052, Note_off_c, 0, 78, 65
1, 9067, Note_on_c, 0, 79, 65
1, 9122, Note_on_c, 0, 78, 68
1, 9133, Note_off_c, 0, 79, 56
1, 9193, Note_off_c, 0, 78, 66
1, 9197, Note_on_c, 0, 76, 60
1, 9209, Note_on_c, 0, 68, 65
1, 9213, Note_on_c, 0, 71, 52
1, 9213, Note_on_c, 0, 52, 66
1, 9218, Note_on_c, 0, 64, 59
1, 9239, Note_off_c, 0, 64, 61
1, 9239, Note_off_c, 0, 71, 61
1, 9245, Note_off_c, 0, 52, 70
1, 9249, Note_off_c, 0, 68, 60
1, 9267, Note_off_c, 0, 76, 64
1, 9279, Note_on_c, 0, 77, 70
1, 9348, Note_off_c, 0, 77, 63
1, 9353, Note_on_c, 0, 75, 71
1, 9355, Poly_aftertouch_c, 0, 76, 127
1, 9380, Poly_aftertouch_c, 0, 76, 0
1, 9390, Note_off_c, 0, 75, 63
1, 9425, Note_on_c, 0, 76, 71
1, 9502, Note_on_c, 0, 74, 73
1, 9504, Note_on_c, 0, 69, 75
1, 9505, Note_on_c, 0, 52, 74
1, 9505, Note_off_c, 0, 76, 64
1, 9507, Note_on_c, 0, 40, 76
1, 9508, Note_on_c, 0, 65, 66
1, 9534, Control_c, 0, 64, 39
1, 9535, Note_off_c, 0, 69, 64
1, 9540, Note_off_c, 0, 65, 65
1, 9549, Control_c, 0, 64, 57
1, 9563, Control_c, 0, 64, 73
1, 9578, Control_c, 0, 64, 93
1, 9587, Note_on_c, 0, 76, 80
1, 9587, Note_off_c, 0, 74, 64
1, 9593, Control_c, 0, 64, 95
1, 9608, Control_c, 0, 64, 95
1, 9645, Note_off_c, 0, 76, 64
1, 9652, Note_on_c, 0, 73, 72
1, 9696, Note_off_c, 0, 73, 63
1, 9731, Note_on_c, 0, 74, 65
1, 9756, Control_c, 0, 64, 90
1, 9771, Note_off_c, 0, 40, 54
1, 9771, Control_c, 0, 64, 79
1, 9785, Control_c, 0, 64, 66
1, 9786, Note_off_c, 0, 52, 54
1, 9800, Control_c, 0, 64, 55
1, 9801, Note_off_c, 0, 74, 59
1, 9807, Note_on_c, 0, 64, 56
1, 9808, Note_on_c, 0, 72, 64
1, 9812, Note_on_c, 0, 69, 52
1, 9815, Control_c, 0, 64, 25
1, 9830, Note_off_c, 0, 64, 60
1, 9830, Control_c, 0, 64, 0
1, 9834, Note_off_c, 0, 69, 61
1, 9860, Control_c, 0, 67, 11
1, 9875, Control_c, 0, 67, 15
1, 9881, Note_off_c, 0, 72, 63
1, 9882, Note_on_c, 0, 74, 66
1, 9889, Control_c, 0, 67, 22
1, 9904, Control_c, 0, 67, 31
1, 9926, Control_c, 0, 67, 40
1, 9941, Control_c, 0, 67, 47
1, 9944, Note_off_c, 0, 74, 62
1, 9956, Control_c, 0, 67, 54
1, 9957, Note_on_c, 0, 71, 65
1, 9970, Control_c, 0, 67, 59
1, 9985, Control_c, 0, 67, 64
1, 9992, Note_off_c, 0, 71, 64
1, 10000, Control_c, 0, 67, 66
1, 10015, Control_c, 0, 67, 69
1, 10030, Control_c, 0, 67, 71
1, 10030, Note_on_c, 0, 72, 62
1, 10046, Control_c, 0, 67, 75
1, 10061, Control_c, 0, 67, 82
1, 10075, Control_c, 0, 67, 89
1, 10090, Note_off_c, 0, 72, 63
1, 10090, Control_c, 0, 67, 96
1, 10101, Note_on_c, 0, 40, 49
1, 10105, Control_c, 0, 67, 103
1, 10107, Note_on_c, 0, 68, 39
1, 10107, Note_on_c, 0, 62, 40
1, 10109, Note_on_c, 0, 71, 54
1, 10118, Note_on_c, 0, 52, 38
1, 10119, Control_c, 0, 67, 111
1, 10134, Control_c, 0, 67, 119
1, 10137, Note_off_c, 0, 62, 57
1, 10138, Note_off_c, 0, 68, 51
1, 10149, Control_c, 0, 67, 127
1, 10179, Note_on_c, 0, 72, 62
1, 10179, Note_off_c, 0, 71, 61
1, 10230, Note_off_c, 0, 72, 59
1, 10240, Note_on_c, 0, 70, 62
1, 10266, Note_off_c, 0, 70, 66
1, 10310, Note_on_c, 0, 71, 56
1, 10358, Note_off_c, 0, 52, 41
1, 10376, Note_on_c, 0, 60, 40
1, 10380, Note_on_c, 0, 69, 53
1, 10398, Note_on_c, 0, 45, 52
1, 10402, Note_off_c, 0, 60, 56
1, 10417, Note_off_c, 0, 40, 51
1, 10424, Note_off_c, 0, 69, 63
1, 10425, Note_off_c, 0, 71, 41
1, 10431, Note_off_c, 0, 45, 64
1, 10450, Note_on_c, 0, 70, 67
1, 10508, Note_off_c, 0, 70, 63
1, 10521, Note_on_c, 0, 71, 60
1, 10580, Note_off_c, 0, 71, 66
1, 10607, Note_on_c, 0, 72, 56
1, 10674, Note_off_c, 0, 72, 63
1, 10685, Note_on_c, 0, 64, 33
1, 10686, Note_on_c, 0, 73, 58
1, 10698, Note_on_c, 0, 52, 45
1, 10701, Note_on_c, 0, 57, 40
1, 10703, Note_on_c, 0, 60, 34
1, 10704, Note_on_c, 0, 69, 26
1, 10724, Note_off_c, 0, 52, 63
1, 10727, Note_off_c, 0, 64, 48
1, 10728, Note_off_c, 0, 57, 56
1, 10732, Note_off_c, 0, 60, 48
1, 10739, Note_off_c, 0, 69, 46
1, 10742, Note_off_c, 0, 73, 64
1, 10761, Note_on_c, 0, 74, 60
1, 10800, Note_off_c, 0, 74, 56
1, 10838, Note_on_c, 0, 75, 63
1, 10890, Note_off_c, 0, 75, 61
1, 10913, Note_on_c, 0, 76, 60
1, 10975, Note_off_c, 0, 76, 65
1, 10975, Note_on_c, 0, 77, 66
1, 10980, Note_on_c, 0, 69, 47
1, 10990, Note_on_c, 0, 45, 43
1, 11007, Note_off_c, 0, 69, 57
1, 11020, Note_off_c, 0, 45, 52
1, 11048, Poly_aftertouch_c, 0, 74, 127
1, 11055, Note_off_c, 0, 77, 62
1, 11064, Note_on_c, 0, 78, 69
1, 11088, Poly_aftertouch_c, 0, 74, 0
1, 11103, Note_off_c, 0, 78, 64
1, 11153, Note_on_c, 0, 79, 63
1, 11201, Note_off_c, 0, 79, 58
1, 11220, Note_on_c, 0, 80, 58
1, 11223, Control_c, 0, 67, 126
1, 11238, Control_c, 0, 67, 94
1, 11253, Control_c, 0, 67, 41
1, 11256, Note_off_c, 0, 80, 64
1, 11267, Control_c, 0, 67, 0
1, 11278, Note_on_c, 0, 74, 33
1, 11285, Note_on_c, 0, 81, 70
1, 11286, Note_on_c, 0, 62, 56
1, 11290, Note_on_c, 0, 53, 51
1, 11292, Note_on_c, 0, 77, 25
1, 11311, Note_on_c, 0, 57, 35
1, 11312, Note_off_c, 0, 62, 65
1, 11326, Note_off_c, 0, 74, 52
1, 11330, Note_off_c, 0, 77, 41
1, 11335, Note_off_c, 0, 53, 65
1, 11343, Note_off_c, 0, 57, 45
1, 11347, Note_off_c, 0, 81, 63
1, 11351, Note_on_c, 0, 82, 67
1, 11416, Note_off_c, 0, 82, 66
1, 11434, Note_on_c, 0, 83, 64
1, 11488, Note_off_c, 0, 83, 62
1, 11511, Note_on_c, 0, 84, 61
1, 11576, Note_on_c, 0, 76, 59
1, 11577, Note_on_c, 0, 85, 71
1, 11578, Note_off_c, 0, 84, 64
1, 11583, Note_on_c, 0, 33, 56
1, 11589, Note_on_c, 0, 81, 54
1, 11590, Note_on_c, 0, 45, 60
1, 11611, Note_off_c, 0, 33, 60
1, 11616, Note_off_c, 0, 45, 65
1, 11619, Note_off_c, 0, 81, 57
1, 11623, Note_off_c, 0, 76, 62
1, 11651, Note_off_c, 0, 85, 63
1, 11654, Note_on_c, 0, 86, 75
1, 11708, Note_off_c, 0, 86, 62
1, 11732, Note_on_c, 0, 87, 70
1, 11796, Note_off_c, 0, 87, 65
1, 11811, Note_on_c, 0, 88, 68
1, 11863, Note_on_c, 0, 89, 85
1, 11872, Note_off_c, 0, 88, 65
1, 11874, Note_on_c, 0, 52, 56
1, 11875, Note_on_c, 0, 81, 73
1, 11881, Note_on_c, 0, 60, 51
1, 11884, Note_on_c, 0, 57, 47
1, 11902, Note_off_c, 0, 60, 61
1, 11903, Note_off_c, 0, 52, 70
1, 11905, Note_off_c, 0, 81, 60
1, 11908, Note_off_c, 0, 57, 57
1, 11952, Note_on_c, 0, 88, 71
1, 11975, Note_off_c, 0, 89, 60
1, 12007, Note_off_c, 0, 88, 65
1, 12018, Note_on_c, 0, 87, 57
1, 12047, Note_off_c, 0, 87, 66
1, 12094, Note_on_c, 0, 86, 57
1, 12170, Note_on_c, 0, 85, 69
1, 12172, Note_on_c, 0, 57, 51
1, 12172, Note_off_c, 0, 86, 62
1, 12175, Note_on_c, 0, 76, 52
1, 12181, Note_on_c, 0, 64, 51
1, 12187, Note_on_c, 0, 60, 40
1, 12198, Note_off_c, 0, 76, 61
1, 12201, Note_off_c, 0, 57, 64
1, 12204, Note_off_c, 0, 85, 66
1, 12212, Note_off_c, 0, 60, 57
1, 12213, Note_off_c, 0, 64, 56
1, 12249, Note_on_c, 0, 84, 64
1, 12313, Note_on_c, 0, 83, 63
1, 12337, Note_off_c, 0, 84, 60
1, 12380, Note_on_c, 0, 82, 65
1, 12386, Note_off_c, 0, 83, 63
1, 12438, Note_off_c, 0, 82, 65
1, 12455, Note_on_c, 0, 81, 66
1, 12464, Note_on_c, 0, 72, 56
1, 12467, Note_on_c, 0, 76, 47
1, 12486, Note_off_c, 0, 72, 61
1, 12492, Note_off_c, 0, 76, 57
1, 12522, Note_off_c, 0, 81, 62
1, 12540, Note_on_c, 0, 80, 53
1, 12564, Note_off_c, 0, 80, 64
1, 12601, Note_on_c, 0, 83, 59
1, 12665, Note_on_c, 0, 81, 65
1, 12697, Note_off_c, 0, 83, 59
1, 12738, Note_off_c, 0, 81, 61
1, 12745, Note_on_c, 0, 40, 58
1, 12750, Note_on_c, 0, 80, 61
1, 12760, Note_on_c, 0, 71, 51
1, 12773, Note_off_c, 0, 40, 60
1, 12784, Note_off_c, 0, 80, 64
1, 12798, Note_off_c, 0, 71, 50
1, 12830, Note_on_c, 0, 79, 68
1, 12877, Note_off_c, 0, 79, 61
1, 12891, Note_on_c, 0, 78, 68
1, 12923, Note_off_c, 0, 78, 71
1, 12969, Note_on_c, 0, 77, 67
1, 13041, Note_on_c, 0, 76, 59
1, 13052, Note_on_c, 0, 68, 44
1, 13055, Note_off_c, 0, 77, 59
1, 13055, Note_on_c, 0, 52, 42
1, 13061, Note_on_c, 0, 59, 41
1, 13073, Note_on_c, 0, 62, 12
1, 13088, Note_off_c, 0, 59, 58
1, 13092, Note_off_c, 0, 68, 61
1, 13096, Note_off_c, 0, 52, 66
1, 13096, Poly_aftertouch_c, 0, 71, 127
1, 13120, Note_off_c, 0, 76, 62
1, 13121, Note_off_c, 0, 62, 42
1, 13125, Note_on_c, 0, 75, 58
1, 13138, Poly_aftertouch_c, 0, 71, 0
1, 13163, Note_off_c, 0, 75, 61
1, 13189, Note_on_c, 0, 77, 63
1, 13257, Note_on_c, 0, 76, 58
1, 13275, Note_off_c, 0, 77, 54
1, 13300, Note_off_c, 0, 76, 63
1, 13315, Note_on_c, 0, 69, 53
1, 13320, Note_on_c, 0, 75, 62
1, 13330, Note_on_c, 0, 45, 47
1, 13346, Note_off_c, 0, 75, 65
1, 13359, Note_off_c, 0, 45, 60
1, 13371, Note_off_c, 0, 69, 53
1, 13405, Note_on_c, 0, 74, 66
1, 13463, Note_off_c, 0, 74, 65
1, 13471, Note_on_c, 0, 73, 64
1, 13497, Note_off_c, 0, 73, 68
1, 13541, Note_on_c, 0, 72, 59
1, 13599, Note_off_c, 0, 72, 63
1, 13610, Note_on_c, 0, 64, 51
1, 13612, Note_on_c, 0, 71, 65
1, 13616, Note_on_c, 0, 69, 49
1, 13619, Note_on_c, 0, 52, 51
1, 13627, Note_on_c, 0, 57, 48
1, 13632, Note_on_c, 0, 60, 36
1, 13644, Note_off_c, 0, 52, 63
1, 13644, Note_off_c, 0, 69, 61
1, 13652, Note_off_c, 0, 57, 60
1, 13668, Note_off_c, 0, 60, 51
1, 13676, Note_off_c, 0, 71, 66
1, 13686, Note_off_c, 0, 64, 51
1, 13690, Note_on_c, 0, 72, 60
1, 13747, Note_off_c, 0, 72, 63
1, 13764, Note_on_c, 0, 74, 55
1, 13826, Note_on_c, 0, 72, 58
1, 13839, Note_off_c, 0, 74, 53
1, 13888, Note_off_c, 0, 72, 60
1, 13905, Note_on_c, 0, 68, 59
1, 13906, Note_on_c, 0, 64, 48
1, 13907, Note_on_c, 0, 71, 59
1, 13908, Note_on_c, 0, 52, 55
1, 13937, Note_off_c, 0, 52, 67
1, 13938, Note_on_c, 0, 59, 10
1, 13938, Note_off_c, 0, 68, 64
1, 13941, Note_off_c, 0, 64, 54
1, 13950, Note_off_c, 0, 71, 56
1, 13977, Note_off_c, 0, 59, 44
1, 13988, Note_on_c, 0, 72, 67
1, 14041, Note_off_c, 0, 72, 64
1, 14048, Note_on_c, 0, 71, 70
1, 14117, Note_off_c, 0, 71, 63
1, 14133, Note_on_c, 0, 72, 54
1, 14184, Note_on_c, 0, 71, 62
1, 14185, Note_on_c, 0, 59, 77
1, 14185, Note_on_c, 0, 63, 75
1, 14187, Note_off_c, 0, 72, 60
1, 14188, Note_on_c, 0, 69, 65
1, 14191, Note_on_c, 0, 53, 66
1, 14203, Control_c, 0, 64, 13
1, 14218, Control_c, 0, 64, 47
1, 14219, Note_off_c, 0, 69, 64
1, 14220, Note_off_c, 0, 63, 62
1, 14233, Control_c, 0, 64, 66
1, 14248, Control_c, 0, 64, 127
1, 14271, Note_off_c, 0, 71, 65
1, 14278, Note_on_c, 0, 72, 68
1, 14334, Note_off_c, 0, 72, 63
1, 14340, Note_on_c, 0, 71, 63
1, 14397, Note_off_c, 0, 71, 65
1, 14402, Note_on_c, 0, 72, 71
1, 14462, Control_c, 0, 64, 105
1, 14477, Note_off_c, 0, 72, 65
1, 14477, Control_c, 0, 64, 74
1, 14481, Note_on_c, 0, 64, 60
1, 14485, Note_off_c, 0, 53, 37
1, 14486, Note_on_c, 0, 71, 57
1, 14490, Note_on_c, 0, 68, 57
1, 14492, Control_c, 0, 64, 61
1, 14507, Control_c, 0, 64, 40
1, 14510, Note_off_c, 0, 64, 55
1, 14513, Note_off_c, 0, 68, 59
1, 14514, Note_on_c, 0, 52, 58
1, 14515, Note_off_c, 0, 71, 62
1, 14522, Control_c, 0, 64, 0
1, 14529, Note_off_c, 0, 59, 59
1, 14544, Note_off_c, 0, 52, 67
1, 14552, Control_c, 0, 67, 12
1, 14561, Note_on_c, 0, 76, 71
1, 14566, Control_c, 0, 67, 20
1, 14581, Control_c, 0, 67, 31
1, 14596, Control_c, 0, 67, 45
1, 14610, Control_c, 0, 67, 55
1, 14625, Control_c, 0, 67, 65
1, 14635, Note_off_c, 0, 76, 60
1, 14636, Note_on_c, 0, 75, 73
1, 14640, Control_c, 0, 67, 74
1, 14655, Control_c, 0, 67, 84
1, 14670, Control_c, 0, 67, 93
1, 14684, Control_c, 0, 67, 100
1, 14699, Control_c, 0, 67, 106
1, 14706, Note_on_c, 0, 74, 66
1, 14714, Control_c, 0, 67, 110
1, 14717, Note_off_c, 0, 75, 60
1, 14729, Control_c, 0, 67, 115
1, 14744, Control_c, 0, 67, 119
1, 14758, Control_c, 0, 67, 123
1, 14773, Control_c, 0, 67, 127
1, 14775, Note_off_c, 0, 74, 64
1, 14781, Note_on_c, 0, 73, 65
1, 14788, Control_c, 0, 67, 127
1, 14799, Note_on_c, 0, 62, 49
1, 14817, Note_on_c, 0, 68, 38
1, 14825, Note_off_c, 0, 62, 63
1, 14830, Note_off_c, 0, 73, 64
1, 14844, Note_on_c, 0, 72, 56
1, 14850, Note_off_c, 0, 68, 32
1, 14864, Note_off_c, 0, 72, 64
1, 14921, Note_on_c, 0, 71, 61
1, 14977, Note_off_c, 0, 71, 65
1, 14986, Note_on_c, 0, 70, 64
1, 15013, Note_off_c, 0, 70, 66
1, 15083, Note_on_c, 0, 69, 64
1, 15087, Note_on_c, 0, 45, 55
1, 15118, Note_off_c, 0, 45, 65
1, 15136, Note_off_c, 0, 69, 60
1, 15164, Note_on_c, 0, 70, 63
1, 15222, Note_off_c, 0, 70, 63
1, 15240, Note_on_c, 0, 71, 59
1, 15280, Note_off_c, 0, 71, 64
1, 15316, Note_on_c, 0, 72, 45
1, 15369, Note_off_c, 0, 72, 63
1, 15372, Note_on_c, 0, 64, 49
1, 15379, Note_on_c, 0, 73, 57
1, 15395, Note_on_c, 0, 57, 41
1, 15395, Note_on_c, 0, 60, 29
1, 15397, Note_on_c, 0, 52, 36
1, 15410, Note_off_c, 0, 64, 50
1, 15422, Note_off_c, 0, 57, 55
1, 15424, Note_off_c, 0, 52, 54
1, 15426, Note_off_c, 0, 60, 46
1, 15436, Note_off_c, 0, 73, 64
1, 15445, Note_on_c, 0, 74, 67
1, 15485, Note_off_c, 0, 74, 55
1, 15530, Note_on_c, 0, 75, 60
1, 15575, Note_off_c, 0, 75, 62
1, 15598, Note_on_c, 0, 76, 56
1, 15667, Note_on_c, 0, 77, 65
1, 15667, Note_off_c, 0, 76, 57
1, 15676, Note_on_c, 0, 69, 49
1, 15677, Note_on_c, 0, 45, 52
1, 15705, Note_off_c, 0, 45, 60
1, 15714, Note_off_c, 0, 69, 50
1, 15741, Note_off_c, 0, 77, 63
1, 15753, Note_on_c, 0, 78, 63
1, 15786, Note_off_c, 0, 78, 57
1, 15837, Note_on_c, 0, 79, 61
1, 15888, Note_off_c, 0, 79, 58
1, 15915, Note_on_c, 0, 80, 57
1, 15962, Note_off_c, 0, 80, 62
1, 15974, Note_on_c, 0, 81, 71
1, 15977, Note_on_c, 0, 74, 43
1, 15992, Note_on_c, 0, 53, 51
1, 15994, Note_on_c, 0, 62, 54
1, 16007, Note_on_c, 0, 77, 41
1, 16014, Note_on_c, 0, 57, 38
1, 16016, Note_off_c, 0, 62, 62
1, 16022, Note_off_c, 0, 74, 49
1, 16037, Note_off_c, 0, 77, 57
1, 16042, Note_off_c, 0, 53, 64
1, 16042, Note_off_c, 0, 57, 51
1, 16043, Note_off_c, 0, 81, 63
1, 16053, Note_on_c, 0, 82, 61
1, 16104, Note_off_c, 0, 82, 64
1, 16125, Note_on_c, 0, 83, 63
1, 16179, Note_off_c, 0, 83, 65
1, 16213, Note_on_c, 0, 84, 52
1, 16278, Note_off_c, 0, 84, 64
1, 16284, Note_on_c, 0, 33, 51
1, 16288, Note_on_c, 0, 85, 58
1, 16290, Note_on_c, 0, 76, 43
1, 16292, Note_on_c, 0, 81, 46
1, 16295, Note_on_c, 0, 45, 53
1, 16313, Note_off_c, 0, 33, 55
1, 16324, Note_off_c, 0, 81, 56
1, 16326, Note_off_c, 0, 45, 65
1, 16327, Note_off_c, 0, 76, 52
1, 16348, Note_off_c, 0, 85, 64
1, 16358, Note_on_c, 0, 86, 69
1, 16412, Note_off_c, 0, 86, 53
1, 16441, Note_on_c, 0, 87, 63
1, 16500, Note_off_c, 0, 87, 65
1, 16513, Note_on_c, 0, 88, 57
1, 16573, Note_off_c, 0, 88, 64
1, 16583, Note_on_c, 0, 89, 65
1, 16591, Note_on_c, 0, 52, 52
1, 16595, Note_on_c, 0, 81, 45
1, 16606, Note_on_c, 0, 57, 39
1, 16608, Note_on_c, 0, 60, 39
1, 16627, Note_off_c, 0, 52, 67
1, 16635, Note_off_c, 0, 57, 49
1, 16637, Note_off_c, 0, 60, 49
1, 16639, Note_off_c, 0, 81, 45
1, 16662, Note_on_c, 0, 88, 53
1, 16671, Note_off_c, 0, 89, 56
1, 16718, Note_off_c, 0, 88, 63
1, 16734, Note_on_c, 0, 87, 53
1, 16758, Note_off_c, 0, 87, 65
1, 16812, Note_on_c, 0, 86, 55
1, 16877, Note_off_c, 0, 86, 62
1, 16885, Note_on_c, 0, 85, 60
1, 16886, Note_on_c, 0, 57, 51
1, 16893, Note_on_c, 0, 76, 39
1, 16903, Note_on_c, 0, 64, 43
1, 16906, Note_on_c, 0, 60, 35
1, 16916, Note_off_c, 0, 85, 68
1, 16916, Note_off_c, 0, 57, 63
1, 16920, Note_off_c, 0, 76, 55
1, 16934, Note_off_c, 0, 64, 58
1, 16936, Note_off_c, 0, 60, 48
1, 16966, Note_on_c, 0, 84, 60
1, 17034, Note_on_c, 0, 83, 60
1, 17049, Note_off_c, 0, 84, 56
1, 17097, Note_on_c, 0, 82, 65
1, 17098, Note_off_c, 0, 83, 65
1, 17152, Note_off_c, 0, 82, 64
1, 17171, Note_on_c, 0, 72, 57
1, 17172, Note_on_c, 0, 76, 54
1, 17172, Note_on_c, 0, 81, 60
1, 17193, Note_off_c, 0, 76, 62
1, 17195, Note_off_c, 0, 72, 65
1, 17233, Note_off_c, 0, 81, 60
1, 17246, Note_on_c, 0, 80, 57
1, 17279, Note_off_c, 0, 80, 65
1, 17304, Note_on_c, 0, 83, 61
1, 17369, Note_on_c, 0, 81, 60
1, 17407, Note_off_c, 0, 83, 64
1, 17434, Note_off_c, 0, 81, 61
1, 17458, Note_on_c, 0, 82, 60
1, 17462, Note_on_c, 0, 38, 56
1, 17475, Note_on_c, 0, 50, 53
1, 17485, Note_on_c, 0, 74, 37
1, 17491, Note_off_c, 0, 38, 58
1, 17500, Note_off_c, 0, 50, 64
1, 17515, Note_off_c, 0, 82, 67
1, 17529, Note_off_c, 0, 74, 47
1, 17539, Note_on_c, 0, 83, 59
1, 17608, Note_off_c, 0, 83, 66
1, 17628, Note_on_c, 0, 84, 59
1, 17635, Control_c, 0, 67, 117
1, 17650, Control_c, 0, 67, 94
1, 17665, Control_c, 0, 67, 63
1, 17680, Control_c, 0, 67, 24
1, 17695, Control_c, 0, 67, 0
1, 17739, Note_off_c, 0, 84, 59
1, 17762, Note_on_c, 0, 62, 51
1, 17764, Note_on_c, 0, 50, 47
1, 17765, Note_on_c, 0, 58, 54
1, 17768, Note_on_c, 0, 86, 49
1, 17771, Note_on_c, 0, 77, 4
1, 17773, Note_on_c, 0, 53, 41
1, 17786, Note_off_c, 0, 62, 58
1, 17790, Note_on_c, 0, 84, 29
1, 17799, Note_off_c, 0, 58, 65
1, 17802, Note_off_c, 0, 53, 59
1, 17813, Note_off_c, 0, 86, 0
1, 17813, Note_on_c, 0, 86, 18
1, 17819, Note_off_c, 0, 50, 64
1, 17825, Note_off_c, 0, 84, 49
1, 17827, Note_off_c, 0, 77, 43
1, 17837, Note_on_c, 0, 87, 75
1, 17843, Control_c, 0, 64, 13
1, 17844, Note_off_c, 0, 86, 57
1, 17858, Control_c, 0, 64, 29
1, 17873, Control_c, 0, 64, 37
1, 17888, Control_c, 0, 64, 42
1, 17902, Control_c, 0, 64, 46
1, 17908, Note_off_c, 0, 87, 64
1, 17917, Control_c, 0, 64, 47
1, 17919, Note_on_c, 0, 88, 72
1, 17947, Control_c, 0, 64, 45
1, 17962, Control_c, 0, 64, 41
1, 17976, Control_c, 0, 64, 35
1, 17985, Note_off_c, 0, 88, 65
1, 17991, Note_on_c, 0, 89, 66
1, 17991, Control_c, 0, 64, 25
1, 18006, Control_c, 0, 64, 9
1, 18022, Control_c, 0, 64, 0
1, 18052, Note_on_c, 0, 88, 63
1, 18056, Note_on_c, 0, 40, 62
1, 18057, Note_off_c, 0, 89, 65
1, 18061, Note_on_c, 0, 52, 67
1, 18065, Note_on_c, 0, 80, 60
1, 18081, Control_c, 0, 64, 9
1, 18084, Note_off_c, 0, 40, 58
1, 18090, Note_off_c, 0, 52, 68
1, 18096, Control_c, 0, 64, 25
1, 18099, Note_off_c, 0, 80, 60
1, 18111, Control_c, 0, 64, 34
1, 18125, Control_c, 0, 64, 38
1, 18137, Note_off_c, 0, 88, 63
1, 18138, Note_on_c, 0, 89, 72
1, 18140, Control_c, 0, 64, 39
1, 18162, Control_c, 0, 64, 39
1, 18177, Control_c, 0, 64, 38
1, 18192, Control_c, 0, 64, 34
1, 18206, Control_c, 0, 64, 27
1, 18217, Note_off_c, 0, 89, 60
1, 18221, Control_c, 0, 64, 0
1, 18229, Note_on_c, 0, 90, 71
1, 18280, Note_off_c, 0, 90, 66
1, 18307, Note_on_c, 0, 91, 68
1, 18359, Note_on_c, 0, 92, 78
1, 18360, Note_on_c, 0, 86, 65
1, 18361, Note_on_c, 0, 62, 68
1, 18362, Note_off_c, 0, 91, 62
1, 18364, Note_on_c, 0, 52, 63
1, 18367, Note_on_c, 0, 59, 60
1, 18387, Note_off_c, 0, 62, 67
1, 18397, Note_off_c, 0, 59, 64
1, 18403, Note_off_c, 0, 92, 65
1, 18415, Note_off_c, 0, 52, 67
1, 18451, Note_on_c, 0, 93, 72
1, 18454, Note_off_c, 0, 86, 37
1, 18508, Note_on_c, 0, 94, 79
1, 18511, Note_off_c, 0, 93, 60
1, 18564, Note_off_c, 0, 94, 64
1, 18579, Note_on_c, 0, 95, 75
1, 18647, Note_on_c, 0, 84, 83
1, 18648, Note_on_c, 0, 93, 87
1, 18649, Note_on_c, 0, 53, 93
1, 18650, Note_on_c, 0, 41, 80
1, 18674, Note_off_c, 0, 41, 67
1, 18674, Note_off_c, 0, 95, 65
1, 18688, Note_off_c, 0, 53, 68
1, 18723, Note_on_c, 0, 92, 78
1, 18734, Note_off_c, 0, 93, 60
1, 18760, Note_off_c, 0, 84, 55
1, 18767, Note_off_c, 0, 92, 67
1, 18809, Note_on_c, 0, 91, 74
1, 18882, Note_on_c, 0, 90, 71
1, 18882, Note_off_c, 0, 91, 59
1, 18919, Note_off_c, 0, 90, 70
1, 18973, Note_on_c, 0, 57, 62
1, 18974, Note_on_c, 0, 65, 57
1, 18984, Note_on_c, 0, 89, 65
1, 18984, Note_on_c, 0, 60, 51
1, 18988, Note_on_c, 0, 84, 58
1, 18993, Note_off_c, 0, 65, 65
1, 18997, Note_on_c, 0, 88, 59
1, 19008, Note_off_c, 0, 60, 59
1, 19013, Note_off_c, 0, 84, 55
1, 19014, Note_off_c, 0, 57, 62
1, 19019, Note_on_c, 0, 81, 31
1, 19025, Note_off_c, 0, 88, 54
1, 19065, Note_on_c, 0, 88, 63
1, 19073, Note_off_c, 0, 89, 62
1, 19077, Note_off_c, 0, 81, 44
1, 19121, Note_on_c, 0, 87, 64
1, 19123, Note_off_c, 0, 88, 62
1, 19148, Note_off_c, 0, 87, 68
1, 19199, Note_on_c, 0, 86, 70
1, 19275, Note_off_c, 0, 86, 62
1, 19277, Note_on_c, 0, 85, 71
1, 19282, Note_on_c, 0, 36, 52
1, 19282, Note_on_c, 0, 76, 54
1, 19284, Note_on_c, 0, 48, 65
1, 19304, Note_off_c, 0, 85, 68
1, 19305, Note_off_c, 0, 76, 63
1, 19311, Note_off_c, 0, 48, 67
1, 19313, Note_off_c, 0, 36, 52
1, 19364, Note_on_c, 0, 84, 67
1, 19424, Note_on_c, 0, 83, 62
1, 19449, Note_off_c, 0, 84, 57
1, 19482, Note_off_c, 0, 83, 65
1, 19497, Note_on_c, 0, 82, 55
1, 19518, Note_off_c, 0, 82, 65
1, 19578, Note_on_c, 0, 81, 68
1, 19582, Note_on_c, 0, 52, 58
1, 19585, Note_on_c, 0, 72, 57
1, 19590, Note_on_c, 0, 57, 52
1, 19590, Note_on_c, 0, 64, 46
1, 19618, Note_off_c, 0, 57, 63
1, 19618, Note_off_c, 0, 64, 55
1, 19623, Note_off_c, 0, 52, 68
1, 19636, Note_off_c, 0, 81, 63
1, 19649, Note_on_c, 0, 80, 62
1, 19657, Note_off_c, 0, 72, 62
1, 19682, Note_off_c, 0, 80, 65
1, 19728, Note_on_c, 0, 79, 73
1, 19798, Note_off_c, 0, 79, 60
1, 19802, Note_on_c, 0, 78, 73
1, 19856, Note_off_c, 0, 78, 64
1, 19885, Note_on_c, 0, 77, 77
1, 19887, Note_on_c, 0, 38, 63
1, 19896, Note_on_c, 0, 50, 57
1, 19902, Note_on_c, 0, 70, 45
1, 19915, Note_off_c, 0, 38, 61
1, 19920, Note_off_c, 0, 50, 65
1, 19929, Note_off_c, 0, 70, 55
1, 19969, Note_on_c, 0, 76, 70
1, 19995, Note_off_c, 0, 77, 59
1, 20025, Note_off_c, 0, 76, 63
1, 20038, Note_on_c, 0, 75, 51
1, 20070, Note_off_c, 0, 75, 64
1, 20105, Note_on_c, 0, 74, 67
1, 20174, Note_off_c, 0, 74, 66
1, 20182, Note_on_c, 0, 73, 70
1, 20187, Note_on_c, 0, 50, 49
1, 20189, Note_on_c, 0, 62, 65
1, 20189, Note_on_c, 0, 65, 49
1, 20194, Note_on_c, 0, 58, 60
1, 20196, Note_on_c, 0, 53, 55
1, 20196, Note_on_c, 0, 70, 50
1, 20219, Note_off_c, 0, 70, 60
1, 20223, Control_c, 0, 64, 17
1, 20226, Note_off_c, 0, 62, 61
1, 20229, Note_off_c, 0, 50, 50
1, 20238, Control_c, 0, 64, 35
1, 20246, Note_off_c, 0, 65, 52
1, 20247, Note_off_c, 0, 73, 67
1, 20253, Control_c, 0, 64, 50
1, 20254, Note_off_c, 0, 58, 62
1, 20254, Note_on_c, 0, 74, 67
1, 20268, Control_c, 0, 64, 62
1, 20283, Control_c, 0, 64, 68
1, 20297, Control_c, 0, 64, 69
1, 20312, Control_c, 0, 64, 69
1, 20327, Control_c, 0, 64, 70
1, 20328, Note_off_c, 0, 74, 66
1, 20329, Note_on_c, 0, 77, 76
1, 20342, Control_c, 0, 64, 70
1, 20356, Control_c, 0, 64, 71
1, 20371, Control_c, 0, 64, 72
1, 20389, Note_off_c, 0, 77, 59
1, 20421, Note_on_c, 0, 74, 68
1, 20439, Control_c, 0, 64, 69
1, 20454, Control_c, 0, 64, 63
1, 20469, Control_c, 0, 64, 54
1, 20470, Note_off_c, 0, 74, 58
1, 20484, Control_c, 0, 64, 35
1, 20496, Note_on_c, 0, 52, 55
1, 20496, Note_on_c, 0, 57, 57
1, 20499, Control_c, 0, 64, 0
1, 20502, Note_on_c, 0, 71, 61
1, 20504, Note_on_c, 0, 60, 35
1, 20516, Note_on_c, 0, 69, 12
1, 20521, Note_on_c, 0, 64, 43
1, 20528, Control_c, 0, 64, 13
1, 20530, Note_off_c, 0, 60, 60
1, 20541, Note_off_c, 0, 69, 47
1, 20543, Control_c, 0, 64, 32
1, 20543, Note_off_c, 0, 53, 33
1, 20558, Control_c, 0, 64, 46
1, 20564, Note_off_c, 0, 71, 67
1, 20565, Note_off_c, 0, 52, 62
1, 20566, Note_off_c, 0, 57, 60
1, 20570, Note_off_c, 0, 64, 44
1, 20573, Control_c, 0, 64, 59
1, 20579, Note_on_c, 0, 72, 68
1, 20588, Control_c, 0, 64, 66
1, 20602, Control_c, 0, 64, 69
1, 20643, Note_off_c, 0, 72, 63
1, 20647, Control_c, 0, 64, 71
1, 20648, Note_on_c, 0, 76, 70
1, 20661, Control_c, 0, 64, 72
1, 20676, Control_c, 0, 64, 74
1, 20691, Note_off_c, 0, 76, 56
1, 20691, Control_c, 0, 64, 74
1, 20716, Note_on_c, 0, 72, 63
1, 20721, Control_c, 0, 64, 72
1, 20735, Control_c, 0, 64, 64
1, 20750, Control_c, 0, 64, 54
1, 20765, Control_c, 0, 64, 31
1, 20774, Note_off_c, 0, 72, 63
1, 20780, Control_c, 0, 64, 0
1, 20794, Note_on_c, 0, 52, 58
1, 20800, Note_on_c, 0, 70, 61
1, 20809, Control_c, 0, 64, 11
1, 20824, Control_c, 0, 64, 31
1, 20827, Note_on_c, 0, 62, 39
1, 20839, Control_c, 0, 64, 47
1, 20848, Note_off_c, 0, 70, 65
1, 20854, Control_c, 0, 64, 59
1, 20868, Note_on_c, 0, 71, 66
1, 20868, Control_c, 0, 64, 66
1, 20880, Note_off_c, 0, 62, 46
1, 20883, Control_c, 0, 64, 68
1, 20913, Control_c, 0, 64, 69
1, 20928, Control_c, 0, 64, 69
1, 20933, Note_off_c, 0, 71, 66
1, 20940, Note_on_c, 0, 76, 68
1, 20974, Note_off_c, 0, 76, 58
1, 20987, Control_c, 0, 64, 70
1, 21015, Note_on_c, 0, 71, 68
1, 21017, Control_c, 0, 64, 69
1, 21032, Control_c, 0, 64, 66
1, 21046, Control_c, 0, 64, 59
1, 21061, Control_c, 0, 64, 31
1, 21067, Note_off_c, 0, 71, 65
1, 21076, Control_c, 0, 64, 0
1, 21140, Note_on_c, 0, 57, 53
1, 21142, Note_on_c, 0, 45, 52
1, 21161, Note_on_c, 0, 60, 38
1, 21161, Note_on_c, 0, 69, 60
1, 21190, Note_off_c, 0, 60, 54
1, 21212, Note_off_c, 0, 57, 61
1, 21226, Note_off_c, 0, 69, 64
1, 21235, Note_off_c, 0, 45, 62
1, 21240, Note_on_c, 0, 70, 59
1, 21241, Note_off_c, 0, 52, 45
1, 21304, Note_off_c, 0, 70, 63
1, 21316, Note_on_c, 0, 71, 52
1, 21367, Note_off_c, 0, 71, 66
1, 21396, Note_on_c, 0, 72, 54
1, 21439, Control_c, 0, 64, 9
1, 21454, Control_c, 0, 64, 27
1, 21458, Note_off_c, 0, 72, 64
1, 21460, Note_on_c, 0, 52, 47
1, 21461, Note_on_c, 0, 40, 48
1, 21464, Note_on_c, 0, 73, 61
1, 21469, Control_c, 0, 64, 46
1, 21481, Note_on_c, 0, 64, 25
1, 21483, Control_c, 0, 64, 62
1, 21497, Note_on_c, 0, 68, 20
1, 21498, Control_c, 0, 64, 76
1, 21511, Note_off_c, 0, 52, 63
1, 21513, Control_c, 0, 64, 82
1, 21521, Note_off_c, 0, 64, 51
1, 21528, Note_off_c, 0, 73, 61
1, 21528, Control_c, 0, 64, 94
1, 21543, Note_off_c, 0, 68, 50
1, 21543, Control_c, 0, 64, 113
1, 21545, Note_off_c, 0, 40, 63
1, 21548, Note_on_c, 0, 74, 62
1, 21557, Control_c, 0, 64, 127
1, 21590, Note_off_c, 0, 74, 57
1, 21634, Note_on_c, 0, 75, 58
1, 21678, Note_off_c, 0, 75, 62
1, 21693, Note_on_c, 0, 76, 65
1, 21722, Note_off_c, 0, 76, 67
1, 21750, Control_c, 0, 64, 100
1, 21765, Control_c, 0, 64, 79
1, 21780, Control_c, 0, 64, 63
1, 21794, Control_c, 0, 64, 49
1, 21806, Note_on_c, 0, 33, 49
1, 21809, Control_c, 0, 64, 13
1, 21814, Note_on_c, 0, 81, 64
1, 21816, Note_on_c, 0, 45, 42
1, 21824, Control_c, 0, 64, 0
1, 21829, Note_on_c, 0, 72, 34
1, 21863, Note_off_c, 0, 72, 54
1, 21868, Control_c, 0, 64, 22
1, 21883, Control_c, 0, 64, 45
1, 21906, Control_c, 0, 64, 61
1, 21921, Control_c, 0, 64, 74
1, 21935, Note_off_c, 0, 81, 62
1, 21936, Control_c, 0, 64, 77
1, 21956, Note_on_c, 0, 80, 59
1, 21965, Control_c, 0, 64, 78
1, 21980, Control_c, 0, 64, 80
1, 21994, Control_c, 0, 64, 80
1, 22007, Note_off_c, 0, 33, 41
1, 22025, Control_c, 0, 67, 10
1, 22030, Note_off_c, 0, 80, 62
1, 22040, Control_c, 0, 67, 13
1, 22045, Note_off_c, 0, 45, 39
1, 22055, Control_c, 0, 67, 17
1, 22070, Control_c, 0, 67, 20
1, 22073, Note_on_c, 0, 79, 54
1, 22085, Control_c, 0, 67, 23
1, 22099, Control_c, 0, 67, 26
1, 22114, Control_c, 0, 67, 30
1, 22129, Control_c, 0, 67, 34
1, 22138, Note_off_c, 0, 79, 62
1, 22144, Control_c, 0, 67, 39
1, 22153, Note_on_c, 0, 78, 59
1, 22159, Control_c, 0, 67, 45
1, 22173, Control_c, 0, 67, 49
1, 22176, Note_off_c, 0, 78, 67
1, 22188, Control_c, 0, 67, 50
1, 22203, Control_c, 0, 67, 51
1, 22218, Control_c, 0, 67, 51
1, 22232, Control_c, 0, 67, 52
1, 22240, Note_on_c, 0, 77, 61
1, 22247, Control_c, 0, 67, 54
1, 22262, Control_c, 0, 67, 60
1, 22277, Control_c, 0, 67, 67
1, 22292, Control_c, 0, 67, 73
1, 22306, Control_c, 0, 64, 79
1, 22306, Control_c, 0, 67, 80
1, 22313, Note_on_c, 0, 76, 60
1, 22321, Control_c, 0, 64, 74
1, 22321, Control_c, 0, 67, 86
1, 22336, Control_c, 0, 64, 65
1, 22336, Control_c, 0, 67, 94
1, 22351, Control_c, 0, 64, 53
1, 22351, Control_c, 0, 67, 103
1, 22361, Note_off_c, 0, 77, 34
1, 22366, Control_c, 0, 64, 0
1, 22366, Control_c, 0, 67, 112
1, 22374, Note_off_c, 0, 76, 64
1, 22380, Control_c, 0, 67, 120
1, 22389, Note_on_c, 0, 75, 55
1, 22395, Control_c, 0, 67, 127
1, 22418, Note_off_c, 0, 75, 64
1, 22465, Note_on_c, 0, 74, 56
1, 22535, Note_off_c, 0, 74, 65
1, 22541, Note_on_c, 0, 36, 46
1, 22549, Note_on_c, 0, 73, 59
1, 22553, Note_on_c, 0, 48, 43
1, 22556, Note_on_c, 0, 64, 41
1, 22573, Note_off_c, 0, 36, 49
1, 22574, Note_off_c, 0, 73, 68
1, 22580, Note_off_c, 0, 48, 60
1, 22588, Note_off_c, 0, 64, 52
1, 22626, Note_on_c, 0, 72, 59
1, 22694, Note_off_c, 0, 72, 56
1, 22699, Note_on_c, 0, 71, 60
1, 22740, Note_off_c, 0, 71, 64
1, 22799, Note_on_c, 0, 72, 58
1, 22845, Note_off_c, 0, 72, 62
1, 22856, Note_on_c, 0, 55, 52
1, 22860, Note_on_c, 0, 48, 38
1, 22860, Note_on_c, 0, 60, 41
1, 22862, Note_on_c, 0, 73, 55
1, 22869, Note_on_c, 0, 64, 34
1, 22885, Note_off_c, 0, 55, 68
1, 22885, Note_off_c, 0, 60, 55
1, 22886, Note_on_c, 0, 70, 10
1, 22893, Note_off_c, 0, 48, 55
1, 22900, Note_off_c, 0, 64, 49
1, 22901, Note_off_c, 0, 73, 61
1, 22928, Note_off_c, 0, 70, 28
1, 22928, Note_on_c, 0, 74, 62
1, 22975, Note_off_c, 0, 74, 60
1, 23004, Note_on_c, 0, 75, 63
1, 23061, Note_off_c, 0, 75, 62
1, 23083, Note_on_c, 0, 76, 57
1, 23134, Note_off_c, 0, 76, 63
1, 23157, Note_on_c, 0, 77, 60
1, 23158, Note_on_c, 0, 41, 51
1, 23159, Note_on_c, 0, 69, 58
1, 23187, Note_off_c, 0, 41, 58
1, 23216, Note_off_c, 0, 69, 48
1, 23226, Note_off_c, 0, 77, 52
1, 23229, Note_on_c, 0, 78, 69
1, 23285, Note_off_c, 0, 78, 64
1, 23310, Note_on_c, 0, 79, 55
1, 23361, Note_off_c, 0, 79, 51
1, 23372, Note_on_c, 0, 80, 68
1, 23456, Note_on_c, 0, 81, 74
1, 23459, Note_off_c, 0, 80, 59
1, 23466, Note_on_c, 0, 57, 53
1, 23475, Note_on_c, 0, 48, 49
1, 23489, Note_on_c, 0, 60, 13
1, 23495, Note_off_c, 0, 57, 64
1, 23515, Note_off_c, 0, 48, 66
1, 23519, Note_off_c, 0, 81, 62
1, 23530, Poly_aftertouch_c, 0, 72, 127
1, 23532, Note_off_c, 0, 60, 29
1, 23538, Note_on_c, 0, 76, 62
1, 23554, Poly_aftertouch_c, 0, 72, 0
1, 23571, Note_off_c, 0, 76, 59
1, 23632, Note_on_c, 0, 77, 45
1, 23700, Note_on_c, 0, 74, 66
1, 23706, Note_off_c, 0, 77, 49
1, 23764, Note_off_c, 0, 74, 62
1, 23772, Note_on_c, 0, 70, 62
1, 23777, Note_on_c, 0, 36, 50
1, 23780, Note_on_c, 0, 48, 51
1, 23790, Note_on_c, 0, 73, 56
1, 23806, Note_off_c, 0, 48, 62
1, 23806, Note_off_c, 0, 70, 61
1, 23807, Note_off_c, 0, 36, 52
1, 23815, Note_off_c, 0, 73, 67
1, 23862, Note_on_c, 0, 72, 59
1, 23912, Note_on_c, 0, 71, 67
1, 23918, Note_off_c, 0, 72, 62
1, 23966, Note_off_c, 0, 71, 65
1, 24018, Note_on_c, 0, 72, 57
1, 24050, Note_off_c, 0, 72, 66
1, 24064, Note_on_c, 0, 70, 55
1, 24067, Note_on_c, 0, 73, 57
1, 24073, Note_on_c, 0, 60, 55
1, 24076, Note_on_c, 0, 64, 40
1, 24077, Note_on_c, 0, 48, 48
1, 24085, Note_on_c, 0, 55, 47
1, 24088, Note_off_c, 0, 70, 59
1, 24094, Note_off_c, 0, 60, 63
1, 24104, Note_off_c, 0, 73, 62
1, 24111, Note_off_c, 0, 55, 64
1, 24114, Note_off_c, 0, 64, 49
1, 24121, Note_off_c, 0, 48, 65
1, 24131, Note_on_c, 0, 74, 68
1, 24196, Note_off_c, 0, 74, 63
1, 24212, Control_c, 0, 67, 118
1, 24216, Note_on_c, 0, 75, 63
1, 24227, Control_c, 0, 67, 107
1, 24242, Control_c, 0, 67, 91
1, 24257, Control_c, 0, 67, 70
1, 24271, Control_c, 0, 67, 38
1, 24280, Note_off_c, 0, 75, 61
1, 24284, Note_on_c, 0, 76, 67
1, 24286, Control_c, 0, 67, 0
1, 24333, Note_off_c, 0, 76, 56
1, 24369, Note_on_c, 0, 77, 77
1, 24376, Note_on_c, 0, 68, 62
1, 24377, Note_on_c, 0, 37, 77
1, 24380, Note_on_c, 0, 65, 60
1, 24390, Control_c, 0, 64, 31
1, 24396, Note_off_c, 0, 68, 60
1, 24399, Note_off_c, 0, 65, 65
1, 24404, Control_c, 0, 64, 56
1, 24414, Note_off_c, 0, 37, 64
1, 24420, Control_c, 0, 64, 81
1, 24435, Control_c, 0, 64, 127
1, 24459, Note_off_c, 0, 77, 52
1, 24477, Note_on_c, 0, 78, 69
1, 24536, Note_off_c, 0, 78, 65
1, 24565, Note_on_c, 0, 79, 65
1, 24633, Note_off_c, 0, 79, 61
1, 24638, Note_on_c, 0, 80, 68
1, 24657, Control_c, 0, 64, 114
1, 24672, Control_c, 0, 64, 78
1, 24687, Control_c, 0, 64, 61
1, 24688, Note_off_c, 0, 80, 61
1, 24702, Control_c, 0, 64, 39
1, 24717, Control_c, 0, 64, 0
1, 24732, Note_on_c, 0, 79, 67
1, 24734, Note_on_c, 0, 56, 56
1, 24741, Note_on_c, 0, 49, 53
1, 24745, Note_on_c, 0, 71, 38
1, 24763, Note_off_c, 0, 56, 67
1, 24773, Note_off_c, 0, 49, 67
1, 24776, Note_on_c, 0, 59, 3
1, 24791, Control_c, 0, 67, 8
1, 24795, Note_on_c, 0, 78, 70
1, 24796, Note_off_c, 0, 79, 61
1, 24802, Note_off_c, 0, 71, 49
1, 24806, Control_c, 0, 67, 10
1, 24815, Note_off_c, 0, 59, 26
1, 24818, Note_off_c, 0, 78, 71
1, 24820, Control_c, 0, 67, 13
1, 24835, Control_c, 0, 67, 17
1, 24850, Control_c, 0, 67, 23
1, 24865, Control_c, 0, 67, 29
1, 24880, Control_c, 0, 67, 36
1, 24898, Note_on_c, 0, 77, 56
1, 24902, Control_c, 0, 67, 41
1, 24916, Control_c, 0, 67, 46
1, 24931, Control_c, 0, 67, 51
1, 24940, Note_on_c, 0, 76, 63
1, 24945, Control_c, 0, 67, 57
1, 24960, Control_c, 0, 67, 64
1, 24975, Control_c, 0, 67, 70
1, 24990, Control_c, 0, 67, 76
1, 24991, Note_off_c, 0, 77, 56
1, 25005, Control_c, 0, 67, 83
1, 25009, Note_off_c, 0, 76, 64
1, 25019, Control_c, 0, 67, 91
1, 25020, Note_on_c, 0, 75, 55
1, 25034, Control_c, 0, 67, 100
1, 25036, Note_on_c, 0, 38, 55
1, 25042, Note_off_c, 0, 75, 64
1, 25044, Note_on_c, 0, 72, 50
1, 25049, Control_c, 0, 67, 106
1, 25064, Control_c, 0, 67, 111
1, 25069, Note_off_c, 0, 38, 63
1, 25075, Note_off_c, 0, 72, 51
1, 25079, Control_c, 0, 67, 116
1, 25093, Control_c, 0, 67, 121
1, 25108, Control_c, 0, 67, 127
1, 25115, Note_on_c, 0, 74, 56
1, 25158, Note_off_c, 0, 74, 63
1, 25163, Note_on_c, 0, 73, 65
1, 25198, Note_off_c, 0, 73, 59
1, 25251, Note_on_c, 0, 74, 52
1, 25272, Control_c, 0, 67, 126
1, 25287, Control_c, 0, 67, 124
1, 25292, Note_off_c, 0, 74, 65
1, 25302, Control_c, 0, 67, 123
1, 25313, Note_on_c, 0, 75, 65
1, 25316, Control_c, 0, 67, 122
1, 25331, Note_on_c, 0, 66, 43
1, 25331, Control_c, 0, 67, 122
1, 25337, Note_on_c, 0, 50, 52
1, 25343, Note_on_c, 0, 57, 43
1, 25347, Note_on_c, 0, 60, 34
1, 25358, Note_off_c, 0, 66, 57
1, 25369, Note_off_c, 0, 57, 57
1, 25369, Note_off_c, 0, 50, 65
1, 25373, Note_off_c, 0, 75, 63
1, 25379, Note_off_c, 0, 60, 49
1, 25389, Note_on_c, 0, 76, 55
1, 25390, Control_c, 0, 67, 121
1, 25405, Control_c, 0, 67, 121
1, 25442, Note_off_c, 0, 76, 65
1, 25457, Note_on_c, 0, 77, 63
1, 25465, Control_c, 0, 67, 120
1, 25480, Control_c, 0, 67, 119
1, 25495, Control_c, 0, 67, 118
1, 25510, Control_c, 0, 67, 117
1, 25519, Note_off_c, 0, 77, 61
1, 25537, Note_on_c, 0, 78, 64
1, 25584, Note_off_c, 0, 78, 65
1, 25618, Note_on_c, 0, 79, 60
1, 25626, Note_on_c, 0, 43, 52
1, 25627, Note_on_c, 0, 70, 54
1, 25659, Note_off_c, 0, 70, 62
1, 25665, Note_off_c, 0, 43, 57
1, 25694, Note_off_c, 0, 79, 51
1, 25707, Note_on_c, 0, 80, 61
1, 25754, Control_c, 0, 67, 117
1, 25761, Note_off_c, 0, 80, 62
1, 25775, Note_on_c, 0, 81, 64
1, 25828, Control_c, 0, 67, 118
1, 25843, Note_on_c, 0, 82, 71
1, 25850, Note_off_c, 0, 81, 59
1, 25887, Control_c, 0, 67, 118
1, 25899, Note_off_c, 0, 82, 64
1, 25931, Note_on_c, 0, 81, 73
1, 25931, Control_c, 0, 67, 119
1, 25935, Note_on_c, 0, 58, 49
1, 25940, Note_on_c, 0, 50, 50
1, 25943, Note_on_c, 0, 55, 44
1, 25943, Note_on_c, 0, 74, 52
1, 25946, Control_c, 0, 67, 119
1, 25959, Note_off_c, 0, 58, 58
1, 25969, Note_off_c, 0, 55, 59
1, 25970, Note_off_c, 0, 50, 65
1, 26003, Note_off_c, 0, 81, 62
1, 26011, Note_on_c, 0, 78, 65
1, 26011, Note_off_c, 0, 74, 65
1, 26039, Note_off_c, 0, 78, 71
1, 26051, Control_c, 0, 67, 119
1, 26065, Control_c, 0, 67, 118
1, 26080, Control_c, 0, 67, 118
1, 26082, Note_on_c, 0, 79, 70
1, 26110, Control_c, 0, 67, 117
1, 26125, Control_c, 0, 67, 117
1, 26139, Control_c, 0, 67, 114
1, 26154, Control_c, 0, 67, 109
1, 26156, Note_off_c, 0, 79, 60
1, 26168, Note_on_c, 0, 75, 67
1, 26169, Control_c, 0, 67, 102
1, 26184, Control_c, 0, 67, 93
1, 26198, Control_c, 0, 67, 84
1, 26213, Control_c, 0, 67, 71
1, 26228, Control_c, 0, 67, 56
1, 26231, Note_on_c, 0, 38, 59
1, 26234, Note_on_c, 0, 74, 51
1, 26234, Note_off_c, 0, 75, 61
1, 26243, Control_c, 0, 67, 42
1, 26247, Note_on_c, 0, 72, 64
1, 26258, Control_c, 0, 67, 34
1, 26264, Note_off_c, 0, 38, 62
1, 26273, Control_c, 0, 67, 26
1, 26287, Note_off_c, 0, 72, 61
1, 26288, Control_c, 0, 67, 15
1, 26303, Control_c, 0, 67, 0
1, 26317, Note_off_c, 0, 74, 64
1, 26325, Note_on_c, 0, 75, 57
1, 26380, Note_off_c, 0, 75, 62
1, 26391, Note_on_c, 0, 73, 70
1, 26446, Note_off_c, 0, 73, 64
1, 26470, Note_on_c, 0, 74, 60
1, 26517, Control_c, 0, 64, 10
1, 26529, Note_off_c, 0, 74, 63
1, 26532, Control_c, 0, 64, 11
1, 26535, Note_on_c, 0, 72, 42
1, 26538, Note_on_c, 0, 66, 55
1, 26544, Note_on_c, 0, 75, 67
1, 26547, Control_c, 0, 64, 0
1, 26548, Note_on_c, 0, 50, 58
1, 26554, Note_on_c, 0, 57, 55
1, 26560, Note_on_c, 0, 60, 42
1, 26565, Note_off_c, 0, 72, 55
1, 26583, Note_off_c, 0, 57, 64
1, 26583, Note_off_c, 0, 66, 62
1, 26589, Note_off_c, 0, 60, 54
1, 26590, Note_off_c, 0, 50, 65
1, 26605, Note_off_c, 0, 75, 63
1, 26608, Note_on_c, 0, 76, 57
1, 26670, Note_off_c, 0, 76, 64
1, 26688, Note_on_c, 0, 77, 57
1, 26750, Note_on_c, 0, 78, 74
1, 26756, Note_off_c, 0, 77, 57
1, 26832, Note_on_c, 0, 79, 77
1, 26833, Note_on_c, 0, 39, 74
1, 26833, Note_on_c, 0, 70, 74
1, 26837, Note_on_c, 0, 67, 73
1, 26844, Control_c, 0, 64, 21
1, 26851, Note_off_c, 0, 78, 63
1, 26859, Control_c, 0, 64, 58
1, 26860, Note_off_c, 0, 70, 67
1, 26863, Note_off_c, 0, 39, 70
1, 26863, Note_off_c, 0, 67, 70
1, 26874, Control_c, 0, 64, 127
1, 26935, Note_off_c, 0, 79, 58
1, 26941, Note_on_c, 0, 80, 70
1, 27000, Note_off_c, 0, 80, 63
1, 27030, Note_on_c, 0, 81, 56
1, 27085, Note_on_c, 0, 82, 69
1, 27085, Note_off_c, 0, 81, 61
1, 27096, Control_c, 0, 64, 108
1, 27110, Control_c, 0, 64, 73
1, 27125, Control_c, 0, 64, 59
1, 27148, Control_c, 0, 64, 29
1, 27155, Note_off_c, 0, 82, 59
1, 27163, Control_c, 0, 64, 0
1, 27170, Note_on_c, 0, 81, 73
1, 27174, Note_on_c, 0, 58, 62
1, 27179, Note_on_c, 0, 73, 56
1, 27185, Note_on_c, 0, 51, 51
1, 27188, Note_on_c, 0, 61, 38
1, 27203, Note_off_c, 0, 58, 66
1, 27215, Note_off_c, 0, 51, 67
1, 27219, Note_off_c, 0, 61, 56
1, 27239, Note_off_c, 0, 81, 61
1, 27242, Note_on_c, 0, 80, 70
1, 27258, Note_off_c, 0, 73, 61
1, 27272, Note_off_c, 0, 80, 65
1, 27327, Note_on_c, 0, 79, 68
1, 27386, Note_off_c, 0, 79, 59
1, 27392, Note_on_c, 0, 78, 68
1, 27437, Note_off_c, 0, 78, 64
1, 27474, Note_on_c, 0, 77, 68
1, 27474, Note_on_c, 0, 74, 39
1, 27475, Note_on_c, 0, 40, 62
1, 27504, Note_off_c, 0, 74, 54
1, 27507, Note_off_c, 0, 40, 65
1, 27546, Note_on_c, 0, 76, 73
1, 27551, Note_off_c, 0, 77, 61
1, 27594, Note_off_c, 0, 76, 65
1, 27611, Note_on_c, 0, 75, 56
1, 27674, Note_on_c, 0, 76, 53
1, 27695, Note_off_c, 0, 75, 36
1, 27719, Note_off_c, 0, 76, 58
1, 27751, Note_on_c, 0, 68, 59
1, 27755, Note_on_c, 0, 77, 61
1, 27761, Note_on_c, 0, 52, 63
1, 27769, Note_on_c, 0, 62, 51
1, 27774, Note_on_c, 0, 59, 52
1, 27780, Note_off_c, 0, 68, 53
1, 27784, Control_c, 0, 64, 13
1, 27793, Note_off_c, 0, 62, 60
1, 27799, Control_c, 0, 64, 17
1, 27802, Note_off_c, 0, 52, 65
1, 27802, Note_off_c, 0, 59, 65
1, 27814, Control_c, 0, 64, 19
1, 27826, Note_off_c, 0, 77, 62
1, 27829, Control_c, 0, 64, 19
1, 27835, Note_on_c, 0, 78, 67
1, 27877, Note_off_c, 0, 78, 65
1, 27922, Note_on_c, 0, 79, 57
1, 27925, Control_c, 0, 64, 18
1, 27940, Control_c, 0, 64, 14
1, 27955, Control_c, 0, 64, 0
1, 27978, Note_off_c, 0, 79, 59
1, 27981, Note_on_c, 0, 80, 71
1, 28034, Note_off_c, 0, 80, 62
1, 28061, Note_on_c, 0, 81, 67
1, 28064, Note_on_c, 0, 72, 35
1, 28074, Note_on_c, 0, 45, 64
1, 28097, Note_off_c, 0, 72, 49
1, 28105, Note_off_c, 0, 45, 64
1, 28131, Note_off_c, 0, 81, 62
1, 28136, Note_on_c, 0, 82, 72
1, 28204, Note_on_c, 0, 83, 65
1, 28205, Note_off_c, 0, 82, 65
1, 28278, Note_off_c, 0, 83, 64
1, 28283, Note_on_c, 0, 84, 62
1, 28350, Note_on_c, 0, 83, 71
1, 28368, Note_on_c, 0, 52, 57
1, 28374, Note_off_c, 0, 84, 61
1, 28374, Note_on_c, 0, 60, 47
1, 28376, Note_on_c, 0, 76, 54
1, 28377, Note_on_c, 0, 64, 34
1, 28383, Note_on_c, 0, 57, 35
1, 28398, Note_off_c, 0, 60, 60
1, 28413, Note_off_c, 0, 64, 33
1, 28414, Note_off_c, 0, 52, 67
1, 28415, Note_off_c, 0, 57, 47
1, 28424, Note_off_c, 0, 83, 63
1, 28425, Note_on_c, 0, 82, 62
1, 28450, Note_off_c, 0, 76, 53
1, 28455, Note_off_c, 0, 82, 69
1, 28511, Note_on_c, 0, 81, 70
1, 28579, Note_off_c, 0, 81, 61
1, 28582, Note_on_c, 0, 80, 75
1, 28622, Note_off_c, 0, 80, 63
1, 28659, Note_on_c, 0, 40, 68
1, 28683, Note_on_c, 0, 74, 52
1, 28683, Note_on_c, 0, 79, 64
1, 28697, Note_off_c, 0, 40, 64
1, 28738, Note_off_c, 0, 74, 42
1, 28750, Note_on_c, 0, 78, 71
1, 28756, Note_off_c, 0, 79, 61
1, 28774, Note_off_c, 0, 78, 71
1, 28833, Note_on_c, 0, 77, 73
1, 28880, Note_on_c, 0, 76, 62
1, 28886, Note_off_c, 0, 77, 58
1, 28946, Note_off_c, 0, 76, 53
1, 28970, Note_on_c, 0, 68, 61
1, 28974, Note_on_c, 0, 77, 59
1, 28977, Note_on_c, 0, 52, 63
1, 28979, Note_on_c, 0, 59, 62
1, 28979, Note_on_c, 0, 62, 58
1, 29001, Note_off_c, 0, 62, 63
1, 29005, Note_off_c, 0, 68, 61
1, 29007, Note_off_c, 0, 59, 64
1, 29012, Note_off_c, 0, 52, 66
1, 29060, Note_off_c, 0, 77, 64
1, 29063, Note_on_c, 0, 78, 69
1, 29118, Note_off_c, 0, 78, 61
1, 29155, Note_on_c, 0, 79, 60
1, 29205, Note_off_c, 0, 79, 55
1, 29209, Note_on_c, 0, 80, 62
1, 29260, Note_off_c, 0, 80, 62
1, 29281, Note_on_c, 0, 45, 67
1, 29284, Note_on_c, 0, 57, 66
1, 29288, Note_on_c, 0, 81, 71
1, 29294, Note_on_c, 0, 72, 29
1, 29327, Control_c, 0, 64, 17
1, 29342, Control_c, 0, 64, 48
1, 29343, Note_off_c, 0, 72, 44
1, 29353, Note_on_c, 0, 82, 74
1, 29356, Control_c, 0, 64, 64
1, 29357, Note_off_c, 0, 81, 61
1, 29371, Control_c, 0, 64, 84
1, 29394, Control_c, 0, 64, 127
1, 29397, Note_off_c, 0, 57, 58
1, 29440, Note_off_c, 0, 82, 65
1, 29446, Note_on_c, 0, 83, 68
1, 29506, Note_off_c, 0, 83, 65
1, 29515, Note_on_c, 0, 84, 65
1, 29542, Control_c, 0, 64, 84
1, 29557, Control_c, 0, 64, 65
1, 29572, Control_c, 0, 64, 51
1, 29587, Control_c, 0, 64, 28
1, 29599, Note_on_c, 0, 55, 81
1, 29601, Note_on_c, 0, 85, 78
1, 29602, Control_c, 0, 64, 26
1, 29603, Note_on_c, 0, 43, 74
1, 29603, Note_on_c, 0, 76, 67
1, 29608, Note_off_c, 0, 45, 46
1, 29612, Note_off_c, 0, 84, 62
1, 29615, Note_on_c, 0, 81, 62
1, 29616, Control_c, 0, 64, 43
1, 29631, Control_c, 0, 64, 63
1, 29646, Control_c, 0, 64, 90
1, 29650, Note_off_c, 0, 81, 64
1, 29661, Control_c, 0, 64, 127
1, 29665, Note_off_c, 0, 76, 63
1, 29693, Note_off_c, 0, 85, 63
1, 29696, Note_on_c, 0, 86, 75
1, 29720, Note_off_c, 0, 55, 60
1, 29749, Note_off_c, 0, 86, 57
1, 29778, Note_on_c, 0, 87, 81
1, 29847, Note_on_c, 0, 88, 81
1, 29849, Note_off_c, 0, 87, 68
1, 29868, Control_c, 0, 64, 106
1, 29883, Control_c, 0, 64, 70
1, 29898, Control_c, 0, 64, 56
1, 29912, Control_c, 0, 64, 20
1, 29927, Note_off_c, 0, 43, 58
1, 29927, Control_c, 0, 64, 0
1, 29936, Note_on_c, 0, 89, 92
1, 29936, Note_on_c, 0, 81, 89
1, 29939, Note_on_c, 0, 53, 83
1, 29942, Note_on_c, 0, 41, 74
1, 29969, Note_off_c, 0, 88, 65
1, 29972, Control_c, 0, 64, 37
1, 29987, Control_c, 0, 64, 63
1, 30002, Control_c, 0, 64, 127
1, 30050, Note_on_c, 0, 88, 81
1, 30059, Note_off_c, 0, 41, 63
1, 30092, Note_off_c, 0, 53, 66
1, 30104, Note_off_c, 0, 89, 60
1, 30148, Note_on_c, 0, 87, 76
1, 30177, Note_off_c, 0, 88, 63
1, 30208, Note_off_c, 0, 81, 60
1, 30215, Note_off_c, 0, 87, 65
1, 30252, Note_on_c, 0, 86, 67
1, 30291, Control_c, 0, 64, 72
1, 30306, Control_c, 0, 64, 46
1, 30321, Control_c, 0, 64, 0
1, 30321, Note_on_c, 0, 59, 88
1, 30327, Note_on_c, 0, 47, 79
1, 30331, Note_on_c, 0, 77, 69
1, 30331, Note_on_c, 0, 85, 80
1, 30350, Note_off_c, 0, 86, 61
1, 30380, Control_c, 0, 64, 25
1, 30383, Note_off_c, 0, 85, 67
1, 30389, Note_off_c, 0, 77, 61
1, 30395, Control_c, 0, 64, 55
1, 30410, Control_c, 0, 64, 79
1, 30425, Control_c, 0, 64, 127
1, 30432, Note_on_c, 0, 84, 69
1, 30506, Note_on_c, 0, 83, 76
1, 30550, Note_off_c, 0, 84, 60
1, 30559, Note_off_c, 0, 83, 63
1, 30569, Note_on_c, 0, 82, 56
1, 30571, Note_off_c, 0, 47, 58
1, 30591, Note_off_c, 0, 82, 63
1, 30640, Note_on_c, 0, 74, 65
1, 30646, Note_on_c, 0, 81, 71
1, 30712, Note_on_c, 0, 80, 76
1, 30720, Note_off_c, 0, 74, 53
1, 30724, Note_off_c, 0, 81, 59
1, 30761, Note_off_c, 0, 80, 63
1, 30805, Note_on_c, 0, 79, 71
1, 30863, Note_on_c, 0, 78, 76
1, 30869, Control_c, 0, 64, 98
1, 30872, Note_off_c, 0, 79, 61
1, 30892, Control_c, 0, 64, 69
1, 30907, Control_c, 0, 64, 55
1, 30922, Control_c, 0, 64, 28
1, 30931, Note_off_c, 0, 78, 65
1, 30936, Control_c, 0, 64, 11
1, 30951, Control_c, 0, 64, 35
1, 30963, Note_on_c, 0, 77, 76
1, 30966, Control_c, 0, 64, 55
1, 30968, Note_on_c, 0, 68, 60
1, 30969, Note_on_c, 0, 64, 78
1, 30970, Note_on_c, 0, 52, 75
1, 30981, Control_c, 0, 64, 73
1, 30989, Note_off_c, 0, 68, 64
1, 30995, Note_off_c, 0, 64, 66
1, 30995, Control_c, 0, 64, 127
1, 31014, Note_off_c, 0, 59, 59
1, 31030, Note_off_c, 0, 52, 66
1, 31045, Note_on_c, 0, 76, 67
1, 31074, Note_off_c, 0, 77, 60
1, 31084, Control_c, 0, 64, 122
1, 31099, Control_c, 0, 64, 119
1, 31111, Note_on_c, 0, 75, 72
1, 31120, Note_off_c, 0, 76, 63
1, 31144, Control_c, 0, 64, 127
1, 31179, Note_off_c, 0, 75, 65
1, 31182, Note_on_c, 0, 76, 76
1, 31215, Note_off_c, 0, 76, 65
1, 31233, Control_c, 0, 64, 70
1, 31248, Control_c, 0, 64, 46
1, 31262, Control_c, 0, 64, 0
1, 31308, Note_on_c, 0, 39, 70
1, 31311, Note_on_c, 0, 51, 74
1, 31312, Note_on_c, 0, 87, 86
1, 31316, Note_on_c, 0, 79, 74
1, 31321, Control_c, 0, 64, 14
1, 31336, Control_c, 0, 64, 52
1, 31343, Note_off_c, 0, 51, 63
1, 31346, Note_off_c, 0, 39, 66
1, 31351, Control_c, 0, 64, 79
1, 31358, Note_off_c, 0, 79, 49
1, 31366, Control_c, 0, 64, 127
1, 31393, Note_off_c, 0, 87, 57
1, 31402, Note_on_c, 0, 86, 74
1, 31473, Note_off_c, 0, 86, 62
1, 31474, Note_on_c, 0, 85, 72
1, 31509, Note_off_c, 0, 85, 63
1, 31564, Note_on_c, 0, 84, 70
1, 31603, Control_c, 0, 64, 84
1, 31618, Control_c, 0, 64, 61
1, 31641, Control_c, 0, 64, 27
1, 31644, Note_on_c, 0, 57, 97
1, 31651, Note_on_c, 0, 45, 78
1, 31653, Note_on_c, 0, 83, 70
1, 31656, Control_c, 0, 64, 0
1, 31660, Note_on_c, 0, 75, 70
1, 31671, Note_off_c, 0, 84, 63
1, 31678, Note_on_c, 0, 82, 60
1, 31684, Control_c, 0, 64, 30
1, 31699, Control_c, 0, 64, 51
1, 31701, Note_off_c, 0, 83, 66
1, 31714, Control_c, 0, 64, 69
1, 31716, Note_off_c, 0, 82, 64
1, 31729, Control_c, 0, 64, 127
1, 31732, Note_off_c, 0, 75, 58
1, 31789, Note_on_c, 0, 81, 71
1, 31832, Control_c, 0, 64, 109
1, 31847, Control_c, 0, 64, 76
1, 31862, Control_c, 0, 64, 62
1, 31868, Note_on_c, 0, 80, 75
1, 31877, Control_c, 0, 64, 52
1, 31880, Note_off_c, 0, 81, 60
1, 31892, Control_c, 0, 64, 51
1, 31899, Note_off_c, 0, 80, 65
1, 31907, Control_c, 0, 64, 60
1, 31922, Control_c, 0, 64, 78
1, 31936, Control_c, 0, 64, 101
1, 31944, Note_off_c, 0, 45, 60
1, 31951, Control_c, 0, 64, 102
1, 31961, Note_on_c, 0, 79, 75
1, 31966, Control_c, 0, 64, 103
1, 31967, Note_on_c, 0, 72, 60
1, 32023, Note_off_c, 0, 79, 60
1, 32041, Note_on_c, 0, 78, 58
1, 32062, Note_off_c, 0, 78, 69
1, 32076, Note_off_c, 0, 72, 33
1, 32084, Control_c, 0, 64, 103
1, 32099, Control_c, 0, 64, 105
1, 32102, Note_on_c, 0, 77, 70
1, 32114, Control_c, 0, 64, 105
1, 32158, Control_c, 0, 64, 105
1, 32166, Note_on_c, 0, 76, 70
1, 32173, Control_c, 0, 64, 90
1, 32188, Control_c, 0, 64, 70
1, 32202, Control_c, 0, 64, 54
1, 32217, Control_c, 0, 64, 32
1, 32226, Note_off_c, 0, 77, 58
1, 32232, Control_c, 0, 64, 29
1, 32243, Note_on_c, 0, 72, 49
1, 32247, Note_off_c, 0, 76, 63
1, 32247, Control_c, 0, 64, 45
1, 32258, Note_on_c, 0, 75, 66
1, 32259, Note_on_c, 0, 66, 57
1, 32261, Note_on_c, 0, 50, 68
1, 32262, Note_on_c, 0, 62, 73
1, 32262, Control_c, 0, 64, 59
1, 32273, Note_off_c, 0, 72, 56
1, 32276, Control_c, 0, 64, 75
1, 32287, Note_off_c, 0, 62, 69
1, 32291, Note_off_c, 0, 66, 65
1, 32291, Control_c, 0, 64, 113
1, 32301, Note_off_c, 0, 50, 60
1, 32303, Note_off_c, 0, 57, 60
1, 32306, Control_c, 0, 64, 117
1, 32308, Note_off_c, 0, 75, 63
1, 32336, Control_c, 0, 64, 115
1, 32351, Control_c, 0, 64, 106
1, 32359, Note_on_c, 0, 74, 73
1, 32366, Control_c, 0, 64, 103
1, 32388, Control_c, 0, 64, 102
1, 32437, Note_off_c, 0, 74, 65
1, 32446, Note_on_c, 0, 73, 59
1, 32449, Control_c, 0, 64, 103
1, 32464, Control_c, 0, 64, 101
1, 32467, Note_off_c, 0, 73, 67
1, 32479, Control_c, 0, 64, 85
1, 32494, Control_c, 0, 64, 64
1, 32508, Control_c, 0, 64, 42
1, 32523, Note_on_c, 0, 74, 63
1, 32523, Control_c, 0, 64, 0
1, 32553, Note_off_c, 0, 74, 58
1, 32589, Note_on_c, 0, 43, 65
1, 32593, Note_on_c, 0, 86, 78
1, 32594, Note_on_c, 0, 55, 65
1, 32594, Note_on_c, 0, 79, 72
1, 32612, Control_c, 0, 64, 43
1, 32614, Note_off_c, 0, 79, 67
1, 32618, Note_off_c, 0, 43, 63
1, 32625, Note_off_c, 0, 55, 68
1, 32627, Control_c, 0, 64, 61
1, 32641, Control_c, 0, 64, 78
1, 32656, Control_c, 0, 64, 83
1, 32666, Note_on_c, 0, 85, 75
1, 32671, Control_c, 0, 64, 83
1, 32681, Note_off_c, 0, 86, 54
1, 32686, Control_c, 0, 64, 88
1, 32701, Control_c, 0, 64, 94
1, 32713, Note_off_c, 0, 85, 65
1, 32715, Control_c, 0, 64, 95
1, 32759, Control_c, 0, 64, 96
1, 32768, Note_on_c, 0, 84, 60
1, 32774, Control_c, 0, 64, 97
1, 32789, Control_c, 0, 64, 98
1, 32819, Note_on_c, 0, 83, 73
1, 32834, Control_c, 0, 64, 90
1, 32849, Control_c, 0, 64, 73
1, 32856, Note_off_c, 0, 84, 60
1, 32864, Control_c, 0, 64, 60
1, 32878, Control_c, 0, 64, 30
1, 32893, Control_c, 0, 64, 0
1, 32900, Note_on_c, 0, 82, 67
1, 32902, Note_off_c, 0, 83, 57
1, 32905, Note_on_c, 0, 79, 7
1, 32909, Note_on_c, 0, 63, 80
1, 32911, Note_on_c, 0, 51, 68
1, 32921, Note_on_c, 0, 73, 57
1, 32923, Control_c, 0, 64, 38
1, 32938, Control_c, 0, 64, 57
1, 32943, Note_off_c, 0, 73, 67
1, 32952, Control_c, 0, 64, 76
1, 32954, Note_off_c, 0, 79, 37
1, 32955, Note_off_c, 0, 82, 65
1, 32967, Control_c, 0, 64, 111
1, 32997, Control_c, 0, 64, 113
1, 32999, Note_on_c, 0, 81, 78
1, 33070, Note_off_c, 0, 81, 60
1, 33072, Note_on_c, 0, 80, 71
1, 33078, Note_off_c, 0, 63, 62
1, 33095, Note_off_c, 0, 80, 69
1, 33096, Note_off_c, 0, 51, 63
1, 33138, Control_c, 0, 64, 106
1, 33153, Control_c, 0, 64, 87
1, 33159, Note_on_c, 0, 79, 61
1, 33167, Control_c, 0, 64, 67
1, 33182, Control_c, 0, 64, 54
1, 33197, Control_c, 0, 64, 23
1, 33212, Control_c, 0, 64, 0
1, 33225, Note_on_c, 0, 62, 72
1, 33227, Note_off_c, 0, 79, 64
1, 33228, Note_on_c, 0, 50, 64
1, 33230, Note_on_c, 0, 74, 56
1, 33234, Note_on_c, 0, 78, 69
1, 33237, Note_on_c, 0, 69, 49
1, 33242, Control_c, 0, 64, 37
1, 33255, Note_off_c, 0, 62, 65
1, 33257, Control_c, 0, 64, 57
1, 33261, Note_off_c, 0, 74, 65
1, 33262, Note_off_c, 0, 50, 65
1, 33270, Note_off_c, 0, 69, 53
1, 33272, Control_c, 0, 64, 72
1, 33287, Control_c, 0, 64, 98
1, 33302, Control_c, 0, 64, 101
1, 33305, Note_off_c, 0, 78, 65
1, 33316, Control_c, 0, 64, 102
1, 33323, Note_on_c, 0, 79, 60
1, 33331, Control_c, 0, 64, 103
1, 33361, Control_c, 0, 64, 103
1, 33376, Control_c, 0, 64, 108
1, 33376, Note_off_c, 0, 79, 62
1, 33382, Note_on_c, 0, 80, 67
1, 33390, Control_c, 0, 64, 127
1, 33440, Note_off_c, 0, 80, 61
1, 33450, Control_c, 0, 64, 114
1, 33463, Note_on_c, 0, 81, 69
1, 33464, Control_c, 0, 64, 84
1, 33479, Control_c, 0, 64, 65
1, 33494, Control_c, 0, 64, 49
1, 33509, Control_c, 0, 64, 0
1, 33527, Note_off_c, 0, 81, 62
1, 33528, Note_on_c, 0, 82, 76
1, 33531, Note_on_c, 0, 57, 76
1, 33534, Note_on_c, 0, 45, 70
1, 33548, Note_on_c, 0, 72, 52
1, 33553, Control_c, 0, 64, 29
1, 33568, Control_c, 0, 64, 48
1, 33579, Note_off_c, 0, 72, 49
1, 33582, Control_c, 0, 64, 64
1, 33597, Control_c, 0, 64, 84
1, 33609, Note_off_c, 0, 57, 56
1, 33612, Control_c, 0, 64, 95
1, 33619, Note_on_c, 0, 83, 68
1, 33619, Note_off_c, 0, 82, 66
1, 33627, Control_c, 0, 64, 99
1, 33642, Control_c, 0, 64, 111
1, 33656, Control_c, 0, 64, 117
1, 33671, Control_c, 0, 64, 119
1, 33686, Control_c, 0, 64, 127
1, 33689, Note_on_c, 0, 84, 71
1, 33689, Note_off_c, 0, 83, 64
1, 33746, Control_c, 0, 64, 109
1, 33761, Control_c, 0, 64, 82
1, 33770, Note_on_c, 0, 83, 57
1, 33773, Note_off_c, 0, 84, 60
1, 33775, Control_c, 0, 64, 66
1, 33790, Control_c, 0, 64, 53
1, 33799, Note_off_c, 0, 83, 68
1, 33805, Control_c, 0, 64, 25
1, 33814, Note_off_c, 0, 45, 57
1, 33820, Control_c, 0, 64, 0
1, 33849, Control_c, 0, 64, 28
1, 33850, Note_on_c, 0, 77, 75
1, 33854, Note_on_c, 0, 86, 77
1, 33856, Note_on_c, 0, 41, 71
1, 33857, Note_on_c, 0, 81, 69
1, 33864, Control_c, 0, 64, 51
1, 33865, Note_on_c, 0, 53, 66
1, 33883, Note_off_c, 0, 77, 62
1, 33886, Control_c, 0, 64, 69
1, 33892, Note_off_c, 0, 81, 65
1, 33895, Note_off_c, 0, 41, 65
1, 33901, Control_c, 0, 64, 127
1, 33910, Note_off_c, 0, 53, 62
1, 33952, Note_on_c, 0, 84, 72
1, 33985, Note_off_c, 0, 86, 60
1, 34005, Note_on_c, 0, 82, 60
1, 34010, Note_off_c, 0, 84, 62
1, 34036, Note_off_c, 0, 82, 68
1, 34107, Note_on_c, 0, 81, 54
1, 34124, Note_on_c, 0, 83, 18
1, 34124, Control_c, 0, 64, 82
1, 34139, Control_c, 0, 64, 63
1, 34154, Control_c, 0, 64, 42
1, 34162, Note_off_c, 0, 83, 56
1, 34169, Control_c, 0, 64, 0
1, 34169, Note_on_c, 0, 80, 74
1, 34183, Note_off_c, 0, 81, 62
1, 34184, Note_on_c, 0, 61, 66
1, 34186, Note_on_c, 0, 71, 45
1, 34192, Note_on_c, 0, 49, 61
1, 34213, Control_c, 0, 64, 37
1, 34214, Note_off_c, 0, 80, 61
1, 34228, Control_c, 0, 64, 56
1, 34229, Note_off_c, 0, 71, 47
1, 34243, Control_c, 0, 64, 75
1, 34258, Control_c, 0, 64, 127
1, 34268, Note_on_c, 0, 79, 67
1, 34327, Note_off_c, 0, 79, 62
1, 34333, Note_on_c, 0, 78, 75
1, 34348, Note_off_c, 0, 49, 64
1, 34353, Note_off_c, 0, 61, 64
1, 34368, Note_off_c, 0, 78, 65
1, 34405, Control_c, 0, 64, 99
1, 34408, Note_on_c, 0, 77, 68
1, 34420, Control_c, 0, 64, 74
1, 34435, Control_c, 0, 64, 60
1, 34450, Control_c, 0, 64, 37
1, 34465, Control_c, 0, 64, 0
1, 34486, Note_on_c, 0, 76, 75
1, 34488, Note_on_c, 0, 60, 64
1, 34491, Note_on_c, 0, 48, 62
1, 34494, Control_c, 0, 64, 36
1, 34496, Note_off_c, 0, 77, 61
1, 34498, Note_on_c, 0, 67, 57
1, 34509, Control_c, 0, 64, 56
1, 34516, Note_off_c, 0, 60, 67
1, 34520, Note_off_c, 0, 48, 66
1, 34524, Control_c, 0, 64, 76
1, 34527, Note_off_c, 0, 76, 62
1, 34529, Note_off_c, 0, 67, 57
1, 34539, Control_c, 0, 64, 127
1, 34572, Note_on_c, 0, 77, 68
1, 34654, Note_on_c, 0, 78, 73
1, 34657, Note_off_c, 0, 77, 58
1, 34718, Note_off_c, 0, 78, 65
1, 34739, Control_c, 0, 64, 110
1, 34745, Note_on_c, 0, 79, 70
1, 34753, Control_c, 0, 64, 78
1, 34768, Control_c, 0, 64, 61
1, 34783, Control_c, 0, 64, 38
1, 34798, Control_c, 0, 64, 0
1, 34811, Note_on_c, 0, 70, 57
1, 34817, Note_on_c, 0, 55, 78
1, 34818, Note_on_c, 0, 80, 72
1, 34820, Note_on_c, 0, 43, 78
1, 34822, Note_off_c, 0, 79, 63
1, 34843, Control_c, 0, 64, 32
1, 34851, Note_off_c, 0, 70, 52
1, 34858, Control_c, 0, 64, 52
1, 34867, Note_off_c, 0, 55, 60
1, 34873, Control_c, 0, 64, 68
1, 34888, Control_c, 0, 64, 111
1, 34891, Note_off_c, 0, 80, 61
1, 34903, Control_c, 0, 64, 127
1, 34917, Note_on_c, 0, 81, 62
1, 34992, Note_on_c, 0, 82, 74
1, 34999, Note_off_c, 0, 81, 60
1, 35057, Note_on_c, 0, 81, 65
1, 35080, Control_c, 0, 64, 89
1, 35082, Note_off_c, 0, 82, 63
1, 35095, Control_c, 0, 64, 65
1, 35110, Control_c, 0, 64, 42
1, 35125, Control_c, 0, 64, 0
1, 35126, Note_off_c, 0, 43, 58
1, 35145, Note_on_c, 0, 79, 58
1, 35150, Note_on_c, 0, 84, 85
1, 35158, Note_off_c, 0, 81, 62
1, 35159, Note_on_c, 0, 39, 78
1, 35160, Note_on_c, 0, 51, 86
1, 35168, Note_on_c, 0, 75, 74
1, 35170, Note_off_c, 0, 79, 61
1, 35184, Control_c, 0, 64, 45
1, 35192, Note_off_c, 0, 51, 66
1, 35192, Note_off_c, 0, 39, 65
1, 35199, Control_c, 0, 64, 76
1, 35214, Control_c, 0, 64, 127
1, 35254, Note_off_c, 0, 84, 52
1, 35266, Note_on_c, 0, 82, 80
1, 35306, Note_off_c, 0, 82, 66
1, 35315, Note_off_c, 0, 75, 28
1, 35377, Note_on_c, 0, 81, 72
1, 35451, Note_on_c, 0, 80, 73
1, 35460, Note_off_c, 0, 81, 58
1, 35487, Control_c, 0, 64, 100
1, 35502, Control_c, 0, 64, 64
1, 35517, Control_c, 0, 64, 34
1, 35531, Control_c, 0, 64, 0
1, 35551, Note_on_c, 0, 63, 103
1, 35551, Note_on_c, 0, 79, 78
1, 35551, Note_off_c, 0, 80, 61
1, 35557, Note_on_c, 0, 51, 84
1, 35559, Note_on_c, 0, 70, 66
1, 35564, Note_on_c, 0, 75, 56
1, 35591, Note_off_c, 0, 75, 58
1, 35591, Control_c, 0, 64, 16
1, 35606, Control_c, 0, 64, 45
1, 35621, Control_c, 0, 64, 66
1, 35636, Control_c, 0, 64, 127
1, 35648, Note_on_c, 0, 78, 69
1, 35660, Note_off_c, 0, 79, 60
1, 35671, Note_off_c, 0, 70, 58
1, 35697, Note_off_c, 0, 78, 65
1, 35735, Note_on_c, 0, 77, 76
1, 35804, Note_on_c, 0, 76, 64
1, 35848, Note_off_c, 0, 63, 62
1, 35868, Note_off_c, 0, 77, 53
1, 35882, Note_on_c, 0, 75, 68
1, 35883, Note_on_c, 0, 67, 68
1, 35893, Note_off_c, 0, 76, 64
1, 35922, Note_off_c, 0, 51, 64
1, 35922, Note_off_c, 0, 75, 62
1, 35950, Note_off_c, 0, 67, 55
1, 35976, Note_on_c, 0, 74, 75
1, 36043, Note_off_c, 0, 74, 64
1, 36049, Note_on_c, 0, 73, 69
1, 36075, Note_off_c, 0, 73, 69
1, 36129, Note_on_c, 0, 72, 75
1, 36147, Control_c, 0, 64, 115
1, 36163, Control_c, 0, 64, 67
1, 36177, Control_c, 0, 64, 48
1, 36192, Control_c, 0, 64, 0
1, 36205, Note_off_c, 0, 72, 61
1, 36208, Note_on_c, 0, 51, 96
1, 36210, Note_on_c, 0, 70, 77
1, 36215, Note_on_c, 0, 39, 77
1, 36219, Note_on_c, 0, 61, 70
1, 36222, Control_c, 0, 64, 39
1, 36225, Note_on_c, 0, 67, 54
1, 36237, Control_c, 0, 64, 63
1, 36248, Note_off_c, 0, 67, 63
1, 36251, Control_c, 0, 64, 127
1, 36268, Note_off_c, 0, 61, 64
1, 36277, Note_off_c, 0, 70, 63
1, 36314, Note_on_c, 0, 69, 73
1, 36345, Note_off_c, 0, 51, 56
1, 36389, Note_on_c, 0, 68, 71
1, 36389, Note_off_c, 0, 39, 62
1, 36396, Note_off_c, 0, 69, 63
1, 36425, Note_off_c, 0, 68, 62
1, 36497, Note_on_c, 0, 67, 57
1, 36504, Note_on_c, 0, 65, 61
1, 36533, Control_c, 0, 64, 101
1, 36539, Note_off_c, 0, 65, 60
1, 36540, Note_on_c, 0, 62, 66
1, 36543, Note_on_c, 0, 57, 57
1, 36543, Note_on_c, 0, 66, 74
1, 36546, Note_on_c, 0, 38, 71
1, 36546, Note_on_c, 0, 50, 84
1, 36548, Control_c, 0, 64, 61
1, 36558, Note_off_c, 0, 67, 63
1, 36563, Control_c, 0, 64, 18
1, 36572, Note_off_c, 0, 62, 66
1, 36578, Note_off_c, 0, 38, 63
1, 36578, Note_off_c, 0, 50, 61
1, 36578, Control_c, 0, 64, 0
1, 36582, Note_off_c, 0, 57, 49
1, 36600, Note_off_c, 0, 66, 61
1, 36638, Note_on_c, 0, 67, 59
1, 36670, Note_off_c, 0, 67, 66
1, 36683, Note_on_c, 0, 68, 67
1, 36761, Note_off_c, 0, 68, 61
1, 36776, Note_on_c, 0, 69, 62
1, 36815, Control_c, 0, 67, 8
1, 36823, Note_on_c, 0, 61, 28
1, 36830, Control_c, 0, 67, 12
1, 36838, Note_off_c, 0, 69, 63
1, 36845, Control_c, 0, 67, 18
1, 36851, Note_on_c, 0, 45, 46
1, 36853, Note_on_c, 0, 39, 49
1, 36853, Note_on_c, 0, 70, 66
1, 36860, Control_c, 0, 64, 8
1, 36860, Control_c, 0, 67, 30
1, 36861, Note_off_c, 0, 61, 55
1, 36882, Control_c, 0, 64, 35
1, 36882, Control_c, 0, 67, 49
1, 36897, Control_c, 0, 64, 53
1, 36897, Control_c, 0, 67, 69
1, 36912, Control_c, 0, 64, 64
1, 36912, Control_c, 0, 67, 84
1, 36926, Control_c, 0, 64, 73
1, 36926, Control_c, 0, 67, 95
1, 36929, Note_on_c, 0, 69, 45
1, 36941, Control_c, 0, 64, 84
1, 36941, Control_c, 0, 67, 104
1, 36956, Control_c, 0, 64, 93
1, 36956, Control_c, 0, 67, 111
1, 36961, Note_off_c, 0, 70, 62
1, 36971, Control_c, 0, 64, 94
1, 36971, Control_c, 0, 67, 117
1, 36986, Note_off_c, 0, 69, 57
1, 36986, Control_c, 0, 64, 94
1, 36986, Control_c, 0, 67, 121
1, 36987, Note_on_c, 0, 68, 59
1, 37000, Control_c, 0, 64, 95
1, 37000, Control_c, 0, 67, 124
1, 37015, Control_c, 0, 67, 126
1, 37030, Control_c, 0, 67, 127
1, 37035, Note_off_c, 0, 68, 59
1, 37079, Note_on_c, 0, 67, 60
1, 37089, Control_c, 0, 67, 126
1, 37102, Note_off_c, 0, 39, 31
1, 37104, Control_c, 0, 67, 126
1, 37119, Control_c, 0, 64, 93
1, 37133, Note_on_c, 0, 66, 64
1, 37133, Control_c, 0, 64, 82
1, 37144, Note_off_c, 0, 67, 62
1, 37148, Control_c, 0, 64, 67
1, 37152, Note_on_c, 0, 38, 47
1, 37156, Note_on_c, 0, 57, 49
1, 37163, Control_c, 0, 64, 53
1, 37164, Note_on_c, 0, 50, 41
1, 37178, Control_c, 0, 64, 0
1, 37183, Note_off_c, 0, 38, 57
1, 37183, Note_off_c, 0, 66, 56
1, 37189, Note_off_c, 0, 57, 54
1, 37193, Control_c, 0, 67, 125
1, 37194, Note_off_c, 0, 50, 51
1, 37198, Note_off_c, 0, 45, 50
1, 37232, Note_on_c, 0, 67, 50
1, 37269, Note_off_c, 0, 67, 61
1, 37290, Note_on_c, 0, 68, 67
1, 37352, Note_off_c, 0, 68, 59
1, 37356, Control_c, 0, 67, 126
1, 37371, Control_c, 0, 67, 127
1, 37375, Note_on_c, 0, 69, 47
1, 37430, Control_c, 0, 64, 31
1, 37432, Note_off_c, 0, 69, 63
1, 37434, Note_on_c, 0, 61, 31
1, 37444, Note_on_c, 0, 45, 45
1, 37445, Note_on_c, 0, 39, 46
1, 37445, Control_c, 0, 64, 48
1, 37447, Note_on_c, 0, 70, 64
1, 37460, Control_c, 0, 64, 63
1, 37470, Note_off_c, 0, 61, 53
1, 37475, Control_c, 0, 64, 74
1, 37490, Control_c, 0, 64, 80
1, 37505, Control_c, 0, 64, 85
1, 37520, Control_c, 0, 64, 92
1, 37528, Note_on_c, 0, 69, 52
1, 37528, Note_off_c, 0, 70, 61
1, 37535, Control_c, 0, 64, 93
1, 37568, Note_off_c, 0, 69, 59
1, 37581, Note_on_c, 0, 68, 50
1, 37614, Note_off_c, 0, 68, 63
1, 37660, Note_off_c, 0, 39, 39
1, 37672, Note_on_c, 0, 67, 62
1, 37690, Control_c, 0, 64, 91
1, 37705, Control_c, 0, 64, 82
1, 37719, Control_c, 0, 64, 71
1, 37734, Control_c, 0, 64, 61
1, 37737, Note_off_c, 0, 67, 61
1, 37743, Note_on_c, 0, 66, 58
1, 37745, Note_on_c, 0, 38, 43
1, 37749, Control_c, 0, 64, 41
1, 37763, Note_on_c, 0, 57, 40
1, 37764, Control_c, 0, 64, 0
1, 37767, Note_on_c, 0, 50, 31
1, 37779, Note_off_c, 0, 38, 54
1, 37781, Note_off_c, 0, 66, 55
1, 37783, Note_off_c, 0, 45, 42
1, 37793, Note_off_c, 0, 57, 53
1, 37801, Note_off_c, 0, 50, 45
1, 37829, Note_on_c, 0, 67, 47
1, 37862, Note_off_c, 0, 67, 61
1, 37879, Note_on_c, 0, 68, 61
1, 37939, Note_off_c, 0, 68, 62
1, 37974, Note_on_c, 0, 69, 42
1, 37986, Control_c, 0, 67, 126
1, 38002, Control_c, 0, 64, 31
1, 38002, Control_c, 0, 67, 126
1, 38007, Note_off_c, 0, 69, 55
1, 38017, Control_c, 0, 64, 49
1, 38032, Control_c, 0, 64, 65
1, 38038, Note_on_c, 0, 41, 50
1, 38041, Note_on_c, 0, 72, 68
1, 38043, Note_on_c, 0, 63, 57
1, 38046, Note_on_c, 0, 47, 50
1, 38046, Control_c, 0, 64, 81
1, 38061, Control_c, 0, 64, 89
1, 38076, Control_c, 0, 64, 91
1, 38081, Note_off_c, 0, 63, 47
1, 38091, Control_c, 0, 64, 94
1, 38132, Note_on_c, 0, 71, 58
1, 38153, Note_off_c, 0, 72, 58
1, 38190, Note_off_c, 0, 71, 65
1, 38196, Note_on_c, 0, 70, 51
1, 38220, Note_off_c, 0, 70, 64
1, 38251, Note_off_c, 0, 41, 34
1, 38271, Note_on_c, 0, 69, 60
1, 38283, Control_c, 0, 64, 93
1, 38298, Control_c, 0, 64, 86
1, 38313, Control_c, 0, 64, 73
1, 38328, Control_c, 0, 64, 60
1, 38341, Note_off_c, 0, 69, 63
1, 38342, Control_c, 0, 64, 41
1, 38345, Note_on_c, 0, 68, 66
1, 38356, Note_on_c, 0, 40, 51
1, 38357, Control_c, 0, 64, 0
1, 38362, Note_on_c, 0, 59, 36
1, 38375, Note_on_c, 0, 52, 42
1, 38383, Note_off_c, 0, 47, 35
1, 38392, Note_off_c, 0, 68, 52
1, 38393, Note_off_c, 0, 40, 60
1, 38398, Note_off_c, 0, 59, 50
1, 38402, Note_off_c, 0, 52, 53
1, 38435, Note_on_c, 0, 69, 55
1, 38485, Note_off_c, 0, 69, 55
1, 38512, Note_on_c, 0, 70, 67
1, 38578, Note_off_c, 0, 70, 62
1, 38595, Note_on_c, 0, 71, 57
1, 38630, Control_c, 0, 64, 12
1, 38644, Control_c, 0, 64, 36
1, 38654, Note_off_c, 0, 71, 66
1, 38659, Control_c, 0, 64, 50
1, 38659, Control_c, 0, 67, 125
1, 38662, Note_on_c, 0, 72, 66
1, 38663, Note_on_c, 0, 47, 64
1, 38667, Note_on_c, 0, 63, 55
1, 38670, Note_on_c, 0, 41, 55
1, 38674, Control_c, 0, 64, 60
1, 38674, Control_c, 0, 67, 124
1, 38689, Control_c, 0, 64, 65
1, 38689, Control_c, 0, 67, 124
1, 38703, Control_c, 0, 64, 67
1, 38718, Control_c, 0, 64, 67
1, 38730, Note_off_c, 0, 63, 57
1, 38747, Note_on_c, 0, 71, 53
1, 38785, Note_off_c, 0, 72, 59
1, 38811, Note_off_c, 0, 71, 64
1, 38821, Note_on_c, 0, 70, 50
1, 38823, Control_c, 0, 64, 67
1, 38838, Control_c, 0, 64, 65
1, 38845, Note_off_c, 0, 70, 62
1, 38853, Control_c, 0, 64, 61
1, 38867, Control_c, 0, 64, 52
1, 38882, Control_c, 0, 64, 28
1, 38887, Note_on_c, 0, 69, 62
1, 38897, Control_c, 0, 64, 0
1, 38951, Note_off_c, 0, 41, 37
1, 39010, Note_on_c, 0, 68, 57
1, 39017, Note_on_c, 0, 40, 39
1, 39023, Note_on_c, 0, 52, 40
1, 39026, Note_off_c, 0, 47, 43
1, 39027, Note_on_c, 0, 59, 42
1, 39033, Note_off_c, 0, 69, 34
1, 39052, Note_on_c, 0, 64, 14
1, 39082, Note_off_c, 0, 59, 61
1, 39105, Control_c, 0, 64, 19
1, 39105, Control_c, 0, 67, 124
1, 39120, Note_off_c, 0, 64, 44
1, 39126, Control_c, 0, 64, 44
1, 39126, Control_c, 0, 67, 125
1, 39141, Control_c, 0, 64, 59
1, 39141, Control_c, 0, 67, 126
1, 39155, Note_off_c, 0, 68, 37
1, 39157, Control_c, 0, 64, 70
1, 39157, Control_c, 0, 67, 127
1, 39172, Control_c, 0, 64, 90
1, 39187, Control_c, 0, 64, 127
1, 39380, Control_c, 0, 64, 82
1, 39394, Control_c, 0, 64, 65
1, 39409, Control_c, 0, 64, 51
1, 39414, Note_on_c, 0, 88, 63
1, 39419, Note_on_c, 0, 80, 55
1, 39424, Control_c, 0, 64, 10
1, 39439, Control_c, 0, 64, 0
1, 39454, Note_off_c, 0, 80, 60
1, 39487, Note_on_c, 0, 89, 68
1, 39540, Note_off_c, 0, 89, 64
1, 39554, Note_off_c, 0, 88, 34
1, 39558, Note_on_c, 0, 86, 70
1, 39618, Note_off_c, 0, 86, 62
1, 39633, Note_on_c, 0, 88, 72
1, 39678, Note_off_c, 0, 88, 61
1, 39711, Note_on_c, 0, 84, 67
1, 39712, Note_on_c, 0, 76, 64
1, 39714, Note_on_c, 0, 81, 61
1, 39730, Note_off_c, 0, 76, 66
1, 39733, Note_off_c, 0, 81, 65
1, 39793, Note_on_c, 0, 86, 72
1, 39843, Note_off_c, 0, 86, 60
1, 39849, Note_off_c, 0, 84, 56
1, 39856, Note_on_c, 0, 83, 63
1, 39919, Note_off_c, 0, 83, 65
1, 39943, Note_on_c, 0, 84, 50
1, 39968, Note_off_c, 0, 84, 53
1, 40009, Note_on_c, 0, 81, 65
1, 40019, Note_on_c, 0, 72, 44
1, 40020, Note_on_c, 0, 76, 41
1, 40047, Note_off_c, 0, 72, 56
1, 40051, Note_off_c, 0, 76, 34
1, 40109, Note_on_c, 0, 83, 58
1, 40149, Note_off_c, 0, 83, 67
1, 40154, Note_off_c, 0, 81, 59
1, 40164, Note_on_c, 0, 79, 62
1, 40206, Note_off_c, 0, 79, 53
1, 40235, Note_on_c, 0, 81, 56
1, 40258, Note_off_c, 0, 81, 60
1, 40298, Note_on_c, 0, 77, 66
1, 40302, Note_on_c, 0, 69, 54
1, 40302, Note_on_c, 0, 72, 57
1, 40322, Note_off_c, 0, 72, 62
1, 40325, Note_off_c, 0, 69, 60
1, 40381, Note_on_c, 0, 79, 69
1, 40447, Note_on_c, 0, 76, 65
1, 40459, Note_off_c, 0, 79, 60
1, 40463, Note_off_c, 0, 77, 40
1, 40482, Note_off_c, 0, 76, 64
1, 40518, Note_on_c, 0, 77, 65
1, 40585, Note_off_c, 0, 77, 55
1, 40599, Note_on_c, 0, 81, 70
1, 40607, Note_on_c, 0, 86, 74
1, 40632, Note_off_c, 0, 81, 66
1, 40677, Note_on_c, 0, 88, 72
1, 40694, Note_off_c, 0, 86, 48
1, 40736, Note_off_c, 0, 88, 66
1, 40745, Note_on_c, 0, 84, 69
1, 40795, Note_off_c, 0, 84, 61
1, 40820, Note_on_c, 0, 86, 74
1, 40856, Note_off_c, 0, 86, 53
1, 40896, Note_on_c, 0, 83, 65
1, 40901, Note_on_c, 0, 74, 51
1, 40903, Note_on_c, 0, 77, 50
1, 40922, Note_off_c, 0, 74, 62
1, 40928, Note_off_c, 0, 77, 57
1, 40974, Note_on_c, 0, 84, 77
1, 41034, Note_off_c, 0, 83, 38
1, 41039, Note_off_c, 0, 84, 62
1, 41046, Note_on_c, 0, 81, 72
1, 41102, Note_off_c, 0, 81, 63
1, 41145, Note_on_c, 0, 83, 38
1, 41172, Note_off_c, 0, 83, 54
1, 41196, Note_on_c, 0, 74, 54
1, 41198, Note_on_c, 0, 80, 73
1, 41225, Note_off_c, 0, 74, 66
1, 41234, Control_c, 0, 64, 14
1, 41249, Control_c, 0, 64, 20
1, 41263, Control_c, 0, 64, 24
1, 41278, Control_c, 0, 64, 25
1, 41305, Note_on_c, 0, 81, 70
1, 41337, Control_c, 0, 64, 25
1, 41341, Note_off_c, 0, 80, 64
1, 41341, Note_off_c, 0, 81, 63
1, 41352, Control_c, 0, 64, 26
1, 41354, Note_on_c, 0, 77, 70
1, 41374, Control_c, 0, 64, 27
1, 41389, Control_c, 0, 64, 27
1, 41413, Note_off_c, 0, 77, 58
1, 41434, Control_c, 0, 64, 26
1, 41437, Note_on_c, 0, 79, 69
1, 41463, Control_c, 0, 64, 26
1, 41478, Note_off_c, 0, 79, 61
1, 41478, Control_c, 0, 64, 25
1, 41493, Control_c, 0, 64, 24
1, 41505, Note_on_c, 0, 71, 67
1, 41508, Control_c, 0, 64, 23
1, 41512, Note_on_c, 0, 76, 58
1, 41519, Note_on_c, 0, 68, 45
1, 41522, Control_c, 0, 64, 22
1, 41528, Note_off_c, 0, 71, 62
1, 41537, Control_c, 0, 64, 20
1, 41545, Note_off_c, 0, 68, 56
1, 41552, Control_c, 0, 64, 19
1, 41567, Control_c, 0, 64, 18
1, 41582, Control_c, 0, 64, 15
1, 41596, Control_c, 0, 64, 11
1, 41600, Note_on_c, 0, 77, 67
1, 41611, Control_c, 0, 64, 0
1, 41660, Note_off_c, 0, 76, 57
1, 41663, Note_on_c, 0, 75, 63
1, 41666, Note_off_c, 0, 77, 62
1, 41692, Note_off_c, 0, 75, 66
1, 41736, Note_on_c, 0, 76, 68
1, 41792, Note_off_c, 0, 76, 51
1, 41817, Note_on_c, 0, 81, 66
1, 41821, Note_on_c, 0, 84, 70
1, 41835, Note_off_c, 0, 81, 67
1, 41883, Note_on_c, 0, 86, 74
1, 41894, Note_off_c, 0, 84, 59
1, 41937, Note_off_c, 0, 86, 60
1, 41952, Note_on_c, 0, 83, 68
1, 42006, Note_off_c, 0, 83, 64
1, 42027, Note_on_c, 0, 84, 67
1, 42075, Note_off_c, 0, 84, 60
1, 42120, Note_on_c, 0, 81, 63
1, 42124, Note_on_c, 0, 76, 48
1, 42125, Note_on_c, 0, 72, 49
1, 42146, Note_off_c, 0, 72, 59
1, 42148, Note_off_c, 0, 76, 59
1, 42203, Note_on_c, 0, 83, 66
1, 42220, Note_off_c, 0, 81, 55
1, 42253, Note_off_c, 0, 83, 65
1, 42270, Note_on_c, 0, 79, 62
1, 42319, Note_off_c, 0, 79, 62
1, 42328, Note_on_c, 0, 81, 68
1, 42367, Note_off_c, 0, 81, 53
1, 42405, Note_on_c, 0, 72, 65
1, 42410, Note_on_c, 0, 69, 54
1, 42410, Note_on_c, 0, 77, 58
1, 42422, Note_off_c, 0, 72, 65
1, 42432, Note_off_c, 0, 69, 60
1, 42492, Note_on_c, 0, 79, 69
1, 42549, Note_off_c, 0, 79, 62
1, 42563, Note_on_c, 0, 76, 64
1, 42571, Note_off_c, 0, 77, 30
1, 42608, Note_off_c, 0, 76, 57
1, 42634, Note_on_c, 0, 77, 61
1, 42658, Note_off_c, 0, 77, 57
1, 42705, Note_on_c, 0, 74, 64
1, 42707, Note_on_c, 0, 69, 58
1, 42711, Note_on_c, 0, 65, 50
1, 42727, Note_off_c, 0, 69, 63
1, 42733, Note_off_c, 0, 65, 61
1, 42791, Note_on_c, 0, 76, 74
1, 42852, Note_off_c, 0, 76, 66
1, 42871, Note_off_c, 0, 74, 35
1, 42877, Note_on_c, 0, 72, 62
1, 42933, Note_off_c, 0, 72, 61
1, 42942, Note_on_c, 0, 74, 67
1, 42981, Note_off_c, 0, 74, 60
1, 43020, Note_on_c, 0, 65, 63
1, 43026, Note_on_c, 0, 71, 63
1, 43038, Note_on_c, 0, 62, 37
1, 43039, Note_off_c, 0, 65, 69
1, 43070, Note_off_c, 0, 62, 54
1, 43118, Note_on_c, 0, 72, 65
1, 43171, Note_off_c, 0, 72, 63
1, 43177, Note_on_c, 0, 69, 68
1, 43183, Note_off_c, 0, 71, 59
1, 43240, Note_off_c, 0, 69, 62
1, 43252, Note_on_c, 0, 71, 69
1, 43328, Note_on_c, 0, 62, 66
1, 43332, Note_on_c, 0, 68, 70
1, 43360, Note_off_c, 0, 62, 66
1, 43381, Note_off_c, 0, 71, 37
1, 43428, Note_on_c, 0, 65, 71
1, 43434, Control_c, 0, 64, 11
1, 43449, Control_c, 0, 64, 19
1, 43464, Control_c, 0, 64, 23
1, 43467, Note_off_c, 0, 68, 59
1, 43479, Control_c, 0, 64, 25
1, 43493, Control_c, 0, 64, 26
1, 43499, Note_off_c, 0, 65, 65
1, 43499, Note_on_c, 0, 63, 66
1, 43523, Control_c, 0, 64, 25
1, 43538, Control_c, 0, 64, 25
1, 43553, Control_c, 0, 64, 23
1, 43568, Control_c, 0, 64, 21
1, 43570, Note_off_c, 0, 63, 65
1, 43572, Note_on_c, 0, 64, 67
1, 43583, Control_c, 0, 64, 20
1, 43598, Control_c, 0, 64, 20
1, 43605, Note_off_c, 0, 40, 54
1, 43621, Control_c, 0, 64, 22
1, 43629, Note_off_c, 0, 64, 53
1, 43636, Control_c, 0, 64, 25
1, 43651, Control_c, 0, 64, 33
1, 43651, Control_c, 0, 67, 99
1, 43657, Note_on_c, 0, 65, 76
1, 43665, Control_c, 0, 64, 44
1, 43665, Control_c, 0, 67, 47
1, 43680, Control_c, 0, 64, 58
1, 43680, Control_c, 0, 67, 0
1, 43695, Control_c, 0, 64, 65
1, 43710, Control_c, 0, 64, 69
1, 43724, Control_c, 0, 64, 70
1, 43729, Note_off_c, 0, 65, 66
1, 43732, Note_on_c, 0, 66, 79
1, 43739, Control_c, 0, 64, 71
1, 43754, Control_c, 0, 64, 71
1, 43768, Note_off_c, 0, 52, 63
1, 43784, Control_c, 0, 64, 72
1, 43798, Control_c, 0, 64, 75
1, 43799, Note_on_c, 0, 67, 69
1, 43813, Control_c, 0, 64, 81
1, 43820, Note_off_c, 0, 66, 42
1, 43828, Control_c, 0, 64, 86
1, 43858, Control_c, 0, 64, 83
1, 43866, Note_on_c, 0, 68, 69
1, 43872, Control_c, 0, 64, 67
1, 43878, Note_off_c, 0, 67, 59
1, 43887, Control_c, 0, 64, 53
1, 43902, Control_c, 0, 64, 0
1, 43945, Note_on_c, 0, 45, 95
1, 43954, Note_on_c, 0, 69, 83
1, 43961, Note_on_c, 0, 64, 68
1, 43961, Control_c, 0, 64, 44
1, 43966, Note_off_c, 0, 68, 60
1, 43967, Note_on_c, 0, 60, 56
1, 43976, Control_c, 0, 64, 63
1, 43982, Note_off_c, 0, 45, 64
1, 43987, Note_off_c, 0, 64, 67
1, 43988, Note_off_c, 0, 60, 62
1, 43991, Control_c, 0, 64, 82
1, 44006, Control_c, 0, 64, 85
1, 44048, Note_off_c, 0, 69, 61
1, 44063, Note_on_c, 0, 70, 70
1, 44080, Control_c, 0, 64, 84
1, 44095, Control_c, 0, 64, 84
1, 44109, Control_c, 0, 64, 83
1, 44124, Control_c, 0, 64, 81
1, 44137, Note_off_c, 0, 70, 63
1, 44139, Control_c, 0, 64, 75
1, 44144, Note_on_c, 0, 71, 58
1, 44154, Control_c, 0, 64, 64
1, 44169, Control_c, 0, 64, 52
1, 44183, Note_off_c, 0, 71, 65
1, 44183, Control_c, 0, 64, 20
1, 44198, Control_c, 0, 64, 0
1, 44214, Note_on_c, 0, 72, 52
1, 44257, Note_on_c, 0, 52, 62
1, 44271, Note_on_c, 0, 60, 52
1, 44273, Note_on_c, 0, 57, 52
1, 44279, Note_off_c, 0, 72, 63
1, 44281, Note_on_c, 0, 64, 51
1, 44288, Note_on_c, 0, 73, 62
1, 44292, Note_off_c, 0, 52, 67
1, 44292, Note_off_c, 0, 60, 60
1, 44301, Note_off_c, 0, 57, 62
1, 44332, Note_off_c, 0, 64, 58
1, 44346, Note_off_c, 0, 73, 63
1, 44373, Note_on_c, 0, 74, 59
1, 44405, Note_off_c, 0, 74, 63
1, 44453, Note_on_c, 0, 75, 65
1, 44516, Note_off_c, 0, 75, 61
1, 44531, Note_on_c, 0, 76, 55
1, 44588, Note_on_c, 0, 45, 59
1, 44592, Note_on_c, 0, 77, 60
1, 44593, Note_off_c, 0, 76, 65
1, 44603, Note_on_c, 0, 69, 39
1, 44614, Note_off_c, 0, 45, 62
1, 44633, Note_off_c, 0, 69, 56
1, 44666, Note_off_c, 0, 77, 63
1, 44684, Note_on_c, 0, 78, 57
1, 44731, Note_off_c, 0, 78, 63
1, 44769, Note_on_c, 0, 79, 48
1, 44822, Note_off_c, 0, 79, 46
1, 44831, Note_on_c, 0, 80, 65
1, 44874, Note_off_c, 0, 80, 63
1, 44887, Note_on_c, 0, 74, 27
1, 44901, Note_on_c, 0, 62, 58
1, 44902, Note_on_c, 0, 81, 65
1, 44903, Note_on_c, 0, 53, 54
1, 44917, Note_on_c, 0, 57, 47
1, 44926, Note_off_c, 0, 62, 65
1, 44942, Note_off_c, 0, 57, 58
1, 44951, Note_off_c, 0, 53, 66
1, 44952, Note_off_c, 0, 74, 47
1, 44960, Note_on_c, 0, 82, 72
1, 44967, Note_off_c, 0, 81, 60
1, 45038, Note_off_c, 0, 82, 64
1, 45049, Note_on_c, 0, 83, 59
1, 45100, Note_off_c, 0, 83, 64
1, 45139, Note_on_c, 0, 84, 50
1, 45205, Note_off_c, 0, 84, 64
1, 45207, Note_on_c, 0, 33, 57
1, 45207, Note_on_c, 0, 85, 59
1, 45208, Note_on_c, 0, 81, 57
1, 45210, Note_on_c, 0, 76, 44
1, 45214, Note_on_c, 0, 45, 58
1, 45236, Note_off_c, 0, 33, 56
1, 45241, Note_off_c, 0, 45, 64
1, 45245, Note_off_c, 0, 81, 63
1, 45266, Note_off_c, 0, 76, 47
1, 45270, Note_off_c, 0, 85, 64
1, 45282, Note_on_c, 0, 86, 69
1, 45315, Note_off_c, 0, 86, 59
1, 45363, Note_on_c, 0, 87, 71
1, 45431, Note_on_c, 0, 88, 61
1, 45437, Note_off_c, 0, 87, 67
1, 45506, Note_on_c, 0, 89, 74
1, 45507, Note_on_c, 0, 52, 53
1, 45507, Note_on_c, 0, 60, 59
1, 45507, Note_off_c, 0, 88, 64
1, 45510, Note_on_c, 0, 81, 61
1, 45513, Note_on_c, 0, 57, 50
1, 45526, Note_off_c, 0, 60, 65
1, 45532, Note_off_c, 0, 52, 63
1, 45538, Note_off_c, 0, 57, 58
1, 45588, Note_on_c, 0, 88, 61
1, 45620, Note_off_c, 0, 81, 33
1, 45628, Note_off_c, 0, 89, 63
1, 45645, Note_on_c, 0, 87, 62
1, 45647, Note_off_c, 0, 88, 62
1, 45674, Note_off_c, 0, 87, 68
1, 45736, Note_on_c, 0, 86, 65
1, 45806, Note_on_c, 0, 57, 56
1, 45807, Note_on_c, 0, 85, 67
1, 45809, Note_off_c, 0, 86, 59
1, 45813, Note_on_c, 0, 64, 53
1, 45813, Note_on_c, 0, 60, 42
1, 45817, Note_on_c, 0, 76, 48
1, 45833, Note_off_c, 0, 57, 64
1, 45838, Note_off_c, 0, 64, 60
1, 45839, Note_off_c, 0, 60, 58
1, 45842, Note_off_c, 0, 76, 58
1, 45846, Note_off_c, 0, 85, 65
1, 45903, Note_on_c, 0, 84, 70
1, 45971, Note_on_c, 0, 83, 55
1, 46009, Note_off_c, 0, 84, 62
1, 46034, Note_on_c, 0, 82, 61
1, 46054, Note_off_c, 0, 83, 65
1, 46098, Note_off_c, 0, 82, 64
1, 46105, Note_on_c, 0, 76, 58
1, 46105, Note_on_c, 0, 81, 62
1, 46118, Note_on_c, 0, 72, 45
1, 46126, Note_off_c, 0, 76, 63
1, 46144, Note_off_c, 0, 72, 54
1, 46170, Note_off_c, 0, 81, 63
1, 46185, Note_on_c, 0, 80, 58
1, 46215, Note_off_c, 0, 80, 67
1, 46255, Note_on_c, 0, 83, 60
1, 46309, Note_on_c, 0, 81, 61
1, 46349, Note_off_c, 0, 83, 62
1, 46370, Control_c, 0, 67, 10
1, 46385, Control_c, 0, 67, 13
1, 46396, Note_on_c, 0, 40, 61
1, 46397, Note_on_c, 0, 80, 66
1, 46400, Control_c, 0, 67, 15
1, 46400, Note_off_c, 0, 81, 60
1, 46407, Note_on_c, 0, 71, 56
1, 46415, Control_c, 0, 67, 15
1, 46429, Note_off_c, 0, 40, 65
1, 46429, Control_c, 0, 67, 15
1, 46440, Note_off_c, 0, 80, 62
1, 46444, Control_c, 0, 67, 14
1, 46474, Control_c, 0, 67, 14
1, 46498, Note_on_c, 0, 79, 64
1, 46518, Control_c, 0, 67, 13
1, 46553, Note_off_c, 0, 79, 61
1, 46556, Note_on_c, 0, 78, 65
1, 46573, Note_off_c, 0, 71, 21
1, 46587, Note_off_c, 0, 78, 69
1, 46639, Note_on_c, 0, 77, 63
1, 46715, Note_on_c, 0, 76, 61
1, 46721, Note_on_c, 0, 68, 49
1, 46722, Note_on_c, 0, 59, 45
1, 46727, Note_on_c, 0, 52, 38
1, 46733, Note_on_c, 0, 71, 36
1, 46734, Note_on_c, 0, 62, 19
1, 46737, Note_off_c, 0, 77, 59
1, 46749, Control_c, 0, 67, 12
1, 46751, Note_off_c, 0, 59, 63
1, 46759, Note_off_c, 0, 52, 60
1, 46764, Control_c, 0, 67, 11
1, 46767, Note_off_c, 0, 71, 57
1, 46775, Note_off_c, 0, 62, 51
1, 46786, Note_off_c, 0, 68, 61
1, 46787, Note_on_c, 0, 75, 61
1, 46802, Note_off_c, 0, 76, 62
1, 46808, Control_c, 0, 67, 11
1, 46823, Control_c, 0, 67, 10
1, 46832, Note_off_c, 0, 75, 53
1, 46838, Control_c, 0, 67, 10
1, 46853, Control_c, 0, 67, 9
1, 46868, Note_on_c, 0, 77, 64
1, 46924, Note_on_c, 0, 76, 63
1, 46957, Note_off_c, 0, 77, 57
1, 46972, Control_c, 0, 67, 9
1, 46987, Control_c, 0, 67, 10
1, 46989, Note_off_c, 0, 76, 61
1, 47002, Note_on_c, 0, 75, 55
1, 47004, Note_on_c, 0, 45, 52
1, 47014, Note_on_c, 0, 69, 35
1, 47033, Note_off_c, 0, 45, 63
1, 47037, Note_off_c, 0, 75, 64
1, 47086, Note_off_c, 0, 69, 37
1, 47090, Note_on_c, 0, 74, 59
1, 47090, Control_c, 0, 67, 9
1, 47120, Control_c, 0, 67, 8
1, 47154, Note_off_c, 0, 74, 62
1, 47157, Note_on_c, 0, 73, 68
1, 47179, Control_c, 0, 67, 8
1, 47181, Note_off_c, 0, 73, 70
1, 47242, Note_on_c, 0, 72, 49
1, 47267, Control_c, 0, 67, 0
1, 47299, Note_off_c, 0, 72, 63
1, 47306, Note_on_c, 0, 64, 50
1, 47308, Note_on_c, 0, 52, 51
1, 47308, Note_on_c, 0, 69, 57
1, 47312, Note_on_c, 0, 71, 57
1, 47316, Note_on_c, 0, 57, 49
1, 47323, Note_on_c, 0, 60, 34
1, 47336, Note_off_c, 0, 52, 64
1, 47342, Note_off_c, 0, 69, 66
1, 47345, Note_off_c, 0, 57, 64
1, 47361, Note_off_c, 0, 60, 49
1, 47377, Note_off_c, 0, 64, 48
1, 47379, Note_off_c, 0, 71, 65
1, 47387, Note_on_c, 0, 72, 53
1, 47459, Note_off_c, 0, 72, 64
1, 47471, Note_on_c, 0, 74, 56
1, 47531, Note_on_c, 0, 72, 46
1, 47556, Note_off_c, 0, 74, 58
1, 47598, Note_off_c, 0, 72, 60
1, 47606, Note_on_c, 0, 71, 61
1, 47613, Note_on_c, 0, 52, 55
1, 47614, Note_on_c, 0, 64, 51
1, 47630, Note_on_c, 0, 68, 23
1, 47637, Note_off_c, 0, 52, 63
1, 47656, Note_off_c, 0, 64, 59
1, 47669, Note_off_c, 0, 68, 42
1, 47681, Note_off_c, 0, 71, 59
1, 47697, Note_on_c, 0, 72, 63
1, 47755, Note_off_c, 0, 72, 63
1, 47764, Note_on_c, 0, 71, 58
1, 47801, Note_off_c, 0, 71, 0
1, 47801, Note_on_c, 0, 71, 17
1, 47831, Note_off_c, 0, 71, 64
1, 47834, Note_on_c, 0, 72, 60
1, 47896, Note_on_c, 0, 59, 73
1, 47897, Note_off_c, 0, 72, 63
1, 47899, Note_on_c, 0, 63, 68
1, 47905, Note_on_c, 0, 53, 62
1, 47917, Note_on_c, 0, 69, 38
1, 47924, Note_on_c, 0, 71, 48
1, 47935, Note_off_c, 0, 63, 66
1, 47949, Note_off_c, 0, 69, 50
1, 47957, Control_c, 0, 64, 31
1, 47972, Control_c, 0, 64, 46
1, 47976, Note_off_c, 0, 71, 64
1, 47982, Note_on_c, 0, 72, 61
1, 47987, Control_c, 0, 64, 59
1, 48001, Control_c, 0, 64, 66
1, 48016, Control_c, 0, 64, 67
1, 48047, Note_off_c, 0, 72, 62
1, 48063, Note_on_c, 0, 71, 56
1, 48113, Control_c, 0, 64, 66
1, 48116, Note_off_c, 0, 71, 61
1, 48128, Control_c, 0, 64, 65
1, 48132, Note_on_c, 0, 72, 53
1, 48143, Control_c, 0, 64, 63
1, 48157, Control_c, 0, 64, 57
1, 48172, Control_c, 0, 64, 42
1, 48187, Control_c, 0, 64, 21
1, 48191, Note_on_c, 0, 64, 62
1, 48202, Note_off_c, 0, 72, 61
1, 48202, Control_c, 0, 64, 17
1, 48208, Note_on_c, 0, 71, 55
1, 48215, Note_off_c, 0, 53, 35
1, 48216, Control_c, 0, 64, 21
1, 48221, Note_on_c, 0, 52, 60
1, 48222, Note_off_c, 0, 64, 56
1, 48231, Control_c, 0, 64, 24
1, 48238, Note_off_c, 0, 71, 55
1, 48246, Control_c, 0, 64, 24
1, 48261, Control_c, 0, 64, 25
1, 48261, Control_c, 0, 67, 12
1, 48264, Note_off_c, 0, 52, 67
1, 48266, Note_off_c, 0, 59, 61
1, 48276, Control_c, 0, 64, 23
1, 48276, Control_c, 0, 67, 18
1, 48287, Note_on_c, 0, 76, 67
1, 48290, Control_c, 0, 64, 18
1, 48290, Control_c, 0, 67, 23
1, 48305, Control_c, 0, 64, 0
1, 48305, Control_c, 0, 67, 28
1, 48320, Control_c, 0, 67, 34
1, 48335, Control_c, 0, 67, 44
1, 48350, Control_c, 0, 67, 55
1, 48364, Control_c, 0, 67, 69
1, 48365, Note_on_c, 0, 75, 67
1, 48380, Control_c, 0, 67, 80
1, 48393, Note_off_c, 0, 76, 62
1, 48395, Control_c, 0, 67, 87
1, 48410, Control_c, 0, 67, 91
1, 48425, Control_c, 0, 67, 94
1, 48436, Note_on_c, 0, 74, 69
1, 48439, Control_c, 0, 67, 97
1, 48454, Control_c, 0, 67, 102
1, 48459, Note_off_c, 0, 75, 61
1, 48469, Control_c, 0, 67, 108
1, 48484, Control_c, 0, 67, 112
1, 48499, Control_c, 0, 67, 116
1, 48511, Note_on_c, 0, 62, 57
1, 48513, Note_on_c, 0, 73, 63
1, 48513, Control_c, 0, 67, 121
1, 48518, Note_off_c, 0, 74, 62
1, 48523, Note_on_c, 0, 68, 42
1, 48528, Control_c, 0, 67, 127
1, 48540, Note_off_c, 0, 62, 66
1, 48553, Note_off_c, 0, 68, 34
1, 48564, Note_off_c, 0, 73, 65
1, 48576, Note_on_c, 0, 72, 58
1, 48597, Note_off_c, 0, 72, 63
1, 48656, Note_on_c, 0, 71, 64
1, 48718, Note_off_c, 0, 71, 65
1, 48721, Note_on_c, 0, 70, 63
1, 48750, Note_off_c, 0, 70, 67
1, 48817, Note_on_c, 0, 45, 58
1, 48823, Note_on_c, 0, 69, 55
1, 48845, Note_off_c, 0, 45, 65
1, 48886, Note_off_c, 0, 69, 63
1, 48899, Note_on_c, 0, 70, 52
1, 48962, Note_off_c, 0, 70, 64
1, 48982, Note_on_c, 0, 71, 53
1, 49031, Note_off_c, 0, 71, 66
1, 49053, Note_on_c, 0, 72, 49
1, 49094, Note_off_c, 0, 72, 0
1, 49094, Note_on_c, 0, 72, 10
1, 49127, Note_off_c, 0, 72, 60
1, 49134, Note_on_c, 0, 73, 52
1, 49135, Note_on_c, 0, 60, 44
1, 49139, Note_on_c, 0, 52, 44
1, 49142, Note_on_c, 0, 57, 50
1, 49150, Note_on_c, 0, 64, 27
1, 49157, Note_off_c, 0, 60, 60
1, 49166, Note_off_c, 0, 52, 60
1, 49167, Note_off_c, 0, 57, 62
1, 49190, Note_off_c, 0, 73, 58
1, 49193, Note_off_c, 0, 64, 49
1, 49211, Note_on_c, 0, 74, 59
1, 49241, Note_off_c, 0, 74, 61
1, 49291, Note_on_c, 0, 75, 62
1, 49344, Note_off_c, 0, 75, 63
1, 49384, Note_on_c, 0, 76, 35
1, 49420, Note_off_c, 0, 76, 55
1, 49422, Note_on_c, 0, 77, 64
1, 49431, Note_on_c, 0, 45, 59
1, 49436, Note_on_c, 0, 69, 46
1, 49461, Note_off_c, 0, 45, 64
1, 49467, Note_off_c, 0, 69, 55
1, 49504, Note_off_c, 0, 77, 62
1, 49521, Note_on_c, 0, 78, 60
1, 49563, Note_off_c, 0, 78, 64
1, 49610, Note_on_c, 0, 79, 55
1, 49668, Note_off_c, 0, 79, 45
1, 49680, Note_on_c, 0, 80, 62
1, 49726, Note_off_c, 0, 80, 62
1, 49735, Note_on_c, 0, 74, 45
1, 49749, Note_on_c, 0, 81, 67
1, 49753, Note_on_c, 0, 62, 58
1, 49756, Note_on_c, 0, 53, 54
1, 49775, Note_on_c, 0, 57, 36
1, 49776, Note_off_c, 0, 62, 65
1, 49783, Note_off_c, 0, 74, 54
1, 49803, Note_off_c, 0, 53, 65
1, 49805, Note_off_c, 0, 57, 47
1, 49818, Note_on_c, 0, 82, 65
1, 49819, Note_off_c, 0, 81, 60
1, 49880, Note_off_c, 0, 82, 65
1, 49896, Note_on_c, 0, 83, 64
1, 49953, Note_off_c, 0, 83, 65
1, 49988, Note_on_c, 0, 84, 53
1, 50052, Note_on_c, 0, 33, 53
1, 50054, Note_off_c, 0, 84, 64
1, 50055, Note_on_c, 0, 81, 56
1, 50059, Note_on_c, 0, 45, 56
1, 50059, Note_on_c, 0, 76, 45
1, 50060, Note_on_c, 0, 85, 59
1, 50078, Note_off_c, 0, 33, 59
1, 50087, Note_off_c, 0, 45, 65
1, 50093, Note_off_c, 0, 81, 63
1, 50104, Note_off_c, 0, 76, 51
1, 50129, Note_off_c, 0, 85, 64
1, 50132, Note_on_c, 0, 86, 67
1, 50179, Note_off_c, 0, 86, 56
1, 50218, Note_on_c, 0, 87, 66
1, 50295, Note_off_c, 0, 87, 64
1, 50296, Note_on_c, 0, 88, 59
1, 50366, Note_on_c, 0, 89, 71
1, 50367, Note_off_c, 0, 88, 64
1, 50370, Note_on_c, 0, 81, 61
1, 50381, Note_on_c, 0, 52, 42
1, 50391, Note_on_c, 0, 60, 34
1, 50394, Note_on_c, 0, 57, 29
1, 50408, Note_off_c, 0, 52, 54
1, 50413, Note_off_c, 0, 81, 50
1, 50421, Note_off_c, 0, 60, 49
1, 50429, Note_off_c, 0, 57, 45
1, 50456, Note_on_c, 0, 88, 62
1, 50477, Note_off_c, 0, 89, 55
1, 50508, Note_off_c, 0, 88, 59
1, 50515, Note_on_c, 0, 87, 57
1, 50543, Note_off_c, 0, 87, 67
1, 50605, Note_on_c, 0, 86, 55
1, 50666, Note_on_c, 0, 57, 53
1, 50668, Note_off_c, 0, 86, 60
1, 50674, Note_on_c, 0, 85, 62
1, 50679, Note_on_c, 0, 76, 42
1, 50681, Note_on_c, 0, 64, 46
1, 50682, Note_on_c, 0, 60, 42
1, 50691, Note_off_c, 0, 57, 63
1, 50701, Note_off_c, 0, 85, 68
1, 50704, Note_off_c, 0, 76, 56
1, 50707, Note_off_c, 0, 60, 53
1, 50712, Note_off_c, 0, 64, 58
1, 50759, Note_on_c, 0, 84, 62
1, 50819, Note_on_c, 0, 83, 58
1, 50883, Note_on_c, 0, 82, 61
1, 50889, Note_off_c, 0, 84, 37
1, 50901, Note_off_c, 0, 83, 59
1, 50951, Note_off_c, 0, 82, 62
1, 50957, Note_on_c, 0, 81, 67
1, 50961, Note_on_c, 0, 72, 55
1, 50961, Note_on_c, 0, 76, 56
1, 50981, Note_off_c, 0, 76, 64
1, 50987, Note_off_c, 0, 72, 66
1, 51020, Note_off_c, 0, 81, 60
1, 51023, Note_on_c, 0, 80, 69
1, 51075, Note_off_c, 0, 80, 62
1, 51119, Note_on_c, 0, 83, 57
1, 51185, Note_on_c, 0, 81, 52
1, 51217, Note_off_c, 0, 83, 62
1, 51260, Note_off_c, 0, 81, 62
1, 51278, Note_on_c, 0, 82, 58
1, 51280, Note_on_c, 0, 38, 52
1, 51291, Note_on_c, 0, 50, 40
1, 51307, Note_off_c, 0, 38, 59
1, 51321, Note_off_c, 0, 50, 46
1, 51336, Note_off_c, 0, 82, 64
1, 51336, Poly_aftertouch_c, 0, 74, 127
1, 51370, Note_on_c, 0, 83, 47
1, 51373, Poly_aftertouch_c, 0, 74, 0
1, 51438, Note_off_c, 0, 83, 52
1, 51444, Note_on_c, 0, 84, 60
1, 51518, Note_off_c, 0, 84, 60
1, 51521, Note_on_c, 0, 85, 66
1, 51568, Note_off_c, 0, 85, 58
1, 51590, Note_on_c, 0, 58, 45
1, 51602, Note_on_c, 0, 50, 47
1, 51602, Note_on_c, 0, 53, 39
1, 51609, Note_on_c, 0, 86, 62
1, 51612, Note_on_c, 0, 62, 17
1, 51625, Note_off_c, 0, 58, 61
1, 51633, Note_off_c, 0, 53, 58
1, 51649, Note_off_c, 0, 50, 65
1, 51652, Note_off_c, 0, 62, 50
1, 51667, Poly_aftertouch_c, 0, 77, 0
1, 51672, Note_off_c, 0, 86, 61
1, 51681, Note_on_c, 0, 87, 65
1, 51749, Note_off_c, 0, 87, 63
1, 51770, Note_on_c, 0, 88, 54
1, 51811, Note_off_c, 0, 88, 58
1, 51828, Note_on_c, 0, 89, 59
1, 51906, Note_off_c, 0, 89, 61
1, 51909, Note_on_c, 0, 40, 48
1, 51914, Note_on_c, 0, 88, 53
1, 51926, Note_on_c, 0, 52, 50
1, 51929, Note_on_c, 0, 80, 41
1, 51930, Control_c, 0, 64, 12
1, 51938, Note_off_c, 0, 40, 57
1, 51945, Control_c, 0, 64, 20
1, 51956, Note_off_c, 0, 52, 63
1, 51957, Note_off_c, 0, 80, 56
1, 51960, Control_c, 0, 64, 24
1, 51969, Note_off_c, 0, 88, 58
1, 51974, Control_c, 0, 64, 26
1, 51989, Control_c, 0, 64, 27
1, 52004, Control_c, 0, 64, 27
1, 52006, Note_on_c, 0, 89, 35
1, 52034, Control_c, 0, 64, 27
1, 52064, Control_c, 0, 64, 26
1, 52065, Note_off_c, 0, 89, 49
1, 52075, Note_on_c, 0, 90, 59
1, 52078, Control_c, 0, 64, 26
1, 52093, Control_c, 0, 64, 25
1, 52108, Control_c, 0, 64, 25
1, 52111, Note_off_c, 0, 90, 68
1, 52123, Control_c, 0, 64, 24
1, 52165, Note_on_c, 0, 91, 64
1, 52182, Control_c, 0, 64, 24
1, 52212, Control_c, 0, 64, 23
1, 52217, Note_off_c, 0, 91, 59
1, 52227, Control_c, 0, 64, 23
1, 52230, Note_on_c, 0, 52, 52
1, 52231, Note_on_c, 0, 92, 59
1, 52237, Note_on_c, 0, 62, 39
1, 52241, Note_on_c, 0, 59, 41
1, 52242, Control_c, 0, 64, 22
1, 52254, Note_off_c, 0, 92, 62
1, 52266, Note_off_c, 0, 59, 59
1, 52267, Note_off_c, 0, 62, 54
1, 52271, Poly_aftertouch_c, 0, 86, 127
1, 52283, Note_off_c, 0, 52, 65
1, 52313, Note_on_c, 0, 93, 64
1, 52325, Poly_aftertouch_c, 0, 86, 0
1, 52345, Control_c, 0, 64, 22
1, 52360, Control_c, 0, 64, 21
1, 52372, Note_off_c, 0, 93, 53
1, 52376, Control_c, 0, 64, 20
1, 52384, Note_on_c, 0, 94, 54
1, 52391, Control_c, 0, 64, 20
1, 52405, Control_c, 0, 64, 19
1, 52420, Control_c, 0, 64, 18
1, 52435, Control_c, 0, 64, 18
1, 52450, Control_c, 0, 64, 17
1, 52452, Note_off_c, 0, 94, 66
1, 52465, Control_c, 0, 64, 16
1, 52466, Note_on_c, 0, 95, 64
1, 52479, Control_c, 0, 64, 15
1, 52546, Note_on_c, 0, 41, 48
1, 52561, Note_on_c, 0, 53, 41
1, 52562, Note_on_c, 0, 93, 67
1, 52578, Note_off_c, 0, 41, 53
1, 52600, Note_off_c, 0, 53, 61
1, 52603, Note_off_c, 0, 95, 38
1, 52605, Control_c, 0, 64, 15
1, 52620, Control_c, 0, 64, 14
1, 52648, Note_off_c, 0, 93, 61
1, 52651, Note_on_c, 0, 92, 55
1, 52671, Note_off_c, 0, 92, 66
1, 52728, Note_on_c, 0, 91, 69
1, 52799, Note_off_c, 0, 91, 59
1, 52804, Note_on_c, 0, 90, 53
1, 52827, Note_off_c, 0, 90, 62
1, 52878, Note_on_c, 0, 65, 48
1, 52880, Note_on_c, 0, 57, 50
1, 52886, Control_c, 0, 64, 15
1, 52887, Note_on_c, 0, 89, 66
1, 52890, Note_on_c, 0, 81, 45
1, 52895, Note_on_c, 0, 84, 54
1, 52901, Control_c, 0, 64, 15
1, 52903, Note_off_c, 0, 65, 61
1, 52904, Note_on_c, 0, 60, 22
1, 52916, Control_c, 0, 64, 16
1, 52924, Note_off_c, 0, 84, 54
1, 52925, Note_off_c, 0, 57, 63
1, 52928, Note_off_c, 0, 81, 48
1, 52940, Note_off_c, 0, 60, 43
1, 52945, Control_c, 0, 64, 17
1, 52970, Note_on_c, 0, 88, 63
1, 52982, Note_off_c, 0, 89, 54
1, 53014, Note_off_c, 0, 88, 62
1, 53030, Note_on_c, 0, 87, 53
1, 53049, Control_c, 0, 64, 16
1, 53053, Note_off_c, 0, 87, 58
1, 53093, Control_c, 0, 64, 16
1, 53119, Note_on_c, 0, 86, 56
1, 53122, Control_c, 0, 64, 15
1, 53137, Control_c, 0, 64, 14
1, 53152, Control_c, 0, 64, 14
1, 53179, Note_on_c, 0, 76, 53
1, 53181, Note_on_c, 0, 85, 64
1, 53181, Note_off_c, 0, 86, 62
1, 53183, Control_c, 0, 64, 13
1, 53184, Note_on_c, 0, 36, 54
1, 53190, Note_on_c, 0, 48, 58
1, 53198, Control_c, 0, 64, 13
1, 53201, Note_off_c, 0, 76, 62
1, 53208, Note_off_c, 0, 85, 68
1, 53214, Note_off_c, 0, 36, 54
1, 53219, Note_off_c, 0, 48, 66
1, 53257, Control_c, 0, 64, 12
1, 53261, Note_on_c, 0, 84, 63
1, 53333, Note_on_c, 0, 83, 63
1, 53374, Note_off_c, 0, 84, 62
1, 53401, Note_off_c, 0, 83, 64
1, 53411, Note_on_c, 0, 82, 53
1, 53428, Control_c, 0, 64, 11
1, 53432, Note_off_c, 0, 82, 63
1, 53443, Control_c, 0, 64, 9
1, 53458, Control_c, 0, 64, 0
1, 53496, Note_on_c, 0, 72, 60
1, 53498, Note_on_c, 0, 52, 55
1, 53500, Note_on_c, 0, 64, 51
1, 53500, Note_on_c, 0, 81, 65
1, 53504, Note_on_c, 0, 57, 49
1, 53526, Note_off_c, 0, 64, 58
1, 53530, Note_off_c, 0, 57, 62
1, 53536, Note_off_c, 0, 52, 67
1, 53554, Note_off_c, 0, 81, 62
1, 53559, Note_off_c, 0, 72, 57
1, 53562, Note_on_c, 0, 80, 63
1, 53593, Note_off_c, 0, 80, 65
1, 53643, Note_on_c, 0, 79, 69
1, 53712, Note_on_c, 0, 78, 71
1, 53721, Note_off_c, 0, 79, 56
1, 53777, Note_off_c, 0, 78, 64
1, 53804, Note_on_c, 0, 38, 57
1, 53807, Note_on_c, 0, 77, 66
1, 53809, Note_on_c, 0, 70, 57
1, 53819, Note_on_c, 0, 50, 44
1, 53831, Note_off_c, 0, 38, 57
1, 53845, Note_off_c, 0, 50, 55
1, 53849, Note_off_c, 0, 70, 57
1, 53883, Note_on_c, 0, 76, 58
1, 53925, Note_off_c, 0, 77, 60
1, 53950, Note_on_c, 0, 75, 64
1, 53953, Note_off_c, 0, 76, 64
1, 53979, Note_off_c, 0, 75, 66
1, 54040, Note_on_c, 0, 74, 68
1, 54122, Note_on_c, 0, 73, 70
1, 54122, Note_off_c, 0, 74, 65
1, 54123, Note_on_c, 0, 62, 58
1, 54124, Note_on_c, 0, 58, 60
1, 54126, Note_on_c, 0, 65, 51
1, 54127, Note_on_c, 0, 50, 48
1, 54129, Note_on_c, 0, 53, 58
1, 54137, Note_on_c, 0, 70, 53
1, 54147, Control_c, 0, 64, 28
1, 54160, Note_off_c, 0, 50, 57
1, 54161, Note_off_c, 0, 70, 61
1, 54162, Control_c, 0, 64, 43
1, 54168, Note_off_c, 0, 62, 58
1, 54177, Control_c, 0, 64, 59
1, 54192, Control_c, 0, 64, 73
1, 54196, Note_off_c, 0, 73, 66
1, 54201, Note_off_c, 0, 65, 59
1, 54204, Note_on_c, 0, 74, 66
1, 54204, Note_off_c, 0, 58, 60
1, 54207, Control_c, 0, 64, 75
1, 54275, Note_off_c, 0, 74, 65
1, 54279, Note_on_c, 0, 77, 72
1, 54337, Note_off_c, 0, 77, 57
1, 54355, Control_c, 0, 64, 73
1, 54359, Note_on_c, 0, 74, 75
1, 54369, Control_c, 0, 64, 65
1, 54384, Control_c, 0, 64, 50
1, 54399, Control_c, 0, 64, 10
1, 54408, Note_off_c, 0, 74, 55
1, 54414, Control_c, 0, 64, 0
1, 54421, Note_off_c, 0, 53, 40
1, 54427, Note_on_c, 0, 52, 55
1, 54428, Note_on_c, 0, 57, 52
1, 54433, Note_on_c, 0, 60, 51
1, 54443, Note_on_c, 0, 71, 63
1, 54452, Note_on_c, 0, 64, 47
1, 54458, Control_c, 0, 64, 24
1, 54468, Note_on_c, 0, 69, 13
1, 54473, Note_off_c, 0, 60, 65
1, 54473, Control_c, 0, 64, 44
1, 54488, Control_c, 0, 64, 58
1, 54503, Control_c, 0, 64, 65
1, 54506, Note_off_c, 0, 64, 60
1, 54508, Note_off_c, 0, 57, 61
1, 54509, Note_off_c, 0, 52, 64
1, 54512, Note_off_c, 0, 69, 38
1, 54517, Control_c, 0, 64, 66
1, 54522, Note_off_c, 0, 71, 60
1, 54529, Note_on_c, 0, 72, 68
1, 54586, Note_off_c, 0, 72, 63
1, 54588, Note_on_c, 0, 76, 74
1, 54642, Note_off_c, 0, 76, 56
1, 54651, Control_c, 0, 64, 65
1, 54666, Control_c, 0, 64, 60
1, 54669, Note_on_c, 0, 72, 68
1, 54681, Control_c, 0, 64, 44
1, 54696, Control_c, 0, 64, 0
1, 54723, Note_off_c, 0, 72, 60
1, 54748, Note_on_c, 0, 52, 62
1, 54748, Note_on_c, 0, 70, 65
1, 54762, Note_on_c, 0, 62, 51
1, 54770, Control_c, 0, 64, 35
1, 54785, Control_c, 0, 64, 53
1, 54788, Note_on_c, 0, 68, 10
1, 54800, Control_c, 0, 64, 64
1, 54812, Note_off_c, 0, 70, 65
1, 54815, Control_c, 0, 64, 71
1, 54821, Note_off_c, 0, 62, 53
1, 54830, Control_c, 0, 64, 72
1, 54838, Note_on_c, 0, 71, 61
1, 54851, Note_off_c, 0, 68, 48
1, 54852, Control_c, 0, 64, 74
1, 54867, Control_c, 0, 64, 75
1, 54898, Note_off_c, 0, 71, 64
1, 54900, Note_on_c, 0, 76, 72
1, 54935, Note_off_c, 0, 76, 57
1, 54955, Control_c, 0, 64, 76
1, 54970, Control_c, 0, 64, 77
1, 54972, Note_on_c, 0, 71, 64
1, 55015, Control_c, 0, 64, 74
1, 55030, Control_c, 0, 64, 65
1, 55044, Control_c, 0, 64, 51
1, 55046, Note_off_c, 0, 71, 63
1, 55059, Control_c, 0, 64, 0
1, 55083, Note_on_c, 0, 45, 63
1, 55087, Note_on_c, 0, 57, 60
1, 55089, Note_on_c, 0, 69, 63
1, 55092, Note_on_c, 0, 60, 56
1, 55104, Note_off_c, 0, 52, 62
1, 55108, Note_off_c, 0, 57, 63
1, 55110, Note_off_c, 0, 45, 65
1, 55139, Note_off_c, 0, 60, 46
1, 55157, Note_on_c, 0, 70, 66
1, 55194, Note_off_c, 0, 69, 63
1, 55231, Note_on_c, 0, 71, 51
1, 55242, Note_off_c, 0, 70, 55
1, 55299, Note_off_c, 0, 71, 66
1, 55318, Note_on_c, 0, 72, 57
1, 55392, Note_off_c, 0, 72, 63
1, 55396, Note_on_c, 0, 69, 47
1, 55396, Note_on_c, 0, 73, 61
1, 55398, Note_on_c, 0, 41, 51
1, 55407, Note_on_c, 0, 53, 48
1, 55413, Note_on_c, 0, 62, 33
1, 55414, Control_c, 0, 64, 34
1, 55429, Control_c, 0, 64, 51
1, 55443, Note_off_c, 0, 69, 48
1, 55444, Control_c, 0, 64, 66
1, 55458, Note_off_c, 0, 62, 48
1, 55459, Control_c, 0, 64, 87
1, 55474, Control_c, 0, 64, 91
1, 55483, Note_on_c, 0, 74, 61
1, 55485, Note_off_c, 0, 73, 61
1, 55504, Control_c, 0, 64, 92
1, 55518, Control_c, 0, 64, 93
1, 55524, Note_off_c, 0, 74, 58
1, 55568, Note_on_c, 0, 75, 70
1, 55578, Control_c, 0, 64, 93
1, 55645, Note_off_c, 0, 75, 61
1, 55659, Note_on_c, 0, 76, 57
1, 55664, Note_off_c, 0, 53, 36
1, 55733, Note_on_c, 0, 77, 68
1, 55742, Note_off_c, 0, 76, 64
1, 55759, Note_on_c, 0, 69, 40
1, 55770, Note_on_c, 0, 74, 34
1, 55790, Note_off_c, 0, 69, 52
1, 55802, Note_off_c, 0, 74, 56
1, 55817, Note_off_c, 0, 77, 62
1, 55831, Note_on_c, 0, 78, 64
1, 55882, Note_off_c, 0, 78, 64
1, 55924, Note_on_c, 0, 79, 56
1, 55927, Control_c, 0, 64, 93
1, 55941, Control_c, 0, 64, 84
1, 55956, Control_c, 0, 64, 70
1, 55971, Control_c, 0, 64, 59
1, 55972, Note_off_c, 0, 79, 56
1, 55986, Control_c, 0, 64, 38
1, 55987, Note_on_c, 0, 80, 60
1, 56001, Control_c, 0, 64, 0
1, 56015, Control_c, 0, 64, 14
1, 56023, Note_off_c, 0, 41, 35
1, 56030, Control_c, 0, 64, 40
1, 56045, Control_c, 0, 64, 57
1, 56049, Note_on_c, 0, 40, 68
1, 56052, Note_on_c, 0, 52, 65
1, 56058, Note_off_c, 0, 80, 45
1, 56060, Control_c, 0, 64, 76
1, 56068, Note_on_c, 0, 81, 71
1, 56075, Control_c, 0, 64, 127
1, 56077, Note_on_c, 0, 76, 45
1, 56089, Note_on_c, 0, 74, 31
1, 56091, Note_off_c, 0, 52, 65
1, 56103, Note_off_c, 0, 76, 57
1, 56115, Note_off_c, 0, 40, 62
1, 56138, Note_off_c, 0, 74, 47
1, 56140, Note_off_c, 0, 81, 62
1, 56150, Note_on_c, 0, 82, 68
1, 56243, Note_on_c, 0, 83, 59
1, 56259, Note_off_c, 0, 82, 62
1, 56269, Note_off_c, 0, 83, 64
1, 56273, Note_on_c, 0, 84, 70
1, 56282, Control_c, 0, 64, 92
1, 56296, Control_c, 0, 64, 73
1, 56302, Note_off_c, 0, 84, 59
1, 56311, Control_c, 0, 64, 60
1, 56311, Control_c, 0, 67, 127
1, 56326, Control_c, 0, 64, 26
1, 56326, Control_c, 0, 67, 120
1, 56348, Control_c, 0, 64, 0
1, 56348, Control_c, 0, 67, 102
1, 56363, Control_c, 0, 67, 74
1, 56371, Note_on_c, 0, 81, 60
1, 56374, Note_on_c, 0, 45, 77
1, 56378, Note_on_c, 0, 33, 65
1, 56380, Control_c, 0, 67, 48
1, 56394, Control_c, 0, 67, 35
1, 56398, Note_on_c, 0, 76, 19
1, 56409, Control_c, 0, 67, 29
1, 56415, Note_off_c, 0, 45, 64
1, 56421, Note_off_c, 0, 33, 67
1, 56424, Control_c, 0, 67, 17
1, 56439, Control_c, 0, 67, 0
1, 56441, Note_off_c, 0, 76, 29
1, 56443, Note_off_c, 0, 81, 56
1, 56460, Note_on_c, 0, 82, 67
1, 56466, Poly_aftertouch_c, 0, 72, 0
1, 56552, Note_on_c, 0, 83, 61
1, 56573, Note_off_c, 0, 82, 57
1, 56598, Note_off_c, 0, 83, 64
1, 56615, Note_on_c, 0, 84, 58
1, 56695, Note_on_c, 0, 85, 71
1, 56702, Note_on_c, 0, 74, 58
1, 56702, Note_off_c, 0, 84, 64
1, 56703, Note_on_c, 0, 41, 87
1, 56704, Note_on_c, 0, 81, 56
1, 56705, Note_on_c, 0, 29, 79
1, 56720, Control_c, 0, 64, 38
1, 56735, Control_c, 0, 64, 52
1, 56744, Note_off_c, 0, 81, 60
1, 56750, Control_c, 0, 64, 67
1, 56758, Note_off_c, 0, 74, 56
1, 56764, Control_c, 0, 64, 127
1, 56797, Note_on_c, 0, 86, 70
1, 56800, Note_off_c, 0, 85, 62
1, 56831, Note_off_c, 0, 86, 57
1, 56887, Note_on_c, 0, 87, 71
1, 56967, Note_on_c, 0, 88, 58
1, 57002, Note_off_c, 0, 87, 57
1, 57053, Note_on_c, 0, 89, 74
1, 57061, Note_off_c, 0, 88, 64
1, 57068, Note_off_c, 0, 41, 52
1, 57074, Note_on_c, 0, 86, 55
1, 57088, Note_on_c, 0, 81, 47
1, 57123, Note_off_c, 0, 86, 44
1, 57127, Note_off_c, 0, 81, 48
1, 57146, Note_off_c, 0, 89, 61
1, 57154, Note_on_c, 0, 90, 74
1, 57225, Note_off_c, 0, 90, 65
1, 57246, Note_on_c, 0, 91, 71
1, 57313, Note_off_c, 0, 91, 60
1, 57317, Note_on_c, 0, 92, 72
1, 57350, Control_c, 0, 64, 70
1, 57365, Control_c, 0, 64, 53
1, 57371, Note_off_c, 0, 92, 60
1, 57380, Control_c, 0, 64, 13
1, 57382, Note_off_c, 0, 29, 40
1, 57394, Control_c, 0, 64, 0
1, 57398, Note_on_c, 0, 40, 91
1, 57399, Note_on_c, 0, 28, 84
1, 57401, Note_on_c, 0, 93, 88
1, 57409, Control_c, 0, 64, 15
1, 57415, Note_on_c, 0, 88, 64
1, 57418, Note_on_c, 0, 86, 62
1, 57424, Control_c, 0, 64, 46
1, 57439, Control_c, 0, 64, 76
1, 57454, Control_c, 0, 64, 127
1, 57459, Note_off_c, 0, 88, 59
1, 57486, Note_off_c, 0, 28, 61
1, 57509, Note_on_c, 0, 94, 81
1, 57510, Note_off_c, 0, 93, 62
1, 57528, Note_off_c, 0, 86, 35
1, 57603, Note_on_c, 0, 95, 88
1, 57606, Note_off_c, 0, 94, 68
1, 57695, Note_on_c, 0, 96, 88
1, 57821, Note_off_c, 0, 95, 0
1, 57832, Note_on_c, 0, 45, 90
1, 57834, Note_on_c, 0, 88, 87
1, 57835, Note_on_c, 0, 93, 89
1, 57845, Note_on_c, 0, 84, 80
1, 57845, Note_on_c, 0, 95, 38
1, 57847, Note_on_c, 0, 33, 81
1, 57854, Note_off_c, 0, 96, 0
1, 57854, Note_on_c, 0, 96, 11
1, 57861, Control_c, 0, 64, 75
1, 57876, Control_c, 0, 64, 56
1, 57878, Note_off_c, 0, 96, 51
1, 57884, Note_off_c, 0, 95, 50
1, 57888, Note_off_c, 0, 40, 62
1, 57891, Control_c, 0, 64, 13
1, 57906, Control_c, 0, 64, 0
1, 57911, Note_off_c, 0, 88, 62
1, 57996, Control_c, 0, 64, 31
1, 58010, Note_on_c, 0, 92, 80
1, 58010, Control_c, 0, 64, 57
1, 58025, Control_c, 0, 64, 90
1, 58031, Note_off_c, 0, 93, 58
1, 58040, Control_c, 0, 64, 127
1, 58087, Note_off_c, 0, 92, 65
1, 58121, Note_on_c, 0, 91, 77
1, 58198, Note_on_c, 0, 90, 78
1, 58215, Note_off_c, 0, 91, 57
1, 58217, Control_c, 0, 64, 96
1, 58218, Note_off_c, 0, 84, 47
1, 58232, Control_c, 0, 64, 70
1, 58247, Note_off_c, 0, 90, 68
1, 58247, Control_c, 0, 64, 57
1, 58262, Control_c, 0, 64, 35
1, 58277, Control_c, 0, 64, 28
1, 58291, Control_c, 0, 64, 43
1, 58298, Note_on_c, 0, 89, 77
1, 58306, Control_c, 0, 64, 54
1, 58311, Note_on_c, 0, 81, 63
1, 58321, Control_c, 0, 64, 63
1, 58326, Note_on_c, 0, 86, 53
1, 58335, Control_c, 0, 64, 68
1, 58350, Control_c, 0, 64, 71
1, 58365, Control_c, 0, 64, 72
1, 58380, Note_off_c, 0, 86, 52
1, 58380, Control_c, 0, 64, 75
1, 58395, Control_c, 0, 64, 78
1, 58396, Note_on_c, 0, 88, 69
1, 58410, Control_c, 0, 64, 79
1, 58425, Note_off_c, 0, 89, 64
1, 58429, Note_off_c, 0, 81, 0
1, 58465, Note_on_c, 0, 87, 65
1, 58467, Note_off_c, 0, 88, 63
1, 58467, Poly_aftertouch_c, 0, 81, 127
1, 58484, Control_c, 0, 64, 80
1, 58490, Note_off_c, 0, 87, 68
1, 58499, Control_c, 0, 64, 81
1, 58526, Poly_aftertouch_c, 0, 81, 0
1, 58543, Control_c, 0, 64, 77
1, 58544, Note_on_c, 0, 86, 68
1, 58558, Control_c, 0, 64, 69
1, 58573, Control_c, 0, 64, 59
1, 58595, Control_c, 0, 64, 32
1, 58610, Control_c, 0, 64, 11
1, 58625, Control_c, 0, 64, 31
1, 58630, Note_on_c, 0, 77, 63
1, 58630, Note_on_c, 0, 85, 69
1, 58636, Note_off_c, 0, 86, 60
1, 58639, Control_c, 0, 64, 47
1, 58654, Control_c, 0, 64, 62
1, 58663, Note_off_c, 0, 77, 62
1, 58663, Note_off_c, 0, 85, 67
1, 58669, Control_c, 0, 64, 75
1, 58684, Control_c, 0, 64, 79
1, 58714, Control_c, 0, 64, 79
1, 58729, Control_c, 0, 64, 78
1, 58729, Note_on_c, 0, 84, 63
1, 58791, Note_on_c, 0, 83, 62
1, 58830, Note_off_c, 0, 84, 63
1, 58851, Note_off_c, 0, 83, 65
1, 58857, Note_on_c, 0, 82, 63
1, 58863, Control_c, 0, 64, 75
1, 58878, Control_c, 0, 64, 65
1, 58880, Note_off_c, 0, 82, 68
1, 58893, Control_c, 0, 64, 53
1, 58908, Control_c, 0, 64, 30
1, 58922, Control_c, 0, 64, 24
1, 58937, Note_on_c, 0, 74, 65
1, 58937, Control_c, 0, 64, 39
1, 58947, Note_on_c, 0, 81, 63
1, 58952, Control_c, 0, 64, 52
1, 58966, Control_c, 0, 64, 65
1, 58981, Control_c, 0, 64, 72
1, 58996, Control_c, 0, 64, 73
1, 59014, Note_on_c, 0, 80, 77
1, 59014, Note_off_c, 0, 74, 55
1, 59026, Control_c, 0, 64, 74
1, 59028, Note_off_c, 0, 81, 60
1, 59057, Note_off_c, 0, 80, 62
1, 59118, Note_on_c, 0, 79, 70
1, 59173, Control_c, 0, 64, 74
1, 59184, Note_on_c, 0, 78, 63
1, 59189, Note_off_c, 0, 79, 59
1, 59203, Control_c, 0, 64, 74
1, 59211, Note_off_c, 0, 78, 70
1, 59218, Control_c, 0, 64, 68
1, 59233, Control_c, 0, 64, 58
1, 59248, Control_c, 0, 64, 33
1, 59262, Control_c, 0, 64, 0
1, 59271, Note_on_c, 0, 77, 65
1, 59284, Note_on_c, 0, 69, 53
1, 59292, Control_c, 0, 64, 26
1, 59293, Note_on_c, 0, 74, 52
1, 59307, Control_c, 0, 64, 41
1, 59322, Control_c, 0, 64, 56
1, 59337, Note_off_c, 0, 74, 63
1, 59344, Control_c, 0, 64, 66
1, 59359, Control_c, 0, 64, 72
1, 59361, Note_on_c, 0, 76, 60
1, 59382, Note_off_c, 0, 69, 35
1, 59423, Note_off_c, 0, 77, 59
1, 59430, Note_on_c, 0, 75, 61
1, 59432, Note_off_c, 0, 76, 62
1, 59465, Note_off_c, 0, 75, 64
1, 59520, Note_on_c, 0, 74, 63
1, 59552, Control_c, 0, 64, 69
1, 59567, Control_c, 0, 64, 63
1, 59582, Control_c, 0, 64, 50
1, 59596, Control_c, 0, 64, 27
1, 59599, Note_off_c, 0, 74, 63
1, 59606, Note_on_c, 0, 65, 54
1, 59611, Note_on_c, 0, 73, 65
1, 59611, Control_c, 0, 64, 16
1, 59626, Control_c, 0, 64, 25
1, 59639, Note_off_c, 0, 65, 67
1, 59641, Control_c, 0, 64, 34
1, 59645, Note_off_c, 0, 73, 66
1, 59656, Control_c, 0, 64, 40
1, 59671, Control_c, 0, 64, 48
1, 59686, Control_c, 0, 64, 56
1, 59686, Control_c, 0, 67, 9
1, 59701, Control_c, 0, 64, 61
1, 59701, Control_c, 0, 67, 13
1, 59707, Note_on_c, 0, 72, 68
1, 59716, Control_c, 0, 64, 63
1, 59716, Control_c, 0, 67, 17
1, 59730, Control_c, 0, 67, 21
1, 59745, Control_c, 0, 67, 21
1, 59760, Control_c, 0, 67, 20
1, 59784, Note_on_c, 0, 71, 52
1, 59821, Note_off_c, 0, 72, 61
1, 59834, Control_c, 0, 67, 20
1, 59847, Note_off_c, 0, 71, 64
1, 59849, Control_c, 0, 64, 63
1, 59853, Note_on_c, 0, 70, 58
1, 59863, Control_c, 0, 64, 62
1, 59877, Note_off_c, 0, 70, 65
1, 59878, Control_c, 0, 64, 57
1, 59878, Control_c, 0, 67, 20
1, 59893, Control_c, 0, 64, 48
1, 59908, Control_c, 0, 64, 38
1, 59923, Control_c, 0, 64, 37
1, 59937, Control_c, 0, 64, 40
1, 59943, Note_on_c, 0, 62, 65
1, 59952, Control_c, 0, 64, 45
1, 59953, Note_on_c, 0, 69, 55
1, 59967, Control_c, 0, 64, 52
1, 59972, Note_off_c, 0, 62, 62
1, 59979, Note_off_c, 0, 69, 53
1, 59981, Control_c, 0, 64, 56
1, 59996, Control_c, 0, 64, 57
1, 59999, Poly_aftertouch_c, 0, 65, 127
1, 60011, Control_c, 0, 64, 57
1, 60026, Control_c, 0, 64, 56
1, 60037, Poly_aftertouch_c, 0, 65, 0
1, 60039, Note_on_c, 0, 68, 65
1, 60041, Control_c, 0, 64, 55
1, 60070, Control_c, 0, 67, 20
1, 60072, Note_off_c, 0, 68, 61
1, 60093, Control_c, 0, 64, 55
1, 60108, Control_c, 0, 64, 53
1, 60123, Control_c, 0, 64, 49
1, 60138, Control_c, 0, 64, 45
1, 60140, Note_on_c, 0, 67, 62
1, 60153, Control_c, 0, 64, 41
1, 60153, Control_c, 0, 67, 19
1, 60168, Control_c, 0, 64, 38
1, 60183, Control_c, 0, 64, 35
1, 60197, Control_c, 0, 64, 31
1, 60212, Control_c, 0, 64, 28
1, 60220, Note_on_c, 0, 66, 67
1, 60227, Control_c, 0, 64, 25
1, 60230, Note_off_c, 0, 67, 61
1, 60242, Control_c, 0, 64, 21
1, 60257, Control_c, 0, 64, 16
1, 60257, Control_c, 0, 67, 18
1, 60271, Control_c, 0, 64, 8
1, 60271, Control_c, 0, 67, 18
1, 60286, Control_c, 0, 64, 0
1, 60288, Note_off_c, 0, 66, 61
1, 60315, Control_c, 0, 67, 18
1, 60340, Note_on_c, 0, 65, 60
1, 60344, Note_on_c, 0, 57, 48
1, 60354, Note_on_c, 0, 62, 44
1, 60398, Note_off_c, 0, 57, 55
1, 60426, Note_off_c, 0, 62, 58
1, 60460, Note_on_c, 0, 64, 54
1, 60496, Note_off_c, 0, 65, 39
1, 60553, Control_c, 0, 67, 18
1, 60584, Note_on_c, 0, 63, 57
1, 60587, Note_off_c, 0, 64, 54
1, 60705, Note_off_c, 0, 63, 54
1, 60717, Control_c, 0, 67, 18
1, 60729, Note_on_c, 0, 62, 54
1, 60872, Control_c, 0, 67, 19
1, 61010, Note_on_c, 0, 61, 46
1, 61022, Note_on_c, 0, 52, 38
1, 61027, Note_on_c, 0, 57, 18
1, 61168, Note_off_c, 0, 62, 36
1, 61242, Control_c, 0, 67, 18
1, 61257, Control_c, 0, 67, 18
1, 61331, Control_c, 0, 67, 17
1, 61346, Control_c, 0, 67, 17
1, 61406, Control_c, 0, 67, 16
1, 61509, Control_c, 0, 67, 16
1, 61524, Control_c, 0, 67, 15
1, 61916, Control_c, 0, 67, 16
1, 61962, Control_c, 0, 67, 16
1, 62369, Control_c, 0, 67, 16
1, 62383, Control_c, 0, 67, 15
1, 62473, Control_c, 0, 67, 15
1, 62532, Control_c, 0, 67, 14
1, 62606, Control_c, 0, 67, 14
1, 62695, Control_c, 0, 67, 13
1, 62785, Control_c, 0, 67, 13
1, 62947, Control_c, 0, 67, 12
1, 63193, Control_c, 0, 67, 12
1, 63326, Control_c, 0, 67, 11
1, 63557, Note_off_c, 0, 61, 11
1, 63571, Note_off_c, 0, 52, 5
1, 63633, Note_off_c, 0, 57, 6
1, 63668, Control_c, 0, 67, 12
1, 63898, Note_off_c, 0, 45, 31
1, 63910, Note_off_c, 0, 33, 32
1, 63942, Control_c, 0, 67, 11
1, 64060, Control_c, 0, 67, 12
1, 64461, Control_c, 0, 67, 11
1, 64777, Control_c, 0, 67, 11
1, 64837, Control_c, 0, 67, 10
1, 64852, Control_c, 0, 67, 10
1, 64867, Control_c, 0, 67, 0
1, 64942, End_track
0, 0, End_of_file
