0, 0, Header, 0, 1, 384
1, 0, Start_track
1, 0, Title_t, "Suite No. 3--Rui Shi            "
1, 0, Text_t, "2009 Piano-e-Competition audition round"
1, 0, Text_t, "captured January 2009"
1, 0, Text_t, "http://www.piano-e-competition.com/"
1, 0, Text_t, "File processed for distribution by software from Zenph Studios, Inc., http://www.zenph.com"
1, 0, Instrument_name_t, "Yamaha Disklavier Pro Mark IV concert grand piano, model DCFIIISM4PRO"
1, 0, Sequencer_specific, 39, 67, 113, 0, 1, 0, 1, 0, 83, 117, 105, 116, 101, 32, 78, 111, 46, 32, 51, 32, 32, 32, 32, 32, 82, 117, 105, 32, 83, 104, 105, 32, 32, 32, 32, 32, 32, 32, 32, 32
1, 0, Sequencer_specific, 6, 67, 113, 0, 0, 0, 69
1, 0, System_exclusive, 21, 67, 113, 126, 21, 0, 2, 2, 0, 3, 14, 1, 4, 1, 13, 13, 10, 11, 9, 2, 7, 247
1, 0, Sequencer_specific, 5, 67, 123, 12, 2, 1
1, 0, Tempo, 512820
1, 0, Time_signature, 4, 2, 24, 8
1, 0, System_exclusive, 5, 126, 127, 9, 1, 247
1, 1, System_exclusive, 8, 67, 16, 76, 0, 0, 126, 0, 247
1, 2, System_exclusive, 8, 67, 16, 76, 8, 9, 7, 1, 247
1, 3, Control_c, 0, 0, 0
1, 3, Control_c, 1, 0, 0
1, 3, Control_c, 2, 0, 0
1, 3, Control_c, 3, 0, 0
1, 3, Control_c, 4, 0, 0
1, 3, Control_c, 5, 0, 0
1, 3, Control_c, 6, 0, 0
1, 3, Control_c, 7, 0, 0
1, 3, Control_c, 8, 0, 0
1, 3, Control_c, 9, 0, 127
1, 3, Control_c, 10, 0, 0
1, 3, Control_c, 11, 0, 0
1, 3, Control_c, 12, 0, 0
1, 3, Control_c, 13, 0, 0
1, 3, Control_c, 14, 0, 0
1, 3, Control_c, 15, 0, 0
1, 4, Control_c, 0, 32, 0
1, 4, Control_c, 1, 32, 0
1, 4, Control_c, 2, 32, 0
1, 4, Control_c, 3, 32, 0
1, 4, Control_c, 4, 32, 0
1, 4, Control_c, 5, 32, 0
1, 4, Control_c, 6, 32, 0
1, 4, Control_c, 7, 32, 0
1, 4, Control_c, 8, 32, 0
1, 4, Control_c, 9, 32, 0
1, 4, Control_c, 10, 32, 0
1, 4, Control_c, 11, 32, 0
1, 4, Control_c, 12, 32, 0
1, 4, Control_c, 13, 32, 0
1, 4, Control_c, 14, 32, 0
1, 4, Control_c, 15, 32, 0
1, 5, Program_c, 0, 0
1, 5, Program_c, 1, 0
1, 5, Program_c, 2, 0
1, 5, Program_c, 3, 0
1, 5, Program_c, 4, 0
1, 5, Program_c, 5, 0
1, 5, Program_c, 6, 0
1, 5, Program_c, 7, 0
1, 5, Program_c, 8, 0
1, 5, Program_c, 9, 0
1, 5, Program_c, 10, 0
1, 5, Program_c, 11, 0
1, 5, Program_c, 12, 0
1, 5, Program_c, 13, 0
1, 5, Program_c, 14, 0
1, 5, Program_c, 15, 0
1, 6, Control_c, 0, 7, 100
1, 6, Control_c, 1, 7, 100
1, 6, Control_c, 2, 7, 100
1, 6, Control_c, 3, 7, 100
1, 6, Control_c, 4, 7, 100
1, 6, Control_c, 5, 7, 100
1, 6, Control_c, 6, 7, 100
1, 6, Control_c, 7, 7, 100
1, 6, Control_c, 8, 7, 100
1, 6, Control_c, 9, 7, 100
1, 6, Control_c, 10, 7, 100
1, 6, Control_c, 11, 7, 100
1, 6, Control_c, 12, 7, 100
1, 6, Control_c, 13, 7, 100
1, 6, Control_c, 14, 7, 100
1, 6, Control_c, 15, 7, 100
1, 1129, Note_on_c, 0, 26, 92
1, 1519, Note_on_c, 0, 38, 93
1, 1773, Note_on_c, 0, 50, 75
1, 1914, Note_on_c, 0, 52, 75
1, 1923, Note_off_c, 0, 50, 54
1, 2036, Note_on_c, 0, 53, 72
1, 2048, Note_off_c, 0, 52, 65
1, 2148, Note_off_c, 0, 53, 66
1, 2158, Note_on_c, 0, 55, 74
1, 2261, Note_off_c, 0, 55, 64
1, 2265, Note_on_c, 0, 57, 70
1, 2366, Note_on_c, 0, 59, 74
1, 2377, Note_off_c, 0, 57, 60
1, 2468, Note_on_c, 0, 61, 76
1, 2470, Note_off_c, 0, 59, 58
1, 2559, Note_off_c, 0, 61, 65
1, 2580, Note_on_c, 0, 62, 80
1, 2691, Note_on_c, 0, 64, 77
1, 2695, Note_off_c, 0, 62, 61
1, 2799, Note_on_c, 0, 65, 78
1, 2822, Note_off_c, 0, 64, 62
1, 2908, Note_on_c, 0, 67, 79
1, 2908, Note_off_c, 0, 65, 68
1, 3048, Note_on_c, 0, 69, 94
1, 3085, Note_off_c, 0, 67, 61
1, 3220, Note_on_c, 0, 64, 77
1, 3247, Note_off_c, 0, 69, 61
1, 3361, Note_on_c, 0, 65, 80
1, 3370, Note_off_c, 0, 64, 61
1, 3498, Note_on_c, 0, 61, 82
1, 3511, Note_off_c, 0, 65, 58
1, 3643, Note_on_c, 0, 62, 89
1, 3654, Note_off_c, 0, 61, 65
1, 3842, Note_on_c, 0, 65, 81
1, 3854, Note_off_c, 0, 62, 46
1, 3980, Note_on_c, 0, 69, 76
1, 3997, Note_off_c, 0, 65, 63
1, 4097, Note_off_c, 0, 69, 65
1, 4099, Note_on_c, 0, 74, 78
1, 4202, Note_on_c, 0, 64, 73
1, 4217, Note_off_c, 0, 74, 64
1, 4302, Note_on_c, 0, 67, 76
1, 4324, Note_off_c, 0, 64, 57
1, 4396, Note_on_c, 0, 76, 77
1, 4398, Note_off_c, 0, 67, 63
1, 4494, Note_on_c, 0, 73, 78
1, 4507, Note_off_c, 0, 76, 64
1, 4594, Note_on_c, 0, 74, 82
1, 4598, Note_off_c, 0, 73, 66
1, 4693, Note_off_c, 0, 74, 62
1, 4700, Note_on_c, 0, 69, 81
1, 4806, Note_on_c, 0, 77, 82
1, 4822, Note_off_c, 0, 69, 50
1, 4916, Note_on_c, 0, 74, 84
1, 4936, Note_off_c, 0, 77, 57
1, 5045, Note_on_c, 0, 81, 92
1, 5073, Note_off_c, 0, 74, 62
1, 5205, Note_on_c, 0, 76, 89
1, 5221, Note_off_c, 0, 81, 59
1, 5353, Note_on_c, 0, 77, 87
1, 5376, Note_off_c, 0, 76, 63
1, 5521, Note_on_c, 0, 73, 87
1, 5559, Note_off_c, 0, 77, 56
1, 5700, Note_on_c, 0, 74, 84
1, 5738, Note_off_c, 0, 73, 63
1, 5953, Note_on_c, 0, 82, 78
1, 6030, Note_off_c, 0, 74, 40
1, 6166, Note_on_c, 0, 81, 74
1, 6193, Note_off_c, 0, 82, 62
1, 6329, Note_on_c, 0, 79, 74
1, 6362, Note_off_c, 0, 81, 59
1, 6480, Note_on_c, 0, 81, 75
1, 6505, Note_off_c, 0, 79, 57
1, 6618, Note_on_c, 0, 76, 70
1, 6620, Note_off_c, 0, 81, 54
1, 6737, Note_on_c, 0, 77, 68
1, 6742, Note_off_c, 0, 76, 57
1, 6835, Note_on_c, 0, 79, 72
1, 6835, Note_off_c, 0, 77, 60
1, 6938, Note_on_c, 0, 77, 72
1, 6956, Note_off_c, 0, 79, 57
1, 7022, Note_off_c, 0, 77, 61
1, 7023, Note_on_c, 0, 81, 74
1, 7082, Note_off_c, 0, 81, 63
1, 7106, Note_on_c, 0, 74, 68
1, 7185, Note_on_c, 0, 77, 71
1, 7193, Note_off_c, 0, 74, 63
1, 7264, Note_on_c, 0, 76, 77
1, 7288, Note_off_c, 0, 77, 60
1, 7341, Note_off_c, 0, 76, 65
1, 7350, Note_on_c, 0, 79, 74
1, 7426, Note_on_c, 0, 73, 72
1, 7427, Note_off_c, 0, 79, 61
1, 7496, Note_off_c, 0, 73, 63
1, 7507, Note_on_c, 0, 76, 73
1, 7583, Note_on_c, 0, 74, 73
1, 7605, Note_off_c, 0, 76, 61
1, 7675, Note_off_c, 0, 74, 63
1, 7675, Note_on_c, 0, 77, 71
1, 7731, Note_off_c, 0, 77, 62
1, 7751, Note_on_c, 0, 69, 73
1, 7834, Note_on_c, 0, 72, 70
1, 7836, Note_off_c, 0, 69, 62
1, 7917, Note_on_c, 0, 70, 71
1, 7935, Note_off_c, 0, 72, 60
1, 7999, Note_on_c, 0, 74, 69
1, 8003, Note_off_c, 0, 70, 60
1, 8082, Note_off_c, 0, 74, 62
1, 8099, Note_on_c, 0, 67, 65
1, 8199, Note_on_c, 0, 70, 66
1, 8215, Note_off_c, 0, 67, 55
1, 8325, Note_on_c, 0, 69, 66
1, 8355, Note_off_c, 0, 70, 57
1, 8461, Note_on_c, 0, 67, 68
1, 8490, Note_off_c, 0, 69, 58
1, 8574, Note_on_c, 0, 65, 70
1, 8577, Note_off_c, 0, 67, 63
1, 8677, Note_on_c, 0, 64, 71
1, 8683, Note_off_c, 0, 65, 60
1, 8784, Note_on_c, 0, 65, 78
1, 8807, Note_off_c, 0, 64, 58
1, 8874, Note_on_c, 0, 69, 81
1, 8889, Note_off_c, 0, 65, 62
1, 8971, Note_on_c, 0, 62, 82
1, 8987, Note_off_c, 0, 69, 63
1, 9073, Note_on_c, 0, 65, 81
1, 9094, Note_off_c, 0, 62, 57
1, 9196, Note_on_c, 0, 64, 82
1, 9231, Note_off_c, 0, 65, 63
1, 9330, Note_on_c, 0, 67, 85
1, 9339, Note_off_c, 0, 64, 57
1, 9356, Note_on_c, 0, 66, 54
1, 9383, Note_off_c, 0, 66, 54
1, 9502, Note_on_c, 0, 59, 81
1, 9528, Note_off_c, 0, 67, 53
1, 9687, Note_on_c, 0, 62, 82
1, 9705, Note_off_c, 0, 59, 62
1, 9868, Note_on_c, 0, 61, 82
1, 9869, Note_off_c, 0, 62, 63
1, 10078, Note_on_c, 0, 69, 76
1, 10102, Note_off_c, 0, 61, 55
1, 10227, Note_on_c, 0, 64, 67
1, 10231, Note_off_c, 0, 69, 59
1, 10364, Note_on_c, 0, 67, 70
1, 10368, Note_off_c, 0, 64, 62
1, 10484, Note_on_c, 0, 65, 71
1, 10511, Note_off_c, 0, 67, 57
1, 10577, Note_off_c, 0, 65, 64
1, 10595, Note_on_c, 0, 61, 73
1, 10711, Note_on_c, 0, 62, 68
1, 10718, Note_off_c, 0, 61, 57
1, 10809, Note_on_c, 0, 64, 66
1, 10812, Note_off_c, 0, 62, 59
1, 10898, Note_on_c, 0, 62, 68
1, 10910, Note_off_c, 0, 64, 58
1, 10964, Note_off_c, 0, 62, 63
1, 10994, Note_on_c, 0, 57, 62
1, 11092, Note_on_c, 0, 58, 70
1, 11101, Note_off_c, 0, 57, 56
1, 11192, Note_on_c, 0, 60, 75
1, 11200, Note_off_c, 0, 58, 57
1, 11296, Note_on_c, 0, 58, 78
1, 11333, Note_off_c, 0, 60, 62
1, 11406, Note_on_c, 0, 57, 74
1, 11437, Note_off_c, 0, 58, 57
1, 11516, Note_on_c, 0, 55, 72
1, 11526, Note_off_c, 0, 57, 60
1, 11617, Note_on_c, 0, 58, 76
1, 11625, Note_off_c, 0, 55, 62
1, 11728, Note_on_c, 0, 57, 78
1, 11763, Note_off_c, 0, 58, 62
1, 11840, Note_on_c, 0, 55, 81
1, 11873, Note_off_c, 0, 57, 55
1, 11966, Note_on_c, 0, 53, 80
1, 11980, Note_off_c, 0, 55, 64
1, 12093, Note_on_c, 0, 52, 82
1, 12109, Note_off_c, 0, 53, 63
1, 12221, Note_on_c, 0, 53, 83
1, 12233, Note_off_c, 0, 52, 66
1, 12351, Note_on_c, 0, 57, 80
1, 12352, Note_off_c, 0, 53, 61
1, 12491, Note_on_c, 0, 49, 87
1, 12627, Note_on_c, 0, 52, 87
1, 12645, Note_off_c, 0, 57, 25
1, 12659, Note_off_c, 0, 49, 63
1, 12771, Note_on_c, 0, 50, 85
1, 12795, Note_off_c, 0, 52, 63
1, 12928, Note_off_c, 0, 26, 41
1, 12940, Note_on_c, 0, 53, 85
1, 12969, Note_off_c, 0, 50, 63
1, 13017, Note_off_c, 0, 38, 59
1, 13130, Note_on_c, 0, 45, 80
1, 13197, Note_off_c, 0, 53, 39
1, 13357, Note_on_c, 0, 48, 79
1, 13376, Note_off_c, 0, 45, 36
1, 13572, Note_on_c, 0, 46, 66
1, 13657, Note_off_c, 0, 48, 44
1, 13835, Note_on_c, 0, 50, 57
1, 13991, Note_on_c, 0, 55, 59
1, 14075, Note_off_c, 0, 46, 40
1, 14093, Control_c, 0, 64, 12
1, 14108, Control_c, 0, 64, 16
1, 14122, Note_on_c, 0, 58, 67
1, 14123, Control_c, 0, 64, 19
1, 14138, Control_c, 0, 64, 21
1, 14153, Control_c, 0, 64, 23
1, 14168, Control_c, 0, 64, 27
1, 14183, Control_c, 0, 64, 31
1, 14190, Note_off_c, 0, 50, 34
1, 14197, Control_c, 0, 64, 35
1, 14212, Control_c, 0, 64, 38
1, 14227, Control_c, 0, 64, 40
1, 14233, Note_on_c, 0, 62, 67
1, 14242, Control_c, 0, 64, 41
1, 14257, Control_c, 0, 64, 42
1, 14271, Control_c, 0, 64, 43
1, 14286, Control_c, 0, 64, 44
1, 14293, Note_off_c, 0, 55, 36
1, 14301, Control_c, 0, 64, 44
1, 14307, Note_off_c, 0, 58, 62
1, 14315, Control_c, 0, 64, 44
1, 14330, Control_c, 0, 64, 43
1, 14341, Note_on_c, 0, 67, 69
1, 14345, Control_c, 0, 64, 42
1, 14360, Control_c, 0, 64, 41
1, 14375, Control_c, 0, 64, 40
1, 14385, Note_off_c, 0, 62, 35
1, 14412, Control_c, 0, 64, 40
1, 14442, Control_c, 0, 64, 39
1, 14463, Note_on_c, 0, 70, 66
1, 14472, Control_c, 0, 64, 39
1, 14531, Control_c, 0, 64, 38
1, 14569, Note_on_c, 0, 74, 66
1, 14576, Control_c, 0, 64, 38
1, 14657, Note_off_c, 0, 70, 32
1, 14679, Note_on_c, 0, 79, 69
1, 14689, Note_off_c, 0, 74, 56
1, 14800, Note_off_c, 0, 67, 16
1, 14803, Note_on_c, 0, 74, 72
1, 14833, Note_off_c, 0, 79, 61
1, 14906, Note_on_c, 0, 70, 66
1, 14978, Note_off_c, 0, 74, 36
1, 14999, Note_on_c, 0, 67, 74
1, 15079, Control_c, 0, 64, 37
1, 15099, Note_on_c, 0, 62, 75
1, 15100, Note_off_c, 0, 70, 38
1, 15109, Control_c, 0, 64, 37
1, 15146, Control_c, 0, 64, 36
1, 15160, Control_c, 0, 64, 36
1, 15167, Note_off_c, 0, 67, 36
1, 15190, Control_c, 0, 64, 35
1, 15205, Control_c, 0, 64, 35
1, 15208, Note_on_c, 0, 58, 74
1, 15265, Control_c, 0, 64, 34
1, 15295, Note_off_c, 0, 62, 50
1, 15295, Control_c, 0, 64, 34
1, 15298, Note_on_c, 0, 55, 68
1, 15310, Control_c, 0, 64, 33
1, 15324, Control_c, 0, 64, 33
1, 15339, Control_c, 0, 64, 32
1, 15359, Note_off_c, 0, 58, 50
1, 15369, Control_c, 0, 64, 32
1, 15399, Note_on_c, 0, 50, 67
1, 15399, Control_c, 0, 64, 31
1, 15414, Control_c, 0, 64, 31
1, 15441, Note_off_c, 0, 55, 63
1, 15443, Control_c, 0, 64, 30
1, 15458, Control_c, 0, 64, 29
1, 15473, Control_c, 0, 64, 28
1, 15487, Control_c, 0, 64, 27
1, 15502, Control_c, 0, 64, 25
1, 15509, Note_on_c, 0, 46, 74
1, 15517, Control_c, 0, 64, 25
1, 15531, Note_off_c, 0, 50, 62
1, 15547, Control_c, 0, 64, 24
1, 15561, Control_c, 0, 64, 23
1, 15576, Control_c, 0, 64, 22
1, 15590, Control_c, 0, 64, 21
1, 15605, Control_c, 0, 64, 20
1, 15620, Control_c, 0, 64, 18
1, 15628, Note_on_c, 0, 50, 77
1, 15634, Control_c, 0, 64, 15
1, 15649, Control_c, 0, 64, 12
1, 15703, Note_off_c, 0, 46, 54
1, 15735, Note_on_c, 0, 55, 71
1, 15776, Note_off_c, 0, 50, 58
1, 15813, Control_c, 0, 64, 13
1, 15828, Control_c, 0, 64, 14
1, 15834, Note_on_c, 0, 58, 74
1, 15842, Control_c, 0, 64, 14
1, 15857, Control_c, 0, 64, 16
1, 15872, Control_c, 0, 64, 19
1, 15894, Control_c, 0, 64, 23
1, 15897, Note_off_c, 0, 55, 59
1, 15909, Control_c, 0, 64, 29
1, 15924, Control_c, 0, 64, 33
1, 15938, Control_c, 0, 64, 37
1, 15950, Note_on_c, 0, 62, 73
1, 15953, Control_c, 0, 64, 39
1, 15968, Control_c, 0, 64, 41
1, 15983, Note_off_c, 0, 58, 61
1, 15983, Control_c, 0, 64, 42
1, 16042, Control_c, 0, 64, 43
1, 16057, Control_c, 0, 64, 43
1, 16061, Note_on_c, 0, 67, 79
1, 16073, Control_c, 0, 64, 44
1, 16088, Control_c, 0, 64, 45
1, 16094, Note_off_c, 0, 62, 39
1, 16173, Note_on_c, 0, 70, 75
1, 16204, Note_off_c, 0, 67, 62
1, 16280, Note_on_c, 0, 74, 81
1, 16304, Note_off_c, 0, 70, 60
1, 16384, Control_c, 0, 64, 44
1, 16399, Control_c, 0, 64, 42
1, 16411, Note_off_c, 0, 74, 62
1, 16414, Control_c, 0, 64, 33
1, 16428, Note_on_c, 0, 42, 67
1, 16428, Note_on_c, 0, 69, 92
1, 16429, Control_c, 0, 64, 0
1, 16606, Control_c, 0, 64, 18
1, 16621, Control_c, 0, 64, 28
1, 16642, Note_on_c, 0, 81, 85
1, 16643, Control_c, 0, 64, 36
1, 16658, Control_c, 0, 64, 43
1, 16673, Control_c, 0, 64, 49
1, 16688, Control_c, 0, 64, 52
1, 16701, Note_off_c, 0, 42, 53
1, 16747, Control_c, 0, 64, 51
1, 16762, Control_c, 0, 64, 51
1, 16777, Control_c, 0, 64, 50
1, 16791, Control_c, 0, 64, 49
1, 16806, Control_c, 0, 64, 47
1, 16809, Note_on_c, 0, 78, 79
1, 16821, Control_c, 0, 64, 46
1, 16840, Note_off_c, 0, 81, 61
1, 16864, Note_off_c, 0, 69, 35
1, 16882, Control_c, 0, 64, 46
1, 16937, Note_on_c, 0, 74, 74
1, 16943, Note_off_c, 0, 78, 60
1, 17000, Control_c, 0, 64, 45
1, 17009, Note_off_c, 0, 74, 63
1, 17015, Control_c, 0, 64, 45
1, 17029, Control_c, 0, 64, 44
1, 17051, Note_on_c, 0, 69, 68
1, 17059, Control_c, 0, 64, 43
1, 17074, Control_c, 0, 64, 43
1, 17089, Control_c, 0, 64, 42
1, 17110, Note_off_c, 0, 69, 63
1, 17119, Control_c, 0, 64, 42
1, 17134, Control_c, 0, 64, 41
1, 17167, Note_on_c, 0, 66, 72
1, 17178, Control_c, 0, 64, 41
1, 17208, Control_c, 0, 64, 40
1, 17266, Control_c, 0, 64, 40
1, 17273, Note_on_c, 0, 62, 71
1, 17276, Note_off_c, 0, 66, 58
1, 17281, Control_c, 0, 64, 39
1, 17296, Control_c, 0, 64, 39
1, 17311, Control_c, 0, 64, 38
1, 17326, Control_c, 0, 64, 37
1, 17340, Control_c, 0, 64, 37
1, 17355, Control_c, 0, 64, 36
1, 17370, Control_c, 0, 64, 35
1, 17375, Note_on_c, 0, 60, 67
1, 17382, Note_off_c, 0, 62, 60
1, 17393, Control_c, 0, 64, 34
1, 17408, Control_c, 0, 64, 32
1, 17422, Control_c, 0, 64, 30
1, 17437, Control_c, 0, 64, 26
1, 17452, Control_c, 0, 64, 18
1, 17466, Control_c, 0, 64, 0
1, 17471, Note_on_c, 0, 57, 63
1, 17491, Note_off_c, 0, 60, 59
1, 17557, Note_on_c, 0, 54, 68
1, 17613, Note_off_c, 0, 57, 56
1, 17647, Note_on_c, 0, 50, 65
1, 17651, Note_off_c, 0, 54, 64
1, 17723, Note_on_c, 0, 54, 61
1, 17777, Note_off_c, 0, 50, 52
1, 17796, Note_on_c, 0, 57, 69
1, 17834, Note_off_c, 0, 54, 65
1, 17862, Note_on_c, 0, 60, 72
1, 17889, Note_off_c, 0, 57, 58
1, 17927, Control_c, 0, 64, 17
1, 17938, Note_on_c, 0, 66, 68
1, 17942, Control_c, 0, 64, 26
1, 17947, Note_off_c, 0, 60, 63
1, 17957, Control_c, 0, 64, 33
1, 17971, Control_c, 0, 64, 39
1, 17986, Control_c, 0, 64, 45
1, 17989, Note_off_c, 0, 66, 63
1, 18001, Control_c, 0, 64, 50
1, 18001, Note_on_c, 0, 69, 72
1, 18016, Control_c, 0, 64, 54
1, 18031, Control_c, 0, 64, 56
1, 18045, Control_c, 0, 64, 56
1, 18075, Control_c, 0, 64, 56
1, 18079, Note_on_c, 0, 72, 76
1, 18082, Note_off_c, 0, 69, 64
1, 18104, Note_off_c, 0, 72, 66
1, 18104, Control_c, 0, 64, 55
1, 18168, Note_on_c, 0, 74, 79
1, 18171, Control_c, 0, 64, 55
1, 18186, Control_c, 0, 64, 54
1, 18201, Control_c, 0, 64, 54
1, 18255, Note_on_c, 0, 78, 84
1, 18278, Note_off_c, 0, 74, 57
1, 18319, Control_c, 0, 64, 54
1, 18334, Control_c, 0, 64, 55
1, 18340, Note_on_c, 0, 81, 88
1, 18349, Control_c, 0, 64, 56
1, 18371, Note_off_c, 0, 78, 65
1, 18378, Control_c, 0, 64, 55
1, 18393, Control_c, 0, 64, 54
1, 18407, Control_c, 0, 64, 47
1, 18422, Control_c, 0, 64, 23
1, 18436, Note_on_c, 0, 38, 71
1, 18437, Note_on_c, 0, 84, 93
1, 18437, Control_c, 0, 64, 0
1, 18465, Note_off_c, 0, 81, 62
1, 18568, Note_on_c, 0, 81, 84
1, 18572, Control_c, 0, 64, 23
1, 18586, Control_c, 0, 64, 35
1, 18588, Note_off_c, 0, 84, 60
1, 18601, Control_c, 0, 64, 47
1, 18616, Control_c, 0, 64, 55
1, 18631, Control_c, 0, 64, 58
1, 18672, Note_on_c, 0, 78, 88
1, 18693, Note_off_c, 0, 38, 56
1, 18693, Note_off_c, 0, 81, 60
1, 18705, Control_c, 0, 64, 57
1, 18720, Control_c, 0, 64, 56
1, 18735, Control_c, 0, 64, 55
1, 18749, Control_c, 0, 64, 53
1, 18761, Note_off_c, 0, 78, 62
1, 18764, Control_c, 0, 64, 53
1, 18769, Note_on_c, 0, 74, 75
1, 18821, Note_off_c, 0, 74, 64
1, 18878, Note_on_c, 0, 72, 82
1, 18890, Control_c, 0, 64, 52
1, 18919, Control_c, 0, 64, 52
1, 18964, Control_c, 0, 64, 51
1, 18979, Control_c, 0, 64, 51
1, 18984, Note_on_c, 0, 69, 73
1, 19002, Note_off_c, 0, 72, 60
1, 19053, Control_c, 0, 64, 50
1, 19083, Control_c, 0, 64, 50
1, 19086, Note_on_c, 0, 66, 78
1, 19086, Note_off_c, 0, 69, 63
1, 19157, Control_c, 0, 64, 49
1, 19172, Control_c, 0, 64, 49
1, 19186, Control_c, 0, 64, 48
1, 19188, Note_on_c, 0, 62, 79
1, 19215, Note_off_c, 0, 66, 52
1, 19292, Note_on_c, 0, 60, 74
1, 19329, Note_off_c, 0, 62, 57
1, 19364, Control_c, 0, 64, 47
1, 19379, Control_c, 0, 64, 41
1, 19393, Note_on_c, 0, 57, 69
1, 19394, Control_c, 0, 64, 30
1, 19408, Control_c, 0, 64, 0
1, 19486, Note_on_c, 0, 54, 74
1, 19542, Control_c, 0, 64, 17
1, 19557, Control_c, 0, 64, 25
1, 19572, Control_c, 0, 64, 29
1, 19582, Note_off_c, 0, 60, 0
1, 19587, Control_c, 0, 64, 31
1, 19590, Note_off_c, 0, 57, 57
1, 19596, Note_on_c, 0, 50, 75
1, 19602, Control_c, 0, 64, 32
1, 19616, Control_c, 0, 64, 31
1, 19619, Poly_aftertouch_c, 0, 60, 127
1, 19633, Note_off_c, 0, 54, 64
1, 19638, Control_c, 0, 64, 26
1, 19653, Control_c, 0, 64, 10
1, 19668, Control_c, 0, 64, 0
1, 19672, Poly_aftertouch_c, 0, 60, 0
1, 19717, Note_on_c, 0, 54, 73
1, 19772, Control_c, 0, 64, 10
1, 19787, Control_c, 0, 64, 17
1, 19802, Control_c, 0, 64, 19
1, 19820, Note_on_c, 0, 57, 72
1, 19831, Control_c, 0, 64, 14
1, 19846, Control_c, 0, 64, 0
1, 19857, Note_off_c, 0, 50, 54
1, 19864, Note_off_c, 0, 54, 62
1, 19936, Note_on_c, 0, 60, 75
1, 19949, Control_c, 0, 64, 12
1, 19964, Control_c, 0, 64, 15
1, 19969, Note_off_c, 0, 57, 61
1, 19994, Control_c, 0, 64, 14
1, 20008, Control_c, 0, 64, 0
1, 20038, Note_on_c, 0, 66, 77
1, 20083, Control_c, 0, 64, 8
1, 20097, Note_off_c, 0, 60, 55
1, 20098, Control_c, 0, 64, 15
1, 20113, Note_off_c, 0, 66, 63
1, 20113, Control_c, 0, 64, 18
1, 20128, Control_c, 0, 64, 19
1, 20143, Note_on_c, 0, 69, 74
1, 20143, Control_c, 0, 64, 18
1, 20157, Control_c, 0, 64, 12
1, 20172, Control_c, 0, 64, 0
1, 20254, Note_on_c, 0, 72, 76
1, 20258, Note_off_c, 0, 69, 63
1, 20305, Control_c, 0, 64, 9
1, 20317, Note_off_c, 0, 72, 63
1, 20320, Control_c, 0, 64, 12
1, 20335, Control_c, 0, 64, 14
1, 20350, Control_c, 0, 64, 15
1, 20362, Note_on_c, 0, 74, 76
1, 20365, Control_c, 0, 64, 16
1, 20387, Control_c, 0, 64, 17
1, 20417, Control_c, 0, 64, 17
1, 20446, Control_c, 0, 64, 18
1, 20480, Note_on_c, 0, 78, 83
1, 20501, Note_off_c, 0, 74, 54
1, 20505, Control_c, 0, 64, 18
1, 20550, Control_c, 0, 64, 19
1, 20565, Control_c, 0, 64, 19
1, 20580, Control_c, 0, 64, 20
1, 20589, Note_on_c, 0, 81, 90
1, 20595, Control_c, 0, 64, 20
1, 20609, Control_c, 0, 64, 21
1, 20624, Control_c, 0, 64, 22
1, 20626, Note_off_c, 0, 78, 65
1, 20639, Control_c, 0, 64, 23
1, 20654, Control_c, 0, 64, 25
1, 20669, Control_c, 0, 64, 26
1, 20683, Control_c, 0, 64, 30
1, 20698, Control_c, 0, 64, 32
1, 20710, Note_on_c, 0, 84, 84
1, 20713, Control_c, 0, 64, 34
1, 20733, Note_off_c, 0, 81, 60
1, 20802, Control_c, 0, 64, 33
1, 20816, Control_c, 0, 64, 33
1, 20846, Control_c, 0, 64, 32
1, 20847, Note_on_c, 0, 82, 82
1, 20862, Control_c, 0, 64, 32
1, 20877, Control_c, 0, 64, 31
1, 20890, Note_off_c, 0, 84, 58
1, 20990, Note_on_c, 0, 81, 89
1, 21025, Control_c, 0, 64, 30
1, 21035, Note_off_c, 0, 82, 64
1, 21054, Control_c, 0, 64, 30
1, 21069, Control_c, 0, 64, 29
1, 21084, Control_c, 0, 64, 28
1, 21099, Control_c, 0, 64, 26
1, 21113, Control_c, 0, 64, 22
1, 21136, Control_c, 0, 64, 0
1, 21154, Note_on_c, 0, 43, 65
1, 21158, Note_on_c, 0, 82, 84
1, 21200, Note_off_c, 0, 81, 58
1, 21299, Control_c, 0, 64, 26
1, 21306, Note_off_c, 0, 43, 62
1, 21313, Control_c, 0, 64, 36
1, 21328, Control_c, 0, 64, 44
1, 21333, Note_on_c, 0, 79, 85
1, 21343, Control_c, 0, 64, 50
1, 21350, Note_off_c, 0, 82, 59
1, 21358, Control_c, 0, 64, 53
1, 21388, Control_c, 0, 64, 52
1, 21402, Control_c, 0, 64, 51
1, 21417, Control_c, 0, 64, 48
1, 21432, Control_c, 0, 64, 47
1, 21477, Note_on_c, 0, 74, 80
1, 21492, Control_c, 0, 64, 47
1, 21504, Note_off_c, 0, 79, 46
1, 21506, Control_c, 0, 64, 46
1, 21536, Control_c, 0, 64, 46
1, 21566, Control_c, 0, 64, 45
1, 21579, Control_c, 0, 64, 45
1, 21593, Note_on_c, 0, 70, 76
1, 21606, Note_off_c, 0, 74, 64
1, 21696, Note_on_c, 0, 67, 67
1, 21717, Note_off_c, 0, 70, 58
1, 21773, Control_c, 0, 64, 45
1, 21805, Note_on_c, 0, 62, 68
1, 21821, Note_off_c, 0, 67, 60
1, 21832, Control_c, 0, 64, 46
1, 21899, Control_c, 0, 64, 46
1, 21908, Note_on_c, 0, 58, 72
1, 21956, Note_off_c, 0, 62, 50
1, 21973, Control_c, 0, 64, 46
1, 21988, Control_c, 0, 64, 44
1, 22002, Control_c, 0, 64, 38
1, 22011, Note_on_c, 0, 55, 69
1, 22017, Control_c, 0, 64, 25
1, 22032, Control_c, 0, 64, 17
1, 22047, Control_c, 0, 64, 18
1, 22061, Control_c, 0, 64, 19
1, 22076, Control_c, 0, 64, 21
1, 22091, Control_c, 0, 64, 23
1, 22094, Note_off_c, 0, 55, 63
1, 22102, Note_on_c, 0, 50, 67
1, 22105, Note_off_c, 0, 58, 54
1, 22106, Control_c, 0, 64, 25
1, 22121, Control_c, 0, 64, 30
1, 22136, Control_c, 0, 64, 34
1, 22151, Control_c, 0, 64, 38
1, 22166, Control_c, 0, 64, 41
1, 22176, Note_on_c, 0, 46, 72
1, 22180, Control_c, 0, 64, 42
1, 22195, Control_c, 0, 64, 43
1, 22210, Control_c, 0, 64, 42
1, 22225, Control_c, 0, 64, 39
1, 22240, Control_c, 0, 64, 31
1, 22254, Control_c, 0, 64, 23
1, 22255, Note_off_c, 0, 50, 35
1, 22258, Note_on_c, 0, 43, 82
1, 22265, Note_off_c, 0, 46, 65
1, 22269, Control_c, 0, 64, 22
1, 22284, Control_c, 0, 64, 22
1, 22299, Control_c, 0, 64, 24
1, 22314, Control_c, 0, 64, 25
1, 22328, Control_c, 0, 64, 27
1, 22343, Control_c, 0, 64, 28
1, 22353, Note_on_c, 0, 46, 74
1, 22358, Note_off_c, 0, 43, 57
1, 22432, Control_c, 0, 64, 27
1, 22438, Note_on_c, 0, 50, 70
1, 22447, Control_c, 0, 64, 26
1, 22458, Note_off_c, 0, 46, 63
1, 22463, Control_c, 0, 64, 22
1, 22477, Control_c, 0, 64, 18
1, 22492, Control_c, 0, 64, 0
1, 22529, Note_on_c, 0, 55, 73
1, 22573, Note_off_c, 0, 50, 56
1, 22622, Note_on_c, 0, 58, 65
1, 22653, Note_off_c, 0, 55, 66
1, 22678, Control_c, 0, 64, 10
1, 22692, Control_c, 0, 64, 14
1, 22707, Control_c, 0, 64, 16
1, 22722, Control_c, 0, 64, 18
1, 22727, Note_on_c, 0, 62, 60
1, 22737, Control_c, 0, 64, 22
1, 22752, Control_c, 0, 64, 25
1, 22766, Control_c, 0, 64, 27
1, 22781, Control_c, 0, 64, 28
1, 22796, Control_c, 0, 64, 29
1, 22811, Control_c, 0, 64, 29
1, 22817, Note_on_c, 0, 67, 60
1, 22825, Control_c, 0, 64, 30
1, 22832, Note_off_c, 0, 58, 52
1, 22840, Control_c, 0, 64, 31
1, 22855, Control_c, 0, 64, 34
1, 22870, Control_c, 0, 64, 37
1, 22884, Control_c, 0, 64, 41
1, 22899, Control_c, 0, 64, 46
1, 22914, Control_c, 0, 64, 50
1, 22920, Note_on_c, 0, 70, 65
1, 22929, Control_c, 0, 64, 50
1, 22944, Note_off_c, 0, 67, 61
1, 22944, Control_c, 0, 64, 50
1, 22954, Note_off_c, 0, 62, 35
1, 22958, Control_c, 0, 64, 48
1, 22973, Control_c, 0, 64, 47
1, 22988, Control_c, 0, 64, 47
1, 23068, Note_on_c, 0, 74, 67
1, 23078, Control_c, 0, 64, 47
1, 23108, Control_c, 0, 64, 48
1, 23109, Note_off_c, 0, 70, 37
1, 23250, Note_on_c, 0, 79, 71
1, 23346, Control_c, 0, 64, 47
1, 23421, Note_off_c, 0, 74, 25
1, 23605, Control_c, 0, 64, 47
1, 23612, Note_on_c, 0, 82, 56
1, 23620, Control_c, 0, 64, 46
1, 23631, Note_on_c, 0, 48, 36
1, 23633, Note_on_c, 0, 36, 36
1, 23634, Control_c, 0, 64, 44
1, 23649, Control_c, 0, 64, 41
1, 23664, Control_c, 0, 64, 37
1, 23674, Note_off_c, 0, 79, 48
1, 23679, Control_c, 0, 64, 29
1, 23694, Control_c, 0, 64, 17
1, 23708, Control_c, 0, 64, 0
1, 23975, Control_c, 0, 64, 12
1, 23990, Control_c, 0, 64, 19
1, 24005, Control_c, 0, 64, 28
1, 24019, Control_c, 0, 64, 34
1, 24034, Control_c, 0, 64, 40
1, 24050, Control_c, 0, 64, 47
1, 24064, Control_c, 0, 64, 52
1, 24079, Control_c, 0, 64, 54
1, 24094, Control_c, 0, 64, 55
1, 24109, Control_c, 0, 64, 56
1, 24110, Note_on_c, 0, 79, 51
1, 24131, Control_c, 0, 64, 57
1, 24146, Control_c, 0, 64, 57
1, 24160, Note_off_c, 0, 36, 35
1, 24161, Control_c, 0, 64, 58
1, 24187, Note_off_c, 0, 82, 28
1, 24191, Control_c, 0, 64, 57
1, 24220, Control_c, 0, 64, 57
1, 24235, Control_c, 0, 64, 56
1, 24250, Control_c, 0, 64, 56
1, 24279, Control_c, 0, 64, 55
1, 24333, Note_off_c, 0, 48, 39
1, 24354, Control_c, 0, 64, 55
1, 24363, Note_on_c, 0, 76, 52
1, 24380, Note_off_c, 0, 79, 34
1, 24506, Note_off_c, 0, 76, 37
1, 24531, Control_c, 0, 64, 54
1, 24535, Note_on_c, 0, 72, 46
1, 24561, Control_c, 0, 64, 54
1, 24616, Note_off_c, 0, 72, 54
1, 24635, Control_c, 0, 64, 53
1, 24674, Note_on_c, 0, 70, 57
1, 24709, Control_c, 0, 64, 53
1, 24723, Control_c, 0, 64, 52
1, 24738, Control_c, 0, 64, 52
1, 24801, Note_on_c, 0, 67, 51
1, 24813, Control_c, 0, 64, 51
1, 24833, Note_off_c, 0, 70, 33
1, 24843, Control_c, 0, 64, 51
1, 24858, Control_c, 0, 64, 50
1, 24880, Control_c, 0, 64, 50
1, 24895, Control_c, 0, 64, 49
1, 24899, Note_off_c, 0, 67, 55
1, 24917, Note_on_c, 0, 64, 48
1, 24925, Control_c, 0, 64, 49
1, 24954, Control_c, 0, 64, 48
1, 24984, Control_c, 0, 64, 48
1, 24999, Control_c, 0, 64, 47
1, 25021, Note_on_c, 0, 60, 57
1, 25028, Control_c, 0, 64, 47
1, 25043, Control_c, 0, 64, 46
1, 25052, Note_off_c, 0, 64, 35
1, 25058, Control_c, 0, 64, 46
1, 25073, Control_c, 0, 64, 45
1, 25112, Note_on_c, 0, 58, 56
1, 25132, Control_c, 0, 64, 45
1, 25176, Control_c, 0, 64, 44
1, 25200, Note_on_c, 0, 55, 52
1, 25227, Note_off_c, 0, 60, 26
1, 25236, Control_c, 0, 64, 43
1, 25251, Control_c, 0, 64, 43
1, 25266, Control_c, 0, 64, 42
1, 25280, Control_c, 0, 64, 39
1, 25291, Note_on_c, 0, 52, 61
1, 25295, Control_c, 0, 64, 34
1, 25310, Control_c, 0, 64, 32
1, 25334, Note_off_c, 0, 58, 46
1, 25347, Note_off_c, 0, 55, 60
1, 25379, Note_off_c, 0, 52, 65
1, 25388, Note_on_c, 0, 48, 59
1, 25398, Control_c, 0, 64, 32
1, 25413, Control_c, 0, 64, 33
1, 25428, Control_c, 0, 64, 34
1, 25443, Control_c, 0, 64, 35
1, 25481, Note_on_c, 0, 52, 60
1, 25493, Note_off_c, 0, 48, 51
1, 25532, Control_c, 0, 64, 35
1, 25561, Control_c, 0, 64, 36
1, 25568, Note_on_c, 0, 55, 58
1, 25576, Control_c, 0, 64, 36
1, 25586, Note_off_c, 0, 52, 59
1, 25591, Control_c, 0, 64, 38
1, 25606, Control_c, 0, 64, 40
1, 25628, Control_c, 0, 64, 41
1, 25671, Note_on_c, 0, 58, 62
1, 25684, Note_off_c, 0, 55, 59
1, 25763, Note_on_c, 0, 60, 57
1, 25777, Control_c, 0, 64, 41
1, 25792, Control_c, 0, 64, 44
1, 25802, Note_off_c, 0, 58, 58
1, 25807, Control_c, 0, 64, 47
1, 25821, Control_c, 0, 64, 50
1, 25836, Control_c, 0, 64, 52
1, 25837, Note_off_c, 0, 60, 60
1, 25840, Note_on_c, 0, 64, 62
1, 25866, Control_c, 0, 64, 50
1, 25881, Control_c, 0, 64, 49
1, 25896, Control_c, 0, 64, 48
1, 25930, Note_on_c, 0, 67, 62
1, 25938, Note_off_c, 0, 64, 54
1, 25955, Control_c, 0, 64, 49
1, 26013, Note_off_c, 0, 67, 63
1, 26014, Control_c, 0, 64, 49
1, 26021, Note_on_c, 0, 70, 67
1, 26050, Note_off_c, 0, 70, 66
1, 26114, Note_on_c, 0, 72, 64
1, 26118, Control_c, 0, 64, 49
1, 26163, Control_c, 0, 64, 48
1, 26178, Note_off_c, 0, 72, 41
1, 26190, Note_on_c, 0, 76, 68
1, 26274, Note_on_c, 0, 79, 70
1, 26307, Note_off_c, 0, 76, 48
1, 26365, Note_off_c, 0, 79, 60
1, 26366, Note_on_c, 0, 82, 70
1, 26392, Control_c, 0, 64, 48
1, 26407, Control_c, 0, 64, 47
1, 26422, Control_c, 0, 64, 45
1, 26436, Control_c, 0, 64, 39
1, 26452, Control_c, 0, 64, 24
1, 26467, Control_c, 0, 64, 0
1, 26480, Note_on_c, 0, 36, 50
1, 26483, Note_on_c, 0, 81, 73
1, 26484, Note_on_c, 0, 48, 56
1, 26513, Note_off_c, 0, 82, 59
1, 26579, Note_on_c, 0, 77, 63
1, 26597, Note_off_c, 0, 81, 59
1, 26630, Control_c, 0, 64, 9
1, 26640, Note_off_c, 0, 77, 63
1, 26645, Control_c, 0, 64, 23
1, 26659, Control_c, 0, 64, 30
1, 26668, Note_on_c, 0, 72, 63
1, 26674, Control_c, 0, 64, 36
1, 26689, Control_c, 0, 64, 41
1, 26692, Note_off_c, 0, 36, 54
1, 26695, Note_off_c, 0, 72, 66
1, 26704, Control_c, 0, 64, 46
1, 26718, Control_c, 0, 64, 48
1, 26733, Control_c, 0, 64, 50
1, 26748, Control_c, 0, 64, 50
1, 26753, Note_on_c, 0, 69, 75
1, 26792, Note_off_c, 0, 48, 65
1, 26792, Control_c, 0, 64, 50
1, 26831, Note_on_c, 0, 65, 76
1, 26837, Control_c, 0, 64, 49
1, 26852, Control_c, 0, 64, 49
1, 26853, Note_off_c, 0, 69, 59
1, 26866, Control_c, 0, 64, 48
1, 26881, Control_c, 0, 64, 48
1, 26903, Note_on_c, 0, 60, 76
1, 26937, Note_off_c, 0, 65, 54
1, 26941, Control_c, 0, 64, 47
1, 26965, Note_off_c, 0, 60, 64
1, 26971, Control_c, 0, 64, 46
1, 26985, Control_c, 0, 64, 43
1, 26988, Note_on_c, 0, 57, 72
1, 27000, Control_c, 0, 64, 36
1, 27015, Control_c, 0, 64, 16
1, 27030, Control_c, 0, 64, 0
1, 27062, Note_on_c, 0, 53, 73
1, 27087, Note_off_c, 0, 57, 61
1, 27126, Control_c, 0, 64, 11
1, 27141, Control_c, 0, 64, 22
1, 27147, Note_off_c, 0, 53, 66
1, 27147, Note_on_c, 0, 48, 75
1, 27156, Control_c, 0, 64, 28
1, 27171, Control_c, 0, 64, 32
1, 27185, Control_c, 0, 64, 34
1, 27200, Control_c, 0, 64, 35
1, 27227, Note_on_c, 0, 53, 69
1, 27230, Control_c, 0, 64, 33
1, 27245, Control_c, 0, 64, 29
1, 27257, Note_off_c, 0, 48, 61
1, 27260, Control_c, 0, 64, 25
1, 27275, Control_c, 0, 64, 23
1, 27290, Note_on_c, 0, 57, 78
1, 27304, Note_off_c, 0, 53, 66
1, 27349, Control_c, 0, 64, 23
1, 27363, Note_on_c, 0, 60, 76
1, 27364, Control_c, 0, 64, 24
1, 27365, Note_off_c, 0, 57, 61
1, 27379, Control_c, 0, 64, 25
1, 27394, Control_c, 0, 64, 25
1, 27423, Control_c, 0, 64, 26
1, 27424, Note_off_c, 0, 60, 66
1, 27435, Note_on_c, 0, 65, 78
1, 27453, Control_c, 0, 64, 27
1, 27468, Control_c, 0, 64, 27
1, 27508, Note_on_c, 0, 69, 81
1, 27525, Note_off_c, 0, 65, 67
1, 27527, Control_c, 0, 64, 28
1, 27542, Control_c, 0, 64, 29
1, 27556, Control_c, 0, 64, 29
1, 27566, Note_off_c, 0, 69, 65
1, 27571, Note_on_c, 0, 60, 70
1, 27586, Control_c, 0, 64, 28
1, 27600, Control_c, 0, 64, 22
1, 27615, Control_c, 0, 64, 15
1, 27630, Control_c, 0, 64, 11
1, 27647, Note_on_c, 0, 65, 75
1, 27676, Note_off_c, 0, 60, 62
1, 27713, Note_on_c, 0, 69, 84
1, 27731, Note_off_c, 0, 65, 62
1, 27797, Note_on_c, 0, 72, 78
1, 27861, Note_off_c, 0, 69, 63
1, 27874, Control_c, 0, 64, 10
1, 27883, Note_on_c, 0, 77, 77
1, 27889, Control_c, 0, 64, 8
1, 27897, Note_off_c, 0, 72, 60
1, 27904, Control_c, 0, 64, 0
1, 27975, Note_on_c, 0, 76, 79
1, 28005, Note_off_c, 0, 77, 62
1, 28045, Note_on_c, 0, 74, 70
1, 28068, Note_off_c, 0, 76, 65
1, 28121, Note_off_c, 0, 74, 66
1, 28124, Note_on_c, 0, 72, 73
1, 28208, Note_off_c, 0, 72, 56
1, 28214, Note_on_c, 0, 81, 79
1, 28292, Note_on_c, 0, 79, 72
1, 28321, Note_off_c, 0, 81, 61
1, 28349, Note_on_c, 0, 77, 76
1, 28381, Note_off_c, 0, 79, 62
1, 28411, Note_on_c, 0, 76, 72
1, 28431, Note_off_c, 0, 77, 63
1, 28467, Note_on_c, 0, 74, 71
1, 28467, Note_off_c, 0, 76, 66
1, 28510, Note_off_c, 0, 74, 62
1, 28537, Note_on_c, 0, 72, 76
1, 28589, Note_on_c, 0, 70, 78
1, 28632, Note_off_c, 0, 72, 64
1, 28661, Note_on_c, 0, 69, 76
1, 28688, Note_off_c, 0, 70, 62
1, 28720, Note_on_c, 0, 67, 75
1, 28722, Note_off_c, 0, 69, 65
1, 28765, Note_off_c, 0, 67, 55
1, 28786, Note_on_c, 0, 65, 81
1, 28849, Note_on_c, 0, 64, 76
1, 28886, Note_off_c, 0, 65, 66
1, 28910, Note_on_c, 0, 62, 74
1, 28932, Note_off_c, 0, 64, 62
1, 28974, Note_off_c, 0, 62, 63
1, 28974, Note_on_c, 0, 60, 71
1, 29030, Note_off_c, 0, 60, 62
1, 29051, Note_on_c, 0, 58, 74
1, 29131, Note_on_c, 0, 57, 73
1, 29167, Note_off_c, 0, 58, 62
1, 29206, Note_on_c, 0, 55, 74
1, 29218, Note_off_c, 0, 57, 60
1, 29284, Note_off_c, 0, 55, 65
1, 29285, Note_on_c, 0, 53, 64
1, 29380, Note_off_c, 0, 53, 63
1, 29381, Note_on_c, 0, 52, 68
1, 29466, Note_on_c, 0, 50, 65
1, 29480, Note_off_c, 0, 52, 57
1, 29561, Note_on_c, 0, 48, 62
1, 29581, Note_off_c, 0, 50, 58
1, 29710, Note_on_c, 0, 52, 57
1, 29834, Note_on_c, 0, 55, 59
1, 29959, Note_on_c, 0, 58, 65
1, 30095, Note_on_c, 0, 64, 65
1, 30099, Control_c, 0, 64, 18
1, 30122, Control_c, 0, 64, 27
1, 30137, Control_c, 0, 64, 33
1, 30143, Note_off_c, 0, 48, 35
1, 30151, Control_c, 0, 64, 38
1, 30166, Control_c, 0, 64, 43
1, 30181, Control_c, 0, 64, 48
1, 30195, Control_c, 0, 64, 51
1, 30210, Control_c, 0, 64, 53
1, 30212, Note_off_c, 0, 58, 59
1, 30225, Control_c, 0, 64, 54
1, 30227, Note_on_c, 0, 67, 65
1, 30240, Control_c, 0, 64, 55
1, 30258, Note_off_c, 0, 64, 34
1, 30265, Note_off_c, 0, 55, 42
1, 30268, Note_off_c, 0, 52, 39
1, 30269, Control_c, 0, 64, 55
1, 30358, Control_c, 0, 64, 55
1, 30372, Note_on_c, 0, 70, 73
1, 30406, Note_off_c, 0, 67, 58
1, 30463, Control_c, 0, 64, 54
1, 30464, Note_off_c, 0, 70, 59
1, 30523, Note_on_c, 0, 76, 79
1, 30760, Control_c, 0, 64, 54
1, 30769, Note_on_c, 0, 37, 73
1, 30770, Note_on_c, 0, 49, 79
1, 30771, Note_on_c, 0, 79, 83
1, 30774, Control_c, 0, 64, 53
1, 30789, Control_c, 0, 64, 52
1, 30804, Control_c, 0, 64, 48
1, 30818, Control_c, 0, 64, 42
1, 30833, Control_c, 0, 64, 32
1, 30848, Control_c, 0, 64, 0
1, 30913, Note_off_c, 0, 76, 33
1, 31191, Note_on_c, 0, 76, 68
1, 31269, Note_off_c, 0, 79, 48
1, 31330, Control_c, 0, 64, 10
1, 31345, Control_c, 0, 64, 11
1, 31360, Control_c, 0, 64, 12
1, 31389, Control_c, 0, 64, 11
1, 31404, Control_c, 0, 64, 0
1, 31434, Note_on_c, 0, 73, 62
1, 31475, Note_off_c, 0, 76, 55
1, 31552, Control_c, 0, 64, 11
1, 31567, Control_c, 0, 64, 15
1, 31582, Control_c, 0, 64, 18
1, 31597, Control_c, 0, 64, 23
1, 31603, Note_off_c, 0, 73, 61
1, 31619, Control_c, 0, 64, 25
1, 31626, Note_on_c, 0, 67, 62
1, 31709, Note_off_c, 0, 67, 57
1, 31766, Note_on_c, 0, 64, 67
1, 31768, Note_off_c, 0, 37, 57
1, 31856, Control_c, 0, 64, 25
1, 31862, Note_off_c, 0, 49, 64
1, 31897, Note_on_c, 0, 61, 63
1, 31927, Note_off_c, 0, 64, 50
1, 31994, Note_on_c, 0, 57, 65
1, 32019, Control_c, 0, 64, 26
1, 32064, Control_c, 0, 64, 26
1, 32079, Control_c, 0, 64, 27
1, 32083, Note_on_c, 0, 55, 63
1, 32117, Note_off_c, 0, 57, 57
1, 32174, Note_off_c, 0, 61, 47
1, 32180, Note_on_c, 0, 52, 65
1, 32227, Control_c, 0, 64, 26
1, 32256, Note_on_c, 0, 49, 71
1, 32261, Note_off_c, 0, 55, 38
1, 32271, Control_c, 0, 64, 26
1, 32286, Control_c, 0, 64, 25
1, 32301, Control_c, 0, 64, 25
1, 32326, Note_off_c, 0, 52, 61
1, 32331, Control_c, 0, 64, 24
1, 32365, Note_on_c, 0, 45, 68
1, 32368, Control_c, 0, 64, 23
1, 32369, Note_off_c, 0, 49, 65
1, 32383, Control_c, 0, 64, 20
1, 32397, Control_c, 0, 64, 15
1, 32412, Control_c, 0, 64, 0
1, 32456, Note_on_c, 0, 49, 73
1, 32539, Note_on_c, 0, 52, 75
1, 32565, Note_off_c, 0, 49, 65
1, 32574, Note_off_c, 0, 45, 36
1, 32616, Note_on_c, 0, 55, 75
1, 32626, Note_off_c, 0, 52, 64
1, 32693, Note_on_c, 0, 61, 69
1, 32709, Note_off_c, 0, 55, 64
1, 32736, Note_off_c, 0, 61, 65
1, 32768, Control_c, 0, 64, 8
1, 32774, Note_on_c, 0, 64, 69
1, 32783, Control_c, 0, 64, 10
1, 32797, Control_c, 0, 64, 12
1, 32810, Control_c, 0, 64, 16
1, 32825, Control_c, 0, 64, 19
1, 32841, Control_c, 0, 64, 21
1, 32856, Control_c, 0, 64, 22
1, 32861, Note_on_c, 0, 67, 76
1, 32867, Note_off_c, 0, 64, 64
1, 32871, Control_c, 0, 64, 22
1, 32905, Note_off_c, 0, 67, 64
1, 32930, Control_c, 0, 64, 23
1, 32945, Control_c, 0, 64, 24
1, 32953, Note_on_c, 0, 69, 76
1, 33004, Control_c, 0, 64, 24
1, 33019, Control_c, 0, 64, 25
1, 33029, Note_on_c, 0, 73, 76
1, 33034, Control_c, 0, 64, 27
1, 33042, Note_off_c, 0, 69, 55
1, 33049, Control_c, 0, 64, 28
1, 33064, Control_c, 0, 64, 29
1, 33079, Control_c, 0, 64, 30
1, 33093, Control_c, 0, 64, 34
1, 33105, Note_on_c, 0, 76, 76
1, 33115, Control_c, 0, 64, 39
1, 33130, Control_c, 0, 64, 43
1, 33140, Note_off_c, 0, 73, 59
1, 33145, Control_c, 0, 64, 44
1, 33174, Control_c, 0, 64, 44
1, 33181, Note_on_c, 0, 79, 81
1, 33189, Control_c, 0, 64, 43
1, 33203, Note_off_c, 0, 76, 61
1, 33204, Control_c, 0, 64, 42
1, 33234, Control_c, 0, 64, 42
1, 33262, Note_on_c, 0, 81, 85
1, 33278, Control_c, 0, 64, 42
1, 33287, Note_off_c, 0, 79, 60
1, 33326, Note_on_c, 0, 76, 85
1, 33337, Control_c, 0, 64, 43
1, 33346, Note_off_c, 0, 81, 62
1, 33382, Control_c, 0, 64, 42
1, 33397, Control_c, 0, 64, 37
1, 33410, Note_on_c, 0, 50, 81
1, 33412, Note_on_c, 0, 38, 75
1, 33412, Control_c, 0, 64, 24
1, 33416, Note_on_c, 0, 77, 92
1, 33426, Control_c, 0, 64, 0
1, 33445, Note_off_c, 0, 76, 65
1, 33595, Note_on_c, 0, 73, 82
1, 33603, Note_off_c, 0, 77, 58
1, 33619, Control_c, 0, 64, 13
1, 33635, Control_c, 0, 64, 18
1, 33650, Control_c, 0, 64, 20
1, 33665, Control_c, 0, 64, 22
1, 33680, Note_on_c, 0, 74, 76
1, 33702, Note_off_c, 0, 73, 62
1, 33709, Control_c, 0, 64, 21
1, 33724, Control_c, 0, 64, 8
1, 33739, Control_c, 0, 64, 0
1, 33761, Note_off_c, 0, 74, 65
1, 33763, Note_on_c, 0, 77, 80
1, 33820, Note_off_c, 0, 77, 61
1, 33831, Note_on_c, 0, 69, 76
1, 33842, Control_c, 0, 64, 15
1, 33865, Control_c, 0, 64, 19
1, 33872, Note_off_c, 0, 69, 63
1, 33880, Control_c, 0, 64, 22
1, 33895, Control_c, 0, 64, 25
1, 33910, Control_c, 0, 64, 25
1, 33916, Note_on_c, 0, 74, 77
1, 33924, Control_c, 0, 64, 24
1, 33939, Control_c, 0, 64, 12
1, 33954, Control_c, 0, 64, 0
1, 33973, Note_off_c, 0, 74, 64
1, 33994, Note_on_c, 0, 65, 73
1, 34024, Note_off_c, 0, 38, 64
1, 34028, Note_off_c, 0, 65, 64
1, 34028, Control_c, 0, 64, 11
1, 34042, Control_c, 0, 64, 22
1, 34057, Control_c, 0, 64, 29
1, 34064, Note_on_c, 0, 69, 80
1, 34072, Control_c, 0, 64, 34
1, 34077, Note_off_c, 0, 50, 63
1, 34087, Control_c, 0, 64, 37
1, 34102, Control_c, 0, 64, 38
1, 34140, Note_on_c, 0, 62, 75
1, 34149, Note_off_c, 0, 69, 61
1, 34205, Control_c, 0, 64, 38
1, 34220, Control_c, 0, 64, 39
1, 34222, Note_on_c, 0, 65, 78
1, 34232, Note_off_c, 0, 62, 61
1, 34235, Control_c, 0, 64, 40
1, 34265, Control_c, 0, 64, 38
1, 34277, Note_off_c, 0, 65, 65
1, 34280, Control_c, 0, 64, 29
1, 34295, Control_c, 0, 64, 0
1, 34304, Note_on_c, 0, 57, 71
1, 34341, Note_off_c, 0, 57, 62
1, 34368, Control_c, 0, 64, 23
1, 34383, Control_c, 0, 64, 35
1, 34396, Note_on_c, 0, 62, 83
1, 34398, Control_c, 0, 64, 43
1, 34413, Control_c, 0, 64, 50
1, 34428, Control_c, 0, 64, 54
1, 34444, Control_c, 0, 64, 55
1, 34444, Note_off_c, 0, 62, 61
1, 34468, Note_on_c, 0, 53, 74
1, 34497, Note_off_c, 0, 53, 69
1, 34503, Control_c, 0, 64, 55
1, 34518, Control_c, 0, 64, 54
1, 34532, Control_c, 0, 64, 53
1, 34547, Control_c, 0, 64, 48
1, 34554, Note_on_c, 0, 57, 78
1, 34562, Control_c, 0, 64, 32
1, 34577, Control_c, 0, 64, 0
1, 34601, Note_off_c, 0, 57, 60
1, 34643, Note_on_c, 0, 50, 80
1, 34659, Control_c, 0, 64, 8
1, 34673, Control_c, 0, 64, 26
1, 34688, Control_c, 0, 64, 36
1, 34703, Control_c, 0, 64, 45
1, 34718, Control_c, 0, 64, 52
1, 34733, Control_c, 0, 64, 53
1, 34734, Note_on_c, 0, 53, 75
1, 34747, Control_c, 0, 64, 49
1, 34762, Control_c, 0, 64, 35
1, 34777, Control_c, 0, 64, 0
1, 34825, Note_off_c, 0, 50, 39
1, 34828, Note_on_c, 0, 57, 73
1, 34851, Control_c, 0, 64, 22
1, 34865, Control_c, 0, 64, 32
1, 34880, Control_c, 0, 64, 35
1, 34895, Control_c, 0, 64, 36
1, 34902, Note_off_c, 0, 53, 38
1, 34910, Control_c, 0, 64, 34
1, 34925, Control_c, 0, 64, 30
1, 34930, Note_on_c, 0, 62, 85
1, 34939, Control_c, 0, 64, 29
1, 34954, Control_c, 0, 64, 33
1, 34969, Note_off_c, 0, 57, 62
1, 34969, Control_c, 0, 64, 39
1, 34983, Control_c, 0, 64, 46
1, 34998, Control_c, 0, 64, 53
1, 35013, Control_c, 0, 64, 54
1, 35020, Note_off_c, 0, 62, 62
1, 35028, Control_c, 0, 64, 50
1, 35034, Note_on_c, 0, 65, 85
1, 35043, Control_c, 0, 64, 38
1, 35058, Control_c, 0, 64, 27
1, 35073, Control_c, 0, 64, 30
1, 35088, Control_c, 0, 64, 35
1, 35103, Control_c, 0, 64, 41
1, 35113, Note_off_c, 0, 65, 58
1, 35117, Control_c, 0, 64, 49
1, 35132, Control_c, 0, 64, 55
1, 35147, Control_c, 0, 64, 58
1, 35149, Note_on_c, 0, 69, 93
1, 35177, Control_c, 0, 64, 57
1, 35191, Control_c, 0, 64, 51
1, 35206, Control_c, 0, 64, 40
1, 35221, Control_c, 0, 64, 35
1, 35237, Control_c, 0, 64, 39
1, 35252, Control_c, 0, 64, 43
1, 35267, Control_c, 0, 64, 48
1, 35278, Note_on_c, 0, 74, 86
1, 35281, Control_c, 0, 64, 52
1, 35296, Control_c, 0, 64, 55
1, 35304, Note_off_c, 0, 69, 62
1, 35326, Control_c, 0, 64, 52
1, 35341, Control_c, 0, 64, 45
1, 35362, Control_c, 0, 64, 40
1, 35377, Control_c, 0, 64, 42
1, 35392, Control_c, 0, 64, 45
1, 35407, Control_c, 0, 64, 48
1, 35422, Control_c, 0, 64, 50
1, 35422, Note_on_c, 0, 77, 91
1, 35437, Control_c, 0, 64, 53
1, 35451, Control_c, 0, 64, 55
1, 35464, Note_off_c, 0, 74, 60
1, 35466, Control_c, 0, 64, 56
1, 35585, Control_c, 0, 64, 55
1, 35601, Note_on_c, 0, 69, 94
1, 35634, Note_off_c, 0, 77, 60
1, 35674, Control_c, 0, 64, 56
1, 35718, Control_c, 0, 64, 56
1, 35747, Control_c, 0, 64, 57
1, 35777, Control_c, 0, 64, 57
1, 35792, Control_c, 0, 64, 55
1, 35794, Note_on_c, 0, 55, 85
1, 35796, Note_on_c, 0, 70, 92
1, 35800, Note_on_c, 0, 43, 78
1, 35806, Control_c, 0, 64, 47
1, 35821, Control_c, 0, 64, 30
1, 35830, Note_off_c, 0, 69, 65
1, 35836, Control_c, 0, 64, 0
1, 36030, Control_c, 0, 64, 9
1, 36033, Note_on_c, 0, 74, 83
1, 36045, Control_c, 0, 64, 21
1, 36060, Control_c, 0, 64, 27
1, 36068, Note_off_c, 0, 70, 61
1, 36074, Control_c, 0, 64, 31
1, 36089, Control_c, 0, 64, 35
1, 36111, Control_c, 0, 64, 38
1, 36126, Control_c, 0, 64, 40
1, 36141, Control_c, 0, 64, 39
1, 36156, Control_c, 0, 64, 36
1, 36170, Control_c, 0, 64, 28
1, 36185, Control_c, 0, 64, 0
1, 36195, Note_off_c, 0, 74, 65
1, 36218, Note_on_c, 0, 66, 91
1, 36274, Control_c, 0, 64, 19
1, 36289, Control_c, 0, 64, 29
1, 36304, Control_c, 0, 64, 33
1, 36319, Control_c, 0, 64, 35
1, 36334, Control_c, 0, 64, 36
1, 36349, Control_c, 0, 64, 34
1, 36363, Control_c, 0, 64, 25
1, 36364, Note_on_c, 0, 67, 81
1, 36378, Control_c, 0, 64, 0
1, 36379, Note_off_c, 0, 66, 60
1, 36452, Control_c, 0, 64, 8
1, 36467, Control_c, 0, 64, 24
1, 36482, Control_c, 0, 64, 31
1, 36492, Note_on_c, 0, 70, 85
1, 36492, Note_off_c, 0, 67, 63
1, 36497, Control_c, 0, 64, 33
1, 36511, Control_c, 0, 64, 33
1, 36526, Control_c, 0, 64, 32
1, 36541, Control_c, 0, 64, 24
1, 36555, Control_c, 0, 64, 0
1, 36619, Note_on_c, 0, 62, 78
1, 36629, Note_off_c, 0, 70, 58
1, 36659, Control_c, 0, 64, 22
1, 36674, Control_c, 0, 64, 27
1, 36703, Control_c, 0, 64, 23
1, 36718, Control_c, 0, 64, 8
1, 36722, Note_on_c, 0, 63, 79
1, 36727, Note_off_c, 0, 62, 62
1, 36733, Control_c, 0, 64, 0
1, 36808, Control_c, 0, 64, 18
1, 36820, Note_on_c, 0, 67, 77
1, 36822, Note_off_c, 0, 63, 63
1, 36823, Control_c, 0, 64, 24
1, 36838, Control_c, 0, 64, 26
1, 36860, Control_c, 0, 64, 24
1, 36864, Note_off_c, 0, 55, 53
1, 36875, Control_c, 0, 64, 0
1, 36910, Note_on_c, 0, 58, 78
1, 36964, Control_c, 0, 64, 28
1, 36979, Control_c, 0, 64, 37
1, 36988, Note_off_c, 0, 67, 59
1, 36993, Note_on_c, 0, 63, 74
1, 36993, Control_c, 0, 64, 43
1, 36995, Note_off_c, 0, 58, 61
1, 37008, Control_c, 0, 64, 47
1, 37023, Control_c, 0, 64, 48
1, 37053, Note_off_c, 0, 63, 64
1, 37053, Control_c, 0, 64, 48
1, 37067, Control_c, 0, 64, 47
1, 37070, Note_on_c, 0, 55, 78
1, 37112, Control_c, 0, 64, 47
1, 37153, Note_on_c, 0, 58, 79
1, 37157, Control_c, 0, 64, 45
1, 37170, Note_off_c, 0, 55, 64
1, 37171, Control_c, 0, 64, 42
1, 37186, Control_c, 0, 64, 30
1, 37201, Control_c, 0, 64, 0
1, 37210, Note_off_c, 0, 58, 63
1, 37231, Note_on_c, 0, 51, 76
1, 37277, Note_off_c, 0, 43, 59
1, 37278, Note_off_c, 0, 51, 63
1, 37290, Control_c, 0, 64, 27
1, 37305, Control_c, 0, 64, 37
1, 37313, Note_on_c, 0, 55, 84
1, 37320, Control_c, 0, 64, 44
1, 37334, Control_c, 0, 64, 51
1, 37349, Control_c, 0, 64, 54
1, 37356, Note_off_c, 0, 55, 65
1, 37364, Control_c, 0, 64, 54
1, 37389, Note_on_c, 0, 46, 81
1, 37427, Note_off_c, 0, 46, 64
1, 37474, Note_on_c, 0, 51, 87
1, 37482, Control_c, 0, 64, 53
1, 37497, Control_c, 0, 64, 51
1, 37511, Control_c, 0, 64, 43
1, 37526, Note_off_c, 0, 51, 65
1, 37526, Control_c, 0, 64, 0
1, 37553, Note_on_c, 0, 43, 78
1, 37651, Note_on_c, 0, 46, 74
1, 37713, Control_c, 0, 64, 16
1, 37728, Control_c, 0, 64, 26
1, 37742, Control_c, 0, 64, 32
1, 37749, Note_on_c, 0, 51, 80
1, 37757, Control_c, 0, 64, 36
1, 37772, Control_c, 0, 64, 41
1, 37787, Control_c, 0, 64, 46
1, 37802, Control_c, 0, 64, 50
1, 37816, Control_c, 0, 64, 50
1, 37821, Note_off_c, 0, 46, 59
1, 37831, Control_c, 0, 64, 50
1, 37846, Control_c, 0, 64, 47
1, 37851, Note_on_c, 0, 55, 83
1, 37861, Control_c, 0, 64, 38
1, 37867, Note_off_c, 0, 43, 34
1, 37875, Control_c, 0, 64, 22
1, 37890, Control_c, 0, 64, 14
1, 37897, Note_off_c, 0, 51, 63
1, 37905, Control_c, 0, 64, 20
1, 37920, Control_c, 0, 64, 31
1, 37926, Note_off_c, 0, 55, 65
1, 37935, Control_c, 0, 64, 40
1, 37946, Note_on_c, 0, 58, 77
1, 37949, Control_c, 0, 64, 49
1, 37964, Control_c, 0, 64, 55
1, 37979, Control_c, 0, 64, 57
1, 37994, Control_c, 0, 64, 58
1, 37998, Note_off_c, 0, 58, 61
1, 38009, Control_c, 0, 64, 57
1, 38024, Control_c, 0, 64, 53
1, 38039, Control_c, 0, 64, 45
1, 38054, Control_c, 0, 64, 38
1, 38059, Note_on_c, 0, 63, 81
1, 38069, Control_c, 0, 64, 42
1, 38083, Control_c, 0, 64, 50
1, 38098, Control_c, 0, 64, 57
1, 38113, Control_c, 0, 64, 61
1, 38127, Control_c, 0, 64, 62
1, 38157, Control_c, 0, 64, 62
1, 38172, Control_c, 0, 64, 58
1, 38174, Note_on_c, 0, 67, 84
1, 38187, Control_c, 0, 64, 50
1, 38201, Control_c, 0, 64, 41
1, 38202, Note_off_c, 0, 63, 64
1, 38216, Control_c, 0, 64, 42
1, 38231, Control_c, 0, 64, 46
1, 38246, Control_c, 0, 64, 49
1, 38261, Control_c, 0, 64, 54
1, 38275, Control_c, 0, 64, 59
1, 38290, Control_c, 0, 64, 63
1, 38302, Note_on_c, 0, 70, 89
1, 38305, Control_c, 0, 64, 64
1, 38320, Control_c, 0, 64, 66
1, 38325, Note_off_c, 0, 67, 58
1, 38334, Control_c, 0, 64, 69
1, 38357, Control_c, 0, 64, 74
1, 38372, Control_c, 0, 64, 78
1, 38373, Note_off_c, 0, 70, 62
1, 38387, Control_c, 0, 64, 79
1, 38402, Control_c, 0, 64, 81
1, 38416, Control_c, 0, 64, 84
1, 38432, Control_c, 0, 64, 89
1, 38447, Control_c, 0, 64, 96
1, 38462, Control_c, 0, 64, 110
1, 38471, Note_on_c, 0, 75, 88
1, 38477, Control_c, 0, 64, 127
1, 38543, Note_off_c, 0, 75, 55
1, 38610, Control_c, 0, 64, 115
1, 38619, Note_on_c, 0, 44, 89
1, 38619, Note_on_c, 0, 74, 96
1, 38625, Control_c, 0, 64, 76
1, 38639, Control_c, 0, 64, 62
1, 38654, Control_c, 0, 64, 44
1, 38669, Control_c, 0, 64, 0
1, 38798, Note_on_c, 0, 71, 85
1, 38828, Note_off_c, 0, 74, 63
1, 38847, Control_c, 0, 64, 19
1, 38862, Control_c, 0, 64, 36
1, 38877, Control_c, 0, 64, 50
1, 38891, Control_c, 0, 64, 57
1, 38906, Control_c, 0, 64, 59
1, 38909, Note_on_c, 0, 68, 86
1, 38942, Note_off_c, 0, 71, 60
1, 38965, Control_c, 0, 64, 59
1, 38995, Control_c, 0, 64, 58
1, 39002, Note_on_c, 0, 65, 80
1, 39002, Note_off_c, 0, 68, 60
1, 39010, Control_c, 0, 64, 57
1, 39025, Control_c, 0, 64, 53
1, 39039, Control_c, 0, 64, 46
1, 39051, Note_off_c, 0, 65, 67
1, 39054, Control_c, 0, 64, 37
1, 39069, Control_c, 0, 64, 36
1, 39083, Control_c, 0, 64, 41
1, 39106, Control_c, 0, 64, 45
1, 39110, Note_on_c, 0, 62, 83
1, 39121, Control_c, 0, 64, 51
1, 39136, Control_c, 0, 64, 55
1, 39151, Control_c, 0, 64, 56
1, 39165, Control_c, 0, 64, 57
1, 39195, Control_c, 0, 64, 56
1, 39201, Note_on_c, 0, 59, 75
1, 39231, Note_off_c, 0, 62, 61
1, 39240, Control_c, 0, 64, 56
1, 39255, Control_c, 0, 64, 55
1, 39270, Control_c, 0, 64, 54
1, 39292, Note_off_c, 0, 59, 61
1, 39296, Note_on_c, 0, 56, 84
1, 39374, Control_c, 0, 64, 54
1, 39393, Note_on_c, 0, 53, 85
1, 39403, Control_c, 0, 64, 55
1, 39427, Note_off_c, 0, 56, 63
1, 39492, Control_c, 0, 64, 54
1, 39500, Note_on_c, 0, 50, 85
1, 39507, Control_c, 0, 64, 49
1, 39510, Note_off_c, 0, 53, 59
1, 39522, Control_c, 0, 64, 35
1, 39536, Control_c, 0, 64, 0
1, 39580, Control_c, 0, 64, 11
1, 39595, Control_c, 0, 64, 29
1, 39606, Note_on_c, 0, 47, 79
1, 39610, Control_c, 0, 64, 41
1, 39625, Control_c, 0, 64, 52
1, 39626, Note_off_c, 0, 50, 61
1, 39632, Note_off_c, 0, 44, 61
1, 39640, Control_c, 0, 64, 59
1, 39655, Control_c, 0, 64, 60
1, 39699, Control_c, 0, 64, 60
1, 39714, Control_c, 0, 64, 56
1, 39726, Note_on_c, 0, 44, 85
1, 39729, Control_c, 0, 64, 44
1, 39744, Control_c, 0, 64, 25
1, 39749, Note_off_c, 0, 47, 62
1, 39759, Control_c, 0, 64, 20
1, 39773, Control_c, 0, 64, 23
1, 39788, Control_c, 0, 64, 28
1, 39803, Control_c, 0, 64, 34
1, 39818, Control_c, 0, 64, 42
1, 39833, Control_c, 0, 64, 49
1, 39854, Control_c, 0, 64, 54
1, 39857, Note_on_c, 0, 47, 86
1, 39869, Control_c, 0, 64, 55
1, 39884, Control_c, 0, 64, 50
1, 39899, Control_c, 0, 64, 40
1, 39914, Control_c, 0, 64, 24
1, 39929, Control_c, 0, 64, 22
1, 39944, Control_c, 0, 64, 27
1, 39959, Control_c, 0, 64, 32
1, 39970, Note_on_c, 0, 50, 84
1, 39973, Control_c, 0, 64, 37
1, 39988, Control_c, 0, 64, 44
1, 40003, Control_c, 0, 64, 51
1, 40018, Control_c, 0, 64, 57
1, 40033, Control_c, 0, 64, 60
1, 40048, Control_c, 0, 64, 60
1, 40063, Control_c, 0, 64, 61
1, 40078, Control_c, 0, 64, 61
1, 40088, Note_on_c, 0, 56, 85
1, 40093, Control_c, 0, 64, 63
1, 40108, Control_c, 0, 64, 64
1, 40123, Control_c, 0, 64, 66
1, 40137, Control_c, 0, 64, 69
1, 40141, Note_off_c, 0, 56, 64
1, 40152, Control_c, 0, 64, 73
1, 40167, Control_c, 0, 64, 79
1, 40168, Note_off_c, 0, 44, 37
1, 40182, Control_c, 0, 64, 83
1, 40197, Control_c, 0, 64, 88
1, 40207, Note_on_c, 0, 59, 81
1, 40211, Control_c, 0, 64, 90
1, 40212, Note_off_c, 0, 50, 54
1, 40215, Note_off_c, 0, 47, 57
1, 40241, Control_c, 0, 64, 89
1, 40256, Control_c, 0, 64, 83
1, 40271, Control_c, 0, 64, 74
1, 40285, Control_c, 0, 64, 67
1, 40300, Control_c, 0, 64, 64
1, 40333, Note_on_c, 0, 62, 85
1, 40344, Control_c, 0, 64, 65
1, 40359, Control_c, 0, 64, 66
1, 40367, Note_off_c, 0, 59, 27
1, 40388, Note_off_c, 0, 62, 66
1, 40476, Note_on_c, 0, 65, 88
1, 40492, Control_c, 0, 64, 66
1, 40507, Control_c, 0, 64, 67
1, 40522, Control_c, 0, 64, 67
1, 40552, Control_c, 0, 64, 68
1, 40567, Control_c, 0, 64, 68
1, 40582, Control_c, 0, 64, 69
1, 40603, Control_c, 0, 64, 69
1, 40618, Control_c, 0, 64, 70
1, 40626, Note_off_c, 0, 65, 0
1, 40633, Control_c, 0, 64, 70
1, 40643, Note_on_c, 0, 68, 93
1, 40648, Control_c, 0, 64, 72
1, 40663, Control_c, 0, 64, 74
1, 40677, Poly_aftertouch_c, 0, 65, 0
1, 40677, Control_c, 0, 64, 77
1, 40692, Control_c, 0, 64, 82
1, 40707, Control_c, 0, 64, 89
1, 40722, Control_c, 0, 64, 101
1, 40737, Control_c, 0, 64, 127
1, 40804, Note_off_c, 0, 68, 57
1, 40836, Note_on_c, 0, 71, 93
1, 41070, Note_off_c, 0, 71, 60
1, 41084, Note_on_c, 0, 74, 95
1, 41297, Note_on_c, 0, 45, 94
1, 41330, Control_c, 0, 64, 85
1, 41352, Control_c, 0, 64, 61
1, 41367, Control_c, 0, 64, 0
1, 41471, Control_c, 0, 64, 21
1, 41485, Control_c, 0, 64, 44
1, 41488, Note_on_c, 0, 50, 77
1, 41500, Control_c, 0, 64, 61
1, 41515, Control_c, 0, 64, 78
1, 41530, Control_c, 0, 64, 91
1, 41578, Note_on_c, 0, 53, 74
1, 41641, Note_on_c, 0, 57, 84
1, 41643, Note_off_c, 0, 45, 60
1, 41649, Note_off_c, 0, 74, 32
1, 41696, Note_off_c, 0, 50, 54
1, 41700, Note_off_c, 0, 53, 57
1, 41709, Note_on_c, 0, 62, 85
1, 41720, Note_off_c, 0, 57, 62
1, 41768, Control_c, 0, 64, 91
1, 41776, Note_on_c, 0, 65, 90
1, 41780, Note_off_c, 0, 62, 65
1, 41783, Control_c, 0, 64, 92
1, 41843, Note_on_c, 0, 69, 95
1, 41857, Control_c, 0, 64, 91
1, 41872, Control_c, 0, 64, 90
1, 41887, Control_c, 0, 64, 89
1, 41901, Control_c, 0, 64, 89
1, 41931, Control_c, 0, 64, 88
1, 41946, Control_c, 0, 64, 87
1, 41961, Control_c, 0, 64, 87
1, 41975, Control_c, 0, 64, 86
1, 41990, Control_c, 0, 64, 85
1, 42005, Control_c, 0, 64, 85
1, 42235, Control_c, 0, 64, 85
1, 42264, Control_c, 0, 64, 86
1, 42279, Control_c, 0, 64, 86
1, 42294, Control_c, 0, 64, 87
1, 42308, Control_c, 0, 64, 88
1, 42338, Control_c, 0, 64, 88
1, 42353, Control_c, 0, 64, 89
1, 42368, Control_c, 0, 64, 91
1, 42382, Control_c, 0, 64, 93
1, 42397, Control_c, 0, 64, 97
1, 42412, Control_c, 0, 64, 106
1, 42428, Control_c, 0, 64, 119
1, 42443, Control_c, 0, 64, 127
1, 43469, Note_off_c, 0, 65, 57
1, 43474, Note_off_c, 0, 69, 44
1, 43548, Control_c, 0, 64, 75
1, 43563, Control_c, 0, 64, 58
1, 43577, Control_c, 0, 64, 27
1, 43600, Control_c, 0, 64, 0
1, 44201, Note_on_c, 0, 72, 86
1, 44508, Note_on_c, 0, 70, 83
1, 44553, Note_off_c, 0, 72, 61
1, 44743, Note_on_c, 0, 69, 82
1, 44789, Note_off_c, 0, 70, 60
1, 44936, Note_on_c, 0, 67, 74
1, 44982, Note_off_c, 0, 69, 58
1, 45102, Note_on_c, 0, 70, 74
1, 45142, Note_off_c, 0, 67, 62
1, 45239, Note_on_c, 0, 69, 83
1, 45283, Note_off_c, 0, 70, 57
1, 45348, Note_on_c, 0, 67, 81
1, 45393, Note_off_c, 0, 69, 57
1, 45458, Note_on_c, 0, 65, 83
1, 45468, Note_off_c, 0, 67, 63
1, 45578, Note_on_c, 0, 64, 83
1, 45587, Note_off_c, 0, 65, 65
1, 45698, Note_off_c, 0, 64, 62
1, 45703, Note_on_c, 0, 62, 88
1, 45846, Note_on_c, 0, 61, 82
1, 45866, Note_off_c, 0, 62, 62
1, 46011, Note_on_c, 0, 59, 84
1, 46043, Note_off_c, 0, 61, 63
1, 46164, Note_on_c, 0, 57, 84
1, 46193, Note_off_c, 0, 59, 59
1, 46325, Note_on_c, 0, 55, 86
1, 46356, Note_off_c, 0, 57, 59
1, 46499, Note_on_c, 0, 53, 83
1, 46534, Note_off_c, 0, 55, 63
1, 46701, Note_on_c, 0, 52, 88
1, 46744, Note_off_c, 0, 53, 63
1, 46929, Note_on_c, 0, 50, 83
1, 46934, Note_off_c, 0, 52, 64
1, 47232, Note_on_c, 0, 62, 88
1, 47268, Note_off_c, 0, 50, 55
1, 47589, Note_on_c, 0, 57, 77
1, 47590, Note_on_c, 0, 45, 63
1, 47590, Note_on_c, 0, 53, 66
1, 47846, Control_c, 0, 64, 19
1, 47861, Control_c, 0, 64, 28
1, 47876, Control_c, 0, 64, 36
1, 47891, Control_c, 0, 64, 44
1, 47906, Control_c, 0, 64, 51
1, 47920, Control_c, 0, 64, 56
1, 47935, Control_c, 0, 64, 60
1, 47950, Control_c, 0, 64, 62
1, 47965, Control_c, 0, 64, 65
1, 47980, Control_c, 0, 64, 68
1, 47994, Control_c, 0, 64, 72
1, 48010, Control_c, 0, 64, 75
1, 48025, Control_c, 0, 64, 78
1, 48040, Control_c, 0, 64, 80
1, 48055, Control_c, 0, 64, 81
1, 48069, Control_c, 0, 64, 82
1, 48091, Control_c, 0, 64, 82
1, 48165, Control_c, 0, 64, 83
1, 48284, Control_c, 0, 64, 83
1, 48477, Note_off_c, 0, 62, 34
1, 48506, Control_c, 0, 64, 84
1, 48824, Note_off_c, 0, 57, 0
1, 48869, Poly_aftertouch_c, 0, 57, 127
1, 49111, Note_on_c, 0, 61, 77
1, 49121, Note_on_c, 0, 52, 60
1, 49137, Control_c, 0, 64, 83
1, 49152, Control_c, 0, 64, 82
1, 49166, Control_c, 0, 64, 80
1, 49181, Control_c, 0, 64, 77
1, 49196, Control_c, 0, 64, 71
1, 49211, Control_c, 0, 64, 65
1, 49226, Control_c, 0, 64, 59
1, 49240, Control_c, 0, 64, 47
1, 49255, Control_c, 0, 64, 21
1, 49270, Control_c, 0, 64, 0
1, 49357, Note_off_c, 0, 53, 46
1, 49435, Note_off_c, 0, 61, 64
1, 49451, Note_on_c, 0, 62, 60
1, 49515, Note_off_c, 0, 62, 64
1, 49524, Note_on_c, 0, 61, 66
1, 49591, Note_off_c, 0, 61, 65
1, 49596, Note_on_c, 0, 62, 61
1, 49645, Note_off_c, 0, 62, 63
1, 49652, Note_on_c, 0, 61, 65
1, 49712, Note_off_c, 0, 61, 65
1, 49715, Note_on_c, 0, 62, 68
1, 49772, Note_off_c, 0, 62, 63
1, 49773, Note_on_c, 0, 61, 65
1, 49832, Note_on_c, 0, 62, 66
1, 49832, Note_off_c, 0, 61, 65
1, 49892, Note_on_c, 0, 61, 67
1, 49892, Note_off_c, 0, 62, 64
1, 49950, Note_on_c, 0, 62, 70
1, 49950, Note_off_c, 0, 61, 65
1, 50010, Note_on_c, 0, 61, 67
1, 50010, Note_off_c, 0, 62, 63
1, 50069, Note_off_c, 0, 61, 66
1, 50073, Note_on_c, 0, 62, 68
1, 50132, Note_on_c, 0, 61, 69
1, 50132, Note_off_c, 0, 62, 64
1, 50190, Note_on_c, 0, 62, 70
1, 50192, Note_off_c, 0, 61, 66
1, 50240, Note_on_c, 0, 61, 78
1, 50243, Note_on_c, 0, 55, 62
1, 50264, Note_off_c, 0, 62, 64
1, 50809, Note_on_c, 0, 62, 78
1, 50862, Note_off_c, 0, 61, 64
1, 50930, Control_c, 0, 64, 26
1, 50945, Control_c, 0, 64, 43
1, 50960, Control_c, 0, 64, 58
1, 50975, Control_c, 0, 64, 66
1, 50990, Control_c, 0, 64, 71
1, 51001, Note_off_c, 0, 55, 37
1, 51005, Control_c, 0, 64, 74
1, 51019, Control_c, 0, 64, 81
1, 51029, Note_off_c, 0, 45, 45
1, 51033, Note_off_c, 0, 52, 49
1, 51034, Control_c, 0, 64, 92
1, 51049, Control_c, 0, 64, 99
1, 51063, Control_c, 0, 64, 105
1, 51086, Control_c, 0, 64, 108
1, 51101, Control_c, 0, 64, 111
1, 51113, Note_off_c, 0, 62, 53
1, 51116, Control_c, 0, 64, 122
1, 51131, Control_c, 0, 64, 127
1, 51676, Note_on_c, 0, 62, 80
1, 51677, Note_on_c, 0, 38, 50
1, 51682, Note_on_c, 0, 50, 46
1, 51724, Control_c, 0, 64, 115
1, 51739, Control_c, 0, 64, 100
1, 51753, Control_c, 0, 64, 86
1, 51768, Control_c, 0, 64, 72
1, 51783, Control_c, 0, 64, 65
1, 51798, Control_c, 0, 64, 58
1, 51812, Control_c, 0, 64, 47
1, 51835, Control_c, 0, 64, 29
1, 51849, Control_c, 0, 64, 0
1, 52028, Note_on_c, 0, 55, 67
1, 52103, Poly_aftertouch_c, 0, 57, 0
1, 52267, Note_on_c, 0, 57, 68
1, 52305, Note_off_c, 0, 55, 61
1, 52489, Note_on_c, 0, 52, 76
1, 52735, Note_on_c, 0, 53, 69
1, 52771, Note_off_c, 0, 52, 64
1, 52853, Note_off_c, 0, 50, 41
1, 53018, Note_on_c, 0, 49, 67
1, 53343, Note_on_c, 0, 50, 63
1, 53364, Note_off_c, 0, 49, 60
1, 53713, Note_on_c, 0, 45, 56
1, 53764, Note_off_c, 0, 38, 42
1, 53838, Control_c, 0, 64, 27
1, 53852, Note_off_c, 0, 45, 59
1, 53853, Control_c, 0, 64, 43
1, 53867, Control_c, 0, 64, 56
1, 53882, Control_c, 0, 64, 64
1, 53897, Control_c, 0, 64, 64
1, 53912, Control_c, 0, 64, 65
1, 53927, Control_c, 0, 64, 66
1, 53942, Control_c, 0, 64, 68
1, 53956, Control_c, 0, 64, 68
1, 54097, Control_c, 0, 64, 68
1, 54186, Control_c, 0, 64, 67
1, 54275, Control_c, 0, 64, 67
1, 54304, Control_c, 0, 64, 66
1, 54319, Control_c, 0, 64, 66
1, 54321, Note_on_c, 0, 38, 50
1, 54334, Control_c, 0, 64, 65
1, 54349, Control_c, 0, 64, 62
1, 54363, Control_c, 0, 64, 54
1, 54378, Control_c, 0, 64, 38
1, 54391, Note_off_c, 0, 38, 59
1, 54393, Control_c, 0, 64, 0
1, 54414, Note_on_c, 0, 37, 49
1, 54498, Note_off_c, 0, 37, 61
1, 54528, Note_on_c, 0, 38, 44
1, 56966, Note_off_c, 0, 50, 14
1, 57078, Note_off_c, 0, 62, 15
1, 57271, Note_off_c, 0, 38, 32
1, 57338, Note_off_c, 0, 53, 36
1, 57440, Note_off_c, 0, 57, 39
1, 59589, Control_c, 0, 64, 16
1, 59604, Control_c, 0, 64, 23
1, 59618, Control_c, 0, 64, 30
1, 59633, Control_c, 0, 64, 37
1, 59648, Control_c, 0, 64, 43
1, 59663, Control_c, 0, 64, 49
1, 59678, Control_c, 0, 64, 53
1, 59692, Control_c, 0, 64, 56
1, 59707, Control_c, 0, 64, 57
1, 59722, Control_c, 0, 64, 58
1, 59737, Control_c, 0, 64, 59
1, 59954, Note_on_c, 0, 70, 52
1, 60034, Note_off_c, 0, 70, 48
1, 60382, Note_on_c, 0, 69, 34
1, 60382, Control_c, 0, 64, 59
1, 60397, Control_c, 0, 64, 57
1, 60412, Control_c, 0, 64, 51
1, 60414, Note_off_c, 0, 69, 52
1, 60427, Control_c, 0, 64, 39
1, 60431, Note_on_c, 0, 70, 52
1, 60442, Control_c, 0, 64, 18
1, 60456, Control_c, 0, 64, 0
1, 60482, Note_off_c, 0, 70, 52
1, 60494, Note_on_c, 0, 69, 52
1, 61019, Note_off_c, 0, 69, 63
1, 61023, Note_on_c, 0, 67, 55
1, 61357, Note_on_c, 0, 69, 51
1, 61358, Note_on_c, 0, 50, 28
1, 61405, Note_off_c, 0, 67, 28
1, 61606, Note_on_c, 0, 64, 48
1, 61799, Note_off_c, 0, 64, 59
1, 61815, Note_on_c, 0, 65, 51
1, 61822, Note_on_c, 0, 57, 34
1, 62014, Note_on_c, 0, 61, 49
1, 62196, Note_off_c, 0, 61, 56
1, 62202, Note_off_c, 0, 65, 41
1, 62224, Note_on_c, 0, 62, 41
1, 62226, Note_off_c, 0, 69, 45
1, 62243, Note_on_c, 0, 53, 33
1, 62345, Note_off_c, 0, 50, 42
1, 62447, Note_on_c, 0, 65, 49
1, 62598, Note_off_c, 0, 57, 23
1, 62657, Note_on_c, 0, 69, 56
1, 62682, Note_on_c, 0, 50, 34
1, 62700, Note_off_c, 0, 65, 53
1, 62879, Note_off_c, 0, 69, 57
1, 62887, Note_on_c, 0, 74, 61
1, 62925, Control_c, 0, 64, 21
1, 62940, Control_c, 0, 64, 30
1, 62955, Control_c, 0, 64, 40
1, 62969, Control_c, 0, 64, 47
1, 62984, Control_c, 0, 64, 54
1, 62999, Control_c, 0, 64, 57
1, 63007, Note_off_c, 0, 62, 33
1, 63014, Control_c, 0, 64, 59
1, 63029, Control_c, 0, 64, 60
1, 63053, Note_off_c, 0, 74, 57
1, 63066, Control_c, 0, 64, 60
1, 63184, Control_c, 0, 64, 60
1, 63215, Control_c, 0, 64, 59
1, 63226, Note_on_c, 0, 74, 59
1, 63236, Note_on_c, 0, 64, 49
1, 63242, Note_on_c, 0, 45, 42
1, 63245, Control_c, 0, 64, 59
1, 63260, Control_c, 0, 64, 58
1, 63274, Control_c, 0, 64, 54
1, 63289, Control_c, 0, 64, 47
1, 63304, Control_c, 0, 64, 34
1, 63319, Control_c, 0, 64, 14
1, 63334, Control_c, 0, 64, 0
1, 63340, Note_off_c, 0, 50, 32
1, 63439, Note_off_c, 0, 53, 41
1, 63779, Note_on_c, 0, 72, 50
1, 63784, Note_on_c, 0, 57, 32
1, 63791, Note_off_c, 0, 74, 38
1, 63934, Control_c, 0, 64, 14
1, 63949, Control_c, 0, 64, 32
1, 63964, Control_c, 0, 64, 43
1, 63979, Control_c, 0, 64, 52
1, 63985, Note_off_c, 0, 72, 57
1, 63994, Control_c, 0, 64, 57
1, 64009, Control_c, 0, 64, 58
1, 64038, Control_c, 0, 64, 58
1, 64083, Control_c, 0, 64, 58
1, 64143, Control_c, 0, 64, 57
1, 64187, Control_c, 0, 64, 57
1, 64231, Control_c, 0, 64, 56
1, 64244, Note_off_c, 0, 64, 35
1, 64246, Control_c, 0, 64, 56
1, 64261, Control_c, 0, 64, 55
1, 64273, Note_on_c, 0, 67, 49
1, 64290, Control_c, 0, 64, 55
1, 64305, Control_c, 0, 64, 54
1, 64315, Note_off_c, 0, 67, 48
1, 64320, Control_c, 0, 64, 51
1, 64335, Control_c, 0, 64, 44
1, 64346, Note_on_c, 0, 65, 33
1, 64349, Control_c, 0, 64, 35
1, 64364, Control_c, 0, 64, 24
1, 64379, Note_off_c, 0, 65, 54
1, 64379, Control_c, 0, 64, 18
1, 64394, Control_c, 0, 64, 14
1, 64404, Note_on_c, 0, 67, 53
1, 64408, Control_c, 0, 64, 0
1, 64457, Note_on_c, 0, 65, 52
1, 64457, Note_off_c, 0, 67, 59
1, 64521, Note_off_c, 0, 45, 42
1, 64539, Note_on_c, 0, 50, 38
1, 64771, Note_on_c, 0, 48, 45
1, 64775, Note_off_c, 0, 50, 40
1, 64982, Note_off_c, 0, 57, 42
1, 64989, Note_on_c, 0, 50, 45
1, 65191, Note_off_c, 0, 50, 52
1, 65216, Note_off_c, 0, 48, 45
1, 65224, Note_on_c, 0, 46, 47
1, 65225, Note_on_c, 0, 55, 38
1, 65470, Note_on_c, 0, 64, 44
1, 65476, Note_off_c, 0, 65, 48
1, 65702, Note_on_c, 0, 65, 51
1, 65710, Note_on_c, 0, 43, 39
1, 65733, Note_off_c, 0, 64, 34
1, 65742, Note_off_c, 0, 46, 39
1, 65928, Note_on_c, 0, 67, 58
1, 65986, Note_off_c, 0, 65, 55
1, 66183, Note_on_c, 0, 64, 48
1, 66194, Note_on_c, 0, 48, 39
1, 66214, Note_off_c, 0, 67, 55
1, 66435, Note_on_c, 0, 67, 60
1, 66509, Note_off_c, 0, 64, 33
1, 66533, Note_off_c, 0, 43, 34
1, 66679, Note_on_c, 0, 69, 59
1, 66688, Note_on_c, 0, 52, 40
1, 66701, Note_off_c, 0, 67, 56
1, 66796, Note_off_c, 0, 55, 44
1, 66948, Note_on_c, 0, 70, 60
1, 66954, Note_off_c, 0, 69, 55
1, 67106, Control_c, 0, 64, 19
1, 67121, Control_c, 0, 64, 34
1, 67135, Control_c, 0, 64, 45
1, 67150, Control_c, 0, 64, 55
1, 67165, Control_c, 0, 64, 60
1, 67176, Note_off_c, 0, 70, 37
1, 67181, Control_c, 0, 64, 61
1, 67196, Control_c, 0, 64, 61
1, 67211, Control_c, 0, 64, 62
1, 67226, Control_c, 0, 64, 63
1, 67326, Note_on_c, 0, 70, 50
1, 67333, Note_on_c, 0, 53, 33
1, 67345, Control_c, 0, 64, 62
1, 67359, Control_c, 0, 64, 61
1, 67374, Control_c, 0, 64, 59
1, 67389, Control_c, 0, 64, 55
1, 67404, Control_c, 0, 64, 48
1, 67419, Control_c, 0, 64, 36
1, 67429, Note_off_c, 0, 48, 44
1, 67434, Control_c, 0, 64, 16
1, 67448, Control_c, 0, 64, 0
1, 67469, Note_off_c, 0, 52, 44
1, 67930, Note_on_c, 0, 57, 35
1, 67931, Note_on_c, 0, 69, 45
1, 68146, Note_off_c, 0, 70, 28
1, 68475, Note_on_c, 0, 62, 38
1, 68530, Note_off_c, 0, 57, 36
1, 68616, Note_off_c, 0, 53, 45
1, 68714, Note_on_c, 0, 67, 59
1, 68719, Note_off_c, 0, 69, 53
1, 68956, Note_on_c, 0, 69, 66
1, 68975, Note_on_c, 0, 53, 40
1, 68988, Note_off_c, 0, 67, 48
1, 69192, Note_on_c, 0, 70, 69
1, 69237, Note_off_c, 0, 69, 61
1, 69489, Note_on_c, 0, 52, 37
1, 69491, Note_on_c, 0, 67, 66
1, 69514, Note_off_c, 0, 70, 60
1, 69562, Note_off_c, 0, 53, 35
1, 69723, Note_off_c, 0, 62, 38
1, 69997, Note_on_c, 0, 55, 38
1, 70061, Note_on_c, 0, 76, 52
1, 70096, Note_off_c, 0, 67, 40
1, 70122, Note_off_c, 0, 76, 58
1, 70140, Note_on_c, 0, 74, 49
1, 70236, Note_on_c, 0, 76, 58
1, 70246, Note_off_c, 0, 74, 56
1, 70534, Note_on_c, 0, 61, 47
1, 70540, Note_off_c, 0, 76, 57
1, 70692, Note_off_c, 0, 52, 42
1, 70723, Note_off_c, 0, 55, 37
1, 70775, Note_on_c, 0, 70, 63
1, 71012, Note_on_c, 0, 69, 68
1, 71030, Note_on_c, 0, 52, 38
1, 71049, Note_off_c, 0, 70, 60
1, 71260, Note_on_c, 0, 67, 67
1, 71279, Note_off_c, 0, 69, 60
1, 71588, Note_on_c, 0, 50, 34
1, 71607, Note_on_c, 0, 65, 49
1, 71622, Note_off_c, 0, 67, 44
1, 71666, Note_off_c, 0, 52, 36
1, 71727, Note_off_c, 0, 61, 46
1, 72186, Note_on_c, 0, 57, 32
1, 72203, Note_on_c, 0, 76, 42
1, 72276, Note_off_c, 0, 65, 28
1, 72458, Note_on_c, 0, 77, 47
1, 72484, Note_off_c, 0, 76, 43
1, 72726, Note_on_c, 0, 62, 39
1, 72765, Note_off_c, 0, 77, 35
1, 72893, Note_off_c, 0, 50, 42
1, 72986, Note_on_c, 0, 77, 63
1, 73080, Note_off_c, 0, 57, 36
1, 73232, Note_on_c, 0, 69, 68
1, 73234, Note_off_c, 0, 77, 61
1, 73262, Note_on_c, 0, 50, 38
1, 73473, Note_on_c, 0, 70, 74
1, 73475, Note_off_c, 0, 69, 62
1, 73743, Note_on_c, 0, 64, 65
1, 73751, Note_on_c, 0, 48, 47
1, 73784, Note_off_c, 0, 62, 33
1, 73827, Note_off_c, 0, 50, 43
1, 73991, Note_on_c, 0, 76, 73
1, 74001, Note_off_c, 0, 70, 58
1, 74233, Note_on_c, 0, 67, 78
1, 74248, Note_on_c, 0, 60, 46
1, 74260, Note_off_c, 0, 76, 37
1, 74448, Note_off_c, 0, 60, 55
1, 74487, Note_on_c, 0, 69, 74
1, 74512, Note_off_c, 0, 67, 61
1, 74513, Note_off_c, 0, 64, 59
1, 74736, Note_on_c, 0, 62, 68
1, 74746, Note_on_c, 0, 46, 52
1, 74759, Note_off_c, 0, 48, 35
1, 74980, Note_on_c, 0, 74, 66
1, 74981, Note_off_c, 0, 69, 59
1, 75244, Note_on_c, 0, 65, 66
1, 75254, Note_on_c, 0, 58, 40
1, 75280, Note_off_c, 0, 74, 38
1, 75491, Note_on_c, 0, 67, 60
1, 75502, Note_off_c, 0, 58, 49
1, 75530, Note_off_c, 0, 62, 56
1, 75553, Note_off_c, 0, 65, 51
1, 75747, Note_on_c, 0, 60, 57
1, 75754, Note_on_c, 0, 45, 43
1, 75762, Note_off_c, 0, 46, 0
1, 75819, Poly_aftertouch_c, 0, 46, 0
1, 76000, Note_off_c, 0, 67, 54
1, 76010, Note_on_c, 0, 72, 55
1, 76251, Note_on_c, 0, 64, 49
1, 76263, Note_on_c, 0, 57, 36
1, 76282, Note_off_c, 0, 72, 35
1, 76501, Note_on_c, 0, 65, 56
1, 76506, Note_off_c, 0, 60, 62
1, 76511, Note_off_c, 0, 64, 54
1, 76549, Note_off_c, 0, 57, 36
1, 76769, Note_on_c, 0, 58, 44
1, 76775, Note_on_c, 0, 43, 34
1, 76859, Note_off_c, 0, 45, 26
1, 77023, Note_on_c, 0, 70, 46
1, 77035, Note_off_c, 0, 65, 36
1, 77282, Note_on_c, 0, 62, 47
1, 77303, Note_on_c, 0, 55, 36
1, 77324, Note_off_c, 0, 70, 32
1, 77548, Note_on_c, 0, 64, 45
1, 77559, Note_off_c, 0, 58, 45
1, 77768, Note_off_c, 0, 62, 28
1, 77800, Note_on_c, 0, 45, 38
1, 77802, Note_off_c, 0, 64, 50
1, 77804, Note_on_c, 0, 60, 46
1, 77831, Note_off_c, 0, 55, 33
1, 77893, Note_off_c, 0, 43, 41
1, 78077, Note_on_c, 0, 65, 53
1, 78147, Note_off_c, 0, 60, 37
1, 78339, Note_on_c, 0, 67, 62
1, 78347, Note_on_c, 0, 53, 45
1, 78380, Note_off_c, 0, 65, 58
1, 78582, Note_on_c, 0, 69, 66
1, 78626, Note_off_c, 0, 67, 59
1, 78874, Note_on_c, 0, 62, 60
1, 78883, Note_on_c, 0, 46, 41
1, 78919, Note_off_c, 0, 69, 59
1, 78943, Note_off_c, 0, 45, 44
1, 79132, Note_on_c, 0, 69, 64
1, 79157, Note_off_c, 0, 62, 56
1, 79403, Note_on_c, 0, 67, 59
1, 79406, Note_on_c, 0, 58, 47
1, 79446, Note_off_c, 0, 69, 59
1, 79547, Note_off_c, 0, 53, 45
1, 79673, Note_on_c, 0, 65, 56
1, 79715, Note_off_c, 0, 67, 58
1, 79931, Note_on_c, 0, 64, 45
1, 79939, Note_on_c, 0, 48, 39
1, 79942, Note_off_c, 0, 65, 56
1, 80042, Note_off_c, 0, 46, 59
1, 80171, Note_off_c, 0, 64, 58
1, 80188, Note_on_c, 0, 62, 47
1, 80440, Note_on_c, 0, 60, 46
1, 80454, Note_off_c, 0, 62, 42
1, 80550, Note_off_c, 0, 58, 35
1, 80672, Note_on_c, 0, 58, 45
1, 80911, Note_off_c, 0, 60, 38
1, 80952, Note_on_c, 0, 57, 42
1, 81029, Note_off_c, 0, 58, 36
1, 81213, Note_on_c, 0, 60, 40
1, 81450, Note_off_c, 0, 60, 39
1, 81456, Note_on_c, 0, 62, 39
1, 81456, Note_on_c, 0, 55, 37
1, 81571, Note_off_c, 0, 57, 41
1, 81630, Note_off_c, 0, 48, 42
1, 81694, Note_on_c, 0, 64, 46
1, 81764, Note_off_c, 0, 62, 44
1, 81945, Note_on_c, 0, 65, 45
1, 81957, Note_on_c, 0, 48, 36
1, 81958, Note_on_c, 0, 57, 32
1, 81986, Note_off_c, 0, 64, 34
1, 82012, Note_off_c, 0, 55, 40
1, 82166, Note_off_c, 0, 65, 63
1, 82195, Note_on_c, 0, 60, 51
1, 82433, Note_on_c, 0, 58, 39
1, 82442, Note_on_c, 0, 67, 54
1, 82443, Note_on_c, 0, 55, 33
1, 82462, Note_off_c, 0, 60, 41
1, 82535, Note_off_c, 0, 57, 43
1, 82674, Note_off_c, 0, 67, 63
1, 82686, Note_on_c, 0, 64, 55
1, 82910, Note_off_c, 0, 55, 43
1, 82928, Note_on_c, 0, 69, 54
1, 82946, Note_on_c, 0, 57, 31
1, 82947, Note_on_c, 0, 53, 33
1, 82965, Note_off_c, 0, 64, 52
1, 82996, Note_off_c, 0, 58, 50
1, 83148, Note_off_c, 0, 69, 64
1, 83170, Note_on_c, 0, 65, 51
1, 83427, Note_on_c, 0, 52, 38
1, 83430, Note_on_c, 0, 70, 45
1, 83443, Note_on_c, 0, 55, 29
1, 83475, Note_off_c, 0, 53, 44
1, 83537, Note_off_c, 0, 57, 42
1, 83539, Note_off_c, 0, 65, 40
1, 83647, Note_off_c, 0, 48, 45
1, 83666, Note_off_c, 0, 70, 58
1, 83670, Note_on_c, 0, 69, 54
1, 83742, Control_c, 0, 64, 14
1, 83757, Control_c, 0, 64, 28
1, 83772, Control_c, 0, 64, 36
1, 83786, Control_c, 0, 64, 43
1, 83801, Control_c, 0, 64, 51
1, 83816, Control_c, 0, 64, 53
1, 83890, Control_c, 0, 64, 53
1, 83904, Control_c, 0, 64, 52
1, 83932, Note_off_c, 0, 69, 42
1, 83934, Control_c, 0, 64, 52
1, 83950, Control_c, 0, 64, 50
1, 83965, Control_c, 0, 64, 49
1, 83980, Control_c, 0, 64, 47
1, 83981, Note_on_c, 0, 60, 36
1, 83989, Note_on_c, 0, 70, 47
1, 83995, Control_c, 0, 64, 46
1, 84002, Note_on_c, 0, 48, 34
1, 84005, Note_on_c, 0, 65, 24
1, 84009, Control_c, 0, 64, 44
1, 84031, Control_c, 0, 64, 41
1, 84046, Control_c, 0, 64, 35
1, 84058, Note_off_c, 0, 55, 40
1, 84061, Control_c, 0, 64, 24
1, 84068, Note_off_c, 0, 70, 60
1, 84076, Control_c, 0, 64, 0
1, 84079, Note_on_c, 0, 69, 45
1, 84126, Note_off_c, 0, 52, 37
1, 84143, Note_off_c, 0, 69, 55
1, 84173, Note_on_c, 0, 70, 49
1, 84251, Note_off_c, 0, 70, 54
1, 84257, Note_on_c, 0, 69, 52
1, 84282, Note_off_c, 0, 65, 41
1, 84601, Note_on_c, 0, 67, 42
1, 84605, Note_on_c, 0, 64, 30
1, 84673, Note_off_c, 0, 69, 34
1, 84858, Note_on_c, 0, 55, 41
1, 84905, Note_off_c, 0, 48, 36
1, 84911, Note_off_c, 0, 60, 41
1, 85078, Note_off_c, 0, 64, 43
1, 85101, Note_on_c, 0, 48, 53
1, 85130, Note_off_c, 0, 67, 38
1, 85363, Note_on_c, 0, 64, 66
1, 85619, Note_on_c, 0, 62, 69
1, 85629, Note_on_c, 0, 58, 52
1, 85682, Note_off_c, 0, 64, 57
1, 85695, Note_off_c, 0, 55, 28
1, 85822, Note_off_c, 0, 48, 58
1, 85857, Note_on_c, 0, 60, 68
1, 85876, Note_off_c, 0, 62, 58
1, 86107, Note_on_c, 0, 57, 47
1, 86112, Note_on_c, 0, 65, 61
1, 86116, Note_on_c, 0, 48, 50
1, 86187, Note_off_c, 0, 60, 40
1, 86293, Note_off_c, 0, 58, 58
1, 86374, Note_off_c, 0, 65, 63
1, 86377, Note_on_c, 0, 60, 65
1, 86606, Note_on_c, 0, 58, 45
1, 86606, Note_on_c, 0, 67, 63
1, 86609, Note_on_c, 0, 55, 40
1, 86700, Note_off_c, 0, 57, 44
1, 86707, Note_off_c, 0, 60, 36
1, 86861, Note_on_c, 0, 64, 68
1, 86867, Note_off_c, 0, 67, 63
1, 87103, Note_on_c, 0, 57, 44
1, 87103, Note_on_c, 0, 69, 66
1, 87111, Note_on_c, 0, 53, 43
1, 87157, Note_off_c, 0, 55, 36
1, 87161, Note_off_c, 0, 64, 59
1, 87214, Note_off_c, 0, 58, 37
1, 87356, Note_off_c, 0, 69, 64
1, 87364, Note_on_c, 0, 65, 66
1, 87456, Note_off_c, 0, 48, 0
1, 87493, Poly_aftertouch_c, 0, 48, 127
1, 87620, Note_on_c, 0, 70, 60
1, 87623, Note_on_c, 0, 52, 48
1, 87661, Note_off_c, 0, 53, 45
1, 87667, Note_off_c, 0, 65, 59
1, 87915, Note_on_c, 0, 69, 70
1, 87955, Note_off_c, 0, 70, 61
1, 88012, Note_off_c, 0, 52, 61
1, 88014, Control_c, 0, 64, 28
1, 88028, Control_c, 0, 64, 40
1, 88043, Control_c, 0, 64, 50
1, 88044, Poly_aftertouch_c, 0, 48, 0
1, 88058, Control_c, 0, 64, 56
1, 88073, Control_c, 0, 64, 58
1, 88088, Control_c, 0, 64, 59
1, 88102, Control_c, 0, 64, 60
1, 88117, Control_c, 0, 64, 61
1, 88132, Control_c, 0, 64, 62
1, 88170, Note_off_c, 0, 69, 56
1, 88280, Control_c, 0, 64, 61
1, 88295, Control_c, 0, 64, 61
1, 88303, Note_on_c, 0, 69, 63
1, 88309, Control_c, 0, 64, 60
1, 88322, Note_on_c, 0, 50, 39
1, 88324, Control_c, 0, 64, 59
1, 88327, Note_on_c, 0, 47, 43
1, 88339, Control_c, 0, 64, 58
1, 88354, Control_c, 0, 64, 56
1, 88369, Control_c, 0, 64, 53
1, 88383, Control_c, 0, 64, 46
1, 88398, Control_c, 0, 64, 39
1, 88413, Control_c, 0, 64, 31
1, 88428, Control_c, 0, 64, 24
1, 88443, Control_c, 0, 64, 18
1, 88458, Control_c, 0, 64, 9
1, 88473, Control_c, 0, 64, 0
1, 88755, Note_on_c, 0, 68, 68
1, 88816, Note_off_c, 0, 69, 61
1, 88874, Note_off_c, 0, 57, 41
1, 89078, Note_on_c, 0, 74, 64
1, 89083, Note_on_c, 0, 57, 40
1, 89148, Note_off_c, 0, 68, 56
1, 89209, Note_off_c, 0, 50, 40
1, 89366, Note_on_c, 0, 73, 65
1, 89388, Note_off_c, 0, 74, 55
1, 89644, Note_on_c, 0, 74, 59
1, 89644, Note_on_c, 0, 56, 39
1, 89689, Note_off_c, 0, 73, 57
1, 89771, Note_off_c, 0, 57, 52
1, 89900, Note_on_c, 0, 65, 60
1, 90126, Note_off_c, 0, 65, 65
1, 90160, Note_on_c, 0, 64, 57
1, 90379, Note_off_c, 0, 64, 42
1, 90400, Note_on_c, 0, 77, 71
1, 90420, Note_on_c, 0, 50, 42
1, 90464, Note_off_c, 0, 47, 45
1, 90494, Note_off_c, 0, 74, 49
1, 90708, Note_on_c, 0, 76, 72
1, 90714, Note_on_c, 0, 48, 49
1, 90716, Note_on_c, 0, 57, 48
1, 90754, Note_off_c, 0, 50, 41
1, 90786, Note_off_c, 0, 77, 50
1, 90887, Note_off_c, 0, 56, 47
1, 91024, Note_on_c, 0, 71, 72
1, 91026, Note_off_c, 0, 76, 64
1, 91275, Note_on_c, 0, 72, 68
1, 91284, Note_on_c, 0, 52, 47
1, 91302, Note_off_c, 0, 71, 51
1, 91540, Note_on_c, 0, 68, 68
1, 91573, Note_off_c, 0, 72, 38
1, 91786, Note_on_c, 0, 69, 63
1, 91805, Note_on_c, 0, 53, 38
1, 91813, Note_off_c, 0, 68, 60
1, 91925, Note_off_c, 0, 57, 42
1, 91927, Note_off_c, 0, 48, 51
1, 91935, Note_off_c, 0, 52, 40
1, 92048, Note_off_c, 0, 69, 63
1, 92051, Note_on_c, 0, 62, 63
1, 92289, Note_off_c, 0, 62, 55
1, 92295, Note_on_c, 0, 61, 60
1, 92304, Note_on_c, 0, 57, 39
1, 92541, Note_off_c, 0, 61, 63
1, 92551, Note_on_c, 0, 62, 60
1, 92770, Note_off_c, 0, 62, 57
1, 92798, Note_on_c, 0, 52, 38
1, 92810, Note_on_c, 0, 64, 48
1, 92813, Note_off_c, 0, 53, 43
1, 92850, Note_off_c, 0, 64, 61
1, 92868, Note_on_c, 0, 62, 52
1, 92919, Note_off_c, 0, 62, 62
1, 92947, Note_on_c, 0, 64, 54
1, 92983, Note_off_c, 0, 64, 64
1, 92995, Note_off_c, 0, 57, 25
1, 92998, Note_on_c, 0, 62, 54
1, 93050, Note_off_c, 0, 62, 63
1, 93066, Note_on_c, 0, 56, 43
1, 93075, Note_on_c, 0, 64, 55
1, 93120, Note_off_c, 0, 64, 61
1, 93125, Note_on_c, 0, 62, 58
1, 93190, Note_off_c, 0, 62, 63
1, 93206, Note_on_c, 0, 61, 59
1, 93269, Note_off_c, 0, 61, 62
1, 93275, Note_on_c, 0, 62, 62
1, 93277, Note_on_c, 0, 54, 44
1, 93296, Note_off_c, 0, 56, 42
1, 93530, Note_off_c, 0, 54, 59
1, 93551, Note_on_c, 0, 57, 45
1, 93806, Note_on_c, 0, 56, 51
1, 93856, Note_off_c, 0, 57, 54
1, 94060, Note_on_c, 0, 59, 56
1, 94063, Note_off_c, 0, 56, 59
1, 94313, Note_on_c, 0, 57, 54
1, 94355, Note_off_c, 0, 59, 45
1, 94580, Note_off_c, 0, 57, 61
1, 94586, Note_on_c, 0, 60, 61
1, 94616, Note_off_c, 0, 52, 50
1, 94923, Note_on_c, 0, 52, 37
1, 94931, Note_on_c, 0, 56, 44
1, 94932, Note_on_c, 0, 59, 48
1, 95102, Note_off_c, 0, 60, 51
1, 95245, Note_on_c, 0, 65, 54
1, 95293, Note_off_c, 0, 62, 40
1, 95518, Note_on_c, 0, 64, 59
1, 95563, Note_off_c, 0, 65, 64
1, 95679, Note_off_c, 0, 56, 0
1, 95761, Note_off_c, 0, 64, 63
1, 95773, Note_on_c, 0, 62, 66
1, 95931, Note_off_c, 0, 52, 44
1, 95952, Poly_aftertouch_c, 0, 56, 0
1, 96024, Note_off_c, 0, 59, 41
1, 96045, Note_on_c, 0, 71, 65
1, 96093, Note_off_c, 0, 62, 38
1, 96295, Note_on_c, 0, 68, 69
1, 96351, Note_off_c, 0, 71, 62
1, 96557, Note_on_c, 0, 69, 69
1, 96569, Note_on_c, 0, 56, 52
1, 96570, Note_on_c, 0, 50, 44
1, 96595, Note_off_c, 0, 68, 60
1, 96801, Note_on_c, 0, 71, 69
1, 96813, Note_off_c, 0, 69, 57
1, 96851, Control_c, 0, 64, 17
1, 96865, Control_c, 0, 64, 23
1, 96880, Control_c, 0, 64, 26
1, 96895, Control_c, 0, 64, 27
1, 96935, Note_off_c, 0, 56, 61
1, 96939, Control_c, 0, 64, 26
1, 96954, Control_c, 0, 64, 26
1, 96969, Control_c, 0, 64, 25
1, 96998, Control_c, 0, 64, 25
1, 97013, Control_c, 0, 64, 24
1, 97028, Control_c, 0, 64, 22
1, 97043, Control_c, 0, 64, 19
1, 97058, Control_c, 0, 64, 14
1, 97073, Control_c, 0, 64, 0
1, 97078, Note_on_c, 0, 64, 67
1, 97085, Note_on_c, 0, 57, 48
1, 97089, Note_on_c, 0, 48, 50
1, 97115, Note_off_c, 0, 71, 39
1, 97176, Note_off_c, 0, 50, 37
1, 97354, Note_on_c, 0, 72, 75
1, 97382, Control_c, 0, 64, 18
1, 97397, Note_off_c, 0, 64, 42
1, 97397, Control_c, 0, 64, 24
1, 97412, Control_c, 0, 64, 27
1, 97427, Control_c, 0, 64, 30
1, 97442, Control_c, 0, 64, 31
1, 97442, Note_off_c, 0, 57, 48
1, 97486, Control_c, 0, 64, 31
1, 97508, Control_c, 0, 64, 30
1, 97523, Control_c, 0, 64, 30
1, 97554, Control_c, 0, 64, 29
1, 97568, Control_c, 0, 64, 29
1, 97583, Control_c, 0, 64, 28
1, 97598, Control_c, 0, 64, 27
1, 97612, Control_c, 0, 64, 25
1, 97627, Control_c, 0, 64, 22
1, 97638, Note_on_c, 0, 71, 72
1, 97642, Control_c, 0, 64, 16
1, 97651, Note_on_c, 0, 50, 49
1, 97651, Note_on_c, 0, 59, 50
1, 97657, Control_c, 0, 64, 0
1, 97685, Note_off_c, 0, 72, 58
1, 97733, Note_off_c, 0, 48, 44
1, 97913, Note_on_c, 0, 69, 71
1, 97949, Note_off_c, 0, 71, 64
1, 98043, Control_c, 0, 64, 20
1, 98044, Note_off_c, 0, 59, 55
1, 98058, Control_c, 0, 64, 35
1, 98073, Control_c, 0, 64, 46
1, 98087, Control_c, 0, 64, 55
1, 98102, Control_c, 0, 64, 59
1, 98117, Control_c, 0, 64, 59
1, 98131, Control_c, 0, 64, 60
1, 98146, Control_c, 0, 64, 61
1, 98161, Control_c, 0, 64, 62
1, 98182, Note_off_c, 0, 69, 60
1, 98258, Control_c, 0, 64, 61
1, 98287, Control_c, 0, 64, 61
1, 98290, Note_on_c, 0, 69, 73
1, 98299, Note_on_c, 0, 60, 49
1, 98302, Control_c, 0, 64, 60
1, 98304, Note_on_c, 0, 52, 45
1, 98317, Control_c, 0, 64, 58
1, 98333, Control_c, 0, 64, 55
1, 98348, Control_c, 0, 64, 52
1, 98362, Control_c, 0, 64, 46
1, 98377, Control_c, 0, 64, 38
1, 98392, Control_c, 0, 64, 27
1, 98393, Note_off_c, 0, 50, 36
1, 98407, Control_c, 0, 64, 0
1, 98975, Note_off_c, 0, 69, 61
1, 98989, Note_on_c, 0, 59, 35
1, 99016, Note_on_c, 0, 68, 53
1, 99086, Note_off_c, 0, 68, 60
1, 99092, Note_off_c, 0, 60, 51
1, 99097, Note_on_c, 0, 69, 63
1, 99171, Note_on_c, 0, 68, 62
1, 99195, Note_off_c, 0, 69, 62
1, 99708, Note_on_c, 0, 69, 51
1, 99713, Note_off_c, 0, 68, 55
1, 100279, Note_on_c, 0, 81, 52
1, 100292, Note_on_c, 0, 53, 34
1, 100355, Note_off_c, 0, 69, 27
1, 100432, Note_off_c, 0, 59, 39
1, 100437, Note_off_c, 0, 52, 39
1, 100713, Note_on_c, 0, 57, 35
1, 101052, Note_on_c, 0, 62, 40
1, 101215, Note_off_c, 0, 57, 39
1, 101347, Note_on_c, 0, 76, 47
1, 101434, Note_off_c, 0, 81, 41
1, 101601, Note_on_c, 0, 77, 53
1, 101615, Note_off_c, 0, 76, 51
1, 101848, Note_off_c, 0, 77, 61
1, 101860, Note_on_c, 0, 73, 55
1, 102114, Note_on_c, 0, 74, 56
1, 102116, Note_off_c, 0, 73, 57
1, 102130, Note_on_c, 0, 59, 39
1, 102139, Note_on_c, 0, 50, 26
1, 102246, Note_off_c, 0, 62, 37
1, 102292, Note_off_c, 0, 53, 40
1, 102366, Note_off_c, 0, 74, 60
1, 102382, Note_on_c, 0, 77, 59
1, 102632, Note_on_c, 0, 68, 48
1, 102636, Note_on_c, 0, 74, 54
1, 102648, Note_on_c, 0, 52, 41
1, 102680, Note_off_c, 0, 77, 33
1, 102716, Note_off_c, 0, 50, 42
1, 102870, Control_c, 0, 64, 25
1, 102871, Note_off_c, 0, 68, 42
1, 102884, Control_c, 0, 64, 34
1, 102886, Note_off_c, 0, 59, 43
1, 102899, Control_c, 0, 64, 42
1, 102903, Note_on_c, 0, 71, 62
1, 102909, Note_off_c, 0, 52, 63
1, 102914, Control_c, 0, 64, 49
1, 102928, Control_c, 0, 64, 52
1, 102943, Control_c, 0, 64, 53
1, 102958, Control_c, 0, 64, 54
1, 102973, Control_c, 0, 64, 55
1, 102988, Control_c, 0, 64, 56
1, 103002, Control_c, 0, 64, 56
1, 103076, Control_c, 0, 64, 56
1, 103106, Control_c, 0, 64, 55
1, 103121, Control_c, 0, 64, 55
1, 103137, Control_c, 0, 64, 54
1, 103151, Control_c, 0, 64, 51
1, 103166, Control_c, 0, 64, 45
1, 103171, Note_off_c, 0, 71, 34
1, 103176, Note_on_c, 0, 72, 60
1, 103181, Note_on_c, 0, 45, 42
1, 103181, Control_c, 0, 64, 33
1, 103184, Note_on_c, 0, 57, 32
1, 103187, Note_on_c, 0, 64, 40
1, 103196, Control_c, 0, 64, 0
1, 103307, Note_off_c, 0, 74, 34
1, 103433, Control_c, 0, 64, 26
1, 103444, Note_off_c, 0, 45, 46
1, 103448, Control_c, 0, 64, 37
1, 103463, Control_c, 0, 64, 47
1, 103466, Note_on_c, 0, 69, 58
1, 103477, Control_c, 0, 64, 55
1, 103492, Control_c, 0, 64, 59
1, 103516, Note_off_c, 0, 72, 47
1, 103517, Note_off_c, 0, 57, 40
1, 103529, Control_c, 0, 64, 60
1, 103544, Control_c, 0, 64, 60
1, 103550, Note_off_c, 0, 64, 24
1, 103559, Control_c, 0, 64, 61
1, 103620, Note_off_c, 0, 69, 56
1, 103722, Control_c, 0, 64, 60
1, 103751, Control_c, 0, 64, 60
1, 103766, Control_c, 0, 64, 59
1, 103781, Control_c, 0, 64, 56
1, 103796, Control_c, 0, 64, 49
1, 103800, Note_on_c, 0, 69, 55
1, 103808, Note_on_c, 0, 64, 44
1, 103811, Control_c, 0, 64, 37
1, 103816, Note_on_c, 0, 52, 36
1, 103821, Note_on_c, 0, 60, 33
1, 103825, Control_c, 0, 64, 18
1, 103840, Control_c, 0, 64, 0
1, 104004, Control_c, 0, 64, 8
1, 104019, Control_c, 0, 64, 21
1, 104034, Control_c, 0, 64, 32
1, 104048, Control_c, 0, 64, 42
1, 104063, Control_c, 0, 64, 53
1, 104078, Note_off_c, 0, 64, 41
1, 104078, Control_c, 0, 64, 59
1, 104093, Control_c, 0, 64, 60
1, 104123, Control_c, 0, 64, 61
1, 104137, Control_c, 0, 64, 62
1, 104152, Control_c, 0, 64, 63
1, 104167, Control_c, 0, 64, 63
1, 104240, Note_off_c, 0, 69, 34
1, 104441, Control_c, 0, 64, 63
1, 104456, Note_on_c, 0, 68, 50
1, 104456, Control_c, 0, 64, 62
1, 104459, Note_on_c, 0, 59, 37
1, 104471, Control_c, 0, 64, 59
1, 104486, Control_c, 0, 64, 53
1, 104500, Note_on_c, 0, 62, 13
1, 104500, Control_c, 0, 64, 41
1, 104507, Note_off_c, 0, 68, 58
1, 104513, Note_off_c, 0, 60, 45
1, 104515, Control_c, 0, 64, 20
1, 104530, Control_c, 0, 64, 0
1, 104535, Note_on_c, 0, 69, 56
1, 104617, Note_on_c, 0, 68, 57
1, 104653, Note_off_c, 0, 69, 60
1, 105233, Note_on_c, 0, 69, 56
1, 105255, Note_off_c, 0, 68, 52
1, 105264, Control_c, 0, 64, 19
1, 105279, Control_c, 0, 64, 26
1, 105294, Control_c, 0, 64, 30
1, 105309, Control_c, 0, 64, 34
1, 105324, Control_c, 0, 64, 36
1, 105330, Note_off_c, 0, 59, 22
1, 105339, Control_c, 0, 64, 39
1, 105354, Control_c, 0, 64, 42
1, 105369, Control_c, 0, 64, 46
1, 105383, Control_c, 0, 64, 50
1, 105398, Control_c, 0, 64, 55
1, 105413, Control_c, 0, 64, 57
1, 105428, Control_c, 0, 64, 59
1, 105443, Control_c, 0, 64, 60
1, 105487, Note_off_c, 0, 69, 37
1, 105561, Control_c, 0, 64, 59
1, 105576, Control_c, 0, 64, 58
1, 105591, Control_c, 0, 64, 56
1, 105598, Note_on_c, 0, 69, 59
1, 105606, Control_c, 0, 64, 54
1, 105615, Note_on_c, 0, 57, 38
1, 105618, Note_on_c, 0, 45, 42
1, 105620, Control_c, 0, 64, 50
1, 105635, Control_c, 0, 64, 45
1, 105637, Note_off_c, 0, 52, 34
1, 105650, Control_c, 0, 64, 40
1, 105664, Control_c, 0, 64, 34
1, 105679, Control_c, 0, 64, 27
1, 105694, Control_c, 0, 64, 22
1, 105709, Control_c, 0, 64, 18
1, 105724, Control_c, 0, 64, 15
1, 105746, Control_c, 0, 64, 10
1, 105761, Control_c, 0, 64, 0
1, 105902, Note_on_c, 0, 64, 50
1, 105953, Note_off_c, 0, 62, 37
1, 106208, Note_off_c, 0, 64, 55
1, 106217, Note_on_c, 0, 65, 52
1, 106353, Note_on_c, 0, 64, 50
1, 106403, Note_off_c, 0, 65, 53
1, 106509, Note_off_c, 0, 64, 59
1, 106513, Note_on_c, 0, 62, 53
1, 106801, Note_off_c, 0, 62, 56
1, 106825, Note_on_c, 0, 64, 45
1, 107121, Note_off_c, 0, 64, 61
1, 107145, Note_on_c, 0, 61, 45
1, 107509, Note_on_c, 0, 68, 45
1, 107512, Note_on_c, 0, 62, 37
1, 107621, Note_off_c, 0, 69, 43
1, 107633, Note_off_c, 0, 61, 59
1, 107889, Note_off_c, 0, 62, 44
1, 107906, Note_on_c, 0, 59, 29
1, 108453, Note_on_c, 0, 69, 47
1, 108456, Note_on_c, 0, 64, 31
1, 108680, Note_off_c, 0, 68, 40
1, 108722, Note_off_c, 0, 59, 38
1, 109612, Note_on_c, 0, 61, 27
1, 110297, Control_c, 0, 64, 9
1, 110312, Control_c, 0, 64, 18
1, 110328, Control_c, 0, 64, 27
1, 110342, Control_c, 0, 64, 33
1, 110357, Control_c, 0, 64, 39
1, 110372, Control_c, 0, 64, 47
1, 110387, Control_c, 0, 64, 52
1, 110402, Control_c, 0, 64, 55
1, 110416, Control_c, 0, 64, 57
1, 110431, Control_c, 0, 64, 59
1, 110446, Control_c, 0, 64, 61
1, 110460, Control_c, 0, 64, 62
1, 110475, Control_c, 0, 64, 63
1, 110661, Note_off_c, 0, 69, 26
1, 110740, Note_off_c, 0, 61, 41
1, 110742, Control_c, 0, 64, 62
1, 110782, Note_off_c, 0, 64, 28
1, 110802, Control_c, 0, 64, 62
1, 110846, Control_c, 0, 64, 61
1, 110890, Control_c, 0, 64, 61
1, 110920, Control_c, 0, 64, 60
1, 110934, Control_c, 0, 64, 60
1, 110949, Control_c, 0, 64, 59
1, 110964, Control_c, 0, 64, 58
1, 110979, Control_c, 0, 64, 58
1, 111002, Control_c, 0, 64, 57
1, 111031, Control_c, 0, 64, 56
1, 111046, Control_c, 0, 64, 56
1, 111061, Control_c, 0, 64, 55
1, 111074, Note_off_c, 0, 57, 29
1, 111075, Control_c, 0, 64, 54
1, 111090, Control_c, 0, 64, 53
1, 111105, Control_c, 0, 64, 52
1, 111151, Control_c, 0, 64, 52
1, 111165, Control_c, 0, 64, 51
1, 111180, Control_c, 0, 64, 49
1, 111195, Control_c, 0, 64, 47
1, 111210, Control_c, 0, 64, 45
1, 111269, Control_c, 0, 64, 45
1, 111283, Control_c, 0, 64, 44
1, 111287, Note_off_c, 0, 45, 27
1, 111298, Control_c, 0, 64, 42
1, 111313, Control_c, 0, 64, 40
1, 111328, Control_c, 0, 64, 38
1, 111343, Control_c, 0, 64, 37
1, 111357, Control_c, 0, 64, 35
1, 111372, Control_c, 0, 64, 33
1, 111387, Control_c, 0, 64, 31
1, 111402, Control_c, 0, 64, 30
1, 111417, Control_c, 0, 64, 30
1, 111447, Control_c, 0, 64, 29
1, 111462, Control_c, 0, 64, 29
1, 111476, Control_c, 0, 64, 28
1, 111491, Control_c, 0, 64, 26
1, 111506, Control_c, 0, 64, 23
1, 111521, Control_c, 0, 64, 19
1, 111536, Control_c, 0, 64, 15
1, 111551, Control_c, 0, 64, 8
1, 111565, Control_c, 0, 64, 0
1, 112151, Control_c, 0, 64, 14
1, 112153, Note_on_c, 0, 77, 37
1, 112166, Control_c, 0, 64, 25
1, 112180, Control_c, 0, 64, 35
1, 112195, Control_c, 0, 64, 42
1, 112210, Control_c, 0, 64, 50
1, 112225, Control_c, 0, 64, 55
1, 112240, Control_c, 0, 64, 58
1, 112254, Control_c, 0, 64, 60
1, 112269, Control_c, 0, 64, 61
1, 112284, Control_c, 0, 64, 63
1, 112299, Control_c, 0, 64, 63
1, 112312, Note_off_c, 0, 77, 37
1, 112329, Control_c, 0, 64, 64
1, 112388, Control_c, 0, 64, 63
1, 112529, Control_c, 0, 64, 63
1, 112543, Note_on_c, 0, 76, 38
1, 112558, Control_c, 0, 64, 62
1, 112573, Control_c, 0, 64, 62
1, 112575, Note_off_c, 0, 76, 52
1, 112588, Control_c, 0, 64, 61
1, 112596, Note_on_c, 0, 77, 48
1, 112603, Control_c, 0, 64, 60
1, 112618, Control_c, 0, 64, 57
1, 112633, Control_c, 0, 64, 51
1, 112647, Control_c, 0, 64, 42
1, 112648, Note_on_c, 0, 76, 44
1, 112662, Control_c, 0, 64, 31
1, 112677, Control_c, 0, 64, 22
1, 112692, Control_c, 0, 64, 14
1, 112707, Control_c, 0, 64, 0
1, 112734, Note_off_c, 0, 77, 39
1, 113185, Note_on_c, 0, 74, 40
1, 113205, Note_off_c, 0, 76, 34
1, 113520, Note_on_c, 0, 57, 20
1, 113543, Note_on_c, 0, 76, 44
1, 113584, Note_off_c, 0, 74, 36
1, 113605, Note_off_c, 0, 76, 0
1, 113605, Note_on_c, 0, 76, 10
1, 113793, Note_on_c, 0, 71, 42
1, 114027, Note_on_c, 0, 73, 41
1, 114029, Note_off_c, 0, 71, 49
1, 114033, Note_on_c, 0, 64, 34
1, 114254, Note_on_c, 0, 68, 46
1, 114445, Note_off_c, 0, 73, 38
1, 114466, Note_off_c, 0, 68, 50
1, 114471, Note_off_c, 0, 76, 48
1, 114472, Note_on_c, 0, 61, 31
1, 114495, Note_on_c, 0, 69, 36
1, 114568, Note_off_c, 0, 57, 41
1, 114720, Note_on_c, 0, 73, 35
1, 114964, Note_on_c, 0, 57, 31
1, 114985, Note_on_c, 0, 76, 41
1, 115049, Note_off_c, 0, 76, 0
1, 115049, Note_on_c, 0, 76, 5
1, 115162, Note_off_c, 0, 73, 34
1, 115226, Note_off_c, 0, 61, 47
1, 115228, Note_on_c, 0, 79, 49
1, 115236, Control_c, 0, 64, 14
1, 115251, Control_c, 0, 64, 26
1, 115257, Note_off_c, 0, 76, 45
1, 115260, Note_off_c, 0, 64, 19
1, 115265, Control_c, 0, 64, 34
1, 115280, Control_c, 0, 64, 41
1, 115295, Control_c, 0, 64, 48
1, 115306, Note_off_c, 0, 69, 28
1, 115310, Control_c, 0, 64, 53
1, 115325, Control_c, 0, 64, 57
1, 115340, Control_c, 0, 64, 60
1, 115355, Control_c, 0, 64, 61
1, 115369, Control_c, 0, 64, 62
1, 115384, Control_c, 0, 64, 63
1, 115452, Note_off_c, 0, 79, 39
1, 115525, Control_c, 0, 64, 62
1, 115526, Note_off_c, 0, 57, 36
1, 115560, Note_on_c, 0, 50, 21
1, 115564, Note_on_c, 0, 62, 29
1, 115569, Control_c, 0, 64, 62
1, 115629, Control_c, 0, 64, 61
1, 115644, Control_c, 0, 64, 60
1, 115653, Note_on_c, 0, 81, 46
1, 115658, Control_c, 0, 64, 59
1, 115667, Note_on_c, 0, 69, 26
1, 115673, Control_c, 0, 64, 58
1, 115688, Control_c, 0, 64, 54
1, 115703, Control_c, 0, 64, 48
1, 115718, Control_c, 0, 64, 37
1, 115727, Note_off_c, 0, 81, 60
1, 115732, Control_c, 0, 64, 28
1, 115747, Control_c, 0, 64, 24
1, 115762, Control_c, 0, 64, 22
1, 115763, Note_on_c, 0, 79, 46
1, 115777, Control_c, 0, 64, 20
1, 115791, Control_c, 0, 64, 17
1, 115806, Control_c, 0, 64, 9
1, 115816, Note_off_c, 0, 79, 53
1, 115821, Control_c, 0, 64, 0
1, 115850, Note_on_c, 0, 81, 54
1, 115933, Note_on_c, 0, 79, 55
1, 115945, Note_off_c, 0, 81, 37
1, 116386, Note_on_c, 0, 77, 38
1, 116508, Note_off_c, 0, 79, 28
1, 116630, Note_on_c, 0, 60, 37
1, 116643, Note_off_c, 0, 62, 44
1, 116878, Note_off_c, 0, 77, 41
1, 116914, Note_on_c, 0, 59, 27
1, 117000, Note_off_c, 0, 60, 41
1, 117158, Note_on_c, 0, 76, 48
1, 117407, Note_off_c, 0, 69, 21
1, 117419, Note_on_c, 0, 74, 36
1, 117420, Note_on_c, 0, 57, 36
1, 117497, Note_off_c, 0, 76, 23
1, 117547, Note_off_c, 0, 59, 41
1, 117670, Note_on_c, 0, 72, 55
1, 117758, Note_off_c, 0, 74, 37
1, 117930, Note_on_c, 0, 71, 56
1, 117932, Note_on_c, 0, 55, 38
1, 117942, Note_off_c, 0, 72, 56
1, 118095, Note_off_c, 0, 57, 35
1, 118182, Note_on_c, 0, 72, 63
1, 118201, Note_off_c, 0, 71, 51
1, 118207, Note_off_c, 0, 50, 37
1, 118413, Note_off_c, 0, 72, 58
1, 118414, Note_on_c, 0, 74, 59
1, 118449, Note_on_c, 0, 59, 32
1, 118672, Note_on_c, 0, 67, 65
1, 118729, Note_off_c, 0, 74, 35
1, 118914, Note_off_c, 0, 67, 64
1, 118927, Note_on_c, 0, 62, 46
1, 118933, Note_on_c, 0, 65, 63
1, 119019, Note_off_c, 0, 59, 37
1, 119027, Note_off_c, 0, 55, 43
1, 119175, Note_on_c, 0, 71, 59
1, 119194, Note_off_c, 0, 65, 49
1, 119429, Note_on_c, 0, 55, 40
1, 119429, Note_on_c, 0, 74, 51
1, 119457, Note_off_c, 0, 71, 59
1, 119661, Note_off_c, 0, 62, 36
1, 119670, Note_off_c, 0, 74, 58
1, 119701, Note_on_c, 0, 77, 56
1, 119713, Control_c, 0, 64, 12
1, 119728, Control_c, 0, 64, 19
1, 119742, Control_c, 0, 64, 27
1, 119757, Control_c, 0, 64, 32
1, 119772, Control_c, 0, 64, 38
1, 119787, Control_c, 0, 64, 44
1, 119802, Control_c, 0, 64, 49
1, 119817, Control_c, 0, 64, 53
1, 119831, Control_c, 0, 64, 56
1, 119846, Control_c, 0, 64, 58
1, 119861, Control_c, 0, 64, 58
1, 119876, Control_c, 0, 64, 59
1, 119902, Note_off_c, 0, 77, 30
1, 119951, Control_c, 0, 64, 58
1, 120017, Control_c, 0, 64, 58
1, 120032, Control_c, 0, 64, 57
1, 120061, Control_c, 0, 64, 57
1, 120082, Note_on_c, 0, 60, 36
1, 120091, Control_c, 0, 64, 56
1, 120097, Note_on_c, 0, 79, 51
1, 120098, Note_off_c, 0, 55, 36
1, 120099, Note_on_c, 0, 48, 44
1, 120106, Control_c, 0, 64, 55
1, 120110, Note_on_c, 0, 67, 36
1, 120121, Control_c, 0, 64, 52
1, 120136, Control_c, 0, 64, 48
1, 120151, Control_c, 0, 64, 43
1, 120151, Note_off_c, 0, 79, 0
1, 120151, Note_on_c, 0, 79, 20
1, 120166, Control_c, 0, 64, 37
1, 120180, Control_c, 0, 64, 32
1, 120195, Control_c, 0, 64, 27
1, 120210, Control_c, 0, 64, 20
1, 120225, Control_c, 0, 64, 0
1, 120408, Note_on_c, 0, 77, 40
1, 120449, Note_off_c, 0, 79, 38
1, 120699, Note_on_c, 0, 76, 41
1, 120902, Note_off_c, 0, 77, 34
1, 120944, Note_on_c, 0, 58, 45
1, 120947, Note_off_c, 0, 60, 43
1, 121191, Note_off_c, 0, 76, 48
1, 121208, Note_on_c, 0, 57, 43
1, 121268, Note_off_c, 0, 58, 36
1, 121418, Note_off_c, 0, 67, 36
1, 121472, Note_on_c, 0, 77, 52
1, 121725, Note_on_c, 0, 65, 45
1, 121725, Note_on_c, 0, 72, 56
1, 121781, Note_off_c, 0, 77, 41
1, 121981, Note_on_c, 0, 76, 61
1, 122028, Note_off_c, 0, 72, 60
1, 122244, Note_on_c, 0, 74, 58
1, 122249, Note_on_c, 0, 58, 50
1, 122292, Note_off_c, 0, 76, 56
1, 122293, Note_off_c, 0, 57, 36
1, 122327, Note_off_c, 0, 48, 44
1, 122334, Note_off_c, 0, 65, 36
1, 122502, Note_on_c, 0, 65, 65
1, 122503, Note_off_c, 0, 74, 64
1, 122747, Note_on_c, 0, 64, 59
1, 122760, Note_on_c, 0, 50, 41
1, 122762, Note_off_c, 0, 65, 51
1, 123005, Note_off_c, 0, 64, 63
1, 123008, Note_on_c, 0, 65, 62
1, 123301, Note_on_c, 0, 70, 59
1, 123311, Note_on_c, 0, 67, 45
1, 123317, Note_on_c, 0, 52, 33
1, 123323, Note_on_c, 0, 60, 33
1, 123423, Note_off_c, 0, 50, 41
1, 123425, Note_off_c, 0, 65, 36
1, 123484, Note_off_c, 0, 58, 36
1, 123837, Note_on_c, 0, 69, 62
1, 123839, Note_on_c, 0, 65, 35
1, 123859, Note_on_c, 0, 53, 38
1, 123862, Note_off_c, 0, 52, 41
1, 123862, Note_off_c, 0, 67, 38
1, 123888, Note_off_c, 0, 70, 59
1, 124072, Control_c, 0, 64, 21
1, 124087, Control_c, 0, 64, 33
1, 124101, Control_c, 0, 64, 42
1, 124116, Control_c, 0, 64, 52
1, 124128, Note_off_c, 0, 69, 61
1, 124131, Control_c, 0, 64, 59
1, 124145, Control_c, 0, 64, 62
1, 124160, Control_c, 0, 64, 63
1, 124175, Control_c, 0, 64, 65
1, 124186, Note_off_c, 0, 65, 44
1, 124190, Control_c, 0, 64, 66
1, 124205, Control_c, 0, 64, 67
1, 124220, Control_c, 0, 64, 68
1, 124235, Control_c, 0, 64, 68
1, 124324, Control_c, 0, 64, 68
1, 124353, Control_c, 0, 64, 67
1, 124383, Control_c, 0, 64, 67
1, 124398, Control_c, 0, 64, 66
1, 124420, Note_on_c, 0, 69, 61
1, 124427, Control_c, 0, 64, 66
1, 124442, Control_c, 0, 64, 65
1, 124443, Note_on_c, 0, 65, 36
1, 124449, Note_on_c, 0, 48, 43
1, 124457, Control_c, 0, 64, 65
1, 124479, Control_c, 0, 64, 64
1, 124494, Control_c, 0, 64, 62
1, 124509, Control_c, 0, 64, 59
1, 124524, Control_c, 0, 64, 53
1, 124539, Control_c, 0, 64, 41
1, 124542, Note_off_c, 0, 60, 41
1, 124546, Note_off_c, 0, 53, 32
1, 124553, Control_c, 0, 64, 16
1, 124568, Control_c, 0, 64, 0
1, 124706, Note_on_c, 0, 60, 38
1, 124965, Note_on_c, 0, 67, 44
1, 124966, Note_on_c, 0, 58, 38
1, 124978, Note_on_c, 0, 64, 33
1, 124995, Note_off_c, 0, 60, 30
1, 125033, Note_off_c, 0, 65, 42
1, 125090, Note_off_c, 0, 69, 37
1, 125202, Note_off_c, 0, 58, 43
1, 125244, Note_on_c, 0, 60, 31
1, 125474, Note_on_c, 0, 57, 37
1, 125516, Note_off_c, 0, 60, 39
1, 125518, Note_off_c, 0, 67, 48
1, 125621, Note_off_c, 0, 64, 32
1, 125718, Note_off_c, 0, 57, 51
1, 125738, Note_on_c, 0, 60, 41
1, 125997, Note_on_c, 0, 72, 46
1, 126011, Note_on_c, 0, 53, 30
1, 126199, Control_c, 0, 64, 18
1, 126214, Control_c, 0, 64, 28
1, 126229, Control_c, 0, 64, 36
1, 126244, Control_c, 0, 64, 45
1, 126247, Note_on_c, 0, 57, 30
1, 126259, Control_c, 0, 64, 51
1, 126274, Control_c, 0, 64, 55
1, 126289, Control_c, 0, 64, 57
1, 126298, Note_off_c, 0, 48, 43
1, 126304, Control_c, 0, 64, 59
1, 126315, Note_off_c, 0, 53, 47
1, 126319, Control_c, 0, 64, 60
1, 126321, Note_off_c, 0, 57, 60
1, 126324, Note_off_c, 0, 60, 41
1, 126334, Control_c, 0, 64, 61
1, 126467, Control_c, 0, 64, 61
1, 126481, Note_on_c, 0, 46, 47
1, 126482, Control_c, 0, 64, 60
1, 126496, Control_c, 0, 64, 60
1, 126511, Control_c, 0, 64, 58
1, 126526, Control_c, 0, 64, 56
1, 126540, Control_c, 0, 64, 51
1, 126555, Control_c, 0, 64, 41
1, 126570, Control_c, 0, 64, 29
1, 126585, Control_c, 0, 64, 17
1, 126600, Control_c, 0, 64, 0
1, 126748, Note_on_c, 0, 74, 48
1, 126749, Note_off_c, 0, 72, 50
1, 127002, Note_on_c, 0, 58, 35
1, 127010, Note_off_c, 0, 74, 38
1, 127014, Note_on_c, 0, 62, 48
1, 127233, Note_off_c, 0, 62, 54
1, 127263, Note_on_c, 0, 64, 45
1, 127446, Note_on_c, 0, 48, 39
1, 127518, Note_off_c, 0, 64, 56
1, 127557, Note_on_c, 0, 65, 45
1, 127565, Note_off_c, 0, 58, 38
1, 127594, Note_off_c, 0, 46, 33
1, 127614, Note_off_c, 0, 65, 61
1, 127651, Note_on_c, 0, 64, 37
1, 127695, Note_off_c, 0, 64, 47
1, 127707, Note_on_c, 0, 65, 47
1, 127794, Note_off_c, 0, 65, 60
1, 127796, Note_on_c, 0, 64, 47
1, 127842, Note_off_c, 0, 64, 60
1, 127862, Note_on_c, 0, 62, 51
1, 127920, Note_off_c, 0, 62, 58
1, 127948, Note_on_c, 0, 64, 54
1, 127958, Note_on_c, 0, 57, 29
1, 128234, Note_on_c, 0, 76, 56
1, 128403, Note_off_c, 0, 64, 37
1, 128477, Note_on_c, 0, 50, 42
1, 128535, Note_off_c, 0, 48, 45
1, 128724, Note_on_c, 0, 77, 62
1, 128751, Note_off_c, 0, 57, 41
1, 128768, Note_off_c, 0, 76, 60
1, 129000, Note_on_c, 0, 65, 64
1, 129010, Note_on_c, 0, 62, 45
1, 129022, Note_off_c, 0, 77, 52
1, 129240, Note_on_c, 0, 67, 70
1, 129252, Note_off_c, 0, 65, 57
1, 129442, Note_on_c, 0, 52, 38
1, 129476, Note_off_c, 0, 62, 32
1, 129522, Note_off_c, 0, 67, 61
1, 129527, Note_off_c, 0, 50, 40
1, 129541, Note_on_c, 0, 69, 57
1, 129624, Note_off_c, 0, 69, 62
1, 129638, Note_on_c, 0, 67, 60
1, 129699, Note_off_c, 0, 67, 64
1, 129715, Note_on_c, 0, 69, 60
1, 129785, Note_on_c, 0, 67, 62
1, 129811, Note_off_c, 0, 69, 63
1, 129859, Note_off_c, 0, 67, 64
1, 129860, Note_on_c, 0, 65, 65
1, 129943, Note_off_c, 0, 65, 64
1, 129950, Note_on_c, 0, 67, 66
1, 129954, Note_on_c, 0, 60, 50
1, 130224, Note_on_c, 0, 79, 73
1, 130325, Note_off_c, 0, 67, 45
1, 130528, Note_on_c, 0, 69, 72
1, 130543, Note_on_c, 0, 53, 43
1, 130635, Note_off_c, 0, 79, 40
1, 130664, Note_off_c, 0, 52, 42
1, 130859, Note_on_c, 0, 81, 76
1, 130969, Note_off_c, 0, 69, 32
1, 131169, Note_on_c, 0, 79, 71
1, 131182, Note_on_c, 0, 57, 46
1, 131237, Note_off_c, 0, 81, 56
1, 131329, Note_off_c, 0, 60, 55
1, 131460, Note_on_c, 0, 77, 74
1, 131505, Note_off_c, 0, 79, 59
1, 131720, Note_on_c, 0, 55, 47
1, 131721, Note_on_c, 0, 58, 49
1, 131732, Note_off_c, 0, 57, 49
1, 131831, Note_off_c, 0, 53, 47
1, 132000, Note_on_c, 0, 76, 73
1, 132043, Note_off_c, 0, 77, 55
1, 132256, Note_on_c, 0, 67, 57
1, 132261, Note_on_c, 0, 77, 76
1, 132293, Note_off_c, 0, 76, 64
1, 132374, Note_off_c, 0, 58, 58
1, 132537, Note_on_c, 0, 74, 71
1, 132537, Note_off_c, 0, 77, 61
1, 132665, Control_c, 0, 64, 18
1, 132680, Control_c, 0, 64, 30
1, 132702, Control_c, 0, 64, 38
1, 132717, Control_c, 0, 64, 45
1, 132732, Control_c, 0, 64, 51
1, 132747, Control_c, 0, 64, 54
1, 132762, Control_c, 0, 64, 55
1, 132798, Note_off_c, 0, 74, 60
1, 132821, Control_c, 0, 64, 54
1, 132828, Note_off_c, 0, 67, 36
1, 132836, Control_c, 0, 64, 54
1, 132851, Control_c, 0, 64, 53
1, 132865, Control_c, 0, 64, 52
1, 132879, Note_on_c, 0, 57, 39
1, 132880, Control_c, 0, 64, 52
1, 132895, Control_c, 0, 64, 51
1, 132897, Note_on_c, 0, 74, 71
1, 132909, Control_c, 0, 64, 50
1, 132924, Control_c, 0, 64, 49
1, 132939, Control_c, 0, 64, 48
1, 132954, Control_c, 0, 64, 46
1, 132969, Control_c, 0, 64, 44
1, 132981, Note_off_c, 0, 55, 43
1, 132984, Control_c, 0, 64, 41
1, 132999, Control_c, 0, 64, 37
1, 133013, Control_c, 0, 64, 33
1, 133028, Control_c, 0, 64, 28
1, 133043, Control_c, 0, 64, 22
1, 133058, Control_c, 0, 64, 16
1, 133073, Control_c, 0, 64, 8
1, 133088, Control_c, 0, 64, 0
1, 133248, Note_on_c, 0, 72, 69
1, 133288, Note_off_c, 0, 74, 62
1, 133523, Note_on_c, 0, 45, 51
1, 133529, Note_on_c, 0, 60, 60
1, 133794, Note_on_c, 0, 64, 64
1, 133860, Note_off_c, 0, 60, 34
1, 133896, Control_c, 0, 64, 15
1, 133911, Control_c, 0, 64, 25
1, 133926, Control_c, 0, 64, 31
1, 133940, Control_c, 0, 64, 36
1, 133955, Control_c, 0, 64, 41
1, 133970, Control_c, 0, 64, 45
1, 133975, Note_off_c, 0, 64, 61
1, 133985, Control_c, 0, 64, 47
1, 134014, Control_c, 0, 64, 46
1, 134029, Control_c, 0, 64, 45
1, 134044, Control_c, 0, 64, 42
1, 134045, Note_on_c, 0, 64, 63
1, 134047, Note_on_c, 0, 46, 51
1, 134058, Control_c, 0, 64, 36
1, 134073, Control_c, 0, 64, 19
1, 134088, Control_c, 0, 64, 0
1, 134101, Note_off_c, 0, 45, 52
1, 134152, Note_off_c, 0, 57, 35
1, 134314, Note_on_c, 0, 62, 64
1, 134315, Note_off_c, 0, 64, 60
1, 134363, Control_c, 0, 64, 9
1, 134378, Control_c, 0, 64, 22
1, 134393, Control_c, 0, 64, 29
1, 134408, Control_c, 0, 64, 33
1, 134423, Control_c, 0, 64, 37
1, 134437, Control_c, 0, 64, 40
1, 134452, Control_c, 0, 64, 43
1, 134467, Control_c, 0, 64, 43
1, 134497, Note_off_c, 0, 62, 59
1, 134511, Control_c, 0, 64, 43
1, 134526, Control_c, 0, 64, 42
1, 134541, Control_c, 0, 64, 41
1, 134555, Control_c, 0, 64, 38
1, 134570, Control_c, 0, 64, 32
1, 134572, Note_on_c, 0, 70, 72
1, 134578, Note_on_c, 0, 62, 64
1, 134583, Note_on_c, 0, 55, 57
1, 134585, Control_c, 0, 64, 18
1, 134600, Control_c, 0, 64, 0
1, 134684, Note_off_c, 0, 72, 38
1, 134823, Note_on_c, 0, 65, 72
1, 134836, Control_c, 0, 64, 17
1, 134851, Control_c, 0, 64, 27
1, 134866, Control_c, 0, 64, 34
1, 134880, Control_c, 0, 64, 39
1, 134895, Control_c, 0, 64, 43
1, 134910, Control_c, 0, 64, 45
1, 134913, Note_off_c, 0, 62, 0
1, 134925, Control_c, 0, 64, 46
1, 134962, Control_c, 0, 64, 45
1, 134977, Control_c, 0, 64, 45
1, 134990, Poly_aftertouch_c, 0, 62, 0
1, 134992, Control_c, 0, 64, 44
1, 135007, Control_c, 0, 64, 44
1, 135008, Note_off_c, 0, 65, 62
1, 135022, Control_c, 0, 64, 42
1, 135036, Control_c, 0, 64, 37
1, 135051, Control_c, 0, 64, 28
1, 135066, Control_c, 0, 64, 0
1, 135085, Note_on_c, 0, 65, 66
1, 135100, Note_on_c, 0, 48, 53
1, 135151, Note_off_c, 0, 46, 53
1, 135172, Note_off_c, 0, 55, 41
1, 135340, Note_off_c, 0, 65, 64
1, 135344, Note_on_c, 0, 64, 68
1, 135363, Control_c, 0, 64, 12
1, 135377, Control_c, 0, 64, 15
1, 135392, Control_c, 0, 64, 17
1, 135526, Control_c, 0, 64, 16
1, 135541, Control_c, 0, 64, 14
1, 135556, Control_c, 0, 64, 11
1, 135570, Control_c, 0, 64, 0
1, 135598, Note_on_c, 0, 69, 72
1, 135601, Note_on_c, 0, 65, 67
1, 135605, Note_on_c, 0, 41, 49
1, 135610, Note_on_c, 0, 53, 47
1, 135637, Note_off_c, 0, 70, 59
1, 135648, Note_off_c, 0, 64, 53
1, 135701, Note_off_c, 0, 48, 34
1, 135860, Note_on_c, 0, 70, 74
1, 135891, Note_off_c, 0, 69, 63
1, 136125, Note_off_c, 0, 53, 37
1, 136133, Note_on_c, 0, 69, 74
1, 136137, Note_on_c, 0, 48, 52
1, 136155, Note_off_c, 0, 70, 58
1, 136248, Note_off_c, 0, 41, 45
1, 136412, Note_on_c, 0, 67, 76
1, 136446, Note_off_c, 0, 69, 62
1, 136464, Note_off_c, 0, 65, 55
1, 136713, Note_on_c, 0, 69, 72
1, 136715, Note_on_c, 0, 64, 63
1, 136725, Note_on_c, 0, 36, 46
1, 136768, Note_off_c, 0, 67, 56
1, 136809, Note_off_c, 0, 48, 45
1, 137023, Note_on_c, 0, 70, 75
1, 137053, Note_off_c, 0, 69, 62
1, 137097, Control_c, 0, 64, 25
1, 137098, Note_off_c, 0, 36, 55
1, 137112, Control_c, 0, 64, 38
1, 137127, Control_c, 0, 64, 50
1, 137141, Control_c, 0, 64, 58
1, 137156, Control_c, 0, 64, 61
1, 137171, Control_c, 0, 64, 61
1, 137186, Control_c, 0, 64, 63
1, 137208, Control_c, 0, 64, 64
1, 137222, Control_c, 0, 64, 66
1, 137237, Control_c, 0, 64, 67
1, 137294, Note_off_c, 0, 70, 55
1, 137445, Control_c, 0, 64, 66
1, 137453, Note_on_c, 0, 70, 78
1, 137454, Note_on_c, 0, 65, 67
1, 137460, Note_on_c, 0, 41, 55
1, 137460, Control_c, 0, 64, 65
1, 137467, Note_on_c, 0, 53, 52
1, 137476, Control_c, 0, 64, 64
1, 137491, Control_c, 0, 64, 63
1, 137505, Control_c, 0, 64, 61
1, 137520, Control_c, 0, 64, 57
1, 137535, Control_c, 0, 64, 51
1, 137550, Control_c, 0, 64, 39
1, 137565, Control_c, 0, 64, 18
1, 137572, Note_off_c, 0, 64, 39
1, 137579, Control_c, 0, 64, 0
1, 137910, Note_on_c, 0, 69, 74
1, 138001, Note_off_c, 0, 70, 51
1, 138214, Note_on_c, 0, 67, 73
1, 138258, Note_off_c, 0, 65, 58
1, 138275, Note_off_c, 0, 69, 59
1, 138483, Note_on_c, 0, 65, 75
1, 138490, Note_off_c, 0, 67, 63
1, 138618, Note_off_c, 0, 41, 36
1, 138730, Note_off_c, 0, 53, 51
1, 138761, Note_on_c, 0, 75, 73
1, 138890, Note_off_c, 0, 65, 38
1, 139029, Note_on_c, 0, 57, 64
1, 139291, Note_on_c, 0, 60, 71
1, 139346, Note_off_c, 0, 57, 61
1, 139542, Note_on_c, 0, 63, 73
1, 139552, Note_off_c, 0, 60, 63
1, 139815, Note_on_c, 0, 54, 61
1, 139920, Note_off_c, 0, 63, 44
1, 140118, Note_on_c, 0, 74, 59
1, 140137, Note_off_c, 0, 75, 61
1, 140404, Note_on_c, 0, 81, 69
1, 140412, Note_on_c, 0, 57, 42
1, 140472, Note_off_c, 0, 74, 47
1, 140661, Note_on_c, 0, 74, 70
1, 140681, Note_off_c, 0, 81, 57
1, 140752, Control_c, 0, 64, 25
1, 140767, Control_c, 0, 64, 38
1, 140782, Control_c, 0, 64, 47
1, 140797, Control_c, 0, 64, 54
1, 140811, Control_c, 0, 64, 57
1, 140826, Control_c, 0, 64, 58
1, 140842, Note_off_c, 0, 74, 61
1, 140886, Control_c, 0, 64, 57
1, 140901, Control_c, 0, 64, 55
1, 140915, Control_c, 0, 64, 54
1, 140926, Note_on_c, 0, 62, 52
1, 140930, Control_c, 0, 64, 53
1, 140943, Note_on_c, 0, 74, 62
1, 140952, Control_c, 0, 64, 52
1, 140967, Control_c, 0, 64, 50
1, 140982, Control_c, 0, 64, 48
1, 140996, Control_c, 0, 64, 46
1, 141011, Control_c, 0, 64, 42
1, 141026, Control_c, 0, 64, 37
1, 141039, Note_off_c, 0, 54, 63
1, 141041, Control_c, 0, 64, 29
1, 141056, Control_c, 0, 64, 19
1, 141071, Control_c, 0, 64, 12
1, 141086, Control_c, 0, 64, 0
1, 141185, Note_on_c, 0, 72, 66
1, 141228, Note_off_c, 0, 74, 63
1, 141399, Note_on_c, 0, 54, 40
1, 141452, Note_off_c, 0, 72, 60
1, 141471, Note_on_c, 0, 70, 49
1, 141526, Note_off_c, 0, 70, 56
1, 141557, Note_on_c, 0, 72, 50
1, 141584, Note_off_c, 0, 57, 30
1, 141636, Note_on_c, 0, 70, 58
1, 141658, Note_off_c, 0, 72, 53
1, 141736, Note_on_c, 0, 69, 63
1, 141737, Note_off_c, 0, 70, 60
1, 141941, Note_on_c, 0, 55, 38
1, 141995, Note_off_c, 0, 69, 56
1, 142004, Note_on_c, 0, 72, 56
1, 142047, Note_off_c, 0, 54, 43
1, 142095, Note_on_c, 0, 70, 56
1, 142159, Note_off_c, 0, 70, 63
1, 142163, Note_on_c, 0, 69, 65
1, 142230, Note_off_c, 0, 69, 65
1, 142236, Note_on_c, 0, 70, 70
1, 142246, Note_off_c, 0, 72, 39
1, 142505, Note_on_c, 0, 82, 74
1, 142629, Note_off_c, 0, 62, 44
1, 142658, Control_c, 0, 64, 12
1, 142673, Control_c, 0, 64, 28
1, 142687, Control_c, 0, 64, 39
1, 142702, Control_c, 0, 64, 47
1, 142714, Note_off_c, 0, 82, 63
1, 142717, Control_c, 0, 64, 53
1, 142732, Control_c, 0, 64, 55
1, 142776, Control_c, 0, 64, 54
1, 142791, Control_c, 0, 64, 53
1, 142806, Control_c, 0, 64, 52
1, 142815, Note_on_c, 0, 82, 83
1, 142821, Control_c, 0, 64, 51
1, 142823, Note_on_c, 0, 62, 59
1, 142836, Control_c, 0, 64, 49
1, 142850, Control_c, 0, 64, 47
1, 142865, Control_c, 0, 64, 41
1, 142880, Control_c, 0, 64, 33
1, 142895, Control_c, 0, 64, 18
1, 142910, Control_c, 0, 64, 0
1, 143064, Note_off_c, 0, 70, 54
1, 143104, Note_on_c, 0, 81, 82
1, 143147, Note_off_c, 0, 82, 60
1, 143163, Control_c, 0, 64, 14
1, 143178, Control_c, 0, 64, 24
1, 143199, Control_c, 0, 64, 29
1, 143214, Control_c, 0, 64, 33
1, 143229, Control_c, 0, 64, 37
1, 143244, Control_c, 0, 64, 40
1, 143259, Control_c, 0, 64, 43
1, 143274, Control_c, 0, 64, 43
1, 143304, Note_off_c, 0, 81, 61
1, 143333, Control_c, 0, 64, 43
1, 143348, Control_c, 0, 64, 42
1, 143363, Control_c, 0, 64, 41
1, 143366, Note_on_c, 0, 58, 47
1, 143374, Note_on_c, 0, 81, 81
1, 143378, Control_c, 0, 64, 38
1, 143392, Control_c, 0, 64, 33
1, 143407, Control_c, 0, 64, 27
1, 143422, Control_c, 0, 64, 15
1, 143436, Control_c, 0, 64, 0
1, 143491, Note_off_c, 0, 62, 55
1, 143639, Note_on_c, 0, 79, 79
1, 143688, Note_off_c, 0, 81, 55
1, 143718, Control_c, 0, 64, 18
1, 143733, Control_c, 0, 64, 32
1, 143748, Control_c, 0, 64, 39
1, 143762, Control_c, 0, 64, 45
1, 143777, Control_c, 0, 64, 49
1, 143792, Control_c, 0, 64, 50
1, 143807, Control_c, 0, 64, 50
1, 143822, Control_c, 0, 64, 49
1, 143835, Note_off_c, 0, 79, 60
1, 143836, Control_c, 0, 64, 48
1, 143851, Control_c, 0, 64, 47
1, 143882, Control_c, 0, 64, 46
1, 143897, Control_c, 0, 64, 45
1, 143901, Note_on_c, 0, 79, 81
1, 143903, Note_on_c, 0, 60, 53
1, 143903, Note_on_c, 0, 57, 46
1, 143912, Control_c, 0, 64, 42
1, 143927, Control_c, 0, 64, 38
1, 143943, Note_off_c, 0, 58, 50
1, 143948, Control_c, 0, 64, 31
1, 143963, Control_c, 0, 64, 22
1, 143978, Control_c, 0, 64, 8
1, 143993, Control_c, 0, 64, 0
1, 144026, Note_off_c, 0, 55, 50
1, 144168, Note_on_c, 0, 78, 79
1, 144194, Note_off_c, 0, 79, 60
1, 144479, Note_on_c, 0, 79, 67
1, 144489, Note_on_c, 0, 58, 47
1, 144492, Note_on_c, 0, 62, 40
1, 144546, Note_off_c, 0, 60, 51
1, 144550, Note_off_c, 0, 78, 61
1, 144615, Note_off_c, 0, 57, 35
1, 145024, Note_on_c, 0, 67, 52
1, 145283, Note_on_c, 0, 77, 61
1, 145325, Note_off_c, 0, 79, 31
1, 145378, Control_c, 0, 64, 18
1, 145393, Control_c, 0, 64, 27
1, 145408, Control_c, 0, 64, 33
1, 145423, Control_c, 0, 64, 39
1, 145445, Control_c, 0, 64, 44
1, 145461, Control_c, 0, 64, 47
1, 145472, Note_off_c, 0, 77, 60
1, 145476, Control_c, 0, 64, 48
1, 145506, Control_c, 0, 64, 47
1, 145535, Control_c, 0, 64, 47
1, 145548, Note_on_c, 0, 77, 62
1, 145565, Control_c, 0, 64, 46
1, 145580, Control_c, 0, 64, 44
1, 145594, Control_c, 0, 64, 42
1, 145609, Control_c, 0, 64, 36
1, 145624, Control_c, 0, 64, 26
1, 145638, Control_c, 0, 64, 0
1, 145800, Note_on_c, 0, 76, 69
1, 145831, Control_c, 0, 64, 22
1, 145844, Note_off_c, 0, 77, 56
1, 145846, Control_c, 0, 64, 31
1, 145861, Control_c, 0, 64, 37
1, 145876, Control_c, 0, 64, 44
1, 145891, Control_c, 0, 64, 48
1, 145891, Note_off_c, 0, 58, 55
1, 145906, Control_c, 0, 64, 49
1, 145950, Control_c, 0, 64, 49
1, 145966, Note_off_c, 0, 76, 63
1, 145979, Control_c, 0, 64, 48
1, 146009, Control_c, 0, 64, 47
1, 146024, Control_c, 0, 64, 45
1, 146038, Control_c, 0, 64, 42
1, 146048, Note_on_c, 0, 58, 45
1, 146053, Control_c, 0, 64, 36
1, 146055, Note_on_c, 0, 76, 66
1, 146068, Control_c, 0, 64, 28
1, 146083, Control_c, 0, 64, 18
1, 146098, Control_c, 0, 64, 0
1, 146146, Note_off_c, 0, 62, 45
1, 146326, Note_on_c, 0, 74, 60
1, 146344, Note_off_c, 0, 76, 59
1, 146476, Control_c, 0, 64, 12
1, 146491, Control_c, 0, 64, 17
1, 146499, Note_off_c, 0, 74, 63
1, 146506, Control_c, 0, 64, 18
1, 146550, Control_c, 0, 64, 17
1, 146565, Control_c, 0, 64, 15
1, 146579, Note_off_c, 0, 67, 0
1, 146580, Control_c, 0, 64, 11
1, 146583, Note_on_c, 0, 57, 39
1, 146594, Note_on_c, 0, 74, 51
1, 146594, Control_c, 0, 64, 0
1, 146608, Note_off_c, 0, 58, 36
1, 146616, Poly_aftertouch_c, 0, 67, 127
1, 146872, Note_on_c, 0, 73, 53
1, 146872, Note_off_c, 0, 74, 56
1, 146986, Poly_aftertouch_c, 0, 67, 0
1, 147037, Note_off_c, 0, 73, 49
1, 147159, Note_on_c, 0, 73, 55
1, 147163, Note_on_c, 0, 67, 50
1, 147431, Note_on_c, 0, 74, 52
1, 147468, Note_off_c, 0, 73, 53
1, 147644, Note_on_c, 0, 59, 32
1, 147721, Note_off_c, 0, 74, 59
1, 147740, Note_off_c, 0, 57, 43
1, 147743, Note_on_c, 0, 76, 50
1, 147843, Note_off_c, 0, 76, 61
1, 147854, Note_on_c, 0, 74, 51
1, 147927, Note_off_c, 0, 74, 62
1, 147957, Note_on_c, 0, 76, 57
1, 148049, Note_on_c, 0, 74, 61
1, 148060, Note_off_c, 0, 76, 56
1, 148086, Note_off_c, 0, 67, 41
1, 148190, Note_on_c, 0, 67, 66
1, 148469, Note_on_c, 0, 73, 60
1, 148474, Note_off_c, 0, 74, 59
1, 148595, Note_on_c, 0, 74, 64
1, 148650, Note_off_c, 0, 73, 52
1, 148793, Note_on_c, 0, 61, 39
1, 148797, Note_on_c, 0, 76, 68
1, 148806, Note_off_c, 0, 59, 42
1, 148854, Note_off_c, 0, 74, 58
1, 148942, Note_off_c, 0, 67, 53
1, 149072, Note_on_c, 0, 67, 68
1, 149378, Note_on_c, 0, 69, 68
1, 149379, Note_on_c, 0, 49, 46
1, 149420, Note_off_c, 0, 67, 58
1, 149646, Note_on_c, 0, 70, 65
1, 149691, Note_off_c, 0, 69, 59
1, 149901, Note_on_c, 0, 52, 36
1, 149917, Note_on_c, 0, 69, 62
1, 149979, Note_off_c, 0, 61, 45
1, 149988, Note_off_c, 0, 70, 54
1, 149988, Note_off_c, 0, 76, 35
1, 150186, Note_on_c, 0, 67, 63
1, 150203, Note_off_c, 0, 69, 61
1, 150444, Note_on_c, 0, 65, 62
1, 150449, Note_on_c, 0, 57, 36
1, 150479, Note_off_c, 0, 52, 43
1, 150479, Note_off_c, 0, 67, 36
1, 150728, Note_on_c, 0, 64, 56
1, 150751, Note_off_c, 0, 65, 57
1, 151006, Note_on_c, 0, 50, 38
1, 151016, Note_on_c, 0, 65, 55
1, 151016, Note_off_c, 0, 64, 56
1, 151093, Note_off_c, 0, 49, 36
1, 151151, Note_off_c, 0, 57, 39
1, 151309, Control_c, 0, 64, 16
1, 151323, Control_c, 0, 64, 29
1, 151338, Control_c, 0, 64, 37
1, 151353, Control_c, 0, 64, 43
1, 151367, Control_c, 0, 64, 49
1, 151382, Control_c, 0, 64, 51
1, 151397, Control_c, 0, 64, 51
1, 151412, Control_c, 0, 64, 51
1, 151435, Control_c, 0, 64, 50
1, 151445, Note_off_c, 0, 65, 56
1, 151450, Control_c, 0, 64, 48
1, 151464, Control_c, 0, 64, 47
1, 151479, Control_c, 0, 64, 46
1, 151494, Control_c, 0, 64, 46
1, 151509, Control_c, 0, 64, 45
1, 151524, Control_c, 0, 64, 44
1, 151538, Control_c, 0, 64, 42
1, 151540, Note_on_c, 0, 65, 52
1, 151552, Note_on_c, 0, 57, 38
1, 151553, Control_c, 0, 64, 39
1, 151568, Control_c, 0, 64, 33
1, 151582, Control_c, 0, 64, 26
1, 151597, Control_c, 0, 64, 16
1, 151612, Control_c, 0, 64, 0
1, 151654, Note_on_c, 0, 67, 56
1, 151663, Note_off_c, 0, 65, 56
1, 151768, Note_on_c, 0, 69, 64
1, 151772, Note_off_c, 0, 67, 62
1, 152007, Note_on_c, 0, 48, 36
1, 152077, Note_off_c, 0, 69, 55
1, 152080, Note_off_c, 0, 50, 41
1, 152088, Note_on_c, 0, 67, 50
1, 152151, Note_off_c, 0, 67, 62
1, 152184, Note_on_c, 0, 66, 52
1, 152229, Note_off_c, 0, 66, 62
1, 152243, Note_on_c, 0, 67, 55
1, 152301, Note_off_c, 0, 67, 63
1, 152320, Note_on_c, 0, 66, 54
1, 152333, Note_off_c, 0, 57, 36
1, 152354, Note_off_c, 0, 66, 60
1, 152366, Note_on_c, 0, 67, 47
1, 152433, Note_on_c, 0, 66, 63
1, 152434, Note_off_c, 0, 67, 63
1, 152622, Note_on_c, 0, 57, 41
1, 152838, Note_on_c, 0, 67, 70
1, 152838, Note_off_c, 0, 66, 58
1, 152977, Control_c, 0, 64, 8
1, 152992, Control_c, 0, 64, 22
1, 153007, Control_c, 0, 64, 30
1, 153021, Control_c, 0, 64, 35
1, 153036, Control_c, 0, 64, 39
1, 153051, Control_c, 0, 64, 41
1, 153066, Control_c, 0, 64, 42
1, 153084, Note_on_c, 0, 46, 41
1, 153084, Note_off_c, 0, 67, 59
1, 153096, Control_c, 0, 64, 41
1, 153111, Control_c, 0, 64, 41
1, 153141, Control_c, 0, 64, 40
1, 153155, Control_c, 0, 64, 40
1, 153170, Control_c, 0, 64, 38
1, 153170, Note_on_c, 0, 67, 71
1, 153185, Control_c, 0, 64, 35
1, 153197, Note_off_c, 0, 57, 40
1, 153200, Control_c, 0, 64, 29
1, 153211, Note_off_c, 0, 48, 40
1, 153215, Control_c, 0, 64, 18
1, 153229, Control_c, 0, 64, 0
1, 153462, Note_on_c, 0, 74, 67
1, 153540, Note_off_c, 0, 67, 38
1, 153736, Note_on_c, 0, 50, 40
1, 153977, Note_on_c, 0, 72, 66
1, 154075, Note_off_c, 0, 74, 40
1, 154249, Note_on_c, 0, 70, 62
1, 154250, Note_on_c, 0, 55, 40
1, 154294, Note_off_c, 0, 72, 56
1, 154394, Note_off_c, 0, 46, 45
1, 154516, Note_on_c, 0, 69, 58
1, 154542, Note_off_c, 0, 70, 58
1, 154792, Note_off_c, 0, 50, 33
1, 154792, Note_on_c, 0, 67, 54
1, 154798, Note_off_c, 0, 69, 59
1, 154800, Note_on_c, 0, 46, 38
1, 155060, Note_off_c, 0, 67, 56
1, 155072, Note_on_c, 0, 65, 54
1, 155398, Note_on_c, 0, 64, 42
1, 155412, Note_on_c, 0, 48, 36
1, 155427, Note_off_c, 0, 65, 35
1, 155501, Note_off_c, 0, 46, 46
1, 155558, Note_off_c, 0, 55, 42
1, 155742, Control_c, 0, 64, 15
1, 155757, Control_c, 0, 64, 27
1, 155772, Control_c, 0, 64, 35
1, 155787, Control_c, 0, 64, 40
1, 155802, Control_c, 0, 64, 45
1, 155816, Control_c, 0, 64, 47
1, 155831, Control_c, 0, 64, 48
1, 155847, Control_c, 0, 64, 47
1, 155862, Control_c, 0, 64, 47
1, 155877, Control_c, 0, 64, 46
1, 155892, Note_off_c, 0, 64, 35
1, 155892, Control_c, 0, 64, 46
1, 155943, Control_c, 0, 64, 45
1, 155958, Control_c, 0, 64, 44
1, 155968, Note_on_c, 0, 55, 35
1, 155972, Control_c, 0, 64, 42
1, 155987, Control_c, 0, 64, 41
1, 156002, Control_c, 0, 64, 38
1, 156008, Note_on_c, 0, 64, 44
1, 156017, Control_c, 0, 64, 36
1, 156032, Control_c, 0, 64, 33
1, 156047, Control_c, 0, 64, 28
1, 156062, Control_c, 0, 64, 19
1, 156077, Control_c, 0, 64, 0
1, 156232, Note_off_c, 0, 64, 52
1, 156250, Note_on_c, 0, 65, 50
1, 156449, Note_on_c, 0, 46, 36
1, 156521, Note_off_c, 0, 48, 34
1, 156525, Note_off_c, 0, 65, 59
1, 156558, Note_on_c, 0, 67, 49
1, 156619, Note_off_c, 0, 67, 59
1, 156634, Note_off_c, 0, 55, 35
1, 156658, Note_on_c, 0, 65, 49
1, 156705, Note_off_c, 0, 65, 56
1, 156732, Note_on_c, 0, 67, 54
1, 156808, Note_on_c, 0, 65, 47
1, 156837, Note_off_c, 0, 67, 54
1, 157025, Note_on_c, 0, 55, 37
1, 157225, Note_off_c, 0, 65, 61
1, 157254, Note_on_c, 0, 64, 46
1, 157332, Note_off_c, 0, 64, 56
1, 157347, Note_on_c, 0, 65, 49
1, 157435, Note_on_c, 0, 67, 52
1, 157472, Note_off_c, 0, 65, 37
1, 157624, Note_on_c, 0, 60, 52
1, 157627, Note_on_c, 0, 45, 35
1, 157648, Note_off_c, 0, 67, 37
1, 157719, Note_off_c, 0, 46, 33
1, 157950, Note_on_c, 0, 72, 56
1, 158075, Note_off_c, 0, 60, 35
1, 158243, Note_on_c, 0, 48, 39
1, 158381, Note_off_c, 0, 55, 40
1, 158490, Note_on_c, 0, 70, 60
1, 158574, Note_off_c, 0, 72, 37
1, 158768, Note_on_c, 0, 69, 57
1, 158774, Note_on_c, 0, 53, 36
1, 158847, Note_off_c, 0, 70, 37
1, 158921, Note_off_c, 0, 45, 46
1, 158921, Note_off_c, 0, 48, 42
1, 159047, Note_on_c, 0, 67, 56
1, 159063, Note_off_c, 0, 69, 55
1, 159311, Note_on_c, 0, 65, 51
1, 159316, Note_on_c, 0, 45, 37
1, 159328, Note_off_c, 0, 67, 50
1, 159552, Note_off_c, 0, 65, 57
1, 159576, Note_on_c, 0, 64, 46
1, 159883, Note_on_c, 0, 62, 42
1, 159906, Note_on_c, 0, 46, 33
1, 159916, Note_off_c, 0, 64, 33
1, 159958, Note_off_c, 0, 45, 43
1, 160019, Note_off_c, 0, 53, 43
1, 160131, Control_c, 0, 64, 14
1, 160146, Control_c, 0, 64, 25
1, 160161, Control_c, 0, 64, 32
1, 160176, Control_c, 0, 64, 39
1, 160191, Control_c, 0, 64, 44
1, 160205, Control_c, 0, 64, 47
1, 160220, Control_c, 0, 64, 48
1, 160250, Control_c, 0, 64, 47
1, 160295, Control_c, 0, 64, 47
1, 160307, Note_off_c, 0, 62, 39
1, 160324, Control_c, 0, 64, 46
1, 160339, Control_c, 0, 64, 45
1, 160354, Control_c, 0, 64, 44
1, 160369, Control_c, 0, 64, 43
1, 160384, Control_c, 0, 64, 43
1, 160399, Control_c, 0, 64, 42
1, 160420, Control_c, 0, 64, 40
1, 160435, Control_c, 0, 64, 36
1, 160450, Control_c, 0, 64, 30
1, 160456, Note_on_c, 0, 53, 27
1, 160461, Note_on_c, 0, 62, 46
1, 160465, Control_c, 0, 64, 20
1, 160480, Control_c, 0, 64, 9
1, 160494, Control_c, 0, 64, 0
1, 160694, Note_off_c, 0, 62, 51
1, 160704, Note_on_c, 0, 64, 44
1, 160918, Note_off_c, 0, 46, 40
1, 160921, Note_on_c, 0, 45, 38
1, 160996, Note_off_c, 0, 64, 52
1, 161033, Note_on_c, 0, 65, 46
1, 161094, Note_off_c, 0, 65, 61
1, 161128, Note_on_c, 0, 64, 43
1, 161130, Note_off_c, 0, 53, 42
1, 161201, Note_off_c, 0, 64, 40
1, 161212, Note_on_c, 0, 65, 44
1, 161283, Note_on_c, 0, 64, 34
1, 161296, Note_off_c, 0, 65, 58
1, 161488, Note_on_c, 0, 53, 30
1, 161699, Note_off_c, 0, 64, 54
1, 161720, Note_on_c, 0, 62, 46
1, 161794, Note_off_c, 0, 62, 53
1, 161814, Note_on_c, 0, 64, 45
1, 161909, Note_off_c, 0, 64, 60
1, 161915, Note_on_c, 0, 65, 49
1, 162158, Note_on_c, 0, 43, 26
1, 162165, Note_on_c, 0, 58, 36
1, 162193, Note_off_c, 0, 65, 40
1, 162289, Note_off_c, 0, 45, 16
1, 162526, Note_on_c, 0, 70, 44
1, 162753, Note_off_c, 0, 58, 41
1, 162822, Note_on_c, 0, 46, 29
1, 162966, Note_off_c, 0, 53, 42
1, 163076, Note_on_c, 0, 69, 46
1, 163149, Note_off_c, 0, 70, 41
1, 163350, Note_on_c, 0, 67, 50
1, 163354, Note_on_c, 0, 52, 39
1, 163440, Note_off_c, 0, 69, 32
1, 163514, Note_off_c, 0, 46, 41
1, 163548, Note_off_c, 0, 43, 44
1, 163641, Note_on_c, 0, 65, 45
1, 163668, Note_off_c, 0, 67, 37
1, 163875, Note_off_c, 0, 65, 56
1, 163894, Note_on_c, 0, 43, 34
1, 163903, Note_on_c, 0, 64, 41
1, 164181, Note_on_c, 0, 62, 46
1, 164240, Note_off_c, 0, 64, 32
1, 164460, Note_on_c, 0, 61, 43
1, 164477, Note_on_c, 0, 45, 32
1, 164525, Note_off_c, 0, 62, 31
1, 164604, Note_off_c, 0, 43, 42
1, 164715, Note_off_c, 0, 61, 50
1, 164723, Note_on_c, 0, 57, 39
1, 164972, Note_off_c, 0, 57, 51
1, 164984, Note_on_c, 0, 62, 51
1, 165206, Note_off_c, 0, 62, 63
1, 165246, Note_on_c, 0, 59, 44
1, 165491, Note_on_c, 0, 64, 51
1, 165547, Note_off_c, 0, 59, 26
1, 165711, Note_off_c, 0, 64, 61
1, 165729, Note_on_c, 0, 61, 52
1, 165988, Note_on_c, 0, 65, 57
1, 166035, Note_off_c, 0, 61, 58
1, 166233, Note_off_c, 0, 65, 64
1, 166245, Note_on_c, 0, 62, 52
1, 166256, Note_off_c, 0, 45, 43
1, 166540, Note_on_c, 0, 67, 52
1, 166555, Note_on_c, 0, 64, 31
1, 166557, Note_on_c, 0, 45, 38
1, 166778, Note_off_c, 0, 62, 36
1, 166813, Note_on_c, 0, 49, 47
1, 167058, Note_off_c, 0, 49, 49
1, 167058, Note_on_c, 0, 47, 49
1, 167330, Note_on_c, 0, 50, 55
1, 167441, Note_off_c, 0, 52, 41
1, 167587, Note_on_c, 0, 49, 61
1, 167602, Note_off_c, 0, 47, 44
1, 167649, Note_off_c, 0, 50, 50
1, 167863, Note_on_c, 0, 52, 63
1, 167887, Note_off_c, 0, 49, 59
1, 168100, Note_off_c, 0, 64, 40
1, 168123, Note_on_c, 0, 50, 58
1, 168158, Note_off_c, 0, 52, 58
1, 168386, Note_on_c, 0, 53, 59
1, 168478, Note_off_c, 0, 45, 43
1, 168719, Note_on_c, 0, 55, 55
1, 168725, Note_on_c, 0, 45, 46
1, 168741, Note_on_c, 0, 52, 52
1, 168817, Note_off_c, 0, 53, 38
1, 169044, Note_on_c, 0, 70, 53
1, 169281, Note_off_c, 0, 67, 13
1, 169310, Note_on_c, 0, 69, 69
1, 169395, Note_off_c, 0, 70, 51
1, 169401, Note_off_c, 0, 50, 1
1, 169571, Note_on_c, 0, 67, 71
1, 169575, Note_off_c, 0, 69, 64
1, 169832, Note_on_c, 0, 76, 71
1, 169874, Note_off_c, 0, 67, 54
1, 169896, Note_off_c, 0, 55, 51
1, 169900, Note_off_c, 0, 45, 45
1, 169952, Note_off_c, 0, 52, 55
1, 170092, Note_on_c, 0, 73, 75
1, 170145, Note_off_c, 0, 76, 61
1, 170355, Note_on_c, 0, 43, 53
1, 170358, Note_on_c, 0, 74, 72
1, 170370, Note_on_c, 0, 49, 56
1, 170405, Note_off_c, 0, 73, 60
1, 170619, Note_on_c, 0, 76, 78
1, 170629, Control_c, 0, 64, 17
1, 170634, Note_off_c, 0, 74, 60
1, 170644, Control_c, 0, 64, 23
1, 170659, Control_c, 0, 64, 27
1, 170673, Control_c, 0, 64, 30
1, 170688, Control_c, 0, 64, 32
1, 170733, Control_c, 0, 64, 31
1, 170747, Control_c, 0, 64, 30
1, 170806, Control_c, 0, 64, 30
1, 170821, Control_c, 0, 64, 29
1, 170836, Control_c, 0, 64, 28
1, 170838, Note_off_c, 0, 49, 33
1, 170851, Control_c, 0, 64, 27
1, 170865, Control_c, 0, 64, 26
1, 170880, Control_c, 0, 64, 24
1, 170903, Control_c, 0, 64, 21
1, 170918, Control_c, 0, 64, 16
1, 170920, Note_on_c, 0, 69, 74
1, 170922, Note_on_c, 0, 50, 58
1, 170931, Note_on_c, 0, 41, 56
1, 170933, Control_c, 0, 64, 0
1, 170985, Note_off_c, 0, 76, 57
1, 171047, Note_off_c, 0, 43, 36
1, 171170, Control_c, 0, 64, 11
1, 171185, Control_c, 0, 64, 18
1, 171200, Control_c, 0, 64, 20
1, 171208, Note_on_c, 0, 77, 82
1, 171214, Control_c, 0, 64, 20
1, 171237, Note_off_c, 0, 41, 60
1, 171258, Note_off_c, 0, 69, 56
1, 171407, Control_c, 0, 64, 20
1, 171422, Control_c, 0, 64, 19
1, 171437, Control_c, 0, 64, 16
1, 171452, Control_c, 0, 64, 12
1, 171467, Control_c, 0, 64, 0
1, 171481, Note_on_c, 0, 43, 65
1, 171485, Note_on_c, 0, 76, 74
1, 171531, Note_off_c, 0, 77, 54
1, 171767, Note_on_c, 0, 74, 72
1, 171821, Note_off_c, 0, 76, 56
1, 171903, Note_off_c, 0, 43, 56
1, 172075, Note_on_c, 0, 45, 65
1, 172075, Note_on_c, 0, 73, 78
1, 172117, Note_off_c, 0, 74, 61
1, 172361, Note_off_c, 0, 50, 48
1, 172697, Note_on_c, 0, 57, 74
1, 173019, Note_on_c, 0, 74, 73
1, 173110, Note_off_c, 0, 73, 55
1, 173395, Note_on_c, 0, 62, 74
1, 173403, Note_on_c, 0, 46, 63
1, 173498, Note_off_c, 0, 45, 59
1, 173742, Note_off_c, 0, 74, 35
1, 173820, Note_on_c, 0, 54, 68
1, 173927, Note_off_c, 0, 57, 42
1, 174160, Note_on_c, 0, 55, 64
1, 174231, Note_off_c, 0, 54, 54
1, 174439, Note_on_c, 0, 67, 70
1, 174530, Note_off_c, 0, 62, 55
1, 174713, Note_on_c, 0, 45, 52
1, 174713, Note_on_c, 0, 60, 66
1, 174834, Note_off_c, 0, 46, 44
1, 174906, Note_off_c, 0, 55, 35
1, 174986, Note_on_c, 0, 64, 69
1, 175026, Note_off_c, 0, 67, 63
1, 175247, Note_on_c, 0, 66, 70
1, 175256, Note_on_c, 0, 57, 49
1, 175307, Note_off_c, 0, 64, 58
1, 175518, Note_on_c, 0, 72, 75
1, 175578, Note_off_c, 0, 66, 61
1, 175599, Note_off_c, 0, 60, 61
1, 175781, Note_on_c, 0, 62, 59
1, 175795, Note_on_c, 0, 43, 52
1, 175883, Note_off_c, 0, 45, 49
1, 176072, Note_on_c, 0, 69, 74
1, 176103, Note_off_c, 0, 72, 61
1, 176120, Note_off_c, 0, 57, 20
1, 176359, Note_on_c, 0, 70, 75
1, 176362, Note_on_c, 0, 50, 54
1, 176428, Note_off_c, 0, 69, 62
1, 176638, Note_on_c, 0, 74, 72
1, 176677, Note_off_c, 0, 70, 61
1, 176932, Note_on_c, 0, 67, 72
1, 176936, Note_on_c, 0, 46, 51
1, 176976, Note_off_c, 0, 74, 63
1, 177071, Note_off_c, 0, 43, 37
1, 177244, Note_on_c, 0, 70, 72
1, 177272, Note_off_c, 0, 62, 42
1, 177546, Note_off_c, 0, 67, 12
1, 177547, Note_on_c, 0, 64, 72
1, 177548, Note_on_c, 0, 55, 56
1, 177576, Note_off_c, 0, 70, 59
1, 177700, Note_off_c, 0, 50, 56
1, 177868, Note_off_c, 0, 64, 63
1, 177869, Note_on_c, 0, 67, 73
1, 178188, Note_on_c, 0, 61, 69
1, 178206, Note_on_c, 0, 45, 50
1, 178240, Note_off_c, 0, 46, 61
1, 178253, Note_off_c, 0, 67, 57
1, 178505, Note_on_c, 0, 52, 59
1, 178813, Note_on_c, 0, 62, 70
1, 178822, Note_on_c, 0, 53, 51
1, 178843, Note_off_c, 0, 55, 36
1, 178851, Note_off_c, 0, 61, 64
1, 178893, Note_off_c, 0, 52, 53
1, 179141, Note_on_c, 0, 64, 72
1, 179154, Note_on_c, 0, 55, 57
1, 179174, Note_off_c, 0, 53, 64
1, 179178, Note_off_c, 0, 62, 62
1, 179593, Note_on_c, 0, 52, 41
1, 179593, Note_on_c, 0, 62, 64
1, 179687, Note_off_c, 0, 64, 56
1, 179799, Note_off_c, 0, 55, 38
1, 179832, Note_off_c, 0, 62, 62
1, 179848, Note_on_c, 0, 61, 56
1, 179931, Note_off_c, 0, 61, 65
1, 179949, Note_on_c, 0, 62, 62
1, 180016, Note_off_c, 0, 62, 63
1, 180029, Note_on_c, 0, 61, 57
1, 180076, Note_off_c, 0, 61, 65
1, 180091, Note_on_c, 0, 62, 55
1, 180154, Note_off_c, 0, 62, 64
1, 180160, Note_on_c, 0, 61, 57
1, 180216, Note_off_c, 0, 61, 62
1, 180224, Note_on_c, 0, 62, 56
1, 180300, Note_on_c, 0, 61, 64
1, 180341, Note_off_c, 0, 62, 57
1, 180398, Note_on_c, 0, 55, 63
1, 180924, Note_on_c, 0, 62, 67
1, 180959, Note_off_c, 0, 61, 60
1, 181098, Note_off_c, 0, 45, 0
1, 181098, Note_on_c, 0, 45, 6
1, 181230, Control_c, 0, 64, 10
1, 181244, Control_c, 0, 64, 22
1, 181257, Note_off_c, 0, 52, 22
1, 181259, Control_c, 0, 64, 29
1, 181274, Control_c, 0, 64, 36
1, 181289, Control_c, 0, 64, 44
1, 181304, Control_c, 0, 64, 50
1, 181319, Control_c, 0, 64, 54
1, 181333, Control_c, 0, 64, 55
1, 181348, Control_c, 0, 64, 57
1, 181363, Control_c, 0, 64, 58
1, 181385, Control_c, 0, 64, 59
1, 181401, Control_c, 0, 64, 60
1, 181435, Note_off_c, 0, 62, 24
1, 181683, Control_c, 0, 64, 59
1, 181727, Control_c, 0, 64, 59
1, 181742, Control_c, 0, 64, 58
1, 181756, Control_c, 0, 64, 58
1, 181765, Note_on_c, 0, 62, 63
1, 181771, Control_c, 0, 64, 57
1, 181777, Note_on_c, 0, 38, 43
1, 181781, Note_on_c, 0, 50, 38
1, 181786, Control_c, 0, 64, 57
1, 181801, Control_c, 0, 64, 56
1, 181816, Control_c, 0, 64, 54
1, 181830, Control_c, 0, 64, 51
1, 181845, Control_c, 0, 64, 47
1, 181860, Control_c, 0, 64, 41
1, 181875, Control_c, 0, 64, 34
1, 181890, Control_c, 0, 64, 31
1, 181902, Note_off_c, 0, 45, 38
1, 181904, Control_c, 0, 64, 26
1, 181919, Control_c, 0, 64, 19
1, 181934, Control_c, 0, 64, 0
1, 182104, Note_on_c, 0, 57, 54
1, 182160, Note_off_c, 0, 55, 43
1, 182449, Note_on_c, 0, 58, 60
1, 182461, Note_off_c, 0, 57, 56
1, 182598, Note_on_c, 0, 57, 57
1, 182622, Note_off_c, 0, 58, 60
1, 182768, Note_off_c, 0, 57, 61
1, 182776, Note_on_c, 0, 55, 57
1, 183122, Note_on_c, 0, 57, 51
1, 183154, Note_off_c, 0, 55, 37
1, 183477, Note_off_c, 0, 57, 58
1, 183489, Note_on_c, 0, 53, 45
1, 183916, Note_on_c, 0, 61, 51
1, 183924, Note_on_c, 0, 55, 42
1, 184073, Note_off_c, 0, 62, 34
1, 184100, Note_off_c, 0, 53, 37
1, 184400, Note_on_c, 0, 52, 39
1, 184404, Note_off_c, 0, 55, 45
1, 185134, Note_on_c, 0, 57, 34
1, 185136, Note_on_c, 0, 62, 37
1, 185412, Note_off_c, 0, 61, 36
1, 185426, Note_off_c, 0, 52, 41
1, 185546, Note_off_c, 0, 57, 0
1, 185583, Poly_aftertouch_c, 0, 57, 127
1, 186554, Note_on_c, 0, 53, 22
1, 189776, Note_off_c, 0, 53, 12
1, 189958, Note_off_c, 0, 50, 1
1, 189976, Note_off_c, 0, 62, 4
1, 190050, Poly_aftertouch_c, 0, 57, 0
1, 190080, Note_off_c, 0, 38, 21
1, 192985, Note_on_c, 0, 49, 71
1, 192990, Note_on_c, 0, 69, 93
1, 193016, Note_off_c, 0, 69, 67
1, 193016, Note_off_c, 0, 49, 66
1, 193138, Note_on_c, 0, 65, 99
1, 193149, Note_on_c, 0, 50, 72
1, 193300, Note_on_c, 0, 53, 65
1, 193332, Note_off_c, 0, 50, 62
1, 193360, Note_off_c, 0, 53, 64
1, 193455, Note_on_c, 0, 57, 77
1, 193597, Note_on_c, 0, 48, 65
1, 193602, Note_on_c, 0, 64, 83
1, 193605, Note_off_c, 0, 65, 64
1, 193622, Note_off_c, 0, 48, 66
1, 193641, Note_off_c, 0, 64, 61
1, 193738, Note_on_c, 0, 46, 70
1, 193738, Note_on_c, 0, 62, 81
1, 193771, Note_off_c, 0, 62, 62
1, 193804, Note_off_c, 0, 57, 46
1, 193878, Note_on_c, 0, 74, 90
1, 193879, Note_on_c, 0, 55, 66
1, 193892, Note_off_c, 0, 46, 42
1, 193906, Note_off_c, 0, 55, 68
1, 193915, Note_off_c, 0, 74, 68
1, 194012, Note_on_c, 0, 73, 91
1, 194024, Note_on_c, 0, 57, 82
1, 194026, Note_on_c, 0, 45, 78
1, 194065, Note_off_c, 0, 57, 56
1, 194171, Note_on_c, 0, 52, 69
1, 194244, Note_off_c, 0, 52, 47
1, 194289, Note_off_c, 0, 45, 62
1, 194321, Note_on_c, 0, 57, 79
1, 194456, Note_on_c, 0, 55, 63
1, 194459, Note_on_c, 0, 71, 83
1, 194471, Note_off_c, 0, 73, 57
1, 194489, Note_off_c, 0, 57, 55
1, 194582, Note_off_c, 0, 71, 63
1, 194596, Note_on_c, 0, 69, 80
1, 194597, Note_off_c, 0, 55, 57
1, 194603, Note_on_c, 0, 53, 66
1, 194617, Note_off_c, 0, 69, 71
1, 194736, Note_on_c, 0, 81, 101
1, 194737, Note_on_c, 0, 52, 64
1, 194740, Note_on_c, 0, 61, 61
1, 194766, Note_off_c, 0, 52, 68
1, 194766, Note_off_c, 0, 61, 69
1, 194769, Note_off_c, 0, 53, 36
1, 194773, Note_off_c, 0, 81, 66
1, 194886, Note_on_c, 0, 79, 98
1, 194893, Note_on_c, 0, 62, 88
1, 194894, Note_on_c, 0, 50, 82
1, 195036, Note_on_c, 0, 77, 93
1, 195063, Note_off_c, 0, 79, 60
1, 195184, Note_on_c, 0, 76, 85
1, 195198, Note_off_c, 0, 77, 53
1, 195233, Note_off_c, 0, 62, 49
1, 195314, Note_off_c, 0, 50, 59
1, 195314, Note_off_c, 0, 76, 63
1, 195321, Note_on_c, 0, 74, 85
1, 195328, Note_on_c, 0, 53, 63
1, 195412, Note_off_c, 0, 74, 61
1, 195463, Note_on_c, 0, 72, 79
1, 195474, Note_on_c, 0, 52, 68
1, 195481, Note_off_c, 0, 53, 58
1, 195592, Note_off_c, 0, 52, 66
1, 195594, Note_on_c, 0, 70, 80
1, 195619, Note_on_c, 0, 55, 67
1, 195622, Note_off_c, 0, 72, 62
1, 195650, Note_off_c, 0, 55, 66
1, 195756, Note_on_c, 0, 49, 73
1, 195758, Note_on_c, 0, 64, 67
1, 195760, Note_on_c, 0, 69, 77
1, 195777, Note_off_c, 0, 70, 64
1, 195785, Note_off_c, 0, 49, 68
1, 195899, Note_on_c, 0, 52, 83
1, 195924, Note_off_c, 0, 52, 70
1, 195928, Note_off_c, 0, 64, 0
1, 195931, Note_on_c, 0, 65, 53
1, 195946, Note_on_c, 0, 64, 42
1, 195997, Note_off_c, 0, 65, 41
1, 196046, Note_off_c, 0, 64, 39
1, 196051, Note_on_c, 0, 61, 82
1, 196052, Note_on_c, 0, 45, 89
1, 196185, Note_on_c, 0, 67, 81
1, 196263, Note_off_c, 0, 69, 38
1, 196338, Note_on_c, 0, 65, 73
1, 196371, Note_off_c, 0, 67, 56
1, 196416, Note_off_c, 0, 61, 49
1, 196484, Note_on_c, 0, 64, 75
1, 196489, Note_off_c, 0, 45, 63
1, 196492, Note_off_c, 0, 65, 57
1, 196493, Note_on_c, 0, 49, 71
1, 196501, Note_on_c, 0, 61, 24
1, 196521, Note_off_c, 0, 49, 68
1, 196562, Note_off_c, 0, 61, 45
1, 196632, Note_on_c, 0, 65, 78
1, 196638, Note_off_c, 0, 64, 57
1, 196642, Note_on_c, 0, 57, 74
1, 196650, Note_on_c, 0, 50, 63
1, 196677, Note_off_c, 0, 50, 66
1, 196775, Note_off_c, 0, 57, 0
1, 196775, Note_on_c, 0, 57, 16
1, 196790, Note_on_c, 0, 53, 65
1, 196819, Note_off_c, 0, 53, 67
1, 196937, Note_on_c, 0, 60, 82
1, 196945, Note_on_c, 0, 45, 65
1, 196973, Note_off_c, 0, 65, 56
1, 197090, Note_on_c, 0, 65, 68
1, 197231, Note_on_c, 0, 67, 72
1, 197243, Note_off_c, 0, 65, 59
1, 197246, Note_off_c, 0, 45, 64
1, 197376, Note_on_c, 0, 69, 70
1, 197376, Note_off_c, 0, 67, 57
1, 197380, Note_on_c, 0, 45, 53
1, 197446, Note_off_c, 0, 57, 36
1, 197502, Note_off_c, 0, 45, 57
1, 197514, Note_off_c, 0, 69, 58
1, 197515, Note_off_c, 0, 60, 41
1, 197530, Note_on_c, 0, 46, 47
1, 197533, Note_on_c, 0, 62, 53
1, 197672, Note_on_c, 0, 50, 52
1, 197821, Note_on_c, 0, 53, 57
1, 197857, Note_off_c, 0, 62, 59
1, 197935, Note_off_c, 0, 53, 56
1, 197980, Note_on_c, 0, 62, 66
1, 198128, Note_on_c, 0, 55, 61
1, 198132, Note_on_c, 0, 48, 54
1, 198132, Note_on_c, 0, 64, 62
1, 198136, Note_off_c, 0, 62, 45
1, 198140, Note_off_c, 0, 50, 36
1, 198163, Note_off_c, 0, 55, 62
1, 198276, Note_off_c, 0, 64, 58
1, 198279, Note_on_c, 0, 65, 69
1, 198350, Note_off_c, 0, 46, 45
1, 198394, Note_off_c, 0, 65, 66
1, 198417, Note_on_c, 0, 45, 54
1, 198420, Note_on_c, 0, 60, 69
1, 198420, Note_off_c, 0, 48, 57
1, 198430, Note_on_c, 0, 53, 54
1, 198446, Note_off_c, 0, 60, 69
1, 198561, Note_on_c, 0, 74, 71
1, 198584, Note_off_c, 0, 74, 68
1, 198714, Note_on_c, 0, 72, 63
1, 198716, Note_on_c, 0, 43, 53
1, 198734, Note_off_c, 0, 45, 35
1, 198742, Note_off_c, 0, 72, 66
1, 198759, Note_on_c, 0, 70, 65
1, 198790, Note_off_c, 0, 70, 65
1, 198795, Note_off_c, 0, 53, 44
1, 198809, Note_on_c, 0, 72, 67
1, 198856, Note_on_c, 0, 70, 74
1, 198883, Note_off_c, 0, 72, 64
1, 198885, Note_on_c, 0, 50, 52
1, 198989, Note_off_c, 0, 50, 61
1, 198999, Note_on_c, 0, 52, 65
1, 199126, Note_off_c, 0, 43, 60
1, 199129, Note_off_c, 0, 52, 37
1, 199145, Note_on_c, 0, 69, 72
1, 199145, Note_off_c, 0, 70, 62
1, 199152, Note_on_c, 0, 48, 57
1, 199170, Note_off_c, 0, 69, 68
1, 199279, Note_off_c, 0, 48, 61
1, 199307, Note_on_c, 0, 41, 54
1, 199308, Note_on_c, 0, 53, 53
1, 199310, Note_on_c, 0, 69, 70
1, 199461, Note_on_c, 0, 60, 63
1, 199495, Note_off_c, 0, 60, 62
1, 199550, Note_off_c, 0, 41, 62
1, 199559, Note_off_c, 0, 53, 62
1, 199600, Note_on_c, 0, 65, 76
1, 199641, Note_off_c, 0, 69, 62
1, 199761, Note_on_c, 0, 69, 86
1, 199907, Note_on_c, 0, 53, 64
1, 199908, Note_on_c, 0, 57, 71
1, 199908, Note_on_c, 0, 74, 81
1, 199911, Note_off_c, 0, 69, 61
1, 200055, Note_on_c, 0, 69, 86
1, 200060, Note_off_c, 0, 74, 61
1, 200170, Note_off_c, 0, 57, 61
1, 200202, Note_on_c, 0, 67, 83
1, 200203, Note_on_c, 0, 59, 58
1, 200226, Note_off_c, 0, 69, 59
1, 200233, Note_off_c, 0, 65, 44
1, 200280, Note_off_c, 0, 53, 61
1, 200313, Note_off_c, 0, 59, 63
1, 200360, Note_on_c, 0, 62, 62
1, 200397, Note_off_c, 0, 67, 61
1, 200404, Note_off_c, 0, 62, 61
1, 200481, Note_on_c, 0, 61, 61
1, 200486, Note_on_c, 0, 52, 48
1, 200510, Note_off_c, 0, 61, 66
1, 200521, Note_on_c, 0, 62, 72
1, 200546, Note_off_c, 0, 62, 67
1, 200564, Note_on_c, 0, 61, 70
1, 200627, Note_on_c, 0, 67, 79
1, 200788, Note_on_c, 0, 76, 89
1, 200807, Note_off_c, 0, 61, 61
1, 200822, Note_off_c, 0, 67, 60
1, 200909, Note_off_c, 0, 52, 66
1, 200932, Note_on_c, 0, 67, 87
1, 200938, Note_on_c, 0, 61, 68
1, 200947, Note_off_c, 0, 76, 63
1, 200969, Note_off_c, 0, 61, 68
1, 201082, Note_on_c, 0, 65, 87
1, 201083, Note_on_c, 0, 62, 74
1, 201088, Note_on_c, 0, 50, 74
1, 201109, Note_off_c, 0, 62, 65
1, 201118, Note_off_c, 0, 67, 46
1, 201225, Note_on_c, 0, 53, 66
1, 201299, Note_off_c, 0, 53, 51
1, 201379, Note_on_c, 0, 57, 76
1, 201435, Note_off_c, 0, 50, 58
1, 201529, Note_on_c, 0, 77, 82
1, 201540, Note_off_c, 0, 65, 42
1, 201573, Note_off_c, 0, 77, 61
1, 201682, Note_on_c, 0, 48, 65
1, 201685, Note_on_c, 0, 77, 97
1, 201696, Note_on_c, 0, 69, 79
1, 201835, Note_on_c, 0, 76, 81
1, 201863, Note_off_c, 0, 77, 61
1, 201929, Note_off_c, 0, 48, 62
1, 201974, Note_on_c, 0, 46, 72
1, 201976, Note_on_c, 0, 74, 77
1, 201989, Note_off_c, 0, 76, 66
1, 202056, Note_off_c, 0, 74, 0
1, 202056, Note_on_c, 0, 74, 35
1, 202125, Note_on_c, 0, 67, 78
1, 202137, Note_off_c, 0, 69, 55
1, 202150, Note_off_c, 0, 57, 49
1, 202170, Note_off_c, 0, 67, 60
1, 202209, Note_off_c, 0, 46, 61
1, 202272, Note_on_c, 0, 67, 78
1, 202278, Note_on_c, 0, 45, 73
1, 202325, Note_off_c, 0, 67, 66
1, 202329, Note_on_c, 0, 66, 76
1, 202396, Note_off_c, 0, 66, 61
1, 202409, Note_on_c, 0, 67, 73
1, 202462, Note_on_c, 0, 66, 70
1, 202474, Note_off_c, 0, 67, 64
1, 202710, Note_off_c, 0, 66, 57
1, 202735, Note_off_c, 0, 74, 64
1, 202746, Note_on_c, 0, 72, 64
1, 202752, Note_off_c, 0, 45, 42
1, 202755, Note_on_c, 0, 54, 70
1, 202755, Note_on_c, 0, 69, 66
1, 202773, Note_off_c, 0, 69, 67
1, 202784, Note_off_c, 0, 54, 65
1, 202785, Note_off_c, 0, 72, 62
1, 202933, Note_on_c, 0, 72, 74
1, 202941, Note_on_c, 0, 62, 62
1, 202950, Note_on_c, 0, 55, 76
1, 202953, Note_on_c, 0, 43, 71
1, 202981, Note_on_c, 0, 70, 70
1, 202985, Note_off_c, 0, 72, 60
1, 203020, Note_on_c, 0, 72, 50
1, 203031, Note_off_c, 0, 70, 62
1, 203082, Note_on_c, 0, 70, 75
1, 203128, Note_off_c, 0, 72, 64
1, 203238, Note_off_c, 0, 70, 63
1, 203250, Note_on_c, 0, 69, 76
1, 203263, Note_off_c, 0, 62, 43
1, 203308, Note_on_c, 0, 70, 80
1, 203354, Note_off_c, 0, 69, 60
1, 203427, Note_off_c, 0, 70, 59
1, 203437, Note_off_c, 0, 55, 52
1, 203443, Note_on_c, 0, 72, 80
1, 203454, Note_on_c, 0, 64, 61
1, 203475, Note_off_c, 0, 64, 63
1, 203489, Note_off_c, 0, 72, 59
1, 203530, Note_off_c, 0, 43, 32
1, 203588, Note_on_c, 0, 69, 92
1, 203595, Note_on_c, 0, 65, 77
1, 203598, Note_on_c, 0, 53, 59
1, 203602, Note_on_c, 0, 50, 59
1, 203620, Note_off_c, 0, 53, 62
1, 203625, Note_off_c, 0, 50, 62
1, 203633, Note_off_c, 0, 65, 0
1, 203670, Poly_aftertouch_c, 0, 65, 127
1, 203678, Note_on_c, 0, 65, 34
1, 203743, Note_on_c, 0, 55, 61
1, 203771, Note_off_c, 0, 55, 68
1, 203847, Note_off_c, 0, 65, 55
1, 203896, Note_on_c, 0, 57, 79
1, 203899, Note_on_c, 0, 48, 77
1, 203899, Note_on_c, 0, 64, 75
1, 204021, Note_off_c, 0, 48, 64
1, 204027, Note_off_c, 0, 69, 64
1, 204029, Note_on_c, 0, 70, 80
1, 204033, Note_off_c, 0, 64, 41
1, 204057, Note_off_c, 0, 57, 56
1, 204076, Note_off_c, 0, 70, 62
1, 204189, Note_on_c, 0, 69, 79
1, 204193, Note_on_c, 0, 46, 65
1, 204203, Note_on_c, 0, 50, 64
1, 204218, Note_off_c, 0, 69, 65
1, 204220, Note_on_c, 0, 67, 74
1, 204273, Note_off_c, 0, 67, 64
1, 204275, Note_on_c, 0, 69, 75
1, 204329, Note_on_c, 0, 67, 83
1, 204341, Note_off_c, 0, 69, 67
1, 204492, Note_on_c, 0, 62, 83
1, 204651, Note_on_c, 0, 69, 86
1, 204654, Note_off_c, 0, 67, 65
1, 204701, Note_off_c, 0, 69, 62
1, 204746, Note_off_c, 0, 46, 36
1, 204791, Note_off_c, 0, 50, 42
1, 204803, Note_on_c, 0, 45, 82
1, 204803, Note_on_c, 0, 69, 90
1, 204962, Note_on_c, 0, 61, 82
1, 204985, Note_off_c, 0, 62, 45
1, 205108, Note_on_c, 0, 62, 87
1, 205117, Note_off_c, 0, 61, 64
1, 205132, Note_off_c, 0, 62, 67
1, 205266, Note_on_c, 0, 65, 75
1, 205289, Note_off_c, 0, 65, 71
1, 205429, Note_on_c, 0, 64, 72
1, 205455, Note_off_c, 0, 64, 67
1, 205577, Note_on_c, 0, 59, 63
1, 205587, Note_off_c, 0, 69, 63
1, 205599, Note_off_c, 0, 59, 61
1, 205728, Note_on_c, 0, 61, 69
1, 205728, Note_on_c, 0, 69, 69
1, 205852, Note_off_c, 0, 45, 35
1, 205882, Note_on_c, 0, 52, 57
1, 205905, Note_off_c, 0, 52, 58
1, 206030, Note_on_c, 0, 55, 67
1, 206055, Note_off_c, 0, 55, 69
1, 206175, Note_off_c, 0, 61, 60
1, 206178, Note_on_c, 0, 58, 75
1, 206205, Note_off_c, 0, 58, 67
1, 206210, Note_off_c, 0, 69, 63
1, 206330, Note_on_c, 0, 57, 74
1, 206353, Note_off_c, 0, 57, 66
1, 206478, Note_on_c, 0, 65, 92
1, 206480, Note_on_c, 0, 74, 90
1, 206502, Note_off_c, 0, 65, 69
1, 206522, Note_off_c, 0, 74, 66
1, 206622, Note_on_c, 0, 64, 81
1, 206624, Note_on_c, 0, 73, 89
1, 206643, Note_off_c, 0, 64, 70
1, 206771, Note_on_c, 0, 55, 71
1, 206794, Note_off_c, 0, 55, 69
1, 206925, Note_on_c, 0, 57, 82
1, 207074, Note_on_c, 0, 71, 85
1, 207076, Note_on_c, 0, 62, 71
1, 207084, Note_off_c, 0, 73, 59
1, 207202, Note_off_c, 0, 71, 62
1, 207215, Note_on_c, 0, 69, 84
1, 207219, Note_on_c, 0, 61, 71
1, 207228, Note_off_c, 0, 57, 59
1, 207249, Note_off_c, 0, 69, 63
1, 207266, Note_off_c, 0, 62, 54
1, 207356, Note_on_c, 0, 57, 70
1, 207357, Note_on_c, 0, 79, 95
1, 207363, Note_off_c, 0, 61, 65
1, 207381, Note_off_c, 0, 57, 67
1, 207392, Note_off_c, 0, 79, 64
1, 207503, Note_on_c, 0, 77, 98
1, 207517, Note_on_c, 0, 50, 79
1, 207667, Note_on_c, 0, 57, 75
1, 207738, Note_off_c, 0, 57, 54
1, 207796, Note_off_c, 0, 50, 63
1, 207817, Note_on_c, 0, 62, 81
1, 207957, Note_on_c, 0, 76, 94
1, 207962, Note_on_c, 0, 60, 70
1, 207989, Note_off_c, 0, 77, 61
1, 207990, Note_off_c, 0, 62, 60
1, 208100, Note_on_c, 0, 74, 93
1, 208100, Note_off_c, 0, 60, 63
1, 208102, Note_on_c, 0, 59, 66
1, 208126, Note_off_c, 0, 76, 65
1, 208205, Note_off_c, 0, 59, 59
1, 208243, Note_on_c, 0, 57, 62
1, 208243, Note_on_c, 0, 72, 91
1, 208246, Note_on_c, 0, 66, 71
1, 208266, Note_off_c, 0, 74, 61
1, 208271, Note_off_c, 0, 66, 67
1, 208281, Note_off_c, 0, 57, 62
1, 208402, Note_on_c, 0, 71, 94
1, 208403, Note_on_c, 0, 67, 79
1, 208403, Note_on_c, 0, 55, 76
1, 208414, Note_off_c, 0, 72, 57
1, 208530, Note_off_c, 0, 67, 52
1, 208541, Note_on_c, 0, 62, 72
1, 208707, Note_on_c, 0, 67, 82
1, 208734, Note_off_c, 0, 62, 48
1, 208823, Note_off_c, 0, 67, 47
1, 208842, Note_on_c, 0, 65, 69
1, 208849, Note_on_c, 0, 69, 85
1, 208883, Note_off_c, 0, 71, 64
1, 208976, Note_off_c, 0, 65, 61
1, 208982, Note_off_c, 0, 69, 64
1, 208988, Note_on_c, 0, 64, 73
1, 208992, Note_on_c, 0, 67, 80
1, 209018, Note_off_c, 0, 67, 66
1, 209133, Note_on_c, 0, 77, 90
1, 209137, Note_on_c, 0, 71, 83
1, 209143, Note_on_c, 0, 62, 72
1, 209143, Note_off_c, 0, 64, 59
1, 209149, Note_off_c, 0, 55, 65
1, 209155, Note_off_c, 0, 71, 75
1, 209167, Note_off_c, 0, 62, 68
1, 209169, Note_off_c, 0, 77, 61
1, 209293, Note_on_c, 0, 76, 86
1, 209296, Note_on_c, 0, 72, 83
1, 209299, Note_on_c, 0, 60, 77
1, 209438, Note_on_c, 0, 55, 66
1, 209467, Note_off_c, 0, 55, 66
1, 209581, Note_off_c, 0, 76, 66
1, 209583, Note_off_c, 0, 72, 60
1, 209593, Note_on_c, 0, 48, 77
1, 209638, Control_c, 0, 64, 23
1, 209653, Control_c, 0, 64, 40
1, 209668, Control_c, 0, 64, 52
1, 209682, Control_c, 0, 64, 59
1, 209727, Control_c, 0, 64, 60
1, 209739, Note_on_c, 0, 74, 75
1, 209742, Note_on_c, 0, 70, 72
1, 209757, Control_c, 0, 64, 60
1, 209772, Control_c, 0, 64, 60
1, 209787, Control_c, 0, 64, 58
1, 209792, Note_off_c, 0, 60, 42
1, 209801, Control_c, 0, 64, 52
1, 209816, Control_c, 0, 64, 33
1, 209838, Control_c, 0, 64, 0
1, 209900, Note_on_c, 0, 72, 81
1, 209903, Note_on_c, 0, 60, 76
1, 209903, Note_on_c, 0, 69, 81
1, 209927, Note_off_c, 0, 48, 65
1, 209927, Note_off_c, 0, 60, 69
1, 209928, Note_off_c, 0, 74, 53
1, 209932, Note_off_c, 0, 70, 52
1, 209942, Control_c, 0, 64, 12
1, 209957, Control_c, 0, 64, 36
1, 209971, Control_c, 0, 64, 51
1, 209986, Control_c, 0, 64, 59
1, 210001, Control_c, 0, 64, 60
1, 210037, Note_on_c, 0, 70, 84
1, 210042, Note_on_c, 0, 67, 78
1, 210042, Note_off_c, 0, 69, 58
1, 210049, Note_off_c, 0, 72, 63
1, 210076, Note_off_c, 0, 67, 63
1, 210076, Note_off_c, 0, 70, 59
1, 210090, Control_c, 0, 64, 59
1, 210105, Control_c, 0, 64, 58
1, 210120, Control_c, 0, 64, 55
1, 210134, Control_c, 0, 64, 48
1, 210149, Control_c, 0, 64, 28
1, 210165, Control_c, 0, 64, 0
1, 210206, Note_on_c, 0, 48, 69
1, 210206, Note_on_c, 0, 66, 74
1, 210206, Note_on_c, 0, 69, 81
1, 210208, Note_on_c, 0, 60, 74
1, 210259, Note_on_c, 0, 67, 75
1, 210259, Note_off_c, 0, 69, 66
1, 210311, Note_on_c, 0, 69, 82
1, 210341, Note_off_c, 0, 67, 65
1, 210369, Note_off_c, 0, 66, 0
1, 210369, Note_on_c, 0, 66, 13
1, 210595, Note_off_c, 0, 69, 63
1, 210607, Note_off_c, 0, 66, 57
1, 210618, Control_c, 0, 64, 29
1, 210632, Control_c, 0, 64, 45
1, 210647, Control_c, 0, 64, 57
1, 210662, Control_c, 0, 64, 59
1, 210723, Note_on_c, 0, 74, 79
1, 210730, Note_on_c, 0, 70, 71
1, 210736, Control_c, 0, 64, 59
1, 210741, Note_off_c, 0, 60, 59
1, 210743, Note_off_c, 0, 48, 60
1, 210751, Control_c, 0, 64, 57
1, 210765, Control_c, 0, 64, 53
1, 210780, Control_c, 0, 64, 41
1, 210787, Note_off_c, 0, 70, 38
1, 210795, Control_c, 0, 64, 0
1, 210841, Note_off_c, 0, 74, 38
1, 210875, Note_on_c, 0, 69, 82
1, 210878, Note_on_c, 0, 48, 72
1, 210878, Note_on_c, 0, 66, 76
1, 210882, Note_on_c, 0, 60, 73
1, 210904, Note_off_c, 0, 60, 70
1, 210908, Note_off_c, 0, 48, 66
1, 210913, Control_c, 0, 64, 9
1, 210928, Control_c, 0, 64, 36
1, 210941, Note_off_c, 0, 66, 60
1, 210943, Control_c, 0, 64, 50
1, 210959, Control_c, 0, 64, 59
1, 210974, Control_c, 0, 64, 61
1, 211013, Note_on_c, 0, 70, 82
1, 211017, Note_on_c, 0, 67, 76
1, 211028, Note_off_c, 0, 69, 62
1, 211052, Note_off_c, 0, 67, 58
1, 211057, Note_off_c, 0, 70, 63
1, 211062, Control_c, 0, 64, 60
1, 211107, Control_c, 0, 64, 58
1, 211122, Control_c, 0, 64, 51
1, 211137, Control_c, 0, 64, 26
1, 211152, Control_c, 0, 64, 0
1, 211206, Note_on_c, 0, 64, 68
1, 211206, Note_on_c, 0, 48, 63
1, 211207, Note_on_c, 0, 70, 80
1, 211208, Note_on_c, 0, 55, 67
1, 211258, Note_off_c, 0, 70, 63
1, 211261, Note_on_c, 0, 69, 83
1, 211316, Note_on_c, 0, 70, 86
1, 211355, Note_off_c, 0, 69, 65
1, 211618, Control_c, 0, 64, 8
1, 211633, Control_c, 0, 64, 34
1, 211647, Control_c, 0, 64, 47
1, 211662, Control_c, 0, 64, 56
1, 211677, Control_c, 0, 64, 58
1, 211678, Note_off_c, 0, 48, 63
1, 211706, Control_c, 0, 64, 58
1, 211713, Note_off_c, 0, 70, 39
1, 211720, Note_on_c, 0, 72, 81
1, 211751, Note_off_c, 0, 55, 29
1, 211752, Control_c, 0, 64, 58
1, 211757, Note_off_c, 0, 72, 60
1, 211767, Control_c, 0, 64, 56
1, 211771, Note_off_c, 0, 64, 22
1, 211782, Control_c, 0, 64, 49
1, 211797, Control_c, 0, 64, 32
1, 211811, Control_c, 0, 64, 0
1, 211882, Note_on_c, 0, 45, 60
1, 211882, Note_on_c, 0, 74, 85
1, 211884, Note_on_c, 0, 53, 66
1, 211888, Note_on_c, 0, 65, 73
1, 211923, Note_off_c, 0, 65, 58
1, 211945, Control_c, 0, 64, 19
1, 211960, Control_c, 0, 64, 33
1, 211975, Control_c, 0, 64, 43
1, 211990, Control_c, 0, 64, 49
1, 212003, Note_on_c, 0, 65, 24
1, 212004, Control_c, 0, 64, 51
1, 212025, Note_on_c, 0, 72, 81
1, 212031, Note_off_c, 0, 74, 61
1, 212034, Control_c, 0, 64, 50
1, 212049, Control_c, 0, 64, 48
1, 212064, Control_c, 0, 64, 42
1, 212065, Note_off_c, 0, 65, 62
1, 212067, Note_off_c, 0, 72, 62
1, 212085, Control_c, 0, 64, 28
1, 212100, Control_c, 0, 64, 0
1, 212189, Note_on_c, 0, 46, 61
1, 212197, Note_on_c, 0, 70, 75
1, 212198, Note_on_c, 0, 62, 68
1, 212208, Note_on_c, 0, 65, 58
1, 212211, Note_off_c, 0, 45, 56
1, 212271, Note_on_c, 0, 69, 68
1, 212299, Note_off_c, 0, 70, 60
1, 212332, Note_off_c, 0, 62, 59
1, 212332, Note_off_c, 0, 65, 64
1, 212335, Note_on_c, 0, 67, 74
1, 212368, Note_off_c, 0, 69, 65
1, 212406, Note_off_c, 0, 67, 64
1, 212484, Note_off_c, 0, 53, 43
1, 212487, Note_on_c, 0, 69, 81
1, 212493, Note_on_c, 0, 60, 67
1, 212505, Note_on_c, 0, 48, 63
1, 212529, Control_c, 0, 64, 18
1, 212536, Note_off_c, 0, 46, 37
1, 212546, Control_c, 0, 64, 41
1, 212561, Control_c, 0, 64, 55
1, 212568, Note_off_c, 0, 69, 61
1, 212575, Control_c, 0, 64, 62
1, 212590, Control_c, 0, 64, 63
1, 212694, Control_c, 0, 64, 62
1, 212708, Control_c, 0, 64, 59
1, 212723, Control_c, 0, 64, 50
1, 212738, Control_c, 0, 64, 17
1, 212753, Control_c, 0, 64, 0
1, 212773, Note_on_c, 0, 67, 68
1, 212781, Note_off_c, 0, 60, 0
1, 212791, Note_on_c, 0, 52, 63
1, 212804, Note_off_c, 0, 67, 67
1, 212818, Poly_aftertouch_c, 0, 60, 127
1, 212829, Note_on_c, 0, 69, 65
1, 212870, Note_on_c, 0, 67, 79
1, 212896, Note_off_c, 0, 69, 64
1, 212909, Poly_aftertouch_c, 0, 60, 0
1, 212969, Note_off_c, 0, 52, 61
1, 212982, Control_c, 0, 64, 26
1, 212997, Control_c, 0, 64, 37
1, 213012, Control_c, 0, 64, 45
1, 213027, Note_on_c, 0, 65, 73
1, 213027, Control_c, 0, 64, 51
1, 213042, Control_c, 0, 64, 52
1, 213052, Note_off_c, 0, 67, 62
1, 213057, Control_c, 0, 64, 51
1, 213057, Note_on_c, 0, 58, 50
1, 213072, Control_c, 0, 64, 51
1, 213084, Note_off_c, 0, 58, 57
1, 213086, Control_c, 0, 64, 49
1, 213087, Note_off_c, 0, 65, 65
1, 213101, Control_c, 0, 64, 44
1, 213116, Control_c, 0, 64, 34
1, 213131, Control_c, 0, 64, 0
1, 213170, Note_on_c, 0, 65, 78
1, 213179, Note_on_c, 0, 41, 52
1, 213179, Note_on_c, 0, 53, 55
1, 213182, Note_off_c, 0, 48, 61
1, 213185, Note_on_c, 0, 57, 52
1, 213209, Note_off_c, 0, 57, 61
1, 213324, Note_off_c, 0, 65, 0
1, 213324, Note_on_c, 0, 65, 29
1, 213326, Note_on_c, 0, 55, 67
1, 213445, Note_off_c, 0, 55, 53
1, 213468, Note_on_c, 0, 57, 53
1, 213480, Note_off_c, 0, 65, 64
1, 213489, Note_off_c, 0, 53, 36
1, 213492, Note_off_c, 0, 57, 60
1, 213623, Note_on_c, 0, 43, 51
1, 213630, Note_on_c, 0, 64, 57
1, 213637, Note_on_c, 0, 58, 48
1, 213647, Note_off_c, 0, 41, 32
1, 213691, Note_off_c, 0, 58, 39
1, 213760, Note_off_c, 0, 64, 59
1, 213781, Note_on_c, 0, 45, 51
1, 213783, Note_on_c, 0, 60, 48
1, 213784, Note_on_c, 0, 65, 49
1, 213809, Note_off_c, 0, 65, 62
1, 213824, Note_off_c, 0, 43, 36
1, 213856, Note_off_c, 0, 60, 34
1, 213900, Note_off_c, 0, 45, 61
1, 213906, Note_on_c, 0, 46, 58
1, 213914, Note_on_c, 0, 67, 66
1, 213933, Note_on_c, 0, 62, 44
1, 213936, Note_off_c, 0, 46, 65
1, 214046, Note_off_c, 0, 62, 29
1, 214071, Note_on_c, 0, 64, 60
1, 214076, Note_on_c, 0, 55, 45
1, 214078, Note_on_c, 0, 48, 42
1, 214100, Note_off_c, 0, 67, 38
1, 214202, Note_off_c, 0, 64, 62
1, 214213, Note_on_c, 0, 62, 58
1, 214219, Note_on_c, 0, 46, 52
1, 214237, Note_off_c, 0, 62, 63
1, 214258, Note_off_c, 0, 48, 44
1, 214332, Note_off_c, 0, 46, 61
1, 214363, Note_on_c, 0, 72, 69
1, 214376, Note_on_c, 0, 60, 59
1, 214384, Note_on_c, 0, 45, 52
1, 214511, Note_off_c, 0, 60, 62
1, 214516, Note_on_c, 0, 62, 61
1, 214520, Note_on_c, 0, 46, 55
1, 214563, Note_off_c, 0, 45, 45
1, 214646, Note_off_c, 0, 62, 63
1, 214647, Note_off_c, 0, 55, 17
1, 214653, Note_off_c, 0, 72, 55
1, 214659, Note_on_c, 0, 48, 53
1, 214672, Note_on_c, 0, 64, 53
1, 214706, Note_off_c, 0, 46, 36
1, 214796, Note_off_c, 0, 48, 61
1, 214799, Note_on_c, 0, 72, 61
1, 214800, Note_off_c, 0, 64, 24
1, 214809, Note_on_c, 0, 50, 49
1, 214815, Note_on_c, 0, 66, 50
1, 214855, Note_off_c, 0, 50, 61
1, 214855, Note_off_c, 0, 66, 45
1, 214939, Note_on_c, 0, 43, 55
1, 214948, Note_on_c, 0, 70, 64
1, 214956, Note_on_c, 0, 55, 45
1, 214961, Note_off_c, 0, 72, 55
1, 214969, Note_off_c, 0, 43, 56
1, 214985, Note_off_c, 0, 55, 54
1, 214987, Note_on_c, 0, 67, 17
1, 215075, Note_off_c, 0, 70, 33
1, 215109, Note_on_c, 0, 57, 54
1, 215112, Note_on_c, 0, 69, 64
1, 215120, Note_off_c, 0, 67, 42
1, 215132, Note_off_c, 0, 57, 62
1, 215252, Note_on_c, 0, 67, 72
1, 215254, Note_on_c, 0, 55, 63
1, 215257, Note_on_c, 0, 58, 66
1, 215261, Note_off_c, 0, 69, 61
1, 215376, Note_off_c, 0, 58, 59
1, 215406, Note_on_c, 0, 69, 59
1, 215421, Note_on_c, 0, 60, 41
1, 215471, Note_off_c, 0, 67, 37
1, 215558, Note_off_c, 0, 55, 48
1, 215558, Note_on_c, 0, 70, 58
1, 215562, Note_on_c, 0, 62, 56
1, 215573, Note_off_c, 0, 69, 59
1, 215576, Note_off_c, 0, 60, 44
1, 215635, Note_off_c, 0, 62, 49
1, 215666, Note_off_c, 0, 70, 56
1, 215689, Note_on_c, 0, 55, 51
1, 215694, Note_on_c, 0, 72, 65
1, 215701, Note_on_c, 0, 64, 51
1, 215719, Note_off_c, 0, 55, 67
1, 215811, Note_off_c, 0, 64, 33
1, 215856, Note_on_c, 0, 50, 62
1, 215858, Note_on_c, 0, 69, 63
1, 215859, Note_on_c, 0, 65, 56
1, 215872, Note_off_c, 0, 72, 56
1, 215879, Note_off_c, 0, 50, 61
1, 215983, Note_off_c, 0, 69, 60
1, 215990, Note_off_c, 0, 65, 58
1, 215997, Note_on_c, 0, 64, 58
1, 216066, Note_off_c, 0, 64, 48
1, 216144, Note_on_c, 0, 62, 79
1, 216145, Note_on_c, 0, 58, 77
1, 216145, Note_on_c, 0, 74, 77
1, 216292, Note_on_c, 0, 73, 63
1, 216293, Note_on_c, 0, 64, 60
1, 216297, Note_off_c, 0, 74, 57
1, 216339, Note_off_c, 0, 64, 54
1, 216383, Note_off_c, 0, 58, 62
1, 216427, Note_on_c, 0, 74, 68
1, 216442, Note_on_c, 0, 65, 60
1, 216446, Note_off_c, 0, 73, 34
1, 216470, Note_off_c, 0, 65, 63
1, 216552, Note_off_c, 0, 74, 55
1, 216578, Note_on_c, 0, 76, 75
1, 216586, Note_on_c, 0, 58, 59
1, 216587, Note_on_c, 0, 67, 68
1, 216675, Note_off_c, 0, 67, 36
1, 216726, Note_off_c, 0, 76, 59
1, 216728, Note_on_c, 0, 73, 67
1, 216735, Note_on_c, 0, 57, 61
1, 216735, Note_on_c, 0, 69, 61
1, 216738, Note_off_c, 0, 62, 30
1, 216745, Note_off_c, 0, 58, 56
1, 216856, Note_off_c, 0, 69, 63
1, 216856, Note_off_c, 0, 73, 63
1, 216868, Note_on_c, 0, 71, 71
1, 216868, Note_off_c, 0, 57, 62
1, 216887, Note_on_c, 0, 55, 57
1, 216895, Note_off_c, 0, 71, 66
1, 217021, Note_on_c, 0, 81, 92
1, 217032, Note_on_c, 0, 73, 77
1, 217045, Note_on_c, 0, 57, 58
1, 217077, Note_off_c, 0, 55, 54
1, 217165, Note_off_c, 0, 73, 59
1, 217167, Note_on_c, 0, 74, 72
1, 217181, Note_on_c, 0, 59, 66
1, 217184, Note_off_c, 0, 57, 60
1, 217307, Note_off_c, 0, 59, 62
1, 217331, Note_on_c, 0, 61, 67
1, 217331, Note_on_c, 0, 76, 81
1, 217331, Note_off_c, 0, 81, 59
1, 217383, Note_off_c, 0, 74, 58
1, 217454, Note_off_c, 0, 61, 61
1, 217468, Note_on_c, 0, 57, 60
1, 217468, Note_on_c, 0, 79, 76
1, 217470, Note_off_c, 0, 76, 62
1, 217475, Note_on_c, 0, 73, 69
1, 217522, Note_off_c, 0, 79, 62
1, 217577, Note_off_c, 0, 73, 51
1, 217593, Note_off_c, 0, 57, 61
1, 217613, Note_on_c, 0, 77, 90
1, 217620, Note_on_c, 0, 62, 71
1, 217620, Note_on_c, 0, 69, 79
1, 217643, Note_off_c, 0, 62, 67
1, 217661, Note_off_c, 0, 77, 62
1, 217746, Note_off_c, 0, 69, 0
1, 217746, Note_on_c, 0, 69, 7
1, 217761, Note_on_c, 0, 74, 82
1, 217787, Note_off_c, 0, 74, 63
1, 217916, Note_on_c, 0, 78, 94
1, 217924, Note_on_c, 0, 50, 67
1, 217963, Control_c, 0, 64, 10
1, 217978, Control_c, 0, 64, 33
1, 217981, Note_off_c, 0, 50, 63
1, 217993, Control_c, 0, 64, 55
1, 218008, Control_c, 0, 64, 70
1, 218023, Control_c, 0, 64, 80
1, 218053, Control_c, 0, 64, 81
1, 218074, Control_c, 0, 64, 83
1, 218078, Note_on_c, 0, 72, 69
1, 218089, Control_c, 0, 64, 86
1, 218104, Control_c, 0, 64, 87
1, 218119, Control_c, 0, 64, 87
1, 218227, Note_off_c, 0, 72, 58
1, 218231, Note_on_c, 0, 70, 75
1, 218236, Note_off_c, 0, 78, 58
1, 218237, Note_off_c, 0, 69, 43
1, 218253, Control_c, 0, 64, 87
1, 218282, Note_off_c, 0, 70, 61
1, 218313, Control_c, 0, 64, 86
1, 218327, Control_c, 0, 64, 85
1, 218342, Control_c, 0, 64, 80
1, 218357, Control_c, 0, 64, 71
1, 218360, Note_on_c, 0, 78, 86
1, 218366, Note_on_c, 0, 69, 77
1, 218371, Note_on_c, 0, 62, 63
1, 218372, Control_c, 0, 64, 61
1, 218387, Control_c, 0, 64, 42
1, 218390, Note_off_c, 0, 69, 69
1, 218390, Note_off_c, 0, 62, 65
1, 218401, Control_c, 0, 64, 0
1, 218411, Note_off_c, 0, 78, 64
1, 218513, Note_on_c, 0, 70, 85
1, 218514, Note_on_c, 0, 55, 69
1, 218515, Note_on_c, 0, 79, 82
1, 218537, Note_off_c, 0, 70, 65
1, 218663, Note_on_c, 0, 67, 88
1, 218685, Note_off_c, 0, 67, 66
1, 218819, Note_on_c, 0, 71, 93
1, 218962, Note_on_c, 0, 65, 75
1, 218987, Control_c, 0, 64, 9
1, 219002, Control_c, 0, 64, 30
1, 219017, Control_c, 0, 64, 39
1, 219032, Control_c, 0, 64, 46
1, 219047, Control_c, 0, 64, 48
1, 219061, Control_c, 0, 64, 48
1, 219076, Control_c, 0, 64, 46
1, 219091, Control_c, 0, 64, 43
1, 219106, Control_c, 0, 64, 38
1, 219120, Control_c, 0, 64, 28
1, 219126, Note_off_c, 0, 71, 60
1, 219128, Note_on_c, 0, 64, 63
1, 219135, Control_c, 0, 64, 0
1, 219165, Note_off_c, 0, 65, 60
1, 219263, Note_on_c, 0, 71, 79
1, 219271, Note_on_c, 0, 62, 63
1, 219287, Note_off_c, 0, 64, 60
1, 219416, Note_on_c, 0, 72, 84
1, 219426, Note_on_c, 0, 60, 58
1, 219430, Note_on_c, 0, 64, 58
1, 219435, Note_off_c, 0, 71, 60
1, 219443, Note_off_c, 0, 62, 56
1, 219461, Note_off_c, 0, 64, 64
1, 219472, Note_off_c, 0, 60, 64
1, 219480, Note_off_c, 0, 55, 42
1, 219505, Note_off_c, 0, 79, 53
1, 219506, Control_c, 0, 64, 19
1, 219520, Control_c, 0, 64, 33
1, 219535, Control_c, 0, 64, 39
1, 219550, Control_c, 0, 64, 44
1, 219568, Note_on_c, 0, 77, 81
1, 219573, Control_c, 0, 64, 46
1, 219602, Control_c, 0, 64, 45
1, 219617, Control_c, 0, 64, 43
1, 219632, Control_c, 0, 64, 39
1, 219647, Control_c, 0, 64, 34
1, 219650, Note_off_c, 0, 77, 61
1, 219662, Control_c, 0, 64, 24
1, 219676, Control_c, 0, 64, 0
1, 219685, Note_off_c, 0, 72, 59
1, 219724, Note_on_c, 0, 76, 86
1, 219725, Note_on_c, 0, 60, 69
1, 219728, Note_on_c, 0, 67, 76
1, 219728, Note_on_c, 0, 48, 65
1, 219877, Note_on_c, 0, 74, 79
1, 219912, Note_off_c, 0, 76, 63
1, 220008, Note_off_c, 0, 67, 0
1, 220008, Note_on_c, 0, 67, 25
1, 220018, Note_on_c, 0, 72, 81
1, 220046, Note_off_c, 0, 74, 64
1, 220140, Note_off_c, 0, 60, 35
1, 220148, Note_off_c, 0, 72, 61
1, 220156, Note_on_c, 0, 70, 80
1, 220158, Note_on_c, 0, 52, 60
1, 220209, Note_off_c, 0, 70, 62
1, 220262, Note_off_c, 0, 48, 37
1, 220277, Note_off_c, 0, 67, 64
1, 220318, Note_on_c, 0, 69, 90
1, 220324, Note_on_c, 0, 53, 70
1, 220338, Note_off_c, 0, 52, 66
1, 220345, Note_off_c, 0, 53, 69
1, 220468, Note_on_c, 0, 60, 81
1, 220504, Note_off_c, 0, 60, 62
1, 220620, Note_on_c, 0, 41, 71
1, 220625, Note_on_c, 0, 65, 87
1, 220648, Note_off_c, 0, 41, 66
1, 220664, Note_off_c, 0, 69, 63
1, 220678, Control_c, 0, 64, 41
1, 220692, Control_c, 0, 64, 59
1, 220707, Control_c, 0, 64, 72
1, 220722, Control_c, 0, 64, 77
1, 220752, Control_c, 0, 64, 78
1, 220766, Control_c, 0, 64, 79
1, 220768, Note_on_c, 0, 69, 87
1, 220771, Note_off_c, 0, 65, 63
1, 220781, Control_c, 0, 64, 80
1, 220796, Control_c, 0, 64, 81
1, 220807, Note_off_c, 0, 69, 67
1, 220840, Control_c, 0, 64, 80
1, 220855, Control_c, 0, 64, 79
1, 220870, Control_c, 0, 64, 76
1, 220885, Control_c, 0, 64, 72
1, 220899, Control_c, 0, 64, 66
1, 220914, Control_c, 0, 64, 61
1, 220929, Control_c, 0, 64, 50
1, 220944, Note_on_c, 0, 62, 52
1, 220944, Control_c, 0, 64, 25
1, 220945, Note_on_c, 0, 69, 68
1, 220956, Note_on_c, 0, 53, 44
1, 220959, Control_c, 0, 64, 0
1, 221037, Note_off_c, 0, 69, 61
1, 221046, Note_on_c, 0, 71, 66
1, 221144, Note_off_c, 0, 71, 65
1, 221150, Note_on_c, 0, 72, 68
1, 221166, Note_off_c, 0, 62, 50
1, 221209, Note_off_c, 0, 72, 62
1, 221242, Note_on_c, 0, 71, 65
1, 221258, Note_on_c, 0, 55, 51
1, 221329, Note_off_c, 0, 53, 63
1, 221335, Note_on_c, 0, 73, 67
1, 221341, Note_off_c, 0, 71, 58
1, 221420, Note_on_c, 0, 74, 74
1, 221422, Note_off_c, 0, 73, 63
1, 221534, Note_on_c, 0, 73, 76
1, 221535, Note_on_c, 0, 52, 66
1, 221543, Note_off_c, 0, 74, 59
1, 221680, Note_off_c, 0, 73, 63
1, 221686, Note_on_c, 0, 74, 79
1, 221799, Note_off_c, 0, 74, 55
1, 221850, Note_on_c, 0, 76, 76
1, 221862, Note_on_c, 0, 53, 61
1, 221863, Note_on_c, 0, 50, 59
1, 221864, Note_off_c, 0, 52, 60
1, 221877, Note_off_c, 0, 55, 59
1, 221882, Note_off_c, 0, 76, 64
1, 221901, Note_on_c, 0, 74, 62
1, 221940, Note_off_c, 0, 74, 64
1, 221945, Note_on_c, 0, 76, 75
1, 221987, Note_off_c, 0, 76, 67
1, 221994, Note_on_c, 0, 74, 77
1, 222049, Note_off_c, 0, 74, 67
1, 222056, Note_on_c, 0, 73, 76
1, 222100, Note_off_c, 0, 73, 65
1, 222107, Note_on_c, 0, 74, 71
1, 222160, Note_on_c, 0, 49, 62
1, 222163, Note_off_c, 0, 50, 62
1, 222174, Note_on_c, 0, 52, 64
1, 222177, Note_on_c, 0, 76, 91
1, 222199, Note_off_c, 0, 74, 64
1, 222309, Note_off_c, 0, 53, 40
1, 222336, Note_on_c, 0, 81, 95
1, 222345, Note_off_c, 0, 76, 51
1, 222518, Note_on_c, 0, 57, 77
1, 222524, Note_on_c, 0, 48, 72
1, 222526, Note_off_c, 0, 52, 62
1, 222527, Note_on_c, 0, 79, 93
1, 222562, Note_off_c, 0, 81, 60
1, 222575, Note_off_c, 0, 49, 39
1, 222655, Note_off_c, 0, 79, 59
1, 222658, Note_on_c, 0, 78, 80
1, 222727, Note_off_c, 0, 78, 64
1, 222741, Note_on_c, 0, 79, 77
1, 222798, Note_off_c, 0, 79, 63
1, 222806, Note_on_c, 0, 78, 83
1, 222864, Note_off_c, 0, 78, 66
1, 222869, Note_on_c, 0, 79, 74
1, 222922, Note_off_c, 0, 79, 63
1, 222925, Note_on_c, 0, 78, 71
1, 222979, Note_on_c, 0, 79, 79
1, 222984, Note_off_c, 0, 78, 64
1, 223041, Note_on_c, 0, 78, 80
1, 223055, Note_off_c, 0, 79, 63
1, 223091, Note_off_c, 0, 78, 69
1, 223093, Note_on_c, 0, 76, 73
1, 223102, Control_c, 0, 64, 11
1, 223117, Control_c, 0, 64, 22
1, 223132, Control_c, 0, 64, 28
1, 223147, Control_c, 0, 64, 33
1, 223159, Note_on_c, 0, 74, 78
1, 223161, Control_c, 0, 64, 38
1, 223165, Note_off_c, 0, 76, 66
1, 223176, Control_c, 0, 64, 42
1, 223191, Note_off_c, 0, 74, 67
1, 223191, Control_c, 0, 64, 44
1, 223206, Control_c, 0, 64, 44
1, 223221, Control_c, 0, 64, 43
1, 223235, Control_c, 0, 64, 36
1, 223250, Control_c, 0, 64, 0
1, 223252, Note_off_c, 0, 57, 50
1, 223264, Note_off_c, 0, 48, 34
1, 223273, Note_on_c, 0, 79, 85
1, 223280, Note_on_c, 0, 46, 73
1, 223318, Note_on_c, 0, 78, 83
1, 223327, Note_off_c, 0, 79, 62
1, 223379, Note_on_c, 0, 79, 87
1, 223402, Note_off_c, 0, 78, 66
1, 223449, Note_on_c, 0, 50, 76
1, 223531, Note_off_c, 0, 50, 59
1, 223602, Note_on_c, 0, 55, 80
1, 223690, Note_off_c, 0, 46, 65
1, 223696, Note_off_c, 0, 79, 60
1, 223743, Note_on_c, 0, 73, 86
1, 223864, Note_off_c, 0, 73, 60
1, 223899, Note_on_c, 0, 46, 74
1, 223900, Note_on_c, 0, 74, 79
1, 224033, Note_off_c, 0, 74, 63
1, 224038, Note_on_c, 0, 76, 85
1, 224077, Note_off_c, 0, 76, 66
1, 224081, Control_c, 0, 64, 14
1, 224096, Control_c, 0, 64, 18
1, 224110, Control_c, 0, 64, 20
1, 224155, Control_c, 0, 64, 19
1, 224162, Note_off_c, 0, 46, 58
1, 224170, Control_c, 0, 64, 17
1, 224184, Control_c, 0, 64, 14
1, 224199, Control_c, 0, 64, 0
1, 224214, Note_on_c, 0, 67, 91
1, 224217, Note_on_c, 0, 45, 80
1, 224218, Note_on_c, 0, 61, 83
1, 224256, Note_off_c, 0, 55, 49
1, 224358, Note_off_c, 0, 61, 59
1, 224364, Note_on_c, 0, 52, 80
1, 224476, Note_off_c, 0, 52, 65
1, 224516, Note_on_c, 0, 57, 81
1, 224649, Note_on_c, 0, 70, 91
1, 224658, Note_on_c, 0, 55, 76
1, 224673, Note_off_c, 0, 57, 60
1, 224812, Note_on_c, 0, 53, 67
1, 224813, Note_on_c, 0, 69, 89
1, 224817, Note_off_c, 0, 55, 64
1, 224846, Note_off_c, 0, 70, 61
1, 224851, Note_off_c, 0, 67, 42
1, 224927, Note_off_c, 0, 53, 62
1, 224945, Note_off_c, 0, 69, 65
1, 224945, Note_on_c, 0, 73, 82
1, 224950, Note_on_c, 0, 67, 78
1, 224956, Note_on_c, 0, 52, 80
1, 224980, Note_off_c, 0, 67, 64
1, 224989, Note_off_c, 0, 73, 64
1, 225094, Note_on_c, 0, 74, 90
1, 225096, Note_on_c, 0, 65, 88
1, 225103, Note_on_c, 0, 50, 81
1, 225110, Note_off_c, 0, 45, 64
1, 225116, Note_off_c, 0, 52, 61
1, 225225, Note_off_c, 0, 74, 62
1, 225246, Note_on_c, 0, 64, 80
1, 225247, Note_off_c, 0, 50, 61
1, 225249, Note_off_c, 0, 65, 64
1, 225252, Note_on_c, 0, 43, 77
1, 225372, Note_off_c, 0, 64, 0
1, 225388, Note_on_c, 0, 64, 45
1, 225389, Note_on_c, 0, 65, 90
1, 225389, Note_off_c, 0, 43, 60
1, 225390, Note_on_c, 0, 62, 89
1, 225391, Note_on_c, 0, 45, 79
1, 225410, Note_off_c, 0, 64, 63
1, 225556, Note_on_c, 0, 57, 84
1, 225703, Note_off_c, 0, 65, 56
1, 225710, Note_on_c, 0, 61, 91
1, 225711, Note_on_c, 0, 64, 81
1, 225728, Note_off_c, 0, 57, 61
1, 225737, Note_off_c, 0, 62, 60
1, 225770, Note_off_c, 0, 45, 63
1, 225785, Control_c, 0, 64, 23
1, 225800, Control_c, 0, 64, 32
1, 225815, Control_c, 0, 64, 37
1, 225830, Control_c, 0, 64, 41
1, 225845, Control_c, 0, 64, 43
1, 225854, Note_on_c, 0, 55, 82
1, 225860, Control_c, 0, 64, 44
1, 225863, Note_off_c, 0, 61, 65
1, 225889, Control_c, 0, 64, 43
1, 225904, Control_c, 0, 64, 42
1, 225919, Control_c, 0, 64, 40
1, 225934, Control_c, 0, 64, 33
1, 225949, Control_c, 0, 64, 10
1, 225963, Control_c, 0, 64, 0
1, 225997, Note_on_c, 0, 38, 92
1, 226000, Note_on_c, 0, 62, 86
1, 226026, Note_off_c, 0, 64, 63
1, 226153, Note_on_c, 0, 53, 86
1, 226182, Note_off_c, 0, 55, 59
1, 226304, Note_on_c, 0, 55, 86
1, 226310, Note_off_c, 0, 53, 66
1, 226325, Note_off_c, 0, 55, 73
1, 226453, Note_on_c, 0, 58, 83
1, 226492, Note_on_c, 0, 57, 44
1, 226518, Note_off_c, 0, 57, 56
1, 226524, Note_off_c, 0, 58, 39
1, 226603, Note_on_c, 0, 57, 82
1, 226653, Note_off_c, 0, 57, 62
1, 226678, Note_off_c, 0, 38, 61
1, 226773, Note_on_c, 0, 52, 89
1, 226814, Note_off_c, 0, 62, 61
1, 226828, Note_off_c, 0, 52, 65
1, 226924, Note_on_c, 0, 53, 91
1, 226924, Note_on_c, 0, 62, 90
1, 226927, Note_on_c, 0, 57, 77
1, 226928, Note_on_c, 0, 38, 89
1, 227121, Note_on_c, 0, 49, 84
1, 227134, Note_off_c, 0, 38, 63
1, 227163, Note_off_c, 0, 49, 66
1, 227323, Note_on_c, 0, 50, 94
1, 227361, Note_off_c, 0, 50, 63
1, 227548, Note_on_c, 0, 45, 95
1, 227577, Note_off_c, 0, 45, 69
1, 227854, Note_on_c, 0, 38, 82
1, 227926, Note_on_c, 0, 37, 81
1, 227926, Note_off_c, 0, 38, 61
1, 228017, Note_on_c, 0, 38, 82
1, 228027, Note_off_c, 0, 37, 61
1, 228819, Note_off_c, 0, 62, 53
1, 228835, Note_off_c, 0, 57, 54
1, 228848, Note_off_c, 0, 38, 64
1, 228868, Note_off_c, 0, 53, 60
1, 232415, Note_on_c, 0, 50, 32
1, 232751, Note_on_c, 0, 53, 32
1, 232867, Note_on_c, 0, 74, 37
1, 232923, Note_off_c, 0, 74, 56
1, 232949, Note_on_c, 0, 73, 43
1, 233056, Note_on_c, 0, 74, 54
1, 233133, Note_off_c, 0, 73, 46
1, 234746, Note_on_c, 0, 77, 46
1, 234814, Note_off_c, 0, 74, 46
1, 235041, Note_off_c, 0, 77, 55
1, 235052, Note_on_c, 0, 76, 52
1, 235191, Note_on_c, 0, 77, 58
1, 235202, Note_off_c, 0, 76, 58
1, 235352, Note_on_c, 0, 74, 54
1, 235360, Note_off_c, 0, 77, 58
1, 235487, Note_on_c, 0, 52, 41
1, 235502, Note_off_c, 0, 53, 44
1, 235571, Note_off_c, 0, 50, 38
1, 235637, Control_c, 0, 64, 20
1, 235652, Control_c, 0, 64, 27
1, 235667, Control_c, 0, 64, 33
1, 235682, Control_c, 0, 64, 39
1, 235697, Control_c, 0, 64, 44
1, 235712, Control_c, 0, 64, 48
1, 235727, Control_c, 0, 64, 51
1, 235729, Note_off_c, 0, 74, 36
1, 235736, Note_on_c, 0, 55, 41
1, 235742, Control_c, 0, 64, 52
1, 235786, Control_c, 0, 64, 51
1, 235801, Control_c, 0, 64, 50
1, 235816, Control_c, 0, 64, 48
1, 235831, Control_c, 0, 64, 45
1, 235846, Control_c, 0, 64, 43
1, 235861, Control_c, 0, 64, 41
1, 235868, Note_on_c, 0, 74, 51
1, 235875, Control_c, 0, 64, 38
1, 235890, Control_c, 0, 64, 37
1, 235905, Control_c, 0, 64, 35
1, 235920, Control_c, 0, 64, 33
1, 235935, Control_c, 0, 64, 31
1, 235950, Control_c, 0, 64, 28
1, 235964, Control_c, 0, 64, 25
1, 235979, Control_c, 0, 64, 23
1, 235994, Control_c, 0, 64, 21
1, 236008, Control_c, 0, 64, 20
1, 236023, Control_c, 0, 64, 18
1, 236045, Control_c, 0, 64, 17
1, 236060, Control_c, 0, 64, 16
1, 236075, Control_c, 0, 64, 14
1, 236090, Control_c, 0, 64, 13
1, 236096, Note_off_c, 0, 74, 59
1, 236105, Control_c, 0, 64, 12
1, 236120, Control_c, 0, 64, 11
1, 236133, Note_on_c, 0, 73, 45
1, 236135, Control_c, 0, 64, 10
1, 236150, Control_c, 0, 64, 9
1, 236164, Control_c, 0, 64, 0
1, 236227, Note_off_c, 0, 73, 57
1, 236243, Note_on_c, 0, 74, 47
1, 236311, Note_off_c, 0, 74, 64
1, 236342, Note_on_c, 0, 73, 54
1, 236388, Note_off_c, 0, 73, 59
1, 236415, Note_on_c, 0, 74, 54
1, 236457, Note_off_c, 0, 74, 65
1, 236488, Note_on_c, 0, 73, 56
1, 236523, Note_off_c, 0, 73, 62
1, 236549, Note_on_c, 0, 74, 51
1, 236585, Note_off_c, 0, 74, 65
1, 236610, Note_on_c, 0, 73, 58
1, 236648, Note_off_c, 0, 73, 60
1, 236665, Note_on_c, 0, 74, 59
1, 236707, Note_off_c, 0, 74, 65
1, 236729, Note_on_c, 0, 73, 65
1, 236776, Note_off_c, 0, 73, 61
1, 236800, Note_on_c, 0, 74, 59
1, 236841, Note_off_c, 0, 74, 65
1, 236852, Note_on_c, 0, 73, 55
1, 236901, Note_off_c, 0, 73, 63
1, 236912, Note_on_c, 0, 74, 55
1, 236955, Note_off_c, 0, 74, 65
1, 236960, Note_on_c, 0, 73, 53
1, 237017, Note_off_c, 0, 73, 64
1, 237022, Note_on_c, 0, 74, 61
1, 237073, Note_off_c, 0, 74, 64
1, 237077, Note_on_c, 0, 73, 56
1, 237134, Note_off_c, 0, 73, 64
1, 237143, Note_on_c, 0, 74, 57
1, 237195, Note_off_c, 0, 74, 64
1, 237201, Note_on_c, 0, 73, 53
1, 237254, Note_off_c, 0, 73, 63
1, 237266, Note_on_c, 0, 74, 54
1, 237321, Note_off_c, 0, 74, 65
1, 237327, Note_on_c, 0, 73, 56
1, 237374, Note_off_c, 0, 73, 62
1, 237384, Note_on_c, 0, 74, 55
1, 237453, Note_on_c, 0, 73, 58
1, 237455, Note_off_c, 0, 74, 65
1, 237515, Note_off_c, 0, 73, 63
1, 237527, Note_on_c, 0, 71, 60
1, 237783, Note_on_c, 0, 73, 57
1, 237807, Note_off_c, 0, 71, 52
1, 237943, Note_on_c, 0, 53, 38
1, 237971, Note_off_c, 0, 52, 35
1, 238062, Note_off_c, 0, 55, 32
1, 238217, Note_on_c, 0, 57, 40
1, 238360, Note_off_c, 0, 73, 59
1, 238375, Note_on_c, 0, 74, 53
1, 238471, Note_off_c, 0, 74, 57
1, 238484, Note_on_c, 0, 73, 58
1, 238604, Note_on_c, 0, 74, 53
1, 238629, Note_off_c, 0, 73, 53
1, 239470, Control_c, 0, 64, 9
1, 239485, Control_c, 0, 64, 17
1, 239500, Control_c, 0, 64, 23
1, 239514, Control_c, 0, 64, 27
1, 239529, Control_c, 0, 64, 31
1, 239544, Control_c, 0, 64, 36
1, 239558, Control_c, 0, 64, 41
1, 239573, Control_c, 0, 64, 47
1, 239588, Control_c, 0, 64, 51
1, 239603, Control_c, 0, 64, 53
1, 239618, Control_c, 0, 64, 54
1, 239632, Control_c, 0, 64, 54
1, 239647, Control_c, 0, 64, 55
1, 239662, Control_c, 0, 64, 56
1, 239677, Control_c, 0, 64, 57
1, 239819, Control_c, 0, 64, 56
1, 239876, Note_off_c, 0, 74, 38
1, 239996, Control_c, 0, 64, 56
1, 240100, Control_c, 0, 64, 55
1, 240189, Control_c, 0, 64, 55
1, 240234, Control_c, 0, 64, 54
1, 240278, Control_c, 0, 64, 54
1, 240307, Control_c, 0, 64, 53
1, 240367, Note_on_c, 0, 74, 38
1, 240367, Control_c, 0, 64, 53
1, 240548, Note_off_c, 0, 74, 44
1, 240825, Note_on_c, 0, 72, 34
1, 240863, Note_off_c, 0, 72, 50
1, 240864, Control_c, 0, 64, 52
1, 240878, Control_c, 0, 64, 52
1, 240881, Note_on_c, 0, 74, 39
1, 240893, Control_c, 0, 64, 51
1, 240908, Control_c, 0, 64, 49
1, 240923, Control_c, 0, 64, 46
1, 240937, Control_c, 0, 64, 40
1, 240952, Control_c, 0, 64, 36
1, 240967, Note_on_c, 0, 72, 42
1, 240967, Control_c, 0, 64, 32
1, 240982, Control_c, 0, 64, 28
1, 240997, Control_c, 0, 64, 22
1, 241003, Note_off_c, 0, 74, 57
1, 241012, Control_c, 0, 64, 8
1, 241026, Control_c, 0, 64, 0
1, 241585, Note_on_c, 0, 70, 49
1, 241652, Note_off_c, 0, 72, 34
1, 241790, Note_on_c, 0, 54, 41
1, 241818, Note_off_c, 0, 53, 46
1, 241831, Note_off_c, 0, 57, 37
1, 242013, Control_c, 0, 64, 19
1, 242034, Control_c, 0, 64, 25
1, 242049, Control_c, 0, 64, 30
1, 242064, Control_c, 0, 64, 35
1, 242079, Control_c, 0, 64, 39
1, 242094, Control_c, 0, 64, 44
1, 242110, Control_c, 0, 64, 47
1, 242125, Control_c, 0, 64, 48
1, 242154, Control_c, 0, 64, 47
1, 242156, Note_off_c, 0, 70, 28
1, 242165, Note_on_c, 0, 62, 41
1, 242169, Control_c, 0, 64, 47
1, 242183, Control_c, 0, 64, 46
1, 242213, Control_c, 0, 64, 46
1, 242228, Control_c, 0, 64, 45
1, 242243, Control_c, 0, 64, 44
1, 242258, Control_c, 0, 64, 43
1, 242273, Control_c, 0, 64, 42
1, 242287, Control_c, 0, 64, 40
1, 242291, Note_on_c, 0, 70, 43
1, 242302, Control_c, 0, 64, 39
1, 242317, Control_c, 0, 64, 37
1, 242332, Control_c, 0, 64, 34
1, 242347, Control_c, 0, 64, 32
1, 242362, Control_c, 0, 64, 30
1, 242376, Control_c, 0, 64, 28
1, 242391, Control_c, 0, 64, 26
1, 242406, Control_c, 0, 64, 23
1, 242421, Control_c, 0, 64, 20
1, 242436, Control_c, 0, 64, 16
1, 242451, Control_c, 0, 64, 13
1, 242465, Control_c, 0, 64, 9
1, 242480, Control_c, 0, 64, 0
1, 242502, Note_off_c, 0, 70, 57
1, 242532, Note_on_c, 0, 69, 43
1, 242621, Note_off_c, 0, 69, 61
1, 242638, Note_on_c, 0, 70, 49
1, 242692, Note_off_c, 0, 70, 59
1, 242712, Note_on_c, 0, 69, 44
1, 242764, Note_off_c, 0, 69, 60
1, 242789, Note_on_c, 0, 70, 52
1, 242838, Note_off_c, 0, 70, 59
1, 242852, Note_on_c, 0, 69, 49
1, 242899, Note_off_c, 0, 69, 62
1, 242922, Note_on_c, 0, 70, 50
1, 242965, Note_off_c, 0, 70, 62
1, 242976, Note_on_c, 0, 69, 49
1, 243021, Note_off_c, 0, 69, 64
1, 243045, Note_on_c, 0, 70, 60
1, 243085, Note_off_c, 0, 70, 59
1, 243101, Note_on_c, 0, 69, 53
1, 243147, Note_off_c, 0, 69, 63
1, 243161, Note_on_c, 0, 70, 63
1, 243218, Note_off_c, 0, 70, 63
1, 243233, Note_on_c, 0, 69, 49
1, 243274, Note_off_c, 0, 69, 59
1, 243291, Note_on_c, 0, 70, 55
1, 243340, Note_off_c, 0, 70, 61
1, 243364, Note_on_c, 0, 69, 50
1, 243393, Note_off_c, 0, 69, 58
1, 243410, Note_on_c, 0, 70, 51
1, 243474, Note_off_c, 0, 70, 60
1, 243489, Note_on_c, 0, 69, 51
1, 243711, Control_c, 0, 64, 20
1, 243726, Control_c, 0, 64, 30
1, 243741, Control_c, 0, 64, 37
1, 243755, Control_c, 0, 64, 44
1, 243770, Control_c, 0, 64, 50
1, 243785, Control_c, 0, 64, 53
1, 243800, Control_c, 0, 64, 54
1, 243815, Control_c, 0, 64, 54
1, 243829, Control_c, 0, 64, 55
1, 243899, Note_off_c, 0, 69, 43
1, 243933, Control_c, 0, 64, 54
1, 243948, Control_c, 0, 64, 54
1, 243963, Control_c, 0, 64, 53
1, 243975, Note_on_c, 0, 69, 44
1, 243978, Control_c, 0, 64, 53
1, 243993, Control_c, 0, 64, 52
1, 244008, Control_c, 0, 64, 52
1, 244022, Control_c, 0, 64, 51
1, 244037, Control_c, 0, 64, 49
1, 244052, Control_c, 0, 64, 47
1, 244067, Control_c, 0, 64, 45
1, 244082, Control_c, 0, 64, 44
1, 244097, Control_c, 0, 64, 43
1, 244112, Control_c, 0, 64, 42
1, 244127, Control_c, 0, 64, 40
1, 244142, Control_c, 0, 64, 37
1, 244156, Control_c, 0, 64, 34
1, 244171, Control_c, 0, 64, 33
1, 244186, Control_c, 0, 64, 32
1, 244201, Control_c, 0, 64, 31
1, 244216, Control_c, 0, 64, 30
1, 244230, Control_c, 0, 64, 28
1, 244245, Control_c, 0, 64, 27
1, 244246, Note_on_c, 0, 70, 54
1, 244260, Control_c, 0, 64, 25
1, 244282, Control_c, 0, 64, 23
1, 244297, Control_c, 0, 64, 20
1, 244311, Control_c, 0, 64, 18
1, 244325, Note_off_c, 0, 69, 56
1, 244326, Control_c, 0, 64, 17
1, 244341, Control_c, 0, 64, 15
1, 244356, Control_c, 0, 64, 12
1, 244371, Control_c, 0, 64, 9
1, 244386, Control_c, 0, 64, 0
1, 244511, Note_on_c, 0, 72, 67
1, 244565, Note_off_c, 0, 70, 57
1, 244681, Note_on_c, 0, 69, 71
1, 244714, Note_off_c, 0, 72, 60
1, 244783, Note_on_c, 0, 55, 42
1, 244801, Note_off_c, 0, 62, 43
1, 244941, Note_off_c, 0, 54, 39
1, 244979, Note_on_c, 0, 62, 37
1, 245033, Note_off_c, 0, 69, 50
1, 245039, Note_on_c, 0, 70, 49
1, 245146, Note_off_c, 0, 70, 58
1, 245155, Note_on_c, 0, 69, 56
1, 245282, Note_on_c, 0, 70, 61
1, 245301, Note_off_c, 0, 69, 60
1, 246789, Note_on_c, 0, 67, 40
1, 246881, Note_off_c, 0, 70, 37
1, 247000, Note_off_c, 0, 67, 44
1, 247014, Note_on_c, 0, 69, 49
1, 247121, Note_off_c, 0, 69, 60
1, 247131, Note_on_c, 0, 70, 60
1, 247210, Note_off_c, 0, 70, 62
1, 247240, Note_on_c, 0, 72, 59
1, 247343, Note_on_c, 0, 74, 64
1, 247352, Note_off_c, 0, 72, 56
1, 247435, Note_on_c, 0, 76, 71
1, 247456, Note_off_c, 0, 74, 60
1, 247500, Note_off_c, 0, 62, 40
1, 247534, Note_on_c, 0, 77, 70
1, 247541, Note_on_c, 0, 48, 47
1, 247543, Note_off_c, 0, 76, 66
1, 247696, Note_off_c, 0, 77, 60
1, 247703, Note_on_c, 0, 76, 63
1, 247719, Note_on_c, 0, 60, 46
1, 247780, Note_off_c, 0, 55, 32
1, 247847, Note_off_c, 0, 76, 59
1, 247872, Note_on_c, 0, 77, 59
1, 247961, Note_off_c, 0, 77, 61
1, 247972, Note_on_c, 0, 79, 68
1, 248044, Note_off_c, 0, 79, 62
1, 248053, Note_on_c, 0, 77, 63
1, 248116, Note_off_c, 0, 77, 60
1, 248127, Note_on_c, 0, 79, 68
1, 248181, Note_off_c, 0, 79, 61
1, 248190, Note_on_c, 0, 77, 67
1, 248242, Note_off_c, 0, 77, 59
1, 248255, Note_on_c, 0, 79, 72
1, 248312, Note_off_c, 0, 79, 63
1, 248318, Note_on_c, 0, 77, 70
1, 248365, Note_off_c, 0, 77, 61
1, 248375, Note_on_c, 0, 79, 73
1, 248431, Note_off_c, 0, 79, 62
1, 248435, Note_on_c, 0, 77, 62
1, 248474, Note_off_c, 0, 77, 64
1, 248482, Note_on_c, 0, 79, 71
1, 248544, Note_on_c, 0, 77, 63
1, 248547, Note_off_c, 0, 79, 63
1, 248599, Note_off_c, 0, 77, 63
1, 248600, Note_on_c, 0, 76, 72
1, 248699, Note_on_c, 0, 77, 70
1, 248703, Note_off_c, 0, 76, 58
1, 248869, Note_on_c, 0, 79, 69
1, 248929, Note_off_c, 0, 77, 61
1, 249588, Note_on_c, 0, 70, 55
1, 249681, Note_off_c, 0, 79, 39
1, 250059, Note_on_c, 0, 53, 32
1, 250172, Note_off_c, 0, 60, 41
1, 250278, Note_off_c, 0, 48, 29
1, 250415, Note_on_c, 0, 60, 33
1, 250517, Note_on_c, 0, 72, 44
1, 250518, Note_off_c, 0, 70, 47
1, 250731, Note_on_c, 0, 70, 46
1, 250775, Note_off_c, 0, 72, 39
1, 251261, Note_off_c, 0, 70, 55
1, 251279, Note_on_c, 0, 69, 40
1, 251408, Note_on_c, 0, 70, 41
1, 251441, Note_off_c, 0, 69, 37
1, 251731, Note_on_c, 0, 72, 44
1, 251808, Note_off_c, 0, 70, 33
1, 252229, Note_on_c, 0, 69, 41
1, 252378, Note_off_c, 0, 72, 16
1, 252607, Control_c, 0, 64, 20
1, 252622, Control_c, 0, 64, 28
1, 252637, Control_c, 0, 64, 34
1, 252652, Control_c, 0, 64, 41
1, 252666, Control_c, 0, 64, 48
1, 252681, Control_c, 0, 64, 53
1, 252696, Control_c, 0, 64, 58
1, 252710, Control_c, 0, 64, 60
1, 252725, Control_c, 0, 64, 62
1, 252740, Control_c, 0, 64, 63
1, 252755, Control_c, 0, 64, 65
1, 252770, Control_c, 0, 64, 66
1, 252785, Control_c, 0, 64, 67
1, 252799, Control_c, 0, 64, 68
1, 252805, Note_off_c, 0, 60, 42
1, 252816, Note_off_c, 0, 53, 44
1, 253110, Control_c, 0, 64, 67
1, 253281, Control_c, 0, 64, 67
1, 253400, Control_c, 0, 64, 66
1, 253622, Control_c, 0, 64, 66
1, 253726, Control_c, 0, 64, 65
1, 253736, Note_on_c, 0, 41, 31
1, 253770, Control_c, 0, 64, 65
1, 253800, Control_c, 0, 64, 64
1, 253829, Control_c, 0, 64, 64
1, 253844, Control_c, 0, 64, 63
1, 253859, Control_c, 0, 64, 63
1, 253874, Control_c, 0, 64, 62
1, 253889, Control_c, 0, 64, 62
1, 253904, Control_c, 0, 64, 61
1, 253919, Control_c, 0, 64, 61
1, 253933, Control_c, 0, 64, 60
1, 253948, Control_c, 0, 64, 59
1, 253963, Control_c, 0, 64, 59
1, 253978, Control_c, 0, 64, 57
1, 253993, Control_c, 0, 64, 56
1, 254014, Control_c, 0, 64, 55
1, 254029, Control_c, 0, 64, 54
1, 254059, Control_c, 0, 64, 53
1, 254089, Control_c, 0, 64, 53
1, 254104, Control_c, 0, 64, 52
1, 254119, Control_c, 0, 64, 51
1, 254134, Control_c, 0, 64, 50
1, 254149, Control_c, 0, 64, 49
1, 254163, Control_c, 0, 64, 48
1, 254178, Control_c, 0, 64, 48
1, 254193, Control_c, 0, 64, 47
1, 254196, Note_on_c, 0, 53, 35
1, 254208, Control_c, 0, 64, 45
1, 254223, Control_c, 0, 64, 43
1, 254238, Control_c, 0, 64, 42
1, 254253, Control_c, 0, 64, 41
1, 254268, Control_c, 0, 64, 40
1, 254282, Control_c, 0, 64, 40
1, 254297, Control_c, 0, 64, 38
1, 254312, Control_c, 0, 64, 37
1, 254327, Control_c, 0, 64, 35
1, 254342, Control_c, 0, 64, 35
1, 254356, Control_c, 0, 64, 34
1, 254371, Control_c, 0, 64, 33
1, 254386, Control_c, 0, 64, 32
1, 254401, Control_c, 0, 64, 31
1, 254416, Control_c, 0, 64, 30
1, 254430, Control_c, 0, 64, 29
1, 254461, Control_c, 0, 64, 28
1, 254476, Control_c, 0, 64, 27
1, 254490, Control_c, 0, 64, 26
1, 254505, Control_c, 0, 64, 25
1, 254520, Control_c, 0, 64, 24
1, 254535, Control_c, 0, 64, 24
1, 254550, Control_c, 0, 64, 23
1, 254564, Control_c, 0, 64, 22
1, 254579, Control_c, 0, 64, 21
1, 254594, Control_c, 0, 64, 20
1, 254609, Control_c, 0, 64, 20
1, 254623, Note_on_c, 0, 70, 39
1, 254624, Control_c, 0, 64, 19
1, 254638, Control_c, 0, 64, 19
1, 254653, Control_c, 0, 64, 18
1, 254661, Note_off_c, 0, 69, 37
1, 254668, Control_c, 0, 64, 17
1, 254682, Control_c, 0, 64, 17
1, 254697, Control_c, 0, 64, 16
1, 254712, Control_c, 0, 64, 15
1, 254727, Control_c, 0, 64, 14
1, 254742, Control_c, 0, 64, 13
1, 254764, Control_c, 0, 64, 12
1, 254779, Control_c, 0, 64, 11
1, 254794, Control_c, 0, 64, 11
1, 254808, Control_c, 0, 64, 9
1, 254823, Control_c, 0, 64, 8
1, 254838, Control_c, 0, 64, 0
1, 254901, Note_off_c, 0, 70, 61
1, 254912, Note_on_c, 0, 72, 50
1, 255141, Note_on_c, 0, 74, 51
1, 255165, Note_off_c, 0, 72, 35
1, 255308, Note_on_c, 0, 76, 57
1, 255318, Note_off_c, 0, 74, 59
1, 255444, Note_off_c, 0, 76, 65
1, 255454, Note_on_c, 0, 77, 60
1, 255557, Note_off_c, 0, 77, 62
1, 255577, Note_on_c, 0, 76, 64
1, 255643, Note_off_c, 0, 76, 60
1, 255660, Note_on_c, 0, 77, 64
1, 255719, Note_off_c, 0, 77, 63
1, 255728, Note_on_c, 0, 76, 64
1, 255780, Note_off_c, 0, 76, 61
1, 255793, Note_on_c, 0, 77, 65
1, 255850, Note_off_c, 0, 77, 62
1, 255855, Note_on_c, 0, 76, 67
1, 255901, Note_off_c, 0, 76, 64
1, 255915, Note_on_c, 0, 77, 70
1, 255970, Note_off_c, 0, 77, 63
1, 255977, Note_on_c, 0, 76, 67
1, 256021, Note_off_c, 0, 76, 65
1, 256033, Note_on_c, 0, 77, 70
1, 256094, Note_on_c, 0, 76, 72
1, 256094, Note_off_c, 0, 77, 63
1, 256160, Note_off_c, 0, 76, 66
1, 256169, Note_on_c, 0, 74, 73
1, 256399, Note_on_c, 0, 76, 75
1, 256420, Note_off_c, 0, 74, 61
1, 256787, Note_on_c, 0, 77, 63
1, 256797, Note_on_c, 0, 50, 39
1, 256867, Note_off_c, 0, 76, 63
1, 256935, Note_off_c, 0, 53, 45
1, 256945, Note_off_c, 0, 41, 44
1, 258286, Note_on_c, 0, 82, 60
1, 258304, Note_on_c, 0, 58, 38
1, 258474, Note_on_c, 0, 81, 68
1, 258522, Note_off_c, 0, 77, 37
1, 258531, Note_off_c, 0, 82, 58
1, 258656, Note_on_c, 0, 79, 69
1, 258679, Note_off_c, 0, 81, 60
1, 258864, Control_c, 0, 64, 22
1, 258879, Control_c, 0, 64, 30
1, 258894, Control_c, 0, 64, 36
1, 258909, Control_c, 0, 64, 42
1, 258924, Control_c, 0, 64, 46
1, 258935, Note_off_c, 0, 79, 37
1, 258939, Control_c, 0, 64, 48
1, 258954, Control_c, 0, 64, 49
1, 259013, Control_c, 0, 64, 48
1, 259028, Control_c, 0, 64, 48
1, 259058, Control_c, 0, 64, 47
1, 259067, Note_on_c, 0, 79, 53
1, 259072, Control_c, 0, 64, 46
1, 259087, Control_c, 0, 64, 45
1, 259102, Control_c, 0, 64, 44
1, 259117, Control_c, 0, 64, 42
1, 259121, Note_off_c, 0, 79, 60
1, 259132, Control_c, 0, 64, 40
1, 259136, Note_on_c, 0, 77, 59
1, 259147, Control_c, 0, 64, 38
1, 259161, Control_c, 0, 64, 35
1, 259176, Control_c, 0, 64, 31
1, 259177, Note_off_c, 0, 77, 60
1, 259191, Control_c, 0, 64, 25
1, 259200, Note_on_c, 0, 79, 58
1, 259205, Control_c, 0, 64, 20
1, 259220, Control_c, 0, 64, 15
1, 259235, Control_c, 0, 64, 0
1, 259263, Note_off_c, 0, 79, 62
1, 259267, Note_on_c, 0, 77, 65
1, 259316, Note_off_c, 0, 77, 61
1, 259326, Note_on_c, 0, 79, 65
1, 259381, Note_on_c, 0, 77, 65
1, 259395, Note_off_c, 0, 79, 63
1, 259842, Note_on_c, 0, 76, 55
1, 259851, Note_off_c, 0, 77, 52
1, 260194, Note_on_c, 0, 48, 34
1, 260296, Note_off_c, 0, 76, 57
1, 260315, Note_on_c, 0, 77, 49
1, 260399, Note_off_c, 0, 77, 58
1, 260426, Note_on_c, 0, 76, 52
1, 260480, Note_off_c, 0, 50, 33
1, 260503, Note_off_c, 0, 76, 54
1, 260530, Note_on_c, 0, 77, 52
1, 260580, Note_off_c, 0, 77, 58
1, 260612, Note_on_c, 0, 76, 45
1, 260663, Note_off_c, 0, 76, 0
1, 260663, Note_on_c, 0, 76, 11
1, 261735, Note_on_c, 0, 57, 28
1, 261760, Note_on_c, 0, 77, 43
1, 261869, Note_off_c, 0, 76, 39
1, 261949, Note_off_c, 0, 58, 36
1, 261979, Note_on_c, 0, 79, 51
1, 262004, Note_off_c, 0, 77, 37
1, 262113, Note_off_c, 0, 79, 61
1, 262117, Note_on_c, 0, 81, 61
1, 262209, Note_off_c, 0, 81, 62
1, 262231, Note_on_c, 0, 79, 58
1, 262295, Note_off_c, 0, 79, 59
1, 262315, Note_on_c, 0, 81, 69
1, 262370, Note_off_c, 0, 81, 61
1, 262383, Note_on_c, 0, 79, 62
1, 262426, Note_off_c, 0, 79, 60
1, 262452, Note_on_c, 0, 81, 65
1, 262498, Note_off_c, 0, 81, 63
1, 262507, Note_on_c, 0, 79, 62
1, 262552, Note_off_c, 0, 79, 62
1, 262567, Note_on_c, 0, 81, 66
1, 262619, Note_on_c, 0, 79, 62
1, 262627, Note_off_c, 0, 81, 63
1, 262665, Note_off_c, 0, 79, 63
1, 262676, Note_on_c, 0, 77, 65
1, 262754, Note_on_c, 0, 79, 61
1, 262761, Note_off_c, 0, 77, 51
1, 262901, Note_on_c, 0, 81, 71
1, 262905, Note_off_c, 0, 79, 63
1, 263195, Note_on_c, 0, 46, 36
1, 263208, Note_on_c, 0, 76, 60
1, 263299, Note_off_c, 0, 81, 58
1, 263345, Note_off_c, 0, 48, 43
1, 263464, Note_on_c, 0, 74, 57
1, 263473, Note_off_c, 0, 76, 60
1, 263614, Note_off_c, 0, 74, 64
1, 263625, Note_on_c, 0, 73, 59
1, 263827, Note_on_c, 0, 74, 49
1, 263869, Note_off_c, 0, 73, 32
1, 264692, Note_on_c, 0, 55, 42
1, 264867, Note_off_c, 0, 57, 41
1, 265209, Note_on_c, 0, 77, 60
1, 265275, Note_off_c, 0, 74, 39
1, 265502, Note_on_c, 0, 76, 65
1, 265558, Note_off_c, 0, 77, 52
1, 265853, Note_on_c, 0, 57, 33
1, 265857, Note_on_c, 0, 74, 55
1, 265913, Note_off_c, 0, 76, 53
1, 266015, Note_off_c, 0, 55, 37
1, 266108, Note_off_c, 0, 46, 45
1, 266198, Note_off_c, 0, 74, 61
1, 266215, Note_on_c, 0, 73, 47
1, 266335, Note_off_c, 0, 73, 62
1, 266348, Note_on_c, 0, 74, 52
1, 266426, Note_off_c, 0, 74, 64
1, 266454, Note_on_c, 0, 73, 53
1, 266512, Note_off_c, 0, 73, 61
1, 266529, Note_on_c, 0, 74, 52
1, 266586, Note_off_c, 0, 74, 63
1, 266599, Note_on_c, 0, 73, 53
1, 266656, Note_off_c, 0, 73, 62
1, 266671, Note_on_c, 0, 74, 52
1, 266719, Note_off_c, 0, 74, 64
1, 266729, Note_on_c, 0, 73, 55
1, 266793, Note_off_c, 0, 73, 63
1, 266806, Note_on_c, 0, 74, 54
1, 266848, Note_off_c, 0, 74, 65
1, 266856, Note_on_c, 0, 73, 57
1, 266916, Note_off_c, 0, 73, 64
1, 266927, Note_on_c, 0, 74, 62
1, 266973, Note_off_c, 0, 74, 65
1, 266978, Note_on_c, 0, 73, 56
1, 267034, Note_off_c, 0, 73, 64
1, 267042, Note_on_c, 0, 74, 59
1, 267072, Note_on_c, 0, 45, 50
1, 267095, Note_off_c, 0, 74, 64
1, 267097, Note_on_c, 0, 73, 60
1, 267156, Note_off_c, 0, 73, 64
1, 267164, Note_on_c, 0, 74, 61
1, 267218, Note_off_c, 0, 74, 65
1, 267222, Note_on_c, 0, 73, 57
1, 267281, Note_off_c, 0, 73, 64
1, 267285, Note_on_c, 0, 74, 62
1, 267342, Note_off_c, 0, 74, 65
1, 267347, Note_on_c, 0, 73, 59
1, 267403, Note_off_c, 0, 73, 64
1, 267409, Note_on_c, 0, 74, 59
1, 267458, Note_off_c, 0, 74, 64
1, 267466, Note_on_c, 0, 73, 57
1, 267518, Note_off_c, 0, 73, 63
1, 267530, Note_on_c, 0, 74, 57
1, 267589, Note_on_c, 0, 73, 72
1, 267593, Note_off_c, 0, 74, 65
1, 267664, Note_off_c, 0, 73, 63
1, 267666, Note_on_c, 0, 71, 69
1, 267909, Note_on_c, 0, 73, 71
1, 267961, Note_off_c, 0, 71, 60
1, 268176, Note_on_c, 0, 46, 40
1, 268252, Note_on_c, 0, 74, 55
1, 268274, Note_off_c, 0, 73, 62
1, 268302, Note_off_c, 0, 45, 60
1, 268361, Note_off_c, 0, 74, 63
1, 268363, Note_on_c, 0, 73, 73
1, 268377, Note_off_c, 0, 57, 38
1, 268469, Note_on_c, 0, 74, 71
1, 268510, Note_off_c, 0, 73, 61
1, 269583, Note_on_c, 0, 76, 68
1, 269603, Note_on_c, 0, 57, 43
1, 269709, Note_off_c, 0, 74, 59
1, 269918, Note_on_c, 0, 74, 68
1, 269986, Note_off_c, 0, 76, 61
1, 270437, Note_off_c, 0, 74, 63
1, 270442, Note_on_c, 0, 73, 66
1, 270899, Note_on_c, 0, 74, 52
1, 270908, Note_on_c, 0, 55, 36
1, 271002, Note_off_c, 0, 73, 45
1, 271037, Note_off_c, 0, 57, 35
1, 271129, Note_off_c, 0, 74, 57
1, 271131, Note_on_c, 0, 77, 57
1, 271340, Note_on_c, 0, 76, 63
1, 271361, Note_off_c, 0, 77, 52
1, 271725, Note_on_c, 0, 43, 48
1, 271849, Note_off_c, 0, 46, 44
1, 271900, Note_off_c, 0, 76, 62
1, 271921, Note_on_c, 0, 74, 53
1, 271997, Note_off_c, 0, 74, 63
1, 271999, Note_on_c, 0, 73, 64
1, 272044, Note_off_c, 0, 73, 62
1, 272052, Note_on_c, 0, 71, 61
1, 272104, Note_off_c, 0, 71, 63
1, 272111, Note_on_c, 0, 73, 68
1, 272162, Note_on_c, 0, 71, 75
1, 272187, Note_off_c, 0, 73, 64
1, 272949, Note_on_c, 0, 69, 79
1, 272997, Note_off_c, 0, 71, 58
1, 273120, Control_c, 0, 64, 24
1, 273135, Control_c, 0, 64, 39
1, 273150, Control_c, 0, 64, 51
1, 273164, Control_c, 0, 64, 59
1, 273179, Control_c, 0, 64, 62
1, 273194, Control_c, 0, 64, 65
1, 273198, Note_off_c, 0, 43, 36
1, 273209, Control_c, 0, 64, 68
1, 273224, Control_c, 0, 64, 73
1, 273235, Note_off_c, 0, 55, 43
1, 273238, Control_c, 0, 64, 79
1, 273254, Control_c, 0, 64, 81
1, 273269, Control_c, 0, 64, 83
1, 273284, Control_c, 0, 64, 85
1, 273299, Control_c, 0, 64, 87
1, 273314, Control_c, 0, 64, 89
1, 273328, Control_c, 0, 64, 91
1, 273409, Note_off_c, 0, 69, 41
1, 273524, Note_on_c, 0, 69, 81
1, 273528, Control_c, 0, 64, 90
1, 273533, Note_on_c, 0, 57, 57
1, 273536, Note_on_c, 0, 45, 55
1, 273537, Note_on_c, 0, 52, 60
1, 273542, Note_on_c, 0, 49, 58
1, 273543, Control_c, 0, 64, 89
1, 273558, Control_c, 0, 64, 88
1, 273573, Control_c, 0, 64, 85
1, 273587, Control_c, 0, 64, 79
1, 273602, Control_c, 0, 64, 71
1, 273617, Control_c, 0, 64, 64
1, 273632, Control_c, 0, 64, 53
1, 273647, Control_c, 0, 64, 36
1, 273661, Control_c, 0, 64, 0
1, 276407, Note_on_c, 0, 70, 45
1, 276469, Note_off_c, 0, 69, 54
1, 276725, Note_on_c, 0, 69, 49
1, 276809, Note_off_c, 0, 70, 36
1, 276948, Note_on_c, 0, 67, 56
1, 276961, Note_off_c, 0, 57, 21
1, 276967, Note_off_c, 0, 69, 51
1, 276992, Note_off_c, 0, 45, 38
1, 277063, Note_off_c, 0, 67, 63
1, 277070, Note_on_c, 0, 65, 61
1, 277155, Note_off_c, 0, 49, 35
1, 277162, Note_off_c, 0, 65, 66
1, 277169, Note_on_c, 0, 64, 65
1, 277207, Note_off_c, 0, 52, 38
1, 277262, Note_on_c, 0, 62, 68
1, 277264, Note_off_c, 0, 64, 62
1, 277331, Note_off_c, 0, 62, 62
1, 277342, Note_on_c, 0, 60, 67
1, 277419, Note_off_c, 0, 60, 65
1, 277420, Note_on_c, 0, 58, 70
1, 277492, Note_on_c, 0, 57, 68
1, 277497, Note_off_c, 0, 58, 60
1, 277569, Note_on_c, 0, 55, 66
1, 277580, Note_off_c, 0, 57, 60
1, 277650, Note_on_c, 0, 53, 58
1, 277698, Note_off_c, 0, 55, 38
1, 277745, Note_on_c, 0, 52, 59
1, 277799, Note_off_c, 0, 53, 58
1, 277821, Note_on_c, 0, 50, 57
1, 277851, Note_off_c, 0, 52, 54
1, 278036, Note_on_c, 0, 49, 47
1, 278051, Note_on_c, 0, 76, 54
1, 278129, Note_off_c, 0, 76, 60
1, 278136, Note_on_c, 0, 74, 51
1, 278145, Note_off_c, 0, 50, 33
1, 278229, Note_on_c, 0, 76, 62
1, 278259, Note_off_c, 0, 74, 56
1, 279671, Note_on_c, 0, 74, 42
1, 279818, Note_off_c, 0, 76, 35
1, 280067, Note_on_c, 0, 73, 50
1, 280142, Note_off_c, 0, 74, 36
1, 280394, Note_on_c, 0, 71, 50
1, 280401, Note_off_c, 0, 73, 54
1, 280736, Note_on_c, 0, 61, 34
1, 280781, Note_off_c, 0, 71, 55
1, 280801, Note_on_c, 0, 69, 40
1, 280874, Note_off_c, 0, 49, 43
1, 280948, Note_off_c, 0, 69, 59
1, 280981, Note_on_c, 0, 71, 43
1, 281063, Note_off_c, 0, 71, 63
1, 281087, Note_on_c, 0, 73, 53
1, 281141, Note_off_c, 0, 73, 62
1, 281170, Note_on_c, 0, 74, 55
1, 281249, Note_off_c, 0, 74, 61
1, 281260, Note_on_c, 0, 76, 57
1, 281334, Note_on_c, 0, 77, 67
1, 281346, Note_off_c, 0, 76, 59
1, 281414, Note_off_c, 0, 77, 62
1, 281415, Note_on_c, 0, 79, 58
1, 281477, Note_on_c, 0, 81, 70
1, 281480, Note_off_c, 0, 79, 63
1, 281555, Note_off_c, 0, 81, 62
1, 281561, Note_on_c, 0, 79, 59
1, 281623, Note_off_c, 0, 79, 61
1, 281632, Note_on_c, 0, 81, 66
1, 281689, Note_off_c, 0, 81, 62
1, 281696, Note_on_c, 0, 79, 66
1, 281760, Note_off_c, 0, 79, 62
1, 281765, Note_on_c, 0, 81, 69
1, 281815, Note_off_c, 0, 81, 63
1, 281819, Note_on_c, 0, 79, 63
1, 281870, Note_off_c, 0, 79, 60
1, 281883, Note_on_c, 0, 81, 71
1, 281933, Note_off_c, 0, 81, 62
1, 281939, Note_on_c, 0, 79, 65
1, 281981, Note_off_c, 0, 79, 64
1, 281993, Note_on_c, 0, 81, 68
1, 282047, Note_off_c, 0, 81, 63
1, 282050, Note_on_c, 0, 79, 68
1, 282098, Note_off_c, 0, 79, 61
1, 282103, Note_on_c, 0, 81, 76
1, 282155, Note_on_c, 0, 79, 64
1, 282161, Note_off_c, 0, 81, 64
1, 282205, Note_off_c, 0, 79, 63
1, 282211, Note_on_c, 0, 77, 77
1, 282285, Note_on_c, 0, 79, 74
1, 282289, Note_off_c, 0, 77, 60
1, 282387, Note_on_c, 0, 81, 76
1, 282405, Note_off_c, 0, 79, 61
1, 282528, Note_on_c, 0, 62, 64
1, 282540, Note_on_c, 0, 79, 69
1, 282576, Note_off_c, 0, 61, 44
1, 282592, Note_off_c, 0, 81, 54
1, 282680, Note_off_c, 0, 79, 62
1, 282690, Note_on_c, 0, 77, 66
1, 282746, Note_off_c, 0, 77, 56
1, 282761, Note_on_c, 0, 79, 66
1, 282816, Note_off_c, 0, 79, 61
1, 282824, Note_on_c, 0, 77, 67
1, 282878, Note_off_c, 0, 77, 62
1, 282885, Note_on_c, 0, 79, 71
1, 282943, Note_off_c, 0, 79, 62
1, 282947, Note_on_c, 0, 77, 65
1, 282994, Note_off_c, 0, 77, 62
1, 283001, Note_on_c, 0, 79, 71
1, 283058, Note_off_c, 0, 79, 63
1, 283063, Note_on_c, 0, 77, 63
1, 283109, Note_off_c, 0, 77, 63
1, 283115, Note_on_c, 0, 79, 67
1, 283174, Note_on_c, 0, 77, 72
1, 283183, Note_off_c, 0, 79, 62
1, 283412, Note_off_c, 0, 77, 63
1, 283420, Note_on_c, 0, 76, 71
1, 283706, Note_on_c, 0, 77, 58
1, 283725, Note_off_c, 0, 76, 45
1, 283859, Note_on_c, 0, 79, 63
1, 283880, Note_off_c, 0, 77, 57
1, 284059, Note_on_c, 0, 76, 59
1, 284062, Note_off_c, 0, 79, 58
1, 284203, Control_c, 0, 64, 12
1, 284218, Control_c, 0, 64, 23
1, 284233, Control_c, 0, 64, 31
1, 284247, Control_c, 0, 64, 38
1, 284262, Control_c, 0, 64, 44
1, 284277, Control_c, 0, 64, 49
1, 284292, Control_c, 0, 64, 51
1, 284307, Control_c, 0, 64, 51
1, 284321, Control_c, 0, 64, 52
1, 284328, Note_off_c, 0, 76, 35
1, 284381, Control_c, 0, 64, 51
1, 284396, Control_c, 0, 64, 51
1, 284411, Control_c, 0, 64, 50
1, 284441, Control_c, 0, 64, 50
1, 284456, Control_c, 0, 64, 49
1, 284471, Control_c, 0, 64, 49
1, 284485, Control_c, 0, 64, 48
1, 284487, Note_on_c, 0, 53, 26
1, 284500, Control_c, 0, 64, 47
1, 284515, Control_c, 0, 64, 46
1, 284530, Control_c, 0, 64, 44
1, 284545, Control_c, 0, 64, 43
1, 284558, Note_on_c, 0, 76, 46
1, 284560, Control_c, 0, 64, 40
1, 284575, Control_c, 0, 64, 37
1, 284589, Control_c, 0, 64, 35
1, 284604, Control_c, 0, 64, 32
1, 284619, Control_c, 0, 64, 29
1, 284634, Control_c, 0, 64, 27
1, 284637, Note_off_c, 0, 62, 41
1, 284649, Control_c, 0, 64, 25
1, 284663, Control_c, 0, 64, 23
1, 284678, Control_c, 0, 64, 22
1, 284689, Note_off_c, 0, 76, 61
1, 284693, Control_c, 0, 64, 21
1, 284715, Control_c, 0, 64, 19
1, 284730, Note_on_c, 0, 74, 46
1, 284730, Control_c, 0, 64, 17
1, 284744, Control_c, 0, 64, 14
1, 284759, Control_c, 0, 64, 11
1, 284774, Control_c, 0, 64, 0
1, 284825, Note_off_c, 0, 74, 58
1, 284850, Note_on_c, 0, 73, 45
1, 284996, Note_on_c, 0, 74, 38
1, 285019, Note_off_c, 0, 73, 45
1, 285602, Note_off_c, 0, 74, 31
1, 285752, Note_on_c, 0, 74, 47
1, 285831, Note_off_c, 0, 74, 59
1, 285857, Note_on_c, 0, 76, 52
1, 285949, Note_on_c, 0, 77, 61
1, 285950, Note_off_c, 0, 76, 60
1, 286012, Note_off_c, 0, 77, 62
1, 286015, Note_on_c, 0, 79, 62
1, 286075, Note_on_c, 0, 77, 62
1, 286075, Note_off_c, 0, 79, 63
1, 286142, Note_off_c, 0, 77, 63
1, 286147, Note_on_c, 0, 79, 62
1, 286199, Note_on_c, 0, 77, 66
1, 286212, Note_off_c, 0, 79, 63
1, 286271, Note_off_c, 0, 77, 62
1, 286277, Note_on_c, 0, 79, 71
1, 286335, Note_off_c, 0, 79, 63
1, 286339, Note_on_c, 0, 77, 64
1, 286382, Note_off_c, 0, 77, 63
1, 286394, Note_on_c, 0, 79, 68
1, 286450, Note_off_c, 0, 79, 62
1, 286452, Note_on_c, 0, 77, 65
1, 286498, Note_off_c, 0, 77, 63
1, 286504, Note_on_c, 0, 79, 69
1, 286561, Note_on_c, 0, 77, 64
1, 286568, Note_off_c, 0, 79, 63
1, 286620, Note_off_c, 0, 77, 64
1, 286626, Note_on_c, 0, 76, 69
1, 286772, Note_on_c, 0, 77, 68
1, 286785, Note_off_c, 0, 76, 59
1, 286996, Note_on_c, 0, 52, 63
1, 287156, Note_off_c, 0, 53, 42
1, 287211, Note_on_c, 0, 81, 73
1, 287265, Note_off_c, 0, 77, 57
1, 287400, Note_on_c, 0, 79, 73
1, 287445, Note_off_c, 0, 81, 60
1, 287581, Note_on_c, 0, 77, 72
1, 287614, Note_off_c, 0, 79, 61
1, 287776, Note_on_c, 0, 76, 65
1, 287776, Note_off_c, 0, 77, 57
1, 287964, Note_off_c, 0, 76, 63
1, 287967, Note_on_c, 0, 79, 67
1, 288178, Note_off_c, 0, 79, 59
1, 288186, Note_on_c, 0, 74, 60
1, 288603, Note_on_c, 0, 64, 40
1, 288603, Note_on_c, 0, 72, 53
1, 288674, Note_off_c, 0, 74, 37
1, 288782, Note_off_c, 0, 52, 43
1, 288819, Note_on_c, 0, 79, 60
1, 288843, Note_off_c, 0, 72, 53
1, 289055, Note_off_c, 0, 79, 54
1, 289056, Note_on_c, 0, 69, 56
1, 289481, Note_on_c, 0, 70, 47
1, 289481, Note_on_c, 0, 60, 33
1, 289522, Note_off_c, 0, 69, 32
1, 289642, Note_off_c, 0, 64, 41
1, 289706, Note_on_c, 0, 74, 46
1, 289752, Note_off_c, 0, 70, 36
1, 289942, Note_on_c, 0, 72, 42
1, 290000, Note_off_c, 0, 74, 32
1, 290438, Note_on_c, 0, 53, 26
1, 290510, Note_on_c, 0, 70, 38
1, 290649, Note_off_c, 0, 60, 35
1, 290672, Note_off_c, 0, 72, 40
1, 290688, Note_on_c, 0, 69, 40
1, 290691, Note_off_c, 0, 70, 40
1, 290790, Note_off_c, 0, 69, 50
1, 290824, Note_on_c, 0, 67, 39
1, 290961, Note_on_c, 0, 69, 40
1, 291010, Note_off_c, 0, 67, 31
1, 291503, Note_on_c, 0, 55, 35
1, 291631, Note_off_c, 0, 53, 44
1, 292656, Note_off_c, 0, 69, 39
1, 292661, Note_on_c, 0, 57, 24
1, 292844, Note_off_c, 0, 55, 39
1, 293247, Note_on_c, 0, 72, 43
1, 293791, Note_on_c, 0, 77, 59
1, 293917, Note_off_c, 0, 72, 36
1, 294370, Note_on_c, 0, 76, 58
1, 294489, Note_off_c, 0, 77, 51
1, 294689, Note_on_c, 0, 74, 56
1, 294728, Note_off_c, 0, 76, 59
1, 294909, Control_c, 0, 64, 21
1, 294924, Control_c, 0, 64, 29
1, 294939, Control_c, 0, 64, 35
1, 294954, Control_c, 0, 64, 43
1, 294969, Control_c, 0, 64, 49
1, 294984, Control_c, 0, 64, 52
1, 294998, Control_c, 0, 64, 53
1, 295002, Note_off_c, 0, 74, 37
1, 295013, Control_c, 0, 64, 53
1, 295043, Control_c, 0, 64, 54
1, 295072, Control_c, 0, 64, 53
1, 295087, Control_c, 0, 64, 53
1, 295102, Control_c, 0, 64, 52
1, 295132, Control_c, 0, 64, 52
1, 295144, Note_on_c, 0, 74, 45
1, 295146, Control_c, 0, 64, 51
1, 295152, Note_on_c, 0, 58, 37
1, 295161, Control_c, 0, 64, 50
1, 295176, Control_c, 0, 64, 48
1, 295198, Control_c, 0, 64, 45
1, 295213, Control_c, 0, 64, 41
1, 295228, Control_c, 0, 64, 38
1, 295243, Control_c, 0, 64, 34
1, 295258, Control_c, 0, 64, 29
1, 295272, Control_c, 0, 64, 22
1, 295287, Control_c, 0, 64, 11
1, 295302, Control_c, 0, 64, 0
1, 295327, Note_off_c, 0, 57, 41
1, 295761, Note_on_c, 0, 79, 58
1, 295870, Note_off_c, 0, 74, 51
1, 296086, Note_on_c, 0, 81, 74
1, 296149, Note_off_c, 0, 79, 59
1, 296428, Note_on_c, 0, 82, 69
1, 296440, Note_on_c, 0, 62, 36
1, 296490, Note_off_c, 0, 81, 59
1, 296704, Note_on_c, 0, 81, 68
1, 296716, Note_off_c, 0, 82, 61
1, 296834, Note_off_c, 0, 81, 62
1, 296838, Note_on_c, 0, 82, 65
1, 296906, Note_off_c, 0, 82, 64
1, 296923, Note_on_c, 0, 81, 61
1, 296968, Note_off_c, 0, 81, 57
1, 296996, Note_on_c, 0, 82, 65
1, 297042, Note_off_c, 0, 82, 63
1, 297062, Note_on_c, 0, 81, 66
1, 297098, Note_off_c, 0, 81, 61
1, 297118, Note_on_c, 0, 82, 69
1, 297164, Note_off_c, 0, 82, 63
1, 297178, Note_on_c, 0, 81, 68
1, 297220, Note_off_c, 0, 81, 61
1, 297233, Note_on_c, 0, 82, 69
1, 297290, Note_off_c, 0, 82, 65
1, 297294, Note_on_c, 0, 81, 71
1, 297334, Note_off_c, 0, 81, 64
1, 297347, Note_on_c, 0, 79, 70
1, 297429, Note_on_c, 0, 81, 71
1, 297459, Note_off_c, 0, 79, 51
1, 297598, Note_on_c, 0, 82, 67
1, 297628, Note_off_c, 0, 81, 63
1, 297872, Note_on_c, 0, 72, 60
1, 297886, Note_on_c, 0, 64, 37
1, 297993, Note_off_c, 0, 82, 60
1, 298029, Note_off_c, 0, 62, 52
1, 298438, Note_on_c, 0, 77, 60
1, 298536, Note_off_c, 0, 72, 35
1, 298745, Note_on_c, 0, 79, 64
1, 298802, Note_off_c, 0, 77, 59
1, 299073, Note_on_c, 0, 57, 31
1, 299077, Note_on_c, 0, 81, 57
1, 299080, Note_on_c, 0, 60, 36
1, 299121, Note_off_c, 0, 79, 45
1, 299166, Note_off_c, 0, 58, 40
1, 299277, Note_off_c, 0, 64, 45
1, 299290, Note_off_c, 0, 81, 60
1, 299312, Note_on_c, 0, 79, 57
1, 299400, Note_off_c, 0, 79, 60
1, 299416, Note_on_c, 0, 81, 64
1, 299478, Note_off_c, 0, 81, 62
1, 299489, Note_on_c, 0, 79, 57
1, 299539, Note_off_c, 0, 79, 58
1, 299560, Note_on_c, 0, 81, 60
1, 299608, Note_off_c, 0, 81, 62
1, 299622, Note_on_c, 0, 79, 59
1, 299664, Note_off_c, 0, 79, 62
1, 299696, Note_on_c, 0, 81, 66
1, 299738, Note_off_c, 0, 81, 63
1, 299747, Note_on_c, 0, 79, 62
1, 299788, Note_off_c, 0, 79, 63
1, 299804, Note_on_c, 0, 81, 60
1, 299857, Note_off_c, 0, 81, 62
1, 299858, Note_on_c, 0, 79, 61
1, 299897, Note_off_c, 0, 79, 64
1, 299925, Note_on_c, 0, 77, 49
1, 299996, Note_off_c, 0, 77, 59
1, 300004, Note_on_c, 0, 79, 56
1, 300198, Note_off_c, 0, 79, 61
1, 300199, Note_on_c, 0, 81, 61
1, 300298, Control_c, 0, 64, 22
1, 300312, Control_c, 0, 64, 31
1, 300327, Control_c, 0, 64, 38
1, 300334, Note_off_c, 0, 81, 55
1, 300342, Control_c, 0, 64, 45
1, 300357, Control_c, 0, 64, 50
1, 300372, Control_c, 0, 64, 53
1, 300386, Control_c, 0, 64, 55
1, 300401, Control_c, 0, 64, 56
1, 300417, Control_c, 0, 64, 57
1, 300439, Control_c, 0, 64, 58
1, 300484, Control_c, 0, 64, 57
1, 300499, Control_c, 0, 64, 57
1, 300513, Control_c, 0, 64, 56
1, 300541, Note_on_c, 0, 62, 32
1, 300543, Control_c, 0, 64, 55
1, 300546, Note_on_c, 0, 55, 36
1, 300558, Control_c, 0, 64, 54
1, 300573, Control_c, 0, 64, 52
1, 300585, Note_on_c, 0, 72, 56
1, 300588, Control_c, 0, 64, 47
1, 300599, Note_off_c, 0, 62, 0
1, 300599, Note_on_c, 0, 62, 3
1, 300603, Control_c, 0, 64, 40
1, 300617, Control_c, 0, 64, 32
1, 300632, Control_c, 0, 64, 25
1, 300647, Control_c, 0, 64, 15
1, 300662, Control_c, 0, 64, 0
1, 300675, Note_off_c, 0, 57, 38
1, 300742, Note_off_c, 0, 60, 37
1, 300823, Note_on_c, 0, 70, 52
1, 300871, Note_off_c, 0, 72, 52
1, 301004, Note_on_c, 0, 69, 64
1, 301019, Note_off_c, 0, 70, 57
1, 301163, Note_on_c, 0, 70, 51
1, 301208, Note_off_c, 0, 69, 60
1, 301819, Note_on_c, 0, 64, 40
1, 301992, Note_off_c, 0, 62, 44
1, 302114, Note_on_c, 0, 69, 57
1, 302137, Note_off_c, 0, 70, 55
1, 302402, Note_on_c, 0, 70, 64
1, 302432, Note_off_c, 0, 69, 60
1, 302675, Note_on_c, 0, 72, 63
1, 302725, Note_off_c, 0, 70, 60
1, 303043, Note_on_c, 0, 70, 59
1, 303057, Note_on_c, 0, 65, 47
1, 303140, Note_off_c, 0, 72, 51
1, 303167, Note_off_c, 0, 64, 48
1, 303316, Note_on_c, 0, 69, 64
1, 303329, Note_off_c, 0, 55, 43
1, 303352, Note_off_c, 0, 70, 56
1, 303489, Note_on_c, 0, 67, 61
1, 303492, Note_off_c, 0, 69, 62
1, 303672, Note_on_c, 0, 69, 60
1, 303705, Note_off_c, 0, 67, 41
1, 304311, Note_on_c, 0, 53, 57
1, 304849, Control_c, 0, 64, 8
1, 304864, Control_c, 0, 64, 17
1, 304879, Control_c, 0, 64, 26
1, 304894, Control_c, 0, 64, 32
1, 304908, Control_c, 0, 64, 39
1, 304931, Control_c, 0, 64, 48
1, 304946, Control_c, 0, 64, 55
1, 304961, Control_c, 0, 64, 60
1, 304976, Control_c, 0, 64, 61
1, 304990, Control_c, 0, 64, 63
1, 305005, Control_c, 0, 64, 64
1, 305020, Control_c, 0, 64, 66
1, 305035, Control_c, 0, 64, 67
1, 305050, Control_c, 0, 64, 67
1, 305076, Note_off_c, 0, 53, 36
1, 305243, Control_c, 0, 64, 67
1, 305680, Control_c, 0, 64, 66
1, 305813, Control_c, 0, 64, 66
1, 305823, Note_on_c, 0, 62, 67
1, 305829, Note_on_c, 0, 46, 58
1, 305843, Control_c, 0, 64, 65
1, 305873, Control_c, 0, 64, 65
1, 305888, Control_c, 0, 64, 64
1, 305903, Control_c, 0, 64, 62
1, 305918, Control_c, 0, 64, 60
1, 305932, Control_c, 0, 64, 54
1, 305947, Control_c, 0, 64, 42
1, 305962, Control_c, 0, 64, 22
1, 305977, Control_c, 0, 64, 0
1, 306129, Note_off_c, 0, 65, 45
1, 306508, Note_on_c, 0, 74, 63
1, 306706, Note_off_c, 0, 69, 61
1, 306928, Note_on_c, 0, 72, 65
1, 306994, Note_off_c, 0, 74, 61
1, 307236, Note_on_c, 0, 70, 67
1, 307280, Note_off_c, 0, 72, 59
1, 307509, Note_on_c, 0, 69, 71
1, 307540, Note_off_c, 0, 70, 62
1, 307766, Note_on_c, 0, 67, 66
1, 307776, Note_off_c, 0, 69, 61
1, 308049, Note_on_c, 0, 69, 67
1, 308086, Note_off_c, 0, 67, 61
1, 308232, Note_on_c, 0, 70, 68
1, 308243, Note_off_c, 0, 69, 63
1, 308496, Note_on_c, 0, 55, 40
1, 308513, Note_on_c, 0, 48, 38
1, 308559, Note_on_c, 0, 65, 62
1, 308612, Note_off_c, 0, 70, 53
1, 308678, Note_off_c, 0, 62, 35
1, 308732, Note_off_c, 0, 46, 47
1, 308890, Note_on_c, 0, 64, 54
1, 308896, Note_off_c, 0, 65, 61
1, 309042, Note_on_c, 0, 65, 60
1, 309042, Note_off_c, 0, 64, 61
1, 309122, Note_off_c, 0, 65, 64
1, 309137, Note_on_c, 0, 64, 55
1, 309210, Note_off_c, 0, 64, 62
1, 309218, Note_on_c, 0, 65, 58
1, 309270, Note_off_c, 0, 65, 64
1, 309279, Note_on_c, 0, 64, 55
1, 309341, Note_off_c, 0, 64, 60
1, 309355, Note_on_c, 0, 65, 61
1, 309399, Note_off_c, 0, 65, 64
1, 309411, Note_on_c, 0, 64, 55
1, 309477, Note_off_c, 0, 64, 61
1, 309488, Note_on_c, 0, 65, 63
1, 309537, Note_off_c, 0, 65, 63
1, 309542, Note_on_c, 0, 64, 61
1, 309603, Note_off_c, 0, 64, 61
1, 309616, Note_on_c, 0, 65, 62
1, 309659, Note_off_c, 0, 65, 65
1, 309665, Note_on_c, 0, 64, 57
1, 309726, Note_off_c, 0, 64, 61
1, 309734, Note_on_c, 0, 65, 64
1, 309786, Note_off_c, 0, 65, 64
1, 309790, Note_on_c, 0, 64, 59
1, 309850, Note_off_c, 0, 64, 62
1, 309855, Note_on_c, 0, 65, 64
1, 309911, Note_off_c, 0, 65, 65
1, 309915, Note_on_c, 0, 64, 55
1, 309973, Note_off_c, 0, 64, 62
1, 309977, Note_on_c, 0, 65, 58
1, 309978, Note_on_c, 0, 58, 45
1, 310037, Note_on_c, 0, 64, 53
1, 310037, Note_off_c, 0, 65, 66
1, 310061, Note_off_c, 0, 55, 42
1, 310100, Note_off_c, 0, 64, 63
1, 310108, Note_on_c, 0, 65, 58
1, 310177, Note_off_c, 0, 65, 65
1, 310186, Note_on_c, 0, 64, 48
1, 310234, Note_off_c, 0, 64, 62
1, 310240, Note_on_c, 0, 65, 49
1, 310307, Note_on_c, 0, 64, 48
1, 310318, Note_off_c, 0, 65, 58
1, 310941, Note_on_c, 0, 65, 56
1, 310981, Note_off_c, 0, 64, 57
1, 311084, Control_c, 0, 64, 16
1, 311099, Control_c, 0, 64, 28
1, 311114, Control_c, 0, 64, 36
1, 311129, Control_c, 0, 64, 44
1, 311143, Control_c, 0, 64, 52
1, 311147, Note_off_c, 0, 58, 39
1, 311153, Note_off_c, 0, 48, 39
1, 311158, Control_c, 0, 64, 55
1, 311173, Control_c, 0, 64, 58
1, 311188, Control_c, 0, 64, 60
1, 311203, Control_c, 0, 64, 62
1, 311218, Control_c, 0, 64, 64
1, 311233, Control_c, 0, 64, 65
1, 311248, Control_c, 0, 64, 66
1, 311292, Control_c, 0, 64, 67
1, 311307, Control_c, 0, 64, 67
1, 311322, Control_c, 0, 64, 68
1, 311337, Control_c, 0, 64, 69
1, 311351, Control_c, 0, 64, 71
1, 311366, Control_c, 0, 64, 71
1, 311381, Control_c, 0, 64, 72
1, 311434, Note_off_c, 0, 65, 37
1, 311619, Control_c, 0, 64, 71
1, 311700, Control_c, 0, 64, 71
1, 311819, Control_c, 0, 64, 70
1, 311966, Control_c, 0, 64, 70
1, 312055, Control_c, 0, 64, 69
1, 312175, Control_c, 0, 64, 69
1, 312181, Note_on_c, 0, 65, 48
1, 312190, Control_c, 0, 64, 68
1, 312193, Note_on_c, 0, 57, 34
1, 312200, Note_on_c, 0, 41, 31
1, 312219, Control_c, 0, 64, 67
1, 312234, Control_c, 0, 64, 67
1, 312249, Control_c, 0, 64, 65
1, 312264, Control_c, 0, 64, 63
1, 312279, Control_c, 0, 64, 60
1, 312293, Control_c, 0, 64, 54
1, 312308, Control_c, 0, 64, 44
1, 312323, Control_c, 0, 64, 30
1, 312338, Control_c, 0, 64, 8
1, 312353, Control_c, 0, 64, 0
1, 313102, Control_c, 0, 64, 8
1, 313116, Control_c, 0, 64, 11
1, 313131, Control_c, 0, 64, 13
1, 313146, Control_c, 0, 64, 15
1, 313168, Control_c, 0, 64, 17
1, 313183, Control_c, 0, 64, 21
1, 313199, Control_c, 0, 64, 25
1, 313214, Control_c, 0, 64, 28
1, 313228, Control_c, 0, 64, 30
1, 313243, Control_c, 0, 64, 32
1, 313258, Control_c, 0, 64, 33
1, 313525, Control_c, 0, 64, 32
1, 313569, Control_c, 0, 64, 32
1, 313702, Control_c, 0, 64, 32
1, 313865, Control_c, 0, 64, 32
1, 313917, Control_c, 0, 64, 31
1, 314007, Control_c, 0, 64, 31
1, 314032, Note_on_c, 0, 64, 34
1, 314258, Control_c, 0, 64, 30
1, 314270, Note_off_c, 0, 41, 44
1, 314273, Control_c, 0, 64, 30
1, 314288, Control_c, 0, 64, 29
1, 314303, Control_c, 0, 64, 29
1, 314333, Control_c, 0, 64, 28
1, 314348, Control_c, 0, 64, 27
1, 314361, Control_c, 0, 64, 27
1, 314376, Control_c, 0, 64, 26
1, 314379, Note_on_c, 0, 62, 48
1, 314391, Control_c, 0, 64, 25
1, 314406, Control_c, 0, 64, 24
1, 314420, Control_c, 0, 64, 24
1, 314435, Control_c, 0, 64, 23
1, 314465, Control_c, 0, 64, 22
1, 314480, Control_c, 0, 64, 22
1, 314494, Control_c, 0, 64, 21
1, 314509, Control_c, 0, 64, 20
1, 314524, Control_c, 0, 64, 19
1, 314539, Control_c, 0, 64, 18
1, 314554, Control_c, 0, 64, 18
1, 314583, Control_c, 0, 64, 17
1, 314586, Note_off_c, 0, 65, 22
1, 314598, Control_c, 0, 64, 16
1, 314601, Note_on_c, 0, 60, 43
1, 314613, Control_c, 0, 64, 16
1, 314628, Control_c, 0, 64, 15
1, 314643, Control_c, 0, 64, 15
1, 314667, Note_off_c, 0, 64, 31
1, 314674, Note_off_c, 0, 62, 35
1, 314680, Note_off_c, 0, 57, 41
1, 314680, Control_c, 0, 64, 14
1, 314709, Control_c, 0, 64, 14
1, 314739, Control_c, 0, 64, 13
1, 314754, Note_on_c, 0, 58, 48
1, 314754, Control_c, 0, 64, 13
1, 314768, Control_c, 0, 64, 12
1, 314799, Control_c, 0, 64, 12
1, 314814, Control_c, 0, 64, 11
1, 314829, Control_c, 0, 64, 11
1, 314863, Note_off_c, 0, 60, 28
1, 314873, Control_c, 0, 64, 10
1, 314888, Control_c, 0, 64, 10
1, 314901, Note_on_c, 0, 57, 53
1, 314908, Note_off_c, 0, 58, 58
1, 314917, Control_c, 0, 64, 9
1, 314932, Control_c, 0, 64, 9
1, 314947, Control_c, 0, 64, 8
1, 314962, Control_c, 0, 64, 8
1, 314977, Control_c, 0, 64, 0
1, 315039, Note_on_c, 0, 55, 52
1, 315069, Note_off_c, 0, 57, 37
1, 315110, Note_off_c, 0, 55, 65
1, 315148, Note_on_c, 0, 53, 36
1, 315210, Note_off_c, 0, 53, 52
1, 315236, Note_on_c, 0, 55, 52
1, 315293, Note_off_c, 0, 55, 63
1, 315314, Note_on_c, 0, 57, 51
1, 315375, Note_off_c, 0, 57, 56
1, 315379, Note_on_c, 0, 58, 53
1, 315462, Note_off_c, 0, 58, 64
1, 315469, Note_on_c, 0, 60, 56
1, 315510, Note_off_c, 0, 60, 64
1, 315522, Note_on_c, 0, 62, 57
1, 315589, Note_off_c, 0, 62, 62
1, 315600, Note_on_c, 0, 64, 57
1, 315633, Note_off_c, 0, 64, 65
1, 315659, Note_on_c, 0, 65, 59
1, 315719, Note_off_c, 0, 65, 60
1, 315733, Note_on_c, 0, 67, 64
1, 315802, Note_on_c, 0, 69, 66
1, 315807, Note_off_c, 0, 67, 60
1, 315860, Note_on_c, 0, 70, 61
1, 315867, Note_off_c, 0, 69, 65
1, 315896, Note_off_c, 0, 70, 63
1, 315929, Note_on_c, 0, 72, 64
1, 315987, Note_off_c, 0, 72, 62
1, 315991, Note_on_c, 0, 74, 68
1, 316050, Note_off_c, 0, 74, 65
1, 316055, Note_on_c, 0, 76, 70
1, 316104, Note_off_c, 0, 76, 66
1, 316118, Note_on_c, 0, 77, 76
1, 316181, Note_off_c, 0, 77, 62
1, 316190, Note_on_c, 0, 79, 73
1, 316242, Note_on_c, 0, 77, 66
1, 316244, Note_off_c, 0, 79, 63
1, 316309, Note_on_c, 0, 79, 73
1, 316310, Note_off_c, 0, 77, 64
1, 316369, Note_off_c, 0, 79, 63
1, 316372, Note_on_c, 0, 81, 75
1, 316426, Note_off_c, 0, 81, 62
1, 316427, Note_on_c, 0, 79, 67
1, 316490, Note_off_c, 0, 79, 61
1, 316494, Note_on_c, 0, 81, 74
1, 316549, Note_off_c, 0, 81, 63
1, 316551, Note_on_c, 0, 79, 63
1, 316604, Note_off_c, 0, 79, 63
1, 316612, Note_on_c, 0, 81, 74
1, 316664, Note_off_c, 0, 81, 61
1, 316666, Note_on_c, 0, 79, 67
1, 316723, Note_off_c, 0, 79, 62
1, 316732, Note_on_c, 0, 81, 76
1, 316783, Note_off_c, 0, 81, 61
1, 316785, Note_on_c, 0, 79, 64
1, 316837, Note_off_c, 0, 79, 62
1, 316843, Note_on_c, 0, 81, 72
1, 316897, Note_off_c, 0, 81, 61
1, 316898, Note_on_c, 0, 79, 64
1, 316950, Note_off_c, 0, 79, 62
1, 316956, Note_on_c, 0, 81, 70
1, 317008, Note_on_c, 0, 79, 72
1, 317020, Note_off_c, 0, 81, 63
1, 317080, Note_off_c, 0, 79, 63
1, 317085, Note_on_c, 0, 77, 73
1, 317273, Note_on_c, 0, 79, 76
1, 317315, Note_off_c, 0, 77, 57
1, 317558, Note_on_c, 0, 82, 78
1, 317570, Note_on_c, 0, 60, 57
1, 317576, Note_on_c, 0, 53, 48
1, 317645, Note_off_c, 0, 79, 57
1, 317894, Note_on_c, 0, 81, 82
1, 317946, Note_off_c, 0, 82, 61
1, 318103, Note_on_c, 0, 79, 81
1, 318140, Note_off_c, 0, 81, 61
1, 318289, Note_on_c, 0, 81, 74
1, 318333, Note_off_c, 0, 79, 62
1, 318749, Control_c, 0, 64, 12
1, 318764, Control_c, 0, 64, 22
1, 318780, Control_c, 0, 64, 30
1, 318795, Control_c, 0, 64, 38
1, 318810, Control_c, 0, 64, 46
1, 318825, Control_c, 0, 64, 52
1, 318839, Control_c, 0, 64, 57
1, 318855, Control_c, 0, 64, 59
1, 318870, Control_c, 0, 64, 61
1, 318884, Control_c, 0, 64, 62
1, 318899, Control_c, 0, 64, 64
1, 318914, Control_c, 0, 64, 65
1, 318929, Control_c, 0, 64, 65
1, 318944, Control_c, 0, 64, 66
1, 318973, Control_c, 0, 64, 66
1, 319076, Control_c, 0, 64, 67
1, 319796, Control_c, 0, 64, 66
1, 319811, Control_c, 0, 64, 64
1, 319815, Note_on_c, 0, 64, 58
1, 319825, Control_c, 0, 64, 61
1, 319840, Control_c, 0, 64, 57
1, 319855, Control_c, 0, 64, 54
1, 319885, Control_c, 0, 64, 55
1, 319907, Control_c, 0, 64, 58
1, 319922, Control_c, 0, 64, 60
1, 319937, Control_c, 0, 64, 61
1, 319952, Control_c, 0, 64, 61
1, 319967, Control_c, 0, 64, 62
1, 319981, Control_c, 0, 64, 62
1, 320040, Control_c, 0, 64, 63
1, 320134, Note_off_c, 0, 64, 36
1, 320144, Control_c, 0, 64, 63
1, 320232, Control_c, 0, 64, 64
1, 320744, Control_c, 0, 64, 63
1, 320818, Control_c, 0, 64, 63
1, 320822, Note_on_c, 0, 65, 54
1, 320839, Note_on_c, 0, 57, 43
1, 320877, Control_c, 0, 64, 62
1, 320907, Control_c, 0, 64, 62
1, 320922, Control_c, 0, 64, 61
1, 320936, Control_c, 0, 64, 58
1, 320951, Control_c, 0, 64, 52
1, 320966, Control_c, 0, 64, 46
1, 320980, Control_c, 0, 64, 39
1, 320995, Control_c, 0, 64, 34
1, 321010, Control_c, 0, 64, 28
1, 321025, Control_c, 0, 64, 18
1, 321037, Note_off_c, 0, 60, 40
1, 321040, Control_c, 0, 64, 0
1, 321077, Note_off_c, 0, 53, 46
1, 321267, Note_on_c, 0, 79, 73
1, 321390, Note_off_c, 0, 81, 45
1, 321683, Note_on_c, 0, 82, 68
1, 321748, Note_off_c, 0, 79, 57
1, 321988, Note_on_c, 0, 81, 74
1, 322032, Note_off_c, 0, 82, 60
1, 322191, Note_on_c, 0, 79, 74
1, 322230, Note_off_c, 0, 81, 57
1, 322310, Note_on_c, 0, 77, 67
1, 322316, Note_off_c, 0, 79, 62
1, 322423, Note_on_c, 0, 76, 71
1, 322427, Note_off_c, 0, 77, 61
1, 322524, Note_off_c, 0, 76, 66
1, 322530, Note_on_c, 0, 77, 74
1, 322632, Note_on_c, 0, 74, 65
1, 322658, Note_off_c, 0, 77, 57
1, 322753, Note_on_c, 0, 76, 65
1, 322764, Note_off_c, 0, 74, 50
1, 322939, Note_off_c, 0, 76, 62
1, 322947, Note_on_c, 0, 73, 61
1, 322972, Note_off_c, 0, 65, 44
1, 322986, Note_off_c, 0, 57, 61
1, 323021, Control_c, 0, 64, 22
1, 323036, Control_c, 0, 64, 30
1, 323050, Control_c, 0, 64, 37
1, 323065, Control_c, 0, 64, 42
1, 323080, Control_c, 0, 64, 46
1, 323095, Control_c, 0, 64, 48
1, 323110, Control_c, 0, 64, 49
1, 323124, Control_c, 0, 64, 49
1, 323139, Control_c, 0, 64, 48
1, 323148, Note_on_c, 0, 46, 54
1, 323154, Control_c, 0, 64, 48
1, 323169, Control_c, 0, 64, 47
1, 323183, Control_c, 0, 64, 46
1, 323198, Control_c, 0, 64, 46
1, 323213, Control_c, 0, 64, 45
1, 323228, Control_c, 0, 64, 45
1, 323243, Control_c, 0, 64, 44
1, 323258, Control_c, 0, 64, 43
1, 323273, Control_c, 0, 64, 42
1, 323288, Control_c, 0, 64, 42
1, 323302, Control_c, 0, 64, 41
1, 323332, Control_c, 0, 64, 40
1, 323347, Control_c, 0, 64, 39
1, 323362, Control_c, 0, 64, 38
1, 323376, Control_c, 0, 64, 37
1, 323391, Control_c, 0, 64, 37
1, 323406, Control_c, 0, 64, 36
1, 323421, Control_c, 0, 64, 35
1, 323436, Control_c, 0, 64, 33
1, 323445, Note_on_c, 0, 58, 40
1, 323450, Control_c, 0, 64, 32
1, 323465, Control_c, 0, 64, 30
1, 323480, Control_c, 0, 64, 29
1, 323495, Control_c, 0, 64, 27
1, 323510, Control_c, 0, 64, 25
1, 323524, Control_c, 0, 64, 23
1, 323539, Control_c, 0, 64, 21
1, 323545, Note_on_c, 0, 76, 55
1, 323554, Control_c, 0, 64, 19
1, 323570, Control_c, 0, 64, 16
1, 323585, Control_c, 0, 64, 14
1, 323599, Control_c, 0, 64, 9
1, 323614, Control_c, 0, 64, 0
1, 323630, Note_off_c, 0, 73, 39
1, 323794, Note_off_c, 0, 76, 58
1, 323800, Note_on_c, 0, 74, 48
1, 323946, Note_off_c, 0, 74, 60
1, 323952, Note_on_c, 0, 73, 56
1, 324110, Note_on_c, 0, 74, 48
1, 324137, Note_off_c, 0, 73, 36
1, 324622, Control_c, 0, 64, 11
1, 324637, Control_c, 0, 64, 16
1, 324652, Control_c, 0, 64, 19
1, 324667, Control_c, 0, 64, 21
1, 324682, Control_c, 0, 64, 22
1, 324726, Control_c, 0, 64, 22
1, 324844, Control_c, 0, 64, 22
1, 324888, Note_on_c, 0, 72, 43
1, 324906, Note_off_c, 0, 74, 36
1, 325022, Note_off_c, 0, 72, 47
1, 325033, Note_on_c, 0, 70, 52
1, 325081, Control_c, 0, 64, 21
1, 325110, Control_c, 0, 64, 21
1, 325117, Note_off_c, 0, 70, 56
1, 325118, Note_on_c, 0, 69, 56
1, 325136, Note_off_c, 0, 46, 54
1, 325140, Control_c, 0, 64, 20
1, 325173, Note_off_c, 0, 69, 59
1, 325192, Note_on_c, 0, 67, 59
1, 325193, Control_c, 0, 64, 20
1, 325207, Control_c, 0, 64, 19
1, 325222, Control_c, 0, 64, 19
1, 325249, Note_off_c, 0, 67, 46
1, 325252, Control_c, 0, 64, 18
1, 325267, Note_off_c, 0, 58, 47
1, 325267, Control_c, 0, 64, 18
1, 325271, Note_on_c, 0, 65, 65
1, 325297, Control_c, 0, 64, 17
1, 325312, Control_c, 0, 64, 16
1, 325326, Control_c, 0, 64, 16
1, 325331, Note_on_c, 0, 64, 67
1, 325341, Note_off_c, 0, 65, 62
1, 325341, Control_c, 0, 64, 15
1, 325356, Control_c, 0, 64, 14
1, 325385, Control_c, 0, 64, 14
1, 325386, Note_on_c, 0, 62, 68
1, 325400, Note_off_c, 0, 64, 61
1, 325415, Control_c, 0, 64, 13
1, 325444, Control_c, 0, 64, 13
1, 325448, Note_off_c, 0, 62, 62
1, 325451, Note_on_c, 0, 60, 59
1, 325459, Control_c, 0, 64, 12
1, 325474, Control_c, 0, 64, 12
1, 325489, Control_c, 0, 64, 11
1, 325511, Note_on_c, 0, 58, 64
1, 325517, Note_off_c, 0, 60, 61
1, 325518, Control_c, 0, 64, 10
1, 325533, Control_c, 0, 64, 9
1, 325548, Control_c, 0, 64, 9
1, 325577, Note_on_c, 0, 57, 61
1, 325577, Control_c, 0, 64, 8
1, 325590, Note_off_c, 0, 58, 62
1, 325593, Control_c, 0, 64, 0
1, 325633, Note_off_c, 0, 57, 60
1, 325647, Note_on_c, 0, 55, 63
1, 325724, Note_off_c, 0, 55, 65
1, 325726, Note_on_c, 0, 57, 64
1, 325777, Note_off_c, 0, 57, 62
1, 325783, Note_on_c, 0, 58, 66
1, 325830, Note_off_c, 0, 58, 61
1, 325840, Note_on_c, 0, 60, 61
1, 325881, Note_on_c, 0, 62, 59
1, 325897, Note_off_c, 0, 60, 64
1, 325938, Note_off_c, 0, 62, 62
1, 325939, Note_on_c, 0, 64, 64
1, 326003, Note_off_c, 0, 64, 63
1, 326010, Note_on_c, 0, 66, 65
1, 326047, Note_off_c, 0, 66, 64
1, 326069, Note_on_c, 0, 67, 68
1, 326116, Note_off_c, 0, 67, 60
1, 326135, Note_on_c, 0, 69, 69
1, 326186, Note_off_c, 0, 69, 65
1, 326191, Note_on_c, 0, 70, 65
1, 326218, Note_off_c, 0, 70, 68
1, 326255, Note_on_c, 0, 72, 69
1, 326312, Note_off_c, 0, 72, 62
1, 326313, Note_on_c, 0, 74, 70
1, 326370, Note_on_c, 0, 76, 75
1, 326382, Note_off_c, 0, 74, 65
1, 326431, Note_on_c, 0, 78, 67
1, 326433, Note_off_c, 0, 76, 67
1, 326486, Note_off_c, 0, 78, 67
1, 326488, Note_on_c, 0, 79, 69
1, 326548, Note_off_c, 0, 79, 58
1, 326557, Note_on_c, 0, 78, 66
1, 326619, Note_off_c, 0, 78, 66
1, 326625, Note_on_c, 0, 79, 67
1, 326689, Note_off_c, 0, 79, 63
1, 326692, Note_on_c, 0, 78, 72
1, 326747, Note_off_c, 0, 78, 66
1, 326756, Note_on_c, 0, 79, 66
1, 326810, Note_off_c, 0, 79, 63
1, 326814, Note_on_c, 0, 78, 71
1, 326868, Note_off_c, 0, 78, 66
1, 326874, Note_on_c, 0, 79, 70
1, 326929, Note_off_c, 0, 79, 64
1, 326934, Note_on_c, 0, 78, 71
1, 326985, Note_off_c, 0, 78, 67
1, 326986, Note_on_c, 0, 79, 72
1, 327051, Note_on_c, 0, 78, 79
1, 327061, Note_off_c, 0, 79, 63
1, 327127, Note_on_c, 0, 76, 71
1, 327128, Note_off_c, 0, 78, 62
1, 327263, Note_on_c, 0, 78, 77
1, 327288, Note_off_c, 0, 76, 59
1, 327340, Note_on_c, 0, 55, 43
1, 327414, Note_on_c, 0, 58, 45
1, 327543, Note_on_c, 0, 81, 77
1, 327547, Note_on_c, 0, 62, 53
1, 327579, Note_off_c, 0, 78, 64
1, 327771, Note_on_c, 0, 79, 74
1, 327806, Note_off_c, 0, 81, 61
1, 327920, Note_on_c, 0, 78, 76
1, 327931, Note_off_c, 0, 79, 60
1, 328078, Note_on_c, 0, 79, 67
1, 328106, Note_off_c, 0, 78, 64
1, 329563, Note_on_c, 0, 82, 42
1, 329696, Note_off_c, 0, 79, 42
1, 329937, Control_c, 0, 64, 23
1, 329951, Control_c, 0, 64, 33
1, 329967, Control_c, 0, 64, 40
1, 329982, Control_c, 0, 64, 48
1, 329997, Control_c, 0, 64, 54
1, 330012, Control_c, 0, 64, 58
1, 330027, Control_c, 0, 64, 60
1, 330041, Control_c, 0, 64, 63
1, 330056, Control_c, 0, 64, 65
1, 330071, Control_c, 0, 64, 66
1, 330086, Control_c, 0, 64, 66
1, 330101, Control_c, 0, 64, 67
1, 330115, Control_c, 0, 64, 67
1, 330120, Note_off_c, 0, 62, 40
1, 330130, Control_c, 0, 64, 68
1, 330140, Note_off_c, 0, 55, 43
1, 330145, Control_c, 0, 64, 69
1, 330156, Note_off_c, 0, 58, 33
1, 330159, Control_c, 0, 64, 70
1, 330404, Control_c, 0, 64, 69
1, 330493, Control_c, 0, 64, 69
1, 330567, Control_c, 0, 64, 68
1, 330671, Control_c, 0, 64, 68
1, 330745, Control_c, 0, 64, 67
1, 330878, Control_c, 0, 64, 67
1, 330967, Control_c, 0, 64, 66
1, 331056, Control_c, 0, 64, 66
1, 331152, Control_c, 0, 64, 65
1, 331211, Note_on_c, 0, 46, 38
1, 331211, Control_c, 0, 64, 65
1, 331229, Note_on_c, 0, 43, 28
1, 331231, Note_on_c, 0, 52, 21
1, 331241, Control_c, 0, 64, 64
1, 331256, Control_c, 0, 64, 64
1, 331270, Control_c, 0, 64, 63
1, 331285, Control_c, 0, 64, 62
1, 331300, Control_c, 0, 64, 61
1, 331315, Control_c, 0, 64, 59
1, 331330, Control_c, 0, 64, 56
1, 331345, Control_c, 0, 64, 52
1, 331360, Control_c, 0, 64, 46
1, 331375, Control_c, 0, 64, 40
1, 331389, Control_c, 0, 64, 36
1, 331404, Control_c, 0, 64, 33
1, 331419, Control_c, 0, 64, 30
1, 331434, Control_c, 0, 64, 28
1, 331449, Control_c, 0, 64, 26
1, 331463, Control_c, 0, 64, 22
1, 331478, Control_c, 0, 64, 19
1, 331493, Control_c, 0, 64, 15
1, 331507, Control_c, 0, 64, 12
1, 331522, Control_c, 0, 64, 8
1, 331537, Control_c, 0, 64, 0
1, 331669, Note_on_c, 0, 81, 47
1, 332068, Note_on_c, 0, 79, 48
1, 332092, Note_off_c, 0, 81, 46
1, 332095, Note_off_c, 0, 82, 43
1, 332272, Note_off_c, 0, 79, 51
1, 332298, Note_on_c, 0, 77, 46
1, 332372, Note_off_c, 0, 77, 54
1, 332397, Note_on_c, 0, 79, 59
1, 332470, Note_off_c, 0, 79, 58
1, 332484, Note_on_c, 0, 76, 57
1, 332538, Note_off_c, 0, 76, 61
1, 332572, Note_on_c, 0, 77, 54
1, 332653, Note_off_c, 0, 77, 58
1, 332668, Note_on_c, 0, 74, 50
1, 332854, Note_on_c, 0, 45, 38
1, 332859, Note_off_c, 0, 46, 43
1, 332885, Note_off_c, 0, 74, 37
1, 332961, Control_c, 0, 64, 21
1, 332963, Note_off_c, 0, 52, 43
1, 332976, Control_c, 0, 64, 28
1, 332991, Control_c, 0, 64, 33
1, 332992, Note_off_c, 0, 43, 41
1, 333006, Control_c, 0, 64, 36
1, 333014, Note_on_c, 0, 74, 44
1, 333021, Control_c, 0, 64, 38
1, 333035, Control_c, 0, 64, 39
1, 333050, Control_c, 0, 64, 40
1, 333124, Control_c, 0, 64, 40
1, 333155, Control_c, 0, 64, 40
1, 333170, Control_c, 0, 64, 39
1, 333184, Control_c, 0, 64, 38
1, 333199, Control_c, 0, 64, 37
1, 333204, Note_off_c, 0, 74, 61
1, 333214, Control_c, 0, 64, 35
1, 333229, Control_c, 0, 64, 34
1, 333244, Control_c, 0, 64, 32
1, 333248, Note_on_c, 0, 73, 40
1, 333259, Control_c, 0, 64, 30
1, 333274, Control_c, 0, 64, 28
1, 333288, Control_c, 0, 64, 28
1, 333303, Control_c, 0, 64, 27
1, 333318, Control_c, 0, 64, 27
1, 333324, Note_off_c, 0, 73, 51
1, 333333, Control_c, 0, 64, 26
1, 333336, Note_on_c, 0, 74, 48
1, 333348, Control_c, 0, 64, 25
1, 333363, Control_c, 0, 64, 25
1, 333384, Control_c, 0, 64, 24
1, 333399, Control_c, 0, 64, 23
1, 333404, Note_off_c, 0, 74, 63
1, 333414, Control_c, 0, 64, 22
1, 333426, Note_on_c, 0, 73, 52
1, 333429, Control_c, 0, 64, 21
1, 333444, Control_c, 0, 64, 20
1, 333458, Control_c, 0, 64, 19
1, 333473, Control_c, 0, 64, 17
1, 333474, Note_off_c, 0, 73, 61
1, 333488, Control_c, 0, 64, 15
1, 333503, Control_c, 0, 64, 11
1, 333504, Note_on_c, 0, 74, 44
1, 333518, Control_c, 0, 64, 0
1, 333539, Note_off_c, 0, 74, 63
1, 333560, Note_on_c, 0, 73, 56
1, 333598, Note_off_c, 0, 73, 61
1, 333631, Note_on_c, 0, 74, 52
1, 333662, Note_off_c, 0, 74, 67
1, 333683, Note_on_c, 0, 73, 62
1, 333722, Note_off_c, 0, 73, 61
1, 333742, Note_on_c, 0, 74, 56
1, 333780, Note_off_c, 0, 74, 63
1, 333795, Note_on_c, 0, 73, 61
1, 333843, Note_off_c, 0, 73, 61
1, 333863, Note_on_c, 0, 74, 57
1, 333903, Note_off_c, 0, 74, 62
1, 333914, Note_on_c, 0, 73, 48
1, 333957, Note_off_c, 0, 73, 59
1, 333975, Note_on_c, 0, 74, 38
1, 334037, Note_on_c, 0, 73, 26
1, 334075, Note_off_c, 0, 74, 0
1, 334102, Note_on_c, 0, 74, 26
1, 334117, Note_on_c, 0, 57, 37
1, 334162, Note_off_c, 0, 74, 64
1, 334225, Note_off_c, 0, 45, 42
1, 334475, Control_c, 0, 64, 11
1, 334489, Control_c, 0, 64, 26
1, 334504, Control_c, 0, 64, 34
1, 334519, Control_c, 0, 64, 43
1, 334533, Control_c, 0, 64, 49
1, 334548, Control_c, 0, 64, 53
1, 334563, Control_c, 0, 64, 54
1, 334566, Note_off_c, 0, 73, 40
1, 334593, Control_c, 0, 64, 55
1, 334681, Control_c, 0, 64, 54
1, 334691, Note_on_c, 0, 73, 48
1, 334711, Control_c, 0, 64, 54
1, 334725, Control_c, 0, 64, 53
1, 334740, Control_c, 0, 64, 53
1, 334756, Control_c, 0, 64, 52
1, 334762, Note_off_c, 0, 73, 0
1, 334762, Note_on_c, 0, 73, 8
1, 334771, Control_c, 0, 64, 51
1, 334801, Control_c, 0, 64, 51
1, 334860, Control_c, 0, 64, 50
1, 334883, Control_c, 0, 64, 50
1, 334971, Control_c, 0, 64, 49
1, 335134, Control_c, 0, 64, 49
1, 335208, Control_c, 0, 64, 48
1, 335238, Control_c, 0, 64, 48
1, 335268, Control_c, 0, 64, 47
1, 335282, Control_c, 0, 64, 47
1, 335288, Note_on_c, 0, 76, 46
1, 335297, Control_c, 0, 64, 46
1, 335304, Note_on_c, 0, 55, 36
1, 335312, Control_c, 0, 64, 46
1, 335326, Control_c, 0, 64, 44
1, 335341, Control_c, 0, 64, 41
1, 335355, Control_c, 0, 64, 38
1, 335370, Control_c, 0, 64, 35
1, 335385, Control_c, 0, 64, 30
1, 335396, Note_off_c, 0, 73, 40
1, 335400, Control_c, 0, 64, 27
1, 335415, Control_c, 0, 64, 22
1, 335429, Control_c, 0, 64, 15
1, 335444, Control_c, 0, 64, 0
1, 335467, Note_off_c, 0, 57, 42
1, 335947, Note_on_c, 0, 73, 40
1, 336009, Note_off_c, 0, 76, 34
1, 336076, Control_c, 0, 64, 14
1, 336090, Control_c, 0, 64, 23
1, 336105, Control_c, 0, 64, 30
1, 336120, Control_c, 0, 64, 37
1, 336135, Control_c, 0, 64, 43
1, 336150, Control_c, 0, 64, 49
1, 336165, Control_c, 0, 64, 53
1, 336167, Note_off_c, 0, 73, 42
1, 336179, Control_c, 0, 64, 54
1, 336194, Control_c, 0, 64, 55
1, 336268, Control_c, 0, 64, 54
1, 336312, Control_c, 0, 64, 54
1, 336327, Control_c, 0, 64, 53
1, 336342, Control_c, 0, 64, 53
1, 336395, Control_c, 0, 64, 52
1, 336424, Control_c, 0, 64, 51
1, 336439, Control_c, 0, 64, 51
1, 336454, Control_c, 0, 64, 50
1, 336491, Note_on_c, 0, 71, 34
1, 336499, Control_c, 0, 64, 50
1, 336514, Control_c, 0, 64, 48
1, 336528, Control_c, 0, 64, 46
1, 336540, Note_off_c, 0, 71, 45
1, 336543, Control_c, 0, 64, 43
1, 336558, Control_c, 0, 64, 42
1, 336573, Control_c, 0, 64, 40
1, 336576, Note_on_c, 0, 73, 33
1, 336588, Control_c, 0, 64, 38
1, 336602, Control_c, 0, 64, 33
1, 336617, Control_c, 0, 64, 26
1, 336626, Note_on_c, 0, 71, 48
1, 336632, Control_c, 0, 64, 17
1, 336636, Note_off_c, 0, 73, 41
1, 336647, Control_c, 0, 64, 0
1, 337421, Note_off_c, 0, 71, 60
1, 337448, Note_on_c, 0, 69, 43
1, 337773, Note_on_c, 0, 57, 29
1, 337775, Note_on_c, 0, 53, 27
1, 337885, Note_on_c, 0, 76, 38
1, 337943, Note_off_c, 0, 55, 38
1, 337989, Note_off_c, 0, 69, 40
1, 338001, Note_on_c, 0, 74, 30
1, 338019, Note_off_c, 0, 76, 44
1, 338037, Note_off_c, 0, 74, 55
1, 338054, Note_on_c, 0, 73, 42
1, 338144, Note_on_c, 0, 74, 42
1, 338187, Note_off_c, 0, 73, 42
1, 339000, Note_off_c, 0, 74, 57
1, 339020, Note_on_c, 0, 69, 40
1, 339324, Note_on_c, 0, 62, 28
1, 339431, Note_off_c, 0, 69, 43
1, 339445, Note_on_c, 0, 70, 33
1, 339528, Note_off_c, 0, 70, 56
1, 339557, Note_on_c, 0, 69, 46
1, 339629, Note_off_c, 0, 69, 60
1, 339654, Note_on_c, 0, 70, 52
1, 339698, Note_off_c, 0, 70, 61
1, 339720, Note_on_c, 0, 69, 49
1, 339763, Note_off_c, 0, 69, 63
1, 339793, Note_on_c, 0, 70, 56
1, 339830, Note_off_c, 0, 70, 61
1, 339856, Note_on_c, 0, 69, 49
1, 339885, Note_off_c, 0, 69, 59
1, 339915, Note_on_c, 0, 70, 58
1, 339950, Note_off_c, 0, 70, 62
1, 339969, Note_on_c, 0, 69, 62
1, 340001, Note_off_c, 0, 69, 62
1, 340034, Note_on_c, 0, 70, 54
1, 340066, Note_off_c, 0, 70, 56
1, 340083, Note_on_c, 0, 69, 56
1, 340132, Note_off_c, 0, 69, 61
1, 340142, Note_on_c, 0, 70, 56
1, 340209, Note_on_c, 0, 69, 51
1, 340226, Note_off_c, 0, 70, 63
1, 340290, Note_off_c, 0, 69, 60
1, 340296, Note_on_c, 0, 67, 50
1, 340449, Note_on_c, 0, 69, 58
1, 340449, Note_off_c, 0, 67, 57
1, 340699, Note_on_c, 0, 76, 66
1, 340704, Note_on_c, 0, 52, 37
1, 340707, Note_on_c, 0, 55, 38
1, 340845, Note_off_c, 0, 53, 26
1, 340850, Note_off_c, 0, 69, 39
1, 340924, Note_off_c, 0, 62, 43
1, 340966, Note_off_c, 0, 57, 40
1, 341707, Note_on_c, 0, 69, 68
1, 341804, Note_off_c, 0, 76, 60
1, 342020, Note_on_c, 0, 61, 49
1, 342022, Note_on_c, 0, 70, 71
1, 342028, Note_on_c, 0, 64, 55
1, 342098, Note_off_c, 0, 69, 58
1, 342175, Note_off_c, 0, 55, 39
1, 342234, Note_off_c, 0, 70, 61
1, 342249, Note_on_c, 0, 69, 62
1, 342298, Note_off_c, 0, 52, 43
1, 342335, Note_off_c, 0, 69, 64
1, 342348, Note_on_c, 0, 70, 69
1, 342413, Note_off_c, 0, 70, 64
1, 342422, Note_on_c, 0, 69, 62
1, 342481, Note_off_c, 0, 69, 64
1, 342491, Note_on_c, 0, 70, 68
1, 342544, Note_off_c, 0, 70, 63
1, 342552, Note_on_c, 0, 69, 65
1, 342602, Note_off_c, 0, 69, 61
1, 342616, Note_on_c, 0, 70, 70
1, 342668, Note_off_c, 0, 70, 64
1, 342672, Note_on_c, 0, 69, 62
1, 342721, Note_off_c, 0, 69, 62
1, 342729, Note_on_c, 0, 70, 72
1, 342800, Note_off_c, 0, 70, 63
1, 342802, Note_on_c, 0, 69, 74
1, 342877, Note_off_c, 0, 69, 64
1, 342881, Note_on_c, 0, 67, 76
1, 343158, Note_on_c, 0, 69, 88
1, 343196, Note_off_c, 0, 67, 37
1, 343236, Control_c, 0, 64, 8
1, 343242, Note_off_c, 0, 61, 63
1, 343251, Control_c, 0, 64, 33
1, 343266, Control_c, 0, 64, 46
1, 343281, Control_c, 0, 64, 56
1, 343294, Note_off_c, 0, 64, 37
1, 343295, Control_c, 0, 64, 60
1, 343310, Control_c, 0, 64, 60
1, 343325, Control_c, 0, 64, 61
1, 343340, Control_c, 0, 64, 62
1, 343355, Control_c, 0, 64, 63
1, 343501, Note_on_c, 0, 77, 87
1, 343503, Control_c, 0, 64, 63
1, 343505, Note_on_c, 0, 62, 70
1, 343513, Note_on_c, 0, 50, 64
1, 343515, Note_on_c, 0, 57, 58
1, 343564, Control_c, 0, 64, 62
1, 343579, Control_c, 0, 64, 61
1, 343593, Control_c, 0, 64, 57
1, 343608, Control_c, 0, 64, 50
1, 343623, Control_c, 0, 64, 37
1, 343638, Control_c, 0, 64, 14
1, 343651, Note_off_c, 0, 69, 54
1, 343653, Control_c, 0, 64, 0
1, 344765, Note_on_c, 0, 74, 73
1, 344904, Note_off_c, 0, 77, 53
1, 345088, Note_on_c, 0, 73, 76
1, 345122, Note_off_c, 0, 74, 61
1, 345329, Note_on_c, 0, 74, 76
1, 345352, Note_off_c, 0, 73, 63
1, 345591, Note_on_c, 0, 76, 79
1, 345609, Note_off_c, 0, 74, 61
1, 345744, Note_on_c, 0, 77, 85
1, 345783, Note_off_c, 0, 76, 66
1, 345787, Note_off_c, 0, 62, 45
1, 345933, Note_on_c, 0, 79, 87
1, 345940, Note_on_c, 0, 58, 70
1, 345956, Note_off_c, 0, 77, 62
1, 346002, Note_off_c, 0, 57, 49
1, 346103, Note_off_c, 0, 50, 42
1, 346246, Note_on_c, 0, 81, 86
1, 346293, Note_off_c, 0, 79, 54
1, 346518, Note_on_c, 0, 82, 80
1, 346549, Note_off_c, 0, 81, 63
1, 346819, Note_on_c, 0, 79, 80
1, 346839, Note_off_c, 0, 82, 62
1, 347163, Note_on_c, 0, 75, 74
1, 347164, Note_on_c, 0, 55, 59
1, 347216, Note_off_c, 0, 79, 59
1, 347325, Note_off_c, 0, 58, 58
1, 347537, Note_on_c, 0, 73, 72
1, 347601, Note_off_c, 0, 75, 59
1, 347902, Note_on_c, 0, 74, 70
1, 347965, Note_off_c, 0, 73, 59
1, 348312, Note_on_c, 0, 71, 69
1, 348377, Note_off_c, 0, 74, 58
1, 348867, Note_on_c, 0, 74, 62
1, 348879, Note_on_c, 0, 57, 43
1, 348960, Note_off_c, 0, 71, 56
1, 349025, Note_off_c, 0, 55, 42
1, 349253, Note_off_c, 0, 74, 59
1, 349259, Note_on_c, 0, 73, 50
1, 349412, Note_off_c, 0, 73, 61
1, 349426, Note_on_c, 0, 74, 52
1, 349526, Note_off_c, 0, 74, 61
1, 349544, Note_on_c, 0, 73, 59
1, 349631, Note_off_c, 0, 73, 62
1, 349645, Note_on_c, 0, 74, 60
1, 349708, Note_off_c, 0, 74, 64
1, 349726, Note_on_c, 0, 73, 55
1, 349784, Note_off_c, 0, 73, 63
1, 349800, Note_on_c, 0, 74, 56
1, 349860, Note_off_c, 0, 74, 63
1, 349871, Note_on_c, 0, 73, 61
1, 349933, Note_off_c, 0, 73, 63
1, 349946, Note_on_c, 0, 74, 57
1, 349992, Note_off_c, 0, 74, 65
1, 350003, Note_on_c, 0, 73, 59
1, 350062, Note_off_c, 0, 73, 64
1, 350071, Note_on_c, 0, 74, 61
1, 350119, Note_off_c, 0, 74, 64
1, 350128, Note_on_c, 0, 73, 56
1, 350185, Note_off_c, 0, 73, 64
1, 350192, Note_on_c, 0, 74, 61
1, 350249, Note_off_c, 0, 74, 64
1, 350250, Note_on_c, 0, 73, 63
1, 350313, Note_off_c, 0, 73, 64
1, 350318, Note_on_c, 0, 74, 65
1, 350376, Note_off_c, 0, 74, 66
1, 350382, Note_on_c, 0, 73, 58
1, 350436, Note_off_c, 0, 73, 64
1, 350439, Note_on_c, 0, 74, 60
1, 350500, Note_off_c, 0, 74, 66
1, 350505, Note_on_c, 0, 73, 62
1, 350560, Note_off_c, 0, 73, 64
1, 350570, Note_on_c, 0, 74, 56
1, 350623, Note_off_c, 0, 74, 66
1, 350631, Note_on_c, 0, 73, 56
1, 350677, Note_on_c, 0, 74, 52
1, 350680, Note_off_c, 0, 73, 63
1, 350751, Note_on_c, 0, 73, 62
1, 350766, Note_off_c, 0, 74, 65
1, 350822, Note_on_c, 0, 71, 63
1, 350828, Note_off_c, 0, 73, 63
1, 351261, Note_on_c, 0, 73, 63
1, 351304, Note_off_c, 0, 71, 58
1, 351578, Control_c, 0, 64, 19
1, 351593, Control_c, 0, 64, 28
1, 351607, Control_c, 0, 64, 36
1, 351622, Control_c, 0, 64, 44
1, 351637, Control_c, 0, 64, 52
1, 351651, Control_c, 0, 64, 56
1, 351656, Note_off_c, 0, 73, 33
1, 351666, Control_c, 0, 64, 58
1, 351681, Control_c, 0, 64, 60
1, 351696, Control_c, 0, 64, 61
1, 351711, Control_c, 0, 64, 62
1, 351725, Control_c, 0, 64, 63
1, 351948, Control_c, 0, 64, 63
1, 352037, Control_c, 0, 64, 62
1, 352081, Control_c, 0, 64, 62
1, 352143, Note_on_c, 0, 73, 44
1, 352162, Note_on_c, 0, 45, 33
1, 352163, Control_c, 0, 64, 61
1, 352192, Control_c, 0, 64, 61
1, 352196, Note_off_c, 0, 73, 0
1, 352196, Note_on_c, 0, 73, 17
1, 352207, Control_c, 0, 64, 60
1, 352237, Control_c, 0, 64, 60
1, 352251, Control_c, 0, 64, 59
1, 352266, Control_c, 0, 64, 58
1, 352281, Control_c, 0, 64, 56
1, 352296, Control_c, 0, 64, 53
1, 352311, Control_c, 0, 64, 52
1, 352327, Control_c, 0, 64, 50
1, 352342, Control_c, 0, 64, 50
1, 352356, Control_c, 0, 64, 49
1, 352371, Control_c, 0, 64, 47
1, 352386, Control_c, 0, 64, 45
1, 352400, Control_c, 0, 64, 42
1, 352415, Control_c, 0, 64, 41
1, 352445, Control_c, 0, 64, 41
1, 352474, Control_c, 0, 64, 40
1, 352489, Control_c, 0, 64, 39
1, 352504, Control_c, 0, 64, 38
1, 352519, Control_c, 0, 64, 37
1, 352534, Control_c, 0, 64, 36
1, 352564, Control_c, 0, 64, 36
1, 352579, Control_c, 0, 64, 35
1, 352594, Control_c, 0, 64, 33
1, 352608, Control_c, 0, 64, 32
1, 352623, Control_c, 0, 64, 30
1, 352638, Control_c, 0, 64, 29
1, 352653, Control_c, 0, 64, 28
1, 352668, Control_c, 0, 64, 28
1, 352682, Control_c, 0, 64, 27
1, 352697, Control_c, 0, 64, 26
1, 352712, Control_c, 0, 64, 25
1, 352727, Control_c, 0, 64, 24
1, 352742, Control_c, 0, 64, 24
1, 352757, Control_c, 0, 64, 23
1, 352772, Control_c, 0, 64, 23
1, 352787, Control_c, 0, 64, 22
1, 352801, Control_c, 0, 64, 22
1, 352816, Control_c, 0, 64, 21
1, 352831, Control_c, 0, 64, 21
1, 352853, Control_c, 0, 64, 20
1, 352882, Control_c, 0, 64, 20
1, 352897, Control_c, 0, 64, 19
1, 352912, Control_c, 0, 64, 19
1, 352927, Control_c, 0, 64, 18
1, 352942, Control_c, 0, 64, 18
1, 352956, Control_c, 0, 64, 17
1, 352971, Control_c, 0, 64, 17
1, 352986, Control_c, 0, 64, 16
1, 353001, Control_c, 0, 64, 16
1, 353016, Control_c, 0, 64, 15
1, 353046, Control_c, 0, 64, 14
1, 353052, Note_off_c, 0, 57, 16
1, 353061, Control_c, 0, 64, 14
1, 353090, Control_c, 0, 64, 13
1, 353105, Control_c, 0, 64, 12
1, 353135, Control_c, 0, 64, 12
1, 353150, Control_c, 0, 64, 11
1, 353165, Control_c, 0, 64, 11
1, 353210, Control_c, 0, 64, 10
1, 353239, Control_c, 0, 64, 10
1, 353254, Control_c, 0, 64, 9
1, 353269, Control_c, 0, 64, 9
1, 353284, Control_c, 0, 64, 8
1, 353313, Control_c, 0, 64, 8
1, 353328, Control_c, 0, 64, 0
1, 354755, Note_on_c, 0, 74, 44
1, 354894, Note_off_c, 0, 73, 46
1, 355061, Control_c, 0, 64, 10
1, 355076, Control_c, 0, 64, 15
1, 355098, Control_c, 0, 64, 19
1, 355113, Control_c, 0, 64, 22
1, 355128, Control_c, 0, 64, 25
1, 355143, Control_c, 0, 64, 29
1, 355157, Control_c, 0, 64, 33
1, 355172, Control_c, 0, 64, 38
1, 355187, Control_c, 0, 64, 44
1, 355201, Control_c, 0, 64, 48
1, 355216, Control_c, 0, 64, 52
1, 355231, Control_c, 0, 64, 55
1, 355246, Control_c, 0, 64, 57
1, 355261, Control_c, 0, 64, 60
1, 355276, Control_c, 0, 64, 62
1, 355290, Control_c, 0, 64, 64
1, 355305, Control_c, 0, 64, 64
1, 355320, Control_c, 0, 64, 65
1, 355335, Control_c, 0, 64, 65
1, 355588, Control_c, 0, 64, 65
1, 355647, Control_c, 0, 64, 64
1, 355721, Control_c, 0, 64, 64
1, 355736, Control_c, 0, 64, 63
1, 355766, Control_c, 0, 64, 63
1, 355810, Control_c, 0, 64, 62
1, 355862, Control_c, 0, 64, 62
1, 355906, Control_c, 0, 64, 61
1, 355921, Control_c, 0, 64, 61
1, 355936, Control_c, 0, 64, 60
1, 355959, Note_on_c, 0, 38, 35
1, 355980, Control_c, 0, 64, 60
1, 356010, Control_c, 0, 64, 59
1, 356024, Control_c, 0, 64, 59
1, 356054, Control_c, 0, 64, 58
1, 356104, Note_off_c, 0, 74, 32
1, 356113, Control_c, 0, 64, 58
1, 356143, Control_c, 0, 64, 57
1, 356217, Control_c, 0, 64, 57
1, 356262, Control_c, 0, 64, 56
1, 356352, Control_c, 0, 64, 56
1, 356485, Control_c, 0, 64, 55
1, 356551, Note_on_c, 0, 50, 25
1, 356559, Control_c, 0, 64, 55
1, 356596, Control_c, 0, 64, 54
1, 356626, Control_c, 0, 64, 54
1, 356655, Note_on_c, 0, 62, 35
1, 356670, Control_c, 0, 64, 53
1, 356700, Control_c, 0, 64, 52
1, 356729, Control_c, 0, 64, 52
1, 356804, Note_on_c, 0, 65, 42
1, 356907, Control_c, 0, 64, 51
1, 356945, Note_on_c, 0, 69, 42
1, 357010, Control_c, 0, 64, 51
1, 357085, Control_c, 0, 64, 50
1, 357115, Control_c, 0, 64, 50
1, 357160, Control_c, 0, 64, 49
1, 357168, Note_on_c, 0, 74, 42
1, 357174, Control_c, 0, 64, 49
1, 357204, Control_c, 0, 64, 48
1, 357249, Control_c, 0, 64, 48
1, 357263, Control_c, 0, 64, 47
1, 357278, Control_c, 0, 64, 46
1, 357293, Control_c, 0, 64, 46
1, 357308, Control_c, 0, 64, 45
1, 357323, Control_c, 0, 64, 44
1, 357344, Control_c, 0, 64, 44
1, 357359, Control_c, 0, 64, 43
1, 357374, Control_c, 0, 64, 42
1, 357389, Control_c, 0, 64, 42
1, 357404, Control_c, 0, 64, 41
1, 357419, Control_c, 0, 64, 41
1, 357478, Control_c, 0, 64, 40
1, 357508, Control_c, 0, 64, 40
1, 357538, Control_c, 0, 64, 39
1, 357582, Control_c, 0, 64, 39
1, 357596, Note_off_c, 0, 45, 1
1, 359888, Control_c, 0, 64, 39
1, 359917, Control_c, 0, 64, 40
1, 359962, Control_c, 0, 64, 40
1, 360257, Control_c, 0, 64, 41
1, 360287, Control_c, 0, 64, 41
1, 361844, Note_off_c, 0, 62, 3
1, 361898, Note_off_c, 0, 65, 2
1, 361941, Control_c, 0, 64, 41
1, 361954, Note_off_c, 0, 50, 2
1, 362028, Note_off_c, 0, 38, 2
1, 362063, Note_off_c, 0, 74, 3
1, 362090, Control_c, 0, 64, 40
1, 362193, Control_c, 0, 64, 40
1, 362341, Control_c, 0, 64, 39
1, 362362, Note_off_c, 0, 69, 1
1, 362415, Control_c, 0, 64, 39
1, 362504, Control_c, 0, 64, 38
1, 362564, Control_c, 0, 64, 38
1, 362600, Control_c, 0, 64, 37
1, 362645, Control_c, 0, 64, 37
1, 362674, Control_c, 0, 64, 36
1, 362704, Control_c, 0, 64, 36
1, 362720, Control_c, 0, 64, 35
1, 362734, Control_c, 0, 64, 35
1, 362764, Control_c, 0, 64, 34
1, 362794, Control_c, 0, 64, 34
1, 362808, Control_c, 0, 64, 33
1, 362838, Control_c, 0, 64, 33
1, 362853, Control_c, 0, 64, 32
1, 362868, Control_c, 0, 64, 32
1, 362883, Control_c, 0, 64, 31
1, 362898, Control_c, 0, 64, 31
1, 362913, Control_c, 0, 64, 30
1, 362928, Control_c, 0, 64, 29
1, 362942, Control_c, 0, 64, 28
1, 362957, Control_c, 0, 64, 27
1, 362972, Control_c, 0, 64, 26
1, 362987, Control_c, 0, 64, 25
1, 363002, Control_c, 0, 64, 24
1, 363016, Control_c, 0, 64, 24
1, 363032, Control_c, 0, 64, 23
1, 363047, Control_c, 0, 64, 23
1, 363062, Control_c, 0, 64, 22
1, 363091, Control_c, 0, 64, 22
1, 363121, Control_c, 0, 64, 21
1, 363135, Control_c, 0, 64, 21
1, 363150, Control_c, 0, 64, 20
1, 363195, Control_c, 0, 64, 20
1, 363209, Control_c, 0, 64, 19
1, 363239, Control_c, 0, 64, 19
1, 363254, Control_c, 0, 64, 18
1, 363269, Control_c, 0, 64, 18
1, 363313, Control_c, 0, 64, 17
1, 363365, Control_c, 0, 64, 16
1, 363380, Control_c, 0, 64, 16
1, 363410, Control_c, 0, 64, 15
1, 363439, Control_c, 0, 64, 15
1, 363454, Control_c, 0, 64, 14
1, 363469, Control_c, 0, 64, 14
1, 363498, Control_c, 0, 64, 13
1, 363514, Control_c, 0, 64, 12
1, 363529, Control_c, 0, 64, 11
1, 363544, Control_c, 0, 64, 11
1, 363558, Control_c, 0, 64, 10
1, 363573, Control_c, 0, 64, 9
1, 363588, Control_c, 0, 64, 8
1, 363603, Control_c, 0, 64, 0
1, 363678, End_track
0, 0, End_of_file
