0, 0, Header, 0, 1, 384
1, 0, Start_track
1, 0, Title_t, "Nocture in Db, Op. 27/2--Rui Shi"
1, 0, Text_t, "2006 International Piano-e-Competition Recital Round"
1, 0, Text_t, "St. Paul, Minnesota, July 2006"
1, 0, Text_t, "http://www.piano-e-competition.com/"
1, 0, Instrument_name_t, "Yamaha Disklavier Pro Mark IV concert grand piano"
1, 0, Sequencer_specific, 39, 67, 113, 0, 1, 0, 1, 0, 78, 111, 99, 116, 117, 114, 101, 32, 105, 110, 32, 68, 98, 32, 32, 32, 82, 117, 105, 32, 83, 104, 105, 32, 32, 32, 32, 32, 32, 32, 32, 32
1, 0, Sequencer_specific, 6, 67, 113, 0, 0, 0, 69
1, 0, System_exclusive, 21, 67, 113, 126, 21, 0, 2, 2, 0, 10, 10, 12, 4, 4, 10, 10, 8, 15, 11, 0, 3, 247
1, 0, Sequencer_specific, 5, 67, 123, 12, 2, 1
1, 0, Tempo, 512820
1, 0, Time_signature, 4, 2, 24, 8
1, 0, System_exclusive, 5, 126, 127, 9, 1, 247
1, 1, System_exclusive, 8, 67, 16, 76, 0, 0, 126, 0, 247
1, 2, System_exclusive, 8, 67, 16, 76, 8, 9, 7, 1, 247
1, 3, Control_c, 0, 0, 0
1, 4, Control_c, 0, 32, 0
1, 5, Program_c, 0, 0
1, 6, Control_c, 0, 7, 100
1, 95, Control_c, 0, 64, 15
1, 95, Control_c, 0, 67, 15
1, 184, Control_c, 0, 64, 31
1, 184, Control_c, 0, 67, 31
1, 273, Control_c, 0, 64, 46
1, 273, Control_c, 0, 67, 46
1, 362, Control_c, 0, 64, 63
1, 362, Control_c, 0, 67, 63
1, 452, Control_c, 0, 64, 77
1, 452, Control_c, 0, 67, 77
1, 541, Control_c, 0, 64, 94
1, 541, Control_c, 0, 67, 94
1, 630, Control_c, 0, 64, 108
1, 630, Control_c, 0, 67, 108
1, 719, Control_c, 0, 64, 127
1, 719, Control_c, 0, 67, 127
1, 909, Note_on_c, 0, 37, 42
1, 1004, Note_off_c, 0, 37, 55
1, 1476, Note_on_c, 0, 65, 35
1, 1866, Note_on_c, 0, 56, 24
1, 1917, Note_off_c, 0, 65, 37
1, 2131, Note_off_c, 0, 56, 38
1, 2154, Note_on_c, 0, 65, 25
1, 2364, Note_off_c, 0, 65, 34
1, 2384, Note_on_c, 0, 61, 34
1, 2474, Note_off_c, 0, 61, 42
1, 2617, Note_on_c, 0, 53, 32
1, 2830, Note_off_c, 0, 53, 32
1, 2833, Note_on_c, 0, 49, 37
1, 2880, Note_off_c, 0, 49, 48
1, 3077, Note_on_c, 0, 65, 35
1, 3307, Note_off_c, 0, 65, 35
1, 3317, Note_on_c, 0, 56, 29
1, 3532, Note_off_c, 0, 56, 37
1, 3547, Note_on_c, 0, 65, 28
1, 3728, Note_off_c, 0, 65, 39
1, 3771, Note_on_c, 0, 61, 27
1, 3894, Note_off_c, 0, 61, 36
1, 4018, Note_on_c, 0, 53, 18
1, 4347, Note_off_c, 0, 53, 28
1, 4358, Note_on_c, 0, 77, 68
1, 4359, Control_c, 0, 67, 120
1, 4373, Note_on_c, 0, 49, 36
1, 4374, Control_c, 0, 67, 109
1, 4389, Control_c, 0, 67, 103
1, 4404, Control_c, 0, 67, 97
1, 4418, Control_c, 0, 67, 90
1, 4433, Control_c, 0, 67, 81
1, 4448, Control_c, 0, 67, 70
1, 4462, Control_c, 0, 67, 57
1, 4477, Control_c, 0, 67, 41
1, 4492, Control_c, 0, 67, 28
1, 4507, Control_c, 0, 67, 0
1, 4567, Note_off_c, 0, 49, 42
1, 4865, Note_on_c, 0, 65, 24
1, 5193, Note_on_c, 0, 56, 26
1, 5248, Note_off_c, 0, 65, 30
1, 5449, Note_off_c, 0, 56, 36
1, 5497, Note_on_c, 0, 65, 9
1, 5654, Note_off_c, 0, 65, 23
1, 5714, Note_on_c, 0, 61, 22
1, 5852, Note_off_c, 0, 61, 37
1, 5959, Note_on_c, 0, 53, 13
1, 6198, Note_on_c, 0, 49, 28
1, 6210, Note_on_c, 0, 75, 60
1, 6330, Note_off_c, 0, 53, 17
1, 6352, Note_off_c, 0, 49, 43
1, 6635, Note_on_c, 0, 65, 31
1, 6641, Note_off_c, 0, 77, 36
1, 6951, Note_on_c, 0, 73, 61
1, 6965, Note_on_c, 0, 56, 31
1, 7016, Note_off_c, 0, 65, 26
1, 7107, Note_off_c, 0, 75, 52
1, 7241, Note_on_c, 0, 65, 29
1, 7248, Note_off_c, 0, 56, 35
1, 7414, Note_off_c, 0, 65, 35
1, 7461, Note_on_c, 0, 61, 30
1, 7673, Note_off_c, 0, 61, 39
1, 7746, Note_on_c, 0, 65, 66
1, 7762, Note_on_c, 0, 53, 25
1, 7863, Note_off_c, 0, 73, 32
1, 8098, Note_on_c, 0, 49, 33
1, 8147, Note_on_c, 0, 68, 61
1, 8244, Note_off_c, 0, 53, 21
1, 8292, Note_off_c, 0, 49, 41
1, 8303, Note_off_c, 0, 65, 35
1, 8625, Note_on_c, 0, 65, 28
1, 8903, Note_on_c, 0, 56, 27
1, 8940, Note_off_c, 0, 65, 31
1, 9104, Note_off_c, 0, 56, 37
1, 9123, Note_on_c, 0, 65, 33
1, 9330, Note_off_c, 0, 65, 36
1, 9364, Note_on_c, 0, 61, 32
1, 9502, Note_off_c, 0, 61, 41
1, 9589, Note_on_c, 0, 53, 29
1, 9821, Note_on_c, 0, 49, 24
1, 9843, Note_off_c, 0, 53, 24
1, 9871, Note_off_c, 0, 49, 47
1, 10096, Note_on_c, 0, 65, 30
1, 10329, Note_on_c, 0, 73, 55
1, 10379, Note_on_c, 0, 56, 26
1, 10427, Note_off_c, 0, 65, 27
1, 10568, Note_off_c, 0, 56, 41
1, 10602, Note_on_c, 0, 65, 37
1, 10642, Note_off_c, 0, 68, 37
1, 10857, Note_on_c, 0, 77, 65
1, 10874, Note_off_c, 0, 65, 35
1, 10886, Note_on_c, 0, 61, 29
1, 11065, Note_off_c, 0, 61, 39
1, 11180, Note_on_c, 0, 53, 12
1, 11502, Note_on_c, 0, 82, 75
1, 11505, Note_on_c, 0, 49, 33
1, 11655, Note_off_c, 0, 53, 32
1, 11667, Note_off_c, 0, 49, 43
1, 11927, Note_on_c, 0, 65, 37
1, 12164, Note_off_c, 0, 73, 27
1, 12203, Note_on_c, 0, 56, 31
1, 12232, Note_off_c, 0, 65, 31
1, 12269, Note_off_c, 0, 77, 33
1, 12435, Note_off_c, 0, 56, 37
1, 12458, Note_on_c, 0, 65, 20
1, 12610, Note_off_c, 0, 65, 26
1, 12711, Poly_aftertouch_c, 0, 61, 127
1, 12760, Poly_aftertouch_c, 0, 61, 0
1, 12917, Note_on_c, 0, 53, 17
1, 13146, Note_on_c, 0, 49, 37
1, 13210, Note_off_c, 0, 49, 43
1, 13244, Note_off_c, 0, 53, 37
1, 13444, Note_on_c, 0, 80, 65
1, 13471, Note_on_c, 0, 65, 31
1, 13637, Note_off_c, 0, 82, 31
1, 13807, Note_on_c, 0, 56, 19
1, 13882, Note_on_c, 0, 76, 59
1, 13977, Note_off_c, 0, 80, 57
1, 13981, Note_off_c, 0, 65, 36
1, 14222, Note_on_c, 0, 77, 64
1, 14255, Note_on_c, 0, 65, 23
1, 14484, Note_off_c, 0, 65, 36
1, 14497, Note_on_c, 0, 61, 31
1, 14501, Note_on_c, 0, 72, 62
1, 14547, Note_off_c, 0, 76, 57
1, 14550, Note_off_c, 0, 56, 37
1, 14576, Note_off_c, 0, 77, 61
1, 14764, Note_off_c, 0, 61, 36
1, 14802, Note_on_c, 0, 73, 69
1, 14826, Note_on_c, 0, 53, 37
1, 14875, Note_off_c, 0, 72, 55
1, 14889, Note_off_c, 0, 53, 58
1, 15270, Note_on_c, 0, 69, 65
1, 15280, Note_on_c, 0, 37, 45
1, 15325, Control_c, 0, 64, 102
1, 15339, Control_c, 0, 64, 81
1, 15354, Control_c, 0, 64, 66
1, 15369, Control_c, 0, 64, 49
1, 15384, Control_c, 0, 64, 0
1, 15396, Note_off_c, 0, 73, 58
1, 15443, Control_c, 0, 64, 32
1, 15458, Control_c, 0, 64, 54
1, 15473, Control_c, 0, 64, 65
1, 15487, Control_c, 0, 64, 72
1, 15502, Control_c, 0, 64, 80
1, 15517, Control_c, 0, 64, 92
1, 15532, Control_c, 0, 64, 114
1, 15536, Note_off_c, 0, 37, 40
1, 15546, Control_c, 0, 64, 127
1, 15770, Control_c, 0, 67, 19
1, 15800, Control_c, 0, 67, 21
1, 15844, Control_c, 0, 67, 25
1, 15859, Control_c, 0, 67, 27
1, 15874, Control_c, 0, 67, 29
1, 15889, Control_c, 0, 67, 31
1, 15891, Note_on_c, 0, 66, 27
1, 15904, Control_c, 0, 67, 33
1, 15918, Control_c, 0, 67, 36
1, 15933, Control_c, 0, 67, 39
1, 15948, Control_c, 0, 67, 44
1, 15970, Control_c, 0, 67, 50
1, 15985, Control_c, 0, 67, 57
1, 16000, Control_c, 0, 67, 66
1, 16015, Control_c, 0, 67, 73
1, 16030, Control_c, 0, 67, 78
1, 16044, Control_c, 0, 67, 82
1, 16059, Control_c, 0, 67, 86
1, 16074, Control_c, 0, 67, 91
1, 16089, Control_c, 0, 67, 96
1, 16104, Control_c, 0, 67, 102
1, 16118, Control_c, 0, 67, 108
1, 16133, Control_c, 0, 67, 114
1, 16148, Control_c, 0, 67, 120
1, 16162, Control_c, 0, 67, 125
1, 16177, Control_c, 0, 67, 127
1, 16252, Note_on_c, 0, 57, 24
1, 16259, Note_off_c, 0, 66, 33
1, 16511, Note_on_c, 0, 66, 33
1, 16748, Note_on_c, 0, 63, 33
1, 16923, Note_off_c, 0, 66, 38
1, 16974, Note_off_c, 0, 57, 32
1, 16982, Note_on_c, 0, 54, 31
1, 16989, Note_off_c, 0, 63, 37
1, 17022, Note_off_c, 0, 54, 55
1, 17207, Note_on_c, 0, 49, 21
1, 17252, Note_off_c, 0, 49, 54
1, 17417, Note_on_c, 0, 66, 31
1, 17651, Note_off_c, 0, 66, 34
1, 17675, Note_on_c, 0, 57, 37
1, 17914, Note_on_c, 0, 66, 33
1, 18167, Note_on_c, 0, 63, 28
1, 18258, Note_off_c, 0, 57, 16
1, 18359, Note_off_c, 0, 63, 21
1, 18374, Note_off_c, 0, 66, 35
1, 18463, Note_on_c, 0, 54, 31
1, 18559, Note_off_c, 0, 54, 37
1, 18917, Note_on_c, 0, 70, 41
1, 18939, Note_on_c, 0, 49, 30
1, 18966, Control_c, 0, 64, 120
1, 18981, Control_c, 0, 64, 95
1, 18995, Control_c, 0, 64, 79
1, 19010, Control_c, 0, 64, 66
1, 19020, Note_off_c, 0, 69, 42
1, 19025, Control_c, 0, 64, 49
1, 19040, Control_c, 0, 64, 35
1, 19055, Control_c, 0, 64, 40
1, 19069, Control_c, 0, 64, 54
1, 19084, Control_c, 0, 64, 65
1, 19099, Control_c, 0, 64, 72
1, 19113, Control_c, 0, 64, 81
1, 19128, Control_c, 0, 64, 92
1, 19143, Note_off_c, 0, 49, 41
1, 19143, Control_c, 0, 64, 101
1, 19158, Control_c, 0, 64, 113
1, 19173, Control_c, 0, 64, 127
1, 19441, Note_on_c, 0, 66, 27
1, 19811, Note_on_c, 0, 58, 28
1, 19846, Note_off_c, 0, 66, 29
1, 20076, Note_on_c, 0, 66, 25
1, 20210, Note_off_c, 0, 70, 28
1, 20312, Note_on_c, 0, 63, 26
1, 20428, Note_off_c, 0, 58, 14
1, 20469, Note_off_c, 0, 66, 29
1, 20559, Note_off_c, 0, 63, 33
1, 20563, Note_on_c, 0, 54, 20
1, 20614, Note_off_c, 0, 54, 47
1, 20850, Note_on_c, 0, 49, 17
1, 20898, Note_off_c, 0, 49, 54
1, 21163, Note_on_c, 0, 84, 58
1, 21179, Note_on_c, 0, 66, 31
1, 21241, Control_c, 0, 67, 122
1, 21256, Control_c, 0, 67, 116
1, 21271, Control_c, 0, 67, 107
1, 21285, Control_c, 0, 67, 95
1, 21300, Control_c, 0, 67, 78
1, 21315, Control_c, 0, 67, 63
1, 21331, Control_c, 0, 67, 48
1, 21346, Control_c, 0, 67, 33
1, 21361, Control_c, 0, 67, 0
1, 21537, Note_on_c, 0, 58, 17
1, 21629, Note_on_c, 0, 82, 62
1, 21660, Note_off_c, 0, 66, 31
1, 22049, Note_on_c, 0, 77, 56
1, 22061, Note_on_c, 0, 66, 28
1, 22348, Note_on_c, 0, 80, 63
1, 22354, Note_on_c, 0, 63, 28
1, 22554, Note_off_c, 0, 84, 25
1, 22559, Note_off_c, 0, 66, 33
1, 22625, Note_on_c, 0, 78, 64
1, 22646, Note_on_c, 0, 54, 23
1, 22654, Note_off_c, 0, 63, 39
1, 22678, Note_off_c, 0, 58, 31
1, 22712, Note_off_c, 0, 82, 39
1, 22714, Note_off_c, 0, 54, 44
1, 22729, Note_off_c, 0, 77, 38
1, 22731, Note_off_c, 0, 80, 46
1, 23039, Note_on_c, 0, 77, 59
1, 23048, Note_on_c, 0, 48, 35
1, 23051, Control_c, 0, 64, 108
1, 23066, Control_c, 0, 64, 90
1, 23080, Control_c, 0, 64, 76
1, 23093, Note_off_c, 0, 78, 58
1, 23095, Control_c, 0, 64, 64
1, 23110, Control_c, 0, 64, 53
1, 23125, Control_c, 0, 64, 54
1, 23140, Control_c, 0, 64, 61
1, 23154, Control_c, 0, 64, 68
1, 23169, Control_c, 0, 64, 76
1, 23184, Control_c, 0, 64, 89
1, 23199, Control_c, 0, 64, 118
1, 23213, Control_c, 0, 64, 127
1, 23248, Note_off_c, 0, 48, 41
1, 23552, Note_on_c, 0, 66, 32
1, 23882, Note_on_c, 0, 57, 22
1, 23897, Note_off_c, 0, 66, 29
1, 24153, Note_on_c, 0, 66, 27
1, 24399, Note_on_c, 0, 75, 44
1, 24407, Note_on_c, 0, 63, 26
1, 24555, Note_off_c, 0, 66, 35
1, 24582, Note_off_c, 0, 77, 42
1, 24631, Note_off_c, 0, 57, 29
1, 24645, Note_on_c, 0, 54, 31
1, 24661, Note_off_c, 0, 63, 42
1, 24682, Note_off_c, 0, 54, 51
1, 24890, Control_c, 0, 64, 105
1, 24898, Note_on_c, 0, 46, 47
1, 24905, Control_c, 0, 64, 86
1, 24920, Control_c, 0, 64, 76
1, 24934, Control_c, 0, 64, 72
1, 24956, Control_c, 0, 64, 74
1, 24971, Control_c, 0, 64, 79
1, 24986, Control_c, 0, 64, 86
1, 25001, Control_c, 0, 64, 98
1, 25010, Note_off_c, 0, 46, 50
1, 25016, Control_c, 0, 64, 113
1, 25030, Control_c, 0, 64, 127
1, 25182, Note_on_c, 0, 77, 35
1, 25244, Note_off_c, 0, 75, 37
1, 25310, Note_on_c, 0, 66, 29
1, 25366, Note_off_c, 0, 77, 40
1, 25380, Note_on_c, 0, 75, 44
1, 25470, Note_off_c, 0, 75, 56
1, 25501, Note_on_c, 0, 74, 43
1, 25593, Note_off_c, 0, 74, 57
1, 25601, Note_on_c, 0, 75, 55
1, 25710, Note_on_c, 0, 58, 27
1, 25769, Note_on_c, 0, 77, 60
1, 25807, Note_off_c, 0, 66, 28
1, 25835, Note_off_c, 0, 75, 41
1, 26080, Note_on_c, 0, 66, 44
1, 26320, Note_on_c, 0, 78, 75
1, 26351, Note_on_c, 0, 63, 40
1, 26467, Note_off_c, 0, 77, 38
1, 26493, Note_off_c, 0, 66, 38
1, 26631, Note_on_c, 0, 54, 43
1, 26661, Note_off_c, 0, 63, 35
1, 26697, Note_off_c, 0, 58, 41
1, 26698, Note_off_c, 0, 54, 52
1, 26703, Note_off_c, 0, 78, 60
1, 26798, Note_on_c, 0, 78, 87
1, 27223, Note_on_c, 0, 45, 42
1, 27245, Note_on_c, 0, 90, 87
1, 27291, Control_c, 0, 64, 101
1, 27306, Control_c, 0, 64, 81
1, 27320, Control_c, 0, 64, 68
1, 27335, Control_c, 0, 64, 56
1, 27350, Control_c, 0, 64, 43
1, 27379, Control_c, 0, 64, 49
1, 27394, Control_c, 0, 64, 59
1, 27409, Control_c, 0, 64, 69
1, 27424, Control_c, 0, 64, 82
1, 27439, Control_c, 0, 64, 115
1, 27454, Control_c, 0, 64, 127
1, 27556, Note_off_c, 0, 45, 40
1, 27913, Note_off_c, 0, 78, 30
1, 27964, Note_on_c, 0, 66, 33
1, 28348, Note_on_c, 0, 57, 19
1, 28363, Note_off_c, 0, 66, 34
1, 28629, Note_on_c, 0, 66, 26
1, 28916, Note_off_c, 0, 57, 36
1, 28919, Note_on_c, 0, 61, 27
1, 28933, Note_off_c, 0, 66, 31
1, 29220, Note_on_c, 0, 87, 40
1, 29392, Note_off_c, 0, 90, 24
1, 29499, Note_on_c, 0, 85, 40
1, 29566, Note_off_c, 0, 87, 40
1, 29623, Note_off_c, 0, 61, 32
1, 29635, Note_off_c, 0, 85, 38
1, 29652, Note_on_c, 0, 51, 18
1, 29696, Note_on_c, 0, 81, 35
1, 29791, Note_off_c, 0, 51, 34
1, 29791, Note_off_c, 0, 81, 39
1, 29871, Note_on_c, 0, 78, 39
1, 30054, Note_on_c, 0, 75, 39
1, 30081, Note_off_c, 0, 78, 39
1, 30322, Note_on_c, 0, 44, 31
1, 30360, Control_c, 0, 64, 109
1, 30375, Control_c, 0, 64, 89
1, 30390, Note_on_c, 0, 72, 38
1, 30390, Control_c, 0, 64, 72
1, 30405, Note_off_c, 0, 75, 35
1, 30405, Control_c, 0, 64, 62
1, 30420, Control_c, 0, 64, 55
1, 30435, Control_c, 0, 64, 57
1, 30450, Control_c, 0, 64, 63
1, 30464, Control_c, 0, 64, 68
1, 30479, Control_c, 0, 64, 74
1, 30494, Control_c, 0, 64, 85
1, 30509, Control_c, 0, 64, 96
1, 30523, Control_c, 0, 64, 110
1, 30524, Note_off_c, 0, 44, 45
1, 30538, Control_c, 0, 64, 127
1, 30995, Note_on_c, 0, 73, 44
1, 31016, Note_on_c, 0, 66, 29
1, 31140, Note_off_c, 0, 72, 41
1, 31356, Note_on_c, 0, 56, 27
1, 31373, Note_off_c, 0, 66, 33
1, 31397, Note_on_c, 0, 74, 46
1, 31493, Note_off_c, 0, 73, 21
1, 31723, Note_on_c, 0, 75, 55
1, 31741, Note_on_c, 0, 66, 30
1, 31814, Note_off_c, 0, 74, 33
1, 31973, Note_off_c, 0, 75, 38
1, 32016, Note_on_c, 0, 77, 63
1, 32036, Note_on_c, 0, 60, 29
1, 32059, Note_off_c, 0, 66, 39
1, 32268, Note_off_c, 0, 77, 36
1, 32336, Note_off_c, 0, 60, 39
1, 32347, Note_off_c, 0, 56, 29
1, 32363, Note_on_c, 0, 78, 70
1, 32378, Note_on_c, 0, 51, 29
1, 32427, Note_off_c, 0, 51, 48
1, 32749, Note_off_c, 0, 78, 50
1, 32849, Note_on_c, 0, 79, 72
1, 32858, Control_c, 0, 64, 118
1, 32864, Note_on_c, 0, 37, 41
1, 32873, Control_c, 0, 64, 89
1, 32888, Control_c, 0, 64, 75
1, 32903, Control_c, 0, 64, 63
1, 32918, Control_c, 0, 64, 53
1, 32933, Control_c, 0, 64, 48
1, 32948, Control_c, 0, 64, 53
1, 32963, Control_c, 0, 64, 60
1, 32978, Control_c, 0, 64, 66
1, 32992, Control_c, 0, 64, 72
1, 33007, Control_c, 0, 64, 85
1, 33022, Control_c, 0, 64, 106
1, 33037, Control_c, 0, 64, 127
1, 33048, Note_off_c, 0, 37, 39
1, 33501, Note_on_c, 0, 64, 12
1, 33833, Note_on_c, 0, 55, 23
1, 33931, Note_off_c, 0, 64, 37
1, 34015, Control_c, 0, 67, 20
1, 34089, Control_c, 0, 67, 22
1, 34126, Note_on_c, 0, 64, 25
1, 34164, Control_c, 0, 67, 24
1, 34194, Control_c, 0, 67, 29
1, 34209, Control_c, 0, 67, 31
1, 34224, Control_c, 0, 67, 32
1, 34238, Control_c, 0, 67, 32
1, 34253, Control_c, 0, 67, 33
1, 34283, Control_c, 0, 67, 33
1, 34298, Control_c, 0, 67, 34
1, 34313, Control_c, 0, 67, 35
1, 34328, Control_c, 0, 67, 38
1, 34343, Control_c, 0, 67, 43
1, 34358, Control_c, 0, 67, 47
1, 34372, Control_c, 0, 67, 51
1, 34387, Control_c, 0, 67, 55
1, 34399, Note_off_c, 0, 55, 34
1, 34402, Control_c, 0, 67, 62
1, 34417, Control_c, 0, 67, 70
1, 34423, Note_on_c, 0, 58, 24
1, 34432, Control_c, 0, 67, 78
1, 34446, Control_c, 0, 67, 84
1, 34461, Control_c, 0, 67, 86
1, 34476, Control_c, 0, 67, 87
1, 34477, Note_off_c, 0, 64, 39
1, 34490, Control_c, 0, 67, 87
1, 34505, Control_c, 0, 67, 88
1, 34638, Control_c, 0, 67, 87
1, 34653, Control_c, 0, 67, 86
1, 34668, Control_c, 0, 67, 86
1, 34690, Control_c, 0, 67, 85
1, 34737, Note_on_c, 0, 80, 38
1, 34764, Control_c, 0, 67, 85
1, 34836, Note_off_c, 0, 58, 35
1, 34947, Note_on_c, 0, 49, 12
1, 34987, Control_c, 0, 67, 85
1, 35002, Control_c, 0, 67, 86
1, 35032, Control_c, 0, 67, 86
1, 35040, Note_on_c, 0, 82, 44
1, 35061, Control_c, 0, 67, 87
1, 35069, Note_off_c, 0, 49, 37
1, 35085, Note_off_c, 0, 80, 42
1, 35106, Control_c, 0, 67, 87
1, 35121, Control_c, 0, 67, 88
1, 35158, Note_off_c, 0, 79, 36
1, 35166, Control_c, 0, 67, 88
1, 35180, Control_c, 0, 67, 89
1, 35225, Control_c, 0, 67, 90
1, 35254, Control_c, 0, 67, 95
1, 35269, Control_c, 0, 67, 103
1, 35280, Note_on_c, 0, 80, 41
1, 35284, Control_c, 0, 67, 110
1, 35299, Control_c, 0, 67, 117
1, 35313, Control_c, 0, 67, 121
1, 35328, Control_c, 0, 67, 123
1, 35380, Note_off_c, 0, 82, 37
1, 35573, Control_c, 0, 64, 104
1, 35577, Note_on_c, 0, 37, 34
1, 35583, Note_on_c, 0, 77, 41
1, 35587, Control_c, 0, 64, 89
1, 35602, Control_c, 0, 64, 77
1, 35614, Note_off_c, 0, 80, 38
1, 35617, Control_c, 0, 64, 67
1, 35631, Control_c, 0, 64, 59
1, 35646, Control_c, 0, 64, 57
1, 35661, Control_c, 0, 64, 62
1, 35676, Control_c, 0, 64, 69
1, 35691, Control_c, 0, 64, 77
1, 35707, Control_c, 0, 64, 89
1, 35722, Control_c, 0, 64, 101
1, 35736, Note_off_c, 0, 37, 36
1, 35736, Control_c, 0, 64, 116
1, 35751, Control_c, 0, 64, 127
1, 36148, Note_on_c, 0, 65, 28
1, 36277, Control_c, 0, 67, 121
1, 36440, Control_c, 0, 67, 119
1, 36535, Note_on_c, 0, 56, 18
1, 36589, Control_c, 0, 67, 117
1, 36599, Note_off_c, 0, 65, 39
1, 36663, Control_c, 0, 67, 115
1, 36722, Control_c, 0, 67, 113
1, 36826, Control_c, 0, 67, 111
1, 36830, Note_on_c, 0, 65, 16
1, 36937, Control_c, 0, 67, 109
1, 37115, Note_on_c, 0, 61, 12
1, 37414, Note_off_c, 0, 65, 36
1, 37432, Note_on_c, 0, 53, 17
1, 37501, Note_off_c, 0, 61, 38
1, 37512, Note_off_c, 0, 56, 38
1, 37545, Note_off_c, 0, 53, 34
1, 37604, Control_c, 0, 67, 107
1, 37634, Control_c, 0, 67, 104
1, 37649, Control_c, 0, 67, 96
1, 37664, Control_c, 0, 67, 86
1, 37686, Control_c, 0, 67, 75
1, 37701, Control_c, 0, 67, 62
1, 37715, Control_c, 0, 67, 51
1, 37730, Control_c, 0, 67, 43
1, 37745, Control_c, 0, 67, 36
1, 37760, Control_c, 0, 67, 29
1, 37775, Control_c, 0, 67, 23
1, 37789, Control_c, 0, 67, 0
1, 37915, Note_on_c, 0, 73, 45
1, 37920, Note_on_c, 0, 46, 37
1, 37968, Control_c, 0, 64, 112
1, 37982, Control_c, 0, 64, 94
1, 37997, Control_c, 0, 64, 81
1, 38012, Control_c, 0, 64, 71
1, 38027, Control_c, 0, 64, 64
1, 38041, Control_c, 0, 64, 63
1, 38056, Control_c, 0, 64, 67
1, 38071, Control_c, 0, 64, 74
1, 38086, Control_c, 0, 64, 83
1, 38101, Control_c, 0, 64, 91
1, 38117, Control_c, 0, 64, 97
1, 38131, Control_c, 0, 64, 109
1, 38139, Note_off_c, 0, 46, 47
1, 38146, Control_c, 0, 64, 127
1, 38490, Note_on_c, 0, 65, 46
1, 38865, Note_on_c, 0, 58, 27
1, 38921, Note_on_c, 0, 78, 63
1, 38939, Note_on_c, 0, 75, 42
1, 38990, Note_off_c, 0, 77, 42
1, 39002, Note_off_c, 0, 65, 39
1, 39122, Note_off_c, 0, 73, 26
1, 39364, Note_on_c, 0, 65, 25
1, 39399, Note_off_c, 0, 75, 23
1, 39629, Note_on_c, 0, 61, 21
1, 39727, Note_off_c, 0, 65, 42
1, 39850, Note_off_c, 0, 58, 38
1, 39852, Note_on_c, 0, 53, 28
1, 39862, Note_off_c, 0, 61, 36
1, 39894, Note_off_c, 0, 53, 53
1, 39907, Note_on_c, 0, 73, 67
1, 39929, Note_on_c, 0, 70, 40
1, 40065, Note_off_c, 0, 70, 41
1, 40177, Note_on_c, 0, 46, 42
1, 40243, Control_c, 0, 64, 104
1, 40258, Control_c, 0, 64, 83
1, 40273, Control_c, 0, 64, 70
1, 40284, Note_on_c, 0, 75, 65
1, 40288, Control_c, 0, 64, 60
1, 40302, Control_c, 0, 64, 56
1, 40308, Note_on_c, 0, 72, 38
1, 40317, Control_c, 0, 64, 60
1, 40332, Control_c, 0, 64, 64
1, 40340, Note_off_c, 0, 73, 56
1, 40347, Control_c, 0, 64, 68
1, 40362, Control_c, 0, 64, 74
1, 40373, Note_off_c, 0, 78, 41
1, 40376, Control_c, 0, 64, 84
1, 40391, Control_c, 0, 64, 98
1, 40406, Control_c, 0, 64, 127
1, 40421, Note_off_c, 0, 46, 46
1, 40692, Note_on_c, 0, 65, 39
1, 40966, Note_on_c, 0, 77, 69
1, 40991, Note_on_c, 0, 73, 38
1, 40996, Note_on_c, 0, 57, 29
1, 41093, Note_off_c, 0, 65, 41
1, 41175, Note_off_c, 0, 75, 54
1, 41257, Note_off_c, 0, 72, 40
1, 41298, Note_on_c, 0, 65, 38
1, 41557, Note_on_c, 0, 72, 65
1, 41569, Note_on_c, 0, 63, 38
1, 41583, Note_on_c, 0, 69, 27
1, 41698, Note_off_c, 0, 65, 37
1, 41751, Note_off_c, 0, 73, 43
1, 41807, Note_off_c, 0, 63, 41
1, 41824, Note_off_c, 0, 57, 35
1, 41833, Note_on_c, 0, 53, 35
1, 41880, Note_off_c, 0, 53, 50
1, 41953, Note_off_c, 0, 69, 31
1, 42120, Note_off_c, 0, 72, 53
1, 42123, Note_off_c, 0, 77, 34
1, 42203, Note_on_c, 0, 46, 40
1, 42249, Note_on_c, 0, 75, 59
1, 42252, Control_c, 0, 64, 99
1, 42267, Control_c, 0, 64, 81
1, 42280, Note_on_c, 0, 72, 33
1, 42282, Control_c, 0, 64, 64
1, 42296, Control_c, 0, 64, 41
1, 42311, Control_c, 0, 64, 0
1, 42341, Control_c, 0, 64, 44
1, 42356, Control_c, 0, 64, 59
1, 42370, Control_c, 0, 64, 66
1, 42385, Control_c, 0, 64, 70
1, 42400, Control_c, 0, 64, 76
1, 42415, Control_c, 0, 64, 83
1, 42430, Control_c, 0, 64, 94
1, 42439, Note_off_c, 0, 72, 0
1, 42445, Control_c, 0, 64, 114
1, 42460, Control_c, 0, 64, 127
1, 42477, Poly_aftertouch_c, 0, 72, 127
1, 42484, Note_off_c, 0, 46, 44
1, 42799, Note_on_c, 0, 65, 26
1, 43089, Poly_aftertouch_c, 0, 72, 0
1, 43138, Note_on_c, 0, 73, 41
1, 43150, Note_on_c, 0, 58, 25
1, 43156, Note_on_c, 0, 70, 24
1, 43244, Note_off_c, 0, 75, 36
1, 43288, Note_off_c, 0, 65, 42
1, 43339, Note_off_c, 0, 70, 38
1, 43390, Note_off_c, 0, 73, 35
1, 43482, Note_on_c, 0, 65, 31
1, 43674, Note_on_c, 0, 82, 59
1, 43700, Note_on_c, 0, 73, 36
1, 43901, Note_off_c, 0, 82, 36
1, 43906, Note_off_c, 0, 73, 40
1, 43918, Note_on_c, 0, 61, 27
1, 44028, Note_on_c, 0, 82, 49
1, 44039, Note_on_c, 0, 73, 37
1, 44117, Note_off_c, 0, 65, 31
1, 44218, Note_off_c, 0, 73, 42
1, 44332, Note_off_c, 0, 82, 36
1, 44351, Note_on_c, 0, 80, 49
1, 44362, Note_on_c, 0, 72, 38
1, 44397, Note_off_c, 0, 72, 52
1, 44452, Note_off_c, 0, 58, 40
1, 44487, Note_on_c, 0, 53, 24
1, 44506, Note_off_c, 0, 61, 38
1, 44534, Note_off_c, 0, 53, 49
1, 44620, Note_on_c, 0, 78, 56
1, 44632, Note_on_c, 0, 70, 32
1, 44673, Note_off_c, 0, 80, 54
1, 44781, Note_off_c, 0, 70, 38
1, 44853, Note_off_c, 0, 78, 30
1, 44914, Control_c, 0, 64, 121
1, 44916, Note_on_c, 0, 41, 33
1, 44929, Control_c, 0, 64, 102
1, 44943, Control_c, 0, 64, 85
1, 44958, Note_on_c, 0, 77, 46
1, 44958, Control_c, 0, 64, 74
1, 44973, Control_c, 0, 64, 64
1, 44980, Note_on_c, 0, 70, 31
1, 44988, Control_c, 0, 64, 56
1, 45003, Control_c, 0, 64, 54
1, 45017, Control_c, 0, 64, 60
1, 45032, Control_c, 0, 64, 68
1, 45047, Control_c, 0, 64, 76
1, 45062, Control_c, 0, 64, 87
1, 45077, Control_c, 0, 64, 97
1, 45092, Control_c, 0, 64, 105
1, 45107, Control_c, 0, 64, 112
1, 45115, Note_off_c, 0, 41, 37
1, 45122, Control_c, 0, 64, 114
1, 45217, Control_c, 0, 64, 117
1, 45493, Note_on_c, 0, 65, 21
1, 45784, Note_on_c, 0, 60, 10
1, 45789, Note_on_c, 0, 69, 32
1, 45823, Note_off_c, 0, 70, 34
1, 45883, Note_off_c, 0, 65, 40
1, 46025, Note_on_c, 0, 70, 47
1, 46034, Note_off_c, 0, 69, 41
1, 46134, Note_off_c, 0, 77, 3
1, 46139, Note_on_c, 0, 65, 36
1, 46212, Note_on_c, 0, 71, 52
1, 46219, Control_c, 0, 64, 114
1, 46236, Note_off_c, 0, 70, 36
1, 46383, Control_c, 0, 64, 109
1, 46397, Control_c, 0, 64, 102
1, 46409, Note_on_c, 0, 63, 32
1, 46412, Control_c, 0, 64, 93
1, 46418, Note_on_c, 0, 77, 47
1, 46420, Note_on_c, 0, 72, 45
1, 46427, Control_c, 0, 64, 85
1, 46442, Control_c, 0, 64, 80
1, 46457, Control_c, 0, 64, 81
1, 46469, Note_off_c, 0, 71, 24
1, 46471, Control_c, 0, 64, 82
1, 46486, Control_c, 0, 64, 85
1, 46501, Control_c, 0, 64, 89
1, 46515, Control_c, 0, 64, 93
1, 46530, Control_c, 0, 64, 96
1, 46535, Note_off_c, 0, 77, 52
1, 46560, Control_c, 0, 64, 99
1, 46565, Note_off_c, 0, 65, 37
1, 46575, Note_off_c, 0, 72, 36
1, 46589, Control_c, 0, 64, 103
1, 46604, Control_c, 0, 64, 105
1, 46670, Note_on_c, 0, 77, 58
1, 46672, Note_on_c, 0, 73, 54
1, 46783, Note_off_c, 0, 77, 54
1, 46789, Note_off_c, 0, 73, 49
1, 46796, Note_on_c, 0, 57, 38
1, 46797, Note_off_c, 0, 63, 37
1, 46824, Note_off_c, 0, 60, 41
1, 46852, Note_off_c, 0, 57, 47
1, 46863, Control_c, 0, 64, 103
1, 46934, Note_on_c, 0, 77, 51
1, 46938, Note_on_c, 0, 75, 59
1, 47083, Note_off_c, 0, 75, 60
1, 47092, Note_off_c, 0, 77, 38
1, 47294, Control_c, 0, 64, 99
1, 47295, Note_on_c, 0, 77, 52
1, 47297, Note_on_c, 0, 46, 41
1, 47299, Note_on_c, 0, 73, 54
1, 47309, Control_c, 0, 64, 90
1, 47324, Control_c, 0, 64, 78
1, 47338, Control_c, 0, 64, 63
1, 47353, Control_c, 0, 64, 45
1, 47368, Control_c, 0, 64, 0
1, 47420, Control_c, 0, 64, 41
1, 47435, Control_c, 0, 64, 61
1, 47450, Control_c, 0, 64, 68
1, 47465, Control_c, 0, 64, 73
1, 47479, Control_c, 0, 64, 82
1, 47494, Control_c, 0, 64, 95
1, 47509, Control_c, 0, 64, 126
1, 47524, Note_off_c, 0, 46, 41
1, 47850, Note_on_c, 0, 65, 26
1, 48182, Note_on_c, 0, 58, 31
1, 48214, Note_on_c, 0, 78, 64
1, 48222, Note_on_c, 0, 75, 45
1, 48311, Note_off_c, 0, 65, 40
1, 48369, Note_off_c, 0, 77, 32
1, 48504, Note_off_c, 0, 73, 32
1, 48562, Note_on_c, 0, 65, 34
1, 48651, Note_off_c, 0, 78, 33
1, 48785, Note_off_c, 0, 65, 35
1, 48809, Note_on_c, 0, 61, 29
1, 48920, Note_off_c, 0, 75, 10
1, 49051, Note_off_c, 0, 61, 34
1, 49062, Note_on_c, 0, 53, 33
1, 49062, Note_off_c, 0, 58, 39
1, 49121, Note_off_c, 0, 53, 49
1, 49149, Note_on_c, 0, 73, 63
1, 49158, Note_on_c, 0, 70, 46
1, 49256, Note_off_c, 0, 70, 48
1, 49270, Note_off_c, 0, 73, 58
1, 49372, Note_on_c, 0, 73, 58
1, 49386, Note_on_c, 0, 70, 14
1, 49432, Note_off_c, 0, 70, 48
1, 49451, Note_on_c, 0, 46, 44
1, 49477, Note_off_c, 0, 73, 0
1, 49483, Control_c, 0, 64, 99
1, 49497, Control_c, 0, 64, 82
1, 49512, Control_c, 0, 64, 68
1, 49513, Poly_aftertouch_c, 0, 73, 127
1, 49517, Note_on_c, 0, 77, 57
1, 49527, Control_c, 0, 64, 57
1, 49541, Control_c, 0, 64, 58
1, 49556, Control_c, 0, 64, 67
1, 49571, Control_c, 0, 64, 77
1, 49586, Control_c, 0, 64, 89
1, 49601, Control_c, 0, 64, 100
1, 49608, Note_off_c, 0, 46, 36
1, 49615, Control_c, 0, 64, 115
1, 49630, Control_c, 0, 64, 127
1, 49841, Note_on_c, 0, 65, 31
1, 49919, Note_on_c, 0, 75, 52
1, 49933, Note_on_c, 0, 72, 38
1, 49941, Note_off_c, 0, 77, 57
1, 49959, Poly_aftertouch_c, 0, 73, 0
1, 49972, Note_off_c, 0, 72, 51
1, 49973, Note_off_c, 0, 75, 57
1, 50023, Note_off_c, 0, 65, 39
1, 50070, Note_on_c, 0, 57, 36
1, 50075, Note_on_c, 0, 77, 57
1, 50087, Note_on_c, 0, 72, 48
1, 50120, Note_on_c, 0, 75, 55
1, 50169, Note_off_c, 0, 77, 56
1, 50280, Note_on_c, 0, 70, 56
1, 50283, Note_on_c, 0, 73, 68
1, 50291, Note_off_c, 0, 72, 27
1, 50307, Note_off_c, 0, 75, 57
1, 50331, Note_on_c, 0, 65, 46
1, 50424, Note_on_c, 0, 75, 73
1, 50431, Note_on_c, 0, 72, 55
1, 50462, Note_off_c, 0, 73, 58
1, 50579, Note_off_c, 0, 70, 35
1, 50595, Note_on_c, 0, 63, 44
1, 50608, Control_c, 0, 64, 103
1, 50623, Control_c, 0, 64, 81
1, 50637, Control_c, 0, 64, 67
1, 50640, Note_on_c, 0, 77, 62
1, 50642, Note_off_c, 0, 65, 32
1, 50648, Note_off_c, 0, 72, 32
1, 50652, Control_c, 0, 64, 52
1, 50667, Control_c, 0, 64, 32
1, 50676, Note_on_c, 0, 73, 32
1, 50681, Note_off_c, 0, 75, 61
1, 50681, Control_c, 0, 64, 0
1, 50711, Control_c, 0, 64, 35
1, 50726, Control_c, 0, 64, 52
1, 50741, Control_c, 0, 64, 62
1, 50756, Control_c, 0, 64, 63
1, 50771, Control_c, 0, 64, 65
1, 50785, Control_c, 0, 64, 68
1, 50800, Control_c, 0, 64, 73
1, 50814, Note_off_c, 0, 77, 54
1, 50815, Control_c, 0, 64, 77
1, 50830, Control_c, 0, 64, 81
1, 50843, Note_off_c, 0, 73, 20
1, 50845, Control_c, 0, 64, 84
1, 50860, Control_c, 0, 64, 87
1, 50875, Control_c, 0, 64, 91
1, 50890, Control_c, 0, 64, 94
1, 50905, Control_c, 0, 64, 97
1, 50920, Control_c, 0, 64, 100
1, 50935, Control_c, 0, 64, 102
1, 50978, Note_on_c, 0, 53, 36
1, 50982, Note_off_c, 0, 63, 34
1, 51009, Note_off_c, 0, 57, 32
1, 51038, Note_off_c, 0, 53, 57
1, 51111, Note_on_c, 0, 72, 67
1, 51127, Note_on_c, 0, 69, 48
1, 51229, Note_off_c, 0, 72, 57
1, 51239, Note_off_c, 0, 69, 37
1, 51304, Note_on_c, 0, 46, 43
1, 51313, Control_c, 0, 64, 98
1, 51328, Control_c, 0, 64, 91
1, 51343, Control_c, 0, 64, 81
1, 51344, Note_on_c, 0, 75, 63
1, 51357, Note_on_c, 0, 72, 43
1, 51358, Control_c, 0, 64, 69
1, 51373, Control_c, 0, 64, 58
1, 51387, Control_c, 0, 64, 43
1, 51402, Control_c, 0, 64, 35
1, 51417, Control_c, 0, 64, 40
1, 51431, Control_c, 0, 64, 56
1, 51446, Control_c, 0, 64, 66
1, 51461, Control_c, 0, 64, 70
1, 51476, Control_c, 0, 64, 75
1, 51491, Control_c, 0, 64, 80
1, 51505, Control_c, 0, 64, 86
1, 51510, Note_off_c, 0, 46, 40
1, 51520, Control_c, 0, 64, 92
1, 51535, Control_c, 0, 64, 97
1, 51550, Control_c, 0, 64, 102
1, 51565, Control_c, 0, 64, 106
1, 51579, Control_c, 0, 64, 110
1, 51594, Control_c, 0, 64, 113
1, 51609, Control_c, 0, 64, 116
1, 51638, Control_c, 0, 64, 118
1, 51815, Note_on_c, 0, 65, 36
1, 52148, Note_off_c, 0, 72, 37
1, 52175, Note_on_c, 0, 58, 28
1, 52181, Control_c, 0, 64, 112
1, 52184, Note_on_c, 0, 73, 44
1, 52195, Control_c, 0, 64, 104
1, 52204, Note_on_c, 0, 70, 27
1, 52210, Control_c, 0, 64, 94
1, 52225, Control_c, 0, 64, 83
1, 52240, Control_c, 0, 64, 74
1, 52248, Note_off_c, 0, 75, 37
1, 52255, Control_c, 0, 64, 68
1, 52269, Control_c, 0, 64, 67
1, 52270, Note_off_c, 0, 65, 40
1, 52284, Control_c, 0, 64, 69
1, 52299, Control_c, 0, 64, 72
1, 52314, Control_c, 0, 64, 77
1, 52328, Control_c, 0, 64, 83
1, 52343, Control_c, 0, 64, 88
1, 52358, Control_c, 0, 64, 93
1, 52373, Control_c, 0, 64, 100
1, 52388, Control_c, 0, 64, 109
1, 52402, Control_c, 0, 64, 127
1, 52485, Note_off_c, 0, 70, 40
1, 52488, Note_off_c, 0, 73, 45
1, 52526, Note_on_c, 0, 65, 39
1, 52807, Note_on_c, 0, 61, 37
1, 52809, Note_on_c, 0, 82, 72
1, 52827, Note_on_c, 0, 73, 49
1, 52957, Note_off_c, 0, 65, 38
1, 53087, Note_on_c, 0, 53, 35
1, 53089, Note_off_c, 0, 58, 39
1, 53112, Note_off_c, 0, 61, 39
1, 53120, Note_off_c, 0, 53, 57
1, 53167, Note_off_c, 0, 73, 40
1, 53366, Note_on_c, 0, 46, 48
1, 53427, Control_c, 0, 64, 109
1, 53441, Control_c, 0, 64, 82
1, 53454, Note_on_c, 0, 74, 64
1, 53456, Control_c, 0, 64, 66
1, 53471, Control_c, 0, 64, 58
1, 53486, Control_c, 0, 64, 62
1, 53501, Control_c, 0, 64, 71
1, 53515, Control_c, 0, 64, 87
1, 53530, Control_c, 0, 64, 113
1, 53545, Control_c, 0, 64, 127
1, 53579, Note_off_c, 0, 46, 42
1, 53840, Note_on_c, 0, 68, 45
1, 53912, Note_on_c, 0, 83, 73
1, 53930, Note_on_c, 0, 80, 54
1, 53976, Note_off_c, 0, 82, 57
1, 54083, Note_off_c, 0, 74, 33
1, 54136, Note_off_c, 0, 68, 29
1, 54157, Note_on_c, 0, 58, 29
1, 54251, Note_on_c, 0, 82, 72
1, 54255, Note_off_c, 0, 80, 56
1, 54262, Note_on_c, 0, 74, 50
1, 54313, Note_off_c, 0, 83, 53
1, 54478, Note_on_c, 0, 81, 73
1, 54493, Note_on_c, 0, 80, 59
1, 54515, Note_off_c, 0, 82, 58
1, 54556, Note_on_c, 0, 68, 46
1, 54556, Note_off_c, 0, 74, 37
1, 54658, Note_on_c, 0, 82, 75
1, 54669, Note_off_c, 0, 80, 48
1, 54679, Note_on_c, 0, 74, 35
1, 54686, Note_off_c, 0, 81, 62
1, 54712, Note_off_c, 0, 74, 49
1, 54731, Note_off_c, 0, 82, 64
1, 54816, Note_off_c, 0, 68, 36
1, 54834, Note_on_c, 0, 62, 39
1, 54881, Note_on_c, 0, 89, 81
1, 54902, Note_on_c, 0, 80, 54
1, 54999, Note_off_c, 0, 58, 36
1, 55080, Note_off_c, 0, 89, 58
1, 55259, Note_off_c, 0, 62, 36
1, 55323, Note_on_c, 0, 53, 47
1, 55407, Note_off_c, 0, 80, 43
1, 55414, Note_off_c, 0, 53, 54
1, 55541, Note_on_c, 0, 80, 69
1, 55543, Note_on_c, 0, 82, 78
1, 55776, Note_off_c, 0, 80, 59
1, 55832, Note_off_c, 0, 82, 58
1, 55890, Note_on_c, 0, 39, 59
1, 55925, Note_on_c, 0, 78, 71
1, 55930, Note_on_c, 0, 82, 80
1, 55954, Control_c, 0, 64, 105
1, 55969, Control_c, 0, 64, 84
1, 55983, Control_c, 0, 64, 68
1, 55998, Control_c, 0, 64, 53
1, 56013, Control_c, 0, 64, 0
1, 56042, Control_c, 0, 64, 48
1, 56057, Control_c, 0, 64, 65
1, 56072, Control_c, 0, 64, 74
1, 56087, Control_c, 0, 64, 82
1, 56101, Control_c, 0, 64, 91
1, 56114, Note_off_c, 0, 39, 60
1, 56116, Control_c, 0, 64, 111
1, 56131, Control_c, 0, 64, 127
1, 56444, Note_on_c, 0, 66, 43
1, 56798, Note_on_c, 0, 58, 37
1, 56842, Note_on_c, 0, 83, 76
1, 56852, Note_on_c, 0, 80, 61
1, 56974, Note_off_c, 0, 66, 38
1, 56984, Note_off_c, 0, 78, 37
1, 57059, Note_off_c, 0, 82, 28
1, 57278, Note_on_c, 0, 66, 38
1, 57576, Note_on_c, 0, 63, 36
1, 57578, Note_on_c, 0, 78, 68
1, 57592, Note_on_c, 0, 75, 49
1, 57724, Note_off_c, 0, 83, 32
1, 57746, Note_off_c, 0, 66, 32
1, 57798, Note_off_c, 0, 80, 41
1, 57823, Note_off_c, 0, 58, 29
1, 57828, Note_on_c, 0, 54, 44
1, 57847, Note_off_c, 0, 63, 42
1, 57867, Note_off_c, 0, 54, 63
1, 58076, Note_on_c, 0, 51, 47
1, 58081, Note_off_c, 0, 78, 52
1, 58141, Control_c, 0, 64, 98
1, 58156, Control_c, 0, 64, 78
1, 58166, Note_on_c, 0, 82, 72
1, 58170, Control_c, 0, 64, 63
1, 58174, Note_on_c, 0, 78, 59
1, 58185, Control_c, 0, 64, 52
1, 58200, Control_c, 0, 64, 60
1, 58215, Control_c, 0, 64, 68
1, 58229, Control_c, 0, 64, 77
1, 58244, Control_c, 0, 64, 88
1, 58248, Note_off_c, 0, 51, 55
1, 58259, Control_c, 0, 64, 97
1, 58274, Control_c, 0, 64, 108
1, 58289, Control_c, 0, 64, 127
1, 58471, Note_off_c, 0, 75, 36
1, 58493, Note_on_c, 0, 80, 72
1, 58511, Note_on_c, 0, 77, 47
1, 58520, Note_off_c, 0, 78, 54
1, 58534, Note_off_c, 0, 82, 58
1, 58577, Note_on_c, 0, 68, 44
1, 58752, Note_on_c, 0, 82, 75
1, 58759, Note_on_c, 0, 78, 55
1, 58784, Note_off_c, 0, 77, 38
1, 58786, Note_off_c, 0, 80, 60
1, 58862, Note_on_c, 0, 58, 28
1, 58941, Note_off_c, 0, 68, 27
1, 58948, Note_on_c, 0, 80, 71
1, 58957, Note_on_c, 0, 77, 54
1, 58986, Note_off_c, 0, 78, 51
1, 58997, Note_off_c, 0, 82, 52
1, 59123, Note_on_c, 0, 78, 68
1, 59146, Note_on_c, 0, 75, 48
1, 59150, Note_off_c, 0, 77, 52
1, 59159, Note_off_c, 0, 80, 61
1, 59172, Note_on_c, 0, 68, 47
1, 59275, Note_on_c, 0, 80, 74
1, 59292, Note_on_c, 0, 77, 50
1, 59311, Note_off_c, 0, 78, 58
1, 59423, Note_off_c, 0, 75, 16
1, 59440, Note_on_c, 0, 62, 37
1, 59460, Control_c, 0, 64, 98
1, 59475, Control_c, 0, 64, 82
1, 59490, Control_c, 0, 64, 70
1, 59491, Note_on_c, 0, 82, 70
1, 59499, Note_on_c, 0, 78, 44
1, 59505, Control_c, 0, 64, 59
1, 59516, Note_off_c, 0, 77, 39
1, 59520, Control_c, 0, 64, 52
1, 59531, Note_off_c, 0, 80, 58
1, 59534, Control_c, 0, 64, 56
1, 59542, Note_off_c, 0, 58, 39
1, 59549, Control_c, 0, 64, 64
1, 59564, Control_c, 0, 64, 72
1, 59567, Note_off_c, 0, 68, 43
1, 59579, Control_c, 0, 64, 83
1, 59594, Control_c, 0, 64, 96
1, 59607, Note_off_c, 0, 78, 38
1, 59609, Control_c, 0, 64, 113
1, 59624, Control_c, 0, 64, 127
1, 59838, Note_off_c, 0, 62, 29
1, 59855, Note_on_c, 0, 53, 43
1, 59916, Note_off_c, 0, 53, 58
1, 59989, Note_off_c, 0, 82, 29
1, 60013, Note_on_c, 0, 77, 66
1, 60032, Note_on_c, 0, 74, 51
1, 60172, Note_off_c, 0, 74, 35
1, 60208, Note_off_c, 0, 77, 54
1, 60217, Note_on_c, 0, 51, 36
1, 60283, Note_on_c, 0, 80, 72
1, 60285, Note_on_c, 0, 77, 45
1, 60298, Control_c, 0, 64, 90
1, 60313, Control_c, 0, 64, 69
1, 60327, Control_c, 0, 64, 45
1, 60342, Control_c, 0, 64, 0
1, 60402, Control_c, 0, 64, 45
1, 60417, Control_c, 0, 64, 61
1, 60432, Control_c, 0, 64, 71
1, 60447, Control_c, 0, 64, 84
1, 60461, Control_c, 0, 64, 98
1, 60474, Note_off_c, 0, 51, 40
1, 60477, Control_c, 0, 64, 104
1, 60506, Control_c, 0, 64, 107
1, 60521, Control_c, 0, 64, 111
1, 60536, Control_c, 0, 64, 121
1, 60551, Control_c, 0, 64, 127
1, 60743, Note_on_c, 0, 66, 28
1, 61015, Note_off_c, 0, 77, 33
1, 61015, Note_off_c, 0, 80, 34
1, 61065, Note_off_c, 0, 66, 34
1, 61067, Note_on_c, 0, 58, 27
1, 61085, Note_on_c, 0, 78, 50
1, 61105, Note_on_c, 0, 75, 25
1, 61242, Note_off_c, 0, 75, 26
1, 61278, Note_off_c, 0, 78, 60
1, 61410, Note_on_c, 0, 66, 34
1, 61603, Note_on_c, 0, 87, 54
1, 61607, Note_on_c, 0, 78, 43
1, 61819, Note_off_c, 0, 87, 37
1, 61838, Note_off_c, 0, 78, 41
1, 61883, Note_on_c, 0, 63, 24
1, 61967, Note_on_c, 0, 87, 48
1, 61975, Note_on_c, 0, 78, 41
1, 61995, Note_off_c, 0, 66, 28
1, 62063, Note_off_c, 0, 78, 45
1, 62272, Note_on_c, 0, 77, 37
1, 62275, Note_on_c, 0, 85, 50
1, 62304, Note_off_c, 0, 77, 54
1, 62305, Note_off_c, 0, 87, 37
1, 62351, Note_off_c, 0, 58, 23
1, 62393, Note_on_c, 0, 54, 16
1, 62426, Note_off_c, 0, 63, 40
1, 62448, Note_off_c, 0, 54, 48
1, 62522, Note_on_c, 0, 83, 55
1, 62534, Note_on_c, 0, 75, 38
1, 62565, Note_off_c, 0, 85, 39
1, 62567, Note_off_c, 0, 83, 58
1, 62785, Note_on_c, 0, 46, 34
1, 62826, Control_c, 0, 64, 114
1, 62836, Note_off_c, 0, 75, 38
1, 62841, Control_c, 0, 64, 91
1, 62854, Note_on_c, 0, 74, 38
1, 62856, Control_c, 0, 64, 76
1, 62860, Note_on_c, 0, 82, 44
1, 62872, Control_c, 0, 64, 64
1, 62886, Control_c, 0, 64, 51
1, 62901, Control_c, 0, 64, 51
1, 62916, Control_c, 0, 64, 60
1, 62930, Note_off_c, 0, 74, 0
1, 62930, Note_on_c, 0, 74, 16
1, 62931, Control_c, 0, 64, 67
1, 62945, Control_c, 0, 64, 76
1, 62960, Control_c, 0, 64, 86
1, 62975, Control_c, 0, 64, 97
1, 62990, Control_c, 0, 64, 114
1, 63005, Control_c, 0, 64, 127
1, 63009, Note_off_c, 0, 82, 41
1, 63038, Note_off_c, 0, 46, 42
1, 63180, Note_on_c, 0, 70, 44
1, 63180, Note_on_c, 0, 82, 33
1, 63338, Note_on_c, 0, 68, 42
1, 63341, Note_off_c, 0, 70, 35
1, 63350, Note_off_c, 0, 82, 42
1, 63451, Note_on_c, 0, 71, 50
1, 63466, Note_on_c, 0, 82, 46
1, 63513, Note_off_c, 0, 71, 54
1, 63515, Note_off_c, 0, 82, 49
1, 63536, Note_off_c, 0, 74, 40
1, 63584, Note_off_c, 0, 68, 34
1, 63614, Note_on_c, 0, 58, 29
1, 63669, Note_on_c, 0, 72, 48
1, 63678, Note_on_c, 0, 82, 43
1, 63779, Note_off_c, 0, 82, 35
1, 63851, Note_on_c, 0, 73, 59
1, 63861, Note_on_c, 0, 82, 55
1, 63865, Note_off_c, 0, 72, 24
1, 63931, Note_off_c, 0, 82, 57
1, 63958, Note_on_c, 0, 68, 44
1, 64021, Note_off_c, 0, 73, 29
1, 64031, Note_on_c, 0, 74, 63
1, 64035, Note_on_c, 0, 82, 66
1, 64124, Note_off_c, 0, 82, 58
1, 64163, Note_off_c, 0, 68, 36
1, 64212, Note_on_c, 0, 75, 59
1, 64214, Note_on_c, 0, 62, 43
1, 64220, Note_on_c, 0, 82, 69
1, 64240, Note_off_c, 0, 74, 26
1, 64334, Note_off_c, 0, 82, 57
1, 64435, Note_on_c, 0, 76, 75
1, 64440, Note_on_c, 0, 82, 83
1, 64460, Note_off_c, 0, 75, 36
1, 64563, Note_off_c, 0, 58, 32
1, 64575, Note_off_c, 0, 62, 37
1, 64599, Note_on_c, 0, 53, 52
1, 64620, Note_off_c, 0, 82, 58
1, 64686, Note_off_c, 0, 76, 54
1, 64707, Note_off_c, 0, 53, 57
1, 64745, Note_on_c, 0, 77, 72
1, 64747, Note_on_c, 0, 82, 79
1, 64990, Note_off_c, 0, 77, 61
1, 65002, Note_off_c, 0, 82, 53
1, 65069, Note_on_c, 0, 39, 51
1, 65114, Note_on_c, 0, 82, 80
1, 65118, Control_c, 0, 64, 96
1, 65125, Note_on_c, 0, 78, 71
1, 65133, Control_c, 0, 64, 78
1, 65147, Control_c, 0, 64, 63
1, 65162, Control_c, 0, 64, 45
1, 65177, Control_c, 0, 64, 0
1, 65206, Control_c, 0, 64, 46
1, 65221, Control_c, 0, 64, 64
1, 65235, Control_c, 0, 64, 72
1, 65250, Control_c, 0, 64, 82
1, 65267, Control_c, 0, 64, 99
1, 65278, Note_off_c, 0, 39, 59
1, 65281, Control_c, 0, 64, 127
1, 65568, Note_on_c, 0, 66, 47
1, 65641, Note_on_c, 0, 83, 77
1, 65645, Note_on_c, 0, 80, 68
1, 65720, Note_off_c, 0, 82, 53
1, 65768, Note_off_c, 0, 78, 33
1, 65918, Note_on_c, 0, 58, 45
1, 66012, Note_on_c, 0, 82, 75
1, 66016, Note_on_c, 0, 78, 60
1, 66059, Note_off_c, 0, 80, 58
1, 66149, Note_off_c, 0, 66, 37
1, 66253, Note_off_c, 0, 83, 54
1, 66258, Note_on_c, 0, 80, 76
1, 66266, Note_on_c, 0, 77, 49
1, 66318, Note_off_c, 0, 78, 37
1, 66321, Note_off_c, 0, 82, 58
1, 66364, Note_on_c, 0, 66, 55
1, 66447, Note_on_c, 0, 82, 74
1, 66460, Note_on_c, 0, 78, 50
1, 66505, Note_off_c, 0, 80, 57
1, 66617, Note_on_c, 0, 83, 75
1, 66631, Note_on_c, 0, 80, 58
1, 66634, Note_on_c, 0, 63, 50
1, 66689, Note_off_c, 0, 82, 54
1, 66790, Note_off_c, 0, 77, 42
1, 66838, Note_off_c, 0, 83, 59
1, 66974, Note_off_c, 0, 78, 25
1, 67006, Note_off_c, 0, 66, 37
1, 67010, Note_on_c, 0, 54, 47
1, 67022, Note_off_c, 0, 80, 34
1, 67097, Note_off_c, 0, 63, 50
1, 67122, Note_off_c, 0, 58, 39
1, 67130, Note_off_c, 0, 54, 60
1, 67151, Note_on_c, 0, 78, 74
1, 67163, Note_on_c, 0, 75, 57
1, 67244, Note_off_c, 0, 75, 58
1, 67253, Note_off_c, 0, 78, 60
1, 67343, Note_on_c, 0, 78, 66
1, 67351, Note_on_c, 0, 75, 48
1, 67374, Note_off_c, 0, 75, 59
1, 67374, Note_off_c, 0, 78, 58
1, 67464, Note_on_c, 0, 82, 73
1, 67468, Control_c, 0, 64, 123
1, 67470, Note_on_c, 0, 51, 45
1, 67473, Note_on_c, 0, 78, 55
1, 67483, Control_c, 0, 64, 91
1, 67498, Control_c, 0, 64, 75
1, 67512, Control_c, 0, 64, 64
1, 67527, Control_c, 0, 64, 55
1, 67542, Control_c, 0, 64, 56
1, 67557, Control_c, 0, 64, 63
1, 67572, Control_c, 0, 64, 70
1, 67586, Control_c, 0, 64, 77
1, 67591, Note_off_c, 0, 51, 57
1, 67601, Control_c, 0, 64, 87
1, 67616, Control_c, 0, 64, 96
1, 67638, Control_c, 0, 64, 105
1, 67653, Control_c, 0, 64, 120
1, 67669, Control_c, 0, 64, 127
1, 67809, Note_on_c, 0, 68, 50
1, 67898, Note_on_c, 0, 80, 67
1, 67903, Note_off_c, 0, 78, 53
1, 67912, Note_off_c, 0, 82, 60
1, 67930, Note_on_c, 0, 77, 14
1, 67933, Note_off_c, 0, 80, 56
1, 67973, Note_off_c, 0, 77, 40
1, 68024, Note_off_c, 0, 68, 35
1, 68036, Note_on_c, 0, 80, 62
1, 68044, Note_on_c, 0, 58, 30
1, 68070, Note_on_c, 0, 77, 49
1, 68074, Note_off_c, 0, 80, 61
1, 68096, Note_on_c, 0, 82, 69
1, 68156, Note_on_c, 0, 80, 73
1, 68170, Note_off_c, 0, 82, 53
1, 68217, Note_off_c, 0, 77, 63
1, 68225, Note_on_c, 0, 78, 73
1, 68246, Note_on_c, 0, 75, 47
1, 68247, Note_off_c, 0, 80, 62
1, 68282, Note_off_c, 0, 75, 56
1, 68283, Note_off_c, 0, 78, 62
1, 68316, Note_on_c, 0, 68, 60
1, 68434, Note_on_c, 0, 80, 75
1, 68438, Note_on_c, 0, 77, 66
1, 68462, Note_off_c, 0, 77, 66
1, 68472, Note_off_c, 0, 80, 60
1, 68477, Control_c, 0, 64, 114
1, 68492, Control_c, 0, 64, 93
1, 68507, Control_c, 0, 64, 77
1, 68522, Control_c, 0, 64, 64
1, 68536, Note_on_c, 0, 80, 81
1, 68537, Control_c, 0, 64, 56
1, 68540, Note_on_c, 0, 77, 66
1, 68550, Note_on_c, 0, 62, 55
1, 68552, Control_c, 0, 64, 60
1, 68566, Control_c, 0, 64, 68
1, 68581, Control_c, 0, 64, 83
1, 68596, Control_c, 0, 64, 106
1, 68605, Note_off_c, 0, 68, 52
1, 68611, Control_c, 0, 64, 127
1, 68678, Note_on_c, 0, 82, 81
1, 68683, Note_on_c, 0, 78, 68
1, 68710, Note_off_c, 0, 77, 60
1, 68724, Note_off_c, 0, 80, 58
1, 68739, Poly_aftertouch_c, 0, 60, 127
1, 68750, Note_off_c, 0, 78, 59
1, 68762, Note_off_c, 0, 82, 61
1, 68838, Poly_aftertouch_c, 0, 60, 0
1, 68859, Note_off_c, 0, 58, 38
1, 68930, Note_on_c, 0, 53, 52
1, 68998, Note_off_c, 0, 62, 49
1, 69022, Note_off_c, 0, 53, 61
1, 69138, Note_on_c, 0, 77, 73
1, 69148, Note_on_c, 0, 74, 67
1, 69261, Note_off_c, 0, 74, 62
1, 69272, Note_off_c, 0, 77, 62
1, 69348, Note_on_c, 0, 77, 72
1, 69350, Note_on_c, 0, 74, 62
1, 69400, Note_off_c, 0, 74, 53
1, 69400, Note_off_c, 0, 77, 60
1, 69447, Control_c, 0, 64, 103
1, 69462, Control_c, 0, 64, 77
1, 69470, Note_on_c, 0, 77, 52
1, 69474, Note_on_c, 0, 80, 73
1, 69477, Control_c, 0, 64, 50
1, 69488, Note_on_c, 0, 51, 41
1, 69492, Control_c, 0, 64, 0
1, 69566, Control_c, 0, 64, 51
1, 69580, Control_c, 0, 64, 63
1, 69595, Control_c, 0, 64, 71
1, 69610, Control_c, 0, 64, 83
1, 69621, Note_off_c, 0, 51, 58
1, 69625, Control_c, 0, 64, 110
1, 69640, Control_c, 0, 64, 127
1, 69912, Note_off_c, 0, 77, 40
1, 69956, Note_on_c, 0, 66, 41
1, 69971, Note_off_c, 0, 80, 34
1, 70221, Note_on_c, 0, 58, 38
1, 70255, Note_off_c, 0, 66, 36
1, 70490, Note_on_c, 0, 66, 43
1, 70790, Note_on_c, 0, 78, 59
1, 70793, Note_on_c, 0, 63, 36
1, 70802, Note_on_c, 0, 75, 33
1, 70833, Note_off_c, 0, 66, 33
1, 71077, Note_on_c, 0, 54, 30
1, 71091, Note_off_c, 0, 63, 42
1, 71103, Note_off_c, 0, 58, 37
1, 71115, Note_off_c, 0, 54, 53
1, 71341, Note_on_c, 0, 45, 51
1, 71359, Control_c, 0, 64, 100
1, 71381, Control_c, 0, 64, 80
1, 71396, Control_c, 0, 64, 66
1, 71410, Control_c, 0, 64, 58
1, 71425, Control_c, 0, 64, 61
1, 71440, Control_c, 0, 64, 68
1, 71455, Control_c, 0, 64, 76
1, 71470, Control_c, 0, 64, 93
1, 71476, Note_off_c, 0, 45, 59
1, 71485, Control_c, 0, 64, 110
1, 71500, Control_c, 0, 64, 127
1, 71736, Note_on_c, 0, 61, 42
1, 71805, Note_off_c, 0, 75, 40
1, 71982, Note_off_c, 0, 78, 37
1, 72061, Note_on_c, 0, 51, 17
1, 72099, Note_on_c, 0, 78, 61
1, 72105, Note_on_c, 0, 74, 52
1, 72163, Note_off_c, 0, 61, 37
1, 72465, Note_on_c, 0, 61, 49
1, 72591, Note_off_c, 0, 78, 35
1, 72726, Note_on_c, 0, 78, 61
1, 72727, Note_off_c, 0, 74, 0
1, 72728, Note_on_c, 0, 73, 68
1, 72742, Note_on_c, 0, 54, 49
1, 72764, Poly_aftertouch_c, 0, 74, 127
1, 72808, Note_off_c, 0, 61, 50
1, 72824, Note_off_c, 0, 51, 41
1, 72829, Poly_aftertouch_c, 0, 74, 0
1, 73015, Note_on_c, 0, 51, 54
1, 73180, Note_off_c, 0, 78, 53
1, 73278, Note_off_c, 0, 54, 30
1, 73298, Note_on_c, 0, 78, 70
1, 73303, Note_on_c, 0, 72, 71
1, 73309, Note_on_c, 0, 44, 55
1, 73340, Control_c, 0, 64, 93
1, 73354, Control_c, 0, 64, 66
1, 73369, Control_c, 0, 64, 43
1, 73381, Note_off_c, 0, 51, 54
1, 73384, Control_c, 0, 64, 0
1, 73387, Note_off_c, 0, 73, 45
1, 73443, Control_c, 0, 64, 45
1, 73458, Control_c, 0, 64, 63
1, 73473, Control_c, 0, 64, 70
1, 73488, Control_c, 0, 64, 76
1, 73492, Note_off_c, 0, 44, 64
1, 73503, Control_c, 0, 64, 82
1, 73518, Control_c, 0, 64, 90
1, 73533, Control_c, 0, 64, 98
1, 73547, Control_c, 0, 64, 105
1, 73562, Control_c, 0, 64, 111
1, 73577, Control_c, 0, 64, 114
1, 73591, Control_c, 0, 64, 121
1, 73606, Control_c, 0, 64, 127
1, 73635, Note_on_c, 0, 60, 48
1, 73793, Note_off_c, 0, 72, 43
1, 73798, Note_off_c, 0, 78, 32
1, 73907, Note_on_c, 0, 51, 59
1, 73983, Note_off_c, 0, 60, 41
1, 74261, Note_on_c, 0, 69, 76
1, 74261, Note_on_c, 0, 81, 88
1, 74275, Note_on_c, 0, 60, 58
1, 74533, Note_off_c, 0, 69, 59
1, 74654, Note_off_c, 0, 60, 31
1, 74677, Note_on_c, 0, 80, 82
1, 74680, Note_on_c, 0, 68, 81
1, 74686, Note_on_c, 0, 54, 63
1, 74810, Note_off_c, 0, 51, 53
1, 74828, Note_off_c, 0, 81, 35
1, 75126, Note_on_c, 0, 51, 62
1, 75452, Note_on_c, 0, 45, 74
1, 75497, Control_c, 0, 64, 100
1, 75512, Control_c, 0, 64, 77
1, 75527, Control_c, 0, 64, 60
1, 75536, Note_off_c, 0, 51, 55
1, 75542, Control_c, 0, 64, 33
1, 75557, Control_c, 0, 64, 0
1, 75567, Note_off_c, 0, 54, 36
1, 75616, Control_c, 0, 64, 41
1, 75631, Control_c, 0, 64, 58
1, 75646, Control_c, 0, 64, 65
1, 75661, Control_c, 0, 64, 71
1, 75675, Control_c, 0, 64, 76
1, 75690, Control_c, 0, 64, 80
1, 75705, Control_c, 0, 64, 89
1, 75720, Control_c, 0, 64, 101
1, 75735, Control_c, 0, 64, 114
1, 75749, Control_c, 0, 64, 127
1, 75751, Note_on_c, 0, 57, 59
1, 75860, Note_off_c, 0, 80, 44
1, 75944, Note_off_c, 0, 68, 39
1, 76039, Note_on_c, 0, 51, 44
1, 76063, Note_on_c, 0, 78, 71
1, 76069, Note_on_c, 0, 66, 66
1, 76184, Note_off_c, 0, 57, 38
1, 76293, Note_off_c, 0, 78, 56
1, 76474, Note_on_c, 0, 57, 38
1, 76681, Note_off_c, 0, 66, 0
1, 76717, Poly_aftertouch_c, 0, 66, 127
1, 76774, Note_on_c, 0, 73, 71
1, 76785, Note_on_c, 0, 61, 57
1, 76805, Note_on_c, 0, 54, 42
1, 76827, Note_off_c, 0, 51, 40
1, 77060, Note_off_c, 0, 57, 39
1, 77061, Note_off_c, 0, 45, 52
1, 77086, Note_on_c, 0, 51, 37
1, 77159, Note_off_c, 0, 54, 37
1, 77289, Note_off_c, 0, 73, 39
1, 77341, Note_off_c, 0, 61, 39
1, 77449, Note_on_c, 0, 72, 60
1, 77453, Note_on_c, 0, 44, 40
1, 77465, Note_on_c, 0, 60, 42
1, 77511, Note_off_c, 0, 51, 39
1, 77551, Control_c, 0, 64, 120
1, 77566, Control_c, 0, 64, 94
1, 77581, Control_c, 0, 64, 77
1, 77596, Control_c, 0, 64, 64
1, 77611, Control_c, 0, 64, 47
1, 77617, Poly_aftertouch_c, 0, 66, 0
1, 77626, Control_c, 0, 64, 0
1, 77729, Control_c, 0, 64, 48
1, 77744, Control_c, 0, 64, 63
1, 77759, Control_c, 0, 64, 66
1, 77773, Control_c, 0, 64, 69
1, 77788, Control_c, 0, 64, 74
1, 77788, Control_c, 0, 67, 20
1, 77803, Control_c, 0, 64, 81
1, 77803, Control_c, 0, 67, 22
1, 77818, Control_c, 0, 64, 89
1, 77818, Control_c, 0, 67, 27
1, 77833, Control_c, 0, 64, 95
1, 77833, Control_c, 0, 67, 31
1, 77847, Control_c, 0, 64, 99
1, 77847, Control_c, 0, 67, 34
1, 77862, Control_c, 0, 64, 102
1, 77862, Control_c, 0, 67, 40
1, 77877, Control_c, 0, 64, 105
1, 77877, Control_c, 0, 67, 46
1, 77891, Control_c, 0, 64, 109
1, 77891, Control_c, 0, 67, 53
1, 77906, Control_c, 0, 64, 111
1, 77906, Control_c, 0, 67, 60
1, 77921, Control_c, 0, 64, 113
1, 77921, Control_c, 0, 67, 67
1, 77936, Control_c, 0, 67, 73
1, 77939, Note_on_c, 0, 56, 36
1, 77951, Control_c, 0, 67, 77
1, 77959, Note_off_c, 0, 60, 36
1, 77965, Control_c, 0, 67, 81
1, 77980, Control_c, 0, 67, 83
1, 77995, Control_c, 0, 67, 83
1, 78010, Control_c, 0, 67, 84
1, 78025, Control_c, 0, 67, 85
1, 78041, Control_c, 0, 67, 86
1, 78056, Control_c, 0, 67, 89
1, 78070, Control_c, 0, 67, 93
1, 78085, Control_c, 0, 67, 97
1, 78100, Control_c, 0, 67, 101
1, 78122, Control_c, 0, 67, 104
1, 78137, Control_c, 0, 67, 108
1, 78152, Control_c, 0, 67, 111
1, 78167, Control_c, 0, 67, 115
1, 78182, Control_c, 0, 64, 111
1, 78182, Control_c, 0, 67, 118
1, 78196, Control_c, 0, 67, 122
1, 78211, Control_c, 0, 67, 125
1, 78226, Control_c, 0, 67, 127
1, 78254, Note_on_c, 0, 51, 31
1, 78256, Control_c, 0, 64, 108
1, 78296, Note_off_c, 0, 56, 37
1, 78300, Control_c, 0, 64, 106
1, 78343, Note_off_c, 0, 72, 33
1, 78344, Control_c, 0, 64, 103
1, 78566, Note_on_c, 0, 56, 35
1, 78626, Control_c, 0, 64, 101
1, 78753, Note_off_c, 0, 44, 17
1, 78952, Note_on_c, 0, 54, 29
1, 78953, Note_on_c, 0, 68, 47
1, 78975, Control_c, 0, 64, 99
1, 78990, Control_c, 0, 64, 96
1, 79005, Control_c, 0, 64, 91
1, 79019, Control_c, 0, 64, 86
1, 79034, Control_c, 0, 64, 85
1, 79049, Control_c, 0, 64, 86
1, 79064, Control_c, 0, 64, 86
1, 79079, Control_c, 0, 64, 87
1, 79093, Control_c, 0, 64, 88
1, 79108, Control_c, 0, 64, 88
1, 79123, Control_c, 0, 64, 89
1, 79182, Control_c, 0, 64, 89
1, 79286, Control_c, 0, 64, 90
1, 79289, Note_off_c, 0, 51, 30
1, 79290, Note_off_c, 0, 56, 29
1, 79319, Note_on_c, 0, 44, 30
1, 79373, Note_off_c, 0, 54, 26
1, 79449, Control_c, 0, 67, 109
1, 79463, Control_c, 0, 67, 89
1, 79478, Control_c, 0, 67, 68
1, 79493, Control_c, 0, 67, 45
1, 79508, Control_c, 0, 67, 27
1, 79523, Control_c, 0, 67, 0
1, 79724, Control_c, 0, 64, 89
1, 79747, Note_on_c, 0, 49, 21
1, 79798, Note_off_c, 0, 44, 27
1, 79798, Control_c, 0, 64, 88
1, 79813, Control_c, 0, 64, 86
1, 79828, Control_c, 0, 64, 82
1, 79842, Control_c, 0, 64, 73
1, 79845, Note_on_c, 0, 69, 40
1, 79857, Control_c, 0, 64, 62
1, 79869, Note_off_c, 0, 68, 36
1, 79872, Control_c, 0, 64, 46
1, 79886, Control_c, 0, 64, 0
1, 79946, Control_c, 0, 64, 44
1, 79946, Control_c, 0, 67, 19
1, 79960, Control_c, 0, 64, 61
1, 79960, Control_c, 0, 67, 21
1, 79975, Control_c, 0, 64, 67
1, 79975, Control_c, 0, 67, 23
1, 79990, Control_c, 0, 64, 70
1, 79990, Control_c, 0, 67, 26
1, 80005, Control_c, 0, 64, 75
1, 80005, Control_c, 0, 67, 29
1, 80020, Control_c, 0, 64, 80
1, 80020, Control_c, 0, 67, 33
1, 80034, Control_c, 0, 64, 87
1, 80034, Control_c, 0, 67, 38
1, 80043, Note_off_c, 0, 49, 41
1, 80049, Control_c, 0, 64, 91
1, 80049, Control_c, 0, 67, 45
1, 80064, Control_c, 0, 64, 96
1, 80064, Control_c, 0, 67, 54
1, 80079, Control_c, 0, 64, 100
1, 80079, Control_c, 0, 67, 63
1, 80094, Control_c, 0, 64, 105
1, 80094, Control_c, 0, 67, 72
1, 80109, Control_c, 0, 64, 112
1, 80109, Control_c, 0, 67, 81
1, 80124, Control_c, 0, 64, 126
1, 80124, Control_c, 0, 67, 87
1, 80138, Control_c, 0, 67, 93
1, 80153, Control_c, 0, 67, 101
1, 80168, Control_c, 0, 67, 108
1, 80183, Control_c, 0, 67, 115
1, 80198, Control_c, 0, 67, 120
1, 80213, Control_c, 0, 67, 126
1, 80267, Note_on_c, 0, 71, 43
1, 80352, Note_off_c, 0, 69, 39
1, 80435, Note_on_c, 0, 64, 31
1, 80575, Note_off_c, 0, 71, 41
1, 80580, Note_on_c, 0, 69, 35
1, 80765, Note_off_c, 0, 64, 31
1, 80779, Note_on_c, 0, 54, 23
1, 80812, Note_off_c, 0, 69, 35
1, 80834, Note_on_c, 0, 68, 38
1, 81113, Note_on_c, 0, 69, 43
1, 81117, Note_on_c, 0, 64, 27
1, 81131, Control_c, 0, 64, 123
1, 81144, Note_off_c, 0, 68, 36
1, 81146, Control_c, 0, 64, 120
1, 81176, Control_c, 0, 64, 118
1, 81206, Control_c, 0, 64, 116
1, 81281, Control_c, 0, 64, 114
1, 81317, Note_off_c, 0, 64, 36
1, 81399, Note_on_c, 0, 57, 29
1, 81414, Control_c, 0, 64, 112
1, 81429, Control_c, 0, 64, 110
1, 81444, Control_c, 0, 64, 105
1, 81458, Control_c, 0, 64, 99
1, 81473, Control_c, 0, 64, 92
1, 81488, Control_c, 0, 64, 86
1, 81491, Note_on_c, 0, 76, 50
1, 81503, Control_c, 0, 64, 81
1, 81518, Control_c, 0, 64, 78
1, 81541, Note_off_c, 0, 54, 36
1, 81547, Control_c, 0, 64, 80
1, 81562, Control_c, 0, 64, 82
1, 81577, Control_c, 0, 64, 83
1, 81592, Control_c, 0, 64, 84
1, 81592, Control_c, 0, 67, 124
1, 81606, Control_c, 0, 64, 85
1, 81621, Control_c, 0, 64, 86
1, 81621, Control_c, 0, 67, 121
1, 81636, Control_c, 0, 64, 87
1, 81651, Control_c, 0, 64, 88
1, 81651, Control_c, 0, 67, 118
1, 81666, Control_c, 0, 64, 89
1, 81666, Control_c, 0, 67, 110
1, 81681, Control_c, 0, 64, 90
1, 81681, Control_c, 0, 67, 98
1, 81696, Control_c, 0, 64, 91
1, 81696, Control_c, 0, 67, 83
1, 81711, Control_c, 0, 64, 91
1, 81711, Control_c, 0, 67, 68
1, 81726, Control_c, 0, 67, 55
1, 81740, Control_c, 0, 67, 40
1, 81755, Control_c, 0, 67, 31
1, 81770, Control_c, 0, 67, 22
1, 81785, Control_c, 0, 67, 0
1, 81873, Note_on_c, 0, 49, 26
1, 82027, Note_off_c, 0, 49, 41
1, 82105, Note_on_c, 0, 75, 42
1, 82157, Note_off_c, 0, 69, 23
1, 82169, Note_off_c, 0, 57, 35
1, 82192, Note_off_c, 0, 76, 37
1, 82261, Note_off_c, 0, 75, 36
1, 82371, Control_c, 0, 64, 91
1, 82383, Note_on_c, 0, 48, 29
1, 82401, Control_c, 0, 64, 89
1, 82416, Control_c, 0, 64, 87
1, 82430, Control_c, 0, 64, 82
1, 82445, Control_c, 0, 64, 75
1, 82450, Note_on_c, 0, 75, 41
1, 82460, Control_c, 0, 64, 67
1, 82475, Control_c, 0, 64, 59
1, 82489, Control_c, 0, 64, 52
1, 82504, Control_c, 0, 64, 50
1, 82519, Control_c, 0, 64, 51
1, 82534, Control_c, 0, 64, 54
1, 82549, Control_c, 0, 64, 59
1, 82563, Control_c, 0, 64, 64
1, 82578, Control_c, 0, 64, 69
1, 82593, Control_c, 0, 64, 77
1, 82615, Control_c, 0, 64, 86
1, 82630, Control_c, 0, 64, 93
1, 82638, Note_off_c, 0, 48, 41
1, 82645, Control_c, 0, 64, 97
1, 82660, Control_c, 0, 64, 106
1, 82675, Control_c, 0, 64, 127
1, 82871, Note_off_c, 0, 75, 29
1, 82940, Note_on_c, 0, 63, 33
1, 83258, Note_on_c, 0, 54, 41
1, 83343, Note_off_c, 0, 63, 41
1, 83566, Note_on_c, 0, 81, 83
1, 83572, Note_on_c, 0, 69, 71
1, 83581, Note_on_c, 0, 63, 49
1, 83906, Note_off_c, 0, 69, 60
1, 84023, Note_on_c, 0, 56, 51
1, 84043, Note_on_c, 0, 68, 74
1, 84043, Note_on_c, 0, 80, 77
1, 84160, Note_off_c, 0, 63, 37
1, 84170, Note_off_c, 0, 54, 40
1, 84179, Note_off_c, 0, 81, 37
1, 84466, Note_on_c, 0, 54, 65
1, 84625, Note_off_c, 0, 56, 33
1, 84751, Note_off_c, 0, 54, 57
1, 84764, Note_on_c, 0, 45, 73
1, 84795, Control_c, 0, 64, 96
1, 84809, Control_c, 0, 64, 69
1, 84824, Control_c, 0, 64, 0
1, 84905, Control_c, 0, 64, 53
1, 84920, Control_c, 0, 64, 65
1, 84935, Control_c, 0, 64, 79
1, 84942, Note_off_c, 0, 45, 55
1, 84950, Control_c, 0, 64, 99
1, 84965, Control_c, 0, 64, 127
1, 85123, Note_on_c, 0, 61, 63
1, 85336, Note_off_c, 0, 80, 56
1, 85349, Note_off_c, 0, 68, 51
1, 85386, Note_on_c, 0, 51, 50
1, 85453, Note_on_c, 0, 80, 77
1, 85468, Note_on_c, 0, 68, 69
1, 85569, Note_off_c, 0, 61, 33
1, 85694, Note_off_c, 0, 68, 57
1, 85710, Note_off_c, 0, 80, 59
1, 85803, Note_on_c, 0, 78, 76
1, 85813, Note_on_c, 0, 66, 67
1, 85891, Note_off_c, 0, 66, 54
1, 85954, Note_on_c, 0, 61, 51
1, 86020, Note_on_c, 0, 80, 76
1, 86030, Note_on_c, 0, 68, 61
1, 86048, Note_off_c, 0, 78, 60
1, 86091, Note_off_c, 0, 68, 60
1, 86103, Note_off_c, 0, 80, 61
1, 86180, Note_on_c, 0, 78, 73
1, 86183, Note_off_c, 0, 61, 42
1, 86190, Note_on_c, 0, 66, 68
1, 86236, Note_off_c, 0, 66, 55
1, 86237, Note_off_c, 0, 78, 62
1, 86290, Note_on_c, 0, 54, 51
1, 86327, Note_on_c, 0, 76, 73
1, 86332, Note_on_c, 0, 64, 62
1, 86361, Note_off_c, 0, 64, 61
1, 86389, Note_off_c, 0, 51, 56
1, 86467, Note_on_c, 0, 75, 71
1, 86473, Note_on_c, 0, 63, 62
1, 86493, Note_off_c, 0, 76, 61
1, 86512, Note_off_c, 0, 63, 61
1, 86562, Note_off_c, 0, 75, 55
1, 86594, Note_on_c, 0, 51, 52
1, 86602, Note_on_c, 0, 76, 76
1, 86604, Note_on_c, 0, 64, 61
1, 86637, Note_off_c, 0, 64, 57
1, 86698, Note_off_c, 0, 54, 37
1, 86742, Note_on_c, 0, 75, 74
1, 86750, Note_on_c, 0, 63, 66
1, 86768, Note_off_c, 0, 76, 56
1, 86809, Note_off_c, 0, 75, 63
1, 86822, Note_off_c, 0, 63, 60
1, 86924, Note_on_c, 0, 44, 46
1, 86953, Note_on_c, 0, 72, 68
1, 86966, Note_on_c, 0, 60, 47
1, 86996, Control_c, 0, 64, 118
1, 87011, Control_c, 0, 64, 90
1, 87020, Note_off_c, 0, 51, 37
1, 87026, Control_c, 0, 64, 73
1, 87041, Control_c, 0, 64, 58
1, 87056, Control_c, 0, 64, 0
1, 87182, Control_c, 0, 64, 31
1, 87197, Control_c, 0, 64, 52
1, 87197, Control_c, 0, 67, 20
1, 87211, Control_c, 0, 64, 61
1, 87211, Control_c, 0, 67, 22
1, 87226, Control_c, 0, 64, 64
1, 87226, Control_c, 0, 67, 34
1, 87241, Control_c, 0, 64, 66
1, 87241, Control_c, 0, 67, 51
1, 87256, Control_c, 0, 64, 70
1, 87256, Control_c, 0, 67, 62
1, 87271, Control_c, 0, 64, 76
1, 87271, Control_c, 0, 67, 70
1, 87285, Control_c, 0, 64, 82
1, 87285, Control_c, 0, 67, 77
1, 87300, Control_c, 0, 64, 87
1, 87300, Control_c, 0, 67, 83
1, 87315, Control_c, 0, 64, 91
1, 87315, Control_c, 0, 67, 90
1, 87330, Control_c, 0, 64, 95
1, 87330, Control_c, 0, 67, 97
1, 87345, Control_c, 0, 64, 99
1, 87345, Control_c, 0, 67, 104
1, 87359, Control_c, 0, 64, 102
1, 87359, Control_c, 0, 67, 109
1, 87369, Note_off_c, 0, 60, 34
1, 87374, Control_c, 0, 67, 113
1, 87380, Note_on_c, 0, 56, 43
1, 87389, Control_c, 0, 67, 118
1, 87403, Control_c, 0, 67, 124
1, 87418, Control_c, 0, 67, 127
1, 87665, Note_on_c, 0, 51, 43
1, 87666, Note_off_c, 0, 72, 25
1, 87776, Note_off_c, 0, 56, 32
1, 87999, Note_on_c, 0, 56, 40
1, 88330, Control_c, 0, 64, 100
1, 88339, Note_on_c, 0, 54, 31
1, 88364, Note_off_c, 0, 44, 30
1, 88549, Note_off_c, 0, 56, 29
1, 88763, Note_off_c, 0, 51, 28
1, 88795, Note_on_c, 0, 44, 33
1, 88832, Note_off_c, 0, 54, 32
1, 88868, Note_on_c, 0, 68, 36
1, 89109, Control_c, 0, 64, 98
1, 89351, Note_on_c, 0, 49, 28
1, 89398, Control_c, 0, 64, 93
1, 89413, Control_c, 0, 64, 85
1, 89428, Control_c, 0, 64, 74
1, 89431, Note_off_c, 0, 44, 35
1, 89443, Control_c, 0, 64, 63
1, 89448, Note_on_c, 0, 69, 30
1, 89458, Control_c, 0, 64, 48
1, 89465, Note_off_c, 0, 68, 38
1, 89472, Control_c, 0, 64, 0
1, 89517, Control_c, 0, 64, 44
1, 89532, Control_c, 0, 64, 59
1, 89546, Control_c, 0, 64, 65
1, 89561, Control_c, 0, 64, 69
1, 89576, Control_c, 0, 64, 74
1, 89591, Control_c, 0, 64, 80
1, 89606, Control_c, 0, 64, 86
1, 89609, Note_off_c, 0, 49, 41
1, 89621, Control_c, 0, 64, 90
1, 89636, Control_c, 0, 64, 93
1, 89650, Control_c, 0, 64, 95
1, 89665, Control_c, 0, 64, 97
1, 89680, Control_c, 0, 64, 101
1, 89695, Control_c, 0, 64, 104
1, 89710, Control_c, 0, 64, 108
1, 89725, Control_c, 0, 64, 110
1, 89740, Control_c, 0, 64, 115
1, 89754, Control_c, 0, 64, 123
1, 89769, Control_c, 0, 64, 127
1, 89847, Note_on_c, 0, 71, 37
1, 89952, Note_off_c, 0, 69, 38
1, 89999, Note_on_c, 0, 64, 14
1, 90144, Note_on_c, 0, 69, 37
1, 90153, Note_off_c, 0, 71, 39
1, 90343, Note_on_c, 0, 54, 22
1, 90386, Note_on_c, 0, 68, 42
1, 90393, Note_off_c, 0, 64, 27
1, 90452, Note_off_c, 0, 69, 34
1, 90667, Note_on_c, 0, 64, 23
1, 90671, Note_on_c, 0, 69, 42
1, 90686, Note_off_c, 0, 68, 37
1, 90784, Control_c, 0, 64, 123
1, 90815, Control_c, 0, 64, 121
1, 90867, Control_c, 0, 64, 118
1, 90870, Note_off_c, 0, 64, 34
1, 90894, Note_off_c, 0, 69, 31
1, 90926, Control_c, 0, 64, 116
1, 90941, Note_on_c, 0, 57, 19
1, 90985, Control_c, 0, 67, 118
1, 91000, Control_c, 0, 67, 108
1, 91015, Control_c, 0, 67, 95
1, 91028, Note_on_c, 0, 69, 38
1, 91030, Control_c, 0, 67, 85
1, 91044, Control_c, 0, 67, 76
1, 91059, Control_c, 0, 67, 68
1, 91074, Control_c, 0, 67, 61
1, 91089, Control_c, 0, 67, 55
1, 91092, Note_off_c, 0, 54, 33
1, 91104, Control_c, 0, 67, 50
1, 91118, Control_c, 0, 67, 44
1, 91133, Control_c, 0, 67, 39
1, 91148, Control_c, 0, 67, 34
1, 91163, Control_c, 0, 67, 28
1, 91177, Control_c, 0, 67, 21
1, 91192, Control_c, 0, 67, 0
1, 91267, Note_on_c, 0, 76, 45
1, 91434, Note_off_c, 0, 69, 31
1, 91520, Note_on_c, 0, 49, 20
1, 91533, Control_c, 0, 64, 114
1, 91711, Note_off_c, 0, 49, 42
1, 91734, Note_off_c, 0, 76, 13
1, 91764, Control_c, 0, 67, 19
1, 91793, Control_c, 0, 67, 21
1, 91823, Control_c, 0, 67, 24
1, 91847, Note_on_c, 0, 75, 41
1, 91853, Control_c, 0, 67, 26
1, 91867, Control_c, 0, 67, 28
1, 91870, Note_off_c, 0, 57, 38
1, 91882, Control_c, 0, 67, 30
1, 91897, Control_c, 0, 67, 32
1, 91912, Control_c, 0, 67, 35
1, 91926, Control_c, 0, 67, 39
1, 91941, Control_c, 0, 67, 43
1, 91956, Control_c, 0, 67, 48
1, 91971, Control_c, 0, 67, 52
1, 91986, Control_c, 0, 67, 57
1, 91988, Note_off_c, 0, 75, 34
1, 92000, Control_c, 0, 67, 61
1, 92015, Control_c, 0, 67, 65
1, 92030, Control_c, 0, 67, 71
1, 92045, Control_c, 0, 67, 76
1, 92060, Control_c, 0, 67, 81
1, 92074, Control_c, 0, 67, 85
1, 92089, Control_c, 0, 67, 88
1, 92104, Control_c, 0, 67, 92
1, 92119, Control_c, 0, 67, 95
1, 92134, Control_c, 0, 67, 99
1, 92148, Note_on_c, 0, 48, 23
1, 92149, Control_c, 0, 67, 102
1, 92164, Control_c, 0, 64, 112
1, 92164, Control_c, 0, 67, 106
1, 92179, Control_c, 0, 64, 106
1, 92179, Control_c, 0, 67, 110
1, 92193, Control_c, 0, 64, 95
1, 92193, Control_c, 0, 67, 115
1, 92204, Note_on_c, 0, 75, 44
1, 92208, Control_c, 0, 64, 82
1, 92208, Control_c, 0, 67, 119
1, 92223, Control_c, 0, 64, 71
1, 92223, Control_c, 0, 67, 123
1, 92238, Control_c, 0, 64, 62
1, 92238, Control_c, 0, 67, 127
1, 92253, Control_c, 0, 64, 54
1, 92268, Control_c, 0, 64, 54
1, 92283, Control_c, 0, 64, 60
1, 92298, Control_c, 0, 64, 69
1, 92312, Control_c, 0, 64, 77
1, 92327, Control_c, 0, 64, 86
1, 92349, Control_c, 0, 64, 94
1, 92364, Control_c, 0, 64, 102
1, 92379, Control_c, 0, 64, 114
1, 92387, Note_off_c, 0, 48, 42
1, 92393, Control_c, 0, 64, 127
1, 92700, Note_on_c, 0, 63, 29
1, 93024, Note_on_c, 0, 54, 24
1, 93037, Note_off_c, 0, 63, 37
1, 93190, Note_off_c, 0, 75, 26
1, 93304, Note_on_c, 0, 63, 33
1, 93440, Note_off_c, 0, 54, 33
1, 93570, Note_on_c, 0, 57, 29
1, 93704, Note_off_c, 0, 63, 41
1, 93822, Note_on_c, 0, 54, 36
1, 93934, Note_off_c, 0, 57, 42
1, 94004, Note_off_c, 0, 54, 29
1, 94235, Note_on_c, 0, 75, 63
1, 94244, Note_on_c, 0, 47, 39
1, 94248, Control_c, 0, 64, 112
1, 94263, Control_c, 0, 64, 91
1, 94277, Control_c, 0, 64, 74
1, 94292, Control_c, 0, 64, 62
1, 94307, Control_c, 0, 64, 50
1, 94322, Control_c, 0, 64, 54
1, 94336, Control_c, 0, 64, 64
1, 94351, Control_c, 0, 64, 74
1, 94366, Control_c, 0, 64, 90
1, 94381, Control_c, 0, 64, 127
1, 94405, Note_off_c, 0, 47, 37
1, 94743, Note_on_c, 0, 63, 36
1, 95080, Note_off_c, 0, 63, 37
1, 95126, Note_on_c, 0, 53, 39
1, 95414, Note_off_c, 0, 53, 34
1, 95420, Note_on_c, 0, 63, 43
1, 95672, Note_on_c, 0, 56, 35
1, 95706, Note_off_c, 0, 63, 41
1, 95906, Note_on_c, 0, 53, 35
1, 95907, Note_off_c, 0, 56, 38
1, 96153, Control_c, 0, 64, 111
1, 96167, Control_c, 0, 64, 91
1, 96170, Note_on_c, 0, 47, 38
1, 96182, Control_c, 0, 64, 87
1, 96197, Control_c, 0, 64, 90
1, 96203, Note_off_c, 0, 47, 54
1, 96212, Control_c, 0, 64, 96
1, 96217, Note_off_c, 0, 53, 29
1, 96227, Control_c, 0, 64, 107
1, 96241, Control_c, 0, 64, 127
1, 96429, Note_on_c, 0, 62, 32
1, 96657, Control_c, 0, 64, 107
1, 96666, Note_off_c, 0, 62, 37
1, 96672, Control_c, 0, 64, 96
1, 96683, Note_on_c, 0, 53, 29
1, 96687, Control_c, 0, 64, 94
1, 96716, Control_c, 0, 64, 95
1, 96746, Control_c, 0, 64, 98
1, 96805, Control_c, 0, 64, 100
1, 96933, Note_on_c, 0, 62, 34
1, 96946, Control_c, 0, 64, 102
1, 97153, Note_off_c, 0, 53, 30
1, 97205, Note_on_c, 0, 56, 33
1, 97327, Note_off_c, 0, 62, 38
1, 97438, Note_on_c, 0, 53, 22
1, 97469, Note_off_c, 0, 56, 36
1, 97724, Control_c, 0, 64, 97
1, 97725, Note_on_c, 0, 74, 45
1, 97729, Note_off_c, 0, 53, 34
1, 97738, Control_c, 0, 64, 85
1, 97744, Note_on_c, 0, 47, 31
1, 97753, Control_c, 0, 64, 72
1, 97768, Control_c, 0, 64, 61
1, 97773, Note_off_c, 0, 75, 54
1, 97783, Control_c, 0, 64, 56
1, 97798, Control_c, 0, 64, 63
1, 97812, Control_c, 0, 64, 70
1, 97827, Control_c, 0, 64, 79
1, 97842, Control_c, 0, 64, 91
1, 97857, Control_c, 0, 64, 101
1, 97872, Control_c, 0, 64, 113
1, 97879, Note_off_c, 0, 47, 35
1, 97887, Control_c, 0, 64, 127
1, 98042, Note_on_c, 0, 62, 32
1, 98307, Note_on_c, 0, 53, 30
1, 98396, Note_off_c, 0, 62, 32
1, 98567, Note_on_c, 0, 62, 37
1, 98851, Note_on_c, 0, 56, 34
1, 98934, Note_off_c, 0, 62, 24
1, 98999, Note_off_c, 0, 53, 27
1, 99125, Note_off_c, 0, 56, 41
1, 99245, Poly_aftertouch_c, 0, 53, 127
1, 99485, Poly_aftertouch_c, 0, 53, 0
1, 99640, Note_on_c, 0, 73, 43
1, 99682, Control_c, 0, 64, 111
1, 99690, Note_on_c, 0, 45, 37
1, 99697, Control_c, 0, 64, 91
1, 99712, Control_c, 0, 64, 75
1, 99726, Control_c, 0, 64, 62
1, 99730, Note_off_c, 0, 74, 40
1, 99741, Control_c, 0, 64, 46
1, 99756, Control_c, 0, 64, 45
1, 99771, Control_c, 0, 64, 56
1, 99786, Control_c, 0, 64, 70
1, 99800, Control_c, 0, 64, 82
1, 99815, Control_c, 0, 64, 98
1, 99838, Control_c, 0, 64, 110
1, 99853, Control_c, 0, 64, 123
1, 99856, Note_off_c, 0, 45, 35
1, 99867, Control_c, 0, 64, 127
1, 100072, Note_on_c, 0, 61, 34
1, 100327, Note_on_c, 0, 52, 34
1, 100342, Note_off_c, 0, 61, 33
1, 100587, Note_on_c, 0, 61, 35
1, 100596, Note_off_c, 0, 73, 18
1, 100813, Note_off_c, 0, 52, 35
1, 100825, Note_on_c, 0, 57, 34
1, 100975, Note_off_c, 0, 61, 39
1, 101055, Note_off_c, 0, 57, 42
1, 101060, Control_c, 0, 67, 113
1, 101074, Control_c, 0, 67, 92
1, 101083, Note_on_c, 0, 52, 34
1, 101089, Control_c, 0, 67, 74
1, 101104, Control_c, 0, 67, 67
1, 101134, Control_c, 0, 67, 68
1, 101148, Control_c, 0, 67, 69
1, 101163, Control_c, 0, 67, 70
1, 101178, Control_c, 0, 67, 72
1, 101193, Control_c, 0, 67, 74
1, 101209, Control_c, 0, 67, 75
1, 101223, Control_c, 0, 67, 76
1, 101238, Control_c, 0, 67, 78
1, 101253, Control_c, 0, 67, 79
1, 101268, Control_c, 0, 67, 81
1, 101283, Control_c, 0, 67, 84
1, 101297, Control_c, 0, 67, 89
1, 101312, Control_c, 0, 67, 95
1, 101335, Control_c, 0, 67, 102
1, 101350, Control_c, 0, 67, 109
1, 101365, Control_c, 0, 67, 115
1, 101373, Note_off_c, 0, 52, 33
1, 101379, Control_c, 0, 67, 120
1, 101394, Control_c, 0, 67, 124
1, 101409, Control_c, 0, 67, 127
1, 101483, Note_on_c, 0, 45, 26
1, 101512, Control_c, 0, 64, 107
1, 101527, Control_c, 0, 64, 91
1, 101531, Note_on_c, 0, 73, 50
1, 101542, Control_c, 0, 64, 77
1, 101557, Control_c, 0, 64, 65
1, 101572, Control_c, 0, 64, 56
1, 101586, Control_c, 0, 64, 58
1, 101601, Control_c, 0, 64, 64
1, 101616, Control_c, 0, 64, 70
1, 101631, Control_c, 0, 64, 80
1, 101646, Control_c, 0, 64, 93
1, 101661, Control_c, 0, 64, 109
1, 101675, Control_c, 0, 64, 127
1, 101684, Note_off_c, 0, 45, 41
1, 102021, Note_on_c, 0, 61, 35
1, 102380, Note_on_c, 0, 51, 26
1, 102390, Note_off_c, 0, 61, 34
1, 102671, Note_on_c, 0, 61, 27
1, 102871, Note_off_c, 0, 51, 40
1, 102938, Note_on_c, 0, 54, 26
1, 102986, Note_off_c, 0, 61, 34
1, 103164, Note_off_c, 0, 54, 35
1, 103186, Note_on_c, 0, 51, 33
1, 103366, Control_c, 0, 64, 94
1, 103380, Note_off_c, 0, 51, 40
1, 103381, Control_c, 0, 64, 77
1, 103395, Control_c, 0, 64, 67
1, 103410, Control_c, 0, 64, 64
1, 103425, Control_c, 0, 64, 66
1, 103431, Note_on_c, 0, 44, 36
1, 103440, Control_c, 0, 64, 69
1, 103455, Control_c, 0, 64, 76
1, 103470, Control_c, 0, 64, 92
1, 103485, Control_c, 0, 64, 127
1, 103509, Note_off_c, 0, 44, 57
1, 103748, Note_on_c, 0, 60, 29
1, 104051, Note_on_c, 0, 51, 22
1, 104091, Note_on_c, 0, 72, 48
1, 104114, Note_off_c, 0, 60, 33
1, 104230, Note_off_c, 0, 73, 35
1, 104499, Note_on_c, 0, 60, 27
1, 104808, Note_on_c, 0, 70, 50
1, 104829, Note_on_c, 0, 54, 29
1, 104934, Note_off_c, 0, 60, 38
1, 105042, Note_off_c, 0, 51, 27
1, 105059, Note_off_c, 0, 72, 37
1, 105083, Note_off_c, 0, 54, 38
1, 105130, Note_on_c, 0, 49, 31
1, 105380, Note_off_c, 0, 49, 41
1, 105417, Note_on_c, 0, 44, 36
1, 105420, Control_c, 0, 64, 109
1, 105435, Control_c, 0, 64, 92
1, 105450, Control_c, 0, 64, 78
1, 105465, Control_c, 0, 64, 65
1, 105479, Control_c, 0, 64, 55
1, 105494, Control_c, 0, 64, 47
1, 105509, Control_c, 0, 64, 46
1, 105524, Control_c, 0, 64, 49
1, 105539, Control_c, 0, 64, 55
1, 105554, Control_c, 0, 64, 62
1, 105569, Control_c, 0, 64, 67
1, 105583, Control_c, 0, 64, 73
1, 105598, Control_c, 0, 64, 80
1, 105613, Control_c, 0, 64, 87
1, 105628, Control_c, 0, 64, 92
1, 105643, Control_c, 0, 64, 95
1, 105658, Control_c, 0, 64, 98
1, 105672, Control_c, 0, 64, 101
1, 105687, Control_c, 0, 64, 103
1, 105702, Control_c, 0, 64, 105
1, 105746, Control_c, 0, 64, 108
1, 105776, Control_c, 0, 64, 110
1, 105798, Note_on_c, 0, 68, 47
1, 105803, Note_on_c, 0, 56, 36
1, 105828, Control_c, 0, 64, 115
1, 105843, Control_c, 0, 64, 123
1, 105858, Control_c, 0, 64, 127
1, 105894, Note_off_c, 0, 70, 33
1, 106138, Note_on_c, 0, 48, 16
1, 106221, Note_on_c, 0, 70, 42
1, 106227, Note_off_c, 0, 56, 33
1, 106318, Note_off_c, 0, 68, 41
1, 106529, Note_off_c, 0, 70, 34
1, 106563, Note_on_c, 0, 72, 38
1, 106582, Note_on_c, 0, 56, 33
1, 106713, Note_off_c, 0, 44, 31
1, 106738, Note_off_c, 0, 48, 27
1, 106962, Note_on_c, 0, 73, 41
1, 106970, Note_on_c, 0, 54, 30
1, 107050, Note_off_c, 0, 56, 28
1, 107129, Note_off_c, 0, 72, 37
1, 107224, Note_off_c, 0, 73, 32
1, 107469, Note_on_c, 0, 75, 38
1, 107470, Note_on_c, 0, 44, 29
1, 107498, Note_off_c, 0, 54, 30
1, 107503, Control_c, 0, 64, 123
1, 107623, Control_c, 0, 64, 121
1, 107630, Note_off_c, 0, 44, 45
1, 108105, Control_c, 0, 64, 118
1, 108223, Control_c, 0, 64, 116
1, 108341, Control_c, 0, 64, 114
1, 108365, Note_on_c, 0, 77, 38
1, 108370, Note_on_c, 0, 37, 27
1, 108371, Control_c, 0, 64, 111
1, 108386, Control_c, 0, 64, 107
1, 108402, Control_c, 0, 64, 99
1, 108416, Control_c, 0, 64, 90
1, 108431, Control_c, 0, 64, 79
1, 108446, Control_c, 0, 64, 68
1, 108461, Control_c, 0, 64, 58
1, 108468, Note_off_c, 0, 75, 2
1, 108476, Control_c, 0, 64, 49
1, 108490, Control_c, 0, 64, 49
1, 108505, Control_c, 0, 64, 53
1, 108520, Control_c, 0, 64, 59
1, 108535, Control_c, 0, 64, 63
1, 108549, Control_c, 0, 64, 68
1, 108564, Control_c, 0, 64, 77
1, 108579, Control_c, 0, 64, 92
1, 108594, Control_c, 0, 64, 118
1, 108609, Control_c, 0, 64, 127
1, 108611, Note_off_c, 0, 37, 40
1, 109108, Note_on_c, 0, 65, 21
1, 109539, Note_on_c, 0, 56, 22
1, 109654, Note_off_c, 0, 65, 38
1, 109834, Note_off_c, 0, 56, 37
1, 109853, Note_on_c, 0, 65, 26
1, 110072, Note_off_c, 0, 65, 36
1, 110109, Note_on_c, 0, 61, 24
1, 110252, Note_off_c, 0, 61, 38
1, 110362, Note_on_c, 0, 53, 27
1, 110594, Note_off_c, 0, 53, 33
1, 110638, Note_on_c, 0, 49, 25
1, 110714, Note_on_c, 0, 75, 43
1, 110795, Note_off_c, 0, 49, 43
1, 111002, Note_off_c, 0, 77, 38
1, 111103, Note_on_c, 0, 65, 31
1, 111414, Note_on_c, 0, 73, 50
1, 111429, Note_on_c, 0, 56, 23
1, 111480, Note_off_c, 0, 65, 27
1, 111525, Note_off_c, 0, 75, 49
1, 111690, Note_off_c, 0, 56, 38
1, 111699, Note_on_c, 0, 65, 26
1, 111942, Note_off_c, 0, 65, 33
1, 111971, Note_on_c, 0, 61, 36
1, 112219, Note_off_c, 0, 61, 40
1, 112304, Note_on_c, 0, 65, 49
1, 112320, Note_on_c, 0, 53, 25
1, 112422, Note_off_c, 0, 73, 38
1, 112689, Note_on_c, 0, 49, 30
1, 112787, Note_on_c, 0, 68, 52
1, 112824, Note_off_c, 0, 53, 16
1, 112872, Note_off_c, 0, 49, 42
1, 112894, Note_off_c, 0, 65, 34
1, 113208, Note_on_c, 0, 65, 19
1, 113504, Note_off_c, 0, 65, 34
1, 113507, Note_on_c, 0, 56, 19
1, 113724, Note_off_c, 0, 56, 39
1, 113762, Note_on_c, 0, 65, 18
1, 113943, Note_off_c, 0, 65, 35
1, 113993, Note_on_c, 0, 61, 30
1, 114147, Note_off_c, 0, 61, 41
1, 114250, Note_on_c, 0, 53, 28
1, 114485, Note_on_c, 0, 49, 34
1, 114535, Note_off_c, 0, 49, 47
1, 114592, Note_off_c, 0, 53, 34
1, 114771, Note_on_c, 0, 65, 21
1, 115022, Note_on_c, 0, 73, 56
1, 115045, Note_off_c, 0, 65, 37
1, 115052, Note_on_c, 0, 56, 12
1, 115305, Note_off_c, 0, 56, 38
1, 115316, Note_off_c, 0, 68, 32
1, 115325, Note_on_c, 0, 65, 28
1, 115572, Note_off_c, 0, 65, 35
1, 115596, Note_on_c, 0, 61, 26
1, 115626, Note_on_c, 0, 77, 49
1, 115843, Note_off_c, 0, 61, 40
1, 115933, Note_on_c, 0, 53, 30
1, 116279, Note_off_c, 0, 53, 26
1, 116294, Note_on_c, 0, 49, 23
1, 116348, Note_on_c, 0, 82, 54
1, 116494, Note_off_c, 0, 49, 43
1, 116516, Note_off_c, 0, 77, 33
1, 116568, Note_off_c, 0, 73, 33
1, 116822, Note_on_c, 0, 65, 18
1, 117122, Note_on_c, 0, 56, 22
1, 117155, Note_off_c, 0, 65, 36
1, 117339, Note_off_c, 0, 56, 16
1, 117389, Note_on_c, 0, 65, 22
1, 117609, Note_off_c, 0, 65, 38
1, 117628, Note_on_c, 0, 61, 24
1, 117762, Note_off_c, 0, 61, 39
1, 117877, Note_on_c, 0, 53, 26
1, 118135, Note_on_c, 0, 49, 32
1, 118219, Note_off_c, 0, 49, 39
1, 118233, Note_off_c, 0, 53, 16
1, 118473, Note_on_c, 0, 80, 52
1, 118510, Note_on_c, 0, 65, 15
1, 118763, Note_off_c, 0, 82, 26
1, 118831, Note_on_c, 0, 56, 24
1, 118940, Note_on_c, 0, 76, 45
1, 118946, Note_off_c, 0, 65, 20
1, 118997, Note_off_c, 0, 80, 38
1, 119275, Note_on_c, 0, 65, 27
1, 119282, Note_on_c, 0, 77, 53
1, 119399, Note_off_c, 0, 76, 14
1, 119540, Note_off_c, 0, 56, 14
1, 119542, Note_off_c, 0, 65, 37
1, 119577, Note_on_c, 0, 61, 31
1, 119587, Note_on_c, 0, 72, 47
1, 119660, Note_off_c, 0, 77, 38
1, 119814, Note_off_c, 0, 72, 37
1, 119895, Note_off_c, 0, 61, 37
1, 119939, Note_on_c, 0, 73, 56
1, 119957, Note_on_c, 0, 53, 39
1, 120011, Note_off_c, 0, 53, 57
1, 120456, Control_c, 0, 64, 110
1, 120460, Note_on_c, 0, 37, 35
1, 120464, Note_on_c, 0, 69, 33
1, 120471, Control_c, 0, 64, 95
1, 120486, Control_c, 0, 64, 82
1, 120501, Control_c, 0, 64, 70
1, 120513, Note_off_c, 0, 73, 35
1, 120516, Control_c, 0, 64, 56
1, 120530, Control_c, 0, 64, 41
1, 120545, Control_c, 0, 64, 35
1, 120560, Control_c, 0, 64, 42
1, 120574, Control_c, 0, 64, 59
1, 120589, Control_c, 0, 64, 70
1, 120604, Control_c, 0, 64, 79
1, 120619, Control_c, 0, 64, 94
1, 120634, Control_c, 0, 64, 108
1, 120649, Control_c, 0, 64, 127
1, 120654, Note_off_c, 0, 37, 39
1, 121061, Note_on_c, 0, 66, 24
1, 121384, Note_on_c, 0, 57, 25
1, 121400, Note_off_c, 0, 66, 30
1, 121647, Note_on_c, 0, 66, 39
1, 121887, Note_on_c, 0, 61, 50
1, 121909, Control_c, 0, 64, 101
1, 121923, Control_c, 0, 64, 83
1, 121938, Control_c, 0, 64, 72
1, 121953, Control_c, 0, 64, 65
1, 121969, Control_c, 0, 64, 66
1, 121984, Control_c, 0, 64, 72
1, 121999, Control_c, 0, 64, 80
1, 122014, Control_c, 0, 64, 90
1, 122028, Control_c, 0, 64, 95
1, 122043, Control_c, 0, 64, 101
1, 122058, Control_c, 0, 64, 110
1, 122073, Control_c, 0, 64, 127
1, 122104, Note_off_c, 0, 66, 32
1, 122139, Note_on_c, 0, 54, 38
1, 122154, Note_off_c, 0, 57, 36
1, 122158, Note_off_c, 0, 61, 28
1, 122187, Note_off_c, 0, 54, 61
1, 122384, Note_on_c, 0, 49, 43
1, 122432, Note_off_c, 0, 49, 48
1, 122664, Note_on_c, 0, 66, 24
1, 122891, Note_on_c, 0, 57, 40
1, 122896, Note_off_c, 0, 66, 35
1, 123139, Note_on_c, 0, 66, 36
1, 123395, Note_on_c, 0, 62, 45
1, 123407, Control_c, 0, 64, 102
1, 123422, Control_c, 0, 64, 84
1, 123437, Control_c, 0, 64, 69
1, 123451, Control_c, 0, 64, 58
1, 123466, Control_c, 0, 64, 47
1, 123481, Control_c, 0, 64, 48
1, 123496, Control_c, 0, 64, 55
1, 123511, Control_c, 0, 64, 65
1, 123525, Control_c, 0, 64, 75
1, 123540, Control_c, 0, 64, 90
1, 123555, Control_c, 0, 64, 114
1, 123561, Note_off_c, 0, 66, 38
1, 123571, Control_c, 0, 64, 127
1, 123666, Note_on_c, 0, 54, 35
1, 123669, Note_off_c, 0, 62, 37
1, 123694, Note_off_c, 0, 57, 41
1, 123714, Note_off_c, 0, 54, 50
1, 124042, Note_on_c, 0, 49, 37
1, 124042, Note_on_c, 0, 70, 42
1, 124052, Control_c, 0, 64, 113
1, 124066, Control_c, 0, 64, 91
1, 124081, Control_c, 0, 64, 77
1, 124096, Control_c, 0, 64, 67
1, 124110, Control_c, 0, 64, 61
1, 124120, Note_off_c, 0, 69, 38
1, 124125, Control_c, 0, 64, 63
1, 124140, Control_c, 0, 64, 71
1, 124155, Control_c, 0, 64, 84
1, 124170, Control_c, 0, 64, 102
1, 124185, Control_c, 0, 64, 127
1, 124186, Note_off_c, 0, 49, 42
1, 124463, Note_on_c, 0, 66, 31
1, 124739, Note_on_c, 0, 58, 29
1, 124751, Note_off_c, 0, 66, 33
1, 124993, Note_on_c, 0, 66, 34
1, 125240, Note_on_c, 0, 63, 41
1, 125261, Control_c, 0, 64, 120
1, 125276, Control_c, 0, 64, 97
1, 125299, Control_c, 0, 64, 81
1, 125314, Control_c, 0, 64, 65
1, 125328, Control_c, 0, 64, 54
1, 125343, Control_c, 0, 64, 50
1, 125358, Control_c, 0, 64, 54
1, 125372, Control_c, 0, 64, 60
1, 125387, Control_c, 0, 64, 67
1, 125402, Control_c, 0, 64, 77
1, 125417, Control_c, 0, 64, 96
1, 125421, Note_off_c, 0, 66, 36
1, 125432, Control_c, 0, 64, 127
1, 125532, Note_on_c, 0, 54, 31
1, 125540, Note_off_c, 0, 63, 35
1, 125547, Note_off_c, 0, 58, 34
1, 125593, Note_off_c, 0, 54, 43
1, 125705, Note_off_c, 0, 70, 18
1, 125846, Note_on_c, 0, 49, 38
1, 125902, Note_off_c, 0, 49, 52
1, 126256, Note_on_c, 0, 84, 61
1, 126289, Note_on_c, 0, 66, 30
1, 126564, Control_c, 0, 67, 119
1, 126579, Control_c, 0, 67, 101
1, 126593, Control_c, 0, 67, 83
1, 126608, Control_c, 0, 67, 65
1, 126623, Control_c, 0, 67, 47
1, 126638, Control_c, 0, 67, 30
1, 126650, Note_on_c, 0, 58, 29
1, 126652, Control_c, 0, 67, 0
1, 126742, Note_on_c, 0, 82, 62
1, 126854, Note_off_c, 0, 66, 38
1, 127098, Note_on_c, 0, 77, 57
1, 127123, Note_on_c, 0, 66, 33
1, 127382, Note_on_c, 0, 63, 37
1, 127383, Note_on_c, 0, 80, 63
1, 127558, Note_off_c, 0, 66, 39
1, 127648, Note_on_c, 0, 78, 73
1, 127658, Note_on_c, 0, 54, 32
1, 127699, Note_off_c, 0, 63, 42
1, 127720, Note_off_c, 0, 54, 51
1, 127721, Note_off_c, 0, 58, 42
1, 127779, Note_off_c, 0, 77, 31
1, 127900, Note_off_c, 0, 82, 23
1, 127963, Note_off_c, 0, 80, 29
1, 127980, Note_on_c, 0, 48, 41
1, 127984, Note_off_c, 0, 84, 8
1, 128003, Control_c, 0, 64, 100
1, 128018, Control_c, 0, 64, 80
1, 128032, Control_c, 0, 64, 61
1, 128035, Note_on_c, 0, 77, 66
1, 128047, Control_c, 0, 64, 0
1, 128062, Control_c, 0, 67, 19
1, 128099, Note_off_c, 0, 78, 58
1, 128122, Control_c, 0, 64, 50
1, 128137, Control_c, 0, 64, 64
1, 128152, Control_c, 0, 64, 76
1, 128152, Control_c, 0, 67, 0
1, 128166, Control_c, 0, 64, 95
1, 128181, Control_c, 0, 64, 127
1, 128191, Note_off_c, 0, 48, 63
1, 128470, Note_on_c, 0, 66, 35
1, 128725, Note_on_c, 0, 57, 32
1, 128778, Note_off_c, 0, 66, 35
1, 128979, Note_on_c, 0, 66, 35
1, 129236, Note_on_c, 0, 75, 54
1, 129238, Note_on_c, 0, 63, 34
1, 129354, Note_off_c, 0, 66, 34
1, 129459, Note_off_c, 0, 57, 30
1, 129484, Note_on_c, 0, 54, 39
1, 129505, Note_off_c, 0, 63, 41
1, 129516, Note_off_c, 0, 54, 55
1, 129722, Note_on_c, 0, 46, 51
1, 129722, Control_c, 0, 64, 113
1, 129737, Control_c, 0, 64, 88
1, 129752, Control_c, 0, 64, 73
1, 129767, Control_c, 0, 64, 62
1, 129789, Control_c, 0, 64, 59
1, 129804, Control_c, 0, 64, 68
1, 129818, Note_off_c, 0, 46, 58
1, 129818, Control_c, 0, 64, 79
1, 129833, Control_c, 0, 64, 95
1, 129848, Control_c, 0, 64, 111
1, 129863, Control_c, 0, 64, 127
1, 130089, Note_on_c, 0, 66, 37
1, 130146, Note_on_c, 0, 74, 57
1, 130256, Note_off_c, 0, 75, 47
1, 130391, Note_on_c, 0, 58, 37
1, 130466, Note_on_c, 0, 75, 61
1, 130536, Note_off_c, 0, 74, 56
1, 130553, Note_off_c, 0, 66, 39
1, 130619, Note_off_c, 0, 77, 40
1, 130712, Note_on_c, 0, 76, 78
1, 130739, Note_on_c, 0, 66, 46
1, 130772, Note_off_c, 0, 75, 59
1, 130948, Note_on_c, 0, 63, 47
1, 130978, Note_on_c, 0, 77, 78
1, 131023, Note_off_c, 0, 76, 58
1, 131062, Note_off_c, 0, 66, 35
1, 131221, Note_on_c, 0, 54, 48
1, 131261, Note_off_c, 0, 63, 38
1, 131293, Note_off_c, 0, 58, 40
1, 131314, Note_off_c, 0, 54, 61
1, 131340, Note_off_c, 0, 77, 63
1, 131344, Note_on_c, 0, 78, 74
1, 131395, Note_off_c, 0, 78, 62
1, 131466, Note_on_c, 0, 78, 84
1, 131711, Note_on_c, 0, 45, 49
1, 131768, Note_on_c, 0, 90, 83
1, 131777, Control_c, 0, 64, 107
1, 131792, Control_c, 0, 64, 74
1, 131806, Control_c, 0, 64, 51
1, 131821, Control_c, 0, 64, 0
1, 131881, Control_c, 0, 64, 53
1, 131896, Control_c, 0, 64, 66
1, 131911, Control_c, 0, 64, 84
1, 131925, Control_c, 0, 64, 127
1, 131963, Note_off_c, 0, 45, 62
1, 132238, Note_off_c, 0, 78, 52
1, 132268, Note_on_c, 0, 66, 44
1, 132545, Note_on_c, 0, 57, 37
1, 132627, Note_off_c, 0, 66, 35
1, 132798, Note_on_c, 0, 87, 69
1, 132970, Note_on_c, 0, 66, 41
1, 133155, Note_on_c, 0, 85, 73
1, 133188, Note_off_c, 0, 90, 37
1, 133260, Note_off_c, 0, 66, 38
1, 133316, Note_on_c, 0, 61, 37
1, 133327, Note_off_c, 0, 87, 30
1, 133400, Note_off_c, 0, 57, 38
1, 133425, Note_on_c, 0, 81, 70
1, 133434, Note_off_c, 0, 85, 61
1, 133647, Note_on_c, 0, 78, 69
1, 133662, Note_off_c, 0, 81, 49
1, 133745, Note_on_c, 0, 51, 36
1, 133768, Note_off_c, 0, 61, 39
1, 133784, Note_off_c, 0, 51, 61
1, 133867, Note_on_c, 0, 75, 66
1, 133927, Note_off_c, 0, 78, 54
1, 134093, Note_on_c, 0, 44, 41
1, 134127, Control_c, 0, 64, 107
1, 134142, Control_c, 0, 64, 85
1, 134157, Control_c, 0, 64, 71
1, 134162, Note_off_c, 0, 75, 59
1, 134170, Note_on_c, 0, 72, 58
1, 134171, Control_c, 0, 64, 58
1, 134186, Control_c, 0, 64, 51
1, 134201, Control_c, 0, 64, 58
1, 134216, Control_c, 0, 64, 65
1, 134231, Control_c, 0, 64, 70
1, 134245, Control_c, 0, 64, 80
1, 134260, Control_c, 0, 64, 95
1, 134280, Note_off_c, 0, 44, 43
1, 134283, Control_c, 0, 64, 127
1, 134442, Note_off_c, 0, 72, 53
1, 134574, Note_on_c, 0, 66, 39
1, 134721, Note_on_c, 0, 68, 50
1, 134759, Note_off_c, 0, 66, 40
1, 134765, Note_off_c, 0, 68, 61
1, 134849, Note_on_c, 0, 56, 36
1, 134912, Note_on_c, 0, 75, 50
1, 135044, Note_on_c, 0, 84, 66
1, 135057, Note_off_c, 0, 75, 60
1, 135073, Note_off_c, 0, 84, 64
1, 135181, Note_on_c, 0, 69, 49
1, 135204, Note_off_c, 0, 69, 61
1, 135218, Note_on_c, 0, 66, 43
1, 135254, Note_on_c, 0, 76, 63
1, 135325, Note_on_c, 0, 85, 75
1, 135340, Note_off_c, 0, 76, 62
1, 135372, Note_off_c, 0, 85, 64
1, 135416, Note_on_c, 0, 70, 69
1, 135434, Note_off_c, 0, 66, 39
1, 135439, Note_off_c, 0, 70, 65
1, 135444, Note_on_c, 0, 60, 49
1, 135461, Note_on_c, 0, 77, 67
1, 135463, Note_off_c, 0, 56, 38
1, 135515, Note_on_c, 0, 86, 75
1, 135529, Note_off_c, 0, 77, 61
1, 135533, Note_off_c, 0, 86, 65
1, 135581, Control_c, 0, 67, 20
1, 135600, Note_on_c, 0, 71, 75
1, 135620, Note_off_c, 0, 60, 57
1, 135627, Note_on_c, 0, 51, 51
1, 135637, Note_off_c, 0, 71, 61
1, 135640, Control_c, 0, 67, 23
1, 135662, Note_on_c, 0, 78, 77
1, 135676, Note_off_c, 0, 51, 61
1, 135685, Control_c, 0, 67, 25
1, 135733, Note_on_c, 0, 87, 80
1, 135765, Note_off_c, 0, 78, 61
1, 135786, Note_off_c, 0, 87, 65
1, 135825, Control_c, 0, 67, 23
1, 135827, Note_on_c, 0, 72, 74
1, 135891, Note_off_c, 0, 72, 53
1, 135942, Note_on_c, 0, 37, 63
1, 135998, Note_on_c, 0, 88, 89
1, 135999, Note_on_c, 0, 79, 81
1, 136004, Control_c, 0, 64, 93
1, 136018, Control_c, 0, 64, 68
1, 136033, Control_c, 0, 64, 33
1, 136048, Control_c, 0, 64, 0
1, 136093, Control_c, 0, 64, 43
1, 136093, Control_c, 0, 67, 20
1, 136107, Control_c, 0, 64, 62
1, 136122, Control_c, 0, 64, 76
1, 136122, Control_c, 0, 67, 0
1, 136137, Control_c, 0, 64, 103
1, 136151, Control_c, 0, 64, 127
1, 136153, Note_off_c, 0, 37, 58
1, 136588, Note_on_c, 0, 65, 50
1, 136647, Note_off_c, 0, 79, 59
1, 136856, Note_on_c, 0, 56, 56
1, 136913, Note_off_c, 0, 88, 0
1, 136913, Note_on_c, 0, 88, 20
1, 136981, Note_off_c, 0, 65, 38
1, 137089, Note_on_c, 0, 65, 61
1, 137141, Note_on_c, 0, 89, 87
1, 137145, Note_on_c, 0, 80, 82
1, 137189, Note_off_c, 0, 88, 43
1, 137359, Note_on_c, 0, 61, 57
1, 137391, Note_off_c, 0, 89, 55
1, 137394, Note_off_c, 0, 80, 60
1, 137448, Note_on_c, 0, 89, 82
1, 137451, Note_on_c, 0, 80, 83
1, 137646, Note_on_c, 0, 90, 90
1, 137655, Note_on_c, 0, 82, 84
1, 137655, Note_off_c, 0, 65, 33
1, 137697, Note_off_c, 0, 89, 60
1, 137793, Note_off_c, 0, 82, 59
1, 137810, Note_on_c, 0, 53, 56
1, 137884, Note_off_c, 0, 53, 60
1, 137888, Note_off_c, 0, 80, 40
1, 137891, Note_off_c, 0, 61, 35
1, 137921, Note_off_c, 0, 56, 40
1, 137923, Note_off_c, 0, 90, 37
1, 137995, Note_on_c, 0, 80, 79
1, 137997, Note_on_c, 0, 89, 89
1, 138174, Note_on_c, 0, 49, 60
1, 138188, Note_off_c, 0, 89, 60
1, 138203, Note_off_c, 0, 80, 58
1, 138265, Control_c, 0, 64, 88
1, 138270, Note_on_c, 0, 89, 83
1, 138280, Note_on_c, 0, 80, 72
1, 138280, Control_c, 0, 64, 67
1, 138294, Control_c, 0, 64, 43
1, 138309, Control_c, 0, 64, 0
1, 138353, Control_c, 0, 64, 55
1, 138368, Control_c, 0, 64, 70
1, 138383, Control_c, 0, 64, 76
1, 138398, Control_c, 0, 64, 83
1, 138403, Note_on_c, 0, 85, 86
1, 138405, Note_on_c, 0, 77, 71
1, 138413, Control_c, 0, 64, 91
1, 138427, Control_c, 0, 64, 103
1, 138440, Note_off_c, 0, 49, 61
1, 138442, Control_c, 0, 64, 116
1, 138457, Control_c, 0, 64, 127
1, 138477, Note_off_c, 0, 80, 38
1, 138585, Note_off_c, 0, 89, 31
1, 138716, Note_on_c, 0, 65, 53
1, 139035, Note_on_c, 0, 56, 39
1, 139115, Note_off_c, 0, 65, 41
1, 139214, Note_off_c, 0, 77, 21
1, 139308, Note_on_c, 0, 65, 38
1, 139594, Note_on_c, 0, 61, 31
1, 139599, Note_off_c, 0, 56, 37
1, 139729, Note_off_c, 0, 85, 17
1, 139820, Note_off_c, 0, 65, 40
1, 139863, Note_on_c, 0, 56, 39
1, 139864, Note_off_c, 0, 61, 37
1, 139914, Note_off_c, 0, 56, 58
1, 140153, Note_on_c, 0, 49, 42
1, 140207, Note_on_c, 0, 85, 74
1, 140220, Note_on_c, 0, 76, 51
1, 140235, Control_c, 0, 64, 112
1, 140250, Control_c, 0, 64, 89
1, 140272, Control_c, 0, 64, 72
1, 140287, Control_c, 0, 64, 61
1, 140302, Control_c, 0, 64, 52
1, 140316, Control_c, 0, 64, 54
1, 140331, Control_c, 0, 64, 60
1, 140347, Control_c, 0, 64, 67
1, 140362, Control_c, 0, 64, 79
1, 140377, Control_c, 0, 64, 97
1, 140391, Control_c, 0, 64, 127
1, 140488, Note_off_c, 0, 49, 42
1, 140601, Note_on_c, 0, 64, 42
1, 140917, Note_off_c, 0, 64, 32
1, 140922, Note_on_c, 0, 86, 63
1, 140934, Note_on_c, 0, 78, 43
1, 140936, Note_on_c, 0, 52, 26
1, 141036, Note_off_c, 0, 85, 57
1, 141087, Note_off_c, 0, 76, 27
1, 141175, Note_off_c, 0, 86, 44
1, 141339, Note_on_c, 0, 64, 36
1, 141561, Note_off_c, 0, 78, 35
1, 141578, Note_on_c, 0, 81, 71
1, 141597, Note_on_c, 0, 57, 39
1, 141599, Note_on_c, 0, 73, 39
1, 141617, Note_off_c, 0, 64, 35
1, 141620, Note_off_c, 0, 52, 34
1, 141662, Note_off_c, 0, 73, 0
1, 141699, Poly_aftertouch_c, 0, 73, 127
1, 141851, Note_on_c, 0, 52, 38
1, 141869, Poly_aftertouch_c, 0, 73, 0
1, 141888, Note_off_c, 0, 52, 58
1, 142084, Note_off_c, 0, 57, 33
1, 142097, Control_c, 0, 64, 99
1, 142107, Note_on_c, 0, 50, 36
1, 142111, Control_c, 0, 64, 81
1, 142126, Control_c, 0, 64, 67
1, 142132, Note_on_c, 0, 85, 60
1, 142141, Control_c, 0, 64, 56
1, 142156, Control_c, 0, 64, 54
1, 142161, Note_on_c, 0, 76, 38
1, 142171, Control_c, 0, 64, 62
1, 142177, Note_off_c, 0, 81, 59
1, 142186, Control_c, 0, 64, 70
1, 142201, Control_c, 0, 64, 84
1, 142216, Control_c, 0, 64, 104
1, 142216, Note_off_c, 0, 76, 60
1, 142231, Control_c, 0, 64, 127
1, 142274, Note_off_c, 0, 50, 43
1, 142382, Note_off_c, 0, 85, 46
1, 142414, Note_on_c, 0, 64, 39
1, 142417, Note_on_c, 0, 83, 56
1, 142456, Note_off_c, 0, 83, 61
1, 142468, Poly_aftertouch_c, 0, 74, 127
1, 142487, Note_on_c, 0, 85, 68
1, 142514, Poly_aftertouch_c, 0, 74, 0
1, 142549, Note_on_c, 0, 83, 71
1, 142587, Note_off_c, 0, 85, 60
1, 142593, Note_off_c, 0, 64, 28
1, 142604, Note_on_c, 0, 52, 36
1, 142605, Note_on_c, 0, 82, 70
1, 142609, Note_on_c, 0, 73, 46
1, 142642, Note_off_c, 0, 83, 57
1, 142764, Note_off_c, 0, 73, 37
1, 142826, Note_on_c, 0, 83, 77
1, 142836, Note_on_c, 0, 64, 38
1, 142849, Note_on_c, 0, 74, 48
1, 142875, Note_off_c, 0, 82, 50
1, 143088, Note_on_c, 0, 56, 36
1, 143098, Control_c, 0, 64, 109
1, 143113, Control_c, 0, 64, 90
1, 143125, Note_on_c, 0, 85, 67
1, 143128, Control_c, 0, 64, 74
1, 143132, Note_on_c, 0, 76, 44
1, 143143, Control_c, 0, 64, 62
1, 143158, Control_c, 0, 64, 49
1, 143164, Note_off_c, 0, 83, 52
1, 143168, Note_off_c, 0, 74, 36
1, 143173, Control_c, 0, 64, 48
1, 143174, Note_off_c, 0, 52, 40
1, 143188, Control_c, 0, 64, 55
1, 143196, Note_off_c, 0, 64, 36
1, 143202, Control_c, 0, 64, 64
1, 143217, Control_c, 0, 64, 71
1, 143232, Control_c, 0, 64, 82
1, 143242, Note_off_c, 0, 85, 60
1, 143245, Note_off_c, 0, 76, 52
1, 143247, Control_c, 0, 64, 99
1, 143268, Control_c, 0, 64, 127
1, 143540, Note_on_c, 0, 52, 36
1, 143594, Note_off_c, 0, 52, 59
1, 143706, Note_on_c, 0, 80, 69
1, 143715, Note_on_c, 0, 71, 53
1, 143715, Note_off_c, 0, 56, 39
1, 143857, Note_on_c, 0, 49, 46
1, 143877, Control_c, 0, 64, 112
1, 143891, Control_c, 0, 64, 87
1, 143903, Note_off_c, 0, 71, 33
1, 143903, Note_on_c, 0, 83, 74
1, 143906, Control_c, 0, 64, 69
1, 143913, Note_on_c, 0, 74, 55
1, 143921, Control_c, 0, 64, 49
1, 143936, Control_c, 0, 64, 0
1, 143958, Note_off_c, 0, 80, 51
1, 144018, Control_c, 0, 64, 40
1, 144033, Control_c, 0, 64, 60
1, 144047, Control_c, 0, 64, 68
1, 144062, Control_c, 0, 64, 73
1, 144077, Control_c, 0, 64, 79
1, 144091, Control_c, 0, 64, 87
1, 144106, Control_c, 0, 64, 101
1, 144121, Note_off_c, 0, 49, 41
1, 144121, Control_c, 0, 64, 127
1, 144199, Note_off_c, 0, 74, 34
1, 144268, Note_on_c, 0, 64, 39
1, 144270, Control_c, 0, 67, 19
1, 144299, Control_c, 0, 67, 21
1, 144463, Control_c, 0, 67, 0
1, 144491, Note_off_c, 0, 64, 38
1, 144527, Note_on_c, 0, 52, 27
1, 144632, Note_off_c, 0, 83, 27
1, 144797, Note_on_c, 0, 64, 30
1, 144916, Note_on_c, 0, 81, 61
1, 144923, Note_on_c, 0, 73, 50
1, 145086, Note_off_c, 0, 64, 35
1, 145097, Note_off_c, 0, 73, 33
1, 145100, Note_off_c, 0, 81, 50
1, 145151, Note_on_c, 0, 57, 34
1, 145227, Note_on_c, 0, 81, 63
1, 145241, Note_on_c, 0, 73, 47
1, 145253, Note_off_c, 0, 52, 34
1, 145314, Note_off_c, 0, 73, 46
1, 145351, Note_off_c, 0, 81, 55
1, 145472, Note_on_c, 0, 80, 63
1, 145482, Note_on_c, 0, 73, 44
1, 145536, Note_off_c, 0, 73, 47
1, 145565, Note_off_c, 0, 57, 37
1, 145585, Note_on_c, 0, 52, 36
1, 145592, Note_off_c, 0, 80, 38
1, 145623, Note_off_c, 0, 52, 55
1, 145675, Note_on_c, 0, 78, 66
1, 145689, Note_on_c, 0, 73, 40
1, 145741, Note_off_c, 0, 78, 61
1, 145921, Note_on_c, 0, 44, 43
1, 145931, Control_c, 0, 64, 98
1, 145933, Note_on_c, 0, 76, 55
1, 145943, Note_on_c, 0, 74, 47
1, 145946, Control_c, 0, 64, 72
1, 145952, Note_off_c, 0, 73, 36
1, 145960, Control_c, 0, 64, 47
1, 145975, Control_c, 0, 64, 0
1, 146034, Control_c, 0, 64, 40
1, 146049, Control_c, 0, 64, 58
1, 146064, Control_c, 0, 64, 65
1, 146072, Note_off_c, 0, 44, 57
1, 146079, Control_c, 0, 64, 73
1, 146094, Control_c, 0, 64, 84
1, 146109, Control_c, 0, 64, 103
1, 146124, Control_c, 0, 64, 127
1, 146298, Note_on_c, 0, 64, 31
1, 146434, Note_off_c, 0, 74, 36
1, 146508, Note_off_c, 0, 76, 41
1, 146575, Note_off_c, 0, 64, 36
1, 146598, Note_on_c, 0, 52, 26
1, 146873, Note_on_c, 0, 76, 54
1, 146885, Note_on_c, 0, 70, 50
1, 146889, Note_on_c, 0, 64, 35
1, 146979, Note_off_c, 0, 52, 28
1, 147054, Note_off_c, 0, 76, 52
1, 147106, Note_off_c, 0, 70, 61
1, 147152, Note_off_c, 0, 64, 35
1, 147218, Note_on_c, 0, 62, 39
1, 147229, Note_on_c, 0, 76, 58
1, 147235, Note_on_c, 0, 71, 64
1, 147419, Note_off_c, 0, 71, 60
1, 147428, Note_off_c, 0, 76, 57
1, 147511, Note_off_c, 0, 62, 35
1, 147546, Note_on_c, 0, 72, 68
1, 147546, Note_on_c, 0, 76, 69
1, 147548, Note_on_c, 0, 52, 40
1, 147610, Note_off_c, 0, 52, 54
1, 147881, Note_off_c, 0, 76, 57
1, 147986, Note_on_c, 0, 45, 42
1, 148007, Note_on_c, 0, 73, 65
1, 148013, Note_on_c, 0, 76, 64
1, 148043, Control_c, 0, 64, 117
1, 148058, Control_c, 0, 64, 87
1, 148061, Note_off_c, 0, 72, 37
1, 148073, Control_c, 0, 64, 67
1, 148088, Control_c, 0, 64, 44
1, 148103, Control_c, 0, 64, 0
1, 148176, Control_c, 0, 64, 49
1, 148191, Control_c, 0, 64, 71
1, 148206, Control_c, 0, 64, 89
1, 148221, Control_c, 0, 64, 127
1, 148249, Note_off_c, 0, 45, 52
1, 148449, Note_on_c, 0, 64, 40
1, 148584, Note_off_c, 0, 73, 35
1, 148729, Note_on_c, 0, 52, 40
1, 148748, Note_off_c, 0, 64, 36
1, 148989, Note_on_c, 0, 64, 44
1, 149042, Note_off_c, 0, 52, 34
1, 149216, Note_on_c, 0, 61, 43
1, 149286, Note_on_c, 0, 78, 70
1, 149304, Note_on_c, 0, 74, 51
1, 149378, Note_off_c, 0, 64, 36
1, 149522, Note_off_c, 0, 61, 57
1, 149549, Note_on_c, 0, 52, 47
1, 149604, Note_off_c, 0, 52, 60
1, 149631, Note_on_c, 0, 73, 72
1, 149642, Note_on_c, 0, 69, 43
1, 149668, Note_off_c, 0, 74, 60
1, 149677, Note_off_c, 0, 76, 41
1, 149686, Note_off_c, 0, 69, 60
1, 149691, Note_off_c, 0, 78, 36
1, 149731, Note_off_c, 0, 73, 61
1, 149833, Note_on_c, 0, 68, 55
1, 149834, Note_on_c, 0, 73, 65
1, 149892, Note_off_c, 0, 68, 46
1, 149899, Note_off_c, 0, 73, 58
1, 149916, Note_on_c, 0, 40, 49
1, 149942, Control_c, 0, 64, 98
1, 149957, Control_c, 0, 64, 75
1, 149972, Control_c, 0, 64, 59
1, 149987, Control_c, 0, 64, 42
1, 150007, Note_on_c, 0, 76, 67
1, 150008, Control_c, 0, 64, 48
1, 150012, Note_on_c, 0, 73, 44
1, 150023, Control_c, 0, 64, 63
1, 150032, Note_off_c, 0, 40, 61
1, 150038, Control_c, 0, 64, 77
1, 150053, Control_c, 0, 64, 91
1, 150067, Control_c, 0, 64, 108
1, 150082, Control_c, 0, 64, 127
1, 150252, Note_on_c, 0, 64, 49
1, 150345, Note_off_c, 0, 73, 56
1, 150352, Note_on_c, 0, 74, 65
1, 150367, Note_on_c, 0, 71, 43
1, 150374, Note_off_c, 0, 76, 57
1, 150395, Note_off_c, 0, 71, 57
1, 150402, Note_off_c, 0, 74, 60
1, 150428, Note_on_c, 0, 56, 47
1, 150490, Note_on_c, 0, 74, 63
1, 150500, Note_on_c, 0, 71, 39
1, 150516, Note_off_c, 0, 64, 33
1, 150537, Note_off_c, 0, 74, 63
1, 150542, Note_on_c, 0, 76, 75
1, 150610, Note_on_c, 0, 74, 74
1, 150631, Note_off_c, 0, 76, 59
1, 150659, Note_off_c, 0, 71, 43
1, 150710, Note_off_c, 0, 56, 57
1, 150720, Note_on_c, 0, 64, 50
1, 150834, Note_on_c, 0, 73, 72
1, 150850, Note_on_c, 0, 70, 47
1, 150853, Note_off_c, 0, 74, 56
1, 150886, Note_off_c, 0, 70, 55
1, 150943, Note_on_c, 0, 74, 78
1, 150964, Note_off_c, 0, 73, 59
1, 150974, Note_on_c, 0, 71, 36
1, 150980, Control_c, 0, 64, 123
1, 151000, Note_on_c, 0, 62, 48
1, 151003, Note_off_c, 0, 71, 51
1, 151005, Note_off_c, 0, 74, 61
1, 151009, Control_c, 0, 64, 121
1, 151024, Control_c, 0, 64, 118
1, 151039, Control_c, 0, 64, 112
1, 151054, Control_c, 0, 64, 104
1, 151057, Note_off_c, 0, 64, 38
1, 151069, Control_c, 0, 64, 91
1, 151084, Control_c, 0, 64, 75
1, 151089, Note_on_c, 0, 74, 65
1, 151099, Control_c, 0, 64, 60
1, 151105, Note_on_c, 0, 71, 37
1, 151114, Control_c, 0, 64, 33
1, 151129, Control_c, 0, 64, 0
1, 151188, Control_c, 0, 64, 48
1, 151202, Control_c, 0, 64, 63
1, 151217, Control_c, 0, 64, 68
1, 151232, Control_c, 0, 64, 72
1, 151247, Control_c, 0, 64, 75
1, 151260, Note_on_c, 0, 76, 62
1, 151262, Control_c, 0, 64, 78
1, 151276, Control_c, 0, 64, 80
1, 151285, Note_on_c, 0, 73, 43
1, 151285, Note_off_c, 0, 74, 58
1, 151291, Control_c, 0, 64, 82
1, 151320, Control_c, 0, 64, 82
1, 151335, Control_c, 0, 64, 83
1, 151344, Note_off_c, 0, 73, 55
1, 151348, Note_off_c, 0, 76, 56
1, 151349, Note_off_c, 0, 71, 37
1, 151350, Control_c, 0, 64, 85
1, 151365, Control_c, 0, 64, 86
1, 151380, Control_c, 0, 64, 87
1, 151394, Control_c, 0, 64, 88
1, 151409, Control_c, 0, 64, 88
1, 151424, Note_off_c, 0, 62, 36
1, 151424, Control_c, 0, 64, 89
1, 151439, Control_c, 0, 64, 90
1, 151454, Control_c, 0, 64, 90
1, 151480, Note_on_c, 0, 52, 44
1, 151506, Control_c, 0, 64, 91
1, 151519, Note_off_c, 0, 52, 55
1, 151596, Control_c, 0, 64, 91
1, 151683, Note_on_c, 0, 71, 60
1, 151698, Note_on_c, 0, 68, 45
1, 151739, Note_off_c, 0, 68, 46
1, 151753, Note_off_c, 0, 71, 60
1, 151803, Control_c, 0, 64, 91
1, 151818, Control_c, 0, 64, 90
1, 151832, Control_c, 0, 64, 86
1, 151847, Control_c, 0, 64, 80
1, 151859, Note_on_c, 0, 45, 36
1, 151862, Note_on_c, 0, 74, 61
1, 151862, Control_c, 0, 64, 70
1, 151877, Control_c, 0, 64, 59
1, 151886, Note_on_c, 0, 71, 30
1, 151892, Control_c, 0, 64, 41
1, 151907, Control_c, 0, 64, 0
1, 151936, Control_c, 0, 64, 38
1, 151951, Control_c, 0, 64, 57
1, 151966, Control_c, 0, 64, 68
1, 151981, Control_c, 0, 64, 74
1, 151996, Control_c, 0, 64, 80
1, 152011, Control_c, 0, 64, 86
1, 152025, Note_off_c, 0, 45, 42
1, 152025, Control_c, 0, 64, 93
1, 152040, Control_c, 0, 64, 98
1, 152055, Control_c, 0, 64, 103
1, 152070, Control_c, 0, 64, 109
1, 152085, Control_c, 0, 64, 118
1, 152099, Control_c, 0, 64, 127
1, 152292, Note_on_c, 0, 64, 37
1, 152616, Note_on_c, 0, 57, 28
1, 152640, Note_on_c, 0, 73, 48
1, 152661, Note_on_c, 0, 69, 24
1, 152685, Control_c, 0, 64, 100
1, 152692, Note_off_c, 0, 64, 38
1, 152700, Control_c, 0, 64, 84
1, 152715, Control_c, 0, 64, 72
1, 152729, Control_c, 0, 64, 63
1, 152735, Note_off_c, 0, 71, 41
1, 152755, Note_off_c, 0, 74, 38
1, 152759, Control_c, 0, 64, 67
1, 152774, Control_c, 0, 64, 72
1, 152789, Control_c, 0, 64, 78
1, 152803, Control_c, 0, 64, 84
1, 152818, Control_c, 0, 64, 90
1, 152833, Control_c, 0, 64, 95
1, 152847, Control_c, 0, 64, 100
1, 152862, Control_c, 0, 64, 105
1, 152877, Control_c, 0, 64, 109
1, 152891, Control_c, 0, 64, 113
1, 152917, Note_on_c, 0, 64, 47
1, 152921, Control_c, 0, 64, 117
1, 152936, Control_c, 0, 64, 121
1, 152947, Note_off_c, 0, 73, 57
1, 152951, Control_c, 0, 64, 127
1, 153189, Note_on_c, 0, 81, 86
1, 153191, Note_on_c, 0, 73, 63
1, 153198, Note_on_c, 0, 61, 52
1, 153215, Note_off_c, 0, 69, 23
1, 153376, Note_off_c, 0, 64, 36
1, 153415, Note_off_c, 0, 61, 52
1, 153451, Note_off_c, 0, 57, 39
1, 153490, Note_on_c, 0, 52, 59
1, 153535, Note_off_c, 0, 52, 62
1, 153839, Note_on_c, 0, 39, 82
1, 153886, Control_c, 0, 64, 93
1, 153901, Control_c, 0, 64, 69
1, 153916, Control_c, 0, 64, 47
1, 153931, Control_c, 0, 64, 0
1, 153960, Control_c, 0, 64, 50
1, 153975, Control_c, 0, 64, 71
1, 153990, Control_c, 0, 64, 88
1, 154005, Control_c, 0, 64, 127
1, 154021, Note_off_c, 0, 39, 60
1, 154252, Note_off_c, 0, 73, 32
1, 154276, Note_off_c, 0, 81, 11
1, 154303, Note_on_c, 0, 66, 63
1, 154595, Note_off_c, 0, 66, 48
1, 154682, Note_on_c, 0, 57, 46
1, 154699, Note_on_c, 0, 81, 80
1, 154715, Note_on_c, 0, 73, 59
1, 155145, Note_on_c, 0, 66, 62
1, 155267, Note_off_c, 0, 73, 40
1, 155296, Note_off_c, 0, 81, 28
1, 155433, Note_off_c, 0, 66, 36
1, 155460, Note_off_c, 0, 57, 7
1, 155472, Note_on_c, 0, 81, 83
1, 155474, Note_on_c, 0, 61, 45
1, 155502, Note_on_c, 0, 73, 42
1, 155755, Note_on_c, 0, 51, 54
1, 155767, Note_off_c, 0, 61, 55
1, 155776, Note_off_c, 0, 73, 41
1, 155799, Note_off_c, 0, 51, 63
1, 156048, Note_on_c, 0, 44, 51
1, 156056, Note_on_c, 0, 80, 83
1, 156069, Note_on_c, 0, 73, 54
1, 156087, Control_c, 0, 64, 104
1, 156102, Control_c, 0, 64, 74
1, 156116, Control_c, 0, 64, 42
1, 156131, Control_c, 0, 64, 0
1, 156161, Control_c, 0, 64, 34
1, 156176, Control_c, 0, 64, 57
1, 156181, Note_off_c, 0, 81, 34
1, 156190, Control_c, 0, 64, 68
1, 156205, Control_c, 0, 64, 79
1, 156220, Control_c, 0, 64, 111
1, 156235, Control_c, 0, 64, 127
1, 156241, Note_off_c, 0, 44, 60
1, 156497, Note_on_c, 0, 66, 52
1, 156829, Note_on_c, 0, 81, 80
1, 156854, Note_on_c, 0, 56, 34
1, 157015, Note_off_c, 0, 66, 34
1, 157137, Note_off_c, 0, 80, 31
1, 157298, Note_on_c, 0, 66, 30
1, 157570, Note_on_c, 0, 61, 37
1, 157621, Note_off_c, 0, 66, 40
1, 157828, Note_on_c, 0, 51, 39
1, 157848, Note_off_c, 0, 61, 38
1, 157871, Note_off_c, 0, 56, 28
1, 157880, Note_on_c, 0, 80, 73
1, 157900, Note_off_c, 0, 51, 57
1, 158199, Note_off_c, 0, 81, 37
1, 158211, Note_on_c, 0, 44, 43
1, 158246, Control_c, 0, 64, 111
1, 158261, Control_c, 0, 64, 93
1, 158262, Note_on_c, 0, 78, 70
1, 158275, Control_c, 0, 64, 79
1, 158290, Control_c, 0, 64, 66
1, 158305, Control_c, 0, 64, 53
1, 158314, Note_off_c, 0, 80, 63
1, 158319, Control_c, 0, 64, 47
1, 158334, Control_c, 0, 64, 55
1, 158349, Control_c, 0, 64, 65
1, 158364, Control_c, 0, 64, 72
1, 158379, Control_c, 0, 64, 82
1, 158393, Control_c, 0, 64, 91
1, 158408, Control_c, 0, 64, 103
1, 158409, Note_off_c, 0, 44, 47
1, 158423, Control_c, 0, 64, 114
1, 158438, Control_c, 0, 64, 127
1, 158554, Note_off_c, 0, 73, 35
1, 158626, Note_on_c, 0, 75, 25
1, 158766, Note_on_c, 0, 66, 27
1, 158886, Note_on_c, 0, 73, 40
1, 159061, Note_off_c, 0, 75, 30
1, 159088, Note_on_c, 0, 56, 26
1, 159130, Note_off_c, 0, 66, 29
1, 159189, Note_on_c, 0, 72, 35
1, 159243, Note_off_c, 0, 73, 37
1, 159382, Note_off_c, 0, 78, 39
1, 159392, Note_on_c, 0, 76, 53
1, 159519, Note_on_c, 0, 66, 35
1, 159594, Note_on_c, 0, 78, 57
1, 159814, Note_off_c, 0, 76, 20
1, 159836, Note_on_c, 0, 60, 24
1, 159872, Note_on_c, 0, 80, 53
1, 159993, Note_off_c, 0, 66, 39
1, 160003, Note_off_c, 0, 78, 31
1, 160008, Note_off_c, 0, 72, 34
1, 160234, Note_off_c, 0, 56, 32
1, 160241, Note_off_c, 0, 60, 34
1, 160283, Note_on_c, 0, 51, 31
1, 160339, Note_off_c, 0, 51, 51
1, 160484, Note_on_c, 0, 75, 50
1, 160502, Note_on_c, 0, 72, 40
1, 160595, Control_c, 0, 64, 123
1, 160610, Control_c, 0, 64, 120
1, 160617, Note_off_c, 0, 75, 37
1, 160625, Note_off_c, 0, 80, 40
1, 160625, Control_c, 0, 64, 118
1, 160639, Control_c, 0, 64, 114
1, 160654, Control_c, 0, 64, 111
1, 160656, Note_off_c, 0, 72, 28
1, 160669, Control_c, 0, 64, 105
1, 160680, Note_on_c, 0, 44, 41
1, 160684, Control_c, 0, 64, 98
1, 160699, Control_c, 0, 64, 87
1, 160713, Control_c, 0, 64, 76
1, 160728, Control_c, 0, 64, 65
1, 160739, Note_on_c, 0, 78, 58
1, 160743, Control_c, 0, 64, 53
1, 160745, Note_on_c, 0, 75, 22
1, 160758, Control_c, 0, 64, 36
1, 160773, Control_c, 0, 64, 31
1, 160787, Control_c, 0, 64, 42
1, 160802, Control_c, 0, 64, 62
1, 160817, Control_c, 0, 64, 70
1, 160831, Control_c, 0, 64, 77
1, 160846, Control_c, 0, 64, 85
1, 160861, Control_c, 0, 64, 95
1, 160863, Note_off_c, 0, 44, 40
1, 160876, Control_c, 0, 64, 110
1, 160891, Control_c, 0, 64, 127
1, 161134, Note_on_c, 0, 64, 28
1, 161420, Note_on_c, 0, 56, 36
1, 161470, Note_off_c, 0, 64, 33
1, 161525, Note_off_c, 0, 78, 33
1, 161573, Note_on_c, 0, 76, 56
1, 161577, Note_on_c, 0, 73, 34
1, 161606, Note_off_c, 0, 75, 38
1, 161660, Note_off_c, 0, 76, 56
1, 161753, Note_on_c, 0, 64, 30
1, 161822, Note_off_c, 0, 73, 41
1, 161905, Note_on_c, 0, 85, 68
1, 161906, Note_on_c, 0, 76, 50
1, 161974, Note_off_c, 0, 76, 46
1, 162012, Note_off_c, 0, 85, 58
1, 162079, Note_on_c, 0, 61, 35
1, 162139, Note_on_c, 0, 85, 64
1, 162153, Note_on_c, 0, 76, 46
1, 162206, Note_off_c, 0, 76, 50
1, 162238, Note_off_c, 0, 85, 62
1, 162264, Note_off_c, 0, 64, 35
1, 162370, Note_on_c, 0, 83, 65
1, 162379, Note_on_c, 0, 80, 53
1, 162417, Note_off_c, 0, 80, 55
1, 162461, Note_off_c, 0, 83, 51
1, 162478, Note_off_c, 0, 61, 39
1, 162522, Note_off_c, 0, 56, 29
1, 162528, Note_on_c, 0, 52, 38
1, 162573, Note_off_c, 0, 52, 61
1, 162709, Note_on_c, 0, 81, 61
1, 162715, Note_on_c, 0, 78, 49
1, 162754, Control_c, 0, 67, 19
1, 162783, Control_c, 0, 67, 22
1, 162784, Note_off_c, 0, 78, 57
1, 162791, Note_off_c, 0, 81, 61
1, 162813, Control_c, 0, 67, 24
1, 162842, Control_c, 0, 67, 29
1, 162857, Control_c, 0, 67, 32
1, 162872, Control_c, 0, 67, 36
1, 162887, Control_c, 0, 67, 39
1, 162902, Control_c, 0, 67, 42
1, 162916, Control_c, 0, 67, 47
1, 162931, Control_c, 0, 67, 53
1, 162946, Control_c, 0, 67, 60
1, 162961, Control_c, 0, 67, 66
1, 162966, Note_on_c, 0, 32, 38
1, 162976, Control_c, 0, 64, 99
1, 162976, Control_c, 0, 67, 70
1, 162990, Control_c, 0, 64, 76
1, 162990, Control_c, 0, 67, 72
1, 163005, Control_c, 0, 64, 62
1, 163005, Control_c, 0, 67, 74
1, 163020, Control_c, 0, 64, 48
1, 163020, Control_c, 0, 67, 78
1, 163030, Note_on_c, 0, 80, 51
1, 163034, Note_on_c, 0, 76, 38
1, 163034, Control_c, 0, 64, 49
1, 163034, Control_c, 0, 67, 84
1, 163049, Control_c, 0, 64, 62
1, 163049, Control_c, 0, 67, 89
1, 163064, Control_c, 0, 64, 71
1, 163064, Control_c, 0, 67, 92
1, 163079, Control_c, 0, 64, 83
1, 163079, Control_c, 0, 67, 93
1, 163094, Control_c, 0, 64, 101
1, 163109, Control_c, 0, 64, 127
1, 163121, Note_off_c, 0, 32, 37
1, 163164, Note_off_c, 0, 80, 52
1, 163189, Note_off_c, 0, 76, 57
1, 163227, Control_c, 0, 67, 93
1, 163287, Control_c, 0, 67, 92
1, 163301, Control_c, 0, 67, 92
1, 163316, Control_c, 0, 67, 91
1, 163331, Control_c, 0, 67, 90
1, 163343, Note_on_c, 0, 68, 52
1, 163344, Note_on_c, 0, 80, 53
1, 163345, Control_c, 0, 67, 89
1, 163360, Control_c, 0, 67, 88
1, 163375, Control_c, 0, 67, 86
1, 163390, Control_c, 0, 67, 84
1, 163405, Control_c, 0, 67, 83
1, 163419, Control_c, 0, 67, 80
1, 163434, Control_c, 0, 67, 78
1, 163449, Control_c, 0, 67, 76
1, 163464, Control_c, 0, 67, 71
1, 163487, Control_c, 0, 67, 64
1, 163500, Note_off_c, 0, 80, 44
1, 163502, Control_c, 0, 67, 57
1, 163513, Note_off_c, 0, 68, 48
1, 163517, Control_c, 0, 67, 48
1, 163519, Note_on_c, 0, 64, 41
1, 163532, Control_c, 0, 67, 39
1, 163547, Control_c, 0, 67, 29
1, 163562, Control_c, 0, 67, 19
1, 163577, Control_c, 0, 67, 0
1, 163654, Note_on_c, 0, 69, 59
1, 163660, Note_on_c, 0, 80, 57
1, 163821, Note_off_c, 0, 80, 38
1, 163836, Note_on_c, 0, 56, 38
1, 163872, Note_off_c, 0, 69, 30
1, 163909, Note_on_c, 0, 80, 57
1, 163920, Note_on_c, 0, 70, 52
1, 163931, Note_off_c, 0, 64, 37
1, 164031, Note_off_c, 0, 80, 59
1, 164045, Note_off_c, 0, 70, 49
1, 164132, Note_on_c, 0, 71, 62
1, 164140, Note_on_c, 0, 80, 64
1, 164194, Note_on_c, 0, 64, 46
1, 164217, Note_off_c, 0, 80, 54
1, 164274, Note_off_c, 0, 71, 36
1, 164325, Note_on_c, 0, 72, 66
1, 164333, Note_on_c, 0, 80, 65
1, 164370, Note_off_c, 0, 72, 58
1, 164393, Note_off_c, 0, 80, 61
1, 164486, Note_on_c, 0, 73, 67
1, 164486, Note_on_c, 0, 61, 46
1, 164494, Note_on_c, 0, 80, 66
1, 164503, Control_c, 0, 67, 21
1, 164533, Control_c, 0, 67, 24
1, 164547, Note_off_c, 0, 73, 59
1, 164549, Note_off_c, 0, 80, 60
1, 164562, Control_c, 0, 67, 26
1, 164592, Control_c, 0, 67, 30
1, 164615, Note_off_c, 0, 64, 33
1, 164621, Control_c, 0, 67, 33
1, 164636, Control_c, 0, 67, 34
1, 164638, Note_on_c, 0, 74, 71
1, 164651, Note_on_c, 0, 80, 64
1, 164651, Control_c, 0, 67, 35
1, 164666, Control_c, 0, 67, 36
1, 164689, Note_off_c, 0, 80, 56
1, 164695, Note_off_c, 0, 74, 60
1, 164720, Note_off_c, 0, 61, 60
1, 164740, Control_c, 0, 67, 36
1, 164775, Note_on_c, 0, 75, 65
1, 164776, Note_on_c, 0, 80, 71
1, 164784, Note_on_c, 0, 52, 47
1, 164810, Note_off_c, 0, 75, 60
1, 164810, Note_off_c, 0, 80, 55
1, 164832, Note_off_c, 0, 56, 41
1, 164839, Note_off_c, 0, 52, 60
1, 164892, Note_on_c, 0, 76, 75
1, 164906, Note_on_c, 0, 80, 71
1, 164941, Note_off_c, 0, 76, 42
1, 164941, Note_off_c, 0, 80, 57
1, 164984, Control_c, 0, 67, 36
1, 165020, Note_on_c, 0, 80, 82
1, 165023, Note_on_c, 0, 77, 74
1, 165072, Note_off_c, 0, 77, 63
1, 165088, Note_off_c, 0, 80, 63
1, 165163, Control_c, 0, 64, 93
1, 165166, Note_on_c, 0, 44, 61
1, 165172, Note_on_c, 0, 78, 78
1, 165176, Note_on_c, 0, 80, 85
1, 165178, Control_c, 0, 64, 68
1, 165193, Control_c, 0, 64, 0
1, 165193, Control_c, 0, 67, 35
1, 165207, Control_c, 0, 67, 35
1, 165222, Control_c, 0, 67, 34
1, 165237, Control_c, 0, 67, 34
1, 165252, Control_c, 0, 64, 35
1, 165252, Control_c, 0, 67, 33
1, 165267, Control_c, 0, 64, 57
1, 165267, Control_c, 0, 67, 33
1, 165282, Control_c, 0, 64, 68
1, 165288, Note_off_c, 0, 44, 63
1, 165296, Control_c, 0, 64, 94
1, 165296, Control_c, 0, 67, 32
1, 165311, Control_c, 0, 64, 127
1, 165370, Control_c, 0, 67, 30
1, 165400, Control_c, 0, 67, 28
1, 165429, Control_c, 0, 67, 25
1, 165444, Control_c, 0, 67, 23
1, 165459, Control_c, 0, 67, 20
1, 165474, Control_c, 0, 67, 0
1, 165505, Note_off_c, 0, 78, 35
1, 165579, Note_on_c, 0, 63, 62
1, 165873, Poly_aftertouch_c, 0, 56, 127
1, 165889, Note_on_c, 0, 54, 31
1, 165911, Note_on_c, 0, 83, 70
1, 165917, Note_off_c, 0, 63, 38
1, 165944, Note_on_c, 0, 78, 51
1, 165959, Note_off_c, 0, 80, 54
1, 165962, Note_on_c, 0, 81, 71
1, 166011, Poly_aftertouch_c, 0, 56, 0
1, 166074, Note_off_c, 0, 83, 56
1, 166224, Note_on_c, 0, 63, 58
1, 166266, Note_off_c, 0, 78, 37
1, 166462, Note_on_c, 0, 80, 77
1, 166477, Note_on_c, 0, 78, 64
1, 166478, Note_on_c, 0, 60, 51
1, 166535, Note_off_c, 0, 63, 53
1, 166591, Note_off_c, 0, 81, 56
1, 166687, Note_off_c, 0, 60, 38
1, 166713, Note_on_c, 0, 51, 56
1, 166720, Note_off_c, 0, 78, 27
1, 166746, Note_off_c, 0, 51, 64
1, 166763, Note_off_c, 0, 54, 40
1, 166968, Note_on_c, 0, 32, 74
1, 166968, Note_on_c, 0, 87, 84
1, 166969, Note_on_c, 0, 78, 75
1, 166972, Control_c, 0, 64, 98
1, 166987, Control_c, 0, 64, 64
1, 167002, Control_c, 0, 64, 0
1, 167046, Control_c, 0, 64, 50
1, 167061, Control_c, 0, 64, 69
1, 167063, Note_off_c, 0, 32, 62
1, 167072, Note_off_c, 0, 80, 38
1, 167075, Control_c, 0, 64, 97
1, 167090, Control_c, 0, 64, 127
1, 167167, Note_off_c, 0, 87, 60
1, 167192, Note_off_c, 0, 78, 60
1, 167354, Note_on_c, 0, 63, 54
1, 167726, Note_on_c, 0, 54, 52
1, 167727, Note_on_c, 0, 76, 73
1, 167729, Note_on_c, 0, 80, 74
1, 167754, Note_off_c, 0, 63, 34
1, 168077, Note_on_c, 0, 63, 55
1, 168215, Control_c, 0, 67, 19
1, 168239, Note_off_c, 0, 80, 55
1, 168290, Control_c, 0, 67, 22
1, 168323, Note_off_c, 0, 76, 0
1, 168330, Note_on_c, 0, 75, 71
1, 168334, Note_on_c, 0, 80, 81
1, 168352, Note_on_c, 0, 60, 52
1, 168361, Poly_aftertouch_c, 0, 76, 127
1, 168364, Note_on_c, 0, 76, 12
1, 168394, Control_c, 0, 67, 24
1, 168397, Note_off_c, 0, 63, 38
1, 168404, Note_off_c, 0, 76, 0
1, 168419, Poly_aftertouch_c, 0, 76, 0
1, 168439, Control_c, 0, 67, 26
1, 168528, Control_c, 0, 67, 28
1, 168564, Note_off_c, 0, 60, 54
1, 168573, Control_c, 0, 67, 32
1, 168583, Note_on_c, 0, 51, 56
1, 168588, Control_c, 0, 67, 35
1, 168603, Control_c, 0, 67, 38
1, 168612, Note_off_c, 0, 54, 37
1, 168618, Control_c, 0, 67, 41
1, 168619, Note_off_c, 0, 51, 62
1, 168633, Control_c, 0, 67, 44
1, 168637, Note_off_c, 0, 80, 0
1, 168647, Control_c, 0, 67, 46
1, 168657, Note_on_c, 0, 80, 33
1, 168662, Control_c, 0, 67, 47
1, 168707, Control_c, 0, 67, 46
1, 168758, Control_c, 0, 67, 46
1, 168773, Control_c, 0, 67, 45
1, 168788, Control_c, 0, 67, 45
1, 168818, Note_off_c, 0, 80, 45
1, 168825, Note_off_c, 0, 75, 37
1, 168862, Control_c, 0, 67, 44
1, 168877, Control_c, 0, 67, 44
1, 168892, Control_c, 0, 67, 43
1, 168906, Control_c, 0, 67, 43
1, 168929, Note_on_c, 0, 45, 51
1, 168955, Note_on_c, 0, 75, 63
1, 168962, Note_on_c, 0, 80, 77
1, 168980, Control_c, 0, 64, 91
1, 168995, Control_c, 0, 64, 67
1, 168995, Control_c, 0, 67, 42
1, 169010, Control_c, 0, 64, 44
1, 169010, Control_c, 0, 67, 41
1, 169025, Control_c, 0, 64, 0
1, 169025, Control_c, 0, 67, 40
1, 169039, Control_c, 0, 67, 38
1, 169054, Control_c, 0, 67, 37
1, 169069, Control_c, 0, 64, 55
1, 169069, Control_c, 0, 67, 35
1, 169084, Control_c, 0, 64, 72
1, 169084, Control_c, 0, 67, 32
1, 169100, Control_c, 0, 64, 86
1, 169100, Control_c, 0, 67, 29
1, 169115, Control_c, 0, 64, 127
1, 169115, Control_c, 0, 67, 21
1, 169130, Control_c, 0, 67, 0
1, 169151, Note_off_c, 0, 45, 60
1, 169378, Note_on_c, 0, 63, 52
1, 169655, Note_on_c, 0, 54, 44
1, 169669, Note_off_c, 0, 63, 48
1, 169900, Note_on_c, 0, 63, 46
1, 170100, Note_off_c, 0, 80, 31
1, 170135, Note_on_c, 0, 78, 51
1, 170153, Note_on_c, 0, 60, 37
1, 170247, Note_off_c, 0, 63, 39
1, 170277, Note_off_c, 0, 75, 42
1, 170326, Note_off_c, 0, 60, 52
1, 170391, Note_on_c, 0, 51, 48
1, 170424, Note_off_c, 0, 51, 63
1, 170435, Note_off_c, 0, 54, 40
1, 170492, Control_c, 0, 67, 19
1, 170537, Control_c, 0, 67, 21
1, 170636, Note_on_c, 0, 33, 73
1, 170655, Control_c, 0, 64, 94
1, 170669, Control_c, 0, 64, 67
1, 170684, Control_c, 0, 64, 48
1, 170701, Control_c, 0, 64, 49
1, 170715, Control_c, 0, 64, 64
1, 170730, Control_c, 0, 64, 77
1, 170736, Note_off_c, 0, 33, 64
1, 170745, Control_c, 0, 64, 105
1, 170745, Control_c, 0, 67, 0
1, 170759, Control_c, 0, 64, 127
1, 171001, Note_on_c, 0, 63, 59
1, 171189, Note_off_c, 0, 78, 38
1, 171226, Note_on_c, 0, 54, 43
1, 171268, Note_on_c, 0, 72, 72
1, 171272, Note_on_c, 0, 78, 76
1, 171299, Note_on_c, 0, 75, 45
1, 171324, Note_off_c, 0, 63, 37
1, 171551, Note_on_c, 0, 63, 61
1, 171610, Note_off_c, 0, 75, 10
1, 171611, Note_off_c, 0, 72, 54
1, 171631, Note_off_c, 0, 78, 39
1, 171768, Note_on_c, 0, 71, 80
1, 171772, Note_on_c, 0, 78, 77
1, 171795, Note_on_c, 0, 75, 51
1, 171796, Note_on_c, 0, 59, 52
1, 171816, Note_off_c, 0, 63, 54
1, 171929, Note_off_c, 0, 75, 32
1, 172003, Note_off_c, 0, 59, 38
1, 172026, Note_on_c, 0, 51, 58
1, 172063, Note_off_c, 0, 51, 63
1, 172069, Note_off_c, 0, 54, 39
1, 172147, Note_off_c, 0, 71, 54
1, 172270, Note_off_c, 0, 78, 38
1, 172332, Note_on_c, 0, 46, 57
1, 172359, Note_on_c, 0, 70, 70
1, 172365, Note_on_c, 0, 78, 74
1, 172375, Note_on_c, 0, 75, 47
1, 172377, Control_c, 0, 64, 118
1, 172391, Control_c, 0, 64, 79
1, 172406, Control_c, 0, 64, 56
1, 172421, Control_c, 0, 64, 0
1, 172487, Control_c, 0, 64, 46
1, 172502, Control_c, 0, 64, 61
1, 172517, Control_c, 0, 64, 72
1, 172532, Control_c, 0, 64, 90
1, 172542, Note_off_c, 0, 46, 62
1, 172546, Control_c, 0, 64, 127
1, 172596, Note_off_c, 0, 75, 36
1, 172646, Note_off_c, 0, 70, 56
1, 172831, Note_on_c, 0, 63, 57
1, 172850, Note_off_c, 0, 78, 52
1, 172955, Note_on_c, 0, 78, 83
1, 173251, Note_on_c, 0, 54, 33
1, 173262, Note_on_c, 0, 90, 78
1, 173431, Note_off_c, 0, 63, 38
1, 173620, Note_on_c, 0, 63, 46
1, 173873, Note_on_c, 0, 58, 46
1, 173983, Note_off_c, 0, 63, 52
1, 174111, Note_on_c, 0, 51, 52
1, 174113, Note_off_c, 0, 58, 60
1, 174141, Note_off_c, 0, 51, 64
1, 174147, Note_off_c, 0, 54, 39
1, 174337, Note_on_c, 0, 34, 71
1, 174356, Control_c, 0, 64, 95
1, 174371, Control_c, 0, 64, 74
1, 174385, Control_c, 0, 64, 65
1, 174400, Control_c, 0, 64, 67
1, 174415, Control_c, 0, 64, 79
1, 174426, Note_off_c, 0, 34, 62
1, 174430, Control_c, 0, 64, 98
1, 174444, Control_c, 0, 64, 127
1, 174535, Note_off_c, 0, 78, 40
1, 174660, Note_on_c, 0, 86, 76
1, 174686, Note_on_c, 0, 63, 46
1, 174796, Note_off_c, 0, 90, 38
1, 174967, Note_on_c, 0, 54, 37
1, 175045, Note_on_c, 0, 87, 77
1, 175137, Note_off_c, 0, 63, 38
1, 175147, Note_off_c, 0, 86, 51
1, 175280, Note_on_c, 0, 81, 72
1, 175282, Note_off_c, 0, 87, 63
1, 175343, Note_on_c, 0, 63, 45
1, 175468, Note_off_c, 0, 81, 58
1, 175470, Note_on_c, 0, 82, 80
1, 175593, Note_on_c, 0, 58, 42
1, 175638, Note_off_c, 0, 82, 61
1, 175648, Note_on_c, 0, 77, 79
1, 175717, Note_off_c, 0, 63, 52
1, 175781, Note_off_c, 0, 77, 57
1, 175808, Note_on_c, 0, 78, 83
1, 175867, Note_on_c, 0, 51, 53
1, 175909, Note_off_c, 0, 58, 61
1, 175924, Note_off_c, 0, 54, 40
1, 175931, Note_off_c, 0, 51, 60
1, 175938, Note_off_c, 0, 78, 64
1, 175964, Note_on_c, 0, 74, 80
1, 176034, Note_off_c, 0, 74, 61
1, 176144, Note_on_c, 0, 47, 77
1, 176145, Note_on_c, 0, 78, 85
1, 176153, Note_on_c, 0, 69, 68
1, 176157, Note_on_c, 0, 75, 62
1, 176180, Control_c, 0, 64, 81
1, 176195, Control_c, 0, 64, 62
1, 176216, Control_c, 0, 64, 38
1, 176231, Control_c, 0, 64, 0
1, 176261, Control_c, 0, 64, 45
1, 176276, Control_c, 0, 64, 64
1, 176292, Control_c, 0, 64, 77
1, 176293, Note_off_c, 0, 75, 39
1, 176307, Control_c, 0, 64, 101
1, 176313, Note_off_c, 0, 69, 54
1, 176321, Control_c, 0, 64, 127
1, 176334, Note_off_c, 0, 47, 64
1, 176524, Note_off_c, 0, 78, 58
1, 176527, Note_on_c, 0, 63, 52
1, 176624, Note_on_c, 0, 78, 83
1, 176794, Note_on_c, 0, 90, 89
1, 176796, Note_off_c, 0, 63, 34
1, 176809, Note_on_c, 0, 54, 34
1, 177073, Note_on_c, 0, 63, 45
1, 177156, Note_off_c, 0, 78, 56
1, 177212, Note_off_c, 0, 54, 39
1, 177311, Note_on_c, 0, 57, 48
1, 177342, Note_off_c, 0, 63, 35
1, 177545, Note_on_c, 0, 51, 55
1, 177548, Note_off_c, 0, 57, 34
1, 177578, Note_off_c, 0, 51, 63
1, 177763, Note_on_c, 0, 35, 83
1, 177787, Control_c, 0, 64, 85
1, 177802, Control_c, 0, 64, 69
1, 177817, Control_c, 0, 64, 64
1, 177832, Control_c, 0, 64, 70
1, 177847, Control_c, 0, 64, 90
1, 177852, Note_off_c, 0, 35, 63
1, 177861, Control_c, 0, 64, 127
1, 178056, Note_on_c, 0, 86, 83
1, 178076, Note_on_c, 0, 63, 60
1, 178107, Note_off_c, 0, 90, 57
1, 178315, Note_on_c, 0, 54, 47
1, 178407, Note_off_c, 0, 63, 48
1, 178440, Note_on_c, 0, 87, 82
1, 178504, Note_off_c, 0, 86, 57
1, 178689, Note_off_c, 0, 87, 63
1, 178713, Note_on_c, 0, 80, 81
1, 178792, Note_on_c, 0, 63, 48
1, 178896, Note_on_c, 0, 81, 75
1, 178940, Note_off_c, 0, 80, 37
1, 179036, Note_on_c, 0, 57, 51
1, 179041, Note_off_c, 0, 81, 59
1, 179072, Note_on_c, 0, 77, 76
1, 179090, Note_off_c, 0, 63, 45
1, 179220, Note_off_c, 0, 77, 61
1, 179245, Note_on_c, 0, 78, 84
1, 179280, Note_off_c, 0, 54, 36
1, 179300, Note_on_c, 0, 51, 55
1, 179364, Note_off_c, 0, 78, 65
1, 179384, Note_off_c, 0, 51, 59
1, 179399, Note_on_c, 0, 74, 80
1, 179454, Note_off_c, 0, 74, 58
1, 179576, Note_on_c, 0, 78, 86
1, 179581, Note_on_c, 0, 48, 69
1, 179583, Note_on_c, 0, 69, 71
1, 179584, Control_c, 0, 64, 103
1, 179599, Note_on_c, 0, 75, 66
1, 179599, Control_c, 0, 64, 71
1, 179613, Control_c, 0, 64, 44
1, 179628, Control_c, 0, 64, 0
1, 179647, Note_off_c, 0, 57, 57
1, 179697, Note_off_c, 0, 75, 59
1, 179702, Control_c, 0, 64, 52
1, 179717, Control_c, 0, 64, 69
1, 179731, Control_c, 0, 64, 86
1, 179735, Note_off_c, 0, 69, 58
1, 179745, Note_off_c, 0, 48, 56
1, 179746, Control_c, 0, 64, 127
1, 179879, Note_off_c, 0, 78, 58
1, 179880, Note_on_c, 0, 63, 58
1, 179981, Note_on_c, 0, 78, 86
1, 180094, Note_off_c, 0, 63, 38
1, 180135, Note_on_c, 0, 54, 45
1, 180153, Note_on_c, 0, 90, 94
1, 180423, Note_on_c, 0, 63, 55
1, 180512, Note_off_c, 0, 78, 39
1, 180514, Note_off_c, 0, 90, 57
1, 180639, Note_on_c, 0, 57, 62
1, 180708, Note_off_c, 0, 63, 38
1, 180829, Note_off_c, 0, 54, 39
1, 180868, Note_on_c, 0, 51, 69
1, 180969, Note_off_c, 0, 51, 61
1, 181090, Note_on_c, 0, 78, 89
1, 181093, Note_on_c, 0, 49, 78
1, 181100, Note_on_c, 0, 69, 73
1, 181111, Note_on_c, 0, 73, 70
1, 181111, Control_c, 0, 64, 93
1, 181125, Control_c, 0, 64, 65
1, 181140, Control_c, 0, 64, 0
1, 181171, Note_off_c, 0, 57, 62
1, 181185, Control_c, 0, 64, 42
1, 181199, Note_off_c, 0, 69, 58
1, 181200, Control_c, 0, 64, 62
1, 181215, Control_c, 0, 64, 76
1, 181229, Control_c, 0, 64, 99
1, 181244, Control_c, 0, 64, 127
1, 181268, Note_off_c, 0, 73, 55
1, 181330, Note_off_c, 0, 78, 60
1, 181355, Note_on_c, 0, 61, 73
1, 181435, Note_on_c, 0, 78, 86
1, 181553, Note_off_c, 0, 61, 58
1, 181573, Note_on_c, 0, 90, 96
1, 181597, Note_on_c, 0, 54, 66
1, 181745, Note_off_c, 0, 90, 63
1, 181794, Note_off_c, 0, 78, 59
1, 181818, Note_on_c, 0, 57, 77
1, 181908, Note_off_c, 0, 49, 62
1, 181922, Note_off_c, 0, 54, 50
1, 182070, Note_on_c, 0, 50, 75
1, 182091, Note_on_c, 0, 78, 90
1, 182100, Note_on_c, 0, 69, 72
1, 182103, Note_on_c, 0, 72, 75
1, 182125, Control_c, 0, 64, 115
1, 182140, Control_c, 0, 64, 68
1, 182148, Note_off_c, 0, 57, 61
1, 182155, Control_c, 0, 64, 34
1, 182169, Control_c, 0, 64, 0
1, 182237, Control_c, 0, 64, 53
1, 182251, Control_c, 0, 64, 75
1, 182266, Note_off_c, 0, 69, 57
1, 182266, Control_c, 0, 64, 106
1, 182281, Control_c, 0, 64, 127
1, 182332, Note_off_c, 0, 72, 52
1, 182415, Note_on_c, 0, 60, 79
1, 182461, Note_off_c, 0, 78, 59
1, 182568, Note_on_c, 0, 78, 91
1, 182788, Note_on_c, 0, 54, 53
1, 182834, Note_on_c, 0, 90, 88
1, 183011, Note_off_c, 0, 60, 56
1, 183021, Note_off_c, 0, 50, 59
1, 183185, Note_on_c, 0, 57, 76
1, 183290, Note_off_c, 0, 54, 29
1, 183290, Note_off_c, 0, 57, 61
1, 183400, Poly_aftertouch_c, 0, 85, 127
1, 183475, Control_c, 0, 67, 19
1, 183513, Note_on_c, 0, 51, 85
1, 183554, Poly_aftertouch_c, 0, 85, 0
1, 183564, Control_c, 0, 67, 21
1, 183668, Control_c, 0, 64, 109
1, 183683, Control_c, 0, 64, 75
1, 183705, Control_c, 0, 64, 54
1, 183720, Control_c, 0, 64, 0
1, 183779, Control_c, 0, 64, 52
1, 183794, Control_c, 0, 64, 68
1, 183809, Control_c, 0, 64, 80
1, 183823, Control_c, 0, 64, 106
1, 183838, Control_c, 0, 64, 127
1, 183876, Note_off_c, 0, 78, 59
1, 183929, Note_on_c, 0, 89, 87
1, 184014, Note_off_c, 0, 90, 40
1, 184016, Control_c, 0, 67, 19
1, 184031, Control_c, 0, 67, 0
1, 184154, Note_on_c, 0, 60, 72
1, 184379, Note_on_c, 0, 88, 82
1, 184429, Note_off_c, 0, 89, 58
1, 184616, Note_on_c, 0, 54, 56
1, 184720, Note_on_c, 0, 78, 77
1, 184732, Note_off_c, 0, 88, 52
1, 184899, Note_off_c, 0, 60, 42
1, 184996, Note_on_c, 0, 87, 80
1, 185108, Note_on_c, 0, 56, 63
1, 185111, Note_off_c, 0, 51, 54
1, 185184, Note_off_c, 0, 56, 57
1, 185203, Note_off_c, 0, 54, 58
1, 185237, Note_on_c, 0, 86, 78
1, 185363, Note_off_c, 0, 87, 30
1, 185424, Note_on_c, 0, 44, 73
1, 185484, Control_c, 0, 64, 87
1, 185498, Control_c, 0, 64, 68
1, 185501, Note_on_c, 0, 85, 81
1, 185513, Control_c, 0, 64, 53
1, 185528, Control_c, 0, 64, 49
1, 185543, Control_c, 0, 64, 56
1, 185558, Control_c, 0, 64, 65
1, 185561, Note_off_c, 0, 86, 55
1, 185567, Note_off_c, 0, 78, 56
1, 185573, Control_c, 0, 64, 78
1, 185588, Control_c, 0, 64, 109
1, 185602, Control_c, 0, 64, 127
1, 185636, Note_off_c, 0, 44, 60
1, 185866, Note_on_c, 0, 75, 74
1, 185999, Note_on_c, 0, 66, 52
1, 186038, Note_off_c, 0, 85, 39
1, 186126, Note_on_c, 0, 84, 79
1, 186268, Note_on_c, 0, 56, 51
1, 186291, Note_off_c, 0, 66, 34
1, 186355, Note_on_c, 0, 82, 74
1, 186444, Note_off_c, 0, 75, 57
1, 186460, Note_off_c, 0, 84, 38
1, 186548, Note_on_c, 0, 81, 77
1, 186622, Note_off_c, 0, 82, 52
1, 186672, Note_on_c, 0, 66, 53
1, 186788, Note_on_c, 0, 72, 76
1, 186829, Note_off_c, 0, 81, 55
1, 187003, Note_on_c, 0, 60, 44
1, 187070, Note_off_c, 0, 66, 35
1, 187087, Note_on_c, 0, 80, 80
1, 187312, Note_off_c, 0, 56, 48
1, 187500, Note_on_c, 0, 79, 82
1, 187615, Note_off_c, 0, 80, 34
1, 187661, Note_on_c, 0, 51, 65
1, 187739, Note_off_c, 0, 72, 36
1, 187836, Note_off_c, 0, 60, 32
1, 187933, Note_on_c, 0, 78, 86
1, 188002, Note_off_c, 0, 51, 60
1, 188039, Note_off_c, 0, 79, 40
1, 188497, Note_on_c, 0, 37, 72
1, 188497, Note_on_c, 0, 77, 83
1, 188602, Note_off_c, 0, 78, 54
1, 188612, Control_c, 0, 64, 89
1, 188627, Control_c, 0, 64, 64
1, 188642, Control_c, 0, 64, 34
1, 188656, Control_c, 0, 64, 0
1, 188730, Control_c, 0, 64, 38
1, 188746, Control_c, 0, 64, 62
1, 188761, Control_c, 0, 64, 75
1, 188776, Control_c, 0, 64, 90
1, 188791, Control_c, 0, 64, 127
1, 188838, Note_off_c, 0, 37, 56
1, 189323, Note_on_c, 0, 65, 51
1, 189745, Note_on_c, 0, 56, 45
1, 189873, Note_off_c, 0, 65, 36
1, 190039, Note_on_c, 0, 65, 50
1, 190291, Note_off_c, 0, 56, 41
1, 190292, Note_on_c, 0, 61, 45
1, 190322, Note_off_c, 0, 65, 41
1, 190435, Note_off_c, 0, 61, 52
1, 190525, Note_on_c, 0, 53, 47
1, 190797, Note_on_c, 0, 49, 41
1, 190819, Note_on_c, 0, 75, 73
1, 190992, Note_off_c, 0, 53, 33
1, 191015, Note_off_c, 0, 49, 42
1, 191234, Note_on_c, 0, 65, 57
1, 191542, Note_on_c, 0, 56, 34
1, 191558, Note_on_c, 0, 73, 73
1, 191645, Note_off_c, 0, 65, 40
1, 191657, Note_off_c, 0, 75, 59
1, 191858, Note_on_c, 0, 65, 42
1, 191881, Note_off_c, 0, 77, 31
1, 192070, Note_off_c, 0, 65, 38
1, 192113, Note_on_c, 0, 61, 38
1, 192164, Note_off_c, 0, 56, 35
1, 192331, Note_off_c, 0, 61, 41
1, 192401, Note_on_c, 0, 65, 72
1, 192405, Note_on_c, 0, 53, 32
1, 192599, Note_off_c, 0, 73, 31
1, 192758, Note_on_c, 0, 49, 38
1, 192793, Note_on_c, 0, 68, 71
1, 192985, Note_off_c, 0, 53, 31
1, 192989, Note_off_c, 0, 49, 41
1, 193027, Note_off_c, 0, 65, 37
1, 193213, Note_on_c, 0, 65, 37
1, 193485, Note_on_c, 0, 56, 36
1, 193510, Note_off_c, 0, 65, 38
1, 193719, Note_on_c, 0, 65, 41
1, 193732, Note_off_c, 0, 56, 39
1, 193944, Note_on_c, 0, 61, 35
1, 193966, Note_off_c, 0, 65, 42
1, 194090, Note_off_c, 0, 61, 40
1, 194189, Note_on_c, 0, 53, 36
1, 194411, Note_on_c, 0, 49, 40
1, 194470, Note_off_c, 0, 49, 55
1, 194521, Note_off_c, 0, 53, 37
1, 194642, Note_on_c, 0, 65, 50
1, 194864, Note_on_c, 0, 56, 35
1, 194910, Note_on_c, 0, 73, 72
1, 194978, Note_off_c, 0, 65, 41
1, 195145, Note_off_c, 0, 68, 34
1, 195189, Note_on_c, 0, 65, 48
1, 195410, Note_on_c, 0, 77, 74
1, 195425, Note_off_c, 0, 56, 36
1, 195440, Note_on_c, 0, 61, 43
1, 195476, Note_off_c, 0, 65, 32
1, 195659, Note_off_c, 0, 61, 34
1, 195702, Note_on_c, 0, 53, 48
1, 195991, Note_on_c, 0, 49, 47
1, 196000, Note_on_c, 0, 82, 78
1, 196188, Note_off_c, 0, 49, 42
1, 196199, Note_off_c, 0, 53, 38
1, 196398, Note_on_c, 0, 65, 39
1, 196465, Note_off_c, 0, 73, 31
1, 196576, Note_off_c, 0, 77, 25
1, 196659, Note_on_c, 0, 56, 32
1, 196728, Note_off_c, 0, 65, 33
1, 196886, Note_off_c, 0, 56, 38
1, 196889, Note_on_c, 0, 65, 36
1, 197080, Note_off_c, 0, 65, 40
1, 197102, Note_on_c, 0, 61, 35
1, 197303, Note_off_c, 0, 61, 39
1, 197354, Note_on_c, 0, 53, 40
1, 197574, Note_on_c, 0, 49, 44
1, 197643, Note_off_c, 0, 49, 56
1, 197678, Note_off_c, 0, 53, 40
1, 197844, Note_on_c, 0, 80, 73
1, 197865, Note_on_c, 0, 65, 34
1, 198075, Note_off_c, 0, 82, 34
1, 198130, Note_on_c, 0, 56, 33
1, 198249, Note_on_c, 0, 76, 73
1, 198281, Note_off_c, 0, 65, 23
1, 198361, Note_off_c, 0, 80, 57
1, 198559, Note_on_c, 0, 77, 72
1, 198586, Note_on_c, 0, 65, 35
1, 198755, Note_off_c, 0, 65, 38
1, 198821, Note_on_c, 0, 72, 72
1, 198837, Note_on_c, 0, 61, 39
1, 198871, Note_off_c, 0, 56, 37
1, 198882, Note_off_c, 0, 76, 61
1, 198910, Note_off_c, 0, 77, 61
1, 198962, Control_c, 0, 67, 20
1, 199006, Control_c, 0, 67, 22
1, 199036, Control_c, 0, 67, 26
1, 199051, Control_c, 0, 67, 28
1, 199080, Control_c, 0, 67, 30
1, 199095, Control_c, 0, 67, 32
1, 199110, Control_c, 0, 67, 34
1, 199124, Control_c, 0, 67, 37
1, 199139, Control_c, 0, 67, 40
1, 199142, Note_on_c, 0, 73, 75
1, 199154, Control_c, 0, 67, 42
1, 199157, Note_on_c, 0, 53, 46
1, 199161, Note_off_c, 0, 61, 40
1, 199169, Control_c, 0, 67, 44
1, 199184, Control_c, 0, 67, 47
1, 199199, Control_c, 0, 67, 51
1, 199208, Note_off_c, 0, 53, 56
1, 199214, Control_c, 0, 67, 56
1, 199229, Control_c, 0, 67, 60
1, 199238, Note_off_c, 0, 72, 54
1, 199244, Control_c, 0, 67, 62
1, 199259, Control_c, 0, 67, 63
1, 199273, Control_c, 0, 67, 63
1, 199288, Control_c, 0, 67, 64
1, 199303, Control_c, 0, 67, 64
1, 199318, Control_c, 0, 67, 65
1, 199333, Control_c, 0, 67, 67
1, 199348, Control_c, 0, 67, 69
1, 199363, Control_c, 0, 67, 71
1, 199378, Control_c, 0, 67, 73
1, 199392, Control_c, 0, 67, 75
1, 199407, Control_c, 0, 67, 76
1, 199429, Control_c, 0, 67, 77
1, 199444, Control_c, 0, 67, 78
1, 199460, Control_c, 0, 67, 79
1, 199475, Control_c, 0, 67, 79
1, 199490, Control_c, 0, 67, 80
1, 199504, Control_c, 0, 67, 82
1, 199519, Control_c, 0, 67, 84
1, 199534, Control_c, 0, 67, 87
1, 199548, Control_c, 0, 67, 90
1, 199563, Control_c, 0, 67, 93
1, 199578, Control_c, 0, 67, 93
1, 199689, Note_on_c, 0, 71, 70
1, 199696, Control_c, 0, 67, 94
1, 199705, Note_on_c, 0, 37, 52
1, 199756, Control_c, 0, 67, 94
1, 199801, Control_c, 0, 67, 95
1, 199815, Control_c, 0, 67, 96
1, 199830, Control_c, 0, 64, 115
1, 199830, Control_c, 0, 67, 101
1, 199845, Control_c, 0, 64, 84
1, 199845, Control_c, 0, 67, 107
1, 199855, Note_off_c, 0, 73, 58
1, 199860, Control_c, 0, 64, 65
1, 199860, Control_c, 0, 67, 111
1, 199875, Control_c, 0, 64, 39
1, 199875, Control_c, 0, 67, 114
1, 199889, Control_c, 0, 64, 0
1, 199889, Control_c, 0, 67, 118
1, 199904, Control_c, 0, 67, 122
1, 199919, Control_c, 0, 67, 127
1, 199978, Control_c, 0, 64, 51
1, 199993, Control_c, 0, 64, 65
1, 200008, Control_c, 0, 64, 70
1, 200022, Control_c, 0, 64, 75
1, 200030, Note_off_c, 0, 37, 55
1, 200037, Control_c, 0, 64, 82
1, 200052, Control_c, 0, 64, 92
1, 200067, Control_c, 0, 64, 103
1, 200082, Control_c, 0, 64, 115
1, 200096, Control_c, 0, 64, 127
1, 200524, Note_on_c, 0, 65, 38
1, 200904, Note_on_c, 0, 56, 28
1, 200993, Note_off_c, 0, 65, 37
1, 201184, Note_on_c, 0, 65, 28
1, 201186, Note_off_c, 0, 56, 37
1, 201403, Note_off_c, 0, 65, 37
1, 201423, Note_on_c, 0, 61, 23
1, 201577, Note_off_c, 0, 61, 38
1, 201655, Note_on_c, 0, 53, 23
1, 201786, Note_off_c, 0, 53, 26
1, 201887, Note_on_c, 0, 49, 28
1, 201932, Note_off_c, 0, 49, 51
1, 202134, Note_on_c, 0, 65, 36
1, 202361, Note_on_c, 0, 56, 30
1, 202424, Note_off_c, 0, 65, 34
1, 202600, Note_off_c, 0, 56, 36
1, 202605, Note_on_c, 0, 65, 24
1, 202844, Note_off_c, 0, 65, 33
1, 202849, Note_on_c, 0, 61, 22
1, 203008, Note_off_c, 0, 61, 37
1, 203097, Note_off_c, 0, 71, 12
1, 203109, Note_on_c, 0, 53, 25
1, 203390, Note_off_c, 0, 53, 32
1, 203458, Note_on_c, 0, 49, 29
1, 203463, Note_on_c, 0, 83, 40
1, 203600, Note_off_c, 0, 49, 43
1, 203882, Note_on_c, 0, 65, 25
1, 204132, Note_off_c, 0, 65, 37
1, 204152, Note_on_c, 0, 56, 20
1, 204374, Note_off_c, 0, 56, 38
1, 204393, Note_on_c, 0, 65, 29
1, 204604, Note_off_c, 0, 65, 35
1, 204621, Note_on_c, 0, 61, 29
1, 204765, Note_off_c, 0, 61, 36
1, 204876, Note_on_c, 0, 53, 20
1, 205122, Note_off_c, 0, 53, 32
1, 205157, Note_on_c, 0, 49, 28
1, 205289, Note_off_c, 0, 49, 36
1, 205417, Note_on_c, 0, 79, 43
1, 205623, Note_on_c, 0, 65, 26
1, 205658, Note_off_c, 0, 83, 29
1, 205831, Note_on_c, 0, 80, 40
1, 205900, Note_off_c, 0, 79, 33
1, 205983, Note_on_c, 0, 56, 27
1, 206033, Note_off_c, 0, 65, 24
1, 206069, Note_on_c, 0, 79, 46
1, 206117, Note_off_c, 0, 80, 38
1, 206253, Note_off_c, 0, 79, 50
1, 206278, Note_on_c, 0, 78, 40
1, 206368, Note_on_c, 0, 65, 31
1, 206468, Note_on_c, 0, 79, 47
1, 206470, Note_off_c, 0, 78, 35
1, 206645, Note_on_c, 0, 61, 28
1, 206652, Note_off_c, 0, 56, 30
1, 206737, Note_off_c, 0, 65, 38
1, 206751, Note_on_c, 0, 82, 49
1, 207078, Note_on_c, 0, 80, 46
1, 207110, Note_off_c, 0, 61, 31
1, 207218, Note_on_c, 0, 53, 27
1, 207263, Note_off_c, 0, 53, 51
1, 207295, Note_off_c, 0, 79, 37
1, 207319, Note_off_c, 0, 82, 32
1, 207381, Note_on_c, 0, 77, 47
1, 207422, Note_off_c, 0, 80, 46
1, 207771, Note_on_c, 0, 75, 43
1, 207771, Control_c, 0, 64, 103
1, 207781, Note_on_c, 0, 37, 33
1, 207786, Control_c, 0, 64, 90
1, 207801, Control_c, 0, 64, 78
1, 207815, Control_c, 0, 64, 67
1, 207830, Control_c, 0, 64, 58
1, 207832, Note_off_c, 0, 77, 42
1, 207845, Control_c, 0, 64, 52
1, 207860, Control_c, 0, 64, 56
1, 207875, Control_c, 0, 64, 62
1, 207889, Control_c, 0, 64, 68
1, 207904, Control_c, 0, 64, 78
1, 207919, Control_c, 0, 64, 92
1, 207932, Note_off_c, 0, 37, 39
1, 207934, Control_c, 0, 64, 109
1, 207949, Control_c, 0, 64, 127
1, 208306, Note_on_c, 0, 65, 19
1, 208600, Note_on_c, 0, 56, 27
1, 208630, Note_off_c, 0, 65, 41
1, 208854, Note_on_c, 0, 65, 25
1, 209095, Note_on_c, 0, 59, 29
1, 209174, Note_off_c, 0, 65, 34
1, 209246, Note_off_c, 0, 59, 30
1, 209349, Note_off_c, 0, 56, 30
1, 209350, Note_on_c, 0, 53, 23
1, 209391, Note_off_c, 0, 53, 50
1, 209543, Note_off_c, 0, 75, 25
1, 209614, Note_on_c, 0, 49, 27
1, 209695, Note_off_c, 0, 49, 40
1, 209714, Note_on_c, 0, 73, 34
1, 209841, Note_off_c, 0, 73, 40
1, 209855, Note_on_c, 0, 75, 33
1, 209888, Note_off_c, 0, 75, 53
1, 209916, Note_on_c, 0, 73, 45
1, 209960, Note_on_c, 0, 65, 17
1, 209975, Note_off_c, 0, 73, 52
1, 209997, Note_on_c, 0, 75, 45
1, 210029, Note_off_c, 0, 75, 54
1, 210041, Note_on_c, 0, 73, 42
1, 210103, Note_off_c, 0, 73, 52
1, 210139, Note_on_c, 0, 75, 33
1, 210157, Note_on_c, 0, 73, 40
1, 210169, Note_off_c, 0, 75, 48
1, 210178, Note_off_c, 0, 65, 39
1, 210207, Note_off_c, 0, 73, 59
1, 210216, Note_on_c, 0, 56, 24
1, 210237, Note_on_c, 0, 75, 42
1, 210270, Note_off_c, 0, 75, 53
1, 210283, Note_on_c, 0, 73, 48
1, 210326, Note_off_c, 0, 73, 60
1, 210363, Note_on_c, 0, 75, 43
1, 210388, Note_off_c, 0, 75, 59
1, 210400, Note_on_c, 0, 73, 52
1, 210442, Note_on_c, 0, 65, 26
1, 210442, Note_off_c, 0, 73, 59
1, 210470, Note_on_c, 0, 75, 56
1, 210488, Note_off_c, 0, 56, 27
1, 210496, Note_off_c, 0, 75, 60
1, 210508, Note_on_c, 0, 73, 48
1, 210544, Note_off_c, 0, 73, 62
1, 210566, Note_on_c, 0, 72, 46
1, 210601, Note_off_c, 0, 72, 57
1, 210630, Note_on_c, 0, 73, 61
1, 210675, Note_off_c, 0, 73, 61
1, 210687, Note_on_c, 0, 59, 20
1, 210708, Note_on_c, 0, 75, 37
1, 210722, Note_off_c, 0, 65, 35
1, 210740, Note_off_c, 0, 75, 49
1, 210755, Note_on_c, 0, 77, 54
1, 210790, Note_off_c, 0, 77, 57
1, 210818, Note_on_c, 0, 78, 61
1, 210875, Note_off_c, 0, 78, 58
1, 210883, Note_on_c, 0, 80, 49
1, 210905, Note_off_c, 0, 80, 62
1, 210923, Note_on_c, 0, 82, 56
1, 210943, Note_off_c, 0, 82, 61
1, 210946, Note_off_c, 0, 59, 31
1, 210952, Note_on_c, 0, 53, 24
1, 210977, Note_on_c, 0, 83, 57
1, 210994, Note_off_c, 0, 53, 40
1, 211000, Note_off_c, 0, 83, 61
1, 211047, Note_on_c, 0, 85, 55
1, 211084, Note_off_c, 0, 85, 60
1, 211102, Note_on_c, 0, 87, 57
1, 211131, Note_off_c, 0, 87, 61
1, 211182, Note_on_c, 0, 89, 52
1, 211230, Note_off_c, 0, 89, 53
1, 211246, Note_on_c, 0, 49, 35
1, 211263, Note_on_c, 0, 90, 47
1, 211284, Control_c, 0, 64, 99
1, 211298, Control_c, 0, 64, 85
1, 211313, Control_c, 0, 64, 81
1, 211328, Note_off_c, 0, 90, 43
1, 211328, Control_c, 0, 64, 83
1, 211343, Control_c, 0, 64, 89
1, 211355, Note_on_c, 0, 94, 53
1, 211358, Control_c, 0, 64, 102
1, 211367, Note_off_c, 0, 49, 38
1, 211373, Control_c, 0, 64, 127
1, 211435, Note_off_c, 0, 94, 60
1, 211447, Note_on_c, 0, 92, 43
1, 211477, Note_off_c, 0, 92, 56
1, 211495, Note_on_c, 0, 95, 58
1, 211553, Note_off_c, 0, 95, 63
1, 211563, Note_on_c, 0, 91, 54
1, 211599, Note_off_c, 0, 91, 56
1, 211604, Note_on_c, 0, 65, 33
1, 211621, Note_on_c, 0, 92, 61
1, 211661, Note_off_c, 0, 92, 63
1, 211686, Note_on_c, 0, 91, 63
1, 211706, Note_off_c, 0, 91, 62
1, 211733, Note_on_c, 0, 95, 62
1, 211775, Note_off_c, 0, 95, 60
1, 211778, Note_off_c, 0, 65, 33
1, 211792, Note_on_c, 0, 90, 66
1, 211826, Note_off_c, 0, 90, 59
1, 211843, Note_on_c, 0, 56, 34
1, 211856, Note_on_c, 0, 91, 69
1, 211903, Note_off_c, 0, 91, 60
1, 211915, Note_on_c, 0, 90, 72
1, 211942, Note_off_c, 0, 90, 65
1, 211963, Note_on_c, 0, 95, 66
1, 212001, Note_off_c, 0, 95, 59
1, 212026, Note_on_c, 0, 89, 68
1, 212052, Note_off_c, 0, 89, 67
1, 212070, Note_on_c, 0, 65, 46
1, 212079, Note_on_c, 0, 90, 54
1, 212112, Note_off_c, 0, 90, 66
1, 212128, Note_on_c, 0, 89, 64
1, 212169, Note_off_c, 0, 89, 63
1, 212193, Note_on_c, 0, 95, 70
1, 212230, Note_off_c, 0, 95, 57
1, 212253, Note_on_c, 0, 88, 74
1, 212279, Note_off_c, 0, 56, 34
1, 212294, Note_on_c, 0, 59, 43
1, 212298, Note_off_c, 0, 88, 60
1, 212325, Note_on_c, 0, 89, 68
1, 212361, Note_off_c, 0, 89, 60
1, 212377, Note_off_c, 0, 65, 39
1, 212378, Note_on_c, 0, 88, 65
1, 212404, Note_off_c, 0, 88, 68
1, 212412, Note_on_c, 0, 95, 67
1, 212436, Note_off_c, 0, 95, 65
1, 212493, Note_on_c, 0, 53, 39
1, 212493, Note_on_c, 0, 87, 71
1, 212528, Note_off_c, 0, 53, 57
1, 212542, Note_off_c, 0, 87, 59
1, 212551, Note_on_c, 0, 88, 64
1, 212579, Note_off_c, 0, 59, 41
1, 212604, Note_off_c, 0, 88, 65
1, 212617, Note_on_c, 0, 87, 59
1, 212640, Note_on_c, 0, 95, 68
1, 212669, Note_off_c, 0, 95, 60
1, 212694, Note_off_c, 0, 87, 62
1, 212710, Note_on_c, 0, 86, 67
1, 212723, Control_c, 0, 64, 93
1, 212734, Note_on_c, 0, 49, 45
1, 212738, Control_c, 0, 64, 84
1, 212753, Control_c, 0, 64, 85
1, 212768, Control_c, 0, 64, 92
1, 212768, Note_off_c, 0, 86, 62
1, 212777, Note_on_c, 0, 85, 76
1, 212783, Control_c, 0, 64, 106
1, 212797, Control_c, 0, 64, 127
1, 212797, Control_c, 0, 67, 112
1, 212804, Note_off_c, 0, 49, 50
1, 212812, Control_c, 0, 67, 89
1, 212827, Control_c, 0, 67, 68
1, 212829, Note_off_c, 0, 85, 63
1, 212839, Note_on_c, 0, 87, 66
1, 212842, Control_c, 0, 67, 48
1, 212857, Control_c, 0, 67, 28
1, 212871, Control_c, 0, 67, 0
1, 212886, Note_off_c, 0, 87, 63
1, 212890, Note_on_c, 0, 85, 69
1, 212931, Note_off_c, 0, 85, 59
1, 212935, Note_on_c, 0, 84, 60
1, 212984, Note_off_c, 0, 84, 58
1, 212991, Note_on_c, 0, 85, 67
1, 213045, Note_on_c, 0, 65, 33
1, 213045, Note_off_c, 0, 85, 66
1, 213063, Note_on_c, 0, 87, 55
1, 213084, Note_off_c, 0, 87, 60
1, 213111, Note_on_c, 0, 89, 67
1, 213173, Note_off_c, 0, 89, 56
1, 213185, Note_on_c, 0, 90, 63
1, 213244, Note_on_c, 0, 92, 57
1, 213254, Note_off_c, 0, 90, 57
1, 213274, Note_off_c, 0, 65, 41
1, 213289, Note_off_c, 0, 92, 64
1, 213304, Note_on_c, 0, 56, 32
1, 213304, Note_on_c, 0, 94, 55
1, 213330, Note_off_c, 0, 94, 66
1, 213382, Note_on_c, 0, 95, 44
1, 213444, Note_off_c, 0, 95, 40
1, 213473, Note_on_c, 0, 97, 56
1, 213602, Note_on_c, 0, 101, 65
1, 213608, Note_on_c, 0, 65, 35
1, 213612, Note_off_c, 0, 97, 42
1, 213782, Note_off_c, 0, 101, 57
1, 213796, Note_on_c, 0, 99, 54
1, 213883, Note_off_c, 0, 99, 58
1, 213904, Note_on_c, 0, 97, 44
1, 213920, Note_off_c, 0, 65, 37
1, 213945, Note_off_c, 0, 97, 54
1, 213996, Note_on_c, 0, 95, 32
1, 214022, Note_off_c, 0, 95, 54
1, 214045, Note_on_c, 0, 59, 32
1, 214109, Note_on_c, 0, 92, 44
1, 214169, Note_off_c, 0, 92, 49
1, 214202, Note_on_c, 0, 89, 37
1, 214255, Note_off_c, 0, 89, 45
1, 214273, Note_on_c, 0, 85, 54
1, 214299, Note_off_c, 0, 85, 58
1, 214358, Note_off_c, 0, 59, 40
1, 214363, Note_on_c, 0, 83, 51
1, 214391, Note_off_c, 0, 83, 60
1, 214416, Note_on_c, 0, 53, 31
1, 214474, Note_on_c, 0, 80, 51
1, 214490, Note_off_c, 0, 53, 53
1, 214564, Note_off_c, 0, 56, 10
1, 214569, Note_off_c, 0, 80, 50
1, 214580, Note_on_c, 0, 77, 44
1, 214670, Note_off_c, 0, 77, 60
1, 214696, Note_on_c, 0, 73, 44
1, 214790, Note_off_c, 0, 73, 51
1, 214838, Note_on_c, 0, 71, 45
1, 215034, Note_on_c, 0, 50, 25
1, 215044, Control_c, 0, 64, 109
1, 215050, Note_off_c, 0, 71, 33
1, 215059, Control_c, 0, 64, 93
1, 215073, Control_c, 0, 64, 78
1, 215081, Note_on_c, 0, 70, 45
1, 215088, Control_c, 0, 64, 65
1, 215103, Control_c, 0, 64, 51
1, 215117, Control_c, 0, 64, 34
1, 215132, Control_c, 0, 64, 0
1, 215155, Control_c, 0, 64, 32
1, 215170, Control_c, 0, 64, 45
1, 215185, Control_c, 0, 64, 61
1, 215199, Control_c, 0, 64, 71
1, 215214, Control_c, 0, 64, 81
1, 215229, Control_c, 0, 64, 94
1, 215244, Control_c, 0, 64, 112
1, 215244, Control_c, 0, 67, 22
1, 215254, Note_off_c, 0, 50, 41
1, 215259, Control_c, 0, 64, 127
1, 215259, Control_c, 0, 67, 30
1, 215273, Control_c, 0, 67, 39
1, 215288, Control_c, 0, 67, 49
1, 215303, Control_c, 0, 67, 59
1, 215318, Control_c, 0, 67, 70
1, 215332, Control_c, 0, 67, 82
1, 215347, Control_c, 0, 67, 94
1, 215362, Control_c, 0, 67, 109
1, 215377, Control_c, 0, 67, 123
1, 215392, Control_c, 0, 67, 127
1, 215519, Note_on_c, 0, 65, 25
1, 215781, Note_off_c, 0, 65, 39
1, 215795, Note_on_c, 0, 56, 29
1, 216061, Note_on_c, 0, 65, 32
1, 216118, Note_on_c, 0, 69, 21
1, 216127, Note_off_c, 0, 70, 32
1, 216364, Note_off_c, 0, 65, 32
1, 216366, Note_on_c, 0, 70, 38
1, 216437, Note_on_c, 0, 58, 25
1, 216568, Note_on_c, 0, 71, 44
1, 216625, Note_off_c, 0, 70, 38
1, 216769, Note_off_c, 0, 71, 52
1, 216773, Note_on_c, 0, 70, 49
1, 216872, Note_off_c, 0, 69, 20
1, 216897, Note_on_c, 0, 53, 20
1, 216979, Note_on_c, 0, 73, 44
1, 216997, Note_off_c, 0, 56, 34
1, 217065, Note_off_c, 0, 53, 40
1, 217068, Note_off_c, 0, 70, 30
1, 217196, Note_on_c, 0, 71, 35
1, 217379, Note_on_c, 0, 70, 40
1, 217448, Note_off_c, 0, 70, 52
1, 217474, Note_off_c, 0, 73, 31
1, 217480, Note_off_c, 0, 71, 39
1, 217498, Note_off_c, 0, 58, 32
1, 217579, Control_c, 0, 64, 118
1, 217581, Note_on_c, 0, 50, 28
1, 217594, Control_c, 0, 64, 109
1, 217609, Control_c, 0, 64, 99
1, 217624, Control_c, 0, 64, 90
1, 217639, Control_c, 0, 64, 79
1, 217643, Note_on_c, 0, 70, 36
1, 217653, Control_c, 0, 64, 70
1, 217668, Control_c, 0, 64, 61
1, 217683, Control_c, 0, 64, 53
1, 217698, Control_c, 0, 64, 54
1, 217712, Control_c, 0, 64, 59
1, 217727, Control_c, 0, 64, 67
1, 217742, Control_c, 0, 64, 76
1, 217757, Control_c, 0, 64, 89
1, 217772, Control_c, 0, 64, 102
1, 217786, Control_c, 0, 64, 117
1, 217801, Control_c, 0, 64, 127
1, 217805, Note_off_c, 0, 50, 42
1, 218090, Note_on_c, 0, 65, 29
1, 218224, Control_c, 0, 67, 121
1, 218239, Control_c, 0, 67, 118
1, 218298, Control_c, 0, 67, 116
1, 218385, Note_on_c, 0, 56, 30
1, 218417, Control_c, 0, 67, 114
1, 218428, Note_off_c, 0, 65, 35
1, 218431, Control_c, 0, 67, 111
1, 218446, Control_c, 0, 67, 102
1, 218461, Control_c, 0, 67, 91
1, 218476, Control_c, 0, 67, 80
1, 218491, Control_c, 0, 67, 71
1, 218506, Control_c, 0, 67, 66
1, 218521, Control_c, 0, 67, 63
1, 218536, Control_c, 0, 67, 60
1, 218550, Control_c, 0, 67, 56
1, 218565, Control_c, 0, 67, 50
1, 218580, Control_c, 0, 67, 42
1, 218595, Control_c, 0, 67, 30
1, 218610, Control_c, 0, 67, 0
1, 218669, Note_on_c, 0, 65, 24
1, 218679, Note_off_c, 0, 70, 0
1, 218715, Poly_aftertouch_c, 0, 70, 127
1, 218946, Note_off_c, 0, 65, 31
1, 219030, Note_on_c, 0, 82, 58
1, 219044, Note_on_c, 0, 58, 21
1, 219388, Note_on_c, 0, 53, 19
1, 219436, Poly_aftertouch_c, 0, 70, 0
1, 219446, Note_off_c, 0, 56, 25
1, 219466, Note_off_c, 0, 53, 40
1, 219698, Note_off_c, 0, 58, 31
1, 219755, Note_on_c, 0, 51, 30
1, 219767, Control_c, 0, 64, 112
1, 219782, Control_c, 0, 64, 91
1, 219797, Control_c, 0, 64, 76
1, 219801, Note_on_c, 0, 78, 39
1, 219812, Control_c, 0, 64, 65
1, 219827, Control_c, 0, 64, 59
1, 219841, Control_c, 0, 64, 63
1, 219856, Control_c, 0, 64, 71
1, 219871, Control_c, 0, 64, 86
1, 219886, Control_c, 0, 64, 127
1, 219925, Note_off_c, 0, 51, 38
1, 220210, Note_on_c, 0, 66, 29
1, 220512, Note_on_c, 0, 58, 20
1, 220528, Note_on_c, 0, 83, 62
1, 220545, Note_on_c, 0, 80, 42
1, 220619, Note_off_c, 0, 66, 30
1, 220664, Note_off_c, 0, 78, 35
1, 220739, Note_off_c, 0, 82, 24
1, 220869, Note_on_c, 0, 66, 32
1, 220960, Control_c, 0, 67, 20
1, 221021, Control_c, 0, 67, 22
1, 221065, Control_c, 0, 67, 24
1, 221094, Control_c, 0, 67, 26
1, 221109, Control_c, 0, 67, 28
1, 221124, Control_c, 0, 67, 31
1, 221137, Note_on_c, 0, 63, 33
1, 221145, Note_off_c, 0, 83, 32
1, 221147, Control_c, 0, 67, 32
1, 221162, Control_c, 0, 67, 34
1, 221176, Control_c, 0, 67, 36
1, 221186, Note_on_c, 0, 78, 56
1, 221189, Note_on_c, 0, 75, 42
1, 221191, Control_c, 0, 67, 40
1, 221206, Control_c, 0, 67, 45
1, 221218, Note_off_c, 0, 80, 37
1, 221221, Control_c, 0, 67, 50
1, 221236, Control_c, 0, 67, 55
1, 221242, Note_off_c, 0, 66, 27
1, 221250, Control_c, 0, 67, 59
1, 221265, Control_c, 0, 67, 63
1, 221280, Control_c, 0, 67, 68
1, 221294, Control_c, 0, 67, 71
1, 221309, Control_c, 0, 67, 75
1, 221324, Control_c, 0, 67, 78
1, 221335, Note_off_c, 0, 75, 24
1, 221339, Control_c, 0, 67, 81
1, 221346, Note_off_c, 0, 78, 55
1, 221354, Control_c, 0, 67, 83
1, 221368, Control_c, 0, 67, 86
1, 221383, Control_c, 0, 67, 88
1, 221398, Control_c, 0, 67, 90
1, 221412, Control_c, 0, 67, 92
1, 221413, Note_on_c, 0, 54, 37
1, 221427, Control_c, 0, 67, 93
1, 221439, Note_off_c, 0, 63, 39
1, 221442, Control_c, 0, 67, 94
1, 221464, Note_off_c, 0, 58, 37
1, 221467, Note_off_c, 0, 54, 58
1, 221472, Control_c, 0, 67, 95
1, 221487, Control_c, 0, 67, 96
1, 221502, Control_c, 0, 67, 98
1, 221528, Note_on_c, 0, 78, 62
1, 221532, Control_c, 0, 67, 100
1, 221549, Note_on_c, 0, 75, 34
1, 221611, Note_off_c, 0, 75, 37
1, 221627, Note_off_c, 0, 78, 55
1, 221669, Note_on_c, 0, 51, 44
1, 221694, Control_c, 0, 64, 101
1, 221709, Control_c, 0, 64, 81
1, 221724, Control_c, 0, 64, 66
1, 221739, Control_c, 0, 64, 61
1, 221746, Note_on_c, 0, 82, 64
1, 221754, Control_c, 0, 64, 64
1, 221757, Note_on_c, 0, 78, 38
1, 221768, Control_c, 0, 64, 71
1, 221783, Control_c, 0, 64, 85
1, 221788, Note_off_c, 0, 51, 56
1, 221798, Control_c, 0, 64, 110
1, 221814, Control_c, 0, 64, 127
1, 221955, Control_c, 0, 67, 98
1, 221999, Control_c, 0, 67, 96
1, 222014, Control_c, 0, 67, 95
1, 222015, Note_on_c, 0, 68, 45
1, 222029, Control_c, 0, 67, 94
1, 222043, Control_c, 0, 67, 93
1, 222058, Control_c, 0, 67, 92
1, 222073, Control_c, 0, 67, 90
1, 222088, Control_c, 0, 67, 89
1, 222103, Control_c, 0, 67, 87
1, 222117, Control_c, 0, 67, 86
1, 222131, Note_on_c, 0, 80, 60
1, 222132, Control_c, 0, 67, 85
1, 222147, Control_c, 0, 67, 85
1, 222149, Note_off_c, 0, 82, 58
1, 222158, Note_off_c, 0, 78, 42
1, 222162, Control_c, 0, 67, 84
1, 222177, Control_c, 0, 67, 84
1, 222179, Note_off_c, 0, 80, 56
1, 222184, Poly_aftertouch_c, 0, 77, 127
1, 222206, Control_c, 0, 67, 83
1, 222221, Control_c, 0, 67, 82
1, 222230, Note_off_c, 0, 68, 38
1, 222231, Poly_aftertouch_c, 0, 77, 0
1, 222235, Control_c, 0, 67, 77
1, 222250, Control_c, 0, 67, 71
1, 222265, Control_c, 0, 67, 66
1, 222277, Note_on_c, 0, 58, 29
1, 222280, Control_c, 0, 67, 60
1, 222293, Note_on_c, 0, 80, 57
1, 222295, Control_c, 0, 67, 53
1, 222310, Control_c, 0, 67, 47
1, 222313, Note_on_c, 0, 77, 41
1, 222325, Control_c, 0, 67, 42
1, 222334, Note_off_c, 0, 80, 61
1, 222339, Control_c, 0, 67, 36
1, 222354, Control_c, 0, 67, 27
1, 222356, Note_on_c, 0, 82, 68
1, 222369, Control_c, 0, 67, 0
1, 222418, Note_on_c, 0, 80, 72
1, 222422, Note_off_c, 0, 82, 57
1, 222546, Note_on_c, 0, 68, 39
1, 222644, Control_c, 0, 67, 19
1, 222646, Note_on_c, 0, 78, 68
1, 222650, Note_on_c, 0, 75, 39
1, 222660, Note_off_c, 0, 80, 57
1, 222661, Note_off_c, 0, 77, 40
1, 222688, Control_c, 0, 67, 22
1, 222718, Control_c, 0, 67, 24
1, 222748, Control_c, 0, 67, 27
1, 222763, Control_c, 0, 67, 29
1, 222781, Note_on_c, 0, 80, 74
1, 222788, Note_on_c, 0, 77, 47
1, 222793, Control_c, 0, 67, 32
1, 222799, Note_off_c, 0, 75, 23
1, 222807, Control_c, 0, 67, 35
1, 222816, Note_off_c, 0, 78, 58
1, 222822, Control_c, 0, 67, 39
1, 222837, Control_c, 0, 67, 43
1, 222852, Control_c, 0, 67, 48
1, 222866, Control_c, 0, 67, 52
1, 222881, Control_c, 0, 67, 56
1, 222890, Note_on_c, 0, 62, 30
1, 222896, Control_c, 0, 67, 60
1, 222911, Control_c, 0, 67, 66
1, 222917, Note_off_c, 0, 68, 42
1, 222926, Control_c, 0, 67, 72
1, 222940, Control_c, 0, 67, 78
1, 222955, Control_c, 0, 64, 114
1, 222955, Control_c, 0, 67, 83
1, 222970, Control_c, 0, 64, 95
1, 222970, Control_c, 0, 67, 88
1, 222985, Control_c, 0, 64, 81
1, 222985, Control_c, 0, 67, 92
1, 222986, Note_off_c, 0, 77, 32
1, 222993, Note_on_c, 0, 82, 66
1, 222999, Note_on_c, 0, 78, 38
1, 223000, Control_c, 0, 64, 67
1, 223000, Control_c, 0, 67, 96
1, 223014, Control_c, 0, 64, 42
1, 223014, Control_c, 0, 67, 100
1, 223024, Note_off_c, 0, 80, 61
1, 223029, Control_c, 0, 64, 0
1, 223029, Control_c, 0, 67, 103
1, 223044, Control_c, 0, 67, 106
1, 223058, Control_c, 0, 67, 109
1, 223088, Control_c, 0, 67, 111
1, 223103, Control_c, 0, 64, 46
1, 223118, Control_c, 0, 64, 60
1, 223126, Note_off_c, 0, 78, 34
1, 223132, Control_c, 0, 64, 67
1, 223147, Control_c, 0, 64, 75
1, 223162, Control_c, 0, 64, 87
1, 223177, Control_c, 0, 64, 101
1, 223192, Control_c, 0, 64, 127
1, 223213, Note_off_c, 0, 82, 50
1, 223281, Control_c, 0, 67, 109
1, 223311, Control_c, 0, 67, 107
1, 223347, Note_on_c, 0, 53, 25
1, 223365, Note_off_c, 0, 62, 39
1, 223370, Control_c, 0, 67, 105
1, 223405, Note_off_c, 0, 53, 57
1, 223423, Control_c, 0, 67, 103
1, 223439, Note_off_c, 0, 58, 23
1, 223515, Note_on_c, 0, 77, 57
1, 223550, Note_on_c, 0, 74, 28
1, 223607, Note_off_c, 0, 74, 43
1, 223614, Note_off_c, 0, 77, 52
1, 223615, Control_c, 0, 67, 101
1, 223689, Control_c, 0, 67, 99
1, 223719, Control_c, 0, 64, 96
1, 223719, Control_c, 0, 67, 97
1, 223722, Note_on_c, 0, 80, 64
1, 223728, Note_on_c, 0, 51, 33
1, 223732, Note_on_c, 0, 77, 37
1, 223734, Control_c, 0, 64, 82
1, 223749, Control_c, 0, 64, 72
1, 223749, Control_c, 0, 67, 96
1, 223763, Control_c, 0, 64, 63
1, 223763, Control_c, 0, 67, 95
1, 223778, Control_c, 0, 64, 57
1, 223778, Control_c, 0, 67, 94
1, 223793, Control_c, 0, 64, 57
1, 223793, Control_c, 0, 67, 92
1, 223807, Control_c, 0, 64, 63
1, 223807, Control_c, 0, 67, 87
1, 223822, Control_c, 0, 64, 71
1, 223822, Control_c, 0, 67, 79
1, 223837, Control_c, 0, 64, 80
1, 223837, Control_c, 0, 67, 72
1, 223852, Control_c, 0, 64, 91
1, 223852, Control_c, 0, 67, 65
1, 223867, Control_c, 0, 64, 100
1, 223867, Control_c, 0, 67, 57
1, 223878, Note_off_c, 0, 51, 42
1, 223881, Control_c, 0, 64, 112
1, 223881, Control_c, 0, 67, 49
1, 223896, Control_c, 0, 64, 127
1, 223896, Control_c, 0, 67, 42
1, 223911, Control_c, 0, 67, 34
1, 223926, Control_c, 0, 67, 24
1, 223941, Control_c, 0, 67, 0
1, 224155, Note_on_c, 0, 66, 31
1, 224445, Note_on_c, 0, 58, 23
1, 224501, Note_on_c, 0, 78, 43
1, 224506, Note_off_c, 0, 77, 36
1, 224507, Note_on_c, 0, 75, 30
1, 224512, Control_c, 0, 64, 99
1, 224527, Control_c, 0, 64, 85
1, 224533, Note_off_c, 0, 66, 33
1, 224542, Control_c, 0, 64, 74
1, 224543, Note_off_c, 0, 80, 29
1, 224557, Control_c, 0, 64, 70
1, 224572, Control_c, 0, 64, 72
1, 224586, Control_c, 0, 64, 76
1, 224601, Control_c, 0, 64, 83
1, 224616, Control_c, 0, 64, 93
1, 224630, Control_c, 0, 64, 103
1, 224645, Control_c, 0, 64, 123
1, 224660, Control_c, 0, 64, 127
1, 224694, Note_off_c, 0, 78, 52
1, 224731, Note_off_c, 0, 75, 36
1, 224800, Note_on_c, 0, 66, 29
1, 224973, Note_on_c, 0, 87, 70
1, 224975, Note_on_c, 0, 78, 59
1, 225187, Note_off_c, 0, 87, 57
1, 225219, Note_off_c, 0, 78, 39
1, 225234, Note_on_c, 0, 63, 39
1, 225322, Note_on_c, 0, 87, 64
1, 225327, Note_on_c, 0, 78, 57
1, 225431, Note_off_c, 0, 66, 32
1, 225531, Note_off_c, 0, 78, 33
1, 225632, Note_on_c, 0, 85, 64
1, 225641, Note_on_c, 0, 77, 50
1, 225688, Note_off_c, 0, 77, 54
1, 225693, Note_off_c, 0, 87, 42
1, 225714, Note_off_c, 0, 58, 33
1, 225762, Note_on_c, 0, 54, 33
1, 225772, Note_off_c, 0, 63, 34
1, 225833, Note_off_c, 0, 54, 41
1, 225889, Note_on_c, 0, 83, 65
1, 225903, Note_on_c, 0, 75, 41
1, 225924, Note_off_c, 0, 85, 61
1, 225952, Note_off_c, 0, 83, 62
1, 226039, Control_c, 0, 67, 19
1, 226069, Control_c, 0, 67, 24
1, 226128, Control_c, 0, 67, 28
1, 226143, Control_c, 0, 67, 31
1, 226172, Control_c, 0, 67, 32
1, 226187, Control_c, 0, 64, 106
1, 226201, Control_c, 0, 64, 91
1, 226201, Control_c, 0, 67, 33
1, 226206, Note_on_c, 0, 46, 36
1, 226216, Control_c, 0, 64, 79
1, 226216, Control_c, 0, 67, 36
1, 226224, Note_off_c, 0, 75, 31
1, 226231, Control_c, 0, 64, 69
1, 226231, Control_c, 0, 67, 40
1, 226238, Note_on_c, 0, 74, 45
1, 226241, Note_on_c, 0, 82, 52
1, 226246, Control_c, 0, 64, 60
1, 226246, Control_c, 0, 67, 42
1, 226261, Control_c, 0, 64, 51
1, 226261, Control_c, 0, 67, 46
1, 226275, Control_c, 0, 64, 50
1, 226275, Control_c, 0, 67, 52
1, 226290, Control_c, 0, 64, 58
1, 226290, Control_c, 0, 67, 58
1, 226305, Control_c, 0, 64, 66
1, 226305, Control_c, 0, 67, 62
1, 226320, Control_c, 0, 64, 73
1, 226320, Control_c, 0, 67, 67
1, 226335, Control_c, 0, 64, 82
1, 226335, Control_c, 0, 67, 72
1, 226349, Control_c, 0, 64, 93
1, 226349, Control_c, 0, 67, 76
1, 226364, Control_c, 0, 64, 104
1, 226364, Control_c, 0, 67, 81
1, 226387, Control_c, 0, 64, 121
1, 226387, Control_c, 0, 67, 85
1, 226398, Note_off_c, 0, 46, 47
1, 226402, Control_c, 0, 64, 127
1, 226402, Control_c, 0, 67, 86
1, 226411, Note_off_c, 0, 82, 46
1, 226416, Control_c, 0, 67, 89
1, 226431, Control_c, 0, 67, 92
1, 226446, Control_c, 0, 67, 95
1, 226461, Control_c, 0, 67, 99
1, 226476, Control_c, 0, 67, 102
1, 226615, Note_on_c, 0, 82, 46
1, 226616, Note_on_c, 0, 70, 44
1, 226639, Control_c, 0, 67, 99
1, 226669, Control_c, 0, 67, 97
1, 226684, Control_c, 0, 67, 96
1, 226699, Control_c, 0, 67, 94
1, 226713, Control_c, 0, 67, 93
1, 226728, Control_c, 0, 67, 91
1, 226743, Control_c, 0, 67, 89
1, 226758, Control_c, 0, 67, 87
1, 226772, Control_c, 0, 67, 82
1, 226778, Note_on_c, 0, 68, 44
1, 226787, Control_c, 0, 67, 75
1, 226791, Note_off_c, 0, 82, 42
1, 226802, Note_off_c, 0, 70, 40
1, 226802, Control_c, 0, 67, 65
1, 226817, Control_c, 0, 67, 53
1, 226832, Control_c, 0, 67, 38
1, 226847, Control_c, 0, 67, 22
1, 226861, Control_c, 0, 67, 0
1, 226901, Note_on_c, 0, 71, 56
1, 226902, Note_on_c, 0, 82, 59
1, 226976, Note_off_c, 0, 71, 56
1, 226997, Note_off_c, 0, 82, 55
1, 227019, Note_off_c, 0, 74, 39
1, 227058, Note_on_c, 0, 58, 34
1, 227114, Note_off_c, 0, 68, 36
1, 227141, Note_on_c, 0, 82, 57
1, 227142, Note_on_c, 0, 72, 57
1, 227238, Note_off_c, 0, 82, 51
1, 227349, Note_on_c, 0, 73, 57
1, 227351, Note_on_c, 0, 82, 68
1, 227380, Note_off_c, 0, 72, 37
1, 227405, Note_on_c, 0, 68, 49
1, 227433, Note_off_c, 0, 82, 59
1, 227457, Note_off_c, 0, 73, 39
1, 227522, Note_on_c, 0, 74, 68
1, 227527, Note_on_c, 0, 82, 70
1, 227605, Note_off_c, 0, 82, 57
1, 227681, Note_on_c, 0, 62, 45
1, 227705, Note_on_c, 0, 75, 61
1, 227706, Note_on_c, 0, 82, 70
1, 227734, Note_off_c, 0, 68, 37
1, 227743, Note_off_c, 0, 74, 23
1, 227798, Note_off_c, 0, 82, 60
1, 227833, Note_off_c, 0, 75, 54
1, 227900, Note_on_c, 0, 76, 72
1, 227901, Note_on_c, 0, 82, 78
1, 228042, Note_off_c, 0, 82, 54
1, 228054, Note_on_c, 0, 53, 59
1, 228093, Note_off_c, 0, 76, 53
1, 228095, Note_off_c, 0, 62, 52
1, 228107, Note_off_c, 0, 58, 41
1, 228156, Note_on_c, 0, 82, 81
1, 228160, Note_on_c, 0, 77, 71
1, 228165, Note_off_c, 0, 53, 60
1, 228347, Note_off_c, 0, 77, 61
1, 228368, Note_off_c, 0, 82, 59
1, 228440, Note_on_c, 0, 39, 63
1, 228463, Control_c, 0, 67, 19
1, 228482, Note_on_c, 0, 82, 82
1, 228486, Note_on_c, 0, 78, 72
1, 228492, Control_c, 0, 64, 86
1, 228507, Control_c, 0, 64, 62
1, 228522, Control_c, 0, 64, 0
1, 228581, Control_c, 0, 67, 0
1, 228596, Control_c, 0, 64, 54
1, 228611, Control_c, 0, 64, 67
1, 228633, Control_c, 0, 64, 80
1, 228648, Control_c, 0, 64, 127
1, 228650, Note_off_c, 0, 39, 60
1, 228968, Note_on_c, 0, 66, 56
1, 229318, Note_on_c, 0, 58, 42
1, 229328, Note_on_c, 0, 83, 78
1, 229339, Note_on_c, 0, 80, 63
1, 229471, Note_off_c, 0, 66, 48
1, 229643, Note_off_c, 0, 82, 26
1, 229757, Note_on_c, 0, 66, 46
1, 230006, Note_on_c, 0, 63, 52
1, 230015, Note_off_c, 0, 78, 4
1, 230037, Note_off_c, 0, 83, 29
1, 230081, Note_off_c, 0, 66, 47
1, 230260, Note_on_c, 0, 54, 44
1, 230313, Note_off_c, 0, 63, 52
1, 230321, Note_on_c, 0, 78, 79
1, 230330, Note_on_c, 0, 75, 56
1, 230372, Note_off_c, 0, 54, 62
1, 230374, Note_off_c, 0, 58, 41
1, 230374, Note_off_c, 0, 80, 45
1, 230430, Note_off_c, 0, 75, 58
1, 230456, Note_off_c, 0, 78, 60
1, 230521, Note_on_c, 0, 78, 70
1, 230537, Note_on_c, 0, 75, 52
1, 230579, Note_on_c, 0, 51, 49
1, 230592, Note_off_c, 0, 78, 60
1, 230605, Note_off_c, 0, 75, 37
1, 230636, Control_c, 0, 64, 99
1, 230651, Control_c, 0, 64, 79
1, 230665, Control_c, 0, 64, 66
1, 230671, Note_on_c, 0, 82, 76
1, 230671, Note_on_c, 0, 78, 52
1, 230680, Control_c, 0, 64, 59
1, 230695, Control_c, 0, 64, 62
1, 230710, Control_c, 0, 64, 72
1, 230725, Control_c, 0, 64, 89
1, 230740, Control_c, 0, 64, 127
1, 230764, Note_off_c, 0, 51, 56
1, 230965, Note_on_c, 0, 68, 55
1, 231062, Note_on_c, 0, 80, 71
1, 231063, Note_off_c, 0, 78, 56
1, 231068, Note_on_c, 0, 77, 46
1, 231080, Note_off_c, 0, 82, 60
1, 231113, Note_off_c, 0, 77, 58
1, 231115, Note_off_c, 0, 80, 63
1, 231148, Note_off_c, 0, 68, 43
1, 231170, Note_on_c, 0, 58, 43
1, 231211, Note_on_c, 0, 80, 71
1, 231213, Note_on_c, 0, 77, 57
1, 231261, Note_off_c, 0, 80, 62
1, 231269, Note_on_c, 0, 82, 71
1, 231329, Note_on_c, 0, 80, 77
1, 231357, Note_off_c, 0, 82, 62
1, 231470, Note_on_c, 0, 68, 54
1, 231496, Note_off_c, 0, 77, 25
1, 231557, Note_on_c, 0, 78, 74
1, 231565, Note_on_c, 0, 75, 53
1, 231586, Note_off_c, 0, 80, 61
1, 231642, Note_off_c, 0, 75, 60
1, 231704, Note_on_c, 0, 77, 66
1, 231705, Note_on_c, 0, 80, 78
1, 231736, Note_off_c, 0, 78, 56
1, 231762, Note_off_c, 0, 77, 61
1, 231779, Note_off_c, 0, 80, 63
1, 231799, Note_on_c, 0, 62, 50
1, 231821, Note_off_c, 0, 68, 44
1, 231854, Note_on_c, 0, 80, 74
1, 231865, Note_on_c, 0, 77, 59
1, 231896, Control_c, 0, 64, 92
1, 231911, Control_c, 0, 64, 75
1, 231926, Control_c, 0, 64, 65
1, 231940, Control_c, 0, 64, 61
1, 231955, Control_c, 0, 64, 64
1, 231970, Control_c, 0, 64, 70
1, 231985, Control_c, 0, 64, 81
1, 232000, Control_c, 0, 64, 102
1, 232015, Control_c, 0, 64, 127
1, 232057, Note_on_c, 0, 78, 56
1, 232061, Note_on_c, 0, 82, 74
1, 232128, Note_off_c, 0, 80, 56
1, 232184, Note_off_c, 0, 77, 28
1, 232185, Note_off_c, 0, 58, 11
1, 232247, Note_off_c, 0, 78, 34
1, 232259, Note_off_c, 0, 62, 36
1, 232270, Note_on_c, 0, 53, 51
1, 232280, Note_off_c, 0, 82, 53
1, 232317, Note_off_c, 0, 53, 62
1, 232442, Note_on_c, 0, 77, 78
1, 232456, Note_on_c, 0, 74, 67
1, 232567, Note_off_c, 0, 74, 52
1, 232573, Note_off_c, 0, 77, 58
1, 232588, Note_on_c, 0, 51, 60
1, 232630, Control_c, 0, 64, 121
1, 232633, Note_on_c, 0, 80, 84
1, 232639, Note_on_c, 0, 77, 60
1, 232644, Control_c, 0, 64, 82
1, 232659, Control_c, 0, 64, 62
1, 232674, Control_c, 0, 64, 0
1, 232719, Control_c, 0, 64, 39
1, 232734, Control_c, 0, 64, 64
1, 232749, Control_c, 0, 64, 80
1, 232758, Note_off_c, 0, 77, 0
1, 232758, Note_on_c, 0, 77, 14
1, 232763, Control_c, 0, 64, 105
1, 232778, Control_c, 0, 64, 127
1, 232789, Note_off_c, 0, 51, 59
1, 232991, Note_on_c, 0, 66, 62
1, 233046, Control_c, 0, 67, 19
1, 233061, Control_c, 0, 67, 21
1, 233075, Control_c, 0, 67, 23
1, 233090, Control_c, 0, 67, 26
1, 233127, Control_c, 0, 67, 28
1, 233231, Control_c, 0, 67, 26
1, 233261, Control_c, 0, 67, 24
1, 233298, Note_on_c, 0, 78, 73
1, 233307, Note_on_c, 0, 75, 45
1, 233312, Note_on_c, 0, 58, 46
1, 233334, Control_c, 0, 64, 87
1, 233349, Control_c, 0, 64, 64
1, 233364, Control_c, 0, 64, 32
1, 233379, Control_c, 0, 64, 0
1, 233382, Note_off_c, 0, 80, 58
1, 233393, Control_c, 0, 67, 22
1, 233399, Note_off_c, 0, 66, 44
1, 233402, Note_off_c, 0, 77, 45
1, 233408, Control_c, 0, 64, 43
1, 233423, Control_c, 0, 64, 62
1, 233423, Control_c, 0, 67, 19
1, 233438, Control_c, 0, 64, 76
1, 233438, Control_c, 0, 67, 0
1, 233453, Control_c, 0, 64, 107
1, 233467, Control_c, 0, 64, 127
1, 233524, Note_off_c, 0, 75, 35
1, 233558, Note_off_c, 0, 78, 56
1, 233611, Note_on_c, 0, 66, 64
1, 233977, Note_on_c, 0, 90, 88
1, 233983, Note_on_c, 0, 82, 73
1, 233992, Note_on_c, 0, 63, 59
1, 234216, Control_c, 0, 67, 19
1, 234265, Note_off_c, 0, 66, 57
1, 234273, Note_off_c, 0, 58, 38
1, 234275, Control_c, 0, 67, 22
1, 234418, Note_on_c, 0, 54, 76
1, 234424, Control_c, 0, 67, 24
1, 234457, Note_off_c, 0, 63, 58
1, 234499, Control_c, 0, 67, 26
1, 234528, Note_off_c, 0, 54, 61
1, 234528, Control_c, 0, 67, 29
1, 234558, Control_c, 0, 67, 31
1, 234573, Control_c, 0, 67, 32
1, 234588, Control_c, 0, 67, 33
1, 234603, Control_c, 0, 67, 34
1, 234626, Control_c, 0, 67, 34
1, 234655, Control_c, 0, 67, 35
1, 234744, Control_c, 0, 67, 34
1, 234759, Control_c, 0, 67, 34
1, 234824, Note_on_c, 0, 42, 81
1, 234877, Control_c, 0, 64, 100
1, 234892, Control_c, 0, 64, 76
1, 234892, Control_c, 0, 67, 33
1, 234907, Control_c, 0, 64, 65
1, 234922, Control_c, 0, 64, 60
1, 234937, Control_c, 0, 64, 63
1, 234952, Control_c, 0, 64, 71
1, 234966, Control_c, 0, 64, 88
1, 234981, Control_c, 0, 64, 127
1, 235040, Control_c, 0, 67, 33
1, 235055, Control_c, 0, 67, 32
1, 235070, Control_c, 0, 67, 32
1, 235078, Note_off_c, 0, 42, 61
1, 235190, Note_off_c, 0, 90, 40
1, 235253, Note_off_c, 0, 82, 42
1, 235277, Control_c, 0, 67, 30
1, 235336, Control_c, 0, 67, 28
1, 235350, Note_on_c, 0, 63, 64
1, 235419, Control_c, 0, 67, 26
1, 235421, Note_on_c, 0, 89, 83
1, 235427, Note_on_c, 0, 80, 72
1, 235463, Control_c, 0, 67, 24
1, 235567, Control_c, 0, 67, 22
1, 235578, Poly_aftertouch_c, 0, 56, 127
1, 235596, Control_c, 0, 67, 0
1, 235795, Note_off_c, 0, 80, 61
1, 235816, Note_on_c, 0, 54, 54
1, 235888, Note_on_c, 0, 87, 82
1, 235891, Note_on_c, 0, 78, 68
1, 235963, Note_off_c, 0, 89, 41
1, 236082, Poly_aftertouch_c, 0, 56, 0
1, 236082, Note_off_c, 0, 63, 32
1, 236115, Note_off_c, 0, 78, 54
1, 236248, Note_on_c, 0, 85, 81
1, 236252, Note_on_c, 0, 77, 65
1, 236308, Note_off_c, 0, 87, 55
1, 236342, Note_off_c, 0, 77, 60
1, 236399, Note_off_c, 0, 85, 61
1, 236406, Note_on_c, 0, 63, 54
1, 236503, Note_on_c, 0, 84, 84
1, 236508, Note_on_c, 0, 75, 74
1, 236583, Note_off_c, 0, 84, 60
1, 236602, Note_off_c, 0, 75, 45
1, 236691, Note_on_c, 0, 58, 51
1, 236740, Note_on_c, 0, 82, 83
1, 236751, Note_on_c, 0, 73, 65
1, 236811, Note_off_c, 0, 63, 34
1, 236886, Note_off_c, 0, 82, 60
1, 236893, Note_off_c, 0, 73, 59
1, 237015, Note_on_c, 0, 80, 80
1, 237028, Note_on_c, 0, 72, 68
1, 237094, Note_off_c, 0, 72, 57
1, 237132, Note_on_c, 0, 51, 55
1, 237138, Note_off_c, 0, 80, 61
1, 237198, Note_off_c, 0, 58, 59
1, 237220, Note_off_c, 0, 54, 38
1, 237226, Note_off_c, 0, 51, 61
1, 237228, Note_on_c, 0, 78, 82
1, 237247, Note_on_c, 0, 70, 68
1, 237354, Note_off_c, 0, 70, 52
1, 237453, Note_on_c, 0, 44, 54
1, 237481, Note_on_c, 0, 77, 73
1, 237488, Note_on_c, 0, 68, 70
1, 237494, Control_c, 0, 64, 94
1, 237509, Control_c, 0, 64, 71
1, 237524, Control_c, 0, 64, 52
1, 237535, Note_off_c, 0, 78, 57
1, 237539, Control_c, 0, 64, 0
1, 237568, Control_c, 0, 64, 45
1, 237583, Control_c, 0, 64, 64
1, 237598, Control_c, 0, 64, 77
1, 237620, Control_c, 0, 64, 94
1, 237634, Control_c, 0, 64, 127
1, 237646, Note_off_c, 0, 44, 54
1, 237843, Note_on_c, 0, 61, 59
1, 238003, Note_off_c, 0, 68, 39
1, 238107, Note_on_c, 0, 53, 45
1, 238132, Note_on_c, 0, 78, 85
1, 238141, Note_on_c, 0, 70, 65
1, 238216, Note_off_c, 0, 61, 47
1, 238271, Note_off_c, 0, 77, 39
1, 238426, Note_on_c, 0, 61, 56
1, 238544, Note_off_c, 0, 70, 37
1, 238642, Note_off_c, 0, 61, 48
1, 238652, Note_on_c, 0, 77, 80
1, 238661, Note_on_c, 0, 68, 71
1, 238665, Note_on_c, 0, 56, 52
1, 238720, Note_off_c, 0, 53, 58
1, 238739, Note_off_c, 0, 78, 38
1, 238744, Note_off_c, 0, 56, 58
1, 238912, Note_on_c, 0, 44, 71
1, 239006, Note_off_c, 0, 44, 61
1, 239020, Note_off_c, 0, 68, 54
1, 239152, Note_on_c, 0, 75, 80
1, 239155, Note_on_c, 0, 46, 75
1, 239170, Note_on_c, 0, 66, 61
1, 239190, Control_c, 0, 64, 108
1, 239194, Note_off_c, 0, 77, 57
1, 239205, Control_c, 0, 64, 78
1, 239220, Control_c, 0, 64, 53
1, 239235, Control_c, 0, 64, 0
1, 239294, Control_c, 0, 64, 48
1, 239309, Control_c, 0, 64, 66
1, 239320, Note_off_c, 0, 46, 63
1, 239324, Control_c, 0, 64, 79
1, 239338, Control_c, 0, 64, 99
1, 239353, Control_c, 0, 64, 127
1, 239412, Note_on_c, 0, 61, 68
1, 239489, Note_off_c, 0, 66, 54
1, 239628, Note_on_c, 0, 73, 88
1, 239638, Note_on_c, 0, 65, 65
1, 239644, Note_on_c, 0, 53, 58
1, 239682, Note_off_c, 0, 75, 63
1, 239718, Note_off_c, 0, 61, 55
1, 239856, Note_off_c, 0, 65, 59
1, 239883, Note_on_c, 0, 61, 64
1, 240017, Note_off_c, 0, 61, 57
1, 240140, Note_on_c, 0, 65, 85
1, 240141, Note_on_c, 0, 58, 54
1, 240145, Note_on_c, 0, 61, 67
1, 240236, Note_off_c, 0, 58, 62
1, 240240, Note_off_c, 0, 53, 54
1, 240266, Note_off_c, 0, 73, 59
1, 240382, Note_off_c, 0, 61, 40
1, 240438, Note_on_c, 0, 46, 75
1, 240541, Note_off_c, 0, 46, 61
1, 240759, Note_on_c, 0, 68, 85
1, 240768, Note_on_c, 0, 41, 69
1, 240778, Note_on_c, 0, 61, 59
1, 240851, Control_c, 0, 64, 82
1, 240865, Note_off_c, 0, 65, 58
1, 240866, Control_c, 0, 64, 56
1, 240881, Control_c, 0, 64, 0
1, 240940, Control_c, 0, 64, 46
1, 240955, Control_c, 0, 64, 70
1, 240970, Control_c, 0, 64, 89
1, 240986, Control_c, 0, 64, 127
1, 241006, Note_off_c, 0, 41, 56
1, 241153, Note_on_c, 0, 56, 60
1, 241189, Note_off_c, 0, 61, 48
1, 241331, Note_off_c, 0, 68, 58
1, 241408, Note_on_c, 0, 49, 59
1, 241497, Note_off_c, 0, 56, 49
1, 241631, Note_on_c, 0, 56, 69
1, 241707, Note_off_c, 0, 49, 58
1, 241854, Note_on_c, 0, 49, 62
1, 241885, Note_off_c, 0, 56, 58
1, 242070, Note_on_c, 0, 41, 70
1, 242192, Note_off_c, 0, 41, 61
1, 242320, Note_on_c, 0, 70, 88
1, 242331, Note_on_c, 0, 42, 71
1, 242334, Note_on_c, 0, 63, 66
1, 242338, Note_on_c, 0, 61, 62
1, 242379, Control_c, 0, 64, 88
1, 242394, Control_c, 0, 64, 62
1, 242408, Control_c, 0, 64, 0
1, 242452, Note_off_c, 0, 49, 39
1, 242468, Control_c, 0, 64, 43
1, 242482, Control_c, 0, 64, 67
1, 242489, Note_off_c, 0, 42, 58
1, 242497, Control_c, 0, 64, 82
1, 242512, Control_c, 0, 64, 126
1, 242656, Note_on_c, 0, 58, 68
1, 242778, Note_off_c, 0, 61, 37
1, 242881, Note_off_c, 0, 58, 54
1, 242902, Note_on_c, 0, 49, 69
1, 243025, Note_off_c, 0, 70, 54
1, 243116, Note_on_c, 0, 58, 71
1, 243147, Note_off_c, 0, 63, 53
1, 243276, Note_off_c, 0, 58, 61
1, 243355, Note_on_c, 0, 51, 73
1, 243400, Note_off_c, 0, 49, 51
1, 243650, Note_on_c, 0, 42, 84
1, 243691, Note_off_c, 0, 51, 29
1, 243737, Note_off_c, 0, 42, 62
1, 244007, Note_on_c, 0, 63, 92
1, 244010, Note_on_c, 0, 32, 90
1, 244014, Note_on_c, 0, 56, 84
1, 244021, Note_on_c, 0, 61, 76
1, 244040, Control_c, 0, 64, 79
1, 244054, Control_c, 0, 64, 35
1, 244069, Control_c, 0, 64, 0
1, 244143, Control_c, 0, 64, 55
1, 244158, Control_c, 0, 64, 69
1, 244174, Control_c, 0, 64, 85
1, 244189, Control_c, 0, 64, 127
1, 244200, Note_off_c, 0, 32, 57
1, 244303, Note_off_c, 0, 61, 33
1, 244305, Note_off_c, 0, 56, 46
1, 244742, Note_on_c, 0, 61, 52
1, 245045, Note_on_c, 0, 51, 60
1, 245155, Note_off_c, 0, 61, 51
1, 245294, Note_on_c, 0, 61, 65
1, 245345, Note_off_c, 0, 63, 56
1, 245488, Note_on_c, 0, 56, 62
1, 245531, Note_on_c, 0, 68, 62
1, 245540, Note_off_c, 0, 51, 58
1, 245576, Note_off_c, 0, 61, 35
1, 245608, Note_off_c, 0, 68, 63
1, 245618, Note_on_c, 0, 73, 60
1, 245645, Note_off_c, 0, 73, 65
1, 245725, Note_on_c, 0, 75, 51
1, 245749, Note_on_c, 0, 51, 57
1, 245789, Note_off_c, 0, 75, 56
1, 245790, Note_off_c, 0, 56, 58
1, 245791, Note_on_c, 0, 80, 72
1, 245829, Note_off_c, 0, 51, 60
1, 245861, Note_on_c, 0, 85, 74
1, 245862, Note_off_c, 0, 80, 64
1, 245884, Note_off_c, 0, 85, 70
1, 245952, Note_on_c, 0, 87, 75
1, 246019, Note_on_c, 0, 92, 76
1, 246075, Note_on_c, 0, 97, 81
1, 246127, Note_on_c, 0, 44, 66
1, 246128, Note_on_c, 0, 99, 93
1, 246199, Note_off_c, 0, 44, 62
1, 246252, Note_off_c, 0, 97, 58
1, 246446, Note_off_c, 0, 92, 33
1, 246456, Note_off_c, 0, 87, 49
1, 246577, Note_on_c, 0, 61, 51
1, 246848, Note_on_c, 0, 51, 48
1, 246933, Note_off_c, 0, 61, 36
1, 247014, Note_on_c, 0, 97, 88
1, 247111, Note_off_c, 0, 99, 36
1, 247166, Note_on_c, 0, 61, 52
1, 247269, Note_on_c, 0, 92, 87
1, 247286, Note_off_c, 0, 97, 62
1, 247430, Note_off_c, 0, 92, 63
1, 247435, Note_on_c, 0, 87, 81
1, 247490, Note_off_c, 0, 87, 63
1, 247490, Note_off_c, 0, 61, 36
1, 247515, Note_on_c, 0, 56, 51
1, 247551, Note_off_c, 0, 51, 41
1, 247563, Note_on_c, 0, 85, 83
1, 247678, Note_on_c, 0, 80, 80
1, 247680, Note_off_c, 0, 85, 64
1, 247755, Note_off_c, 0, 80, 62
1, 247758, Note_off_c, 0, 56, 57
1, 247767, Note_on_c, 0, 51, 46
1, 247787, Note_on_c, 0, 75, 72
1, 247807, Note_off_c, 0, 51, 63
1, 247838, Note_off_c, 0, 75, 62
1, 247902, Note_on_c, 0, 73, 79
1, 248012, Note_on_c, 0, 68, 84
1, 248038, Note_off_c, 0, 73, 60
1, 248133, Note_off_c, 0, 68, 61
1, 248134, Note_on_c, 0, 32, 63
1, 248178, Control_c, 0, 64, 110
1, 248193, Control_c, 0, 64, 75
1, 248193, Note_on_c, 0, 63, 82
1, 248208, Control_c, 0, 64, 54
1, 248223, Control_c, 0, 64, 0
1, 248252, Control_c, 0, 64, 46
1, 248267, Control_c, 0, 64, 67
1, 248282, Note_off_c, 0, 32, 61
1, 248282, Control_c, 0, 64, 78
1, 248297, Control_c, 0, 64, 100
1, 248312, Control_c, 0, 64, 127
1, 248649, Note_on_c, 0, 61, 47
1, 248866, Note_off_c, 0, 63, 35
1, 248926, Note_on_c, 0, 51, 44
1, 248986, Note_off_c, 0, 61, 37
1, 249181, Note_on_c, 0, 61, 44
1, 249399, Note_off_c, 0, 61, 32
1, 249427, Note_on_c, 0, 54, 52
1, 249492, Note_off_c, 0, 51, 56
1, 249701, Note_on_c, 0, 51, 59
1, 250083, Note_on_c, 0, 68, 71
1, 250083, Note_on_c, 0, 65, 69
1, 250088, Note_on_c, 0, 56, 60
1, 250094, Note_on_c, 0, 44, 55
1, 250165, Control_c, 0, 64, 94
1, 250180, Control_c, 0, 64, 76
1, 250195, Control_c, 0, 64, 61
1, 250206, Note_off_c, 0, 51, 49
1, 250209, Control_c, 0, 64, 36
1, 250224, Control_c, 0, 64, 0
1, 250298, Control_c, 0, 64, 47
1, 250313, Control_c, 0, 64, 64
1, 250328, Control_c, 0, 64, 75
1, 250350, Control_c, 0, 64, 86
1, 250356, Note_off_c, 0, 44, 61
1, 250365, Control_c, 0, 64, 99
1, 250370, Note_off_c, 0, 54, 0
1, 250380, Control_c, 0, 64, 114
1, 250395, Control_c, 0, 64, 127
1, 250408, Poly_aftertouch_c, 0, 54, 127
1, 250500, Note_off_c, 0, 68, 38
1, 250664, Note_on_c, 0, 60, 41
1, 250937, Note_on_c, 0, 51, 38
1, 250994, Poly_aftertouch_c, 0, 54, 0
1, 251052, Note_off_c, 0, 60, 43
1, 251293, Note_on_c, 0, 60, 35
1, 251346, Note_on_c, 0, 63, 66
1, 251484, Note_off_c, 0, 65, 59
1, 251544, Note_off_c, 0, 56, 1
1, 251691, Note_on_c, 0, 54, 44
1, 251818, Note_on_c, 0, 65, 67
1, 251849, Note_off_c, 0, 60, 38
1, 251924, Note_off_c, 0, 63, 58
1, 252312, Note_on_c, 0, 63, 67
1, 252457, Note_on_c, 0, 44, 41
1, 252497, Note_off_c, 0, 54, 36
1, 252499, Note_off_c, 0, 51, 37
1, 252527, Note_off_c, 0, 44, 53
1, 252695, Note_on_c, 0, 61, 67
1, 252843, Note_off_c, 0, 63, 37
1, 253123, Note_on_c, 0, 37, 38
1, 253126, Note_off_c, 0, 61, 57
1, 253219, Note_on_c, 0, 61, 69
1, 253233, Control_c, 0, 64, 111
1, 253248, Control_c, 0, 64, 99
1, 253263, Control_c, 0, 64, 88
1, 253277, Control_c, 0, 64, 75
1, 253292, Control_c, 0, 64, 63
1, 253307, Control_c, 0, 64, 43
1, 253322, Control_c, 0, 64, 0
1, 253403, Control_c, 0, 64, 55
1, 253418, Control_c, 0, 64, 67
1, 253429, Note_off_c, 0, 65, 46
1, 253433, Control_c, 0, 64, 75
1, 253448, Control_c, 0, 64, 86
1, 253463, Control_c, 0, 64, 108
1, 253478, Control_c, 0, 64, 127
1, 253565, Note_off_c, 0, 37, 39
1, 253640, Control_c, 0, 67, 19
1, 253655, Control_c, 0, 67, 22
1, 253670, Control_c, 0, 67, 25
1, 253684, Control_c, 0, 67, 28
1, 253699, Control_c, 0, 67, 30
1, 253714, Control_c, 0, 67, 35
1, 253729, Control_c, 0, 67, 41
1, 253744, Control_c, 0, 67, 47
1, 253760, Control_c, 0, 67, 52
1, 253775, Control_c, 0, 67, 56
1, 253789, Control_c, 0, 67, 60
1, 253804, Control_c, 0, 67, 61
1, 253819, Control_c, 0, 67, 63
1, 253833, Control_c, 0, 67, 64
1, 253911, Note_on_c, 0, 65, 46
1, 254012, Control_c, 0, 67, 63
1, 254056, Control_c, 0, 67, 64
1, 254107, Control_c, 0, 67, 63
1, 254122, Control_c, 0, 67, 63
1, 254137, Control_c, 0, 67, 62
1, 254152, Control_c, 0, 67, 62
1, 254196, Control_c, 0, 67, 62
1, 254211, Control_c, 0, 67, 63
1, 254319, Note_on_c, 0, 56, 31
1, 254345, Control_c, 0, 67, 63
1, 254360, Control_c, 0, 67, 64
1, 254372, Note_off_c, 0, 61, 38
1, 254409, Note_off_c, 0, 65, 36
1, 254463, Control_c, 0, 67, 64
1, 254478, Control_c, 0, 67, 65
1, 254493, Control_c, 0, 67, 65
1, 254568, Control_c, 0, 67, 66
1, 254583, Control_c, 0, 67, 66
1, 254598, Control_c, 0, 67, 71
1, 254610, Note_on_c, 0, 65, 33
1, 254612, Control_c, 0, 67, 82
1, 254627, Control_c, 0, 67, 92
1, 254642, Control_c, 0, 67, 99
1, 254656, Control_c, 0, 67, 103
1, 254671, Control_c, 0, 67, 107
1, 254686, Control_c, 0, 67, 110
1, 254701, Control_c, 0, 67, 115
1, 254716, Control_c, 0, 67, 118
1, 254745, Control_c, 0, 67, 121
1, 254890, Note_on_c, 0, 61, 25
1, 254931, Control_c, 0, 67, 123
1, 254960, Control_c, 0, 67, 126
1, 255128, Note_off_c, 0, 65, 35
1, 255159, Note_on_c, 0, 53, 25
1, 255207, Note_off_c, 0, 61, 32
1, 255216, Note_off_c, 0, 53, 50
1, 255248, Note_off_c, 0, 56, 37
1, 255638, Note_on_c, 0, 85, 61
1, 255649, Note_on_c, 0, 49, 35
1, 255681, Control_c, 0, 64, 102
1, 255695, Control_c, 0, 64, 87
1, 255710, Control_c, 0, 64, 75
1, 255725, Control_c, 0, 64, 64
1, 255740, Control_c, 0, 64, 56
1, 255755, Control_c, 0, 64, 52
1, 255769, Control_c, 0, 64, 56
1, 255784, Control_c, 0, 64, 63
1, 255799, Control_c, 0, 64, 71
1, 255813, Control_c, 0, 64, 80
1, 255828, Control_c, 0, 64, 95
1, 255843, Control_c, 0, 64, 111
1, 255858, Control_c, 0, 64, 127
1, 255873, Note_off_c, 0, 49, 44
1, 256118, Note_on_c, 0, 64, 22
1, 256200, Control_c, 0, 67, 119
1, 256214, Control_c, 0, 67, 108
1, 256229, Control_c, 0, 67, 92
1, 256244, Control_c, 0, 67, 77
1, 256259, Control_c, 0, 67, 63
1, 256274, Control_c, 0, 67, 51
1, 256289, Control_c, 0, 67, 39
1, 256303, Control_c, 0, 67, 26
1, 256318, Control_c, 0, 67, 0
1, 256396, Note_on_c, 0, 79, 57
1, 256409, Note_on_c, 0, 58, 27
1, 256484, Note_off_c, 0, 64, 30
1, 256592, Control_c, 0, 67, 19
1, 256642, Note_off_c, 0, 85, 34
1, 256650, Note_on_c, 0, 64, 29
1, 256651, Control_c, 0, 67, 21
1, 256654, Note_off_c, 0, 58, 37
1, 256696, Control_c, 0, 67, 23
1, 256725, Control_c, 0, 67, 25
1, 256754, Control_c, 0, 67, 28
1, 256784, Control_c, 0, 67, 30
1, 256799, Control_c, 0, 67, 33
1, 256814, Control_c, 0, 67, 37
1, 256828, Control_c, 0, 67, 41
1, 256843, Control_c, 0, 67, 47
1, 256858, Control_c, 0, 67, 52
1, 256873, Control_c, 0, 67, 57
1, 256888, Control_c, 0, 67, 62
1, 256893, Note_on_c, 0, 61, 24
1, 256902, Control_c, 0, 67, 68
1, 256917, Control_c, 0, 67, 74
1, 256932, Control_c, 0, 67, 80
1, 256948, Control_c, 0, 67, 87
1, 256963, Control_c, 0, 67, 92
1, 256978, Control_c, 0, 67, 97
1, 256992, Control_c, 0, 67, 102
1, 257007, Control_c, 0, 67, 107
1, 257022, Control_c, 0, 67, 112
1, 257037, Control_c, 0, 67, 117
1, 257051, Control_c, 0, 67, 124
1, 257066, Control_c, 0, 67, 127
1, 257099, Note_off_c, 0, 64, 34
1, 257148, Note_on_c, 0, 55, 32
1, 257178, Note_off_c, 0, 61, 37
1, 257204, Note_off_c, 0, 55, 56
1, 257449, Note_on_c, 0, 84, 65
1, 257458, Control_c, 0, 64, 98
1, 257460, Note_on_c, 0, 49, 42
1, 257473, Control_c, 0, 64, 81
1, 257488, Control_c, 0, 64, 68
1, 257503, Control_c, 0, 64, 57
1, 257518, Control_c, 0, 64, 53
1, 257532, Control_c, 0, 64, 55
1, 257537, Note_off_c, 0, 79, 43
1, 257547, Control_c, 0, 64, 58
1, 257562, Control_c, 0, 64, 63
1, 257577, Control_c, 0, 64, 70
1, 257592, Control_c, 0, 64, 83
1, 257607, Control_c, 0, 64, 127
1, 257629, Note_off_c, 0, 49, 38
1, 257796, Note_on_c, 0, 63, 34
1, 258045, Note_off_c, 0, 63, 38
1, 258059, Note_on_c, 0, 57, 32
1, 258070, Note_on_c, 0, 78, 49
1, 258209, Note_off_c, 0, 84, 34
1, 258316, Note_on_c, 0, 63, 12
1, 258422, Note_off_c, 0, 57, 23
1, 258559, Note_on_c, 0, 60, 17
1, 258758, Note_off_c, 0, 63, 36
1, 258791, Note_on_c, 0, 54, 30
1, 258791, Note_off_c, 0, 60, 39
1, 258931, Note_off_c, 0, 54, 30
1, 259052, Note_on_c, 0, 83, 58
1, 259061, Control_c, 0, 64, 104
1, 259076, Control_c, 0, 64, 91
1, 259076, Note_on_c, 0, 49, 36
1, 259091, Control_c, 0, 64, 79
1, 259105, Control_c, 0, 64, 66
1, 259120, Control_c, 0, 64, 56
1, 259135, Control_c, 0, 64, 46
1, 259138, Note_off_c, 0, 78, 42
1, 259149, Control_c, 0, 64, 43
1, 259164, Control_c, 0, 64, 44
1, 259179, Control_c, 0, 64, 49
1, 259194, Control_c, 0, 64, 58
1, 259209, Control_c, 0, 64, 67
1, 259223, Control_c, 0, 64, 77
1, 259238, Control_c, 0, 64, 91
1, 259253, Control_c, 0, 64, 112
1, 259268, Control_c, 0, 64, 127
1, 259328, Note_on_c, 0, 62, 24
1, 259389, Note_off_c, 0, 49, 27
1, 259556, Note_on_c, 0, 77, 45
1, 259568, Note_on_c, 0, 56, 32
1, 259580, Note_off_c, 0, 62, 35
1, 259771, Note_off_c, 0, 83, 35
1, 259812, Note_on_c, 0, 62, 16
1, 260029, Note_on_c, 0, 59, 27
1, 260218, Note_off_c, 0, 56, 13
1, 260237, Note_off_c, 0, 59, 40
1, 260242, Note_off_c, 0, 62, 30
1, 260284, Note_on_c, 0, 53, 28
1, 260534, Note_on_c, 0, 82, 59
1, 260552, Note_off_c, 0, 53, 32
1, 260558, Note_on_c, 0, 49, 36
1, 260588, Control_c, 0, 64, 114
1, 260602, Control_c, 0, 64, 89
1, 260617, Control_c, 0, 64, 74
1, 260633, Control_c, 0, 64, 63
1, 260648, Control_c, 0, 64, 53
1, 260662, Note_off_c, 0, 77, 34
1, 260663, Control_c, 0, 64, 49
1, 260677, Control_c, 0, 64, 51
1, 260692, Control_c, 0, 64, 54
1, 260707, Control_c, 0, 64, 60
1, 260722, Control_c, 0, 64, 65
1, 260736, Control_c, 0, 64, 70
1, 260751, Control_c, 0, 64, 78
1, 260766, Control_c, 0, 64, 89
1, 260781, Control_c, 0, 64, 98
1, 260796, Control_c, 0, 64, 109
1, 260811, Control_c, 0, 64, 127
1, 260829, Note_on_c, 0, 61, 31
1, 261074, Note_off_c, 0, 61, 32
1, 261081, Note_on_c, 0, 76, 39
1, 261085, Note_on_c, 0, 55, 30
1, 261335, Note_on_c, 0, 61, 25
1, 261374, Note_off_c, 0, 82, 31
1, 261540, Note_off_c, 0, 55, 38
1, 261549, Note_on_c, 0, 58, 35
1, 261804, Note_on_c, 0, 52, 32
1, 261875, Note_off_c, 0, 49, 39
1, 261999, Note_off_c, 0, 61, 14
1, 262097, Note_on_c, 0, 81, 51
1, 262105, Note_off_c, 0, 52, 32
1, 262105, Note_off_c, 0, 58, 35
1, 262115, Control_c, 0, 64, 111
1, 262117, Note_on_c, 0, 49, 31
1, 262130, Control_c, 0, 64, 102
1, 262145, Control_c, 0, 64, 91
1, 262153, Note_off_c, 0, 81, 0
1, 262153, Note_on_c, 0, 81, 10
1, 262160, Control_c, 0, 64, 80
1, 262174, Control_c, 0, 64, 68
1, 262189, Control_c, 0, 64, 55
1, 262200, Note_off_c, 0, 76, 38
1, 262204, Control_c, 0, 64, 35
1, 262219, Control_c, 0, 64, 0
1, 262248, Control_c, 0, 64, 36
1, 262263, Control_c, 0, 64, 52
1, 262278, Control_c, 0, 64, 63
1, 262292, Control_c, 0, 64, 68
1, 262307, Control_c, 0, 64, 73
1, 262330, Control_c, 0, 64, 78
1, 262345, Control_c, 0, 64, 84
1, 262360, Control_c, 0, 64, 90
1, 262374, Control_c, 0, 64, 96
1, 262389, Control_c, 0, 64, 101
1, 262392, Note_on_c, 0, 61, 26
1, 262404, Control_c, 0, 64, 105
1, 262419, Control_c, 0, 64, 108
1, 262478, Control_c, 0, 64, 110
1, 262507, Control_c, 0, 64, 113
1, 262663, Note_on_c, 0, 75, 38
1, 262686, Control_c, 0, 64, 111
1, 262688, Note_on_c, 0, 54, 27
1, 262774, Note_off_c, 0, 61, 37
1, 262805, Control_c, 0, 64, 109
1, 262895, Control_c, 0, 64, 107
1, 262921, Note_on_c, 0, 61, 31
1, 263013, Control_c, 0, 64, 105
1, 263121, Note_off_c, 0, 54, 27
1, 263169, Control_c, 0, 64, 103
1, 263183, Note_on_c, 0, 57, 23
1, 263426, Note_off_c, 0, 81, 17
1, 263449, Note_on_c, 0, 51, 27
1, 263565, Note_off_c, 0, 49, 38
1, 263673, Control_c, 0, 64, 101
1, 263687, Note_off_c, 0, 61, 28
1, 263786, Note_on_c, 0, 80, 53
1, 263792, Control_c, 0, 64, 99
1, 263822, Note_on_c, 0, 49, 33
1, 263843, Control_c, 0, 64, 95
1, 263858, Control_c, 0, 64, 93
1, 263872, Control_c, 0, 64, 90
1, 263887, Control_c, 0, 64, 85
1, 263902, Control_c, 0, 64, 76
1, 263914, Note_off_c, 0, 51, 20
1, 263917, Control_c, 0, 64, 66
1, 263932, Control_c, 0, 64, 55
1, 263947, Control_c, 0, 64, 34
1, 263956, Note_off_c, 0, 57, 20
1, 263956, Note_off_c, 0, 75, 33
1, 263962, Control_c, 0, 64, 0
1, 264080, Control_c, 0, 64, 44
1, 264095, Control_c, 0, 64, 59
1, 264110, Control_c, 0, 64, 66
1, 264125, Control_c, 0, 64, 70
1, 264141, Control_c, 0, 64, 74
1, 264141, Note_on_c, 0, 60, 4
1, 264156, Control_c, 0, 64, 78
1, 264170, Control_c, 0, 64, 83
1, 264185, Control_c, 0, 64, 89
1, 264200, Control_c, 0, 64, 96
1, 264215, Control_c, 0, 64, 103
1, 264230, Control_c, 0, 64, 113
1, 264244, Control_c, 0, 64, 127
1, 264390, Note_on_c, 0, 54, 16
1, 264408, Note_off_c, 0, 60, 37
1, 264666, Note_on_c, 0, 60, 22
1, 264921, Note_off_c, 0, 54, 36
1, 264925, Note_on_c, 0, 56, 34
1, 264937, Note_on_c, 0, 68, 29
1, 265168, Note_off_c, 0, 68, 39
1, 265235, Note_on_c, 0, 70, 39
1, 265236, Note_on_c, 0, 51, 20
1, 265281, Note_off_c, 0, 49, 40
1, 265394, Note_off_c, 0, 60, 22
1, 265459, Note_off_c, 0, 70, 29
1, 265497, Note_on_c, 0, 49, 27
1, 265517, Note_off_c, 0, 51, 32
1, 265518, Control_c, 0, 64, 118
1, 265524, Note_on_c, 0, 72, 39
1, 265533, Control_c, 0, 64, 108
1, 265548, Control_c, 0, 64, 99
1, 265563, Control_c, 0, 64, 91
1, 265566, Note_off_c, 0, 56, 26
1, 265578, Control_c, 0, 64, 83
1, 265592, Control_c, 0, 64, 75
1, 265607, Control_c, 0, 64, 70
1, 265622, Control_c, 0, 64, 65
1, 265637, Control_c, 0, 64, 61
1, 265652, Control_c, 0, 64, 59
1, 265667, Control_c, 0, 64, 61
1, 265682, Control_c, 0, 64, 64
1, 265697, Control_c, 0, 64, 69
1, 265711, Control_c, 0, 64, 74
1, 265726, Control_c, 0, 64, 79
1, 265741, Control_c, 0, 64, 84
1, 265756, Control_c, 0, 64, 87
1, 265759, Note_off_c, 0, 72, 36
1, 265771, Control_c, 0, 64, 89
1, 265774, Note_on_c, 0, 73, 45
1, 265786, Note_on_c, 0, 60, 35
1, 265786, Control_c, 0, 64, 91
1, 265801, Control_c, 0, 64, 92
1, 265861, Control_c, 0, 64, 92
1, 265876, Control_c, 0, 64, 93
1, 265890, Control_c, 0, 64, 93
1, 266037, Note_on_c, 0, 74, 48
1, 266051, Note_off_c, 0, 73, 35
1, 266056, Note_on_c, 0, 54, 22
1, 266100, Note_off_c, 0, 60, 37
1, 266281, Note_off_c, 0, 74, 34
1, 266308, Note_on_c, 0, 75, 41
1, 266322, Note_on_c, 0, 60, 22
1, 266550, Control_c, 0, 64, 93
1, 266579, Note_off_c, 0, 75, 36
1, 266600, Note_on_c, 0, 56, 35
1, 266612, Note_on_c, 0, 77, 45
1, 266627, Note_off_c, 0, 54, 29
1, 266727, Note_off_c, 0, 60, 35
1, 266853, Control_c, 0, 64, 92
1, 266913, Control_c, 0, 64, 92
1, 266935, Note_on_c, 0, 78, 46
1, 266949, Note_on_c, 0, 51, 29
1, 266961, Note_off_c, 0, 56, 31
1, 266966, Note_off_c, 0, 77, 36
1, 266972, Control_c, 0, 64, 91
1, 266997, Note_off_c, 0, 49, 41
1, 267002, Note_off_c, 0, 51, 45
1, 267046, Control_c, 0, 64, 91
1, 267312, Control_c, 0, 64, 90
1, 267327, Control_c, 0, 64, 89
1, 267343, Note_on_c, 0, 77, 42
1, 267343, Control_c, 0, 64, 84
1, 267348, Note_on_c, 0, 37, 34
1, 267358, Control_c, 0, 64, 77
1, 267372, Control_c, 0, 64, 68
1, 267373, Note_off_c, 0, 78, 33
1, 267386, Control_c, 0, 64, 57
1, 267401, Control_c, 0, 64, 48
1, 267416, Control_c, 0, 64, 46
1, 267431, Control_c, 0, 64, 50
1, 267446, Control_c, 0, 64, 58
1, 267460, Control_c, 0, 64, 66
1, 267474, Note_off_c, 0, 37, 41
1, 267475, Control_c, 0, 64, 72
1, 267490, Control_c, 0, 64, 81
1, 267504, Control_c, 0, 64, 89
1, 267519, Control_c, 0, 64, 94
1, 267534, Control_c, 0, 64, 97
1, 267690, Control_c, 0, 64, 99
1, 267819, Note_on_c, 0, 65, 30
1, 268199, Note_on_c, 0, 56, 25
1, 268293, Note_off_c, 0, 65, 38
1, 268335, Note_off_c, 0, 77, 35
1, 268336, Note_off_c, 0, 80, 31
1, 268454, Control_c, 0, 64, 101
1, 268484, Control_c, 0, 64, 104
1, 268487, Note_on_c, 0, 65, 24
1, 268573, Control_c, 0, 64, 107
1, 268588, Control_c, 0, 64, 109
1, 268719, Note_on_c, 0, 61, 33
1, 268818, Note_off_c, 0, 65, 24
1, 268944, Control_c, 0, 64, 107
1, 268964, Note_on_c, 0, 53, 31
1, 269000, Note_off_c, 0, 53, 52
1, 269003, Control_c, 0, 64, 105
1, 269011, Note_off_c, 0, 61, 39
1, 269027, Note_off_c, 0, 56, 39
1, 269158, Control_c, 0, 64, 101
1, 269173, Control_c, 0, 64, 94
1, 269188, Control_c, 0, 64, 83
1, 269203, Control_c, 0, 64, 74
1, 269217, Note_on_c, 0, 49, 40
1, 269218, Control_c, 0, 64, 66
1, 269232, Control_c, 0, 64, 61
1, 269247, Control_c, 0, 64, 61
1, 269262, Control_c, 0, 64, 65
1, 269277, Control_c, 0, 64, 74
1, 269292, Control_c, 0, 64, 85
1, 269307, Control_c, 0, 64, 98
1, 269321, Control_c, 0, 64, 112
1, 269321, Control_c, 0, 67, 122
1, 269336, Control_c, 0, 64, 127
1, 269336, Control_c, 0, 67, 104
1, 269351, Control_c, 0, 67, 82
1, 269354, Note_off_c, 0, 49, 35
1, 269366, Control_c, 0, 67, 59
1, 269381, Control_c, 0, 67, 38
1, 269396, Control_c, 0, 67, 0
1, 269533, Poly_aftertouch_c, 0, 64, 127
1, 269767, Note_on_c, 0, 85, 68
1, 269792, Note_on_c, 0, 58, 27
1, 269925, Poly_aftertouch_c, 0, 64, 0
1, 270218, Note_on_c, 0, 64, 28
1, 270372, Note_on_c, 0, 94, 64
1, 270463, Note_off_c, 0, 94, 64
1, 270602, Note_on_c, 0, 61, 21
1, 270651, Note_on_c, 0, 79, 50
1, 270762, Note_off_c, 0, 64, 32
1, 270764, Note_off_c, 0, 58, 35
1, 270830, Note_off_c, 0, 85, 38
1, 270901, Note_off_c, 0, 79, 42
1, 270928, Note_on_c, 0, 55, 38
1, 270934, Note_off_c, 0, 61, 35
1, 270971, Note_off_c, 0, 55, 62
1, 271146, Control_c, 0, 64, 109
1, 271156, Note_on_c, 0, 49, 47
1, 271161, Control_c, 0, 64, 84
1, 271175, Control_c, 0, 64, 66
1, 271190, Control_c, 0, 64, 57
1, 271205, Control_c, 0, 64, 56
1, 271220, Control_c, 0, 64, 63
1, 271235, Control_c, 0, 64, 73
1, 271249, Control_c, 0, 64, 87
1, 271250, Note_off_c, 0, 49, 56
1, 271264, Control_c, 0, 64, 109
1, 271279, Control_c, 0, 64, 127
1, 271401, Note_on_c, 0, 63, 44
1, 271633, Note_on_c, 0, 57, 35
1, 271649, Note_on_c, 0, 84, 69
1, 271664, Note_off_c, 0, 63, 36
1, 271971, Note_on_c, 0, 63, 35
1, 272077, Note_on_c, 0, 93, 62
1, 272141, Note_off_c, 0, 93, 59
1, 272307, Note_on_c, 0, 60, 26
1, 272321, Note_off_c, 0, 57, 28
1, 272335, Note_on_c, 0, 78, 47
1, 272372, Note_off_c, 0, 63, 31
1, 272479, Note_off_c, 0, 84, 41
1, 272538, Note_off_c, 0, 78, 40
1, 272581, Note_on_c, 0, 54, 40
1, 272586, Note_off_c, 0, 60, 39
1, 272776, Control_c, 0, 64, 103
1, 272791, Control_c, 0, 64, 83
1, 272814, Control_c, 0, 64, 68
1, 272818, Note_on_c, 0, 49, 47
1, 272825, Note_off_c, 0, 54, 34
1, 272828, Control_c, 0, 64, 56
1, 272843, Control_c, 0, 64, 47
1, 272858, Control_c, 0, 64, 49
1, 272873, Control_c, 0, 64, 59
1, 272888, Control_c, 0, 64, 68
1, 272902, Control_c, 0, 64, 76
1, 272917, Control_c, 0, 64, 89
1, 272933, Control_c, 0, 64, 104
1, 272948, Control_c, 0, 64, 127
1, 273042, Note_off_c, 0, 49, 35
1, 273063, Note_on_c, 0, 62, 39
1, 273298, Note_off_c, 0, 62, 37
1, 273300, Note_on_c, 0, 56, 31
1, 273317, Note_on_c, 0, 83, 66
1, 273632, Note_on_c, 0, 62, 33
1, 273752, Note_on_c, 0, 92, 58
1, 273821, Note_off_c, 0, 92, 59
1, 273930, Note_on_c, 0, 59, 28
1, 274003, Note_off_c, 0, 56, 28
1, 274007, Note_on_c, 0, 77, 39
1, 274069, Note_off_c, 0, 62, 28
1, 274098, Note_off_c, 0, 83, 39
1, 274189, Note_off_c, 0, 59, 39
1, 274240, Note_on_c, 0, 53, 32
1, 274247, Note_off_c, 0, 77, 36
1, 274493, Note_on_c, 0, 49, 43
1, 274499, Note_off_c, 0, 53, 34
1, 274504, Control_c, 0, 64, 99
1, 274519, Control_c, 0, 64, 80
1, 274535, Control_c, 0, 64, 65
1, 274550, Control_c, 0, 64, 53
1, 274565, Control_c, 0, 64, 46
1, 274579, Control_c, 0, 64, 50
1, 274594, Control_c, 0, 64, 59
1, 274609, Control_c, 0, 64, 67
1, 274623, Control_c, 0, 64, 74
1, 274638, Control_c, 0, 64, 84
1, 274653, Control_c, 0, 64, 92
1, 274668, Control_c, 0, 64, 101
1, 274683, Control_c, 0, 64, 109
1, 274697, Control_c, 0, 64, 123
1, 274712, Control_c, 0, 64, 127
1, 274730, Note_on_c, 0, 61, 42
1, 274979, Note_off_c, 0, 61, 30
1, 274993, Note_on_c, 0, 82, 56
1, 275001, Note_on_c, 0, 55, 28
1, 275235, Note_off_c, 0, 82, 31
1, 275336, Note_on_c, 0, 61, 29
1, 275448, Note_on_c, 0, 91, 57
1, 275498, Note_off_c, 0, 91, 54
1, 275624, Note_off_c, 0, 55, 36
1, 275659, Note_on_c, 0, 58, 28
1, 275721, Note_on_c, 0, 76, 36
1, 275933, Note_off_c, 0, 49, 33
1, 275964, Note_on_c, 0, 52, 18
1, 275971, Note_off_c, 0, 76, 39
1, 275972, Note_off_c, 0, 61, 26
1, 276181, Control_c, 0, 64, 121
1, 276195, Control_c, 0, 64, 110
1, 276201, Note_off_c, 0, 58, 39
1, 276210, Control_c, 0, 64, 99
1, 276218, Note_on_c, 0, 49, 36
1, 276225, Control_c, 0, 64, 87
1, 276240, Control_c, 0, 64, 76
1, 276255, Control_c, 0, 64, 68
1, 276270, Control_c, 0, 64, 62
1, 276284, Control_c, 0, 64, 62
1, 276284, Control_c, 0, 67, 21
1, 276299, Control_c, 0, 64, 62
1, 276299, Control_c, 0, 67, 23
1, 276307, Note_off_c, 0, 52, 33
1, 276314, Control_c, 0, 64, 63
1, 276314, Control_c, 0, 67, 27
1, 276328, Control_c, 0, 64, 65
1, 276343, Control_c, 0, 64, 69
1, 276343, Control_c, 0, 67, 31
1, 276358, Control_c, 0, 64, 76
1, 276358, Control_c, 0, 67, 34
1, 276373, Control_c, 0, 64, 83
1, 276373, Control_c, 0, 67, 38
1, 276388, Control_c, 0, 64, 88
1, 276388, Control_c, 0, 67, 44
1, 276402, Control_c, 0, 64, 92
1, 276402, Control_c, 0, 67, 50
1, 276417, Control_c, 0, 64, 98
1, 276417, Control_c, 0, 67, 58
1, 276432, Control_c, 0, 64, 108
1, 276432, Control_c, 0, 67, 64
1, 276447, Control_c, 0, 64, 127
1, 276447, Control_c, 0, 67, 70
1, 276462, Control_c, 0, 67, 76
1, 276464, Note_on_c, 0, 61, 28
1, 276476, Control_c, 0, 67, 83
1, 276491, Control_c, 0, 67, 89
1, 276506, Control_c, 0, 67, 94
1, 276520, Control_c, 0, 67, 100
1, 276535, Control_c, 0, 67, 104
1, 276558, Control_c, 0, 67, 108
1, 276573, Control_c, 0, 67, 111
1, 276602, Control_c, 0, 67, 113
1, 276750, Note_on_c, 0, 54, 26
1, 276750, Control_c, 0, 67, 111
1, 276776, Note_on_c, 0, 81, 46
1, 276790, Note_off_c, 0, 61, 33
1, 276809, Control_c, 0, 67, 108
1, 276854, Control_c, 0, 67, 106
1, 276914, Control_c, 0, 67, 104
1, 276944, Control_c, 0, 67, 101
1, 276959, Control_c, 0, 67, 99
1, 276988, Control_c, 0, 67, 97
1, 277003, Control_c, 0, 67, 94
1, 277018, Control_c, 0, 67, 89
1, 277033, Control_c, 0, 67, 82
1, 277048, Control_c, 0, 67, 74
1, 277063, Control_c, 0, 67, 66
1, 277078, Control_c, 0, 67, 58
1, 277092, Control_c, 0, 67, 50
1, 277107, Control_c, 0, 67, 44
1, 277122, Control_c, 0, 67, 37
1, 277137, Control_c, 0, 67, 33
1, 277151, Control_c, 0, 67, 29
1, 277166, Note_on_c, 0, 61, 23
1, 277285, Control_c, 0, 67, 31
1, 277307, Control_c, 0, 67, 32
1, 277322, Control_c, 0, 67, 32
1, 277337, Control_c, 0, 67, 33
1, 277342, Note_on_c, 0, 90, 34
1, 277351, Control_c, 0, 67, 34
1, 277366, Control_c, 0, 67, 35
1, 277381, Control_c, 0, 67, 36
1, 277411, Control_c, 0, 67, 36
1, 277425, Control_c, 0, 67, 37
1, 277431, Note_off_c, 0, 90, 32
1, 277455, Control_c, 0, 67, 38
1, 277470, Control_c, 0, 67, 38
1, 277485, Control_c, 0, 67, 39
1, 277499, Control_c, 0, 67, 39
1, 277514, Control_c, 0, 67, 40
1, 277543, Control_c, 0, 67, 41
1, 277573, Control_c, 0, 67, 41
1, 277588, Control_c, 0, 67, 42
1, 277603, Control_c, 0, 67, 43
1, 277610, Note_on_c, 0, 57, 14
1, 277617, Control_c, 0, 67, 43
1, 277632, Control_c, 0, 67, 44
1, 277647, Control_c, 0, 67, 45
1, 277662, Control_c, 0, 67, 47
1, 277677, Control_c, 0, 67, 49
1, 277680, Note_on_c, 0, 75, 37
1, 277692, Control_c, 0, 67, 52
1, 277707, Control_c, 0, 67, 55
1, 277715, Note_off_c, 0, 54, 40
1, 277722, Control_c, 0, 67, 58
1, 277737, Control_c, 0, 67, 60
1, 277752, Control_c, 0, 67, 63
1, 277766, Control_c, 0, 67, 65
1, 277781, Control_c, 0, 67, 67
1, 277796, Control_c, 0, 67, 68
1, 277805, Note_off_c, 0, 81, 41
1, 277811, Control_c, 0, 67, 69
1, 277901, Control_c, 0, 67, 68
1, 277930, Control_c, 0, 67, 68
1, 277948, Note_off_c, 0, 61, 32
1, 278005, Note_on_c, 0, 51, 24
1, 278079, Note_off_c, 0, 49, 36
1, 278086, Control_c, 0, 67, 67
1, 278227, Note_off_c, 0, 75, 34
1, 278456, Control_c, 0, 64, 123
1, 278469, Note_on_c, 0, 80, 52
1, 278471, Control_c, 0, 64, 120
1, 278486, Control_c, 0, 64, 117
1, 278491, Note_on_c, 0, 49, 31
1, 278516, Control_c, 0, 64, 114
1, 278531, Control_c, 0, 64, 112
1, 278531, Control_c, 0, 67, 68
1, 278546, Control_c, 0, 64, 109
1, 278561, Control_c, 0, 64, 106
1, 278576, Control_c, 0, 64, 102
1, 278590, Control_c, 0, 64, 97
1, 278605, Control_c, 0, 64, 91
1, 278620, Control_c, 0, 64, 83
1, 278620, Control_c, 0, 67, 68
1, 278635, Control_c, 0, 64, 73
1, 278635, Control_c, 0, 67, 69
1, 278650, Control_c, 0, 64, 61
1, 278664, Control_c, 0, 64, 39
1, 278679, Control_c, 0, 64, 0
1, 278679, Control_c, 0, 67, 69
1, 278694, Control_c, 0, 67, 70
1, 278700, Note_off_c, 0, 51, 34
1, 278738, Control_c, 0, 67, 70
1, 278753, Control_c, 0, 67, 71
1, 278805, Control_c, 0, 64, 46
1, 278805, Control_c, 0, 67, 74
1, 278806, Note_off_c, 0, 57, 23
1, 278820, Control_c, 0, 64, 60
1, 278820, Control_c, 0, 67, 80
1, 278835, Control_c, 0, 64, 66
1, 278835, Control_c, 0, 67, 83
1, 278850, Control_c, 0, 64, 69
1, 278850, Control_c, 0, 67, 84
1, 278865, Control_c, 0, 64, 72
1, 278865, Control_c, 0, 67, 84
1, 278879, Control_c, 0, 64, 75
1, 278894, Control_c, 0, 64, 77
1, 278894, Control_c, 0, 67, 85
1, 278909, Control_c, 0, 64, 79
1, 278909, Control_c, 0, 67, 85
1, 278920, Note_on_c, 0, 60, 27
1, 278923, Control_c, 0, 64, 82
1, 278923, Control_c, 0, 67, 86
1, 278938, Control_c, 0, 64, 85
1, 278938, Control_c, 0, 67, 88
1, 278953, Control_c, 0, 64, 93
1, 278953, Control_c, 0, 67, 92
1, 278968, Control_c, 0, 64, 103
1, 278968, Control_c, 0, 67, 94
1, 278983, Control_c, 0, 64, 126
1, 278983, Control_c, 0, 67, 95
1, 279042, Control_c, 0, 67, 95
1, 279179, Note_off_c, 0, 60, 39
1, 279179, Note_on_c, 0, 54, 27
1, 279427, Note_on_c, 0, 60, 25
1, 279666, Note_on_c, 0, 56, 31
1, 279668, Note_off_c, 0, 54, 37
1, 279907, Note_on_c, 0, 51, 32
1, 279948, Note_off_c, 0, 49, 39
1, 279969, Control_c, 0, 67, 95
1, 279981, Note_off_c, 0, 56, 31
1, 280019, Note_off_c, 0, 60, 30
1, 280181, Note_on_c, 0, 49, 37
1, 280206, Control_c, 0, 64, 115
1, 280221, Control_c, 0, 64, 100
1, 280235, Control_c, 0, 64, 88
1, 280240, Note_off_c, 0, 51, 25
1, 280250, Control_c, 0, 64, 76
1, 280265, Control_c, 0, 64, 68
1, 280280, Control_c, 0, 64, 63
1, 280317, Control_c, 0, 64, 66
1, 280332, Control_c, 0, 64, 71
1, 280347, Control_c, 0, 64, 77
1, 280347, Control_c, 0, 67, 94
1, 280362, Control_c, 0, 64, 82
1, 280362, Control_c, 0, 67, 94
1, 280376, Control_c, 0, 64, 87
1, 280391, Control_c, 0, 64, 91
1, 280406, Control_c, 0, 64, 93
1, 280421, Control_c, 0, 64, 94
1, 280465, Control_c, 0, 67, 93
1, 280518, Note_on_c, 0, 79, 46
1, 280518, Note_on_c, 0, 60, 33
1, 280524, Control_c, 0, 64, 95
1, 280554, Control_c, 0, 67, 93
1, 280568, Control_c, 0, 64, 95
1, 280598, Control_c, 0, 67, 92
1, 280613, Control_c, 0, 67, 91
1, 280628, Control_c, 0, 67, 90
1, 280643, Control_c, 0, 67, 89
1, 280658, Control_c, 0, 67, 87
1, 280673, Control_c, 0, 67, 86
1, 280687, Control_c, 0, 67, 84
1, 280702, Control_c, 0, 67, 83
1, 280717, Control_c, 0, 67, 82
1, 280732, Control_c, 0, 67, 80
1, 280747, Control_c, 0, 67, 79
1, 280761, Control_c, 0, 67, 77
1, 280776, Control_c, 0, 67, 70
1, 280791, Control_c, 0, 67, 61
1, 280806, Control_c, 0, 67, 50
1, 280821, Control_c, 0, 67, 40
1, 280828, Note_on_c, 0, 54, 24
1, 280835, Control_c, 0, 67, 31
1, 280851, Control_c, 0, 67, 23
1, 280866, Control_c, 0, 67, 0
1, 280867, Note_on_c, 0, 78, 42
1, 280922, Note_off_c, 0, 79, 23
1, 280962, Note_off_c, 0, 60, 40
1, 281159, Note_on_c, 0, 77, 47
1, 281171, Note_on_c, 0, 60, 19
1, 281266, Note_off_c, 0, 78, 31
1, 281447, Note_on_c, 0, 75, 36
1, 281450, Note_on_c, 0, 56, 33
1, 281501, Note_off_c, 0, 77, 28
1, 281519, Note_off_c, 0, 54, 23
1, 281621, Note_off_c, 0, 60, 34
1, 281629, Control_c, 0, 64, 95
1, 281772, Note_on_c, 0, 77, 40
1, 281791, Note_on_c, 0, 51, 30
1, 281844, Note_off_c, 0, 56, 38
1, 281847, Note_off_c, 0, 49, 38
1, 281850, Note_off_c, 0, 75, 40
1, 281866, Note_off_c, 0, 51, 47
1, 282185, Control_c, 0, 64, 94
1, 282200, Control_c, 0, 64, 94
1, 282214, Control_c, 0, 64, 92
1, 282226, Note_on_c, 0, 73, 36
1, 282229, Control_c, 0, 64, 89
1, 282231, Note_on_c, 0, 37, 32
1, 282244, Control_c, 0, 64, 83
1, 282259, Control_c, 0, 64, 75
1, 282273, Control_c, 0, 64, 67
1, 282288, Control_c, 0, 64, 60
1, 282297, Note_off_c, 0, 77, 27
1, 282303, Control_c, 0, 64, 53
1, 282318, Control_c, 0, 64, 53
1, 282333, Control_c, 0, 64, 59
1, 282347, Control_c, 0, 64, 66
1, 282362, Control_c, 0, 64, 71
1, 282377, Control_c, 0, 64, 79
1, 282384, Note_off_c, 0, 37, 43
1, 282392, Control_c, 0, 64, 86
1, 282406, Control_c, 0, 64, 92
1, 282421, Control_c, 0, 64, 97
1, 282436, Control_c, 0, 64, 99
1, 282451, Control_c, 0, 67, 19
1, 282465, Control_c, 0, 67, 21
1, 282480, Control_c, 0, 67, 23
1, 282495, Control_c, 0, 67, 25
1, 282511, Control_c, 0, 67, 29
1, 282526, Control_c, 0, 67, 34
1, 282548, Control_c, 0, 67, 39
1, 282563, Control_c, 0, 67, 47
1, 282578, Control_c, 0, 67, 55
1, 282592, Control_c, 0, 67, 63
1, 282607, Control_c, 0, 67, 71
1, 282622, Control_c, 0, 67, 78
1, 282637, Control_c, 0, 67, 84
1, 282652, Control_c, 0, 67, 89
1, 282667, Control_c, 0, 67, 94
1, 282682, Control_c, 0, 67, 98
1, 282696, Control_c, 0, 67, 101
1, 282711, Control_c, 0, 67, 103
1, 282733, Note_on_c, 0, 61, 27
1, 282741, Control_c, 0, 67, 105
1, 282800, Control_c, 0, 64, 101
1, 282844, Control_c, 0, 64, 103
1, 282888, Control_c, 0, 64, 105
1, 283028, Note_off_c, 0, 61, 34
1, 283057, Note_on_c, 0, 49, 28
1, 283141, Control_c, 0, 67, 103
1, 283261, Note_off_c, 0, 73, 20
1, 283320, Note_on_c, 0, 61, 23
1, 283431, Control_c, 0, 67, 101
1, 283490, Control_c, 0, 67, 99
1, 283505, Note_off_c, 0, 61, 38
1, 283564, Note_off_c, 0, 49, 39
1, 283577, Note_on_c, 0, 53, 29
1, 283727, Control_c, 0, 67, 97
1, 283742, Control_c, 0, 64, 107
1, 283757, Control_c, 0, 67, 96
1, 283772, Control_c, 0, 64, 109
1, 283786, Control_c, 0, 67, 95
1, 283801, Control_c, 0, 64, 113
1, 283801, Control_c, 0, 67, 94
1, 283816, Control_c, 0, 64, 115
1, 283816, Control_c, 0, 67, 93
1, 283827, Note_off_c, 0, 53, 37
1, 283831, Control_c, 0, 64, 121
1, 283831, Control_c, 0, 67, 92
1, 283845, Control_c, 0, 64, 127
1, 283845, Control_c, 0, 67, 91
1, 283860, Control_c, 0, 67, 89
1, 283873, Note_on_c, 0, 44, 31
1, 283875, Control_c, 0, 67, 88
1, 283890, Control_c, 0, 67, 83
1, 283904, Control_c, 0, 67, 73
1, 283919, Note_off_c, 0, 44, 49
1, 283919, Control_c, 0, 67, 61
1, 283934, Control_c, 0, 67, 47
1, 283949, Control_c, 0, 67, 31
1, 283964, Control_c, 0, 67, 0
1, 284241, Note_on_c, 0, 37, 31
1, 284314, Note_on_c, 0, 77, 41
1, 284385, Note_off_c, 0, 37, 36
1, 284388, Poly_aftertouch_c, 0, 73, 127
1, 284630, Poly_aftertouch_c, 0, 73, 0
1, 284696, Note_on_c, 0, 78, 58
1, 284745, Note_on_c, 0, 61, 27
1, 284783, Note_off_c, 0, 80, 45
1, 284991, Note_off_c, 0, 61, 38
1, 285014, Note_on_c, 0, 49, 17
1, 285023, Note_on_c, 0, 79, 61
1, 285087, Note_off_c, 0, 78, 56
1, 285109, Note_off_c, 0, 77, 43
1, 285290, Note_on_c, 0, 80, 69
1, 285293, Note_on_c, 0, 61, 34
1, 285310, Note_off_c, 0, 79, 53
1, 285535, Note_off_c, 0, 61, 39
1, 285536, Note_on_c, 0, 53, 33
1, 285603, Control_c, 0, 67, 19
1, 285617, Control_c, 0, 67, 21
1, 285618, Note_on_c, 0, 84, 69
1, 285647, Control_c, 0, 67, 23
1, 285648, Note_off_c, 0, 49, 33
1, 285677, Control_c, 0, 67, 26
1, 285691, Control_c, 0, 67, 28
1, 285722, Control_c, 0, 67, 32
1, 285725, Note_off_c, 0, 80, 40
1, 285737, Control_c, 0, 67, 34
1, 285752, Control_c, 0, 67, 38
1, 285767, Control_c, 0, 67, 43
1, 285781, Control_c, 0, 67, 48
1, 285796, Control_c, 0, 67, 54
1, 285811, Control_c, 0, 67, 59
1, 285826, Control_c, 0, 67, 63
1, 285840, Control_c, 0, 67, 68
1, 285855, Control_c, 0, 67, 71
1, 285870, Control_c, 0, 67, 74
1, 285885, Control_c, 0, 67, 76
1, 285900, Control_c, 0, 67, 76
1, 285944, Control_c, 0, 67, 76
1, 285950, Note_off_c, 0, 53, 39
1, 285974, Control_c, 0, 67, 75
1, 285985, Note_on_c, 0, 44, 37
1, 285988, Control_c, 0, 67, 74
1, 285990, Note_on_c, 0, 82, 69
1, 286003, Control_c, 0, 67, 74
1, 286018, Control_c, 0, 67, 73
1, 286029, Note_off_c, 0, 44, 58
1, 286032, Control_c, 0, 67, 73
1, 286047, Control_c, 0, 67, 72
1, 286062, Control_c, 0, 67, 71
1, 286077, Control_c, 0, 67, 71
1, 286092, Control_c, 0, 67, 70
1, 286107, Control_c, 0, 67, 69
1, 286122, Control_c, 0, 67, 69
1, 286137, Control_c, 0, 67, 68
1, 286152, Control_c, 0, 67, 67
1, 286167, Control_c, 0, 67, 66
1, 286181, Control_c, 0, 67, 65
1, 286196, Control_c, 0, 67, 65
1, 286229, Note_off_c, 0, 84, 28
1, 286270, Control_c, 0, 64, 114
1, 286292, Control_c, 0, 64, 91
1, 286307, Control_c, 0, 64, 74
1, 286313, Note_on_c, 0, 80, 50
1, 286316, Note_on_c, 0, 37, 26
1, 286322, Control_c, 0, 64, 60
1, 286329, Note_on_c, 0, 72, 41
1, 286336, Control_c, 0, 64, 36
1, 286351, Control_c, 0, 64, 0
1, 286351, Control_c, 0, 67, 65
1, 286366, Control_c, 0, 67, 66
1, 286381, Control_c, 0, 64, 36
1, 286381, Control_c, 0, 67, 67
1, 286391, Note_off_c, 0, 82, 56
1, 286396, Control_c, 0, 64, 54
1, 286396, Control_c, 0, 67, 67
1, 286411, Control_c, 0, 64, 68
1, 286411, Control_c, 0, 67, 68
1, 286426, Control_c, 0, 64, 76
1, 286426, Control_c, 0, 67, 69
1, 286440, Control_c, 0, 64, 89
1, 286440, Control_c, 0, 67, 70
1, 286447, Note_off_c, 0, 37, 52
1, 286455, Control_c, 0, 64, 106
1, 286455, Control_c, 0, 67, 73
1, 286470, Control_c, 0, 64, 127
1, 286470, Control_c, 0, 67, 73
1, 286485, Control_c, 0, 67, 74
1, 286500, Control_c, 0, 67, 75
1, 286515, Control_c, 0, 67, 75
1, 286530, Control_c, 0, 67, 76
1, 286560, Control_c, 0, 67, 77
1, 286575, Control_c, 0, 67, 77
1, 286590, Control_c, 0, 67, 79
1, 286604, Control_c, 0, 67, 86
1, 286619, Control_c, 0, 67, 94
1, 286634, Control_c, 0, 67, 99
1, 286649, Control_c, 0, 67, 101
1, 286730, Note_on_c, 0, 73, 55
1, 286747, Note_on_c, 0, 60, 34
1, 286752, Control_c, 0, 67, 99
1, 286781, Control_c, 0, 67, 97
1, 286796, Control_c, 0, 67, 95
1, 286809, Note_off_c, 0, 72, 40
1, 286811, Control_c, 0, 67, 93
1, 286826, Control_c, 0, 67, 90
1, 286841, Control_c, 0, 67, 88
1, 286855, Control_c, 0, 67, 85
1, 286870, Control_c, 0, 67, 81
1, 286885, Control_c, 0, 67, 73
1, 286900, Control_c, 0, 67, 60
1, 286915, Control_c, 0, 67, 43
1, 286930, Control_c, 0, 67, 27
1, 286945, Control_c, 0, 67, 0
1, 287015, Note_on_c, 0, 74, 59
1, 287019, Note_on_c, 0, 51, 22
1, 287078, Note_off_c, 0, 73, 44
1, 287098, Note_off_c, 0, 60, 37
1, 287278, Note_on_c, 0, 75, 60
1, 287319, Note_on_c, 0, 60, 27
1, 287532, Note_off_c, 0, 60, 43
1, 287539, Note_on_c, 0, 54, 35
1, 287547, Note_off_c, 0, 51, 40
1, 287585, Note_on_c, 0, 78, 55
1, 287861, Note_off_c, 0, 54, 40
1, 287889, Note_on_c, 0, 44, 37
1, 287911, Note_on_c, 0, 77, 52
1, 287940, Note_off_c, 0, 44, 59
1, 287994, Note_off_c, 0, 75, 43
1, 288034, Note_off_c, 0, 78, 36
1, 288146, Control_c, 0, 64, 113
1, 288161, Control_c, 0, 64, 90
1, 288170, Note_on_c, 0, 37, 42
1, 288176, Control_c, 0, 64, 74
1, 288191, Control_c, 0, 64, 63
1, 288205, Control_c, 0, 64, 49
1, 288209, Note_off_c, 0, 74, 36
1, 288220, Control_c, 0, 64, 39
1, 288235, Control_c, 0, 64, 41
1, 288238, Note_on_c, 0, 75, 41
1, 288250, Control_c, 0, 64, 50
1, 288265, Control_c, 0, 64, 61
1, 288280, Control_c, 0, 64, 68
1, 288295, Control_c, 0, 64, 77
1, 288304, Note_off_c, 0, 37, 54
1, 288309, Control_c, 0, 64, 93
1, 288314, Note_off_c, 0, 77, 36
1, 288324, Control_c, 0, 64, 127
1, 288424, Note_off_c, 0, 80, 49
1, 288593, Note_on_c, 0, 79, 70
1, 288603, Note_on_c, 0, 60, 35
1, 288903, Note_on_c, 0, 51, 32
1, 288982, Note_on_c, 0, 78, 64
1, 289049, Note_off_c, 0, 79, 50
1, 289075, Note_off_c, 0, 60, 41
1, 289261, Note_on_c, 0, 77, 63
1, 289300, Note_on_c, 0, 60, 31
1, 289317, Note_off_c, 0, 75, 57
1, 289368, Note_off_c, 0, 78, 38
1, 289525, Note_off_c, 0, 60, 42
1, 289561, Note_on_c, 0, 75, 59
1, 289562, Note_on_c, 0, 54, 38
1, 289566, Note_on_c, 0, 68, 59
1, 289663, Note_off_c, 0, 77, 58
1, 289679, Note_off_c, 0, 51, 40
1, 289920, Note_off_c, 0, 54, 38
1, 289930, Note_on_c, 0, 44, 41
1, 289943, Note_on_c, 0, 77, 59
1, 289980, Note_off_c, 0, 44, 60
1, 290036, Note_off_c, 0, 75, 60
1, 290076, Note_off_c, 0, 68, 36
1, 290371, Note_on_c, 0, 73, 59
1, 290379, Note_on_c, 0, 69, 53
1, 290386, Note_on_c, 0, 37, 38
1, 290393, Control_c, 0, 64, 118
1, 290407, Control_c, 0, 64, 105
1, 290422, Control_c, 0, 64, 91
1, 290437, Control_c, 0, 64, 78
1, 290452, Control_c, 0, 64, 65
1, 290467, Control_c, 0, 64, 40
1, 290471, Note_off_c, 0, 77, 31
1, 290481, Control_c, 0, 64, 0
1, 290556, Control_c, 0, 64, 51
1, 290571, Control_c, 0, 64, 63
1, 290575, Note_off_c, 0, 37, 53
1, 290586, Control_c, 0, 64, 72
1, 290601, Control_c, 0, 64, 86
1, 290616, Control_c, 0, 64, 127
1, 290841, Note_on_c, 0, 68, 61
1, 290854, Note_on_c, 0, 61, 34
1, 290925, Note_off_c, 0, 69, 50
1, 291109, Note_on_c, 0, 49, 34
1, 291115, Note_off_c, 0, 61, 38
1, 291168, Note_on_c, 0, 67, 60
1, 291209, Note_off_c, 0, 68, 57
1, 291420, Note_on_c, 0, 61, 40
1, 291440, Note_on_c, 0, 68, 65
1, 291595, Note_off_c, 0, 61, 42
1, 291651, Note_on_c, 0, 53, 33
1, 291705, Note_on_c, 0, 72, 59
1, 291784, Note_on_c, 0, 70, 61
1, 291808, Note_off_c, 0, 49, 41
1, 291837, Note_off_c, 0, 73, 36
1, 291838, Note_off_c, 0, 67, 42
1, 291884, Note_off_c, 0, 68, 42
1, 291892, Note_off_c, 0, 72, 56
1, 292067, Note_off_c, 0, 53, 39
1, 292076, Note_on_c, 0, 44, 36
1, 292096, Note_off_c, 0, 70, 60
1, 292123, Note_on_c, 0, 68, 59
1, 292140, Note_off_c, 0, 44, 52
1, 292453, Note_off_c, 0, 68, 33
1, 292558, Note_on_c, 0, 37, 32
1, 292594, Control_c, 0, 64, 114
1, 292609, Control_c, 0, 64, 91
1, 292624, Control_c, 0, 64, 76
1, 292629, Note_on_c, 0, 77, 36
1, 292635, Note_on_c, 0, 68, 32
1, 292639, Control_c, 0, 64, 65
1, 292654, Control_c, 0, 64, 58
1, 292668, Control_c, 0, 64, 56
1, 292683, Control_c, 0, 64, 61
1, 292698, Control_c, 0, 64, 68
1, 292713, Control_c, 0, 64, 79
1, 292728, Control_c, 0, 64, 91
1, 292742, Control_c, 0, 64, 103
1, 292744, Note_off_c, 0, 37, 38
1, 292757, Control_c, 0, 64, 120
1, 292772, Control_c, 0, 64, 127
1, 293086, Note_on_c, 0, 61, 25
1, 293087, Note_on_c, 0, 78, 39
1, 293171, Note_off_c, 0, 77, 36
1, 293292, Note_off_c, 0, 68, 40
1, 293342, Note_off_c, 0, 61, 38
1, 293377, Note_on_c, 0, 49, 30
1, 293379, Note_off_c, 0, 78, 42
1, 293383, Note_on_c, 0, 79, 44
1, 293656, Note_on_c, 0, 61, 32
1, 293661, Note_on_c, 0, 80, 43
1, 293667, Note_off_c, 0, 79, 44
1, 293830, Note_off_c, 0, 61, 40
1, 293935, Note_off_c, 0, 49, 39
1, 293946, Note_on_c, 0, 53, 27
1, 293946, Note_on_c, 0, 84, 51
1, 293965, Note_off_c, 0, 80, 44
1, 294191, Note_off_c, 0, 53, 36
1, 294227, Note_on_c, 0, 44, 34
1, 294236, Note_on_c, 0, 82, 50
1, 294275, Note_off_c, 0, 44, 48
1, 294381, Note_off_c, 0, 84, 27
1, 294604, Control_c, 0, 64, 118
1, 294608, Note_on_c, 0, 80, 45
1, 294608, Note_on_c, 0, 72, 41
1, 294613, Note_on_c, 0, 37, 38
1, 294619, Control_c, 0, 64, 104
1, 294634, Control_c, 0, 64, 91
1, 294649, Control_c, 0, 64, 79
1, 294664, Control_c, 0, 64, 68
1, 294678, Control_c, 0, 64, 59
1, 294693, Control_c, 0, 64, 54
1, 294708, Control_c, 0, 64, 57
1, 294711, Note_off_c, 0, 82, 39
1, 294722, Control_c, 0, 64, 64
1, 294728, Note_off_c, 0, 37, 50
1, 294737, Control_c, 0, 64, 71
1, 294752, Control_c, 0, 64, 80
1, 294767, Control_c, 0, 64, 90
1, 294782, Control_c, 0, 64, 100
1, 294796, Control_c, 0, 64, 116
1, 294811, Control_c, 0, 64, 127
1, 295023, Note_on_c, 0, 73, 49
1, 295038, Note_on_c, 0, 60, 32
1, 295113, Note_off_c, 0, 72, 41
1, 295346, Note_on_c, 0, 74, 47
1, 295346, Note_off_c, 0, 73, 34
1, 295363, Note_off_c, 0, 60, 36
1, 295378, Note_on_c, 0, 51, 22
1, 295621, Note_on_c, 0, 75, 46
1, 295649, Note_on_c, 0, 60, 21
1, 295872, Note_off_c, 0, 51, 41
1, 295873, Note_off_c, 0, 60, 39
1, 295890, Note_on_c, 0, 54, 31
1, 295893, Note_on_c, 0, 78, 46
1, 296024, Note_off_c, 0, 75, 34
1, 296057, Control_c, 0, 67, 19
1, 296086, Control_c, 0, 67, 21
1, 296102, Control_c, 0, 67, 23
1, 296153, Note_off_c, 0, 54, 39
1, 296193, Note_on_c, 0, 77, 49
1, 296208, Note_on_c, 0, 44, 33
1, 296236, Control_c, 0, 67, 25
1, 296254, Note_off_c, 0, 44, 53
1, 296262, Note_off_c, 0, 78, 35
1, 296280, Control_c, 0, 67, 29
1, 296294, Control_c, 0, 67, 32
1, 296309, Control_c, 0, 67, 34
1, 296324, Control_c, 0, 67, 37
1, 296339, Control_c, 0, 67, 41
1, 296354, Control_c, 0, 67, 46
1, 296368, Control_c, 0, 67, 51
1, 296383, Control_c, 0, 67, 55
1, 296398, Control_c, 0, 67, 59
1, 296413, Control_c, 0, 67, 64
1, 296428, Control_c, 0, 67, 69
1, 296442, Control_c, 0, 67, 74
1, 296457, Control_c, 0, 67, 79
1, 296472, Control_c, 0, 67, 82
1, 296486, Control_c, 0, 67, 85
1, 296501, Control_c, 0, 67, 88
1, 296516, Control_c, 0, 67, 92
1, 296531, Control_c, 0, 67, 97
1, 296533, Note_on_c, 0, 37, 37
1, 296546, Control_c, 0, 64, 110
1, 296546, Control_c, 0, 67, 101
1, 296561, Control_c, 0, 64, 90
1, 296561, Control_c, 0, 67, 105
1, 296575, Control_c, 0, 64, 74
1, 296575, Control_c, 0, 67, 109
1, 296584, Note_on_c, 0, 75, 36
1, 296590, Control_c, 0, 64, 62
1, 296590, Control_c, 0, 67, 113
1, 296605, Control_c, 0, 64, 47
1, 296605, Control_c, 0, 67, 119
1, 296620, Control_c, 0, 64, 42
1, 296620, Control_c, 0, 67, 125
1, 296634, Control_c, 0, 64, 43
1, 296634, Control_c, 0, 67, 127
1, 296637, Note_off_c, 0, 77, 31
1, 296649, Control_c, 0, 64, 48
1, 296652, Note_off_c, 0, 74, 25
1, 296663, Note_off_c, 0, 37, 46
1, 296664, Control_c, 0, 64, 58
1, 296679, Control_c, 0, 64, 69
1, 296693, Control_c, 0, 64, 81
1, 296708, Control_c, 0, 64, 99
1, 296723, Control_c, 0, 64, 127
1, 296750, Note_off_c, 0, 80, 41
1, 296981, Note_on_c, 0, 79, 45
1, 296994, Note_on_c, 0, 60, 26
1, 297316, Note_on_c, 0, 51, 12
1, 297341, Note_on_c, 0, 78, 43
1, 297414, Note_off_c, 0, 60, 39
1, 297558, Note_off_c, 0, 79, 20
1, 297655, Note_on_c, 0, 77, 43
1, 297685, Note_on_c, 0, 60, 19
1, 297712, Note_off_c, 0, 75, 39
1, 297762, Note_off_c, 0, 78, 37
1, 297912, Note_off_c, 0, 60, 41
1, 297991, Note_on_c, 0, 54, 24
1, 298010, Note_off_c, 0, 77, 30
1, 298042, Note_on_c, 0, 68, 44
1, 298045, Note_on_c, 0, 75, 40
1, 298159, Note_off_c, 0, 51, 37
1, 298501, Note_off_c, 0, 54, 33
1, 298506, Note_on_c, 0, 44, 35
1, 298507, Note_on_c, 0, 77, 30
1, 298572, Note_off_c, 0, 75, 41
1, 298600, Note_off_c, 0, 44, 49
1, 298728, Note_off_c, 0, 68, 41
1, 298756, Note_off_c, 0, 77, 37
1, 299159, Note_on_c, 0, 65, 38
1, 299160, Note_on_c, 0, 73, 40
1, 299161, Note_on_c, 0, 37, 32
1, 299214, Control_c, 0, 64, 105
1, 299229, Control_c, 0, 64, 91
1, 299244, Control_c, 0, 64, 78
1, 299259, Control_c, 0, 64, 67
1, 299274, Control_c, 0, 64, 58
1, 299290, Control_c, 0, 64, 52
1, 299305, Control_c, 0, 64, 54
1, 299319, Control_c, 0, 64, 60
1, 299334, Control_c, 0, 64, 66
1, 299349, Control_c, 0, 64, 72
1, 299364, Control_c, 0, 64, 81
1, 299379, Note_off_c, 0, 37, 40
1, 299379, Control_c, 0, 64, 95
1, 299393, Control_c, 0, 64, 127
1, 299829, Note_on_c, 0, 61, 26
1, 300135, Note_off_c, 0, 61, 35
1, 300166, Note_on_c, 0, 49, 27
1, 300429, Note_on_c, 0, 61, 29
1, 300581, Note_off_c, 0, 61, 41
1, 300676, Note_off_c, 0, 49, 40
1, 300678, Note_on_c, 0, 53, 31
1, 300915, Note_off_c, 0, 53, 34
1, 300946, Note_on_c, 0, 44, 35
1, 300982, Note_off_c, 0, 44, 53
1, 301194, Note_on_c, 0, 37, 41
1, 301229, Note_off_c, 0, 37, 57
1, 301348, Note_off_c, 0, 65, 0
1, 301385, Poly_aftertouch_c, 0, 65, 127
1, 301497, Note_on_c, 0, 61, 35
1, 301673, Poly_aftertouch_c, 0, 65, 0
1, 301700, Note_off_c, 0, 61, 38
1, 301760, Note_on_c, 0, 49, 31
1, 301962, Note_off_c, 0, 73, 26
1, 302011, Note_on_c, 0, 61, 35
1, 302158, Note_off_c, 0, 61, 34
1, 302237, Note_off_c, 0, 49, 31
1, 302287, Note_on_c, 0, 53, 24
1, 302520, Note_off_c, 0, 53, 35
1, 302590, Note_on_c, 0, 44, 32
1, 302636, Note_off_c, 0, 44, 56
1, 302976, Note_on_c, 0, 37, 28
1, 303050, Note_on_c, 0, 77, 35
1, 303063, Note_on_c, 0, 68, 34
1, 303117, Note_off_c, 0, 37, 36
1, 303232, Note_off_c, 0, 68, 43
1, 303486, Note_on_c, 0, 78, 45
1, 303490, Note_on_c, 0, 70, 37
1, 303518, Note_off_c, 0, 77, 39
1, 303623, Note_on_c, 0, 61, 26
1, 303626, Note_off_c, 0, 70, 36
1, 303750, Note_off_c, 0, 78, 39
1, 303781, Note_on_c, 0, 80, 46
1, 303799, Note_on_c, 0, 72, 19
1, 303837, Note_off_c, 0, 61, 35
1, 303867, Note_off_c, 0, 72, 41
1, 303919, Note_on_c, 0, 49, 23
1, 304017, Note_off_c, 0, 80, 42
1, 304039, Note_on_c, 0, 82, 52
1, 304046, Note_on_c, 0, 73, 30
1, 304103, Note_off_c, 0, 73, 44
1, 304171, Note_on_c, 0, 61, 30
1, 304299, Note_on_c, 0, 84, 59
1, 304314, Note_off_c, 0, 82, 38
1, 304341, Note_off_c, 0, 61, 40
1, 304346, Note_on_c, 0, 75, 4
1, 304403, Note_off_c, 0, 75, 49
1, 304429, Note_off_c, 0, 49, 40
1, 304461, Note_on_c, 0, 53, 25
1, 304567, Note_on_c, 0, 85, 53
1, 304593, Note_on_c, 0, 77, 26
1, 304608, Note_off_c, 0, 84, 28
1, 304648, Note_off_c, 0, 77, 46
1, 304666, Note_off_c, 0, 53, 35
1, 304751, Note_on_c, 0, 44, 33
1, 304853, Note_on_c, 0, 87, 55
1, 304878, Note_off_c, 0, 85, 35
1, 304885, Note_on_c, 0, 78, 27
1, 304923, Note_off_c, 0, 78, 51
1, 304983, Note_off_c, 0, 44, 33
1, 305152, Note_on_c, 0, 37, 32
1, 305157, Note_off_c, 0, 87, 37
1, 305173, Note_on_c, 0, 89, 49
1, 305192, Note_on_c, 0, 80, 37
1, 305230, Note_off_c, 0, 37, 51
1, 305248, Note_off_c, 0, 80, 46
1, 305491, Note_on_c, 0, 90, 49
1, 305502, Note_on_c, 0, 82, 42
1, 305550, Note_off_c, 0, 82, 44
1, 305552, Note_off_c, 0, 89, 39
1, 305662, Note_on_c, 0, 61, 32
1, 305777, Note_off_c, 0, 90, 37
1, 305802, Note_on_c, 0, 92, 50
1, 305819, Note_on_c, 0, 84, 31
1, 305868, Note_off_c, 0, 84, 46
1, 305896, Note_off_c, 0, 61, 36
1, 305969, Note_on_c, 0, 49, 29
1, 306070, Note_off_c, 0, 92, 36
1, 306105, Note_on_c, 0, 94, 50
1, 306118, Note_on_c, 0, 85, 36
1, 306218, Note_off_c, 0, 85, 38
1, 306247, Note_on_c, 0, 61, 32
1, 306433, Note_on_c, 0, 96, 58
1, 306456, Note_off_c, 0, 94, 33
1, 306457, Note_on_c, 0, 87, 32
1, 306526, Note_off_c, 0, 87, 42
1, 306533, Note_off_c, 0, 61, 37
1, 306544, Note_off_c, 0, 49, 35
1, 306648, Note_on_c, 0, 53, 26
1, 306833, Note_on_c, 0, 97, 48
1, 306845, Note_on_c, 0, 89, 39
1, 306940, Note_off_c, 0, 89, 34
1, 306944, Note_off_c, 0, 96, 43
1, 306987, Note_off_c, 0, 53, 33
1, 307081, Note_on_c, 0, 44, 30
1, 307364, Note_on_c, 0, 99, 54
1, 307385, Note_on_c, 0, 90, 37
1, 307438, Note_off_c, 0, 97, 38
1, 307466, Note_off_c, 0, 44, 20
1, 307485, Note_off_c, 0, 90, 33
1, 308270, Note_on_c, 0, 101, 46
1, 308273, Note_on_c, 0, 92, 38
1, 308291, Note_on_c, 0, 37, 16
1, 308409, Control_c, 0, 64, 111
1, 308424, Control_c, 0, 64, 104
1, 308439, Control_c, 0, 64, 99
1, 308454, Control_c, 0, 64, 93
1, 308468, Control_c, 0, 64, 86
1, 308483, Control_c, 0, 64, 78
1, 308498, Control_c, 0, 64, 70
1, 308513, Control_c, 0, 64, 61
1, 308519, Note_off_c, 0, 99, 40
1, 308527, Control_c, 0, 64, 52
1, 308542, Control_c, 0, 64, 47
1, 308558, Control_c, 0, 64, 46
1, 308588, Control_c, 0, 64, 46
1, 308602, Control_c, 0, 64, 48
1, 308617, Control_c, 0, 64, 52
1, 308632, Control_c, 0, 64, 58
1, 308647, Control_c, 0, 64, 63
1, 308662, Control_c, 0, 64, 68
1, 308676, Control_c, 0, 64, 74
1, 308691, Control_c, 0, 64, 81
1, 308706, Control_c, 0, 64, 87
1, 308720, Control_c, 0, 64, 92
1, 308735, Control_c, 0, 64, 100
1, 308758, Control_c, 0, 64, 112
1, 308773, Control_c, 0, 64, 127
1, 308877, Note_off_c, 0, 92, 42
1, 308938, Note_off_c, 0, 101, 31
1, 309269, Note_off_c, 0, 37, 31
1, 309380, Control_c, 0, 64, 118
1, 309395, Control_c, 0, 64, 114
1, 309410, Control_c, 0, 64, 111
1, 309424, Control_c, 0, 64, 109
1, 309439, Control_c, 0, 64, 107
1, 309454, Control_c, 0, 64, 105
1, 309483, Control_c, 0, 64, 103
1, 309521, Control_c, 0, 64, 100
1, 309550, Control_c, 0, 64, 97
1, 309565, Control_c, 0, 64, 95
1, 309580, Control_c, 0, 64, 94
1, 309595, Control_c, 0, 64, 94
1, 309610, Control_c, 0, 64, 93
1, 309624, Control_c, 0, 64, 92
1, 309639, Control_c, 0, 64, 92
1, 309654, Control_c, 0, 64, 91
1, 309670, Control_c, 0, 64, 90
1, 309685, Control_c, 0, 64, 89
1, 309700, Control_c, 0, 64, 88
1, 309715, Control_c, 0, 64, 88
1, 309729, Control_c, 0, 64, 87
1, 309773, Control_c, 0, 64, 87
1, 309803, Control_c, 0, 64, 86
1, 309833, Control_c, 0, 64, 86
1, 309892, Control_c, 0, 64, 85
1, 309936, Control_c, 0, 64, 85
1, 309996, Control_c, 0, 64, 84
1, 310054, Control_c, 0, 64, 84
1, 310098, Control_c, 0, 64, 83
1, 310128, Control_c, 0, 64, 83
1, 310158, Control_c, 0, 64, 82
1, 310187, Control_c, 0, 64, 82
1, 310232, Control_c, 0, 64, 81
1, 310254, Control_c, 0, 64, 81
1, 310269, Control_c, 0, 64, 80
1, 310284, Control_c, 0, 64, 80
1, 310298, Control_c, 0, 64, 79
1, 310313, Control_c, 0, 64, 78
1, 310328, Control_c, 0, 64, 78
1, 310343, Control_c, 0, 64, 77
1, 310358, Control_c, 0, 64, 77
1, 310372, Control_c, 0, 64, 76
1, 310387, Control_c, 0, 64, 76
1, 310402, Control_c, 0, 64, 75
1, 310417, Control_c, 0, 64, 75
1, 310432, Control_c, 0, 64, 74
1, 310461, Control_c, 0, 64, 74
1, 310492, Control_c, 0, 64, 73
1, 310507, Control_c, 0, 64, 73
1, 310536, Control_c, 0, 64, 72
1, 310551, Control_c, 0, 64, 72
1, 310566, Control_c, 0, 64, 71
1, 310581, Control_c, 0, 64, 70
1, 310595, Control_c, 0, 64, 69
1, 310610, Control_c, 0, 64, 68
1, 310625, Control_c, 0, 64, 68
1, 310655, Control_c, 0, 64, 67
1, 310684, Control_c, 0, 64, 67
1, 310699, Control_c, 0, 64, 66
1, 310714, Control_c, 0, 64, 66
1, 310729, Control_c, 0, 64, 65
1, 310744, Control_c, 0, 64, 64
1, 310759, Control_c, 0, 64, 64
1, 310774, Control_c, 0, 64, 63
1, 310788, Control_c, 0, 64, 62
1, 310803, Control_c, 0, 64, 61
1, 310818, Control_c, 0, 64, 60
1, 310833, Control_c, 0, 64, 59
1, 310848, Control_c, 0, 64, 59
1, 310862, Control_c, 0, 64, 58
1, 310936, Control_c, 0, 64, 59
1, 310966, Control_c, 0, 64, 59
1, 310981, Control_c, 0, 64, 60
1, 311003, Control_c, 0, 64, 60
1, 311018, Control_c, 0, 64, 61
1, 311033, Control_c, 0, 64, 62
1, 311047, Control_c, 0, 64, 62
1, 311062, Control_c, 0, 64, 63
1, 311077, Control_c, 0, 64, 64
1, 311092, Control_c, 0, 64, 66
1, 311107, Control_c, 0, 64, 68
1, 311121, Control_c, 0, 64, 71
1, 311136, Control_c, 0, 64, 74
1, 311151, Control_c, 0, 64, 78
1, 311166, Control_c, 0, 64, 82
1, 311181, Control_c, 0, 64, 84
1, 311195, Control_c, 0, 64, 88
1, 311210, Control_c, 0, 64, 92
1, 311225, Control_c, 0, 64, 99
1, 311239, Control_c, 0, 64, 107
1, 311254, Control_c, 0, 64, 127
1, 311483, Note_on_c, 0, 77, 44
1, 311489, Note_on_c, 0, 68, 33
1, 311491, Note_on_c, 0, 44, 33
1, 311492, Note_on_c, 0, 56, 29
1, 311565, Note_off_c, 0, 56, 0
1, 311565, Note_on_c, 0, 56, 5
1, 312040, Note_off_c, 0, 68, 22
1, 312165, Note_off_c, 0, 77, 13
1, 314117, Note_on_c, 0, 73, 32
1, 314118, Control_c, 0, 64, 123
1, 314133, Control_c, 0, 64, 120
1, 314136, Note_on_c, 0, 65, 32
1, 314147, Control_c, 0, 64, 117
1, 314148, Note_on_c, 0, 49, 25
1, 314177, Control_c, 0, 64, 113
1, 314207, Control_c, 0, 64, 110
1, 314221, Control_c, 0, 64, 107
1, 314236, Control_c, 0, 64, 104
1, 314251, Control_c, 0, 64, 101
1, 314265, Control_c, 0, 64, 99
1, 314295, Control_c, 0, 64, 95
1, 314310, Control_c, 0, 64, 94
1, 314325, Control_c, 0, 64, 92
1, 314339, Control_c, 0, 64, 89
1, 314354, Control_c, 0, 64, 87
1, 314369, Control_c, 0, 64, 85
1, 314384, Control_c, 0, 64, 83
1, 314399, Control_c, 0, 64, 80
1, 314414, Control_c, 0, 64, 77
1, 314428, Control_c, 0, 64, 75
1, 314443, Control_c, 0, 64, 73
1, 314459, Control_c, 0, 64, 72
1, 314462, Note_off_c, 0, 44, 37
1, 314474, Control_c, 0, 64, 71
1, 314488, Control_c, 0, 64, 70
1, 314503, Control_c, 0, 64, 68
1, 314518, Control_c, 0, 64, 66
1, 314533, Control_c, 0, 64, 65
1, 314563, Control_c, 0, 64, 64
1, 314592, Control_c, 0, 64, 63
1, 314607, Control_c, 0, 64, 63
1, 314622, Control_c, 0, 64, 62
1, 314637, Control_c, 0, 64, 62
1, 314696, Control_c, 0, 64, 61
1, 314711, Control_c, 0, 64, 61
1, 314726, Control_c, 0, 64, 60
1, 314748, Control_c, 0, 64, 59
1, 314762, Control_c, 0, 64, 57
1, 314777, Control_c, 0, 64, 56
1, 314792, Control_c, 0, 64, 55
1, 314807, Control_c, 0, 64, 54
1, 314822, Control_c, 0, 64, 54
1, 314837, Control_c, 0, 64, 53
1, 314867, Control_c, 0, 64, 54
1, 314882, Control_c, 0, 64, 54
1, 314896, Control_c, 0, 64, 55
1, 314911, Control_c, 0, 64, 56
1, 314926, Control_c, 0, 64, 58
1, 314941, Control_c, 0, 64, 59
1, 314956, Control_c, 0, 64, 61
1, 314970, Control_c, 0, 64, 63
1, 314985, Control_c, 0, 64, 64
1, 315000, Control_c, 0, 64, 66
1, 315014, Control_c, 0, 64, 67
1, 315029, Control_c, 0, 64, 68
1, 315044, Control_c, 0, 64, 70
1, 315059, Control_c, 0, 64, 72
1, 315074, Control_c, 0, 64, 75
1, 315088, Control_c, 0, 64, 77
1, 315103, Control_c, 0, 64, 79
1, 315118, Control_c, 0, 64, 81
1, 315133, Control_c, 0, 64, 84
1, 315148, Control_c, 0, 64, 87
1, 315162, Control_c, 0, 64, 90
1, 315177, Control_c, 0, 64, 93
1, 315192, Control_c, 0, 64, 97
1, 315207, Control_c, 0, 64, 101
1, 315221, Control_c, 0, 64, 105
1, 315236, Control_c, 0, 64, 112
1, 315251, Control_c, 0, 64, 127
1, 315356, Control_c, 0, 67, 125
1, 315370, Control_c, 0, 67, 119
1, 315385, Control_c, 0, 67, 114
1, 315400, Control_c, 0, 67, 110
1, 315415, Control_c, 0, 67, 106
1, 315429, Control_c, 0, 67, 103
1, 315444, Control_c, 0, 67, 98
1, 315459, Control_c, 0, 67, 92
1, 315474, Control_c, 0, 67, 87
1, 315496, Control_c, 0, 67, 83
1, 315511, Control_c, 0, 67, 78
1, 315525, Control_c, 0, 67, 73
1, 315540, Control_c, 0, 67, 68
1, 315555, Control_c, 0, 67, 62
1, 315570, Control_c, 0, 67, 55
1, 315585, Control_c, 0, 67, 49
1, 315600, Control_c, 0, 67, 43
1, 315615, Control_c, 0, 67, 37
1, 315630, Control_c, 0, 67, 31
1, 315644, Control_c, 0, 67, 25
1, 315659, Control_c, 0, 67, 19
1, 315674, Control_c, 0, 67, 0
1, 315975, Note_off_c, 0, 65, 24
1, 316143, Note_off_c, 0, 56, 29
1, 317216, Control_c, 0, 64, 121
1, 317231, Control_c, 0, 64, 118
1, 317261, Control_c, 0, 64, 115
1, 317262, Note_off_c, 0, 49, 28
1, 317290, Control_c, 0, 64, 112
1, 317320, Control_c, 0, 64, 109
1, 317335, Control_c, 0, 64, 107
1, 317365, Control_c, 0, 64, 105
1, 317394, Control_c, 0, 64, 103
1, 317402, Note_off_c, 0, 73, 23
1, 317439, Control_c, 0, 64, 101
1, 317528, Control_c, 0, 64, 99
1, 317631, Control_c, 0, 64, 97
1, 317743, Control_c, 0, 64, 96
1, 317758, Control_c, 0, 64, 95
1, 317803, Control_c, 0, 64, 95
1, 317818, Control_c, 0, 64, 94
1, 317862, Control_c, 0, 64, 94
1, 317906, Control_c, 0, 64, 93
1, 317966, Control_c, 0, 64, 93
1, 317995, Control_c, 0, 64, 92
1, 318010, Control_c, 0, 64, 92
1, 318025, Control_c, 0, 64, 91
1, 318039, Control_c, 0, 64, 90
1, 318054, Control_c, 0, 64, 89
1, 318069, Control_c, 0, 64, 88
1, 318084, Control_c, 0, 64, 86
1, 318099, Control_c, 0, 64, 85
1, 318113, Control_c, 0, 64, 85
1, 318128, Control_c, 0, 64, 84
1, 318158, Control_c, 0, 64, 83
1, 318217, Control_c, 0, 64, 83
1, 318566, Control_c, 0, 64, 82
1, 318966, Control_c, 0, 64, 82
1, 319241, Control_c, 0, 64, 81
1, 319257, Control_c, 0, 64, 81
1, 319272, Control_c, 0, 64, 80
1, 319301, Control_c, 0, 64, 80
1, 319331, Control_c, 0, 64, 79
1, 319346, Control_c, 0, 64, 79
1, 319375, Control_c, 0, 64, 78
1, 319434, Control_c, 0, 64, 78
1, 319478, Control_c, 0, 64, 77
1, 319493, Control_c, 0, 64, 77
1, 319508, Control_c, 0, 64, 76
1, 319523, Control_c, 0, 64, 76
1, 319627, Control_c, 0, 64, 75
1, 319657, Control_c, 0, 64, 75
1, 319716, Control_c, 0, 64, 74
1, 319789, Control_c, 0, 64, 74
1, 319803, Control_c, 0, 64, 73
1, 319907, Control_c, 0, 64, 73
1, 320033, Control_c, 0, 64, 72
1, 320079, Control_c, 0, 64, 72
1, 320123, Control_c, 0, 64, 71
1, 320138, Control_c, 0, 64, 71
1, 320152, Control_c, 0, 64, 70
1, 320212, Control_c, 0, 64, 70
1, 320241, Control_c, 0, 64, 69
1, 320316, Control_c, 0, 64, 69
1, 320346, Control_c, 0, 64, 68
1, 320434, Control_c, 0, 64, 68
1, 320449, Control_c, 0, 64, 67
1, 320464, Control_c, 0, 64, 66
1, 320479, Control_c, 0, 64, 66
1, 320567, Control_c, 0, 64, 65
1, 320597, Control_c, 0, 64, 65
1, 320641, Control_c, 0, 64, 64
1, 320671, Control_c, 0, 64, 64
1, 320767, Control_c, 0, 64, 63
1, 320826, Control_c, 0, 64, 63
1, 320857, Control_c, 0, 64, 62
1, 320902, Control_c, 0, 64, 62
1, 320990, Control_c, 0, 64, 61
1, 321035, Control_c, 0, 64, 61
1, 321064, Control_c, 0, 64, 60
1, 321079, Control_c, 0, 64, 60
1, 321094, Control_c, 0, 64, 59
1, 321109, Control_c, 0, 64, 59
1, 321124, Control_c, 0, 64, 58
1, 321139, Control_c, 0, 64, 58
1, 321168, Control_c, 0, 64, 57
1, 321198, Control_c, 0, 64, 57
1, 321213, Control_c, 0, 64, 56
1, 321228, Control_c, 0, 64, 56
1, 321243, Control_c, 0, 64, 55
1, 321317, Control_c, 0, 64, 55
1, 321347, Control_c, 0, 64, 54
1, 321362, Control_c, 0, 64, 54
1, 321391, Control_c, 0, 64, 53
1, 321450, Control_c, 0, 64, 53
1, 321465, Control_c, 0, 64, 52
1, 321487, Control_c, 0, 64, 50
1, 321502, Control_c, 0, 64, 47
1, 321517, Control_c, 0, 64, 44
1, 321532, Control_c, 0, 64, 38
1, 321547, Control_c, 0, 64, 31
1, 321562, Control_c, 0, 64, 0
1, 321562, End_track
0, 0, End_of_file
