0, 0, Header, 0, 1, 384
1, 0, Start_track
1, 0, Title_t, "SonataHob.XVI/46-Mikhail Shiyaev"
1, 0, Text_t, "2009 Piano-e-Competition audition round"
1, 0, Text_t, "captured January 2009"
1, 0, Text_t, "http://www.piano-e-competition.com/"
1, 0, Text_t, "File processed for distribution by software from Zenph Studios, Inc., http://www.zenph.com"
1, 0, Instrument_name_t, "Yamaha Disklavier Pro Mark IV concert grand piano, model DCFIIISM4PRO"
1, 0, Sequencer_specific, 39, 67, 113, 0, 1, 0, 1, 0, 83, 111, 110, 97, 116, 97, 72, 111, 98, 46, 88, 86, 73, 47, 52, 54, 77, 105, 107, 104, 97, 105, 108, 32, 83, 104, 105, 121, 97, 101, 118, 32
1, 0, Sequencer_specific, 6, 67, 113, 0, 0, 0, 69
1, 0, System_exclusive, 21, 67, 113, 126, 21, 0, 2, 2, 0, 3, 14, 1, 4, 1, 13, 13, 10, 11, 9, 2, 7, 247
1, 0, Sequencer_specific, 5, 67, 123, 12, 2, 1
1, 0, Tempo, 512820
1, 0, Time_signature, 4, 2, 24, 8
1, 0, System_exclusive, 5, 126, 127, 9, 1, 247
1, 1, System_exclusive, 8, 67, 16, 76, 0, 0, 126, 0, 247
1, 2, System_exclusive, 8, 67, 16, 76, 8, 9, 7, 1, 247
1, 3, Control_c, 0, 0, 0
1, 3, Control_c, 1, 0, 0
1, 3, Control_c, 2, 0, 0
1, 3, Control_c, 3, 0, 0
1, 3, Control_c, 4, 0, 0
1, 3, Control_c, 5, 0, 0
1, 3, Control_c, 6, 0, 0
1, 3, Control_c, 7, 0, 0
1, 3, Control_c, 8, 0, 0
1, 3, Control_c, 9, 0, 127
1, 3, Control_c, 10, 0, 0
1, 3, Control_c, 11, 0, 0
1, 3, Control_c, 12, 0, 0
1, 3, Control_c, 13, 0, 0
1, 3, Control_c, 14, 0, 0
1, 3, Control_c, 15, 0, 0
1, 4, Control_c, 0, 32, 0
1, 4, Control_c, 1, 32, 0
1, 4, Control_c, 2, 32, 0
1, 4, Control_c, 3, 32, 0
1, 4, Control_c, 4, 32, 0
1, 4, Control_c, 5, 32, 0
1, 4, Control_c, 6, 32, 0
1, 4, Control_c, 7, 32, 0
1, 4, Control_c, 8, 32, 0
1, 4, Control_c, 9, 32, 0
1, 4, Control_c, 10, 32, 0
1, 4, Control_c, 11, 32, 0
1, 4, Control_c, 12, 32, 0
1, 4, Control_c, 13, 32, 0
1, 4, Control_c, 14, 32, 0
1, 4, Control_c, 15, 32, 0
1, 5, Program_c, 0, 0
1, 5, Program_c, 1, 0
1, 5, Program_c, 2, 0
1, 5, Program_c, 3, 0
1, 5, Program_c, 4, 0
1, 5, Program_c, 5, 0
1, 5, Program_c, 6, 0
1, 5, Program_c, 7, 0
1, 5, Program_c, 8, 0
1, 5, Program_c, 9, 0
1, 5, Program_c, 10, 0
1, 5, Program_c, 11, 0
1, 5, Program_c, 12, 0
1, 5, Program_c, 13, 0
1, 5, Program_c, 14, 0
1, 5, Program_c, 15, 0
1, 6, Control_c, 0, 7, 100
1, 6, Control_c, 1, 7, 100
1, 6, Control_c, 2, 7, 100
1, 6, Control_c, 3, 7, 100
1, 6, Control_c, 4, 7, 100
1, 6, Control_c, 5, 7, 100
1, 6, Control_c, 6, 7, 100
1, 6, Control_c, 7, 7, 100
1, 6, Control_c, 8, 7, 100
1, 6, Control_c, 9, 7, 100
1, 6, Control_c, 10, 7, 100
1, 6, Control_c, 11, 7, 100
1, 6, Control_c, 12, 7, 100
1, 6, Control_c, 13, 7, 100
1, 6, Control_c, 14, 7, 100
1, 6, Control_c, 15, 7, 100
1, 117, Control_c, 0, 64, 3
1, 229, Control_c, 0, 64, 6
1, 341, Control_c, 0, 64, 9
1, 452, Control_c, 0, 64, 12
1, 564, Control_c, 0, 64, 15
1, 676, Control_c, 0, 64, 18
1, 787, Control_c, 0, 64, 21
1, 899, Control_c, 0, 64, 25
1, 1129, Note_on_c, 0, 68, 62
1, 1148, Control_c, 0, 64, 24
1, 1160, Note_off_c, 0, 68, 67
1, 1177, Control_c, 0, 64, 23
1, 1181, Note_on_c, 0, 67, 66
1, 1221, Control_c, 0, 64, 23
1, 1226, Note_on_c, 0, 68, 74
1, 1245, Note_off_c, 0, 67, 45
1, 1251, Control_c, 0, 64, 22
1, 1265, Control_c, 0, 64, 22
1, 1295, Control_c, 0, 64, 21
1, 1310, Control_c, 0, 64, 21
1, 1325, Control_c, 0, 64, 20
1, 1340, Control_c, 0, 64, 20
1, 1429, Control_c, 0, 64, 19
1, 1495, Note_on_c, 0, 60, 48
1, 1495, Control_c, 0, 64, 18
1, 1497, Note_on_c, 0, 56, 51
1, 1510, Control_c, 0, 64, 17
1, 1525, Control_c, 0, 64, 14
1, 1540, Note_off_c, 0, 56, 61
1, 1540, Control_c, 0, 64, 0
1, 1543, Note_off_c, 0, 60, 58
1, 1673, Control_c, 0, 64, 17
1, 1688, Control_c, 0, 64, 39
1, 1702, Control_c, 0, 64, 51
1, 1717, Control_c, 0, 64, 55
1, 1732, Control_c, 0, 64, 58
1, 1747, Control_c, 0, 64, 60
1, 1762, Control_c, 0, 64, 62
1, 1776, Control_c, 0, 64, 64
1, 1791, Control_c, 0, 64, 65
1, 1805, Note_on_c, 0, 60, 49
1, 1806, Note_on_c, 0, 56, 49
1, 1807, Control_c, 0, 64, 67
1, 1822, Control_c, 0, 64, 70
1, 1837, Control_c, 0, 64, 73
1, 1852, Control_c, 0, 64, 76
1, 1855, Note_off_c, 0, 60, 57
1, 1862, Note_off_c, 0, 56, 58
1, 1867, Control_c, 0, 64, 78
1, 1881, Control_c, 0, 64, 78
1, 1999, Control_c, 0, 64, 77
1, 2014, Control_c, 0, 64, 76
1, 2029, Control_c, 0, 64, 75
1, 2044, Control_c, 0, 64, 72
1, 2059, Control_c, 0, 64, 69
1, 2073, Control_c, 0, 64, 66
1, 2077, Note_on_c, 0, 60, 48
1, 2088, Control_c, 0, 64, 63
1, 2089, Note_on_c, 0, 56, 44
1, 2103, Control_c, 0, 64, 60
1, 2118, Control_c, 0, 64, 57
1, 2127, Note_off_c, 0, 60, 60
1, 2133, Control_c, 0, 64, 52
1, 2136, Note_off_c, 0, 56, 59
1, 2148, Control_c, 0, 64, 47
1, 2163, Control_c, 0, 64, 42
1, 2178, Control_c, 0, 64, 38
1, 2192, Control_c, 0, 64, 35
1, 2207, Control_c, 0, 64, 32
1, 2229, Control_c, 0, 64, 30
1, 2244, Control_c, 0, 64, 27
1, 2259, Control_c, 0, 64, 25
1, 2273, Control_c, 0, 64, 24
1, 2288, Control_c, 0, 64, 24
1, 2318, Control_c, 0, 64, 23
1, 2333, Control_c, 0, 64, 23
1, 2338, Note_on_c, 0, 77, 78
1, 2348, Control_c, 0, 64, 22
1, 2362, Control_c, 0, 64, 21
1, 2392, Control_c, 0, 64, 20
1, 2407, Control_c, 0, 64, 20
1, 2437, Control_c, 0, 64, 19
1, 2466, Control_c, 0, 64, 18
1, 2480, Note_on_c, 0, 75, 71
1, 2481, Control_c, 0, 64, 17
1, 2490, Note_off_c, 0, 68, 50
1, 2496, Control_c, 0, 64, 17
1, 2511, Control_c, 0, 64, 16
1, 2525, Control_c, 0, 64, 15
1, 2540, Control_c, 0, 64, 15
1, 2555, Control_c, 0, 64, 14
1, 2570, Control_c, 0, 64, 13
1, 2573, Note_off_c, 0, 77, 59
1, 2585, Control_c, 0, 64, 12
1, 2601, Control_c, 0, 64, 11
1, 2616, Control_c, 0, 64, 10
1, 2630, Control_c, 0, 64, 9
1, 2637, Note_on_c, 0, 58, 53
1, 2642, Note_on_c, 0, 55, 45
1, 2645, Control_c, 0, 64, 0
1, 2677, Note_off_c, 0, 58, 61
1, 2678, Note_off_c, 0, 55, 60
1, 2882, Control_c, 0, 64, 32
1, 2896, Control_c, 0, 64, 46
1, 2911, Control_c, 0, 64, 54
1, 2917, Note_on_c, 0, 55, 45
1, 2921, Note_on_c, 0, 58, 51
1, 2926, Control_c, 0, 64, 59
1, 2941, Control_c, 0, 64, 62
1, 2956, Control_c, 0, 64, 64
1, 2978, Control_c, 0, 64, 65
1, 2979, Note_off_c, 0, 55, 58
1, 2979, Note_off_c, 0, 58, 57
1, 2993, Control_c, 0, 64, 67
1, 3008, Control_c, 0, 64, 68
1, 3022, Control_c, 0, 64, 68
1, 3191, Note_on_c, 0, 58, 57
1, 3196, Note_on_c, 0, 55, 49
1, 3200, Control_c, 0, 64, 68
1, 3215, Control_c, 0, 64, 67
1, 3230, Control_c, 0, 64, 67
1, 3230, Note_off_c, 0, 58, 63
1, 3232, Note_off_c, 0, 55, 64
1, 3245, Control_c, 0, 64, 65
1, 3260, Control_c, 0, 64, 63
1, 3274, Control_c, 0, 64, 60
1, 3289, Control_c, 0, 64, 55
1, 3304, Control_c, 0, 64, 50
1, 3316, Note_off_c, 0, 75, 63
1, 3318, Note_on_c, 0, 73, 65
1, 3319, Control_c, 0, 64, 45
1, 3334, Control_c, 0, 64, 39
1, 3348, Control_c, 0, 64, 30
1, 3360, Note_off_c, 0, 73, 60
1, 3363, Control_c, 0, 64, 19
1, 3378, Control_c, 0, 64, 0
1, 3448, Note_on_c, 0, 73, 76
1, 3690, Control_c, 0, 64, 35
1, 3691, Note_on_c, 0, 63, 56
1, 3692, Note_on_c, 0, 56, 51
1, 3704, Control_c, 0, 64, 48
1, 3727, Control_c, 0, 64, 55
1, 3736, Note_off_c, 0, 63, 63
1, 3740, Note_off_c, 0, 56, 61
1, 3742, Control_c, 0, 64, 59
1, 3757, Control_c, 0, 64, 61
1, 3772, Control_c, 0, 64, 62
1, 3786, Control_c, 0, 64, 63
1, 3801, Control_c, 0, 64, 63
1, 3875, Control_c, 0, 64, 63
1, 3890, Control_c, 0, 64, 62
1, 3904, Control_c, 0, 64, 61
1, 3916, Note_off_c, 0, 73, 64
1, 3919, Control_c, 0, 64, 59
1, 3934, Note_on_c, 0, 72, 65
1, 3934, Control_c, 0, 64, 55
1, 3949, Control_c, 0, 64, 51
1, 3959, Note_on_c, 0, 63, 50
1, 3963, Note_on_c, 0, 56, 52
1, 3964, Control_c, 0, 64, 46
1, 3978, Control_c, 0, 64, 41
1, 3980, Note_off_c, 0, 72, 57
1, 3993, Note_on_c, 0, 73, 59
1, 3993, Control_c, 0, 64, 37
1, 3994, Note_off_c, 0, 63, 64
1, 4001, Note_off_c, 0, 56, 61
1, 4008, Control_c, 0, 64, 34
1, 4023, Control_c, 0, 64, 31
1, 4038, Control_c, 0, 64, 28
1, 4050, Note_on_c, 0, 72, 58
1, 4053, Control_c, 0, 64, 25
1, 4068, Note_off_c, 0, 73, 58
1, 4068, Control_c, 0, 64, 23
1, 4082, Control_c, 0, 64, 20
1, 4097, Control_c, 0, 64, 17
1, 4112, Control_c, 0, 64, 16
1, 4127, Control_c, 0, 64, 13
1, 4142, Control_c, 0, 64, 11
1, 4157, Control_c, 0, 64, 8
1, 4171, Control_c, 0, 64, 0
1, 4217, Note_on_c, 0, 63, 55
1, 4224, Note_on_c, 0, 56, 47
1, 4256, Note_off_c, 0, 63, 62
1, 4264, Note_off_c, 0, 56, 63
1, 4305, Control_c, 0, 67, 8
1, 4319, Control_c, 0, 67, 9
1, 4349, Control_c, 0, 67, 10
1, 4364, Note_off_c, 0, 72, 55
1, 4364, Control_c, 0, 67, 10
1, 4366, Note_on_c, 0, 73, 70
1, 4379, Control_c, 0, 67, 11
1, 4446, Note_off_c, 0, 73, 65
1, 4498, Note_on_c, 0, 72, 74
1, 4505, Control_c, 0, 67, 11
1, 4520, Control_c, 0, 67, 12
1, 4534, Control_c, 0, 67, 13
1, 4549, Control_c, 0, 67, 15
1, 4564, Control_c, 0, 67, 17
1, 4579, Control_c, 0, 67, 19
1, 4594, Control_c, 0, 67, 19
1, 4623, Control_c, 0, 67, 19
1, 4638, Control_c, 0, 67, 18
1, 4653, Control_c, 0, 67, 18
1, 4668, Control_c, 0, 67, 17
1, 4682, Control_c, 0, 67, 15
1, 4697, Control_c, 0, 67, 15
1, 4712, Control_c, 0, 67, 14
1, 4726, Control_c, 0, 67, 14
1, 4735, Note_on_c, 0, 65, 56
1, 4737, Note_on_c, 0, 61, 57
1, 4741, Control_c, 0, 67, 13
1, 4756, Control_c, 0, 64, 24
1, 4756, Control_c, 0, 67, 12
1, 4771, Control_c, 0, 64, 38
1, 4771, Control_c, 0, 67, 12
1, 4774, Note_off_c, 0, 65, 62
1, 4777, Note_off_c, 0, 61, 62
1, 4786, Control_c, 0, 64, 46
1, 4786, Control_c, 0, 67, 11
1, 4801, Control_c, 0, 64, 49
1, 4816, Control_c, 0, 64, 50
1, 4816, Control_c, 0, 67, 11
1, 4831, Control_c, 0, 64, 52
1, 4845, Control_c, 0, 64, 52
1, 4845, Control_c, 0, 67, 10
1, 4905, Control_c, 0, 64, 51
1, 4919, Control_c, 0, 64, 49
1, 4919, Control_c, 0, 67, 10
1, 4934, Control_c, 0, 64, 45
1, 4944, Note_off_c, 0, 72, 58
1, 4949, Control_c, 0, 64, 38
1, 4964, Control_c, 0, 64, 23
1, 4971, Note_on_c, 0, 70, 63
1, 4979, Control_c, 0, 64, 0
1, 4993, Note_on_c, 0, 61, 54
1, 4993, Note_on_c, 0, 65, 51
1, 5011, Note_off_c, 0, 70, 63
1, 5026, Note_on_c, 0, 72, 53
1, 5034, Note_off_c, 0, 65, 58
1, 5036, Note_off_c, 0, 61, 60
1, 5054, Control_c, 0, 67, 10
1, 5069, Control_c, 0, 67, 12
1, 5084, Control_c, 0, 67, 12
1, 5086, Note_off_c, 0, 72, 53
1, 5089, Note_on_c, 0, 70, 60
1, 5098, Control_c, 0, 67, 14
1, 5113, Control_c, 0, 67, 15
1, 5128, Control_c, 0, 67, 16
1, 5142, Control_c, 0, 67, 17
1, 5157, Control_c, 0, 67, 19
1, 5172, Control_c, 0, 67, 20
1, 5187, Control_c, 0, 67, 21
1, 5202, Control_c, 0, 67, 23
1, 5224, Control_c, 0, 67, 29
1, 5239, Control_c, 0, 67, 34
1, 5254, Control_c, 0, 67, 40
1, 5268, Control_c, 0, 67, 44
1, 5281, Note_on_c, 0, 65, 49
1, 5283, Control_c, 0, 67, 47
1, 5294, Note_on_c, 0, 61, 44
1, 5298, Control_c, 0, 67, 49
1, 5320, Note_off_c, 0, 65, 61
1, 5328, Control_c, 0, 67, 48
1, 5329, Note_off_c, 0, 61, 58
1, 5343, Control_c, 0, 67, 48
1, 5357, Control_c, 0, 67, 47
1, 5387, Control_c, 0, 67, 47
1, 5402, Control_c, 0, 67, 46
1, 5431, Control_c, 0, 67, 46
1, 5439, Note_off_c, 0, 70, 58
1, 5440, Note_on_c, 0, 72, 58
1, 5446, Control_c, 0, 67, 46
1, 5461, Control_c, 0, 67, 47
1, 5490, Control_c, 0, 67, 48
1, 5505, Control_c, 0, 67, 48
1, 5520, Control_c, 0, 67, 49
1, 5535, Control_c, 0, 67, 49
1, 5549, Control_c, 0, 67, 50
1, 5557, Note_off_c, 0, 72, 53
1, 5564, Control_c, 0, 67, 51
1, 5579, Control_c, 0, 67, 52
1, 5588, Note_on_c, 0, 70, 57
1, 5594, Control_c, 0, 67, 55
1, 5609, Control_c, 0, 67, 58
1, 5624, Control_c, 0, 67, 63
1, 5638, Control_c, 0, 67, 68
1, 5653, Control_c, 0, 67, 73
1, 5668, Control_c, 0, 67, 75
1, 5683, Control_c, 0, 67, 78
1, 5698, Control_c, 0, 67, 81
1, 5713, Control_c, 0, 67, 85
1, 5728, Control_c, 0, 67, 90
1, 5742, Control_c, 0, 67, 92
1, 5757, Control_c, 0, 67, 94
1, 5772, Control_c, 0, 67, 97
1, 5787, Control_c, 0, 67, 99
1, 5802, Control_c, 0, 67, 101
1, 5817, Control_c, 0, 67, 104
1, 5832, Control_c, 0, 67, 105
1, 5847, Control_c, 0, 67, 106
1, 5853, Note_on_c, 0, 63, 57
1, 5862, Control_c, 0, 67, 108
1, 5863, Note_on_c, 0, 60, 42
1, 5877, Control_c, 0, 67, 109
1, 5891, Note_off_c, 0, 63, 62
1, 5891, Control_c, 0, 67, 109
1, 5898, Note_off_c, 0, 60, 59
1, 6002, Control_c, 0, 67, 109
1, 6047, Control_c, 0, 67, 108
1, 6077, Control_c, 0, 67, 108
1, 6080, Note_off_c, 0, 70, 59
1, 6113, Note_on_c, 0, 68, 54
1, 6131, Note_on_c, 0, 63, 47
1, 6135, Note_on_c, 0, 60, 47
1, 6137, Note_off_c, 0, 68, 61
1, 6154, Note_on_c, 0, 70, 49
1, 6167, Note_off_c, 0, 63, 62
1, 6169, Note_off_c, 0, 60, 61
1, 6180, Control_c, 0, 67, 108
1, 6193, Note_off_c, 0, 70, 58
1, 6216, Note_on_c, 0, 68, 59
1, 6358, Control_c, 0, 67, 108
1, 6380, Note_off_c, 0, 68, 62
1, 6402, Control_c, 0, 67, 107
1, 6409, Note_on_c, 0, 67, 55
1, 6466, Note_on_c, 0, 68, 55
1, 6472, Note_off_c, 0, 67, 52
1, 6473, Note_on_c, 0, 63, 48
1, 6478, Note_on_c, 0, 60, 43
1, 6511, Note_off_c, 0, 60, 60
1, 6512, Note_off_c, 0, 63, 60
1, 6580, Control_c, 0, 67, 107
1, 6685, Control_c, 0, 67, 106
1, 6717, Note_off_c, 0, 68, 62
1, 6736, Control_c, 0, 67, 106
1, 6750, Note_on_c, 0, 70, 46
1, 6783, Note_off_c, 0, 70, 59
1, 6795, Control_c, 0, 67, 105
1, 6822, Note_on_c, 0, 68, 49
1, 6855, Control_c, 0, 67, 105
1, 6879, Note_on_c, 0, 60, 34
1, 6887, Note_on_c, 0, 63, 23
1, 6899, Control_c, 0, 67, 104
1, 6914, Control_c, 0, 67, 104
1, 6944, Control_c, 0, 67, 103
1, 6959, Control_c, 0, 67, 103
1, 6974, Control_c, 0, 67, 101
1, 6988, Control_c, 0, 64, 31
1, 6988, Control_c, 0, 67, 101
1, 7003, Control_c, 0, 64, 44
1, 7003, Control_c, 0, 67, 100
1, 7018, Control_c, 0, 64, 52
1, 7018, Control_c, 0, 67, 100
1, 7033, Control_c, 0, 64, 56
1, 7033, Control_c, 0, 67, 99
1, 7048, Control_c, 0, 64, 59
1, 7048, Control_c, 0, 67, 98
1, 7062, Control_c, 0, 64, 62
1, 7062, Control_c, 0, 67, 97
1, 7077, Control_c, 0, 64, 63
1, 7077, Control_c, 0, 67, 95
1, 7092, Control_c, 0, 64, 65
1, 7092, Control_c, 0, 67, 94
1, 7097, Note_off_c, 0, 60, 55
1, 7107, Note_off_c, 0, 63, 45
1, 7107, Control_c, 0, 64, 66
1, 7107, Control_c, 0, 67, 92
1, 7121, Control_c, 0, 64, 68
1, 7121, Control_c, 0, 67, 90
1, 7133, Note_off_c, 0, 68, 53
1, 7136, Control_c, 0, 64, 69
1, 7136, Control_c, 0, 67, 89
1, 7151, Control_c, 0, 64, 70
1, 7151, Control_c, 0, 67, 87
1, 7166, Control_c, 0, 67, 85
1, 7182, Control_c, 0, 64, 70
1, 7182, Control_c, 0, 67, 82
1, 7196, Control_c, 0, 67, 78
1, 7211, Control_c, 0, 67, 72
1, 7226, Control_c, 0, 67, 66
1, 7240, Control_c, 0, 67, 58
1, 7255, Control_c, 0, 67, 46
1, 7270, Control_c, 0, 67, 35
1, 7285, Control_c, 0, 67, 24
1, 7300, Control_c, 0, 67, 12
1, 7314, Control_c, 0, 67, 0
1, 7329, Control_c, 0, 64, 70
1, 7359, Control_c, 0, 64, 69
1, 7374, Control_c, 0, 64, 69
1, 7390, Control_c, 0, 64, 68
1, 7405, Control_c, 0, 64, 66
1, 7419, Control_c, 0, 64, 63
1, 7434, Control_c, 0, 64, 59
1, 7449, Control_c, 0, 64, 53
1, 7472, Control_c, 0, 64, 45
1, 7487, Control_c, 0, 64, 37
1, 7501, Control_c, 0, 64, 28
1, 7516, Control_c, 0, 64, 13
1, 7531, Control_c, 0, 64, 0
1, 7972, Note_on_c, 0, 80, 55
1, 8072, Note_off_c, 0, 80, 59
1, 8101, Note_on_c, 0, 84, 60
1, 8197, Note_on_c, 0, 82, 66
1, 8239, Note_off_c, 0, 84, 57
1, 8283, Note_on_c, 0, 80, 67
1, 8327, Note_off_c, 0, 82, 57
1, 8367, Note_on_c, 0, 79, 62
1, 8376, Note_off_c, 0, 80, 61
1, 8416, Note_off_c, 0, 79, 64
1, 8438, Note_on_c, 0, 77, 64
1, 8498, Note_off_c, 0, 77, 58
1, 8529, Note_on_c, 0, 75, 69
1, 8607, Note_on_c, 0, 73, 68
1, 8612, Note_off_c, 0, 75, 63
1, 8666, Note_off_c, 0, 73, 64
1, 8688, Note_on_c, 0, 72, 62
1, 8764, Note_on_c, 0, 70, 70
1, 8764, Note_off_c, 0, 72, 59
1, 8854, Note_on_c, 0, 68, 73
1, 8915, Note_off_c, 0, 70, 52
1, 8931, Note_on_c, 0, 67, 71
1, 9001, Note_off_c, 0, 68, 55
1, 9037, Note_on_c, 0, 65, 70
1, 9043, Note_off_c, 0, 67, 63
1, 9291, Note_on_c, 0, 56, 53
1, 9297, Note_on_c, 0, 49, 49
1, 9322, Note_off_c, 0, 56, 60
1, 9335, Note_off_c, 0, 49, 61
1, 9546, Control_c, 0, 64, 34
1, 9546, Note_on_c, 0, 56, 55
1, 9551, Note_on_c, 0, 49, 50
1, 9561, Control_c, 0, 64, 48
1, 9576, Control_c, 0, 64, 56
1, 9590, Control_c, 0, 64, 60
1, 9603, Note_off_c, 0, 56, 62
1, 9605, Control_c, 0, 64, 62
1, 9613, Note_off_c, 0, 49, 57
1, 9620, Control_c, 0, 64, 63
1, 9634, Control_c, 0, 64, 65
1, 9649, Control_c, 0, 64, 66
1, 9664, Control_c, 0, 64, 68
1, 9679, Control_c, 0, 64, 69
1, 9791, Control_c, 0, 64, 68
1, 9806, Control_c, 0, 64, 67
1, 9821, Control_c, 0, 64, 65
1, 9836, Control_c, 0, 64, 62
1, 9845, Note_on_c, 0, 58, 59
1, 9850, Note_on_c, 0, 49, 57
1, 9850, Control_c, 0, 64, 58
1, 9865, Control_c, 0, 64, 52
1, 9880, Control_c, 0, 64, 48
1, 9889, Note_off_c, 0, 58, 61
1, 9893, Note_off_c, 0, 49, 60
1, 9895, Control_c, 0, 64, 43
1, 9910, Control_c, 0, 64, 40
1, 9925, Control_c, 0, 64, 37
1, 9939, Control_c, 0, 64, 33
1, 9954, Control_c, 0, 64, 29
1, 9969, Control_c, 0, 64, 26
1, 9976, Note_on_c, 0, 67, 70
1, 9984, Control_c, 0, 64, 23
1, 9999, Control_c, 0, 64, 18
1, 10013, Control_c, 0, 64, 14
1, 10028, Control_c, 0, 64, 10
1, 10041, Note_off_c, 0, 65, 51
1, 10043, Control_c, 0, 64, 0
1, 10052, Note_off_c, 0, 67, 64
1, 10119, Note_on_c, 0, 67, 72
1, 10352, Note_on_c, 0, 51, 62
1, 10359, Note_on_c, 0, 48, 57
1, 10401, Note_off_c, 0, 51, 61
1, 10402, Note_off_c, 0, 48, 60
1, 10605, Note_on_c, 0, 68, 60
1, 10617, Note_on_c, 0, 51, 54
1, 10622, Note_on_c, 0, 48, 42
1, 10627, Note_off_c, 0, 67, 54
1, 10629, Control_c, 0, 64, 35
1, 10643, Control_c, 0, 64, 50
1, 10658, Control_c, 0, 64, 57
1, 10673, Control_c, 0, 64, 60
1, 10683, Note_off_c, 0, 51, 56
1, 10686, Note_off_c, 0, 48, 56
1, 10688, Control_c, 0, 64, 62
1, 10703, Control_c, 0, 64, 63
1, 10718, Control_c, 0, 64, 63
1, 10720, Note_off_c, 0, 68, 62
1, 10743, Note_on_c, 0, 72, 58
1, 10836, Note_on_c, 0, 70, 64
1, 10836, Control_c, 0, 64, 62
1, 10843, Note_off_c, 0, 72, 55
1, 10851, Control_c, 0, 64, 61
1, 10866, Control_c, 0, 64, 59
1, 10880, Control_c, 0, 64, 56
1, 10895, Control_c, 0, 64, 49
1, 10910, Control_c, 0, 64, 41
1, 10917, Note_on_c, 0, 53, 48
1, 10920, Note_on_c, 0, 49, 51
1, 10926, Control_c, 0, 64, 31
1, 10936, Note_on_c, 0, 68, 61
1, 10941, Control_c, 0, 64, 21
1, 10954, Note_off_c, 0, 49, 64
1, 10956, Control_c, 0, 64, 12
1, 10959, Note_off_c, 0, 53, 61
1, 10962, Note_off_c, 0, 70, 52
1, 10970, Control_c, 0, 64, 0
1, 11017, Note_on_c, 0, 67, 62
1, 11028, Note_off_c, 0, 68, 58
1, 11059, Note_off_c, 0, 67, 63
1, 11087, Note_on_c, 0, 65, 63
1, 11174, Note_off_c, 0, 65, 58
1, 11180, Note_on_c, 0, 63, 68
1, 11427, Note_on_c, 0, 60, 61
1, 11435, Note_on_c, 0, 51, 54
1, 11463, Note_off_c, 0, 60, 62
1, 11478, Note_off_c, 0, 51, 62
1, 11541, Note_on_c, 0, 60, 58
1, 11546, Note_off_c, 0, 63, 56
1, 11636, Note_on_c, 0, 61, 59
1, 11639, Note_off_c, 0, 60, 57
1, 11677, Note_off_c, 0, 61, 62
1, 11690, Note_on_c, 0, 63, 60
1, 11694, Note_on_c, 0, 51, 57
1, 11696, Note_on_c, 0, 58, 59
1, 11704, Control_c, 0, 64, 23
1, 11719, Control_c, 0, 64, 42
1, 11734, Note_off_c, 0, 58, 61
1, 11734, Control_c, 0, 64, 53
1, 11743, Note_off_c, 0, 51, 57
1, 11749, Control_c, 0, 64, 58
1, 11751, Note_off_c, 0, 63, 63
1, 11763, Note_on_c, 0, 61, 61
1, 11764, Control_c, 0, 64, 60
1, 11779, Control_c, 0, 64, 62
1, 11793, Control_c, 0, 64, 64
1, 11797, Note_off_c, 0, 61, 62
1, 11808, Control_c, 0, 64, 65
1, 11813, Note_on_c, 0, 63, 57
1, 11823, Control_c, 0, 64, 65
1, 11838, Control_c, 0, 64, 66
1, 11865, Note_off_c, 0, 63, 63
1, 11867, Control_c, 0, 64, 66
1, 11876, Note_on_c, 0, 61, 65
1, 11906, Note_on_c, 0, 58, 56
1, 11907, Note_on_c, 0, 51, 50
1, 11912, Note_off_c, 0, 61, 63
1, 11926, Control_c, 0, 64, 66
1, 11927, Note_off_c, 0, 58, 64
1, 11928, Note_on_c, 0, 63, 58
1, 11943, Note_off_c, 0, 51, 63
1, 11976, Note_off_c, 0, 63, 63
1, 11988, Note_on_c, 0, 61, 71
1, 12018, Note_off_c, 0, 61, 64
1, 12030, Note_on_c, 0, 60, 61
1, 12037, Control_c, 0, 64, 65
1, 12067, Control_c, 0, 64, 65
1, 12082, Control_c, 0, 64, 64
1, 12097, Control_c, 0, 64, 63
1, 12111, Control_c, 0, 64, 62
1, 12126, Control_c, 0, 64, 61
1, 12129, Note_off_c, 0, 60, 62
1, 12131, Note_on_c, 0, 61, 52
1, 12141, Control_c, 0, 64, 60
1, 12156, Control_c, 0, 64, 58
1, 12171, Control_c, 0, 64, 54
1, 12187, Note_off_c, 0, 61, 62
1, 12187, Control_c, 0, 64, 50
1, 12202, Control_c, 0, 64, 45
1, 12216, Control_c, 0, 64, 42
1, 12216, Control_c, 0, 67, 8
1, 12231, Control_c, 0, 64, 39
1, 12246, Control_c, 0, 64, 36
1, 12246, Control_c, 0, 67, 9
1, 12261, Control_c, 0, 64, 34
1, 12276, Control_c, 0, 64, 31
1, 12287, Note_on_c, 0, 61, 70
1, 12290, Control_c, 0, 64, 26
1, 12290, Control_c, 0, 67, 9
1, 12297, Note_on_c, 0, 58, 55
1, 12305, Control_c, 0, 64, 18
1, 12305, Control_c, 0, 67, 10
1, 12320, Control_c, 0, 64, 10
1, 12320, Control_c, 0, 67, 11
1, 12334, Control_c, 0, 64, 0
1, 12334, Control_c, 0, 67, 11
1, 12349, Control_c, 0, 67, 13
1, 12364, Control_c, 0, 67, 16
1, 12379, Control_c, 0, 67, 19
1, 12394, Control_c, 0, 67, 23
1, 12408, Control_c, 0, 67, 27
1, 12423, Control_c, 0, 67, 32
1, 12438, Control_c, 0, 67, 39
1, 12453, Control_c, 0, 67, 45
1, 12468, Control_c, 0, 67, 50
1, 12482, Control_c, 0, 67, 53
1, 12497, Control_c, 0, 67, 54
1, 12541, Control_c, 0, 67, 53
1, 12549, Note_on_c, 0, 56, 63
1, 12556, Note_on_c, 0, 44, 59
1, 12556, Control_c, 0, 67, 53
1, 12571, Control_c, 0, 67, 52
1, 12582, Note_off_c, 0, 56, 62
1, 12586, Control_c, 0, 67, 52
1, 12599, Note_off_c, 0, 44, 61
1, 12615, Control_c, 0, 67, 51
1, 12630, Control_c, 0, 67, 51
1, 12659, Control_c, 0, 67, 50
1, 12674, Control_c, 0, 67, 50
1, 12712, Control_c, 0, 67, 49
1, 12741, Control_c, 0, 67, 49
1, 12786, Control_c, 0, 67, 48
1, 12845, Control_c, 0, 67, 48
1, 12903, Note_on_c, 0, 60, 44
1, 12904, Control_c, 0, 67, 47
1, 12915, Note_on_c, 0, 56, 30
1, 12933, Note_on_c, 0, 51, 34
1, 12935, Note_on_c, 0, 44, 32
1, 12951, Note_off_c, 0, 58, 32
1, 12959, Note_off_c, 0, 61, 56
1, 12963, Control_c, 0, 67, 47
1, 13009, Control_c, 0, 64, 38
1, 13009, Control_c, 0, 67, 46
1, 13024, Control_c, 0, 64, 49
1, 13038, Note_off_c, 0, 51, 37
1, 13038, Control_c, 0, 64, 56
1, 13053, Control_c, 0, 64, 60
1, 13053, Control_c, 0, 67, 46
1, 13058, Note_off_c, 0, 44, 34
1, 13068, Control_c, 0, 64, 62
1, 13082, Control_c, 0, 64, 64
1, 13082, Control_c, 0, 67, 45
1, 13097, Control_c, 0, 64, 65
1, 13112, Control_c, 0, 64, 67
1, 13112, Control_c, 0, 67, 45
1, 13127, Control_c, 0, 64, 69
1, 13142, Control_c, 0, 64, 69
1, 13156, Control_c, 0, 64, 70
1, 13173, Note_off_c, 0, 56, 53
1, 13186, Control_c, 0, 67, 44
1, 13200, Note_off_c, 0, 60, 62
1, 13216, Control_c, 0, 67, 44
1, 13229, Note_on_c, 0, 44, 39
1, 13240, Note_on_c, 0, 51, 40
1, 13246, Control_c, 0, 67, 43
1, 13276, Control_c, 0, 64, 69
1, 13276, Control_c, 0, 67, 43
1, 13276, Note_off_c, 0, 44, 58
1, 13279, Note_off_c, 0, 51, 61
1, 13290, Control_c, 0, 64, 68
1, 13290, Control_c, 0, 67, 42
1, 13305, Control_c, 0, 64, 67
1, 13305, Control_c, 0, 67, 41
1, 13320, Control_c, 0, 64, 65
1, 13320, Control_c, 0, 67, 41
1, 13335, Control_c, 0, 64, 63
1, 13335, Control_c, 0, 67, 40
1, 13350, Control_c, 0, 64, 60
1, 13350, Control_c, 0, 67, 40
1, 13364, Control_c, 0, 64, 57
1, 13364, Control_c, 0, 67, 39
1, 13379, Control_c, 0, 64, 54
1, 13379, Control_c, 0, 67, 38
1, 13394, Control_c, 0, 64, 52
1, 13394, Control_c, 0, 67, 34
1, 13409, Control_c, 0, 64, 49
1, 13409, Control_c, 0, 67, 30
1, 13423, Control_c, 0, 64, 46
1, 13423, Control_c, 0, 67, 25
1, 13438, Control_c, 0, 64, 42
1, 13438, Control_c, 0, 67, 21
1, 13460, Control_c, 0, 64, 40
1, 13460, Control_c, 0, 67, 18
1, 13475, Control_c, 0, 64, 37
1, 13475, Control_c, 0, 67, 16
1, 13490, Control_c, 0, 64, 34
1, 13490, Control_c, 0, 67, 13
1, 13505, Control_c, 0, 64, 31
1, 13505, Control_c, 0, 67, 11
1, 13520, Control_c, 0, 64, 29
1, 13520, Control_c, 0, 67, 8
1, 13535, Control_c, 0, 64, 27
1, 13535, Control_c, 0, 67, 0
1, 13550, Control_c, 0, 64, 26
1, 13564, Control_c, 0, 64, 26
1, 13579, Control_c, 0, 64, 25
1, 13592, Note_on_c, 0, 65, 64
1, 13624, Control_c, 0, 64, 25
1, 13638, Control_c, 0, 64, 24
1, 13653, Control_c, 0, 64, 23
1, 13668, Control_c, 0, 64, 23
1, 13682, Control_c, 0, 64, 22
1, 13858, Note_on_c, 0, 49, 57
1, 13858, Note_on_c, 0, 56, 52
1, 13890, Note_off_c, 0, 49, 64
1, 13895, Note_off_c, 0, 56, 62
1, 13936, Control_c, 0, 64, 21
1, 13951, Control_c, 0, 64, 20
1, 13966, Control_c, 0, 64, 17
1, 13980, Control_c, 0, 64, 0
1, 14113, Control_c, 0, 64, 17
1, 14119, Note_on_c, 0, 49, 60
1, 14122, Note_on_c, 0, 56, 58
1, 14128, Control_c, 0, 64, 31
1, 14143, Control_c, 0, 64, 37
1, 14158, Control_c, 0, 64, 39
1, 14163, Note_off_c, 0, 56, 60
1, 14175, Note_off_c, 0, 49, 61
1, 14225, Control_c, 0, 64, 39
1, 14233, Note_on_c, 0, 67, 57
1, 14240, Control_c, 0, 64, 38
1, 14255, Control_c, 0, 64, 37
1, 14258, Note_off_c, 0, 65, 60
1, 14269, Control_c, 0, 64, 35
1, 14284, Control_c, 0, 64, 32
1, 14299, Control_c, 0, 64, 30
1, 14304, Note_off_c, 0, 67, 63
1, 14307, Note_on_c, 0, 68, 66
1, 14313, Control_c, 0, 64, 28
1, 14328, Control_c, 0, 64, 27
1, 14343, Control_c, 0, 64, 26
1, 14358, Control_c, 0, 64, 25
1, 14373, Note_on_c, 0, 49, 55
1, 14373, Note_off_c, 0, 68, 63
1, 14373, Control_c, 0, 64, 25
1, 14378, Note_on_c, 0, 51, 47
1, 14398, Note_on_c, 0, 67, 69
1, 14414, Note_off_c, 0, 49, 61
1, 14420, Note_off_c, 0, 51, 62
1, 14465, Note_on_c, 0, 68, 72
1, 14473, Note_off_c, 0, 67, 58
1, 14492, Control_c, 0, 64, 24
1, 14538, Note_off_c, 0, 68, 64
1, 14553, Note_on_c, 0, 70, 52
1, 14597, Note_off_c, 0, 70, 60
1, 14619, Note_on_c, 0, 48, 56
1, 14624, Note_on_c, 0, 51, 50
1, 14627, Note_on_c, 0, 68, 67
1, 14694, Note_on_c, 0, 70, 71
1, 14729, Note_off_c, 0, 68, 63
1, 14729, Control_c, 0, 64, 24
1, 14744, Control_c, 0, 64, 23
1, 14755, Note_off_c, 0, 51, 58
1, 14762, Note_off_c, 0, 48, 60
1, 14774, Control_c, 0, 64, 23
1, 14778, Note_off_c, 0, 70, 63
1, 14781, Note_on_c, 0, 72, 69
1, 14789, Control_c, 0, 64, 22
1, 14818, Control_c, 0, 64, 21
1, 14826, Note_off_c, 0, 72, 58
1, 14833, Control_c, 0, 64, 21
1, 14877, Note_on_c, 0, 70, 74
1, 14907, Control_c, 0, 64, 19
1, 14922, Control_c, 0, 64, 16
1, 14936, Control_c, 0, 64, 10
1, 14944, Note_on_c, 0, 72, 75
1, 14959, Control_c, 0, 64, 0
1, 14977, Note_off_c, 0, 70, 61
1, 15028, Note_on_c, 0, 73, 73
1, 15032, Note_off_c, 0, 72, 63
1, 15067, Note_off_c, 0, 73, 63
1, 15121, Note_on_c, 0, 72, 80
1, 15189, Note_on_c, 0, 73, 74
1, 15210, Note_off_c, 0, 72, 58
1, 15269, Note_off_c, 0, 73, 64
1, 15273, Note_on_c, 0, 75, 76
1, 15344, Note_off_c, 0, 75, 60
1, 15372, Note_on_c, 0, 73, 73
1, 15448, Note_off_c, 0, 73, 64
1, 15451, Note_on_c, 0, 75, 75
1, 15526, Note_off_c, 0, 75, 62
1, 15532, Note_on_c, 0, 77, 74
1, 15633, Note_off_c, 0, 77, 65
1, 15639, Note_on_c, 0, 75, 69
1, 15742, Note_off_c, 0, 75, 60
1, 15744, Note_on_c, 0, 73, 58
1, 15809, Note_off_c, 0, 73, 64
1, 15833, Note_on_c, 0, 72, 56
1, 15886, Note_off_c, 0, 72, 54
1, 15915, Note_on_c, 0, 70, 64
1, 15986, Note_on_c, 0, 68, 66
1, 15998, Note_off_c, 0, 70, 56
1, 16053, Note_off_c, 0, 68, 63
1, 16069, Note_on_c, 0, 67, 69
1, 16140, Note_off_c, 0, 67, 60
1, 16158, Note_on_c, 0, 68, 63
1, 16220, Note_off_c, 0, 68, 57
1, 16285, Note_on_c, 0, 72, 57
1, 16405, Note_on_c, 0, 70, 65
1, 16471, Note_off_c, 0, 72, 35
1, 16511, Note_on_c, 0, 68, 70
1, 16556, Note_off_c, 0, 70, 57
1, 16583, Note_on_c, 0, 67, 69
1, 16614, Note_off_c, 0, 68, 63
1, 16632, Note_off_c, 0, 67, 60
1, 16656, Note_on_c, 0, 65, 65
1, 16750, Note_off_c, 0, 65, 60
1, 16752, Note_on_c, 0, 63, 71
1, 16793, Note_on_c, 0, 51, 56
1, 16793, Note_on_c, 0, 60, 63
1, 16834, Note_off_c, 0, 60, 60
1, 16853, Note_off_c, 0, 51, 59
1, 16914, Control_c, 0, 64, 31
1, 16929, Control_c, 0, 64, 49
1, 16944, Control_c, 0, 64, 56
1, 16959, Control_c, 0, 64, 59
1, 16975, Control_c, 0, 64, 60
1, 16990, Control_c, 0, 64, 61
1, 17004, Control_c, 0, 64, 61
1, 17020, Note_on_c, 0, 60, 61
1, 17034, Control_c, 0, 64, 61
1, 17035, Note_on_c, 0, 51, 52
1, 17049, Control_c, 0, 64, 59
1, 17050, Note_off_c, 0, 60, 64
1, 17064, Control_c, 0, 64, 57
1, 17078, Control_c, 0, 64, 54
1, 17082, Note_off_c, 0, 51, 59
1, 17093, Control_c, 0, 64, 52
1, 17108, Control_c, 0, 64, 50
1, 17122, Control_c, 0, 64, 48
1, 17128, Note_on_c, 0, 60, 60
1, 17137, Control_c, 0, 64, 45
1, 17145, Note_off_c, 0, 63, 58
1, 17152, Control_c, 0, 64, 41
1, 17152, Control_c, 0, 67, 8
1, 17167, Control_c, 0, 64, 37
1, 17167, Control_c, 0, 67, 10
1, 17182, Control_c, 0, 64, 30
1, 17182, Control_c, 0, 67, 12
1, 17204, Control_c, 0, 64, 0
1, 17204, Control_c, 0, 67, 15
1, 17218, Note_on_c, 0, 61, 60
1, 17219, Control_c, 0, 67, 18
1, 17225, Note_off_c, 0, 60, 56
1, 17234, Control_c, 0, 67, 21
1, 17249, Control_c, 0, 67, 24
1, 17259, Note_off_c, 0, 61, 62
1, 17264, Control_c, 0, 67, 28
1, 17271, Note_on_c, 0, 63, 67
1, 17278, Control_c, 0, 67, 30
1, 17279, Note_on_c, 0, 58, 59
1, 17282, Note_on_c, 0, 51, 49
1, 17293, Control_c, 0, 67, 31
1, 17308, Control_c, 0, 64, 33
1, 17308, Control_c, 0, 67, 32
1, 17309, Note_off_c, 0, 58, 67
1, 17321, Note_off_c, 0, 51, 62
1, 17323, Control_c, 0, 64, 47
1, 17337, Control_c, 0, 64, 53
1, 17337, Control_c, 0, 67, 33
1, 17338, Note_off_c, 0, 63, 61
1, 17344, Note_on_c, 0, 61, 63
1, 17352, Control_c, 0, 64, 55
1, 17352, Control_c, 0, 67, 37
1, 17367, Control_c, 0, 64, 56
1, 17367, Control_c, 0, 67, 42
1, 17374, Note_off_c, 0, 61, 64
1, 17380, Note_on_c, 0, 63, 55
1, 17382, Control_c, 0, 64, 58
1, 17382, Control_c, 0, 67, 48
1, 17397, Control_c, 0, 64, 59
1, 17397, Control_c, 0, 67, 54
1, 17411, Control_c, 0, 67, 60
1, 17426, Control_c, 0, 67, 65
1, 17432, Note_off_c, 0, 63, 60
1, 17441, Control_c, 0, 67, 70
1, 17454, Note_on_c, 0, 61, 61
1, 17455, Control_c, 0, 64, 58
1, 17455, Control_c, 0, 67, 74
1, 17470, Control_c, 0, 64, 57
1, 17470, Control_c, 0, 67, 76
1, 17483, Note_off_c, 0, 61, 65
1, 17485, Control_c, 0, 64, 55
1, 17485, Control_c, 0, 67, 77
1, 17488, Note_on_c, 0, 63, 66
1, 17491, Note_on_c, 0, 51, 44
1, 17497, Note_on_c, 0, 58, 47
1, 17500, Control_c, 0, 64, 54
1, 17500, Control_c, 0, 67, 76
1, 17515, Control_c, 0, 64, 52
1, 17529, Control_c, 0, 64, 50
1, 17537, Note_off_c, 0, 51, 60
1, 17541, Note_off_c, 0, 58, 61
1, 17544, Control_c, 0, 64, 47
1, 17544, Control_c, 0, 67, 76
1, 17547, Note_on_c, 0, 61, 76
1, 17551, Note_off_c, 0, 63, 63
1, 17559, Control_c, 0, 64, 44
1, 17559, Control_c, 0, 67, 75
1, 17574, Control_c, 0, 64, 42
1, 17574, Control_c, 0, 67, 75
1, 17589, Control_c, 0, 64, 39
1, 17589, Control_c, 0, 67, 74
1, 17602, Note_off_c, 0, 61, 64
1, 17604, Control_c, 0, 64, 36
1, 17604, Control_c, 0, 67, 73
1, 17610, Note_on_c, 0, 60, 72
1, 17619, Control_c, 0, 64, 35
1, 17619, Control_c, 0, 67, 72
1, 17634, Control_c, 0, 64, 33
1, 17634, Control_c, 0, 67, 72
1, 17648, Control_c, 0, 64, 31
1, 17648, Control_c, 0, 67, 71
1, 17663, Control_c, 0, 64, 30
1, 17663, Control_c, 0, 67, 71
1, 17676, Note_on_c, 0, 61, 75
1, 17678, Note_off_c, 0, 60, 62
1, 17678, Control_c, 0, 64, 28
1, 17678, Control_c, 0, 67, 70
1, 17693, Control_c, 0, 64, 27
1, 17693, Control_c, 0, 67, 70
1, 17708, Control_c, 0, 64, 27
1, 17716, Note_off_c, 0, 61, 59
1, 17723, Control_c, 0, 64, 26
1, 17738, Control_c, 0, 64, 25
1, 17768, Control_c, 0, 64, 25
1, 17768, Control_c, 0, 67, 69
1, 17783, Control_c, 0, 64, 23
1, 17798, Control_c, 0, 64, 22
1, 17798, Control_c, 0, 67, 69
1, 17804, Note_on_c, 0, 61, 77
1, 17813, Control_c, 0, 64, 19
1, 17817, Note_on_c, 0, 58, 56
1, 17827, Control_c, 0, 64, 17
1, 17827, Control_c, 0, 67, 68
1, 17842, Control_c, 0, 64, 13
1, 17857, Control_c, 0, 64, 8
1, 17857, Control_c, 0, 67, 68
1, 17872, Control_c, 0, 64, 0
1, 17887, Control_c, 0, 67, 67
1, 17917, Control_c, 0, 67, 67
1, 17968, Control_c, 0, 67, 66
1, 18013, Control_c, 0, 67, 66
1, 18071, Note_on_c, 0, 56, 57
1, 18075, Note_on_c, 0, 44, 54
1, 18105, Note_off_c, 0, 56, 61
1, 18122, Note_off_c, 0, 44, 55
1, 18131, Control_c, 0, 67, 65
1, 18206, Control_c, 0, 67, 65
1, 18265, Control_c, 0, 67, 64
1, 18309, Control_c, 0, 67, 64
1, 18339, Control_c, 0, 67, 63
1, 18363, Note_off_c, 0, 61, 51
1, 18368, Control_c, 0, 67, 62
1, 18375, Note_off_c, 0, 58, 45
1, 18383, Control_c, 0, 67, 59
1, 18386, Note_on_c, 0, 60, 48
1, 18389, Note_on_c, 0, 56, 30
1, 18398, Control_c, 0, 67, 55
1, 18412, Note_on_c, 0, 51, 33
1, 18412, Control_c, 0, 67, 50
1, 18419, Note_on_c, 0, 44, 34
1, 18427, Control_c, 0, 67, 43
1, 18441, Control_c, 0, 67, 35
1, 18456, Control_c, 0, 67, 27
1, 18471, Control_c, 0, 64, 8
1, 18471, Control_c, 0, 67, 17
1, 18486, Control_c, 0, 64, 42
1, 18486, Control_c, 0, 67, 9
1, 18501, Control_c, 0, 64, 52
1, 18501, Control_c, 0, 67, 0
1, 18516, Control_c, 0, 64, 58
1, 18528, Note_off_c, 0, 51, 33
1, 18531, Control_c, 0, 64, 62
1, 18545, Control_c, 0, 64, 64
1, 18560, Control_c, 0, 64, 66
1, 18565, Note_off_c, 0, 44, 32
1, 18576, Control_c, 0, 64, 69
1, 18590, Control_c, 0, 64, 72
1, 18605, Control_c, 0, 64, 74
1, 18613, Note_off_c, 0, 56, 49
1, 18620, Control_c, 0, 64, 75
1, 18627, Note_off_c, 0, 60, 59
1, 18635, Control_c, 0, 64, 76
1, 18665, Control_c, 0, 64, 77
1, 18680, Control_c, 0, 64, 77
1, 18731, Note_on_c, 0, 44, 36
1, 18740, Note_on_c, 0, 51, 27
1, 18774, Note_off_c, 0, 44, 50
1, 18775, Control_c, 0, 64, 77
1, 18783, Note_off_c, 0, 51, 49
1, 18790, Control_c, 0, 64, 76
1, 18805, Control_c, 0, 64, 74
1, 18820, Control_c, 0, 64, 71
1, 18835, Control_c, 0, 64, 66
1, 18850, Control_c, 0, 64, 62
1, 18865, Control_c, 0, 64, 57
1, 18880, Control_c, 0, 64, 52
1, 18895, Control_c, 0, 64, 49
1, 18909, Control_c, 0, 64, 45
1, 18924, Control_c, 0, 64, 41
1, 18939, Control_c, 0, 64, 37
1, 18954, Control_c, 0, 64, 35
1, 18969, Control_c, 0, 64, 34
1, 18983, Control_c, 0, 64, 33
1, 18998, Control_c, 0, 64, 32
1, 19013, Control_c, 0, 64, 32
1, 19028, Control_c, 0, 64, 31
1, 19163, Note_on_c, 0, 72, 80
1, 19190, Control_c, 0, 64, 30
1, 19205, Control_c, 0, 64, 30
1, 19219, Control_c, 0, 64, 29
1, 19249, Control_c, 0, 64, 28
1, 19263, Note_on_c, 0, 84, 81
1, 19264, Control_c, 0, 64, 27
1, 19294, Control_c, 0, 64, 27
1, 19303, Note_off_c, 0, 72, 61
1, 19309, Control_c, 0, 64, 26
1, 19324, Control_c, 0, 64, 25
1, 19369, Control_c, 0, 64, 25
1, 19384, Control_c, 0, 64, 24
1, 19398, Control_c, 0, 64, 23
1, 19413, Control_c, 0, 64, 22
1, 19428, Control_c, 0, 64, 22
1, 19451, Control_c, 0, 64, 21
1, 19466, Control_c, 0, 64, 21
1, 19495, Control_c, 0, 64, 20
1, 19510, Control_c, 0, 64, 19
1, 19524, Control_c, 0, 64, 18
1, 19525, Note_on_c, 0, 72, 55
1, 19530, Note_on_c, 0, 68, 54
1, 19539, Control_c, 0, 64, 15
1, 19552, Note_off_c, 0, 68, 64
1, 19554, Control_c, 0, 64, 0
1, 19557, Note_off_c, 0, 72, 64
1, 19762, Control_c, 0, 64, 33
1, 19777, Control_c, 0, 64, 46
1, 19792, Control_c, 0, 64, 54
1, 19806, Control_c, 0, 64, 59
1, 19810, Note_on_c, 0, 68, 60
1, 19812, Note_on_c, 0, 72, 58
1, 19821, Control_c, 0, 64, 62
1, 19836, Control_c, 0, 64, 63
1, 19840, Note_off_c, 0, 68, 66
1, 19846, Note_off_c, 0, 72, 62
1, 19851, Control_c, 0, 64, 65
1, 19866, Control_c, 0, 64, 66
1, 19880, Control_c, 0, 64, 67
1, 19895, Control_c, 0, 64, 67
1, 19932, Note_on_c, 0, 82, 61
1, 19945, Note_off_c, 0, 84, 62
1, 19984, Control_c, 0, 64, 67
1, 19995, Note_off_c, 0, 82, 63
1, 19998, Control_c, 0, 64, 65
1, 20006, Note_on_c, 0, 80, 68
1, 20013, Control_c, 0, 64, 64
1, 20028, Control_c, 0, 64, 62
1, 20042, Control_c, 0, 64, 59
1, 20048, Note_off_c, 0, 80, 57
1, 20057, Control_c, 0, 64, 55
1, 20060, Note_on_c, 0, 72, 56
1, 20067, Note_on_c, 0, 68, 48
1, 20072, Control_c, 0, 64, 51
1, 20073, Note_on_c, 0, 82, 74
1, 20087, Control_c, 0, 64, 47
1, 20090, Note_off_c, 0, 68, 61
1, 20095, Note_off_c, 0, 72, 63
1, 20102, Control_c, 0, 64, 43
1, 20117, Control_c, 0, 64, 38
1, 20132, Control_c, 0, 64, 33
1, 20147, Control_c, 0, 64, 27
1, 20148, Note_on_c, 0, 80, 80
1, 20162, Control_c, 0, 64, 20
1, 20177, Control_c, 0, 64, 0
1, 20222, Note_off_c, 0, 82, 59
1, 20223, Note_on_c, 0, 79, 76
1, 20263, Note_off_c, 0, 80, 62
1, 20287, Note_off_c, 0, 79, 66
1, 20293, Note_on_c, 0, 77, 76
1, 20319, Note_off_c, 0, 77, 67
1, 20391, Note_on_c, 0, 77, 81
1, 20631, Note_on_c, 0, 70, 56
1, 20638, Note_on_c, 0, 67, 49
1, 20668, Note_off_c, 0, 70, 60
1, 20674, Note_off_c, 0, 67, 54
1, 20841, Note_off_c, 0, 77, 63
1, 20851, Control_c, 0, 64, 39
1, 20865, Control_c, 0, 64, 50
1, 20874, Note_on_c, 0, 76, 63
1, 20880, Control_c, 0, 64, 56
1, 20886, Note_on_c, 0, 67, 48
1, 20891, Note_on_c, 0, 70, 46
1, 20895, Control_c, 0, 64, 59
1, 20907, Note_on_c, 0, 77, 66
1, 20907, Note_off_c, 0, 76, 63
1, 20910, Control_c, 0, 64, 60
1, 20925, Control_c, 0, 64, 61
1, 20928, Note_off_c, 0, 67, 54
1, 20932, Note_off_c, 0, 70, 55
1, 20975, Note_off_c, 0, 77, 59
1, 20986, Note_on_c, 0, 76, 72
1, 20993, Control_c, 0, 64, 60
1, 21008, Control_c, 0, 64, 59
1, 21023, Control_c, 0, 64, 58
1, 21038, Control_c, 0, 64, 55
1, 21052, Control_c, 0, 64, 51
1, 21067, Control_c, 0, 64, 48
1, 21082, Control_c, 0, 64, 43
1, 21096, Control_c, 0, 64, 38
1, 21111, Control_c, 0, 64, 34
1, 21126, Control_c, 0, 64, 30
1, 21141, Control_c, 0, 64, 27
1, 21156, Control_c, 0, 64, 26
1, 21169, Note_on_c, 0, 67, 47
1, 21170, Control_c, 0, 64, 25
1, 21172, Note_on_c, 0, 70, 54
1, 21185, Control_c, 0, 64, 24
1, 21200, Control_c, 0, 64, 23
1, 21215, Control_c, 0, 64, 22
1, 21219, Note_off_c, 0, 70, 61
1, 21229, Note_off_c, 0, 67, 59
1, 21230, Control_c, 0, 64, 21
1, 21244, Control_c, 0, 64, 20
1, 21259, Control_c, 0, 64, 19
1, 21274, Control_c, 0, 64, 19
1, 21283, Note_off_c, 0, 76, 53
1, 21289, Control_c, 0, 64, 18
1, 21303, Control_c, 0, 64, 18
1, 21308, Note_on_c, 0, 79, 77
1, 21318, Control_c, 0, 64, 17
1, 21468, Note_on_c, 0, 73, 77
1, 21484, Note_off_c, 0, 79, 57
1, 21497, Control_c, 0, 64, 17
1, 21527, Control_c, 0, 64, 16
1, 21542, Control_c, 0, 64, 16
1, 21616, Control_c, 0, 64, 15
1, 21738, Note_on_c, 0, 67, 51
1, 21744, Note_on_c, 0, 64, 45
1, 21792, Note_off_c, 0, 67, 58
1, 21794, Note_off_c, 0, 64, 61
1, 21831, Control_c, 0, 64, 15
1, 21846, Control_c, 0, 64, 14
1, 21861, Control_c, 0, 64, 8
1, 21875, Control_c, 0, 64, 0
1, 21947, Note_off_c, 0, 73, 64
1, 21967, Note_on_c, 0, 72, 65
1, 21991, Note_on_c, 0, 67, 52
1, 21993, Note_on_c, 0, 64, 51
1, 21994, Control_c, 0, 64, 33
1, 22009, Control_c, 0, 64, 47
1, 22010, Note_off_c, 0, 72, 60
1, 22018, Note_on_c, 0, 73, 56
1, 22024, Control_c, 0, 64, 52
1, 22039, Control_c, 0, 64, 52
1, 22039, Note_off_c, 0, 64, 59
1, 22040, Note_off_c, 0, 67, 57
1, 22068, Control_c, 0, 64, 51
1, 22072, Note_off_c, 0, 73, 60
1, 22077, Note_on_c, 0, 72, 63
1, 22083, Control_c, 0, 64, 48
1, 22098, Control_c, 0, 64, 43
1, 22113, Control_c, 0, 64, 35
1, 22127, Control_c, 0, 64, 23
1, 22142, Control_c, 0, 64, 13
1, 22157, Control_c, 0, 64, 10
1, 22172, Control_c, 0, 64, 8
1, 22187, Control_c, 0, 64, 0
1, 22265, Note_on_c, 0, 67, 50
1, 22273, Note_on_c, 0, 64, 47
1, 22317, Note_off_c, 0, 64, 60
1, 22326, Note_off_c, 0, 67, 58
1, 22382, Note_off_c, 0, 72, 43
1, 22387, Note_on_c, 0, 70, 70
1, 22604, Note_on_c, 0, 68, 61
1, 22621, Note_on_c, 0, 65, 48
1, 22645, Note_off_c, 0, 70, 33
1, 22687, Note_off_c, 0, 65, 57
1, 22698, Control_c, 0, 64, 27
1, 22713, Control_c, 0, 64, 47
1, 22728, Control_c, 0, 64, 54
1, 22743, Control_c, 0, 64, 58
1, 22758, Control_c, 0, 64, 60
1, 22771, Note_off_c, 0, 68, 55
1, 22773, Control_c, 0, 64, 61
1, 22788, Control_c, 0, 64, 61
1, 22798, Note_on_c, 0, 65, 61
1, 22803, Control_c, 0, 64, 62
1, 22861, Control_c, 0, 64, 61
1, 22876, Control_c, 0, 64, 59
1, 22891, Control_c, 0, 64, 55
1, 22894, Note_on_c, 0, 67, 70
1, 22898, Note_off_c, 0, 65, 62
1, 22905, Control_c, 0, 64, 51
1, 22920, Control_c, 0, 64, 44
1, 22935, Control_c, 0, 64, 37
1, 22949, Control_c, 0, 64, 31
1, 22964, Control_c, 0, 64, 28
1, 22969, Note_on_c, 0, 68, 70
1, 22979, Control_c, 0, 64, 26
1, 22983, Note_off_c, 0, 67, 57
1, 22994, Control_c, 0, 64, 23
1, 23009, Control_c, 0, 64, 19
1, 23023, Control_c, 0, 64, 17
1, 23032, Note_on_c, 0, 70, 69
1, 23048, Note_off_c, 0, 68, 66
1, 23053, Control_c, 0, 64, 16
1, 23065, Note_off_c, 0, 70, 66
1, 23068, Control_c, 0, 64, 14
1, 23083, Control_c, 0, 64, 12
1, 23098, Control_c, 0, 64, 9
1, 23113, Control_c, 0, 64, 8
1, 23118, Note_on_c, 0, 72, 77
1, 23127, Control_c, 0, 64, 0
1, 23202, Note_on_c, 0, 74, 77
1, 23216, Note_off_c, 0, 72, 59
1, 23276, Note_on_c, 0, 76, 76
1, 23288, Note_off_c, 0, 74, 61
1, 23308, Note_off_c, 0, 76, 66
1, 23350, Note_on_c, 0, 77, 81
1, 23439, Note_on_c, 0, 79, 78
1, 23467, Note_off_c, 0, 77, 63
1, 23505, Note_on_c, 0, 80, 73
1, 23519, Note_off_c, 0, 79, 64
1, 23584, Note_on_c, 0, 82, 77
1, 23588, Note_off_c, 0, 80, 65
1, 23734, Note_on_c, 0, 84, 83
1, 23774, Note_off_c, 0, 82, 64
1, 24010, Note_on_c, 0, 72, 66
1, 24016, Note_on_c, 0, 68, 62
1, 24043, Note_off_c, 0, 72, 64
1, 24046, Note_off_c, 0, 68, 65
1, 24255, Control_c, 0, 64, 29
1, 24269, Control_c, 0, 64, 46
1, 24279, Note_on_c, 0, 72, 58
1, 24284, Note_on_c, 0, 68, 56
1, 24284, Control_c, 0, 64, 54
1, 24299, Control_c, 0, 64, 58
1, 24310, Note_off_c, 0, 72, 65
1, 24314, Control_c, 0, 64, 60
1, 24317, Note_off_c, 0, 68, 66
1, 24329, Control_c, 0, 64, 61
1, 24344, Control_c, 0, 64, 62
1, 24359, Control_c, 0, 64, 63
1, 24390, Note_on_c, 0, 82, 63
1, 24391, Note_off_c, 0, 84, 62
1, 24448, Control_c, 0, 64, 62
1, 24459, Note_off_c, 0, 82, 63
1, 24462, Control_c, 0, 64, 61
1, 24468, Note_on_c, 0, 80, 68
1, 24477, Control_c, 0, 64, 60
1, 24492, Control_c, 0, 64, 58
1, 24507, Control_c, 0, 64, 55
1, 24516, Note_off_c, 0, 80, 59
1, 24521, Control_c, 0, 64, 52
1, 24536, Control_c, 0, 64, 48
1, 24544, Note_on_c, 0, 82, 73
1, 24546, Note_on_c, 0, 72, 54
1, 24551, Control_c, 0, 64, 45
1, 24554, Note_on_c, 0, 68, 52
1, 24566, Control_c, 0, 64, 43
1, 24574, Note_off_c, 0, 72, 61
1, 24576, Note_off_c, 0, 68, 63
1, 24581, Control_c, 0, 64, 40
1, 24595, Control_c, 0, 64, 38
1, 24610, Control_c, 0, 64, 36
1, 24621, Note_on_c, 0, 80, 81
1, 24625, Control_c, 0, 64, 35
1, 24640, Control_c, 0, 64, 33
1, 24654, Control_c, 0, 64, 30
1, 24669, Note_off_c, 0, 82, 56
1, 24669, Control_c, 0, 64, 28
1, 24684, Control_c, 0, 64, 28
1, 24698, Note_on_c, 0, 79, 70
1, 24707, Control_c, 0, 64, 27
1, 24725, Note_off_c, 0, 80, 62
1, 24754, Note_off_c, 0, 79, 65
1, 24765, Note_on_c, 0, 77, 76
1, 24766, Control_c, 0, 64, 27
1, 24781, Control_c, 0, 64, 26
1, 24795, Control_c, 0, 64, 25
1, 24810, Control_c, 0, 64, 25
1, 24825, Control_c, 0, 64, 24
1, 24841, Note_off_c, 0, 77, 48
1, 24854, Note_on_c, 0, 75, 79
1, 24884, Control_c, 0, 64, 24
1, 24899, Control_c, 0, 64, 23
1, 24899, Control_c, 0, 67, 8
1, 24913, Control_c, 0, 67, 11
1, 24928, Control_c, 0, 67, 12
1, 24943, Control_c, 0, 64, 23
1, 24943, Control_c, 0, 67, 14
1, 24958, Control_c, 0, 67, 16
1, 24974, Control_c, 0, 64, 22
1, 24974, Control_c, 0, 67, 18
1, 24989, Control_c, 0, 67, 20
1, 25004, Control_c, 0, 67, 23
1, 25018, Control_c, 0, 67, 25
1, 25033, Control_c, 0, 67, 26
1, 25048, Control_c, 0, 67, 28
1, 25062, Control_c, 0, 64, 21
1, 25062, Control_c, 0, 67, 30
1, 25077, Control_c, 0, 64, 21
1, 25077, Control_c, 0, 67, 35
1, 25092, Control_c, 0, 64, 20
1, 25092, Control_c, 0, 67, 38
1, 25107, Control_c, 0, 67, 40
1, 25112, Note_on_c, 0, 70, 54
1, 25114, Note_on_c, 0, 68, 59
1, 25137, Control_c, 0, 64, 20
1, 25148, Note_off_c, 0, 70, 63
1, 25151, Note_off_c, 0, 68, 63
1, 25152, Control_c, 0, 67, 39
1, 25167, Control_c, 0, 67, 38
1, 25182, Control_c, 0, 67, 38
1, 25197, Control_c, 0, 67, 37
1, 25301, Control_c, 0, 67, 38
1, 25315, Control_c, 0, 67, 38
1, 25330, Control_c, 0, 67, 39
1, 25353, Note_off_c, 0, 75, 64
1, 25360, Control_c, 0, 67, 40
1, 25374, Note_on_c, 0, 74, 65
1, 25379, Note_on_c, 0, 70, 53
1, 25380, Note_on_c, 0, 68, 56
1, 25390, Control_c, 0, 67, 41
1, 25405, Control_c, 0, 67, 41
1, 25415, Note_off_c, 0, 74, 61
1, 25417, Note_on_c, 0, 75, 63
1, 25417, Note_off_c, 0, 68, 62
1, 25418, Note_off_c, 0, 70, 62
1, 25419, Control_c, 0, 67, 43
1, 25441, Control_c, 0, 67, 47
1, 25456, Control_c, 0, 67, 51
1, 25469, Note_off_c, 0, 75, 56
1, 25470, Control_c, 0, 64, 19
1, 25470, Control_c, 0, 67, 56
1, 25485, Note_on_c, 0, 74, 61
1, 25485, Control_c, 0, 67, 59
1, 25500, Control_c, 0, 67, 63
1, 25515, Control_c, 0, 67, 67
1, 25530, Control_c, 0, 64, 19
1, 25530, Control_c, 0, 67, 71
1, 25545, Control_c, 0, 67, 73
1, 25560, Control_c, 0, 67, 76
1, 25575, Control_c, 0, 67, 78
1, 25590, Control_c, 0, 67, 79
1, 25605, Control_c, 0, 67, 80
1, 25619, Control_c, 0, 64, 18
1, 25619, Control_c, 0, 67, 80
1, 25663, Control_c, 0, 64, 18
1, 25678, Control_c, 0, 64, 17
1, 25678, Control_c, 0, 67, 81
1, 25693, Control_c, 0, 64, 17
1, 25708, Control_c, 0, 67, 81
1, 25718, Note_on_c, 0, 68, 46
1, 25718, Note_on_c, 0, 70, 51
1, 25723, Control_c, 0, 67, 82
1, 25737, Control_c, 0, 67, 83
1, 25752, Control_c, 0, 64, 16
1, 25752, Control_c, 0, 67, 87
1, 25754, Note_off_c, 0, 68, 56
1, 25758, Note_off_c, 0, 70, 61
1, 25768, Control_c, 0, 64, 16
1, 25768, Control_c, 0, 67, 88
1, 25783, Control_c, 0, 64, 15
1, 25798, Control_c, 0, 64, 14
1, 25813, Control_c, 0, 64, 13
1, 25828, Control_c, 0, 64, 11
1, 25842, Control_c, 0, 64, 0
1, 25855, Note_on_c, 0, 75, 54
1, 25860, Note_off_c, 0, 74, 56
1, 25886, Control_c, 0, 67, 87
1, 25907, Note_off_c, 0, 75, 59
1, 25931, Control_c, 0, 67, 88
1, 25933, Note_on_c, 0, 77, 57
1, 25960, Control_c, 0, 67, 88
1, 25975, Control_c, 0, 67, 89
1, 25990, Control_c, 0, 67, 89
1, 25999, Note_on_c, 0, 75, 62
1, 26005, Control_c, 0, 67, 90
1, 26006, Note_on_c, 0, 67, 43
1, 26013, Note_off_c, 0, 77, 59
1, 26019, Note_on_c, 0, 70, 37
1, 26020, Control_c, 0, 67, 93
1, 26034, Control_c, 0, 67, 96
1, 26037, Note_off_c, 0, 67, 55
1, 26046, Note_off_c, 0, 70, 56
1, 26049, Control_c, 0, 67, 97
1, 26061, Note_off_c, 0, 75, 61
1, 26064, Control_c, 0, 67, 98
1, 26079, Control_c, 0, 67, 99
1, 26093, Control_c, 0, 67, 99
1, 26168, Control_c, 0, 67, 99
1, 26190, Control_c, 0, 67, 98
1, 26220, Control_c, 0, 67, 98
1, 26249, Control_c, 0, 67, 97
1, 26279, Control_c, 0, 67, 97
1, 26338, Control_c, 0, 67, 96
1, 26353, Note_on_c, 0, 68, 57
1, 26356, Note_on_c, 0, 65, 50
1, 26358, Note_on_c, 0, 62, 66
1, 26472, Control_c, 0, 67, 96
1, 26501, Control_c, 0, 67, 95
1, 26561, Control_c, 0, 67, 95
1, 26591, Control_c, 0, 67, 94
1, 26621, Control_c, 0, 67, 94
1, 26649, Control_c, 0, 67, 93
1, 26652, Note_on_c, 0, 63, 65
1, 26678, Control_c, 0, 67, 93
1, 26680, Note_off_c, 0, 62, 60
1, 26707, Control_c, 0, 67, 92
1, 26722, Note_off_c, 0, 63, 60
1, 26737, Control_c, 0, 67, 92
1, 26767, Control_c, 0, 67, 91
1, 26782, Control_c, 0, 67, 90
1, 26797, Control_c, 0, 67, 90
1, 26812, Control_c, 0, 67, 89
1, 26814, Note_off_c, 0, 65, 58
1, 26827, Control_c, 0, 67, 88
1, 26842, Control_c, 0, 67, 87
1, 26851, Note_off_c, 0, 68, 59
1, 26856, Control_c, 0, 67, 87
1, 26871, Control_c, 0, 67, 86
1, 26886, Control_c, 0, 67, 85
1, 26901, Control_c, 0, 67, 85
1, 26915, Control_c, 0, 67, 84
1, 26937, Control_c, 0, 67, 84
1, 26943, Note_on_c, 0, 57, 48
1, 26943, Note_on_c, 0, 67, 56
1, 26946, Note_on_c, 0, 63, 53
1, 26952, Control_c, 0, 67, 82
1, 26967, Control_c, 0, 67, 81
1, 26982, Control_c, 0, 67, 81
1, 26993, Note_off_c, 0, 57, 57
1, 27026, Control_c, 0, 67, 80
1, 27056, Note_off_c, 0, 63, 56
1, 27075, Note_off_c, 0, 67, 56
1, 27101, Control_c, 0, 67, 80
1, 27160, Control_c, 0, 67, 79
1, 27189, Control_c, 0, 67, 78
1, 27204, Control_c, 0, 67, 74
1, 27219, Control_c, 0, 67, 71
1, 27233, Control_c, 0, 67, 69
1, 27248, Control_c, 0, 67, 68
1, 27263, Control_c, 0, 67, 66
1, 27278, Control_c, 0, 67, 63
1, 27293, Control_c, 0, 67, 59
1, 27304, Note_on_c, 0, 65, 44
1, 27307, Control_c, 0, 64, 33
1, 27307, Control_c, 0, 67, 55
1, 27311, Note_on_c, 0, 58, 40
1, 27318, Note_on_c, 0, 62, 34
1, 27322, Control_c, 0, 64, 47
1, 27322, Control_c, 0, 67, 51
1, 27337, Control_c, 0, 64, 55
1, 27337, Control_c, 0, 67, 48
1, 27353, Control_c, 0, 64, 58
1, 27353, Control_c, 0, 67, 44
1, 27368, Control_c, 0, 64, 61
1, 27368, Control_c, 0, 67, 39
1, 27381, Note_off_c, 0, 58, 60
1, 27383, Control_c, 0, 64, 64
1, 27383, Control_c, 0, 67, 32
1, 27398, Control_c, 0, 64, 65
1, 27398, Control_c, 0, 67, 26
1, 27405, Note_off_c, 0, 65, 60
1, 27411, Note_off_c, 0, 62, 54
1, 27412, Control_c, 0, 64, 67
1, 27412, Control_c, 0, 67, 19
1, 27427, Control_c, 0, 64, 69
1, 27427, Control_c, 0, 67, 12
1, 27442, Control_c, 0, 64, 70
1, 27442, Control_c, 0, 67, 0
1, 27457, Control_c, 0, 64, 70
1, 27545, Control_c, 0, 64, 70
1, 27560, Control_c, 0, 64, 69
1, 27575, Control_c, 0, 64, 67
1, 27590, Control_c, 0, 64, 65
1, 27605, Control_c, 0, 64, 62
1, 27620, Control_c, 0, 64, 58
1, 27635, Control_c, 0, 64, 54
1, 27649, Control_c, 0, 64, 50
1, 27656, Note_on_c, 0, 58, 50
1, 27664, Control_c, 0, 64, 48
1, 27686, Control_c, 0, 64, 46
1, 27701, Control_c, 0, 64, 43
1, 27716, Control_c, 0, 64, 40
1, 27727, Note_off_c, 0, 58, 60
1, 27731, Control_c, 0, 64, 36
1, 27745, Control_c, 0, 64, 34
1, 27756, Note_on_c, 0, 62, 62
1, 27760, Control_c, 0, 64, 33
1, 27775, Control_c, 0, 64, 32
1, 27790, Control_c, 0, 64, 30
1, 27805, Control_c, 0, 64, 28
1, 27819, Control_c, 0, 64, 27
1, 27833, Note_off_c, 0, 62, 65
1, 27834, Control_c, 0, 64, 26
1, 27838, Note_on_c, 0, 60, 60
1, 27849, Control_c, 0, 64, 26
1, 27864, Control_c, 0, 64, 25
1, 27879, Control_c, 0, 64, 24
1, 27885, Note_off_c, 0, 60, 59
1, 27894, Control_c, 0, 64, 23
1, 27924, Control_c, 0, 64, 23
1, 27930, Note_on_c, 0, 58, 55
1, 27957, Note_off_c, 0, 58, 66
1, 27983, Control_c, 0, 64, 22
1, 27988, Note_on_c, 0, 60, 67
1, 28027, Control_c, 0, 64, 22
1, 28067, Note_on_c, 0, 62, 72
1, 28070, Note_off_c, 0, 60, 61
1, 28071, Control_c, 0, 64, 21
1, 28086, Control_c, 0, 64, 20
1, 28101, Control_c, 0, 64, 19
1, 28116, Control_c, 0, 64, 18
1, 28130, Control_c, 0, 64, 17
1, 28140, Note_off_c, 0, 62, 62
1, 28146, Control_c, 0, 64, 17
1, 28149, Note_on_c, 0, 63, 66
1, 28173, Note_off_c, 0, 63, 68
1, 28235, Note_on_c, 0, 65, 70
1, 28266, Control_c, 0, 64, 16
1, 28274, Note_off_c, 0, 65, 61
1, 28280, Control_c, 0, 64, 16
1, 28295, Control_c, 0, 64, 15
1, 28310, Control_c, 0, 64, 13
1, 28314, Note_on_c, 0, 67, 65
1, 28325, Control_c, 0, 64, 12
1, 28340, Control_c, 0, 64, 0
1, 28344, Note_off_c, 0, 67, 66
1, 28440, Note_on_c, 0, 65, 61
1, 28440, Note_on_c, 0, 68, 63
1, 28457, Note_on_c, 0, 58, 45
1, 28565, Note_on_c, 0, 74, 58
1, 28640, Note_on_c, 0, 75, 69
1, 28654, Note_off_c, 0, 74, 56
1, 28670, Note_off_c, 0, 58, 55
1, 28678, Note_off_c, 0, 68, 64
1, 28687, Note_off_c, 0, 65, 59
1, 28706, Note_off_c, 0, 75, 64
1, 28717, Note_on_c, 0, 77, 68
1, 28799, Note_off_c, 0, 77, 66
1, 28801, Note_on_c, 0, 75, 73
1, 28860, Note_off_c, 0, 75, 64
1, 28863, Note_on_c, 0, 74, 74
1, 28908, Note_off_c, 0, 74, 59
1, 28959, Note_on_c, 0, 67, 67
1, 28964, Note_on_c, 0, 63, 57
1, 28964, Note_on_c, 0, 58, 49
1, 29054, Note_on_c, 0, 75, 70
1, 29131, Note_on_c, 0, 77, 73
1, 29144, Note_off_c, 0, 75, 62
1, 29168, Note_off_c, 0, 58, 54
1, 29182, Note_off_c, 0, 63, 58
1, 29192, Note_off_c, 0, 67, 54
1, 29209, Note_off_c, 0, 77, 66
1, 29216, Note_on_c, 0, 79, 74
1, 29295, Note_on_c, 0, 77, 76
1, 29318, Note_off_c, 0, 79, 57
1, 29369, Note_on_c, 0, 75, 74
1, 29369, Note_off_c, 0, 77, 65
1, 29424, Note_off_c, 0, 75, 65
1, 29447, Note_on_c, 0, 77, 71
1, 29475, Note_on_c, 0, 65, 54
1, 29477, Note_on_c, 0, 62, 53
1, 29482, Note_on_c, 0, 58, 43
1, 29533, Note_off_c, 0, 77, 59
1, 29566, Note_on_c, 0, 80, 69
1, 29651, Note_on_c, 0, 79, 69
1, 29653, Note_off_c, 0, 80, 63
1, 29705, Note_off_c, 0, 79, 64
1, 29722, Note_on_c, 0, 77, 70
1, 29792, Note_off_c, 0, 77, 55
1, 29802, Note_on_c, 0, 75, 78
1, 29808, Note_off_c, 0, 58, 63
1, 29823, Note_off_c, 0, 62, 61
1, 29828, Note_off_c, 0, 65, 60
1, 29886, Note_on_c, 0, 74, 73
1, 29912, Note_off_c, 0, 75, 64
1, 29951, Note_off_c, 0, 74, 64
1, 29972, Note_on_c, 0, 72, 69
1, 30035, Note_off_c, 0, 72, 52
1, 30065, Note_on_c, 0, 70, 69
1, 30140, Control_c, 0, 67, 9
1, 30147, Note_on_c, 0, 68, 71
1, 30155, Control_c, 0, 67, 11
1, 30170, Control_c, 0, 67, 12
1, 30175, Note_off_c, 0, 70, 55
1, 30185, Control_c, 0, 67, 13
1, 30200, Control_c, 0, 67, 14
1, 30214, Control_c, 0, 67, 14
1, 30229, Control_c, 0, 67, 15
1, 30230, Note_off_c, 0, 68, 64
1, 30232, Note_on_c, 0, 67, 57
1, 30244, Control_c, 0, 67, 19
1, 30258, Control_c, 0, 67, 24
1, 30264, Note_off_c, 0, 67, 65
1, 30273, Control_c, 0, 67, 28
1, 30288, Control_c, 0, 67, 31
1, 30299, Note_on_c, 0, 65, 61
1, 30303, Control_c, 0, 67, 33
1, 30318, Control_c, 0, 67, 35
1, 30332, Control_c, 0, 67, 37
1, 30333, Note_off_c, 0, 65, 63
1, 30347, Control_c, 0, 67, 41
1, 30362, Control_c, 0, 67, 44
1, 30377, Control_c, 0, 67, 47
1, 30392, Control_c, 0, 67, 48
1, 30394, Note_on_c, 0, 63, 55
1, 30407, Control_c, 0, 67, 49
1, 30416, Note_off_c, 0, 63, 60
1, 30451, Control_c, 0, 67, 50
1, 30496, Control_c, 0, 67, 50
1, 30510, Note_on_c, 0, 56, 56
1, 30511, Note_on_c, 0, 53, 47
1, 30524, Note_on_c, 0, 46, 45
1, 30525, Control_c, 0, 67, 51
1, 30540, Control_c, 0, 67, 53
1, 30556, Control_c, 0, 67, 56
1, 30571, Control_c, 0, 67, 58
1, 30586, Control_c, 0, 67, 61
1, 30601, Control_c, 0, 67, 62
1, 30615, Control_c, 0, 67, 64
1, 30630, Control_c, 0, 67, 65
1, 30639, Note_on_c, 0, 62, 52
1, 30645, Control_c, 0, 67, 66
1, 30660, Control_c, 0, 67, 66
1, 30717, Note_off_c, 0, 46, 56
1, 30720, Note_off_c, 0, 62, 56
1, 30726, Note_on_c, 0, 63, 62
1, 30729, Note_off_c, 0, 53, 58
1, 30738, Note_off_c, 0, 56, 57
1, 30772, Note_off_c, 0, 63, 62
1, 30795, Note_on_c, 0, 65, 61
1, 30845, Control_c, 0, 67, 67
1, 30857, Note_off_c, 0, 65, 60
1, 30865, Note_on_c, 0, 63, 70
1, 30914, Note_off_c, 0, 63, 60
1, 30919, Control_c, 0, 67, 67
1, 30934, Control_c, 0, 67, 68
1, 30949, Control_c, 0, 67, 71
1, 30955, Note_on_c, 0, 62, 57
1, 30963, Control_c, 0, 67, 73
1, 30978, Control_c, 0, 67, 75
1, 30981, Note_off_c, 0, 62, 66
1, 30993, Control_c, 0, 67, 76
1, 31008, Control_c, 0, 67, 77
1, 31023, Control_c, 0, 67, 79
1, 31037, Control_c, 0, 67, 80
1, 31048, Note_on_c, 0, 55, 52
1, 31052, Control_c, 0, 67, 80
1, 31054, Note_on_c, 0, 46, 46
1, 31063, Note_on_c, 0, 51, 48
1, 31067, Control_c, 0, 67, 81
1, 31164, Note_on_c, 0, 63, 56
1, 31247, Note_on_c, 0, 65, 59
1, 31250, Note_off_c, 0, 63, 63
1, 31260, Note_off_c, 0, 51, 59
1, 31275, Note_off_c, 0, 55, 57
1, 31287, Note_off_c, 0, 65, 63
1, 31289, Note_off_c, 0, 46, 34
1, 31304, Control_c, 0, 67, 82
1, 31308, Note_on_c, 0, 67, 66
1, 31364, Control_c, 0, 67, 81
1, 31387, Note_on_c, 0, 65, 71
1, 31393, Control_c, 0, 67, 81
1, 31399, Note_off_c, 0, 67, 59
1, 31408, Control_c, 0, 67, 80
1, 31431, Control_c, 0, 67, 80
1, 31467, Note_off_c, 0, 65, 62
1, 31480, Note_on_c, 0, 63, 68
1, 31504, Control_c, 0, 67, 80
1, 31519, Control_c, 0, 67, 81
1, 31520, Note_off_c, 0, 63, 63
1, 31534, Control_c, 0, 67, 82
1, 31549, Control_c, 0, 67, 82
1, 31564, Control_c, 0, 67, 83
1, 31572, Note_on_c, 0, 65, 61
1, 31578, Control_c, 0, 67, 83
1, 31593, Control_c, 0, 67, 87
1, 31601, Note_on_c, 0, 50, 45
1, 31601, Note_on_c, 0, 53, 36
1, 31605, Note_on_c, 0, 46, 38
1, 31606, Note_off_c, 0, 65, 61
1, 31608, Control_c, 0, 67, 91
1, 31623, Control_c, 0, 67, 92
1, 31638, Control_c, 0, 67, 93
1, 31683, Control_c, 0, 67, 93
1, 31698, Control_c, 0, 67, 95
1, 31712, Control_c, 0, 67, 97
1, 31719, Note_on_c, 0, 68, 58
1, 31727, Control_c, 0, 67, 97
1, 31742, Control_c, 0, 67, 98
1, 31757, Control_c, 0, 67, 98
1, 31772, Control_c, 0, 67, 99
1, 31786, Control_c, 0, 67, 100
1, 31793, Note_off_c, 0, 68, 64
1, 31799, Note_on_c, 0, 67, 59
1, 31801, Control_c, 0, 67, 102
1, 31816, Control_c, 0, 67, 103
1, 31838, Note_off_c, 0, 67, 63
1, 31846, Control_c, 0, 67, 103
1, 31860, Control_c, 0, 67, 104
1, 31869, Note_on_c, 0, 65, 60
1, 31875, Control_c, 0, 67, 105
1, 31923, Note_off_c, 0, 65, 52
1, 31951, Note_on_c, 0, 63, 68
1, 31985, Note_off_c, 0, 53, 54
1, 31987, Note_off_c, 0, 50, 52
1, 31994, Control_c, 0, 67, 104
1, 31996, Note_off_c, 0, 46, 42
1, 32009, Control_c, 0, 67, 104
1, 32024, Control_c, 0, 67, 103
1, 32033, Note_on_c, 0, 62, 67
1, 32039, Control_c, 0, 67, 103
1, 32041, Note_off_c, 0, 63, 60
1, 32053, Control_c, 0, 67, 102
1, 32068, Control_c, 0, 67, 101
1, 32074, Note_off_c, 0, 62, 64
1, 32083, Control_c, 0, 67, 100
1, 32097, Control_c, 0, 67, 100
1, 32106, Note_on_c, 0, 60, 61
1, 32112, Control_c, 0, 67, 99
1, 32127, Control_c, 0, 67, 99
1, 32143, Control_c, 0, 67, 98
1, 32158, Control_c, 0, 67, 97
1, 32160, Note_off_c, 0, 60, 51
1, 32180, Control_c, 0, 67, 96
1, 32195, Control_c, 0, 67, 96
1, 32201, Note_on_c, 0, 58, 63
1, 32210, Control_c, 0, 67, 95
1, 32240, Control_c, 0, 67, 95
1, 32270, Control_c, 0, 67, 94
1, 32273, Note_on_c, 0, 56, 69
1, 32315, Note_off_c, 0, 58, 57
1, 32355, Note_on_c, 0, 55, 62
1, 32368, Note_off_c, 0, 56, 60
1, 32388, Control_c, 0, 67, 94
1, 32391, Note_off_c, 0, 55, 63
1, 32402, Control_c, 0, 67, 93
1, 32417, Control_c, 0, 67, 93
1, 32422, Note_on_c, 0, 53, 63
1, 32432, Control_c, 0, 67, 92
1, 32447, Control_c, 0, 67, 92
1, 32465, Note_off_c, 0, 53, 57
1, 32476, Control_c, 0, 67, 91
1, 32491, Control_c, 0, 67, 90
1, 32506, Control_c, 0, 67, 90
1, 32520, Note_on_c, 0, 51, 63
1, 32521, Control_c, 0, 67, 89
1, 32535, Control_c, 0, 67, 88
1, 32554, Note_off_c, 0, 51, 62
1, 32565, Control_c, 0, 67, 88
1, 32580, Control_c, 0, 67, 87
1, 32595, Control_c, 0, 67, 87
1, 32610, Control_c, 0, 67, 86
1, 32625, Control_c, 0, 67, 85
1, 32629, Note_on_c, 0, 50, 62
1, 32639, Control_c, 0, 67, 84
1, 32654, Control_c, 0, 67, 83
1, 32669, Control_c, 0, 67, 81
1, 32684, Control_c, 0, 64, 12
1, 32684, Control_c, 0, 67, 79
1, 32699, Control_c, 0, 64, 33
1, 32699, Control_c, 0, 67, 77
1, 32714, Control_c, 0, 64, 42
1, 32714, Control_c, 0, 67, 76
1, 32726, Note_on_c, 0, 46, 58
1, 32728, Control_c, 0, 64, 47
1, 32728, Control_c, 0, 67, 73
1, 32743, Control_c, 0, 64, 49
1, 32743, Control_c, 0, 67, 70
1, 32758, Control_c, 0, 67, 67
1, 32769, Note_off_c, 0, 46, 61
1, 32773, Control_c, 0, 67, 64
1, 32786, Note_off_c, 0, 50, 58
1, 32788, Control_c, 0, 64, 48
1, 32788, Control_c, 0, 67, 61
1, 32802, Control_c, 0, 64, 46
1, 32802, Control_c, 0, 67, 57
1, 32812, Note_on_c, 0, 34, 63
1, 32817, Control_c, 0, 64, 42
1, 32817, Control_c, 0, 67, 53
1, 32832, Control_c, 0, 64, 38
1, 32832, Control_c, 0, 67, 47
1, 32846, Control_c, 0, 64, 31
1, 32846, Control_c, 0, 67, 42
1, 32847, Note_off_c, 0, 34, 64
1, 32861, Control_c, 0, 64, 25
1, 32861, Control_c, 0, 67, 38
1, 32876, Control_c, 0, 64, 20
1, 32876, Control_c, 0, 67, 33
1, 32879, Note_on_c, 0, 51, 52
1, 32884, Note_on_c, 0, 48, 42
1, 32891, Control_c, 0, 64, 18
1, 32891, Control_c, 0, 67, 28
1, 32906, Control_c, 0, 64, 15
1, 32906, Control_c, 0, 67, 22
1, 32914, Note_off_c, 0, 48, 47
1, 32914, Note_off_c, 0, 51, 64
1, 32928, Control_c, 0, 64, 12
1, 32928, Control_c, 0, 67, 16
1, 32943, Control_c, 0, 64, 11
1, 32943, Control_c, 0, 67, 9
1, 32958, Control_c, 0, 64, 10
1, 32958, Control_c, 0, 67, 0
1, 32973, Control_c, 0, 64, 8
1, 32988, Control_c, 0, 64, 0
1, 32995, Note_on_c, 0, 46, 59
1, 33039, Note_off_c, 0, 46, 58
1, 33059, Note_on_c, 0, 34, 67
1, 33099, Note_off_c, 0, 34, 65
1, 33137, Note_on_c, 0, 53, 53
1, 33145, Note_on_c, 0, 50, 46
1, 33176, Note_off_c, 0, 53, 62
1, 33179, Note_off_c, 0, 50, 58
1, 33239, Note_on_c, 0, 46, 63
1, 33281, Note_off_c, 0, 46, 58
1, 33304, Note_on_c, 0, 34, 65
1, 33341, Note_off_c, 0, 34, 64
1, 33388, Note_on_c, 0, 55, 61
1, 33398, Note_on_c, 0, 51, 45
1, 33426, Note_off_c, 0, 55, 62
1, 33438, Note_off_c, 0, 51, 60
1, 33488, Note_on_c, 0, 46, 61
1, 33537, Note_off_c, 0, 46, 59
1, 33563, Note_on_c, 0, 34, 66
1, 33598, Note_off_c, 0, 34, 65
1, 33624, Control_c, 0, 64, 22
1, 33639, Control_c, 0, 64, 38
1, 33648, Note_on_c, 0, 53, 58
1, 33650, Note_on_c, 0, 56, 60
1, 33654, Control_c, 0, 64, 48
1, 33676, Control_c, 0, 64, 52
1, 33691, Control_c, 0, 64, 54
1, 33706, Control_c, 0, 64, 55
1, 33747, Note_on_c, 0, 46, 69
1, 33766, Control_c, 0, 64, 54
1, 33769, Note_off_c, 0, 53, 57
1, 33772, Note_off_c, 0, 56, 58
1, 33781, Control_c, 0, 64, 53
1, 33792, Note_off_c, 0, 46, 63
1, 33796, Control_c, 0, 64, 51
1, 33811, Control_c, 0, 64, 47
1, 33826, Control_c, 0, 64, 42
1, 33832, Note_on_c, 0, 34, 62
1, 33841, Control_c, 0, 64, 36
1, 33855, Control_c, 0, 64, 30
1, 33867, Note_off_c, 0, 34, 63
1, 33870, Control_c, 0, 64, 25
1, 33885, Control_c, 0, 64, 22
1, 33899, Control_c, 0, 64, 20
1, 33914, Control_c, 0, 64, 19
1, 33915, Note_on_c, 0, 53, 65
1, 33929, Note_on_c, 0, 50, 62
1, 33929, Control_c, 0, 64, 16
1, 33944, Control_c, 0, 64, 13
1, 33959, Control_c, 0, 64, 10
1, 33961, Note_off_c, 0, 50, 66
1, 33964, Note_off_c, 0, 53, 60
1, 33973, Control_c, 0, 64, 9
1, 34004, Note_on_c, 0, 46, 69
1, 34046, Note_off_c, 0, 46, 63
1, 34079, Note_on_c, 0, 34, 70
1, 34115, Note_off_c, 0, 34, 64
1, 34160, Note_on_c, 0, 55, 70
1, 34165, Note_on_c, 0, 51, 65
1, 34195, Note_off_c, 0, 51, 66
1, 34205, Note_off_c, 0, 55, 59
1, 34247, Note_on_c, 0, 46, 71
1, 34289, Note_off_c, 0, 46, 63
1, 34328, Note_on_c, 0, 34, 70
1, 34364, Note_off_c, 0, 34, 64
1, 34424, Note_on_c, 0, 58, 68
1, 34426, Note_on_c, 0, 55, 67
1, 34440, Control_c, 0, 64, 0
1, 34457, Note_off_c, 0, 55, 63
1, 34463, Note_off_c, 0, 58, 63
1, 34509, Note_on_c, 0, 46, 64
1, 34542, Note_off_c, 0, 46, 66
1, 34580, Note_on_c, 0, 34, 71
1, 34614, Note_off_c, 0, 34, 63
1, 34682, Note_on_c, 0, 50, 73
1, 34685, Note_on_c, 0, 46, 66
1, 34693, Control_c, 0, 64, 35
1, 34708, Control_c, 0, 64, 51
1, 34722, Control_c, 0, 64, 58
1, 34737, Note_off_c, 0, 46, 59
1, 34737, Control_c, 0, 64, 61
1, 34750, Note_off_c, 0, 50, 64
1, 34752, Control_c, 0, 64, 63
1, 34767, Note_on_c, 0, 46, 56
1, 34767, Control_c, 0, 64, 65
1, 34782, Control_c, 0, 64, 66
1, 34796, Control_c, 0, 64, 66
1, 34810, Note_off_c, 0, 46, 62
1, 34841, Control_c, 0, 64, 66
1, 34847, Note_on_c, 0, 34, 74
1, 34856, Control_c, 0, 64, 63
1, 34870, Control_c, 0, 64, 59
1, 34885, Note_off_c, 0, 34, 65
1, 34885, Control_c, 0, 64, 51
1, 34900, Control_c, 0, 64, 42
1, 34914, Control_c, 0, 64, 34
1, 34929, Control_c, 0, 64, 31
1, 34943, Note_on_c, 0, 51, 77
1, 34947, Note_on_c, 0, 48, 76
1, 34974, Control_c, 0, 64, 30
1, 34977, Note_off_c, 0, 48, 66
1, 34989, Control_c, 0, 64, 28
1, 34993, Note_off_c, 0, 51, 62
1, 35003, Control_c, 0, 64, 27
1, 35018, Note_on_c, 0, 46, 77
1, 35018, Control_c, 0, 64, 26
1, 35033, Control_c, 0, 64, 25
1, 35048, Control_c, 0, 64, 24
1, 35063, Control_c, 0, 64, 23
1, 35067, Note_off_c, 0, 46, 62
1, 35078, Control_c, 0, 64, 22
1, 35091, Note_on_c, 0, 34, 76
1, 35093, Control_c, 0, 64, 22
1, 35108, Control_c, 0, 64, 21
1, 35122, Control_c, 0, 64, 21
1, 35134, Note_off_c, 0, 34, 63
1, 35137, Control_c, 0, 64, 20
1, 35152, Control_c, 0, 64, 19
1, 35174, Control_c, 0, 64, 18
1, 35189, Control_c, 0, 64, 17
1, 35192, Note_on_c, 0, 53, 73
1, 35193, Note_on_c, 0, 50, 73
1, 35203, Control_c, 0, 64, 15
1, 35218, Control_c, 0, 64, 14
1, 35229, Note_off_c, 0, 50, 62
1, 35230, Note_off_c, 0, 53, 62
1, 35233, Control_c, 0, 64, 12
1, 35248, Control_c, 0, 64, 12
1, 35263, Control_c, 0, 64, 11
1, 35270, Note_on_c, 0, 46, 75
1, 35317, Note_off_c, 0, 46, 62
1, 35322, Control_c, 0, 64, 10
1, 35353, Note_on_c, 0, 34, 74
1, 35396, Note_off_c, 0, 34, 64
1, 35445, Note_on_c, 0, 51, 71
1, 35445, Note_on_c, 0, 55, 70
1, 35491, Note_off_c, 0, 51, 62
1, 35491, Note_off_c, 0, 55, 59
1, 35501, Control_c, 0, 64, 9
1, 35531, Control_c, 0, 64, 0
1, 35540, Note_on_c, 0, 46, 73
1, 35586, Note_off_c, 0, 46, 63
1, 35617, Note_on_c, 0, 34, 79
1, 35668, Note_off_c, 0, 34, 62
1, 35695, Note_on_c, 0, 56, 75
1, 35696, Note_on_c, 0, 53, 72
1, 35709, Control_c, 0, 64, 32
1, 35724, Control_c, 0, 64, 47
1, 35739, Control_c, 0, 64, 54
1, 35753, Control_c, 0, 64, 57
1, 35768, Control_c, 0, 64, 58
1, 35783, Control_c, 0, 64, 58
1, 35789, Note_off_c, 0, 53, 58
1, 35791, Note_on_c, 0, 46, 78
1, 35791, Note_off_c, 0, 56, 58
1, 35827, Control_c, 0, 64, 58
1, 35842, Control_c, 0, 64, 56
1, 35848, Note_off_c, 0, 46, 63
1, 35857, Control_c, 0, 64, 52
1, 35867, Note_on_c, 0, 34, 83
1, 35871, Control_c, 0, 64, 46
1, 35886, Control_c, 0, 64, 39
1, 35901, Control_c, 0, 64, 31
1, 35924, Control_c, 0, 64, 25
1, 35924, Note_off_c, 0, 34, 62
1, 35939, Control_c, 0, 64, 23
1, 35953, Control_c, 0, 64, 21
1, 35956, Note_on_c, 0, 53, 75
1, 35963, Note_on_c, 0, 50, 76
1, 35968, Control_c, 0, 64, 18
1, 35983, Control_c, 0, 64, 17
1, 35998, Control_c, 0, 64, 16
1, 36002, Note_off_c, 0, 50, 61
1, 36013, Note_off_c, 0, 53, 61
1, 36027, Control_c, 0, 64, 16
1, 36044, Note_on_c, 0, 46, 80
1, 36072, Control_c, 0, 64, 15
1, 36086, Control_c, 0, 64, 15
1, 36097, Note_off_c, 0, 46, 64
1, 36101, Control_c, 0, 64, 14
1, 36119, Note_on_c, 0, 34, 79
1, 36168, Note_off_c, 0, 34, 63
1, 36202, Note_on_c, 0, 55, 77
1, 36205, Note_on_c, 0, 51, 75
1, 36249, Note_off_c, 0, 51, 63
1, 36249, Note_off_c, 0, 55, 62
1, 36305, Note_on_c, 0, 46, 83
1, 36339, Control_c, 0, 64, 15
1, 36359, Note_off_c, 0, 46, 64
1, 36385, Note_on_c, 0, 34, 85
1, 36440, Note_off_c, 0, 34, 62
1, 36455, Note_on_c, 0, 57, 82
1, 36457, Note_on_c, 0, 48, 81
1, 36459, Note_on_c, 0, 51, 78
1, 36473, Control_c, 0, 64, 14
1, 36488, Note_off_c, 0, 48, 66
1, 36502, Control_c, 0, 64, 13
1, 36511, Note_off_c, 0, 57, 64
1, 36516, Note_off_c, 0, 51, 64
1, 36517, Control_c, 0, 64, 13
1, 36547, Control_c, 0, 64, 12
1, 36582, Note_on_c, 0, 46, 78
1, 36633, Note_off_c, 0, 46, 63
1, 36636, Control_c, 0, 64, 12
1, 36651, Note_on_c, 0, 34, 87
1, 36706, Note_off_c, 0, 34, 62
1, 36758, Note_on_c, 0, 58, 87
1, 36762, Note_on_c, 0, 50, 86
1, 36766, Note_on_c, 0, 53, 76
1, 36806, Control_c, 0, 64, 11
1, 36880, Note_on_c, 0, 46, 81
1, 36880, Control_c, 0, 64, 10
1, 36894, Control_c, 0, 64, 8
1, 36909, Control_c, 0, 64, 0
1, 36923, Note_off_c, 0, 46, 63
1, 36974, Note_on_c, 0, 34, 87
1, 36999, Control_c, 0, 67, 8
1, 37014, Control_c, 0, 67, 8
1, 37017, Note_off_c, 0, 34, 63
1, 37044, Control_c, 0, 64, 25
1, 37059, Control_c, 0, 64, 54
1, 37059, Control_c, 0, 67, 0
1, 37069, Note_off_c, 0, 58, 66
1, 37070, Note_off_c, 0, 50, 65
1, 37073, Control_c, 0, 64, 62
1, 37081, Note_off_c, 0, 53, 63
1, 37088, Control_c, 0, 64, 66
1, 37103, Control_c, 0, 64, 71
1, 37117, Control_c, 0, 64, 77
1, 37132, Control_c, 0, 64, 84
1, 37147, Control_c, 0, 64, 90
1, 37162, Control_c, 0, 64, 96
1, 37176, Control_c, 0, 64, 104
1, 37191, Control_c, 0, 64, 109
1, 37295, Control_c, 0, 64, 107
1, 37310, Control_c, 0, 64, 103
1, 37324, Control_c, 0, 64, 99
1, 37339, Control_c, 0, 64, 94
1, 37354, Control_c, 0, 64, 88
1, 37369, Control_c, 0, 64, 82
1, 37384, Control_c, 0, 64, 76
1, 37398, Control_c, 0, 64, 70
1, 37421, Control_c, 0, 64, 66
1, 37436, Control_c, 0, 64, 62
1, 37451, Control_c, 0, 64, 58
1, 37466, Control_c, 0, 64, 55
1, 37480, Control_c, 0, 64, 51
1, 37495, Control_c, 0, 64, 46
1, 37495, Control_c, 0, 67, 9
1, 37510, Control_c, 0, 64, 41
1, 37510, Control_c, 0, 67, 11
1, 37524, Control_c, 0, 64, 34
1, 37524, Control_c, 0, 67, 13
1, 37539, Control_c, 0, 64, 25
1, 37539, Control_c, 0, 67, 15
1, 37554, Control_c, 0, 64, 13
1, 37554, Control_c, 0, 67, 16
1, 37569, Control_c, 0, 64, 0
1, 37569, Control_c, 0, 67, 16
1, 37598, Control_c, 0, 67, 17
1, 37613, Control_c, 0, 67, 18
1, 37628, Control_c, 0, 67, 21
1, 37642, Control_c, 0, 67, 25
1, 37657, Control_c, 0, 67, 27
1, 37672, Control_c, 0, 67, 29
1, 37687, Control_c, 0, 67, 31
1, 37702, Control_c, 0, 67, 34
1, 37716, Control_c, 0, 67, 37
1, 37731, Control_c, 0, 67, 42
1, 37747, Control_c, 0, 67, 45
1, 37762, Control_c, 0, 67, 50
1, 37777, Control_c, 0, 67, 54
1, 37792, Control_c, 0, 67, 57
1, 37807, Control_c, 0, 67, 59
1, 37821, Control_c, 0, 67, 62
1, 37836, Control_c, 0, 67, 65
1, 37851, Control_c, 0, 67, 67
1, 37866, Control_c, 0, 67, 69
1, 37881, Control_c, 0, 67, 70
1, 37895, Control_c, 0, 67, 71
1, 37910, Control_c, 0, 67, 71
1, 37925, Control_c, 0, 67, 73
1, 37940, Control_c, 0, 67, 74
1, 37954, Control_c, 0, 67, 77
1, 37969, Control_c, 0, 67, 80
1, 37984, Control_c, 0, 67, 82
1, 37999, Control_c, 0, 67, 84
1, 38014, Control_c, 0, 67, 85
1, 38029, Control_c, 0, 67, 87
1, 38044, Control_c, 0, 67, 89
1, 38059, Control_c, 0, 67, 91
1, 38073, Control_c, 0, 67, 92
1, 38088, Control_c, 0, 67, 93
1, 38103, Control_c, 0, 67, 94
1, 38118, Control_c, 0, 67, 96
1, 38133, Control_c, 0, 67, 99
1, 38147, Control_c, 0, 67, 102
1, 38169, Control_c, 0, 67, 103
1, 38184, Control_c, 0, 67, 104
1, 38199, Control_c, 0, 67, 105
1, 38214, Control_c, 0, 67, 107
1, 38229, Control_c, 0, 67, 109
1, 38244, Control_c, 0, 67, 110
1, 38258, Control_c, 0, 67, 111
1, 38273, Control_c, 0, 67, 113
1, 38288, Control_c, 0, 67, 114
1, 38303, Control_c, 0, 67, 114
1, 38318, Control_c, 0, 67, 115
1, 38333, Control_c, 0, 67, 116
1, 38347, Control_c, 0, 67, 117
1, 38362, Control_c, 0, 67, 117
1, 38510, Control_c, 0, 67, 117
1, 38541, Control_c, 0, 67, 116
1, 38556, Control_c, 0, 67, 116
1, 38585, Control_c, 0, 67, 115
1, 38615, Control_c, 0, 67, 115
1, 38630, Control_c, 0, 67, 114
1, 38644, Control_c, 0, 67, 114
1, 38674, Control_c, 0, 67, 113
1, 38688, Control_c, 0, 67, 113
1, 38703, Control_c, 0, 67, 112
1, 38733, Control_c, 0, 67, 112
1, 38748, Control_c, 0, 67, 111
1, 38762, Control_c, 0, 67, 111
1, 38792, Control_c, 0, 67, 110
1, 38807, Control_c, 0, 67, 110
1, 38822, Control_c, 0, 67, 109
1, 38837, Control_c, 0, 67, 109
1, 38852, Control_c, 0, 67, 108
1, 38867, Control_c, 0, 67, 108
1, 38882, Control_c, 0, 67, 107
1, 38890, Note_on_c, 0, 82, 55
1, 38896, Control_c, 0, 67, 107
1, 38896, Note_on_c, 0, 79, 48
1, 38918, Control_c, 0, 67, 106
1, 38933, Control_c, 0, 67, 105
1, 38963, Control_c, 0, 67, 105
1, 38977, Control_c, 0, 67, 104
1, 38992, Control_c, 0, 67, 103
1, 39007, Control_c, 0, 67, 103
1, 39022, Control_c, 0, 67, 102
1, 39037, Control_c, 0, 67, 101
1, 39038, Note_on_c, 0, 63, 54
1, 39051, Control_c, 0, 67, 100
1, 39066, Control_c, 0, 67, 99
1, 39081, Control_c, 0, 67, 97
1, 39096, Control_c, 0, 67, 96
1, 39111, Control_c, 0, 67, 94
1, 39121, Note_on_c, 0, 65, 61
1, 39125, Note_off_c, 0, 63, 57
1, 39126, Control_c, 0, 67, 93
1, 39141, Control_c, 0, 67, 92
1, 39156, Control_c, 0, 67, 90
1, 39170, Control_c, 0, 67, 87
1, 39184, Note_off_c, 0, 65, 60
1, 39185, Control_c, 0, 67, 84
1, 39200, Control_c, 0, 67, 81
1, 39206, Note_on_c, 0, 67, 67
1, 39215, Control_c, 0, 67, 78
1, 39230, Control_c, 0, 67, 75
1, 39244, Control_c, 0, 67, 72
1, 39259, Control_c, 0, 67, 67
1, 39274, Control_c, 0, 67, 63
1, 39282, Note_off_c, 0, 67, 63
1, 39288, Control_c, 0, 67, 58
1, 39291, Note_on_c, 0, 65, 69
1, 39303, Note_off_c, 0, 82, 59
1, 39303, Control_c, 0, 67, 53
1, 39318, Control_c, 0, 67, 50
1, 39333, Control_c, 0, 67, 46
1, 39349, Control_c, 0, 67, 44
1, 39364, Control_c, 0, 67, 43
1, 39367, Note_on_c, 0, 63, 58
1, 39368, Note_off_c, 0, 65, 60
1, 39379, Control_c, 0, 67, 42
1, 39392, Control_c, 0, 67, 40
1, 39407, Control_c, 0, 67, 37
1, 39422, Control_c, 0, 67, 34
1, 39427, Note_off_c, 0, 63, 61
1, 39437, Control_c, 0, 67, 32
1, 39449, Note_on_c, 0, 62, 57
1, 39452, Control_c, 0, 67, 30
1, 39460, Note_on_c, 0, 82, 67
1, 39466, Control_c, 0, 67, 28
1, 39471, Note_on_c, 0, 80, 62
1, 39481, Control_c, 0, 67, 26
1, 39496, Control_c, 0, 67, 24
1, 39510, Control_c, 0, 67, 23
1, 39525, Control_c, 0, 67, 23
1, 39536, Note_off_c, 0, 62, 62
1, 39537, Note_on_c, 0, 65, 69
1, 39540, Control_c, 0, 67, 22
1, 39555, Control_c, 0, 67, 22
1, 39565, Note_off_c, 0, 79, 61
1, 39570, Control_c, 0, 67, 21
1, 39585, Control_c, 0, 67, 19
1, 39600, Control_c, 0, 67, 17
1, 39615, Control_c, 0, 67, 16
1, 39626, Note_off_c, 0, 65, 61
1, 39630, Control_c, 0, 67, 14
1, 39645, Note_on_c, 0, 70, 66
1, 39645, Control_c, 0, 67, 12
1, 39666, Control_c, 0, 67, 9
1, 39681, Control_c, 0, 67, 0
1, 39721, Note_off_c, 0, 70, 62
1, 39723, Note_off_c, 0, 82, 60
1, 39738, Note_on_c, 0, 74, 62
1, 39801, Note_off_c, 0, 74, 59
1, 39817, Note_on_c, 0, 72, 60
1, 39863, Note_off_c, 0, 72, 60
1, 39887, Note_on_c, 0, 70, 59
1, 39958, Note_off_c, 0, 70, 41
1, 40022, Note_on_c, 0, 82, 57
1, 40025, Note_on_c, 0, 79, 50
1, 40047, Note_on_c, 0, 75, 48
1, 40125, Control_c, 0, 64, 34
1, 40136, Note_off_c, 0, 75, 62
1, 40141, Control_c, 0, 64, 50
1, 40156, Control_c, 0, 64, 57
1, 40160, Note_off_c, 0, 80, 23
1, 40165, Note_off_c, 0, 82, 51
1, 40171, Control_c, 0, 64, 61
1, 40174, Note_off_c, 0, 79, 37
1, 40186, Control_c, 0, 64, 62
1, 40201, Control_c, 0, 64, 63
1, 40253, Note_on_c, 0, 79, 48
1, 40260, Control_c, 0, 64, 62
1, 40275, Control_c, 0, 64, 60
1, 40289, Control_c, 0, 64, 56
1, 40304, Control_c, 0, 64, 50
1, 40319, Control_c, 0, 64, 44
1, 40333, Control_c, 0, 64, 38
1, 40348, Control_c, 0, 64, 30
1, 40352, Note_on_c, 0, 80, 59
1, 40360, Note_off_c, 0, 79, 54
1, 40363, Control_c, 0, 64, 22
1, 40378, Control_c, 0, 64, 14
1, 40393, Control_c, 0, 64, 0
1, 40424, Note_off_c, 0, 80, 62
1, 40434, Note_on_c, 0, 82, 68
1, 40474, Control_c, 0, 67, 9
1, 40489, Control_c, 0, 67, 12
1, 40504, Control_c, 0, 67, 16
1, 40518, Note_on_c, 0, 80, 64
1, 40519, Control_c, 0, 67, 23
1, 40521, Note_off_c, 0, 82, 63
1, 40534, Control_c, 0, 67, 30
1, 40548, Control_c, 0, 67, 35
1, 40549, Note_off_c, 0, 80, 65
1, 40563, Control_c, 0, 67, 38
1, 40578, Control_c, 0, 67, 39
1, 40581, Note_on_c, 0, 79, 74
1, 40622, Control_c, 0, 67, 38
1, 40637, Note_off_c, 0, 79, 61
1, 40680, Note_on_c, 0, 87, 70
1, 40682, Control_c, 0, 67, 39
1, 40697, Control_c, 0, 67, 39
1, 40768, Note_on_c, 0, 86, 69
1, 40779, Note_off_c, 0, 87, 59
1, 40817, Note_off_c, 0, 86, 61
1, 40830, Control_c, 0, 67, 40
1, 40848, Note_on_c, 0, 84, 63
1, 40859, Control_c, 0, 67, 40
1, 40874, Control_c, 0, 67, 41
1, 40904, Control_c, 0, 67, 42
1, 40907, Note_off_c, 0, 84, 54
1, 40935, Control_c, 0, 67, 43
1, 40936, Note_on_c, 0, 82, 62
1, 40950, Control_c, 0, 67, 43
1, 40964, Control_c, 0, 67, 44
1, 40979, Control_c, 0, 67, 45
1, 40994, Control_c, 0, 67, 46
1, 41009, Control_c, 0, 67, 47
1, 41015, Note_on_c, 0, 80, 64
1, 41024, Control_c, 0, 67, 49
1, 41030, Note_off_c, 0, 82, 55
1, 41038, Control_c, 0, 67, 51
1, 41053, Control_c, 0, 67, 53
1, 41068, Control_c, 0, 67, 54
1, 41084, Note_off_c, 0, 80, 59
1, 41102, Note_on_c, 0, 79, 58
1, 41126, Note_off_c, 0, 79, 66
1, 41209, Control_c, 0, 67, 54
1, 41293, Note_on_c, 0, 82, 65
1, 41296, Note_on_c, 0, 79, 65
1, 41312, Control_c, 0, 67, 54
1, 41342, Control_c, 0, 67, 53
1, 41357, Control_c, 0, 67, 53
1, 41371, Control_c, 0, 67, 52
1, 41386, Control_c, 0, 67, 52
1, 41388, Note_on_c, 0, 63, 54
1, 41401, Control_c, 0, 67, 51
1, 41431, Control_c, 0, 67, 51
1, 41445, Control_c, 0, 67, 50
1, 41460, Control_c, 0, 67, 50
1, 41468, Note_on_c, 0, 65, 58
1, 41475, Control_c, 0, 67, 49
1, 41501, Note_off_c, 0, 63, 52
1, 41505, Control_c, 0, 67, 49
1, 41520, Control_c, 0, 67, 48
1, 41536, Note_off_c, 0, 65, 62
1, 41549, Control_c, 0, 67, 48
1, 41551, Note_on_c, 0, 67, 70
1, 41579, Control_c, 0, 67, 47
1, 41607, Note_off_c, 0, 82, 61
1, 41609, Control_c, 0, 67, 47
1, 41624, Control_c, 0, 67, 46
1, 41637, Note_off_c, 0, 67, 63
1, 41642, Note_on_c, 0, 65, 68
1, 41683, Control_c, 0, 67, 46
1, 41709, Note_on_c, 0, 63, 59
1, 41726, Note_off_c, 0, 65, 60
1, 41758, Control_c, 0, 67, 45
1, 41785, Note_off_c, 0, 63, 64
1, 41787, Control_c, 0, 67, 45
1, 41790, Note_on_c, 0, 82, 72
1, 41794, Note_on_c, 0, 80, 63
1, 41800, Note_on_c, 0, 62, 63
1, 41802, Control_c, 0, 67, 44
1, 41817, Control_c, 0, 67, 44
1, 41832, Control_c, 0, 67, 43
1, 41847, Control_c, 0, 67, 43
1, 41848, Note_off_c, 0, 79, 57
1, 41877, Note_off_c, 0, 62, 62
1, 41879, Note_on_c, 0, 65, 69
1, 41972, Note_off_c, 0, 65, 62
1, 41985, Note_on_c, 0, 70, 61
1, 42002, Control_c, 0, 67, 42
1, 42032, Control_c, 0, 67, 42
1, 42040, Note_off_c, 0, 70, 58
1, 42047, Control_c, 0, 67, 41
1, 42071, Note_on_c, 0, 74, 63
1, 42076, Control_c, 0, 67, 40
1, 42091, Control_c, 0, 67, 40
1, 42106, Control_c, 0, 67, 39
1, 42120, Control_c, 0, 67, 39
1, 42126, Note_off_c, 0, 82, 55
1, 42133, Note_off_c, 0, 74, 59
1, 42135, Control_c, 0, 67, 38
1, 42153, Note_on_c, 0, 72, 53
1, 42165, Control_c, 0, 67, 38
1, 42180, Control_c, 0, 67, 37
1, 42194, Control_c, 0, 67, 34
1, 42196, Note_off_c, 0, 72, 63
1, 42209, Control_c, 0, 67, 31
1, 42216, Note_on_c, 0, 70, 52
1, 42224, Control_c, 0, 67, 30
1, 42238, Control_c, 0, 67, 29
1, 42321, Note_on_c, 0, 82, 51
1, 42329, Note_on_c, 0, 79, 53
1, 42345, Note_on_c, 0, 75, 55
1, 42359, Note_off_c, 0, 80, 33
1, 42382, Note_off_c, 0, 79, 57
1, 42398, Note_off_c, 0, 70, 23
1, 42402, Control_c, 0, 67, 29
1, 42416, Note_off_c, 0, 82, 51
1, 42417, Control_c, 0, 67, 28
1, 42432, Control_c, 0, 64, 22
1, 42432, Control_c, 0, 67, 24
1, 42447, Note_off_c, 0, 75, 61
1, 42447, Control_c, 0, 64, 43
1, 42447, Control_c, 0, 67, 14
1, 42462, Control_c, 0, 64, 55
1, 42462, Control_c, 0, 67, 0
1, 42476, Control_c, 0, 64, 59
1, 42488, Note_on_c, 0, 79, 67
1, 42491, Control_c, 0, 64, 60
1, 42521, Control_c, 0, 64, 60
1, 42566, Control_c, 0, 64, 59
1, 42580, Note_on_c, 0, 80, 68
1, 42581, Control_c, 0, 64, 55
1, 42586, Note_off_c, 0, 79, 58
1, 42596, Control_c, 0, 64, 50
1, 42611, Control_c, 0, 64, 44
1, 42626, Control_c, 0, 64, 38
1, 42640, Control_c, 0, 64, 34
1, 42643, Note_off_c, 0, 80, 62
1, 42646, Note_on_c, 0, 82, 73
1, 42663, Control_c, 0, 64, 29
1, 42678, Control_c, 0, 64, 26
1, 42692, Control_c, 0, 64, 23
1, 42707, Control_c, 0, 64, 20
1, 42722, Control_c, 0, 64, 18
1, 42736, Control_c, 0, 64, 17
1, 42740, Note_on_c, 0, 80, 70
1, 42749, Note_off_c, 0, 82, 63
1, 42751, Control_c, 0, 64, 16
1, 42766, Control_c, 0, 64, 15
1, 42781, Note_off_c, 0, 80, 60
1, 42808, Note_on_c, 0, 79, 71
1, 42825, Control_c, 0, 64, 15
1, 42840, Control_c, 0, 64, 14
1, 42855, Control_c, 0, 64, 13
1, 42864, Note_off_c, 0, 79, 62
1, 42906, Note_on_c, 0, 87, 75
1, 42959, Control_c, 0, 64, 13
1, 42990, Note_on_c, 0, 86, 74
1, 43001, Note_off_c, 0, 87, 59
1, 43045, Note_off_c, 0, 86, 64
1, 43069, Note_on_c, 0, 84, 70
1, 43135, Note_off_c, 0, 84, 58
1, 43150, Note_on_c, 0, 82, 76
1, 43231, Note_on_c, 0, 80, 75
1, 43309, Note_on_c, 0, 79, 72
1, 43314, Note_off_c, 0, 82, 57
1, 43367, Note_off_c, 0, 80, 55
1, 43404, Note_off_c, 0, 79, 61
1, 43415, Note_on_c, 0, 77, 63
1, 43430, Note_on_c, 0, 65, 54
1, 43433, Note_on_c, 0, 56, 46
1, 43437, Note_on_c, 0, 60, 44
1, 43463, Note_off_c, 0, 77, 57
1, 43567, Note_on_c, 0, 77, 71
1, 43643, Note_on_c, 0, 79, 75
1, 43665, Note_off_c, 0, 77, 57
1, 43713, Note_off_c, 0, 79, 66
1, 43714, Note_on_c, 0, 80, 76
1, 43800, Note_on_c, 0, 79, 81
1, 43827, Control_c, 0, 64, 13
1, 43833, Note_off_c, 0, 80, 61
1, 43872, Note_on_c, 0, 77, 72
1, 43877, Note_off_c, 0, 79, 64
1, 43898, Note_off_c, 0, 56, 55
1, 43902, Note_off_c, 0, 65, 57
1, 43956, Note_off_c, 0, 60, 35
1, 43960, Note_on_c, 0, 84, 73
1, 43970, Note_off_c, 0, 77, 62
1, 44045, Note_on_c, 0, 82, 72
1, 44090, Note_off_c, 0, 84, 56
1, 44140, Note_on_c, 0, 80, 76
1, 44160, Control_c, 0, 64, 14
1, 44188, Note_off_c, 0, 82, 63
1, 44225, Note_on_c, 0, 79, 63
1, 44241, Note_off_c, 0, 80, 59
1, 44262, Note_off_c, 0, 79, 62
1, 44295, Note_on_c, 0, 77, 65
1, 44351, Note_off_c, 0, 77, 56
1, 44382, Control_c, 0, 67, 10
1, 44384, Note_on_c, 0, 75, 69
1, 44396, Control_c, 0, 67, 12
1, 44411, Control_c, 0, 67, 14
1, 44426, Control_c, 0, 67, 16
1, 44441, Control_c, 0, 67, 20
1, 44456, Control_c, 0, 67, 24
1, 44465, Note_off_c, 0, 75, 61
1, 44470, Note_on_c, 0, 74, 60
1, 44471, Control_c, 0, 67, 27
1, 44486, Control_c, 0, 67, 28
1, 44498, Note_on_c, 0, 58, 40
1, 44500, Note_on_c, 0, 68, 44
1, 44503, Note_on_c, 0, 65, 41
1, 44540, Note_off_c, 0, 74, 61
1, 44545, Control_c, 0, 67, 29
1, 44575, Control_c, 0, 67, 29
1, 44605, Note_on_c, 0, 77, 60
1, 44663, Control_c, 0, 64, 13
1, 44678, Control_c, 0, 67, 29
1, 44693, Control_c, 0, 67, 28
1, 44694, Note_on_c, 0, 75, 65
1, 44706, Note_off_c, 0, 77, 60
1, 44722, Control_c, 0, 67, 28
1, 44737, Control_c, 0, 67, 27
1, 44752, Control_c, 0, 67, 27
1, 44767, Control_c, 0, 67, 26
1, 44777, Note_on_c, 0, 74, 63
1, 44781, Control_c, 0, 67, 26
1, 44793, Note_off_c, 0, 75, 57
1, 44796, Control_c, 0, 67, 25
1, 44822, Note_off_c, 0, 74, 64
1, 44825, Control_c, 0, 67, 25
1, 44840, Note_off_c, 0, 68, 61
1, 44840, Control_c, 0, 67, 24
1, 44858, Note_on_c, 0, 72, 64
1, 44870, Control_c, 0, 67, 24
1, 44885, Control_c, 0, 67, 23
1, 44907, Control_c, 0, 67, 23
1, 44918, Note_off_c, 0, 65, 57
1, 44922, Control_c, 0, 67, 22
1, 44931, Note_off_c, 0, 58, 53
1, 44934, Note_off_c, 0, 72, 54
1, 44953, Control_c, 0, 67, 22
1, 44957, Note_on_c, 0, 70, 68
1, 44968, Control_c, 0, 67, 21
1, 44983, Control_c, 0, 67, 21
1, 44998, Control_c, 0, 67, 20
1, 45046, Note_on_c, 0, 68, 68
1, 45086, Control_c, 0, 67, 20
1, 45094, Note_off_c, 0, 70, 55
1, 45127, Note_on_c, 0, 67, 64
1, 45140, Note_off_c, 0, 68, 59
1, 45168, Note_off_c, 0, 67, 63
1, 45199, Note_on_c, 0, 65, 64
1, 45262, Note_off_c, 0, 65, 54
1, 45286, Note_on_c, 0, 63, 71
1, 45368, Control_c, 0, 64, 14
1, 45374, Note_on_c, 0, 62, 60
1, 45386, Note_off_c, 0, 63, 58
1, 45407, Note_off_c, 0, 62, 66
1, 45439, Note_on_c, 0, 60, 61
1, 45522, Note_off_c, 0, 60, 61
1, 45527, Note_on_c, 0, 58, 66
1, 45533, Note_on_c, 0, 56, 76
1, 45535, Note_on_c, 0, 46, 68
1, 45615, Note_on_c, 0, 62, 54
1, 45617, Note_off_c, 0, 58, 58
1, 45630, Note_off_c, 0, 56, 51
1, 45690, Note_off_c, 0, 62, 59
1, 45700, Note_on_c, 0, 65, 52
1, 45765, Note_off_c, 0, 65, 61
1, 45770, Note_on_c, 0, 58, 57
1, 45780, Note_on_c, 0, 55, 74
1, 45812, Note_off_c, 0, 58, 64
1, 45831, Note_on_c, 0, 62, 56
1, 45838, Note_off_c, 0, 55, 62
1, 45909, Note_off_c, 0, 62, 63
1, 45931, Note_on_c, 0, 63, 53
1, 45991, Note_on_c, 0, 56, 51
1, 46012, Note_on_c, 0, 53, 69
1, 46015, Note_off_c, 0, 63, 55
1, 46040, Note_off_c, 0, 53, 64
1, 46073, Note_on_c, 0, 58, 57
1, 46077, Note_off_c, 0, 56, 57
1, 46101, Control_c, 0, 67, 19
1, 46156, Note_off_c, 0, 58, 61
1, 46165, Note_on_c, 0, 62, 53
1, 46234, Note_off_c, 0, 62, 55
1, 46235, Control_c, 0, 67, 19
1, 46241, Note_on_c, 0, 55, 50
1, 46260, Note_on_c, 0, 51, 67
1, 46260, Note_off_c, 0, 46, 64
1, 46280, Control_c, 0, 67, 18
1, 46292, Note_off_c, 0, 51, 66
1, 46295, Control_c, 0, 67, 18
1, 46316, Note_on_c, 0, 58, 51
1, 46322, Note_off_c, 0, 55, 61
1, 46325, Control_c, 0, 67, 17
1, 46354, Control_c, 0, 64, 15
1, 46378, Note_off_c, 0, 58, 63
1, 46391, Note_on_c, 0, 63, 55
1, 46435, Control_c, 0, 64, 15
1, 46474, Note_off_c, 0, 63, 60
1, 46493, Note_on_c, 0, 56, 75
1, 46501, Note_on_c, 0, 58, 59
1, 46505, Note_on_c, 0, 46, 65
1, 46540, Control_c, 0, 67, 18
1, 46569, Note_on_c, 0, 62, 59
1, 46582, Note_off_c, 0, 58, 60
1, 46629, Note_off_c, 0, 56, 58
1, 46653, Note_on_c, 0, 65, 58
1, 46661, Note_off_c, 0, 62, 60
1, 46729, Note_on_c, 0, 58, 58
1, 46736, Note_off_c, 0, 65, 60
1, 46742, Note_on_c, 0, 55, 69
1, 46777, Control_c, 0, 67, 18
1, 46790, Note_off_c, 0, 55, 56
1, 46801, Note_on_c, 0, 62, 56
1, 46820, Note_off_c, 0, 58, 58
1, 46873, Note_off_c, 0, 62, 64
1, 46900, Note_on_c, 0, 63, 47
1, 46975, Note_off_c, 0, 63, 49
1, 46985, Note_on_c, 0, 56, 49
1, 46990, Note_on_c, 0, 53, 59
1, 47020, Note_off_c, 0, 53, 64
1, 47065, Note_on_c, 0, 58, 50
1, 47069, Note_off_c, 0, 56, 55
1, 47103, Control_c, 0, 64, 15
1, 47133, Note_off_c, 0, 58, 60
1, 47133, Note_on_c, 0, 62, 50
1, 47188, Note_off_c, 0, 62, 59
1, 47233, Note_on_c, 0, 55, 48
1, 47256, Note_on_c, 0, 51, 57
1, 47277, Note_off_c, 0, 46, 41
1, 47286, Note_off_c, 0, 51, 66
1, 47365, Note_off_c, 0, 55, 34
1, 47392, Note_on_c, 0, 58, 14
1, 47436, Note_off_c, 0, 58, 51
1, 47456, Note_on_c, 0, 63, 46
1, 47525, Note_off_c, 0, 63, 60
1, 47526, Note_on_c, 0, 44, 52
1, 47556, Control_c, 0, 67, 18
1, 47579, Note_on_c, 0, 48, 47
1, 47615, Control_c, 0, 67, 17
1, 47651, Note_on_c, 0, 53, 50
1, 47718, Control_c, 0, 64, 12
1, 47732, Control_c, 0, 64, 0
1, 47744, Note_on_c, 0, 60, 57
1, 47762, Control_c, 0, 67, 17
1, 47806, Control_c, 0, 67, 16
1, 47821, Control_c, 0, 67, 16
1, 47825, Note_off_c, 0, 60, 57
1, 47830, Note_on_c, 0, 65, 54
1, 47836, Control_c, 0, 67, 15
1, 47851, Control_c, 0, 67, 14
1, 47866, Control_c, 0, 64, 24
1, 47866, Control_c, 0, 67, 13
1, 47881, Control_c, 0, 64, 42
1, 47881, Control_c, 0, 67, 11
1, 47885, Note_off_c, 0, 65, 61
1, 47892, Note_on_c, 0, 68, 61
1, 47903, Control_c, 0, 64, 52
1, 47903, Control_c, 0, 67, 0
1, 47918, Control_c, 0, 64, 56
1, 47932, Control_c, 0, 64, 59
1, 47940, Note_off_c, 0, 68, 63
1, 47947, Control_c, 0, 64, 60
1, 47962, Control_c, 0, 64, 62
1, 47975, Note_on_c, 0, 65, 72
1, 47977, Control_c, 0, 64, 63
1, 47992, Control_c, 0, 64, 64
1, 48006, Control_c, 0, 64, 65
1, 48021, Control_c, 0, 64, 65
1, 48046, Note_on_c, 0, 68, 72
1, 48066, Control_c, 0, 64, 63
1, 48081, Control_c, 0, 64, 56
1, 48087, Note_off_c, 0, 65, 57
1, 48095, Control_c, 0, 64, 33
1, 48110, Control_c, 0, 64, 25
1, 48116, Note_off_c, 0, 68, 64
1, 48126, Note_on_c, 0, 72, 68
1, 48126, Control_c, 0, 64, 39
1, 48141, Control_c, 0, 64, 52
1, 48155, Control_c, 0, 64, 59
1, 48170, Control_c, 0, 64, 63
1, 48185, Control_c, 0, 64, 65
1, 48187, Note_off_c, 0, 72, 57
1, 48200, Control_c, 0, 64, 68
1, 48203, Note_on_c, 0, 68, 68
1, 48215, Control_c, 0, 64, 69
1, 48230, Control_c, 0, 64, 70
1, 48278, Note_off_c, 0, 68, 65
1, 48280, Note_on_c, 0, 72, 77
1, 48319, Control_c, 0, 64, 69
1, 48330, Note_off_c, 0, 72, 61
1, 48334, Control_c, 0, 64, 65
1, 48348, Control_c, 0, 64, 56
1, 48355, Note_on_c, 0, 77, 66
1, 48363, Control_c, 0, 64, 37
1, 48378, Control_c, 0, 64, 21
1, 48389, Note_off_c, 0, 77, 65
1, 48393, Control_c, 0, 64, 30
1, 48408, Control_c, 0, 64, 45
1, 48422, Control_c, 0, 64, 56
1, 48437, Control_c, 0, 64, 62
1, 48438, Note_on_c, 0, 72, 76
1, 48452, Control_c, 0, 64, 63
1, 48467, Control_c, 0, 64, 64
1, 48511, Control_c, 0, 64, 64
1, 48513, Note_off_c, 0, 72, 62
1, 48517, Note_on_c, 0, 77, 71
1, 48526, Control_c, 0, 64, 63
1, 48541, Control_c, 0, 64, 61
1, 48555, Control_c, 0, 64, 59
1, 48570, Control_c, 0, 64, 56
1, 48585, Control_c, 0, 64, 52
1, 48590, Note_off_c, 0, 77, 65
1, 48592, Note_on_c, 0, 80, 72
1, 48600, Control_c, 0, 64, 47
1, 48615, Control_c, 0, 64, 44
1, 48629, Control_c, 0, 64, 42
1, 48644, Control_c, 0, 64, 41
1, 48667, Control_c, 0, 64, 39
1, 48671, Note_off_c, 0, 80, 64
1, 48681, Control_c, 0, 64, 36
1, 48686, Note_on_c, 0, 77, 87
1, 48696, Control_c, 0, 64, 32
1, 48711, Control_c, 0, 64, 28
1, 48726, Control_c, 0, 64, 26
1, 48741, Control_c, 0, 64, 25
1, 48755, Control_c, 0, 64, 24
1, 48770, Control_c, 0, 64, 23
1, 48772, Note_on_c, 0, 80, 83
1, 48800, Control_c, 0, 64, 23
1, 48807, Note_off_c, 0, 77, 64
1, 48815, Control_c, 0, 64, 22
1, 48829, Control_c, 0, 64, 22
1, 48844, Control_c, 0, 64, 21
1, 48859, Control_c, 0, 64, 21
1, 48861, Note_on_c, 0, 84, 76
1, 48885, Note_off_c, 0, 80, 62
1, 48949, Control_c, 0, 64, 20
1, 48960, Note_on_c, 0, 77, 75
1, 48964, Control_c, 0, 64, 19
1, 48983, Note_off_c, 0, 84, 61
1, 48993, Control_c, 0, 64, 18
1, 49008, Control_c, 0, 64, 17
1, 49023, Control_c, 0, 64, 17
1, 49052, Control_c, 0, 64, 15
1, 49058, Note_on_c, 0, 80, 79
1, 49067, Control_c, 0, 64, 14
1, 49082, Control_c, 0, 64, 12
1, 49097, Control_c, 0, 64, 9
1, 49112, Control_c, 0, 64, 0
1, 49157, Note_off_c, 0, 77, 37
1, 49195, Note_on_c, 0, 84, 80
1, 49220, Note_off_c, 0, 80, 61
1, 49334, Control_c, 0, 64, 15
1, 49349, Control_c, 0, 64, 40
1, 49354, Note_on_c, 0, 82, 76
1, 49364, Control_c, 0, 64, 50
1, 49378, Control_c, 0, 64, 57
1, 49382, Note_off_c, 0, 44, 61
1, 49401, Control_c, 0, 64, 61
1, 49406, Note_off_c, 0, 48, 61
1, 49407, Note_off_c, 0, 53, 58
1, 49416, Control_c, 0, 64, 63
1, 49431, Control_c, 0, 64, 65
1, 49446, Control_c, 0, 64, 67
1, 49448, Note_off_c, 0, 84, 53
1, 49460, Control_c, 0, 64, 69
1, 49464, Note_on_c, 0, 80, 81
1, 49475, Control_c, 0, 64, 71
1, 49490, Control_c, 0, 64, 72
1, 49504, Control_c, 0, 64, 73
1, 49519, Control_c, 0, 64, 74
1, 49521, Note_off_c, 0, 82, 58
1, 49534, Control_c, 0, 64, 75
1, 49547, Note_on_c, 0, 79, 80
1, 49549, Control_c, 0, 64, 76
1, 49577, Note_off_c, 0, 80, 63
1, 49599, Note_off_c, 0, 79, 65
1, 49619, Note_on_c, 0, 77, 73
1, 49622, Control_c, 0, 67, 11
1, 49637, Control_c, 0, 67, 14
1, 49652, Control_c, 0, 67, 16
1, 49667, Control_c, 0, 64, 75
1, 49667, Control_c, 0, 67, 19
1, 49674, Note_off_c, 0, 77, 62
1, 49682, Control_c, 0, 64, 74
1, 49682, Control_c, 0, 67, 22
1, 49696, Control_c, 0, 64, 73
1, 49696, Control_c, 0, 67, 24
1, 49702, Note_on_c, 0, 75, 83
1, 49711, Control_c, 0, 64, 72
1, 49711, Control_c, 0, 67, 27
1, 49727, Control_c, 0, 64, 71
1, 49727, Control_c, 0, 67, 28
1, 49742, Control_c, 0, 64, 70
1, 49754, Note_off_c, 0, 75, 65
1, 49757, Control_c, 0, 64, 69
1, 49759, Note_on_c, 0, 58, 57
1, 49772, Control_c, 0, 64, 67
1, 49787, Control_c, 0, 64, 67
1, 49801, Control_c, 0, 64, 65
1, 49804, Note_on_c, 0, 65, 63
1, 49815, Note_on_c, 0, 75, 72
1, 49816, Control_c, 0, 64, 64
1, 49831, Control_c, 0, 64, 62
1, 49846, Control_c, 0, 64, 60
1, 49846, Control_c, 0, 67, 28
1, 49862, Control_c, 0, 64, 59
1, 49862, Control_c, 0, 67, 27
1, 49876, Control_c, 0, 64, 57
1, 49876, Control_c, 0, 67, 26
1, 49891, Control_c, 0, 64, 55
1, 49891, Control_c, 0, 67, 25
1, 49906, Control_c, 0, 64, 52
1, 49906, Control_c, 0, 67, 24
1, 49921, Control_c, 0, 64, 49
1, 49921, Control_c, 0, 67, 23
1, 49926, Note_on_c, 0, 68, 68
1, 49935, Control_c, 0, 64, 44
1, 49935, Control_c, 0, 67, 22
1, 49950, Control_c, 0, 64, 38
1, 49950, Control_c, 0, 67, 22
1, 49965, Control_c, 0, 64, 29
1, 49965, Control_c, 0, 67, 21
1, 49980, Control_c, 0, 64, 17
1, 49980, Control_c, 0, 67, 20
1, 49995, Control_c, 0, 64, 0
1, 49995, Control_c, 0, 67, 19
1, 50009, Control_c, 0, 67, 19
1, 50024, Control_c, 0, 67, 18
1, 50039, Control_c, 0, 67, 16
1, 50054, Control_c, 0, 67, 14
1, 50069, Control_c, 0, 67, 9
1, 50084, Control_c, 0, 67, 0
1, 50143, Control_c, 0, 64, 11
1, 50165, Control_c, 0, 64, 36
1, 50180, Control_c, 0, 64, 50
1, 50195, Control_c, 0, 64, 57
1, 50209, Control_c, 0, 64, 60
1, 50224, Control_c, 0, 64, 62
1, 50239, Control_c, 0, 64, 63
1, 50254, Control_c, 0, 64, 63
1, 50255, Note_off_c, 0, 75, 59
1, 50257, Note_on_c, 0, 74, 69
1, 50343, Control_c, 0, 64, 62
1, 50358, Control_c, 0, 64, 61
1, 50373, Control_c, 0, 64, 58
1, 50388, Control_c, 0, 64, 53
1, 50402, Control_c, 0, 64, 41
1, 50417, Control_c, 0, 64, 10
1, 50432, Control_c, 0, 64, 0
1, 50447, Note_off_c, 0, 74, 61
1, 50448, Note_on_c, 0, 75, 72
1, 50551, Note_off_c, 0, 75, 63
1, 50566, Control_c, 0, 64, 27
1, 50576, Note_on_c, 0, 74, 70
1, 50581, Control_c, 0, 64, 42
1, 50596, Control_c, 0, 64, 50
1, 50611, Control_c, 0, 64, 55
1, 50623, Control_c, 0, 64, 57
1, 50638, Control_c, 0, 64, 58
1, 50653, Control_c, 0, 64, 60
1, 50665, Note_off_c, 0, 74, 59
1, 50668, Control_c, 0, 64, 61
1, 50681, Note_on_c, 0, 75, 64
1, 50683, Control_c, 0, 64, 62
1, 50698, Control_c, 0, 64, 62
1, 50713, Control_c, 0, 64, 63
1, 50728, Control_c, 0, 64, 64
1, 50728, Note_off_c, 0, 75, 61
1, 50742, Control_c, 0, 64, 65
1, 50757, Control_c, 0, 64, 66
1, 50772, Control_c, 0, 64, 66
1, 50772, Note_on_c, 0, 74, 68
1, 50787, Control_c, 0, 64, 67
1, 50811, Note_off_c, 0, 74, 60
1, 50836, Note_on_c, 0, 75, 64
1, 50854, Note_off_c, 0, 75, 67
1, 50887, Note_on_c, 0, 74, 63
1, 50937, Note_off_c, 0, 74, 63
1, 50942, Note_on_c, 0, 75, 70
1, 50975, Note_off_c, 0, 75, 61
1, 51014, Note_on_c, 0, 74, 67
1, 51017, Control_c, 0, 67, 9
1, 51031, Control_c, 0, 67, 10
1, 51046, Note_off_c, 0, 74, 63
1, 51046, Control_c, 0, 67, 12
1, 51058, Note_on_c, 0, 75, 74
1, 51061, Control_c, 0, 67, 13
1, 51075, Control_c, 0, 67, 14
1, 51083, Note_off_c, 0, 75, 68
1, 51090, Control_c, 0, 64, 66
1, 51090, Control_c, 0, 67, 15
1, 51105, Control_c, 0, 67, 17
1, 51113, Note_on_c, 0, 74, 72
1, 51120, Control_c, 0, 67, 20
1, 51135, Control_c, 0, 64, 66
1, 51135, Control_c, 0, 67, 23
1, 51149, Control_c, 0, 67, 25
1, 51156, Note_off_c, 0, 74, 62
1, 51157, Note_on_c, 0, 75, 73
1, 51164, Control_c, 0, 67, 26
1, 51187, Note_off_c, 0, 75, 66
1, 51209, Control_c, 0, 64, 65
1, 51227, Note_on_c, 0, 74, 59
1, 51246, Note_off_c, 0, 74, 66
1, 51252, Note_on_c, 0, 75, 81
1, 51253, Control_c, 0, 64, 65
1, 51253, Control_c, 0, 67, 25
1, 51282, Control_c, 0, 64, 64
1, 51297, Control_c, 0, 64, 63
1, 51312, Note_off_c, 0, 75, 57
1, 51312, Control_c, 0, 64, 63
1, 51317, Note_on_c, 0, 74, 76
1, 51328, Control_c, 0, 64, 62
1, 51343, Control_c, 0, 64, 61
1, 51358, Control_c, 0, 64, 61
1, 51372, Control_c, 0, 64, 60
1, 51372, Control_c, 0, 67, 25
1, 51387, Control_c, 0, 64, 59
1, 51402, Control_c, 0, 64, 57
1, 51402, Control_c, 0, 67, 24
1, 51417, Control_c, 0, 64, 52
1, 51417, Control_c, 0, 67, 24
1, 51432, Control_c, 0, 64, 39
1, 51432, Control_c, 0, 67, 23
1, 51446, Control_c, 0, 64, 0
1, 51446, Control_c, 0, 67, 23
1, 51461, Control_c, 0, 67, 22
1, 51476, Control_c, 0, 67, 21
1, 51491, Control_c, 0, 67, 21
1, 51505, Note_on_c, 0, 72, 74
1, 51506, Control_c, 0, 64, 20
1, 51506, Control_c, 0, 67, 20
1, 51509, Note_off_c, 0, 74, 54
1, 51521, Control_c, 0, 64, 45
1, 51535, Control_c, 0, 64, 60
1, 51535, Control_c, 0, 67, 20
1, 51550, Control_c, 0, 64, 64
1, 51565, Control_c, 0, 64, 66
1, 51580, Control_c, 0, 64, 67
1, 51595, Control_c, 0, 64, 68
1, 51600, Note_off_c, 0, 72, 61
1, 51610, Control_c, 0, 67, 19
1, 51646, Control_c, 0, 64, 67
1, 51661, Control_c, 0, 64, 66
1, 51676, Control_c, 0, 64, 65
1, 51685, Note_on_c, 0, 72, 71
1, 51691, Control_c, 0, 64, 63
1, 51705, Control_c, 0, 64, 60
1, 51705, Control_c, 0, 67, 19
1, 51720, Control_c, 0, 64, 55
1, 51735, Control_c, 0, 64, 51
1, 51750, Control_c, 0, 64, 46
1, 51765, Control_c, 0, 64, 43
1, 51780, Control_c, 0, 64, 41
1, 51780, Control_c, 0, 67, 18
1, 51795, Control_c, 0, 64, 39
1, 51810, Control_c, 0, 64, 36
1, 51825, Control_c, 0, 64, 34
1, 51825, Control_c, 0, 67, 18
1, 51839, Control_c, 0, 64, 32
1, 51854, Control_c, 0, 64, 32
1, 51884, Control_c, 0, 64, 31
1, 51898, Control_c, 0, 64, 31
1, 51913, Control_c, 0, 64, 30
1, 51928, Control_c, 0, 64, 29
1, 51972, Control_c, 0, 64, 29
1, 51987, Control_c, 0, 64, 28
1, 51997, Note_on_c, 0, 74, 56
1, 52002, Control_c, 0, 64, 26
1, 52016, Control_c, 0, 64, 21
1, 52031, Control_c, 0, 64, 17
1, 52042, Note_off_c, 0, 72, 57
1, 52046, Control_c, 0, 64, 8
1, 52061, Control_c, 0, 64, 0
1, 52225, Control_c, 0, 67, 18
1, 52240, Control_c, 0, 67, 19
1, 52255, Control_c, 0, 67, 20
1, 52269, Control_c, 0, 64, 25
1, 52269, Control_c, 0, 67, 21
1, 52284, Control_c, 0, 64, 38
1, 52284, Control_c, 0, 67, 22
1, 52299, Control_c, 0, 64, 48
1, 52299, Control_c, 0, 67, 23
1, 52313, Control_c, 0, 64, 55
1, 52313, Control_c, 0, 67, 23
1, 52328, Control_c, 0, 64, 59
1, 52328, Control_c, 0, 67, 24
1, 52343, Control_c, 0, 64, 62
1, 52343, Control_c, 0, 67, 25
1, 52358, Control_c, 0, 64, 65
1, 52358, Control_c, 0, 67, 25
1, 52373, Control_c, 0, 64, 67
1, 52373, Control_c, 0, 67, 26
1, 52395, Control_c, 0, 64, 69
1, 52410, Control_c, 0, 64, 71
1, 52410, Control_c, 0, 67, 26
1, 52425, Control_c, 0, 64, 73
1, 52425, Control_c, 0, 67, 27
1, 52440, Control_c, 0, 64, 75
1, 52440, Control_c, 0, 67, 27
1, 52454, Control_c, 0, 64, 77
1, 52454, Control_c, 0, 67, 28
1, 52469, Control_c, 0, 64, 79
1, 52469, Control_c, 0, 67, 32
1, 52484, Control_c, 0, 64, 81
1, 52484, Control_c, 0, 67, 38
1, 52499, Control_c, 0, 64, 82
1, 52499, Control_c, 0, 67, 43
1, 52514, Control_c, 0, 64, 82
1, 52514, Control_c, 0, 67, 46
1, 52528, Control_c, 0, 67, 47
1, 52543, Control_c, 0, 64, 83
1, 52543, Control_c, 0, 67, 48
1, 52549, Note_off_c, 0, 68, 62
1, 52558, Control_c, 0, 67, 47
1, 52573, Control_c, 0, 64, 83
1, 52581, Note_off_c, 0, 65, 41
1, 52584, Note_off_c, 0, 74, 56
1, 52622, Note_off_c, 0, 58, 31
1, 52647, Control_c, 0, 64, 83
1, 52677, Control_c, 0, 67, 47
1, 52692, Control_c, 0, 67, 46
1, 52707, Control_c, 0, 64, 82
1, 52707, Control_c, 0, 67, 46
1, 52721, Control_c, 0, 64, 81
1, 52721, Control_c, 0, 67, 45
1, 52736, Control_c, 0, 64, 79
1, 52736, Control_c, 0, 67, 44
1, 52751, Control_c, 0, 64, 78
1, 52751, Control_c, 0, 67, 43
1, 52766, Control_c, 0, 64, 77
1, 52766, Control_c, 0, 67, 42
1, 52781, Control_c, 0, 64, 75
1, 52781, Control_c, 0, 67, 41
1, 52795, Control_c, 0, 64, 72
1, 52795, Control_c, 0, 67, 40
1, 52810, Control_c, 0, 64, 70
1, 52810, Control_c, 0, 67, 40
1, 52825, Control_c, 0, 64, 68
1, 52825, Control_c, 0, 67, 39
1, 52840, Control_c, 0, 64, 66
1, 52854, Control_c, 0, 64, 63
1, 52854, Control_c, 0, 67, 38
1, 52870, Control_c, 0, 64, 60
1, 52870, Control_c, 0, 67, 38
1, 52885, Control_c, 0, 64, 56
1, 52900, Control_c, 0, 64, 53
1, 52916, Control_c, 0, 64, 51
1, 52930, Control_c, 0, 64, 48
1, 52930, Control_c, 0, 67, 37
1, 52945, Control_c, 0, 64, 45
1, 52960, Control_c, 0, 64, 40
1, 52960, Control_c, 0, 67, 37
1, 52975, Control_c, 0, 64, 35
1, 52975, Control_c, 0, 67, 36
1, 52990, Control_c, 0, 64, 29
1, 52990, Control_c, 0, 67, 35
1, 53005, Control_c, 0, 64, 24
1, 53005, Control_c, 0, 67, 34
1, 53019, Control_c, 0, 64, 21
1, 53019, Control_c, 0, 67, 33
1, 53034, Control_c, 0, 64, 19
1, 53034, Control_c, 0, 67, 31
1, 53049, Control_c, 0, 64, 16
1, 53049, Control_c, 0, 67, 27
1, 53063, Control_c, 0, 64, 10
1, 53063, Control_c, 0, 67, 22
1, 53078, Control_c, 0, 64, 0
1, 53078, Control_c, 0, 67, 19
1, 53093, Control_c, 0, 67, 16
1, 53108, Control_c, 0, 67, 13
1, 53123, Control_c, 0, 67, 10
1, 53145, Control_c, 0, 67, 0
1, 53219, Control_c, 0, 64, 9
1, 53234, Control_c, 0, 64, 13
1, 53249, Control_c, 0, 64, 15
1, 53264, Control_c, 0, 64, 16
1, 53293, Control_c, 0, 64, 16
1, 53295, Note_on_c, 0, 64, 79
1, 53338, Control_c, 0, 64, 16
1, 53367, Control_c, 0, 64, 15
1, 53382, Control_c, 0, 64, 13
1, 53397, Control_c, 0, 64, 12
1, 53412, Control_c, 0, 64, 0
1, 53561, Note_on_c, 0, 55, 60
1, 53561, Note_on_c, 0, 58, 64
1, 53600, Note_off_c, 0, 58, 64
1, 53604, Note_off_c, 0, 55, 61
1, 53783, Control_c, 0, 64, 15
1, 53798, Control_c, 0, 64, 41
1, 53813, Control_c, 0, 64, 52
1, 53828, Control_c, 0, 64, 59
1, 53829, Note_on_c, 0, 58, 64
1, 53836, Note_on_c, 0, 55, 55
1, 53842, Control_c, 0, 64, 62
1, 53857, Control_c, 0, 64, 63
1, 53872, Control_c, 0, 64, 64
1, 53872, Control_c, 0, 67, 10
1, 53875, Note_off_c, 0, 58, 57
1, 53893, Control_c, 0, 64, 66
1, 53893, Control_c, 0, 67, 13
1, 53901, Note_off_c, 0, 55, 50
1, 53908, Control_c, 0, 64, 67
1, 53908, Control_c, 0, 67, 18
1, 53923, Control_c, 0, 67, 27
1, 53938, Control_c, 0, 67, 34
1, 53953, Control_c, 0, 67, 41
1, 53968, Control_c, 0, 67, 46
1, 53983, Control_c, 0, 67, 50
1, 53998, Control_c, 0, 67, 53
1, 54013, Control_c, 0, 64, 66
1, 54013, Control_c, 0, 67, 55
1, 54027, Control_c, 0, 64, 65
1, 54027, Control_c, 0, 67, 56
1, 54042, Control_c, 0, 64, 64
1, 54042, Control_c, 0, 67, 56
1, 54057, Control_c, 0, 64, 62
1, 54072, Control_c, 0, 64, 59
1, 54087, Control_c, 0, 64, 55
1, 54101, Control_c, 0, 64, 50
1, 54108, Note_on_c, 0, 58, 52
1, 54111, Note_on_c, 0, 55, 47
1, 54116, Control_c, 0, 64, 46
1, 54131, Control_c, 0, 64, 41
1, 54131, Control_c, 0, 67, 57
1, 54134, Note_off_c, 0, 58, 62
1, 54141, Note_off_c, 0, 55, 61
1, 54146, Control_c, 0, 64, 34
1, 54161, Control_c, 0, 64, 25
1, 54161, Control_c, 0, 67, 58
1, 54175, Control_c, 0, 64, 17
1, 54175, Control_c, 0, 67, 58
1, 54190, Control_c, 0, 64, 0
1, 54190, Control_c, 0, 67, 62
1, 54205, Control_c, 0, 67, 66
1, 54220, Control_c, 0, 67, 68
1, 54235, Control_c, 0, 67, 69
1, 54249, Control_c, 0, 67, 68
1, 54279, Control_c, 0, 67, 68
1, 54293, Control_c, 0, 67, 67
1, 54308, Control_c, 0, 67, 66
1, 54323, Control_c, 0, 67, 66
1, 54338, Control_c, 0, 67, 65
1, 54353, Control_c, 0, 67, 64
1, 54358, Note_on_c, 0, 65, 71
1, 54367, Control_c, 0, 67, 64
1, 54382, Control_c, 0, 67, 63
1, 54397, Control_c, 0, 67, 62
1, 54411, Control_c, 0, 67, 61
1, 54426, Control_c, 0, 67, 61
1, 54441, Control_c, 0, 67, 60
1, 54456, Control_c, 0, 67, 59
1, 54463, Note_off_c, 0, 64, 55
1, 54471, Control_c, 0, 67, 59
1, 54485, Control_c, 0, 67, 58
1, 54516, Control_c, 0, 67, 58
1, 54531, Control_c, 0, 67, 57
1, 54561, Control_c, 0, 67, 57
1, 54620, Note_on_c, 0, 56, 55
1, 54620, Note_on_c, 0, 60, 54
1, 54620, Control_c, 0, 67, 56
1, 54663, Note_off_c, 0, 56, 61
1, 54667, Note_off_c, 0, 60, 59
1, 54776, Control_c, 0, 67, 56
1, 54790, Control_c, 0, 67, 54
1, 54805, Control_c, 0, 67, 53
1, 54820, Control_c, 0, 67, 47
1, 54835, Control_c, 0, 64, 22
1, 54835, Control_c, 0, 67, 37
1, 54850, Control_c, 0, 64, 45
1, 54850, Control_c, 0, 67, 26
1, 54864, Control_c, 0, 64, 57
1, 54864, Control_c, 0, 67, 13
1, 54879, Control_c, 0, 64, 62
1, 54879, Control_c, 0, 67, 0
1, 54894, Control_c, 0, 64, 64
1, 54909, Control_c, 0, 64, 66
1, 54913, Note_on_c, 0, 60, 50
1, 54915, Note_on_c, 0, 56, 51
1, 54923, Control_c, 0, 64, 67
1, 54938, Control_c, 0, 64, 69
1, 54953, Control_c, 0, 64, 69
1, 54966, Note_off_c, 0, 60, 56
1, 54971, Note_off_c, 0, 56, 57
1, 54983, Control_c, 0, 64, 69
1, 55056, Control_c, 0, 64, 68
1, 55071, Control_c, 0, 64, 67
1, 55086, Control_c, 0, 64, 66
1, 55101, Control_c, 0, 64, 65
1, 55116, Control_c, 0, 64, 63
1, 55130, Control_c, 0, 64, 60
1, 55145, Control_c, 0, 64, 56
1, 55160, Control_c, 0, 64, 52
1, 55163, Note_on_c, 0, 60, 47
1, 55173, Note_on_c, 0, 56, 44
1, 55175, Control_c, 0, 64, 48
1, 55190, Note_off_c, 0, 60, 57
1, 55190, Control_c, 0, 64, 44
1, 55205, Control_c, 0, 64, 38
1, 55212, Note_off_c, 0, 56, 63
1, 55220, Control_c, 0, 64, 31
1, 55234, Control_c, 0, 64, 24
1, 55249, Control_c, 0, 64, 18
1, 55264, Control_c, 0, 64, 12
1, 55279, Control_c, 0, 64, 8
1, 55294, Control_c, 0, 64, 0
1, 55452, Note_on_c, 0, 61, 66
1, 55490, Note_off_c, 0, 65, 60
1, 55736, Note_on_c, 0, 51, 50
1, 55746, Note_on_c, 0, 43, 47
1, 55778, Note_off_c, 0, 51, 62
1, 55781, Note_off_c, 0, 43, 59
1, 55968, Control_c, 0, 64, 19
1, 55983, Control_c, 0, 64, 42
1, 55998, Control_c, 0, 64, 54
1, 56010, Note_on_c, 0, 51, 48
1, 56011, Note_on_c, 0, 43, 39
1, 56013, Control_c, 0, 64, 59
1, 56028, Control_c, 0, 64, 61
1, 56043, Control_c, 0, 64, 62
1, 56057, Control_c, 0, 64, 63
1, 56072, Control_c, 0, 64, 64
1, 56078, Note_off_c, 0, 51, 57
1, 56079, Note_off_c, 0, 43, 54
1, 56184, Control_c, 0, 64, 63
1, 56199, Control_c, 0, 64, 63
1, 56214, Control_c, 0, 64, 61
1, 56229, Control_c, 0, 64, 59
1, 56243, Control_c, 0, 64, 54
1, 56258, Control_c, 0, 64, 49
1, 56273, Control_c, 0, 64, 45
1, 56287, Control_c, 0, 64, 42
1, 56299, Note_on_c, 0, 43, 45
1, 56302, Control_c, 0, 64, 39
1, 56304, Note_on_c, 0, 51, 48
1, 56317, Control_c, 0, 64, 36
1, 56332, Control_c, 0, 64, 33
1, 56335, Note_off_c, 0, 43, 62
1, 56343, Note_off_c, 0, 51, 64
1, 56347, Control_c, 0, 64, 28
1, 56362, Control_c, 0, 64, 26
1, 56376, Control_c, 0, 64, 24
1, 56391, Control_c, 0, 64, 23
1, 56406, Control_c, 0, 64, 20
1, 56421, Control_c, 0, 64, 17
1, 56436, Control_c, 0, 64, 15
1, 56451, Control_c, 0, 64, 13
1, 56466, Control_c, 0, 64, 10
1, 56481, Control_c, 0, 64, 0
1, 56663, Note_on_c, 0, 60, 47
1, 56667, Note_off_c, 0, 61, 61
1, 56672, Note_on_c, 0, 44, 42
1, 56674, Control_c, 0, 64, 17
1, 56683, Note_on_c, 0, 51, 31
1, 56688, Control_c, 0, 64, 41
1, 56703, Control_c, 0, 64, 53
1, 56718, Control_c, 0, 64, 58
1, 56733, Control_c, 0, 64, 60
1, 56748, Control_c, 0, 64, 61
1, 56762, Control_c, 0, 64, 62
1, 56777, Control_c, 0, 64, 62
1, 56788, Note_off_c, 0, 60, 35
1, 56864, Note_off_c, 0, 51, 40
1, 56874, Note_off_c, 0, 44, 51
1, 56934, Control_c, 0, 64, 62
1, 56949, Control_c, 0, 64, 61
1, 56964, Control_c, 0, 64, 60
1, 56979, Control_c, 0, 64, 59
1, 56992, Note_on_c, 0, 71, 71
1, 56993, Control_c, 0, 64, 55
1, 57008, Control_c, 0, 64, 48
1, 57023, Note_on_c, 0, 72, 76
1, 57023, Control_c, 0, 64, 39
1, 57038, Control_c, 0, 64, 25
1, 57048, Note_off_c, 0, 71, 64
1, 57053, Control_c, 0, 64, 0
1, 57066, Note_off_c, 0, 72, 61
1, 57221, Note_on_c, 0, 67, 77
1, 57255, Note_on_c, 0, 68, 78
1, 57267, Note_off_c, 0, 67, 62
1, 57296, Note_off_c, 0, 68, 60
1, 57450, Note_on_c, 0, 64, 72
1, 57482, Note_on_c, 0, 65, 75
1, 57502, Note_off_c, 0, 64, 62
1, 57518, Note_off_c, 0, 65, 64
1, 57712, Note_on_c, 0, 60, 74
1, 57816, Note_off_c, 0, 60, 62
1, 58034, Note_on_c, 0, 71, 67
1, 58105, Note_off_c, 0, 71, 62
1, 58109, Note_on_c, 0, 72, 61
1, 58142, Note_off_c, 0, 72, 63
1, 58268, Note_on_c, 0, 67, 67
1, 58328, Note_off_c, 0, 67, 63
1, 58330, Note_on_c, 0, 68, 64
1, 58359, Note_off_c, 0, 68, 67
1, 58505, Note_on_c, 0, 64, 59
1, 58553, Note_off_c, 0, 64, 64
1, 58576, Note_on_c, 0, 65, 49
1, 58600, Note_off_c, 0, 65, 58
1, 58791, Note_on_c, 0, 60, 51
1, 58860, Control_c, 0, 64, 32
1, 58875, Control_c, 0, 64, 50
1, 58889, Control_c, 0, 64, 58
1, 58904, Control_c, 0, 64, 62
1, 58919, Control_c, 0, 64, 64
1, 58934, Control_c, 0, 64, 65
1, 58944, Note_off_c, 0, 60, 56
1, 58949, Control_c, 0, 64, 67
1, 58964, Control_c, 0, 64, 69
1, 59068, Control_c, 0, 64, 68
1, 59082, Control_c, 0, 64, 67
1, 59097, Control_c, 0, 64, 65
1, 59112, Control_c, 0, 64, 62
1, 59134, Control_c, 0, 64, 57
1, 59149, Control_c, 0, 64, 52
1, 59164, Control_c, 0, 64, 46
1, 59174, Note_on_c, 0, 71, 53
1, 59178, Control_c, 0, 64, 42
1, 59193, Control_c, 0, 64, 39
1, 59208, Control_c, 0, 64, 34
1, 59223, Control_c, 0, 64, 28
1, 59238, Control_c, 0, 64, 21
1, 59253, Control_c, 0, 64, 12
1, 59268, Control_c, 0, 64, 0
1, 59314, Note_off_c, 0, 71, 62
1, 59334, Note_on_c, 0, 72, 58
1, 59459, Note_on_c, 0, 70, 71
1, 59489, Note_off_c, 0, 72, 51
1, 59577, Note_on_c, 0, 68, 71
1, 59684, Note_on_c, 0, 67, 78
1, 59695, Note_off_c, 0, 70, 34
1, 59735, Note_off_c, 0, 68, 57
1, 59777, Note_on_c, 0, 65, 73
1, 59794, Note_off_c, 0, 67, 63
1, 59840, Note_off_c, 0, 65, 62
1, 59911, Note_on_c, 0, 67, 72
1, 59950, Note_on_c, 0, 68, 73
1, 59965, Note_off_c, 0, 67, 61
1, 60009, Note_on_c, 0, 70, 71
1, 60025, Note_off_c, 0, 68, 64
1, 60182, Note_on_c, 0, 55, 61
1, 60189, Note_on_c, 0, 46, 53
1, 60207, Note_off_c, 0, 55, 66
1, 60224, Note_off_c, 0, 46, 63
1, 60404, Control_c, 0, 64, 33
1, 60418, Control_c, 0, 64, 49
1, 60433, Control_c, 0, 64, 57
1, 60439, Note_on_c, 0, 55, 59
1, 60442, Note_on_c, 0, 46, 47
1, 60448, Control_c, 0, 64, 60
1, 60462, Control_c, 0, 64, 62
1, 60467, Note_off_c, 0, 55, 65
1, 60476, Note_off_c, 0, 46, 62
1, 60477, Control_c, 0, 64, 64
1, 60492, Control_c, 0, 64, 65
1, 60507, Control_c, 0, 64, 65
1, 60522, Control_c, 0, 64, 66
1, 60539, Note_on_c, 0, 68, 65
1, 60550, Note_off_c, 0, 70, 58
1, 60551, Control_c, 0, 64, 65
1, 60581, Control_c, 0, 64, 65
1, 60596, Control_c, 0, 64, 64
1, 60604, Note_on_c, 0, 67, 60
1, 60605, Note_off_c, 0, 68, 64
1, 60610, Control_c, 0, 64, 62
1, 60633, Control_c, 0, 64, 59
1, 60642, Note_off_c, 0, 67, 66
1, 60648, Control_c, 0, 64, 56
1, 60662, Control_c, 0, 64, 51
1, 60666, Note_on_c, 0, 65, 66
1, 60677, Control_c, 0, 64, 45
1, 60679, Note_on_c, 0, 55, 62
1, 60692, Control_c, 0, 64, 41
1, 60698, Note_on_c, 0, 46, 45
1, 60707, Control_c, 0, 64, 37
1, 60708, Note_off_c, 0, 55, 65
1, 60722, Control_c, 0, 64, 33
1, 60729, Note_off_c, 0, 46, 47
1, 60736, Control_c, 0, 64, 29
1, 60739, Note_off_c, 0, 65, 61
1, 60744, Note_on_c, 0, 63, 75
1, 60751, Control_c, 0, 64, 25
1, 60766, Control_c, 0, 64, 22
1, 60781, Control_c, 0, 64, 17
1, 60796, Control_c, 0, 64, 12
1, 60807, Note_on_c, 0, 62, 75
1, 60810, Control_c, 0, 64, 8
1, 60825, Control_c, 0, 64, 0
1, 60835, Note_off_c, 0, 63, 63
1, 60856, Note_off_c, 0, 62, 62
1, 60873, Note_on_c, 0, 60, 67
1, 60944, Note_on_c, 0, 58, 77
1, 60945, Note_off_c, 0, 60, 48
1, 61184, Note_on_c, 0, 55, 61
1, 61192, Note_on_c, 0, 46, 55
1, 61214, Note_off_c, 0, 55, 64
1, 61239, Note_off_c, 0, 46, 59
1, 61320, Note_on_c, 0, 55, 60
1, 61325, Note_off_c, 0, 58, 61
1, 61409, Note_on_c, 0, 56, 62
1, 61414, Note_off_c, 0, 55, 58
1, 61441, Control_c, 0, 64, 19
1, 61456, Note_off_c, 0, 56, 60
1, 61456, Control_c, 0, 64, 41
1, 61469, Note_on_c, 0, 53, 62
1, 61469, Note_on_c, 0, 58, 66
1, 61471, Control_c, 0, 64, 53
1, 61474, Note_on_c, 0, 46, 52
1, 61485, Control_c, 0, 64, 57
1, 61500, Control_c, 0, 64, 60
1, 61507, Note_off_c, 0, 53, 58
1, 61515, Control_c, 0, 64, 61
1, 61517, Note_off_c, 0, 46, 59
1, 61523, Note_off_c, 0, 58, 61
1, 61530, Control_c, 0, 64, 62
1, 61543, Note_on_c, 0, 56, 68
1, 61583, Note_off_c, 0, 56, 60
1, 61598, Note_on_c, 0, 58, 60
1, 61604, Control_c, 0, 64, 61
1, 61619, Control_c, 0, 64, 60
1, 61633, Control_c, 0, 64, 59
1, 61635, Note_off_c, 0, 58, 62
1, 61648, Control_c, 0, 64, 57
1, 61653, Note_on_c, 0, 56, 66
1, 61663, Control_c, 0, 64, 56
1, 61674, Note_on_c, 0, 53, 61
1, 61677, Control_c, 0, 64, 53
1, 61679, Note_on_c, 0, 46, 50
1, 61686, Note_off_c, 0, 56, 64
1, 61692, Control_c, 0, 64, 50
1, 61700, Note_on_c, 0, 58, 78
1, 61708, Control_c, 0, 64, 46
1, 61709, Note_off_c, 0, 53, 60
1, 61718, Note_off_c, 0, 46, 63
1, 61723, Control_c, 0, 64, 41
1, 61738, Control_c, 0, 64, 36
1, 61753, Control_c, 0, 64, 32
1, 61756, Note_on_c, 0, 56, 78
1, 61762, Note_off_c, 0, 58, 64
1, 61768, Control_c, 0, 64, 29
1, 61782, Control_c, 0, 64, 28
1, 61797, Control_c, 0, 64, 27
1, 61812, Control_c, 0, 64, 25
1, 61814, Note_off_c, 0, 56, 63
1, 61824, Note_on_c, 0, 55, 70
1, 61827, Control_c, 0, 64, 22
1, 61842, Control_c, 0, 64, 19
1, 61856, Control_c, 0, 64, 16
1, 61867, Note_off_c, 0, 55, 59
1, 61871, Control_c, 0, 64, 12
1, 61872, Note_on_c, 0, 56, 59
1, 61886, Control_c, 0, 64, 0
1, 61929, Note_off_c, 0, 56, 60
1, 61949, Note_on_c, 0, 55, 69
1, 61957, Note_on_c, 0, 51, 58
1, 62049, Control_c, 0, 64, 25
1, 62064, Control_c, 0, 64, 44
1, 62079, Control_c, 0, 64, 56
1, 62094, Control_c, 0, 64, 60
1, 62103, Note_off_c, 0, 55, 54
1, 62108, Control_c, 0, 64, 62
1, 62123, Control_c, 0, 64, 64
1, 62145, Control_c, 0, 64, 64
1, 62204, Control_c, 0, 64, 64
1, 62219, Control_c, 0, 64, 63
1, 62234, Control_c, 0, 64, 62
1, 62243, Note_on_c, 0, 63, 80
1, 62249, Control_c, 0, 64, 61
1, 62264, Control_c, 0, 64, 59
1, 62279, Control_c, 0, 64, 56
1, 62294, Control_c, 0, 64, 54
1, 62308, Control_c, 0, 64, 52
1, 62323, Control_c, 0, 64, 50
1, 62338, Control_c, 0, 64, 47
1, 62353, Control_c, 0, 64, 43
1, 62368, Control_c, 0, 64, 38
1, 62382, Control_c, 0, 64, 32
1, 62397, Control_c, 0, 64, 27
1, 62412, Control_c, 0, 64, 23
1, 62426, Control_c, 0, 64, 18
1, 62441, Control_c, 0, 64, 13
1, 62456, Control_c, 0, 64, 8
1, 62471, Control_c, 0, 64, 0
1, 62481, Note_on_c, 0, 55, 71
1, 62666, Note_off_c, 0, 51, 32
1, 62744, Note_on_c, 0, 61, 72
1, 62821, Note_off_c, 0, 63, 59
1, 63004, Note_off_c, 0, 55, 60
1, 63015, Note_on_c, 0, 56, 60
1, 63286, Note_on_c, 0, 60, 63
1, 63306, Note_off_c, 0, 61, 57
1, 63492, Note_off_c, 0, 56, 38
1, 63562, Note_on_c, 0, 44, 50
1, 63715, Control_c, 0, 64, 30
1, 63730, Control_c, 0, 64, 42
1, 63745, Control_c, 0, 64, 47
1, 63760, Control_c, 0, 64, 45
1, 63775, Control_c, 0, 64, 25
1, 63790, Control_c, 0, 64, 0
1, 63814, Note_on_c, 0, 64, 67
1, 63833, Note_off_c, 0, 60, 57
1, 63849, Control_c, 0, 64, 20
1, 63864, Control_c, 0, 64, 44
1, 63878, Control_c, 0, 64, 58
1, 63885, Note_off_c, 0, 64, 63
1, 63893, Control_c, 0, 64, 61
1, 63897, Note_off_c, 0, 44, 60
1, 63908, Control_c, 0, 64, 61
1, 63923, Control_c, 0, 64, 61
1, 63952, Control_c, 0, 64, 58
1, 63967, Control_c, 0, 64, 54
1, 63982, Control_c, 0, 64, 44
1, 63997, Control_c, 0, 64, 32
1, 64011, Note_on_c, 0, 67, 61
1, 64012, Control_c, 0, 64, 13
1, 64026, Control_c, 0, 64, 0
1, 64046, Note_off_c, 0, 67, 65
1, 64052, Note_on_c, 0, 65, 68
1, 64079, Note_off_c, 0, 65, 64
1, 64085, Note_on_c, 0, 64, 67
1, 64118, Note_off_c, 0, 64, 66
1, 64137, Note_on_c, 0, 65, 77
1, 64169, Note_off_c, 0, 65, 63
1, 64321, Note_on_c, 0, 67, 67
1, 64351, Note_off_c, 0, 67, 65
1, 64354, Control_c, 0, 64, 25
1, 64376, Control_c, 0, 64, 28
1, 64391, Control_c, 0, 64, 26
1, 64406, Control_c, 0, 64, 21
1, 64421, Control_c, 0, 64, 17
1, 64436, Control_c, 0, 64, 0
1, 64500, Note_on_c, 0, 70, 64
1, 64526, Note_off_c, 0, 70, 67
1, 64541, Note_on_c, 0, 68, 68
1, 64576, Note_off_c, 0, 68, 65
1, 64591, Note_on_c, 0, 67, 72
1, 64634, Note_off_c, 0, 67, 55
1, 64648, Note_on_c, 0, 68, 65
1, 64675, Note_off_c, 0, 68, 66
1, 64800, Note_on_c, 0, 71, 71
1, 64821, Control_c, 0, 64, 11
1, 64835, Control_c, 0, 64, 29
1, 64836, Note_off_c, 0, 71, 62
1, 64849, Control_c, 0, 64, 37
1, 64864, Control_c, 0, 64, 38
1, 64879, Control_c, 0, 64, 38
1, 64894, Control_c, 0, 64, 36
1, 64910, Control_c, 0, 64, 34
1, 64924, Control_c, 0, 64, 31
1, 64939, Control_c, 0, 64, 27
1, 64954, Control_c, 0, 64, 22
1, 64969, Control_c, 0, 64, 17
1, 64984, Control_c, 0, 64, 12
1, 64988, Note_on_c, 0, 74, 62
1, 64998, Control_c, 0, 64, 8
1, 65013, Control_c, 0, 64, 0
1, 65022, Note_on_c, 0, 72, 75
1, 65036, Note_off_c, 0, 74, 60
1, 65065, Note_off_c, 0, 72, 64
1, 65074, Note_on_c, 0, 71, 63
1, 65096, Note_off_c, 0, 71, 64
1, 65112, Note_on_c, 0, 72, 69
1, 65164, Note_off_c, 0, 72, 62
1, 65297, Note_on_c, 0, 76, 76
1, 65331, Control_c, 0, 64, 12
1, 65346, Control_c, 0, 64, 37
1, 65352, Note_on_c, 0, 79, 78
1, 65353, Note_off_c, 0, 76, 64
1, 65361, Control_c, 0, 64, 49
1, 65376, Control_c, 0, 64, 53
1, 65389, Note_off_c, 0, 79, 64
1, 65391, Control_c, 0, 64, 53
1, 65406, Control_c, 0, 64, 54
1, 65435, Control_c, 0, 64, 53
1, 65465, Control_c, 0, 64, 51
1, 65480, Control_c, 0, 64, 45
1, 65495, Control_c, 0, 64, 28
1, 65510, Control_c, 0, 64, 0
1, 65543, Note_on_c, 0, 77, 78
1, 65602, Note_on_c, 0, 80, 82
1, 65608, Note_off_c, 0, 77, 65
1, 65613, Control_c, 0, 64, 27
1, 65628, Control_c, 0, 64, 44
1, 65642, Control_c, 0, 64, 52
1, 65650, Note_off_c, 0, 80, 63
1, 65657, Control_c, 0, 64, 55
1, 65672, Control_c, 0, 64, 55
1, 65687, Control_c, 0, 64, 56
1, 65733, Control_c, 0, 64, 55
1, 65747, Control_c, 0, 64, 53
1, 65762, Control_c, 0, 64, 48
1, 65777, Control_c, 0, 64, 31
1, 65792, Control_c, 0, 64, 0
1, 65797, Note_on_c, 0, 79, 77
1, 65851, Note_on_c, 0, 82, 82
1, 65861, Note_off_c, 0, 79, 64
1, 65888, Control_c, 0, 64, 29
1, 65903, Control_c, 0, 64, 48
1, 65918, Control_c, 0, 64, 54
1, 65921, Note_off_c, 0, 82, 59
1, 65933, Control_c, 0, 64, 54
1, 65977, Control_c, 0, 64, 53
1, 65992, Control_c, 0, 64, 49
1, 66007, Control_c, 0, 64, 44
1, 66021, Control_c, 0, 64, 38
1, 66036, Control_c, 0, 64, 32
1, 66051, Control_c, 0, 64, 28
1, 66066, Control_c, 0, 64, 26
1, 66080, Note_on_c, 0, 80, 83
1, 66080, Control_c, 0, 64, 25
1, 66095, Control_c, 0, 64, 21
1, 66110, Control_c, 0, 64, 17
1, 66125, Control_c, 0, 64, 15
1, 66169, Control_c, 0, 64, 15
1, 66172, Note_on_c, 0, 84, 82
1, 66219, Note_off_c, 0, 80, 62
1, 66318, Control_c, 0, 64, 14
1, 66333, Control_c, 0, 64, 13
1, 66347, Control_c, 0, 64, 12
1, 66366, Note_on_c, 0, 53, 65
1, 66376, Note_on_c, 0, 44, 58
1, 66377, Control_c, 0, 64, 12
1, 66392, Control_c, 0, 64, 0
1, 66401, Note_off_c, 0, 53, 65
1, 66417, Note_off_c, 0, 44, 61
1, 66570, Control_c, 0, 64, 12
1, 66585, Control_c, 0, 64, 39
1, 66600, Control_c, 0, 64, 54
1, 66603, Note_on_c, 0, 44, 60
1, 66604, Note_on_c, 0, 53, 69
1, 66615, Control_c, 0, 64, 59
1, 66637, Control_c, 0, 64, 61
1, 66651, Note_off_c, 0, 53, 61
1, 66652, Control_c, 0, 64, 61
1, 66666, Note_off_c, 0, 44, 56
1, 66667, Control_c, 0, 64, 62
1, 66681, Control_c, 0, 64, 62
1, 66696, Control_c, 0, 64, 62
1, 66699, Note_on_c, 0, 82, 62
1, 66708, Note_off_c, 0, 84, 62
1, 66726, Control_c, 0, 64, 60
1, 66741, Control_c, 0, 64, 59
1, 66756, Control_c, 0, 64, 56
1, 66771, Control_c, 0, 64, 51
1, 66777, Note_off_c, 0, 82, 63
1, 66785, Control_c, 0, 64, 45
1, 66789, Note_on_c, 0, 80, 66
1, 66800, Control_c, 0, 64, 37
1, 66815, Control_c, 0, 64, 28
1, 66823, Note_off_c, 0, 80, 61
1, 66830, Control_c, 0, 64, 17
1, 66842, Note_on_c, 0, 44, 63
1, 66843, Note_on_c, 0, 53, 66
1, 66845, Control_c, 0, 64, 0
1, 66847, Note_on_c, 0, 82, 69
1, 66882, Note_off_c, 0, 53, 64
1, 66904, Note_off_c, 0, 44, 55
1, 66914, Note_on_c, 0, 80, 76
1, 66938, Note_off_c, 0, 82, 62
1, 66974, Note_on_c, 0, 79, 73
1, 67003, Note_off_c, 0, 80, 61
1, 67045, Note_off_c, 0, 79, 65
1, 67051, Note_on_c, 0, 77, 69
1, 67135, Note_on_c, 0, 51, 58
1, 67137, Note_on_c, 0, 46, 59
1, 67138, Note_off_c, 0, 77, 62
1, 67146, Note_on_c, 0, 79, 71
1, 67212, Note_on_c, 0, 80, 68
1, 67213, Note_off_c, 0, 79, 63
1, 67215, Control_c, 0, 64, 38
1, 67230, Control_c, 0, 64, 48
1, 67245, Control_c, 0, 64, 54
1, 67260, Control_c, 0, 64, 59
1, 67264, Note_off_c, 0, 80, 61
1, 67269, Note_on_c, 0, 82, 73
1, 67275, Control_c, 0, 64, 62
1, 67290, Control_c, 0, 64, 64
1, 67305, Control_c, 0, 64, 66
1, 67319, Control_c, 0, 64, 67
1, 67334, Control_c, 0, 64, 69
1, 67336, Note_on_c, 0, 80, 67
1, 67349, Control_c, 0, 64, 70
1, 67355, Note_off_c, 0, 82, 59
1, 67393, Note_on_c, 0, 79, 74
1, 67401, Control_c, 0, 64, 70
1, 67415, Note_off_c, 0, 80, 63
1, 67431, Control_c, 0, 64, 70
1, 67439, Note_off_c, 0, 79, 62
1, 67460, Note_on_c, 0, 77, 71
1, 67475, Control_c, 0, 64, 69
1, 67490, Control_c, 0, 64, 68
1, 67505, Control_c, 0, 64, 67
1, 67514, Note_off_c, 0, 77, 61
1, 67519, Control_c, 0, 64, 67
1, 67534, Control_c, 0, 64, 66
1, 67540, Note_on_c, 0, 75, 79
1, 67549, Control_c, 0, 64, 65
1, 67564, Control_c, 0, 64, 64
1, 67579, Control_c, 0, 64, 63
1, 67594, Control_c, 0, 64, 62
1, 67608, Control_c, 0, 64, 61
1, 67609, Note_on_c, 0, 74, 68
1, 67623, Control_c, 0, 64, 60
1, 67624, Note_off_c, 0, 75, 62
1, 67638, Control_c, 0, 64, 59
1, 67647, Note_off_c, 0, 74, 66
1, 67653, Control_c, 0, 64, 57
1, 67663, Note_off_c, 0, 51, 53
1, 67668, Note_on_c, 0, 72, 65
1, 67668, Control_c, 0, 64, 55
1, 67674, Note_off_c, 0, 46, 43
1, 67683, Control_c, 0, 64, 54
1, 67698, Control_c, 0, 64, 52
1, 67713, Control_c, 0, 64, 49
1, 67716, Note_off_c, 0, 72, 51
1, 67727, Control_c, 0, 64, 46
1, 67742, Control_c, 0, 64, 42
1, 67748, Note_on_c, 0, 70, 70
1, 67757, Control_c, 0, 64, 35
1, 67772, Control_c, 0, 64, 28
1, 67787, Control_c, 0, 64, 22
1, 67801, Control_c, 0, 64, 9
1, 67811, Note_on_c, 0, 68, 78
1, 67816, Control_c, 0, 64, 0
1, 67856, Note_off_c, 0, 70, 60
1, 67872, Note_on_c, 0, 67, 70
1, 67892, Note_off_c, 0, 68, 64
1, 67906, Note_off_c, 0, 67, 64
1, 67934, Note_on_c, 0, 65, 69
1, 68002, Note_off_c, 0, 65, 46
1, 68008, Note_on_c, 0, 63, 75
1, 68067, Note_on_c, 0, 62, 71
1, 68100, Note_off_c, 0, 63, 63
1, 68120, Note_off_c, 0, 62, 63
1, 68141, Note_on_c, 0, 60, 70
1, 68219, Note_on_c, 0, 58, 82
1, 68228, Note_off_c, 0, 60, 61
1, 68485, Note_on_c, 0, 54, 65
1, 68489, Note_on_c, 0, 46, 59
1, 68518, Note_off_c, 0, 54, 63
1, 68522, Note_off_c, 0, 46, 65
1, 68712, Control_c, 0, 64, 28
1, 68727, Control_c, 0, 64, 47
1, 68741, Control_c, 0, 64, 57
1, 68756, Control_c, 0, 64, 62
1, 68760, Note_on_c, 0, 54, 71
1, 68769, Note_on_c, 0, 46, 67
1, 68771, Control_c, 0, 64, 65
1, 68786, Control_c, 0, 64, 68
1, 68801, Control_c, 0, 64, 71
1, 68816, Control_c, 0, 64, 73
1, 68819, Note_off_c, 0, 46, 58
1, 68825, Note_off_c, 0, 54, 62
1, 68831, Control_c, 0, 64, 73
1, 68943, Control_c, 0, 64, 73
1, 68958, Control_c, 0, 64, 72
1, 68972, Control_c, 0, 64, 71
1, 68987, Control_c, 0, 64, 69
1, 69002, Control_c, 0, 64, 67
1, 69017, Control_c, 0, 64, 64
1, 69032, Control_c, 0, 64, 61
1, 69045, Note_on_c, 0, 54, 63
1, 69046, Control_c, 0, 64, 57
1, 69055, Note_on_c, 0, 46, 55
1, 69061, Control_c, 0, 64, 54
1, 69076, Control_c, 0, 64, 51
1, 69082, Note_off_c, 0, 54, 64
1, 69090, Control_c, 0, 64, 48
1, 69095, Note_off_c, 0, 46, 61
1, 69105, Control_c, 0, 64, 45
1, 69120, Control_c, 0, 64, 42
1, 69135, Control_c, 0, 64, 39
1, 69150, Control_c, 0, 64, 37
1, 69165, Control_c, 0, 64, 34
1, 69179, Control_c, 0, 64, 31
1, 69194, Control_c, 0, 64, 28
1, 69209, Control_c, 0, 64, 25
1, 69224, Control_c, 0, 64, 23
1, 69239, Control_c, 0, 64, 21
1, 69254, Control_c, 0, 64, 18
1, 69269, Control_c, 0, 64, 16
1, 69284, Control_c, 0, 64, 15
1, 69298, Control_c, 0, 64, 15
1, 69313, Control_c, 0, 64, 14
1, 69328, Control_c, 0, 64, 13
1, 69341, Note_on_c, 0, 57, 75
1, 69343, Control_c, 0, 64, 12
1, 69358, Control_c, 0, 64, 10
1, 69372, Control_c, 0, 64, 0
1, 69512, Note_off_c, 0, 58, 52
1, 69626, Note_on_c, 0, 54, 62
1, 69633, Note_on_c, 0, 47, 53
1, 69659, Note_off_c, 0, 54, 64
1, 69670, Note_off_c, 0, 47, 63
1, 69884, Control_c, 0, 64, 17
1, 69899, Control_c, 0, 64, 39
1, 69913, Control_c, 0, 64, 54
1, 69914, Note_on_c, 0, 54, 73
1, 69922, Note_on_c, 0, 47, 56
1, 69928, Control_c, 0, 64, 60
1, 69943, Control_c, 0, 64, 64
1, 69958, Control_c, 0, 64, 67
1, 69973, Control_c, 0, 64, 70
1, 69987, Control_c, 0, 64, 74
1, 69988, Note_off_c, 0, 47, 59
1, 69993, Note_off_c, 0, 54, 63
1, 70002, Control_c, 0, 64, 76
1, 70017, Control_c, 0, 64, 76
1, 70106, Control_c, 0, 64, 76
1, 70121, Control_c, 0, 64, 74
1, 70136, Control_c, 0, 64, 72
1, 70136, Control_c, 0, 67, 9
1, 70151, Control_c, 0, 64, 70
1, 70151, Control_c, 0, 67, 10
1, 70166, Control_c, 0, 64, 67
1, 70166, Control_c, 0, 67, 11
1, 70181, Control_c, 0, 64, 65
1, 70181, Control_c, 0, 67, 12
1, 70195, Control_c, 0, 64, 62
1, 70195, Control_c, 0, 67, 13
1, 70203, Note_on_c, 0, 54, 70
1, 70209, Note_on_c, 0, 47, 60
1, 70210, Control_c, 0, 64, 59
1, 70210, Control_c, 0, 67, 14
1, 70225, Control_c, 0, 64, 56
1, 70237, Note_off_c, 0, 54, 66
1, 70239, Control_c, 0, 64, 55
1, 70241, Note_off_c, 0, 47, 65
1, 70254, Control_c, 0, 64, 54
1, 70254, Control_c, 0, 67, 13
1, 70269, Control_c, 0, 64, 53
1, 70284, Control_c, 0, 64, 51
1, 70284, Control_c, 0, 67, 12
1, 70299, Control_c, 0, 64, 50
1, 70299, Control_c, 0, 67, 12
1, 70313, Control_c, 0, 64, 47
1, 70313, Control_c, 0, 67, 11
1, 70328, Control_c, 0, 64, 45
1, 70328, Control_c, 0, 67, 11
1, 70343, Control_c, 0, 64, 43
1, 70358, Control_c, 0, 64, 42
1, 70358, Control_c, 0, 67, 10
1, 70381, Control_c, 0, 64, 41
1, 70381, Control_c, 0, 67, 9
1, 70395, Control_c, 0, 64, 40
1, 70395, Control_c, 0, 67, 9
1, 70410, Control_c, 0, 64, 38
1, 70410, Control_c, 0, 67, 8
1, 70425, Control_c, 0, 64, 37
1, 70425, Control_c, 0, 67, 0
1, 70440, Control_c, 0, 64, 35
1, 70454, Control_c, 0, 64, 32
1, 70469, Note_on_c, 0, 58, 80
1, 70469, Control_c, 0, 64, 30
1, 70484, Control_c, 0, 64, 27
1, 70500, Control_c, 0, 64, 24
1, 70503, Note_off_c, 0, 57, 62
1, 70515, Control_c, 0, 64, 22
1, 70524, Note_on_c, 0, 56, 83
1, 70530, Control_c, 0, 64, 19
1, 70544, Control_c, 0, 64, 13
1, 70558, Note_off_c, 0, 58, 64
1, 70559, Control_c, 0, 64, 0
1, 70808, Note_on_c, 0, 53, 65
1, 70815, Note_on_c, 0, 50, 65
1, 70847, Note_off_c, 0, 53, 60
1, 70852, Note_off_c, 0, 50, 63
1, 71052, Note_off_c, 0, 56, 62
1, 71057, Note_on_c, 0, 58, 75
1, 71115, Note_on_c, 0, 53, 62
1, 71120, Note_on_c, 0, 50, 65
1, 71123, Note_on_c, 0, 56, 84
1, 71144, Control_c, 0, 64, 35
1, 71145, Note_off_c, 0, 58, 65
1, 71147, Note_off_c, 0, 53, 63
1, 71150, Note_off_c, 0, 50, 65
1, 71159, Control_c, 0, 64, 47
1, 71174, Control_c, 0, 64, 53
1, 71189, Control_c, 0, 64, 55
1, 71218, Control_c, 0, 64, 56
1, 71233, Control_c, 0, 64, 55
1, 71278, Control_c, 0, 64, 55
1, 71293, Control_c, 0, 64, 53
1, 71308, Control_c, 0, 64, 50
1, 71323, Control_c, 0, 64, 43
1, 71338, Control_c, 0, 64, 36
1, 71341, Note_on_c, 0, 58, 77
1, 71342, Note_off_c, 0, 56, 62
1, 71353, Control_c, 0, 64, 27
1, 71367, Control_c, 0, 64, 16
1, 71382, Control_c, 0, 64, 0
1, 71397, Note_on_c, 0, 53, 64
1, 71398, Note_on_c, 0, 56, 78
1, 71401, Note_on_c, 0, 50, 64
1, 71418, Note_off_c, 0, 58, 65
1, 71427, Note_off_c, 0, 53, 64
1, 71433, Note_off_c, 0, 50, 66
1, 71531, Control_c, 0, 67, 10
1, 71546, Control_c, 0, 67, 13
1, 71560, Control_c, 0, 67, 17
1, 71575, Control_c, 0, 67, 23
1, 71590, Control_c, 0, 67, 30
1, 71605, Control_c, 0, 67, 39
1, 71620, Control_c, 0, 67, 48
1, 71634, Control_c, 0, 67, 55
1, 71648, Note_on_c, 0, 58, 59
1, 71649, Control_c, 0, 67, 61
1, 71655, Note_off_c, 0, 56, 55
1, 71664, Control_c, 0, 67, 64
1, 71679, Control_c, 0, 67, 67
1, 71693, Control_c, 0, 67, 68
1, 71708, Control_c, 0, 67, 69
1, 71721, Note_off_c, 0, 58, 64
1, 71780, Note_on_c, 0, 55, 53
1, 71782, Control_c, 0, 67, 68
1, 71798, Note_on_c, 0, 51, 44
1, 71812, Control_c, 0, 67, 69
1, 71827, Control_c, 0, 67, 69
1, 71841, Control_c, 0, 67, 70
1, 71864, Control_c, 0, 67, 70
1, 71879, Note_on_c, 0, 58, 49
1, 71883, Note_off_c, 0, 55, 49
1, 71923, Control_c, 0, 67, 71
1, 71934, Note_off_c, 0, 58, 59
1, 71938, Control_c, 0, 67, 72
1, 71953, Control_c, 0, 67, 74
1, 71961, Note_on_c, 0, 63, 52
1, 71967, Control_c, 0, 67, 75
1, 72012, Control_c, 0, 67, 76
1, 72019, Note_off_c, 0, 63, 57
1, 72027, Control_c, 0, 67, 76
1, 72032, Note_on_c, 0, 55, 56
1, 72041, Control_c, 0, 67, 79
1, 72056, Control_c, 0, 67, 82
1, 72071, Control_c, 0, 67, 84
1, 72087, Control_c, 0, 67, 85
1, 72102, Control_c, 0, 67, 88
1, 72116, Control_c, 0, 67, 91
1, 72127, Note_on_c, 0, 58, 47
1, 72130, Note_off_c, 0, 55, 52
1, 72131, Control_c, 0, 67, 93
1, 72146, Control_c, 0, 67, 94
1, 72151, Note_off_c, 0, 51, 46
1, 72161, Control_c, 0, 67, 94
1, 72172, Note_off_c, 0, 58, 64
1, 72176, Control_c, 0, 67, 95
1, 72184, Note_on_c, 0, 63, 58
1, 72190, Control_c, 0, 67, 96
1, 72205, Control_c, 0, 67, 98
1, 72220, Control_c, 0, 67, 100
1, 72246, Note_off_c, 0, 63, 56
1, 72265, Control_c, 0, 67, 99
1, 72268, Note_on_c, 0, 58, 63
1, 72294, Control_c, 0, 67, 99
1, 72309, Control_c, 0, 67, 98
1, 72324, Control_c, 0, 67, 97
1, 72337, Note_on_c, 0, 62, 60
1, 72345, Note_off_c, 0, 58, 65
1, 72384, Control_c, 0, 67, 97
1, 72399, Note_off_c, 0, 62, 63
1, 72413, Control_c, 0, 67, 97
1, 72420, Note_on_c, 0, 65, 47
1, 72444, Note_off_c, 0, 65, 56
1, 72458, Control_c, 0, 67, 98
1, 72487, Control_c, 0, 67, 98
1, 72488, Note_on_c, 0, 53, 60
1, 72491, Note_on_c, 0, 46, 54
1, 72500, Note_on_c, 0, 62, 66
1, 72502, Control_c, 0, 67, 99
1, 72516, Control_c, 0, 67, 99
1, 72521, Note_off_c, 0, 53, 64
1, 72534, Note_off_c, 0, 46, 58
1, 72570, Note_off_c, 0, 62, 61
1, 72572, Note_on_c, 0, 65, 54
1, 72605, Control_c, 0, 67, 99
1, 72628, Control_c, 0, 67, 98
1, 72640, Note_off_c, 0, 65, 61
1, 72657, Control_c, 0, 67, 98
1, 72662, Note_on_c, 0, 68, 54
1, 72672, Control_c, 0, 67, 97
1, 72687, Control_c, 0, 67, 97
1, 72691, Note_off_c, 0, 68, 67
1, 72702, Control_c, 0, 67, 96
1, 72731, Control_c, 0, 67, 96
1, 72746, Control_c, 0, 67, 95
1, 72761, Control_c, 0, 67, 95
1, 72767, Note_on_c, 0, 51, 51
1, 72776, Note_on_c, 0, 67, 43
1, 72776, Control_c, 0, 67, 94
1, 72805, Control_c, 0, 67, 94
1, 72820, Control_c, 0, 67, 93
1, 72832, Note_on_c, 0, 70, 68
1, 72848, Note_off_c, 0, 67, 44
1, 72849, Control_c, 0, 67, 93
1, 72879, Control_c, 0, 67, 92
1, 72900, Note_off_c, 0, 70, 62
1, 72918, Note_on_c, 0, 75, 63
1, 72939, Control_c, 0, 67, 92
1, 72982, Note_on_c, 0, 67, 63
1, 72992, Note_off_c, 0, 75, 61
1, 73028, Control_c, 0, 67, 92
1, 73065, Note_on_c, 0, 70, 63
1, 73087, Control_c, 0, 67, 92
1, 73091, Note_off_c, 0, 67, 52
1, 73096, Note_off_c, 0, 51, 50
1, 73131, Note_off_c, 0, 70, 63
1, 73132, Note_on_c, 0, 75, 69
1, 73208, Note_off_c, 0, 75, 64
1, 73210, Note_on_c, 0, 70, 71
1, 73220, Control_c, 0, 67, 91
1, 73235, Control_c, 0, 67, 91
1, 73264, Control_c, 0, 67, 90
1, 73279, Control_c, 0, 67, 90
1, 73281, Note_on_c, 0, 74, 68
1, 73293, Note_off_c, 0, 70, 63
1, 73294, Control_c, 0, 67, 89
1, 73309, Control_c, 0, 67, 88
1, 73324, Control_c, 0, 67, 88
1, 73338, Control_c, 0, 67, 87
1, 73346, Note_off_c, 0, 74, 64
1, 73353, Control_c, 0, 67, 87
1, 73356, Note_on_c, 0, 77, 63
1, 73376, Control_c, 0, 67, 86
1, 73391, Control_c, 0, 67, 85
1, 73400, Note_off_c, 0, 77, 63
1, 73406, Control_c, 0, 67, 84
1, 73420, Control_c, 0, 67, 83
1, 73433, Note_on_c, 0, 46, 54
1, 73433, Note_on_c, 0, 53, 55
1, 73435, Control_c, 0, 67, 80
1, 73450, Control_c, 0, 67, 79
1, 73451, Note_on_c, 0, 74, 74
1, 73464, Control_c, 0, 67, 78
1, 73467, Note_off_c, 0, 53, 63
1, 73476, Note_off_c, 0, 46, 58
1, 73479, Control_c, 0, 67, 77
1, 73494, Control_c, 0, 67, 77
1, 73509, Control_c, 0, 67, 76
1, 73524, Control_c, 0, 67, 75
1, 73529, Note_off_c, 0, 74, 61
1, 73530, Note_on_c, 0, 77, 68
1, 73538, Control_c, 0, 67, 73
1, 73553, Control_c, 0, 67, 72
1, 73568, Control_c, 0, 67, 71
1, 73583, Control_c, 0, 67, 71
1, 73593, Note_off_c, 0, 77, 65
1, 73598, Control_c, 0, 67, 70
1, 73605, Note_on_c, 0, 80, 60
1, 73612, Control_c, 0, 67, 70
1, 73627, Control_c, 0, 67, 69
1, 73642, Control_c, 0, 67, 67
1, 73657, Control_c, 0, 67, 64
1, 73670, Note_off_c, 0, 80, 63
1, 73672, Control_c, 0, 67, 60
1, 73687, Control_c, 0, 67, 58
1, 73695, Note_on_c, 0, 51, 54
1, 73695, Note_on_c, 0, 79, 75
1, 73702, Control_c, 0, 67, 56
1, 73717, Control_c, 0, 67, 53
1, 73732, Control_c, 0, 67, 51
1, 73747, Control_c, 0, 67, 47
1, 73761, Control_c, 0, 67, 42
1, 73776, Note_on_c, 0, 80, 80
1, 73776, Control_c, 0, 67, 36
1, 73788, Note_off_c, 0, 79, 59
1, 73791, Control_c, 0, 67, 30
1, 73806, Control_c, 0, 67, 24
1, 73821, Control_c, 0, 67, 18
1, 73835, Control_c, 0, 67, 12
1, 73843, Note_off_c, 0, 80, 62
1, 73850, Control_c, 0, 67, 0
1, 73855, Note_on_c, 0, 82, 74
1, 73931, Note_on_c, 0, 80, 78
1, 73958, Note_off_c, 0, 82, 58
1, 74003, Note_on_c, 0, 79, 72
1, 74023, Note_off_c, 0, 80, 62
1, 74028, Note_off_c, 0, 51, 55
1, 74058, Note_off_c, 0, 79, 63
1, 74069, Note_on_c, 0, 77, 69
1, 74149, Note_off_c, 0, 77, 56
1, 74160, Note_on_c, 0, 75, 80
1, 74241, Note_on_c, 0, 74, 70
1, 74256, Note_off_c, 0, 75, 59
1, 74285, Note_off_c, 0, 74, 62
1, 74317, Note_on_c, 0, 72, 65
1, 74364, Note_off_c, 0, 72, 55
1, 74405, Note_on_c, 0, 70, 68
1, 74431, Note_on_c, 0, 44, 47
1, 74475, Note_on_c, 0, 68, 73
1, 74509, Note_on_c, 0, 48, 49
1, 74536, Note_off_c, 0, 70, 53
1, 74554, Note_on_c, 0, 67, 69
1, 74600, Note_off_c, 0, 68, 58
1, 74630, Note_on_c, 0, 65, 68
1, 74632, Note_on_c, 0, 53, 49
1, 74635, Note_off_c, 0, 67, 62
1, 74727, Note_off_c, 0, 65, 54
1, 74763, Note_on_c, 0, 68, 60
1, 74849, Note_on_c, 0, 67, 66
1, 74894, Note_off_c, 0, 68, 46
1, 74919, Note_off_c, 0, 67, 59
1, 74934, Note_on_c, 0, 65, 66
1, 75018, Note_off_c, 0, 65, 61
1, 75019, Note_on_c, 0, 72, 63
1, 75044, Note_off_c, 0, 53, 56
1, 75051, Note_off_c, 0, 44, 52
1, 75102, Note_on_c, 0, 70, 66
1, 75118, Note_off_c, 0, 48, 32
1, 75134, Note_off_c, 0, 72, 57
1, 75183, Note_on_c, 0, 68, 65
1, 75217, Note_off_c, 0, 70, 58
1, 75261, Note_on_c, 0, 67, 62
1, 75275, Note_off_c, 0, 68, 61
1, 75298, Note_off_c, 0, 67, 64
1, 75325, Note_on_c, 0, 65, 66
1, 75412, Note_off_c, 0, 65, 56
1, 75421, Note_on_c, 0, 63, 67
1, 75505, Note_on_c, 0, 62, 60
1, 75519, Note_off_c, 0, 63, 62
1, 75555, Note_off_c, 0, 62, 63
1, 75585, Note_on_c, 0, 60, 61
1, 75688, Note_off_c, 0, 60, 61
1, 75711, Note_on_c, 0, 58, 55
1, 75746, Note_on_c, 0, 46, 67
1, 75748, Note_on_c, 0, 55, 69
1, 75786, Note_off_c, 0, 55, 65
1, 75794, Note_off_c, 0, 46, 61
1, 75990, Note_on_c, 0, 55, 71
1, 75994, Note_on_c, 0, 46, 63
1, 76033, Note_off_c, 0, 55, 62
1, 76049, Note_off_c, 0, 58, 61
1, 76051, Note_off_c, 0, 46, 57
1, 76080, Note_on_c, 0, 63, 55
1, 76158, Note_on_c, 0, 65, 55
1, 76164, Note_off_c, 0, 63, 58
1, 76212, Note_off_c, 0, 65, 54
1, 76229, Control_c, 0, 64, 18
1, 76230, Note_on_c, 0, 67, 67
1, 76235, Note_on_c, 0, 46, 57
1, 76241, Note_on_c, 0, 50, 63
1, 76244, Control_c, 0, 64, 40
1, 76259, Control_c, 0, 64, 50
1, 76274, Control_c, 0, 64, 53
1, 76279, Note_off_c, 0, 50, 64
1, 76280, Note_off_c, 0, 67, 60
1, 76286, Note_off_c, 0, 46, 57
1, 76289, Control_c, 0, 64, 55
1, 76302, Note_on_c, 0, 65, 54
1, 76304, Control_c, 0, 64, 56
1, 76319, Control_c, 0, 64, 57
1, 76329, Note_off_c, 0, 65, 56
1, 76355, Control_c, 0, 64, 56
1, 76367, Note_on_c, 0, 67, 65
1, 76385, Control_c, 0, 64, 56
1, 76400, Control_c, 0, 64, 54
1, 76415, Control_c, 0, 64, 51
1, 76418, Note_off_c, 0, 67, 58
1, 76419, Note_on_c, 0, 65, 69
1, 76429, Control_c, 0, 64, 48
1, 76444, Control_c, 0, 64, 43
1, 76455, Note_off_c, 0, 65, 60
1, 76459, Control_c, 0, 64, 37
1, 76467, Note_on_c, 0, 50, 59
1, 76468, Note_on_c, 0, 46, 52
1, 76474, Control_c, 0, 64, 34
1, 76481, Note_on_c, 0, 67, 65
1, 76489, Control_c, 0, 64, 33
1, 76503, Control_c, 0, 64, 30
1, 76509, Note_off_c, 0, 50, 63
1, 76518, Control_c, 0, 64, 27
1, 76530, Note_on_c, 0, 65, 72
1, 76533, Note_off_c, 0, 46, 53
1, 76533, Control_c, 0, 64, 22
1, 76541, Note_off_c, 0, 67, 62
1, 76548, Control_c, 0, 64, 16
1, 76563, Control_c, 0, 64, 12
1, 76564, Note_off_c, 0, 65, 63
1, 76578, Control_c, 0, 64, 8
1, 76593, Control_c, 0, 64, 0
1, 76593, Control_c, 0, 67, 9
1, 76597, Note_on_c, 0, 67, 58
1, 76608, Control_c, 0, 67, 14
1, 76623, Control_c, 0, 67, 20
1, 76637, Control_c, 0, 67, 31
1, 76643, Note_off_c, 0, 67, 64
1, 76647, Note_on_c, 0, 65, 73
1, 76652, Control_c, 0, 67, 43
1, 76667, Control_c, 0, 67, 53
1, 76673, Note_off_c, 0, 65, 67
1, 76681, Control_c, 0, 67, 61
1, 76696, Control_c, 0, 67, 65
1, 76711, Control_c, 0, 67, 67
1, 76726, Control_c, 0, 67, 71
1, 76741, Control_c, 0, 67, 75
1, 76755, Control_c, 0, 67, 79
1, 76770, Control_c, 0, 67, 83
1, 76785, Control_c, 0, 67, 84
1, 76800, Control_c, 0, 67, 85
1, 76815, Control_c, 0, 67, 87
1, 76829, Control_c, 0, 67, 93
1, 76844, Control_c, 0, 67, 97
1, 76859, Control_c, 0, 67, 99
1, 76874, Control_c, 0, 67, 101
1, 76888, Note_on_c, 0, 55, 43
1, 76890, Control_c, 0, 67, 103
1, 76903, Note_on_c, 0, 51, 44
1, 76904, Control_c, 0, 67, 105
1, 76919, Control_c, 0, 67, 107
1, 76934, Control_c, 0, 67, 109
1, 76949, Control_c, 0, 67, 110
1, 76964, Note_on_c, 0, 58, 40
1, 76967, Note_off_c, 0, 55, 48
1, 77028, Note_off_c, 0, 58, 58
1, 77044, Note_on_c, 0, 63, 54
1, 77052, Control_c, 0, 67, 109
1, 77082, Control_c, 0, 67, 109
1, 77097, Control_c, 0, 67, 108
1, 77109, Note_off_c, 0, 63, 56
1, 77119, Control_c, 0, 67, 108
1, 77125, Note_on_c, 0, 55, 62
1, 77164, Control_c, 0, 67, 107
1, 77193, Control_c, 0, 67, 106
1, 77208, Control_c, 0, 67, 106
1, 77222, Note_off_c, 0, 55, 56
1, 77231, Note_on_c, 0, 58, 49
1, 77253, Control_c, 0, 67, 105
1, 77269, Note_off_c, 0, 58, 64
1, 77280, Note_on_c, 0, 63, 60
1, 77281, Note_off_c, 0, 51, 61
1, 77282, Control_c, 0, 67, 105
1, 77311, Control_c, 0, 67, 104
1, 77341, Control_c, 0, 67, 104
1, 77358, Note_off_c, 0, 63, 62
1, 77360, Note_on_c, 0, 58, 64
1, 77432, Note_on_c, 0, 62, 62
1, 77439, Note_off_c, 0, 58, 65
1, 77475, Control_c, 0, 67, 104
1, 77484, Note_off_c, 0, 62, 63
1, 77490, Control_c, 0, 67, 105
1, 77502, Note_on_c, 0, 65, 56
1, 77519, Control_c, 0, 67, 106
1, 77527, Note_off_c, 0, 65, 63
1, 77549, Control_c, 0, 67, 106
1, 77564, Control_c, 0, 67, 107
1, 77578, Control_c, 0, 67, 108
1, 77581, Note_on_c, 0, 53, 66
1, 77583, Note_on_c, 0, 46, 62
1, 77593, Control_c, 0, 67, 109
1, 77594, Note_on_c, 0, 62, 62
1, 77608, Control_c, 0, 67, 109
1, 77612, Note_off_c, 0, 53, 64
1, 77621, Note_off_c, 0, 46, 60
1, 77623, Control_c, 0, 67, 110
1, 77637, Control_c, 0, 67, 110
1, 77652, Control_c, 0, 67, 111
1, 77653, Note_off_c, 0, 62, 55
1, 77667, Control_c, 0, 67, 112
1, 77669, Note_on_c, 0, 65, 50
1, 77683, Control_c, 0, 67, 113
1, 77720, Note_off_c, 0, 65, 63
1, 77738, Note_on_c, 0, 68, 56
1, 77760, Note_off_c, 0, 68, 65
1, 77787, Control_c, 0, 67, 112
1, 77801, Control_c, 0, 67, 112
1, 77816, Control_c, 0, 67, 111
1, 77831, Control_c, 0, 67, 111
1, 77832, Note_on_c, 0, 67, 63
1, 77842, Note_on_c, 0, 51, 59
1, 77846, Control_c, 0, 67, 110
1, 77869, Control_c, 0, 67, 110
1, 77883, Control_c, 0, 67, 109
1, 77898, Control_c, 0, 67, 108
1, 77913, Control_c, 0, 67, 108
1, 77918, Note_on_c, 0, 70, 62
1, 77919, Note_off_c, 0, 67, 58
1, 77942, Control_c, 0, 67, 107
1, 77957, Control_c, 0, 67, 107
1, 77981, Note_off_c, 0, 70, 61
1, 77987, Control_c, 0, 67, 106
1, 77995, Note_on_c, 0, 75, 64
1, 78046, Control_c, 0, 67, 107
1, 78062, Note_on_c, 0, 67, 66
1, 78071, Note_off_c, 0, 75, 62
1, 78075, Control_c, 0, 67, 107
1, 78134, Control_c, 0, 67, 108
1, 78142, Note_on_c, 0, 70, 62
1, 78156, Note_off_c, 0, 67, 55
1, 78171, Note_off_c, 0, 51, 54
1, 78179, Control_c, 0, 67, 108
1, 78187, Note_off_c, 0, 70, 61
1, 78192, Note_on_c, 0, 75, 70
1, 78209, Control_c, 0, 67, 109
1, 78238, Control_c, 0, 67, 109
1, 78269, Note_off_c, 0, 75, 64
1, 78274, Note_on_c, 0, 70, 72
1, 78298, Control_c, 0, 67, 109
1, 78340, Note_on_c, 0, 74, 73
1, 78343, Control_c, 0, 67, 108
1, 78358, Control_c, 0, 67, 108
1, 78359, Note_off_c, 0, 70, 63
1, 78373, Control_c, 0, 67, 107
1, 78387, Control_c, 0, 67, 106
1, 78402, Control_c, 0, 67, 104
1, 78402, Note_off_c, 0, 74, 65
1, 78409, Note_on_c, 0, 77, 69
1, 78417, Control_c, 0, 67, 103
1, 78432, Control_c, 0, 67, 101
1, 78444, Note_off_c, 0, 77, 63
1, 78446, Control_c, 0, 67, 100
1, 78461, Control_c, 0, 67, 98
1, 78477, Control_c, 0, 67, 98
1, 78484, Note_on_c, 0, 46, 59
1, 78487, Note_on_c, 0, 53, 63
1, 78492, Control_c, 0, 67, 97
1, 78502, Note_on_c, 0, 74, 76
1, 78519, Note_off_c, 0, 53, 64
1, 78522, Control_c, 0, 67, 97
1, 78536, Note_off_c, 0, 46, 58
1, 78574, Note_on_c, 0, 77, 71
1, 78574, Note_off_c, 0, 74, 60
1, 78632, Control_c, 0, 67, 96
1, 78641, Note_off_c, 0, 77, 64
1, 78649, Note_on_c, 0, 80, 64
1, 78662, Control_c, 0, 67, 96
1, 78698, Note_off_c, 0, 80, 58
1, 78706, Control_c, 0, 67, 95
1, 78721, Control_c, 0, 67, 95
1, 78736, Control_c, 0, 67, 94
1, 78746, Note_on_c, 0, 79, 74
1, 78748, Note_on_c, 0, 51, 55
1, 78751, Control_c, 0, 67, 92
1, 78766, Control_c, 0, 67, 90
1, 78781, Control_c, 0, 67, 89
1, 78796, Control_c, 0, 67, 87
1, 78811, Control_c, 0, 67, 86
1, 78822, Note_on_c, 0, 80, 77
1, 78826, Control_c, 0, 67, 84
1, 78832, Note_off_c, 0, 79, 60
1, 78840, Control_c, 0, 67, 80
1, 78855, Control_c, 0, 67, 76
1, 78870, Control_c, 0, 67, 72
1, 78884, Note_off_c, 0, 80, 63
1, 78884, Control_c, 0, 67, 69
1, 78899, Note_on_c, 0, 82, 70
1, 78899, Control_c, 0, 67, 65
1, 78914, Control_c, 0, 67, 61
1, 78929, Control_c, 0, 67, 56
1, 78944, Control_c, 0, 67, 51
1, 78958, Control_c, 0, 67, 48
1, 78973, Control_c, 0, 67, 45
1, 78978, Note_on_c, 0, 80, 82
1, 78988, Control_c, 0, 67, 44
1, 79003, Control_c, 0, 67, 43
1, 79010, Note_off_c, 0, 82, 59
1, 79018, Control_c, 0, 67, 42
1, 79032, Control_c, 0, 67, 42
1, 79042, Note_on_c, 0, 79, 70
1, 79047, Control_c, 0, 67, 41
1, 79062, Control_c, 0, 67, 40
1, 79069, Note_off_c, 0, 80, 63
1, 79073, Note_off_c, 0, 51, 55
1, 79076, Control_c, 0, 67, 38
1, 79091, Control_c, 0, 67, 35
1, 79099, Note_off_c, 0, 79, 65
1, 79106, Control_c, 0, 67, 33
1, 79110, Note_on_c, 0, 77, 69
1, 79121, Control_c, 0, 67, 29
1, 79136, Control_c, 0, 67, 25
1, 79150, Control_c, 0, 67, 22
1, 79165, Control_c, 0, 67, 18
1, 79174, Note_off_c, 0, 77, 60
1, 79180, Control_c, 0, 67, 15
1, 79195, Control_c, 0, 67, 12
1, 79198, Note_on_c, 0, 75, 73
1, 79210, Control_c, 0, 67, 10
1, 79224, Control_c, 0, 67, 8
1, 79271, Note_on_c, 0, 74, 68
1, 79287, Note_off_c, 0, 75, 58
1, 79310, Note_off_c, 0, 74, 64
1, 79329, Control_c, 0, 67, 9
1, 79362, Note_on_c, 0, 72, 58
1, 79366, Control_c, 0, 67, 9
1, 79395, Control_c, 0, 67, 10
1, 79401, Note_off_c, 0, 72, 56
1, 79410, Control_c, 0, 67, 11
1, 79440, Control_c, 0, 67, 11
1, 79446, Note_on_c, 0, 70, 61
1, 79456, Note_on_c, 0, 44, 41
1, 79469, Control_c, 0, 67, 12
1, 79514, Control_c, 0, 67, 12
1, 79522, Note_on_c, 0, 68, 65
1, 79541, Note_on_c, 0, 48, 36
1, 79559, Control_c, 0, 67, 13
1, 79575, Note_off_c, 0, 70, 36
1, 79588, Control_c, 0, 67, 13
1, 79592, Note_on_c, 0, 67, 64
1, 79629, Note_off_c, 0, 68, 47
1, 79660, Note_on_c, 0, 53, 39
1, 79665, Note_off_c, 0, 67, 58
1, 79676, Note_on_c, 0, 65, 61
1, 79677, Control_c, 0, 67, 14
1, 79736, Control_c, 0, 67, 14
1, 79781, Note_off_c, 0, 65, 53
1, 79833, Note_on_c, 0, 68, 55
1, 79918, Note_on_c, 0, 67, 58
1, 79995, Note_off_c, 0, 68, 32
1, 79997, Note_off_c, 0, 67, 56
1, 80015, Note_on_c, 0, 65, 50
1, 80098, Note_off_c, 0, 65, 55
1, 80100, Control_c, 0, 67, 14
1, 80123, Note_on_c, 0, 72, 49
1, 80129, Control_c, 0, 67, 13
1, 80137, Note_off_c, 0, 53, 56
1, 80144, Control_c, 0, 67, 13
1, 80151, Note_off_c, 0, 44, 50
1, 80159, Control_c, 0, 67, 12
1, 80167, Note_off_c, 0, 48, 41
1, 80174, Control_c, 0, 67, 12
1, 80189, Control_c, 0, 67, 11
1, 80218, Control_c, 0, 67, 11
1, 80233, Control_c, 0, 67, 10
1, 80247, Note_on_c, 0, 70, 61
1, 80248, Control_c, 0, 67, 10
1, 80283, Note_off_c, 0, 72, 50
1, 80322, Control_c, 0, 67, 9
1, 80328, Note_on_c, 0, 68, 64
1, 80383, Note_off_c, 0, 70, 57
1, 80396, Control_c, 0, 67, 9
1, 80412, Note_on_c, 0, 67, 55
1, 80430, Note_off_c, 0, 68, 62
1, 80438, Note_off_c, 0, 67, 61
1, 80469, Note_on_c, 0, 65, 67
1, 80470, Control_c, 0, 67, 8
1, 80549, Note_off_c, 0, 65, 55
1, 80558, Note_on_c, 0, 63, 72
1, 80559, Control_c, 0, 67, 8
1, 80632, Note_on_c, 0, 62, 62
1, 80633, Control_c, 0, 67, 0
1, 80663, Note_off_c, 0, 63, 61
1, 80687, Note_off_c, 0, 62, 64
1, 80713, Note_on_c, 0, 60, 67
1, 80799, Note_off_c, 0, 60, 60
1, 80800, Note_on_c, 0, 55, 70
1, 80805, Note_on_c, 0, 46, 61
1, 80805, Note_on_c, 0, 58, 63
1, 80850, Note_off_c, 0, 55, 61
1, 80872, Note_off_c, 0, 46, 57
1, 80967, Control_c, 0, 64, 9
1, 80982, Control_c, 0, 64, 11
1, 80997, Control_c, 0, 64, 12
1, 81026, Control_c, 0, 64, 12
1, 81056, Control_c, 0, 64, 13
1, 81058, Note_on_c, 0, 55, 71
1, 81067, Note_on_c, 0, 46, 60
1, 81085, Control_c, 0, 64, 13
1, 81091, Note_off_c, 0, 55, 66
1, 81110, Note_off_c, 0, 46, 56
1, 81115, Control_c, 0, 64, 14
1, 81124, Note_off_c, 0, 58, 64
1, 81177, Note_on_c, 0, 63, 59
1, 81249, Note_on_c, 0, 65, 63
1, 81250, Note_off_c, 0, 63, 62
1, 81315, Note_on_c, 0, 46, 57
1, 81318, Note_on_c, 0, 50, 66
1, 81320, Note_off_c, 0, 65, 62
1, 81332, Note_on_c, 0, 67, 70
1, 81351, Note_off_c, 0, 50, 65
1, 81356, Note_off_c, 0, 46, 61
1, 81368, Control_c, 0, 64, 15
1, 81391, Note_off_c, 0, 67, 60
1, 81395, Note_on_c, 0, 65, 50
1, 81413, Control_c, 0, 64, 15
1, 81427, Control_c, 0, 64, 16
1, 81431, Note_off_c, 0, 65, 61
1, 81442, Control_c, 0, 64, 17
1, 81452, Note_on_c, 0, 67, 61
1, 81457, Control_c, 0, 64, 19
1, 81471, Control_c, 0, 64, 21
1, 81486, Control_c, 0, 64, 22
1, 81498, Note_off_c, 0, 67, 60
1, 81501, Control_c, 0, 64, 23
1, 81507, Note_on_c, 0, 46, 57
1, 81508, Note_on_c, 0, 65, 70
1, 81511, Note_on_c, 0, 50, 61
1, 81516, Control_c, 0, 64, 24
1, 81542, Note_off_c, 0, 65, 61
1, 81554, Note_off_c, 0, 50, 61
1, 81565, Note_off_c, 0, 46, 60
1, 81569, Note_on_c, 0, 67, 62
1, 81615, Note_on_c, 0, 65, 73
1, 81642, Control_c, 0, 64, 24
1, 81657, Note_off_c, 0, 67, 61
1, 81657, Control_c, 0, 64, 23
1, 81672, Control_c, 0, 64, 22
1, 81683, Note_off_c, 0, 65, 63
1, 81687, Control_c, 0, 64, 21
1, 81700, Note_on_c, 0, 63, 60
1, 81702, Control_c, 0, 64, 19
1, 81717, Control_c, 0, 64, 17
1, 81730, Note_off_c, 0, 63, 65
1, 81732, Control_c, 0, 64, 13
1, 81747, Control_c, 0, 64, 8
1, 81753, Note_on_c, 0, 65, 52
1, 81762, Control_c, 0, 64, 0
1, 81762, Control_c, 0, 67, 11
1, 81776, Control_c, 0, 67, 14
1, 81791, Control_c, 0, 67, 18
1, 81806, Control_c, 0, 67, 24
1, 81807, Note_off_c, 0, 65, 62
1, 81809, Note_on_c, 0, 63, 63
1, 81821, Control_c, 0, 67, 29
1, 81836, Control_c, 0, 67, 32
1, 81840, Note_on_c, 0, 51, 58
1, 81850, Control_c, 0, 67, 33
1, 81909, Control_c, 0, 67, 33
1, 81954, Control_c, 0, 67, 34
1, 81965, Note_off_c, 0, 51, 63
1, 81968, Control_c, 0, 67, 35
1, 81974, Note_off_c, 0, 63, 63
1, 81983, Control_c, 0, 67, 37
1, 81998, Control_c, 0, 67, 44
1, 82013, Control_c, 0, 67, 50
1, 82028, Control_c, 0, 67, 55
1, 82042, Control_c, 0, 67, 58
1, 82057, Control_c, 0, 67, 59
1, 82072, Control_c, 0, 67, 60
1, 82087, Control_c, 0, 67, 62
1, 82102, Control_c, 0, 67, 63
1, 82131, Control_c, 0, 67, 62
1, 82146, Control_c, 0, 67, 61
1, 82161, Control_c, 0, 67, 60
1, 82176, Control_c, 0, 67, 58
1, 82191, Control_c, 0, 67, 56
1, 82220, Control_c, 0, 67, 56
1, 82235, Control_c, 0, 67, 55
1, 82250, Control_c, 0, 67, 55
1, 82265, Control_c, 0, 67, 54
1, 82280, Control_c, 0, 67, 54
1, 82294, Control_c, 0, 67, 53
1, 82309, Control_c, 0, 67, 53
1, 82324, Control_c, 0, 67, 52
1, 82346, Control_c, 0, 67, 52
1, 82361, Control_c, 0, 67, 51
1, 82376, Control_c, 0, 67, 50
1, 82385, Note_on_c, 0, 72, 77
1, 82391, Control_c, 0, 67, 50
1, 82399, Note_on_c, 0, 68, 62
1, 82406, Note_on_c, 0, 44, 58
1, 82406, Control_c, 0, 67, 49
1, 82421, Control_c, 0, 67, 48
1, 82421, Note_on_c, 0, 53, 39
1, 82435, Control_c, 0, 67, 47
1, 82437, Note_off_c, 0, 44, 64
1, 82440, Note_off_c, 0, 68, 55
1, 82446, Note_off_c, 0, 72, 64
1, 82450, Note_off_c, 0, 53, 49
1, 82450, Control_c, 0, 67, 46
1, 82465, Control_c, 0, 67, 46
1, 82540, Control_c, 0, 67, 46
1, 82694, Note_on_c, 0, 62, 76
1, 82707, Note_on_c, 0, 58, 53
1, 82710, Note_on_c, 0, 46, 56
1, 82712, Note_on_c, 0, 56, 54
1, 82718, Control_c, 0, 64, 34
1, 82718, Control_c, 0, 67, 47
1, 82732, Control_c, 0, 64, 50
1, 82732, Control_c, 0, 67, 48
1, 82747, Control_c, 0, 64, 58
1, 82747, Control_c, 0, 67, 49
1, 82752, Note_off_c, 0, 58, 58
1, 82762, Control_c, 0, 64, 62
1, 82762, Control_c, 0, 67, 51
1, 82765, Note_off_c, 0, 56, 50
1, 82777, Control_c, 0, 64, 63
1, 82777, Control_c, 0, 67, 52
1, 82792, Control_c, 0, 64, 64
1, 82792, Control_c, 0, 67, 53
1, 82806, Control_c, 0, 64, 65
1, 82806, Control_c, 0, 67, 54
1, 82821, Control_c, 0, 67, 54
1, 82836, Control_c, 0, 64, 66
1, 82850, Control_c, 0, 67, 55
1, 82865, Control_c, 0, 67, 55
1, 82880, Control_c, 0, 64, 65
1, 82895, Control_c, 0, 64, 65
1, 82910, Control_c, 0, 64, 64
1, 82910, Control_c, 0, 67, 56
1, 82924, Control_c, 0, 64, 62
1, 82939, Control_c, 0, 64, 59
1, 82954, Control_c, 0, 64, 56
1, 82954, Control_c, 0, 67, 55
1, 82969, Control_c, 0, 64, 52
1, 82979, Note_off_c, 0, 62, 58
1, 82984, Control_c, 0, 64, 47
1, 82990, Note_on_c, 0, 63, 62
1, 82999, Control_c, 0, 64, 42
1, 83007, Note_on_c, 0, 58, 38
1, 83010, Note_on_c, 0, 55, 44
1, 83014, Control_c, 0, 64, 38
1, 83016, Note_on_c, 0, 51, 47
1, 83029, Control_c, 0, 64, 34
1, 83033, Note_off_c, 0, 46, 23
1, 83043, Control_c, 0, 64, 29
1, 83054, Note_off_c, 0, 58, 61
1, 83057, Note_off_c, 0, 55, 61
1, 83058, Control_c, 0, 64, 24
1, 83071, Note_off_c, 0, 51, 59
1, 83073, Control_c, 0, 64, 18
1, 83073, Control_c, 0, 67, 55
1, 83095, Control_c, 0, 64, 10
1, 83095, Control_c, 0, 67, 54
1, 83110, Control_c, 0, 64, 0
1, 83112, Note_off_c, 0, 63, 64
1, 83124, Control_c, 0, 67, 54
1, 83169, Control_c, 0, 67, 54
1, 83213, Control_c, 0, 67, 55
1, 83243, Control_c, 0, 67, 55
1, 83258, Control_c, 0, 67, 56
1, 83288, Control_c, 0, 67, 56
1, 83318, Control_c, 0, 67, 57
1, 83333, Control_c, 0, 67, 57
1, 83348, Control_c, 0, 67, 58
1, 83363, Control_c, 0, 67, 58
1, 83377, Control_c, 0, 67, 59
1, 83392, Control_c, 0, 67, 59
1, 83452, Control_c, 0, 67, 60
1, 83481, Control_c, 0, 67, 60
1, 83496, Control_c, 0, 67, 61
1, 83511, Control_c, 0, 67, 61
1, 83526, Control_c, 0, 67, 63
1, 83541, Control_c, 0, 67, 65
1, 83555, Control_c, 0, 67, 66
1, 83569, Control_c, 0, 67, 68
1, 83584, Control_c, 0, 67, 69
1, 83599, Control_c, 0, 67, 72
1, 83614, Control_c, 0, 67, 74
1, 83628, Control_c, 0, 67, 78
1, 83643, Control_c, 0, 67, 81
1, 83658, Control_c, 0, 67, 84
1, 83668, Note_on_c, 0, 72, 48
1, 83673, Control_c, 0, 67, 86
1, 83678, Note_on_c, 0, 68, 43
1, 83687, Control_c, 0, 67, 88
1, 83697, Note_on_c, 0, 44, 45
1, 83702, Control_c, 0, 67, 90
1, 83705, Note_on_c, 0, 53, 37
1, 83717, Control_c, 0, 67, 92
1, 83725, Note_off_c, 0, 72, 60
1, 83732, Control_c, 0, 67, 92
1, 83735, Note_off_c, 0, 68, 56
1, 83741, Note_off_c, 0, 53, 60
1, 83741, Note_off_c, 0, 44, 62
1, 83747, Control_c, 0, 67, 93
1, 83777, Control_c, 0, 67, 93
1, 83917, Control_c, 0, 67, 94
1, 83977, Control_c, 0, 67, 94
1, 84036, Control_c, 0, 67, 94
1, 84051, Control_c, 0, 67, 93
1, 84069, Note_on_c, 0, 62, 50
1, 84081, Control_c, 0, 67, 93
1, 84084, Note_on_c, 0, 56, 40
1, 84088, Note_on_c, 0, 46, 42
1, 84090, Note_on_c, 0, 58, 18
1, 84096, Control_c, 0, 64, 22
1, 84111, Control_c, 0, 64, 47
1, 84111, Control_c, 0, 67, 92
1, 84126, Control_c, 0, 64, 58
1, 84141, Control_c, 0, 64, 62
1, 84155, Control_c, 0, 64, 64
1, 84163, Note_off_c, 0, 58, 41
1, 84170, Control_c, 0, 64, 65
1, 84185, Control_c, 0, 64, 66
1, 84200, Control_c, 0, 64, 67
1, 84203, Note_off_c, 0, 56, 48
1, 84230, Control_c, 0, 67, 93
1, 84244, Control_c, 0, 64, 66
1, 84274, Control_c, 0, 64, 66
1, 84288, Control_c, 0, 64, 65
1, 84303, Control_c, 0, 64, 64
1, 84318, Control_c, 0, 64, 63
1, 84333, Control_c, 0, 64, 61
1, 84348, Control_c, 0, 64, 59
1, 84363, Control_c, 0, 64, 56
1, 84377, Control_c, 0, 64, 54
1, 84392, Control_c, 0, 64, 51
1, 84396, Note_off_c, 0, 62, 34
1, 84407, Control_c, 0, 64, 49
1, 84422, Control_c, 0, 64, 47
1, 84422, Control_c, 0, 67, 93
1, 84429, Note_off_c, 0, 46, 24
1, 84437, Control_c, 0, 64, 45
1, 84437, Control_c, 0, 67, 94
1, 84450, Note_on_c, 0, 63, 37
1, 84451, Control_c, 0, 64, 43
1, 84451, Control_c, 0, 67, 94
1, 84463, Note_on_c, 0, 58, 26
1, 84466, Control_c, 0, 64, 40
1, 84466, Control_c, 0, 67, 95
1, 84474, Note_on_c, 0, 55, 25
1, 84477, Note_on_c, 0, 51, 18
1, 84481, Control_c, 0, 64, 36
1, 84481, Control_c, 0, 67, 97
1, 84495, Control_c, 0, 64, 32
1, 84495, Control_c, 0, 67, 102
1, 84510, Control_c, 0, 64, 30
1, 84510, Control_c, 0, 67, 105
1, 84525, Control_c, 0, 64, 27
1, 84525, Control_c, 0, 67, 107
1, 84540, Control_c, 0, 64, 25
1, 84540, Control_c, 0, 67, 109
1, 84555, Control_c, 0, 64, 22
1, 84555, Control_c, 0, 67, 111
1, 84570, Control_c, 0, 64, 18
1, 84570, Control_c, 0, 67, 111
1, 84582, Note_off_c, 0, 55, 36
1, 84585, Control_c, 0, 64, 8
1, 84585, Control_c, 0, 67, 112
1, 84587, Note_off_c, 0, 58, 42
1, 84599, Note_off_c, 0, 51, 45
1, 84607, Control_c, 0, 64, 0
1, 84627, Note_off_c, 0, 63, 54
1, 84637, Control_c, 0, 67, 111
1, 84651, Control_c, 0, 67, 111
1, 84666, Control_c, 0, 67, 110
1, 84681, Control_c, 0, 67, 109
1, 84695, Control_c, 0, 67, 108
1, 84710, Control_c, 0, 67, 107
1, 84725, Control_c, 0, 67, 105
1, 84740, Control_c, 0, 67, 104
1, 84755, Control_c, 0, 67, 102
1, 84770, Control_c, 0, 67, 100
1, 84784, Control_c, 0, 67, 98
1, 84799, Control_c, 0, 67, 96
1, 84814, Control_c, 0, 67, 93
1, 84829, Control_c, 0, 67, 91
1, 84844, Control_c, 0, 67, 88
1, 84859, Control_c, 0, 67, 86
1, 84874, Control_c, 0, 67, 82
1, 84889, Control_c, 0, 67, 77
1, 84904, Control_c, 0, 67, 73
1, 84919, Control_c, 0, 67, 67
1, 84933, Control_c, 0, 67, 61
1, 84948, Control_c, 0, 67, 55
1, 84963, Control_c, 0, 67, 47
1, 84978, Control_c, 0, 67, 41
1, 84993, Control_c, 0, 67, 34
1, 85008, Control_c, 0, 67, 27
1, 85023, Control_c, 0, 67, 19
1, 85038, Control_c, 0, 67, 12
1, 85053, Control_c, 0, 67, 0
1, 85172, Control_c, 0, 64, 8
1, 85187, Control_c, 0, 64, 10
1, 85201, Control_c, 0, 64, 12
1, 85216, Control_c, 0, 64, 12
1, 85231, Control_c, 0, 64, 13
1, 85245, Control_c, 0, 64, 14
1, 85260, Control_c, 0, 64, 15
1, 85275, Control_c, 0, 64, 16
1, 85290, Control_c, 0, 64, 17
1, 85334, Control_c, 0, 64, 17
1, 85357, Control_c, 0, 64, 18
1, 85372, Control_c, 0, 64, 19
1, 85387, Control_c, 0, 64, 19
1, 85401, Control_c, 0, 64, 20
1, 85416, Control_c, 0, 64, 20
1, 85440, Note_on_c, 0, 75, 64
1, 85473, Note_off_c, 0, 75, 65
1, 85484, Note_on_c, 0, 74, 68
1, 85536, Note_on_c, 0, 75, 75
1, 85556, Note_off_c, 0, 74, 51
1, 85564, Control_c, 0, 64, 20
1, 85593, Control_c, 0, 64, 19
1, 85623, Control_c, 0, 64, 18
1, 85638, Control_c, 0, 64, 18
1, 85668, Control_c, 0, 64, 17
1, 85698, Control_c, 0, 64, 17
1, 85713, Control_c, 0, 64, 16
1, 85728, Control_c, 0, 64, 15
1, 85742, Control_c, 0, 64, 13
1, 85757, Control_c, 0, 64, 12
1, 85772, Control_c, 0, 64, 9
1, 85780, Note_on_c, 0, 67, 56
1, 85783, Note_on_c, 0, 63, 55
1, 85787, Control_c, 0, 64, 0
1, 85816, Note_off_c, 0, 63, 64
1, 85817, Note_off_c, 0, 67, 62
1, 86007, Control_c, 0, 64, 36
1, 86022, Control_c, 0, 64, 50
1, 86037, Control_c, 0, 64, 57
1, 86052, Control_c, 0, 64, 61
1, 86058, Note_on_c, 0, 67, 60
1, 86063, Note_on_c, 0, 63, 45
1, 86066, Control_c, 0, 64, 64
1, 86089, Control_c, 0, 64, 66
1, 86104, Control_c, 0, 64, 69
1, 86117, Note_off_c, 0, 67, 58
1, 86119, Control_c, 0, 64, 72
1, 86134, Control_c, 0, 64, 73
1, 86143, Note_off_c, 0, 63, 59
1, 86148, Control_c, 0, 64, 74
1, 86266, Control_c, 0, 64, 73
1, 86281, Control_c, 0, 64, 72
1, 86296, Control_c, 0, 64, 70
1, 86311, Control_c, 0, 64, 66
1, 86326, Control_c, 0, 64, 62
1, 86336, Note_on_c, 0, 67, 54
1, 86340, Control_c, 0, 64, 57
1, 86355, Control_c, 0, 64, 52
1, 86357, Note_on_c, 0, 63, 36
1, 86370, Control_c, 0, 64, 48
1, 86378, Note_off_c, 0, 67, 60
1, 86385, Control_c, 0, 64, 44
1, 86400, Control_c, 0, 64, 40
1, 86408, Note_off_c, 0, 63, 46
1, 86415, Control_c, 0, 64, 36
1, 86430, Control_c, 0, 64, 32
1, 86445, Control_c, 0, 64, 30
1, 86460, Control_c, 0, 64, 30
1, 86475, Control_c, 0, 64, 29
1, 86490, Control_c, 0, 64, 27
1, 86504, Control_c, 0, 64, 26
1, 86519, Control_c, 0, 64, 25
1, 86549, Control_c, 0, 64, 25
1, 86564, Control_c, 0, 64, 23
1, 86579, Control_c, 0, 64, 22
1, 86594, Control_c, 0, 64, 21
1, 86601, Note_on_c, 0, 84, 79
1, 86609, Control_c, 0, 64, 20
1, 86624, Control_c, 0, 64, 19
1, 86638, Control_c, 0, 64, 17
1, 86653, Control_c, 0, 64, 17
1, 86668, Control_c, 0, 64, 16
1, 86682, Control_c, 0, 64, 16
1, 86697, Control_c, 0, 64, 15
1, 86712, Control_c, 0, 64, 13
1, 86727, Control_c, 0, 64, 11
1, 86742, Control_c, 0, 64, 9
1, 86771, Control_c, 0, 64, 8
1, 86777, Note_on_c, 0, 82, 74
1, 86782, Note_off_c, 0, 75, 36
1, 86801, Control_c, 0, 64, 0
1, 86865, Note_off_c, 0, 84, 60
1, 86923, Note_on_c, 0, 62, 54
1, 86927, Note_on_c, 0, 65, 52
1, 86959, Note_off_c, 0, 62, 63
1, 86965, Note_off_c, 0, 65, 58
1, 87163, Control_c, 0, 64, 18
1, 87178, Control_c, 0, 64, 45
1, 87193, Control_c, 0, 64, 55
1, 87194, Note_on_c, 0, 62, 51
1, 87199, Note_on_c, 0, 65, 45
1, 87208, Control_c, 0, 64, 62
1, 87223, Control_c, 0, 64, 64
1, 87238, Control_c, 0, 64, 66
1, 87240, Note_off_c, 0, 62, 59
1, 87250, Note_off_c, 0, 65, 56
1, 87253, Control_c, 0, 64, 69
1, 87268, Control_c, 0, 64, 71
1, 87283, Control_c, 0, 64, 72
1, 87372, Control_c, 0, 64, 72
1, 87387, Control_c, 0, 64, 71
1, 87402, Control_c, 0, 64, 70
1, 87417, Control_c, 0, 64, 67
1, 87431, Control_c, 0, 64, 65
1, 87446, Control_c, 0, 64, 62
1, 87461, Control_c, 0, 64, 58
1, 87473, Note_on_c, 0, 62, 48
1, 87476, Control_c, 0, 64, 56
1, 87484, Note_on_c, 0, 65, 37
1, 87491, Control_c, 0, 64, 55
1, 87506, Control_c, 0, 64, 53
1, 87512, Note_off_c, 0, 62, 63
1, 87513, Note_off_c, 0, 65, 56
1, 87520, Control_c, 0, 64, 52
1, 87535, Control_c, 0, 64, 50
1, 87550, Control_c, 0, 64, 48
1, 87565, Control_c, 0, 64, 47
1, 87586, Control_c, 0, 64, 46
1, 87597, Note_on_c, 0, 80, 73
1, 87601, Control_c, 0, 64, 45
1, 87616, Control_c, 0, 64, 43
1, 87620, Note_off_c, 0, 82, 60
1, 87631, Control_c, 0, 64, 41
1, 87646, Control_c, 0, 64, 40
1, 87661, Control_c, 0, 64, 39
1, 87665, Note_off_c, 0, 80, 63
1, 87676, Control_c, 0, 64, 38
1, 87691, Control_c, 0, 64, 37
1, 87706, Control_c, 0, 64, 36
1, 87720, Control_c, 0, 64, 34
1, 87728, Note_on_c, 0, 80, 79
1, 87735, Control_c, 0, 64, 32
1, 87750, Control_c, 0, 64, 31
1, 87765, Control_c, 0, 64, 29
1, 87780, Control_c, 0, 64, 27
1, 87794, Control_c, 0, 64, 23
1, 87809, Control_c, 0, 64, 14
1, 87824, Control_c, 0, 64, 0
1, 87972, Control_c, 0, 64, 20
1, 87986, Control_c, 0, 64, 42
1, 87988, Note_on_c, 0, 63, 47
1, 87990, Note_on_c, 0, 70, 54
1, 88001, Control_c, 0, 64, 54
1, 88016, Control_c, 0, 64, 60
1, 88025, Note_off_c, 0, 63, 61
1, 88028, Note_off_c, 0, 70, 62
1, 88031, Control_c, 0, 64, 62
1, 88046, Control_c, 0, 64, 63
1, 88062, Control_c, 0, 64, 64
1, 88091, Control_c, 0, 64, 64
1, 88121, Control_c, 0, 64, 64
1, 88150, Control_c, 0, 64, 63
1, 88165, Control_c, 0, 64, 62
1, 88180, Control_c, 0, 64, 61
1, 88190, Note_off_c, 0, 80, 60
1, 88195, Control_c, 0, 64, 59
1, 88209, Control_c, 0, 64, 57
1, 88210, Note_on_c, 0, 79, 62
1, 88224, Control_c, 0, 64, 54
1, 88230, Note_on_c, 0, 63, 45
1, 88230, Note_on_c, 0, 70, 53
1, 88239, Control_c, 0, 64, 52
1, 88241, Note_off_c, 0, 79, 65
1, 88254, Control_c, 0, 64, 50
1, 88257, Note_on_c, 0, 80, 59
1, 88265, Note_off_c, 0, 70, 62
1, 88269, Control_c, 0, 64, 49
1, 88269, Note_off_c, 0, 63, 60
1, 88284, Control_c, 0, 64, 47
1, 88299, Control_c, 0, 64, 46
1, 88307, Note_on_c, 0, 79, 73
1, 88314, Control_c, 0, 64, 46
1, 88329, Control_c, 0, 64, 44
1, 88350, Control_c, 0, 64, 42
1, 88365, Control_c, 0, 64, 41
1, 88370, Note_off_c, 0, 80, 53
1, 88380, Control_c, 0, 64, 39
1, 88395, Control_c, 0, 64, 38
1, 88410, Control_c, 0, 64, 36
1, 88424, Control_c, 0, 64, 34
1, 88439, Control_c, 0, 64, 32
1, 88484, Control_c, 0, 64, 32
1, 88499, Control_c, 0, 64, 31
1, 88514, Control_c, 0, 64, 29
1, 88527, Note_on_c, 0, 70, 54
1, 88528, Control_c, 0, 64, 28
1, 88543, Control_c, 0, 64, 27
1, 88546, Note_on_c, 0, 63, 39
1, 88558, Control_c, 0, 64, 26
1, 88564, Note_off_c, 0, 70, 61
1, 88573, Control_c, 0, 64, 25
1, 88578, Note_off_c, 0, 63, 59
1, 88588, Control_c, 0, 64, 24
1, 88603, Control_c, 0, 64, 23
1, 88617, Control_c, 0, 64, 23
1, 88632, Control_c, 0, 64, 22
1, 88647, Control_c, 0, 64, 21
1, 88661, Control_c, 0, 64, 20
1, 88672, Note_on_c, 0, 80, 76
1, 88676, Control_c, 0, 64, 19
1, 88686, Note_off_c, 0, 79, 57
1, 88691, Control_c, 0, 64, 19
1, 88765, Control_c, 0, 64, 18
1, 88774, Note_off_c, 0, 80, 60
1, 88795, Control_c, 0, 64, 18
1, 88804, Note_on_c, 0, 79, 83
1, 88810, Control_c, 0, 64, 17
1, 88825, Control_c, 0, 64, 17
1, 88855, Control_c, 0, 64, 16
1, 88945, Control_c, 0, 64, 16
1, 88959, Control_c, 0, 64, 12
1, 88974, Control_c, 0, 64, 0
1, 89063, Note_on_c, 0, 72, 56
1, 89065, Note_on_c, 0, 68, 56
1, 89100, Control_c, 0, 64, 28
1, 89112, Note_off_c, 0, 68, 60
1, 89115, Control_c, 0, 64, 45
1, 89120, Note_off_c, 0, 72, 59
1, 89130, Control_c, 0, 64, 55
1, 89145, Control_c, 0, 64, 57
1, 89160, Control_c, 0, 64, 58
1, 89174, Control_c, 0, 64, 58
1, 89189, Control_c, 0, 64, 59
1, 89248, Control_c, 0, 64, 58
1, 89263, Control_c, 0, 64, 56
1, 89278, Control_c, 0, 64, 53
1, 89292, Control_c, 0, 64, 49
1, 89304, Note_off_c, 0, 79, 63
1, 89307, Control_c, 0, 64, 44
1, 89322, Control_c, 0, 64, 39
1, 89328, Note_on_c, 0, 77, 64
1, 89337, Control_c, 0, 64, 34
1, 89348, Note_on_c, 0, 72, 55
1, 89352, Note_on_c, 0, 68, 56
1, 89352, Control_c, 0, 64, 27
1, 89366, Control_c, 0, 64, 19
1, 89375, Note_off_c, 0, 77, 58
1, 89381, Control_c, 0, 64, 11
1, 89386, Note_on_c, 0, 79, 57
1, 89387, Note_off_c, 0, 68, 63
1, 89393, Note_off_c, 0, 72, 58
1, 89396, Control_c, 0, 64, 0
1, 89434, Note_on_c, 0, 77, 57
1, 89464, Note_off_c, 0, 79, 61
1, 89669, Note_on_c, 0, 72, 49
1, 89684, Note_on_c, 0, 68, 37
1, 89731, Note_off_c, 0, 72, 58
1, 89752, Note_off_c, 0, 68, 53
1, 89852, Note_on_c, 0, 79, 61
1, 89869, Note_off_c, 0, 77, 49
1, 89956, Note_off_c, 0, 79, 59
1, 89995, Note_on_c, 0, 77, 64
1, 90234, Note_on_c, 0, 67, 50
1, 90242, Note_on_c, 0, 70, 47
1, 90281, Note_off_c, 0, 70, 60
1, 90284, Note_off_c, 0, 67, 59
1, 90431, Note_off_c, 0, 77, 64
1, 90440, Control_c, 0, 64, 34
1, 90456, Control_c, 0, 64, 45
1, 90471, Control_c, 0, 64, 49
1, 90473, Note_on_c, 0, 75, 56
1, 90486, Note_on_c, 0, 67, 52
1, 90486, Control_c, 0, 64, 50
1, 90493, Note_on_c, 0, 70, 48
1, 90509, Note_off_c, 0, 75, 63
1, 90527, Note_on_c, 0, 77, 39
1, 90530, Control_c, 0, 64, 49
1, 90538, Note_off_c, 0, 67, 56
1, 90545, Control_c, 0, 64, 47
1, 90560, Note_off_c, 0, 77, 54
1, 90560, Control_c, 0, 64, 42
1, 90567, Note_off_c, 0, 70, 46
1, 90582, Control_c, 0, 64, 35
1, 90585, Note_on_c, 0, 75, 55
1, 90597, Control_c, 0, 64, 27
1, 90612, Control_c, 0, 64, 21
1, 90627, Control_c, 0, 64, 18
1, 90642, Control_c, 0, 64, 16
1, 90656, Control_c, 0, 64, 13
1, 90671, Control_c, 0, 64, 9
1, 90686, Control_c, 0, 64, 0
1, 90748, Note_off_c, 0, 75, 62
1, 90772, Note_on_c, 0, 74, 55
1, 90836, Note_on_c, 0, 75, 56
1, 90837, Note_on_c, 0, 70, 43
1, 90842, Note_on_c, 0, 67, 41
1, 90852, Note_off_c, 0, 74, 54
1, 90894, Note_off_c, 0, 67, 43
1, 90895, Note_off_c, 0, 70, 49
1, 91065, Note_off_c, 0, 75, 64
1, 91092, Note_on_c, 0, 77, 51
1, 91149, Note_off_c, 0, 77, 57
1, 91174, Note_on_c, 0, 75, 44
1, 91201, Note_on_c, 0, 67, 38
1, 91204, Note_on_c, 0, 70, 37
1, 91390, Control_c, 0, 64, 13
1, 91405, Control_c, 0, 64, 37
1, 91420, Control_c, 0, 64, 49
1, 91435, Control_c, 0, 64, 58
1, 91450, Control_c, 0, 64, 61
1, 91465, Control_c, 0, 64, 63
1, 91479, Control_c, 0, 64, 65
1, 91494, Control_c, 0, 64, 67
1, 91509, Control_c, 0, 64, 70
1, 91524, Control_c, 0, 64, 72
1, 91539, Control_c, 0, 64, 72
1, 91551, Note_off_c, 0, 67, 52
1, 91554, Control_c, 0, 64, 73
1, 91569, Note_off_c, 0, 70, 43
1, 91575, Note_off_c, 0, 75, 60
1, 91731, Control_c, 0, 64, 72
1, 91746, Control_c, 0, 64, 71
1, 91760, Control_c, 0, 64, 71
1, 91775, Control_c, 0, 64, 70
1, 91806, Control_c, 0, 64, 70
1, 91821, Control_c, 0, 64, 69
1, 91835, Control_c, 0, 64, 67
1, 91850, Control_c, 0, 64, 65
1, 91865, Control_c, 0, 64, 62
1, 91879, Control_c, 0, 64, 56
1, 91894, Control_c, 0, 64, 47
1, 91909, Control_c, 0, 64, 34
1, 91924, Control_c, 0, 64, 0
1, 92333, Note_on_c, 0, 82, 76
1, 92407, Control_c, 0, 64, 42
1, 92422, Control_c, 0, 64, 55
1, 92436, Control_c, 0, 64, 59
1, 92450, Note_off_c, 0, 82, 64
1, 92451, Control_c, 0, 64, 62
1, 92457, Note_on_c, 0, 84, 77
1, 92466, Control_c, 0, 64, 64
1, 92481, Control_c, 0, 64, 65
1, 92496, Control_c, 0, 64, 66
1, 92510, Control_c, 0, 64, 66
1, 92550, Note_off_c, 0, 84, 65
1, 92551, Note_on_c, 0, 85, 71
1, 92570, Control_c, 0, 64, 66
1, 92584, Control_c, 0, 64, 65
1, 92599, Control_c, 0, 64, 64
1, 92614, Control_c, 0, 64, 62
1, 92617, Note_off_c, 0, 85, 64
1, 92628, Control_c, 0, 64, 59
1, 92637, Note_on_c, 0, 84, 73
1, 92643, Control_c, 0, 64, 56
1, 92658, Control_c, 0, 64, 54
1, 92673, Control_c, 0, 64, 52
1, 92688, Control_c, 0, 64, 50
1, 92702, Control_c, 0, 64, 46
1, 92717, Control_c, 0, 64, 41
1, 92719, Note_off_c, 0, 84, 63
1, 92720, Note_on_c, 0, 82, 77
1, 92732, Control_c, 0, 64, 34
1, 92747, Control_c, 0, 64, 23
1, 92762, Control_c, 0, 64, 0
1, 92801, Note_on_c, 0, 80, 75
1, 92815, Note_off_c, 0, 82, 57
1, 92884, Note_off_c, 0, 80, 63
1, 92886, Note_on_c, 0, 79, 73
1, 92957, Note_on_c, 0, 80, 74
1, 92979, Note_off_c, 0, 79, 60
1, 93022, Control_c, 0, 64, 38
1, 93030, Note_off_c, 0, 80, 63
1, 93037, Control_c, 0, 64, 53
1, 93044, Note_on_c, 0, 82, 75
1, 93052, Control_c, 0, 64, 57
1, 93066, Control_c, 0, 64, 61
1, 93081, Control_c, 0, 64, 63
1, 93096, Control_c, 0, 64, 65
1, 93111, Control_c, 0, 64, 66
1, 93125, Note_on_c, 0, 80, 81
1, 93149, Note_off_c, 0, 82, 56
1, 93189, Note_on_c, 0, 79, 77
1, 93200, Control_c, 0, 64, 65
1, 93214, Control_c, 0, 64, 63
1, 93222, Note_off_c, 0, 80, 62
1, 93229, Control_c, 0, 64, 61
1, 93242, Note_off_c, 0, 79, 64
1, 93244, Control_c, 0, 64, 57
1, 93259, Control_c, 0, 64, 53
1, 93265, Note_on_c, 0, 77, 68
1, 93274, Control_c, 0, 64, 49
1, 93289, Control_c, 0, 64, 45
1, 93304, Control_c, 0, 64, 42
1, 93319, Control_c, 0, 64, 36
1, 93333, Control_c, 0, 64, 28
1, 93341, Note_on_c, 0, 76, 80
1, 93347, Note_off_c, 0, 77, 65
1, 93348, Control_c, 0, 64, 16
1, 93363, Control_c, 0, 64, 0
1, 93432, Note_on_c, 0, 77, 66
1, 93440, Note_off_c, 0, 76, 57
1, 93512, Note_on_c, 0, 79, 72
1, 93516, Note_off_c, 0, 77, 63
1, 93593, Note_on_c, 0, 77, 67
1, 93632, Note_off_c, 0, 79, 59
1, 93637, Control_c, 0, 64, 30
1, 93652, Control_c, 0, 64, 49
1, 93668, Control_c, 0, 64, 55
1, 93682, Control_c, 0, 64, 58
1, 93683, Note_on_c, 0, 76, 68
1, 93697, Control_c, 0, 64, 60
1, 93712, Control_c, 0, 64, 61
1, 93712, Note_off_c, 0, 77, 62
1, 93727, Control_c, 0, 64, 61
1, 93742, Control_c, 0, 64, 62
1, 93754, Note_on_c, 0, 73, 66
1, 93770, Note_off_c, 0, 76, 59
1, 93801, Control_c, 0, 64, 61
1, 93814, Note_off_c, 0, 73, 65
1, 93816, Control_c, 0, 64, 60
1, 93830, Control_c, 0, 64, 58
1, 93837, Note_on_c, 0, 72, 67
1, 93845, Control_c, 0, 64, 56
1, 93860, Control_c, 0, 64, 53
1, 93875, Control_c, 0, 64, 49
1, 93889, Control_c, 0, 64, 45
1, 93904, Control_c, 0, 64, 41
1, 93919, Control_c, 0, 64, 38
1, 93934, Control_c, 0, 64, 35
1, 93942, Note_off_c, 0, 72, 60
1, 93949, Control_c, 0, 64, 32
1, 93952, Note_on_c, 0, 79, 76
1, 93963, Control_c, 0, 64, 29
1, 93978, Control_c, 0, 64, 26
1, 93993, Control_c, 0, 64, 24
1, 94008, Control_c, 0, 64, 19
1, 94023, Control_c, 0, 64, 15
1, 94037, Control_c, 0, 64, 12
1, 94042, Note_on_c, 0, 80, 79
1, 94064, Note_off_c, 0, 79, 61
1, 94127, Note_off_c, 0, 80, 63
1, 94128, Note_on_c, 0, 82, 79
1, 94155, Control_c, 0, 64, 12
1, 94209, Note_on_c, 0, 80, 83
1, 94286, Note_on_c, 0, 79, 79
1, 94288, Control_c, 0, 64, 11
1, 94296, Note_off_c, 0, 82, 59
1, 94303, Control_c, 0, 64, 9
1, 94326, Control_c, 0, 64, 0
1, 94366, Note_off_c, 0, 80, 57
1, 94398, Note_on_c, 0, 77, 73
1, 94421, Note_off_c, 0, 79, 64
1, 94671, Note_on_c, 0, 65, 57
1, 94678, Note_on_c, 0, 68, 53
1, 94714, Note_off_c, 0, 65, 61
1, 94718, Note_off_c, 0, 68, 62
1, 94919, Control_c, 0, 64, 17
1, 94934, Control_c, 0, 64, 44
1, 94949, Control_c, 0, 64, 55
1, 94952, Note_on_c, 0, 68, 58
1, 94958, Note_on_c, 0, 65, 58
1, 94964, Control_c, 0, 64, 60
1, 94978, Control_c, 0, 64, 63
1, 94993, Control_c, 0, 64, 65
1, 94999, Note_off_c, 0, 65, 60
1, 95000, Note_off_c, 0, 68, 59
1, 95008, Control_c, 0, 64, 67
1, 95022, Control_c, 0, 64, 69
1, 95037, Control_c, 0, 64, 70
1, 95052, Control_c, 0, 64, 70
1, 95149, Control_c, 0, 64, 70
1, 95164, Control_c, 0, 64, 69
1, 95178, Control_c, 0, 64, 67
1, 95193, Control_c, 0, 64, 65
1, 95208, Control_c, 0, 64, 63
1, 95222, Control_c, 0, 64, 59
1, 95237, Control_c, 0, 64, 55
1, 95241, Note_on_c, 0, 65, 56
1, 95244, Note_on_c, 0, 68, 47
1, 95253, Control_c, 0, 64, 51
1, 95268, Control_c, 0, 64, 48
1, 95280, Note_off_c, 0, 65, 62
1, 95280, Note_off_c, 0, 68, 55
1, 95283, Control_c, 0, 64, 45
1, 95298, Control_c, 0, 64, 41
1, 95313, Control_c, 0, 64, 38
1, 95327, Control_c, 0, 64, 35
1, 95342, Control_c, 0, 64, 31
1, 95357, Control_c, 0, 64, 28
1, 95372, Control_c, 0, 64, 26
1, 95387, Control_c, 0, 64, 26
1, 95401, Control_c, 0, 64, 25
1, 95416, Control_c, 0, 64, 23
1, 95431, Control_c, 0, 64, 22
1, 95460, Control_c, 0, 64, 21
1, 95475, Control_c, 0, 64, 19
1, 95481, Note_on_c, 0, 83, 82
1, 95490, Control_c, 0, 64, 18
1, 95505, Control_c, 0, 64, 18
1, 95520, Control_c, 0, 64, 17
1, 95534, Control_c, 0, 64, 17
1, 95550, Control_c, 0, 64, 16
1, 95565, Control_c, 0, 64, 15
1, 95580, Control_c, 0, 64, 14
1, 95596, Note_on_c, 0, 84, 80
1, 95599, Note_off_c, 0, 77, 63
1, 95625, Note_off_c, 0, 83, 64
1, 95757, Control_c, 0, 64, 13
1, 95759, Note_on_c, 0, 64, 56
1, 95759, Note_on_c, 0, 67, 55
1, 95791, Note_off_c, 0, 64, 65
1, 95795, Note_off_c, 0, 67, 62
1, 95853, Control_c, 0, 64, 13
1, 95868, Control_c, 0, 64, 10
1, 95883, Control_c, 0, 64, 0
1, 96046, Note_on_c, 0, 67, 64
1, 96053, Note_on_c, 0, 64, 57
1, 96062, Control_c, 0, 64, 27
1, 96076, Control_c, 0, 64, 47
1, 96087, Note_off_c, 0, 67, 60
1, 96091, Control_c, 0, 64, 55
1, 96097, Note_off_c, 0, 64, 60
1, 96106, Control_c, 0, 64, 60
1, 96117, Note_on_c, 0, 83, 81
1, 96121, Control_c, 0, 64, 63
1, 96122, Note_off_c, 0, 84, 64
1, 96136, Control_c, 0, 64, 64
1, 96151, Control_c, 0, 64, 66
1, 96166, Control_c, 0, 64, 67
1, 96180, Control_c, 0, 64, 68
1, 96219, Note_on_c, 0, 84, 84
1, 96255, Note_off_c, 0, 83, 65
1, 96289, Note_off_c, 0, 84, 63
1, 96299, Control_c, 0, 64, 68
1, 96314, Control_c, 0, 64, 67
1, 96321, Note_on_c, 0, 87, 71
1, 96328, Note_on_c, 0, 67, 59
1, 96329, Control_c, 0, 64, 66
1, 96331, Note_on_c, 0, 64, 51
1, 96344, Control_c, 0, 64, 64
1, 96358, Control_c, 0, 64, 62
1, 96369, Note_off_c, 0, 67, 61
1, 96370, Note_off_c, 0, 64, 62
1, 96373, Control_c, 0, 64, 59
1, 96388, Control_c, 0, 64, 55
1, 96403, Control_c, 0, 64, 52
1, 96407, Note_on_c, 0, 85, 74
1, 96410, Note_off_c, 0, 87, 65
1, 96418, Control_c, 0, 64, 49
1, 96432, Control_c, 0, 64, 47
1, 96447, Control_c, 0, 64, 45
1, 96462, Control_c, 0, 64, 41
1, 96463, Note_off_c, 0, 85, 63
1, 96472, Note_on_c, 0, 84, 75
1, 96476, Control_c, 0, 64, 37
1, 96491, Control_c, 0, 64, 34
1, 96506, Control_c, 0, 64, 34
1, 96521, Control_c, 0, 64, 33
1, 96536, Note_off_c, 0, 84, 58
1, 96536, Control_c, 0, 64, 31
1, 96550, Control_c, 0, 64, 27
1, 96551, Note_on_c, 0, 82, 74
1, 96565, Control_c, 0, 64, 21
1, 96588, Control_c, 0, 64, 14
1, 96596, Note_off_c, 0, 82, 62
1, 96603, Control_c, 0, 64, 0
1, 96679, Note_on_c, 0, 82, 85
1, 96929, Control_c, 0, 64, 37
1, 96943, Note_on_c, 0, 65, 56
1, 96943, Note_on_c, 0, 72, 55
1, 96944, Control_c, 0, 64, 50
1, 96959, Control_c, 0, 64, 57
1, 96973, Control_c, 0, 64, 61
1, 96986, Note_off_c, 0, 65, 61
1, 96988, Control_c, 0, 64, 62
1, 96999, Note_off_c, 0, 72, 58
1, 97003, Control_c, 0, 64, 63
1, 97018, Control_c, 0, 64, 63
1, 97078, Control_c, 0, 64, 63
1, 97092, Control_c, 0, 64, 62
1, 97107, Control_c, 0, 64, 61
1, 97122, Control_c, 0, 64, 60
1, 97137, Control_c, 0, 64, 57
1, 97152, Control_c, 0, 64, 53
1, 97164, Note_off_c, 0, 82, 59
1, 97167, Control_c, 0, 64, 47
1, 97181, Control_c, 0, 64, 41
1, 97188, Note_on_c, 0, 80, 66
1, 97196, Control_c, 0, 64, 34
1, 97201, Note_on_c, 0, 72, 60
1, 97205, Note_on_c, 0, 65, 61
1, 97211, Control_c, 0, 64, 28
1, 97222, Note_off_c, 0, 80, 61
1, 97226, Control_c, 0, 64, 23
1, 97240, Control_c, 0, 64, 17
1, 97244, Note_on_c, 0, 82, 63
1, 97246, Note_off_c, 0, 65, 60
1, 97252, Note_off_c, 0, 72, 56
1, 97255, Control_c, 0, 64, 12
1, 97270, Control_c, 0, 64, 0
1, 97285, Note_on_c, 0, 80, 72
1, 97285, Control_c, 0, 67, 9
1, 97299, Control_c, 0, 67, 10
1, 97314, Control_c, 0, 67, 12
1, 97337, Control_c, 0, 67, 13
1, 97346, Note_off_c, 0, 82, 56
1, 97352, Control_c, 0, 67, 14
1, 97367, Control_c, 0, 67, 17
1, 97381, Control_c, 0, 67, 20
1, 97396, Control_c, 0, 67, 26
1, 97411, Control_c, 0, 67, 32
1, 97425, Control_c, 0, 67, 37
1, 97440, Control_c, 0, 67, 42
1, 97455, Control_c, 0, 67, 44
1, 97470, Control_c, 0, 67, 46
1, 97481, Note_on_c, 0, 72, 62
1, 97485, Control_c, 0, 67, 47
1, 97488, Note_on_c, 0, 65, 52
1, 97499, Control_c, 0, 67, 48
1, 97514, Control_c, 0, 67, 47
1, 97521, Note_off_c, 0, 72, 59
1, 97525, Note_off_c, 0, 65, 63
1, 97544, Control_c, 0, 67, 47
1, 97559, Control_c, 0, 67, 46
1, 97573, Control_c, 0, 67, 45
1, 97588, Control_c, 0, 67, 45
1, 97603, Control_c, 0, 67, 44
1, 97618, Control_c, 0, 67, 43
1, 97620, Note_on_c, 0, 82, 77
1, 97632, Control_c, 0, 67, 42
1, 97649, Control_c, 0, 67, 42
1, 97653, Note_off_c, 0, 80, 62
1, 97664, Control_c, 0, 67, 41
1, 97678, Control_c, 0, 67, 41
1, 97693, Control_c, 0, 67, 40
1, 97708, Control_c, 0, 67, 40
1, 97714, Note_off_c, 0, 82, 63
1, 97722, Control_c, 0, 67, 39
1, 97759, Note_on_c, 0, 80, 81
1, 97782, Control_c, 0, 67, 38
1, 97855, Control_c, 0, 67, 38
1, 97958, Control_c, 0, 67, 37
1, 98010, Note_on_c, 0, 73, 53
1, 98017, Note_on_c, 0, 70, 52
1, 98017, Control_c, 0, 64, 17
1, 98017, Control_c, 0, 67, 37
1, 98032, Control_c, 0, 64, 40
1, 98043, Note_off_c, 0, 70, 64
1, 98046, Control_c, 0, 64, 52
1, 98049, Note_off_c, 0, 73, 62
1, 98069, Control_c, 0, 64, 57
1, 98084, Control_c, 0, 64, 57
1, 98099, Control_c, 0, 64, 58
1, 98114, Control_c, 0, 64, 58
1, 98128, Control_c, 0, 64, 58
1, 98128, Control_c, 0, 67, 36
1, 98173, Control_c, 0, 64, 56
1, 98188, Control_c, 0, 64, 54
1, 98202, Control_c, 0, 64, 52
1, 98217, Control_c, 0, 64, 48
1, 98217, Control_c, 0, 67, 37
1, 98232, Control_c, 0, 64, 44
1, 98232, Control_c, 0, 67, 37
1, 98240, Note_off_c, 0, 80, 62
1, 98246, Control_c, 0, 64, 38
1, 98246, Control_c, 0, 67, 38
1, 98261, Note_on_c, 0, 79, 69
1, 98261, Control_c, 0, 64, 29
1, 98261, Control_c, 0, 67, 39
1, 98276, Control_c, 0, 64, 18
1, 98276, Control_c, 0, 67, 40
1, 98281, Note_on_c, 0, 70, 57
1, 98290, Note_on_c, 0, 73, 51
1, 98291, Control_c, 0, 64, 0
1, 98291, Control_c, 0, 67, 41
1, 98306, Control_c, 0, 67, 42
1, 98307, Note_off_c, 0, 79, 58
1, 98318, Note_on_c, 0, 80, 63
1, 98321, Control_c, 0, 67, 43
1, 98324, Note_off_c, 0, 73, 65
1, 98324, Note_off_c, 0, 70, 62
1, 98336, Control_c, 0, 67, 44
1, 98351, Control_c, 0, 67, 46
1, 98365, Control_c, 0, 67, 47
1, 98379, Note_on_c, 0, 79, 65
1, 98380, Control_c, 0, 67, 47
1, 98395, Control_c, 0, 67, 48
1, 98403, Note_off_c, 0, 80, 55
1, 98410, Control_c, 0, 67, 49
1, 98425, Control_c, 0, 67, 50
1, 98440, Control_c, 0, 67, 52
1, 98455, Control_c, 0, 67, 57
1, 98470, Control_c, 0, 67, 62
1, 98485, Control_c, 0, 67, 65
1, 98500, Control_c, 0, 67, 68
1, 98514, Control_c, 0, 67, 69
1, 98529, Control_c, 0, 67, 70
1, 98559, Control_c, 0, 67, 69
1, 98565, Note_on_c, 0, 70, 57
1, 98567, Note_on_c, 0, 73, 51
1, 98589, Control_c, 0, 67, 69
1, 98604, Control_c, 0, 67, 68
1, 98606, Note_off_c, 0, 73, 61
1, 98613, Note_off_c, 0, 70, 60
1, 98618, Control_c, 0, 67, 67
1, 98648, Control_c, 0, 67, 67
1, 98677, Control_c, 0, 67, 66
1, 98692, Control_c, 0, 67, 66
1, 98697, Note_off_c, 0, 79, 54
1, 98707, Control_c, 0, 67, 65
1, 98708, Note_on_c, 0, 80, 63
1, 98737, Control_c, 0, 67, 65
1, 98766, Control_c, 0, 67, 64
1, 98796, Control_c, 0, 67, 63
1, 98818, Control_c, 0, 67, 63
1, 98827, Note_off_c, 0, 80, 59
1, 98833, Control_c, 0, 67, 62
1, 98848, Control_c, 0, 67, 62
1, 98863, Control_c, 0, 67, 61
1, 98866, Note_on_c, 0, 79, 63
1, 98877, Control_c, 0, 67, 61
1, 98922, Control_c, 0, 67, 60
1, 98966, Control_c, 0, 67, 60
1, 98981, Control_c, 0, 67, 59
1, 99040, Control_c, 0, 67, 59
1, 99099, Control_c, 0, 67, 58
1, 99137, Note_on_c, 0, 72, 52
1, 99144, Note_on_c, 0, 68, 46
1, 99173, Control_c, 0, 64, 18
1, 99180, Note_off_c, 0, 68, 54
1, 99180, Note_off_c, 0, 72, 59
1, 99188, Control_c, 0, 64, 35
1, 99203, Control_c, 0, 64, 45
1, 99218, Control_c, 0, 64, 50
1, 99233, Control_c, 0, 64, 51
1, 99263, Control_c, 0, 64, 52
1, 99293, Control_c, 0, 64, 51
1, 99308, Control_c, 0, 64, 51
1, 99323, Control_c, 0, 64, 49
1, 99338, Control_c, 0, 64, 46
1, 99342, Note_off_c, 0, 79, 61
1, 99353, Control_c, 0, 64, 42
1, 99367, Control_c, 0, 64, 38
1, 99379, Note_on_c, 0, 77, 56
1, 99382, Control_c, 0, 64, 32
1, 99397, Note_on_c, 0, 72, 45
1, 99397, Control_c, 0, 64, 28
1, 99398, Note_on_c, 0, 68, 48
1, 99408, Note_off_c, 0, 77, 65
1, 99412, Control_c, 0, 64, 23
1, 99424, Note_on_c, 0, 79, 47
1, 99427, Control_c, 0, 64, 16
1, 99430, Note_off_c, 0, 72, 55
1, 99442, Control_c, 0, 64, 0
1, 99443, Note_off_c, 0, 68, 59
1, 99459, Note_off_c, 0, 79, 51
1, 99485, Note_on_c, 0, 77, 58
1, 99516, Control_c, 0, 67, 59
1, 99657, Note_off_c, 0, 77, 62
1, 99673, Note_on_c, 0, 76, 61
1, 99711, Note_on_c, 0, 68, 55
1, 99716, Note_on_c, 0, 72, 51
1, 99740, Note_on_c, 0, 77, 58
1, 99750, Note_off_c, 0, 72, 62
1, 99758, Note_off_c, 0, 68, 62
1, 99779, Note_off_c, 0, 76, 53
1, 99834, Control_c, 0, 67, 58
1, 99969, Note_off_c, 0, 77, 60
1, 99971, Note_on_c, 0, 79, 59
1, 100062, Note_off_c, 0, 79, 58
1, 100071, Control_c, 0, 67, 58
1, 100080, Note_on_c, 0, 72, 43
1, 100080, Note_on_c, 0, 77, 53
1, 100086, Control_c, 0, 67, 57
1, 100089, Note_on_c, 0, 68, 44
1, 100101, Control_c, 0, 67, 57
1, 100115, Control_c, 0, 67, 56
1, 100130, Control_c, 0, 64, 20
1, 100130, Control_c, 0, 67, 56
1, 100145, Control_c, 0, 64, 38
1, 100145, Control_c, 0, 67, 55
1, 100160, Control_c, 0, 64, 49
1, 100160, Control_c, 0, 67, 54
1, 100175, Control_c, 0, 64, 54
1, 100175, Control_c, 0, 67, 53
1, 100190, Control_c, 0, 64, 56
1, 100190, Control_c, 0, 67, 49
1, 100205, Control_c, 0, 64, 56
1, 100205, Control_c, 0, 67, 44
1, 100211, Note_off_c, 0, 77, 63
1, 100220, Control_c, 0, 64, 57
1, 100220, Control_c, 0, 67, 41
1, 100234, Control_c, 0, 67, 37
1, 100249, Control_c, 0, 67, 34
1, 100257, Note_off_c, 0, 68, 53
1, 100264, Note_off_c, 0, 72, 51
1, 100264, Control_c, 0, 64, 56
1, 100264, Control_c, 0, 67, 31
1, 100279, Control_c, 0, 64, 54
1, 100279, Control_c, 0, 67, 29
1, 100294, Control_c, 0, 64, 50
1, 100294, Control_c, 0, 67, 27
1, 100309, Control_c, 0, 64, 44
1, 100309, Control_c, 0, 67, 26
1, 100319, Note_on_c, 0, 77, 71
1, 100330, Control_c, 0, 64, 36
1, 100330, Control_c, 0, 67, 26
1, 100345, Control_c, 0, 64, 29
1, 100345, Control_c, 0, 67, 24
1, 100360, Control_c, 0, 64, 23
1, 100360, Control_c, 0, 67, 22
1, 100375, Control_c, 0, 64, 18
1, 100375, Control_c, 0, 67, 19
1, 100390, Control_c, 0, 64, 10
1, 100390, Control_c, 0, 67, 16
1, 100404, Control_c, 0, 64, 0
1, 100404, Control_c, 0, 67, 12
1, 100414, Note_on_c, 0, 79, 70
1, 100419, Control_c, 0, 67, 9
1, 100422, Note_off_c, 0, 77, 61
1, 100434, Control_c, 0, 67, 0
1, 100485, Note_off_c, 0, 79, 66
1, 100493, Note_on_c, 0, 80, 73
1, 100586, Note_on_c, 0, 79, 75
1, 100615, Note_off_c, 0, 80, 50
1, 100652, Note_off_c, 0, 79, 64
1, 100659, Note_on_c, 0, 77, 72
1, 100746, Note_on_c, 0, 84, 75
1, 100753, Note_off_c, 0, 77, 60
1, 100830, Note_on_c, 0, 82, 74
1, 100864, Control_c, 0, 67, 9
1, 100876, Note_off_c, 0, 84, 61
1, 100879, Control_c, 0, 67, 12
1, 100894, Control_c, 0, 67, 14
1, 100909, Control_c, 0, 67, 16
1, 100922, Note_on_c, 0, 80, 77
1, 100924, Control_c, 0, 67, 21
1, 100938, Control_c, 0, 67, 27
1, 100953, Control_c, 0, 67, 34
1, 100965, Note_off_c, 0, 82, 62
1, 100968, Control_c, 0, 67, 39
1, 100983, Control_c, 0, 67, 41
1, 100998, Control_c, 0, 67, 42
1, 101001, Note_on_c, 0, 79, 70
1, 101033, Note_off_c, 0, 80, 61
1, 101042, Control_c, 0, 67, 42
1, 101056, Note_off_c, 0, 79, 64
1, 101057, Control_c, 0, 67, 42
1, 101093, Note_on_c, 0, 77, 66
1, 101094, Control_c, 0, 67, 41
1, 101139, Control_c, 0, 67, 41
1, 101152, Note_off_c, 0, 77, 57
1, 101168, Control_c, 0, 67, 40
1, 101183, Control_c, 0, 67, 40
1, 101188, Note_on_c, 0, 75, 67
1, 101213, Control_c, 0, 67, 39
1, 101227, Control_c, 0, 67, 39
1, 101257, Control_c, 0, 67, 38
1, 101287, Control_c, 0, 67, 38
1, 101291, Note_on_c, 0, 73, 65
1, 101302, Control_c, 0, 67, 37
1, 101306, Note_off_c, 0, 75, 57
1, 101317, Control_c, 0, 67, 37
1, 101331, Control_c, 0, 67, 36
1, 101346, Control_c, 0, 67, 36
1, 101356, Note_on_c, 0, 70, 51
1, 101361, Control_c, 0, 67, 35
1, 101373, Note_off_c, 0, 73, 64
1, 101376, Control_c, 0, 67, 35
1, 101391, Control_c, 0, 67, 34
1, 101406, Control_c, 0, 67, 34
1, 101420, Control_c, 0, 67, 33
1, 101445, Note_on_c, 0, 72, 63
1, 101450, Control_c, 0, 67, 33
1, 101479, Control_c, 0, 67, 32
1, 101497, Note_off_c, 0, 70, 57
1, 101527, Note_off_c, 0, 72, 60
1, 101540, Note_on_c, 0, 73, 62
1, 101540, Note_on_c, 0, 77, 73
1, 101583, Note_off_c, 0, 77, 60
1, 101610, Note_off_c, 0, 73, 60
1, 101640, Note_on_c, 0, 72, 58
1, 101689, Note_off_c, 0, 72, 61
1, 101707, Note_on_c, 0, 70, 59
1, 101717, Control_c, 0, 67, 33
1, 101747, Note_off_c, 0, 70, 60
1, 101793, Note_on_c, 0, 77, 63
1, 101795, Note_on_c, 0, 85, 64
1, 101846, Note_off_c, 0, 77, 56
1, 101861, Note_off_c, 0, 85, 63
1, 101886, Note_on_c, 0, 84, 68
1, 101892, Note_on_c, 0, 75, 66
1, 101947, Note_off_c, 0, 84, 48
1, 101961, Note_off_c, 0, 75, 61
1, 101969, Note_on_c, 0, 82, 77
1, 101978, Note_on_c, 0, 73, 57
1, 102017, Note_off_c, 0, 73, 62
1, 102049, Note_on_c, 0, 72, 69
1, 102049, Note_on_c, 0, 80, 77
1, 102090, Note_off_c, 0, 82, 60
1, 102112, Note_off_c, 0, 72, 55
1, 102124, Control_c, 0, 67, 32
1, 102128, Note_on_c, 0, 79, 72
1, 102139, Control_c, 0, 67, 32
1, 102142, Note_on_c, 0, 70, 67
1, 102148, Note_off_c, 0, 80, 63
1, 102169, Control_c, 0, 67, 31
1, 102184, Control_c, 0, 67, 31
1, 102187, Note_off_c, 0, 79, 63
1, 102199, Control_c, 0, 67, 30
1, 102211, Note_on_c, 0, 77, 65
1, 102228, Note_off_c, 0, 70, 58
1, 102228, Control_c, 0, 67, 30
1, 102232, Note_on_c, 0, 68, 59
1, 102255, Note_off_c, 0, 77, 60
1, 102258, Control_c, 0, 64, 8
1, 102273, Control_c, 0, 64, 11
1, 102287, Control_c, 0, 64, 12
1, 102302, Control_c, 0, 67, 29
1, 102309, Note_off_c, 0, 68, 63
1, 102313, Note_on_c, 0, 67, 64
1, 102321, Note_on_c, 0, 75, 67
1, 102346, Note_off_c, 0, 67, 65
1, 102361, Note_off_c, 0, 75, 59
1, 102421, Note_on_c, 0, 75, 65
1, 102500, Note_on_c, 0, 77, 71
1, 102538, Note_off_c, 0, 75, 60
1, 102592, Note_off_c, 0, 77, 64
1, 102599, Note_on_c, 0, 79, 73
1, 102609, Note_on_c, 0, 70, 70
1, 102622, Control_c, 0, 67, 30
1, 102643, Note_off_c, 0, 70, 63
1, 102682, Note_on_c, 0, 77, 77
1, 102697, Note_off_c, 0, 79, 58
1, 102744, Note_off_c, 0, 77, 64
1, 102762, Note_on_c, 0, 75, 69
1, 102792, Note_off_c, 0, 75, 66
1, 102829, Control_c, 0, 67, 30
1, 102861, Note_on_c, 0, 63, 59
1, 102873, Control_c, 0, 67, 31
1, 102876, Note_on_c, 0, 82, 73
1, 102902, Note_off_c, 0, 63, 62
1, 102947, Control_c, 0, 67, 31
1, 102959, Note_on_c, 0, 80, 67
1, 102987, Note_off_c, 0, 82, 54
1, 103032, Note_on_c, 0, 79, 65
1, 103042, Note_off_c, 0, 80, 58
1, 103069, Note_off_c, 0, 79, 64
1, 103114, Note_on_c, 0, 77, 56
1, 103140, Note_on_c, 0, 67, 57
1, 103141, Control_c, 0, 67, 31
1, 103155, Note_off_c, 0, 77, 61
1, 103168, Note_off_c, 0, 67, 61
1, 103185, Control_c, 0, 67, 30
1, 103204, Note_on_c, 0, 75, 63
1, 103215, Control_c, 0, 64, 13
1, 103230, Control_c, 0, 64, 13
1, 103245, Control_c, 0, 64, 14
1, 103260, Control_c, 0, 64, 15
1, 103275, Control_c, 0, 64, 15
1, 103275, Control_c, 0, 67, 30
1, 103293, Note_on_c, 0, 73, 63
1, 103295, Note_off_c, 0, 75, 61
1, 103312, Control_c, 0, 67, 29
1, 103341, Control_c, 0, 67, 29
1, 103356, Control_c, 0, 67, 28
1, 103371, Control_c, 0, 67, 28
1, 103378, Note_off_c, 0, 73, 64
1, 103386, Control_c, 0, 67, 27
1, 103395, Note_on_c, 0, 72, 65
1, 103415, Control_c, 0, 67, 27
1, 103430, Control_c, 0, 67, 26
1, 103445, Control_c, 0, 67, 25
1, 103460, Control_c, 0, 67, 22
1, 103475, Control_c, 0, 67, 18
1, 103484, Note_on_c, 0, 68, 58
1, 103488, Note_off_c, 0, 72, 59
1, 103490, Control_c, 0, 67, 15
1, 103505, Control_c, 0, 67, 12
1, 103519, Control_c, 0, 67, 8
1, 103534, Control_c, 0, 67, 0
1, 103559, Note_on_c, 0, 70, 68
1, 103576, Note_off_c, 0, 68, 51
1, 103634, Note_off_c, 0, 70, 60
1, 103638, Control_c, 0, 64, 16
1, 103651, Note_on_c, 0, 75, 75
1, 103651, Note_on_c, 0, 72, 68
1, 103682, Control_c, 0, 64, 16
1, 103697, Control_c, 0, 64, 17
1, 103717, Note_off_c, 0, 75, 64
1, 103729, Note_off_c, 0, 72, 61
1, 103747, Note_on_c, 0, 70, 61
1, 103796, Note_off_c, 0, 70, 62
1, 103811, Note_on_c, 0, 68, 50
1, 103835, Note_off_c, 0, 68, 59
1, 103894, Note_on_c, 0, 84, 71
1, 103904, Note_on_c, 0, 75, 65
1, 103934, Control_c, 0, 64, 16
1, 103944, Note_off_c, 0, 75, 61
1, 103949, Control_c, 0, 64, 16
1, 103949, Control_c, 0, 67, 8
1, 103964, Control_c, 0, 64, 15
1, 103964, Control_c, 0, 67, 10
1, 103978, Control_c, 0, 64, 15
1, 103978, Control_c, 0, 67, 12
1, 103980, Note_on_c, 0, 82, 76
1, 103993, Control_c, 0, 64, 13
1, 103993, Control_c, 0, 67, 13
1, 103995, Note_on_c, 0, 73, 58
1, 104008, Control_c, 0, 67, 14
1, 104022, Note_off_c, 0, 84, 58
1, 104023, Control_c, 0, 64, 13
1, 104041, Note_off_c, 0, 73, 59
1, 104069, Note_on_c, 0, 80, 81
1, 104089, Note_on_c, 0, 72, 71
1, 104120, Control_c, 0, 64, 12
1, 104120, Control_c, 0, 67, 13
1, 104128, Note_off_c, 0, 82, 61
1, 104135, Control_c, 0, 67, 12
1, 104147, Note_on_c, 0, 79, 74
1, 104150, Control_c, 0, 67, 12
1, 104160, Note_off_c, 0, 72, 57
1, 104164, Control_c, 0, 67, 11
1, 104169, Note_on_c, 0, 70, 66
1, 104177, Note_off_c, 0, 80, 63
1, 104179, Control_c, 0, 67, 10
1, 104194, Control_c, 0, 67, 10
1, 104206, Note_off_c, 0, 79, 64
1, 104209, Control_c, 0, 67, 9
1, 104224, Control_c, 0, 67, 9
1, 104226, Note_on_c, 0, 77, 69
1, 104238, Control_c, 0, 67, 8
1, 104241, Note_off_c, 0, 70, 62
1, 104247, Note_on_c, 0, 68, 66
1, 104268, Control_c, 0, 67, 8
1, 104269, Note_off_c, 0, 77, 57
1, 104320, Note_on_c, 0, 75, 73
1, 104336, Note_off_c, 0, 68, 65
1, 104340, Note_on_c, 0, 67, 56
1, 104342, Control_c, 0, 64, 13
1, 104357, Control_c, 0, 67, 0
1, 104372, Control_c, 0, 64, 13
1, 104387, Control_c, 0, 64, 14
1, 104393, Note_off_c, 0, 75, 61
1, 104400, Note_on_c, 0, 73, 70
1, 104411, Note_on_c, 0, 65, 60
1, 104417, Note_off_c, 0, 67, 62
1, 104417, Control_c, 0, 64, 15
1, 104432, Note_off_c, 0, 73, 63
1, 104452, Note_off_c, 0, 65, 63
1, 104507, Note_on_c, 0, 73, 69
1, 104563, Control_c, 0, 64, 15
1, 104584, Note_on_c, 0, 75, 72
1, 104619, Note_off_c, 0, 73, 63
1, 104662, Note_off_c, 0, 75, 65
1, 104664, Note_on_c, 0, 77, 67
1, 104678, Note_on_c, 0, 68, 69
1, 104697, Control_c, 0, 67, 8
1, 104712, Control_c, 0, 67, 9
1, 104716, Note_off_c, 0, 68, 60
1, 104727, Control_c, 0, 67, 11
1, 104742, Control_c, 0, 67, 12
1, 104751, Note_on_c, 0, 75, 72
1, 104754, Note_off_c, 0, 77, 62
1, 104756, Control_c, 0, 67, 13
1, 104771, Control_c, 0, 67, 14
1, 104786, Control_c, 0, 67, 15
1, 104801, Control_c, 0, 67, 16
1, 104822, Control_c, 0, 67, 19
1, 104824, Note_off_c, 0, 75, 64
1, 104831, Note_on_c, 0, 73, 58
1, 104839, Control_c, 0, 67, 26
1, 104854, Control_c, 0, 67, 33
1, 104858, Note_off_c, 0, 73, 66
1, 104868, Control_c, 0, 64, 15
1, 104868, Control_c, 0, 67, 40
1, 104883, Control_c, 0, 67, 44
1, 104898, Control_c, 0, 67, 47
1, 104912, Control_c, 0, 67, 50
1, 104927, Control_c, 0, 67, 54
1, 104942, Control_c, 0, 67, 56
1, 104957, Control_c, 0, 67, 57
1, 104970, Note_on_c, 0, 61, 39
1, 104974, Note_on_c, 0, 80, 66
1, 104986, Control_c, 0, 67, 57
1, 105014, Note_off_c, 0, 61, 49
1, 105031, Control_c, 0, 67, 56
1, 105061, Control_c, 0, 67, 56
1, 105061, Note_off_c, 0, 80, 61
1, 105064, Note_on_c, 0, 79, 59
1, 105090, Control_c, 0, 67, 55
1, 105099, Note_off_c, 0, 79, 65
1, 105120, Control_c, 0, 67, 55
1, 105135, Control_c, 0, 67, 54
1, 105149, Note_on_c, 0, 77, 51
1, 105150, Control_c, 0, 67, 54
1, 105180, Control_c, 0, 67, 53
1, 105188, Note_off_c, 0, 77, 64
1, 105194, Control_c, 0, 67, 53
1, 105209, Control_c, 0, 67, 52
1, 105231, Note_on_c, 0, 75, 62
1, 105238, Control_c, 0, 67, 51
1, 105244, Note_on_c, 0, 65, 49
1, 105253, Control_c, 0, 67, 51
1, 105269, Note_off_c, 0, 65, 58
1, 105283, Control_c, 0, 67, 50
1, 105295, Note_off_c, 0, 75, 50
1, 105312, Control_c, 0, 64, 14
1, 105325, Note_on_c, 0, 73, 57
1, 105342, Control_c, 0, 67, 50
1, 105365, Note_off_c, 0, 73, 63
1, 105400, Note_on_c, 0, 72, 60
1, 105416, Control_c, 0, 67, 49
1, 105442, Note_off_c, 0, 72, 59
1, 105445, Control_c, 0, 67, 49
1, 105475, Control_c, 0, 67, 48
1, 105490, Control_c, 0, 67, 48
1, 105498, Note_on_c, 0, 70, 57
1, 105505, Control_c, 0, 67, 47
1, 105520, Control_c, 0, 67, 46
1, 105535, Control_c, 0, 67, 46
1, 105542, Note_off_c, 0, 70, 64
1, 105549, Control_c, 0, 67, 45
1, 105572, Control_c, 0, 67, 45
1, 105587, Control_c, 0, 67, 44
1, 105592, Note_on_c, 0, 67, 52
1, 105601, Control_c, 0, 67, 43
1, 105616, Control_c, 0, 67, 42
1, 105631, Control_c, 0, 67, 39
1, 105647, Control_c, 0, 67, 33
1, 105662, Control_c, 0, 67, 26
1, 105677, Control_c, 0, 67, 21
1, 105679, Note_on_c, 0, 68, 57
1, 105681, Note_off_c, 0, 67, 57
1, 105691, Control_c, 0, 67, 20
1, 105739, Note_off_c, 0, 68, 60
1, 105750, Control_c, 0, 64, 15
1, 105752, Note_on_c, 0, 73, 55
1, 105761, Note_on_c, 0, 70, 61
1, 105765, Control_c, 0, 67, 20
1, 105780, Control_c, 0, 64, 15
1, 105789, Note_off_c, 0, 73, 64
1, 105795, Control_c, 0, 64, 16
1, 105818, Note_off_c, 0, 70, 55
1, 105839, Control_c, 0, 64, 16
1, 105843, Note_on_c, 0, 68, 61
1, 105886, Note_off_c, 0, 68, 63
1, 105911, Note_on_c, 0, 67, 59
1, 105913, Control_c, 0, 64, 16
1, 105941, Note_off_c, 0, 67, 66
1, 106003, Note_on_c, 0, 82, 72
1, 106014, Note_on_c, 0, 73, 58
1, 106062, Control_c, 0, 67, 20
1, 106063, Note_off_c, 0, 73, 60
1, 106081, Note_on_c, 0, 80, 73
1, 106086, Note_on_c, 0, 72, 62
1, 106122, Control_c, 0, 64, 15
1, 106124, Note_off_c, 0, 82, 60
1, 106152, Note_on_c, 0, 79, 76
1, 106158, Note_off_c, 0, 72, 61
1, 106169, Note_on_c, 0, 70, 60
1, 106177, Note_off_c, 0, 80, 62
1, 106196, Control_c, 0, 67, 20
1, 106218, Note_off_c, 0, 79, 62
1, 106219, Note_off_c, 0, 70, 59
1, 106225, Control_c, 0, 67, 21
1, 106240, Control_c, 0, 67, 21
1, 106242, Note_on_c, 0, 68, 61
1, 106243, Note_on_c, 0, 77, 59
1, 106269, Note_off_c, 0, 68, 68
1, 106301, Note_off_c, 0, 77, 52
1, 106321, Control_c, 0, 67, 22
1, 106336, Note_on_c, 0, 76, 67
1, 106336, Note_on_c, 0, 67, 64
1, 106381, Control_c, 0, 67, 22
1, 106388, Note_off_c, 0, 67, 53
1, 106396, Control_c, 0, 67, 23
1, 106413, Note_off_c, 0, 76, 56
1, 106420, Note_on_c, 0, 73, 70
1, 106425, Control_c, 0, 67, 23
1, 106428, Note_on_c, 0, 65, 65
1, 106456, Control_c, 0, 67, 24
1, 106487, Note_off_c, 0, 65, 61
1, 106487, Note_off_c, 0, 73, 64
1, 106500, Control_c, 0, 67, 24
1, 106510, Note_on_c, 0, 64, 61
1, 106518, Note_on_c, 0, 72, 64
1, 106530, Control_c, 0, 67, 25
1, 106530, Note_off_c, 0, 64, 65
1, 106545, Control_c, 0, 67, 26
1, 106549, Note_off_c, 0, 72, 65
1, 106559, Control_c, 0, 67, 27
1, 106574, Control_c, 0, 67, 28
1, 106589, Control_c, 0, 67, 29
1, 106604, Control_c, 0, 67, 30
1, 106619, Control_c, 0, 67, 32
1, 106620, Note_on_c, 0, 72, 73
1, 106633, Control_c, 0, 67, 33
1, 106648, Control_c, 0, 67, 34
1, 106663, Control_c, 0, 67, 34
1, 106678, Control_c, 0, 67, 35
1, 106692, Control_c, 0, 67, 38
1, 106701, Note_on_c, 0, 74, 64
1, 106707, Control_c, 0, 67, 41
1, 106722, Control_c, 0, 67, 45
1, 106735, Note_off_c, 0, 72, 55
1, 106737, Control_c, 0, 67, 47
1, 106752, Control_c, 0, 67, 48
1, 106766, Control_c, 0, 67, 48
1, 106772, Note_on_c, 0, 76, 74
1, 106779, Note_off_c, 0, 74, 64
1, 106783, Note_on_c, 0, 67, 67
1, 106796, Control_c, 0, 67, 49
1, 106818, Note_off_c, 0, 67, 63
1, 106872, Note_off_c, 0, 76, 60
1, 106875, Note_on_c, 0, 74, 71
1, 106915, Control_c, 0, 67, 49
1, 106930, Control_c, 0, 67, 50
1, 106936, Note_off_c, 0, 74, 63
1, 106944, Control_c, 0, 67, 50
1, 106951, Note_on_c, 0, 72, 63
1, 106959, Control_c, 0, 67, 51
1, 106974, Control_c, 0, 67, 57
1, 106989, Control_c, 0, 67, 62
1, 107004, Control_c, 0, 67, 66
1, 107019, Control_c, 0, 67, 68
1, 107023, Note_on_c, 0, 60, 48
1, 107032, Note_off_c, 0, 72, 53
1, 107033, Control_c, 0, 67, 70
1, 107040, Note_on_c, 0, 79, 63
1, 107048, Control_c, 0, 67, 71
1, 107064, Note_off_c, 0, 60, 56
1, 107070, Control_c, 0, 67, 73
1, 107085, Control_c, 0, 67, 75
1, 107099, Control_c, 0, 67, 79
1, 107114, Control_c, 0, 67, 81
1, 107129, Control_c, 0, 67, 83
1, 107143, Note_on_c, 0, 77, 60
1, 107144, Note_off_c, 0, 79, 58
1, 107144, Control_c, 0, 67, 85
1, 107159, Control_c, 0, 67, 86
1, 107174, Control_c, 0, 67, 87
1, 107189, Control_c, 0, 67, 88
1, 107204, Control_c, 0, 67, 90
1, 107218, Control_c, 0, 67, 92
1, 107221, Note_off_c, 0, 77, 61
1, 107233, Note_on_c, 0, 76, 55
1, 107234, Control_c, 0, 67, 94
1, 107249, Control_c, 0, 67, 95
1, 107263, Control_c, 0, 67, 98
1, 107278, Control_c, 0, 67, 100
1, 107281, Note_off_c, 0, 76, 58
1, 107293, Control_c, 0, 67, 101
1, 107308, Control_c, 0, 67, 103
1, 107317, Note_on_c, 0, 64, 49
1, 107317, Note_on_c, 0, 73, 52
1, 107323, Control_c, 0, 67, 104
1, 107341, Note_off_c, 0, 64, 62
1, 107358, Note_off_c, 0, 73, 62
1, 107397, Control_c, 0, 67, 103
1, 107400, Note_on_c, 0, 72, 53
1, 107427, Control_c, 0, 67, 103
1, 107442, Note_off_c, 0, 72, 59
1, 107456, Control_c, 0, 67, 102
1, 107486, Control_c, 0, 67, 102
1, 107494, Note_on_c, 0, 70, 55
1, 107501, Control_c, 0, 67, 101
1, 107545, Control_c, 0, 67, 101
1, 107553, Note_off_c, 0, 70, 54
1, 107575, Control_c, 0, 67, 100
1, 107587, Note_on_c, 0, 68, 51
1, 107615, Note_off_c, 0, 68, 56
1, 107648, Control_c, 0, 67, 101
1, 107672, Note_on_c, 0, 65, 47
1, 107700, Note_off_c, 0, 65, 55
1, 107722, Control_c, 0, 67, 100
1, 107737, Control_c, 0, 64, 15
1, 107755, Note_on_c, 0, 53, 53
1, 107767, Control_c, 0, 64, 14
1, 107782, Control_c, 0, 67, 101
1, 107783, Note_off_c, 0, 53, 62
1, 107797, Control_c, 0, 64, 13
1, 107819, Control_c, 0, 67, 101
1, 107854, Note_on_c, 0, 72, 61
1, 107863, Control_c, 0, 67, 102
1, 107878, Control_c, 0, 67, 102
1, 107882, Note_off_c, 0, 72, 64
1, 107934, Note_on_c, 0, 65, 61
1, 107973, Note_off_c, 0, 65, 62
1, 108012, Control_c, 0, 67, 102
1, 108013, Note_on_c, 0, 53, 55
1, 108042, Control_c, 0, 67, 101
1, 108043, Note_off_c, 0, 53, 63
1, 108057, Control_c, 0, 67, 100
1, 108072, Control_c, 0, 67, 100
1, 108094, Note_on_c, 0, 68, 69
1, 108101, Control_c, 0, 64, 14
1, 108129, Note_off_c, 0, 68, 63
1, 108176, Control_c, 0, 67, 100
1, 108190, Control_c, 0, 67, 101
1, 108196, Note_on_c, 0, 65, 68
1, 108234, Note_off_c, 0, 65, 61
1, 108235, Control_c, 0, 67, 101
1, 108264, Control_c, 0, 67, 102
1, 108288, Note_on_c, 0, 53, 57
1, 108308, Control_c, 0, 67, 101
1, 108322, Control_c, 0, 67, 100
1, 108326, Note_off_c, 0, 53, 59
1, 108337, Control_c, 0, 67, 99
1, 108345, Note_on_c, 0, 72, 74
1, 108352, Control_c, 0, 67, 96
1, 108367, Control_c, 0, 67, 93
1, 108372, Note_off_c, 0, 72, 66
1, 108382, Control_c, 0, 67, 90
1, 108397, Control_c, 0, 67, 87
1, 108411, Control_c, 0, 67, 82
1, 108418, Note_on_c, 0, 65, 69
1, 108426, Control_c, 0, 67, 79
1, 108441, Control_c, 0, 67, 73
1, 108456, Control_c, 0, 67, 67
1, 108458, Note_off_c, 0, 65, 60
1, 108471, Control_c, 0, 67, 60
1, 108486, Control_c, 0, 67, 53
1, 108501, Control_c, 0, 67, 46
1, 108508, Note_on_c, 0, 53, 57
1, 108515, Control_c, 0, 67, 38
1, 108530, Note_off_c, 0, 53, 59
1, 108530, Control_c, 0, 67, 29
1, 108545, Control_c, 0, 67, 17
1, 108567, Control_c, 0, 64, 13
1, 108567, Control_c, 0, 67, 0
1, 108614, Note_on_c, 0, 69, 82
1, 108652, Note_off_c, 0, 69, 63
1, 108701, Note_on_c, 0, 66, 72
1, 108764, Note_off_c, 0, 66, 61
1, 108788, Note_on_c, 0, 63, 65
1, 108820, Note_off_c, 0, 63, 63
1, 108876, Note_on_c, 0, 72, 83
1, 108912, Note_off_c, 0, 72, 62
1, 108924, Control_c, 0, 64, 13
1, 108969, Note_on_c, 0, 66, 69
1, 109032, Note_off_c, 0, 66, 61
1, 109051, Note_on_c, 0, 63, 67
1, 109083, Note_off_c, 0, 63, 66
1, 109100, Control_c, 0, 64, 13
1, 109135, Note_on_c, 0, 69, 85
1, 109183, Note_off_c, 0, 69, 66
1, 109226, Note_on_c, 0, 66, 72
1, 109305, Note_off_c, 0, 66, 58
1, 109323, Note_on_c, 0, 63, 70
1, 109360, Note_off_c, 0, 63, 61
1, 109407, Note_on_c, 0, 72, 83
1, 109451, Note_off_c, 0, 72, 60
1, 109463, Control_c, 0, 64, 13
1, 109495, Note_on_c, 0, 66, 74
1, 109523, Control_c, 0, 64, 12
1, 109538, Control_c, 0, 64, 12
1, 109552, Control_c, 0, 64, 11
1, 109563, Note_off_c, 0, 66, 63
1, 109567, Control_c, 0, 64, 8
1, 109576, Note_on_c, 0, 63, 59
1, 109582, Control_c, 0, 64, 0
1, 109607, Note_off_c, 0, 63, 64
1, 109696, Note_on_c, 0, 65, 70
1, 109701, Note_on_c, 0, 61, 68
1, 109716, Control_c, 0, 64, 34
1, 109731, Control_c, 0, 64, 55
1, 109735, Note_off_c, 0, 65, 62
1, 109743, Note_off_c, 0, 61, 60
1, 109746, Control_c, 0, 64, 62
1, 109761, Control_c, 0, 64, 65
1, 109771, Note_on_c, 0, 70, 67
1, 109776, Control_c, 0, 64, 67
1, 109791, Control_c, 0, 64, 70
1, 109806, Control_c, 0, 64, 71
1, 109837, Note_off_c, 0, 70, 57
1, 109849, Note_on_c, 0, 82, 71
1, 109865, Control_c, 0, 64, 69
1, 109880, Note_off_c, 0, 82, 65
1, 109880, Control_c, 0, 64, 67
1, 109895, Control_c, 0, 64, 62
1, 109909, Control_c, 0, 64, 54
1, 109924, Control_c, 0, 64, 45
1, 109934, Note_on_c, 0, 66, 70
1, 109939, Control_c, 0, 64, 35
1, 109943, Note_on_c, 0, 63, 68
1, 109954, Control_c, 0, 64, 27
1, 109969, Control_c, 0, 64, 8
1, 109972, Note_off_c, 0, 66, 60
1, 109983, Control_c, 0, 64, 0
1, 109986, Note_off_c, 0, 63, 56
1, 110030, Note_on_c, 0, 70, 71
1, 110101, Note_off_c, 0, 70, 63
1, 110108, Note_on_c, 0, 82, 62
1, 110136, Note_off_c, 0, 82, 65
1, 110181, Note_on_c, 0, 65, 64
1, 110183, Note_on_c, 0, 61, 56
1, 110209, Note_off_c, 0, 65, 66
1, 110216, Note_off_c, 0, 61, 64
1, 110286, Note_on_c, 0, 70, 71
1, 110350, Note_off_c, 0, 70, 62
1, 110357, Note_on_c, 0, 82, 66
1, 110389, Note_off_c, 0, 82, 64
1, 110426, Note_on_c, 0, 63, 68
1, 110435, Note_on_c, 0, 60, 62
1, 110460, Note_off_c, 0, 63, 64
1, 110469, Note_off_c, 0, 60, 62
1, 110533, Note_on_c, 0, 70, 71
1, 110595, Note_off_c, 0, 70, 58
1, 110599, Note_on_c, 0, 82, 70
1, 110633, Note_off_c, 0, 82, 63
1, 110672, Note_on_c, 0, 58, 58
1, 110672, Control_c, 0, 64, 37
1, 110678, Note_on_c, 0, 61, 71
1, 110687, Control_c, 0, 64, 51
1, 110702, Control_c, 0, 64, 57
1, 110711, Note_off_c, 0, 58, 67
1, 110711, Note_off_c, 0, 61, 65
1, 110717, Control_c, 0, 64, 61
1, 110731, Control_c, 0, 64, 64
1, 110746, Control_c, 0, 64, 66
1, 110761, Control_c, 0, 64, 67
1, 110776, Control_c, 0, 64, 68
1, 110781, Note_on_c, 0, 70, 70
1, 110798, Control_c, 0, 64, 69
1, 110849, Note_off_c, 0, 70, 59
1, 110852, Note_on_c, 0, 82, 64
1, 110872, Control_c, 0, 64, 69
1, 110885, Note_off_c, 0, 82, 63
1, 110887, Control_c, 0, 64, 68
1, 110902, Control_c, 0, 64, 66
1, 110917, Control_c, 0, 64, 63
1, 110924, Note_on_c, 0, 66, 75
1, 110931, Control_c, 0, 64, 58
1, 110936, Note_on_c, 0, 63, 64
1, 110946, Control_c, 0, 64, 48
1, 110961, Control_c, 0, 64, 39
1, 110969, Note_off_c, 0, 66, 57
1, 110972, Note_off_c, 0, 63, 63
1, 110976, Control_c, 0, 64, 31
1, 110991, Control_c, 0, 64, 25
1, 111005, Control_c, 0, 64, 17
1, 111020, Control_c, 0, 64, 0
1, 111027, Note_on_c, 0, 70, 69
1, 111088, Note_on_c, 0, 82, 67
1, 111093, Note_off_c, 0, 70, 61
1, 111130, Note_off_c, 0, 82, 60
1, 111168, Note_on_c, 0, 65, 72
1, 111173, Note_on_c, 0, 61, 68
1, 111216, Note_off_c, 0, 65, 63
1, 111226, Note_off_c, 0, 61, 55
1, 111273, Note_on_c, 0, 70, 71
1, 111336, Note_off_c, 0, 70, 59
1, 111343, Note_on_c, 0, 82, 73
1, 111380, Note_off_c, 0, 82, 60
1, 111417, Note_on_c, 0, 63, 68
1, 111419, Note_on_c, 0, 60, 64
1, 111458, Note_off_c, 0, 60, 63
1, 111458, Note_off_c, 0, 63, 60
1, 111509, Note_on_c, 0, 70, 72
1, 111592, Note_off_c, 0, 70, 56
1, 111600, Note_on_c, 0, 82, 58
1, 111630, Note_off_c, 0, 82, 63
1, 111666, Control_c, 0, 64, 15
1, 111678, Note_on_c, 0, 61, 72
1, 111680, Control_c, 0, 64, 40
1, 111685, Note_on_c, 0, 58, 51
1, 111695, Control_c, 0, 64, 54
1, 111710, Control_c, 0, 64, 60
1, 111714, Note_off_c, 0, 61, 63
1, 111725, Control_c, 0, 64, 63
1, 111727, Note_off_c, 0, 58, 63
1, 111740, Control_c, 0, 64, 65
1, 111754, Control_c, 0, 64, 67
1, 111769, Control_c, 0, 64, 70
1, 111779, Note_on_c, 0, 70, 69
1, 111784, Control_c, 0, 64, 71
1, 111799, Control_c, 0, 64, 72
1, 111846, Note_on_c, 0, 82, 69
1, 111856, Note_off_c, 0, 70, 61
1, 111880, Note_off_c, 0, 82, 63
1, 111902, Control_c, 0, 64, 71
1, 111917, Control_c, 0, 64, 70
1, 111932, Note_on_c, 0, 60, 80
1, 111932, Control_c, 0, 64, 67
1, 111937, Note_on_c, 0, 56, 75
1, 111946, Control_c, 0, 64, 63
1, 111961, Control_c, 0, 64, 59
1, 111976, Control_c, 0, 64, 54
1, 111987, Note_off_c, 0, 60, 60
1, 111991, Control_c, 0, 64, 50
1, 111994, Note_off_c, 0, 56, 52
1, 112006, Control_c, 0, 64, 46
1, 112022, Control_c, 0, 64, 43
1, 112023, Note_on_c, 0, 70, 72
1, 112037, Control_c, 0, 64, 40
1, 112051, Control_c, 0, 64, 36
1, 112066, Control_c, 0, 64, 34
1, 112080, Note_on_c, 0, 82, 74
1, 112081, Control_c, 0, 64, 30
1, 112088, Note_off_c, 0, 70, 63
1, 112095, Control_c, 0, 64, 27
1, 112110, Control_c, 0, 64, 23
1, 112125, Control_c, 0, 64, 19
1, 112127, Note_off_c, 0, 82, 61
1, 112140, Control_c, 0, 64, 16
1, 112155, Control_c, 0, 64, 12
1, 112170, Control_c, 0, 64, 0
1, 112176, Note_on_c, 0, 58, 78
1, 112180, Note_on_c, 0, 55, 72
1, 112231, Note_off_c, 0, 58, 61
1, 112234, Note_off_c, 0, 55, 54
1, 112259, Note_on_c, 0, 70, 80
1, 112328, Note_on_c, 0, 82, 75
1, 112331, Note_off_c, 0, 70, 62
1, 112377, Note_off_c, 0, 82, 62
1, 112433, Note_on_c, 0, 56, 80
1, 112436, Note_on_c, 0, 53, 68
1, 112467, Note_off_c, 0, 56, 65
1, 112469, Note_off_c, 0, 53, 66
1, 112504, Note_on_c, 0, 70, 79
1, 112563, Control_c, 0, 67, 8
1, 112577, Control_c, 0, 67, 8
1, 112583, Note_on_c, 0, 82, 79
1, 112602, Note_off_c, 0, 70, 60
1, 112607, Control_c, 0, 67, 9
1, 112656, Note_off_c, 0, 82, 63
1, 112680, Note_on_c, 0, 52, 85
1, 112681, Control_c, 0, 64, 28
1, 112688, Note_on_c, 0, 40, 78
1, 112695, Control_c, 0, 64, 51
1, 112695, Control_c, 0, 67, 8
1, 112710, Control_c, 0, 64, 60
1, 112725, Control_c, 0, 64, 64
1, 112725, Control_c, 0, 67, 8
1, 112735, Note_off_c, 0, 40, 61
1, 112740, Control_c, 0, 64, 67
1, 112740, Control_c, 0, 67, 0
1, 112742, Note_off_c, 0, 52, 62
1, 112755, Control_c, 0, 64, 71
1, 112769, Control_c, 0, 64, 74
1, 112784, Control_c, 0, 64, 76
1, 112799, Control_c, 0, 64, 78
1, 112804, Note_on_c, 0, 70, 74
1, 112815, Control_c, 0, 64, 78
1, 112883, Note_on_c, 0, 82, 71
1, 112891, Note_off_c, 0, 70, 60
1, 112939, Note_off_c, 0, 82, 60
1, 112987, Note_on_c, 0, 55, 84
1, 113072, Note_off_c, 0, 55, 59
1, 113091, Note_on_c, 0, 70, 75
1, 113164, Note_on_c, 0, 82, 70
1, 113166, Note_off_c, 0, 70, 62
1, 113193, Control_c, 0, 64, 78
1, 113199, Note_off_c, 0, 82, 61
1, 113242, Note_on_c, 0, 58, 87
1, 113297, Control_c, 0, 64, 77
1, 113314, Note_off_c, 0, 58, 62
1, 113336, Note_on_c, 0, 70, 76
1, 113404, Note_on_c, 0, 82, 73
1, 113404, Note_off_c, 0, 70, 61
1, 113442, Note_off_c, 0, 82, 58
1, 113488, Note_on_c, 0, 61, 87
1, 113519, Control_c, 0, 64, 77
1, 113575, Note_on_c, 0, 70, 78
1, 113583, Note_off_c, 0, 61, 59
1, 113639, Note_off_c, 0, 70, 59
1, 113654, Note_on_c, 0, 82, 71
1, 113687, Note_off_c, 0, 82, 62
1, 113735, Note_on_c, 0, 64, 87
1, 113823, Note_off_c, 0, 64, 62
1, 113836, Note_on_c, 0, 70, 72
1, 113911, Note_off_c, 0, 70, 60
1, 113914, Note_on_c, 0, 82, 63
1, 113963, Note_off_c, 0, 82, 52
1, 113988, Note_on_c, 0, 67, 86
1, 114048, Note_off_c, 0, 67, 65
1, 114074, Note_on_c, 0, 70, 68
1, 114105, Control_c, 0, 64, 76
1, 114134, Note_off_c, 0, 70, 58
1, 114149, Note_on_c, 0, 82, 66
1, 114164, Control_c, 0, 64, 75
1, 114179, Control_c, 0, 64, 75
1, 114183, Note_off_c, 0, 82, 64
1, 114194, Control_c, 0, 64, 74
1, 114209, Control_c, 0, 64, 73
1, 114224, Control_c, 0, 64, 71
1, 114233, Note_on_c, 0, 70, 91
1, 114239, Control_c, 0, 64, 69
1, 114239, Control_c, 0, 67, 8
1, 114254, Control_c, 0, 64, 68
1, 114254, Control_c, 0, 67, 11
1, 114268, Control_c, 0, 64, 66
1, 114268, Control_c, 0, 67, 13
1, 114283, Control_c, 0, 64, 64
1, 114283, Control_c, 0, 67, 14
1, 114289, Note_off_c, 0, 70, 65
1, 114298, Control_c, 0, 64, 63
1, 114298, Control_c, 0, 67, 16
1, 114313, Control_c, 0, 64, 61
1, 114313, Control_c, 0, 67, 18
1, 114316, Note_on_c, 0, 73, 68
1, 114328, Control_c, 0, 64, 60
1, 114328, Control_c, 0, 67, 19
1, 114342, Control_c, 0, 64, 59
1, 114357, Control_c, 0, 64, 59
1, 114387, Control_c, 0, 64, 58
1, 114388, Note_off_c, 0, 73, 58
1, 114402, Control_c, 0, 64, 58
1, 114402, Control_c, 0, 67, 20
1, 114404, Note_on_c, 0, 82, 58
1, 114418, Control_c, 0, 64, 57
1, 114433, Control_c, 0, 64, 56
1, 114447, Control_c, 0, 64, 54
1, 114462, Control_c, 0, 64, 53
1, 114470, Note_off_c, 0, 82, 55
1, 114477, Control_c, 0, 64, 52
1, 114477, Control_c, 0, 67, 20
1, 114484, Note_on_c, 0, 73, 86
1, 114491, Control_c, 0, 64, 51
1, 114506, Control_c, 0, 64, 50
1, 114521, Control_c, 0, 64, 49
1, 114529, Note_off_c, 0, 73, 67
1, 114536, Control_c, 0, 64, 48
1, 114558, Control_c, 0, 64, 46
1, 114558, Control_c, 0, 67, 21
1, 114573, Note_on_c, 0, 76, 59
1, 114573, Control_c, 0, 64, 44
1, 114588, Control_c, 0, 64, 43
1, 114602, Control_c, 0, 64, 43
1, 114617, Control_c, 0, 64, 42
1, 114617, Control_c, 0, 67, 20
1, 114632, Control_c, 0, 64, 40
1, 114643, Note_off_c, 0, 76, 63
1, 114647, Control_c, 0, 64, 37
1, 114656, Note_on_c, 0, 82, 58
1, 114662, Control_c, 0, 64, 33
1, 114662, Control_c, 0, 67, 20
1, 114677, Control_c, 0, 64, 30
1, 114677, Control_c, 0, 67, 19
1, 114691, Note_off_c, 0, 82, 64
1, 114691, Control_c, 0, 64, 26
1, 114691, Control_c, 0, 67, 19
1, 114706, Control_c, 0, 64, 20
1, 114706, Control_c, 0, 67, 18
1, 114721, Control_c, 0, 64, 10
1, 114721, Control_c, 0, 67, 18
1, 114731, Note_on_c, 0, 76, 85
1, 114736, Control_c, 0, 64, 0
1, 114751, Control_c, 0, 67, 17
1, 114765, Control_c, 0, 67, 17
1, 114769, Note_off_c, 0, 76, 64
1, 114780, Control_c, 0, 67, 16
1, 114795, Control_c, 0, 67, 16
1, 114807, Note_on_c, 0, 79, 73
1, 114810, Control_c, 0, 67, 15
1, 114825, Control_c, 0, 67, 14
1, 114850, Note_off_c, 0, 79, 62
1, 114854, Control_c, 0, 67, 14
1, 114869, Control_c, 0, 67, 13
1, 114885, Note_on_c, 0, 82, 63
1, 114912, Note_off_c, 0, 82, 67
1, 114966, Note_on_c, 0, 79, 83
1, 115011, Note_off_c, 0, 79, 65
1, 115049, Note_on_c, 0, 79, 61
1, 115112, Note_off_c, 0, 79, 63
1, 115127, Note_on_c, 0, 82, 66
1, 115157, Note_off_c, 0, 82, 65
1, 115205, Note_on_c, 0, 76, 80
1, 115209, Control_c, 0, 67, 14
1, 115253, Note_off_c, 0, 76, 62
1, 115297, Note_on_c, 0, 79, 73
1, 115366, Note_off_c, 0, 79, 61
1, 115369, Note_on_c, 0, 82, 67
1, 115401, Note_off_c, 0, 82, 63
1, 115443, Note_on_c, 0, 64, 81
1, 115482, Note_off_c, 0, 64, 65
1, 115532, Note_on_c, 0, 79, 65
1, 115582, Note_on_c, 0, 82, 57
1, 115591, Note_off_c, 0, 79, 60
1, 115615, Note_off_c, 0, 82, 65
1, 115691, Control_c, 0, 64, 19
1, 115693, Note_on_c, 0, 65, 84
1, 115702, Note_on_c, 0, 53, 68
1, 115706, Control_c, 0, 64, 48
1, 115706, Control_c, 0, 67, 13
1, 115720, Control_c, 0, 64, 58
1, 115735, Note_off_c, 0, 53, 65
1, 115735, Control_c, 0, 64, 63
1, 115735, Control_c, 0, 67, 13
1, 115749, Note_off_c, 0, 65, 64
1, 115750, Control_c, 0, 64, 65
1, 115750, Control_c, 0, 67, 12
1, 115765, Control_c, 0, 64, 69
1, 115778, Note_on_c, 0, 75, 70
1, 115780, Control_c, 0, 64, 72
1, 115780, Control_c, 0, 67, 12
1, 115795, Control_c, 0, 64, 75
1, 115810, Control_c, 0, 64, 77
1, 115825, Control_c, 0, 64, 77
1, 115825, Control_c, 0, 67, 11
1, 115846, Note_off_c, 0, 75, 64
1, 115851, Note_on_c, 0, 81, 63
1, 115885, Note_off_c, 0, 81, 64
1, 115943, Control_c, 0, 67, 11
1, 115944, Note_on_c, 0, 69, 86
1, 116018, Note_off_c, 0, 69, 62
1, 116018, Control_c, 0, 64, 77
1, 116045, Note_on_c, 0, 75, 78
1, 116055, Control_c, 0, 64, 76
1, 116084, Control_c, 0, 64, 76
1, 116116, Note_off_c, 0, 75, 65
1, 116118, Note_on_c, 0, 81, 72
1, 116129, Control_c, 0, 64, 75
1, 116157, Note_off_c, 0, 81, 61
1, 116158, Control_c, 0, 64, 75
1, 116188, Control_c, 0, 64, 74
1, 116198, Note_on_c, 0, 72, 88
1, 116218, Control_c, 0, 67, 10
1, 116257, Note_off_c, 0, 72, 65
1, 116277, Control_c, 0, 64, 74
1, 116290, Note_on_c, 0, 75, 78
1, 116350, Note_off_c, 0, 75, 64
1, 116358, Note_on_c, 0, 81, 72
1, 116397, Note_off_c, 0, 81, 56
1, 116425, Control_c, 0, 67, 10
1, 116439, Note_on_c, 0, 75, 88
1, 116440, Control_c, 0, 67, 9
1, 116469, Control_c, 0, 67, 9
1, 116486, Note_off_c, 0, 75, 64
1, 116499, Control_c, 0, 67, 8
1, 116527, Note_on_c, 0, 75, 66
1, 116543, Control_c, 0, 64, 73
1, 116582, Note_off_c, 0, 75, 63
1, 116585, Note_on_c, 0, 81, 72
1, 116629, Note_off_c, 0, 81, 60
1, 116676, Note_on_c, 0, 78, 83
1, 116692, Control_c, 0, 67, 9
1, 116707, Note_off_c, 0, 78, 63
1, 116722, Control_c, 0, 64, 73
1, 116736, Control_c, 0, 64, 72
1, 116751, Control_c, 0, 67, 9
1, 116766, Control_c, 0, 64, 72
1, 116773, Note_on_c, 0, 75, 74
1, 116802, Control_c, 0, 64, 71
1, 116802, Control_c, 0, 67, 10
1, 116831, Note_off_c, 0, 75, 62
1, 116834, Control_c, 0, 64, 71
1, 116838, Note_on_c, 0, 81, 68
1, 116848, Control_c, 0, 64, 70
1, 116848, Control_c, 0, 67, 10
1, 116863, Control_c, 0, 64, 70
1, 116863, Control_c, 0, 67, 11
1, 116873, Note_off_c, 0, 81, 61
1, 116878, Control_c, 0, 64, 69
1, 116892, Control_c, 0, 64, 67
1, 116892, Control_c, 0, 67, 11
1, 116907, Control_c, 0, 64, 66
1, 116907, Control_c, 0, 67, 12
1, 116922, Control_c, 0, 64, 64
1, 116922, Control_c, 0, 67, 12
1, 116928, Note_on_c, 0, 75, 86
1, 116937, Control_c, 0, 64, 61
1, 116952, Control_c, 0, 64, 58
1, 116952, Control_c, 0, 67, 13
1, 116961, Note_off_c, 0, 75, 64
1, 116966, Control_c, 0, 64, 55
1, 116966, Control_c, 0, 67, 13
1, 116981, Control_c, 0, 64, 51
1, 116996, Control_c, 0, 64, 48
1, 116996, Control_c, 0, 67, 14
1, 117011, Control_c, 0, 64, 44
1, 117012, Note_on_c, 0, 75, 68
1, 117026, Control_c, 0, 64, 41
1, 117041, Control_c, 0, 64, 36
1, 117056, Control_c, 0, 64, 32
1, 117071, Control_c, 0, 64, 28
1, 117071, Control_c, 0, 67, 14
1, 117073, Note_off_c, 0, 75, 64
1, 117086, Note_on_c, 0, 81, 60
1, 117086, Control_c, 0, 64, 24
1, 117100, Control_c, 0, 64, 22
1, 117114, Note_off_c, 0, 81, 66
1, 117115, Control_c, 0, 64, 21
1, 117130, Control_c, 0, 64, 19
1, 117145, Control_c, 0, 64, 17
1, 117154, Note_on_c, 0, 72, 77
1, 117160, Control_c, 0, 64, 13
1, 117174, Control_c, 0, 64, 11
1, 117189, Control_c, 0, 64, 10
1, 117189, Control_c, 0, 67, 15
1, 117199, Note_off_c, 0, 72, 58
1, 117204, Control_c, 0, 64, 9
1, 117245, Note_on_c, 0, 75, 76
1, 117279, Control_c, 0, 67, 14
1, 117309, Note_off_c, 0, 75, 64
1, 117327, Note_on_c, 0, 81, 57
1, 117358, Note_off_c, 0, 81, 66
1, 117390, Note_on_c, 0, 65, 73
1, 117413, Note_off_c, 0, 65, 67
1, 117482, Note_on_c, 0, 75, 70
1, 117500, Control_c, 0, 67, 15
1, 117515, Control_c, 0, 64, 0
1, 117555, Note_on_c, 0, 81, 63
1, 117556, Note_off_c, 0, 75, 65
1, 117589, Note_off_c, 0, 81, 62
1, 117652, Note_on_c, 0, 58, 68
1, 117658, Control_c, 0, 64, 35
1, 117659, Note_on_c, 0, 46, 72
1, 117672, Control_c, 0, 64, 51
1, 117672, Control_c, 0, 67, 14
1, 117687, Control_c, 0, 64, 59
1, 117690, Note_off_c, 0, 46, 67
1, 117698, Note_off_c, 0, 58, 64
1, 117702, Control_c, 0, 64, 62
1, 117716, Control_c, 0, 64, 63
1, 117731, Control_c, 0, 64, 65
1, 117731, Control_c, 0, 67, 14
1, 117746, Control_c, 0, 64, 66
1, 117746, Control_c, 0, 67, 13
1, 117761, Control_c, 0, 64, 67
1, 117762, Note_on_c, 0, 74, 62
1, 117776, Control_c, 0, 64, 68
1, 117776, Control_c, 0, 67, 13
1, 117805, Control_c, 0, 64, 69
1, 117805, Control_c, 0, 67, 12
1, 117814, Note_off_c, 0, 74, 55
1, 117820, Control_c, 0, 64, 69
1, 117840, Note_on_c, 0, 80, 51
1, 117849, Control_c, 0, 64, 70
1, 117862, Note_off_c, 0, 80, 59
1, 117864, Control_c, 0, 64, 70
1, 117935, Note_on_c, 0, 62, 75
1, 118012, Note_off_c, 0, 62, 59
1, 118023, Note_on_c, 0, 74, 60
1, 118087, Note_on_c, 0, 80, 66
1, 118087, Note_off_c, 0, 74, 60
1, 118115, Note_off_c, 0, 80, 65
1, 118153, Note_on_c, 0, 65, 82
1, 118176, Control_c, 0, 67, 13
1, 118190, Control_c, 0, 67, 14
1, 118205, Control_c, 0, 67, 15
1, 118209, Note_off_c, 0, 65, 64
1, 118220, Control_c, 0, 67, 17
1, 118234, Control_c, 0, 67, 18
1, 118238, Note_on_c, 0, 74, 69
1, 118249, Control_c, 0, 67, 20
1, 118264, Control_c, 0, 67, 21
1, 118279, Control_c, 0, 67, 22
1, 118302, Control_c, 0, 67, 25
1, 118316, Control_c, 0, 67, 33
1, 118326, Note_off_c, 0, 74, 64
1, 118326, Note_on_c, 0, 80, 67
1, 118331, Control_c, 0, 67, 40
1, 118346, Control_c, 0, 67, 45
1, 118355, Note_off_c, 0, 80, 63
1, 118361, Control_c, 0, 67, 49
1, 118376, Control_c, 0, 67, 51
1, 118390, Control_c, 0, 67, 53
1, 118405, Note_on_c, 0, 68, 84
1, 118405, Control_c, 0, 67, 53
1, 118421, Control_c, 0, 67, 54
1, 118436, Control_c, 0, 67, 55
1, 118451, Control_c, 0, 64, 70
1, 118451, Control_c, 0, 67, 57
1, 118465, Control_c, 0, 67, 58
1, 118478, Note_off_c, 0, 68, 60
1, 118480, Control_c, 0, 64, 69
1, 118480, Control_c, 0, 67, 60
1, 118488, Note_on_c, 0, 74, 64
1, 118495, Control_c, 0, 67, 62
1, 118510, Control_c, 0, 67, 64
1, 118525, Control_c, 0, 64, 69
1, 118525, Control_c, 0, 67, 66
1, 118539, Control_c, 0, 67, 69
1, 118554, Control_c, 0, 64, 68
1, 118554, Control_c, 0, 67, 72
1, 118556, Note_off_c, 0, 74, 62
1, 118559, Note_on_c, 0, 80, 65
1, 118569, Control_c, 0, 67, 76
1, 118584, Control_c, 0, 64, 68
1, 118584, Control_c, 0, 67, 79
1, 118591, Note_off_c, 0, 80, 63
1, 118599, Control_c, 0, 67, 81
1, 118613, Control_c, 0, 64, 67
1, 118613, Control_c, 0, 67, 82
1, 118643, Control_c, 0, 64, 67
1, 118643, Control_c, 0, 67, 83
1, 118655, Note_on_c, 0, 71, 72
1, 118658, Control_c, 0, 64, 66
1, 118658, Control_c, 0, 67, 83
1, 118672, Control_c, 0, 64, 66
1, 118672, Control_c, 0, 67, 84
1, 118687, Control_c, 0, 64, 65
1, 118687, Control_c, 0, 67, 86
1, 118702, Control_c, 0, 64, 64
1, 118702, Control_c, 0, 67, 88
1, 118717, Note_off_c, 0, 71, 60
1, 118717, Control_c, 0, 64, 63
1, 118717, Control_c, 0, 67, 89
1, 118732, Control_c, 0, 64, 61
1, 118732, Control_c, 0, 67, 90
1, 118734, Note_on_c, 0, 74, 64
1, 118746, Control_c, 0, 64, 59
1, 118746, Control_c, 0, 67, 91
1, 118761, Control_c, 0, 64, 57
1, 118761, Control_c, 0, 67, 93
1, 118776, Control_c, 0, 64, 55
1, 118776, Control_c, 0, 67, 95
1, 118789, Note_off_c, 0, 74, 62
1, 118791, Control_c, 0, 64, 53
1, 118791, Control_c, 0, 67, 97
1, 118797, Note_on_c, 0, 80, 57
1, 118805, Control_c, 0, 64, 51
1, 118805, Control_c, 0, 67, 98
1, 118820, Control_c, 0, 64, 47
1, 118820, Control_c, 0, 67, 99
1, 118826, Note_off_c, 0, 80, 65
1, 118835, Control_c, 0, 64, 42
1, 118835, Control_c, 0, 67, 100
1, 118850, Control_c, 0, 64, 36
1, 118850, Control_c, 0, 67, 102
1, 118864, Control_c, 0, 64, 30
1, 118864, Control_c, 0, 67, 104
1, 118879, Control_c, 0, 64, 25
1, 118879, Control_c, 0, 67, 105
1, 118882, Note_on_c, 0, 68, 65
1, 118894, Control_c, 0, 64, 22
1, 118894, Control_c, 0, 67, 106
1, 118909, Control_c, 0, 64, 16
1, 118909, Control_c, 0, 67, 106
1, 118913, Note_off_c, 0, 68, 66
1, 118924, Control_c, 0, 64, 0
1, 118924, Control_c, 0, 67, 107
1, 118938, Control_c, 0, 67, 108
1, 118973, Note_on_c, 0, 74, 63
1, 119039, Note_off_c, 0, 74, 60
1, 119050, Note_on_c, 0, 80, 58
1, 119080, Note_off_c, 0, 80, 65
1, 119148, Note_on_c, 0, 65, 47
1, 119151, Note_on_c, 0, 67, 31
1, 119174, Note_off_c, 0, 65, 56
1, 119183, Control_c, 0, 67, 107
1, 119184, Note_off_c, 0, 67, 44
1, 119214, Control_c, 0, 67, 107
1, 119226, Note_on_c, 0, 74, 59
1, 119229, Control_c, 0, 67, 106
1, 119258, Control_c, 0, 67, 106
1, 119280, Note_off_c, 0, 74, 60
1, 119287, Control_c, 0, 67, 105
1, 119296, Note_on_c, 0, 80, 54
1, 119325, Note_off_c, 0, 80, 61
1, 119350, Note_on_c, 0, 58, 63
1, 119375, Note_off_c, 0, 58, 68
1, 119452, Note_on_c, 0, 74, 60
1, 119465, Control_c, 0, 67, 106
1, 119505, Note_off_c, 0, 74, 58
1, 119521, Note_on_c, 0, 80, 54
1, 119539, Control_c, 0, 67, 105
1, 119542, Note_off_c, 0, 80, 62
1, 119569, Control_c, 0, 67, 105
1, 119584, Control_c, 0, 67, 104
1, 119598, Control_c, 0, 64, 22
1, 119598, Control_c, 0, 67, 103
1, 119605, Note_on_c, 0, 63, 66
1, 119609, Note_on_c, 0, 51, 53
1, 119613, Control_c, 0, 64, 47
1, 119613, Control_c, 0, 67, 102
1, 119628, Control_c, 0, 64, 58
1, 119628, Control_c, 0, 67, 102
1, 119637, Note_off_c, 0, 63, 67
1, 119640, Note_off_c, 0, 51, 66
1, 119643, Control_c, 0, 64, 62
1, 119643, Control_c, 0, 67, 101
1, 119658, Control_c, 0, 64, 63
1, 119673, Control_c, 0, 64, 65
1, 119673, Control_c, 0, 67, 101
1, 119687, Control_c, 0, 64, 67
1, 119689, Note_on_c, 0, 75, 59
1, 119702, Control_c, 0, 64, 69
1, 119717, Control_c, 0, 64, 70
1, 119717, Control_c, 0, 67, 100
1, 119749, Note_off_c, 0, 75, 60
1, 119759, Note_on_c, 0, 78, 57
1, 119786, Note_off_c, 0, 78, 62
1, 119828, Control_c, 0, 67, 100
1, 119838, Note_on_c, 0, 63, 69
1, 119843, Control_c, 0, 64, 69
1, 119858, Control_c, 0, 64, 67
1, 119873, Control_c, 0, 64, 64
1, 119887, Control_c, 0, 64, 59
1, 119902, Control_c, 0, 64, 51
1, 119906, Note_off_c, 0, 63, 58
1, 119917, Control_c, 0, 64, 43
1, 119932, Control_c, 0, 64, 37
1, 119932, Control_c, 0, 67, 100
1, 119941, Note_on_c, 0, 75, 65
1, 119947, Control_c, 0, 64, 33
1, 119961, Control_c, 0, 64, 29
1, 119976, Control_c, 0, 64, 24
1, 119976, Control_c, 0, 67, 101
1, 119991, Control_c, 0, 64, 19
1, 119997, Note_off_c, 0, 75, 60
1, 120004, Note_on_c, 0, 78, 59
1, 120006, Control_c, 0, 64, 17
1, 120006, Control_c, 0, 67, 101
1, 120022, Control_c, 0, 64, 16
1, 120034, Note_off_c, 0, 78, 63
1, 120037, Control_c, 0, 64, 13
1, 120052, Control_c, 0, 64, 9
1, 120066, Control_c, 0, 64, 0
1, 120066, Control_c, 0, 67, 102
1, 120083, Note_on_c, 0, 66, 64
1, 120096, Control_c, 0, 67, 102
1, 120110, Note_off_c, 0, 66, 67
1, 120164, Note_on_c, 0, 75, 64
1, 120212, Note_off_c, 0, 75, 62
1, 120224, Note_on_c, 0, 78, 62
1, 120228, Control_c, 0, 67, 102
1, 120243, Control_c, 0, 67, 101
1, 120248, Note_off_c, 0, 78, 64
1, 120274, Control_c, 0, 67, 101
1, 120304, Control_c, 0, 67, 100
1, 120318, Note_on_c, 0, 70, 60
1, 120333, Control_c, 0, 67, 100
1, 120341, Note_off_c, 0, 70, 65
1, 120391, Note_on_c, 0, 75, 51
1, 120437, Note_off_c, 0, 75, 64
1, 120448, Note_on_c, 0, 78, 58
1, 120467, Note_off_c, 0, 78, 63
1, 120496, Control_c, 0, 67, 99
1, 120525, Control_c, 0, 67, 99
1, 120548, Control_c, 0, 67, 98
1, 120563, Control_c, 0, 67, 98
1, 120578, Control_c, 0, 67, 97
1, 120592, Control_c, 0, 67, 96
1, 120598, Note_on_c, 0, 78, 49
1, 120604, Note_on_c, 0, 82, 67
1, 120607, Control_c, 0, 64, 29
1, 120607, Control_c, 0, 67, 95
1, 120622, Control_c, 0, 64, 45
1, 120622, Control_c, 0, 67, 95
1, 120636, Control_c, 0, 64, 52
1, 120636, Control_c, 0, 67, 94
1, 120651, Control_c, 0, 64, 56
1, 120651, Control_c, 0, 67, 93
1, 120666, Control_c, 0, 64, 59
1, 120681, Control_c, 0, 64, 61
1, 120681, Control_c, 0, 67, 93
1, 120696, Control_c, 0, 64, 63
1, 120703, Note_on_c, 0, 75, 63
1, 120710, Control_c, 0, 64, 65
1, 120725, Control_c, 0, 64, 66
1, 120740, Control_c, 0, 64, 67
1, 120743, Note_off_c, 0, 75, 63
1, 120762, Note_off_c, 0, 78, 54
1, 120783, Note_on_c, 0, 63, 56
1, 120806, Note_off_c, 0, 82, 60
1, 120807, Note_off_c, 0, 63, 62
1, 120815, Control_c, 0, 64, 66
1, 120830, Control_c, 0, 64, 65
1, 120845, Control_c, 0, 64, 64
1, 120845, Control_c, 0, 67, 93
1, 120859, Control_c, 0, 64, 62
1, 120868, Note_on_c, 0, 83, 77
1, 120874, Control_c, 0, 64, 60
1, 120874, Control_c, 0, 67, 94
1, 120876, Note_on_c, 0, 80, 59
1, 120889, Control_c, 0, 64, 57
1, 120904, Control_c, 0, 64, 55
1, 120904, Control_c, 0, 67, 94
1, 120919, Control_c, 0, 64, 54
1, 120934, Control_c, 0, 64, 52
1, 120944, Note_off_c, 0, 80, 55
1, 120949, Control_c, 0, 64, 51
1, 120964, Control_c, 0, 64, 48
1, 120973, Note_on_c, 0, 75, 61
1, 120979, Note_off_c, 0, 83, 64
1, 120979, Control_c, 0, 64, 44
1, 120993, Control_c, 0, 64, 36
1, 121006, Control_c, 0, 64, 21
1, 121006, Control_c, 0, 67, 95
1, 121010, Note_off_c, 0, 75, 61
1, 121021, Control_c, 0, 64, 0
1, 121041, Note_on_c, 0, 63, 55
1, 121065, Note_off_c, 0, 63, 60
1, 121110, Control_c, 0, 67, 94
1, 121123, Note_on_c, 0, 82, 70
1, 121125, Control_c, 0, 64, 30
1, 121136, Note_on_c, 0, 78, 63
1, 121140, Control_c, 0, 64, 47
1, 121154, Control_c, 0, 64, 56
1, 121169, Control_c, 0, 64, 60
1, 121169, Control_c, 0, 67, 94
1, 121184, Control_c, 0, 64, 62
1, 121199, Control_c, 0, 64, 63
1, 121205, Note_off_c, 0, 78, 46
1, 121214, Control_c, 0, 64, 64
1, 121214, Note_on_c, 0, 75, 59
1, 121229, Control_c, 0, 64, 64
1, 121229, Control_c, 0, 67, 93
1, 121230, Note_off_c, 0, 82, 55
1, 121255, Note_off_c, 0, 75, 63
1, 121295, Control_c, 0, 64, 64
1, 121308, Note_on_c, 0, 63, 54
1, 121310, Control_c, 0, 64, 63
1, 121325, Control_c, 0, 64, 60
1, 121325, Control_c, 0, 67, 94
1, 121339, Control_c, 0, 64, 57
1, 121340, Note_off_c, 0, 63, 64
1, 121354, Control_c, 0, 64, 55
1, 121369, Control_c, 0, 64, 52
1, 121369, Control_c, 0, 67, 93
1, 121379, Note_on_c, 0, 80, 64
1, 121384, Control_c, 0, 64, 50
1, 121399, Control_c, 0, 64, 47
1, 121402, Note_on_c, 0, 77, 49
1, 121414, Control_c, 0, 64, 45
1, 121417, Note_off_c, 0, 80, 60
1, 121429, Control_c, 0, 64, 43
1, 121429, Note_off_c, 0, 77, 58
1, 121444, Control_c, 0, 64, 41
1, 121444, Control_c, 0, 67, 93
1, 121458, Control_c, 0, 64, 39
1, 121458, Control_c, 0, 67, 92
1, 121473, Control_c, 0, 64, 36
1, 121473, Note_on_c, 0, 75, 48
1, 121488, Control_c, 0, 64, 34
1, 121488, Control_c, 0, 67, 92
1, 121497, Note_off_c, 0, 75, 59
1, 121503, Control_c, 0, 64, 30
1, 121503, Control_c, 0, 67, 91
1, 121518, Control_c, 0, 64, 27
1, 121518, Control_c, 0, 67, 89
1, 121532, Control_c, 0, 64, 25
1, 121532, Control_c, 0, 67, 88
1, 121540, Note_on_c, 0, 63, 62
1, 121547, Control_c, 0, 64, 23
1, 121562, Control_c, 0, 64, 21
1, 121568, Note_off_c, 0, 63, 67
1, 121577, Control_c, 0, 64, 18
1, 121592, Control_c, 0, 64, 16
1, 121608, Control_c, 0, 64, 13
1, 121622, Control_c, 0, 64, 13
1, 121637, Note_on_c, 0, 63, 72
1, 121637, Control_c, 0, 64, 12
1, 121652, Control_c, 0, 64, 8
1, 121667, Control_c, 0, 64, 0
1, 121667, Note_off_c, 0, 63, 65
1, 121681, Control_c, 0, 67, 87
1, 121724, Note_on_c, 0, 75, 58
1, 121765, Note_off_c, 0, 75, 63
1, 121770, Control_c, 0, 67, 87
1, 121776, Note_on_c, 0, 78, 57
1, 121795, Note_off_c, 0, 78, 62
1, 121829, Control_c, 0, 67, 86
1, 121859, Control_c, 0, 67, 85
1, 121883, Note_on_c, 0, 66, 72
1, 121903, Control_c, 0, 67, 85
1, 121913, Note_off_c, 0, 66, 66
1, 121962, Control_c, 0, 67, 85
1, 121971, Note_on_c, 0, 75, 61
1, 122007, Control_c, 0, 64, 8
1, 122022, Control_c, 0, 64, 9
1, 122022, Control_c, 0, 67, 86
1, 122044, Control_c, 0, 64, 10
1, 122047, Note_on_c, 0, 78, 59
1, 122050, Note_off_c, 0, 75, 64
1, 122082, Note_off_c, 0, 78, 63
1, 122157, Note_on_c, 0, 70, 60
1, 122196, Note_off_c, 0, 70, 59
1, 122237, Control_c, 0, 64, 11
1, 122245, Note_on_c, 0, 75, 60
1, 122251, Control_c, 0, 67, 86
1, 122266, Control_c, 0, 64, 12
1, 122281, Control_c, 0, 64, 12
1, 122298, Note_off_c, 0, 75, 59
1, 122305, Note_on_c, 0, 78, 65
1, 122311, Control_c, 0, 64, 13
1, 122334, Note_off_c, 0, 78, 66
1, 122407, Note_on_c, 0, 75, 76
1, 122432, Note_off_c, 0, 75, 69
1, 122460, Control_c, 0, 67, 86
1, 122504, Control_c, 0, 67, 85
1, 122507, Note_on_c, 0, 75, 67
1, 122564, Note_on_c, 0, 78, 52
1, 122569, Note_off_c, 0, 75, 65
1, 122584, Note_off_c, 0, 78, 62
1, 122638, Control_c, 0, 64, 12
1, 122652, Control_c, 0, 64, 8
1, 122667, Control_c, 0, 64, 0
1, 122712, Note_on_c, 0, 82, 69
1, 122719, Note_on_c, 0, 78, 47
1, 122808, Control_c, 0, 64, 36
1, 122823, Control_c, 0, 64, 51
1, 122824, Note_on_c, 0, 75, 44
1, 122837, Control_c, 0, 64, 58
1, 122852, Control_c, 0, 64, 60
1, 122854, Note_off_c, 0, 75, 58
1, 122867, Control_c, 0, 64, 62
1, 122882, Control_c, 0, 64, 63
1, 122897, Control_c, 0, 64, 65
1, 122907, Note_on_c, 0, 63, 50
1, 122911, Control_c, 0, 64, 66
1, 122926, Control_c, 0, 67, 86
1, 122931, Note_off_c, 0, 63, 60
1, 122936, Note_off_c, 0, 78, 54
1, 122941, Control_c, 0, 67, 87
1, 122956, Control_c, 0, 67, 89
1, 122971, Control_c, 0, 64, 65
1, 122971, Control_c, 0, 67, 91
1, 122985, Control_c, 0, 64, 63
1, 122985, Control_c, 0, 67, 93
1, 122996, Note_off_c, 0, 82, 57
1, 123000, Control_c, 0, 64, 59
1, 123000, Control_c, 0, 67, 95
1, 123015, Control_c, 0, 64, 53
1, 123015, Control_c, 0, 67, 97
1, 123016, Note_on_c, 0, 83, 68
1, 123023, Note_on_c, 0, 80, 55
1, 123029, Control_c, 0, 64, 46
1, 123029, Control_c, 0, 67, 98
1, 123044, Control_c, 0, 64, 40
1, 123044, Control_c, 0, 67, 100
1, 123059, Control_c, 0, 64, 36
1, 123059, Control_c, 0, 67, 101
1, 123074, Control_c, 0, 64, 31
1, 123074, Control_c, 0, 67, 103
1, 123089, Control_c, 0, 64, 25
1, 123089, Control_c, 0, 67, 105
1, 123094, Note_off_c, 0, 80, 54
1, 123104, Control_c, 0, 64, 18
1, 123104, Control_c, 0, 67, 108
1, 123113, Note_off_c, 0, 83, 63
1, 123119, Control_c, 0, 64, 13
1, 123119, Control_c, 0, 67, 110
1, 123122, Note_on_c, 0, 75, 49
1, 123134, Control_c, 0, 64, 9
1, 123134, Control_c, 0, 67, 111
1, 123149, Note_off_c, 0, 75, 62
1, 123149, Control_c, 0, 64, 0
1, 123149, Control_c, 0, 67, 112
1, 123191, Note_on_c, 0, 63, 47
1, 123218, Note_off_c, 0, 63, 60
1, 123268, Control_c, 0, 67, 113
1, 123281, Note_on_c, 0, 82, 63
1, 123283, Control_c, 0, 67, 114
1, 123292, Note_on_c, 0, 78, 56
1, 123298, Control_c, 0, 67, 116
1, 123313, Control_c, 0, 67, 117
1, 123327, Control_c, 0, 67, 118
1, 123342, Control_c, 0, 67, 118
1, 123345, Note_off_c, 0, 78, 51
1, 123357, Control_c, 0, 67, 119
1, 123363, Note_off_c, 0, 82, 57
1, 123364, Note_on_c, 0, 75, 62
1, 123372, Control_c, 0, 67, 119
1, 123387, Control_c, 0, 67, 120
1, 123399, Note_off_c, 0, 75, 65
1, 123446, Control_c, 0, 67, 120
1, 123456, Note_on_c, 0, 63, 48
1, 123460, Control_c, 0, 67, 121
1, 123475, Control_c, 0, 67, 122
1, 123482, Note_off_c, 0, 63, 59
1, 123490, Control_c, 0, 67, 122
1, 123505, Control_c, 0, 67, 123
1, 123520, Control_c, 0, 67, 124
1, 123542, Control_c, 0, 67, 125
1, 123542, Note_on_c, 0, 80, 54
1, 123557, Note_on_c, 0, 77, 53
1, 123557, Control_c, 0, 67, 126
1, 123572, Control_c, 0, 67, 127
1, 123592, Note_off_c, 0, 80, 56
1, 123600, Note_off_c, 0, 77, 62
1, 123626, Note_on_c, 0, 75, 50
1, 123652, Note_off_c, 0, 75, 62
1, 123715, Note_on_c, 0, 63, 52
1, 123738, Note_off_c, 0, 63, 60
1, 123815, Note_on_c, 0, 63, 59
1, 123835, Note_off_c, 0, 63, 64
1, 123885, Note_on_c, 0, 75, 53
1, 123949, Note_off_c, 0, 75, 58
1, 123964, Note_on_c, 0, 78, 52
1, 123986, Control_c, 0, 67, 127
1, 123987, Note_off_c, 0, 78, 59
1, 124003, Control_c, 0, 67, 126
1, 124018, Control_c, 0, 67, 126
1, 124063, Note_on_c, 0, 70, 60
1, 124076, Control_c, 0, 67, 125
1, 124089, Note_off_c, 0, 70, 65
1, 124121, Control_c, 0, 67, 125
1, 124162, Note_on_c, 0, 75, 55
1, 124165, Control_c, 0, 67, 124
1, 124212, Note_off_c, 0, 75, 60
1, 124214, Note_on_c, 0, 78, 56
1, 124225, Control_c, 0, 67, 124
1, 124253, Note_off_c, 0, 78, 62
1, 124309, Note_on_c, 0, 63, 52
1, 124335, Note_off_c, 0, 63, 62
1, 124417, Note_on_c, 0, 75, 55
1, 124469, Note_off_c, 0, 75, 60
1, 124469, Control_c, 0, 67, 123
1, 124472, Note_on_c, 0, 78, 60
1, 124508, Note_off_c, 0, 78, 61
1, 124565, Note_on_c, 0, 70, 54
1, 124585, Note_off_c, 0, 70, 63
1, 124632, Control_c, 0, 67, 123
1, 124668, Note_on_c, 0, 75, 56
1, 124713, Note_off_c, 0, 75, 63
1, 124719, Note_on_c, 0, 78, 59
1, 124754, Note_off_c, 0, 78, 62
1, 124815, Note_on_c, 0, 63, 45
1, 124842, Note_off_c, 0, 63, 58
1, 124898, Note_on_c, 0, 73, 55
1, 124964, Note_on_c, 0, 79, 53
1, 124967, Note_off_c, 0, 73, 55
1, 125004, Note_off_c, 0, 79, 60
1, 125074, Note_on_c, 0, 70, 58
1, 125098, Note_off_c, 0, 70, 64
1, 125150, Note_on_c, 0, 73, 53
1, 125174, Control_c, 0, 67, 123
1, 125188, Control_c, 0, 64, 8
1, 125224, Note_off_c, 0, 73, 60
1, 125230, Note_on_c, 0, 79, 50
1, 125232, Control_c, 0, 64, 9
1, 125262, Note_off_c, 0, 79, 56
1, 125307, Control_c, 0, 64, 10
1, 125316, Note_on_c, 0, 63, 45
1, 125351, Note_off_c, 0, 63, 55
1, 125366, Control_c, 0, 64, 11
1, 125396, Control_c, 0, 64, 12
1, 125401, Note_on_c, 0, 73, 57
1, 125425, Control_c, 0, 64, 12
1, 125440, Control_c, 0, 64, 13
1, 125465, Note_off_c, 0, 73, 61
1, 125470, Note_on_c, 0, 79, 56
1, 125470, Control_c, 0, 64, 13
1, 125498, Control_c, 0, 64, 14
1, 125508, Note_off_c, 0, 79, 60
1, 125558, Note_on_c, 0, 70, 58
1, 125587, Control_c, 0, 64, 15
1, 125590, Note_off_c, 0, 70, 63
1, 125633, Control_c, 0, 64, 15
1, 125643, Note_on_c, 0, 73, 51
1, 125662, Control_c, 0, 64, 16
1, 125692, Control_c, 0, 64, 16
1, 125712, Note_off_c, 0, 73, 62
1, 125718, Note_on_c, 0, 79, 50
1, 125745, Note_off_c, 0, 79, 58
1, 125818, Control_c, 0, 64, 17
1, 125819, Note_on_c, 0, 63, 31
1, 125855, Note_off_c, 0, 63, 52
1, 125889, Note_on_c, 0, 71, 46
1, 125892, Control_c, 0, 64, 17
1, 125921, Control_c, 0, 64, 18
1, 125921, Control_c, 0, 67, 124
1, 125933, Note_off_c, 0, 71, 44
1, 125966, Note_on_c, 0, 80, 48
1, 125981, Control_c, 0, 64, 18
1, 125981, Control_c, 0, 67, 124
1, 125996, Note_off_c, 0, 80, 52
1, 126010, Control_c, 0, 67, 125
1, 126025, Control_c, 0, 64, 19
1, 126046, Note_on_c, 0, 68, 55
1, 126070, Control_c, 0, 67, 125
1, 126082, Note_off_c, 0, 68, 64
1, 126085, Control_c, 0, 64, 19
1, 126144, Note_on_c, 0, 71, 51
1, 126194, Note_off_c, 0, 71, 57
1, 126212, Note_on_c, 0, 80, 49
1, 126218, Control_c, 0, 67, 126
1, 126250, Note_off_c, 0, 80, 59
1, 126288, Note_on_c, 0, 63, 44
1, 126332, Note_off_c, 0, 63, 56
1, 126373, Note_on_c, 0, 71, 54
1, 126428, Note_off_c, 0, 71, 53
1, 126468, Note_on_c, 0, 80, 42
1, 126508, Note_off_c, 0, 80, 51
1, 126535, Note_on_c, 0, 68, 52
1, 126567, Note_off_c, 0, 68, 60
1, 126567, Control_c, 0, 64, 20
1, 126612, Control_c, 0, 64, 20
1, 126618, Note_on_c, 0, 71, 49
1, 126641, Control_c, 0, 64, 21
1, 126666, Note_off_c, 0, 71, 53
1, 126682, Note_on_c, 0, 80, 50
1, 126710, Note_off_c, 0, 80, 59
1, 126715, Control_c, 0, 64, 21
1, 126774, Control_c, 0, 67, 125
1, 126780, Note_on_c, 0, 63, 39
1, 126813, Note_off_c, 0, 63, 54
1, 126833, Control_c, 0, 64, 22
1, 126860, Note_on_c, 0, 72, 52
1, 126934, Note_off_c, 0, 72, 57
1, 126938, Note_on_c, 0, 78, 43
1, 126967, Note_off_c, 0, 78, 53
1, 127010, Note_on_c, 0, 69, 55
1, 127026, Control_c, 0, 67, 125
1, 127056, Note_off_c, 0, 69, 59
1, 127071, Control_c, 0, 64, 22
1, 127095, Note_on_c, 0, 72, 52
1, 127169, Note_off_c, 0, 72, 59
1, 127184, Note_on_c, 0, 78, 47
1, 127212, Note_off_c, 0, 78, 55
1, 127242, Note_on_c, 0, 63, 53
1, 127249, Control_c, 0, 64, 23
1, 127285, Note_off_c, 0, 63, 60
1, 127332, Note_on_c, 0, 72, 56
1, 127413, Note_off_c, 0, 72, 60
1, 127423, Note_on_c, 0, 78, 41
1, 127454, Note_off_c, 0, 78, 52
1, 127494, Note_on_c, 0, 69, 54
1, 127525, Note_off_c, 0, 69, 57
1, 127553, Control_c, 0, 64, 23
1, 127572, Note_on_c, 0, 72, 48
1, 127597, Control_c, 0, 64, 24
1, 127626, Control_c, 0, 64, 24
1, 127647, Note_off_c, 0, 72, 54
1, 127649, Note_on_c, 0, 78, 45
1, 127677, Note_off_c, 0, 78, 54
1, 127715, Control_c, 0, 67, 124
1, 127730, Note_on_c, 0, 61, 45
1, 127758, Note_off_c, 0, 61, 57
1, 127802, Note_on_c, 0, 73, 51
1, 127805, Control_c, 0, 67, 125
1, 127885, Note_off_c, 0, 73, 58
1, 127891, Note_on_c, 0, 77, 39
1, 127919, Note_off_c, 0, 77, 56
1, 127978, Note_on_c, 0, 70, 43
1, 128008, Note_off_c, 0, 70, 55
1, 128052, Note_on_c, 0, 73, 49
1, 128135, Note_off_c, 0, 73, 60
1, 128141, Note_on_c, 0, 77, 52
1, 128163, Note_off_c, 0, 77, 61
1, 128210, Note_on_c, 0, 61, 52
1, 128238, Note_off_c, 0, 61, 61
1, 128310, Note_on_c, 0, 73, 50
1, 128318, Control_c, 0, 64, 25
1, 128375, Note_on_c, 0, 77, 43
1, 128377, Note_off_c, 0, 73, 57
1, 128392, Control_c, 0, 67, 124
1, 128406, Note_off_c, 0, 77, 56
1, 128455, Note_on_c, 0, 70, 56
1, 128490, Note_off_c, 0, 70, 62
1, 128535, Note_on_c, 0, 73, 44
1, 128599, Note_on_c, 0, 77, 48
1, 128619, Note_off_c, 0, 73, 57
1, 128631, Note_off_c, 0, 77, 60
1, 128695, Note_on_c, 0, 66, 53
1, 128720, Note_off_c, 0, 66, 59
1, 128776, Note_on_c, 0, 73, 45
1, 128848, Note_on_c, 0, 76, 53
1, 128848, Note_off_c, 0, 73, 59
1, 128876, Note_off_c, 0, 76, 62
1, 128941, Note_on_c, 0, 70, 52
1, 128979, Note_off_c, 0, 70, 59
1, 129012, Note_on_c, 0, 73, 45
1, 129087, Note_on_c, 0, 76, 54
1, 129096, Note_off_c, 0, 73, 57
1, 129128, Note_off_c, 0, 76, 59
1, 129189, Note_on_c, 0, 66, 42
1, 129218, Note_off_c, 0, 66, 55
1, 129257, Note_on_c, 0, 73, 52
1, 129329, Note_off_c, 0, 73, 63
1, 129341, Note_on_c, 0, 76, 55
1, 129383, Note_off_c, 0, 76, 60
1, 129407, Note_on_c, 0, 70, 56
1, 129444, Note_off_c, 0, 70, 61
1, 129480, Control_c, 0, 64, 25
1, 129499, Note_on_c, 0, 73, 49
1, 129552, Note_off_c, 0, 73, 62
1, 129570, Note_on_c, 0, 76, 46
1, 129591, Control_c, 0, 67, 124
1, 129598, Note_off_c, 0, 76, 55
1, 129622, Control_c, 0, 67, 123
1, 129644, Note_on_c, 0, 65, 52
1, 129651, Control_c, 0, 67, 123
1, 129669, Note_off_c, 0, 65, 58
1, 129681, Control_c, 0, 67, 122
1, 129695, Control_c, 0, 67, 122
1, 129710, Control_c, 0, 67, 121
1, 129725, Control_c, 0, 67, 121
1, 129729, Note_on_c, 0, 69, 50
1, 129740, Control_c, 0, 67, 120
1, 129766, Note_off_c, 0, 69, 55
1, 129770, Control_c, 0, 67, 120
1, 129784, Control_c, 0, 67, 119
1, 129808, Note_on_c, 0, 77, 40
1, 129829, Control_c, 0, 67, 119
1, 129837, Note_off_c, 0, 77, 56
1, 129859, Control_c, 0, 67, 118
1, 129874, Note_on_c, 0, 69, 62
1, 129888, Control_c, 0, 67, 118
1, 129918, Control_c, 0, 67, 117
1, 129919, Note_off_c, 0, 69, 62
1, 129948, Control_c, 0, 67, 117
1, 129963, Note_on_c, 0, 72, 46
1, 129977, Control_c, 0, 67, 116
1, 129992, Control_c, 0, 67, 116
1, 130007, Control_c, 0, 67, 115
1, 130020, Note_off_c, 0, 72, 58
1, 130042, Note_on_c, 0, 77, 49
1, 130051, Control_c, 0, 67, 115
1, 130066, Control_c, 0, 67, 114
1, 130070, Note_off_c, 0, 77, 56
1, 130081, Control_c, 0, 67, 114
1, 130095, Control_c, 0, 67, 113
1, 130117, Note_on_c, 0, 65, 56
1, 130125, Control_c, 0, 67, 113
1, 130140, Control_c, 0, 67, 112
1, 130150, Note_off_c, 0, 65, 61
1, 130155, Control_c, 0, 67, 111
1, 130169, Control_c, 0, 64, 26
1, 130169, Control_c, 0, 67, 111
1, 130184, Control_c, 0, 67, 110
1, 130188, Note_on_c, 0, 69, 48
1, 130199, Control_c, 0, 67, 110
1, 130213, Control_c, 0, 67, 109
1, 130228, Note_off_c, 0, 69, 52
1, 130228, Control_c, 0, 67, 108
1, 130243, Control_c, 0, 64, 26
1, 130243, Control_c, 0, 67, 108
1, 130258, Control_c, 0, 67, 107
1, 130260, Note_on_c, 0, 77, 51
1, 130281, Control_c, 0, 67, 106
1, 130295, Control_c, 0, 67, 105
1, 130308, Note_off_c, 0, 77, 62
1, 130310, Control_c, 0, 67, 105
1, 130325, Control_c, 0, 67, 104
1, 130340, Control_c, 0, 64, 27
1, 130340, Control_c, 0, 67, 103
1, 130345, Note_on_c, 0, 69, 61
1, 130355, Control_c, 0, 67, 102
1, 130369, Control_c, 0, 67, 101
1, 130384, Control_c, 0, 67, 100
1, 130386, Note_off_c, 0, 69, 63
1, 130400, Control_c, 0, 67, 99
1, 130415, Control_c, 0, 64, 27
1, 130415, Control_c, 0, 67, 98
1, 130424, Note_on_c, 0, 72, 44
1, 130430, Control_c, 0, 64, 28
1, 130430, Control_c, 0, 67, 97
1, 130445, Control_c, 0, 67, 96
1, 130460, Control_c, 0, 64, 28
1, 130460, Control_c, 0, 67, 95
1, 130474, Control_c, 0, 67, 93
1, 130488, Note_off_c, 0, 72, 57
1, 130489, Control_c, 0, 64, 29
1, 130489, Control_c, 0, 67, 92
1, 130499, Note_on_c, 0, 77, 46
1, 130518, Control_c, 0, 67, 91
1, 130522, Note_off_c, 0, 77, 58
1, 130533, Control_c, 0, 67, 90
1, 130548, Control_c, 0, 67, 89
1, 130563, Control_c, 0, 67, 87
1, 130578, Control_c, 0, 67, 86
1, 130583, Note_on_c, 0, 63, 66
1, 130592, Control_c, 0, 64, 29
1, 130592, Control_c, 0, 67, 85
1, 130607, Control_c, 0, 64, 30
1, 130607, Control_c, 0, 67, 84
1, 130613, Note_off_c, 0, 63, 66
1, 130622, Control_c, 0, 67, 83
1, 130637, Control_c, 0, 64, 31
1, 130637, Control_c, 0, 67, 82
1, 130652, Note_on_c, 0, 69, 48
1, 130652, Control_c, 0, 64, 32
1, 130667, Control_c, 0, 64, 32
1, 130667, Control_c, 0, 67, 82
1, 130681, Note_off_c, 0, 69, 57
1, 130681, Control_c, 0, 64, 33
1, 130681, Control_c, 0, 67, 81
1, 130696, Control_c, 0, 64, 33
1, 130696, Control_c, 0, 67, 80
1, 130711, Control_c, 0, 64, 34
1, 130711, Control_c, 0, 67, 77
1, 130726, Control_c, 0, 67, 75
1, 130727, Note_on_c, 0, 78, 56
1, 130741, Control_c, 0, 67, 73
1, 130756, Control_c, 0, 64, 34
1, 130756, Control_c, 0, 67, 72
1, 130771, Control_c, 0, 67, 71
1, 130777, Note_off_c, 0, 78, 55
1, 130786, Control_c, 0, 67, 70
1, 130800, Control_c, 0, 67, 69
1, 130804, Note_on_c, 0, 69, 56
1, 130815, Control_c, 0, 67, 68
1, 130830, Control_c, 0, 67, 67
1, 130844, Control_c, 0, 67, 65
1, 130849, Note_off_c, 0, 69, 64
1, 130859, Control_c, 0, 67, 64
1, 130866, Note_on_c, 0, 72, 49
1, 130874, Control_c, 0, 67, 64
1, 130952, Note_off_c, 0, 72, 54
1, 130961, Note_on_c, 0, 78, 53
1, 131007, Note_off_c, 0, 78, 58
1, 131041, Note_on_c, 0, 63, 71
1, 131077, Note_off_c, 0, 63, 62
1, 131089, Control_c, 0, 67, 64
1, 131127, Note_on_c, 0, 69, 45
1, 131133, Control_c, 0, 64, 35
1, 131167, Note_off_c, 0, 69, 49
1, 131196, Note_on_c, 0, 78, 55
1, 131223, Control_c, 0, 67, 65
1, 131239, Note_off_c, 0, 78, 59
1, 131265, Note_on_c, 0, 69, 71
1, 131310, Note_off_c, 0, 69, 62
1, 131327, Control_c, 0, 67, 64
1, 131341, Control_c, 0, 64, 35
1, 131355, Note_on_c, 0, 72, 50
1, 131371, Control_c, 0, 67, 64
1, 131401, Control_c, 0, 64, 36
1, 131415, Control_c, 0, 67, 63
1, 131421, Note_off_c, 0, 72, 58
1, 131444, Note_on_c, 0, 78, 48
1, 131445, Control_c, 0, 67, 63
1, 131460, Control_c, 0, 67, 62
1, 131474, Control_c, 0, 67, 62
1, 131481, Note_off_c, 0, 78, 63
1, 131490, Control_c, 0, 64, 36
1, 131490, Control_c, 0, 67, 58
1, 131495, Note_on_c, 0, 61, 66
1, 131505, Control_c, 0, 67, 53
1, 131520, Control_c, 0, 67, 48
1, 131535, Control_c, 0, 67, 42
1, 131537, Note_off_c, 0, 61, 59
1, 131549, Control_c, 0, 67, 37
1, 131564, Control_c, 0, 67, 34
1, 131566, Note_on_c, 0, 70, 42
1, 131579, Control_c, 0, 67, 32
1, 131594, Control_c, 0, 67, 30
1, 131606, Note_off_c, 0, 70, 51
1, 131609, Control_c, 0, 67, 29
1, 131623, Control_c, 0, 67, 28
1, 131632, Note_on_c, 0, 77, 65
1, 131638, Control_c, 0, 67, 27
1, 131653, Control_c, 0, 67, 26
1, 131668, Control_c, 0, 67, 25
1, 131672, Note_off_c, 0, 77, 61
1, 131683, Control_c, 0, 67, 25
1, 131713, Control_c, 0, 67, 24
1, 131715, Note_on_c, 0, 70, 71
1, 131742, Control_c, 0, 67, 24
1, 131757, Control_c, 0, 67, 22
1, 131774, Note_off_c, 0, 70, 61
1, 131779, Control_c, 0, 67, 21
1, 131794, Control_c, 0, 67, 20
1, 131809, Control_c, 0, 67, 19
1, 131817, Note_on_c, 0, 73, 57
1, 131823, Control_c, 0, 67, 18
1, 131838, Control_c, 0, 67, 17
1, 131857, Note_off_c, 0, 73, 63
1, 131873, Note_on_c, 0, 77, 58
1, 131898, Control_c, 0, 67, 16
1, 131912, Note_off_c, 0, 77, 64
1, 131951, Note_on_c, 0, 61, 71
1, 131972, Control_c, 0, 64, 37
1, 131996, Note_off_c, 0, 61, 59
1, 132030, Note_on_c, 0, 70, 50
1, 132082, Note_off_c, 0, 70, 61
1, 132088, Note_on_c, 0, 77, 67
1, 132144, Note_off_c, 0, 77, 60
1, 132180, Note_on_c, 0, 70, 85
1, 132225, Control_c, 0, 67, 15
1, 132235, Note_off_c, 0, 70, 62
1, 132239, Control_c, 0, 67, 14
1, 132254, Control_c, 0, 64, 36
1, 132254, Control_c, 0, 67, 12
1, 132257, Note_on_c, 0, 73, 67
1, 132269, Control_c, 0, 67, 9
1, 132284, Control_c, 0, 67, 0
1, 132313, Control_c, 0, 64, 36
1, 132321, Note_off_c, 0, 73, 65
1, 132328, Note_on_c, 0, 77, 68
1, 132328, Control_c, 0, 64, 34
1, 132343, Control_c, 0, 64, 32
1, 132358, Control_c, 0, 64, 25
1, 132372, Control_c, 0, 64, 0
1, 132380, Note_off_c, 0, 77, 60
1, 132420, Note_on_c, 0, 61, 75
1, 132470, Note_off_c, 0, 61, 62
1, 132476, Control_c, 0, 64, 26
1, 132491, Control_c, 0, 64, 49
1, 132506, Control_c, 0, 64, 57
1, 132507, Note_on_c, 0, 71, 70
1, 132528, Control_c, 0, 64, 60
1, 132543, Control_c, 0, 64, 62
1, 132558, Control_c, 0, 64, 63
1, 132572, Control_c, 0, 64, 63
1, 132585, Note_on_c, 0, 77, 71
1, 132598, Note_off_c, 0, 71, 62
1, 132617, Control_c, 0, 64, 62
1, 132631, Control_c, 0, 64, 59
1, 132637, Note_off_c, 0, 77, 61
1, 132646, Control_c, 0, 64, 56
1, 132659, Note_on_c, 0, 68, 79
1, 132661, Control_c, 0, 64, 49
1, 132676, Control_c, 0, 64, 43
1, 132691, Control_c, 0, 64, 39
1, 132705, Control_c, 0, 64, 35
1, 132720, Note_off_c, 0, 68, 62
1, 132720, Control_c, 0, 64, 33
1, 132735, Control_c, 0, 64, 31
1, 132750, Note_on_c, 0, 71, 79
1, 132750, Control_c, 0, 64, 30
1, 132765, Control_c, 0, 64, 28
1, 132780, Control_c, 0, 64, 28
1, 132795, Control_c, 0, 64, 27
1, 132810, Control_c, 0, 64, 27
1, 132825, Control_c, 0, 64, 26
1, 132828, Note_on_c, 0, 77, 75
1, 132840, Control_c, 0, 64, 25
1, 132843, Note_off_c, 0, 71, 61
1, 132855, Control_c, 0, 64, 25
1, 132883, Note_off_c, 0, 77, 64
1, 132892, Note_on_c, 0, 61, 77
1, 132941, Note_off_c, 0, 61, 63
1, 132981, Note_on_c, 0, 71, 80
1, 133045, Control_c, 0, 64, 24
1, 133060, Note_on_c, 0, 77, 75
1, 133060, Control_c, 0, 64, 17
1, 133070, Note_off_c, 0, 71, 62
1, 133075, Control_c, 0, 64, 0
1, 133117, Note_off_c, 0, 77, 63
1, 133129, Note_on_c, 0, 68, 79
1, 133179, Control_c, 0, 64, 27
1, 133186, Note_on_c, 0, 71, 76
1, 133186, Note_off_c, 0, 68, 66
1, 133194, Control_c, 0, 64, 49
1, 133209, Control_c, 0, 64, 58
1, 133224, Control_c, 0, 64, 62
1, 133238, Control_c, 0, 64, 63
1, 133253, Control_c, 0, 64, 65
1, 133270, Note_on_c, 0, 77, 73
1, 133275, Control_c, 0, 64, 65
1, 133287, Note_off_c, 0, 71, 62
1, 133290, Control_c, 0, 64, 66
1, 133320, Control_c, 0, 64, 65
1, 133334, Note_off_c, 0, 77, 65
1, 133334, Control_c, 0, 64, 64
1, 133349, Control_c, 0, 64, 62
1, 133364, Control_c, 0, 64, 59
1, 133379, Control_c, 0, 64, 55
1, 133394, Control_c, 0, 64, 52
1, 133409, Control_c, 0, 64, 50
1, 133424, Control_c, 0, 64, 47
1, 133428, Note_on_c, 0, 76, 81
1, 133436, Note_on_c, 0, 72, 72
1, 133439, Control_c, 0, 64, 45
1, 133453, Control_c, 0, 64, 43
1, 133468, Control_c, 0, 64, 42
1, 133483, Control_c, 0, 64, 41
1, 133498, Control_c, 0, 64, 41
1, 133512, Control_c, 0, 64, 40
1, 133527, Control_c, 0, 64, 38
1, 133542, Control_c, 0, 64, 36
1, 133557, Note_on_c, 0, 60, 72
1, 133557, Control_c, 0, 64, 34
1, 133572, Control_c, 0, 64, 32
1, 133588, Control_c, 0, 64, 31
1, 133603, Control_c, 0, 64, 31
1, 133607, Note_off_c, 0, 60, 60
1, 133617, Control_c, 0, 64, 30
1, 133632, Control_c, 0, 64, 26
1, 133647, Control_c, 0, 64, 20
1, 133648, Note_on_c, 0, 48, 67
1, 133661, Control_c, 0, 64, 0
1, 133678, Note_off_c, 0, 48, 63
1, 133714, Note_on_c, 0, 77, 76
1, 133722, Note_on_c, 0, 74, 77
1, 133752, Note_off_c, 0, 76, 26
1, 133755, Note_off_c, 0, 72, 46
1, 133795, Control_c, 0, 64, 29
1, 133809, Control_c, 0, 64, 50
1, 133810, Note_on_c, 0, 60, 77
1, 133824, Control_c, 0, 64, 59
1, 133839, Control_c, 0, 64, 62
1, 133854, Control_c, 0, 64, 64
1, 133858, Note_off_c, 0, 60, 54
1, 133868, Control_c, 0, 64, 66
1, 133883, Control_c, 0, 64, 67
1, 133892, Note_on_c, 0, 48, 72
1, 133898, Control_c, 0, 64, 68
1, 133932, Note_off_c, 0, 48, 62
1, 133943, Control_c, 0, 64, 67
1, 133951, Note_off_c, 0, 74, 58
1, 133954, Note_on_c, 0, 79, 76
1, 133955, Note_on_c, 0, 76, 65
1, 133957, Control_c, 0, 64, 67
1, 133972, Control_c, 0, 64, 65
1, 133975, Note_off_c, 0, 77, 33
1, 133987, Control_c, 0, 64, 64
1, 134002, Note_off_c, 0, 79, 64
1, 134002, Control_c, 0, 64, 61
1, 134019, Note_off_c, 0, 76, 63
1, 134024, Control_c, 0, 64, 58
1, 134039, Control_c, 0, 64, 55
1, 134054, Control_c, 0, 64, 54
1, 134057, Note_on_c, 0, 60, 76
1, 134068, Control_c, 0, 64, 53
1, 134083, Control_c, 0, 64, 53
1, 134098, Control_c, 0, 64, 52
1, 134100, Note_off_c, 0, 60, 59
1, 134113, Control_c, 0, 64, 51
1, 134128, Control_c, 0, 64, 49
1, 134142, Control_c, 0, 64, 46
1, 134145, Note_on_c, 0, 48, 67
1, 134157, Control_c, 0, 64, 44
1, 134172, Control_c, 0, 64, 41
1, 134176, Note_off_c, 0, 48, 63
1, 134187, Control_c, 0, 64, 37
1, 134198, Note_on_c, 0, 70, 77
1, 134202, Control_c, 0, 64, 33
1, 134205, Note_on_c, 0, 67, 74
1, 134217, Control_c, 0, 64, 29
1, 134232, Control_c, 0, 64, 26
1, 134247, Control_c, 0, 64, 26
1, 134261, Control_c, 0, 64, 25
1, 134276, Control_c, 0, 64, 25
1, 134291, Control_c, 0, 64, 24
1, 134295, Note_on_c, 0, 60, 71
1, 134306, Control_c, 0, 64, 24
1, 134310, Note_off_c, 0, 67, 54
1, 134321, Note_off_c, 0, 70, 60
1, 134321, Control_c, 0, 64, 23
1, 134335, Note_off_c, 0, 60, 59
1, 134336, Control_c, 0, 64, 23
1, 134370, Note_on_c, 0, 48, 70
1, 134401, Note_off_c, 0, 48, 64
1, 134447, Note_on_c, 0, 68, 77
1, 134454, Note_on_c, 0, 65, 74
1, 134530, Control_c, 0, 64, 24
1, 134538, Note_on_c, 0, 60, 71
1, 134545, Control_c, 0, 64, 25
1, 134560, Control_c, 0, 64, 27
1, 134574, Control_c, 0, 64, 29
1, 134586, Note_off_c, 0, 60, 59
1, 134589, Control_c, 0, 64, 30
1, 134619, Control_c, 0, 64, 31
1, 134626, Note_on_c, 0, 48, 72
1, 134648, Control_c, 0, 64, 31
1, 134662, Note_off_c, 0, 48, 64
1, 134692, Control_c, 0, 64, 30
1, 134703, Note_on_c, 0, 70, 85
1, 134707, Control_c, 0, 64, 24
1, 134709, Note_on_c, 0, 67, 76
1, 134722, Control_c, 0, 64, 0
1, 134729, Note_off_c, 0, 65, 60
1, 134740, Note_off_c, 0, 68, 56
1, 134798, Note_on_c, 0, 60, 74
1, 134852, Note_off_c, 0, 60, 61
1, 134878, Control_c, 0, 64, 23
1, 134888, Note_on_c, 0, 48, 72
1, 134892, Control_c, 0, 64, 37
1, 134907, Control_c, 0, 64, 48
1, 134922, Control_c, 0, 64, 54
1, 134935, Note_off_c, 0, 48, 61
1, 134937, Control_c, 0, 64, 57
1, 134952, Control_c, 0, 64, 59
1, 134964, Note_on_c, 0, 72, 67
1, 134966, Control_c, 0, 64, 60
1, 134967, Note_on_c, 0, 68, 74
1, 134978, Note_off_c, 0, 67, 63
1, 134981, Control_c, 0, 64, 61
1, 134992, Note_off_c, 0, 72, 66
1, 134995, Note_off_c, 0, 70, 62
1, 134998, Note_off_c, 0, 68, 67
1, 135040, Note_on_c, 0, 60, 77
1, 135095, Note_off_c, 0, 60, 62
1, 135135, Note_on_c, 0, 48, 70
1, 135144, Control_c, 0, 64, 60
1, 135159, Control_c, 0, 64, 60
1, 135174, Control_c, 0, 64, 59
1, 135189, Control_c, 0, 64, 58
1, 135204, Control_c, 0, 64, 57
1, 135206, Note_off_c, 0, 48, 61
1, 135209, Note_on_c, 0, 65, 71
1, 135218, Note_on_c, 0, 56, 73
1, 135219, Control_c, 0, 64, 55
1, 135234, Control_c, 0, 64, 53
1, 135249, Control_c, 0, 64, 51
1, 135263, Control_c, 0, 64, 50
1, 135278, Control_c, 0, 64, 49
1, 135287, Note_on_c, 0, 60, 74
1, 135293, Control_c, 0, 64, 48
1, 135297, Note_off_c, 0, 56, 56
1, 135308, Control_c, 0, 64, 46
1, 135323, Control_c, 0, 64, 45
1, 135338, Control_c, 0, 64, 44
1, 135348, Note_off_c, 0, 60, 62
1, 135352, Control_c, 0, 64, 43
1, 135367, Control_c, 0, 64, 42
1, 135373, Note_off_c, 0, 65, 56
1, 135375, Note_on_c, 0, 48, 69
1, 135382, Control_c, 0, 64, 40
1, 135397, Control_c, 0, 64, 39
1, 135412, Control_c, 0, 64, 37
1, 135421, Note_off_c, 0, 48, 63
1, 135427, Control_c, 0, 64, 36
1, 135441, Control_c, 0, 64, 36
1, 135466, Note_on_c, 0, 64, 81
1, 135471, Control_c, 0, 64, 35
1, 135476, Note_on_c, 0, 55, 73
1, 135486, Control_c, 0, 64, 35
1, 135501, Control_c, 0, 64, 31
1, 135522, Control_c, 0, 64, 13
1, 135537, Control_c, 0, 64, 0
1, 135569, Note_on_c, 0, 48, 78
1, 135571, Note_off_c, 0, 55, 61
1, 135612, Control_c, 0, 64, 10
1, 135627, Control_c, 0, 64, 42
1, 135630, Note_off_c, 0, 48, 62
1, 135641, Control_c, 0, 64, 56
1, 135656, Control_c, 0, 64, 61
1, 135663, Note_on_c, 0, 36, 77
1, 135671, Control_c, 0, 64, 62
1, 135686, Control_c, 0, 64, 63
1, 135701, Control_c, 0, 64, 64
1, 135705, Note_off_c, 0, 36, 63
1, 135716, Note_off_c, 0, 64, 56
1, 135735, Note_on_c, 0, 65, 78
1, 135744, Note_on_c, 0, 56, 73
1, 135745, Control_c, 0, 64, 63
1, 135760, Control_c, 0, 64, 62
1, 135775, Control_c, 0, 64, 60
1, 135789, Control_c, 0, 64, 59
1, 135804, Control_c, 0, 64, 58
1, 135819, Control_c, 0, 64, 57
1, 135824, Note_on_c, 0, 48, 81
1, 135826, Note_off_c, 0, 56, 62
1, 135833, Control_c, 0, 64, 56
1, 135848, Control_c, 0, 64, 54
1, 135863, Control_c, 0, 64, 53
1, 135876, Note_off_c, 0, 48, 62
1, 135878, Control_c, 0, 64, 51
1, 135893, Control_c, 0, 64, 50
1, 135907, Control_c, 0, 64, 48
1, 135910, Note_on_c, 0, 36, 77
1, 135922, Control_c, 0, 64, 47
1, 135937, Control_c, 0, 64, 46
1, 135952, Control_c, 0, 64, 45
1, 135955, Note_off_c, 0, 36, 63
1, 135964, Note_off_c, 0, 65, 60
1, 135967, Control_c, 0, 64, 44
1, 135982, Control_c, 0, 64, 42
1, 135987, Note_on_c, 0, 67, 79
1, 135997, Control_c, 0, 64, 41
1, 135998, Note_on_c, 0, 58, 72
1, 136011, Control_c, 0, 64, 40
1, 136026, Control_c, 0, 64, 39
1, 136041, Note_off_c, 0, 67, 64
1, 136041, Control_c, 0, 64, 39
1, 136056, Control_c, 0, 64, 38
1, 136067, Note_off_c, 0, 58, 63
1, 136070, Note_on_c, 0, 48, 77
1, 136071, Control_c, 0, 64, 37
1, 136086, Control_c, 0, 64, 35
1, 136101, Control_c, 0, 64, 34
1, 136116, Control_c, 0, 64, 34
1, 136125, Note_off_c, 0, 48, 63
1, 136130, Control_c, 0, 64, 33
1, 136145, Control_c, 0, 64, 32
1, 136160, Control_c, 0, 64, 32
1, 136169, Note_on_c, 0, 36, 70
1, 136175, Control_c, 0, 64, 31
1, 136190, Control_c, 0, 64, 30
1, 136205, Note_off_c, 0, 36, 65
1, 136219, Control_c, 0, 64, 29
1, 136232, Note_on_c, 0, 58, 69
1, 136234, Control_c, 0, 64, 29
1, 136236, Note_on_c, 0, 55, 67
1, 136249, Control_c, 0, 64, 28
1, 136271, Control_c, 0, 64, 27
1, 136286, Control_c, 0, 64, 26
1, 136330, Note_on_c, 0, 48, 74
1, 136340, Note_off_c, 0, 55, 56
1, 136362, Note_off_c, 0, 58, 59
1, 136381, Note_off_c, 0, 48, 61
1, 136410, Note_on_c, 0, 36, 72
1, 136450, Note_off_c, 0, 36, 63
1, 136488, Note_on_c, 0, 56, 79
1, 136498, Note_on_c, 0, 53, 71
1, 136508, Control_c, 0, 64, 26
1, 136523, Control_c, 0, 64, 27
1, 136552, Control_c, 0, 64, 27
1, 136582, Control_c, 0, 64, 27
1, 136597, Control_c, 0, 64, 23
1, 136608, Note_on_c, 0, 48, 78
1, 136611, Control_c, 0, 64, 0
1, 136662, Note_off_c, 0, 53, 55
1, 136668, Note_off_c, 0, 48, 63
1, 136680, Note_off_c, 0, 56, 55
1, 136696, Note_on_c, 0, 36, 74
1, 136715, Control_c, 0, 64, 35
1, 136730, Control_c, 0, 64, 50
1, 136733, Note_off_c, 0, 36, 64
1, 136745, Control_c, 0, 64, 56
1, 136759, Control_c, 0, 64, 58
1, 136774, Note_on_c, 0, 60, 75
1, 136774, Control_c, 0, 64, 59
1, 136782, Note_on_c, 0, 56, 76
1, 136834, Control_c, 0, 64, 58
1, 136849, Control_c, 0, 64, 57
1, 136864, Control_c, 0, 64, 56
1, 136879, Control_c, 0, 64, 55
1, 136891, Note_on_c, 0, 48, 74
1, 136894, Control_c, 0, 64, 54
1, 136909, Control_c, 0, 64, 53
1, 136923, Control_c, 0, 64, 52
1, 136938, Control_c, 0, 64, 51
1, 136947, Note_off_c, 0, 48, 63
1, 136953, Control_c, 0, 64, 49
1, 136968, Control_c, 0, 64, 47
1, 136976, Note_on_c, 0, 36, 75
1, 136983, Control_c, 0, 64, 45
1, 136998, Control_c, 0, 64, 43
1, 137016, Note_off_c, 0, 56, 50
1, 137020, Control_c, 0, 64, 42
1, 137025, Note_off_c, 0, 36, 64
1, 137034, Note_on_c, 0, 58, 73
1, 137035, Control_c, 0, 64, 40
1, 137036, Note_on_c, 0, 55, 74
1, 137049, Control_c, 0, 64, 38
1, 137064, Control_c, 0, 64, 35
1, 137079, Control_c, 0, 64, 31
1, 137093, Control_c, 0, 64, 25
1, 137108, Control_c, 0, 64, 15
1, 137123, Control_c, 0, 64, 0
1, 137126, Note_on_c, 0, 48, 80
1, 137166, Note_off_c, 0, 60, 30
1, 137177, Note_off_c, 0, 48, 64
1, 137217, Note_on_c, 0, 36, 73
1, 137266, Note_off_c, 0, 36, 61
1, 137273, Note_on_c, 0, 56, 78
1, 137275, Note_off_c, 0, 55, 41
1, 137280, Note_on_c, 0, 53, 66
1, 137286, Control_c, 0, 64, 40
1, 137301, Note_off_c, 0, 58, 58
1, 137301, Control_c, 0, 64, 51
1, 137316, Control_c, 0, 64, 55
1, 137331, Control_c, 0, 64, 58
1, 137346, Control_c, 0, 64, 58
1, 137349, Note_off_c, 0, 53, 61
1, 137360, Note_on_c, 0, 48, 80
1, 137360, Note_off_c, 0, 56, 61
1, 137390, Control_c, 0, 64, 58
1, 137404, Control_c, 0, 64, 56
1, 137412, Note_off_c, 0, 48, 63
1, 137419, Control_c, 0, 64, 53
1, 137434, Control_c, 0, 64, 50
1, 137448, Note_on_c, 0, 36, 81
1, 137449, Control_c, 0, 64, 46
1, 137464, Control_c, 0, 64, 41
1, 137478, Control_c, 0, 64, 35
1, 137487, Note_off_c, 0, 36, 63
1, 137493, Control_c, 0, 64, 30
1, 137508, Control_c, 0, 64, 26
1, 137523, Control_c, 0, 64, 23
1, 137529, Note_on_c, 0, 55, 79
1, 137532, Note_on_c, 0, 52, 76
1, 137538, Control_c, 0, 64, 21
1, 137552, Control_c, 0, 64, 20
1, 137567, Control_c, 0, 64, 19
1, 137583, Control_c, 0, 64, 18
1, 137598, Control_c, 0, 64, 17
1, 137622, Note_on_c, 0, 48, 81
1, 137657, Control_c, 0, 64, 17
1, 137672, Control_c, 0, 64, 16
1, 137675, Note_off_c, 0, 48, 64
1, 137687, Control_c, 0, 64, 15
1, 137707, Note_on_c, 0, 36, 80
1, 137740, Note_off_c, 0, 52, 62
1, 137760, Note_off_c, 0, 36, 63
1, 137776, Note_on_c, 0, 56, 79
1, 137781, Note_on_c, 0, 53, 72
1, 137783, Control_c, 0, 64, 14
1, 137797, Note_off_c, 0, 55, 33
1, 137870, Note_on_c, 0, 48, 85
1, 137902, Control_c, 0, 64, 15
1, 137924, Note_off_c, 0, 48, 64
1, 137969, Note_off_c, 0, 53, 58
1, 137973, Note_on_c, 0, 36, 82
1, 137975, Note_off_c, 0, 56, 60
1, 137991, Control_c, 0, 64, 14
1, 138005, Control_c, 0, 64, 15
1, 138012, Note_on_c, 0, 55, 76
1, 138017, Note_on_c, 0, 52, 74
1, 138028, Note_off_c, 0, 36, 64
1, 138071, Note_off_c, 0, 55, 62
1, 138109, Note_off_c, 0, 52, 35
1, 138113, Note_on_c, 0, 48, 86
1, 138169, Note_off_c, 0, 48, 64
1, 138218, Note_on_c, 0, 36, 83
1, 138267, Note_on_c, 0, 59, 80
1, 138268, Note_on_c, 0, 50, 82
1, 138272, Note_on_c, 0, 53, 73
1, 138272, Note_off_c, 0, 36, 65
1, 138342, Note_off_c, 0, 50, 63
1, 138354, Note_off_c, 0, 53, 63
1, 138369, Note_off_c, 0, 59, 65
1, 138381, Note_on_c, 0, 48, 87
1, 138422, Control_c, 0, 64, 16
1, 138436, Note_off_c, 0, 48, 64
1, 138437, Control_c, 0, 64, 16
1, 138451, Control_c, 0, 64, 17
1, 138469, Note_on_c, 0, 36, 87
1, 138481, Control_c, 0, 64, 17
1, 138496, Control_c, 0, 64, 18
1, 138518, Control_c, 0, 64, 18
1, 138526, Note_off_c, 0, 36, 64
1, 138548, Control_c, 0, 64, 19
1, 138563, Control_c, 0, 64, 19
1, 138590, Note_on_c, 0, 60, 82
1, 138594, Note_on_c, 0, 52, 91
1, 138595, Note_on_c, 0, 55, 78
1, 138652, Control_c, 0, 64, 19
1, 138696, Control_c, 0, 64, 19
1, 138740, Note_on_c, 0, 48, 83
1, 138783, Note_off_c, 0, 48, 63
1, 138785, Control_c, 0, 64, 17
1, 138800, Control_c, 0, 64, 0
1, 138840, Note_on_c, 0, 36, 77
1, 138890, Note_off_c, 0, 36, 64
1, 138933, Control_c, 0, 64, 49
1, 138947, Control_c, 0, 64, 61
1, 138962, Control_c, 0, 64, 67
1, 138977, Control_c, 0, 64, 73
1, 138980, Note_off_c, 0, 60, 62
1, 138985, Note_off_c, 0, 52, 63
1, 138992, Control_c, 0, 64, 85
1, 138996, Note_off_c, 0, 55, 64
1, 139007, Control_c, 0, 64, 94
1, 139022, Control_c, 0, 64, 103
1, 139037, Control_c, 0, 64, 115
1, 139052, Control_c, 0, 64, 127
1, 139201, Control_c, 0, 67, 10
1, 139216, Control_c, 0, 67, 13
1, 139230, Control_c, 0, 67, 17
1, 139245, Control_c, 0, 67, 23
1, 139267, Control_c, 0, 67, 29
1, 139281, Control_c, 0, 64, 115
1, 139281, Control_c, 0, 67, 35
1, 139296, Control_c, 0, 64, 103
1, 139296, Control_c, 0, 67, 41
1, 139311, Control_c, 0, 64, 93
1, 139311, Control_c, 0, 67, 46
1, 139326, Control_c, 0, 64, 86
1, 139326, Control_c, 0, 67, 50
1, 139341, Control_c, 0, 64, 81
1, 139341, Control_c, 0, 67, 53
1, 139356, Control_c, 0, 64, 77
1, 139356, Control_c, 0, 67, 55
1, 139371, Control_c, 0, 64, 73
1, 139386, Control_c, 0, 64, 68
1, 139386, Control_c, 0, 67, 55
1, 139401, Control_c, 0, 64, 64
1, 139401, Control_c, 0, 67, 54
1, 139415, Control_c, 0, 64, 60
1, 139430, Control_c, 0, 64, 56
1, 139445, Control_c, 0, 64, 51
1, 139445, Control_c, 0, 67, 54
1, 139460, Control_c, 0, 64, 42
1, 139475, Control_c, 0, 64, 30
1, 139475, Control_c, 0, 67, 54
1, 139489, Control_c, 0, 64, 12
1, 139489, Control_c, 0, 67, 55
1, 139504, Control_c, 0, 64, 0
1, 139504, Control_c, 0, 67, 55
1, 139519, Control_c, 0, 67, 56
1, 139534, Control_c, 0, 67, 57
1, 139549, Control_c, 0, 67, 58
1, 139563, Control_c, 0, 67, 63
1, 139578, Control_c, 0, 67, 69
1, 139593, Control_c, 0, 67, 75
1, 139608, Control_c, 0, 67, 79
1, 139623, Control_c, 0, 67, 82
1, 139637, Control_c, 0, 67, 86
1, 139652, Control_c, 0, 67, 89
1, 139667, Control_c, 0, 67, 92
1, 139681, Control_c, 0, 67, 94
1, 139696, Control_c, 0, 67, 95
1, 139711, Control_c, 0, 67, 97
1, 139725, Control_c, 0, 67, 99
1, 139740, Control_c, 0, 67, 102
1, 139755, Control_c, 0, 67, 104
1, 139770, Control_c, 0, 67, 106
1, 139785, Control_c, 0, 67, 107
1, 139799, Control_c, 0, 67, 108
1, 139814, Control_c, 0, 67, 110
1, 139829, Control_c, 0, 67, 112
1, 139844, Control_c, 0, 67, 113
1, 139859, Control_c, 0, 67, 114
1, 139873, Control_c, 0, 67, 116
1, 139888, Control_c, 0, 67, 116
1, 139903, Control_c, 0, 67, 118
1, 139918, Control_c, 0, 67, 119
1, 139933, Control_c, 0, 67, 121
1, 139947, Control_c, 0, 67, 122
1, 139962, Control_c, 0, 67, 123
1, 139978, Control_c, 0, 67, 123
1, 139993, Control_c, 0, 67, 125
1, 140015, Control_c, 0, 67, 126
1, 140030, Control_c, 0, 67, 127
1, 140045, Control_c, 0, 67, 127
1, 140667, Control_c, 0, 67, 127
1, 140696, Control_c, 0, 67, 126
1, 140711, Control_c, 0, 67, 126
1, 140726, Control_c, 0, 67, 125
1, 140733, Note_on_c, 0, 72, 49
1, 140741, Control_c, 0, 67, 125
1, 140763, Control_c, 0, 67, 124
1, 140794, Control_c, 0, 67, 123
1, 140808, Control_c, 0, 67, 123
1, 140838, Control_c, 0, 67, 122
1, 140867, Control_c, 0, 67, 122
1, 140897, Control_c, 0, 67, 121
1, 140912, Control_c, 0, 67, 121
1, 140945, Note_on_c, 0, 84, 71
1, 140971, Control_c, 0, 67, 120
1, 141016, Control_c, 0, 67, 120
1, 141060, Control_c, 0, 67, 119
1, 141075, Note_off_c, 0, 72, 60
1, 141120, Control_c, 0, 67, 119
1, 141149, Control_c, 0, 67, 118
1, 141179, Control_c, 0, 67, 118
1, 141208, Control_c, 0, 67, 117
1, 141223, Control_c, 0, 67, 117
1, 141284, Note_on_c, 0, 68, 43
1, 141289, Note_on_c, 0, 65, 41
1, 141312, Control_c, 0, 67, 117
1, 141331, Note_off_c, 0, 68, 47
1, 141332, Note_off_c, 0, 65, 58
1, 141356, Control_c, 0, 67, 118
1, 141401, Control_c, 0, 67, 118
1, 141475, Control_c, 0, 67, 118
1, 141512, Control_c, 0, 67, 117
1, 141526, Control_c, 0, 67, 116
1, 141541, Control_c, 0, 64, 18
1, 141541, Control_c, 0, 67, 115
1, 141556, Control_c, 0, 64, 38
1, 141556, Control_c, 0, 67, 114
1, 141571, Control_c, 0, 64, 49
1, 141571, Control_c, 0, 67, 114
1, 141587, Control_c, 0, 64, 55
1, 141587, Control_c, 0, 67, 113
1, 141602, Control_c, 0, 64, 58
1, 141602, Control_c, 0, 67, 113
1, 141603, Note_on_c, 0, 65, 39
1, 141617, Control_c, 0, 64, 60
1, 141617, Control_c, 0, 67, 112
1, 141619, Note_on_c, 0, 68, 37
1, 141631, Control_c, 0, 64, 62
1, 141631, Control_c, 0, 67, 112
1, 141646, Control_c, 0, 64, 64
1, 141646, Control_c, 0, 67, 111
1, 141661, Control_c, 0, 64, 66
1, 141661, Control_c, 0, 67, 111
1, 141667, Note_off_c, 0, 68, 45
1, 141675, Control_c, 0, 64, 67
1, 141678, Note_off_c, 0, 65, 53
1, 141690, Control_c, 0, 64, 68
1, 141690, Control_c, 0, 67, 110
1, 141705, Control_c, 0, 64, 70
1, 141720, Control_c, 0, 64, 71
1, 141720, Control_c, 0, 67, 110
1, 141735, Control_c, 0, 64, 71
1, 141742, Note_on_c, 0, 82, 51
1, 141779, Note_off_c, 0, 84, 57
1, 141821, Note_off_c, 0, 82, 57
1, 141842, Note_on_c, 0, 80, 55
1, 141854, Control_c, 0, 67, 110
1, 141894, Note_off_c, 0, 80, 54
1, 141898, Control_c, 0, 64, 71
1, 141898, Control_c, 0, 67, 111
1, 141913, Note_on_c, 0, 65, 38
1, 141913, Control_c, 0, 64, 70
1, 141919, Note_on_c, 0, 68, 32
1, 141928, Control_c, 0, 64, 70
1, 141938, Note_on_c, 0, 82, 62
1, 141943, Control_c, 0, 64, 69
1, 141957, Control_c, 0, 64, 69
1, 141957, Control_c, 0, 67, 111
1, 141973, Control_c, 0, 64, 68
1, 141988, Control_c, 0, 64, 67
1, 141988, Control_c, 0, 67, 112
1, 141991, Note_off_c, 0, 68, 36
1, 142003, Control_c, 0, 64, 66
1, 142018, Control_c, 0, 64, 65
1, 142018, Control_c, 0, 67, 112
1, 142026, Note_on_c, 0, 80, 62
1, 142032, Control_c, 0, 64, 63
1, 142047, Control_c, 0, 64, 62
1, 142062, Control_c, 0, 64, 61
1, 142062, Control_c, 0, 67, 113
1, 142074, Note_off_c, 0, 65, 39
1, 142076, Control_c, 0, 64, 60
1, 142077, Note_off_c, 0, 82, 57
1, 142091, Control_c, 0, 64, 58
1, 142091, Control_c, 0, 67, 113
1, 142095, Note_on_c, 0, 79, 71
1, 142106, Control_c, 0, 64, 57
1, 142106, Control_c, 0, 67, 114
1, 142112, Note_off_c, 0, 80, 55
1, 142121, Control_c, 0, 64, 55
1, 142136, Control_c, 0, 64, 53
1, 142136, Control_c, 0, 67, 114
1, 142146, Note_off_c, 0, 79, 62
1, 142150, Control_c, 0, 64, 51
1, 142160, Note_on_c, 0, 77, 68
1, 142165, Control_c, 0, 64, 48
1, 142165, Control_c, 0, 67, 115
1, 142180, Control_c, 0, 64, 45
1, 142194, Control_c, 0, 64, 41
1, 142194, Control_c, 0, 67, 116
1, 142196, Note_off_c, 0, 77, 63
1, 142209, Control_c, 0, 64, 36
1, 142224, Control_c, 0, 64, 32
1, 142224, Control_c, 0, 67, 116
1, 142239, Control_c, 0, 64, 28
1, 142262, Control_c, 0, 64, 25
1, 142262, Control_c, 0, 67, 117
1, 142276, Control_c, 0, 64, 21
1, 142282, Note_on_c, 0, 77, 67
1, 142291, Control_c, 0, 64, 15
1, 142291, Control_c, 0, 67, 117
1, 142306, Control_c, 0, 64, 0
1, 142455, Control_c, 0, 67, 117
1, 142485, Control_c, 0, 67, 116
1, 142499, Control_c, 0, 67, 116
1, 142514, Control_c, 0, 67, 115
1, 142529, Control_c, 0, 67, 114
1, 142544, Control_c, 0, 67, 114
1, 142559, Control_c, 0, 67, 113
1, 142568, Note_on_c, 0, 70, 46
1, 142574, Control_c, 0, 64, 22
1, 142574, Control_c, 0, 67, 113
1, 142582, Note_on_c, 0, 67, 35
1, 142588, Control_c, 0, 64, 40
1, 142603, Control_c, 0, 64, 51
1, 142618, Control_c, 0, 64, 57
1, 142618, Control_c, 0, 67, 112
1, 142626, Note_off_c, 0, 67, 46
1, 142630, Note_off_c, 0, 70, 49
1, 142633, Control_c, 0, 64, 59
1, 142647, Control_c, 0, 64, 60
1, 142662, Control_c, 0, 64, 60
1, 142662, Control_c, 0, 67, 112
1, 142751, Control_c, 0, 64, 60
1, 142751, Control_c, 0, 67, 112
1, 142766, Control_c, 0, 64, 59
1, 142768, Note_off_c, 0, 77, 62
1, 142781, Control_c, 0, 64, 57
1, 142796, Control_c, 0, 64, 55
1, 142796, Control_c, 0, 67, 113
1, 142808, Note_on_c, 0, 76, 44
1, 142811, Control_c, 0, 64, 51
1, 142825, Control_c, 0, 64, 44
1, 142838, Note_off_c, 0, 76, 55
1, 142840, Control_c, 0, 64, 28
1, 142840, Control_c, 0, 67, 113
1, 142847, Note_on_c, 0, 77, 52
1, 142849, Note_on_c, 0, 70, 41
1, 142850, Note_on_c, 0, 67, 40
1, 142855, Control_c, 0, 64, 0
1, 142889, Note_off_c, 0, 77, 65
1, 142922, Note_on_c, 0, 76, 60
1, 142944, Control_c, 0, 67, 113
1, 142959, Control_c, 0, 64, 20
1, 142973, Control_c, 0, 64, 42
1, 142975, Note_off_c, 0, 70, 40
1, 142981, Note_off_c, 0, 67, 35
1, 142988, Control_c, 0, 64, 53
1, 142988, Control_c, 0, 67, 112
1, 143010, Control_c, 0, 64, 58
1, 143010, Control_c, 0, 67, 112
1, 143025, Control_c, 0, 64, 61
1, 143025, Control_c, 0, 67, 111
1, 143040, Control_c, 0, 64, 62
1, 143055, Control_c, 0, 64, 63
1, 143070, Control_c, 0, 64, 64
1, 143070, Control_c, 0, 67, 111
1, 143085, Control_c, 0, 64, 65
1, 143129, Control_c, 0, 67, 111
1, 143130, Note_off_c, 0, 76, 54
1, 143159, Control_c, 0, 67, 112
1, 143163, Note_on_c, 0, 70, 31
1, 143174, Control_c, 0, 67, 112
1, 143179, Note_on_c, 0, 67, 15
1, 143219, Control_c, 0, 64, 64
1, 143219, Control_c, 0, 67, 113
1, 143231, Note_off_c, 0, 67, 46
1, 143234, Control_c, 0, 64, 64
1, 143248, Control_c, 0, 64, 63
1, 143257, Note_on_c, 0, 76, 61
1, 143263, Control_c, 0, 64, 61
1, 143272, Note_off_c, 0, 70, 30
1, 143278, Control_c, 0, 64, 59
1, 143293, Control_c, 0, 64, 56
1, 143308, Control_c, 0, 64, 52
1, 143322, Control_c, 0, 64, 47
1, 143332, Note_on_c, 0, 79, 58
1, 143337, Control_c, 0, 64, 44
1, 143352, Control_c, 0, 64, 43
1, 143367, Control_c, 0, 64, 42
1, 143382, Control_c, 0, 64, 40
1, 143396, Control_c, 0, 64, 38
1, 143404, Note_on_c, 0, 82, 68
1, 143408, Note_off_c, 0, 76, 52
1, 143411, Control_c, 0, 64, 36
1, 143426, Control_c, 0, 64, 34
1, 143426, Control_c, 0, 67, 113
1, 143441, Control_c, 0, 64, 32
1, 143445, Note_off_c, 0, 79, 62
1, 143455, Control_c, 0, 64, 30
1, 143470, Control_c, 0, 64, 29
1, 143483, Note_on_c, 0, 85, 70
1, 143485, Control_c, 0, 64, 28
1, 143500, Control_c, 0, 64, 26
1, 143511, Note_off_c, 0, 82, 63
1, 143515, Control_c, 0, 64, 25
1, 143529, Control_c, 0, 64, 23
1, 143544, Control_c, 0, 64, 23
1, 143604, Control_c, 0, 64, 22
1, 143619, Control_c, 0, 64, 22
1, 143619, Control_c, 0, 67, 113
1, 143663, Control_c, 0, 64, 21
1, 143678, Control_c, 0, 64, 21
1, 143753, Note_on_c, 0, 64, 43
1, 143754, Note_on_c, 0, 67, 43
1, 143759, Control_c, 0, 64, 20
1, 143774, Control_c, 0, 64, 19
1, 143774, Control_c, 0, 67, 113
1, 143789, Control_c, 0, 64, 17
1, 143803, Control_c, 0, 64, 16
1, 143814, Note_off_c, 0, 64, 57
1, 143818, Control_c, 0, 64, 13
1, 143818, Control_c, 0, 67, 114
1, 143825, Note_off_c, 0, 67, 45
1, 143833, Control_c, 0, 64, 0
1, 143908, Control_c, 0, 67, 113
1, 143937, Control_c, 0, 67, 113
1, 143952, Control_c, 0, 67, 112
1, 143961, Note_off_c, 0, 85, 63
1, 143967, Control_c, 0, 67, 112
1, 143982, Control_c, 0, 64, 31
1, 143982, Control_c, 0, 67, 111
1, 143985, Note_on_c, 0, 84, 59
1, 143997, Control_c, 0, 64, 47
1, 143997, Control_c, 0, 67, 111
1, 144012, Control_c, 0, 64, 56
1, 144012, Control_c, 0, 67, 110
1, 144014, Note_on_c, 0, 67, 36
1, 144022, Note_off_c, 0, 84, 63
1, 144027, Note_on_c, 0, 64, 35
1, 144027, Control_c, 0, 64, 60
1, 144033, Note_on_c, 0, 85, 54
1, 144042, Control_c, 0, 64, 61
1, 144042, Control_c, 0, 67, 110
1, 144057, Control_c, 0, 64, 63
1, 144071, Control_c, 0, 64, 64
1, 144086, Control_c, 0, 64, 65
1, 144089, Note_off_c, 0, 64, 41
1, 144096, Note_on_c, 0, 84, 68
1, 144101, Control_c, 0, 64, 65
1, 144111, Note_off_c, 0, 67, 41
1, 144113, Note_off_c, 0, 85, 57
1, 144116, Control_c, 0, 67, 110
1, 144145, Control_c, 0, 67, 111
1, 144175, Control_c, 0, 67, 111
1, 144190, Control_c, 0, 67, 112
1, 144205, Control_c, 0, 64, 64
1, 144218, Control_c, 0, 64, 63
1, 144218, Control_c, 0, 67, 113
1, 144233, Control_c, 0, 64, 62
1, 144233, Control_c, 0, 67, 113
1, 144248, Control_c, 0, 64, 60
1, 144248, Control_c, 0, 67, 114
1, 144262, Control_c, 0, 64, 58
1, 144277, Control_c, 0, 64, 56
1, 144277, Control_c, 0, 67, 114
1, 144292, Control_c, 0, 64, 54
1, 144307, Control_c, 0, 64, 51
1, 144322, Control_c, 0, 64, 49
1, 144325, Note_on_c, 0, 67, 34
1, 144325, Note_on_c, 0, 64, 35
1, 144337, Control_c, 0, 64, 47
1, 144337, Control_c, 0, 67, 115
1, 144351, Control_c, 0, 64, 46
1, 144366, Control_c, 0, 64, 44
1, 144366, Control_c, 0, 67, 115
1, 144381, Control_c, 0, 64, 42
1, 144396, Control_c, 0, 64, 39
1, 144411, Control_c, 0, 64, 36
1, 144411, Control_c, 0, 67, 116
1, 144425, Control_c, 0, 64, 33
1, 144440, Control_c, 0, 64, 31
1, 144445, Note_off_c, 0, 84, 59
1, 144455, Control_c, 0, 64, 29
1, 144462, Note_on_c, 0, 82, 60
1, 144469, Control_c, 0, 64, 28
1, 144480, Note_off_c, 0, 64, 42
1, 144484, Control_c, 0, 64, 26
1, 144507, Control_c, 0, 64, 25
1, 144522, Control_c, 0, 64, 24
1, 144534, Note_off_c, 0, 67, 32
1, 144537, Control_c, 0, 64, 23
1, 144542, Note_off_c, 0, 82, 63
1, 144551, Control_c, 0, 64, 22
1, 144566, Control_c, 0, 64, 22
1, 144581, Control_c, 0, 64, 21
1, 144595, Control_c, 0, 64, 20
1, 144610, Control_c, 0, 64, 19
1, 144611, Note_on_c, 0, 82, 55
1, 144625, Control_c, 0, 64, 18
1, 144640, Control_c, 0, 64, 18
1, 144640, Control_c, 0, 67, 115
1, 144655, Control_c, 0, 64, 17
1, 144744, Control_c, 0, 67, 115
1, 144819, Control_c, 0, 67, 114
1, 144879, Note_on_c, 0, 66, 40
1, 144885, Note_on_c, 0, 63, 34
1, 144963, Note_off_c, 0, 66, 39
1, 144966, Note_off_c, 0, 63, 39
1, 145085, Control_c, 0, 64, 17
1, 145085, Control_c, 0, 67, 115
1, 145100, Control_c, 0, 64, 9
1, 145115, Control_c, 0, 64, 0
1, 145125, Note_off_c, 0, 82, 62
1, 145155, Note_on_c, 0, 81, 42
1, 145160, Control_c, 0, 67, 114
1, 145164, Note_on_c, 0, 63, 39
1, 145184, Note_on_c, 0, 66, 27
1, 145184, Note_off_c, 0, 81, 54
1, 145207, Note_on_c, 0, 82, 40
1, 145218, Control_c, 0, 64, 26
1, 145233, Control_c, 0, 64, 36
1, 145253, Note_off_c, 0, 82, 60
1, 145255, Control_c, 0, 64, 38
1, 145270, Control_c, 0, 64, 37
1, 145274, Note_on_c, 0, 81, 56
1, 145285, Control_c, 0, 64, 34
1, 145300, Control_c, 0, 64, 30
1, 145315, Control_c, 0, 64, 23
1, 145315, Control_c, 0, 67, 115
1, 145329, Note_off_c, 0, 66, 43
1, 145330, Note_off_c, 0, 63, 37
1, 145330, Control_c, 0, 64, 0
1, 145344, Control_c, 0, 67, 115
1, 145418, Control_c, 0, 67, 115
1, 145433, Control_c, 0, 64, 17
1, 145433, Control_c, 0, 67, 114
1, 145448, Control_c, 0, 64, 41
1, 145448, Control_c, 0, 67, 113
1, 145463, Control_c, 0, 64, 54
1, 145463, Control_c, 0, 67, 113
1, 145478, Control_c, 0, 64, 59
1, 145492, Control_c, 0, 64, 60
1, 145492, Control_c, 0, 67, 112
1, 145507, Control_c, 0, 64, 62
1, 145522, Control_c, 0, 64, 63
1, 145527, Note_on_c, 0, 63, 22
1, 145537, Control_c, 0, 64, 65
1, 145539, Note_on_c, 0, 66, 30
1, 145552, Control_c, 0, 64, 66
1, 145568, Control_c, 0, 64, 68
1, 145583, Control_c, 0, 64, 69
1, 145597, Control_c, 0, 64, 70
1, 145624, Note_off_c, 0, 81, 34
1, 145684, Note_off_c, 0, 63, 38
1, 145699, Note_off_c, 0, 66, 27
1, 145701, Control_c, 0, 67, 113
1, 145731, Control_c, 0, 67, 113
1, 145759, Note_on_c, 0, 81, 48
1, 145761, Control_c, 0, 67, 114
1, 145776, Control_c, 0, 67, 114
1, 145790, Control_c, 0, 67, 115
1, 145805, Control_c, 0, 64, 69
1, 145805, Control_c, 0, 67, 116
1, 145820, Control_c, 0, 67, 116
1, 145835, Control_c, 0, 64, 68
1, 145835, Control_c, 0, 67, 117
1, 145848, Note_on_c, 0, 84, 50
1, 145849, Control_c, 0, 64, 67
1, 145849, Control_c, 0, 67, 117
1, 145864, Control_c, 0, 64, 66
1, 145864, Control_c, 0, 67, 118
1, 145879, Control_c, 0, 64, 64
1, 145879, Control_c, 0, 67, 119
1, 145894, Control_c, 0, 64, 61
1, 145894, Control_c, 0, 67, 119
1, 145909, Control_c, 0, 64, 56
1, 145923, Control_c, 0, 64, 52
1, 145923, Control_c, 0, 67, 120
1, 145930, Note_off_c, 0, 81, 32
1, 145938, Control_c, 0, 64, 49
1, 145938, Control_c, 0, 67, 120
1, 145950, Note_on_c, 0, 87, 52
1, 145953, Control_c, 0, 64, 47
1, 145953, Control_c, 0, 67, 121
1, 145968, Control_c, 0, 64, 46
1, 145983, Control_c, 0, 64, 44
1, 146005, Note_off_c, 0, 84, 59
1, 146005, Control_c, 0, 64, 42
1, 146020, Control_c, 0, 64, 40
1, 146035, Control_c, 0, 64, 38
1, 146049, Control_c, 0, 64, 36
1, 146064, Control_c, 0, 64, 35
1, 146079, Control_c, 0, 64, 34
1, 146094, Control_c, 0, 64, 32
1, 146094, Control_c, 0, 67, 120
1, 146109, Control_c, 0, 64, 31
1, 146123, Control_c, 0, 64, 30
1, 146123, Control_c, 0, 67, 120
1, 146138, Control_c, 0, 64, 29
1, 146153, Control_c, 0, 64, 29
1, 146153, Control_c, 0, 67, 119
1, 146168, Control_c, 0, 64, 28
1, 146183, Control_c, 0, 64, 28
1, 146212, Control_c, 0, 64, 27
1, 146227, Control_c, 0, 64, 27
1, 146242, Control_c, 0, 64, 26
1, 146251, Note_on_c, 0, 63, 34
1, 146254, Note_on_c, 0, 66, 28
1, 146257, Control_c, 0, 64, 26
1, 146286, Control_c, 0, 64, 25
1, 146295, Note_off_c, 0, 66, 48
1, 146301, Control_c, 0, 64, 25
1, 146307, Note_off_c, 0, 63, 48
1, 146316, Control_c, 0, 64, 24
1, 146316, Control_c, 0, 67, 120
1, 146331, Control_c, 0, 64, 21
1, 146346, Control_c, 0, 64, 0
1, 146346, Control_c, 0, 67, 120
1, 146435, Control_c, 0, 67, 120
1, 146450, Control_c, 0, 67, 119
1, 146479, Control_c, 0, 64, 18
1, 146479, Control_c, 0, 67, 118
1, 146494, Control_c, 0, 64, 39
1, 146494, Control_c, 0, 67, 117
1, 146509, Control_c, 0, 64, 52
1, 146509, Control_c, 0, 67, 117
1, 146524, Control_c, 0, 64, 57
1, 146524, Control_c, 0, 67, 116
1, 146539, Control_c, 0, 64, 59
1, 146539, Control_c, 0, 67, 116
1, 146545, Note_on_c, 0, 63, 35
1, 146553, Control_c, 0, 64, 60
1, 146557, Note_on_c, 0, 66, 26
1, 146568, Control_c, 0, 64, 62
1, 146568, Control_c, 0, 67, 115
1, 146583, Control_c, 0, 64, 63
1, 146583, Control_c, 0, 67, 115
1, 146598, Control_c, 0, 64, 65
1, 146611, Note_off_c, 0, 66, 43
1, 146613, Control_c, 0, 64, 66
1, 146613, Control_c, 0, 67, 114
1, 146627, Control_c, 0, 64, 67
1, 146642, Control_c, 0, 64, 67
1, 146657, Control_c, 0, 64, 68
1, 146659, Note_off_c, 0, 63, 34
1, 146671, Control_c, 0, 64, 68
1, 146681, Note_on_c, 0, 85, 50
1, 146686, Control_c, 0, 67, 115
1, 146693, Note_off_c, 0, 87, 57
1, 146716, Control_c, 0, 67, 115
1, 146759, Note_off_c, 0, 85, 61
1, 146768, Control_c, 0, 67, 116
1, 146787, Note_on_c, 0, 84, 57
1, 146798, Control_c, 0, 67, 116
1, 146827, Control_c, 0, 64, 68
1, 146827, Control_c, 0, 67, 117
1, 146857, Control_c, 0, 64, 67
1, 146857, Control_c, 0, 67, 117
1, 146871, Control_c, 0, 64, 66
1, 146871, Control_c, 0, 67, 118
1, 146886, Control_c, 0, 64, 66
1, 146901, Control_c, 0, 64, 65
1, 146901, Control_c, 0, 67, 118
1, 146915, Note_off_c, 0, 84, 60
1, 146916, Control_c, 0, 64, 65
1, 146916, Control_c, 0, 67, 119
1, 146917, Note_on_c, 0, 63, 29
1, 146926, Note_on_c, 0, 85, 55
1, 146931, Control_c, 0, 64, 64
1, 146939, Note_on_c, 0, 66, 15
1, 146945, Control_c, 0, 64, 63
1, 146960, Control_c, 0, 64, 62
1, 146975, Control_c, 0, 64, 60
1, 146975, Control_c, 0, 67, 119
1, 146990, Control_c, 0, 64, 59
1, 147005, Control_c, 0, 64, 57
1, 147020, Control_c, 0, 64, 56
1, 147020, Control_c, 0, 67, 120
1, 147024, Note_off_c, 0, 66, 33
1, 147035, Control_c, 0, 64, 56
1, 147041, Note_on_c, 0, 84, 62
1, 147050, Control_c, 0, 64, 54
1, 147061, Note_off_c, 0, 63, 31
1, 147064, Control_c, 0, 64, 53
1, 147064, Control_c, 0, 67, 120
1, 147079, Control_c, 0, 64, 52
1, 147094, Control_c, 0, 64, 51
1, 147094, Control_c, 0, 67, 121
1, 147109, Control_c, 0, 64, 49
1, 147109, Control_c, 0, 67, 121
1, 147124, Control_c, 0, 64, 48
1, 147138, Control_c, 0, 64, 45
1, 147138, Control_c, 0, 67, 122
1, 147149, Note_on_c, 0, 82, 69
1, 147153, Note_off_c, 0, 84, 59
1, 147153, Control_c, 0, 64, 43
1, 147169, Control_c, 0, 64, 41
1, 147169, Control_c, 0, 67, 122
1, 147172, Note_off_c, 0, 85, 34
1, 147184, Control_c, 0, 64, 39
1, 147199, Control_c, 0, 64, 36
1, 147199, Control_c, 0, 67, 123
1, 147213, Control_c, 0, 64, 34
1, 147213, Control_c, 0, 67, 123
1, 147221, Note_off_c, 0, 82, 63
1, 147226, Note_on_c, 0, 81, 63
1, 147228, Control_c, 0, 64, 32
1, 147243, Control_c, 0, 64, 30
1, 147243, Control_c, 0, 67, 124
1, 147255, Note_off_c, 0, 81, 65
1, 147258, Control_c, 0, 64, 28
1, 147273, Control_c, 0, 64, 25
1, 147287, Control_c, 0, 64, 23
1, 147302, Control_c, 0, 64, 22
1, 147317, Control_c, 0, 64, 21
1, 147332, Control_c, 0, 64, 20
1, 147334, Note_on_c, 0, 81, 61
1, 147347, Control_c, 0, 64, 19
1, 147347, Control_c, 0, 67, 123
1, 147361, Control_c, 0, 64, 18
1, 147376, Control_c, 0, 64, 18
1, 147406, Control_c, 0, 64, 17
1, 147421, Control_c, 0, 64, 15
1, 147436, Control_c, 0, 64, 9
1, 147450, Control_c, 0, 64, 0
1, 147517, Control_c, 0, 67, 123
1, 147547, Control_c, 0, 67, 122
1, 147562, Control_c, 0, 67, 122
1, 147576, Control_c, 0, 67, 121
1, 147591, Control_c, 0, 67, 120
1, 147606, Control_c, 0, 67, 120
1, 147616, Note_on_c, 0, 61, 42
1, 147618, Note_on_c, 0, 65, 34
1, 147620, Control_c, 0, 64, 24
1, 147620, Control_c, 0, 67, 119
1, 147635, Control_c, 0, 64, 41
1, 147635, Control_c, 0, 67, 119
1, 147650, Control_c, 0, 64, 53
1, 147650, Control_c, 0, 67, 118
1, 147665, Control_c, 0, 64, 57
1, 147665, Control_c, 0, 67, 118
1, 147679, Note_off_c, 0, 61, 52
1, 147680, Control_c, 0, 64, 60
1, 147694, Control_c, 0, 64, 61
1, 147694, Control_c, 0, 67, 117
1, 147700, Note_off_c, 0, 65, 39
1, 147709, Control_c, 0, 64, 62
1, 147724, Control_c, 0, 64, 63
1, 147724, Control_c, 0, 67, 117
1, 147739, Control_c, 0, 64, 64
1, 147768, Control_c, 0, 64, 64
1, 147783, Control_c, 0, 67, 117
1, 147798, Control_c, 0, 64, 64
1, 147813, Control_c, 0, 67, 118
1, 147820, Note_off_c, 0, 81, 60
1, 147842, Control_c, 0, 64, 63
1, 147854, Note_on_c, 0, 82, 48
1, 147857, Control_c, 0, 64, 61
1, 147857, Control_c, 0, 67, 118
1, 147872, Control_c, 0, 64, 56
1, 147887, Note_on_c, 0, 65, 29
1, 147887, Control_c, 0, 64, 45
1, 147887, Control_c, 0, 67, 119
1, 147890, Note_off_c, 0, 82, 63
1, 147894, Note_on_c, 0, 61, 35
1, 147902, Control_c, 0, 64, 0
1, 147926, Note_on_c, 0, 81, 45
1, 147962, Control_c, 0, 67, 118
1, 147968, Note_off_c, 0, 81, 59
1, 147977, Control_c, 0, 64, 20
1, 147992, Control_c, 0, 64, 43
1, 147997, Note_on_c, 0, 82, 45
1, 148006, Control_c, 0, 64, 56
1, 148021, Control_c, 0, 64, 60
1, 148035, Note_off_c, 0, 65, 39
1, 148036, Control_c, 0, 64, 62
1, 148047, Note_off_c, 0, 61, 39
1, 148051, Control_c, 0, 64, 63
1, 148066, Control_c, 0, 64, 64
1, 148066, Control_c, 0, 67, 118
1, 148081, Control_c, 0, 64, 65
1, 148110, Control_c, 0, 67, 118
1, 148155, Control_c, 0, 67, 119
1, 148184, Control_c, 0, 67, 119
1, 148214, Control_c, 0, 64, 64
1, 148214, Control_c, 0, 67, 120
1, 148229, Control_c, 0, 64, 64
1, 148229, Control_c, 0, 67, 120
1, 148251, Control_c, 0, 64, 63
1, 148266, Control_c, 0, 64, 62
1, 148266, Control_c, 0, 67, 121
1, 148281, Control_c, 0, 64, 61
1, 148284, Note_on_c, 0, 61, 30
1, 148293, Note_on_c, 0, 65, 26
1, 148296, Control_c, 0, 64, 61
1, 148296, Control_c, 0, 67, 121
1, 148310, Control_c, 0, 64, 60
1, 148310, Control_c, 0, 67, 122
1, 148325, Control_c, 0, 64, 59
1, 148340, Control_c, 0, 64, 58
1, 148340, Control_c, 0, 67, 122
1, 148355, Control_c, 0, 64, 56
1, 148370, Control_c, 0, 64, 55
1, 148370, Control_c, 0, 67, 123
1, 148385, Control_c, 0, 64, 54
1, 148399, Control_c, 0, 64, 52
1, 148414, Control_c, 0, 64, 51
1, 148429, Control_c, 0, 64, 50
1, 148443, Control_c, 0, 64, 48
1, 148454, Note_on_c, 0, 77, 42
1, 148456, Note_off_c, 0, 82, 60
1, 148457, Note_off_c, 0, 65, 39
1, 148458, Control_c, 0, 64, 47
1, 148473, Control_c, 0, 64, 45
1, 148488, Control_c, 0, 64, 44
1, 148503, Control_c, 0, 64, 42
1, 148508, Note_off_c, 0, 61, 30
1, 148517, Control_c, 0, 64, 40
1, 148532, Control_c, 0, 64, 38
1, 148547, Control_c, 0, 64, 36
1, 148562, Control_c, 0, 64, 35
1, 148562, Control_c, 0, 67, 122
1, 148577, Control_c, 0, 64, 34
1, 148591, Control_c, 0, 64, 32
1, 148591, Control_c, 0, 67, 122
1, 148606, Control_c, 0, 64, 31
1, 148621, Control_c, 0, 64, 31
1, 148621, Control_c, 0, 67, 121
1, 148635, Control_c, 0, 64, 30
1, 148650, Control_c, 0, 64, 28
1, 148650, Control_c, 0, 67, 121
1, 148665, Control_c, 0, 64, 27
1, 148680, Control_c, 0, 64, 26
1, 148695, Control_c, 0, 64, 26
1, 148710, Control_c, 0, 64, 25
1, 148710, Control_c, 0, 67, 120
1, 148801, Control_c, 0, 67, 120
1, 148845, Control_c, 0, 67, 119
1, 148889, Control_c, 0, 67, 119
1, 148895, Note_on_c, 0, 89, 66
1, 148948, Control_c, 0, 67, 118
1, 149053, Note_off_c, 0, 77, 56
1, 149243, Note_on_c, 0, 65, 26
1, 149249, Note_on_c, 0, 61, 33
1, 149267, Control_c, 0, 67, 119
1, 149306, Note_off_c, 0, 61, 45
1, 149308, Note_off_c, 0, 65, 43
1, 149341, Control_c, 0, 64, 25
1, 149356, Control_c, 0, 64, 24
1, 149371, Control_c, 0, 64, 23
1, 149386, Control_c, 0, 64, 21
1, 149400, Control_c, 0, 64, 19
1, 149415, Control_c, 0, 64, 17
1, 149415, Control_c, 0, 67, 119
1, 149430, Control_c, 0, 64, 9
1, 149445, Control_c, 0, 64, 0
1, 149489, Control_c, 0, 67, 119
1, 149534, Control_c, 0, 67, 118
1, 149555, Note_on_c, 0, 65, 32
1, 149564, Control_c, 0, 64, 15
1, 149564, Control_c, 0, 67, 118
1, 149565, Note_on_c, 0, 61, 36
1, 149579, Control_c, 0, 64, 37
1, 149579, Control_c, 0, 67, 117
1, 149594, Control_c, 0, 64, 50
1, 149594, Control_c, 0, 67, 117
1, 149609, Control_c, 0, 64, 55
1, 149624, Control_c, 0, 64, 58
1, 149624, Control_c, 0, 67, 116
1, 149638, Control_c, 0, 64, 59
1, 149653, Control_c, 0, 64, 61
1, 149653, Control_c, 0, 67, 116
1, 149661, Note_off_c, 0, 61, 36
1, 149661, Note_off_c, 0, 65, 40
1, 149668, Control_c, 0, 64, 62
1, 149682, Control_c, 0, 64, 63
1, 149697, Control_c, 0, 64, 64
1, 149703, Note_on_c, 0, 87, 48
1, 149712, Control_c, 0, 64, 64
1, 149750, Control_c, 0, 67, 116
1, 149772, Note_off_c, 0, 89, 54
1, 149816, Note_off_c, 0, 87, 57
1, 149832, Note_on_c, 0, 85, 53
1, 149883, Control_c, 0, 64, 64
1, 149883, Control_c, 0, 67, 117
1, 149897, Control_c, 0, 64, 63
1, 149912, Control_c, 0, 64, 63
1, 149927, Control_c, 0, 64, 62
1, 149934, Note_off_c, 0, 85, 58
1, 149942, Control_c, 0, 64, 60
1, 149947, Note_on_c, 0, 87, 56
1, 149957, Control_c, 0, 64, 55
1, 149970, Note_on_c, 0, 65, 36
1, 149971, Control_c, 0, 64, 47
1, 149986, Control_c, 0, 64, 28
1, 149993, Note_on_c, 0, 61, 29
1, 150001, Control_c, 0, 64, 0
1, 150030, Control_c, 0, 67, 116
1, 150060, Control_c, 0, 67, 116
1, 150075, Control_c, 0, 64, 25
1, 150075, Control_c, 0, 67, 115
1, 150090, Control_c, 0, 64, 45
1, 150090, Control_c, 0, 67, 114
1, 150092, Note_on_c, 0, 85, 53
1, 150105, Control_c, 0, 64, 56
1, 150105, Control_c, 0, 67, 114
1, 150120, Control_c, 0, 64, 59
1, 150120, Control_c, 0, 67, 113
1, 150135, Control_c, 0, 64, 60
1, 150135, Control_c, 0, 67, 113
1, 150135, Note_off_c, 0, 61, 43
1, 150150, Control_c, 0, 64, 61
1, 150150, Control_c, 0, 67, 112
1, 150164, Control_c, 0, 64, 62
1, 150164, Control_c, 0, 67, 111
1, 150179, Control_c, 0, 64, 63
1, 150179, Control_c, 0, 67, 111
1, 150194, Control_c, 0, 67, 110
1, 150208, Control_c, 0, 64, 63
1, 150215, Note_on_c, 0, 84, 60
1, 150239, Note_off_c, 0, 87, 33
1, 150244, Note_off_c, 0, 65, 34
1, 150252, Control_c, 0, 67, 110
1, 150275, Note_off_c, 0, 85, 35
1, 150282, Control_c, 0, 64, 63
1, 150296, Control_c, 0, 67, 109
1, 150311, Control_c, 0, 67, 109
1, 150318, Note_off_c, 0, 84, 62
1, 150326, Control_c, 0, 67, 108
1, 150332, Note_on_c, 0, 83, 53
1, 150341, Control_c, 0, 64, 62
1, 150357, Control_c, 0, 64, 62
1, 150357, Control_c, 0, 67, 108
1, 150372, Control_c, 0, 67, 107
1, 150386, Control_c, 0, 64, 61
1, 150416, Control_c, 0, 64, 61
1, 150416, Control_c, 0, 67, 106
1, 150430, Control_c, 0, 64, 60
1, 150445, Control_c, 0, 64, 59
1, 150460, Control_c, 0, 64, 59
1, 150475, Control_c, 0, 64, 58
1, 150498, Control_c, 0, 64, 56
1, 150498, Control_c, 0, 67, 106
1, 150512, Control_c, 0, 64, 55
1, 150527, Control_c, 0, 64, 53
1, 150542, Control_c, 0, 64, 51
1, 150557, Control_c, 0, 64, 49
1, 150572, Control_c, 0, 64, 46
1, 150574, Note_on_c, 0, 84, 45
1, 150586, Control_c, 0, 64, 43
1, 150593, Note_off_c, 0, 83, 35
1, 150601, Control_c, 0, 64, 39
1, 150606, Note_on_c, 0, 60, 27
1, 150616, Control_c, 0, 64, 35
1, 150617, Note_on_c, 0, 64, 27
1, 150631, Control_c, 0, 64, 29
1, 150645, Control_c, 0, 64, 16
1, 150660, Control_c, 0, 64, 0
1, 150675, Control_c, 0, 67, 105
1, 150705, Control_c, 0, 67, 105
1, 150719, Control_c, 0, 67, 103
1, 150734, Control_c, 0, 67, 101
1, 150749, Control_c, 0, 67, 100
1, 150764, Control_c, 0, 67, 98
1, 150779, Control_c, 0, 64, 30
1, 150779, Control_c, 0, 67, 95
1, 150794, Control_c, 0, 64, 46
1, 150794, Control_c, 0, 67, 92
1, 150808, Control_c, 0, 64, 55
1, 150808, Control_c, 0, 67, 89
1, 150823, Control_c, 0, 64, 59
1, 150823, Control_c, 0, 67, 86
1, 150838, Control_c, 0, 64, 62
1, 150838, Control_c, 0, 67, 83
1, 150853, Control_c, 0, 64, 64
1, 150853, Control_c, 0, 67, 79
1, 150868, Control_c, 0, 64, 65
1, 150868, Control_c, 0, 67, 74
1, 150873, Note_off_c, 0, 84, 60
1, 150883, Control_c, 0, 64, 67
1, 150883, Control_c, 0, 67, 68
1, 150898, Control_c, 0, 64, 69
1, 150898, Control_c, 0, 67, 60
1, 150912, Control_c, 0, 64, 70
1, 150912, Control_c, 0, 67, 53
1, 150927, Control_c, 0, 64, 71
1, 150927, Control_c, 0, 67, 47
1, 150942, Control_c, 0, 64, 71
1, 150942, Control_c, 0, 67, 40
1, 150957, Control_c, 0, 67, 34
1, 150972, Control_c, 0, 64, 72
1, 150972, Control_c, 0, 67, 28
1, 150986, Control_c, 0, 67, 23
1, 151001, Control_c, 0, 67, 18
1, 151016, Control_c, 0, 67, 14
1, 151030, Control_c, 0, 67, 11
1, 151045, Control_c, 0, 67, 9
1, 151060, Control_c, 0, 67, 0
1, 151104, Control_c, 0, 64, 71
1, 151134, Control_c, 0, 64, 70
1, 151149, Control_c, 0, 64, 70
1, 151165, Control_c, 0, 64, 68
1, 151180, Control_c, 0, 64, 67
1, 151195, Control_c, 0, 64, 66
1, 151209, Control_c, 0, 64, 64
1, 151224, Control_c, 0, 64, 62
1, 151247, Control_c, 0, 64, 60
1, 151262, Control_c, 0, 64, 57
1, 151276, Control_c, 0, 64, 53
1, 151291, Control_c, 0, 64, 48
1, 151306, Control_c, 0, 64, 36
1, 151316, Note_on_c, 0, 72, 35
1, 151321, Control_c, 0, 64, 0
1, 151380, Control_c, 0, 64, 12
1, 151395, Control_c, 0, 64, 37
1, 151409, Control_c, 0, 64, 52
1, 151424, Control_c, 0, 64, 58
1, 151439, Control_c, 0, 64, 60
1, 151454, Control_c, 0, 64, 61
1, 151456, Note_off_c, 0, 60, 45
1, 151468, Control_c, 0, 64, 62
1, 151473, Note_off_c, 0, 64, 41
1, 151483, Control_c, 0, 64, 62
1, 151485, Note_on_c, 0, 76, 54
1, 151527, Note_off_c, 0, 72, 40
1, 151566, Note_off_c, 0, 76, 56
1, 151587, Control_c, 0, 64, 62
1, 151595, Note_on_c, 0, 74, 45
1, 151602, Control_c, 0, 64, 61
1, 151616, Control_c, 0, 64, 59
1, 151625, Note_off_c, 0, 74, 62
1, 151631, Control_c, 0, 64, 57
1, 151646, Control_c, 0, 64, 54
1, 151661, Control_c, 0, 64, 50
1, 151676, Control_c, 0, 64, 42
1, 151691, Control_c, 0, 64, 29
1, 151706, Note_on_c, 0, 74, 66
1, 151706, Control_c, 0, 64, 0
1, 151788, Note_on_c, 0, 77, 65
1, 151806, Note_off_c, 0, 74, 59
1, 151809, Control_c, 0, 64, 30
1, 151824, Control_c, 0, 64, 48
1, 151839, Control_c, 0, 64, 55
1, 151853, Control_c, 0, 64, 57
1, 151861, Note_off_c, 0, 77, 64
1, 151868, Control_c, 0, 64, 58
1, 151874, Note_on_c, 0, 76, 65
1, 151900, Note_off_c, 0, 76, 67
1, 151942, Control_c, 0, 64, 57
1, 151958, Control_c, 0, 64, 54
1, 151959, Note_on_c, 0, 76, 78
1, 151973, Control_c, 0, 64, 36
1, 151995, Control_c, 0, 64, 0
1, 152054, Note_on_c, 0, 79, 71
1, 152069, Control_c, 0, 64, 21
1, 152084, Note_off_c, 0, 76, 58
1, 152084, Control_c, 0, 64, 43
1, 152099, Control_c, 0, 64, 53
1, 152114, Control_c, 0, 64, 56
1, 152132, Note_off_c, 0, 79, 65
1, 152138, Note_on_c, 0, 77, 71
1, 152163, Note_off_c, 0, 77, 68
1, 152173, Control_c, 0, 64, 54
1, 152188, Control_c, 0, 64, 47
1, 152203, Control_c, 0, 64, 24
1, 152218, Control_c, 0, 64, 0
1, 152219, Note_on_c, 0, 77, 78
1, 152291, Control_c, 0, 64, 35
1, 152306, Control_c, 0, 64, 50
1, 152317, Note_on_c, 0, 80, 78
1, 152321, Control_c, 0, 64, 55
1, 152332, Note_off_c, 0, 77, 65
1, 152336, Control_c, 0, 64, 56
1, 152394, Note_on_c, 0, 79, 76
1, 152410, Note_off_c, 0, 80, 58
1, 152424, Control_c, 0, 64, 55
1, 152430, Note_off_c, 0, 79, 65
1, 152439, Control_c, 0, 64, 51
1, 152455, Control_c, 0, 64, 41
1, 152470, Control_c, 0, 64, 0
1, 152501, Note_on_c, 0, 79, 75
1, 152558, Control_c, 0, 64, 35
1, 152573, Control_c, 0, 64, 54
1, 152576, Note_on_c, 0, 82, 75
1, 152588, Control_c, 0, 64, 59
1, 152597, Note_off_c, 0, 79, 59
1, 152603, Control_c, 0, 64, 60
1, 152633, Control_c, 0, 64, 60
1, 152662, Note_off_c, 0, 82, 51
1, 152670, Note_on_c, 0, 80, 79
1, 152677, Control_c, 0, 64, 59
1, 152692, Control_c, 0, 64, 52
1, 152698, Note_off_c, 0, 80, 64
1, 152707, Control_c, 0, 64, 25
1, 152722, Control_c, 0, 64, 0
1, 152779, Note_on_c, 0, 80, 81
1, 152789, Control_c, 0, 64, 35
1, 152804, Control_c, 0, 64, 53
1, 152819, Control_c, 0, 64, 59
1, 152834, Control_c, 0, 64, 60
1, 152851, Note_off_c, 0, 80, 63
1, 152864, Note_on_c, 0, 84, 74
1, 152878, Control_c, 0, 64, 59
1, 152893, Control_c, 0, 64, 58
1, 152907, Control_c, 0, 64, 54
1, 152922, Control_c, 0, 64, 50
1, 152937, Control_c, 0, 64, 42
1, 152949, Note_on_c, 0, 82, 81
1, 152952, Control_c, 0, 64, 28
1, 152961, Note_off_c, 0, 84, 61
1, 152967, Control_c, 0, 64, 0
1, 153024, Note_on_c, 0, 81, 85
1, 153024, Note_off_c, 0, 82, 64
1, 153109, Note_on_c, 0, 84, 86
1, 153139, Note_off_c, 0, 81, 62
1, 153145, Control_c, 0, 64, 48
1, 153160, Control_c, 0, 64, 57
1, 153175, Control_c, 0, 64, 61
1, 153187, Note_on_c, 0, 82, 84
1, 153189, Control_c, 0, 64, 63
1, 153197, Note_off_c, 0, 84, 65
1, 153204, Control_c, 0, 64, 64
1, 153219, Control_c, 0, 64, 64
1, 153234, Note_on_c, 0, 64, 63
1, 153238, Note_off_c, 0, 82, 65
1, 153295, Note_on_c, 0, 82, 79
1, 153301, Note_on_c, 0, 67, 61
1, 153307, Control_c, 0, 64, 63
1, 153322, Control_c, 0, 64, 62
1, 153327, Note_on_c, 0, 70, 69
1, 153337, Control_c, 0, 64, 60
1, 153352, Control_c, 0, 64, 57
1, 153367, Control_c, 0, 64, 54
1, 153381, Control_c, 0, 64, 51
1, 153396, Control_c, 0, 64, 46
1, 153407, Note_on_c, 0, 73, 76
1, 153411, Control_c, 0, 64, 37
1, 153426, Control_c, 0, 64, 20
1, 153441, Control_c, 0, 64, 0
1, 153716, Control_c, 0, 64, 40
1, 153730, Control_c, 0, 64, 53
1, 153745, Control_c, 0, 64, 58
1, 153760, Control_c, 0, 64, 63
1, 153774, Note_off_c, 0, 82, 58
1, 153775, Control_c, 0, 64, 68
1, 153790, Control_c, 0, 64, 74
1, 153804, Control_c, 0, 64, 81
1, 153819, Control_c, 0, 64, 90
1, 153834, Control_c, 0, 64, 99
1, 153849, Control_c, 0, 64, 114
1, 153864, Control_c, 0, 64, 127
1, 153915, Note_off_c, 0, 70, 0
1, 153932, Note_off_c, 0, 67, 35
1, 153939, Note_off_c, 0, 64, 42
1, 153948, Poly_aftertouch_c, 0, 70, 0
1, 153960, Note_off_c, 0, 73, 50
1, 154130, Control_c, 0, 64, 76
1, 154145, Control_c, 0, 64, 54
1, 154160, Control_c, 0, 64, 0
1, 154502, Note_on_c, 0, 79, 85
1, 154593, Note_on_c, 0, 80, 84
1, 154596, Note_off_c, 0, 79, 61
1, 154597, Note_on_c, 0, 72, 70
1, 154598, Note_on_c, 0, 68, 64
1, 154600, Note_on_c, 0, 65, 64
1, 154673, Note_off_c, 0, 80, 64
1, 154678, Note_on_c, 0, 84, 76
1, 154731, Control_c, 0, 64, 44
1, 154746, Control_c, 0, 64, 57
1, 154760, Control_c, 0, 64, 58
1, 154764, Note_on_c, 0, 82, 78
1, 154775, Control_c, 0, 64, 60
1, 154790, Control_c, 0, 64, 64
1, 154804, Control_c, 0, 64, 68
1, 154807, Note_off_c, 0, 68, 54
1, 154814, Note_off_c, 0, 65, 57
1, 154819, Control_c, 0, 64, 72
1, 154820, Note_off_c, 0, 84, 56
1, 154821, Note_off_c, 0, 72, 58
1, 154834, Control_c, 0, 64, 75
1, 154841, Note_on_c, 0, 80, 79
1, 154849, Control_c, 0, 64, 76
1, 154878, Control_c, 0, 64, 76
1, 154896, Note_off_c, 0, 82, 60
1, 154915, Note_on_c, 0, 79, 71
1, 154937, Note_off_c, 0, 80, 63
1, 154964, Note_off_c, 0, 79, 64
1, 154990, Control_c, 0, 64, 75
1, 154992, Note_on_c, 0, 77, 72
1, 155005, Control_c, 0, 64, 73
1, 155019, Control_c, 0, 64, 70
1, 155034, Control_c, 0, 64, 66
1, 155049, Control_c, 0, 64, 62
1, 155064, Note_off_c, 0, 77, 54
1, 155064, Control_c, 0, 64, 54
1, 155076, Note_on_c, 0, 75, 78
1, 155079, Control_c, 0, 64, 46
1, 155093, Control_c, 0, 64, 36
1, 155108, Control_c, 0, 64, 21
1, 155123, Control_c, 0, 64, 0
1, 155155, Note_on_c, 0, 73, 69
1, 155173, Note_off_c, 0, 75, 61
1, 155214, Note_off_c, 0, 73, 65
1, 155225, Note_on_c, 0, 72, 70
1, 155298, Note_on_c, 0, 70, 76
1, 155299, Note_off_c, 0, 72, 59
1, 155373, Note_on_c, 0, 68, 78
1, 155445, Note_on_c, 0, 67, 78
1, 155465, Note_off_c, 0, 70, 56
1, 155517, Note_off_c, 0, 68, 60
1, 155536, Note_on_c, 0, 65, 79
1, 155545, Note_off_c, 0, 67, 63
1, 155807, Note_on_c, 0, 59, 84
1, 155813, Note_on_c, 0, 47, 77
1, 155842, Control_c, 0, 64, 33
1, 155857, Control_c, 0, 64, 51
1, 155872, Control_c, 0, 64, 59
1, 155887, Control_c, 0, 64, 64
1, 155902, Control_c, 0, 64, 68
1, 155910, Note_off_c, 0, 59, 63
1, 155916, Control_c, 0, 64, 71
1, 155931, Control_c, 0, 64, 74
1, 155946, Control_c, 0, 64, 75
1, 155962, Control_c, 0, 64, 76
1, 156051, Control_c, 0, 64, 75
1, 156064, Note_on_c, 0, 60, 81
1, 156065, Control_c, 0, 64, 74
1, 156080, Control_c, 0, 64, 71
1, 156081, Note_on_c, 0, 48, 82
1, 156095, Control_c, 0, 64, 65
1, 156109, Note_off_c, 0, 60, 62
1, 156110, Control_c, 0, 64, 58
1, 156111, Note_off_c, 0, 47, 38
1, 156124, Control_c, 0, 64, 47
1, 156128, Note_off_c, 0, 48, 64
1, 156139, Control_c, 0, 64, 40
1, 156154, Control_c, 0, 64, 36
1, 156169, Control_c, 0, 64, 35
1, 156184, Control_c, 0, 64, 34
1, 156199, Control_c, 0, 64, 33
1, 156214, Control_c, 0, 64, 32
1, 156258, Control_c, 0, 64, 32
1, 156273, Control_c, 0, 64, 30
1, 156288, Control_c, 0, 64, 28
1, 156303, Control_c, 0, 64, 27
1, 156318, Control_c, 0, 64, 27
1, 156334, Note_on_c, 0, 48, 80
1, 156338, Note_on_c, 0, 68, 77
1, 156344, Note_on_c, 0, 36, 75
1, 156362, Note_off_c, 0, 48, 67
1, 156362, Control_c, 0, 64, 26
1, 156382, Note_off_c, 0, 36, 64
1, 156404, Note_off_c, 0, 65, 62
1, 156405, Note_on_c, 0, 67, 79
1, 156422, Control_c, 0, 64, 26
1, 156451, Control_c, 0, 64, 25
1, 156463, Note_off_c, 0, 68, 57
1, 156466, Control_c, 0, 64, 23
1, 156503, Control_c, 0, 64, 23
1, 156532, Control_c, 0, 64, 21
1, 156547, Control_c, 0, 64, 19
1, 156562, Control_c, 0, 64, 17
1, 156577, Control_c, 0, 64, 13
1, 156592, Control_c, 0, 64, 0
1, 156690, Note_on_c, 0, 65, 71
1, 156700, Note_off_c, 0, 67, 63
1, 156727, Note_on_c, 0, 41, 85
1, 156731, Note_on_c, 0, 29, 80
1, 156800, Control_c, 0, 64, 26
1, 156808, Note_off_c, 0, 65, 62
1, 156815, Control_c, 0, 64, 48
1, 156830, Control_c, 0, 64, 57
1, 156845, Control_c, 0, 64, 62
1, 156860, Control_c, 0, 64, 65
1, 156875, Control_c, 0, 64, 67
1, 156889, Control_c, 0, 64, 69
1, 156904, Control_c, 0, 64, 70
1, 156991, Control_c, 0, 64, 69
1, 157006, Control_c, 0, 64, 69
1, 157021, Control_c, 0, 64, 68
1, 157036, Control_c, 0, 64, 67
1, 157050, Control_c, 0, 64, 65
1, 157065, Control_c, 0, 64, 64
1, 157080, Control_c, 0, 64, 62
1, 157095, Control_c, 0, 64, 59
1, 157110, Control_c, 0, 64, 57
1, 157125, Control_c, 0, 64, 56
1, 157140, Control_c, 0, 64, 54
1, 157154, Control_c, 0, 64, 52
1, 157169, Control_c, 0, 64, 48
1, 157184, Control_c, 0, 64, 43
1, 157198, Control_c, 0, 64, 34
1, 157213, Control_c, 0, 64, 22
1, 157228, Note_on_c, 0, 72, 80
1, 157235, Control_c, 0, 64, 0
1, 157355, Note_on_c, 0, 76, 76
1, 157396, Note_off_c, 0, 72, 60
1, 157398, Control_c, 0, 64, 19
1, 157413, Control_c, 0, 64, 50
1, 157428, Note_off_c, 0, 76, 63
1, 157428, Control_c, 0, 64, 59
1, 157441, Note_on_c, 0, 74, 76
1, 157443, Control_c, 0, 64, 62
1, 157458, Control_c, 0, 64, 64
1, 157468, Note_off_c, 0, 74, 68
1, 157478, Note_off_c, 0, 41, 61
1, 157486, Note_off_c, 0, 29, 63
1, 157487, Control_c, 0, 64, 64
1, 157502, Control_c, 0, 64, 64
1, 157517, Control_c, 0, 64, 63
1, 157532, Control_c, 0, 64, 60
1, 157536, Note_on_c, 0, 74, 73
1, 157548, Control_c, 0, 64, 54
1, 157563, Control_c, 0, 64, 47
1, 157577, Control_c, 0, 64, 40
1, 157592, Control_c, 0, 64, 31
1, 157607, Control_c, 0, 64, 16
1, 157607, Control_c, 0, 67, 12
1, 157622, Control_c, 0, 64, 0
1, 157622, Control_c, 0, 67, 15
1, 157631, Note_on_c, 0, 77, 76
1, 157637, Control_c, 0, 67, 18
1, 157650, Note_off_c, 0, 74, 62
1, 157651, Control_c, 0, 67, 20
1, 157666, Control_c, 0, 67, 21
1, 157700, Note_off_c, 0, 77, 65
1, 157709, Note_on_c, 0, 76, 73
1, 157737, Note_off_c, 0, 76, 65
1, 157793, Note_on_c, 0, 76, 75
1, 157814, Control_c, 0, 67, 20
1, 157880, Note_on_c, 0, 79, 75
1, 157899, Note_off_c, 0, 76, 61
1, 157948, Control_c, 0, 67, 21
1, 157956, Note_off_c, 0, 79, 64
1, 157963, Note_on_c, 0, 77, 70
1, 157963, Control_c, 0, 67, 21
1, 157996, Note_off_c, 0, 77, 68
1, 158014, Control_c, 0, 67, 22
1, 158028, Control_c, 0, 67, 24
1, 158043, Control_c, 0, 67, 29
1, 158056, Note_on_c, 0, 77, 70
1, 158058, Control_c, 0, 67, 35
1, 158073, Control_c, 0, 67, 41
1, 158088, Control_c, 0, 67, 45
1, 158103, Control_c, 0, 67, 48
1, 158118, Control_c, 0, 67, 50
1, 158133, Control_c, 0, 67, 51
1, 158159, Note_on_c, 0, 80, 66
1, 158168, Note_off_c, 0, 77, 60
1, 158177, Control_c, 0, 67, 50
1, 158207, Control_c, 0, 67, 51
1, 158232, Note_on_c, 0, 79, 71
1, 158236, Note_off_c, 0, 80, 59
1, 158236, Control_c, 0, 67, 51
1, 158266, Control_c, 0, 67, 52
1, 158273, Note_off_c, 0, 79, 64
1, 158281, Control_c, 0, 67, 55
1, 158295, Control_c, 0, 67, 59
1, 158310, Control_c, 0, 67, 64
1, 158325, Control_c, 0, 67, 69
1, 158340, Control_c, 0, 67, 73
1, 158349, Note_on_c, 0, 79, 61
1, 158356, Control_c, 0, 67, 77
1, 158371, Control_c, 0, 67, 80
1, 158386, Control_c, 0, 67, 84
1, 158400, Control_c, 0, 67, 87
1, 158415, Control_c, 0, 67, 90
1, 158428, Note_on_c, 0, 82, 63
1, 158428, Note_off_c, 0, 79, 62
1, 158430, Control_c, 0, 67, 92
1, 158444, Control_c, 0, 67, 93
1, 158459, Control_c, 0, 67, 95
1, 158474, Control_c, 0, 67, 96
1, 158504, Control_c, 0, 67, 97
1, 158505, Note_off_c, 0, 82, 59
1, 158519, Control_c, 0, 67, 98
1, 158523, Note_on_c, 0, 80, 59
1, 158533, Control_c, 0, 67, 99
1, 158542, Note_off_c, 0, 80, 63
1, 158593, Control_c, 0, 67, 100
1, 158607, Control_c, 0, 67, 100
1, 158618, Note_on_c, 0, 80, 62
1, 158681, Control_c, 0, 67, 100
1, 158706, Note_off_c, 0, 80, 62
1, 158711, Control_c, 0, 67, 99
1, 158734, Note_on_c, 0, 84, 62
1, 158778, Control_c, 0, 67, 100
1, 158807, Control_c, 0, 67, 100
1, 158822, Control_c, 0, 67, 101
1, 158826, Note_off_c, 0, 84, 59
1, 158837, Control_c, 0, 67, 101
1, 158845, Note_on_c, 0, 82, 64
1, 158851, Control_c, 0, 67, 103
1, 158866, Control_c, 0, 67, 106
1, 158881, Control_c, 0, 67, 108
1, 158896, Control_c, 0, 67, 109
1, 158911, Control_c, 0, 67, 111
1, 158925, Control_c, 0, 67, 112
1, 158926, Note_off_c, 0, 82, 62
1, 158940, Control_c, 0, 67, 113
1, 158949, Note_on_c, 0, 81, 61
1, 158955, Control_c, 0, 67, 116
1, 158970, Control_c, 0, 67, 117
1, 158985, Control_c, 0, 67, 118
1, 159000, Control_c, 0, 67, 119
1, 159015, Control_c, 0, 67, 120
1, 159030, Control_c, 0, 67, 121
1, 159044, Control_c, 0, 67, 122
1, 159049, Note_off_c, 0, 81, 56
1, 159057, Note_on_c, 0, 84, 64
1, 159059, Control_c, 0, 67, 123
1, 159074, Control_c, 0, 67, 123
1, 159089, Control_c, 0, 67, 124
1, 159118, Control_c, 0, 67, 124
1, 159139, Note_off_c, 0, 84, 62
1, 159149, Control_c, 0, 67, 125
1, 159152, Note_on_c, 0, 82, 59
1, 159164, Control_c, 0, 67, 125
1, 159179, Control_c, 0, 67, 126
1, 159208, Note_on_c, 0, 64, 48
1, 159209, Control_c, 0, 67, 126
1, 159223, Note_off_c, 0, 82, 62
1, 159224, Control_c, 0, 67, 127
1, 159238, Control_c, 0, 67, 127
1, 159253, Note_on_c, 0, 81, 61
1, 159322, Note_on_c, 0, 67, 45
1, 159349, Note_off_c, 0, 81, 57
1, 159356, Note_on_c, 0, 82, 59
1, 159402, Note_on_c, 0, 70, 42
1, 159411, Note_off_c, 0, 82, 60
1, 159453, Note_on_c, 0, 84, 49
1, 159487, Note_off_c, 0, 84, 60
1, 159492, Note_on_c, 0, 73, 43
1, 159498, Control_c, 0, 64, 18
1, 159513, Control_c, 0, 64, 36
1, 159528, Control_c, 0, 64, 44
1, 159528, Control_c, 0, 67, 126
1, 159529, Note_on_c, 0, 82, 50
1, 159543, Control_c, 0, 64, 49
1, 159543, Control_c, 0, 67, 126
1, 159551, Note_off_c, 0, 82, 59
1, 159557, Control_c, 0, 64, 52
1, 159557, Control_c, 0, 67, 125
1, 159569, Note_on_c, 0, 84, 68
1, 159572, Control_c, 0, 64, 54
1, 159587, Control_c, 0, 64, 55
1, 159587, Control_c, 0, 67, 124
1, 159602, Control_c, 0, 64, 56
1, 159602, Control_c, 0, 67, 124
1, 159602, Note_off_c, 0, 84, 63
1, 159617, Control_c, 0, 64, 58
1, 159617, Control_c, 0, 67, 123
1, 159629, Note_on_c, 0, 82, 57
1, 159631, Control_c, 0, 64, 59
1, 159646, Control_c, 0, 64, 60
1, 159646, Control_c, 0, 67, 123
1, 159661, Control_c, 0, 64, 60
1, 159665, Note_off_c, 0, 82, 65
1, 159675, Control_c, 0, 64, 61
1, 159675, Control_c, 0, 67, 122
1, 159679, Note_on_c, 0, 84, 61
1, 159690, Control_c, 0, 64, 61
1, 159690, Control_c, 0, 67, 122
1, 159705, Control_c, 0, 64, 62
1, 159712, Note_off_c, 0, 84, 65
1, 159720, Control_c, 0, 64, 63
1, 159735, Control_c, 0, 64, 63
1, 159745, Note_on_c, 0, 82, 59
1, 159749, Control_c, 0, 64, 64
1, 159767, Note_off_c, 0, 82, 62
1, 159779, Control_c, 0, 64, 64
1, 159781, Note_on_c, 0, 84, 68
1, 159808, Control_c, 0, 64, 65
1, 159810, Note_off_c, 0, 84, 67
1, 159823, Control_c, 0, 64, 65
1, 159838, Control_c, 0, 64, 66
1, 159850, Note_on_c, 0, 82, 55
1, 159853, Control_c, 0, 64, 67
1, 159868, Control_c, 0, 64, 67
1, 159868, Control_c, 0, 67, 122
1, 159870, Note_off_c, 0, 82, 63
1, 159876, Note_on_c, 0, 84, 73
1, 159882, Control_c, 0, 64, 68
1, 159897, Control_c, 0, 64, 68
1, 159911, Note_off_c, 0, 84, 62
1, 159912, Control_c, 0, 64, 69
1, 159927, Control_c, 0, 64, 70
1, 159943, Control_c, 0, 64, 71
1, 159945, Note_on_c, 0, 82, 65
1, 159958, Control_c, 0, 64, 72
1, 159958, Control_c, 0, 67, 122
1, 159968, Note_off_c, 0, 82, 63
1, 159972, Control_c, 0, 64, 73
1, 159987, Note_on_c, 0, 84, 68
1, 159987, Control_c, 0, 64, 74
1, 160002, Control_c, 0, 64, 75
1, 160017, Note_off_c, 0, 84, 68
1, 160017, Control_c, 0, 64, 76
1, 160017, Control_c, 0, 67, 122
1, 160032, Control_c, 0, 64, 77
1, 160042, Note_on_c, 0, 82, 70
1, 160061, Control_c, 0, 64, 77
1, 160076, Note_off_c, 0, 82, 63
1, 160082, Note_on_c, 0, 84, 75
1, 160091, Control_c, 0, 64, 78
1, 160106, Control_c, 0, 67, 123
1, 160124, Note_off_c, 0, 84, 56
1, 160151, Control_c, 0, 67, 123
1, 160158, Note_on_c, 0, 82, 66
1, 160187, Note_off_c, 0, 82, 65
1, 160195, Control_c, 0, 67, 124
1, 160195, Note_on_c, 0, 84, 65
1, 160210, Control_c, 0, 67, 124
1, 160236, Note_off_c, 0, 84, 65
1, 160268, Note_on_c, 0, 82, 68
1, 160298, Note_off_c, 0, 82, 65
1, 160304, Note_on_c, 0, 84, 74
1, 160335, Control_c, 0, 67, 125
1, 160341, Note_off_c, 0, 84, 61
1, 160374, Note_on_c, 0, 82, 62
1, 160404, Note_off_c, 0, 82, 65
1, 160428, Note_on_c, 0, 84, 59
1, 160439, Control_c, 0, 64, 77
1, 160449, Note_off_c, 0, 84, 61
1, 160484, Control_c, 0, 64, 77
1, 160484, Control_c, 0, 67, 124
1, 160486, Note_on_c, 0, 82, 57
1, 160507, Note_off_c, 0, 82, 61
1, 160513, Control_c, 0, 64, 76
1, 160523, Note_on_c, 0, 84, 66
1, 160528, Control_c, 0, 64, 76
1, 160558, Control_c, 0, 64, 75
1, 160570, Note_off_c, 0, 84, 55
1, 160572, Control_c, 0, 64, 75
1, 160587, Control_c, 0, 64, 74
1, 160592, Note_on_c, 0, 82, 57
1, 160602, Control_c, 0, 64, 74
1, 160617, Control_c, 0, 64, 73
1, 160631, Control_c, 0, 64, 73
1, 160646, Control_c, 0, 64, 72
1, 160661, Control_c, 0, 64, 71
1, 160661, Control_c, 0, 67, 125
1, 160676, Control_c, 0, 64, 70
1, 160690, Control_c, 0, 64, 69
1, 160690, Control_c, 0, 67, 125
1, 160705, Control_c, 0, 64, 66
1, 160705, Control_c, 0, 67, 126
1, 160720, Control_c, 0, 64, 59
1, 160735, Control_c, 0, 64, 46
1, 160750, Control_c, 0, 64, 27
1, 160765, Control_c, 0, 64, 20
1, 160780, Control_c, 0, 64, 25
1, 160780, Control_c, 0, 67, 125
1, 160794, Control_c, 0, 64, 37
1, 160794, Control_c, 0, 67, 125
1, 160809, Control_c, 0, 64, 50
1, 160809, Control_c, 0, 67, 124
1, 160821, Note_off_c, 0, 82, 51
1, 160824, Note_on_c, 0, 81, 52
1, 160824, Control_c, 0, 64, 58
1, 160824, Control_c, 0, 67, 124
1, 160839, Control_c, 0, 64, 62
1, 160839, Control_c, 0, 67, 123
1, 160854, Control_c, 0, 64, 64
1, 160854, Control_c, 0, 67, 123
1, 160869, Control_c, 0, 64, 65
1, 160884, Control_c, 0, 64, 66
1, 160884, Control_c, 0, 67, 122
1, 160884, Note_off_c, 0, 81, 58
1, 160899, Control_c, 0, 64, 66
1, 160913, Control_c, 0, 64, 67
1, 160994, Control_c, 0, 64, 66
1, 161009, Control_c, 0, 64, 65
1, 161024, Control_c, 0, 64, 64
1, 161036, Note_on_c, 0, 81, 48
1, 161039, Control_c, 0, 64, 63
1, 161054, Control_c, 0, 64, 61
1, 161069, Control_c, 0, 64, 58
1, 161084, Control_c, 0, 64, 56
1, 161099, Control_c, 0, 64, 53
1, 161113, Control_c, 0, 64, 51
1, 161128, Control_c, 0, 64, 48
1, 161128, Control_c, 0, 67, 122
1, 161143, Control_c, 0, 64, 46
1, 161158, Control_c, 0, 64, 45
1, 161158, Control_c, 0, 67, 121
1, 161173, Control_c, 0, 64, 44
1, 161188, Control_c, 0, 64, 43
1, 161202, Control_c, 0, 64, 42
1, 161217, Control_c, 0, 64, 41
1, 161246, Control_c, 0, 64, 41
1, 161261, Control_c, 0, 64, 40
1, 161320, Control_c, 0, 64, 40
1, 161350, Control_c, 0, 64, 39
1, 161380, Control_c, 0, 64, 39
1, 161439, Control_c, 0, 64, 38
1, 161442, Note_off_c, 0, 81, 34
1, 161449, Note_on_c, 0, 82, 38
1, 161453, Control_c, 0, 64, 37
1, 161468, Control_c, 0, 64, 34
1, 161483, Control_c, 0, 64, 32
1, 161498, Control_c, 0, 64, 27
1, 161513, Control_c, 0, 64, 16
1, 161528, Control_c, 0, 64, 0
1, 161603, Control_c, 0, 67, 121
1, 161617, Control_c, 0, 67, 120
1, 161632, Control_c, 0, 67, 119
1, 161647, Control_c, 0, 67, 118
1, 161662, Control_c, 0, 64, 13
1, 161662, Control_c, 0, 67, 117
1, 161677, Control_c, 0, 64, 36
1, 161677, Control_c, 0, 67, 115
1, 161692, Control_c, 0, 64, 49
1, 161692, Control_c, 0, 67, 114
1, 161707, Control_c, 0, 64, 57
1, 161707, Control_c, 0, 67, 112
1, 161729, Control_c, 0, 64, 61
1, 161729, Control_c, 0, 67, 110
1, 161743, Control_c, 0, 64, 63
1, 161743, Control_c, 0, 67, 109
1, 161758, Control_c, 0, 64, 64
1, 161758, Control_c, 0, 67, 108
1, 161773, Control_c, 0, 64, 66
1, 161773, Control_c, 0, 67, 106
1, 161788, Control_c, 0, 64, 69
1, 161788, Control_c, 0, 67, 105
1, 161796, Note_off_c, 0, 82, 32
1, 161803, Control_c, 0, 64, 71
1, 161803, Control_c, 0, 67, 105
1, 161817, Control_c, 0, 64, 73
1, 161817, Control_c, 0, 67, 103
1, 161832, Control_c, 0, 64, 75
1, 161832, Control_c, 0, 67, 102
1, 161847, Control_c, 0, 64, 76
1, 161847, Control_c, 0, 67, 101
1, 161862, Control_c, 0, 64, 77
1, 161862, Control_c, 0, 67, 101
1, 161877, Control_c, 0, 64, 78
1, 161877, Control_c, 0, 67, 100
1, 161891, Control_c, 0, 64, 79
1, 161891, Control_c, 0, 67, 99
1, 161906, Control_c, 0, 64, 80
1, 161906, Control_c, 0, 67, 98
1, 161921, Control_c, 0, 64, 80
1, 161921, Control_c, 0, 67, 96
1, 161933, Note_off_c, 0, 70, 40
1, 161936, Control_c, 0, 67, 94
1, 161951, Control_c, 0, 64, 81
1, 161951, Control_c, 0, 67, 91
1, 161957, Note_off_c, 0, 64, 36
1, 161966, Control_c, 0, 67, 89
1, 161981, Control_c, 0, 67, 86
1, 161982, Note_off_c, 0, 67, 29
1, 161996, Control_c, 0, 67, 83
1, 162011, Control_c, 0, 64, 81
1, 162011, Control_c, 0, 67, 78
1, 162023, Note_off_c, 0, 73, 40
1, 162025, Control_c, 0, 67, 73
1, 162040, Control_c, 0, 67, 66
1, 162055, Control_c, 0, 67, 59
1, 162069, Control_c, 0, 67, 50
1, 162084, Control_c, 0, 67, 39
1, 162099, Control_c, 0, 67, 26
1, 162114, Control_c, 0, 67, 0
1, 162158, Control_c, 0, 64, 81
1, 162173, Control_c, 0, 64, 79
1, 162187, Control_c, 0, 64, 76
1, 162202, Control_c, 0, 64, 69
1, 162217, Control_c, 0, 64, 62
1, 162232, Control_c, 0, 64, 42
1, 162247, Control_c, 0, 64, 0
1, 162659, Note_on_c, 0, 79, 79
1, 162736, Note_on_c, 0, 80, 81
1, 162743, Note_off_c, 0, 79, 63
1, 162747, Note_on_c, 0, 72, 72
1, 162751, Note_on_c, 0, 65, 63
1, 162752, Note_on_c, 0, 68, 66
1, 162819, Note_off_c, 0, 80, 64
1, 162825, Note_on_c, 0, 84, 73
1, 162848, Control_c, 0, 64, 29
1, 162863, Control_c, 0, 64, 49
1, 162878, Control_c, 0, 64, 53
1, 162892, Control_c, 0, 64, 57
1, 162907, Control_c, 0, 64, 61
1, 162908, Note_on_c, 0, 82, 80
1, 162912, Note_off_c, 0, 65, 58
1, 162916, Note_off_c, 0, 68, 62
1, 162920, Note_off_c, 0, 72, 61
1, 162922, Control_c, 0, 64, 64
1, 162938, Control_c, 0, 64, 65
1, 162953, Control_c, 0, 64, 66
1, 162967, Control_c, 0, 64, 67
1, 162981, Note_off_c, 0, 84, 63
1, 162982, Control_c, 0, 64, 68
1, 162988, Note_on_c, 0, 80, 79
1, 162997, Control_c, 0, 64, 68
1, 163045, Note_off_c, 0, 82, 62
1, 163059, Note_on_c, 0, 79, 76
1, 163091, Note_off_c, 0, 80, 63
1, 163100, Control_c, 0, 64, 68
1, 163115, Note_off_c, 0, 79, 63
1, 163115, Control_c, 0, 64, 67
1, 163130, Control_c, 0, 64, 66
1, 163137, Note_on_c, 0, 77, 71
1, 163146, Control_c, 0, 64, 64
1, 163161, Control_c, 0, 64, 62
1, 163176, Control_c, 0, 64, 59
1, 163190, Control_c, 0, 64, 55
1, 163205, Control_c, 0, 64, 49
1, 163224, Note_off_c, 0, 77, 58
1, 163227, Note_on_c, 0, 75, 78
1, 163227, Control_c, 0, 64, 43
1, 163242, Control_c, 0, 64, 34
1, 163257, Control_c, 0, 64, 22
1, 163272, Control_c, 0, 64, 0
1, 163304, Note_on_c, 0, 73, 74
1, 163328, Note_off_c, 0, 75, 63
1, 163367, Note_off_c, 0, 73, 65
1, 163376, Note_on_c, 0, 72, 70
1, 163446, Note_on_c, 0, 70, 75
1, 163448, Note_off_c, 0, 72, 59
1, 163523, Note_on_c, 0, 68, 78
1, 163600, Note_on_c, 0, 67, 78
1, 163606, Note_off_c, 0, 70, 57
1, 163659, Note_off_c, 0, 68, 59
1, 163688, Note_on_c, 0, 65, 79
1, 163698, Note_off_c, 0, 67, 63
1, 163951, Note_on_c, 0, 59, 83
1, 163957, Note_on_c, 0, 47, 75
1, 164006, Control_c, 0, 64, 39
1, 164020, Control_c, 0, 64, 52
1, 164035, Control_c, 0, 64, 59
1, 164050, Control_c, 0, 64, 63
1, 164065, Control_c, 0, 64, 66
1, 164071, Note_off_c, 0, 59, 63
1, 164079, Control_c, 0, 64, 69
1, 164094, Control_c, 0, 64, 73
1, 164109, Control_c, 0, 64, 76
1, 164124, Control_c, 0, 64, 78
1, 164154, Control_c, 0, 64, 78
1, 164214, Control_c, 0, 64, 78
1, 164227, Note_on_c, 0, 60, 81
1, 164243, Control_c, 0, 64, 76
1, 164243, Note_on_c, 0, 48, 78
1, 164255, Note_off_c, 0, 47, 55
1, 164256, Note_off_c, 0, 60, 66
1, 164258, Control_c, 0, 64, 72
1, 164272, Control_c, 0, 64, 67
1, 164276, Note_off_c, 0, 48, 65
1, 164287, Control_c, 0, 64, 61
1, 164302, Control_c, 0, 64, 53
1, 164317, Control_c, 0, 64, 47
1, 164332, Control_c, 0, 64, 42
1, 164346, Control_c, 0, 64, 38
1, 164361, Control_c, 0, 64, 35
1, 164376, Control_c, 0, 64, 32
1, 164391, Control_c, 0, 64, 30
1, 164406, Control_c, 0, 64, 28
1, 164420, Control_c, 0, 64, 27
1, 164435, Control_c, 0, 64, 24
1, 164450, Control_c, 0, 64, 20
1, 164464, Control_c, 0, 64, 15
1, 164479, Control_c, 0, 64, 0
1, 164501, Note_on_c, 0, 48, 76
1, 164505, Note_on_c, 0, 68, 75
1, 164511, Note_on_c, 0, 36, 72
1, 164529, Note_off_c, 0, 48, 68
1, 164546, Note_off_c, 0, 36, 66
1, 164548, Note_off_c, 0, 65, 57
1, 164573, Note_on_c, 0, 67, 78
1, 164616, Note_off_c, 0, 68, 61
1, 164832, Note_on_c, 0, 65, 76
1, 164837, Note_off_c, 0, 67, 62
1, 164841, Note_on_c, 0, 29, 73
1, 164841, Note_on_c, 0, 41, 79
1, 164867, Note_off_c, 0, 29, 64
1, 164873, Control_c, 0, 64, 48
1, 164877, Note_off_c, 0, 41, 64
1, 164887, Control_c, 0, 64, 56
1, 164902, Control_c, 0, 64, 59
1, 164917, Control_c, 0, 64, 62
1, 164932, Control_c, 0, 64, 65
1, 164947, Control_c, 0, 64, 68
1, 164962, Control_c, 0, 64, 69
1, 164977, Control_c, 0, 64, 70
1, 165066, Control_c, 0, 64, 70
1, 165081, Control_c, 0, 64, 68
1, 165095, Control_c, 0, 64, 64
1, 165110, Control_c, 0, 64, 57
1, 165125, Control_c, 0, 64, 45
1, 165140, Control_c, 0, 64, 29
1, 165147, Note_on_c, 0, 56, 68
1, 165147, Note_on_c, 0, 53, 66
1, 165155, Control_c, 0, 64, 0
1, 165183, Note_off_c, 0, 53, 65
1, 165185, Note_off_c, 0, 56, 61
1, 165415, Note_on_c, 0, 56, 75
1, 165420, Control_c, 0, 64, 35
1, 165421, Note_on_c, 0, 53, 69
1, 165435, Control_c, 0, 64, 54
1, 165450, Control_c, 0, 64, 60
1, 165472, Control_c, 0, 64, 65
1, 165483, Note_off_c, 0, 56, 60
1, 165487, Control_c, 0, 64, 69
1, 165489, Note_off_c, 0, 53, 57
1, 165501, Control_c, 0, 64, 74
1, 165516, Control_c, 0, 64, 79
1, 165531, Control_c, 0, 64, 83
1, 165547, Control_c, 0, 64, 85
1, 165562, Control_c, 0, 64, 86
1, 165697, Note_on_c, 0, 56, 71
1, 165703, Note_on_c, 0, 53, 69
1, 165725, Control_c, 0, 64, 85
1, 165728, Note_off_c, 0, 56, 63
1, 165737, Note_off_c, 0, 53, 61
1, 165740, Control_c, 0, 64, 84
1, 165755, Control_c, 0, 64, 83
1, 165770, Control_c, 0, 64, 82
1, 165784, Control_c, 0, 64, 80
1, 165799, Control_c, 0, 64, 79
1, 165814, Control_c, 0, 64, 77
1, 165829, Control_c, 0, 64, 74
1, 165843, Control_c, 0, 64, 70
1, 165850, Note_on_c, 0, 72, 74
1, 165856, Note_off_c, 0, 65, 44
1, 165858, Control_c, 0, 64, 67
1, 165873, Control_c, 0, 64, 64
1, 165888, Control_c, 0, 64, 59
1, 165901, Note_on_c, 0, 68, 80
1, 165903, Control_c, 0, 64, 53
1, 165917, Control_c, 0, 64, 45
1, 165931, Note_off_c, 0, 72, 63
1, 165932, Control_c, 0, 64, 32
1, 165947, Control_c, 0, 64, 0
1, 165966, Note_on_c, 0, 65, 83
1, 165983, Note_off_c, 0, 68, 63
1, 166217, Note_on_c, 0, 56, 70
1, 166223, Note_on_c, 0, 53, 64
1, 166261, Note_off_c, 0, 53, 61
1, 166263, Note_off_c, 0, 56, 55
1, 166444, Control_c, 0, 64, 17
1, 166458, Control_c, 0, 64, 39
1, 166473, Control_c, 0, 64, 51
1, 166488, Control_c, 0, 64, 58
1, 166498, Note_on_c, 0, 56, 70
1, 166503, Control_c, 0, 64, 62
1, 166506, Note_on_c, 0, 53, 62
1, 166518, Control_c, 0, 64, 65
1, 166533, Control_c, 0, 64, 68
1, 166542, Note_off_c, 0, 56, 57
1, 166545, Note_off_c, 0, 53, 62
1, 166548, Control_c, 0, 64, 71
1, 166563, Control_c, 0, 64, 73
1, 166577, Control_c, 0, 64, 74
1, 166726, Control_c, 0, 64, 74
1, 166741, Control_c, 0, 64, 73
1, 166756, Control_c, 0, 64, 71
1, 166768, Note_on_c, 0, 56, 66
1, 166771, Control_c, 0, 64, 70
1, 166772, Note_on_c, 0, 53, 59
1, 166786, Control_c, 0, 64, 68
1, 166801, Control_c, 0, 64, 66
1, 166803, Note_off_c, 0, 56, 61
1, 166813, Note_off_c, 0, 53, 61
1, 166815, Control_c, 0, 64, 64
1, 166830, Control_c, 0, 64, 61
1, 166845, Control_c, 0, 64, 58
1, 166859, Control_c, 0, 64, 56
1, 166874, Control_c, 0, 64, 54
1, 166889, Control_c, 0, 64, 51
1, 166904, Control_c, 0, 64, 49
1, 166907, Note_off_c, 0, 65, 51
1, 166919, Control_c, 0, 64, 46
1, 166933, Control_c, 0, 64, 42
1, 166939, Note_on_c, 0, 72, 50
1, 166948, Control_c, 0, 64, 36
1, 166971, Control_c, 0, 64, 31
1, 166971, Control_c, 0, 67, 9
1, 166983, Note_on_c, 0, 68, 65
1, 166986, Control_c, 0, 64, 26
1, 166986, Control_c, 0, 67, 12
1, 166992, Note_off_c, 0, 72, 61
1, 167001, Control_c, 0, 64, 22
1, 167001, Control_c, 0, 67, 15
1, 167015, Control_c, 0, 64, 17
1, 167015, Control_c, 0, 67, 17
1, 167030, Control_c, 0, 64, 10
1, 167030, Control_c, 0, 67, 20
1, 167038, Note_on_c, 0, 65, 68
1, 167045, Control_c, 0, 64, 0
1, 167045, Control_c, 0, 67, 24
1, 167048, Note_off_c, 0, 68, 63
1, 167060, Control_c, 0, 67, 28
1, 167074, Control_c, 0, 67, 32
1, 167089, Control_c, 0, 67, 33
1, 167150, Control_c, 0, 67, 33
1, 167194, Control_c, 0, 67, 34
1, 167209, Control_c, 0, 67, 34
1, 167224, Control_c, 0, 67, 35
1, 167238, Control_c, 0, 67, 36
1, 167253, Control_c, 0, 67, 42
1, 167268, Control_c, 0, 67, 49
1, 167283, Control_c, 0, 67, 56
1, 167297, Control_c, 0, 67, 59
1, 167312, Control_c, 0, 67, 61
1, 167327, Control_c, 0, 67, 63
1, 167342, Control_c, 0, 64, 28
1, 167342, Control_c, 0, 67, 64
1, 167356, Control_c, 0, 64, 47
1, 167356, Control_c, 0, 67, 66
1, 167371, Control_c, 0, 64, 57
1, 167371, Control_c, 0, 67, 69
1, 167386, Control_c, 0, 64, 61
1, 167386, Control_c, 0, 67, 71
1, 167395, Note_on_c, 0, 56, 46
1, 167397, Note_on_c, 0, 53, 43
1, 167401, Control_c, 0, 64, 63
1, 167401, Control_c, 0, 67, 74
1, 167416, Control_c, 0, 64, 64
1, 167416, Control_c, 0, 67, 79
1, 167430, Control_c, 0, 64, 65
1, 167430, Control_c, 0, 67, 83
1, 167439, Note_off_c, 0, 56, 60
1, 167445, Note_off_c, 0, 53, 58
1, 167445, Control_c, 0, 64, 66
1, 167445, Control_c, 0, 67, 87
1, 167460, Control_c, 0, 64, 67
1, 167460, Control_c, 0, 67, 91
1, 167475, Control_c, 0, 67, 93
1, 167490, Control_c, 0, 64, 68
1, 167490, Control_c, 0, 67, 94
1, 167505, Control_c, 0, 67, 95
1, 167519, Control_c, 0, 67, 96
1, 167534, Control_c, 0, 67, 97
1, 167549, Control_c, 0, 67, 98
1, 167564, Control_c, 0, 64, 67
1, 167579, Control_c, 0, 67, 99
1, 167579, Note_off_c, 0, 65, 52
1, 167594, Control_c, 0, 64, 66
1, 167594, Control_c, 0, 67, 101
1, 167608, Control_c, 0, 64, 65
1, 167608, Control_c, 0, 67, 103
1, 167618, Note_on_c, 0, 72, 45
1, 167623, Control_c, 0, 64, 62
1, 167623, Control_c, 0, 67, 104
1, 167638, Control_c, 0, 64, 57
1, 167638, Control_c, 0, 67, 106
1, 167646, Note_off_c, 0, 72, 54
1, 167653, Control_c, 0, 64, 49
1, 167653, Control_c, 0, 67, 107
1, 167657, Note_on_c, 0, 68, 53
1, 167668, Control_c, 0, 64, 40
1, 167668, Control_c, 0, 67, 109
1, 167682, Control_c, 0, 64, 30
1, 167682, Control_c, 0, 67, 111
1, 167697, Control_c, 0, 64, 20
1, 167697, Control_c, 0, 67, 113
1, 167701, Note_off_c, 0, 68, 62
1, 167719, Control_c, 0, 64, 0
1, 167719, Control_c, 0, 67, 113
1, 167725, Note_on_c, 0, 65, 52
1, 167734, Control_c, 0, 67, 114
1, 167764, Control_c, 0, 67, 115
1, 167779, Control_c, 0, 67, 116
1, 167794, Control_c, 0, 67, 117
1, 167897, Control_c, 0, 67, 117
1, 167927, Control_c, 0, 67, 116
1, 167958, Control_c, 0, 67, 115
1, 167973, Control_c, 0, 67, 114
1, 167987, Control_c, 0, 67, 113
1, 168002, Control_c, 0, 67, 112
1, 168017, Control_c, 0, 64, 22
1, 168017, Control_c, 0, 67, 111
1, 168028, Note_on_c, 0, 56, 43
1, 168032, Control_c, 0, 64, 40
1, 168038, Note_on_c, 0, 53, 33
1, 168046, Control_c, 0, 64, 50
1, 168046, Control_c, 0, 67, 110
1, 168061, Control_c, 0, 64, 56
1, 168061, Control_c, 0, 67, 110
1, 168076, Control_c, 0, 64, 57
1, 168091, Control_c, 0, 64, 57
1, 168104, Note_off_c, 0, 56, 49
1, 168143, Note_off_c, 0, 53, 36
1, 168150, Control_c, 0, 67, 110
1, 168165, Control_c, 0, 64, 56
1, 168178, Control_c, 0, 64, 55
1, 168178, Control_c, 0, 67, 111
1, 168190, Note_off_c, 0, 65, 52
1, 168193, Control_c, 0, 64, 52
1, 168208, Control_c, 0, 64, 47
1, 168217, Note_on_c, 0, 72, 37
1, 168223, Control_c, 0, 64, 40
1, 168237, Control_c, 0, 64, 30
1, 168252, Control_c, 0, 64, 15
1, 168259, Note_off_c, 0, 72, 46
1, 168267, Control_c, 0, 64, 0
1, 168271, Note_on_c, 0, 68, 50
1, 168297, Control_c, 0, 67, 110
1, 168311, Control_c, 0, 67, 110
1, 168322, Note_off_c, 0, 68, 58
1, 168326, Control_c, 0, 67, 109
1, 168329, Note_on_c, 0, 65, 48
1, 168341, Control_c, 0, 67, 109
1, 168356, Control_c, 0, 67, 108
1, 168371, Control_c, 0, 67, 108
1, 168385, Control_c, 0, 67, 107
1, 168400, Control_c, 0, 67, 107
1, 168415, Control_c, 0, 67, 106
1, 168444, Control_c, 0, 67, 106
1, 168497, Control_c, 0, 67, 105
1, 168541, Control_c, 0, 67, 105
1, 168571, Control_c, 0, 67, 104
1, 168600, Control_c, 0, 67, 104
1, 168637, Note_on_c, 0, 56, 46
1, 168642, Note_on_c, 0, 53, 39
1, 168676, Note_off_c, 0, 56, 60
1, 168677, Note_off_c, 0, 53, 57
1, 168838, Control_c, 0, 67, 103
1, 168853, Control_c, 0, 67, 103
1, 168867, Control_c, 0, 67, 102
1, 168882, Control_c, 0, 67, 100
1, 168897, Control_c, 0, 67, 98
1, 168912, Control_c, 0, 64, 24
1, 168912, Control_c, 0, 67, 97
1, 168927, Control_c, 0, 64, 42
1, 168927, Control_c, 0, 67, 95
1, 168941, Control_c, 0, 64, 53
1, 168941, Control_c, 0, 67, 94
1, 168956, Control_c, 0, 64, 58
1, 168956, Control_c, 0, 67, 93
1, 168968, Note_on_c, 0, 53, 24
1, 168971, Note_on_c, 0, 56, 37
1, 168971, Control_c, 0, 64, 61
1, 168971, Control_c, 0, 67, 92
1, 168986, Control_c, 0, 64, 63
1, 168986, Control_c, 0, 67, 92
1, 169001, Control_c, 0, 64, 65
1, 169001, Control_c, 0, 67, 91
1, 169016, Control_c, 0, 64, 66
1, 169016, Control_c, 0, 67, 90
1, 169031, Control_c, 0, 64, 69
1, 169031, Control_c, 0, 67, 90
1, 169038, Note_off_c, 0, 56, 47
1, 169046, Control_c, 0, 64, 71
1, 169046, Control_c, 0, 67, 89
1, 169060, Control_c, 0, 64, 73
1, 169060, Control_c, 0, 67, 88
1, 169075, Control_c, 0, 64, 75
1, 169075, Control_c, 0, 67, 87
1, 169086, Note_off_c, 0, 53, 35
1, 169090, Control_c, 0, 64, 76
1, 169105, Control_c, 0, 64, 77
1, 169120, Control_c, 0, 67, 87
1, 169134, Control_c, 0, 64, 77
1, 169179, Control_c, 0, 67, 86
1, 169245, Control_c, 0, 67, 86
1, 169260, Control_c, 0, 67, 85
1, 169275, Control_c, 0, 64, 77
1, 169275, Control_c, 0, 67, 82
1, 169290, Control_c, 0, 64, 76
1, 169290, Control_c, 0, 67, 80
1, 169305, Control_c, 0, 64, 76
1, 169305, Control_c, 0, 67, 79
1, 169320, Control_c, 0, 64, 75
1, 169320, Control_c, 0, 67, 78
1, 169334, Control_c, 0, 64, 74
1, 169334, Control_c, 0, 67, 78
1, 169347, Note_on_c, 0, 56, 39
1, 169349, Note_on_c, 0, 53, 35
1, 169349, Control_c, 0, 64, 73
1, 169349, Control_c, 0, 67, 77
1, 169364, Control_c, 0, 64, 72
1, 169370, Note_off_c, 0, 65, 56
1, 169379, Control_c, 0, 64, 70
1, 169379, Control_c, 0, 67, 76
1, 169394, Control_c, 0, 64, 69
1, 169394, Control_c, 0, 67, 72
1, 169394, Note_off_c, 0, 56, 44
1, 169397, Note_off_c, 0, 53, 45
1, 169408, Control_c, 0, 64, 67
1, 169408, Control_c, 0, 67, 68
1, 169423, Control_c, 0, 64, 65
1, 169423, Control_c, 0, 67, 64
1, 169438, Control_c, 0, 64, 64
1, 169438, Control_c, 0, 67, 61
1, 169452, Control_c, 0, 64, 62
1, 169452, Control_c, 0, 67, 58
1, 169467, Control_c, 0, 64, 60
1, 169467, Control_c, 0, 67, 55
1, 169482, Control_c, 0, 64, 59
1, 169482, Control_c, 0, 67, 52
1, 169497, Control_c, 0, 64, 57
1, 169497, Control_c, 0, 67, 48
1, 169512, Control_c, 0, 64, 56
1, 169512, Control_c, 0, 67, 43
1, 169528, Control_c, 0, 64, 55
1, 169528, Control_c, 0, 67, 39
1, 169543, Control_c, 0, 64, 54
1, 169543, Control_c, 0, 67, 35
1, 169557, Control_c, 0, 64, 53
1, 169557, Control_c, 0, 67, 31
1, 169572, Control_c, 0, 64, 51
1, 169572, Control_c, 0, 67, 28
1, 169587, Control_c, 0, 64, 49
1, 169587, Control_c, 0, 67, 25
1, 169602, Control_c, 0, 64, 47
1, 169602, Control_c, 0, 67, 23
1, 169617, Control_c, 0, 64, 45
1, 169617, Control_c, 0, 67, 21
1, 169631, Control_c, 0, 64, 44
1, 169631, Control_c, 0, 67, 19
1, 169646, Control_c, 0, 64, 43
1, 169646, Control_c, 0, 67, 18
1, 169661, Control_c, 0, 64, 42
1, 169705, Control_c, 0, 64, 42
1, 169720, Control_c, 0, 64, 41
1, 169735, Control_c, 0, 64, 40
1, 169750, Control_c, 0, 64, 40
1, 169764, Control_c, 0, 64, 39
1, 169779, Control_c, 0, 64, 38
1, 169780, Note_on_c, 0, 65, 76
1, 169794, Control_c, 0, 64, 38
1, 169809, Control_c, 0, 64, 37
1, 169824, Control_c, 0, 64, 37
1, 169832, Note_on_c, 0, 66, 64
1, 169839, Control_c, 0, 64, 36
1, 169853, Control_c, 0, 64, 34
1, 169861, Note_off_c, 0, 65, 59
1, 169868, Control_c, 0, 64, 31
1, 169873, Note_off_c, 0, 66, 64
1, 169878, Note_on_c, 0, 68, 75
1, 169883, Control_c, 0, 64, 28
1, 169898, Control_c, 0, 64, 24
1, 169913, Control_c, 0, 64, 20
1, 169913, Control_c, 0, 67, 17
1, 169928, Control_c, 0, 64, 14
1, 169928, Control_c, 0, 67, 17
1, 169937, Note_on_c, 0, 66, 80
1, 169943, Control_c, 0, 64, 0
1, 169943, Control_c, 0, 67, 16
1, 169946, Note_off_c, 0, 68, 61
1, 169964, Control_c, 0, 67, 13
1, 169979, Control_c, 0, 67, 0
1, 170101, Note_on_c, 0, 56, 66
1, 170104, Note_on_c, 0, 48, 55
1, 170107, Note_on_c, 0, 51, 60
1, 170139, Note_off_c, 0, 51, 64
1, 170142, Note_off_c, 0, 56, 61
1, 170145, Note_off_c, 0, 48, 62
1, 170351, Control_c, 0, 64, 39
1, 170366, Control_c, 0, 64, 53
1, 170375, Note_on_c, 0, 56, 69
1, 170378, Note_on_c, 0, 48, 55
1, 170380, Control_c, 0, 64, 59
1, 170384, Note_on_c, 0, 51, 56
1, 170395, Control_c, 0, 64, 63
1, 170410, Control_c, 0, 64, 65
1, 170417, Note_off_c, 0, 56, 60
1, 170422, Note_off_c, 0, 51, 64
1, 170426, Control_c, 0, 64, 67
1, 170434, Note_off_c, 0, 48, 60
1, 170440, Control_c, 0, 64, 68
1, 170455, Control_c, 0, 64, 69
1, 170470, Control_c, 0, 64, 70
1, 170588, Control_c, 0, 64, 69
1, 170603, Control_c, 0, 64, 68
1, 170607, Note_off_c, 0, 66, 59
1, 170618, Control_c, 0, 64, 66
1, 170623, Note_on_c, 0, 72, 69
1, 170632, Control_c, 0, 64, 64
1, 170633, Note_on_c, 0, 56, 69
1, 170639, Note_on_c, 0, 48, 58
1, 170646, Note_on_c, 0, 51, 54
1, 170647, Control_c, 0, 64, 60
1, 170662, Control_c, 0, 64, 56
1, 170677, Control_c, 0, 64, 53
1, 170684, Note_off_c, 0, 56, 49
1, 170688, Note_off_c, 0, 48, 57
1, 170692, Control_c, 0, 64, 51
1, 170693, Note_on_c, 0, 70, 77
1, 170703, Note_off_c, 0, 51, 56
1, 170714, Control_c, 0, 64, 49
1, 170729, Control_c, 0, 64, 48
1, 170744, Control_c, 0, 64, 46
1, 170746, Note_off_c, 0, 72, 57
1, 170759, Control_c, 0, 64, 43
1, 170774, Control_c, 0, 64, 42
1, 170779, Note_on_c, 0, 68, 71
1, 170788, Control_c, 0, 64, 41
1, 170803, Control_c, 0, 64, 41
1, 170810, Note_off_c, 0, 70, 62
1, 170818, Control_c, 0, 64, 40
1, 170822, Note_on_c, 0, 66, 77
1, 170831, Note_off_c, 0, 68, 64
1, 170832, Control_c, 0, 64, 40
1, 170847, Control_c, 0, 64, 39
1, 170856, Note_off_c, 0, 66, 62
1, 170862, Control_c, 0, 64, 38
1, 170877, Control_c, 0, 64, 36
1, 170892, Control_c, 0, 64, 35
1, 170906, Control_c, 0, 64, 34
1, 170921, Control_c, 0, 64, 33
1, 170924, Note_on_c, 0, 66, 81
1, 170936, Control_c, 0, 64, 32
1, 171010, Control_c, 0, 64, 32
1, 171025, Control_c, 0, 64, 31
1, 171040, Control_c, 0, 64, 31
1, 171055, Control_c, 0, 64, 30
1, 171070, Control_c, 0, 64, 29
1, 171085, Control_c, 0, 64, 29
1, 171099, Control_c, 0, 64, 28
1, 171114, Control_c, 0, 64, 28
1, 171178, Note_on_c, 0, 56, 60
1, 171182, Note_on_c, 0, 49, 56
1, 171189, Control_c, 0, 64, 27
1, 171203, Control_c, 0, 64, 26
1, 171216, Note_off_c, 0, 56, 62
1, 171218, Control_c, 0, 64, 25
1, 171222, Note_off_c, 0, 49, 62
1, 171233, Control_c, 0, 64, 23
1, 171247, Control_c, 0, 64, 21
1, 171262, Control_c, 0, 64, 17
1, 171277, Control_c, 0, 64, 0
1, 171396, Note_off_c, 0, 66, 63
1, 171410, Control_c, 0, 64, 37
1, 171415, Note_on_c, 0, 65, 66
1, 171423, Note_on_c, 0, 56, 60
1, 171425, Control_c, 0, 64, 52
1, 171428, Note_on_c, 0, 49, 52
1, 171440, Control_c, 0, 64, 59
1, 171462, Control_c, 0, 64, 61
1, 171463, Note_off_c, 0, 65, 63
1, 171472, Note_on_c, 0, 66, 63
1, 171477, Control_c, 0, 64, 62
1, 171478, Note_off_c, 0, 56, 57
1, 171480, Note_off_c, 0, 49, 61
1, 171492, Control_c, 0, 64, 63
1, 171541, Note_on_c, 0, 65, 75
1, 171546, Note_off_c, 0, 66, 56
1, 171566, Control_c, 0, 64, 63
1, 171581, Control_c, 0, 64, 62
1, 171596, Control_c, 0, 64, 60
1, 171610, Control_c, 0, 64, 57
1, 171625, Control_c, 0, 64, 55
1, 171640, Control_c, 0, 64, 52
1, 171654, Control_c, 0, 64, 50
1, 171669, Control_c, 0, 64, 47
1, 171684, Control_c, 0, 64, 44
1, 171699, Control_c, 0, 64, 41
1, 171708, Note_on_c, 0, 56, 62
1, 171709, Note_on_c, 0, 49, 52
1, 171714, Control_c, 0, 64, 38
1, 171728, Control_c, 0, 64, 34
1, 171743, Control_c, 0, 64, 31
1, 171747, Note_off_c, 0, 56, 61
1, 171758, Control_c, 0, 64, 29
1, 171763, Note_off_c, 0, 49, 61
1, 171773, Control_c, 0, 64, 28
1, 171788, Control_c, 0, 64, 27
1, 171803, Control_c, 0, 64, 26
1, 171818, Control_c, 0, 64, 25
1, 171821, Note_off_c, 0, 65, 56
1, 171833, Control_c, 0, 64, 23
1, 171862, Control_c, 0, 64, 22
1, 171863, Note_on_c, 0, 66, 71
1, 171877, Control_c, 0, 64, 20
1, 171892, Control_c, 0, 64, 18
1, 171907, Control_c, 0, 64, 17
1, 171922, Control_c, 0, 64, 16
1, 171937, Control_c, 0, 64, 15
1, 171949, Note_off_c, 0, 66, 61
1, 171952, Control_c, 0, 64, 14
1, 171973, Note_on_c, 0, 65, 77
1, 172012, Control_c, 0, 64, 13
1, 172026, Control_c, 0, 64, 12
1, 172041, Control_c, 0, 64, 12
1, 172056, Control_c, 0, 64, 10
1, 172070, Control_c, 0, 64, 0
1, 172223, Note_on_c, 0, 53, 58
1, 172230, Note_on_c, 0, 45, 51
1, 172241, Control_c, 0, 64, 39
1, 172256, Control_c, 0, 64, 52
1, 172271, Control_c, 0, 64, 58
1, 172274, Note_off_c, 0, 45, 62
1, 172275, Note_off_c, 0, 53, 61
1, 172285, Control_c, 0, 64, 61
1, 172300, Control_c, 0, 64, 62
1, 172309, Note_off_c, 0, 65, 61
1, 172315, Control_c, 0, 64, 63
1, 172326, Note_on_c, 0, 63, 72
1, 172345, Control_c, 0, 64, 63
1, 172374, Control_c, 0, 64, 63
1, 172385, Note_off_c, 0, 63, 63
1, 172402, Note_on_c, 0, 65, 63
1, 172418, Control_c, 0, 64, 62
1, 172431, Note_off_c, 0, 65, 64
1, 172433, Control_c, 0, 64, 62
1, 172448, Note_on_c, 0, 63, 55
1, 172448, Control_c, 0, 64, 61
1, 172463, Control_c, 0, 64, 61
1, 172464, Note_on_c, 0, 53, 56
1, 172471, Note_on_c, 0, 45, 58
1, 172477, Control_c, 0, 64, 60
1, 172483, Note_off_c, 0, 63, 66
1, 172492, Note_on_c, 0, 65, 81
1, 172492, Control_c, 0, 64, 59
1, 172493, Note_off_c, 0, 53, 61
1, 172504, Note_off_c, 0, 45, 62
1, 172507, Control_c, 0, 64, 57
1, 172522, Control_c, 0, 64, 56
1, 172537, Control_c, 0, 64, 55
1, 172539, Note_off_c, 0, 65, 59
1, 172548, Note_on_c, 0, 63, 77
1, 172551, Control_c, 0, 64, 54
1, 172566, Control_c, 0, 64, 53
1, 172581, Control_c, 0, 64, 52
1, 172587, Note_off_c, 0, 63, 63
1, 172592, Note_on_c, 0, 62, 79
1, 172596, Control_c, 0, 64, 50
1, 172611, Control_c, 0, 64, 48
1, 172626, Control_c, 0, 64, 46
1, 172641, Control_c, 0, 64, 43
1, 172656, Control_c, 0, 64, 41
1, 172656, Note_on_c, 0, 63, 78
1, 172670, Control_c, 0, 64, 39
1, 172685, Control_c, 0, 64, 36
1, 172687, Note_off_c, 0, 62, 61
1, 172700, Control_c, 0, 64, 33
1, 172715, Control_c, 0, 64, 29
1, 172730, Control_c, 0, 64, 24
1, 172745, Control_c, 0, 64, 13
1, 172760, Control_c, 0, 64, 0
1, 172767, Note_on_c, 0, 72, 78
1, 172788, Note_on_c, 0, 53, 47
1, 172795, Note_off_c, 0, 63, 60
1, 172796, Note_on_c, 0, 45, 55
1, 172843, Note_off_c, 0, 53, 58
1, 172849, Note_off_c, 0, 45, 58
1, 172923, Control_c, 0, 64, 21
1, 172938, Control_c, 0, 64, 24
1, 172960, Control_c, 0, 64, 23
1, 172974, Control_c, 0, 64, 21
1, 172974, Control_c, 0, 67, 8
1, 172986, Note_off_c, 0, 72, 61
1, 172989, Control_c, 0, 64, 19
1, 172989, Control_c, 0, 67, 11
1, 173004, Control_c, 0, 64, 17
1, 173004, Control_c, 0, 67, 12
1, 173019, Control_c, 0, 64, 12
1, 173019, Control_c, 0, 67, 14
1, 173024, Note_on_c, 0, 63, 66
1, 173034, Control_c, 0, 64, 0
1, 173034, Control_c, 0, 67, 18
1, 173049, Control_c, 0, 67, 22
1, 173054, Note_off_c, 0, 63, 65
1, 173064, Control_c, 0, 67, 28
1, 173079, Control_c, 0, 67, 32
1, 173094, Control_c, 0, 67, 36
1, 173108, Control_c, 0, 67, 37
1, 173117, Note_on_c, 0, 63, 74
1, 173123, Control_c, 0, 67, 39
1, 173138, Control_c, 0, 67, 42
1, 173153, Control_c, 0, 67, 46
1, 173168, Control_c, 0, 67, 49
1, 173182, Control_c, 0, 67, 52
1, 173197, Control_c, 0, 67, 54
1, 173212, Control_c, 0, 67, 54
1, 173226, Control_c, 0, 67, 54
1, 173330, Control_c, 0, 67, 54
1, 173353, Note_on_c, 0, 46, 56
1, 173353, Note_on_c, 0, 53, 51
1, 173386, Note_off_c, 0, 46, 63
1, 173389, Control_c, 0, 64, 12
1, 173390, Note_off_c, 0, 53, 63
1, 173404, Control_c, 0, 64, 37
1, 173404, Control_c, 0, 67, 54
1, 173420, Control_c, 0, 64, 49
1, 173434, Control_c, 0, 64, 53
1, 173434, Control_c, 0, 67, 53
1, 173449, Control_c, 0, 64, 54
1, 173449, Control_c, 0, 67, 53
1, 173464, Control_c, 0, 64, 54
1, 173479, Control_c, 0, 67, 52
1, 173539, Control_c, 0, 64, 53
1, 173540, Note_off_c, 0, 63, 63
1, 173554, Control_c, 0, 64, 51
1, 173563, Note_on_c, 0, 61, 56
1, 173569, Control_c, 0, 64, 49
1, 173569, Control_c, 0, 67, 53
1, 173584, Control_c, 0, 64, 45
1, 173584, Control_c, 0, 67, 53
1, 173592, Note_off_c, 0, 61, 65
1, 173597, Note_on_c, 0, 46, 55
1, 173598, Control_c, 0, 64, 41
1, 173603, Note_on_c, 0, 63, 58
1, 173609, Note_on_c, 0, 53, 44
1, 173613, Control_c, 0, 64, 39
1, 173613, Control_c, 0, 67, 54
1, 173628, Control_c, 0, 64, 37
1, 173639, Note_off_c, 0, 46, 60
1, 173643, Control_c, 0, 64, 36
1, 173656, Note_off_c, 0, 53, 55
1, 173657, Control_c, 0, 64, 34
1, 173670, Note_on_c, 0, 61, 65
1, 173672, Control_c, 0, 64, 32
1, 173672, Control_c, 0, 67, 54
1, 173687, Control_c, 0, 64, 29
1, 173687, Control_c, 0, 67, 55
1, 173708, Note_off_c, 0, 63, 56
1, 173710, Control_c, 0, 64, 27
1, 173739, Control_c, 0, 64, 26
1, 173769, Control_c, 0, 67, 56
1, 173784, Control_c, 0, 64, 26
1, 173799, Control_c, 0, 64, 25
1, 173813, Control_c, 0, 64, 24
1, 173828, Control_c, 0, 67, 55
1, 173857, Control_c, 0, 67, 54
1, 173887, Control_c, 0, 67, 54
1, 173895, Note_on_c, 0, 53, 49
1, 173902, Note_on_c, 0, 46, 44
1, 173931, Control_c, 0, 67, 53
1, 173937, Note_off_c, 0, 53, 60
1, 173959, Note_off_c, 0, 46, 54
1, 173991, Control_c, 0, 67, 53
1, 174019, Note_on_c, 0, 65, 68
1, 174050, Control_c, 0, 67, 52
1, 174054, Note_off_c, 0, 61, 58
1, 174095, Control_c, 0, 67, 52
1, 174108, Note_off_c, 0, 65, 64
1, 174125, Control_c, 0, 67, 51
1, 174179, Note_on_c, 0, 65, 67
1, 174184, Control_c, 0, 67, 51
1, 174198, Control_c, 0, 64, 23
1, 174213, Control_c, 0, 64, 23
1, 174228, Control_c, 0, 67, 50
1, 174287, Control_c, 0, 67, 50
1, 174347, Control_c, 0, 67, 49
1, 174377, Control_c, 0, 67, 49
1, 174453, Note_on_c, 0, 51, 43
1, 174462, Note_on_c, 0, 43, 39
1, 174474, Control_c, 0, 67, 48
1, 174493, Note_off_c, 0, 51, 61
1, 174501, Note_off_c, 0, 43, 53
1, 174577, Control_c, 0, 67, 48
1, 174636, Control_c, 0, 64, 22
1, 174651, Control_c, 0, 64, 21
1, 174666, Control_c, 0, 64, 18
1, 174680, Control_c, 0, 64, 13
1, 174695, Control_c, 0, 64, 0
1, 174738, Note_on_c, 0, 63, 59
1, 174754, Control_c, 0, 67, 47
1, 174771, Note_off_c, 0, 65, 61
1, 174814, Control_c, 0, 64, 11
1, 174829, Control_c, 0, 64, 36
1, 174834, Note_on_c, 0, 43, 36
1, 174834, Note_on_c, 0, 51, 26
1, 174843, Control_c, 0, 64, 49
1, 174858, Control_c, 0, 64, 56
1, 174873, Control_c, 0, 64, 58
1, 174888, Control_c, 0, 64, 59
1, 174888, Control_c, 0, 67, 48
1, 174903, Control_c, 0, 64, 60
1, 174903, Control_c, 0, 67, 48
1, 174918, Control_c, 0, 64, 61
1, 174933, Control_c, 0, 67, 49
1, 174939, Note_off_c, 0, 43, 37
1, 174947, Control_c, 0, 67, 49
1, 174956, Note_off_c, 0, 51, 41
1, 174962, Control_c, 0, 67, 50
1, 174991, Control_c, 0, 67, 50
1, 175016, Note_on_c, 0, 61, 56
1, 175051, Control_c, 0, 64, 60
1, 175059, Note_off_c, 0, 63, 60
1, 175065, Control_c, 0, 64, 59
1, 175080, Control_c, 0, 64, 58
1, 175095, Control_c, 0, 64, 56
1, 175110, Control_c, 0, 64, 53
1, 175126, Control_c, 0, 64, 49
1, 175141, Control_c, 0, 64, 43
1, 175156, Control_c, 0, 64, 30
1, 175156, Control_c, 0, 67, 51
1, 175170, Control_c, 0, 64, 0
1, 175180, Note_on_c, 0, 70, 54
1, 175185, Control_c, 0, 67, 51
1, 175207, Control_c, 0, 67, 52
1, 175222, Control_c, 0, 67, 53
1, 175225, Note_on_c, 0, 51, 35
1, 175237, Control_c, 0, 67, 54
1, 175243, Note_on_c, 0, 43, 35
1, 175245, Note_off_c, 0, 61, 53
1, 175252, Control_c, 0, 67, 55
1, 175267, Control_c, 0, 64, 22
1, 175267, Control_c, 0, 67, 56
1, 175282, Control_c, 0, 64, 46
1, 175282, Control_c, 0, 67, 59
1, 175297, Control_c, 0, 64, 59
1, 175297, Control_c, 0, 67, 67
1, 175311, Control_c, 0, 64, 62
1, 175311, Control_c, 0, 67, 75
1, 175326, Control_c, 0, 64, 63
1, 175326, Control_c, 0, 67, 83
1, 175341, Control_c, 0, 64, 65
1, 175341, Control_c, 0, 67, 88
1, 175356, Control_c, 0, 64, 67
1, 175356, Control_c, 0, 67, 92
1, 175371, Control_c, 0, 64, 68
1, 175371, Control_c, 0, 67, 94
1, 175382, Note_off_c, 0, 51, 48
1, 175385, Control_c, 0, 64, 69
1, 175385, Control_c, 0, 67, 96
1, 175397, Note_off_c, 0, 43, 43
1, 175400, Control_c, 0, 67, 97
1, 175415, Control_c, 0, 67, 99
1, 175429, Control_c, 0, 67, 102
1, 175442, Note_on_c, 0, 61, 51
1, 175444, Control_c, 0, 67, 104
1, 175459, Control_c, 0, 67, 105
1, 175474, Control_c, 0, 67, 108
1, 175489, Control_c, 0, 67, 110
1, 175503, Control_c, 0, 67, 112
1, 175518, Control_c, 0, 67, 114
1, 175521, Note_off_c, 0, 61, 63
1, 175532, Note_off_c, 0, 70, 21
1, 175533, Control_c, 0, 67, 115
1, 175548, Control_c, 0, 67, 116
1, 175563, Control_c, 0, 64, 69
1, 175563, Control_c, 0, 67, 119
1, 175577, Control_c, 0, 64, 68
1, 175577, Control_c, 0, 67, 120
1, 175590, Note_on_c, 0, 60, 47
1, 175592, Control_c, 0, 64, 66
1, 175592, Control_c, 0, 67, 121
1, 175607, Control_c, 0, 64, 61
1, 175607, Control_c, 0, 67, 121
1, 175622, Control_c, 0, 64, 50
1, 175636, Control_c, 0, 64, 18
1, 175651, Control_c, 0, 64, 0
1, 175665, Note_on_c, 0, 51, 32
1, 175683, Note_on_c, 0, 44, 31
1, 175695, Control_c, 0, 64, 21
1, 175695, Control_c, 0, 67, 121
1, 175710, Control_c, 0, 64, 45
1, 175710, Control_c, 0, 67, 120
1, 175725, Control_c, 0, 64, 58
1, 175738, Note_off_c, 0, 51, 54
1, 175739, Note_off_c, 0, 44, 56
1, 175740, Control_c, 0, 64, 63
1, 175740, Control_c, 0, 67, 119
1, 175755, Control_c, 0, 64, 65
1, 175769, Control_c, 0, 64, 66
1, 175769, Control_c, 0, 67, 119
1, 175784, Control_c, 0, 64, 67
1, 175784, Control_c, 0, 67, 118
1, 175799, Control_c, 0, 64, 68
1, 175875, Note_on_c, 0, 68, 49
1, 175886, Note_off_c, 0, 60, 36
1, 175955, Control_c, 0, 64, 67
1, 175970, Control_c, 0, 64, 67
1, 175985, Control_c, 0, 64, 66
1, 176000, Control_c, 0, 64, 64
1, 176015, Control_c, 0, 64, 62
1, 176030, Control_c, 0, 64, 59
1, 176044, Control_c, 0, 64, 57
1, 176044, Control_c, 0, 67, 118
1, 176059, Control_c, 0, 64, 55
1, 176074, Control_c, 0, 64, 54
1, 176074, Control_c, 0, 67, 117
1, 176089, Control_c, 0, 64, 52
1, 176104, Control_c, 0, 64, 50
1, 176104, Control_c, 0, 67, 117
1, 176119, Control_c, 0, 64, 47
1, 176133, Control_c, 0, 64, 45
1, 176133, Control_c, 0, 67, 116
1, 176148, Control_c, 0, 64, 44
1, 176163, Control_c, 0, 64, 42
1, 176169, Note_on_c, 0, 60, 37
1, 176173, Note_on_c, 0, 56, 37
1, 176178, Control_c, 0, 64, 41
1, 176178, Control_c, 0, 67, 116
1, 176193, Control_c, 0, 64, 38
1, 176207, Control_c, 0, 64, 35
1, 176207, Control_c, 0, 67, 115
1, 176222, Control_c, 0, 64, 33
1, 176227, Note_off_c, 0, 60, 52
1, 176229, Note_off_c, 0, 56, 57
1, 176237, Control_c, 0, 64, 31
1, 176251, Control_c, 0, 64, 29
1, 176266, Control_c, 0, 64, 26
1, 176281, Control_c, 0, 64, 22
1, 176296, Control_c, 0, 64, 15
1, 176311, Control_c, 0, 64, 0
1, 176385, Control_c, 0, 67, 114
1, 176400, Control_c, 0, 67, 114
1, 176414, Control_c, 0, 67, 113
1, 176429, Control_c, 0, 67, 112
1, 176444, Control_c, 0, 64, 23
1, 176444, Control_c, 0, 67, 111
1, 176459, Control_c, 0, 64, 44
1, 176459, Control_c, 0, 67, 111
1, 176471, Note_on_c, 0, 60, 28
1, 176474, Control_c, 0, 64, 55
1, 176474, Control_c, 0, 67, 110
1, 176479, Note_on_c, 0, 56, 33
1, 176489, Control_c, 0, 64, 60
1, 176489, Control_c, 0, 67, 109
1, 176504, Control_c, 0, 64, 63
1, 176504, Control_c, 0, 67, 109
1, 176518, Control_c, 0, 64, 65
1, 176518, Control_c, 0, 67, 108
1, 176533, Control_c, 0, 64, 68
1, 176533, Control_c, 0, 67, 108
1, 176548, Control_c, 0, 64, 70
1, 176552, Note_off_c, 0, 56, 53
1, 176563, Control_c, 0, 64, 72
1, 176578, Control_c, 0, 64, 74
1, 176578, Note_off_c, 0, 60, 35
1, 176748, Control_c, 0, 64, 73
1, 176763, Control_c, 0, 64, 72
1, 176770, Note_on_c, 0, 60, 40
1, 176778, Control_c, 0, 64, 71
1, 176780, Note_on_c, 0, 56, 37
1, 176793, Control_c, 0, 64, 70
1, 176808, Control_c, 0, 64, 67
1, 176808, Control_c, 0, 67, 108
1, 176823, Control_c, 0, 64, 65
1, 176838, Control_c, 0, 64, 62
1, 176844, Note_off_c, 0, 56, 53
1, 176849, Note_off_c, 0, 60, 46
1, 176853, Control_c, 0, 64, 59
1, 176867, Control_c, 0, 64, 56
1, 176882, Control_c, 0, 64, 54
1, 176897, Control_c, 0, 64, 53
1, 176912, Control_c, 0, 64, 52
1, 176927, Control_c, 0, 64, 51
1, 176941, Control_c, 0, 64, 50
1, 176956, Control_c, 0, 64, 49
1, 176971, Control_c, 0, 64, 48
1, 176986, Control_c, 0, 64, 47
1, 177001, Control_c, 0, 64, 46
1, 177016, Control_c, 0, 64, 45
1, 177045, Control_c, 0, 64, 45
1, 177060, Control_c, 0, 64, 44
1, 177060, Control_c, 0, 67, 108
1, 177074, Control_c, 0, 64, 43
1, 177089, Control_c, 0, 64, 42
1, 177104, Control_c, 0, 64, 42
1, 177119, Control_c, 0, 64, 41
1, 177134, Control_c, 0, 64, 41
1, 177148, Control_c, 0, 64, 40
1, 177153, Note_on_c, 0, 77, 52
1, 177164, Control_c, 0, 64, 40
1, 177179, Control_c, 0, 64, 39
1, 177193, Control_c, 0, 64, 38
1, 177208, Control_c, 0, 64, 38
1, 177223, Control_c, 0, 64, 37
1, 177253, Control_c, 0, 64, 37
1, 177267, Control_c, 0, 64, 36
1, 177267, Control_c, 0, 67, 107
1, 177282, Control_c, 0, 64, 36
1, 177297, Control_c, 0, 64, 35
1, 177312, Control_c, 0, 64, 35
1, 177327, Control_c, 0, 64, 34
1, 177350, Note_on_c, 0, 75, 49
1, 177371, Control_c, 0, 64, 34
1, 177371, Control_c, 0, 67, 107
1, 177373, Note_off_c, 0, 68, 53
1, 177386, Control_c, 0, 64, 33
1, 177401, Control_c, 0, 64, 33
1, 177416, Control_c, 0, 64, 32
1, 177416, Control_c, 0, 67, 106
1, 177450, Note_off_c, 0, 77, 53
1, 177468, Control_c, 0, 64, 32
1, 177485, Note_on_c, 0, 55, 36
1, 177494, Note_on_c, 0, 58, 28
1, 177512, Control_c, 0, 64, 31
1, 177528, Control_c, 0, 64, 30
1, 177530, Note_off_c, 0, 55, 54
1, 177535, Note_off_c, 0, 58, 53
1, 177543, Control_c, 0, 64, 29
1, 177558, Control_c, 0, 64, 28
1, 177572, Control_c, 0, 64, 26
1, 177572, Control_c, 0, 67, 107
1, 177587, Control_c, 0, 64, 23
1, 177602, Control_c, 0, 64, 17
1, 177617, Control_c, 0, 64, 0
1, 177617, Control_c, 0, 67, 107
1, 177705, Control_c, 0, 67, 107
1, 177720, Control_c, 0, 67, 106
1, 177735, Control_c, 0, 67, 106
1, 177750, Control_c, 0, 64, 37
1, 177750, Control_c, 0, 67, 105
1, 177765, Control_c, 0, 64, 53
1, 177765, Control_c, 0, 67, 105
1, 177771, Note_on_c, 0, 55, 35
1, 177779, Note_on_c, 0, 58, 25
1, 177780, Control_c, 0, 64, 60
1, 177780, Control_c, 0, 67, 104
1, 177795, Control_c, 0, 64, 64
1, 177809, Control_c, 0, 64, 67
1, 177824, Control_c, 0, 64, 70
1, 177839, Control_c, 0, 64, 73
1, 177854, Control_c, 0, 64, 75
1, 177854, Control_c, 0, 67, 103
1, 177866, Note_off_c, 0, 55, 37
1, 177869, Control_c, 0, 64, 76
1, 177884, Control_c, 0, 64, 77
1, 177890, Note_off_c, 0, 58, 29
1, 177898, Control_c, 0, 67, 103
1, 177928, Control_c, 0, 67, 102
1, 177943, Control_c, 0, 67, 102
1, 177958, Control_c, 0, 67, 100
1, 177972, Control_c, 0, 67, 99
1, 177987, Control_c, 0, 67, 98
1, 178002, Control_c, 0, 64, 76
1, 178002, Control_c, 0, 67, 97
1, 178016, Control_c, 0, 64, 76
1, 178016, Control_c, 0, 67, 96
1, 178031, Control_c, 0, 64, 75
1, 178031, Control_c, 0, 67, 96
1, 178046, Control_c, 0, 64, 74
1, 178046, Control_c, 0, 67, 95
1, 178050, Note_on_c, 0, 55, 40
1, 178051, Note_on_c, 0, 58, 44
1, 178061, Control_c, 0, 64, 72
1, 178061, Control_c, 0, 67, 94
1, 178076, Control_c, 0, 64, 70
1, 178076, Control_c, 0, 67, 92
1, 178090, Control_c, 0, 64, 66
1, 178090, Control_c, 0, 67, 91
1, 178094, Note_off_c, 0, 58, 49
1, 178098, Note_off_c, 0, 55, 46
1, 178105, Control_c, 0, 64, 63
1, 178105, Control_c, 0, 67, 89
1, 178120, Control_c, 0, 64, 59
1, 178120, Control_c, 0, 67, 88
1, 178135, Control_c, 0, 64, 56
1, 178135, Control_c, 0, 67, 88
1, 178150, Control_c, 0, 64, 54
1, 178150, Control_c, 0, 67, 87
1, 178164, Control_c, 0, 64, 53
1, 178164, Control_c, 0, 67, 87
1, 178176, Note_on_c, 0, 73, 57
1, 178179, Control_c, 0, 64, 52
1, 178179, Control_c, 0, 67, 86
1, 178197, Note_off_c, 0, 75, 60
1, 178202, Control_c, 0, 64, 50
1, 178202, Control_c, 0, 67, 85
1, 178217, Control_c, 0, 64, 48
1, 178231, Note_off_c, 0, 73, 58
1, 178231, Control_c, 0, 64, 45
1, 178246, Control_c, 0, 64, 43
1, 178261, Control_c, 0, 64, 40
1, 178276, Control_c, 0, 64, 38
1, 178276, Control_c, 0, 67, 85
1, 178291, Control_c, 0, 64, 35
1, 178305, Control_c, 0, 64, 31
1, 178321, Control_c, 0, 64, 25
1, 178331, Note_on_c, 0, 73, 69
1, 178336, Control_c, 0, 64, 19
1, 178351, Control_c, 0, 64, 13
1, 178366, Control_c, 0, 64, 0
1, 178366, Control_c, 0, 67, 85
1, 178528, Control_c, 0, 67, 85
1, 178558, Control_c, 0, 64, 31
1, 178558, Control_c, 0, 67, 84
1, 178573, Control_c, 0, 64, 49
1, 178582, Note_on_c, 0, 56, 44
1, 178582, Note_on_c, 0, 63, 44
1, 178588, Control_c, 0, 64, 58
1, 178602, Control_c, 0, 64, 62
1, 178602, Control_c, 0, 67, 84
1, 178617, Control_c, 0, 64, 64
1, 178632, Note_off_c, 0, 56, 57
1, 178632, Control_c, 0, 64, 65
1, 178645, Note_off_c, 0, 63, 60
1, 178647, Control_c, 0, 64, 66
1, 178662, Control_c, 0, 64, 67
1, 178721, Control_c, 0, 67, 83
1, 178736, Control_c, 0, 67, 82
1, 178781, Control_c, 0, 64, 67
1, 178795, Note_off_c, 0, 73, 64
1, 178795, Control_c, 0, 64, 66
1, 178810, Control_c, 0, 64, 64
1, 178825, Control_c, 0, 64, 63
1, 178825, Control_c, 0, 67, 81
1, 178828, Note_on_c, 0, 72, 53
1, 178839, Control_c, 0, 64, 61
1, 178854, Control_c, 0, 64, 59
1, 178855, Note_on_c, 0, 56, 46
1, 178856, Note_off_c, 0, 72, 53
1, 178857, Note_on_c, 0, 63, 42
1, 178864, Note_on_c, 0, 73, 55
1, 178869, Control_c, 0, 64, 56
1, 178884, Control_c, 0, 64, 54
1, 178899, Control_c, 0, 64, 52
1, 178907, Note_off_c, 0, 56, 54
1, 178907, Note_off_c, 0, 63, 59
1, 178913, Control_c, 0, 64, 50
1, 178915, Note_off_c, 0, 73, 55
1, 178928, Control_c, 0, 64, 47
1, 178932, Note_on_c, 0, 72, 60
1, 178951, Control_c, 0, 64, 45
1, 178966, Control_c, 0, 64, 43
1, 178981, Control_c, 0, 64, 42
1, 178995, Control_c, 0, 64, 40
1, 179010, Control_c, 0, 64, 39
1, 179025, Control_c, 0, 64, 37
1, 179040, Control_c, 0, 64, 36
1, 179069, Control_c, 0, 64, 36
1, 179069, Control_c, 0, 67, 81
1, 179084, Control_c, 0, 64, 35
1, 179099, Control_c, 0, 64, 34
1, 179114, Control_c, 0, 64, 33
1, 179125, Note_on_c, 0, 56, 48
1, 179130, Control_c, 0, 64, 33
1, 179130, Control_c, 0, 67, 80
1, 179132, Note_on_c, 0, 63, 47
1, 179166, Note_off_c, 0, 63, 59
1, 179169, Note_off_c, 0, 56, 59
1, 179189, Control_c, 0, 64, 32
1, 179189, Control_c, 0, 67, 80
1, 179218, Control_c, 0, 64, 31
1, 179218, Control_c, 0, 67, 79
1, 179233, Control_c, 0, 64, 31
1, 179233, Control_c, 0, 67, 78
1, 179248, Control_c, 0, 64, 30
1, 179248, Control_c, 0, 67, 74
1, 179250, Note_on_c, 0, 73, 68
1, 179258, Note_off_c, 0, 72, 57
1, 179262, Control_c, 0, 67, 69
1, 179277, Control_c, 0, 64, 30
1, 179277, Control_c, 0, 67, 67
1, 179292, Control_c, 0, 67, 65
1, 179307, Control_c, 0, 67, 65
1, 179322, Control_c, 0, 64, 29
1, 179337, Control_c, 0, 64, 27
1, 179351, Control_c, 0, 64, 25
1, 179351, Control_c, 0, 67, 64
1, 179357, Note_off_c, 0, 73, 60
1, 179366, Control_c, 0, 64, 23
1, 179381, Control_c, 0, 64, 21
1, 179385, Note_on_c, 0, 72, 72
1, 179396, Control_c, 0, 64, 17
1, 179396, Control_c, 0, 67, 64
1, 179410, Control_c, 0, 64, 10
1, 179410, Control_c, 0, 67, 62
1, 179425, Control_c, 0, 64, 0
1, 179425, Control_c, 0, 67, 59
1, 179440, Control_c, 0, 67, 56
1, 179455, Control_c, 0, 67, 54
1, 179469, Control_c, 0, 67, 51
1, 179484, Control_c, 0, 67, 49
1, 179499, Control_c, 0, 67, 48
1, 179514, Control_c, 0, 67, 47
1, 179529, Control_c, 0, 67, 46
1, 179558, Control_c, 0, 67, 46
1, 179573, Control_c, 0, 67, 45
1, 179587, Control_c, 0, 67, 43
1, 179602, Control_c, 0, 67, 38
1, 179617, Control_c, 0, 67, 32
1, 179632, Control_c, 0, 64, 28
1, 179632, Control_c, 0, 67, 25
1, 179635, Note_on_c, 0, 65, 42
1, 179639, Note_on_c, 0, 61, 46
1, 179647, Control_c, 0, 64, 45
1, 179647, Control_c, 0, 67, 17
1, 179661, Control_c, 0, 64, 54
1, 179661, Control_c, 0, 67, 10
1, 179676, Control_c, 0, 64, 59
1, 179676, Control_c, 0, 67, 0
1, 179692, Note_off_c, 0, 61, 58
1, 179699, Note_off_c, 0, 65, 56
1, 179699, Control_c, 0, 64, 61
1, 179714, Control_c, 0, 64, 62
1, 179729, Control_c, 0, 64, 62
1, 179743, Control_c, 0, 64, 63
1, 179832, Control_c, 0, 64, 62
1, 179840, Note_off_c, 0, 72, 60
1, 179847, Control_c, 0, 64, 61
1, 179862, Control_c, 0, 64, 60
1, 179876, Control_c, 0, 64, 58
1, 179891, Control_c, 0, 64, 54
1, 179893, Note_on_c, 0, 70, 44
1, 179906, Control_c, 0, 64, 51
1, 179908, Note_on_c, 0, 65, 47
1, 179919, Note_on_c, 0, 61, 40
1, 179921, Note_on_c, 0, 72, 51
1, 179922, Control_c, 0, 64, 46
1, 179937, Control_c, 0, 64, 42
1, 179952, Control_c, 0, 64, 39
1, 179965, Note_off_c, 0, 65, 52
1, 179966, Note_off_c, 0, 72, 57
1, 179966, Control_c, 0, 64, 36
1, 179969, Note_off_c, 0, 61, 50
1, 179981, Control_c, 0, 64, 34
1, 179986, Note_off_c, 0, 70, 0
1, 179986, Note_on_c, 0, 70, 18
1, 179996, Control_c, 0, 64, 32
1, 180011, Control_c, 0, 64, 29
1, 180026, Control_c, 0, 64, 26
1, 180040, Control_c, 0, 64, 23
1, 180055, Control_c, 0, 64, 19
1, 180070, Control_c, 0, 64, 15
1, 180085, Control_c, 0, 64, 10
1, 180099, Control_c, 0, 64, 0
1, 180188, Control_c, 0, 67, 8
1, 180188, Note_on_c, 0, 65, 45
1, 180203, Control_c, 0, 67, 10
1, 180212, Note_on_c, 0, 61, 28
1, 180217, Control_c, 0, 67, 13
1, 180232, Control_c, 0, 67, 16
1, 180239, Note_off_c, 0, 65, 58
1, 180247, Control_c, 0, 67, 20
1, 180261, Note_off_c, 0, 61, 46
1, 180262, Control_c, 0, 67, 25
1, 180277, Control_c, 0, 67, 31
1, 180291, Control_c, 0, 67, 36
1, 180306, Control_c, 0, 67, 38
1, 180361, Note_on_c, 0, 72, 53
1, 180367, Note_off_c, 0, 70, 55
1, 180395, Control_c, 0, 67, 38
1, 180493, Note_off_c, 0, 72, 53
1, 180507, Note_on_c, 0, 70, 51
1, 180521, Control_c, 0, 67, 38
1, 180536, Control_c, 0, 67, 39
1, 180551, Control_c, 0, 67, 39
1, 180565, Control_c, 0, 67, 40
1, 180639, Control_c, 0, 67, 40
1, 180698, Control_c, 0, 67, 41
1, 180714, Control_c, 0, 64, 22
1, 180714, Control_c, 0, 67, 46
1, 180729, Control_c, 0, 64, 44
1, 180729, Control_c, 0, 67, 51
1, 180744, Control_c, 0, 64, 54
1, 180744, Control_c, 0, 67, 54
1, 180759, Control_c, 0, 64, 57
1, 180765, Note_on_c, 0, 60, 46
1, 180773, Note_on_c, 0, 63, 40
1, 180774, Control_c, 0, 64, 59
1, 180788, Control_c, 0, 64, 60
1, 180803, Control_c, 0, 64, 61
1, 180812, Note_off_c, 0, 60, 58
1, 180821, Note_off_c, 0, 63, 57
1, 180833, Control_c, 0, 67, 54
1, 180908, Control_c, 0, 67, 54
1, 180967, Control_c, 0, 64, 61
1, 180967, Control_c, 0, 67, 55
1, 180980, Note_off_c, 0, 70, 59
1, 180982, Control_c, 0, 64, 60
1, 180982, Control_c, 0, 67, 56
1, 180996, Control_c, 0, 64, 58
1, 180996, Control_c, 0, 67, 57
1, 181011, Control_c, 0, 64, 56
1, 181011, Control_c, 0, 67, 59
1, 181014, Note_on_c, 0, 68, 49
1, 181026, Control_c, 0, 64, 52
1, 181026, Control_c, 0, 67, 64
1, 181033, Note_on_c, 0, 63, 40
1, 181035, Note_on_c, 0, 60, 38
1, 181037, Note_off_c, 0, 68, 60
1, 181041, Control_c, 0, 64, 47
1, 181041, Control_c, 0, 67, 69
1, 181056, Control_c, 0, 64, 41
1, 181056, Control_c, 0, 67, 73
1, 181065, Note_on_c, 0, 70, 37
1, 181071, Control_c, 0, 64, 34
1, 181071, Control_c, 0, 67, 77
1, 181079, Note_off_c, 0, 60, 47
1, 181081, Note_off_c, 0, 63, 52
1, 181086, Control_c, 0, 64, 27
1, 181086, Control_c, 0, 67, 80
1, 181100, Control_c, 0, 64, 21
1, 181100, Control_c, 0, 67, 83
1, 181113, Note_off_c, 0, 70, 54
1, 181115, Control_c, 0, 64, 15
1, 181115, Control_c, 0, 67, 84
1, 181127, Note_on_c, 0, 68, 52
1, 181130, Control_c, 0, 64, 0
1, 181130, Control_c, 0, 67, 85
1, 181145, Control_c, 0, 67, 86
1, 181160, Control_c, 0, 67, 87
1, 181175, Control_c, 0, 67, 87
1, 181196, Control_c, 0, 67, 88
1, 181293, Note_off_c, 0, 68, 61
1, 181315, Control_c, 0, 67, 87
1, 181324, Note_on_c, 0, 67, 51
1, 181345, Control_c, 0, 67, 87
1, 181376, Note_on_c, 0, 68, 48
1, 181379, Note_on_c, 0, 60, 42
1, 181379, Note_off_c, 0, 67, 56
1, 181390, Control_c, 0, 67, 86
1, 181395, Note_on_c, 0, 63, 29
1, 181404, Control_c, 0, 67, 86
1, 181419, Control_c, 0, 67, 85
1, 181434, Note_off_c, 0, 60, 51
1, 181447, Note_off_c, 0, 63, 45
1, 181463, Control_c, 0, 67, 85
1, 181509, Control_c, 0, 67, 84
1, 181553, Control_c, 0, 67, 84
1, 181598, Control_c, 0, 67, 83
1, 181608, Note_off_c, 0, 68, 60
1, 181627, Control_c, 0, 67, 83
1, 181645, Note_on_c, 0, 70, 38
1, 181670, Control_c, 0, 67, 82
1, 181682, Note_off_c, 0, 70, 50
1, 181706, Note_on_c, 0, 68, 42
1, 181747, Note_on_c, 0, 63, 27
1, 181747, Note_on_c, 0, 60, 30
1, 181789, Control_c, 0, 67, 82
1, 181834, Control_c, 0, 67, 81
1, 181863, Control_c, 0, 67, 81
1, 181878, Control_c, 0, 67, 80
1, 181893, Control_c, 0, 67, 80
1, 181908, Control_c, 0, 67, 79
1, 181923, Control_c, 0, 64, 15
1, 181923, Control_c, 0, 67, 78
1, 181944, Control_c, 0, 64, 39
1, 181944, Control_c, 0, 67, 77
1, 181959, Control_c, 0, 64, 51
1, 181959, Control_c, 0, 67, 76
1, 181974, Control_c, 0, 64, 57
1, 181974, Control_c, 0, 67, 75
1, 181989, Control_c, 0, 64, 60
1, 181989, Control_c, 0, 67, 75
1, 182004, Control_c, 0, 64, 62
1, 182004, Control_c, 0, 67, 74
1, 182019, Control_c, 0, 64, 63
1, 182019, Control_c, 0, 67, 74
1, 182033, Control_c, 0, 64, 65
1, 182033, Control_c, 0, 67, 73
1, 182048, Control_c, 0, 64, 67
1, 182048, Control_c, 0, 67, 72
1, 182063, Control_c, 0, 64, 69
1, 182063, Control_c, 0, 67, 72
1, 182078, Control_c, 0, 64, 72
1, 182078, Control_c, 0, 67, 70
1, 182093, Control_c, 0, 64, 74
1, 182093, Control_c, 0, 67, 66
1, 182096, Note_off_c, 0, 60, 45
1, 182108, Control_c, 0, 64, 75
1, 182108, Control_c, 0, 67, 61
1, 182113, Note_off_c, 0, 63, 42
1, 182123, Control_c, 0, 64, 76
1, 182123, Control_c, 0, 67, 57
1, 182123, Note_off_c, 0, 68, 52
1, 182137, Control_c, 0, 64, 76
1, 182137, Control_c, 0, 67, 53
1, 182152, Control_c, 0, 64, 77
1, 182152, Control_c, 0, 67, 50
1, 182167, Control_c, 0, 67, 46
1, 182182, Control_c, 0, 67, 41
1, 182196, Control_c, 0, 67, 35
1, 182211, Control_c, 0, 67, 27
1, 182226, Control_c, 0, 67, 18
1, 182241, Control_c, 0, 67, 0
1, 182316, Control_c, 0, 64, 76
1, 182331, Control_c, 0, 64, 75
1, 182346, Control_c, 0, 64, 72
1, 182360, Control_c, 0, 64, 70
1, 182375, Control_c, 0, 64, 67
1, 182390, Control_c, 0, 64, 63
1, 182405, Control_c, 0, 64, 60
1, 182420, Control_c, 0, 64, 57
1, 182434, Control_c, 0, 64, 54
1, 182449, Control_c, 0, 64, 51
1, 182464, Control_c, 0, 64, 48
1, 182478, Control_c, 0, 64, 45
1, 182493, Control_c, 0, 64, 41
1, 182508, Control_c, 0, 64, 37
1, 182523, Control_c, 0, 64, 33
1, 182538, Control_c, 0, 64, 28
1, 182552, Control_c, 0, 64, 25
1, 182567, Control_c, 0, 64, 22
1, 182582, Control_c, 0, 64, 18
1, 182597, Control_c, 0, 64, 16
1, 182612, Control_c, 0, 64, 13
1, 182627, Control_c, 0, 64, 11
1, 182642, Control_c, 0, 64, 0
1, 182900, Note_on_c, 0, 80, 56
1, 183000, Note_off_c, 0, 80, 51
1, 183029, Note_on_c, 0, 84, 56
1, 183117, Note_on_c, 0, 82, 67
1, 183154, Note_off_c, 0, 84, 57
1, 183208, Note_on_c, 0, 80, 65
1, 183250, Note_off_c, 0, 82, 55
1, 183274, Note_on_c, 0, 79, 71
1, 183302, Note_off_c, 0, 80, 60
1, 183327, Note_off_c, 0, 79, 64
1, 183357, Note_on_c, 0, 77, 63
1, 183437, Note_off_c, 0, 77, 59
1, 183443, Note_on_c, 0, 75, 74
1, 183524, Note_on_c, 0, 73, 70
1, 183533, Note_off_c, 0, 75, 62
1, 183581, Note_off_c, 0, 73, 65
1, 183601, Note_on_c, 0, 72, 63
1, 183670, Note_on_c, 0, 70, 71
1, 183675, Note_off_c, 0, 72, 59
1, 183757, Note_on_c, 0, 68, 71
1, 183831, Note_on_c, 0, 67, 74
1, 183852, Note_off_c, 0, 70, 50
1, 183926, Note_off_c, 0, 68, 46
1, 183929, Note_on_c, 0, 65, 73
1, 183950, Note_off_c, 0, 67, 59
1, 184189, Note_on_c, 0, 56, 63
1, 184193, Note_on_c, 0, 49, 54
1, 184221, Note_off_c, 0, 56, 62
1, 184234, Note_off_c, 0, 49, 60
1, 184428, Control_c, 0, 64, 31
1, 184443, Control_c, 0, 64, 47
1, 184448, Note_on_c, 0, 56, 62
1, 184448, Note_on_c, 0, 49, 51
1, 184457, Control_c, 0, 64, 58
1, 184472, Control_c, 0, 64, 62
1, 184487, Control_c, 0, 64, 64
1, 184501, Note_off_c, 0, 56, 61
1, 184502, Control_c, 0, 64, 66
1, 184517, Control_c, 0, 64, 68
1, 184524, Note_off_c, 0, 49, 56
1, 184531, Control_c, 0, 64, 70
1, 184546, Control_c, 0, 64, 70
1, 184651, Control_c, 0, 64, 69
1, 184666, Control_c, 0, 64, 68
1, 184680, Control_c, 0, 64, 67
1, 184695, Control_c, 0, 64, 64
1, 184711, Control_c, 0, 64, 61
1, 184726, Control_c, 0, 64, 57
1, 184731, Note_on_c, 0, 58, 60
1, 184734, Note_on_c, 0, 49, 57
1, 184741, Control_c, 0, 64, 54
1, 184755, Control_c, 0, 64, 51
1, 184770, Control_c, 0, 64, 49
1, 184775, Note_off_c, 0, 58, 60
1, 184776, Note_off_c, 0, 49, 62
1, 184785, Control_c, 0, 64, 46
1, 184800, Control_c, 0, 64, 43
1, 184815, Control_c, 0, 64, 39
1, 184830, Control_c, 0, 64, 36
1, 184840, Note_on_c, 0, 67, 77
1, 184844, Control_c, 0, 64, 33
1, 184859, Control_c, 0, 64, 30
1, 184874, Control_c, 0, 64, 26
1, 184889, Control_c, 0, 64, 24
1, 184890, Note_off_c, 0, 65, 55
1, 184904, Control_c, 0, 64, 21
1, 184919, Control_c, 0, 64, 18
1, 184935, Note_off_c, 0, 67, 63
1, 184941, Control_c, 0, 64, 15
1, 184956, Control_c, 0, 64, 12
1, 184970, Control_c, 0, 64, 9
1, 184985, Control_c, 0, 64, 0
1, 184991, Note_on_c, 0, 67, 73
1, 185230, Note_on_c, 0, 51, 57
1, 185231, Note_on_c, 0, 48, 55
1, 185275, Note_off_c, 0, 48, 60
1, 185275, Note_off_c, 0, 51, 58
1, 185497, Note_on_c, 0, 68, 65
1, 185504, Note_on_c, 0, 48, 47
1, 185504, Control_c, 0, 64, 35
1, 185509, Note_on_c, 0, 51, 44
1, 185519, Control_c, 0, 64, 49
1, 185527, Note_off_c, 0, 67, 57
1, 185534, Control_c, 0, 64, 56
1, 185549, Control_c, 0, 64, 60
1, 185564, Note_off_c, 0, 48, 56
1, 185564, Control_c, 0, 64, 61
1, 185572, Note_off_c, 0, 51, 53
1, 185578, Control_c, 0, 64, 62
1, 185593, Control_c, 0, 64, 63
1, 185625, Note_off_c, 0, 68, 61
1, 185638, Note_on_c, 0, 72, 63
1, 185667, Control_c, 0, 64, 62
1, 185690, Control_c, 0, 64, 62
1, 185705, Control_c, 0, 64, 60
1, 185719, Control_c, 0, 64, 58
1, 185734, Control_c, 0, 64, 56
1, 185748, Note_on_c, 0, 70, 67
1, 185749, Control_c, 0, 64, 54
1, 185764, Control_c, 0, 64, 50
1, 185779, Control_c, 0, 64, 47
1, 185782, Note_off_c, 0, 72, 54
1, 185793, Control_c, 0, 64, 43
1, 185808, Control_c, 0, 64, 41
1, 185823, Control_c, 0, 64, 38
1, 185832, Note_on_c, 0, 53, 45
1, 185835, Note_on_c, 0, 49, 44
1, 185837, Control_c, 0, 64, 37
1, 185840, Note_on_c, 0, 68, 68
1, 185852, Control_c, 0, 64, 35
1, 185867, Control_c, 0, 64, 34
1, 185878, Note_off_c, 0, 49, 62
1, 185882, Control_c, 0, 64, 32
1, 185884, Note_off_c, 0, 53, 60
1, 185887, Note_off_c, 0, 70, 58
1, 185897, Control_c, 0, 64, 29
1, 185912, Control_c, 0, 64, 26
1, 185924, Note_on_c, 0, 67, 66
1, 185926, Control_c, 0, 64, 25
1, 185941, Control_c, 0, 64, 24
1, 185949, Note_off_c, 0, 68, 62
1, 185956, Control_c, 0, 64, 23
1, 185967, Note_off_c, 0, 67, 63
1, 185971, Control_c, 0, 64, 22
1, 185986, Control_c, 0, 64, 20
1, 185999, Note_on_c, 0, 65, 68
1, 186001, Control_c, 0, 64, 19
1, 186016, Control_c, 0, 64, 18
1, 186045, Control_c, 0, 64, 17
1, 186085, Note_on_c, 0, 63, 72
1, 186086, Note_off_c, 0, 65, 62
1, 186251, Control_c, 0, 64, 17
1, 186266, Control_c, 0, 64, 11
1, 186281, Control_c, 0, 64, 0
1, 186332, Note_on_c, 0, 60, 57
1, 186344, Note_on_c, 0, 51, 45
1, 186377, Note_off_c, 0, 60, 60
1, 186386, Control_c, 0, 64, 10
1, 186398, Note_off_c, 0, 51, 59
1, 186400, Control_c, 0, 64, 34
1, 186415, Control_c, 0, 64, 46
1, 186438, Control_c, 0, 64, 51
1, 186453, Control_c, 0, 64, 53
1, 186472, Note_on_c, 0, 60, 61
1, 186474, Note_off_c, 0, 63, 58
1, 186512, Control_c, 0, 64, 52
1, 186527, Control_c, 0, 64, 52
1, 186541, Control_c, 0, 64, 50
1, 186555, Note_on_c, 0, 61, 59
1, 186555, Note_off_c, 0, 60, 59
1, 186556, Control_c, 0, 64, 47
1, 186571, Control_c, 0, 64, 45
1, 186586, Control_c, 0, 64, 43
1, 186596, Note_off_c, 0, 61, 63
1, 186601, Control_c, 0, 64, 41
1, 186603, Note_on_c, 0, 51, 49
1, 186608, Note_on_c, 0, 63, 67
1, 186615, Note_on_c, 0, 58, 47
1, 186615, Control_c, 0, 64, 40
1, 186630, Control_c, 0, 64, 39
1, 186642, Note_off_c, 0, 58, 58
1, 186645, Control_c, 0, 64, 38
1, 186649, Note_off_c, 0, 51, 61
1, 186660, Control_c, 0, 64, 36
1, 186667, Note_off_c, 0, 63, 64
1, 186675, Control_c, 0, 64, 35
1, 186678, Note_on_c, 0, 61, 66
1, 186690, Control_c, 0, 64, 34
1, 186705, Control_c, 0, 64, 33
1, 186714, Note_off_c, 0, 61, 62
1, 186719, Control_c, 0, 64, 33
1, 186727, Note_on_c, 0, 63, 63
1, 186734, Control_c, 0, 64, 32
1, 186749, Control_c, 0, 64, 31
1, 186764, Control_c, 0, 64, 30
1, 186771, Note_off_c, 0, 63, 62
1, 186790, Note_on_c, 0, 61, 64
1, 186807, Note_on_c, 0, 51, 49
1, 186808, Note_on_c, 0, 58, 39
1, 186819, Note_off_c, 0, 61, 66
1, 186833, Note_on_c, 0, 63, 67
1, 186851, Note_off_c, 0, 58, 56
1, 186862, Note_off_c, 0, 51, 57
1, 186867, Control_c, 0, 64, 29
1, 186880, Note_off_c, 0, 63, 59
1, 186882, Control_c, 0, 64, 28
1, 186885, Note_on_c, 0, 61, 72
1, 186897, Control_c, 0, 64, 27
1, 186928, Note_off_c, 0, 61, 62
1, 186940, Note_on_c, 0, 60, 67
1, 186985, Control_c, 0, 64, 27
1, 187003, Note_off_c, 0, 60, 62
1, 187006, Note_on_c, 0, 61, 71
1, 187015, Control_c, 0, 64, 26
1, 187030, Control_c, 0, 64, 26
1, 187044, Note_off_c, 0, 61, 61
1, 187045, Control_c, 0, 64, 25
1, 187059, Control_c, 0, 64, 25
1, 187074, Control_c, 0, 64, 24
1, 187089, Control_c, 0, 64, 24
1, 187131, Note_on_c, 0, 61, 76
1, 187149, Control_c, 0, 64, 23
1, 187161, Note_on_c, 0, 58, 52
1, 187276, Control_c, 0, 64, 23
1, 187410, Note_on_c, 0, 56, 57
1, 187414, Note_on_c, 0, 44, 49
1, 187447, Note_off_c, 0, 56, 59
1, 187463, Note_off_c, 0, 44, 56
1, 187468, Control_c, 0, 64, 22
1, 187527, Control_c, 0, 64, 22
1, 187542, Control_c, 0, 64, 21
1, 187557, Control_c, 0, 64, 19
1, 187572, Control_c, 0, 64, 17
1, 187587, Control_c, 0, 64, 15
1, 187601, Control_c, 0, 64, 12
1, 187616, Control_c, 0, 64, 9
1, 187631, Control_c, 0, 64, 0
1, 187727, Note_on_c, 0, 60, 39
1, 187739, Note_off_c, 0, 61, 32
1, 187745, Note_on_c, 0, 56, 13
1, 187750, Note_on_c, 0, 44, 32
1, 187752, Note_off_c, 0, 58, 41
1, 187754, Note_on_c, 0, 51, 29
1, 187824, Control_c, 0, 64, 31
1, 187839, Control_c, 0, 64, 48
1, 187854, Control_c, 0, 64, 56
1, 187869, Control_c, 0, 64, 61
1, 187883, Control_c, 0, 64, 64
1, 187888, Note_off_c, 0, 51, 42
1, 187899, Control_c, 0, 64, 66
1, 187900, Note_off_c, 0, 44, 37
1, 187914, Control_c, 0, 64, 68
1, 187936, Control_c, 0, 64, 70
1, 187951, Control_c, 0, 64, 72
1, 187969, Note_off_c, 0, 56, 40
1, 187986, Note_off_c, 0, 60, 59
1, 188100, Control_c, 0, 64, 71
1, 188101, Note_on_c, 0, 51, 29
1, 188106, Note_on_c, 0, 44, 34
1, 188114, Control_c, 0, 64, 70
1, 188129, Control_c, 0, 64, 68
1, 188144, Control_c, 0, 64, 66
1, 188147, Note_off_c, 0, 44, 50
1, 188150, Note_off_c, 0, 51, 47
1, 188159, Control_c, 0, 64, 64
1, 188174, Control_c, 0, 64, 61
1, 188188, Control_c, 0, 64, 58
1, 188203, Control_c, 0, 64, 56
1, 188218, Control_c, 0, 64, 55
1, 188232, Control_c, 0, 64, 53
1, 188247, Control_c, 0, 64, 52
1, 188262, Control_c, 0, 64, 50
1, 188277, Control_c, 0, 64, 48
1, 188292, Control_c, 0, 64, 47
1, 188306, Control_c, 0, 64, 46
1, 188321, Control_c, 0, 64, 46
1, 188336, Control_c, 0, 64, 45
1, 188351, Control_c, 0, 64, 43
1, 188366, Control_c, 0, 64, 41
1, 188380, Control_c, 0, 64, 39
1, 188395, Control_c, 0, 64, 36
1, 188410, Control_c, 0, 64, 32
1, 188412, Note_on_c, 0, 68, 69
1, 188424, Control_c, 0, 64, 27
1, 188439, Control_c, 0, 64, 19
1, 188454, Control_c, 0, 64, 0
1, 188457, Note_off_c, 0, 68, 62
1, 188466, Note_on_c, 0, 67, 74
1, 188519, Note_on_c, 0, 68, 76
1, 188546, Note_off_c, 0, 67, 62
1, 188761, Note_on_c, 0, 56, 67
1, 188761, Note_on_c, 0, 59, 65
1, 188798, Note_off_c, 0, 56, 60
1, 188805, Note_off_c, 0, 59, 64
1, 188996, Control_c, 0, 64, 36
1, 189011, Control_c, 0, 64, 50
1, 189026, Control_c, 0, 64, 57
1, 189041, Control_c, 0, 64, 61
1, 189055, Control_c, 0, 64, 63
1, 189056, Note_on_c, 0, 59, 62
1, 189059, Note_on_c, 0, 56, 65
1, 189070, Control_c, 0, 64, 66
1, 189085, Control_c, 0, 64, 68
1, 189100, Control_c, 0, 64, 70
1, 189110, Note_off_c, 0, 59, 60
1, 189112, Note_off_c, 0, 56, 56
1, 189115, Control_c, 0, 64, 71
1, 189129, Control_c, 0, 64, 72
1, 189144, Control_c, 0, 64, 72
1, 189277, Control_c, 0, 64, 72
1, 189292, Control_c, 0, 64, 71
1, 189307, Control_c, 0, 64, 70
1, 189322, Control_c, 0, 64, 69
1, 189324, Note_on_c, 0, 59, 65
1, 189327, Note_on_c, 0, 56, 58
1, 189337, Control_c, 0, 64, 67
1, 189349, Note_off_c, 0, 56, 63
1, 189352, Control_c, 0, 64, 65
1, 189354, Note_off_c, 0, 59, 66
1, 189366, Control_c, 0, 64, 63
1, 189381, Control_c, 0, 64, 59
1, 189396, Control_c, 0, 64, 57
1, 189411, Control_c, 0, 64, 55
1, 189433, Control_c, 0, 64, 54
1, 189448, Control_c, 0, 64, 53
1, 189462, Control_c, 0, 64, 51
1, 189477, Control_c, 0, 64, 48
1, 189492, Control_c, 0, 64, 45
1, 189508, Control_c, 0, 64, 43
1, 189523, Control_c, 0, 64, 41
1, 189538, Control_c, 0, 64, 40
1, 189552, Control_c, 0, 64, 39
1, 189567, Control_c, 0, 64, 37
1, 189582, Note_on_c, 0, 74, 84
1, 189582, Control_c, 0, 64, 34
1, 189597, Control_c, 0, 64, 32
1, 189612, Control_c, 0, 64, 31
1, 189671, Control_c, 0, 64, 30
1, 189685, Control_c, 0, 64, 30
1, 189715, Control_c, 0, 64, 29
1, 189745, Note_on_c, 0, 75, 81
1, 189760, Note_off_c, 0, 68, 54
1, 189812, Note_off_c, 0, 74, 59
1, 189899, Note_on_c, 0, 55, 58
1, 189905, Note_on_c, 0, 58, 52
1, 189937, Note_off_c, 0, 55, 60
1, 189948, Note_off_c, 0, 58, 62
1, 189966, Control_c, 0, 64, 29
1, 189981, Control_c, 0, 64, 28
1, 189995, Control_c, 0, 64, 26
1, 190010, Control_c, 0, 64, 21
1, 190025, Control_c, 0, 64, 10
1, 190040, Control_c, 0, 64, 0
1, 190181, Control_c, 0, 64, 19
1, 190183, Note_on_c, 0, 58, 59
1, 190186, Note_on_c, 0, 55, 57
1, 190196, Control_c, 0, 64, 42
1, 190210, Control_c, 0, 64, 54
1, 190225, Control_c, 0, 64, 60
1, 190238, Note_off_c, 0, 58, 58
1, 190240, Control_c, 0, 64, 62
1, 190243, Note_off_c, 0, 55, 55
1, 190255, Control_c, 0, 64, 64
1, 190270, Control_c, 0, 64, 66
1, 190285, Control_c, 0, 64, 68
1, 190300, Control_c, 0, 64, 69
1, 190315, Control_c, 0, 64, 70
1, 190330, Control_c, 0, 64, 71
1, 190374, Control_c, 0, 64, 71
1, 190446, Note_on_c, 0, 55, 53
1, 190469, Note_on_c, 0, 58, 41
1, 190493, Note_off_c, 0, 55, 64
1, 190493, Control_c, 0, 64, 71
1, 190503, Note_off_c, 0, 58, 53
1, 190508, Control_c, 0, 64, 70
1, 190523, Control_c, 0, 64, 69
1, 190538, Control_c, 0, 64, 68
1, 190553, Control_c, 0, 64, 67
1, 190568, Control_c, 0, 64, 65
1, 190582, Control_c, 0, 64, 61
1, 190597, Control_c, 0, 64, 58
1, 190600, Note_on_c, 0, 73, 74
1, 190612, Control_c, 0, 64, 56
1, 190626, Control_c, 0, 64, 54
1, 190639, Note_off_c, 0, 75, 61
1, 190641, Control_c, 0, 64, 52
1, 190656, Control_c, 0, 64, 50
1, 190671, Control_c, 0, 64, 48
1, 190672, Note_off_c, 0, 73, 66
1, 190686, Control_c, 0, 64, 44
1, 190700, Control_c, 0, 64, 39
1, 190715, Control_c, 0, 64, 34
1, 190730, Control_c, 0, 64, 29
1, 190740, Note_on_c, 0, 73, 80
1, 190745, Control_c, 0, 64, 25
1, 190760, Control_c, 0, 64, 21
1, 190774, Control_c, 0, 64, 17
1, 190789, Control_c, 0, 64, 9
1, 190804, Control_c, 0, 64, 0
1, 190988, Note_on_c, 0, 56, 55
1, 190990, Note_on_c, 0, 63, 57
1, 191029, Note_off_c, 0, 56, 61
1, 191029, Note_off_c, 0, 63, 63
1, 191262, Note_on_c, 0, 71, 65
1, 191271, Control_c, 0, 64, 22
1, 191279, Note_on_c, 0, 56, 47
1, 191279, Note_on_c, 0, 63, 50
1, 191285, Note_off_c, 0, 73, 61
1, 191286, Control_c, 0, 64, 48
1, 191301, Control_c, 0, 64, 59
1, 191316, Control_c, 0, 64, 63
1, 191317, Note_off_c, 0, 63, 64
1, 191325, Note_off_c, 0, 56, 60
1, 191327, Note_off_c, 0, 71, 64
1, 191331, Control_c, 0, 64, 65
1, 191346, Control_c, 0, 64, 68
1, 191361, Control_c, 0, 64, 70
1, 191376, Control_c, 0, 64, 72
1, 191390, Control_c, 0, 64, 73
1, 191464, Control_c, 0, 64, 72
1, 191479, Control_c, 0, 64, 70
1, 191494, Control_c, 0, 64, 68
1, 191509, Control_c, 0, 64, 65
1, 191523, Control_c, 0, 64, 61
1, 191538, Control_c, 0, 64, 56
1, 191551, Note_on_c, 0, 63, 79
1, 191553, Control_c, 0, 64, 52
1, 191568, Note_on_c, 0, 59, 51
1, 191568, Control_c, 0, 64, 49
1, 191572, Note_on_c, 0, 56, 47
1, 191583, Control_c, 0, 64, 47
1, 191597, Control_c, 0, 64, 45
1, 191612, Control_c, 0, 64, 43
1, 191617, Note_off_c, 0, 59, 63
1, 191627, Control_c, 0, 64, 41
1, 191641, Control_c, 0, 64, 39
1, 191644, Note_off_c, 0, 56, 57
1, 191656, Control_c, 0, 64, 38
1, 191679, Control_c, 0, 64, 37
1, 191694, Control_c, 0, 64, 35
1, 191709, Control_c, 0, 64, 34
1, 191723, Control_c, 0, 64, 34
1, 191738, Control_c, 0, 64, 33
1, 191768, Control_c, 0, 64, 33
1, 191783, Control_c, 0, 64, 32
1, 191797, Control_c, 0, 64, 31
1, 191812, Control_c, 0, 64, 29
1, 191827, Control_c, 0, 64, 28
1, 191891, Note_on_c, 0, 64, 76
1, 191946, Control_c, 0, 64, 27
1, 191976, Control_c, 0, 64, 27
1, 191991, Control_c, 0, 64, 26
1, 192006, Control_c, 0, 64, 26
1, 192046, Note_off_c, 0, 63, 54
1, 192050, Control_c, 0, 64, 25
1, 192094, Control_c, 0, 64, 25
1, 192109, Control_c, 0, 64, 24
1, 192124, Control_c, 0, 64, 23
1, 192166, Note_on_c, 0, 59, 55
1, 192169, Note_on_c, 0, 56, 58
1, 192205, Note_off_c, 0, 56, 60
1, 192205, Note_off_c, 0, 59, 64
1, 192242, Control_c, 0, 64, 23
1, 192271, Control_c, 0, 64, 22
1, 192286, Control_c, 0, 64, 19
1, 192301, Control_c, 0, 64, 16
1, 192316, Control_c, 0, 64, 0
1, 192457, Control_c, 0, 64, 26
1, 192470, Note_on_c, 0, 59, 46
1, 192471, Note_on_c, 0, 56, 47
1, 192471, Control_c, 0, 64, 45
1, 192486, Control_c, 0, 64, 55
1, 192501, Control_c, 0, 64, 61
1, 192516, Control_c, 0, 64, 63
1, 192517, Note_off_c, 0, 56, 59
1, 192518, Note_off_c, 0, 59, 54
1, 192531, Control_c, 0, 64, 65
1, 192545, Control_c, 0, 64, 67
1, 192560, Control_c, 0, 64, 69
1, 192575, Control_c, 0, 64, 71
1, 192590, Control_c, 0, 64, 72
1, 192709, Control_c, 0, 64, 71
1, 192724, Control_c, 0, 64, 70
1, 192739, Control_c, 0, 64, 69
1, 192743, Note_on_c, 0, 68, 74
1, 192754, Control_c, 0, 64, 67
1, 192762, Note_off_c, 0, 64, 60
1, 192768, Control_c, 0, 64, 66
1, 192770, Note_on_c, 0, 59, 51
1, 192777, Note_on_c, 0, 56, 45
1, 192783, Control_c, 0, 64, 64
1, 192798, Control_c, 0, 64, 63
1, 192805, Note_off_c, 0, 59, 54
1, 192813, Control_c, 0, 64, 61
1, 192825, Note_off_c, 0, 56, 57
1, 192828, Control_c, 0, 64, 60
1, 192842, Control_c, 0, 64, 59
1, 192857, Control_c, 0, 64, 59
1, 192872, Control_c, 0, 64, 58
1, 192887, Control_c, 0, 64, 58
1, 192902, Control_c, 0, 64, 57
1, 192917, Control_c, 0, 64, 56
1, 192929, Note_off_c, 0, 68, 62
1, 192932, Control_c, 0, 64, 55
1, 192947, Control_c, 0, 64, 53
1, 192953, Note_on_c, 0, 64, 75
1, 192961, Control_c, 0, 64, 50
1, 192976, Control_c, 0, 64, 47
1, 192988, Note_off_c, 0, 64, 66
1, 192991, Control_c, 0, 64, 44
1, 193006, Control_c, 0, 64, 40
1, 193020, Control_c, 0, 64, 36
1, 193035, Control_c, 0, 64, 30
1, 193045, Note_on_c, 0, 64, 75
1, 193050, Control_c, 0, 64, 25
1, 193065, Control_c, 0, 64, 21
1, 193080, Control_c, 0, 64, 19
1, 193094, Control_c, 0, 64, 18
1, 193109, Control_c, 0, 64, 16
1, 193124, Control_c, 0, 64, 14
1, 193139, Control_c, 0, 64, 13
1, 193154, Control_c, 0, 64, 12
1, 193280, Control_c, 0, 64, 12
1, 193297, Note_on_c, 0, 54, 58
1, 193297, Note_on_c, 0, 58, 53
1, 193336, Note_off_c, 0, 54, 61
1, 193341, Note_off_c, 0, 58, 62
1, 193472, Control_c, 0, 64, 10
1, 193488, Control_c, 0, 64, 0
1, 193564, Note_on_c, 0, 63, 60
1, 193588, Note_off_c, 0, 64, 61
1, 193602, Note_on_c, 0, 54, 44
1, 193605, Note_on_c, 0, 58, 47
1, 193665, Control_c, 0, 64, 35
1, 193671, Note_off_c, 0, 58, 54
1, 193672, Note_off_c, 0, 54, 54
1, 193680, Control_c, 0, 64, 49
1, 193695, Control_c, 0, 64, 57
1, 193710, Control_c, 0, 64, 61
1, 193725, Control_c, 0, 64, 63
1, 193739, Control_c, 0, 64, 65
1, 193754, Control_c, 0, 64, 66
1, 193769, Control_c, 0, 64, 68
1, 193784, Control_c, 0, 64, 69
1, 193799, Control_c, 0, 64, 70
1, 193868, Note_on_c, 0, 58, 61
1, 193876, Note_on_c, 0, 54, 46
1, 193877, Note_off_c, 0, 63, 59
1, 193918, Note_off_c, 0, 58, 61
1, 193932, Note_off_c, 0, 54, 59
1, 193939, Control_c, 0, 64, 69
1, 193954, Control_c, 0, 64, 68
1, 193969, Control_c, 0, 64, 67
1, 193984, Control_c, 0, 64, 66
1, 193986, Note_on_c, 0, 63, 89
1, 193999, Control_c, 0, 64, 65
1, 194014, Control_c, 0, 64, 63
1, 194029, Control_c, 0, 64, 60
1, 194043, Control_c, 0, 64, 57
1, 194058, Control_c, 0, 64, 55
1, 194073, Control_c, 0, 64, 54
1, 194088, Control_c, 0, 64, 53
1, 194103, Control_c, 0, 64, 52
1, 194117, Control_c, 0, 64, 50
1, 194132, Control_c, 0, 64, 48
1, 194147, Control_c, 0, 64, 46
1, 194162, Control_c, 0, 64, 45
1, 194177, Control_c, 0, 64, 42
1, 194191, Control_c, 0, 64, 39
1, 194206, Control_c, 0, 64, 36
1, 194221, Control_c, 0, 64, 34
1, 194228, Note_on_c, 0, 68, 78
1, 194236, Control_c, 0, 64, 33
1, 194250, Control_c, 0, 64, 32
1, 194265, Control_c, 0, 64, 31
1, 194280, Control_c, 0, 64, 30
1, 194293, Note_off_c, 0, 63, 58
1, 194296, Control_c, 0, 64, 28
1, 194311, Control_c, 0, 64, 26
1, 194326, Control_c, 0, 64, 23
1, 194340, Control_c, 0, 64, 21
1, 194355, Control_c, 0, 64, 20
1, 194370, Control_c, 0, 64, 20
1, 194444, Control_c, 0, 64, 19
1, 194458, Control_c, 0, 64, 8
1, 194473, Control_c, 0, 64, 0
1, 194506, Note_on_c, 0, 52, 59
1, 194509, Note_on_c, 0, 56, 53
1, 194564, Note_off_c, 0, 52, 59
1, 194565, Note_off_c, 0, 56, 52
1, 194577, Control_c, 0, 64, 25
1, 194592, Control_c, 0, 64, 35
1, 194607, Control_c, 0, 64, 40
1, 194622, Control_c, 0, 64, 41
1, 194637, Control_c, 0, 64, 42
1, 194688, Control_c, 0, 64, 41
1, 194703, Control_c, 0, 64, 30
1, 194718, Control_c, 0, 64, 0
1, 194783, Note_on_c, 0, 66, 70
1, 194795, Note_on_c, 0, 52, 53
1, 194799, Note_on_c, 0, 56, 54
1, 194807, Control_c, 0, 64, 36
1, 194822, Control_c, 0, 64, 53
1, 194836, Control_c, 0, 64, 59
1, 194844, Note_off_c, 0, 56, 59
1, 194851, Control_c, 0, 64, 61
1, 194857, Note_off_c, 0, 52, 58
1, 194866, Control_c, 0, 64, 61
1, 194879, Note_off_c, 0, 68, 54
1, 194881, Control_c, 0, 64, 62
1, 194896, Control_c, 0, 64, 63
1, 194922, Note_off_c, 0, 66, 63
1, 194926, Note_on_c, 0, 64, 71
1, 194985, Control_c, 0, 64, 62
1, 194999, Control_c, 0, 64, 61
1, 195014, Control_c, 0, 64, 58
1, 195029, Control_c, 0, 64, 55
1, 195044, Note_off_c, 0, 64, 60
1, 195044, Control_c, 0, 64, 51
1, 195047, Note_on_c, 0, 63, 73
1, 195053, Note_on_c, 0, 52, 56
1, 195059, Control_c, 0, 64, 46
1, 195060, Note_on_c, 0, 56, 52
1, 195073, Control_c, 0, 64, 42
1, 195089, Control_c, 0, 64, 40
1, 195102, Note_off_c, 0, 52, 60
1, 195104, Control_c, 0, 64, 37
1, 195119, Control_c, 0, 64, 34
1, 195124, Note_off_c, 0, 56, 54
1, 195135, Control_c, 0, 64, 31
1, 195149, Control_c, 0, 64, 29
1, 195164, Control_c, 0, 64, 29
1, 195170, Note_on_c, 0, 62, 77
1, 195176, Note_off_c, 0, 63, 61
1, 195194, Control_c, 0, 64, 28
1, 195209, Control_c, 0, 64, 25
1, 195224, Control_c, 0, 64, 23
1, 195238, Control_c, 0, 64, 22
1, 195253, Control_c, 0, 64, 21
1, 195255, Note_off_c, 0, 62, 61
1, 195268, Control_c, 0, 64, 20
1, 195283, Control_c, 0, 64, 18
1, 195297, Control_c, 0, 64, 13
1, 195312, Control_c, 0, 64, 0
1, 195359, Note_on_c, 0, 62, 79
1, 195423, Control_c, 0, 67, 8
1, 195438, Control_c, 0, 67, 11
1, 195453, Control_c, 0, 67, 12
1, 195468, Control_c, 0, 67, 14
1, 195483, Control_c, 0, 67, 15
1, 195497, Control_c, 0, 67, 18
1, 195512, Control_c, 0, 67, 21
1, 195527, Control_c, 0, 67, 26
1, 195542, Control_c, 0, 67, 31
1, 195557, Control_c, 0, 67, 36
1, 195571, Control_c, 0, 67, 38
1, 195586, Control_c, 0, 67, 40
1, 195601, Control_c, 0, 67, 40
1, 195677, Note_on_c, 0, 55, 49
1, 195686, Note_on_c, 0, 51, 49
1, 195704, Control_c, 0, 67, 41
1, 195734, Control_c, 0, 67, 41
1, 195751, Note_off_c, 0, 51, 58
1, 195760, Note_off_c, 0, 55, 53
1, 195823, Control_c, 0, 67, 41
1, 195838, Control_c, 0, 67, 40
1, 195853, Control_c, 0, 67, 40
1, 195868, Control_c, 0, 67, 39
1, 195883, Control_c, 0, 67, 39
1, 195898, Control_c, 0, 67, 38
1, 195913, Control_c, 0, 67, 38
1, 195927, Control_c, 0, 67, 37
1, 195957, Control_c, 0, 67, 37
1, 195987, Control_c, 0, 67, 36
1, 195993, Note_on_c, 0, 63, 53
1, 196002, Control_c, 0, 67, 35
1, 196017, Control_c, 0, 67, 35
1, 196020, Note_on_c, 0, 55, 40
1, 196022, Note_off_c, 0, 62, 58
1, 196032, Control_c, 0, 67, 34
1, 196040, Note_on_c, 0, 51, 30
1, 196046, Control_c, 0, 67, 34
1, 196061, Control_c, 0, 67, 33
1, 196076, Control_c, 0, 67, 33
1, 196091, Control_c, 0, 67, 32
1, 196106, Control_c, 0, 64, 9
1, 196120, Note_off_c, 0, 55, 49
1, 196120, Control_c, 0, 64, 42
1, 196135, Control_c, 0, 64, 53
1, 196150, Control_c, 0, 64, 59
1, 196151, Note_off_c, 0, 51, 35
1, 196172, Control_c, 0, 64, 62
1, 196187, Control_c, 0, 64, 65
1, 196202, Control_c, 0, 64, 68
1, 196202, Control_c, 0, 67, 33
1, 196217, Control_c, 0, 64, 71
1, 196217, Control_c, 0, 67, 34
1, 196231, Control_c, 0, 64, 74
1, 196231, Control_c, 0, 67, 35
1, 196246, Control_c, 0, 64, 75
1, 196246, Control_c, 0, 67, 35
1, 196261, Control_c, 0, 67, 36
1, 196276, Control_c, 0, 67, 37
1, 196291, Control_c, 0, 67, 38
1, 196299, Note_on_c, 0, 55, 48
1, 196306, Control_c, 0, 67, 40
1, 196312, Note_on_c, 0, 51, 44
1, 196313, Note_off_c, 0, 63, 60
1, 196320, Control_c, 0, 67, 41
1, 196335, Control_c, 0, 67, 41
1, 196336, Note_off_c, 0, 55, 65
1, 196342, Note_off_c, 0, 51, 55
1, 196365, Control_c, 0, 67, 42
1, 196380, Control_c, 0, 67, 43
1, 196394, Control_c, 0, 67, 48
1, 196409, Control_c, 0, 64, 74
1, 196409, Control_c, 0, 67, 55
1, 196424, Control_c, 0, 64, 73
1, 196424, Control_c, 0, 67, 60
1, 196438, Control_c, 0, 64, 72
1, 196438, Control_c, 0, 67, 64
1, 196453, Control_c, 0, 64, 71
1, 196453, Control_c, 0, 67, 67
1, 196468, Control_c, 0, 64, 70
1, 196468, Control_c, 0, 67, 69
1, 196483, Control_c, 0, 64, 69
1, 196483, Control_c, 0, 67, 71
1, 196498, Control_c, 0, 64, 66
1, 196498, Control_c, 0, 67, 72
1, 196512, Control_c, 0, 64, 64
1, 196512, Control_c, 0, 67, 73
1, 196527, Control_c, 0, 64, 61
1, 196527, Control_c, 0, 67, 75
1, 196540, Note_on_c, 0, 51, 31
1, 196542, Control_c, 0, 64, 59
1, 196542, Control_c, 0, 67, 79
1, 196557, Control_c, 0, 64, 57
1, 196557, Control_c, 0, 67, 83
1, 196572, Control_c, 0, 64, 55
1, 196572, Control_c, 0, 67, 86
1, 196587, Control_c, 0, 64, 53
1, 196587, Control_c, 0, 67, 89
1, 196601, Control_c, 0, 64, 50
1, 196601, Control_c, 0, 67, 92
1, 196610, Note_on_c, 0, 58, 45
1, 196616, Control_c, 0, 64, 46
1, 196616, Control_c, 0, 67, 93
1, 196631, Control_c, 0, 64, 42
1, 196631, Control_c, 0, 67, 94
1, 196645, Control_c, 0, 64, 38
1, 196645, Control_c, 0, 67, 95
1, 196660, Control_c, 0, 64, 34
1, 196660, Control_c, 0, 67, 95
1, 196675, Control_c, 0, 64, 29
1, 196688, Note_on_c, 0, 61, 49
1, 196691, Control_c, 0, 64, 23
1, 196691, Control_c, 0, 67, 95
1, 196705, Control_c, 0, 64, 17
1, 196720, Control_c, 0, 64, 12
1, 196720, Control_c, 0, 67, 94
1, 196735, Control_c, 0, 64, 0
1, 196735, Control_c, 0, 67, 93
1, 196750, Control_c, 0, 67, 93
1, 196765, Control_c, 0, 67, 92
1, 196780, Control_c, 0, 67, 91
1, 196795, Control_c, 0, 67, 91
1, 196797, Note_on_c, 0, 79, 56
1, 196809, Control_c, 0, 67, 90
1, 196839, Control_c, 0, 67, 90
1, 196868, Control_c, 0, 67, 89
1, 196869, Note_on_c, 0, 80, 61
1, 196883, Note_off_c, 0, 79, 50
1, 196920, Control_c, 0, 67, 89
1, 196938, Note_off_c, 0, 80, 61
1, 196950, Note_off_c, 0, 51, 46
1, 196955, Note_on_c, 0, 82, 63
1, 196980, Control_c, 0, 67, 89
1, 196981, Note_off_c, 0, 61, 56
1, 197007, Note_off_c, 0, 58, 50
1, 197009, Control_c, 0, 67, 90
1, 197027, Note_on_c, 0, 80, 70
1, 197027, Note_off_c, 0, 82, 60
1, 197039, Control_c, 0, 67, 90
1, 197054, Control_c, 0, 67, 91
1, 197068, Control_c, 0, 67, 91
1, 197083, Control_c, 0, 67, 92
1, 197087, Note_off_c, 0, 80, 62
1, 197096, Note_on_c, 0, 79, 68
1, 197098, Control_c, 0, 67, 92
1, 197113, Control_c, 0, 67, 93
1, 197128, Control_c, 0, 67, 94
1, 197133, Note_off_c, 0, 79, 62
1, 197142, Control_c, 0, 67, 94
1, 197157, Control_c, 0, 67, 95
1, 197197, Note_on_c, 0, 60, 51
1, 197202, Note_on_c, 0, 56, 47
1, 197202, Control_c, 0, 67, 95
1, 197210, Note_on_c, 0, 51, 41
1, 197290, Control_c, 0, 67, 95
1, 197299, Note_on_c, 0, 80, 67
1, 197364, Control_c, 0, 67, 95
1, 197371, Note_on_c, 0, 82, 72
1, 197398, Note_off_c, 0, 80, 60
1, 197409, Control_c, 0, 67, 95
1, 197443, Note_off_c, 0, 82, 65
1, 197448, Note_on_c, 0, 84, 74
1, 197454, Control_c, 0, 67, 94
1, 197468, Control_c, 0, 67, 94
1, 197473, Note_off_c, 0, 60, 56
1, 197483, Control_c, 0, 67, 93
1, 197485, Note_off_c, 0, 56, 57
1, 197498, Control_c, 0, 67, 93
1, 197505, Note_off_c, 0, 51, 34
1, 197513, Control_c, 0, 67, 92
1, 197530, Note_on_c, 0, 82, 81
1, 197558, Control_c, 0, 67, 92
1, 197561, Note_off_c, 0, 84, 64
1, 197573, Control_c, 0, 67, 92
1, 197606, Note_on_c, 0, 80, 77
1, 197609, Note_off_c, 0, 82, 65
1, 197618, Control_c, 0, 67, 93
1, 197632, Control_c, 0, 67, 93
1, 197647, Control_c, 0, 67, 94
1, 197669, Control_c, 0, 67, 95
1, 197684, Control_c, 0, 67, 95
1, 197698, Note_on_c, 0, 82, 73
1, 197707, Note_off_c, 0, 80, 61
1, 197710, Note_on_c, 0, 51, 47
1, 197713, Note_on_c, 0, 58, 49
1, 197713, Control_c, 0, 67, 96
1, 197718, Note_on_c, 0, 55, 51
1, 197744, Note_off_c, 0, 82, 61
1, 197773, Control_c, 0, 67, 95
1, 197802, Control_c, 0, 67, 95
1, 197811, Note_on_c, 0, 85, 62
1, 197817, Control_c, 0, 67, 94
1, 197832, Control_c, 0, 67, 94
1, 197847, Control_c, 0, 67, 93
1, 197856, Note_off_c, 0, 85, 62
1, 197862, Control_c, 0, 67, 93
1, 197877, Control_c, 0, 67, 92
1, 197891, Control_c, 0, 67, 92
1, 197906, Control_c, 0, 67, 91
1, 197909, Note_on_c, 0, 84, 59
1, 197921, Control_c, 0, 67, 91
1, 197936, Control_c, 0, 67, 90
1, 197951, Control_c, 0, 67, 90
1, 197954, Note_off_c, 0, 84, 57
1, 197984, Note_on_c, 0, 82, 67
1, 198054, Control_c, 0, 67, 90
1, 198068, Note_on_c, 0, 80, 70
1, 198084, Note_off_c, 0, 82, 58
1, 198139, Note_on_c, 0, 79, 62
1, 198142, Note_off_c, 0, 80, 63
1, 198159, Control_c, 0, 67, 91
1, 198175, Note_off_c, 0, 79, 64
1, 198188, Control_c, 0, 67, 92
1, 198203, Control_c, 0, 67, 92
1, 198212, Note_on_c, 0, 77, 61
1, 198217, Control_c, 0, 67, 93
1, 198226, Note_off_c, 0, 51, 56
1, 198239, Note_off_c, 0, 55, 55
1, 198245, Note_off_c, 0, 58, 59
1, 198247, Control_c, 0, 67, 93
1, 198261, Note_off_c, 0, 77, 58
1, 198262, Control_c, 0, 67, 94
1, 198303, Note_on_c, 0, 75, 60
1, 198337, Control_c, 0, 67, 94
1, 198352, Control_c, 0, 67, 95
1, 198367, Control_c, 0, 67, 96
1, 198377, Note_on_c, 0, 73, 62
1, 198377, Note_off_c, 0, 75, 62
1, 198381, Control_c, 0, 67, 97
1, 198396, Control_c, 0, 67, 97
1, 198419, Control_c, 0, 67, 100
1, 198425, Note_off_c, 0, 73, 63
1, 198434, Control_c, 0, 67, 104
1, 198448, Control_c, 0, 67, 106
1, 198463, Control_c, 0, 67, 107
1, 198467, Note_on_c, 0, 72, 50
1, 198478, Control_c, 0, 67, 109
1, 198493, Control_c, 0, 67, 111
1, 198503, Note_off_c, 0, 72, 59
1, 198508, Control_c, 0, 67, 112
1, 198522, Control_c, 0, 67, 114
1, 198537, Control_c, 0, 67, 115
1, 198548, Note_on_c, 0, 70, 47
1, 198552, Control_c, 0, 67, 116
1, 198567, Control_c, 0, 67, 117
1, 198582, Control_c, 0, 67, 118
1, 198595, Note_off_c, 0, 70, 59
1, 198596, Control_c, 0, 67, 119
1, 198611, Control_c, 0, 67, 119
1, 198626, Control_c, 0, 67, 120
1, 198636, Note_on_c, 0, 68, 28
1, 198655, Control_c, 0, 67, 121
1, 198670, Note_off_c, 0, 68, 46
1, 198670, Control_c, 0, 67, 121
1, 198685, Control_c, 0, 67, 122
1, 198729, Control_c, 0, 67, 122
1, 198744, Note_on_c, 0, 61, 49
1, 198754, Note_on_c, 0, 51, 36
1, 198754, Note_on_c, 0, 58, 39
1, 198873, Note_on_c, 0, 67, 55
1, 198908, Control_c, 0, 67, 122
1, 198922, Control_c, 0, 67, 121
1, 198927, Note_off_c, 0, 67, 56
1, 198960, Note_on_c, 0, 68, 50
1, 198986, Note_off_c, 0, 61, 55
1, 198994, Note_off_c, 0, 51, 43
1, 198996, Note_off_c, 0, 68, 63
1, 199004, Note_off_c, 0, 58, 58
1, 199028, Note_on_c, 0, 70, 53
1, 199055, Control_c, 0, 67, 122
1, 199070, Control_c, 0, 67, 122
1, 199086, Control_c, 0, 67, 123
1, 199087, Note_off_c, 0, 70, 56
1, 199096, Note_on_c, 0, 68, 58
1, 199101, Control_c, 0, 67, 123
1, 199116, Control_c, 0, 67, 124
1, 199130, Control_c, 0, 67, 124
1, 199138, Note_off_c, 0, 68, 63
1, 199180, Note_on_c, 0, 67, 43
1, 199209, Note_off_c, 0, 67, 51
1, 199269, Note_on_c, 0, 60, 47
1, 199271, Note_on_c, 0, 56, 44
1, 199271, Control_c, 0, 67, 124
1, 199283, Note_on_c, 0, 51, 40
1, 199301, Control_c, 0, 67, 123
1, 199316, Control_c, 0, 67, 123
1, 199367, Note_on_c, 0, 68, 58
1, 199375, Control_c, 0, 67, 122
1, 199390, Control_c, 0, 67, 122
1, 199436, Note_on_c, 0, 70, 62
1, 199445, Note_off_c, 0, 68, 59
1, 199478, Control_c, 0, 67, 121
1, 199503, Note_off_c, 0, 70, 63
1, 199505, Note_off_c, 0, 56, 56
1, 199516, Note_on_c, 0, 72, 65
1, 199542, Note_off_c, 0, 51, 33
1, 199544, Note_off_c, 0, 60, 32
1, 199589, Note_on_c, 0, 70, 69
1, 199609, Note_off_c, 0, 72, 58
1, 199656, Control_c, 0, 67, 122
1, 199662, Note_off_c, 0, 70, 64
1, 199665, Note_on_c, 0, 68, 71
1, 199671, Control_c, 0, 67, 122
1, 199686, Control_c, 0, 67, 123
1, 199701, Control_c, 0, 67, 124
1, 199716, Control_c, 0, 67, 125
1, 199730, Control_c, 0, 67, 127
1, 199745, Control_c, 0, 67, 127
1, 199749, Note_off_c, 0, 68, 62
1, 199751, Note_on_c, 0, 70, 66
1, 199769, Note_on_c, 0, 58, 44
1, 199773, Note_on_c, 0, 55, 47
1, 199782, Note_on_c, 0, 51, 38
1, 199793, Note_off_c, 0, 70, 63
1, 199876, Note_on_c, 0, 73, 53
1, 199924, Note_off_c, 0, 73, 64
1, 199970, Note_on_c, 0, 72, 58
1, 200005, Control_c, 0, 67, 127
1, 200041, Note_off_c, 0, 72, 47
1, 200050, Control_c, 0, 67, 126
1, 200057, Note_on_c, 0, 70, 66
1, 200065, Control_c, 0, 67, 125
1, 200079, Control_c, 0, 67, 124
1, 200094, Control_c, 0, 67, 123
1, 200109, Control_c, 0, 67, 123
1, 200124, Control_c, 0, 67, 122
1, 200130, Note_on_c, 0, 68, 71
1, 200139, Control_c, 0, 67, 122
1, 200153, Control_c, 0, 67, 121
1, 200163, Note_off_c, 0, 70, 59
1, 200205, Note_on_c, 0, 67, 68
1, 200212, Control_c, 0, 67, 122
1, 200215, Note_off_c, 0, 68, 62
1, 200224, Note_off_c, 0, 55, 53
1, 200229, Note_off_c, 0, 58, 62
1, 200244, Note_off_c, 0, 67, 63
1, 200256, Note_off_c, 0, 51, 56
1, 200286, Note_on_c, 0, 65, 59
1, 200334, Note_off_c, 0, 65, 60
1, 200375, Note_on_c, 0, 63, 62
1, 200405, Control_c, 0, 67, 121
1, 200434, Control_c, 0, 67, 121
1, 200446, Note_on_c, 0, 61, 65
1, 200449, Note_off_c, 0, 63, 62
1, 200449, Control_c, 0, 67, 120
1, 200478, Control_c, 0, 67, 120
1, 200491, Note_off_c, 0, 61, 59
1, 200493, Control_c, 0, 67, 119
1, 200533, Note_on_c, 0, 60, 46
1, 200572, Note_off_c, 0, 60, 57
1, 200605, Note_on_c, 0, 58, 53
1, 200626, Control_c, 0, 67, 119
1, 200667, Note_off_c, 0, 58, 62
1, 200679, Control_c, 0, 67, 118
1, 200694, Note_on_c, 0, 56, 33
1, 200694, Control_c, 0, 67, 118
1, 200709, Control_c, 0, 67, 117
1, 200724, Control_c, 0, 67, 116
1, 200728, Note_off_c, 0, 56, 44
1, 200739, Control_c, 0, 67, 115
1, 200754, Control_c, 0, 67, 114
1, 200768, Control_c, 0, 67, 113
1, 200774, Note_on_c, 0, 51, 58
1, 200783, Control_c, 0, 67, 112
1, 200798, Control_c, 0, 67, 111
1, 200800, Note_off_c, 0, 51, 64
1, 200813, Control_c, 0, 67, 110
1, 200828, Control_c, 0, 67, 109
1, 200842, Control_c, 0, 67, 107
1, 200857, Control_c, 0, 67, 106
1, 200872, Control_c, 0, 67, 105
1, 200873, Note_on_c, 0, 55, 49
1, 200887, Control_c, 0, 67, 105
1, 200902, Control_c, 0, 67, 104
1, 200916, Control_c, 0, 67, 104
1, 200919, Note_off_c, 0, 55, 61
1, 200931, Control_c, 0, 67, 103
1, 200932, Note_on_c, 0, 58, 42
1, 200961, Note_off_c, 0, 58, 48
1, 200961, Control_c, 0, 67, 103
1, 201005, Control_c, 0, 67, 102
1, 201020, Control_c, 0, 67, 102
1, 201034, Control_c, 0, 67, 101
1, 201039, Note_on_c, 0, 51, 50
1, 201064, Control_c, 0, 67, 100
1, 201065, Note_off_c, 0, 51, 54
1, 201101, Note_on_c, 0, 53, 51
1, 201123, Control_c, 0, 67, 100
1, 201146, Note_off_c, 0, 53, 60
1, 201183, Note_on_c, 0, 56, 51
1, 201198, Control_c, 0, 67, 99
1, 201209, Note_off_c, 0, 56, 58
1, 201227, Control_c, 0, 67, 98
1, 201242, Control_c, 0, 67, 97
1, 201272, Control_c, 0, 67, 97
1, 201275, Note_on_c, 0, 51, 65
1, 201287, Control_c, 0, 67, 96
1, 201296, Note_off_c, 0, 51, 64
1, 201301, Control_c, 0, 67, 95
1, 201316, Control_c, 0, 67, 94
1, 201331, Control_c, 0, 67, 93
1, 201341, Note_on_c, 0, 55, 54
1, 201361, Control_c, 0, 67, 92
1, 201412, Control_c, 0, 67, 92
1, 201417, Note_off_c, 0, 55, 56
1, 201430, Note_on_c, 0, 58, 56
1, 201450, Note_off_c, 0, 58, 63
1, 201457, Control_c, 0, 67, 91
1, 201472, Control_c, 0, 67, 91
1, 201487, Control_c, 0, 67, 90
1, 201502, Control_c, 0, 67, 89
1, 201517, Note_on_c, 0, 51, 70
1, 201517, Control_c, 0, 67, 88
1, 201543, Note_off_c, 0, 51, 67
1, 201606, Note_on_c, 0, 56, 59
1, 201606, Control_c, 0, 67, 88
1, 201651, Note_off_c, 0, 56, 62
1, 201666, Note_on_c, 0, 60, 55
1, 201680, Control_c, 0, 67, 87
1, 201695, Note_off_c, 0, 60, 64
1, 201710, Control_c, 0, 67, 87
1, 201739, Control_c, 0, 67, 85
1, 201754, Control_c, 0, 67, 83
1, 201765, Note_on_c, 0, 51, 68
1, 201769, Control_c, 0, 67, 82
1, 201784, Control_c, 0, 67, 81
1, 201792, Note_off_c, 0, 51, 67
1, 201799, Control_c, 0, 67, 80
1, 201813, Control_c, 0, 67, 78
1, 201828, Control_c, 0, 67, 76
1, 201843, Control_c, 0, 67, 75
1, 201846, Note_on_c, 0, 58, 56
1, 201857, Control_c, 0, 67, 73
1, 201873, Control_c, 0, 67, 71
1, 201888, Control_c, 0, 67, 70
1, 201895, Note_off_c, 0, 58, 62
1, 201903, Control_c, 0, 67, 68
1, 201918, Control_c, 0, 67, 67
1, 201923, Note_on_c, 0, 61, 47
1, 201932, Control_c, 0, 67, 66
1, 201947, Control_c, 0, 67, 64
1, 201948, Note_off_c, 0, 61, 56
1, 201962, Control_c, 0, 67, 62
1, 201977, Control_c, 0, 67, 59
1, 201992, Control_c, 0, 67, 57
1, 202003, Note_on_c, 0, 51, 70
1, 202006, Control_c, 0, 67, 55
1, 202021, Control_c, 0, 67, 53
1, 202030, Note_off_c, 0, 51, 67
1, 202036, Control_c, 0, 67, 51
1, 202050, Control_c, 0, 67, 50
1, 202065, Control_c, 0, 67, 48
1, 202080, Note_on_c, 0, 55, 60
1, 202080, Control_c, 0, 67, 46
1, 202095, Control_c, 0, 67, 44
1, 202110, Control_c, 0, 67, 42
1, 202125, Control_c, 0, 67, 39
1, 202140, Note_off_c, 0, 55, 61
1, 202140, Control_c, 0, 67, 36
1, 202147, Note_on_c, 0, 58, 65
1, 202162, Control_c, 0, 67, 33
1, 202177, Control_c, 0, 67, 30
1, 202182, Note_off_c, 0, 58, 67
1, 202191, Control_c, 0, 67, 27
1, 202206, Control_c, 0, 67, 25
1, 202221, Control_c, 0, 67, 22
1, 202236, Control_c, 0, 67, 20
1, 202245, Note_on_c, 0, 51, 77
1, 202251, Control_c, 0, 67, 18
1, 202265, Control_c, 0, 67, 15
1, 202268, Note_off_c, 0, 51, 68
1, 202281, Control_c, 0, 67, 13
1, 202296, Control_c, 0, 67, 11
1, 202311, Control_c, 0, 67, 8
1, 202324, Note_on_c, 0, 56, 67
1, 202326, Control_c, 0, 67, 0
1, 202384, Note_off_c, 0, 56, 62
1, 202391, Note_on_c, 0, 60, 59
1, 202429, Note_off_c, 0, 60, 60
1, 202482, Note_on_c, 0, 51, 73
1, 202508, Note_off_c, 0, 51, 67
1, 202554, Note_on_c, 0, 60, 58
1, 202624, Note_off_c, 0, 60, 62
1, 202631, Note_on_c, 0, 63, 65
1, 202661, Note_off_c, 0, 63, 66
1, 202736, Note_on_c, 0, 51, 52
1, 202784, Note_off_c, 0, 51, 0
1, 202784, Note_on_c, 0, 51, 44
1, 202856, Note_off_c, 0, 51, 60
1, 202880, Note_on_c, 0, 55, 58
1, 202913, Note_off_c, 0, 55, 66
1, 202975, Note_on_c, 0, 51, 75
1, 202999, Note_off_c, 0, 51, 68
1, 203050, Note_on_c, 0, 53, 70
1, 203097, Note_off_c, 0, 53, 59
1, 203131, Note_on_c, 0, 56, 69
1, 203156, Note_off_c, 0, 56, 66
1, 203204, Note_on_c, 0, 51, 83
1, 203226, Note_off_c, 0, 51, 68
1, 203283, Note_on_c, 0, 55, 71
1, 203352, Note_on_c, 0, 58, 74
1, 203358, Note_off_c, 0, 55, 64
1, 203380, Note_off_c, 0, 58, 68
1, 203428, Note_on_c, 0, 51, 85
1, 203452, Note_off_c, 0, 51, 70
1, 203522, Note_on_c, 0, 56, 71
1, 203574, Note_on_c, 0, 60, 69
1, 203578, Note_off_c, 0, 56, 62
1, 203609, Note_off_c, 0, 60, 64
1, 203668, Note_on_c, 0, 51, 85
1, 203694, Note_off_c, 0, 51, 69
1, 203758, Note_on_c, 0, 58, 71
1, 203823, Note_off_c, 0, 58, 66
1, 203824, Note_on_c, 0, 61, 65
1, 203857, Note_off_c, 0, 61, 65
1, 203903, Note_on_c, 0, 51, 83
1, 203932, Note_off_c, 0, 51, 66
1, 203979, Note_on_c, 0, 55, 73
1, 204047, Note_on_c, 0, 58, 69
1, 204049, Note_off_c, 0, 55, 61
1, 204080, Note_off_c, 0, 58, 64
1, 204124, Note_on_c, 0, 51, 86
1, 204148, Control_c, 0, 64, 10
1, 204157, Note_off_c, 0, 51, 64
1, 204216, Note_on_c, 0, 56, 76
1, 204266, Control_c, 0, 64, 9
1, 204278, Note_on_c, 0, 60, 73
1, 204281, Control_c, 0, 64, 0
1, 204284, Note_off_c, 0, 56, 63
1, 204325, Note_off_c, 0, 60, 60
1, 204361, Note_on_c, 0, 51, 89
1, 204407, Note_off_c, 0, 51, 66
1, 204441, Note_on_c, 0, 53, 82
1, 204524, Note_on_c, 0, 62, 82
1, 204531, Note_off_c, 0, 53, 60
1, 204566, Note_off_c, 0, 62, 63
1, 204683, Note_on_c, 0, 63, 87
1, 204696, Note_on_c, 0, 55, 68
1, 204697, Note_on_c, 0, 51, 75
1, 204763, Control_c, 0, 64, 52
1, 204778, Control_c, 0, 64, 62
1, 204793, Control_c, 0, 64, 70
1, 204808, Control_c, 0, 64, 87
1, 204816, Note_off_c, 0, 55, 64
1, 204822, Control_c, 0, 64, 127
1, 204825, Note_off_c, 0, 63, 66
1, 204858, Note_off_c, 0, 51, 64
1, 205186, Control_c, 0, 67, 9
1, 205200, Control_c, 0, 67, 11
1, 205215, Control_c, 0, 67, 13
1, 205230, Control_c, 0, 67, 15
1, 205245, Control_c, 0, 67, 18
1, 205260, Control_c, 0, 67, 20
1, 205274, Control_c, 0, 67, 22
1, 205289, Control_c, 0, 67, 24
1, 205304, Control_c, 0, 67, 26
1, 205319, Control_c, 0, 67, 27
1, 205334, Control_c, 0, 67, 28
1, 205348, Control_c, 0, 67, 29
1, 205363, Control_c, 0, 64, 81
1, 205363, Control_c, 0, 67, 29
1, 205378, Control_c, 0, 64, 62
1, 205378, Control_c, 0, 67, 30
1, 205393, Control_c, 0, 64, 38
1, 205407, Control_c, 0, 64, 0
1, 205422, Control_c, 0, 67, 31
1, 205437, Control_c, 0, 67, 32
1, 205452, Control_c, 0, 67, 34
1, 205467, Control_c, 0, 67, 36
1, 205483, Control_c, 0, 67, 39
1, 205497, Control_c, 0, 67, 41
1, 205512, Control_c, 0, 67, 44
1, 205527, Control_c, 0, 67, 47
1, 205542, Control_c, 0, 67, 51
1, 205557, Control_c, 0, 67, 56
1, 205571, Control_c, 0, 67, 60
1, 205586, Control_c, 0, 67, 63
1, 205601, Control_c, 0, 67, 65
1, 205617, Control_c, 0, 67, 68
1, 205631, Control_c, 0, 67, 69
1, 205646, Control_c, 0, 67, 70
1, 205661, Control_c, 0, 67, 70
1, 205676, Control_c, 0, 67, 71
1, 205705, Control_c, 0, 67, 73
1, 205720, Control_c, 0, 67, 77
1, 205735, Control_c, 0, 67, 82
1, 205750, Control_c, 0, 67, 86
1, 205765, Control_c, 0, 67, 90
1, 205779, Control_c, 0, 67, 93
1, 205794, Control_c, 0, 67, 95
1, 205809, Control_c, 0, 67, 97
1, 205884, Control_c, 0, 67, 97
1, 205965, Control_c, 0, 67, 98
1, 205994, Control_c, 0, 67, 98
1, 206009, Control_c, 0, 67, 100
1, 206024, Control_c, 0, 67, 101
1, 206039, Control_c, 0, 67, 101
1, 206054, Control_c, 0, 67, 102
1, 206068, Control_c, 0, 67, 103
1, 206083, Control_c, 0, 67, 104
1, 206098, Control_c, 0, 67, 105
1, 206143, Control_c, 0, 67, 105
1, 206158, Control_c, 0, 67, 106
1, 206172, Control_c, 0, 67, 106
1, 206187, Control_c, 0, 67, 109
1, 206202, Control_c, 0, 67, 110
1, 206217, Control_c, 0, 67, 111
1, 206231, Control_c, 0, 67, 113
1, 206246, Control_c, 0, 67, 115
1, 206261, Control_c, 0, 67, 117
1, 206277, Control_c, 0, 67, 118
1, 206292, Control_c, 0, 67, 118
1, 206321, Control_c, 0, 67, 119
1, 206454, Control_c, 0, 67, 118
1, 206514, Control_c, 0, 67, 118
1, 206528, Control_c, 0, 67, 117
1, 206573, Control_c, 0, 67, 117
1, 206588, Control_c, 0, 67, 116
1, 206602, Control_c, 0, 67, 116
1, 206654, Control_c, 0, 67, 115
1, 206684, Control_c, 0, 67, 115
1, 206699, Control_c, 0, 67, 114
1, 206728, Control_c, 0, 67, 114
1, 206758, Control_c, 0, 67, 113
1, 206817, Control_c, 0, 67, 113
1, 206846, Control_c, 0, 67, 112
1, 206906, Control_c, 0, 67, 112
1, 206951, Control_c, 0, 67, 111
1, 206995, Control_c, 0, 67, 111
1, 207040, Control_c, 0, 67, 110
1, 207070, Control_c, 0, 67, 110
1, 207100, Control_c, 0, 67, 109
1, 207107, Note_on_c, 0, 75, 50
1, 207115, Note_on_c, 0, 72, 46
1, 207129, Control_c, 0, 67, 109
1, 207158, Control_c, 0, 67, 108
1, 207232, Control_c, 0, 67, 108
1, 207257, Note_on_c, 0, 56, 44
1, 207321, Control_c, 0, 67, 108
1, 207349, Note_on_c, 0, 58, 52
1, 207350, Control_c, 0, 67, 109
1, 207365, Control_c, 0, 67, 110
1, 207380, Control_c, 0, 67, 110
1, 207384, Note_off_c, 0, 56, 37
1, 207405, Note_off_c, 0, 58, 63
1, 207418, Control_c, 0, 67, 111
1, 207433, Note_on_c, 0, 60, 61
1, 207476, Control_c, 0, 67, 110
1, 207515, Note_on_c, 0, 58, 59
1, 207520, Note_off_c, 0, 60, 60
1, 207521, Control_c, 0, 67, 109
1, 207522, Note_off_c, 0, 75, 61
1, 207536, Control_c, 0, 67, 109
1, 207550, Control_c, 0, 67, 108
1, 207580, Control_c, 0, 67, 108
1, 207589, Note_off_c, 0, 58, 64
1, 207592, Note_on_c, 0, 56, 62
1, 207595, Control_c, 0, 67, 107
1, 207610, Control_c, 0, 67, 106
1, 207624, Control_c, 0, 67, 105
1, 207639, Control_c, 0, 67, 105
1, 207653, Note_off_c, 0, 56, 59
1, 207654, Control_c, 0, 67, 104
1, 207669, Control_c, 0, 67, 103
1, 207679, Note_on_c, 0, 75, 63
1, 207681, Note_on_c, 0, 73, 64
1, 207683, Note_on_c, 0, 55, 60
1, 207684, Control_c, 0, 67, 103
1, 207699, Control_c, 0, 67, 102
1, 207714, Control_c, 0, 67, 102
1, 207729, Control_c, 0, 67, 101
1, 207761, Note_on_c, 0, 58, 65
1, 207762, Note_off_c, 0, 55, 58
1, 207788, Note_off_c, 0, 72, 56
1, 207817, Control_c, 0, 67, 101
1, 207860, Note_on_c, 0, 63, 71
1, 207862, Control_c, 0, 67, 100
1, 207871, Note_off_c, 0, 58, 64
1, 207878, Control_c, 0, 67, 100
1, 207892, Control_c, 0, 67, 99
1, 207907, Control_c, 0, 67, 98
1, 207922, Control_c, 0, 67, 97
1, 207926, Note_off_c, 0, 63, 63
1, 207937, Note_off_c, 0, 75, 59
1, 207937, Control_c, 0, 67, 96
1, 207942, Note_on_c, 0, 67, 67
1, 207952, Control_c, 0, 67, 95
1, 207966, Control_c, 0, 67, 94
1, 207981, Control_c, 0, 67, 93
1, 207996, Control_c, 0, 67, 91
1, 208011, Control_c, 0, 67, 90
1, 208014, Note_off_c, 0, 67, 64
1, 208016, Note_on_c, 0, 65, 66
1, 208025, Control_c, 0, 67, 90
1, 208040, Control_c, 0, 67, 89
1, 208055, Control_c, 0, 67, 88
1, 208070, Control_c, 0, 67, 86
1, 208085, Control_c, 0, 67, 85
1, 208086, Note_off_c, 0, 65, 62
1, 208099, Control_c, 0, 67, 85
1, 208101, Note_on_c, 0, 63, 60
1, 208222, Note_on_c, 0, 75, 54
1, 208232, Note_on_c, 0, 72, 47
1, 208234, Note_on_c, 0, 68, 50
1, 208249, Note_off_c, 0, 63, 33
1, 208312, Note_off_c, 0, 73, 33
1, 208333, Note_off_c, 0, 72, 58
1, 208354, Note_off_c, 0, 75, 56
1, 208359, Control_c, 0, 67, 84
1, 208371, Note_off_c, 0, 68, 60
1, 208373, Control_c, 0, 67, 83
1, 208388, Control_c, 0, 67, 80
1, 208403, Control_c, 0, 64, 37
1, 208403, Control_c, 0, 67, 75
1, 208417, Control_c, 0, 64, 49
1, 208417, Control_c, 0, 67, 70
1, 208429, Note_on_c, 0, 72, 58
1, 208432, Control_c, 0, 64, 55
1, 208432, Control_c, 0, 67, 66
1, 208447, Control_c, 0, 64, 58
1, 208447, Control_c, 0, 67, 61
1, 208462, Control_c, 0, 64, 59
1, 208462, Control_c, 0, 67, 56
1, 208477, Control_c, 0, 64, 59
1, 208477, Control_c, 0, 67, 51
1, 208492, Control_c, 0, 67, 46
1, 208507, Control_c, 0, 67, 41
1, 208510, Note_off_c, 0, 72, 59
1, 208518, Note_on_c, 0, 73, 64
1, 208522, Control_c, 0, 64, 58
1, 208522, Control_c, 0, 67, 37
1, 208537, Control_c, 0, 64, 57
1, 208537, Control_c, 0, 67, 34
1, 208552, Control_c, 0, 64, 55
1, 208552, Control_c, 0, 67, 31
1, 208566, Control_c, 0, 64, 52
1, 208566, Control_c, 0, 67, 29
1, 208581, Control_c, 0, 64, 48
1, 208581, Control_c, 0, 67, 26
1, 208588, Note_off_c, 0, 73, 63
1, 208596, Control_c, 0, 64, 43
1, 208596, Control_c, 0, 67, 25
1, 208599, Note_on_c, 0, 75, 71
1, 208611, Control_c, 0, 64, 39
1, 208611, Control_c, 0, 67, 24
1, 208625, Control_c, 0, 64, 35
1, 208625, Control_c, 0, 67, 24
1, 208640, Control_c, 0, 64, 30
1, 208640, Control_c, 0, 67, 23
1, 208655, Control_c, 0, 64, 25
1, 208655, Control_c, 0, 67, 22
1, 208671, Control_c, 0, 64, 22
1, 208671, Control_c, 0, 67, 22
1, 208683, Note_on_c, 0, 73, 71
1, 208686, Control_c, 0, 64, 19
1, 208691, Note_off_c, 0, 75, 63
1, 208701, Control_c, 0, 64, 17
1, 208715, Control_c, 0, 64, 13
1, 208721, Note_off_c, 0, 73, 61
1, 208730, Control_c, 0, 64, 11
1, 208745, Control_c, 0, 64, 9
1, 208752, Note_on_c, 0, 72, 67
1, 208760, Control_c, 0, 64, 0
1, 208760, Control_c, 0, 67, 22
1, 208775, Control_c, 0, 67, 23
1, 208789, Control_c, 0, 67, 25
1, 208800, Note_off_c, 0, 72, 61
1, 208804, Control_c, 0, 67, 27
1, 208819, Control_c, 0, 67, 29
1, 208834, Control_c, 0, 67, 30
1, 208848, Control_c, 0, 67, 32
1, 208854, Note_on_c, 0, 80, 69
1, 208863, Control_c, 0, 67, 34
1, 208878, Control_c, 0, 67, 36
1, 208900, Control_c, 0, 67, 37
1, 208915, Control_c, 0, 67, 40
1, 208930, Control_c, 0, 67, 44
1, 208939, Note_on_c, 0, 79, 65
1, 208939, Note_off_c, 0, 80, 61
1, 208945, Control_c, 0, 67, 49
1, 208960, Control_c, 0, 67, 54
1, 208975, Control_c, 0, 67, 61
1, 208984, Note_off_c, 0, 79, 65
1, 208990, Control_c, 0, 67, 67
1, 209004, Control_c, 0, 67, 72
1, 209019, Control_c, 0, 67, 75
1, 209028, Note_on_c, 0, 77, 54
1, 209034, Control_c, 0, 67, 78
1, 209048, Control_c, 0, 67, 80
1, 209063, Control_c, 0, 67, 81
1, 209070, Note_off_c, 0, 77, 60
1, 209078, Control_c, 0, 67, 82
1, 209093, Control_c, 0, 67, 82
1, 209105, Note_on_c, 0, 75, 63
1, 209122, Control_c, 0, 67, 83
1, 209137, Control_c, 0, 67, 84
1, 209167, Control_c, 0, 67, 85
1, 209173, Note_off_c, 0, 75, 55
1, 209182, Control_c, 0, 67, 87
1, 209185, Note_on_c, 0, 73, 61
1, 209196, Control_c, 0, 67, 90
1, 209211, Control_c, 0, 67, 93
1, 209226, Control_c, 0, 67, 94
1, 209239, Note_off_c, 0, 73, 57
1, 209240, Control_c, 0, 67, 95
1, 209255, Control_c, 0, 67, 97
1, 209262, Note_on_c, 0, 72, 64
1, 209270, Control_c, 0, 67, 99
1, 209285, Control_c, 0, 67, 100
1, 209293, Note_off_c, 0, 72, 65
1, 209300, Control_c, 0, 67, 101
1, 209434, Control_c, 0, 67, 100
1, 209454, Note_on_c, 0, 75, 64
1, 209466, Note_on_c, 0, 72, 63
1, 209479, Control_c, 0, 67, 100
1, 209509, Control_c, 0, 67, 99
1, 209539, Control_c, 0, 67, 99
1, 209553, Control_c, 0, 67, 98
1, 209568, Note_on_c, 0, 56, 56
1, 209583, Control_c, 0, 67, 98
1, 209650, Control_c, 0, 67, 98
1, 209655, Note_on_c, 0, 58, 60
1, 209665, Control_c, 0, 67, 99
1, 209679, Control_c, 0, 67, 100
1, 209681, Note_off_c, 0, 56, 51
1, 209694, Control_c, 0, 67, 101
1, 209709, Control_c, 0, 67, 101
1, 209714, Note_off_c, 0, 58, 63
1, 209724, Control_c, 0, 67, 102
1, 209733, Note_on_c, 0, 60, 67
1, 209739, Control_c, 0, 67, 104
1, 209753, Control_c, 0, 67, 107
1, 209768, Control_c, 0, 67, 108
1, 209783, Control_c, 0, 67, 110
1, 209798, Control_c, 0, 67, 112
1, 209807, Note_off_c, 0, 75, 61
1, 209813, Control_c, 0, 67, 114
1, 209814, Note_off_c, 0, 60, 61
1, 209824, Note_on_c, 0, 58, 62
1, 209827, Control_c, 0, 67, 116
1, 209842, Control_c, 0, 67, 118
1, 209857, Control_c, 0, 67, 118
1, 209872, Control_c, 0, 67, 119
1, 209884, Note_on_c, 0, 56, 56
1, 209890, Note_off_c, 0, 58, 59
1, 209941, Note_off_c, 0, 56, 60
1, 209961, Control_c, 0, 67, 118
1, 209974, Note_on_c, 0, 55, 58
1, 209976, Note_on_c, 0, 75, 69
1, 209976, Control_c, 0, 67, 118
1, 209983, Note_on_c, 0, 73, 63
1, 210005, Control_c, 0, 67, 117
1, 210020, Control_c, 0, 67, 116
1, 210049, Note_on_c, 0, 58, 64
1, 210050, Control_c, 0, 67, 116
1, 210053, Note_off_c, 0, 55, 59
1, 210063, Note_off_c, 0, 72, 58
1, 210064, Control_c, 0, 67, 115
1, 210094, Control_c, 0, 67, 114
1, 210109, Control_c, 0, 67, 114
1, 210124, Control_c, 0, 67, 113
1, 210138, Control_c, 0, 67, 113
1, 210149, Note_on_c, 0, 63, 71
1, 210150, Note_off_c, 0, 58, 61
1, 210168, Control_c, 0, 67, 112
1, 210183, Control_c, 0, 67, 111
1, 210212, Control_c, 0, 67, 110
1, 210215, Note_off_c, 0, 63, 63
1, 210227, Control_c, 0, 67, 109
1, 210235, Note_on_c, 0, 67, 61
1, 210242, Control_c, 0, 67, 108
1, 210245, Note_off_c, 0, 75, 54
1, 210257, Control_c, 0, 67, 107
1, 210273, Control_c, 0, 67, 106
1, 210287, Control_c, 0, 67, 105
1, 210299, Note_off_c, 0, 67, 62
1, 210302, Control_c, 0, 67, 104
1, 210309, Note_on_c, 0, 65, 63
1, 210317, Control_c, 0, 67, 102
1, 210347, Control_c, 0, 67, 102
1, 210361, Control_c, 0, 67, 101
1, 210362, Note_off_c, 0, 65, 59
1, 210406, Note_on_c, 0, 63, 47
1, 210429, Control_c, 0, 67, 102
1, 210443, Control_c, 0, 67, 102
1, 210488, Control_c, 0, 67, 102
1, 210502, Control_c, 0, 67, 101
1, 210504, Note_on_c, 0, 75, 51
1, 210510, Note_on_c, 0, 72, 54
1, 210517, Control_c, 0, 67, 101
1, 210519, Note_on_c, 0, 68, 53
1, 210532, Control_c, 0, 67, 100
1, 210546, Note_off_c, 0, 73, 34
1, 210547, Control_c, 0, 67, 98
1, 210562, Control_c, 0, 64, 12
1, 210562, Control_c, 0, 67, 97
1, 210570, Note_off_c, 0, 63, 23
1, 210576, Note_off_c, 0, 72, 58
1, 210576, Control_c, 0, 64, 38
1, 210591, Control_c, 0, 64, 52
1, 210591, Control_c, 0, 67, 97
1, 210605, Note_off_c, 0, 75, 56
1, 210606, Control_c, 0, 64, 56
1, 210606, Control_c, 0, 67, 96
1, 210613, Note_off_c, 0, 68, 60
1, 210620, Control_c, 0, 64, 57
1, 210620, Control_c, 0, 67, 94
1, 210635, Control_c, 0, 64, 57
1, 210635, Control_c, 0, 67, 93
1, 210650, Control_c, 0, 67, 93
1, 210665, Control_c, 0, 67, 92
1, 210669, Note_on_c, 0, 72, 69
1, 210680, Control_c, 0, 64, 57
1, 210680, Control_c, 0, 67, 91
1, 210695, Control_c, 0, 64, 55
1, 210695, Control_c, 0, 67, 88
1, 210710, Control_c, 0, 64, 48
1, 210710, Control_c, 0, 67, 87
1, 210725, Control_c, 0, 64, 32
1, 210725, Control_c, 0, 67, 86
1, 210740, Control_c, 0, 64, 0
1, 210754, Control_c, 0, 67, 86
1, 210766, Note_on_c, 0, 73, 65
1, 210769, Control_c, 0, 67, 85
1, 210774, Note_off_c, 0, 72, 56
1, 210784, Control_c, 0, 67, 82
1, 210799, Control_c, 0, 67, 81
1, 210813, Control_c, 0, 67, 80
1, 210828, Control_c, 0, 64, 29
1, 210828, Control_c, 0, 67, 79
1, 210840, Note_on_c, 0, 75, 67
1, 210840, Note_off_c, 0, 73, 63
1, 210843, Control_c, 0, 64, 47
1, 210843, Control_c, 0, 67, 78
1, 210857, Control_c, 0, 64, 53
1, 210857, Control_c, 0, 67, 78
1, 210872, Control_c, 0, 67, 77
1, 210886, Control_c, 0, 64, 48
1, 210886, Control_c, 0, 67, 76
1, 210901, Control_c, 0, 64, 29
1, 210901, Control_c, 0, 67, 74
1, 210916, Control_c, 0, 64, 0
1, 210916, Control_c, 0, 67, 72
1, 210918, Note_on_c, 0, 73, 66
1, 210931, Control_c, 0, 67, 68
1, 210933, Note_off_c, 0, 75, 63
1, 210946, Control_c, 0, 67, 65
1, 210960, Control_c, 0, 64, 20
1, 210960, Control_c, 0, 67, 62
1, 210972, Note_off_c, 0, 73, 65
1, 210975, Control_c, 0, 64, 36
1, 210975, Control_c, 0, 67, 59
1, 210990, Control_c, 0, 64, 43
1, 210990, Control_c, 0, 67, 58
1, 210991, Note_on_c, 0, 72, 67
1, 211005, Control_c, 0, 64, 42
1, 211005, Control_c, 0, 67, 58
1, 211020, Control_c, 0, 64, 39
1, 211020, Control_c, 0, 67, 57
1, 211035, Note_off_c, 0, 72, 62
1, 211035, Control_c, 0, 64, 35
1, 211035, Control_c, 0, 67, 57
1, 211050, Control_c, 0, 64, 30
1, 211065, Control_c, 0, 64, 25
1, 211065, Control_c, 0, 67, 56
1, 211080, Control_c, 0, 64, 23
1, 211095, Control_c, 0, 64, 21
1, 211095, Control_c, 0, 67, 55
1, 211107, Note_on_c, 0, 80, 56
1, 211109, Control_c, 0, 64, 19
1, 211109, Control_c, 0, 67, 53
1, 211124, Control_c, 0, 64, 19
1, 211124, Control_c, 0, 67, 51
1, 211147, Control_c, 0, 64, 18
1, 211147, Control_c, 0, 67, 51
1, 211162, Note_off_c, 0, 80, 62
1, 211191, Control_c, 0, 67, 50
1, 211193, Note_on_c, 0, 79, 63
1, 211233, Note_off_c, 0, 79, 64
1, 211236, Control_c, 0, 67, 50
1, 211282, Note_on_c, 0, 77, 54
1, 211317, Note_off_c, 0, 77, 62
1, 211355, Note_on_c, 0, 75, 57
1, 211429, Note_off_c, 0, 75, 58
1, 211437, Note_on_c, 0, 73, 54
1, 211479, Note_off_c, 0, 73, 64
1, 211488, Control_c, 0, 64, 16
1, 211503, Control_c, 0, 64, 0
1, 211511, Note_on_c, 0, 72, 52
1, 211522, Note_on_c, 0, 49, 43
1, 211556, Note_on_c, 0, 53, 45
1, 211566, Note_off_c, 0, 72, 51
1, 211606, Control_c, 0, 64, 30
1, 211607, Note_on_c, 0, 70, 54
1, 211621, Control_c, 0, 64, 46
1, 211635, Control_c, 0, 64, 53
1, 211643, Note_off_c, 0, 70, 63
1, 211650, Control_c, 0, 64, 55
1, 211652, Note_on_c, 0, 58, 40
1, 211665, Control_c, 0, 64, 56
1, 211665, Control_c, 0, 67, 49
1, 211680, Control_c, 0, 64, 58
1, 211695, Control_c, 0, 64, 59
1, 211695, Control_c, 0, 67, 49
1, 211709, Control_c, 0, 67, 46
1, 211724, Control_c, 0, 67, 43
1, 211739, Control_c, 0, 67, 41
1, 211754, Control_c, 0, 67, 40
1, 211769, Control_c, 0, 67, 39
1, 211783, Control_c, 0, 64, 58
1, 211783, Control_c, 0, 67, 38
1, 211798, Control_c, 0, 64, 57
1, 211798, Control_c, 0, 67, 37
1, 211813, Control_c, 0, 64, 56
1, 211813, Control_c, 0, 67, 35
1, 211828, Note_on_c, 0, 82, 68
1, 211828, Control_c, 0, 64, 53
1, 211828, Control_c, 0, 67, 32
1, 211842, Control_c, 0, 64, 50
1, 211842, Control_c, 0, 67, 30
1, 211858, Control_c, 0, 64, 46
1, 211858, Control_c, 0, 67, 27
1, 211873, Control_c, 0, 64, 42
1, 211873, Control_c, 0, 67, 26
1, 211896, Control_c, 0, 64, 36
1, 211896, Control_c, 0, 67, 24
1, 211911, Control_c, 0, 64, 30
1, 211911, Control_c, 0, 67, 22
1, 211920, Note_on_c, 0, 84, 68
1, 211926, Control_c, 0, 64, 25
1, 211926, Control_c, 0, 67, 21
1, 211940, Control_c, 0, 64, 21
1, 211940, Control_c, 0, 67, 19
1, 211947, Note_off_c, 0, 82, 60
1, 211955, Control_c, 0, 64, 19
1, 211955, Control_c, 0, 67, 16
1, 211970, Control_c, 0, 64, 18
1, 211970, Control_c, 0, 67, 12
1, 211985, Control_c, 0, 64, 16
1, 211985, Control_c, 0, 67, 8
1, 211990, Note_off_c, 0, 84, 65
1, 211997, Note_on_c, 0, 85, 72
1, 212000, Control_c, 0, 64, 10
1, 212000, Control_c, 0, 67, 0
1, 212014, Control_c, 0, 64, 0
1, 212071, Note_on_c, 0, 84, 66
1, 212086, Note_off_c, 0, 85, 57
1, 212131, Note_off_c, 0, 84, 66
1, 212136, Note_on_c, 0, 82, 76
1, 212185, Note_off_c, 0, 82, 63
1, 212197, Note_off_c, 0, 49, 57
1, 212219, Note_on_c, 0, 89, 76
1, 212227, Note_off_c, 0, 53, 60
1, 212233, Note_off_c, 0, 58, 57
1, 212302, Note_on_c, 0, 87, 79
1, 212325, Note_off_c, 0, 89, 64
1, 212379, Note_on_c, 0, 85, 72
1, 212390, Note_off_c, 0, 87, 59
1, 212438, Note_off_c, 0, 85, 63
1, 212448, Note_on_c, 0, 84, 66
1, 212524, Note_on_c, 0, 82, 77
1, 212525, Note_off_c, 0, 84, 52
1, 212549, Note_on_c, 0, 51, 48
1, 212563, Control_c, 0, 67, 8
1, 212578, Control_c, 0, 67, 9
1, 212592, Note_on_c, 0, 80, 78
1, 212592, Control_c, 0, 67, 10
1, 212607, Control_c, 0, 67, 11
1, 212622, Control_c, 0, 67, 12
1, 212629, Note_on_c, 0, 58, 46
1, 212644, Note_off_c, 0, 82, 61
1, 212644, Control_c, 0, 67, 12
1, 212675, Control_c, 0, 67, 13
1, 212686, Note_on_c, 0, 79, 74
1, 212689, Control_c, 0, 67, 14
1, 212704, Note_off_c, 0, 80, 61
1, 212704, Control_c, 0, 67, 16
1, 212719, Control_c, 0, 67, 17
1, 212734, Note_on_c, 0, 61, 53
1, 212734, Control_c, 0, 67, 19
1, 212749, Control_c, 0, 67, 22
1, 212762, Note_off_c, 0, 79, 64
1, 212764, Control_c, 0, 67, 26
1, 212778, Control_c, 0, 67, 30
1, 212793, Control_c, 0, 67, 33
1, 212808, Control_c, 0, 67, 36
1, 212823, Control_c, 0, 67, 38
1, 212825, Note_on_c, 0, 82, 64
1, 212838, Control_c, 0, 67, 40
1, 212853, Control_c, 0, 67, 41
1, 212868, Control_c, 0, 67, 41
1, 212908, Note_on_c, 0, 80, 64
1, 212922, Note_off_c, 0, 82, 55
1, 212927, Control_c, 0, 67, 42
1, 212957, Control_c, 0, 67, 42
1, 212971, Control_c, 0, 67, 44
1, 212986, Control_c, 0, 67, 45
1, 212988, Note_on_c, 0, 79, 61
1, 212999, Note_off_c, 0, 80, 56
1, 213015, Control_c, 0, 67, 45
1, 213026, Note_off_c, 0, 79, 63
1, 213068, Note_on_c, 0, 77, 59
1, 213119, Note_off_c, 0, 77, 55
1, 213157, Note_on_c, 0, 75, 63
1, 213235, Note_on_c, 0, 73, 62
1, 213239, Note_off_c, 0, 75, 62
1, 213282, Control_c, 0, 67, 46
1, 213283, Note_off_c, 0, 73, 62
1, 213312, Control_c, 0, 67, 46
1, 213315, Note_on_c, 0, 72, 57
1, 213342, Note_off_c, 0, 51, 58
1, 213342, Note_off_c, 0, 61, 62
1, 213357, Control_c, 0, 67, 49
1, 213359, Note_off_c, 0, 72, 61
1, 213371, Control_c, 0, 67, 54
1, 213372, Note_off_c, 0, 58, 58
1, 213393, Control_c, 0, 67, 58
1, 213402, Note_on_c, 0, 70, 64
1, 213408, Control_c, 0, 67, 59
1, 213482, Note_on_c, 0, 68, 67
1, 213483, Control_c, 0, 64, 8
1, 213512, Control_c, 0, 64, 9
1, 213512, Control_c, 0, 67, 59
1, 213516, Note_off_c, 0, 70, 49
1, 213557, Control_c, 0, 67, 60
1, 213559, Note_on_c, 0, 67, 64
1, 213565, Note_off_c, 0, 68, 64
1, 213572, Control_c, 0, 67, 60
1, 213596, Note_off_c, 0, 67, 64
1, 213601, Control_c, 0, 67, 62
1, 213616, Control_c, 0, 67, 65
1, 213631, Note_on_c, 0, 65, 61
1, 213631, Control_c, 0, 67, 68
1, 213646, Control_c, 0, 67, 70
1, 213661, Control_c, 0, 67, 72
1, 213676, Control_c, 0, 67, 72
1, 213691, Control_c, 0, 67, 73
1, 213703, Note_on_c, 0, 61, 74
1, 213708, Note_on_c, 0, 51, 63
1, 213711, Note_off_c, 0, 65, 63
1, 213720, Control_c, 0, 67, 73
1, 213721, Note_on_c, 0, 63, 65
1, 213750, Control_c, 0, 67, 74
1, 213765, Control_c, 0, 67, 74
1, 213780, Control_c, 0, 67, 75
1, 213794, Control_c, 0, 67, 75
1, 213809, Note_on_c, 0, 67, 60
1, 213817, Note_off_c, 0, 63, 61
1, 213841, Note_off_c, 0, 61, 52
1, 213880, Note_off_c, 0, 67, 61
1, 213883, Control_c, 0, 67, 75
1, 213896, Note_on_c, 0, 70, 60
1, 213898, Control_c, 0, 67, 74
1, 213927, Control_c, 0, 67, 74
1, 213953, Note_on_c, 0, 60, 75
1, 213961, Note_on_c, 0, 63, 59
1, 213979, Note_off_c, 0, 70, 57
1, 213986, Control_c, 0, 64, 8
1, 213991, Note_off_c, 0, 60, 61
1, 214001, Control_c, 0, 67, 73
1, 214013, Note_off_c, 0, 63, 61
1, 214027, Note_on_c, 0, 67, 55
1, 214045, Control_c, 0, 67, 73
1, 214060, Control_c, 0, 67, 72
1, 214105, Note_off_c, 0, 67, 62
1, 214149, Note_on_c, 0, 68, 46
1, 214179, Note_on_c, 0, 61, 55
1, 214195, Note_on_c, 0, 58, 60
1, 214208, Note_off_c, 0, 68, 53
1, 214216, Control_c, 0, 67, 72
1, 214224, Note_off_c, 0, 58, 67
1, 214290, Note_off_c, 0, 61, 48
1, 214299, Note_on_c, 0, 63, 48
1, 214306, Control_c, 0, 67, 71
1, 214346, Note_off_c, 0, 63, 59
1, 214356, Note_on_c, 0, 67, 45
1, 214403, Note_off_c, 0, 67, 47
1, 214423, Note_on_c, 0, 60, 50
1, 214430, Note_on_c, 0, 56, 64
1, 214464, Note_off_c, 0, 56, 63
1, 214467, Note_off_c, 0, 51, 61
1, 214498, Note_off_c, 0, 60, 59
1, 214505, Note_on_c, 0, 63, 48
1, 214554, Note_off_c, 0, 63, 64
1, 214558, Control_c, 0, 67, 71
1, 214567, Note_on_c, 0, 68, 56
1, 214587, Control_c, 0, 67, 70
1, 214602, Control_c, 0, 67, 70
1, 214617, Control_c, 0, 67, 69
1, 214632, Note_off_c, 0, 68, 61
1, 214647, Control_c, 0, 67, 69
1, 214662, Note_on_c, 0, 63, 66
1, 214668, Note_on_c, 0, 61, 69
1, 214676, Note_on_c, 0, 51, 63
1, 214706, Control_c, 0, 67, 68
1, 214744, Note_on_c, 0, 67, 62
1, 214765, Control_c, 0, 67, 68
1, 214781, Note_off_c, 0, 63, 63
1, 214805, Note_off_c, 0, 61, 60
1, 214824, Control_c, 0, 67, 67
1, 214835, Note_on_c, 0, 70, 61
1, 214841, Note_off_c, 0, 67, 60
1, 214868, Control_c, 0, 64, 0
1, 214916, Note_on_c, 0, 60, 64
1, 214923, Note_on_c, 0, 63, 62
1, 214927, Note_off_c, 0, 70, 61
1, 214950, Control_c, 0, 67, 68
1, 214952, Note_off_c, 0, 60, 61
1, 214993, Note_on_c, 0, 67, 53
1, 215029, Note_off_c, 0, 63, 58
1, 215064, Note_off_c, 0, 67, 61
1, 215082, Note_on_c, 0, 68, 60
1, 215157, Note_off_c, 0, 68, 56
1, 215180, Note_on_c, 0, 58, 66
1, 215193, Note_on_c, 0, 61, 49
1, 215205, Note_off_c, 0, 58, 68
1, 215247, Control_c, 0, 67, 67
1, 215272, Note_on_c, 0, 63, 58
1, 215294, Note_off_c, 0, 61, 54
1, 215348, Note_on_c, 0, 67, 62
1, 215358, Note_off_c, 0, 63, 62
1, 215394, Control_c, 0, 67, 67
1, 215430, Note_off_c, 0, 67, 55
1, 215445, Note_on_c, 0, 56, 51
1, 215447, Note_on_c, 0, 60, 59
1, 215470, Note_off_c, 0, 56, 59
1, 215482, Control_c, 0, 67, 66
1, 215486, Note_off_c, 0, 51, 57
1, 215497, Control_c, 0, 67, 66
1, 215527, Control_c, 0, 67, 65
1, 215532, Note_on_c, 0, 63, 50
1, 215533, Note_off_c, 0, 60, 52
1, 215557, Control_c, 0, 67, 65
1, 215586, Control_c, 0, 67, 64
1, 215595, Note_off_c, 0, 63, 61
1, 215601, Control_c, 0, 67, 64
1, 215618, Note_on_c, 0, 68, 46
1, 215638, Control_c, 0, 67, 63
1, 215656, Note_off_c, 0, 68, 55
1, 215668, Control_c, 0, 67, 63
1, 215682, Control_c, 0, 67, 62
1, 215697, Control_c, 0, 67, 61
1, 215712, Note_on_c, 0, 49, 48
1, 215712, Control_c, 0, 67, 61
1, 215742, Control_c, 0, 67, 60
1, 215771, Control_c, 0, 67, 60
1, 215799, Note_on_c, 0, 53, 47
1, 215801, Control_c, 0, 67, 59
1, 215831, Control_c, 0, 67, 57
1, 215846, Control_c, 0, 67, 55
1, 215861, Control_c, 0, 67, 52
1, 215876, Control_c, 0, 67, 51
1, 215891, Control_c, 0, 67, 51
1, 215905, Control_c, 0, 67, 50
1, 215923, Note_on_c, 0, 58, 34
1, 215935, Control_c, 0, 67, 50
1, 216002, Note_on_c, 0, 61, 55
1, 216025, Control_c, 0, 67, 49
1, 216039, Control_c, 0, 67, 49
1, 216054, Control_c, 0, 67, 46
1, 216069, Control_c, 0, 64, 20
1, 216069, Control_c, 0, 67, 40
1, 216069, Note_off_c, 0, 58, 35
1, 216080, Note_off_c, 0, 61, 61
1, 216084, Control_c, 0, 64, 42
1, 216084, Control_c, 0, 67, 34
1, 216094, Note_on_c, 0, 65, 54
1, 216099, Control_c, 0, 64, 54
1, 216099, Control_c, 0, 67, 28
1, 216114, Control_c, 0, 64, 59
1, 216114, Control_c, 0, 67, 22
1, 216129, Control_c, 0, 64, 62
1, 216129, Control_c, 0, 67, 15
1, 216144, Control_c, 0, 64, 64
1, 216144, Control_c, 0, 67, 9
1, 216151, Note_off_c, 0, 65, 54
1, 216159, Control_c, 0, 64, 65
1, 216159, Control_c, 0, 67, 0
1, 216161, Note_on_c, 0, 58, 62
1, 216174, Control_c, 0, 64, 67
1, 216188, Control_c, 0, 64, 68
1, 216203, Control_c, 0, 64, 70
1, 216218, Control_c, 0, 64, 71
1, 216232, Control_c, 0, 64, 72
1, 216239, Note_on_c, 0, 61, 63
1, 216239, Note_off_c, 0, 58, 64
1, 216247, Control_c, 0, 64, 73
1, 216262, Control_c, 0, 64, 73
1, 216304, Note_on_c, 0, 65, 61
1, 216304, Note_off_c, 0, 61, 63
1, 216333, Note_off_c, 0, 65, 65
1, 216366, Control_c, 0, 64, 73
1, 216388, Control_c, 0, 64, 72
1, 216403, Control_c, 0, 64, 72
1, 216407, Note_on_c, 0, 65, 75
1, 216418, Control_c, 0, 64, 71
1, 216432, Control_c, 0, 64, 69
1, 216447, Control_c, 0, 64, 68
1, 216462, Control_c, 0, 64, 65
1, 216477, Control_c, 0, 64, 63
1, 216489, Note_off_c, 0, 65, 58
1, 216492, Control_c, 0, 64, 60
1, 216494, Note_on_c, 0, 70, 66
1, 216506, Control_c, 0, 64, 57
1, 216521, Control_c, 0, 64, 54
1, 216536, Control_c, 0, 64, 49
1, 216551, Control_c, 0, 64, 38
1, 216563, Note_on_c, 0, 73, 69
1, 216566, Note_off_c, 0, 70, 62
1, 216566, Control_c, 0, 64, 10
1, 216580, Control_c, 0, 64, 0
1, 216625, Control_c, 0, 64, 22
1, 216639, Control_c, 0, 64, 36
1, 216642, Note_on_c, 0, 65, 72
1, 216655, Control_c, 0, 64, 44
1, 216657, Note_off_c, 0, 73, 62
1, 216685, Control_c, 0, 64, 41
1, 216700, Control_c, 0, 64, 38
1, 216715, Control_c, 0, 64, 36
1, 216717, Note_on_c, 0, 70, 70
1, 216729, Control_c, 0, 64, 34
1, 216744, Note_off_c, 0, 65, 54
1, 216744, Control_c, 0, 64, 32
1, 216759, Control_c, 0, 64, 30
1, 216774, Control_c, 0, 64, 29
1, 216782, Note_on_c, 0, 73, 77
1, 216789, Control_c, 0, 64, 28
1, 216792, Note_off_c, 0, 70, 62
1, 216803, Control_c, 0, 64, 28
1, 216818, Control_c, 0, 64, 27
1, 216848, Control_c, 0, 64, 27
1, 216861, Note_off_c, 0, 73, 65
1, 216862, Control_c, 0, 64, 26
1, 216875, Note_on_c, 0, 70, 78
1, 216877, Control_c, 0, 64, 25
1, 216892, Control_c, 0, 64, 24
1, 216907, Control_c, 0, 64, 23
1, 216955, Note_on_c, 0, 73, 84
1, 216996, Note_off_c, 0, 70, 61
1, 217042, Note_on_c, 0, 77, 77
1, 217050, Note_off_c, 0, 73, 64
1, 217070, Control_c, 0, 64, 23
1, 217147, Note_on_c, 0, 70, 77
1, 217160, Note_off_c, 0, 77, 62
1, 217181, Control_c, 0, 64, 24
1, 217226, Control_c, 0, 64, 24
1, 217236, Note_on_c, 0, 73, 81
1, 217279, Note_off_c, 0, 70, 57
1, 217350, Note_off_c, 0, 73, 64
1, 217354, Note_on_c, 0, 77, 75
1, 217403, Control_c, 0, 64, 23
1, 217418, Control_c, 0, 64, 19
1, 217433, Control_c, 0, 64, 0
1, 217501, Note_on_c, 0, 75, 72
1, 217523, Note_off_c, 0, 77, 57
1, 217589, Note_on_c, 0, 73, 70
1, 217596, Control_c, 0, 64, 39
1, 217611, Control_c, 0, 64, 52
1, 217614, Note_off_c, 0, 75, 58
1, 217625, Control_c, 0, 64, 59
1, 217640, Control_c, 0, 64, 63
1, 217653, Note_off_c, 0, 53, 57
1, 217654, Note_off_c, 0, 49, 57
1, 217655, Control_c, 0, 64, 66
1, 217659, Note_off_c, 0, 73, 64
1, 217664, Note_on_c, 0, 72, 74
1, 217670, Control_c, 0, 64, 69
1, 217685, Control_c, 0, 64, 71
1, 217700, Control_c, 0, 64, 74
1, 217715, Control_c, 0, 64, 74
1, 217729, Note_off_c, 0, 72, 57
1, 217748, Note_on_c, 0, 70, 79
1, 217774, Control_c, 0, 67, 9
1, 217789, Control_c, 0, 67, 12
1, 217803, Control_c, 0, 67, 16
1, 217813, Note_on_c, 0, 68, 76
1, 217816, Note_off_c, 0, 70, 63
1, 217818, Control_c, 0, 64, 74
1, 217818, Control_c, 0, 67, 20
1, 217833, Control_c, 0, 64, 73
1, 217833, Control_c, 0, 67, 27
1, 217848, Control_c, 0, 64, 72
1, 217848, Control_c, 0, 67, 34
1, 217849, Note_off_c, 0, 68, 63
1, 217863, Control_c, 0, 64, 70
1, 217863, Control_c, 0, 67, 40
1, 217885, Control_c, 0, 64, 69
1, 217885, Control_c, 0, 67, 44
1, 217900, Control_c, 0, 64, 67
1, 217900, Control_c, 0, 67, 45
1, 217915, Control_c, 0, 64, 66
1, 217915, Control_c, 0, 67, 46
1, 217921, Note_on_c, 0, 51, 60
1, 217927, Note_on_c, 0, 68, 71
1, 217929, Control_c, 0, 64, 64
1, 217929, Control_c, 0, 67, 46
1, 217944, Control_c, 0, 64, 63
1, 217959, Control_c, 0, 64, 61
1, 217974, Control_c, 0, 64, 59
1, 217974, Control_c, 0, 67, 46
1, 217989, Control_c, 0, 64, 58
1, 217995, Note_on_c, 0, 58, 63
1, 218004, Control_c, 0, 64, 57
1, 218018, Control_c, 0, 64, 56
1, 218018, Control_c, 0, 67, 45
1, 218033, Control_c, 0, 64, 55
1, 218048, Control_c, 0, 64, 53
1, 218063, Control_c, 0, 64, 50
1, 218078, Control_c, 0, 64, 47
1, 218082, Note_on_c, 0, 61, 72
1, 218092, Control_c, 0, 64, 45
1, 218092, Control_c, 0, 67, 45
1, 218107, Control_c, 0, 64, 41
1, 218122, Control_c, 0, 64, 37
1, 218122, Control_c, 0, 67, 44
1, 218137, Control_c, 0, 64, 29
1, 218151, Control_c, 0, 64, 19
1, 218166, Control_c, 0, 64, 0
1, 218196, Control_c, 0, 67, 44
1, 218225, Control_c, 0, 67, 43
1, 218240, Control_c, 0, 67, 43
1, 218256, Control_c, 0, 67, 42
1, 218258, Note_on_c, 0, 67, 79
1, 218271, Control_c, 0, 67, 41
1, 218273, Note_off_c, 0, 68, 57
1, 218286, Control_c, 0, 67, 40
1, 218300, Control_c, 0, 64, 13
1, 218300, Control_c, 0, 67, 40
1, 218315, Control_c, 0, 64, 37
1, 218315, Control_c, 0, 67, 39
1, 218330, Control_c, 0, 64, 50
1, 218330, Control_c, 0, 67, 38
1, 218345, Control_c, 0, 64, 56
1, 218345, Control_c, 0, 67, 38
1, 218360, Control_c, 0, 64, 58
1, 218360, Control_c, 0, 67, 37
1, 218374, Control_c, 0, 64, 58
1, 218374, Control_c, 0, 67, 36
1, 218389, Control_c, 0, 64, 59
1, 218389, Control_c, 0, 67, 35
1, 218404, Control_c, 0, 67, 34
1, 218419, Control_c, 0, 67, 33
1, 218448, Control_c, 0, 64, 58
1, 218448, Control_c, 0, 67, 32
1, 218459, Note_on_c, 0, 68, 72
1, 218463, Control_c, 0, 64, 54
1, 218463, Control_c, 0, 67, 31
1, 218471, Note_off_c, 0, 67, 59
1, 218478, Control_c, 0, 64, 42
1, 218478, Control_c, 0, 67, 30
1, 218493, Control_c, 0, 64, 0
1, 218493, Control_c, 0, 67, 25
1, 218508, Control_c, 0, 67, 17
1, 218523, Control_c, 0, 67, 0
1, 218567, Control_c, 0, 64, 35
1, 218582, Control_c, 0, 64, 51
1, 218589, Note_off_c, 0, 68, 60
1, 218597, Note_on_c, 0, 67, 77
1, 218597, Control_c, 0, 64, 58
1, 218612, Control_c, 0, 64, 59
1, 218633, Control_c, 0, 64, 60
1, 218648, Control_c, 0, 64, 61
1, 218693, Control_c, 0, 64, 60
1, 218707, Control_c, 0, 64, 53
1, 218722, Control_c, 0, 64, 31
1, 218737, Control_c, 0, 64, 0
1, 218749, Note_on_c, 0, 68, 73
1, 218750, Note_off_c, 0, 67, 62
1, 218812, Control_c, 0, 64, 36
1, 218826, Control_c, 0, 64, 50
1, 218839, Note_off_c, 0, 68, 63
1, 218841, Control_c, 0, 64, 56
1, 218860, Note_on_c, 0, 67, 77
1, 218871, Control_c, 0, 64, 55
1, 218886, Control_c, 0, 64, 51
1, 218901, Control_c, 0, 64, 42
1, 218915, Control_c, 0, 64, 34
1, 218930, Control_c, 0, 64, 39
1, 218945, Control_c, 0, 64, 49
1, 218957, Note_off_c, 0, 67, 59
1, 218960, Control_c, 0, 64, 56
1, 218967, Note_on_c, 0, 68, 72
1, 218975, Control_c, 0, 64, 60
1, 218989, Control_c, 0, 64, 62
1, 219004, Control_c, 0, 64, 63
1, 219019, Control_c, 0, 64, 64
1, 219029, Note_off_c, 0, 68, 63
1, 219033, Control_c, 0, 64, 64
1, 219049, Control_c, 0, 64, 65
1, 219064, Note_on_c, 0, 67, 72
1, 219064, Control_c, 0, 64, 65
1, 219079, Control_c, 0, 67, 9
1, 219094, Control_c, 0, 64, 66
1, 219094, Control_c, 0, 67, 11
1, 219109, Control_c, 0, 67, 12
1, 219119, Note_off_c, 0, 67, 61
1, 219123, Control_c, 0, 67, 15
1, 219133, Note_on_c, 0, 68, 66
1, 219138, Control_c, 0, 67, 18
1, 219153, Control_c, 0, 67, 22
1, 219161, Note_off_c, 0, 68, 67
1, 219168, Control_c, 0, 67, 27
1, 219183, Control_c, 0, 67, 32
1, 219195, Note_on_c, 0, 67, 66
1, 219197, Control_c, 0, 67, 36
1, 219212, Control_c, 0, 67, 40
1, 219227, Control_c, 0, 67, 42
1, 219241, Note_off_c, 0, 67, 62
1, 219242, Control_c, 0, 67, 43
1, 219245, Note_on_c, 0, 68, 67
1, 219282, Note_off_c, 0, 68, 66
1, 219301, Control_c, 0, 67, 44
1, 219313, Note_on_c, 0, 67, 72
1, 219330, Control_c, 0, 67, 44
1, 219345, Control_c, 0, 67, 45
1, 219350, Note_off_c, 0, 67, 63
1, 219364, Note_on_c, 0, 68, 70
1, 219383, Control_c, 0, 67, 45
1, 219398, Note_off_c, 0, 68, 66
1, 219398, Control_c, 0, 67, 44
1, 219412, Control_c, 0, 67, 42
1, 219427, Control_c, 0, 67, 40
1, 219433, Note_on_c, 0, 67, 70
1, 219442, Control_c, 0, 67, 39
1, 219456, Control_c, 0, 67, 38
1, 219471, Control_c, 0, 67, 37
1, 219472, Note_off_c, 0, 67, 64
1, 219477, Note_on_c, 0, 68, 70
1, 219486, Control_c, 0, 67, 35
1, 219501, Control_c, 0, 67, 34
1, 219510, Note_off_c, 0, 68, 65
1, 219516, Control_c, 0, 67, 33
1, 219530, Control_c, 0, 67, 33
1, 219544, Note_on_c, 0, 67, 73
1, 219545, Control_c, 0, 67, 32
1, 219575, Control_c, 0, 67, 32
1, 219578, Note_off_c, 0, 67, 61
1, 219590, Control_c, 0, 67, 31
1, 219596, Note_on_c, 0, 68, 71
1, 219605, Control_c, 0, 67, 31
1, 219620, Control_c, 0, 67, 30
1, 219620, Note_off_c, 0, 68, 69
1, 219635, Control_c, 0, 67, 28
1, 219649, Control_c, 0, 67, 27
1, 219655, Note_on_c, 0, 67, 70
1, 219664, Control_c, 0, 67, 25
1, 219679, Control_c, 0, 67, 24
1, 219688, Note_off_c, 0, 67, 62
1, 219694, Control_c, 0, 67, 22
1, 219695, Note_on_c, 0, 68, 66
1, 219709, Control_c, 0, 67, 21
1, 219751, Note_off_c, 0, 68, 47
1, 219753, Control_c, 0, 67, 21
1, 219756, Note_on_c, 0, 67, 66
1, 219768, Control_c, 0, 67, 20
1, 219782, Control_c, 0, 67, 20
1, 219797, Control_c, 0, 67, 19
1, 219812, Control_c, 0, 67, 16
1, 219827, Control_c, 0, 67, 14
1, 219843, Control_c, 0, 67, 12
1, 219858, Control_c, 0, 67, 11
1, 219873, Control_c, 0, 64, 65
1, 219873, Control_c, 0, 67, 10
1, 219888, Control_c, 0, 64, 62
1, 219888, Control_c, 0, 67, 9
1, 219903, Control_c, 0, 64, 55
1, 219903, Control_c, 0, 67, 0
1, 219918, Control_c, 0, 64, 46
1, 219933, Control_c, 0, 64, 44
1, 219947, Control_c, 0, 64, 50
1, 219948, Note_on_c, 0, 65, 66
1, 219950, Note_off_c, 0, 67, 56
1, 219962, Control_c, 0, 64, 55
1, 219977, Control_c, 0, 64, 60
1, 219992, Control_c, 0, 64, 62
1, 220007, Control_c, 0, 64, 63
1, 220021, Control_c, 0, 64, 64
1, 220050, Note_off_c, 0, 65, 59
1, 220066, Control_c, 0, 64, 63
1, 220110, Control_c, 0, 64, 63
1, 220132, Control_c, 0, 64, 62
1, 220147, Control_c, 0, 64, 62
1, 220150, Note_on_c, 0, 65, 50
1, 220162, Control_c, 0, 64, 61
1, 220177, Control_c, 0, 64, 59
1, 220192, Control_c, 0, 64, 58
1, 220192, Control_c, 0, 67, 8
1, 220206, Control_c, 0, 64, 56
1, 220221, Control_c, 0, 64, 55
1, 220236, Control_c, 0, 64, 55
1, 220251, Control_c, 0, 64, 54
1, 220280, Control_c, 0, 64, 54
1, 220295, Control_c, 0, 64, 53
1, 220310, Control_c, 0, 64, 53
1, 220325, Control_c, 0, 64, 52
1, 220340, Control_c, 0, 64, 52
1, 220354, Control_c, 0, 64, 51
1, 220369, Control_c, 0, 64, 51
1, 220428, Control_c, 0, 64, 50
1, 220443, Control_c, 0, 64, 50
1, 220443, Control_c, 0, 67, 8
1, 220445, Note_on_c, 0, 67, 42
1, 220458, Control_c, 0, 64, 49
1, 220472, Control_c, 0, 64, 47
1, 220481, Note_off_c, 0, 65, 49
1, 220487, Control_c, 0, 64, 44
1, 220502, Control_c, 0, 64, 40
1, 220517, Control_c, 0, 64, 33
1, 220532, Control_c, 0, 64, 19
1, 220547, Control_c, 0, 64, 0
1, 220651, Control_c, 0, 64, 17
1, 220666, Control_c, 0, 64, 41
1, 220681, Control_c, 0, 64, 52
1, 220696, Control_c, 0, 64, 58
1, 220711, Control_c, 0, 64, 61
1, 220711, Control_c, 0, 67, 8
1, 220726, Control_c, 0, 64, 63
1, 220740, Control_c, 0, 64, 65
1, 220740, Control_c, 0, 67, 0
1, 220755, Control_c, 0, 64, 68
1, 220770, Control_c, 0, 64, 70
1, 220785, Control_c, 0, 64, 73
1, 220800, Control_c, 0, 64, 76
1, 220815, Control_c, 0, 64, 78
1, 220829, Control_c, 0, 64, 80
1, 220844, Control_c, 0, 64, 81
1, 220859, Control_c, 0, 64, 82
1, 220865, Note_off_c, 0, 61, 53
1, 220898, Note_off_c, 0, 67, 52
1, 220899, Note_off_c, 0, 51, 36
1, 220910, Note_off_c, 0, 58, 30
1, 221044, Control_c, 0, 64, 81
1, 221059, Control_c, 0, 64, 80
1, 221074, Control_c, 0, 64, 79
1, 221089, Control_c, 0, 64, 78
1, 221103, Control_c, 0, 64, 77
1, 221118, Control_c, 0, 64, 76
1, 221133, Control_c, 0, 64, 73
1, 221148, Control_c, 0, 64, 71
1, 221163, Control_c, 0, 64, 69
1, 221177, Control_c, 0, 64, 67
1, 221192, Control_c, 0, 64, 65
1, 221207, Control_c, 0, 64, 63
1, 221221, Control_c, 0, 64, 60
1, 221236, Control_c, 0, 64, 56
1, 221251, Control_c, 0, 64, 52
1, 221266, Control_c, 0, 64, 49
1, 221281, Control_c, 0, 64, 47
1, 221295, Control_c, 0, 64, 43
1, 221310, Control_c, 0, 64, 38
1, 221325, Control_c, 0, 64, 34
1, 221340, Control_c, 0, 64, 30
1, 221355, Control_c, 0, 64, 28
1, 221369, Control_c, 0, 64, 26
1, 221384, Control_c, 0, 64, 24
1, 221399, Control_c, 0, 64, 21
1, 221414, Control_c, 0, 64, 17
1, 221428, Control_c, 0, 64, 12
1, 221444, Control_c, 0, 64, 12
1, 221518, Control_c, 0, 64, 13
1, 221533, Control_c, 0, 64, 15
1, 221548, Control_c, 0, 64, 17
1, 221563, Control_c, 0, 64, 19
1, 221578, Control_c, 0, 64, 20
1, 221592, Control_c, 0, 64, 21
1, 221660, Note_on_c, 0, 57, 74
1, 221718, Control_c, 0, 64, 20
1, 221733, Control_c, 0, 64, 19
1, 221763, Control_c, 0, 64, 19
1, 221837, Control_c, 0, 64, 18
1, 221881, Control_c, 0, 64, 18
1, 221896, Control_c, 0, 64, 17
1, 221925, Note_on_c, 0, 51, 54
1, 221925, Control_c, 0, 64, 17
1, 221929, Note_on_c, 0, 48, 52
1, 221967, Note_off_c, 0, 51, 61
1, 221969, Note_off_c, 0, 48, 61
1, 221970, Control_c, 0, 64, 13
1, 221985, Control_c, 0, 64, 0
1, 222147, Control_c, 0, 64, 38
1, 222162, Control_c, 0, 64, 49
1, 222177, Control_c, 0, 64, 57
1, 222192, Control_c, 0, 64, 60
1, 222196, Note_on_c, 0, 48, 53
1, 222201, Note_on_c, 0, 51, 54
1, 222207, Control_c, 0, 64, 62
1, 222222, Control_c, 0, 64, 63
1, 222237, Control_c, 0, 64, 64
1, 222254, Note_off_c, 0, 51, 57
1, 222260, Note_off_c, 0, 48, 57
1, 222267, Control_c, 0, 64, 65
1, 222311, Control_c, 0, 64, 64
1, 222326, Control_c, 0, 67, 8
1, 222341, Control_c, 0, 67, 8
1, 222356, Control_c, 0, 64, 63
1, 222378, Control_c, 0, 64, 62
1, 222393, Control_c, 0, 64, 61
1, 222408, Control_c, 0, 64, 59
1, 222422, Control_c, 0, 64, 57
1, 222437, Control_c, 0, 64, 54
1, 222452, Control_c, 0, 64, 51
1, 222467, Control_c, 0, 64, 48
1, 222478, Note_on_c, 0, 48, 48
1, 222479, Note_on_c, 0, 51, 46
1, 222481, Control_c, 0, 64, 45
1, 222496, Control_c, 0, 64, 41
1, 222511, Control_c, 0, 64, 37
1, 222526, Note_off_c, 0, 48, 59
1, 222526, Control_c, 0, 64, 33
1, 222528, Note_off_c, 0, 51, 59
1, 222541, Control_c, 0, 64, 29
1, 222556, Control_c, 0, 64, 25
1, 222571, Control_c, 0, 64, 23
1, 222586, Control_c, 0, 64, 21
1, 222600, Control_c, 0, 64, 20
1, 222615, Control_c, 0, 64, 20
1, 222630, Control_c, 0, 64, 19
1, 222645, Control_c, 0, 64, 17
1, 222660, Control_c, 0, 64, 16
1, 222674, Control_c, 0, 64, 16
1, 222689, Control_c, 0, 64, 15
1, 222704, Control_c, 0, 64, 15
1, 222734, Control_c, 0, 64, 14
1, 222763, Note_on_c, 0, 58, 52
1, 222763, Control_c, 0, 64, 13
1, 222778, Control_c, 0, 67, 8
1, 222807, Control_c, 0, 64, 13
1, 222822, Control_c, 0, 64, 12
1, 222822, Control_c, 0, 67, 0
1, 222837, Control_c, 0, 64, 11
1, 222852, Control_c, 0, 64, 10
1, 222907, Note_off_c, 0, 57, 54
1, 223033, Note_on_c, 0, 49, 48
1, 223033, Note_on_c, 0, 53, 43
1, 223074, Note_off_c, 0, 49, 61
1, 223075, Control_c, 0, 64, 8
1, 223083, Note_off_c, 0, 53, 57
1, 223089, Control_c, 0, 64, 0
1, 223260, Control_c, 0, 64, 20
1, 223275, Control_c, 0, 64, 43
1, 223290, Control_c, 0, 64, 54
1, 223304, Control_c, 0, 64, 59
1, 223316, Note_on_c, 0, 49, 35
1, 223319, Control_c, 0, 64, 62
1, 223322, Note_on_c, 0, 53, 44
1, 223334, Control_c, 0, 64, 63
1, 223349, Control_c, 0, 64, 64
1, 223364, Control_c, 0, 64, 65
1, 223379, Control_c, 0, 64, 65
1, 223385, Note_off_c, 0, 53, 55
1, 223401, Note_off_c, 0, 49, 52
1, 223408, Control_c, 0, 64, 65
1, 223453, Control_c, 0, 64, 64
1, 223468, Control_c, 0, 64, 63
1, 223483, Control_c, 0, 64, 62
1, 223497, Control_c, 0, 64, 60
1, 223512, Control_c, 0, 64, 58
1, 223527, Control_c, 0, 64, 55
1, 223542, Control_c, 0, 64, 52
1, 223557, Control_c, 0, 64, 49
1, 223571, Control_c, 0, 64, 46
1, 223587, Control_c, 0, 64, 43
1, 223599, Note_on_c, 0, 49, 33
1, 223602, Control_c, 0, 64, 40
1, 223605, Note_on_c, 0, 53, 42
1, 223617, Control_c, 0, 64, 36
1, 223631, Control_c, 0, 64, 32
1, 223640, Note_off_c, 0, 53, 61
1, 223646, Control_c, 0, 64, 28
1, 223653, Note_off_c, 0, 49, 60
1, 223661, Control_c, 0, 64, 24
1, 223676, Control_c, 0, 64, 21
1, 223690, Control_c, 0, 64, 19
1, 223705, Control_c, 0, 64, 17
1, 223720, Control_c, 0, 64, 15
1, 223735, Control_c, 0, 64, 13
1, 223750, Control_c, 0, 64, 10
1, 223764, Control_c, 0, 64, 0
1, 223916, Note_on_c, 0, 54, 74
1, 224010, Note_off_c, 0, 58, 39
1, 224169, Note_on_c, 0, 44, 55
1, 224171, Note_on_c, 0, 48, 56
1, 224213, Note_off_c, 0, 48, 63
1, 224219, Note_off_c, 0, 44, 60
1, 224454, Control_c, 0, 64, 8
1, 224456, Note_on_c, 0, 48, 64
1, 224458, Note_on_c, 0, 44, 65
1, 224469, Control_c, 0, 64, 41
1, 224484, Control_c, 0, 64, 53
1, 224499, Control_c, 0, 64, 58
1, 224514, Control_c, 0, 64, 59
1, 224514, Note_off_c, 0, 48, 53
1, 224528, Control_c, 0, 64, 60
1, 224539, Note_off_c, 0, 44, 52
1, 224543, Control_c, 0, 64, 60
1, 224587, Control_c, 0, 64, 60
1, 224602, Control_c, 0, 64, 59
1, 224625, Control_c, 0, 64, 58
1, 224639, Control_c, 0, 64, 57
1, 224655, Control_c, 0, 64, 56
1, 224669, Control_c, 0, 64, 54
1, 224684, Control_c, 0, 64, 50
1, 224699, Control_c, 0, 64, 47
1, 224714, Control_c, 0, 64, 43
1, 224729, Control_c, 0, 64, 41
1, 224739, Note_on_c, 0, 44, 47
1, 224743, Note_on_c, 0, 48, 50
1, 224744, Control_c, 0, 64, 38
1, 224759, Control_c, 0, 64, 35
1, 224774, Control_c, 0, 64, 31
1, 224783, Note_off_c, 0, 48, 63
1, 224789, Control_c, 0, 64, 29
1, 224794, Note_off_c, 0, 44, 60
1, 224803, Control_c, 0, 64, 28
1, 224818, Control_c, 0, 64, 28
1, 224833, Control_c, 0, 64, 27
1, 224848, Control_c, 0, 64, 26
1, 224863, Control_c, 0, 64, 25
1, 224877, Control_c, 0, 64, 23
1, 224892, Control_c, 0, 64, 21
1, 224907, Control_c, 0, 64, 20
1, 224922, Control_c, 0, 64, 19
1, 224937, Control_c, 0, 64, 19
1, 224951, Control_c, 0, 64, 18
1, 224981, Control_c, 0, 64, 18
1, 225138, Note_on_c, 0, 49, 45
1, 225148, Note_on_c, 0, 53, 40
1, 225173, Control_c, 0, 64, 17
1, 225185, Note_off_c, 0, 54, 61
1, 225331, Note_off_c, 0, 53, 58
1, 225390, Note_off_c, 0, 49, 56
1, 225478, Control_c, 0, 64, 18
1, 225527, Note_on_c, 0, 64, 77
1, 225559, Note_on_c, 0, 65, 80
1, 225581, Control_c, 0, 64, 17
1, 225590, Note_off_c, 0, 64, 65
1, 225596, Control_c, 0, 64, 17
1, 225611, Control_c, 0, 64, 16
1, 225614, Note_off_c, 0, 65, 65
1, 225626, Control_c, 0, 64, 15
1, 225641, Control_c, 0, 64, 15
1, 225671, Control_c, 0, 64, 14
1, 225715, Control_c, 0, 64, 13
1, 225730, Control_c, 0, 64, 11
1, 225745, Control_c, 0, 64, 8
1, 225757, Note_on_c, 0, 60, 80
1, 225760, Control_c, 0, 64, 0
1, 225790, Note_on_c, 0, 61, 81
1, 225808, Note_off_c, 0, 60, 62
1, 225831, Note_off_c, 0, 61, 61
1, 225980, Note_on_c, 0, 57, 73
1, 226011, Note_on_c, 0, 58, 75
1, 226036, Note_off_c, 0, 57, 64
1, 226058, Note_off_c, 0, 58, 64
1, 226251, Note_on_c, 0, 53, 74
1, 226285, Control_c, 0, 64, 41
1, 226300, Control_c, 0, 64, 53
1, 226315, Control_c, 0, 64, 58
1, 226330, Control_c, 0, 64, 60
1, 226359, Control_c, 0, 64, 60
1, 226362, Note_off_c, 0, 53, 62
1, 226374, Control_c, 0, 64, 60
1, 226389, Control_c, 0, 64, 59
1, 226404, Control_c, 0, 64, 57
1, 226419, Control_c, 0, 64, 54
1, 226434, Control_c, 0, 64, 48
1, 226448, Control_c, 0, 64, 41
1, 226463, Control_c, 0, 64, 33
1, 226478, Control_c, 0, 64, 25
1, 226493, Control_c, 0, 64, 20
1, 226508, Control_c, 0, 64, 15
1, 226522, Control_c, 0, 64, 11
1, 226537, Control_c, 0, 64, 8
1, 226552, Control_c, 0, 64, 0
1, 226683, Note_on_c, 0, 76, 60
1, 226771, Note_off_c, 0, 76, 63
1, 226773, Note_on_c, 0, 77, 57
1, 226802, Note_off_c, 0, 77, 66
1, 226925, Note_on_c, 0, 72, 64
1, 226991, Note_off_c, 0, 72, 62
1, 227000, Note_on_c, 0, 73, 60
1, 227021, Note_off_c, 0, 73, 66
1, 227145, Note_on_c, 0, 69, 57
1, 227197, Note_off_c, 0, 69, 63
1, 227221, Note_on_c, 0, 70, 46
1, 227246, Note_off_c, 0, 70, 57
1, 227427, Note_on_c, 0, 65, 43
1, 227523, Control_c, 0, 64, 32
1, 227537, Control_c, 0, 64, 49
1, 227552, Control_c, 0, 64, 57
1, 227567, Control_c, 0, 64, 60
1, 227580, Note_off_c, 0, 65, 59
1, 227582, Control_c, 0, 64, 61
1, 227597, Control_c, 0, 64, 61
1, 227663, Control_c, 0, 64, 61
1, 227678, Control_c, 0, 64, 60
1, 227693, Control_c, 0, 64, 57
1, 227708, Control_c, 0, 64, 55
1, 227723, Control_c, 0, 64, 53
1, 227737, Control_c, 0, 64, 49
1, 227752, Control_c, 0, 64, 46
1, 227767, Control_c, 0, 64, 42
1, 227782, Control_c, 0, 64, 39
1, 227789, Note_on_c, 0, 76, 51
1, 227796, Control_c, 0, 64, 35
1, 227811, Control_c, 0, 64, 33
1, 227826, Control_c, 0, 64, 30
1, 227842, Control_c, 0, 64, 28
1, 227857, Control_c, 0, 64, 27
1, 227872, Control_c, 0, 64, 25
1, 227886, Control_c, 0, 64, 22
1, 227901, Control_c, 0, 64, 19
1, 227911, Note_off_c, 0, 76, 58
1, 227916, Control_c, 0, 64, 17
1, 227928, Note_on_c, 0, 77, 55
1, 227931, Control_c, 0, 64, 16
1, 227946, Control_c, 0, 64, 16
1, 227975, Control_c, 0, 64, 15
1, 227990, Control_c, 0, 64, 12
1, 228005, Control_c, 0, 64, 11
1, 228020, Control_c, 0, 64, 10
1, 228041, Note_on_c, 0, 75, 61
1, 228047, Note_off_c, 0, 77, 61
1, 228050, Control_c, 0, 64, 8
1, 228079, Control_c, 0, 64, 0
1, 228147, Note_on_c, 0, 73, 66
1, 228154, Note_off_c, 0, 75, 59
1, 228238, Note_off_c, 0, 73, 64
1, 228246, Note_on_c, 0, 72, 65
1, 228331, Note_off_c, 0, 72, 63
1, 228345, Note_on_c, 0, 70, 58
1, 228386, Note_off_c, 0, 70, 64
1, 228455, Note_on_c, 0, 72, 69
1, 228509, Note_on_c, 0, 73, 72
1, 228530, Note_off_c, 0, 72, 59
1, 228565, Note_on_c, 0, 75, 72
1, 228570, Note_off_c, 0, 73, 63
1, 228727, Note_on_c, 0, 60, 59
1, 228732, Note_on_c, 0, 51, 51
1, 228755, Note_off_c, 0, 60, 64
1, 228765, Note_off_c, 0, 51, 65
1, 228976, Control_c, 0, 64, 34
1, 228980, Note_on_c, 0, 60, 65
1, 228982, Note_on_c, 0, 51, 37
1, 228990, Control_c, 0, 64, 51
1, 229005, Control_c, 0, 64, 57
1, 229007, Note_off_c, 0, 60, 65
1, 229020, Control_c, 0, 64, 60
1, 229021, Note_off_c, 0, 51, 62
1, 229034, Control_c, 0, 64, 61
1, 229049, Control_c, 0, 64, 62
1, 229064, Control_c, 0, 64, 63
1, 229078, Note_on_c, 0, 73, 58
1, 229078, Note_off_c, 0, 75, 58
1, 229079, Control_c, 0, 64, 63
1, 229123, Note_off_c, 0, 73, 62
1, 229131, Control_c, 0, 64, 63
1, 229159, Note_on_c, 0, 72, 55
1, 229161, Control_c, 0, 64, 61
1, 229176, Control_c, 0, 64, 59
1, 229190, Control_c, 0, 64, 57
1, 229202, Note_off_c, 0, 72, 59
1, 229205, Control_c, 0, 64, 53
1, 229220, Control_c, 0, 64, 50
1, 229224, Note_on_c, 0, 60, 64
1, 229227, Note_on_c, 0, 70, 74
1, 229233, Note_on_c, 0, 51, 53
1, 229235, Control_c, 0, 64, 46
1, 229244, Note_off_c, 0, 60, 63
1, 229249, Control_c, 0, 64, 42
1, 229258, Note_off_c, 0, 51, 57
1, 229264, Control_c, 0, 64, 38
1, 229279, Control_c, 0, 64, 35
1, 229294, Control_c, 0, 64, 31
1, 229300, Note_on_c, 0, 68, 77
1, 229309, Control_c, 0, 64, 28
1, 229323, Control_c, 0, 64, 26
1, 229338, Control_c, 0, 64, 25
1, 229339, Note_off_c, 0, 70, 61
1, 229353, Control_c, 0, 64, 24
1, 229356, Note_on_c, 0, 67, 66
1, 229367, Control_c, 0, 64, 23
1, 229371, Note_off_c, 0, 68, 63
1, 229382, Control_c, 0, 64, 21
1, 229387, Note_off_c, 0, 67, 64
1, 229397, Control_c, 0, 64, 19
1, 229412, Control_c, 0, 64, 17
1, 229415, Note_on_c, 0, 65, 68
1, 229427, Control_c, 0, 64, 16
1, 229443, Control_c, 0, 64, 15
1, 229457, Control_c, 0, 64, 14
1, 229472, Control_c, 0, 64, 13
1, 229476, Note_off_c, 0, 65, 55
1, 229479, Note_on_c, 0, 63, 81
1, 229487, Control_c, 0, 64, 11
1, 229502, Control_c, 0, 64, 0
1, 229695, Note_on_c, 0, 60, 59
1, 229701, Note_on_c, 0, 51, 52
1, 229725, Note_off_c, 0, 60, 64
1, 229742, Note_off_c, 0, 51, 62
1, 229825, Note_on_c, 0, 60, 55
1, 229838, Note_off_c, 0, 63, 57
1, 229913, Note_on_c, 0, 61, 55
1, 229923, Note_off_c, 0, 60, 52
1, 229947, Note_off_c, 0, 61, 63
1, 229954, Control_c, 0, 64, 17
1, 229964, Note_on_c, 0, 63, 66
1, 229969, Control_c, 0, 64, 41
1, 229975, Note_on_c, 0, 51, 46
1, 229976, Note_on_c, 0, 58, 58
1, 229983, Control_c, 0, 64, 52
1, 229998, Control_c, 0, 64, 57
1, 230005, Note_off_c, 0, 63, 61
1, 230007, Note_off_c, 0, 58, 65
1, 230013, Control_c, 0, 64, 59
1, 230014, Note_off_c, 0, 51, 63
1, 230028, Control_c, 0, 64, 60
1, 230032, Note_on_c, 0, 61, 64
1, 230043, Control_c, 0, 64, 60
1, 230064, Note_off_c, 0, 61, 63
1, 230086, Note_on_c, 0, 63, 68
1, 230102, Control_c, 0, 64, 60
1, 230117, Control_c, 0, 64, 59
1, 230121, Note_off_c, 0, 63, 63
1, 230132, Control_c, 0, 64, 59
1, 230143, Note_on_c, 0, 61, 60
1, 230146, Control_c, 0, 64, 57
1, 230161, Control_c, 0, 64, 56
1, 230173, Note_off_c, 0, 61, 65
1, 230176, Control_c, 0, 64, 54
1, 230184, Note_on_c, 0, 63, 73
1, 230186, Note_on_c, 0, 51, 51
1, 230190, Control_c, 0, 64, 52
1, 230191, Note_on_c, 0, 58, 57
1, 230205, Control_c, 0, 64, 48
1, 230220, Note_off_c, 0, 63, 61
1, 230220, Control_c, 0, 64, 45
1, 230224, Note_off_c, 0, 58, 60
1, 230229, Note_off_c, 0, 51, 61
1, 230236, Control_c, 0, 64, 42
1, 230251, Control_c, 0, 64, 41
1, 230253, Note_on_c, 0, 61, 62
1, 230266, Control_c, 0, 64, 39
1, 230273, Note_off_c, 0, 61, 64
1, 230280, Control_c, 0, 64, 37
1, 230282, Note_on_c, 0, 63, 75
1, 230295, Control_c, 0, 64, 35
1, 230310, Control_c, 0, 64, 33
1, 230326, Control_c, 0, 64, 31
1, 230336, Note_off_c, 0, 63, 61
1, 230341, Control_c, 0, 64, 29
1, 230345, Note_on_c, 0, 61, 72
1, 230355, Control_c, 0, 64, 27
1, 230370, Control_c, 0, 64, 26
1, 230377, Note_off_c, 0, 61, 66
1, 230385, Control_c, 0, 64, 24
1, 230400, Control_c, 0, 64, 21
1, 230401, Note_on_c, 0, 60, 66
1, 230414, Control_c, 0, 64, 18
1, 230429, Control_c, 0, 64, 12
1, 230442, Note_off_c, 0, 60, 59
1, 230444, Control_c, 0, 64, 0
1, 230448, Note_on_c, 0, 61, 71
1, 230500, Note_off_c, 0, 61, 59
1, 230527, Note_on_c, 0, 56, 56
1, 230528, Note_on_c, 0, 60, 67
1, 230592, Control_c, 0, 64, 16
1, 230614, Control_c, 0, 64, 39
1, 230629, Control_c, 0, 64, 51
1, 230644, Control_c, 0, 64, 56
1, 230659, Control_c, 0, 64, 58
1, 230674, Control_c, 0, 64, 59
1, 230693, Note_off_c, 0, 60, 47
1, 230762, Control_c, 0, 64, 58
1, 230777, Control_c, 0, 64, 57
1, 230792, Control_c, 0, 64, 55
1, 230802, Note_on_c, 0, 68, 76
1, 230807, Control_c, 0, 64, 53
1, 230822, Control_c, 0, 64, 50
1, 230837, Control_c, 0, 64, 47
1, 230852, Control_c, 0, 64, 43
1, 230867, Control_c, 0, 64, 40
1, 230881, Control_c, 0, 64, 38
1, 230896, Control_c, 0, 64, 36
1, 230911, Control_c, 0, 64, 33
1, 230926, Control_c, 0, 64, 32
1, 230941, Control_c, 0, 64, 30
1, 230956, Control_c, 0, 64, 28
1, 230970, Control_c, 0, 64, 27
1, 230985, Control_c, 0, 64, 25
1, 231000, Control_c, 0, 64, 24
1, 231014, Control_c, 0, 64, 23
1, 231029, Control_c, 0, 64, 22
1, 231045, Control_c, 0, 64, 20
1, 231060, Control_c, 0, 64, 18
1, 231060, Note_on_c, 0, 60, 71
1, 231064, Note_off_c, 0, 56, 0
1, 231075, Control_c, 0, 64, 17
1, 231090, Control_c, 0, 64, 17
1, 231101, Poly_aftertouch_c, 0, 56, 127
1, 231119, Control_c, 0, 64, 16
1, 231134, Control_c, 0, 64, 15
1, 231149, Control_c, 0, 64, 14
1, 231164, Control_c, 0, 64, 13
1, 231178, Control_c, 0, 64, 13
1, 231193, Control_c, 0, 64, 12
1, 231223, Control_c, 0, 64, 11
1, 231227, Poly_aftertouch_c, 0, 56, 0
1, 231237, Control_c, 0, 64, 9
1, 231267, Control_c, 0, 64, 8
1, 231282, Control_c, 0, 64, 0
1, 231304, Note_on_c, 0, 66, 72
1, 231388, Note_off_c, 0, 68, 50
1, 231567, Note_off_c, 0, 60, 54
1, 231588, Note_on_c, 0, 61, 51
1, 231821, Note_on_c, 0, 65, 62
1, 231841, Note_off_c, 0, 66, 61
1, 232116, Note_on_c, 0, 49, 41
1, 232139, Note_off_c, 0, 61, 36
1, 232328, Note_on_c, 0, 69, 71
1, 232333, Control_c, 0, 64, 41
1, 232348, Control_c, 0, 64, 54
1, 232360, Note_off_c, 0, 65, 57
1, 232363, Control_c, 0, 64, 60
1, 232367, Note_off_c, 0, 49, 56
1, 232378, Control_c, 0, 64, 62
1, 232388, Note_off_c, 0, 69, 63
1, 232393, Control_c, 0, 64, 63
1, 232408, Control_c, 0, 64, 64
1, 232423, Control_c, 0, 64, 64
1, 232438, Control_c, 0, 64, 64
1, 232467, Control_c, 0, 64, 63
1, 232482, Control_c, 0, 64, 61
1, 232497, Control_c, 0, 64, 58
1, 232512, Control_c, 0, 64, 53
1, 232526, Control_c, 0, 64, 45
1, 232531, Note_on_c, 0, 72, 49
1, 232541, Control_c, 0, 64, 37
1, 232556, Control_c, 0, 64, 28
1, 232556, Control_c, 0, 67, 9
1, 232560, Note_off_c, 0, 72, 57
1, 232571, Control_c, 0, 64, 21
1, 232571, Control_c, 0, 67, 12
1, 232574, Note_on_c, 0, 70, 60
1, 232585, Control_c, 0, 64, 12
1, 232585, Control_c, 0, 67, 15
1, 232600, Control_c, 0, 64, 0
1, 232600, Control_c, 0, 67, 17
1, 232603, Note_off_c, 0, 70, 66
1, 232615, Control_c, 0, 67, 21
1, 232616, Note_on_c, 0, 69, 70
1, 232631, Control_c, 0, 67, 27
1, 232646, Control_c, 0, 67, 33
1, 232649, Note_off_c, 0, 69, 67
1, 232661, Control_c, 0, 67, 39
1, 232669, Note_on_c, 0, 70, 59
1, 232675, Control_c, 0, 67, 42
1, 232689, Note_off_c, 0, 70, 63
1, 232690, Control_c, 0, 67, 43
1, 232705, Control_c, 0, 67, 43
1, 232720, Control_c, 0, 67, 42
1, 232735, Control_c, 0, 67, 41
1, 232750, Control_c, 0, 67, 40
1, 232764, Control_c, 0, 67, 39
1, 232779, Control_c, 0, 67, 38
1, 232794, Control_c, 0, 67, 38
1, 232809, Control_c, 0, 67, 37
1, 232824, Control_c, 0, 67, 37
1, 232838, Note_on_c, 0, 72, 66
1, 232838, Control_c, 0, 67, 36
1, 232861, Control_c, 0, 67, 35
1, 232876, Control_c, 0, 67, 35
1, 232885, Note_off_c, 0, 72, 60
1, 232890, Control_c, 0, 67, 34
1, 232905, Control_c, 0, 67, 34
1, 232950, Control_c, 0, 67, 33
1, 232994, Control_c, 0, 67, 33
1, 233001, Note_on_c, 0, 75, 64
1, 233008, Control_c, 0, 67, 32
1, 233023, Control_c, 0, 67, 32
1, 233028, Note_off_c, 0, 75, 68
1, 233050, Note_on_c, 0, 73, 65
1, 233053, Control_c, 0, 67, 31
1, 233077, Note_off_c, 0, 73, 68
1, 233082, Control_c, 0, 67, 30
1, 233090, Note_on_c, 0, 72, 71
1, 233097, Control_c, 0, 67, 30
1, 233112, Control_c, 0, 67, 29
1, 233127, Control_c, 0, 67, 29
1, 233129, Note_off_c, 0, 72, 59
1, 233138, Note_on_c, 0, 73, 66
1, 233142, Control_c, 0, 67, 27
1, 233156, Control_c, 0, 67, 24
1, 233164, Note_off_c, 0, 73, 68
1, 233171, Control_c, 0, 67, 20
1, 233186, Control_c, 0, 67, 16
1, 233201, Control_c, 0, 67, 12
1, 233216, Control_c, 0, 67, 8
1, 233230, Control_c, 0, 67, 0
1, 233284, Note_on_c, 0, 76, 69
1, 233318, Note_off_c, 0, 76, 63
1, 233456, Note_on_c, 0, 79, 62
1, 233491, Note_off_c, 0, 79, 66
1, 233501, Note_on_c, 0, 77, 61
1, 233521, Note_off_c, 0, 77, 66
1, 233540, Note_on_c, 0, 76, 58
1, 233561, Note_off_c, 0, 76, 62
1, 233582, Note_on_c, 0, 77, 74
1, 233615, Note_off_c, 0, 77, 69
1, 233753, Note_on_c, 0, 81, 69
1, 233785, Note_off_c, 0, 81, 66
1, 233793, Note_on_c, 0, 84, 69
1, 233823, Note_off_c, 0, 84, 68
1, 233976, Note_on_c, 0, 82, 75
1, 234025, Note_on_c, 0, 85, 78
1, 234027, Note_off_c, 0, 82, 64
1, 234066, Note_off_c, 0, 85, 61
1, 234205, Note_on_c, 0, 84, 80
1, 234255, Note_on_c, 0, 87, 84
1, 234267, Note_off_c, 0, 84, 65
1, 234317, Note_off_c, 0, 87, 60
1, 234486, Note_on_c, 0, 85, 83
1, 234595, Note_on_c, 0, 89, 86
1, 234634, Note_off_c, 0, 85, 60
1, 234802, Note_on_c, 0, 49, 61
1, 234804, Note_on_c, 0, 58, 60
1, 234833, Note_off_c, 0, 58, 68
1, 234839, Note_off_c, 0, 49, 62
1, 235053, Note_on_c, 0, 58, 63
1, 235059, Note_on_c, 0, 49, 61
1, 235070, Control_c, 0, 64, 29
1, 235085, Control_c, 0, 64, 46
1, 235095, Note_off_c, 0, 58, 62
1, 235108, Control_c, 0, 64, 55
1, 235108, Note_off_c, 0, 49, 62
1, 235123, Control_c, 0, 64, 59
1, 235138, Control_c, 0, 64, 61
1, 235152, Control_c, 0, 64, 63
1, 235154, Note_on_c, 0, 87, 60
1, 235167, Control_c, 0, 64, 64
1, 235182, Control_c, 0, 64, 65
1, 235188, Note_off_c, 0, 89, 60
1, 235211, Note_off_c, 0, 87, 54
1, 235243, Note_on_c, 0, 85, 55
1, 235271, Control_c, 0, 64, 64
1, 235278, Note_off_c, 0, 85, 65
1, 235285, Control_c, 0, 64, 62
1, 235297, Note_on_c, 0, 87, 60
1, 235300, Control_c, 0, 64, 60
1, 235305, Note_on_c, 0, 58, 67
1, 235311, Note_on_c, 0, 49, 61
1, 235315, Control_c, 0, 64, 57
1, 235330, Control_c, 0, 64, 53
1, 235345, Note_off_c, 0, 58, 63
1, 235345, Control_c, 0, 64, 49
1, 235353, Note_off_c, 0, 87, 64
1, 235355, Note_off_c, 0, 49, 61
1, 235356, Note_on_c, 0, 85, 67
1, 235359, Control_c, 0, 64, 43
1, 235374, Control_c, 0, 64, 37
1, 235389, Control_c, 0, 64, 31
1, 235396, Note_off_c, 0, 85, 61
1, 235404, Control_c, 0, 64, 27
1, 235418, Control_c, 0, 64, 23
1, 235421, Note_on_c, 0, 84, 62
1, 235433, Control_c, 0, 64, 21
1, 235448, Control_c, 0, 64, 19
1, 235463, Control_c, 0, 64, 17
1, 235469, Note_off_c, 0, 84, 65
1, 235478, Note_on_c, 0, 82, 67
1, 235478, Control_c, 0, 64, 16
1, 235493, Control_c, 0, 64, 16
1, 235505, Note_off_c, 0, 82, 67
1, 235508, Control_c, 0, 64, 15
1, 235544, Note_on_c, 0, 84, 69
1, 235552, Control_c, 0, 64, 15
1, 235567, Control_c, 0, 64, 13
1, 235582, Control_c, 0, 64, 12
1, 235597, Control_c, 0, 64, 12
1, 235614, Note_on_c, 0, 85, 70
1, 235615, Note_off_c, 0, 84, 60
1, 235641, Control_c, 0, 64, 11
1, 235663, Note_off_c, 0, 85, 62
1, 235666, Note_on_c, 0, 87, 70
1, 235730, Control_c, 0, 64, 10
1, 235732, Note_off_c, 0, 87, 65
1, 235735, Note_on_c, 0, 85, 64
1, 235745, Control_c, 0, 64, 0
1, 235773, Note_off_c, 0, 85, 64
1, 235790, Note_on_c, 0, 84, 63
1, 235815, Note_on_c, 0, 60, 68
1, 235823, Note_on_c, 0, 51, 59
1, 235842, Note_off_c, 0, 60, 64
1, 235845, Note_off_c, 0, 84, 53
1, 235860, Note_off_c, 0, 51, 66
1, 235876, Note_on_c, 0, 82, 77
1, 235940, Note_on_c, 0, 80, 76
1, 235989, Note_off_c, 0, 82, 61
1, 235997, Note_on_c, 0, 79, 70
1, 236024, Note_off_c, 0, 80, 63
1, 236041, Note_off_c, 0, 79, 63
1, 236064, Control_c, 0, 64, 31
1, 236066, Note_on_c, 0, 77, 70
1, 236068, Note_on_c, 0, 60, 69
1, 236072, Note_on_c, 0, 51, 53
1, 236079, Control_c, 0, 64, 50
1, 236094, Control_c, 0, 64, 59
1, 236108, Control_c, 0, 64, 62
1, 236112, Note_off_c, 0, 60, 58
1, 236114, Note_off_c, 0, 51, 63
1, 236119, Note_off_c, 0, 77, 59
1, 236123, Control_c, 0, 64, 64
1, 236138, Control_c, 0, 64, 66
1, 236146, Note_on_c, 0, 75, 73
1, 236153, Control_c, 0, 64, 68
1, 236168, Control_c, 0, 64, 69
1, 236211, Note_on_c, 0, 73, 71
1, 236223, Note_off_c, 0, 75, 63
1, 236241, Control_c, 0, 64, 68
1, 236254, Note_off_c, 0, 73, 61
1, 236256, Control_c, 0, 64, 67
1, 236271, Note_on_c, 0, 72, 66
1, 236271, Control_c, 0, 64, 65
1, 236286, Control_c, 0, 64, 62
1, 236301, Control_c, 0, 64, 57
1, 236315, Control_c, 0, 64, 51
1, 236316, Note_on_c, 0, 60, 64
1, 236324, Note_off_c, 0, 72, 53
1, 236327, Note_on_c, 0, 51, 55
1, 236330, Control_c, 0, 64, 45
1, 236337, Note_on_c, 0, 70, 72
1, 236345, Control_c, 0, 64, 42
1, 236348, Note_off_c, 0, 60, 63
1, 236358, Note_off_c, 0, 51, 66
1, 236360, Control_c, 0, 64, 38
1, 236374, Control_c, 0, 64, 35
1, 236389, Control_c, 0, 64, 31
1, 236396, Note_on_c, 0, 68, 79
1, 236404, Control_c, 0, 64, 30
1, 236418, Control_c, 0, 64, 29
1, 236433, Control_c, 0, 64, 29
1, 236439, Note_off_c, 0, 70, 61
1, 236448, Control_c, 0, 64, 28
1, 236458, Note_on_c, 0, 67, 73
1, 236463, Control_c, 0, 64, 26
1, 236478, Control_c, 0, 64, 24
1, 236482, Note_off_c, 0, 68, 65
1, 236493, Control_c, 0, 64, 23
1, 236494, Note_off_c, 0, 67, 64
1, 236519, Note_on_c, 0, 65, 68
1, 236552, Control_c, 0, 64, 22
1, 236567, Control_c, 0, 64, 20
1, 236572, Note_off_c, 0, 65, 52
1, 236581, Control_c, 0, 64, 18
1, 236590, Note_on_c, 0, 63, 84
1, 236604, Control_c, 0, 64, 17
1, 236619, Control_c, 0, 64, 17
1, 236738, Control_c, 0, 64, 16
1, 236753, Control_c, 0, 64, 15
1, 236768, Control_c, 0, 64, 13
1, 236783, Control_c, 0, 64, 12
1, 236797, Control_c, 0, 64, 12
1, 236842, Control_c, 0, 64, 11
1, 236845, Note_on_c, 0, 59, 68
1, 236852, Note_on_c, 0, 51, 60
1, 236856, Control_c, 0, 64, 9
1, 236871, Control_c, 0, 64, 0
1, 236881, Note_off_c, 0, 59, 66
1, 236888, Note_off_c, 0, 51, 64
1, 237094, Control_c, 0, 64, 25
1, 237109, Control_c, 0, 64, 47
1, 237118, Note_on_c, 0, 59, 70
1, 237123, Control_c, 0, 64, 57
1, 237128, Note_on_c, 0, 51, 64
1, 237138, Control_c, 0, 64, 63
1, 237153, Control_c, 0, 64, 65
1, 237168, Control_c, 0, 64, 67
1, 237177, Note_off_c, 0, 51, 60
1, 237177, Note_off_c, 0, 59, 63
1, 237183, Control_c, 0, 64, 68
1, 237197, Control_c, 0, 64, 69
1, 237212, Control_c, 0, 64, 69
1, 237241, Control_c, 0, 64, 69
1, 237301, Control_c, 0, 64, 68
1, 237315, Control_c, 0, 64, 67
1, 237330, Control_c, 0, 64, 66
1, 237353, Control_c, 0, 64, 64
1, 237368, Control_c, 0, 64, 61
1, 237382, Control_c, 0, 64, 57
1, 237397, Control_c, 0, 64, 53
1, 237404, Note_on_c, 0, 59, 62
1, 237412, Control_c, 0, 64, 50
1, 237413, Note_on_c, 0, 51, 57
1, 237428, Control_c, 0, 64, 47
1, 237437, Note_off_c, 0, 59, 66
1, 237442, Control_c, 0, 64, 42
1, 237447, Note_off_c, 0, 51, 64
1, 237457, Control_c, 0, 64, 37
1, 237472, Control_c, 0, 64, 33
1, 237487, Control_c, 0, 64, 31
1, 237502, Control_c, 0, 64, 30
1, 237517, Control_c, 0, 64, 28
1, 237532, Control_c, 0, 64, 26
1, 237546, Control_c, 0, 64, 25
1, 237561, Control_c, 0, 64, 25
1, 237576, Control_c, 0, 64, 23
1, 237591, Control_c, 0, 64, 21
1, 237606, Control_c, 0, 64, 19
1, 237621, Control_c, 0, 64, 17
1, 237635, Control_c, 0, 64, 16
1, 237650, Control_c, 0, 64, 13
1, 237665, Control_c, 0, 64, 12
1, 237679, Control_c, 0, 64, 10
1, 237681, Note_on_c, 0, 62, 79
1, 237694, Control_c, 0, 64, 8
1, 237709, Control_c, 0, 64, 0
1, 237905, Note_off_c, 0, 63, 60
1, 237936, Note_on_c, 0, 59, 65
1, 237941, Note_on_c, 0, 52, 56
1, 237976, Note_off_c, 0, 52, 62
1, 237977, Note_off_c, 0, 59, 65
1, 238191, Control_c, 0, 64, 24
1, 238206, Control_c, 0, 64, 45
1, 238222, Control_c, 0, 64, 55
1, 238236, Note_on_c, 0, 59, 63
1, 238237, Control_c, 0, 64, 61
1, 238239, Note_on_c, 0, 52, 53
1, 238251, Control_c, 0, 64, 64
1, 238266, Control_c, 0, 64, 66
1, 238281, Control_c, 0, 64, 68
1, 238285, Note_off_c, 0, 59, 59
1, 238287, Note_off_c, 0, 52, 56
1, 238296, Control_c, 0, 64, 69
1, 238310, Control_c, 0, 64, 71
1, 238325, Control_c, 0, 64, 71
1, 238384, Control_c, 0, 67, 11
1, 238399, Control_c, 0, 67, 15
1, 238414, Control_c, 0, 64, 71
1, 238414, Control_c, 0, 67, 19
1, 238429, Control_c, 0, 64, 70
1, 238429, Control_c, 0, 67, 25
1, 238444, Control_c, 0, 64, 69
1, 238444, Control_c, 0, 67, 32
1, 238459, Control_c, 0, 64, 68
1, 238459, Control_c, 0, 67, 39
1, 238474, Control_c, 0, 64, 67
1, 238474, Control_c, 0, 67, 46
1, 238489, Control_c, 0, 64, 66
1, 238489, Control_c, 0, 67, 53
1, 238503, Control_c, 0, 64, 65
1, 238503, Control_c, 0, 67, 55
1, 238518, Control_c, 0, 64, 63
1, 238519, Note_on_c, 0, 59, 59
1, 238519, Note_on_c, 0, 52, 53
1, 238533, Control_c, 0, 64, 62
1, 238533, Control_c, 0, 67, 54
1, 238548, Control_c, 0, 64, 60
1, 238548, Control_c, 0, 67, 53
1, 238555, Note_off_c, 0, 52, 63
1, 238557, Note_off_c, 0, 59, 65
1, 238561, Control_c, 0, 64, 58
1, 238561, Control_c, 0, 67, 53
1, 238575, Control_c, 0, 64, 55
1, 238575, Control_c, 0, 67, 52
1, 238590, Control_c, 0, 64, 53
1, 238590, Control_c, 0, 67, 51
1, 238605, Control_c, 0, 64, 52
1, 238605, Control_c, 0, 67, 51
1, 238620, Control_c, 0, 64, 51
1, 238620, Control_c, 0, 67, 50
1, 238635, Control_c, 0, 64, 50
1, 238635, Control_c, 0, 67, 50
1, 238650, Control_c, 0, 64, 49
1, 238665, Control_c, 0, 64, 49
1, 238665, Control_c, 0, 67, 49
1, 238680, Control_c, 0, 64, 47
1, 238694, Control_c, 0, 64, 45
1, 238694, Control_c, 0, 67, 49
1, 238709, Control_c, 0, 64, 43
1, 238724, Control_c, 0, 64, 41
1, 238724, Control_c, 0, 67, 48
1, 238739, Control_c, 0, 64, 37
1, 238754, Control_c, 0, 64, 34
1, 238768, Control_c, 0, 64, 31
1, 238783, Control_c, 0, 64, 29
1, 238788, Note_on_c, 0, 63, 76
1, 238798, Control_c, 0, 64, 26
1, 238812, Control_c, 0, 64, 23
1, 238812, Control_c, 0, 67, 48
1, 238827, Control_c, 0, 64, 20
1, 238829, Note_off_c, 0, 62, 60
1, 238837, Note_on_c, 0, 61, 82
1, 238849, Control_c, 0, 64, 17
1, 238864, Control_c, 0, 64, 11
1, 238864, Control_c, 0, 67, 47
1, 238876, Note_off_c, 0, 63, 64
1, 238879, Control_c, 0, 64, 0
1, 238894, Control_c, 0, 67, 47
1, 238909, Control_c, 0, 67, 46
1, 238924, Control_c, 0, 67, 45
1, 238939, Control_c, 0, 67, 43
1, 238954, Control_c, 0, 67, 42
1, 238968, Control_c, 0, 67, 40
1, 238983, Control_c, 0, 67, 36
1, 238998, Control_c, 0, 67, 29
1, 239013, Control_c, 0, 67, 21
1, 239028, Control_c, 0, 67, 12
1, 239043, Control_c, 0, 67, 0
1, 239124, Note_on_c, 0, 58, 63
1, 239133, Note_on_c, 0, 55, 55
1, 239162, Note_off_c, 0, 58, 64
1, 239177, Note_off_c, 0, 55, 58
1, 239236, Control_c, 0, 64, 16
1, 239250, Control_c, 0, 64, 19
1, 239310, Control_c, 0, 64, 17
1, 239324, Control_c, 0, 64, 0
1, 239335, Note_off_c, 0, 61, 63
1, 239340, Note_on_c, 0, 63, 75
1, 239395, Note_on_c, 0, 61, 77
1, 239407, Note_on_c, 0, 58, 56
1, 239409, Note_on_c, 0, 55, 56
1, 239422, Note_off_c, 0, 63, 63
1, 239443, Control_c, 0, 64, 27
1, 239446, Note_off_c, 0, 58, 61
1, 239458, Control_c, 0, 64, 45
1, 239464, Note_off_c, 0, 55, 58
1, 239472, Control_c, 0, 64, 52
1, 239487, Control_c, 0, 64, 54
1, 239502, Control_c, 0, 64, 54
1, 239532, Control_c, 0, 64, 54
1, 239562, Control_c, 0, 64, 53
1, 239577, Control_c, 0, 64, 51
1, 239598, Control_c, 0, 64, 48
1, 239613, Control_c, 0, 64, 44
1, 239622, Note_off_c, 0, 61, 63
1, 239627, Note_on_c, 0, 63, 72
1, 239628, Control_c, 0, 64, 40
1, 239643, Control_c, 0, 64, 34
1, 239657, Control_c, 0, 64, 27
1, 239672, Control_c, 0, 64, 21
1, 239680, Note_on_c, 0, 61, 73
1, 239687, Control_c, 0, 64, 16
1, 239691, Note_on_c, 0, 58, 52
1, 239696, Note_on_c, 0, 55, 54
1, 239702, Control_c, 0, 64, 13
1, 239703, Note_off_c, 0, 63, 65
1, 239717, Control_c, 0, 64, 0
1, 239729, Note_off_c, 0, 58, 58
1, 239747, Note_off_c, 0, 55, 55
1, 239851, Control_c, 0, 67, 10
1, 239866, Control_c, 0, 67, 11
1, 239881, Control_c, 0, 67, 14
1, 239896, Control_c, 0, 67, 16
1, 239905, Note_off_c, 0, 61, 57
1, 239908, Note_on_c, 0, 63, 59
1, 239911, Control_c, 0, 67, 20
1, 239926, Control_c, 0, 67, 24
1, 239940, Control_c, 0, 67, 30
1, 239953, Note_off_c, 0, 63, 61
1, 239955, Control_c, 0, 67, 35
1, 239970, Control_c, 0, 67, 39
1, 239985, Control_c, 0, 67, 42
1, 240000, Control_c, 0, 67, 45
1, 240014, Control_c, 0, 67, 47
1, 240029, Control_c, 0, 67, 48
1, 240037, Note_on_c, 0, 60, 56
1, 240044, Control_c, 0, 67, 49
1, 240057, Note_on_c, 0, 56, 49
1, 240059, Control_c, 0, 67, 51
1, 240073, Control_c, 0, 67, 53
1, 240088, Control_c, 0, 67, 56
1, 240103, Control_c, 0, 67, 59
1, 240109, Note_off_c, 0, 60, 53
1, 240118, Control_c, 0, 67, 60
1, 240119, Note_on_c, 0, 63, 49
1, 240133, Control_c, 0, 67, 59
1, 240160, Note_off_c, 0, 63, 61
1, 240162, Control_c, 0, 67, 59
1, 240177, Control_c, 0, 67, 58
1, 240191, Control_c, 0, 67, 56
1, 240197, Note_on_c, 0, 68, 55
1, 240206, Control_c, 0, 67, 56
1, 240221, Control_c, 0, 67, 55
1, 240236, Control_c, 0, 67, 55
1, 240248, Note_off_c, 0, 68, 55
1, 240251, Control_c, 0, 67, 54
1, 240265, Control_c, 0, 67, 53
1, 240267, Note_on_c, 0, 60, 57
1, 240280, Control_c, 0, 67, 53
1, 240295, Control_c, 0, 67, 52
1, 240342, Note_off_c, 0, 56, 54
1, 240347, Control_c, 0, 67, 52
1, 240373, Note_on_c, 0, 63, 51
1, 240375, Note_off_c, 0, 60, 54
1, 240422, Note_off_c, 0, 63, 64
1, 240437, Note_on_c, 0, 68, 60
1, 240509, Note_off_c, 0, 68, 58
1, 240520, Note_on_c, 0, 63, 68
1, 240540, Control_c, 0, 67, 51
1, 240555, Control_c, 0, 67, 51
1, 240584, Note_on_c, 0, 67, 55
1, 240584, Control_c, 0, 67, 50
1, 240605, Note_off_c, 0, 63, 63
1, 240658, Note_off_c, 0, 67, 61
1, 240659, Control_c, 0, 67, 50
1, 240670, Note_on_c, 0, 70, 55
1, 240701, Note_off_c, 0, 70, 65
1, 240737, Note_on_c, 0, 58, 51
1, 240742, Note_on_c, 0, 51, 40
1, 240763, Note_on_c, 0, 67, 64
1, 240777, Note_off_c, 0, 58, 60
1, 240791, Note_off_c, 0, 51, 56
1, 240817, Note_off_c, 0, 67, 54
1, 240837, Note_on_c, 0, 70, 55
1, 240887, Note_off_c, 0, 70, 62
1, 240915, Note_on_c, 0, 73, 49
1, 240936, Note_off_c, 0, 73, 60
1, 240998, Note_on_c, 0, 56, 51
1, 241002, Note_on_c, 0, 72, 59
1, 241075, Note_off_c, 0, 72, 57
1, 241081, Note_on_c, 0, 75, 57
1, 241143, Note_off_c, 0, 75, 60
1, 241163, Note_on_c, 0, 80, 61
1, 241228, Note_on_c, 0, 72, 65
1, 241239, Note_off_c, 0, 80, 59
1, 241275, Note_off_c, 0, 56, 53
1, 241309, Note_on_c, 0, 75, 71
1, 241333, Note_off_c, 0, 72, 54
1, 241374, Note_on_c, 0, 80, 70
1, 241378, Note_off_c, 0, 75, 64
1, 241458, Note_on_c, 0, 75, 76
1, 241459, Note_off_c, 0, 80, 61
1, 241520, Note_on_c, 0, 79, 63
1, 241549, Note_off_c, 0, 75, 64
1, 241592, Note_off_c, 0, 79, 65
1, 241600, Note_on_c, 0, 82, 63
1, 241636, Note_off_c, 0, 82, 63
1, 241679, Note_on_c, 0, 51, 51
1, 241684, Note_on_c, 0, 58, 54
1, 241695, Note_on_c, 0, 79, 72
1, 241724, Note_off_c, 0, 58, 61
1, 241729, Note_off_c, 0, 51, 60
1, 241760, Note_off_c, 0, 79, 59
1, 241765, Control_c, 0, 67, 50
1, 241766, Note_on_c, 0, 82, 70
1, 241834, Note_off_c, 0, 82, 63
1, 241851, Note_on_c, 0, 85, 60
1, 241885, Note_off_c, 0, 85, 66
1, 241934, Note_on_c, 0, 84, 72
1, 241935, Control_c, 0, 67, 51
1, 241943, Note_on_c, 0, 56, 53
1, 242014, Note_on_c, 0, 85, 68
1, 242042, Note_off_c, 0, 84, 55
1, 242084, Note_off_c, 0, 85, 64
1, 242087, Note_on_c, 0, 87, 72
1, 242113, Control_c, 0, 67, 50
1, 242127, Control_c, 0, 67, 50
1, 242142, Control_c, 0, 67, 49
1, 242157, Control_c, 0, 67, 47
1, 242163, Note_on_c, 0, 85, 74
1, 242171, Control_c, 0, 67, 46
1, 242175, Note_off_c, 0, 87, 62
1, 242186, Control_c, 0, 67, 44
1, 242201, Control_c, 0, 67, 41
1, 242217, Control_c, 0, 67, 37
1, 242225, Note_off_c, 0, 85, 64
1, 242232, Control_c, 0, 67, 34
1, 242236, Note_on_c, 0, 84, 65
1, 242247, Control_c, 0, 67, 31
1, 242262, Control_c, 0, 67, 30
1, 242276, Control_c, 0, 67, 29
1, 242279, Note_off_c, 0, 56, 54
1, 242304, Note_off_c, 0, 84, 50
1, 242314, Note_on_c, 0, 82, 75
1, 242364, Control_c, 0, 67, 30
1, 242396, Note_on_c, 0, 80, 69
1, 242409, Control_c, 0, 67, 30
1, 242437, Note_off_c, 0, 82, 61
1, 242465, Note_on_c, 0, 79, 66
1, 242468, Control_c, 0, 67, 31
1, 242483, Note_off_c, 0, 80, 60
1, 242499, Note_off_c, 0, 79, 63
1, 242542, Note_on_c, 0, 77, 58
1, 242542, Control_c, 0, 67, 31
1, 242572, Control_c, 0, 67, 32
1, 242592, Note_off_c, 0, 77, 61
1, 242632, Note_on_c, 0, 75, 61
1, 242638, Control_c, 0, 67, 32
1, 242696, Note_off_c, 0, 75, 59
1, 242713, Note_on_c, 0, 73, 54
1, 242728, Control_c, 0, 67, 33
1, 242747, Note_off_c, 0, 73, 66
1, 242773, Note_on_c, 0, 49, 37
1, 242784, Note_on_c, 0, 72, 51
1, 242787, Control_c, 0, 67, 33
1, 242840, Note_off_c, 0, 72, 52
1, 242876, Note_on_c, 0, 70, 49
1, 242886, Note_on_c, 0, 53, 33
1, 242935, Note_off_c, 0, 70, 57
1, 243002, Note_on_c, 0, 73, 48
1, 243061, Note_off_c, 0, 73, 63
1, 243071, Note_on_c, 0, 72, 59
1, 243145, Note_off_c, 0, 72, 59
1, 243174, Note_on_c, 0, 70, 56
1, 243202, Note_off_c, 0, 70, 63
1, 243246, Control_c, 0, 67, 33
1, 243258, Note_on_c, 0, 77, 62
1, 243276, Control_c, 0, 67, 32
1, 243291, Control_c, 0, 67, 31
1, 243306, Control_c, 0, 67, 31
1, 243321, Control_c, 0, 67, 30
1, 243343, Control_c, 0, 67, 29
1, 243346, Note_on_c, 0, 75, 64
1, 243354, Note_off_c, 0, 77, 61
1, 243358, Control_c, 0, 67, 29
1, 243362, Note_off_c, 0, 49, 50
1, 243372, Control_c, 0, 67, 28
1, 243380, Note_off_c, 0, 53, 55
1, 243387, Control_c, 0, 67, 27
1, 243402, Control_c, 0, 67, 27
1, 243416, Control_c, 0, 64, 8
1, 243416, Control_c, 0, 67, 22
1, 243421, Note_on_c, 0, 73, 67
1, 243428, Note_off_c, 0, 75, 61
1, 243431, Control_c, 0, 64, 9
1, 243431, Control_c, 0, 67, 17
1, 243446, Control_c, 0, 64, 11
1, 243446, Control_c, 0, 67, 12
1, 243461, Control_c, 0, 64, 12
1, 243461, Control_c, 0, 67, 0
1, 243476, Control_c, 0, 64, 12
1, 243480, Note_off_c, 0, 73, 64
1, 243491, Control_c, 0, 64, 13
1, 243494, Note_on_c, 0, 72, 60
1, 243506, Control_c, 0, 64, 14
1, 243521, Control_c, 0, 64, 15
1, 243535, Control_c, 0, 64, 16
1, 243550, Control_c, 0, 64, 16
1, 243565, Note_off_c, 0, 72, 52
1, 243575, Note_on_c, 0, 70, 70
1, 243649, Note_on_c, 0, 68, 71
1, 243683, Control_c, 0, 64, 16
1, 243701, Note_off_c, 0, 70, 58
1, 243728, Control_c, 0, 64, 15
1, 243729, Note_on_c, 0, 67, 71
1, 243753, Note_off_c, 0, 68, 63
1, 243758, Control_c, 0, 64, 15
1, 243781, Note_off_c, 0, 67, 62
1, 243787, Control_c, 0, 64, 14
1, 243796, Note_on_c, 0, 65, 69
1, 243818, Control_c, 0, 64, 13
1, 243847, Control_c, 0, 64, 13
1, 243862, Control_c, 0, 64, 12
1, 243892, Note_off_c, 0, 65, 63
1, 243902, Note_on_c, 0, 63, 66
1, 243921, Control_c, 0, 64, 12
1, 243929, Note_on_c, 0, 60, 74
1, 243930, Note_on_c, 0, 51, 65
1, 243936, Control_c, 0, 64, 0
1, 243981, Note_off_c, 0, 60, 60
1, 243994, Note_off_c, 0, 51, 61
1, 244069, Control_c, 0, 64, 25
1, 244092, Control_c, 0, 64, 40
1, 244107, Control_c, 0, 64, 48
1, 244121, Control_c, 0, 64, 50
1, 244166, Control_c, 0, 64, 49
1, 244181, Control_c, 0, 64, 48
1, 244182, Note_on_c, 0, 60, 72
1, 244187, Note_on_c, 0, 51, 63
1, 244195, Control_c, 0, 64, 46
1, 244210, Control_c, 0, 64, 43
1, 244217, Note_off_c, 0, 60, 62
1, 244225, Control_c, 0, 64, 40
1, 244236, Note_off_c, 0, 51, 59
1, 244239, Control_c, 0, 64, 39
1, 244251, Note_off_c, 0, 63, 56
1, 244254, Control_c, 0, 64, 38
1, 244266, Note_on_c, 0, 68, 54
1, 244269, Control_c, 0, 64, 36
1, 244284, Control_c, 0, 64, 33
1, 244299, Control_c, 0, 64, 31
1, 244313, Control_c, 0, 64, 29
1, 244322, Note_off_c, 0, 68, 58
1, 244328, Control_c, 0, 64, 27
1, 244332, Note_on_c, 0, 70, 60
1, 244343, Control_c, 0, 64, 26
1, 244358, Control_c, 0, 64, 25
1, 244373, Control_c, 0, 64, 25
1, 244375, Note_off_c, 0, 70, 63
1, 244388, Control_c, 0, 64, 23
1, 244392, Note_on_c, 0, 72, 66
1, 244403, Control_c, 0, 64, 22
1, 244418, Control_c, 0, 64, 21
1, 244422, Note_on_c, 0, 51, 54
1, 244423, Note_on_c, 0, 55, 65
1, 244432, Control_c, 0, 64, 21
1, 244451, Note_off_c, 0, 72, 60
1, 244455, Note_on_c, 0, 70, 67
1, 244460, Note_off_c, 0, 55, 64
1, 244474, Note_off_c, 0, 51, 58
1, 244492, Note_off_c, 0, 70, 59
1, 244519, Note_on_c, 0, 72, 62
1, 244536, Control_c, 0, 64, 21
1, 244552, Control_c, 0, 64, 22
1, 244568, Note_off_c, 0, 72, 60
1, 244573, Note_on_c, 0, 70, 61
1, 244581, Control_c, 0, 64, 23
1, 244596, Control_c, 0, 64, 23
1, 244607, Note_off_c, 0, 70, 63
1, 244638, Note_on_c, 0, 72, 61
1, 244641, Control_c, 0, 64, 24
1, 244644, Note_on_c, 0, 51, 45
1, 244644, Note_on_c, 0, 55, 57
1, 244685, Note_off_c, 0, 55, 63
1, 244686, Control_c, 0, 64, 23
1, 244689, Note_off_c, 0, 72, 56
1, 244689, Note_on_c, 0, 70, 62
1, 244693, Note_off_c, 0, 51, 59
1, 244719, Note_off_c, 0, 70, 66
1, 244731, Control_c, 0, 64, 23
1, 244745, Control_c, 0, 64, 22
1, 244749, Note_on_c, 0, 72, 40
1, 244760, Control_c, 0, 64, 21
1, 244760, Control_c, 0, 67, 8
1, 244775, Control_c, 0, 64, 18
1, 244775, Control_c, 0, 67, 11
1, 244790, Control_c, 0, 64, 15
1, 244790, Control_c, 0, 67, 15
1, 244795, Note_on_c, 0, 70, 61
1, 244796, Note_off_c, 0, 72, 64
1, 244804, Control_c, 0, 64, 11
1, 244804, Control_c, 0, 67, 21
1, 244819, Control_c, 0, 64, 0
1, 244819, Control_c, 0, 67, 28
1, 244840, Note_off_c, 0, 70, 65
1, 244841, Control_c, 0, 67, 38
1, 244856, Control_c, 0, 67, 45
1, 244871, Control_c, 0, 67, 52
1, 244886, Control_c, 0, 67, 57
1, 244901, Control_c, 0, 67, 61
1, 244916, Control_c, 0, 67, 63
1, 244930, Control_c, 0, 67, 63
1, 244960, Control_c, 0, 67, 64
1, 244975, Control_c, 0, 67, 64
1, 245004, Control_c, 0, 67, 66
1, 245019, Control_c, 0, 67, 69
1, 245034, Control_c, 0, 67, 73
1, 245049, Note_on_c, 0, 60, 41
1, 245049, Control_c, 0, 67, 78
1, 245057, Note_on_c, 0, 56, 47
1, 245063, Control_c, 0, 67, 82
1, 245078, Control_c, 0, 67, 85
1, 245093, Control_c, 0, 67, 86
1, 245108, Control_c, 0, 67, 87
1, 245121, Note_on_c, 0, 63, 46
1, 245123, Control_c, 0, 67, 88
1, 245137, Control_c, 0, 67, 90
1, 245143, Note_off_c, 0, 60, 45
1, 245176, Note_off_c, 0, 63, 59
1, 245182, Control_c, 0, 67, 89
1, 245196, Control_c, 0, 67, 89
1, 245205, Note_on_c, 0, 68, 53
1, 245211, Control_c, 0, 67, 88
1, 245226, Control_c, 0, 67, 88
1, 245241, Control_c, 0, 67, 87
1, 245258, Note_off_c, 0, 68, 58
1, 245268, Note_on_c, 0, 60, 58
1, 245270, Control_c, 0, 67, 87
1, 245300, Control_c, 0, 67, 86
1, 245345, Control_c, 0, 67, 87
1, 245369, Note_on_c, 0, 63, 51
1, 245375, Control_c, 0, 67, 87
1, 245379, Note_off_c, 0, 60, 53
1, 245389, Control_c, 0, 67, 88
1, 245405, Control_c, 0, 67, 89
1, 245419, Note_off_c, 0, 63, 62
1, 245420, Control_c, 0, 67, 90
1, 245428, Note_off_c, 0, 56, 58
1, 245429, Note_on_c, 0, 68, 63
1, 245434, Control_c, 0, 67, 90
1, 245449, Control_c, 0, 67, 91
1, 245464, Control_c, 0, 67, 91
1, 245479, Control_c, 0, 67, 93
1, 245494, Control_c, 0, 67, 95
1, 245506, Note_off_c, 0, 68, 61
1, 245509, Control_c, 0, 67, 97
1, 245515, Note_on_c, 0, 63, 66
1, 245524, Control_c, 0, 67, 98
1, 245539, Control_c, 0, 67, 99
1, 245553, Control_c, 0, 67, 100
1, 245568, Control_c, 0, 67, 100
1, 245584, Note_on_c, 0, 67, 56
1, 245590, Control_c, 0, 67, 101
1, 245603, Note_off_c, 0, 63, 62
1, 245605, Control_c, 0, 67, 102
1, 245619, Control_c, 0, 67, 103
1, 245642, Note_off_c, 0, 67, 62
1, 245662, Note_on_c, 0, 70, 55
1, 245690, Note_off_c, 0, 70, 65
1, 245747, Note_on_c, 0, 58, 55
1, 245747, Note_on_c, 0, 51, 45
1, 245750, Note_on_c, 0, 67, 63
1, 245783, Control_c, 0, 67, 102
1, 245798, Note_off_c, 0, 58, 57
1, 245804, Note_off_c, 0, 67, 49
1, 245819, Note_on_c, 0, 70, 54
1, 245825, Note_off_c, 0, 51, 56
1, 245827, Control_c, 0, 67, 102
1, 245867, Note_off_c, 0, 70, 63
1, 245872, Control_c, 0, 67, 101
1, 245886, Control_c, 0, 67, 101
1, 245893, Note_on_c, 0, 73, 56
1, 245915, Note_off_c, 0, 73, 65
1, 245916, Control_c, 0, 67, 100
1, 245946, Control_c, 0, 67, 100
1, 245989, Note_on_c, 0, 56, 54
1, 245993, Note_on_c, 0, 72, 57
1, 246005, Control_c, 0, 67, 99
1, 246060, Note_off_c, 0, 72, 50
1, 246064, Control_c, 0, 67, 99
1, 246071, Note_on_c, 0, 75, 58
1, 246079, Control_c, 0, 67, 98
1, 246093, Control_c, 0, 67, 98
1, 246108, Control_c, 0, 67, 97
1, 246114, Note_off_c, 0, 75, 62
1, 246123, Control_c, 0, 67, 96
1, 246138, Control_c, 0, 67, 95
1, 246141, Note_on_c, 0, 80, 63
1, 246153, Control_c, 0, 67, 94
1, 246168, Control_c, 0, 67, 93
1, 246182, Control_c, 0, 67, 92
1, 246197, Control_c, 0, 67, 92
1, 246212, Note_on_c, 0, 72, 64
1, 246213, Control_c, 0, 67, 91
1, 246220, Note_off_c, 0, 80, 59
1, 246227, Control_c, 0, 67, 90
1, 246242, Control_c, 0, 67, 90
1, 246257, Control_c, 0, 67, 89
1, 246278, Note_off_c, 0, 56, 56
1, 246287, Note_on_c, 0, 75, 69
1, 246308, Note_off_c, 0, 72, 53
1, 246356, Note_on_c, 0, 80, 69
1, 246361, Note_off_c, 0, 75, 64
1, 246398, Control_c, 0, 67, 89
1, 246428, Control_c, 0, 67, 88
1, 246438, Note_off_c, 0, 80, 62
1, 246442, Note_on_c, 0, 75, 73
1, 246442, Control_c, 0, 67, 87
1, 246457, Control_c, 0, 67, 86
1, 246472, Control_c, 0, 64, 8
1, 246472, Control_c, 0, 67, 83
1, 246487, Control_c, 0, 67, 80
1, 246495, Note_on_c, 0, 79, 69
1, 246502, Control_c, 0, 67, 77
1, 246515, Note_off_c, 0, 75, 64
1, 246516, Control_c, 0, 67, 73
1, 246531, Control_c, 0, 67, 68
1, 246546, Control_c, 0, 67, 64
1, 246560, Note_off_c, 0, 79, 65
1, 246561, Control_c, 0, 67, 59
1, 246576, Control_c, 0, 67, 53
1, 246579, Note_on_c, 0, 82, 57
1, 246591, Control_c, 0, 67, 48
1, 246606, Control_c, 0, 67, 43
1, 246607, Note_off_c, 0, 82, 67
1, 246621, Control_c, 0, 67, 38
1, 246635, Control_c, 0, 67, 31
1, 246648, Note_on_c, 0, 51, 61
1, 246649, Note_on_c, 0, 58, 68
1, 246650, Control_c, 0, 67, 24
1, 246662, Note_on_c, 0, 79, 72
1, 246665, Control_c, 0, 67, 16
1, 246680, Control_c, 0, 67, 0
1, 246698, Note_off_c, 0, 58, 57
1, 246705, Note_off_c, 0, 51, 58
1, 246734, Note_on_c, 0, 82, 67
1, 246737, Note_off_c, 0, 79, 60
1, 246805, Note_off_c, 0, 82, 64
1, 246808, Note_on_c, 0, 85, 69
1, 246841, Control_c, 0, 64, 9
1, 246860, Note_off_c, 0, 85, 64
1, 246895, Note_on_c, 0, 56, 67
1, 246895, Note_on_c, 0, 84, 78
1, 246916, Control_c, 0, 64, 8
1, 246975, Note_on_c, 0, 85, 78
1, 247013, Note_off_c, 0, 84, 61
1, 247054, Note_on_c, 0, 87, 80
1, 247056, Note_off_c, 0, 85, 64
1, 247141, Note_on_c, 0, 85, 77
1, 247153, Note_off_c, 0, 87, 63
1, 247205, Note_off_c, 0, 85, 64
1, 247207, Note_on_c, 0, 84, 72
1, 247244, Note_off_c, 0, 56, 53
1, 247287, Note_off_c, 0, 84, 61
1, 247288, Note_on_c, 0, 82, 81
1, 247359, Note_on_c, 0, 80, 76
1, 247423, Note_off_c, 0, 82, 62
1, 247431, Note_on_c, 0, 79, 79
1, 247458, Note_off_c, 0, 80, 63
1, 247479, Note_off_c, 0, 79, 61
1, 247502, Control_c, 0, 67, 8
1, 247511, Note_on_c, 0, 77, 65
1, 247517, Control_c, 0, 64, 0
1, 247517, Control_c, 0, 67, 11
1, 247531, Control_c, 0, 67, 13
1, 247546, Control_c, 0, 67, 15
1, 247554, Note_off_c, 0, 77, 58
1, 247561, Control_c, 0, 67, 17
1, 247575, Control_c, 0, 67, 19
1, 247590, Note_on_c, 0, 75, 71
1, 247590, Control_c, 0, 67, 22
1, 247605, Control_c, 0, 67, 25
1, 247620, Control_c, 0, 67, 27
1, 247635, Control_c, 0, 67, 29
1, 247650, Control_c, 0, 67, 32
1, 247658, Note_on_c, 0, 73, 66
1, 247664, Control_c, 0, 67, 33
1, 247677, Note_off_c, 0, 75, 58
1, 247679, Control_c, 0, 67, 34
1, 247694, Control_c, 0, 67, 35
1, 247704, Note_on_c, 0, 49, 46
1, 247715, Note_off_c, 0, 73, 65
1, 247726, Note_on_c, 0, 72, 69
1, 247739, Control_c, 0, 67, 34
1, 247768, Control_c, 0, 67, 34
1, 247783, Control_c, 0, 67, 33
1, 247787, Note_on_c, 0, 53, 49
1, 247807, Note_off_c, 0, 72, 60
1, 247810, Note_on_c, 0, 70, 67
1, 247836, Control_c, 0, 67, 33
1, 247861, Note_off_c, 0, 70, 57
1, 247895, Control_c, 0, 67, 32
1, 247940, Control_c, 0, 67, 32
1, 247982, Note_on_c, 0, 73, 63
1, 248028, Control_c, 0, 67, 31
1, 248072, Note_on_c, 0, 72, 64
1, 248076, Note_off_c, 0, 73, 65
1, 248087, Control_c, 0, 67, 31
1, 248156, Note_off_c, 0, 72, 62
1, 248164, Note_on_c, 0, 70, 65
1, 248200, Note_off_c, 0, 70, 64
1, 248251, Control_c, 0, 67, 30
1, 248296, Note_on_c, 0, 77, 56
1, 248355, Control_c, 0, 67, 30
1, 248387, Note_off_c, 0, 49, 55
1, 248389, Note_on_c, 0, 75, 60
1, 248399, Control_c, 0, 67, 29
1, 248401, Note_off_c, 0, 77, 59
1, 248408, Note_off_c, 0, 53, 60
1, 248470, Note_on_c, 0, 73, 62
1, 248479, Note_off_c, 0, 75, 59
1, 248524, Note_off_c, 0, 73, 60
1, 248543, Note_on_c, 0, 72, 61
1, 248624, Note_off_c, 0, 72, 53
1, 248628, Note_on_c, 0, 70, 72
1, 248660, Control_c, 0, 67, 29
1, 248701, Note_on_c, 0, 68, 71
1, 248734, Control_c, 0, 67, 28
1, 248748, Note_off_c, 0, 70, 58
1, 248774, Note_on_c, 0, 67, 69
1, 248803, Note_off_c, 0, 68, 64
1, 248826, Note_off_c, 0, 67, 62
1, 248844, Note_on_c, 0, 65, 68
1, 248936, Note_off_c, 0, 65, 63
1, 248950, Note_on_c, 0, 63, 61
1, 248993, Note_on_c, 0, 60, 79
1, 248994, Note_on_c, 0, 51, 72
1, 249041, Note_off_c, 0, 60, 61
1, 249054, Note_off_c, 0, 51, 61
1, 249242, Note_on_c, 0, 60, 74
1, 249249, Note_on_c, 0, 51, 63
1, 249285, Note_off_c, 0, 60, 56
1, 249304, Note_off_c, 0, 51, 56
1, 249356, Note_off_c, 0, 63, 55
1, 249366, Note_on_c, 0, 68, 48
1, 249417, Note_off_c, 0, 68, 60
1, 249427, Note_on_c, 0, 70, 53
1, 249453, Control_c, 0, 67, 28
1, 249461, Note_off_c, 0, 70, 63
1, 249484, Note_on_c, 0, 72, 65
1, 249503, Note_on_c, 0, 55, 66
1, 249504, Note_on_c, 0, 51, 55
1, 249531, Note_off_c, 0, 72, 59
1, 249539, Note_off_c, 0, 55, 63
1, 249547, Note_on_c, 0, 70, 67
1, 249553, Note_off_c, 0, 51, 60
1, 249585, Note_off_c, 0, 70, 59
1, 249619, Note_on_c, 0, 72, 60
1, 249658, Note_off_c, 0, 72, 62
1, 249661, Note_on_c, 0, 70, 64
1, 249693, Note_off_c, 0, 70, 63
1, 249720, Note_on_c, 0, 51, 54
1, 249725, Note_on_c, 0, 55, 60
1, 249734, Control_c, 0, 67, 28
1, 249737, Note_on_c, 0, 72, 68
1, 249749, Control_c, 0, 67, 30
1, 249764, Control_c, 0, 67, 32
1, 249769, Note_off_c, 0, 55, 63
1, 249773, Note_off_c, 0, 51, 58
1, 249773, Note_off_c, 0, 72, 59
1, 249778, Control_c, 0, 67, 33
1, 249782, Note_on_c, 0, 70, 45
1, 249793, Control_c, 0, 67, 35
1, 249808, Note_off_c, 0, 70, 56
1, 249808, Control_c, 0, 67, 37
1, 249823, Control_c, 0, 67, 43
1, 249838, Control_c, 0, 67, 53
1, 249852, Control_c, 0, 67, 63
1, 249853, Poly_aftertouch_c, 0, 72, 0
1, 249867, Control_c, 0, 67, 70
1, 249882, Control_c, 0, 67, 75
1, 249887, Note_on_c, 0, 70, 61
1, 249897, Control_c, 0, 67, 78
1, 249912, Control_c, 0, 67, 80
1, 249914, Note_off_c, 0, 70, 65
1, 249946, Note_on_c, 0, 68, 43
1, 249956, Control_c, 0, 67, 79
1, 249971, Control_c, 0, 67, 79
1, 249972, Note_off_c, 0, 68, 58
1, 249979, Note_on_c, 0, 70, 72
1, 250001, Control_c, 0, 67, 78
1, 250016, Control_c, 0, 67, 77
1, 250026, Note_off_c, 0, 70, 61
1, 250031, Control_c, 0, 67, 77
1, 250051, Note_on_c, 0, 68, 64
1, 250052, Note_on_c, 0, 56, 52
1, 250060, Control_c, 0, 67, 76
1, 250082, Control_c, 0, 67, 76
1, 250126, Control_c, 0, 67, 76
1, 250156, Control_c, 0, 67, 77
1, 250186, Control_c, 0, 67, 77
1, 250193, Note_off_c, 0, 68, 63
1, 250195, Note_off_c, 0, 56, 61
1, 250202, Control_c, 0, 67, 78
1, 250217, Control_c, 0, 67, 78
1, 250231, Control_c, 0, 67, 79
1, 250335, Control_c, 0, 67, 78
1, 250350, Control_c, 0, 67, 78
1, 250394, Control_c, 0, 67, 77
1, 250439, Control_c, 0, 67, 78
1, 250469, Control_c, 0, 67, 78
1, 250483, Control_c, 0, 67, 79
1, 250498, Control_c, 0, 67, 79
1, 250555, Control_c, 0, 67, 79
1, 250570, Control_c, 0, 67, 78
1, 250585, Control_c, 0, 67, 78
1, 250591, Note_on_c, 0, 77, 77
1, 250600, Control_c, 0, 67, 76
1, 250612, Note_on_c, 0, 73, 60
1, 250615, Control_c, 0, 67, 74
1, 250616, Note_on_c, 0, 58, 54
1, 250618, Note_on_c, 0, 49, 51
1, 250630, Control_c, 0, 67, 72
1, 250645, Control_c, 0, 67, 69
1, 250646, Note_off_c, 0, 58, 66
1, 250648, Note_off_c, 0, 49, 64
1, 250648, Note_off_c, 0, 73, 65
1, 250660, Control_c, 0, 67, 67
1, 250661, Note_off_c, 0, 77, 65
1, 250674, Control_c, 0, 67, 64
1, 250689, Control_c, 0, 67, 59
1, 250704, Control_c, 0, 67, 51
1, 250719, Control_c, 0, 67, 42
1, 250734, Control_c, 0, 67, 35
1, 250748, Control_c, 0, 67, 31
1, 250904, Control_c, 0, 67, 31
1, 250919, Control_c, 0, 67, 32
1, 250949, Control_c, 0, 67, 32
1, 250952, Note_on_c, 0, 67, 73
1, 250977, Note_on_c, 0, 51, 54
1, 250979, Note_on_c, 0, 63, 37
1, 250986, Note_on_c, 0, 61, 45
1, 251009, Control_c, 0, 64, 33
1, 251017, Note_off_c, 0, 63, 52
1, 251023, Control_c, 0, 64, 55
1, 251032, Note_off_c, 0, 61, 45
1, 251038, Control_c, 0, 64, 61
1, 251053, Control_c, 0, 64, 63
1, 251068, Control_c, 0, 64, 64
1, 251083, Control_c, 0, 64, 64
1, 251112, Control_c, 0, 67, 33
1, 251127, Control_c, 0, 67, 33
1, 251142, Control_c, 0, 67, 34
1, 251157, Control_c, 0, 67, 34
1, 251171, Control_c, 0, 67, 35
1, 251186, Control_c, 0, 64, 63
1, 251186, Control_c, 0, 67, 36
1, 251201, Control_c, 0, 64, 62
1, 251201, Control_c, 0, 67, 37
1, 251216, Control_c, 0, 64, 60
1, 251216, Control_c, 0, 67, 37
1, 251230, Control_c, 0, 64, 58
1, 251230, Control_c, 0, 67, 38
1, 251238, Note_on_c, 0, 68, 65
1, 251245, Control_c, 0, 64, 54
1, 251245, Control_c, 0, 67, 38
1, 251254, Note_off_c, 0, 67, 55
1, 251259, Note_on_c, 0, 63, 44
1, 251260, Control_c, 0, 64, 49
1, 251260, Control_c, 0, 67, 39
1, 251266, Note_on_c, 0, 56, 47
1, 251266, Note_on_c, 0, 60, 39
1, 251275, Control_c, 0, 64, 43
1, 251275, Control_c, 0, 67, 40
1, 251290, Control_c, 0, 64, 38
1, 251290, Control_c, 0, 67, 40
1, 251304, Control_c, 0, 64, 34
1, 251304, Control_c, 0, 67, 41
1, 251309, Note_off_c, 0, 51, 36
1, 251310, Note_off_c, 0, 60, 53
1, 251311, Note_off_c, 0, 63, 57
1, 251319, Control_c, 0, 64, 27
1, 251319, Control_c, 0, 67, 41
1, 251328, Note_off_c, 0, 56, 53
1, 251334, Control_c, 0, 64, 20
1, 251334, Control_c, 0, 67, 42
1, 251349, Control_c, 0, 64, 0
1, 251349, Control_c, 0, 67, 43
1, 251364, Control_c, 0, 67, 44
1, 251375, Note_off_c, 0, 68, 65
1, 251378, Control_c, 0, 67, 45
1, 251393, Control_c, 0, 67, 47
1, 251408, Control_c, 0, 67, 53
1, 251423, Control_c, 0, 67, 61
1, 251438, Control_c, 0, 67, 68
1, 251453, Control_c, 0, 67, 74
1, 251468, Control_c, 0, 67, 80
1, 251483, Control_c, 0, 67, 84
1, 251497, Control_c, 0, 67, 89
1, 251512, Control_c, 0, 67, 94
1, 251527, Control_c, 0, 67, 96
1, 251542, Control_c, 0, 67, 97
1, 251557, Control_c, 0, 67, 98
1, 251578, Control_c, 0, 67, 100
1, 251593, Control_c, 0, 67, 102
1, 251608, Control_c, 0, 67, 105
1, 251623, Control_c, 0, 67, 106
1, 251638, Control_c, 0, 67, 107
1, 251652, Control_c, 0, 67, 107
1, 251667, Control_c, 0, 67, 109
1, 251682, Control_c, 0, 67, 110
1, 251697, Control_c, 0, 67, 111
1, 251712, Control_c, 0, 67, 112
1, 251742, Control_c, 0, 67, 114
1, 251756, Control_c, 0, 67, 116
1, 251771, Control_c, 0, 67, 117
1, 251786, Control_c, 0, 67, 118
1, 251801, Control_c, 0, 67, 119
1, 251816, Control_c, 0, 67, 121
1, 251831, Control_c, 0, 67, 122
1, 251846, Control_c, 0, 67, 123
1, 251861, Control_c, 0, 67, 124
1, 251876, Control_c, 0, 67, 125
1, 251891, Control_c, 0, 67, 126
1, 251906, Control_c, 0, 67, 127
1, 251920, Control_c, 0, 67, 127
1, 251973, Note_on_c, 0, 77, 53
1, 252004, Note_on_c, 0, 73, 27
1, 252024, Note_on_c, 0, 49, 36
1, 252036, Note_on_c, 0, 58, 25
1, 252082, Note_off_c, 0, 77, 65
1, 252093, Note_off_c, 0, 73, 32
1, 252099, Control_c, 0, 67, 127
1, 252102, Note_off_c, 0, 49, 57
1, 252114, Control_c, 0, 67, 126
1, 252115, Note_off_c, 0, 58, 56
1, 252158, Control_c, 0, 67, 127
1, 252465, Note_on_c, 0, 67, 54
1, 252477, Note_on_c, 0, 61, 37
1, 252490, Note_on_c, 0, 51, 36
1, 252491, Control_c, 0, 64, 14
1, 252494, Note_on_c, 0, 58, 34
1, 252506, Control_c, 0, 64, 40
1, 252521, Control_c, 0, 64, 55
1, 252535, Control_c, 0, 64, 60
1, 252550, Control_c, 0, 64, 64
1, 252550, Control_c, 0, 67, 126
1, 252565, Control_c, 0, 64, 67
1, 252579, Control_c, 0, 64, 70
1, 252595, Note_off_c, 0, 61, 35
1, 252596, Control_c, 0, 64, 74
1, 252596, Control_c, 0, 67, 126
1, 252602, Note_off_c, 0, 58, 55
1, 252611, Control_c, 0, 64, 77
1, 252625, Control_c, 0, 64, 79
1, 252640, Control_c, 0, 64, 79
1, 252655, Control_c, 0, 64, 80
1, 252655, Control_c, 0, 67, 125
1, 252670, Control_c, 0, 67, 125
1, 252684, Control_c, 0, 67, 124
1, 252758, Control_c, 0, 64, 79
1, 252773, Control_c, 0, 64, 79
1, 252782, Note_off_c, 0, 67, 43
1, 252788, Control_c, 0, 64, 78
1, 252802, Control_c, 0, 64, 77
1, 252802, Control_c, 0, 67, 125
1, 252817, Control_c, 0, 64, 75
1, 252832, Control_c, 0, 64, 73
1, 252847, Control_c, 0, 64, 71
1, 252847, Control_c, 0, 67, 124
1, 252862, Control_c, 0, 64, 70
1, 252876, Control_c, 0, 64, 69
1, 252891, Control_c, 0, 64, 68
1, 252906, Control_c, 0, 64, 67
1, 252906, Control_c, 0, 67, 125
1, 252921, Control_c, 0, 64, 64
1, 252936, Control_c, 0, 64, 62
1, 252950, Control_c, 0, 64, 59
1, 252965, Control_c, 0, 64, 56
1, 252980, Control_c, 0, 64, 54
1, 252994, Control_c, 0, 64, 52
1, 252994, Control_c, 0, 67, 125
1, 252998, Note_on_c, 0, 68, 41
1, 253009, Control_c, 0, 64, 49
1, 253009, Control_c, 0, 67, 126
1, 253012, Note_on_c, 0, 60, 23
1, 253019, Note_on_c, 0, 56, 33
1, 253024, Note_on_c, 0, 44, 29
1, 253024, Control_c, 0, 64, 43
1, 253024, Control_c, 0, 67, 127
1, 253039, Control_c, 0, 64, 36
1, 253039, Control_c, 0, 67, 127
1, 253054, Control_c, 0, 64, 24
1, 253076, Control_c, 0, 64, 0
1, 253122, Note_off_c, 0, 51, 41
1, 253180, Control_c, 0, 64, 31
1, 253195, Control_c, 0, 64, 50
1, 253195, Control_c, 0, 67, 127
1, 253209, Control_c, 0, 64, 57
1, 253209, Control_c, 0, 67, 126
1, 253224, Control_c, 0, 64, 60
1, 253224, Control_c, 0, 67, 124
1, 253239, Control_c, 0, 64, 62
1, 253239, Control_c, 0, 67, 123
1, 253254, Control_c, 0, 64, 64
1, 253254, Control_c, 0, 67, 122
1, 253267, Note_off_c, 0, 56, 38
1, 253269, Control_c, 0, 64, 65
1, 253269, Control_c, 0, 67, 121
1, 253283, Control_c, 0, 64, 66
1, 253283, Control_c, 0, 67, 120
1, 253287, Note_off_c, 0, 60, 30
1, 253298, Control_c, 0, 64, 67
1, 253313, Control_c, 0, 64, 67
1, 253333, Note_off_c, 0, 68, 40
1, 253402, Note_off_c, 0, 44, 29
1, 253403, Control_c, 0, 67, 120
1, 253418, Control_c, 0, 64, 67
1, 253418, Control_c, 0, 67, 120
1, 253432, Control_c, 0, 64, 66
1, 253447, Control_c, 0, 64, 65
1, 253462, Control_c, 0, 64, 64
1, 253477, Control_c, 0, 64, 63
1, 253492, Control_c, 0, 64, 61
1, 253507, Control_c, 0, 64, 60
1, 253521, Control_c, 0, 64, 58
1, 253536, Control_c, 0, 64, 56
1, 253536, Control_c, 0, 67, 121
1, 253551, Control_c, 0, 64, 55
1, 253566, Control_c, 0, 64, 52
1, 253581, Control_c, 0, 64, 50
1, 253596, Control_c, 0, 64, 48
1, 253611, Control_c, 0, 64, 46
1, 253625, Control_c, 0, 64, 45
1, 253640, Control_c, 0, 64, 43
1, 253655, Control_c, 0, 64, 42
1, 253670, Control_c, 0, 64, 40
1, 253685, Control_c, 0, 64, 38
1, 253699, Control_c, 0, 64, 37
1, 253714, Control_c, 0, 64, 35
1, 253729, Control_c, 0, 64, 33
1, 253744, Control_c, 0, 64, 31
1, 253759, Control_c, 0, 64, 29
1, 253773, Control_c, 0, 64, 26
1, 253788, Control_c, 0, 64, 24
1, 253803, Control_c, 0, 64, 23
1, 253825, Control_c, 0, 64, 22
1, 253840, Control_c, 0, 64, 20
1, 253855, Control_c, 0, 64, 19
1, 253870, Control_c, 0, 64, 18
1, 253885, Control_c, 0, 64, 17
1, 253899, Control_c, 0, 64, 16
1, 253914, Control_c, 0, 64, 16
1, 253914, Control_c, 0, 67, 120
1, 253929, Control_c, 0, 64, 15
1, 254017, Control_c, 0, 67, 120
1, 254032, Control_c, 0, 64, 15
1, 254047, Control_c, 0, 67, 119
1, 254077, Control_c, 0, 67, 119
1, 254092, Control_c, 0, 67, 118
1, 254121, Control_c, 0, 67, 117
1, 254136, Control_c, 0, 67, 116
1, 254165, Control_c, 0, 67, 116
1, 254180, Control_c, 0, 67, 115
1, 254196, Control_c, 0, 67, 114
1, 254211, Control_c, 0, 67, 114
1, 254226, Control_c, 0, 67, 113
1, 254241, Control_c, 0, 64, 15
1, 254241, Control_c, 0, 67, 113
1, 254255, Control_c, 0, 64, 16
1, 254255, Control_c, 0, 67, 112
1, 254270, Control_c, 0, 64, 17
1, 254270, Control_c, 0, 67, 111
1, 254285, Control_c, 0, 67, 110
1, 254300, Control_c, 0, 64, 17
1, 254300, Control_c, 0, 67, 110
1, 254315, Control_c, 0, 67, 109
1, 254329, Control_c, 0, 64, 18
1, 254329, Control_c, 0, 67, 109
1, 254344, Control_c, 0, 67, 108
1, 254359, Control_c, 0, 67, 107
1, 254374, Control_c, 0, 67, 106
1, 254389, Control_c, 0, 67, 105
1, 254404, Control_c, 0, 64, 19
1, 254404, Control_c, 0, 67, 105
1, 254419, Control_c, 0, 67, 104
1, 254434, Control_c, 0, 67, 103
1, 254448, Control_c, 0, 64, 19
1, 254448, Control_c, 0, 67, 102
1, 254463, Control_c, 0, 64, 20
1, 254463, Control_c, 0, 67, 101
1, 254478, Control_c, 0, 64, 21
1, 254478, Control_c, 0, 67, 100
1, 254493, Control_c, 0, 64, 22
1, 254493, Control_c, 0, 67, 99
1, 254508, Control_c, 0, 64, 23
1, 254508, Control_c, 0, 67, 98
1, 254522, Control_c, 0, 67, 96
1, 254537, Control_c, 0, 67, 95
1, 254552, Control_c, 0, 67, 93
1, 254574, Control_c, 0, 67, 91
1, 254589, Control_c, 0, 64, 23
1, 254589, Control_c, 0, 67, 89
1, 254604, Control_c, 0, 67, 87
1, 254618, Control_c, 0, 64, 24
1, 254618, Control_c, 0, 67, 85
1, 254633, Control_c, 0, 64, 24
1, 254633, Control_c, 0, 67, 82
1, 254648, Control_c, 0, 67, 80
1, 254663, Control_c, 0, 67, 77
1, 254678, Control_c, 0, 64, 25
1, 254678, Control_c, 0, 67, 73
1, 254693, Control_c, 0, 64, 26
1, 254693, Control_c, 0, 67, 69
1, 254708, Control_c, 0, 67, 65
1, 254722, Control_c, 0, 64, 26
1, 254722, Control_c, 0, 67, 61
1, 254737, Control_c, 0, 67, 57
1, 254752, Control_c, 0, 67, 53
1, 254766, Control_c, 0, 67, 46
1, 254781, Control_c, 0, 67, 40
1, 254796, Control_c, 0, 67, 33
1, 254811, Control_c, 0, 67, 26
1, 254826, Control_c, 0, 67, 20
1, 254840, Control_c, 0, 67, 15
1, 254855, Control_c, 0, 67, 11
1, 254870, Control_c, 0, 64, 26
1, 254870, Control_c, 0, 67, 0
1, 255457, Control_c, 0, 64, 25
1, 255516, Control_c, 0, 64, 25
1, 255531, Control_c, 0, 64, 23
1, 255545, Control_c, 0, 64, 21
1, 255560, Control_c, 0, 64, 21
1, 255605, Control_c, 0, 64, 20
1, 255620, Control_c, 0, 64, 20
1, 255635, Control_c, 0, 64, 19
1, 255799, Control_c, 0, 64, 20
1, 255843, Control_c, 0, 64, 20
1, 255873, Control_c, 0, 64, 21
1, 255948, End_track
0, 0, End_of_file
